<svg xmlns="http://www.w3.org/2000/svg" viewBox="0 0 768 430"><style>.a{fill:#935212;}.b{fill:#A06020;}.c{fill:#AB6E2B;}.d{fill:#632B00;}.e{fill:#7D5235;}.f{fill:#F9A369;}.g{fill:#FAC480;}.h{fill:#FADE9B;}.i{fill:#FDF2D7;}.j{fill:#F97847;}.k{fill:#DDD;}.l{fill:#FFF;}.m{fill:#BCBCBC;}.n{fill:#E0E0E0;}.o{fill:#5FA6FF;}.p{fill:#3070D1;}.q{fill:#5E2A00;}.r{fill:#2B0F00;}</style><path d="M419.9 350.5c0 0 30.4-2.8 54.5 6.5 3.9 1.6 6.9-2.2 5.5-5.9s-15.6-20.6-16.3-21.2c-3.7-1.8-44.5-10.6-52.9-1.8 -7.9 3.5-7.9 13.6-8.1 17.6S419.9 350.5 419.9 350.5z" class="a"/><path d="M465.2 349.5c-7.5-1-14.8-3.3-22.6-2.8 -4.6 0.1-9.9-1-13-3.9 -17.6-2.1-15.8-10.4-17.2-14.8 8.5-8.6 47.6 0.1 51.3 1.9 0.6 0.4 8.6 9.8 13.2 16.2C473.6 349.1 469.3 350.4 465.2 349.5z" class="b"/><path d="M463.1 339.5c0.9 1.7 1.8 4 0.1 4.9 -1.7 0.9-3.7 1.5-5.4 0.5 -6.6-3.3-13.2-1.1-19.5-4.1 -4.7-2.1-16.8-10.1-16.4-15.4 9.9-3.6 30.4 2 37.2 3.4C459.4 332.7 461.8 335.8 463.1 339.5z" class="c"/><path d="M474.3 357.3c-23.7-9.2-54.1-6.5-54.4-6.5l0 0c-1.8-0.1-17.7-1-17.6-5.1l0-0.6c0.2-4.5 0.5-13.8 8.2-17.3 1.6-1.6 4.5-2.8 8.5-3.4 14.9-2.2 41.7 3.8 44.8 5.2l0 0c0.7 0.5 15 17.5 16.4 21.3 0.6 1.6 0.5 3.2-0.3 4.5 -0.7 1.2-1.8 1.9-3.1 2.1C476 357.8 475.2 357.7 474.3 357.3zM419.1 325.1c-3.9 0.6-6.6 1.7-8.2 3.2l0 0 -0.1 0c-7.4 3.3-7.7 12.4-7.9 16.8l0 0.6c-0.1 3 12.2 4.3 17 4.5 1-0.1 31-2.6 54.6 6.5 0.8 0.3 1.5 0.4 2.2 0.3 1.1-0.2 2-0.8 2.6-1.8 0.7-1.2 0.8-2.6 0.3-4 -1.4-3.7-15.3-20.3-16.2-21C460.4 328.8 433.8 322.9 419.1 325.1z" class="d"/><path d="M492.5 331c2.1-0.8 4.3 0.2 4.3 0.2l0.3-0.5C493.8 329.6 492.5 331 492.5 331z" class="e"/><path d="M478.7 355.9c0 0 9.9 17.9 31 0.1 2.8 4.3 8.8 10.5 17.4 7.5 5.5-2.1 11-13.3 3.6-18.1 6.6-0.2 14.6-11.4 3.6-19.5 3.7-3.2 5-13.3-4.5-18.2 -9.4-5-27.6-9.1-40.6 10.1 -7.3 4.5-14.4 6.5-14.4 6.5L478.7 355.9z" class="f"/><path d="M478.7 355.9c0 0 9.3 13 30.4-4.9 2.8 4.3 9.2 12.8 17.8 9.7 5.5-2.1 11.1-10.6 3.8-15.4 6.6-0.2 14.6-11.4 3.6-19.5 3.7-3.2 5-13.3-4.5-18.2 -9.4-5-27.6-9.1-40.6 10.1 -7.3 4.5-14.4 6.5-14.4 6.5L478.7 355.9z" class="g"/><path d="M480.3 352.9c0 0 7.6 12.1 28.7-5.8 2.8 4.3 10.8 12 16.4 10.7 5.5-2.1 8.9-7.8 1.6-12.6 6.6-0.2 16.5-9.7 7.2-19.5 3.7-3.2 5-13.3-4.5-18.2 -9.4-5-27.6-9.1-40.6 10.1 -7.3 4.5-14.4 6.5-14.4 6.5L480.3 352.9z" class="h"/><path d="M527.1 309.9c-8.3-3.8-17.7-4.6-26.7-3 10.8-6.1 22.5-3 29.4 0.7 5.4 2.9 7.3 7.4 7.2 11.3C534.9 314.8 531.2 311.6 527.1 309.9z" class="i"/><path d="M478.4 356l0-0.1 -3.8-32 0.2-0.1c0.1 0 7-2.1 14.2-6.5 9.8-14.5 22.2-15.5 31-13.7 4.3 0.9 7.8 2.4 9.9 3.5 4.2 2.2 6.8 5.8 7.3 10 0.4 3.3-0.6 6.7-2.5 8.5 4.4 3.4 6.2 7.9 4.8 12.3 -1.2 3.8-4.6 6.9-8 7.4 2.2 1.8 3.3 4.5 2.9 7.6 -0.5 4.5-3.8 9.2-7.3 10.6 -2.4 0.8-4.7 1-7 0.6 0 0 0 0 0 0 -5.2-1-8.8-5.3-10.6-7.9 -7.4 6.2-14.2 8.7-20.3 7.5C482 362.4 478.4 356.1 478.4 356zM509.9 355.8c1.7 2.5 5.3 6.9 10.4 7.9 0 0 0 0 0 0 2.1 0.4 4.4 0.2 6.6-0.6 3.3-1.3 6.5-5.9 6.9-10.1 0.2-2.3-0.1-5.4-3.3-7.5l-0.8-0.5 0.9 0c3.4-0.1 7.1-3.2 8.3-7.1 0.8-2.5 1.2-7.4-4.9-11.9l-0.3-0.2 0.3-0.2c1.9-1.7 3-5 2.6-8.2 -0.5-4-3-7.4-7-9.5 -2.1-1.1-5.6-2.6-9.8-3.5 -8.6-1.7-20.8-0.8-30.4 13.5l0 0.1 -0.1 0c-6.5 4-12.9 6.1-14.2 6.5l3.8 31.4c0.3 0.6 3.8 6.2 10.4 7.5 6 1.2 12.7-1.3 20.1-7.6l0.3-0.2L509.9 355.8z" class="e"/><path d="M486.1 356.1c0 0-4.8 5-10.3 1.7 -6-3.6-12-11.3-13.6-19 -2.4-13.8 1.9-37.1 16.5-40.7 14.6-3.6 19.7 4 16.9 14.9 -2.4 9.1-12.4 12-12.4 12 6.7 1.3 11.4 10.9 5.3 22.5L486.1 356.1z" class="f"/><path d="M486.1 356.1c0 0-3.6 3.9-9.1 0.6 -6-3.6-10.2-9.9-11.8-17.6 -2.4-13.8-1.1-37.3 13.5-40.9 14.6-3.6 19.7 4 16.9 14.9 -2.4 9.1-12.4 12-12.4 12 6.7 1.3 11.4 10.9 5.3 22.5L486.1 356.1z" class="g"/><path d="M486.1 356.1c0 0-3.3 2.2-8.8-1.1 -6-3.6-7.8-8.4-9.4-16.1 -2.4-13.8-3.7-37.2 10.9-40.8 14.6-3.6 19.7 4 16.9 14.9 -2.4 9.1-12.4 12-12.4 12 6.7 1.3 11.4 10.9 5.3 22.5 0 0 0.2 2.7 0 3.6C488.3 352.4 486.1 356.1 486.1 356.1z" class="h"/><path d="M489.1 300.7c-3.6-1.7-9.8-1.2-13.9-1.1 1.1-0.6 2.3-1.1 3.6-1.4 14.6-3.6 19.7 4 16.9 14.9 -0.2 0.8-0.5 1.5-0.8 2.2C495.5 306.2 494.2 303.2 489.1 300.7z" class="i"/><path d="M478.3 359.1c1.2 0.2 2.3 0.2 3.3 0 2.9-0.6 4.6-3 4.6-3 -0.2 0.2-4.9 4.5-10.2 1.4 -6.3-3.7-11.9-11.6-13.4-18.8 -1.3-7.3-0.5-16.5 1.9-24 2.1-6.3 6.2-14.3 14.4-16.3 6.7-1.7 11.8-1 14.6 1.9 2.6 2.6 3.3 7.1 1.9 12.6 -2.4 8.8-12.1 11.8-12.2 11.8l-1.2 0.3 1.2 0.2c2.7 0.5 5.1 2.6 6.5 5.6 2.3 4.8 1.8 11-1.3 16.9 0 0 2.3-3.7 2.8-5.7 1-4.1 0.7-8.2-0.9-11.5 -1.3-2.8-3.5-4.8-6-5.6 2.6-1 9.6-4.4 11.6-11.9 1.5-5.7 0.8-10.4-2-13.2 -3-3-8.3-3.7-15.2-2 -8.5 2.1-12.8 10.2-14.9 16.7 -2.5 7.5-3.2 16.8-1.9 24.3 1.6 7.5 7.2 15.3 13.7 19.2C476.5 358.6 477.4 358.9 478.3 359.1z" class="e"/><path d="M503.8 347.7c-0.1 0-8.4-4.5-8.1-19.5 0 0-0.7 5.6 0.9 10.6C499.1 345.9 503.8 347.7 503.8 347.7z" class="e"/><path d="M515.3 339.8c0.6-7.5-1.9-12.6-4.4-15.9 -3.5-4.5-8.1-5.8-8.1-5.8 0 0 4.3 1.9 7.7 6.2 3.1 4 6.2 11.1 3 22C513.4 346.3 515.1 341.8 515.3 339.8z" class="e"/><path d="M521.2 328.8c4.9 1 8.3 0.1 10.4-0.9 3.1-1.5 4.3-3.8 4.3-3.9l-0.5-0.3c0 0-1.2 2.2-4.1 3.6 -3.9 1.9-9 1.7-14.9-0.6 -7.5-3.1-6.1-10.5-6-10.9 0 0-1.2 3.1 0.3 6.3 0.9 1.9 2.5 3.8 5.5 5.1C518 328.1 519.7 328.5 521.2 328.8z" class="e"/><path d="M525.4 345.3c4.1 0.8 7.5-0.2 7.6-0.2l-0.2-0.6c-0.1 0-11 3.3-17.4-7.2l-0.5 0.3C517.9 342.6 521.9 344.6 525.4 345.3z" class="e"/><path d="M352.3 353.2c0 0-30.4-2.8-54.5 6.5 -3.9 1.6-6.9-2.2-5.5-5.9 1.4-3.7 15.6-20.6 16.3-21.2 3.7-1.8 44.5-10.6 52.9-1.8 7.9 3.5 7.9 13.6 8.1 17.6C369.7 352.4 352.3 353.2 352.3 353.2z" class="a"/><path d="M307 352.2c7.5-1 14.8-3.3 22.6-2.8 4.6 0.1 9.9-1 13-3.9 17.6-2.1 15.8-10.4 17.2-14.8 -8.5-8.6-47.6 0.1-51.3 1.9 -0.6 0.4-8.6 9.8-13.2 16.2C298.6 351.8 302.9 353.1 307 352.2z" class="b"/><path d="M309.1 342.2c-0.9 1.7-1.8 4-0.1 4.9 1.7 0.9 3.7 1.5 5.4 0.5 6.6-3.3 13.2-1.1 19.5-4.1 4.7-2.1 16.8-10.1 16.4-15.4 -9.9-3.6-30.4 2-37.2 3.4C312.8 335.3 310.4 338.5 309.1 342.2z" class="c"/><path d="M295.3 360.4c-1.3-0.2-2.4-0.9-3.1-2.1 -0.8-1.3-0.9-3-0.3-4.5 1.4-3.8 15.7-20.8 16.4-21.3l0 0c3-1.4 29.9-7.4 44.8-5.2 4 0.6 6.8 1.7 8.5 3.4 7.7 3.5 8 12.8 8.2 17.3l0 0.6c0.2 4.2-15.7 5-17.6 5.1h0c-0.3 0-30.6-2.7-54.4 6.5C297 360.4 296.2 360.5 295.3 360.4zM308.7 332.9c-0.9 0.7-14.8 17.3-16.2 21 -0.5 1.4-0.4 2.8 0.3 4 0.6 1 1.5 1.7 2.6 1.8 0.7 0.1 1.5 0 2.2-0.3 23.6-9.2 53.7-6.6 54.6-6.5 4.8-0.2 17.1-1.5 17-4.5l0-0.6c-0.2-4.4-0.5-13.5-7.9-16.8l-0.1 0 0 0c-1.5-1.6-4.3-2.7-8.2-3.2C338.4 325.6 311.8 331.5 308.7 332.9z" class="d"/><path d="M453.1 154.8c0 0 0.3-27.2 26.6-21.4 14.5 3.6 30.2 24.7 10.6 48.5 -7.2 7.1-18.4 11.6-33.2-8.1C454.2 163.3 453.1 154.8 453.1 154.8z" class="f"/><path d="M453.1 154.8c0 0 0.3-27.2 26.6-21.4 14.5 3.6 26.1 22.2 9.2 43.5 -7.2 7.1-22 7.3-31.7-3.2C454.2 163.3 453.1 154.8 453.1 154.8z" class="g"/><path d="M463.9 150.1c-0.6 1.2-2.4 1.7-2.7 1.1 -1.8-2.7-3.3-9.5-3-11.9 3.8-4.9 10.2-8.4 21.5-5.9 5 1.2 9.7 4.3 12.9 8.6 -3.8-1.7-7.7-2.6-11.8-2.6C473.3 139.1 467.5 143.7 463.9 150.1z" class="h"/><path d="M456.9 173.9l0 0 0-0.1c-3-10.3-4.1-18.9-4.1-18.9l0 0v0c0-0.1 0.1-5.7 2.6-11.2 2.3-5.2 7.2-11.3 17.4-11.3 2.2 0 4.5 0.3 7 0.8 6.9 1.7 15.4 8 18.7 18 2.3 7 2.8 18-7.9 31l0 0c-4.1 4.1-8.5 6.1-12.8 6.1 0 0 0 0 0 0C471 188.2 464 183.4 456.9 173.9zM497.9 151.2c-3.2-9.8-11.5-15.9-18.3-17.6 -2.4-0.5-4.7-0.8-6.9-0.8 -7.9 0-13.6 3.7-16.9 10.9 -2.4 5.3-2.5 10.6-2.5 11 0.1 0.5 1.2 8.8 4.1 18.8 7 9.3 13.8 14 20.3 14 4.2 0 8.4-2 12.4-5.9C500.6 168.9 500.1 158.1 497.9 151.2z" class="e"/><path d="M489.3 165.1c0 0 6.9-14.2-6-19.4 -8.8-3.5-24.1 2.6-24.5 25.8 0 0 5.7 8.8 18.6 3.9C484.5 172.7 489.3 165.1 489.3 165.1z" class="f"/><path d="M459.1 171.5c0.2-11 3.8-19.3 10.2-23.6 4.3-2.9 9.6-3.6 13.9-1.9 3.4 1.4 5.8 3.6 6.9 6.5 2.3 5.8-0.8 12.6-0.8 12.6 0 0 3.8-6.8 1.4-12.9 -1.2-3.1-3.6-5.4-7.2-6.9 -4.5-1.7-10-1-14.4 2 -6.6 4.4-10.3 13-10.5 24.1L459.1 171.5z" class="e"/><path d="M475.3 163.3c-3.1-2.9-8.4-3.2-15.6-1.1l0.2 0.6c7-2 12.1-1.7 15 1 4.1 3.8 2.7 11 2.7 11.1C477.6 174.8 479.7 167.3 475.3 163.3z" class="e"/><path d="M457.9 167.6c0 3 1.8 5.5 3.9 5.5s3.9-2.4 3.9-5.5c0-3-1.8-5.5-3.9-5.5S457.9 164.6 457.9 167.6z" class="j"/><path d="M315.8 154.9c0 0-0.3-27.2-26.6-21.4 -14.5 3.6-30.2 24.7-10.6 48.5 7.2 7.1 18.4 11.6 33.2-8.1C314.7 163.3 315.8 154.9 315.8 154.9z" class="f"/><path d="M315.8 154.9c0 0-0.3-27.2-26.6-21.4 -14.5 3.6-26.1 22.2-9.2 43.5 7.2 7.1 22 7.3 31.7-3.2C314.7 163.3 315.8 154.9 315.8 154.9z" class="g"/><path d="M304.9 150.1c0.6 1.2 2.4 1.7 2.7 1.1 1.8-2.7 3.3-9.5 3-11.9 -3.8-4.9-10.2-8.4-21.5-5.9 -5 1.2-9.7 4.3-12.9 8.6 3.8-1.7 7.7-2.6 11.8-2.6C295.6 139.1 301.3 143.8 304.9 150.1z" class="h"/><path d="M310 138.6c-3.8-4.5-10.2-7.6-20.9-5.2 -4.2 1.1-8.2 3.4-11.3 6.7C287 134.4 294.6 131.6 310 138.6z" class="i"/><path d="M291.1 188.2C291.1 188.2 291.1 188.2 291.1 188.2c-4.4 0-8.7-2.1-12.8-6.1l0 0c-10.7-13-10.2-24-7.9-31 3.3-10 11.8-16.2 18.7-18 2.5-0.5 4.8-0.8 7-0.8 10.2 0 15.1 6.1 17.4 11.3 2.5 5.6 2.6 11.2 2.6 11.2l0 0 0 0c0 0.1-1.1 8.6-4.1 18.9l0 0.1 0 0C304.8 183.4 297.8 188.2 291.1 188.2zM278.7 181.7c4 3.9 8.2 5.9 12.4 5.9 6.5 0 13.3-4.7 20.3-14 2.9-10 4-18.3 4.1-18.8 0-0.4-0.2-5.7-2.5-11 -3.3-7.2-8.9-10.9-16.9-10.9 -2.1 0-4.4 0.3-6.8 0.8 -6.8 1.7-15 7.8-18.3 17.6C268.7 158.1 268.2 168.9 278.7 181.7z" class="e"/><path d="M279.6 165.2c0 0-6.9-14.2 6-19.4 8.8-3.5 24.1 2.6 24.5 25.8 0 0-5.7 8.8-18.6 3.9C284.3 172.8 279.6 165.2 279.6 165.2z" class="f"/><path d="M309.7 171.6c-0.2-11-3.8-19.3-10.2-23.6 -4.3-2.9-9.6-3.6-13.9-1.9 -3.4 1.4-5.8 3.6-6.9 6.5 -2.3 5.8 0.8 12.6 0.8 12.6 0 0-3.8-6.8-1.4-12.9 1.2-3.1 3.6-5.4 7.2-6.9 4.5-1.7 10-1 14.4 2 6.6 4.4 10.3 13 10.5 24.1L309.7 171.6z" class="e"/><path d="M293.5 163.4c3.1-2.9 8.4-3.2 15.6-1.1l-0.2 0.6c-7-2-12.1-1.7-15 1 -4.1 3.8-2.7 11-2.7 11.1C291.2 174.9 289.1 167.4 293.5 163.4z" class="e"/><path d="M307 162.2c-2.2 0-3.9 2.4-3.9 5.5 0 3 1.8 5.5 3.9 5.5s3.9-2.4 3.9-5.5C310.9 164.7 309.2 162.2 307 162.2z" class="j"/><path d="M461 170.6c-1.2-2.9 2.3-27.5-14.9-49.5 -20-25.7-42.9-31.1-54.4-32 -2-2.4-4.8-3.8-6.1-4.3 0 0-0.4 2.9-1.6 3.5 -3.1-7.6-11.2-11.6-13.8-11.6 4.2 3.3 3.4 11.2 1.5 12.3 -0.6-0.8-4.2-4.8-6.3-4.1 1.3 2.2-1.5 5.3-4.2 7.7 -11.5 3.9-25.6 12-38.5 28.6 -17.2 22-13.7 46.6-14.9 49.5 -2.3 2-14.2 15.6-9.2 37.6 1.1-2.1 4.1-6.8 4.1-6.8 0 5.3 2.1 19.4 11 23.6 0-3.5-0.2-5.3-0.2-5.3 2.9 5.3 9 12 17.8 13.2 -0.6-2.7-1.2-4.4-1.2-4.4 3.2 3.3 19 6.5 31.6 5.1 12.5-1.4 22.6 0.9 22.7 0.9 0.1 0 10.2-2.3 22.7-0.9 12.7 1.4 28.5-1.8 31.6-5.1 0 0-0.6 1.7-1.2 4.4 8.7-1.2 14.9-8 17.8-13.2 0 0-0.1 1.8-0.1 5.3 8.9-4.2 11-18.4 11-23.6 0 0 3 4.7 4.1 6.8C475.2 186.2 463.3 172.6 461 170.6z" class="a"/><path d="M428.5 228.2c5.7-0.9 10.2-4.5 14.8-8.4 0.3 1.8-0.3 3.6 0.3 5.4 7.2-4.5 11.2-12.9 13.3-21.1 1.2 1.8 1.8 3.9 1.5 6 0.6-0.6 0.6-1.2 0.6-1.8 0.6-1.8 0.9-3.9 1.2-5.7 0.6-5.7 1.2-11.7-1.8-17.2 2.4 2.1 6.2 4.7 5.7 7.8 1.7-10.1-2.3-18.5-8.3-22.8 -0.6-0.9 4.8-26.1-6-44.5 -1.1-1.7-2.2-3.3-3.5-5 -20-25.7-42.9-31.1-54.4-32 -2-2.4-4.8-3.8-6.1-4.3 0 0-0.4 2.9-1.6 3.5 -3.1-7.6-11.2-11.6-13.8-11.6 4.2 3.3 3.4 11.2 1.5 12.3 -0.6-0.8-4.2-4.8-6.3-4.1 1.3 2.2-1.5 5.3-4.2 7.7 -11.5 3.9-25.6 12-38.5 28.6 -17.2 22-13.7 46.6-14.9 49.5 -2.3 2-14.2 15.6-9.2 37.6 1.1-2.1 4.1-6.8 4.1-6.8 0 5.3 2.1 19.4 11 23.6 0-3.5-0.2-5.3-0.2-5.3 2.9 5.3 9 12 17.8 13.2 -0.6-2.7-1.2-4.4-1.2-4.4 3.2 3.3 19.7 4.3 32.4 2.9 12.5-1.4 30.2 0.5 30.4-0.3C404.7 229.4 416.4 230 428.5 228.2z" class="b"/><path d="M310 215.6c0.3-2.1 0.3-4.2 1.2-6 3 5.7 5.7 12.3 11.8 16 -0.9-2.1 0.3-4.2 0.3-6.3 16.6 12.9 39.5 7.8 59.1 8.7 13.9-6.3 28.6-7.2 43.7-7.2 9 0 17.2-4.8 21.4-12.3 2.7-4.8 2.7-11.1 2.4-16.9 1.8 0 2.4 1.8 3.3 3 0.3-4.8-2.4-9-4.8-12.9 -1.5-2.4-3.9-6-2.4-8.4 12.2-19.5 5.1-45.3-4.6-57.8 -18.7-20.8-39-25.4-49.6-26.3 -2-2.4-4.8-3.8-6.1-4.3 0 0-0.4 2.9-1.6 3.5 -3.1-7.6-11.2-11.6-13.8-11.6 4.2 3.3 3.4 11.2 1.5 12.3 -0.6-0.8-4.2-4.8-6.3-4.1 1.3 2.2-1.5 5.3-4.2 7.7 -11.5 3.9-25.6 12-38.5 28.6 -17.2 22-13.7 46.6-14.9 49.5 -2.2 1.9-14 15.4-9.3 37.1 0.4-4.1 3.1-7.6 5.5-10.8C305.5 203.3 305.8 210.2 310 215.6z" class="c"/><path d="M359.3 93.1c-11.1 4.1-24.4 12.3-36.6 27.9 -13.1 16.7-14.2 35-14.5 44C316.1 110.9 356.3 98.3 359.3 93.1z" fill="#DDC5AA"/><path d="M384.4 235l0 0c-0.1 0-0.1 0-0.4-0.1 -4.5-0.8-9.3-1.3-14-1.3 -2.8 0-5.5 0.2-8.2 0.5 -2.1 0.2-4.3 0.3-6.6 0.3 -9.8 0-20.7-2.2-24.5-4.9 0.2 0.8 0.6 1.9 0.9 3.4l0.1 0.4 -0.4-0.1c-8-1.1-14.1-6.9-17.4-12.3 0 0.9 0.1 2.2 0.1 4v0.5l-0.4-0.2c-8.6-4.1-10.9-17.1-11.2-22.9 -0.9 1.4-2.8 4.4-3.5 5.9l-0.4 0.8 -0.2-0.8c-2.1-9.4-1.5-18.3 1.9-26.5 2.5-6.1 5.9-10.1 7.3-11.4 0.2-0.6 0.3-2.1 0.3-4.2 0.3-8.3 0.9-27.8 14.6-45.3 10.9-14 23.8-23.7 38.5-28.7 2.6-2.2 5.4-5.2 4.1-7.3l-0.2-0.3 0.4-0.1c0.2-0.1 0.4-0.1 0.6-0.1 2.2 0 5 3.1 5.9 4.1 0.6-0.5 1-1.8 1.1-3.4 0.2-2.7-0.4-6.3-2.9-8.2l-0.7-0.5h0.9c2.7 0 10.6 3.9 13.9 11.5 0.7-0.7 1.1-2.4 1.2-3.1l0.1-0.4 0.4 0.2c1.8 0.7 4.3 2.1 6.2 4.3 11.9 1 34.6 6.5 54.5 32.1 13.7 17.5 14.3 37 14.6 45.3 0.1 2.1 0.1 3.6 0.3 4.2 1.5 1.3 4.8 5.3 7.3 11.4 3.4 8.2 4 17.1 1.9 26.5l-0.2 0.8 -0.4-0.8c-0.8-1.5-2.6-4.5-3.5-5.9 -0.2 5.8-2.5 18.8-11.2 22.9l-0.4 0.2v-0.5c0-1.8 0-3.1 0.1-4 -3.3 5.4-9.4 11.2-17.4 12.3l-0.4 0.1 0.1-0.4c0.3-1.5 0.7-2.6 0.9-3.4 -3.9 2.7-14.7 4.9-24.5 4.9 -2.3 0-4.5-0.1-6.6-0.3 -2.6-0.3-5.4-0.4-8.2-0.4 -4.8 0-9.5 0.4-14 1.3 -0.2 0-0.3 0.1-0.4 0.1l0 0C384.4 235 384.4 235 384.4 235zM369.9 233c4.8 0 9.6 0.4 14.2 1.3 0.1 0 0.2 0 0.3 0.1l0 0 0 0c0.1 0 0.2 0 0.3-0.1 4.6-0.8 9.3-1.3 14.2-1.3 2.8 0 5.6 0.2 8.3 0.5 2 0.2 4.2 0.3 6.5 0.3 11.3 0 22.5-2.8 24.9-5.4l1-1 -0.5 1.3c0 0-0.5 1.5-1.1 3.9 8.1-1.3 14.1-7.5 17.1-13l0.7-1.3 -0.1 1.4c0 0-0.1 1.7-0.1 4.8 8.5-4.4 10.4-18.5 10.4-23.1v-1l0.6 0.9c0.1 0.2 2.5 3.8 3.7 6.1 1.9-8.9 1.2-17.5-2-25.3 -2.6-6.3-6.1-10.2-7.2-11.2l-0.1 0 0-0.1c-0.3-0.6-0.3-2.2-0.4-4.4 -0.3-8.3-0.9-27.6-14.5-45 -19.8-25.5-42.5-30.9-54.2-31.9l-0.1 0 -0.1-0.1c-1.8-2.1-4.2-3.4-5.7-4.1 -0.2 0.9-0.6 2.8-1.7 3.4l-0.3 0.1 -0.1-0.3c-2.7-6.7-9.4-10.6-12.6-11.3 2.1 2.2 2.6 5.5 2.4 8.1 -0.2 2-0.8 3.5-1.7 4l-0.2 0.1 -0.2-0.2c-0.5-0.7-3.7-4.2-5.6-4.1 0.8 1.9-0.7 4.5-4.5 7.7l0 0 -0.1 0c-14.6 5-27.5 14.6-38.3 28.5 -13.6 17.4-14.2 36.7-14.5 45 -0.1 2.3-0.1 3.8-0.4 4.4l0 0.1 -0.1 0c-1.1 1-4.6 4.9-7.2 11.2 -3.2 7.9-3.9 16.4-2 25.3 1.2-2.3 3.6-5.9 3.7-6.1l0.6-0.9v1c0 4.6 1.9 18.7 10.4 23.1 0-3.1-0.1-4.7-0.1-4.8l-0.1-1.4 0.7 1.3c3 5.5 9 11.7 17.1 13 -0.6-2.4-1.1-3.9-1.1-3.9l-0.5-1.3 1 1c2.4 2.5 13.6 5.4 24.9 5.4 2.3 0 4.5-0.1 6.5-0.3C364.4 233.2 367.1 233 369.9 233z" class="d"/><path d="M393.2 92.9c-0.5-3-3-5-3.1-5l0.4-0.5C393.7 90.2 393.2 92.9 393.2 92.9z" class="d"/><path d="M401 263.9c0 0 27 12.9 46.2 8.4 15.6-3.6 27.4-15.6 28.6-21.1 -6.6-7.8-19-8.1-37.4 0 -4.3-3.5-25.4-19.6-44.2-17.7C396.5 243 401 263.9 401 263.9z" class="a"/><path d="M400 259.3c0 0 26 13.6 45.2 9.1 15.6-3.6 29.4-11.7 30.6-17.2 -6.6-7.8-19-8.1-37.4 0 -4.3-3.5-25.4-19.6-44.2-17.7C396.5 243 400 259.3 400 259.3z" class="b"/><path d="M438.4 251.3c-2.5-2.1-10.8-8.4-21-13 -3.1 4-8.6 5.2-13.1 7.6 -2.7 1.2-2.6 5-3.1 8.1 6.1 3.6 25.6 14 41.7 10.3 15.6-3.6 27.4-9.6 28.6-15C464.8 241.4 456.7 243.2 438.4 251.3z" class="c"/><path d="M438.2 273.6c0 0 0 0 0 0 -17.6 0-37.2-9.3-37.4-9.4l-0.1-0.1 0-0.1c0-0.2-4.5-21.1-6.8-30.3l-0.1-0.3 0.3 0c1.1-0.1 2.1-0.2 3.2-0.2 18 0 37.1 14.6 41.1 17.8 8.9-3.9 16.6-5.9 22.9-5.9 6.3 0 11.3 2 14.7 6.1l0.1 0.1 0 0.1c-1.2 5.4-13.1 17.7-28.8 21.3C444.5 273.3 441.5 273.6 438.2 273.6zM401.2 263.7c1.8 0.8 20.3 9.3 37 9.3 0 0 0 0 0 0 3.2 0 6.2-0.3 8.9-0.9 15.4-3.5 27-15.3 28.3-20.7 -3.3-3.8-8.1-5.8-14.2-5.8 -6.2 0-13.9 2-22.8 6l-0.2 0.1 -0.1-0.1c-3.7-3-22.8-17.8-40.8-17.8 -1 0-1.9 0-2.8 0.1C396.8 242.9 400.8 261.9 401.2 263.7z" class="d"/><path d="M367.2 263.9c0 0-27 12.9-46.2 8.4 -15.6-3.6-27.4-15.6-28.6-21.1 6.6-7.8 19-8.1 37.4 0 4.3-3.5 25.4-19.6 44.2-17.7C371.6 243 367.2 263.9 367.2 263.9z" class="a"/><path d="M367.2 261.4c0 0-25.5 12.5-44.7 8 -15.6-3.6-24.2-13.4-25.4-18.8 6.6-7.8 14.3-7.4 32.7 0.7 4.3-3.5 25.4-19.6 44.2-17.7C371.6 243 367.2 261.4 367.2 261.4z" class="b"/><path d="M367 245.6c-3.8-3.6-11.1-4.1-13.6-8.4 -11.4 4.5-20.9 11.9-23.6 14.1 -18.4-8.1-22.4-11.2-29-3.4 1.2 5.4 6.8 15.3 22.5 18.9 19.3 4.5 43.9-12.2 43.9-12.2s0.9-2.4 2.1-5.9C368.8 247.5 368.1 246.4 367 245.6z" class="c"/><path d="M329.9 273.6c-3.3 0-6.3-0.3-9-1 -15.7-3.6-27.6-15.9-28.8-21.3l0-0.1 0.1-0.1c3.4-4 8.4-6.1 14.7-6.1 6.3 0 13.9 2 22.9 5.9 4-3.2 23-17.8 41.1-17.8 1.1 0 2.2 0.1 3.2 0.2l0.3 0 -0.1 0.3c-2.4 9.2-6.8 30.1-6.8 30.3l0 0.1 -0.1 0.1C367.1 264.3 347.5 273.6 329.9 273.6zM292.7 251.4c1.4 5.4 13 17.1 28.3 20.7 2.7 0.6 5.7 0.9 8.9 0.9 16.7 0 35.2-8.5 37-9.3 0.4-1.9 4.4-20.9 6.7-29.9 -0.9-0.1-1.9-0.1-2.8-0.1 -18.1 0-37.2 14.8-40.8 17.8l-0.1 0.1 -0.2-0.1c-8.9-4-16.6-6-22.8-6C300.7 245.6 296 247.6 292.7 251.4z" class="d"/><path d="M418.4 282.5c-4-6.7-8.4-23.7-8.4-23.7 -7.1-21.7-24.8-14.1-25.9-13.6 -1.2-0.5-18.8-8.1-25.9 13.6 0 0-4.4 17-8.4 23.7 -3.2 5.2-12.4 18.3-9.8 41.6 2.5 15.8 21 30.7 40.8 33.5 0 0.2 6.7 0.2 6.7 0 19.9-2.8 38.3-17.7 40.8-33.5C430.8 300.8 421.6 287.7 418.4 282.5z" class="a"/><path d="M413.3 339.8c16-13.5 11.4-37 3.3-54.5 -1.5-3.5-1.9-7.4-1.9-11.3 -2.6-7.2-4.7-15.2-4.7-15.2 -7.1-21.7-24.8-14.1-25.9-13.6 -1.2-0.5-18.8-8.1-25.9 13.6 0 0-4.4 17-8.4 23.7 -3.2 5.2-12.4 18.3-9.8 41.6 1 6.1 4.4 12.1 9.3 17.3 3.5 1.6 6.7 3.9 10.3 5.3C377.5 352.7 398.6 352.4 413.3 339.8z" class="b"/><path d="M400.7 255.8c-0.9 2.7-3.3 5.4-6 5.7 -7.8 1.5-16.9 0.6-22.3-4.8 -2.7-3-1.8-8.4-5.4-11.1 -0.3-0.3-0.6-0.6-1-0.8 -3.1 2.6-6 7-7.8 14 0 0-4.4 17-8.4 23.7 -3.2 5.2-12.4 18.3-9.8 41.6 0.8 5.2 3.4 10.3 7.1 14.9 2.9 1.5 6 2.7 9.4 3.2 9 1.2 17.5-0.3 26.5-1.8 9-1.5 17.5-5.7 23.8-12.3 11.1-11.1 7.8-28.6 3.9-43 -2.1-8-3.8-16.9-0.2-24.5 -0.3-1.1-0.5-1.7-0.5-1.7 -1.5-5.8-3.8-9.8-6.4-12.5C401.1 248.2 401.8 252.8 400.7 255.8z" class="c"/><path d="M416.8 343.6c-1.8 1.7-4 3-6.1 4.5 -6.8 4.7-14.9 8.1-23.4 9.3l-0.3 0 0 0c-0.4 0-1.5 0.1-3 0.1s-2.6 0-3-0.1l0 0 -0.3 0c-8.7-1.2-17-4.8-23.9-9.7 -1.4-1-3-1.9-4.3-3 -0.2 0.1 2.3 2.3 3.7 3.3 7 5 15.5 8.7 24.3 9.9 0.2 0.1 0.9 0.1 3.4 0.1 2.5 0 3.2-0.1 3.4-0.1 8.6-1.2 17-4.7 23.9-9.6C413.4 346.9 417 343.7 416.8 343.6z" class="d"/><path d="M358.1 258.8c-0.3 1-1.7 5-3 9.4 -1.6 5-3.7 10.9-5.7 14.1 -0.2 0.3-0.4 0.7-0.7 1.1 -3.8 6.1-11.6 18.8-9.2 40.7 0.2 1.1 0.4 2.2 0.8 3.3 0.7 2.4 3.5 7.1 3.5 7.1 -2-3.3-3.1-7-3.7-10.5 -2.4-21.7 5.4-34.3 9.1-40.3 0.2-0.4 0.5-0.8 0.7-1.1 2-3.4 4.2-9.4 5.8-14.6C357.1 263.9 358.3 258.9 358.1 258.8z" class="d"/><path d="M419.4 283.4c-0.2-0.4-0.5-0.8-0.7-1.1 -2-3.3-4.1-9.2-5.7-14.2 -1.3-4.1-2.5-7.7-2.8-8.9 -0.2 0 0.8 4.7 2.2 8.9 1.6 5.1 3.8 11.2 5.8 14.6 0.2 0.3 0.4 0.7 0.7 1.1 3.7 6.1 11.5 18.6 9.1 40.3 -0.6 3.7-1.9 7.6-4.1 11.1 0.1 0.1 2.1-3 2.8-4.7 0.9-2.1 1.5-4.2 1.9-6.3C431 302.3 423.1 289.6 419.4 283.4z" class="d"/><path d="M410.8 303.2c-4.8-6.6-8.8-11.8-13-26.3 -3.6-12.9-9-17-13.3-18 0 0 0-0.1 0-0.2 -0.1 0-0.3 0-0.4 0.1 -0.1 0-0.3 0-0.4-0.1 0 0.1 0 0.1 0 0.2 -4.3 1-9.7 5.2-13.3 18 -4.2 14.4-8.2 19.7-13 26.3 -4.1 5.6-13.3 29.5 8.4 50 4.7 2.2 9.8 3.7 14.9 4.5 0 0.2 6.7 0.2 6.7 0 5.2-0.7 10.2-2.3 14.9-4.5C424.1 332.7 414.9 308.8 410.8 303.2z" class="f"/><path d="M410.8 303.2c-4.8-6.6-8.8-11.8-13-26.3 -3.6-12.9-9-17-13.3-18 0 0 0-0.1 0-0.2 -0.1 0-0.3 0-0.4 0.1 -0.1 0-0.3 0-0.4-0.1 0 0.1 0 0.1 0 0.2 -4.3 1-9.7 5.2-13.3 18 -4.2 14.4-8.2 19.7-13 26.3 -3.7 5-11.5 24.9 2.8 43.8 17.3 5.6 37.2 5.4 51.7-5.9C420.7 324.1 414.1 307.7 410.8 303.2z" class="g"/><path d="M388.6 340.4c5.7-2.1 10.8-5.7 14.7-11.1 3.9-5.1 3.6-11.7 1.8-17.8 -2.7-8.7-10.8-13.5-12.9-22.9 -1.8-7.8-2.7-15-7.2-21.4 -2.2-2.9-5.6-3.3-9-2.9 -2.1 2.8-4 6.8-5.6 12.5 -4.2 14.4-8.2 19.7-13 26.3 -3.4 4.6-10.3 21.8-0.3 39.1 1.4 0.5 2.9 0.9 4.5 1.1C370.6 344.6 379.9 343.4 388.6 340.4z" class="h"/><path d="M384.1 358.1c-2.5 0-3.2-0.1-3.4-0.1 -5.1-0.7-10.1-2.2-15-4.5l0 0 0 0c-22.2-21-12.3-45.1-8.5-50.4l0.5-0.6c4.5-6.2 8.5-11.6 12.5-25.5 3.7-13.1 9.2-17.1 13.3-18.2l0-0.3 0.3 0.1c0.1 0 0.2 0 0.3 0.1 0.1 0 0.2 0 0.3-0.1l0.3-0.1 0 0.3c4.1 1 9.6 5.1 13.3 18.2 4.1 13.9 8 19.3 12.5 25.5l0.5 0.6c3.9 5.3 13.8 29.5-8.5 50.4l0 0 0 0c-4.9 2.2-9.9 3.7-15 4.5C387.3 358 386.6 358.1 384.1 358.1zM381 357.4c0.4 0 1.5 0.1 3 0.1 1.5 0 2.6 0 3-0.1v0l0.3 0c5-0.7 10-2.2 14.8-4.4 21.9-20.7 12.2-44.4 8.4-49.6l-0.5-0.6c-4.6-6.3-8.5-11.7-12.6-25.7 -3.7-13.1-9.1-16.9-13.1-17.8l-0.2-0.1 0 0c0 0 0 0 0 0l-0.1 0 -0.1 0c0 0 0 0 0 0l0 0 -0.2 0.1c-3.9 0.9-9.4 4.7-13.1 17.8 -4.1 14-8 19.5-12.6 25.7l-0.5 0.6c-3.8 5.2-13.5 28.9 8.4 49.6 4.8 2.2 9.8 3.7 14.8 4.4l0.3 0L381 357.4z" class="e"/><path d="M439.7 180c2.1-0.6 13.8-26.8-3.9-42.7 -33.7-28.8-50.6 7.8-51.7 10.4 -1.1-2.6-18-39.2-51.7-10.4 -17.8 16-6 42.1-3.9 42.7 -7.2 6.6-24.1 34.9 22 52.7 8.7 9 18.9 9.6 33.6 8.4 14.7 1.2 24.9 0.6 33.6-8.4C463.7 214.9 446.9 186.6 439.7 180z" class="f"/><path d="M439.7 180c2.1-0.6 13.8-26.8-3.9-42.7 -33.7-28.8-50.6 7.8-51.7 10.4 -1.1-2.6-18-39.2-51.7-10.4 -17.8 16-6 42.1-3.9 42.7 -7.2 6.6-24.1 34.9 22 52.7 8.7 9 18.7 6.9 33.4 5.7 14.7 1.2 26.7-1.1 35.4-10.1C452.8 214.9 446.9 186.6 439.7 180z" class="g"/><path d="M435.9 180.3c2.1-0.6 11.2-33.2-0.1-43 -32.6-28.5-50.6 7.8-51.7 10.4 -1.1-2.6-18-39.2-51.7-10.4 -17.8 16-6 42.1-3.9 42.7 -7.2 6.6-22.6 31.4 20.2 47.9 8.7 9 19.7 8.3 34.4 7.1 14.7 1.2 27.5-2.9 36.2-11.9C452.8 209.8 443.1 186.9 435.9 180.3z" class="h"/><path d="M360.8 126.6c-7.6-1.4-17 0.9-28.4 10.6 -9.7 8.7-10.6 20.5-9.1 29.5C325.4 140.7 341.5 130.6 360.8 126.6z" class="i"/><path d="M393.6 241.8C393.6 241.8 393.6 241.8 393.6 241.8c-2.7 0-5.7-0.1-9.6-0.5 -3.8 0.3-6.9 0.5-9.6 0.5 -11.1 0-18.1-2.6-24.2-8.9 -18.2-7-28.6-16.4-30.7-27.9 -2-10.6 3.9-20.6 8.4-25 -1.2-1.1-3.3-5.5-4.5-10.7 -1.7-7.6-3-21.9 8.7-32.3 8.6-7.3 16.8-11 24.5-11 16.6 0 25.5 17 27.4 20.9 1.9-3.9 10.8-20.9 27.4-20.9 7.7 0 15.9 3.7 24.5 11 11.6 10.4 10.4 24.7 8.7 32.3 -1.2 5.2-3.2 9.6-4.5 10.7 4.6 4.4 10.4 14.4 8.4 25 -2.2 11.4-12.5 20.8-30.7 27.9C411.7 239.2 404.7 241.8 393.6 241.8zM384.1 240.8l0 0c3.8 0.3 6.9 0.5 9.5 0.5 10.9 0 17.8-2.5 23.9-8.8l0 0 0.1 0c18.1-7 28.3-16.2 30.4-27.4 2-10.6-4-20.6-8.5-24.7l-0.4-0.4 0.5-0.1c0.6-0.2 2.9-4 4.4-10.5 1.7-7.5 2.9-21.5-8.5-31.7 -8.5-7.2-16.6-10.9-24.1-10.9 -17.3 0-26.1 19-27.1 21.2l-0.3 0.6 -0.3-0.6c-1-2.2-9.8-21.2-27.1-21.2 -7.5 0-15.7 3.7-24.1 10.9 -11.4 10.2-10.2 24.2-8.5 31.7 1.5 6.5 3.9 10.4 4.4 10.5l0.5 0.1 -0.4 0.4c-4.5 4.2-10.5 14.2-8.5 24.7 2.1 11.2 12.4 20.5 30.4 27.4l0.1 0 0 0c6 6.3 13 8.8 23.9 8.8 2.7 0 5.7-0.1 9.5-0.5L384.1 240.8z" class="e"/><path d="M431 196.5c-2.5 0.1-5.8 0.2-8.9-0.4 0 0-19 15.9-38 11.6 0 0 0 0 0 0 0 0 0 0-0.1 0 0 0 0 0-0.1 0 0 0 0 0 0 0 -19 4.3-37.9-11.6-38-11.6 -3.1 0.5-6.4 0.5-8.9 0.4 -1 2.4-0.9 7 1.4 15.6 0 0 10.2 4.8 16.3 11.4 6 6.6 19.5 10.1 29.3 7.5 9.8 2.5 23.3-0.9 29.3-7.5 6-6.6 16.3-11.4 16.3-11.4C431.9 203.5 432 198.8 431 196.5z" fill="#470000"/><path d="M372.1 218.5c4.2-1.5 10.3 2.3 12.1 0.5 6.3-7.2 15.6-10.1 24.6-12.5 0.8-0.2 1.2-1.4 1.4-2.9 -7.1 3.4-16.6 6.3-26.1 4.2 0 0 0 0 0 0 0 0 0 0-0.1 0 0 0 0 0-0.1 0 0 0 0 0 0 0 -19 4.3-37.9-11.6-38-11.6 -3.1 0.5-6.4 0.5-8.9 0.4 -1 2.4-0.9 7 1.4 15.6 0 0 10.2 4.8 16.3 11.4 2.3 2.6 5.8 4.6 9.7 6.1C364.9 224.6 367.3 219.8 372.1 218.5z" fill="#6E0000"/><path d="M391 232.1c0 0 0 0 0 0 -2.5 0-4.8-0.3-7-0.8 -2.1 0.5-4.5 0.8-7 0.8 -8.9 0-17.9-3.4-22.5-8.5 -5.9-6.5-16.1-11.3-16.2-11.4l-0.1-0.1 0-0.1c-2.1-7.7-2.6-13-1.4-15.8l0.1-0.2 0.2 0c1 0.1 2 0.1 2.9 0.1 2.2 0 4.2-0.2 5.9-0.5l0.1 0 0.1 0.1c0.1 0.1 14.8 12.3 31 12.3 0 0 0 0 0 0 2.2 0 4.4-0.2 6.5-0.7v-0.1l0.4 0.1 0.3-0.1 0 0.2c2.1 0.5 4.3 0.7 6.5 0.7 16.2 0 30.9-12.2 31-12.3l0.1-0.1 0.1 0c1.8 0.3 3.8 0.5 5.9 0.5 0.9 0 1.9 0 2.9-0.1l0.2 0 0.1 0.2c1.2 2.8 0.7 8.1-1.4 15.8l0 0.1 -0.1 0.1c-0.1 0-10.2 4.9-16.2 11.4C409 228.7 399.9 232.1 391 232.1zM384.1 230.7l0.1 0c2.1 0.5 4.4 0.8 6.9 0.8 0 0 0 0 0 0 8.7 0 17.6-3.3 22.1-8.3 5.6-6.2 15-10.9 16.2-11.4 2-7.3 2.5-12.4 1.5-15.1 -0.9 0.1-1.8 0.1-2.7 0.1 -2.2 0-4.1-0.1-5.9-0.4 -1.4 1.1-15.5 12.3-31.3 12.3 -2.3 0-4.6-0.3-6.8-0.7 -2.2 0.5-4.5 0.7-6.8 0.7 0 0 0 0 0 0 -15.7 0-29.9-11.2-31.3-12.3 -1.8 0.3-3.7 0.4-5.9 0.4 -0.9 0-1.8 0-2.7-0.1 -1 2.7-0.5 7.8 1.5 15.1 1.2 0.6 10.6 5.3 16.2 11.4 4.5 4.9 13.4 8.3 22.1 8.3 2.5 0 4.8-0.3 6.9-0.8L384.1 230.7z" class="e"/><path d="M416.9 233.8l-0.4-0.5c2.8-2.3 3.3-6.6 3.3-6.6C419.8 226.7 419.9 231.4 416.9 233.8z" class="e"/><path d="M447.5 203.6c0 0 13.6-19.4 39.5-11.3 18.1 5 24.5 30.7 9.2 52.6 -10.6 16.6-52.4 22.5-51.6-3.2 -5-2.4-18.2-16.5-8.2-23.6C446.4 210.7 447.5 203.6 447.5 203.6z" class="f"/><path d="M447.5 203.6c0 0 13.6-19.4 39.5-11.3 18.1 5 22 27.4 6.7 49.3 -10.6 16.6-47.7 20.9-49.1 0 -5-2.4-18.2-16.5-8.2-23.6C446.4 210.7 447.5 203.6 447.5 203.6z" class="g"/><path d="M447.5 203.6c0 0 13.6-19.4 39.5-11.3 18.1 5 20.2 24.2 4.9 46.1 -9.1 15.1-44.9 19.1-47.3 3.2 -5-2.4-18.2-16.5-8.2-23.6C446.4 210.7 447.5 203.6 447.5 203.6z" class="h"/><path d="M465.1 259.3c-7.1 0-13-2-16.5-5.7 -2.9-3-4.3-7-4.2-11.9 -3.8-1.9-11.2-9.5-11.8-16.2 -0.3-3.2 1-5.9 3.7-7.8 9.7-7 10.9-14.1 10.9-14.1l0-0.1 0-0.1c0.1-0.1 9.7-13.4 27.5-13.4 4 0 8.1 0.7 12.3 2 7.5 2.1 13.2 7.6 16.1 15.6 4.1 11.5 1.6 25.5-6.7 37.4C491.2 253.2 477.8 259.3 465.1 259.3zM447.8 203.7c-0.1 0.8-1.6 7.6-11.1 14.5 -2.6 1.8-3.7 4.3-3.5 7.3 0.6 6.6 8 14.1 11.6 15.8l0.2 0.1 0 0.2c-0.1 4.8 1.2 8.8 4 11.7 3.5 3.6 9.2 5.5 16.1 5.5 12.5 0 25.7-6.1 30.9-14.1 8.2-11.8 10.7-25.5 6.6-36.8 -2.8-7.8-8.4-13.3-15.7-15.3 -4.1-1.3-8.2-1.9-12.2-1.9C457.8 190.6 448.5 202.8 447.8 203.7z" class="e"/><path d="M457.4 244.6c-4.9 0-10.2-0.9-14.5-3.9l0.3-0.5c10.6 7.3 27.5 1.8 27.7 1.7C470.9 242 464.7 244.6 457.4 244.6z" class="e"/><path d="M396.2 209.9c0 0 2.6 6.6-4.5 7.3 -7.5 0.6-7.5-4.2-7.6-8.3C387.6 209.4 396.2 209.9 396.2 209.9z" class="k"/><path d="M392.3 209.7c-2.8-0.2-6.3-0.4-8.2-0.7 0.1 3.6 0.1 7.6 5.2 8.2C391.6 215.6 393 212.9 392.3 209.7z" class="l"/><path d="M390.6 217.6c-6.5 0-6.6-4.6-6.7-8.3l0-0.7 0.4 0c3.4 0.4 12 0.9 12.1 0.9l0.2 0 0.1 0.2c0 0.1 1.2 3.1-0.2 5.4 -0.8 1.3-2.3 2.1-4.5 2.4C391.4 217.6 391 217.6 390.6 217.6zM384.5 209.3c0.1 3.8 0.3 7.7 6.1 7.7 0.4 0 0.7 0 1.1 0 2-0.2 3.4-0.9 4.1-2.1 1.1-1.7 0.4-4 0.2-4.7C394.8 210.1 387.8 209.7 384.5 209.3z" class="m"/><path d="M406.8 206.8c0 0 1.8 5.6-1.9 6.7 -3.7 1.2-6.8 1.3-7.9-3.9C400.3 208.8 406.8 206.8 406.8 206.8z" class="k"/><path d="M403.8 207.7c-2.1 0.6-5 1.4-6.8 1.9 1 4.6 3.5 5 6.5 4.3C404.5 212.1 404.7 209.8 403.8 207.7z" class="l"/><path d="M401.5 214.5c-2.5 0-4.1-1.5-4.7-4.8l-0.1-0.3 0.3-0.1c3.3-0.8 9.7-2.8 9.8-2.8l0.3-0.1 0.1 0.3c0 0.1 0.5 1.5 0.4 3 0 2.2-0.9 3.6-2.5 4.1C403.6 214.3 402.4 214.5 401.5 214.5zM397.4 209.8c0.7 2.8 1.9 4.1 4.1 4.1 0.9 0 1.9-0.2 3.3-0.6 2.9-0.9 2.1-4.9 1.8-6.1C405.3 207.6 400.3 209.1 397.4 209.8z" class="m"/><path d="M413.6 203.6c0 0 2.3 4.1-0.7 6.3 -2.7 2-5.4-1.3-5.9-2.1C409.8 205.9 413.6 203.6 413.6 203.6z" class="k"/><path d="M411.3 205c-1.3 0.8-2.9 1.8-4.3 2.8 0.4 0.8 2.6 3.3 4.9 2.6C412.6 208.5 412.8 206.5 411.3 205z" class="l"/><path d="M411.1 210.8c-2.1 0-4-2.2-4.4-2.9l-0.1-0.2 0.2-0.2c2.8-1.9 6.6-4.2 6.6-4.2l0.3-0.2 0.2 0.3c0 0 2.4 4.4-0.8 6.7C412.5 210.6 411.8 210.8 411.1 210.8zM407.5 207.8c0.5 0.8 2 2.4 3.7 2.4 0.6 0 1.1-0.2 1.6-0.6 2.4-1.7 1.2-4.7 0.8-5.7C412.6 204.5 409.7 206.3 407.5 207.8z" class="m"/><path d="M421.3 197.2c0 0 2.6 1.9-0.4 6.5 -2.4 3.6-5 3.4-6.8 0.3C415.9 202.4 421.3 197.2 421.3 197.2z" class="k"/><path d="M419.4 199c-1.7 1.6-4.2 4-5.3 5 1.1 2 2.6 2.8 4.1 2.2C419.7 204 420.5 201.4 419.4 199z" class="l"/><path d="M417.3 206.7c-1.3 0-2.5-0.9-3.4-2.6l-0.1-0.2 0.2-0.2c1.7-1.6 7.1-6.7 7.2-6.7l0.2-0.2 0.2 0.2c0.1 0.1 2.8 2.2-0.3 6.9C420 205.7 418.6 206.7 417.3 206.7zM414.5 204c0.8 1.3 1.8 2.1 2.8 2.1 1.1 0 2.3-0.9 3.4-2.5 2.3-3.5 1.1-5.4 0.6-5.9C420.3 198.5 416.2 202.5 414.5 204z" class="m"/><path d="M400.6 239c-3.9-24-15.6-17.5-16.5-16.9 -0.9-0.6-12.6-7.1-16.5 16.9 -2.3 14.4 4.9 22.7 16.5 22.4C395.6 261.7 402.8 253.4 400.6 239z" fill="#FCA391"/><path d="M396.7 239.2c-3.4-21.9-11.6-14-12.5-13.4 -0.9-0.6-12.7-10.7-16.6 13.2 -2.3 14.4 4.3 19.7 15.8 19.4C394.9 258.6 398.4 250 396.7 239.2z" fill="#FDBDB0"/><path d="M384.6 261.7C384.6 261.7 384.6 261.7 384.6 261.7c-0.2 0-0.4 0-0.6 0 -0.2 0-0.4 0-0.5 0 -5.3 0-9.7-1.8-12.7-5.3 -3.5-4.1-4.7-10.1-3.6-17.5 2.5-15.2 8.1-18.4 12.3-18.4 2.2 0 3.9 0.9 4.5 1.2 0.6-0.3 2.3-1.2 4.5-1.2 4.3 0 9.8 3.2 12.3 18.4 1.2 7.4-0.1 13.4-3.6 17.5C394.3 259.9 389.9 261.7 384.6 261.7zM384.1 261.1c0.2 0 0.4 0 0.6 0 5.2 0 9.4-1.7 12.2-5.1 3.4-3.9 4.6-9.8 3.4-17 -2.4-14.8-7.7-17.9-11.7-17.9 -2.3 0-4 1-4.3 1.2l-0.2 0.1 -0.2-0.1c-0.3-0.2-2.1-1.2-4.3-1.2 -4 0-9.3 3.1-11.7 17.9 -1.1 7.2 0.1 13.1 3.5 17C374.2 259.5 378.6 261.2 384.1 261.1z" fill="#FB765B"/><path d="M351.2 233.8c-2.9-2.5-2.9-7.1-2.9-7.1 0 0 0.5 4.3 3.3 6.6L351.2 233.8z" class="e"/><path d="M320.6 203.6c0 0-13.6-19.4-39.5-11.3 -18.1 5-24.5 30.7-9.2 52.6 10.6 16.6 52.4 22.5 51.6-3.2 5-2.4 18.2-16.5 8.2-23.6C321.7 210.7 320.6 203.6 320.6 203.6z" class="f"/><path d="M320.6 203.6c0 0-13.6-19.4-39.5-11.3 -18.1 5-24.5 30.7-9.2 52.6 10.6 16.6 49.8 15 47.2-1.8 5-2.4 22.5-17.9 12.5-25.1C321.7 210.7 320.6 203.6 320.6 203.6z" class="g"/><path d="M320.6 203.6c0 0-13.6-19.4-39.5-11.3 -18.1 5-24.5 30.7-9.2 52.6 5.8 9.6 44.1 16 41.5-0.9 12.8-5.6 22.8-22.2 18.2-26C321.7 210.7 320.6 203.6 320.6 203.6z" class="h"/><path d="M281.1 192.2c-16.3 4.5-23.1 25.9-13.1 46C267.8 231 258.3 211.1 281.1 192.2z" class="i"/><path d="M303 259.3c0 0 0 0 0 0 -12.6 0-26.1-6.2-31.4-14.4 -8.3-11.9-10.8-25.9-6.7-37.4 2.9-8 8.6-13.6 16.1-15.6 4.2-1.3 8.3-2 12.3-2 17.9 0 27.4 13.3 27.5 13.4l0 0.1 0 0.1c0 0.1 1.2 7.2 10.9 14.1 2.8 2 4 4.6 3.7 7.8 -0.6 6.7-8 14.3-11.8 16.2 0.1 4.9-1.3 8.9-4.2 11.9C316 257.3 310.1 259.3 303 259.3zM293.3 190.6c-3.9 0-8 0.7-12.2 1.9 -7.3 2-12.8 7.4-15.7 15.3 -4.1 11.3-1.6 25.1 6.6 36.8 5.2 8.1 18.4 14.1 30.9 14.1 0 0 0 0 0 0 6.9 0 12.6-2 16.1-5.5 2.8-2.9 4.2-6.8 4-11.7l0-0.2 0.2-0.1c3.7-1.7 11-9.2 11.6-15.8 0.3-3-0.9-5.5-3.5-7.3 -9.5-6.8-11-13.6-11.1-14.5C319.7 202.8 310.3 190.6 293.3 190.6z" class="e"/><path d="M310.7 244.6c-7.3 0-13.5-2.6-13.5-2.6 0.2 0.1 17.1 5.5 27.7-1.7l0.3 0.5C320.9 243.7 315.6 244.6 310.7 244.6z" class="e"/><path d="M371.9 209.9c0 0-2.6 6.6 4.5 7.3 7.5 0.6 7.5-4.2 7.6-8.3C380.5 209.4 371.9 209.9 371.9 209.9z" class="k"/><path d="M380.2 209.4c-3.8 0.3-8.3 0.6-8.3 0.6s-2.3 6 3.5 7.2C378.4 215.7 380.6 212.9 380.2 209.4z" class="l"/><path d="M377.5 217.6C377.5 217.6 377.5 217.6 377.5 217.6c-0.4 0-0.8 0-1.2 0 -2.2-0.2-3.7-1-4.5-2.4 -1.4-2.3-0.2-5.3-0.2-5.4l0.1-0.2 0.2 0c0.1 0 8.7-0.5 12.1-0.9l0.4 0 0 0.7C384.1 213 384 217.6 377.5 217.6zM372.1 210.2c-0.2 0.7-0.8 3 0.2 4.7 0.7 1.2 2.1 1.9 4.1 2.1 0.4 0 0.8 0 1.1 0 5.9 0 6-3.9 6.1-7.7C380.4 209.7 373.4 210.1 372.1 210.2z" class="m"/><path d="M361.3 206.8c0 0-1.8 5.6 1.9 6.7s6.8 1.3 7.9-3.9C367.8 208.8 361.3 206.8 361.3 206.8z" class="k"/><path d="M368.6 209c-3.3-0.9-7.3-2.1-7.3-2.1s-1.8 5.6 1.9 6.7c0.7 0.2 1.3 0.4 2 0.5C367.1 213 368.6 211.3 368.6 209z" class="l"/><path d="M366.6 214.5L366.6 214.5c-0.9 0-2.1-0.2-3.5-0.7 -1.6-0.5-2.5-1.9-2.5-4.1 0-1.6 0.4-3 0.4-3l0.1-0.3 0.3 0.1c0.1 0 6.5 2 9.8 2.8l0.3 0.1 -0.1 0.3C370.7 213 369.2 214.5 366.6 214.5zM361.5 207.2c-0.3 1.1-1.1 5.2 1.8 6.1 1.4 0.4 2.5 0.6 3.3 0.6 2.2 0 3.4-1.3 4.1-4.1C367.8 209.1 362.8 207.6 361.5 207.2z" class="m"/><path d="M354.5 203.6c0 0-2.3 4.1 0.7 6.3 2.7 2 5.4-1.3 5.9-2.1C358.3 205.9 354.5 203.6 354.5 203.6z" class="k"/><path d="M359 206.4c-2.3-1.5-4.5-2.8-4.5-2.8s-2.1 3.8 0.4 6.1C356.7 209.4 358.5 208.1 359 206.4z" class="l"/><path d="M357 210.8L357 210.8c-0.7 0-1.4-0.2-2-0.7 -3.2-2.3-0.8-6.7-0.8-6.7l0.2-0.3 0.3 0.2c0 0 3.9 2.3 6.6 4.2l0.2 0.2 -0.1 0.2C360.9 208.6 359.1 210.8 357 210.8zM354.6 204c-0.4 0.9-1.6 3.9 0.8 5.7 0.5 0.4 1 0.6 1.6 0.6 1.7 0 3.2-1.6 3.7-2.4C358.4 206.3 355.5 204.5 354.6 204z" class="m"/><path d="M346.8 197.2c0 0-2.6 1.9 0.4 6.5 2.4 3.6 5 3.4 6.8 0.3C352.3 202.4 346.8 197.2 346.8 197.2z" class="k"/><path d="M352.9 203c-2.2-2.1-6.1-5.8-6.1-5.8s-2.6 1.9 0.4 6.5c0.2 0.3 0.4 0.6 0.6 0.9C349.7 205 351.7 204.6 352.9 203z" class="l"/><path d="M350.8 206.7C350.8 206.7 350.8 206.7 350.8 206.7c-1.3 0-2.7-1-3.9-2.8 -3-4.7-0.4-6.8-0.3-6.9l0.2-0.2 0.2 0.2c0.1 0.1 5.5 5.2 7.2 6.7l0.2 0.2 -0.1 0.2C353.3 205.8 352.1 206.7 350.8 206.7zM346.8 197.6c-0.5 0.5-1.7 2.4 0.6 5.9 1.1 1.7 2.3 2.5 3.4 2.5h0c1 0 2-0.7 2.8-2.1C351.9 202.5 347.8 198.5 346.8 197.6z" class="m"/><path d="M346 196.1c14.9 21.7 38 13.4 38 13.4s23 7.8 38-13.4H346z" class="g"/><path d="M346 196.1c13.1 19.6 37.9 9.3 37.9 9.3s24.4 8.8 38.2-9.3c0 0-23.7-3.6-38.2-3.6C374.4 192.5 346 196.1 346 196.1z" class="h"/><path d="M428 196.9c-9.1 0-12.6-3.9-12.6-3.9 5.4 4.9 19.3 2.8 19.4 2.8l0.1 0.6C434.6 196.4 431.7 196.9 428 196.9z" class="e"/><path d="M384.8 199.6c0 0-19.3-4.3-17.5-13.4 1.8-9.1 30.9-11.1 34.9-0.4C404.5 192.5 384.8 199.6 384.8 199.6z" class="g"/><path d="M373.6 211.4c-1 0-2 0-3-0.1 -7-0.6-17.1-3.7-24.8-15l0.5-0.3c7.6 11.1 17.4 14.1 24.3 14.7 7.5 0.6 13.3-1.4 13.3-1.4l0.1 0 0.1 0c0.1 0 5.8 1.9 13.3 1.2 6.9-0.6 16.7-3.7 24.4-14.5l0.5 0.3c-7.8 11.1-17.9 14.1-24.9 14.8 -7.1 0.7-12.6-1-13.4-1.2C383.4 210.1 379.2 211.4 373.6 211.4z" class="e"/><path d="M340.1 196.9c-3.7 0-6.6-0.4-6.9-0.5l0.1-0.6c0.1 0 14 2.1 19.4-2.8 0 0-2.1 2.8-5.4 3.1C344.9 196.7 342.4 196.9 340.1 196.9z" class="e"/><path d="M465.2 224.4c0 0-21.9 4.3-35.7-3.6 -6.8-3.9-10.2-12.7-8-19.5 5.1-15.8 41.9 3.7 55.7 3.3L465.2 224.4z" class="f"/><path d="M465.2 224.4c0 0-21.1 1.1-35-6.8 -6.8-3.9-10.9-9.4-8.7-16.2 5.1-15.8 41.9 3.7 55.7 3.3L465.2 224.4z" class="g"/><path d="M465.2 224.4c0 0-19.7-1-33.5-8.9 -6.8-3.9-12.3-7.3-10.1-14.1 5.1-15.8 41.9 3.7 55.7 3.3 0 0-1.1 9.9-2.8 12.6C472.8 219.7 465.2 224.4 465.2 224.4z" class="h"/><path d="M452.3 226c-7.3 0-16.1-1-23-4.9 -6.8-3.9-10.4-12.8-8.1-19.9 1.6-4.9 6.3-7 14.4-6.3 7 0.6 15.6 3.2 23.3 5.5 7.2 2.2 14 4.2 18.3 4.2 0 0-2.4 0.5-8.4-0.8 -3.1-0.8-6.5-1.8-10.1-2.9 -15.7-4.7-33.6-10-37 0.4 -2.2 6.8 1.3 15.4 7.8 19.1 13.6 7.8 35.5 3.8 35.8 3.8 0 0-3.9 1.3-9.3 1.6C454.8 226 453.6 226 452.3 226z" class="e"/><path d="M303.3 224.5c0 0 21.6 4.3 35.4-3.6 6.8-3.9 10.2-12.7 8-19.5 -5.1-15.8-42 3.2-55.4 3.3L303.3 224.5z" class="f"/><path d="M303.3 224.5c0 0 17.5 2.4 31.3-5.5 6.8-3.9 10.2-10.3 8.4-17.2 -3.8-14.5-38.3 2.8-51.7 2.9L303.3 224.5z" class="g"/><path d="M303.3 224.5c0 0 12.1 0.3 25.9-7.6 6.8-3.9 12.4-6.9 10.2-13.7 -5.1-15.8-34.8 1.4-48.1 1.5 0 0 1 8.2 2.4 10.6C295.3 218.1 303.3 224.5 303.3 224.5z" class="h"/><path d="M315.9 226c-7.4 0-13.1-1.6-13.1-1.6 0.2 0 22.2 4 35.8-3.8 6.5-3.7 10.1-12.3 7.8-19.1 -3.4-10.5-21.2-5.1-37-0.4 -3.5 1-6.9 2-9.9 2.8 -3.3 0.8-8.5 0.8-8.5 0.8 4.2 0 11.1-2.1 18.3-4.2 7.6-2.3 16.3-4.9 23.3-5.5 8.1-0.7 12.8 1.4 14.4 6.3 2.3 7.1-1.3 16-8.1 19.9C332 225 323.1 226 315.9 226z" class="e"/><path d="M279.7 333.7c-2.1-0.8-4.3 0.2-4.3 0.2l-0.2-0.5C278.4 332.3 279.7 333.7 279.7 333.7z" class="e"/><path d="M293.5 358.6c0 0-9.9 17.9-31 0.1 -2.8 4.3-8.8 10.5-17.4 7.5 -5.5-2.1-11-13.3-3.6-18.1 -6.6-0.2-14.6-11.4-3.6-19.5 -3.7-3.2-5-13.3 4.5-18.2 9.4-5 27.6-9.1 40.6 10.1 7.4 4.5 14.4 6.5 14.4 6.5L293.5 358.6z" class="f"/><path d="M293.5 358.6c0 0-9.3 13-30.4-4.9 -2.8 4.3-9.2 12.8-17.8 9.7 -5.5-2.1-11.1-10.6-3.8-15.4 -6.6-0.2-14.6-11.4-3.6-19.5 -3.7-3.2-5-13.3 4.5-18.2 9.4-5 27.6-9.1 40.6 10.1 7.4 4.5 14.4 6.5 14.4 6.5L293.5 358.6z" class="g"/><path d="M291.9 355.6c0 0-7.6 12.1-28.7-5.8 -2.8 4.3-10.8 12-16.4 10.7 -5.5-2.1-8.9-7.8-1.6-12.6 -6.6-0.2-16.5-9.7-7.2-19.5 -3.7-3.2-5-13.3 4.5-18.2 9.4-5 27.6-9.1 40.6 10.1 7.4 4.5 14.4 6.5 14.4 6.5L291.9 355.6z" class="h"/><path d="M245.1 312.5c8.3-3.8 17.7-4.6 26.7-3 -10.8-6.1-22.5-3-29.4 0.7 -5.4 2.9-7.3 7.4-7.2 11.3C237.3 317.5 241 314.2 245.1 312.5z" class="i"/><path d="M283 366.6c-6.1 1.2-12.9-1.3-20.3-7.5 -1.8 2.6-5.4 6.9-10.6 7.9 0 0 0 0 0 0 -2.2 0.5-4.6 0.3-7-0.6 -3.5-1.4-6.8-6.1-7.3-10.6 -0.3-3.1 0.7-5.8 2.9-7.6 -3.4-0.5-6.8-3.6-8-7.4 -1.4-4.4 0.4-8.9 4.8-12.3 -1.9-1.9-2.9-5.2-2.5-8.5 0.5-4.2 3.1-7.7 7.3-10 2.2-1.1 5.7-2.7 9.9-3.5 8.7-1.8 21.2-0.8 31 13.7 7.2 4.4 14.2 6.4 14.2 6.5l0.2 0.1 -3.8 32 0 0.1C293.8 358.8 290.2 365.1 283 366.6zM262.5 358.2l0.3 0.2c7.3 6.2 14.1 8.8 20.1 7.6 6.6-1.3 10.1-6.9 10.4-7.5l3.8-31.4c-1.3-0.4-7.6-2.5-14.2-6.5l-0.1 0 0-0.1c-9.6-14.3-21.8-15.2-30.4-13.5 -4.2 0.8-7.6 2.4-9.8 3.5 -4.1 2.1-6.5 5.5-7 9.5 -0.4 3.2 0.7 6.6 2.6 8.2l0.3 0.2 -0.3 0.2c-6.1 4.5-5.7 9.4-4.9 11.9 1.2 3.9 4.9 7 8.3 7.1l0.9 0 -0.8 0.5c-3.2 2.1-3.6 5.2-3.3 7.5 0.5 4.2 3.6 8.8 6.9 10.1 2.3 0.8 4.5 1 6.6 0.6 0 0 0 0 0 0 5.1-1 8.7-5.4 10.4-7.9L262.5 358.2z" class="e"/><path d="M286.1 358.8c0 0 4.8 5 10.3 1.7 6-3.6 12-11.3 13.6-19 2.4-13.8-1.9-37.1-16.5-40.7 -14.6-3.6-19.7 4-16.9 14.9 2.4 9.1 12.4 12 12.4 12 -6.7 1.3-11.4 10.9-5.3 22.5L286.1 358.8z" class="f"/><path d="M286.1 358.8c0 0 3.6 3.9 9.1 0.6 6-3.6 10.2-9.9 11.8-17.6 2.4-13.8 1.1-37.3-13.5-40.9 -14.6-3.6-19.7 4-16.9 14.9 2.4 9.1 12.4 12 12.4 12 -6.7 1.3-11.4 10.9-5.3 22.5L286.1 358.8z" class="g"/><path d="M286.1 358.8c0 0 3.3 2.2 8.8-1.1 6-3.6 7.8-8.4 9.4-16.1 2.4-13.8 3.7-37.2-10.9-40.8 -14.6-3.6-19.7 4-16.9 14.9 2.4 9.1 12.4 12 12.4 12 -6.7 1.3-11.4 10.9-5.3 22.5 0 0-0.2 2.7 0 3.6C283.9 355.1 286.1 358.8 286.1 358.8z" class="h"/><path d="M283.1 303.3c3.6-1.7 9.8-1.2 13.9-1.1 -1.1-0.6-2.3-1.1-3.6-1.4 -14.6-3.6-19.7 4-16.9 14.9 0.2 0.8 0.5 1.5 0.8 2.2C276.7 308.9 278 305.9 283.1 303.3z" class="i"/><path d="M293.9 361.7c-1.2 0.2-2.3 0.2-3.3 0 -2.9-0.6-4.6-3-4.6-3 0.2 0.2 4.9 4.5 10.2 1.4 6.3-3.7 11.9-11.6 13.4-18.8 1.3-7.3 0.5-16.5-1.9-24 -2.1-6.3-6.2-14.3-14.4-16.3 -6.7-1.7-11.8-1-14.6 1.9 -2.6 2.6-3.3 7.1-1.9 12.6 2.4 8.8 12.1 11.8 12.2 11.8l1.2 0.3 -1.2 0.2c-2.7 0.5-5.1 2.6-6.5 5.6 -2.3 4.8-1.8 11 1.3 16.9 0 0-2.3-3.7-2.8-5.7 -1-4.1-0.7-8.2 0.9-11.5 1.3-2.8 3.5-4.8 6-5.6 -2.6-1-9.6-4.4-11.6-11.9 -1.5-5.7-0.8-10.4 2-13.2 3-3 8.3-3.7 15.2-2 8.5 2.1 12.8 10.2 14.9 16.7 2.5 7.5 3.2 16.8 1.9 24.3 -1.6 7.5-7.2 15.3-13.7 19.2C295.7 361.2 294.8 361.6 293.9 361.7z" class="e"/><path d="M268.4 350.4c0.1 0 8.4-4.5 8.1-19.5 0 0 0.7 5.6-0.9 10.6C273.1 348.6 268.4 350.4 268.4 350.4z" class="e"/><path d="M256.9 342.4c-0.6-7.4 1.9-12.6 4.4-15.9 3.5-4.5 8.1-5.8 8.1-5.8 0 0-4.3 1.9-7.7 6.2 -3.1 4-6.2 11.1-3 22C258.8 348.9 257.1 344.5 256.9 342.4z" class="e"/><path d="M251 331.5c-4.9 1-8.3 0.1-10.4-0.9 -3.1-1.5-4.3-3.8-4.3-3.9l0.5-0.3c0 0 1.2 2.2 4.1 3.6 3.9 1.9 9 1.7 14.9-0.6 7.5-3.1 6.1-10.5 6-10.9 0 0 1.2 3.1-0.3 6.3 -0.9 1.9-2.5 3.8-5.5 5.1C254.2 330.7 252.5 331.2 251 331.5z" class="e"/><path d="M246.8 348c-4.1 0.8-7.5-0.2-7.6-0.2l0.2-0.6c0.1 0 11 3.3 17.4-7.2l0.5 0.3C254.3 345.3 250.3 347.3 246.8 348z" class="e"/><path d="M403.2 163.2c2.2 11.7 11.1 19.8 20 18.1 8.9-1.6 14.4-12.4 12.2-24.1s-11.1-19.8-20-18.1C406.5 140.7 401 151.5 403.2 163.2z" class="g"/><path d="M404.7 165.4c1.9 10.2 9.8 17.3 17.6 15.9 7.8-1.4 12.6-10.9 10.7-21.1 -1.9-10.2-9.8-17.3-17.6-15.9C407.6 145.7 402.8 155.2 404.7 165.4z"/><path d="M405.8 166.1c1.8 9.8 9.4 16.6 16.8 15.2 7.5-1.4 12.1-10.4 10.2-20.2 -1.8-9.8-9.3-16.6-16.8-15.2S403.9 156.3 405.8 166.1z" class="n"/><path d="M432.8 161.1c-1.8-9.8-9.3-16.6-16.8-15.2s-12.1 10.4-10.2 20.2c0.8 4.5 2.9 8.4 5.6 11.1 7.8-0.1 16-2 21.4-7.3C433.3 167.2 433.4 164.2 432.8 161.1z" class="l"/><path d="M420.6 181.8C420.6 181.8 420.6 181.8 420.6 181.8c-7 0-13.5-6.7-15.2-15.6 -1.8-9.9 2.9-19.2 10.5-20.6 0.7-0.1 1.3-0.2 2-0.2 7 0 13.5 6.7 15.2 15.6 1.8 9.9-2.9 19.2-10.5 20.6C422 181.8 421.3 181.8 420.6 181.8zM417.9 146c-0.6 0-1.3 0.1-1.9 0.2 -7.3 1.4-11.8 10.3-10 19.9 1.6 8.6 7.9 15.2 14.6 15.2 0 0 0 0 0 0 0.6 0 1.3-0.1 1.9-0.2 7.3-1.4 11.8-10.3 10-19.9C430.9 152.5 424.6 146 417.9 146z"/><path d="M408.3 169.4c1.9 6.4 7.5 10.4 12.4 9 4.9-1.5 7.3-7.8 5.4-14.3 -1.9-6.4-7.5-10.4-12.4-9C408.8 156.6 406.4 163 408.3 169.4z" class="o"/><path d="M418.6 179L418.6 179c-4.6 0-8.9-3.9-10.6-9.5 -2-6.6 0.6-13.1 5.6-14.6 0.7-0.2 1.4-0.3 2.2-0.3 4.6 0 8.9 3.9 10.6 9.5 2 6.6-0.5 13.1-5.6 14.6C420.1 178.9 419.3 179 418.6 179zM415.8 155.2c-0.7 0-1.3 0.1-2 0.3 -4.7 1.4-7.1 7.6-5.2 13.9 1.6 5.2 5.8 9 10 9l0 0c0.7 0 1.3-0.1 2-0.3 4.7-1.4 7.1-7.6 5.2-13.9C424.2 159 420 155.2 415.8 155.2z" class="p"/><path d="M428.4 151.7l0.4-0.5c3.7 2.8 9.3 1.8 9.4 1.8C438.1 153 432.7 154.9 428.4 151.7z"/><path d="M431.9 158.7l0.5-0.4c3 3.5 9.5 4 9.5 4C441.9 162.2 435.1 162.4 431.9 158.7z"/><path d="M432.7 162.6l0.6-0.1c0.3 1.8 3.6 5.3 3.6 5.3C436.9 167.8 433.1 164.6 432.7 162.6z"/><path d="M425 140.7c0 0-4.5-6-14.9-6.3C411 132.4 421.5 129.8 425 140.7z" class="q"/><path d="M425.9 142.3l-1.1-1.4c0-0.1-4.6-5.9-14.7-6.2l-0.5 0 0.2-0.4c0.4-0.9 2.6-1.9 5.2-1.9 2.3 0 7.8 0.8 10.2 8.3L425.9 142.3zM410.7 134.1c7.3 0.4 11.6 3.6 13.5 5.3 -2.5-5.8-7.2-6.5-9.1-6.5C413.1 132.9 411.5 133.5 410.7 134.1z" class="r"/><path d="M367.6 163.8c-2.1 11.5-11 19.5-19.7 17.8 -8.8-1.6-14.1-12.2-12-23.7 2.1-11.5 11-19.5 19.7-17.8C364.3 141.7 369.7 152.4 367.6 163.8z" class="g"/><path d="M363.9 165.4c-1.9 10.3-9.8 17.4-17.7 16 -7.8-1.5-12.7-11-10.7-21.2 1.9-10.3 9.8-17.4 17.7-16C361 145.6 365.8 155.1 363.9 165.4z"/><path d="M363 166.1c-1.8 9.8-9.3 16.6-16.8 15.2 -7.5-1.4-12.1-10.4-10.2-20.2 1.8-9.8 9.3-16.6 16.8-15.2S364.9 156.3 363 166.1z" class="n"/><path d="M352.8 145.9c-7.5-1.4-15 5.4-16.8 15.2 -1.1 6.2 0.3 12.1 3.3 15.9 8.1 1.3 16.4-2 22.8-7.5 0.4-1.1 0.7-2.2 0.9-3.4C364.9 156.3 360.3 147.3 352.8 145.9z" class="l"/><path d="M348.2 181.8c-0.7 0-1.3-0.1-2-0.2 -7.6-1.4-12.3-10.6-10.5-20.6 1.7-8.9 8.2-15.6 15.2-15.6 0.7 0 1.3 0.1 2 0.2 7.6 1.4 12.3 10.6 10.5 20.6C361.7 175.1 355.2 181.8 348.2 181.8zM350.9 146c-6.7 0-13 6.5-14.6 15.2 -1.8 9.6 2.7 18.5 10 19.9 0.6 0.1 1.3 0.2 1.9 0.2 6.7 0 13-6.5 14.6-15.2 1.8-9.6-2.7-18.5-10-19.9C352.1 146.1 351.5 146 350.9 146z"/><path d="M360.5 169.4c-1.9 6.4-7.5 10.4-12.4 9 -4.9-1.5-7.3-7.8-5.4-14.3s7.5-10.4 12.4-9S362.4 163 360.5 169.4z" class="o"/><path d="M350.2 179c-0.7 0-1.5-0.1-2.2-0.3 -5.1-1.5-7.6-8.1-5.6-14.6 1.7-5.6 6-9.5 10.6-9.5 0.7 0 1.5 0.1 2.2 0.3 5.1 1.5 7.6 8.1 5.6 14.6C359.1 175.1 354.8 179 350.2 179zM353 155.2c-4.2 0-8.4 3.8-10 9 -1.9 6.2 0.5 12.5 5.2 13.9 0.6 0.2 1.3 0.3 2 0.3 4.2 0 8.4-3.8 10-9 1.9-6.2-0.5-12.5-5.2-13.9C354.4 155.3 353.7 155.2 353 155.2z" class="p"/><path d="M330.7 153c0.1 0 5.7 1.1 9.4-1.8l0.4 0.5C336.1 154.6 330.7 153 330.7 153z"/><path d="M326.9 162.2c0.1 0 6.5-0.4 9.5-4l0.5 0.4C333.7 162.4 326.9 162.2 326.9 162.2z"/><path d="M331.9 167.8c0 0 3.3-3.5 3.6-5.3l0.6 0.1C335.7 164.6 331.9 167.8 331.9 167.8z"/><path d="M343.8 140.7c0 0 4.5-6 14.9-6.3C357.8 132.4 347.3 129.8 343.8 140.7z" class="q"/><path d="M342.9 142.3l0.6-1.7c2.4-7.5 8-8.3 10.2-8.3 2.7 0 4.8 1 5.2 1.9l0.2 0.4 -0.5 0c-10.1 0.3-14.6 6.1-14.7 6.2L342.9 142.3zM353.7 132.9c-2 0-6.7 0.7-9.1 6.5 1.9-1.7 6.2-4.9 13.5-5.3C357.4 133.5 355.7 132.9 353.7 132.9z" class="r"/><path d="M434.2 182.2c0 0-11.9-7.3-22 2.3L434.2 182.2z" class="h"/><path d="M412.3 184.5c0 0 4.5-5.2 10.9-5.2 6.3-0.4 11.1 2.9 11.1 2.9C434.1 182.1 422.2 175.7 412.3 184.5z" class="e"/><path d="M334.9 182c0 0 11-6.8 21.3 2.3L334.9 182z" class="h"/><path d="M356.5 184.5c-10-8.8-21.8-2.4-22-2.3 0 0 5.6-3.7 12.6-2.7C352.8 180.2 356.5 184.5 356.5 184.5z" class="e"/><path d="M423 166.7c1.5 4.2 0.1 8.5-3.1 9.6s-7-1.4-8.4-5.5 -0.1-8.5 3.1-9.6S421.5 162.5 423 166.7z"/><circle cx="414.3" cy="162.3" r="3.2" class="l"/><circle cx="420" cy="163.5" r="1.3" class="l"/><path d="M357.8 170.8c-1.5 4.2-5.3 6.6-8.5 5.4 -3.2-1.2-4.5-5.5-3-9.6 1.5-4.2 5.3-6.6 8.5-5.4C357.9 162.4 359.3 166.7 357.8 170.8z"/><circle cx="353.8" cy="162" r="3.2" class="l"/><circle cx="357.5" cy="166.4" r="1.3" class="l"/><path d="M383.6 209.5c-1.6-8.9 0-16.3 0-16.4l0.6 0.1c0 0.1-1.5 7.4 0 16.2L383.6 209.5z" class="e"/><path d="M383.1 197.5c0 0-17.4-3.9-15.8-12.1 1.6-8.2 27.8-10 31.5-0.4C400.8 191.1 383.1 197.5 383.1 197.5z" fill="#FB755A"/><path d="M381.2 194.1c0 0-15.5-0.5-13.9-8.7 1.6-8.2 26.5-8.9 27.6 0.1C395.1 189.6 381.2 194.1 381.2 194.1z" fill="#FC8F73"/><path d="M383.1 197.8L383 197.8c-0.7-0.2-17.6-4-16-12.5 0.9-4.7 9-7.2 16.6-7.2 6.2 0 13.6 1.8 15.5 6.7 2.1 6.3-15.1 12.6-15.9 12.9L383.1 197.8zM383.6 178.8c-7.1 0-15.2 2.3-16 6.7 -1.5 7.6 14.2 11.4 15.5 11.7 1.3-0.5 17.3-6.5 15.4-12.1C396.7 180.4 389.6 178.8 383.6 178.8z" fill="#FA4A2A"/><ellipse cx="380.1" cy="182.8" rx="8.2" ry="1.7" fill="#FED2C7"/><ellipse cx="373" cy="247.9" rx="3.4" ry="5.5" fill="#FED5CC"/><path d="M396.9 308.5c-12.6-9.7-27-1.6-27.2-1.5 0 0 3.5-2.6 8.7-3.5 3.3-0.5 7.7-0.6 12.3 1C393.9 305.5 396.9 308.5 396.9 308.5z" class="e"/><circle cx="384.8" cy="333.7" r="3.5" class="f"/><path d="M384.8 337.5c-2.1 0-3.8-1.7-3.8-3.8 0-2.1 1.7-3.8 3.8-3.8 2.1 0 3.8 1.7 3.8 3.8C388.6 335.8 386.9 337.5 384.8 337.5zM384.8 330.5c-1.8 0-3.2 1.5-3.2 3.2 0 1.8 1.5 3.2 3.2 3.2 1.8 0 3.2-1.5 3.2-3.2C388 331.9 386.6 330.5 384.8 330.5z" class="e"/></svg>