<svg version="1.1" xmlns="http://www.w3.org/2000/svg" viewBox="0 0 768 430" xml:space="preserve"><path d="M516 75.7c0 0 1.7 0.4 3.2 1.2 1.5 0.8 4.7 2.8 3.9 2.5 -0.8-0.4-2.4 0.5-2.4 0.5l1.2 0.8 -0.5 1.1 -2.2-1 -30.5 25.3c0 0-1.9-0.9-2-0.7 1.8 0.9 3.1 1.4 3.1 1.7 -0.3 0.2-33.4 28.1-34.2 28.7 -0.4 0.3-1.8-0.7-1.8-0.7l-5.8 8.5 1.2 0.6c0 0-12.1 18-12 18.7 0.1 0.7 21.3 9.8 34.9 17.5 13.6 7.8 20.4 13 22.8 15 2.2 1.9 3 1.6 4.7 0.9 1.7-0.7 31.8-16.4 34.3-17.7 2.5-1.3 3.2-1 4.2-0.5 1.2 0.6 9.3 4.5 9.3 4.5l-24.9 30.1c0 0 3.3 1.8 3.6 2.6 0.3 0.7-0.4 1.7-0.4 1.7s6.7 4.1 7 4.7c0.3 0.6 0.2 1.4 0.2 1.4s6.5 5.1 6.4 5.9c0 0 0 0 0 0 0 0 0 0 0 0 0 0 0 0 0 0 0 0 0 0 0 0 -0.5 0.6-8.6-1.4-8.6-1.4s-0.5 0.5-1.2 0.7c-0.6 0.2-8-2.6-8-2.6s-0.3 1.1-1 1.4c-0.7 0.3-4.2-1.2-4.2-1.2l-8.3 38.2c0 0-8-4-9.3-4.6 -0.9-0.5-1.6-0.8-2.2-3.6 -0.6-2.8-6.8-36.2-7.3-38 -0.5-1.7-0.8-2.5-3.6-3.1 -3-0.6-11.4-2.7-25.9-8.7 -14.5-5.9-34.7-17-35.3-16.7 -0.6 0.4-7.3 21-7.3 21l-1.2-0.6 -3.1 9.8c0 0 1.7 0.6 1.7 1 0.1 1-1.5 44.2-1.5 44.6 -0.3 0.2-1.4-0.6-3.3-1.4 0 0.2 1.8 1.1 1.8 1.1l-1.1 39.6 2.1 1.1 -0.6 1.1 -1.4-0.5c0 0 0.3 1.8 1 2.2 0.8 0.4-2.8-0.8-4.3-1.5 -1.6-0.7-2.9-1.8-2.9-1.8s-0.2 1.3-1.6 0.5c-0.9-0.5-3.7-5.4-3.7-5.4s-0.5-0.5-1-0.7c-0.5-0.2-0.6-1-0.7-1.5 -0.1-0.3-1.1-0.5-1.1-0.5s-4-15.2-9.4-40.8c-5.4-25.6-12.3-56.2-12.3-56.2s-1-0.5-2.5-1c-1.5-0.5-2.2-0.6-2.2-0.6s-0.9 0.9-2 0.8c-0.8-0.1-6-1.9-10.5-4.2 -4.4-2.3-6.6-3.7-7.2-4.3 -0.6-0.7-0.4-1.8 0.1-3.2 0.5-1.5 3.2-6.7 4-7.9 0.8-1.1 1.3-1.8 3.2-1.2 1.8 0.6 7.8 3.5 10.2 4.8 1.7 1 3.4 2.4 3.7 2.2s-1.9-6.7-2.5-10c-0.5-3.3-2.1-9.2-3-10.3 -0.9-1.1-1-1.2 0.2-1 1.2 0.2 2.2 0.7 2.7 1.5 0.5 0.8 1.3 1.4 1.9 1.2 0.2-0.1-0.2-1.8-0.7-2.4 -0.5-0.6-1.8-0.9-2.2-1.3 -0.4-0.5-1.5-2-2.7-2.5 -7.4-3.3-18.4-8.4-42.2-19.9 -25.5-12.3-33-16.3-45.1-26.1 -10.9-8.9-12.3-12.3-13.6-14.3 -1.1-1.8-1.3-4.8-0.8-5.8l0 0c0 0 0 0 0 0 0 0 0 0 0 0l0 0c0.5-1 2.9-2.7 5.1-2.9 2.3-0.3 5.8-1.3 19.6 1.8 15.2 3.4 22.9 6.9 48.4 19.3 23.8 11.7 34.6 17.2 41.7 20.9 1.2 0.6 3.1 0.5 3.7 0.6 0.6 0 1.6 0.9 2.4 0.9 0.8 0 2.4-0.7 2.3-1 -0.2-0.6-1.2-0.8-2.1-0.8s-2-0.4-2.8-1.2c-0.9-0.8-0.7-0.8 0.7-0.7 1.4 0 7-2.4 9.9-4 2.9-1.6 9.4-3.9 9.4-4.2 0-0.3-2.2-0.8-4-1.6 -2.5-1-8.4-4-10.1-5 -1.6-1-1.4-1.9-1-3.2 0.4-1.4 2.9-6.8 3.8-8 0.8-1.2 1.6-2.1 2.5-2.1s3.3 0.9 7.9 3c4.5 2.1 9.2 5.1 9.8 5.6 0.8 0.8 0.6 2 0.6 2s0.5 0.5 1.9 1.3c1.3 0.9 2.3 1.4 2.3 1.4s28.4-13.4 51.8-25C490.4 80.3 504.9 74 504.9 74s0.8 0.7 1.1 0.6c0.5-0.2 1.1-0.7 1.6-0.4 0.4 0.3 1.2 0.4 1.2 0.4s5.6-0.8 6.6-0.4C516.8 74.7 516 75.7 516 75.7zM396.9 293.1l0.6 3 0.3-0.1 -0.6-3L396.9 293.1zM395.7 287.1l1.1 5.6 0.3-0.1 -1.1-5.6L395.7 287.1zM394.5 281.2l1.1 5.6 0.3-0.1 -1.1-5.6L394.5 281.2zM393 273.7l1.5 7.1 0.3 0 -1.5-7.2L393 273.7zM391.6 266.8l1.3 6.6 0.3-0.1 -1.3-6.6L391.6 266.8zM390.1 259.9l1.4 6.6 0.3-0.1 -1.4-6.6L390.1 259.9zM388.7 252.6l1.4 6.9 0.3-0.1 -1.4-6.9L388.7 252.6zM387.2 245.4l1.4 6.9 0.3-0.1 -1.4-6.9L387.2 245.4zM385.7 238.1l1.4 6.9 0.3 0 -1.4-6.9L385.7 238.1zM384.3 231l1.4 6.8 0.3 0 -1.4-6.9L384.3 231zM382.9 224.1l1.3 6.6 0.3-0.1 -1.3-6.6L382.9 224.1zM381.5 217.2l1.3 6.5 0.3-0.1 -1.3-6.5L381.5 217.2zM379.8 209.1l1.6 7.8 0.3 0 -1.6-7.7L379.8 209.1zM379.4 207l0.4 1.8 0.3 0 -0.4-1.8L379.4 207zM378 200.4l1.3 6.3 0.4 0 -1.3-6.4L378 200.4zM417.4 119.5l0.2 0.3 5.8-2.9 -0.2-0.3L417.4 119.5zM423.5 116.4l0.2 0.3 1.6-0.8 -0.2-0.3L423.5 116.4zM425.4 115.5l0.2 0.3 7.1-3.5 -0.2-0.3L425.4 115.5zM432.8 111.8l0.2 0.3 5.9-3 -0.2-0.3L432.8 111.8zM439.1 108.6l0.2 0.3 6-3 -0.2-0.3L439.1 108.6zM445.4 105.5l0.2 0.3 6.3-3.1 -0.2-0.3L445.4 105.5zM451.9 102.2l0.2 0.3 6.3-3.1 -0.2-0.3L451.9 102.2zM458.5 98.9l0.2 0.3 6.3-3.1 -0.1-0.3L458.5 98.9zM465.1 95.6l0.1 0.3 6.3-3.2 -0.2-0.3L465.1 95.6zM471.7 92.3l0.2 0.3 6-3 -0.2-0.3L471.7 92.3zM478.1 89.1l0.2 0.3 6-3 -0.2-0.3L478.1 89.1zM484.4 86l0.2 0.3 6.5-3.3 -0.2-0.3L484.4 86zM491.2 82.5l0.2 0.3 5.1-2.5 -0.2-0.3L491.2 82.5zM496.6 79.8l0.2 0.3 5.1-2.5 -0.1-0.3L496.6 79.8zM502 77.1l0.1 0.3 2.7-1.4 -0.2-0.3L502 77.1z" fill="#DDE4D0"/></svg>