<svg version="1.1" id="Layer_1" xmlns="http://www.w3.org/2000/svg" xmlns:xlink="http://www.w3.org/1999/xlink" x="0px" y="0px"
 viewBox="0 0 768 430" enable-background="new 0 0 768 430" xml:space="preserve">
<g>
	<g>
		<g>
			<path fill="#9B9EA6" d="M641.791,285.432l-152.988-7.637c-5.036,26.062-19.744,49.3-40.877,66.993L641.87,310.92
				c3.385-0.586,6.13-3.838,6.13-7.263v-11.711C648,288.508,645.229,285.604,641.791,285.432z"/>
			<g>
				<path fill="#767A80" d="M519.476,327.441c0-17.668,14.31-31.978,31.978-31.978c17.641,0,31.95,14.31,31.95,31.978
					c0,17.641-14.31,31.979-31.95,31.979C533.785,359.421,519.476,345.082,519.476,327.441z"/>
				<path fill="#B3B7BF" d="M551.453,363.509c-19.905,0-36.08-16.188-36.08-36.067c0-19.894,16.175-36.081,36.08-36.081
					c19.881,0,36.056,16.188,36.056,36.081C587.509,347.32,571.334,363.509,551.453,363.509z M551.453,299.553
					c-15.376,0-27.9,12.513-27.9,27.889c0,15.362,12.524,27.874,27.9,27.874c15.35,0,27.876-12.512,27.876-27.874
					C579.329,312.065,566.803,299.553,551.453,299.553z"/>
			</g>
		</g>
		<g>
			<path fill="#9B9EA6" d="M261.647,277.795l-152.987,7.637c-3.411,0.172-6.195,3.076-6.195,6.515v11.711
				c0,3.425,2.745,6.677,6.115,7.263l193.96,33.868C281.395,327.095,266.697,303.857,261.647,277.795z"/>
			<g>
				<path fill="#767A80" d="M167.047,327.441c0-17.668,14.31-31.978,31.978-31.978c17.654,0,31.978,14.31,31.978,31.978
					c0,17.641-14.323,31.979-31.978,31.979C181.356,359.421,167.047,345.082,167.047,327.441z"/>
				<path fill="#B3B7BF" d="M199.025,363.509c-19.894,0-36.069-16.188-36.069-36.067c0-19.894,16.175-36.081,36.069-36.081
					s36.069,16.188,36.069,36.081C235.094,347.32,218.919,363.509,199.025,363.509z M199.025,299.553
					c-15.377,0-27.887,12.513-27.887,27.889c0,15.362,12.51,27.874,27.887,27.874c15.376,0,27.887-12.512,27.887-27.874
					C226.912,312.065,214.401,299.553,199.025,299.553z"/>
			</g>
		</g>
	</g>
	<path fill="#EBEBEB" d="M490.456,261.22c0,60.839-51.592,110.138-115.234,110.138c-63.636,0-115.226-49.299-115.226-110.138
		c0-60.837,51.59-110.136,115.226-110.136C438.864,151.083,490.456,200.382,490.456,261.22z"/>
	<path fill="#B3B7BF" d="M336.756,316.274c0-21.251,17.228-38.479,38.466-38.479c21.245,0,38.487,17.229,38.487,38.479
		c0,21.24-17.242,38.482-38.487,38.482C353.984,354.757,336.756,337.515,336.756,316.274z"/>
	<path fill="#A6D5F3" d="M455.812,241.875c2.506,1.357,5.144,0.146,5.916-2.825l5.011-18.654c0.799-2.958,0.24-7.515-1.359-10.02
		c-18.415-28.779-51.938-48.073-90.158-48.073c-38.225,0-71.723,19.293-90.137,48.073c-1.613,2.505-2.159,7.062-1.358,10.02
		l4.982,18.654c0.8,2.971,3.426,4.183,5.915,2.825c21.534-11.62,49.739-18.681,80.598-18.681
		C406.088,223.194,434.281,230.255,455.812,241.875z"/>
	<g>
		<path fill="#9B9EA6" d="M375.222,151.083c4.705,0,9.301,0.346,13.864,0.88c0-0.081,0-0.161,0-0.227
			c0-50.672-6.202-91.737-13.864-91.737c-7.635,0-13.843,41.065-13.843,91.737c0,0.066,0,0.146,0.013,0.227
			C365.935,151.43,370.533,151.083,375.222,151.083z"/>
		<path fill="#9B9EA6" d="M358.167,152.415c-62.33,0.88-110.458,6.383-110.458,13.058c0,4.45,21.48,8.395,54.218,10.766
			C317.689,163.809,337.008,155.44,358.167,152.415z"/>
		<path fill="#9B9EA6" d="M392.283,152.415c21.159,3.025,40.478,11.394,56.256,23.824c32.723-2.371,54.202-6.316,54.202-10.766
			C502.741,158.798,454.615,153.295,392.283,152.415z"/>
	</g>
</g>
</svg>
