<svg version="1.1" id="Layer_1" xmlns="http://www.w3.org/2000/svg" xmlns:xlink="http://www.w3.org/1999/xlink" x="0px" y="0px"
	viewBox="0 0 768 430" enable-background="new 0 0 768 430" xml:space="preserve">
<g>
	<path fill="#5D9C4D" d="M393.99,126.149c0,0-35.457,2.82-62.366-16.792c-26.908-19.606-35.082-54.217-35.082-54.217
		s35.451-2.821,62.352,16.79C385.811,91.539,393.99,126.149,393.99,126.149z"/>
	<path opacity="0.3" fill="#5D9C4D" d="M344.575,114.834c-1.538,0-3.059-0.081-4.57-0.2c25.339,13.783,53.985,11.515,53.985,11.515
		s-2.865-12.113-10.775-26.065C372.808,109.229,359.252,114.834,344.575,114.834z"/>
	<path fill="#FF4E4F" d="M468.701,131.655c-26.076-7.34-52.793,0.528-74.711,19.002c-21.919-18.474-48.635-26.342-74.709-19.002
		c-50.946,14.348-80.025,59.711-64.96,127.621c15.062,67.91,73.369,115.557,83.987,118.307c10.614,2.75,49.424-12.299,55.682-16.271
		c6.258,3.973,43.584,19.914,55.685,16.271c12.101-3.639,68.922-50.396,83.987-118.307
		C548.726,191.366,519.646,146.002,468.701,131.655z"/>
	<path opacity="0.3" fill="#FF4E4F" d="M525.287,278.551c-10.106,15.186-21.202,29.676-30.718,45.256
		c-16.708,27.363-52.511,37.611-80.624,21.139c-7.629-4.467-13.952-10.598-18.737-17.705
		c-16.543,20.096-37.104,36.809-60.373,48.789c1.425,0.787,2.617,1.334,3.473,1.553c10.614,2.75,49.424-12.299,55.682-16.271
		c6.258,3.973,43.584,19.914,55.685,16.271c11.496-3.455,63.336-45.854,81.405-108.316
		C529.214,272.41,527.304,275.52,525.287,278.551z"/>
</g>
</svg>
