<svg version="1.1" id="Layer_1" xmlns="http://www.w3.org/2000/svg" viewBox="0 0 768 430" enable-background="new 0 0 768 430" xml:space="preserve">
<g>
	<g>
		<g>
			<linearGradient id="SVGID_1_" gradientUnits="userSpaceOnUse" x1="337.707" y1="298.4561" x2="474.353" y2="298.4561">
				<stop  offset="0" style="stop-color:#FFD383"/>
				<stop  offset="0.5937" style="stop-color:#FFB872"/>
				<stop  offset="1" style="stop-color:#FFA364"/>
			</linearGradient>
			<path fill="url(#SVGID_1_)" d="M426.27,300.363c0.082-3.354,0.206-5.869,0.206-5.869h-21.997h-0.576h-21.996
				c0,0,0.177,3.594,0.248,7.924c4.727-0.783,36.133-5.98,36.715-5.98C419.197,296.438,422.854,298.447,426.27,300.363z"/>
			<linearGradient id="SVGID_2_" gradientUnits="userSpaceOnUse" x1="337.7065" y1="338.4844" x2="474.3525" y2="338.4844">
				<stop  offset="0" style="stop-color:#FFD383"/>
				<stop  offset="0.5937" style="stop-color:#FFB872"/>
				<stop  offset="1" style="stop-color:#FFA364"/>
			</linearGradient>
			<path fill="url(#SVGID_2_)" d="M479.225,346.166c-2.422-8.074-11.842-9.689-11.842-9.689s-25.412-7.531-29.335-9.688
				c-0.758-0.418-1.588-0.93-2.433-1.484c-0.014,1.232-0.184,1.99-0.6,1.961c-16.086-1.164-48.092-21.299-52.854-24.348
				c0.077,5.326-0.017,11.574-0.793,13.645c-1.439,3.836-7.112,8.068-11.034,10.227c-3.922,2.156-29.335,9.688-29.335,9.688
				s-9.419,1.615-11.842,9.689c-2.422,8.072-9.692,26.471-8.881,27.451c0.412,0.496,42.522,0.488,83.915,0.361
				c41.393,0.127,83.502,0.135,83.914-0.361C488.917,372.637,481.646,354.238,479.225,346.166z"/>
			<path opacity="0.8" fill="#EF843C" d="M381.541,302.52c0,0,0.229,0.148,0.62,0.398c-0.003-0.166-0.004-0.336-0.007-0.5
				C381.771,302.482,381.541,302.52,381.541,302.52z"/>
			<linearGradient id="SVGID_3_" gradientUnits="userSpaceOnUse" x1="337.7056" y1="311.8516" x2="474.3539" y2="311.8516">
				<stop  offset="0" style="stop-color:#FFD383"/>
				<stop  offset="0.5937" style="stop-color:#FFB872"/>
				<stop  offset="1" style="stop-color:#FFA364"/>
			</linearGradient>
			<path fill="url(#SVGID_3_)" d="M435.615,325.305c-3.53-2.312-7.44-5.648-8.602-8.742c-0.905-2.414-0.885-10.516-0.744-16.199
				c-3.415-1.916-7.072-3.926-7.4-3.926c-0.582,0-31.988,5.197-36.715,5.98c0.003,0.164,0.004,0.334,0.007,0.5
				c4.763,3.049,36.769,23.184,52.854,24.348C435.432,327.295,435.602,326.537,435.615,325.305z"/>
			<path opacity="0.5" fill="#EF843C" d="M435.615,325.305c-3.53-2.312-7.44-5.648-8.602-8.742
				c-0.905-2.414-0.885-10.516-0.744-16.199c-3.415-1.916-7.072-3.926-7.4-3.926c-0.582,0-31.988,5.197-36.715,5.98
				c0.003,0.164,0.004,0.334,0.007,0.5c4.763,3.049,36.769,23.184,52.854,24.348C435.432,327.295,435.602,326.537,435.615,325.305z"
				/>
		</g>
		<g>
			<g>
				<path fill="#FFBC64" d="M471.459,207.084c0,0,8.462-21.101,16.411-10.091c7.949,11.009-4.359,35.78-6.411,37.002
					c-2.051,1.223-8.205-4.588-8.205-4.588L471.459,207.084z"/>
				<path fill="#FFBC64" d="M338.111,209.444c0,0-8.462-21.101-16.411-10.092s4.359,35.779,6.411,37.003
					c2.051,1.223,8.206-4.588,8.206-4.588L338.111,209.444z"/>
			</g>
			<linearGradient id="SVGID_4_" gradientUnits="userSpaceOnUse" x1="404.7549" y1="117.8491" x2="404.7549" y2="309.8127">
				<stop  offset="0" style="stop-color:#FFD383"/>
				<stop  offset="0.3124" style="stop-color:#FFCD7E"/>
				<stop  offset="0.7407" style="stop-color:#FFBB70"/>
				<stop  offset="1" style="stop-color:#FFAD64"/>
			</linearGradient>
			<path fill="url(#SVGID_4_)" d="M404.92,117.303v-0.004c-0.055,0-0.11,0.002-0.165,0.002s-0.11-0.002-0.165-0.002v0.004
				c-37.719-0.103-76.756,23.951-75.231,65.502c0.195,5.319,4.336,80.693,9.928,89.779c6.089,9.896,38.565,34.395,65.303,35.562
				v0.029c0.055-0.002,0.11-0.014,0.165-0.016c0.055,0.002,0.11,0.014,0.165,0.016v-0.029c26.737-1.168,59.213-25.666,65.303-35.562
				c5.592-9.086,9.732-84.459,9.928-89.779C481.676,141.254,442.639,117.201,404.92,117.303z"/>
			<path opacity="0.2" fill="#F39200" d="M427.418,120.13c19.509,11.872,33.454,32.354,32.531,59.864
				c-0.088,2.593,8.097,30.676-1.534,43.546c4.468,5.713-5.294,49.152-8.394,54.664c-3.676,6.533-16.986,18.865-32.826,27.914
				c23.569-6.221,47.795-25.125,52.969-33.535c5.592-9.086,9.733-84.459,9.929-89.779
				C481.311,149.605,456.628,127.592,427.418,120.13z"/>
			<path opacity="0.1" fill="#FFFFFF" d="M356.963,284.961c-7.374-5.391-12.885-10.66-14.968-14.043
				c-4.498-7.311-8.897-72.901-9.457-88.23c-0.722-19.647,8.274-36.667,24.737-48.065c-9.687,12.631-14.569,28.152-13.999,45.245
				c0.029,0.87,4.025,89.064,10.329,100.353C354.41,281.658,355.548,283.258,356.963,284.961z"/>
			
				<radialGradient id="SVGID_5_" cx="397.749" cy="10411.9805" r="40.272" gradientTransform="matrix(1 0 0 0.4476 0 -4406.2217)" gradientUnits="userSpaceOnUse">
				<stop  offset="0" style="stop-color:#FFFFFF"/>
				<stop  offset="0.0175" style="stop-color:#FFFDFA"/>
				<stop  offset="0.1726" style="stop-color:#FFE9D0"/>
				<stop  offset="0.3312" style="stop-color:#FFD9AE"/>
				<stop  offset="0.4917" style="stop-color:#FFCD93"/>
				<stop  offset="0.6547" style="stop-color:#FFC480"/>
				<stop  offset="0.822" style="stop-color:#FFBF75"/>
				<stop  offset="1" style="stop-color:#FFBD71"/>
			</radialGradient>
			<path opacity="0.31" fill="url(#SVGID_5_)" d="M387.383,253.049c12.25,4.264,36.062,0.951,37.647-0.984
				c-0.26-7.09-7.121-17.723-7.738-21.057c0,0-19.265-2.471-22.353,0C393.581,237.305,387.383,247.543,387.383,253.049z"/>
			<path fill="#EA9D49" d="M425.059,251.918c-3.156,0.762-17.646,4.227-37.676,1.131c-0.149,0.799,8.082,5.988,18.036,7.471
				C410.229,261.652,425.91,252.811,425.059,251.918z"/>
			<path opacity="0.3" fill="#DD9544" d="M417.874,253.309c1.441-0.746-1.242-20.576-0.845-20.973
				c2.783,6.561,6.361,8.398,8.029,19.582C422.623,252.861,420.11,253.109,417.874,253.309z"/>
		</g>
	</g>
	<linearGradient id="SVGID_6_" gradientUnits="userSpaceOnUse" x1="366.2373" y1="102.3501" x2="403.1661" y2="210.2545">
		<stop  offset="0" style="stop-color:#915418"/>
		<stop  offset="1" style="stop-color:#683C11"/>
	</linearGradient>
	<path opacity="0.2" fill="url(#SVGID_6_)" d="M460.925,163.367c-4.13-0.873-35.903,11.584-54.41,11.584
		c-0.405,0-13.735-0.828-19.158-1.938c-27.564-3.438-38.714-4.595-43.443-5.726c-2.393,3.128-4.33,7.146-4.69,8.366
		c-0.589,1.987,2.449,15.206,2.457,18.605c0.008,3.397-5.204,36.615-6.16,37.394c-0.306,0.248-2.208-0.068-2.725-0.111
		c0.051,0.576-0.053-0.277,0,0.297c1.012,0.475,4.144,0.918,4.721,0.447c0.955-0.777,5.762-32.508,5.754-35.907
		s-3.045-16.616-2.457-18.604c0.36-1.221,2.297-5.24,4.69-8.367c4.729,1.13,15.878,2.288,43.443,5.727
		c5.423,1.109,18.752,1.938,19.157,1.938c18.508,0,50.281-12.458,54.411-11.584c1.377,0.29,2.821,1.542,4.162,3.144
		C464.953,166.094,462.871,163.779,460.925,163.367z"/>
</g>
<g>

	<path fill="#3A3A3A" d="M415.982,202.394c0,0,24.65,0.018,48.239,4.832c5.703-1.156-27.004-10.621-31.157-10.622
		C428.912,196.603,420.53,198.689,415.982,202.394z"/>
	<path fill="#3A3A3A" d="M396.008,202.107c0,0-24.648,0.305-48.18,5.391c-5.716-1.09,26.879-10.934,31.032-10.982
		S391.418,198.456,396.008,202.107z"/>
	<g>
		<ellipse opacity="0.9" fill="#3A3A3A" cx="372.738" cy="222.486" rx="14.312" ry="14.844"/>
		<ellipse fill="#FFFFFF" cx="372.738" cy="223.791" rx="14.312" ry="14.844"/>
		<g>
			<radialGradient id="SVGID_7_" cx="372.6875" cy="223.791" r="7.2383" gradientUnits="userSpaceOnUse">
				<stop  offset="0.5027" style="stop-color:#683C11"/>
				<stop  offset="0.603" style="stop-color:#7D4C0A"/>
				<stop  offset="0.7195" style="stop-color:#8F5A04"/>
				<stop  offset="0.8461" style="stop-color:#996101"/>
				<stop  offset="1" style="stop-color:#9C6400"/>
			</radialGradient>
			<circle fill="url(#SVGID_7_)" cx="372.687" cy="223.791" r="7.239"/>
			<circle fill="#1D1D1B" cx="372.659" cy="223.865" r="4.54"/>
			<circle fill="#FFFFFF" cx="376.337" cy="220.785" r="2.847"/>
		</g>
	</g>
	<g>
		<ellipse opacity="0.9" fill="#3A3A3A" cx="437.146" cy="222.486" rx="14.312" ry="14.844"/>
		<ellipse fill="#FFFFFF" cx="437.146" cy="223.791" rx="14.312" ry="14.844"/>
		<g>
			<radialGradient id="SVGID_8_" cx="437.0938" cy="223.791" r="7.2388" gradientUnits="userSpaceOnUse">
				<stop  offset="0.5027" style="stop-color:#683C11"/>
				<stop  offset="0.603" style="stop-color:#7D4C0A"/>
				<stop  offset="0.7195" style="stop-color:#8F5A04"/>
				<stop  offset="0.8461" style="stop-color:#996101"/>
				<stop  offset="1" style="stop-color:#9C6400"/>
			</radialGradient>
			<circle fill="url(#SVGID_8_)" cx="437.094" cy="223.791" r="7.239"/>
			<circle fill="#1D1D1B" cx="437.066" cy="223.865" r="4.54"/>
			<circle fill="#FFFFFF" cx="440.743" cy="220.785" r="2.847"/>
		</g>
	</g>
	<path opacity="0.8" fill="#EF843C" d="M382.562,286.932c3.928-0.506,21.959-2.803,46.885-0.75
		c0.186-0.529-10.057-3.971-22.445-4.955C401.018,280.477,381.501,286.34,382.562,286.932z"/>
</g>
<linearGradient id="SVGID_9_" gradientUnits="userSpaceOnUse" x1="317.7573" y1="352.6885" x2="492" y2="352.6885">
	<stop  offset="0" style="stop-color:#5B777F"/>
	<stop  offset="0.2924" style="stop-color:#57767F"/>
	<stop  offset="0.5533" style="stop-color:#4D727F"/>
	<stop  offset="0.8013" style="stop-color:#3A6B7F"/>
	<stop  offset="1" style="stop-color:#26647F"/>
</linearGradient>
<path fill="url(#SVGID_9_)" d="M492,373.219c-0.27-2.211-1.656-6.273-4.885-15.348c-1.598-4.486-3.248-9.127-4.155-12.154
	c-2.765-9.211-12.505-11.539-14.136-11.865c-9.715-2.883-25.931-7.939-28.555-9.385c-1.283-0.705-2.645-1.59-3.939-2.545
	c-6.35,8.594-17.787,14.348-30.886,14.348c-13.376,0-25.028-5.996-31.289-14.893c-1.5,1.168-3.142,2.254-4.667,3.092
	c-2.624,1.443-18.838,6.5-28.554,9.383c-1.629,0.326-11.373,2.654-14.135,11.865c-0.907,3.025-2.556,7.66-4.153,12.145
	c-3.232,9.082-4.619,13.146-4.889,15.357h0.081c-0.001,0.029-0.017,0.059-0.017,0.088c0,5.906,38.99,10.693,87.089,10.693
	S492,379.213,492,373.307c0-0.029-0.016-0.059-0.018-0.088H492z"/>
<linearGradient id="SVGID_10_" gradientUnits="userSpaceOnUse" x1="374.583" y1="85.7788" x2="414.573" y2="202.628">
	<stop  offset="0" style="stop-color:#915418"/>
	<stop  offset="1" style="stop-color:#683C11"/>
</linearGradient>
<path fill="url(#SVGID_10_)" d="M481.843,133.777c-37.901-30.481-96.213-43.469-98.599-42.276c-2.385,1.193,1.193,9.343,1.193,9.343
	s-28.228-9.74-29.818-9.343c-1.59,0.397,8.946,12.126,8.946,12.126s-25.342-5.651-27.083-4.516
	c-1.741,1.137,9.987,11.076,9.987,11.076s-21.791-4.027-38.001,4.417c-0.267,0.811,21.501,5.324,21.501,5.324
	s-22.97,11.207-27.513,17.521c0.32,0.393,25.525-2.612,25.525-2.612s-14.212,10.305-14.471,13.522
	c4.687,2.725,8.724,10.658,10.949,12.479c-0.039,0.215-0.064,0.471-0.094,0.715c-0.716,6.021,1.159,20.662,2.834,34.937
	c0.589,0.038,0.997,0.122,1.37,0.245c0.606,0.197,1.089,0.521,1.876,1.115c0.023,0.36,0.048,0.753,0.073,1.121
	c0.587,9.209,1.441,21.18,2.503,32.875c0.477,0.223,0.979,0.355,1.438,0.393c0.518,0.045,0.981-0.033,1.288-0.281
	c0.955-0.781,6.167-33.997,6.159-37.395c-0.007-3.398-3.045-16.617-2.457-18.604c0.36-1.22,2.297-5.238,4.69-8.366
	c4.729,1.131,15.878,2.287,43.443,5.727c5.423,1.109,18.752,1.938,19.158,1.938c18.507,0,50.28-12.457,54.41-11.584
	c1.945,0.412,4.028,2.727,5.752,5.265c2.676,3.198,4.924,7.818,5.316,9.144c0.587,1.986-2.449,15.205-2.457,18.604
	c-0.008,2.957,3.934,28.463,5.59,35.569c0.467,0.006,0.996-0.1,1.511-0.309c1.213-12.926,2.174-26.5,2.803-36.479
	c1.347-1.012,1.594-1.014,2.587-1.212c1.172-10.306,2.851-20.602,3.356-27.445C486.215,165.265,488.74,143.96,481.843,133.777z"/>
</svg>
