<svg version="1.1" id="Layer_1" xmlns="http://www.w3.org/2000/svg" xmlns:xlink="http://www.w3.org/1999/xlink" x="0px" y="0px"
	 viewBox="0 0 768 430" enable-background="new 0 0 768 430" xml:space="preserve">
<g>
	<path fill="#FDDFC0" d="M532.162,214.477c-0.692-1.557-6.321-1.618-10.117-1.06c-0.402,0.059-0.814-0.119-1.051-0.457
		c-0.235-0.338-0.262-0.78-0.064-1.144c1.166-2.159,3.582-8.288,0.786-10.692c-2.122-1.83-6.479,2.139-7.843,3.667
		c-0.26,0.296-0.656,0.417-1.041,0.342c-0.383-0.083-0.694-0.364-0.812-0.736c-0.779-2.453-2.708-6.687-4.564-7.614
		c-0.373-0.185-0.702-0.214-1.029-0.1c-2.496,0.874-3.244,2.867-4.189,5.39c-0.767,2.045-1.636,4.361-3.666,6.18
		c-0.548,0.489-1.133,1.062-1.791,1.708c-4.468,4.379-11.941,11.693-32.412,18.685c-13.985,14.667-39.157,21.67-76.778,21.67
		c-39.355,0-63.878-8.042-77.09-26.118c-17.202-7.009-23.781-13.807-27.821-17.994c-0.639-0.663-1.206-1.25-1.74-1.754
		c-1.979-1.872-2.784-4.214-3.493-6.279c-0.875-2.547-1.566-4.56-4.036-5.504c-0.326-0.119-0.655-0.101-1.033,0.072
		c-1.881,0.876-3.926,5.056-4.773,7.484c-0.129,0.371-0.447,0.643-0.832,0.714c-0.384,0.078-0.78-0.071-1.032-0.369
		c-1.323-1.565-5.581-5.638-7.741-3.886c-2.861,2.327-0.616,8.522,0.491,10.712c0.185,0.369,0.148,0.81-0.098,1.142
		c-0.245,0.331-0.661,0.495-1.063,0.424c-3.78-0.656-9.407-0.754-10.143,0.782c-2.326,4.866,6.818,9.433,6.91,9.48
		c0.455,0.221,0.692,0.727,0.581,1.219c-0.111,0.494-0.549,0.846-1.055,0.851c-0.025,0-2.643,0.044-3.757,1.559
		c-0.601,0.815-0.676,1.999-0.219,3.515c1.19,3.959,7.143,3.442,11.482,3.06c1.659-0.145,3.087-0.275,4.1-0.134
		c1.218,0.162,3.306,1.896,9.445,7.216c11.307,9.805,32.354,28.051,50.44,32.418c0.297,0.072,0.551,0.264,0.699,0.532
		c0.148,0.267,0.176,0.585,0.081,0.875c-0.077,0.23-5.359,16.377-6.131,35.263c2.367,0.754,4.765,1.896,7.176,3.435
		c7.896,5.04,13.049,13.336,16.316,21.128c9.778,1.268,24.387,2.607,42.486,2.607c16.962,0,34.389-1.175,47.715-2.369
		c3.264-7.849,8.438-16.268,16.427-21.366c3.334-2.127,6.64-3.493,9.877-4.117c-2.215-17.479-7.719-32.069-7.805-32.296
		c-0.113-0.299-0.093-0.631,0.061-0.911c0.151-0.28,0.42-0.479,0.731-0.546c18.2-3.864,39.677-21.35,51.217-30.745
		c6.272-5.104,8.402-6.768,9.624-6.896c1.01-0.107,2.439,0.059,4.093,0.249c4.333,0.499,10.265,1.185,11.562-2.739
		c0.499-1.506,0.456-2.692-0.127-3.527c-1.066-1.53-3.677-1.655-3.703-1.655c-0.507-0.017-0.934-0.379-1.033-0.875
		c-0.101-0.497,0.153-0.995,0.613-1.206C525.084,223.717,534.348,219.395,532.162,214.477z M390.192,323.021
		c0,0.604-0.488,1.091-1.092,1.091c-0.603,0-1.091-0.487-1.091-1.091v-4.109c0-0.603,0.488-1.091,1.091-1.091
		c0.604,0,1.092,0.488,1.092,1.091V323.021z"/>
	<path fill="#C6E2C0" d="M394.438,379.168c-1.152-2.896-1.136-6.231,0.093-9.811c2.67-7.777,9.051-9.506,14.68-11.028
		c3.927-1.063,7.636-2.067,9.75-4.952c3.292-4.487,7.213-7.409,10.266-9.201c0.625-3.054,1.683-7.128,3.332-11.514
		c-13.232,1.164-30.245,2.282-46.818,2.282c-17.479,0-31.727-1.245-41.567-2.477c1.682,4.443,2.759,8.585,3.391,11.699
		c3.083,1.8,7.004,4.721,10.296,9.21c2.116,2.885,5.825,3.889,9.751,4.952c5.629,1.522,12.01,3.251,14.679,11.028
		c1.241,3.61,1.242,6.975,0.058,9.889C386.686,379.46,390.703,379.432,394.438,379.168z"/>
	<path fill="#FDDFC0" d="M314.393,362.198c0.421-0.955,1.278-2.01,2.931-2.647c-0.02-0.021-0.048-0.037-0.069-0.06
		c-1.72-1.872-2.279-5.307-1.247-7.656c0.656-1.494,1.812-2.463,3.4-2.831c-0.729-2.04-0.614-4.604,0.411-6.491
		c0.971-1.784,2.621-2.759,4.653-2.794c-0.82-3.523,0.055-6.889,2.344-8.607c1.519-1.137,3.148-1.715,4.847-1.715
		c5.031,0,9.291,5.207,9.969,9.878c0.125,0.858,0.113,1.659,0.014,2.417c0.24,0.016,0.475,0.013,0.718,0.044
		c0.183,0.054,1.222,0.399,2.746,1.127c-2.092-8.846-7.56-24.472-19.346-31.996c-4.341-2.771-8.592-4.174-12.639-4.174
		c-9.809,0-16.162,8.276-17.86,13.493c-2.357,7.241,1.249,22.25,11.184,33.874C309.212,357.292,311.821,359.974,314.393,362.198z"/>
	<path fill="#FDDFC0" d="M283.306,156.87c-3.902,3.998-5.785,9.945-5.594,17.671c0.438,17.791,12.47,22.902,22.333,24.102
		c-2.206-11.413-3.73-29.023-1.965-47.767C293.27,151.202,287.477,152.594,283.306,156.87z"/>
	<path fill="#FDDFC0" d="M495.493,156.87c-4.532-4.643-10.969-5.888-15.985-6.054c1.47,19.375-0.709,37.346-2.124,47.984
		c10.077-0.892,23.245-5.638,23.703-24.259C501.277,166.815,499.396,160.868,495.493,156.87z"/>
	<path fill="#FDDFC0" d="M387.589,248.135c55.999,0,82.952-14.746,87.391-47.811c2.71-20.198,9.909-73.849-18.532-106.364
		c-9.209-10.525-21.445-18.006-36.532-22.44c-6.531,11.801-18.439,14.209-31.122,15.76c-0.046,0.006-0.09,0.008-0.134,0.008
		c-0.544,0-1.015-0.404-1.081-0.958c-0.074-0.599,0.352-1.142,0.95-1.215c11.924-1.459,23.116-3.687,29.224-14.209
		c-10.288-2.774-21.845-4.187-34.665-4.187c-26.874,0-47.711,8.847-61.93,26.294c-25.672,31.498-23.474,83.422-18.725,106.477
		C309.456,233.587,334.923,248.135,387.589,248.135z M428.7,150.824c4.691,0,8.496,3.866,8.496,8.634
		c0,4.769-3.805,8.634-8.496,8.634c-4.694,0-8.498-3.865-8.498-8.634C420.202,154.69,424.006,150.824,428.7,150.824z
		 M367.016,198.781c0.974-6.438,13.865-7.134,19.364-7.134c10.551,0,23.779,2.307,27.52,6.581c2.177,2.486,2.423,6.263,0.676,10.359
		c-3.18,7.462-12.425,15.295-23.939,15.827c-0.414,0.019-0.826,0.029-1.23,0.029c-8.518,0-13.827-4.096-16.781-7.533
		C368.308,211.893,366.107,204.778,367.016,198.781z M353.347,150.824c4.693,0,8.498,3.866,8.498,8.634
		c0,4.769-3.804,8.634-8.498,8.634s-8.498-3.865-8.498-8.634C344.85,154.69,348.654,150.824,353.347,150.824z"/>
	<path fill="#F58E7F" d="M390.535,222.235c10.504-0.485,19.191-7.835,22.034-14.504c0.826-1.937,1.883-5.561-0.312-8.067
		c-2.813-3.217-14.423-5.835-25.877-5.835c-9.969,0-16.723,2.072-17.208,5.281c-0.816,5.394,1.187,11.823,5.105,16.38
		C377.063,218.728,382.255,222.605,390.535,222.235z"/>
	<ellipse fill="#FFFFFF" cx="351.036" cy="156.093" rx="2.811" ry="2.857"/>
	<ellipse fill="#FFFFFF" cx="426.387" cy="156.093" rx="2.812" ry="2.857"/>
	<path fill="#FDDFC0" d="M325.161,367.384c-0.133-1.27-0.18-2.577-0.115-3.924c-0.033-0.057-0.052-0.118-0.087-0.172
		c-0.447-0.677-1.05-1.199-1.769-1.561c-0.161,0.01-0.312,0.045-0.475,0.045c-1.012,0-1.984-0.2-2.876-0.55
		c-0.213,0.021-0.41,0.018-0.635,0.057c-1.747,0.298-2.76,1.113-3.01,2.422c-0.358,1.879,0.898,4.207,2.261,5.038
		c0.726,0.44,1.604,0.674,2.538,0.674C322.766,369.413,324.359,368.587,325.161,367.384z"/>
	<path fill="#FDDFC0" d="M326.221,353.766c-2.22-0.135-4.283-1.126-5.639-2.716c-1.246,0.095-2.125,0.635-2.577,1.661
		c-0.766,1.744-0.163,4.193,0.856,5.304c0.908,0.987,2.349,1.577,3.854,1.577c1.178,0,2.236-0.374,2.979-0.996
		c0.262-1.252,0.575-2.492,0.981-3.699c-0.055-0.23-0.097-0.463-0.188-0.686C326.421,354.047,326.305,353.92,326.221,353.766z"/>
	<path fill="#FDDFC0" d="M325.213,341.938c-0.227-0.031-0.448-0.053-0.657-0.053c-1.27,0-2.218,0.561-2.82,1.668
		c-0.877,1.619-0.822,4.121,0.127,5.581c0.98,1.506,2.892,2.482,4.87,2.482c0.485,0,0.939-0.074,1.367-0.19
		c0.749-1.549,1.615-2.981,2.592-4.232C328.039,346.265,326.219,344.155,325.213,341.938z"/>
	<path fill="#FDDFC0" d="M339.475,339.588c-0.549-3.781-4.004-8.009-7.811-8.009c-1.217,0-2.406,0.43-3.539,1.279
		c-1.749,1.312-2.279,4.305-1.289,7.275c0.757,2.271,2.56,4.676,5.449,5.254c2.128-2.088,4.536-3.331,7.154-3.653
		C339.596,340.953,339.561,340.186,339.475,339.588z"/>
	<path fill="#FDDFC0" d="M380.226,370.063c-2.293-6.682-7.585-8.113-13.186-9.631c-4.117-1.113-8.375-2.264-10.941-5.764
		c-5.867-8.002-14.13-10.788-14.214-10.814c-0.22-0.01-0.631-0.036-1.036-0.036c-3.845,0-6.622,2.438-8.275,4.483
		c-4.25,5.254-6.386,14.2-4.97,20.806c2.098,9.793,6.209,11.519,26.25,15.971c3.565,0.793,6.956,1.196,10.079,1.196
		c7.175,0,12.617-2.089,15.322-5.877C381.252,377.603,381.587,374.029,380.226,370.063z"/>
	<path fill="#FDDFC0" d="M463.693,306.692c-4.047,0-8.299,1.403-12.638,4.174c-11.76,7.507-17.228,23.064-19.325,31.97
		c1.45-0.693,2.41-1.018,2.527-1.055c0.347-0.055,0.642-0.089,0.913-0.111c-0.097-0.752-0.107-1.546,0.017-2.396
		c0.677-4.671,4.938-9.878,9.968-9.878c1.699,0,3.33,0.578,4.847,1.715c2.292,1.719,3.165,5.083,2.345,8.607
		c2.035,0.035,3.686,1.009,4.654,2.794c1.025,1.892,1.142,4.455,0.408,6.495c1.59,0.369,2.747,1.335,3.403,2.827
		c1.031,2.35,0.473,5.784-1.248,7.656c-0.021,0.022-0.049,0.038-0.069,0.06c1.653,0.638,2.511,1.692,2.932,2.646
		c2.572-2.224,5.18-4.905,7.944-8.138c9.937-11.624,13.541-26.633,11.182-33.874C479.854,314.969,473.506,306.692,463.693,306.692z"
		/>
	<path fill="#FDDFC0" d="M460.625,363.701c-0.249-1.311-1.262-2.124-3.008-2.422c-0.225-0.039-0.423-0.036-0.637-0.057
		c-0.892,0.35-1.864,0.55-2.875,0.55c-0.165,0-0.315-0.035-0.477-0.045c-0.719,0.361-1.322,0.884-1.769,1.562
		c-0.035,0.053-0.054,0.114-0.087,0.17c0.065,1.347,0.021,2.655-0.114,3.927c0.805,1.202,2.396,2.026,4.167,2.026
		c0.934,0,1.812-0.233,2.539-0.674C459.728,367.908,460.985,365.578,460.625,363.701z"/>
	<path fill="#FDDFC0" d="M450.599,353.766c-0.083,0.154-0.201,0.281-0.268,0.445c-0.09,0.222-0.132,0.454-0.187,0.685
		c0.405,1.206,0.72,2.448,0.982,3.7c0.743,0.62,1.801,0.996,2.979,0.996c1.504,0,2.944-0.59,3.852-1.579
		c1.02-1.108,1.623-3.558,0.857-5.302c-0.45-1.026-1.329-1.566-2.575-1.661C454.883,352.64,452.819,353.631,450.599,353.766z"/>
	<path fill="#FDDFC0" d="M452.265,341.885c-0.209,0-0.432,0.021-0.658,0.053c-1.007,2.218-2.825,4.328-5.479,5.257
		c0.979,1.251,1.843,2.683,2.593,4.231c0.427,0.116,0.882,0.19,1.367,0.19c1.979,0,3.89-0.977,4.869-2.482
		c0.949-1.46,1.005-3.962,0.128-5.581C454.482,342.445,453.534,341.885,452.265,341.885z"/>
	<path fill="#FDDFC0" d="M444.526,345.393c2.893-0.575,4.698-2.986,5.456-5.259c0.991-2.971,0.46-5.964-1.29-7.275
		c-1.131-0.85-2.321-1.279-3.537-1.279c-3.806,0-7.263,4.228-7.811,8.009c-0.086,0.596-0.121,1.36,0.034,2.14
		C439.972,342.056,442.396,343.312,444.526,345.393z"/>
	<path fill="#FDDFC0" d="M449.216,369.107c1.415-6.605-0.721-15.552-4.97-20.806c-1.826-2.261-5.1-4.982-9.512-4.403
		c0.065,0-8.167,2.795-14.016,10.771c-2.565,3.5-6.823,4.65-10.939,5.764c-5.602,1.518-10.892,2.949-13.185,9.631
		c-1.363,3.966-1.027,7.539,0.969,10.334c2.705,3.788,8.146,5.877,15.322,5.877c3.122,0,6.513-0.403,10.079-1.196
		C443.007,380.626,447.117,378.898,449.216,369.107z"/>
	<circle fill="#F69E8E" cx="435.296" cy="194.295" r="12.045"/>
	<circle fill="#F69E8E" cx="346.676" cy="194.295" r="12.047"/>
	<path fill="#FBC6A6" d="M468.637,219.637c-13.808,8.554-30.918,12.493-47.3,14.785c-15.748,2.205-31.904,3.396-47.459,0.091
		c-15.556-3.303-30.596-11.593-39.181-24.978c-6.201-9.669-8.658-21.25-10.025-32.655c-2.803-23.402-1.313-47.914,8.739-69.231
		c8.972-19.026,25.569-35.083,45.596-40.845c-24.905,0.861-44.36,9.658-57.849,26.209c-25.672,31.498-23.474,83.422-18.725,106.477
		c7.023,34.098,32.491,48.646,85.157,48.646C431.183,248.135,457.167,239.193,468.637,219.637z"/>
	<path fill="#FBC6A6" d="M325.312,272.232c1.55-3.922,3.076-8.376,1.309-12.197c-1.68-3.631-5.737-5.39-9.384-7.035
		c-12.359-5.578-23.724-13.347-33.409-22.836c-7.056-6.915-14.269-15.272-24.117-16.057c-3.15-0.25-6.459,0.31-9.385-0.886
		c-1.417-0.579-2.609-1.85-3.217-3.253c-1.941,4.778,6.896,9.206,6.987,9.252c0.455,0.221,0.692,0.727,0.581,1.219
		c-0.111,0.494-0.549,0.846-1.055,0.851c-0.025,0-2.643,0.044-3.757,1.559c-0.601,0.815-0.676,1.999-0.219,3.515
		c1.19,3.959,7.143,3.442,11.482,3.06c1.659-0.145,3.087-0.275,4.1-0.134c1.218,0.162,3.306,1.896,9.445,7.216
		c11.307,9.805,32.354,28.051,50.44,32.418c0.297,0.072,0.551,0.264,0.699,0.532c0.148,0.267,0.176,0.585,0.081,0.875
		C325.877,270.374,325.656,271.054,325.312,272.232z"/>
	<path fill="#FBC6A6" d="M513.586,233.516c1.01-0.107,2.439,0.059,4.093,0.249c4.333,0.499,10.265,1.185,11.562-2.739
		c0.499-1.506,0.456-2.692-0.127-3.527c-1.066-1.53-3.677-1.655-3.703-1.655c-0.507-0.017-0.934-0.379-1.033-0.875
		c-0.101-0.497,0.153-0.995,0.613-1.206c0.093-0.045,9.356-4.367,7.171-9.285c-0.01-0.022-0.042-0.037-0.054-0.058
		c-0.666,1.064-1.655,1.974-2.791,2.438c-2.926,1.197-6.234,0.637-9.386,0.888c-9.848,0.784-17.06,9.14-24.116,16.056
		c-9.684,9.489-21.05,17.259-33.408,22.836c-3.646,1.646-7.704,3.404-9.383,7.035c-1.087,2.347-0.924,4.933-0.283,7.487
		c0,0,0.003-0.002,0.004-0.002c18.2-3.864,39.677-21.35,51.217-30.745C510.234,235.307,512.364,233.644,513.586,233.516z"/>
	<g>
		<path fill="#FBC6A6" d="M343.253,330.154c2.476,0.321,5.268,0.646,8.343,0.954c-1.052-2.295-1.925-4.698-3.025-6.971
			c-6.289-12.991-20.186-21.679-27.265-33.742c-0.73,4.643-1.324,9.799-1.545,15.196c2.367,0.754,4.765,1.896,7.176,3.435
			C334.834,314.066,339.986,322.362,343.253,330.154z"/>
		<path fill="#FBC6A6" d="M449.881,309.026c3.334-2.127,6.64-3.493,9.877-4.117c-0.578-4.562-1.382-8.914-2.253-12.879
			c-2.187,1.654-4.373,3.307-6.559,4.96c-6.908,5.225-14.002,10.655-18.322,18.161c-2.129,3.698-3.558,7.86-6.387,11.056
			c-2.012,2.273-4.601,3.903-7.306,5.324c5.174-0.351,10.09-0.74,14.522-1.139C436.718,322.544,441.893,314.125,449.881,309.026z"/>
	</g>
	<path fill="#FBC6A6" d="M389.709,329.02c1.082-0.199,1.955-1.058,2.431-2.053c0.474-0.993,0.604-2.114,0.674-3.213
		c0.079-1.251,0.088-2.508,0.021-3.761c-0.064-1.258-0.218-2.561-0.89-3.627c-0.67-1.064-1.992-1.815-3.198-1.455
		c-0.707,0.211-1.267,0.761-1.685,1.369c-1.136,1.645-1.398,3.725-1.548,5.719c-0.119,1.58-0.174,3.229,0.463,4.679
		C386.616,328.129,388.149,329.307,389.709,329.02z"/>
	<path fill="#FBC6A6" d="M446.336,361.301c-0.828,3.016-2.287,6.092-4.997,7.651c-2.866,1.65-6.504,1.26-9.523,2.604
		c-2.438,1.085-4.241,3.188-6.311,4.873c-4.589,3.737-10.77,5.45-16.628,4.605c-3.643-0.524-7.287-2.118-9.482-5.07
		c-2.196-2.953-2.548-7.411-0.185-10.23l-0.152-0.007c-0.998,1.142-1.847,2.538-2.463,4.336c-1.363,3.966-1.027,7.539,0.969,10.334
		c2.705,3.788,8.146,5.877,15.322,5.877c3.122,0,6.513-0.403,10.079-1.196c20.042-4.452,24.152-6.18,26.251-15.971
		c0.914-4.27,0.329-9.507-1.337-14.104C447.279,357.071,446.909,359.219,446.336,361.301z"/>
	<path fill="#FBC6A6" d="M448.933,337.147c-0.465,1.865-1.362,3.886-3.176,4.524c-2.147,0.757-4.567-0.993-5.205-3.179
		c-0.517-1.772-0.131-3.656,0.605-5.377c-1.99,1.571-3.469,4.109-3.812,6.472c-0.086,0.596-0.121,1.36,0.034,2.14
		c2.593,0.328,5.017,1.585,7.147,3.665c2.893-0.575,4.698-2.986,5.456-5.259c0.808-2.423,0.589-4.843-0.462-6.372
		C449.406,334.903,449.211,336.034,448.933,337.147z"/>
	<path fill="#FBC6A6" d="M449.016,345.433c-0.825,0.733-1.766,1.369-2.889,1.762c0.979,1.251,1.843,2.683,2.593,4.231
		c0.427,0.116,0.882,0.19,1.367,0.19c1.979,0,3.89-0.977,4.869-2.482c0.75-1.151,0.919-2.941,0.534-4.447
		c-0.052,1.026-0.371,2.03-1.046,2.795c-1.001,1.127-2.779,1.582-4.099,0.854C449.345,347.785,448.803,346.521,449.016,345.433z"/>
	<path fill="#FBC6A6" d="M453.065,357.44c-1.345-0.708-1.952-2.619-1.214-3.873c-0.413,0.089-0.826,0.173-1.253,0.198
		c-0.083,0.154-0.201,0.281-0.268,0.445c-0.09,0.222-0.132,0.454-0.187,0.685c0.405,1.206,0.72,2.448,0.982,3.7
		c0.743,0.62,1.801,0.996,2.979,0.996c1.504,0,2.944-0.59,3.852-1.579c0.676-0.732,1.158-2.057,1.19-3.374
		c-0.352,0.701-0.784,1.353-1.357,1.893C456.544,357.703,454.58,358.238,453.065,357.44z"/>
	<path fill="#FBC6A6" d="M457.075,367.679c-1.074,0.111-2.249-0.159-2.96-0.971c-1.146-1.311-0.641-3.283,0.01-4.938
		c-0.008,0-0.014,0.002-0.02,0.002c-0.165,0-0.315-0.035-0.477-0.045c-0.719,0.361-1.322,0.884-1.769,1.562
		c-0.035,0.053-0.054,0.114-0.087,0.17c0.065,1.347,0.021,2.655-0.114,3.927c0.805,1.202,2.396,2.026,4.167,2.026
		c0.934,0,1.812-0.233,2.539-0.674c0.893-0.546,1.73-1.736,2.108-3.019C459.62,366.771,458.428,367.538,457.075,367.679z"/>
	<g>
		<path fill="#FBC6A6" d="M447.183,329.705c0.319-6.994,2.296-13.9,5.792-19.969c-0.637,0.351-1.277,0.72-1.919,1.13
			c-11.76,7.507-17.228,23.064-19.325,31.97c1.45-0.693,2.41-1.018,2.527-1.055c0.347-0.055,0.642-0.089,0.913-0.111
			c-0.097-0.752-0.107-1.546,0.017-2.396c0.677-4.671,4.938-9.878,9.968-9.878C445.846,329.396,446.519,329.518,447.183,329.705z"/>
		<path fill="#FBC6A6" d="M476.449,345.216c-3.349,2.629-6.967,4.812-11.042,6.052c-1.452,0.44-2.981,0.736-4.509,0.825
			c0.891,2.339,0.326,5.591-1.334,7.398c-0.021,0.022-0.049,0.038-0.069,0.06c1.653,0.638,2.511,1.692,2.932,2.646
			c2.572-2.224,5.18-4.905,7.944-8.138C472.766,351.257,474.784,348.256,476.449,345.216z"/>
	</g>
	<path fill="#FBC6A6" d="M353.854,385.078c3.565,0.793,6.956,1.196,10.079,1.196c7.175,0,12.617-2.089,15.322-5.877
		c1.103-1.544,1.681-3.336,1.762-5.291c-1.92,1.654-4.234,2.883-6.691,3.526c-4.542,1.191-9.448,0.562-13.784-1.243
		c-4.693-1.954-9.059-5.299-14.143-5.345c-1.535-0.016-3.101,0.277-4.587-0.107c-1.216-0.314-2.277-1.062-3.213-1.901
		c-3.674-3.29-5.769-8.148-6.133-13.067c-0.252-3.403,0.292-6.821,1.388-10.062c-0.479,0.465-0.912,0.938-1.28,1.395
		c-4.25,5.254-6.386,14.2-4.97,20.806C329.702,378.9,333.813,380.626,353.854,385.078z"/>
	<path fill="#FBC6A6" d="M338.409,336.476c-0.575,1.604-1.275,3.168-2.446,4.387c-1.518,1.577-4.067,2.394-5.951,1.272
		c-1.546-0.919-2.2-2.814-2.508-4.587c-0.291-1.667-0.291-3.616,0.949-4.767c0.119-0.111,0.247-0.24,0.364-0.373
		c-0.25,0.147-0.499,0.306-0.745,0.492c-1.737,1.328-2.241,4.324-1.225,7.286c0.777,2.266,2.601,4.655,5.496,5.208
		c2.108-2.108,4.506-3.371,7.121-3.718c0.149-0.782,0.108-1.55,0.016-2.146C339.323,338.511,338.94,337.465,338.409,336.476z"/>
	<path fill="#FBC6A6" d="M327.332,347.868c-1.125,0.944-2.77,0.808-4.226,0.622c-0.437-0.058-0.898-0.123-1.241-0.401
		c-0.342-0.28-0.503-0.724-0.604-1.154c-0.062-0.257-0.091-0.52-0.121-0.782c-0.016,1.097,0.21,2.19,0.725,2.981
		c0.98,1.506,2.892,2.482,4.87,2.482c0.485,0,0.939-0.074,1.367-0.19c0.749-1.549,1.615-2.981,2.592-4.232
		c-0.855-0.3-1.593-0.752-2.275-1.261C328.241,346.687,327.922,347.374,327.332,347.868z"/>
	<path fill="#FBC6A6" d="M326.488,354.211c-0.066-0.164-0.183-0.291-0.267-0.445c-0.126-0.007-0.245-0.045-0.371-0.059
		c-0.214,0.988-0.604,1.938-1.16,2.784c-0.215,0.324-0.464,0.644-0.808,0.829c-0.382,0.203-0.834,0.215-1.268,0.222
		c-1.252,0.021-2.615,0.007-3.599-0.768c-0.872-0.683-1.192-1.767-1.306-2.899c-0.189,1.545,0.345,3.26,1.152,4.14
		c0.908,0.987,2.349,1.577,3.854,1.577c1.178,0,2.236-0.374,2.979-0.996c0.262-1.252,0.575-2.492,0.981-3.699
		C326.621,354.666,326.579,354.434,326.488,354.211z"/>
	<path fill="#FBC6A6" d="M325.161,367.384c-0.133-1.27-0.18-2.577-0.115-3.924c-0.033-0.057-0.052-0.118-0.087-0.172
		c-0.447-0.677-1.05-1.199-1.769-1.561c-0.079,0.005-0.158,0.013-0.237,0.022c0.054,2.364-0.43,4.856-2.745,5.544
		c-1.559,0.465-2.766-0.162-3.721-1.157c0.423,1.116,1.172,2.116,1.968,2.603c0.726,0.44,1.604,0.674,2.538,0.674
		C322.766,369.413,324.359,368.587,325.161,367.384z"/>
	<g>
		<path fill="#FBC6A6" d="M317.324,359.551c-0.02-0.021-0.048-0.037-0.069-0.06c-1.661-1.809-2.224-5.065-1.333-7.401
			c-1.772-0.405-3.509-0.968-5.166-1.722c-5.174-2.355-9.39-6.264-13.018-10.701c1.97,4.872,4.858,9.887,8.711,14.393
			c2.762,3.232,5.371,5.914,7.943,8.139C314.814,361.243,315.67,360.188,317.324,359.551z"/>
		<path fill="#FBC6A6" d="M329.819,313.977c1.662,4.442,3.12,8.959,4.309,13.55c0.221,0.851,0.425,1.708,0.619,2.568
			c3.594,1.545,6.354,5.509,6.886,9.18c0.125,0.858,0.113,1.659,0.014,2.417c0.24,0.016,0.475,0.013,0.718,0.044
			c0.183,0.054,1.222,0.399,2.746,1.127C343.276,335.101,338.84,322.124,329.819,313.977z"/>
	</g>
	<path fill="#FBC6A6" d="M485.896,184.879c-2.206,0.717-4.643,0.882-6.959,0.518c-0.488,5.173-1.065,9.731-1.554,13.403
		c10.077-0.892,23.245-5.638,23.703-24.259c0.022-0.946,0.014-1.863-0.026-2.755c-0.414,0.566-0.808,1.148-1.234,1.706
		C496.116,178.323,491.69,182.999,485.896,184.879z"/>
	<path fill="#FBC6A6" d="M286.61,183.134c-3.078-0.943-5.882-2.445-8.502-4.271c2.144,14.294,12.932,18.685,21.937,19.78
		c-0.79-4.093-1.49-8.992-1.985-14.443C294.2,184.524,290.358,184.284,286.61,183.134z"/>
	<path fill="#A2D6BF" d="M432.558,332.662c-2.358,0.207-4.872,0.41-7.445,0.609c-0.364,0.565-0.727,1.129-1.09,1.695
		c-6.136,9.548-13.169,19.795-24.056,23.008c-11.523,3.399-23.762-2.24-33.551-9.207c-5.958-4.239-11.651-9.281-15.304-15.522
		c-2.493-0.251-4.838-0.515-6.94-0.777c1.682,4.443,2.759,8.585,3.391,11.699c3.083,1.8,7.004,4.721,10.296,9.21
		c2.116,2.885,5.825,3.889,9.751,4.952c5.629,1.522,12.01,3.251,14.679,11.028c1.241,3.61,1.242,6.975,0.058,9.889
		c4.339,0.214,8.356,0.186,12.091-0.078c-1.152-2.896-1.136-6.231,0.093-9.811c2.67-7.777,9.051-9.506,14.68-11.028
		c3.927-1.063,7.636-2.067,9.75-4.952c3.292-4.487,7.213-7.409,10.266-9.201C429.851,341.122,430.908,337.048,432.558,332.662z"/>
	<path fill="#F27769" d="M386.38,193.829c-9.969,0-16.723,2.072-17.208,5.281c-0.292,1.932-0.209,3.998,0.181,6.062
		c4.978-3.113,10.651-5.078,16.505-5.391c9.463-0.503,19.168,3.508,25.106,10.869c0.645-0.972,1.194-1.952,1.605-2.919
		c0.826-1.937,1.883-5.561-0.312-8.067C409.443,196.446,397.834,193.829,386.38,193.829z"/>
	<path fill="#FFF0DC" d="M457.502,105.307c-1.968-6.529-8.61-12.478-13.448-17.008c-4.433-4.153-10.471-10.153-16.938-9.818
		c-0.97,0.05-1.196,1.427-0.23,1.707c6.274,1.82,11.512,7.427,16.011,11.964c4.43,4.466,7.495,10.53,12.212,14.548
		C456.139,107.578,457.943,106.772,457.502,105.307z"/>
	<path fill="#FFF0DC" d="M462.736,115.494c-0.879-1.64-1.811-3.219-2.859-4.759c-0.824-1.209-3.032-0.486-2.491,1.051
		c0.592,1.684,1.264,3.322,2.032,4.934c0.71,1.488,1.398,3.099,2.934,3.887c0.548,0.282,1.439,0.082,1.552-0.63
		C464.164,118.319,463.509,116.935,462.736,115.494z"/>
	<path fill="#FFF0DC" d="M492.731,217.128c-2.581,0.431-4.76,2.366-6.948,3.702c-2.415,1.475-5.089,2.53-7.454,4.071
		c-0.915,0.595-0.646,2.276,0.593,2.191c3.131-0.219,6.031-1.554,8.805-2.94c2.536-1.268,5.283-2.941,6.368-5.662
		C494.44,217.621,493.462,217.006,492.731,217.128z"/>
	<path fill="#FFF0DC" d="M450.255,275.628c-0.728-0.946-2.225-0.429-1.963,0.825c0.366,1.761,1.042,3.466,1.506,5.205
		c0.441,1.66,0.771,3.268,1.763,4.691c0.435,0.619,1.43,0.582,1.652-0.218C454.123,282.852,452.267,278.241,450.255,275.628z"/>
	<path fill="#FFF0DC" d="M477.251,317.078c-1.604-2.683-4.504-5.689-7.653-6.369c-0.957-0.208-1.667,0.915-0.962,1.651
		c2.068,2.16,4.25,3.702,5.866,6.325c1.429,2.321,1.314,5.492,2.906,7.585c0.46,0.603,1.43,0.777,1.854,0
		C480.802,323.446,478.735,319.559,477.251,317.078z"/>
	<path fill="#FFF0DC" d="M476.78,332.45c-0.734,1.031-1.251,2.26-1.648,3.461c-0.362,1.097-0.817,2.218-0.24,3.312
		c0.224,0.425,0.747,0.491,1.142,0.301c1.095-0.529,1.378-1.823,1.729-2.887c0.396-1.197,0.677-2.469,0.701-3.73
		C478.481,331.944,477.271,331.758,476.78,332.45z"/>
	<path fill="#FFF0DC" d="M298.828,318.44c-2.105,2.406-3.577,7.486-1.251,10.102c0.331,0.374,1.1,0.314,1.312-0.169
		c0.606-1.384,0.524-2.506,0.638-4.001c0.125-1.651,0.828-3.212,1.267-4.788C301.099,318.493,299.624,317.531,298.828,318.44z"/>
	<g>
		<path fill="#604C44" d="M523.7,211.028c1.21-2.916,2.905-8.577-0.561-11.556c-3.119-2.685-7.502,0.625-9.637,2.605
			c-0.886-2.254-2.678-6.048-5.073-7.246c-0.897-0.447-1.842-0.521-2.726-0.207c-3.459,1.21-4.502,3.992-5.51,6.682
			c-0.712,1.897-1.447,3.86-3.078,5.319c-0.57,0.511-1.18,1.107-1.863,1.776c-4.064,3.983-10.693,10.469-27.979,16.894
			c5.231-6.693,8.471-14.774,9.807-24.293c9.836-0.814,25.67-5.401,26.188-26.407c0.206-8.338-1.886-14.813-6.214-19.25
			c-5.108-5.235-12.262-6.57-17.73-6.715c-1.753-19.522-7.338-40.22-21.235-56.106c-9.411-10.76-21.859-18.425-37.17-22.987
			c4.599-10.139,2.892-22.758-4.38-31.181c-4.841-5.611-11.52-8.673-17.87-8.162c-6.393,0.505-12.437,5.732-14.372,12.422
			c-1.646,5.693,0.057,10.938,4.672,14.386c3.346,2.5,7.847,2.996,11.206,1.234c3.768-1.978,5.644-6.797,4.095-10.524
			c-0.23-0.552-0.869-0.812-1.427-0.588c-0.555,0.231-0.82,0.869-0.59,1.427c1.117,2.68-0.33,6.304-3.092,7.755
			c-2.63,1.378-6.2,0.957-8.887-1.05c-3.847-2.876-5.262-7.263-3.881-12.035c1.69-5.852,6.926-10.414,12.447-10.854
			c5.661-0.411,11.657,2.327,16.048,7.411c6.687,7.752,8.253,19.844,3.906,29.151c-10.595-2.908-22.495-4.393-35.707-4.393
			c-27.562,0-48.968,9.118-63.622,27.097c-13.01,15.964-19.011,37.017-21.168,57.033c-5.287,0.308-11.81,1.819-16.551,6.681
			c-4.329,4.435-6.42,10.91-6.215,19.248c0.497,20.166,15.11,25.198,24.981,26.289c1.66,7.608,4.216,14.261,7.761,20.008
			c-14.524-6.371-20.355-12.4-24.025-16.204c-0.664-0.687-1.256-1.301-1.81-1.826c-1.59-1.503-2.271-3.485-2.929-5.402
			c-0.934-2.717-1.898-5.526-5.323-6.832c-0.879-0.337-1.825-0.289-2.731,0.132c-2.427,1.13-4.323,4.874-5.271,7.101
			c-2.078-2.036-6.372-5.47-9.56-2.873c-3.548,2.881-2.011,8.587-0.884,11.538c-3.289-0.384-9.141-0.618-10.522,2.271
			c-2.279,4.766,2.318,8.83,5.417,10.907c-0.908,0.355-1.843,0.927-2.518,1.837c-1.036,1.401-1.225,3.232-0.56,5.446
			c1.699,5.661,8.958,5.028,13.762,4.606c1.467-0.129,2.852-0.254,3.59-0.151c0.865,0.234,4.496,3.381,8.335,6.71
			c11.217,9.725,31.9,27.657,50.23,32.601c-1.202,3.979-5.135,18.066-5.865,34.269c-1.51-0.33-3.007-0.512-4.483-0.512
			c-10.964,0-18.045,9.199-19.933,14.999c-2.596,7.972,1.032,23.606,11.6,35.969c3.197,3.74,6.205,6.772,9.189,9.229
			c0.122,2.296,1.434,4.733,3.339,5.893c1.067,0.649,2.337,0.996,3.672,0.996c1.146,0,2.241-0.248,3.215-0.682
			c0.578,0.233,1.164,0.452,1.755,0.654c2.562,9.189,8.21,11.372,27.417,15.639c3.72,0.827,7.271,1.247,10.553,1.247
			c7.9,0,13.972-2.412,17.097-6.789c0.067-0.096,0.116-0.196,0.181-0.291c2.319,0.134,4.575,0.223,6.718,0.223
			c2.668,0,5.196-0.112,7.624-0.31c0.084,0.125,0.148,0.256,0.235,0.378c3.125,4.377,9.196,6.789,17.097,6.789
			c0.001,0,0.001,0,0.001,0c3.28,0,6.83-0.42,10.551-1.247c19.21-4.267,24.857-6.449,27.419-15.64
			c0.591-0.201,1.178-0.42,1.754-0.653c0.976,0.434,2.069,0.682,3.216,0.682c1.335,0,2.604-0.347,3.671-0.996
			c1.906-1.159,3.22-3.598,3.342-5.894c2.984-2.457,5.991-5.488,9.188-9.229c10.567-12.362,14.196-27.997,11.601-35.969
			c-1.888-5.8-8.968-14.999-19.935-14.999c-0.594,0-1.189,0.031-1.789,0.084c-1.896-14.923-6.126-27.728-7.486-31.581
			c18.433-4.461,39.492-21.605,50.92-30.911c3.927-3.194,7.635-6.215,8.475-6.419c0.777-0.084,2.153,0.078,3.616,0.249
			c4.788,0.555,12.03,1.387,13.883-4.221c0.728-2.194,0.59-4.033-0.406-5.462c-0.651-0.93-1.569-1.526-2.467-1.907
			c3.155-1.989,7.862-5.924,5.718-10.751C532.856,210.667,527.002,210.745,523.7,211.028z M524.991,223.762
			c-0.46,0.211-0.714,0.709-0.613,1.206c0.1,0.496,0.526,0.858,1.033,0.875c0.026,0,2.637,0.125,3.703,1.655
			c0.583,0.835,0.626,2.021,0.127,3.527c-1.298,3.924-7.229,3.238-11.562,2.739c-1.653-0.19-3.083-0.356-4.093-0.249
			c-1.222,0.128-3.352,1.791-9.624,6.896c-11.54,9.396-33.017,26.881-51.217,30.745c-0.312,0.066-0.58,0.266-0.731,0.546
			c-0.153,0.28-0.174,0.612-0.061,0.911c0.086,0.227,5.59,14.817,7.805,32.296c-3.237,0.624-6.543,1.99-9.877,4.117
			c-7.988,5.099-13.163,13.518-16.427,21.366c-13.326,1.194-30.753,2.369-47.715,2.369c-18.099,0-32.708-1.34-42.486-2.607
			c-3.267-7.792-8.419-16.088-16.316-21.128c-2.411-1.539-4.809-2.681-7.176-3.435c0.772-18.886,6.054-35.032,6.131-35.263
			c0.095-0.29,0.068-0.608-0.081-0.875c-0.148-0.269-0.402-0.46-0.699-0.532c-18.086-4.367-39.133-22.613-50.44-32.418
			c-6.139-5.32-8.227-7.054-9.445-7.216c-1.013-0.142-2.441-0.011-4.1,0.134c-4.339,0.383-10.292,0.899-11.482-3.06
			c-0.457-1.516-0.382-2.699,0.219-3.515c1.114-1.515,3.731-1.559,3.757-1.559c0.506-0.005,0.943-0.356,1.055-0.851
			c0.111-0.492-0.126-0.998-0.581-1.219c-0.092-0.047-9.236-4.614-6.91-9.48c0.735-1.536,6.363-1.438,10.143-0.782
			c0.402,0.071,0.818-0.093,1.063-0.424c0.246-0.332,0.283-0.772,0.098-1.142c-1.107-2.189-3.352-8.385-0.491-10.712
			c2.16-1.752,6.418,2.321,7.741,3.886c0.252,0.298,0.648,0.447,1.032,0.369c0.384-0.071,0.703-0.343,0.832-0.714
			c0.847-2.428,2.892-6.608,4.773-7.484c0.378-0.172,0.707-0.191,1.033-0.072c2.47,0.944,3.161,2.957,4.036,5.504
			c0.709,2.065,1.515,4.407,3.493,6.279c0.534,0.504,1.101,1.092,1.74,1.754c4.04,4.187,10.619,10.985,27.821,17.994
			c13.212,18.076,37.735,26.118,77.09,26.118c37.621,0,62.793-7.003,76.778-21.67c20.471-6.991,27.944-14.306,32.412-18.685
			c0.658-0.646,1.243-1.219,1.791-1.708c2.03-1.819,2.899-4.135,3.666-6.18c0.945-2.522,1.693-4.516,4.189-5.39
			c0.327-0.114,0.656-0.085,1.029,0.1c1.856,0.927,3.785,5.161,4.564,7.614c0.118,0.373,0.43,0.654,0.812,0.736
			c0.385,0.075,0.781-0.046,1.041-0.342c1.363-1.528,5.721-5.497,7.843-3.667c2.796,2.405,0.38,8.533-0.786,10.692
			c-0.197,0.364-0.171,0.805,0.064,1.144c0.236,0.337,0.648,0.516,1.051,0.457c3.796-0.558,9.425-0.497,10.117,1.06
			C534.348,219.395,525.084,223.717,524.991,223.762z M470.371,354.06c-2.765,3.232-5.372,5.914-7.944,8.138
			c-0.421-0.954-1.278-2.009-2.932-2.646c0.021-0.021,0.049-0.037,0.069-0.06c1.721-1.872,2.279-5.307,1.248-7.656
			c-0.656-1.492-1.813-2.458-3.403-2.827c0.733-2.04,0.617-4.604-0.408-6.495c-0.969-1.785-2.619-2.759-4.654-2.794
			c0.82-3.524-0.053-6.889-2.345-8.607c-1.517-1.137-3.147-1.715-4.847-1.715c-5.03,0-9.291,5.207-9.968,9.878
			c-0.124,0.85-0.113,1.644-0.017,2.396c-0.271,0.022-0.566,0.057-0.913,0.111c-0.117,0.037-1.077,0.361-2.527,1.055
			c2.098-8.905,7.565-24.463,19.325-31.97c4.339-2.771,8.591-4.174,12.638-4.174c9.812,0,16.161,8.276,17.859,13.493
			C483.912,327.427,480.308,342.436,470.371,354.06z M458.365,368.739c-0.728,0.44-1.605,0.674-2.539,0.674
			c-1.771,0-3.362-0.824-4.167-2.026c0.135-1.271,0.18-2.58,0.114-3.927c0.033-0.056,0.052-0.117,0.087-0.17
			c0.446-0.679,1.05-1.201,1.769-1.562c0.161,0.01,0.312,0.045,0.477,0.045c1.011,0,1.983-0.2,2.875-0.55
			c0.214,0.021,0.412,0.018,0.637,0.057c1.746,0.298,2.759,1.111,3.008,2.422C460.985,365.578,459.728,367.908,458.365,368.739z
			 M412.886,386.274c-7.176,0-12.617-2.089-15.322-5.877c-1.996-2.795-2.332-6.368-0.969-10.334
			c2.293-6.682,7.583-8.113,13.185-9.631c4.116-1.113,8.374-2.264,10.939-5.764c5.849-7.976,14.081-10.771,14.016-10.771
			c4.412-0.579,7.686,2.143,9.512,4.403c4.249,5.254,6.385,14.2,4.97,20.806c-2.099,9.791-6.209,11.519-26.251,15.971
			C419.398,385.871,416.008,386.274,412.886,386.274z M363.934,386.274c-3.124,0-6.514-0.403-10.079-1.196
			c-20.041-4.452-24.152-6.178-26.25-15.971c-1.416-6.605,0.721-15.552,4.97-20.806c1.653-2.046,4.43-4.483,8.275-4.483
			c0.404,0,0.815,0.026,1.036,0.036c0.084,0.026,8.347,2.812,14.214,10.814c2.566,3.5,6.824,4.65,10.941,5.764
			c5.601,1.518,10.892,2.949,13.186,9.631c1.361,3.966,1.026,7.539-0.97,10.334C376.551,384.186,371.109,386.274,363.934,386.274z
			 M318.455,368.739c-1.363-0.831-2.619-3.159-2.261-5.038c0.25-1.309,1.263-2.124,3.01-2.422c0.225-0.039,0.422-0.036,0.635-0.057
			c0.892,0.35,1.864,0.55,2.876,0.55c0.164,0,0.314-0.035,0.475-0.045c0.719,0.361,1.321,0.884,1.769,1.561
			c0.035,0.054,0.055,0.115,0.087,0.172c-0.065,1.347-0.019,2.654,0.115,3.924c-0.802,1.203-2.396,2.029-4.168,2.029
			C320.059,369.413,319.181,369.18,318.455,368.739z M295.266,320.186c1.698-5.217,8.051-13.493,17.86-13.493
			c4.047,0,8.298,1.403,12.639,4.174c11.786,7.524,17.254,23.15,19.346,31.996c-1.524-0.728-2.562-1.073-2.746-1.127
			c-0.243-0.031-0.479-0.028-0.718-0.044c0.099-0.758,0.11-1.559-0.014-2.417c-0.678-4.671-4.938-9.878-9.969-9.878
			c-1.699,0-3.329,0.578-4.847,1.715c-2.29,1.719-3.165,5.084-2.344,8.607c-2.032,0.035-3.682,1.01-4.653,2.794
			c-1.025,1.887-1.141,4.451-0.411,6.491c-1.588,0.368-2.744,1.337-3.4,2.831c-1.032,2.35-0.473,5.784,1.247,7.656
			c0.021,0.022,0.049,0.038,0.069,0.06c-1.653,0.638-2.51,1.692-2.931,2.647c-2.572-2.225-5.181-4.906-7.943-8.139
			C296.514,342.436,292.908,327.427,295.266,320.186z M437.345,339.588c0.548-3.781,4.005-8.009,7.811-8.009
			c1.216,0,2.406,0.43,3.537,1.279c1.75,1.312,2.281,4.305,1.29,7.275c-0.758,2.272-2.563,4.684-5.456,5.259
			c-2.131-2.08-4.555-3.337-7.147-3.665C437.224,340.948,437.259,340.184,437.345,339.588z M454.956,349.134
			c-0.979,1.506-2.891,2.482-4.869,2.482c-0.485,0-0.94-0.074-1.367-0.19c-0.75-1.549-1.614-2.98-2.593-4.231
			c2.654-0.929,4.473-3.039,5.479-5.257c0.227-0.031,0.449-0.053,0.658-0.053c1.27,0,2.218,0.561,2.819,1.668
			C455.961,345.172,455.905,347.674,454.956,349.134z M458.814,352.711c0.766,1.744,0.162,4.193-0.857,5.302
			c-0.907,0.989-2.348,1.579-3.852,1.579c-1.178,0-2.235-0.376-2.979-0.996c-0.263-1.252-0.577-2.494-0.982-3.7
			c0.055-0.23,0.097-0.463,0.187-0.685c0.066-0.164,0.185-0.291,0.268-0.445c2.221-0.135,4.284-1.126,5.641-2.716
			C457.485,351.145,458.364,351.685,458.814,352.711z M328.101,351.426c-0.428,0.116-0.882,0.19-1.367,0.19
			c-1.978,0-3.89-0.977-4.87-2.482c-0.949-1.46-1.004-3.962-0.127-5.581c0.602-1.107,1.55-1.668,2.82-1.668
			c0.208,0,0.43,0.021,0.657,0.053c1.006,2.218,2.826,4.327,5.48,5.256C329.715,348.444,328.85,349.877,328.101,351.426z
			 M325.695,358.596c-0.744,0.622-1.802,0.996-2.979,0.996c-1.504,0-2.946-0.59-3.854-1.577c-1.02-1.11-1.622-3.56-0.856-5.304
			c0.451-1.026,1.331-1.566,2.577-1.661c1.356,1.59,3.419,2.581,5.639,2.716c0.084,0.154,0.2,0.281,0.267,0.445
			c0.091,0.223,0.133,0.455,0.188,0.686C326.27,356.104,325.957,357.344,325.695,358.596z M332.286,345.388
			c-2.89-0.578-4.692-2.982-5.449-5.254c-0.99-2.971-0.46-5.964,1.289-7.275c1.132-0.85,2.322-1.279,3.539-1.279
			c3.807,0,7.262,4.228,7.811,8.009c0.086,0.598,0.121,1.365-0.035,2.146C336.822,342.057,334.414,343.3,332.286,345.388z
			 M382.289,369.357c-2.669-7.777-9.05-9.506-14.679-11.028c-3.927-1.063-7.636-2.067-9.751-4.952
			c-3.292-4.489-7.213-7.41-10.296-9.21c-0.632-3.114-1.709-7.256-3.391-11.699c9.84,1.231,24.088,2.477,41.567,2.477
			c16.573,0,33.586-1.118,46.818-2.282c-1.649,4.386-2.707,8.46-3.332,11.514c-3.053,1.792-6.974,4.714-10.266,9.201
			c-2.114,2.885-5.823,3.889-9.75,4.952c-5.629,1.522-12.01,3.251-14.68,11.028c-1.229,3.579-1.245,6.914-0.093,9.811
			c-3.734,0.264-7.752,0.292-12.091,0.078C383.531,376.332,383.53,372.968,382.289,369.357z M300.044,198.643
			c-9.862-1.2-21.895-6.311-22.333-24.102c-0.191-7.726,1.691-13.673,5.594-17.671c4.171-4.276,9.964-5.668,14.774-5.995
			C296.314,169.62,297.839,187.23,300.044,198.643z M302.432,199.489c-4.749-23.054-6.947-74.979,18.725-106.477
			c14.219-17.447,35.057-26.294,61.93-26.294c12.82,0,24.376,1.413,34.665,4.187c-6.107,10.522-17.3,12.75-29.224,14.209
			c-0.599,0.074-1.024,0.616-0.95,1.215c0.066,0.554,0.537,0.958,1.081,0.958c0.044,0,0.088-0.002,0.134-0.008
			c12.683-1.551,24.591-3.959,31.122-15.76c15.087,4.434,27.323,11.915,36.532,22.44c28.441,32.515,21.242,86.166,18.532,106.364
			c-4.438,33.065-31.392,47.811-87.391,47.811C334.923,248.135,309.456,233.587,302.432,199.489z M477.384,198.8
			c1.415-10.638,3.594-28.609,2.124-47.984c5.017,0.167,11.453,1.411,15.985,6.054c3.902,3.998,5.784,9.945,5.594,17.671
			C500.629,193.162,487.461,197.908,477.384,198.8z"/>
		<path fill="#604C44" d="M389.405,224.443c0.404,0,0.816-0.011,1.23-0.029c11.515-0.531,20.76-8.364,23.939-15.827
			c1.747-4.097,1.501-7.873-0.676-10.359c-3.74-4.274-16.969-6.581-27.52-6.581c-5.499,0-18.39,0.697-19.364,7.134
			c-0.909,5.997,1.292,13.111,5.608,18.129C375.578,220.348,380.888,224.443,389.405,224.443z M369.171,199.11
			c0.486-3.209,7.24-5.281,17.208-5.281c11.454,0,23.063,2.618,25.877,5.835c2.195,2.507,1.139,6.131,0.312,8.067
			c-2.843,6.669-11.53,14.019-22.034,14.504c-8.28,0.37-13.472-3.508-16.258-6.746C370.358,210.933,368.355,204.503,369.171,199.11z
			"/>
		<path fill="#604C44" d="M353.347,168.092c4.693,0,8.498-3.865,8.498-8.634c0-4.768-3.804-8.634-8.498-8.634
			s-8.498,3.866-8.498,8.634C344.85,164.227,348.654,168.092,353.347,168.092z M351.036,153.236c1.553,0,2.811,1.28,2.811,2.857
			c0,1.579-1.258,2.856-2.811,2.856s-2.812-1.278-2.812-2.856C348.224,154.516,349.482,153.236,351.036,153.236z"/>
		<path fill="#604C44" d="M428.7,168.092c4.691,0,8.496-3.865,8.496-8.634c0-4.768-3.805-8.634-8.496-8.634
			c-4.694,0-8.498,3.866-8.498,8.634C420.202,164.227,424.006,168.092,428.7,168.092z M426.387,153.236
			c1.554,0,2.812,1.28,2.812,2.857c0,1.579-1.259,2.856-2.812,2.856c-1.552,0-2.812-1.278-2.812-2.856
			C423.575,154.516,424.835,153.236,426.387,153.236z"/>
		<path fill="#604C44" d="M389.101,317.82c-0.603,0-1.091,0.488-1.091,1.091v4.109c0,0.604,0.488,1.091,1.091,1.091
			c0.604,0,1.092-0.487,1.092-1.091v-4.109C390.192,318.309,389.704,317.82,389.101,317.82z"/>
	</g>
</g>
</svg>
