<svg version="1.1" xmlns="http://www.w3.org/2000/svg" viewBox="0 0 768 430" xml:space="preserve"><style>.s0{fill:#DDE4D0;}</style><path d="M389.4 138.4c18.3 0 33.2-14.9 33.2-33.2s-14.9-33.2-33.2-33.2c-18.3 0-33.2 14.9-33.2 33.2S371 138.4 389.4 138.4zM389.4 105.2" fill="#DDE4D0"/><path d="M389.3 207.8h-35.1V182.4l-26.8 27c-12.1 12.1-28.6-3.4-16.4-15.6l44.4-44.5c3.6-3.6 7.6-5.9 13.8-5.9h20.1 0 19.7c6.3 0 10.5 2.2 14.2 5.9l44.9 45c11.6 11.6-5.3 27.3-16.4 15.6l-27.5-27.6v25.5H389.3 389.3zM424 220.9l-26.4 26.4 19.4 19.3 -19.8 19.8c-11.7 11.7 4.4 28.4 16.6 16.3l31.4-32.6c6.7-6.9 8.6-19.6 1.4-26.8C446.5 243.4 424 220.9 424 220.9zM354.2 220.9l26.4 26.4 -19.4 19.3 19.8 19.8c11.7 11.7-4.4 28.4-16.6 16.3l-31.4-32.6c-6.7-6.9-8.6-19.6-1.4-26.8C331.8 243.4 354.2 220.9 354.2 220.9z" fill="#DDE4D0"/></svg>