<svg xmlns="http://www.w3.org/2000/svg" viewBox="0 0 768 430"><style>.a{fill:#D1D3D3;}.b{opacity:0.2;}.c{opacity:0.1;}.d{fill:#7B7E7F;}.e{fill:#FFF;opacity:0.3;}.f{fill:#686A6B;}.g{fill:#F1B340;}</style><path d="M257.4 163v-8.3c0-5.9-2.4-11.3-6.3-15.2 -3.9-3.9-9.3-6.3-15.2-6.3 -5.9 0-11.3 2.4-15.2 6.3 -3.9 3.9-6.3 9.3-6.3 15.2v71.6h6.4v-71.6c0-4.2 1.7-7.9 4.4-10.7 2.7-2.7 6.5-4.4 10.7-4.4s7.9 1.7 10.7 4.4c2.7 2.7 4.4 6.5 4.4 10.7v8.3H257.4z" class="a"/><path d="M254.2 154.6v8.3h-3.2v-8.3c0-4.2-1.7-7.9-4.4-10.7 -2.7-2.7-6.5-4.4-10.7-4.4s-7.9 1.7-10.7 4.4c-2.7 2.7-4.4 6.5-4.4 10.7v71.6h-3.2v-71.6c0-5 2.1-9.6 5.4-13 3.3-3.3 7.9-5.4 13-5.4s9.6 2.1 13 5.4C252.1 145 254.2 149.6 254.2 154.6z" class="b"/><rect x="214.3" y="214.3" width="6.4" height="12" class="b"/><path d="M258 162.5h-7.6c-0.4 0-0.7 0.3-0.7 0.7v2.8c0 0.4 0.3 0.7 0.7 0.7h7.6c0.4 0 0.7-0.3 0.7-0.7v-2.8C258.7 162.8 258.3 162.5 258 162.5z" fill="#C0C3C5"/><path d="M250.3 162.5v2.8c0 0.4 0.3 0.7 0.7 0.7h7.6c0 0 0 0 0 0 0 0.4-0.3 0.7-0.7 0.7h-7.6c-0.4 0-0.7-0.3-0.7-0.7v-2.8c0-0.4 0.3-0.7 0.7-0.7C250.3 162.5 250.3 162.5 250.3 162.5z" class="b"/><path d="M281.1 356.2c-25.1 0-44.1-21.3-48.8-46.3l-9.5-51c-1.3-6.8-5.2-20.8-15-20.8l-0.1-6.9 366.9 0.4 -1.3 6.5c-9.8 0-13.7 14-15 20.8l-9.5 51c-4.7 25-23.7 46.3-48.8 46.3H281.1z" class="a"/><path d="M203.1 218.7h374.9c3.9 0 7.1 3.2 7.1 7.1v5.4c0 3.9-3.2 7.1-7.1 7.1H203.1c-3.9 0-7.1-3.2-7.1-7.1v-5.4C196 221.8 199.2 218.7 203.1 218.7z" fill="#E2E3E2"/><path d="M527.8 304.7c-4.4 23.3-22.2 43.2-45.8 43.2H276.6c-20.7 0-37-15.4-43.6-35 5.6 23.7 24 43.2 48.1 43.2h218.9c25.1 0 44.1-21.3 48.8-46.3l9.5-51c0.7-3.5 2-8.9 4.5-13.4 2.4-4.1 5.7-7.4 10.5-7.4h-25.3c-3.3 1.1-5.7 4-7.5 7.4 -2 3.9-3.2 8.5-3.8 11.5L527.8 304.7z" class="c"/><path d="M218.2 245.6h344.6c2.4-4.1 5.7-7.4 10.5-7.4H207.7C212.5 238.2 215.9 241.5 218.2 245.6z" class="c"/><path d="M277.2 349.4c-2.6-5.3-11.7-8.7-18.7-6.6l-7.7 31.9h4L277.2 349.4z" class="d"/><path d="M269.5 351l-14.6 23.7 0 0 19.9-22.6 2.4-2.7c-0.8-1.6-2.2-3-4-4.2L269.5 351z" class="b"/><path d="M252.3 374.7l9.9-26.3 2.1-5.8 0.1-0.4c-0.5 0-1.1-0.1-1.6-0.1 -0.8 0-1.6 0.1-2.4 0.2l-1.2 4.6 -7.4 27.8H252.3z" class="e"/><path d="M247.6 370.9h13.2c0.9 0 1.7 0.8 1.7 1.7v1.7c0 0.9-0.8 1.7-1.7 1.7h-13.2c-0.9 0-1.7-0.8-1.7-1.7v-1.7C246 371.7 246.7 370.9 247.6 370.9z" class="f"/><path d="M246.6 373.2c0-0.9 0.8-1.7 1.9-1.7h2.6 1.1 1 3.8 0.9 3.2c0.3 0 0.7 0.1 0.9 0.2 -0.3-0.5-0.9-0.8-1.6-0.8h-2.1 -1.1 -4 -1.1 -1.2 -3.4c-1 0-1.9 0.8-1.9 1.7v1.7c0 0.6 0.4 1.1 0.9 1.4 -0.2-0.3-0.3-0.5-0.3-0.9V373.2z" class="e"/><path d="M261.7 373.8c0 0.9-0.8 1.7-1.9 1.7h-12.8c-0.1 0-0.3 0-0.4 0 0 0.1 0.1 0.2 0.2 0.3 0.3 0.2 0.6 0.2 0.9 0.2h12.8c1 0 1.9-0.8 1.9-1.7v-1.7c0-0.3-0.1-0.6-0.3-0.9 -0.2-0.1-0.4-0.2-0.6-0.2 0.1 0.2 0.1 0.4 0.1 0.6V373.8z" class="b"/><path d="M503.2 349.4c2.6-5.3 11.7-8.7 18.7-6.6l7.7 31.9h-4L503.2 349.4z" class="d"/><path d="M510.9 351l14.6 23.7 0 0 -19.9-22.6 -2.4-2.7c0.8-1.6 2.2-3 4-4.2L510.9 351z" class="b"/><path d="M528.1 374.7l-9.9-26.3 -2.1-5.8 -0.1-0.4c0.5 0 1.1-0.1 1.6-0.1 0.8 0 1.6 0.1 2.4 0.2l1.2 4.6 7.4 27.8H528.1z" class="e"/><path d="M532.7 370.9h-13.2c-0.9 0-1.7 0.8-1.7 1.7v1.7c0 0.9 0.8 1.7 1.7 1.7h13.2c0.9 0 1.7-0.8 1.7-1.7v-1.7C534.4 371.7 533.7 370.9 532.7 370.9z" class="f"/><path d="M533.8 373.2c0-0.9-0.8-1.7-1.9-1.7h-2.6 -1.1 -1 -3.8 -0.9 -3.2c-0.3 0-0.7 0.1-1 0.2 0.3-0.5 0.9-0.8 1.6-0.8h2.1 1.1 4 1.1 1.2 3.4c1 0 1.9 0.8 1.9 1.7v1.7c0 0.6-0.4 1.1-0.9 1.4 0.2-0.3 0.3-0.5 0.3-0.9V373.2z" class="e"/><path d="M518.6 373.8c0 0.9 0.8 1.7 1.9 1.7h12.8c0.1 0 0.3 0 0.4 0 0 0.1-0.1 0.2-0.2 0.3 -0.3 0.2-0.6 0.2-0.9 0.2H519.8c-1 0-1.9-0.8-1.9-1.7v-1.7c0-0.3 0.1-0.6 0.3-0.9 0.2-0.1 0.4-0.2 0.6-0.2 -0.1 0.2-0.1 0.4-0.1 0.6V373.8z" class="b"/><path d="M491.4 186.9c4.2 0 7.6 3.4 7.6 7.6 0 1.6-0.6 3.5-1.7 4.7 -1.6 1.9 0.4 4 2.8 4 2 0 4.1-1.3 5.2-2.4 1-1 1.1-2.3 1.8-2.3s1.4 0.6 1.9 1.2c5.8 6.4 0.7 19-6.3 19H489.4c-3.6 0-6.8-4.4-6.8-8 0-5.6 5.4-7.9 5.4-8.4 0-0.9-0.3-1-1.1-1.6 -1.9-1.3-3.1-2.8-3.1-6.1S487.2 186.9 491.4 186.9z" fill="#FFDA4C"/><path d="M498 202.7c-1.3-0.8-1.9-2.2-0.8-3.5 1.1-1.3 1.7-3.1 1.7-4.7 0-1.4-0.4-2.6-1-3.8 2.2 6-1.5 9.2-5.7 9.5 -1.7 0.1-3.2-0.1-4.4-0.6 -0.6-0.3-0.9-0.7-0.8-1.2 0.1-0.4 0-0.7-0.3-1 0.3 0.5-0.2 1.2-0.8 1.1 -0.4 0-0.8-0.1-1.2-0.2 0.5 0.9 1.3 1.6 2.2 2.2 0.8 0.6 1.2 0.7 1.1 1.6 0 0.2-1.3 1-2.4 2C488.1 202.6 493.5 201.4 498 202.7z" class="g"/><path d="M488 216.3c-1.6 0-3.1-0.7-4.4-1.8 1.2 2.3 3.4 4.2 5.8 4.2h13.3c4.3 0 7.8-4.6 8.6-9.7 -1.5 4.1-4.9 7.3-8.8 7.3H488z" class="g"/><path d="M487.8 188.5c1.1-0.5 2.4-0.8 3.7-0.8 0.8 0 1.6 0.1 2.4 0.3 0.3 0.1 0.3-0.3 0-0.3 -0.8-0.3-1.6-0.4-2.5-0.4 -1.3 0-2.6 0.4-3.7 1.1C487.4 188.5 487.6 188.6 487.8 188.5z" fill="#FCF29C"/><path d="M486.5 197.2c-1.4-1.1-2.5-3.3-2.4-4.7 -0.6 1-2.3 1.4-3.9 1.3 -0.5 0-1.5-0.4-1.6 0.4 0 0.8 0.6 1.9 1.6 2.5 1.8 1 3.6 1.9 5.7 2C486.8 198.6 487.1 197.6 486.5 197.2z" fill="#F55831"/><path d="M480.4 196c-0.9-0.5-1.5-1.4-1.6-2.1 0 0.1 0 0.1 0 0.2 0 0.8 0.6 1.9 1.6 2.5 1.4 0.8 2.9 1.5 4.4 1.9 0.4 0.1 0.8 0.1 1.2 0.2 0.6 0 1-0.6 0.7-1.1 0 0 0 0 0-0.1 -0.3 0.9-1.6 0.6-2.2 0.4C483 197.5 481.7 196.8 480.4 196z" fill="#EC4B2E"/><circle cx="488.6" cy="192.8" r="1.8" fill="#FFC544"/><circle cx="488.6" cy="192.8" r="1.6" fill="#FFF"/><path d="M488.1 193.7c0.4 0 0.8-0.4 0.8-0.8 0-0.1 0-0.3-0.1-0.4v0c0 0.3-0.2 0.5-0.5 0.5s-0.5-0.2-0.5-0.5c0-0.2 0.1-0.4 0.3-0.5 0 0-0.1 0-0.1 0 -0.4 0-0.8 0.4-0.8 0.8C487.3 193.3 487.6 193.7 488.1 193.7z" fill="#000309"/><path d="M504.6 205.3c-2 1.3-3.5 0.6-4.7 0.2 -3.3-1.2-7.1-1.1-7 3.3 0 2 2.9 5 7.5 4.4 3.2-0.4 7.2-3.7 6-7.5C506 204.5 505.5 204.7 504.6 205.3z" fill="#E89539"/><path d="M504.3 204.9c-2 1.3-3.5 0.6-4.7 0.2 -3.3-1.2-7.1-1.1-7 3.3 0 2 2.9 5 7.5 4.4 3.2-0.4 7.2-3.7 6-7.5C505.8 204.1 505.2 204.4 504.3 204.9z" class="g"/><path d="M493.3 207.3c0.9-1.8 2.7-2.3 4.8-2.1 0.2 0 0.2-0.1 0-0.2 -2.3-0.4-4.4 0-5 2.2C493.1 207.4 493.2 207.4 493.3 207.3z" fill="#FFD865"/></svg>