<svg xmlns="http://www.w3.org/2000/svg" viewBox="0 0 768 430"><style>.a{fill:#90CAF9;}.b{fill:#7FC1F5;}.c{fill:#F5F5F5;}.d{fill:#FFF;}.e{fill:#EEE;}.f{fill:#CED2EC;}.g{fill:#757575;}.h{fill:#FFE082;}.i{fill:#FFD54F;}.j{fill:#EF9A9A;}.k{fill:#FFCDD2;}</style><rect x="127" y="49" width="514.6" height="330.5" class="a"/><rect x="127" y="309.1" width="514.6" height="70.3" fill="#AD8B66"/><rect x="338.1" y="186.2" width="26.9" height="26.9" class="a"/><rect x="365.1" y="186.2" width="26.9" height="26.9" class="b"/><rect x="392" y="186.2" width="26.9" height="26.9" class="a"/><rect x="419" y="186.2" width="26.9" height="26.9" class="b"/><rect x="445.9" y="186.2" width="26.9" height="26.9" class="a"/><rect x="472.9" y="186.2" width="26.9" height="26.9" class="b"/><rect x="499.8" y="186.2" width="27" height="26.9" class="a"/><rect x="526.8" y="186.2" width="26.9" height="26.9" class="b"/><rect x="553.7" y="186.2" width="26.9" height="26.9" class="a"/><rect x="580.6" y="186.2" width="26.9" height="26.9" class="b"/><rect x="338.1" y="159.3" width="26.9" height="26.9" class="b"/><rect x="365.1" y="159.3" width="26.9" height="26.9" class="a"/><rect x="392" y="159.3" width="26.9" height="26.9" class="b"/><rect x="419" y="159.3" width="26.9" height="26.9" class="a"/><rect x="445.9" y="159.3" width="26.9" height="26.9" class="b"/><rect x="472.9" y="159.3" width="26.9" height="26.9" class="a"/><rect x="499.8" y="159.3" width="27" height="26.9" class="b"/><rect x="526.8" y="159.3" width="26.9" height="26.9" class="a"/><rect x="553.7" y="159.3" width="26.9" height="26.9" class="b"/><rect x="580.6" y="159.3" width="26.9" height="26.9" class="a"/><rect x="338.1" y="132.4" width="26.9" height="26.9" class="a"/><rect x="365.1" y="132.4" width="26.9" height="26.9" class="b"/><rect x="392" y="132.4" width="26.9" height="26.9" class="a"/><rect x="419" y="132.4" width="26.9" height="26.9" class="b"/><rect x="445.9" y="132.4" width="26.9" height="26.9" class="a"/><rect x="472.9" y="132.4" width="26.9" height="26.9" class="b"/><rect x="499.8" y="132.4" width="27" height="26.9" class="a"/><rect x="526.8" y="132.4" width="26.9" height="26.9" class="b"/><rect x="553.7" y="132.4" width="26.9" height="26.9" class="a"/><rect x="580.6" y="132.4" width="26.9" height="26.9" class="b"/><rect x="338.1" y="105.4" width="26.9" height="26.9" class="b"/><rect x="365.1" y="105.4" width="26.9" height="26.9" class="a"/><rect x="392" y="105.4" width="26.9" height="26.9" class="b"/><rect x="419" y="105.4" width="26.9" height="26.9" class="a"/><rect x="445.9" y="105.4" width="26.9" height="26.9" class="b"/><rect x="472.9" y="105.4" width="26.9" height="26.9" class="a"/><rect x="499.8" y="105.4" width="27" height="26.9" class="b"/><rect x="526.8" y="105.4" width="26.9" height="26.9" class="a"/><rect x="553.7" y="105.4" width="26.9" height="26.9" class="b"/><rect x="580.6" y="105.4" width="26.9" height="26.9" class="a"/><path d="M402 309.1h93.9c35.3 0 63.9-28.6 63.9-63.9v-32.3H338.1v32.3C338.1 280.5 366.7 309.1 402 309.1z" class="c"/><path d="M449.8 309.1h93.9c35.3 0 63.9-28.6 63.9-63.9v-32.3H407.7v32.3C407.7 280.5 414.5 309.1 449.8 309.1z" class="d"/><path d="M272.7 194.9c-15.8 0-28.7-17.3-28.7-38.7 0-21.3 12.9-38.7 28.7-38.7 15.8 0 28.7 17.4 28.7 38.7C301.4 177.6 288.5 194.9 272.7 194.9z" fill="#C5CAE9"/><path d="M272.7 117.6c-2.8 0-5.5 0.6-8.1 1.6l-14.1 61.6c2.8 4.6 6.4 8.4 10.6 10.8l16.8-73.4C276.1 117.8 274.4 117.6 272.7 117.6z" class="f"/><path d="M284.5 121l-16.8 73.3c1.4 0.3 2.9 0.5 4.4 0.6l16.2-71C287.2 122.8 285.9 121.9 284.5 121z" class="f"/><path d="M270.2 309.1h28.6c-7.3-22.6-7.3-45.2 0-67.8 -9.7-7.5-19.5-10-29.2-7.5C271.8 258.9 272 284 270.2 309.1z" class="d"/><path d="M269.6 233.8c-4.9 1.3-9.7 3.8-14.6 7.5 7.3 22.6 7.3 45.2 0 67.8h15.2C272 284 271.8 258.9 269.6 233.8z" class="c"/><path d="M301.2 241.3h-43.6c-5.5 0-10-4.5-10-10v-18.4h81.9l0 0C329.5 228.6 316.8 241.3 301.2 241.3z" class="d"/><path d="M258.3 241.3L258.3 241.3c-15.7 0-28.4-12.7-28.4-28.4l0 0h47.9v8.8C277.8 232.6 269.1 241.3 258.3 241.3z" class="c"/><path d="M296 299.5h-36.5c-5.3 0-9.6 4.3-9.6 9.6l0 0h55.7l0 0C305.7 303.8 301.4 299.5 296 299.5z" class="d"/><path d="M270.2 309.1h-20.3l0 0c0-5.3 4.3-9.6 9.6-9.6h10.6V309.1L270.2 309.1z" class="c"/><path d="M296.2 299.5c-0.3-1.4-0.6-2.8-0.9-4.2h-24.3c-0.1 1.4-0.1 2.8-0.2 4.2H296.2z" class="c"/><path d="M270.4 244.5h27.4c0.3-1 0.6-2.1 0.9-3.1h-28.6C270.3 242.4 270.4 243.4 270.4 244.5z" class="c"/><path d="M257.7 299.5h13.1c0.1-1.4 0.1-2.8 0.2-4.2h-12.4C258.3 296.7 258 298.1 257.7 299.5z" class="e"/><path d="M255 241.3c0.3 1 0.6 2.1 0.9 3.1h14.4c-0.1-1-0.1-2.1-0.2-3.1H255z" class="e"/><path d="M285.3 169.4c-0.2 0-0.3-0.1-0.5-0.1 -0.1 0-0.2 0-0.3 0 -0.1 0-0.2 0-0.3 0 -0.2 0-0.3 0-0.5 0.1 -9.4 0.6-16.9 8.4-16.9 18 0 0.1 0 0.1 0 0.2v25.3h4.2v-25.3c0-0.1 0-0.1 0-0.2 0-7.5 6-13.6 13.5-13.8 7.5 0.2 13.5 6.3 13.5 13.8 0 1.2 1 2.1 2.1 2.1 1.2 0 2.1-1 2.1-2.1C302.2 177.9 294.7 170 285.3 169.4z" class="g"/><path d="M284.3 213h-29.5l0 0c0-4.7 3.8-8.5 8.5-8.5h12.4C280.5 204.5 284.3 208.3 284.3 213L284.3 213z" class="g"/><path d="M588.7 213h15.9v-25.1c0-0.7-0.6-1.3-1.3-1.3h-13.2c-0.7 0-1.3 0.6-1.3 1.3V213z" class="h"/><path d="M591.9 186.5h9.4v-2.3c0-0.7-0.6-1.3-1.3-1.3h-6.7c-0.7 0-1.3 0.6-1.3 1.3L591.9 186.5 591.9 186.5z" class="d"/><rect x="594" y="177.5" width="5.2" height="5.2" class="d"/><path d="M590 174.9h7.9c0.7 0 1.4 0.6 1.4 1.3v1.3h-9.2c-0.7 0-1.3-0.6-1.3-1.3l0 0C588.7 175.5 589.3 174.9 590 174.9z" class="d"/><rect x="588.7" y="195.1" width="15.9" height="10.7" class="i"/><path d="M514.8 213h15.9v-25.1c0-0.7-0.6-1.3-1.3-1.3h-13.2c-0.7 0-1.3 0.6-1.3 1.3V213L514.8 213z" class="h"/><rect x="514.8" y="195.1" width="15.9" height="10.7" class="i"/><path d="M516.6 179.2h12.3c1 0 1.8 0.8 1.8 1.8v3.6c0 1.1-0.9 1.9-1.9 1.9h-12c-1.1 0-1.9-0.9-1.9-1.9v-3.6C514.8 180 515.6 179.2 516.6 179.2z" class="d"/><rect x="575.5" y="203.6" width="22.6" height="9.4" class="j"/><path d="M543.3 112.5c0.2 0 0.3-0.1 0.5-0.1 0.1 0 0.2 0 0.3 0 0.1 0 0.2 0 0.3 0 0.2 0 0.3 0 0.5 0.1 9.4 0.6 16.9 8.4 16.9 18 0 0.1 0 0.1 0 0.2v25.3h-4.2v-25.3c0-0.1 0-0.1 0-0.2 0-7.5-6-13.6-13.5-13.8 -7.5 0.2-13.5 6.3-13.5 13.8 0 1.2-1 2.1-2.1 2.1 -1.2 0-2.1-1-2.1-2.1C526.4 121 533.8 113.1 543.3 112.5z" class="g"/><path d="M544.3 212.8h29.5l0 0c0-4.7-3.8-8.5-8.5-8.5H552.8C548.1 204.3 544.3 208.1 544.3 212.8L544.3 212.8z" class="g"/><path d="M513 138.5h29.5l0 0c0-4.7-3.8-8.5-8.5-8.5h-12.4C516.8 130 513 133.8 513 138.5L513 138.5z" class="g"/><rect x="557.6" y="156" width="4.2" height="48.2" class="g"/><path d="M178.3 178.1h-13.8V156.2c0-0.6 0.5-1.2 1.2-1.2h11.5c0.6 0 1.2 0.5 1.2 1.2v21.9H178.3z" class="h"/><path d="M175.4 155h-8.2v-2c0-0.6 0.5-1.2 1.2-1.2h5.8c0.6 0 1.2 0.5 1.2 1.2V155z" class="d"/><rect x="169.1" y="147.2" width="4.6" height="4.6" class="d"/><path d="M177.1 144.9h-6.9c-0.6 0-1.2 0.5-1.2 1.2v1.2h8c0.6 0 1.2-0.5 1.2-1.2l0 0C178.3 145.4 177.8 144.9 177.1 144.9z" class="d"/><rect x="164.4" y="162.5" width="13.8" height="9.3" class="i"/><path d="M186 178.1h-10.6v-16.7c0-0.5 0.4-0.9 0.9-0.9h8.8c0.5 0 0.9 0.4 0.9 0.9L186 178.1 186 178.1z" class="j"/><path d="M183.8 160.5h-6.2v-1.6c0-0.5 0.4-0.9 0.9-0.9h4.4c0.5 0 0.9 0.4 0.9 0.9V160.5z" class="k"/><path d="M182.5 158.1h-3.5v-1.7c0-1 0.8-1.7 1.7-1.7l0 0c1 0 1.7 0.8 1.7 1.7L182.5 158.1 182.5 158.1z" class="k"/><rect x="175.4" y="166.2" width="10.6" height="7.1" class="k"/><rect x="161" y="178.1" width="57.5" height="4.1" class="e"/><rect x="161" y="133.8" width="57.5" height="4.1" class="e"/><rect x="208.4" y="143.8" width="2.9" height="7.5" class="d"/><rect x="211.3" y="143.8" width="1.3" height="17.5" class="k"/><rect x="203.1" y="145.6" width="2.9" height="7.5" class="d"/><rect x="206" y="145.6" width="1.3" height="17.5" class="h"/><rect x="200.8" y="161.2" width="12.9" height="16.7" fill="#7986CB"/><path d="M211.1 212.4h-42.6c-2.8 0-5.1 2.3-5.1 5.1v10c0 2.8 2.3 5.1 5.1 5.1h42.6c2.8 0 5.1-2.3 5.1-5.1v-10C216.2 214.7 213.9 212.4 211.1 212.4zM212.9 227.7c0 0.8-0.5 1.4-1.2 1.4h-43.8c-0.6 0-1.2-0.6-1.2-1.4v-10.5c0-0.8 0.5-1.4 1.2-1.4h43.8c0.6 0 1.2 0.6 1.2 1.4V227.7L212.9 227.7z" class="g"/><rect x="168.5" y="224.4" width="42.6" height="70.9" class="h"/><rect x="168.5" y="283.2" width="42.6" height="4.7" class="j"/></svg>