<svg version="1.1" id="Layer_1" xmlns="http://www.w3.org/2000/svg" xmlns:xlink="http://www.w3.org/1999/xlink" viewBox="0 0 768 430" enable-background="new 0 0 768 430" xml:space="preserve">
<radialGradient id="SVGID_1_" cx="507.293" cy="-244" r="173.6928" gradientTransform="matrix(0.8903 0 0 -0.8903 -64.168 -19.8042)" gradientUnits="userSpaceOnUse">
	<stop  offset="0" style="stop-color:#6A6A6A"/>
	<stop  offset="1" style="stop-color:#000000"/>
</radialGradient>
<path fill="url(#SVGID_1_)" d="M544.764,232.881c0,93.229-75.662,168.883-168.882,168.883S207,326.102,207,232.881
	C207,139.663,282.662,64,375.882,64S544.764,139.663,544.764,232.881z"/>
<radialGradient id="SVGID_2_" cx="508.2373" cy="-249.0483" r="189.6804" gradientTransform="matrix(0.8903 0 0 -0.8903 -64.168 -19.8042)" gradientUnits="userSpaceOnUse">
	<stop  offset="0" style="stop-color:#FFFFFF"/>
	<stop  offset="0.4702" style="stop-color:#FFFFFF"/>
	<stop  offset="1" style="stop-color:#D6D6D6"/>
</radialGradient>
<path fill="url(#SVGID_2_)" d="M375.875,64c-36.862,0-70.962,11.844-98.734,31.912c-12.092,14.624-20.563,29.262-20.563,29.262
	l-15.428,5.909c-21.428,28.314-34.139,63.587-34.139,101.811c0,3.57,0.109,7.105,0.328,10.621c3.838,6.857,6.706,11.23,6.706,11.23
	l-1.969,19.275c11.03,44.027,39.358,81.215,77.328,103.918c2.713,1.756,4.979,2.816,7.469,4.225
	c-1.321-1.246-1.728-1.58-2.592-2.371c-9.939-10.281-18.312-22.299-18.312-22.299L300,335.383c0,0,15.452,11.68,32.803,17.727
	s36.601,6.471,36.601,6.471l11.911,30.576c0,0-10.525,5.398-25.464,8.043c-2.675,0.473-5.502,0.857-8.324,1.172
	c9.22,1.562,18.686,2.391,28.348,2.391c39.049,0,75.024-13.268,103.634-35.545c8.952-11.994,14.819-22.299,14.819-22.299
	l13.036-5.111c23.135-28.68,37.094-65.068,37.376-104.691c-4.596-13.625-9.613-21.619-9.613-21.619s1.28-12.442-0.519-26.147
	c-0.282-2.151,1.163-1.385,2.901-2.553c-0.516-1.947-2.39-7.733-3.335-10.496c-3.722-10.876-7.383-16.066-9.787-20.877
	c4.685,2.617-0.019-0.014-0.023-0.023c-28.609-52.645-84.403-88.395-148.496-88.395L375.875,64z M396.297,70.425
	c14.034,0.192,28.677,4.736,28.677,4.736s16.637,6.393,28.513,15.428c11.875,9.035,18.991,20.705,18.991,20.705l-30.199,20.868
	c0,0-16.257-11.136-33.249-17.141c-16.991-6.004-34.725-6.87-34.725-6.87l-8.559-31.162c0,0,12.953-6.085,27.762-6.542
	c0.926-0.029,1.854-0.036,2.791-0.023L396.297,70.425z M297.608,153.853c10.369,0.048,18.992,1.29,18.992,1.29l15.616,66.358
	l-50.13,47.738c0,0-15.654-9.932-26.941-19.648c-11.287-9.719-18.218-19.229-18.218-19.229s2.038-19.248,6.636-35.804
	c4.598-16.556,11.771-30.411,11.771-30.411s12.395-7.133,27.715-9.379C287.835,154.065,292.895,153.831,297.608,153.853
	L297.608,153.853z M460.074,201.24c0,0,14.135,6.192,25.534,15.311s20.071,21.174,20.071,21.174s-0.81,16.506-6.261,33.67
	c-5.452,17.162-15.546,34.984-15.546,34.984s-14.09,5.17-28.957,6.564c-14.868,1.395-30.529-0.984-30.529-0.984l-7.762-32.475
	l-7.995-33.391c0,0,10.611-12.793,23.47-24.01C444.96,210.869,460.073,201.241,460.074,201.24L460.074,201.24z"/>
<linearGradient id="SVGID_3_" gradientUnits="userSpaceOnUse" x1="1.2705" y1="429.7266" x2="2.0369" y2="429.6039" gradientTransform="matrix(112.1587 0 0 -129.6095 276.25 55949.0625)">
	<stop  offset="0" style="stop-color:#000000"/>
	<stop  offset="1" style="stop-color:#000000;stop-opacity:0"/>
</linearGradient>
<path fill="none" stroke="url(#SVGID_3_)" stroke-width="4.1049" stroke-linejoin="round" d="M504.419,238.225
	c0,0-0.795,16.09-6.104,32.807c-5.312,16.719-15.138,34.068-15.138,34.068s-13.729,5.045-28.213,6.404
	c-14.482,1.357-29.722-0.969-29.722-0.969l-7.568-31.627l-7.782-32.514c0,0,10.334-12.479,22.861-23.404
	s27.248-20.296,27.248-20.296s13.766,6.042,24.87,14.923c11.104,8.883,19.549,20.605,19.549,20.605L504.419,238.225z"/>
<linearGradient id="SVGID_4_" gradientUnits="userSpaceOnUse" x1="2.2969" y1="429.5596" x2="1.5544" y2="429.7973" gradientTransform="matrix(110.2075 0 0 -133.4388 74.4375 57543.25)">
	<stop  offset="0" style="stop-color:#000000"/>
	<stop  offset="1" style="stop-color:#000000;stop-opacity:0"/>
</linearGradient>
<path fill="none" stroke="url(#SVGID_4_)" stroke-width="4.1078" stroke-linejoin="round" d="M282.145,267.771
	c0,0-15.259-9.684-26.262-19.154c-11.002-9.473-17.749-18.734-17.749-18.734s1.979-18.756,6.46-34.895
	c4.482-16.138,11.468-29.66,11.468-29.66s12.079-6.944,27.014-9.133s32.725,0.376,32.725,0.376l15.216,64.685l-48.872,46.518
	V267.771z"/>
<linearGradient id="SVGID_5_" gradientUnits="userSpaceOnUse" x1="1.6631" y1="428.5469" x2="1.7832" y2="429.2451" gradientTransform="matrix(116.9034 0 0 -65.9262 221.125 28347.4375)">
	<stop  offset="0" style="stop-color:#333333"/>
	<stop  offset="1" style="stop-color:#000000;stop-opacity:0"/>
</linearGradient>
<path fill="none" stroke="url(#SVGID_5_)" stroke-width="4.2273" d="M424.263,78.339c0,0,14.604,5.625,25.035,13.561
	c10.431,7.936,16.688,18.184,16.688,18.184l-26.529,18.331c0,0-14.279-9.794-29.205-15.068c-14.925-5.273-35.8-7.351-35.8-7.351
	l-6.993-27.644c0,0,14.553-5.079,27.56-5.48C408.026,72.47,424.263,78.339,424.263,78.339L424.263,78.339z"/>
<path fill="none" stroke="#666666" stroke-width="0.8428" d="M315.819,156.042c0,0,27.152-36.076,58.853-48.269"/>
<path fill="none" stroke="#ECECEC" stroke-width="2.5284" d="M443.951,131.244c0,0,20.247,32.208,17.62,68.974"/>
<path fill="none" stroke="#666666" stroke-width="0.8428" d="M442.143,131.626c0,0,20.69,33.296,18.064,70.062"/>
<path fill="none" stroke="#666666" stroke-width="0.8428" d="M470.227,111.098c0,0,44.856,17.708,64.553,73.794"/>
<path fill="none" stroke="#666666" stroke-width="0.8428" d="M505.957,237.631c0,0,15.79-1.227,29.584-24.57"/>
<path fill="none" stroke="#666666" stroke-width="0.8428" d="M494.68,343.75c0,0,2.191-13.604-10.896-38.232"/>
<path fill="none" stroke="#666666" stroke-width="0.8428" d="M369.587,359.963c0,0,24.272-6.432,55.045-48.877"/>
<path fill="none" stroke="#666666" stroke-width="0.8428" d="M281.912,268.643c0,0-1.459,37.801,17.376,67.512"/>
<path fill="none" stroke="#666666" stroke-width="0.8428" d="M275.955,357.689c0,0-5.575,0.07-26.67-12.648"/>
<path fill="none" stroke="#666666" stroke-width="0.8428" d="M237.275,230.316c0,0-15.118,6.35-23.261,23.943"/>
<path fill="none" stroke="#666666" stroke-width="0.8428" d="M256.311,125.354c0,0-5.426,20.943-0.711,38.539"/>
<path fill="none" stroke="#666666" stroke-width="0.8428" d="M274.484,98.604c0,0,45.06-38.187,90.954-21.21"/>
<path fill="none" stroke="#666666" stroke-width="0.8428" d="M381.202,390.193c0,0,39.306,10.092,99.935-25.686"/>
<path fill="none" stroke="#F2F2F2" stroke-width="2.5284" stroke-linecap="square" d="M315.961,153.341
	c0,0,22.578-31.094,55.78-46.007"/>
<path fill="none" stroke="#FFFFFF" stroke-width="2.5284" d="M370.202,361.27c0,0,23.126-4.461,53.898-46.906"/>
<path fill="none" stroke="#FFFFFF" stroke-width="2.5284" d="M280.389,269.482c0,0-1.459,37.812,17.376,67.523"/>
<path fill="none" stroke="#999999" stroke-width="0.8428" d="M332.581,221.627c0,0,19.763,4.643,76,24.539"/>
<path fill="none" stroke="#ECECEC" stroke-width="0.8428" d="M332.581,220.666c0,0,19.763,4.643,76,24.539"/>
</svg>
