<svg xmlns="http://www.w3.org/2000/svg" viewBox="0 0 768 430"><path d="M289.4 78.6c17.2-24.5 51.9-33.9 79.6-23.3 15.3 5.9 27.9 18.3 34.2 33.4 1.5 2.3 1.3 6.2 4 7.4 -2.9 0.4-3.7 3.7-5.2 5.8 -8.6 11.3-12.6 25.5-14.2 39.5 -2 19.3-1.9 39.9 5.9 58 -2.9 3.4-6.6 5.9-10.2 8.5 -1.1-2.2-7.1 0-5.8 2.4 -0.3 0-0.9-0.1-1.1-0.1 2.6-17.2 4.5-34.9 0.3-52 -5-23.2-23.9-42.4-47.2-47.4 -17.6-3.8-36.8-1.5-52.2 8C276.9 104.6 281.4 90.3 289.4 78.6L289.4 78.6z" style="fill:#EFD9C1;stroke-width:0.2;stroke:#EFD9C1"/><path d="M407.7 95.9c16.2-19.8 45-29.2 69.4-20.6 26.1 8.2 48 32.7 47.8 60.8 0.4 26.6-16.4 49.3-34.2 67.4 -17.6 16.5-40.3 32.4-65.6 28.8 1.6-3.2-3.2-2.9-5.2-3.8 -3.8 2.9 2.5 4.9 5 4.5 1.7 2.7 3 5.7 4.2 8.7 -1.9-0.5-5.6-4.9-6.6-1.1 -0.8-0.8-2.9-4.5-2.9-1.7 0-3.1-3.5-2.5-5.3-4.2 1.3-1.6 5.6-3.2 3.1-5.8 -11.5-6.3-19.1-17.7-23.4-29.8 -0.1-4.9-2.7-9.2-3.4-14C384.8 154.9 387.9 120.7 407.7 95.9L407.7 95.9z" style="fill:#D2E0BF;stroke-width:0.2;stroke:#D2E0BF"/><path d="M407.2 96.1l0.5-0.2c-19.9 24.8-23 58.9-16.9 89.2 0.7 4.8 3.3 9.1 3.4 14l-0.5 0.3c-7.8-18.1-7.9-38.7-5.9-58 1.6-14 5.7-28.2 14.2-39.5C403.5 99.8 404.3 96.6 407.2 96.1z" style="fill:#E1DCC0;stroke-width:0.2;stroke:#E1DCC0"/><path d="M277.6 118.7c15.4-9.5 34.6-11.8 52.2-8 23.2 5 42.2 24.2 47.2 47.4 4.1 17.1 2.3 34.9-0.3 52 -3.4 14.6-8.1 29.3-16.6 41.8 -5.4 7.8-12.2 15.1-21.3 18.5 1.5 3.6 7.2 4.1 10 6.8 -3.6-1-9.8-0.9-9.6 4.2l-0.4 0c-0.2-1.1 0.4-3.1-1.2-3.2 -0.3-0.1-0.9-0.2-1.2-0.3 -1.9 0.4-3.8 1.2-5.8 1.3 0.7-2 1.1-4.2 2.4-5.9 2.3-0.5 6.1-1 4-4.2 -1.8-0.9-6.3 0.6-4.2 3.6 -24.6 2.6-45.7-14.4-60.5-32.2 -12.3-15.9-23-34.3-25.2-54.7C243.5 160.1 255.3 132.4 277.6 118.7L277.6 118.7z" style="fill:#DD948B;stroke-width:0.2;stroke:#DD948B"/><path d="M377.8 210.3c-1.3-2.4 4.7-4.6 5.8-2.4 0.2 0.3 0.7 1 0.9 1.3 -1.9 1.2-3.9 1.9-5.9 2.7C378.3 211.4 378 210.8 377.8 210.3z" style="fill:#191310;stroke-width:0.2;stroke:#191310"/><path d="M384.4 209.2c2.9 0.4 5.8 1.4 8.2 3.2 -2.2 0.3-4.5 0.9-5.6 3.1 -0.8 0.3-2 0.1-2.2 1.2 -1.9-2.6-5 0.8-7.4 0.8 0.2-1.8 0.6-3.7 1.1-5.4C380.5 211.1 382.6 210.4 384.4 209.2L384.4 209.2z" style="fill:#EBD9C4;stroke-width:0.2;stroke:#EBD9C4"/><path d="M391.5 337.8c0.7 0.8 0.5 2 0 2.9 0 0.5 0 1.5-0.1 1.9 0.7 0.8 0.5 2 0 3 0 0.5-0.1 1.4-0.1 1.9 0.7 0.8 0.5 2 0 2.9 -0.1 2.3 0.1 4.5 0 6.8 0.7 0.8 0.4 2 0 2.9 -0.4 11.2 0.5 22.3 1.6 33.3 0.7 0.1 1.5 0.3 2.2 0.4 -0.1-1.3-0.2-2.6-0.3-3.9 -1.1-12.8-1-25.7-1.2-38.6 -0.6-0.9-0.5-2 0-2.9 0.2-4.4 0.3-8.7 0.3-13.1 -0.7-0.8-0.5-2 0-2.9 0.1-2.5 0.1-5 0.1-7.5 -0.7-0.8-0.5-2 0-2.9 0.3-20.9-0.6-41.9-4.7-62.2 -2-15.2-3.6-30.6-8.3-45 -0.9 0.3-2.1-0.1-2.5 1.1 6.6 18.1 6.6 38.4 10.5 57.4 2 12.9 2.3 26.2 2.5 39.3 0.6 0.9 0.4 2 0 3 0 0.3 0 0.9 0 1.2 0.7 0.8 0.5 2 0 3 -0.1 2.3 0.1 4.5 0 6.8 0.6 0.8 0.4 2 0 2.9C391.6 332.3 391.6 335.1 391.5 337.8z" style="fill:#131311;stroke-width:0.2;stroke:#131311"/><path d="M420.1 228.6c2 0.9 6.7 0.6 5.2 3.8l-0.1 0.7C422.6 233.5 416.3 231.5 420.1 228.6z" style="fill:#0E110B;stroke-width:0.2;stroke:#0E110B"/><path d="M420 237.1c1.1-3.2 1.6 1.7 2.1 3 -6 24.2-8.3 48.6-12 73 -3.2 23.9-8 47.7-13.3 71.3 -0.4 0.8-0.7 1.8-0.6 2.7 -0.1 1.5-0.7 3.1-1.2 4.6 -1.6 0.7-2.4 0.2-1.8-1.9 0.3-1.3 0.7-2.7 1.1-4 0.6-0.9 1.1-2 0.7-3 3.7-19.1 8.2-38.2 11-57.4C410.2 295.9 413.7 266.4 420 237.1z" style="fill:#161513;stroke-width:0.2;stroke:#161513"/><path d="M332.9 272.7c-2.1-3 2.3-4.4 4.2-3.6 2.1 3.1-1.7 3.7-4 4.2L332.9 272.7z" style="fill:#1D0D0B;stroke-width:0.2;stroke:#1D0D0B"/><path d="M336.5 277.9c0.3 0.1 0.9 0.2 1.2 0.3 -0.2 1.4-0.5 2.9-0.6 4.4C335 283 336.9 279.2 336.5 277.9L336.5 277.9z" style="fill:#7B6E6A;stroke-width:0.2;stroke:#7B6E6A"/><path d="M343.5 295.6c0.4 0.9 0.8 1.7 1.2 2.5 0.4 0.9 1.3 2.6 1.7 3.5 0.4 1.1 0.7 2.3 1.5 3.2 0.7 0.8 1.2 1.8 1.4 2.9 0.5 1.3 0.9 2.7 1.7 3.8 0.6 0.6 1 1.4 1.2 2.3 0.4 1.1 0.8 2.3 1.5 3.2 0.7 0.8 1.2 1.8 1.4 2.9 0.4 1.1 0.8 2.3 1.5 3.2 0.7 0.8 1.2 1.8 1.4 2.9 0.4 1.3 0.9 2.7 1.8 3.8 0.7 0.8 1.1 1.9 1.4 2.9 0.3 0.9 0.7 1.8 1.3 2.6 0.7 0.8 1.2 1.8 1.4 2.9 0.4 1.1 0.8 2.3 1.5 3.2 0.7 0.8 1.2 1.8 1.4 2.9 0.5 1.3 0.9 2.7 1.7 3.8 0.6 0.6 1 1.4 1.2 2.3 6.4 12.8 13.8 25 21.9 36.6 0.7-0.3 1.4-0.6 2.1-0.9 -8-11.6-15.3-23.7-21.9-36.3 -0.9-0.5-1.3-1.5-1.3-2.5 -0.4-0.8-0.7-1.6-1.1-2.3 -1.1-0.6-1.5-2-1.5-3.2 -0.5-1-0.9-2-1.4-3 -1.1-0.6-1.5-2-1.5-3.1 -0.5-1.2-1.1-2.4-1.6-3.6 -1.1-0.6-1.5-2-1.5-3.2 -0.4-0.8-0.8-1.6-1.2-2.3 -1.1-0.6-1.5-2-1.6-3.2 -0.5-1.2-1.1-2.4-1.6-3.6 -1-0.4-1.4-1.5-1.4-2.5 -0.4-1-0.9-2-1.3-3 -0.5-0.9-1.4-2.8-1.9-3.8 -0.5-1-0.9-2-1.4-3 -1.1-0.6-1.5-1.9-1.5-3.1 -0.5-1.2-1.1-2.4-1.6-3.6 -1.1-0.6-1.5-1.9-1.5-3.1 -0.5-1.1-1.4-3.2-1.8-4.2 -0.5-1-1.4-2.8-1.9-3.8 -0.5-1.2-1.1-2.4-1.6-3.6 -1-0.7-1.5-1.9-1.5-3.1 -0.7-1.2-0.9-3.5-2.5-3.1 0.4 1.6 0.8 3.3 1.2 5 0.7 1.9 1.4 3.6 2.4 5.4C342.1 292 342.7 293.8 343.5 295.6z" style="fill:#11110F;stroke-width:0.2;stroke:#11110F"/></svg>