<svg version="1.1" xmlns="http://www.w3.org/2000/svg" viewBox="0 0 768 430" xml:space="preserve"><style>.s0{fill:none;stroke-width:7.1;stroke:#DDE4D0;}.s1{fill:#DDE4D0;}</style><path d="M525.6 185.3c0 62-50.5 112.2-112.8 112.2S300 246.1 300 185.3c0-62 50.5-112.2 112.8-112.2S525.6 123.4 525.6 185.3z" class="s0"/><path d="M359.8 126.3l43.1-25.6 39.8 25.1 -18.4 46.9 -49.2-1.6L359.8 126.3zM449.5 210.2l41.5-0.6 4.4 37 -43.2 31.5 -28.8-25.4L449.5 210.2zM317 206.4l35.5 2.7 25.1 44.1 -19.1 22.4 -35.1-28.7L317 206.4z" fill="#DDE4D0"/><path d="M306.5 167.3l21.7-38.8 1.3-17.1c-3.9 0-28.6 39.9-28.4 57.3C304.4 175.2 306.5 167.3 306.5 167.3z" class="s0"/><path d="M481.4 99.6v27.1l25.8 42.9 16.5-1.5c0.8-19.4-20.1-54.2-26.3-57.3C491.9 107.6 481.4 99.6 481.4 99.6L481.4 99.6z" fill="#DDE4D0"/><path d="M326.1 127.8l36.5-0.8M390.2 75.1l16.3 5.1 25.1-5.1C431.5 75.1 396.4 70.4 390.2 75.1zM406.7 79.7l-3.1 22.5M304.1 169.1l15.1 40.1M352.4 211.8l24.9-43.6M440 127l43.5-1.1M422.4 169.5l28.3 43.9M508.5 168.2l-19.5 45.5M374.5 252.5l52.1-0.3M357.8 271.8l25.9 21.9M453.9 273.7l-22.4 22.2M492.3 245.8l12 2.9M323 247.9 320.3 247.7l5.2-1.7M483.5 102.6L462.4 85.1" class="s0"/><path d="M324.4 116.8c-8.7 1.2-25.2 43-23 47C304.4 168 330.5 130.6 324.4 116.8z" fill="#DDE4D0"/><path d="M394.9 73.4c0 0 28.1-3.1 29.1 0C411.8 79 406.7 84.1 394.9 73.4z" class="s0"/></svg>