<svg version="1.1" xmlns="http://www.w3.org/2000/svg" viewBox="0 0 768 430" xml:space="preserve"><style>.s0{fill:#DDE4D0;}</style><path d="M497.1 206.8c-64.6 0-128.7 0-193.5 0 0 9.4 0.1 18.5 0 27.6 -0.1 4.3 0.7 8.3 2.9 12 6.5 11 15.2 18.2 28.9 18.2 43.8-0.2 87.6-0.1 131.4 0 5.8 0 10.9-1.4 15.6-4.7 9.4-6.7 12.6-16.2 14.9-27.5 1.4-6.8-0.1-13.9-0.1-20.9C497.1 209.9 497.1 208.5 497.1 206.8z" fill="none"/><path d="M519.5 178c-2.7-0.9-2.9-2.4-2.9-4.8 0.1-22.7 0.1-45.3 0-68 0-4.9-0.5-9.8-1.3-14.6 -1.4-8.5-5.7-15.6-12.2-21.2 -11.9-10.1-31.2-11-44.9-3.6 -8.6 4.7-13.8 12.4-16.8 21.4 -0.8 2.3-1.1 4.5-3.5 5.5 -9.3 3.9-14.7 11.1-17.1 20.7 -1.2 4.8 11.4 5.8 16.4 5.8 15.8 0 8.4 0 24.2 0 5.2 0 17.1-0.8 16-5.9 -0.1-0.5-0.3-1-0.4-1.5 -2.4-7.8-6.9-14-14.2-18 -2.1-1.1-2.4-2.4-1.3-4.4 2.2-3.8 4.9-6.7 9.4-7.9 6.1-1.7 12.2-1.9 17.6 1.2 6 3.3 8.8 9.2 8.8 16 0.2 25.2 0.1 50.5 0.1 75.7 0 0.9-0.2 1.8-0.3 2.9 -9.6 0-19 0-28.3 0 -61.1 0-122.2 0-183.3 0 -6.9 0-10.9 4.1-10.9 11 0 2.1 0.1 4.3 0 6.4 -0.3 5.6 2.1 9.5 7.4 11.3 2.1 0.7 2.5 1.8 2.5 3.8 -0.1 8.5 0 17 0 25.4 0 12.4 5.1 22.6 13.1 31.5 6.7 7.5 15 12.6 24.5 15.8 0.2 6-3.5 10.5-8.9 10.9 -4.5 0.4-9.7 4.6-9.2 10.3 0.5 5.2 9.9 6.2 15.4 6.1 8.8-0.1 10.6-0.6 15.4-7.8 3.6-5.4 5.7-11.7 8.9-18.4 2.9 0 7 0 11 0 33.7 0 67.4 0 101.1 0 2.4 0 3.6 0.4 4 3.1 0.5 2.9 1.7 5.7 2.8 8.5 4.4 10.7 11.8 13.7 22.1 13.5 5.3-0.1 12.3 0.2 12.8-4.7 0.7-6.2-4.8-10.3-9.1-10.7 -5.6-0.5-9.5-5.2-8.8-10.8 2.6-1.1 5.2-2 7.6-3.3 18.8-10.1 30-25 29.8-47.2 -0.1-7.3 0.1-14.6-0.1-21.9 0-2.3 0.5-3.6 2.9-4.5 4.8-1.7 7.2-5.3 7-10.5 -0.1-2.1-0.1-4.3 0-6.4C526.7 183.7 524.6 179.7 519.5 178zM497.1 232.3c-2.3 11.3-5.5 20.8-14.9 27.5 -4.6 3.3-9.8 4.7-15.6 4.7 -43.8-0.1-87.6-0.2-131.4 0 -13.7 0.1-22.4-7.2-28.9-18.2 -2.2-3.7-2.9-7.7-2.8-12 0.2-9.1 0-18.2 0-27.6 64.7 0 128.9 0 193.5 0 0 1.7 0 3.1 0 4.6C497.1 218.4 498.5 225.5 497.1 232.3z" fill="#DDE4D0"/><circle cx="319" cy="124.6" r="12.6" fill="#DDE4D0"/><circle cx="337.4" cy="144.1" r="4.7" fill="#DDE4D0"/><circle cx="324.2" cy="158.3" r="5.3" fill="#DDE4D0"/></svg>