<svg version="1.1" id="Layer_1" xmlns="http://www.w3.org/2000/svg" xmlns:xlink="http://www.w3.org/1999/xlink" x="0px" y="0px"
	 viewBox="0 0 768 430" enable-background="new 0 0 768 430" xml:space="preserve">
<path d="M436.175,76.298h-23.934c0.036-0.336,0.102-0.66,0.102-1.007V60.988c0-4.989-4.044-9.034-9.034-9.034h-40.647
	c-4.99,0-9.036,4.045-9.036,9.034v14.303c0,0.347,0.065,0.671,0.101,1.007h-23.943c-15.803,0.005-28.595,12.8-28.61,28.602v248.919
	c0.015,15.806,12.807,28.599,28.61,28.606h106.392c15.806-0.008,28.599-12.801,28.612-28.606V104.9
	C464.773,89.098,451.973,76.304,436.175,76.298z M443.7,353.819c-0.005,4.147-3.37,7.519-7.525,7.526H329.783
	c-4.151-0.008-7.519-3.379-7.526-7.526V104.9c0.007-4.153,3.375-7.516,7.526-7.523h106.392c4.155,0.007,7.521,3.37,7.525,7.523
	V353.819z"/>
<path fill="#80C41C" d="M334.802,265.663h96.356v-71.599h-96.356V265.663z M334.802,348.808h96.356v-71.1h-96.356V348.808z"/>
</svg>
