<svg xmlns="http://www.w3.org/2000/svg" viewBox="0 0 768 430"><style>.a{fill:#772D12;}.b{fill:#9A4C28;}.c{fill:#E5B488;}.d{fill:#FED09E;}.e{fill:#B55A37;}.f{fill:#BFBFBF;}.g{fill:#FFF;}.h{fill:#C67560;}</style><path d="M421.2 93.6c0 0-1.1-28.9 33.5-27.8 11.1 0.3 31 11.3 32.7 34.3 -5.9-6.2-9.4-6.7-9.4-6.7 3.8 9.2 7.3 16.5 5.4 24.3 -3-5.9-6.2-9.2-7-10 1.1 8.6 1.6 15.1-1.3 20.5 -1.6-5.1-3.8-9.4-4.6-11.1 -0.5 8.4-2.4 14.6-3.5 15.9 0-4.3-1.6-7.6-2.4-10 -1.9 5.1-9.2 10-19.7 3.8C439.6 116.6 421.2 93.6 421.2 93.6z" class="a"/><path d="M454.7 65.8c9.6 0.2 26 8.7 31.2 26 -6.2-3.4-14.1-6.6-13.9-0.4 0.5 7 2.7 14.3 0 17.8 -1.2-5.3-0.3-7.2-2.4-9.9 -0.4 7.4 0 17.7-1.9 19 -1.9-4.3-2.2-4.9-2.4-6.5 -3 4.9-13.1 10.5-28.2 2.7 -7.1-10.1-15.8-21-15.8-21S420.2 64.7 454.7 65.8z" class="b"/><path d="M431 102c0 0-1.6-17.8 15.9-19.2 12.4-0.5 17.8 5.4 18.4 15.9 0 10.5-9.4 23-25.4 12.4C436.6 106.6 431 102 431 102z" class="c"/><path d="M430.9 99.2c0 0-1.4-15.2 13.6-16.4 10.6-0.5 15.2 4.6 15.7 13.6 0 9-8.1 19.7-21.7 10.6C435.8 103.1 430.9 99.2 430.9 99.2z" class="d"/><path d="M481.4 86.9c0 0-17.8-31.3-48.6-13 -7.8 5.4-9.5 11.6 2.4 5.9C447.1 74.2 459.8 66.3 481.4 86.9z" class="e"/><path d="M342.5 93.6c0 0 1.1-28.9-33.5-27.8 -11.1 0.3-31 11.3-32.7 34.3 5.9-6.2 9.4-6.7 9.4-6.7 -3.8 9.2-7.3 16.5-5.4 24.3 3-5.9 6.2-9.2 7-10 -1.1 8.6-1.6 15.1 1.3 20.5 1.6-5.1 3.8-9.4 4.6-11.1 0.5 8.4 2.4 14.6 3.5 15.9 0-4.3 1.6-7.6 2.4-10 1.9 5.1 9.2 10 19.7 3.8C324.1 116.6 342.5 93.6 342.5 93.6z" class="a"/><path d="M309 65.8c-9.6 0.2-26 8.7-31.2 26 6.2-3.4 14.1-6.6 13.9-0.4 -0.5 7-2.7 14.3 0 17.8 1.2-5.3 0.3-7.2 2.4-9.9 0.4 7.4 0 17.7 1.9 19 1.9-4.3 2.2-4.9 2.4-6.5 3 4.9 13.1 10.5 28.2 2.7 7.1-10.1 15.8-21 15.8-21S343.5 64.7 309 65.8z" class="b"/><path d="M332.7 102c0 0 1.6-17.8-15.9-19.2 -12.4-0.5-17.8 5.4-18.4 15.9 0 10.5 9.4 23 25.4 12.4C327.1 106.6 332.7 102 332.7 102z" class="c"/><path d="M332.7 99.2c0 0 1.4-15.2-13.6-16.4 -10.6-0.5-15.2 4.6-15.7 13.6 0 9 8.1 19.7 21.7 10.6C327.9 103.1 332.7 99.2 332.7 99.2z" class="d"/><path d="M550.5 321.4c-2.7-20.8-17.3-7.6-20.8-1.6 -7.3-1.3-12.7 14.3-12.7 14.3 -15.7-32.7-44.3-25.1-48.6-21.9 3.9-91.3-78.5-94.4-86.3-94.5h-0.6c-7.8 0.1-90.2 3.2-86.3 94.5 -4.3-3.2-32.9-10.8-48.6 21.9 0 0-5.4-15.7-12.7-14.3 -3.5-5.9-18.1-19.2-20.8 1.6 -4.3 9.2-4.9 31 13.2 50.2 9.4 9.7 24.8 15.4 32.4-3.5 0.5-5.1 18.4-14.8 63.2-3 9.6 5.1 53 7 59.9 6.2 6.9 0.7 50.3-1.2 59.9-6.2 44.8-11.9 62.6-2.2 63.2 3 7.6 18.9 22.9 13.2 32.4 3.5C555.4 352.5 554.9 330.6 550.5 321.4z" class="a"/><path d="M549.4 325.4c-0.2-1.2-1.9 4.5-5.7 8.1 5.2-10.8 4.9-12.3 4.8-12.7 -3.6-14.4-12.7-4.7-15.9 0.7 -0.8-0.1 4.2 1.9 3.6 13.1 -2.6-12.9-6.7-12.9-7.1-12.7 -3.6 1.4-5.8 4.3-8.4 10.4 -0.9 2.3-7.5 18.6-8 19.3 -0.7 1 4.3-17.5 4.3-17.5 -15.7-32.7-44.3-25.1-48.6-21.9 3.9-91.3-78.5-94.4-86.3-94.5h-0.6c-7.8 0.1-90.2 3.2-86.3 94.5 -4.3-3.2-32.9-10.8-48.6 21.9 0 0 3.1 9.1 4.3 17.5 -3-9.5-4.6-14.7-6.3-19.3 -1.3-3.5-5.3-10.1-8.8-9.9 -2.3 0.2-4.3 1.1-8.4 12.1 0-10.3 4.6-13 4.1-12.9 -3.5-5.9-14.8-17.7-17.5 3.1 0.2 1.1 2.1 5.7 5.9 9.7 -3.8 0-7-7-7.1-6.6 -3 9.4-1.6 23.6 14.6 40.7 9.4 9.7 22.2 16.6 29.8-2.2 2.7-5.4 12.6-24 57.4-12.1 9.6 5.1 60.3 10.4 67.2 9.7 6.9 0.7 51.1-2.5 60.7-7.6 44.8-11.9 61.4 1.1 64.1 8.5 7.6 18.9 18.4 14.8 27.9 5C552.7 350.9 553.7 334.6 549.4 325.4z" class="b"/><path d="M247.4 334.7c0 0 12.6-28.3 40.2-21.3 -13.8 1.1-23.8 3.1-36.7 34.3C249.9 340.9 247.4 334.7 247.4 334.7z" class="e"/><path d="M515.2 333.9c0 0-12.6-28.3-40.2-21.3 13.8 1.1 23.8 3.1 36.7 34.3C512.8 340.1 515.2 333.9 515.2 333.9z" class="e"/><path d="M337.4 357.5c0 0 17.8-6-1-26.8 -13.9-18.3-22.1-31.6 0-59.4 17-24.1 31.3-32.4 46.3-31.3 15 1.1 45.2 20 55.3 48.2 2.8 17.6 3.9 33.9-10.7 45.9 -11.9 9.7-12.4 22.8-0.7 24.3 17.2-5.8 37.3-47.2 25.8-77.1 -11.5-29.9-14.2-73.8-69.7-75.4 -55.5-1.6-77.5 42.4-77.1 89.3C305.8 342.3 317.4 350.1 337.4 357.5z" fill="#964526"/><path d="M425.5 216.2c0 0 30 1.6 45.9 29.4 -4.9-0.5-8.1-0.3-9.4 0 6.2 3.5 14 13.5 18.1 19.7 -4.9-1.6-8.4-3-10.5-2.7 4.6 3.8 14.8 16.7 15.7 26.2 -4.3-2.4-5.7-4.3-7-4.6 2.4 10 5.7 41.3-8.1 68 2.4 12.7-3.8 35-24.8 29 -5.9 0.5-11.1-1.4-11.3-4.9 -4.3 0.3-12.7 0.3-10.8-17.3 0-7.3-0.8-14.8 11.9-23.8 5.4-5.7 20.2-30 4.6-57.5C430.9 265.9 394.7 214.9 425.5 216.2z" class="a"/><path d="M425.5 216.2c0 0 30 1.6 45.9 29.4 -4.9-0.5-8.1-0.3-9.4 0 6.2 3.5 14 13.5 18.1 19.7 -4.9-1.6-8.4-3-10.5-2.7 4.6 3.8 14.8 16.7 15.7 26.2 -4.3-2.4-5.7-4.3-7-4.6 2.4 10 5.7 41.3-8.1 68 2.3 12.1-4.7 29.5-19.7 27.3 6.2-4.4 5.7-9.4 5.4-9.5 -1.3 5.2-7.3 9.1-7.8 9 -5.9 0.5-9.7-1.4-10-4.9 -0.2 0 7.8-6.2 6.2-8.9 -3.1 5.4-8.1 8.9-8.7 8.7 -4.5-0.9-10.2-5.2-8.6-19.8 0-0.5 1.1-3.1 10-5.2 -4.2-1.3-10 3-10 2.6 0.2-6 1.8-10.7 13-18.5 1.7-0.7 6.3-2.3 12.2-5.3 -5.7 1.8-11 4-10.8 3.7 6.2-7.6 18.2-29.1-3.3-59C429.2 260.5 394.7 214.9 425.5 216.2z" class="e"/><path d="M425.5 216.2c0 0 28.1 7.7 42.5 27.5 -4.9-0.5-9.7 0.5-11.1 0.8 6.2 3.5 15.3 12.1 19.4 18.3 -4.9-1.6-9.1-1.6-11.3-1.3 4.6 3.8 17.5 15.4 18.4 24.8 -4.3-2.4-3.9-1.8-5.3-2.1 2.4 10 5.7 41.3-8.1 68 2.3 12.1-4.7 29.5-19.7 27.3 6.2-4.4 5.7-9.4 5.4-9.5 -1.3 5.2-7.3 9.1-7.8 9 -5.9 0.5-9.7-1.4-10-4.9 -0.2 0 7.8-6.2 6.2-8.9 -3.1 5.4-8.1 8.9-8.7 8.7 -4.5-0.9-10.2-5.2-8.6-19.8 0-0.5 1.1-3.1 10-5.2 -4.2-1.3-10 3-10 2.6 0.2-6 1.8-10.7 13-18.5 1.7-0.7 6.3-2.3 12.2-5.3 -5.7 1.8-11 4-10.8 3.7 6.2-7.6 18.2-29.1-3.3-59C429.2 260.5 394.7 214.9 425.5 216.2z" class="b"/><path d="M338.4 215.6c0 0-30 1.6-45.9 29.4 4.9-0.5 8.1-0.3 9.4 0 -6.2 3.5-14 13.5-18.1 19.7 4.9-1.6 8.4-3 10.5-2.7 -4.6 3.8-14.8 16.7-15.7 26.2 4.3-2.4 5.7-4.3 7-4.6 -2.4 10-5.7 41.3 8.1 68 -2.4 12.7 3.8 35 24.8 29 5.9 0.5 11.1-1.4 11.3-4.9 4.3 0.3 12.7 0.3 10.8-17.3 0-7.3 0.8-14.8-11.9-23.8 -5.4-5.7-20.2-30-4.6-57.5C333 265.3 369.2 214.3 338.4 215.6z" class="a"/><path d="M338.4 215.6c0 0-30 1.6-45.9 29.4 4.9-0.5 8.1-0.3 9.4 0 -6.2 3.5-14 13.5-18.1 19.7 4.9-1.6 8.4-3 10.5-2.7 -4.6 3.8-14.8 16.7-15.7 26.2 4.3-2.4 5.7-4.3 7-4.6 -2.4 10-5.7 41.3 8.1 68 -2.3 12.1 4.7 29.5 19.7 27.3 -6.2-4.4-5.7-9.4-5.4-9.5 1.3 5.2 7.3 9.1 7.8 9 5.9 0.5 9.7-1.4 10-4.9 0.2 0-7.7-6.2-6.2-8.9 3.1 5.4 8.1 8.9 8.7 8.7 4.5-0.9 10.2-5.2 8.6-19.8 0-0.5-1.1-3-10-5.2 4.2-1.3 10 3 10 2.6 -0.2-6-1.8-10.7-13-18.6 -1.7-0.7-6.3-2.3-12.2-5.3 5.7 1.8 11 4 10.8 3.7 -6.2-7.6-18.1-29.1 3.3-59C334.7 259.9 369.2 214.3 338.4 215.6z" class="e"/><path d="M338.4 215.6c0 0-27.8 4.8-42.4 27 4.9-0.5 9.7 0.3 11.1 0.5 -6.2 3.5-15.7 12.4-19.7 18.6 4.9-1.6 9.2-3 11.3-2.7 -4.6 3.8-16.7 18.2-17.5 27.6 4.3-2.4 3.2-2.8 4.5-3 -2.4 10-5.7 41.3 8.1 68 -2.3 12.1 4.7 29.5 19.7 27.3 -6.2-4.4-5.7-9.4-5.4-9.5 1.3 5.2 7.3 9.1 7.8 9 5.9 0.5 9.7-1.4 10-4.9 0.2 0-7.7-6.2-6.2-8.9 3.1 5.4 8.1 8.9 8.7 8.7 4.5-0.9 10.2-5.2 8.6-19.8 0-0.5-1.1-3-10-5.2 4.2-1.3 10 3 10 2.6 -0.2-6-1.8-10.7-13-18.6 -1.7-0.7-6.3-2.3-12.2-5.3 5.7 1.8 11 4 10.8 3.7 -6.2-7.6-18.1-29.1 3.3-59C334.7 259.9 369.2 214.3 338.4 215.6z" class="b"/><path d="M476.3 182.4c-7.3-14.3-4.3-22.3-6.1-29.1 -3.9-14.1-17.9-20.3-22.5-31.9C430.4 75.6 385.9 75.4 381.8 75.5c-4-0.1-48.6 0.1-65.8 45.9 -4.6 11.6-18.6 17.8-22.5 31.9 -1.9 6.8 1.2 14.8-6.1 29.1 3.5-0.3 6.7-2.4 7.3-3.2 -0.5 7.6-1.3 15.1 0 20 2.2-4.6 3.8-7 4.3-8.1 1.9 7.8 5.9 14.3 11.1 16.5 -1.1-1.9-0.3-5.7 0-7.6 3.5 8.1 13.8 24.6 44 27.3 16.8-0.3 21.2 4.7 27.8 3.8 6.6 0.9 11-4.1 27.8-3.8 30.2-2.7 40.5-19.2 44-27.3 0.3 1.9 1.1 5.7 0 7.6 5.1-2.2 9.2-8.6 11.1-16.5 0.5 1.1 2.2 3.5 4.3 8.1 1.4-4.9 0.5-12.4 0-20C469.6 180 472.8 182.1 476.3 182.4z" class="a"/><path d="M476.3 182.4c-7.3-14.3-4.3-22.3-6.1-29.1 -3.9-14.1-17.9-20.3-22.5-31.9C430.4 75.6 385.9 75.4 381.8 75.5c-4-0.1-48.6 0.1-65.8 45.9 -4.6 11.6-18.6 17.8-22.5 31.9 -1.9 6.8 1.2 14.8-6.1 29.1 3.5-0.3 8.9-7.6 9.4-8.4 -0.5 7.6-1.7 12.4-0.4 17.3 2.2-4.6 2-6.5 2.5-7.6 1.9 7.8 3.1 14 8.3 16.2 -1.1-1.9 1.8-7.5 2.1-9.4 3.5 8.1 13.6 29.2 43.9 31.9 16.8-0.3 22 6.1 28.6 5.2 6.6 0.9 11.8-3.5 28.6-3.2 30.2-2.7 40.4-23.6 43.9-31.7 0.3 1.9 2.5 7.1 1.4 9 5.1-2.2 5.9-10.2 7.8-18 0.5 1.1 0.8 4 2.9 8.6 1.3-4.9 0.9-10.8 0.3-18.4C467.3 174.9 472.8 182.1 476.3 182.4z" class="e"/><path d="M476.3 182.4c-7.3-14.3-4.3-22.3-6.1-29.1 -3.9-14.1-17.7-20.4-22.5-31.9 -16.8-40.8-62.1-41.7-66.1-41.6 -4-0.1-48.8-0.1-65.6 41.6 -4.7 11.6-18.6 17.8-22.5 31.9 -1.9 6.8 1.2 14.8-6.1 29.1 3.5-0.3 8.9-7.6 9.4-8.4 -0.5 7.6-1.7 12.4-0.4 17.3 2.2-4.6 2-6.5 2.5-7.6 1.9 7.8 3.1 14 8.3 16.2 -1.1-1.9 1.8-7.5 2.1-9.4 3.5 8.1 13.6 29.2 43.9 31.9 16.8-0.3 22 6.1 28.6 5.2 6.6 0.9 11.8-3.5 28.6-3.2 30.2-2.7 40.4-23.6 43.9-31.7 0.3 1.9 2.5 7.1 1.4 9 5.1-2.2 5.9-10.2 7.8-18 0.5 1.1 0.8 4 2.9 8.6 1.3-4.9 0.9-10.8 0.3-18.4C467.3 174.9 472.8 182.1 476.3 182.4z" class="b"/><path d="M396.4 139.9c1.7 13.4 9.6 23.5 17.6 22.5 8-1 13.1-12.7 11.4-26.2 -1.7-13.4-9.6-23.5-17.6-22.5C399.8 114.8 394.7 126.5 396.4 139.9z" class="a"/><path d="M397.5 137.4c1.5 12.1 8.6 21.2 15.9 20.3 7.2-0.9 11.8-11.5 10.3-23.6 -1.5-12.1-8.6-21.2-15.9-20.3C400.6 114.7 396 125.3 397.5 137.4z"/><path d="M397.9 136.5c1.5 11.7 8.3 20.4 15.3 19.5 6.9-0.9 11.4-11 9.9-22.7 -1.5-11.7-8.3-20.4-15.3-19.5C400.9 114.7 396.4 124.8 397.9 136.5z" class="f"/><path d="M399.9 131.9c1.2 9.3 6.6 16.2 12.2 15.5 5.5-0.7 9.1-8.8 7.9-18.1 -1.2-9.3-6.6-16.2-12.2-15.5C402.3 114.5 398.7 122.6 399.9 131.9z" class="g"/><path d="M403.8 137.9c0 3.6 2.8 6.6 6.2 6.6 3.4 0 6.2-3 6.2-6.6 0-3.7-2.8-6.6-6.2-6.6C406.6 131.3 403.8 134.2 403.8 137.9z"/><path d="M410.3 132.5c0 2.1 1.7 3.8 3.8 3.8 2.1 0 3.8-1.7 3.8-3.8 0-2.1-1.7-3.8-3.8-3.8C412 128.7 410.3 130.4 410.3 132.5z" class="g"/><path d="M366.9 139.9c-1.7 13.4-9.6 23.5-17.6 22.5 -8-1-13.1-12.7-11.4-26.2 1.7-13.4 9.6-23.5 17.6-22.5C363.5 114.8 368.6 126.5 366.9 139.9z" class="a"/><path d="M418.5 109.3c0 0-4.1-17-15.9-7.8C407.5 102.5 413.4 103.1 418.5 109.3z"/><path d="M532.1 351.1c-2.5 4.3-2.6 8.8-0.3 10.1 2.3 1.3 6.2-1 8.6-5.3 2.5-4.3 2.6-8.8 0.3-10.1C538.4 344.5 534.5 346.9 532.1 351.1z" class="h"/><path d="M533.3 350.1c-2.1 3.6-2.2 7.4-0.2 8.5 1.9 1.1 5.2-0.9 7.3-4.5 2.1-3.6 2.2-7.4 0.2-8.6C538.7 344.4 535.4 346.5 533.3 350.1z" fill="#E69A79"/><path d="M423.7 188.6c-1.4-33.9-38.3-32.6-41.8-32.4 -3.5-0.2-40.4-1.5-41.8 32.4 0 15 18.6 31.3 41.5 31.8h0.6C405.1 219.9 423.7 203.6 423.7 188.6z" class="c"/><path d="M420.5 186.2c-1.3-31.3-35.4-30.1-38.7-30 -3.2-0.2-37.3-1.4-38.6 30 0 13.9 17.2 28.9 38.4 29.4h0.5C403.3 215.1 420.5 200 420.5 186.2z" class="d"/><path d="M365.8 137.4c-1.5 12.1-8.6 21.2-15.9 20.3 -7.2-0.9-11.8-11.5-10.3-23.6 1.5-12.1 8.6-21.2 15.9-20.3C362.7 114.7 367.3 125.3 365.8 137.4z"/><path d="M365.4 136.5c-1.5 11.7-8.3 20.4-15.3 19.5 -6.9-0.9-11.4-11-9.9-22.7 1.5-11.7 8.3-20.4 15.3-19.5C362.4 114.7 366.9 124.8 365.4 136.5z" class="f"/><path d="M363.4 131.9c-1.2 9.3-6.6 16.2-12.2 15.5 -5.5-0.7-9.1-8.8-7.9-18.1 1.2-9.3 6.6-16.2 12.2-15.5C361 114.5 364.6 122.6 363.4 131.9z" class="g"/><path d="M359.5 137.9c0 3.6-2.8 6.6-6.2 6.6 -3.4 0-6.2-3-6.2-6.6 0-3.7 2.8-6.6 6.2-6.6C356.7 131.3 359.5 134.2 359.5 137.9z"/><path d="M345.2 109.3c0 0 4.1-17 15.9-7.8C356.2 102.5 350.3 103.1 345.2 109.3z"/><path d="M231.6 351.1c2.5 4.3 2.6 8.8 0.3 10.1 -2.3 1.3-6.2-1-8.6-5.3 -2.5-4.3-2.6-8.8-0.3-10.1C225.3 344.5 229.2 346.9 231.6 351.1z" class="h"/><path d="M230.9 349.8c2 3.5 2.1 7.3 0.2 8.4 -1.9 1.1-5.1-0.9-7.2-4.4 -2-3.5-2.1-7.3-0.2-8.4C225.6 344.3 228.8 346.3 230.9 349.8z" fill="#D88A6F"/><path d="M396.7 202.2c-3.8 5.2-8 8.2-12.3 8.9v-33.1h-3.2v33.1c-8-0.8-14.2-8.9-14.2-9 0 0 5.3 12.3 15.6 12.3h0.1C392.9 214 396.7 202.2 396.7 202.2z" fill="#DDAC85"/><path d="M399.6 176.3c0 6.6-7.5 12-16.8 12 -9.3 0-16.8-5.4-16.8-12 0-6.6 7.5-12 16.8-12C392.1 164.3 399.6 169.7 399.6 176.3z" fill="#CC2727"/><path d="M396.7 174.2c0 5.5-6.2 9.9-13.9 9.9 -7.7 0-13.9-4.4-13.9-9.9 0-5.5 6.2-9.9 13.9-9.9C390.5 164.3 396.7 168.8 396.7 174.2z" fill="#D82C28"/><path d="M422.7 304.2c0 30.5-18 55.3-40.1 55.3 -22.2 0-40.1-24.8-40.1-55.3 0-30.5 18-55.3 40.1-55.3C404.8 248.9 422.7 273.7 422.7 304.2z" class="c"/><path d="M419 299.1c0 27.7-16.3 50.2-36.4 50.2 -20.1 0-36.4-22.5-36.4-50.1 0-27.7 16.3-50.1 36.4-50.1C402.7 248.9 419 271.4 419 299.1z" class="d"/><path d="M392.3 170.4c0 1.7-4.3 3.1-9.5 3.1 -5.3 0-9.5-1.4-9.5-3.1 0-1.7 4.3-3.1 9.5-3.1C388.1 167.3 392.3 168.7 392.3 170.4z" fill="#EF4B4B"/><circle cx="349.2" cy="132.5" r="3.8" class="g"/><path d="M282.3 86.9c0 0 17.8-31.3 48.6-13 7.8 5.4 9.4 11.6-2.4 5.9C316.5 74.2 303.9 66.3 282.3 86.9z" class="e"/></svg>