<svg version="1.1" xmlns="http://www.w3.org/2000/svg" viewBox="0 0 768 430" xml:space="preserve"><path d="M369.2 240.9c1.6-1.6 4.8-5.5 5.2-7.9 0.1 0 0.4-0.6 0.8-0.2 0.5-1.7 2.4-2.3 3.1-3.8 -0.7-0.4 3.9 3.7 3.9 3.9 -0.2 0.5-0.1 0.9 0.2 1.3 0.2 0 0.5 0.1 0.7 0.1 0 0.3 0 1.2 0.2 1.7 1 1 5.6 5.2 6.8 5.4h0.7c2.4 2.9 9.7 12.6 13.4 12.9 0 0-0.6 0.1-0.1 0.4 -0.1-0.1 5.6 4.5 4.9 4.5 0.3 1.2 0.2 2.3-0.5 3.4 -9.2-0.3-17.3 3.9-21.8 12.3 0.3 0.4 3.8-2.6 3.8-1.5 -8.3 8.5 5.5-0.3-2.4 4.7 -0.1 0.3 0 0.4 0.4 0.4 0.8-0.2 1.6-0.5 2.4-0.7 -1 0 29.4-3.5 30.7-1.7 0.4 0.1 0.8 0.4 1.2 0.3 5.7-4 5.7-9.1 10.1-12.9 0.3-0.1 0.6-0.3 0.8-0.4 0.2-2.2 3.7-5.6 3.7-7.1 -0.8-2.6-7.5-34.1-10-34.1 1.2 0 10.8 0.5 12 1.2 0.4 0 1.3 0.2 2.5-0.2l0 0.3c0.1-0.7 2.6 0 3.1 0.2 0.3 0.2 0.6 0.4 0.9 0.7 2.8-0.3 3.4 1 5 1 0.4-0.3 0.9-0.9 1.5-0.9 2.6 2.4 1.3-1.1 3.1-0.5 0.2 0.1 0.5 0.2 0.7 0.4 -0.1 0.3-0.4 1.1-0.2 1.6 0.2 0.2 1.8-2.1 1.6-1.9 -2.3 0 4.2 0.2 3.4 0 2.8 0.6 0.5 3.6 0.5 5.9 -0.2 0.1-0.4 0.4-0.7 0.5 0 0.1 0.1 0.1 0.2 0.1 0 2.8 0.4 2.9 0.2 6.3 0.3-0.6 0 2.4 0 2.4 -2.1 2.6 1.6 17.3 1.6 21 0.2 1.2 0.9 2.4 0.4 3.6 0.9 2.3-34 15.9-29.4 14 1.2 0-1.4 3.6-1.3 3.9 1-1.2 2.4-1.9 4.1-2 -2.4 4.7-0.2 2.2 1.2 0 0.3 0.3 0.8 0.4 0.9 1 -0.2 0.9-0.6 1.3-1.1 2.1 0.3 0.5 6.1-3.9 3.8 0.8 0 0.3 2-0.6 2.1-1.2 1.9 0.8 4.9 1.1 6.7 2.2 0 0 0.1 0.1 0.2 0.3 3.7 0.8 6.7-1.1 10.5 0.2 0-0.2 0.1-0.4 0-0.6 1.9 0 26.6-1.6 26.6-2.7 -1.1-0.3-1.4-0.4-0.5-1.8 2-4.5 5.3-8.6 9.2-11.1 0.2-2 1.7-2.2 2.5-3.3 0.2 0 3.8-7.4 5.7-7.4 0.4 0.4 0.8 0.9 1.2 0.7 0.2-0.2 0.9-2.2 0.9-2.3 0.6-0.1 1.2-0.3 1.8-0.5 0 0 0-0.3 0.1-0.5 -0.2-0.2-0.4-0.6-0.5-0.7 1.2-0.4 0.4 0.4 1.9 0.4 0.5-0.4 1-0.8 1.5-1.3 0.5-1.3-0.1-2.3 1.9-2.3 0.7-1 4.2-5.8 5.4-5.4 0.4 0.1 0.9-0.2 1 0.3 1.8-1 5.5-5.8 7.1-5.9 0.3 0.1 0.6 0.2 1 0.4 3.9-3.2 3.4-3.8 6.5 0.8 -0.3 0.6-0.2 1.1 0.3 1.6 0.2 0 0.8-0.8 1.1 0 0 0.9 2.3 6.3 3.4 5.5 0.5 0.4 0.9 0.9 1 1.6 2.2 0.2 2.2 2 3.4 2.4 1.8 0 6.4 2.6 6.8 3 2.1 0.9 2.5-0.2 3.9 1.4 5.9 0.8 14.9 5.2 20.2 5.2 0.1 0.2-0.1 0.6 0.2 0.8 0.3 0.1 0.6 0.2 1 0.3 -3.8 2.3-12.4 5.1-17.2 8.8 1-1 2-1.9 3-2.9 -1.8 0.8-10.1 8.2-9.7 10.6 1.8 0 1.4-3 4.2-2.8 -0.7 1.5-1.9 2.7-2.5 4.4 -0.3 1.3 7.7-6.4 2.1 1.1 0-0.4 27 0.3 27.1 0.3 0.1 0.2-0.1 0.7 0.3 0.7 1.2-0.7 2.1-1.5 3.6-1.8 3.2-3.8 8.9-6.8 13.1-9.4l0.4 0.1c0.4 0.1 1.4-3.4 1.3-4 -0.1-0.9 0.1 0.4 0 0 -1.3-8.6-8.4-36.4-15.1-41.6 -1-2.1-10.6-54-10.7-53.9 13.9-10.2-39-58.8-51.5-57.9 -16.7-8.5-38.5-12.5-57.4-8.7 -3.9 0.6-66 6.9-62.5 1.9 -0.1-0.2-0.8-0.4-0.3-0.8 0.9-0.8-5.1-2.2-5.6-2.8 0-0.4 0.2-0.2 0-0.7 -0.5-0.7-3.2-1.1-4.1-1.6 -0.7 0.1-1.3 0.2-2 0.4 0.1-0.5 0-0.9-0.3-1.3 -3.3 0.3-3.1-1.5-4.6-1.5 -0.5 0.1-0.5 0.6-1.1 0.2 -0.4-0.3-0.8-0.4-1.1-0.8 -3.9-0.2-13.1 1.3-16.2-0.3 -1-0.8-0.3-0.9-1.7 0.1 -0.2 0.1-9.4 2.1-9.9 1.9 -14.7-0.5-32.7 17.3-45.9 22.1 -0.1 0.2-1.2 1.3-1.4 0.7 -0.5 0.2-1.5 0.8-1.7 1.4 -0.2-0.1-0.8 0-0.9-0.4 -0.6 0.6-1.1 1.2-1.7 1.7 -2.9 0.9-13.7 5.4-15.6 8.7 0.1 0.6 0.1 0.7 0 0.8 -0.4 0-0.8-0.3-1.2 0.2 -1.2 0.4-7.6 7.8-7.6 1.2l-0.4 0.1c-1.3-1.1-3-1.9-4.7-1.8 -3.1 2.6-7.6 12-12.5 11 -2.3-0.7-4.8-2.6-6.5-4.3 -8.5-1.4-6.7 9.5-7.6 14.4 -5.5 5.4-11.3 13.3-13.4 20.9 0.1 0.2 3.5 3.6 2.4 4 -0.2-0.1-0.2-0.4-0.4-0.3C235.9 183.5 218 206.5 218 207.2c0 1.2 5.9 5.1 4.5 3.5l0.3 0.2c-0.2-0.2 16 10.2 14.7 5.1 0.9-0.8 9.7-6 10.6-5.5 0.3 1.4-0.2 2.6-1.7 3.7 0.1 0 0.3 0.1 0.5 0.1 3 3.3-7.5 7-4.8 4.5 0 0.7 0.1 1.4-0.1 2.1 0 0-3-1.4-2.2-0.7 0.4 0.4 0.8 0.9 1.1 1.3 0.4 1.5-0.5 3.2 0 5.1 7.3 2 21.5 2.3 27.2-2.9 1-0.7 1.9 0.1 2.8-0.5 1 0 2.6 2.4 2.7 2.2 0.1 0 0.5-0.7 0.9-0.2 0.7 0.2 1 0.7 1.1 1.5 0.3 0 0.5 0.1 0.8 0.1 0.8 0.1 0 2.5 1.4 2.7 0.1-0.4 0.4-1.1 0.4-1.6 0.1-0.1 0.3-0.1 0.4-0.1 0.1 0.3 0.2 1.1 0.4 1.4 1.7 0 0.5-3.5 1.7-3l0.4 0.1c0.6 2.9 0.2-1.4 1-1.8 1.3 0.5 0.1-1.3 0.4-1.6 -0.2-0.2-0.5-0.3-0.5-0.4 0.1-0.1 0.1-0.2 0.1-0.4 3.4 0 1.1 0.6 3.8 0.9l0.4 0c-0.7-2.9 0.5-2.6 1.5-2.2 -0.9-2.8-0.2-3.4 0.7-3.7 0.3-0.1 0.4-0.5 0.6-0.2 4.9 3.2-2.1-0.6 0.1-2.7 0.3 0.2 0.8 0.3 0.8 0.7 -0.3 0.7 4 3.5 2.7-1.1 -0.4 0-0.5-0.1-1.1-0.1 -0.1 0 2.2-0.2 2.7 0.1 0.3 5 2.8-0.6 3.1-0.1 -0.2-1.1-0.1-1.5 1.1-1.2 -0.5-0.2 2.9-0.3 2.3-1.6 0 0.2 5-2.6 5-2.6 0.4 0.2 0.3 0.2 0.7 0.5 4.5-2.5 7.1-2.5 11.7-4.5 0.3 0.2 0.6 0.4 0.8 0.7 1.2 0 2.1-1.4 3-1.6 0.5 0.5 1 0.7 1.7 0.7 5.7-4.3 4.3 3.7 5.2 4 -5 3.9-15.6 34.5-18.9 41.9 -14.1 16.6-28.2 18.5-43.2 32.3 -2.9 6.6 1.4 1.7 6.4 0.9 0.1 0.1-3.7 4.6-3.8 4.6 5.8-1.6 10.8 0.6 7.8 1.1 2.9-2.5 9.4-0.7 12.7 0.6l0 0c1 0.3 6.2-1.1 6.6-1.9 2.6-0.5 11.5-1.1 13.8 0.3" fill="#DDE4D0"/></svg>