<svg xmlns="http://www.w3.org/2000/svg" viewBox="0 0 768 430"><style>.a{fill:#986926;}.b{fill:#C68831;}.c{fill:#D9A965;}.d{fill:#B97F2E;}.e{fill:#FFF;}.f{fill:#E9F0F0;}.g{fill:#6C5825;}.h{fill:#DDCF99;}.i{fill:#191919;}.j{fill:#78531E;}.k{fill:#825920;}.l{fill:#F0F0F0;}.m{fill:#CD4331;}.n{fill:#7E5720;}.o{fill:#7E3000;}.p{fill:#808080;}.q{stop-color:#E6E6E6;}.r{stop-color:#808080;}</style><polygon points="490.2 206.2 471.9 206.9 467.4 90.5 485.7 89.1 " class="a"/><polygon points="470.5 211.1 479.9 206.1 475.4 90.2 460.6 89.4 " class="b"/><polygon points="460.6 89.4 475.4 90.2 485.7 89.1 " class="c"/><polygon points="481.9 109 625.7 145.1 626.6 263.8 484.9 209.4 " class="b"/><polygon points="492.5 203.9 490 119.1 617.9 151.2 618.7 252.4 " fill="#CC8D35"/><polygon points="481.9 109 625.7 145.2 628.8 143.2 486.4 107.9 " class="c"/><path d="M605.6 174c-0.5 22.3 1.2 45.4 1.8 67.7 -5.9 0-6.1-6.4-10.7-10.4 -3.6-3.2-9.7-4.4-14-6.6 4.4-6.9 17.1-30.3 16.6-47.1 -0.2-6 7.6-13.9 6.9-20.2 -11.4-2.1-24.4 3.3-36.3 4.1 -12.8 0.8-31.6-2.4-43.7 1.7 -6.4 2.2-17.4 34.8-24.1 37.1 -5.9 2.1-13 0.1-17.5 3.2l0.2 6 136.7 52.5c1.1-1 1.8-2.6 1.8-4.8l-5.5-113.9 -11-2.8C605.5 151.9 605.9 164.1 605.6 174z" class="d"/><path d="M606.2 148.3c-0.2 3-0.5 21.7-0.6 25.7 -0.4 18 0.6 36.5 1.4 54.7l0.1 0.4 0.9-80.2L606.2 148.3z" fill="#CC8C33"/><path d="M605.6 174c-0.5 22.3 1.2 45.4 1.8 67.7 -5.9 0-6.1-6.4-10.7-10.4 -3.6-3.2-9.7-4.4-14-6.6 4.4-6.9 17.1-30.3 16.6-47.1 -0.2-6 7.6-13.9 6.9-20.2 -11.4-2.1-24.4 3.3-36.3 4.1 -12.8 0.8-31.6-2.4-43.7 1.7 -6.4 2.2-17.4 34.8-24.1 37.1 -5.9 2.1-13 0.1-17.5 3.2l0.2 6 136.7 52.5c1.1-1 1.8-2.6 1.8-4.8l-5.5-113.9 -11-2.8C605.5 151.9 605.9 164.1 605.6 174z" class="d"/><path d="M562.1 187.4c0 0 37.3 11 54.5 29.5l-0.5 7.8 -55.5-31.7C560.7 192.9 543.7 183.9 562.1 187.4z" fill="#996926"/><path d="M528.5 287.1c0 0 71.3-17.9 86.2-26.4 0 0 17.1-3.2 5.4-35.4 -11.7-32.2-124.7-56.3-124.7-56.3s-45-0.7-63 6.4L528.5 287.1z" fill="#F4F4F4"/><linearGradient gradientUnits="userSpaceOnUse" x1="122.7" y1="189.8" x2="203.7" y2="189.8" gradientTransform="matrix(0.3063 0.6292 -0.8443 0.5261 594.9 7.9933)"><stop offset="0" stop-color="#A83777"/><stop offset="1" stop-color="#3A202F"/></linearGradient><polygon points="429.9 223.2 458.3 260.2 539.5 197.8 511.1 160.8 " fill="url(#SVGID_1_)"/><path d="M531.7 203c0 0-13.4 47.6-33.9 35.9l-5.9-7c0 0 16.9 18.7 32.3-29.6C524.2 202.4 527.8 193.3 531.7 203z" fill="#742E5E"/><path d="M596.5 203.4c0 0 13.6 9.3 7.2 14.1 -6.4 4.8-20.8 4.1-27.6 9.5 -6.8 5.4-12.9 3.8-25.5 5.1 -12.6 1.3-9 3.2-24.2 8.7 -15.2 5.5-64-25.1-64-25.1l112.6-14.6C575.1 201.1 573.1 191.4 596.5 203.4z" class="e"/><path d="M594 202c0 0-34.9-19.4-96.8-32.6 0 0-3.8 1.8-36.6 2 0 0-1.5 33.5 71 44.9L594 202z" fill="#E2E2E2"/><path d="M487.4 220.3c0 0 88.3 5.9 114.7-71.7 0 0 8.7-28.2-77.7-23.3C524.3 125.3 402.5 167.9 487.4 220.3z" class="f"/><path d="M473.1 153.9c0 0-11.5 12.4-8.4 17.4 3 4.9 5.8 4.4 12.7 4.9 7 0.5 1.6-5.9 10.6-6.4 9.1-0.5 22.3 4.8 19 11.2s-12.7 3.9-2.9 8.8 31.2 10.3 25.7 26l-45.1-4.9 -27.3-30.8C457.4 180.3 457.6 167.3 473.1 153.9z" fill="#DFE6E6"/><ellipse transform="matrix(0.7945 0.6073 -0.6073 0.7945 211.6257 -256.3077)" cx="484.5" cy="184.5" rx="9.5" ry="9.2" fill="#684F26"/><ellipse transform="matrix(0.7946 0.6072 -0.6072 0.7946 200.4114 -264.8017)" cx="491.5" cy="163.8" rx="5.4" ry="5.5" class="g"/><ellipse transform="matrix(0.7945 0.6073 -0.6073 0.7945 209.7026 -269.4432)" cx="502.9" cy="175.1" rx="6.4" ry="6.4" class="g"/><path d="M489.1 163.3c0 0 2.6-5 5.3 0.4L489.1 163.3z" class="h"/><path d="M503.3 171.6c0 0 5.3 2.5 0.6 6.5C503.9 178.2 503 172.5 503.3 171.6z" class="h"/><ellipse transform="matrix(0.7946 0.6072 -0.6072 0.7946 207.0031 -263.295)" cx="492.6" cy="174.3" rx="11.9" ry="10.8" fill="#866B28"/><circle cx="495.2" cy="175.9" r="2.2" class="i"/><circle cx="488" cy="169.7" r="2.2" class="i"/><circle cx="495.4" cy="175.9" r="0.4" class="e"/><path d="M488.7 169.5c-0.1 0.2-0.4 0.2-0.6 0.1 -0.2-0.1-0.2-0.4-0.1-0.6 0.1-0.2 0.4-0.2 0.6-0.1C488.8 169.1 488.8 169.4 488.7 169.5z" class="e"/><path d="M493 179.4c-1.5 1.9-4.6 2-7 0.2 -2.4-1.8-3.1-4.9-1.7-6.8 1.5-1.9 4.6-2 7-0.2C493.7 174.4 494.5 177.5 493 179.4z" class="h"/><path d="M489.8 175.1c-0.4 0.5-1.2 0.5-1.8 0 -0.6-0.5-0.9-1.3-0.5-1.8 0.4-0.5 1.2-0.5 1.8 0C490 173.8 490.2 174.6 489.8 175.1z" class="i"/><polygon points="612.6 253.2 612.8 261.4 542.3 281.3 529.9 284.3 533.9 274.9 " fill="#99A6AC"/><path d="M608.9 262.5c0 0 4.5-2.6 2.7-4.9 -1.8-2.3-29.2 4.9-29.2 4.9s-26.9 6.6-52.6 14.9h-5l91.4-26.2 -3.4 10.2L608.9 262.5z" fill="#88969D"/><linearGradient gradientUnits="userSpaceOnUse" x1="545.9" y1="278.8" x2="540.4" y2="248.1"><stop offset="0" stop-color="#B9C0C0"/><stop offset="0.3758" stop-color="#CFCFCF"/></linearGradient><path d="M612.2 235.4c0 0 0.9 11.7-2.8 16.4s-64.8 16.6-106.3 24.4l-29.9 9.6v5.9l143-39.4L612.2 235.4z" fill="url(#SVGID_2_)"/><polygon points="616.7 268.4 297.3 373.6 297.6 360.5 617.1 260.2 " class="a"/><path d="M491 295.4c10.2-1 40.2-6.5 55.5-12.1 30.4-11 56.2-17.5 61.5-19.5 5.3-2 3.9 6 3.9 6l1.2-0.4 1.1-8.5L491 295.4z" fill="#684414"/><path d="M540.8 290.5c0 0 4 1.2 2.2-9.4h-2.2V290.5z" fill="#8C3E0A"/><polygon points="542.6 287.4 558.9 282.6 542.2 288.3 " class="j"/><path d="M302.1 372.1l-0.2-12.1 0-4.2h1.5c0 0-3 16.7 21.9 8 24.9-8.7 34.8-10.9 34.8-10.9L302.1 372.1z" class="k"/><path d="M170.4 216.6c0 0-11.6-2.5-10 11.9 1.7 14.4 3.7 37.4-2.1 45.4 0 0 1.8 7.3 14.6 9.2 12.8 1.9 7.5 7.1 19.3 13.2 11.8 6.2 21.7 3.6 30.8 11.5 9.1 7.9 8.4 2.3 16.3 8.7 8 6.4 6 7 18.4 10.4 12.5 3.4 3.1 8.5 20.3 21.3 18.2 13.5 26.6 13.7 44.5 8.7 15-4.2 5.7-5.9 43.4-14.5 37.7-8.6 90.4-27 122.5-32.7 32.1-5.7 40.5-11 53.8-19.2 0 0 3.3-17-12.9-41l-192.4 5.7L170.4 216.6z" fill="#C6492C"/><path d="M443.8 170.8c0 0-53-4.3-85.7 19.3 0 0 127.8 25.4 141.9 97.5 0 0 9.6 9.2 45.1-10 0 0-11.7-45.4-13.8-63.1 -1.6-13.5-24.9-19.8-24.9-19.8L443.8 170.8z" fill="#F7F7F7"/><path d="M406.1 178.6c0 0 47.8 21.6 64.6 41.3C470.7 219.8 458 195.8 406.1 178.6z" class="l"/><path d="M379.6 183.3c0 0 27.7-0.5 80.8 47.6 0 0 25.7 28.9 25.8 32.6l2.8-2.1c0 0-34.9-68.2-97.2-79.7C391.8 181.8 387.5 180.4 379.6 183.3z" class="m"/><path d="M384.9 182.1c0 0-115.4 29.7-214.4 34.6 0 0 37.8 37 152.4 73.1 0 0 111.7-11.4 163.4-26.2C486.2 263.5 445 191.5 384.9 182.1z" fill="#DB552C"/><path d="M420.4 175.9c0 0 42.4 20.8 50.5 35.9 0 0 4.1 8.4 4.3 14.8 0 0 4.3-13.5-7.9-24.8C467.3 201.8 451.4 190.1 420.4 175.9z" class="l"/><path d="M326.8 201.2c0 0 42.4 20.8 50.5 35.9 0 0 4.1 8.4 4.3 14.8 0 0 4.3-13.5-7.9-24.8C373.7 227.2 357.8 215.5 326.8 201.2z" class="m"/><path d="M308.1 199.8c0 0 8.4-4.1 42.6 24.5C350.7 224.3 331.4 209.6 308.1 199.8z" class="m"/><path d="M490.5 186.1c0 0-2.3 3.5-8.3 5.8 -6 2.3 0.5 4 0.5 4s3.9 1.6 10-7.5C492.7 188.4 493.7 185.3 490.5 186.1z" class="g"/><path d="M584.9 129.8l18.5 6.8c0 0 2 0.8 5.3 0.9 3.3 0.2-3.4 2.5-6.7 11C598.7 157.1 584.9 129.8 584.9 129.8z" class="f"/><path d="M539.8 124.7c0 0-14.2-0.4-16.5-2.3 -2.4-1.9-6.2 4-28.5 16.4L539.8 124.7z" class="f"/><path d="M594.3 148.6c-7.7 2.5-17.2 25.4-26.3 20.3 4.5 2.9 0.6 3-1 5 -1.9 2.4 0.1 3.9-5.3 3.7 -0.2 0-0.2 0 0 0 0.2 0.2 0.6 0.2 0.8 0.3 0.3 6-3.8 7.1-6.1 11.7 2.4 1.6 14-3.6 13.6-6.3 6.3-2.6 10.4-10.3 13.8-17 2.3-4.5 12.8-14.1 11.8-18.6L594.3 148.6z" fill="#BDCBCD"/><path d="M522.6 122.1c0 0-3.2-2-10.2-2.8 0 0-2.1-0.4-2.5-1.3 -0.4-0.9-0.2-0.6-7.4 9.5 -7.2 10.1-16.2 16.3-19.2 18.5C483.4 146 520.6 128.4 522.6 122.1z" class="f"/><polygon points="626.7 284 620.6 285.7 616.2 124.2 634.4 122.8 " class="a"/><polygon points="613.4 283.9 620.6 285.7 624.1 123.9 609.3 123 " class="b"/><polygon points="620.7 121.9 609.3 123 624.1 123.9 634.4 122.8 " class="c"/><polygon points="629.9 123.2 628.8 123.4 626.6 181.4 " class="j"/><polygon points="628.8 123.4 629.9 123.2 621.5 122.8 " fill="#CD8E35"/><path d="M561.9 165.5c0 0-13.8-13.6-50.1-15.3C511.8 150.2 545.3 155.1 561.9 165.5z" fill="#D1D8D8"/><polygon points="623.4 285 625.3 240.8 624.1 284.7 " class="k"/><polygon points="616.2 284.6 616.2 251.2 617.4 285 " class="a"/><polygon points="466.6 89.7 470.8 131.6 467.8 89.8 " fill="#B2741D"/><polygon points="480.6 89.6 481.9 109.7 481.9 89.5 " class="j"/><polygon points="611.6 265.1 570.6 277.3 612.9 265.6 " class="j"/><path d="M616.2 166.8v55.2C616.2 222 614.6 208.5 616.2 166.8z" class="a"/><polygon points="614.6 123.3 613.8 123.3 613.8 146.8 " class="a"/><path d="M361.7 191.4c0 0 47.8 6.9 68.5 30.4C430.2 221.8 414.3 204.2 361.7 191.4z" class="m"/><path d="M344.8 250c0 0-45.2-28.9-80.5-40.1C264.2 209.9 313.7 225.5 344.8 250z" fill="#E8A680"/><path d="M451.8 186.7c0 0 13.7 6.4 17 10 3.4 3.7 10.2 3.8 17 14.2 0 0-2.5-6.4-13.4-12.8C461.6 191.7 460.2 188.5 451.8 186.7z" class="e"/><polygon points="149.2 196.9 158.5 195.2 160.2 315.5 152 318.3 " class="a"/><polygon points="155.5 317.1 156 293.1 157.3 316.5 " class="n"/><polygon points="153.9 222 158.4 220.7 300.7 285.5 296.8 290.6 " class="c"/><polygon points="152 318.3 142.4 312.3 140.7 193 149.2 196.9 " class="b"/><polygon points="296.8 290.6 298.2 378.7 156.3 302.9 153.9 222 " class="b"/><polygon points="162.9 296 162.8 237.4 277.4 290.9 279.4 358.7 " fill="#CE923D"/><polygon points="140.7 193 149.2 196.9 158.5 195.2 149.5 192.2 " class="c"/><polygon points="292.7 262.4 302 260.8 302.8 387.3 294.6 390.1 " class="a"/><polygon points="294.6 390.1 285 385 283.1 258.6 292.7 262.4 " class="b"/><polygon points="283.1 258.6 292.7 262.4 302 260.8 293 257.7 " class="c"/><polygon points="283.3 284.1 281 283.1 283.1 370.7 284.7 371.5 " class="d"/><polygon points="145.6 314.3 145.5 281.1 146.3 314.7 " class="a"/><polygon points="144.1 194.5 144.1 240.5 144.8 194.9 " class="a"/><polygon points="296.7 261.7 297.8 322.4 297.8 261.5 " class="n"/><polygon points="299.1 388.6 299.7 377.8 299.7 388.4 " class="n"/><polygon points="290 387.6 290 354 290.7 388 " class="n"/><polygon points="154.8 252.8 199.7 277 154.8 254.5 " class="b"/><polygon points="226.1 317.1 281.5 343.4 281.5 345.2 " class="b"/><path d="M299.4 292.1c-0.5 0.9-1 0.6-1.8 0.1 -0.8-0.4-1.2-0.8-1.1-1.6 0.1-0.8 1.1-1.5 1.9-1C299.3 290.1 299.8 291.5 299.4 292.1z" class="o"/><path d="M299 291c-0.1 0.8-0.7 1.3-1.4 1.3 -0.7-0.1-1.2-0.8-1.1-1.6 0.1-0.8 0.7-1.3 1.4-1.3C298.5 289.5 299 290.2 299 291z" class="p"/><radialGradient cx="1026.6" cy="311" r="1.2" gradientTransform="matrix(-0.8806 -0.1123 -0.0995 0.9938 1232.5563 97.1696)" gradientUnits="userSpaceOnUse"><stop offset="0" class="q"/><stop offset="1" class="r"/></radialGradient><path d="M296.6 290.8c-0.1 0.6 0.3 1.2 0.9 1.3 0.6 0.1 1.1-0.4 1.1-1 0.1-0.6-0.3-1.2-0.9-1.3C297.1 289.7 296.6 290.2 296.6 290.8z" fill="url(#SVGID_3_)"/><path d="M300.3 367c-0.5 0.9-1 0.6-1.8 0.1 -0.8-0.4-1.2-0.8-1.1-1.6 0.1-0.8 1.1-1.5 1.9-1C300.2 365 300.6 366.3 300.3 367z" class="o"/><path d="M299.8 365.8c-0.1 0.8-0.7 1.3-1.4 1.3 -0.7-0.1-1.2-0.8-1.1-1.6 0.1-0.8 0.7-1.3 1.4-1.3S299.9 365.1 299.8 365.8z" class="p"/><radialGradient cx="1017.2" cy="385.3" r="1.2" gradientTransform="matrix(-0.8806 -0.1123 -0.0995 0.9938 1232.5563 97.1696)" gradientUnits="userSpaceOnUse"><stop offset="0" class="q"/><stop offset="1" class="r"/></radialGradient><path d="M297.4 365.7c-0.1 0.6 0.3 1.2 0.9 1.3 0.6 0.1 1.1-0.4 1.1-1 0.1-0.6-0.3-1.2-0.9-1.3C298 364.6 297.5 365 297.4 365.7z" fill="url(#SVGID_4_)"/><path d="M625.5 265c-0.4 0.9-0.8 0.6-1.5 0.1 -0.7-0.5-1-0.9-0.9-1.7 0.1-0.8 0.9-1.6 1.5-1.1C625.4 262.9 625.8 264.3 625.5 265z" class="o"/><path d="M625.1 263.8c-0.1 0.8-0.6 1.4-1.1 1.3 -0.6-0.1-1-0.9-0.9-1.7 0.1-0.8 0.6-1.4 1.1-1.3C624.8 262.2 625.2 262.9 625.1 263.8z" class="p"/><radialGradient cx="537.9" cy="228.4" r="1.2" gradientTransform="matrix(-0.665 -0.1123 -0.0751 0.9938 998.8542 97.1696)" gradientUnits="userSpaceOnUse"><stop offset="0" class="q"/><stop offset="1" class="r"/></radialGradient><path d="M623.2 263.6c-0.1 0.7 0.3 1.3 0.7 1.4 0.5 0.1 0.9-0.4 0.9-1.1 0.1-0.7-0.3-1.3-0.7-1.4C623.6 262.4 623.2 262.9 623.2 263.6z" fill="url(#SVGID_5_)"/><path d="M630 148.8c-0.4 0.9-0.8 0.6-1.5 0.1 -0.7-0.5-1-0.9-0.9-1.7 0.1-0.8 0.9-1.6 1.5-1.1C629.9 146.7 630.3 148.2 630 148.8z" class="o"/><path d="M629.6 147.6c-0.1 0.8-0.6 1.4-1.1 1.3 -0.6-0.1-1-0.9-0.9-1.7 0.1-0.8 0.6-1.4 1.1-1.3C629.3 146 629.7 146.8 629.6 147.6z" class="p"/><radialGradient cx="544.2" cy="112.2" r="1.2" gradientTransform="matrix(-0.665 -0.1123 -0.0751 0.9938 998.8542 97.1696)" gradientUnits="userSpaceOnUse"><stop offset="0" class="q"/><stop offset="1" class="r"/></radialGradient><path d="M627.7 147.5c-0.1 0.7 0.3 1.3 0.7 1.4 0.5 0.1 0.9-0.4 0.9-1.1 0.1-0.7-0.3-1.3-0.7-1.4C628.1 146.3 627.7 146.8 627.7 147.5z" fill="url(#SVGID_6_)"/></svg>