<svg version="1.1" xmlns="http://www.w3.org/2000/svg" viewBox="0 0 768 430" xml:space="preserve"><style>.s0{fill:none;stroke-width:2;stroke:#DDE4D0;}.s1{fill:#DDE4D0;}</style><path d="M236.6 229.5c0.9 0.3 1.4 0.4 1.9 0.6 41.4 14.9 82.8 29.8 124.3 44.6 1.4 0.5 1.8 1.1 1.8 2.5 -0.1 8.8 0 17.6-0.1 26.4 0 1.4 0.3 2.2 1.8 2.8 3.5 1.4 6.9 3 10.4 4.3 0.8 0.3 2.1 0.3 3-0.1 3.5-1.6 6.9-3.5 10.4-5.2 1.2-0.6 1.6-1.3 1.6-2.5 -0.1-8.6 0-17.2-0.1-25.8 0-1.3 0.4-1.9 1.7-2.4 54.3-23.9 108.6-47.7 162.9-71.6 0.6-0.3 1.2-0.5 2.1-0.9 0 6 0 11.6 0 17.4 1 0.3 2.1 0.5 3 0.9 5.1 2.2 9.7 1.5 14.2-1.6 1.6-1.1 2.3-2.1 2.3-3.9 0-44.1 0-88.2 0-132.4 0-0.4 0-0.8 0-1.2 0.2-1.3-0.5-1.7-1.7-1.8 -4.1-0.4-8.1-0.9-12.2-1.3 -16.6-1.9-33.2-3.7-49.8-5.6 -16.5-1.8-32.9-3.7-49.4-5.5 -15.5-1.7-31-3.3-46.5-5.3 -6.3-0.8-12.4-0.4-18.8 1 0 14.2 0 28.4 0 42.7 -10.5-2.3-20.8-2.1-30.9 0.6 -10.2 2.7-18.5 8.3-26.1 15.4 2.3 1.7 4.3 3.2 6.5 4.9 -0.8 0.2-1.2 0.4-1.7 0.5 -29.4 6.1-58.9 12.1-88.3 18.2 -3.3 0.7-6.7 1.3-10 2.3 -5 1.5-9.1 4.2-12.3 8.4 0-2.6 0-5.1 0-7.6 -5.3-1.3-10.3-2-15.6-0.6 -2.1 0.6-2.7 1.2-2.7 3.2 0.1 31 0 62 0.1 93 0 2.3-0.7 5 0.3 6.7 1.1 1.7 4.1 2.4 6.1 3.7 1.6 1 3.1 1.1 4.9 0.3 2.1-1 5.3-1.2 6.4-2.7 1.2-1.6 0.5-4.5 0.5-6.8C236.6 239.8 236.6 234.8 236.6 229.5zM393.8 263c1-0.4 1.7-0.7 2.4-0.9 10.6-4.4 21.2-8.9 31.8-13.4 25.4-10.7 50.7-21.4 76.1-32 1.6-0.7 2.1-1.5 2.1-3.1 -0.1-6.5 0-13.1-0.1-19.6 0-4.5 0-8.9-0.4-13.4 -0.9-8-5.1-13.8-13.3-16.6 -4.4-1.5-9-2.9-13.6-3.9 -43.7-9.5-87.4-18.9-131.2-28.3 -0.7-0.2-1.6-0.1-2.3 0.1 -22.3 4.7-44.5 9.5-66.8 14.3 -7.2 1.5-14.4 3.1-21.5 4.6 -12.5 2.7-18.1 9.5-18.1 21.5 0 1.7 0.5 2.3 2.2 2.8 37 10.3 73.9 20.7 110.9 31.1 3.4 1 6.8 1.9 10.4 2.9 0-1 0-1.8 0-2.5 0-7.2 0-14.4 0-21.6 0-3.8 0-3.8 3.8-4.9 4-1.2 8.1-3.1 12.1-3.2 4.1-0.1 8.2 1.8 12.3 2.8 3.2 0.8 3.3 1 3.3 4.1 0 25.5 0 51 0 76.5C393.8 261.1 393.8 261.9 393.8 263zM550.8 141c-16-5.5-32-10.7-47.9-16.4 -8.3-3-16.7-3.3-25.4-3.4 -8-0.1-15.6 1.7-23.2 3.7 -1.7 0.5-3.4 0.8-5.1 1.2 -0.1-0.2-0.2-0.4-0.4-0.6 2.1-1.8 4.2-3.6 6.4-5.5 -0.6-0.3-1-0.4-1.4-0.5 -7.6-2.2-15.2-4.5-22.8-6.5 -13.2-3.5-26.7-5.8-40.4-6.8 -17-1.4-31.1 4.3-43.6 14.9 0.5 0.5 1.1 0.9 1.6 1.4 6.3 4.7 13.5 7.9 21.3 9.8 13.5 3.2 27.2 4.9 41.1 5.7 5.9 0.3 11.8 0.2 17.4-2 0.5-0.2 1-0.3 1.6-0.5 -0.1-0.1-0.3-0.3-0.4-0.5 -1.2-1.5-8.4 0.6-10.6 0.6 -1.9 0-3.7 0-5.5-0.1 0.4 0.2 0.8 0.3 1.2 0.5 -3.5-0.2-7-0.1-10.4-0.6 -11-1.5-21.9-3-32.8-5 -7.6-1.4-14.5-4.8-21.3-9.5 3.5-2.3 6.8-4.4 10.1-6.4 9.9-6 21-7 32.4-6.1 19.8 1.5 38.7 6.4 57.5 12.2 0.3 0.1 0.5 0.2 1.4 0.5 -1.6 1.4-3.1 2.3-4.1 3.6 -0.6 0.7-0.9 2.1-0.6 2.8 0.3 0.6 1.9 0.9 2.8 0.8 4.2-0.9 8.3-2 12.5-3.1 8.9-2.3 17.9-2 26.9-1.5 7.4 0.4 13.9 3.3 20.7 5.6 13 4.4 26.1 8.9 39.3 13.4 -7.2 7.6-17.4 8.8-26.7 11.8 -0.8 0.5-1.7 0.8-2.8 0.8 -1.2 1.2-3 1.6-4.9 1.3 -1.9-0.3-3.9 0.1-5.8-0.2 -1.2-0.2-2.2-0.5-3.3-1 -1 0-1.9 0.1-2.9 0 0.7 0.2 1.5 0.4 2.4 0.6 -12.3 0.4-61.6-11.6-73.4-17.8 0.5-0.7 1.3-1.1 2-1.7 -1 0.2-2 0.1-2.9-0.5 -1.1 0.8-2.2 1.7-3.4 2.6 1.1 0.5 2 1 2.9 1.3 13.5 5.3 27.4 9.5 41.6 12.7 11.3 2.6 23 3.8 34.4 6 5.1 1 9.7 0.5 14.5-1.2 5.7-2 11.5-3.6 17.2-5.5 1.9-0.6 3.8-1.4 5.6-2.4 3.6-2 6.7-4.5 9.1-7.9C551.9 141.4 551.4 141.1 550.8 141z" class="s0"/><path d="M362.3 206.6c0 0.7 0 1.5 0 2.5 -3.6-1-7-1.9-10.4-2.9 -37-10.4-73.9-20.8-110.9-31.1 -1.7-0.5-2.2-1.1-2.2-2.8 0.1-12 5.7-18.7 18.1-21.5 7.2-1.6 14.4-3.1 21.5-4.6 22.3-4.8 44.5-9.5 66.8-14.3 0.8-0.2 1.6-0.2 2.3-0.1 43.7 9.4 87.5 18.8 131.2 28.3 4.6 1 9.1 2.4 13.6 3.9 8.2 2.8 12.5 8.6 13.3 16.6 0.5 4.4 0.4 8.9 0.4 13.4 0.1 6.5 0 13.1 0.1 19.6 0 1.6-0.4 2.4-2.1 3.1 -25.4 10.6-50.7 21.3-76.1 32 -10.6 4.5-21.2 8.9-31.8 13.4 -0.7 0.3-1.3 0.5-2.4 0.9 0-1.1 0-2 0-2.8 0-25.5 0-51 0-76.5 0-3.1-0.1-3.3-3.3-4.1 -4.1-1-8.2-2.8-12.3-2.8 -4.1 0.1-8.1 2-12.1 3.2 -3.8 1.1-3.8 1.1-3.8 4.9M549.1 142.6c-13.3-4.5-26.3-9-39.3-13.4 -6.8-2.3-13.3-5.2-20.7-5.6 -9.1-0.5-18.1-0.8-26.9 1.5 -4.1 1.1-8.3 2.2-12.5 3.1 -0.9 0.2-2.5-0.2-2.8-0.8 -0.3-0.7 0-2.1 0.6-2.8 1.1-1.3 2.5-2.2 4.2-3.6 -0.9-0.3-1.2-0.4-1.4-0.5 -18.7-5.8-37.7-10.6-57.5-12.2 -11.4-0.9-22.5 0-32.4 6.1 -3.3 2-6.6 4.2-10.1 6.4 6.8 4.7 13.7 8 21.3 9.5 10.9 2 21.9 3.5 32.8 5 3.4 0.5 6.9 0.4 10.4 0.6l17.7 2.5c-0.2-0.1-0.4-0.2-0.6-0.3 0.1-0.1 0.2-0.2 0.3-0.3 0.5 0.4 1.2 0.7 2 0.8l-1.6-0.2c12.8 6.2 61.6 17.6 72.8 17.5M521.8 154.5" fill="#DDE4D0"/></svg>