<svg xmlns="http://www.w3.org/2000/svg" viewBox="0 0 768 430" style="enable-background:new 0 0 768 430;version:1.1"  xmlns:xlink="http://www.w3.org/1999/xlink"><style>.a{fill:#E7DBCF;}.b{fill:#FFF;}.c{fill:#D0AB88;}.d{fill:#AB7B55;}.e{fill:#FEAF54;}.f{fill:#E69F4C;}.g{fill:#B4DAA2;}.h{fill:#69A76C;}.i{fill:#A4C794;}.j{fill:#8EBD76;}.k{fill:#A20515;}.l{fill:#C91022;}.m{fill:#2E1708;}.n{fill:#62381A;}.o{fill:#B38C67;}.p{fill:#B79676;}.q{fill:none;}.r{fill:#C59971;}.s{fill:#CDA682;}.t{fill:#774C2E;}.u{fill:#FBC1D8;}.v{fill:#E1DFEE;}.w{fill:#00AFEA;}.x{fill:#61AD54;}.y{fill:#87C656;}.z{fill:#5A4A43;}.A{fill:#BAA795;}.B{fill:#FB923A;overflow:visible;}.C{overflow:visible;}.D{clip-path:url(#SVGID_2_);fill:#FB923A;}.E{fill:#B49577;}.F{fill:#89725A;}.G{fill:#E1C9B2;}.H{fill:#E6E7E8;}.I{clip-path:url(#SVGID_4_);fill:#FB923A;}.J{fill:#D0CCBF;}</style><g><rect x="151.2" y="49.9" width="459.7" height="168.3" class="a"/><g><g><path d="M271.7 83.5v53.3h111.8V83.5H271.7zM276.5 90h102.1v40.6H276.5V90z" class="b"/></g><rect x="276.5" y="90" width="209.1" height="40.6" fill="#A8E1F7"/><g><path d="M378.6 83.5v53.3h111.8V83.5H378.6zM383.4 90h102.1v40.6H383.4V90z" class="b"/></g><rect x="377.1" y="83.5" width="1.5" height="53.3" fill="#BCBEC0"/><path d="M268 79.9v60.5h225.9V79.9H268zM490.4 136.8H271.7V83.5h218.7V136.8z" class="c"/><g><rect x="271.7" y="84.7" width="3.3" height="7.8" class="d"/><rect x="275" y="84.7" width="212.1" height="5.3" fill="#FB923A"/><rect x="275" y="90.1" width="212.1" height="11.7" class="e"/><rect x="275" y="101.8" width="212.1" height="2.3" class="f"/><rect x="488.1" y="88.3" width="1.5" height="47.3" fill="#72665A"/><rect x="487" y="84.7" width="3.3" height="7.8" class="d"/><path d="M488.8 142c0.7 0 1.2-0.4 1.2-0.9v-6.1c0-0.5-0.5-0.9-1.2-0.9l0 0c-0.7 0-1.2 0.4-1.2 0.9v6.1C487.6 141.6 488.2 142 488.8 142L488.8 142z" fill="#C3B59E"/></g></g><g><g><path d="M187.5 154.1c-1.1-0.1-2.3-0.3-3.6-0.4 1.2 1 2.1 2.8 2.7 5 2.4 0.7 7.8 1.1 7.8 1.1S191.3 155.5 187.5 154.1z" class="g"/><path d="M208.3 168.1c-0.3 0.1-6.4 1.9-9.4 11.7 1.2-18.4 3.3-28.3 4.6-32.8 -0.1-0.1-0.1-0.3-0.2-0.4 -0.1-0.3-0.2-0.6-0.3-0.9 -1.2 4-3.7 14.1-4.9 34.6 -3.4-20.9-13.3-26.4-13.7-26.6 -0.2-0.1-0.4 0-0.6 0.2 -0.1 0.2 0 0.4 0.2 0.6 0.1 0.1 11.3 6.2 13.9 30.3 0 0 0 0 0 0 0 0 0 0 0 0.1 0 0 0 0 0 0.1 0 0 0 0 0 0 0 0 0 0 0 0 0 0 0 0 0 0 0 0 0 0 0 0 0 0 0 0 0 0 0 0 0 0 0 0 0 0 0 0 0.1 0 0 0 0 0 0 0 0 0 0 0 0 0 0 0 0 0 0 0 0 0 0 0 0 0 0 0 0 0 0 0 0 0 0 0 0 0 0 0 0 0 0.1 0 0 0 0 0 0 0 0 0 0 0 0 0 0 0 0 0 0 0 0 0 0 0 0 0 0 0 0 0 0 0 0 0 0 0 0 0 0 0 0 0 0 0 0 0 0 0 0-0.1 0 0 0 0 0 0 2.1-13.4 9.9-15.8 9.9-15.8 0.2-0.1 0.3-0.3 0.3-0.5C208.7 168.2 208.5 168.1 208.3 168.1z" fill="#74825E"/><path d="M203.1 142.7c0 0-3.4-1.1-4.9 0.5 -1.6 1.6-6.4 5.5-6.4 5.5L203.1 142.7z" class="h"/><path d="M206.2 142.5c0 0 2.2-1.8 5.1 0.1 2.9 1.9 7.2 4.7 7.2 4.7S209.1 145.4 206.2 142.5z" class="h"/><path d="M202.8 143.1c0 0-4.3 1.6-4.3 4.7 0 3.1-0.1 6.1-0.1 6.1S201.5 145.6 202.8 143.1z" class="i"/><g><path d="M206.2 142.5c0 0 0 0 0.1-0.1C206 142.4 205.9 142.4 206.2 142.5z" class="i"/><path d="M211.3 145.3c-1.7-0.6-3.4-1.4-4.5-2.3 2 2.1 8 10.7 8 10.7s-1.6-4.2-2.5-6.7C212 146.3 211.6 145.7 211.3 145.3z" class="i"/></g><path d="M208.5 168.3c0 0-1.1 2.1 0.4 7.2 1.6 5.6 10.7 14.1 10.7 14.1s-3.7-12.7-5-15.1C213.3 172 209.9 168.1 208.5 168.3z" class="h"/><path d="M208.5 168.3c0 0 5.8-2.1 9.6-0.9 10.7 3.2 12.3 14.3 12.3 14.3S216.6 170.1 208.5 168.3z" class="j"/><path d="M208.5 168.3c0 0 0.1-3.2 2.2-6 2.9-3.9 6.9-3.5 6.9-3.5s2.7 1.6 3.7 3.5C221.3 162.2 210.8 165.1 208.5 168.3z" class="h"/><path d="M208.5 168.3c0 0-5.3 5-7.2 11.2 -1.9 6.2 5 9 5 9S201.7 181.8 208.5 168.3z" class="h"/><path d="M208.9 168.2c0 0-6.4-3.9-10.7-1.9 -4.3 1.9-5.8 13.4-5.8 13.4s2.6-7.1 7.9-9C204.2 169.1 208.9 168.2 208.9 168.2z" class="h"/><path d="M218.5 163l2.4 4.1 0.4-4.8C221.3 162.2 220.1 162.5 218.5 163z" class="g"/><path d="M208.5 168.3c0 0-6.2-5.2-5.9-5.8 0.4-0.6 6.1-1.4 6.1-1.4S208 166.5 208.5 168.3z" class="j"/><path d="M183.9 153.7c0 0-4.3 1.2-6.1 5.3 -1.8 4.1-1.4 13.5-1.4 13.5S177.6 161.4 183.9 153.7z" class="j"/><path d="M183.9 153.7c0 0-2.3 4.7-0.4 10.4 1.9 5.7 4.6 8.4 4.6 8.4S188.5 157.3 183.9 153.7z" class="h"/><path d="M183.9 153.7c0 0 4.8-5.9 16.7 3.6C200.7 157.3 195.3 154.5 183.9 153.7z" class="h"/><path d="M183.9 153.7l0.6-2.9c0 0-4.3 1.9-4.9 3.3C179 155.4 183.9 153.7 183.9 153.7z" class="h"/><path d="M204.2 141.7c0 0-2.6 1.2-1 4.9 1.7 3.7 6.5 9.3 6.5 9.3S208.9 141.4 204.2 141.7z" class="h"/><path d="M197.3 181.8c0 0 1.6 0.8 1.6 1.3 0 0.5 0.7 18.7 0.7 18.7s-1.3 0.7-2.8 0L197.3 181.8z" fill="#7B6936"/></g><path d="M191.4 218h13.5c3.7-3.1 6.1-8.2 6.1-11.6 0-2.6-1.5-5-3.8-6.7h-18c-2.4 1.7-3.8 4.1-3.8 6.7C185.3 209.8 187.7 214.9 191.4 218z" class="b"/></g><g><g><g><rect x="458" y="186.1" width="6.8" height="31.9" class="k"/><rect x="458.7" y="186.1" width="5.5" height="31.9" class="l"/><rect x="459.5" y="190.4" width="3.8" height="11.6" class="a"/></g><g><rect x="498.7" y="191.8" width="6.8" height="26.2" class="m"/><rect x="499.3" y="191.8" width="5.5" height="26.2" class="n"/><rect x="500.2" y="195.3" width="3.8" height="9.5" class="a"/></g><g><rect x="505.4" y="191.8" width="6.8" height="26.2" class="m"/><rect x="506.1" y="191.8" width="5.5" height="26.2" class="n"/><rect x="506.9" y="195.3" width="3.8" height="9.5" class="a"/></g><g><rect x="512.2" y="191.8" width="6.8" height="26.2" class="m"/><rect x="512.9" y="191.8" width="5.5" height="26.2" class="n"/><rect x="513.7" y="195.3" width="3.8" height="9.5" class="a"/></g><g><rect x="464.8" y="186.1" width="6.8" height="31.9" class="k"/><rect x="465.4" y="186.1" width="5.5" height="31.9" class="l"/><rect x="466.3" y="190.4" width="3.8" height="11.6" class="a"/></g><g><rect x="471.6" y="186.1" width="6.8" height="31.9" class="k"/><rect x="472.2" y="186.1" width="5.5" height="31.9" class="l"/><rect x="473.1" y="190.4" width="3.8" height="11.6" class="a"/></g><g><rect x="478.3" y="186.1" width="6.8" height="31.9" class="k"/><rect x="479" y="186.1" width="5.5" height="31.9" class="l"/><rect x="479.8" y="190.4" width="3.8" height="11.6" class="a"/></g><g><rect x="485.1" y="186.1" width="6.8" height="31.9" class="k"/><rect x="485.8" y="186.1" width="5.5" height="31.9" class="l"/><rect x="486.6" y="190.4" width="3.8" height="11.6" class="a"/></g><g><rect x="491.9" y="186.1" width="6.8" height="31.9" class="k"/><rect x="492.5" y="186.1" width="5.5" height="31.9" class="l"/><rect x="493.4" y="190.4" width="3.8" height="11.6" class="a"/></g></g><g><polygon points="455.7 209 455.7 204.5 448.9 215.7 451.6 215.7 " class="o"/><polygon points="455.7 194 455.7 215.7 445.8 215.7 445.8 218 455.7 218 458 218 458 215.7 458 194 " class="c"/></g><g><polygon points="521.3 209 521.3 204.5 528.1 215.7 525.4 215.7 " class="o"/><polygon points="521.3 194 521.3 215.7 531.2 215.7 531.2 218 521.3 218 519 218 519 215.7 519 194 " class="c"/></g></g><g><g><g><g><g><g><g><g><g><rect x="318.1" y="184.7" width="19" height="26.5" class="p"/><rect x="318.1" y="184.7" width="19" height="26.5" class="b"/><rect x="320.7" y="187.3" width="13.8" height="21.4" fill="#B8B893"/></g><g><rect x="318.1" y="184.7" width="19" height="26.5" class="q"/><polygon points="318.1 211.2 313.7 215.6 313.7 180.3 318.1 184.7 " class="r"/><polygon points="337.1 211.2 341.5 215.6 313.7 215.6 318.1 211.2 " class="s"/><polygon points="337.1 211.2 337.1 184.7 341.5 180.3 341.5 215.6 " class="r"/><polygon points="318.1 184.7 313.7 180.3 341.5 180.3 337.1 184.7 " class="s"/></g></g></g></g></g></g></g><g><path d="M324.5 203.7c-1.2 0-1.6-0.7-1.7-0.9 -0.4-0.9 0.1-2.2 1.2-2.8 1-0.5 1.5-1.1 1.6-1.5 0.1-0.2 0-0.5-0.2-0.7 -0.1-0.2-0.3-0.3-0.5-0.4 -0.5-0.1-1.1 0.3-1.3 0.4 -0.2 0.1-0.4 0.1-0.5-0.1 -0.1-0.1-0.1-0.4 0.1-0.5 0 0 0.9-0.7 1.8-0.6 0.4 0.1 0.7 0.3 1 0.7 0.3 0.4 0.4 0.8 0.3 1.3 -0.2 0.7-0.8 1.3-2 2 -0.9 0.5-1.2 1.4-0.9 1.9 0.3 0.6 1.2 0.7 2.5 0.2 0.2-0.1 0.4 0 0.4 0.2 0.1 0.2 0 0.4-0.2 0.4C325.5 203.6 325 203.7 324.5 203.7z" class="b"/><path d="M327 199.2c0 0-0.6 1.6-2.3 2.9 -0.9 0.7-1.1 2.3 1.1 2.5 0 0-0.3 0.5 0.1 0.6 0.6 0.1 1.1 0 1.5-0.3 0.2-0.1 0.4-0.4 1.1-0.2 0.7 0.2 1.2 0.1 1.2-0.1 0-0.3 0-4.3-0.6-4.7C328.5 199.4 327.2 198.9 327 199.2z" class="t"/><path d="M328.8 195.2c0 0 1.6 2.5 1.5 4.5 -0.1 2-1 4.4-0.4 4.7 0.7 0.3 0.9 0.6 0.4 0.8 -0.5 0.2-2 0.1-1.7-1 0.3-1.1 0.1-2.5-0.3-2.5 -0.4 0-0.6 1.4-0.3 2.5 0.3 1.1-1.1 1.2-1.7 1 -0.5-0.2-0.3-0.6 0.4-0.8 0.7-0.3-0.2-2.7-0.4-4.7 -0.1-2 1.5-4.5 1.5-4.5H328.8z" class="b"/><path d="M329.5 192.8c0 0 0.5-0.7 1.5-0.7 0 0 0.2 0 0.1 0.2 -0.1 0.2-0.5 1.5-0.5 1.5L329.5 192.8z" class="t"/><path d="M330.9 192.5c0 0-0.6 0.4-0.6 0.5 0.1 0.1 0.2 0.3 0.2 0.3L330.9 192.5z" class="u"/><path d="M327.4 192.8c0 0-0.5-0.7-1.5-0.7 0 0-0.2 0-0.1 0.2 0.1 0.2 0.5 1.5 0.5 1.5L327.4 192.8z" class="b"/><g><path d="M331.1 195.4c0-0.1 0.1-0.3 0.1-0.4 0-1.2-1.2-2.4-2.7-2.4 -0.1 0-0.3 0-0.4 0C328.1 193.2 328.3 195 331.1 195.4z" class="t"/><path d="M328.1 192.6c-1.3 0.2-2.3 1.3-2.3 2.4 0 1.2 1.2 1.9 2.7 1.9 1.3 0 2.4-0.5 2.6-1.4C328.3 195 328.1 193.2 328.1 192.6z" class="b"/></g><path d="M329.6 195.6c0 0.5-0.5 0.8-1.2 0.8 -0.7 0-1.2-0.3-1.2-0.8 0-0.5 0.5-1 1.2-1C329.1 194.6 329.6 195 329.6 195.6z" class="b"/><path d="M329.3 195.2c0 0-0.1 0-0.1 0 -0.3 0.2-0.6 0.1-0.7 0.1v-0.2c0 0 0-0.1-0.1-0.1 0 0-0.1 0-0.1 0.1v0.2c-0.1 0-0.4 0.2-0.7-0.1 0 0-0.1 0-0.1 0 0 0 0 0.1 0 0.1 0.1 0.1 0.3 0.2 0.4 0.2 0.2 0 0.3-0.1 0.4-0.1 0.1 0 0.2 0.1 0.4 0.1 0.1 0 0.3 0 0.4-0.2C329.3 195.3 329.3 195.3 329.3 195.2z" fill="#F787B4"/><path d="M328.8 194.8c0 0.1-0.3 0.3-0.4 0.3 -0.1 0-0.4-0.2-0.4-0.3 0-0.1 0.2-0.2 0.4-0.2C328.7 194.6 328.8 194.7 328.8 194.8z" fill="#F89ABF"/><g><path d="M326.8 194.1c0-0.1 0.1-0.2 0.2-0.3 -0.2 0-0.3 0.1-0.4 0.2 0 0.2 0.1 0.3 0.3 0.4C326.8 194.3 326.8 194.2 326.8 194.1z" class="v"/><path d="M327.9 194.4c0-0.2-0.1-0.3-0.3-0.4 0.1 0.1 0.1 0.2 0 0.4 0 0.1-0.1 0.2-0.2 0.3C327.6 194.6 327.8 194.5 327.9 194.4z" class="v"/><path d="M327.7 194.3c0-0.1 0-0.3 0-0.4 -0.1-0.1-0.2-0.1-0.3-0.1 -0.1 0-0.2 0-0.3 0 -0.1 0.1-0.2 0.2-0.2 0.3 0 0.1 0 0.3 0.1 0.4 0.1 0.1 0.2 0.1 0.3 0.1 0.1 0 0.2 0 0.3 0C327.6 194.5 327.7 194.4 327.7 194.3z" class="w"/></g><g><path d="M330.1 194.1c0-0.1-0.1-0.2-0.2-0.3 0.2 0 0.3 0.1 0.4 0.2 0 0.2-0.1 0.3-0.3 0.4C330.1 194.3 330.1 194.2 330.1 194.1z" class="b"/><path d="M329 194.4c0-0.2 0.1-0.3 0.3-0.4 -0.1 0.1-0.1 0.2-0.1 0.4 0 0.1 0.1 0.2 0.2 0.3C329.3 194.6 329.1 194.5 329 194.4z" class="b"/><path d="M329.2 194.3c0-0.1 0-0.3 0.1-0.4 0.1-0.1 0.2-0.1 0.3-0.1 0.1 0 0.2 0 0.3 0 0.1 0.1 0.2 0.2 0.2 0.3 0 0.1 0 0.3 0 0.4 -0.1 0.1-0.2 0.1-0.3 0.1 -0.1 0-0.2 0-0.3 0C329.3 194.5 329.3 194.4 329.2 194.3z" class="w"/></g><path d="M326 192.5c0 0 0.6 0.4 0.6 0.5 -0.1 0.1-0.2 0.3-0.2 0.3L326 192.5z" class="u"/><g><path d="M328.5 196.8c0 0.4-0.8 0.8-1.1 0.8 -0.2 0-0.4-0.3-0.4-0.8 0-0.4 0.2-0.8 0.4-0.8C327.6 196.1 328.5 196.4 328.5 196.8z" class="x"/><path d="M328.5 196.8c0 0.4 0.8 0.8 1.1 0.8 0.2 0 0.4-0.3 0.4-0.8 0-0.4-0.2-0.8-0.4-0.8C329.3 196.1 328.5 196.4 328.5 196.8z" class="x"/><circle cx="328.5" cy="196.8" r="0.3" class="y"/></g></g></g><circle cx="319.3" cy="216.2" r="1.8" class="z"/><circle cx="335.8" cy="216.2" r="1.8" class="z"/></g><g><g><g><g><g><g><g><g><rect x="357.3" y="194.4" width="16.8" height="16.8" class="p"/><rect x="357.3" y="194.4" width="16.8" height="16.8" class="b"/><rect x="359.8" y="197" width="11.7" height="11.7" class="g"/></g><g><rect x="357.3" y="194.4" width="16.8" height="16.8" class="q"/><polygon points="357.3 211.2 352.9 215.6 352.9 190 357.3 194.4 " class="r"/><polygon points="374 211.2 378.4 215.6 352.9 215.6 357.3 211.2 " class="s"/><polygon points="374 211.2 374 194.4 378.4 190 378.4 215.6 " class="r"/><polygon points="357.3 194.4 352.9 190 378.4 190 374 194.4 " class="s"/></g></g></g></g></g></g></g><circle cx="358.5" cy="216.2" r="1.8" class="z"/><circle cx="372.8" cy="216.2" r="1.8" class="z"/><path d="M369.5 207.2c0 0 0 0 0 0 -0.1 0-0.2 0-0.2-0.2 -0.9-4.2-5.3-5.5-5.4-5.6 -0.1 0-0.2-0.1-0.1-0.3 0-0.1 0.1-0.2 0.3-0.1 0 0 4.7 1.4 5.6 5.9C369.6 207 369.6 207.1 369.5 207.2z" fill="#61906E"/><path d="M363.8 199.4l0 0c-0.2-0.4-0.5-0.5-0.8-0.4 -0.4 0.1-0.6 0.4-0.6 0.8 0.1 0.5 0.4 0.8 0.7 1.1 0.3 0.2 0.7 0.6 1 0.7 -0.2-0.2-0.7-0.5-1-0.6 -0.4-0.2-0.8-0.4-1.2-0.3 -0.4 0.1-0.7 0.4-0.6 0.8 0.1 0.3 0.3 0.6 0.7 0.6l0 0c-0.4 0.2-0.5 0.5-0.4 0.8 0.1 0.4 0.4 0.6 0.8 0.6 0.5-0.1 0.8-0.4 1-0.7 0.2-0.3 0.6-0.7 0.7-1 -0.2 0.2-0.5 0.7-0.6 1 -0.2 0.4-0.4 0.8-0.3 1.2 0.1 0.4 0.4 0.7 0.8 0.6 0.3-0.1 0.6-0.3 0.6-0.7h0c0.2 0.4 0.5 0.5 0.8 0.4 0.4-0.1 0.6-0.4 0.6-0.8 -0.1-0.5-0.4-0.8-0.7-1 -0.3-0.2-0.7-0.6-1-0.7 0.2 0.2 0.7 0.5 1 0.6 0.4 0.2 0.8 0.4 1.2 0.3 0.4-0.1 0.7-0.4 0.6-0.8 -0.1-0.3-0.3-0.6-0.7-0.6l0 0c0.4-0.2 0.5-0.5 0.4-0.8 -0.1-0.4-0.4-0.6-0.8-0.6 -0.5 0.1-0.8 0.4-1 0.7 -0.2 0.3-0.6 0.7-0.7 1 0.2-0.2 0.5-0.7 0.6-1 0.2-0.4 0.4-0.8 0.3-1.2 -0.1-0.4-0.4-0.7-0.8-0.6C364.1 198.7 363.9 199 363.8 199.4zM363.8 201.1l0 0 0 0L363.8 201.1 363.8 201.1z" fill="#1DB458"/><path d="M363.9 200.1l0 0c-0.1-0.2-0.3-0.3-0.6-0.3 -0.3 0-0.4 0.3-0.4 0.6 0.1 0.3 0.3 0.5 0.5 0.7 0.2 0.2 0.5 0.4 0.7 0.5 -0.2-0.1-0.5-0.3-0.7-0.4 -0.3-0.1-0.5-0.3-0.8-0.2 -0.3 0-0.5 0.3-0.4 0.6 0 0.2 0.2 0.4 0.5 0.4l0 0c-0.2 0.1-0.3 0.3-0.3 0.6 0 0.3 0.3 0.4 0.6 0.4 0.3-0.1 0.5-0.3 0.7-0.5 0.2-0.2 0.4-0.5 0.5-0.7 -0.1 0.2-0.3 0.5-0.4 0.7 -0.1 0.3-0.3 0.5-0.2 0.8 0 0.3 0.3 0.5 0.6 0.4 0.2 0 0.4-0.2 0.4-0.5h0c0.1 0.2 0.3 0.3 0.6 0.3 0.3 0 0.4-0.3 0.4-0.6 -0.1-0.3-0.3-0.5-0.5-0.7 -0.2-0.2-0.5-0.4-0.7-0.5 0.2 0.1 0.5 0.3 0.7 0.4 0.3 0.1 0.5 0.3 0.8 0.2 0.3 0 0.5-0.3 0.4-0.6 0-0.2-0.2-0.4-0.5-0.4l0 0c0.2-0.1 0.3-0.3 0.3-0.6 0-0.3-0.3-0.4-0.6-0.4 -0.3 0.1-0.5 0.3-0.7 0.5 -0.2 0.2-0.4 0.5-0.5 0.7 0.1-0.2 0.3-0.5 0.4-0.7 0.1-0.3 0.3-0.5 0.2-0.8 0-0.3-0.3-0.5-0.6-0.4C364.2 199.6 364 199.8 363.9 200.1zM364 201.3h0l0 0H364L364 201.3z" fill="#00944E"/></g><g><rect x="151.2" y="230.3" width="459.7" height="144.5" fill="#E5D7CA"/><rect x="151.2" y="218" width="459.7" height="12.3" class="o"/></g><g><g><g><g><rect x="530.1" y="221.5" width="13" height="6.1" class="A"/><rect x="535.1" y="227.5" width="3.1" height="66.1" class="b"/><polygon points="539.5 292.5 533.8 292.5 522.1 297.9 551.2 297.9 " class="b"/><g><g><defs><polygon points="552.9 271.6 520.4 271.6 526.5 224.7 546.8 224.7 "/></defs><use xlink:href="#SVGID_1_" class="B"/><clipPath><use xlink:href="#SVGID_1_" class="C"/></clipPath><path d="M551 227.8c0 11.4-6.2 20.6-13.9 20.6 -7.7 0-13.9-9.2-13.9-20.6 0-5.7 1.6-10.8 4.1-14.5v9.5h19.7v-9.5C549.5 217 551 222.1 551 227.8z" class="D"/><path d="M550.9 227.8c0 11.3-6.2 20.4-13.8 20.4 -7.6 0-13.8-9.1-13.8-20.4 0-5.6 1.5-10.7 4-14.4v9.4h19.5v-9.4C549.4 217.1 550.9 222.2 550.9 227.8z" class="D"/><path d="M550.8 227.8c0 11.2-6.1 20.2-13.7 20.2s-13.7-9.1-13.7-20.2c0-5.6 1.5-10.7 4-14.3v9.3h19.4v-9.3C549.3 217.2 550.8 222.2 550.8 227.8z" class="D"/><path d="M550.7 227.8c0 11.1-6.1 20.1-13.6 20.1 -7.5 0-13.6-9-13.6-20.1 0-5.5 1.5-10.6 4-14.2v9.1h19.2v-9.1C549.2 217.2 550.7 222.3 550.7 227.8z" class="D"/><path d="M550.6 227.8c0 11-6 19.9-13.5 19.9 -7.4 0-13.5-8.9-13.5-19.9 0-5.5 1.5-10.5 3.9-14.1v9h19.1v-9C549.1 217.3 550.6 222.3 550.6 227.8z" class="D"/><path d="M550.5 227.8c0 10.9-6 19.8-13.4 19.8s-13.4-8.8-13.4-19.8c0-5.5 1.5-10.4 3.9-14v8.9h18.9v-8.9C549 217.4 550.5 222.4 550.5 227.8z" class="D"/><path d="M550.4 227.8c0 10.8-5.9 19.6-13.3 19.6 -7.3 0-13.3-8.8-13.3-19.6 0-5.4 1.5-10.3 3.9-13.9v8.8h18.8v-8.8C548.9 217.5 550.4 222.4 550.4 227.8z" class="D"/><path d="M550.3 227.8c0 10.7-5.9 19.4-13.2 19.4 -7.3 0-13.1-8.7-13.1-19.4 0-5.4 1.5-10.2 3.8-13.7v8.7h18.6v-8.7C548.8 217.6 550.3 222.4 550.3 227.8z" class="D"/><path d="M550.2 227.8c0 10.6-5.8 19.3-13 19.3s-13-8.6-13-19.3c0-5.3 1.5-10.1 3.8-13.6v8.6h18.4v-8.6C548.7 217.7 550.2 222.5 550.2 227.8z" class="D"/><path d="M550.1 227.8c0 10.6-5.8 19.1-12.9 19.1 -7.1 0-12.9-8.6-12.9-19.1 0-5.3 1.4-10.1 3.8-13.5v8.5h18.3v-8.5C548.6 217.8 550.1 222.5 550.1 227.8z" class="D"/><path d="M550 227.8c0 10.5-5.7 19-12.8 19s-12.8-8.5-12.8-19c0-5.2 1.4-10 3.8-13.4v8.3h18.1v-8.3C548.5 217.8 550 222.6 550 227.8z" class="D"/><path d="M549.8 227.8c0 10.4-5.7 18.8-12.7 18.8 -7 0-12.7-8.4-12.7-18.8 0-5.2 1.4-9.9 3.7-13.3v8.2h18v-8.2C548.4 217.9 549.8 222.6 549.8 227.8z" class="D"/><path d="M549.7 227.8c0 10.3-5.6 18.6-12.6 18.6 -7 0-12.6-8.3-12.6-18.6 0-5.1 1.4-9.8 3.7-13.2v8.1h17.8v-8.1C548.3 218 549.7 222.7 549.7 227.8z" class="D"/><path d="M549.6 227.8c0 10.2-5.6 18.5-12.5 18.5 -6.9 0-12.5-8.3-12.5-18.5 0-5.1 1.4-9.7 3.7-13.1v8h17.7v-8C548.2 218.1 549.6 222.7 549.6 227.8z" class="D"/><path d="M549.5 227.8c0 10.1-5.5 18.3-12.4 18.3 -6.8 0-12.4-8.2-12.4-18.3 0-10.1 5.6-18.3 12.4-18.3C544 209.5 549.5 217.7 549.5 227.8z" class="D"/><path d="M549.4 227.8c0 10-5.5 18.1-12.3 18.1 -6.8 0-12.3-8.1-12.3-18.1 0-10 5.5-18.1 12.3-18.1C543.9 209.7 549.4 217.8 549.4 227.8z" class="D"/><path d="M549.3 227.8c0 9.9-5.4 18-12.2 18 -6.7 0-12.2-8-12.2-18 0-9.9 5.5-18 12.2-18C543.9 209.8 549.3 217.9 549.3 227.8z" class="D"/><path d="M549.2 227.8c0 9.8-5.4 17.8-12.1 17.8 -6.7 0-12.1-8-12.1-17.8 0-9.8 5.4-17.8 12.1-17.8C543.8 210 549.2 218 549.2 227.8z" class="D"/><path d="M549.1 227.8c0 9.8-5.4 17.7-12 17.7s-12-7.9-12-17.7c0-9.8 5.4-17.7 12-17.7S549.1 218.1 549.1 227.8z" class="D"/><path d="M549 227.8c0 9.7-5.3 17.5-11.8 17.5 -6.5 0-11.8-7.8-11.8-17.5 0-9.7 5.3-17.5 11.8-17.5C543.7 210.3 549 218.1 549 227.8z" class="D"/><path d="M548.9 227.8c0 9.6-5.3 17.3-11.7 17.3 -6.5 0-11.7-7.8-11.7-17.3 0-9.6 5.3-17.4 11.7-17.4C543.6 210.5 548.9 218.2 548.9 227.8z" class="D"/><path d="M548.8 227.8c0 9.5-5.2 17.2-11.6 17.2 -6.4 0-11.6-7.7-11.6-17.2 0-9.5 5.2-17.2 11.6-17.2C543.5 210.6 548.8 218.3 548.8 227.8z" class="D"/><path d="M548.6 227.8c0 9.4-5.2 17-11.5 17 -6.4 0-11.5-7.6-11.5-17 0-9.4 5.2-17 11.5-17C543.5 210.8 548.6 218.4 548.6 227.8z" class="D"/><path d="M548.5 227.8c0 9.3-5.1 16.9-11.4 16.9 -6.3 0-11.4-7.6-11.4-16.9 0-9.3 5.1-16.9 11.4-16.9C543.4 210.9 548.5 218.5 548.5 227.8z" class="D"/><path d="M548.4 227.8c0 9.2-5.1 16.7-11.3 16.7 -6.2 0-11.3-7.5-11.3-16.7 0-9.2 5.1-16.7 11.3-16.7C543.4 211.1 548.4 218.6 548.4 227.8z" class="D"/><path d="M548.3 227.8c0 9.1-5 16.5-11.2 16.5s-11.2-7.4-11.2-16.5c0-9.1 5-16.5 11.2-16.5S548.3 218.7 548.3 227.8z" class="D"/><path d="M548.2 227.8c0 9-5 16.4-11.1 16.4 -6.1 0-11.1-7.3-11.1-16.4 0-9 5-16.4 11.1-16.4C543.2 211.4 548.2 218.8 548.2 227.8z" class="D"/><ellipse cx="537.1" cy="227.8" rx="11" ry="16.2" class="D"/><path d="M548 227.8c0 8.9-4.9 16.1-10.9 16.1s-10.9-7.2-10.9-16.1c0-8.9 4.9-16.1 10.9-16.1S548 218.9 548 227.8z" class="D"/><path d="M547.9 227.8c0 8.8-4.8 15.9-10.8 15.9s-10.8-7.1-10.8-15.9c0-8.8 4.8-15.9 10.8-15.9S547.9 219 547.9 227.8z" class="D"/><path d="M547.8 227.8c0 8.7-4.8 15.7-10.7 15.7 -5.9 0-10.6-7-10.6-15.7 0-8.7 4.8-15.7 10.6-15.7C543 212.1 547.8 219.1 547.8 227.8z" class="D"/><path d="M547.7 227.8c0 8.6-4.7 15.6-10.5 15.6s-10.5-7-10.5-15.6c0-8.6 4.7-15.6 10.5-15.6S547.7 219.2 547.7 227.8z" class="D"/><path d="M547.6 227.8c0 8.5-4.7 15.4-10.4 15.4 -5.8 0-10.4-6.9-10.4-15.4 0-8.5 4.7-15.4 10.4-15.4C542.9 212.4 547.6 219.3 547.6 227.8z" class="D"/><path d="M547.5 227.8c0 8.4-4.6 15.3-10.3 15.3s-10.3-6.8-10.3-15.3c0-8.4 4.6-15.3 10.3-15.3S547.5 219.4 547.5 227.8z" class="D"/><path d="M547.3 227.8c0 8.3-4.6 15.1-10.2 15.1 -5.6 0-10.2-6.8-10.2-15.1 0-8.3 4.6-15.1 10.2-15.1C542.8 212.7 547.3 219.5 547.3 227.8z" class="D"/><ellipse cx="537.1" cy="227.8" rx="10.1" ry="14.9" class="D"/><ellipse cx="537.1" cy="227.8" rx="10" ry="14.8" class="D"/><path d="M547 227.8c0 8.1-4.4 14.6-9.9 14.6 -5.5 0-9.9-6.5-9.9-14.6 0-8.1 4.4-14.6 9.9-14.6C542.6 213.2 547 219.7 547 227.8z" class="D"/><path d="M546.9 227.8c0 8-4.4 14.5-9.8 14.5s-9.8-6.5-9.8-14.5c0-8 4.4-14.5 9.8-14.5S546.9 219.8 546.9 227.8z" class="D"/><path d="M546.8 227.8c0 7.9-4.3 14.3-9.7 14.3 -5.3 0-9.7-6.4-9.7-14.3 0-7.9 4.3-14.3 9.7-14.3C542.5 213.5 546.8 219.9 546.8 227.8z" class="D"/><path d="M546.7 227.8c0 7.8-4.3 14.1-9.6 14.1 -5.3 0-9.6-6.3-9.6-14.1 0-7.8 4.3-14.1 9.6-14.1C542.4 213.7 546.7 220 546.7 227.8z" class="D"/><path d="M546.6 227.8c0 7.7-4.2 14-9.5 14 -5.2 0-9.5-6.3-9.5-14 0-7.7 4.2-14 9.5-14C542.4 213.8 546.6 220.1 546.6 227.8z" class="D"/><path d="M546.5 227.8c0 7.6-4.2 13.8-9.3 13.8 -5.2 0-9.3-6.2-9.3-13.8 0-7.6 4.2-13.8 9.3-13.8C542.3 214 546.5 220.2 546.5 227.8z" class="D"/><path d="M546.4 227.8c0 7.5-4.1 13.7-9.2 13.7 -5.1 0-9.2-6.1-9.2-13.7 0-7.5 4.1-13.7 9.2-13.7C542.2 214.2 546.4 220.3 546.4 227.8z" class="D"/><path d="M546.3 227.8c0 7.4-4.1 13.5-9.1 13.5 -5 0-9.1-6-9.1-13.5 0-7.5 4.1-13.5 9.1-13.5C542.2 214.3 546.3 220.4 546.3 227.8z" class="D"/><path d="M546.1 227.8c0 7.4-4 13.3-9 13.3 -5 0-9-6-9-13.3 0-7.4 4-13.3 9-13.3C542.1 214.5 546.1 220.4 546.1 227.8z" class="D"/><path d="M546 227.8c0 7.3-4 13.2-8.9 13.2s-8.9-5.9-8.9-13.2c0-7.3 4-13.2 8.9-13.2S546 220.5 546 227.8z" class="D"/><path d="M545.9 227.8c0 7.2-3.9 13-8.8 13 -4.9 0-8.8-5.8-8.8-13 0-7.2 3.9-13 8.8-13C542 214.8 545.9 220.6 545.9 227.8z" class="D"/><path d="M545.8 227.8c0 7.1-3.9 12.8-8.7 12.8 -4.8 0-8.7-5.8-8.7-12.8 0-7.1 3.9-12.8 8.7-12.8C541.9 215 545.8 220.7 545.8 227.8z" class="D"/><path d="M545.7 227.8c0 7-3.8 12.7-8.6 12.7 -4.7 0-8.6-5.7-8.6-12.7 0-7 3.8-12.7 8.6-12.7C541.9 215.1 545.7 220.8 545.7 227.8z" class="D"/><path d="M545.6 227.8c0 6.9-3.8 12.5-8.5 12.5 -4.7 0-8.5-5.6-8.5-12.5 0-6.9 3.8-12.5 8.5-12.5C541.8 215.3 545.6 220.9 545.6 227.8z" class="D"/><path d="M545.5 227.8c0 6.8-3.7 12.4-8.4 12.4 -4.6 0-8.4-5.5-8.4-12.4 0-6.8 3.7-12.4 8.4-12.4C541.7 215.4 545.5 221 545.5 227.8z" class="D"/><ellipse cx="537.1" cy="227.8" rx="8.3" ry="12.2" class="D"/><path d="M545.3 227.8c0 6.7-3.7 12-8.2 12 -4.5 0-8.2-5.4-8.2-12 0-6.7 3.7-12.1 8.2-12.1C541.6 215.8 545.3 221.2 545.3 227.8z" class="D"/><ellipse cx="537.1" cy="227.8" rx="8" ry="11.9" class="D"/><path d="M545.1 227.8c0 6.5-3.6 11.7-7.9 11.7 -4.4 0-7.9-5.2-7.9-11.7 0-6.5 3.6-11.7 7.9-11.7C541.5 216.1 545.1 221.3 545.1 227.8z" class="D"/><path d="M544.9 227.8c0 6.4-3.5 11.6-7.8 11.6s-7.8-5.2-7.8-11.6c0-6.4 3.5-11.6 7.8-11.6S544.9 221.4 544.9 227.8z" class="D"/><path d="M544.8 227.8c0 6.3-3.5 11.4-7.7 11.4s-7.7-5.1-7.7-11.4c0-6.3 3.5-11.4 7.7-11.4S544.8 221.5 544.8 227.8z" class="D"/><path d="M544.7 227.8c0 6.2-3.4 11.2-7.6 11.2 -4.2 0-7.6-5-7.6-11.2 0-6.2 3.4-11.2 7.6-11.2C541.3 216.6 544.7 221.6 544.7 227.8z" class="D"/><path d="M544.6 227.8c0 6.1-3.4 11.1-7.5 11.1s-7.5-5-7.5-11.1c0-6.1 3.4-11.1 7.5-11.1S544.6 221.7 544.6 227.8z" class="D"/><path d="M544.5 227.8c0 6-3.3 10.9-7.4 10.9 -4.1 0-7.4-4.9-7.4-10.9 0-6 3.3-10.9 7.4-10.9C541.2 216.9 544.5 221.8 544.5 227.8z" class="D"/><path d="M544.4 227.8c0 5.9-3.3 10.8-7.3 10.8 -4 0-7.3-4.8-7.3-10.8 0-5.9 3.3-10.8 7.3-10.8C541.1 217 544.4 221.9 544.4 227.8z" class="D"/><path d="M544.3 227.8c0 5.9-3.2 10.6-7.2 10.6 -4 0-7.2-4.7-7.2-10.6 0-5.9 3.2-10.6 7.2-10.6C541.1 217.2 544.3 221.9 544.3 227.8z" class="D"/><path d="M544.2 227.8c0 5.8-3.2 10.4-7.1 10.4 -3.9 0-7.1-4.7-7.1-10.4 0-5.8 3.2-10.4 7.1-10.4C541 217.4 544.2 222 544.2 227.8z" class="D"/><path d="M544.1 227.8c0 5.7-3.1 10.3-7 10.3 -3.8 0-7-4.6-7-10.3 0-5.7 3.1-10.3 7-10.3C541 217.5 544.1 222.1 544.1 227.8z" class="D"/><path d="M544 227.8c0 5.6-3.1 10.1-6.8 10.1 -3.8 0-6.8-4.5-6.8-10.1 0-5.6 3.1-10.1 6.8-10.1C540.9 217.7 544 222.2 544 227.8z" class="D"/><path d="M543.9 227.8c0 5.5-3 10-6.7 10 -3.7 0-6.7-4.4-6.7-9.9 0-5.5 3-10 6.7-10C540.9 217.8 543.9 222.3 543.9 227.8z" class="D"/><path d="M543.8 227.8c0 5.4-3 9.8-6.6 9.8 -3.7 0-6.6-4.4-6.6-9.8 0-5.4 3-9.8 6.6-9.8C540.8 218 543.8 222.4 543.8 227.8z" class="D"/><path d="M543.7 227.8c0 5.3-2.9 9.6-6.5 9.6 -3.6 0-6.5-4.3-6.5-9.6 0-5.3 2.9-9.6 6.5-9.6C540.7 218.2 543.7 222.5 543.7 227.8z" class="D"/><path d="M543.5 227.8c0 5.2-2.9 9.5-6.4 9.5 -3.5 0-6.4-4.2-6.4-9.5 0-5.2 2.9-9.5 6.4-9.5C540.7 218.3 543.5 222.6 543.5 227.8z" class="D"/><path d="M543.4 227.8c0 5.1-2.8 9.3-6.3 9.3s-6.3-4.2-6.3-9.3c0-5.1 2.8-9.3 6.3-9.3S543.4 222.7 543.4 227.8z" class="D"/><path d="M543.3 227.8c0 5.1-2.8 9.2-6.2 9.2 -3.4 0-6.2-4.1-6.2-9.2 0-5.1 2.8-9.2 6.2-9.2C540.5 218.6 543.3 222.8 543.3 227.8z" class="D"/><path d="M543.2 227.8c0 5-2.7 9-6.1 9 -3.4 0-6.1-4-6.1-9 0-5 2.7-9 6.1-9C540.5 218.8 543.2 222.8 543.2 227.8z" class="D"/><path d="M543.1 227.8c0 4.9-2.7 8.8-6 8.8 -3.3 0-6-4-6-8.8 0-4.9 2.7-8.8 6-8.8C540.4 219 543.1 222.9 543.1 227.8z" class="D"/><path d="M543 227.8c0 4.8-2.6 8.7-5.9 8.7 -3.2 0-5.9-3.9-5.9-8.7 0-4.8 2.6-8.7 5.9-8.7C540.4 219.1 543 223 543 227.8z" class="D"/><path d="M542.9 227.8c0 4.7-2.6 8.5-5.8 8.5 -3.2 0-5.8-3.8-5.8-8.5 0-4.7 2.6-8.5 5.8-8.5C540.3 219.3 542.9 223.1 542.9 227.8z" class="D"/><path d="M542.8 227.8c0 4.6-2.5 8.4-5.7 8.4 -3.1 0-5.7-3.7-5.7-8.4 0-4.6 2.5-8.4 5.7-8.4C540.2 219.5 542.8 223.2 542.8 227.8z" class="D"/><ellipse cx="537.1" cy="227.8" rx="5.5" ry="8.2" class="D"/><path d="M542.6 227.8c0 4.4-2.4 8-5.4 8s-5.4-3.6-5.4-8c0-4.4 2.4-8 5.4-8S542.6 223.4 542.6 227.8z" class="D"/><path d="M542.5 227.8c0 4.3-2.4 7.9-5.3 7.9 -2.9 0-5.3-3.5-5.3-7.9 0-4.4 2.4-7.9 5.3-7.9C540.1 219.9 542.5 223.5 542.5 227.8z" class="D"/><path d="M542.3 227.8c0 4.3-2.3 7.7-5.2 7.7s-5.2-3.5-5.2-7.7c0-4.3 2.3-7.7 5.2-7.7S542.3 223.5 542.3 227.8z" class="D"/><path d="M542.2 227.8c0 4.2-2.3 7.5-5.1 7.5 -2.8 0-5.1-3.4-5.1-7.5 0-4.2 2.3-7.5 5.1-7.5C539.9 220.3 542.2 223.6 542.2 227.8z" class="D"/><path d="M542.1 227.8c0 4.1-2.2 7.4-5 7.4 -2.8 0-5-3.3-5-7.4 0-4.1 2.2-7.4 5-7.4C539.9 220.4 542.1 223.7 542.1 227.8z" class="D"/><path d="M542 227.8c0 4-2.2 7.2-4.9 7.2 -2.7 0-4.9-3.2-4.9-7.2s2.2-7.2 4.9-7.2C539.8 220.6 542 223.8 542 227.8z" class="D"/><path d="M541.9 227.8c0 3.9-2.1 7.1-4.8 7.1 -2.6 0-4.8-3.2-4.8-7.1 0-3.9 2.1-7.1 4.8-7.1C539.8 220.7 541.9 223.9 541.9 227.8z" class="D"/><ellipse cx="537.1" cy="227.8" rx="4.7" ry="6.9" class="D"/><path d="M541.7 227.8c0 3.7-2 6.7-4.6 6.7s-4.6-3-4.6-6.7c0-3.7 2-6.7 4.6-6.7S541.7 224.1 541.7 227.8z" class="D"/><path d="M541.6 227.8c0 3.6-2 6.6-4.5 6.6 -2.5 0-4.5-2.9-4.5-6.6 0-3.6 2-6.6 4.5-6.6C539.6 221.2 541.6 224.2 541.6 227.8z" class="D"/><path d="M541.5 227.8c0 3.5-1.9 6.4-4.3 6.4s-4.3-2.9-4.3-6.4c0-3.5 1.9-6.4 4.3-6.4S541.5 224.3 541.5 227.8z" class="D"/><path d="M541.4 227.8c0 3.5-1.9 6.3-4.2 6.3 -2.3 0-4.2-2.8-4.2-6.3 0-3.5 1.9-6.3 4.2-6.3C539.5 221.5 541.4 224.3 541.4 227.8z" class="D"/><path d="M541.3 227.8c0 3.4-1.8 6.1-4.1 6.1 -2.3 0-4.1-2.7-4.1-6.1 0-3.4 1.9-6.1 4.1-6.1C539.4 221.7 541.3 224.4 541.3 227.8z" class="D"/><path d="M541.1 227.8c0 3.3-1.8 5.9-4 5.9 -2.2 0-4-2.7-4-5.9 0-3.3 1.8-5.9 4-5.9C539.4 221.9 541.1 224.5 541.1 227.8z" class="D"/><path d="M541 227.8c0 3.2-1.7 5.8-3.9 5.8 -2.2 0-3.9-2.6-3.9-5.8 0-3.2 1.8-5.8 3.9-5.8C539.3 222 541 224.6 541 227.8z" class="D"/><path d="M540.9 227.8c0 3.1-1.7 5.6-3.8 5.6 -2.1 0-3.8-2.5-3.8-5.6 0-3.1 1.7-5.6 3.8-5.6C539.2 222.2 540.9 224.7 540.9 227.8z" class="D"/><path d="M540.8 227.8c0 3-1.6 5.5-3.7 5.5 -2 0-3.7-2.4-3.7-5.5 0-3 1.7-5.5 3.7-5.5C539.2 222.3 540.8 224.8 540.8 227.8z" class="D"/><path d="M540.7 227.8c0 2.9-1.6 5.3-3.6 5.3 -2 0-3.6-2.4-3.6-5.3 0-2.9 1.6-5.3 3.6-5.3C539.1 222.5 540.7 224.9 540.7 227.8z" class="D"/><path d="M540.6 227.8c0 2.8-1.6 5.1-3.5 5.1s-3.5-2.3-3.5-5.1c0-2.8 1.6-5.1 3.5-5.1S540.6 225 540.6 227.8z" class="D"/><path d="M540.5 227.8c0 2.7-1.5 5-3.4 5 -1.9 0-3.4-2.2-3.4-5 0-2.8 1.5-5 3.4-5C539 222.8 540.5 225.1 540.5 227.8z" class="D"/><path d="M540.4 227.8c0 2.7-1.5 4.8-3.3 4.8 -1.8 0-3.3-2.2-3.3-4.8 0-2.7 1.5-4.8 3.3-4.8C538.9 223 540.4 225.1 540.4 227.8z" class="D"/><path d="M540.3 227.8c0 2.6-1.4 4.7-3.2 4.7 -1.7 0-3.2-2.1-3.2-4.7 0-2.6 1.4-4.7 3.2-4.7C538.9 223.1 540.3 225.2 540.3 227.8z" class="D"/><path d="M540.2 227.8c0 2.5-1.4 4.5-3 4.5 -1.7 0-3-2-3-4.5 0-2.5 1.4-4.5 3-4.5C538.8 223.3 540.2 225.3 540.2 227.8z" class="D"/><path d="M540.1 227.8c0 2.4-1.3 4.3-2.9 4.3s-2.9-1.9-2.9-4.3c0-2.4 1.3-4.3 2.9-4.3S540.1 225.4 540.1 227.8z" class="D"/><path d="M540 227.8c0 2.3-1.3 4.2-2.8 4.2 -1.6 0-2.8-1.9-2.8-4.2 0-2.3 1.3-4.2 2.8-4.2C538.7 223.6 540 225.5 540 227.8z" class="D"/><path d="M539.8 227.8c0 2.2-1.2 4-2.7 4s-2.7-1.8-2.7-4c0-2.2 1.2-4 2.7-4S539.8 225.6 539.8 227.8z" class="D"/><path d="M539.7 227.8c0 2.1-1.2 3.9-2.6 3.9s-2.6-1.7-2.6-3.9c0-2.1 1.2-3.9 2.6-3.9S539.7 225.7 539.7 227.8z" class="D"/><path d="M539.6 227.8c0 2-1.1 3.7-2.5 3.7 -1.4 0-2.5-1.7-2.5-3.7 0-2 1.1-3.7 2.5-3.7C538.5 224.1 539.6 225.8 539.6 227.8z" class="D"/><path d="M539.5 227.8c0 1.9-1.1 3.5-2.4 3.5 -1.3 0-2.4-1.6-2.4-3.5 0-2 1.1-3.5 2.4-3.5C538.4 224.3 539.5 225.9 539.5 227.8z" class="D"/><path d="M539.4 227.8c0 1.9-1 3.4-2.3 3.4 -1.3 0-2.3-1.5-2.3-3.4 0-1.9 1-3.4 2.3-3.4C538.4 224.4 539.4 225.9 539.4 227.8z" class="D"/><path d="M539.3 227.8c0 1.8-1 3.2-2.2 3.2s-2.2-1.4-2.2-3.2c0-1.8 1-3.2 2.2-3.2S539.3 226 539.3 227.8z" class="D"/><path d="M539.2 227.8c0 1.7-0.9 3.1-2.1 3.1s-2.1-1.4-2.1-3.1c0-1.7 0.9-3.1 2.1-3.1S539.2 226.1 539.2 227.8z" class="D"/><path d="M539.1 227.8c0 1.6-0.9 2.9-2 2.9 -1.1 0-2-1.3-2-2.9 0-1.6 0.9-2.9 2-2.9C538.2 224.9 539.1 226.2 539.1 227.8z" class="D"/><path d="M539 227.8c0 1.5-0.8 2.7-1.9 2.7 -1 0-1.8-1.2-1.8-2.7 0-1.5 0.8-2.7 1.8-2.7C538.1 225.1 539 226.3 539 227.8z" class="D"/><path d="M538.9 227.8c0 1.4-0.8 2.6-1.7 2.6 -1 0-1.7-1.1-1.7-2.6 0-1.4 0.8-2.6 1.7-2.6C538.1 225.2 538.9 226.4 538.9 227.8z" class="D"/><path d="M538.8 227.8c0 1.3-0.7 2.4-1.6 2.4 -0.9 0-1.6-1.1-1.6-2.4 0-1.3 0.7-2.4 1.6-2.4C538 225.4 538.8 226.5 538.8 227.8z" class="D"/><path d="M538.6 227.8c0 1.2-0.7 2.2-1.5 2.2 -0.8 0-1.5-1-1.5-2.2 0-1.2 0.7-2.2 1.5-2.2C538 225.6 538.6 226.6 538.6 227.8z" class="D"/><path d="M538.5 227.8c0 1.1-0.6 2.1-1.4 2.1 -0.8 0-1.4-0.9-1.4-2.1 0-1.2 0.6-2.1 1.4-2.1C537.9 225.7 538.5 226.7 538.5 227.8z" class="D"/><path d="M538.4 227.8c0 1.1-0.6 1.9-1.3 1.9 -0.7 0-1.3-0.9-1.3-1.9 0-1.1 0.6-1.9 1.3-1.9C537.9 225.9 538.4 226.7 538.4 227.8z" class="D"/><path d="M538.3 227.8c0 1-0.5 1.8-1.2 1.8 -0.7 0-1.2-0.8-1.2-1.8 0-1 0.5-1.8 1.2-1.8C537.8 226 538.3 226.8 538.3 227.8z" class="D"/><path d="M538.2 227.8c0 0.9-0.5 1.6-1.1 1.6 -0.6 0-1.1-0.7-1.1-1.6 0-0.9 0.5-1.6 1.1-1.6C537.7 226.2 538.2 226.9 538.2 227.8z" class="D"/><path d="M538.1 227.8c0 0.8-0.4 1.4-1 1.4s-1-0.6-1-1.4c0-0.8 0.4-1.4 1-1.4S538.1 227 538.1 227.8z" class="D"/><path d="M538 227.8c0 0.7-0.4 1.3-0.9 1.3 -0.5 0-0.9-0.6-0.9-1.3 0-0.7 0.4-1.3 0.9-1.3C537.6 226.5 538 227.1 538 227.8z" class="D"/><path d="M537.9 227.8c0 0.6-0.3 1.1-0.8 1.1s-0.8-0.5-0.8-1.1c0-0.6 0.3-1.1 0.8-1.1S537.9 227.2 537.9 227.8z" class="D"/><path d="M537.8 227.8c0 0.5-0.3 1-0.7 1 -0.4 0-0.6-0.4-0.6-1 0-0.5 0.3-1 0.6-1C537.5 226.8 537.8 227.3 537.8 227.8z" class="D"/><path d="M537.7 227.8c0 0.4-0.2 0.8-0.5 0.8s-0.5-0.4-0.5-0.8c0-0.4 0.2-0.8 0.5-0.8S537.7 227.4 537.7 227.8z" class="D"/><path d="M537.6 227.8c0 0.4-0.2 0.6-0.4 0.6s-0.4-0.3-0.4-0.6c0-0.4 0.2-0.6 0.4-0.6S537.6 227.4 537.6 227.8z" class="D"/><path d="M537.5 227.8c0 0.3-0.1 0.5-0.3 0.5 -0.2 0-0.3-0.2-0.3-0.5 0-0.3 0.1-0.5 0.3-0.5C537.3 227.3 537.5 227.5 537.5 227.8z" class="D"/><path d="M537.3 227.8c0 0.2-0.1 0.3-0.2 0.3 -0.1 0-0.2-0.1-0.2-0.3 0-0.2 0.1-0.3 0.2-0.3C537.2 227.5 537.3 227.6 537.3 227.8z" class="D"/><path d="M537.2 227.8c0 0.1-0.1 0.2-0.1 0.2s-0.1-0.1-0.1-0.2c0-0.1 0-0.2 0.1-0.2S537.2 227.7 537.2 227.8z" class="D"/></g></g><rect x="527.4" y="219.9" width="18.5" height="3.2" class="b"/></g><g><g><polygon points="509.4 374.8 506 374.8 506 340.3 514.1 340.3 " class="E"/><polygon points="563.9 374.8 567.3 374.8 567.3 340.3 559.2 340.3 " class="E"/></g><g><rect x="502.7" y="297.9" width="68" height="42.4" class="c"/><rect x="509.5" y="300.6" width="54.4" height="13.1" class="F"/><rect x="509.5" y="318.7" width="54.4" height="18.4" class="G"/></g><path d="M548.7 326c-0.6 0-1.2-0.4-1.4-0.9h-21.2c-0.2 0.5-0.8 0.9-1.4 0.9 -0.9 0-1.6-0.7-1.6-1.6 0-0.9 0.7-1.6 1.6-1.6 0.6 0 1.2 0.4 1.4 0.9h21.2c0.2-0.5 0.8-0.9 1.4-0.9 0.9 0 1.6 0.7 1.6 1.6C550.3 325.3 549.6 326 548.7 326z" class="H"/></g></g><g><g><rect x="218.9" y="221.5" width="13" height="6.1" class="A"/><rect x="223.8" y="227.5" width="3.1" height="66.1" class="b"/><polygon points="222.5 292.5 228.2 292.5 240 297.9 210.8 297.9 " class="b"/><g><g><defs><polygon points="209.1 271.6 241.6 271.6 235.6 224.7 215.2 224.7 "/></defs><use xlink:href="#SVGID_3_" class="B"/><clipPath><use xlink:href="#SVGID_3_" class="C"/></clipPath><path d="M211 227.8c0 11.4 6.2 20.6 13.9 20.6 7.7 0 13.9-9.2 13.9-20.6 0-5.7-1.6-10.8-4.1-14.5v9.5h-19.7v-9.5C212.5 217 211 222.1 211 227.8z" class="I"/><path d="M211.1 227.8c0 11.3 6.2 20.4 13.8 20.4 7.6 0 13.8-9.1 13.8-20.4 0-5.6-1.5-10.7-4-14.4v9.4H215.1v-9.4C212.6 217.1 211.1 222.2 211.1 227.8z" class="I"/><path d="M211.2 227.8c0 11.2 6.1 20.2 13.7 20.2 7.6 0 13.7-9.1 13.7-20.2 0-5.6-1.5-10.7-4-14.3v9.3h-19.4v-9.3C212.7 217.2 211.2 222.2 211.2 227.8z" class="I"/><path d="M211.3 227.8c0 11.1 6.1 20.1 13.6 20.1s13.6-9 13.6-20.1c0-5.5-1.5-10.6-4-14.2v9.1h-19.2v-9.1C212.8 217.2 211.3 222.3 211.3 227.8z" class="I"/><path d="M211.4 227.8c0 11 6 19.9 13.5 19.9 7.4 0 13.5-8.9 13.5-19.9 0-5.5-1.5-10.5-3.9-14.1v9h-19.1v-9C212.9 217.3 211.4 222.3 211.4 227.8z" class="I"/><path d="M211.5 227.8c0 10.9 6 19.8 13.4 19.8 7.4 0 13.4-8.8 13.4-19.8 0-5.5-1.5-10.4-3.9-14v8.9h-18.9v-8.9C213 217.4 211.5 222.4 211.5 227.8z" class="I"/><path d="M211.6 227.8c0 10.8 5.9 19.6 13.3 19.6 7.3 0 13.3-8.8 13.3-19.6 0-5.4-1.5-10.3-3.9-13.9v8.8h-18.8v-8.8C213.1 217.5 211.6 222.4 211.6 227.8z" class="I"/><path d="M211.8 227.8c0 10.7 5.9 19.4 13.2 19.4 7.3 0 13.1-8.7 13.1-19.4 0-5.4-1.5-10.2-3.8-13.7v8.7h-18.6v-8.7C213.2 217.6 211.8 222.4 211.8 227.8z" class="I"/><path d="M211.9 227.8c0 10.6 5.8 19.3 13 19.3 7.2 0 13-8.6 13-19.3 0-5.3-1.5-10.1-3.8-13.6v8.6h-18.4v-8.6C213.3 217.7 211.9 222.5 211.9 227.8z" class="I"/><path d="M212 227.8c0 10.6 5.8 19.1 12.9 19.1 7.1 0 12.9-8.6 12.9-19.1 0-5.3-1.4-10.1-3.8-13.5v8.5h-18.3v-8.5C213.4 217.8 212 222.5 212 227.8z" class="I"/><path d="M212.1 227.8c0 10.5 5.7 19 12.8 19 7.1 0 12.8-8.5 12.8-19 0-5.2-1.4-10-3.8-13.4v8.3h-18.1v-8.3C213.5 217.8 212.1 222.6 212.1 227.8z" class="I"/><path d="M212.2 227.8c0 10.4 5.7 18.8 12.7 18.8 7 0 12.7-8.4 12.7-18.8 0-5.2-1.4-9.9-3.7-13.3v8.2h-18v-8.2C213.6 217.9 212.2 222.6 212.2 227.8z" class="I"/><path d="M212.3 227.8c0 10.3 5.6 18.6 12.6 18.6 7 0 12.6-8.3 12.6-18.6 0-5.1-1.4-9.8-3.7-13.2v8.1H216v-8.1C213.7 218 212.3 222.7 212.3 227.8z" class="I"/><path d="M212.4 227.8c0 10.2 5.6 18.5 12.5 18.5 6.9 0 12.5-8.3 12.5-18.5 0-5.1-1.4-9.7-3.7-13.1v8h-17.7v-8C213.8 218.1 212.4 222.7 212.4 227.8z" class="I"/><path d="M212.5 227.8c0 10.1 5.5 18.3 12.4 18.3 6.8 0 12.4-8.2 12.4-18.3 0-10.1-5.6-18.3-12.4-18.3C218.1 209.5 212.5 217.7 212.5 227.8z" class="I"/><path d="M212.6 227.8c0 10 5.5 18.1 12.3 18.1 6.8 0 12.3-8.1 12.3-18.1 0-10-5.5-18.1-12.3-18.1C218.1 209.7 212.6 217.8 212.6 227.8z" class="I"/><path d="M212.7 227.8c0 9.9 5.5 18 12.2 18 6.7 0 12.2-8 12.2-18 0-9.9-5.4-18-12.2-18C218.2 209.8 212.7 217.9 212.7 227.8z" class="I"/><path d="M212.8 227.8c0 9.8 5.4 17.8 12.1 17.8 6.7 0 12.1-8 12.1-17.8 0-9.8-5.4-17.8-12.1-17.8C218.2 210 212.8 218 212.8 227.8z" class="I"/><path d="M212.9 227.8c0 9.8 5.4 17.7 12 17.7 6.6 0 12-7.9 12-17.7 0-9.8-5.4-17.7-12-17.7C218.3 210.1 212.9 218.1 212.9 227.8z" class="I"/><path d="M213.1 227.8c0 9.7 5.3 17.5 11.8 17.5 6.5 0 11.8-7.8 11.8-17.5 0-9.7-5.3-17.5-11.8-17.5C218.4 210.3 213.1 218.1 213.1 227.8z" class="I"/><path d="M213.2 227.8c0 9.6 5.3 17.3 11.7 17.3 6.5 0 11.7-7.8 11.7-17.3 0-9.6-5.3-17.4-11.7-17.4C218.4 210.5 213.2 218.2 213.2 227.8z" class="I"/><path d="M213.3 227.8c0 9.5 5.2 17.2 11.6 17.2 6.4 0 11.6-7.7 11.6-17.2 0-9.5-5.2-17.2-11.6-17.2C218.5 210.6 213.3 218.3 213.3 227.8z" class="I"/><path d="M213.4 227.8c0 9.4 5.2 17 11.5 17 6.4 0 11.5-7.6 11.5-17 0-9.4-5.2-17-11.5-17C218.5 210.8 213.4 218.4 213.4 227.8z" class="I"/><path d="M213.5 227.8c0 9.3 5.1 16.9 11.4 16.9 6.3 0 11.4-7.6 11.4-16.9 0-9.3-5.1-16.9-11.4-16.9C218.6 210.9 213.5 218.5 213.5 227.8z" class="I"/><path d="M213.6 227.8c0 9.2 5.1 16.7 11.3 16.7 6.2 0 11.3-7.5 11.3-16.7 0-9.2-5.1-16.7-11.3-16.7C218.7 211.1 213.6 218.6 213.6 227.8z" class="I"/><path d="M213.7 227.8c0 9.1 5 16.5 11.2 16.5 6.2 0 11.2-7.4 11.2-16.5 0-9.1-5-16.5-11.2-16.5C218.7 211.3 213.7 218.7 213.7 227.8z" class="I"/><path d="M213.8 227.8c0 9 5 16.4 11.1 16.4s11.1-7.3 11.1-16.4c0-9-5-16.4-11.1-16.4S213.8 218.8 213.8 227.8z" class="I"/><ellipse cx="224.9" cy="227.8" rx="11" ry="16.2" class="I"/><path d="M214 227.8c0 8.9 4.9 16.1 10.9 16.1 6 0 10.9-7.2 10.9-16.1 0-8.9-4.9-16.1-10.9-16.1C218.9 211.7 214 218.9 214 227.8z" class="I"/><path d="M214.1 227.8c0 8.8 4.8 15.9 10.8 15.9 5.9 0 10.8-7.1 10.8-15.9 0-8.8-4.8-15.9-10.8-15.9C219 211.9 214.1 219 214.1 227.8z" class="I"/><path d="M214.3 227.8c0 8.7 4.8 15.7 10.7 15.7 5.9 0 10.6-7 10.6-15.7 0-8.7-4.8-15.7-10.6-15.7C219 212.1 214.3 219.1 214.3 227.8z" class="I"/><path d="M214.4 227.8c0 8.6 4.7 15.6 10.5 15.6s10.5-7 10.5-15.6c0-8.6-4.7-15.6-10.5-15.6S214.4 219.2 214.4 227.8z" class="I"/><path d="M214.5 227.8c0 8.5 4.7 15.4 10.4 15.4 5.8 0 10.4-6.9 10.4-15.4 0-8.5-4.7-15.4-10.4-15.4C219.1 212.4 214.5 219.3 214.5 227.8z" class="I"/><path d="M214.6 227.8c0 8.4 4.6 15.3 10.3 15.3 5.7 0 10.3-6.8 10.3-15.3 0-8.4-4.6-15.3-10.3-15.3C219.2 212.5 214.6 219.4 214.6 227.8z" class="I"/><path d="M214.7 227.8c0 8.3 4.6 15.1 10.2 15.1 5.6 0 10.2-6.8 10.2-15.1 0-8.3-4.6-15.1-10.2-15.1C219.3 212.7 214.7 219.5 214.7 227.8z" class="I"/><ellipse cx="224.9" cy="227.8" rx="10.1" ry="14.9" class="I"/><ellipse cx="224.9" cy="227.8" rx="10" ry="14.8" class="I"/><path d="M215 227.8c0 8.1 4.4 14.6 9.9 14.6 5.5 0 9.9-6.5 9.9-14.6 0-8.1-4.4-14.6-9.9-14.6C219.4 213.2 215 219.7 215 227.8z" class="I"/><path d="M215.1 227.8c0 8 4.4 14.5 9.8 14.5 5.4 0 9.8-6.5 9.8-14.5 0-8-4.4-14.5-9.8-14.5C219.5 213.3 215.1 219.8 215.1 227.8z" class="I"/><path d="M215.2 227.8c0 7.9 4.3 14.3 9.7 14.3 5.3 0 9.7-6.4 9.7-14.3 0-7.9-4.3-14.3-9.7-14.3C219.6 213.5 215.2 219.9 215.2 227.8z" class="I"/><path d="M215.3 227.8c0 7.8 4.3 14.1 9.6 14.1 5.3 0 9.6-6.3 9.6-14.1 0-7.8-4.3-14.1-9.6-14.1C219.6 213.7 215.3 220 215.3 227.8z" class="I"/><path d="M215.4 227.8c0 7.7 4.2 14 9.5 14 5.2 0 9.5-6.3 9.5-14 0-7.7-4.2-14-9.5-14C219.7 213.8 215.4 220.1 215.4 227.8z" class="I"/><path d="M215.6 227.8c0 7.6 4.2 13.8 9.3 13.8 5.2 0 9.3-6.2 9.3-13.8 0-7.6-4.2-13.8-9.3-13.8C219.7 214 215.6 220.2 215.6 227.8z" class="I"/><path d="M215.7 227.8c0 7.5 4.1 13.7 9.2 13.7 5.1 0 9.2-6.1 9.2-13.7 0-7.5-4.1-13.7-9.2-13.7C219.8 214.2 215.7 220.3 215.7 227.8z" class="I"/><path d="M215.8 227.8c0 7.4 4.1 13.5 9.1 13.5 5 0 9.1-6 9.1-13.5 0-7.5-4.1-13.5-9.1-13.5C219.9 214.3 215.8 220.4 215.8 227.8z" class="I"/><path d="M215.9 227.8c0 7.4 4 13.3 9 13.3 5 0 9-6 9-13.3 0-7.4-4-13.3-9-13.3C219.9 214.5 215.9 220.4 215.9 227.8z" class="I"/><path d="M216 227.8c0 7.3 4 13.2 8.9 13.2 4.9 0 8.9-5.9 8.9-13.2 0-7.3-4-13.2-8.9-13.2C220 214.6 216 220.5 216 227.8z" class="I"/><path d="M216.1 227.8c0 7.2 3.9 13 8.8 13 4.9 0 8.8-5.8 8.8-13 0-7.2-3.9-13-8.8-13C220 214.8 216.1 220.6 216.1 227.8z" class="I"/><path d="M216.2 227.8c0 7.1 3.9 12.8 8.7 12.8 4.8 0 8.7-5.8 8.7-12.8 0-7.1-3.9-12.8-8.7-12.8C220.1 215 216.2 220.7 216.2 227.8z" class="I"/><path d="M216.3 227.8c0 7 3.8 12.7 8.6 12.7s8.6-5.7 8.6-12.7c0-7-3.8-12.7-8.6-12.7S216.3 220.8 216.3 227.8z" class="I"/><path d="M216.4 227.8c0 6.9 3.8 12.5 8.5 12.5 4.7 0 8.5-5.6 8.5-12.5 0-6.9-3.8-12.5-8.5-12.5C220.2 215.3 216.4 220.9 216.4 227.8z" class="I"/><path d="M216.5 227.8c0 6.8 3.7 12.4 8.4 12.4 4.6 0 8.4-5.5 8.4-12.4 0-6.8-3.7-12.4-8.4-12.4C220.3 215.4 216.5 221 216.5 227.8z" class="I"/><ellipse cx="224.9" cy="227.8" rx="8.3" ry="12.2" class="I"/><path d="M216.8 227.8c0 6.7 3.7 12 8.2 12 4.5 0 8.2-5.4 8.2-12 0-6.7-3.7-12.1-8.2-12.1C220.4 215.8 216.8 221.2 216.8 227.8z" class="I"/><ellipse cx="224.9" cy="227.8" rx="8" ry="11.9" class="I"/><path d="M217 227.8c0 6.5 3.6 11.7 7.9 11.7 4.4 0 7.9-5.2 7.9-11.7 0-6.5-3.6-11.7-7.9-11.7C220.5 216.1 217 221.3 217 227.8z" class="I"/><path d="M217.1 227.8c0 6.4 3.5 11.6 7.8 11.6 4.3 0 7.8-5.2 7.8-11.6 0-6.4-3.5-11.6-7.8-11.6C220.6 216.2 217.1 221.4 217.1 227.8z" class="I"/><path d="M217.2 227.8c0 6.3 3.5 11.4 7.7 11.4 4.3 0 7.7-5.1 7.7-11.4 0-6.3-3.5-11.4-7.7-11.4C220.6 216.4 217.2 221.5 217.2 227.8z" class="I"/><path d="M217.3 227.8c0 6.2 3.4 11.2 7.6 11.2 4.2 0 7.6-5 7.6-11.2 0-6.2-3.4-11.2-7.6-11.2C220.7 216.6 217.3 221.6 217.3 227.8z" class="I"/><path d="M217.4 227.8c0 6.1 3.4 11.1 7.5 11.1s7.5-5 7.5-11.1c0-6.1-3.4-11.1-7.5-11.1S217.4 221.7 217.4 227.8z" class="I"/><path d="M217.5 227.8c0 6 3.3 10.9 7.4 10.9 4.1 0 7.4-4.9 7.4-10.9 0-6-3.3-10.9-7.4-10.9C220.8 216.9 217.5 221.8 217.5 227.8z" class="I"/><path d="M217.6 227.8c0 5.9 3.3 10.8 7.3 10.8 4 0 7.3-4.8 7.3-10.8 0-5.9-3.3-10.8-7.3-10.8C220.9 217 217.6 221.9 217.6 227.8z" class="I"/><path d="M217.7 227.8c0 5.9 3.2 10.6 7.2 10.6 4 0 7.2-4.7 7.2-10.6 0-5.9-3.2-10.6-7.2-10.6C220.9 217.2 217.7 221.9 217.7 227.8z" class="I"/><path d="M217.8 227.8c0 5.8 3.2 10.4 7.1 10.4 3.9 0 7.1-4.7 7.1-10.4 0-5.8-3.2-10.4-7.1-10.4C221 217.4 217.8 222 217.8 227.8z" class="I"/><path d="M217.9 227.8c0 5.7 3.1 10.3 7 10.3 3.8 0 7-4.6 7-10.3 0-5.7-3.1-10.3-7-10.3C221.1 217.5 217.9 222.1 217.9 227.8z" class="I"/><path d="M218.1 227.8c0 5.6 3.1 10.1 6.8 10.1 3.8 0 6.8-4.5 6.8-10.1 0-5.6-3.1-10.1-6.8-10.1C221.1 217.7 218.1 222.2 218.1 227.8z" class="I"/><path d="M218.2 227.8c0 5.5 3 10 6.7 10 3.7 0 6.7-4.4 6.7-9.9 0-5.5-3-10-6.7-10C221.2 217.8 218.2 222.3 218.2 227.8z" class="I"/><path d="M218.3 227.8c0 5.4 3 9.8 6.6 9.8 3.7 0 6.6-4.4 6.6-9.8 0-5.4-3-9.8-6.6-9.8C221.2 218 218.3 222.4 218.3 227.8z" class="I"/><path d="M218.4 227.8c0 5.3 2.9 9.6 6.5 9.6 3.6 0 6.5-4.3 6.5-9.6 0-5.3-2.9-9.6-6.5-9.6C221.3 218.2 218.4 222.5 218.4 227.8z" class="I"/><path d="M218.5 227.8c0 5.2 2.9 9.5 6.4 9.5 3.5 0 6.4-4.2 6.4-9.5 0-5.2-2.9-9.5-6.4-9.5C221.4 218.3 218.5 222.6 218.5 227.8z" class="I"/><path d="M218.6 227.8c0 5.1 2.8 9.3 6.3 9.3 3.5 0 6.3-4.2 6.3-9.3 0-5.1-2.8-9.3-6.3-9.3C221.4 218.5 218.6 222.7 218.6 227.8z" class="I"/><path d="M218.7 227.8c0 5.1 2.8 9.2 6.2 9.2 3.4 0 6.2-4.1 6.2-9.2 0-5.1-2.8-9.2-6.2-9.2C221.5 218.6 218.7 222.8 218.7 227.8z" class="I"/><path d="M218.8 227.8c0 5 2.7 9 6.1 9s6.1-4 6.1-9c0-5-2.7-9-6.1-9S218.8 222.8 218.8 227.8z" class="I"/><path d="M218.9 227.8c0 4.9 2.7 8.8 6 8.8 3.3 0 6-4 6-8.8 0-4.9-2.7-8.8-6-8.8C221.6 219 218.9 222.9 218.9 227.8z" class="I"/><path d="M219 227.8c0 4.8 2.6 8.7 5.9 8.7 3.2 0 5.9-3.9 5.9-8.7 0-4.8-2.6-8.7-5.9-8.7C221.7 219.1 219 223 219 227.8z" class="I"/><path d="M219.1 227.8c0 4.7 2.6 8.5 5.8 8.5 3.2 0 5.8-3.8 5.8-8.5 0-4.7-2.6-8.5-5.8-8.5C221.7 219.3 219.1 223.1 219.1 227.8z" class="I"/><path d="M219.3 227.8c0 4.6 2.5 8.4 5.7 8.4 3.1 0 5.7-3.7 5.7-8.4 0-4.6-2.5-8.4-5.7-8.4C221.8 219.5 219.3 223.2 219.3 227.8z" class="I"/><ellipse cx="224.9" cy="227.8" rx="5.5" ry="8.2" class="I"/><path d="M219.5 227.8c0 4.4 2.4 8 5.4 8 3 0 5.4-3.6 5.4-8 0-4.4-2.4-8-5.4-8C221.9 219.8 219.5 223.4 219.5 227.8z" class="I"/><path d="M219.6 227.8c0 4.3 2.4 7.9 5.3 7.9 2.9 0 5.3-3.5 5.3-7.9 0-4.4-2.4-7.9-5.3-7.9C222 219.9 219.6 223.5 219.6 227.8z" class="I"/><path d="M219.7 227.8c0 4.3 2.3 7.7 5.2 7.7 2.9 0 5.2-3.5 5.2-7.7 0-4.3-2.3-7.7-5.2-7.7C222 220.1 219.7 223.5 219.7 227.8z" class="I"/><path d="M219.8 227.8c0 4.2 2.3 7.5 5.1 7.5 2.8 0 5.1-3.4 5.1-7.5 0-4.2-2.3-7.5-5.1-7.5C222.1 220.3 219.8 223.6 219.8 227.8z" class="I"/><path d="M219.9 227.8c0 4.1 2.2 7.4 5 7.4 2.8 0 5-3.3 5-7.4 0-4.1-2.2-7.4-5-7.4C222.1 220.4 219.9 223.7 219.9 227.8z" class="I"/><path d="M220 227.8c0 4 2.2 7.2 4.9 7.2 2.7 0 4.9-3.2 4.9-7.2s-2.2-7.2-4.9-7.2C222.2 220.6 220 223.8 220 227.8z" class="I"/><path d="M220.1 227.8c0 3.9 2.1 7.1 4.8 7.1 2.6 0 4.8-3.2 4.8-7.1 0-3.9-2.1-7.1-4.8-7.1C222.3 220.7 220.1 223.9 220.1 227.8z" class="I"/><ellipse cx="224.9" cy="227.8" rx="4.7" ry="6.9" class="I"/><path d="M220.3 227.8c0 3.7 2 6.7 4.6 6.7 2.5 0 4.6-3 4.6-6.7 0-3.7-2-6.7-4.6-6.7C222.4 221.1 220.3 224.1 220.3 227.8z" class="I"/><ellipse cx="224.9" cy="227.8" rx="4.5" ry="6.6" class="I"/><path d="M220.6 227.8c0 3.5 1.9 6.4 4.3 6.4 2.4 0 4.3-2.9 4.3-6.4 0-3.5-1.9-6.4-4.3-6.4C222.5 221.4 220.6 224.3 220.6 227.8z" class="I"/><path d="M220.7 227.8c0 3.5 1.9 6.3 4.2 6.3 2.3 0 4.2-2.8 4.2-6.3 0-3.5-1.9-6.3-4.2-6.3C222.6 221.5 220.7 224.3 220.7 227.8z" class="I"/><path d="M220.8 227.8c0 3.4 1.8 6.1 4.1 6.1 2.3 0 4.1-2.7 4.1-6.1 0-3.4-1.9-6.1-4.1-6.1C222.6 221.7 220.8 224.4 220.8 227.8z" class="I"/><path d="M220.9 227.8c0 3.3 1.8 5.9 4 5.9 2.2 0 4-2.7 4-5.9 0-3.3-1.8-5.9-4-5.9C222.7 221.9 220.9 224.5 220.9 227.8z" class="I"/><path d="M221 227.8c0 3.2 1.7 5.8 3.9 5.8 2.2 0 3.9-2.6 3.9-5.8 0-3.2-1.8-5.8-3.9-5.8C222.7 222 221 224.6 221 227.8z" class="I"/><path d="M221.1 227.8c0 3.1 1.7 5.6 3.8 5.6 2.1 0 3.8-2.5 3.8-5.6 0-3.1-1.7-5.6-3.8-5.6C222.8 222.2 221.1 224.7 221.1 227.8z" class="I"/><path d="M221.2 227.8c0 3 1.7 5.5 3.7 5.5 2 0 3.7-2.4 3.7-5.5 0-3-1.7-5.5-3.7-5.5C222.9 222.3 221.2 224.8 221.2 227.8z" class="I"/><path d="M221.3 227.8c0 2.9 1.6 5.3 3.6 5.3 2 0 3.6-2.4 3.6-5.3 0-2.9-1.6-5.3-3.6-5.3C222.9 222.5 221.3 224.9 221.3 227.8z" class="I"/><path d="M221.4 227.8c0 2.8 1.6 5.1 3.5 5.1 1.9 0 3.5-2.3 3.5-5.1 0-2.8-1.6-5.1-3.5-5.1C223 222.7 221.4 225 221.4 227.8z" class="I"/><path d="M221.5 227.8c0 2.7 1.5 5 3.4 5 1.9 0 3.4-2.2 3.4-5 0-2.8-1.5-5-3.4-5C223 222.8 221.5 225.1 221.5 227.8z" class="I"/><path d="M221.6 227.8c0 2.7 1.5 4.8 3.3 4.8 1.8 0 3.3-2.2 3.3-4.8 0-2.7-1.5-4.8-3.3-4.8C223.1 223 221.6 225.1 221.6 227.8z" class="I"/><path d="M221.8 227.8c0 2.6 1.4 4.7 3.2 4.7 1.7 0 3.2-2.1 3.2-4.7 0-2.6-1.4-4.7-3.2-4.7C223.2 223.1 221.8 225.2 221.8 227.8z" class="I"/><path d="M221.9 227.8c0 2.5 1.4 4.5 3 4.5s3-2 3-4.5c0-2.5-1.4-4.5-3-4.5S221.9 225.3 221.9 227.8z" class="I"/><path d="M222 227.8c0 2.4 1.3 4.3 2.9 4.3 1.6 0 2.9-1.9 2.9-4.3 0-2.4-1.3-4.3-2.9-4.3C223.3 223.5 222 225.4 222 227.8z" class="I"/><path d="M222.1 227.8c0 2.3 1.3 4.2 2.8 4.2 1.6 0 2.8-1.9 2.8-4.2 0-2.3-1.3-4.2-2.8-4.2C223.3 223.6 222.1 225.5 222.1 227.8z" class="I"/><path d="M222.2 227.8c0 2.2 1.2 4 2.7 4 1.5 0 2.7-1.8 2.7-4 0-2.2-1.2-4-2.7-4C223.4 223.8 222.2 225.6 222.2 227.8z" class="I"/><path d="M222.3 227.8c0 2.1 1.2 3.9 2.6 3.9 1.4 0 2.6-1.7 2.6-3.9 0-2.1-1.2-3.9-2.6-3.9C223.5 223.9 222.3 225.7 222.3 227.8z" class="I"/><path d="M222.4 227.8c0 2 1.1 3.7 2.5 3.7s2.5-1.7 2.5-3.7c0-2-1.1-3.7-2.5-3.7S222.4 225.8 222.4 227.8z" class="I"/><path d="M222.5 227.8c0 1.9 1.1 3.5 2.4 3.5 1.3 0 2.4-1.6 2.4-3.5 0-2-1.1-3.5-2.4-3.5C223.6 224.3 222.5 225.9 222.5 227.8z" class="I"/><path d="M222.6 227.8c0 1.9 1 3.4 2.3 3.4 1.3 0 2.3-1.5 2.3-3.4 0-1.9-1-3.4-2.3-3.4C223.6 224.4 222.6 225.9 222.6 227.8z" class="I"/><path d="M222.7 227.8c0 1.8 1 3.2 2.2 3.2 1.2 0 2.2-1.4 2.2-3.2 0-1.8-1-3.2-2.2-3.2C223.7 224.6 222.7 226 222.7 227.8z" class="I"/><path d="M222.8 227.8c0 1.7 0.9 3.1 2.1 3.1 1.1 0 2.1-1.4 2.1-3.1 0-1.7-0.9-3.1-2.1-3.1C223.8 224.8 222.8 226.1 222.8 227.8z" class="I"/><path d="M222.9 227.8c0 1.6 0.9 2.9 2 2.9s2-1.3 2-2.9c0-1.6-0.9-2.9-2-2.9S222.9 226.2 222.9 227.8z" class="I"/><path d="M223.1 227.8c0 1.5 0.8 2.7 1.9 2.7 1 0 1.8-1.2 1.8-2.7 0-1.5-0.8-2.7-1.8-2.7C223.9 225.1 223.1 226.3 223.1 227.8z" class="I"/><path d="M223.2 227.8c0 1.4 0.8 2.6 1.7 2.6 1 0 1.7-1.1 1.7-2.6 0-1.4-0.8-2.6-1.7-2.6C223.9 225.2 223.2 226.4 223.2 227.8z" class="I"/><path d="M223.3 227.8c0 1.3 0.7 2.4 1.6 2.4 0.9 0 1.6-1.1 1.6-2.4 0-1.3-0.7-2.4-1.6-2.4C224 225.4 223.3 226.5 223.3 227.8z" class="I"/><path d="M223.4 227.8c0 1.2 0.7 2.2 1.5 2.2 0.8 0 1.5-1 1.5-2.2 0-1.2-0.7-2.2-1.5-2.2C224.1 225.6 223.4 226.6 223.4 227.8z" class="I"/><path d="M223.5 227.8c0 1.1 0.6 2.1 1.4 2.1 0.8 0 1.4-0.9 1.4-2.1 0-1.2-0.6-2.1-1.4-2.1C224.1 225.7 223.5 226.7 223.5 227.8z" class="I"/><path d="M223.6 227.8c0 1.1 0.6 1.9 1.3 1.9 0.7 0 1.3-0.9 1.3-1.9 0-1.1-0.6-1.9-1.3-1.9C224.2 225.9 223.6 226.7 223.6 227.8z" class="I"/><path d="M223.7 227.8c0 1 0.5 1.8 1.2 1.8 0.7 0 1.2-0.8 1.2-1.8 0-1-0.5-1.8-1.2-1.8C224.2 226 223.7 226.8 223.7 227.8z" class="I"/><path d="M223.8 227.8c0 0.9 0.5 1.6 1.1 1.6s1.1-0.7 1.1-1.6c0-0.9-0.5-1.6-1.1-1.6S223.8 226.9 223.8 227.8z" class="I"/><path d="M223.9 227.8c0 0.8 0.4 1.4 1 1.4 0.5 0 1-0.6 1-1.4 0-0.8-0.4-1.4-1-1.4C224.4 226.4 223.9 227 223.9 227.8z" class="I"/><path d="M224 227.8c0 0.7 0.4 1.3 0.9 1.3 0.5 0 0.9-0.6 0.9-1.3 0-0.7-0.4-1.3-0.9-1.3C224.4 226.5 224 227.1 224 227.8z" class="I"/><path d="M224.1 227.8c0 0.6 0.3 1.1 0.8 1.1 0.4 0 0.8-0.5 0.8-1.1 0-0.6-0.3-1.1-0.8-1.1C224.5 226.7 224.1 227.2 224.1 227.8z" class="I"/><path d="M224.2 227.8c0 0.5 0.3 1 0.7 1 0.4 0 0.7-0.4 0.7-1 0-0.5-0.3-1-0.7-1C224.5 226.8 224.2 227.3 224.2 227.8z" class="I"/><path d="M224.4 227.8c0 0.4 0.2 0.8 0.5 0.8 0.3 0 0.5-0.4 0.5-0.8 0-0.4-0.2-0.8-0.5-0.8C224.6 227 224.4 227.4 224.4 227.8z" class="I"/><path d="M224.5 227.8c0 0.4 0.2 0.6 0.4 0.6 0.2 0 0.4-0.3 0.4-0.6 0-0.4-0.2-0.6-0.4-0.6C224.7 227.2 224.5 227.4 224.5 227.8z" class="I"/><path d="M224.6 227.8c0 0.3 0.1 0.5 0.3 0.5 0.2 0 0.3-0.2 0.3-0.5 0-0.3-0.1-0.5-0.3-0.5C224.7 227.3 224.6 227.5 224.6 227.8z" class="I"/><path d="M224.7 227.8c0 0.2 0.1 0.3 0.2 0.3 0.1 0 0.2-0.1 0.2-0.3 0-0.2-0.1-0.3-0.2-0.3C224.8 227.5 224.7 227.6 224.7 227.8z" class="I"/><path d="M224.8 227.8c0 0.1 0.1 0.2 0.1 0.2 0.1 0 0.1-0.1 0.1-0.2 0-0.1 0-0.2-0.1-0.2C224.8 227.6 224.8 227.7 224.8 227.8z" class="I"/></g></g><rect x="216.1" y="219.9" width="18.5" height="3.2" class="b"/></g><g><g><polygon points="198.2 374.8 194.7 374.8 194.7 340.3 202.9 340.3 " class="E"/><polygon points="252.6 374.8 256 374.8 256 340.3 247.9 340.3 " class="E"/></g><g><rect x="191.4" y="297.9" width="68" height="42.4" class="c"/><rect x="198.2" y="300.6" width="54.4" height="13.1" class="F"/><rect x="198.2" y="318.7" width="54.4" height="18.4" class="G"/></g><path d="M237.4 326c-0.6 0-1.2-0.4-1.4-0.9h-21.2c-0.2 0.5-0.8 0.9-1.4 0.9 -0.9 0-1.6-0.7-1.6-1.6 0-0.9 0.7-1.6 1.6-1.6 0.6 0 1.2 0.4 1.4 0.9h21.2c0.2-0.5 0.8-0.9 1.4-0.9 0.9 0 1.6 0.7 1.6 1.6C239 325.3 238.3 326 237.4 326z" class="H"/></g></g></g><g><g><polygon points="481.7 234.4 474.4 242.8 287.6 242.8 280.4 234.4 270.3 234.4 270.3 329.4 491.7 329.4 491.7 234.4 " class="o"/><rect x="277.9" y="249.1" width="206.3" height="32.8" fill="#937354"/><rect x="279.8" y="251.1" width="202.4" height="29" fill="#A3805E"/><g><rect x="480.7" y="353.4" width="14.7" height="21.4" class="r"/></g><g><rect x="266.6" y="353.4" width="14.7" height="21.4" class="r"/></g><g><rect x="373.7" y="353.4" width="14.7" height="21.4" class="r"/></g><rect x="266.6" y="329.4" width="228.9" height="24" class="o"/><path d="M495.4 323.7c0 3.1-2.6 5.7-5.7 5.7H272.3c-3.1 0-5.7-2.6-5.7-5.7v-26.2c0-3.1 2.6-5.7 5.7-5.7h217.5c3.1 0 5.7 2.6 5.7 5.7V323.7z" fill="#E4DCCB"/></g><g><g><path d="M336.1 291c9.2-0.2 33.2-1 41.9-1.5 -4.1-4.9-8.6-7.9-10.1-10.3 -2.4-3.8 3.3 1 8.2 3.9 4.8 2.9-4.1-6.5-7.7-11.3 -3.6-4.8 1.8-3.2 3.5-3.5 1.7-0.2-1-6.6-5.3-8 -4.4-1.4-1.5-1.9 3-3.7 4.5-1.8 2.9-1.6-3.4-2.9 -6.2-1.4-22.6-1.2-29.5-1.1 -6.8 0.2-32.3 2.6-36.4 4.2 -4.1 1.6 2.5 12.5 5.7 15.6 3.2 3.1-8.1 9.1-13.6 15.6 -1.1 1.3-1.7 2.3-1.9 3 0.2 0.1 0.4 0.2 0.7 0.2C294.4 291.5 325.4 291.3 336.1 291z" class="e"/><path d="M306 272.5c-3.2-3.1-9.8-14-5.7-15.6 4.1-1.6 29.6-4.1 36.4-4.2 6.8-0.1 23.2-0.3 29.5 1.1 6.2 1.4 7.9 1.1 3.4 2.9 -4.5 1.8-7.4 2.3-3 3.7 4.4 1.4 7 7.7 5.3 8 -1.6 0.2-7.1-1.3-3.4 3.5 3.6 4.8 12.5 14.2 7.7 11.3 -4.8-2.9-10.5-7.6-8.2-3.9 1.5 2.4 6 5.4 10.1 10.3 1.5-0.1 2.5-0.1 3-0.2 3.1-0.3-0.5-5.3-2-7.8 -1.5-2.5-5.2-10.7-5.3-13.9 -0.1-3.2 0.8-13.4 0.8-13.4s0.8-1.5-0.7-2.1c-1.5-0.6-21.2-1.2-38.5-0.9 -17.2 0.4-37 1.9-38.4 2.5 -1.4 0.7-0.6 2.1-0.6 2.1s1.2 10.2 1.3 13.4c0.1 3.2-3.3 11.6-4.7 14.1 -1.3 2.3-4.1 6.7-2.4 7.7 0.2-0.7 0.8-1.6 1.9-3C297.9 281.7 309.2 275.7 306 272.5z" class="f"/></g><g><path d="M425.9 291c-9.2-0.2-33.2-1-41.9-1.5 4.1-4.9 8.6-7.9 10.1-10.3 2.4-3.8-3.3 1-8.2 3.9 -4.8 2.9 4.1-6.5 7.7-11.3 3.6-4.8-1.8-3.2-3.4-3.5 -1.7-0.2 1-6.6 5.3-8 4.4-1.4 1.5-1.9-3-3.7 -4.5-1.8-2.9-1.6 3.4-2.9 6.2-1.4 22.6-1.2 29.5-1.1 6.8 0.2 32.3 2.6 36.4 4.2 4.1 1.6-2.5 12.5-5.7 15.6 -3.2 3.1 8.1 9.1 13.6 15.6 1.1 1.3 1.7 2.3 1.9 3 -0.2 0.1-0.4 0.2-0.7 0.2C467.6 291.5 436.7 291.3 425.9 291z" class="e"/><path d="M456 272.5c3.2-3.1 9.8-14 5.7-15.6 -4.1-1.6-29.6-4.1-36.4-4.2 -6.8-0.1-23.2-0.3-29.5 1.1 -6.2 1.4-7.9 1.1-3.4 2.9 4.5 1.8 7.4 2.3 3 3.7 -4.4 1.4-7 7.7-5.3 8 1.7 0.2 7.1-1.3 3.4 3.5 -3.6 4.8-12.5 14.2-7.7 11.3 4.8-2.9 10.5-7.6 8.2-3.9 -1.5 2.4-6 5.4-10.1 10.3 -1.5-0.1-2.5-0.1-3-0.2 -3.1-0.3 0.5-5.3 2-7.8 1.5-2.5 5.2-10.7 5.3-13.9 0.1-3.2-0.8-13.4-0.8-13.4s-0.8-1.5 0.7-2.1c1.5-0.6 21.2-1.2 38.5-0.9 17.2 0.4 37 1.9 38.4 2.5 1.4 0.7 0.6 2.1 0.6 2.1s-1.3 10.2-1.3 13.4c-0.1 3.2 3.3 11.6 4.7 14.1 1.3 2.3 4.1 6.7 2.4 7.7 -0.2-0.7-0.8-1.6-1.9-3C464.1 281.7 452.8 275.7 456 272.5z" class="f"/></g><g><path d="M479.3 283.2c0 0 22.6 3.6 25.4 11.7 3.4 9.8 19.4 65.9 19.4 65.9s-3.6 6.3-18.7 8.7c-8.4 1.3-33.1-0.7-33.1-0.7l1-5.4c0 0-15.4 8.4-44.2 1.7 -28.8-6.7-37.9-3.3-58.3 0.3 -19.3 3.5-44.1 2.1-59.2-1.6 -11.1-2.7-22.9-0.4-22.9-0.4l1 5.4c0 0-24.8 2-33.1 0.7 -15.1-2.4-18.7-8.7-18.7-8.7s16.7-55.9 19.4-65.9c2.9-10.8 23.4-12.2 23.4-12.2 8.2-1.8 54.6-6.4 100.1-6.4C426.3 276.3 479.3 283.2 479.3 283.2z" fill="#F0EADA"/><path d="M473.2 363.5c0 0 8-18.4 7.4-53.9C480.6 309.6 478.6 337.7 473.2 363.5z" class="J"/><path d="M288.8 363.5c0 0-8-18.4-7.4-53.9C281.4 309.6 283.4 337.7 288.8 363.5z" class="J"/></g></g></g></g><g><g><path d="M273.7 217.1c0 0 0 0 0 0 0 0 0 0 0 0.1C273.7 217.1 273.7 217.1 273.7 217.1zM274.3 218.6c0 0-0.1 0-0.4 0l0 0c0-0.1 0-0.2 0-0.3 0.2 0 0.4 0 0.5-0.1 0.1-0.1 0.1-0.1 0.1-0.2 0.1 0 0.1 0 0.2 0 0 0.1 0.1 0.2 0.1 0.3C274.7 218.4 274.5 218.5 274.3 218.6z" class="y"/></g></g></g></svg>