<svg version="1.1" id="Layer_1" xmlns="http://www.w3.org/2000/svg" xmlns:xlink="http://www.w3.org/1999/xlink" viewBox="0 0 768 430" enable-background="new 0 0 768 430" xml:space="preserve">
<g>
	<path fill="#EFF4F4" d="M503.226,128.81c0.688-0.753,1.448-1.649,2.239-2.661c-1.383,0.106-2.757,0.267-4.106,0.477
		c0.056,0.236,0.114,0.472,0.163,0.707C502.106,127.805,502.675,128.298,503.226,128.81z"/>
	<path fill="#EFF4F4" d="M549.027,169.282c-0.119-4.497-0.571-8.939-1.344-13.203c-0.007-0.038-0.014-0.076-0.021-0.113
		c-3.206-16.598-14.812-27.378-31.844-29.576c-1.722-0.222-3.499-0.331-5.288-0.368c-0.539,2.633-1.434,4.722-1.694,6.029
		c0.475,0.474,6.519-1.449,9.059-4.635c0.115,2.221-2.018,7.15-4.713,8.497c2.896,0.242,5.584,0.213,9.898-1.931
		c-0.21,4.317-7.002,7.726-7.002,7.726c0.958,0.717,1.921,1.436,6.639,2.153c-0.891-0.015-5.411,1.598-9.268,1.479
		c0.791,2.714,1.2,5.414,1.181,7.956c0.435,3.622-0.173,6.848-1.595,9.596c4.543,23.151,0.397,44.944-16.807,58.151
		c1.096,6.857-1.205,17.726,3.915,18.205c5.795,0.484,12.313-11.348,19.314-5.793c6.037,6.277-11.105,14.485-11.105,14.485
		c1.618,0,5.164-0.77,8.636-0.847c4.479-4.116,8.66-8.851,12.604-14.325c0.104-0.144,0.203-0.29,0.299-0.439
		C546.407,206.634,549.414,183.861,549.027,169.282z"/>
	<path fill="#EFF4F4" d="M446.408,233.859c0.004,0.022,0.009,0.044,0.014,0.066c0.014,0.069,0.029,0.138,0.043,0.207
		c0.099,0.477,0.196,0.962,0.294,1.453c0.018,0.089,0.034,0.178,0.052,0.267c0.1,0.503,0.197,1.012,0.295,1.531
		c0.004,0.026,0.009,0.054,0.015,0.08c0.091,0.485,0.181,0.979,0.27,1.479c0.021,0.123,0.044,0.245,0.065,0.369
		c0.087,0.488,0.173,0.983,0.258,1.484c0.026,0.158,0.054,0.316,0.079,0.476c0.076,0.453,0.151,0.91,0.226,1.373
		c0.029,0.182,0.058,0.366,0.088,0.55c0.062,0.403,0.127,0.811,0.188,1.221c0.032,0.211,0.064,0.421,0.097,0.632
		c0.069,0.473,0.14,0.948,0.208,1.429c0.036,0.247,0.07,0.496,0.105,0.746c0.05,0.352,0.098,0.705,0.146,1.061
		c0.051,0.379,0.102,0.76,0.151,1.143c0.04,0.305,0.079,0.609,0.118,0.917c0.038,0.298,0.075,0.594,0.112,0.895
		c0.05,0.402,0.099,0.809,0.146,1.216c5.143-1.346,13.174-2.911,24.206-3.546c9.591-0.857,9.847-11.898,10.779-21.05
		c-8.476,3.566-18.91,5.724-31.543,6.082C450.643,233.932,448.507,233.903,446.408,233.859z"/>
	<path fill="#EFF4F4" d="M477.931,264.359c-4.507,3.156-12.65,14.581-26.816,13.658c0.013,0.752,0.022,1.506,0.028,2.263
		c11.356,11.16,22.445,25.453,27.762,42.053c-9.188-16.65-18.837-29.058-27.761-38.248c-0.051,6.37-0.367,12.865-1.021,19.32
		c5.227,8.448,9.586,17.682,12.117,27.447c-4.086-8.782-8.325-16.537-12.575-23.379c-0.011,0.082-0.021,0.166-0.032,0.249
		c-0.044,0.35-0.085,0.698-0.131,1.046c-0.058,0.437-0.119,0.871-0.181,1.305c-0.049,0.352-0.097,0.702-0.148,1.052
		c-0.062,0.433-0.13,0.865-0.196,1.297c-0.055,0.351-0.108,0.701-0.166,1.052c-0.069,0.431-0.141,0.859-0.213,1.288
		c-0.06,0.351-0.12,0.7-0.183,1.05c-0.075,0.428-0.151,0.854-0.231,1.281c-0.064,0.349-0.132,0.696-0.199,1.044
		c-0.082,0.426-0.164,0.851-0.249,1.273c-0.07,0.347-0.145,0.691-0.218,1.037c-0.089,0.422-0.176,0.845-0.268,1.266
		c-0.07,0.315-0.145,0.629-0.216,0.943c-0.181,0.793-0.368,1.583-0.562,2.37c-0.09,0.362-0.179,0.727-0.271,1.089
		c-0.1,0.391-0.204,0.778-0.309,1.167c-0.096,0.362-0.192,0.725-0.292,1.085c-0.106,0.386-0.217,0.77-0.326,1.152
		c-0.104,0.361-0.209,0.721-0.315,1.079c-0.113,0.38-0.228,0.759-0.344,1.135c-0.112,0.36-0.226,0.719-0.34,1.076
		c-0.024,0.076-0.048,0.153-0.072,0.229c1.536,5.599,2.519,13.391,2.824,17.515c31.081-14.364,29.55,13.753,9.522,29.04
		c1.028,0.084,2.052,0.141,3.062,0.141c12.83,0,24.196-6.597,32.871-19.077c2.036-2.929,3.928-6.198,5.623-9.718
		c0.017-0.033,0.032-0.066,0.048-0.099c7.209-15.396,5.589-33.535,2.96-46.042c-1.768-8.413-4.534-16.729-7.427-22.343
		c-2.572-5.746-6.329-11.337-11.247-16.756c1.196-0.321,2.378-0.665,3.549-1.026C482.268,263.755,479.283,263.412,477.931,264.359z"
		/>
	<path fill="#EFF4F4" d="M383.281,231.9l-2.422,2.033c0.082-0.053,0.16-0.104,0.241-0.155c0.036-0.022,0.071-0.046,0.107-0.069
		c1.119-0.722,2.203-1.406,3.253-2.055c0.025-0.015,0.05-0.031,0.076-0.047c0.328-0.202,0.652-0.4,0.976-0.598
		c0.059-0.034,0.116-0.07,0.174-0.105c0.325-0.196,0.647-0.392,0.965-0.581c0.003-0.002,0.005-0.002,0.008-0.004
		c1.023-0.612,2.012-1.188,2.967-1.728c0.022-0.014,0.045-0.026,0.068-0.04c0.297-0.168,0.59-0.332,0.881-0.495
		c0.043-0.023,0.086-0.048,0.13-0.072c0.599-0.333,1.188-0.656,1.758-0.962c-9.625-2.626-17.624-5.886-24.264-9.568
		C377.597,226.023,383.281,231.9,383.281,231.9z"/>
	<path fill="#EFF4F4" d="M343.748,200.715c1.958,3.551,1.307,9.858,1.958,15.785c11.361,7.532,21.482,15.089,29.384,21.307
		c0.014-0.01,0.027-0.02,0.042-0.028c0.608-0.421,1.208-0.833,1.799-1.234c0.59-0.4,1.171-0.792,1.744-1.173
		C377.153,233.353,365.732,218.612,343.748,200.715z"/>
	<path fill="#EFF4F4" d="M316.17,355.654c-0.647-0.242-1.289-0.471-1.923-0.681c-0.014-0.004-0.027-0.008-0.041-0.013
		c-0.209-0.068-0.418-0.136-0.626-0.201c-0.045-0.014-0.09-0.028-0.136-0.042c-0.175-0.055-0.35-0.108-0.524-0.16
		c-0.063-0.019-0.127-0.037-0.19-0.056c-0.156-0.045-0.311-0.09-0.466-0.134c-0.074-0.021-0.148-0.041-0.222-0.062
		c-0.144-0.038-0.287-0.078-0.43-0.115c-0.081-0.021-0.161-0.041-0.241-0.062c-0.136-0.035-0.272-0.068-0.407-0.103
		c-0.084-0.02-0.169-0.04-0.254-0.06c-0.13-0.031-0.26-0.06-0.39-0.09c-0.087-0.02-0.174-0.038-0.262-0.057
		c-0.126-0.027-0.251-0.054-0.377-0.079c-0.089-0.018-0.178-0.035-0.267-0.053c-0.124-0.023-0.248-0.047-0.373-0.069
		c-0.088-0.016-0.176-0.031-0.264-0.046c-0.124-0.021-0.247-0.041-0.371-0.061c-0.087-0.014-0.175-0.027-0.262-0.04
		c-0.123-0.019-0.246-0.036-0.368-0.052c-0.086-0.012-0.173-0.023-0.259-0.034c-0.124-0.016-0.247-0.028-0.37-0.041
		c-0.084-0.011-0.169-0.021-0.253-0.028c-0.127-0.012-0.253-0.022-0.38-0.033c-0.079-0.007-0.158-0.014-0.237-0.02
		c-0.138-0.011-0.276-0.018-0.413-0.025c-0.066-0.004-0.133-0.009-0.2-0.011c-0.203-0.01-0.405-0.017-0.607-0.021
		c0.298-0.099,0.59-0.206,0.876-0.319c0.093-0.037,0.184-0.076,0.275-0.114c0.19-0.08,0.38-0.16,0.565-0.245
		c0.105-0.048,0.208-0.1,0.312-0.149c0.166-0.081,0.331-0.163,0.493-0.249c0.106-0.057,0.211-0.114,0.315-0.172
		c0.156-0.088,0.309-0.177,0.46-0.268c0.102-0.062,0.202-0.123,0.302-0.186c0.151-0.098,0.299-0.196,0.446-0.297
		c0.093-0.064,0.187-0.127,0.277-0.191c0.158-0.113,0.311-0.231,0.463-0.35c0.075-0.058,0.151-0.113,0.225-0.173
		c0.221-0.179,0.438-0.362,0.648-0.552c0.031-0.029,0.062-0.06,0.093-0.088c0.179-0.163,0.354-0.331,0.525-0.503
		c0.075-0.075,0.147-0.155,0.222-0.231c0.124-0.13,0.247-0.26,0.366-0.394c0.081-0.09,0.159-0.183,0.238-0.273
		c0.108-0.127,0.216-0.254,0.32-0.384c0.08-0.099,0.157-0.198,0.235-0.299c0.1-0.129,0.198-0.261,0.294-0.393
		c0.076-0.104,0.151-0.209,0.226-0.314c0.095-0.136,0.188-0.275,0.279-0.414c0.07-0.106,0.14-0.212,0.209-0.32
		c0.095-0.15,0.187-0.305,0.278-0.459c0.06-0.102,0.122-0.201,0.18-0.304c0.139-0.243,0.274-0.49,0.406-0.741
		c0.053-0.103,0.103-0.206,0.154-0.31c0.088-0.174,0.175-0.349,0.259-0.526c0.06-0.127,0.116-0.257,0.174-0.384
		c0.068-0.152,0.137-0.305,0.203-0.459c0.059-0.139,0.116-0.278,0.173-0.419c0.061-0.148,0.12-0.298,0.179-0.449
		c0.057-0.146,0.111-0.294,0.166-0.441c0.055-0.149,0.109-0.301,0.162-0.452c0.053-0.152,0.105-0.305,0.157-0.459
		c0.05-0.152,0.099-0.306,0.147-0.46c0.05-0.156,0.1-0.313,0.147-0.473c0.046-0.155,0.09-0.313,0.135-0.471
		c0.045-0.161,0.093-0.32,0.137-0.484c0.045-0.168,0.087-0.339,0.13-0.508c0.079-0.312,0.155-0.627,0.228-0.944
		c0.034-0.151,0.07-0.301,0.103-0.454c0.04-0.185,0.078-0.372,0.116-0.56c0.031-0.151,0.062-0.302,0.091-0.453
		c0.037-0.191,0.072-0.384,0.107-0.577c0.027-0.151,0.055-0.302,0.081-0.453c0.034-0.197,0.066-0.396,0.099-0.595
		c0.024-0.15,0.047-0.302,0.07-0.454c0.031-0.203,0.062-0.406,0.091-0.611c0.02-0.147,0.04-0.295,0.059-0.442
		c0.028-0.214,0.057-0.428,0.084-0.643c0.016-0.126,0.029-0.254,0.044-0.381c0.067-0.576,0.129-1.158,0.183-1.748c0,0,0,0,0,0
		c0.148-1.625,0.25-3.3,0.31-5.014c0-3.767,0.149-7.296,0.426-10.611c-4.16,4.866-8.305,10.068-12.386,15.627
		c3.093-6.825,7.553-13.586,12.854-20.124c0.713-5.664,1.824-10.655,3.222-15.101c-0.024-0.024-0.048-0.048-0.072-0.072
		c1.034-3.3,2.233-6.29,3.554-9.036c-13.45,7.255-28.028,16.667-42.792,28.852c10.491-13.157,27.577-24.307,45.078-33.173
		c1.423-2.458,2.943-4.713,4.521-6.827c2.439-3.31,4.986-6.211,7.466-8.903c-20.775,5.873-49.348,17.121-79.321,38.576
		c19.362-21.128,57.405-35.139,83.589-42.75c0.014-0.012,0.027-0.023,0.042-0.035c0.059-0.051,0.119-0.104,0.177-0.154
		c0,0,0.001,0.001,0.001,0.001c2.634-2.273,5.179-4.426,7.635-6.459c-3.141-3.439-6.429-7.537-9.852-12.381
		c-15.935,2.896-32.848,6.387-39.113-3.863c-2.897-6.762,6.277-5.554,14.003-6.279c-2.656-0.723-17.867-2.413-14.003-11.105
		c0.258-0.62,0.618-1.1,1.05-1.473c-12.278-2.263-25.568-3.958-39.802-4.764c15.177-2.312,32.78-0.476,50.291,3.384
		c-4.035-3.518-8.189-8.622-5.262-13.082c5.553-6.036,12.072,2.173,20.281,10.623c2.307,2.219,2.853-0.064,3.172-3.668
		c-18.195-10.976-40.895-22.04-68.11-30.585c21.938,2.124,46.626,13.764,68.384,26.993c0.452-5.74,1.377-12.157,6.917-10.676
		c-19.071-15.074-45.426-32-79.452-45.311c29,4.834,61.72,26.896,86,46.492c-14.237-19.831-9.166-42.113-7.037-49.101
		c-13.468-10.144-25.58-16.836-36.246-19.993c-6.333-2.283-17.279-4.831-29.45-5.274c-1.229-0.045-2.465-0.068-3.671-0.068
		c-21.263,0-37.039,6.759-45.624,19.546c-0.029,0.043-0.058,0.087-0.086,0.131c-2.481,3.824-4.523,7.889-6.069,12.083
		c-5.067,13.743-7.31,35.758,10.785,62.591c0.129,0.192,0.266,0.38,0.408,0.562c7.376,9.449,16.227,17.069,27.059,23.295
		c8.265,4.75,17.47,8.54,27.709,11.718c-6.257,3.135-11.484,6.479-15.654,10.031c-4.594,3.487-11.5,10.128-17.463,18.603
		c-11.331,16.105-14.527,32.116-9.001,45.083c0.021,0.049,0.042,0.098,0.064,0.146c1.603,3.6,3.585,6.994,5.894,10.088
		c7.377,9.89,21.808,21.678,48.657,21.679c0.002,0,0.003,0,0.005,0c0.51,0,1.023-0.005,1.544-0.013
		c0.232-0.004,0.464-0.017,0.695-0.036c6.396-0.553,12.547-1.854,18.585-3.942c-0.636-0.261-1.266-0.508-1.891-0.744
		C316.253,355.687,316.211,355.67,316.17,355.654z"/>
	<path fill="#EFF4F4" d="M346.497,220.817c0.815,2.92,2.263,5.516,4.92,7.326c0.976,0.666,1.938,1.311,2.884,1.933
		c3.346,1.204,6.601,2.426,9.743,3.645C358.983,229.679,353.135,225.315,346.497,220.817z"/>
	<path fill="#D1E7FA" d="M478.904,322.333c-5.316-16.6-16.405-30.893-27.762-42.053c0.01,1.263,0.012,2.531,0.001,3.805
		C460.067,293.275,469.716,305.683,478.904,322.333z"/>
	<path fill="#D1E7FA" d="M449.921,305.299c-0.081,0.726-0.167,1.45-0.256,2.175c4.25,6.842,8.489,14.597,12.575,23.379
		c-2.531-9.766-6.891-18.999-12.117-27.447c-0.027,0.279-0.055,0.558-0.084,0.836C450.002,304.595,449.961,304.946,449.921,305.299z
		"/>
	<path fill="#D1E7FA" d="M343.748,200.715c21.984,17.897,33.405,32.638,34.926,34.656c0.006-0.005,0.013-0.01,0.02-0.014
		c0.021-0.015,0.043-0.029,0.065-0.043c0.361-0.241,0.717-0.476,1.072-0.709c0.075-0.05,0.151-0.099,0.227-0.147
		c0.268-0.176,0.537-0.353,0.801-0.524l2.422-2.033c0,0-5.684-5.877-15.083-14.446c-9.658-5.357-16.434-11.613-21.117-18.137
		c-24.28-19.596-57-41.658-86-46.492c34.026,13.311,60.381,30.236,79.452,45.311c0.086,0.023,0.171,0.043,0.261,0.07
		C342.162,198.661,343.098,199.536,343.748,200.715z"/>
	<path fill="#D1E7FA" d="M265.231,181.818c27.215,8.545,49.915,19.609,68.11,30.585c0.098-1.104,0.174-2.331,0.273-3.592
		C311.857,195.582,287.169,183.942,265.231,181.818z"/>
	<path fill="#D1E7FA" d="M320.996,222.832c0,0-2.89-1.726-5.844-4.302c-17.511-3.859-35.114-5.696-50.291-3.384
		c14.234,0.806,27.524,2.501,39.802,4.764C308.277,216.785,317.33,221.538,320.996,222.832z"/>
	<path fill="#D1E7FA" d="M346.497,220.817c6.638,4.498,12.486,8.861,17.547,12.903c-3.142-1.219-6.397-2.44-9.743-3.645
		c9.347,6.156,16.914,10.14,16.914,10.14s0.608-0.37,1.624-0.833c0.226-0.16,0.447-0.314,0.671-0.473
		c0.097-0.068,0.195-0.137,0.292-0.205c0.374-0.262,0.745-0.521,1.113-0.777c0.059-0.04,0.117-0.081,0.175-0.121
		c-7.902-6.218-18.022-13.774-29.384-21.307C345.869,217.979,346.111,219.435,346.497,220.817z"/>
	<path fill="#D1E7FA" d="M344.721,261.659c-26.184,7.611-64.227,21.622-83.589,42.75c29.973-21.455,58.545-32.703,79.321-38.576
		c0.765-0.83,1.524-1.643,2.272-2.439C343.397,262.807,344.061,262.23,344.721,261.659z"/>
	<path fill="#D1E7FA" d="M283.387,314.736c14.765-12.185,29.343-21.597,42.792-28.852c0.727-1.511,1.49-2.947,2.286-4.321
		C310.964,290.43,293.878,301.579,283.387,314.736z"/>
	<path fill="#D1E7FA" d="M306.622,330.218c4.081-5.559,8.226-10.761,12.386-15.627c0.129-1.545,0.285-3.044,0.468-4.497
		C314.174,316.632,309.714,323.393,306.622,330.218z"/>
	<path fill="#FFD100" d="M447.027,350.554c-0.306-4.124-1.288-11.916-2.824-17.515c-0.096,0.296-0.191,0.591-0.289,0.885
		c-0.12,0.362-0.244,0.721-0.367,1.08c-0.124,0.361-0.247,0.723-0.375,1.082c-0.136,0.38-0.276,0.756-0.416,1.134
		c-0.121,0.328-0.239,0.659-0.364,0.985c-0.004,0-0.009,0-0.013,0.001c-4.144,10.856-10.007,20.469-18.112,27.719
		c2.051,12.604,8.763,30.45,30.728,14.809c0.531-0.37,1.048-0.752,1.556-1.14C476.577,364.307,478.108,336.189,447.027,350.554z"/>
	<path fill="#FFD100" d="M447.027,350.554c-0.306-4.124-1.288-11.916-2.824-17.515c-0.096,0.296-0.191,0.591-0.289,0.885
		c-0.12,0.362-0.244,0.721-0.367,1.08c-0.124,0.361-0.247,0.723-0.375,1.082c-0.136,0.38-0.276,0.756-0.416,1.134
		c-0.121,0.328-0.239,0.659-0.364,0.985c-0.004,0-0.009,0-0.013,0.001c-4.144,10.856-10.007,20.469-18.112,27.719
		c2.051,12.604,8.763,30.45,30.728,14.809c0.531-0.37,1.048-0.752,1.556-1.14C476.577,364.307,478.108,336.189,447.027,350.554z"/>
	<path fill="#FFD100" d="M519.458,233.456c-7.001-5.555-13.52,6.277-19.314,5.793c-5.12-0.479-2.819-11.348-3.915-18.205
		c-3.426,2.63-7.368,4.92-11.864,6.812c-0.933,9.151-1.188,20.192-10.779,21.05c-11.032,0.635-19.063,2.2-24.206,3.546
		c0.006,0.05,0.012,0.1,0.018,0.15c0.039,0.328,0.076,0.658,0.114,0.988c0.029,0.258,0.058,0.516,0.086,0.774
		c0.06,0.542,0.118,1.087,0.176,1.636c0.024,0.233,0.048,0.465,0.071,0.698c0.059,0.582,0.116,1.166,0.172,1.756
		c0.021,0.229,0.044,0.459,0.064,0.689c0.035,0.377,0.067,0.754,0.102,1.135c0.02,0.223,0.038,0.447,0.058,0.671
		c0.051,0.607,0.1,1.217,0.147,1.83c0.02,0.239,0.037,0.48,0.056,0.721c0.026,0.362,0.054,0.727,0.08,1.091
		c-0.002,0-0.004,0.001-0.006,0.001c0.306,4.34,0.518,8.83,0.598,13.425c14.166,0.923,22.31-10.502,26.816-13.658
		c1.353-0.947,4.337-0.604,8.059,0.314c9.56,2.361,23.987,8.531,28.157,6.445c9.416-5.069-5.069-10.381-8.208-12.071
		c11.589,1.447,20.04-0.242,19.797-6.278c-0.267-4.808-4.449-5.771-8.747-5.675c-3.472,0.077-7.018,0.847-8.636,0.847
		C508.353,247.941,525.495,239.733,519.458,233.456z"/>
	<path fill="#FFD100" d="M519.458,233.456c-7.001-5.555-13.52,6.277-19.314,5.793c-5.12-0.479-2.819-11.348-3.915-18.205
		c-3.426,2.63-7.368,4.92-11.864,6.812c-0.933,9.151-1.188,20.192-10.779,21.05c-11.032,0.635-19.063,2.2-24.206,3.546
		c0.006,0.05,0.012,0.1,0.018,0.15c0.039,0.328,0.076,0.658,0.114,0.988c0.029,0.258,0.058,0.516,0.086,0.774
		c0.06,0.542,0.118,1.087,0.176,1.636c0.024,0.233,0.048,0.465,0.071,0.698c0.059,0.582,0.116,1.166,0.172,1.756
		c0.021,0.229,0.044,0.459,0.064,0.689c0.035,0.377,0.067,0.754,0.102,1.135c0.02,0.223,0.038,0.447,0.058,0.671
		c0.051,0.607,0.1,1.217,0.147,1.83c0.02,0.239,0.037,0.48,0.056,0.721c0.026,0.362,0.054,0.727,0.08,1.091
		c-0.002,0-0.004,0.001-0.006,0.001c0.306,4.34,0.518,8.83,0.598,13.425c14.166,0.923,22.31-10.502,26.816-13.658
		c1.353-0.947,4.337-0.604,8.059,0.314c9.56,2.361,23.987,8.531,28.157,6.445c9.416-5.069-5.069-10.381-8.208-12.071
		c11.589,1.447,20.04-0.242,19.797-6.278c-0.267-4.808-4.449-5.771-8.747-5.675c-3.472,0.077-7.018,0.847-8.636,0.847
		C508.353,247.941,525.495,239.733,519.458,233.456z"/>
	<path fill="#FFD100" d="M319.476,310.094c-0.183,1.453-0.339,2.952-0.468,4.497c-0.277,3.315-0.426,6.845-0.426,10.611
		c-0.061,1.714-0.162,3.389-0.31,5.014c5.933,6.433,14.791,14.792,26.395,22.384c1.406-0.3,2.928-0.579,4.578-0.839
		c0,0-28.967-25.698-9.691-42.163c-5.756-4.246-11.404-9.083-16.855-14.604C321.299,299.438,320.188,304.43,319.476,310.094z"/>
	<path fill="#FFD100" d="M325.9,359.992c0.883,0.439,1.776,0.893,2.678,1.355c0,0,0,0,0.001-0.002
		C327.676,360.882,326.785,360.433,325.9,359.992z"/>
	<path fill="#FFD100" d="M314.248,354.974c0.634,0.21,1.275,0.438,1.923,0.681C315.524,355.413,314.882,355.184,314.248,354.974z"/>
	<path fill="#FFD100" d="M318.186,356.446c2.483,1.017,5.05,2.22,7.703,3.54c-3.333-1.659-6.532-3.136-9.594-4.284
		C316.92,355.938,317.55,356.186,318.186,356.446z"/>
	<path fill="#FFD100" d="M380.058,234.458c0.35-0.23,0.698-0.456,1.042-0.68c-0.081,0.052-0.16,0.103-0.241,0.155
		C380.594,234.105,380.325,234.282,380.058,234.458z"/>
	<path fill="#FFD100" d="M449.633,307.723c0.011-0.083,0.021-0.167,0.032-0.249c0.089-0.725,0.175-1.449,0.256-2.175
		C449.831,306.108,449.734,306.916,449.633,307.723z"/>
	<path fill="#FFD100" d="M372.849,239.379c0.221-0.157,0.442-0.314,0.661-0.469c-0.224,0.158-0.445,0.312-0.671,0.473
		C372.842,239.382,372.846,239.38,372.849,239.379z"/>
	<path fill="#FFD100" d="M340.453,265.833c-2.48,2.692-5.027,5.594-7.466,8.903c3.12-4.177,6.467-7.799,9.738-11.343
		C341.978,264.19,341.218,265.003,340.453,265.833z"/>
	<path fill="#FFD100" d="M442.379,338.206c-16.472,0.987-43.479,0.133-71.533-11.173c1.279,5.8,1.439,13.062-0.114,22.071
		c-1.243,6.525-3.153,11.181-5.291,14.526c13.851,5.756,30.131,9.499,48.694,8.856c3.031-1.626,6.107-3.532,9.23-5.759
		c0.307-0.262,0.602-0.535,0.901-0.804C432.372,358.675,438.235,349.062,442.379,338.206z"/>
	<path fill="#FFD100" d="M358.119,375.437c0,0.002,0.001,0.003,0.001,0.006c8.689,3.179,17.978,5.277,27.855,4.939
		C376.097,380.72,366.809,378.614,358.119,375.437z"/>
	<path fill="#FFD100" d="M444.203,333.039c0.024-0.076,0.048-0.153,0.072-0.229c-0.119,0.372-0.238,0.745-0.361,1.114
		C444.012,333.63,444.107,333.335,444.203,333.039z"/>
	<path fill="#FFD100" d="M393.291,259.983c-3.153,10.487-18.155,19.731-40.714-4.972c-2.457,2.033-5.001,4.186-7.635,6.459
		c13.55,15.553,47.162,45.167,105.098,42.771c0.029-0.278,0.057-0.557,0.084-0.836c0.653-6.455,0.97-12.95,1.021-19.32
		c0.011-1.273,0.009-2.542-0.001-3.805c-0.006-0.757-0.016-1.511-0.028-2.263c-0.08-4.595-0.292-9.085-0.598-13.425
		C426.059,270.568,407.211,266.821,393.291,259.983z"/>
	<path fill="#FFD100" d="M344.763,261.624c-0.014,0.012-0.027,0.023-0.042,0.035c-0.661,0.571-1.324,1.147-1.996,1.734
		C343.411,262.795,344.089,262.206,344.763,261.624z"/>
	<path d="M331.064,358.241c0.033-0.029,0.067-0.059,0.101-0.088c0.093-0.079,0.187-0.16,0.285-0.24
		c0.516-0.429,1.094-0.84,1.74-1.233c0.12-0.074,0.241-0.147,0.366-0.221c0.045-0.025,0.089-0.052,0.134-0.078
		c2.502-1.439,6.007-2.727,10.976-3.781c-11.604-7.592-20.462-15.951-26.395-22.384c0,0,0,0,0,0
		c-0.054,0.59-0.116,1.172-0.183,1.748c-0.015,0.127-0.028,0.255-0.044,0.381c-0.027,0.215-0.056,0.429-0.084,0.643
		c-0.019,0.147-0.039,0.295-0.059,0.442c-0.029,0.205-0.06,0.408-0.091,0.611c-0.023,0.152-0.046,0.304-0.07,0.454
		c-0.032,0.198-0.065,0.397-0.099,0.595c-0.026,0.151-0.053,0.302-0.081,0.453c-0.035,0.193-0.07,0.386-0.107,0.577
		c-0.029,0.151-0.061,0.302-0.091,0.453c-0.038,0.188-0.076,0.375-0.116,0.56c-0.033,0.153-0.069,0.303-0.103,0.454
		c-0.073,0.317-0.149,0.633-0.228,0.944c-0.043,0.169-0.085,0.34-0.13,0.508c-0.044,0.164-0.091,0.323-0.137,0.484
		c-0.044,0.157-0.088,0.315-0.135,0.471c-0.048,0.159-0.098,0.316-0.147,0.473c-0.048,0.154-0.097,0.308-0.147,0.46
		c-0.051,0.154-0.104,0.307-0.157,0.459c-0.053,0.151-0.107,0.303-0.162,0.452c-0.055,0.147-0.109,0.295-0.166,0.441
		c-0.059,0.151-0.118,0.301-0.179,0.449c-0.057,0.141-0.114,0.28-0.173,0.419c-0.066,0.154-0.135,0.307-0.203,0.459
		c-0.058,0.127-0.114,0.257-0.174,0.384c-0.084,0.178-0.171,0.353-0.259,0.526c-0.051,0.104-0.101,0.207-0.154,0.31
		c-0.131,0.251-0.267,0.498-0.406,0.741c-0.058,0.103-0.12,0.202-0.18,0.304c-0.092,0.154-0.183,0.309-0.278,0.459
		c-0.069,0.108-0.139,0.214-0.209,0.32c-0.092,0.139-0.184,0.278-0.279,0.414c-0.074,0.105-0.15,0.21-0.226,0.314
		c-0.097,0.132-0.195,0.264-0.294,0.393c-0.078,0.101-0.156,0.2-0.235,0.299c-0.104,0.13-0.212,0.257-0.32,0.384
		c-0.079,0.091-0.157,0.184-0.238,0.273c-0.12,0.134-0.242,0.264-0.366,0.394c-0.074,0.076-0.146,0.156-0.222,0.231
		c-0.171,0.172-0.346,0.34-0.525,0.503c-0.031,0.028-0.062,0.059-0.093,0.088c-0.21,0.189-0.427,0.373-0.648,0.552
		c-0.073,0.06-0.15,0.115-0.225,0.173c-0.152,0.118-0.305,0.236-0.463,0.35c-0.09,0.064-0.184,0.127-0.277,0.191
		c-0.147,0.101-0.295,0.199-0.446,0.297c-0.1,0.062-0.2,0.124-0.302,0.186c-0.151,0.091-0.305,0.18-0.46,0.268
		c-0.104,0.058-0.209,0.115-0.315,0.172c-0.162,0.086-0.327,0.168-0.493,0.249c-0.104,0.05-0.207,0.102-0.312,0.149
		c-0.186,0.085-0.375,0.165-0.565,0.245c-0.092,0.038-0.182,0.077-0.275,0.114c-0.286,0.113-0.578,0.221-0.876,0.319
		c0.202,0.005,0.404,0.012,0.607,0.021c0.067,0.002,0.133,0.007,0.2,0.011c0.137,0.008,0.275,0.015,0.413,0.025
		c0.079,0.006,0.158,0.013,0.237,0.02c0.126,0.011,0.253,0.021,0.38,0.033c0.084,0.008,0.168,0.018,0.253,0.028
		c0.123,0.013,0.246,0.025,0.37,0.041c0.086,0.011,0.173,0.022,0.259,0.034c0.122,0.016,0.245,0.033,0.368,0.052
		c0.087,0.013,0.175,0.026,0.262,0.04c0.124,0.02,0.247,0.039,0.371,0.061c0.088,0.015,0.176,0.03,0.264,0.046
		c0.125,0.022,0.249,0.046,0.373,0.069c0.089,0.018,0.178,0.035,0.267,0.053c0.126,0.025,0.251,0.052,0.377,0.079
		c0.088,0.019,0.175,0.037,0.262,0.057c0.13,0.03,0.26,0.059,0.39,0.09c0.084,0.02,0.169,0.04,0.254,0.06
		c0.135,0.034,0.271,0.067,0.407,0.103c0.08,0.021,0.16,0.04,0.241,0.062c0.143,0.037,0.286,0.077,0.43,0.115
		c0.074,0.021,0.148,0.041,0.222,0.062c0.155,0.044,0.31,0.089,0.466,0.134c0.063,0.019,0.127,0.037,0.19,0.056
		c0.174,0.052,0.349,0.105,0.524,0.16c0.045,0.014,0.09,0.028,0.136,0.042c0.208,0.065,0.417,0.133,0.626,0.201
		c0.014,0.005,0.027,0.009,0.041,0.013c0.634,0.21,1.276,0.439,1.923,0.681c0.041,0.016,0.083,0.032,0.125,0.048
		c3.062,1.148,6.262,2.625,9.594,4.284c0.004,0.002,0.007,0.004,0.011,0.006c0.885,0.44,1.775,0.89,2.679,1.354
		C329.155,360.277,329.943,359.235,331.064,358.241z"/>
	<path d="M365.441,363.631c-2.845,4.453-6.093,6.583-8.712,7.687c0.44,1.115,0.919,2.521,1.39,4.119
		c8.69,3.178,17.979,5.283,27.856,4.945c1.255-0.043,2.517-0.119,3.79-0.244c0.037-0.004,0.074-0.007,0.11-0.011
		c0.559-0.056,1.119-0.12,1.681-0.192c0.052-0.007,0.104-0.014,0.155-0.021c0.566-0.074,1.135-0.156,1.705-0.247
		c0.019-0.003,0.037-0.007,0.056-0.01c2.975-0.48,5.999-1.201,9.073-2.194c0.052-0.017,0.104-0.032,0.154-0.049
		c0.55-0.179,1.102-0.369,1.654-0.565c0.107-0.038,0.214-0.076,0.32-0.114c0.535-0.193,1.072-0.396,1.611-0.606
		c0.114-0.045,0.229-0.091,0.344-0.137c0.545-0.217,1.092-0.44,1.64-0.675c0.084-0.036,0.169-0.074,0.253-0.11
		c0.823-0.355,1.65-0.739,2.48-1.136c0.197-0.094,0.395-0.189,0.592-0.285c0.834-0.408,1.671-0.831,2.513-1.282
		c0.01-0.006,0.021-0.01,0.03-0.016c-0.001,0-0.002,0-0.002,0C395.572,373.13,379.292,369.387,365.441,363.631z"/>
	<path d="M450.039,304.241c-57.936,2.396-91.548-27.218-105.098-42.771c0,0-0.001-0.001-0.001-0.001
		c-0.059,0.051-0.119,0.104-0.177,0.154c-0.674,0.582-1.352,1.171-2.038,1.77c-3.271,3.544-6.619,7.166-9.738,11.343
		c-1.579,2.114-3.099,4.369-4.521,6.827c-0.795,1.374-1.559,2.811-2.286,4.321c-1.321,2.746-2.52,5.736-3.554,9.036
		c0.024,0.024,0.048,0.048,0.072,0.072c5.451,5.521,11.099,10.358,16.855,14.604c0.32-0.273,0.653-0.545,0.999-0.813
		c5.88-4.552,25.61-2.991,30.294,18.249c28.054,11.306,55.062,12.16,71.533,11.173c0.004-0.001,0.009-0.001,0.013-0.001
		c0.125-0.326,0.243-0.657,0.364-0.985c0.14-0.378,0.28-0.754,0.416-1.134c0.128-0.359,0.251-0.721,0.375-1.082
		c0.123-0.359,0.247-0.718,0.367-1.08c0.123-0.369,0.242-0.742,0.361-1.114c0.114-0.357,0.228-0.716,0.34-1.076
		c0.116-0.376,0.23-0.755,0.344-1.135c0.106-0.358,0.211-0.718,0.315-1.079c0.109-0.383,0.22-0.767,0.326-1.152
		c0.1-0.36,0.196-0.723,0.292-1.085c0.104-0.389,0.209-0.776,0.309-1.167c0.093-0.362,0.182-0.727,0.271-1.089
		c0.193-0.787,0.381-1.577,0.562-2.37c0.071-0.314,0.146-0.628,0.216-0.943c0.092-0.421,0.179-0.844,0.268-1.266
		c0.073-0.346,0.147-0.69,0.218-1.037c0.085-0.423,0.167-0.848,0.249-1.273c0.067-0.348,0.135-0.695,0.199-1.044
		c0.08-0.427,0.156-0.854,0.231-1.281c0.062-0.35,0.123-0.699,0.183-1.05c0.072-0.429,0.144-0.857,0.213-1.288
		c0.058-0.351,0.111-0.701,0.166-1.052c0.066-0.432,0.134-0.864,0.196-1.297c0.052-0.35,0.1-0.7,0.148-1.052
		c0.062-0.434,0.123-0.868,0.181-1.305c0.046-0.348,0.087-0.696,0.131-1.046c0.102-0.807,0.198-1.614,0.288-2.424
		C449.961,304.946,450.002,304.595,450.039,304.241z"/>
	<path d="M449.12,250.342c-0.039-0.308-0.078-0.612-0.118-0.917c-0.05-0.383-0.101-0.764-0.151-1.143
		c-0.049-0.355-0.097-0.709-0.146-1.061c-0.035-0.25-0.069-0.499-0.105-0.746c-0.068-0.48-0.139-0.956-0.208-1.429
		c-0.032-0.211-0.064-0.421-0.097-0.632c-0.062-0.41-0.126-0.817-0.188-1.221c-0.03-0.184-0.059-0.368-0.088-0.55
		c-0.074-0.463-0.149-0.92-0.226-1.373c-0.025-0.159-0.053-0.317-0.079-0.476c-0.085-0.501-0.171-0.996-0.258-1.484
		c-0.021-0.124-0.044-0.246-0.065-0.369c-0.089-0.499-0.179-0.993-0.27-1.479c-0.006-0.026-0.011-0.054-0.015-0.08
		c-0.098-0.52-0.195-1.028-0.295-1.531c-0.018-0.089-0.034-0.178-0.052-0.267c-0.098-0.491-0.195-0.977-0.294-1.453
		c-0.014-0.069-0.029-0.138-0.043-0.207c-0.005-0.022-0.01-0.044-0.014-0.066c-22.052-0.468-39.76-2.966-53.944-6.836
		c-0.572,0.307-1.159,0.627-1.76,0.961c-0.044,0.024-0.087,0.049-0.13,0.072c-0.291,0.163-0.584,0.327-0.881,0.495
		c-0.023,0.014-0.046,0.026-0.068,0.04c-0.955,0.54-1.943,1.115-2.967,1.728c-0.003,0.002-0.005,0.002-0.008,0.004
		c-0.317,0.189-0.64,0.385-0.965,0.581c-0.058,0.035-0.115,0.071-0.174,0.105c-0.323,0.197-0.647,0.396-0.976,0.598
		c-0.025,0.016-0.051,0.032-0.076,0.047c-1.05,0.648-2.135,1.333-3.253,2.055c-0.036,0.023-0.071,0.047-0.107,0.069
		c-0.344,0.224-0.692,0.449-1.042,0.68c-0.076,0.049-0.151,0.098-0.227,0.147c-0.354,0.233-0.711,0.468-1.072,0.709
		c-0.021,0.014-0.043,0.028-0.065,0.043c-0.007,0.004-0.014,0.009-0.02,0.014c-0.573,0.381-1.154,0.772-1.744,1.173
		c-0.591,0.401-1.191,0.813-1.799,1.234c-0.014,0.009-0.027,0.019-0.042,0.028c-0.058,0.04-0.117,0.081-0.175,0.121
		c-0.368,0.256-0.74,0.516-1.113,0.777c-0.097,0.068-0.194,0.137-0.292,0.205c-0.218,0.154-0.439,0.312-0.661,0.469
		c4.799-2.182,18.672-6.402,21.061,16.288c0.026,1.405-0.185,2.873-0.619,4.316c13.92,6.838,32.768,10.585,57.226,4.609
		c0.002,0,0.004-0.001,0.006-0.001c-0.026-0.364-0.054-0.729-0.08-1.091c-0.019-0.24-0.036-0.481-0.056-0.721
		c-0.048-0.613-0.097-1.223-0.147-1.83c-0.02-0.224-0.038-0.448-0.058-0.671c-0.034-0.381-0.066-0.758-0.102-1.135
		c-0.021-0.23-0.043-0.46-0.064-0.689c-0.056-0.59-0.113-1.174-0.172-1.756c-0.023-0.233-0.047-0.465-0.071-0.698
		c-0.058-0.549-0.116-1.094-0.176-1.636c-0.028-0.259-0.057-0.517-0.086-0.774c-0.038-0.33-0.075-0.66-0.114-0.988
		c-0.006-0.051-0.012-0.101-0.018-0.15c-0.048-0.407-0.097-0.813-0.146-1.216C449.195,250.936,449.158,250.64,449.12,250.342z"/>
	<path fill="#FDD72B" d="M393.291,259.983c0.435-1.443,0.646-2.911,0.619-4.316c-2.389-22.69-16.262-18.47-21.061-16.288
		c-0.003,0.001-0.007,0.003-0.01,0.004c-1.016,0.463-1.624,0.833-1.624,0.833s-7.567-3.983-16.914-10.14
		c-0.945-0.622-1.908-1.267-2.884-1.933c-2.657-1.811-4.105-4.406-4.92-7.326c-0.386-1.383-0.628-2.839-0.791-4.317
		c-0.651-5.927,0-12.234-1.958-15.785c-0.65-1.179-1.586-2.054-2.955-2.51c-0.089-0.026-0.174-0.046-0.261-0.07
		c-5.541-1.481-6.466,4.936-6.917,10.676c-0.099,1.261-0.176,2.487-0.273,3.592c-0.319,3.604-0.865,5.887-3.172,3.668
		c-8.209-8.45-14.728-16.659-20.281-10.623c-2.927,4.46,1.228,9.564,5.262,13.082c2.954,2.576,5.844,4.302,5.844,4.302
		c-3.666-1.294-12.718-6.047-16.333-2.922c-0.432,0.373-0.792,0.853-1.05,1.473c-3.863,8.692,11.348,10.383,14.003,11.105
		c-7.726,0.726-16.9-0.482-14.003,6.279c6.265,10.25,23.178,6.759,39.113,3.863c3.423,4.844,6.71,8.941,9.852,12.381
		C375.136,279.715,390.138,270.471,393.291,259.983z"/>
	<path fill="#FFD100" d="M333.189,356.68c-0.646,0.394-1.224,0.805-1.74,1.233C331.962,357.492,332.539,357.08,333.189,356.68z"/>
	<path fill="#FFD100" d="M328.579,361.348c-0.92,1.712-1.3,3.493-1.631,5.258c0.383-1.966,0.868-3.696,1.678-5.233
		C328.61,361.364,328.595,361.356,328.579,361.348z"/>
	<path d="M344.734,352.644c-0.022-0.016-0.045-0.029-0.068-0.044c-4.969,1.055-8.474,2.342-10.976,3.781
		C336.225,354.945,339.754,353.731,344.734,352.644z"/>
	<path fill="#FFD100" d="M344.734,352.644c-0.022-0.016-0.045-0.029-0.068-0.044c-4.969,1.055-8.474,2.342-10.976,3.781
		C336.225,354.945,339.754,353.731,344.734,352.644z"/>
	<path d="M328.58,361.346c0.016,0.009,0.031,0.018,0.047,0.025c0.602-1.144,1.384-2.18,2.438-3.13
		C329.943,359.235,329.155,360.277,328.58,361.346z"/>
	<path fill="#FFD100" d="M328.58,361.346c0.016,0.009,0.031,0.018,0.047,0.025c0.602-1.144,1.384-2.18,2.438-3.13
		C329.943,359.235,329.155,360.277,328.58,361.346z"/>
	<path fill="#FFD100" d="M356.729,371.317c2.619-1.104,5.867-3.233,8.712-7.687c2.138-3.346,4.048-8.001,5.291-14.526
		c1.553-9.01,1.393-16.271,0.114-22.071c-4.684-21.24-24.414-22.801-30.294-18.249c-0.346,0.269-0.679,0.54-0.999,0.813
		c-19.276,16.465,9.691,42.163,9.691,42.163c-1.65,0.26-3.172,0.539-4.578,0.839c0.023,0.015,0.045,0.028,0.068,0.044
		c-4.979,1.088-8.509,2.302-11.044,3.737c-0.045,0.026-0.089,0.053-0.134,0.078c-0.125,0.073-0.247,0.146-0.366,0.221
		c-0.65,0.4-1.227,0.812-1.74,1.233c-0.098,0.08-0.192,0.161-0.285,0.24c-0.033,0.029-0.068,0.059-0.101,0.088
		c-1.054,0.95-1.836,1.986-2.438,3.13c-0.016-0.008-0.031-0.017-0.047-0.025c0,0.002,0,0.002-0.001,0.002
		c0.016,0.009,0.031,0.017,0.047,0.024c-0.81,1.537-1.294,3.268-1.678,5.233c-0.053,0.283-0.105,0.566-0.158,0.849
		c-3.863,26.8,12.072,36.698,22.212,38.39c15.48,2.969,12.521-18.837,9.117-30.401c0-0.003-0.001-0.004-0.001-0.006
		C357.647,373.838,357.168,372.433,356.729,371.317z"/>
	<path fill="#FFD100" d="M356.729,371.317c2.619-1.104,5.867-3.233,8.712-7.687c2.138-3.346,4.048-8.001,5.291-14.526
		c1.553-9.01,1.393-16.271,0.114-22.071c-4.684-21.24-24.414-22.801-30.294-18.249c-0.346,0.269-0.679,0.54-0.999,0.813
		c-19.276,16.465,9.691,42.163,9.691,42.163c-1.65,0.26-3.172,0.539-4.578,0.839c0.023,0.015,0.045,0.028,0.068,0.044
		c-4.979,1.088-8.509,2.302-11.044,3.737c-0.045,0.026-0.089,0.053-0.134,0.078c-0.125,0.073-0.247,0.146-0.366,0.221
		c-0.65,0.4-1.227,0.812-1.74,1.233c-0.098,0.08-0.192,0.161-0.285,0.24c-0.033,0.029-0.068,0.059-0.101,0.088
		c-1.054,0.95-1.836,1.986-2.438,3.13c-0.016-0.008-0.031-0.017-0.047-0.025c0,0.002,0,0.002-0.001,0.002
		c0.016,0.009,0.031,0.017,0.047,0.024c-0.81,1.537-1.294,3.268-1.678,5.233c-0.053,0.283-0.105,0.566-0.158,0.849
		c-3.863,26.8,12.072,36.698,22.212,38.39c15.48,2.969,12.521-18.837,9.117-30.401c0-0.003-0.001-0.004-0.001-0.006
		C357.647,373.838,357.168,372.433,356.729,371.317z"/>
	<path fill="#0A0C05" d="M430.744,47.014c1.854,2.097,4.566,3.43,7.591,3.43c5.601,0,10.141-4.54,10.141-10.14
		c0-5.603-4.54-10.141-10.141-10.141s-10.141,4.538-10.141,10.141c0,0.291,0.017,0.575,0.041,0.85
		c-19.013,10.329-22.47,30.433-23.091,38.582c2.075-0.62,4.153-1.14,6.228-1.563C412.498,58.305,425.513,49.719,430.744,47.014z"/>
	<path fill="#0A0C05" d="M491.745,63.258c1.558,2.326,4.068,4.007,7.067,4.41c5.55,0.746,10.653-3.148,11.399-8.698
		c0.748-5.552-3.147-10.655-8.698-11.401c-5.55-0.747-10.655,3.146-11.4,8.698c-0.039,0.288-0.062,0.572-0.073,0.849
		c-16.021,6.104-23.181,19.592-26.31,28.907c1.795,0.907,3.548,1.867,5.254,2.873C473.449,71.391,486.459,65.149,491.745,63.258z"/>
	<path fill="#FFD100" d="M347.081,199.317c4.684,6.524,11.459,12.78,21.117,18.137c6.64,3.683,14.639,6.942,24.264,9.568
		c-0.57,0.306-1.159,0.629-1.758,0.962c0.601-0.334,1.188-0.654,1.76-0.961c14.185,3.87,31.893,6.368,53.944,6.836
		c2.099,0.044,4.234,0.072,6.413,0.079c12.633-0.358,23.067-2.516,31.543-6.082c4.496-1.893,8.438-4.183,11.864-6.812
		c17.204-13.208,21.35-35,16.807-58.151c-2.442,4.722-7.304,8.021-13.502,9.432c-0.001,0-0.001,0-0.001,0.001
		c-0.011,0.003-0.021,0.005-0.031,0.007c-0.284,0.065-0.572,0.125-0.862,0.182c-0.148,0.029-0.298,0.055-0.447,0.081
		c-0.202,0.037-0.405,0.071-0.609,0.104c-0.145,0.023-0.29,0.045-0.436,0.065c-0.259,0.038-0.519,0.071-0.781,0.102
		c-0.09,0.011-0.179,0.023-0.269,0.033c-0.349,0.038-0.7,0.069-1.054,0.096c-0.045,0.004-0.09,0.009-0.136,0.012
		c-0.068,0.004-0.139,0.006-0.207,0.011c-0.135,0.009-0.271,0.015-0.406,0.022c-0.135,0.007-0.269,0.016-0.404,0.022
		c-0.025,0.001-0.052,0.002-0.077,0.003c-0.088,0.004-0.176,0.008-0.265,0.011c-0.374,0.012-0.751,0.02-1.131,0.02
		c-0.314,0-0.619-0.026-0.929-0.037c-0.005,0.005-0.009,0.011-0.014,0.017c-0.408-0.014-0.812-0.036-1.214-0.065
		c-0.003-0.001-0.005-0.001-0.007-0.001c-0.393-0.03-0.782-0.068-1.168-0.115c-0.013-0.001-0.027-0.003-0.04-0.004
		c-0.375-0.046-0.747-0.1-1.116-0.161c-0.022-0.003-0.046-0.007-0.069-0.01c-0.358-0.061-0.713-0.128-1.063-0.203
		c-0.033-0.006-0.065-0.013-0.099-0.021c-0.342-0.073-0.679-0.155-1.014-0.242c-0.041-0.01-0.083-0.021-0.123-0.032
		c-0.326-0.086-0.647-0.18-0.967-0.279c-0.048-0.015-0.097-0.029-0.145-0.045c-0.31-0.098-0.616-0.203-0.919-0.312
		c-0.055-0.021-0.11-0.04-0.165-0.061c-0.294-0.11-0.584-0.225-0.871-0.345c-0.062-0.026-0.125-0.052-0.187-0.079
		c-0.277-0.119-0.552-0.244-0.822-0.374c-0.068-0.033-0.137-0.065-0.204-0.099c-0.263-0.128-0.521-0.262-0.777-0.401
		c-0.073-0.04-0.146-0.08-0.219-0.12c-0.247-0.137-0.49-0.279-0.73-0.425c-0.079-0.047-0.155-0.096-0.233-0.144
		c-0.232-0.145-0.461-0.294-0.688-0.447c-0.081-0.056-0.162-0.111-0.242-0.168c-0.218-0.152-0.433-0.308-0.645-0.468
		c-0.084-0.064-0.168-0.129-0.251-0.195c-0.203-0.159-0.404-0.321-0.602-0.486c-0.087-0.074-0.172-0.148-0.258-0.223
		c-0.189-0.165-0.377-0.332-0.561-0.503c-0.088-0.083-0.175-0.167-0.262-0.251c-0.177-0.17-0.35-0.341-0.521-0.518
		c-0.089-0.092-0.176-0.187-0.264-0.282c-0.162-0.174-0.323-0.35-0.479-0.53c-0.09-0.103-0.177-0.208-0.264-0.312
		c-0.149-0.179-0.298-0.359-0.442-0.543c-0.089-0.113-0.174-0.229-0.261-0.344c-0.137-0.183-0.273-0.366-0.404-0.554
		c-0.087-0.124-0.171-0.25-0.255-0.376c-0.125-0.186-0.25-0.372-0.369-0.563c-0.085-0.134-0.166-0.271-0.247-0.409
		c-0.113-0.189-0.227-0.377-0.335-0.572c-0.081-0.146-0.158-0.294-0.237-0.442c-0.102-0.191-0.203-0.382-0.3-0.577
		c-0.078-0.158-0.151-0.319-0.226-0.479c-0.091-0.193-0.182-0.386-0.267-0.582c-0.074-0.169-0.142-0.342-0.211-0.513
		c-0.08-0.195-0.16-0.389-0.236-0.588c-0.066-0.18-0.129-0.365-0.193-0.547c-0.068-0.197-0.139-0.392-0.204-0.591
		c-0.062-0.192-0.117-0.39-0.175-0.585c-0.059-0.197-0.12-0.392-0.174-0.593c-0.056-0.205-0.104-0.415-0.156-0.623
		c-0.048-0.197-0.099-0.392-0.143-0.591c-0.048-0.219-0.09-0.442-0.133-0.665c-0.038-0.196-0.08-0.389-0.115-0.588
		c-0.041-0.234-0.073-0.474-0.108-0.711c-0.028-0.192-0.061-0.382-0.086-0.576c-0.032-0.255-0.057-0.516-0.083-0.776
		c-0.019-0.183-0.042-0.363-0.057-0.548c-0.024-0.292-0.04-0.59-0.057-0.887c-0.01-0.157-0.022-0.312-0.029-0.471
		c-0.02-0.458-0.028-0.922-0.028-1.392c0-19.045,6.254-26.332,11.228-27.159c8.33-1.385,15.733,1.318,21.537,6.021
		c-0.049-0.234-0.107-0.471-0.163-0.707c-3.048-13.072-15.368-27.703-32.374-37.729c-1.706-1.006-3.459-1.965-5.254-2.873
		c-15.326-7.741-33.741-11.647-52.358-7.851c-2.074,0.423-4.152,0.943-6.228,1.563c-23.608,7.05-47.02,27.167-64.351,68.25
		c0,0-0.315,0.804-0.749,2.23C337.916,157.204,332.844,179.486,347.081,199.317z M494.832,115.874
		c-4.105-6.519-16.869-7.005-16.869-7.005C488.617,96.198,495.073,116.357,494.832,115.874z M433.264,218.485
		c-10.621-1.931-16.176-22.694-20.038-35.25c0,0,17.384,28.49,55.048,13.038C468.273,196.273,448.717,223.073,433.264,218.485z
		 M449.508,168.282c9.906,1.44,17.201,7.743,16.271,14.138c-0.93,6.394-9.725,10.41-19.63,8.97
		c-9.908-1.44-17.172-7.792-16.242-14.185C430.837,170.809,439.6,166.841,449.508,168.282z M423.728,99.698
		c-10.623-2.897-23.661,0.483-23.661,0.483C418.898,82.797,423.728,99.216,423.728,99.698z M362.523,122.875
		c4.828,2.897,7.163,3.572,14.889,3.089c-3.38-2.415-9.094-5.021-11.509-11.78c6.542,4.906,13.513,6.954,19.382,7.688
		c6.85-4.867,15.666-7.688,22.99-7.688c15.602,0,24.146,13.521,22.334,29.456c0,15.201-6.76,23.661-27.283,25.109
		c-0.396,0.028-0.79,0.048-1.182,0.063c-0.055,0.001-0.107,0.002-0.162,0.004c-0.071,0.002-0.144,0.003-0.215,0.004
		c-0.021,0-0.043,0.001-0.064,0.001c-0.037,0-0.073,0.001-0.11,0.002c-0.21,0.004-0.42,0.01-0.629,0.01
		c-0.099,0-0.196-0.002-0.294-0.003c-0.151,0-0.302-0.003-0.452-0.005c-0.145-0.003-0.29-0.006-0.434-0.011
		c-0.104-0.003-0.21-0.01-0.314-0.015c-0.041-0.001-0.083-0.003-0.125-0.006c-0.146-0.007-0.292-0.011-0.437-0.02
		c-0.1-0.006-0.199-0.014-0.298-0.021c-0.089-0.006-0.177-0.014-0.265-0.021c-0.214-0.017-0.428-0.031-0.64-0.052
		c-0.105-0.01-0.211-0.023-0.316-0.035c-0.047-0.004-0.094-0.012-0.141-0.017c-0.015-0.002-0.029-0.004-0.044-0.006
		c-0.239-0.027-0.479-0.055-0.716-0.087c-0.087-0.012-0.173-0.026-0.259-0.039c-0.042-0.006-0.083-0.013-0.124-0.019
		c-0.084-0.013-0.168-0.024-0.251-0.038c-0.185-0.029-0.367-0.06-0.551-0.092c-0.045-0.008-0.09-0.017-0.135-0.025
		c-0.035-0.006-0.068-0.013-0.104-0.019c-0.15-0.027-0.301-0.054-0.45-0.084c-0.138-0.028-0.274-0.059-0.412-0.088
		c-0.042-0.009-0.084-0.019-0.126-0.028c-0.035-0.008-0.072-0.014-0.107-0.022c0,0,0-0.001,0-0.002
		c-0.047-0.011-0.092-0.026-0.139-0.037c-0.764-0.174-1.516-0.371-2.25-0.601c-0.062-0.019-0.123-0.038-0.185-0.057
		c-0.291-0.094-0.579-0.191-0.866-0.294c-0.049-0.018-0.097-0.035-0.146-0.053c-1.259-0.457-2.465-0.996-3.612-1.616
		c-0.01-0.004-0.019-0.009-0.027-0.014c0-0.001,0-0.001,0-0.001c-7.294-3.947-12.151-11.089-12.151-20.316
		c-0.427-1.803-0.586-3.552-0.518-5.243c-3.868,1.372-5.977,0.529-7.047,1.379c2.737-2.173,2.737-2.173,4.667-3.862
		c-3.379,0-5.311-0.483-10.141-3.38c5.795,0,8.209-0.814,12.071-2.263C369.282,131.237,363.971,128.188,362.523,122.875z"/>
	<path fill="#FFD100" d="M413.226,183.235c3.862,12.556,9.417,33.319,20.038,35.25c15.453,4.588,35.01-22.212,35.01-22.212
		C430.609,211.726,413.226,183.235,413.226,183.235z"/>
	<radialGradient id="SVGID_1_" cx="409.9961" cy="185.2051" r="57.1617" gradientUnits="userSpaceOnUse">
		<stop  offset="0.2485" style="stop-color:#400000"/>
		<stop  offset="0.8121" style="stop-color:#800000"/>
	</radialGradient>
	<path fill="url(#SVGID_1_)" d="M413.226,183.235c3.862,12.556,9.417,33.319,20.038,35.25c15.453,4.588,35.01-22.212,35.01-22.212
		C430.609,211.726,413.226,183.235,413.226,183.235z"/>
	<path d="M409.362,115.633c11.833,0,17.935,7.369,20.194,17.561c0.003,0.011,0.005,0.022,0.007,0.033
		c0.355,1.612,0.618,3.292,0.788,5.027c0.002,0.011,0.002,0.021,0.003,0.031c0.042,0.423,0.079,0.849,0.11,1.279
		c0.005,0.064,0.008,0.13,0.012,0.195c0.026,0.377,0.05,0.756,0.068,1.138c0.008,0.167,0.012,0.334,0.018,0.501
		c0.012,0.285,0.023,0.568,0.03,0.856c0.011,0.459,0.017,0.922,0.017,1.386c1.812-15.935-6.732-29.456-22.334-29.456
		c-7.324,0-16.141,2.821-22.99,7.688c1.479,0.185,2.888,0.287,4.201,0.329C395.616,118.152,402.804,115.633,409.362,115.633z"/>
	<path d="M374.077,139.846c-0.068,1.691,0.091,3.439,0.518,5.243c0-1.965,0.323-3.913,0.914-5.817
		C375.004,139.5,374.531,139.685,374.077,139.846z"/>
	<path fill="#FFD100" d="M394.616,168.217c0.149,0.03,0.3,0.057,0.45,0.084c-0.026-0.005-0.053-0.01-0.079-0.015
		C394.864,168.263,394.739,168.242,394.616,168.217z"/>
	<radialGradient id="SVGID_2_" cx="410.9277" cy="149.0181" r="35.2774" gradientUnits="userSpaceOnUse">
		<stop  offset="0.3758" style="stop-color:#FFFFFF"/>
		<stop  offset="0.5059" style="stop-color:#FAFAFA"/>
		<stop  offset="0.6599" style="stop-color:#ECECEC"/>
		<stop  offset="0.7818" style="stop-color:#DBDBDB"/>
		<stop  offset="0.9394" style="stop-color:#BCBCBC"/>
	</radialGradient>
	<path fill="url(#SVGID_2_)" d="M394.616,168.217c0.149,0.03,0.3,0.057,0.45,0.084c-0.026-0.005-0.053-0.01-0.079-0.015
		C394.864,168.263,394.739,168.242,394.616,168.217z"/>
	<path fill="#FFD100" d="M374.595,145.089c0,9.227,4.857,16.369,12.151,20.316c-0.07-0.292-0.135-0.587-0.196-0.882
		C380.597,160.381,376.594,153.521,374.595,145.089z"/>
	<radialGradient id="SVGID_3_" cx="410.9277" cy="148.9844" r="35.3145" gradientUnits="userSpaceOnUse">
		<stop  offset="0.3758" style="stop-color:#FFFFFF"/>
		<stop  offset="0.5059" style="stop-color:#FAFAFA"/>
		<stop  offset="0.6599" style="stop-color:#ECECEC"/>
		<stop  offset="0.7818" style="stop-color:#DBDBDB"/>
		<stop  offset="0.9394" style="stop-color:#BCBCBC"/>
	</radialGradient>
	<path fill="url(#SVGID_3_)" d="M374.595,145.089c0,9.227,4.857,16.369,12.151,20.316c-0.07-0.292-0.135-0.587-0.196-0.882
		C380.597,160.381,376.594,153.521,374.595,145.089z"/>
	<path fill="#FFD100" d="M390.386,167.035c-1.258-0.457-2.465-0.996-3.612-1.616C387.921,166.039,389.127,166.579,390.386,167.035z"
		/>
	<radialGradient id="SVGID_4_" cx="410.9277" cy="148.9785" r="35.3199" gradientUnits="userSpaceOnUse">
		<stop  offset="0.3758" style="stop-color:#FFFFFF"/>
		<stop  offset="0.5059" style="stop-color:#FAFAFA"/>
		<stop  offset="0.6599" style="stop-color:#ECECEC"/>
		<stop  offset="0.7818" style="stop-color:#DBDBDB"/>
		<stop  offset="0.9394" style="stop-color:#BCBCBC"/>
	</radialGradient>
	<path fill="url(#SVGID_4_)" d="M390.386,167.035c-1.258-0.457-2.465-0.996-3.612-1.616
		C387.921,166.039,389.127,166.579,390.386,167.035z"/>
	<path fill="#FFD100" d="M396.23,168.494c0.086,0.013,0.172,0.027,0.259,0.039c-0.064-0.009-0.129-0.02-0.193-0.029
		C396.274,168.5,396.252,168.497,396.23,168.494z"/>
	<radialGradient id="SVGID_5_" cx="410.9326" cy="148.9233" r="35.39" gradientUnits="userSpaceOnUse">
		<stop  offset="0.3758" style="stop-color:#FFFFFF"/>
		<stop  offset="0.5059" style="stop-color:#FAFAFA"/>
		<stop  offset="0.6599" style="stop-color:#ECECEC"/>
		<stop  offset="0.7818" style="stop-color:#DBDBDB"/>
		<stop  offset="0.9394" style="stop-color:#BCBCBC"/>
	</radialGradient>
	<path fill="url(#SVGID_5_)" d="M396.23,168.494c0.086,0.013,0.172,0.027,0.259,0.039c-0.064-0.009-0.129-0.02-0.193-0.029
		C396.274,168.5,396.252,168.497,396.23,168.494z"/>
	<path fill="#FFD100" d="M400.478,168.827C400.478,168.827,400.478,168.827,400.478,168.827c-0.087-0.001-0.174-0.001-0.26-0.002
		c0.15,0.002,0.301,0.005,0.452,0.005c-0.021,0-0.041,0-0.062-0.001C400.564,168.828,400.521,168.828,400.478,168.827z"/>
	<radialGradient id="SVGID_6_" cx="410.9385" cy="151.3633" r="32.0281" gradientUnits="userSpaceOnUse">
		<stop  offset="0.3758" style="stop-color:#FFFFFF"/>
		<stop  offset="0.5059" style="stop-color:#FAFAFA"/>
		<stop  offset="0.6599" style="stop-color:#ECECEC"/>
		<stop  offset="0.7818" style="stop-color:#DBDBDB"/>
		<stop  offset="0.9394" style="stop-color:#BCBCBC"/>
	</radialGradient>
	<path fill="url(#SVGID_6_)" d="M400.478,168.827C400.478,168.827,400.478,168.827,400.478,168.827
		c-0.087-0.001-0.174-0.001-0.26-0.002c0.15,0.002,0.301,0.005,0.452,0.005c-0.021,0-0.041,0-0.062-0.001
		C400.564,168.828,400.521,168.828,400.478,168.827z"/>
	<path fill="#FFD100" d="M397.39,168.643c0.105,0.012,0.211,0.025,0.316,0.035c-0.087-0.008-0.173-0.021-0.261-0.03
		C397.427,168.646,397.408,168.645,397.39,168.643z"/>
	<radialGradient id="SVGID_7_" cx="410.9033" cy="149.0039" r="35.27" gradientUnits="userSpaceOnUse">
		<stop  offset="0.3758" style="stop-color:#FFFFFF"/>
		<stop  offset="0.5059" style="stop-color:#FAFAFA"/>
		<stop  offset="0.6599" style="stop-color:#ECECEC"/>
		<stop  offset="0.7818" style="stop-color:#DBDBDB"/>
		<stop  offset="0.9394" style="stop-color:#BCBCBC"/>
	</radialGradient>
	<path fill="url(#SVGID_7_)" d="M397.39,168.643c0.105,0.012,0.211,0.025,0.316,0.035c-0.087-0.008-0.173-0.021-0.261-0.03
		C397.427,168.646,397.408,168.645,397.39,168.643z"/>
	<path fill="#FFD100" d="M397.205,168.62c0.015,0.001,0.029,0.004,0.044,0.006c-0.008-0.001-0.017-0.002-0.025-0.004
		C397.218,168.622,397.211,168.621,397.205,168.62z"/>
	<radialGradient id="SVGID_8_" cx="410.9277" cy="147.6719" r="36.9204" gradientUnits="userSpaceOnUse">
		<stop  offset="0.3758" style="stop-color:#FFFFFF"/>
		<stop  offset="0.5059" style="stop-color:#FAFAFA"/>
		<stop  offset="0.6599" style="stop-color:#ECECEC"/>
		<stop  offset="0.7818" style="stop-color:#DBDBDB"/>
		<stop  offset="0.9394" style="stop-color:#BCBCBC"/>
	</radialGradient>
	<path fill="url(#SVGID_8_)" d="M397.205,168.62c0.015,0.001,0.029,0.004,0.044,0.006c-0.008-0.001-0.017-0.002-0.025-0.004
		C397.218,168.622,397.211,168.621,397.205,168.62z"/>
	<path fill="#FFD100" d="M401.768,168.82c0.071-0.001,0.144-0.002,0.215-0.004c-0.006,0-0.013,0-0.02,0
		C401.897,168.818,401.833,168.819,401.768,168.82z"/>
	<radialGradient id="SVGID_9_" cx="401.875" cy="168.8179" r="0.076" gradientUnits="userSpaceOnUse">
		<stop  offset="0.3758" style="stop-color:#FFFFFF"/>
		<stop  offset="0.5059" style="stop-color:#FAFAFA"/>
		<stop  offset="0.6599" style="stop-color:#ECECEC"/>
		<stop  offset="0.7818" style="stop-color:#DBDBDB"/>
		<stop  offset="0.9394" style="stop-color:#BCBCBC"/>
	</radialGradient>
	<path fill="url(#SVGID_9_)" d="M401.768,168.82c0.071-0.001,0.144-0.002,0.215-0.004c-0.006,0-0.013,0-0.02,0
		C401.897,168.818,401.833,168.819,401.768,168.82z"/>
	<path d="M386.55,164.522c-0.395-1.911-0.607-3.887-0.607-5.914c0-16.134,13.08-29.214,29.214-29.214
		c5.238,0,10.148,1.385,14.4,3.798c-2.26-10.191-8.361-17.561-20.194-17.561c-6.559,0-13.746,2.519-19.876,6.568
		c0.005,0,0.009,0.001,0.014,0.001c-6.571,4.338-11.927,10.43-13.988,17.069c-0.001,0-0.002,0.001-0.003,0.001
		c-0.591,1.904-0.914,3.853-0.914,5.817C376.594,153.521,380.597,160.381,386.55,164.522z"/>
	<radialGradient id="SVGID_10_" cx="410.9268" cy="148.9844" r="35.3129" gradientUnits="userSpaceOnUse">
		<stop  offset="0.3758" style="stop-color:#FFFFFF"/>
		<stop  offset="0.5059" style="stop-color:#FAFAFA"/>
		<stop  offset="0.6599" style="stop-color:#ECECEC"/>
		<stop  offset="0.7818" style="stop-color:#DBDBDB"/>
		<stop  offset="0.9394" style="stop-color:#BCBCBC"/>
	</radialGradient>
	<path fill="url(#SVGID_10_)" d="M386.55,164.522c-0.395-1.911-0.607-3.887-0.607-5.914c0-16.134,13.08-29.214,29.214-29.214
		c5.238,0,10.148,1.385,14.4,3.798c-2.26-10.191-8.361-17.561-20.194-17.561c-6.559,0-13.746,2.519-19.876,6.568
		c0.005,0,0.009,0.001,0.014,0.001c-6.571,4.338-11.927,10.43-13.988,17.069c-0.001,0-0.002,0.001-0.003,0.001
		c-0.591,1.904-0.914,3.853-0.914,5.817C376.594,153.521,380.597,160.381,386.55,164.522z"/>
	<path d="M401.795,168.819c-0.03,0.001-0.062,0.001-0.092,0.002c0.021,0,0.043-0.001,0.064-0.001
		c0.065-0.001,0.13-0.002,0.195-0.004C401.907,168.817,401.852,168.817,401.795,168.819z"/>
	<radialGradient id="SVGID_11_" cx="401.833" cy="168.8184" r="0.0919" gradientUnits="userSpaceOnUse">
		<stop  offset="0.3758" style="stop-color:#FFFFFF"/>
		<stop  offset="0.5059" style="stop-color:#FAFAFA"/>
		<stop  offset="0.6599" style="stop-color:#ECECEC"/>
		<stop  offset="0.7818" style="stop-color:#DBDBDB"/>
		<stop  offset="0.9394" style="stop-color:#BCBCBC"/>
	</radialGradient>
	<path fill="url(#SVGID_11_)" d="M401.795,168.819c-0.03,0.001-0.062,0.001-0.092,0.002c0.021,0,0.043-0.001,0.064-0.001
		c0.065-0.001,0.13-0.002,0.195-0.004C401.907,168.817,401.852,168.817,401.795,168.819z"/>
	<path d="M429.563,133.227c0.355,1.612,0.616,3.293,0.788,5.027C430.182,136.519,429.919,134.838,429.563,133.227z"/>
	<radialGradient id="SVGID_12_" cx="410.9346" cy="148.9834" r="35.3003" gradientUnits="userSpaceOnUse">
		<stop  offset="0.3758" style="stop-color:#FFFFFF"/>
		<stop  offset="0.5059" style="stop-color:#FAFAFA"/>
		<stop  offset="0.6599" style="stop-color:#ECECEC"/>
		<stop  offset="0.7818" style="stop-color:#DBDBDB"/>
		<stop  offset="0.9394" style="stop-color:#BCBCBC"/>
	</radialGradient>
	<path fill="url(#SVGID_12_)" d="M429.563,133.227c0.355,1.612,0.616,3.293,0.788,5.027
		C430.182,136.519,429.919,134.838,429.563,133.227z"/>
	<path fill="#FFD100" d="M386.746,165.406c0.009,0.005,0.018,0.009,0.027,0.014C386.764,165.415,386.755,165.41,386.746,165.406
		C386.746,165.405,386.746,165.405,386.746,165.406z"/>
	<radialGradient id="SVGID_13_" cx="419.2021" cy="164.2495" r="36.7631" gradientUnits="userSpaceOnUse">
		<stop  offset="0.3697" style="stop-color:#6BFF4A"/>
		<stop  offset="0.8182" style="stop-color:#2B8838"/>
	</radialGradient>
	<path fill="url(#SVGID_13_)" d="M386.746,165.406c0.009,0.005,0.018,0.009,0.027,0.014
		C386.764,165.415,386.755,165.41,386.746,165.406C386.746,165.405,386.746,165.405,386.746,165.406z"/>
	<path fill="#FFD100" d="M398.61,168.751c0.099,0.007,0.198,0.015,0.298,0.021c-0.066-0.004-0.131-0.011-0.196-0.016
		C398.678,168.755,398.644,168.754,398.61,168.751z"/>
	<radialGradient id="SVGID_14_" cx="420.0693" cy="164.208" r="37.7508" gradientUnits="userSpaceOnUse">
		<stop  offset="0.3697" style="stop-color:#6BFF4A"/>
		<stop  offset="0.8182" style="stop-color:#2B8838"/>
	</radialGradient>
	<path fill="url(#SVGID_14_)" d="M398.61,168.751c0.099,0.007,0.198,0.015,0.298,0.021c-0.066-0.004-0.131-0.011-0.196-0.016
		C398.678,168.755,398.644,168.754,398.61,168.751z"/>
	<path fill="#FFD100" d="M397.706,168.678c0.212,0.021,0.426,0.036,0.64,0.052c-0.05-0.003-0.098-0.009-0.146-0.013
		C398.035,168.703,397.869,168.694,397.706,168.678z"/>
	<radialGradient id="SVGID_15_" cx="420.0967" cy="164.2031" r="37.7974" gradientUnits="userSpaceOnUse">
		<stop  offset="0.3697" style="stop-color:#6BFF4A"/>
		<stop  offset="0.8182" style="stop-color:#2B8838"/>
	</radialGradient>
	<path fill="url(#SVGID_15_)" d="M397.706,168.678c0.212,0.021,0.426,0.036,0.64,0.052c-0.05-0.003-0.098-0.009-0.146-0.013
		C398.035,168.703,397.869,168.694,397.706,168.678z"/>
	<path fill="#FFD100" d="M399.345,168.792c0.042,0.002,0.084,0.004,0.125,0.006c-0.024-0.001-0.048-0.003-0.071-0.003
		C399.381,168.794,399.363,168.794,399.345,168.792z"/>
	<radialGradient id="SVGID_16_" cx="420.1494" cy="164.0859" r="37.9394" gradientUnits="userSpaceOnUse">
		<stop  offset="0.3697" style="stop-color:#6BFF4A"/>
		<stop  offset="0.8182" style="stop-color:#2B8838"/>
	</radialGradient>
	<path fill="url(#SVGID_16_)" d="M399.345,168.792c0.042,0.002,0.084,0.004,0.125,0.006c-0.024-0.001-0.048-0.003-0.071-0.003
		C399.381,168.794,399.363,168.794,399.345,168.792z"/>
	<path fill="#FFD100" d="M400.964,168.833c0.209,0,0.419-0.005,0.629-0.01c-0.023,0-0.048,0-0.071,0
		C401.335,168.827,401.148,168.833,400.964,168.833z"/>
	<radialGradient id="SVGID_17_" cx="420.0518" cy="164.4014" r="37.6285" gradientUnits="userSpaceOnUse">
		<stop  offset="0.3697" style="stop-color:#6BFF4A"/>
		<stop  offset="0.8182" style="stop-color:#2B8838"/>
	</radialGradient>
	<path fill="url(#SVGID_17_)" d="M400.964,168.833c0.209,0,0.419-0.005,0.629-0.01c-0.023,0-0.048,0-0.071,0
		C401.335,168.827,401.148,168.833,400.964,168.833z"/>
	<path fill="#FFD100" d="M399.784,168.813c0.144,0.005,0.289,0.008,0.434,0.011c-0.047-0.001-0.093-0.004-0.14-0.006
		C399.98,168.816,399.882,168.817,399.784,168.813z"/>
	<radialGradient id="SVGID_18_" cx="420.0605" cy="163.9336" r="37.8553" gradientUnits="userSpaceOnUse">
		<stop  offset="0.3697" style="stop-color:#6BFF4A"/>
		<stop  offset="0.8182" style="stop-color:#2B8838"/>
	</radialGradient>
	<path fill="url(#SVGID_18_)" d="M399.784,168.813c0.144,0.005,0.289,0.008,0.434,0.011c-0.047-0.001-0.093-0.004-0.14-0.006
		C399.98,168.816,399.882,168.817,399.784,168.813z"/>
	<path fill="#FFD100" d="M395.305,168.345c0.184,0.032,0.366,0.063,0.551,0.092c0.083,0.014,0.167,0.025,0.251,0.038
		c-0.314-0.047-0.627-0.099-0.937-0.155C395.215,168.328,395.26,168.336,395.305,168.345z"/>
	<radialGradient id="SVGID_19_" cx="410.9258" cy="148.9512" r="35.3512" gradientUnits="userSpaceOnUse">
		<stop  offset="0.3758" style="stop-color:#FFFFFF"/>
		<stop  offset="0.5059" style="stop-color:#FAFAFA"/>
		<stop  offset="0.6599" style="stop-color:#ECECEC"/>
		<stop  offset="0.7818" style="stop-color:#DBDBDB"/>
		<stop  offset="0.9394" style="stop-color:#BCBCBC"/>
	</radialGradient>
	<path fill="url(#SVGID_19_)" d="M395.305,168.345c0.184,0.032,0.366,0.063,0.551,0.092c0.083,0.014,0.167,0.025,0.251,0.038
		c-0.314-0.047-0.627-0.099-0.937-0.155C395.215,168.328,395.26,168.336,395.305,168.345z"/>
	<radialGradient id="SVGID_20_" cx="420.0654" cy="164.2104" r="37.7431" gradientUnits="userSpaceOnUse">
		<stop  offset="0.3697" style="stop-color:#6BFF4A"/>
		<stop  offset="0.8182" style="stop-color:#2B8838"/>
	</radialGradient>
	<path fill="url(#SVGID_20_)" d="M395.305,168.345c0.184,0.032,0.366,0.063,0.551,0.092c0.083,0.014,0.167,0.025,0.251,0.038
		c-0.314-0.047-0.627-0.099-0.937-0.155C395.215,168.328,395.26,168.336,395.305,168.345z"/>
	<path fill="#FFD100" d="M394.078,168.101c0.042,0.009,0.084,0.019,0.126,0.028c0.138,0.03,0.274,0.061,0.412,0.088
		c0.123,0.025,0.248,0.046,0.371,0.069C394.683,168.229,394.38,168.167,394.078,168.101z"/>
	<radialGradient id="SVGID_21_" cx="410.9307" cy="149.0112" r="35.288" gradientUnits="userSpaceOnUse">
		<stop  offset="0.3758" style="stop-color:#FFFFFF"/>
		<stop  offset="0.5059" style="stop-color:#FAFAFA"/>
		<stop  offset="0.6599" style="stop-color:#ECECEC"/>
		<stop  offset="0.7818" style="stop-color:#DBDBDB"/>
		<stop  offset="0.9394" style="stop-color:#BCBCBC"/>
	</radialGradient>
	<path fill="url(#SVGID_21_)" d="M394.078,168.101c0.042,0.009,0.084,0.019,0.126,0.028c0.138,0.03,0.274,0.061,0.412,0.088
		c0.123,0.025,0.248,0.046,0.371,0.069C394.683,168.229,394.38,168.167,394.078,168.101z"/>
	<radialGradient id="SVGID_22_" cx="420.0742" cy="164.2231" r="37.7531" gradientUnits="userSpaceOnUse">
		<stop  offset="0.3697" style="stop-color:#6BFF4A"/>
		<stop  offset="0.8182" style="stop-color:#2B8838"/>
	</radialGradient>
	<path fill="url(#SVGID_22_)" d="M394.078,168.101c0.042,0.009,0.084,0.019,0.126,0.028c0.138,0.03,0.274,0.061,0.412,0.088
		c0.123,0.025,0.248,0.046,0.371,0.069C394.683,168.229,394.38,168.167,394.078,168.101z"/>
	<path fill="#FFD100" d="M386.55,164.522c0.062,0.295,0.126,0.59,0.196,0.882c0.009,0.005,0.018,0.01,0.027,0.015
		c1.147,0.62,2.354,1.159,3.612,1.616c0.049,0.018,0.097,0.035,0.146,0.053c0.287,0.103,0.575,0.2,0.866,0.294
		c0.062,0.02,0.123,0.038,0.185,0.057c0.734,0.23,1.486,0.426,2.25,0.601c0.047,0.011,0.092,0.026,0.139,0.037
		c-0.013-0.046-0.022-0.092-0.034-0.138C391.209,167.211,388.748,166.051,386.55,164.522z"/>
	<radialGradient id="SVGID_23_" cx="410.9268" cy="148.9858" r="35.3123" gradientUnits="userSpaceOnUse">
		<stop  offset="0.3758" style="stop-color:#FFFFFF"/>
		<stop  offset="0.5059" style="stop-color:#FAFAFA"/>
		<stop  offset="0.6599" style="stop-color:#ECECEC"/>
		<stop  offset="0.7818" style="stop-color:#DBDBDB"/>
		<stop  offset="0.9394" style="stop-color:#BCBCBC"/>
	</radialGradient>
	<path fill="url(#SVGID_23_)" d="M386.55,164.522c0.062,0.295,0.126,0.59,0.196,0.882c0.009,0.005,0.018,0.01,0.027,0.015
		c1.147,0.62,2.354,1.159,3.612,1.616c0.049,0.018,0.097,0.035,0.146,0.053c0.287,0.103,0.575,0.2,0.866,0.294
		c0.062,0.02,0.123,0.038,0.185,0.057c0.734,0.23,1.486,0.426,2.25,0.601c0.047,0.011,0.092,0.026,0.139,0.037
		c-0.013-0.046-0.022-0.092-0.034-0.138C391.209,167.211,388.748,166.051,386.55,164.522z"/>
	<radialGradient id="SVGID_24_" cx="420.0674" cy="164.2183" r="37.7436" gradientUnits="userSpaceOnUse">
		<stop  offset="0.3697" style="stop-color:#6BFF4A"/>
		<stop  offset="0.8182" style="stop-color:#2B8838"/>
	</radialGradient>
	<path fill="url(#SVGID_24_)" d="M386.55,164.522c0.062,0.295,0.126,0.59,0.196,0.882c0.009,0.005,0.018,0.01,0.027,0.015
		c1.147,0.62,2.354,1.159,3.612,1.616c0.049,0.018,0.097,0.035,0.146,0.053c0.287,0.103,0.575,0.2,0.866,0.294
		c0.062,0.02,0.123,0.038,0.185,0.057c0.734,0.23,1.486,0.426,2.25,0.601c0.047,0.011,0.092,0.026,0.139,0.037
		c-0.013-0.046-0.022-0.092-0.034-0.138C391.209,167.211,388.748,166.051,386.55,164.522z"/>
	<path fill="#FFD100" d="M396.296,168.503c0.064,0.009,0.129,0.021,0.193,0.029c0.237,0.033,0.477,0.061,0.716,0.087
		c0.006,0,0.013,0.001,0.019,0.002C396.913,168.586,396.604,168.547,396.296,168.503z"/>
	<radialGradient id="SVGID_25_" cx="410.9219" cy="149.0415" r="35.2404" gradientUnits="userSpaceOnUse">
		<stop  offset="0.3758" style="stop-color:#FFFFFF"/>
		<stop  offset="0.5059" style="stop-color:#FAFAFA"/>
		<stop  offset="0.6599" style="stop-color:#ECECEC"/>
		<stop  offset="0.7818" style="stop-color:#DBDBDB"/>
		<stop  offset="0.9394" style="stop-color:#BCBCBC"/>
	</radialGradient>
	<path fill="url(#SVGID_25_)" d="M396.296,168.503c0.064,0.009,0.129,0.021,0.193,0.029c0.237,0.033,0.477,0.061,0.716,0.087
		c0.006,0,0.013,0.001,0.019,0.002C396.913,168.586,396.604,168.547,396.296,168.503z"/>
	<radialGradient id="SVGID_26_" cx="420.0586" cy="164.23" r="37.727" gradientUnits="userSpaceOnUse">
		<stop  offset="0.3697" style="stop-color:#6BFF4A"/>
		<stop  offset="0.8182" style="stop-color:#2B8838"/>
	</radialGradient>
	<path fill="url(#SVGID_26_)" d="M396.296,168.503c0.064,0.009,0.129,0.021,0.193,0.029c0.237,0.033,0.477,0.061,0.716,0.087
		c0.006,0,0.013,0.001,0.019,0.002C396.913,168.586,396.604,168.547,396.296,168.503z"/>
	<path fill="#FFD100" d="M397.445,168.648c0.088,0.009,0.174,0.022,0.261,0.03c0.163,0.017,0.329,0.025,0.493,0.039
		C397.947,168.695,397.695,168.674,397.445,168.648z"/>
	<radialGradient id="SVGID_27_" cx="410.9326" cy="148.9585" r="35.3511" gradientUnits="userSpaceOnUse">
		<stop  offset="0.3758" style="stop-color:#FFFFFF"/>
		<stop  offset="0.5059" style="stop-color:#FAFAFA"/>
		<stop  offset="0.6599" style="stop-color:#ECECEC"/>
		<stop  offset="0.7818" style="stop-color:#DBDBDB"/>
		<stop  offset="0.9394" style="stop-color:#BCBCBC"/>
	</radialGradient>
	<path fill="url(#SVGID_27_)" d="M397.445,168.648c0.088,0.009,0.174,0.022,0.261,0.03c0.163,0.017,0.329,0.025,0.493,0.039
		C397.947,168.695,397.695,168.674,397.445,168.648z"/>
	<radialGradient id="SVGID_28_" cx="420.0781" cy="164.2119" r="37.7641" gradientUnits="userSpaceOnUse">
		<stop  offset="0.3697" style="stop-color:#6BFF4A"/>
		<stop  offset="0.8182" style="stop-color:#2B8838"/>
	</radialGradient>
	<path fill="url(#SVGID_28_)" d="M397.445,168.648c0.088,0.009,0.174,0.022,0.261,0.03c0.163,0.017,0.329,0.025,0.493,0.039
		C397.947,168.695,397.695,168.674,397.445,168.648z"/>
	<path fill="#FFD100" d="M400.607,168.829c-0.032,0-0.064-0.001-0.098-0.002c-0.01,0-0.021,0.001-0.032,0
		C400.521,168.828,400.564,168.828,400.607,168.829z"/>
	<radialGradient id="SVGID_29_" cx="400.543" cy="168.8276" r="0.0456" gradientUnits="userSpaceOnUse">
		<stop  offset="0.3758" style="stop-color:#FFFFFF"/>
		<stop  offset="0.5059" style="stop-color:#FAFAFA"/>
		<stop  offset="0.6599" style="stop-color:#ECECEC"/>
		<stop  offset="0.7818" style="stop-color:#DBDBDB"/>
		<stop  offset="0.9394" style="stop-color:#BCBCBC"/>
	</radialGradient>
	<path fill="url(#SVGID_29_)" d="M400.607,168.829c-0.032,0-0.064-0.001-0.098-0.002c-0.01,0-0.021,0.001-0.032,0
		C400.521,168.828,400.564,168.828,400.607,168.829z"/>
	<radialGradient id="SVGID_30_" cx="420.0205" cy="163.9097" r="37.7977" gradientUnits="userSpaceOnUse">
		<stop  offset="0.3697" style="stop-color:#6BFF4A"/>
		<stop  offset="0.8182" style="stop-color:#2B8838"/>
	</radialGradient>
	<path fill="url(#SVGID_30_)" d="M400.607,168.829c-0.032,0-0.064-0.001-0.098-0.002c-0.01,0-0.021,0.001-0.032,0
		C400.521,168.828,400.564,168.828,400.607,168.829z"/>
	<path fill="#FFD100" d="M400.441,168.826c-0.121-0.001-0.242-0.004-0.363-0.007c0.047,0.001,0.093,0.004,0.14,0.006
		c0.086,0.001,0.173,0.001,0.259,0.002C400.465,168.827,400.453,168.826,400.441,168.826z"/>
	<radialGradient id="SVGID_31_" cx="410.9297" cy="149.0776" r="35.1854" gradientUnits="userSpaceOnUse">
		<stop  offset="0.3758" style="stop-color:#FFFFFF"/>
		<stop  offset="0.5059" style="stop-color:#FAFAFA"/>
		<stop  offset="0.6599" style="stop-color:#ECECEC"/>
		<stop  offset="0.7818" style="stop-color:#DBDBDB"/>
		<stop  offset="0.9394" style="stop-color:#BCBCBC"/>
	</radialGradient>
	<path fill="url(#SVGID_31_)" d="M400.441,168.826c-0.121-0.001-0.242-0.004-0.363-0.007c0.047,0.001,0.093,0.004,0.14,0.006
		c0.086,0.001,0.173,0.001,0.259,0.002C400.465,168.827,400.453,168.826,400.441,168.826z"/>
	<radialGradient id="SVGID_32_" cx="420.0723" cy="164.2393" r="37.7444" gradientUnits="userSpaceOnUse">
		<stop  offset="0.3697" style="stop-color:#6BFF4A"/>
		<stop  offset="0.8182" style="stop-color:#2B8838"/>
	</radialGradient>
	<path fill="url(#SVGID_32_)" d="M400.441,168.826c-0.121-0.001-0.242-0.004-0.363-0.007c0.047,0.001,0.093,0.004,0.14,0.006
		c0.086,0.001,0.173,0.001,0.259,0.002C400.465,168.827,400.453,168.826,400.441,168.826z"/>
	<path fill="#FFD100" d="M401.521,168.823c0.023,0,0.048,0,0.071,0c0.037,0,0.073-0.001,0.11-0.002c-0.009,0-0.018,0-0.027,0
		C401.624,168.822,401.572,168.823,401.521,168.823z"/>
	<radialGradient id="SVGID_33_" cx="401.6123" cy="168.8223" r="0.0642" gradientUnits="userSpaceOnUse">
		<stop  offset="0.3758" style="stop-color:#FFFFFF"/>
		<stop  offset="0.5059" style="stop-color:#FAFAFA"/>
		<stop  offset="0.6599" style="stop-color:#ECECEC"/>
		<stop  offset="0.7818" style="stop-color:#DBDBDB"/>
		<stop  offset="0.9394" style="stop-color:#BCBCBC"/>
	</radialGradient>
	<path fill="url(#SVGID_33_)" d="M401.521,168.823c0.023,0,0.048,0,0.071,0c0.037,0,0.073-0.001,0.11-0.002
		c-0.009,0-0.018,0-0.027,0C401.624,168.822,401.572,168.823,401.521,168.823z"/>
	<radialGradient id="SVGID_34_" cx="420.0439" cy="165.4214" r="37.1874" gradientUnits="userSpaceOnUse">
		<stop  offset="0.3697" style="stop-color:#6BFF4A"/>
		<stop  offset="0.8182" style="stop-color:#2B8838"/>
	</radialGradient>
	<path fill="url(#SVGID_34_)" d="M401.521,168.823c0.023,0,0.048,0,0.071,0c0.037,0,0.073-0.001,0.11-0.002
		c-0.009,0-0.018,0-0.027,0C401.624,168.822,401.572,168.823,401.521,168.823z"/>
	<path fill="#FFD100" d="M398.712,168.757c0.065,0.004,0.13,0.012,0.196,0.016c0.145,0.009,0.291,0.013,0.437,0.02
		c0.019,0.001,0.036,0.001,0.054,0.002C399.169,168.785,398.939,168.772,398.712,168.757z"/>
	<radialGradient id="SVGID_35_" cx="410.9141" cy="148.7461" r="35.622" gradientUnits="userSpaceOnUse">
		<stop  offset="0.3758" style="stop-color:#FFFFFF"/>
		<stop  offset="0.5059" style="stop-color:#FAFAFA"/>
		<stop  offset="0.6599" style="stop-color:#ECECEC"/>
		<stop  offset="0.7818" style="stop-color:#DBDBDB"/>
		<stop  offset="0.9394" style="stop-color:#BCBCBC"/>
	</radialGradient>
	<path fill="url(#SVGID_35_)" d="M398.712,168.757c0.065,0.004,0.13,0.012,0.196,0.016c0.145,0.009,0.291,0.013,0.437,0.02
		c0.019,0.001,0.036,0.001,0.054,0.002C399.169,168.785,398.939,168.772,398.712,168.757z"/>
	<radialGradient id="SVGID_36_" cx="420.0459" cy="164.1626" r="37.7288" gradientUnits="userSpaceOnUse">
		<stop  offset="0.3697" style="stop-color:#6BFF4A"/>
		<stop  offset="0.8182" style="stop-color:#2B8838"/>
	</radialGradient>
	<path fill="url(#SVGID_36_)" d="M398.712,168.757c0.065,0.004,0.13,0.012,0.196,0.016c0.145,0.009,0.291,0.013,0.437,0.02
		c0.019,0.001,0.036,0.001,0.054,0.002C399.169,168.785,398.939,168.772,398.712,168.757z"/>
	<path d="M430.562,141.398c-0.006-0.167-0.01-0.335-0.018-0.501c-0.019-0.382-0.042-0.76-0.068-1.138
		c-0.004-0.065-0.007-0.131-0.012-0.195c-0.031-0.43-0.068-0.855-0.11-1.279c-0.001-0.011-0.001-0.021-0.003-0.031
		c-0.172-1.734-0.433-3.415-0.788-5.027c-0.002-0.011-0.004-0.022-0.007-0.033c-4.252-2.414-9.162-3.798-14.4-3.798
		c-16.134,0-29.214,13.08-29.214,29.214c0,2.027,0.213,4.003,0.607,5.914c2.198,1.528,4.659,2.689,7.387,3.417
		c-0.487-1.902-0.751-3.895-0.751-5.95c0-5.889,2.134-11.277,5.666-15.444c-0.395-0.713-0.62-1.532-0.62-2.404
		c0-2.747,2.227-4.973,4.974-4.973c1.312,0,2.503,0.512,3.392,1.343c3.168-1.551,6.728-2.423,10.491-2.423
		c5.013,0,9.662,1.545,13.505,4.181c0.012,0.455,0.017,0.912,0.017,1.372c0-0.464-0.006-0.927-0.017-1.386
		C430.586,141.966,430.574,141.683,430.562,141.398z"/>
	<radialGradient id="SVGID_37_" cx="410.9248" cy="148.9839" r="35.3143" gradientUnits="userSpaceOnUse">
		<stop  offset="0.3758" style="stop-color:#FFFFFF"/>
		<stop  offset="0.5059" style="stop-color:#FAFAFA"/>
		<stop  offset="0.6599" style="stop-color:#ECECEC"/>
		<stop  offset="0.7818" style="stop-color:#DBDBDB"/>
		<stop  offset="0.9394" style="stop-color:#BCBCBC"/>
	</radialGradient>
	<path fill="url(#SVGID_37_)" d="M430.562,141.398c-0.006-0.167-0.01-0.335-0.018-0.501c-0.019-0.382-0.042-0.76-0.068-1.138
		c-0.004-0.065-0.007-0.131-0.012-0.195c-0.031-0.43-0.068-0.855-0.11-1.279c-0.001-0.011-0.001-0.021-0.003-0.031
		c-0.172-1.734-0.433-3.415-0.788-5.027c-0.002-0.011-0.004-0.022-0.007-0.033c-4.252-2.414-9.162-3.798-14.4-3.798
		c-16.134,0-29.214,13.08-29.214,29.214c0,2.027,0.213,4.003,0.607,5.914c2.198,1.528,4.659,2.689,7.387,3.417
		c-0.487-1.902-0.751-3.895-0.751-5.95c0-5.889,2.134-11.277,5.666-15.444c-0.395-0.713-0.62-1.532-0.62-2.404
		c0-2.747,2.227-4.973,4.974-4.973c1.312,0,2.503,0.512,3.392,1.343c3.168-1.551,6.728-2.423,10.491-2.423
		c5.013,0,9.662,1.545,13.505,4.181c0.012,0.455,0.017,0.912,0.017,1.372c0-0.464-0.006-0.927-0.017-1.386
		C430.586,141.966,430.574,141.683,430.562,141.398z"/>
	<radialGradient id="SVGID_38_" cx="420.0654" cy="164.2173" r="37.7451" gradientUnits="userSpaceOnUse">
		<stop  offset="0.3697" style="stop-color:#6BFF4A"/>
		<stop  offset="0.8182" style="stop-color:#2B8838"/>
	</radialGradient>
	<path fill="url(#SVGID_38_)" d="M430.562,141.398c-0.006-0.167-0.01-0.335-0.018-0.501c-0.019-0.382-0.042-0.76-0.068-1.138
		c-0.004-0.065-0.007-0.131-0.012-0.195c-0.031-0.43-0.068-0.855-0.11-1.279c-0.001-0.011-0.001-0.021-0.003-0.031
		c-0.172-1.734-0.433-3.415-0.788-5.027c-0.002-0.011-0.004-0.022-0.007-0.033c-4.252-2.414-9.162-3.798-14.4-3.798
		c-16.134,0-29.214,13.08-29.214,29.214c0,2.027,0.213,4.003,0.607,5.914c2.198,1.528,4.659,2.689,7.387,3.417
		c-0.487-1.902-0.751-3.895-0.751-5.95c0-5.889,2.134-11.277,5.666-15.444c-0.395-0.713-0.62-1.532-0.62-2.404
		c0-2.747,2.227-4.973,4.974-4.973c1.312,0,2.503,0.512,3.392,1.343c3.168-1.551,6.728-2.423,10.491-2.423
		c5.013,0,9.662,1.545,13.505,4.181c0.012,0.455,0.017,0.912,0.017,1.372c0-0.464-0.006-0.927-0.017-1.386
		C430.586,141.966,430.574,141.683,430.562,141.398z"/>
	<path d="M401.676,168.821c0.01,0,0.019,0,0.027,0c0.03-0.001,0.062-0.001,0.092-0.002
		C401.756,168.82,401.716,168.82,401.676,168.821z"/>
	<radialGradient id="SVGID_39_" cx="401.7354" cy="168.8203" r="0.0421" gradientUnits="userSpaceOnUse">
		<stop  offset="0.3758" style="stop-color:#FFFFFF"/>
		<stop  offset="0.5059" style="stop-color:#FAFAFA"/>
		<stop  offset="0.6599" style="stop-color:#ECECEC"/>
		<stop  offset="0.7818" style="stop-color:#DBDBDB"/>
		<stop  offset="0.9394" style="stop-color:#BCBCBC"/>
	</radialGradient>
	<path fill="url(#SVGID_39_)" d="M401.676,168.821c0.01,0,0.019,0,0.027,0c0.03-0.001,0.062-0.001,0.092-0.002
		C401.756,168.82,401.716,168.82,401.676,168.821z"/>
	<radialGradient id="SVGID_40_" cx="420.0557" cy="163.2969" r="38.2157" gradientUnits="userSpaceOnUse">
		<stop  offset="0.3697" style="stop-color:#6BFF4A"/>
		<stop  offset="0.8182" style="stop-color:#2B8838"/>
	</radialGradient>
	<path fill="url(#SVGID_40_)" d="M401.676,168.821c0.01,0,0.019,0,0.027,0c0.03-0.001,0.062-0.001,0.092-0.002
		C401.756,168.82,401.716,168.82,401.676,168.821z"/>
	<path d="M400.478,168.827c0.011,0.001,0.022,0,0.032,0c-0.023,0-0.046-0.001-0.068-0.001
		C400.453,168.826,400.465,168.827,400.478,168.827C400.478,168.827,400.478,168.827,400.478,168.827z"/>
	<radialGradient id="SVGID_41_" cx="400.4756" cy="168.8262" r="0.0242" gradientUnits="userSpaceOnUse">
		<stop  offset="0.3758" style="stop-color:#FFFFFF"/>
		<stop  offset="0.5059" style="stop-color:#FAFAFA"/>
		<stop  offset="0.6599" style="stop-color:#ECECEC"/>
		<stop  offset="0.7818" style="stop-color:#DBDBDB"/>
		<stop  offset="0.9394" style="stop-color:#BCBCBC"/>
	</radialGradient>
	<path fill="url(#SVGID_41_)" d="M400.478,168.827c0.011,0.001,0.022,0,0.032,0c-0.023,0-0.046-0.001-0.068-0.001
		C400.453,168.826,400.465,168.827,400.478,168.827C400.478,168.827,400.478,168.827,400.478,168.827z"/>
	<radialGradient id="SVGID_42_" cx="419.8379" cy="164.085" r="37.3844" gradientUnits="userSpaceOnUse">
		<stop  offset="0.3697" style="stop-color:#6BFF4A"/>
		<stop  offset="0.8182" style="stop-color:#2B8838"/>
	</radialGradient>
	<path fill="url(#SVGID_42_)" d="M400.478,168.827c0.011,0.001,0.022,0,0.032,0c-0.023,0-0.046-0.001-0.068-0.001
		C400.453,168.826,400.465,168.827,400.478,168.827C400.478,168.827,400.478,168.827,400.478,168.827z"/>
	<path fill="#000D00" d="M417.088,138.087c-3.764,0-7.323,0.873-10.491,2.423c0.972,0.907,1.582,2.196,1.582,3.63
		c0,2.748-2.227,4.974-4.974,4.974c-1.875,0-3.506-1.038-4.354-2.569c-3.532,4.167-5.666,9.555-5.666,15.444
		c0,2.056,0.264,4.048,0.751,5.95c0.012,0.046,0.021,0.092,0.034,0.138c0,0,0,0.001,0,0.002c0.035,0.008,0.072,0.014,0.107,0.022
		c0.302,0.066,0.604,0.128,0.909,0.185c0.026,0.005,0.053,0.01,0.079,0.015c0.035,0.006,0.068,0.013,0.104,0.019
		c0.31,0.056,0.622,0.108,0.937,0.155c0.041,0.006,0.082,0.012,0.124,0.019c0.021,0.003,0.044,0.006,0.065,0.01
		c0.308,0.044,0.617,0.083,0.928,0.119c0.009,0.001,0.018,0.002,0.025,0.004c0.047,0.005,0.094,0.012,0.141,0.017
		c0.019,0.002,0.037,0.003,0.056,0.005c0.25,0.026,0.502,0.047,0.754,0.069c0.049,0.004,0.097,0.01,0.146,0.013
		c0.088,0.007,0.176,0.015,0.265,0.021c0.033,0.002,0.067,0.003,0.102,0.005c0.228,0.016,0.457,0.028,0.687,0.038
		c0.023,0,0.047,0.002,0.071,0.003c0.104,0.005,0.21,0.011,0.314,0.015c0.098,0.004,0.196,0.003,0.294,0.005
		c0.121,0.003,0.242,0.006,0.363,0.007c0.022,0,0.045,0.001,0.068,0.001c0.033,0.001,0.065,0.001,0.098,0.002
		c0.021,0,0.041,0.001,0.062,0.001c0.098,0.001,0.195,0.003,0.294,0.003c0.185,0,0.371-0.006,0.558-0.01
		c0.051,0,0.103-0.001,0.154-0.002c0.04-0.001,0.08-0.001,0.119-0.002c0.057-0.001,0.112-0.001,0.168-0.003c0.007,0,0.014,0,0.02,0
		c0.055-0.002,0.107-0.002,0.162-0.004c0.392-0.015,0.786-0.035,1.182-0.063c20.523-1.448,27.283-9.908,27.283-25.109
		c0-0.46-0.005-0.917-0.017-1.372C426.75,139.632,422.101,138.087,417.088,138.087z"/>
	<path fill="#0A0C05" d="M371.697,137.363c-1.931,1.689-1.931,1.689-4.667,3.862c1.07-0.85,3.18-0.007,7.047-1.379
		c0.454-0.161,0.927-0.346,1.431-0.575c0.001,0,0.002-0.001,0.003-0.001c2.062-6.639,7.417-12.731,13.988-17.069
		c-0.005,0-0.009,0-0.014-0.001c-1.313-0.042-2.723-0.144-4.201-0.329c-5.869-0.733-12.84-2.782-19.382-7.688
		c2.415,6.759,8.128,9.365,11.509,11.78c-7.726,0.482-10.061-0.192-14.889-3.089c1.448,5.312,6.758,8.362,11.104,8.844
		c-3.862,1.449-6.276,2.263-12.071,2.263C366.386,136.879,368.318,137.363,371.697,137.363z"/>
	<path fill="#0A0C05" d="M493.812,173.064c0.025-0.001,0.052-0.002,0.077-0.003c-0.001,0-0.001,0-0.002,0
		C493.862,173.062,493.837,173.063,493.812,173.064z"/>
	<path fill="#0A0C05" d="M501.521,127.332c-5.804-4.703-13.207-7.407-21.537-6.021c-4.974,0.827-11.228,8.113-11.228,27.159
		c0-0.413,0.004-0.82,0.013-1.223c0.004-0.217,0.01-0.431,0.017-0.645c0.004-0.152,0.009-0.303,0.015-0.453
		c0.044-1.216,0.121-2.389,0.23-3.516c0.014-0.135,0.026-0.269,0.04-0.402c0.117-1.12,0.264-2.193,0.439-3.22
		c0.021-0.124,0.042-0.246,0.063-0.367c0.09-0.504,0.185-1.001,0.288-1.482c0-0.002,0.001-0.005,0.002-0.009
		c0.103-0.479,0.214-0.942,0.329-1.399c0.031-0.123,0.062-0.244,0.094-0.365c0.109-0.415,0.222-0.823,0.34-1.217
		c0.01-0.03,0.018-0.063,0.026-0.093c0,0,0,0,0.001,0c1.952-6.438,5.139-10.175,8.242-10.719c8.968-1.569,16.919,1.521,23.047,6.789
		c-0.001,0-0.002,0.001-0.002,0.002c4.779,4.11,8.445,9.543,10.62,15.132c0.003,0,0.006,0,0.009,0
		c1.044,2.68,1.745,5.396,2.06,8.015c0.02-2.542-0.39-5.242-1.181-7.956c3.856,0.119,8.377-1.494,9.268-1.479
		c-4.718-0.717-5.681-1.436-6.639-2.153c0,0,6.792-3.409,7.002-7.726c-4.314,2.144-7.002,2.172-9.898,1.931
		c2.695-1.347,4.828-6.276,4.713-8.497c-2.54,3.186-8.584,5.109-9.059,4.635c0.261-1.307,1.155-3.396,1.694-6.029
		c0.457-2.232,0.659-4.853-0.005-7.733c-1.659,3.167-3.434,5.779-5.061,7.86c-0.791,1.012-1.551,1.908-2.239,2.661
		C502.675,128.298,502.106,127.805,501.521,127.332z"/>
	<path fill="#EFF4F4" d="M513.035,162.893c1.422-2.748,2.029-5.974,1.595-9.596c-0.026,3.216-0.646,6.111-1.788,8.638
		C512.908,162.254,512.973,162.574,513.035,162.893z"/>
	<radialGradient id="SVGID_43_" cx="471.8564" cy="153.2998" r="39.1535" gradientUnits="userSpaceOnUse">
		<stop  offset="0.3758" style="stop-color:#FFFFFF"/>
		<stop  offset="0.5059" style="stop-color:#FAFAFA"/>
		<stop  offset="0.6599" style="stop-color:#ECECEC"/>
		<stop  offset="0.7818" style="stop-color:#DBDBDB"/>
		<stop  offset="0.9394" style="stop-color:#BCBCBC"/>
	</radialGradient>
	<path fill="url(#SVGID_43_)" d="M513.035,162.893c1.422-2.748,2.029-5.974,1.595-9.596c-0.026,3.216-0.646,6.111-1.788,8.638
		C512.908,162.254,512.973,162.574,513.035,162.893z"/>
	<path fill="#FFD100" d="M494.907,173.007c0.046-0.003,0.091-0.008,0.136-0.012c-0.009,0-0.019,0.001-0.027,0.002
		C494.979,172.999,494.943,173.004,494.907,173.007z"/>
	<radialGradient id="SVGID_44_" cx="471.9521" cy="152.6191" r="39.6345" gradientUnits="userSpaceOnUse">
		<stop  offset="0.3758" style="stop-color:#FFFFFF"/>
		<stop  offset="0.5059" style="stop-color:#FAFAFA"/>
		<stop  offset="0.6599" style="stop-color:#ECECEC"/>
		<stop  offset="0.7818" style="stop-color:#DBDBDB"/>
		<stop  offset="0.9394" style="stop-color:#BCBCBC"/>
	</radialGradient>
	<path fill="url(#SVGID_44_)" d="M494.907,173.007c0.046-0.003,0.091-0.008,0.136-0.012c-0.009,0-0.019,0.001-0.027,0.002
		C494.979,172.999,494.943,173.004,494.907,173.007z"/>
	<path fill="#FFD100" d="M499.547,172.3c-0.005,0.008-0.01,0.016-0.014,0.024c6.198-1.411,11.06-4.709,13.502-9.432
		c-0.062-0.319-0.127-0.639-0.193-0.958C510.48,167.157,505.872,170.785,499.547,172.3z"/>
	<radialGradient id="SVGID_45_" cx="471.8594" cy="153.3013" r="39.1504" gradientUnits="userSpaceOnUse">
		<stop  offset="0.3758" style="stop-color:#FFFFFF"/>
		<stop  offset="0.5059" style="stop-color:#FAFAFA"/>
		<stop  offset="0.6599" style="stop-color:#ECECEC"/>
		<stop  offset="0.7818" style="stop-color:#DBDBDB"/>
		<stop  offset="0.9394" style="stop-color:#BCBCBC"/>
	</radialGradient>
	<path fill="url(#SVGID_45_)" d="M499.547,172.3c-0.005,0.008-0.01,0.016-0.014,0.024c6.198-1.411,11.06-4.709,13.502-9.432
		c-0.062-0.319-0.127-0.639-0.193-0.958C510.48,167.157,505.872,170.785,499.547,172.3z"/>
	<path fill="#0A0C05" d="M512.562,145.281c-2.175-5.589-5.841-11.022-10.62-15.132c0,0,0.001-0.001,0.002-0.002
		c-6.128-5.269-14.079-8.358-23.047-6.789c-3.104,0.544-6.29,4.28-8.242,10.719c12.861-3.827,26.644,2.971,31.313,15.744
		c2.835,7.759,1.678,15.999-2.421,22.479c6.325-1.515,10.934-5.144,13.295-10.366c1.142-2.526,1.762-5.422,1.788-8.638
		c-0.314-2.62-1.016-5.335-2.06-8.015C512.567,145.282,512.564,145.282,512.562,145.281z"/>
	<radialGradient id="SVGID_46_" cx="471.8604" cy="153.3008" r="39.1501" gradientUnits="userSpaceOnUse">
		<stop  offset="0.3758" style="stop-color:#FFFFFF"/>
		<stop  offset="0.5059" style="stop-color:#FAFAFA"/>
		<stop  offset="0.6599" style="stop-color:#ECECEC"/>
		<stop  offset="0.7818" style="stop-color:#DBDBDB"/>
		<stop  offset="0.9394" style="stop-color:#BCBCBC"/>
	</radialGradient>
	<path fill="url(#SVGID_46_)" d="M512.562,145.281c-2.175-5.589-5.841-11.022-10.62-15.132c0,0,0.001-0.001,0.002-0.002
		c-6.128-5.269-14.079-8.358-23.047-6.789c-3.104,0.544-6.29,4.28-8.242,10.719c12.861-3.827,26.644,2.971,31.313,15.744
		c2.835,7.759,1.678,15.999-2.421,22.479c6.325-1.515,10.934-5.144,13.295-10.366c1.142-2.526,1.762-5.422,1.788-8.638
		c-0.314-2.62-1.016-5.335-2.06-8.015C512.567,145.282,512.564,145.282,512.562,145.281z"/>
	<path fill="#0A0C05" d="M469.071,142.229c0.117-1.119,0.264-2.193,0.439-3.22C469.335,140.036,469.188,141.11,469.071,142.229z"/>
	<radialGradient id="SVGID_47_" cx="471.8643" cy="153.3008" r="39.1534" gradientUnits="userSpaceOnUse">
		<stop  offset="0.3758" style="stop-color:#FFFFFF"/>
		<stop  offset="0.5059" style="stop-color:#FAFAFA"/>
		<stop  offset="0.6599" style="stop-color:#ECECEC"/>
		<stop  offset="0.7818" style="stop-color:#DBDBDB"/>
		<stop  offset="0.9394" style="stop-color:#BCBCBC"/>
	</radialGradient>
	<path fill="url(#SVGID_47_)" d="M469.071,142.229c0.117-1.119,0.264-2.193,0.439-3.22
		C469.335,140.036,469.188,141.11,469.071,142.229z"/>
	<path fill="#0A0C05" d="M494.7,173.018c0.068-0.004,0.139-0.006,0.207-0.011c0.036-0.003,0.071-0.008,0.108-0.01
		C494.911,173.004,494.805,173.011,494.7,173.018z"/>
	<radialGradient id="SVGID_48_" cx="471.8506" cy="153.9043" r="38.6601" gradientUnits="userSpaceOnUse">
		<stop  offset="0.3758" style="stop-color:#FFFFFF"/>
		<stop  offset="0.5059" style="stop-color:#FAFAFA"/>
		<stop  offset="0.6599" style="stop-color:#ECECEC"/>
		<stop  offset="0.7818" style="stop-color:#DBDBDB"/>
		<stop  offset="0.9394" style="stop-color:#BCBCBC"/>
	</radialGradient>
	<path fill="url(#SVGID_48_)" d="M494.7,173.018c0.068-0.004,0.139-0.006,0.207-0.011c0.036-0.003,0.071-0.008,0.108-0.01
		C494.911,173.004,494.805,173.011,494.7,173.018z"/>
	<path fill="#0A0C05" d="M468.786,146.601c-0.007,0.214-0.013,0.428-0.017,0.645c0.003-0.145,0.009-0.285,0.013-0.428
		C468.784,146.746,468.783,146.672,468.786,146.601z"/>
	<radialGradient id="SVGID_49_" cx="471.8447" cy="153.2954" r="39.0868" gradientUnits="userSpaceOnUse">
		<stop  offset="0.3758" style="stop-color:#FFFFFF"/>
		<stop  offset="0.5059" style="stop-color:#FAFAFA"/>
		<stop  offset="0.6599" style="stop-color:#ECECEC"/>
		<stop  offset="0.7818" style="stop-color:#DBDBDB"/>
		<stop  offset="0.9394" style="stop-color:#BCBCBC"/>
	</radialGradient>
	<path fill="url(#SVGID_49_)" d="M468.786,146.601c-0.007,0.214-0.013,0.428-0.017,0.645c0.003-0.145,0.009-0.285,0.013-0.428
		C468.784,146.746,468.783,146.672,468.786,146.601z"/>
	<path fill="#0A0C05" d="M470.653,134.078c-0.009,0.03-0.017,0.062-0.026,0.093C470.637,134.14,470.645,134.107,470.653,134.078
		C470.653,134.077,470.653,134.078,470.653,134.078z"/>
	<radialGradient id="SVGID_50_" cx="470.0723" cy="166.5356" r="39.7355" gradientUnits="userSpaceOnUse">
		<stop  offset="0.3697" style="stop-color:#6BFF4A"/>
		<stop  offset="0.8182" style="stop-color:#2B8838"/>
	</radialGradient>
	<path fill="url(#SVGID_50_)" d="M470.653,134.078c-0.009,0.03-0.017,0.062-0.026,0.093
		C470.637,134.14,470.645,134.107,470.653,134.078C470.653,134.077,470.653,134.078,470.653,134.078z"/>
	<path fill="#0A0C05" d="M493.89,173.062c0.136-0.006,0.27-0.015,0.404-0.022c-0.136,0.007-0.271,0.016-0.406,0.022
		C493.889,173.062,493.889,173.062,493.89,173.062z"/>
	<radialGradient id="SVGID_51_" cx="470.0703" cy="166.4717" r="39.7267" gradientUnits="userSpaceOnUse">
		<stop  offset="0.3697" style="stop-color:#6BFF4A"/>
		<stop  offset="0.8182" style="stop-color:#2B8838"/>
	</radialGradient>
	<path fill="url(#SVGID_51_)" d="M493.89,173.062c0.136-0.006,0.27-0.015,0.404-0.022c-0.136,0.007-0.271,0.016-0.406,0.022
		C493.889,173.062,493.889,173.062,493.89,173.062z"/>
	<path fill="#FFD100" d="M495.016,172.997c0.009-0.001,0.019-0.002,0.027-0.002c0.354-0.027,0.705-0.058,1.054-0.096
		c0.09-0.01,0.179-0.022,0.269-0.033c0.263-0.031,0.522-0.063,0.781-0.102c0.146-0.021,0.291-0.042,0.436-0.065
		c0.204-0.033,0.407-0.067,0.609-0.104c0.149-0.026,0.299-0.052,0.447-0.081c0.29-0.056,0.578-0.117,0.862-0.182
		c0.01-0.002,0.021-0.004,0.031-0.007c0,0,0-0.001,0.001-0.001c0.004-0.008,0.009-0.016,0.014-0.024
		C498.121,172.642,496.608,172.875,495.016,172.997z"/>
	<radialGradient id="SVGID_52_" cx="471.8613" cy="153.2935" r="39.1539" gradientUnits="userSpaceOnUse">
		<stop  offset="0.3758" style="stop-color:#FFFFFF"/>
		<stop  offset="0.5059" style="stop-color:#FAFAFA"/>
		<stop  offset="0.6599" style="stop-color:#ECECEC"/>
		<stop  offset="0.7818" style="stop-color:#DBDBDB"/>
		<stop  offset="0.9394" style="stop-color:#BCBCBC"/>
	</radialGradient>
	<path fill="url(#SVGID_52_)" d="M495.016,172.997c0.009-0.001,0.019-0.002,0.027-0.002c0.354-0.027,0.705-0.058,1.054-0.096
		c0.09-0.01,0.179-0.022,0.269-0.033c0.263-0.031,0.522-0.063,0.781-0.102c0.146-0.021,0.291-0.042,0.436-0.065
		c0.204-0.033,0.407-0.067,0.609-0.104c0.149-0.026,0.299-0.052,0.447-0.081c0.29-0.056,0.578-0.117,0.862-0.182
		c0.01-0.002,0.021-0.004,0.031-0.007c0,0,0-0.001,0.001-0.001c0.004-0.008,0.009-0.016,0.014-0.024
		C498.121,172.642,496.608,172.875,495.016,172.997z"/>
	<radialGradient id="SVGID_53_" cx="470.084" cy="166.501" r="39.6943" gradientUnits="userSpaceOnUse">
		<stop  offset="0.3697" style="stop-color:#6BFF4A"/>
		<stop  offset="0.8182" style="stop-color:#2B8838"/>
	</radialGradient>
	<path fill="url(#SVGID_53_)" d="M495.016,172.997c0.009-0.001,0.019-0.002,0.027-0.002c0.354-0.027,0.705-0.058,1.054-0.096
		c0.09-0.01,0.179-0.022,0.269-0.033c0.263-0.031,0.522-0.063,0.781-0.102c0.146-0.021,0.291-0.042,0.436-0.065
		c0.204-0.033,0.407-0.067,0.609-0.104c0.149-0.026,0.299-0.052,0.447-0.081c0.29-0.056,0.578-0.117,0.862-0.182
		c0.01-0.002,0.021-0.004,0.031-0.007c0,0,0-0.001,0.001-0.001c0.004-0.008,0.009-0.016,0.014-0.024
		C498.121,172.642,496.608,172.875,495.016,172.997z"/>
	<path fill="#0A0C05" d="M499.547,172.3c4.099-6.48,5.256-14.72,2.421-22.479c-4.67-12.773-18.452-19.571-31.313-15.744
		c-0.01,0.03-0.018,0.062-0.027,0.093c-0.118,0.395-0.23,0.802-0.34,1.217c-0.031,0.121-0.062,0.243-0.094,0.365
		c-0.115,0.457-0.227,0.919-0.329,1.399c-0.001,0.003-0.002,0.006-0.002,0.009c-0.104,0.481-0.198,0.978-0.288,1.482
		c-0.021,0.122-0.042,0.244-0.063,0.367c-0.176,1.026-0.322,2.101-0.439,3.22c-0.014,0.133-0.026,0.268-0.04,0.402
		c-0.109,1.127-0.187,2.3-0.23,3.516c-0.006,0.15-0.011,0.301-0.015,0.453c-0.003,0.071-0.002,0.146-0.004,0.217
		c0.03-1.051,0.085-2.072,0.161-3.062c2.556-1.299,5.44-2.046,8.505-2.046c3.101,0,6.022,0.753,8.602,2.081
		c0.906-1.219,2.354-2.012,3.989-2.012c2.747,0,4.974,2.227,4.974,4.973c0,1.475-0.646,2.794-1.664,3.705
		c1.854,2.917,2.932,6.374,2.932,10.085c0,4.812-1.821,9.189-4.792,12.518c0.31,0.011,0.614,0.037,0.929,0.037
		c0.38,0,0.757-0.008,1.131-0.02c0.089-0.003,0.177-0.007,0.265-0.011c0.024-0.001,0.05-0.002,0.075-0.003
		c0.136-0.006,0.271-0.015,0.406-0.022s0.271-0.013,0.406-0.022c0.104-0.007,0.211-0.013,0.315-0.021
		C496.608,172.875,498.121,172.642,499.547,172.3z"/>
	<radialGradient id="SVGID_54_" cx="471.8594" cy="153.3003" r="39.1508" gradientUnits="userSpaceOnUse">
		<stop  offset="0.3758" style="stop-color:#FFFFFF"/>
		<stop  offset="0.5059" style="stop-color:#FAFAFA"/>
		<stop  offset="0.6599" style="stop-color:#ECECEC"/>
		<stop  offset="0.7818" style="stop-color:#DBDBDB"/>
		<stop  offset="0.9394" style="stop-color:#BCBCBC"/>
	</radialGradient>
	<path fill="url(#SVGID_54_)" d="M499.547,172.3c4.099-6.48,5.256-14.72,2.421-22.479c-4.67-12.773-18.452-19.571-31.313-15.744
		c-0.01,0.03-0.018,0.062-0.027,0.093c-0.118,0.395-0.23,0.802-0.34,1.217c-0.031,0.121-0.062,0.243-0.094,0.365
		c-0.115,0.457-0.227,0.919-0.329,1.399c-0.001,0.003-0.002,0.006-0.002,0.009c-0.104,0.481-0.198,0.978-0.288,1.482
		c-0.021,0.122-0.042,0.244-0.063,0.367c-0.176,1.026-0.322,2.101-0.439,3.22c-0.014,0.133-0.026,0.268-0.04,0.402
		c-0.109,1.127-0.187,2.3-0.23,3.516c-0.006,0.15-0.011,0.301-0.015,0.453c-0.003,0.071-0.002,0.146-0.004,0.217
		c0.03-1.051,0.085-2.072,0.161-3.062c2.556-1.299,5.44-2.046,8.505-2.046c3.101,0,6.022,0.753,8.602,2.081
		c0.906-1.219,2.354-2.012,3.989-2.012c2.747,0,4.974,2.227,4.974,4.973c0,1.475-0.646,2.794-1.664,3.705
		c1.854,2.917,2.932,6.374,2.932,10.085c0,4.812-1.821,9.189-4.792,12.518c0.31,0.011,0.614,0.037,0.929,0.037
		c0.38,0,0.757-0.008,1.131-0.02c0.089-0.003,0.177-0.007,0.265-0.011c0.024-0.001,0.05-0.002,0.075-0.003
		c0.136-0.006,0.271-0.015,0.406-0.022s0.271-0.013,0.406-0.022c0.104-0.007,0.211-0.013,0.315-0.021
		C496.608,172.875,498.121,172.642,499.547,172.3z"/>
	<radialGradient id="SVGID_55_" cx="470.083" cy="166.5029" r="39.6949" gradientUnits="userSpaceOnUse">
		<stop  offset="0.3697" style="stop-color:#6BFF4A"/>
		<stop  offset="0.8182" style="stop-color:#2B8838"/>
	</radialGradient>
	<path fill="url(#SVGID_55_)" d="M499.547,172.3c4.099-6.48,5.256-14.72,2.421-22.479c-4.67-12.773-18.452-19.571-31.313-15.744
		c-0.01,0.03-0.018,0.062-0.027,0.093c-0.118,0.395-0.23,0.802-0.34,1.217c-0.031,0.121-0.062,0.243-0.094,0.365
		c-0.115,0.457-0.227,0.919-0.329,1.399c-0.001,0.003-0.002,0.006-0.002,0.009c-0.104,0.481-0.198,0.978-0.288,1.482
		c-0.021,0.122-0.042,0.244-0.063,0.367c-0.176,1.026-0.322,2.101-0.439,3.22c-0.014,0.133-0.026,0.268-0.04,0.402
		c-0.109,1.127-0.187,2.3-0.23,3.516c-0.006,0.15-0.011,0.301-0.015,0.453c-0.003,0.071-0.002,0.146-0.004,0.217
		c0.03-1.051,0.085-2.072,0.161-3.062c2.556-1.299,5.44-2.046,8.505-2.046c3.101,0,6.022,0.753,8.602,2.081
		c0.906-1.219,2.354-2.012,3.989-2.012c2.747,0,4.974,2.227,4.974,4.973c0,1.475-0.646,2.794-1.664,3.705
		c1.854,2.917,2.932,6.374,2.932,10.085c0,4.812-1.821,9.189-4.792,12.518c0.31,0.011,0.614,0.037,0.929,0.037
		c0.38,0,0.757-0.008,1.131-0.02c0.089-0.003,0.177-0.007,0.265-0.011c0.024-0.001,0.05-0.002,0.075-0.003
		c0.136-0.006,0.271-0.015,0.406-0.022s0.271-0.013,0.406-0.022c0.104-0.007,0.211-0.013,0.315-0.021
		C496.608,172.875,498.121,172.642,499.547,172.3z"/>
	<path fill="#000D00" d="M493.349,150.455c-0.88,0.787-2.037,1.269-3.31,1.269c-2.746,0-4.974-2.226-4.974-4.973
		c0-1.11,0.369-2.133,0.984-2.961c-2.579-1.327-5.501-2.081-8.602-2.081c-3.064,0-5.949,0.747-8.505,2.046
		c-0.076,0.99-0.131,2.012-0.161,3.062c-0.004,0.144-0.01,0.284-0.013,0.428c-0.009,0.403-0.013,0.81-0.013,1.223
		c0,0.469,0.009,0.933,0.028,1.392c0.007,0.159,0.02,0.313,0.029,0.471c0.017,0.297,0.032,0.595,0.057,0.887
		c0.015,0.185,0.038,0.365,0.057,0.548c0.026,0.26,0.051,0.521,0.083,0.776c0.025,0.194,0.058,0.384,0.086,0.576
		c0.035,0.237,0.067,0.477,0.108,0.711c0.035,0.199,0.077,0.392,0.115,0.588c0.043,0.223,0.085,0.446,0.133,0.665
		c0.044,0.2,0.095,0.395,0.143,0.591c0.052,0.208,0.101,0.418,0.156,0.623c0.054,0.201,0.115,0.396,0.174,0.593
		c0.058,0.195,0.113,0.393,0.175,0.585c0.065,0.2,0.136,0.395,0.204,0.591c0.064,0.183,0.127,0.367,0.193,0.547
		c0.076,0.199,0.156,0.393,0.236,0.588c0.069,0.171,0.137,0.344,0.211,0.513c0.085,0.196,0.176,0.389,0.267,0.582
		c0.074,0.16,0.147,0.321,0.226,0.479c0.097,0.195,0.198,0.386,0.3,0.577c0.079,0.148,0.156,0.297,0.237,0.442
		c0.108,0.194,0.222,0.383,0.335,0.572c0.081,0.137,0.162,0.275,0.247,0.409c0.119,0.191,0.244,0.377,0.369,0.563
		c0.084,0.126,0.168,0.252,0.255,0.376c0.131,0.188,0.268,0.371,0.404,0.554c0.087,0.115,0.172,0.23,0.261,0.344
		c0.145,0.184,0.293,0.364,0.442,0.543c0.087,0.104,0.174,0.209,0.264,0.312c0.156,0.181,0.317,0.356,0.479,0.53
		c0.088,0.095,0.175,0.189,0.264,0.282c0.171,0.177,0.344,0.348,0.521,0.518c0.087,0.084,0.174,0.168,0.262,0.251
		c0.184,0.171,0.371,0.338,0.561,0.503c0.086,0.074,0.171,0.149,0.258,0.223c0.197,0.166,0.398,0.328,0.602,0.486
		c0.083,0.065,0.167,0.13,0.251,0.195c0.212,0.16,0.427,0.315,0.645,0.468c0.08,0.057,0.161,0.113,0.242,0.168
		c0.227,0.153,0.455,0.302,0.688,0.447c0.078,0.048,0.154,0.097,0.233,0.144c0.24,0.146,0.483,0.288,0.73,0.425
		c0.073,0.041,0.146,0.081,0.219,0.12c0.256,0.139,0.515,0.272,0.777,0.401c0.067,0.033,0.136,0.065,0.204,0.099
		c0.271,0.13,0.545,0.254,0.822,0.374c0.062,0.027,0.124,0.053,0.187,0.079c0.287,0.12,0.577,0.235,0.871,0.345
		c0.055,0.021,0.11,0.04,0.165,0.061c0.303,0.109,0.609,0.214,0.919,0.312c0.048,0.016,0.097,0.03,0.145,0.045
		c0.319,0.099,0.641,0.192,0.967,0.279c0.04,0.011,0.082,0.021,0.123,0.032c0.335,0.087,0.672,0.169,1.014,0.242
		c0.033,0.007,0.065,0.014,0.099,0.021c0.351,0.075,0.705,0.142,1.063,0.203c0.023,0.003,0.047,0.007,0.069,0.01
		c0.369,0.061,0.741,0.115,1.116,0.161c0.013,0.001,0.027,0.002,0.04,0.004c0.386,0.046,0.775,0.085,1.168,0.115
		c0.002,0,0.004,0,0.007,0.001c0.401,0.03,0.806,0.052,1.214,0.065c0.005-0.005,0.009-0.011,0.014-0.017
		c2.971-3.329,4.792-7.706,4.792-12.518C496.28,156.829,495.203,153.371,493.349,150.455z"/>
	<path d="M406.597,140.51c-0.889-0.831-2.079-1.343-3.392-1.343c-2.747,0-4.974,2.227-4.974,4.973c0,0.872,0.226,1.691,0.62,2.404
		C400.979,144.036,403.612,141.97,406.597,140.51z"/>
	<radialGradient id="SVGID_56_" cx="410.9258" cy="148.9844" r="35.3129" gradientUnits="userSpaceOnUse">
		<stop  offset="0.3758" style="stop-color:#FFFFFF"/>
		<stop  offset="0.5059" style="stop-color:#FAFAFA"/>
		<stop  offset="0.6599" style="stop-color:#ECECEC"/>
		<stop  offset="0.7818" style="stop-color:#DBDBDB"/>
		<stop  offset="0.9394" style="stop-color:#BCBCBC"/>
	</radialGradient>
	<path fill="url(#SVGID_56_)" d="M406.597,140.51c-0.889-0.831-2.079-1.343-3.392-1.343c-2.747,0-4.974,2.227-4.974,4.973
		c0,0.872,0.226,1.691,0.62,2.404C400.979,144.036,403.612,141.97,406.597,140.51z"/>
	<radialGradient id="SVGID_57_" cx="420.0664" cy="164.2178" r="37.7424" gradientUnits="userSpaceOnUse">
		<stop  offset="0.3697" style="stop-color:#6BFF4A"/>
		<stop  offset="0.8182" style="stop-color:#2B8838"/>
	</radialGradient>
	<path fill="url(#SVGID_57_)" d="M406.597,140.51c-0.889-0.831-2.079-1.343-3.392-1.343c-2.747,0-4.974,2.227-4.974,4.973
		c0,0.872,0.226,1.691,0.62,2.404C400.979,144.036,403.612,141.97,406.597,140.51z"/>
	<radialGradient id="SVGID_58_" cx="403.2051" cy="144.1411" r="4.9737" gradientUnits="userSpaceOnUse">
		<stop  offset="0.4" style="stop-color:#FFFFFF"/>
		<stop  offset="0.4558" style="stop-color:#FCFCFC"/>
		<stop  offset="0.4988" style="stop-color:#F2F2F2"/>
		<stop  offset="0.5375" style="stop-color:#E2E2E2"/>
		<stop  offset="0.5738" style="stop-color:#CACACA"/>
		<stop  offset="0.6083" style="stop-color:#ACACAC"/>
		<stop  offset="0.6415" style="stop-color:#888888"/>
		<stop  offset="0.6736" style="stop-color:#5C5C5C"/>
		<stop  offset="0.7042" style="stop-color:#2B2B2B"/>
		<stop  offset="0.7273" style="stop-color:#000000"/>
	</radialGradient>
	<path fill="url(#SVGID_58_)" d="M406.597,140.51c-0.889-0.831-2.079-1.343-3.392-1.343c-2.747,0-4.974,2.227-4.974,4.973
		c0,0.872,0.226,1.691,0.62,2.404C400.979,144.036,403.612,141.97,406.597,140.51z"/>
	<path fill="#000D00" d="M403.205,149.114c2.747,0,4.974-2.226,4.974-4.974c0-1.434-0.61-2.723-1.582-3.63
		c-2.984,1.46-5.618,3.525-7.745,6.035C399.699,148.077,401.33,149.114,403.205,149.114z"/>
	<radialGradient id="SVGID_59_" cx="403.2061" cy="144.1411" r="4.9729" gradientUnits="userSpaceOnUse">
		<stop  offset="0.4" style="stop-color:#FFFFFF"/>
		<stop  offset="0.4558" style="stop-color:#FCFCFC"/>
		<stop  offset="0.4988" style="stop-color:#F2F2F2"/>
		<stop  offset="0.5375" style="stop-color:#E2E2E2"/>
		<stop  offset="0.5738" style="stop-color:#CACACA"/>
		<stop  offset="0.6083" style="stop-color:#ACACAC"/>
		<stop  offset="0.6415" style="stop-color:#888888"/>
		<stop  offset="0.6736" style="stop-color:#5C5C5C"/>
		<stop  offset="0.7042" style="stop-color:#2B2B2B"/>
		<stop  offset="0.7273" style="stop-color:#000000"/>
	</radialGradient>
	<path fill="url(#SVGID_59_)" d="M403.205,149.114c2.747,0,4.974-2.226,4.974-4.974c0-1.434-0.61-2.723-1.582-3.63
		c-2.984,1.46-5.618,3.525-7.745,6.035C399.699,148.077,401.33,149.114,403.205,149.114z"/>
	<path fill="#0A0C05" d="M493.349,150.455c1.019-0.91,1.664-2.23,1.664-3.705c0-2.747-2.227-4.973-4.974-4.973
		c-1.636,0-3.083,0.793-3.989,2.012C489.036,145.326,491.557,147.635,493.349,150.455z"/>
	<radialGradient id="SVGID_60_" cx="471.8594" cy="153.2998" r="39.1511" gradientUnits="userSpaceOnUse">
		<stop  offset="0.3758" style="stop-color:#FFFFFF"/>
		<stop  offset="0.5059" style="stop-color:#FAFAFA"/>
		<stop  offset="0.6599" style="stop-color:#ECECEC"/>
		<stop  offset="0.7818" style="stop-color:#DBDBDB"/>
		<stop  offset="0.9394" style="stop-color:#BCBCBC"/>
	</radialGradient>
	<path fill="url(#SVGID_60_)" d="M493.349,150.455c1.019-0.91,1.664-2.23,1.664-3.705c0-2.747-2.227-4.973-4.974-4.973
		c-1.636,0-3.083,0.793-3.989,2.012C489.036,145.326,491.557,147.635,493.349,150.455z"/>
	<radialGradient id="SVGID_61_" cx="470.083" cy="166.501" r="39.6941" gradientUnits="userSpaceOnUse">
		<stop  offset="0.3697" style="stop-color:#6BFF4A"/>
		<stop  offset="0.8182" style="stop-color:#2B8838"/>
	</radialGradient>
	<path fill="url(#SVGID_61_)" d="M493.349,150.455c1.019-0.91,1.664-2.23,1.664-3.705c0-2.747-2.227-4.973-4.974-4.973
		c-1.636,0-3.083,0.793-3.989,2.012C489.036,145.326,491.557,147.635,493.349,150.455z"/>
	<radialGradient id="SVGID_62_" cx="490.0391" cy="146.75" r="4.9734" gradientUnits="userSpaceOnUse">
		<stop  offset="0.4" style="stop-color:#FFFFFF"/>
		<stop  offset="0.4558" style="stop-color:#FCFCFC"/>
		<stop  offset="0.4988" style="stop-color:#F2F2F2"/>
		<stop  offset="0.5375" style="stop-color:#E2E2E2"/>
		<stop  offset="0.5738" style="stop-color:#CACACA"/>
		<stop  offset="0.6083" style="stop-color:#ACACAC"/>
		<stop  offset="0.6415" style="stop-color:#888888"/>
		<stop  offset="0.6736" style="stop-color:#5C5C5C"/>
		<stop  offset="0.7042" style="stop-color:#2B2B2B"/>
		<stop  offset="0.7273" style="stop-color:#000000"/>
	</radialGradient>
	<path fill="url(#SVGID_62_)" d="M493.349,150.455c1.019-0.91,1.664-2.23,1.664-3.705c0-2.747-2.227-4.973-4.974-4.973
		c-1.636,0-3.083,0.793-3.989,2.012C489.036,145.326,491.557,147.635,493.349,150.455z"/>
	<path fill="#000D00" d="M490.039,151.723c1.272,0,2.43-0.481,3.31-1.269c-1.792-2.82-4.312-5.129-7.299-6.666
		c-0.615,0.828-0.984,1.851-0.984,2.961C485.065,149.498,487.293,151.723,490.039,151.723z"/>
	<radialGradient id="SVGID_63_" cx="490.0391" cy="146.7495" r="4.9734" gradientUnits="userSpaceOnUse">
		<stop  offset="0.4" style="stop-color:#FFFFFF"/>
		<stop  offset="0.4558" style="stop-color:#FCFCFC"/>
		<stop  offset="0.4988" style="stop-color:#F2F2F2"/>
		<stop  offset="0.5375" style="stop-color:#E2E2E2"/>
		<stop  offset="0.5738" style="stop-color:#CACACA"/>
		<stop  offset="0.6083" style="stop-color:#ACACAC"/>
		<stop  offset="0.6415" style="stop-color:#888888"/>
		<stop  offset="0.6736" style="stop-color:#5C5C5C"/>
		<stop  offset="0.7042" style="stop-color:#2B2B2B"/>
		<stop  offset="0.7273" style="stop-color:#000000"/>
	</radialGradient>
	<path fill="url(#SVGID_63_)" d="M490.039,151.723c1.272,0,2.43-0.481,3.31-1.269c-1.792-2.82-4.312-5.129-7.299-6.666
		c-0.615,0.828-0.984,1.851-0.984,2.961C485.065,149.498,487.293,151.723,490.039,151.723z"/>
	<path fill="#0A0C05" d="M423.728,99.698c0-0.482-4.829-16.901-23.661,0.483C400.066,100.181,413.104,96.8,423.728,99.698z"/>
	<path fill="#0A0C05" d="M494.832,115.874c0.241,0.483-6.215-19.676-16.869-7.005C477.963,108.869,490.727,109.355,494.832,115.874z
		"/>
	<path fill="#C1272D" d="M446.148,191.39c9.905,1.44,18.7-2.576,19.63-8.97c0.931-6.395-6.364-12.698-16.271-14.138
		c-9.908-1.441-18.671,2.527-19.602,8.923C428.977,183.598,436.24,189.949,446.148,191.39z"/>
</g>
</svg>
