<svg version="1.1" xmlns="http://www.w3.org/2000/svg" viewBox="0 0 768 430" xml:space="preserve"><style>.s0{fill:none;opacity:1;stroke-opacity:1;stroke-width:1.3;stroke:#DDE4D0;}.s1{fill:none;opacity:1;stroke-opacity:1;stroke-width:5.2;stroke:#DDE4D0;}.s2{fill:none;stroke-width:1.3;stroke:#DDE4D0;}.s3{fill:none;stroke-width:2.6;stroke:#DDE4D0;}.s4{fill:#DDE4D0;}</style><g transform="translate(-41.214 -46.899)"><path d="M237.3 267.1c0.4-42.4 35.1-76.4 77.5-76 42.4 0.4 76.4 35.1 76 77.5 0 0.5 0 1 0 1.5-0.4 42.4-35.1 76.4-77.5 76-42.4-0.4-76.4-35.1-76-77.5C237.3 268.1 237.3 267.6 237.3 267.1zM482.9 265.3c0.4-42.4 35.1-76.4 77.5-76 42.4 0.4 76.4 35.1 76 77.5 0 0.5 0 1 0 1.5-0.4 42.4-35.1 76.4-77.5 76-42.4-0.4-76.4-35.1-76-77.5C482.9 266.3 482.9 265.8 482.9 265.3zM481.2 265.3c0.4-43.3 35.8-78 79.1-77.6 43.3 0.4 78 35.8 77.6 79.1 0 0.5 0 1 0 1.5-0.4 43.3-35.8 78-79.1 77.6-43.3-0.4-78-35.8-77.6-79.1C481.2 266.3 481.2 265.8 481.2 265.3zM414.5 273.4l-106.2-2.7M532.3 169.8L412.8 275.6M387.7 165l140.4-9.8M259.1 318.2l50.3-45.9-55.9 38.3 55.5-39-60.1 30.8 59.8-31.5-63.3 22.7 63.1-23.5-65.6 14.3 65.4-15.1-66.8 5.7 66.8-6.5-67-3 67 2.2-66.1-11.7 66.2 10.9-64.2-20.2L308.6 266.6l-61.2-28.3 61.5 27.6-57.3-36 57.7 35.4-52.5-43.2 52.9 42.6-46.8-49.7 47.4 49.1-40.5-55.4 41 54.9-33.4-60.2 34.1 59.8-25.9-64 26.6 63.7-17.9-66.9 18.6 66.7-9.7-68.7 10.4 68.6-1.3-69.4 2 69.4 7.1-69-6.4 69.1 15.4-67.6-14.7 67.7 23.5-65-22.8 65.3 31.1-61.5-30.5 61.8 38.3-56.9-37.7 57.4 44.9-51.5-44.4 52 50.8-45.3L318.7 265.1l55.9-38.3-55.5 39 60.1-30.8-59.8 31.5 63.4-22.8-63.1 23.5 65.6-14.3-65.5 15.1 66.8-5.7-66.8 6.5 67 3-67-2.2 66.1 11.7-66.2-10.9 64.2 20.2-64.4-19.4 61.2 28.3-61.5-27.6 57.3 36-57.7-35.4 52.5 43.2-52.9-42.6 46.8 49.7-47.4-49.1 40.5 55.4-41-54.9 33.4 60.2-34.1-59.8 25.9 64-26.6-63.7 17.9 66.9-18.6-66.7 9.7 68.7-10.4-68.6 1.3 69.4-2-69.4-7.1 69 6.4-69.1-15.4 67.6 14.7-67.7-23.5 65 22.8-65.3-31.1 61.5 30.5-61.8-38.3 56.9 37.7-57.4-44.9 51.5 44.4-52L259.1 318.2 259.1 318.2zM387.4 166.6c0 0-70.5 89-76.6 104.1M235.2 266.9c0.4-43.3 35.8-78 79.1-77.6 43.3 0.4 78 35.8 77.6 79.1 0 0.5 0 1 0 1.5-0.4 43.3-35.8 78-79.1 77.6-43.3-0.4-78-35.8-77.6-79.1C235.2 268 235.2 267.4 235.2 266.9zM387.7 159.5l24.6 112.1M535.6 178.5l-7.9-35.1M561.8 270.3c0 0-10.8 1-26.9-92.8M558.9 269.7c0-0.6 0.7-1.1 1.5-1.1 0.8 0 1.4 0.5 1.4 1.2 0 0 0 0 0 0 0 0.6-0.7 1.1-1.5 1.1-0.8 0-1.4-0.5-1.4-1.2C558.9 269.7 558.9 269.7 558.9 269.7zM309.3 270.4c0-0.6 0.7-1.1 1.5-1.1 0.8 0 1.4 0.5 1.4 1.2 0 0 0 0 0 0 0 0.6-0.7 1.1-1.5 1.1-0.8 0-1.4-0.5-1.4-1.2C309.3 270.4 309.3 270.4 309.3 270.4zM383.4 139.5l7.4 35.4M548.1 127.6c0 0-24 1.2-20.2 16M376.8 140.9c0 0-18.3-5.2-14.3-8 4-2.9 43.5-7.4 51.5-5.7 8 1.7 1.1 4 1.1 4S410.6 136.3 376.8 140.9L376.8 140.9z" class="s0"/><path d="M544.3 128.6c0.1-1.5 1.9-2.7 4-2.7 2.2 0 3.9 1.3 3.8 2.8 0 0.1 0 0.1 0 0.2-0.1 1.5-1.9 2.7-4 2.7-2.2 0-3.9-1.3-3.8-2.8C544.2 128.7 544.2 128.6 544.3 128.6z" fill="#DDE4D0"/><path d="M426.6 299l-12.6-23.5" class="s2"/><rect x="419.9" y="298.8" width="16" height="2.4" fill="#DDE4D0"/><path d="M409.4 277l-4.3 3.7 3.4-4.6-5 2.7 4.3-3.7-5.5 1.5 5.1-2.7-5.7 0.2 5.5-1.5-5.6-1 5.7-0.2-5.2-2.3 5.6 1.1-4.6-3.4 5.2 2.3-3.7-4.3 4.6 3.4-2.7-5 3.7 4.3-1.5-5.5 2.7 5.1-0.2-5.7 1.5 5.5 1-5.6 0.2 5.7 2.3-5.2-1.1 5.6 3.4-4.6-2.3 5.2 4.3-3.7-3.4 4.6 5-2.7-4.3 3.7 5.5-1.5-5.1 2.7 5.7-0.2-5.5 1.5 5.6 1-5.7 0.2 5.2 2.3-5.6-1.1 4.6 3.4-5.2-2.3 3.7 4.3-4.6-3.4 2.7 5-3.7-4.3 1.5 5.5-2.7-5.1 0.2 5.7-1.5-5.5-1 5.6-0.2-5.7-2.3 5.2 1.1-5.6-3.4 4.6L409.4 277 409.4 277zM311.4 266.2l102.3-7.1M412.3 285.6l-104.7-9.9M505.1 319.9l50.3-45.9-55.9 38.3 55.5-39-60.1 30.8 59.8-31.5-63.4 22.7 63.1-23.5-65.6 14.3 65.4-15.1-66.8 5.7 66.8-6.5-67-3 67 2.2-66.1-11.7 66.2 10.9-64.2-20.2 64.4 19.4-61.2-28.3 61.5 27.6-57.3-36 57.7 35.4-52.5-43.2 52.9 42.6-46.8-49.7 47.4 49.1-40.5-55.4 41 54.9-33.4-60.2 34.1 59.8-25.9-64 26.6 63.7-17.9-66.9 18.6 66.7-9.7-68.7 10.4 68.6-1.3-69.4 2 69.4 7.1-69-6.4 69.1 15.4-67.6-14.7 67.7 23.5-65-22.8 65.3 31.1-61.5-30.5 61.8 38.3-57-37.7 57.4 44.9-51.5-44.4 52 50.8-45.3-50.3 45.9 55.9-38.3-55.5 39 60.1-30.8-59.8 31.5 63.4-22.7-63.1 23.5 65.6-14.3-65.4 15.1 66.8-5.7-66.8 6.5 67 3-67-2.2 66.1 11.7-66.2-10.9 64.2 20.2-64.4-19.4 61.2 28.3-61.5-27.6 57.3 36-57.7-35.4 52.5 43.2-52.9-42.6 46.8 49.7-47.4-49.1 40.5 55.4-41-54.9 33.4 60.2-34.1-59.8 25.9 64-26.6-63.7 17.9 66.9-18.6-66.7 9.7 68.7-10.4-68.6 1.3 69.4-2-69.4-7.1 69 6.4-69.1-15.4 67.6 14.7-67.7-23.5 65 22.8-65.3-31.1 61.5 30.5-61.8-38.3 57 37.7-57.4-44.9 51.5 44.4-52L505.1 319.9 505.1 319.9z" class="s2"/></g></svg>