<svg xmlns="http://www.w3.org/2000/svg" viewBox="0 0 768 430"><style>.a{fill:#71A1D1;}.b{fill:#82ACDF;}.c{fill:#91BCE8;}.d{fill:#5C7EA0;}.e{fill:#FCF1E3;}.f{fill:#E5C29C;}.g{fill:#EDD8C0;}.h{fill:#F7810B;}.i{fill:#F7960B;}.j{fill:#F7A60B;}.k{fill:#F4750C;}.l{fill:#D2EAF7;}.m{fill:#E1F0F9;}.n{fill:#F8FDFF;}.o{fill:#8DA5B2;}.p{fill:#466572;}.q{fill:#FFF;}.r{fill:#00ABFF;}.s{fill:#0085FF;}.t{fill:#0065FF;}.u{fill:#F78B0B;}</style><path d="M408.2 277.2c0 0 6.8 12.2 43.3 9.5 36.4-2.7 52.2-10.2 56.7-4.6 4.6 5.6-13.5 18-31.1 23.4 9.5-0.6 19.7 1.9 19.9 6.2 0.2 4.4-16.6 12.8-32.9 15.1 9.1 6 10.3 8.6 6 11.1 -4.3 2.5-20.6 5-39.6 0 3.2 7.3 5.7 13.7-13.7 6.9 -19.3-6.8-29.7-19.6-29.7-19.6S382.7 277 408.2 277.2z" class="a"/><path d="M428.6 344.3c1.3-2.1-13.9-10.5-25.3-19.1 15.8 8.6 41.2 15.6 54 12.5 12.8-3.1 3.1-6.9-6.6-7.7 -9.6-0.9-26.1-1.8-38.5-8.3 15.9 2.7 26.8 5.1 52.9 0.9 26.1-4.3 23-13.9 9.5-11.6 -13.6 2.3-32.8 6.2-59.5-0.7 44.5 5.9 72.5-13.6 83.5-21.3 6.5-4.5 3.9-7.3 0.7-8.7 -8.7 0.8-23.8 4.7-47.9 6.5 -36.4 2.7-43.3-9.5-43.3-9.5 -22.7-0.2-21.7 38.1-21.2 46.5C405.8 340.9 427.4 346.2 428.6 344.3z" class="b"/><path d="M422.4 341.8c1.3-2.1-9.5-8.7-21-17.3 15.8 8.6 39.4 15 52.2 11.9 12.8-3.1 2-4.8-7.6-5.7 -9.6-0.9-25.7-4.8-38.1-11.2 15.9 2.7 26.9 6.8 53 2.6 26.1-4.3 22.3-11.9 8.8-9.5 -13.6 2.3-33.6 3-60.2-3.9 44.5 5.9 73.4-11.7 84.5-19.5 6.5-4.5 8.7-7.4 5.5-8.9 -8.7 0.8-23.8 4.7-47.9 6.5 -36.4 2.7-43.3-9.5-43.3-9.5 -22.7-0.2-21.8 34.7-21.3 43.1C405.7 337.6 421.2 343.7 422.4 341.8z" class="c"/><path d="M428.9 348.4c-2.7 0-6.7-0.9-12.3-2.9 -19.3-6.7-29.8-19.7-29.9-19.8l-0.1-0.1 0-0.2c-0.1-1.2-2.7-30.6 8.8-43.2 3.4-3.7 7.6-5.5 12.6-5.5l0.5 0 0.2 0.3c0.1 0.1 5.8 9.6 32.8 9.6 3.1 0 6.5-0.1 10-0.4 15.6-1.1 27.4-3.2 36.1-4.7 6.5-1.1 11.2-1.9 14.7-1.9 3.2 0 5.2 0.7 6.5 2.2 0.9 1.1 1.1 2.3 0.6 3.8 -1.8 5.8-14.5 14.4-28.3 19.3 8.2 0.2 16.4 2.5 16.6 6.9 0.2 5-16.5 13-31.9 15.5 5.4 3.6 7.5 5.9 7.4 7.9 0 1.6-1.5 2.7-2.7 3.3 -2.5 1.5-9.1 2.9-17.9 2.9 -6.8 0-14.1-0.9-21-2.6 1.3 3.1 2.4 6.2 1.2 8C432.1 347.9 430.8 348.4 428.9 348.4zM387.7 325.1c1.2 1.4 11.4 13 29.3 19.3 5.5 1.9 9.3 2.8 11.9 2.8 1.5 0 2.4-0.3 2.9-1 1-1.5-0.6-5.1-1.8-8l-0.5-1.1 1.2 0.3c7.1 1.9 14.7 2.9 21.8 2.9 8.6 0 15-1.4 17.4-2.8 1.4-0.8 2.1-1.6 2.1-2.4 0-1.6-2.5-4-8.1-7.8l-1.3-0.9 1.5-0.2c16.6-2.3 32.6-10.9 32.4-14.5 -0.2-3.2-7.5-5.8-16.4-5.8 -1 0-1.9 0-2.9 0.1l-5 0.3 4.8-1.5c14.5-4.4 29.4-13.9 31.2-19.7 0.3-1.1 0.2-2-0.4-2.7 -1-1.3-2.7-1.8-5.6-1.8 -3.4 0-8 0.8-14.5 1.9 -8.7 1.5-20.6 3.5-36.2 4.7 -3.5 0.3-6.9 0.4-10 0.4 -25.4 0-32.4-8.2-33.6-9.9 -4.6 0-8.5 1.8-11.6 5.2C385.6 294.7 387.5 322.6 387.7 325.1z" class="d"/><path d="M292 200.6c0 0-17.6 0.6-23.6 20.5 -6 19.9 0.4 48.7 26.3 54.5C296.4 245.5 292 200.6 292 200.6z" class="b"/><path d="M292 200.6c0 0-17.6 0.6-23.6 20.5 -6 19.9 0.4 48.7 26.3 54.5C296.4 245.5 292 200.6 292 200.6z" class="c"/><path d="M295.3 276.3l-0.7-0.1c-9.8-2.2-17.7-7.9-22.8-16.6 -6.4-10.9-7.9-25.7-4-38.6 6.1-20 24-20.9 24.1-20.9l0.5 0 0.1 0.5c0 0.5 4.3 45.3 2.7 75.1L295.3 276.3zM291.5 201.2c-3 0.3-17.3 2.8-22.5 20 -3.8 12.6-2.3 27.1 3.9 37.7 4.8 8.2 12.1 13.7 21.3 15.9C295.6 247 292 206.5 291.5 201.2z" class="d"/><path d="M355.3 347.7c0 0 5.7-2.7 9.9 0.6 -1-6.1-6.1-8.1-11.7-5.1C352.5 345.4 355.3 347.7 355.3 347.7z" class="e"/><path d="M366 349.6l-1.2-0.9c-1.3-1-2.9-1.5-4.7-1.5 -2.5 0-4.6 1-4.6 1l-0.3 0.2 -0.3-0.2c-0.1-0.1-3.2-2.6-2-5.2l0.1-0.2 0.2-0.1c1.7-0.9 3.5-1.4 5.2-1.4 3.9 0 6.7 2.7 7.4 7L366 349.6zM360.2 346.1c1.5 0 2.9 0.3 4.1 0.9 -0.9-2.9-3-4.6-5.9-4.6 -1.4 0-2.9 0.4-4.4 1.2 -0.5 1.4 0.9 2.9 1.5 3.4C356.2 346.7 358 346.1 360.2 346.1z" class="f"/><path d="M294.5 340.7c0 0-9.2-3.9-14.4 4.4 5.4-1.1 10.4 0 10.4 0L294.5 340.7z" class="e"/><path d="M278.9 345.9l0.7-1.2c2.9-4.6 7-5.6 9.9-5.6 2.9 0 5.1 0.9 5.2 1l0.8 0.3 -4.8 5.3 -0.3-0.1c0 0-2.2-0.5-5.2-0.5 -1.8 0-3.4 0.2-5 0.5L278.9 345.9zM285.2 344c2.5 0 4.4 0.3 5.1 0.4l3.2-3.5c-0.8-0.3-2.3-0.6-4-0.6 -3.4 0-6.1 1.3-8.2 3.9C282.6 344.1 283.9 344 285.2 344z" class="f"/><path d="M287.3 348.8c0 0-13 0.6-11.2 13.5 4.6-5.2 9.6-5.9 13.2-4.6C288.6 352.6 287.3 348.8 287.3 348.8z" class="g"/><path d="M287.3 348.8c0 0-13 0.6-11.2 13.5 2.8-6.7 8.1-9.3 11.7-8C287.1 349.2 287.3 348.8 287.3 348.8z" class="e"/><path d="M275.7 363.6l-0.2-1.3c-0.6-3.9 0.2-7.2 2.2-9.6 3.4-4.2 9.3-4.5 9.5-4.5l0.4 0 0.1 0.4c0.1 0.2 1.3 3.9 2 9l0.1 1 -0.9-0.3c-1-0.3-2-0.5-3-0.5 -2.3 0-5.9 0.9-9.5 5L275.7 363.6zM286.9 349.4c-1.4 0.2-5.7 0.9-8.3 4 -1.6 1.9-2.3 4.4-2.1 7.5 3.6-3.6 7.1-4.4 9.5-4.4 0.9 0 1.7 0.1 2.5 0.3C288 353.3 287.2 350.5 286.9 349.4z" class="f"/><path d="M291.2 359.2c0 0-8.4 3.5-6.1 14.3 4.1-5.1 11.7-5.2 11.7-5.2L291.2 359.2z" class="g"/><path d="M291.2 359.2c0 0-8.4 3.5-6.1 14.3 4.1-8.5 8.8-8.7 8.8-8.7L291.2 359.2z" class="e"/><path d="M284.8 374.8l-0.3-1.2c-2.4-11.1 6.3-14.9 6.4-14.9l0.5-0.2 6.4 10.3 -1 0c-0.1 0-7.4 0.2-11.2 5L284.8 374.8zM291 359.9c-1.6 0.9-6.7 4.2-5.5 12.2 3.4-3.4 8.2-4.3 10.3-4.5L291 359.9z" class="f"/><path d="M334.4 352.3c0 0 19.5 3 22.4-3.2 2.9-6.2-2-11.3-7.9-11.3s-13.6 3.9-19.1 4c-5.5 0.1-15.7-2-22.4-4s-15-3.1-16.9 6.7c-6.4 3.4-8.4 9-1.6 14.2 0.4 7.8 5 12.6 15.6 10.6C315.2 367.2 329 354.6 334.4 352.3z" class="h"/><path d="M347.2 338.4c-5.9 0-12 3.2-17.4 3.4 -5.5 0.1-15.7-2-22.4-4 -5.7-1.7-12.5-2.7-15.6 3 0.4 0.8 1.5 1.2 3.2 0.9 3.3-0.6 6.8 1.3 14.1 3.4 0 0-4.1-0.3-10.4-1.6 -3.2-0.7-6.1-0.1-8.1 0.7 0 0.1-0.1 0.2-0.1 0.3 -3.6 1.9-5.8 4.5-5.8 7.3 0.3 1.6 1.5 2.2 3.2 1.3 2.7-1.5 8.5-3.3 14.9-2.2 -10.2-0.4-13.2 5.1-14 7.5 0.1 0.1 0.2 0.1 0.3 0.2 0.4 7.8 3.9 10 14.5 8 10.6-2 23.1-15.5 28.4-17.8 0 0 16.1 4.2 20.9-1.1C357.2 342.5 353.1 338.4 347.2 338.4z" class="i"/><path d="M347.2 338.4c-5.9 0-12 3.2-17.4 3.4 -5.5 0.1-15.7-2-22.4-4 -5.7-1.7-12.5-2.7-15.6 3 0.4 0.8 1.5 1.2 3.2 0.9 3.3-0.6 6.8 1.3 14.1 3.4 0 0-4.1-0.3-10.4-1.6 -3.2-0.7-6.1-0.1-8.1 0.7 0 0.1-0.1 0.2-0.1 0.3 -3.6 1.9-5.8 4.5-5.8 7.3 0.3 1.6 1.5 2.2 3.2 1.3 2.7-1.5 8.5-3.3 14.9-2.2 -10.2-0.4-13.2 5.1-14 7.5 0.1 0.1 0.2 0.1 0.3 0.2 0.4 7.8 3.8 8.9 14.4 6.9 10.6-2 22.3-16.7 27.6-19 0 0 14.4 5.4 19.7 1.2C356 343.4 353.1 338.4 347.2 338.4z" class="j"/><path d="M300.1 370.3L300.1 370.3c-7.1 0-11.2-4-11.7-11.4 -3.8-2.9-4.4-5.7-4.3-7.5 0.2-2.8 2.3-5.4 5.9-7.3 1.1-5.5 4.4-8.2 9.8-8.2 2.2 0 4.7 0.4 7.8 1.4 6.5 1.9 16.3 4 21.8 4l0.4 0c2.5-0.1 5.6-1 8.8-1.9 3.5-1 7.1-2.1 10.3-2.1 3.4 0 6.5 1.6 8.2 4.2 1.5 2.3 1.6 5.2 0.3 8 -1.3 2.8-5.7 4.3-13.1 4.3 -4.6 0-8.8-0.6-9.7-0.7 -1.8 0.8-4.5 2.8-7.7 5 -6.7 4.7-15 10.6-22.1 11.9C303 370.1 301.5 370.3 300.1 370.3zM299.8 337c-4.9 0-7.7 2.5-8.7 7.6l-0.1 0.3 -0.2 0.1c-3.4 1.8-5.3 4.1-5.5 6.5 -0.2 2.3 1.2 4.6 4 6.7l0.2 0.2 0 0.3c0.3 4.8 2.3 10.5 10.6 10.5h0c1.3 0 2.8-0.1 4.4-0.4 6.9-1.3 15.4-7.3 21.7-11.7 3.3-2.3 6.2-4.4 8.1-5.2l0.2-0.1 0.2 0c0 0 4.7 0.7 9.7 0.7 6.8 0 10.9-1.2 12-3.6 1.1-2.4 1.1-4.9-0.2-6.9 -1.4-2.2-4.2-3.6-7.2-3.6s-6.5 1.1-9.9 2.1c-3.3 1-6.4 1.9-9.1 2l-0.4 0c-5.5 0-15.5-2.1-22.1-4.1C304.2 337.4 301.9 337 299.8 337z" class="k"/><path d="M323.4 344.9c0 0 7.1-13.2 8.4-20.3 6.1-1 11.4-0.7 11.4-0.7s-9.4 14.1-8.9 19.4" class="h"/><path d="M323.4 344.9c0 0 7.1-13.2 8.4-20.3 6.1-1 8.6-0.4 8.6-0.4s-7.6 10.8-6.1 19.1" class="i"/><path d="M323.4 344.9c0 0 7.1-13.2 8.4-20.3 6.1-1 6.8-0.2 6.8-0.2s-5.8 10.6-4.3 18.9" class="j"/><path d="M323.2 345.2c0 0 6.7-13.8 8-20.7l0.1-0.4 0.4-0.1c6.1-1 11.5-0.7 11.5-0.7l1 0.1 -0.6 0.8c-0.1 0.1-9.9 14.2-9.4 19.3 0 0-0.3-2.9 0.3-4.7 1.8-5.2 6-11.9 7.6-14.3 -1.8 0-5.6 0-9.8 0.7C330.7 332.3 323.5 344.6 323.2 345.2z" class="k"/><path d="M289.5 358.8l-1.1-0.3c2.4-7.7 9.8-7.6 16.3-7.6 1.3 0 2.5 0 3.6 0 6.7-0.3 9.3-3 9.3-3 0 0-2.1 3.9-9.3 4.2 -1.2 0-2.4 0-3.7 0C298.2 352 291.6 351.9 289.5 358.8z" class="k"/><path d="M311.2 345.7c-2.3 0-5.1-0.1-7.2-0.4 -0.9-0.2-1.9-0.4-2.8-0.6 -3.3-0.8-6.6-1.5-10.4 0.3l-0.5-1c4.1-2 7.7-1.2 11.2-0.4 0.9 0.2 1.8 0.4 2.7 0.6 4.1 0.7 10.9 0.3 11 0.3C315.1 344.4 313.4 345.7 311.2 345.7z" class="k"/><path d="M300.9 285.3c0 0 1.9 23.8 19.5 35.6 17.6 11.8 27.1 8.5 29.4-3.7C352.1 305 300.9 285.3 300.9 285.3z" class="a"/><path d="M300.9 285.3c0 0 2.7 21.7 20.3 33.5s22.5 6.5 24.8-5.7C348.2 300.9 300.9 285.3 300.9 285.3z" class="b"/><path d="M300.9 285.3c0 0 2.7 19.8 20.3 31.6s19.8 5 22-7.2C345.5 297.5 300.9 285.3 300.9 285.3z" class="c"/><path d="M338.6 328.8C338.6 328.8 338.6 328.8 338.6 328.8c-5 0-11.2-2.5-18.6-7.4 -17.6-11.8-19.8-35.8-19.8-36.1l-0.1-0.9 0.9 0.3c2.1 0.8 51.6 20 49.3 32.5C349 324.9 344.9 328.8 338.6 328.8zM301.6 286.2c0.6 4.5 4 24.1 19.2 34.2 7.2 4.8 13.2 7.2 17.9 7.2 5.7 0 9.3-3.6 10.6-10.6C351 307.7 316.3 291.9 301.6 286.2z" class="d"/><path d="M413 285.5c0 0 8.6-31.1-7.7-63.4 -16.3-32.3-55.2-45-90-47.8 -34.8-2.8-32.9 2.5-32.9 2.5 9.4 10.2 9.9 13 4.7 24.9 -5.2 11.9-18.2 40.3 4.1 77.3 22.4 37 73.2 50.3 97.2 44.2" class="a"/><path d="M413 285.5c0 0 3.5-27.8-12.8-60.1 -16.3-32.3-50.2-48.3-85-51.1 -34.8-2.8-32.9 2.5-32.9 2.5 9.4 10.2 9.9 13 4.7 24.9 -5.2 11.9-18.2 40.3 4.1 77.3 22.4 37 73.2 50.3 97.2 44.2" class="b"/><path d="M413 285.5c0 0 0-27.6-16.3-59.9 -16.3-32.3-46.7-48.5-81.5-51.3 -34.8-2.8-32.9 2.5-32.9 2.5 9.4 10.2 9.9 13 4.7 24.9 -5.2 11.9-18.2 40.3 4.1 77.3 22.4 37 73.2 50.3 97.2 44.2" class="c"/><path d="M375.4 325.2c-26.8 0-65.9-14.9-84.7-45.9 -22.3-36.9-9.7-65.3-4.3-77.5l0.2-0.4c5.1-11.6 4.7-14.1-4.6-24.2l-0.1-0.2c0-0.1-0.2-0.6 0.3-1.3 1.5-2 8.5-3.9 33.2-2 25.8 2 71.8 11 90.5 48.1 10 19.9 10.7 39.5 9.7 51.6 -0.6 7.5-3 11.9-3 11.9 0.1-0.3 8.3-31.3-7.7-63 -18.4-36.6-64-45.4-89.5-47.5 -25.6-2-30.9 0.3-32 1.4 -0.1 0.1-0.2 0.2-0.2 0.3 9.4 10.2 9.9 13.4 4.6 25.3l-0.2 0.4c-5.3 12-17.7 40 4.3 76.4 21.9 36.2 71.8 50.2 96.6 43.9l0.3 1.1C384.7 324.7 380.2 325.2 375.4 325.2z" class="d"/><path d="M365.3 266.5c13-20.7 11.6-37.1 4.9-54 -3.2-8.1-0.2-15.9 3.9-21.7 -17.6-9.9-38.9-14.8-58.9-16.4 -34.8-2.8-32.9 2.5-32.9 2.5 9.4 10.2 9.9 13 4.7 24.9 -5.2 11.9-18.2 40.3 4.1 77.3 18.6 30.8 57 45.2 83.2 45.6C342.7 306.9 353.7 285 365.3 266.5z" class="l"/><path d="M340.4 304c5.4-1.2 12.4-7.3 13.8-13.2 1.6-8.3 6.3-16.7 11.2-24.4 13-20.7 11.6-37.1 4.9-54 -3.2-8.1-0.2-15.9 3.9-21.7 -17.6-9.9-38.9-14.8-58.9-16.4 -34.8-2.8-32.9 2.5-32.9 2.5 9.4 10.2 9.9 13 4.7 24.9 -5.2 11.9-18.2 40.3 4.1 77.3 1 1.7 2.1 3.4 3.3 5C306.2 295.6 323.9 307.7 340.4 304z" class="m"/><path d="M339 295.7c5.4-1.2 12.5-6.4 16.6-10.4 1.6-8.3 4.8-11.1 9.7-18.8 13-20.7 11.6-37.1 4.9-54 -3.2-8.1-0.2-15.9 3.9-21.7 -17.6-9.9-38.9-14.8-58.9-16.4 -34.8-2.8-32.9 2.5-32.9 2.5 9.4 10.2 9.9 13 4.7 24.9 -5.2 11.9-18.2 40.3 4.1 77.3 1 1.7-0.1 0.1 1 1.7C303.9 292.4 322.5 299.4 339 295.7z" class="n"/><path d="M376.7 325.1l-2.3 0c-28.1-0.4-65.8-16.3-83.7-45.9 -22.3-36.9-9.7-65.3-4.3-77.5l0.2-0.4c5.1-11.6 4.7-14.1-4.6-24.2l-0.1-0.2c0-0.1-0.2-0.6 0.2-1.2 2-2.8 13.7-3.6 33.2-2 15.9 1.3 39.1 5.1 59.1 16.5l0.6 0.3 -0.4 0.5c-5.1 7.5-6.4 14.6-3.8 21.2 5.9 14.9 9.4 31.8-5 54.6 -6.9 11-14 23.7-10.9 35.8 2.1 8.2 8.6 15.2 19.7 21.5L376.7 325.1zM282.9 176.6c9.4 10.2 9.9 13.4 4.6 25.3l-0.2 0.4c-5.3 12-17.7 40 4.3 76.4 17.1 28.4 52.9 44 80.4 45.2 -10.2-6.1-16.2-13-18.3-21 -3.2-12.6 4-25.5 11-36.7 14-22.3 10.6-38.9 4.9-53.5 -2.7-6.8-1.5-14.1 3.6-21.7 -19.8-11-42.5-14.8-58.1-16 -6.7-0.5-12.5-0.8-17.3-0.8 -11.5 0-14.2 1.6-14.8 2.2C283 176.4 283 176.5 282.9 176.6z" class="o"/><path d="M303.9 192c0 0-24.3-11-31.5-33.7s11.9-26.5 11.9-26.5c0-14.1 7.5-47.2 40.6-53.3 -6.1-9.7 0-18.8 0-18.8 5 6.1 5.9 7.6 8.4 9.1 -0.4-5.9 3.1-9.1 3.1-9.1 2.8 5.4 6.7 9.6 8.6 10.6 0.7-5 1.5-6.9 1.5-6.9 7.5 7.1 19.5 11.6 33.9 17.4 14.4 5.8 40.4 32.6 41.8 70.7 6 18-18.8 51.8-77 48" class="a"/><path d="M303.9 192c0 0-24.3-11-31.5-33.7s11.9-26.5 11.9-26.5c0-14.1 7.5-47.2 40.6-53.3 -6.1-9.7 0-18.8 0-18.8 4.4 9.5 7.3 11.3 9.8 12.7 -0.4-5.9 1.6-12.7 1.6-12.7 3.1 10.1 9.1 13.9 11 14.9 0.7-5-1-11.2-1-11.2 8.1 13.7 15.4 13.3 29.8 19.1s38.1 28.2 39.5 66.3c6 18-12.5 54.5-70.7 50.7" class="b"/><path d="M303.9 192c0 0-24.3-11-31.5-33.7s11.9-26.5 11.9-26.5c0-14.1 7.5-47.2 40.6-53.3 -6.1-9.7 0-18.8 0-18.8 4.4 9.5 8.5 13.3 10.9 14.8 -0.4-5.9 0.5-14.8 0.5-14.8 3.1 10.1 10.8 15.7 12.7 16.7 0.7-5-2.7-13-2.7-13 8.1 13.7 13.1 14.4 27.5 20.2 14.4 5.8 34.2 27.1 35.6 65.2 6 18-6.3 54.5-64.4 50.7" class="c"/><path d="M353.5 200.4c-2.8 0-5-1.1-7.8-1.3l-0.6-0.1c31 2 57.3-7 70.4-24 6.1-7.9 8.3-16.6 6.1-23.3l0-0.2c-1.5-38.4-27.7-64.7-41.5-70.2l-3.4-1.4c-12.3-4.9-23-9.2-30-15.5 -0.3 1-0.7 2.9-1.2 6l-0.1 0.8 -0.7-0.4c-2-1.1-5.7-5.3-8.4-10.1 -0.9 1.1-2.7 3.9-2.4 8l0.1 1.1 -1-0.6c-2.1-1.2-3.1-2.5-5.9-6 -0.6-0.8-1.3-1.6-2.1-2.6 -1.2 2.3-4.4 9.7 0.4 17.4l0.5 0.7 -0.8 0.2c-31.7 5.8-40.1 37-40.1 52.7v0.5l-0.5 0.1c-0.1 0-7.1 1.5-10.8 7.8 -2.7 4.6-2.9 10.7-0.6 18 7 22.1 30.9 33.2 31.2 33.3l-0.5 0.4c-0.2-0.1-24.6-10.8-31.8-33.4 -2.4-7.6-2.2-14 0.7-18.9 3.4-5.8 9.4-7.7 11.1-8.2 0.2-16 8.7-47 40.2-53.2 -5.5-9.6 0.4-18.6 0.4-18.7l0.4-0.7 0.5 0.6c1 1.3 1.9 2.3 2.6 3.3 2.3 2.8 3.3 4.1 4.6 5.1 0-5.4 3.2-8.3 3.3-8.4l0.6-0.5 0.3 0.7c2.4 4.6 5.7 8.4 7.6 9.9 0.7-4.3 1.3-6.1 1.3-6.1l0.3-0.8 0.6 0.6c6.8 6.5 17.7 10.9 30.3 15.9l3.4 1.4c14 5.6 40.7 32.3 42.2 71.2 2.3 7.1 0 16.2-6.3 24.3C404.2 191.4 381.1 200.4 353.5 200.4z" class="d"/><path d="M436 312.6c-10.1 0-17.3-2-17.3-2 0.4 0 36.4 4 59.4-5.9l0.5 1.1C465.5 311.3 448.6 312.6 436 312.6z" class="d"/><path d="M454.1 327.8c-18.7 0-38.8-5.2-38.8-5.2 0.3 0.1 31.4 6.3 52.1 3.2l0.2 1.2C463.4 327.6 458.8 327.8 454.1 327.8z" class="d"/><path d="M433.6 339.4c-13.4-1.9-31.1-14.6-31.1-14.6 0.2 0.1 18.1 11.6 31.2 13.5L433.6 339.4z" class="d"/><path d="M374.7 346.4c0 0-5.2-5-8.8 3.2 2.9-1.3 4.3-0.7 5.9 0.8C374.2 348 374.7 346.4 374.7 346.4z" class="e"/><path d="M371.8 351.3l-0.4-0.4c-1.5-1.4-2.8-1.9-5.3-0.7l-1.4 0.6 0.6-1.4c1.5-3.4 3.4-5.1 5.8-5.1 2.2 0 3.9 1.6 4 1.7l0.2 0.2 -0.1 0.3c0 0.1-0.5 1.8-3.1 4.4L371.8 351.3zM368.6 348.3c1.3 0 2.3 0.6 3.2 1.3 1.4-1.5 2-2.6 2.2-3.1 -0.5-0.4-1.6-1.1-2.9-1.1 -1.6 0-2.9 1.1-4.1 3.1C367.6 348.4 368.1 348.3 368.6 348.3z" class="f"/><path d="M377.8 323.2c0 0 4.4 18.8 6.9 24.6 -4.3-4.3-10.4-5.4-13.8 1.8 -3.5 7.2 13 13 13 13 1.4 6.5 1 16.6 10.5 16.6 9.5 0 9.4-4.6 9.4-4.6 9.3 5 16.4 2.1 14.2-6.1 8.6 0.4 12.3-10.9-1.1-15.6 -13.4-4.7-20.4 0.4-22.8-5.1 -2.3-5.5-7.2-26.1-7.2-26.1L377.8 323.2z" class="h"/><path d="M377.8 323.2c0 0 4.4 18.8 6.9 24.6 -4.3-4.3-10.4-5.4-13.8 1.8 -3.5 7.2 13 13 13 13 1.4 6.5 1 16.6 10.5 16.6 9.5 0 8.5-8.2 8.5-8.2 9.3 5 14.5 1.2 12.3-7 8.6 0.4 11.6-5.8-1.8-10.5 -13.4-4.7-20.4 1.6-22.8-3.9 -2.3-5.5-5.8-27.5-5.8-27.5L377.8 323.2z" class="i"/><path d="M377.8 323.2c0 0 4.4 18.8 6.9 24.6 -4.3-4.3-10.4-5.4-13.8 1.8 -3.5 7.2 13 13 13 13 1.4 6.5 1 16.6 10.5 16.6 9.5 0 8.5-8.2 8.5-8.2 9.3 5 11.9-1.5 9.7-9.7 8.6 0.4 12.8-2.5-0.6-7.2 -13.4-4.7-20.1 2.7-22.5-2.8 -2.3-5.5-5.6-28.6-5.6-28.6L377.8 323.2z" class="j"/><path d="M394.3 379.8c-8.4 0-9.6-7.5-10.5-13.5 -0.2-1.1-0.3-2.2-0.5-3.2 -1.9-0.7-11-4.3-13.1-9.4 -0.6-1.5-0.6-2.9 0.1-4.3 2.2-4.6 5.2-5.5 7.4-5.5 1.9 0 3.8 0.7 5.6 2 -2.5-7.2-6-21.9-6.1-22.6l-0.1-0.6 10.3-1.6 0.1 0.5c0 0.2 4.9 20.6 7.2 26 1 2.4 2.9 2.5 7.2 2.5 3.7 0 8.7 0 15.3 2.3 7.6 2.7 9.7 7.3 9.1 10.8 -0.6 3.4-3.6 5.8-7.5 5.9 0.5 2.5 0.2 4.6-1 6.1 -1.2 1.6-3.2 2.4-5.7 2.4 -2.4 0-5.1-0.7-7.9-2.1 -0.2 0.5-0.5 1.1-1.1 1.7C401.5 378.9 398.5 379.8 394.3 379.8zM377.7 345c-2.6 0-4.8 1.7-6.3 4.9 -0.5 1.1-0.6 2.2-0.1 3.4 2.1 5 12.6 8.8 12.7 8.8l0.3 0.1 0.1 0.3c0.2 1.1 0.4 2.3 0.6 3.6 0.9 6.2 1.9 12.5 9.3 12.5 4.8 0 6.9-1.2 7.9-2.1 0.9-0.9 0.9-1.8 0.9-1.8l0-1 0.9 0.5c2.9 1.6 5.7 2.4 8 2.4 2.1 0 3.8-0.7 4.7-1.9 1.1-1.4 1.3-3.4 0.6-5.8l-0.2-0.8 0.8 0c3.6 0.2 6.5-1.9 7-5 0.5-3-1.4-7.1-8.3-9.5 -6.3-2.2-11.3-2.2-14.9-2.2 -4 0-6.9 0-8.2-3.2 -2.2-5.1-6.3-22.3-7.1-25.6l-7.9 1.3c0.8 3.3 4.5 18.8 6.7 23.9l1.2 2.8 -2.1-2.1C382.2 346.2 379.8 345 377.7 345z" class="k"/><path d="M421.3 364.5c0 0 0.9-4.1 4.3-3 3.5 1.1 4.4 7.7 3.8 10.4C427.7 368.9 422.7 365.3 421.3 364.5z" class="g"/><path d="M422.4 362.4c-0.8 0.9-1.1 2.1-1.1 2.1 1.4 0.8 6.4 4.4 8.2 7.4 0.1-0.3 0.1-0.7 0.1-1.1C428.9 366.6 425.8 363.3 422.4 362.4z" class="e"/><path d="M429.8 373.5l-0.8-1.3c-1.8-2.9-6.7-6.5-8-7.2l-0.4-0.2 0.1-0.4c0-0.1 0.8-3.6 3.8-3.6 0.4 0 0.8 0.1 1.3 0.2 4 1.2 4.8 8.3 4.2 11.1L429.8 373.5zM422 364.3c1.6 1 5 3.5 7 6 0-2.9-1-7.4-3.6-8.2 -0.3-0.1-0.6-0.2-0.9-0.2C422.9 361.9 422.2 363.5 422 364.3z" class="f"/><path d="M410.1 372.6c0 0 1.7-4.8 5.8-3.6s3.9 9.4 1.9 13.3C416.1 377.9 412.2 373.2 410.1 372.6z" class="g"/><path d="M412.8 369.3c-1.9 1-2.6 3.3-2.6 3.3 2.1 0.6 6 5.2 7.7 9.7 0.1-0.2 0.2-0.4 0.3-0.6C418.1 376.6 417.7 371.6 412.8 369.3z" class="e"/><path d="M417.8 383.8l-0.5-1.2c-1.7-4.4-5.5-8.9-7.3-9.4l-0.6-0.2 0.2-0.6c0.1-0.2 1.5-4.2 5.1-4.2 0.5 0 0.9 0.1 1.4 0.2 1.3 0.4 2.3 1.3 2.9 2.8 1.4 3.3 0.8 8.5-0.6 11.4L417.8 383.8zM410.9 372.3c2.2 1.1 5.2 4.8 6.9 8.6 0.9-2.7 1.2-6.6 0.1-9.2 -0.5-1.2-1.2-1.9-2.2-2.1 -0.4-0.1-0.8-0.2-1.1-0.2C412.6 369.4 411.4 371.4 410.9 372.3z" class="f"/><path d="M392.2 375c0 0 2.6-4.4 7.5-1.8 4.9 2.6 1.2 10-3.8 13.1C397 379 392.2 375 392.2 375z" class="g"/><path d="M392.2 375c0 0 0.9-3 5.8-0.4 4.9 2.6 1.3 7.8-2.1 11.7C397 379 392.2 375 392.2 375z" class="e"/><path d="M395.2 387.4l0.2-1.2c1-6.8-3.5-10.7-3.6-10.7l-0.4-0.3 0.2-0.4c0.1-0.1 1.8-2.9 5-2.9 1 0 2.1 0.3 3.3 0.9 1.6 0.9 2.6 2.3 2.6 4.2 0.1 3.3-2.7 7.7-6.3 10L395.2 387.4zM393 374.9c1.1 1.1 4 4.6 3.7 10.1 2.8-2.2 4.9-5.6 4.8-8.2 0-1.4-0.7-2.5-2-3.2 -0.9-0.5-1.8-0.7-2.7-0.7C394.8 372.9 393.5 374.2 393 374.9z" class="f"/><path d="M383.6 364.3c-0.9-3.5-0.7-8.1-0.6-8.3 0 0 0.9 4.6 1.8 8L383.6 364.3z" class="k"/><path d="M404.3 375.1l-1.2-0.1c0.8-8.7-8.6-16.6-8.7-16.6C394.4 358.3 405.1 365.7 404.3 375.1z" class="k"/><path d="M417.5 369.2c-3.1-10.2-20.2-13.9-20.4-14 0 0 18.2 2.8 21.5 13.6L417.5 369.2z" class="k"/><path d="M354.3 301c0 0 4.3 17.1 21.4 23.5 17.1 6.4 22.5-5.3 27.8-15.9 5.2-10.6 6.8-26.6 0-34.5" class="a"/><path d="M354.3 301c0 0 4.7 15.6 22.4 19.5 11.7 2.6 18.2-3.1 23.4-13.8 5.2-10.6 10.1-24.8 3.3-32.7" class="b"/><path d="M354.3 301c0 0 4.7 12.8 22.4 16.7 11.7 2.6 16-2.5 21.3-13.1 5.2-10.6 12.2-22.7 5.4-30.6" class="c"/><path d="M384.5 326.9c-2.6 0-5.6-0.6-9-1.8 -8.9-3.3-14.4-9.6-17.6-14.8 -3-4.9-3-9.4-3-9.4 0 0.2 4.5 16.9 21 23.1 16.3 6.1 21.6-4.7 26.8-15.2l0.2-0.5c5.1-10.4 6.6-26.3 0.1-33.9 0 0 4.2 3.6 5.1 8.7 1.4 8.1-0.4 18.1-4.1 25.7l-0.2 0.4C399.6 317.7 395.1 326.9 384.5 326.9z" class="d"/><path d="M406.3 249c0 0 15.3 22.8 36 26.8 20.7 3.9 18.2-2.3 1.2-17 23 9.1 43.7 9.3 46.4 6 2.7-3.3-27.7-18.8-27.7-18.8 31.7 9.3 59.8 5.6 61.5-2.3 1.7-7.9-38.5-12.8-38.5-12.8 34.4-1.4 63.8-18 67.3-27.1 3.5-9.1-35.8 2.1-50.7 0 31.5-12.2 61.1-40.2 66.3-54.9 5.2-14.7-18.2 7.5-52.2 18.4 28.6-20.5 41.4-44.3 34.8-60.5 -6.6-16.2-8.5 9.1-31.9 29 -23.4 19.9-50.3 34.6-76.6 38.7 -26.3 4.1-57.2 16.4-64 28.4" class="a"/><path d="M549.4 161c-0.3-5.4-22.8 10.9-48.4 9.7 35-14.9 42.9-44.3 41.1-51.2 -0.6-2.3-3.9-2.1-8.1-0.8 -3.8 5.4-8.6 11.4-15.2 17 -23.4 19.9-50.3 34.6-76.6 38.7 -7.5 1.2-15.5 3-23.1 5.4 -7.5 13.4-23.7 19.6-39 20.4 -0.7 0.9-1.4 1.8-1.9 2.6l28.2 46.1c0 0 1.7 2.6 4.8 6.2 30.2 21.4 31 7.4 25.6-2.2 12.5 7.3 34.4 10.5 39.7 8.2 5.3-2.3-7-8.5-23-21.9 27.4 10.5 58.3 6.4 58.1 2.9 -0.3-3.5-19-5.8-49.6-13.4 33 1.2 77-16.3 78.2-22.5 1.2-6.1-30.6 1.5-61.6 0C508.8 202.8 549.7 166.4 549.4 161z" class="b"/><path d="M493.5 173.5c35-14.9 46.5-42.4 44.7-49.2 -0.6-2.3-6.2 0.1-10.3 1.4 -3.8 5.4-2.6 4.5-9.2 10.1 -23.4 19.9-50.3 34.6-76.6 38.7 -6.1 1-12.4 2.4-18.6 4.1 -9.7 14-27.1 22.5-44.3 22.6 -0.4 0.6-0.8 1.1-1.2 1.7l28.2 46.1c0 0 1.7 2.6 4.8 6.2 30.2 21.4 27.8 2.4 22.5-7.2 12.5 7.3 24.9 9.9 30.1 7.5 5.3-2.3 0.8-5.3-15.2-18.8 27.4 10.5 50.2 9 49.9 5.5 -0.3-3.5-15.1-7.6-45.7-15.2 33 1.2 74.5-11.8 75.7-17.9s-23.9-1.3-54.9-2.7c30.3-3.5 64.1-33.3 63.8-38.7C537 162.5 519.2 174.7 493.5 173.5z" class="c"/><path d="M399.9 232.1c0 0 8.7 15 22.8 15.3 14.1 0.3-2.8-17.9-2.8-17.9 17.2 9.3 23.3 8.9 26.8 6.1 3.5-2.8-2.4-12.1-9.5-17.4 16.6 6.8 30.9 8.4 39 1.9 8.2-6.5-16.9-13.4-16.9-13.4 14.6-1.1 32.1-5 45.9-14.6 13-9 8.6-17.1-4.6-13.4s-32 3.6-32 3.6" class="a"/><path d="M452 277.5c-2.4 0-5.6-0.3-9.7-1.2 -22.1-4.5-35.4-27.7-35.4-27.7 0.2 0.2 15.4 22.7 35.7 26.5 10.5 2 13.4 1 13.9-0.2 1.5-3.1-9.6-12.7-13.2-15.8l-2.6-2.3 3.2 1.3c23.9 9.5 43.5 8.9 45.7 6.2 0 0 0.1-0.1 0-0.2 -0.6-3-28.5-18.9-28.5-18.9 25.3 7.4 50.6 6.7 59.2 1.6 1.7-1 2.7-2.1 2.9-3.3 0.1-0.5 0-1.1-0.4-1.6 -4.6-6.4-38.9-11.3-38.9-11.3 35-1.5 64.9-18.8 68.1-27.2 0.4-1 0.1-1.4-0.1-1.6 -1.9-2.4-13.3-0.9-24.3 0.6 -9.7 1.3-19.8 2.6-26 1.8l-2.2-0.3 2.1-0.8c30-11.6 60.6-39.3 65.9-54.5 1-2.9 0.7-3.7 0.4-3.9 -1.3-1.1-7.4 2.2-14.4 6.1 -9.4 5.1-22.3 12.1-37.4 17l-3.6 1.1 3-2.2c27.7-19.9 41.3-43.4 34.6-59.8 -1.3-3.1-2.4-4.7-3.4-4.8 -1.6-0.1-3.7 3.4-6.5 7.9 -4.2 6.8-10.4 17-21.1 26.1 -25.3 21.5-51.9 34.9-76.9 38.9 -25.1 4-56.6 15.8-63.6 28.1 0 0 1.9-4.6 6.1-8.1 12.4-10 37-18 57.3-21.1 24.5-3.9 51.6-17.6 76.3-38.6 10.5-8.9 16.7-19.1 20.8-25.8 3.3-5.4 5.3-8.7 7.6-8.5 1.5 0.1 2.8 1.8 4.4 5.5 6.7 16.3-5.8 39.2-32 58.9 13.5-4.7 25-11 33.7-15.7 8.9-4.9 13.9-7.5 15.8-5.9 0.9 0.8 0.9 2.4-0.1 5.2 -5.4 15.3-34.4 41.9-64.3 54.3 6.1 0.3 14.8-0.9 23.2-2 12.3-1.6 23-3.1 25.3-0.1 0.6 0.7 0.6 1.6 0.2 2.7 -3.7 9.5-30.8 24.3-62.2 27.1 9.8 1.5 29.1 5.1 32.8 10.2 0.6 0.8 0.8 1.7 0.6 2.5 -0.3 1.5-1.5 2.9-3.5 4.1 -8.1 4.8-29.1 6.2-53.5 0 8 4.3 22.7 12.5 23.4 16 0.1 0.6-0.1 1-0.3 1.2 -3 3.6-22.8 3.1-44-4.7 8.9 8 12.3 12.5 11 15.1C456.8 276.9 455.1 277.5 452 277.5z" class="d"/><path d="M393.9 232.1c0 0 8.7 15 22.8 15.3 14.1 0.3-2.8-17.9-2.8-17.9 17.2 9.3 23.3 8.9 26.8 6.1 3.5-2.8-2.4-12.1-9.5-17.4 16.6 6.8 30.9 8.4 39 1.9s-16.9-13.4-16.9-13.4c14.6-1.1 32.1-5 45.9-14.6 13-9 8.6-17.1-4.6-13.4s-32 3.6-32 3.6" class="a"/><path d="M413.3 240.5c3.7-2.9 1.3-6.9-6.9-15.6 0 0 24.2 8.3 27.1 6.4 2.9-1.9 1.3-5.5-9.3-17.9 13.1 6.7 34 7.9 36.6 5 2.6-2.9-2.3-7.6-19-12.8 41-2 61-19.4 58.3-22.3 -1.3-1.4-8.6-2-16-2.3 -10.9 1.5-21.5 1.5-21.5 1.5l-68.8 49.8c0 0 0.4 0.7 1.2 1.9C399.7 236.7 410.4 242.7 413.3 240.5z" class="b"/><path d="M409.5 236.8c3.7-2.9 5.1-3.2-3.1-11.9 0 0 18.9 6.3 21.8 4.4 2.9-1.9 5.4-4.3-5.2-16.7 13.1 6.7 27.5 6.8 30.1 3.8 2.6-2.9 0.3-6.8-16.3-12 41-2 59-17.2 56.4-20.1 -1.3-1.4-1.6-3.2-9-3.5 -10.9 1.5-21.5 1.5-21.5 1.5l-68.8 49.8c0 0 0.4 0.7 1.2 1.9C399.7 236.7 406.7 239.1 409.5 236.8z" class="c"/><path d="M417 248c-0.1 0-0.2 0-0.4 0 -14.2-0.3-22.3-16.2-22.3-16.2 0.1 0.1 8.7 14.7 22.3 15 2.7 0.1 4.2-0.5 4.8-1.8 1.6-3.6-5.2-12.2-8-15.2l-2.4-2.6 3.1 1.7c17.8 9.6 23.2 8.5 26.2 6.2 0.6-0.4 0.8-1.1 0.8-2.1 -0.1-3.7-4.8-10.3-10.3-14.4l-3.8-2.8 4.4 1.8c17.6 7.3 30.9 7.9 38.5 1.9 1.1-0.9 1.6-1.8 1.4-2.7 -0.8-4.1-13.3-8.3-18-9.6l-3.3-0.9 3.4-0.3c12.7-1 30.9-4.3 45.6-14.5 6.9-4.8 8.2-8.9 7.3-10.9 -1.2-2.5-5.6-3.1-11.3-1.5 -13 3.7-32.2 2.4-32.2 2.4 0.2 0 19 0.1 31.9-3.6 6.4-1.8 11.2-1 12.7 2.1 1.5 3.3-1.4 8-7.6 12.4 -13.8 9.6-30.5 13.2-43.1 14.4 5.2 1.6 15.1 5.3 15.9 9.7 0.3 1.4-0.3 2.7-1.8 3.8 -7.4 5.9-19.9 5.7-36.2-0.4 4.5 4.2 7.9 9.6 8 13 0 1.3-0.4 2.3-1.3 3 -3.3 2.6-8.5 3.8-24.7-4.6 3 3.6 7.8 10.4 6.2 14.1C421.8 247.2 420 248 417 248z" class="d"/><path d="M322.9 79.5l-0.3-1.1c5.2-1.5 12.1 0.6 12.1 0.6C334.6 79 327.9 78.1 322.9 79.5z" class="d"/><path d="M345 199.6c56.2 3.6 81.3-27.8 77.5-46.2 -6.6-12-22.5-15-34.9-7.7 8.5-27.3-11.4-53.2-31.1-48.5 -19.7 4.8-22 35.4-21.8 51.2 0 0-7.1-4.6-12.9-11.2 10.6-19.7 8.9-45.1-9.1-46.6 -12.2-1-21.7 16.1-26.6 27.2 -1.3 5.4-1.8 10.3-1.8 14 0 0-19.3 3.9-11.9 26.5 9.7 29.5 31.6 34.1 31.6 34.1" class="l"/><path d="M345 199.6c56.2 3.6 72.1-25.4 68.2-43.8 -0.9-11.2-17.6-12.6-30-5.3 8.5-27.3-7-58-26.6-53.3 -19.7 4.8-22 35.4-21.8 51.2 0 0-7.1-4.6-12.9-11.2 10.6-19.7 8.9-45.1-9.1-46.6 -12.2-1-21.7 16.1-26.6 27.2 -1.3 5.4-1.8 10.3-1.8 14 0 0-19.3 3.9-11.9 26.5 9.7 29.5 31.6 34.1 31.6 34.1" class="m"/><path d="M345 199.6c56.2 3.6 68.3-23.4 64.5-41.8 -0.9-11.2-16.1-12.9-28.5-5.6 8.5-27.3-4.7-59.7-24.4-54.9 -19.7 4.8-22 35.4-21.8 51.2 0 0-7.1-4.6-12.9-11.2 10.6-19.7 8.9-45.1-9.1-46.6 -12.2-1-21.7 16.1-26.6 27.2 -1.3 5.4-1.8 10.3-1.8 14 0 0-19.3 3.9-11.9 26.5 9.7 29.5 31.6 34.1 31.6 34.1" class="n"/><path d="M353.9 200.4c-2.9 0-8.8-1.5-8.8-1.5 42.4 2.7 62.2-14.5 68.7-22 6.6-7.6 9.7-16.3 8.2-23.4 -2.8-5.1-7.5-8.8-13.3-10.4 -6.8-1.9-14.3-0.8-20.7 3l-1.3 0.8 0.4-1.4c4.4-14.2 1.2-29.9-8.2-39.9 -6.4-6.8-14.5-9.7-22.2-7.8 -18.9 4.6-21.5 33.7-21.4 50.6l0 1.1 -0.9-0.6c-0.1 0-7.3-4.7-13.1-11.3l-0.3-0.3 0.2-0.4c7.1-13.1 8.5-28.7 3.5-37.8 -2.6-4.7-6.8-7.5-12.2-7.9 -12-1-21.4 16.4-26 26.8 -1.5 6.4-1.8 11.3-1.8 13.7v0.5l-0.5 0.1c-0.1 0-7.3 1.6-11 7.9 -2.7 4.6-2.8 10.6-0.5 17.9 9.4 28.8 30.8 33.3 31 33.3 0 0-3.7 0.4-8.5-2.2 -7.3-4.1-17.8-12.8-23.7-30.7 -2.5-7.6-2.3-13.9 0.6-18.8 3.4-5.9 9.5-7.9 11.3-8.3 0-4.1 0.7-9 1.8-13.7 4.7-10.8 14.5-28.6 27.2-27.6 5.8 0.5 10.3 3.4 13.1 8.5 5.1 9.4 3.7 25.2-3.3 38.6 4.4 5 9.6 8.8 11.7 10.2 0-17.4 3-46 22.3-50.6 8.1-2 16.6 1 23.3 8.2 9.4 10 12.8 25.4 8.9 39.6 6.4-3.4 13.7-4.2 20.3-2.4 6.1 1.7 11.2 5.6 14.1 11l0.1 0.2c1.5 7.5-1.6 16.6-8.5 24.5C408.5 184.9 390.8 200.4 353.9 200.4z" class="o"/><ellipse transform="matrix(0.979 0.2036 -0.2036 0.979 32.0323 -60.2566)" cx="308.8" cy="125.5" rx="15.4" ry="23" class="l"/><ellipse transform="matrix(0.979 0.2037 -0.2037 0.979 31.3223 -60.3342)" cx="308.8" cy="122" rx="13.9" ry="20.8" class="p"/><ellipse transform="matrix(0.979 0.2037 -0.2037 0.979 32.0352 -60.2609)" cx="308.8" cy="125.5" rx="13.9" ry="20.8" class="q"/><path d="M306.5 146.7c-0.7 0-1.4-0.1-2.1-0.2 -7.8-1.6-12.2-12.3-9.8-23.9 2.2-10.4 9.3-18.2 16.5-18.2 0.7 0 1.4 0.1 2.1 0.2 7.8 1.6 12.2 12.3 9.8 23.9C320.8 138.9 313.8 146.7 306.5 146.7zM311.1 105.5c-6.7 0-13.3 7.4-15.4 17.3 -2.3 10.9 1.7 21 8.9 22.5 0.6 0.1 1.2 0.2 1.8 0.2 6.7 0 13.3-7.4 15.4-17.3 2.3-10.9-1.7-21-8.9-22.5C312.3 105.6 311.7 105.5 311.1 105.5z" class="p"/><ellipse transform="matrix(0.979 0.2036 -0.2036 0.979 32.0335 -60.2584)" cx="308.8" cy="125.5" rx="8.6" ry="12.8" class="r"/><path d="M316.3 117.4c-1.1-2.3-2.8-3.9-4.9-4.4 -4.6-1-9.5 3.9-11 10.8 -0.7 3.5-0.4 6.8 0.6 9.4C309.3 131.8 314.8 125.1 316.3 117.4z" class="s"/><path d="M307.4 138.8c-0.4 0-0.9 0-1.3-0.1 -4.9-1-7.7-7.7-6.2-15 1.4-6.5 5.8-11.4 10.4-11.4 0.4 0 0.9 0 1.3 0.1 2.4 0.5 4.4 2.4 5.6 5.3 1.1 2.8 1.4 6.3 0.6 9.7C316.4 133.9 312 138.8 307.4 138.8zM310.2 113.5c-4 0-8 4.5-9.2 10.4 -1.4 6.6 1 12.7 5.3 13.6 0.4 0.1 0.7 0.1 1.1 0.1 4 0 8-4.5 9.2-10.4 0.7-3.2 0.5-6.4-0.6-9 -1-2.5-2.7-4.1-4.7-4.5C310.9 113.5 310.6 113.5 310.2 113.5z" class="t"/><ellipse transform="matrix(0.979 0.2036 -0.2036 0.979 32.0321 -60.2561)" cx="308.8" cy="125.5" rx="4.8" ry="7.2"/><path d="M351.5 163.4c0 0-7.3 32.3-39.3 29.7 4.1-5.9 7.6-18.4 6.9-29.7C335.5 163.4 351.5 163.4 351.5 163.4z" class="u"/><path d="M347.3 162.8c0 0-3.1 32.9-35.2 30.3 4.1-5.9 7.6-18.4 6.9-29.7C335.5 163.4 347.3 162.8 347.3 162.8z" class="i"/><path d="M345.3 162.6c0 0-1 33.1-33.1 30.5 4.1-5.9 7.6-18.4 6.9-29.7C335.5 163.4 345.3 162.6 345.3 162.6z" class="j"/><path d="M315.8 193.8c-1.2 0-2.4-0.1-3.7-0.2l-1-0.1 0.6-0.8c3.8-5.5 7.5-17.6 6.8-29.3l0-0.6h33.8l-0.2 0.7C352 163.8 344.9 193.8 315.8 193.8zM313.2 192.6c0.9 0.1 1.8 0.1 2.6 0.1 25.7 0 33.7-24.2 35-28.7h-31.1C320.2 175.2 316.9 186.7 313.2 192.6z" class="k"/><path d="M321.1 162.6c0 0-0.5 18.7-6.4 27.3 12.7-4.5 25.7-17.6 28.1-23.8C332.2 160.1 321.1 162.6 321.1 162.6z" fill="#7C0303"/><path d="M313.2 191.1l1-1.5c5.7-8.4 6.3-26.8 6.3-27l0-0.5 0.4-0.1c0.1 0 2.4-0.5 5.9-0.5 4.1 0 10.2 0.7 16.2 4.1l0.4 0.2 -0.2 0.5c-2.5 6.5-15.8 19.7-28.4 24.2L313.2 191.1zM321.7 163.1c-0.1 2.9-0.9 17.4-5.6 25.7 11.5-4.7 23.2-16.3 25.9-22.4 -5.6-3.1-11.3-3.7-15.2-3.7C324.4 162.7 322.5 162.9 321.7 163.1z" fill="#5B0303"/><path d="M346.9 161.7c0 0-5.7 26.1-34.7 31.3 4.4-9.6 7.4-25.9 5.1-32 3.1 0 5.2 0 5.2 0 1.7 9.5-1.3 20.7-5.4 27.1 12-4.6 24.4-18.8 26-26.6C345.7 160.2 346.9 161.7 346.9 161.7z" class="i"/><path d="M346.9 161.7c0 0-5.7 26.1-34.7 31.3 4.4-9.6 7.4-25.9 5.1-32 3.1 0 5.2 0 5.2 0 1.7 9.5-1.3 20.7-5.4 27.1 12-4.6 24.4-18.8 26-26.6C345.7 160.2 346.9 161.7 346.9 161.7z" class="j"/><path d="M339.5 169.2c-6.1-0.8-19-0.6-17.2 16.4C329.1 181.6 335.6 175.1 339.5 169.2z" fill="#F75757"/><path d="M337.6 171.8c-6.1-0.8-17.1-3.2-15.4 13.8C329.1 181.6 333.7 177.7 337.6 171.8z" fill="#FC6060"/><path d="M321.8 186.6l-0.1-0.9c-0.6-5.8 0.4-10.3 3.1-13.2 2.4-2.7 6.2-4.1 11-4.1 1.2 0 2.5 0.1 3.8 0.3l0.9 0.1 -0.5 0.8c-4.3 6.4-10.9 12.8-17.4 16.6L321.8 186.6zM335.8 169.6c-4.5 0-8 1.2-10.2 3.7 -2.3 2.5-3.2 6.3-2.9 11.4 5.8-3.6 11.7-9.2 15.7-14.9C337.5 169.6 336.6 169.6 335.8 169.6z" fill="#FC3535"/><path d="M311.2 193.8l0.5-1c4.2-9.2 7.3-25.5 5.1-31.6l-0.3-0.8h6.5l0.1 0.5c1.6 9.4-1.1 19.7-4.6 26 11.2-5 22.5-18 24-25.5l0.1-0.3 0.2-0.1c0.8-0.4 1.6-0.6 2.3-0.6 1.5 0 2.2 0.9 2.3 1l0.2 0.2 -0.1 0.3c-0.1 0.3-6.1 26.5-35.2 31.8L311.2 193.8zM318.1 161.6c1.8 6.7-1 21.5-4.9 30.7 25.6-5.2 32.3-27.4 33.1-30.4 -0.2-0.1-0.6-0.3-1.1-0.3 -0.5 0-1 0.1-1.5 0.4 -1.9 8.2-14.4 22.3-26.3 26.8l-1.6 0.6 0.9-1.5c3.8-6.1 6.8-16.9 5.4-26.2H318.1z" class="k"/><path d="M360.1 160.3c0 0-13.8 14.1-32.5 7.6 -18.7-6.5-36-7.3-38.3 5.6 -4.9-15.8 1.8-32.8 19.1-38.8 17.2-5.9 23.9-1.8 29.7 11C343.8 158.5 353.2 160.9 360.1 160.3z" class="u"/><path d="M339.9 156.7c0.7 0 2.5-0.8 3.9-2.3 -2.2-2.1-4.2-5-5.9-8.7 -5.8-12.7-12.5-16.9-29.7-11 -16.8 5.8-23.6 22.1-19.4 37.5C292.3 149.3 319.9 162.1 339.9 156.7z" class="i"/><path d="M334.1 150.9c1.5-0.7 3.4-2 4.7-3.6 -0.3-0.5-0.5-1-0.7-1.5 -5.8-12.7-12.5-16.9-29.7-11 -16.2 5.6-23 21-19.8 35.9C291.2 150.6 320.3 159.4 334.1 150.9z" class="j"/><path d="M289.4 176l-0.7-2.3c-5.3-17.2 2.9-33.8 19.4-39.5 5.2-1.8 9.5-2.7 13.1-2.7 7.8 0 12.8 4 17.3 14 5.7 12.5 14.7 14.3 19.6 14.3h0c0.6 0 1.2 0 1.9-0.1l1.6-0.1 -1.1 1.1c-0.1 0.1-9.4 9.5-22.9 9.5 0 0 0 0 0 0 -3.4 0-6.8-0.6-10.2-1.8 -8.6-3-16.3-4.6-22.4-4.6 -8.9 0-14 3.3-15.2 9.7L289.4 176zM321.2 132.7c-3.5 0-7.6 0.9-12.7 2.6 -15.3 5.2-23.1 20.1-19.3 35.9 1.9-5.6 7.3-8.5 15.8-8.5 6.2 0 14.1 1.6 22.8 4.6 3.2 1.1 6.5 1.7 9.8 1.7 0 0 0 0 0 0 10.3 0 18.1-5.6 20.9-8 -0.1 0-0.2 0-0.3 0h0c-5.2 0-14.7-2-20.7-15C333.1 136.4 328.6 132.7 321.2 132.7z" class="k"/><ellipse transform="matrix(0.9924 -0.1228 0.1228 0.9924 -13.6943 45.671)" cx="363.6" cy="133.9" rx="17.3" ry="26" class="l"/><ellipse transform="matrix(0.9924 -0.1228 0.1228 0.9924 -13.2652 45.6483)" cx="363.6" cy="130.4" rx="15.5" ry="23.4" class="p"/><ellipse transform="matrix(0.9924 -0.1228 0.1228 0.9924 -13.6952 45.6748)" cx="363.6" cy="133.9" rx="15.5" ry="23.4" class="q"/><path d="M365.2 157.8c-8.5 0-16-9.4-17.6-21.9 -0.8-6.3 0.1-12.5 2.5-17.3 2.5-4.9 6.2-7.9 10.5-8.5 0.5-0.1 0.9-0.1 1.4-0.1 8.5 0 16 9.4 17.6 21.9 0.8 6.3-0.1 12.5-2.5 17.3 -2.5 4.9-6.2 7.9-10.5 8.5C366.1 157.8 365.7 157.8 365.2 157.8zM362 111.2c-0.4 0-0.8 0-1.2 0.1 -3.9 0.5-7.3 3.3-9.6 7.8 -2.3 4.6-3.2 10.6-2.4 16.6 1.4 11.7 8.7 20.9 16.4 20.9 0.4 0 0.8 0 1.2-0.1 3.9-0.5 7.3-3.3 9.6-7.8 2.3-4.6 3.2-10.6 2.4-16.6C377 120.4 369.8 111.2 362 111.2z" class="p"/><ellipse transform="matrix(0.9924 -0.1228 0.1228 0.9924 -13.6951 45.6742)" cx="363.6" cy="133.9" rx="9.6" ry="14.4" class="r"/><path d="M370.7 125.4c-2.2-3.8-5.5-6.2-8.9-5.8 -5.2 0.6-8.7 7.6-7.7 15.5 0.5 3.8 1.9 7.1 3.8 9.5C366.2 141.9 371.1 134 370.7 125.4z" class="s"/><path d="M364.6 148.8c-5.3 0-10.1-5.9-11-13.7 -1-8.2 2.7-15.4 8.2-16.1 5.6-0.7 10.9 5.4 11.9 13.6 1 8.2-2.7 15.4-8.2 16.1C365.2 148.8 364.9 148.8 364.6 148.8zM362.6 120.2c-0.2 0-0.5 0-0.7 0 -4.9 0.6-8.1 7.3-7.2 14.8 0.9 7.5 5.7 13.2 10.6 12.6 4.9-0.6 8.1-7.3 7.2-14.8C371.6 125.7 367.3 120.2 362.6 120.2z" class="t"/><ellipse transform="matrix(0.9924 -0.1227 0.1227 0.9924 -13.6864 45.6372)" cx="363.6" cy="133.9" rx="5.7" ry="8.5"/><circle cx="309.2" cy="119.2" r="3.1" class="q"/><circle cx="304.9" cy="122.6" r="1.7" class="q"/><circle cx="362.1" cy="126.1" r="3.1" class="q"/><circle cx="357.8" cy="129.5" r="1.7" class="q"/><path d="M291.7 153.7c0 0 12.1-20.2 35.6-17.7C318 130.6 299 136.7 291.7 153.7z" fill="#F4C478"/></svg>