<svg version="1.1" xmlns="http://www.w3.org/2000/svg" viewBox="0 0 768 430" xml:space="preserve"><style>.s0{fill:none;}.s1{fill:#DDE4D0;}</style><path d="M347.3 242.3c0.7 0.6 1.4 0.5 2.7 1C348.9 242.8 348.1 242.6 347.3 242.3zM354 201.3c1.4-1.6 1.6-1.1 3.2-3.7 0.7-1.2 1-1.6 1.3-2 -0.2 0.2-0.4 0.5-0.6 0.8C356.3 198.5 355.1 199.9 354 201.3zM364.6 179.1c0 0.1-0.1 0.2-0.1 0.2 -0.5 1.3-0.9 2.5-1.4 3.7 0.1-0.1 0.2-0.2 0.2-0.3C363.8 181.4 364.2 180.2 364.6 179.1z" fill="none"/><path d="M362.1 253c-3-1-2.5-2.1-5.2-4.3 -2.7-2.2-2.6-2.8-5.5-4.6 -0.6-0.4-1.1-0.6-1.5-0.8 -1.3-0.5-2-0.4-2.7-1 -0.6-0.2-1.1-0.4-1.9-0.8 -2.4-1.1-2.2 0-3.3-2 -1.1-2-1.1-2.1-1.2-5.9 -0.1-3.9 0-4.8 0.9-9.5 0.9-4.7 1-5.6 2.7-9.5 1.7-3.9 2-3.1 4.3-6.2 2.2-3.1 2.4-3.5 4.5-6.2 0.3-0.4 0.5-0.7 0.8-0.9 1.1-1.4 2.2-2.9 3.9-4.9 0.2-0.3 0.4-0.5 0.6-0.8 0.4-0.7 0.6-1.5 2.1-5.2 0.9-2.4 1.9-5.2 2.8-7.8 -0.1 0.1-0.2 0.2-0.2 0.3 -1.1 2.9-2.1 5.5-3.5 8.1 -2 3.7-1.3 0.5-3 3s-1.6 3.6-3.9 6.9c-2.4 3.3-2 3.4-5.5 6.2 -3.5 2.9-4.6 2.1-8.5 5.2s-3.6 3.9-7.3 7.2c-3.6 3.4-3.9 3.5-7.3 6.2 0 0-0.1 0.1-0.1 0.1 -1.2 2.1-1.6 3.8-5.3 6.7 -4.4 3.5-6.8 2.5-11.5 6 -4.7 3.5-3.6 4.6-7.2 8 -3.6 3.4-3.3 2.1-7.2 5.6 -3.9 3.5-4.8 3.7-8.3 8.4 -3.5 4.7-5.3 7.8-5.7 10.4 -0.4 2.6 2.9-1.5 4 0 1.1 1.5-1.3 4.9 0.4 6 1.6 1.1 4-2.4 6.1-1.6 2.2 0.8 1.2 4.2 2.5 4.8 1.3 0.6 1-3.1 2.9-2.4 1.9 0.7 2.5 4.4 4.7 5.2 2.2 0.8 1.7-1.7 4-2 2.2-0.3 4-1.8 5 0.8 1 2.6-3.6 8.1-1.1 9.6 2.5 1.5 6.4-2.6 11.1-3.6 4.8-1 2.7 4.3 7.9-0.4 5.2-4.7 7.7-12 12.9-18.3 5.2-6.4 3.5-4.1 7.9-7.2 4.4-3.1 5.1-3.3 9.7-5.2 4.6-1.9 9.6 0.5 8.6-2.4 -0.1-0.3-0.2-0.5-0.4-0.8C364.2 253.5 363.2 253.4 362.1 253zM412.8 251.1c5.4 5.6 15.1 13.3 18.7 18.1 4.3 5.7-2.3 1.1-4.1 1.8 -1.7 0.7-1 1.5-2.9 1.1 -1.9-0.5-2.7-2.2-4.8-2.9 -2-0.7-1.7-1-3.3 0.3 -1.7 1.2-3.1 3.6-3.3 4.7 -0.2 1.2 1.3 0.5 2.4 0 1.1-0.5 0.5-1.6 2.2-2.1 1.7-0.5 3.3-0.6 4.5 0.3 1.3 0.9-1.1 2.4 0.5 3.2 1.6 0.8 2.7 0.6 5.7 0 3-0.6 3.9-1.7 6.2-2.4 2.3-0.7 1.4-2.4 2.9-0.3 1.4 2.1 2.5 4.9 2.9 8.7 0.4 3.7-1.6 4.1-1.2 6.3 0.4 2.2 1.8 1.1 2.9 2.6 1.1 1.6 0.4 3.2 1.4 3.7 1 0.5 2.3-0.1 2.6-1.8 0.4-1.7-0.4-2.5-1.2-5 -0.8-2.5-2.4-4.2-1.9-5 0.5-0.8 2.6 0.5 4.1 1.8 1.4 1.3 0.6 1.5 1.7 3.4 1.1 1.9 1.5 3.4 2.6 4.2 1.1 0.8 2.4 1.3 1.9-1 -0.5-2.3-2.1-5.1-4.1-8.2s-2-1.6-3.8-4c-1.8-2.3-1.5-2.7-3.3-5.3 -1.8-2.6-2-2.9-4.1-5 -2.1-2.1 1.3 1.8-4.3-3.4 -5.1-4.8-11.1-11.9-16.5-16.4 -0.7 0.5-1.4 0.9-2.9 1.7C413.7 250.7 413.3 250.9 412.8 251.1z" fill="#DDE4D0"/><path d="M502 96.4c-0.9-1-1.6-1-4.3-1.3 -2.7-0.3-3.6 0.1-6.4 0 -2.8-0.1-3 0.1-4.9-0.3 -1.9-0.4-0.5 0-2.7-1.3 -2.2-1.3-3.5-2-6.1-3.9 -2.6-1.9-2.1-1.9-4.2-3.6 -2.1-1.7-1.8-2-4.2-3.3 -2.4-1.3-3-0.9-5.5-2 -2.4-1.1-1.5-1.4-4.2-2.3 -2.7-0.9-3.6-1.1-6.7-1.3 -3-0.2-3 0.2-5.5 0.3 -2.4 0.1-1.1-0.5-4.2 0 -3.2 0.5-5.2 1-8.5 2 -3.3 1-2.3 0.6-4.9 2s-2.9 1.6-5.5 3.6c-2.6 2-2.7 2.4-4.9 4.3 -2.1 1.9-1.4 1.3-3.6 3.3 -2.3 2-3.1 2.1-5.5 4.6 -2.3 2.5-2.4 2.9-3.9 5.2 -1.5 2.3-0.5 1.9-2.1 3.9 -1.7 2-2.2 1.9-4.6 4.3 -2.4 2.4-1.7 2.5-4.9 5.2 -3.1 2.8-3.9 2.6-7.6 5.9 -3.6 3.3-3.3 3.7-7 7.2 -3.6 3.5-3.8 3.4-7.6 6.9 -3.8 3.5-4.3 4-7.6 7.2 -3.3 3.2-2.5 2.1-5.5 5.6 -3 3.4-3.3 4.4-6.4 8.2 -3 3.8-3.3 3.8-5.8 6.9 -2.4 3.1-1.7 2.5-3.9 5.6 -2.3 3-2.5 2.9-5.2 6.6 -2.7 3.7-3.1 4.3-5.5 8.2 -2.4 3.9-2 3.4-3.9 7.2 -2 3.8-2 3.6-3.9 7.9 -2 4.3-2.5 5.2-3.9 9.2 -1.4 4-0.8 3.3-1.8 6.9 -1 3.6-1.6 4.6-2.1 7.5 -0.5 2.9-0.2 2.3 0 4.3 0.1 2-1.1 3.9 0.6 3.6 1.7-0.2 2.9-1.9 6.3-4.5 0 0 0.1-0.1 0.1-0.1 3.4-2.7 3.6-2.9 7.3-6.2 3.6-3.4 3.3-4.1 7.3-7.2s5-2.4 8.5-5.2c3.5-2.9 3.1-3 5.5-6.2 2.4-3.3 2.2-4.4 3.9-6.9s1.1 0.7 3-2.9c1.4-2.6 2.4-5.2 3.5-8.1 0.4-1.2 0.9-2.4 1.4-3.7 0-0.1 0.1-0.2 0.1-0.2 -0.4 1.1-0.8 2.4-1.2 3.6 -0.9 2.6-1.9 5.4-2.8 7.8 -1.4 3.7-1.7 4.5-2.1 5.2 -0.3 0.5-0.6 0.9-1.3 2 -1.6 2.5-1.8 2.1-3.2 3.7 -0.2 0.3-0.5 0.5-0.8 0.9 -2.1 2.7-2.4 3.1-4.5 6.2 -2.2 3.1-2.5 2.3-4.3 6.2 -1.7 3.9-1.8 4.7-2.7 9.5 -0.9 4.7-1 5.7-0.9 9.5 0.1 3.8 0.1 3.9 1.2 5.9 1.1 2 1 0.8 3.3 2 0.7 0.4 1.3 0.6 1.9 0.8 0.8 0.3 1.6 0.5 2.7 1 0.4 0.2 0.9 0.5 1.5 0.8 2.9 1.8 2.8 2.4 5.5 4.6 2.7 2.2 2.2 3.3 5.2 4.3 1.2 0.4 2.1 0.4 2.9 0.4 1.3-0.1 2.4-0.6 3.7-0.7 2.3-0.2 0.8-0.3 2.4-0.3 1.7 0 2.3 1 4.2 0.3 2-0.7 1.4-3 3.6-2.9 2.2 0.1 1.8 2.6 5.2 3.3 3.3 0.7 5-0.4 8.2-0.7 3.2-0.3 2-0.6 4.5-0.3 2.5 0.3 2.8 1.1 5.5 1.3 2.7 0.2 2.2 0.4 5.2-0.3 2.5-0.6 3.1-0.8 5.2-1.9 0.4-0.2 0.9-0.5 1.4-0.7 1.5-0.8 2.2-1.2 2.9-1.7 0.9-0.6 1.7-1.3 4.1-2.9 4.3-2.9 6.4-3.3 10.3-6.9 3.9-3.6 2.7-4.3 5.5-7.5 2.8-3.3 3.1-2.4 5.8-5.6 2.7-3.2 2.6-3.9 4.9-7.2 2.3-3.3 2-2.7 4.3-5.9 2.3-3.2 2.7-3.2 4.9-6.9 2.2-3.7 2-3.7 3.9-7.9 1.9-4.2 1.8-3.9 3.6-8.9 1.8-4.9 2.6-6.6 3.6-10.8 1.1-4.2 0-2 0.6-5.9 0.6-3.9 1.3-4.3 1.8-9.8 0.5-5.5 0.2-6.7 0.3-12.1 0.1-5.4 0.1-5.7 0-9.5 -0.1-3.8-0.1-2.9-0.3-5.6 -0.2-2.6-0.9-2-0.6-4.9 0.3-2.9 0.8-3.7 1.8-6.9 1.1-3.2 1-3.1 2.4-5.9 1.4-2.8 1.6-2.6 3.3-5.2 1.7-2.6 1.7-3.3 3.6-5.2 1.9-2 1.4-1.6 3.9-2.6 2.6-1 2.9-0.5 6.4-1.3 3.5-0.8 5.1-0.9 7.6-2 2.5-1.1 1.7-1.1 2.4-2.3C502.1 97.8 502.9 97.4 502 96.4z" style="fill-opacity:1;fill:#DDE4D0"/></svg>