<svg version="1.1" id="Layer_1" xmlns="http://www.w3.org/2000/svg" xmlns:xlink="http://www.w3.org/1999/xlink" viewBox="0 0 768 430" enable-background="new 0 0 768 430" xml:space="preserve">
<filter  id="k">
	<feGaussianBlur  stdDeviation="1.0525"></feGaussianBlur>
</filter>
<filter  width="1.4752" height="1.699" id="h" y="-.34949" x="-.2376">
	<feGaussianBlur  stdDeviation="2.202"></feGaussianBlur>
</filter>
<filter  width="1.4141" height="1.3494" id="g" y="-.17473" x="-.20703">
	<feGaussianBlur  stdDeviation="2.202"></feGaussianBlur>
</filter>
<filter  width="1.8966" height="1.293" id="e" y="-.14647" x="-.44831">
	<feGaussianBlur  stdDeviation="2.202"></feGaussianBlur>
</filter>
<g transform="translate(-399.66 -262.25)">
	<path fill="#7A8C4A" d="M933.974,340.1c-3.673,0.796-7.099-0.747-10.36-3.864c-0.921,5.198,1.755,8.644-7.058,17.688
		l-11.001,11.852c-14.829,13.468-29.458,24.967-40.949,32.805c-11.493,7.838-35.858,23.534-49.133,36.753
		c8.894,11.699,12.027,8.333,11.192-2.906c1.13-3.575,8.885-8.355,17.571-13.439c3.276-2.199,13.557-8.698,20.582-14.084
		c6.793-5.207,34.589-28.718,35.762-28.683c7.585-6.947,16.863-14.257,22.584-20.807L933.974,340.1z"/>
	<path fill="#82AA1A" d="M819.596,434.708c0.783-8.855-2.328-14.157-5.526-19.378c-1.18-11.501,2.055-21.726,4.542-35.141
		l-2.049-7.998l1.494-10.404l-2.62,4.739l-2.799-4.81c-2.577,5.233-5.112,7.197-7.562,2.427l-14.376-2.825l-1.126-3.935l-6.84-3.79
		c-1.018,4.183-3.046,5.832-7.328,1.829L768.099,350c1.164,7.172-3.292,4.638-6.746,3.832c0.819-8.559-3.895-8.809-7.787-10.292
		l-4.73,5.886c-5.213-1.652-7.796-3.734-8.474-6.125l-2.438,1.46c-0.085-2.762-1.862-5.473-7.916-8.056
		c-0.159,3.455-0.073,7.12-2.507,8.596l-12.809-3.128l-0.395,6.975c-5.121,1.495-10.625,3.751-14.581,2.936
		c1.912,3.06,4.17,5.714,4.546,10.57l-3.962,3.272l1.035,1.238c-3.271,1.174-6.844,0.685-10.941-2.672l-0.527,6.228l-8.629-0.697
		l0.467,5.72l-13.232,3.664c1.337,4.458,10.894,11.052,0.354,12.42l2.208,5.316l-2.859,1.308l1.237,3.733
		c-7.352-0.532-14.471,3.313-12.798,0.374l0.076,8.343c-0.225,3.475-5.239,4.349-8.271,6.299l2.979,3.958l-12.454,8.218
		c7.837,7.648-3.856,12.732-6.871,18.955l3.917,3.683c-2.021,8.224-5.235,15.774-11.555,27.786l7.934-1.497
		c3.157-4.295,9.805-3.083,15.626-3.172l-1.408,4.329c4.139,0.842,9.84-1.192,15.216-2.629l0.771,3.619l23.458,2.521
		c1.99,2.239,4.178,4.406-5.292,10.912c0.902,2.89,4.404,4.571-3.292,11.46c2.388,2.58,1.867,6.37-0.381,8.454
		c-2.771,2.569-0.01,7.935-1.443,9.234c1.731,1.32,5.122,1.382,4.258,4.669l-3.548,10.243c0.9,3.146,2.776,5.739-3.123,12.725
		l-2.371,7.141c3.345-0.314,1.532,4.276-1.349,9.883c1.168,1.621,1.754,3.864-2.963,11.774c0.913,2.157,4.603,1.289-1.66,11.886
		c0.531,1.646,3.306-1.412-1.094,9.816c0.522,2.413,3.697,0.374-1.904,13.068c-0.114,2.078,3.686-1.294-1.342,7.625
		c-3.363,8.099-7.478,16.771-16.133,28.898l8.771-5.61l18.256-11.901c3.017-1.197,6.032-2.397,10.843-2.716
		c1.293,1.222,2.399,2.454,1.527,3.793l13.551-4.048l2.271,3.032c5.866-4.463,12.471-7.795,12.391-3.132
		c4.248-2.942,8.966-2.487,11.902,5.524c3.667,1.842,7.301,1.506,10.857-3.804l2.958,6.885c3.369-0.191,6.202-2.28,8.743-5.404
		c-1.524,3.209,2.369,5.853,5.036,8.623c4.26-2.08,8.833-7.528,13.325-12.103l1.198-6.896l2.642,6.377l4.171,3.644l9.618-10.075
		c1.805,2.227,4.819,3.824,8.961,4.834l5.423-17.891l2.102-0.59l5.049-3.913l2.561,3.357c4.648-6.356,3.688-10.378,4.66-15.204
		l4.515-0.561c-2.084-5.432-1.654-11.08-1.307-16.721l-2.175-15.982c0.765-5.842,2.149-5.2,3.407-5.902
		c5.913-0.399,9.575,4.997,13.466,9.809l3.933,5.399c1.676,7.062,3.467,10.976,4.976,22.718c0,0,1.231-2.025,1.716-0.881
		c0.484,1.15,0.139,9.521,0.139,9.521l2.939,5.88l1.292-1.896l-0.032,4.404l4.589,7.548c1.981,1.327,5.368,7.137,8.491,12.108
		l6.823-14.954l2.156,1.825c2.528-0.501,3.233-7.45,4.826-11.262c0.878,2.216,3.149,2.337,6.036,1.532l4.207-12.445l7.734,1.795
		c2.463-2.525,2.985-5.841,4.159-8.894l-0.343-4.205l3.036-0.809l-0.482-7.198l7.586,0.435c-1.943-6.755-4.29-10.189-6.783-12.431
		l1.253-1.941c-0.004-3.31-0.716-6.881-1.43-10.453l6.137-2.17l0.905-11.879c2.896-2.432,7.732-2.153,12.739-1.632l-0.177-0.082
		c0.301-6.393-1.341-11.082-2.745-15.976c2.378-1.074,4.484-2.263,9.731-2.134l-1.382-5.701c4.008-1.58,10.65-0.162,16.397,0.235
		c-0.007-4.382-1.773-8.539-4.473-12.573l2.466-1.278l-3.075-4.396l5.008-1.547l-8.301-11.621l5.824-2.942l-8.603-11.461
		l5.891-3.551l-1.231-4.472l-2.635-3.029l5.59-4.966c-3.169-2.266-7.078-5.655-10.677-6.127l-0.197-2.97l-6.572,1.347l4.743-3.249
		l-7.554-9.999l5.141-7.714c-5.11-1.179-9.61-2.581-12.822-4.454l2.533-3.796c-2.484-1.87-4.587-4.335-9.568-2.333l1.267-4.52
		c-5.109,0.742-9.254,4.1-13.655,6.76l-3.754-1.916l0.455-5.953c-5.108-0.102-9.783,0.785-13.437,4l-7.816,3.777l-11.273,10.457
		l-7.994,7.627C833.359,429.197,824.938,429.989,819.596,434.708L819.596,434.708z"/>
	<g filter="url(#e)">
		<path opacity="0.952" fill="#89B714" d="M893.351,407.625C855.225,438.495,901.338,423.814,893.351,407.625z"/>
	</g>
	<g filter="url(#g)">
		<path opacity="0.952" fill="#89B714" d="M900.857,477.053C937.369,460.962,927.253,493.037,900.857,477.053z"/>
	</g>
	<g filter="url(#h)">
		<path opacity="0.952" fill="#89B714" d="M915.904,487.688c23.305-2.328,10.763,13.437-2.914-1.291"/>
	</g>
	<g filter="url(#k)">
		<path opacity="0.4454" fill="#658314" d="M818.286,433.64l-11.549-13.067c2.087-23.341-16.768-60.183-21.66-64.981
			c12.438,21.345,19.604,44.194,20.31,64.483l-22.596-17.349c-2.907-22.611-21.851-46.329-29.077-58.945
			c8.823,13.831,26.804,43.936,26.687,57.806l-27.142-18.949c6.241-5.806-9.298-27.328-21.222-44.812
			c6.083,13.522,28.747,41.517,19.488,44.316l-50.394-29.206c55.713,33.99,71.104,42.911,105.103,70.283l9.879,10.522l-38.74,6.245
			c-6.694-4.996-7.878-12.404-48.235-34.379c-9.104-31.616-18.422-28.333-36.327-38.658c21.702,10.643,31.612,19.741,33.558,37.057
			l-55.274-24.682c44.453,20.571,76.749,34.104,102.956,60.697l-36.517,5.312c-25.064-22.623-53.668-28.268-80.681-41.548
			c26.905,14.133,57.716,22.521,79.12,41.823l-29.618,5.171c-45.338-26.196-43.394-14.097-65.089-21.146
			c20.439,6.775,33.837,1.602,62.258,21.916c0,0-51.647,3.7-78.33,27.983c26.759-20.288,67.495-26.344,105.199-30.757
			c-10.149,22.662-40.47,23.509-63.964,31.737c22.038-8.891,50.2-3.018,66.152-31.878c26.762-7.779,54.776-7.617,82.584-11.649
			l-27.149,37.238c-26.997,7.456-31.828,6.564-78.655,26.836c-12.544-9.401-18.979-5.594-27.742-6.178
			c9.063,0.947,17.262-1.01,26.415,6.731l-31.053,18.461c72.443-38.511,91.717-38.295,109.764-43.477l-29.945,42.608
			c-21.922-0.803-47.94,6.835-83.441,34.021c31.572-20.476,61.326-36.659,81.756-30.812l-26.868,32.988
			c-16.557,0.128-34.429,3.221-60.017,23.708c38.676-24.879,51.239-23.267,58.202-20.228l-19.322,21.958
			c-23.785,1.142-31.857,9.752-41.82,17.464c18.65-12.277,33.637-18.72,41.313-13.509L686.8,603.404
			c-11.254-2.7-15.822,1.101-21.342,3.977c8.762-2.674,18.534-6.315,18.738-0.798l-39.672,45.341l52.677-54.306
			c9.25-4.922-3.896,18.687-11.688,35.474c10.686-17.633,19.691-33.834,14.438-37.891l17.996-19.951
			c8.484,2.449-5.43,32.52-15.779,58.193c9.236-20.1,22.032-39.285,19.728-62.345l16.793-23.821
			c11.976,15.508-2.01,52.758-12.863,87.386c11.87-29.012,22.998-58.157,15.642-90.665l18.973-24.742
			c12.587,37.773,0.439,82.272-7.945,121.728c7.066-40.197,22.122-85.576,10.282-124.676l24.732-36.61
			c12.528,35.828,6.688,94.813,2.5,146.613c5.564-53.019,12.086-104.572,0.283-150.367l27.519-37.422l10.597,30.828
			c5.347,25.757,7.921,44.46,15.28,70.25c3.372,27.93,9.398,64.816,13.217,88.241l-11.743-87.149
			c27.804,13.051,29.468,37.097,44.03,54.325c-12.036-19.446-19.295-44.646-43.955-55.944l-7.965-30.831
			c16.484,9.817,22.364,13.756,31.491,21.249c6.522,11.022,17.349,26.757,33.24,44.988c-11.035-14.221-22.004-28.673-32.142-46.129
			c12.205,1.357,21.116,11.682,31.688,18.96c-8.521-7.537-17.039-17.664-33.834-21.178l-31.063-20.385l-5.718-33.699
			c48.15,29.396,54.905,37.635,84.1,61.558l-37.591-32.898c3.391-7.356,29.233,8.967,44.798,15.11
			c-15.032-6.917-38.362-22.854-46.44-16.529l-45.756-29.941l-10.63-30.757l19.499,4.437c17.083,5.888,32.224,15.317,47.727,24.37
			c15.126,14.687,31.444,30.173,49.412,42.906L905.205,483.7c8.766-7.53,21.571,3.556,31.896,6.671
			c-10.459-2.671-16.131-14.315-34.187-9.216l-13.572-13.121c-4.236-1.438,9.259-8.597,44.854,8.115
			c-7.692-1.41-22.036-18.145-49.08-10.899l-19.945-12.025c15.962-10.912,42.41-6.512,67.302-4.384
			c-28.223-5.338-54.108-5.566-69.054,3.224l-23.962-10.919c23.36-10.466,69.868-18.018,78.277-20.17l-23.337,3.374
			c-6.244,1.73,5.266-10.261,13.565-12.561c-4.51,0.634-12.037,1.808-18.074,13.691l-16.668,4.168
			c-7.861,2.598,6.709-10.752,13.093-17.897c-6.362,4.312-11.363,8.893-18.392,18.719l-13.676,3.642
			c7.097-11.365,15.032-22.252,27.195-29.398c-8.357,2.499-19.009,13.901-29.485,29.736l-15.663,6.337l-15.339-3.358L818.286,433.64
			z"/>
		<path opacity="0.2445" fill="none" stroke="#D7F08F" stroke-width="1.9765" d="M818.286,433.64l-11.549-13.067
			c2.087-23.341-16.768-60.183-21.66-64.981c12.438,21.345,19.604,44.194,20.31,64.483l-22.596-17.349
			c-2.907-22.611-21.851-46.329-29.077-58.945c8.823,13.831,26.804,43.936,26.687,57.806l-27.142-18.949
			c6.241-5.806-9.298-27.328-21.222-44.812c6.083,13.522,28.747,41.517,19.488,44.316l-50.394-29.206
			c55.713,33.99,71.104,42.911,105.103,70.283l9.879,10.522l-38.74,6.245c-6.694-4.996-7.878-12.404-48.235-34.379
			c-9.104-31.616-18.422-28.333-36.327-38.658c21.702,10.643,31.612,19.741,33.558,37.057l-55.274-24.682
			c44.453,20.571,76.749,34.104,102.956,60.697l-36.517,5.312c-25.064-22.623-53.668-28.268-80.681-41.548
			c26.905,14.133,57.716,22.521,79.12,41.823l-29.618,5.171c-45.338-26.196-43.394-14.097-65.089-21.146
			c20.439,6.775,33.837,1.602,62.258,21.916c0,0-51.647,3.7-78.33,27.983c26.759-20.288,67.495-26.344,105.199-30.757
			c-10.149,22.662-40.47,23.509-63.964,31.737c22.038-8.891,50.2-3.018,66.152-31.878c26.762-7.779,54.776-7.617,82.584-11.649
			l-27.149,37.238c-26.997,7.456-31.828,6.564-78.655,26.836c-12.544-9.401-18.979-5.594-27.742-6.178
			c9.063,0.947,17.262-1.01,26.415,6.731l-31.053,18.461c72.443-38.511,91.717-38.295,109.764-43.477l-29.945,42.608
			c-21.922-0.803-47.94,6.835-83.441,34.021c31.572-20.476,61.326-36.659,81.756-30.812l-26.868,32.988
			c-16.557,0.128-34.429,3.221-60.017,23.708c38.676-24.879,51.239-23.267,58.202-20.228l-19.322,21.958
			c-23.785,1.142-31.857,9.752-41.82,17.464c18.65-12.277,33.637-18.72,41.313-13.509L686.8,603.404
			c-11.254-2.7-15.822,1.101-21.342,3.977c8.762-2.674,18.534-6.315,18.738-0.798l-39.672,45.341l52.677-54.306
			c9.25-4.922-3.896,18.687-11.688,35.474c10.686-17.633,19.691-33.834,14.438-37.891l17.996-19.951
			c8.484,2.449-5.43,32.52-15.779,58.193c9.236-20.1,22.032-39.285,19.728-62.345l16.793-23.821
			c11.976,15.508-2.01,52.758-12.863,87.386c11.87-29.012,22.998-58.157,15.642-90.665l18.973-24.742
			c12.587,37.773,0.439,82.272-7.945,121.728c7.066-40.197,22.122-85.576,10.282-124.676l24.732-36.61
			c12.528,35.828,6.688,94.813,2.5,146.613c5.564-53.019,12.086-104.572,0.283-150.367l27.519-37.422l10.597,30.828
			c5.347,25.757,7.921,44.46,15.28,70.25c3.372,27.93,9.398,64.816,13.217,88.241l-11.743-87.149
			c27.804,13.051,29.468,37.097,44.03,54.325c-12.036-19.446-19.295-44.646-43.955-55.944l-7.965-30.831
			c16.484,9.817,22.364,13.756,31.491,21.249c6.522,11.022,17.349,26.757,33.24,44.988c-11.035-14.221-22.004-28.673-32.142-46.129
			c12.205,1.357,21.116,11.682,31.688,18.96c-8.521-7.537-17.039-17.664-33.834-21.178l-31.063-20.385l-5.718-33.699
			c48.15,29.396,54.905,37.635,84.1,61.558l-37.591-32.898c3.391-7.356,29.233,8.967,44.798,15.11
			c-15.032-6.917-38.362-22.854-46.44-16.529l-45.756-29.941l-10.63-30.757l19.499,4.437c17.083,5.888,32.224,15.317,47.727,24.37
			c15.126,14.687,31.444,30.173,49.412,42.906L905.205,483.7c8.766-7.53,21.571,3.556,31.896,6.671
			c-10.459-2.671-16.131-14.315-34.187-9.216l-13.572-13.121c-4.236-1.438,9.259-8.597,44.854,8.115
			c-7.692-1.41-22.036-18.145-49.08-10.899l-19.945-12.025c15.962-10.912,42.41-6.512,67.302-4.384
			c-28.223-5.338-54.108-5.566-69.054,3.224l-23.962-10.919c23.36-10.466,69.868-18.018,78.277-20.17l-23.337,3.374
			c-6.244,1.73,5.266-10.261,13.565-12.561c-4.51,0.634-12.037,1.808-18.074,13.691l-16.668,4.168
			c-7.861,2.598,6.709-10.752,13.093-17.897c-6.362,4.312-11.363,8.893-18.392,18.719l-13.676,3.642
			c7.097-11.365,15.032-22.252,27.195-29.398c-8.357,2.499-19.009,13.901-29.485,29.736l-15.663,6.337l-15.339-3.358L818.286,433.64
			z"/>
	</g>
</g>
</svg>
