<svg xmlns="http://www.w3.org/2000/svg" viewBox="0 0 768 430"><style>.a{fill:#FFF;}.b{fill:#BBE9ED;}.c{fill:#FC9;}.d{fill:#A9775D;}.e{fill:#825036;}.f{fill:#E5B27F;}.g{fill:#FF97AE;}.h{fill:#D87087;}.i{fill:#FFBED5;}.j{fill:#FFD889;}.k{fill:#E57D94;}.l{fill:#BE566D;}.m{fill:#FFB162;}.n{fill:#FF9D3B;}</style><path d="M291.5 191.2c-1.6 0.4-2 2.7-1.1 7.3 0.9 4.6 2.5 6.6 4.5 6.1 2-0.5 1.3-5.6 0.5-8.3C294.6 193.6 293.3 190.8 291.5 191.2z" fill="#C8F6FA"/><path d="M295.4 196.3c-0.8-2.6-2-5.3-3.7-5.1 -0.4 4.5 1.1 9.3 4.2 12.4C296.6 201.9 296 198.4 295.4 196.3z" fill="#A0E2E6"/><path d="M298 190.3c3.2 0.9 16.9-103 112.7-137.7 95.7-34.7 193.4 34 192 131.7 -1.4 98.4-91.7 133.3-152.8 129.1 -80.9-5.5-119.6-58.3-137.2-88.6 -7.7-13.2-12.4-20.9-13-20.5 -2 1.4-2.7 0.9-3.9-0.1 0 0 1.2-3.7-0.2-7.3 -1.1-2.8-1.8-4.7-1.8-4.7S294.2 189.2 298 190.3z" fill="#DFFBFE"/><path d="M514.8 145.9c4.5 3.3 9.8 5.4 15.4 6.8 1-7.3 2.6-14.5 4.8-21.5 -5.8-1.3-11.6-2.1-17.2-2.5C516.1 134.4 515.3 140.3 514.8 145.9z" class="a"/><path d="M524.9 113.8c-2.5 3-4.4 6.6-5.8 10.3 5.9 0.1 11.7 0.7 17.5 2 1.1-3 2-5.5 4.2-10.4C535.6 114.6 530.3 113.9 524.9 113.8z" class="a"/><path d="M534.6 153.8c5.1 1.1 10.3 1.8 15.3 2.8 2.9-5.5 5-11.3 6.4-17.3 -5.1-2.9-10.9-5.2-16.8-6.9C537.4 139.3 535.8 146.5 534.6 153.8z" class="a"/><path d="M558.8 122.6c-4.2-2.4-8.5-4.2-13-5.6 -1.7 3.3-3.1 6.8-4.4 10.3 5.6 1.6 11.1 3.8 16.1 6.7C558.1 130.3 558.6 126.5 558.8 122.6z" class="a"/><path d="M415.7 56.3c-20.1 7.3-36.4 17.9-49.4 29.9 10.8-4.5 52.6-39.9 132-17.4 55 15.5 65.3 36.4 88.7 68C565.4 69.8 489.9 29.4 415.7 56.3z" class="a"/><path d="M306.3 186.6c5.8-18.5 5.4-32.5 13.4-51.9 -11 21-16.4 39.9-19.2 49.3 -1.2 4.1-6.1 7.2-6.6 7.3 1.5 2.6 0.7 2.4 2.1 5.2C296.4 195 305.8 188.1 306.3 186.6z" class="b"/><path d="M562.3 244.4c-23.8 25.3-97.9 51.2-156.7 38.6 -48.3-10.3-84-56.7-92.2-65.5 -3.3-3.7-7.5-10.3-11.4-14.2 -2.3-2.3-5-3.1-5.7-3.2 0.1 2.2-0.5 3.9-0.5 3.9 0.6 0.5 3.4 1.5 6.7 5.1 3.1 3.4 6.5 9.1 10.2 15.5 17.6 30.2 56.4 83.1 137.2 88.6 61.1 4.2 151.3-30.7 152.8-129.1 0-2.2 0-4.5-0.1-6.7C595 202.3 580 225.5 562.3 244.4z" class="b"/><path d="M410.6 52.4c-34 12.3-61.6 34.8-82.1 66.8 -16.6 25.9-24.2 51.3-27.8 63.5 -1.2 3.9-5.1 7.2-5.9 7.7 -1 0.7-1.2 1.8-1.2 1.8 0 0 0 0.1 0 0.1l1.8 4.7c1.3 3.5 0.2 7.1 0.2 7.2 0 0.1 0 0.2 0.1 0.2 0.5 0.4 2.4 1.2 4.3 2.9 2.5 2.2 5.4 5.6 7.2 8.7 2.1 3.6 4.2 7.1 5.3 9 31.9 54.8 78.1 84.6 137.4 88.7 19 1.3 39.2-1.2 58.5-7.1 21.5-6.6 40.7-17.4 55.7-31.1 11.8-10.9 21.1-23.7 27.6-38.1 7.1-15.8 10.9-33.7 11.2-53 0.3-23.4-4.9-45.6-15.5-65.9 -10-19.1-24.7-35.9-42.6-48.6 -18.4-13.1-40.1-21.8-62.5-25C458.3 41.2 434.2 43.8 410.6 52.4zM297.8 188.3c1.5-1.6 2.7-3.9 3.3-5.6 3.6-12.2 11.2-37.5 27.7-63.4 20.5-31.9 48-54.3 81.9-66.6 23.5-8.5 47.5-11.1 71.5-7.6 22.4 3.2 44 11.8 62.3 24.9 17.8 12.7 32.5 29.4 42.4 48.5 10.6 20.2 15.8 42.3 15.5 65.7 -0.3 19.3-4 37-11.1 52.8 -6.5 14.3-15.7 27.1-27.5 38 -14.9 13.7-34.1 24.5-55.5 31 -19.3 5.9-39.4 8.4-58.4 7.1 -59.1-4-105.3-33.8-137.1-88.5 -2.1-3.5-3.8-6.5-5.3-9 -5.5-9.3-10.5-10.7-11.6-11.6 0.1-0.5 0.6-2.3 0.4-4.4 -0.1-0.9-0.3-1.9-0.6-2.9 0 0-1.6-4.1-1.8-4.6 0-0.1 0.2-1 1-1.5C295.2 190.5 296.6 189.6 297.8 188.3z" fill="#7AA8AC"/><path d="M291.2 190.3c-3.8 1.1-0.8 16.3 3.8 15.2C299.4 204.5 295.5 189 291.2 190.3zM294.5 204.1c-3.2 0.8-5.6-11.5-3-12.4C294.5 190.7 297.5 203.3 294.5 204.1z" class="a"/><path d="M291.2 190.1L291.2 190.1c-2.1 0.6-2.3 5.3-1.2 9.5 0.9 3.3 2.7 6.7 5.1 6.1 0.8-0.2 1.5-0.9 1.8-2.1 1-3.5-0.7-10.3-3.2-12.7C292.8 190.1 292 189.9 291.2 190.1zM293.3 191.2c2.4 2.3 4.1 9 3.1 12.3 -0.3 1-0.8 1.6-1.5 1.8 -2.1 0.5-3.8-2.8-4.6-5.8 -1-3.9-1-8.4 0.9-9l0 0C291.9 190.3 292.6 190.5 293.3 191.2z"/><path d="M291.4 191.5c-1.7 0.6-1.4 5.2-0.5 8.3 0.9 3.1 2.2 4.8 3.6 4.4l0 0c0.6-0.1 1-0.7 1.2-1.5 0.7-2.9-0.8-8.9-2.7-10.7C292.4 191.4 291.8 191.4 291.4 191.5zM291.3 199.7c-1-3.3-1.1-7.4 0.2-7.8 0.4-0.1 0.8 0 1.2 0.4 1.8 1.7 3.3 7.6 2.6 10.3 -0.2 0.7-0.5 1.1-0.9 1.2l0 0C293.1 204.2 292 202 291.3 199.7z"/><path d="M294.5 205.3l0.8 6.8c0.1 0.5 0.5 0.8 1 0.7s0.8-0.5 0.7-1l-1.5-6.7C295.4 204.7 294.4 204.9 294.5 205.3z" class="a"/><path d="M294.5 204.9c-0.2 0.1-0.2 0.3-0.2 0.5 0 0 0 0 0 0l0.8 6.8c0 0.3 0.2 0.5 0.4 0.7 0.2 0.2 0.5 0.2 0.8 0.2 0.3 0 0.5-0.2 0.7-0.4 0.2-0.2 0.2-0.5 0.2-0.8l-1.5-6.7c0-0.2-0.2-0.3-0.4-0.4C295.1 204.6 294.7 204.7 294.5 204.9zM295.8 212.5c-0.1-0.1-0.2-0.2-0.3-0.4 0 0-0.8-6.8-0.8-6.8 0 0 0 0 0-0.1 0.1-0.1 0.3-0.1 0.4-0.1 0.1 0 0.1 0.1 0.1 0.1l1.5 6.7c0 0.2 0 0.3-0.1 0.5 -0.1 0.1-0.2 0.2-0.4 0.3C296.1 212.7 295.9 212.6 295.8 212.5z"/><path d="M294.5 209.4c-0.1-0.6-0.6-2 0.9-2.2 1.5-0.2 1.5 0.9 1.6 1.8C297.1 209.9 294.7 210.4 294.5 209.4z" class="a"/><path d="M295.3 207c-0.4 0.1-0.8 0.2-1 0.5 -0.4 0.5-0.2 1.2-0.1 1.7l0 0.2c0 0 0 0 0 0 0 0.3 0.3 0.5 0.6 0.7 0.6 0.2 1.5 0.1 2-0.3 0.3-0.2 0.4-0.5 0.3-0.7l0-0.3C297 207.9 296.9 206.8 295.3 207zM294.7 209.1c-0.1-0.4-0.2-1 0-1.3 0.1-0.2 0.4-0.3 0.7-0.3 1-0.1 1.2 0.4 1.3 1.3l0 0.3c0 0.1 0 0.2-0.2 0.3 -0.4 0.3-1.1 0.4-1.5 0.3 -0.2-0.1-0.3-0.2-0.3-0.3 0 0 0 0 0 0L294.7 209.1zM294.7 209.4L294.7 209.4C294.7 209.4 294.7 209.4 294.7 209.4z"/><path d="M304 239.6c0.2 1.2-4.4 2-4.6 0.8l-5.1-31c-0.2-1.2 2.8-1.7 3.1-0.5L304 239.6z" fill="#D29E7D"/><path d="M295.6 208c-1.2 0.2-1.7 0.6-1.6 1.4l5.1 31c0 0.2 0.2 0.5 0.6 0.6 1.1 0.4 3.2 0 4.1-0.7 0.3-0.2 0.4-0.5 0.4-0.6 0-0.1 0-0.1 0-0.2l-6.7-30.7C297.4 208.1 296.7 207.8 295.6 208zM300 240.7c-0.2-0.1-0.3-0.2-0.3-0.3l-5.1-31c-0.1-0.4 0-0.7 1.2-0.9 1.1-0.2 1.4 0.1 1.4 0.5l6.7 30.7c0 0.1 0 0.2-0.2 0.4C302.8 240.6 300.9 241 300 240.7zM304.2 239.6L304.2 239.6 304.2 239.6 304.2 239.6z"/><path d="M296 238.8c0.8 5.7-16.1 9.5-21.2 12.2 -6.1 3-10.2-1.4-15-3.7 -2.1-1.4-4.9-4.7-4.1-8.2 2.1-0.1 11.1 1.8 12.7 1.7 0 0 19.4-1.8 22.1-6.1 0.1-0.1 0.1-0.2 0.2-0.4C293.6 234.7 295.6 235.8 296 238.8z" class="c"/><path d="M290.7 234.9c-2.8 4.3-21.8 6.1-22.3 6.2 0 0-11.6-1.8-12.7-1.7 0-0.1 0.1-0.3 0.1-0.4 1.1 0 12.7 1.7 12.7 1.7 0.1 0 19.3-1.8 22-6 0.1-0.1 0.1-0.2 0.1-0.3 0.1 0 0.3 0 0.4 0C290.9 234.6 290.8 234.8 290.7 234.9z"/><path d="M265 173c0 0 8.2-5.8 6.7-17.3 -1.5-11.5-7.9-10.8-7.9-10.8s-5.7-7-24.6-8.2c-14.9-1-31 3.8-43 16.8 -17.4 19.1-12.5 39.9-10.6 45.4 4.4 12.8 20.9 29.3 43.3 27.8 2.3-0.2 3.2 0.9 3.8 3.2 0.1 0.3 16-3.7 17.6-12.4 3.2-17.9-1.1-29.8 3.9-37.3C259.2 172.6 265 173 265 173z" class="d"/><path d="M193.9 186.9c1.7-4 7.5-2 11.3-0.8 0.1-6.2 6.9-8.6 10.4-5.6 7.2 6.7-0.2 15.4-3.7 22.8 -1.7 4 3.3 8 7.8 9.7 2.4 0.2 6.4-1.2 4.6-4.5 -3.1-3.7-8.3-5.4-7.6-11.1 2 4.6 6.7 9.4 12.5 8.3 -1.9-4-4.8-6.5-6.1-10.6 2.9 2.6 5.3 9.5 9.7 6.9 0.6-0.1-0.4-2.4-1.2-3.5 -3.1-3.7-4.5-5.5-4.7-10.4 1.3 4.1 7.2 10.7 8.4 7.4 3.6-9.9-5.4-19.9 0.4-31.1 0.7 7.3-0.7 22.6 5.6 14.4 4.2-10 4.5-18.5 4.3-29.5 2.4 6.3 4 9.9 2.3 19.3 0 0 1.4 1 1.9 0.3 4.4-5.7 6.1-12.8 6.1-19.6 3.7 3.6 0.8 10.9 4.1 12.8 2.7 1.4 4.4-5.7 5.6-9 1.3 4.1 0.9 8.4 2.3 12.5 0.2 1.2 1 1.9 1.9 2 -2 3.7-4.6 5.5-4.6 5.5s-5.8-0.4-10.8 7.2c-5 7.6-0.6 19.4-3.9 37.3 -1.6 8.7-17.5 12.7-17.6 12.4 -0.6-2.3-1.5-3.3-3.8-3.2 -22.3 1.5-38.8-15-43.3-27.8 -0.3-1-0.7-2.4-1.1-4.1C188.1 192.4 192.5 191.1 193.9 186.9z" class="e"/><path d="M184.1 193.5c0.4 2.4 1 4.3 1.4 5.5 2.2 6.4 7.5 13.8 15 19.3 7.5 5.6 17.3 9.3 28.5 8.6 1.1-0.1 1.8 0.1 2.4 0.6 0.5 0.5 0.9 1.3 1.2 2.4 0 0.1 0.1 0.1 0.1 0.1l0.1 0h0.1c0.1 0 0.2 0 0.3 0 1.2-0.2 5.1-1.3 9-3.4 3.9-2.1 7.6-5.1 8.4-9.1 1.6-9 1.3-16.4 1.3-22.6 -0.1-6.1 0.1-11 2.6-14.7 3.5-5.2 7.3-6.6 9.3-7 0.6-0.1 1.1-0.1 1.3-0.1 0.1 0 0.1 0 0.1 0l0.1 0 0.1 0c0 0 2.1-1.5 4-4.4 1.9-2.9 3.6-7.3 2.8-13.1 -0.1-0.5-0.1-0.9-0.2-1.3 -0.9-5.1-2.9-7.5-4.6-8.7 -1.5-1-2.8-1-3.2-1 -0.6-0.7-6.7-7-24.6-8.2 -4.5-0.3-9.2-0.1-13.8 0.8 -10.6 1.9-21 7-29.3 16.1C182.4 168.5 182.5 184.6 184.1 193.5zM184.5 193.4c-1.6-8.8-1.7-24.8 12-39.8 8.3-9.1 18.6-14.1 29.1-16 4.6-0.8 9.2-1.1 13.7-0.8 17.7 1.1 23.7 7.3 24.4 8 0 0 0.1 0.1 0.1 0.1l0.1 0.1 0.1 0 0.1 0c0 0 0.1 0 0.2 0 0.2 0 0.4 0 0.7 0.1 0.6 0.1 1.3 0.3 2.2 0.9 1.6 1.1 3.5 3.4 4.5 8.4 0.1 0.4 0.1 0.9 0.2 1.3 0.7 5.3-0.7 9.4-2.4 12.3 -1.7 2.8-3.7 4.4-4.1 4.8 0 0 0 0 0 0 -0.2 0-0.6 0-1.4 0.1 -2.1 0.4-6 1.8-9.5 7.1 -2.5 3.8-2.7 8.7-2.6 14.9 0.1 6.1 0.3 13.6-1.3 22.5 -0.7 3.9-4.4 6.8-8.2 8.9 -3.8 2-7.8 3.1-8.9 3.4 -0.1 0-0.1 0-0.2 0 -0.3-1.1-0.7-1.9-1.3-2.4 -0.6-0.6-1.5-0.8-2.6-0.7 -11.1 0.8-20.8-3-28.2-8.5 -7.4-5.5-12.7-12.8-14.9-19.2C185.4 197.7 184.9 195.8 184.5 193.4z"/><path d="M219.5 156.9c-2.2 4.8-3.3 9.6-2.9 15.3 -3.6-7-3.8-10.9 1.3-20 1.1 1.5-0.2 2.5 2.2 3.7 1.2-4.1 4.5-7.7 7.6-9 -5.2 7.1-6 16.8-5.8 25.5C217.7 166.7 219.4 162.6 219.5 156.9z" class="e"/><path d="M202.1 157.5c-6.8 6.8-6.2 21.8-2.2 29.8 -3.3-3.9-5.5-9.4-5.5-15.1 -1.6 5.3-2 12.1-0.1 17.2 -3.9-4.9-4-11.2-3.5-17.5C191.8 166.7 196.3 157.4 202.1 157.5z" class="e"/><path d="M263.9 163.1c0 0 3.1 3.6 3.9 10.9 0.8 7.4 4.1 11.9 6.4 11.6 2.3-0.3 1.9-0.6 4-1.3 2.4-0.7 3.2 4.6 1.3 6.1 0 0 0.7 2.2 1.9 1.9 1.3-0.3 4 3.6 1 5.4 0 0 3.8 3.5 0.5 5.6 -3.3 2.1 1 10.9-10.3 19.6 -11.3 8.7-19.3 0-18.9 14.3 0.4 14.3-10.9 11.1-12.4 6.8 -1.5-4.3-3.1-15.1-7.1-18.5 0 0-8.6-1.4-9-10.1 0-4.9 3.5-5.6 3.5-5.6s2.6 0.3 3.9-0.1c1.3-0.3-1-2.7-1.8-3.7 0 0 3.4 0.5 4.3-1.6 1.1-2.3-1.6-4.9-1.8-5.4 0 0 3.4 0.1 4.4-2.1 0.5-1 1.1-2.5 0.4-4.8 -0.3-1.1-0.5-2.4-0.5-3.8 0-6.2 8-11.3 8.5-16.9 0 0 9.3-0.3 10-6.1C256.3 165.2 261.8 168.3 263.9 163.1z" class="c"/><path d="M278.1 189.5c-0.3-1.5 1.2-2.4 1.8-4.2 0.8 1.5 0.7 4.2-0.5 5.1 0 0 0 0.1 0.1 0.2C278.7 190.6 278 190.4 278.1 189.5z" class="f"/><path d="M283.7 194.9c0.2 1 0 2.1-1.3 2.9 0 0 0.6 0.6 1.2 1.4 -1.2-0.8-2.6-1-4.4-0.7C280.5 197.2 283.1 197.1 283.7 194.9z" class="f"/><path d="M284.2 201.8c-0.1 0.6-0.5 1.1-1.3 1.6 -0.5 0.3-0.9 0.8-1.1 1.5 -0.5-1-0.9-1.4-1.2-2.4C281.6 202.3 283.2 202.9 284.2 201.8z" class="f"/><path d="M225.3 217.1c0.7 3.7 2.9 5.8 5 7 1.9 1.1 3.6 1.5 3.9 1.5 1.9 1.7 3.4 5.2 4.4 8.8 1.1 3.7 1.9 7.4 2.6 9.6 0.4 1.2 1.5 2.2 2.8 2.9 1.3 0.7 3 1 4.5 0.8 1.5-0.3 2.9-1.1 3.9-2.8 1-1.7 1.6-4.2 1.5-7.7 -0.1-3.7 0.4-5.9 1.3-7.1 0.9-1.3 2.3-1.7 4.2-2 0.9-0.2 2-0.3 3.1-0.5 2.9-0.5 6.4-1.5 10.3-4.5 5-3.8 6.9-7.7 7.9-11 0.9-3.3 0.8-6 1.5-7.6 0.2-0.4 0.5-0.8 0.9-1 0.6-0.4 1-0.9 1.2-1.3 0.2-0.5 0.2-1 0.1-1.5 -0.2-0.8-0.6-1.6-1-2.2 -0.3-0.3-0.5-0.6-0.7-0.8 0.5-0.4 0.9-0.8 1.1-1.2 0.2-0.5 0.2-1.1 0.1-1.6 -0.2-1.2-1-2.2-1.7-2.6 -0.3-0.1-0.5-0.2-0.8-0.2l0 0 0 0c-0.2 0-0.4 0-0.6-0.1 -0.2-0.1-0.4-0.3-0.5-0.5 -0.3-0.4-0.5-0.9-0.6-1.1 0.4-0.4 0.7-1 0.9-1.7 0.2-0.7 0.2-1.5 0-2.3 -0.1-0.7-0.4-1.3-0.7-1.8 -0.4-0.5-0.9-0.7-1.5-0.6 -0.1 0-0.1 0-0.2 0.1 -0.9 0.3-1.4 0.5-1.8 0.7 -0.4 0.2-0.8 0.3-1.5 0.5 -0.2 0-0.4 0.1-0.6 0.1 -0.5 0.1-1-0.1-1.5-0.5 -0.6-0.4-1.1-1-1.7-1.8 -1.1-1.6-2.1-4.1-2.7-7.1 -0.1-0.6-0.2-1.3-0.3-2 -0.1-0.7-0.2-1.4-0.3-2.1 -1.1-6-3.6-8.9-3.6-8.9l-0.2-0.2 -0.1 0.3c-0.8 1.9-1.9 2.6-3.1 2.8 -1.8 0.3-3.7-0.6-4.2-0.8 -0.1 0-0.1-0.1-0.1-0.1l-0.2-0.1 0 0.3c-0.2 1.9-1.4 3.2-2.9 4.1 -1.5 0.9-3.3 1.4-4.7 1.6 -1 0.2-1.8 0.2-2.1 0.3 -0.1 0-0.2 0-0.2 0l-0.2 0 0 0.2c-0.3 2.7-2.4 5.4-4.4 8.1 -2.1 2.8-4.1 5.6-4.1 8.8 0 0.8 0.1 1.6 0.2 2.4 0.1 0.5 0.2 1 0.3 1.4 0.1 0.3 0.1 0.5 0.2 0.8 0.3 1.8-0.2 3-0.6 3.9 -0.6 1.2-2 1.7-3.1 1.9 -0.5 0.1-1 0.1-1.1 0.1 -0.1 0-0.1 0-0.1 0l-0.3 0 0.1 0.2c0.1 0.2 0.2 0.3 0.3 0.5 0.2 0.2 0.4 0.5 0.6 0.8 0.4 0.6 0.9 1.4 1 2.3 0.1 0.5 0.1 1.1-0.2 1.7 -0.4 0.9-1.3 1.3-2.2 1.5 -0.8 0.1-1.5 0.1-1.8 0.1 -0.1 0-0.2 0-0.2 0l-0.4-0.1 0.3 0.4c0.3 0.4 0.8 0.9 1.2 1.5 0.4 0.6 0.8 1.2 0.9 1.5 0 0.1 0 0.2 0 0.3 0 0.1-0.1 0.1-0.2 0.1 -0.1 0-0.2 0-0.3 0.1 -1 0.2-2.5 0.1-3.2 0.1 -0.2 0-0.4 0-0.4 0l0 0 0 0c0 0-0.9 0.2-1.8 1 -0.9 0.8-1.8 2.3-1.8 4.8l0 0v0C225.1 216 225.2 216.6 225.3 217.1zM246.4 171.5c0.3 0 1.1-0.1 2.2-0.3 1.4-0.3 3.2-0.7 4.8-1.7 1.5-0.9 2.7-2.2 3-4.1 0.6 0.3 2.4 1.1 4.3 0.8 1.2-0.2 2.5-1 3.3-2.8 0.1 0.1 0.1 0.2 0.2 0.3 0.3 0.4 0.6 0.9 1 1.6 0.8 1.5 1.7 3.7 2.2 6.6 0.1 0.7 0.2 1.3 0.3 2.1 0.1 0.7 0.2 1.4 0.3 2 0.8 4.7 2.7 7.9 4.5 9.2 0.6 0.4 1.2 0.6 1.8 0.5 0.2 0 0.4-0.1 0.6-0.1 0.8-0.1 1.2-0.3 1.6-0.5 0.4-0.2 0.8-0.4 1.8-0.7 0.1 0 0.1 0 0.2 0 0.5-0.1 0.8 0.1 1.2 0.5 0.3 0.4 0.6 1 0.7 1.6 0.1 0.7 0.1 1.5 0 2.1 -0.1 0.7-0.4 1.2-0.8 1.6l-0.1 0.1 0 0.1c0 0 0.1 0.3 0.3 0.7 0.2 0.4 0.5 0.8 0.9 1.1 0.3 0.2 0.6 0.3 0.9 0.2l0 0h0l0 0 0 0c0.1 0 0.3 0 0.5 0.1 0.2 0.1 0.4 0.3 0.6 0.5 0.4 0.5 0.8 1.1 0.9 1.8 0.1 0.5 0.1 0.9-0.1 1.4 -0.2 0.4-0.5 0.9-1.1 1.2l-0.2 0.1 0.2 0.2 0.1 0.1c0 0 0.1 0.1 0.2 0.2 0.1 0.2 0.3 0.4 0.5 0.6 0.4 0.5 0.8 1.3 1 2 0.1 0.4 0.1 0.8-0.1 1.3 -0.2 0.4-0.5 0.8-1.1 1.2 -0.4 0.3-0.8 0.7-1 1.2 -0.2 0.5-0.4 1-0.5 1.7 -0.2 1.3-0.4 2.8-0.7 4.6 -0.7 3.5-2.5 7.8-8.1 12.2 -3.8 2.9-7.2 3.9-10.1 4.4 -1.1 0.2-2.2 0.3-3.1 0.5 -1.9 0.3-3.4 0.8-4.4 2.2 -1 1.4-1.5 3.6-1.4 7.3 0.1 3.5-0.5 5.9-1.5 7.5 -1 1.6-2.3 2.4-3.7 2.6 -1.5 0.3-3-0.1-4.3-0.7 -1.3-0.7-2.3-1.7-2.6-2.7 -0.7-2.1-1.5-5.9-2.6-9.6 -1.1-3.7-2.5-7.3-4.6-9l0 0 0 0 -0.1 0c-0.1 0-0.1 0-0.2 0 -0.2 0-0.5-0.1-0.8-0.2 -0.7-0.2-1.7-0.6-2.7-1.2 -2-1.2-4.1-3.2-4.8-6.8 -0.1-0.5-0.2-1.1-0.2-1.7 0-2.2 0.7-3.6 1.5-4.4 0.8-0.8 1.6-1 1.8-1.1l0 0c0.3 0 2.3 0.2 3.6 0 0.1 0 0.2 0 0.3-0.1 0.2-0.1 0.3-0.2 0.4-0.3 0.1-0.2 0.1-0.3 0.1-0.5 -0.1-0.5-0.5-1.1-1-1.7 -0.3-0.4-0.7-0.8-0.9-1.2 0.4 0 1 0 1.7-0.1 0.9-0.2 2-0.6 2.4-1.7 0.3-0.6 0.3-1.3 0.2-1.9 -0.2-1.4-1.2-2.6-1.7-3.2 -0.1-0.1-0.1-0.2-0.2-0.2 0.2 0 0.6 0 1-0.1 1.1-0.2 2.6-0.7 3.3-2.1 0.4-0.9 1-2.2 0.6-4.1 0-0.3-0.1-0.5-0.2-0.8 -0.1-0.4-0.2-0.9-0.3-1.4 -0.1-0.7-0.2-1.5-0.2-2.3"/><path d="M263.4 194.6c0.4 0.9 0 1.3-0.6 2 -1.1 1.5-3.4 1.8-4.3 0.4 -1-1.8 1.3-3.3 3-3.3C262.3 193.7 263 194 263.4 194.6z" fill="#FFDEBB"/><path d="M266 185.3l2.4 0.1c-5.5 7.6-12 5-12 5C263.6 191.3 265.6 186.4 266 185.3z"/><path d="M280.5 198c0.7-0.1 1.4-0.2 2-0.4 0 0.1 0.1 0.2 0.1 0.3C281.4 198.1 280.5 198 280.5 198z"/><path d="M266.9 185.8l-0.7 0.7c-3.5-4.2-3.1-9.1-3.1-9.1C263.6 182.7 266 185.7 266.9 185.8z"/><path d="M251.3 178.2c0 0 1.1-6.5 6.5-5.7 0 0-0.1-1.4-1.7-1.3C254.5 171.4 250.3 173.6 251.3 178.2z"/><path d="M251.9 170c0 0 0 0 0 0C251.8 170 251.8 170 251.9 170z"/><path d="M251.9 170c0 0 0 0 0 0C251.9 170 251.9 170 251.9 170z"/><path d="M254.2 168.5c1.2-1.3 1.9-3.6 2.3-6.3 0.7-3 0.9-8.6 0.9-9.9 0.1 1 0.6 5.1-0.2 9.9 -0.6 3.2-1.8 5.6-3.1 6.7 -1.2 0.9-2.1 1-2.3 1.1C252.1 169.9 253.2 169.7 254.2 168.5z"/><path d="M263.9 162.4c1.1-2.2 0.7-6.1 0.7-7 0.1 0.7 1.3 3.5-0.2 7 -0.5 1.1-1.2 2.2-1.9 3 -0.1-0.1-0.2-0.1-0.3-0.2C262.9 164.4 263.5 163.4 263.9 162.4z"/><path d="M245.2 174.1c0.8-2.3 1.4-5.6 1.6-9.3 0.3-4-0.1-11.4-0.2-13.1 0.2 1.4 1 6.7 0.7 13.1 -0.2 8.9-3.9 12.8-3.9 12.7C243.3 177.5 244.4 176.4 245.2 174.1z"/><path d="M235.1 176.1c-0.8-6 0.3-10.8 0.3-10.8 -0.3-0.1-1.6 7.1-0.8 10.9 0.8 6.1 3.3 10.4 3.2 10.4C238 186.6 236.1 183 235.1 176.1z"/><path d="M233.6 198.8c-4.7-4.7-6.4-8.2-6.5-8.1 0.1-0.1 2 4.6 6.5 8.8 0 0 0 0 0 0C233.7 199.3 233.7 199 233.6 198.8z"/><path d="M224.5 197.1c-0.1 0 2.1 4.5 6.5 8.6 0.1 0.1 0.2 0.2 0.3 0.3 -0.2 0-0.5-0.1-0.6 0.1C227.7 203.6 224.3 197.2 224.5 197.1z"/><path d="M219.3 201.5c-4.5-6.5-6-13-6-12.9 -0.2 0 2.5 9.3 5.7 13.2 4.6 7 11.6 8.2 11.4 8.1C230.5 209.6 224.7 209.1 219.3 201.5z"/><path d="M215.9 211.3c-4.8-3.5-6.8-8.2-6.7-8.2 -0.3 0.1 3.1 6.6 6.4 8.5 4.8 3.6 9.8 4.1 9.7 4.2C225.5 215.7 221.5 215.3 215.9 211.3z"/><path d="M230.7 224.1c0 0 0 0 0.1 0C230.7 224.1 230.7 224.1 230.7 224.1z"/><path d="M239.9 222.3c-0.3 0.8-1.4 2.9-4.1 3.5 -3.4 0.2-4.9-1.5-5.3-1.8 0.4 0.2 2.5 1.7 5.2 1.3C237.5 225.3 239.4 223.1 239.9 222.3z"/><path d="M221 156.5c0.6-2 1.9-4.7 3.5-6.6 1.2-1.5 2.5-2.5 3-2.8 -0.9 0.7-4.5 4-6 9.6 -1.9 7.4-0.8 11.8-1 11.8C220.5 168.5 219.1 163 221 156.5z"/><path d="M215.7 160.7c0.6-4 2.2-6.9 2.2-6.8 -0.2-0.1-2.5 4.2-2.7 6.7 -0.7 4 0.1 7.3 0 7.3C215.4 167.9 215 165.3 215.7 160.7z"/><path d="M195.6 171c0.1-2.5 1-6.1 2.4-8.7 1.1-2.1 2.3-3.6 2.8-4.1 -0.9 1-4.4 5.8-4.8 12.8 -0.2 9.2 2.7 14 2.4 14C198.6 185.1 195.2 179.2 195.6 171z"/><path d="M191.9 170.8c0.5-2.5 1.8-6 3.7-8.4 1.3-1.8 2.7-3 3.4-3.5 -1.3 1.1-5.4 5.2-6.7 12 -1.5 9.3 0.5 14.6 0.2 14.6C192.7 185.6 190.3 179 191.9 170.8z"/><path d="M211.1 195.7c0 0-4.9 10.5 3.7 20.7 8.7 10.3 14.2 19.8 3.2 33.2 0 0-2.6 3-8.9 2.4 0 0-1-6.8-10.7-12.7 -7.1-4.3-14-11-15.8-21 -1.9-10.2 1-23.4 13.7-26.7C196.4 191.7 210.7 188.3 211.1 195.7z" class="d"/><path d="M196.4 191.7c0 0 14.4-3.3 14.8 4 0 0-3.4 7.2 0.4 15.5 -1.8-1.7-3.2-4.1-4.3-6.2 -0.7-1.3-2.1-1.6-2.1-1.1 -5.5 13.2 2.7 26.6 9.2 37.4 -12.8-6-16.4-20.2-16.6-33.4 0.2-1.9 2.5-5.1 0-6.2 -1.3-0.9-3.6 0.4-4.6 2.4 0.5-2.1 4.1-9.8 2.2-10.3 -2.7-1-8.3 5.8-10.7 7.4C186.8 196.8 190.5 193.2 196.4 191.7z" class="e"/><path d="M218.5 247.2c-0.1-15.6-5-26.6-10.7-34.7C216.6 222.3 222.4 231 218.5 247.2z" class="e"/><path d="M216.3 246.7c0.3 0.6 0.7 1.2 1 1.8C217 247.9 216.6 247.3 216.3 246.7z" class="d"/><path d="M194.3 221.1c-3.8-9.6-1.5-24 6.6-30.1 1.1-0.1 3.6 0.7 4.7 0.7C195.7 196.6 192.2 209.8 194.3 221.1z" class="e"/><path d="M203.2 226c3.6 7.1 8.6 12.3 11.4 16.6 3.2 4.2 3.2 7.7 3.2 7.6 0.1 0.1 0.1-3.5-3.1-7.8 -2.8-4.3-7.7-9.5-11.3-16.6 -8-14.8-0.3-28.3-0.6-27.7 0 0-1.8 2.7-2.8 7.9C198.9 211.2 199.4 218.9 203.2 226z"/><path d="M193.1 205.1c-1.8 6.9 0.9 12.4 0.7 12.3 0.3 0-2.2-5.5-0.5-12.3 1.8-6.8 6.7-10 6.6-10C200.1 195.1 195 198.2 193.1 205.1z"/><path d="M217 229.7c-3-9.4-7.8-15.6-7.8-15.6 -0.2 0.1 4.5 6.4 7.5 15.7 3.1 9.3 1.9 17.4 1.8 17.4C218.8 247.3 220.1 239.1 217 229.7z"/><path d="M184.1 224.3c4.1 10.6 14.1 14.1 18.8 18.6 5.2 4.5 6.1 9.2 6.2 9.1 0 0.1-0.7-4.7-6-9.4 -4.8-4.7-14.6-8.3-18.5-18.5 -3.7-10-2.2-20.7 2.2-26 4.3-5.4 8.8-6.3 8.6-6.5 0.1 0-4.4 0.8-8.9 6.2C181.9 203.2 180.3 214.2 184.1 224.3z"/><path d="M192.7 196c-9.3 19-3.7 27 3.9 33.5 5.2 4.5 10.9 12.1 14 16.4 -9-11.7-21.5-15.5-25.2-26.8C180.6 204.8 192.7 196 192.7 196z" fill="#C39177"/><path d="M221.2 226.2c4.4 6.4 3.1 13.8 0.5 17.8 -2.3 4.3-4.3 6.5-4.2 6.6 0 0 2.1-2.2 4.5-6.4 2.7-4 4.1-11.8-0.4-18.3 -4-6.4-8.4-11.4-10.2-16 -2.1-4.5-1.8-7.6-1.8-7.6 -0.2-0.1-0.6 3.2 1.4 7.7C212.8 214.7 217.3 220 221.2 226.2z"/><path d="M205.7 188.6c0 0 2-9.4 7.6-6.8 6.7 3.1-0.9 19.2-3.7 20.1 -2.9 0.9-13.9-4-14.5-10.2C194.5 185.5 201.3 184.1 205.7 188.6z" class="g"/><path d="M197.6 186.5c-2.6 5.4 3 11.3 8.1 12.3 2.5 0.5 4.8 0.2 7-0.7 -1.2 2.1-2.4 3.6-3.2 3.9 -2.9 0.9-13.9-4-14.5-10.2C194.8 189 195.9 187.3 197.6 186.5z" class="h"/><path d="M209.7 181.7c-2.6 1.4-3.7 5.4-4 6.6 -2.5-2.4-5.8-3.2-8.2-1.9 -1.8 0.9-2.7 2.9-2.5 5.4 0.2 2.4 2 4.9 5 7 3.4 2.4 7.9 4 9.7 3.4 2-0.6 6.3-8.4 6.6-14.2 0.2-3.1-0.8-5.3-2.8-6.2C212.1 181 210.8 181 209.7 181.7zM200.1 198.4c-2.9-2.1-4.6-4.4-4.9-6.7 -0.2-2.3 0.6-4.1 2.3-4.9 2.3-1.2 5.7-0.4 8 2.1 0.1 0.1 0.1 0.1 0.2 0.1 0.1 0 0.1-0.1 0.1-0.2 0-0.1 1.1-5.2 3.9-6.7 1-0.5 2.2-0.5 3.4 0 1.9 0.9 2.7 2.8 2.6 5.8 -0.3 5.6-4.4 13.3-6.3 13.9C208 202.2 203.8 200.9 200.1 198.4z"/><path d="M206.3 188.9c0 0 1.4-7.2 6.2-6.3C217.3 183.6 209.4 183 206.3 188.9z" class="i"/><path d="M231.2 231.2c0 0-1.2-1.3-0.8-2.3 0.4-0.9 4.2-2.4 8.7-1s10.7 7 13.5 8.8c2.8 1.7 8.7 7.2 9.6 8 1 0.9 1.9 5.3 0.9 5.1 -1-0.1-12.7-11.8-20.5-13.9C234.9 233.8 231.2 231.2 231.2 231.2z" class="j"/><path d="M230.1 229.5c0 0.5 0.3 1 0.5 1.3 0.2 0.4 0.4 0.6 0.4 0.6l0 0 0 0c0 0 3.7 2.6 11.5 4.8 3.2 0.9 7.2 3.5 10.8 6.2 3.6 2.7 6.8 5.5 8.4 6.9 0.5 0.4 0.8 0.6 1.1 0.8 0.1 0 0.1 0.1 0.2 0.1l0.1 0c0.1 0 0.3-0.1 0.3-0.2 0.1-0.1 0.1-0.2 0.2-0.3 0.1-0.2 0.1-0.6 0.1-0.9 -0.1-1-0.4-2.4-0.9-3.4 -0.2-0.3-0.3-0.6-0.5-0.8 -0.4-0.4-2.1-2-4.1-3.6 -1.9-1.7-4.1-3.5-5.5-4.4 -1.4-0.9-3.6-3-6.3-4.6 -2.7-1.7-4.9-3.4-7.2-4.1 -1.9-0.6-3.8-0.5-5.1-0.4 -0.9 0.1-2.3 0.4-2.8 0.6 -0.5 0.2-0.9 0.5-1 0.9C230.1 229.1 230.1 229.3 230.1 229.5zM230.6 229.4c0-0.1 0-0.3 0.1-0.4 0.1-0.2 0.3-0.4 0.8-0.6 0.5-0.2 1.9-0.6 2.7-0.6 1.2-0.1 3-0.2 4.9 0.4 2.2 0.7 4.4 2.4 7.1 4.1 2.7 1.7 4.9 3.8 6.3 4.6 1.4 0.8 3.5 2.6 5.5 4.3 1.9 1.7 3.6 3.2 4.1 3.6 0.1 0.1 0.3 0.3 0.4 0.6 0.1 0.3 0.3 0.6 0.4 1 0.2 0.7 0.4 1.6 0.4 2.2 0 0.2 0 0.5 0 0.6 0 0.2-0.1 0.3-0.1 0.3l0 0h0l0 0 0 0c0 0-0.1-0.1-0.2-0.1 -0.1-0.1-0.3-0.2-0.5-0.4 -0.4-0.3-1-0.8-1.7-1.4 -1.4-1.1-3.2-2.7-5.2-4.3 -4-3.2-8.9-6.7-12.9-7.8 -7.2-2-10.9-4.4-11.3-4.7l0 0 0 0c0 0 0-0.1-0.1-0.1 -0.1-0.1-0.2-0.2-0.3-0.4C230.8 230.2 230.6 229.8 230.6 229.4z"/><path d="M269.4 384.5c0 0 3.3 9.1-6.4 11.1 -14.3 2.9-28.4 0.1-28.4-12.6C234.6 383.1 258.9 395.1 269.4 384.5z" class="a"/><path d="M269.3 384.4c-10.3 10.3-34.4-1.4-34.6-1.5 0 0-0.1 0-0.1 0 0 0-0.1 0.1-0.1 0.1 0 3.7 1.2 6.7 3.5 9 4.7 4.6 14 6.1 25.1 3.8 3.2-0.7 5.3-2.1 6.4-4.4 1.5-3.2 0.2-6.8 0.1-7 0-0.1-0.1-0.1-0.1-0.1C269.4 384.3 269.3 384.3 269.3 384.4zM238.1 391.8c-2.2-2.2-3.3-5-3.3-8.4 2.4 1.1 24.5 11.2 34.5 1.5 0.1 0.5 0.5 1.9 0.4 3.6 0 0.9-0.2 1.9-0.6 2.8 -1 2.2-3.1 3.6-6.2 4.2C252 397.7 242.7 396.3 238.1 391.8z"/><path d="M266.6 344.3c0 0-17 22.2-8.1 29.4 5.6 4.5 18.1 12.8 5.2 17.1 -13.8 4.7-32-0.1-28.7-11.3 3.3-11.2 5.3-16.1 4.1-30.2C239.1 349.3 262.5 348.8 266.6 344.3z" class="c"/><path d="M255.8 368.7c0-0.5 0-1 0-1.5 0.4-7.2 7.2-18.7 9.7-21.9 -5.9 3.6-24.5 4.2-26.2 4.2 0.3 4.2 0.4 7.5 0.3 10.5 -0.2 4.7-1.1 8.4-2.3 12.7 -0.1-0.1-0.1-0.3-0.2-0.4 1.9-6.9 2.8-12.2 1.9-23 0-0.1 0-0.1 0-0.1 0 0 0.1-0.1 0.1-0.1 0.2 0 23.3-0.6 27.4-5 0.1-0.1 0.2-0.1 0.2 0 0.1 0.1 0.1 0.2 0 0.3 -0.1 0.1-11.3 15.7-10.6 24.3 0.1 1.7 0.7 3.1 1.8 4.2 -0.1 0-0.2 0.1-0.3 0.1C256.5 371.8 256 370.4 255.8 368.7z"/><path d="M239.4 360.2c5 3.2 11.7 4.7 17.3 3.1 -0.7 3.4-0.7 8.3 1.9 10.4 5.6 4.5 18.1 12.8 5.2 17.1 -13.8 4.7-32-0.1-28.7-11.3C237.4 371.8 239 367.1 239.4 360.2z" class="a"/><path d="M256.5 363.5c-5.5 1.5-12.1 0-17-3 -0.3 4.6-1.1 8.3-2.4 12.5 -0.1-0.1-0.2-0.2-0.3-0.3 1.2-4.2 2.1-7.9 2.3-12.6 0-0.1 0-0.1 0.1-0.1 0 0 0.1 0 0.1 0 4.9 3.2 11.6 4.7 17.2 3 0.1 0 0.1 0 0.1 0 0 0 0.1 0.1 0 0.2 -0.7 3.3-0.6 7.7 1 9.5 -0.1 0-0.2 0.1-0.3 0.1C256.3 371.5 255.5 368.5 256.5 363.5z"/><path d="M237.3 371.9c0.7 1.6 2 3 3.9 3.2 6.5 0.7 12.9-4.2 16.1-2.6 0.3 0.4 0.7 0.8 1.2 1.2 2.3 1.9 6.2 4.2 8.6 6.8 3.4 3.7 4.2 7.8-3.3 10.3 -13.8 4.7-32-0.1-28.7-11.3C235.9 376.7 236.7 374.2 237.3 371.9z" class="k"/><path d="M242.3 388.2c9.1 3.3 18.7 3.6 26.4-0.7 -0.8 1.3-2.4 2.5-5 3.4 -13.8 4.7-32-0.1-28.7-11.3 0 0 0-0.1 0-0.1C237 382.9 238.2 386.7 242.3 388.2z" class="l"/><path d="M250.7 373.4c-3 1.6-6 2-9.4 1.6 -2.3-0.3-3.4-2.1-3.8-3.1 0-0.1-0.1-0.1-0.1-0.1 -0.1 0-0.1 0.1-0.1 0.1l-1.5 5.1 -0.8 2.6c-0.8 2.8-0.4 5.4 1.4 7.6 4.5 5.6 17.1 7.4 27.5 3.9 3.5-1.2 5.4-2.9 5.7-5.2 0.6-4.7-5.9-8.3-10.9-12.2 -0.4-0.3-0.8-0.7-1.2-1.2C255.8 371.6 253.3 371.9 250.7 373.4zM236.5 386.8c-1.2-1.5-1.8-3.2-1.7-5.1 0-0.7 0.2-1.4 0.4-2.1l0.8-2.6c0 0 1.2-4 1.4-4.7 0.6 1.1 1.7 2.7 3.9 3 3.5 0.4 6.6 0 9.6-1.6 2.5-1.4 5-1.7 6.4-1.1 0.3 0.4 0.7 0.9 1.2 1.2 3.1 2.5 11.5 7.3 10.7 11.9 -0.3 2.1-2.1 3.8-5.5 4.9C253.4 394.1 241 392.4 236.5 386.8z"/><path d="M259.5 381.2c-0.9 1-2.2 0.9-3.1-0.1 -0.8-1-0.8-2.6 0-3.6 1.1-1.3 2.3-2.1 3.4-2.7 1.3 1.1 3.7 2.4 5.1 3.8C263.9 378.7 261.3 379.2 259.5 381.2z" class="a"/><path d="M255.6 379.3c0 0.7 0.2 1.4 0.7 1.9 0.5 0.6 1.1 0.9 1.7 0.9 0.6 0 1.2-0.3 1.6-0.8 1.7-1.9 4.4-2.4 5.4-2.5l0.4 0 -0.3-0.3c-1.4-1.5-3.8-2.7-5.1-3.8l-0.1-0.1 -0.1 0.1c-1.1 0.6-2.3 1.5-3.4 2.7C255.9 377.9 255.6 378.6 255.6 379.3zM256 379.3c0-0.6 0.2-1.2 0.6-1.7 1.1-1.2 2.2-2 3.2-2.6 1.2 1 3.4 2.1 4.7 3.4 -1.1 0.2-3.6 0.8-5.2 2.6 -0.4 0.4-0.9 0.6-1.3 0.6 -0.5 0-1-0.2-1.4-0.7C256.2 380.5 256 379.9 256 379.3z"/><path d="M236.1 392.6c0 0-0.9 9.9-10.4 5.8 -14-6-25.4-16.8-20.1-27.7C205.6 370.7 222.3 395.5 236.1 392.6z" class="a"/><path d="M205.6 370.5c0 0-0.1 0-0.1 0.1 -1.5 3.1-1.8 6.4-0.7 9.7 2.2 6.8 10 13.7 20.9 18.3 3.1 1.3 5.7 1.3 7.6-0.1 2.6-1.9 3-5.7 3-5.9 0-0.1 0-0.1 0-0.2 0 0-0.1-0.1-0.1 0 -13.5 2.8-30.1-21.6-30.3-21.9C205.7 370.5 205.7 370.5 205.6 370.5zM235.9 392.8c-0.1 0.8-0.7 3.8-2.8 5.4 -1.8 1.3-4.3 1.3-7.3 0 -10.8-4.6-18.5-11.4-20.7-18.1 -0.5-1.5-0.7-3-0.6-4.5 0.1-1.6 0.5-3.1 1.2-4.6C207.3 373.4 222.9 395.3 235.9 392.8z"/><path d="M248 345.8c0 0-21.1 17.5-16.1 29 3.1 7.2 9.8 23.8-3.5 19.9 -14.3-4.2-28.6-19.1-20.9-26.8 7.7-7.7 10.7-13.1 15.5-26.1C223 341.9 242.4 347.3 248 345.8z" class="c"/><path d="M231 370.3c0.5-10.1 13.6-21.8 16.4-24.2 -6.1 0.9-22.7-3.6-24.3-4 -3.7 9.8-6.3 15.4-11 21.1 0-0.1-0.1-0.3-0.1-0.4 4.7-5.7 7.2-11.2 10.9-21 0-0.1 0.1-0.1 0.2-0.1 0.2 0.1 19.4 5.4 24.9 3.9 0.1 0 0.1 0 0.2 0.1s0 0.2-0.1 0.2c-0.2 0.2-19.2 16.1-16.5 27.3 -0.1 0-0.2 0-0.3 0C231 372.4 230.9 371.4 231 370.3z"/><path d="M207.5 368c5-5 8-9.1 10.9-14.9 4.1 5.3 9.8 8.8 15.5 9 -2.4 4.3-3.7 8.9-2 12.8 3.1 7.2 9.8 23.8-3.5 19.9C214.1 390.5 199.8 375.6 207.5 368z" class="a"/><path d="M231.2 373.3c0.1 0 0.2 0 0.3 0 -0.7-3.1 0.1-6.8 2.5-11.1 0-0.1 0-0.1 0-0.2 0-0.1-0.1-0.1-0.1-0.1 -5.5-0.2-11.1-3.5-15.4-9 0 0-0.1-0.1-0.1-0.1 0 0-0.1 0-0.1 0.1 -1.9 3.9-3.9 7-6.5 10.2 0.1 0.1 0.1 0.2 0.2 0.3 2.7-3.2 4.6-6.3 6.5-10.1 4.3 5.4 9.8 8.6 15.2 8.9 -1.6 3-2.5 5.7-2.7 8.2C230.9 371.4 231 372.3 231.2 373.3zM233.9 362.2c0 0 0 0 0 0C233.9 362.2 233.9 362.2 233.9 362.2z"/><path d="M212.5 362.4c-0.1 1.8 0.7 4.1 2.3 5.4 5.5 4.5 14.2 2 16.5 5.3 0.1 0.6 0.3 1.1 0.5 1.7 3.1 7.2 9.8 23.8-3.5 19.9 -14.3-4.2-28.6-19.1-20.9-26.8C209.5 366 211 364 212.5 362.4z" class="k"/><path d="M207.5 368c0.3-0.3 0.5-0.5 0.8-0.8 -0.1 6.1 0.2 12.2 5.1 17 6.6 6.5 14.6 9.1 22.5 8.9 -0.9 2-3.1 3-7.4 1.7C214.1 390.5 199.8 375.6 207.5 368z" class="l"/><path d="M212.4 362.2l-2 2.3c-0.9 1.1-1.9 2.2-3 3.3 -1.9 1.9-2.6 4.3-2 7.2 1.6 7.6 12.1 16.7 23 19.9 3.6 1.1 6.1 0.7 7.3-1.1 2.5-3.7-0.9-12.6-3.6-19 -0.2-0.5-0.4-1.1-0.6-1.7 -1.1-1.6-3.6-1.9-6.6-2.2 -3.3-0.4-7.1-0.8-10-3.1 -1.7-1.4-2.3-3.6-2.3-5.3 0-0.1 0-0.1-0.1-0.2C212.5 362.2 212.5 362.2 212.4 362.2zM228.5 394.5c-10.8-3.1-21.2-12.1-22.7-19.6 -0.2-0.8-0.2-1.5-0.2-2.3 0.1-1.8 0.8-3.3 2.1-4.6 1.1-1.1 2.1-2.3 3-3.3 0 0 1.4-1.6 1.8-2 0 1.6 0.6 3.8 2.4 5.2 3 2.4 6.8 2.8 10.1 3.2 2.9 0.3 5.3 0.6 6.3 2 0.1 0.6 0.3 1.2 0.6 1.8 1.4 3.3 4.7 10.9 4.5 15.8 -0.1 1.1-0.3 2.1-0.8 2.8C234.3 395.2 231.9 395.6 228.5 394.5z"/><path d="M229.6 381.9c-1.2 0.3-2.4-0.5-2.7-1.9 -0.3-1.4 0.4-2.8 1.6-3.1 1.5-0.4 2.9-0.5 4.2-0.3 0.7 1.8 1.5 3.8 2.2 5.9C233.9 381.9 232 381.2 229.6 381.9z" class="a"/><path d="M226.6 379.3c0 0.2 0 0.5 0.1 0.7 0.3 1.3 1.3 2.1 2.4 2.1 0.2 0 0.4 0 0.6-0.1 0.7-0.2 1.3-0.3 1.8-0.3 1.4 0 2.6 0.5 3.2 0.9l0.4 0.2 -0.2-0.5c-0.7-2.1-1.5-4.2-2.2-5.9l0-0.1 -0.1 0c-0.4-0.1-0.9-0.1-1.3-0.1 -0.9 0-1.9 0.1-2.9 0.4C227.3 377 226.6 378.1 226.6 379.3zM227 379.3c0-1.1 0.6-2 1.5-2.2 1-0.3 1.9-0.4 2.8-0.4 0.4 0 0.8 0 1.2 0.1 0.7 1.6 1.4 3.4 2 5.3 -0.7-0.3-1.7-0.7-3-0.7 -0.6 0-1.3 0.1-2 0.3 -0.1 0-0.3 0.1-0.4 0.1 -0.9 0-1.7-0.7-2-1.8C227.1 379.7 227 379.5 227 379.3z"/><path d="M216.1 280.4c0 0-6.9 1.9-15.6 18.7 -8.6 16.8-20.2 17.9-20.2 17.9s2.9 19.4 24.1 27.1c21.2 7.7 32.7 7.8 40.8 9.6 8.1 1.8 25-7.6 30.6-9 8.8-2.1 14.6-12.4 14.8-15.1 0.2-3.3-6.2-4.9-8.1-14 -1.9-9.3-8.2-26.3-17.6-28.7C253.3 283.9 239.3 297.4 216.1 280.4z" class="m"/><path d="M256.4 296.7c0.9 3.1 2.6 7.5 1 17.2 -0.5-6.4-1.7-15.8-4.1-17.4 -10.1-8.2-16.7 7.8-16.1 22.9 -3.4-6.1 2.1-22.1 0.6-23.2 -2.3-1.7-12.2 21.5-11.5 32.5 -3.2-11 1.4-21.2 3.8-26.5 4-8.8-6.4-12.4-10.3-9.6 -6.5 4.5-9.2 13.9-12.5 21.7 1.4-15.9 11.4-21.8 6.7-32.7 1.3-0.9 2-1.1 2-1.1 19.5 14.3 32.6 7 43.1 6.1C259.1 290.5 255 292.8 256.4 296.7z" class="n"/><path d="M258 314.4c0.1-2.4 0.1-4.8 0-7.3C258.3 309.4 258.3 312 258 314.4z" class="g"/><path d="M288.2 325.9c-2-2.1-4.7-4.9-5.8-10.3 -2.1-10.2-8.6-26.3-17.5-28.6 -3.8-1-7.8-0.2-12.5 0.8 -9.2 1.8-20.7 4.1-36.3-7.2 -0.6 0.2-7.3 2.8-15.4 18.6 -6.8 13.1-15.4 16.7-18.8 17.7 0-0.1-0.1-0.2-0.1-0.3 3.3-0.9 11.9-4.5 18.7-17.5 8.6-16.6 15.4-18.7 15.7-18.8 0 0 0.1 0 0.1 0 15.5 11.3 26.9 9.1 36.1 7.2 4.7-0.9 8.7-1.7 12.6-0.8 9.1 2.3 15.6 18.5 17.7 28.9 1.1 5.3 3.8 8.1 5.7 10.1 0.7 0.7 1.3 1.4 1.8 2 -0.1 0.1-0.2 0.2-0.2 0.2C289.5 327.3 288.9 326.7 288.2 325.9z"/><path d="M204.7 337.6c21.2 7.7 32.7 7.8 40.8 9.6 8.1 1.8 25-7.6 30.6-9 6.2-1.5 11-7.1 13.3-11.2 0.8 0.9 1.2 1.7 1.2 2.6 -0.1 2.7-6 13-14.8 15.1 -5.6 1.4-22.5 10.8-30.6 9 -8.1-1.8-19.6-1.9-40.8-9.6 -21.2-7.7-24.1-27.1-24.1-27.1s0.8-0.1 2.2-0.5C185.1 322.8 191.1 332.6 204.7 337.6z" fill="#FFF2A3"/><path d="M235.4 347.5c0.1-0.1 0.2-0.1 0.4-0.1C235.6 347.5 235.5 347.5 235.4 347.5z" class="i"/><path d="M183 323.1c18.6 24 53.4 26.6 53.4 26.6 11.1 1 16.5 3.5 31.7-4.5 6.9-3.6 15.2-3 20-11.4 0.9-1.8 1.5-3.8 2.1-5.8 0.3 0.5 0.5 1.1 0.5 1.7 -0.1 2.7-6 13-14.8 15.1 -5.6 1.4-22.5 10.8-30.6 9 -8.1-1.8-19.6-1.9-40.8-9.6 -15-5.4-20.8-16.7-22.9-22.9C182 322 182.5 322.6 183 323.1z" fill="#FFCB7C"/><path d="M182.5 316.3c-1.3 0.4-2.1 0.5-2.1 0.5 0 0-0.1 0-0.1 0.1 0 0 0 0.1 0 0.1 0 0.2 3.1 19.6 24.2 27.3 15.6 5.7 26 7.2 33.6 8.4 2.8 0.4 5.1 0.8 7.3 1.3 5.7 1.3 15.7-2.9 23-6 3.2-1.4 6-2.5 7.7-3 8.7-2.1 14.7-12.2 14.9-15.3 0.1-1.1-0.6-2-1.2-2.7 0 0-0.1-0.1-0.1-0.1 0 0-0.1 0-0.1 0.1 -2.5 4.4-7.2 9.7-13.2 11.1 -1.7 0.4-4.5 1.6-7.8 3 -7.2 3.1-17.2 7.3-22.8 6 -2.2-0.5-4.5-0.8-7.3-1.3 -7.6-1.1-17.9-2.7-33.5-8.4 -13.2-4.8-19.3-14.1-22.1-21C182.6 316.3 182.5 316.3 182.5 316.3zM268.5 341.4c3.2-1.4 6-2.5 7.7-3 5.9-1.4 10.7-6.6 13.2-11.1 0.7 0.9 1 1.6 1 2.3 -0.1 2.5-5.7 12.8-14.7 15 -1.7 0.4-4.5 1.6-7.8 3 -7.3 3.1-17.2 7.3-22.8 6 -2.2-0.5-4.5-0.8-7.3-1.3 -7.6-1.1-17.9-2.7-33.5-8.4 -19.9-7.2-23.6-25-23.9-26.8 0.3 0 1-0.2 1.9-0.5 2.9 7 9.1 16.2 22.3 21.1 15.6 5.7 26 7.2 33.6 8.4 2.8 0.4 5.1 0.8 7.3 1.3C251.2 348.7 261.2 344.4 268.5 341.4z"/><path d="M216.6 271.2c0 0-6.6 7.3-2.6 12.8 4 5.5 38.3 18.2 54.3 1.8 0 0 0.2-8-4-8.3C260.2 277.2 237.7 283.2 216.6 271.2z" fill="#C4D2F8"/><path d="M216.6 271.2c0 0-6.6 7.3-2.6 12.8 4 5.5 38.3 18.2 54.3 1.8 0 0 0.2-8-4-8.3C260.2 277.2 237.7 283.2 216.6 271.2z" class="k"/><path d="M264.3 277.5c-4.1-0.3-26.7 5.6-47.7-6.3 0 0-1.6 1.7-2.7 4.2 0.8 1.7 2.2 2.7 3.3 2.7 9.3 3.1 17 5.4 26.2 5.4 4.6-0.8 10 2.3 14.7 0.8 -3.1 7.7-11.6 9.3-18.5 6.9 -8.6-3.1-19.2-4.2-26.6-9.6 0.2 0.8 0.5 1.6 1.1 2.4 4 5.5 38.3 18.2 54.3 1.8C268.3 285.8 268.5 277.8 264.3 277.5z" class="h"/><path d="M216.5 271.1c-0.1 0.1-6.7 7.5-2.7 13 2.3 3.2 14.6 8.8 27.8 9.8 8.1 0.6 19.2-0.2 26.8-8 0 0 0.1-0.1 0.1-0.1 0-0.3 0.1-8.1-4.1-8.5 -0.8-0.1-2.2 0.1-4.2 0.3 -8.6 1-26.4 3-43.4-6.6C216.6 271 216.6 271 216.5 271.1zM260.2 278c2-0.2 3.4-0.4 4.2-0.3 3.7 0.3 3.8 7.2 3.8 8 -7.5 7.6-18.5 8.5-26.5 7.8 -13.1-1-25.2-6.5-27.5-9.7 -1-1.4-1.3-2.9-1.2-4.3 0.3-3.9 3.4-7.6 3.8-8.1C233.7 281.1 251.6 279 260.2 278z"/><path d="M266.9 278.2c-0.7-1.3-1.1-3.5-0.5-7.2 1-5.8 0.7-14.8-2.1-21 -0.6-1.4-11-11.6-17.9-16.3 -3.2-2.2-7.9-4.2-9.3-4.1 -14 0.5-18.6 17.5-18.9 26.8 -0.3 10.2-5.4 11.5-4.6 14.3 2.5 8.3 19.6 7.3 19.6 7.3 3.7 4 13.5 2.8 13.5 2.8 3.8 2 15.8 0.4 21-0.4C267.5 279.8 267.1 279 266.9 278.2z" class="m"/><path d="M266.9 278.2c-0.7-1.3-1.1-3.5-0.5-7.2 0.4-2.3 0.6-5.1 0.5-8 -1.7-1-3-2.3-3.8-4.1 -4.1-8.2-9.4-14.4-16.6-19.2 -7.1-4.8-18.2 0.8-19.2 7.9 -1.8 16.1 16.2 25.6 28.5 32.1 -7.5 0.3-14.7-4.5-19.3-10.1 1.4 3.1 1.5 6.4 4.8 8.1 -7.5 1.6-10.4-7.2-12.5-12.9 -3 3.3-0.3 7.7 1.7 10.8 -3.8-0.5-11-0.7-13-3.2 -1.8-2.1-2.5-3.2-2.1-6.1 -1.1 1.8-2.1 2.8-1.7 4.1 2.5 8.3 19.6 7.3 19.6 7.3 3.7 4 13.5 2.8 13.5 2.8 3.8 2 15.8 0.4 21-0.4C267.5 279.8 267.1 279 266.9 278.2z" class="n"/><path d="M237.2 229.4c-14.4 0.5-18.8 17.9-19.1 27 -0.2 6.1-2.2 9-3.4 11 -0.9 1.3-1.5 2.2-1.1 3.4 2.5 8.2 18.6 7.5 19.7 7.5 3.8 3.9 13 2.9 13.6 2.8 4 2 16 0.4 21-0.4 0.1 0 0.1-0.1 0.2-0.1 0-0.1 0-0.1 0-0.2 -0.4-0.8-0.7-1.6-0.9-2.3 0 0 0 0 0 0 -0.8-1.5-1-3.9-0.4-7 1-5.8 0.7-14.8-2.1-21.1 -0.7-1.4-11-11.6-17.9-16.4C243.3 231.3 238.6 229.4 237.2 229.4zM213.9 270.7c-0.3-1 0.3-1.8 1.1-3.1 1.3-2 3.3-4.9 3.5-11.2 0.3-9 4.5-26.1 18.7-26.6 1.3 0 6 1.9 9.1 4.1 6.7 4.6 17.2 14.9 17.8 16.2 2.9 6.2 3.1 15.2 2.1 20.9 -0.6 3.2-0.4 5.7 0.5 7.3 0 0 0 0 0 0 0.2 0.7 0.5 1.4 0.8 2.1 -5.1 0.8-16.8 2.3-20.6 0.4 0 0-0.1 0-0.1 0 -0.1 0-9.7 1.1-13.4-2.7 0 0-0.1-0.1-0.2-0.1C233.2 277.9 216.3 278.8 213.9 270.7z"/><path d="M243.2 278.5c-3-2.4-4.7-5.1-4.8-5 0 0 1.6 2.8 4.7 5.2 3 2.5 6.3 3 6.2 2.9C249.3 281.6 246.2 281 243.2 278.5z"/><path d="M231.1 275.1c-1.6-2.4-2.1-4.7-2.2-4.6 0 0 0.3 2.4 2 4.8 1.6 2.4 3.5 3.8 3.5 3.7C234.5 278.9 232.7 277.5 231.1 275.1z"/><path d="M218.5 259.6c0 0 0 0 0 0 0 0 0 0 0 0L218.5 259.6z" class="j"/><path d="M241.5 236.9c-7.4-0.5-13.9 5.2-14.4 12.8 -0.5 7.6 5.1 14.2 12.5 14.7 7.4 0.5 13.9-5.2 14.4-12.8C254.6 244 249 237.4 241.5 236.9z" fill="#D77E00"/><path d="M241.6 236.7c-7.5-0.5-14.1 5.3-14.6 12.9 -0.5 7.7 5.2 14.3 12.7 14.9 7.5 0.5 14.1-5.3 14.6-12.9C254.8 243.9 249.1 237.2 241.6 236.7zM239.7 264.2c-7.3-0.5-12.9-7-12.4-14.5 0.5-7.5 6.9-13.1 14.2-12.6 7.3 0.5 12.9 7 12.4 14.5C253.4 259 247 264.7 239.7 264.2z"/><path d="M256.7 303c1.1 4.9 0.7 9.1 0.9 9.1 0 0 0.4-4.2-0.7-9.2 -1-5-3.5-8.3-3.5-8.2C253.3 294.8 255.7 298.1 256.7 303z"/><path d="M237.6 304.6c-1.2 5.9-0.6 10.8-0.6 10.8 0.1 0-0.4-4.9 0.8-10.7 1.2-5.9 4.1-9.5 4.1-9.5C241.8 295.1 238.8 298.7 237.6 304.6z"/><path d="M228.1 306.9c-2.6 8.4-2.8 15.7-2.8 15.7 0.2 0.1 0.5-7.3 3-15.6 2.4-8.6 7.8-12.8 7.9-12.5C236.2 294 230.5 298.2 228.1 306.9z"/><path d="M214.1 295.9c-3.3 4.7-4.1 9.7-4.1 9.6 0.1 0.1 1-4.9 4.3-9.5 3.3-4.7 7.3-6.5 7.2-6.5C221.6 289.5 217.4 291.2 214.1 295.9z"/><path d="M247.7 241.2c2.1 0.3 3.7 0.9 6 1.4 3.7 0.7 7.6 1.8 12.5 1.3 10-0.8 20.5-5.3 22.3-6.7 0.8-0.7 5.4-8.3 8.4-11 0.3 0.9 0.5 2.4 0.7 3.5 3.8-3.1 4.1-2.8 6-0.6 0.7 0.8 1.7 1.9 2.8 3.2 1.5-0.3 2.8 1.9 2.1 3 0.5 0.9 0.9 1.8 1.3 2.7 1.4 0.5 1.3 2.1 0.7 2.8 0.2 2.2-0.4 4.5-2.5 6.6 -3.5 3.5-11.7 1.8-17.4 4 -4.1 1.6-12.2 6.7-20.9 9 -5.5 1.4-23.6 2.5-29.7 0.9 -10.5-2.7-13-19.1-1.6-20.4C241 240.5 244.5 240.6 247.7 241.2z" class="c"/><path d="M297.5 229.6c-0.2-1.1-0.4-2.6-0.7-3.5 -0.4 0.4-0.9 0.9-1.3 1.4 0.4 1.4 0.5 2.6 0.5 3.9 0.5-0.8 1.3-1.6 1.8-2.1C297.8 229.4 297.7 229.5 297.5 229.6z" class="f"/><path d="M296.8 226c-1.8 1.7-4.3 5.4-6.2 8.1 -1 1.5-1.9 2.7-2.2 3 -1.7 1.4-12.2 5.9-22.2 6.7 -7.2 0.6-15.9-2.5-19.5-2.9 -2.9-0.3-5.4-0.6-8.5-0.2 -4.5 0.5-7.3 3.4-7.6 7.8 -0.4 5.1 3 11.3 9.2 12.9 6.1 1.6 24.2 0.5 29.8-0.9 5.9-1.5 19.6-8.5 20.9-9 2.4-0.9 5.3-1.2 8-1.4 3.8-0.3 7.4-0.6 9.5-2.7 1.9-1.8 2.7-4.1 2.6-6.7 0.3-0.4 0.5-0.9 0.4-1.4 0-0.1 0-0.2 0-0.3 -0.1-0.6-0.5-1-1.1-1.2 -0.4-1-0.7-1.8-1.2-2.6 0.2-0.3 0.2-0.6 0.2-0.9 0-0.4-0.2-0.9-0.4-1.2 -0.4-0.6-1.1-1.2-2-1 -0.1-0.2-2.1-2.5-2.1-2.5l-0.6-0.7c-2-2.2-2.5-2.5-6 0.4 -0.1-0.3-0.1-0.8-0.1-0.8 -0.1-0.9-0.3-1.8-0.5-2.4 0-0.1-0.1-0.1-0.1-0.1C296.9 225.9 296.8 225.9 296.8 226zM288.6 237.3c0.3-0.3 1.1-1.4 2.2-3 1.7-2.5 4.1-6 5.9-7.8 0.2 0.6 0.3 1.3 0.4 2.1l0.1 1c0 0-0.3 0.3-0.5 0.6 -0.4 0.6-0.8 1.4-0.8 1.4 0 0 0.5-0.7 1-1.2 0.3-0.3 0.7-0.6 0.7-0.6 3.7-3 3.9-2.7 5.8-0.6 0 0 0.6 0.7 0.6 0.7l2.2 2.5c0 0.1 0.1 0.1 0.2 0.1 0.7-0.1 1.3 0.4 1.7 0.9 0.4 0.6 0.5 1.4 0.2 1.8 0 0.1 0 0.1 0 0.2 0.5 0.8 0.9 1.6 1.2 2.7 0 0.1 0.1 0.1 0.1 0.1 0.6 0.2 0.9 0.7 0.9 1 0.1 0.5 0 1.1-0.3 1.5 0 0-0.1 0.1 0 0.1 0.2 2.5-0.6 4.7-2.5 6.4 -2 2-5.5 2.3-9.2 2.6 -2.8 0.2-5.6 0.5-8.1 1.4 -1.3 0.5-15 7.5-20.9 9 -5.6 1.5-23.5 2.5-29.6 0.9 -6-1.6-9.3-7.6-8.9-12.6 0.3-4.2 3-7 7.3-7.5 3.1-0.3 5.5-0.1 8.4 0.2 3.6 0.4 12.3 3.5 19.5 2.9C276.3 243.2 286.9 238.7 288.6 237.3z"/><path d="M300.4 235.2c1 0.9 3.1 0.3 4.7-1.4 1.6-1.7 2.2-3.7 1.3-4.6 -0.9-0.9-3.1-0.3-4.7 1.4C300 232.3 299.5 234.4 300.4 235.2z" class="c"/><path d="M300.3 235.4L300.3 235.4c1 1 3.2 0.4 5-1.4 1.1-1.1 1.8-2.5 1.8-3.6 0-0.5-0.2-1-0.5-1.3 -0.3-0.3-0.8-0.5-1.3-0.5 -1.1 0-2.5 0.7-3.6 1.9C299.8 232.3 299.3 234.4 300.3 235.4zM305 233.7c-1.6 1.6-3.6 2.2-4.4 1.4l0 0c-0.9-0.8-0.3-2.8 1.3-4.4 1.1-1.1 2.4-1.7 3.4-1.7 0.4 0 0.8 0.1 1 0.4 0.3 0.2 0.4 0.6 0.4 1C306.7 231.4 306.1 232.6 305 233.7z"/><path d="M304.3 240.9c0.8 0.7 2.7 0 4.2-1.5s2-3.5 1.1-4.2c-0.8-0.7-2.7 0-4.2 1.5C303.9 238.3 303.4 240.1 304.3 240.9z" class="c"/><path d="M305.3 236.5c-1.6 1.7-2.1 3.6-1.1 4.5l0 0c0.9 0.8 2.9 0.1 4.4-1.6 1.6-1.7 2-3.6 1.1-4.5 -0.3-0.2-0.6-0.4-1.1-0.3C307.6 234.7 306.3 235.4 305.3 236.5zM304.4 240.7L304.4 240.7c-0.7-0.7-0.2-2.5 1.2-3.9 1-1 2.2-1.7 3.1-1.8 0.3 0 0.6 0.1 0.8 0.2 0.7 0.7 0.2 2.5-1.2 3.9C306.9 240.7 305.1 241.4 304.4 240.7z"/><path d="M306.3 245.8c0.8 0.7 2.5 0.2 3.9-1.2 1.4-1.4 1.9-3.1 1.2-3.8 -0.8-0.7-2.5-0.2-3.9 1.2C306 243.4 305.5 245.1 306.3 245.8z" class="c"/><path d="M306.1 245.9L306.1 245.9c0.3 0.3 0.6 0.4 1.1 0.4 0.9 0 2.1-0.6 3.1-1.5 1.5-1.5 2-3.3 1.2-4.1 -0.8-0.8-2.7-0.3-4.2 1.2C305.8 243.3 305.3 245.1 306.1 245.9zM310 244.5c-0.9 0.9-2 1.4-2.9 1.4 -0.3 0-0.6-0.1-0.8-0.3l0 0c-0.7-0.6-0.1-2.3 1.2-3.6 1.3-1.3 3-1.8 3.7-1.2S311.4 243.2 310 244.5z"/></svg>