<svg version="1.1" id="Layer_1" xmlns="http://www.w3.org/2000/svg" viewBox="0 0 768 430" enable-background="new 0 0 768 430" xml:space="preserve">
<g>
	<g>
		<g>
			<linearGradient id="SVGID_1_" gradientUnits="userSpaceOnUse" x1="315.6748" y1="287.4707" x2="452.3178" y2="287.4707">
				<stop  offset="0" style="stop-color:#FFD383"/>
				<stop  offset="0.5937" style="stop-color:#FFB872"/>
				<stop  offset="1" style="stop-color:#FFA364"/>
			</linearGradient>
			<path fill="url(#SVGID_1_)" d="M404.235,289.377c0.083-3.354,0.206-5.869,0.206-5.869h-21.996h-0.576h-21.996
				c0,0,0.176,3.595,0.248,7.925c4.726-0.782,36.133-5.979,36.714-5.979C397.164,285.453,400.821,287.461,404.235,289.377z"/>
			<linearGradient id="SVGID_2_" gradientUnits="userSpaceOnUse" x1="315.6729" y1="327.5" x2="452.3196" y2="327.5">
				<stop  offset="0" style="stop-color:#FFD383"/>
				<stop  offset="0.5937" style="stop-color:#FFB872"/>
				<stop  offset="1" style="stop-color:#FFA364"/>
			</linearGradient>
			<path fill="url(#SVGID_2_)" d="M457.191,335.18c-2.423-8.074-11.842-9.688-11.842-9.688s-25.413-7.532-29.336-9.689
				c-0.757-0.416-1.587-0.93-2.433-1.482c-0.013,1.23-0.184,1.989-0.599,1.959c-16.086-1.162-48.092-21.297-52.855-24.346
				c0.077,5.325-0.017,11.573-0.793,13.643c-1.438,3.836-7.111,8.07-11.033,10.227c-3.923,2.157-29.336,9.689-29.336,9.689
				s-9.419,1.613-11.841,9.688c-2.423,8.074-9.693,26.471-8.882,27.451c0.412,0.497,42.522,0.489,83.915,0.362
				c41.393,0.127,83.503,0.135,83.915-0.362C466.884,361.65,459.613,343.254,457.191,335.18z"/>
			<path opacity="0.8" fill="#EF843C" d="M359.507,291.534c0,0,0.229,0.149,0.62,0.399c-0.002-0.166-0.003-0.337-0.006-0.501
				C359.736,291.496,359.507,291.534,359.507,291.534z"/>
			<linearGradient id="SVGID_3_" gradientUnits="userSpaceOnUse" x1="315.6733" y1="300.8672" x2="452.3192" y2="300.8672">
				<stop  offset="0" style="stop-color:#FFD383"/>
				<stop  offset="0.5937" style="stop-color:#FFB872"/>
				<stop  offset="1" style="stop-color:#FFA364"/>
			</linearGradient>
			<path fill="url(#SVGID_3_)" d="M413.581,314.32c-3.53-2.314-7.44-5.649-8.601-8.744c-0.905-2.412-0.885-10.515-0.745-16.199
				c-3.414-1.916-7.071-3.924-7.4-3.924c-0.581,0-31.988,5.197-36.714,5.979c0.003,0.164,0.004,0.335,0.006,0.501
				c4.764,3.049,36.77,23.184,52.855,24.346C413.397,316.31,413.568,315.551,413.581,314.32z"/>
			<path opacity="0.5" fill="#EF843C" d="M413.581,314.32c-3.53-2.314-7.44-5.649-8.601-8.744
				c-0.905-2.412-0.885-10.515-0.745-16.199c-3.414-1.916-7.071-3.924-7.4-3.924c-0.581,0-31.988,5.197-36.714,5.979
				c0.003,0.164,0.004,0.335,0.006,0.501c4.764,3.049,36.77,23.184,52.855,24.346C413.397,316.31,413.568,315.551,413.581,314.32z"
				/>
		</g>
		<g>
			<g>
				<path fill="#FFBC64" d="M449.426,196.1c0,0,8.461-21.101,16.41-10.092c7.949,11.01-4.359,35.779-6.41,37.003
					s-8.205-4.587-8.205-4.587L449.426,196.1z"/>
				<path fill="#FFBC64" d="M316.078,198.459c0,0-8.463-21.102-16.412-10.092c-7.949,11.009,4.359,35.779,6.411,37.002
					c2.052,1.224,8.206-4.588,8.206-4.588L316.078,198.459z"/>
			</g>
			<linearGradient id="SVGID_4_" gradientUnits="userSpaceOnUse" x1="382.7207" y1="106.8643" x2="382.7207" y2="298.8263">
				<stop  offset="0" style="stop-color:#FFD383"/>
				<stop  offset="0.3124" style="stop-color:#FFCD7E"/>
				<stop  offset="0.7407" style="stop-color:#FFBB70"/>
				<stop  offset="1" style="stop-color:#FFAD64"/>
			</linearGradient>
			<path fill="url(#SVGID_4_)" d="M382.887,106.318v-0.004c-0.056,0-0.11,0.002-0.166,0.002c-0.055,0-0.109-0.002-0.164-0.002v0.004
				c-37.72-0.103-76.756,23.952-75.231,65.502c0.195,5.319,4.337,80.693,9.929,89.779c6.089,9.896,38.564,34.395,65.303,35.561
				v0.029c0.054-0.002,0.11-0.012,0.164-0.015c0.055,0.003,0.111,0.013,0.166,0.015v-0.029
				c26.736-1.166,59.213-25.665,65.303-35.561c5.592-9.086,9.732-84.46,9.928-89.779
				C459.643,130.27,420.605,106.215,382.887,106.318z"/>
			<path opacity="0.2" fill="#F39200" d="M405.384,109.146c19.509,11.872,33.454,32.354,32.532,59.864
				c-0.088,2.592,8.096,30.676-1.535,43.545c4.469,5.715-5.293,49.152-8.394,54.664c-3.676,6.535-16.985,18.867-32.825,27.915
				c23.569-6.222,47.795-25.126,52.969-33.534c5.592-9.086,9.732-84.46,9.928-89.779
				C459.277,138.619,434.594,116.607,405.384,109.146z"/>
			<path opacity="0.1" fill="#FFFFFF" d="M334.93,273.976c-7.374-5.391-12.886-10.661-14.969-14.044
				c-4.497-7.311-8.896-72.9-9.456-88.229c-0.722-19.647,8.274-36.667,24.737-48.066c-9.687,12.631-14.569,28.153-14,45.246
				c0.029,0.869,4.025,89.064,10.33,100.352C332.376,270.672,333.515,272.271,334.93,273.976z"/>
			
				<radialGradient id="SVGID_5_" cx="375.7148" cy="10387.4375" r="40.2731" gradientTransform="matrix(1 0 0 0.4476 0 -4406.2217)" gradientUnits="userSpaceOnUse">
				<stop  offset="0" style="stop-color:#FFFFFF"/>
				<stop  offset="0.0175" style="stop-color:#FFFDFA"/>
				<stop  offset="0.1726" style="stop-color:#FFE9D0"/>
				<stop  offset="0.3312" style="stop-color:#FFD9AE"/>
				<stop  offset="0.4917" style="stop-color:#FFCD93"/>
				<stop  offset="0.6547" style="stop-color:#FFC480"/>
				<stop  offset="0.822" style="stop-color:#FFBF75"/>
				<stop  offset="1" style="stop-color:#FFBD71"/>
			</radialGradient>
			<path opacity="0.31" fill="url(#SVGID_5_)" d="M365.35,242.064c12.249,4.262,36.062,0.949,37.647-0.984
				c-0.261-7.092-7.121-17.725-7.739-21.059c0,0-19.265-2.47-22.352,0C371.547,226.32,365.35,236.557,365.35,242.064z"/>
			<path fill="#EA9D49" d="M403.024,240.932c-3.156,0.764-17.646,4.227-37.675,1.133c-0.149,0.798,8.081,5.988,18.035,7.471
				C388.195,250.667,403.877,241.826,403.024,240.932z"/>
			<path opacity="0.3" fill="#DD9544" d="M395.841,242.322c1.44-0.746-1.243-20.574-0.845-20.973
				c2.783,6.561,6.361,8.399,8.028,19.582C400.59,241.876,398.077,242.123,395.841,242.322z"/>
		</g>
	</g>
	<linearGradient id="SVGID_6_" gradientUnits="userSpaceOnUse" x1="344.2031" y1="91.3657" x2="381.1319" y2="199.2701">
		<stop  offset="0" style="stop-color:#915418"/>
		<stop  offset="1" style="stop-color:#683C11"/>
	</linearGradient>
	<path opacity="0.2" fill="url(#SVGID_6_)" d="M438.891,152.382c-4.129-0.873-35.902,11.584-54.41,11.584
		c-0.404,0-13.734-0.827-19.158-1.938c-27.564-3.438-38.713-4.596-43.442-5.726c-2.394,3.127-4.329,7.147-4.69,8.366
		c-0.588,1.988,2.449,15.205,2.457,18.605c0.008,3.397-5.203,36.613-6.158,37.393c-0.307,0.249-2.209-0.068-2.727-0.111
		c0.052,0.576-0.053-0.277,0,0.299c1.013,0.473,4.144,0.918,4.722,0.447c0.955-0.779,5.762-32.509,5.754-35.908
		c-0.008-3.397-3.046-16.615-2.457-18.604c0.36-1.221,2.297-5.24,4.69-8.366c4.729,1.13,15.878,2.288,43.442,5.726
		c5.423,1.109,18.753,1.939,19.158,1.939c18.507,0,50.28-12.459,54.41-11.584c1.378,0.29,2.821,1.541,4.162,3.143
		C442.92,155.109,440.837,152.793,438.891,152.382z"/>
</g>
<g>

	<path fill="#3A3A3A" d="M392.925,194.492c0,0,24.446-3.172,48.46-1.45c5.505-1.886-28.152-7.038-32.27-6.501
		C404.997,187.077,396.955,190.23,392.925,194.492z"/>
	<path fill="#3A3A3A" d="M373.722,196.785c0,0-24.257-4.392-48.325-3.873c-5.404-2.158,28.469-5.621,32.554-4.879
		C362.036,188.774,369.91,192.326,373.722,196.785z"/>
	<path opacity="0.8" fill="#EF843C" d="M370.193,282.148c2.366-0.289,13.23-1.602,28.248-0.429c0.111-0.302-6.06-2.27-13.523-2.831
		C381.312,278.459,369.555,281.81,370.193,282.148z"/>
	<g>
		<g>
			<path fill="#3C3C3B" d="M332.999,210.055c-0.885-1.988-0.109-3.82,1.364-5.68c1.475-1.859,11.952-9.348,23.391-3.632
				c11.438,5.717,10.724,11.118,10.724,11.118S352.878,221.984,332.999,210.055z"/>
			<path fill="#FFFFFF" d="M333.91,211.004c-0.687-0.36-1.229-1.059-1.279-1.847c-0.082-1.325,0.629-2.593,1.732-3.875
				c1.475-1.713,11.952-8.61,23.391-3.345c11.438,5.265,10.724,10.24,10.724,10.24S353.353,221.219,333.91,211.004z"/>
			<radialGradient id="SVGID_7_" cx="350.3218" cy="207.9468" r="7.2388" gradientUnits="userSpaceOnUse">
				<stop  offset="0.5027" style="stop-color:#683C11"/>
				<stop  offset="0.603" style="stop-color:#7D4C0A"/>
				<stop  offset="0.7195" style="stop-color:#8F5A04"/>
				<stop  offset="0.8461" style="stop-color:#996101"/>
				<stop  offset="1" style="stop-color:#9C6400"/>
			</radialGradient>
			<circle fill="url(#SVGID_7_)" cx="350.322" cy="207.947" r="7.239"/>
			<circle fill="#1D1D1B" cx="350.294" cy="208.021" r="4.54"/>
			<circle fill="#FFFFFF" cx="353.971" cy="204.939" r="2.847"/>
		</g>
	</g>
	<g>
		<g>
			<path fill="#3C3C3B" d="M433.513,210.055c0.886-1.988,0.109-3.82-1.364-5.68s-11.951-9.348-23.391-3.632
				c-11.438,5.717-10.723,11.118-10.723,11.118S413.635,221.984,433.513,210.055z"/>
			<path fill="#FFFFFF" d="M432.132,211.248c1.294-0.662,2.017-2.248,1.503-3.632c-0.291-0.784-0.816-1.557-1.486-2.334
				c-1.474-1.713-11.951-8.61-23.391-3.345c-11.438,5.265-10.723,10.24-10.723,10.24S412.916,221.072,432.132,211.248z"/>
			
				<radialGradient id="SVGID_8_" cx="126.6436" cy="207.9468" r="7.2385" gradientTransform="matrix(-1 0 0 1 542.834 0)" gradientUnits="userSpaceOnUse">
				<stop  offset="0.5027" style="stop-color:#683C11"/>
				<stop  offset="0.603" style="stop-color:#7D4C0A"/>
				<stop  offset="0.7195" style="stop-color:#8F5A04"/>
				<stop  offset="0.8461" style="stop-color:#996101"/>
				<stop  offset="1" style="stop-color:#9C6400"/>
			</radialGradient>
			<circle fill="url(#SVGID_8_)" cx="416.19" cy="207.947" r="7.238"/>
			<circle fill="#1D1D1B" cx="416.218" cy="208.021" r="4.54"/>
			<circle fill="#FFFFFF" cx="419.678" cy="204.781" r="2.847"/>
		</g>
	</g>
	<path fill="#EF843C" d="M423.565,251.72c0.881,0.833,1.415,1.907,1.615,3.067c0.372-1.571,0.142-3.021-0.809-3.92
		c-0.95-0.899-2.411-1.049-3.959-0.589C421.583,250.414,422.686,250.887,423.565,251.72z"/>
	<path fill="#683C11" d="M418.975,254.482c0,0-32.975,1.736-69.638,2.82C348.687,259.906,379.058,294.834,418.975,254.482z"/>
	<path opacity="0.49" fill="#BE1622" d="M402.688,267.342c-3.836-2.492-11.178-4.182-19.616-4.182
		c-10.021,0-18.503,2.38-21.392,5.664C371.187,274.12,385.572,277.215,402.688,267.342z"/>
	<radialGradient id="SVGID_9_" cx="383.1377" cy="257.6582" r="32.4879" gradientUnits="userSpaceOnUse">
		<stop  offset="0" style="stop-color:#FFFFFF"/>
		<stop  offset="0.3442" style="stop-color:#FBFBFB"/>
		<stop  offset="0.6996" style="stop-color:#EEEEEE"/>
		<stop  offset="1" style="stop-color:#DEDEDE"/>
	</radialGradient>
	<path fill="url(#SVGID_9_)" d="M412.338,254.814c-10.756,0.525-33.385,1.564-58.4,2.347c4.887,2.899,15.219,3.342,27.615,3.342
		C397.078,260.503,410.211,258.918,412.338,254.814z"/>
</g>
<linearGradient id="SVGID_10_" gradientUnits="userSpaceOnUse" x1="295.8086" y1="341.6885" x2="470.0508" y2="341.6885">
	<stop  offset="0" style="stop-color:#5B777F"/>
	<stop  offset="0.2924" style="stop-color:#57767F"/>
	<stop  offset="0.5533" style="stop-color:#4D727F"/>
	<stop  offset="0.8013" style="stop-color:#3A6B7F"/>
	<stop  offset="1" style="stop-color:#26647F"/>
</linearGradient>
<path fill="url(#SVGID_10_)" d="M470.051,362.218c-0.27-2.21-1.656-6.272-4.885-15.347c-1.598-4.486-3.248-9.127-4.154-12.154
	c-2.765-9.211-12.506-11.538-14.137-11.865c-9.715-2.884-25.93-7.939-28.555-9.385c-1.283-0.705-2.645-1.59-3.938-2.545
	c-6.351,8.594-17.788,14.348-30.887,14.348c-13.376,0-25.028-5.997-31.288-14.893c-1.501,1.168-3.143,2.253-4.668,3.092
	c-2.624,1.443-18.838,6.499-28.553,9.383c-1.63,0.327-11.373,2.654-14.137,11.865c-0.906,3.024-2.556,7.66-4.152,12.144
	c-3.231,9.082-4.619,13.146-4.889,15.357h0.08c-0.001,0.03-0.017,0.06-0.017,0.089c0,5.906,38.99,10.693,87.089,10.693
	s87.09-4.787,87.09-10.693c0-0.029-0.016-0.059-0.018-0.089H470.051z"/>
<linearGradient id="SVGID_11_" gradientUnits="userSpaceOnUse" x1="352.1279" y1="74.4834" x2="392.1177" y2="191.3319">
	<stop  offset="0" style="stop-color:#915418"/>
	<stop  offset="1" style="stop-color:#683C11"/>
</linearGradient>
<path fill="url(#SVGID_11_)" d="M459.387,122.481C421.485,92,363.174,79.013,360.789,80.206c-2.386,1.193,1.192,9.343,1.192,9.343
	s-28.228-9.74-29.817-9.343c-1.591,0.398,8.945,12.126,8.945,12.126s-25.342-5.651-27.084-4.516
	c-1.74,1.136,9.988,11.076,9.988,11.076s-21.791-4.027-38.002,4.417c-0.267,0.811,21.502,5.324,21.502,5.324
	S284.543,119.838,280,126.153c0.32,0.393,25.525-2.612,25.525-2.612s-14.212,10.305-14.471,13.523
	c4.687,2.725,8.724,10.657,10.949,12.478c-0.039,0.214-0.064,0.471-0.094,0.714c-0.715,6.021,1.159,20.663,2.835,34.938
	c0.589,0.039,0.997,0.123,1.37,0.245c0.605,0.197,1.088,0.521,1.875,1.115c0.023,0.36,0.049,0.753,0.074,1.121
	c0.586,9.209,1.44,21.181,2.503,32.874c0.477,0.225,0.978,0.355,1.438,0.395c0.517,0.044,0.98-0.033,1.287-0.282
	c0.955-0.78,6.167-33.995,6.159-37.394c-0.008-3.4-3.046-16.617-2.457-18.605c0.36-1.219,2.297-5.238,4.69-8.366
	c4.729,1.131,15.878,2.288,43.442,5.726c5.423,1.111,18.753,1.938,19.158,1.938c18.507,0,50.28-12.456,54.41-11.584
	c1.946,0.411,4.028,2.728,5.753,5.265c2.676,3.197,4.922,7.818,5.315,9.143c0.587,1.988-2.449,15.205-2.457,18.604
	c-0.008,2.957,3.935,28.465,5.589,35.569c0.468,0.007,0.998-0.099,1.512-0.31c1.213-12.924,2.174-26.498,2.803-36.477
	c1.347-1.013,1.594-1.014,2.588-1.213c1.171-10.305,2.85-20.602,3.355-27.445C463.759,153.97,466.284,132.666,459.387,122.481z"/>
</svg>
