<svg xmlns="http://www.w3.org/2000/svg" viewBox="0 0 768 430"><style>.a{fill:#7CDCEB;}.b{flood-color:white;flood-opacity:1;}.c{stop-color:#FFF;}.d{stop-color:#FCFCFC;}.e{stop-color:#F2F2F2;}.f{stop-color:#E1E1E1;}.g{stop-color:#C9C9C9;}.h{stop-color:#ABABAB;}.i{stop-color:#858585;}.j{stop-color:#595959;}.k{stop-color:#272727;}.l{stop-color:#000;}</style><path d="M300.1 93.9v198.8c0 17 43.3 30.8 96.8 30.8 53.5 0 96.8-13.8 96.8-30.8V93.9H300.1z" fill="#009FE3"/><path d="M493.7 93.9c0 17-43.3 30.8-96.8 30.8 -53.4 0-96.8-13.8-96.8-30.8 0-17 43.3-30.8 96.8-30.8C450.4 63.1 493.7 76.9 493.7 93.9z" class="a"/><defs><filter filterUnits="userSpaceOnUse" x="306.5" y="119" width="72.9" height="169.4"><feFlood result="back" class="b"/><feBlend in="SourceGraphic" in2="back" mode="normal"/></filter></defs><mask maskUnits="userSpaceOnUse" x="306.5" y="119" width="72.9" height="169.4"><g filter="url(#Adobe_OpacityMaskFilter)"><defs><filter filterUnits="userSpaceOnUse" x="306.5" y="119" width="72.9" height="169.4"><feFlood result="back" class="b"/><feBlend in="SourceGraphic" in2="back" mode="normal"/></filter></defs><mask maskUnits="userSpaceOnUse" x="306.5" y="119" width="72.9" height="169.4"/><radialGradient cx="255.8" cy="166.3" r="144.1" gradientUnits="userSpaceOnUse"><stop offset="0.0022" class="c"/><stop offset="0.1667" class="d"/><stop offset="0.2971" class="e"/><stop offset="0.4159" class="f"/><stop offset="0.5278" class="g"/><stop offset="0.6349" class="h"/><stop offset="0.7384" class="i"/><stop offset="0.8389" class="j"/><stop offset="0.9347" class="k"/><stop offset="1" class="l"/></radialGradient><path mask="url(#SVGID_1_)" d="M379.4 132.7c0 0-47.6 64.6-44.1 155.6 -27.6-68-28.8-62.2-28.8-62.2V119C306.5 119 334.4 137.1 379.4 132.7z" fill="url(#SVGID_2_)"/></g></mask><path d="M379.4 132.7c0 0-47.6 64.6-44.1 155.6 -27.6-68-28.8-62.2-28.8-62.2V119C306.5 119 334.4 137.1 379.4 132.7z" class="a"/><rect x="472.8" y="269.5" width="134.6" height="130" fill="#F3903E"/><polygon points="607.4 269.5 516.6 221.8 359.5 221.8 472.8 269.5 " fill="#FBB925"/><polygon points="472.8 399.5 472.8 269.5 359.5 221.8 359.5 352.8 " fill="#FFE754"/><defs><filter filterUnits="userSpaceOnUse" x="362.7" y="227.8" width="99.2" height="121.7"><feFlood result="back" class="b"/><feBlend in="SourceGraphic" in2="back" mode="normal"/></filter></defs><mask maskUnits="userSpaceOnUse" x="362.7" y="227.8" width="99.2" height="121.7"><g filter="url(#Adobe_OpacityMaskFilter_2_)"><defs><filter filterUnits="userSpaceOnUse" x="362.7" y="227.8" width="99.2" height="121.7"><feFlood result="back" class="b"/><feBlend in="SourceGraphic" in2="back" mode="normal"/></filter></defs><mask maskUnits="userSpaceOnUse" x="362.7" y="227.8" width="99.2" height="121.7"/><radialGradient cx="326.3" cy="213.5" r="136.3" gradientUnits="userSpaceOnUse"><stop offset="0.0022" class="c"/><stop offset="0.1667" class="d"/><stop offset="0.2971" class="e"/><stop offset="0.4159" class="f"/><stop offset="0.5278" class="g"/><stop offset="0.6349" class="h"/><stop offset="0.7384" class="i"/><stop offset="0.8389" class="j"/><stop offset="0.9347" class="k"/><stop offset="1" class="l"/></radialGradient><path mask="url(#SVGID_3_)" d="M363.3 349.4c-0.5 1.6-0.6-121.7-0.6-121.7l99.2 41.7C461.9 269.4 395.1 251.3 363.3 349.4z" fill="url(#SVGID_4_)"/></g></mask><path d="M363.3 349.4c-0.5 1.6-0.6-121.7-0.6-121.7l99.2 41.7C461.9 269.4 395.1 251.3 363.3 349.4z" fill="#F2E7AD"/><path d="M336.9 319.8h0l-0.2-0.4c-0.1-0.3-0.2-0.5-0.4-0.8l-94.9-209.6 -96.1 209.5c-0.1 0.3-0.3 0.6-0.4 0.9l-0.2 0.4h0c-0.5 1.2-0.7 2.5-0.7 3.7 0 17 43.3 30.8 96.8 30.8 53.5 0 96.8-13.8 96.8-30.8C337.6 322.3 337.3 321 336.9 319.8z" fill="#E32A1D"/><defs><filter filterUnits="userSpaceOnUse" x="150.9" y="118.9" width="90.6" height="228.9"><feFlood result="back" class="b"/><feBlend in="SourceGraphic" in2="back" mode="normal"/></filter></defs><mask maskUnits="userSpaceOnUse" x="150.9" y="118.9" width="90.6" height="228.9"><g filter="url(#Adobe_OpacityMaskFilter_4_)"><defs><filter filterUnits="userSpaceOnUse" x="150.9" y="118.9" width="90.6" height="228.9"><feFlood result="back" class="b"/><feBlend in="SourceGraphic" in2="back" mode="normal"/></filter></defs><mask maskUnits="userSpaceOnUse" x="150.9" y="118.9" width="90.6" height="228.9"/><radialGradient cx="89.4" cy="196.6" r="188.4" gradientUnits="userSpaceOnUse"><stop offset="0.0022" class="c"/><stop offset="0.1667" class="d"/><stop offset="0.2971" class="e"/><stop offset="0.4159" class="f"/><stop offset="0.5278" class="g"/><stop offset="0.6349" class="h"/><stop offset="0.7384" class="i"/><stop offset="0.8389" class="j"/><stop offset="0.9347" class="k"/><stop offset="1" class="l"/></radialGradient><path mask="url(#SVGID_5_)" d="M241.5 118.9L150.9 321.3c0 0 26.5 28 87 26.3C193.3 287.7 241.5 118.9 241.5 118.9z" fill="url(#SVGID_6_)"/></g></mask><path d="M241.5 118.9L150.9 321.3c0 0 26.5 28 87 26.3C193.3 287.7 241.5 118.9 241.5 118.9z" fill="#DB7979"/></svg>