<svg version="1.1" id="Layer_1" xmlns="http://www.w3.org/2000/svg" xmlns:xlink="http://www.w3.org/1999/xlink" viewBox="0 0 768 430" xml:space="preserve">
<path fill="#0990D3" d="M499.8,146c-0.6-5-0.1-1.1,0.2,2.4C500.1,148.6,500,147.9,499.8,146z M500,148.4
	c-0.4-0.8-6.1-31.2-15.9-36.4c-4.5-2.3-9.3-2.6-14.199-3.3c-4.301-0.6-7.601-4.2-8.601-8.7c-0.8-3.4-1.3-6.7-2.2-9.9
	c-0.899-3-2.1-5.7-4.399-8.1c-4-4.1-9-6-14.2-6.8c-2.2-0.3-4.5-0.4-6.8-0.4c-1.5,0-3.101,0-4.601,0c-4.699,0.1-9.3,0.2-14,0
	c-6.6-0.3-12.5-3.6-18.399-6.5c-3.3-1.6-6.9-2.5-10.5-2.3c-1.7,0.1-3.4,0.5-5,1c-8,2.4-14.4,8.8-20.8,14.8
	c-3.9,3.7-8.2,6.8-13.2,7.6c-2.1,0.4-4.3,0.5-6.5,0.2c-2.2-0.3-4.3-0.9-6.4-2c-7-3.6-11.7-2.3-19.5,1.5c-9.2,4.6-15.7,9-18.9,18.7
	c-0.8,2.4-2.1,4.5-3.6,6.3c-1.8,2.2-3.9,4-6.3,5.3c-1.4,0.9-2.7,1.8-4,2.6c-4.1,1.4-7.6,4.3-10.2,8c-1.6,2.3-2.7,4.9-3.3,7.8
	c-2.3,10.8,4.4,20.2,12.8,25c10.4,6,20.4,12.7,27.5,23c0.9,1.2,1.7,2.5,2.6,3.8c0.8,1.301,1.6,2.601,2.4,4c1.1,1.9,2.3,3.5,3.7,5
	c1.5,1.5,3.2,2.7,5.3,3.5c2.8,0.9,5.6,0.801,8.3,0.2c0.9-0.2,1.8-0.5,2.7-0.8c0.8-0.3,1.5-0.6,2.2-1c2.6-1.3,4.8-3.2,7.3-4.7
	c3.7-2.3,8.9-2.8,12,0.7c0.7,0.7,1.3,1.6,1.8,2.5c2.5,4.9,5.3,9.6,9.8,12.3c1,0.601,2,1,3,1.3c9.3,2.601,20.4-5.3,29.4,1.7
	C410,222.6,412.9,237.4,409.9,250.5c-0.301,1.4-0.801,2.9-1.301,4.3c-0.699,2.101-1.6,4.101-2.5,6.2c-0.5,1.1-1.1,2.2-1.699,3.3
	c-0.601,1.101-1.101,2.3-1.601,3.4c-3.3,7-5.899,15.6-1.6,23.1c3.6,6.2,10.1,9.101,16.6,8c7.101-1.3,12.4-8.2,12.5-15.899
	c0.101-1.601,0-3.2-0.2-4.9c-0.8-6.6-3.5-13.4-5.199-19.2c-0.301-1.1-0.601-2.2-0.9-3.3s-0.6-2.2-0.8-3.2
	c-0.4-1.8-0.9-3.6-1.3-5.399c-0.4-1.801-0.801-3.601-1.2-5.4c-0.3-1.3-0.5-2.7-0.8-4.1c-0.2-1.4-0.5-2.7-0.7-4.101
	c-1.5-8.7-0.9-19.1,6.7-24.7c2.699-2,5.899-2.699,8.899-1.5c1,0.4,1.601,1.101,2.2,2c2.3,4.101,2.3,8.9,3,13.7
	c0.6,3.9,1.8,7.9,5.1,10c1.301,0.9,2.801,1.101,4.2,0.8c1.4-0.3,2.8-1,3.8-2.1c0.601-0.6,1.2-1.2,1.7-1.9
	c0.5-0.699,0.9-1.399,1.3-2.1c2.101-3.9,3.2-8.3,5-12.4c0.7-1.5,1.5-2.899,2.4-4.199l17.9-12.7c3.8-1.7,6.699-4.8,9.199-8.601
	c7.5-11.2,2.601-25.7,9.9-37.5C500.4,152,500.2,150.3,500,148.4z"/>
</svg>
