<svg version="1.1" id="Layer_1" xmlns="http://www.w3.org/2000/svg" xmlns:xlink="http://www.w3.org/1999/xlink" x="0px" y="0px"
	 viewBox="0 0 768 430" enable-background="new 0 0 768 430" xml:space="preserve">
<g>
	<path fill="#5EA4DB" d="M355.363,57.694c0,0-123.75,96.014-132.159,236.681c0,0,62.805-46.896,132.159,0
		C355.363,294.375,310.574,169.335,355.363,57.694z"/>
	<path fill="#2A86CE" d="M365.936,57.694c0,0,67.323,81.147,71.897,200.077c0,0-34.171-12.354-71.897,27.288
		C365.936,285.059,390.297,152.07,365.936,57.694z"/>
	<path fill="#EBEBEB" d="M251.322,354.255l-29.486-43.601c-1.973-2.904-0.728-5.102,2.781-4.899l293.042,16.739
		c3.52,0.19,6.994,3.127,7.78,6.558l10.403,45.338c0.785,3.42-1.422,6.189-4.933,6.189h-230
		C283.352,380.579,261.143,368.797,251.322,354.255z"/>
	<path fill="#39453E" d="M364.444,313.737V44.441c0-1.906-1.537-3.441-3.431-3.441c-1.906,0-3.453,1.536-3.453,3.441v268.915
		L364.444,313.737z"/>
	<path fill="#B3B7BF" d="M500.146,321.495l-9.193-50.967c-1.189-6.592-7.535-11.211-14.171-10.336l-77.426,10.336
		c-6.638,0.897-13.207,6.907-14.664,13.432l-6.839,30.54L500.146,321.495z"/>
	<g>
		<path fill="#A6D5F3" d="M421.14,292.48c0-8.879,7.186-16.055,16.043-16.055c8.868,0,16.056,7.176,16.056,16.055
			c0,8.856-7.188,16.033-16.056,16.033C428.325,308.514,421.14,301.337,421.14,292.48z"/>
		<path fill="#7E8187" d="M437.183,310.239c-9.799,0-17.759-7.972-17.759-17.759c0-9.798,7.96-17.78,17.759-17.78
			s17.78,7.982,17.78,17.78C454.963,302.268,446.981,310.239,437.183,310.239z M437.183,278.152
			c-7.893,0-14.328,6.425-14.328,14.328c0,7.893,6.436,14.306,14.328,14.306c7.904,0,14.327-6.413,14.327-14.306
			C451.51,284.577,445.087,278.152,437.183,278.152z"/>
	</g>
</g>
</svg>
