<svg version="1.1" xmlns="http://www.w3.org/2000/svg" viewBox="0 0 768 430" xml:space="preserve"><style>.s0{fill:#DDE4D0;}</style><path d="M461.3 63.4l-62.3 13.9v183.8l131.6-22.6C460.2 160.1 461.3 63.4 461.3 63.4zM570 231.7l-39.4 6.8c0.2 0.2 0.4 0.5 0.7 0.7L570 231.7zM375.8 257.6l-0.2-0.1c0 0.1 0.1 0.2 0.1 0.3L375.8 257.6zM355.7 85.4c0 0-64.2 69.6-94.1 136.9l114 35.2C352.5 197.3 335.2 128.2 355.7 85.4zM334.7 268.6c0 0-6.2 13.3 12.2 29.4l0.1 0h175.9c0 0 21.7-14 13.6-41.2C536.5 256.8 409.7 271.2 334.7 268.6z" fill="#DDE4D0"/></svg>