<svg version="1.1" xmlns="http://www.w3.org/2000/svg" xmlns:xlink="http://www.w3.org/1999/xlink" viewBox="0 0 768 430" style="enable-background:new 0 0 768 430;" xml:space="preserve"><g id="book"> <g id="book_1_">  <g id="g2198" transform="translate(-256.9943,-227.9440)"> <path id="path14684_2_" style="fill:#001873;stroke:#FEFEFE;stroke-width:2.2784;" d="M524.212,564.944"/> <path id="path14685" style="fill:none;stroke:#DDE4D0;stroke-width:4.5568;" d="M439.872,409.411  c30.282,48.179,60.566,96.358,90.85,144.536c53.685-28.22,117.406-70.253,167.261-59.023  c-2.418-16.597,5.381-25.891,15.128-36.646c-80.985-13.996-121.362,32.578-178.948,55.06  c-1.148,11.701-2.294,23.403-3.442,35.102c1.607-11.24,1.836-22.481,3.442-33.726c-26.155-40.606-57.127-91.539-83.28-132.146  C442.395,386.698,441.479,399.777,439.872,409.411z"/> <path id="path14686" style="fill:none;stroke:#DDE4D0;stroke-width:4.5568;" d="M703.188,471.231  c22.255-42.442,42.342-45.333,86.008-51.513c34.212-4.839,58.196-3.698,93.067-5.303c-2.981,10.093,2.143,23.429,6.731,36.964  c-32.809,1.377-56.248-3.898-92.499,0.919c-24.087-2.066-58.546,16.623-74.373,32.455  C723.495,455.386,705.205,477.883,703.188,471.231z"/> <path id="path14687" style="fill:none;stroke:#DDE4D0;stroke-width:4.5568;" d="M604.741,354.335  c34.413,33.267,68.824,66.533,103.24,99.798c-83.394-10.324-127.902,40.263-174.818,56.781  c-27.072-42.9-55.862-88.557-82.936-131.457c33.954-16.29,56.371-43.125,105.648-47.146  C574.974,330.752,589.829,343.551,604.741,354.335z"/> <path id="path950" style="fill:none;stroke:#DDE4D0;stroke-width:4.5568;" d="M712.943,455.837  c25.631-43.314,78.516-36.987,168.874-43.801c-47.692-32.445-95.388-64.89-143.081-97.334  c-62.456,12.167-104.473-13.627-138.217,34.554L712.943,455.837z"/>  </g>  <g> <g>  <path style="fill:#DDE4D0;" d="M236.754,171.024c24.947-5.77,47.122-19.362,71.669-26.369   c7.051-2.013,4.051-13.007-3.028-10.985c-24.548,7.008-46.725,20.602-71.67,26.369   C226.569,161.693,229.603,172.677,236.754,171.024L236.754,171.024z"/> </g>  </g>  <g> <g>  <path style="fill:#DDE4D0;" d="M248.922,197.393c28.199-8.842,54.762-22.182,83.167-30.425   c7.041-2.044,4.043-13.038-3.029-10.985c-28.404,8.243-54.967,21.584-83.167,30.425   C238.908,188.598,241.893,199.596,248.922,197.393L248.922,197.393z"/> </g>  </g>  <g> <g>  <path style="fill:#DDE4D0;" d="M269.046,223.967c27.405-2.669,54.382-17.343,75.898-33.909c5.733-4.415,0.071-14.319-5.75-9.835   c-19.722,15.186-44.912,29.895-70.147,32.353C261.803,213.28,261.733,224.68,269.046,223.967L269.046,223.967z"/> </g>  </g>  <g> <g>  <path style="fill:#DDE4D0;" d="M290.167,254.189c33.168-11.724,62.91-31.224,90.412-52.853   c5.772-4.538-2.349-12.542-8.054-8.055c-25.86,20.335-54.209,38.903-85.385,49.922   C280.261,245.635,283.221,256.645,290.167,254.189L290.167,254.189z"/> </g>  </g>  <g> <g>  <path style="fill:#DDE4D0;" d="M393.454,127.279c25.701-0.197,50.595-7.409,75.891-11.023   c7.248-1.036,4.153-12.011-3.029-10.985c-24.293,3.471-48.182,10.425-72.861,10.616   C386.112,115.943,386.105,127.335,393.454,127.279L393.454,127.279z"/> </g>  </g>  <g> <g>  <path style="fill:#DDE4D0;" d="M409.009,150.268c28.242-0.318,53.912-13.917,81.81-16.228c7.267-0.602,7.325-11.999,0-11.392   c-27.877,2.31-53.729,15.912-81.81,16.228C401.666,138.957,401.657,150.351,409.009,150.268L409.009,150.268z"/> </g>  </g>  <g> <g>  <path style="fill:#DDE4D0;" d="M443.652,173.729c20.785-6.36,40.884-17.035,62.719-19.405c7.224-0.784,7.299-12.184,0-11.392   c-23.046,2.501-43.821,13.102-65.748,19.811C433.62,164.885,436.608,175.884,443.652,173.729L443.652,173.729z"/> </g>  </g>  <g> <g>  <path style="fill:#DDE4D0;" d="M453.801,196.143c27.053-11.8,55.622-20.846,85.022-24.24c7.21-0.832,7.291-12.233,0-11.392   c-31.568,3.644-61.722,13.124-90.772,25.794C441.331,189.236,447.137,199.048,453.801,196.143L453.801,196.143z"/> </g>  </g> </g> <g id="Layer_1_3_"> </g></g><g id="Layer_1"></g></svg>