<svg version="1.1" id="Layer_1" xmlns="http://www.w3.org/2000/svg" xmlns:xlink="http://www.w3.org/1999/xlink" x="0px" y="0px"
 viewBox="0 0 768 430" enable-background="new 0 0 768 430" xml:space="preserve">
<g>
	<g>
		<path fill="#EAF4EF" d="M168.593,49.765c0,0,201.846-32.025,201.846,42.093h-40.498L168.593,49.765z"/>
		<path fill="#EAF4EF" d="M572.278,49.765c0,0-201.839-32.025-201.839,42.093h40.491L572.278,49.765z"/>
		<path fill="#48C18D" d="M329.941,91.858c0,0,36.302,14.37,75.634,0v307.049c0,0-34.035,24.959-75.634,0V91.858z"/>
		<path fill="#2F8E63" d="M405.575,91.858h-75.634C329.941,91.858,366.243,106.228,405.575,91.858z"/>
		<path fill="#30B277" d="M329.941,104.721c0,0,37.977,17.747,75.634,0v37.783c0,0-32.758,26.328-75.634,0V104.721z"/>
		<path fill="#30B277" d="M329.941,343.998c0,0,37.977,17.747,75.634,0v37.781c0,0-32.758,26.327-75.634,0V343.998z"/>
		<g>
			<polygon fill="#83E2BE" points="156,46.482 156,327.82 329.941,398.907 329.941,91.858 			"/>
			<g>
				<path fill="#4FC696" d="M324.312,386.584l-162.689-66.488V59.141l2.156,0.562l160.533,41.875V386.584z M165.056,317.79
					l155.823,63.683V104.235L165.056,63.587V317.79z"/>
			</g>
		</g>
		<g>
			<polygon fill="#83E2BE" points="579.517,46.482 579.517,327.82 405.575,398.907 405.575,91.858 			"/>
			<g>
				<path fill="#4FC696" d="M411.198,101.578l160.546-41.875l2.144-0.562v260.955l-162.689,66.488V101.578z M570.455,63.587
					l-155.824,40.648v277.238l155.824-63.683V63.587z"/>
			</g>
		</g>
	</g>
</g>
</svg>
