<svg version="1.1" id="Layer_1" xmlns="http://www.w3.org/2000/svg" xmlns:xlink="http://www.w3.org/1999/xlink" viewBox="0 0 768 430" enable-background="new 0 0 768 430" xml:space="preserve">
<g>
	<g>
		<g>
			<g>
				<path fill="#B4CB34" d="M381.511,276.936c0,0-21.99,15.795-36.596-5.461c0,0-24.348,6.074-29.829-16.395
					c0,0-29.221-2.426-28.004-24.9c0,0-35.3-17-12.167-49.189c0,0-22.525-20.041,3.038-42.507c0,0-19.477-29.148,14.612-37.651
					c0,0,3.046-34.62,37.132-26.725c0,0,9.127-29.15,42-18.217c0,0,29.528-21.908,46.263,7.288c0,0,32.267-4.251,38.348,22.47
					c0,0,31.047,4.253,28,35.223c0,0,23.836,21.861,8.613,47.972c0,0,15.178,43.488-17.745,47.368c0,0,1.051,19.258-18.432,27.762
					c0,0-3.483,23.252-24.174,19.604c0,0-15.831,17.615-27.392,7.898L381.511,276.936z"/>
			</g>
			<path fill="#AAB72C" d="M484.306,120.871c3.047-30.97-28-35.223-28-35.223c15.457,66.774-22.298,152.211-80.955,159.821
				c-58.656,7.609-88.269-15.289-88.269-15.289c-1.216,22.475,28.004,24.9,28.004,24.9c5.481,22.469,29.829,16.395,29.829,16.395
				c14.606,21.256,36.596,5.461,36.596,5.461l23.666-5.461c11.561,9.717,27.392-7.898,27.392-7.898
				c20.69,3.648,24.174-19.604,24.174-19.604c19.482-8.504,18.432-27.762,18.432-27.762c32.923-3.88,17.745-47.368,17.745-47.368
				C508.142,142.732,484.306,120.871,484.306,120.871z"/>
		</g>
		<g>
			<path fill="#695020" d="M344.915,220.914c0,0,34.084,3.531,36.519,21.182c2.437,17.648-3.65,160.014-3.65,160.014h36.523
				c0,0-15.831-160.018-10.349-171.615c5.472-11.598,23.13-18.153,23.13-18.153s-20.091-0.502-26.781,5.549
				c-6.694,6.051-15.221,7.562-24.352,6.051C366.828,222.428,357.696,219.908,344.915,220.914z"/>
		</g>
	</g>
</g>
</svg>
