<svg version="1.1" id="Layer_1" xmlns="http://www.w3.org/2000/svg" viewBox="0 0 768 430" enable-background="new 0 0 768 430" xml:space="preserve">
<g>
	<g>
		<g>
			<linearGradient id="SVGID_1_" gradientUnits="userSpaceOnUse" x1="315.6748" y1="291.6855" x2="452.3178" y2="291.6855">
				<stop  offset="0" style="stop-color:#FFD383"/>
				<stop  offset="0.5937" style="stop-color:#FFB872"/>
				<stop  offset="1" style="stop-color:#FFA364"/>
			</linearGradient>
			<path fill="url(#SVGID_1_)" d="M404.235,293.592c0.083-3.354,0.206-5.869,0.206-5.869h-21.996h-0.576h-21.996
				c0,0,0.176,3.596,0.248,7.926c4.726-0.783,36.133-5.98,36.714-5.98C397.164,289.668,400.821,291.676,404.235,293.592z"/>
			<linearGradient id="SVGID_2_" gradientUnits="userSpaceOnUse" x1="315.6729" y1="331.7148" x2="452.3196" y2="331.7148">
				<stop  offset="0" style="stop-color:#FFD383"/>
				<stop  offset="0.5937" style="stop-color:#FFB872"/>
				<stop  offset="1" style="stop-color:#FFA364"/>
			</linearGradient>
			<path fill="url(#SVGID_2_)" d="M457.191,339.396c-2.423-8.073-11.842-9.688-11.842-9.688s-25.413-7.531-29.336-9.688
				c-0.757-0.417-1.587-0.93-2.433-1.483c-0.013,1.231-0.184,1.99-0.599,1.96c-16.086-1.163-48.092-21.298-52.855-24.347
				c0.077,5.326-0.017,11.574-0.793,13.643c-1.438,3.837-7.111,8.07-11.033,10.228c-3.923,2.157-29.336,9.688-29.336,9.688
				s-9.419,1.615-11.841,9.688c-2.423,8.073-9.693,26.472-8.882,27.45c0.412,0.498,42.522,0.49,83.915,0.362
				c41.393,0.128,83.503,0.136,83.915-0.362C466.884,365.867,459.613,347.469,457.191,339.396z"/>
			<path opacity="0.8" fill="#EF843C" d="M359.507,295.75c0,0,0.229,0.148,0.62,0.398c-0.002-0.166-0.003-0.336-0.006-0.5
				C359.736,295.711,359.507,295.75,359.507,295.75z"/>
			<linearGradient id="SVGID_3_" gradientUnits="userSpaceOnUse" x1="315.6733" y1="305.082" x2="452.3192" y2="305.082">
				<stop  offset="0" style="stop-color:#FFD383"/>
				<stop  offset="0.5937" style="stop-color:#FFB872"/>
				<stop  offset="1" style="stop-color:#FFA364"/>
			</linearGradient>
			<path fill="url(#SVGID_3_)" d="M413.581,318.535c-3.53-2.312-7.44-5.648-8.601-8.744c-0.905-2.412-0.885-10.514-0.745-16.199
				c-3.414-1.916-7.071-3.924-7.4-3.924c-0.581,0-31.988,5.197-36.714,5.98c0.003,0.164,0.004,0.334,0.006,0.5
				c4.764,3.049,36.77,23.184,52.855,24.347C413.397,320.525,413.568,319.767,413.581,318.535z"/>
			<path opacity="0.5" fill="#EF843C" d="M413.581,318.535c-3.53-2.312-7.44-5.648-8.601-8.744
				c-0.905-2.412-0.885-10.514-0.745-16.199c-3.414-1.916-7.071-3.924-7.4-3.924c-0.581,0-31.988,5.197-36.714,5.98
				c0.003,0.164,0.004,0.334,0.006,0.5c4.764,3.049,36.77,23.184,52.855,24.347C413.397,320.525,413.568,319.767,413.581,318.535z"
				/>
		</g>
		<g>
			<g>
				<path fill="#FFBC64" d="M449.426,200.315c0,0,8.461-21.101,16.41-10.093c7.949,11.01-4.359,35.78-6.41,37.004
					c-2.051,1.223-8.205-4.588-8.205-4.588L449.426,200.315z"/>
				<path fill="#FFBC64" d="M316.078,202.674c0,0-8.463-21.1-16.412-10.092c-7.949,11.01,4.359,35.779,6.411,37.003
					s8.206-4.587,8.206-4.587L316.078,202.674z"/>
			</g>
			<linearGradient id="SVGID_4_" gradientUnits="userSpaceOnUse" x1="382.7207" y1="111.0796" x2="382.7207" y2="303.0421">
				<stop  offset="0" style="stop-color:#FFD383"/>
				<stop  offset="0.3124" style="stop-color:#FFCD7E"/>
				<stop  offset="0.7407" style="stop-color:#FFBB70"/>
				<stop  offset="1" style="stop-color:#FFAD64"/>
			</linearGradient>
			<path fill="url(#SVGID_4_)" d="M382.887,110.533v-0.004c-0.056,0-0.11,0.003-0.166,0.002c-0.055,0.001-0.109-0.002-0.164-0.002
				v0.004c-37.72-0.103-76.756,23.951-75.231,65.502c0.195,5.32,4.337,80.693,9.929,89.78c6.089,9.896,38.564,34.394,65.303,35.561
				v0.029c0.054-0.002,0.11-0.013,0.164-0.015c0.055,0.002,0.111,0.013,0.166,0.015v-0.029
				c26.736-1.167,59.213-25.665,65.303-35.561c5.592-9.087,9.732-84.46,9.928-89.78
				C459.643,134.484,420.605,110.431,382.887,110.533z"/>
			<path opacity="0.2" fill="#F39200" d="M405.384,113.361c19.509,11.871,33.454,32.354,32.532,59.863
				c-0.088,2.593,8.096,30.676-1.535,43.547c4.469,5.713-5.293,49.152-8.394,54.664c-3.676,6.533-16.985,18.865-32.825,27.914
				c23.569-6.223,47.795-25.126,52.969-33.534c5.592-9.087,9.732-84.46,9.928-89.78
				C459.277,142.835,434.594,120.822,405.384,113.361z"/>
			<path opacity="0.1" fill="#FFFFFF" d="M334.93,278.191c-7.374-5.391-12.886-10.662-14.969-14.044
				c-4.497-7.31-8.896-72.9-9.456-88.229c-0.722-19.646,8.274-36.666,24.737-48.065c-9.687,12.631-14.569,28.153-14,45.246
				c0.029,0.87,4.025,89.063,10.33,100.352C332.376,274.889,333.515,276.487,334.93,278.191z"/>
			
				<radialGradient id="SVGID_5_" cx="375.7148" cy="10396.8516" r="40.2734" gradientTransform="matrix(1 0 0 0.4476 0 -4406.2217)" gradientUnits="userSpaceOnUse">
				<stop  offset="0" style="stop-color:#FFFFFF"/>
				<stop  offset="0.0175" style="stop-color:#FFFDFA"/>
				<stop  offset="0.1726" style="stop-color:#FFE9D0"/>
				<stop  offset="0.3312" style="stop-color:#FFD9AE"/>
				<stop  offset="0.4917" style="stop-color:#FFCD93"/>
				<stop  offset="0.6547" style="stop-color:#FFC480"/>
				<stop  offset="0.822" style="stop-color:#FFBF75"/>
				<stop  offset="1" style="stop-color:#FFBD71"/>
			</radialGradient>
			<path opacity="0.31" fill="url(#SVGID_5_)" d="M365.35,246.279c12.249,4.262,36.062,0.95,37.647-0.984
				c-0.261-7.091-7.121-17.723-7.739-21.058c0,0-19.265-2.47-22.352,0C371.547,230.535,365.35,240.773,365.35,246.279z"/>
			<path fill="#EA9D49" d="M403.024,245.147c-3.156,0.763-17.646,4.227-37.675,1.132c-0.149,0.799,8.081,5.988,18.035,7.471
				C388.195,254.883,403.877,246.041,403.024,245.147z"/>
			<path opacity="0.3" fill="#DD9544" d="M395.841,246.537c1.44-0.745-1.243-20.574-0.845-20.972
				c2.783,6.56,6.361,8.399,8.028,19.582C400.59,246.092,398.077,246.339,395.841,246.537z"/>
		</g>
	</g>
	<linearGradient id="SVGID_6_" gradientUnits="userSpaceOnUse" x1="344.2031" y1="95.5811" x2="381.1319" y2="203.4854">
		<stop  offset="0" style="stop-color:#915418"/>
		<stop  offset="1" style="stop-color:#683C11"/>
	</linearGradient>
	<path opacity="0.2" fill="url(#SVGID_6_)" d="M438.891,156.598c-4.129-0.873-35.902,11.584-54.41,11.584
		c-0.404,0-13.734-0.828-19.158-1.938c-27.564-3.438-38.713-4.596-43.442-5.726c-2.394,3.127-4.329,7.146-4.69,8.365
		c-0.588,1.988,2.449,15.206,2.457,18.605c0.008,3.398-5.203,36.614-6.158,37.394c-0.307,0.249-2.209-0.068-2.727-0.111
		c0.052,0.576-0.053-0.276,0,0.298c1.013,0.474,4.144,0.918,4.722,0.447c0.955-0.778,5.762-32.508,5.754-35.908
		c-0.008-3.396-3.046-16.615-2.457-18.604c0.36-1.22,2.297-5.239,4.69-8.365c4.729,1.129,15.878,2.287,43.442,5.726
		c5.423,1.108,18.753,1.938,19.158,1.938c18.507,0,50.28-12.459,54.41-11.584c1.378,0.29,2.821,1.542,4.162,3.143
		C442.92,159.324,440.837,157.009,438.891,156.598z"/>
</g>
<g>

	<path fill="#3A3A3A" d="M393.83,210.777c0,0,23.254-8.182,47.102-11.485c4.993-2.987-29-1.036-32.916,0.343
		C404.099,201.016,396.887,205.771,393.83,210.777z"/>
	<path fill="#3A3A3A" d="M373.187,211.25c0,0-23.127-8.531-46.921-12.196c-4.948-3.063,29.012-0.597,32.906,0.842
		C363.067,201.335,370.206,206.199,373.187,211.25z"/>
	<path fill="#EF843C" d="M365.754,272.941c3.038-0.769,15.074-6.008,35.965-0.039c0.144-0.805-7.479-3.655-17.061-5.148
		C380.028,266.612,364.934,272.041,365.754,272.941z"/>
	<path opacity="0.7" fill="#EF843C" d="M369.758,280.881c2.367-0.289,13.23-1.601,28.249-0.429c0.111-0.302-6.06-2.269-13.523-2.831
		C380.877,277.192,369.119,280.543,369.758,280.881z"/>
	<g>
		<g>
			<path fill="#3C3C3B" d="M332.228,217.047c-0.749-1.999,0.148-3.731,1.744-5.441c1.596-1.711,12.554-8.285,23.579-1.925
				c11.026,6.36,9.948,11.576,9.948,11.576S351.254,230.045,332.228,217.047z"/>
			<path fill="#FFFFFF" d="M333.072,218.035c-0.661-0.398-1.155-1.117-1.151-1.889c0.007-1.297,0.803-2.484,1.989-3.658
				c1.586-1.566,12.504-7.565,23.561-1.645c11.057,5.922,10.008,10.722,10.008,10.722S351.779,229.332,333.072,218.035z"/>
			
				<radialGradient id="SVGID_7_" cx="359.2334" cy="194.9038" r="7.0969" gradientTransform="matrix(0.9976 0.069 -0.069 0.9976 4.7402 -3.2178)" gradientUnits="userSpaceOnUse">
				<stop  offset="0.5027" style="stop-color:#683C11"/>
				<stop  offset="0.603" style="stop-color:#7D4C0A"/>
				<stop  offset="0.7195" style="stop-color:#8F5A04"/>
				<stop  offset="0.8461" style="stop-color:#996101"/>
				<stop  offset="1" style="stop-color:#9C6400"/>
			</radialGradient>
			<circle fill="url(#SVGID_7_)" cx="349.664" cy="216.006" r="7.097"/>
			<circle fill="#1D1D1B" cx="349.63" cy="216.078" r="4.046"/>
			<circle fill="#FFFFFF" cx="353.511" cy="213.258" r="2.79"/>
		</g>
	</g>
	<g>
		<g>
			<path fill="#3C3C3B" d="M433.029,217.125c0.759-1.996-0.131-3.732-1.719-5.451c-1.587-1.717-12.515-8.343-23.57-2.033
				c-11.055,6.309-10.002,11.529-10.002,11.529S413.942,230.034,433.029,217.125z"/>
			<path fill="#FFFFFF" d="M431.727,218.377c1.25-0.729,1.871-2.322,1.271-3.638c-0.34-0.745-0.913-1.465-1.63-2.181
				c-1.578-1.574-12.469-7.624-23.552-1.755c-11.084,5.869-10.059,10.674-10.059,10.674S413.169,229.191,431.727,218.377z"/>
			
				<radialGradient id="SVGID_8_" cx="138.2461" cy="238.4062" r="7.0964" gradientTransform="matrix(-0.9979 0.0644 0.0644 0.9979 538.2017 -30.8066)" gradientUnits="userSpaceOnUse">
				<stop  offset="0.5027" style="stop-color:#683C11"/>
				<stop  offset="0.603" style="stop-color:#7D4C0A"/>
				<stop  offset="0.7195" style="stop-color:#8F5A04"/>
				<stop  offset="0.8461" style="stop-color:#996101"/>
				<stop  offset="1" style="stop-color:#9C6400"/>
			</radialGradient>
			<circle fill="url(#SVGID_8_)" cx="415.599" cy="216.002" r="7.096"/>
			<circle fill="#1D1D1B" cx="415.632" cy="216.074" r="4.046"/>
			<circle fill="#FFFFFF" cx="418.875" cy="212.619" r="2.791"/>
		</g>
	</g>
</g>
<linearGradient id="SVGID_9_" gradientUnits="userSpaceOnUse" x1="295.8086" y1="345.6885" x2="470.0508" y2="345.6885">
	<stop  offset="0" style="stop-color:#5B777F"/>
	<stop  offset="0.2924" style="stop-color:#57767F"/>
	<stop  offset="0.5533" style="stop-color:#4D727F"/>
	<stop  offset="0.8013" style="stop-color:#3A6B7F"/>
	<stop  offset="1" style="stop-color:#26647F"/>
</linearGradient>
<path fill="url(#SVGID_9_)" d="M470.051,366.219c-0.27-2.21-1.656-6.273-4.885-15.347c-1.598-4.487-3.248-9.128-4.154-12.153
	c-2.765-9.212-12.506-11.54-14.137-11.867c-9.715-2.883-25.93-7.939-28.555-9.383c-1.283-0.706-2.645-1.592-3.938-2.547
	c-6.351,8.594-17.788,14.35-30.887,14.35c-13.376,0-25.028-5.998-31.288-14.895c-1.501,1.168-3.143,2.254-4.668,3.093
	c-2.624,1.442-18.838,6.499-28.553,9.382c-1.63,0.327-11.373,2.655-14.137,11.867c-0.906,3.022-2.556,7.658-4.152,12.143
	c-3.231,9.082-4.619,13.146-4.889,15.357h0.08c-0.001,0.029-0.017,0.059-0.017,0.088c0,5.907,38.99,10.693,87.089,10.693
	s87.09-4.786,87.09-10.693c0-0.029-0.016-0.059-0.018-0.088H470.051z"/>
<linearGradient id="SVGID_10_" gradientUnits="userSpaceOnUse" x1="352.1274" y1="78.9028" x2="392.1175" y2="195.752">
	<stop  offset="0" style="stop-color:#915418"/>
	<stop  offset="1" style="stop-color:#683C11"/>
</linearGradient>
<path fill="url(#SVGID_10_)" d="M459.387,126.9c-37.901-30.48-96.213-43.468-98.598-42.275c-2.386,1.193,1.192,9.344,1.192,9.344
	s-28.228-9.74-29.817-9.344c-1.591,0.398,8.945,12.127,8.945,12.127s-25.342-5.652-27.084-4.516
	c-1.74,1.136,9.988,11.075,9.988,11.075s-21.791-4.026-38.002,4.417c-0.267,0.811,21.502,5.324,21.502,5.324
	S284.543,124.258,280,130.573c0.32,0.394,25.525-2.612,25.525-2.612s-14.212,10.305-14.471,13.523
	c4.687,2.724,8.724,10.656,10.949,12.477c-0.039,0.215-0.064,0.472-0.094,0.715c-0.715,6.021,1.159,20.664,2.835,34.938
	c0.589,0.039,0.997,0.123,1.37,0.245c0.605,0.196,1.088,0.521,1.875,1.115c0.023,0.36,0.049,0.753,0.074,1.121
	c0.586,9.21,1.44,21.181,2.503,32.874c0.477,0.225,0.978,0.355,1.438,0.395c0.517,0.044,0.98-0.033,1.287-0.282
	c0.955-0.78,6.167-33.995,6.159-37.394c-0.008-3.4-3.046-16.617-2.457-18.605c0.36-1.219,2.297-5.238,4.69-8.366
	c4.729,1.131,15.878,2.288,43.442,5.726c5.423,1.111,18.753,1.938,19.158,1.938c18.507,0,50.28-12.456,54.41-11.584
	c1.946,0.411,4.028,2.728,5.753,5.265c2.676,3.197,4.922,7.818,5.315,9.143c0.587,1.988-2.449,15.206-2.457,18.604
	c-0.008,2.957,3.935,28.465,5.589,35.569c0.468,0.007,0.998-0.1,1.512-0.31c1.213-12.924,2.174-26.498,2.803-36.477
	c1.347-1.014,1.594-1.015,2.588-1.213c1.171-10.305,2.85-20.602,3.355-27.445C463.759,158.39,466.284,137.086,459.387,126.9z"/>
</svg>
