<svg xmlns="http://www.w3.org/2000/svg" viewBox="0 0 768 430"><style>.a{fill:#0071BC;}.b{fill:#29ABE2;}.c{fill:#1A0000;opacity:0.2;}.d{fill:#C1272D;}</style><path d="M442.4 218.8c-10.5-13-15.4-25.9-39.1-20.9 -23.7 5-66.2 27.8-91.8 48.4s-57.1 57.1-67 79.2c-9.9 22.1 1.6 29.8 12.1 42.9 10.5 13 30.4 16.5 54.1 11.5 23.7-5 51.2-18.4 76.8-39 25.6-20.6 44.6-44.6 54.5-66.7C452 252 452.9 231.8 442.4 218.8z" class="a"/><path d="M541.3 97c-8.4-4.6-23.4-1.6-40.3 11.1 -34.3 25.9-67.4 91.7-83.3 87.8 0 0-7.8-0.1 0 11.6 4.9 7.3 13.5 18.3 16.2 19.9 0.9 0.5 3.3 1.9 5.9 3 4.2 1.8 8.8 2.8 7.8-2.2 -7.1-32.6 72.1-57.6 93.3-94.6C551.7 114.8 550 101.8 541.3 97zM519.8 125.4c-0.4 0.3-0.7 0.4-1.1 0.6 -0.4 0.2-0.7 0.4-1.1 0.6 -0.4 0.2-0.9 0.4-1.3 0.6 -0.9 0.4-1.8 0.6-2.6 0.9 -0.4 0.1-0.9 0.2-1.3 0.3 1.1-3.1 3.2-6.2 6.2-8.9 3.3-2.9 7-4.6 10.4-5.2 -0.1 0.4-0.3 0.8-0.4 1.1 -0.3 0.7-0.6 1.3-1 2 -0.2 0.4-0.4 0.7-0.7 1.1 -0.3 0.5-0.7 1-1.1 1.5 -0.9 1.1-1.9 2.2-3 3.2 -0.6 0.5-1.2 1.1-1.9 1.5C520.5 125 520.1 125.2 519.8 125.4z" class="b"/><path d="M372.1 321.6c-40 32.2-85.1 43.9-106.6 28.9h0c-0.6-0.4-1.2-0.8-1.8-1.3 0-0.1-0.1-0.1-0.1-0.2 -18-22.4-7.2-74.7 36.8-110.1 32.4-26.1 74.5-35.3 101-29.8 0 0 0 0 0 0 7.2 1.5 13.2 4 17.6 7.6 0 0.1 0.1 0.1 0.1 0.2C437.2 239.3 416.1 286.2 372.1 321.6z" fill="#F5E0CD"/><path d="M372.1 321.6c-40 32.2-85.1 43.9-106.6 28.9 49.2-1.9 111.8-26.2 149-101.2 12.1-24.5 3.7-35.9-13.1-40.2 7.2 1.5 13.2 4 17.6 7.6 0 0.1 0.1 0.1 0.1 0.2C437.2 239.3 416.1 286.2 372.1 321.6z" style="fill:#1A0000;opacity:0.1"/><path d="M540.9 133.7c-21.1 37.1-100.4 62.1-93.3 94.6 1.1 5-3.5 4-7.8 2.2 -1.6-12.5-1.9-21.9 15.3-36.6 17.2-14.8 101.7-64.9 86.2-96.9C550 101.8 551.7 114.8 540.9 133.7z" class="c"/><path d="M528.5 115.5c0.2-0.4 0.3-0.8 0.4-1.1 -3.4 0.5-7.1 2.3-10.4 5.2 -3 2.7-5.1 5.8-6.2 8.9 -3.6 0.6-6.8-0.2-8.7-2.4 -3.8-4.4-1.5-12.7 5.3-18.6 6.7-5.9 15.3-7.1 19.1-2.8C530.3 107.3 530.3 111.4 528.5 115.5z" fill="#1C779C"/><polygon points="261 311.6 232 307.2 232.4 304 261.6 306.7 " fill="#757275"/><polygon points="270.1 283.3 243.8 267.5 245.3 264.7 272.5 278.9 " fill="#777477"/><polygon points="286 258 264.5 237.8 266.6 235.4 289.3 254.3 " fill="#797679"/><polygon points="306.6 237.8 292.6 209.9 295.4 208.4 311 235.4 " fill="#7B777B"/><polygon points="334.3 223.4 329.2 197.2 332.3 196.4 339.1 222.3 " fill="#7D797D"/><polygon points="366.5 213.6 366.2 186.8 369.4 186.7 371.5 213.3 " fill="#7E7B7E"/><polygon points="394.9 209.5 399.7 183.7 402.9 184.2 399.8 210.2 " fill="#807D80"/><polygon points="264.6 329.8 235.6 340.6 234.4 337.6 262.8 325.2 " fill="#827F82"/><polygon points="278.6 298.8 254.8 290.9 255.7 287.9 280 294 " fill="#848084"/><polygon points="291.5 277.4 266.4 260.7 268.1 258 294.1 273.2 " fill="#868286"/><polygon points="308 261.2 289.9 235.4 292.5 233.5 312 258.2 " fill="#888488"/><polygon points="331.4 239.8 322.8 213.2 325.8 212.1 336 238.1 " fill="#8A868A"/><polygon points="357.3 232.2 355.4 201.4 358.6 201.1 362.3 231.8 " fill="#8C878C"/><polygon points="389.3 220.8 393.4 192.5 396.5 192.9 394.2 221.3 " fill="#8D898D"/><polygon points="409.1 221.7 422.4 198.1 425.2 199.6 413.5 224 " fill="#8F8B8F"/><polygon points="384.9 238.3 389 209 392.1 209.3 389.8 238.8 " fill="#918D91"/><polygon points="359.4 255.3 356.9 234.8 360 234.2 364.3 254.5 " fill="#938F93"/><polygon points="337.6 270.5 323.9 253.6 326.3 251.5 341.4 267.3 " fill="#959095"/><polygon points="321.2 288.7 300.7 277.5 302.1 274.6 323.4 284.2 " fill="#979297"/><polygon points="307.6 303.7 283.6 302.8 283.6 299.6 307.6 298.7 " fill="#999499"/><polygon points="295.9 321.6 267.4 323.5 267.1 320.4 295.4 316.7 " fill="#9B969B"/><polygon points="287.6 341.3 266.3 351.9 264.8 349.1 285.2 336.9 " fill="#9C989C"/><polygon points="303.5 346.2 293.8 359.7 291.1 357.9 299.3 343.5 " fill="#9E999E"/><polygon points="416.4 251.5 429.7 245.7 431.2 248.5 418.7 255.9 " fill="#A09BA0"/><polygon points="404.5 271 417.5 272 417.5 275.2 404.5 276 " fill="#A29DA2"/><polygon points="394 287 405.7 291.4 404.8 294.4 392.6 291.8 " fill="#A49FA4"/><polygon points="374.8 305.3 382.7 312 380.9 314.6 372 309.4 " fill="#A6A0A6"/><polygon points="358.9 321.7 361.6 329.9 358.7 331.2 354.4 323.8 " fill="#A8A2A8"/><polygon points="339.1 333.8 335.8 345.8 332.7 345.2 334.3 332.8 " fill="#AAA4AA"/><polygon points="322 343.5 319.7 352.2 316.5 351.7 317.1 342.7 " fill="#ABA6AB"/><polygon points="402.1 245.7 409.7 236.5 412.3 238.3 406.1 248.5 " fill="#ADA8AD"/><polygon points="309.3 330.6 301.7 336.3 299.5 333.9 305.9 326.9 " fill="#AFA9AF"/><polygon points="387.1 259.1 392.1 254.7 394.5 256.8 390.8 262.4 " fill="#B1ABB1"/><polygon points="323.9 319.4 319.8 321.8 317.8 319.3 320.7 315.7 " fill="#B3ADB3"/><circle cx="243.8" cy="265" r="6" class="d"/><path d="M246.9 259.9c0.7 1 1.2 2.2 1.2 3.5 0 3.3-2.7 6-6 6 -1.1 0-2.2-0.3-3.1-0.9 1.1 1.5 2.8 2.5 4.8 2.5 3.3 0 6-2.7 6-6C249.8 262.8 248.6 260.9 246.9 259.9z" class="c"/><circle cx="232" cy="305.3" r="6" class="d"/><path d="M235.1 300.2c0.7 1 1.2 2.2 1.2 3.5 0 3.3-2.7 6-6 6 -1.1 0-2.2-0.3-3.1-0.9 1.1 1.5 2.8 2.5 4.8 2.5 3.3 0 6-2.7 6-6C238 303.2 236.8 301.3 235.1 300.2z" class="c"/><circle cx="234.4" cy="339.3" r="6" class="d"/><path d="M237.5 334.2c0.7 1 1.2 2.2 1.2 3.5 0 3.3-2.7 6-6 6 -1.1 0-2.2-0.3-3.1-0.9 1.1 1.5 2.8 2.5 4.8 2.5 3.3 0 6-2.7 6-6C240.4 337.1 239.2 335.3 237.5 334.2z" class="c"/><circle cx="264.8" cy="351.9" r="6" class="d"/><path d="M267.9 346.8c0.7 1 1.2 2.2 1.2 3.5 0 3.3-2.7 6-6 6 -1.1 0-2.2-0.3-3.1-0.9 1.1 1.5 2.8 2.5 4.8 2.5 3.3 0 6-2.7 6-6C270.8 349.8 269.6 347.9 267.9 346.8z" class="c"/><circle cx="292.6" cy="359.7" r="6" class="d"/><path d="M295.7 354.5c0.7 1 1.2 2.2 1.2 3.5 0 3.3-2.7 6-6 6 -1.1 0-2.2-0.3-3.1-0.9 1.1 1.5 2.8 2.5 4.8 2.5 3.3 0 6-2.7 6-6C298.6 357.5 297.4 355.6 295.7 354.5z" class="c"/><circle cx="317.8" cy="352.4" r="6" class="d"/><path d="M320.9 347.3c0.7 1 1.2 2.2 1.2 3.5 0 3.3-2.7 6-6 6 -1.1 0-2.2-0.3-3.1-0.9 1.1 1.5 2.8 2.5 4.8 2.5 3.3 0 6-2.7 6-6C323.8 350.2 322.6 348.3 320.9 347.3z" class="c"/><circle cx="333.9" cy="346" r="6" class="d"/><path d="M337 340.9c0.7 1 1.2 2.2 1.2 3.5 0 3.3-2.7 6-6 6 -1.1 0-2.2-0.3-3.1-0.9 1.1 1.5 2.8 2.5 4.8 2.5 3.3 0 6-2.7 6-6C339.9 343.8 338.7 342 337 340.9z" class="c"/><circle cx="360.6" cy="332.8" r="6" class="d"/><path d="M363.6 327.7c0.7 1 1.2 2.2 1.2 3.5 0 3.3-2.7 6-6 6 -1.1 0-2.2-0.3-3.1-0.9 1.1 1.5 2.8 2.5 4.8 2.5 3.3 0 6-2.7 6-6C366.6 330.6 365.4 328.8 363.6 327.7z" class="c"/><circle cx="382.7" cy="313.8" r="6" class="d"/><path d="M385.8 308.7c0.7 1 1.2 2.2 1.2 3.5 0 3.3-2.7 6-6 6 -1.1 0-2.2-0.3-3.1-0.9 1.1 1.5 2.8 2.5 4.8 2.5 3.3 0 6-2.7 6-6C388.7 311.6 387.6 309.8 385.8 308.7z" class="c"/><circle cx="404.5" cy="293.3" r="6" class="d"/><path d="M407.6 288.2c0.7 1 1.2 2.2 1.2 3.5 0 3.3-2.7 6-6 6 -1.1 0-2.2-0.3-3.1-0.9 1.1 1.5 2.8 2.5 4.8 2.5 3.3 0 6-2.7 6-6C410.5 291.2 409.3 289.3 407.6 288.2z" class="c"/><circle cx="417.5" cy="274" r="6" class="d"/><path d="M420.6 268.9c0.7 1 1.2 2.2 1.2 3.5 0 3.3-2.7 6-6 6 -1.1 0-2.2-0.3-3.1-0.9 1.1 1.5 2.8 2.5 4.8 2.5 3.3 0 6-2.7 6-6C423.5 271.8 422.4 269.9 420.6 268.9z" class="c"/><circle cx="429.3" cy="247.4" r="6" class="d"/><path d="M432.4 242.3c0.7 1 1.2 2.2 1.2 3.5 0 3.3-2.7 6-6 6 -1.1 0-2.2-0.3-3.1-0.9 1.1 1.5 2.8 2.5 4.8 2.5 3.3 0 6-2.7 6-6C435.3 245.2 434.1 243.3 432.4 242.3z" class="c"/><circle cx="423.3" cy="198.1" r="6" class="d"/><path d="M426.4 193c0.7 1 1.2 2.2 1.2 3.5 0 3.3-2.7 6-6 6 -1.1 0-2.2-0.3-3.1-0.9 1.1 1.5 2.8 2.5 4.8 2.5 3.3 0 6-2.7 6-6C429.3 196 428.1 194.1 426.4 193z" class="c"/><circle cx="402.1" cy="182.6" r="6" class="d"/><path d="M405.2 177.5c0.7 1 1.2 2.2 1.2 3.5 0 3.3-2.7 6-6 6 -1.1 0-2.2-0.3-3.1-0.9 1.1 1.5 2.8 2.5 4.8 2.5 3.3 0 6-2.7 6-6C408.1 180.4 406.9 178.5 405.2 177.5z" class="c"/><circle cx="366.6" cy="183.7" r="6" class="d"/><path d="M369.6 178.6c0.7 1 1.2 2.2 1.2 3.5 0 3.3-2.7 6-6 6 -1.1 0-2.2-0.3-3.1-0.9 1.1 1.5 2.8 2.5 4.8 2.5 3.3 0 6-2.7 6-6C372.5 181.5 371.4 179.6 369.6 178.6z" class="c"/><circle cx="329.9" cy="194.6" r="6" class="d"/><path d="M333 189.5c0.7 1 1.2 2.2 1.2 3.5 0 3.3-2.7 6-6 6 -1.1 0-2.2-0.3-3.1-0.9 1.1 1.5 2.8 2.5 4.8 2.5 3.3 0 6-2.7 6-6C335.9 192.4 334.8 190.5 333 189.5z" class="c"/><circle cx="294.1" cy="209.1" r="6" class="d"/><path d="M297.2 204c0.7 1 1.2 2.2 1.2 3.5 0 3.3-2.7 6-6 6 -1.1 0-2.2-0.3-3.1-0.9 1.1 1.5 2.8 2.5 4.8 2.5 3.3 0 6-2.7 6-6C300.1 207 299 205.1 297.2 204z" class="c"/><circle cx="264.6" cy="236.5" r="6" class="d"/><path d="M267.7 231.3c0.7 1 1.2 2.2 1.2 3.5 0 3.3-2.7 6-6 6 -1.1 0-2.2-0.3-3.1-0.9 1.1 1.5 2.8 2.5 4.8 2.5 3.3 0 6-2.7 6-6C270.6 234.3 269.5 232.4 267.7 231.3z" class="c"/><circle cx="267.4" cy="259" r="6" class="d"/><path d="M270.5 253.9c0.7 1 1.2 2.2 1.2 3.5 0 3.3-2.7 6-6 6 -1.1 0-2.2-0.3-3.1-0.9 1.1 1.5 2.8 2.5 4.8 2.5 3.3 0 6-2.7 6-6C273.4 256.8 272.2 254.9 270.5 253.9z" class="c"/><circle cx="255.8" cy="289.4" r="6" class="d"/><path d="M258.8 284.3c0.7 1 1.2 2.2 1.2 3.5 0 3.3-2.7 6-6 6 -1.1 0-2.2-0.3-3.1-0.9 1.1 1.5 2.8 2.5 4.8 2.5 3.3 0 6-2.7 6-6C261.8 287.2 260.6 285.3 258.8 284.3z" class="c"/><circle cx="265.5" cy="321.8" r="6" class="d"/><path d="M268.6 316.6c0.7 1 1.2 2.2 1.2 3.5 0 3.3-2.7 6-6 6 -1.1 0-2.2-0.3-3.1-0.9 1.1 1.5 2.8 2.5 4.8 2.5 3.3 0 6-2.7 6-6C271.5 319.6 270.4 317.7 268.6 316.6z" class="c"/><circle cx="300.1" cy="336.3" r="6" class="d"/><path d="M303.2 331.2c0.7 1 1.2 2.2 1.2 3.5 0 3.3-2.7 6-6 6 -1.1 0-2.2-0.3-3.1-0.9 1.1 1.5 2.8 2.5 4.8 2.5 3.3 0 6-2.7 6-6C306.1 334.1 304.9 332.2 303.2 331.2z" class="c"/><circle cx="322.8" cy="317.5" r="6" class="d"/><path d="M325.9 312.4c0.7 1 1.2 2.2 1.2 3.5 0 3.3-2.7 6-6 6 -1.1 0-2.2-0.3-3.1-0.9 1.1 1.5 2.8 2.5 4.8 2.5 3.3 0 6-2.7 6-6C328.8 315.4 327.6 313.5 325.9 312.4z" class="c"/><circle cx="348.6" cy="299.3" r="6" class="d"/><path d="M351.7 294.2c0.7 1 1.2 2.2 1.2 3.5 0 3.3-2.7 6-6 6 -1.1 0-2.2-0.3-3.1-0.9 1.1 1.5 2.8 2.5 4.8 2.5 3.3 0 6-2.7 6-6C354.6 297.2 353.4 295.3 351.7 294.2z" class="c"/><circle cx="374.8" cy="277.4" r="6" class="d"/><path d="M377.9 272.3c0.7 1 1.2 2.2 1.2 3.5 0 3.3-2.7 6-6 6 -1.1 0-2.2-0.3-3.1-0.9 1.1 1.5 2.8 2.5 4.8 2.5 3.3 0 6-2.7 6-6C380.8 275.2 379.7 273.3 377.9 272.3z" class="c"/><circle cx="394.9" cy="254.7" r="6" class="d"/><path d="M397.9 249.6c0.7 1 1.2 2.2 1.2 3.5 0 3.3-2.7 6-6 6 -1.1 0-2.2-0.3-3.1-0.9 1.1 1.5 2.8 2.5 4.8 2.5 3.3 0 6-2.7 6-6C400.9 252.5 399.7 250.6 397.9 249.6z" class="c"/><circle cx="412.3" cy="236.9" r="6" class="d"/><path d="M415.4 231.8c0.7 1 1.2 2.2 1.2 3.5 0 3.3-2.7 6-6 6 -1.1 0-2.2-0.3-3.1-0.9 1.1 1.5 2.8 2.5 4.8 2.5 3.3 0 6-2.7 6-6C418.3 234.7 417.1 232.8 415.4 231.8z" class="c"/><circle cx="395.4" cy="192.1" r="6" class="d"/><path d="M398.5 187c0.7 1 1.2 2.2 1.2 3.5 0 3.3-2.7 6-6 6 -1.1 0-2.2-0.3-3.1-0.9 1.1 1.5 2.8 2.5 4.8 2.5 3.3 0 6-2.7 6-6C401.4 190 400.3 188.1 398.5 187z" class="c"/><circle cx="358" cy="201.1" r="6" class="d"/><path d="M361.1 196c0.7 1 1.2 2.2 1.2 3.5 0 3.3-2.7 6-6 6 -1.1 0-2.2-0.3-3.1-0.9 1.1 1.5 2.8 2.5 4.8 2.5 3.3 0 6-2.7 6-6C364 198.9 362.8 197 361.1 196z" class="c"/><circle cx="324.2" cy="212.2" r="6" class="d"/><path d="M327.3 207.1c0.7 1 1.2 2.2 1.2 3.5 0 3.3-2.7 6-6 6 -1.1 0-2.2-0.3-3.1-0.9 1.1 1.5 2.8 2.5 4.8 2.5 3.3 0 6-2.7 6-6C330.2 210.1 329.1 208.2 327.3 207.1z" class="c"/><circle cx="289.9" cy="233.5" r="6" class="d"/><path d="M293 228.4c0.7 1 1.2 2.2 1.2 3.5 0 3.3-2.7 6-6 6 -1.1 0-2.2-0.3-3.1-0.9 1.1 1.5 2.8 2.5 4.8 2.5 3.3 0 6-2.7 6-6C295.9 231.4 294.8 229.5 293 228.4z" class="c"/><circle cx="301.8" cy="276" r="6" class="d"/><path d="M304.9 270.9c0.7 1 1.2 2.2 1.2 3.5 0 3.3-2.7 6-6 6 -1.1 0-2.2-0.3-3.1-0.9 1.1 1.5 2.8 2.5 4.8 2.5 3.3 0 6-2.7 6-6C307.8 273.8 306.6 271.9 304.9 270.9z" class="c"/><circle cx="283.9" cy="301.2" r="6" class="d"/><path d="M287 296.1c0.7 1 1.2 2.2 1.2 3.5 0 3.3-2.7 6-6 6 -1.1 0-2.2-0.3-3.1-0.9 1.1 1.5 2.8 2.5 4.8 2.5 3.3 0 6-2.7 6-6C289.9 299 288.8 297.1 287 296.1z" class="c"/><circle cx="325.1" cy="251.5" r="6" class="d"/><path d="M328.2 246.4c0.7 1 1.2 2.2 1.2 3.5 0 3.3-2.7 6-6 6 -1.1 0-2.2-0.3-3.1-0.9 1.1 1.5 2.8 2.5 4.8 2.5 3.3 0 6-2.7 6-6C331.1 249.3 329.9 247.4 328.2 246.4z" class="c"/><circle cx="359.5" cy="233.5" r="6" class="d"/><path d="M362.6 228.4c0.7 1 1.2 2.2 1.2 3.5 0 3.3-2.7 6-6 6 -1.1 0-2.2-0.3-3.1-0.9 1.1 1.5 2.8 2.5 4.8 2.5 3.3 0 6-2.7 6-6C365.5 231.4 364.3 229.5 362.6 228.4z" class="c"/></svg>