<svg version="1.1" xmlns="http://www.w3.org/2000/svg" viewBox="0 0 768 430" xml:space="preserve"><style>.s0{fill:#DDE4D0;}</style><path d="M426.8 165.3c5.7-4.9 10.3-11 17-14.6 -1.1-1.1-2.3-2.3-3.4-3.4 -3 4.4-6.8 8.1-11.1 11.1 1.2 0.5 2.4 1 3.7 1.5 -1.5-5.1 1.4-10.3 2.5-15.2 0.6-2.6-2.3-4-4.2-2.4 -4.8 3.9-8.9 8.4-13 13 1.2 1.2 2.4 2.4 3.5 3.5 1.7-2.1 3.4-4.5 6-5.6 -1.2-0.9-2.4-1.9-3.7-2.8 -0.7 3.9-2.5 7.4-4.2 10.9 -1.2 2.4 2.1 5.4 3.9 3 3.5-4.5 7-9 10.5-13.5 2-2.5-1-5.7-3.5-3.5 -2.8 2.4-5.5 5-8.5 7.1 1.3 0.7 2.5 1.4 3.8 2.2 0.2-3.6 1.8-6.3 3.7-9.2 1.8-2.8-2.5-5.1-4.3-2.5 -0.7 1-1.6 1.9-2.6 2.6 1.1 1.1 2.3 2.3 3.4 3.4 0.9-2 1.6-4 2.5-6 1.1-2.4-1.9-5.3-3.9-3 -1.4 1.5-2.6 3-4 4.5 -2.2 2.4 1.1 5.7 3.5 3.5 3.2-2.9 5.9-6.2 9.5-8.6 -1.2-0.9-2.4-1.9-3.7-2.8 -0.2 0.6-0.5 1.3-0.7 1.9 -1.6 2.8 2.8 5.3 4.3 2.5 0.7-1.2 0.9-1.8 1.3-3.1 0.5-2-1.8-4.1-3.7-2.8 -3.9 2.7-7 6.2-10.5 9.4 1.2 1.2 2.4 2.4 3.5 3.5 1.4-1.5 2.6-3 4-4.5 -1.3-1-2.6-2-3.9-3 -0.9 2-1.6 4-2.5 6 -0.9 2 1.2 5.1 3.4 3.4 1.8-1.3 3.1-2.6 4.4-4.4 -1.4-0.8-2.9-1.7-4.3-2.5 -2.4 3.7-4 7.3-4.3 11.8 -0.1 1.8 2.3 3.2 3.8 2.2 3.4-2.4 6.4-5.2 9.5-7.9 -1.2-1.2-2.4-2.4-3.5-3.5 -3.5 4.5-7 9-10.5 13.5 1.3 1 2.6 2 3.9 3 2-3.9 4-7.7 4.8-12.1 0.4-2.3-1.6-3.7-3.7-2.8 -3 1.3-5 3.9-7 6.4 -2 2.5 1.4 6 3.5 3.5 4.1-4.6 8.2-9.1 13-13 -1.4-0.8-2.8-1.6-4.2-2.4 -1.3 6-4.3 11.7-2.5 17.8 0.4 1.4 2.3 2.4 3.7 1.5 5.1-3.6 9.3-7.8 12.9-12.9 1.5-2.2-1.4-4.5-3.4-3.4 -7.1 3.8-12 10.2-18 15.4C420.8 163.8 424.3 167.4 426.8 165.3L426.8 165.3z" fill="#DDE4D0"/><path d="M374 162c-10.5-0.1-21.3-1.9-31.3 2.3 -2.3 1-1.1 4.7 1.3 4.7 10.1-0.4 18.3-6.7 28.2-8.1 -0.4-1.6-0.9-3.2-1.3-4.8 -8.1 3.3-17 5.1-23.6 11.1 -1.6 1.5-0.3 4.2 1.8 4.3 6 0.1 11.1-3.2 17-3.5 -0.2-1.6-0.4-3.3-0.7-4.9 -7.1 2.1-14.3 3.3-21.1 6.3 -2.6 1.1-0.9 4.4 1.3 4.7 8.8 1.1 16.3-5.6 25-4.5 -0.4-1.6-0.8-3.1-1.3-4.7 -5.9 4.4-12.9 7.1-19.9 9.2 0.8 1.4 1.6 2.8 2.4 4.2 4.6-4.3 10.6-6.5 16.4-8.9 2-0.8 2.8-4.4 0-4.8 -5.2-0.7-10.4 0.7-15.4 1.9 -4.1 0.9-13 4.1-16.5 0.3 -0.4 1.4-0.7 2.8-1.1 4.2 4.2-1.2 8.7-0.7 13-1.5 2.1-0.4 2.5-3.6 0.6-4.6 -4.8-2.4-11.8-3-15.1-7.6 -1.8-2.6-6.2-0.1-4.3 2.5 4.1 5.8 11 6.4 16.9 9.4 0.2-1.5 0.4-3 0.6-4.6 -4.3 0.8-8.7 0.2-13 1.5 -1.9 0.6-2.4 2.8-1.1 4.2 3.6 4 9.6 3.2 14.4 2.4 6.3-1 13.4-4.2 19.8-3.3 0-1.6 0-3.2 0-4.8 -6.6 2.7-13.3 5.2-18.6 10.1 -1.8 1.7 0.1 4.9 2.4 4.2 7.3-2.3 14.9-5.1 21.1-9.8 2.1-1.5 1.3-4.4-1.3-4.7 -8.8-1.1-16.3 5.6-25 4.5 0.4 1.6 0.8 3.1 1.3 4.7 6.4-2.8 13.3-3.8 19.9-5.7 2.6-0.8 2.2-5.1-0.7-4.9 -5.9 0.3-11.1 3.6-17 3.5 0.6 1.4 1.2 2.8 1.8 4.3 5.9-5.4 14.2-6.9 21.4-9.9 3-1.2 1.9-5.3-1.3-4.8 -9.4 1.3-17.3 7.6-26.8 7.9 0.4 1.6 0.8 3.1 1.3 4.7 8.9-3.8 19.4-1.8 28.7-1.7C377.2 167 377.2 162 374 162L374 162z" fill="#DDE4D0"/><path d="M368.3 166.4c1.9 0.5 3.7 1.2 5.4 2.2 0-1.4 0-2.9 0-4.3 -2.1 1.2-4.7 1.1-7.1 0.7 0 1.6 0 3.2 0 4.8 2.3-0.5 4.5-0.9 6.8-0.9 3.2-0.1 3.2-5.1 0-5 -2.8 0-5.5 0.6-8.2 1.1 -2.3 0.5-2.4 4.4 0 4.8 3.7 0.6 7.5 0.6 10.9-1.3 1.7-0.9 1.5-3.3 0-4.3 -2-1.3-4.3-2.1-6.6-2.8C366.5 160.8 365.2 165.6 368.3 166.4L368.3 166.4z" fill="#DDE4D0"/><path d="M454.6 233.4c6.7-7.9 11.4-16.9 14.5-25.8 3.3-0.9 6.4-0.9 8.6-2.3 7.7-5.2 8-20.3 0.5-26.7 -0.4 1.8-0.7 3.5-1 5.1 -0.3 1.2-1.7 3-2 4.3 0.1 0.4 0.3 0.9 0.5 1.3 -0.5-0.3-0.6-0.8-0.5-1.3 -0.8-2.2-1.3-3.9-2-5.6 -2.6-5.7-5.7-10.8-9.3-15.3 -1.1 1.8-2.3 3.7-3.5 5.5 -1.9 2.8-4.5 5.4-7.2 7.9 -2.3 2.2-5.4 3.7-9.5 3.2 -1.2-0.1-2.4-0.1-3.5 0 -4.3 0.3-8.3-0.5-12.3-1.6 1.3 1.6 2 3.5 2.1 5.7 0.1 5-4.1 9.3-9.2 9.4 -5 0-9.3-4.1-9.4-9.2 0-3.8 2.3-7.2 5.7-8.6 -13.8-2.9-27.7-3.1-41.5-0.7 3.2 1.4 5.5 4.6 5.5 8.3 0.1 5-4.1 9.3-9.1 9.4 -5 0.1-9.3-4.1-9.4-9.2 0-2.3 0.8-4.4 2.3-6.1 -0.1 0-0.2 0.1-0.3 0.1 -6.4 1.8-12.7 2.8-19.6 2.6 -3.4-0.1-6-0.9-8.3-2.6 -1.3-1-2.5-2-3.6-3.2 -0.6-0.7-1.2-1.4-1.7-2.1 -4.3 3.8-7.2 8.1-9.2 12.5 -1.4-4.4-4.3-6.4-5.5-10 -8.4 5.8-7.4 23.4 1.5 27.7 1.2 0.6 2.8 1.1 3.9 0.8 2.7-0.8 3.4 0.7 4.1 2.8 3.1 8.8 7.7 16.7 13.7 23.8C369.4 268.8 425 268.7 454.6 233.4zM382.4 232.5c9.6 2.7 22.6 3 32 0.1 3.8-2.4 7.4-4.7 10.2-6.1 -2.1 2.7-5.8 4.7-10.2 6.1 -6.2 3.9-12.9 7.8-17.5 7.4C392.9 239.7 387.5 236 382.4 232.5c-4.8-1.4-8.8-3.4-11-5.9C374.3 227.1 378.3 229.7 382.4 232.5z" fill="none"/><path d="M336.5 181.3c2.3 1.7 4.9 2.6 8.3 2.6 6.8 0.1 13.2-0.8 19.6-2.6 0.1 0 0.2 0 0.3-0.1 -1.4 1.7-2.3 3.8-2.3 6.1 0.1 5 4.4 9.2 9.4 9.2 5-0.1 9.2-4.3 9.1-9.4 0-3.7-2.3-6.9-5.5-8.3 13.9-2.5 27.8-2.2 41.5 0.7 -3.3 1.4-5.7 4.8-5.7 8.6 0.1 5 4.3 9.2 9.4 9.2 5 0 9.2-4.3 9.2-9.4 0-2.1-0.8-4.1-2.1-5.7 4 1.2 8 1.9 12.3 1.6 1.2-0.1 2.4-0.1 3.5 0 4.1 0.5 7.2-1 9.5-3.2 2.7-2.5 5.3-5.1 7.2-7.9 1.2-1.8 2.4-3.6 3.5-5.5 -2.7-3.3-5.6-6.2-8.9-8.8V175H333v-0.5c-0.6 0.5-1.2 1-1.8 1.5 0.6 0.7 1.1 1.4 1.7 2.1C333.9 179.2 335.2 180.3 336.5 181.3zM360.1 97.6c14.1-6.6 28.8-10.5 44.5-9.2 9.1 0.7 17.5 3.1 22.7 11.6 0.5 0.8 7.5 1.2 8.5 1.6 18.9 7.5 30.8 19.5 37.3 36.6 0-2.9 0-5.8 0.1-8.7 0-0.3 0.1-0.5 0.2-0.8 0-4.6 0-9.3 0-13.9 -0.3-1.6-0.5-3.3-0.9-4.9 -2.8-13.8-12.6-24-28.6-31 -9.7-4.2-20.2-6.4-31.2-7.7 -0.3 0-0.6-0.1-0.9-0.1 -2 0-3.4-0.5-4.5-1.9 -1.4-1.7-3.9-2.6-6.5-3.1 -6.2-1.2-12.1-1-17.5 1.9 -0.9 0.5-1.7 1.3-2.3 2 -0.5 0.6-1 0.9-1.9 0.9 -10.7 1-21.1 3-30.8 6.8 -15.8 6.1-26.4 15.4-30.6 28.6 -1.3 4-1.7 8.1-1.7 12.2 0 5.2-0.1 10.4-0.2 15.5 0 0.5-0.1 1.1-0.2 1.6 0 3.7 0 7.4 0 11.1 0.3 0.9 0.6 1.8 0.9 2.7 1.3-6.2 3.4-12.2 6.6-18C331.6 115.8 344.4 105 360.1 97.6zM475.7 189.4c-0.2-0.5-0.3-0.9-0.5-1.3C475.1 188.7 475.2 189.2 475.7 189.4zM306.3 267.1c-6.1 13.1-11.4 27.3-11.3 41.9 66.9 0 139.3-1.4 206-1.4 0-14.7-6.9-27.5-13-40.5 -6.1-13.1-14.9-24.3-25.4-33.6 3-5.3 5.9-9.9 8.2-14.9 1.6-3.4 3.4-5.5 7.2-7 13.5-5.4 15.7-28.7 3.6-38 -2.1-1.6-2.4-3.1-2.5-5.6 -0.7-11.3-2.6-21.3-5.9-29.9 -6.5-17.1-18.4-29.1-37.3-36.6 -1-0.4-8-0.8-8.5-1.6 -5.3-8.5-13.7-10.9-22.7-11.6 -15.7-1.3-30.5 2.6-44.5 9.2 -15.7 7.4-28.5 18.2-36.9 33.7 -3.2 5.8-5.3 11.8-6.6 18 -1.2 6.1-1.6 12.3-1.2 18.8 0.1 1.4-0.3 3.5-1.2 4.2 -7.7 5.7-9.9 13.5-9 22.5 0.8 9 6 15.3 14.5 18 0.8 0.3 1.7 1 2.1 1.8 3.3 6.1 6.4 12.3 9.9 19.1C321 242.8 312.4 254 306.3 267.1zM326.1 209.7c-0.7-2.1-1.4-3.5-4.1-2.8 -1.2 0.3-2.7-0.2-3.9-0.8 -8.9-4.3-10-21.9-1.5-27.7 1.2 3.7 4.1 5.6 5.5 10 2-4.4 5-8.7 9.2-12.5 0.6-0.5 1.2-1 1.8-1.5V175h122v-16.6c3.2 2.6 6.2 5.6 8.9 8.8 3.6 4.5 6.7 9.5 9.3 15.3 0.7 1.6 1.3 3.3 2 5.6 0.3-1.3 1.7-3.1 2-4.3 0.4-1.6 0.7-3.3 1-5.1 7.5 6.3 7.2 21.5-0.5 26.7 -2.2 1.4-5.3 1.5-8.6 2.3 -3.1 8.9-7.8 17.8-14.5 25.8 -29.6 35.3-85.2 35.4-114.8 0.1C333.8 226.4 329.2 218.5 326.1 209.7zM424.6 226.6c-2.8 1.3-6.4 3.7-10.2 6.1C418.8 231.3 422.5 229.4 424.6 226.6zM414.4 232.7c-9.4 2.8-22.4 2.6-32-0.1 5.1 3.5 10.5 7.2 14.5 7.5C401.5 240.5 408.2 236.6 414.4 232.7zM382.4 232.5c-4.2-2.8-8.1-5.5-11-5.9C373.6 229.2 377.6 231.2 382.4 232.5z" fill="#DDE4D0"/></svg>