<svg version="1.1" id="Layer_1" xmlns="http://www.w3.org/2000/svg" xmlns:xlink="http://www.w3.org/1999/xlink" x="0px" y="0px"
 viewBox="0 0 768 430" enable-background="new 0 0 768 430" xml:space="preserve">
<g>
	<path fill="#014958" d="M447.479,82.448c-1.106,17.552-26.757,29.695-57.289,27.123c-30.533-2.574-54.387-18.887-53.279-36.439
		c1.107-17.552,26.756-29.695,57.29-27.122C424.733,48.582,448.586,64.896,447.479,82.448z"/>
	<polygon fill="#EFC4B1" points="322.896,370.968 293.968,370.968 291.649,362.959 320.403,362.959 	"/>
	<path fill="#FDB996" d="M375.815,192.349c0,0,95.17-45.431,104.177-47.781c9.008-2.349,14.492,11.75,1.567,21.149
		c-12.925,9.4-99.87,65.796-99.87,65.796L375.815,192.349z"/>
	<g>
		<path fill="#703D3A" d="M421.405,110.647c4.504,8.623,5.289,17.997,2.519,27.298c-2.595,8.716,10.95,12.636,13.542,3.937
			c3.838-12.889,2.431-26.283-3.788-38.181C429.478,95.663,417.198,102.596,421.405,110.647L421.405,110.647z"/>
	</g>
	<path fill="#FDB996" d="M508.822,158.802c1.567-0.667,3.098-1.422,4.586-2.253c2.522-1.409,5.738-3.032,7.323-5.538
		c0.58-0.919,0.753-2.181,0.137-3.075c-0.682-0.987-2.056-1.213-3.248-1.078c-1.191,0.136-2.359,0.543-3.558,0.476
		c2.048-0.868,3.96-2.051,5.654-3.49c3.806-3.233,7.731-7.846,8.729-12.872c0.146-0.734,0.228-1.499,0.053-2.227
		c-0.175-0.727-0.646-1.417-1.343-1.691c-1.231-0.485-2.536,0.432-3.521,1.317c0.89-1.707,1.584-3.611,1.358-5.523
		c-0.175-1.494-0.988-2.969-2.324-3.659c-1.338-0.689-3.193-0.393-4.041,0.849c-0.49-2.035-1.773-3.361-3.988-3.037
		c-1.18,0.172-2.253,0.767-3.268,1.394c-4.04,2.494-7.626,5.654-11.537,8.344c-6.939,4.774-15.206,8.698-20.178,15.84
		c-3.1,4.451-3.73,10.729-0.149,15.166c1.56,1.932,3.919,2.799,6.252,3.392c6.23,1.584,12.809,1.097,18.911-0.806
		C506.08,159.892,507.465,159.38,508.822,158.802z"/>
	<path fill="#014958" d="M290.02,364.246c0,0-11.572-22.681-11.572-45.396c0-22.717,20.366-52.873,20.366-52.873l100.261,12.143
		c0,0,12.092,40.927,23.107,51.305c11.014,10.378,26.142,30.01,26.142,30.01l-26.926,7.588L355.994,316.5l-27.806-6.259
		c0,0-13.121,8.217-13.708,21.142c-0.587,12.924,9.783,38.318,9.783,38.318L290.02,364.246z"/>
	<g opacity="0.1">
		<g>
			<g>
				<path d="M517.747,146.858c-0.999,0.114-1.981,0.403-2.979,0.459c0.201,0.786,0,1.686-0.443,2.388
					c-1.585,2.505-4.801,4.128-7.324,5.538c-1.487,0.831-3.018,1.586-4.584,2.253c-1.358,0.579-2.742,1.091-4.151,1.53
					c-5.965,1.86-12.382,2.353-18.487,0.897c-1.16,1.554-2.682,3.075-4.625,4.488c-10.9,7.928-74.461,49.291-94.094,62.046
					l0.758,5.057c0,0,86.946-56.396,99.869-65.796c1.945-1.413,3.464-2.935,4.627-4.489c6.105,1.457,12.521,0.963,18.487-0.896
					c1.408-0.44,2.791-0.952,4.148-1.53c1.568-0.667,3.1-1.422,4.586-2.253c2.523-1.409,5.74-3.032,7.324-5.538
					c0.581-0.919,0.754-2.181,0.136-3.075C520.313,146.949,518.938,146.722,517.747,146.858z"/>
			</g>
		</g>
	</g>
	<g opacity="0.1">
		<g>
			<g>
				<path d="M297.396,364.246c0,0-11.571-22.681-11.571-45.396c0-20.508,16.595-47.075,19.822-52.045l-6.833-0.828
					c0,0-20.366,30.156-20.366,52.873c0,22.715,11.572,45.396,11.572,45.396l34.242,5.455c0,0-0.185-0.455-0.499-1.256
					L297.396,364.246z"/>
			</g>
			<g>
				<path d="M363.37,316.5l-27.806-6.259c0,0-0.697,0.437-1.77,1.262l22.199,4.997l65.405,50.522l5.405-1.523L363.37,316.5z"/>
			</g>
		</g>
	</g>
	
		<ellipse transform="matrix(0.9974 0.0724 -0.0724 0.9974 11.4827 -30.931)" fill="#FDB996" cx="432.29" cy="142.885" rx="17.55" ry="21.442"/>
	
		<ellipse transform="matrix(0.9974 0.0724 -0.0724 0.9974 11.4778 -30.919)" fill="#FD927E" cx="432.29" cy="142.885" rx="9.645" ry="11.784"/>
	
		<ellipse transform="matrix(0.9974 0.0724 -0.0724 0.9974 10.1637 -18.959)" fill="#FDB996" cx="266.529" cy="130.679" rx="17.55" ry="21.442"/>
	
		<ellipse transform="matrix(0.9974 0.0724 -0.0724 0.9974 10.163 -18.9579)" fill="#FD927E" cx="266.529" cy="130.678" rx="9.645" ry="11.784"/>
	<polygon fill="#4CC4A8" points="373.298,192.593 419.445,172.927 428.057,212.127 381.648,237.976 	"/>
	<path fill="#FDB996" d="M301.68,222.897c0,0-42.298-10.575-50.914-25.066c-8.617-14.49,12.703-25.341,24.281-20.265
		c11.58,5.077,43.473,15.958,43.473,15.958L301.68,222.897z"/>
	
		<ellipse transform="matrix(0.9974 0.0724 -0.0724 0.9974 10.1637 -18.959)" opacity="0.1" cx="266.529" cy="130.679" rx="17.55" ry="21.442"/>
	<path opacity="0.1" d="M301.68,222.897c0,0-42.298-10.575-50.914-25.066c-8.617-14.49,12.703-25.341,24.281-20.265
		c11.58,5.077,43.473,15.958,43.473,15.958L301.68,222.897z"/>
	<path fill="none" stroke="#206F80" stroke-width="1.3576" stroke-miterlimit="10" d="M445.672,360.025
		c-5.281-5.208-10.561-10.424-16.248-15.18c-14.463-12.093-26.019-26.936-30.266-45.629"/>
	<path fill="none" stroke="#206F80" stroke-width="1.3576" stroke-miterlimit="10" d="M342.943,313.266
		c-2.502-7.473-2-16.225-0.062-23.751"/>
	<polygon fill="#4CC4A8" points="326.387,194.999 299.262,187.911 267.482,218.295 304.982,231.514 	"/>
	<path fill="#4CC4A8" d="M410.04,300.051c-3.556-21.776-14.646-64.265-19.833-76.146c-4.49-10.291-8.587-21.419-15.883-30.136
		c-30.223-36.106-73.37,8.371-80.652,40.343c-2.712,11.914-5.237,31.866-5.192,50.096c0,0,9.159,8.109,53.219,13.984
		C385.759,304.064,410.04,300.051,410.04,300.051z"/>
	<path opacity="0.1" d="M341.255,216.699c35.201,0,65.346-16.954,77.957-41.028l-0.603-2.745l-46.149,19.667l0,0
		c-16.969-19.084-37.765-13.563-53.997,0.553l-20.038-5.235l-12.836,12.272C300.438,210.456,319.912,216.699,341.255,216.699z"/>
	<path opacity="0.1" d="M348.597,294.182c-44.06-5.875-50.172-25.363-50.172-25.363c-2.812-18.702-0.567-26.802,2.146-38.717
		c3.651-16.034,16.324-35.213,31.865-45.796c-18.586,8.988-34.584,31.453-38.763,49.806c-2.712,11.914-5.237,31.866-5.192,50.096
		c0,0,9.159,8.109,53.219,13.984c44.06,5.873,68.341,1.859,68.341,1.859c-0.167-1.024-0.356-2.111-0.555-3.223
		C399.187,297.602,378.434,298.159,348.597,294.182z"/>
	<ellipse fill="#FDB996" cx="348.235" cy="137.52" rx="84.277" ry="66.187"/>
	<g>
		<path fill="#703D3A" d="M416.098,119.523c4.311,8.723,4.69,18.164,1.749,27.367c-2.768,8.664,10.841,12.373,13.596,3.749
			c4.11-12.866,2.781-26.185-3.17-38.231C424.254,104.272,412.089,111.409,416.098,119.523L416.098,119.523z"/>
	</g>
	<g>
		<path fill="#703D3A" d="M275.072,129.931c-1.312-9.594,1.765-18.773,7.414-26.44c5.388-7.311-6.843-14.351-12.173-7.116
			c-8.06,10.937-10.655,23.997-8.836,37.304c0.52,3.801,5.344,5.801,8.672,4.924C274.228,137.527,275.585,133.686,275.072,129.931
			L275.072,129.931z"/>
	</g>
	<path opacity="0.1" d="M349.227,130.932c-46.472,2.409-86.447-18.926-85.355-23.243c-1.701,6.625-2.868,8.943-2.651,12.322
		c0.84,13.138,38.642,21.617,85.114,19.209c46.032-2.386,86.026-19.139,85.956-36.9
		C422.741,115.296,387.628,128.942,349.227,130.932z"/>
	<path fill="#F9A01B" d="M432.29,102.32c0.222,8.772-36.601,26.204-83.075,28.612c-46.473,2.409-85.257-16.129-85.356-23.243
		c-0.47-33.931,34.984-63.336,81.458-65.745C391.789,39.535,431.433,68.397,432.29,102.32z"/>
	<path fill="#703D3A" d="M367.556,115.619c0,16.741-11.591,13.445-25.888,13.445c-14.298,0-25.889,3.295-25.889-13.445
		s11.591-30.312,25.889-30.312C355.964,85.307,367.556,98.878,367.556,115.619z"/>
	<path opacity="0.1" d="M341.667,85.307c-5.188,0-10.017,1.794-14.067,4.871c2.975-1.397,6.221-2.173,9.623-2.173
		c14.298,0,25.888,13.571,25.888,30.311c0,4.967-1.026,8.161-2.834,10.209c4.502-1.333,7.279-4.722,7.279-12.907
		C367.556,98.878,355.964,85.307,341.667,85.307z"/>
	<path fill="#D07F44" d="M368.484,129.352c-6.18,0.708-12.632,1.185-19.269,1.581c-14.47,0.864-22.667-0.585-32.803-1.624
		l-0.634-14.453c10.136,1.039,21.187,2.227,32.804,1.624c6.638-0.344,13.089-0.874,19.268-1.581L368.484,129.352z"/>
	<path fill="#FFFFFF" d="M324.956,393.066h-47.437c-1.866,0-3.378-1.511-3.378-3.378l0,0c0-1.865,1.512-3.379,3.378-3.379h47.437
		c1.867,0,3.378,1.514,3.378,3.379l0,0C328.334,391.556,326.822,393.066,324.956,393.066z"/>
	<path fill="#FFFFFF" d="M464.48,393.066h-30.107c-1.867,0-3.378-1.511-3.378-3.378l0,0c0-1.865,1.511-3.379,3.378-3.379h30.107
		c1.864,0,3.377,1.514,3.377,3.379l0,0C467.857,391.556,466.345,393.066,464.48,393.066z"/>
	<polygon fill="#D07F44" points="465.654,386.31 433.196,386.31 427.909,369.899 454.346,366.704 	"/>
	<polygon fill="#EFC4B1" points="451.996,367.365 428.002,370.188 423.315,366.482 446.781,359.869 	"/>
	
		<ellipse transform="matrix(0.9935 -0.1135 0.1135 0.9935 -39.0605 52.6849)" fill="#D07F44" cx="443.215" cy="369.422" rx="11.634" ry="6.682"/>
	<path fill="#F9A01B" d="M326.572,386.31h-50.669v-0.002c0-9.137,7.406-16.543,16.543-16.543h30.16L326.572,386.31z"/>
	<path fill="#F9A01B" d="M465.654,386.31h-32.458v-0.002c0-9.137,8.394-16.543,14.247-16.543h4.405
		c5.853,0,13.806,7.406,13.806,16.543V386.31z"/>
	<g>
		<path fill="#151D32" d="M360.848,144.865c0,0,0.332,0.547,0.865,1.438c0.268,0.443,0.583,0.973,0.956,1.521
			c0.368,0.54,0.819,1.125,1.274,1.464c0.115,0.082,0.224,0.135,0.314,0.173c0.046,0.016,0.086,0.01,0.123,0.019l0.013,0.002
			l0.003,0c-0.039-0.033,0.092,0.075-0.086-0.074l0.02,0.01l0.079,0.037l0.159,0.076c0.214,0.1,0.428,0.204,0.641,0.317
			c0.174,0.057,0.312,0.072,0.46,0.113c0.631,0.161,1.391,0.301,2.138,0.333c0.768,0.022,1.591-0.024,2.488-0.133
			c0.895-0.119,1.859-0.275,2.891-0.487l1.619-0.297l0.433-0.08l0.218-0.038l0.109-0.016l0.027-0.004
			c0.019-0.004-0.118,0.024-0.054,0.012l0.013-0.002l0.052-0.008l0.832-0.133c0.867-0.159,1.844-0.342,2.752-0.561
			c1.83-0.433,3.559-0.97,5.079-1.514c0.76-0.272,1.472-0.542,2.104-0.805c0.639-0.256,1.208-0.498,1.68-0.708
			c0.475-0.208,0.87-0.368,1.128-0.492c0.272-0.114,0.418-0.175,0.418-0.175s-0.035,0.155-0.125,0.434
			c-0.094,0.276-0.215,0.701-0.445,1.193c-0.215,0.507-0.526,1.094-0.937,1.74c-0.405,0.651-0.931,1.338-1.563,2.047
			c-0.64,0.697-1.389,1.415-2.26,2.077c-0.871,0.661-1.846,1.301-2.923,1.835c-1.081,0.539-2.208,1.012-3.516,1.37l-0.813,0.222
			l-0.462,0.112l-0.397,0.088c-0.549,0.121-1.117,0.256-1.717,0.369c-1.199,0.208-2.486,0.388-3.824,0.378
			c-1.333,0-2.725-0.158-4.043-0.577c-1.337-0.413-2.506-1.055-3.552-1.886c-0.263-0.22-0.541-0.451-0.759-0.659
			c-0.16-0.18-0.312-0.364-0.459-0.548l-0.111-0.137l-0.055-0.068l-0.014-0.017c-0.183-0.153-0.058-0.051-0.102-0.088l-0.012-0.015
			l-0.047-0.058c-0.121-0.153-0.248-0.309-0.347-0.46c-0.196-0.301-0.346-0.597-0.452-0.879c-0.428-1.121-0.475-2.036-0.473-2.826
			c0.011-0.787,0.102-1.445,0.206-1.981c0.095-0.534,0.234-0.95,0.307-1.229C360.798,145.014,360.848,144.865,360.848,144.865z"/>
	</g>
	<g>
		<path fill="#151D32" d="M290.76,143.518c0,0,0.253,0.587,0.659,1.544c0.205,0.476,0.444,1.044,0.737,1.639
			c0.29,0.585,0.656,1.228,1.06,1.626c0.103,0.098,0.203,0.165,0.287,0.215c0.043,0.022,0.084,0.022,0.119,0.036l0.013,0.004
			l0.003,0.001c-0.034-0.039,0.081,0.087-0.076-0.085l0.018,0.012l0.073,0.048l0.146,0.096c0.198,0.128,0.396,0.262,0.591,0.403
			c0.165,0.08,0.299,0.114,0.44,0.175c0.603,0.247,1.336,0.49,2.072,0.625c0.757,0.128,1.579,0.195,2.482,0.211
			c0.903,0.005,1.879-0.016,2.931-0.083l1.645-0.071l0.44-0.019l0.221-0.007l0.11-0.001h0.028c0.02-0.001-0.119,0.008-0.054,0.004
			h0.013l0.053-0.001l0.842-0.018c0.881-0.037,1.874-0.084,2.803-0.175c1.872-0.176,3.658-0.47,5.24-0.798
			c0.79-0.164,1.532-0.333,2.194-0.506c0.668-0.166,1.265-0.326,1.761-0.469c0.499-0.141,0.913-0.244,1.185-0.332
			c0.286-0.075,0.438-0.115,0.438-0.115s-0.057,0.149-0.184,0.413c-0.131,0.26-0.31,0.664-0.606,1.12
			c-0.283,0.473-0.672,1.011-1.167,1.594c-0.492,0.589-1.107,1.197-1.831,1.812c-0.73,0.602-1.571,1.209-2.525,1.745
			c-0.954,0.535-2.008,1.034-3.148,1.414c-1.145,0.384-2.326,0.697-3.671,0.872l-0.836,0.107l-0.472,0.047l-0.406,0.032
			c-0.561,0.044-1.142,0.099-1.751,0.129c-1.216,0.041-2.515,0.041-3.84-0.154c-1.321-0.184-2.677-0.532-3.924-1.129
			c-1.267-0.594-2.337-1.391-3.258-2.358c-0.23-0.255-0.473-0.521-0.661-0.758c-0.133-0.201-0.259-0.404-0.379-0.607l-0.091-0.15
			l-0.045-0.075l-0.011-0.019c-0.161-0.178-0.05-0.059-0.088-0.103l-0.01-0.016l-0.039-0.064c-0.099-0.168-0.203-0.34-0.28-0.503
			c-0.152-0.326-0.26-0.639-0.326-0.934c-0.269-1.169-0.188-2.081-0.078-2.863c0.12-0.778,0.301-1.417,0.478-1.934
			c0.168-0.516,0.363-0.908,0.474-1.174C290.69,143.658,290.76,143.518,290.76,143.518z"/>
	</g>
	<g>
		<path fill="#FC937E" d="M321.187,170.337c0,0,0.009-0.14,0.024-0.401c0.032-0.253,0.045-0.636,0.133-1.103
			c0.072-0.473,0.202-1.033,0.391-1.674c0.203-0.639,0.481-1.356,0.915-2.121c0.442-0.756,1.029-1.573,1.873-2.311
			c0.426-0.31,0.864-0.629,1.312-0.955c0.212-0.134,0.292-0.26,0.652-0.395c0.306-0.133,0.622-0.263,0.947-0.389
			c0.322-0.121,0.662-0.258,0.991-0.352c0.294-0.059,0.59-0.119,0.888-0.178c0.302-0.056,0.605-0.112,0.91-0.168
			c0.305-0.047,0.594-0.034,0.896-0.052c1.213-0.081,2.375,0.04,3.498,0.231c1.118,0.204,2.166,0.509,3.167,0.856
			c0.486,0.184,0.962,0.379,1.428,0.583l0.237,0.097l0.16,0.076l0.318,0.152c0.213,0.096,0.417,0.213,0.623,0.318
			c0.408,0.222,0.817,0.416,1.203,0.649c0.391,0.232,0.822,0.501,1.202,0.76c0.771,0.534,1.496,1.004,2.088,1.591
			c0.6,0.562,1.123,1.092,1.561,1.577c0.419,0.527,0.739,1.035,0.991,1.442c0.498,0.828,0.708,1.329,0.708,1.329
			s-0.591-0.061-1.496-0.215c-0.456-0.074-0.968-0.196-1.554-0.308c-0.615-0.077-1.28-0.18-1.975-0.309
			c-0.676-0.162-1.461-0.218-2.228-0.365c-0.806-0.154-1.655-0.317-2.534-0.485c-0.227-0.048-0.458-0.087-0.684-0.147l-0.343-0.083
			l-0.172-0.042l-0.021-0.005c-0.061-0.021,0.071,0.025,0.054,0.02l-0.01-0.002l-0.041-0.008l-0.081-0.016
			c-0.435-0.081-0.87-0.173-1.303-0.28c-0.854-0.174-1.701-0.364-2.511-0.508c-0.804-0.135-1.591-0.282-2.307-0.334
			c-0.378-0.054-0.714-0.056-1.049-0.063l-0.511-0.024c-0.124,0.012-0.229,0.008-0.35,0.003c-0.119-0.005-0.242-0.017-0.371-0.031
			c-0.057-0.016-0.128-0.016-0.253,0.029l-0.327,0.088c-0.217,0.059-0.431,0.116-0.643,0.173l-0.316,0.085l-0.079,0.02l-0.01,0.002
			c0.092-0.05-0.221,0.116,0.204-0.112l-0.014,0.004l-0.027,0.008l-0.109,0.034c-0.587,0.153-1.184,0.417-1.762,0.713
			c-1.161,0.599-2.221,1.348-3.001,1.832C321.69,170.067,321.187,170.337,321.187,170.337z"/>
	</g>
	<g>
		<defs>
			<path id="SVGID_1_" d="M368.054,177.339c1.898,11.27-0.809,19.865-11.815,21.718c-11.006,1.852-26.142-8.372-28.042-15.006"/>
		</defs>
		<use xlink:href="#SVGID_1_"  overflow="visible" fill="#633A43"/>
		<clipPath id="SVGID_2_">
			<use xlink:href="#SVGID_1_"  overflow="visible"/>
		</clipPath>
		
			<ellipse transform="matrix(0.9861 -0.166 0.166 0.9861 -28.0248 61.1023)" clip-path="url(#SVGID_2_)" fill="#ED5A4F" cx="351.493" cy="198.191" rx="14.059" ry="8.097"/>
	</g>
	<g>
		<circle fill="#F9A01B" cx="342.38" cy="123.994" r="1.912"/>
		<circle fill="#F9A01B" cx="352.528" cy="123.239" r="1.912"/>
		<circle fill="#F9A01B" cx="332.233" cy="123.616" r="1.912"/>
		<circle fill="#F9A01B" cx="322.085" cy="122.861" r="1.912"/>
	</g>
	
		<ellipse transform="matrix(0.9577 -0.2877 0.2877 0.9577 -30.8186 119.5238)" fill="#FD927E" cx="391.285" cy="164.626" rx="9.408" ry="5.686"/>
	
		<ellipse transform="matrix(0.9482 0.3176 -0.3176 0.9482 67.0471 -82.1956)" fill="#FD927E" cx="285.589" cy="164.512" rx="9.408" ry="5.687"/>
	<path fill="#FDB996" d="M250.068,187.926c1.322-3.744,4.042-7.373,7.32-10.001c13.362-10.709,28.481-18.799,44.384-25.089
		c11.558-4.573,24.197-9.825,36.602-11.29c1.486-0.174,3.005-0.279,4.467,0.037c2.295,0.497,4.132,2.217,4.804,4.467
		c3.358,11.25-10.136,18.815-17.51,24.382c-11.376,8.59-23.336,16.398-35.698,23.494c-11.187,6.423-23.555,13.967-36.924,9.05
		C249.378,199.984,247.99,193.814,250.068,187.926z"/>
	<path fill="#FDB996" d="M360.427,156.652c1.568-0.667,3.098-1.423,4.586-2.253c2.522-1.409,5.739-3.032,7.323-5.538
		c0.582-0.918,0.754-2.18,0.137-3.075c-0.682-0.987-2.056-1.213-3.248-1.078c-1.19,0.136-2.359,0.542-3.557,0.476
		c2.047-0.868,3.961-2.051,5.654-3.491c3.805-3.232,7.73-7.846,8.729-12.871c0.146-0.735,0.228-1.5,0.054-2.227
		c-0.176-0.728-0.647-1.417-1.343-1.692c-1.231-0.485-2.537,0.432-3.52,1.317c0.89-1.707,1.581-3.612,1.358-5.523
		c-0.176-1.494-0.989-2.969-2.324-3.659c-1.338-0.689-3.192-0.393-4.041,0.849c-0.492-2.035-1.775-3.36-3.989-3.037
		c-1.18,0.173-2.252,0.767-3.268,1.395c-4.04,2.494-7.626,5.653-11.538,8.344c-6.938,4.773-15.207,8.697-20.178,15.84
		c-3.098,4.451-3.729,10.729-0.148,15.166c1.561,1.933,3.919,2.8,6.251,3.393c6.231,1.584,12.81,1.096,18.913-0.807
		C357.686,157.743,359.07,157.23,360.427,156.652z"/>
	<g opacity="0.1">
		<g>
			<g>
				<path d="M369.465,144.691c-0.005,0.009-0.011,0.021-0.016,0.03c-1.584,2.506-4.801,4.129-7.325,5.539
					c-1.486,0.83-3.018,1.585-4.585,2.253c-1.357,0.578-2.741,1.09-4.149,1.53c-4.164,1.298-8.547,1.916-12.892,1.688
					c-3.916,4.221-9.411,7.664-13.25,10.562c-11.377,8.589-23.338,16.398-35.698,23.494c-11.187,6.422-23.554,13.965-36.925,9.049
					c-1.997-0.734-3.583-1.663-4.814-2.729c1.021,2.832,3.419,5.293,7.703,6.868c13.37,4.917,25.737-2.626,36.924-9.05
					c12.361-7.096,24.322-14.903,35.698-23.494c3.84-2.898,9.335-6.341,13.25-10.562c4.345,0.228,8.729-0.39,12.892-1.688
					c1.408-0.439,2.793-0.952,4.15-1.53c1.568-0.667,3.098-1.423,4.586-2.253c2.522-1.409,5.739-3.032,7.323-5.538
					c0.582-0.918,0.754-2.18,0.137-3.075C371.837,144.865,370.597,144.611,369.465,144.691z"/>
			</g>
		</g>
	</g>
	<g>
		<path fill="#FC937E" d="M349.173,133.177c0,0,0.306-0.125,0.843-0.289c0.269-0.079,0.595-0.184,0.969-0.271
			c0.187-0.047,0.386-0.097,0.596-0.149c0.218-0.031,0.454-0.031,0.701-0.048c0.494-0.028,1.041-0.057,1.625-0.053
			c0.589-0.009,1.156,0.137,1.775,0.23c0.613,0.107,1.252,0.216,1.854,0.481c0.635,0.241,1.189,0.445,1.891,0.774
			c0.533,0.312,1.057,0.582,1.648,1.069c0.598,0.404,1.035,0.959,1.487,1.446c0.192,0.285,0.375,0.573,0.539,0.856l0.242,0.418
			l0.034,0.062l0.002,0.006l0.004,0.012l0.009,0.024l0.018,0.048l0.036,0.095l0.067,0.191c0.085,0.217,0.184,0.607,0.247,0.898
			c0.052,0.306,0.059,0.583,0.081,0.852c-0.015,0.274-0.011,0.53-0.047,0.771c-0.053,0.243-0.1,0.468-0.156,0.673
			c-0.137,0.413-0.303,0.741-0.482,0.987c-0.142,0.258-0.348,0.404-0.447,0.516c-0.113,0.103-0.173,0.157-0.173,0.157
			s0.013-0.082,0.037-0.234c0.022-0.15,0.077-0.353,0.075-0.621c0.028-0.258-0.014-0.573-0.043-0.907
			c-0.063-0.341-0.169-0.702-0.3-1.077c-0.09-0.18-0.169-0.38-0.271-0.549c-0.124-0.171-0.154-0.288-0.339-0.531l-0.116-0.166
			l-0.057-0.084l-0.028-0.042l-0.015-0.021l-0.007-0.011l-0.004-0.005c-0.029-0.052,0.036,0.065,0.028,0.052l-0.248-0.248
			c-0.169-0.163-0.314-0.343-0.479-0.512c-0.406-0.291-0.762-0.649-1.202-0.895c-0.368-0.268-0.94-0.574-1.483-0.87
			c-0.417-0.193-1.016-0.44-1.498-0.681c-0.497-0.273-1.027-0.434-1.536-0.618c-0.508-0.164-1.001-0.426-1.471-0.537
			c-0.47-0.121-0.92-0.268-1.347-0.405c-0.216-0.069-0.423-0.136-0.62-0.199c-0.212-0.043-0.414-0.083-0.603-0.122
			c-0.378-0.069-0.708-0.159-0.98-0.225C349.484,133.287,349.173,133.177,349.173,133.177z"/>
	</g>
	<g>
		<path fill="#FC937E" d="M373.078,130.87c0,0,0.021,0.239,0.007,0.635c0.005,0.195-0.046,0.441-0.128,0.727
			c-0.071,0.303-0.189,0.604-0.344,0.924c-0.304,0.647-0.8,1.322-1.426,1.927c-0.313,0.302-0.654,0.595-1.026,0.847
			c-0.36,0.278-0.762,0.482-1.153,0.713c-0.806,0.405-1.647,0.725-2.461,0.914c-0.813,0.193-1.593,0.275-2.268,0.27
			c-0.675-0.005-1.24-0.087-1.632-0.177c-0.393-0.091-0.614-0.177-0.614-0.177s0.193-0.15,0.523-0.355
			c0.329-0.215,0.792-0.495,1.333-0.815c1.087-0.626,2.493-1.363,3.865-2.065c0.334-0.184,0.687-0.35,1.009-0.534
			c0.334-0.175,0.653-0.354,0.965-0.526c0.314-0.171,0.602-0.352,0.892-0.514c0.262-0.182,0.561-0.328,0.786-0.503
			c0.241-0.167,0.487-0.312,0.665-0.458c0.183-0.149,0.391-0.267,0.525-0.417C372.884,131.012,373.078,130.87,373.078,130.87z"/>
	</g>
	<g>
		<path fill="#FC937E" d="M368.022,122.861c0,0,0.07,0.277,0.138,0.752c0.05,0.232,0.046,0.531-0.001,0.895
			c-0.021,0.179-0.037,0.383-0.073,0.586c-0.045,0.191-0.112,0.387-0.175,0.598c-0.111,0.435-0.318,0.849-0.543,1.3
			c-0.24,0.431-0.526,0.871-0.853,1.288c-0.329,0.415-0.687,0.829-1.081,1.2c-0.394,0.403-0.778,0.712-1.245,1.099
			c-0.418,0.31-0.834,0.624-1.26,0.91c-0.396,0.299-0.917,0.554-1.364,0.802c-0.468,0.234-0.895,0.492-1.361,0.631
			c-0.453,0.16-0.89,0.286-1.288,0.396c-0.202,0.051-0.382,0.123-0.574,0.147c-0.193,0.018-0.376,0.035-0.549,0.051
			c-0.339,0.037-0.639,0.041-0.881,0.047c-0.484,0.011-0.758-0.018-0.758-0.018s0.217-0.203,0.592-0.496
			c0.188-0.145,0.409-0.327,0.667-0.501c0.258-0.176,0.54-0.38,0.832-0.639c0.294-0.25,0.609-0.514,0.949-0.767
			c0.351-0.233,0.666-0.573,1.027-0.853c0.357-0.305,0.717-0.551,1.116-0.901c0.389-0.335,0.802-0.652,1.211-0.974
			c0.38-0.301,0.76-0.602,1.135-0.898c0.382-0.3,0.738-0.599,1.086-0.887c0.342-0.292,0.665-0.578,0.966-0.856
			c0.275-0.29,0.595-0.544,0.812-0.822c0.243-0.276,0.468-0.52,0.626-0.754c0.172-0.232,0.362-0.453,0.458-0.678
			C367.86,123.097,368.022,122.861,368.022,122.861z"/>
	</g>
	<path fill="none" stroke="#206F80" stroke-width="1.3576" stroke-miterlimit="10" d="M316.398,368.276
		c-0.784-1.661-1.475-3.364-2.115-5.085c-3.708-9.968-6.146-20.238-6.603-30.879c-0.236-5.506,1.302-11.081,3.971-15.878
		c2.606-4.682,4.564-7.658,8.34-11.46"/>
	<g>
		<path fill="#FC937E" d="M367.598,145.257c0,0-0.094,0.165-0.278,0.402c-0.183,0.241-0.458,0.552-0.806,0.881
			c-0.696,0.655-1.713,1.311-2.814,1.758c-1.191,0.353-2.46,0.488-3.433,0.407c-0.487-0.041-0.896-0.117-1.186-0.195
			c-0.289-0.074-0.458-0.148-0.458-0.148s0.116-0.157,0.328-0.375c0.21-0.223,0.514-0.506,0.883-0.794
			c0.741-0.577,1.754-1.102,2.847-1.41c1.103-0.444,2.289-0.68,3.245-0.693c0.479-0.006,0.893,0.027,1.191,0.073
			C367.416,145.204,367.598,145.257,367.598,145.257z"/>
	</g>
	<g>
		<path fill="#FC937E" d="M523.346,129.064c0,0,0.021,0.239,0.007,0.635c0.005,0.195-0.046,0.441-0.129,0.727
			c-0.071,0.302-0.189,0.604-0.344,0.924c-0.304,0.648-0.8,1.322-1.426,1.927c-0.313,0.302-0.655,0.595-1.026,0.847
			c-0.359,0.279-0.762,0.483-1.153,0.714c-0.806,0.404-1.646,0.725-2.461,0.913c-0.813,0.194-1.593,0.275-2.268,0.27
			s-1.24-0.087-1.632-0.177c-0.394-0.091-0.614-0.177-0.614-0.177s0.192-0.15,0.523-0.355c0.329-0.215,0.791-0.496,1.332-0.815
			c1.087-0.627,2.493-1.364,3.865-2.066c0.335-0.184,0.687-0.35,1.01-0.534c0.334-0.175,0.652-0.353,0.965-0.526
			c0.313-0.171,0.601-0.351,0.892-0.514c0.263-0.182,0.561-0.328,0.786-0.503c0.24-0.168,0.487-0.312,0.664-0.458
			c0.183-0.149,0.392-0.267,0.526-0.417C523.152,129.206,523.346,129.064,523.346,129.064z"/>
	</g>
	<g>
		<path fill="#FC937E" d="M518.235,120.862c0,0,0.069,0.277,0.138,0.752c0.05,0.232,0.047,0.531-0.001,0.895
			c-0.021,0.179-0.037,0.383-0.073,0.586c-0.045,0.191-0.112,0.386-0.175,0.597c-0.11,0.435-0.317,0.85-0.543,1.3
			c-0.241,0.431-0.526,0.871-0.854,1.288c-0.329,0.415-0.688,0.828-1.081,1.2c-0.394,0.403-0.779,0.712-1.245,1.098
			c-0.418,0.31-0.834,0.624-1.26,0.91c-0.396,0.299-0.917,0.555-1.364,0.802c-0.468,0.234-0.895,0.492-1.361,0.632
			c-0.453,0.16-0.89,0.286-1.288,0.396c-0.202,0.05-0.382,0.123-0.574,0.147c-0.193,0.018-0.376,0.035-0.549,0.051
			c-0.339,0.037-0.64,0.041-0.881,0.048c-0.484,0.01-0.758-0.018-0.758-0.018s0.218-0.202,0.592-0.496
			c0.188-0.145,0.409-0.326,0.668-0.501c0.258-0.176,0.539-0.381,0.832-0.639c0.294-0.25,0.608-0.514,0.949-0.767
			c0.352-0.233,0.666-0.573,1.026-0.852c0.357-0.305,0.717-0.551,1.116-0.901c0.389-0.335,0.802-0.653,1.211-0.975
			c0.381-0.301,0.761-0.602,1.136-0.898c0.382-0.3,0.738-0.598,1.087-0.886c0.342-0.292,0.665-0.578,0.966-0.856
			c0.275-0.29,0.595-0.544,0.811-0.822c0.243-0.276,0.469-0.52,0.627-0.754c0.171-0.232,0.361-0.453,0.458-0.678
			C518.073,121.097,518.235,120.862,518.235,120.862z"/>
	</g>
	<g>
		<path fill="#FC937E" d="M514.379,147.406c0,0-0.094,0.165-0.278,0.402c-0.183,0.241-0.457,0.553-0.806,0.881
			c-0.696,0.656-1.713,1.311-2.814,1.758c-1.191,0.353-2.462,0.488-3.434,0.407c-0.487-0.041-0.896-0.117-1.186-0.195
			c-0.289-0.074-0.458-0.148-0.458-0.148s0.116-0.157,0.327-0.375c0.211-0.223,0.515-0.506,0.884-0.794
			c0.741-0.577,1.755-1.102,2.848-1.41c1.103-0.445,2.289-0.681,3.246-0.694c0.479-0.006,0.893,0.027,1.191,0.073
			C514.197,147.353,514.379,147.406,514.379,147.406z"/>
	</g>
	<g>
		<path fill="#32A083" d="M331.2,274.105c0,0,1.02,0.016,2.788,0.125c0.883,0.058,1.958,0.116,3.183,0.231
			c1.226,0.129,2.611,0.15,4.105,0.267c2.988,0.209,6.474,0.452,10.208,0.713c1.867,0.146,3.796,0.298,5.757,0.451
			c1.963,0.139,3.953,0.319,5.943,0.495c1.991,0.172,3.983,0.345,5.943,0.515c1.96,0.188,3.889,0.375,5.756,0.555
			c1.867,0.178,3.672,0.375,5.384,0.575c1.712,0.189,3.331,0.367,4.826,0.556c1.496,0.161,2.867,0.38,4.084,0.527
			c1.216,0.136,2.278,0.297,3.153,0.42c1.751,0.253,2.756,0.445,2.756,0.445s-1.003,0.163-2.765,0.365
			c-1.762,0.206-4.286,0.476-7.312,0.579c-1.514,0.066-3.157,0.157-4.891,0.171c-1.733,0.006-3.562,0-5.453-0.033
			c-1.892-0.02-3.844-0.1-5.825-0.22c-1.982-0.107-3.994-0.235-6.004-0.398c-2.007-0.2-4.015-0.396-5.987-0.627
			c-1.974-0.201-3.91-0.5-5.781-0.798c-1.872-0.297-3.675-0.593-5.384-0.918c-1.713-0.355-3.323-0.731-4.804-1.078
			c-1.482-0.339-2.839-0.656-4.007-1.04c-1.179-0.346-2.199-0.689-3.041-0.962C332.152,274.468,331.2,274.105,331.2,274.105z"/>
	</g>
	<g>
		<g>
			<path fill="#FFFFFF" d="M441.593,374.152c3.3-4.605,9.632-4.458,13.785-1.194c1.7,1.336,4.12-1.049,2.4-2.4
				c-5.972-4.692-14.448-4.635-19.115,1.882C437.386,374.223,440.331,375.915,441.593,374.152L441.593,374.152z"/>
		</g>
	</g>
	
		<ellipse transform="matrix(0.9769 -0.2136 0.2136 0.9769 -72.4434 72.1195)" fill="#F9A01B" cx="297.498" cy="371.278" rx="4.818" ry="5.802"/>
	<g>
		<g>
			<path fill="#FFFFFF" d="M286.252,372.59c2.385-0.885,4.756,0.539,5.598,2.836c0.746,2.037,4.027,1.157,3.272-0.902
				c-1.431-3.907-5.564-6.768-9.773-5.207C283.316,370.07,284.196,373.352,286.252,372.59L286.252,372.59z"/>
		</g>
	</g>
	<g>
		<g>
			<path fill="#FFFFFF" d="M290.952,371.78c2.387-0.887,4.756,0.537,5.598,2.836c0.746,2.038,4.027,1.157,3.272-0.902
				c-1.431-3.909-5.563-6.771-9.773-5.207C288.017,369.262,288.896,372.544,290.952,371.78L290.952,371.78z"/>
		</g>
	</g>
	<g>
		<path fill="#023A47" d="M311.817,297.831c0,0,0.157,0.18,0.45,0.518c0.27,0.36,0.755,0.8,1.319,1.353
			c0.607,0.539,1.371,1.146,2.286,1.78c0.917,0.633,2.002,1.27,3.2,1.927c2.421,1.28,5.365,2.547,8.595,3.728
			c1.615,0.592,3.306,1.148,5.028,1.707c1.733,0.526,3.49,1.08,5.274,1.554c7.107,1.991,14.371,3.515,19.87,4.589
			c1.381,0.256,2.646,0.489,3.769,0.697c1.13,0.196,2.116,0.368,2.927,0.51c1.629,0.276,2.572,0.45,2.572,0.45
			s-0.235,0.038-0.676,0.109c-0.442,0.056-1.092,0.182-1.92,0.25c-1.658,0.188-4.041,0.35-6.9,0.311
			c-2.862-0.009-6.2-0.228-9.745-0.723c-1.772-0.247-3.6-0.546-5.44-0.935c-1.845-0.371-3.702-0.83-5.549-1.337
			c-3.688-1.027-7.312-2.333-10.592-3.857c-1.638-0.768-3.194-1.574-4.62-2.44c-1.436-0.844-2.727-1.767-3.875-2.669
			c-1.155-0.895-2.135-1.824-2.939-2.703c-0.819-0.863-1.419-1.722-1.883-2.432c-0.45-0.739-0.747-1.333-0.899-1.748
			C311.904,298.053,311.817,297.831,311.817,297.831z"/>
	</g>
	<g>
		<path fill="#32A083" d="M386.644,210.758c0,0,0.542,0.83,1.416,2.315c0.422,0.751,1.003,1.622,1.485,2.728
			c0.52,1.086,1.11,2.318,1.709,3.689c0.63,1.367,1.184,2.848,1.799,4.43c0.601,1.582,1.241,3.253,1.801,5.003
			c0.581,1.746,1.165,3.557,1.731,5.404c0.561,1.848,1.069,3.739,1.595,5.628c0.505,1.894,1.011,3.787,1.44,5.666
			c0.454,1.873,0.864,3.726,1.253,5.521c0.76,3.593,1.372,6.967,1.822,9.877c0.466,2.906,0.754,5.351,0.938,7.065
			s0.243,2.705,0.243,2.705s-0.404-0.907-1.03-2.514c-0.628-1.606-1.492-3.909-2.422-6.696c-0.479-1.39-0.994-2.896-1.5-4.497
			c-0.493-1.605-1.014-3.298-1.552-5.049c-0.528-1.752-1.065-3.563-1.575-5.414c-0.511-1.849-1.03-3.728-1.55-5.605
			c-0.49-1.885-0.98-3.771-1.463-5.626c-0.495-1.849-0.957-3.677-1.387-5.451c-0.438-1.771-0.86-3.482-1.261-5.105
			c-0.413-1.613-0.713-3.194-1.084-4.582c-0.373-1.395-0.673-2.696-0.942-3.856c-0.251-1.163-0.573-2.167-0.792-3
			C386.861,211.728,386.644,210.758,386.644,210.758z"/>
	</g>
	<ellipse fill="#014958" cx="347.967" cy="45.091" rx="10.308" ry="5.091"/>
</g>
</svg>
