<svg version="1.1" xmlns="http://www.w3.org/2000/svg" xmlns:xlink="http://www.w3.org/1999/xlink" viewBox="0 0 768 430" style="enable-background:new 0 0 768 430;" xml:space="preserve"><g id="bread"> <g>  <path style="fill:none;stroke:#DDE5CE;stroke-width:4.7279;stroke-miterlimit:10;" d="M605.368,217.903 c0-31.871-39.973-11.719-58.562-10.718c-15.369,0.828-30.775,0.907-46.107,2.382c-11.938,1.148-27.754,2.249-37.258,10.564 c0-9.711,0.582-19.412,1.3-29.093c0.562-7.584-0.706-19.313,2.397-26.259c2.489-5.572,7.961-9.275,10.038-15.134 c2.15-6.064,0.332-14.469-2.223-20.153c-9.845-21.906-39.559-26.701-60.177-32.132c-37.298-9.826-77.893-6.722-116.127-9.206 c-31.19-2.026-71.098,0.208-95.708,22.319c-10.703,9.616-19.953,23.52-23.794,37.169c-1.584,5.628-2.31,11.916-0.173,17.51 c2.931,7.674,9.251,7.121,14.17,11.955c4.937,4.851,5.106,17.772,6.069,24.1c1.446,9.507,2.482,19.045,4.292,28.493 c1.489,7.774,2.751,17.487,9.92,22.256c11.543,7.68,30.213,6.841,43.335,8.566c37.104,4.88,74.23,11.028,111.42,15.061 c19.176,2.079,36.495-1.473,52.711-12.191c0,15.823,10.404,8.39,19.725,12.501c4.64,2.047,1.956,7.162,4.825,9.882 c2.502,2.372,6.906,2.889,10.135,3.381c23.847,3.636,48.738,0.84,72.712-0.036c13.817-0.505,27.981,1.86,41.709-0.252 c15.913-2.449,26.376-13.835,36.854-25.049c7.965-8.525,18.69-17.43,22.798-28.688 C634.883,220.788,614.926,218.512,605.368,217.903C605.368,187.562,654,221,605.368,217.903z"/>  <path style="fill:none;stroke:#DDE5CE;stroke-width:4.7279;stroke-miterlimit:10;" d="M396.916,268.646 c-0.093-1.254-0.189-2.508-0.283-3.763C396.505,263.289,396.886,268.65,396.916,268.646z M406.044,272.18 c1.206-0.717,14.798-9.615,14.757-9.666C420.055,261.575,407.501,271.169,406.044,272.18 C410.36,269.615,406.8,271.655,406.044,272.18z M420.801,262.514c-0.703,0.506-1.415,0.997-2.124,1.493 C418.646,264.051,419.152,263.709,420.801,262.514z M300.389,116.904c0.021-0.014,0.042-0.028,0.062-0.042 C300.412,116.884,300.386,116.9,300.389,116.904z M300.389,116.904c0.021,0.029,0.212-0.083,0.427-0.224 C300.663,116.737,300.521,116.812,300.389,116.904C300.409,116.934,300.413,116.888,300.389,116.904z M358.903,95.053 c-0.08-0.429-1.095-0.396-2.798-0.014C357.027,95.029,357.957,95.03,358.903,95.053z M300.452,116.862 c3.909-2.655,16.125-7.005,22.861-9.77c10.603-4.352,21.559-9.537,32.792-12.054 M357.679,192.175 c-29.473-2.671-58.945-5.343-88.418-8.014c-6.542-0.593-74.225-2.833-74.794-6.779c1.908,13.152,4.346,26.22,6.946,39.25 c1.872,9.38,2.028,25.064,7.563,32.976c7.046,10.068,25.854,8.257,36.49,8.895c24.021,1.439,48.255,6.205,72.117,9.337 c26.137,3.431,52.276,6.84,78.422,10.198c-1.058-23.401,0.368-50.305-5.577-73.145 C386.981,191.649,368.331,193.141,357.679,192.175C318.382,188.613,392.771,195.355,357.679,192.175z M543.604,267.643 c-0.062,0.004-0.119,0.012-0.181,0.016C543.517,267.652,543.572,267.647,543.604,267.643z M473.03,126.195 c-11.453-20.454-52.838,2.011-65.713,9.752c-10.21,6.139-24.846,15.4-25.529,28.734c-0.362,7.066,3.602,13.349,6.409,19.537 c4.513,9.943,4.004,20.98,4.767,31.68c0.814,11.434,1.688,22.862,2.558,34.291c0.491,6.463-1.022,16.207,4.056,18.708 c1.991,0.981,0.136,3.371,0.279,4.844c0.126,1.291,14.342-8.218,15.057-8.756c12.641-9.499,22.34-23.326,34.876-33.553 c16.369-13.354,12.289-32.057,13.526-51.104 M543.424,267.658c-0.464-0.002-1.016-0.005-1.646-0.009 C542.188,267.652,542.723,267.655,543.424,267.658z M445.048,276.255C445.029,276.437,447.777,276.255,445.048,276.255 L445.048,276.255z M482.583,263.693c19.8,0.429,39.424,3.82,59.195,3.956c7.435,0.062,22.869-4.489,31.562-12.079 c11.85-10.345,21.165-25.772,28.425-39.589c13.77-26.207-35.473-11.298-45.009-8.291c-18.03,5.686-37.323,7.354-56.104,8.411 c-18.386,1.036-33.522-1.505-47.133,13.153c-6.748,7.268-14.417,13.942-21.562,20.833c-4.718,4.55-15.374,10.155-4.483,12.27 C446.045,265.962,463.974,263.292,482.583,263.693C499.84,264.067,477.968,263.594,482.583,263.693z"/>  <path style="fill:none;stroke:#DDE5CE;stroke-width:4.7279;stroke-miterlimit:10;" d="M297.902,119.233 C303.329,116.664,297.846,119.167,297.902,119.233L297.902,119.233z"/>  <path style="fill:none;stroke:#DDE5CE;stroke-width:4.7279;stroke-miterlimit:10;" d="M396.916,268.646 C396.238,259.493,396.876,268.651,396.916,268.646L396.916,268.646z"/>  <path style="fill-rule:evenodd;clip-rule:evenodd;fill:none;stroke:#DDE5CE;stroke-width:4.7279;stroke-miterlimit:10;" d=" M554.902,281.184c-35.774-8.69-73.432-4.929-109.854-4.929c3.363,0-0.015,0.143,0,0c-2.372,22.582,47.107,14.259,58.677,13.253 c11.258-0.98,22.423-2.38,33.575-0.103c19.497,3.981,42.122,5.016,56.424-11.396L554.902,281.184z"/>  <path style="fill:none;stroke:#DDE5CE;stroke-width:4.7279;stroke-miterlimit:10;" d="M554.866,280.372 C555.617,280.579,556.459,279.912,554.866,280.372L554.866,280.372z M554.866,280.372c15.982-4.603,21.988-12.606,30.283-24.703  M627.263,221.314c-21.654-13.114-35.073,24.132-38.555,29.166c-1.25,1.808,3.481-5.034,0,0c-1.25,1.808-2.425,3.535-3.559,5.188" />  <path style="fill:none;stroke:#DDE5CE;stroke-width:4.7279;stroke-miterlimit:10;" d="M300.389,116.904 c0.021-0.014,0.042-0.028,0.062-0.042C300.412,116.884,300.386,116.9,300.389,116.904z M300.389,116.904 c0.021,0.029,0.212-0.083,0.427-0.224C300.663,116.737,300.521,116.812,300.389,116.904 C300.409,116.934,300.413,116.888,300.389,116.904z M358.903,95.053c-0.08-0.429-1.095-0.396-2.798-0.014 C357.027,95.029,357.957,95.03,358.903,95.053z"/>  <path style="fill:none;stroke:#DDE5CE;stroke-width:4.7279;stroke-miterlimit:10;" d="M420.801,262.514 c-0.537-0.676-14.001,9.142-14.757,9.666C407.25,271.463,420.842,262.564,420.801,262.514 C420.264,261.838,420.735,262.433,420.801,262.514z M420.801,262.514c-0.703,0.506-1.415,0.997-2.124,1.493 C418.646,264.051,419.152,263.709,420.801,262.514z"/> </g></g><g id="Layer_1"></g></svg>