<svg version="1.1" id="Layer_1" xmlns="http://www.w3.org/2000/svg" xmlns:xlink="http://www.w3.org/1999/xlink" x="0px" y="0px"
	 viewBox="0 0 768 430" enable-background="new 0 0 768 430" xml:space="preserve">
<g>
	<g>
		<path fill="#6F4C23" d="M491.966,109.52c0.709,1.351,1.369,2.73,1.937,4.146c7.927,19.491,4.882,39.538-6.802,44.772
			c-11.68,5.236-1.891-17.833-9.814-37.324c-5.008-12.322-18.282-21.245-24.431-27.471c-20.872-6.886-42.8-11.679-64.851-13.568
			c8.916,4.031,17.918,11.554,23.311,21.097c10.303,18.228,9.795,38.521-1.129,45.324c-10.923,6.805-4.11-17.416-14.407-35.645
			c-10.139-17.945-39.128-24.956-29.593-31.663c-20.294,0.097-40.698,2.837-60.514,7.62c9.66,2.859,19.97,9.583,26.559,18.936
			c11.993,17.044,13.439,37.287,3.227,45.213c-10.212,7.927-5.761-16.893-17.762-33.936c-9.473-13.461-30.338-18.638-33.667-24.124
			c-13.923,4.479-27.396,9.905-40.15,16.041c8.035,3.449,15.99,9.368,21.413,17.072c11.999,17.044,13.447,37.291,3.229,45.213
			c-10.212,7.925-5.761-16.893-17.756-33.939c-6.352-9.021-17.831-14.321-25.712-18.488C174.997,147.271,140,186.189,140,218.558
			c0,58.863,119.115,39.922,230.367,30.886c110.873-9.004,224.213,27.897,224.213-30.963
			C594.58,182.444,551.206,138.323,491.966,109.52z"/>
		<path fill="#94652F" d="M491.966,101.344c0.709,1.351,1.369,2.731,1.937,4.147c7.927,19.491,4.882,39.538-6.802,44.771
			c-11.68,5.234-1.891-17.833-9.814-37.326c-5.008-12.318-18.282-21.245-24.431-27.468c-20.872-6.889-42.8-11.681-64.851-13.57
			c8.916,4.033,17.918,11.553,23.311,21.096c10.303,18.23,9.795,38.521-1.129,45.326c-10.923,6.804-4.11-17.417-14.407-35.646
			c-10.139-17.944-39.128-24.956-29.593-31.662c-20.294,0.095-40.698,2.838-60.514,7.619c9.66,2.858,19.97,9.582,26.559,18.938
			c11.993,17.042,13.439,37.284,3.227,45.213c-10.212,7.925-5.761-16.895-17.762-33.939c-9.473-13.461-30.338-18.638-33.667-24.122
			c-13.923,4.48-27.396,9.905-40.15,16.039c8.035,3.449,15.99,9.369,21.413,17.072c11.999,17.044,13.447,37.29,3.229,45.214
			c-10.212,7.928-5.761-16.891-17.756-33.937c-6.352-9.025-17.831-14.326-25.712-18.491C174.997,139.095,140,178.012,140,210.384
			c0,58.86,119.115,39.916,230.367,30.883c110.873-9.006,224.213,27.897,224.213-30.961
			C594.58,174.268,551.206,130.147,491.966,101.344z"/>
		<path fill="#9D774C" d="M250.766,129.108c11.995,17.045,7.543,41.865,17.756,33.937c10.218-7.924,8.77-28.17-3.229-45.214
			c-5.423-7.703-13.378-13.623-21.413-17.072c-6.475,3.114-12.758,6.408-18.826,9.859
			C232.935,114.782,244.414,120.083,250.766,129.108z"/>
		<path fill="#9D774C" d="M317.697,108.842c12.001,17.044,7.55,41.865,17.762,33.939c10.212-7.929,8.766-28.171-3.227-45.213
			c-6.589-9.356-16.899-16.08-26.559-18.938c-7.306,1.765-14.532,3.804-21.644,6.09C287.358,90.204,308.224,95.38,317.697,108.842z"
			/>
		<path fill="#9D774C" d="M395.779,102.673c10.297,18.229,3.484,42.45,14.407,35.646c10.924-6.805,11.432-27.096,1.129-45.326
			c-5.393-9.543-14.395-17.063-23.311-21.096c-6.906-0.59-13.818-0.897-20.72-0.897c-0.368,0-0.734,0.008-1.099,0.011
			C356.651,77.717,385.641,84.729,395.779,102.673z"/>
		<path fill="#9D774C" d="M477.286,112.936c7.924,19.493-1.865,42.561,9.814,37.326c11.684-5.232,14.729-25.28,6.802-44.771
			c-0.567-1.417-1.228-2.797-1.937-4.147c-12.424-6.04-25.542-11.399-39.11-15.876C459.004,91.69,472.278,100.617,477.286,112.936z"
			/>
	</g>
	<g>
		<path fill="#94652F" d="M535.349,215.583c0.715,1.351,1.372,2.729,1.945,4.144c7.921,19.494,4.88,39.538-6.805,44.771
			c-11.681,5.24-1.892-17.833-9.814-37.325c-5.008-12.318-18.276-21.244-24.428-27.468c-20.878-6.889-42.8-11.678-64.856-13.568
			c8.917,4.032,17.921,11.552,23.313,21.095c10.3,18.227,9.792,38.52-1.129,45.328c-10.924,6.802-4.113-17.416-14.41-35.647
			c-10.136-17.944-39.125-24.957-29.593-31.664c-20.291,0.098-40.696,2.839-60.511,7.621c9.657,2.859,19.974,9.583,26.553,18.935
			c11.999,17.046,13.448,37.288,3.233,45.216c-10.218,7.924-5.764-16.892-17.765-33.938c-9.47-13.464-30.338-18.638-33.664-24.122
			c-13.929,4.475-27.396,9.903-40.151,16.04c8.034,3.447,15.99,9.365,21.414,17.072c11.998,17.045,13.44,37.287,3.226,45.214
			c-10.212,7.925-5.759-16.891-17.752-33.938c-6.358-9.024-17.833-14.323-25.71-18.489c-50.062,28.477-85.062,67.395-85.062,99.764
			c0,58.861,119.123,39.921,230.367,30.886c110.879-9.005,224.216,27.896,224.216-30.966
			C637.966,288.506,594.595,244.386,535.349,215.583z"/>
		<path fill="#C5873E" d="M535.349,207.406c0.715,1.35,1.372,2.729,1.945,4.144c7.921,19.493,4.88,39.539-6.805,44.773
			c-11.681,5.235-1.892-17.833-9.814-37.325c-5.008-12.319-18.276-21.245-24.428-27.469c-20.878-6.889-42.8-11.68-64.856-13.566
			c8.917,4.029,17.921,11.55,23.313,21.092c10.3,18.229,9.792,38.522-1.129,45.326c-10.924,6.805-4.113-17.416-14.41-35.646
			c-10.136-17.945-39.125-24.956-29.593-31.659c-20.291,0.094-40.696,2.835-60.511,7.616c9.657,2.861,19.974,9.583,26.553,18.938
			c11.999,17.045,13.448,37.287,3.233,45.213c-10.218,7.925-5.764-16.895-17.765-33.939c-9.47-13.461-30.338-18.638-33.664-24.123
			c-13.929,4.48-27.396,9.905-40.151,16.043c8.034,3.446,15.99,9.366,21.414,17.071c11.998,17.044,13.44,37.286,3.226,45.214
			c-10.212,7.927-5.759-16.893-17.752-33.937c-6.358-9.027-17.833-14.328-25.71-18.492c-50.062,28.478-85.062,67.396-85.062,99.764
			c0,58.862,119.123,39.922,230.367,30.885c110.879-9.004,224.216,27.898,224.216-30.964
			C637.966,280.33,594.595,236.209,535.349,207.406z"/>
		<path fill="#D19F65" d="M294.155,235.172c11.994,17.044,7.54,41.863,17.752,33.937c10.215-7.928,8.772-28.17-3.226-45.214
			c-5.424-7.705-13.38-13.625-21.414-17.071c-6.47,3.111-12.758,6.404-18.823,9.856
			C276.321,220.844,287.797,226.145,294.155,235.172z"/>
		<path fill="#D19F65" d="M361.083,214.903c12.001,17.045,7.547,41.864,17.765,33.939c10.215-7.927,8.766-28.168-3.233-45.213
			c-6.579-9.355-16.896-16.078-26.553-18.938c-7.309,1.764-14.535,3.805-21.643,6.09
			C330.744,196.265,351.613,201.442,361.083,214.903z"/>
		<path fill="#D19F65" d="M439.165,208.734c10.297,18.23,3.486,42.451,14.41,35.646c10.921-6.804,11.429-27.097,1.129-45.326
			c-5.393-9.542-14.396-17.063-23.313-21.092c-6.903-0.593-13.815-0.903-20.716-0.903c-0.363,0-0.738,0.011-1.103,0.016
			C400.04,183.778,429.029,190.789,439.165,208.734z"/>
		<path fill="#D19F65" d="M520.675,218.997c7.923,19.492-1.866,42.561,9.814,37.325c11.685-5.234,14.726-25.28,6.805-44.773
			c-0.573-1.415-1.23-2.794-1.945-4.144c-12.421-6.04-25.539-11.4-39.102-15.877C502.398,197.752,515.667,206.678,520.675,218.997z"
			/>
	</g>
</g>
</svg>
