<svg xmlns="http://www.w3.org/2000/svg" viewBox="0 0 768 430"><style>.a{fill:#1F64AA;}.b{fill:#231F20;opacity:0.6;}.c{fill:#1E5FA2;}</style><polygon points="321.6 39.7 312.4 371.2 373.5 373 393.4 105.6 414.4 372.5 473 371.7 458.9 39.5 " fill="#206AB4"/><polygon points="383.3 42.1 387 82 395 82 399.4 40.3 " style="fill:#231F20;opacity:0.4"/><polygon points="382.3 41.3 386 81.3 393.9 81.3 398.4 39.5 " class="a"/><path d="M437.6 37.1c0 0 1.4 28.5 22.1 34v-6.3c0 0-15.4-5.2-17-27.7H437.6z" class="a"/><path d="M342.9 37.1c0 0-1.4 28.5-22.1 34v-6.3c0 0 15.4-5.2 17-27.7H342.9z" class="a"/><polygon points="322.1 34.4 321.3 49 459.7 49 458.9 34.1 " class="b"/><polygon points="322.3 33.2 321.6 47.8 459.9 47.8 459.1 33 " fill="#1C5A9A"/><path d="M364.4 48.3c0 1.9-1.3 1.3-3 1.3l0 0c-1.6 0-3 0.6-3-1.3V35.4c0-1.9 1.3-1.9 3-1.9l0 0c1.6 0 3 0 3 1.9V48.3z" class="b"/><path d="M363.7 48.3c0 1.9-1.3 1.3-3 1.3l0 0c-1.6 0-3 0.6-3-1.3V35.4c0-1.9 1.3-1.9 3-1.9l0 0c1.6 0 3 0 3 1.9V48.3z" class="c"/><path d="M417.5 48.3c0 1.9 1.3 1.3 3 1.3l0 0c1.6 0 3 0.6 3-1.3V35.4c0-1.9-1.3-1.9-3-1.9l0 0c-1.6 0-3 0-3 1.9V48.3z" class="b"/><path d="M418.2 48.3c0 1.9 1.3 1.3 3 1.3l0 0c1.6 0 3 0.6 3-1.3V35.4c0-1.9-1.3-1.9-3-1.9l0 0c-1.6 0-3 0-3 1.9V48.3z" class="c"/></svg>