<svg xmlns="http://www.w3.org/2000/svg" viewBox="0 0 768 430"><style>.a{fill:#FFD39F;}.b{fill:none;stroke-linejoin:round;stroke-width:3;stroke:#000;}.c{fill:#3286CC;}.d{fill:#A57F4E;}.e{opacity:0.4;}</style><polygon points="403.8 192.6 381.6 192.6 385.1 149.3 400.3 149.3 " class="a"/><path d="M351.6 106.1c0 6.6-4.4 12.7-9.9 12.7s-11.8-4.5-11.8-12.7c0-9.7 7.2-13.2 14.5-10.9C349.6 96.8 351.6 99.5 351.6 106.1z" class="a"/><path d="M432.6 105.6c0 6.6 4.4 12.7 9.9 12.7 5.5 0 11.8-4.5 11.8-12.7 0-9.7-7.2-13.2-14.5-10.9C434.7 96.2 432.6 98.9 432.6 105.6z" class="a"/><path d="M443.3 101.8c-0.1 26.4-17.7 53.5-50.8 53.5 -34.1 0-50.8-27.2-50.7-53.6 0.1-26.4 22.6-47.4 49.6-47.4C418.3 54.4 443.4 75.4 443.3 101.8z" class="a"/><path d="M398 37.3l-7.5-8.4c0 0-6.8 3.9-11.7 9.8 -6.9-2.9-21-0.3-21-0.3s5.9 2.5 6.3 4.5c-8.9 4-13 10.9-17.1 17.2 -3.4 5.1-9.3 18.6-9.3 18.6l5.5-1 -0.8 19.1 11.3-26 9.1 3.2 11.4-9.4 8.5 5.7c0 0 12.5-12.8 9.6-10l8.1 9.1 7-6.6 7.3 9.6 10.3-2.6 10.1 14.8 3.1-3.9 3.7 13.2 2.9-12.9 5.5 1.3 -9.6-19.8 6.2-1.8c0 0-12.7-15.5-30.4-19.2 2.1-2.5 7.9-5.9 7.9-5.9S407.7 34.5 398 37.3z" fill="#7F5114"/><path d="M378.3 97.7c0 0.6-0.1 1.2-0.3 1.8 -0.2 0.6-0.5 1.1-0.8 1.5 -0.4 0.5-0.8 0.9-1.3 1.2 -0.5 0.3-1.1 0.3-1.7 0.3s-1.1-0.1-1.6-0.4c-0.5-0.3-1-0.6-1.3-1.1 -0.3-0.4-0.6-1-0.8-1.6 -0.2-0.5-0.2-1.1-0.2-1.7 0-0.6 0.1-1.2 0.3-1.7 0.2-0.6 0.4-1.1 0.8-1.6 0.4-0.5 0.7-1 1.2-1.2 0.5-0.3 1.1-0.4 1.7-0.4s1.1 0.3 1.6 0.5c0.5 0.3 1 0.6 1.4 1 0.3 0.5 0.6 1 0.8 1.6C378.2 96.5 378.3 97.1 378.3 97.7z"/><path d="M414.4 97.7c0 0.6 0 1.2-0.2 1.7 -0.2 0.6-0.5 1.1-0.9 1.5 -0.4 0.5-0.8 0.8-1.3 1.1 -0.5 0.3-1.1 0.4-1.6 0.4s-1.2-0.1-1.7-0.4c-0.5-0.3-0.9-0.7-1.3-1.2 -0.3-0.4-0.6-1-0.8-1.5 -0.2-0.5-0.4-1.1-0.4-1.7 0-0.6 0-1.2 0.2-1.8 0.2-0.6 0.5-1.1 0.8-1.6 0.4-0.5 0.9-0.8 1.4-1 0.5-0.3 1-0.6 1.6-0.6s1.2 0.2 1.7 0.5c0.5 0.3 0.9 0.7 1.3 1.2 0.3 0.4 0.7 0.9 0.8 1.5C414.4 96.5 414.4 97.1 414.4 97.7z"/><polyline points=" 388.5 108.3 392.3 103 396.5 107.3 " class="b"/><line x1="376.4" y1="126.2" x2="373.1" y2="129.4" class="b"/><line x1="407.6" y1="125.5" x2="410.4" y2="128.2" class="b"/><path d="M375.5 128.2c0 0 8.4 6.5 16.2 6.5 9.5 0 16.6-7.7 16.6-7.7" class="b"/><polygon points="385.1 370.9 377.9 370.9 373 279.2 390 279.2 " class="a"/><path d="M385.1 370.9c-0.2 3.5-0.7 6.4-8.5 7.9 -7.7 1.5-18.8 3.2-19.6 0.9 -0.8-2.4 13.4-9.1 20.8-11.6 1.5 0 7.5 0 7.5 0S385.2 369 385.1 370.9z" fill="#1C5B8E"/><polygon points="400.9 370.9 408.1 370.9 413 279.2 395.9 279.2 " class="a"/><path d="M400.9 370.9c0.2 3.5 0.7 6.4 8.5 7.9 7.7 1.5 18.8 3.2 19.6 0.9 0.8-2.4-13.4-9.1-20.8-11.6 -1.5 0-7.5 0-7.5 0S400.8 369 400.9 370.9z" class="a"/><polygon points="385.1 370.9 385.9 355.8 377.1 355.8 377.9 370.9 " class="c"/><polygon points="408.1 370.9 408.9 355.8 400 355.8 400.9 370.9 " class="c"/><path d="M385.1 370.9c-0.2 3.5-0.7 6.4-8.5 7.9 -7.7 1.5-18.8 3.2-19.6 0.9 -0.8-2.4 13.4-9.1 20.8-11.6 1.5 0 7.5 0 7.5 0S385.2 369 385.1 370.9z"/><path d="M400.9 370.9c0.2 3.5 0.7 6.4 8.5 7.9 7.7 1.5 18.8 3.2 19.6 0.9 0.8-2.4-13.4-9.1-20.8-11.6 -1.5 0-7.5 0-7.5 0S400.8 369 400.9 370.9z"/><rect x="372.3" y="258.1" width="18.6" height="36.9" class="d"/><rect x="395.1" y="258.1" width="18.6" height="36.9" class="d"/><rect x="372.3" y="249.9" width="41.5" height="18.7" class="d"/><polygon points="415.8 258.8 370.2 258.8 376 170.1 410 170.1 " class="c"/><rect x="346.2" y="236.8" transform="matrix(-0.9681 -0.2506 0.2506 -0.9681 629.1262 574.407)" width="9.9" height="20.7" class="a"/><path d="M349.1 277.7c-0.9-1.8-0.8-9.2-0.8-9.2s-5.7 10.7-7.5 11.6c-0.4 0.2-1.1 0.3-1.8 0 1.1-2.1 2.9-6.3 2.9-6.3s-3.7 4.4-4.6 4.7c-1 0.3-2-0.5-2-0.5l1-1.4c0 0-0.4 0.6-1.2 0.6 -0.5 0-0.8-0.1-1-0.4 -0.1-0.3 3.6-5.4 3.6-5.4s-1.5 0.7-1.7 0.1l8-17 9.6 2.5 -2.8 22C350.9 279.2 349.9 279.5 349.1 277.7z" class="a"/><g class="e"><polygon points="341.9 273.9 344.6 268.8 343.9 268.9 338.2 277.9 "/><polygon points="336.3 276.6 342 268.7 341.3 268.6 "/><polygon points="337.7 271.5 340.5 266.3 340 266 "/></g><path d="M357.8 249.9l-14-3.9c0 0 18.8-58.5 23.5-67.1 4.7-8.7 8.7-8.7 8.7-8.7l-1 16.1L357.8 249.9z" class="c"/><rect x="429.7" y="236.8" transform="matrix(0.9681 -0.2506 0.2506 0.9681 -48.0637 116.8231)" width="9.9" height="20.7" class="a"/><path d="M436.7 277.7c0.9-1.8 0.8-9.2 0.8-9.2s5.7 10.7 7.5 11.6c0.5 0.2 1.1 0.3 1.8 0 -1.1-2.1-2.9-6.3-2.9-6.3s3.7 4.4 4.6 4.7c1 0.3 2-0.5 2-0.5l-1-1.4c0 0 0.4 0.6 1.2 0.6 0.5 0 0.8-0.1 1-0.4 0.1-0.3-3.6-5.4-3.6-5.4s1.5 0.7 1.7 0.1l-8-17 -9.6 2.5 2.8 22C434.9 279.2 435.9 279.5 436.7 277.7z" class="a"/><g class="e"><polygon points="443.9 273.9 441.2 268.8 441.9 268.9 447.6 277.9 "/><polygon points="449.5 276.6 443.8 268.7 444.5 268.6 "/><polygon points="448.1 271.5 445.3 266.3 445.8 266 "/></g><path d="M428 249.9l14-3.9c0 0-18.8-58.5-23.5-67.1 -4.7-8.7-8.7-8.7-8.7-8.7l1 16.1L428 249.9z" class="c"/></svg>