<svg version="1.1" id="Layer_1" xmlns="http://www.w3.org/2000/svg" xmlns:xlink="http://www.w3.org/1999/xlink" x="0px" y="0px"
 viewBox="0 0 768 430" enable-background="new 0 0 768 430" xml:space="preserve">
<g>
	<g>
		<g>
			<path fill="#F22766" d="M366.468,288.734c0.363,32.725-27.377,107.566,16.532,107.082c48.141-0.533,14.503-75.668,14.14-108.391
				c-0.361-32.721,4.596-35.732-15.738-35.506C361.07,252.145,366.107,256.014,366.468,288.734z"/>
			<path fill="#F9417A" d="M370.999,288.682c0.362,32.729-27.379,107.57,16.53,107.082c48.141-0.533,14.505-75.664,14.142-108.387
				s4.594-35.734-15.736-35.508C365.599,252.096,370.635,255.963,370.999,288.682z"/>
			<g>
				<path fill="#FF3168" d="M402.707,303.656c0.171,15.469,9.813,42.074,10.701,62.727c0.441-20.635-7.769-47.961-10.707-67.83
					C402.688,300.154,402.688,301.85,402.707,303.656z"/>
				<path fill="#FF3168" d="M374.44,304.787c-0.31-27.797-4.946-31.078,13.793-31.285c8.075-0.09,11.813,0.344,13.489,3.082
					c0.422-22.617,2.033-24.914-15.789-24.715c-20.335,0.227-15.298,4.094-14.935,36.812c0.362,32.729-27.379,107.57,16.53,107.082
					c0.362-0.002,0.678-0.049,1.029-0.061C349.621,395.016,374.747,332.338,374.44,304.787z"/>
			</g>
		</g>
		<g>
			<path fill="#F22766" d="M309.01,155.078c0.681,61.441,34.572,110.883,75.695,110.424c41.127-0.453,73.911-50.634,73.228-112.077
				c-0.68-61.44-34.57-110.878-75.695-110.422C341.115,43.459,308.329,93.638,309.01,155.078z"/>
			<path fill="#FF3168" d="M316.059,155.217c0.682,61.443,34.572,110.883,75.697,110.426c41.126-0.455,71.553-50.608,70.869-112.049
				c-0.679-61.442-32.214-110.905-73.338-110.449C348.161,43.6,315.377,93.775,316.059,155.217z"/>
			<path fill="#F9417A" d="M323.397,149.608c0.648,58.388,32.854,105.37,71.934,104.935c39.084-0.43,70.238-48.118,69.592-106.503
				c-0.648-58.392-32.854-105.372-71.938-104.938C353.905,43.536,322.75,91.219,323.397,149.608z"/>
		</g>
		<g>
			<path fill="#333333" d="M339.289,109.123c-4.068,13.31-6.279,28.365-6.099,44.284c0.596,53.728,28.137,96.328,61.518,96.607
				c44.223,0.371,43.097,3.473,54.113-6.766c19.027-17.682,3.613-55.512,3.236-89.539c-0.389-34.965,5.115-69.557-5.765-90.678
				c-7.579-14.716-5.885-8.116-53.744-7.571C369.061,55.728,348.943,77.515,339.289,109.123z"/>
			<g>
				<path fill="#1A1A1A" d="M436.616,53.287c-4.29-0.349-10.944,1.017-28.332,1.76C423.942,54.636,431.817,53.612,436.616,53.287z"
					/>
				<path fill="#1A1A1A" d="M440.964,251.258c0,0-21.296-21.363-38.075-21.506c-29.951-0.254-54.665-38.476-55.2-86.681
					c-0.158-14.288,1.825-27.792,5.476-39.735c8.309-27.207,25.268-46.255,45.241-47.977c-1.869,0.04-3.795,0.077-5.856,0.101
					c-23.488,0.268-43.606,22.055-53.26,53.663c-4.068,13.31-6.279,28.365-6.099,44.284c0.596,53.728,28.137,96.328,61.518,96.607
					C420.23,250.23,440.964,251.258,440.964,251.258z"/>
			</g>
			<path d="M461.398,80.409c1.257,2.671,3.265,4.706,4.102,7.286c2.541,7.852,5.55,21.897,7.359,33.084
				c0.599,3.704,2.343,10.603,2.426,18.221c0.19,16.943-1.3,32.866-3.823,47.101c-0.493,2.785-2.915,14.045-3.638,16.849
				c-7.548,29.364-19.159,48.223-26.86,48.307c-10.732,0.119-29.843-32.889-35.223-77.082c-0.496-4.085-13.783-8.143-14.03-12.401
				c-0.171-2.976,12.632-6.114,12.597-9.16c-0.034-3.137-12.449-9.425-12.831-11.98c-0.866-5.802,9.668-6.713,7.744-10
				c-0.899-8.4-16.103-8.233-16.103-8.233l16.627-5.742c0,0,11.279-14.396,16.631-33.398c1.162-4.12-12.921-7.599-12.921-7.599
				l15.706-3.764c0,0,5.402-4.854,8.034-9.233c3.659-6.083,8.24-8.973,11.577-9.011C444.609,53.59,454.168,65.026,461.398,80.409z"
				/>
			<path fill="#1A1A1A" d="M343.063,98.542l59.178-4.188l-53.41-3.305C346.788,93.454,344.863,95.953,343.063,98.542z"/>
			<path fill="#1A1A1A" d="M382.967,108.638l-43.678,0.484c-1.07,3.495-2.002,7.114-2.803,10.834L382.967,108.638z"/>
			<path fill="#1A1A1A" d="M371.09,134.049l-32.281,0.356c-0.779,3.491-1.459,7.11-2.04,10.826L371.09,134.049z"/>
			<path fill="#1A1A1A" d="M373.354,180.357l-32.284,0.358c-0.779,3.493-1.457,7.11-2.04,10.828L373.354,180.357z"/>
			<polygon points="408.487,190.771 373.77,197.037 408.553,196.65 			"/>
		</g>
	</g>
</g>
</svg>
