<svg version="1.1" id="Layer_1" xmlns="http://www.w3.org/2000/svg" xmlns:xlink="http://www.w3.org/1999/xlink" viewBox="0 0 768 430" enable-background="new 0 0 768 430" xml:space="preserve">
<g>
	<path fill="#9E896F" d="M409.096,202.949c3.915-10.734,12.768-20.289,19.902-29.008c6.993-8.546,13.844-16.85,21.272-24.897
		c19.333-20.944,58.286-84.067,38.067-97.547c-20.22-13.48-63.506,46.755-75.404,72.656c-4.57,9.953-9.602,19.47-14.801,29.211
		c-5.305,9.939-10.72,21.786-19.122,29.528c-26.149,24.097-55.644,6.059-58.73,6.864c-3.614,0.946-5.74,3.741-8.86,8.383
		c-1.363,2.045,0.768,2.945,0.768,2.945l105.366,70.244c0,0,2.1,1.922,3.82-0.668c2.889-4.346,4.468-7.305,3.973-10.857
		C424.904,256.644,396.91,236.354,409.096,202.949z M473.574,73.641c-3.238-2.159-4.116-6.538-1.955-9.778
		c2.16-3.24,6.54-4.115,9.779-1.956c3.239,2.16,4.114,6.538,1.954,9.778C481.192,74.926,476.814,75.801,473.574,73.641z"/>
	<g>
		<path fill="#9B9A9A" d="M410.813,280.249l-103.818-69.213c-1.588-1.058-3.756-0.625-4.814,0.963l-16.488,24.732l109.597,73.064
			l16.488-24.732C412.836,283.476,412.402,281.308,410.813,280.249z"/>
		<path fill="#9E896F" d="M276.305,250.813c-1.059,1.588-0.625,3.754,0.962,4.814l103.819,69.213
			c1.588,1.059,3.755,0.625,4.814-0.963l6.258-9.387l-109.596-73.066L276.305,250.813z"/>
	</g>
	<path fill="#f64b8d" d="M234.321,313.786c-8.453,12.68-7.545,28.129,2.026,34.51l74.931,49.955
		c9.572,6.381,24.182,1.277,32.635-11.402l35.243-52.863l-109.592-73.062L234.321,313.786z"/>
</g>
</svg>
