<svg version="1.1" id="Layer_1" xmlns="http://www.w3.org/2000/svg" xmlns:xlink="http://www.w3.org/1999/xlink" viewBox="0 0 768 430" enable-background="new 0 0 768 430" xml:space="preserve">
<path fill-rule="evenodd" clip-rule="evenodd" fill="#FBC800" d="M496.521,158.022c-15.678-57.456-58.104-108.027-88.923-30.242
	c-29.809-63.114-68.051-99.628-122.443-2.234c1.37,3.784,2.775,24.438,4.181,28.187
	C358.399,153.733,427.459,158.022,496.521,158.022"/>
<path fill-rule="evenodd" clip-rule="evenodd" fill="#F64B8D" d="M514.545,150.56c-41.633,0-83.264,0-124.859,0s-83.227,0-124.824,0
	c-2.882,0-4.722,3.424-4.073,7.57c8.074,52.048,15.21,97.969,21.519,138.772c5.66,36.478,10.742,69.353,15.356,99.051
	c0.324,2.09,2.234,3.749,4.253,3.749c29.268,0,58.537,0,87.769,0c29.269,0,58.535,0,87.804,0c2.02,0,4.002-1.659,4.325-3.749
	c4.578-29.737,9.695-62.573,15.355-99.051"/>
<path fill-rule="evenodd" clip-rule="evenodd" fill="#4E5107" d="M530.981,143.604c-2.704,76.271-65.387,137.258-142.306,137.258
	c-76.919,0-139.601-60.986-142.305-137.258h-3.136c2.74,78.001,66.791,140.395,145.44,140.395
	c78.648,0,142.737-62.394,145.439-140.395"/>
<path fill-rule="evenodd" clip-rule="evenodd" fill="#BA1E5D" d="M388.676,274.23c-24.727,0-47.903-6.632-67.872-18.167
	l-7.425,12.831c22.167,12.833,47.868,20.148,75.297,20.148c27.43,0,53.167-7.315,75.298-20.148l-7.426-12.831
	C436.58,267.599,413.403,274.23,388.676,274.23z"/>
<path fill-rule="evenodd" clip-rule="evenodd" fill="#DCF8DE" d="M245.614,134.124c-2.415,0-4.361,1.947-4.361,4.362
	c0,2.415,1.946,4.36,4.361,4.36c2.416,0,4.362-1.946,4.362-4.36C249.976,136.07,248.03,134.124,245.614,134.124z"/>
<path fill-rule="evenodd" clip-rule="evenodd" fill="#DCF8DE" d="M533.863,129.871H245.614c-4.721,0-8.614,3.856-8.614,8.615
	c0,4.722,3.893,8.615,8.614,8.615h288.249"/>
<path fill-rule="evenodd" clip-rule="evenodd" fill="#DCF8DE" d="M245.614,142.846c-2.415,0-4.361-1.946-4.361-4.36
	c0-2.415,1.946-4.362,4.361-4.362c2.416,0,4.362,1.947,4.362,4.362C249.976,140.9,248.03,142.846,245.614,142.846z"/>
<path fill-rule="evenodd" clip-rule="evenodd" fill="#BA1E5D" d="M519.122,118.445H260.356c-3.172,0-5.803,2.595-5.803,5.803v26.168
	c0,3.172,2.631,5.803,5.803,5.803h258.766"/>
</svg>
