<svg xmlns="http://www.w3.org/2000/svg" viewBox="0 0 768 430"><style>.a{fill:#99BC2E;}.b{fill:#931B1B;}.c{fill:#EAC049;}.d{fill:#4994C1;}.e{fill:#5D5F60;}.f{fill:#9EDAEF;}.g{fill:#FFF;}.h{fill:#916547;}.i{fill:#C98F65;}.j{fill:#35200B;}.k{fill:#352412;}.l{fill:#E0AB85;}.m{fill:#DEF8FC;}.n{fill:#BF2C61;}.o{fill:#D39720;}.p{fill:#A3733A;}</style><path d="M408.5 84.1c-0.7-2.6-1.3-5.2-2-7.8 6.5 2.2 12.9 4.4 19.4 6.5 1.8 0.6 5.2 1.1 6.8 2.3 1.9 1.5 3.2 6 4.4 8.2C427.6 90.2 418.1 87.1 408.5 84.1z" fill="#C2E52E"/><path d="M419.5 148.1c-9.5-3.1-19.1-6.1-28.6-9.2 5-15.6 10.1-31.2 15.1-46.7 0.8-2.6 1.7-5.1 2.5-7.7 0.3-0.9 4.6 1.1 5.3 1.3 7.8 2.5 15.6 5 23.4 7.5C431.2 111.6 425.3 129.8 419.5 148.1z" class="a"/><path d="M406.6 76.2c-3.5 11-6.9 21.9-10.4 32.9 -1.9 5.9-3.7 11.9-5.6 17.8 -1.2 3.8-0.1 8 0.3 11.9 3.5-10.9 7-21.8 10.5-32.7 2-6.3 4.1-12.7 6.1-19C408.8 83.1 407.6 80.5 406.6 76.2z" fill="#7C931B"/><path d="M410.3 379.1c-5.3-4.9-10.6-9.7-15.8-14.6 -4.2-3.9-3.6-4.6-3.6-10.4 0-14.9 0-29.7 0-44.6 6 3.8 12.1 7.6 18.1 11.4 3 1.9 1.3 9.3 1.3 12.5C410.3 348.6 410.3 363.9 410.3 379.1z" fill="#B28618"/><path d="M406.2 325.4c-2.3-4.6-4.5-9.3-6.8-13.9 -0.7-1.4-5.5-13.9-6.9-13.9 -11-0.5-22-0.9-32.9-1.4 -11.4-0.5-22.8-0.9-34.2-1.4 -0.9 0-4.7 27.6-5.2 30.6C348.8 325.4 377.5 325.4 406.2 325.4z" fill="#5DBDED"/><path d="M355.8 315.6c-3.2-5.5-6.4-11-9.6-16.4 -2.2-3.7-5-6.6-4.6-10.9 1.3-12.8 2.5-25.6 3.8-38.3 3.8 8.7 10.4 18.2 10.4 27.8C355.8 290.4 355.8 303 355.8 315.6z" fill="#28387C"/><path d="M449.6 276.6c-7.3-4.9-14.5-9.8-21.8-14.7 -1-0.7-3.9-0.3-5-0.3 -5-0.3-10-0.6-15-0.9 -20-1.2-40-2.4-60-3.6 2.2 4.7 4.5 9.3 6.7 14 1.3 2.7 1 2.6 3.8 2.7 10 0.3 19.9 0.6 29.9 0.9C408.7 275.3 429.1 275.9 449.6 276.6z" fill="#7394FF"/><path d="M410.3 321.7c11.6-1.1 23.2-2.1 34.8-3.2 -4-1.6-8-3.2-12-4.8 -2.9-1.2-7.9-4.4-11.1-4.3 -9.8 0.4-19.6 0.7-29.3 1.1C398.5 314.3 404.4 318 410.3 321.7z" fill="#FFDB80"/><path d="M360.5 268c-3.7-2.2-7.3-4.4-11-6.5 -1.3-0.8-9.9-4.6-9.9-6.2 0-9.6 0-19.3 0-28.9 4.3 2.2 8.5 4.3 12.8 6.5 2.1 1.1 8 2.6 8 5.2C360.5 248.1 360.5 258.1 360.5 268z" fill="#265F75"/><path d="M434.3 231.9c-8.3-3-16.6-6-24.8-9.1 -4.9-1.8-9.5-0.7-14.7-0.4 -18.4 1.3-36.7 2.6-55.1 3.9 3.5 1.8 7 3.5 10.4 5.3 3.1 1.5 7 4.6 10.4 5.3 5.8 1.1 13.7-0.9 19.5-1.3C398.1 234.3 416.2 233.1 434.3 231.9z" fill="#33708E"/><path d="M353.7 240.1c-2.7-2.6-5.4-5.2-8.1-7.8 -1.6-1.6-5.2-6.6-7.5-6.9 -8.5-1.3-16.9-2.5-25.4-3.8 1.7 3.9 3.3 7.9 5 11.8 1 2.3 5.1 1.9 7.4 2.3C334.7 237.2 344.2 238.6 353.7 240.1z" fill="#C6E541"/><path d="M389.5 230.2c-3-2.2-6-4.4-9-6.6 -1-0.8-1.7-9.2-2.9-11 -1.2-2-9.8-7.4-7.9-9.6 2.6-2.8 8.6-3.2 12.1-3.8 1-0.2 7-1.6 7.7-0.8 3 3.7 6.7 7.5 8.9 11.8 1.6 3.1-1.1 10-1.9 13.2C395.9 226.5 391.9 228.3 389.5 230.2z" class="b"/><path d="M445.1 375.9c-11.6 1.1-23.2 2.1-34.8 3.2 0-17.2 0-34.5 0-51.7 0-0.9-0.6-4.9 0-5.6 1-1.1 8-0.7 9.4-0.9 8.5-0.8 16.9-1.5 25.4-2.3C445.1 337.7 445.1 356.8 445.1 375.9z" class="c"/><path d="M406.2 384.6c-15.9 0-31.9 0-47.8 0 -9.9 0-19.8 0-29.7 0 -3.2 0-8.4 1.8-8.4-2 0-18.4 0-36.9 0-55.3 0-3.7 5.3-2 8.4-2 9.9 0 19.8 0 29.7 0 11.9 0 23.8 0 35.7 0 3.3 0 12.2-2.1 12.2 2C406.2 346.4 406.2 365.5 406.2 384.6z" class="d"/><path d="M449.6 318.6c-25.4-0.8-50.8-1.6-76.1-2.4 -5-0.2-10-0.3-15-0.5 -3.5-0.1-2.6-0.7-2.6-4.3 0-12.6 0-25.2 0-37.8 25.4 0.8 50.8 1.6 76.1 2.4 5 0.2 10 0.3 15 0.5 3.5 0.1 2.6 0.7 2.6 4.3C449.6 293.4 449.6 306 449.6 318.6z" fill="#3F4EA5"/><path d="M434.3 263c-24.6 1.7-49.2 3.3-73.7 5 0-9.5 0-19.1 0-28.6 0-2.6-0.4-2.5 2.1-2.7 4.2-0.3 8.5-0.6 12.7-0.9 19.7-1.3 39.3-2.7 59-4C434.3 242.3 434.3 252.7 434.3 263z" class="d"/><path d="M341.3 320.4c-3.5-0.5-35.5-5.4-35.5-5.6 2.1-13.3 4.1-26.7 6.2-40 2.1-13.3 4.1-26.6 6.2-39.9 0.1-0.6 31.9 4.7 35.5 5.2C349.6 266.9 345.5 293.6 341.3 320.4z" class="a"/><path d="M327.1 182.6c0 14 0 27.9 0 41.9 0 6.4-0.5 5.7 6.1 5.7 6.8 0 13.7 0 20.5 0 -0.1-11.3 5.4-23.8 18.3-23.8 13 0 18 12.6 17.4 23.8 7.6 0 15.1 0 22.7 0 0.9 0 4.8 0.6 4.8-0.5 0-2.8 0-5.5 0-8.3 0-9.6 0-19.2 0-28.9 0-2.9 1.9-9.9-1.7-9.9C385.9 182.6 356.5 182.6 327.1 182.6z" fill="#EA3F3F"/><path d="M239 322.1c2.2 5.7 4.3 15.8 9 19.9 1.1 0.9 5.2 0 6.5 0 5.1-0.3 10.2-0.6 15.4-1 4.7-0.3 9.3-0.6 14-1 0.9-0.1 5.5-1.1 6.3-0.5 1.2 1 0.8 9 0.9 10.7 0.1 1.5-3.5 1.7-4.8 2.1 -9.8 2.6-19.7 4.9-29.7 6.4 -10.3 1.6-19.2 2.6-26.6-6 -1.4-1.6-13.5-19.8-11.5-20.8C225.4 328.7 232.2 325.4 239 322.1z" fill="#7F583D"/><path d="M233.6 302.4c2.6 7.1 5.2 14.2 7.7 21.3 1.3 3.7 0.6 3.2-3.1 5.2 -5.8 3.1-12.2 7-19 6.5 -0.9-0.1-0.8-20.9-0.8-23.2C218.5 306.8 229.2 304.5 233.6 302.4z" fill="#547D9E"/><path d="M311.7 332c6.9-0.6 13.9-1.1 20.8-1.7 -3.3 11.1-6.6 22.1-10 33.2 -1.3 4.4-0.6 5.2-5.1 5.6 -5.8 0.5-11.5 0.9-17.3 1.4C304 357.6 307.9 344.8 311.7 332z" fill="#AF5417"/><path d="M275.3 318.7c8.3-0.7 17.2-3 25.1-0.1 10.7 3.9 21.4 7.8 32.2 11.7 -8.3 0.7-17.2 3-25.1 0.1C296.7 326.5 286 322.6 275.3 318.7z" fill="#F4914E"/><path d="M311.7 332c-3.8 12.8-7.7 25.6-11.5 38.4 -6.1-2.2-12.2-4.4-18.2-6.7 -4-1.5-8-2.9-12-4.4 -0.9-0.3-5.7-1.3-6.2-2.3 -0.4-0.8 1.3-4.5 1.6-5.3 1.3-4.4 2.7-8.8 4-13.3 2-6.6 4-13.3 6-19.9C287.4 323.1 299.6 327.6 311.7 332z" fill="#EF7320"/><path d="M200 397c-0.2 4.2-6.5 4.9-9.6 4.9 -8 0.1-20.2-2.1-24.8-9.5 -1.7-2.8-2.5-6.1-2-9.4 0.4-2.7-1.4-3-3-4.7 -2.3-2.5-2.6-7.6-0.3-10.3 0.4-0.4 2.7-2 3.3-1.1 2.3 3.6 4.5 7.1 6.8 10.7 1.9 3 4 8.4 6.8 10.7 2.5 2.1 7.8 3 10.8 4.1C192 393.9 196 395.5 200 397z" class="e"/><path d="M234.3 347.4c4.4 1.9 9.2 4 12.7 7.3 4.8 4.6 6.6 16 1.3 21 -5.4 5-18.1 3.5-25.2 4 -10 0.6-20.3 0.8-30.2 2.6 -9 1.7 5.5 9.5 3.6 13 -2.3 4.2-14.7 1.2-18.1 0.2 -4.9-1.3-7.4-4.3-9.5-8.7 -5.9-12.8 2.7-18.6 13.4-22.3C199.6 358.5 217 353 234.3 347.4z" fill="#775239"/><path d="M184.3 387.5c1.6-2.8-6.5-7.6-7.3-10.7 -0.7-2.7 3.1-11.3-1.7-11.3 -3 0-6.1 0-9.1 0 -4.7 0-5 4.5-5.1 8.6 -0.1 4 4.1 5.2 4 9.3 -0.1 5 1.2 8.2 5.8 10.7 2.3 1.3 7.1 4.6 8.9 1.4C181.3 393 182.8 390.2 184.3 387.5z" class="f"/><path d="M178.5 379.8c-0.6-6.4 1.2-9.6 7.5-6.2 2.4 1.3 1.5 0.9 1.1 3.2 -0.6 3.5 3.5 5.1 6.2 5.9 -3 1-6.1 2.1-9.1 3.1C182.6 386.4 179.7 381.2 178.5 379.8z" class="g"/><path d="M178.8 397c0.6-6.6 4.6-13.2 11.5-14.4 4.2-0.8 9.4 2 10.9 6C206 401.1 184.9 402.6 178.8 397z" fill="#4D97B2"/><path d="M161.8 335c-2.5 5.5-4.1 12-3.1 18 2.1 11.8 14.9 14.4 25 15.3 11.5 1.1 23.3 0.2 34.8-1.2 8.9-1.1 13.3-3.2 15.2-13.6 0.3-1.7 2.1-9.2-0.4-9.5 -4.2-0.6-8.3-1.1-12.5-1.7 -4.9-0.7-9.8-1.3-14.7-1.9C191.4 338.6 176.6 336.8 161.8 335z" fill="#AF5E27"/><path d="M192.7 381.4c-5.5-3.5-10.5-2-16.3-2.8 -1.9-0.3-2 2.3-0.6 2.7 0.9 0.3 2.9-1.6 4.1-1.7 2-0.2 4-0.1 6 0.4 -1 0.3-5.3 4.7-4.9 4.7 -2.4-0.4-1.8 3.1 0.1 2.3 1.8-0.8 2-4.7 4.8-5.9 2.5-1 4.1 0.1 6.2 1.4C192.8 382.9 193.3 381.8 192.7 381.4 191.7 380.8 193.4 381.9 192.7 381.4z" class="e"/><path d="M176.1 406.6c-7.5-1-17.6-3-21.1-10.7 -1.6-3.5-0.6-6.1-1.2-9.5 -0.3-2.1-3.7-3.2-4.4-5.4 -0.8-2.5-0.7-6.9 1.7-8.6 0.6-0.4 2.2-1.1 2.7-0.3 2.7 4.2 5.4 8.5 8.1 12.7 1 1.6 3.6 7.8 5.5 8.5 4.4 1.7 8.8 3.4 13.2 5.1 1.2 0.5 9.7 3 9.4 4.2C188.6 407.6 180.1 407.2 176.1 406.6" class="e"/><path d="M224.5 352.4c4.4 1.9 9.2 4 12.7 7.3 4.8 4.6 6.6 16 1.3 21 -5.4 5-18.1 3.5-25.2 4 -10 0.6-20.3 0.8-30.2 2.6 -9 1.7 5.5 9.5 3.6 13 -2.3 4.2-14.7 1.2-18.1 0.2 -4.9-1.3-7.4-4.3-9.5-8.7 -5.9-12.8 2.7-18.6 13.4-22.3C189.8 363.5 207.1 358 224.5 352.4z" class="h"/><path d="M174.5 392.5c1.6-2.8-6.5-7.5-7.3-10.7 -0.7-2.7 3.1-11.3-1.7-11.3 -3 0-6.1 0-9.1 0 -4.7 0-5 4.5-5.1 8.6 -0.1 4 4.1 5.2 4 9.3 -0.1 5 1.2 8.2 5.8 10.7 2.3 1.3 7.1 4.6 8.9 1.4C171.5 397.9 173 395.2 174.5 392.5z" class="f"/><path d="M168.7 384.8c-0.6-6.4 1.2-9.6 7.5-6.2 2.4 1.3 1.5 0.9 1.1 3.2 -0.6 3.5 3.5 5.1 6.2 5.9 -3 1-6.1 2.1-9.1 3.1C172.7 391.4 169.8 386.1 168.7 384.8z" class="g"/><path d="M178.9 404.5c-3.3-0.1-10.7 0.2-9.7-4.5 1.3-6.1 6.1-13.1 13.1-12.6 5.7 0.4 10.9 5.8 9.3 11.7C190.2 404.4 183.5 404.6 178.9 404.5" fill="#66B2D3"/><path d="M152 340c-2.5 5.5-4.1 12-3.1 18 2.1 11.8 14.9 14.4 25 15.3 11.5 1.1 23.3 0.2 34.8-1.2 8.9-1.1 13.3-3.2 15.2-13.6 0.3-1.7 2.1-9.2-0.4-9.5 -4.2-0.6-8.3-1.1-12.5-1.7 -4.9-0.7-9.8-1.3-14.7-1.9C181.5 343.6 166.8 341.8 152 340z" fill="#CE7A41"/><path d="M243.4 178.9c9.4 5.2 18.9 12.4 24.7 21.6 3.7 5.9 6 13.5 5.4 20.4 -0.4 4.7-2.4 10.5 2.4 13.8 3.1 2.1 12.1 2.6 7.1 8.7 -1.5 1.8-6.9 2.5-6.9 5.1 -0.1 1.9 0.3 3.9 0.2 5.8 -0.4 16.7-16.7 25.6-31.9 26.8 -7.7 0.6-16.1-0.4-23.6-2.1 -12.3-2.8-17.7-10.9-23.4-21.6 -7.6-14.4-10.3-31.3-1.2-45.8 8.2-13.2 22.8-25.3 37.5-30.6C236.7 179.9 240 179 243.4 178.9z" class="h"/><path d="M252.6 232.4c-3.4 6.6 8 14.6 11.1 7.7C264.4 238.4 254 233.3 252.6 232.4z" class="i"/><path d="M252.3 234.1c0.1 4.5 3.5 8.2 8.3 7.2 4.2-0.9 5.3-7.2 5.4-10.7C266.5 217.4 253 225.3 252.3 234.1z" class="g"/><path d="M252.3 234.1c0.9-3.1 2.6-6.8 5.7-8.3 4.5-2.2 9.5 3.3 12-3.2 0.6-1.4-7.2-0.3-8.7-0.2C255.1 222.8 252.9 228.7 252.3 234.1z" class="j"/><path d="M265.8 226.9c-6.7-3.1-11.7 9.3-5.8 12.7C266 243 267.2 230.4 265.8 226.9z" fill="#9E521E"/><path d="M266.3 228.9c-4.6-1-8.5 7.3-4.3 9.7C266.3 241 267 231.4 266.3 228.9z" class="j"/><path d="M260.3 231.3c1.3 1.6 3.7-0.4 2.4-2C261.5 227.8 259 229.8 260.3 231.3 260.9 232 259.8 230.7 260.3 231.3z" class="g"/><path d="M261 256.9c-1-2 3.1-0.8 1 0.3 1.7 6 6.6 7.6 12.3 6.5C271.8 269.9 261.6 260.6 261 256.9 260.9 256.8 261.5 260 261 256.9z" class="j"/><path d="M256 218.4c1.9-2 10.3-8.7 13.2-5C270.1 214.7 257.9 217.7 256 218.4z" class="j"/><path d="M211.3 272c13.4 7.2 25.6 16.2 38 24.9 -4.3 1.6-8.6 3.2-13 4.8 1.3 1.6 2.6 3.2 3.9 4.9 -2 0.4-7.2 2.7-8.3 0.8 -2.4-4-4.8-8-7.2-11.9 -3.2-5.3-6.3-10.5-9.5-15.8C213.8 277.4 211.3 274.7 211.3 272z" fill="#2B55AA"/><path d="M197.3 265c-0.1-0.2-0.1-0.3-0.1-0.3S197.2 264.8 197.3 265z" class="k"/><path d="M233 280.3c-1.2 2.4-4.1 6.4-3.7 9.2 0.4 3.3 2.4 6.8 3.7 9.8 -9.3 1.4-32.4-4.6-22.1-17.5 1.6-2.1 5.9-9.9 8.6-8.8 4.8 1.9 9.6 3.8 14.3 5.7C233.6 279.2 233.3 279.7 233 280.3z" class="h"/><path d="M218.3 264c0-0.1-0.1-0.2-0.3-0.3C218.2 264 218.3 264.1 218.3 264z" class="k"/><path d="M207.4 280.3c1.3-2.7 2.6-5.5 3.9-8.2 8.2 12 18.7 18.2 32.3 23 -3.1 1.9-6.3 3.7-9.4 5.6 -4.3 2.6-1.6 3.9 0.8 8 1.4 2.4-4.1 2.9-4.8 4.8 -1.1 2.9-2.2 5.7-3.2 8.6 -3.2 8.4-6.3 16.8-9.5 25.2 -2 5.4-17.9 7.7-22.6 8.3 -14.7 1.8-29.3-5.1-40.7-13.9 -0.3-0.2-3.5-2.6-3.3-3 1.7-3.1 3.5-6.1 5.3-9C167.6 311.1 183.9 284.3 207.4 280.3z" fill="#3F6BD8"/><path d="M253.2 173.6c4.5-1.7 4.9-5.7 1.7-9.2 2.1 2.8-0.8 7.1-4.1 6.7 -3.6-0.5-7-4.1-9.9-6 -9.8-6.3-21.8-8.3-31.8-1.3 3.5-5.9-2.8-7.8-7-4.2 3.8-2.1 5.8 2.4 1.5 4.2 -7.6 3.2-15.2 6-22.4 10.2 -8.1 4.6-16.4 13.3-14.9 23.5 -2.5-2.4-6.5-7.9-1.2-9.8 -3.1-0.9-6.7 2.8-5.9 5.9 0.7 3.1 4.7 4.8 7.4 5.7 -7.5 2-11.3 8.6-11.1 16.2 0.1 4.9 8.4 26.9-3.4 21.6 0.9 4.1 5.6 8.8 8 3 0.5 10.3 9 23.1 17.3 28.5 8.4 5.5 19.3 7.8 29.3 8 -4.3-3.3-7.3-6.9-9.5-11.9 3.4 7.4 8.9 8.9 16.3 8.4 -9.9-5.5-7.5-16.4 0.2-22 -2.8 1.1-6.5 2-9.4 0.6 -5.1-2.5-4.6-14.7 0.5-16.9 1.8-0.8 5.5 0 5.7 2.1 0.6 7 8.9 10.5 14.7 8 -4.3-1.2-10.8-8.1-7.1-12.6 1.2 1.8 2.4 3.6 3.6 5.4 -0.4-10.3 6.3-18.1 15.1-22.1 4.1-1.8 26.5-10.1 15.4-16.4 4.2 2.3 7.2 4.8 4.7 9.7 3.2-2.4 8.6-4.8 9.8-8.8 1.3-4.8-2.5-10.1-5.5-13.4 5.7 2.1 9.3 7.7 9.8 13.6C276.8 190.9 262.8 174.4 253.2 173.6z" class="k"/><path d="M182.8 386.4c-5.5-3.5-10.5-2-16.3-2.8 -1.9-0.3-2 2.3-0.6 2.7 0.9 0.3 2.9-1.6 4.1-1.7 2-0.2 4-0.1 6 0.4 -1 0.3-5.2 4.7-4.9 4.7 -2.4-0.4-1.8 3.1 0.1 2.3 1.8-0.8 2-4.7 4.8-5.9 2.5-1 4.1 0.1 6.2 1.4C182.9 387.9 183.5 386.8 182.8 386.4 181.8 385.8 183.5 386.8 182.8 386.4z" class="e"/><path d="M219 320c1.2 3.1 4.9 17.9 8.1 18.4 8.4 1.5 18.1 0.3 26.5-0.1 1.1-0.1 7.2 0.3 7.9-1 1.9-3.5 7.1-7.2 10.5-8.8 3.4-1.6 11.6-0.5 14.6 1.7 4.4 3.2-3.4 3.3-4.7 3.1 -2.4-0.4-4.4-0.8-6.3 1.1 4.1 0.2 8.3 0.1 12.2 1.4 2.1 0.7 4.4 3.8 0.7 4.1 -2.1 0.2-4.2-0.7-6.3-0.5 1.5 0.3 8.3 0.5 7.7 3.3 -0.8 3.9-9.4 0.9-12.2 2 2.7 0 6 0.1 8.6 0.8 4.1 1.1-3 3.4-4.4 3.1 -5.6-0.9-12.6 1.6-18.3 2.1 -8.6 0.8-17.1 3.4-25.8 4.3 -10.7 1-22.5 1.6-29.5-8.1 -4.9-6.8-7.6-15.4-9.1-23.6C205.9 322.3 212.5 321.2 219 320z" class="h"/><path d="M221.8 323.3c-7.5 2.7-15 5.5-22.5 8.2 -2.5-8.1-10.7-23.8-4.8-32 6.7-9.2 17-3.8 21.4 4.1C219.3 309.6 220.3 316.7 221.8 323.3z" fill="#97AFD1"/><path d="M489.2 193.7c-4.4 2.7-13.8 9.7-19.2 7.9 -2.8-0.9-6-4.3-8.4-6 -4.5-3.1-9.1-6.2-13.8-9 -4.3-2.5-6.5-6.1-11-8.6 -1.1-0.6-3.4-3.6-3.8-0.2 -0.2 2.4 3.3 3.8 2.8 5.8 -1.2 5.1-15.4-5.3-17.1-2.2 -2.1 3.7 9.9 6.1 11.6 6.4 -2.3 0.3-4.6 0.4-6.9 0.2 -2-0.2-6-2.8-7.7-1.2 -3.3 3.2 9.6 5.7 11.2 5.9 -3-0.3-7.7-1.7-10.5-0.7 -1.9 0.7 2.4 4.1 2.9 4.3 2.1 0.7 4.8-0.1 7.1 0.2 -2.6 0.1-8.7 3.3-3.1 4.1 4.8 0.6 11 0.4 15.7-0.2 3.4-0.5 4.2-1.9 6.3 0.5 2.7 3.2 5.6 6.4 8.6 9.3 6.5 6.4 12.5 11.7 21.9 9.4 8-1.9 15.7-5.2 23-8.6C495.6 205.3 492.4 199.5 489.2 193.7z" fill="#C6906B"/><path d="M484.5 195.3c8-6.7 17.3-15.5 27.3-18.7 4.1-1.3 9.9 0.3 12.4 3.9 5.1 7.1-2.8 17.6-7.6 22.5 -5.6 5.9-12.8 10-20.4 12.7 -1.6 0.6-10.4 4.2-12.1 3 -1.8-1.4-2.4-11.2-2.9-13.5C479.9 198.8 478.9 198.7 484.5 195.3z" fill="#BA5A85"/><path d="M479.2 170.1c-5.8-2.5-11.7-4.9-17.7-7.2 -9.8-3.6-20.3-5.4-29.7-9.8 -8.8-4.2-3.3-14-8.2-21.2 -1.5-2.3-5.4-4.9-3.7-0.2 1 2.7 4.1 6.5 1.1 9 -1-4.2-2.8-7.4-6-10.2 -5-4.3-8.5-0.5-3.2 3.5 -2.1-2.6-3.5 0.5-2.6 2.6 0.8 2 2.4 3.8 3.9 5.3 -0.7-0.7-3.2-1.7-2.8 0.3 0.4 1.7 1.9 3.2 2.9 4.5 3.1 4 0.3 5.6 0.9 10 0.4 3.1 5.9 6.4 7.9 8.4 2.7 2.6 5.4 4.5 8.7 6.2 13.8 7.3 28.8 10.8 43 17.1C475.6 182.3 477.4 176.2 479.2 170.1z" class="l"/><path d="M558.7 315.7c5.8-3.7 8-16.3 0.8-19.8 -1.2-0.6-2.4 0.5-3.8 0.4 -1.5-0.2-2.4-3.1-2.9-4.2 -1.4-3.1-2.7-6.2-3.9-9.4 -8 4-16.1 8-24.1 12.1 3.2 6.1 6.6 12.2 10.6 17.7 2.5 3.4 5.3 6.5 9.6 7.4 2.6 0.5 5.2 0.2 7.7-0.7C554.1 318.5 557.2 315.7 558.7 315.7 558.8 315.6 558.7 315.7 558.7 315.7z" class="l"/><path d="M580.1 317.7c5.5-1.6 2.7-17.3 1.4-21.1 -3.8-11.2-15.3-3.2-22.6-0.9 7.5 2.9 6.1 16 0.2 19.8 4.9-3 9.8-6 14.7-9C574 311.2 573 319.8 580.1 317.7 584.7 316.3 575.8 319 580.1 317.7z" class="m"/><path d="M576.1 324.3c0.4 6.6 9.5 0.1 10.9-2 4.1-5.8 2.1-10.6-0.3-16.5 -1.6-4-0.4-8.4-1.8-12.7 -1.6-4.8-5.3-3.4-9.5-2.7 6.7 3.1 7 10.3 7.4 16.8 0.2 2.9 0.5 6.9-1.3 9.4 -2.2 3-6.3 1.7-7.1-1.5C574.9 318.1 576 321.3 576.1 324.3 576.3 326.2 576 322.5 576.1 324.3z" class="n"/><path d="M516.7 315.2c-0.8-11.8-0.5-23.8 0-35.6 -7.8 0.8-15.5 1.6-23.3 2.4 -3.4 0.4-0.7 18.9-0.4 22.3 0.5 5.4 2.4 10.5 2.7 16 0.2 3.9 0.4 7.8 0.6 11.7 0.2 3.2 0.1 2.5 2.9 2.5 4.9 0.1 9.8 0.2 14.7 0.3C518.2 335 517 319 516.7 315.2 515.7 300.3 517.1 321.4 516.7 315.2z" class="l"/><path d="M515.1 361.1c-4.1-8.3-0.5-17.4 0.6-26.2 -6.4-0.1-12.8-0.2-19.2-0.4 0.3 6.2 4.2 22.1-2.4 25.6 -3 1.6-9.1 2.5-10.2 6.2 -0.4 1.5 1.5 1.7 2.5 1.7C495.8 368.4 506.2 364.1 515.1 361.1 514.2 359.3 515 361.1 515.1 361.1z" class="m"/><path d="M476.4 369c-6.9 9.5 20 5.7 23.2 4.5 4.6-1.8 10.1 0.4 15-0.7 4.1-0.9 0.1-11.5 0.4-11.6 -6.3 2.1-12.6 4.1-19.1 5.5 -2.4 0.6-16.4 3.6-10.5-2.6C482.7 365.2 478.2 366.5 476.4 369 474.1 372.2 477.4 367.6 476.4 369z" class="n"/><path d="M485 289c7.8-0.1 14.9-4.4 22.8-2 6.1 1.9 13.1 9 19.3 3.7 5.1-4.4 7.6-11.3 14.5-13.6 5.7-1.9 15.5 3.4 17.7-4.5 2-6.9 1.9-12.4 9.2-15.9 4.4-2.1 10.7-12.4 4.7-15.6 -8.8-4.7-22.2-6.2-32.2-4.8 -15.3 2.2-30.6 4.4-45.9 6.6 -6.6 0.9-9.7 7.2-13.3 12.6 -4.3 6.4-6.6 13.6-8.9 20.9 -1 3.3-3.8 7.5-0.4 9.4C476.4 287.9 480.7 289 485 289 488.2 288.9 482.3 289 485 289z" class="n"/><path d="M504.8 176.4c4.2-5.7 3.1-12.2 2.6-18.9 5.7 0.4 11.3 0.8 17 1.2 -0.8 3.4-1.8 7.2-1.6 10.8 0.3 4.7 1.7 4.7-2.1 7 -5.6 3.3-11.1 6.5-16.7 9.8C502.7 181.5 501.8 180.3 504.8 176.4z" class="l"/><path d="M540.9 237.1c-1.6-7.5-3.3-15.1-2.6-22.8 0.8-8.3 4-21.8-0.5-29.5 -2.7-4.6-7.9-7.6-12.5-10 -2.6-1.4-2.9-0.8-5.6 0.4 -3.9 1.7-7.9 3.3-12 4.6 -2.9 0.9-6.8 0.2-2.9-3.3 -10.2 6.3-11.6 17.3-13 28.2 -1.8 14.1-3.4 28.6-0.2 42.6 1.6 7.1 21.1 3.5 25.4 2.4C523 248 538.5 244.4 540.9 237.1z" class="n"/><path d="M579.8 146.5c0.3 7.6-2.7 14.2-9 18.4 9.3-1.8 8.9 5 8.8 12.3 5.1-6.6 10.1-0.1 12 5.5 4.1-4.2 7.6 0.4 9.3 4.2 1.5 3.5 2.9 2.3 6.5 3.7 5.9 2.3 7.5 7.4 11.4 11.9 3.1 3.6 7.3 2.9 7-2.6 1.5 7-4 12.6-10.7 9 2.1 1.8 8.3 6 9.1 0.7 -2 6.9-9.4 5.6-14.4 3.1 -6.8-3.4-7.9-8.9-9.6-15.8 0 6.4 3.4 19.1 12.1 18 -8.1 0.2-13.2-5-15.3-12.4 -0.9-3.1 0-4-3-4.7 -4.2-0.9-5.8-2.5-5.4-7.1 -4.1 0.9-16.1 1.7-14.4-5.7 -3.2 0.2-6.6 0-9.8-0.7 -2.8-0.7-4.8-1.9-6.4-4.3 -0.5-0.7-0.9-4.2-1.1-4.4 -1.9-1.9-8-2.5-10.5-3.7 -4.5-2.2-8.2-4.7-13.3-5.7 8.1-5 16.2-10.1 24.2-15.1C563.3 147 572.7 147.5 579.8 146.5z" class="o"/><path d="M521.4 56.4c-9.8 3.2-19.8 8.1-27.5 15.1 -5.4 5-9.7 11.9-11.3 19 -1 4.6 0.3 10.2-2.4 14.3 -2.9 4.3-10.7 1.7-12.5 5.4 -2.1 4.2 2 6.8 4.8 8.9 2.2 1.7 1.3 3.3 0.7 5.4 -4.2 16.8 7.1 29.5 22.2 35.4 7 2.7 15 3.6 22.4 4 5.9 0.3 12.1 0.3 17.8-1.6 4.6-1.5 7.9-5.3 11.2-8.7 9.1-9.4 17.3-20.8 19.1-34.1 2.5-18-8.8-34.9-20.7-47.4C538.9 65.5 530.7 58.5 521.4 56.4z" class="l"/><path d="M501.3 109.8c2.2 7.5-11.2 13.5-13 5.7C487.9 113.6 499.7 110.4 501.3 109.8z" class="i"/><path d="M501.2 111.6c-1.1 4.8-6.5 8.6-11.1 5.1 -3.6-2.8-2.8-9.9-1.9-13.5C491 91.8 502.3 103.9 501.2 111.6z" class="g"/><path d="M501.2 111.6c-0.3-3.4-1.4-7.6-4.2-9.7 -3.1-2.3-13 0.8-11.8-6.3 0 0.2 9 2.1 10.3 2.6C500.9 100.4 501.6 106.4 501.2 111.6z" class="j"/><path d="M488.7 101.4c7.3-1.8 10.1 11.3 3.9 14.1C485.4 118.7 486.5 105 488.7 101.4z" fill="#3E8AD6"/><path d="M487.9 103.4c5-0.1 7.3 9.2 2.5 10.9C485.4 115.9 486.6 105.9 487.9 103.4z" class="j"/><path d="M493.5 107.1c-1.6 1.4-3.7-1.2-2.1-2.5C493.1 103.3 495.2 105.8 493.5 107.1 492.8 107.7 494.2 106.6 493.5 107.1z" class="g"/><path d="M487.8 133.3c1.5-1.8-3.1-1.4-1.1 0.1 -3 5.9-8.3 6.5-13.9 4.3C474.1 144.7 486.4 137.1 487.8 133.3 487.8 133.3 486.7 136.4 487.8 133.3z" class="j"/><path d="M528.1 160.8c-0.3-0.1-0.5-0.2-0.5-0.2S527.8 160.6 528.1 160.8z" class="p"/><polygon points="587 75.2 587 75.2 587 75.2 " class="p"/><path d="M532.9 170.5c0.3 1.3 0.6 2.7 0.6 4.1 2.8-4.7-1.1-7.9-5.2-9.6 33.1 14.8 67.3-23 65.8-54.8 -0.1-2.9-1.5-6.2-1.4-9.1 0.6-10.7-2.5-22.1-8.8-30.8 -10.4-14.5-33.2-23.9-49.9-14.6 0.5-2.8 3.4-5.6 6.3-5.6 -4.3-1.5-8.1 4.2-9.6 7.4 0.9-5 0.5-11.5-4.1-14.7 -4.1-2.8-14.5-4-17.1 1.6 3.1-1.7 7.5-3.7 11.2-2.6 4.1 1.2 5.3 8.4 5.1 12.2 -14.8-10.7-35.9-2.1-46.8 10.2 -3.7 4.2-6.7 9.3-7.7 14.8 -0.5 2.5 6.1 4.8 8 6 2.5-6.8 6.4-13.4 13.3-16.3 -5.4 5.2-8.6 9.9-10.4 17.2 -1 3.8 10.5 8.2 13.5 9.8 6.1 3.2 12.9 6.4 19.7 7.8 1 0.2 3.7-8.1 4.2-9.4 2.6 18.4 1.7 43.4-14.2 56.1 13 0.5 22.3-7.4 26.2-19.7 -1.1 5.6-3.1 11.8-7.9 15.4 7.4-1.6 12-6.3 15.9-12.5 2-3.1 2.5-5.5 6.4-6 7.3-0.9 7.1 10.6 4.1 14.7 -2.8 3.8-8.1 5.2-12.6 5.3 0.7 8.4-6.1 13.5-12.9 16.9 2.1 2.9 4.9 12.1-1.6 11.2 7.1 3.5 7.5-5.6 3.6-9.4C528.9 166.6 532.3 168 532.9 170.5 533.6 173.3 532.2 167.7 532.9 170.5z" class="o"/><path d="M500.5 94.6c-1.6-2.5-8.9-11.1-12.6-7.7C486.8 88 498.8 93.6 500.5 94.6z" class="j"/><path d="M600.3 186.9c-2 2.8-4 5.5-6 8.3 -2.1 2.9-0.6 3.1 1.6 5.9 1.8-2.6 3.6-5.3 5.4-7.9C604 189.2 604.3 189.7 600.3 186.9z" class="n"/><path d="M472.1 166.6c14.1 1.8 27.8 5.9 41.3 10.1 6.4 2 14.8 4.9 17.2 11.9 1.8 5.4 0.1 11.9-4.7 15.2 -13.7 9.3-31.8-7-44.2-11.5 -3.7-1.4-13.1-1.8-13.4-6.2C467.8 179.4 468.7 172.4 472.1 166.6z" fill="#DB6394"/><path d="M580.6 246.1c0.8 5.4-0.8 11.2-5.5 14.4 -5.6 3.7-7.8 4-9.2 11.2 -1 4.9-3.2 10.1-8.6 11.4 -5.9 1.4-11.8-2.3-17 2.1 -4.8 4.1-7.1 10.3-13.2 12.9 -6.2 2.7-11.8-0.5-17.2-3.2 -7.1-3.5-12.7-1.4-20 0.1 -7.2 1.4-14.9-0.1-21.2-3.8 -0.8 3 8.6 7.7 10.6 8.3 7.9 2.2 14.8-2.6 22.5-2.4 6.8 0.1 12.8 5.9 20 6.2 9 0.4 14.7-4.5 19.5-11.4 4.2-6 8.9-3.2 15.1-3.8 8.5-0.8 14.3-8.4 14.5-16.5 0.2-6.8 1.2-6.1 7.4-8.7C583.8 260.6 585.1 249.7 580.6 246.1 581.4 251.5 582 247.2 580.6 246.1z" class="n"/><path d="M487.7 295.4c6.2-0.7 12.4-4.1 18.6-2 5.1 1.7 9.5 5.4 15 5.8 13.4 1.1 15-17.5 28.3-16.2 5 0.5 10 0.9 13.4-3.6 3.3-4.4 2.1-10.5 5.1-14.7 2.8-3.8 8.2-3.8 10.9-8.2 1.2-2.1 1.8-4.4 1.9-6.8 0.2-4.3-2.2-5.4-5.7-7.5 -0.1 4.3 0.6 9.7-3.2 12.7 -5.3 4.3-10.3 4.7-11.7 12.6 -0.8 4.4-1.1 9.8-6.9 9.6 -6.5-0.3-11.8-1.5-17.2 3.2 -3.8 3.4-6.1 8.8-10.6 11.4 -5.4 3.1-11.1-2.1-15.9-4 -6.9-2.8-13.1-0.7-20 0.7 -6.6 1.3-13.4 0-19.1-3.7 -1.5 5.2-3 6.5 2.6 8.7C477.8 295.2 482.8 295.9 487.7 295.4 493.8 294.8 481.1 296.1 487.7 295.4z" class="g"/><path d="M484.7 282.1c-1.5-3.5-7.2-0.9-7.2 2.3C477.5 292 489.3 287.2 484.7 282.1 484.7 282.1 485.5 283.1 484.7 282.1z" class="g"/><path d="M522.8 284.4c-3.4-2.1-7.1 2.8-4.1 5.4C522.2 293 527.1 287.1 522.8 284.4 522.7 284.4 523.8 285.1 522.8 284.4z" class="g"/><path d="M554.6 271.1c-2.3-3.7-8.2 0-5.8 3.7C551.2 278.7 556.8 274.8 554.6 271.1 554.3 270.7 555.1 272 554.6 271.1z" class="g"/><path d="M571.6 252.6c-1.5-2.4-4.8-2.1-5.9 0.4C562.2 259.2 575.3 258.7 571.6 252.6 571.1 251.9 572.1 253.6 571.6 252.6z" class="g"/><path d="M305.8 314.9c-1.8-4.8-5.9-11-5.1-16.2 1.3-8.5 2.6-16.9 4-25.4 2.7-17.2 5.4-34.5 8.1-51.7 2.2 5.1 5.9 10.3 5.1 15.9 -1.4 8.8-2.7 17.6-4.1 26.4C311.1 280.9 308.5 297.9 305.8 314.9z" fill="#627514"/><path d="M327.1 230.2c-3.4-4-6.8-8-10.2-12 -1.5-1.7-0.4-7.7-0.4-9.8 0-11 0-22 0-33 1.7 1.1 10.5 5.7 10.5 7.4 0 4.5 0 8.9 0 13.4C327.1 207.5 327.1 218.9 327.1 230.2z" class="b"/><path d="M417 182.6c-4.8-2.6-11.1-7.9-16.7-7.9 -9.1 0.1-18.1 0.1-27.2 0.2 -18.8 0.2-37.7 0.3-56.5 0.5 5.3 3.6 8.6 7.2 14.9 7.2 10.1 0 20.1 0 30.2 0C380.2 182.6 398.6 182.6 417 182.6z" fill="#FF7D7D"/><path d="M397.4 179c-13.1 0-26.3 0-39.4 0 -0.5 0-0.2-15.8-0.2-17.1 0-4.3 0-8.7 0-13 0-0.9-0.7-6.2 0-6.9 0.6-0.6 4.6 0 5.4 0 4.1 0 8.2 0 12.3 0 7.2 0 14.4 0 21.6 0C397.7 142 397.4 175.3 397.4 179z" class="c"/><path d="M397.4 142c-6.7-2.8-12.5-6.1-19.8-6.1 -9.6 0-19.2 0-28.8 0 2 1.3 6.7 6.1 9 6.1 3.7 0 7.4 0 11 0C378.4 142 387.9 142 397.4 142z" fill="#FFD773"/><path d="M357.8 179c-1.3-0.8-8.9-4.7-8.9-5.9 0-3.5 0-7 0-10.4 0-8.9 0-17.9 0-26.8 1.3 0.9 8.9 4.9 8.9 6.2 0 3.5 0 6.9 0 10.4C357.8 161.3 357.8 170.1 357.8 179z" fill="#C68F14"/></svg>