<svg xmlns="http://www.w3.org/2000/svg" viewBox="0 0 768 430"><style>.a{fill:#35C971;}.b{fill:#C78C59;}.c{fill:#CBEBF8;}.d{fill:#D19E66;}.e{fill:#3C3C3B;}</style><path d="M383 229.9c-0.9-0.7-1.6-0.4-2.6-0.5 -0.1 0-0.3-0.1-0.4-0.1 -1.1 1.2-1.7 2.7-1.9 4.5 -0.2 2 0.4 4.6 2.9 4.3 2.8-0.4 3.9-3 3.5-5.6C384.3 231.5 383.8 230.5 383 229.9z" fill="#A7D8CF"/><path d="M391.7 278.7c-1-0.2-1.9-0.4-2.6-0.6 0 2.5-0.1 4.9-0.2 7.4 7.2-1 16 1.6 22.7 3.1 9.7 2.1 19.7 1.8 29.3 4.3 0-2.4 0.1-4.8 0.1-7.2 -11.1-1.8-22.3-2.7-33.4-4.8C402.3 279.8 396.9 279.7 391.7 278.7z" class="a"/><path d="M398.7 288.8c-3.3-0.4-6.6-0.4-9.8-1.1 -0.1 1.9-0.2 3.7-0.3 5.6 -0.4 8.3-0.9 16.5-1 24.8 0 1.7 0.4 18.6-0.1 21.8 0.6 0.1 1.1 0.6 1.1 1.3 3.7 0 7.3 2.1 10.9 3 5.3 1.5 10.7 2.7 15.9 4.3 5.8 1.8 11.3 3.1 17.3 4 2.5 0.4 4.7 0.7 6.9 1.7 0.3-16.6 0.6-33.2 1.2-49.8 0.1-3.1 0.2-6.2 0.2-9.4 -9-2.3-18.4-1.8-27.5-3.6C408.5 290.6 403.6 289.5 398.7 288.8z" class="b"/><path d="M407.7 249.5c-4.1-0.7-8.2-1.3-12.3-1.9 -2.6-0.4-5.7-0.1-8.3-0.5 1.5 9.7 2.1 19.3 2 29 17.1 3.2 34.8 4 51.9 7.3 0.1-10.2 0.3-20.4 1.3-30.5 -0.1 0-0.1 0-0.2 0C430.6 251.4 419.1 251.6 407.7 249.5z" class="b"/><path d="M461.7 388.3c-3-0.8-6-1.4-9.1-2 -9.1-1.8-17.5-5.6-26.3-8.5 -10.5-3.5-20.8-7.5-31.3-10.8 -7.9-2.5-16.4-3.9-23.1-8.9 -0.5-0.4-0.7-0.9-0.7-1.4 -0.3-0.2-0.5-0.5-0.6-1 -1.1-5.3-0.5-11.1-0.5-16.5 0-11.8 0.1-23.6 0.1-35.4 0.1-25.6 0.3-51.1 0.8-76.7 0.4-25.5 0.8-50.9 1.2-76.4 0.4-25.4-0.5-51.2 1.2-76.6 0 0 0-0.1 0-0.1 -0.2-0.7 0-1.6 0.9-1.7 15.1-2.3 30.7-3.1 45.9-3.9 8.5-0.5 17-1.4 25.4-2.4 0.5-0.1 1-0.1 1.5-0.2 -16.9-0.2-33.8-0.5-50.8 0.1 -23.1 0.8-46.3-0.1-69.4 0.2 -0.1 0-0.2 0-0.2 0 1.6 26.8 0.5 54.1 0.5 80.9 0 26.8 0 53.7 0.5 80.5 1 54-0.5 108 1.4 162 0 0.2 0 0.3 0 0.5 22.5-0.6 45.2-0.2 67.5 0.6 16.4 0.5 32.9 1 49.3 0.6 6.4-0.2 12.8-0.7 19.2-1.4 0-0.1 0-0.2 0-0.3C464 389.2 462.8 388.6 461.7 388.3z" class="a"/><rect x="327.6" y="67.5" width="129.8" height="99.3" class="c"/><path d="M373.4 77.4c-5.5 13.2-20.6 19.5-33.8 14.1 -13.2-5.5-19.5-20.6-14.1-33.8 5.5-13.2 20.6-19.5 33.8-14.1 11.8 4.9 18.3 17.6 15.3 30" fill="#ECE479"/><path d="M478.2 298.7c0.1-13.9 0.2-27.8 0.2-41.8 0-14.3-2.6-28.8-1.8-43 1.7-28.4 2.7-56.9 3.2-85.4 0.3-13.9-0.5-27.8-0.2-41.8 0.3-13.4 0.8-26.8-1.6-40 -14.7-1.1-29.3 0.8-44 0.9 -13.8 0.1-27.6-0.6-41.4-0.8 -28.1-0.2-56.3 0.6-84.4-0.1 3 24.1 1.7 49.1 2.3 73.3 0.5 24.4 0.5 48.7 1.6 73 0.1 2 0.1 4 0.2 5.9 0.7-0.2 1.4-0.3 2.1-0.6 1.3-0.4 1.9 1.6 0.6 2.1 -0.9 0.3-1.6 0.3-2.5 0.2 0 0-0.1 0-0.1 0 0.5 21.3-0.5 42.5-0.4 63.8 0.1 23.9 1.3 47.8 0.9 71.7 -0.1 6.1-0.4 12.1-0.6 18.1 0.7-0.1 1.5-0.1 2 0.4 0.4 0.5 0.4 1.2 0 1.6 -0.5 0.6-1.4 0.4-2.1 0.3 -0.5 11.1-0.9 22.3-0.5 33.5 0 0.1 0 0.3 0 0.4 4.4-0.2 8.7-0.4 13.1-0.5 -0.1-0.2-0.1-0.4-0.1-0.6 -0.1-2.1-0.1-4.1-0.2-6.2 -1.2 0.1-2.6-0.1-3.5-0.9 -0.5-0.4-0.1-1.2 0.5-1.2 1 0 1.9 0.1 2.9 0.1 -1.6-51.2 0.4-102.5 0-153.7 -0.2-26.1-0.1-52.1 0.1-78.2 -2 0.1-4.1-0.2-6.1-0.6 -0.9-0.2-0.6-1.5 0.2-1.6 1.9-0.1 3.9 0 5.9 0.1 0-0.1 0-0.2 0-0.3 0.2-27-0.5-54.3 1.2-81.3 -1-0.9-0.6-3.1 1.2-3.2 23.1-0.9 46.3 0.3 69.4-0.4 23.3-0.7 46.4 0.5 69.7 0.5 1.6 0 2 1.9 1.2 2.9 0 0.1 0 0.2-0.1 0.3 1.6 26 0.6 52.5 0.5 78.6 0.1 0 0.1 0 0.2 0.1 0.4 0.3 1.1 0 1.5-0.2 0.6-0.3 1.4-0.2 1.8 0.5 0.3 0.6 0.2 1.5-0.5 1.8 -1 0.4-2.1 0.7-3 0.4 0 0 0 0.1 0 0.1 0 1.1 0 2.1 0 3.2 0.7-0.2 1.4-0.2 2.1 0 1.2 0.3 0.7 2.2-0.5 1.9 -0.5-0.1-1.1-0.2-1.6-0.3 0 25.2 0.1 50.5 0.5 75.7 0.4 22.7 0.4 45.4 0.4 68.1 1.1-0.2 2.2-0.2 3.2-0.1 1 0.1 1 1.8 0 1.9 -1 0.2-2.2 0.1-3.2-0.1 0 30.7 0 61.3 1 92 3.3-0.3 6.6-0.6 9.9-0.9 0-0.1 0-0.3 0-0.4C479 358.2 478 328.5 478.2 298.7zM473.2 55.9c-0.2 0.2-0.4 0.1-0.5-0.1 -0.2-0.3-0.2-0.7-0.3-1 -0.5-0.1-1.1-0.4-1.6-0.4 -0.7 0-0.7-1.1 0-1.1 0.8 0 1.5 0.2 2.3 0.4 0.2 0 0.5 0.3 0.4 0.6C473.5 54.8 473.6 55.4 473.2 55.9zM475.7 54c-0.1 0.6-1.1 0.5-1.1-0.1 0-1.4-0.3-2.1-1.8-2.3 -1-0.1-2.1 0-3.1-0.4 -0.2-0.1-0.2-0.3 0-0.3C472.2 49.8 476.4 50.4 475.7 54zM475.3 49.3c-2.4-0.9-5.1 0.7-7.5-0.1 -0.3-0.1-0.4-0.5-0.1-0.7 2.4-1 6.4-1.7 8.8-0.2 2.2 1.3 1.2 4.1 1.7 6.2 0.2 0.7-0.9 1-1.1 0.3C476.6 53 477.3 50.1 475.3 49.3z" class="b"/><path d="M397.2 72.7c-7.3 0.9-14.9 0.8-22.2 2.3 1.6 25.1 0.3 50.6 0.1 75.7 -0.2 25.5-0.6 50.9-0.7 76.4 -0.1 25.6-0.2 51.1-0.2 76.7 0 11.8 0.1 23.6 0.1 35.4 0 5.4 0.5 11.1-0.5 16.4 8 5.7 19.1 7.5 28.3 10.8 10.8 3.9 21.6 7.5 32.4 11.5 8.3 3.1 16.3 5.1 24.8 7.5 0.8 0.2 4 0.8 5.8 1.8 -2-53.2 0.2-106.6-0.2-159.8 -0.2-26.8-0.1-53.7 0.1-80.5 0.2-26.9-0.5-54.1 1.2-80.9 -14 2.8-29.1 4-43.3 4.8C414.3 71.3 405.7 71.7 397.2 72.7zM382.1 239.5c-6.4 1.5-6.7-8.3-2.7-11.2 0-0.2 0.1-0.4 0.3-0.6 3-2.8 6 1.3 6.6 4C386.9 235 385.5 238.7 382.1 239.5zM443.1 304.6c-0.5 17.5-0.8 34.8-0.6 52.4 0 0.3 0 0.6-0.1 0.8 0 0.1-0.1 0.2-0.1 0.3 -0.4 0.8-1.3 1.2-2.1 0.5 -3.8-2.9-8.7-2.5-13.2-3.3 -5.4-0.9-10.6-2.9-15.8-4.4 -6.3-1.8-18.7-2.5-23.4-7.8 -0.2 0.2-0.5 0.3-0.8 0.2 -0.1 0-0.2 0-0.3 0 -0.8-0.1-1.5-0.6-1.5-1.5 0.1-15.3-0.3-30.5 0.5-45.8 0.2-3 0.3-6.1 0.5-9.1 0 0 0 0 0 0 -0.4-0.1-0.4-0.7 0-0.9 0 0 0.1 0 0.1 0 0.2-3.3 0.3-6.6 0.4-10 0 0 0 0 0 0 -0.1-0.1-0.1-0.2 0-0.3 0.2-9.7 0.1-19.3-1.2-28.9 -0.1-0.6 0.4-1 0.8-1.1 0.1-0.2 0.3-0.4 0.5-0.4 6.3-1.5 14.3 0.6 20.5 1.7 11.8 2 23.8 2.1 35.5 4 0.9 0.1 0.9 1.1 0.5 1.6C444.7 269.8 443.6 287.4 443.1 304.6zM463.6 78c-1.1 0.4-2.4-0.1-3.5-0.3 -0.2 0-0.2-0.3 0-0.3 1.1-0.2 2.4-0.7 3.5-0.3C464.1 77.2 464.1 77.8 463.6 78zM462.2 369.7c-1 0.1-2-0.4-3-0.7 -1.1-0.4-2.3-0.7-3.5-0.9 -0.3 0-0.3-0.6 0-0.6 1.2-0.2 2.3-0.2 3.5 0.1 1.1 0.3 2.4 0.5 3.2 1.3C462.7 369.1 462.6 369.7 462.2 369.7zM462.2 373.3c-2.7 0.4-5.5-1.4-7.8-2.6 -0.1-0.1 0-0.3 0.1-0.2 1.3 0.5 2.8 0.8 4.2 1.1 1.2 0.3 2.6 0.5 3.6 1.1C462.4 372.9 462.4 373.3 462.2 373.3zM460.6 361.6c0.4 0.4 0 1.2-0.6 1 -0.7-0.2-1.4-0.7-2.1-1 -0.7-0.3-1.4-0.7-2.1-1 -0.1 0-0.1-0.2 0-0.2C457.4 360.2 459.4 360.4 460.6 361.6zM456.3 72.6c1.1-0.6 2.4-0.8 3.6-1 0.7-0.1 2.5-0.5 3 0.1 0.2 0.2 0.3 0.6 0 0.8 -0.6 0.5-2.1 0.3-2.9 0.3 -1.2 0.1-2.5 0.2-3.7-0.2C456.2 72.8 456.2 72.7 456.3 72.6zM461.5 365.4c0.4 0.5-0.1 1.3-0.7 0.9 -0.7-0.4-1.2-0.9-1.9-1.2 -0.7-0.3-1.5-0.6-2.2-0.8 -0.4-0.1-0.3-0.8 0.1-0.8C458.5 363.6 460.4 364.1 461.5 365.4zM463.2 76.5c-1.3 0-2.4-0.1-3.7-0.4 -0.5-0.1-0.5-0.8 0-0.9 1.2-0.3 2.4-0.4 3.7-0.4C464.4 74.7 464.4 76.4 463.2 76.5zM452.9 69.2c3.3-0.2 6.7-0.6 10.1-0.6 1 0 0.9 1.4 0 1.5 -3.3 0.2-6.8 0.5-10.1 0.4C452.1 70.4 452.1 69.2 452.9 69.2zM452.5 374.3c3.3 0 7.9 0.4 10.7 2.4 0.2 0.1 0.2 0.6-0.1 0.5 -1.6-0.2-3-0.9-4.6-1.3 -2-0.5-4-0.9-6-1.2C452.2 374.7 452.2 374.3 452.5 374.3zM452.5 377.6c1.6 0 3.1 0.4 4.6 0.9 1.7 0.5 3.5 0.8 5.1 1.4 0.3 0.1 0.4 0.6 0 0.7 -3 0.8-7-1.5-9.8-2.5C452.1 378 452.2 377.6 452.5 377.6zM451.5 381c3.6-0.5 7.8 1 11.1 2.3 0.4 0.1 0.3 0.7-0.1 0.7 -3.6 0.4-7.6-1.8-11.1-2.6C451.2 381.4 451.3 381.1 451.5 381zM443.8 84.8c0.2 0 0.3 0 0.4 0.3 1.9 10.8 1 20.6 1.1 31.5 0.1 12.2 1 24.4 1 36.6 0 24.8-1.8 49.6-2.7 74.4 -0.1 1.4-1.4 2-2.5 1.8 -0.2 0.1-0.5 0.2-0.8 0.1 -4.3-1-8.6-0.6-13-1.1 -3.9-0.5-7.8-1.5-11.7-2.1 -9.4-1.6-19.5-0.9-28.6-3.7 -0.7 0.3-1.5 0.2-1.9-0.7 -1.1-2.5-0.7-5.2-0.5-7.9 0.4-4.3 0.3-8.5 0.1-12.8 -0.4-11.9-0.2-23.8 0.1-35.6 0.3-9 0.5-17.9 0.8-26.9 0-0.1 0-0.2 0-0.3 0.5-15.7 1.2-31.4 2.2-47 0-0.4 0.6-0.4 0.6 0 1 15.5-0.1 31-0.8 46.6 18.2-1.7 37.2 1.2 55.5 1.3 -0.1-7.5-0.4-15-0.4-22.6 0-5.1 0.6-10.2 0.9-15.2 0.3-4.9-0.8-9.9-0.5-14.8 -12 2.4-24.4 2.1-36.6 3.4 -2.4 0.3-16.3 4.4-17.9 0.7 0-0.1 0-0.2 0.1-0.3 17.7-3.9 36-3.1 53.8-5.9C443.2 84.4 443.5 84.6 443.8 84.8zM440.7 103.5c-0.6 0.4-1.3 0-1.8-0.3 -0.3-0.2-0.5-0.4-0.6-0.7 -0.2-0.4-0.5-0.6-0.8-0.9 -0.1-0.1 0-0.3 0.2-0.2 0.6 0.4 1.2 0.4 1.9 0.5 0.5 0.1 1.2 0.2 1.4 0.7C441.1 103 441 103.3 440.7 103.5zM441.3 104.6c0.2 0.2 0.2 0.5 0 0.7 -0.8 0.6-2 0.3-2.9 0.1 -0.4-0.1-0.4-0.7 0-0.8C439.3 104.2 440.5 103.9 441.3 104.6zM440.6 101.3c-0.5 0.3-1 0-1.5-0.1 -0.7-0.2-1.4-0.4-2.1-0.4 -0.2 0-0.3-0.4-0.1-0.4 0.8-0.2 1.4-0.3 2.3-0.2 0.6 0.1 1.3 0.2 1.5 0.8C440.8 101.1 440.7 101.3 440.6 101.3zM435.2 95.3c1.1-0.1 2.3-0.3 3.4-0.3 0.9 0.1 0.9 1.4 0 1.4 -1.1 0.1-2.3-0.1-3.4-0.3C434.6 96.1 434.6 95.4 435.2 95.3zM433.2 93c-0.1 0-0.1-0.1 0-0.2 1.3-0.4 2.7-0.4 3.9-0.4 0.9 0 2.1-0.1 2.7 0.8 0.2 0.2 0 0.6-0.3 0.6 -0.9 0.2-2.1-0.3-3-0.4C435.5 93.2 434.3 93.3 433.2 93zM435.5 97.9c1.1-0.6 2.8-0.7 3.8 0.2 0.5 0.4 0 1.1-0.6 1 -0.5-0.1-1-0.3-1.5-0.4 -0.5-0.1-1.1-0.2-1.6-0.3C435.4 98.4 435.3 98.1 435.5 97.9zM439.1 91.4c-2.3-2.1-6.4-0.6-9.3-1.2 -0.1 0-0.1-0.3 0-0.3 2.8-0.7 7.7-1.5 10 0.7C440.4 91.1 439.6 91.8 439.1 91.4z" class="b"/><path d="M408.5 153.4c-5.9 0.3-15.4 1.7-21.1-1.6 0 2.7-0.1 5.4 0 8.1 0.2 11.8 0.2 23.5 0.4 35.3 0.1 4.7 0.5 9.5 0.4 14.3 -0.1 3.1-1.5 7.8-0.2 10.7 0.2 0.3 0.2 0.6 0.1 0.9 8.9 0 18.3 1.1 27.1 2.5 4.9 0.8 9.7 2.1 14.6 2.5 3.4 0.3 6.7 0.1 10.1 0.7 1-24.1 2.4-48.2 3.4-72.3v0C431.6 154.4 420.1 152.9 408.5 153.4z" class="b"/><path d="M387.4 150.2c3.9 0.2 7.8 1 11.7 1 4.1 0 8.2-0.3 12.3-0.4 10.6-0.3 21.2 1.1 31.9 1.4 0.1-3.5 0.1-7 0.1-10.5 -18.4-0.1-37.4-0.4-55.6-2.5C387.6 142.9 387.5 146.5 387.4 150.2z" class="c"/><path d="M388.5 90.8c-5.1 6-4 14.9-4.3 22.7 -0.2 6-1.4 12.1-3.4 17.7 -0.4 1.1-1.5 2.4-2.5 1.7 -0.5-0.3-0.5-1-0.5-1.6 -0.7-17.5-1.4-35-2.1-52.5 0-1.2-0.1-2.5 0.6-3.5 0.7-1 2.1-1.4 3.3-1.7 10.5-2.5 21.4-3.2 32.2-3.8 10.8-0.6 21.6-1.3 32.4-1.9 2-0.1 4.2-0.2 5.9 0.9 2.7 1.8 2.7 6 0.8 8.7 -1.9 2.6-5.1 3.9-8.3 4.7 -13.4 3.4-27.8-0.2-41.4 2.3C396.5 85.3 391.6 87.1 388.5 90.8z" class="d"/><path d="M392.6 213.5c0 1.4 0 2.9 0.8 4.1 1.1 1.6 3.1 2 5 2.3 5.2 0.8 10.9 1.6 15.4-1.1 -0.6-2.7-4.2-3.2-6.7-4.4 -3.5-1.7-5.4-5.5-6.7-9.2 -2.8-8.2-3.6-16.8-4.9-25.3 -0.6-4.3-1.6-8.4-2.5-12.6 -0.1-0.6-0.6-4.6-0.8-4.9 -0.1-0.1-2.1-1.8-2.1-0.9C389.8 178.7 392.8 196.1 392.6 213.5z" class="d"/><path d="M377.2 271c0.1-10.3 0.4-20.8-2.5-30.6 -0.9 36.1-1.8 72.2-0.9 108.3 0.1 2.5 0.2 5.2 1.7 7.2 1.2 1.5 3 2.3 4.7 3.1 11.8 5 24.3 8.4 36.9 10.2 1.3-2.7-1.8-5.3-4.4-6.8 -5.8-3.1-11.6-6.3-17.4-9.4 -4.2-2.3-8.6-4.7-11.4-8.6 -3-4.3-3.7-9.8-4.2-15C378 309.9 377.1 290.5 377.2 271z" class="d"/><path d="M390.3 314.1c0 4.9-0.1 9.8-0.1 14.7 0 4 0.1 8.4 2.9 11.3 2.1 2.2 5.3 3 8.4 3.4 4.4 0.6 8.9 0.8 13.4 0.6 -0.1-1.8-2-2.8-3.6-3.6 -3-1.3-6.1-2.8-8-5.5 -1.3-1.9-2-4.1-2.5-6.3 -2.6-10.5-4.2-21.3-4.7-32.1 -0.1-1.3-0.1-2.6-0.8-3.7 -0.7-1.1-2.3-1.7-3.3-1C390.5 299.1 390.4 306.6 390.3 314.1z" class="d"/><path d="M495.7 387.9c-3.7-0.1-7.5 0-11.2 0.2 -0.1 3-4.5 3.1-5 0.3 -3.3 0.2-6.6 0.6-9.9 0.9 0 0 0 0.1 0 0.1 0.1 2.8-4 2.8-4.4 0.3 -6.4 0.6-12.8 1.2-19.2 1.4 -16.4 0.4-32.9-0.1-49.3-0.6 -22.4-0.7-45-1.1-67.5-0.6 -0.3 2.2-3.7 2.2-4.3 0.1 -4.4 0.1-8.7 0.3-13.1 0.5 -0.3 2.1-3.4 2.2-4.1 0.2 -4.2 0.2-8.3 0.5-12.4 0.8 -1 0.1-1 1.4 0 1.5 33.7 2.6 67.7-0.4 101.4 1.1 16 0.7 32 1.7 48 1.4 17.1-0.3 33.9-3.3 51-3.3C498.5 392.3 498.5 388 495.7 387.9z" class="e"/><path d="M307.8 42.7c-0.1 0.1-0.1 0.1-0.2 0.2 0.1 0 0.1 0 0.2 0C307.8 42.8 307.8 42.8 307.8 42.7z" class="e"/><path d="M306.9 43.6c0.1-0.1 0.1-0.1 0.2-0.2C307 43.5 307 43.5 306.9 43.6z" class="e"/><path d="M306.3 44.6c0 0.1 0 0.1 0 0.2C306.3 44.7 306.3 44.6 306.3 44.6L306.3 44.6z" class="e"/><path d="M311.7 390.5c0-0.1 0-0.3 0-0.4 -0.5-11.2 0-22.3 0.5-33.5 0 0 0 0-0.1 0 -0.6-0.1-1.6-0.2-1.9-0.8 -0.4-0.8 0.9-1.2 1.4-1.3 0.2 0 0.4-0.1 0.6-0.1 0.3-6 0.5-12.1 0.6-18.1 0.4-24-0.8-47.8-0.9-71.7 -0.1-21.3 0.9-42.5 0.4-63.8 -0.7-0.1-1.6-0.2-2.2-0.5 -0.2-0.1-0.2-0.4 0-0.6 0.6-0.4 1.4-0.4 2-0.5 0 0 0.1 0 0.1 0 -0.1-2-0.1-3.9-0.2-5.9 -1.1-24.4-1.1-48.7-1.6-73 -0.5-24.2 0.7-49.2-2.3-73.3 -0.5 0-1 0-1.5 0 -0.2 0-0.3-0.1-0.5-0.1v1.2c1.8 21.6 0.3 43.6 1 65.2 0.8 23.9 0.1 47.9 1 71.8 0.9 23.4 0.4 46.6-0.2 70 -0.7 23.8 1.2 47.7 0.8 71.6 -0.3 21.3-2.2 42.5-1.3 63.7 0 0.2 0.1 0.4 0.1 0.6C308.3 392.7 311.5 392.6 311.7 390.5z" class="e"/><path d="M477.8 45.2c0.1 0.5 0.2 1 0.3 1.5 2.4 13.2 1.9 26.7 1.6 40 -0.3 13.9 0.5 27.8 0.2 41.8 -0.5 28.5-1.5 57-3.2 85.4 -0.9 14.2 1.8 28.7 1.8 43 0 13.9-0.1 27.8-0.2 41.8 -0.2 29.8 0.8 59.5 1.2 89.3 0 0.2 0 0.3 0 0.4 0.5 2.8 4.9 2.7 5-0.3 0 0 0-0.1 0-0.1 -0.1-29.8-1.6-59.5-1.6-89.3 0-14.8 0-29.7-0.1-44.5 -0.1-14.3-2.9-28.6-1.8-42.9 2.3-29.3 2.3-58.9 2.2-88.3 0-13.8-0.5-27.5-0.2-41.3 0.2-12 0.2-24-2.3-35.7 -0.1-0.5-0.2-1-0.3-1.5C480 42.8 477.5 43.5 477.8 45.2z" class="e"/><path d="M327.8 227.4c-0.5-26.8-0.6-53.7-0.5-80.5 0-26.8 1.1-54.1-0.5-80.9 -0.4 0-0.7-0.2-1-0.4 -1.7 26.9-1 54.3-1.2 81.3 0 0.1 0 0.2 0 0.3 0.2 0 0.4 0 0.6 0 1.3 0.1 1.2 1.8 0 2 -0.2 0-0.4 0-0.6 0 -0.2 26.1-0.3 52.1-0.1 78.2 0.4 51.2-1.6 102.5 0 153.7 0.1 0 0.2 0 0.3 0 0.6-0.1 1 0.5 1 1 0 0.6-0.5 1-1 1 -0.1 0-0.2 0-0.3 0 0.1 2.1 0.1 4.1 0.2 6.2 0 0.2 0 0.4 0.1 0.6 0.6 2.1 4 2.1 4.3-0.1 0-0.1 0-0.3 0-0.5C327.2 335.5 328.8 281.4 327.8 227.4z" class="e"/><path d="M468.6 297.3c-0.4-0.1-0.8-0.2-1.2-0.3 -0.6-0.2-0.6-1 0-1.2 0.4-0.1 0.8-0.2 1.2-0.3 0-22.7 0.1-45.4-0.4-68.1 -0.5-25.2-0.5-50.5-0.5-75.7 -0.4-0.1-0.8-0.1-1.2-0.1 -0.5-0.1-0.7-0.6-0.2-0.9 0.5-0.3 0.9-0.5 1.4-0.6 0-1.1 0-2.1 0-3.2 0 0 0-0.1 0-0.1 -0.5-0.2-0.9-0.5-1.2-1 -0.4-0.8 0.4-1.7 1.2-1.5 0.1-26.1 1.1-52.6-0.5-78.6 0 0-0.1 0.1-0.2 0.1 -0.3 0.1-0.5 0.1-0.8 0.2 -1.7 26.8-1 54.1-1.2 80.9 -0.2 26.8-0.3 53.7-0.1 80.5 0.4 53.2-1.7 106.6 0.2 159.8 1 0.6 1.6 1.3 1.3 2.1 0 0 0 0 0 0 -0.4 0.1-0.8 0-1.2 0 0 0.1 0 0.2 0 0.3 0.4 2.5 4.5 2.5 4.4-0.3 0 0 0-0.1 0-0.1C468.5 358.6 468.5 328 468.6 297.3z" class="e"/><path d="M327 66.1c23.1-0.4 46.3 0.5 69.4-0.2 17-0.6 33.9-0.3 50.8-0.1 6.6-0.8 13.3-1.9 19.8-0.7 0.2 0 0.3 0.2 0.3 0.4 0.9-0.9 0.5-2.8-1.2-2.9 -23.3-0.1-46.4-1.3-69.7-0.5 -23.1 0.7-46.3-0.5-69.4 0.4 -1.8 0.1-2.2 2.2-1.2 3.2 0.2 0.2 0.6 0.4 1 0.4C326.8 66.1 326.9 66.1 327 66.1z" class="e"/><path d="M314.3 356.3c0.4-0.5 0.4-1.2 0-1.6 -0.4-0.4-1.3-0.5-2-0.4 -0.2 0-0.4 0.1-0.6 0.1 -0.6 0.1-1.8 0.5-1.4 1.3 0.3 0.6 1.3 0.8 1.9 0.9 0 0 0 0 0.1 0C312.9 356.7 313.8 356.9 314.3 356.3z" class="e"/><path d="M325.8 382.2c0-0.5-0.5-1.1-1-1 -0.1 0-0.2 0-0.3 0 -1 0.1-1.9-0.1-2.9-0.1 -0.6 0-1 0.8-0.5 1.2 0.9 0.8 2.3 1 3.5 0.9 0.1 0 0.2 0 0.3 0C325.4 383.2 325.8 382.8 325.8 382.2z" class="e"/><path d="M467.4 297c0.4 0.1 0.8 0.2 1.2 0.3 1.1 0.2 2.2 0.2 3.2 0.1 1-0.1 1-1.8 0-1.9 -1-0.2-2.2-0.1-3.2 0.1 -0.4 0.1-0.8 0.2-1.2 0.3C466.8 296 466.8 296.8 467.4 297z" class="e"/><path d="M478.2 54.4c-0.5-2.1 0.5-4.9-1.7-6.2 -2.3-1.4-6.4-0.8-8.8 0.2 -0.3 0.1-0.2 0.6 0.1 0.7 2.4 0.9 5.1-0.8 7.5 0.1 2 0.8 1.2 3.7 1.7 5.4C477.3 55.4 478.4 55.1 478.2 54.4z" class="e"/><path d="M469.7 50.8c-0.2 0.1-0.2 0.3 0 0.3 1 0.4 2.1 0.3 3.1 0.4 1.5 0.2 1.8 0.9 1.8 2.3 0 0.6 1 0.8 1.1 0.1C476.4 50.4 472.2 49.8 469.7 50.8z" class="e"/><path d="M473.1 53.7c-0.7-0.1-1.5-0.4-2.3-0.4 -0.7 0-0.7 1.1 0 1.1 0.6 0 1.1 0.3 1.6 0.4 0.1 0.4 0.1 0.7 0.3 1 0.1 0.2 0.4 0.2 0.5 0.1 0.4-0.4 0.3-1.1 0.3-1.6C473.5 54 473.3 53.7 473.1 53.7z" class="e"/><path d="M466.5 145.8c0.3 0.5 0.7 0.9 1.2 1 0.9 0.4 2.1 0.1 3-0.4 0.6-0.3 0.8-1.2 0.5-1.8 -0.4-0.6-1.1-0.8-1.8-0.5 -0.4 0.2-1.1 0.5-1.5 0.2 -0.1 0-0.1-0.1-0.2-0.1C466.9 144.1 466.1 145.1 466.5 145.8z" class="e"/><path d="M466.5 151.6c0.4 0 0.8 0.1 1.2 0.1 0.5 0.1 1.1 0.2 1.6 0.3 1.2 0.3 1.8-1.6 0.5-1.9 -0.7-0.2-1.4-0.2-2.1 0 -0.5 0.1-1 0.3-1.4 0.6C465.8 151 466 151.6 466.5 151.6z" class="e"/><path d="M325.2 147.3c-0.2 0-0.4 0-0.6 0 -2-0.1-3.9-0.2-5.9-0.1 -0.8 0-1.1 1.4-0.2 1.6 2 0.4 4.1 0.7 6.1 0.6 0.2 0 0.4 0 0.6 0C326.4 149.1 326.5 147.4 325.2 147.3z" class="e"/><path d="M315 200.5c1.3-0.4 0.8-2.5-0.6-2.1 -0.7 0.2-1.4 0.4-2.1 0.6 0 0-0.1 0-0.1 0 -0.7 0.1-1.4 0.1-2 0.5 -0.2 0.1-0.2 0.4 0 0.6 0.6 0.4 1.5 0.4 2.2 0.5 0 0 0.1 0 0.1 0C313.4 200.8 314.2 200.8 315 200.5z" class="e"/><path d="M467 65.1c-6.5-1.2-13.3-0.1-19.8 0.7 -0.5 0.1-1 0.1-1.5 0.2 -8.5 1-16.9 1.9-25.4 2.4 -15.2 0.9-30.9 1.6-45.9 3.9 -0.9 0.1-1.2 1-0.9 1.7 0.2-1 1.6-0.9 1.7 0.1 0 0.3 0 0.6 0 0.9 7.2-1.5 14.8-1.5 22.2-2.3 8.5-1 17.1-1.4 25.7-1.9 14.2-0.8 29.3-2 43.3-4.8 0.3-0.1 0.5-0.1 0.8-0.2 0.1 0 0.1-0.1 0.2-0.1 0.1-0.1 0.1-0.2 0.1-0.3C467.3 65.3 467.2 65.1 467 65.1z" class="e"/><path d="M434.4 377.9c-10.7-4-21.6-7.6-32.4-11.5 -9.1-3.3-20.2-5.1-28.3-10.8 0 0 0 0.1 0 0.1 -0.2 0.9-0.9 1.3-1.6 1.2 -0.3 0-0.7 0-1-0.2 0 0.5 0.2 1 0.7 1.4 6.7 5 15.3 6.5 23.1 8.9 10.5 3.3 20.8 7.4 31.3 10.9 8.8 2.9 17.2 6.7 26.3 8.5 3 0.6 6.1 1.1 9.1 2 1.2 0.3 2.3 1 3.5 1.2 0.4 0.1 0.8 0.1 1.2 0 0 0 0 0 0 0 0.3-0.9-0.4-1.6-1.3-2.1 -1.9-1.1-5-1.6-5.8-1.8C450.8 383.1 442.8 381.1 434.4 377.9z" class="e"/><path d="M372.2 356.9c0.7 0.1 1.4-0.3 1.6-1.2 0 0 0-0.1 0-0.1 1.1-5.3 0.5-11 0.5-16.4 0-11.8-0.1-23.6-0.1-35.4 -0.1-25.6 0-51.1 0.2-76.7 0.1-25.5 0.5-50.9 0.7-76.4 0.2-25.1 1.5-50.6-0.1-75.7 0-0.3 0-0.6 0-0.9 -0.1-1.1-1.5-1.1-1.7-0.1 0 0 0 0.1 0 0.1 -1.7 25.4-0.8 51.1-1.2 76.6 -0.4 25.5-0.7 50.9-1.2 76.4 -0.4 25.6-0.7 51.1-0.8 76.7 0 11.8-0.1 23.6-0.1 35.4 0 5.4-0.5 11.2 0.5 16.5 0.1 0.5 0.3 0.8 0.6 1C371.5 356.8 371.9 356.9 372.2 356.9z" class="e"/><path d="M386.5 221.2c0.5 0 1 0 1.5 0 0-0.3 0-0.6-0.1-0.9 -1.4-2.9 0.1-7.6 0.2-10.7 0.1-4.7-0.3-9.5-0.4-14.3 -0.1-11.8-0.2-23.5-0.4-35.3 0-2.7 0-5.4 0-8.1 -0.5-0.3-1-0.6-1.5-1 -0.3-0.2 0-0.7 0.3-0.7 0.4 0 0.8 0 1.2 0 0.1-3.7 0.2-7.3 0.4-11 -0.5-0.1-1.1-0.1-1.6-0.2 -0.2 0-0.4-0.2-0.4-0.3 -0.3 9-0.6 18-0.8 26.9 -0.4 11.9-0.5 23.8-0.1 35.6 0.1 4.3 0.2 8.5-0.1 12.8 -0.2 2.7-0.6 5.3 0.5 7.9 0.4 0.9 1.2 1 1.9 0.7 -0.2-0.1-0.4-0.1-0.6-0.2C385.7 222.2 385.8 221.2 386.5 221.2z" class="e"/><path d="M386.1 138c0.6-0.1 1.1-0.1 1.7-0.2 0.7-15.5 1.8-31.1 0.8-46.6 0-0.4-0.6-0.4-0.6 0 -1.1 15.6-1.7 31.3-2.2 47C385.8 138.2 385.9 138.1 386.1 138z" class="e"/><path d="M388.9 90.7c1.6 3.7 15.5-0.4 17.9-0.7 12.1-1.3 24.6-1 36.6-3.4 0-0.5 0.1-0.9 0.1-1.4 0-0.2 0.2-0.3 0.3-0.4 -0.2-0.2-0.6-0.4-1-0.3 -17.8 2.8-36.1 2.1-53.8 5.9C388.9 90.4 388.8 90.6 388.9 90.7z" class="e"/><path d="M443.4 85.2c-0.1 0.5-0.1 0.9-0.1 1.4 -0.3 4.9 0.7 9.8 0.5 14.8 -0.3 5.1-0.9 10.1-0.9 15.2 0 7.6 0.3 15.1 0.4 22.6 0.3 0 0.6 0 1 0 1.6 0 1.6 2.5 0 2.5 -0.3 0-0.6 0-0.9 0 0 3.5 0 7-0.1 10.5 0.3 0 0.7 0 1 0 1.5 0 1.5 2.4 0 2.4 -0.4 0-0.7 0-1.1 0v0c-1 24.1-2.4 48.2-3.4 72.3 0.4 0.1 0.7 0.1 1.1 0.2 1.2 0.3 1 1.8 0.2 2.2 1.1 0.3 2.4-0.3 2.5-1.8 0.9-24.8 2.6-49.6 2.7-74.4 0-12.2-0.9-24.4-1-36.6 -0.1-10.9 0.9-20.7-1.1-31.5 0-0.2-0.2-0.3-0.4-0.3C443.6 84.9 443.5 85 443.4 85.2z" class="e"/><path d="M440.9 227.1c-0.4-0.1-0.7-0.2-1.1-0.2 -3.3-0.6-6.7-0.5-10.1-0.7 -4.9-0.4-9.8-1.7-14.6-2.5 -8.8-1.4-18.1-2.5-27.1-2.5 -0.5 0-1 0-1.5 0 -0.7 0-0.8 1-0.2 1.2 0.2 0.1 0.4 0.1 0.6 0.2 9.1 2.8 19.2 2.1 28.6 3.7 3.9 0.6 7.8 1.7 11.7 2.1 4.3 0.5 8.7 0.1 13 1.1 0.3 0.1 0.6 0 0.8-0.1C441.9 228.9 442.1 227.4 440.9 227.1z" class="e"/><path d="M387 246.4c0 0.3 0.1 0.5 0.1 0.8 2.6 0.4 5.8 0.1 8.3 0.5 4.1 0.6 8.2 1.1 12.3 1.9 11.4 2.1 23 1.8 34.4 3.6 0.1 0 0.1 0 0.2 0 0-0.3 0-0.7 0.1-1 0-0.4 0.6-0.4 0.7 0 0 0.2 0 0.4 0 0.6 0.5-0.6 0.4-1.5-0.5-1.6 -11.8-1.9-23.7-2-35.5-4 -6.2-1.1-14.2-3.2-20.5-1.7 -0.2 0.1-0.4 0.2-0.5 0.4C386.5 245.7 386.9 245.9 387 246.4z" class="e"/><path d="M308.3 46.7c28.1 0.8 56.3-0.1 84.4 0.1 13.8 0.1 27.6 0.9 41.4 0.8 14.7-0.1 29.3-2 44-0.9 -0.1-0.5-0.2-1-0.3-1.5 -0.3-1.7 2.2-2.4 2.6-0.7 0.1 0.5 0.2 1 0.3 1.5 0.6-1.1 0.1-2.9-1.6-3.1 -15-1.3-30 0.7-45 0.8 -13.8 0.1-27.6-0.7-41.4-0.8 -28.3-0.3-56.7-0.8-84.9 0 -0.1 0-0.1 0-0.2 0 0 0 0 0 0 0 -0.2 0.1-0.3 0.3-0.5 0.5 -0.1 0.1-0.1 0.1-0.2 0.2 -0.2 0.3-0.5 0.6-0.7 0.9 0 0 0 0 0 0 0 0.1 0 0.1 0 0.2v1.9c0.2 0 0.3 0.1 0.5 0.1C307.3 46.7 307.8 46.7 308.3 46.7z" class="e"/><path d="M442.4 357.8c0 0.1-0.1 0.2-0.1 0.3C442.3 358 442.3 357.9 442.4 357.8z" class="e"/><path d="M443.1 252.1c0-0.4-0.6-0.4-0.7 0 0 0.3-0.1 0.7-0.1 1 -0.9 10.1-1.1 20.3-1.3 30.5 0.2 0 0.4 0.1 0.6 0.1 1.3 0.3 0.7 2.2-0.5 2 0 0-0.1 0-0.1 0 0 2.4-0.1 4.8-0.1 7.2 0.4 0.1 0.8 0.2 1.3 0.3 1.4 0.4 0.8 2.6-0.6 2.2 -0.2-0.1-0.5-0.1-0.7-0.2 -0.1 3.1-0.1 6.3-0.2 9.4 -0.6 16.6-0.9 33.2-1.2 49.8 0.8 0.4 1.6 0.8 2.3 1.4 0.4 0.3 0.6 0.7 0.7 1.2 -0.2-17.5 0.1-34.8 0.6-52.4 0.5-17.2 1.7-34.8 0.1-51.9C443.1 252.5 443.1 252.3 443.1 252.1z" class="e"/><path d="M386.1 139c0.5 0.1 1.1 0.1 1.6 0.2 18.3 2.1 37.2 2.4 55.6 2.5 0.3 0 0.6 0 0.9 0 1.6 0 1.6-2.5 0-2.5 -0.3 0-0.6 0-1 0 -18.3-0.1-37.3-3-55.5-1.3 -0.6 0.1-1.1 0.1-1.7 0.2 -0.2 0-0.3 0.2-0.4 0.3 -0.1 0.1-0.1 0.2 0 0.3C385.8 138.9 385.9 139 386.1 139z" class="e"/><path d="M386.5 276.1c0 0 0 0 0 0 0-0.1 0-0.2 0-0.3C386.4 275.9 386.4 276 386.5 276.1z" class="e"/><path d="M389.1 278.1c0.7 0.3 1.6 0.4 2.6 0.6 5.2 1 10.6 1.1 15.9 2.1 11.1 2.1 22.3 3 33.4 4.8 0 0 0.1 0 0.1 0 1.3 0.2 1.8-1.7 0.5-2 -0.2 0-0.4-0.1-0.6-0.1 -17.1-3.3-34.8-4.1-51.9-7.3C389.1 276.9 389.1 277.5 389.1 278.1z" class="e"/><path d="M388.9 285.5c0 0.8 0 1.5-0.1 2.3 3.2 0.6 6.5 0.6 9.8 1.1 5 0.7 9.9 1.8 14.8 2.8 9.1 1.8 18.5 1.3 27.5 3.6 0.2 0.1 0.5 0.1 0.7 0.2 1.4 0.4 2-1.8 0.6-2.2 -0.4-0.1-0.8-0.2-1.3-0.3 -9.6-2.5-19.6-2.2-29.3-4.3C405 287.1 396.1 284.4 388.9 285.5z" class="e"/><path d="M386 286.1c-0.4 0.1-0.4 0.7 0 0.9 0 0 0 0 0 0 0-0.3 0-0.6 0-0.9C386.1 286.1 386.1 286.1 386 286.1z" class="e"/><path d="M411.4 150.9c-4.1 0.1-8.2 0.4-12.3 0.4 -4 0-7.8-0.9-11.7-1 -0.4 0-0.8 0-1.2 0 -0.3 0-0.6 0.5-0.3 0.7 0.5 0.4 1 0.7 1.5 1 5.7 3.3 15.3 1.8 21.1 1.6 11.6-0.5 23.1 1 34.7 1.2 0.4 0 0.7 0 1.1 0 1.5 0 1.5-2.4 0-2.4 -0.3 0-0.7 0-1 0C432.6 152 422 150.5 411.4 150.9z" class="e"/><path d="M386.8 342c-0.1-0.2 0-0.5 0.2-0.5 0.5-0.1 1-0.1 1.5-0.1 0-0.7-0.5-1.2-1.1-1.3 0.5-3.2 0.1-20.2 0.1-21.8 0.1-8.3 0.6-16.6 1-24.8 0.1-1.9 0.2-3.7 0.3-5.6 0-0.8 0.1-1.5 0.1-2.3 0.1-2.5 0.1-4.9 0.2-7.4 0-0.6 0-1.2 0-1.9 0-9.7-0.5-19.4-2-29 0-0.3-0.1-0.5-0.1-0.8 -0.1-0.5-0.5-0.7-0.9-0.6 -0.5 0.1-0.9 0.5-0.8 1.1 1.3 9.6 1.5 19.3 1.2 28.9 0 0.1 0 0.2 0 0.3 -0.1 3.3-0.2 6.6-0.4 10 0 0.3 0 0.6 0 0.9 -0.1 3-0.3 6.1-0.5 9.1 -0.8 15.3-0.4 30.5-0.5 45.8 0 0.9 0.7 1.4 1.5 1.5 0.1 0 0.2 0 0.3 0 0.3 0 0.5-0.1 0.8-0.2C387.3 342.8 387 342.4 386.8 342z" class="e"/><path d="M441.8 355.8c-0.7-0.6-1.5-1-2.3-1.4 -2.1-1-4.4-1.3-6.9-1.7 -6-0.9-11.5-2.2-17.3-4 -5.3-1.6-10.6-2.8-15.9-4.3 -3.5-1-7.2-3-10.9-3 -0.5 0-1 0-1.5 0.1 -0.2 0-0.3 0.3-0.2 0.5 0.3 0.4 0.5 0.8 0.9 1.2 4.7 5.3 17.1 6.1 23.4 7.8 5.3 1.5 10.4 3.5 15.8 4.4 4.5 0.8 9.4 0.4 13.2 3.3 0.9 0.7 1.7 0.2 2.1-0.5 0.1-0.1 0.1-0.2 0.1-0.3 0.1-0.3 0.1-0.5 0.1-0.8C442.4 356.5 442.2 356.1 441.8 355.8z" class="e"/><path d="M455.8 360.7c0.7 0.3 1.4 0.6 2.1 1 0.7 0.3 1.4 0.7 2.1 1 0.6 0.2 1-0.6 0.6-1 -1.2-1.2-3.2-1.4-4.8-1.1C455.7 360.5 455.7 360.6 455.8 360.7z" class="e"/><path d="M456.7 364.3c0.8 0.2 1.5 0.5 2.2 0.8 0.7 0.3 1.3 0.8 1.9 1.2 0.6 0.3 1.1-0.4 0.7-0.9 -1.1-1.3-3.1-1.9-4.7-1.9C456.3 363.5 456.2 364.2 456.7 364.3z" class="e"/><path d="M462.4 368.9c-0.8-0.8-2.2-1-3.2-1.3 -1.2-0.3-2.3-0.4-3.5-0.1 -0.3 0.1-0.3 0.6 0 0.7 1.2 0.2 2.4 0.5 3.5 0.9 1 0.3 1.9 0.9 3 0.7C462.6 369.7 462.7 369.1 462.4 368.9z" class="e"/><path d="M454.4 370.5c-0.1-0.1-0.2 0.2-0.1 0.2 2.3 1.2 5.1 3 7.8 2.6 0.3 0 0.3-0.4 0.1-0.5 -1.1-0.7-2.4-0.8-3.6-1.1C457.2 371.3 455.8 371 454.4 370.5z" class="e"/><path d="M452.5 374.7c2 0.3 4 0.6 6 1.2 1.5 0.4 3 1.1 4.6 1.3 0.3 0 0.3-0.4 0.1-0.5 -2.8-2-7.4-2.4-10.7-2.4C452.2 374.3 452.2 374.7 452.5 374.7z" class="e"/><path d="M452.4 378.1c2.8 0.9 6.7 3.3 9.8 2.5 0.4-0.1 0.3-0.6 0-0.7 -1.6-0.6-3.4-0.9-5.1-1.4 -1.5-0.5-3-0.9-4.6-0.9C452.2 377.6 452.1 378 452.4 378.1z" class="e"/><path d="M451.5 381.4c3.5 0.8 7.5 2.9 11.1 2.6 0.4 0 0.5-0.6 0.1-0.7 -3.3-1.2-7.6-2.7-11.1-2.3C451.3 381.1 451.2 381.4 451.5 381.4z" class="e"/><path d="M429.8 89.9c-0.1 0-0.1 0.3 0 0.3 2.8 0.6 6.9-0.9 9.3 1.2 0.5 0.5 1.3-0.3 0.8-0.8C437.5 88.4 432.7 89.1 429.8 89.9z" class="e"/><path d="M439.6 93.8c0.2-0.1 0.4-0.4 0.3-0.6 -0.6-0.8-1.7-0.8-2.7-0.8 -1.3 0-2.7 0.1-3.9 0.4 -0.1 0-0.1 0.1 0 0.2 1.1 0.3 2.2 0.2 3.3 0.4C437.5 93.5 438.7 94 439.6 93.8z" class="e"/><path d="M435.2 96.2c1.1 0.1 2.3 0.3 3.4 0.3 0.9-0.1 0.9-1.4 0-1.4 -1.1-0.1-2.3 0.1-3.4 0.3C434.6 95.4 434.6 96.1 435.2 96.2z" class="e"/><path d="M435.6 98.4c0.5 0.1 1.1 0.2 1.6 0.3 0.5 0.1 1 0.3 1.5 0.4 0.5 0.1 1-0.6 0.6-1 -1-0.9-2.7-0.8-3.8-0.2C435.3 98.1 435.4 98.4 435.6 98.4z" class="e"/><path d="M439.3 100.1c-0.8-0.1-1.5 0-2.3 0.2 -0.2 0.1-0.2 0.4 0.1 0.4 0.7 0 1.4 0.2 2.1 0.4 0.5 0.1 1 0.4 1.5 0.1 0.1-0.1 0.2-0.2 0.1-0.3C440.6 100.4 439.8 100.2 439.3 100.1z" class="e"/><path d="M439.5 101.9c-0.7-0.2-1.3-0.1-1.9-0.5 -0.1-0.1-0.3 0.1-0.2 0.2 0.3 0.3 0.6 0.5 0.8 0.9 0.2 0.3 0.3 0.5 0.6 0.7 0.5 0.4 1.2 0.7 1.8 0.3 0.3-0.2 0.3-0.5 0.2-0.8C440.7 102.1 440.1 102.1 439.5 101.9z" class="e"/><path d="M438.4 104.5c-0.4 0.1-0.4 0.7 0 0.8 0.9 0.2 2.1 0.5 2.9-0.1 0.2-0.2 0.2-0.5 0-0.7C440.5 103.9 439.3 104.2 438.4 104.5z" class="e"/><path d="M386.3 231.8c-0.5-2.7-3.6-6.8-6.6-4 -0.2 0.2-0.3 0.4-0.3 0.6 -4 2.9-3.7 12.7 2.7 11.2C385.5 238.7 386.9 235 386.3 231.8zM381 238c-2.5 0.3-3.1-2.3-2.9-4.3 0.2-1.7 0.8-3.2 1.9-4.5 0.1 0.1 0.3 0.1 0.4 0.1 1 0.1 1.8-0.2 2.6 0.5 0.8 0.6 1.2 1.6 1.4 2.6C384.9 235 383.8 237.6 381 238z" class="e"/><path d="M452.9 70.4c3.3 0.2 6.8-0.1 10.1-0.4 0.9-0.1 1-1.5 0-1.5 -3.3 0-6.8 0.4-10.1 0.6C452.1 69.2 452.1 70.4 452.9 70.4z" class="e"/><path d="M460 72.9c0.8 0 2.2 0.2 2.9-0.3 0.3-0.2 0.2-0.6 0-0.8 -0.5-0.7-2.3-0.2-3-0.1 -1.2 0.1-2.5 0.4-3.6 1 -0.1 0-0.1 0.2 0 0.2C457.5 73.1 458.8 73 460 72.9z" class="e"/><path d="M459.5 75.1c-0.5 0.1-0.5 0.8 0 0.9 1.2 0.3 2.4 0.4 3.7 0.4 1.1 0 1.1-1.7 0-1.8C461.9 74.7 460.8 74.8 459.5 75.1z" class="e"/><path d="M463.6 77c-1.1-0.4-2.4 0.1-3.5 0.3 -0.2 0-0.2 0.3 0 0.3 1.1 0.2 2.4 0.7 3.5 0.3C464.1 77.8 464.1 77.2 463.6 77z" class="e"/><path d="M357.9 48.2c0.5 0 1 0 1.5 0.3 1.2 0.6 1.2 2.7 0.2 3.7s-2.4 1.4-3.7 1.7c-7.4 1.6-14.8 3.1-22.3 4.7 -2.6 0.5-5.2 1.1-7.4 2.6 -3.2 2.2-5 6.2-5.9 10.1 -3 13.1 0.7 26.3 1.7 39.4 0.9 11.8-2.9 24.1-6.8 35 1.1-3.1-3.8-13.5-3.9-17.5 -0.2-5.9 1-12 0.6-18 -0.6-9.9-1-19.8-0.8-29.7 0.2-7.8-5.3-27.9 2.8-32.7 1.4-0.8 3-0.9 4.6-1C331.8 45.9 344.7 48.1 357.9 48.2z" class="d"/></svg>