<svg version="1.1" id="Layer_1" xmlns="http://www.w3.org/2000/svg" xmlns:xlink="http://www.w3.org/1999/xlink" viewBox="0 0 768 430" enable-background="new 0 0 768 430" xml:space="preserve">
<g>
	<path fill="#F07D4C" d="M527.973,159.471v-53.364c0-30.986-25.111-56.107-56.102-56.107H275.237
		c-30.99,0-56.101,25.121-56.101,56.107v222.694h308.836V258.6c0-6.201-4.968-11.889-11.121-12.711l-48.029-6.447l-2.185-65.005
		c-0.045-1.324-0.354-2.566-0.812-3.744h50.934C522.951,170.692,527.973,165.67,527.973,159.471z"/>
	<path fill="#A2A6AD" d="M519.099,346.66H228.012c-4.905,0-8.876-3.971-8.876-8.875v-8.984h308.836v8.984
		C527.973,342.689,524.011,346.66,519.099,346.66z"/>
	<g>
		<path fill="#7E8187" d="M326.227,353.729c0,19.633-15.924,35.557-35.556,35.557c-19.632,0-35.557-15.924-35.557-35.557
			s15.924-35.557,35.557-35.557C310.302,318.172,326.227,334.096,326.227,353.729z"/>
		<path fill="#D6DBE6" d="M310.667,353.729c0,11.041-8.966,19.998-19.997,19.998c-11.049,0-19.998-8.957-19.998-19.998
			c0-11.049,8.949-19.998,19.998-19.998C301.701,333.73,310.667,342.68,310.667,353.729z"/>
		<path fill="#7E8187" d="M491.997,353.729c0,19.633-15.927,35.557-35.55,35.557c-19.641,0-35.565-15.924-35.565-35.557
			s15.925-35.557,35.565-35.557C476.07,318.172,491.997,334.096,491.997,353.729z"/>
		<path fill="#D6DBE6" d="M476.436,353.729c0,11.041-8.948,19.998-19.988,19.998c-11.039,0-20.006-8.957-20.006-19.998
			c0-11.049,8.967-19.998,20.006-19.998C467.487,333.73,476.436,342.68,476.436,353.729z"/>
	</g>
	<path fill="#EBEBEB" d="M534,292.074c0,11.104-6.027,20.117-6.027,20.117s-6.024-9.014-6.024-20.117s6.024-20.117,6.024-20.117
		S534,280.971,534,292.074z"/>
	<g>
		<path fill="#B05C38" d="M373.556,315.705c1.551,0,2.802-1.26,2.802-2.811v-51.848c0-1.553-1.251-2.812-2.802-2.812
			c-1.544,0-2.804,1.26-2.804,2.812v51.848C370.751,314.445,372.012,315.705,373.556,315.705z"/>
		<path fill="#B05C38" d="M422.07,263.895c0,2.494,2.026,4.512,4.519,4.512h11.45c2.493,0,4.52-2.018,4.52-4.512l0,0
			c0-2.492-2.026-4.51-4.52-4.51h-11.45C424.097,259.385,422.07,261.402,422.07,263.895L422.07,263.895z"/>
		<path fill="#B05C38" d="M455.089,315.705c1.551,0,2.811-1.26,2.811-2.811v-51.848c0-1.553-1.26-2.812-2.811-2.812
			c-1.554,0-2.805,1.26-2.805,2.812v51.848C452.284,314.445,453.535,315.705,455.089,315.705z"/>
	</g>
	<path fill="#A6D5F3" d="M435.986,174.445h-57.801v77.178h72.283l-2.786-65.964C447.427,179.468,442.193,174.445,435.986,174.445z"
		/>
	<rect x="296.641" y="174.445" fill="#A6D5F3" width="72.285" height="77.178"/>
	<rect x="230.35" y="174.445" fill="#A6D5F3" width="57.052" height="77.178"/>
	<g>
		<rect x="378.185" y="61.223" fill="#A6D5F3" width="72.283" height="60.352"/>
		<rect x="296.641" y="61.223" fill="#A6D5F3" width="72.285" height="60.352"/>
		<path fill="#A6D5F3" d="M471.871,61.223h-12.162v60.352h57.051v-15.468C516.76,81.357,496.636,61.223,471.871,61.223z"/>
		<path fill="#A6D5F3" d="M287.402,61.223h-12.165c-24.763,0-44.888,20.134-44.888,44.884v15.468h57.052V61.223z"/>
	</g>
</g>
</svg>
