<svg version="1.1" xmlns="http://www.w3.org/2000/svg" xmlns:xlink="http://www.w3.org/1999/xlink" viewBox="0 0 768 430" style="enable-background:new 0 0 768 430;" xml:space="preserve"><g id="buss"> <g>  <rect x="433.273" y="156.788" style="fill:none;" width="36.854" height="44.829"/>  <rect x="482.23" y="156.294" style="fill:none;" width="36.854" height="44.827"/>  <rect x="530.144" y="155.633" style="fill:none;" width="36.854" height="44.827"/>  <path style="fill:none;" d="M261.639,194.573c-5.289,6.47,0.664,9.241,0.664,9.241s55.629-0.635,62.903-0.635 c2.531,0,0.57-44.633,0.57-44.633l-39.672,0.922C286.104,159.468,266.928,186.26,261.639,194.573z"/>  <rect x="384.297" y="157.281" style="fill:none;" width="36.854" height="44.829"/>  <rect x="335.342" y="157.777" style="fill:none;" width="36.853" height="44.827"/>  <path style="fill:#DDE4D0;" d="M259.242,247.164c-11.186-0.102-20.329,9.478-20.423,21.393c-0.002,0.121-0.002,0.24,0,0.362 c-0.095,11.914,8.896,21.654,20.082,21.756c11.186,0.099,20.33-9.478,20.423-21.396c0.002-0.119,0.002-0.241,0-0.36 C279.417,257.004,270.427,247.265,259.242,247.164z"/>  <path style="fill:#DDE4D0;" d="M467.359,247.06c-11.387-0.102-20.694,9.571-20.79,21.603c0,0.123,0,0.244,0,0.367 c-0.096,12.032,9.058,21.869,20.444,21.97c11.387,0.1,20.693-9.572,20.79-21.604c0-0.123,0-0.245,0-0.365 C487.897,256.995,478.746,247.159,467.359,247.06z"/>  <path style="fill:#DDE4D0;" d="M571.724,114.271c-16.837-15.167-300.613-0.004-300.613-0.004l-2.633,32.961 c0,0,9.237-1.156,10.407,4.115l-0.602-0.152c0.35,0.628-28.567,31.055-35.975,43.98c-10.504,5.741-24.643,14.805-25.953,22.595 c-2.107,12.526-0.525,27.689-0.525,27.689l2.597,0.363l-3.638,0.336v28.466h16.301c0,0-1.752-17.468,6.758-27.147l1.666-2.505 c5.25-3.192,14.388-7.528,24.197-6.588c15.239,1.463,24.053,17.764,25.244,32.783l149.347,0.704 c0.402-8.908,0.925-12.273,3.365-17.622c3.846-7.812,9.057-10.238,12.903-12.324c8.682-4.726,20.535-2.439,24.457-0.812 c4.863,2.033,11.614,8.433,14.234,15.594c2.229,6.092,2.35,11.989,2.381,15.223l83.982-0.523 C579.626,271.403,588.576,129.43,571.724,114.271z M566.997,155.633v44.827h-36.854v-44.827H566.997z M519.084,156.294v44.827 H482.23v-44.827H519.084z M470.127,156.788v44.829h-36.854v-44.829H470.127z M421.15,157.281v44.829h-36.854v-44.829H421.15z  M335.342,202.604v-44.827h36.853v44.827H335.342z M325.206,203.18c-7.274,0-62.903,0.635-62.903,0.635s-5.952-2.771-0.664-9.241 c5.289-8.313,24.465-35.105,24.465-35.105l39.672-0.922C325.776,158.546,327.737,203.18,325.206,203.18z"/> </g></g><g id="Layer_1"></g></svg>