<svg version="1.1" xmlns="http://www.w3.org/2000/svg" xmlns:xlink="http://www.w3.org/1999/xlink" viewBox="0 0 768 430" style="enable-background:new 0 0 768 430;" xml:space="preserve"><g id="butterfly"> <g>  <path style="fill:none;" d="M338.989,286.556c20.54,11.342,51.608-81.848,50.585-79.936 C352.283,276.622,319.78,271.235,338.989,286.556z"/>  <path style="fill:none;" d="M389.205,173.867c-56.392-72.435-166.292-62.136-166.153-56.559 C223.433,132.933,320.301,97.607,389.205,173.867z"/>  <path style="fill:none;" d="M414.822,204.139c-1.406-1.649,48.844,82.758,66.498,67.276 C496.803,252.346,466.211,264.554,414.822,204.139z"/>  <path style="fill:none;" d="M282.937,145.829c0.771,9.589,59.076-15.5,104.054,28.99 C349.832,132.243,282.667,142.402,282.937,145.829z"/>  <path style="fill:none;" d="M409.527,178.439c32.186-54.474,94.943-45.047,93.258-54.52 C502.178,120.535,434.625,127.811,409.527,178.439z"/>  <path style="fill:none;" d="M407.135,178.085c47.252-91.289,149.912-81.783,146.309-96.989 C552.156,75.672,443.254,93.682,407.135,178.085z"/>  <path style="fill:#DDE4D0;" d="M549.523,68.778c-21.049,1.861-100.637,21.448-145.787,88.895c-0.303-2.67-0.145-8.766-3.432-9.447 c0.496-2.13-1.568-5.639-3.799-5.449c-0.312,0.038-0.59,0.154-0.865,0.312c-0.299-0.101-0.6-0.15-0.912-0.124 c-2.203,0.28-3.506,4.144-2.562,6.121c-3.073,1.354-1.645,7.281-1.381,9.957c-58.258-56.498-140.199-58.975-161.173-56.386 c-23.517,2.902-33.259,4.514,5.632,33.083c21.666,15.909,34.248,29.613,37.501,40.359c9.512,31.393,20.797,33.979,30.688,35.627 c16.031,2.682,5.636,34.497,13.129,57.477c12.042,36.929,33.681,29.146,39.083,27.317c6.313-2.127,14.232-18.935,37.899-71.56 c1.602-3.438,3.334-7.096,5.158-10.952c1.568,7.319,4.275,20.6,4.309,27.156c0.08,19.867,10.592,23.838,10.666,10.599 c0.045-2.985-0.344-6.982-1.381-11.921c-1.348-6.412-4.68-19.284-4.779-26.751c2.582,3.38,5.025,6.594,7.326,9.612 c34.16,46.505,45.416,61.278,52.039,62.038c5.668,0.648,28.443,3.728,32.498-34.9c2.52-24.036-14.307-52.978,0.795-58.949 c9.334-3.68,19.828-8.58,22.557-41.266c0.928-11.192,10.367-27.221,28.213-47.324C582.994,66.228,573.129,66.691,549.523,68.778z  M223.052,117.308c-0.139-5.577,109.761-15.876,166.153,56.559C320.301,97.607,223.433,132.933,223.052,117.308z M282.937,145.829 c-0.27-3.427,66.895-13.586,104.054,28.99C342.013,130.329,283.708,155.418,282.937,145.829z M338.989,286.556 c-19.209-15.32,13.293-9.934,50.585-79.936C390.598,204.708,359.529,297.897,338.989,286.556z M481.32,271.415 c-17.654,15.481-67.904-68.926-66.498-67.276C466.211,264.554,496.803,252.346,481.32,271.415z M409.527,178.439 c25.098-50.628,92.65-57.904,93.258-54.52C504.471,133.392,441.713,123.965,409.527,178.439z M407.135,178.085 c36.119-84.403,145.021-102.414,146.309-96.989C557.047,96.302,454.387,86.796,407.135,178.085z"/> </g></g><g id="Layer_1"></g></svg>