<svg version="1.1" id="Layer_1" xmlns="http://www.w3.org/2000/svg" xmlns:xlink="http://www.w3.org/1999/xlink" viewBox="0 0 768 430" enable-background="new 0 0 768 430" xml:space="preserve">
<g>
	<path id="path3105" fill="#F44D8D" d="M206.132,170.838v151.363l193.856,70.399L549.67,292.533V148.738l-153.886,81.569
		L206.132,170.838z"/>
	<g id="path3107" opacity="0.525" enable-background="new    ">
		
			<radialGradient id="SVGID_1_" cx="1007.6211" cy="245.4883" r="0.1886" gradientTransform="matrix(291.1813 -494.095 511.7715 301.5966 -418727.75 424104.7188)" gradientUnits="userSpaceOnUse">
			<stop  offset="0" style="stop-color:#FFFFFF"/>
			<stop  offset="1" style="stop-color:#FFFFFF"/>
		</radialGradient>
		<polygon fill="url(#SVGID_1_)" points="207.732,319.133 398.438,390.549 398.438,243.008 207.732,184.933 		"/>
	</g>
	<g id="rect3109" opacity="0.522" enable-background="new    ">
		
			<linearGradient id="SVGID_2_" gradientUnits="userSpaceOnUse" x1="14.3696" y1="-0.1152" x2="14.916" y2="-0.1152" gradientTransform="matrix(7.9029 0 0 284.5232 283.2321 344.5156)">
			<stop  offset="0" style="stop-color:#FFFFFF"/>
			<stop  offset="1" style="stop-color:#FFFFFF"/>
		</linearGradient>
		<rect x="396.791" y="233.898" fill="url(#SVGID_2_)" width="4.316" height="155.457"/>
	</g>
	<path id="path3111" fill="#F44D8D" d="M359.47,89.751l194.32,30.636l-0.479,52.189l-152.92,77.39L203.288,189.37l0.321-53.352
		L359.47,89.751z"/>
	<g id="path3113" opacity="0.5" enable-background="new    ">
		<polygon fill="#F44D8D" points="204.593,151.187 205.378,188.857 396.867,248.5 397.652,204.552 		"/>
	</g>
	<g id="path3115">
		
			<linearGradient id="SVGID_3_" gradientUnits="userSpaceOnUse" x1="-14.6025" y1="35.9561" x2="-14.0562" y2="35.9561" gradientTransform="matrix(631.9763 0 0 227.0507 9434.5117 -7979.3281)">
			<stop  offset="0" style="stop-color:#FFFFFF"/>
			<stop  offset="1" style="stop-color:#FFFFFF"/>
		</linearGradient>
		<polygon fill="url(#SVGID_3_)" points="206.008,137.548 399.32,188.883 551.304,122.398 551.109,126.347 401.564,192.621 
			400.824,246.453 396.339,246.453 396.331,192.621 206.233,142.1 		"/>
	</g>
	<g id="path3117">
		<polygon points="437.904,109.046 279.625,158.923 277.477,345.689 317.915,361.863 319.485,170.476 480.576,109.3 		"/>
	</g>
	<path id="path3119" fill="#1F1D6C" d="M440.133,102.475l-161.987,53.488l-2.412,192.16l40.247,14.459l2.024-195.066l162.521-58.899
		L440.133,102.475z"/>
	<g id="path3121" opacity="0.5" enable-background="new    ">
		<polygon fill="#F44D8D" points="554.906,131.73 551.808,172.303 397.938,248.984 397.15,205.226 		"/>
	</g>
	<g id="path3123">
		<polygon points="277.284,114.535 464.984,162.642 465.343,347.779 501.874,323.436 499.644,145.89 313.606,104.839 		"/>
	</g>
	<path id="path3127" opacity="0.75" fill="#1F1D6C" enable-background="new    " d="M318.226,64.039c0,0,1.885,15.571,12.709,29.903
		c5.136,6.802,25.042,18.316,25.042,18.316l10.841,13.082c0,0-11.214,3.738-16.821,2.99c-5.606-0.748-33.419-8.817-43.886-14.798
		c-10.467-5.981-29.155-27.06-30.277-31.919c-1.121-4.859-6.284-17.494-1.798-25.718c4.484-8.223,13.166-12.041,15.782-12.415
		c2.617-0.374,27.286,12.335,27.286,12.335L318.226,64.039z"/>
	<g id="path3129" opacity="0.75" enable-background="new    ">
		<polygon fill="#1F1D6C" points="279.939,158.58 315.871,167.416 313.515,267.555 278.76,236.924 		"/>
	</g>
	
		<linearGradient id="path3131_1_" gradientUnits="userSpaceOnUse" x1="979.8037" y1="189.1748" x2="979.8387" y2="189.1748" gradientTransform="matrix(1137.6315 0 0 1039.3336 -1114380.375 -196271.625)">
		<stop  offset="0" style="stop-color:#1F1D6C"/>
		<stop  offset="0" style="stop-color:#000000"/>
	</linearGradient>
	<path id="path3131" fill="url(#path3131_1_)" d="M277.037,325.748l-0.646,21.836l38.979,14.07l0.323-24.099L277.037,325.748z"/>
	<g id="path3133" opacity="0.674" enable-background="new    ">
		
			<linearGradient id="SVGID_4_" gradientUnits="userSpaceOnUse" x1="2.2227" y1="0.376" x2="2.769" y2="0.376" gradientTransform="matrix(54.9506 0 0 170.451 349.3684 130.9688)">
			<stop  offset="0" style="stop-color:#4D4D4D"/>
			<stop  offset="1" style="stop-color:#4D4D4D"/>
		</linearGradient>
		<polygon fill="url(#SVGID_4_)" points="500.55,148.361 471.502,161.408 472.739,241.49 501.525,216.119 		"/>
	</g>
	<g id="g3135" opacity="0.75">
		<g id="path3137" opacity="0.953" enable-background="new    ">
			<path fill="#1F1D6C" d="M362.561,134.308c0,0,16.53,0.376,18.018,10.339c1.488,9.962-7.535,20.746,11.304,41.596
				c6.375-2.449,7.572-8.47,7.572-8.47l15.156,8.221c0,0-10.938-20.084-10.17-27.987c0.767-7.903,3.533-17.452-1.643-21.023
				c-5.177-3.57-31.924-6.166-31.924-6.166L362.561,134.308z"/>
		</g>
		<path id="path3139" fill="#1F1D6C" d="M363.598,133.238c0,0,16.53,0.376,18.018,10.338c1.488,9.963-7.535,20.746,11.305,41.597
			c6.374-2.45,7.571-8.47,7.571-8.47l15.156,8.221c0,0-10.938-20.084-10.172-27.987c0.769-7.902,3.535-17.452-1.641-21.022
			c-5.176-3.57-31.924-6.166-31.924-6.166L363.598,133.238z"/>
	</g>
	<g id="path3141">
		<path d="M321.324,122.661c0,0-15.88,7.94-23.208,10.383c-7.33,2.443-47.64-0.611-47.64-0.611l20.766,6.718l-5.497,12.215
			c0,0,30.449,0.297,41.532-1.222c16.348-2.241,21.376-15.269,43.975-15.879c13.555-0.367,20.766,1.221,20.766,1.221
			S353.694,120.828,321.324,122.661z"/>
	</g>
	<g id="path3143">
		
			<linearGradient id="SVGID_5_" gradientUnits="userSpaceOnUse" x1="5.2017" y1="1.5527" x2="5.1176" y2="1.5527" gradientTransform="matrix(59.7018 0 0 105.3786 -21.5072 -88.9883)">
			<stop  offset="0" style="stop-color:#7F7F7F"/>
			<stop  offset="1" style="stop-color:#000000"/>
		</linearGradient>
		<path fill="url(#SVGID_5_)" d="M305.36,51.378c0,0-9.521-5.44-13.147-5.44s-16.774,4.987-18.134,11.787
			c-1.36,6.8-3.174,20.854,3.174,29.014c6.347,8.161,15.867,16.775,15.867,16.775s-14.368-27.357-8.16-39.896
			C291.767,49.872,305.812,51.378,305.36,51.378z"/>
	</g>
	<path id="path3145" fill="#1F1D6C" d="M311.8,34.097c-16.261,1.142-33.439,12.598-39.155,22.413
		c-7.621,13.088,4.381,36.68,22.021,50.314c24.174,18.686,60.339,19.382,60.339,19.382c0-0.564,23.623,6.53,14.042-21.089
		c-13.757-39.654-23.052-59.02-41.586-68.319C322.717,34.416,317.221,33.717,311.8,34.097L311.8,34.097z M289.063,49.582
		c16.491-5.141,26.79,17.26,34.079,26.371c8.971,11.214,31.595,44.286,31.595,44.286l4.59,5.941c0,0-2.5,0.04-27.544-5.941
		c-25.042-5.98-43.053-22.947-43.8-24.442C273.061,78.087,268.67,56.224,289.063,49.582z"/>
	<path id="path3147" opacity="0.75" fill="#1F1D6C" enable-background="new    " d="M323.524,120.679c0,0-15.88,7.94-23.209,10.383
		s-47.639-0.61-47.639-0.61l20.765,6.718l-5.497,12.215c0,0,30.45,0.297,41.531-1.222c16.349-2.241,21.376-15.269,43.975-15.879
		c13.556-0.367,20.766,1.221,20.766,1.221S355.895,118.847,323.524,120.679z"/>
	<g id="path3149">
		<path d="M403.193,119.402c0,0-26.491-12.4-32.691-12.4s-16.346,11.837-13.527,19.164c2.818,7.328,24.801,12.4,31.564,12.4
			c6.021-1.544,11.499-3.455,17.473-6.2C406.012,128.42,403.193,119.402,403.193,119.402z"/>
	</g>
	<g id="path3151">
		<path fill="#1F1D6C" d="M333.968,81.56l24.035,37.855l12.018-9.013c0,0-12.018-27.04-18.627-39.057
			c-6.61-12.017-11.417-17.425-11.417-17.425s10.215,25.237,7.811,30.044C345.385,88.77,335.169,81.56,333.968,81.56z"/>
	</g>
	<path id="path3153" fill="#1F1D6C" d="M402.379,118.733c-2.67-2.255-27.079-13.133-33.279-13.133
		c-6.2,0-16.346,11.836-13.527,19.164c2.819,7.328,24.801,12.401,31.563,12.401c6.022-1.545,11.499-3.455,17.473-6.201
		C404.609,127.018,405.783,122.609,402.379,118.733z"/>
	
		<linearGradient id="path3155_1_" gradientUnits="userSpaceOnUse" x1="996.1729" y1="153.75" x2="996.207" y2="153.75" gradientTransform="matrix(3389.6296 0 0 722.2011 -3376266.25 -110901.0938)">
		<stop  offset="0" style="stop-color:#CCCCCC"/>
		<stop  offset="1" style="stop-color:#191919"/>
	</linearGradient>
	<path id="path3155" fill="url(#path3155_1_)" d="M392.234,136.927c0,0,19.414,7.117,31.375,8.986
		c11.962,1.869,36.279,5.966,42.261,3.723c5.979-2.243,38.5-8.971,42.985-16.073c4.484-7.102-23.924-8.223-23.924-8.223
		s-16.071,10.092-27.286,10.839c-11.213,0.748-44.105-7.102-44.105-7.102l-20.933,5.607L392.234,136.927z"/>
	<g id="path3157">
		
			<linearGradient id="SVGID_6_" gradientUnits="userSpaceOnUse" x1="3.6587" y1="2.2622" x2="3.2381" y2="2.2622" gradientTransform="matrix(79.5603 0 0 55.2164 108.9073 -3.5039)">
			<stop  offset="0" style="stop-color:#000000"/>
			<stop  offset="1" style="stop-color:#000000"/>
		</linearGradient>
		<path fill="url(#SVGID_6_)" d="M366.128,107.164c0,0,3.004-1.408,5.572-0.586c3.665,1.173,6.604,1.615,14.515,4.985
			c8.531,3.635,14.29,6.493,14.877,6.933c4.818,4.14,1.538,8.524,1.691,13.302c-2.932,1.466-12.023,4.399-13.342,4.692
			c-6.105-5.634,0.711-15.183,9.088-15.9c-1.107-1.854-10.418-6.344-12.621-7.371c-7.158-2.846-15.088-5.614-15.088-5.614
			s-7.326-0.907-10.558,5.278C360.996,109.804,366.421,106.871,366.128,107.164z"/>
	</g>
	<g id="g3159" opacity="0.75">
		<path id="path3161" fill="#1F1D6C" d="M395.6,134.31l18.315-4.485c0,0,29.902-25.417,33.266-26.913
			c17.229-14.202,38.73-19.446,56.441-13.083c0,0-1.869-22.801-7.85-25.791c-5.979-2.99-22.428-5.233-22.428-5.233
			S451.1,73.724,448.483,76.34c-2.617,2.616-40.669,40.021-40.669,40.021l-11.9,13.991l-2.381,4.883L395.6,134.31z"/>
		<path id="path3163" fill="#1F1D6C" d="M488.403,51.65c-29.154,1.869-86.341,69.615-89.705,73.353
			c-3.363,3.738-8.45,11.798-8.077,11.423c0,0,36.41,16.196,67.809,14.327c31.397-1.869,70.684-20.829,74.784-47.87
			C537.931,71.802,517.559,49.781,488.403,51.65z M468.544,64.546c9.85-1.797,30.931-1.952,27.151,29.5
			c-2.342,19.472-16.316,50.352-45.099,51.847c-28.78,1.496-56.909-10.953-56.536-11.326c0,0,45.758-48.477,47.627-49.972
			C443.557,83.099,457.274,67.292,468.544,64.546z"/>
	</g>
	<g id="path3165" opacity="0.558" enable-background="new    ">
		
			<linearGradient id="SVGID_7_" gradientUnits="userSpaceOnUse" x1="3.6743" y1="4.0244" x2="4.0595" y2="4.0244" gradientTransform="matrix(93.4144 0 0 46.0591 -73.5197 -136.7246)">
			<stop  offset="0" style="stop-color:#000000"/>
			<stop  offset="1" style="stop-color:#000000"/>
		</linearGradient>
		<path fill="url(#SVGID_7_)" d="M272.019,61.192c-1.276-7.006,12.676-17.331,24.463-21.864c11.787-4.534,26.495-3.079,26.495-3.079
			s-12.918,5.798-18.265,9.709c-10.772-1.095-20.65,3.522-20.65,3.522S277.848,51.877,272.019,61.192z"/>
	</g>
	<g id="path3167" opacity="0.558" enable-background="new    ">
		
			<linearGradient id="SVGID_8_" gradientUnits="userSpaceOnUse" x1="-20.4849" y1="3.0947" x2="-19.9385" y2="3.0947" gradientTransform="matrix(107.9659 0 0 45.0584 2673.7046 -74.3906)">
			<stop  offset="0" style="stop-color:#000000"/>
			<stop  offset="1" style="stop-color:#000000"/>
		</linearGradient>
		<path fill="url(#SVGID_8_)" d="M462.021,65.069c9.211-7.975,13.886-11.393,28.681-12.32c12.604-0.79,30.309,12.878,30.309,12.878
			s-13.529,9.089-19.614,11.708c-3.956-9.187-18.699-15.079-18.699-15.079S474.083,59.012,462.021,65.069z"/>
	</g>
	<g id="path3169">
		
			<linearGradient id="SVGID_9_" gradientUnits="userSpaceOnUse" x1="2.0137" y1="1.4492" x2="2.089" y2="1.4492" gradientTransform="matrix(74.5158 0 0 103.1942 355.7421 -57.7891)">
			<stop  offset="0" style="stop-color:#FFFFFF"/>
			<stop  offset="1" style="stop-color:#FFFFFF"/>
		</linearGradient>
		<path fill="url(#SVGID_9_)" d="M497.159,70.211c0,0,6.167,15.183,2.846,27.994c-3.321,12.81-9.015,20.402-9.015,20.402
			s17.555,3.321,26.096-0.475c8.54-3.796,13.284-10.913,13.284-10.913s3.795-21.351-1.424-31.315
			c-5.219-9.963-11.387-12.336-11.387-12.336S504.75,63.568,497.159,70.211z"/>
	</g>
</g>
</svg>
