<svg version="1.1" id="Layer_1" xmlns="http://www.w3.org/2000/svg" xmlns:xlink="http://www.w3.org/1999/xlink" x="0px" y="0px"
	viewBox="0 0 768 430" enable-background="new 0 0 768 430" xml:space="preserve">
<g>
	<g>
		<g>
			<ellipse fill="#DBA866" cx="388.703" cy="141.608" rx="60.994" ry="57.3"/>
			<path fill="#DBA866" d="M374.586,214.049c0,31.643-27.308,57.298-60.995,57.298c-33.686,0-60.995-25.655-60.995-57.298
				c0-31.65,27.309-57.301,60.995-57.301C347.279,156.748,374.586,182.399,374.586,214.049z"/>
			<path fill="#DBA866" d="M452.494,210.664c0,31.646-27.304,57.298-60.991,57.298c-33.688,0-60.997-25.652-60.997-57.298
				c0-31.646,27.309-57.301,60.997-57.301C425.19,153.362,452.494,179.017,452.494,210.664z"/>
			<ellipse fill="#DBA866" cx="427.625" cy="194.521" rx="60.993" ry="57.3"/>
			<ellipse fill="#DBA866" cx="442.521" cy="179.557" rx="60.995" ry="57.3"/>
			<ellipse fill="#DBA866" cx="465.3" cy="218.633" rx="60.995" ry="57.3"/>
			<ellipse fill="#DBA866" cx="336.423" cy="187.157" rx="60.995" ry="57.297"/>
		</g>
		<path fill="#F9E6E6" d="M443.476,115.429c-8.429-17.062-31.359-31.168-57.893-31.168c-29.604,0-53.928,17.095-59.522,37.273
			c-30.175,2.682-70.645,46.852-36.914,46.852c19.767,0-6.256,23.999,40.409,12.896c13.334-3.171,48.851,3.082,66.558,4.142
			c0.44,0.027,19.288,4.861,19.715,4.948c42.122,8.487,32.972-5.591,49.316-6.369c35.18-1.673,35.758-8.024,35.758-24.581
			C500.903,135.962,475.507,116.789,443.476,115.429z"/>
	</g>
	<g>
		<g>
			<ellipse fill="#A31612" cx="391.502" cy="91.301" rx="28.151" ry="26.445"/>
			<path fill="#D91E18" d="M413.993,91.301c0,14.604-12.603,26.445-28.147,26.445c-15.55,0-28.154-11.841-28.154-26.445
				c0-14.606,12.604-26.446,28.154-26.446C401.391,64.855,413.993,76.694,413.993,91.301z"/>
		</g>
		<g>
			<path fill="#019875" d="M390.209,64.988h-3.127c0-17.085,12.146-30.988,27.08-30.988v2.938
				C400.953,36.938,390.209,49.522,390.209,64.988z"/>
		</g>
	</g>
	<g>
		<g>
			<g>
				<path fill="#E08283" d="M398.068,220.594c-5.006,0-13.189,0-18.193,0h-124.13c-5.002,0-8.075,3.962-6.832,8.809l37.739,146.932
					c1.245,4.848,6.355,8.81,11.359,8.81h81.864c5.004,0,13.188,0,18.193,0h81.862c5.007,0,10.115-3.962,11.36-8.81l37.741-146.932
					c1.243-4.847-1.831-8.809-6.835-8.809H398.068z"/>
				<g>
					<path fill="#A86262" d="M324.122,363.602c0.835,3.229-0.876,6.413-3.802,7.083c-2.927,0.668-6.001-1.431-6.837-4.659
						l-31.936-123.601c-0.835-3.229,0.875-6.414,3.803-7.081c2.927-0.668,6.001,1.426,6.835,4.657L324.122,363.602z"/>
					<path fill="#A86262" d="M361.482,363.256c0.559,3.288-1.417,6.342-4.39,6.79c-2.971,0.444-5.863-1.882-6.421-5.166
						l-20.914-122.931c-0.558-3.288,1.413-6.343,4.387-6.79c2.975-0.445,5.864,1.881,6.424,5.167L361.482,363.256z"/>
					<path fill="#A86262" d="M457.211,362.546c-0.836,3.226,0.873,6.416,3.802,7.084c2.927,0.667,6.002-1.431,6.838-4.661
						l31.936-123.598c0.831-3.231-0.877-6.416-3.804-7.083c-2.927-0.668-6.002,1.428-6.836,4.657L457.211,362.546z"/>
					<path fill="#A86262" d="M418.285,363.256c-0.557,3.288,1.419,6.342,4.39,6.79c2.974,0.444,5.862-1.882,6.421-5.166
						l20.917-122.931c0.557-3.288-1.417-6.343-4.387-6.79c-2.976-0.445-5.864,1.881-6.424,5.167L418.285,363.256z"/>
					<path fill="#A86262" d="M394.443,364.796c0,3.332-2.459,6.063-5.474,6.063c-3.009,0-5.472-2.731-5.472-6.063V240.195
						c0-3.339,2.463-6.063,5.472-6.063c3.015,0,5.474,2.725,5.474,6.063V364.796z"/>
				</g>
			</g>
			<g>
				<path fill="#ECB4B5" d="M359.422,263.174c0,2.794-2.409,5.054-5.381,5.054c-2.969,0-5.376-2.26-5.376-5.054
					c0-2.792,2.407-5.054,5.376-5.054C357.013,258.12,359.422,260.382,359.422,263.174z"/>
				<path fill="#ECB4B5" d="M378.625,234.349c0,2.795-2.409,5.054-5.379,5.054s-5.378-2.259-5.378-5.054
					c0-2.791,2.407-5.051,5.378-5.051S378.625,231.558,378.625,234.349z"/>
				<ellipse fill="#ECB4B5" cx="417.27" cy="249.508" rx="5.378" ry="5.054"/>
				<path fill="#ECB4B5" d="M408.781,273.483c0,2.789-2.408,5.051-5.375,5.051c-2.974,0-5.38-2.262-5.38-5.051
					c0-2.791,2.406-5.057,5.38-5.057C406.373,268.427,408.781,270.692,408.781,273.483z"/>
				<path fill="#ECB4B5" d="M419.541,303.012c0,2.794-2.411,5.054-5.379,5.054c-2.973,0-5.381-2.26-5.381-5.054
					c0-2.789,2.408-5.054,5.381-5.054C417.13,297.958,419.541,300.223,419.541,303.012z"/>
				<path fill="#ECB4B5" d="M411.892,332.575c0,2.795-2.41,5.054-5.381,5.054c-2.968,0-5.375-2.259-5.375-5.054
					c0-2.789,2.407-5.051,5.375-5.051C409.481,327.524,411.892,329.786,411.892,332.575z"/>
				<ellipse fill="#ECB4B5" cx="373.246" cy="285.729" rx="5.379" ry="5.052"/>
				<ellipse fill="#ECB4B5" cx="308.214" cy="239.402" rx="5.378" ry="5.052"/>
				<ellipse fill="#ECB4B5" cx="325.64" cy="278.534" rx="5.379" ry="5.055"/>
				<path fill="#ECB4B5" d="M328.74,307.01c0,2.794-2.408,5.055-5.379,5.055c-2.97,0-5.378-2.261-5.378-5.055
					c0-2.788,2.408-5.052,5.378-5.052C326.332,301.958,328.74,304.222,328.74,307.01z"/>
				<ellipse fill="#ECB4B5" cx="367.868" cy="321.48" rx="5.378" ry="5.052"/>
				<path fill="#ECB4B5" d="M341.803,337.629c0,2.794-2.41,5.055-5.38,5.055s-5.378-2.261-5.378-5.055
					c0-2.788,2.407-5.054,5.378-5.054S341.803,334.841,341.803,337.629z"/>
				<ellipse fill="#ECB4B5" cx="373.246" cy="353.282" rx="5.379" ry="5.051"/>
				<ellipse fill="#ECB4B5" cx="408.784" cy="371.896" rx="5.378" ry="5.052"/>
				<ellipse fill="#ECB4B5" cx="445.651" cy="355.762" rx="5.379" ry="5.051"/>
				<ellipse fill="#ECB4B5" cx="445.651" cy="321.48" rx="5.379" ry="5.052"/>
				<ellipse fill="#ECB4B5" cx="467.742" cy="290.78" rx="5.377" ry="5.051"/>
				<path fill="#ECB4B5" d="M466.452,261.239c0,2.791-2.408,5.054-5.382,5.054c-2.97,0-5.375-2.263-5.375-5.054
					c0-2.789,2.405-5.052,5.375-5.052C464.044,256.188,466.452,258.45,466.452,261.239z"/>
				<path fill="#ECB4B5" d="M483.876,234.132c0,2.786-2.408,5.052-5.379,5.052c-2.97,0-5.378-2.266-5.378-5.052
					c0-2.791,2.408-5.051,5.378-5.051C481.468,229.081,483.876,231.341,483.876,234.132z"/>
				<ellipse fill="#ECB4B5" cx="506.681" cy="271.347" rx="5.378" ry="5.052"/>
				<path fill="#ECB4B5" d="M501.303,312.064c0,2.791-2.409,5.05-5.38,5.05c-2.969,0-5.378-2.259-5.378-5.05
					c0-2.793,2.409-5.055,5.378-5.055C498.894,307.01,501.303,309.271,501.303,312.064z"/>
				<ellipse fill="#ECB4B5" cx="478.498" cy="366.845" rx="5.378" ry="5.052"/>
				<ellipse fill="#ECB4B5" cx="336.397" cy="371.896" rx="5.379" ry="5.052"/>
				<path fill="#ECB4B5" d="M299.634,348.228c0,2.794-2.407,5.055-5.379,5.055c-2.971,0-5.377-2.261-5.377-5.055
					c0-2.788,2.406-5.053,5.377-5.053C297.228,343.175,299.634,345.439,299.634,348.228z"/>
				<path fill="#ECB4B5" d="M294.255,301.958c0,2.79-2.409,5.052-5.377,5.052c-2.973,0-5.381-2.262-5.381-5.052
					c0-2.791,2.408-5.053,5.381-5.053C291.846,296.905,294.255,299.167,294.255,301.958z"/>
				<ellipse fill="#ECB4B5" cx="271.152" cy="261.239" rx="5.379" ry="5.054"/>
			</g>
		</g>
		<path fill="#A86262" d="M534.291,217.097c0,2.729-2.727,4.965-6.066,4.965H249.063c-3.337,0-6.063-2.235-6.063-4.965
			c0-2.73,2.726-4.965,6.063-4.965h279.161C531.564,212.132,534.291,214.366,534.291,217.097z"/>
	</g>
</g>
</svg>
