<svg version="1.1" id="Layer_1" xmlns="http://www.w3.org/2000/svg" xmlns:xlink="http://www.w3.org/1999/xlink" x="0px" y="0px"
 viewBox="0 0 768 430" enable-background="new 0 0 768 430" xml:space="preserve">
<path fill="#FFDE23" d="M584.886,182.757c13.083-1.222,26.702,0.106,40.114,4.368l-31.397,98.921l-37.691-11.97L584.886,182.757z"/>
<path fill="#DEA221" d="M531.987,349.472l23.924-75.395l37.691,11.97l-26.344,82.985
	C553.868,364.781,541.971,358.017,531.987,349.472z"/>
<path fill="#FFDE23" d="M164.631,149.923L196.019,51c13.405,4.25,25.296,11.013,35.293,19.565l-28.992,91.323L164.631,149.923z"/>
<path fill="#DEA221" d="M178.41,237.275c-13.092,1.228-26.709-0.104-40.117-4.354l26.337-82.999l37.689,11.965L178.41,237.275z"/>
<path fill="#E41B40" d="M390.763,221.676l91.09-69.399c5.92,6.258,11.188,12.85,15.59,19.744l-77.395,58.951L390.763,221.676z"/>
<path fill="#9C0025" d="M420.048,230.972l-92.153,70.186c-8.403-3.999-16.22-8.629-23.486-13.71l86.354-65.771L420.048,230.972z"/>
<path fill="#E41B40" d="M325.11,200.839l108.602-82.731c8.491,3.918,16.402,8.484,23.769,13.503l-103.081,78.524L325.11,200.839z"/>
<path fill="#9C0025" d="M354.399,210.135l-74.092,56.422c-5.834-6.324-10.981-12.996-15.278-19.957l60.081-45.76L354.399,210.135z"
	/>
<path fill="#E41B40" d="M456.408,242.507l54.136-41.245c2.059,7.401,3.325,14.893,3.504,22.396
	c16.09-23.342,42.22-38.221,70.838-40.901l-28.975,91.32L456.408,242.507z"/>
<path fill="#9C0025" d="M555.911,274.077l-23.924,75.395c-21.852-18.676-34.609-45.908-34.301-74.263
	c-26.067,35.17-79.425,51.044-134.427,38.251l93.148-70.953L555.911,274.077z"/>
<path fill="#E41B40" d="M202.32,161.888l28.992-91.323c21.825,18.68,34.594,45.905,34.282,74.256
	c25.747-34.718,78.09-50.601,132.331-38.695l-109.189,83.175L202.32,161.888z"/>
<path fill="#9C0025" d="M288.735,189.301l-36.464,27.781c-1.776-6.85-2.862-13.774-3.037-20.709
	c-16.09,23.342-42.22,38.237-70.823,40.902l23.91-75.387L288.735,189.301z"/>
<path fill="#1CAF6C" d="M420.048,230.972l77.395-58.951c5.93,9.346,10.309,19.203,13.102,29.241l-54.136,41.245L420.048,230.972z"/>
<path fill="#178457" d="M456.408,242.507L363.26,313.46c-4.438-1.03-8.866-2.186-13.3-3.598c-7.7-2.437-15.056-5.382-22.065-8.705
	l92.153-70.186L456.408,242.507z"/>
<path fill="#FFDE23" d="M354.399,210.135l103.081-78.524c9.077,6.2,17.248,13.149,24.372,20.666l-91.09,69.399L354.399,210.135z"/>
<path fill="#DEA221" d="M390.763,221.676l-86.354,65.771c-9.01-6.291-17.077-13.306-24.101-20.891l74.092-56.422L390.763,221.676z"
	/>
<path fill="#1CAF6C" d="M288.735,189.301l109.189-83.175c5.115,1.128,10.264,2.415,15.396,4.044
	c7.098,2.25,13.891,4.92,20.392,7.938L325.11,200.839L288.735,189.301z"/>
<path fill="#178457" d="M325.11,200.839L265.03,246.6c-5.833-9.459-10.132-19.381-12.759-29.518l36.464-27.781L325.11,200.839z"/>
</svg>
