<svg version="1.1" xmlns="http://www.w3.org/2000/svg" xmlns:xlink="http://www.w3.org/1999/xlink" viewBox="0 0 768 430" style="enable-background:new 0 0 768 430;" xml:space="preserve"><g id="candy"> <g>  <path style="fill:none;" d="M400.499,120.867c-2.05,0.383-4.111,0.816-6.185,1.309l-41.082,17.77 c23.623,35.465,48.118,76.715,32.519,133.119l41.808-10.048C444.215,212.264,430.679,158.059,400.499,120.867z"/>  <path style="fill:#DDE4D0;" d="M353.232,139.945l41.082-17.77c-0.875,0.208-1.751,0.424-2.629,0.651 c-52.372,13.583-90.96,57.562-86.124,98.165c3.689,30.997,43.887,50.323,80.189,52.072 C401.351,216.66,376.855,175.411,353.232,139.945z"/>  <path style="fill:#DDE4D0;" d="M399.687,119.852l-5.372,2.324c2.073-0.493,4.135-0.926,6.185-1.309 C400.227,120.531,399.962,120.186,399.687,119.852z"/>  <path style="fill:#DDE4D0;" d="M495.264,171.29c-4.868-38.055-46.307-59.465-94.765-50.423 c30.18,37.192,43.716,91.397,27.06,142.149l-41.808,10.048c8.508-0.315,14.397-0.767,23.444-3.113 c52.377-13.587,90.962-57.566,86.13-98.171L495.264,171.29z"/>  <path style="fill:#DDE4D0;" d="M550.663,175.108c1.281-9.887,21.814-17.339,19.848-26.979 c-2.237-11.01-19.653-12.204-23.841-20.743c-3.687-7.511,5.494-17.27,4.407-29.77c-27.819,13.633-48.586,40.524-56.16,67.444 c14.071,24.443,53.748,41.706,72.046,34.693C562.502,194.895,549.447,184.53,550.663,175.108z"/>  <path style="fill:#DDE4D0;" d="M241.003,194.693c4.435,4.896,11.302,13.697,10.03,23.113c-1.336,9.885-15.768,18.859-13.86,28.52 c2.18,11.029,21.333,8.12,25.473,16.69c3.64,7.543-7.345,21.47-6.321,33.983c27.875-13.443,42.943-42.163,50.657-69.049 C293.055,203.396,259.327,187.806,241.003,194.693z"/> </g></g><g id="Layer_1"></g></svg>