<svg version="1.1" xmlns="http://www.w3.org/2000/svg" xmlns:xlink="http://www.w3.org/1999/xlink" viewBox="0 0 768 430" style="enable-background:new 0 0 768 430;" xml:space="preserve"><g id="car"> <g>  <path style="fill:none;" d="M383.655,111.815c-6.635,0-13.17,0.444-19.564,1.297v66.782h140.988 C482.091,139.324,436.084,111.815,383.655,111.815z"/>  <path style="fill:none;" d="M280.667,245.509c-7.847,0-14.214,5.891-14.214,13.154s6.368,13.15,14.214,13.15 c7.85,0,14.215-5.887,14.215-13.15S288.517,245.509,280.667,245.509z"/>  <path style="fill:none;" d="M522.385,245.509c-7.844,0-14.212,5.891-14.212,13.154s6.368,13.15,14.212,13.15 c7.848,0,14.218-5.887,14.218-13.15S530.232,245.509,522.385,245.509z"/>  <path style="fill:#DDE4D0;" d="M280.667,227.939c-18.331,0-33.191,13.752-33.191,30.724c0,16.965,14.86,30.719,33.191,30.719 c18.334,0,33.191-13.754,33.191-30.719C313.858,241.691,299.001,227.939,280.667,227.939z M280.667,271.813 c-7.847,0-14.214-5.887-14.214-13.15s6.368-13.154,14.214-13.154c7.85,0,14.215,5.891,14.215,13.154 S288.517,271.813,280.667,271.813z"/>  <path style="fill:#DDE4D0;" d="M522.385,227.939c-18.332,0-33.195,13.752-33.195,30.724c0,16.965,14.863,30.719,33.195,30.719 s33.195-13.754,33.195-30.719C555.58,241.691,540.717,227.939,522.385,227.939z M522.385,271.813 c-7.844,0-14.212-5.887-14.212-13.15s6.368-13.154,14.212-13.154c7.848,0,14.218,5.891,14.218,13.154 S530.232,271.813,522.385,271.813z"/>  <path style="fill:#DDE4D0;" d="M601.357,213.576c0-8.047-5.531-14.784-12.994-16.667c-5.668-10.108-17.072-17.016-30.23-17.016 h-38.779C495.463,132.697,443.694,100,383.655,100c-60.043,0-111.811,32.697-135.699,79.894h-6.44c-0.602,0-1.19,0.054-1.79,0.083 l-15.893-42.038l-4.864,1.503l15.547,41.124c-10.937,2.117-19.941,9.089-24.268,18.369c-8.091,1.405-14.25,8.442-14.25,16.935 c0,7.66,5.007,14.143,11.925,16.373c2.408,13.705,14.36,24.439,29.346,26.162c0.141-22.069,19.516-39.918,43.396-39.918 c23.975,0,43.406,17.985,43.406,40.176h154.903c0-22.19,19.438-40.176,43.408-40.176c23.684,0,42.923,17.555,43.392,39.368 c14.556-3.089,25.551-14.812,26.352-29.041C597.611,225.938,601.357,220.197,601.357,213.576z M364.091,179.894v-66.782 c6.394-0.853,12.929-1.297,19.564-1.297c52.429,0,98.436,27.509,121.424,68.079H364.091z"/> </g></g><g id="Layer_1"></g></svg>