<svg version="1.1" id="Layer_1" xmlns="http://www.w3.org/2000/svg" xmlns:xlink="http://www.w3.org/1999/xlink" x="0px" y="0px"
	 viewBox="0 0 768 430" enable-background="new 0 0 768 430" xml:space="preserve">
<g>
	<g>
		<path fill="#7E8187" d="M589.603,364.563c0,5.201-4.205,9.437-9.42,9.437h-40.877c-5.217,0-9.452-4.235-9.452-9.437V263.938
			c0-5.201,4.235-9.436,9.452-9.436h40.877c5.215,0,9.42,4.234,9.42,9.436V364.563z"/>
		<path fill="#7E8187" d="M233.877,364.563c0,5.201-4.221,9.437-9.422,9.437h-40.891c-5.217,0-9.437-4.235-9.437-9.437V263.938
			c0-5.201,4.22-9.436,9.437-9.436h40.891c5.201,0,9.422,4.234,9.422,9.436V364.563z"/>
	</g>
	<path fill="#EF2929" d="M578.984,190.548c-8.623-5.462-19.149-18.183-23.385-28.264l-39.402-93.567
		c-4.266-10.073-16.664-18.312-27.59-18.312H275.136c-10.924,0-23.337,8.239-27.587,18.312l-39.403,93.567
		c-4.235,10.081-14.762,22.801-23.369,28.264c-8.624,5.462-14.454,18.781-12.966,29.614l14.47,105.443
		c1.487,10.817,11.646,19.671,22.571,19.671h346.042c10.926,0,21.084-8.854,22.588-19.671l14.453-105.443
		C593.406,209.329,587.577,196.01,578.984,190.548z"/>
	<path fill="#A2A6AD" d="M184.562,313.084l1.719,12.521c1.487,10.817,11.646,19.671,22.571,19.671h346.042
		c10.926,0,21.084-8.854,22.588-19.671l1.719-12.521H184.562z"/>
	<path fill="#A6D5F3" d="M537.279,170.018l-39.402-93.583c-1.136-2.708-6.322-6.16-9.27-6.16H275.136
		c-2.931,0-8.132,3.452-9.267,6.152l-39.419,93.591H537.279L537.279,170.018z"/>
	<g>
		<g>
			<path fill="#E8DD54" d="M546.701,254.502c0,18.688-15.128,33.817-33.787,33.817c-18.688,0-33.819-15.129-33.819-33.817
				c0-18.659,15.131-33.787,33.819-33.787C531.573,220.715,546.701,235.843,546.701,254.502z"/>
			<path fill="#EBEBEB" d="M512.914,293.03c-21.237,0-38.513-17.277-38.513-38.528c0-21.236,17.275-38.514,38.513-38.514
				c21.235,0,38.514,17.277,38.514,38.514C551.428,275.753,534.149,293.03,512.914,293.03z M512.914,225.409
				c-16.05,0-29.093,13.059-29.093,29.093c0,16.05,13.043,29.092,29.093,29.092s29.092-13.042,29.092-29.092
				C542.006,238.468,528.964,225.409,512.914,225.409z"/>
		</g>
		<g>
			<path fill="#E8DD54" d="M284.635,254.502c0,18.688-15.128,33.817-33.803,33.817c-18.673,0-33.801-15.129-33.801-33.817
				c0-18.659,15.128-33.787,33.801-33.787C269.506,220.715,284.635,235.843,284.635,254.502z"/>
			<path fill="#EBEBEB" d="M250.832,293.03c-21.235,0-38.513-17.277-38.513-38.528c0-21.236,17.278-38.514,38.513-38.514
				c21.237,0,38.529,17.277,38.529,38.514C289.361,275.753,272.068,293.03,250.832,293.03z M250.832,225.409
				c-16.034,0-29.091,13.059-29.091,29.093c0,16.05,13.057,29.092,29.091,29.092c16.05,0,29.093-13.042,29.093-29.092
				C279.925,238.468,266.882,225.409,250.832,225.409z"/>
		</g>
	</g>
	<g>
		<path fill="#5F6166" d="M445.095,272.347c-1.872,8.225-10.312,14.96-18.751,14.96h-88.941c-8.439,0-16.879-6.735-18.751-14.96
			l-8.545-37.669c-1.872-8.24,3.499-14.976,11.952-14.976h119.629c8.439,0,13.84,6.735,11.968,14.976L445.095,272.347z"/>
		<path fill="#EBEBEB" d="M426.344,292.032h-88.941c-10.71,0-20.976-8.193-23.353-18.643l-8.548-37.67
			c-1.212-5.339-0.107-10.647,3.023-14.561c3.13-3.913,8.056-6.168,13.534-6.168h119.629c5.462,0,10.403,2.255,13.533,6.168
			s4.235,9.222,3.038,14.561l-8.562,37.67C447.303,283.839,437.054,292.032,426.344,292.032z M322.059,224.427
			c-2.625,0-4.818,0.921-6.169,2.609c-1.349,1.688-1.764,4.035-1.196,6.598l8.562,37.67c1.381,6.122,7.87,11.293,14.146,11.293
			h88.941c6.291,0,12.765-5.171,14.146-11.293l8.562-37.67c0.584-2.562,0.153-4.91-1.195-6.598c-1.351-1.688-3.53-2.609-6.169-2.609
			H322.059z"/>
	</g>
	<path fill="#EBEBEB" d="M447.333,330.761c0,5.217-4.235,9.421-9.42,9.421H325.849c-5.217,0-9.422-4.204-9.422-9.421v-20.361
		c0-5.201,4.205-9.437,9.422-9.437h112.064c5.185,0,9.42,4.235,9.42,9.437V330.761z"/>
	<g>
		<path fill="#EF2929" d="M600.681,151.728c0.584,5.141-2.977,10.619-7.918,12.168l-31.67,9.897
			c-4.939,1.534-9.482-1.412-10.064-6.568l-1.442-12.704c-0.584-5.156,3.13-9.852,8.286-10.435l32.036-3.652
			c5.157-0.583,9.851,3.161,10.435,8.302L600.681,151.728z"/>
		<path fill="#EF2929" d="M163.065,151.728c-0.598,5.141,2.977,10.619,7.933,12.168l31.655,9.897
			c4.956,1.534,9.482-1.412,10.08-6.568l1.443-12.704c0.582-5.156-3.146-9.852-8.303-10.435l-32.037-3.652
			c-5.156-0.583-9.852,3.161-10.433,8.302L163.065,151.728z"/>
	</g>
	<g>
		<rect x="311.333" y="237.409" fill="#EBEBEB" width="141.371" height="9.421"/>
		<rect x="315.859" y="260.194" fill="#EBEBEB" width="134.573" height="9.437"/>
	</g>
</g>
</svg>
