<svg version="1.1" xmlns="http://www.w3.org/2000/svg" xmlns:xlink="http://www.w3.org/1999/xlink" viewBox="0 0 768 430" style="enable-background:new 0 0 768 430;" xml:space="preserve"><g id="cat"> <g>  <circle style="fill:none;" cx="360.118" cy="108.996" r="4.582"/>  <circle style="fill:none;" cx="337.207" cy="106.705" r="4.582"/>  <path style="fill:#DDE4D0;" d="M512.505,269.576c-23.455-12.043-26.342-15.604-36.398-45.006 c-18.097-52.845-31.886-67.542-77.812-82.948c-15.644-5.244-22.788-10.306-21.569-15.286c10.082-41.29,6.383-51.788-14.349-40.689 c-6.967,3.723-12.581,2.416-22.242-5.187c-14.566-11.457-16.356-10.048-21.406,16.863c-2.325,12.363-1.42,21.736,2.535,26.503 c3.804,4.58,4.788,13.453,2.611,23.371c-2.866,13.04-0.593,20.053,12.288,37.999c19.258,26.804,21.611,57.85,5.614,73.848 c-12.727,12.727-13.024,20.385-0.79,20.385c12.389,0,26.274-15.777,26.274-29.863c0-15.129,14.848-20.277,23.667-8.215 c9.116,12.457,8.78,22.795-0.733,22.795c-4.206,0-7.639,3.441-7.639,7.645c0,6.15,7.89,7.639,40.469,7.639 c22.263,0,41.795-2.139,43.41-4.748c1.739-2.803,12.181-1.607,25.472,2.924c24.809,8.451,37.26,19.201,28.502,24.619 c-2.939,1.814-5.35,5.455-5.35,8.096c0,7.383,13.315,5.67,20.187-2.609C545.878,294.898,538.837,283.09,512.505,269.576z  M337.207,111.287c-2.531,0-4.583-2.051-4.583-4.582s2.052-4.583,4.583-4.583c2.53,0,4.582,2.052,4.582,4.583 S339.737,111.287,337.207,111.287z M360.118,113.579c-2.531,0-4.583-2.052-4.583-4.583c0-2.53,2.052-4.582,4.583-4.582 s4.583,2.052,4.583,4.582C364.7,111.527,362.648,113.579,360.118,113.579z"/> </g></g><g id="Layer_1"></g></svg>