<svg version="1.1" id="Layer_1" xmlns="http://www.w3.org/2000/svg" xmlns:xlink="http://www.w3.org/1999/xlink" x="0px" y="0px"
	viewBox="0 0 300 100" enable-background="new 0 0 300 100" xml:space="preserve">
<path fill="#D9D8ED" d="M63.488,11h-5.116c-0.675,5.372-5.232,9.512-10.791,9.512c-0.093,0-0.187,0-0.278,0
	c-0.094,0-0.187,0-0.279,0c-5.535,0-10.117-4.14-10.791-9.512h-5.116c0,10.814,2.977,22.535-8.209,28.372v48.07h24.373H71.65V39.349
	C60.488,33.534,63.488,21.813,63.488,11z"/>
<path fill="#B1B0C2" d="M58.465,11h-0.093c-0.675,5.372-5.232,9.512-10.791,9.512c-0.093,0-0.187,0-0.278,0
	c-0.094,0-0.187,0-0.279,0c-5.535,0-10.117-4.14-10.791-9.512H36.14c-0.047,6.582,0.046,19.209,10.884,19.209
	c0.093,0,0.186,0,0.279,0c0.092,0,0.186,0,0.278,0C58.418,30.186,58.512,17.581,58.465,11z"/>
<path fill="#6D6D6D" d="M56.209,29.441C60.581,24.93,60.884,16.744,60.744,11h-1.209l0,0c0.139,5.558-0.141,13.418-4.209,17.604
	c-1.885,1.954-4.489,2.954-7.698,2.954c-0.047,0-0.349-0.023-0.349-0.023l-0.303,0.023c-3.232,0-5.814-1-7.698-2.954
	C35.232,24.418,34.93,16.558,35.07,11l0,0H33.86c-0.14,5.768,0.186,13.93,4.535,18.442c2.14,2.209,5,3.326,8.582,3.326
	c0.07,0,0.303-0.023,0.303-0.023s0.279,0.023,0.349,0.023C51.209,32.744,54.093,31.627,56.209,29.441z"/>
<rect x="22.93" y="84.023" fill="#6D6D6D" width="48.767" height="1.256"/>
<path fill="#545454" d="M92.411,29.439v-2.357c0-1.675-0.681-3.208-1.789-4.316c-1.107-1.107-2.641-1.789-4.316-1.789
	s-3.208,0.682-4.316,1.789c-1.108,1.107-1.789,2.641-1.789,4.316v20.332h1.817V27.082c0-1.192,0.483-2.243,1.25-3.038
	c0.767-0.767,1.846-1.249,3.038-1.249s2.244,0.482,3.038,1.249c0.767,0.767,1.25,1.846,1.25,3.038v2.357H92.411z"/>
<path fill="#EFEFEF" d="M91.503,27.054v2.357h-0.909v-2.357c0-1.193-0.483-2.244-1.25-3.038c-0.767-0.767-1.846-1.25-3.038-1.25
	s-2.244,0.483-3.038,1.25c-0.767,0.766-1.25,1.845-1.25,3.038v20.331H81.11V27.054c0-1.42,0.596-2.727,1.533-3.692
	c0.938-0.937,2.244-1.533,3.692-1.533s2.726,0.596,3.691,1.533C90.907,24.327,91.503,25.633,91.503,27.054z"/>
<rect x="80.172" y="44.006" width="1.818" height="3.408"/>
<path fill="#C0C3C5" d="M92.582,29.296h-2.158c-0.113,0-0.199,0.085-0.199,0.199v0.795c0,0.114,0.085,0.199,0.199,0.199h2.158
	c0.113,0,0.198-0.085,0.198-0.199v-0.795C92.78,29.382,92.667,29.296,92.582,29.296z"/>
<path d="M90.395,29.296v0.795c0,0.113,0.085,0.199,0.199,0.199h2.158l0,0c0,0.114-0.085,0.199-0.199,0.199h-2.158
	c-0.113,0-0.199-0.085-0.199-0.199v-0.795C90.196,29.382,90.282,29.296,90.395,29.296L90.395,29.296z"/>
<path fill="#EFEFEF" d="M99.141,84.301c-7.127,0-12.522-6.05-13.857-13.147L82.586,56.67c-0.369-1.931-1.477-5.906-4.259-5.906
	l-0.028-1.959l104.185,0.113l-0.369,1.846c-2.783,0-3.89,3.975-4.26,5.906l-2.697,14.483c-1.335,7.098-6.729,13.147-13.857,13.147
	H99.141z"/>
<path fill="#E2E3E2" d="M76.992,45.255h106.456c1.108,0,2.017,0.909,2.017,2.017v1.533c0,1.107-0.908,2.016-2.017,2.016H76.992
	c-1.107,0-2.016-0.909-2.016-2.016v-1.533C74.977,46.136,75.885,45.255,76.992,45.255z"/>
<path fill="#EFEFEF" d="M169.193,69.676c-1.25,6.616-6.303,12.268-13.005,12.268H97.864c-5.878,0-10.507-4.373-12.381-9.939
	c1.59,6.73,6.815,12.268,13.658,12.268H161.3c7.128,0,12.522-6.049,13.857-13.147l2.697-14.482c0.198-0.993,0.568-2.527,1.278-3.804
	c0.682-1.165,1.617-2.103,2.981-2.103h-7.185c-0.937,0.312-1.618,1.136-2.129,2.103c-0.569,1.106-0.909,2.413-1.08,3.265
	L169.193,69.676z"/>
<path fill="#7C7C7C" d="M81.28,52.894h97.853c0.682-1.165,1.617-2.101,2.981-2.101H78.299C79.662,50.792,80.627,51.729,81.28,52.894
	z"/>
<path d="M98.034,82.369c-0.738-1.505-3.322-2.471-5.31-1.875l-2.186,9.059h1.136L98.034,82.369z"/>
<path d="M95.847,82.823l-4.146,6.729l0,0l5.651-6.417l0.682-0.767c-0.228-0.455-0.625-0.852-1.136-1.192L95.847,82.823z"/>
<path d="M90.963,89.553l2.811-7.468l0.596-1.647l0.028-0.112c-0.142,0-0.312-0.029-0.454-0.029c-0.227,0-0.455,0.029-0.682,0.057
	l-0.341,1.306l-2.101,7.895H90.963L90.963,89.553z"/>
<path d="M89.629,88.474h3.748c0.256,0,0.483,0.227,0.483,0.483v0.482c0,0.256-0.227,0.482-0.483,0.482h-3.748
	c-0.256,0-0.483-0.227-0.483-0.482v-0.482C89.174,88.7,89.373,88.474,89.629,88.474z"/>
<path d="M89.344,89.127c0-0.255,0.228-0.482,0.54-0.482h0.738h0.312h0.284h1.079h0.255h0.909c0.085,0,0.199,0.027,0.256,0.056
	c-0.085-0.141-0.256-0.227-0.455-0.227h-0.596h-0.312h-1.136h-0.312h-0.341H89.6c-0.284,0-0.54,0.227-0.54,0.483v0.482
	c0,0.17,0.113,0.312,0.256,0.397c-0.057-0.085-0.085-0.142-0.085-0.257v-0.453H89.344z"/>
<path d="M93.632,89.297c0,0.256-0.227,0.483-0.54,0.483h-3.634c-0.029,0-0.085,0-0.114,0c0,0.028,0.029,0.057,0.057,0.085
	c0.085,0.057,0.171,0.057,0.256,0.057h3.635c0.284,0,0.539-0.227,0.539-0.482v-0.482c0-0.085-0.028-0.171-0.085-0.257
	c-0.057-0.028-0.114-0.056-0.17-0.056c0.028,0.056,0.028,0.113,0.028,0.17v0.482H93.632z"/>
<path d="M162.208,82.369c0.739-1.505,3.322-2.471,5.312-1.875l2.186,9.059h-1.137L162.208,82.369z"/>
<path d="M164.396,82.823l4.145,6.729l0,0l-5.649-6.417l-0.683-0.767c0.227-0.455,0.625-0.852,1.137-1.192L164.396,82.823z"/>
<path d="M169.279,89.553l-2.812-7.468l-0.597-1.647l-0.028-0.112c0.143,0,0.312-0.029,0.455-0.029c0.227,0,0.453,0.029,0.681,0.057
	l0.34,1.306l2.103,7.895H169.279L169.279,89.553z"/>
<path d="M170.586,88.474h-3.749c-0.255,0-0.482,0.227-0.482,0.483v0.482c0,0.256,0.228,0.482,0.482,0.482h3.749
	c0.255,0,0.481-0.227,0.481-0.482v-0.482C171.067,88.7,170.87,88.474,170.586,88.474z"/>
<path d="M170.898,89.127c0-0.255-0.228-0.482-0.54-0.482h-0.738h-0.312h-0.283h-1.081h-0.255h-0.908
	c-0.085,0-0.198,0.027-0.284,0.056c0.086-0.141,0.255-0.227,0.454-0.227h0.597h0.312h1.136h0.312h0.341h0.965
	c0.285,0,0.54,0.227,0.54,0.483v0.482c0,0.17-0.114,0.312-0.255,0.397c0.056-0.085,0.083-0.142,0.083-0.257v-0.453H170.898z"/>
<path d="M166.582,89.297c0,0.256,0.227,0.483,0.539,0.483h3.634c0.029,0,0.086,0,0.115,0c0,0.028-0.029,0.057-0.058,0.085
	c-0.086,0.057-0.171,0.057-0.255,0.057h-3.635c-0.285,0-0.54-0.227-0.54-0.482v-0.482c0-0.085,0.027-0.171,0.085-0.257
	c0.057-0.028,0.114-0.056,0.17-0.056c-0.027,0.056-0.027,0.113-0.027,0.17v0.482H166.582z"/>
<path fill="#FFDA4C" d="M158.857,36.226c1.192,0,2.158,0.965,2.158,2.158c0,0.454-0.17,0.994-0.482,1.335
	c-0.455,0.54,0.113,1.136,0.795,1.136c0.567,0,1.164-0.369,1.477-0.682c0.283-0.284,0.312-0.653,0.512-0.653
	c0.198,0,0.396,0.17,0.54,0.341c1.646,1.817,0.197,5.395-1.79,5.395h-3.776c-1.023,0-1.932-1.249-1.932-2.271
	c0-1.59,1.533-2.243,1.533-2.385c0-0.255-0.085-0.284-0.312-0.454c-0.539-0.369-0.88-0.795-0.88-1.732
	C156.699,37.475,157.665,36.226,158.857,36.226z"/>
<path d="M160.732,40.712c-0.37-0.227-0.539-0.625-0.227-0.994c0.312-0.369,0.481-0.881,0.481-1.335c0-0.397-0.113-0.738-0.284-1.079
	c0.625,1.704-0.426,2.612-1.619,2.698c-0.481,0.029-0.908-0.029-1.248-0.17c-0.171-0.085-0.257-0.199-0.229-0.34
	c0.029-0.114,0-0.199-0.084-0.284c0.084,0.142-0.057,0.341-0.228,0.312c-0.113,0-0.227-0.028-0.342-0.057
	c0.144,0.256,0.37,0.454,0.625,0.625c0.228,0.17,0.341,0.198,0.312,0.454c0,0.057-0.368,0.284-0.681,0.568
	C157.92,40.684,159.454,40.343,160.732,40.712z"/>
<path d="M157.892,44.574c-0.453,0-0.88-0.199-1.25-0.511c0.342,0.653,0.966,1.192,1.648,1.192h3.776
	c1.221,0,2.214-1.306,2.442-2.754c-0.426,1.165-1.392,2.073-2.499,2.073H157.892z"/>
<path fill="#FCF29C" d="M157.836,36.68c0.312-0.143,0.681-0.228,1.05-0.228c0.227,0,0.455,0.028,0.683,0.085
	c0.085,0.028,0.085-0.085,0-0.085c-0.228-0.085-0.456-0.114-0.711-0.114c-0.369,0-0.738,0.114-1.051,0.312
	C157.723,36.68,157.778,36.708,157.836,36.68z"/>
<path fill="#F55831" d="M157.467,39.15c-0.397-0.312-0.71-0.937-0.682-1.334c-0.171,0.284-0.653,0.397-1.107,0.369
	c-0.143,0-0.426-0.114-0.455,0.113c0,0.228,0.171,0.54,0.455,0.71c0.511,0.284,1.021,0.54,1.618,0.568
	C157.551,39.548,157.637,39.264,157.467,39.15z"/>
<path fill="#EC4B2E" d="M155.733,38.81c-0.255-0.142-0.425-0.397-0.453-0.597c0,0.028,0,0.028,0,0.057
	c0,0.227,0.169,0.54,0.453,0.709c0.398,0.228,0.824,0.426,1.25,0.54c0.114,0.029,0.228,0.029,0.341,0.057
	c0.17,0,0.283-0.17,0.199-0.312c0,0,0,0,0-0.028c-0.085,0.256-0.454,0.17-0.625,0.114C156.473,39.235,156.104,39.037,155.733,38.81z
	"/>
<circle fill="#FFC544" cx="158.063" cy="37.901" r="0.511"/>
<circle fill="#FFFFFF" cx="158.063" cy="37.901" r="0.454"/>
<path fill="#000309" d="M157.92,38.156c0.115,0,0.229-0.113,0.229-0.227c0-0.028,0-0.085-0.029-0.113l0,0
	c0,0.085-0.056,0.142-0.142,0.142s-0.142-0.057-0.142-0.142c0-0.058,0.027-0.114,0.084-0.142h-0.028
	c-0.113,0-0.227,0.113-0.227,0.227C157.693,38.043,157.778,38.156,157.92,38.156z"/>
<path fill="#E89539" d="M162.606,41.45c-0.567,0.369-0.994,0.17-1.336,0.057c-0.937-0.34-2.015-0.312-1.986,0.937
	c0,0.568,0.823,1.42,2.13,1.25c0.908-0.114,2.044-1.051,1.703-2.13C163.004,41.223,162.861,41.28,162.606,41.45z"/>
<path d="M162.521,41.337c-0.567,0.369-0.994,0.17-1.334,0.057c-0.938-0.341-2.017-0.312-1.988,0.937c0,0.568,0.823,1.42,2.13,1.249
	c0.908-0.113,2.044-1.05,1.704-2.129C162.947,41.11,162.775,41.194,162.521,41.337z"/>
<path fill="#FFD865" d="M159.396,42.019c0.257-0.512,0.768-0.654,1.364-0.597c0.057,0,0.057-0.028,0-0.057
	c-0.653-0.113-1.25,0-1.42,0.625C159.341,42.046,159.369,42.046,159.396,42.019z"/>
<path fill="#757575" d="M223.58,23.418h-34.744c-2.278,0-4.115,1.837-4.115,4.116v8.116c0,2.279,1.837,4.117,4.115,4.117h34.744
	c2.279,0,4.117-1.837,4.117-4.117v-8.116C227.697,25.279,225.859,23.418,223.58,23.418z M225,35.86c0,0.628-0.42,1.14-0.954,1.14
	h-35.698c-0.512,0-0.953-0.512-0.953-1.14v-8.512c0-0.628,0.419-1.14,0.953-1.14h35.722c0.534,0,0.953,0.512,0.953,1.14v8.512H225z"
	/>
<rect x="188.859" y="33.232" fill="#FFE082" width="34.698" height="57.768"/>
<rect x="188.859" y="81.163" fill="#EF9A9A" width="34.698" height="3.813"/>
<path d="M250.813,42.954c4.349,0,7.884-3.534,7.884-7.884c0-4.349-3.535-7.884-7.884-7.884s-7.884,3.535-7.884,7.884
	C242.93,39.42,246.465,42.954,250.813,42.954z M250.813,27.861c3.978,0,7.21,3.232,7.21,7.209s-3.232,7.209-7.21,7.209
	c-3.977,0-7.209-3.232-7.209-7.209S246.837,27.861,250.813,27.861z"/>
<path d="M250.813,60.559c4.349,0,7.884-3.535,7.884-7.883c0-4.35-3.535-7.885-7.884-7.885s-7.884,3.535-7.884,7.885
	C242.93,57.023,246.465,60.559,250.813,60.559z M250.813,45.466c3.978,0,7.21,3.232,7.21,7.21c0,3.977-3.232,7.209-7.21,7.209
	c-3.977,0-7.209-3.232-7.209-7.209C243.604,48.698,246.837,45.466,250.813,45.466z"/>
<circle fill="#DC4437" cx="250.813" cy="17.466" r="6.256"/>
<circle fill="#FBCB43" cx="250.813" cy="35.07" r="6.256"/>
<circle fill="#34B67A" cx="250.813" cy="52.675" r="6.255"/>
<path d="M250.813,25.35c4.349,0,7.884-3.535,7.884-7.884s-3.535-7.884-7.884-7.884s-7.884,3.535-7.884,7.884
	S246.465,25.35,250.813,25.35z M250.813,10.256c3.978,0,7.21,3.233,7.21,7.209s-3.232,7.209-7.21,7.209
	c-3.977,0-7.209-3.233-7.209-7.209S246.837,10.256,250.813,10.256z"/>
<polygon points="248.349,63.21 248.441,77 253.279,77 253.186,63.21 "/>
<path d="M257.953,6.908c-0.023-0.046-0.07-0.093-0.093-0.14h0.116c-1.396-1.837-4.07-3.07-7.163-3.07s-5.79,1.256-7.163,3.093h0.094
	c-0.023,0.046-0.07,0.093-0.094,0.139h14.303V6.908z"/>
<path d="M262.953,45.768c0-0.581-0.535-1.069-1.162-1.069h-0.233v15.954h0.256c0.651,0,1.187-0.466,1.187-1.07v-0.116h2.023
	c0.441,0,0.837-0.442,0.883-1.023c0.396-3.79,3.07-4.721,4.861-8.116c0.139-0.279,0.232-0.604,0.232-0.953v-3.488h-7.977v-0.117
	H262.953z"/>
<path d="M262.953,28.164c0-0.582-0.535-1.046-1.162-1.046h-0.233V43.07h0.256c0.651,0,1.187-0.465,1.187-1.07v-0.115h2.023
	c0.441,0,0.837-0.442,0.883-1.023c0.396-3.791,3.07-4.721,4.861-8.116c0.139-0.279,0.232-0.605,0.232-0.954v-3.488h-7.977v-0.14
	H262.953z"/>
<path d="M262.953,10.559c0-0.581-0.535-1.069-1.162-1.069h-0.233v15.953h0.256c0.651,0,1.187-0.465,1.187-1.046V24.28h2.023
	c0.441,0,0.837-0.442,0.883-1.023c0.396-3.791,3.07-4.721,4.861-8.116c0.139-0.279,0.232-0.604,0.232-0.954v-3.488h-7.977v-0.14
	H262.953z"/>
<path d="M238.674,45.745v0.116h-7.977v3.488c0,0.349,0.07,0.674,0.232,0.953c1.791,3.396,4.465,4.326,4.861,8.117
	c0.069,0.58,0.441,1.022,0.883,1.022h2.023v0.116c0,0.582,0.535,1.07,1.163,1.07h0.232V44.676h-0.232
	C239.209,44.698,238.674,45.164,238.674,45.745z"/>
<path d="M238.674,28.164v0.116h-7.977v3.488c0,0.349,0.07,0.674,0.232,0.954c1.791,3.396,4.465,4.325,4.861,8.116
	c0.069,0.582,0.441,1.023,0.883,1.023h2.023v0.116c0,0.581,0.535,1.069,1.163,1.069h0.232V27.094h-0.232
	C239.209,27.094,238.674,27.559,238.674,28.164z"/>
<path d="M238.674,10.559v0.117h-7.977v3.488c0,0.349,0.07,0.674,0.232,0.954c1.791,3.395,4.465,4.325,4.861,8.116
	c0.069,0.581,0.441,1.023,0.883,1.023h2.023v0.116c0,0.582,0.535,1.07,1.163,1.07h0.232V9.489h-0.232
	C239.209,9.489,238.674,9.954,238.674,10.559z"/>
<path d="M250.813,24.675c3.978,0,7.21-3.233,7.21-7.209s-3.232-7.209-7.21-7.209c-3.977,0-7.209,3.233-7.209,7.209
	S246.837,24.675,250.813,24.675z M250.813,11.21c3.466,0,6.256,2.791,6.256,6.256c0,3.465-2.79,6.256-6.256,6.256
	c-3.465,0-6.256-2.791-6.256-6.256C244.558,14,247.349,11.21,250.813,11.21z"/>
<path d="M250.813,59.885c3.978,0,7.21-3.232,7.21-7.209c0-3.978-3.232-7.21-7.21-7.21c-3.977,0-7.209,3.232-7.209,7.21
	C243.604,56.652,246.837,59.885,250.813,59.885z M250.813,46.42c3.466,0,6.256,2.79,6.256,6.256c0,3.465-2.79,6.255-6.256,6.255
	c-3.465,0-6.256-2.79-6.256-6.255C244.558,49.21,247.349,46.42,250.813,46.42z"/>
<path d="M250.813,42.279c3.978,0,7.21-3.232,7.21-7.209s-3.232-7.209-7.21-7.209c-3.977,0-7.209,3.232-7.209,7.209
	S246.837,42.279,250.813,42.279z M250.813,28.814c3.466,0,6.256,2.791,6.256,6.256s-2.79,6.256-6.256,6.256
	c-3.465,0-6.256-2.791-6.256-6.256S247.349,28.814,250.813,28.814z"/>
<path d="M240.512,62.791h20.581V7.326h-20.581V62.791z M250.813,9.582c4.349,0,7.884,3.535,7.884,7.884s-3.535,7.884-7.884,7.884
	s-7.884-3.535-7.884-7.884S246.465,9.582,250.813,9.582z M250.813,27.187c4.349,0,7.884,3.535,7.884,7.884
	c0,4.35-3.535,7.884-7.884,7.884s-7.884-3.534-7.884-7.884C242.93,30.722,246.465,27.187,250.813,27.187z M250.813,44.791
	c4.349,0,7.884,3.535,7.884,7.885c0,4.348-3.535,7.883-7.884,7.883s-7.884-3.535-7.884-7.883
	C242.93,48.326,246.465,44.791,250.813,44.791z"/>
</svg>
