<svg version="1.1" id="Layer_1" xmlns="http://www.w3.org/2000/svg" xmlns:xlink="http://www.w3.org/1999/xlink" viewBox="0 0 300 100" enable-background="new 0 0 300 100" xml:space="preserve">
<g>
	<g>
		<g>
			
				<linearGradient id="SVGID_1_" gradientUnits="userSpaceOnUse" x1="-65.1367" y1="336.6133" x2="-47.6824" y2="336.6133" gradientTransform="matrix(2.4935 0 0 2.4935 218.7266 -770.8242)">
				<stop  offset="0" style="stop-color:#FFD383"/>
				<stop  offset="0.5937" style="stop-color:#FFB872"/>
				<stop  offset="1" style="stop-color:#FFA364"/>
			</linearGradient>
			<path fill="url(#SVGID_1_)" d="M84.516,69.132c0.026-1.068,0.065-1.871,0.065-1.871h-7.006h-0.184h-7.005
				c0,0,0.056,1.146,0.078,2.525c1.505-0.25,11.509-1.904,11.694-1.904C82.263,67.882,83.427,68.521,84.516,69.132z"/>
			
				<linearGradient id="SVGID_2_" gradientUnits="userSpaceOnUse" x1="-65.1367" y1="341.7266" x2="-47.6817" y2="341.7266" gradientTransform="matrix(2.4935 0 0 2.4935 218.7266 -770.8242)">
				<stop  offset="0" style="stop-color:#FFD383"/>
				<stop  offset="0.5937" style="stop-color:#FFB872"/>
				<stop  offset="1" style="stop-color:#FFA364"/>
			</linearGradient>
			<path fill="url(#SVGID_2_)" d="M101.383,83.721c-0.771-2.572-3.772-3.086-3.772-3.086s-8.094-2.399-9.343-3.086
				c-0.241-0.134-0.506-0.297-0.775-0.473c-0.004,0.393-0.059,0.635-0.191,0.624c-5.124-0.37-15.317-6.783-16.835-7.754
				c0.024,1.696-0.005,3.687-0.252,4.346c-0.459,1.222-2.266,2.569-3.515,3.257c-1.249,0.687-9.343,3.086-9.343,3.086
				s-3,0.516-3.771,3.086c-0.771,2.571-3.087,8.432-2.829,8.743c0.132,0.159,13.543,0.156,26.729,0.115
				c13.185,0.041,26.596,0.044,26.729-0.115C104.47,92.152,102.154,86.292,101.383,83.721z"/>
			<path opacity="0.8" fill="#EF843C" enable-background="new    " d="M70.269,69.818c0,0,0.073,0.048,0.198,0.128
				c0-0.054-0.001-0.107-0.001-0.16C70.342,69.806,70.269,69.818,70.269,69.818z"/>
			
				<linearGradient id="SVGID_3_" gradientUnits="userSpaceOnUse" x1="-65.1372" y1="338.3252" x2="-47.6823" y2="338.3252" gradientTransform="matrix(2.4935 0 0 2.4935 218.7266 -770.8242)">
				<stop  offset="0" style="stop-color:#FFD383"/>
				<stop  offset="0.5937" style="stop-color:#FFB872"/>
				<stop  offset="1" style="stop-color:#FFA364"/>
			</linearGradient>
			<path fill="url(#SVGID_3_)" d="M87.492,77.076c-1.124-0.736-2.369-1.799-2.74-2.785c-0.288-0.769-0.281-3.348-0.237-5.159
				c-1.088-0.611-2.252-1.25-2.357-1.25c-0.186,0-10.189,1.656-11.693,1.905c0,0.053,0,0.106,0.001,0.159
				c1.518,0.971,11.712,7.385,16.835,7.755C87.434,77.71,87.488,77.469,87.492,77.076z"/>
			<path opacity="0.5" fill="#EF843C" enable-background="new    " d="M87.492,77.076c-1.124-0.736-2.369-1.799-2.74-2.785
				c-0.288-0.769-0.281-3.348-0.237-5.159c-1.088-0.611-2.252-1.25-2.357-1.25c-0.186,0-10.189,1.656-11.693,1.905
				c0,0.053,0,0.106,0.001,0.159c1.518,0.971,11.712,7.385,16.835,7.755C87.434,77.71,87.488,77.469,87.492,77.076z"/>
		</g>
		<g>
			<g>
				<path fill="#FFBC64" d="M98.909,39.421c0,0,2.695-6.721,5.228-3.214c2.532,3.507-1.389,11.396-2.042,11.787
					c-0.653,0.39-2.614-1.461-2.614-1.461L98.909,39.421z"/>
				<path fill="#FFBC64" d="M56.437,40.172c0,0-2.696-6.721-5.227-3.215c-2.532,3.507,1.388,11.396,2.042,11.786
					c0.653,0.39,2.613-1.46,2.613-1.46L56.437,40.172z"/>
			</g>
			
				<linearGradient id="SVGID_4_" gradientUnits="userSpaceOnUse" x1="-56.5728" y1="313.543" x2="-56.5728" y2="338.0646" gradientTransform="matrix(2.4935 0 0 2.4935 218.7266 -770.8242)">
				<stop  offset="0" style="stop-color:#FFD383"/>
				<stop  offset="0.3124" style="stop-color:#FFCD7E"/>
				<stop  offset="0.7407" style="stop-color:#FFBB70"/>
				<stop  offset="1" style="stop-color:#FFAD64"/>
			</linearGradient>
			<path fill="url(#SVGID_4_)" d="M77.715,10.824v-0.002c-0.018,0-0.035,0.001-0.053,0.001c-0.018,0-0.035-0.001-0.053-0.001v0.001
				c-12.013-0.033-24.448,7.629-23.962,20.864c0.062,1.695,1.381,25.702,3.162,28.597c1.94,3.151,12.284,10.955,20.8,11.327v0.009
				c0.018-0.001,0.035-0.004,0.053-0.005c0.018,0.001,0.036,0.004,0.053,0.005v-0.009c8.517-0.372,18.86-8.176,20.801-11.327
				c1.78-2.896,3.1-26.902,3.162-28.597C102.163,18.453,89.73,10.792,77.715,10.824z"/>
			<path opacity="0.2" fill="#F39200" enable-background="new    " d="M84.882,11.725c6.213,3.781,10.656,10.305,10.362,19.067
				c-0.027,0.826,2.58,9.771-0.489,13.871c1.423,1.82-1.686,15.655-2.674,17.412c-1.17,2.081-5.41,6.009-10.455,8.891
				c7.508-1.982,15.223-8.003,16.872-10.681c1.781-2.896,3.1-26.902,3.162-28.597C102.047,21.113,94.186,14.101,84.882,11.725z"/>
			<path opacity="0.1" fill="#FFFFFF" enable-background="new    " d="M62.441,64.226c-2.349-1.717-4.104-3.396-4.768-4.474
				c-1.434-2.328-2.834-23.22-3.013-28.103c-0.23-6.258,2.636-11.678,7.88-15.31c-3.085,4.023-4.64,8.967-4.458,14.412
				c0.009,0.276,1.282,28.367,3.29,31.963C61.628,63.174,61.99,63.683,62.441,64.226z"/>
			
				<radialGradient id="SVGID_5_" cx="-57.4678" cy="10584.1289" r="5.1449" gradientTransform="matrix(2.4935 0 0 1.1161 218.7266 -11758.457)" gradientUnits="userSpaceOnUse">
				<stop  offset="0" style="stop-color:#FFFFFF"/>
				<stop  offset="0.0175" style="stop-color:#FFFDFA"/>
				<stop  offset="0.1726" style="stop-color:#FFE9D0"/>
				<stop  offset="0.3312" style="stop-color:#FFD9AE"/>
				<stop  offset="0.4917" style="stop-color:#FFCD93"/>
				<stop  offset="0.6547" style="stop-color:#FFC480"/>
				<stop  offset="0.822" style="stop-color:#FFBF75"/>
				<stop  offset="1" style="stop-color:#FFBD71"/>
			</radialGradient>
			<path opacity="0.31" fill="url(#SVGID_5_)" enable-background="new    " d="M72.129,54.062
				c3.902,1.357,11.486,0.301,11.992-0.313c-0.083-2.259-2.268-5.645-2.465-6.708c0,0-6.136-0.786-7.119,0
				C74.104,49.046,72.129,52.308,72.129,54.062z"/>
			<path fill="#EA9D49" d="M84.131,53.701c-1.005,0.243-5.621,1.346-12.001,0.36c-0.047,0.256,2.575,1.908,5.746,2.381
				C79.406,56.803,84.401,53.985,84.131,53.701z"/>
			<path opacity="0.3" fill="#DD9544" enable-background="new    " d="M81.842,54.144c0.458-0.237-0.396-6.553-0.27-6.68
				c0.887,2.089,2.027,2.674,2.558,6.237C83.354,54.003,82.554,54.081,81.842,54.144z"/>
		</g>
	</g>
	
		<linearGradient id="SVGID_6_" gradientUnits="userSpaceOnUse" x1="-61.4932" y1="311.5635" x2="-56.7759" y2="325.347" gradientTransform="matrix(2.4935 0 0 2.4935 218.7266 -770.8242)">
		<stop  offset="0" style="stop-color:#915418"/>
		<stop  offset="1" style="stop-color:#683C11"/>
	</linearGradient>
	<path opacity="0.2" fill="url(#SVGID_6_)" enable-background="new    " d="M95.553,25.497c-1.316-0.278-11.435,3.689-17.33,3.689
		c-0.129,0-4.375-0.263-6.103-0.617c-8.779-1.095-12.33-1.464-13.837-1.823c-0.763,0.995-1.38,2.275-1.494,2.665
		c-0.188,0.632,0.78,4.843,0.783,5.926c0.002,1.082-1.658,11.662-1.962,11.91c-0.098,0.079-0.703-0.021-0.868-0.035
		c0.016,0.184-0.017-0.088,0,0.096c0.323,0.15,1.32,0.292,1.503,0.142c0.304-0.248,1.835-10.354,1.833-11.437
		s-0.97-5.292-0.783-5.926c0.114-0.388,0.731-1.668,1.494-2.664c1.506,0.36,5.057,0.729,13.837,1.825
		c1.728,0.353,5.972,0.616,6.102,0.616c5.895,0,16.015-3.968,17.331-3.689c0.438,0.093,0.899,0.491,1.326,1.001
		C96.837,26.365,96.174,25.627,95.553,25.497z"/>
</g>
<g>
	<g>
		<g>
			
				<linearGradient id="SVGID_7_" gradientUnits="userSpaceOnUse" x1="-37.4512" y1="336.6133" x2="-19.9958" y2="336.6133" gradientTransform="matrix(2.4935 0 0 2.4935 218.7266 -770.8242)">
				<stop  offset="0" style="stop-color:#FFD383"/>
				<stop  offset="0.5937" style="stop-color:#FFB872"/>
				<stop  offset="1" style="stop-color:#FFA364"/>
			</linearGradient>
			<path fill="url(#SVGID_7_)" d="M153.551,69.132c0.025-1.068,0.065-1.871,0.065-1.871h-7.006h-0.183h-7.006
				c0,0,0.057,1.146,0.08,2.525c1.505-0.25,11.507-1.904,11.693-1.904C151.298,67.882,152.463,68.521,153.551,69.132z"/>
			
				<linearGradient id="SVGID_8_" gradientUnits="userSpaceOnUse" x1="-37.4512" y1="341.7266" x2="-19.9965" y2="341.7266" gradientTransform="matrix(2.4935 0 0 2.4935 218.7266 -770.8242)">
				<stop  offset="0" style="stop-color:#FFD383"/>
				<stop  offset="0.5937" style="stop-color:#FFB872"/>
				<stop  offset="1" style="stop-color:#FFA364"/>
			</linearGradient>
			<path fill="url(#SVGID_8_)" d="M170.418,83.721c-0.771-2.572-3.771-3.086-3.771-3.086s-8.096-2.399-9.345-3.086
				c-0.241-0.134-0.505-0.297-0.774-0.473c-0.004,0.393-0.059,0.635-0.189,0.624c-5.125-0.37-15.319-6.783-16.836-7.754
				c0.024,1.696-0.006,3.687-0.252,4.346c-0.458,1.222-2.265,2.569-3.514,3.257c-1.249,0.687-9.343,3.086-9.343,3.086
				s-3,0.516-3.771,3.086c-0.771,2.571-3.087,8.432-2.829,8.743c0.131,0.159,13.543,0.156,26.728,0.115
				c13.185,0.041,26.597,0.044,26.729-0.115C173.505,92.152,171.189,86.292,170.418,83.721z"/>
			<path opacity="0.8" fill="#EF843C" enable-background="new    " d="M139.304,69.818c0,0,0.073,0.048,0.198,0.128
				c-0.001-0.054-0.001-0.107-0.001-0.16C139.377,69.806,139.304,69.818,139.304,69.818z"/>
			
				<linearGradient id="SVGID_9_" gradientUnits="userSpaceOnUse" x1="-37.4507" y1="338.3252" x2="-19.996" y2="338.3252" gradientTransform="matrix(2.4935 0 0 2.4935 218.7266 -770.8242)">
				<stop  offset="0" style="stop-color:#FFD383"/>
				<stop  offset="0.5937" style="stop-color:#FFB872"/>
				<stop  offset="1" style="stop-color:#FFA364"/>
			</linearGradient>
			<path fill="url(#SVGID_9_)" d="M156.527,77.076c-1.124-0.736-2.369-1.799-2.739-2.785c-0.288-0.769-0.282-3.348-0.237-5.159
				c-1.088-0.611-2.253-1.25-2.357-1.25c-0.186,0-10.188,1.656-11.693,1.905c0,0.053,0,0.106,0.001,0.159
				c1.518,0.971,11.712,7.385,16.836,7.755C156.469,77.71,156.523,77.469,156.527,77.076z"/>
			<path opacity="0.5" fill="#EF843C" enable-background="new    " d="M156.527,77.076c-1.124-0.736-2.369-1.799-2.739-2.785
				c-0.288-0.769-0.282-3.348-0.237-5.159c-1.088-0.611-2.253-1.25-2.357-1.25c-0.186,0-10.188,1.656-11.693,1.905
				c0,0.053,0,0.106,0.001,0.159c1.518,0.971,11.712,7.385,16.836,7.755C156.469,77.71,156.523,77.469,156.527,77.076z"/>
		</g>
		<g>
			<g>
				<path fill="#FFBC64" d="M167.944,39.421c0,0,2.696-6.721,5.227-3.214c2.531,3.507-1.389,11.396-2.041,11.787
					c-0.653,0.39-2.614-1.461-2.614-1.461L167.944,39.421z"/>
				<path fill="#FFBC64" d="M125.472,40.172c0,0-2.696-6.721-5.228-3.215c-2.532,3.507,1.388,11.396,2.042,11.786
					c0.654,0.39,2.614-1.46,2.614-1.46L125.472,40.172z"/>
			</g>
			
				<linearGradient id="SVGID_10_" gradientUnits="userSpaceOnUse" x1="-28.8862" y1="313.543" x2="-28.8862" y2="338.0646" gradientTransform="matrix(2.4935 0 0 2.4935 218.7266 -770.8242)">
				<stop  offset="0" style="stop-color:#FFD383"/>
				<stop  offset="0.3124" style="stop-color:#FFCD7E"/>
				<stop  offset="0.7407" style="stop-color:#FFBB70"/>
				<stop  offset="1" style="stop-color:#FFAD64"/>
			</linearGradient>
			<path fill="url(#SVGID_10_)" d="M146.751,10.824v-0.002c-0.019,0-0.035,0.001-0.054,0.001c-0.017,0-0.034-0.001-0.052-0.001
				v0.001c-12.014-0.033-24.448,7.629-23.962,20.864c0.062,1.695,1.381,25.702,3.162,28.597
				c1.939,3.151,12.283,10.955,20.799,11.327v0.009c0.018-0.001,0.035-0.004,0.052-0.005c0.019,0.001,0.036,0.004,0.054,0.005
				v-0.009c8.515-0.372,18.86-8.176,20.799-11.327c1.782-2.896,3.1-26.902,3.163-28.597C171.2,18.453,158.766,10.792,146.751,10.824
				z"/>
			<path opacity="0.2" fill="#F39200" enable-background="new    " d="M153.917,11.725c6.213,3.781,10.655,10.305,10.361,19.067
				c-0.027,0.826,2.579,9.771-0.489,13.871c1.424,1.82-1.686,15.655-2.673,17.412c-1.171,2.081-5.411,6.009-10.456,8.891
				c7.508-1.982,15.224-8.003,16.871-10.681c1.781-2.896,3.1-26.902,3.163-28.597C171.084,21.113,163.221,14.101,153.917,11.725z"/>
			<path opacity="0.1" fill="#FFFFFF" enable-background="new    " d="M131.476,64.226c-2.348-1.717-4.104-3.396-4.768-4.474
				c-1.433-2.328-2.834-23.22-3.013-28.103c-0.23-6.258,2.636-11.678,7.879-15.31c-3.085,4.023-4.641,8.967-4.459,14.412
				c0.01,0.276,1.282,28.367,3.29,31.963C130.662,63.174,131.026,63.683,131.476,64.226z"/>
			
				<radialGradient id="SVGID_11_" cx="-29.7812" cy="10584.1289" r="5.1436" gradientTransform="matrix(2.4935 0 0 1.1161 218.7266 -11758.457)" gradientUnits="userSpaceOnUse">
				<stop  offset="0" style="stop-color:#FFFFFF"/>
				<stop  offset="0.0175" style="stop-color:#FFFDFA"/>
				<stop  offset="0.1726" style="stop-color:#FFE9D0"/>
				<stop  offset="0.3312" style="stop-color:#FFD9AE"/>
				<stop  offset="0.4917" style="stop-color:#FFCD93"/>
				<stop  offset="0.6547" style="stop-color:#FFC480"/>
				<stop  offset="0.822" style="stop-color:#FFBF75"/>
				<stop  offset="1" style="stop-color:#FFBD71"/>
			</radialGradient>
			<path opacity="0.31" fill="url(#SVGID_11_)" enable-background="new    " d="M141.165,54.062
				c3.901,1.357,11.487,0.301,11.992-0.313c-0.083-2.259-2.268-5.645-2.465-6.708c0,0-6.136-0.786-7.119,0
				C143.139,49.046,141.165,52.308,141.165,54.062z"/>
			<path fill="#EA9D49" d="M153.164,53.701c-1.004,0.243-5.619,1.346-12,0.36c-0.047,0.256,2.575,1.908,5.744,2.381
				C148.442,56.803,153.436,53.985,153.164,53.701z"/>
			<path opacity="0.3" fill="#DD9544" enable-background="new    " d="M150.878,54.144c0.458-0.237-0.396-6.553-0.27-6.68
				c0.886,2.089,2.026,2.674,2.556,6.237C152.39,54.003,151.59,54.081,150.878,54.144z"/>
		</g>
	</g>
	
		<linearGradient id="SVGID_12_" gradientUnits="userSpaceOnUse" x1="-33.8071" y1="311.5645" x2="-29.0898" y2="325.3482" gradientTransform="matrix(2.4935 0 0 2.4935 218.7266 -770.8242)">
		<stop  offset="0" style="stop-color:#915418"/>
		<stop  offset="1" style="stop-color:#683C11"/>
	</linearGradient>
	<path opacity="0.2" fill="url(#SVGID_12_)" enable-background="new    " d="M164.589,25.497c-1.315-0.278-11.436,3.689-17.33,3.689
		c-0.128,0-4.375-0.263-6.103-0.617c-8.779-1.095-12.331-1.464-13.837-1.823c-0.763,0.995-1.379,2.275-1.494,2.665
		c-0.188,0.632,0.779,4.843,0.782,5.926c0.002,1.082-1.658,11.662-1.961,11.91c-0.098,0.079-0.704-0.021-0.868-0.035
		c0.017,0.184-0.017-0.088,0,0.096c0.322,0.15,1.319,0.292,1.504,0.142c0.304-0.248,1.835-10.354,1.833-11.437
		s-0.969-5.292-0.782-5.926c0.115-0.388,0.731-1.668,1.494-2.664c1.506,0.36,5.057,0.729,13.836,1.825
		c1.727,0.353,5.973,0.616,6.103,0.616c5.894,0,16.015-3.968,17.329-3.689c0.439,0.093,0.898,0.491,1.326,1.001
		C165.873,26.365,165.209,25.627,164.589,25.497z"/>
</g>
<g>
	<path fill="#3A3A3A" d="M150.236,42.753c0,0,7.406-2.605,15.003-3.659c1.59-0.951-9.238-0.33-10.485,0.11
		C153.506,39.644,151.211,41.16,150.236,42.753z"/>
	<path fill="#3A3A3A" d="M143.662,42.904c0,0-7.367-2.717-14.946-3.883c-1.576-0.976,9.241-0.19,10.482,0.267
		C140.438,39.746,142.711,41.295,143.662,42.904z"/>
	<path fill="#EF843C" d="M141.294,62.555c0.967-0.245,4.8-1.914,11.454-0.013c0.047-0.257-2.382-1.164-5.434-1.641
		C145.841,60.538,141.032,62.268,141.294,62.555z"/>
	<path opacity="0.7" fill="#EF843C" enable-background="new    " d="M142.569,65.083c0.754-0.093,4.215-0.51,8.998-0.137
		c0.035-0.097-1.93-0.724-4.308-0.902C146.111,63.907,142.366,64.975,142.569,65.083z"/>
	<g>
		<g>
			<path fill="#3C3C3B" d="M130.616,44.75c-0.238-0.637,0.047-1.188,0.556-1.732c0.509-0.545,3.999-2.64,7.511-0.613
				s3.168,3.687,3.168,3.687S136.676,48.89,130.616,44.75z"/>
			<path fill="#FFFFFF" d="M130.884,45.065c-0.211-0.126-0.368-0.355-0.367-0.602c0.001-0.414,0.255-0.791,0.633-1.165
				c0.505-0.499,3.982-2.41,7.505-0.524c3.521,1.887,3.188,3.415,3.188,3.415S136.842,48.664,130.884,45.065z"/>
			
				<radialGradient id="SVGID_13_" cx="-16.04" cy="300.0791" r="0.9062" gradientTransform="matrix(2.4875 0.1721 -0.1721 2.4875 227.6992 -699.2773)" gradientUnits="userSpaceOnUse">
				<stop  offset="0.5027" style="stop-color:#683C11"/>
				<stop  offset="0.603" style="stop-color:#7D4C0A"/>
				<stop  offset="0.7195" style="stop-color:#8F5A04"/>
				<stop  offset="0.8461" style="stop-color:#996101"/>
				<stop  offset="1" style="stop-color:#9C6400"/>
			</radialGradient>
			<circle fill="url(#SVGID_13_)" cx="136.169" cy="44.419" r="2.26"/>
			<circle fill="#1D1D1B" cx="136.158" cy="44.442" r="1.289"/>
			<circle fill="#FFFFFF" cx="137.395" cy="43.544" r="0.888"/>
		</g>
	</g>
	<g>
		<g>
			<path fill="#3C3C3B" d="M162.723,44.775c0.241-0.636-0.041-1.189-0.548-1.736c-0.505-0.547-3.985-2.658-7.508-0.648
				c-3.521,2.01-3.186,3.672-3.186,3.672S156.643,48.887,162.723,44.775z"/>
			<path fill="#FFFFFF" d="M162.308,45.174c0.398-0.231,0.595-0.739,0.404-1.159c-0.108-0.236-0.291-0.466-0.519-0.694
				c-0.503-0.502-3.971-2.429-7.503-0.559c-3.529,1.869-3.204,3.399-3.204,3.399S156.396,48.619,162.308,45.174z"/>
			
				<radialGradient id="SVGID_14_" cx="-339.2437" cy="350.5508" r="0.907" gradientTransform="matrix(-2.4883 0.1606 0.1606 2.4883 -743.2539 -773.373)" gradientUnits="userSpaceOnUse">
				<stop  offset="0.5027" style="stop-color:#683C11"/>
				<stop  offset="0.603" style="stop-color:#7D4C0A"/>
				<stop  offset="0.7195" style="stop-color:#8F5A04"/>
				<stop  offset="0.8461" style="stop-color:#996101"/>
				<stop  offset="1" style="stop-color:#9C6400"/>
			</radialGradient>
			<circle fill="url(#SVGID_14_)" cx="157.17" cy="44.418" r="2.26"/>
			<circle fill="#1D1D1B" cx="157.181" cy="44.441" r="1.289"/>
			<circle fill="#FFFFFF" cx="158.214" cy="43.34" r="0.888"/>
		</g>
	</g>
</g>
<g>
	<path fill="#3A3A3A" d="M80.825,41.075c0,0,7.616-1.904,15.277-2.245c1.673-0.799-9.166-1.189-10.448-0.868
		C84.372,38.284,81.942,39.578,80.825,41.075z"/>
	<path fill="#3A3A3A" d="M74.639,41.005c0,0-7.457-2.459-15.071-3.362c-1.609-0.919,9.229-0.511,10.484-0.097
		C71.309,37.961,73.635,39.431,74.639,41.005z"/>
	<path opacity="0.8" fill="#EF843C" enable-background="new    " d="M75.526,64.517c0.673-0.212,3.766-1.185,8.202-1.659
		c0.017-0.094-1.888-0.332-4.092-0.09C78.563,62.839,75.322,64.453,75.526,64.517z"/>
	<g>
		<g>
			<path fill="#3C3C3B" d="M61.265,45.001c-0.282-0.619-0.035-1.188,0.434-1.769c0.469-0.578,3.807-2.908,7.45-1.13
				c3.644,1.778,3.416,3.459,3.416,3.459S67.596,48.713,61.265,45.001z"/>
			<path fill="#FFFFFF" d="M61.555,45.297c-0.219-0.113-0.392-0.329-0.408-0.575c-0.027-0.412,0.2-0.807,0.551-1.206
				c0.469-0.532,3.807-2.679,7.45-1.041c3.644,1.638,3.416,3.187,3.416,3.187S67.748,48.474,61.555,45.297z"/>
			
				<radialGradient id="SVGID_15_" cx="-61.5293" cy="326.8936" r="0.9062" gradientTransform="matrix(2.4935 0 0 2.4935 218.7266 -770.8242)" gradientUnits="userSpaceOnUse">
				<stop  offset="0.5027" style="stop-color:#683C11"/>
				<stop  offset="0.603" style="stop-color:#7D4C0A"/>
				<stop  offset="0.7195" style="stop-color:#8F5A04"/>
				<stop  offset="0.8461" style="stop-color:#996101"/>
				<stop  offset="1" style="stop-color:#9C6400"/>
			</radialGradient>
			<circle fill="url(#SVGID_15_)" cx="65.303" cy="44.286" r="2.26"/>
			<circle fill="#1D1D1B" cx="65.293" cy="44.31" r="1.289"/>
			<circle fill="#FFFFFF" cx="66.464" cy="43.329" r="0.889"/>
		</g>
	</g>
	<g>
		<g>
			<path fill="#3C3C3B" d="M93.28,45.001c0.282-0.619,0.035-1.188-0.434-1.769c-0.469-0.578-3.807-2.908-7.45-1.13
				c-3.644,1.778-3.416,3.459-3.416,3.459S86.948,48.713,93.28,45.001z"/>
			<path fill="#FFFFFF" d="M92.84,45.373c0.413-0.206,0.643-0.7,0.479-1.13c-0.093-0.243-0.261-0.484-0.474-0.727
				c-0.469-0.532-3.806-2.679-7.45-1.041c-3.644,1.638-3.416,3.187-3.416,3.187S86.719,48.43,92.84,45.373z"/>
			
				<radialGradient id="SVGID_16_" cx="-329.2021" cy="326.8936" r="0.9062" gradientTransform="matrix(-2.4935 0 0 2.4935 -734.2051 -770.8242)" gradientUnits="userSpaceOnUse">
				<stop  offset="0.5027" style="stop-color:#683C11"/>
				<stop  offset="0.603" style="stop-color:#7D4C0A"/>
				<stop  offset="0.7195" style="stop-color:#8F5A04"/>
				<stop  offset="0.8461" style="stop-color:#996101"/>
				<stop  offset="1" style="stop-color:#9C6400"/>
			</radialGradient>
			<circle fill="url(#SVGID_16_)" cx="86.663" cy="44.286" r="2.26"/>
			<circle fill="#1D1D1B" cx="86.672" cy="44.31" r="1.289"/>
			<circle fill="#FFFFFF" cx="87.773" cy="43.279" r="0.889"/>
		</g>
	</g>
	<path fill="#EF843C" d="M78.643,61.17c2.607-0.518,5.002-0.615,6.627-0.354c-1.115-0.78-3.786-0.972-6.773-0.38
		c-2.987,0.592-5.383,1.787-6.117,2.934C73.784,62.507,76.035,61.687,78.643,61.17z"/>
</g>
<linearGradient id="SVGID_17_" gradientUnits="userSpaceOnUse" x1="-67.6851" y1="343.5117" x2="-45.4277" y2="343.5117" gradientTransform="matrix(2.4935 0 0 2.4935 218.7266 -770.8242)">
	<stop  offset="0" style="stop-color:#5B777F"/>
	<stop  offset="0.2924" style="stop-color:#57767F"/>
	<stop  offset="0.5533" style="stop-color:#4D727F"/>
	<stop  offset="0.8013" style="stop-color:#3A6B7F"/>
	<stop  offset="1" style="stop-color:#26647F"/>
</linearGradient>
<path fill="url(#SVGID_17_)" d="M105.452,92.264c-0.086-0.703-0.528-1.997-1.556-4.889c-0.509-1.43-1.035-2.907-1.324-3.87
	c-0.88-2.935-3.983-3.677-4.501-3.78c-3.095-0.918-8.259-2.528-9.096-2.988c-0.409-0.225-0.843-0.507-1.254-0.81
	c-2.023,2.736-5.666,4.569-9.837,4.569c-4.26,0-7.972-1.91-9.966-4.744c-0.478,0.372-1.001,0.719-1.486,0.985
	c-0.835,0.459-6,2.069-9.095,2.987c-0.518,0.104-3.623,0.847-4.502,3.78c-0.289,0.962-0.814,2.438-1.323,3.868
	c-1.029,2.893-1.471,4.188-1.557,4.891h0.025c0,0.01-0.004,0.02-0.004,0.028c0,1.881,12.418,3.406,27.739,3.406
	s27.739-1.524,27.739-3.406c0-0.01-0.004-0.02-0.005-0.028H105.452L105.452,92.264z"/>
<linearGradient id="SVGID_18_" gradientUnits="userSpaceOnUse" x1="-39.9883" y1="343.5117" x2="-17.7305" y2="343.5117" gradientTransform="matrix(2.4935 0 0 2.4935 218.7266 -770.8242)">
	<stop  offset="0" style="stop-color:#5B777F"/>
	<stop  offset="0.2924" style="stop-color:#57767F"/>
	<stop  offset="0.5533" style="stop-color:#4D727F"/>
	<stop  offset="0.8013" style="stop-color:#3A6B7F"/>
	<stop  offset="1" style="stop-color:#26647F"/>
</linearGradient>
<path fill="url(#SVGID_18_)" d="M174.515,92.264c-0.086-0.703-0.527-1.997-1.557-4.889c-0.509-1.43-1.035-2.907-1.322-3.87
	c-0.881-2.935-3.983-3.677-4.504-3.78c-3.094-0.918-8.259-2.528-9.095-2.988c-0.408-0.225-0.843-0.507-1.254-0.81
	c-2.023,2.736-5.665,4.569-9.837,4.569c-4.261,0-7.972-1.91-9.966-4.744c-0.478,0.372-1.001,0.719-1.486,0.985
	c-0.836,0.459-6,2.069-9.095,2.987c-0.518,0.104-3.622,0.847-4.502,3.78c-0.289,0.962-0.813,2.438-1.323,3.868
	c-1.029,2.893-1.471,4.188-1.558,4.891h0.026c0,0.01-0.005,0.02-0.005,0.028c0,1.881,12.418,3.406,27.739,3.406
	s27.738-1.524,27.738-3.406c0-0.01-0.005-0.02-0.005-0.028H174.515L174.515,92.264z"/>
<path fill="#89470B" d="M102.137,16.038C90.065,6.329,71.492,2.193,70.732,2.572c-0.76,0.38,0.379,2.977,0.379,2.977
	s-8.991-3.102-9.498-2.977c-0.506,0.127,2.849,3.863,2.849,3.863s-8.072-1.8-8.626-1.439c-0.555,0.362,3.181,3.528,3.181,3.528
	s-6.939-1.283-12.103,1.407c-0.084,0.258,6.849,1.696,6.849,1.696S46.448,15.196,45,17.208c0.101,0.125,8.129-0.832,8.129-0.832
	s-4.526,3.282-4.609,4.307c1.493,0.868,2.779,3.394,3.488,3.974c-0.012,0.068-0.02,0.15-0.029,0.228
	c-0.228,1.918,0.369,6.582,0.903,11.127c0.187,0.013,0.317,0.04,0.436,0.079c0.193,0.062,0.346,0.166,0.597,0.355
	c0.008,0.115,0.015,0.239,0.023,0.356c0.188,2.933,0.458,6.746,0.797,10.47c0.152,0.072,0.312,0.114,0.458,0.126
	c0.166,0.014,0.313-0.011,0.411-0.089c0.303-0.249,1.964-10.828,1.961-11.91c-0.002-1.083-0.97-5.292-0.782-5.927
	c0.114-0.388,0.731-1.668,1.494-2.664c1.506,0.359,5.057,0.729,13.838,1.823c1.728,0.354,5.973,0.618,6.103,0.618
	c5.895,0,16.015-3.967,17.33-3.69c0.62,0.13,1.283,0.869,1.832,1.677c0.853,1.018,1.568,2.49,1.694,2.912
	c0.187,0.633-0.78,4.844-0.783,5.926c-0.002,0.942,1.253,9.067,1.781,11.33c0.148,0.001,0.316-0.033,0.481-0.099
	c0.386-4.117,0.691-8.439,0.892-11.619c0.429-0.323,0.508-0.323,0.824-0.386c0.374-3.282,0.907-6.562,1.069-8.742
	C103.53,26.067,104.334,19.282,102.137,16.038z"/>
<path fill="#89470B" d="M171.118,16.038c-12.072-9.708-30.646-13.845-31.406-13.466c-0.759,0.38,0.38,2.977,0.38,2.977
	s-8.991-3.102-9.498-2.977c-0.507,0.127,2.85,3.863,2.85,3.863s-8.072-1.8-8.626-1.439c-0.555,0.362,3.181,3.528,3.181,3.528
	s-6.941-1.282-12.104,1.407c-0.085,0.258,6.848,1.696,6.848,1.696s-7.315,3.569-8.763,5.581c0.102,0.125,8.13-0.832,8.13-0.832
	s-4.527,3.282-4.61,4.307c1.493,0.868,2.779,3.394,3.488,3.974c-0.013,0.068-0.02,0.15-0.03,0.228
	c-0.228,1.918,0.37,6.582,0.902,11.127c0.188,0.013,0.318,0.04,0.437,0.079c0.193,0.062,0.347,0.166,0.598,0.355
	c0.007,0.115,0.015,0.239,0.022,0.356c0.188,2.933,0.459,6.746,0.798,10.47c0.152,0.072,0.311,0.114,0.458,0.126
	c0.165,0.014,0.312-0.011,0.411-0.089c0.304-0.249,1.964-10.828,1.961-11.91c-0.002-1.083-0.969-5.292-0.782-5.927
	c0.115-0.388,0.731-1.668,1.494-2.664c1.506,0.359,5.057,0.729,13.838,1.823c1.727,0.354,5.973,0.618,6.102,0.618
	c5.895,0,16.016-3.967,17.331-3.69c0.619,0.13,1.282,0.869,1.833,1.677c0.852,1.018,1.566,2.49,1.692,2.912
	c0.187,0.633-0.78,4.844-0.782,5.926c-0.003,0.942,1.252,9.067,1.78,11.33c0.148,0.001,0.318-0.033,0.481-0.099
	c0.387-4.117,0.691-8.439,0.893-11.619c0.429-0.323,0.507-0.323,0.824-0.386c0.373-3.282,0.907-6.562,1.068-8.742
	C172.51,26.067,173.314,19.282,171.118,16.038z"/>
<g>
	<g>
		<g>
			<linearGradient id="SVGID_19_" gradientUnits="userSpaceOnUse" x1="192.8457" y1="68.6836" x2="236.4901" y2="68.6836">
				<stop  offset="0" style="stop-color:#FFD383"/>
				<stop  offset="0.5937" style="stop-color:#FFB872"/>
				<stop  offset="1" style="stop-color:#FFA364"/>
			</linearGradient>
			<path fill="url(#SVGID_19_)" d="M221.133,69.292c0.026-1.072,0.065-1.874,0.065-1.874h-7.025h-0.185h-7.025
				c0,0,0.057,1.146,0.079,2.531c1.51-0.25,11.541-1.911,11.727-1.911C218.874,68.038,220.042,68.68,221.133,69.292z"/>
			<linearGradient id="SVGID_20_" gradientUnits="userSpaceOnUse" x1="192.8457" y1="81.4668" x2="236.4911" y2="81.4668">
				<stop  offset="0" style="stop-color:#FFD383"/>
				<stop  offset="0.5937" style="stop-color:#FFB872"/>
				<stop  offset="1" style="stop-color:#FFA364"/>
			</linearGradient>
			<path fill="url(#SVGID_20_)" d="M238.047,83.921c-0.774-2.579-3.783-3.095-3.783-3.095s-8.117-2.405-9.37-3.094
				c-0.241-0.134-0.507-0.299-0.776-0.475c-0.004,0.394-0.059,0.636-0.191,0.626c-5.139-0.37-15.36-6.801-16.882-7.776
				c0.024,1.702-0.005,3.698-0.253,4.359c-0.459,1.225-2.271,2.576-3.523,3.266c-1.253,0.688-9.37,3.094-9.37,3.094
				s-3.008,0.516-3.782,3.095c-0.773,2.578-3.097,8.455-2.837,8.767c0.132,0.159,13.581,0.157,26.803,0.116
				c13.22,0.041,26.67,0.043,26.802-0.116C241.143,92.376,238.819,86.499,238.047,83.921z"/>
			<path opacity="0.8" fill="#EF843C" d="M206.847,69.979c0,0,0.072,0.049,0.197,0.128c0-0.052-0.001-0.106-0.002-0.158
				C206.919,69.968,206.847,69.979,206.847,69.979z"/>
			<linearGradient id="SVGID_21_" gradientUnits="userSpaceOnUse" x1="192.8457" y1="72.9609" x2="236.4906" y2="72.9609">
				<stop  offset="0" style="stop-color:#FFD383"/>
				<stop  offset="0.5937" style="stop-color:#FFB872"/>
				<stop  offset="1" style="stop-color:#FFA364"/>
			</linearGradient>
			<path fill="url(#SVGID_21_)" d="M224.117,77.258c-1.128-0.738-2.377-1.805-2.747-2.791c-0.289-0.771-0.283-3.359-0.237-5.175
				c-1.091-0.612-2.259-1.254-2.364-1.254c-0.186,0-10.217,1.661-11.727,1.911c0.001,0.052,0.002,0.106,0.002,0.158
				c1.521,0.976,11.743,7.406,16.882,7.776C224.059,77.894,224.113,77.651,224.117,77.258z"/>
			<path opacity="0.5" fill="#EF843C" d="M224.117,77.258c-1.128-0.738-2.377-1.805-2.747-2.791
				c-0.289-0.771-0.283-3.359-0.237-5.175c-1.091-0.612-2.259-1.254-2.364-1.254c-0.186,0-10.217,1.661-11.727,1.911
				c0.001,0.052,0.002,0.106,0.002,0.158c1.521,0.976,11.743,7.406,16.882,7.776C224.059,77.894,224.113,77.651,224.117,77.258z"/>
		</g>
		<g>
			<g>
				<path fill="#FFBC64" d="M235.565,39.5c0,0,2.703-6.74,5.242-3.224c2.539,3.517-1.393,11.428-2.048,11.819
					c-0.655,0.391-2.62-1.465-2.62-1.465L235.565,39.5z"/>
				<path fill="#FFBC64" d="M192.976,40.253c0,0-2.703-6.74-5.243-3.223c-2.538,3.516,1.393,11.428,2.048,11.818
					c0.656,0.391,2.622-1.465,2.622-1.465L192.976,40.253z"/>
			</g>
			<linearGradient id="SVGID_22_" gradientUnits="userSpaceOnUse" x1="214.2607" y1="10.998" x2="214.2607" y2="72.3093">
				<stop  offset="0" style="stop-color:#FFD383"/>
				<stop  offset="0.3124" style="stop-color:#FFCD7E"/>
				<stop  offset="0.7407" style="stop-color:#FFBB70"/>
				<stop  offset="1" style="stop-color:#FFAD64"/>
			</linearGradient>
			<path fill="url(#SVGID_22_)" d="M214.313,10.823L214.313,10.823c-0.018-0.001-0.035,0-0.053,0s-0.035-0.001-0.053,0v0.001
				c-12.047-0.033-24.516,7.65-24.028,20.921c0.062,1.699,1.385,25.773,3.171,28.675c1.945,3.161,12.317,10.987,20.857,11.359v0.008
				c0.018,0,0.035-0.004,0.053-0.004s0.035,0.004,0.053,0.004v-0.008c8.539-0.372,18.913-8.198,20.857-11.359
				c1.786-2.901,3.108-26.976,3.171-28.675C238.829,18.473,226.361,10.791,214.313,10.823z"/>
			<path opacity="0.2" fill="#F39200" d="M221.499,11.727c6.231,3.792,10.686,10.333,10.391,19.12
				c-0.028,0.828,2.586,9.798-0.49,13.908c1.428,1.826-1.691,15.698-2.682,17.459c-1.174,2.087-5.425,6.027-10.483,8.917
				c7.527-1.988,15.265-8.025,16.918-10.712c1.785-2.901,3.108-26.976,3.171-28.675C238.712,21.14,230.828,14.109,221.499,11.727z"
				/>
			<path opacity="0.1" fill="#FFFFFF" d="M198.996,64.373c-2.355-1.722-4.115-3.406-4.78-4.485
				c-1.437-2.336-2.842-23.285-3.021-28.181c-0.23-6.274,2.644-11.711,7.902-15.352c-3.095,4.034-4.653,8.992-4.473,14.451
				c0.01,0.278,1.287,28.448,3.3,32.052C198.181,63.316,198.544,63.828,198.996,64.373z"/>
			
				<radialGradient id="SVGID_23_" cx="212.0234" cy="10170.1367" r="12.8634" gradientTransform="matrix(1 0 0 0.4476 0 -4497.3735)" gradientUnits="userSpaceOnUse">
				<stop  offset="0" style="stop-color:#FFFFFF"/>
				<stop  offset="0.0175" style="stop-color:#FFFDFA"/>
				<stop  offset="0.1726" style="stop-color:#FFE9D0"/>
				<stop  offset="0.3312" style="stop-color:#FFD9AE"/>
				<stop  offset="0.4917" style="stop-color:#FFCD93"/>
				<stop  offset="0.6547" style="stop-color:#FFC480"/>
				<stop  offset="0.822" style="stop-color:#FFBF75"/>
				<stop  offset="1" style="stop-color:#FFBD71"/>
			</radialGradient>
			<path opacity="0.31" fill="url(#SVGID_23_)" d="M208.713,54.18c3.912,1.361,11.518,0.305,12.024-0.314
				c-0.083-2.266-2.274-5.661-2.472-6.726c0,0-6.154-0.789-7.14,0C210.691,49.151,208.713,52.422,208.713,54.18z"/>
			<path fill="#EA9D49" d="M220.746,53.818c-1.009,0.244-5.637,1.35-12.033,0.361c-0.049,0.256,2.581,1.913,5.76,2.387
				C216.009,56.928,221.019,54.104,220.746,53.818z"/>
			<path opacity="0.3" fill="#DD9544" d="M218.451,54.263c0.459-0.238-0.397-6.572-0.27-6.699c0.889,2.096,2.031,2.683,2.564,6.255
				C219.968,54.119,219.165,54.199,218.451,54.263z"/>
		</g>
	</g>
	<linearGradient id="SVGID_24_" gradientUnits="userSpaceOnUse" x1="201.957" y1="6.0459" x2="213.7527" y2="40.5123">
		<stop  offset="0" style="stop-color:#915418"/>
		<stop  offset="1" style="stop-color:#683C11"/>
	</linearGradient>
	<path opacity="0.2" fill="url(#SVGID_24_)" d="M232.201,25.536c-1.318-0.279-11.468,3.699-17.378,3.699
		c-0.13,0-4.388-0.264-6.119-0.619c-8.805-1.098-12.365-1.468-13.876-1.829c-0.764,0.999-1.384,2.283-1.498,2.672
		c-0.188,0.635,0.782,4.856,0.784,5.942c0.003,1.085-1.662,11.694-1.967,11.943c-0.098,0.079-0.705-0.022-0.871-0.036
		c0.017,0.184-0.016-0.088,0,0.096c0.324,0.15,1.324,0.293,1.509,0.143c0.305-0.25,1.84-10.384,1.838-11.47
		c-0.003-1.084-0.973-5.307-0.785-5.941c0.115-0.391,0.734-1.673,1.498-2.673c1.511,0.361,5.071,0.731,13.876,1.83
		c1.731,0.354,5.989,0.619,6.119,0.619c5.911,0,16.059-3.979,17.379-3.7c0.438,0.093,0.899,0.492,1.328,1.004
		C233.487,26.407,232.823,25.667,232.201,25.536z"/>
</g>
<g>
	<g>
		
			<image overflow="visible" opacity="0.15" width="33" height="18" xlink:href="6706B44CF8D71CEE.png"  transform="matrix(0.48 0 0 0.48 195.7637 38.2842)">
		</image>
		
			<image overflow="visible" opacity="0.15" width="32" height="18" xlink:href="6706B44CF8D71CF2.png"  transform="matrix(0.48 0 0 0.48 217.9678 38.3096)">
		</image>
	</g>
	<path fill="#3A3A3A" d="M217.52,38.986c0,0,7.809-1.013,15.478-0.463c1.758-0.603-8.991-2.249-10.306-2.077
		C221.376,36.617,218.807,37.625,217.52,38.986z"/>
	<path fill="#3A3A3A" d="M211.387,39.718c0,0-7.748-1.403-15.436-1.237c-1.727-0.69,9.093-1.796,10.398-1.559
		C207.654,37.159,210.168,38.294,211.387,39.718z"/>
	<path opacity="0.8" fill="#EF843C" d="M210.26,66.983c0.756-0.093,4.225-0.512,9.022-0.138c0.034-0.097-1.936-0.725-4.319-0.903
		C213.811,65.805,210.055,66.875,210.26,66.983z"/>
	<g>
		<g>
			<path fill="#3C3C3B" d="M198.379,43.957c-0.281-0.635-0.034-1.221,0.437-1.814s3.817-2.985,7.471-1.16s3.426,3.551,3.426,3.551
				S204.729,47.767,198.379,43.957z"/>
			<path fill="#FFFFFF" d="M198.67,44.259c-0.219-0.115-0.393-0.338-0.408-0.589c-0.025-0.424,0.201-0.828,0.554-1.238
				c0.471-0.546,3.817-2.75,7.471-1.068s3.426,3.271,3.426,3.271S204.88,47.522,198.67,44.259z"/>
			<radialGradient id="SVGID_25_" cx="203.9121" cy="43.2832" r="2.3123" gradientUnits="userSpaceOnUse">
				<stop  offset="0.5027" style="stop-color:#683C11"/>
				<stop  offset="0.603" style="stop-color:#7D4C0A"/>
				<stop  offset="0.7195" style="stop-color:#8F5A04"/>
				<stop  offset="0.8461" style="stop-color:#996101"/>
				<stop  offset="1" style="stop-color:#9C6400"/>
			</radialGradient>
			<circle fill="url(#SVGID_25_)" cx="203.913" cy="43.283" r="2.312"/>
			<circle fill="#1D1D1B" cx="203.903" cy="43.307" r="1.45"/>
			<circle fill="#FFFFFF" cx="205.078" cy="42.323" r="0.909"/>
		</g>
	</g>
	<g>
		<g>
			<path fill="#3C3C3B" d="M230.483,43.957c0.283-0.635,0.035-1.221-0.436-1.814c-0.472-0.594-3.817-2.985-7.471-1.16
				c-3.654,1.826-3.425,3.551-3.425,3.551S224.134,47.767,230.483,43.957z"/>
			<path fill="#FFFFFF" d="M230.042,44.337c0.413-0.211,0.645-0.718,0.48-1.16c-0.093-0.251-0.261-0.498-0.475-0.746
				c-0.472-0.546-3.817-2.75-7.471-1.068c-3.654,1.682-3.425,3.271-3.425,3.271S223.905,47.476,230.042,44.337z"/>
			
				<radialGradient id="SVGID_26_" cx="-150.1167" cy="43.2832" r="2.312" gradientTransform="matrix(-1 0 0 1 74.834 0)" gradientUnits="userSpaceOnUse">
				<stop  offset="0.5027" style="stop-color:#683C11"/>
				<stop  offset="0.603" style="stop-color:#7D4C0A"/>
				<stop  offset="0.7195" style="stop-color:#8F5A04"/>
				<stop  offset="0.8461" style="stop-color:#996101"/>
				<stop  offset="1" style="stop-color:#9C6400"/>
			</radialGradient>
			<circle fill="url(#SVGID_26_)" cx="224.951" cy="43.283" r="2.312"/>
			<circle fill="#1D1D1B" cx="224.959" cy="43.307" r="1.45"/>
			<circle fill="#FFFFFF" cx="226.064" cy="42.272" r="0.909"/>
		</g>
	</g>
	<path fill="#EF843C" d="M227.306,57.264c0.281,0.268,0.453,0.609,0.517,0.98c0.118-0.502,0.045-0.966-0.259-1.252
		c-0.303-0.287-0.771-0.336-1.265-0.188C226.673,56.847,227.024,56.998,227.306,57.264z"/>
	<path fill="#683C11" d="M225.84,58.146c0,0-10.532,0.555-22.242,0.9C203.391,59.88,213.09,71.034,225.84,58.146z"/>
	<path opacity="0.49" fill="#BE1622" d="M220.638,62.254c-1.225-0.796-3.57-1.335-6.266-1.335c-3.2,0-5.909,0.76-6.832,1.809
		C210.576,64.419,215.172,65.407,220.638,62.254z"/>
	<radialGradient id="SVGID_27_" cx="214.3945" cy="59.1611" r="10.3762" gradientUnits="userSpaceOnUse">
		<stop  offset="0" style="stop-color:#FFFFFF"/>
		<stop  offset="0.3442" style="stop-color:#FBFBFB"/>
		<stop  offset="0.6996" style="stop-color:#EEEEEE"/>
		<stop  offset="1" style="stop-color:#DEDEDE"/>
	</radialGradient>
	<path fill="url(#SVGID_27_)" d="M223.721,58.253c-3.436,0.167-10.663,0.499-18.653,0.749c1.561,0.927,4.86,1.067,8.82,1.067
		C218.847,60.069,223.041,59.563,223.721,58.253z"/>
</g>
<linearGradient id="SVGID_28_" gradientUnits="userSpaceOnUse" x1="186.501" y1="85.999" x2="242.1533" y2="85.999">
	<stop  offset="0" style="stop-color:#5B777F"/>
	<stop  offset="0.2924" style="stop-color:#57767F"/>
	<stop  offset="0.5533" style="stop-color:#4D727F"/>
	<stop  offset="0.8013" style="stop-color:#3A6B7F"/>
	<stop  offset="1" style="stop-color:#26647F"/>
</linearGradient>
<path fill="url(#SVGID_28_)" d="M242.153,92.558c-0.086-0.707-0.529-2.004-1.561-4.903c-0.511-1.433-1.037-2.915-1.326-3.883
	c-0.883-2.941-3.995-3.684-4.516-3.789c-3.103-0.92-8.281-2.535-9.12-2.996c-0.41-0.227-0.845-0.508-1.258-0.814
	c-2.029,2.747-5.682,4.584-9.865,4.584c-4.271,0-7.994-1.917-9.993-4.758c-0.479,0.374-1.004,0.721-1.49,0.988
	c-0.84,0.461-6.018,2.076-9.12,2.996c-0.521,0.105-3.634,0.848-4.516,3.789c-0.289,0.968-0.815,2.448-1.326,3.881
	c-1.032,2.899-1.476,4.198-1.562,4.905h0.026c-0.001,0.008-0.006,0.018-0.006,0.027c0,1.886,12.453,3.415,27.816,3.415
	c15.361,0,27.815-1.529,27.815-3.415c0-0.01-0.005-0.02-0.006-0.027H242.153z"/>
<path fill="#89470B" d="M238.747,15.986c-12.105-9.736-30.73-13.884-31.492-13.503c-0.762,0.381,0.382,2.984,0.382,2.984
	s-9.016-3.111-9.523-2.984s2.856,3.873,2.856,3.873s-8.094-1.806-8.65-1.443c-0.556,0.363,3.19,3.538,3.19,3.538
	s-6.96-1.286-12.138,1.411c-0.085,0.259,6.868,1.7,6.868,1.7s-7.337,3.58-8.788,5.596c0.102,0.125,8.153-0.834,8.153-0.834
	s-4.541,3.292-4.623,4.32c1.497,0.87,2.786,3.404,3.498,3.985c-0.013,0.069-0.021,0.151-0.03,0.229
	c-0.229,1.923,0.37,6.6,0.905,11.159c0.188,0.013,0.318,0.04,0.438,0.078c0.193,0.063,0.348,0.167,0.599,0.356
	c0.008,0.115,0.016,0.241,0.023,0.358c0.188,2.942,0.461,6.765,0.8,10.5c0.152,0.072,0.313,0.114,0.459,0.126
	c0.166,0.014,0.313-0.01,0.412-0.09c0.305-0.249,1.97-10.858,1.968-11.943c-0.003-1.086-0.974-5.308-0.785-5.943
	c0.115-0.389,0.733-1.673,1.498-2.672c1.51,0.361,5.071,0.731,13.874,1.829c1.733,0.355,5.99,0.619,6.12,0.619
	c5.911,0,16.06-3.979,17.378-3.7c0.621,0.131,1.286,0.871,1.838,1.682c0.854,1.021,1.571,2.497,1.697,2.92
	c0.188,0.635-0.782,4.856-0.784,5.942c-0.003,0.945,1.256,9.091,1.784,11.36c0.149,0.002,0.319-0.031,0.484-0.099
	c0.386-4.128,0.693-8.463,0.894-11.65c0.431-0.323,0.509-0.324,0.827-0.387c0.374-3.292,0.91-6.58,1.071-8.767
	C240.144,26.043,240.951,19.238,238.747,15.986z"/>
</svg>
