<svg version="1.1" id="Layer_1" xmlns="http://www.w3.org/2000/svg" xmlns:xlink="http://www.w3.org/1999/xlink" x="0px" y="0px"
	 viewBox="0 0 300 100" enable-background="new 0 0 300 100" xml:space="preserve">
<g>
	<g>
		<g>
			
				<linearGradient id="SVGID_1_" gradientUnits="userSpaceOnUse" x1="1083.5771" y1="-1255.9395" x2="1230.2687" y2="-1255.9395" gradientTransform="matrix(0.2326 0 0 -0.2326 -209.5352 -223.0117)">
				<stop  offset="0" style="stop-color:#FFD383"/>
				<stop  offset="0.5937" style="stop-color:#FFB872"/>
				<stop  offset="1" style="stop-color:#FFA364"/>
			</linearGradient>
			<path fill="url(#SVGID_1_)" d="M64.568,69.543c0.021-0.838,0.053-1.466,0.053-1.466H59.13h-0.146h-5.49
				c0,0,0.044,0.897,0.062,1.979c1.18-0.196,9.021-1.493,9.165-1.493C62.804,68.563,63.717,69.064,64.568,69.543z"/>
			
				<linearGradient id="SVGID_2_" gradientUnits="userSpaceOnUse" x1="1083.5752" y1="-1298.9121" x2="1230.2661" y2="-1298.9121" gradientTransform="matrix(0.2326 0 0 -0.2326 -209.5352 -223.0117)">
				<stop  offset="0" style="stop-color:#FFD383"/>
				<stop  offset="0.5937" style="stop-color:#FFB872"/>
				<stop  offset="1" style="stop-color:#FFA364"/>
			</linearGradient>
			<path fill="url(#SVGID_2_)" d="M77.79,80.979c-0.605-2.017-2.956-2.42-2.956-2.42s-6.345-1.88-7.324-2.417
				c-0.188-0.105-0.396-0.233-0.607-0.372c-0.004,0.309-0.047,0.497-0.149,0.49c-4.016-0.291-12.007-5.317-13.196-6.078
				c0.019,1.33-0.004,2.889-0.198,3.405c-0.359,0.959-1.775,2.016-2.755,2.555c-0.979,0.538-7.324,2.418-7.324,2.418
				s-2.351,0.403-2.956,2.419c-0.605,2.015-2.42,6.608-2.217,6.853c0.103,0.125,10.616,0.123,20.949,0.091
				c10.334,0.032,20.847,0.034,20.95-0.091C80.21,87.587,78.395,82.993,77.79,80.979z"/>
			<path opacity="0.8" fill="#EF843C" enable-background="new    " d="M53.402,70.082c0,0,0.058,0.036,0.155,0.098
				c0-0.04-0.001-0.083-0.002-0.123C53.46,70.071,53.402,70.082,53.402,70.082z"/>
			
				<linearGradient id="SVGID_3_" gradientUnits="userSpaceOnUse" x1="1083.5732" y1="-1270.3188" x2="1230.2634" y2="-1270.3188" gradientTransform="matrix(0.2326 0 0 -0.2326 -209.5352 -223.0117)">
				<stop  offset="0" style="stop-color:#FFD383"/>
				<stop  offset="0.5937" style="stop-color:#FFB872"/>
				<stop  offset="1" style="stop-color:#FFA364"/>
			</linearGradient>
			<path fill="url(#SVGID_3_)" d="M66.902,75.77c-0.881-0.577-1.858-1.409-2.147-2.183c-0.227-0.603-0.22-2.625-0.187-4.044
				c-0.852-0.479-1.765-0.979-1.848-0.979c-0.145,0-7.985,1.297-9.165,1.493c0.001,0.04,0.001,0.083,0.002,0.123
				c1.189,0.762,9.181,5.789,13.195,6.079C66.855,76.267,66.899,76.077,66.902,75.77z"/>
			<path opacity="0.5" fill="#EF843C" enable-background="new    " d="M66.902,75.77c-0.881-0.577-1.858-1.409-2.147-2.183
				c-0.227-0.603-0.22-2.625-0.187-4.044c-0.852-0.479-1.765-0.979-1.848-0.979c-0.145,0-7.985,1.297-9.165,1.493
				c0.001,0.04,0.001,0.083,0.002,0.123c1.189,0.762,9.181,5.789,13.195,6.079C66.855,76.267,66.899,76.077,66.902,75.77z"/>
		</g>
		<g>
			<g>
				<path fill="#FFBC64" d="M75.851,46.256c0,0,2.113-5.268,4.097-2.52c1.986,2.749-1.088,8.932-1.6,9.239
					c-0.512,0.305-2.048-1.146-2.048-1.146L75.851,46.256z"/>
				<path fill="#FFBC64" d="M42.56,46.844c0,0-2.113-5.268-4.097-2.519s1.088,8.933,1.601,9.237
					c0.512,0.307,2.048-1.145,2.048-1.145L42.56,46.844z"/>
			</g>
			
				<linearGradient id="SVGID_4_" gradientUnits="userSpaceOnUse" x1="1155.5508" y1="-1062.0532" x2="1155.5508" y2="-1268.127" gradientTransform="matrix(0.2326 0 0 -0.2326 -209.5352 -223.0117)">
				<stop  offset="0" style="stop-color:#FFD383"/>
				<stop  offset="0.3124" style="stop-color:#FFCD7E"/>
				<stop  offset="0.7407" style="stop-color:#FFBB70"/>
				<stop  offset="1" style="stop-color:#FFAD64"/>
			</linearGradient>
			<path fill="url(#SVGID_4_)" d="M59.239,23.841L59.239,23.841c-0.014-0.001-0.027,0-0.041,0c-0.015,0-0.027,0-0.042,0v0.001
				c-9.417-0.026-19.162,5.979-18.781,16.353c0.049,1.329,1.083,20.145,2.479,22.414c1.52,2.472,9.627,8.588,16.302,8.879v0.007
				c0.015,0,0.028-0.003,0.042-0.004c0.013,0.001,0.027,0.004,0.041,0.004v-0.007c6.675-0.291,14.783-6.407,16.304-8.879
				c1.396-2.269,2.43-21.085,2.478-22.414C78.402,29.82,68.656,23.815,59.239,23.841z"/>
			<path opacity="0.2" fill="#F39200" enable-background="new    " d="M64.855,24.547c4.871,2.963,8.353,8.077,8.123,14.945
				c-0.023,0.647,2.021,7.658-0.384,10.872c1.115,1.426-1.321,12.271-2.096,13.647c-0.917,1.63-4.241,4.709-8.195,6.969
				c5.885-1.554,11.933-6.272,13.225-8.373c1.396-2.269,2.43-21.085,2.478-22.414C78.311,31.905,72.147,26.41,64.855,24.547z"/>
			<path opacity="0.1" fill="#FFFFFF" enable-background="new    " d="M47.267,65.697c-1.841-1.346-3.217-2.662-3.737-3.506
				c-1.123-1.825-2.221-18.2-2.361-22.027c-0.18-4.905,2.066-9.154,6.176-12c-2.418,3.154-3.637,7.028-3.495,11.295
				c0.007,0.218,1.005,22.236,2.579,25.054C46.629,64.873,46.914,65.271,47.267,65.697z"/>
			
				<radialGradient id="SVGID_5_" cx="1148.0283" cy="-12668.498" r="43.23" gradientTransform="matrix(0.2326 0 0 -0.1041 -209.5352 -1260.6895)" gradientUnits="userSpaceOnUse">
				<stop  offset="0" style="stop-color:#FFFFFF"/>
				<stop  offset="0.0175" style="stop-color:#FFFDFA"/>
				<stop  offset="0.1726" style="stop-color:#FFE9D0"/>
				<stop  offset="0.3312" style="stop-color:#FFD9AE"/>
				<stop  offset="0.4917" style="stop-color:#FFCD93"/>
				<stop  offset="0.6547" style="stop-color:#FFC480"/>
				<stop  offset="0.822" style="stop-color:#FFBF75"/>
				<stop  offset="1" style="stop-color:#FFBD71"/>
			</radialGradient>
			<path opacity="0.31" fill="url(#SVGID_5_)" enable-background="new    " d="M54.861,57.73c3.059,1.064,9.003,0.237,9.399-0.246
				c-0.064-1.77-1.777-4.424-1.932-5.256c0,0-4.81-0.617-5.58,0C56.408,53.801,54.861,56.356,54.861,57.73z"/>
			<path fill="#EA9D49" d="M64.267,57.448c-0.787,0.19-4.405,1.056-9.406,0.282c-0.037,0.199,2.018,1.495,4.503,1.865
				C60.564,59.879,64.48,57.671,64.267,57.448z"/>
			<path opacity="0.3" fill="#DD9544" enable-background="new    " d="M62.474,57.795c0.358-0.186-0.311-5.137-0.212-5.235
				c0.696,1.638,1.59,2.097,2.005,4.889C63.658,57.684,63.031,57.746,62.474,57.795z"/>
		</g>
	</g>
	
		<linearGradient id="SVGID_6_" gradientUnits="userSpaceOnUse" x1="1114.2051" y1="-1045.4229" x2="1153.8453" y2="-1161.2498" gradientTransform="matrix(0.2326 0 0 -0.2326 -209.5352 -223.0117)">
		<stop  offset="0" style="stop-color:#915418"/>
		<stop  offset="1" style="stop-color:#683C11"/>
	</linearGradient>
	<path opacity="0.2" fill="url(#SVGID_6_)" enable-background="new    " d="M73.222,35.341c-1.032-0.218-8.964,2.892-13.585,2.892
		c-0.101,0-3.428-0.207-4.782-0.483c-6.882-0.859-9.666-1.147-10.846-1.43c-0.597,0.781-1.081,1.784-1.171,2.088
		c-0.146,0.496,0.612,3.796,0.613,4.645c0.002,0.848-1.299,9.141-1.537,9.336c-0.077,0.061-0.552-0.019-0.681-0.028
		c0.013,0.144-0.013-0.069,0,0.074c0.253,0.117,1.034,0.229,1.179,0.111c0.239-0.193,1.438-8.115,1.437-8.964
		c-0.002-0.848-0.76-4.148-0.613-4.645c0.09-0.305,0.573-1.308,1.171-2.088c1.181,0.282,3.964,0.571,10.845,1.43
		c1.354,0.276,4.682,0.484,4.784,0.484c4.619,0,12.552-3.111,13.583-2.892c0.344,0.072,0.704,0.385,1.039,0.785
		C74.227,36.022,73.707,35.444,73.222,35.341z"/>
</g>
<g>
	<path fill="#3A3A3A" d="M61.972,48.868c0,0,5.805-2.043,11.76-2.867c1.246-0.746-7.24-0.259-8.219,0.085
		C64.535,46.431,62.734,47.617,61.972,48.868z"/>
	<path fill="#3A3A3A" d="M56.817,48.985c0,0-5.773-2.129-11.714-3.045c-1.235-0.765,7.243-0.149,8.215,0.21
		C54.292,46.51,56.073,47.725,56.817,48.985z"/>
	<path fill="#EF843C" d="M54.962,64.387c0.758-0.191,3.762-1.499,8.979-0.009c0.036-0.202-1.868-0.913-4.261-1.286
		C58.525,62.807,54.757,64.162,54.962,64.387z"/>
	<path opacity="0.7" fill="#EF843C" enable-background="new    " d="M55.962,66.369c0.591-0.072,3.303-0.399,7.053-0.107
		c0.027-0.075-1.514-0.566-3.377-0.707C58.737,65.448,55.802,66.284,55.962,66.369z"/>
	<g>
		<g>
			<path fill="#3C3C3B" d="M46.592,50.433c-0.187-0.499,0.037-0.931,0.436-1.358c0.398-0.427,3.134-2.068,5.886-0.481
				c2.752,1.588,2.484,2.891,2.484,2.891S51.342,53.678,46.592,50.433z"/>
			<path fill="#FFFFFF" d="M46.803,50.68c-0.165-0.1-0.288-0.279-0.287-0.472c0.001-0.324,0.2-0.62,0.497-0.913
				c0.396-0.391,3.122-1.889,5.882-0.411c2.76,1.479,2.498,2.678,2.498,2.678S51.473,53.5,46.803,50.68z"/>
			
				<radialGradient id="SVGID_7_" cx="1200.9355" cy="-1097.9941" r="7.6191" gradientTransform="matrix(0.232 0.016 0.016 -0.232 -210.053 -223.8324)" gradientUnits="userSpaceOnUse">
				<stop  offset="0.5027" style="stop-color:#683C11"/>
				<stop  offset="0.603" style="stop-color:#7D4C0A"/>
				<stop  offset="0.7195" style="stop-color:#8F5A04"/>
				<stop  offset="0.8461" style="stop-color:#996101"/>
				<stop  offset="1" style="stop-color:#9C6400"/>
			</radialGradient>
			<circle fill="url(#SVGID_7_)" cx="50.945" cy="50.173" r="1.772"/>
			<circle fill="#1D1D1B" cx="50.937" cy="50.191" r="1.01"/>
			<circle fill="#FFFFFF" cx="51.906" cy="49.487" r="0.696"/>
		</g>
	</g>
	<g>
		<g>
			<path fill="#3C3C3B" d="M71.758,50.452c0.188-0.499-0.033-0.932-0.43-1.361c-0.396-0.429-3.124-2.083-5.884-0.507
				c-2.76,1.575-2.497,2.879-2.497,2.879S66.992,53.675,71.758,50.452z"/>
			<path fill="#FFFFFF" d="M71.433,50.765c0.312-0.183,0.467-0.58,0.317-0.908c-0.084-0.187-0.228-0.366-0.407-0.545
				c-0.395-0.393-3.112-1.903-5.879-0.438c-2.768,1.465-2.512,2.664-2.512,2.664S66.799,53.465,71.433,50.765z"/>
			
				<radialGradient id="SVGID_8_" cx="-565.166" cy="-1244.7852" r="7.6177" gradientTransform="matrix(-0.2321 0.015 -0.015 -0.2321 -82.3943 -230.2407)" gradientUnits="userSpaceOnUse">
				<stop  offset="0.5027" style="stop-color:#683C11"/>
				<stop  offset="0.603" style="stop-color:#7D4C0A"/>
				<stop  offset="0.7195" style="stop-color:#8F5A04"/>
				<stop  offset="0.8461" style="stop-color:#996101"/>
				<stop  offset="1" style="stop-color:#9C6400"/>
			</radialGradient>
			<circle fill="url(#SVGID_8_)" cx="67.406" cy="50.172" r="1.771"/>
			<circle fill="#1D1D1B" cx="67.415" cy="50.19" r="1.011"/>
			<circle fill="#FFFFFF" cx="68.224" cy="49.327" r="0.697"/>
		</g>
	</g>
</g>
<linearGradient id="SVGID_9_" gradientUnits="userSpaceOnUse" x1="1062.25" y1="-1313.9102" x2="1249.3008" y2="-1313.9102" gradientTransform="matrix(0.2326 0 0 -0.2326 -209.5352 -223.0117)">
	<stop  offset="0" style="stop-color:#5B777F"/>
	<stop  offset="0.2924" style="stop-color:#57767F"/>
	<stop  offset="0.5533" style="stop-color:#4D727F"/>
	<stop  offset="0.8013" style="stop-color:#3A6B7F"/>
	<stop  offset="1" style="stop-color:#26647F"/>
</linearGradient>
<path fill="url(#SVGID_9_)" d="M81,87.674c-0.066-0.551-0.413-1.564-1.219-3.831c-0.399-1.12-0.811-2.278-1.037-3.034
	c-0.69-2.3-3.122-2.881-3.529-2.963c-2.425-0.719-6.474-1.981-7.129-2.342c-0.32-0.177-0.661-0.397-0.983-0.636
	c-1.587,2.146-4.441,3.581-7.711,3.581c-3.34,0-6.249-1.497-7.812-3.717c-0.375,0.291-0.785,0.562-1.166,0.771
	c-0.655,0.36-4.703,1.623-7.128,2.342c-0.407,0.082-2.839,0.663-3.529,2.963c-0.227,0.755-0.638,1.912-1.037,3.031
	c-0.806,2.268-1.153,3.282-1.22,3.834h0.02c0,0.008-0.004,0.016-0.004,0.022c0,1.475,9.734,2.669,21.742,2.669
	C71.266,90.365,81,89.171,81,87.696c0-0.007-0.004-0.015-0.004-0.022H81z"/>
<linearGradient id="SVGID_10_" gradientUnits="userSpaceOnUse" x1="1122.707" y1="-1027.5088" x2="1165.6375" y2="-1152.9495" gradientTransform="matrix(0.2326 0 0 -0.2326 -209.5352 -223.0117)">
	<stop  offset="0" style="stop-color:#915418"/>
	<stop  offset="1" style="stop-color:#683C11"/>
</linearGradient>
<path fill="url(#SVGID_10_)" d="M78.338,27.927c-9.462-7.609-24.02-10.852-24.615-10.554c-0.596,0.297,0.298,2.333,0.298,2.333
	s-7.048-2.432-7.444-2.333c-0.397,0.1,2.233,3.027,2.233,3.027s-6.327-1.411-6.762-1.127c-0.434,0.284,2.494,2.765,2.494,2.765
	s-5.44-1.005-9.487,1.103c-0.066,0.202,5.368,1.329,5.368,1.329s-5.734,2.798-6.869,4.374c0.08,0.099,6.373-0.652,6.373-0.652
	s-3.548,2.573-3.613,3.376c1.17,0.68,2.178,2.66,2.733,3.114c-0.009,0.054-0.016,0.118-0.023,0.179
	c-0.179,1.503,0.29,5.159,0.708,8.723c0.147,0.01,0.249,0.031,0.342,0.061c0.152,0.049,0.272,0.13,0.469,0.278
	c0.005,0.09,0.012,0.188,0.019,0.28c0.146,2.299,0.359,5.288,0.625,8.207c0.119,0.057,0.245,0.088,0.359,0.1
	c0.129,0.01,0.245-0.01,0.321-0.07c0.238-0.195,1.54-8.488,1.537-9.336c-0.002-0.849-0.76-4.148-0.613-4.645
	c0.09-0.305,0.574-1.308,1.171-2.089c1.18,0.283,3.963,0.571,10.845,1.429c1.354,0.277,4.682,0.484,4.784,0.484
	c4.619,0,12.552-3.109,13.582-2.892c0.486,0.103,1.007,0.681,1.437,1.314c0.669,0.798,1.229,1.952,1.327,2.282
	c0.146,0.497-0.611,3.797-0.613,4.645c-0.002,0.738,0.982,7.106,1.396,8.881c0.117,0,0.249-0.025,0.377-0.078
	c0.304-3.227,0.543-6.616,0.7-9.107c0.336-0.253,0.398-0.254,0.646-0.303c0.292-2.572,0.711-5.143,0.838-6.851
	C79.43,35.789,80.06,30.47,78.338,27.927z"/>
<g>
	<g>
		<g>
			
				<linearGradient id="SVGID_11_" gradientUnits="userSpaceOnUse" x1="1326.4648" y1="-1251.3203" x2="1473.8031" y2="-1251.3203" gradientTransform="matrix(0.2326 0 0 -0.2326 -209.5352 -223.0117)">
				<stop  offset="0" style="stop-color:#FFD383"/>
				<stop  offset="0.5937" style="stop-color:#FFB872"/>
				<stop  offset="1" style="stop-color:#FFA364"/>
			</linearGradient>
			<path fill="url(#SVGID_11_)" d="M121.152,68.472c0.021-0.841,0.052-1.473,0.052-1.473h-5.516h-0.145h-5.515
				c0,0,0.044,0.901,0.062,1.988c1.185-0.196,9.06-1.5,9.206-1.5C119.38,67.487,120.298,67.991,121.152,68.472z"/>
			
				<linearGradient id="SVGID_12_" gradientUnits="userSpaceOnUse" x1="1326.4668" y1="-1294.4834" x2="1473.806" y2="-1294.4834" gradientTransform="matrix(0.2326 0 0 -0.2326 -209.5352 -223.0117)">
				<stop  offset="0" style="stop-color:#FFD383"/>
				<stop  offset="0.5937" style="stop-color:#FFB872"/>
				<stop  offset="1" style="stop-color:#FFA364"/>
			</linearGradient>
			<path fill="url(#SVGID_12_)" d="M134.433,79.957c-0.608-2.024-2.969-2.43-2.969-2.43s-6.373-1.888-7.356-2.43
				c-0.19-0.104-0.398-0.232-0.611-0.372c-0.003,0.309-0.046,0.5-0.149,0.492c-4.035-0.292-12.06-5.341-13.255-6.105
				c0.02,1.335-0.004,2.902-0.198,3.421c-0.361,0.963-1.784,2.023-2.767,2.565c-0.984,0.541-7.357,2.43-7.357,2.43
				s-2.361,0.404-2.969,2.429c-0.607,2.024-2.431,6.638-2.227,6.884c0.103,0.126,10.662,0.122,21.042,0.09
				c10.38,0.032,20.938,0.036,21.042-0.09C136.863,86.594,135.04,81.981,134.433,79.957z"/>
			<path opacity="0.8" fill="#EF843C" enable-background="new    " d="M109.937,69.012c0,0,0.058,0.038,0.156,0.101
				c0-0.042-0.001-0.086-0.001-0.125C109.995,69.002,109.937,69.012,109.937,69.012z"/>
			
				<linearGradient id="SVGID_13_" gradientUnits="userSpaceOnUse" x1="1326.4717" y1="-1265.7646" x2="1473.8008" y2="-1265.7646" gradientTransform="matrix(0.2326 0 0 -0.2326 -209.5352 -223.0117)">
				<stop  offset="0" style="stop-color:#FFD383"/>
				<stop  offset="0.5937" style="stop-color:#FFB872"/>
				<stop  offset="1" style="stop-color:#FFA364"/>
			</linearGradient>
			<path fill="url(#SVGID_13_)" d="M123.497,74.726c-0.885-0.58-1.866-1.416-2.156-2.192c-0.228-0.604-0.222-2.637-0.188-4.062
				c-0.854-0.48-1.772-0.984-1.855-0.984c-0.146,0-8.021,1.303-9.206,1.5c0,0.039,0.001,0.083,0.001,0.125
				c1.195,0.765,9.221,5.813,13.254,6.104C123.45,75.226,123.495,75.034,123.497,74.726z"/>
			<path opacity="0.5" fill="#EF843C" enable-background="new    " d="M123.497,74.726c-0.885-0.58-1.866-1.416-2.156-2.192
				c-0.228-0.604-0.222-2.637-0.188-4.062c-0.854-0.48-1.772-0.984-1.855-0.984c-0.146,0-8.021,1.303-9.206,1.5
				c0,0.039,0.001,0.083,0.001,0.125c1.195,0.765,9.221,5.813,13.254,6.104C123.45,75.226,123.495,75.034,123.497,74.726z"/>
		</g>
		<g>
			<g>
				<path fill="#FFBC64" d="M132.485,45.081c0,0,2.123-5.292,4.114-2.53c1.995,2.761-1.093,8.971-1.606,9.28
					c-0.514,0.306-2.058-1.15-2.058-1.15L132.485,45.081z"/>
				<path fill="#FFBC64" d="M99.047,45.672c0,0-2.123-5.292-4.115-2.531c-1.993,2.761,1.093,8.973,1.607,9.279
					c0.515,0.307,2.058-1.151,2.058-1.151L99.047,45.672z"/>
			</g>
			
				<linearGradient id="SVGID_14_" gradientUnits="userSpaceOnUse" x1="1398.7598" y1="-1056.5791" x2="1398.7598" y2="-1263.5636" gradientTransform="matrix(0.2326 0 0 -0.2326 -209.5352 -223.0117)">
				<stop  offset="0" style="stop-color:#FFD383"/>
				<stop  offset="0.3124" style="stop-color:#FFCD7E"/>
				<stop  offset="0.7407" style="stop-color:#FFBB70"/>
				<stop  offset="1" style="stop-color:#FFAD64"/>
			</linearGradient>
			<path fill="url(#SVGID_14_)" d="M115.8,22.567L115.8,22.567c-0.014-0.001-0.027,0-0.041,0c-0.015,0-0.027,0-0.042,0v0.001
				c-9.458-0.026-19.248,6.007-18.864,16.425c0.049,1.334,1.087,20.235,2.49,22.513c1.527,2.482,9.67,8.626,16.375,8.919v0.006
				c0.015,0,0.029-0.002,0.042-0.003c0.012,0.001,0.027,0.003,0.041,0.003v-0.006c6.705-0.293,14.849-6.437,16.375-8.919
				c1.403-2.277,2.44-21.179,2.489-22.513C135.047,28.574,125.258,22.541,115.8,22.567z"/>
			<path opacity="0.2" fill="#F39200" enable-background="new    " d="M121.441,23.276c4.892,2.977,8.389,8.113,8.158,15.012
				c-0.022,0.649,2.031,7.692-0.385,10.919c1.121,1.432-1.327,12.326-2.105,13.708c-0.922,1.639-4.259,4.73-8.231,7
				c5.911-1.56,11.986-6.301,13.283-8.408c1.403-2.279,2.44-21.181,2.489-22.514C134.956,30.667,128.766,25.147,121.441,23.276z"/>
			<path opacity="0.1" fill="#FFFFFF" enable-background="new    " d="M103.774,64.608c-1.849-1.352-3.231-2.673-3.754-3.521
				c-1.127-1.834-2.23-18.281-2.371-22.125c-0.181-4.927,2.075-9.194,6.203-12.053c-2.429,3.167-3.653,7.059-3.511,11.346
				c0.007,0.218,1.01,22.335,2.591,25.165C103.134,63.78,103.419,64.182,103.774,64.608z"/>
			
				<radialGradient id="SVGID_15_" cx="1391.2061" cy="-12657.7168" r="43.4255" gradientTransform="matrix(0.2326 0 0 -0.1041 -209.5352 -1260.6895)" gradientUnits="userSpaceOnUse">
				<stop  offset="0" style="stop-color:#FFFFFF"/>
				<stop  offset="0.0175" style="stop-color:#FFFDFA"/>
				<stop  offset="0.1726" style="stop-color:#FFE9D0"/>
				<stop  offset="0.3312" style="stop-color:#FFD9AE"/>
				<stop  offset="0.4917" style="stop-color:#FFCD93"/>
				<stop  offset="0.6547" style="stop-color:#FFC480"/>
				<stop  offset="0.822" style="stop-color:#FFBF75"/>
				<stop  offset="1" style="stop-color:#FFBD71"/>
			</radialGradient>
			<path opacity="0.31" fill="url(#SVGID_15_)" enable-background="new    " d="M111.402,56.606
				c3.072,1.069,9.043,0.239,9.441-0.247c-0.065-1.777-1.786-4.443-1.941-5.28c0,0-4.831-0.619-5.604,0
				C112.957,52.659,111.402,55.227,111.402,56.606z"/>
			<path fill="#EA9D49" d="M120.849,56.323c-0.791,0.192-4.424,1.06-9.447,0.283c-0.038,0.201,2.026,1.502,4.523,1.873
				C117.131,58.764,121.064,56.547,120.849,56.323z"/>
			<path opacity="0.3" fill="#DD9544" enable-background="new    " d="M119.048,56.671c0.36-0.187-0.312-5.158-0.213-5.258
				c0.7,1.645,1.597,2.105,2.014,4.909C120.238,56.56,119.609,56.621,119.048,56.671z"/>
		</g>
	</g>
	
		<linearGradient id="SVGID_16_" gradientUnits="userSpaceOnUse" x1="1357.2266" y1="-1039.8584" x2="1397.0481" y2="-1156.2153" gradientTransform="matrix(0.2326 0 0 -0.2326 -209.5352 -223.0117)">
		<stop  offset="0" style="stop-color:#915418"/>
		<stop  offset="1" style="stop-color:#683C11"/>
	</linearGradient>
	<path opacity="0.2" fill="url(#SVGID_16_)" enable-background="new    " d="M129.844,34.118c-1.036-0.218-9.003,2.905-13.645,2.905
		c-0.101,0-3.443-0.208-4.803-0.486c-6.913-0.862-9.708-1.152-10.894-1.436c-0.6,0.785-1.085,1.792-1.176,2.098
		c-0.147,0.499,0.615,3.813,0.616,4.666c0.002,0.852-1.305,9.182-1.544,9.377c-0.077,0.062-0.554-0.018-0.684-0.027
		c0.013,0.144-0.013-0.07,0,0.074c0.253,0.118,1.039,0.229,1.184,0.112c0.24-0.195,1.444-8.152,1.442-9.004
		c-0.002-0.852-0.763-4.167-0.616-4.665c0.09-0.306,0.576-1.314,1.176-2.098c1.186,0.283,3.981,0.574,10.893,1.437
		c1.36,0.277,4.703,0.485,4.805,0.485c4.639,0,12.608-3.124,13.643-2.904c0.346,0.072,0.708,0.386,1.044,0.788
		C130.854,34.802,130.332,34.221,129.844,34.118z"/>
</g>
<g>
	<path fill="#3A3A3A" d="M118.318,44.678c0,0,6.129-0.795,12.152-0.363c1.379-0.473-7.059-1.765-8.093-1.63
		C121.344,42.818,119.328,43.609,118.318,44.678z"/>
	<path fill="#3A3A3A" d="M113.502,45.253c0,0-6.083-1.102-12.118-0.971c-1.355-0.542,7.139-1.41,8.163-1.224
		C110.572,43.244,112.546,44.135,113.502,45.253z"/>
	<path opacity="0.8" fill="#EF843C" enable-background="new    " d="M112.617,66.657c0.593-0.071,3.316-0.4,7.083-0.106
		c0.028-0.076-1.52-0.569-3.392-0.71C115.405,65.732,112.457,66.573,112.617,66.657z"/>
	<g>
		<g>
			<path fill="#3C3C3B" d="M103.29,48.581c-0.222-0.499-0.027-0.958,0.342-1.424c0.369-0.466,2.997-2.345,5.866-0.911
				c2.868,1.434,2.689,2.788,2.689,2.788S108.275,51.571,103.29,48.581z"/>
			<path fill="#FFFFFF" d="M103.519,48.818c-0.172-0.09-0.308-0.266-0.321-0.463c-0.021-0.332,0.158-0.65,0.435-0.972
				c0.369-0.429,2.997-2.159,5.866-0.839c2.868,1.321,2.689,2.568,2.689,2.568S108.394,51.38,103.519,48.818z"/>
			
				<radialGradient id="SVGID_17_" cx="1363.8281" cy="-1165.5703" r="7.8047" gradientTransform="matrix(0.2326 0 0 -0.2326 -209.5352 -223.0117)" gradientUnits="userSpaceOnUse">
				<stop  offset="0.5027" style="stop-color:#683C11"/>
				<stop  offset="0.603" style="stop-color:#7D4C0A"/>
				<stop  offset="0.7195" style="stop-color:#8F5A04"/>
				<stop  offset="0.8461" style="stop-color:#996101"/>
				<stop  offset="1" style="stop-color:#9C6400"/>
			</radialGradient>
			<circle fill="url(#SVGID_17_)" cx="107.634" cy="48.051" r="1.815"/>
			<circle fill="#1D1D1B" cx="107.627" cy="48.07" r="1.138"/>
			<circle fill="#FFFFFF" cx="108.549" cy="47.297" r="0.714"/>
		</g>
	</g>
	<g>
		<g>
			<path fill="#3C3C3B" d="M128.495,48.581c0.222-0.499,0.027-0.958-0.342-1.424c-0.368-0.466-2.997-2.345-5.865-0.911
				s-2.69,2.788-2.69,2.788S123.512,51.571,128.495,48.581z"/>
			<path fill="#FFFFFF" d="M128.149,48.879c0.324-0.166,0.505-0.564,0.377-0.911c-0.073-0.196-0.205-0.39-0.373-0.585
				c-0.369-0.429-2.997-2.159-5.865-0.839c-2.868,1.321-2.69,2.568-2.69,2.568S123.33,51.343,128.149,48.879z"/>
			
				<radialGradient id="SVGID_18_" cx="-890.0156" cy="-1165.5723" r="7.8037" gradientTransform="matrix(-0.2326 0 0 -0.2326 -82.8291 -223.0117)" gradientUnits="userSpaceOnUse">
				<stop  offset="0.5027" style="stop-color:#683C11"/>
				<stop  offset="0.603" style="stop-color:#7D4C0A"/>
				<stop  offset="0.7195" style="stop-color:#8F5A04"/>
				<stop  offset="0.8461" style="stop-color:#996101"/>
				<stop  offset="1" style="stop-color:#9C6400"/>
			</radialGradient>
			<circle fill="url(#SVGID_18_)" cx="124.151" cy="48.052" r="1.815"/>
			<circle fill="#1D1D1B" cx="124.158" cy="48.07" r="1.138"/>
			<circle fill="#FFFFFF" cx="125.025" cy="47.258" r="0.714"/>
		</g>
	</g>
	<path fill="#EF843C" d="M126,59.027c0.221,0.21,0.354,0.479,0.404,0.771c0.094-0.395,0.037-0.758-0.202-0.982
		c-0.238-0.227-0.604-0.264-0.993-0.148C125.503,58.701,125.78,58.819,126,59.027z"/>
	<path fill="#683C11" d="M124.85,59.721c0,0-8.27,0.437-17.463,0.707C107.224,61.081,114.84,69.84,124.85,59.721z"/>
	<path opacity="0.49" fill="#BE1622" enable-background="new    " d="M120.765,62.945c-0.961-0.625-2.803-1.048-4.918-1.048
		c-2.513,0-4.641,0.597-5.365,1.42C112.866,64.646,116.473,65.422,120.765,62.945z"/>
	
		<radialGradient id="SVGID_19_" cx="1399.2109" cy="-1219.1758" r="35.0272" gradientTransform="matrix(0.2326 0 0 -0.2326 -209.5352 -223.0117)" gradientUnits="userSpaceOnUse">
		<stop  offset="0" style="stop-color:#FFFFFF"/>
		<stop  offset="0.3442" style="stop-color:#FBFBFB"/>
		<stop  offset="0.6996" style="stop-color:#EEEEEE"/>
		<stop  offset="1" style="stop-color:#DEDEDE"/>
	</radialGradient>
	<path fill="url(#SVGID_19_)" d="M123.185,59.805c-2.697,0.131-8.371,0.392-14.644,0.588c1.226,0.727,3.816,0.838,6.926,0.838
		C119.358,61.23,122.652,60.832,123.185,59.805z"/>
</g>
<linearGradient id="SVGID_20_" gradientUnits="userSpaceOnUse" x1="1305.0469" y1="-1309.7812" x2="1492.9258" y2="-1309.7812" gradientTransform="matrix(0.2326 0 0 -0.2326 -209.5352 -223.0117)">
	<stop  offset="0" style="stop-color:#5B777F"/>
	<stop  offset="0.2924" style="stop-color:#57767F"/>
	<stop  offset="0.5533" style="stop-color:#4D727F"/>
	<stop  offset="0.8013" style="stop-color:#3A6B7F"/>
	<stop  offset="1" style="stop-color:#26647F"/>
</linearGradient>
<path fill="url(#SVGID_20_)" d="M137.657,86.736c-0.067-0.554-0.415-1.572-1.225-3.848c-0.401-1.125-0.814-2.289-1.042-3.048
	c-0.694-2.31-3.136-2.893-3.545-2.975c-2.436-0.724-6.502-1.992-7.16-2.354c-0.322-0.177-0.663-0.399-0.988-0.638
	c-1.593,2.155-4.46,3.598-7.745,3.598c-3.354,0-6.276-1.504-7.846-3.734c-0.377,0.292-0.788,0.565-1.171,0.776
	c-0.658,0.36-4.724,1.629-7.16,2.353c-0.409,0.082-2.853,0.665-3.545,2.975c-0.228,0.759-0.641,1.921-1.042,3.046
	c-0.81,2.276-1.158,3.296-1.226,3.85h0.02c0,0.008-0.004,0.016-0.004,0.023c0,1.48,9.777,2.681,21.838,2.681
	c12.062,0,21.839-1.2,21.839-2.681c0-0.008-0.004-0.016-0.004-0.023H137.657z"/>
<linearGradient id="SVGID_21_" gradientUnits="userSpaceOnUse" x1="1365.7715" y1="-1021.6621" x2="1408.8917" y2="-1147.6575" gradientTransform="matrix(0.2326 0 0 -0.2326 -209.5352 -223.0117)">
	<stop  offset="0" style="stop-color:#915418"/>
	<stop  offset="1" style="stop-color:#683C11"/>
</linearGradient>
<path fill="url(#SVGID_21_)" d="M134.982,26.62c-9.503-7.643-24.125-10.9-24.723-10.601s0.299,2.343,0.299,2.343
	s-7.079-2.442-7.477-2.343c-0.399,0.1,2.243,3.041,2.243,3.041s-6.355-1.417-6.792-1.132c-0.436,0.285,2.505,2.777,2.505,2.777
	s-5.464-1.01-9.529,1.108c-0.067,0.204,5.392,1.335,5.392,1.335S91.14,25.958,90,27.541c0.08,0.099,6.4-0.655,6.4-0.655
	s-3.563,2.584-3.628,3.391c1.175,0.684,2.188,2.672,2.745,3.129c-0.009,0.054-0.016,0.118-0.023,0.179
	c-0.18,1.509,0.291,5.182,0.71,8.761c0.147,0.01,0.25,0.031,0.344,0.061c0.152,0.05,0.273,0.131,0.471,0.28
	c0.005,0.09,0.012,0.188,0.018,0.281c0.147,2.309,0.361,5.312,0.628,8.244c0.119,0.057,0.245,0.089,0.36,0.099
	c0.129,0.012,0.246-0.008,0.323-0.071c0.239-0.195,1.546-8.523,1.544-9.376c-0.002-0.853-0.764-4.167-0.616-4.666
	c0.09-0.306,0.576-1.313,1.176-2.098c1.187,0.284,3.981,0.574,10.894,1.436c1.36,0.278,4.703,0.486,4.805,0.486
	c4.64,0,12.608-3.123,13.643-2.905c0.489,0.104,1.011,0.684,1.442,1.321c0.672,0.801,1.234,1.96,1.333,2.292
	c0.147,0.499-0.614,3.813-0.616,4.666c-0.003,0.741,0.986,7.137,1.401,8.919c0.118,0.001,0.25-0.024,0.379-0.078
	c0.304-3.241,0.545-6.645,0.704-9.146c0.337-0.255,0.4-0.255,0.648-0.305c0.293-2.584,0.714-5.166,0.842-6.882
	C136.08,34.516,136.713,29.174,134.982,26.62z"/>
<path fill="#0990D3" d="M209.882,40.926c-0.18-1.508-0.029-0.332,0.061,0.724C209.973,41.71,209.942,41.5,209.882,40.926z
	 M209.942,41.65c-0.12-0.241-1.839-9.408-4.794-10.976c-1.356-0.693-2.804-0.784-4.281-0.995c-1.298-0.181-2.292-1.267-2.594-2.624
	c-0.241-1.025-0.392-2.021-0.663-2.985c-0.271-0.905-0.633-1.719-1.326-2.443c-1.207-1.236-2.715-1.809-4.282-2.05
	c-0.663-0.091-1.356-0.121-2.05-0.121c-0.453,0-0.936,0-1.389,0c-1.416,0.03-2.804,0.06-4.221,0c-1.99-0.091-3.77-1.085-5.548-1.96
	c-0.995-0.482-2.081-0.753-3.166-0.693c-0.513,0.03-1.025,0.151-1.508,0.302c-2.412,0.724-4.343,2.653-6.272,4.462
	c-1.176,1.116-2.473,2.051-3.98,2.292c-0.633,0.121-1.296,0.15-1.959,0.06c-0.664-0.09-1.297-0.271-1.931-0.603
	c-2.11-1.085-3.528-0.693-5.88,0.453c-2.773,1.387-4.734,2.714-5.699,5.639c-0.24,0.724-0.633,1.357-1.086,1.899
	c-0.542,0.664-1.176,1.207-1.898,1.598c-0.422,0.271-0.814,0.543-1.207,0.784c-1.236,0.422-2.291,1.297-3.075,2.413
	c-0.482,0.693-0.813,1.478-0.995,2.352c-0.693,3.257,1.326,6.091,3.859,7.539c3.137,1.809,6.152,3.83,8.293,6.936
	c0.271,0.361,0.513,0.754,0.783,1.146c0.242,0.393,0.482,0.783,0.725,1.205c0.332,0.574,0.693,1.057,1.115,1.508
	c0.453,0.453,0.965,0.814,1.598,1.057c0.846,0.271,1.689,0.24,2.504,0.061c0.271-0.061,0.543-0.152,0.813-0.242
	c0.241-0.09,0.452-0.18,0.663-0.301c0.785-0.393,1.447-0.965,2.201-1.418c1.116-0.693,2.684-0.844,3.619,0.211
	c0.211,0.211,0.393,0.482,0.543,0.754c0.754,1.479,1.598,2.895,2.955,3.709c0.301,0.182,0.603,0.301,0.904,0.393
	c2.805,0.783,6.151-1.6,8.865,0.512c3.227,2.504,4.101,6.965,3.195,10.916c-0.09,0.422-0.241,0.875-0.393,1.297
	c-0.21,0.633-0.481,1.236-0.753,1.869c-0.15,0.332-0.332,0.664-0.513,0.996c-0.182,0.33-0.332,0.691-0.482,1.025
	c-0.995,2.109-1.779,4.703-0.482,6.965c1.086,1.869,3.045,2.744,5.006,2.412c2.141-0.393,3.738-2.473,3.769-4.795
	c0.03-0.482,0-0.965-0.06-1.477c-0.242-1.99-1.057-4.041-1.568-5.791c-0.091-0.33-0.182-0.662-0.271-0.994s-0.181-0.664-0.241-0.965
	c-0.12-0.543-0.271-1.086-0.392-1.629c-0.121-0.541-0.242-1.086-0.362-1.627c-0.091-0.393-0.15-0.814-0.241-1.236
	c-0.061-0.422-0.15-0.814-0.211-1.236c-0.452-2.623-0.271-5.76,2.021-7.449c0.813-0.602,1.778-0.812,2.683-0.451
	c0.302,0.121,0.483,0.332,0.664,0.604c0.693,1.236,0.693,2.684,0.904,4.131c0.182,1.176,0.543,2.381,1.538,3.016
	c0.393,0.271,0.845,0.332,1.267,0.24c0.422-0.09,0.844-0.301,1.146-0.633c0.181-0.182,0.361-0.361,0.512-0.572
	s0.271-0.422,0.393-0.635c0.633-1.176,0.965-2.502,1.508-3.738c0.211-0.453,0.451-0.875,0.723-1.266l5.398-3.83
	c1.146-0.514,2.02-1.447,2.773-2.594c2.262-3.377,0.784-7.75,2.985-11.308C210.063,42.736,210.003,42.223,209.942,41.65z"/>
<path fill="#FF69B4" d="M263.233,40.855c-0.18-1.508-0.029-0.332,0.061,0.724C263.324,41.639,263.294,41.428,263.233,40.855z
	 M263.294,41.579c-0.12-0.241-1.838-9.408-4.794-10.976c-1.356-0.693-2.804-0.784-4.281-0.995c-1.297-0.181-2.292-1.267-2.594-2.624
	c-0.241-1.025-0.392-2.021-0.663-2.985c-0.271-0.905-0.633-1.719-1.326-2.443c-1.207-1.236-2.714-1.809-4.282-2.05
	c-0.663-0.091-1.356-0.121-2.05-0.121c-0.453,0-0.936,0-1.389,0c-1.416,0.03-2.804,0.06-4.221,0c-1.99-0.091-3.77-1.085-5.547-1.96
	c-0.996-0.482-2.081-0.753-3.166-0.693c-0.514,0.03-1.025,0.151-1.508,0.302c-2.412,0.724-4.342,2.653-6.272,4.462
	c-1.176,1.116-2.473,2.051-3.979,2.292c-0.634,0.121-1.297,0.15-1.961,0.06c-0.663-0.09-1.297-0.271-1.93-0.603
	c-2.111-1.085-3.527-0.693-5.881,0.453c-2.773,1.387-4.733,2.714-5.698,5.639c-0.241,0.724-0.634,1.357-1.085,1.899
	c-0.543,0.664-1.177,1.207-1.9,1.598c-0.422,0.271-0.814,0.543-1.205,0.784c-1.237,0.422-2.293,1.297-3.076,2.413
	c-0.482,0.693-0.814,1.478-0.996,2.352c-0.693,3.257,1.328,6.091,3.86,7.539c3.136,1.809,6.151,3.83,8.292,6.936
	c0.271,0.361,0.514,0.754,0.785,1.146c0.24,0.393,0.482,0.783,0.723,1.207c0.332,0.572,0.693,1.055,1.116,1.508
	c0.452,0.451,0.965,0.812,1.599,1.055c0.844,0.271,1.688,0.242,2.502,0.061c0.271-0.061,0.543-0.15,0.814-0.242
	c0.241-0.09,0.452-0.18,0.664-0.301c0.783-0.393,1.446-0.965,2.2-1.418c1.116-0.693,2.685-0.844,3.618,0.211
	c0.211,0.211,0.393,0.482,0.543,0.754c0.754,1.479,1.599,2.895,2.955,3.709c0.302,0.182,0.604,0.301,0.904,0.393
	c2.805,0.783,6.152-1.598,8.865,0.512c3.227,2.504,4.102,6.965,3.197,10.916c-0.092,0.422-0.242,0.875-0.393,1.297
	c-0.211,0.633-0.482,1.236-0.754,1.869c-0.15,0.332-0.332,0.664-0.513,0.994c-0.181,0.332-0.332,0.693-0.483,1.025
	c-0.994,2.111-1.777,4.705-0.481,6.967c1.085,1.869,3.046,2.744,5.005,2.412c2.142-0.393,3.739-2.475,3.77-4.795
	c0.031-0.482,0-0.965-0.061-1.477c-0.241-1.992-1.055-4.041-1.567-5.791c-0.091-0.332-0.181-0.662-0.271-0.994
	s-0.181-0.664-0.241-0.965c-0.121-0.543-0.271-1.086-0.393-1.629c-0.12-0.541-0.241-1.086-0.361-1.627
	c-0.091-0.393-0.15-0.814-0.241-1.236c-0.061-0.422-0.15-0.814-0.211-1.236c-0.452-2.623-0.272-5.76,2.021-7.447
	c0.812-0.604,1.777-0.814,2.683-0.453c0.302,0.121,0.483,0.332,0.664,0.604c0.692,1.236,0.692,2.684,0.904,4.131
	c0.181,1.176,0.543,2.383,1.538,3.016c0.393,0.271,0.845,0.332,1.266,0.242c0.422-0.092,0.845-0.303,1.146-0.635
	c0.182-0.182,0.361-0.361,0.513-0.572c0.15-0.211,0.271-0.422,0.392-0.635c0.635-1.176,0.965-2.502,1.508-3.738
	c0.211-0.451,0.452-0.875,0.725-1.266l5.396-3.83c1.146-0.512,2.02-1.447,2.773-2.594c2.262-3.377,0.785-7.749,2.986-11.308
	C263.415,42.665,263.354,42.151,263.294,41.579z"/>
</svg>
