<svg version="1.1" id="Layer_1" xmlns="http://www.w3.org/2000/svg" xmlns:xlink="http://www.w3.org/1999/xlink" x="0px" y="0px"
	 viewBox="0 0 300 100" enable-background="new 0 0 300 100" xml:space="preserve">
<pattern  width="28.8" height="28.801" patternUnits="userSpaceOnUse" id="SVGID_3_" viewBox="1.44 -30.24 28.8 28.801" overflow="visible">
	<g>
		<polygon fill="none" points="1.44,-1.439 30.24,-1.439 30.24,-30.24 1.44,-30.24 		"/>
		<g>
			<polygon fill="none" points="1.44,-30.241 30.24,-30.241 30.24,-1.439 1.44,-1.439 			"/>
			<g>
				<polygon fill="none" points="1.44,-30.241 30.24,-30.241 30.24,-1.439 1.44,-1.439 				"/>
				<g>
					<path fill="#FFFFFF" d="M30.24,0c0.795,0,1.439-0.645,1.439-1.438s-0.645-1.438-1.439-1.438c-0.796,0-1.44,0.645-1.44,1.438
						S29.444,0,30.24,0z"/>
					<path fill="#FFFFFF" d="M15.84,0c0.795,0,1.44-0.645,1.44-1.438s-0.646-1.438-1.44-1.438c-0.796,0-1.439,0.645-1.439,1.438
						S15.044,0,15.84,0z"/>
					<path fill="#FFFFFF" d="M30.24-14.398c0.795,0,1.439-0.646,1.439-1.44s-0.645-1.439-1.439-1.439
						c-0.796,0-1.44,0.645-1.44,1.439C28.8-15.045,29.444-14.398,30.24-14.398z"/>
					<path fill="#FFFFFF" d="M15.84-14.398c0.795,0,1.44-0.646,1.44-1.44s-0.646-1.439-1.44-1.439c-0.796,0-1.439,0.645-1.439,1.439
						C14.401-15.045,15.044-14.398,15.84-14.398z"/>
					<path fill="#FFFFFF" d="M8.64-7.2c0.795,0,1.44-0.645,1.44-1.438c0-0.797-0.646-1.44-1.44-1.44
						C7.844-10.08,7.2-9.436,7.2-8.639C7.2-7.844,7.844-7.2,8.64-7.2z"/>
					<path fill="#FFFFFF" d="M23.04-7.2c0.795,0,1.44-0.645,1.44-1.438c0-0.797-0.646-1.44-1.44-1.44c-0.796,0-1.44,0.645-1.44,1.44
						C21.6-7.844,22.244-7.2,23.04-7.2z"/>
					<path fill="#FFFFFF" d="M8.64-21.6c0.795,0,1.44-0.645,1.44-1.439c0-0.797-0.646-1.44-1.44-1.44
						c-0.796,0-1.439,0.646-1.439,1.44C7.2-22.244,7.844-21.6,8.64-21.6z"/>
					<path fill="#FFFFFF" d="M23.04-21.6c0.795,0,1.44-0.645,1.44-1.439c0-0.797-0.646-1.44-1.44-1.44
						c-0.796,0-1.44,0.646-1.44,1.44S22.244-21.6,23.04-21.6z"/>
				</g>
				<g>
					<path fill="#FFFFFF" d="M1.44,0c0.795,0,1.44-0.645,1.44-1.438s-0.645-1.44-1.44-1.44S0-2.234,0-1.439C0-0.644,0.645,0,1.44,0z
						"/>
					<path fill="#FFFFFF" d="M1.44-14.398c0.795,0,1.439-0.646,1.439-1.44s-0.645-1.439-1.439-1.439C0.645-17.279,0-16.635,0-15.84
						S0.645-14.398,1.44-14.398z"/>
				</g>
				<g>
					<path fill="#FFFFFF" d="M30.24-28.801c0.795,0,1.439-0.645,1.439-1.439c0-0.793-0.645-1.438-1.439-1.438
						c-0.796,0-1.44,0.646-1.44,1.438C28.8-29.446,29.444-28.801,30.24-28.801z"/>
					<path fill="#FFFFFF" d="M15.84-28.801c0.795,0,1.44-0.645,1.44-1.439c0-0.793-0.646-1.438-1.44-1.438
						c-0.796,0-1.439,0.646-1.439,1.438C14.401-29.446,15.044-28.801,15.84-28.801z"/>
				</g>
				<g>
					<path fill="#FFFFFF" d="M1.44-28.801c0.795,0,1.439-0.645,1.439-1.439s-0.644-1.44-1.439-1.44S0-31.035,0-30.241
						C0-29.445,0.645-28.801,1.44-28.801z"/>
				</g>
			</g>
		</g>
	</g>
</pattern>
<pattern  width="28.8" height="28.801" patternUnits="userSpaceOnUse" id="SVGID_4_" viewBox="1.44 -30.24 28.8 28.801" overflow="visible">
	<g>
		<polygon fill="none" points="1.44,-1.439 30.24,-1.439 30.24,-30.24 1.44,-30.24 		"/>
		<g>
			<polygon fill="none" points="1.44,-30.241 30.24,-30.241 30.24,-1.439 1.44,-1.439 			"/>
			<g>
				<polygon fill="none" points="1.44,-30.241 30.24,-30.241 30.24,-1.439 1.44,-1.439 				"/>
				<g>
					<path fill="#FFFFFF" d="M30.24,0c0.795,0,1.439-0.645,1.439-1.438s-0.645-1.438-1.439-1.438c-0.796,0-1.44,0.645-1.44,1.438
						S29.444,0,30.24,0z"/>
					<path fill="#FFFFFF" d="M15.84,0c0.795,0,1.44-0.645,1.44-1.438s-0.646-1.438-1.44-1.438c-0.796,0-1.439,0.645-1.439,1.438
						S15.044,0,15.84,0z"/>
					<path fill="#FFFFFF" d="M30.24-14.398c0.795,0,1.439-0.646,1.439-1.44s-0.645-1.439-1.439-1.439
						c-0.796,0-1.44,0.645-1.44,1.439C28.8-15.045,29.444-14.398,30.24-14.398z"/>
					<path fill="#FFFFFF" d="M15.84-14.398c0.795,0,1.44-0.646,1.44-1.44s-0.646-1.439-1.44-1.439c-0.796,0-1.439,0.645-1.439,1.439
						C14.401-15.045,15.044-14.398,15.84-14.398z"/>
					<path fill="#FFFFFF" d="M8.64-7.2c0.795,0,1.44-0.645,1.44-1.438c0-0.797-0.646-1.44-1.44-1.44
						C7.844-10.08,7.2-9.436,7.2-8.639C7.2-7.844,7.844-7.2,8.64-7.2z"/>
					<path fill="#FFFFFF" d="M23.04-7.2c0.795,0,1.44-0.645,1.44-1.438c0-0.797-0.646-1.44-1.44-1.44c-0.796,0-1.44,0.645-1.44,1.44
						C21.6-7.844,22.244-7.2,23.04-7.2z"/>
					<path fill="#FFFFFF" d="M8.64-21.6c0.795,0,1.44-0.645,1.44-1.439c0-0.797-0.646-1.44-1.44-1.44
						c-0.796,0-1.439,0.646-1.439,1.44C7.2-22.244,7.844-21.6,8.64-21.6z"/>
					<path fill="#FFFFFF" d="M23.04-21.6c0.795,0,1.44-0.645,1.44-1.439c0-0.797-0.646-1.44-1.44-1.44
						c-0.796,0-1.44,0.646-1.44,1.44S22.244-21.6,23.04-21.6z"/>
				</g>
				<g>
					<path fill="#FFFFFF" d="M1.44,0c0.795,0,1.44-0.645,1.44-1.438s-0.645-1.44-1.44-1.44S0-2.234,0-1.439C0-0.644,0.645,0,1.44,0z
						"/>
					<path fill="#FFFFFF" d="M1.44-14.398c0.795,0,1.439-0.646,1.439-1.44s-0.645-1.439-1.439-1.439C0.645-17.279,0-16.635,0-15.84
						S0.645-14.398,1.44-14.398z"/>
				</g>
				<g>
					<path fill="#FFFFFF" d="M30.24-28.801c0.795,0,1.439-0.645,1.439-1.439c0-0.793-0.645-1.438-1.439-1.438
						c-0.796,0-1.44,0.646-1.44,1.438C28.8-29.446,29.444-28.801,30.24-28.801z"/>
					<path fill="#FFFFFF" d="M15.84-28.801c0.795,0,1.44-0.645,1.44-1.439c0-0.793-0.646-1.438-1.44-1.438
						c-0.796,0-1.439,0.646-1.439,1.438C14.401-29.446,15.044-28.801,15.84-28.801z"/>
				</g>
				<g>
					<path fill="#FFFFFF" d="M1.44-28.801c0.795,0,1.439-0.645,1.439-1.439s-0.644-1.44-1.439-1.44S0-31.035,0-30.241
						C0-29.445,0.645-28.801,1.44-28.801z"/>
				</g>
			</g>
		</g>
	</g>
</pattern>
<g transform="translate(-357.30039,-256.61145)">
	<path fill="#FFCCAA" d="M498.28,303.014c21.718,0,27.147,48.864,0,48.864C471.133,351.878,476.563,303.014,498.28,303.014
		L498.28,303.014z"/>
	
		<radialGradient id="SVGID_1_" cx="1064.5533" cy="476.9005" r="19.2353" fx="1061.8054" fy="468.0462" gradientTransform="matrix(0.7057 0 0 1.2702 -244.8245 -278.314)" gradientUnits="userSpaceOnUse">
		<stop  offset="0" style="stop-color:#FFFFFF"/>
		<stop  offset="1" style="stop-color:#FFFFFF;stop-opacity:0"/>
	</radialGradient>
	<path opacity="0.7244" fill="url(#SVGID_1_)" enable-background="new    " d="M498.28,303.014c21.718,0,27.147,48.864,0,48.864
		C471.133,351.878,476.563,303.014,498.28,303.014L498.28,303.014z"/>
	
		<radialGradient id="SVGID_2_" cx="940.8365" cy="394.6544" r="19.2347" fx="939.8373" fy="397.2649" gradientTransform="matrix(1.5524 0 0 2.8226 -973.1364 -786.5048)" gradientUnits="userSpaceOnUse">
		<stop  offset="0" style="stop-color:#D45500"/>
		<stop  offset="0.4545" style="stop-color:#D45500;stop-opacity:0.3307"/>
		<stop  offset="1" style="stop-color:#D45500;stop-opacity:0"/>
	</radialGradient>
	<path opacity="0.7244" fill="url(#SVGID_2_)" enable-background="new    " d="M498.28,303.014c21.718,0,27.147,48.864,0,48.864
		C471.133,351.878,476.563,303.014,498.28,303.014L498.28,303.014z"/>
	
		<radialGradient id="SVGID_5_" cx="959.5338" cy="447.795" r="19.2348" gradientTransform="matrix(1.268 0.0114 -0.0149 1.6617 -709.7963 -428.7539)" gradientUnits="userSpaceOnUse">
		<stop  offset="0" style="stop-color:#FFFFFF;stop-opacity:0"/>
		<stop  offset="0.7" style="stop-color:#FFFFFF;stop-opacity:0"/>
		<stop  offset="1" style="stop-color:#FFFFFF"/>
	</radialGradient>
	<path opacity="0.3517" fill="url(#SVGID_5_)" enable-background="new    " d="M498.28,303.014c21.718,0,27.147,48.864,0,48.864
		C471.133,351.878,476.563,303.014,498.28,303.014L498.28,303.014z"/>
	
		<radialGradient id="SVGID_6_" cx="942.5465" cy="445.4581" r="19.2345" gradientTransform="matrix(1.8347 0 0 1.6936 -1230.6234 -428.3402)" gradientUnits="userSpaceOnUse">
		<stop  offset="0" style="stop-color:#000000;stop-opacity:0"/>
		<stop  offset="0.7" style="stop-color:#000000;stop-opacity:0"/>
		<stop  offset="1" style="stop-color:#FFFFFF"/>
	</radialGradient>
	<path opacity="0.4724" fill="url(#SVGID_6_)" enable-background="new    " d="M498.28,303.014c21.718,0,27.147,48.864,0,48.864
		C471.133,351.878,476.563,303.014,498.28,303.014L498.28,303.014z"/>
</g>
<g>
	<path fill="#5D9C4D" d="M190.463,43.474c0,0-7.217,0.574-12.694-3.417c-5.477-3.991-7.141-11.036-7.141-11.036
		s7.216-0.574,12.691,3.417C188.798,36.43,190.463,43.474,190.463,43.474z"/>
	<path opacity="0.3" fill="#5D9C4D" d="M180.405,41.171c-0.313,0-0.623-0.017-0.931-0.041c5.158,2.806,10.988,2.344,10.988,2.344
		s-0.583-2.465-2.193-5.306C186.151,40.03,183.393,41.171,180.405,41.171z"/>
	<path fill="#FF4E4F" d="M205.67,44.595c-5.308-1.494-10.746,0.108-15.207,3.868c-4.462-3.76-9.899-5.362-15.207-3.868
		c-10.369,2.92-16.288,12.154-13.222,25.977c3.065,13.823,14.934,23.521,17.095,24.081c2.16,0.56,10.061-2.504,11.334-3.312
		c1.273,0.809,8.871,4.054,11.334,3.312s14.029-10.258,17.096-24.081C221.959,56.749,216.039,47.515,205.67,44.595z"/>
	<path opacity="0.3" fill="#FF4E4F" d="M217.188,74.494c-2.057,3.091-4.315,6.04-6.252,9.212
		c-3.401,5.569-10.688,7.655-16.411,4.303c-1.553-0.909-2.84-2.157-3.813-3.604c-3.367,4.09-7.553,7.492-12.289,9.931
		c0.291,0.16,0.533,0.271,0.707,0.316c2.16,0.56,10.061-2.504,11.334-3.312c1.273,0.809,8.871,4.054,11.334,3.312
		c2.341-0.703,12.893-9.333,16.569-22.048C217.987,73.244,217.598,73.877,217.188,74.494z"/>
</g>
<g>
	<g id="ëÃ_1_">
		<g>
			<g>
				<polygon fill="#AA9A88" points="80.24,91.15 78.604,91.15 77.494,51.938 81.351,51.938 				"/>
				<path fill="#AF6482" d="M80.457,91.15c-0.044,1.326-0.108,2.085-2.205,2.743c-2.035,0.638-5.405,0.975-5.57,0.104
					c-0.165-0.871,3.488-1.889,5.47-2.927c0.142-0.012,0.021-3.318,0.021-3.318l2.283-0.011
					C80.457,87.742,80.475,90.573,80.457,91.15z"/>
				<path fill="#754D29" d="M80.45,91.947c0.118,1.715-0.029,2.054-1.027,2.183c-2.116,0.271-6.865,1.19-6.995,0.314
					c-0.209-1.414,2.457-2.187,3.538-2.494c0.008,0.597,1.256,0.567,1.944,0.52C78.935,92.397,79.93,92.282,80.45,91.947z"/>
			</g>
			<g>
				<polygon fill="#AA9A88" points="82.972,91.15 84.608,91.15 85.718,51.938 81.861,51.938 				"/>
				<path fill="#AF6482" d="M82.755,91.15c0.044,1.326,0.108,2.085,2.204,2.743c2.036,0.638,5.405,0.975,5.57,0.104
					c0.165-0.871-3.488-1.889-5.47-2.927c-0.142-0.012-0.021-3.318-0.021-3.318l-2.282-0.011
					C82.755,87.742,82.737,90.573,82.755,91.15z"/>
				<path fill="#754D29" d="M82.763,91.947c-0.119,1.715,0.028,2.054,1.027,2.183c2.115,0.271,6.865,1.19,6.994,0.314
					c0.21-1.414-2.457-2.187-3.537-2.494c-0.008,0.597-1.257,0.567-1.944,0.52C84.278,92.397,83.282,92.282,82.763,91.947z"/>
			</g>
		</g>
		<g>
			<g>
				<g>
					<g>
						<polygon fill="#FFD39F" points="72.795,53.881 70.848,53.382 72.02,45.696 74.189,46.608 						"/>
					</g>
					<path fill="#FFD39F" d="M71.948,60.313c-0.194-0.671-0.076-2.636-0.076-2.636s-1.016,3.338-1.422,3.681
						c-0.102,0.086-0.337,0.1-0.488-0.019c0.252-0.768,0.473-1.697,0.473-1.697s-0.832,1.628-1.04,1.741
						c-0.223,0.121-0.447-0.197-0.447-0.197l0.216-0.527c0,0-0.094,0.229-0.265,0.224c-0.114-0.003-0.191-0.041-0.228-0.158
						c-0.031-0.102,0.82-1.965,0.82-1.965s-0.33,0.27-0.392,0.05l1.747-5.428l1.947,0.499l-0.283,7.013
						C72.512,60.893,72.142,60.983,71.948,60.313z"/>
					<g opacity="0.4">
						<polygon points="70.435,59.643 71.049,57.784 70.882,57.797 69.601,61.133 						"/>
						<polygon points="69.165,60.659 70.45,57.75 70.292,57.695 						"/>
						<polygon points="69.493,58.76 70.126,56.86 70.005,56.741 						"/>
					</g>
				</g>
				<path fill="#7977B7" d="M73.438,55.133l-3.352-0.736c0,0,3.474-22.796,4.184-26.062c1.033-4.75,3.342-3.639,3.342-3.639
					l-0.1,4.512L73.438,55.133z"/>
			</g>
			<g>
				<g>
					<g>
						<polygon fill="#FFD39F" points="90.23,53.881 92.178,53.382 91.005,45.696 88.835,46.608 						"/>
					</g>
					<path fill="#FFD39F" d="M91.077,60.313c0.194-0.671,0.075-2.636,0.075-2.636s1.016,3.338,1.422,3.681
						c0.101,0.086,0.336,0.1,0.488-0.019c-0.251-0.768-0.473-1.697-0.473-1.697s0.833,1.628,1.04,1.741
						c0.223,0.121,0.447-0.197,0.447-0.197l-0.216-0.527c0,0,0.094,0.229,0.265,0.224c0.114-0.003,0.192-0.041,0.228-0.158
						c0.031-0.102-0.82-1.965-0.82-1.965s0.33,0.27,0.392,0.05l-1.747-5.428l-1.947,0.499l0.283,7.013
						C90.513,60.893,90.883,60.983,91.077,60.313z"/>
					<g opacity="0.4">
						<polygon points="92.59,59.643 91.976,57.784 92.143,57.797 93.424,61.133 						"/>
						<polygon points="93.86,60.659 92.575,57.75 92.732,57.695 						"/>
						<polygon points="93.532,58.76 92.898,56.86 93.02,56.741 						"/>
					</g>
				</g>
				<path fill="#7977B7" d="M89.587,55.133l3.352-0.736c0,0-3.475-22.796-4.185-26.062c-1.034-4.75-3.342-3.639-3.342-3.639
					l0.1,4.512L89.587,55.133z"/>
			</g>
		</g>
		<g>
			<polygon fill="#7977B7" points="87.716,78.051 75.375,78.051 75.375,35.742 77.613,24.696 85.307,24.696 87.716,35.742 			"/>
			<g>
				<circle fill="#5C5C9B" cx="81.559" cy="26.911" r="0.392"/>
				<circle fill="#5C5C9B" cx="81.559" cy="29.165" r="0.392"/>
			</g>
			<g>
				<path fill="#5C5C9B" d="M76.809,57.231H75.62c-0.348,0-0.629-0.281-0.629-0.63v-6.053h2.449v6.053
					C77.438,56.95,77.156,57.231,76.809,57.231z"/>
				<path fill="#5C5C9B" d="M87.409,57.231H86.22c-0.348,0-0.63-0.281-0.63-0.63v-6.053h2.449v6.053
					C88.039,56.95,87.757,57.231,87.409,57.231z"/>
			</g>
		</g>
		<g>
			<g>
				<g>
					<path fill="#D1A7BA" d="M76.429,24.205c1.771,4.274,6.284,6.743,6.284,6.743s-4.973,6.697-9.918,4.907
						C73.123,31.789,74.186,25.36,76.429,24.205z"/>
					<pattern  id="SVGID_7_" xlink:href="#SVGID_3_" patternTransform="matrix(0.105 0 0 0.105 -9523.957 -5428.6831)">
					</pattern>
					<path opacity="0.3" fill="url(#SVGID_7_)" enable-background="new    " d="M76.429,24.205c1.771,4.274,6.284,6.743,6.284,6.743
						s-4.973,6.697-9.918,4.907C73.123,31.789,74.186,25.36,76.429,24.205z"/>
				</g>
				<g>
					<g>
						<g>
							<path fill="none" stroke="#AF6482" stroke-width="0.3149" stroke-linecap="round" stroke-linejoin="round" d="M82.713,30.948
								c0,0-0.001,0.001-0.003,0.004"/>
							
								<path fill="none" stroke="#AF6482" stroke-width="0.3149" stroke-linecap="round" stroke-linejoin="round" stroke-dasharray="0.0106,0.3165" d="
								M82.515,31.201c-0.959,1.189-5.253,6.116-9.567,4.707"/>
							
								<line fill="none" stroke="#AF6482" stroke-width="0.3149" stroke-linecap="round" stroke-linejoin="round" x1="72.798" y1="35.856" x2="72.795" y2="35.855"/>
						</g>
					</g>
				</g>
			</g>
			<g>
				<g>
					<path fill="#D1A7BA" d="M86.583,24.205c-1.771,4.274-6.284,6.743-6.284,6.743s4.972,6.697,9.918,4.907
						C89.889,31.789,88.826,25.36,86.583,24.205z"/>
					<pattern  id="SVGID_8_" xlink:href="#SVGID_4_" patternTransform="matrix(0.105 0 0 0.105 -9504.1553 -5428.6831)">
					</pattern>
					<path opacity="0.3" fill="url(#SVGID_8_)" enable-background="new    " d="M86.583,24.205
						c-1.771,4.274-6.284,6.743-6.284,6.743s4.972,6.697,9.918,4.907C89.889,31.789,88.826,25.36,86.583,24.205z"/>
				</g>
				<g>
					<g>
						<g>
							<path fill="none" stroke="#AF6482" stroke-width="0.3149" stroke-linecap="round" stroke-linejoin="round" d="M80.299,30.948
								c0,0,0.001,0.001,0.003,0.004"/>
							
								<path fill="none" stroke="#AF6482" stroke-width="0.3149" stroke-linecap="round" stroke-linejoin="round" stroke-dasharray="0.0106,0.3165" d="
								M80.497,31.201c0.959,1.189,5.253,6.116,9.566,4.707"/>
							
								<line fill="none" stroke="#AF6482" stroke-width="0.3149" stroke-linecap="round" stroke-linejoin="round" x1="90.213" y1="35.856" x2="90.217" y2="35.855"/>
						</g>
					</g>
				</g>
			</g>
			<circle fill="#AF6482" cx="81.507" cy="31.115" r="0.595"/>
		</g>
	</g>
	<g id="äÁ_1_">
		<g>
			<g>
				<path fill="#FFD39F" d="M90.547,16.491c-0.012,4.688-3.139,9.497-9.014,9.497c-6.05,0-9.019-4.826-9.007-9.513
					c0.013-4.688,4.019-8.408,8.8-8.408C86.108,8.067,90.56,11.803,90.547,16.491z"/>
				<g>
					<g>
						<path fill="#CCCCCC" d="M90.57,15.101c-2.215,0.946-3.378-2.837-3.378-4.351c-2.887,1.47-2.662-2.535-4.214-2.536
							s-3.389,3.658-7.716,2.871c-0.745,2.045-1.802,4.67-3.178,4.11c-0.815-0.332-1.073-3.712,0.659-3.428
							c-1.299-1.784,0.265-5.856,3.568-4.723c1.604-4.093,7.157-3.186,8.025-1.522c2.856-1.347,6.017,1.837,5.656,3.923
							C94.1,11.62,91.501,14.703,90.57,15.101z"/>
					</g>
				</g>
				<g>
					<path fill="#FFD39F" d="M74.271,17.25c0,1.179-0.786,2.249-1.756,2.249s-2.087-0.808-2.087-2.249
						c0-1.729,1.275-2.345,2.567-1.941C73.908,15.593,74.271,16.071,74.271,17.25z"/>
					<path fill="#FFD39F" d="M88.648,17.156c0,1.178,0.786,2.249,1.755,2.249c0.97,0,2.087-0.807,2.087-2.249
						c0-1.73-1.275-2.345-2.567-1.941C89.012,15.5,88.648,15.978,88.648,17.156z"/>
				</g>
			</g>
		</g>
		<g>
			<g>
				<path d="M78.987,15.756c0,0.108-0.004,0.212-0.034,0.308c-0.032,0.103-0.077,0.2-0.137,0.28
					c-0.064,0.085-0.157,0.137-0.244,0.186c-0.09,0.05-0.183,0.086-0.289,0.086s-0.21-0.014-0.301-0.065
					c-0.087-0.049-0.161-0.127-0.225-0.213c-0.06-0.08-0.115-0.17-0.147-0.273c-0.03-0.096-0.027-0.201-0.027-0.309
					s0.013-0.208,0.043-0.303c0.032-0.103,0.08-0.192,0.14-0.272c0.064-0.085,0.133-0.162,0.221-0.211
					c0.09-0.05,0.19-0.097,0.296-0.097s0.198,0.06,0.289,0.111c0.088,0.049,0.166,0.11,0.229,0.196
					c0.06,0.08,0.129,0.163,0.161,0.266C78.992,15.542,78.987,15.649,78.987,15.756z"/>
			</g>
			<g>
				<path d="M85.437,15.756c0,0.108-0.029,0.212-0.059,0.307c-0.032,0.103-0.081,0.196-0.141,0.276
					c-0.064,0.086-0.144,0.155-0.231,0.204c-0.09,0.051-0.19,0.074-0.296,0.074c-0.106,0-0.205-0.027-0.294-0.078
					c-0.088-0.049-0.156-0.124-0.221-0.209c-0.059-0.08-0.125-0.162-0.156-0.265c-0.03-0.095-0.047-0.2-0.047-0.308
					s0.01-0.215,0.039-0.31c0.032-0.103,0.084-0.199,0.144-0.278c0.065-0.086,0.152-0.148,0.239-0.197
					c0.09-0.05,0.19-0.088,0.296-0.088c0.106,0,0.214,0.023,0.305,0.073c0.088,0.049,0.153,0.136,0.218,0.222
					c0.06,0.08,0.107,0.171,0.139,0.274C85.402,15.547,85.437,15.649,85.437,15.756z"/>
			</g>
			
				<polyline fill="none" stroke="#000000" stroke-width="0.435" stroke-linecap="round" stroke-linejoin="round" stroke-miterlimit="10" points="
				80.818,17.641 81.493,16.696 82.23,17.471 			"/>
			<g>
				<g>
					<path fill="#BA7F38" d="M79.982,18.624c0,0-0.044,0.058-0.125,0.155c-0.038,0.05-0.083,0.11-0.135,0.179
						c-0.047,0.072-0.104,0.15-0.159,0.24c-0.028,0.044-0.057,0.09-0.083,0.141c-0.027,0.05-0.059,0.098-0.084,0.152
						c-0.056,0.105-0.108,0.22-0.16,0.338c-0.051,0.119-0.1,0.244-0.144,0.373c-0.045,0.128-0.085,0.261-0.123,0.395
						s-0.069,0.269-0.098,0.403c-0.028,0.134-0.055,0.267-0.076,0.396c-0.021,0.13-0.042,0.255-0.058,0.375
						c-0.015,0.121-0.028,0.235-0.041,0.34c-0.022,0.211-0.037,0.39-0.047,0.515c-0.009,0.126-0.014,0.198-0.014,0.198
						s-0.022-0.069-0.049-0.194c-0.025-0.124-0.056-0.304-0.071-0.521c-0.008-0.109-0.015-0.228-0.013-0.353
						c0-0.125,0.003-0.258,0.015-0.395c0.011-0.137,0.027-0.278,0.053-0.42c0.023-0.143,0.057-0.286,0.095-0.429
						c0.041-0.142,0.084-0.283,0.14-0.417c0.025-0.068,0.055-0.134,0.085-0.199c0.028-0.065,0.062-0.127,0.095-0.189
						c0.064-0.123,0.138-0.236,0.211-0.339c0.073-0.104,0.147-0.198,0.224-0.279c0.071-0.084,0.148-0.151,0.213-0.211
						c0.068-0.059,0.131-0.106,0.181-0.145C79.92,18.662,79.982,18.624,79.982,18.624z"/>
				</g>
				<g>
					<path fill="#BA7F38" d="M82.977,18.624c0,0,0.065,0.033,0.176,0.096c0.052,0.037,0.121,0.078,0.19,0.136
						c0.035,0.029,0.071,0.06,0.11,0.092c0.039,0.033,0.074,0.073,0.114,0.112c0.078,0.081,0.158,0.172,0.231,0.278
						c0.076,0.104,0.149,0.219,0.214,0.343c0.067,0.124,0.125,0.256,0.177,0.394c0.051,0.137,0.095,0.28,0.132,0.424
						c0.035,0.144,0.065,0.289,0.085,0.433c0.022,0.144,0.035,0.286,0.043,0.424c0.014,0.275,0.007,0.532-0.015,0.75
						c-0.02,0.219-0.053,0.399-0.081,0.523c-0.028,0.125-0.051,0.194-0.051,0.194s-0.004-0.072-0.012-0.199
						c-0.007-0.126-0.021-0.306-0.038-0.519c-0.011-0.106-0.021-0.221-0.034-0.343c-0.013-0.121-0.032-0.248-0.049-0.379
						c-0.02-0.131-0.041-0.265-0.066-0.401c-0.026-0.136-0.055-0.272-0.09-0.407c-0.032-0.136-0.072-0.269-0.113-0.399
						c-0.045-0.129-0.09-0.256-0.141-0.375c-0.025-0.06-0.051-0.119-0.079-0.174c-0.026-0.057-0.052-0.112-0.083-0.164
						c-0.028-0.053-0.056-0.104-0.086-0.151c-0.029-0.048-0.056-0.096-0.087-0.138c-0.058-0.087-0.116-0.165-0.169-0.232
						c-0.054-0.067-0.104-0.123-0.144-0.171C83.026,18.679,82.977,18.624,82.977,18.624z"/>
				</g>
				
					<path fill="none" stroke="#000000" stroke-width="0.435" stroke-linecap="round" stroke-linejoin="round" stroke-miterlimit="10" d="
					M80.596,21.452c0,0,0.28,0.232,0.933,0.232c0.641,0,0.946-0.285,0.946-0.285"/>
			</g>
		</g>
	</g>
</g>
<g id="Ç_xAE_ïÍÇ_x2265_ÇÒ_1_">
	<g>
		<g>
			<path fill="#966024" d="M106.217,23.557c-0.15,1.495-1.808,3.21-0.731,4.813c0.713,1.061-0.787,4.072-2.682,5.071
				c0.428-1.642-2.681-1.104-2.825-2.24c-0.315-2.5,1.329-2.455,1.362-3.398c0.047-1.33-0.697-1.778-1.106-3.126
				c-0.587-1.938,1.573-4.637,3.562-4.26C104.908,20.628,106.329,22.432,106.217,23.557z"/>
			<g opacity="0.3">
				
					<path fill="none" stroke="#000000" stroke-width="0.2141" stroke-linecap="round" stroke-linejoin="round" stroke-miterlimit="10" d="
					M103.369,21.242c-1.862,0.959-1.588,4.605-1.065,5.67"/>
				
					<path fill="none" stroke="#000000" stroke-width="0.2141" stroke-linecap="round" stroke-linejoin="round" stroke-miterlimit="10" d="
					M103.41,27.589c0.428,1.838-1.903,2.641-0.578,4.496"/>
			</g>
		</g>
		<polygon fill="#FFD39F" points="110.864,28.702 107.306,28.702 107.871,21.78 110.299,21.78 		"/>
		<g>
			<g>
				<g>
					<path fill="#FFD39F" d="M117.196,14.167c-0.011,4.23-2.833,8.57-8.135,8.57c-5.46,0-8.139-4.355-8.128-8.585
						c0.011-4.23,3.837-8.47,8.152-8.47S117.208,9.938,117.196,14.167z"/>
					<g>
						<g>
							<path fill="#966024" d="M117.497,13.316c0,0-3.435-1.999-4.024-6.227c-3.301,4.319-12.887,6.066-12.887,6.066
								s0.347-8.829,8.5-8.829C117.29,4.327,117.497,13.316,117.497,13.316z"/>
							<g opacity="0.3">
								
									<path fill="none" stroke="#000000" stroke-width="0.2141" stroke-linecap="round" stroke-linejoin="round" stroke-miterlimit="10" d="
									M114.597,7.464c0.475,1.5,1.413,3.413,2.6,4.737"/>
								
									<path fill="none" stroke="#000000" stroke-width="0.2141" stroke-linecap="round" stroke-linejoin="round" stroke-miterlimit="10" d="
									M109.298,6.851c-1.178,1.665-5.678,2.987-7.382,2.987"/>
								
									<path fill="none" stroke="#000000" stroke-width="0.2141" stroke-linecap="round" stroke-linejoin="round" stroke-miterlimit="10" d="
									M112.447,5.683c-1.811,2.833-7.271,5.635-10.461,5.635"/>
							</g>
						</g>
					</g>
					<g>
						<path fill="#FFD39F" d="M102.508,14.853c0,1.063-0.709,2.029-1.584,2.029s-1.883-0.728-1.883-2.029
							c0-1.561,1.15-2.116,2.316-1.752C102.181,13.358,102.508,13.789,102.508,14.853z"/>
						<path fill="#FFD39F" d="M115.482,14.768c0,1.063,0.709,2.029,1.584,2.029c0.875,0,1.884-0.729,1.884-2.029
							c0-1.562-1.151-2.116-2.316-1.752C115.81,13.273,115.482,13.705,115.482,14.768z"/>
					</g>
				</g>
			</g>
			<g>
				<g>
					<path d="M106.765,13.505c0,0.098-0.005,0.191-0.033,0.277c-0.028,0.093-0.068,0.181-0.122,0.253
						c-0.058,0.078-0.129,0.147-0.208,0.191c-0.082,0.045-0.178,0.046-0.274,0.046s-0.188-0.008-0.27-0.054
						c-0.08-0.044-0.15-0.11-0.208-0.188c-0.054-0.072-0.1-0.156-0.129-0.249c-0.026-0.086-0.051-0.18-0.051-0.278
						c0-0.097,0.04-0.187,0.067-0.273c0.029-0.093,0.058-0.183,0.112-0.255c0.058-0.077,0.126-0.147,0.205-0.192
						c0.082-0.045,0.178-0.071,0.273-0.071c0.096,0,0.187,0.035,0.269,0.081c0.079,0.044,0.152,0.106,0.21,0.184
						c0.054,0.072,0.107,0.154,0.136,0.247C106.77,13.311,106.765,13.408,106.765,13.505z"/>
				</g>
				<g>
					<path d="M112.577,13.505c0,0.098-0.017,0.191-0.043,0.278c-0.029,0.093-0.073,0.178-0.127,0.25
						c-0.058,0.078-0.129,0.142-0.208,0.186c-0.082,0.045-0.174,0.057-0.269,0.057c-0.096,0-0.188-0.011-0.27-0.057
						c-0.079-0.044-0.156-0.104-0.213-0.182c-0.054-0.072-0.078-0.165-0.106-0.258c-0.027-0.086-0.048-0.175-0.048-0.272
						c0-0.097,0.021-0.187,0.048-0.272c0.029-0.093,0.066-0.176,0.12-0.248c0.059-0.078,0.116-0.158,0.195-0.202
						c0.081-0.045,0.178-0.054,0.274-0.054s0.18,0.033,0.261,0.079c0.08,0.044,0.153,0.098,0.211,0.175
						c0.054,0.072,0.104,0.152,0.133,0.245C112.561,13.313,112.577,13.408,112.577,13.505z"/>
				</g>
				
					<polyline fill="none" stroke="#000000" stroke-width="0.3925" stroke-linecap="round" stroke-linejoin="round" stroke-miterlimit="10" points="
					108.417,15.205 109.025,14.353 109.69,15.052 				"/>
				<g>
					
						<line fill="none" stroke="#000000" stroke-width="0.3925" stroke-linecap="round" stroke-linejoin="round" stroke-miterlimit="10" x1="106.484" y1="18.075" x2="105.949" y2="18.583"/>
					
						<line fill="none" stroke="#000000" stroke-width="0.3925" stroke-linecap="round" stroke-linejoin="round" stroke-miterlimit="10" x1="111.471" y1="17.956" x2="111.929" y2="18.389"/>
					
						<path fill="none" stroke="#000000" stroke-width="0.3925" stroke-linecap="round" stroke-linejoin="round" stroke-miterlimit="10" d="
						M106.336,18.389c0,0,1.344,1.39,2.6,1.39c1.524,0,2.655-1.584,2.655-1.584"/>
					
						<path fill="none" stroke="#000000" stroke-width="0.3925" stroke-linecap="round" stroke-linejoin="round" stroke-miterlimit="10" d="
						M108.417,20.586c0,0,0.186,0.239,0.546,0.209c0.361-0.03,0.57-0.209,0.57-0.209"/>
				</g>
			</g>
		</g>
	</g>
	<g>
		<g>
			<polygon fill="#FFD39F" points="107.895,91.629 106.417,91.629 105.416,51.961 108.896,51.961 			"/>
			<path fill="#FFD39F" d="M107.895,91.629c-0.039,1.197-0.271,2.181-2.162,2.774c-1.836,0.576-4.505,1.306-4.654,0.521
				c-0.149-0.786,3.583-3.024,5.372-3.961c0.354-0.03,1.45-0.142,1.45-0.142S107.912,91.108,107.895,91.629z"/>
			<path fill="#D66787" d="M107.889,91.79c-0.079,1.472-0.318,2.037-2.209,2.632c-1.836,0.576-4.341,1.256-4.654,0.52
				c-0.224-0.526,0.954-1.22,1.764-1.771c0.007,0.539,1.405,0.562,1.995,0.367c0.693-0.231,1.377-0.431,1.886-0.74
				C107.181,92.488,107.567,92.245,107.889,91.79z"/>
		</g>
		<g>
			<polygon fill="#FFD39F" points="110.096,91.629 111.573,91.629 112.574,51.961 109.094,51.961 			"/>
			<path fill="#FFD39F" d="M110.096,91.629c0.039,1.197,0.271,2.181,2.162,2.774c1.836,0.576,4.505,1.306,4.654,0.521
				c0.149-0.786-3.583-3.024-5.372-3.961c-0.354-0.03-1.45-0.142-1.45-0.142S110.078,91.108,110.096,91.629z"/>
			<path fill="#D66787" d="M110.102,91.79c0.079,1.472,0.317,2.037,2.209,2.632c1.836,0.576,4.341,1.256,4.654,0.52
				c0.224-0.526-0.954-1.22-1.764-1.771c-0.006,0.539-1.405,0.562-1.995,0.367c-0.694-0.231-1.377-0.431-1.887-0.74
				C110.81,92.488,110.423,92.245,110.102,91.79z"/>
		</g>
		<polygon fill="#5D5D5D" points="112.188,46.87 105.801,46.87 105.416,51.961 112.574,51.961 		"/>
	</g>
	<polygon fill="#FF8212" points="117.61,81.424 112.259,45.799 105.729,45.799 100.916,81.424 	"/>
	<polygon fill="#FFD39F" points="112.574,35.243 105.486,35.243 105.486,25.697 109.048,25.162 112.574,25.697 	"/>
	<g>
		<polygon fill="#FF9CB4" points="114.037,50.085 103.846,50.085 105.416,45.799 112.574,45.799 		"/>
		<path fill="#FF9CB4" d="M112.574,45.799h-7.158l-0.284-14.457l0.392-5.84c0,0,1.787,1.409,3.439,1.409
			c1.652,0,3.503-1.409,3.503-1.409l0.392,5.84L112.574,45.799z"/>
		<g>
			<g>
				<g>
					<polygon fill="#FFD39F" points="100.743,54.701 99.126,54.818 100.567,45.146 102.007,48.412 					"/>
				</g>
				<path fill="#FFD39F" d="M100.031,61.143c-0.175-0.605-0.161-3.035-0.161-3.035s-1.158,3.535-1.525,3.845
					c-0.092,0.077-0.23,0.108-0.366,0.003c0.227-0.693,0.594-2.074,0.594-2.074s-0.751,1.47-0.938,1.571
					c-0.201,0.109-0.403-0.179-0.403-0.179l0.195-0.475c0,0-0.084,0.206-0.239,0.201c-0.103-0.003-0.173-0.037-0.206-0.143
					c-0.028-0.092,0.74-1.773,0.74-1.773s-0.297,0.244-0.354,0.045l1.758-4.31l1.616-0.117l-0.345,6.936
					C100.397,61.637,100.206,61.747,100.031,61.143z"/>
				<g opacity="0.4">
					<polygon points="98.573,59.881 99.126,58.204 98.976,58.215 97.82,61.226 					"/>
					<polygon points="97.426,60.799 98.586,58.173 98.444,58.123 					"/>
					<polygon points="97.722,59.084 98.294,57.37 98.184,57.263 					"/>
				</g>
			</g>
			<path fill="#FF9CB4" d="M101.718,50.597l-2.16-0.511c0,0,3.241-18.837,4.193-21.699c0.96-2.883,1.772-2.883,1.772-2.883
				l-0.392,5.84L101.718,50.597z"/>
		</g>
		<g>
			<g>
				<g>
					<polygon fill="#FFD39F" points="117.178,54.701 118.794,54.818 117.354,45.146 115.913,48.412 					"/>
				</g>
				<path fill="#FFD39F" d="M117.889,61.143c0.175-0.605,0.161-3.035,0.161-3.035s1.158,3.535,1.525,3.845
					c0.091,0.077,0.229,0.108,0.366,0.003c-0.227-0.693-0.594-2.074-0.594-2.074s0.751,1.47,0.938,1.571
					c0.201,0.109,0.403-0.179,0.403-0.179l-0.195-0.475c0,0,0.084,0.206,0.239,0.201c0.103-0.003,0.173-0.037,0.205-0.143
					c0.028-0.092-0.741-1.773-0.741-1.773s0.298,0.244,0.354,0.045l-1.758-4.31l-1.616-0.117l0.345,6.936
					C117.523,61.637,117.714,61.747,117.889,61.143z"/>
				<g opacity="0.4">
					<polygon points="119.348,59.881 118.794,58.204 118.945,58.215 120.101,61.226 					"/>
					<polygon points="120.494,60.799 119.334,58.173 119.477,58.123 					"/>
					<polygon points="120.198,59.084 119.626,57.37 119.736,57.263 					"/>
				</g>
			</g>
			<path fill="#FF9CB4" d="M116.203,50.597l2.16-0.511c0,0-3.241-18.837-4.194-21.699c-0.959-2.883-1.772-2.883-1.772-2.883
				l0.392,5.84L116.203,50.597z"/>
		</g>
	</g>
</g>
</svg>
