<svg version="1.1" id="Layer_1" xmlns="http://www.w3.org/2000/svg" xmlns:xlink="http://www.w3.org/1999/xlink" viewBox="0 0 300 100" enable-background="new 0 0 300 100" xml:space="preserve">
<path fill="#B6C773" d="M270.826,88.646c-0.74-1.744-1.964-2.774-3.694-3.777c-1.715-0.996-3.728-1.658-5.679-2.15
	c-3.011-0.76-5.977-1.224-9.073-1.586c-4.493-0.524-9.062-0.614-13.587-0.615c-4.86-0.003-9.72,0.08-14.577,0.305
	c-6.128,0.279-12.233,0.887-18.338,1.465c-3.042,0.288-6.086,0.567-9.133,0.803c-1.464,0.111-2.929,0.21-4.393,0.295
	c-0.598,0.035-1.194,0.063-1.792,0.094c-0.311,0.011-0.622,0.021-0.931,0.027c-2.343,0.068-4.685,0.069-7.025,0.013
	c-0.114-0.004-0.228-0.008-0.343-0.013c-0.32-0.017-0.643-0.032-0.966-0.047c-1.949-0.088-3.896-0.165-5.843-0.239
	c-4.813-0.185-9.631-0.302-14.45-0.366c-9.632-0.134-19.269-0.045-28.899,0.17c-1.508,0.034-3.024,0.107-4.505,0.36
	c-2.438,0.052-4.808,0.258-7.212,0.668c-1.338,0.229-2.655,0.549-3.996,0.764c-1.011,0.163-5.89,1.241-4.184,3.129
	c0.941,1.042,2.848,1.418,4.184,1.656c1.847,0.33,3.706,0.401,5.572,0.346c0.348,0.018,0.729,0.038,0.978,0.062
	c0.04,0.007,0.079,0.013,0.118,0.017c1.469,1.219,3.469,2,5.26,2.506c4.028,1.136,8.295,1.464,12.491,1.472
	c2.755,0.006,5.483-0.187,8.203-0.471c5.582,0.598,11.183,1.019,16.819,1.175c6.714,0.184,13.481-0.094,20.146-0.853
	c0.042-0.005,0.082-0.011,0.123-0.016c3.336,0.599,6.789,0.518,10.152,0.335c2.197-0.119,4.379-0.43,6.574-0.564
	c0.268-0.017,0.746-0.041,1.133-0.062c0.316-0.003,0.637,0.001,0.953,0.005c0.119,0.002,0.239,0.005,0.358,0.007
	c0.687,0.042,1.375,0.097,2.059,0.155c1.513,0.131,3.023,0.275,4.529,0.415c0.351,0.175,0.7,0.35,1.051,0.521
	c2.427,1.188,4.928,2.329,7.543,3.048c5.032,1.381,10.119,1.642,15.286,0.887c1.37-0.2,2.734-0.529,4.053-0.947
	c0.59-0.186,1.247-0.431,1.869-0.746c2.941,0.022,5.904-0.094,8.82-0.368c3.228-0.306,6.451-0.86,9.51-1.926
	c1.063-0.104,2.124-0.249,3.18-0.441c2.518-0.458,4.86-1.151,6.86-2.657C270.915,90.832,271.231,89.608,270.826,88.646z"/>
<g>
	<g>
		<g>
			<g>
				<path fill="#A02116" d="M110.363,72.149c-4.053,1.082-14.341,1.041-18.924-0.418l0,0c0.435,1.349,5.337,18.095,5.881,18.162
					c0.544,0.066,2.657-7.806,2.657-7.806s4.15,9.166,4.901,9.031C105.624,90.985,111.139,75.533,110.363,72.149L110.363,72.149z"/>
				<path fill="#211B16" d="M104.859,91.258L104.859,91.258c-0.778,0-3.732-6.312-4.852-8.767c-0.806,2.979-2.129,7.541-2.681,7.541
					c-0.364-0.043-1.231-2.58-5.235-15.909c-0.361-1.203-0.616-2.082-0.701-2.346c-0.016-0.049-0.083-0.104-0.047-0.14
					c0.036-0.038,0.088-0.05,0.137-0.033c2.288,0.726,6.253,1.16,10.607,1.16c3.406,0,6.487-0.278,8.242-0.747
					c0.036-0.008,0.073-0.005,0.104,0.015c0.032,0.021-0.026,0.062-0.02,0.1c0.731,3.191-3.921,16.881-5.223,18.855
					c-0.115,0.174-0.201,0.25-0.291,0.271C104.891,91.256,104.866,91.258,104.859,91.258z M100.099,82.034
					c1.953,4.311,4.259,8.824,4.756,8.951c0.303-0.194,1.729-3.521,3.254-8.324c1.619-5.091,2.484-8.854,2.238-10.361
					c-1.796,0.451-4.92,0.737-8.26,0.737c-4.229,0-8.201-0.445-10.544-1.135c0.123,0.401,0.392,1.181,0.677,2.129
					c1.229,4.091,4.501,14.798,5.123,15.697c0.4-0.434,1.53-4.07,2.446-7.473c0.011-0.04-0.313-1.162-0.428-1.911
					c0.038-0.29,0.025-0.766,0.05-0.768C99.413,79.578,100.077,81.985,100.099,82.034z"/>
			</g>
			<g>
				<path fill="#211B16" d="M99.43,80.364c-0.024,0-0.047-0.006-0.07-0.021c-0.07-0.041-0.496-0.138-0.836-0.213
					c-1.205-0.268-1.456-0.357-1.494-0.532c-0.015-0.061-0.046-0.412-0.129-1.397c-0.154-1.771-0.437-5.076-0.591-5.52
					c-0.024-0.069,0.013-0.149,0.083-0.174c0.071-0.025,0.149,0.013,0.173,0.084c0.154,0.44,0.383,3.002,0.604,5.586
					c0.055,0.637,0.103,1.193,0.121,1.333c0.146,0.095,0.858,0.256,1.291,0.352c0.321,0.07,0.556,0.126,0.713,0.171
					c-0.004-0.699-0.084-2.13-0.163-3.515c-0.093-1.637-0.182-3.185-0.157-3.694c0.003-0.074,0.066-0.142,0.142-0.131
					c0.075,0.006,0.133,0.065,0.129,0.145c-0.023,0.497,0.066,2.108,0.157,3.668c0.087,1.531,0.177,3.114,0.163,3.726
					c-0.001,0.05-0.026,0.094-0.069,0.114C99.475,80.358,99.453,80.364,99.43,80.364z"/>
			</g>
			<g>
				<g>
					<path fill="#211B16" d="M99.133,73.712c-1.092,0.763-2.113,1.593-3.132,2.449c-0.086,0.071-0.06,0.139,0.043,0.159
						c1.172,0.27,2.371,0.271,3.538,0.577c0.038-0.067,0.074-0.139,0.11-0.206c-1.112,0.396-2.354,0.524-3.183,1.454
						c-0.137,0.155,0.384,0.108,0.485-0.006c0.73-0.819,1.916-0.92,2.897-1.269c0.052-0.02,0.271-0.167,0.113-0.207
						c-0.571-0.151-1.139-0.262-1.727-0.317c-0.202-0.019-1.69-0.271-1.626-0.325c0.94-0.788,1.887-1.546,2.894-2.251
						C99.782,73.605,99.251,73.627,99.133,73.712L99.133,73.712z"/>
				</g>
			</g>
		</g>
		<g>
			<g>
				<g>
					<path fill="#EFD7A7" d="M89.269,90.973c-0.004,0.066-0.013,0.134-0.013,0.206c0,2.224,7.625-0.062,7.98-1.271
						C96.023,91.099,90.21,91.572,89.269,90.973z"/>
				</g>
				<g>
					<path fill="#38120D" d="M90.949,92.251c-1.51,0-1.827-0.582-1.827-1.07c0-0.062,0.004-0.114,0.007-0.173l0.004-0.046
						c0.004-0.049,0.033-0.091,0.076-0.111c0.042-0.022,0.093-0.021,0.133,0.008c0.24,0.149,0.886,0.238,1.78,0.238
						c2.274,0,5.235-0.516,6.02-1.283c0.044-0.043,0.112-0.051,0.165-0.021c0.054,0.031,0.078,0.095,0.062,0.155
						C97.096,90.873,93.255,92.251,90.949,92.251z M89.394,91.181L89.394,91.181c0,0.661,0.845,0.798,1.556,0.798
						c1.597,0,3.868-0.668,5.163-1.324c-1.428,0.484-3.573,0.716-4.989,0.716C90.546,91.368,89.822,91.333,89.394,91.181z"/>
				</g>
			</g>
			<g>
				<g>
					<g>
						<path fill="#E88243" d="M97.236,89.909c-0.69-0.581-2.15-0.347-3.686-0.722c0.227,0.442,0.362,1.04,0.362,1.826l0,0
							C95.367,90.792,96.721,90.414,97.236,89.909z"/>
					</g>
					<g>
						<path fill="#38120D" d="M93.913,91.146c-0.031,0-0.064-0.01-0.087-0.03c-0.03-0.025-0.047-0.065-0.047-0.103
							c0-0.719-0.116-1.312-0.346-1.762c-0.023-0.049-0.02-0.104,0.015-0.146c0.032-0.042,0.086-0.062,0.14-0.049
							c0.613,0.15,1.226,0.2,1.766,0.246c0.822,0.067,1.53,0.131,1.975,0.506c0.03,0.023,0.046,0.06,0.048,0.099
							c0.001,0.037-0.013,0.074-0.04,0.102c-0.659,0.646-2.413,0.991-3.4,1.14C93.927,91.146,93.918,91.146,93.913,91.146z
							 M93.786,89.381c0.16,0.41,0.248,0.903,0.261,1.473c1.411-0.225,2.472-0.558,2.97-0.935c-0.391-0.234-1-0.287-1.689-0.346
							C94.857,89.533,94.326,89.489,93.786,89.381z"/>
					</g>
				</g>
				<g>
					<g>
						<path fill="#A5482C" d="M97.018,89.918c-0.136-0.081-0.3-0.141-0.483-0.186c-0.449,0.188-1.97,0.77-2.555,0.377
							c0.038,0.232,0.062,0.479,0.067,0.743C95.459,90.629,96.519,90.294,97.018,89.918z"/>
					</g>
				</g>
			</g>
			<g>
				<g>
					<path fill="#38120D" d="M94.861,90.009c0.374,0.15,0.673,0.249,0.685,0.228c0.011-0.025-0.273-0.166-0.645-0.321
						c0.098-0.244,0.145-0.448,0.107-0.466c-0.036-0.017-0.148,0.162-0.251,0.405c-0.371-0.153-0.673-0.25-0.682-0.227
						c-0.011,0.023,0.272,0.164,0.644,0.322c-0.098,0.245-0.146,0.446-0.107,0.464C94.647,90.429,94.757,90.251,94.861,90.009z"/>
				</g>
			</g>
			<g>
				<g>
					<g>
						<path fill="#FDFFE9" d="M93.913,91.013c0-5.215-5.95-2.204-4.643-0.04C89.809,91.317,91.953,91.306,93.913,91.013z"/>
					</g>
					<g>
						<path fill="#38120D" d="M91.12,91.368L91.12,91.368c-0.676,0-1.56-0.05-1.923-0.283c-0.019-0.011-0.032-0.027-0.043-0.043
							c-0.285-0.469-0.275-1.021,0.023-1.551c0.485-0.858,1.624-1.504,2.65-1.504c0.667,0,2.223,0.293,2.223,3.025
							c0,0.065-0.049,0.124-0.116,0.134C92.985,91.288,91.985,91.368,91.12,91.368z M89.369,90.871
							c0.255,0.143,0.89,0.226,1.75,0.226l0,0c0.816,0,1.756-0.071,2.659-0.202c-0.033-1.679-0.741-2.637-1.951-2.637
							c-0.935,0-1.972,0.587-2.412,1.366C89.241,89.93,89.096,90.393,89.369,90.871z"/>
					</g>
				</g>
				<g>
					<g>
						<path fill="#EFD7A7" d="M91.12,91.097L91.12,91.097c0.816,0,1.756-0.071,2.659-0.202c-0.014-0.697-0.146-1.271-0.38-1.701
							c0.255,0.823-2.279,2.383-4.176,1.067c-0.009,0.191,0.026,0.4,0.148,0.608C89.624,91.014,90.258,91.097,91.12,91.097z"/>
					</g>
				</g>
			</g>
		</g>
		<g>
			<g>
				<path fill="#EFD7A7" d="M107.715,94.055c0.098,0.237,0.155,0.481,0.155,0.722c0,1.224-1.17,1.897-2.65,1.897
					c-1.478,0-2.678-0.99-2.678-2.212c0-0.032,0.005-0.065,0.008-0.101c-0.166,0.258-0.259,0.546-0.259,0.845
					c0,1.16,1.358,2.101,3.029,2.101c1.674,0,2.907-0.859,2.907-2.019C108.228,94.839,108.041,94.411,107.715,94.055z"/>
				<path fill="#38120D" d="M105.321,97.443c-1.747,0-3.166-1.003-3.166-2.236c0-0.319,0.095-0.631,0.281-0.921
					c0.033-0.054,0.099-0.073,0.158-0.056c0.059,0.021,0.097,0.077,0.093,0.141l-0.004,0.034c-0.002,0.019-0.004,0.038-0.004,0.057
					c0,1.146,1.141,2.079,2.541,2.079c1.527,0,2.513-0.693,2.513-1.763c0-0.211-0.048-0.438-0.143-0.671
					c-0.025-0.061-0.002-0.132,0.054-0.166c0.056-0.033,0.127-0.024,0.173,0.022c0.359,0.394,0.548,0.851,0.548,1.325
					C108.365,96.537,107.084,97.443,105.321,97.443z M102.461,94.915c-0.022,0.098-0.033,0.194-0.033,0.291
					c0,1.083,1.298,1.963,2.893,1.963c1.581,0,2.771-0.809,2.771-1.881c0-0.171-0.029-0.338-0.086-0.503
					c-0.006,1.212-1.124,2.023-2.785,2.023C103.856,96.81,102.715,95.994,102.461,94.915z"/>
			</g>
			<g>
				<g>
					<path fill="#E88243" d="M105.221,92.251c0.513,0,1.05,0.222,1.506,0.567c0,0,0.002-0.002,0.001-0.002
						c-0.048-0.032-1.607-1.726-1.875-1.804c0,0-1.624,1.782-1.72,2.135c0,0.002,0,0.002,0,0.004
						C103.64,92.622,104.414,92.251,105.221,92.251z"/>
					<path fill="#38120D" d="M103.136,93.289c-0.023,0-0.046-0.006-0.065-0.021c-0.042-0.021-0.066-0.062-0.071-0.105
						c-0.002-0.019,0-0.031,0.003-0.049c0.101-0.371,1.477-1.893,1.752-2.195c0.034-0.036,0.088-0.056,0.138-0.039
						c0.178,0.053,0.646,0.492,1.723,1.625c0.11,0.115,0.184,0.191,0.203,0.209c0.041,0.027,0.055,0.072,0.046,0.122
						c-0.005,0.037-0.025,0.069-0.056,0.091c-0.006,0.006-0.014,0.011-0.021,0.016c-0.045,0.021-0.103,0.018-0.144-0.016
						c-0.462-0.35-0.969-0.54-1.424-0.54c-0.732,0-1.476,0.322-1.989,0.857C103.207,93.274,103.171,93.289,103.136,93.289z
						 M104.883,91.183c-0.354,0.392-0.812,0.915-1.149,1.335c0.456-0.259,0.974-0.401,1.487-0.401c0.255,0,0.521,0.049,0.786,0.146
						C105.425,91.664,105.049,91.302,104.883,91.183z"/>
				</g>
				<g>
					<path fill="#A5482C" d="M106.007,92.263c-0.581-0.598-0.959-0.961-1.125-1.081c0.042,0.12,0.286,0.702-0.018,0.957
						c0.117-0.015,0.237-0.022,0.355-0.022C105.476,92.114,105.742,92.164,106.007,92.263z"/>
				</g>
				<g>
					<g>
						<path fill="#38120D" d="M105.07,91.949c0.329,0.227,0.593,0.392,0.604,0.374c0.014-0.019-0.23-0.211-0.554-0.441
							c0.124-0.176,0.198-0.332,0.164-0.356c-0.034-0.021-0.161,0.098-0.291,0.267c-0.326-0.226-0.593-0.391-0.604-0.374
							c-0.015,0.021,0.229,0.212,0.554,0.442c-0.125,0.177-0.199,0.332-0.165,0.354C104.812,92.237,104.94,92.121,105.07,91.949z"/>
					</g>
				</g>
			</g>
			<g>
				<g>
					<path fill="#FDFFE9" d="M107.87,94.777c0,1.224-1.17,1.897-2.65,1.897c-1.478,0-2.678-0.99-2.678-2.212
						c0-1.119,1.289-2.211,2.678-2.211C106.465,92.251,107.87,93.556,107.87,94.777z"/>
					<path fill="#38120D" d="M105.221,96.81c-1.55,0-2.813-1.053-2.813-2.348c0-1.206,1.366-2.35,2.813-2.35
						c1.327,0,2.785,1.394,2.785,2.664C108.006,95.994,106.888,96.81,105.221,96.81z M105.221,92.388
						c-1.282,0-2.541,1.028-2.541,2.075c0,1.146,1.141,2.078,2.541,2.078c1.527,0,2.513-0.693,2.513-1.763
						C107.733,93.637,106.419,92.388,105.221,92.388z"/>
				</g>
				<g>
					<path fill="#EFD7A7" d="M103.632,96.079c0.436,0.286,0.988,0.46,1.589,0.46c1.527,0,2.513-0.692,2.513-1.762
						c0-1.141-1.315-2.391-2.513-2.391c-0.09,0-0.18,0.006-0.269,0.015C105.609,93.112,106.013,96.54,103.632,96.079z"/>
				</g>
			</g>
		</g>
		<g>
			<g>
				<path fill="#B18061" d="M123.028,75.511c-0.248-0.315-4.257-4.503-4.175-5.399c0.046-0.515,1.362-4.523,0.409-8.985
					c-0.715-3.349-3.177-5.854-6.242-9.812c-0.378,0.798-0.817,1.658-1.245,2.417l0,0c0.325,0.051,3.625,3.194,4.929,7.487
					c1.055,3.478,0.225,8.228,0,8.574c-0.503,0.779-3.048,4.335-3.433,4.676c-0.386,0.341,0.671,0.771,1.271,0.454
					c0.601-0.316,1.543-0.816,1.543-0.816s0.044,4.946,0,5.263c-0.045,0.317,1.092,0.131,1.135-0.364
					c0.043-0.494,0.363-4.083,0.363-4.083s0.817,3.97,0.862,4.448c0.046,0.476,1.276,0.04,1.226-0.545
					c-0.051-0.587-0.318-3.722-0.318-3.722s1.361,3.246,1.542,3.675c0.182,0.433,1.26-0.123,1.045-0.637
					c-0.215-0.512-1.317-3.13-1.317-3.13s1.644,1.359,2.075,1.588C123.128,76.825,123.37,75.94,123.028,75.511z"/>
				<path fill="#211B16" d="M118.736,79.705c-0.245,0-0.409-0.125-0.427-0.325c-0.031-0.322-0.431-2.317-0.674-3.52l-0.281,3.155
					c-0.036,0.415-0.614,0.644-0.999,0.644c-0.164,0-0.282-0.039-0.35-0.117c-0.046-0.054-0.066-0.122-0.056-0.193
					c0.032-0.22,0.019-3.038,0-5.021l-1.345,0.712c-0.157,0.084-0.351,0.129-0.56,0.129c-0.397,0-0.869-0.165-0.971-0.44
					c-0.05-0.126-0.01-0.258,0.109-0.364c0.354-0.312,2.845-3.774,3.409-4.644c0.217-0.336,1.028-5.024-0.016-8.465
					c-1.278-4.209-4.519-7.291-4.826-7.393c-0.043-0.01-0.079-0.035-0.099-0.074c-0.02-0.04-0.014-0.086,0.008-0.127
					c0.396-0.701,0.837-1.557,1.24-2.407c0.021-0.042,0.062-0.072,0.109-0.078c0.045-0.004,0.094,0.016,0.122,0.054
					c0.576,0.743,1.125,1.429,1.656,2.094c2.248,2.806,4.021,5.024,4.61,7.771c0.806,3.779,0,7.238-0.303,8.542
					c-0.054,0.229-0.097,0.412-0.103,0.484c-0.061,0.687,2.783,3.801,3.717,4.825c0.24,0.262,0.382,0.421,0.429,0.478
					c0.245,0.309,0.231,0.772,0.097,1.053c-0.089,0.186-0.235,0.291-0.397,0.291l0,0c-0.068,0-0.134-0.018-0.201-0.053
					c-0.301-0.157-1.151-0.833-1.673-1.258l1.104,2.626c0.068,0.164,0.044,0.35-0.067,0.517c-0.171,0.259-0.536,0.463-0.829,0.463
					c-0.19,0-0.335-0.089-0.396-0.238c-0.124-0.294-0.794-1.888-1.209-2.878l0.245,2.858c0.015,0.174-0.053,0.343-0.194,0.496
					C119.399,79.538,119.032,79.705,118.736,79.705z M117.583,74.784c0.064,0,0.12,0.047,0.134,0.108
					c0.033,0.163,0.818,3.982,0.865,4.462c0.003,0.022,0.008,0.079,0.157,0.079c0.19,0,0.496-0.116,0.675-0.312
					c0.062-0.065,0.133-0.172,0.122-0.289l-0.317-3.721c-0.006-0.066,0.038-0.127,0.103-0.144c0.066-0.02,0.132,0.019,0.157,0.079
					c0,0,1.361,3.244,1.544,3.675c0.007,0.017,0.028,0.069,0.146,0.069c0.204,0,0.479-0.153,0.603-0.338
					c0.062-0.096,0.077-0.183,0.042-0.263l-1.316-3.131c-0.024-0.059-0.006-0.123,0.043-0.16c0.05-0.039,0.12-0.037,0.167,0.004
					c0.018,0.016,1.638,1.353,2.052,1.571c0.12,0.063,0.199-0.063,0.225-0.117c0.099-0.204,0.102-0.555-0.064-0.766
					c-0.04-0.048-0.198-0.224-0.416-0.462c-1.909-2.092-3.853-4.326-3.788-5.035c0.008-0.091,0.049-0.265,0.109-0.522
					c0.299-1.288,1.096-4.705,0.302-8.422c-0.574-2.688-2.332-4.882-4.556-7.663c-0.489-0.609-0.996-1.242-1.523-1.921
					c-0.358,0.745-0.74,1.483-1.091,2.11c0.78,0.537,3.672,3.529,4.876,7.497c1.065,3.514,0.209,8.343-0.017,8.69
					c-0.508,0.784-3.059,4.351-3.458,4.7c-0.044,0.04-0.037,0.059-0.033,0.065c0.04,0.104,0.345,0.261,0.717,0.261
					c0.166,0,0.315-0.031,0.434-0.094l1.543-0.818c0.041-0.021,0.092-0.02,0.132,0.004c0.041,0.024,0.066,0.068,0.066,0.114
					c0.006,0.507,0.044,4.936-0.001,5.282c0.004-0.01,0.049,0.005,0.137,0.005c0.278,0,0.706-0.165,0.728-0.394l0.363-4.086
					c0.007-0.067,0.061-0.12,0.128-0.123C117.578,74.784,117.581,74.784,117.583,74.784z"/>
			</g>
		</g>
		<g>
			<g>
				<path fill="#B18061" d="M93.189,54.904c-0.397-0.018-1.223-0.375-1.984-0.814c-12.261,11.521-15.707-2.924-16.409-7.141
					c-0.854,0.569-1.71,1.107-2.34,1.46c0.938,4.071,5.303,20.231,20.226,8.106C92.851,55.97,93.021,55.431,93.189,54.904
					L93.189,54.904z"/>
				<path fill="#211B16" d="M82.938,61.084C82.937,61.084,82.937,61.084,82.938,61.084c-6.697,0-9.523-7.924-10.614-12.645
					c-0.014-0.059,0.015-0.12,0.066-0.149c0.601-0.337,1.429-0.854,2.33-1.455c0.04-0.026,0.087-0.03,0.131-0.012
					c0.042,0.018,0.071,0.057,0.08,0.102c0.444,2.673,2.339,11.394,8.047,11.394c0.001,0,0.001,0,0.001,0
					c2.339,0,5.074-1.456,8.131-4.329c0.043-0.041,0.109-0.047,0.161-0.02c0.784,0.453,1.574,0.781,1.92,0.794
					c0.042,0.003,0.082,0.022,0.107,0.062c0.022,0.031,0.03,0.076,0.019,0.117c-0.168,0.526-0.336,1.066-0.505,1.609
					c-0.008,0.027-0.022,0.052-0.043,0.066C89.125,59.583,85.816,61.084,82.938,61.084z M72.612,48.477
					C73.7,53.131,76.474,60.81,82.938,60.81h0.001c2.806,0,6.045-1.471,9.627-4.374c0.148-0.479,0.295-0.952,0.444-1.417
					c-0.483-0.093-1.223-0.442-1.784-0.763c-3.08,2.877-5.854,4.336-8.245,4.336c-5.783,0-7.77-8.472-8.283-11.416
					C73.899,47.706,73.169,48.161,72.612,48.477z"/>
			</g>
		</g>
		<g>
			<g>
				<path fill="#FAE17C" d="M96.223,47.025c-0.432-0.084-0.86-0.185-1.28-0.3c0,0,0,0.001,0,0.001
					c-0.619,0.653-4.974,5.219-5.347,5.797c-0.375,0.578,2.695,2.34,3.594,2.378l0,0C94.402,51.102,95.589,47.881,96.223,47.025
					L96.223,47.025z"/>
				<path fill="#38120D" d="M93.189,55.039c-0.001,0-0.004,0-0.005,0c-0.837-0.037-3.295-1.404-3.692-2.17
					c-0.104-0.201-0.064-0.337-0.012-0.418c0.237-0.367,1.989-2.269,5.205-5.652l0.157-0.167c0.034-0.037,0.086-0.051,0.135-0.039
					c0.426,0.117,0.854,0.217,1.272,0.297c0.046,0.007,0.085,0.041,0.102,0.084c0.017,0.044,0.011,0.092-0.018,0.13
					c-0.572,0.772-1.67,3.629-3.015,7.84C93.299,54.998,93.248,55.039,93.189,55.039z M94.986,46.879l-0.104,0.109
					c-3.991,4.2-5.016,5.369-5.171,5.612c-0.023,0.035,0,0.1,0.022,0.146c0.335,0.649,2.527,1.88,3.36,2.013
					c1.253-3.916,2.297-6.659,2.904-7.639C95.662,47.05,95.322,46.969,94.986,46.879z"/>
			</g>
		</g>
		<g>
			<g>
				<path fill="#30A878" d="M105.949,46.085C105.947,46.085,105.947,46.085,105.949,46.085c-1.994,0.806-4.172,1.253-6.455,1.253
					c-1.118,0-2.212-0.109-3.27-0.313l0,0c-1.74,2.346-7.653,22.52-6.822,23.586c2.27,2.903,20.694,2.903,22.508,0.815
					c0.705-0.812-0.579-8.99-2.44-16.003C105.688,52.605,104.634,47.682,105.949,46.085z"/>
				<path fill="#211B16" d="M102.088,73.037C102.087,73.037,102.087,73.037,102.088,73.037c-5.457,0-11.528-0.726-12.793-2.345
					c-0.627-0.803,1.909-9.665,2.424-11.434c1.523-5.233,3.472-11.07,4.396-12.315c0.031-0.042,0.085-0.062,0.135-0.052
					c1.069,0.205,2.162,0.309,3.246,0.309c2.212,0,4.365-0.417,6.403-1.243c0.061-0.024,0.13-0.001,0.164,0.052
					c0.05,0.048,0.037,0.108-0.008,0.162c-0.429,0.522-0.598,1.464-0.461,2.583c0.233,1.92,1.398,4.652,3.96,6.559
					c0.023,0.021,0.042,0.045,0.05,0.073c1.74,6.56,3.202,15.216,2.41,16.128C111.036,72.64,106.056,73.037,102.088,73.037z
					 M96.163,47.155c-1.773,2.615-7.405,22.409-6.656,23.37c1.21,1.546,7.19,2.239,12.58,2.239h0c4.991,0,8.987-0.587,9.719-1.428
					c0.587-0.677-0.451-8.258-2.455-15.831c-2.606-1.959-3.791-4.75-4.031-6.715c-0.119-0.988-0.02-1.83,0.286-2.425
					c-1.953,0.737-4.007,1.11-6.112,1.11C98.42,47.474,97.223,47.352,96.163,47.155z"/>
			</g>
			<g>
				<path fill="#FBB90C" d="M106.115,51.478c-4.525,4.301-11.742,9.363-15.192,11.508c-0.678,2.593-1.2,4.865-1.397,6.23
					c4.397-1.808,13.754-9.047,19.417-14.037C107.618,54.074,106.7,52.756,106.115,51.478z"/>
			</g>
		</g>
		<g>
			<g>
				<path fill="#FAE17C" d="M105.949,46.085c-1.379,1.675-0.153,7.019,4.101,9.742c0.746,0.475,4.051-6.536,4.016-7.114
					C114.032,48.135,106.832,45.012,105.949,46.085z"/>
				<path fill="#38120D" d="M110.13,55.985L110.13,55.985c-0.056,0-0.108-0.016-0.154-0.046c-2.895-1.852-4.285-4.773-4.618-6.889
					c-0.207-1.313-0.03-2.425,0.486-3.051c0.15-0.184,0.426-0.273,0.845-0.273c1.962,0,7.475,2.333,7.512,2.979
					c0.035,0.587-2.428,5.763-3.56,6.965C110.439,55.885,110.276,55.985,110.13,55.985z M106.689,46
					c-0.323,0-0.542,0.058-0.636,0.172c-0.466,0.567-0.622,1.601-0.427,2.838c0.326,2.057,1.677,4.897,4.497,6.703l0.007,0.003l0,0
					c0.018,0,0.107-0.013,0.312-0.229c1.226-1.299,3.509-6.389,3.486-6.764C113.75,48.281,108.698,46,106.689,46z"/>
			</g>
		</g>
		<g>
			<g>
				<g>
					<path fill="#B18061" d="M84.146,22.33c0.724-0.038,3.834-1.433,2.793-3.976c1.11,1.249,5.468,0.652,5.212-2.494
						c0.868,0.783,4.679,4.185,8.119-0.918c-0.616,1.634,2.995,6.024,7.318,1.702c-2.042,2.364,1.566,5.413,4.729,3.643
						c-0.476,0.511-1.904,3.983,2.757,5.37c-1.804,0.451-3.573,4.093-0.34,5.352h0.001c2.698-3.646,4.58-1.901,4.664,0.6h0.001
						c0.068,2.063-1.085,4.643-4.015,5.139c-2.595,6.22-8.731,10.593-15.891,10.593c-9.505,0-17.212-7.706-17.212-17.212
						c0-0.465,0.02-0.925,0.056-1.381C82.48,27.575,82.773,24.708,84.146,22.33z"/>
					<path fill="#211B16" d="M82.146,30.126c0-0.464,0.019-0.933,0.055-1.397l0.021-0.167c0.157-1.299,0.481-4.005,1.806-6.301
						c0.022-0.04,0.064-0.065,0.11-0.067c0.456-0.024,1.865-0.616,2.523-1.654c0.413-0.654,0.465-1.371,0.153-2.134
						c-0.024-0.062-0.002-0.132,0.054-0.166c0.057-0.036,0.131-0.026,0.174,0.024c0.313,0.351,0.948,0.562,1.696,0.562
						c1.045,0,2.064-0.401,2.658-1.044c0.473-0.513,0.683-1.157,0.621-1.911c-0.004-0.057,0.024-0.109,0.075-0.132
						c0.05-0.024,0.11-0.017,0.152,0.021c0.495,0.446,1.997,1.801,3.839,1.802c0.001,0,0.001,0,0.001,0
						c1.499,0,2.869-0.906,4.072-2.695c0.039-0.058,0.114-0.078,0.175-0.044c0.061,0.032,0.09,0.104,0.065,0.168
						c-0.162,0.429,0.015,1.113,0.449,1.74c0.706,1.02,1.831,1.628,3.009,1.628c0,0,0,0,0,0c1.212,0,2.436-0.61,3.637-1.811
						c0.052-0.051,0.136-0.053,0.189-0.003c0.054,0.049,0.059,0.133,0.011,0.188c-0.587,0.679-0.722,1.464-0.378,2.213
						c0.466,1.021,1.709,1.732,3.022,1.732l0,0c0.664,0,1.309-0.171,1.915-0.512c0.06-0.031,0.132-0.018,0.174,0.036
						c0.042,0.052,0.038,0.127-0.007,0.177c-0.261,0.28-0.76,1.413-0.447,2.564c0.323,1.188,1.38,2.057,3.143,2.582
						c0.059,0.018,0.098,0.072,0.097,0.133c-0.002,0.061-0.043,0.113-0.104,0.129c-1.004,0.25-1.952,1.526-2.028,2.732
						c-0.066,1.038,0.506,1.858,1.608,2.321c1.014-1.346,2.013-2.056,2.888-2.056c1.098,0,1.901,1.158,1.958,2.817
						c0.073,2.174-1.165,4.735-4.053,5.265c-2.72,6.446-8.987,10.608-15.988,10.608C89.929,47.474,82.146,39.691,82.146,30.126z
						 M114.842,31.085c-0.037,0.049-0.102,0.067-0.159,0.046c-1.736-0.677-1.92-1.939-1.876-2.632
						c0.073-1.178,0.881-2.382,1.846-2.839c-1.629-0.564-2.62-1.455-2.945-2.65c-0.262-0.963-0.01-1.869,0.246-2.397
						c-0.521,0.223-1.062,0.333-1.62,0.333l0,0c-1.416,0-2.761-0.778-3.271-1.892c-0.257-0.563-0.28-1.143-0.074-1.692
						c-1.033,0.839-2.083,1.263-3.136,1.263h0c-1.267,0-2.476-0.652-3.233-1.746c-0.333-0.482-0.525-0.988-0.553-1.426
						c-1.185,1.577-2.523,2.374-3.985,2.374h-0.001c-1.707,0-3.115-1.082-3.783-1.662c-0.014,0.693-0.251,1.306-0.703,1.795
						c-0.645,0.698-1.738,1.133-2.858,1.133c-0.607,0-1.139-0.126-1.525-0.353c0.169,0.686,0.061,1.336-0.321,1.94
						c-0.704,1.113-2.125,1.697-2.661,1.773c-1.267,2.235-1.584,4.865-1.735,6.137l-0.02,0.161c-0.037,0.453-0.056,0.914-0.056,1.37
						c0,9.415,7.66,17.075,17.076,17.075c6.816,0,13.021-4.007,15.742-10.237c0.04-0.088-1.315,0.039-1.276-0.054
						c0.019-0.042,1.355-0.292,1.401-0.3c2.781-0.471,3.971-2.922,3.9-5c-0.051-1.504-0.744-2.554-1.686-2.554
						C117.015,29.057,116.084,29.408,114.842,31.085z"/>
				</g>
				<g>
					<g>
						<path fill="#211B16" d="M116.82,31.754c-0.095,0.039-1.042,0.58-0.771,0.652c0.437,0.117,0.874,0.12,1.268,0.371
							c0.243,0.154,0.405,0.495,0.236,0.748c-0.111,0.168-0.413,0.31-0.576,0.411c-0.417,0.26-1.696,0.734-1.596,0.657
							c0.291-0.227,0.6-0.422,0.916-0.613c0.283-0.174,1.001-0.447,0.91-0.882c-0.104-0.493-1.226-0.463-1.626-0.67
							c-0.024-0.013-0.098-0.065-0.076-0.105c0.334-0.624,1.113-0.755,1.694-1.06C117.305,31.208,117.055,31.657,116.82,31.754z"/>
					</g>
				</g>
			</g>
			<g>
				<g>
					<path fill="#4E2C23" d="M80.243,21.594c-1.736-6.141,2.6-6.959,2.949-6.988c-0.177-5.392,4.517-4.636,4.789-4.771
						c1.514-4.766,7.23-3.607,7.964-2.859c3.709-3.982,9.7-0.936,10.002,0.307c4.939-1.702,7.768,1.763,7.786,2.631
						c6.313,0.392,5.861,6.617,5.668,6.976c4.805,0.579,1.886,5.638,1.229,5.808c3.75,1.619,1.371,8.145-1.233,8.908
						c-0.084-2.502-1.966-4.246-4.664-0.599h-0.001c-3.233-1.26-1.462-4.902,0.341-5.353c-4.663-1.387-3.234-4.858-2.757-5.369
						c-3.164,1.769-6.772-1.277-4.73-3.643c-4.321,4.322-7.932-0.067-7.317-1.702c-3.439,5.105-7.25,1.702-8.119,0.918
						c0.255,3.147-4.101,3.744-5.212,2.495c1.043,2.542-2.07,3.938-2.793,3.976c-1.372,2.377-1.667,5.244-1.81,6.417
						C79.063,28.088,78.202,22.311,80.243,21.594z"/>
					<path fill="#211B16" d="M119.318,31.717c-0.033-0.025-0.055-0.064-0.056-0.106c-0.051-1.505-0.745-2.554-1.687-2.554
						c-0.562,0-1.492,0.351-2.734,2.029c-0.036,0.05-0.102,0.067-0.158,0.046c-1.736-0.677-1.921-1.938-1.877-2.632
						c0.074-1.179,0.882-2.382,1.846-2.839c-1.629-0.564-2.62-1.455-2.945-2.65c-0.262-0.963-0.011-1.869,0.246-2.397
						c-0.521,0.222-1.063,0.333-1.62,0.333c-1.416,0-2.76-0.778-3.27-1.891c-0.257-0.563-0.28-1.143-0.074-1.692
						c-1.033,0.84-2.085,1.262-3.136,1.262c-1.267,0-2.476-0.652-3.232-1.744c-0.333-0.482-0.525-0.989-0.553-1.426
						c-1.184,1.576-2.523,2.375-3.986,2.375c-1.707,0-3.115-1.083-3.783-1.662c-0.014,0.692-0.254,1.307-0.703,1.795
						c-0.645,0.699-1.738,1.133-2.857,1.133c-0.607,0-1.139-0.125-1.526-0.354c0.169,0.686,0.062,1.337-0.321,1.941
						c-0.704,1.113-2.125,1.696-2.661,1.773c-1.268,2.235-1.584,4.865-1.736,6.137l-0.021,0.167
						c-0.004,0.038-0.024,0.071-0.056,0.093c-0.03,0.022-0.068,0.03-0.107,0.023c-1.976-0.397-3.149-2.619-3.29-4.61
						c-0.096-1.368,0.309-2.41,1.059-2.756c-0.62-2.269-0.486-4.07,0.397-5.352c0.871-1.261,2.168-1.595,2.577-1.672
						c-0.032-1.545,0.34-2.737,1.104-3.542c1.123-1.181,2.783-1.212,3.489-1.225c0.083-0.001,0.174-0.004,0.228-0.006
						c1.027-3.102,3.72-3.568,5.241-3.568c1.245,0,2.369,0.317,2.816,0.64c1.224-1.264,2.826-1.931,4.645-1.931
						c2.536,0,5.021,1.329,5.451,2.252c0.864-0.284,1.715-0.429,2.53-0.429c3.223,0,5.108,2.198,5.294,3.101
						c2.318,0.17,3.981,1.134,4.943,2.865c0.909,1.634,0.901,3.505,0.778,4.125c2.084,0.303,2.602,1.466,2.663,2.399
						c0.095,1.41-0.777,3.003-1.332,3.504c1.266,0.651,1.9,1.949,1.794,3.685c-0.147,2.396-1.673,4.908-3.264,5.374
						c-0.013,0.002-0.026,0.005-0.038,0.005C119.37,31.741,119.343,31.732,119.318,31.717z M105.992,7.412
						c-0.035,0.012-0.075,0.009-0.108-0.01c-0.035-0.019-0.059-0.05-0.068-0.087c-0.177-0.728-2.566-2.183-5.236-2.183
						c-1.786,0-3.354,0.67-4.535,1.937c-0.024,0.028-0.062,0.042-0.098,0.044c-0.041,0-0.073-0.014-0.099-0.041
						c-0.261-0.266-1.384-0.65-2.73-0.65c-1.459,0-4.051,0.449-5.008,3.454c-0.012,0.035-0.036,0.064-0.069,0.081
						c-0.062,0.032-0.146,0.034-0.387,0.039c-0.673,0.012-2.253,0.04-3.297,1.141c-0.733,0.772-1.079,1.937-1.028,3.465
						c0.001,0.072-0.053,0.135-0.124,0.14c-0.016,0.001-1.55,0.196-2.502,1.576c-0.85,1.234-0.961,2.999-0.329,5.24
						c0.02,0.068-0.019,0.143-0.085,0.166c-0.704,0.248-1.088,1.216-0.996,2.529c0.128,1.836,1.172,3.88,2.928,4.329l0.001-0.018
						c0.157-1.298,0.481-4.005,1.806-6.3c0.022-0.04,0.064-0.065,0.11-0.068c0.456-0.023,1.865-0.617,2.523-1.655
						c0.413-0.654,0.465-1.373,0.153-2.134c-0.024-0.061-0.002-0.132,0.054-0.166c0.057-0.035,0.131-0.024,0.174,0.024
						c0.313,0.352,0.947,0.562,1.695,0.562c1.045,0,2.064-0.401,2.658-1.044c0.473-0.514,0.684-1.157,0.62-1.911
						c-0.004-0.056,0.024-0.108,0.075-0.133c0.049-0.024,0.109-0.017,0.151,0.021c0.495,0.446,1.997,1.801,3.839,1.801
						c1.5,0,2.869-0.906,4.074-2.695c0.039-0.058,0.114-0.077,0.175-0.044c0.062,0.032,0.09,0.105,0.065,0.168
						c-0.161,0.43,0.015,1.113,0.451,1.74c0.704,1.018,1.829,1.628,3.007,1.628c1.213,0,2.437-0.609,3.638-1.811
						c0.052-0.052,0.136-0.053,0.189-0.003c0.053,0.049,0.059,0.134,0.011,0.188c-0.585,0.68-0.722,1.464-0.378,2.214
						c0.466,1.02,1.709,1.731,3.022,1.731c0.665,0,1.31-0.171,1.915-0.512c0.06-0.031,0.132-0.018,0.174,0.036
						c0.042,0.052,0.038,0.127-0.007,0.177c-0.261,0.28-0.76,1.413-0.447,2.565c0.323,1.188,1.38,2.058,3.143,2.581
						c0.06,0.018,0.099,0.072,0.097,0.132c-0.001,0.062-0.043,0.114-0.103,0.13c-1.005,0.25-1.952,1.528-2.028,2.732
						c-0.066,1.038,0.506,1.858,1.61,2.321c1.013-1.345,2.013-2.056,2.889-2.056c1.054,0,1.841,1.074,1.947,2.634
						c1.411-0.556,2.771-2.902,2.903-5.072c0.061-0.991-0.1-2.767-1.852-3.524c-0.054-0.022-0.085-0.077-0.083-0.135
						c0.004-0.058,0.045-0.107,0.103-0.121c0.29-0.075,1.476-1.812,1.369-3.374c-0.082-1.243-0.952-1.971-2.58-2.168
						c-0.044-0.004-0.082-0.032-0.103-0.071c-0.022-0.039-0.022-0.087-0.002-0.127c0.101-0.214,0.279-2.347-0.793-4.166
						c-0.94-1.593-2.543-2.471-4.765-2.608c-0.069-0.005-0.125-0.062-0.126-0.133c-0.012-0.564-1.718-2.96-5.037-2.96
						C107.735,6.955,106.872,7.108,105.992,7.412z"/>
				</g>
				<g>
					<path fill="#211B16" d="M86.661,20.54c-0.657,1.038-2.066,1.63-2.522,1.655c-0.046,0.002-0.087,0.028-0.111,0.067
						c-1.324,2.296-1.649,5.002-1.806,6.301L82.22,28.58c-1.245-0.318-2.13-1.439-2.586-2.72c0.987-0.232,3.524-2.486,2.513-5.174
						c2.907,0.727,4.314-2.388,3.451-4.221c2.722,1.077,5.438-1.542,6.352-3.585c0.409,1.498,5.766,2.269,8.302-0.227
						c1.059,3.448,5.132,4.084,8.262,2.286c-0.317,2.797,2.678,4.929,5.445,3.705c-1.088,2.451,1.414,6.395,3.132,5.809
						c0.45,4.88,5.441,2.271,5.334,1.201c0.016,0.252,0.015,0.489,0.002,0.692c-0.132,2.169-1.494,4.516-2.903,5.072
						c-0.107-1.56-0.893-2.634-1.949-2.634c-0.876,0-1.875,0.71-2.888,2.056c-1.104-0.462-1.676-1.284-1.61-2.322
						c0.075-1.205,1.024-2.482,2.029-2.731c0.061-0.016,0.102-0.067,0.104-0.13c0-0.062-0.039-0.116-0.097-0.132
						c-1.762-0.524-2.818-1.394-3.142-2.582c-0.312-1.15,0.186-2.286,0.447-2.564c0.046-0.05,0.049-0.124,0.008-0.177
						c-0.041-0.052-0.115-0.067-0.174-0.036c-0.605,0.339-1.25,0.511-1.916,0.511c-1.314,0-2.557-0.711-3.021-1.731
						c-0.342-0.748-0.209-1.534,0.378-2.213c0.046-0.055,0.042-0.139-0.011-0.188c-0.054-0.05-0.137-0.048-0.188,0.003
						c-1.202,1.201-2.425,1.811-3.637,1.811c-1.178,0-2.303-0.608-3.008-1.628c-0.434-0.627-0.612-1.31-0.45-1.741
						c0.024-0.064-0.003-0.136-0.066-0.168c-0.062-0.033-0.137-0.012-0.175,0.044c-1.204,1.789-2.574,2.695-4.074,2.695
						c-1.842,0-3.344-1.356-3.839-1.802c-0.042-0.038-0.102-0.044-0.152-0.021c-0.05,0.024-0.079,0.076-0.075,0.132
						c0.062,0.755-0.148,1.398-0.62,1.912c-0.594,0.645-1.613,1.044-2.658,1.044c-0.748,0-1.382-0.21-1.696-0.562
						c-0.044-0.05-0.119-0.06-0.174-0.024c-0.058,0.035-0.079,0.106-0.054,0.166C87.125,19.168,87.072,19.885,86.661,20.54z"/>
				</g>
			</g>
			<g>
				<g>
					<g>
						<ellipse fill="#211B16" cx="84.671" cy="29.439" rx="0.714" ry="2.666"/>
					</g>
					<g>
						<ellipse fill="#FFFFFF" cx="84.337" cy="28.088" rx="0.199" ry="0.659"/>
					</g>
				</g>
				<g>
					<g>
						<ellipse fill="#211B16" cx="100.481" cy="28.746" rx="0.83" ry="3.093"/>
					</g>
					<g>
						<ellipse fill="#FFFFFF" cx="100.252" cy="27.18" rx="0.229" ry="0.763"/>
					</g>
				</g>
				<g>
					<g>
						<g>
							<path fill="#211B16" d="M105.87,25.12c-1.426-2.67-6.288-2.803-7.937-1.534c-0.083,0.064-0.171-0.066-0.123-0.16
								c1.259-2.421,7.287-1.977,8.133,1.672C105.963,25.182,105.915,25.203,105.87,25.12z"/>
						</g>
					</g>
				</g>
				<g>
					<path fill="#1D1D1B" d="M89.783,35.522c-0.052-0.021-0.085-0.07-0.086-0.126c-0.001-0.243,0.075-0.443,0.228-0.596
						c0.245-0.247,0.611-0.298,0.876-0.298c0.532,0,1.098,0.208,1.345,0.497c0.112,0.13,0.158,0.274,0.135,0.417
						c-0.006,0.043-0.034,0.081-0.075,0.101c-0.04,0.02-0.086,0.019-0.125-0.003c-0.155-0.088-0.725-0.336-1.305-0.336
						c-0.37,0-0.653,0.104-0.842,0.311c-0.025,0.029-0.062,0.044-0.101,0.044C89.816,35.53,89.799,35.528,89.783,35.522z
						 M90.117,34.993c-0.02,0.018-0.035,0.038-0.05,0.06c0.198-0.099,0.435-0.149,0.708-0.149c0.397,0,0.818,0.112,1.121,0.227
						c-0.217-0.206-0.67-0.355-1.096-0.355C90.5,34.774,90.256,34.851,90.117,34.993z"/>
				</g>
				<g>
					<path fill="#1D1D1B" d="M93.58,40.045c0.268,0,0.544-0.012,0.822-0.035c1.294-0.105,4.455-0.648,5.817-3.353
						c0.035-0.066,0.007-0.148-0.059-0.183c-0.067-0.034-0.149-0.006-0.183,0.061c-1.303,2.583-4.35,3.1-5.598,3.203
						c-1.736,0.143-3.219-0.196-3.516-0.603c-0.044-0.062-0.13-0.074-0.191-0.029c-0.061,0.045-0.074,0.129-0.029,0.19
						C90.974,39.752,92.187,40.045,93.58,40.045z"/>
				</g>
				<path fill="#211B16" d="M83.056,25.011c0.082-0.276,2.013-1.166,3.146-0.689c-1.134,0.34-2.768,1.202-3.274,1.575
					C82.765,25.703,82.972,25.288,83.056,25.011z"/>
			</g>
		</g>
		<g>
			<g>
				<path fill="#5F7AA3" d="M31.797,71.811L31.797,71.811c-0.775,3.383,4.738,18.833,5.486,18.969
					c0.749,0.137,4.901-9.028,4.901-9.028s2.11,7.873,2.655,7.805c0.545-0.065,5.446-16.814,5.882-18.161l0,0
					C46.136,72.851,35.851,72.891,31.797,71.811z"/>
				<path fill="#071222" d="M37.301,90.918c-0.008,0-0.034-0.003-0.042-0.005c-0.091-0.018-0.176-0.095-0.291-0.268
					c-1.302-1.975-5.978-15.664-5.249-18.854c0.008-0.038-0.028-0.08,0.005-0.099c0.032-0.02,0.068-0.023,0.105-0.016
					c1.754,0.469,4.834,0.745,8.24,0.745c4.355,0,8.319-0.434,10.607-1.162c0.048-0.015,0.103-0.002,0.138,0.034
					c0.037,0.038-0.044,0.089-0.061,0.137c-0.086,0.266-0.329,1.129-0.69,2.331c-4.003,13.329-4.869,15.885-5.21,15.926l0,0
					c-0.575,0-1.899-4.561-2.704-7.54C41.032,84.605,38.077,90.918,37.301,90.918z M31.808,71.957
					c-0.246,1.506,0.625,5.271,2.242,10.363c1.513,4.758,2.925,8.066,3.26,8.321c0.51-0.16,2.804-4.654,4.75-8.949
					c0.024-0.053,0.591-2.037,0.652-2.032c0.02,0.002,0.072,0.253,0.072,0.253c-0.13,0.608-0.477,1.765-0.467,1.799
					c0.928,3.462,2.093,7.232,2.501,7.677c0.622-0.899,3.837-11.611,5.065-15.698c0.285-0.951,0.598-1.725,0.721-2.126
					c-2.344,0.69-6.304,1.134-10.531,1.134C36.732,72.697,33.604,72.408,31.808,71.957z"/>
			</g>
			<g>
				<path fill="#071222" d="M42.729,80.024c-0.023,0-0.046-0.006-0.065-0.016c-0.042-0.023-0.068-0.067-0.069-0.117
					c-0.015-0.611,0.075-2.196,0.163-3.728c0.089-1.559,0.181-3.17,0.157-3.666c-0.003-0.077,0.055-0.141,0.13-0.145
					c0.071-0.012,0.138,0.055,0.142,0.129c0.024,0.515-0.063,2.061-0.156,3.696c-0.078,1.385-0.16,2.813-0.166,3.514
					c0.158-0.044,0.394-0.1,0.713-0.17c0.434-0.097,1.145-0.256,1.293-0.352c0.017-0.139,0.065-0.693,0.12-1.332
					c0.222-2.585,0.452-5.147,0.604-5.587c0.024-0.071,0.102-0.11,0.173-0.084c0.07,0.024,0.108,0.103,0.083,0.172
					c-0.154,0.446-0.438,3.747-0.592,5.523c-0.084,0.984-0.115,1.332-0.128,1.396c-0.039,0.172-0.29,0.262-1.494,0.532
					c-0.341,0.075-0.765,0.172-0.837,0.215C42.778,80.02,42.753,80.024,42.729,80.024z"/>
			</g>
			<g>
				<g>
					<path fill="#071222" d="M42.575,73.5c1.092,0.763,2.11,1.592,3.13,2.448c0.07-0.068,0.144-0.141,0.215-0.209
						c-1.188,0.272-2.402,0.276-3.585,0.59c-0.055,0.012-0.363,0.166-0.182,0.231c1.035,0.367,2.238,0.477,3.008,1.34
						c0.109,0.122,0.607-0.064,0.491-0.194c-0.791-0.887-2.014-1.004-3.075-1.383c-0.06,0.076-0.12,0.155-0.181,0.23
						c1.18-0.31,2.397-0.317,3.585-0.59c0.048-0.011,0.322-0.122,0.215-0.21c-1.019-0.855-2.04-1.686-3.131-2.449
						C42.925,73.204,42.453,73.413,42.575,73.5L42.575,73.5z"/>
				</g>
			</g>
		</g>
		<g>
			<g>
				<path fill="#EFD7A7" d="M34.412,93.715c-0.098,0.237-0.153,0.481-0.153,0.722c0,1.223,1.169,1.896,2.648,1.896
					s2.678-0.989,2.678-2.21c0-0.033-0.005-0.067-0.008-0.102c0.167,0.258,0.26,0.546,0.26,0.847c0,1.158-1.356,2.099-3.029,2.099
					c-1.672,0-2.908-0.857-2.908-2.017C33.899,94.499,34.087,94.072,34.412,93.715z"/>
				<path fill="#38120D" d="M33.762,94.95c0-0.474,0.19-0.933,0.548-1.325c0.045-0.051,0.118-0.06,0.174-0.024
					c0.056,0.035,0.078,0.107,0.053,0.168c-0.094,0.23-0.143,0.457-0.143,0.669c0,1.069,0.986,1.765,2.512,1.765
					c1.401,0,2.54-0.934,2.54-2.079c0-0.021-0.002-0.039-0.003-0.059l-0.003-0.032c-0.005-0.063,0.034-0.122,0.092-0.142
					c0.06-0.02,0.125,0.005,0.158,0.058c0.187,0.291,0.281,0.602,0.281,0.92c0,1.232-1.421,2.235-3.166,2.235
					C35.044,97.104,33.762,96.197,33.762,94.95z M36.906,96.471c-1.662,0-2.778-0.812-2.785-2.023
					c-0.058,0.164-0.086,0.332-0.086,0.505c0,1.07,1.192,1.879,2.771,1.879c1.596,0,2.893-0.882,2.893-1.962
					c0-0.099-0.011-0.195-0.033-0.293C39.414,95.654,38.272,96.471,36.906,96.471z"/>
			</g>
			<g>
				<g>
					<path fill="#A2CCE4" d="M36.906,91.911c-0.512,0-1.05,0.222-1.506,0.568l0-0.004c0.046-0.032,1.608-1.726,1.875-1.804
						c0,0,1.624,1.784,1.721,2.137c0,0.002,0,0.002,0,0.004C38.488,92.282,37.716,91.911,36.906,91.911z"/>
					<path fill="#071222" d="M38.895,92.907c-0.513-0.539-1.257-0.859-1.989-0.859c-0.456,0-0.963,0.189-1.425,0.541
						c-0.042,0.028-0.097,0.035-0.144,0.012c-0.006-0.004-0.014-0.008-0.02-0.012c-0.031-0.022-0.051-0.057-0.057-0.092
						c-0.007-0.05,0.006-0.094,0.046-0.124c0.019-0.016,0.093-0.093,0.202-0.209c1.077-1.132,1.545-1.568,1.723-1.623
						c0.05-0.017,0.104,0.001,0.14,0.038c0.275,0.305,1.649,1.827,1.75,2.199c0.004,0.014,0.004,0.028,0.003,0.045
						c-0.003,0.045-0.029,0.086-0.069,0.109c-0.021,0.011-0.044,0.017-0.065,0.017C38.958,92.949,38.921,92.935,38.895,92.907z
						 M36.122,91.923c0.265-0.099,0.531-0.147,0.785-0.147c0.514,0,1.032,0.144,1.486,0.401c-0.337-0.421-0.793-0.941-1.149-1.334
						C37.079,90.962,36.703,91.325,36.122,91.923z"/>
				</g>
				<g>
					<path fill="#618EA2" d="M36.122,91.923c0.581-0.598,0.958-0.962,1.125-1.08c-0.041,0.118-0.285,0.702,0.018,0.957
						c-0.118-0.016-0.238-0.024-0.356-0.024C36.651,91.774,36.387,91.824,36.122,91.923z"/>
				</g>
				<g>
					<g>
						<path fill="#38120D" d="M37.058,91.61c-0.328,0.226-0.593,0.391-0.604,0.373c-0.013-0.02,0.231-0.211,0.554-0.441
							c-0.125-0.177-0.199-0.333-0.164-0.355c0.033-0.024,0.161,0.095,0.292,0.266c0.327-0.227,0.592-0.393,0.603-0.374
							c0.015,0.02-0.229,0.212-0.554,0.443c0.126,0.175,0.199,0.331,0.165,0.353C37.314,91.896,37.188,91.78,37.058,91.61z"/>
					</g>
				</g>
			</g>
			<g>
				<g>
					<path fill="#FDFFE9" d="M34.258,94.437c0,1.224,1.169,1.897,2.648,1.897s2.678-0.991,2.678-2.211
						c0-1.118-1.289-2.211-2.678-2.211C35.663,91.911,34.258,93.215,34.258,94.437z"/>
					<path fill="#38120D" d="M34.122,94.437c0-1.269,1.457-2.661,2.785-2.661c1.445,0,2.814,1.14,2.814,2.348
						c0,1.295-1.263,2.348-2.814,2.348C35.24,96.471,34.122,95.654,34.122,94.437z M34.395,94.437c0,1.069,0.987,1.764,2.512,1.764
						c1.401,0,2.54-0.933,2.54-2.078c0-1.048-1.257-2.075-2.54-2.075C35.708,92.048,34.395,93.297,34.395,94.437z"/>
				</g>
				<g>
					<path fill="#EFD7A7" d="M38.496,95.739c-0.437,0.288-0.988,0.461-1.589,0.461c-1.526,0-2.512-0.694-2.512-1.764
						c0-1.14,1.315-2.389,2.512-2.389c0.09,0,0.18,0.006,0.269,0.015C36.52,92.772,36.114,96.2,38.496,95.739z"/>
				</g>
			</g>
		</g>
		<g>
			<g>
				<g>
					<g>
						<g>
							<path fill="#A2CCE4" d="M44.923,89.569c0.69-0.581,2.15-0.347,3.686-0.722c-0.226,0.442-0.363,1.039-0.363,1.823l0,0
								C46.793,90.452,45.44,90.074,44.923,89.569z"/>
						</g>
						<g>
							<path fill="#071222" d="M48.228,90.805c-0.986-0.146-2.742-0.494-3.4-1.14c-0.026-0.024-0.041-0.062-0.04-0.104
								c0.001-0.036,0.019-0.072,0.048-0.097c0.443-0.377,1.153-0.434,1.974-0.505c0.54-0.047,1.154-0.097,1.766-0.247
								c0.051-0.013,0.107,0.007,0.139,0.049c0.033,0.043,0.04,0.1,0.016,0.147c-0.229,0.451-0.347,1.045-0.347,1.76
								c0,0.04-0.018,0.079-0.047,0.104c-0.024,0.021-0.058,0.032-0.089,0.032C48.24,90.807,48.234,90.807,48.228,90.805z
								 M46.833,89.232c-0.693,0.06-1.298,0.108-1.69,0.348c0.498,0.372,1.557,0.708,2.97,0.932c0.013-0.567,0.1-1.062,0.261-1.473
								C47.833,89.149,47.305,89.193,46.833,89.232z"/>
						</g>
					</g>
					<g>
						<g>
							<path fill="#618EA2" d="M45.143,89.58c0.136-0.083,0.299-0.142,0.482-0.188c0.45,0.188,1.97,0.769,2.556,0.378
								c-0.038,0.233-0.062,0.479-0.067,0.744C46.7,90.288,45.64,89.952,45.143,89.58z"/>
						</g>
					</g>
				</g>
				<g>
					<g>
						<path fill="#38120D" d="M47.299,89.67c-0.374,0.15-0.673,0.248-0.683,0.225c-0.011-0.023,0.272-0.164,0.644-0.321
							c-0.097-0.243-0.145-0.447-0.106-0.465c0.038-0.017,0.147,0.164,0.251,0.405c0.373-0.151,0.673-0.25,0.682-0.226
							c0.011,0.024-0.272,0.165-0.644,0.322c0.098,0.244,0.145,0.447,0.106,0.464C47.513,90.089,47.403,89.911,47.299,89.67z"/>
					</g>
				</g>
			</g>
			<g>
				<g>
					<path fill="#EFD7A7" d="M52.891,90.63c0.004,0.069,0.012,0.138,0.012,0.21c0,2.221-7.626-0.062-7.98-1.271
						C46.136,90.756,51.949,91.232,52.891,90.63z"/>
				</g>
				<g>
					<path fill="#38120D" d="M44.792,89.608c-0.018-0.062,0.008-0.124,0.061-0.155c0.052-0.032,0.12-0.025,0.165,0.02
						c0.784,0.768,3.746,1.282,6.02,1.282c0.893,0,1.542-0.086,1.779-0.236c0.042-0.026,0.09-0.03,0.134-0.012
						c0.043,0.022,0.07,0.067,0.075,0.113l0.004,0.044c0.003,0.059,0.008,0.113,0.008,0.175c0,0.486-0.315,1.07-1.829,1.07
						C48.904,91.911,45.063,90.533,44.792,89.608z M51.037,91.029c-1.416,0-3.562-0.229-4.99-0.716
						c1.296,0.657,3.566,1.324,5.163,1.324c0.709,0,1.555-0.14,1.555-0.798v-0.001C52.337,90.994,51.614,91.029,51.037,91.029z"/>
				</g>
			</g>
			<g>
				<g>
					<g>
						<path fill="#FDFFE9" d="M48.247,90.67c0-5.213,5.952-2.204,4.645-0.04C52.351,90.977,50.205,90.966,48.247,90.67z"/>
					</g>
					<g>
						<path fill="#38120D" d="M48.228,90.805c-0.067-0.009-0.117-0.067-0.117-0.135c0-2.73,1.555-3.025,2.224-3.025
							c1.027,0,2.164,0.647,2.648,1.506c0.3,0.53,0.309,1.081,0.024,1.55c-0.011,0.017-0.024,0.03-0.043,0.045
							c-0.364,0.231-1.247,0.282-1.925,0.282l0,0C50.175,91.029,49.175,90.949,48.228,90.805z M52.747,89.283
							c-0.442-0.778-1.478-1.365-2.413-1.365c-1.213,0-1.917,0.959-1.95,2.635c0.901,0.133,1.84,0.202,2.657,0.202l0,0
							c0.862,0,1.495-0.078,1.752-0.224C53.064,90.053,52.919,89.59,52.747,89.283z"/>
					</g>
				</g>
				<g>
					<g>
						<path fill="#EFD7A7" d="M51.039,90.754L51.039,90.754c-0.815,0-1.754-0.069-2.656-0.203c0.012-0.693,0.144-1.269,0.38-1.698
							c-0.256,0.823,2.276,2.384,4.176,1.067c0.009,0.194-0.028,0.397-0.148,0.608C52.534,90.675,51.901,90.754,51.039,90.754z"/>
					</g>
				</g>
			</g>
		</g>
		<g>
			<g>
				<path fill="#FFB888" d="M34.676,49.503c-3.403,1.284-5.999,2.261-7.884,4.305c-3.095,3.352-4.009,7.471-4.231,7.938
					c-0.387,0.815-5.97,2.372-6.343,2.518c-0.514,0.197-0.758,1.078-0.271,1.103c0.487,0.024,2.594-0.306,2.594-0.306
					s-2.284,1.691-2.729,2.023c-0.445,0.328,0.198,1.354,0.574,1.078c0.376-0.279,3.202-2.375,3.202-2.375s-1.83,2.561-2.17,3.039
					c-0.341,0.478,0.495,1.479,0.777,1.092c0.283-0.388,3.009-3.387,3.009-3.387s-1.556,3.25-1.769,3.698
					c-0.215,0.449,0.667,1.187,0.792,0.89c0.123-0.296,2.684-4.527,2.684-4.527s0.556,0.911,0.911,1.489
					c0.354,0.58,1.482,0.748,1.323,0.259c-0.157-0.491-0.532-4.848-0.569-5.771c-0.017-0.415,1.693-4.926,4.373-7.379
					c1.538-1.406,3.319-2.378,4.816-3.005C34.061,51.234,34.367,50.332,34.676,49.503z"/>
				<path fill="#38120D" d="M20.112,71.326c-0.236,0-0.554-0.272-0.712-0.523c-0.145-0.229-0.178-0.452-0.091-0.629l1.366-2.859
					c-0.822,0.91-2.183,2.422-2.372,2.684c-0.066,0.094-0.166,0.146-0.275,0.146c-0.277,0-0.559-0.303-0.702-0.58
					c-0.16-0.311-0.167-0.607-0.02-0.816l1.668-2.334c-0.863,0.638-2.251,1.67-2.507,1.86c-0.066,0.049-0.141,0.071-0.222,0.071
					c-0.298,0-0.568-0.334-0.672-0.648c-0.101-0.304-0.042-0.575,0.158-0.724l2.289-1.695c-0.665,0.097-1.744,0.244-2.081,0.226
					c-0.208-0.009-0.353-0.142-0.385-0.349c-0.055-0.34,0.202-0.859,0.612-1.017c0.069-0.024,0.273-0.089,0.612-0.192
					c1.327-0.404,5.364-1.636,5.66-2.256c0.031-0.066,0.088-0.245,0.159-0.471c0.403-1.277,1.474-4.668,4.094-7.5
					c1.907-2.066,4.564-3.07,7.928-4.338c0.05-0.02,0.111-0.009,0.147,0.029c0.04,0.039,0.056,0.092,0.037,0.143
					c-0.3,0.803-0.608,1.704-0.914,2.674c-0.013,0.038-0.042,0.068-0.077,0.084c-1.276,0.536-3.142,1.485-4.777,2.979
					c-2.65,2.427-4.345,6.875-4.329,7.276c0.042,1.033,0.418,5.283,0.563,5.734c0.048,0.148,0.007,0.248-0.036,0.308
					c-0.074,0.104-0.21,0.157-0.395,0.157l0,0c-0.376,0-0.907-0.229-1.141-0.61l-0.793-1.298c-1.025,1.694-2.476,4.113-2.56,4.318
					C20.307,71.271,20.221,71.326,20.112,71.326z M21.202,66.399c0.026,0,0.053,0.006,0.077,0.02
					c0.055,0.039,0.076,0.112,0.046,0.174l-1.771,3.698c-0.059,0.121,0.023,0.281,0.077,0.367c0.144,0.229,0.389,0.396,0.481,0.396
					h0.004c0.103-0.28,2.41-4.098,2.673-4.532c0.024-0.04,0.067-0.065,0.116-0.065l0,0c0.047,0,0.091,0.024,0.116,0.065l0.912,1.489
					c0.176,0.289,0.611,0.48,0.907,0.48l0,0c0.112,0,0.163-0.025,0.174-0.044c0.007-0.011,0.006-0.035-0.003-0.065
					c-0.163-0.509-0.539-4.876-0.576-5.809c-0.017-0.413,1.71-5.009,4.416-7.483c1.639-1.499,3.503-2.459,4.797-3.007
					c0.267-0.84,0.533-1.629,0.795-2.347c-3.206,1.21-5.743,2.203-7.554,4.166c-2.578,2.791-3.636,6.138-4.034,7.396
					c-0.08,0.254-0.133,0.426-0.173,0.507c-0.307,0.643-3.116,1.574-5.826,2.399c-0.31,0.096-0.534,0.162-0.593,0.187
					c-0.278,0.106-0.48,0.49-0.443,0.72c0.018,0.104,0.072,0.118,0.13,0.121l0.051,0.002c0.558,0,2.495-0.304,2.514-0.307
					c0.062-0.011,0.123,0.022,0.147,0.083c0.024,0.058,0.006,0.122-0.044,0.16l-2.729,2.023c-0.146,0.106-0.091,0.327-0.061,0.42
					c0.103,0.309,0.347,0.533,0.473,0.438c0.377-0.275,3.202-2.372,3.202-2.372c0.054-0.04,0.129-0.036,0.177,0.01
					c0.048,0.051,0.055,0.122,0.016,0.179l-2.17,3.04c-0.086,0.116-0.07,0.317,0.041,0.534c0.134,0.257,0.344,0.429,0.459,0.429
					c0.021,0,0.037-0.005,0.057-0.028c0.284-0.391,2.907-3.276,3.019-3.397C21.127,66.413,21.164,66.399,21.202,66.399z"/>
			</g>
		</g>
		<g>
			<g>
				<path fill="#FDFFE9" d="M41.28,47.338c-1.849,0-3.627-0.294-5.294-0.834c-3.131,5.818-6.782,23.38-5.736,24.583
					c1.815,2.085,20.24,2.085,22.509-0.818c0.805-1.03-6.674-18.89-7.878-23.311C43.718,47.205,42.515,47.338,41.28,47.338z"/>
				<path fill="#38120D" d="M40.073,72.697c-3.968,0-8.948-0.397-9.924-1.522c-1.147-1.318,2.631-19.001,5.718-24.733
					c0.032-0.059,0.099-0.086,0.162-0.066c2.827,0.913,5.889,1.073,8.823,0.448c0.068-0.015,0.009,0.062,0.028,0.133
					c0.461,1.69,1.988,5.355,3.464,9.272c3.06,8.109,5.027,13.475,4.521,14.123C51.599,71.973,45.529,72.697,40.073,72.697z
					 M36.053,46.669c-3.175,6.014-6.655,23.229-5.701,24.326c0.732,0.843,4.729,1.429,9.72,1.429c5.389,0,11.369-0.692,12.579-2.242
					c0.449-0.574-2.447-8.252-4.561-13.859c-1.444-3.828-2.811-7.454-3.307-9.206C41.876,47.712,38.854,47.554,36.053,46.669z"/>
			</g>
			<g>
				<path fill="#FEDCB6" d="M40.231,47.438c1.97,0.792,4.55,2.4,5.813,3.403c-0.566-1.56-1.019-2.866-1.262-3.724
					C43.281,47.424,41.748,47.529,40.231,47.438z"/>
			</g>
		</g>
		<g>
			<g>
				<path fill="#FFB888" d="M77.036,42.722c0.022-0.365,0.227-2.13,0-2.336c-0.227-0.204-0.975-0.612-1.157-0.997
					c-0.182-0.386-0.249-1.951-0.431-2.201c-0.182-0.25-2.189-0.926-2.189-0.926l0,0c-0.156,0.473-0.416,0.893-0.798,1.096l0,0
					c0.354,0.456,0.625,0.959,0.594,1.214c-0.067,0.579-2.687,0.783-2.687,0.783s-0.94,0.646-2.034,0.831l0.003,0.002
					c0,0,0.549,0.477,0.549,1.022c0.308,0.154,1.94,0.731,2.229,1.548c0.291,0.816-1.03,2.197-1.395,1.566
					c-0.176-0.305-0.401-0.55-0.649-0.753c0.059,0.203,0.137,0.519,0.201,0.931c0.103,0.671-0.984,1.639-1.42,1.026
					c0,0.002,0,0.005,0,0.007c-0.041,0.352-0.678,0.89-1.061,1.021c-0.052,0.515-1.304,1.408-1.304,0.709
					c0-0.138-0.024-0.272-0.062-0.402c-1.298,3.159-11.106,15.641-20.267,7.524c-0.549,0.809-1.182,1.684-1.795,2.472
					c11.605,8.991,22.064-5.323,24.815-7.374c0.259-0.194,2.695-0.62,3.372-0.658c0.676-0.038,6.514-3.971,6.468-4.344
					C77.966,44.11,77.013,43.086,77.036,42.722z"/>
				<path fill="#38120D" d="M51.268,59.934C51.266,59.934,51.266,59.934,51.268,59.934c-2.763,0-5.451-0.999-7.992-2.965
					c-0.028-0.022-0.046-0.058-0.051-0.092c-0.004-0.037,0.005-0.072,0.028-0.103c0.571-0.73,1.207-1.604,1.791-2.462
					c0.021-0.034,0.058-0.057,0.096-0.061c0.038-0.007,0.077,0.008,0.107,0.033c1.996,1.768,4.164,2.664,6.443,2.664h0.001
					c6.974,0,12.758-8.077,13.608-10.139c0.021-0.053,0.077-0.086,0.134-0.084c0.058,0.001,0.107,0.042,0.124,0.099
					c0.045,0.156,0.067,0.301,0.067,0.441c0,0.074,0.019,0.099,0.023,0.105c0.008,0.01,0.026,0.015,0.053,0.015
					c0.285,0,0.923-0.52,0.957-0.844c0.005-0.053,0.042-0.098,0.091-0.115c0.355-0.123,0.937-0.63,0.97-0.908
					c0.007-0.056,0.047-0.106,0.103-0.12c0.054-0.015,0.113,0.002,0.146,0.049c0.064,0.093,0.151,0.139,0.257,0.139
					c0.196,0,0.449-0.15,0.648-0.381c0.196-0.226,0.298-0.491,0.267-0.684c-0.048-0.322-0.117-0.639-0.197-0.914
					c-0.016-0.059,0.007-0.118,0.056-0.151c0.048-0.033,0.115-0.029,0.162,0.007c0.28,0.23,0.509,0.496,0.68,0.79
					c0.144,0.25,0.58-0.032,0.888-0.466c0.25-0.354,0.35-0.732,0.26-0.985c-0.226-0.638-1.424-1.151-1.935-1.372
					c-0.1-0.042-0.179-0.077-0.226-0.101c-0.046-0.023-0.075-0.069-0.075-0.122c0-0.477-0.498-0.915-0.503-0.917
					c-0.04-0.035-0.058-0.09-0.044-0.141c0.015-0.05,0.056-0.088,0.108-0.097c1.049-0.179,1.969-0.803,1.978-0.809
					c0.02-0.013,0.042-0.022,0.066-0.024c1.212-0.094,2.531-0.383,2.565-0.663c0.019-0.166-0.169-0.602-0.565-1.116
					c-0.025-0.031-0.035-0.072-0.026-0.112c0.009-0.038,0.034-0.071,0.069-0.09c0.396-0.209,0.616-0.67,0.732-1.019
					c0.012-0.035,0.037-0.063,0.068-0.08c0.165-0.078,2.211,0.764,2.36,0.967c0.108,0.149,0.164,0.537,0.246,1.158
					c0.056,0.421,0.118,0.898,0.198,1.066c0.112,0.238,0.51,0.513,0.798,0.714c0.136,0.092,0.254,0.175,0.327,0.243
					c0.179,0.159,0.197,0.726,0.068,2.169c-0.011,0.121-0.02,0.215-0.022,0.275c-0.01,0.146,0.276,0.558,0.483,0.858
					c0.249,0.359,0.465,0.67,0.491,0.878c0.01,0.082-0.042,0.156-0.093,0.22c-0.604,0.722-5.786,4.234-6.5,4.275
					c-0.72,0.042-3.087,0.474-3.298,0.632c-0.421,0.315-1.036,0.93-1.816,1.713C63.433,54.32,57.837,59.934,51.268,59.934z
					 M43.552,56.836c2.459,1.874,5.054,2.825,7.714,2.825c6.458,0.002,12.002-5.559,14.98-8.547c0.786-0.789,1.408-1.413,1.846-1.74
					c0.309-0.23,2.831-0.65,3.445-0.685c0.601-0.035,6.02-3.645,6.333-4.213c-0.036-0.151-0.25-0.46-0.439-0.734
					c-0.34-0.492-0.547-0.805-0.534-1.031c0.005-0.061,0.013-0.159,0.023-0.283c0.105-1.175,0.111-1.831,0.02-1.945
					c-0.06-0.052-0.168-0.129-0.297-0.218c-0.332-0.23-0.746-0.518-0.889-0.821c-0.097-0.206-0.157-0.663-0.222-1.146
					c-0.051-0.394-0.123-0.932-0.197-1.032c-0.103-0.13-1.09-0.524-1.995-0.834c-0.166,0.435-0.397,0.762-0.684,0.962
					c0.167,0.23,0.438,0.64,0.513,0.975c0.018,0.078,0.514-0.475,0.508-0.41c-0.003,0.026-0.501,0.679-0.511,0.704
					c-0.224,0.571-2.107,0.77-2.758,0.824c-0.16,0.106-0.905,0.574-1.807,0.784c0.166,0.19,0.38,0.5,0.413,0.851
					c0.04,0.018,0.087,0.037,0.141,0.062c0.591,0.253,1.819,0.78,2.083,1.53c0.12,0.341,0.011,0.803-0.294,1.234
					c-0.219,0.311-0.603,0.674-0.959,0.674c-0.165,0-0.303-0.082-0.387-0.228c-0.083-0.141-0.176-0.273-0.285-0.397
					c0.034,0.157,0.063,0.32,0.089,0.486c0.042,0.275-0.082,0.612-0.33,0.902c-0.357,0.416-0.856,0.584-1.163,0.39
					c-0.185,0.356-0.656,0.738-1.002,0.884c-0.122,0.456-0.821,1.003-1.211,1.003c-0.132,0-0.21-0.056-0.254-0.104
					c-0.05-0.056-0.082-0.13-0.09-0.223c-1.343,2.592-6.961,9.89-13.663,9.89h0c-2.305,0-4.493-0.886-6.507-2.63
					C44.646,55.372,44.073,56.16,43.552,56.836z"/>
			</g>
		</g>
		<g>
			<g>
				<path fill="#A2CCE4" d="M37.873,47.254c-1.89,1.672-1.46,8.036,2.929,11.941c0.769,0.684,5.848-6.766,5.915-7.437
					S39.084,46.182,37.873,47.254z"/>
				<path fill="#071222" d="M40.928,59.375L40.928,59.375c-0.083,0-0.158-0.026-0.217-0.079c-2.981-2.653-4.041-6.255-4.037-8.743
					c0.002-1.54,0.407-2.779,1.108-3.402c0.141-0.124,0.348-0.187,0.62-0.187c1.991,0,7.277,3.344,8.251,4.42
					c0.148,0.163,0.208,0.283,0.199,0.387C46.801,52.285,42.203,59.375,40.928,59.375z M38.403,47.236
					c-0.202,0-0.351,0.041-0.438,0.118c-0.645,0.571-1.016,1.736-1.017,3.199c-0.003,2.428,1.032,5.945,3.946,8.54
					c0.003,0.003,0.011,0.01,0.034,0.01c1.037,0,5.6-6.819,5.653-7.359C46.5,51.26,40.517,47.236,38.403,47.236z"/>
			</g>
		</g>
		<g>
			<path fill="#FFB888" d="M71.146,36.444c0.277-0.176,0.864,0.331,1.314,0.914l0,0c1.256-0.669,1.193-3.682,0.469-3.21
				c-3.471,2.262-5.128,1.226-5.174,1.543c-0.044,0.316-0.177,1.379-0.228,1.78C68.912,37.289,70.611,36.785,71.146,36.444z"/>
			<path fill="#38120D" d="M67.527,37.606c-0.035,0-0.07-0.015-0.096-0.041c-0.03-0.03-0.044-0.072-0.038-0.114l0.053-0.427
				c0.061-0.481,0.142-1.12,0.175-1.356c0.018-0.122,0.114-0.185,0.286-0.185c0.061,0,0.138,0.005,0.23,0.014
				c0.144,0.012,0.321,0.025,0.54,0.025c1.252,0,2.658-0.503,4.177-1.492c0.074-0.048,0.148-0.072,0.221-0.072
				c0.117,0,0.329,0.065,0.439,0.506c0.186,0.743,0.005,2.479-0.99,3.011c-0.059,0.03-0.132,0.016-0.171-0.039
				c-0.409-0.527-0.851-0.896-1.077-0.896c-0.024,0-0.042,0.005-0.056,0.015c-0.586,0.373-2.337,0.871-3.675,1.046
				C67.539,37.604,67.533,37.606,67.527,37.606z M67.884,35.758c-0.039,0.266-0.112,0.853-0.168,1.301l-0.031,0.25
				c1.366-0.202,2.913-0.68,3.387-0.982c0.06-0.038,0.127-0.058,0.204-0.058c0.425,0,0.973,0.606,1.216,0.908
				c0.742-0.507,0.921-1.992,0.758-2.646c-0.05-0.207-0.126-0.299-0.176-0.299c-0.02,0-0.043,0.01-0.07,0.026
				c-1.565,1.019-3.02,1.538-4.326,1.538c-0.229,0-0.421-0.015-0.56-0.026C68.017,35.762,67.93,35.757,67.884,35.758z"/>
		</g>
		<g>
			<g>
				<path fill="#B18061" d="M66.502,46.468c-0.033-0.432-1.032-1.88-2.309-2.518c-0.206,0.27-0.831,0.513-0.618,0.814
					c0.212,0.302,1.911,1.27,1.911,2.501c0,0.698,1.251-0.194,1.304-0.709l0,0C66.63,46.61,66.512,46.598,66.502,46.468z"/>
				<path fill="#211B16" d="M65.697,47.659c-0.168,0-0.348-0.102-0.348-0.391c0-0.865-0.928-1.611-1.481-2.06
					c-0.197-0.16-0.34-0.274-0.405-0.365c-0.217-0.31,0.111-0.557,0.35-0.738c0.105-0.079,0.215-0.163,0.272-0.236
					c0.04-0.052,0.111-0.067,0.168-0.04c1.286,0.641,2.345,2.127,2.383,2.627c0.016-0.006,0.049-0.009,0.108-0.029
					c0.044-0.016,0.092-0.006,0.128,0.022c0.036,0.028,0.056,0.074,0.05,0.12C66.877,47.04,66.112,47.659,65.697,47.659z
					 M64.224,44.12c-0.071,0.071-0.16,0.138-0.246,0.203c-0.247,0.186-0.349,0.284-0.292,0.363c0.042,0.06,0.192,0.18,0.353,0.311
					c0.592,0.477,1.582,1.277,1.582,2.27c0,0.121,0.038,0.121,0.076,0.121c0.237,0,0.716-0.359,0.893-0.667
					c-0.129-0.018-0.213-0.108-0.223-0.243C66.337,46.097,65.39,44.747,64.224,44.12z"/>
			</g>
			<g>
				<path fill="#B18061" d="M67.737,45.294c-0.124-0.419-2.196-2.031-3.233-2.572c-0.266,0.359-0.667,1.062-0.417,1.176
					c1.326,0.604,2.382,2.127,2.416,2.571c0.035,0.441,1.29-0.433,1.349-0.932c0-0.002,0-0.004,0-0.008
					C67.806,45.467,67.767,45.393,67.737,45.294z"/>
				<path fill="#211B16" d="M66.639,46.724L66.639,46.724c-0.155,0-0.261-0.096-0.272-0.247c-0.028-0.361-1.01-1.853-2.337-2.457
					c-0.073-0.033-0.125-0.097-0.147-0.178c-0.094-0.364,0.449-1.117,0.512-1.201c0.04-0.055,0.113-0.073,0.173-0.041
					c0.983,0.513,3.155,2.158,3.302,2.654c0.022,0.073,0.052,0.135,0.093,0.193c0.02,0.026,0.029,0.061,0.024,0.093
					C67.932,46.011,67.044,46.724,66.639,46.724z M64.544,42.896c-0.275,0.401-0.441,0.797-0.397,0.88
					c1.365,0.619,2.453,2.2,2.49,2.679l0.001-0.005c0.27,0,0.981-0.565,1.068-0.894c-0.042-0.068-0.076-0.144-0.1-0.225
					C67.511,45.011,65.683,43.524,64.544,42.896z"/>
			</g>
			<g>
				<path fill="#B18061" d="M69.07,43.569c-1.142-0.936-2.809-0.922-2.839-1.101c-0.108-0.604-0.502-1.334-0.774-1.801
					c-0.265,0.618-1.525,1.771-1.048,2.005c1.004,0.49,3.201,2.191,3.329,2.622c0.314,1.053,1.646-0.052,1.534-0.792
					C69.208,44.089,69.127,43.772,69.07,43.569z"/>
				<path fill="#211B16" d="M68.217,45.865c-0.168,0-0.473-0.068-0.611-0.531c-0.102-0.343-2.197-2.021-3.257-2.538
					c-0.092-0.045-0.153-0.119-0.175-0.212c-0.067-0.288,0.253-0.706,0.626-1.188c0.216-0.282,0.441-0.573,0.531-0.781
					c0.021-0.047,0.066-0.079,0.117-0.081c0.052-0.004,0.101,0.022,0.126,0.067c0.28,0.483,0.661,1.19,0.783,1.8
					c0.068,0.027,0.24,0.062,0.393,0.092c0.604,0.123,1.618,0.327,2.408,0.974c0.022,0.018,0.038,0.041,0.044,0.067
					c0.083,0.291,0.152,0.611,0.205,0.948c0.042,0.275-0.082,0.614-0.332,0.905C68.82,45.681,68.492,45.865,68.217,45.865z
					 M65.459,40.947c-0.117,0.187-0.276,0.396-0.444,0.612c-0.258,0.336-0.615,0.798-0.577,0.961
					c0.002,0.007,0.004,0.018,0.029,0.03c0.928,0.453,3.247,2.193,3.4,2.706c0.066,0.227,0.182,0.336,0.349,0.336
					c0.195,0,0.45-0.151,0.649-0.383c0.197-0.229,0.299-0.492,0.268-0.687c-0.046-0.312-0.11-0.604-0.185-0.874
					c-0.734-0.582-1.686-0.775-2.257-0.891c-0.405-0.082-0.572-0.114-0.599-0.267C66.008,41.996,65.715,41.407,65.459,40.947z"/>
			</g>
			<g>
				<path fill="#B18061" d="M68.884,41.208c0-0.545-0.549-1.022-0.549-1.022l-0.003-0.001c-0.449,0.076-0.924,0.076-1.369-0.083
					c-0.651-0.231-1.103-0.772-1.322-1.301h-0.001c0,0-0.547,1.195-0.429,1.436c0.119,0.241,0.868,1.364,1.022,2.231
					c0.039,0.219,2.5,0.149,3.488,1.855c0.365,0.63,1.686-0.749,1.394-1.566C70.824,41.939,69.191,41.363,68.884,41.208z"/>
				<path fill="#211B16" d="M69.987,44.619L69.987,44.619c-0.166,0-0.303-0.082-0.387-0.227c-0.688-1.188-2.131-1.48-2.907-1.634
					c-0.403-0.082-0.572-0.115-0.599-0.267c-0.118-0.666-0.603-1.494-0.864-1.938c-0.069-0.119-0.122-0.207-0.146-0.258
					c-0.133-0.269,0.254-1.175,0.427-1.552c0.028-0.063,0.101-0.095,0.167-0.073c0.038,0.013,0.068,0.042,0.083,0.078
					c0.239,0.576,0.705,1.033,1.242,1.225c0.376,0.135,0.814,0.16,1.302,0.078c0.036-0.005,0.073,0.002,0.103,0.024
					c0.035,0.028,0.553,0.486,0.604,1.044c0.04,0.018,0.087,0.038,0.141,0.062c0.591,0.253,1.819,0.781,2.084,1.531
					c0.121,0.34,0.011,0.802-0.294,1.234C70.728,44.256,70.344,44.619,69.987,44.619z M66.355,42.399
					c0.068,0.026,0.24,0.061,0.393,0.091c0.817,0.164,2.339,0.47,3.087,1.764c0.039,0.064,0.084,0.092,0.152,0.092l0,0
					c0.199,0,0.509-0.235,0.737-0.558c0.25-0.354,0.351-0.733,0.261-0.986c-0.226-0.638-1.424-1.151-1.935-1.372
					c-0.101-0.042-0.18-0.077-0.226-0.101s-0.076-0.069-0.076-0.123c0-0.392-0.338-0.76-0.46-0.879
					c-0.509,0.078-0.97,0.044-1.371-0.099c-0.522-0.186-0.982-0.589-1.273-1.109c-0.211,0.504-0.348,0.957-0.312,1.056
					c0.022,0.044,0.071,0.13,0.135,0.238C65.732,40.866,66.217,41.694,66.355,42.399z"/>
			</g>
			<g>
				<path fill="#B18061" d="M73.053,38.571c0.068-0.579-1.412-2.441-1.906-2.127c-0.749,0.476-3.776,1.277-5.031,1.057
					c-1.124-0.197-0.685,2.058,0.847,2.6c1.532,0.545,3.403-0.748,3.403-0.748S72.986,39.15,73.053,38.571z"/>
				<path fill="#211B16" d="M67.779,40.373L67.779,40.373c-0.309,0-0.599-0.047-0.863-0.142c-1.124-0.399-1.669-1.638-1.551-2.317
					c0.068-0.404,0.348-0.622,0.773-0.546c0.135,0.023,0.296,0.036,0.479,0.036c1.428,0,3.82-0.671,4.454-1.074
					c0.06-0.038,0.127-0.057,0.204-0.057c0.363,0,0.82,0.453,1.061,0.724c0.385,0.434,0.758,1.008,0.837,1.398
					c0.015,0.072,0.225-0.092,0.219-0.037c-0.003,0.027-0.216,0.281-0.224,0.307c-0.224,0.57-2.107,0.769-2.758,0.824
					C70.201,39.626,69.017,40.373,67.779,40.373z M65.983,37.625c-0.194,0-0.312,0.113-0.351,0.335
					c-0.098,0.573,0.399,1.668,1.375,2.015c0.234,0.083,0.495,0.125,0.773,0.125c1.249,0,2.496-0.85,2.507-0.857
					c0.021-0.015,0.329-0.366,0.423-1.036c0.179,0.493-0.2,0.999-0.122,0.99c1.141-0.111,2.298-0.38,2.331-0.642
					c0.027-0.242-0.324-0.86-0.784-1.378c-0.341-0.385-0.68-0.633-0.859-0.633c-0.024,0-0.042,0.005-0.057,0.016
					c-0.66,0.421-3.134,1.115-4.601,1.115c-0.201,0-0.378-0.014-0.527-0.04C66.053,37.628,66.017,37.625,65.983,37.625z"/>
			</g>
		</g>
		<g>
			<g>
				<g>
					<g>
						<path fill="#FFB888" d="M22.097,29.422c0,0.005,0.001,0.011,0.001,0.017c0.828-0.926,2.304-0.776,4.134,1.835
							c0.138-1.036,1.321-10.018,1.627-10.224c0.306-0.204,2.996,1.259,3.334,1.157c0.34-0.102,2.111-4.729,2.588-4.833
							c0.477-0.103,6.846,2.995,7.337,3.063c0.492,0.067,5.324-3.369,5.665-3.403c0.341-0.035,3.649,3.71,4.157,3.744
							c0.506,0.033,3.629-1.589,3.629-1.589s3.139,3.324,3.8,8.897l0,0l0,0c0.079,0.668,0.12,1.348,0.12,2.038
							c0,9.504-7.705,17.212-17.212,17.212c-7.16,0-13.296-4.374-15.891-10.593c-4.182-0.708-4.746-5.66-3.298-7.298
							C22.093,29.438,22.095,29.432,22.097,29.422z"/>
						<path fill="#38120D" d="M25.293,36.866c-2.417-0.443-3.377-2.19-3.732-3.2c-0.555-1.568-0.382-3.363,0.408-4.286
							c0.012-0.033,0.037-0.059,0.066-0.073c0.323-0.341,0.724-0.522,1.162-0.522c0.894,0,1.911,0.736,2.947,2.133
							c1.301-9.752,1.53-9.905,1.642-9.979c0.042-0.028,0.097-0.042,0.165-0.042c0.311,0,1.028,0.314,1.788,0.645
							c0.578,0.252,1.232,0.537,1.403,0.545c0.145-0.104,0.628-1.164,1.021-2.015c0.86-1.875,1.298-2.765,1.594-2.829
							c0.017-0.002,0.036-0.005,0.056-0.005c0.38,0,2.148,0.784,4.604,1.893c1.25,0.565,2.543,1.149,2.721,1.173
							c0.292,0,2.219-1.263,3.495-2.099c1.429-0.935,1.983-1.29,2.158-1.307c0.199,0,0.615,0.388,1.946,1.724
							c0.789,0.792,1.98,1.989,2.224,2.021c0.383,0,2.332-0.941,3.55-1.573c0.054-0.028,0.119-0.018,0.161,0.026
							c0.031,0.033,3.176,3.422,3.836,8.975c0.08,0.675,0.121,1.367,0.121,2.054c0,9.565-7.782,17.348-17.347,17.348
							C34.279,47.474,28.013,43.313,25.293,36.866z M50.932,20.915L50.932,20.915c-0.288-0.02-0.984-0.688-2.392-2.1
							c-0.691-0.694-1.546-1.553-1.752-1.641c-0.194,0.069-1.157,0.702-2.009,1.258c-1.977,1.295-3.297,2.142-3.645,2.142l0,0
							c-0.006,0-0.027,0-0.034-0.002c-0.21-0.029-1.153-0.451-2.799-1.195c-1.747-0.789-4.14-1.869-4.484-1.871
							c-0.227,0.103-0.939,1.652-1.409,2.678c-0.756,1.646-0.985,2.099-1.172,2.154c-0.025,0.007-0.052,0.011-0.082,0.011
							c-0.224,0-0.726-0.212-1.525-0.559c-0.625-0.274-1.406-0.614-1.682-0.625c-0.088,0.189-0.428,1.495-1.552,9.92l-0.026,0.206
							c-0.008,0.057-0.048,0.101-0.103,0.114c-0.054,0.014-0.112-0.008-0.144-0.055c-1.33-1.897-2.325-2.294-2.926-2.294
							c-0.381,0-0.717,0.158-0.996,0.471c-0.002,0.002-0.004,0.004-0.007,0.006v0.001c-0.746,0.845-0.906,2.543-0.377,4.039
							c0.34,0.964,1.261,2.639,3.595,3.034c0.046,0.008,1.167,0.227,1.187,0.271c0.028,0.068-1.138-0.032-1.107,0.037
							c2.708,6.267,8.952,10.283,15.791,10.283c9.415,0,17.074-7.659,17.074-17.074c0-0.677-0.04-1.356-0.118-2.023
							c-0.595-5.004-3.238-8.217-3.696-8.743C53.958,19.661,51.491,20.915,50.932,20.915z"/>
					</g>
				</g>
				<g>
					<g>
						<path fill="#38120D" d="M23.539,31.303c0.583,0.307,1.379,0.446,1.716,1.074c0.023,0.041,0.021,0.068-0.023,0.091
							c-0.491,0.254-1.135,0.129-1.559,0.517c-0.533,0.491,1.339,1.381,1.692,1.655c0.175,0.136-1.558-0.698-2.118-1.163
							c-0.239-0.198-0.038-0.605,0.171-0.739c0.426-0.271,0.94-0.234,1.402-0.404c0.161-0.059-0.719-0.568-0.787-0.598
							C23.786,31.629,23.416,31.239,23.539,31.303L23.539,31.303z"/>
					</g>
				</g>
			</g>
			<g>
				<g>
					<g>
						<ellipse fill="#38120D" cx="56.103" cy="29.439" rx="0.713" ry="2.667"/>
					</g>
					<g>
						<ellipse fill="#FFFFFF" cx="56.437" cy="28.088" rx="0.199" ry="0.658"/>
					</g>
				</g>
				<g>
					<g>
						<ellipse fill="#38120D" cx="40.291" cy="28.747" rx="0.83" ry="3.093"/>
					</g>
					<g>
						<ellipse fill="#FFFFFF" cx="40.572" cy="27.18" rx="0.229" ry="0.763"/>
					</g>
				</g>
				<g>
					<g>
						<g>
							<path fill="#38120D" d="M34.902,25.12c1.427-2.67,6.288-2.803,7.937-1.534c0.085,0.064,0.173-0.065,0.124-0.16
								c-1.258-2.421-7.287-1.977-8.133,1.672C34.81,25.183,34.857,25.203,34.902,25.12z"/>
						</g>
					</g>
				</g>
				<path fill="#38120D" d="M57.717,25.011c-0.084-0.276-2.013-1.166-3.147-0.689c1.135,0.34,2.769,1.202,3.273,1.576
					C58.011,25.703,57.8,25.288,57.717,25.011z"/>
				<g>
					<path fill="#38120D" d="M50.84,35.486c-0.189-0.206-0.473-0.309-0.842-0.309c-0.579,0-1.149,0.248-1.305,0.336
						c-0.039,0.022-0.086,0.024-0.125,0.004c-0.042-0.021-0.068-0.058-0.075-0.102c-0.023-0.143,0.022-0.287,0.134-0.417
						c0.246-0.288,0.812-0.496,1.346-0.496c0.265,0,0.632,0.051,0.876,0.297c0.152,0.154,0.229,0.354,0.228,0.597
						c0,0.056-0.036,0.106-0.088,0.125c-0.017,0.005-0.032,0.007-0.047,0.007C50.904,35.53,50.867,35.515,50.84,35.486z
						 M50.707,35.052c-0.015-0.021-0.033-0.042-0.05-0.061c-0.14-0.14-0.383-0.217-0.684-0.217c-0.424,0-0.88,0.15-1.096,0.356
						c0.304-0.116,0.724-0.227,1.122-0.227C50.272,34.902,50.509,34.952,50.707,35.052z"/>
				</g>
				<g>
					<path fill="#38120D" d="M46.892,40.153c1.51,0,2.805-0.378,3.23-0.843c0.05-0.056,0.046-0.142-0.008-0.192
						c-0.056-0.052-0.142-0.046-0.193,0.009c-0.409,0.448-2.128,0.948-4.164,0.679c-1.309-0.174-3.695-0.829-4.959-3.271
						c-0.035-0.066-0.117-0.092-0.184-0.058c-0.066,0.035-0.092,0.118-0.058,0.183c0.979,1.892,2.815,3.105,5.167,3.415
						C46.118,40.127,46.511,40.153,46.892,40.153z"/>
				</g>
			</g>
			<g>
				<g>
					<g>
						<path fill="#612E0F" d="M21.871,15.335c-0.035-0.341-1.022-1.668-0.816-1.837c0.204-0.171,5.548,0.307,5.701,0.067
							c0.154-0.239,6.143-9.393,9.478-9.529c0.722-0.029-0.364,3.524,0,3.335c5.887-3.064,19.502-0.511,19.869,0
							c0.366,0.511-3.124,2.517-2.851,3.064c0.272,0.543,7.487,3.437,7.801,3.878c0.313,0.443-1.54,2.519-1.54,2.519
							s3.881,1.089,4.221,2.246c0.341,1.157-3.676,1.43-5.363,9.01c-0.661-5.573-3.799-8.897-3.799-8.897s-3.124,1.622-3.629,1.588
							c-0.507-0.035-3.816-3.778-4.157-3.744c-0.339,0.034-5.173,3.471-5.665,3.404c-0.491-0.067-6.86-3.166-7.337-3.063
							c-0.476,0.103-2.247,4.731-2.587,4.833s-3.029-1.361-3.334-1.157c-0.306,0.204-1.489,9.187-1.628,10.222l0,0
							c-1.833-2.612-3.307-2.762-4.134-1.835l0,0c-2.197-7.878,0.452-10.837-0.092-11.654c-0.201-0.301-2.382,0.613-2.382,0.205
							C19.625,17.581,21.905,15.675,21.871,15.335z"/>
						<path fill="#38120D" d="M26.234,31.411c-0.043,0-0.086-0.021-0.112-0.058c-1.33-1.897-2.325-2.295-2.925-2.295
							c-0.381,0-0.717,0.158-0.997,0.472c-0.033,0.038-0.083,0.052-0.132,0.042c-0.048-0.012-0.087-0.048-0.101-0.096
							c-1.558-5.586-0.7-8.698-0.239-10.369c0.174-0.632,0.29-1.051,0.167-1.242c0,0.003-0.026-0.004-0.091-0.004
							c-0.215,0-0.598,0.093-0.966,0.184c-0.396,0.096-0.769,0.188-1.009,0.188c-0.309,0-0.34-0.169-0.34-0.243
							c0-0.238,0.388-0.657,1.212-1.485c0.426-0.431,1.009-1.016,1.034-1.166c-0.012-0.104-0.212-0.454-0.375-0.734
							c-0.394-0.683-0.59-1.048-0.394-1.212c0.049-0.041,0.115-0.068,0.527-0.068c0.48,0,1.276,0.04,2.117,0.083
							c0.914,0.045,1.856,0.092,2.471,0.092c0.403,0,0.538-0.022,0.579-0.032c0.364-0.556,6.221-9.429,9.569-9.565c0,0,0,0,0.001,0
							c0.109,0,0.191,0.039,0.253,0.112c0.246,0.291,0.13,1.119-0.062,2.255c-0.056,0.33-0.122,0.724-0.13,0.921
							c1.91-0.952,4.728-1.436,8.383-1.436c5.36,0,11.238,1.119,11.539,1.539c0.249,0.347-0.356,0.858-1.447,1.73
							c-0.479,0.384-1.477,1.182-1.392,1.352c0.157,0.266,2.546,1.343,4.291,2.128c2.318,1.044,3.349,1.524,3.5,1.734
							c0.314,0.442-0.783,1.811-1.406,2.525c0.872,0.26,3.791,1.202,4.107,2.28c0.136,0.462-0.262,0.784-0.861,1.27
							c-1.177,0.957-3.371,2.733-4.499,7.808c-0.016,0.065-0.074,0.117-0.14,0.106c-0.066-0.003-0.12-0.054-0.128-0.12
							c-0.595-5.011-3.237-8.22-3.696-8.744c-0.581,0.3-3.049,1.556-3.582,1.556c-0.314-0.02-1.008-0.687-2.416-2.102
							c-0.691-0.694-1.547-1.552-1.752-1.64c-0.194,0.069-1.157,0.7-2.009,1.258c-1.974,1.294-3.297,2.142-3.644,2.142
							c-0.006,0-0.028-0.001-0.035-0.002c-0.209-0.029-1.152-0.451-2.797-1.194c-1.748-0.791-4.141-1.87-4.493-1.87
							c-0.22,0.101-0.931,1.65-1.403,2.676c-0.756,1.645-0.987,2.098-1.173,2.154c-0.024,0.008-0.051,0.011-0.082,0.011
							c-0.224,0-0.724-0.211-1.523-0.559c-0.635-0.277-1.426-0.622-1.679-0.622c-0.062,0.082-0.381,1.105-1.556,9.915l-0.028,0.21
							c-0.008,0.055-0.048,0.101-0.103,0.114C26.255,31.409,26.245,31.411,26.234,31.411z M23.197,28.786
							c0.895,0,1.911,0.736,2.946,2.133c0.903-6.769,1.291-8.913,1.48-9.616c0.083-0.31-0.494-0.626-0.425-0.626
							c0.067,0,0.908,0.235,1.01,0.262c0.369,0.096,0.937,0.343,1.53,0.603c0.577,0.252,1.232,0.536,1.415,0.536
							c0.13-0.096,0.615-1.155,1.008-2.006c0.596-1.299,0.99-2.126,1.273-2.533c0.126-0.179-0.507-0.563-0.416-0.583
							c0.018-0.003,1.177,0.362,1.56,0.508c0.813,0.309,2.167,0.914,3.837,1.668c1.25,0.564,2.541,1.147,2.723,1.174
							c0.29,0,2.216-1.264,3.492-2.099c0.96-0.628,1.526-0.995,1.842-1.173c0.154-0.085,0.846-0.538,0.897-0.542
							c0,0-0.413,0.462-0.244,0.595c0.291,0.227,0.767,0.693,1.609,1.54c0.789,0.792,1.98,1.988,2.215,2.019
							c0.377,0,2.214-0.879,3.436-1.509c0.042-0.022,0.013-0.491,0.052-0.511c0.053-0.027,0.313,0.561,0.44,0.715
							c0.681,0.823,2.831,3.702,3.527,8.019c1.188-4.633,3.279-6.329,4.427-7.256c0.578-0.469,0.852-0.708,0.772-0.984
							c-0.261-0.89-3.067-1.856-4.127-2.153c-0.044-0.013-0.465,0.514-0.478,0.469c-0.013-0.044,0.383-0.655,0.413-0.691
							c0.949-1.064,1.664-2.161,1.531-2.35c-0.147-0.182-1.869-0.958-3.389-1.642c-2.295-1.035-3.819-1.733-4.285-2.106
							c-0.07-0.058-0.807-0.509-0.827-0.551c-0.037-0.072,0.648,0.251,0.675,0.165c0.102-0.331,0.643-0.781,1.479-1.449
							c0.451-0.36,1.506-1.206,1.396-1.357c-0.323-0.293-5.719-1.426-11.318-1.426c-3.688,0-6.507,0.493-8.378,1.466
							c-0.02,0.01-0.534,0.604-0.555,0.604c-0.05,0,0.272-0.789,0.281-0.954c0.01-0.189,0.056-0.476,0.132-0.919
							c0.114-0.68,0.304-1.817,0.12-2.036c-0.012-0.014-0.02-0.016-0.032-0.016c-2.743,0.11-7.696,6.873-9.373,9.467
							c-0.03,0.045-0.478,0.788-0.624,0.811c-0.064,0.01,0.262-0.692,0.148-0.686c-0.088,0.003-0.191,0.006-0.315,0.006
							c-0.62,0-1.567-0.048-2.482-0.092c-0.839-0.042-1.63-0.082-2.104-0.082c-0.185,0-0.28,0.005-0.33,0.012
							c0.029,0.162,0.278,0.593,0.433,0.859c0.243,0.423,0.393,0.69,0.408,0.853c0.022,0.21-0.306,0.562-1.113,1.374
							c-0.419,0.424-1.041,1.049-1.123,1.261c0.014,0.002,0.033,0.003,0.061,0.003c0.206,0,0.583-0.092,0.944-0.18
							c0.403-0.099,0.784-0.192,1.032-0.192c0.058,0,0.232,0,0.313,0.123c0.196,0.294,0.073,0.736-0.129,1.47
							c-0.448,1.623-1.276,4.627,0.177,9.999C22.466,28.92,22.817,28.786,23.197,28.786z"/>
					</g>
				</g>
				<g>
					<path fill="#4A210F" d="M61.773,17.155c-0.055-0.054-0.114-0.1-0.177-0.12C61.463,16.994,61.552,17.046,61.773,17.155z"/>
				</g>
			</g>
		</g>
	</g>
</g>
<g>
	<rect x="238.427" y="23.278" fill="#8C523F" width="2.219" height="17.353"/>
	<path fill="#74A147" d="M235.561,4.893c-0.929,0.536-1.587,1.32-1.877,2.128c-0.676,0.339-1.308,0.932-1.762,1.718
		c-0.68,1.177-0.783,2.482-0.37,3.423c-0.376,0.441-0.682,0.996-0.874,1.627c-0.219,0.722-0.254,1.443-0.14,2.082
		c0.006,0.05,0.016,0.107,0.028,0.168c0.091,0.402,0.219,0.806,0.211,1.22c-0.721,0.327-1.407,0.944-1.893,1.782
		c-0.379,0.654-0.577,1.349-0.607,1.998c-0.353,0.907-0.09,2.083,0.682,3.071c-0.122,0.453-0.109,0.914,0.058,1.344
		c0.366,0.939,1.386,1.482,2.584,1.499c0.007,0.011,0.014,0.023,0.021,0.035c0.536,0.876,1.668,1.228,2.875,1.011
		c0.736,0.967,2.334,1.335,3.922,0.813c0.201-0.066,0.392-0.144,0.576-0.232c0.129,0.083,0.264,0.159,0.407,0.215
		c0.057,0.022,0.113,0.038,0.174,0.05V4.077c-0.392,0.045-0.76,0.141-1.089,0.284C237.614,4.161,236.544,4.327,235.561,4.893z"/>
	<path fill="#94BF67" d="M251.009,21.658c-0.104-0.353-0.181-0.711-0.152-1.082c0.008-0.085,0.008-0.169,0.005-0.251
		c0.094-0.914-0.232-1.985-0.968-2.896c-0.629-0.78-1.434-1.294-2.224-1.492c0.802-1.43,0.763-3.038-0.021-3.946
		c-0.023-0.073-0.055-0.144-0.087-0.215c0.562-1.26-0.232-2.969-1.865-3.912c-0.529-0.306-1.084-0.495-1.622-0.573
		c0.119-1.348-1.134-2.709-2.939-3.125c-0.539-0.124-1.068-0.147-1.562-0.089v24.767c0.311,0.067,0.641,0.007,0.969-0.014
		c0.505,0.297,1.107,0.503,1.771,0.582c1.513,0.175,2.886-0.375,3.518-1.305c1.547,0.363,3.03-0.135,3.529-1.283
		c0.098-0.222,0.15-0.455,0.164-0.692c1.712-0.99,2.504-2.824,1.769-4.096C251.212,21.897,251.116,21.771,251.009,21.658z"/>
</g>
<g>
	<path fill="#8C523F" d="M153.377,22.753c-0.238,0.897-0.532,1.782-0.818,2.639c-0.407,1.225-0.826,2.486-1.108,3.851
		c-0.045,0.024-0.09,0.05-0.137,0.072c-0.454-1.56-1.137-2.947-1.76-4.208l-0.838-1.673l-1.333,0.902l0.839,1.676
		c0.723,1.465,1.469,2.977,1.835,4.67h-0.004v10.725h2.732V31.324c0.061-0.693,0.157-1.379,0.279-2.06
		c0.021-0.11,0.041-0.229,0.057-0.348c0.242-0.965,0.553-1.899,0.875-2.87c0.294-0.885,0.597-1.8,0.853-2.757L153.377,22.753z"/>
	<path fill="#74A147" d="M148.426,9.319c-0.059-0.003-0.119-0.005-0.179-0.005c-1.409,0-2.66,0.782-3.445,1.991
		c-0.343-0.089-0.698-0.139-1.065-0.139c-2.685,0-4.86,2.531-4.86,5.652c0,0.421,0.041,0.83,0.116,1.223
		c-1.092,0.248-1.871,0.859-1.997,1.708c-0.114,0.763,0.319,1.561,1.1,2.208c-1.387,1.584-2.041,3.391-1.573,4.899
		c0.533,1.724,2.39,2.619,4.717,2.526c0.609,0.991,1.482,1.611,2.453,1.611c1.506,0,2.781-1.498,3.195-3.556
		c0.83-0.556,1.554-0.555,2.145-1.233c0.639,0.693,1.464,0.527,2.375,0.667V6.475C150.073,6.825,148.972,7.896,148.426,9.319z"/>
	<path fill="#94BF67" d="M164.83,18.116c0-2.606-1.72-4.746-3.916-4.981c-0.431-2.238-2.151-3.915-4.212-3.915
		c-0.146,0-0.295,0.009-0.439,0.027c-0.685-1.712-2.18-2.898-3.915-2.898c-0.332,0-0.652,0.042-0.963,0.125v20.399
		c0.187,0.029,0.379,0.044,0.572,0.044c0.792,0,1.534-0.248,2.171-0.68c0.605,1.912,2.193,3.274,4.051,3.274
		c1.018,0,1.954-0.409,2.691-1.092c1.469,0.495,2.907,0.134,3.636-1.083c0.436-0.729,0.547-1.642,0.379-2.578
		c0.595-0.385,1.061-0.958,1.32-1.693c0.57-1.622-0.033-3.55-1.378-4.838C164.828,18.189,164.83,18.154,164.83,18.116z"/>
</g>
<g>
	<path fill="#74A147" d="M212.174,34.843c-0.257-1.215-1.27-2.123-2.485-2.123c-0.204,0-0.401,0.026-0.592,0.075
		c-0.435-0.836-1.27-1.402-2.229-1.402c-1.141,0-2.108,0.804-2.434,1.91c-0.202-0.057-0.415-0.085-0.636-0.085
		c-1.053,0-1.959,0.684-2.346,1.66c-1.396,0.014-2.526,1.228-2.526,2.725c0,1.366,0.938,2.496,2.166,2.694
		c0.157,0.031,0.322,0.048,0.493,0.048h10.282c0.874,0,1.631-0.427,2.014-1.055c0.029-0.041,0.06-0.083,0.087-0.127
		c0.307-0.451,0.489-1.006,0.489-1.607C214.459,36.144,213.459,34.984,212.174,34.843z"/>
	<path fill="#94BF67" d="M216.302,36.143c-0.195-0.928-0.97-1.621-1.897-1.621c-0.156,0-0.309,0.02-0.452,0.056
		c-0.333-0.638-0.969-1.071-1.702-1.071c-0.872,0-1.611,0.615-1.857,1.459c-0.156-0.042-0.317-0.065-0.487-0.065
		c-0.805,0-1.494,0.522-1.791,1.267c-1.067,0.011-1.929,0.939-1.929,2.082c0,1.043,0.718,1.907,1.652,2.059
		c0.122,0.023,0.248,0.036,0.378,0.036h7.854c0.666,0,1.245-0.327,1.539-0.805c0.022-0.032,0.045-0.064,0.064-0.098
		c0.233-0.343,0.373-0.769,0.373-1.227C218.046,37.135,217.281,36.25,216.302,36.143z"/>
</g>
<g>
	<path fill="#94BF67" d="M251.055,38.099c0-0.02,0-0.039,0-0.059c0-1.36-1.068-2.478-2.437-2.602
		c-0.266-1.169-1.337-2.044-2.619-2.044c-0.093,0-0.184,0.005-0.273,0.014c-0.426-0.893-1.354-1.513-2.436-1.513
		c-0.138,0-0.271,0.011-0.402,0.031v8.493h9.093C252.202,39.619,251.822,38.718,251.055,38.099z"/>
	<path fill="#74A147" d="M242.7,31.965c-0.825,0.187-1.504,0.744-1.841,1.482c-0.036-0.002-0.073-0.003-0.108-0.003
		c-0.878,0-1.656,0.409-2.146,1.04c-0.214-0.046-0.434-0.07-0.661-0.07c-1.67,0-3.025,1.321-3.025,2.951
		c0,0.219,0.023,0.433,0.07,0.639c-0.68,0.13-1.161,0.739-1.241,1.182c-0.057,0.305,0.091,0.848,0.381,1.236h8.767v-8.494
		c-0.065,0.01-0.134,0.02-0.195,0.034V31.965L242.7,31.965z"/>
</g>
<g>
	<path fill="#74A147" d="M185.658,33.723c-0.304-1.439-1.505-2.515-2.943-2.515c-0.242,0-0.475,0.032-0.702,0.089
		c-0.516-0.991-1.504-1.66-2.638-1.66c-1.352,0-2.497,0.95-2.88,2.262c-0.24-0.066-0.493-0.102-0.753-0.102
		c-1.248,0-2.319,0.81-2.78,1.965c-1.655,0.017-2.989,1.455-2.989,3.228c0,1.617,1.111,2.956,2.562,3.191
		c0.188,0.037,0.384,0.056,0.584,0.056h12.18c1.033,0,1.932-0.506,2.385-1.249c0.035-0.048,0.069-0.1,0.103-0.151
		c0.363-0.533,0.581-1.19,0.581-1.901C188.366,35.264,187.18,33.889,185.658,33.723z"/>
	<path fill="#94BF67" d="M190.546,35.262c-0.231-1.098-1.148-1.919-2.247-1.919c-0.185,0-0.363,0.024-0.535,0.067
		c-0.392-0.756-1.148-1.268-2.016-1.268c-1.032,0-1.905,0.726-2.199,1.729c-0.187-0.05-0.377-0.077-0.576-0.077
		c-0.952,0-1.771,0.619-2.123,1.5c-1.262,0.013-2.284,1.112-2.284,2.464c0,1.235,0.848,2.258,1.958,2.437
		c0.145,0.028,0.294,0.042,0.446,0.042h9.299c0.791,0,1.477-0.386,1.824-0.953c0.026-0.038,0.054-0.077,0.076-0.116
		c0.278-0.408,0.442-0.909,0.442-1.453C192.614,36.439,191.707,35.389,190.546,35.262z"/>
</g>
<g>
	<g>
		<path fill="#D58746" d="M130.954,51.145h-1.162c-0.071,0-0.13-0.066-0.13-0.148v-4.438h1.42v4.438
			C131.083,51.08,131.024,51.145,130.954,51.145z"/>
	</g>
	<path fill="#D58746" d="M152.245,51.145h-1.161c-0.07,0-0.13-0.066-0.13-0.148v-4.438h1.421v4.438
		C152.375,51.08,152.318,51.145,152.245,51.145z"/>
	<g>
		<g>
			<rect x="132.096" y="37.265" fill="#D58746" width="0.903" height="5.536"/>
		</g>
		<g>
			<rect x="134.935" y="37.265" fill="#D58746" width="0.902" height="5.536"/>
		</g>
		<g>
			<rect x="137.773" y="37.265" fill="#D58746" width="0.904" height="5.536"/>
		</g>
		<g>
			<rect x="140.612" y="37.265" fill="#D58746" width="0.905" height="5.536"/>
		</g>
		<g>
			<rect x="143.451" y="37.265" fill="#D58746" width="0.904" height="5.536"/>
		</g>
		<g>
			<rect x="146.292" y="37.265" fill="#D58746" width="0.902" height="5.536"/>
		</g>
		<g>
			<rect x="149.13" y="37.265" fill="#D58746" width="0.903" height="5.536"/>
		</g>
	</g>
	<g>
		<path fill="#D58746" d="M152.766,43.266h-23.399v-3.904c0-1.561,1.685-2.83,3.755-2.83h15.89c2.073,0,3.755,1.27,3.755,2.83
			L152.766,43.266L152.766,43.266z M130.398,42.337h21.334v-2.975c0-1.049-1.22-1.901-2.722-1.901H133.12
			c-1.502,0-2.722,0.852-2.722,1.901L130.398,42.337L130.398,42.337z"/>
	</g>
	<g>
		<path fill="#6BA1A6" d="M152.688,43.236h-23.242c-0.36,0-1.162,1.215-1.169,2.173h25.58
			C153.847,44.452,153.045,43.236,152.688,43.236z"/>
	</g>
	<g>
		<path fill="#2D7E85" d="M128.275,45.411c0,0.005-0.001,0.011-0.001,0.016c0,0.961,0.422,1.29,0.782,1.29h24.016
			c0.359,0,0.784-0.329,0.784-1.29c0-0.005-0.001-0.011-0.001-0.016H128.275z"/>
	</g>
</g>
<path fill="none" d="M183.556,46.841c0.079-0.009,0.155-0.017,0.232-0.025C183.705,46.824,183.624,46.833,183.556,46.841z"/>
<g>
	<path fill="none" d="M173.253,53.016c0.067-0.01,0.134-0.015,0.202-0.021C173.382,53,173.312,53.008,173.253,53.016z"/>
	<path fill="none" d="M175.371,43.137c-0.231,0-0.423,0.175-0.423,0.391v9.369c0.034,0,0.07-0.002,0.104-0.002h1.52v-9.758
		L175.371,43.137L175.371,43.137z"/>
	<rect x="178.056" y="43.137" fill="none" width="2.298" height="9.758"/>
	<path fill="#94D5A3" d="M173.455,52.992c0.462-0.041,1.14-0.072,1.494-0.086v-0.01c-0.14,0-0.28,0.004-0.425,0.01
		C174.18,52.921,173.819,52.951,173.455,52.992z"/>
	<rect x="185.352" y="41.353" fill="#FDCE81" width="25.604" height="15.535"/>
	<rect x="185.352" y="41.353" fill="#A12A27" width="3.395" height="15.535"/>
	<rect x="192.756" y="41.353" fill="#A12A27" width="3.396" height="15.535"/>
	<rect x="200.158" y="41.353" fill="#A12A27" width="3.396" height="15.535"/>
	<rect x="207.562" y="41.353" fill="#A12A27" width="3.396" height="15.535"/>
	<rect x="181.841" y="43.137" fill="none" width="1.232" height="9.758"/>
	<path fill="#297D6F" d="M174.524,41.576c-0.702,0-1.271,0.241-1.271,0.536v0.537v0.099v10.267c0.062-0.009,0.129-0.016,0.202-0.021
		c0.364-0.042,0.725-0.072,1.069-0.087c0.145-0.008,0.285-0.009,0.425-0.012v-9.366c0-0.216,0.19-0.391,0.426-0.391h1.2v9.757h1.483
		v-9.757h2.296v9.757h1.485v-9.757h1.232v-1.56L174.524,41.576L174.524,41.576z"/>
	<path fill="#297D6F" d="M181.841,52.895h-1.486h-2.296h-1.483h-1.52c-0.033,0-0.07,0.002-0.104,0.002v0.01
		c-0.354,0.016-1.034,0.045-1.496,0.088c-0.067,0.008-0.135,0.012-0.201,0.021c-2.628,0.328-5.642,1.286-7.612,2.485l-30.486,24.957
		c-1.461,0.889-4.389,1.7-6.14,1.7H118.84c-1.404,0-2.544,1.049-2.544,2.343v0.78c0,1.294,1.139,2.34,2.544,2.34h10.176
		c2.926,0,6.972-1.121,9.414-2.607l30.486-24.956c1.464-0.89,4.39-1.699,6.139-1.699h8.019v-5.464H181.841L181.841,52.895
		L181.841,52.895z"/>
	<path fill="#297D6F" d="M220.36,43.06c0.233,0,0.393,0.261,0.57,0.757l21.912,43.803h1.781l-22.063-44.951
		c0,0-0.103-0.262-0.229-0.585c-0.127-0.324-0.535-0.585-0.907-0.585h-0.677h-7.561v1.562h1.062v9.755h-1.062v5.464h5.769
		l14.356,29.34h0.847h2.236l-16.054-33.396c-0.03-0.093-0.062-0.187-0.105-0.273l-0.014-0.029l-0.005,0.002
		c-0.159-0.306-0.403-0.561-0.703-0.755V43.061L220.36,43.06L220.36,43.06z M218.031,52.815h-2.298v-9.756h2.298V52.815z"/>
	<polygon fill="#297D6F" points="210.277,26.882 210.277,55.583 185.982,55.583 185.982,26.882 182.927,26.882 182.927,87.619 
		185.982,87.619 185.982,58.261 210.277,58.261 210.277,87.619 213.334,87.619 213.334,26.882 	"/>
	<path fill="#FDCE81" d="M176.65,27.096l21.03-17.13c0.241-0.196,0.632-0.196,0.872,0l21.03,17.13
		c0.241,0.196,0.176,0.355-0.145,0.355h-42.642C176.479,27.451,176.411,27.292,176.65,27.096z"/>
	<path fill="#A12A27" d="M176.65,27.096c-0.239,0.196-0.176,0.355,0.145,0.355h42.64c0.322,0,0.39-0.159,0.147-0.355l-2.196-1.789
		h-38.543L176.65,27.096z"/>
	<polygon fill="#A12A27" points="181.285,23.322 214.948,23.322 212.319,21.177 183.915,21.177 	"/>
	<polygon fill="#A12A27" points="186.354,19.193 209.879,19.193 207.248,17.049 188.985,17.049 	"/>
	<polygon fill="#A12A27" points="191.424,15.063 204.811,15.063 202.18,12.92 194.054,12.92 	"/>
	<path fill="#A12A27" d="M198.553,9.967c-0.241-0.196-0.633-0.196-0.873,0l-1.187,0.968h3.246L198.553,9.967z"/>
	<rect x="185.691" y="40.381" fill="#297D6F" width="25.023" height="2.288"/>
</g>
</svg>
