<svg version="1.1" id="Layer_1" xmlns="http://www.w3.org/2000/svg" xmlns:xlink="http://www.w3.org/1999/xlink" viewBox="0 0 300 100" enable-background="new 0 0 300 100" xml:space="preserve">
<g>
	<g>
		<g>
			<defs>
				<rect id="SVGID_1_" x="16.875" y="8.056" width="86.125" height="86.123"/>
			</defs>
			<clipPath id="SVGID_2_">
				<use xlink:href="#SVGID_1_"  overflow="visible"/>
			</clipPath>
			<path clip-path="url(#SVGID_2_)" fill="#538C1C" d="M87.029,30.378c0,0-5.18,9.715-6.241,11.6
				c-5.653,12.185-7.243,13.953-16.25,42.567c-2.473,8.828-4.945,10.42-3.179-1.238C61.359,83.307,67.482,47.571,87.029,30.378"/>
		</g>
	</g>
	<g>
		<g>
			<defs>
				<rect id="SVGID_3_" x="16.875" y="8.056" width="86.125" height="86.123"/>
			</defs>
			<clipPath id="SVGID_4_">
				<use xlink:href="#SVGID_3_"  overflow="visible"/>
			</clipPath>
			<path clip-path="url(#SVGID_4_)" fill="#538C1C" d="M32.846,30.378c0,0,5.18,9.715,6.241,11.6
				c5.651,12.186,7.242,13.953,16.25,42.567c2.473,8.828,4.946,10.42,3.179-1.238C58.514,83.307,52.392,47.571,32.846,30.378"/>
		</g>
	</g>
	<g>
		<g>
			<defs>
				<rect id="SVGID_5_" x="16.875" y="8.056" width="86.125" height="86.123"/>
			</defs>
			<clipPath id="SVGID_6_">
				<use xlink:href="#SVGID_5_"  overflow="visible"/>
			</clipPath>
			<path clip-path="url(#SVGID_6_)" fill="#88238E" d="M68.896,13.422c-1.237-1.295-1.59,0-2.355,0.942l-4.827,7.478
				c0,0-0.884,1.707-0.942,3.238c-0.05,1.318-0.754,9.95-0.951,12.337c-0.196-2.387-0.899-11.019-0.951-12.337
				c-0.058-1.531-0.942-3.238-0.942-3.238L53.1,14.364c-0.766-0.942-1.118-2.237-2.355-0.942c-2.473,2.002-7.417,9.185-0.588,19.429
				c6.83,10.244,7.89,32.264,8.361,36.385c0.328,2.872,0.884,3.514,1.192,3.638c0.001,0.004,0.001,0.012,0.001,0.012
				s0.041,0.021,0.109,0.016c0.068,0.006,0.11-0.016,0.11-0.016s0-0.008,0.001-0.012c0.308-0.124,0.865-0.766,1.193-3.638
				c0.471-4.121,1.53-26.141,8.36-36.385C76.314,22.606,71.369,15.424,68.896,13.422"/>
		</g>
	</g>
	<g>
		<g>
			<defs>
				<rect id="SVGID_7_" x="16.875" y="8.056" width="86.125" height="86.123"/>
			</defs>
			<clipPath id="SVGID_8_">
				<use xlink:href="#SVGID_7_"  overflow="visible"/>
			</clipPath>
			<path clip-path="url(#SVGID_8_)" fill="#FFCE00" d="M64.248,13.786c-0.795-0.927-2.58-3.16-4.428-3.16
				c-1.848,0-3.632,2.232-4.427,3.16c-0.34,0.396-0.449,0.866-0.401,1.366c0.064,0.67,0.397,1.458,1.192,2.186
				c2.273,2.053,3.635,6.358,3.635,6.358s1.363-4.305,3.637-6.358c0.795-0.729,1.127-1.516,1.192-2.186
				C64.697,14.652,64.587,14.182,64.248,13.786"/>
		</g>
	</g>
</g>
<polygon fill="#5E9988" points="124.312,63.352 126.201,52.883 149.69,58.73 146.16,68.234 "/>
<polygon fill="#71B8A3" points="131.244,53.209 124.525,44.807 140.995,30.644 146.699,39.877 "/>
<path fill="#FAE9C7" d="M113.659,95.694c-16.547,0-29.961-11.949-29.961-26.688c0-14.742,13.413-26.69,29.961-26.69
	c16.546,0,29.958,11.948,29.958,26.69C143.618,83.746,130.205,95.694,113.659,95.694"/>
<ellipse fill="#FAE9C7" cx="113.659" cy="34.843" rx="20.55" ry="18.307"/>
<path fill="#ED643B" d="M109.632,34.905c-0.144,0.008-0.281,0.046-0.412,0.105c0.001,0,0.001-0.001,0.001-0.001L91.03,43.135
	l18.96-2.612c0,0,0-0.003,0-0.004c0.936-0.115,1.624-1.39,1.548-2.904C111.459,36.062,110.604,34.849,109.632,34.905z"/>
<path fill="#726658" d="M123.099,31.652c0,1.03-0.716,1.865-1.597,1.865c-0.882,0-1.598-0.835-1.598-1.865
	c0-1.031,0.716-1.865,1.598-1.865C122.383,29.787,123.099,30.622,123.099,31.652z"/>
<path fill="#726658" d="M110.39,68.119c0,0.768-0.644,1.393-1.437,1.393c-0.795,0-1.438-0.625-1.438-1.393
	c0-0.77,0.643-1.393,1.438-1.393C109.746,66.727,110.39,67.35,110.39,68.119z"/>
<path fill="#726658" d="M111.283,78.47c0,0.77-0.644,1.394-1.437,1.394c-0.794,0-1.438-0.624-1.438-1.394
	c0-0.769,0.644-1.392,1.438-1.392C110.639,77.079,111.283,77.701,111.283,78.47z"/>
<path fill="#726658" d="M107.778,44.739c0,0.336-0.251,0.609-0.565,0.609c-0.311,0-0.566-0.273-0.566-0.609
	c0-0.337,0.254-0.609,0.566-0.609C107.527,44.13,107.778,44.402,107.778,44.739z"/>
<path fill="#726658" d="M111,45.348c0,0.336-0.253,0.609-0.566,0.609c-0.312,0-0.567-0.273-0.567-0.609
	c0-0.337,0.254-0.609,0.567-0.609C110.747,44.739,111,45.011,111,45.348z"/>
<path fill="#726658" d="M114.007,45.348c0,0.336-0.253,0.609-0.566,0.609c-0.313,0-0.567-0.273-0.567-0.609
	c0-0.337,0.253-0.609,0.567-0.609C113.754,44.739,114.007,45.011,114.007,45.348z"/>
<path fill="#726658" d="M117.487,44.739c0,0.336-0.254,0.609-0.567,0.609c-0.312,0-0.566-0.273-0.566-0.609
	c0-0.337,0.254-0.609,0.566-0.609C117.232,44.13,117.487,44.402,117.487,44.739z"/>
<path fill="#726658" d="M120.471,43.246c0,0.336-0.252,0.609-0.566,0.609c-0.312,0-0.566-0.272-0.566-0.609s0.254-0.609,0.566-0.609
	C120.219,42.636,120.471,42.909,120.471,43.246z"/>
<path fill="#726658" d="M122.867,40.926c0,0.335-0.254,0.608-0.567,0.608s-0.567-0.272-0.567-0.608c0-0.338,0.254-0.608,0.567-0.608
	S122.867,40.588,122.867,40.926z"/>
<path fill="#83D6BE" d="M131.374,45.162c-4.786,3.594-10.965,5.764-17.714,5.764c-6.75,0-12.929-2.169-17.715-5.764
	c-1.905,1.43-3.585,3.088-4.997,4.925c4.955,6.448,13.278,10.683,22.712,10.683c9.434,0,17.757-4.234,22.712-10.683
	C134.961,48.251,133.277,46.592,131.374,45.162z"/>
<path fill="#726658" d="M103.973,31.598c0,1.06-0.735,1.92-1.644,1.92c-0.907,0-1.643-0.86-1.643-1.92
	c0-1.061,0.735-1.92,1.643-1.92C103.238,29.678,103.973,30.537,103.973,31.598z"/>
<polygon fill="#F64B8D" points="108.279,4.305 100.535,20.144 127.654,22.499 125.438,5.168 "/>
<g>
	<g>
		<path fill="#FBC800" d="M172.93,45.849c-5.193-10.996-11.854-17.357-21.33-0.39c0.239,0.66,0.483,4.259,0.729,4.911
			c12.031,0,24.062,0.746,36.095,0.746C185.689,41.108,178.299,32.298,172.93,45.849z"/>
		<path fill="#BAD60F" d="M191.561,49.817c-7.252,0-14.504,0-21.751,0s-14.499,0-21.746,0c-0.503,0-0.823,0.597-0.71,1.319
			c1.406,9.068,2.65,17.069,3.75,24.175c0.985,6.355,1.871,12.082,2.676,17.258c0.055,0.363,0.389,0.653,0.738,0.653
			c5.1,0,10.201,0,15.292,0c5.099,0,10.198,0,15.297,0c0.351,0,0.697-0.29,0.753-0.653c0.797-5.182,1.688-10.902,2.676-17.258
			c1.098-7.105,2.342-15.107,3.749-24.175C192.391,50.414,192.062,49.817,191.561,49.817z"/>
		<rect x="203.375" y="21.196" fill="#DC291B" width="7.255" height="42.599"/>
		<path fill="#B71F11" d="M195.492,10.514c0,6.73,5.178,12.235,11.512,12.235s11.515-5.505,11.515-12.235V8.287H195.49v2.227
			H195.492z M214.234,12.569c-0.857,3.386-3.789,5.899-7.23,5.899s-6.371-2.514-7.23-5.899H214.234z"/>
		<path fill="#B71F11" d="M218.695,62.324c-7.795,0-15.589,0-23.385,0c-3.068,0-5.582,2.669-5.582,5.934c0,6.869,0,18.093,0,24.964
			c11.515,0,23.031,0,34.545,0c0-6.871,0-18.095,0-24.964C224.271,64.994,221.768,62.324,218.695,62.324z"/>
		<path fill="#DC291B" d="M220.869,69.291c-0.426-2.405-2.658-4.28-4.987-4.28c-2.963,0-5.924,0-8.886,0c-2.959,0-5.916,0-8.879,0
			c-2.334,0-4.561,1.866-4.979,4.28c-0.471,2.715-0.974,5.615-1.518,8.721c-0.588,3.352-1.211,11.314-1.893,15.21
			c5.754,0,11.515,0,17.268,0c5.754,0,11.515,0,17.275,0c-0.672-3.902-1.307-11.858-1.887-15.21
			C221.844,74.904,221.344,72.006,220.869,69.291z"/>
		<path fill="#4E5107" d="M169.633,72.517c-13.4,0-24.32-10.624-24.79-23.912h-0.547c0.477,13.588,11.636,24.458,25.337,24.458
			c13.702,0,24.867-10.869,25.34-24.458h-0.548C193.955,61.893,183.035,72.517,169.633,72.517z"/>
		<path fill="#8C990D" d="M169.633,71.362c-4.307,0-8.344-1.156-11.823-3.165l-1.294,2.236c3.862,2.236,8.34,3.51,13.117,3.51
			c4.779,0,9.264-1.273,13.119-3.51l-1.294-2.236C177.979,70.206,173.942,71.362,169.633,71.362z"/>
		<path fill="#DCF8DE" d="M144.711,46.954c-0.421,0-0.761,0.339-0.761,0.759c0,0.421,0.341,0.761,0.761,0.761
			c0.419,0,0.759-0.34,0.759-0.761C145.47,47.293,145.13,46.954,144.711,46.954z"/>
		<path fill="#DCF8DE" d="M194.928,46.213h-50.217c-0.823,0-1.5,0.671-1.5,1.5c0,0.823,0.677,1.502,1.5,1.502h50.217
			c0.824,0,1.502-0.679,1.502-1.502C196.43,46.885,195.75,46.213,194.928,46.213z M144.711,48.474c-0.421,0-0.761-0.34-0.761-0.761
			s0.341-0.759,0.761-0.759c0.419,0,0.759,0.339,0.759,0.759C145.47,48.134,145.13,48.474,144.711,48.474z M194.808,48.474
			c-0.419,0-0.759-0.34-0.759-0.761s0.34-0.759,0.759-0.759c0.415,0,0.754,0.339,0.754,0.759
			C195.562,48.134,195.222,48.474,194.808,48.474z"/>
		<path fill="#DCF8DE" d="M194.808,46.954c-0.419,0-0.759,0.339-0.759,0.759c0,0.421,0.34,0.761,0.759,0.761
			c0.415,0,0.754-0.34,0.754-0.761C195.562,47.293,195.222,46.954,194.808,46.954z"/>
		<path fill="#8C990D" d="M192.359,44.222h-45.081c-0.551,0-1.009,0.452-1.009,1.011v4.56c0,0.551,0.458,1.01,1.009,1.01h45.081
			c0.552,0,1.005-0.459,1.005-1.01v-4.56C193.364,44.674,192.911,44.222,192.359,44.222z"/>
	</g>
</g>
</svg>
