<svg version="1.1" id="Layer_1" xmlns="http://www.w3.org/2000/svg" xmlns:xlink="http://www.w3.org/1999/xlink" x="0px" y="0px"
 viewBox="0 0 768 430" enable-background="new 0 0 768 430" xml:space="preserve">
<g>
	<path fill="#432918" d="M282.655,233.048c0,4.727-3.829,8.56-8.554,8.56l0,0c-4.73,0-8.559-3.833-8.559-8.56V50.728
		c0-4.726,3.829-8.559,8.559-8.559l0,0c4.726,0,8.554,3.833,8.554,8.559V233.048z"/>
	<path fill="#432918" d="M512.604,233.048c0,4.727-3.829,8.56-8.559,8.56l0,0c-4.727,0-8.554-3.833-8.554-8.56V50.728
		c0-4.726,3.827-8.559,8.554-8.559l0,0c4.729,0,8.559,3.833,8.559,8.559V233.048z"/>
	<path fill="#432918" d="M483.398,366.395c3.895,2.68,4.874,8.01,2.191,11.903l0,0c-2.679,3.892-8.006,4.871-11.9,2.191
		L294.748,257.211c-3.896-2.681-4.875-8.013-2.196-11.902l0,0c2.682-3.895,8.01-4.875,11.905-2.189L483.398,366.395z"/>
	<path fill="#432918" d="M294.74,366.395c-3.891,2.68-4.875,8.01-2.188,11.903l0,0c2.678,3.892,8.006,4.871,11.901,2.191
		l178.939-123.278c3.892-2.681,4.876-8.013,2.193-11.902l0,0c-2.683-3.895-8.011-4.875-11.902-2.189L294.74,366.395z"/>
	<path fill="#FF5E65" d="M526,174.632c0,4.929-3.999,8.928-8.933,8.928H261.078c-4.934,0-8.933-3.999-8.933-8.928V77.145
		c0-4.929,3.999-8.93,8.933-8.93h255.989c4.934,0,8.933,4.001,8.933,8.93V174.632z"/>
	<path fill="#FF5E65" d="M526,249.049c0,4.929-3.999,8.928-8.933,8.928H261.078c-4.934,0-8.933-3.999-8.933-8.928v-14.884
		c0-4.931,3.999-8.93,8.933-8.93h255.989c4.934,0,8.933,3.999,8.933,8.93V249.049z"/>
	<path opacity="0.15" fill="#432918" d="M388.649,68.215h128.418c4.934,0,8.933,4.001,8.933,8.93v97.487
		c0,4.929-3.999,8.928-8.933,8.928H388.649"/>
	<path opacity="0.15" fill="#432918" d="M388.649,225.235h128.418c4.934,0,8.933,3.999,8.933,8.93v14.884
		c0,4.929-3.999,8.928-8.933,8.928H388.649"/>
	<path fill="#FFFFFF" d="M487.135,112.749c0,3.908-3.168,7.076-7.071,7.076H297.913c-3.904,0-7.072-3.168-7.072-7.076l0,0
		c0-3.899,3.168-7.068,7.072-7.068h182.151C483.967,105.681,487.135,108.849,487.135,112.749L487.135,112.749z"/>
	<path fill="#FFFFFF" d="M487.135,139.54c0,3.906-3.168,7.074-7.071,7.074H297.913c-3.904,0-7.072-3.168-7.072-7.074l0,0
		c0-3.901,3.168-7.069,7.072-7.069h182.151C483.967,132.47,487.135,135.638,487.135,139.54L487.135,139.54z"/>
</g>
</svg>
