<svg xmlns="http://www.w3.org/2000/svg" viewBox="0 0 768 430"><style>.a{fill:#44944E;}.b{fill:#FDD605;}.c{fill:#43A547;}.d{fill:#40B93C;}.e{fill:#1EAF46;}.f{fill:#231F20;}.g{fill:#348F54;}.h{fill:#3F984C;}.i{fill:#389D4B;}.j{fill:#32A349;}.k{fill:#29A848;}.l{fill:#3FB23F;}.m{fill:#41AB43;}.n{fill:#439C4A;}</style><path d="M120.2 225.4l57.4-23.3c10.5 1 20.8 0.5 31.3 1.4 15.4 9.6 31 20.7 46.4 30.3 6.8 2 13.7 3.8 20.5 5.7 22.8-5.5 45.5-10.8 68.3-16.3 17.9-3 36.6-8.1 51.7-2.8 21.7 0.4 38.8 8.8 51.4 25.5 -0.8 4.4 107.6 41.7 118.9 24.7 10-9.8 57.6-21.9 57.6-21.9l17.3 13.2c-23.1 9.7-46.3 19.4-69.3 29.2 -17.9 0.1-35.7 0.1-53.5 0.1 0 0-45.7-14.9-56-17.7 -10.3-2.8-36.6-20.4-36.6-20.4 -8.2-5-16.4-10-24.6-15 -17.9 2.9-35.8 5.8-53.7 8.6 -21.1 6.3-40 14.3-70 13.7 -13.2-3.4-26.3-6.8-39.5-10.1 -9-7.8-18.1-15.5-27.1-23.2 2-5.9-31.8-9.4-55.9 3.3 -20.8 2.8-34.6-5.2-34.6-5.2" fill="#9E644E"/><path d="M120.2 225.4l57.4-23.3c10.5 1 20.8 0.5 31.3 1.4 15.4 9.6 31 20.7 46.4 30.3 6.8 2 13.7 3.8 20.5 5.7 22.8-5.5 45.5-10.8 68.3-16.3 17.9-3 36.6-8.1 51.7-2.8 21.7 0.4 38.8 8.8 51.4 25.5 -0.8 4.4 107.6 41.7 118.9 24.7 10-9.8 57.6-21.9 57.6-21.9 5.8 4.4 8.2 8 14 12.4 -23.1 9.7-42.1 16.9-65.2 26.5 -17.9 0.1-36.1 0.6-53.9 0.7 0 0-44.2-12.7-54.4-15.6 -10.2-2.9-36.1-22.9-36.1-22.9 -8.2-5-18.9-7.2-27.1-12.2 -17.9 2.9-36.8 1.8-54.6 4.7 -21.1 6.2-39.1 14.9-69.1 14.4 -13.1-3.4-25.3-5.7-38.5-9.1 -9-7.7-17.6-15.4-26.6-23.1 2-6-34.5-8.2-58.6 4.6C132.6 232 120.2 225.4 120.2 225.4" fill="#A46A53"/><path d="M120.2 225.4l57.4-23.3c10.5 1 20.8 0.5 31.3 1.4 15.4 9.6 31 20.7 46.4 30.3 6.8 2 13.7 3.8 20.5 5.7 22.8-5.5 45.5-10.8 68.3-16.3 17.9-3 36.6-8.1 51.7-2.8 21.7 0.4 38.8 8.8 51.4 25.5 -0.8 4.4 107.6 41.7 118.9 24.7 10-9.8 57.6-21.9 57.6-21.9 5.8 4.4 5.2 7.4 10.9 11.8 -23.1 9.7-38.4 14.5-61.5 24.1 -17.8 0.1-36.4 1-54.2 1.1 0 0-42.8-10.7-53.1-13.5 -10.2-2.9-35.7-25.2-35.7-25.2 -8.2-5-21.1-4.7-29.3-9.7 -17.9 2.9-37.6-1.7-55.5 1.2 -21.2 6.2-38.3 15.5-68.3 15 -13.1-3.4-24.4-4.7-37.5-8.1 -9-7.7-17.3-15.5-26.4-23.2 2-5.9-36.9-7.1-61 5.6 -20.8 2.8-31.9-2.4-31.9-2.4" fill="#AB715C"/><path d="M120.2 225.4l57.4-23.3c10.5 1 20.8 0.5 31.3 1.4 15.4 9.6 31 20.7 46.4 30.3 6.8 2 13.7 3.8 20.5 5.7 22.8-5.5 45.5-10.8 68.3-16.3 17.9-3 36.6-8.1 51.7-2.8 21.7 0.4 38.8 8.8 51.4 25.5 -0.8 4.4 107.6 41.7 118.9 24.7 10-9.8 57.6-21.9 57.6-21.9 5.8 4.4 2.4 6.7 8.2 11.1 -23.1 9.7-35 12.4-58.1 22 -17.9 0.1-36.6 1.4-54.5 1.5 0 0-41.5-8.9-51.8-11.7 -10.2-2.9-35.2-27.2-35.2-27.2 -8.2-5-23.1-2.5-31.3-7.5 -17.9 2.9-38.4-4.9-56.3-2 -21.1 6.3-37.5 16.2-67.5 15.6 -13.1-3.4-23.7-3.8-36.8-7.2 -9.1-7.7-17-15.5-26-23.2 2-6-39.2-6.2-63.2 6.6 -20.8 2.8-30.7-1.3-30.7-1.3" fill="#B27763"/><path d="M120.2 225.4l57.4-23.3c10.5 1 20.8 0.5 31.3 1.4 15.4 9.6 31 20.7 46.4 30.3 6.8 2 13.7 3.8 20.5 5.7 22.8-5.5 45.5-10.8 68.3-16.3 17.9-3 36.6-8.1 51.7-2.8 21.7 0.4 38.8 8.8 51.4 25.5 -0.8 4.4 107.6 41.7 118.9 24.7 10-9.8 57.6-21.9 57.6-21.9 5.8 4.4-0.1 6.1 5.7 10.5 -23.1 9.7-31.9 10.4-55.1 20.2 -17.8 0-36.9 1.7-54.7 1.7 0 0-40.4-7.2-50.7-10 -10.3-2.8-35-29.1-35-29.1 -8.2-5-24.9-0.4-33.1-5.4 -17.9 2.9-39.1-7.9-57-4.9 -21.1 6.2-36.9 16.6-66.9 16.1 -13.1-3.4-22.9-3-36.1-6.4 -9-7.7-16.6-15.6-25.7-23.3 2.1-5.9-41-5.2-65.2 7.5 -20.8 2.8-29.6-0.2-29.6-0.2" fill="#BD846F"/><path d="M254.4 176.1c-13.7 9.1-28 13.9-42.3 18 -5.5-2.1-10.7-1.8-15.5 1 -2.5 3-5 7.5-7.3 12.1 2.2 2.9 3.4 1.7 6.8 1.1 -0.7-3.8 2-3.9 5-4.9 2.2-0.4 4.5 0 6.9 1.3 1.8 4.5 3.1 8.3 1.8 13.2 -2.8 3.5 0 4.7 8.2 3.3 1.6-5.4 3.1-10.8 4.6-16.3 13.4-4 25.4-10.1 36.8-17.3 5.9 0.1 9.5-5.5 12.9-11.8C266.3 176 260.4 176 254.4 176.1" class="a"/><path d="M392.4 192.9c4.1 6.8 8.8 12.8 9.6 24 -3.4-1.5-6.5-2.1-7.1 3.5 7.1 1.8 13.2 4.3 11.6 11.1l1.5 11.2c5.6 2.7 9.2-1 11.4-9.2 -1.5-5.3-3.1-10.5-4.7-15.8 -2.4-14.4-4.8-28.9-7.2-43.4C402.5 180.5 397.4 186.7 392.4 192.9" class="a"/><path d="M251.7 103.6c6-5.7 12-11.3 18-17 2.6-7.7 158.2 26.7 163.5 38.7 5.9 10.6 24.3 34.7 47.1 100 15.9 65.2 49.5 96.3 63.5 104.2 -10.9 6.5 50.7 50.2 95.5 22.5 34-21.1 22-24.6 27.3-22.7 0 0 10.3 20.1-30.4 37.1 -38.2 7.7-70.4 13.3-100-18.2 -60.2-45-113.4-126.4-112.2-126.6 -4.9-8.7-12.2-24.6-17.1-33.2 -14.1 7.9-29.1 12.5-50.2-5.9 0.8 5.8-74.2 12.6-79.8-0.6 -9.5 5.6-40.5-8.4-37.6-15.2 4.1-21 8.3-42 12.4-63.1" class="b"/><path d="M251.7 103.6c6-5.7 12-11.3 18-17 2.6-7.7 158.2 26.7 163.5 38.7 5.9 10.6 24.5 33.8 47.3 99.2 15.7 65.2 48.2 95 63.3 105 -5 8.7 50.7 50.2 95.5 22.5 34-21.1 22-24.6 27.3-22.7 0 0 10.3 20.1-30.4 37.1 -38.2 7.7-70 11.8-99.6-19.7 -60.2-45.1-111.3-127.1-110.1-127.2 -5-8.6-13.9-26.1-18.9-34.7 -14.2 7.9-29.6 11.3-50.7-7 0.8 5.8-74.5 12.3-80.1-0.9 -9.4 5.6-37.6-7.4-34.7-14.1 4.1-21.1 5.5-38.1 9.6-59.2" fill="#D5CA15"/><path d="M251.7 103.6c6-5.7 12-11.3 18-17 2.6-7.7 158.2 26.7 163.5 38.7 5.9 10.6 24.7 33 47.5 98.3 15.6 65.4 46.9 93.8 63.1 105.9 0.4 10.7 50.7 50.2 95.5 22.5 34-21.1 22-24.6 27.3-22.7 0 0 10.3 20.1-30.4 37.1 -38.2 7.7-69.7 10.4-99.3-21.1C476.8 300.2 427.5 217.6 428.7 217.5c-5-8.6-15.4-27.5-20.4-36.1 -14.2 7.9-30 10.3-51-8 0.8 5.8-74.9 12.1-80.4-1.1 -9.5 5.5-35.1-6.3-32.2-13 4.1-21 3-34.6 7.1-55.6" fill="#B1BD25"/><path d="M251.7 103.6c6-5.7 12-11.3 18-17 2.6-7.7 158.2 26.7 163.5 38.7 5.9 10.6 24.8 32.2 47.6 97.5 15.6 65.6 45.8 92.7 63 106.7 5.4 12.5 50.7 50.2 95.5 22.5 34-21.1 22-24.6 27.3-22.7 0 0 10.3 20.1-30.4 37.1 -38.2 7.7-69.4 9.1-98.9-22.4 -60.2-45.1-107.8-128.1-106.6-128.2 -5-8.6-16.8-28.8-21.8-37.4 -14.2 7.8-30.4 9.4-51.5-9 0.8 5.8-75.2 11.9-80.7-1.3 -9.5 5.5-32.7-5.4-29.8-12.1 4.1-21 0.7-31.2 4.8-52.3" fill="#8EB233"/><path d="M251.7 103.6c6-5.7 12-11.3 18-17 2.6-7.7 158.2 26.7 163.5 38.7 5.9 10.6 25 31.5 47.7 96.8 15.5 65.6 44.7 91.8 62.9 107.4 10 14.2 50.7 50.2 95.5 22.5 34-21.1 22-24.6 27.3-22.7 0 0 10.3 20.1-30.4 37.1 -38.2 7.7-69 7.9-98.7-23.6 -60.2-45.1-106.3-128.5-105.1-128.6 -5-8.6-18.2-30-23.1-38.6 -14.2 7.9-30.8 8.5-51.8-9.9 0.8 5.9-75.4 11.7-81-1.5 -9.4 5.5-30.4-4.5-27.6-11.3 4.1-21.1-1.4-28.1 2.7-49.2" fill="#68A241"/><path d="M251.7 103.6c6-5.7 12-11.3 18-17 2.6-7.7 158.2 26.7 163.5 38.7 5.9 10.6 25.1 30.8 47.8 96.1 15.4 65.7 43.7 90.9 62.8 108.1 14.4 15.7 50.7 50.2 95.5 22.5 34-21.1 22-24.6 27.3-22.7 0 0 10.3 20.1-30.4 37.1 -38.2 7.7-68.7 6.8-98.4-24.7 -60.2-45.1-104.8-128.9-103.6-129.1 -5-8.6-19.4-31.2-24.4-39.8 -14.2 7.9-31.1 7.7-52.1-10.7 0.8 5.8-75.6 11.5-81.2-1.7 -9.4 5.5-28.4-3.8-25.5-10.5 4.1-21.1-3.4-25.3 0.7-46.3" class="a"/><path d="M251.7 103.6c6-5.7 11.7-8.4 17.7-14 2.6-7.7 156.9 26.1 162.3 38.1 5.9 10.6 24.4 31.2 47.2 96.6 15.6 65.6 45.3 92 62.9 106.5 7.1 13.1 54.4 50.4 99.3 22.8 33.9-21.1 20.3-26.2 25.6-24.3 0 0 10.3 20.1-30.4 37.1 -38.2 7.7-68.7 6.8-98.4-24.7 -60.2-45.1-104.8-128.9-103.6-129.1 -5-8.6-19.4-31.2-24.4-39.8 -14.2 7.9-31.1 7.7-52.1-10.7 0.8 5.8-75.6 11.5-81.2-1.7 -9.4 5.5-28.4-3.8-25.5-10.5 4.1-21.1-3.4-25.3 0.7-46.3" fill="#429B4B"/><path d="M251.7 103.6c6-5.7 11.4-5.7 17.4-11.3 2.6-7.8 155.9 25.6 161.2 37.6 5.9 10.6 23.9 31.7 46.6 97 15.6 65.4 46.8 93.2 63.1 105.2 0.5 10.7 57.7 50.6 102.5 22.9 33.9-21.1 18.8-27.6 24.1-25.7 0 0 10.3 20.1-30.4 37.1 -38.2 7.7-68.7 6.8-98.4-24.7 -60.2-45.1-104.8-128.9-103.6-129.1 -5-8.6-19.4-31.2-24.4-39.8 -14.2 7.9-31.1 7.7-52.1-10.7 0.8 5.8-75.6 11.5-81.2-1.7 -9.4 5.5-28.4-3.8-25.5-10.5 4.1-21.1-3.4-25.3 0.7-46.3" class="c"/><path d="M251.7 103.6c6-5.7 11.1-3.3 17-8.9 2.6-7.7 154.9 25 160.4 37.1 5.8 10.6 23.3 32.1 46 97.4 15.7 65.3 48.1 94.2 63.2 104 -5.5 8.6 60.7 50.8 105.6 23.2 33.9-21.1 17.4-28.9 22.7-27 0 0 10.3 20.1-30.4 37.1 -38.2 7.7-68.7 6.8-98.4-24.7 -60.2-45.1-104.8-128.9-103.6-129.1 -5-8.6-19.4-31.2-24.4-39.8 -14.2 7.9-31.1 7.7-52.1-10.7 0.8 5.8-75.6 11.5-81.2-1.7 -9.4 5.5-28.4-3.8-25.5-10.5 4.1-21.1-3.4-25.3 0.7-46.3" fill="#40AE42"/><path d="M251.7 103.6c6-5.7 10.9-1 16.8-6.7 2.6-7.7 154 24.7 159.5 36.7 5.8 10.6 22.7 32.4 45.5 97.7 15.9 65.2 49.4 95.1 63.3 102.9 -10.9 6.5 63.5 50.9 108.3 23.3 33.9-21.1 16.2-30.1 21.5-28.2 0 0 10.3 20.1-30.4 37.1 -38.2 7.7-68.7 6.8-98.4-24.7 -60.2-45.1-104.8-128.9-103.6-129.1 -5-8.6-19.4-31.2-24.4-39.8 -14.2 7.9-31.1 7.7-52.1-10.7 0.8 5.8-75.6 11.5-81.2-1.7 -9.4 5.5-28.4-3.8-25.5-10.5 4.1-21.1-3.4-25.3 0.7-46.3" class="d"/><path d="M205.9 114.3c-5.9 5.1-18.9 20-18.9 20l-7.8 1.1c0 0-6 3-3.7 7.3 2.3 4.3 2 1.2 2.5 2.8l1.3 4c0 0 9.9 17.1 24 20.4 14.1 3.4 37-2.3 37-2.3s11.4-25.9 13.7-35C258.2 116.4 241.8 83.5 205.9 114.3" class="b"/><path d="M205.7 113.3c-5.9 4.9-18.9 20.1-18.9 20.1 -2.6 0.4-5.2 0.9-7.7 1.4 0 0-6 3.1-3.8 7.3 2.3 4.1 2.1 1.3 2.6 2.6 0.3 1.3 0.6 2.5 1 3.7 0 0 10 15.7 24.1 18.4 14 2.7 36.8-3.5 36.8-3.5s11.5-24.6 13.9-33.2C258 114.8 241.8 83.2 205.7 113.3" fill="#E1CC10"/><path d="M205.6 112.3c-6 4.8-19 20.3-19 20.3 -2.5 0.6-5.1 1.2-7.6 1.8 0 0-6.1 3.2-3.8 7.1 2.3 4 2.2 1.4 2.6 2.5 0.2 1.1 0.5 2.3 0.7 3.5 0 0 10.1 14.3 24.1 16.4 13.9 2.1 36.7-4.4 36.7-4.4s11.7-23.6 14.1-31.7C257.8 113.3 241.7 82.9 205.6 112.3" fill="#C6C51C"/><path d="M205.5 111.4c-6 4.8-19.1 20.6-19.1 20.6 -2.5 0.7-5.1 1.4-7.5 2.1 0 0-6.2 3.3-3.8 7.1 2.4 3.8 2.4 1.5 2.7 2.4 0.1 1.1 0.2 2.1 0.4 3.3 0 0 10.3 13.1 24.1 14.6 13.9 1.4 36.6-5.4 36.6-5.4s11.8-22.5 14.3-30.2C257.6 111.9 241.7 82.6 205.5 111.4" fill="#ADBB27"/><path d="M205.4 110.5c-6 4.6-19.1 20.7-19.1 20.7 -2.5 0.8-5 1.5-7.5 2.4 0 0-6.2 3.4-3.8 7 2.4 3.6 2.5 1.6 2.7 2.2 0 1 0.1 2 0.1 3.1 0 0 10.4 11.9 24.2 12.8 13.8 0.9 36.5-6.3 36.5-6.3s12-21.4 14.5-28.7C257.4 110.7 241.7 82.3 205.4 110.5" fill="#92B132"/><path d="M205.2 109.7c-6 4.6-19.2 20.9-19.2 20.9 -2.5 0.9-5 1.8-7.5 2.7 0 0-6.3 3.4-3.8 6.9 2.5 3.5 2.6 1.7 2.8 2.1 -0.1 0.9-0.2 1.9-0.2 2.8 0 0 10.5 10.8 24.2 11.2 13.7 0.4 36.4-7.1 36.4-7.1s12.1-20.5 14.7-27.4C257.3 109.4 241.6 82 205.2 109.7" fill="#77A83C"/><path d="M205.1 108.9c-6 4.4-19.2 21-19.2 21 -2.5 1-5 2-7.4 2.9 0 0-6.3 3.6-3.8 6.9 2.5 3.3 2.7 1.7 2.8 1.9 -0.2 0.9-0.3 1.8-0.5 2.7 0 0 10.6 9.8 24.2 9.7 13.6-0.1 36.2-7.9 36.2-7.9s12.2-19.6 14.9-26.1C257.1 108.3 241.6 81.8 205.1 108.9" fill="#5E9E45"/><path d="M205 108.1c-6 4.3-19.2 21.2-19.2 21.2l-7.5 3.3c0 0-6.3 3.6-3.8 6.8 2.5 3.3 2.9 1.8 2.9 1.8l-0.7 2.5c0 0 10.7 8.8 24.3 8.2 13.6-0.6 36.1-8.7 36.1-8.7s12.4-18.6 15-24.9C256.9 107.1 241.5 81.5 205 108.1" class="a"/><path d="M205.2 109.7c-8.6 4.3-21.2 21.5-17.4 23.5 -2.5 1-6.8-0.5-9.3 0.6 -0.5-0.1-5.8 2.6-4 5.3 1.7 2.9 2.6 3.6 3 3.5 -0.1 0.7 0.1 1.6-0.1 2.2 0.6 0.2 8.3 6.7 18.6 6.5 9.6-0.4 27.2-3.8 31.4-3.7 4.3 0.1 16.7-13.4 21.3-19.1 4.4-5.3 4.7-16.5-1-21.9C241.9 100.3 229 92.7 205.2 109.7" fill="#479B49"/><path d="M205.4 111.1c-10.9 4.1-22.9 21.7-15.9 25.6 -2.5 0.9-8.4-2.9-10.9-1.8 -0.9 0-5.2 1.9-4.2 4 0.9 2.7 2.5 5.1 3.1 4.9 0 0.6 0.6 1.5 0.5 1.9 1.2 0.4 6.3 4.9 13.6 5.1 6.1-0.3 19.2 0.5 27.2 0.6 8 0.2 20.6-8.8 26.9-14 6.2-5 9-18.1 5.2-24.2C247 105.5 234.1 90.7 205.4 111.1" fill="#4BA342"/><path d="M205.6 112.4c-13 4.1-24.4 21.9-14.4 27.5 -2.6 0.9-10-5.1-12.4-4 -1.3-0.1-4.7 1.1-4.4 2.8 0.3 2.4 2.4 6.6 3.4 6.2 0 0.6 1 1.5 0.9 1.7 1.7 0.6 4.4 3.3 9.1 3.7 2.9-0.1 11.9 4.4 23.3 4.7 11.4 0.3 24.1-4.4 32-9.3 7.8-4.8 13.1-19.6 11-26.4C251.6 110.2 238.7 88.9 205.6 112.4" fill="#52AD39"/><path d="M205.8 113.5c-14.9 4-25.8 22.1-13.1 29.3 -2.6 0.8-11.3-7.1-13.8-6 -1.7-0.1-4.3 0.4-4.6 1.7 -0.3 2.2 2.2 7.9 3.5 7.4 0.1 0.5 1.4 1.4 1.4 1.4 2.2 0.7 2.7 1.8 4.9 2.4 0 0 5.3 8.1 19.8 8.4 14.6 0.3 27.4-0.5 36.6-5.1 9.3-4.5 16.8-20.9 16.2-28.3C255.8 114.4 243 87.3 205.8 113.5" fill="#5AB930"/><path d="M224.4 111.3c0 0-0.1-12.6 11.2-14.7 11.3-2 18.8-4.6 18.8-4.6s1.5 3.5 2 7.1c0.5 3.7-1.4 12.8-1.4 12.8l-4.5 9 -9.7 6.1c0 0-5.5 5.5-8.1 2.1C230 125.8 224.4 111.3 224.4 111.3" class="a"/><path d="M226 111.1c0 0-0.1-11.6 10.2-13.4 10.3-1.9 17.2-4.3 17.2-4.3s1.4 3.2 1.8 6.5c0.4 3.2-1.3 11.7-1.3 11.7 -1.3 2.8-2.8 5.5-4.2 8.3 -2.9 1.8-5.9 3.7-8.8 5.5 0 0-5.1 5-7.4 2C231.2 124.4 226 111.1 226 111.1" fill="#3E994C"/><path d="M227.5 110.9c0 0-0.1-10.6 9.3-12.3 9.5-1.8 15.8-3.9 15.8-3.9s1.3 2.9 1.7 6c0.4 3-1.2 10.7-1.2 10.7 -1.2 2.5-2.6 5-3.8 7.6 -2.7 1.7-5.4 3.3-8.2 5.1 0 0-4.6 4.6-6.7 1.8C232.2 123 227.5 110.9 227.5 110.9" fill="#35A14A"/><path d="M228.8 110.7c0 0-0.1-9.6 8.5-11.2 8.7-1.6 14.5-3.5 14.5-3.5s1.1 2.6 1.5 5.4c0.4 2.8-1.1 9.9-1.1 9.9 -1.1 2.3-2.3 4.6-3.5 6.9 -2.5 1.6-5 3.1-7.4 4.7 0 0-4.3 4.2-6.2 1.6C233.1 121.8 228.8 110.7 228.8 110.7" fill="#2BA748"/><path d="M230 110.5c0 0 0-8.8 7.9-10.3 7.9-1.4 13.2-3.2 13.2-3.2s1.1 2.4 1.4 5c0.3 2.5-0.9 9-0.9 9l-3.2 6.4 -6.8 4.2c0 0-3.9 3.8-5.7 1.5S230 110.5 230 110.5" class="e"/><path d="M233.3 123.3c-0.1-4.9-0.2-9.8-0.4-14.7 0-2.2-1.4-4 4.2-7.4 2.7 0.6 6 0 9.4-0.8 1.9-1.1 3.9-2.3 5.9-3.4 -1.3 2.6-2.8 4.9-5.5 6 -2.3 1.2-4.8 2.1-7.6 2.1 -2.7 0.6-3.5 3-3.3 6.2 -0.2 2.4-0.4 5.2-0.4 8.5 0.2 2.1 1.5 3 4 2.6 1.2-0.3 2.4-0.7 3.5-1C243.1 121.4 234 127.9 233.3 123.3" class="f"/><path d="M174.3 145.8c0.2 0.2 1.4 1.8 3.9 3.4 2.5 1.6 6.3 3.2 11.2 3.2 1.6 0 3.4-0.2 5.3-0.5 5.9-1.2 10-1.8 12.5-2.2 1.3-0.2 2.2-0.3 2.8-0.3 0.3 0 0.5 0 0.6-0.1l0.1 0 0 0 0-0.7 0 0.7 0 0 0-0.7 0 0.7 -0.2-3.1 -1.4 2.8c0.1 0 1.5 0.8 3.6 1.5 2.2 0.8 5.1 1.6 8.4 1.9l0.2-3.1 -0.3 3.1c0.5 0 0.9 0.1 1.4 0.1 1.8 0 3.7-0.2 5.7-0.6 2.9-0.6 5.9-1.4 8.3-2.3 1.2-0.5 2.3-0.9 3.3-1.4 0.5-0.2 0.9-0.5 1.3-0.8 0.4-0.3 0.8-0.6 1.3-1.1l0 0 1.6-1.8 -4.7-4.1 -1.6 1.8 0 0 0.9 0.8 -0.8-0.9 -0.1 0.1 0.9 0.8 -0.8-0.9 0.2 0.2 -0.2-0.2 0 0 0.2 0.2 -0.2-0.2c0 0-0.2 0.2-0.6 0.4 -0.6 0.3-1.6 0.8-2.8 1.2 -1.8 0.7-3.9 1.3-6.1 1.8 -2.1 0.5-4.2 0.8-5.8 0.8 -0.3 0-0.6 0-0.9 0l0 0 0 0c-2.5-0.2-5-0.9-6.8-1.5 -0.9-0.3-1.6-0.6-2.1-0.9 -0.2-0.1-0.4-0.2-0.6-0.3l-0.1-0.1 0 0 0 0 -0.8 1.6 0.8-1.6 0 0 -0.8 1.6 0.8-1.6 -0.8-0.4 -0.9 0c-0.2 0-5 0.3-17 2.7 -1.5 0.3-2.8 0.4-4.1 0.4 -3.7 0-6.2-1.1-7.9-2.2 -0.8-0.5-1.4-1.1-1.8-1.4 -0.2-0.2-0.3-0.3-0.4-0.4l-0.1-0.1 0 0 -1.1 0.9 1.1-0.8 0 0 -1.1 0.9 1.1-0.8L174.3 145.8z" class="g"/><path d="M176.5 148.2c0 0.1 0.4 1.2 1 2.4 0.3 0.6 0.7 1.3 1.3 2 0.3 0.3 0.6 0.7 1.1 1 0.4 0.3 1 0.6 1.6 0.8l0 0 0-0.1 -0.1 0.1 0 0 0-0.1 -0.1 0.1c0 0 0.1 0 0.2 0.1 0.2 0.1 0.7 0.5 1.4 0.8 0.7 0.3 1.6 0.4 2.5 0.4 1.6 0 3.4-0.4 6-1.2l0 0c3.4-1.1 5.2-1.7 6.2-2.1 0.5-0.2 0.8-0.4 1.2-0.6 0.2-0.1 0.4-0.3 0.7-0.6 0.1-0.2 0.3-0.4 0.5-0.7 0.1-0.2 0.2-0.4 0.2-0.6 0-0.1 0.1-0.3 0.1-0.4l0-0.2 0-0.1 0-0.1 -3.1-0.1 0 0 3.1 0.5 0-0.1 -6.2-0.8 0 0.2v0.2h3.1l-2.7-1.4c-0.2 0.3-0.3 0.8-0.3 1.4h3.1l-2.7-1.4 2.7 1.4 -2.2-2c-0.1 0.1-0.3 0.3-0.5 0.6l2.7 1.4 -2.2-2 2 1.8 -1.5-2.2c-0.1 0.1-0.2 0.2-0.5 0.4l2 1.8 -1.5-2.2 0.7 1.1 -0.6-1.1 -0.1 0.1 0.7 1.1 -0.6-1.1c0 0-0.4 0.2-1.4 0.6 -0.9 0.3-2.4 0.8-4.6 1.5l0 0 0 0c-2.3 0.8-3.6 0.9-4.1 0.9 -0.2 0-0.3 0-0.3 0l0 0.1 0-0.1 0 0 0 0.1 0-0.1 -0.1 0c-0.1 0-0.3-0.2-0.6-0.4 -0.3-0.2-0.8-0.4-1.4-0.6l0 0 -0.3 1 0.6-0.8c0 0-0.1-0.1-0.3-0.2l-0.3 1 0.6-0.8 -0.1 0.1 0.1-0.1 0 0 -0.1 0.1 0.1-0.1c0 0-0.2-0.2-0.3-0.4 -0.2-0.4-0.5-0.9-0.7-1.3 -0.1-0.2-0.1-0.4-0.2-0.5l0-0.1 0 0 -0.9 0.3 0.9-0.3 0 0 -0.9 0.3 0.9-0.3L176.5 148.2z" class="a"/><path d="M216.6 143.1c-8.5 1.1-16.2-3.6-17.2-10.7 -0.9-7 5.3-13.7 13.7-14.8 8.5-1.2 16.3 3.6 17.3 10.6C231.4 135.3 225.1 141.9 216.6 143.1" class="g"/><path d="M216.9 142.1c-8.1 1.1-15.5-3.5-16.4-10.2 -0.9-6.7 5-13.1 13.1-14.2 8.2-1.1 15.6 3.5 16.5 10.2C231 134.6 225.1 141 216.9 142.1" fill="#2F9551"/><path d="M217.1 141.2c-7.8 1.1-14.9-3.3-15.8-9.8 -0.9-6.4 4.8-12.5 12.6-13.6 7.8-1.1 14.9 3.3 15.8 9.7C230.6 134.1 225 140.2 217.1 141.2" fill="#2C9E4E"/><path d="M217.4 140.5c-7.5 1-14.3-3.2-15.2-9.5 -0.8-6.1 4.6-12.1 12.1-13.1 7.5-1 14.3 3.2 15.1 9.4C230.3 133.5 224.9 139.4 217.4 140.5" fill="#26A64B"/><path d="M217.6 139.7c-7.2 1-13.8-3.1-14.6-9 -0.8-6 4.5-11.7 11.7-12.7 7.3-1 13.8 3.1 14.6 9.1C230 133.1 224.8 138.7 217.6 139.7" class="e"/><path d="M217.8 137.6c-6.4 0.9-12-2.7-12.7-7.8 -0.7-5.2 3.8-10.2 10.2-11 6.3-0.9 12 2.7 12.7 7.9C228.7 131.8 224.1 136.8 217.8 137.6" fill="#38B744"/><path d="M218 135.7c-5.4 0.7-10.4-2.3-11.1-6.8 -0.6-4.4 3.4-8.7 8.9-9.5 5.5-0.7 10.5 2.3 11.1 6.8C227.4 130.7 223.5 135 218 135.7" fill="#57C042"/><path d="M218.2 134c-4.7 0.6-9-1.9-9.5-5.8 -0.5-3.9 2.9-7.6 7.6-8.2 4.7-0.6 8.9 2 9.4 5.9S222.8 133.3 218.2 134" fill="#76CA41"/><path d="M218.3 132.4c-4 0.5-7.6-1.7-8-5 -0.4-3.2 2.4-6.4 6.4-6.9 4-0.5 7.6 1.7 8 5C225.1 128.7 222.3 131.8 218.3 132.4" fill="#99D543"/><path d="M218.5 130.8c-3.3 0.5-6.3-1.4-6.7-4.1 -0.4-2.7 2-5.2 5.3-5.7 3.2-0.4 6.2 1.4 6.6 4.1C224.1 127.8 221.7 130.4 218.5 130.8" fill="#BFE145"/><path d="M218.6 129.4c-2.1 0.3-4.1-1.1-4.4-3 -0.3-1.9 1.3-3.7 3.4-4 2.1-0.3 4 1 4.3 2.9C222.2 127.2 220.7 129.1 218.6 129.4" class="f"/><path d="M218.6 124.8c-0.4 0-0.8-0.5-0.9-1 -0.1-0.6 0.2-1.2 0.5-1.3s0.7 0.5 0.8 1.1C219.2 124.1 219 124.7 218.6 124.8" fill="#FFF"/><path d="M275.8 136.4c1.1-1.4 42.6-3.3 50.4-1.7 11.7 6.5-28 75.4-43.1 80 -9.8 11.5-6.6 30.7-6.6 30.7 -2.9 9-7.3 13.7-13.5 12 -17.7-6.3-10.3-5.1-9.9-7.6 6.8 0.8 9.3-2.5 7.5-9.9 -3-4.7-5.4-12.5-10.8-4.9 0 0-13.7 1.9-5.9-5.5 7.9-7.5 16.8-7.4 16.8-7.4 12.6-19.5 25.1-38.9 37.8-58.3 -7.9-5.1-16.4-9.3-28.7-6.2C269.8 157.5 274.8 137.9 275.8 136.4" class="a"/><path d="M275.8 137.4c1.1-1.4 41.1-2.2 48.9-0.7 11.7 6.5-27.4 73.2-42.6 77.8 -9.8 11.5-5.8 30.6-5.8 30.6 -2.9 9.1-7.1 13.8-13.4 12 -17.7-6.2-9.9-4.6-9.5-7.1 6.8 0.8 10.6-2.8 8.8-10.3 -3-4.7-6.9-12.4-12.3-4.8 0 0-12.8 1.9-5-5.5 7.8-7.4 16.1-6.9 16.1-6.9 12.6-19.5 25.4-38.2 38-57.7 -7.9-5.1-16.8-10.4-29.2-7.3C269.8 157.5 274.7 138.8 275.8 137.4" class="h"/><path d="M275.8 138.3c1-1.4 39.7-1.2 47.6 0.2 11.7 6.5-26.9 71.2-42.1 75.8 -9.9 11.5-5.3 30.7-5.3 30.7 -3 9.1-7 13.7-13.3 11.9 -17.7-6.2-9.6-4.2-9.2-6.7 6.8 0.8 11.8-3.1 10-10.6 -3.1-4.7-8.3-12.4-13.7-4.8 0 0-12.1 1.9-4.3-5.5 7.9-7.4 15.6-6.6 15.6-6.6 12.5-19.4 25.6-37.7 38.1-57.1 -7.8-5.2-17.2-11.4-29.6-8.4 0 0 4.9-17.8 6-19.2" class="i"/><path d="M275.7 139.2c1.1-1.4 38.5-0.4 46.3 1.1 11.6 6.6-26.5 69.4-41.7 74 -9.8 11.5-4.7 30.8-4.7 30.8 -2.9 9.1-6.8 13.7-13.1 11.9 -17.7-6.2-9.2-3.8-8.8-6.3 6.8 0.8 12.8-3.4 11-10.8 -3-4.7-9.5-12.4-14.9-4.7 0 0-11.4 2-3.5-5.4 7.8-7.4 15.1-6.2 15.1-6.2 12.5-19.5 25.8-37.1 38.3-56.6 -7.8-5.1-17.6-12.3-30-9.2C269.8 157.5 274.6 140.6 275.7 139.2" class="j"/><path d="M275.7 140c1.1-1.4 37.3 0.4 45.1 1.9 11.7 6.5-26.1 67.6-41.3 72.2 -9.8 11.5-4.2 30.8-4.2 30.8 -2.9 9.1-6.7 13.7-13 11.9 -17.7-6.2-9-3.5-8.5-6 6.8 0.9 13.8-3.7 12-11 -3-4.7-10.7-12.4-16-4.7 0 0-10.7 2-2.9-5.4 7.8-7.4 14.6-5.9 14.6-5.9 12.6-19.4 26-36.6 38.6-56.1 -7.9-5.1-18-13.2-30.4-10.1C269.8 157.5 274.7 141.3 275.7 140" class="k"/><path d="M275.7 140.7c1.1-1.4 36.2 1.1 44 2.6 11.7 6.5-25.7 66-40.8 70.6 -9.8 11.5-3.7 30.9-3.7 30.9 -2.9 9-6.6 13.6-12.9 11.9 -17.6-6.3-8.6-3.1-8.2-5.6 6.9 0.8 14.8-3.9 13-11.3 -3-4.8-11.7-12.4-17.1-4.7 0 0-10.1 2.1-2.2-5.4 7.8-7.4 14.1-5.5 14.1-5.5 12.5-19.5 26.2-36.3 38.8-55.7 -7.9-5.2-18.4-14-30.7-10.9C269.8 157.5 274.6 142.1 275.7 140.7" class="e"/><path d="M393.8 149.4c0 0-2.6 6.8-9.9 9.1 -9 0.4-29.5 5.5-26.7 8.7 -0.6 18.1 1 38-8.4 49.2 -6.1 0.1-10 2.8-11.6 7.9 -1.9 2.9-2 5.4-0.3 7.7 4.6-4.2 6.3-8.5 11.9-5.4 2 2.2 4 4.6 6 6.8 -0.3 4.3-0.6 8.5-0.9 12.8 1.1 4.2 4.5-1 11.7-7 2.9 2.6 5.7 4.8 7.3-1.9 -1.1-6.2-3.2-12.2-6.3-18.1 4-1.6 6.6-14.1 7.6-37.8 11.4-0.5 21.6-2.8 30.7-6.7C399.9 164.8 398.9 159.3 393.8 149.4" class="a"/><path d="M393.8 149.4c0 0-2.4 8.3-9.7 10.6 -9 0.4-28.5 5.5-25.7 8.7 -0.6 18.1 1 36.8-8.4 48.1 -6.1 0.1-10.7 2-12.4 7.2 -1.9 2.8-2.4 5.7-0.6 8 4.6-4.2 6.7-9.3 12.3-6.1 2 2.2 4.6 5.1 6.5 7.4 -0.2 4.3-0.9 8.1-1.1 12.3 1 4.2 4.2-1.7 11.3-7.9 2.9 2.6 5.2 5.8 6.9-0.8 -1.2-6.2-3.6-12.3-6.6-18.2 4-1.5 6.8-14.5 7.8-38.2 11.4-0.5 21.9-2 31-5.9C399.9 164.8 398.9 159.3 393.8 149.4" class="h"/><path d="M393.8 149.4c0 0-2.2 9.6-9.5 11.9 -9 0.4-27.6 5.5-24.8 8.7 -0.6 18.1 1 35.7-8.4 47 -6.1 0.2-11.5 1.4-13.1 6.6 -1.9 2.8-2.8 6.1-1.1 8.3 4.6-4.2 7.1-9.9 12.7-6.7 2 2.2 5.1 5.6 7 7.9 -0.2 4.3-1.2 7.6-1.5 11.9 1 4.1 4-2.5 11.1-8.6 2.9 2.6 4.7 6.8 6.3 0.1 -1.2-6.2-3.9-12.4-6.9-18.3 4-1.6 7.1-14.8 8.1-38.5 11.4-0.5 22.2-1.3 31.3-5.2C399.9 164.8 398.9 159.3 393.8 149.4" class="i"/><path d="M393.8 149.4c0 0-2.1 10.8-9.4 13.1 -9 0.4-26.8 5.6-24 8.8 -0.6 18.1 1 34.8-8.4 46.1 -6.1 0.1-12 0.8-13.6 5.9 -1.9 2.8-3.2 6.4-1.5 8.7 4.6-4.2 7.4-10.6 13-7.4 2 2.2 5.6 6.1 7.5 8.4 -0.3 4.3-1.6 7.3-1.8 11.5 1 4.2 3.7-3.2 10.9-9.2 2.9 2.6 4.3 7.7 5.9 1.1 -1.2-6.2-4.2-12.5-7.2-18.4 4-1.5 7.4-15.2 8.3-38.8 11.4-0.5 22.4-0.6 31.5-4.6C399.9 164.8 398.9 159.3 393.8 149.4" class="j"/><path d="M393.8 149.4c0 0-1.9 12-9.2 14.3 -9 0.4-26 5.7-23.2 8.8 -0.6 18.1 1.1 33.9-8.4 45.2 -6.1 0.1-12.6 0.1-14.3 5.3 -1.9 2.8-3.5 6.7-1.8 9 4.6-4.2 7.8-11.1 13.4-7.9 2 2.3 6 6.6 7.9 8.9 -0.2 4.3-1.8 6.9-2.1 11.2 1 4.1 3.5-3.8 10.7-9.9 2.9 2.6 3.9 8.5 5.5 1.9 -1.1-6.2-4.5-12.7-7.5-18.6 4-1.5 7.5-15.4 8.6-39.1 11.4-0.5 22.6 0 31.7-3.9C399.9 164.8 398.9 159.3 393.8 149.4" class="k"/><path d="M393.8 149.4c0 0-1.7 13.1-9.1 15.3 -9 0.4-25.3 5.6-22.4 8.9 -0.6 18.1 1.1 33-8.4 44.4 -6.1 0.1-13.1-0.4-14.8 4.8 -1.9 2.8-3.9 7-2.1 9.3 4.6-4.2 8.1-11.7 13.7-8.5 2 2.3 6.3 7.1 8.3 9.3 -0.2 4.3-2.1 6.6-2.3 10.9 1 4.1 3.3-4.3 10.4-10.5 2.9 2.6 3.5 9.3 5.2 2.7 -1.2-6.2-4.7-12.7-7.8-18.6 4-1.5 7.7-15.6 8.8-39.3 11.4-0.5 22.8 0.6 31.9-3.4C399.9 164.8 398.9 159.3 393.8 149.4" class="e"/><path d="M269.4 93.8c0 0-0.1 14.8 1.1 18.9 1.3 4.1 9.9 15.6 13.9 14.3 4-1.3 14.2-4.7 13.3-10.9s-5.5-24.6-5.5-24.6l-11.6-2L269.4 93.8" class="d"/><path d="M269.9 92.6c0 0 0 13.5 1 17.3 1.2 3.7 9 14.2 12.8 13.1 3.7-1.1 12.9-4.3 12.2-10.1 -0.8-5.6-5-22.5-5-22.5 -3.5-0.6-7.1-1.2-10.5-1.8L269.9 92.6" class="l"/><path d="M270.4 91.6c0 0-0.1 12.3 1 15.7 1 3.4 8.2 13.1 11.6 11.9 3.4-1 11.8-3.9 11.1-9.1s-4.6-20.5-4.6-20.5c-3.2-0.6-6.4-1.1-9.6-1.6C276.8 89.2 273.7 90.4 270.4 91.6" class="m"/><path d="M271 90.6c0 0-0.1 11.3 0.9 14.3 0.9 3.1 7.5 11.9 10.5 10.9 3.1-1 10.8-3.6 10.2-8.4 -0.6-4.7-4.1-18.8-4.1-18.8 -2.9-0.5-5.9-0.9-8.8-1.5L271 90.6" class="c"/><path d="M271.3 89.7c0 0 0 10.3 0.8 13.1 0.8 2.8 6.8 10.8 9.6 9.9 2.8-0.9 9.8-3.3 9.3-7.6s-3.8-17.1-3.8-17.1c-2.6-0.4-5.3-0.9-7.9-1.4C276.6 87.7 274 88.7 271.3 89.7" class="n"/><path d="M271.7 88.9c0 0 0 9.3 0.7 11.8 0.8 2.6 6.2 9.8 8.8 9 2.6-0.8 8.9-3 8.4-6.9 -0.5-4-3.5-15.5-3.5-15.5l-7.3-1.2L271.7 88.9" class="a"/><path d="M399.6 155.5c0 0 0.7 7.9 1.4 10 0.7 2.2 4.9 8.3 6.5 7.5 1.6-0.7 5.6-2.6 4.9-6 -0.7-3.3-3.5-13-3.5-13l-4.9-0.9L399.6 155.5" class="d"/><path d="M400 156.1c0 0 0.7 7.2 1.3 9.2 0.7 2 4.5 7.5 5.9 6.9 1.5-0.6 5.1-2.4 4.6-5.4 -0.6-2.7-2.9-10.6-2.9-11.1 -1.4-0.7-2.8-1.4-4-1.6C403.3 154.8 401.7 155.5 400 156.1" class="l"/><path d="M400.5 156.7c0 0 0.6 6.6 1.2 8.4 0.6 1.8 4 6.9 5.4 6.2 1.4-0.6 4.7-2.2 4.1-5 -0.4-2-2.2-8.3-2.4-9.2 -1.1-1.1-2.3-2.1-3.2-2.2L400.5 156.7" class="m"/><path d="M400.9 157.2c0 0 0.5 6 1 7.6 0.6 1.6 3.7 6.3 4.9 5.7 1.2-0.5 4.3-2 3.8-4.5 -0.3-1.4-1.6-6.2-2-7.5 -0.9-1.4-1.8-2.7-2.5-2.8C404.5 156.2 402.7 156.7 400.9 157.2" class="c"/><path d="M401.2 157.7c0 0 0.5 5.5 0.9 7 0.6 1.4 3.4 5.7 4.5 5.2 1.1-0.5 3.9-1.9 3.4-4.1 -0.1-0.9-1.1-4.3-1.5-5.9 -0.7-1.7-1.4-3.3-1.7-3.4L401.2 157.7" class="n"/><path d="M401.6 158.2c0 0 0.4 5 0.9 6.4 0.5 1.3 3.1 5.1 4.1 4.7 1-0.4 3.5-1.6 3.1-3.7 -0.1-0.8-2.1-8.3-2.2-8.3L401.6 158.2" class="a"/><path d="M257.7 121.6c0 0-0.1 8 0.6 10.1 0.7 2.2 5.5 8.4 7.9 7.6 2.3-0.7 8.1-2.6 7.6-5.9 -0.4-3.3-3-13.3-3-13.3l-6.5-1L257.7 121.6" class="d"/><path d="M258.3 122.2c0 0-0.1 7.3 0.5 9.3 0.6 2 5.1 7.6 7.1 6.9 2.2-0.6 7.4-2.4 7-5.4 -0.4-2.7-2.5-10.7-2.5-11.2 -1.8-0.8-3.6-1.5-5.3-1.7L258.3 122.2" class="l"/><path d="M258.8 122.8c0 0-0.1 6.6 0.5 8.4 0.5 1.9 4.6 7 6.5 6.4 1.9-0.5 6.8-2.1 6.4-5 -0.3-2-1.9-8.4-2-9.3 -1.4-1-2.8-2.1-4-2.3C263.6 121.6 261.1 122.2 258.8 122.8" class="m"/><path d="M259.2 123.3c0 0 0 6 0.5 7.7 0.5 1.7 4.2 6.3 6 5.8 1.7-0.5 6.1-2 5.8-4.5 -0.2-1.4-1.4-6.3-1.7-7.5 -1.1-1.4-2.2-2.7-3-2.8C264.2 122.3 261.7 122.8 259.2 123.3" class="c"/><path d="M259.6 123.8c0 0-0.1 5.5 0.4 7 0.5 1.5 3.8 5.8 5.4 5.3 1.6-0.5 5.6-1.8 5.3-4.1 -0.1-0.9-0.9-4.3-1.3-6 -0.7-1.7-1.5-3.3-1.9-3.3C264.9 123 262.3 123.4 259.6 123.8" class="n"/><path d="M260.1 124.3c0 0 0 5 0.4 6.4 0.5 1.4 3.5 5.3 5 4.8 1.5-0.4 5-1.6 4.7-3.7 -0.1-0.7-1.8-8.3-1.8-8.3L260.1 124.3" class="a"/><path d="M334 151.5c0 0-0.1 4.7 0.4 5.9 0.4 1.3 3.2 4.9 4.6 4.5 1.4-0.4 4.7-1.5 4.4-3.5 -0.3-2-1.7-7.8-1.7-7.8l-3.9-0.6L334 151.5" class="d"/><path d="M334.3 151.9c0 0-0.1 4.3 0.3 5.4 0.4 1.2 3 4.5 4.2 4.1 1.2-0.4 4.3-1.4 4-3.2 -0.2-1.6-1.4-6.3-1.5-6.6 -1.1-0.4-2-0.8-3.1-0.9L334.3 151.9" class="l"/><path d="M334.6 152.2c0 0 0 3.9 0.3 4.9 0.4 1.1 2.7 4.1 3.8 3.8 1.1-0.4 3.9-1.3 3.7-2.9 -0.2-1.2-1.1-4.9-1.2-5.4 -0.9-0.6-1.7-1.2-2.4-1.3C337.4 151.5 336 151.9 334.6 152.2" class="m"/><path d="M334.9 152.5c0 0-0.1 3.5 0.2 4.5 0.3 1 2.5 3.8 3.5 3.4 1-0.3 3.6-1.1 3.4-2.6 -0.1-0.8-0.8-3.7-1-4.5 -0.6-0.8-1.3-1.6-1.7-1.6L334.9 152.5" class="c"/><path d="M335.2 152.8c0 0-0.1 3.2 0.2 4.1 0.3 0.9 2.3 3.4 3.1 3.1 1-0.3 3.3-1 3.1-2.4 -0.1-0.5-0.6-2.5-0.8-3.5 -0.4-0.9-0.8-1.9-1.1-1.9L335.2 152.8" class="n"/><path d="M335.3 153c0 0 0 3 0.2 3.8 0.2 0.8 2.1 3 2.9 2.8 0.8-0.3 3-1 2.8-2.2 -0.1-0.4-1-4.9-1.1-4.9L335.3 153" class="a"/><path d="M358.5 146.7c0 0-0.6 4.8 0 6 0.6 1.2 5.2 4.6 7.6 4.1 2.4-0.5 8.5-2.1 8.2-4 -0.3-2-2.3-7.7-2.3-7.7l-6.6-0.3L358.5 146.7" class="d"/><path d="M359 147.1c0 0-0.5 4.3 0 5.5 0.5 1.2 4.7 4.2 7 3.7 2.2-0.5 7.7-1.8 7.4-3.7 -0.2-1.6-2-7-2.1-7l-6 0C363.2 146.1 361.1 146.6 359 147.1" class="l"/><path d="M359.5 147.4c0 0-0.5 4 0 5 0.5 1 4.3 3.9 6.4 3.4 2-0.5 7-1.7 6.8-3.3 -0.2-1.3-1.9-6.4-1.9-6.4l-5.6 0.1C363.3 146.6 361.4 147 359.5 147.4" class="m"/><path d="M359.9 147.7c0 0-0.4 3.6 0 4.6 0.4 1 3.9 3.5 5.7 3.1 1.9-0.5 6.4-1.6 6.2-3.1 -0.1-1-1.7-5.8-1.7-5.8 -1.7 0-3.4 0.1-5.1 0.2C363.4 147.1 361.7 147.4 359.9 147.7" class="c"/><path d="M360.4 148c0 0-0.4 3.3 0 4.1 0.4 0.9 3.6 3.3 5.3 2.9 1.7-0.4 5.8-1.4 5.7-2.8 -0.1-0.7-1.5-5.3-1.6-5.3 -1.6 0.1-3.1 0.2-4.7 0.4C363.5 147.5 361.9 147.7 360.4 148" class="n"/><path d="M360.8 148.2c0 0-0.4 3-0.1 3.7 0.4 0.8 3.3 2.9 4.8 2.6 1.5-0.4 5.3-1.3 5.1-2.5 -0.1-0.4-1.3-4.9-1.4-4.8L360.8 148.2" class="a"/><path d="M249.9 146.7c0 0-0.5 4.7 0 6 0.5 1.2 4.7 4.7 6.9 4.2 2.1-0.5 7.4-1.9 7.2-3.8s-2.1-7.7-2.1-7.7l-5.9-0.3L249.9 146.7" class="d"/><path d="M250.4 147c0 0-0.4 4.3 0 5.5 0.5 1.2 4.3 4.3 6.3 3.8 1.9-0.5 6.8-1.7 6.6-3.5 -0.2-1.6-1.9-7.1-2-7.1 -1.8 0-3.6-0.1-5.4-0.1C254 146.1 252.2 146.5 250.4 147" class="l"/><path d="M250.8 147.3c0 0-0.4 4 0 5 0.5 1 4 3.9 5.7 3.5 1.8-0.4 6.3-1.6 6-3.2 -0.2-1.3-1.7-6.4-1.8-6.4 -1.7 0-3.3 0-5 0L250.8 147.3" class="m"/><path d="M251.2 147.6c0 0-0.4 3.6 0 4.6 0.4 0.9 3.6 3.5 5.2 3.2 1.6-0.4 5.7-1.5 5.5-3 -0.1-1-1.6-5.8-1.7-5.8l-4.6 0.2L251.2 147.6" class="c"/><path d="M251.6 147.9c0 0-0.3 3.3 0.1 4.1 0.3 0.9 3.3 3.3 4.7 3 1.5-0.4 5.2-1.4 5-2.7 -0.1-0.7-1.4-5.3-1.5-5.3 -1.4 0.1-2.8 0.2-4.1 0.3C254.4 147.5 253 147.6 251.6 147.9" class="n"/><path d="M251.9 148.1c0 0-0.2 3 0.1 3.7 0.3 0.8 2.9 3 4.3 2.7 1.3-0.3 4.7-1.2 4.6-2.4 -0.1-0.4-1.3-4.9-1.4-4.8L251.9 148.1" class="a"/><path d="M271.7 163.1c0 0-0.3 2.8 0 3.5 0.3 0.8 2.8 2.8 4 2.5s4.4-1.1 4.2-2.3c-0.2-1.1-1.3-4.5-1.3-4.5l-3.5-0.2L271.7 163.1" class="d"/><path d="M272 163.3c0 0-0.2 2.5 0.1 3.2 0.2 0.7 2.5 2.5 3.7 2.2 1.1-0.2 4-1 3.9-2 -0.1-1-1.2-4.1-1.2-4.1 -1.1 0-2.1-0.1-3.2-0.1C274.1 162.8 273.1 163 272 163.3" class="l"/><path d="M272.2 163.5c0 0-0.2 2.3 0 2.9 0.3 0.6 2.3 2.3 3.4 2.1 1-0.2 3.7-0.9 3.6-1.9 -0.1-0.7-1-3.7-1-3.7 -1 0-2 0-2.9 0L272.2 163.5" class="m"/><path d="M272.4 163.6c0 0-0.1 2.1 0.1 2.7 0.2 0.5 2.1 2.1 3.1 1.8 1-0.2 3.3-0.8 3.2-1.7 -0.1-0.6-0.9-3.4-1-3.4 -0.9 0-1.8 0-2.7 0.1C274.3 163.3 273.3 163.4 272.4 163.6" class="c"/><path d="M272.7 163.8c0 0-0.2 1.9 0 2.4 0.2 0.5 1.9 1.9 2.8 1.7 0.8-0.3 3.1-0.8 2.9-1.6 0-0.4-0.9-3.1-0.9-3.1 -0.8 0-1.6 0.1-2.4 0.2C274.3 163.5 273.5 163.7 272.7 163.8" class="n"/><path d="M272.9 163.9c0 0-0.2 1.8 0 2.2 0.2 0.5 1.8 1.8 2.5 1.5 0.8-0.2 2.8-0.7 2.7-1.4 0-0.3-0.8-2.9-0.8-2.9L272.9 163.9" class="a"/><path d="M320.8 161.4c0 0-0.3 2.8 0 3.5 0.3 0.7 2.7 2.7 4 2.4 1.3-0.2 4.5-1.1 4.3-2.2 -0.2-1.2-1.3-4.6-1.3-4.6l-3.5-0.2L320.8 161.4" class="d"/><path d="M321 161.6c0 0-0.2 2.5 0.1 3.2 0.3 0.7 2.5 2.5 3.7 2.2 1.1-0.3 4-1 3.9-2.1 -0.1-0.9-1.1-4.1-1.2-4.1 -1-0.1-2.1-0.1-3.2-0.1C323.3 161 322.1 161.3 321 161.6" class="l"/><path d="M321.4 161.8c0 0-0.3 2.3 0 2.9 0.2 0.6 2.3 2.3 3.3 2.1 1.1-0.3 3.7-0.9 3.6-1.9 -0.1-0.8-1-3.7-1-3.7 -1 0-1.9 0-3 0C323.3 161.3 322.3 161.6 321.4 161.8" class="m"/><path d="M321.6 161.9c0 0-0.2 2.1 0 2.7 0.2 0.5 2.1 2.1 3.1 1.9 1-0.2 3.3-0.9 3.2-1.7 -0.1-0.6-0.9-3.5-1-3.5l-2.6 0.1C323.3 161.6 322.4 161.8 321.6 161.9" class="c"/><path d="M321.8 162.1c0 0-0.2 2 0 2.4 0.2 0.5 1.9 2 2.8 1.7 0.8-0.2 3.1-0.8 3-1.6 -0.1-0.4-0.9-3.1-0.9-3.1 -0.8 0-1.6 0.1-2.4 0.2L321.8 162.1" class="n"/><path d="M322 162.2c0 0-0.2 1.8 0 2.2 0.2 0.5 1.7 1.7 2.6 1.5 0.8-0.2 2.7-0.7 2.6-1.4 0-0.2-0.7-2.9-0.7-2.8L322 162.2" class="a"/><path d="M417.2 181.8c0 0 0 5 0.4 6.3 0.4 1.4 3.1 5.3 4.3 4.9 1.2-0.5 4.3-1.5 4-3.6 -0.3-2-1.8-8.2-1.8-8.2l-3.5-0.7L417.2 181.8" class="d"/><path d="M417.5 182.2c0 0 0 4.5 0.4 5.8 0.4 1.2 2.8 4.7 4 4.4 1.1-0.4 4-1.4 3.7-3.2 -0.2-1.7-1.5-6.7-1.5-7 -1-0.4-1.9-0.9-2.9-1C420 181.5 418.7 181.9 417.5 182.2" class="l"/><path d="M417.8 182.6c0 0 0 4.1 0.3 5.2 0.4 1.2 2.6 4.4 3.6 4 1-0.4 3.6-1.3 3.4-3 -0.2-1.3-1.1-5.2-1.2-5.8 -0.7-0.7-1.6-1.4-2.2-1.5C420.4 182 419.1 182.3 417.8 182.6" class="m"/><path d="M418 183c0 0 0.1 3.7 0.4 4.8 0.3 1 2.3 4 3.3 3.7 1-0.3 3.3-1.2 3.1-2.7 -0.1-0.9-0.8-3.9-1-4.7 -0.6-0.9-1.2-1.8-1.6-1.9C420.8 182.4 419.4 182.7 418 183" class="c"/><path d="M418.3 183.3c0 0 0 3.4 0.3 4.3 0.3 0.9 2.1 3.6 3 3.3 0.8-0.3 3-1.1 2.8-2.5 -0.1-0.5-0.6-2.7-0.8-3.7 -0.4-1-0.9-2-1.1-2.1C421.2 182.8 419.8 183 418.3 183.3" class="n"/><path d="M418.5 183.5c0 0 0 3.1 0.2 3.9 0.3 0.9 2 3.3 2.7 3.1 0.8-0.3 2.7-0.9 2.6-2.3 -0.1-0.4-1.1-5.2-1.1-5.2L418.5 183.5" class="a"/><path d="M445.3 223.2c0 0 0 4.9 0.4 6.3 0.4 1.3 3.1 5.2 4.4 4.8 1.2-0.4 4.3-1.5 4-3.6 -0.3-2-1.8-8.2-1.8-8.2l-3.5-0.7L445.3 223.2" class="d"/><path d="M445.7 223.6c0 0 0 4.5 0.3 5.7 0.4 1.2 2.9 4.8 4 4.4 1.2-0.4 4-1.4 3.7-3.3 -0.2-1.6-1.4-6.6-1.4-6.9 -1-0.5-2-0.9-2.9-1.1C448.2 222.7 446.9 223.1 445.7 223.6" class="l"/><path d="M445.9 223.9c0 0 0.1 4.1 0.4 5.3 0.4 1.1 2.6 4.3 3.6 4 1-0.3 3.6-1.3 3.4-3 -0.2-1.3-1.1-5.2-1.2-5.8 -0.8-0.7-1.5-1.3-2.2-1.4L445.9 223.9" class="m"/><path d="M446.2 224.2c0 0 0 3.7 0.4 4.8 0.3 1 2.3 4 3.3 3.7 0.9-0.3 3.3-1.2 3.1-2.8 -0.1-0.8-0.8-3.9-1-4.7 -0.6-0.8-1.2-1.7-1.6-1.8L446.2 224.2" class="c"/><path d="M446.5 224.6c0 0 0 3.4 0.3 4.3 0.3 1 2.1 3.6 3 3.3 0.9-0.3 3-1.1 2.8-2.5 -0.1-0.6-0.5-2.7-0.7-3.7 -0.4-1.1-0.9-2.1-1.1-2.2C449.3 224.2 447.9 224.4 446.5 224.6" class="n"/><path d="M446.7 224.8c0 0 0 3.2 0.3 4 0.3 0.8 2 3.3 2.7 3 0.8-0.2 2.7-0.9 2.6-2.3 -0.1-0.4-1.1-5.2-1.1-5.2L446.7 224.8" class="a"/><path d="M448.7 241.7c0 0-0.4 5 0.1 6.4 0.5 1.3 4.6 5 6.6 4.5 2-0.6 7.1-1.9 6.9-4 -0.3-2-2.2-8.1-2.2-8.1l-5.7-0.5L448.7 241.7" class="d"/><path d="M449.7 242c0 0-0.4 4.6 0.1 5.8 0.5 1.2 4.1 4.6 6 4.2 1.9-0.5 6.5-1.7 6.3-3.7 -0.2-1.7-2-7.5-2-7.5 -1.7-0.1-3.5-0.1-5.2-0.2L449.7 242" class="l"/><path d="M450.5 242.3c0 0-0.3 4.1 0.1 5.2 0.4 1.2 3.8 4.2 5.5 3.8 1.7-0.4 6-1.6 5.7-3.3 -0.2-1.4-1.8-6.8-1.9-6.8 -1.6-0.1-3.2-0.1-4.7-0.1C453.7 241.5 452.1 242 450.5 242.3" class="m"/><path d="M451.3 242.6c0 0-0.3 3.8 0.1 4.8 0.4 1 3.5 3.8 5 3.4 1.6-0.4 5.4-1.5 5.2-3 -0.1-1.1-1.6-6.3-1.6-6.3l-4.3 0.2C454.2 242 452.7 242.3 451.3 242.6" class="c"/><path d="M452.1 242.8c0 0-0.3 3.4 0.1 4.4 0.3 0.9 3.1 3.5 4.5 3.1 1.5-0.3 4.9-1.3 4.7-2.8 -0.1-0.7-1.4-5.6-1.5-5.6 -1.3 0.1-2.6 0.1-3.9 0.2C454.7 242.4 453.4 242.6 452.1 242.8" class="n"/><path d="M452.8 243c0 0-0.2 3.1 0.1 4 0.3 0.8 2.8 3.1 4.1 2.8 1.3-0.3 4.4-1.2 4.3-2.5 -0.1-0.4-1.3-5.1-1.3-5.1L452.8 243" class="a"/><path d="M467.2 259.4c0 0-0.3 4.2 0.1 5.3 0.4 1.1 3.7 4.2 5.5 3.8 1.7-0.4 5.9-1.6 5.7-3.4 -0.2-1.7-1.8-6.8-1.8-6.8l-4.7-0.3L467.2 259.4" class="d"/><path d="M467.5 259.7c0 0-0.3 3.9 0.2 4.9 0.4 0.9 3.5 3.8 5 3.4 1.5-0.4 5.4-1.5 5.2-3.1 -0.2-1.4-1.6-6.2-1.6-6.2 -1.4-0.1-2.9-0.1-4.3-0.2C470.5 259 469 259.4 467.5 259.7" class="l"/><path d="M467.9 260c0 0-0.2 3.5 0.1 4.4 0.3 1 3.1 3.5 4.6 3.2 1.4-0.4 4.9-1.4 4.7-2.8 -0.2-1.1-1.5-5.7-1.5-5.7 -1.4 0-2.7 0-4 0C470.6 259.4 469.3 259.7 467.9 260" class="m"/><path d="M468.3 260.3c0 0-0.2 3.2 0.1 4 0.3 0.9 2.9 3.2 4.1 2.9 1.3-0.3 4.5-1.2 4.3-2.5 -0.1-0.8-1.3-5.2-1.4-5.2 -1.2 0.1-2.4 0.1-3.6 0.1C470.6 259.8 469.5 260.1 468.3 260.3" class="c"/><path d="M468.6 260.5c0 0-0.3 2.9 0.1 3.7s2.6 2.9 3.8 2.6c1.2-0.3 4.1-1.1 3.9-2.3 -0.1-0.6-1.2-4.7-1.3-4.7l-3.3 0.2C470.8 260.2 469.6 260.4 468.6 260.5" class="n"/><path d="M468.8 260.8c0 0-0.2 2.6 0.1 3.3 0.2 0.7 2.4 2.6 3.4 2.4 1.1-0.3 3.7-1 3.6-2.1 0-0.4-1-4.3-1.1-4.2L468.8 260.8" class="a"/><path d="M489.1 291.8c0 0-0.2 4.1 0.2 5.2 0.4 1.1 3 4.3 4.3 4 1.2-0.4 4.4-1.4 4.2-3.2 -0.2-1.7-1.6-6.8-1.6-6.8l-3.6-0.5L489.1 291.8" class="d"/><path d="M489.3 292.1c0 0-0.1 3.7 0.3 4.8 0.3 1 2.7 3.9 3.9 3.6 1.1-0.4 4-1.3 3.8-2.8 -0.2-1.4-1.4-6.3-1.4-6.3 -1.1-0.1-2.2-0.2-3.3-0.3C491.4 291.4 490.4 291.7 489.3 292.1" class="l"/><path d="M489.6 292.4c0 0 0 3.5 0.2 4.4 0.3 1 2.5 3.6 3.5 3.3 1.1-0.4 3.7-1.1 3.5-2.6 -0.2-1.1-1.3-5.7-1.3-5.7 -1 0-2-0.1-3-0.1C491.6 291.8 490.6 292.1 489.6 292.4" class="m"/><path d="M489.8 292.6c0 0-0.1 3.2 0.3 4 0.3 0.9 2.2 3.3 3.2 3 1-0.3 3.4-1 3.2-2.4 -0.1-0.8-1.2-5.2-1.2-5.2 -0.9 0.1-1.8 0-2.7 0L489.8 292.6" class="c"/><path d="M490.1 292.9c0 0 0 2.9 0.2 3.6 0.3 0.8 2.1 3 3 2.8 0.8-0.3 3-1 2.9-2.2 -0.1-0.6-1.1-4.7-1.1-4.7 -0.9 0-1.6 0.1-2.5 0.1C491.7 292.6 490.9 292.7 490.1 292.9" class="n"/><path d="M490.3 293.1c0 0-0.1 2.6 0.2 3.3 0.2 0.8 1.9 2.7 2.6 2.5 0.8-0.3 2.8-0.9 2.7-2 0-0.4-0.9-4.3-1-4.2L490.3 293.1" class="a"/><path d="M496.7 301.3c0 0-0.1 4.1 0.3 5.2s2.9 4.3 4.2 4c1.3-0.4 4.4-1.4 4.2-3.2 -0.2-1.7-1.6-6.8-1.6-6.8l-3.6-0.4L496.7 301.3" class="d"/><path d="M496.9 301.6c0 0-0.1 3.7 0.3 4.8 0.4 1 2.7 3.9 3.9 3.6 1.2-0.4 4-1.3 3.8-2.8 -0.2-1.4-1.4-6.3-1.4-6.3 -1.1-0.1-2.2-0.2-3.3-0.3C499.1 300.9 498 301.3 496.9 301.6" class="l"/><path d="M497.3 301.9c0 0-0.1 3.5 0.2 4.4 0.3 0.9 2.5 3.5 3.6 3.3 1-0.4 3.7-1.1 3.5-2.6 -0.2-1.1-1.3-5.7-1.3-5.7 -1 0-2-0.1-3-0.1C499.2 301.3 498.2 301.6 497.3 301.9" class="m"/><path d="M497.5 302.1c0 0-0.1 3.2 0.2 4 0.3 0.9 2.2 3.3 3.2 3 1-0.3 3.4-1 3.2-2.4 -0.1-0.8-1.2-5.2-1.2-5.2 -0.9 0-1.8 0-2.7-0.1C499.3 301.8 498.3 301.9 497.5 302.1" class="c"/><path d="M497.7 302.4c0 0 0 2.9 0.2 3.6 0.3 0.8 2.1 3 3 2.8 0.9-0.3 3-1 2.9-2.2 -0.1-0.6-1.1-4.7-1.1-4.7l-2.5 0.1C499.4 302.2 498.5 302.3 497.7 302.4" class="n"/><path d="M497.9 302.6c0 0-0.1 2.6 0.2 3.3 0.2 0.8 1.9 2.7 2.7 2.5 0.8-0.2 2.8-0.9 2.6-2 0-0.4-0.9-4.3-1-4.3L497.9 302.6" class="a"/><path d="M369.9 109.9c0 0-0.3 10.6 0.7 13.8 1 3.2 7.9 13.5 11.3 13.5 3.3 0 11.7-0.2 11.1-4.9 -0.6-4.7-4.3-18.9-4.3-18.9l-9.5-4L369.9 109.9" class="d"/><path d="M370.7 109.8c0 0-0.2 9.7 0.7 12.6 0.9 3 7.3 12.3 10.3 12.3 3.1 0 10.7-0.2 10.1-4.5 -0.6-4.2-3.9-17.2-3.9-17.2 -2.8-1.3-5.7-2.5-8.6-3.7L370.7 109.8" class="l"/><path d="M371.4 109.8c0 0-0.2 8.9 0.6 11.6 0.9 2.6 6.6 11.2 9.4 11.2 2.8 0 9.8-0.2 9.2-4.1 -0.5-3.9-3.5-15.8-3.5-15.8 -2.7-1.1-5.3-2.2-7.9-3.4L371.4 109.8" class="m"/><path d="M372.1 109.7c0 0-0.2 8.1 0.6 10.5 0.8 2.5 6.1 10.3 8.6 10.3 2.6 0 8.9-0.1 8.4-3.7 -0.5-3.6-3.2-14.4-3.2-14.4 -2.4-1-4.7-2-7.2-3.1C376.9 109.4 374.5 109.6 372.1 109.7" class="c"/><path d="M372.7 109.7c0 0-0.2 7.4 0.5 9.6 0.7 2.2 5.5 9.3 7.8 9.3 2.4 0 8.1-0.1 7.7-3.3 -0.4-3.2-2.9-13.1-2.9-13.1 -2.2-0.9-4.4-1.9-6.6-2.8C377.1 109.5 374.9 109.6 372.7 109.7" class="n"/><path d="M373.3 109.7c0 0-0.2 6.6 0.5 8.6 0.6 2.1 5 8.5 7.1 8.5 2.2 0 7.4-0.1 7-3.1 -0.4-2.9-2.7-11.9-2.7-11.9l-6-2.6L373.3 109.7" class="a"/><path d="M393.6 117.2c0 0 0.4 10.5 1.2 13.7 0.8 3.3 5.5 13.8 7.6 14 2 0.2 7.1 0.4 6.5-4.3 -0.6-4.7-3.6-19-3.6-19l-5.9-4.5L393.6 117.2" class="d"/><path d="M394.1 117.2c0 0 0.4 9.6 1.1 12.5 0.7 3 5 12.6 6.9 12.8s6.5 0.4 5.9-3.9c-0.6-4.2-3.3-17.3-3.3-17.3 -1.8-1.4-3.7-2.7-5.5-4.2L394.1 117.2" class="l"/><path d="M394.5 117.3c0 0 0.4 8.7 1 11.4 0.6 2.7 4.6 11.5 6.3 11.7 1.7 0.1 5.9 0.3 5.4-3.5 -0.5-3.9-3-15.8-3-15.8 -1.7-1.3-3.4-2.5-5-3.8C397.7 117.2 396.1 117.2 394.5 117.3" class="m"/><path d="M395 117.2c0 0 0.3 8 0.9 10.4 0.6 2.5 4.2 10.5 5.8 10.7 1.6 0.1 5.4 0.3 5-3.2 -0.5-3.5-2.8-14.5-2.8-14.5 -1.5-1.1-3-2.2-4.5-3.4C397.8 117.2 396.4 117.2 395 117.2" class="c"/><path d="M395.3 117.2c0 0 0.3 7.3 0.9 9.5 0.5 2.2 3.9 9.5 5.3 9.6 1.4 0.2 4.9 0.3 4.5-2.9 -0.4-3.2-2.5-13.2-2.5-13.2l-4.1-3.1C398 117.2 396.7 117.2 395.3 117.2" class="n"/><path d="M395.7 117.2c0 0 0.3 6.6 0.8 8.6 0.5 2.1 3.5 8.7 4.8 8.8 1.2 0.1 4.4 0.3 4-2.7 -0.4-2.9-2.2-11.9-2.2-11.9l-3.8-2.9L395.7 117.2" class="a"/><path d="M425 129.1c0 0-9.2 8.1-10.8 11.6 -1.7 3.5-3.1 18 0.3 21.1 3.4 3.1 12.2 10.7 15.5 6.5 3.2-4.2 11.5-18.8 11.5-18.8l-6.4-12L425 129.1" class="d"/><path d="M425.9 129.8c0 0-8.3 7.4-9.9 10.5 -1.6 3.2-2.8 16.4 0.3 19.3 3.1 2.9 11.2 9.8 14.2 5.9 3-3.9 10.5-17.2 10.5-17.2 -2-3.7-3.9-7.3-5.9-11C432.2 134.9 429 132.4 425.9 129.8" class="l"/><path d="M426.7 130.5c0 0-7.6 6.8-9 9.6 -1.4 2.9-2.6 14.9 0.3 17.6 2.9 2.6 10.2 9 13 5.4 2.7-3.6 9.6-15.8 9.6-15.8 -1.7-3.3-3.6-6.6-5.3-10C432.4 135.1 429.6 132.8 426.7 130.5" class="m"/><path d="M427.5 131.1c0 0-6.9 6.2-8.2 8.8 -1.3 2.6-2.3 13.7 0.3 16.1 2.6 2.4 9.3 8.2 11.7 5 2.5-3.3 8.8-14.3 8.8-14.3 -1.6-3-3.2-6.1-4.8-9.1C432.6 135.3 430.1 133.2 427.5 131.1" class="c"/><path d="M428.2 131.7c0 0-6.4 5.6-7.5 8 -1.1 2.4-2.1 12.4 0.3 14.6 2.4 2.1 8.5 7.4 10.7 4.4 2.3-2.9 8-13 8-13 -1.4-2.8-3-5.6-4.4-8.3L428.2 131.7" class="n"/><path d="M428.8 132.2c0 0-5.8 5.1-6.9 7.3 -1.1 2.2-1.9 11.3 0.2 13.3 2.2 1.9 7.7 6.7 9.8 4.1 2.1-2.7 7.3-11.8 7.3-11.8l-4-7.6L428.8 132.2" class="a"/><path d="M445.6 160.9c0 0-8.8 11.2-10.3 16.1 -1.4 4.9-2 25.8 1.7 30.5 3.7 4.8 13 16.3 16 10.3 3.1-6 10.5-26.5 10.5-26.5l-7.1-17.7L445.6 160.9" class="d"/><path d="M446.5 162c0 0-8 10.2-9.4 14.6 -1.3 4.5-1.8 23.6 1.5 27.9 3.4 4.4 11.9 14.9 14.7 9.4 2.8-5.5 9.6-24.3 9.6-24.3 -2.2-5.4-4.3-10.8-6.5-16.2C453 169.7 449.8 165.8 446.5 162" class="l"/><path d="M447.3 163c0 0-7.3 9.3-8.5 13.4 -1.2 4.1-1.7 21.5 1.4 25.4 3.1 4 10.8 13.6 13.3 8.6 2.6-4.9 8.8-22.1 8.8-22.1 -2-5-4-9.9-6-14.8C453.3 170 450.3 166.5 447.3 163" class="m"/><path d="M448.2 163.9c0 0-6.7 8.5-7.8 12.3 -1.1 3.7-1.5 19.6 1.3 23.2 2.8 3.6 9.9 12.4 12.2 7.8 2.3-4.5 8-20.1 8-20.1 -1.8-4.5-3.7-9-5.5-13.5C453.6 170.3 450.9 167.1 448.2 163.9" class="c"/><path d="M448.9 164.8c0 0-6.1 7.7-7.1 11.1 -1.1 3.4-1.4 17.9 1.1 21.2 2.5 3.3 9 11.2 11.1 7.1 2.1-4.2 7.2-18.4 7.2-18.4 -1.6-4.1-3.3-8.2-5-12.3C453.8 170.6 451.3 167.7 448.9 164.8" class="n"/><path d="M449.5 165.5c0 0-5.5 7.1-6.5 10.2 -0.9 3.1-1.3 16.2 1.1 19.2 2.3 3 8.1 10.3 10.1 6.5 1.9-3.7 6.6-16.7 6.6-16.7l-4.5-11.1L449.5 165.5" class="a"/><path d="M465.5 197.7c0 0-4.6 5.9-5.3 8.4 -0.8 2.6-1.1 13.5 0.8 16 1.9 2.5 6.8 8.5 8.4 5.4 1.6-3.2 5.5-13.9 5.5-13.9l-3.8-9.3L465.5 197.7" class="d"/><path d="M466 198.2c0 0-4.2 5.3-4.9 7.6 -0.7 2.3-1 12.4 0.8 14.6 1.7 2.3 6.2 7.8 7.6 4.9 1.4-2.9 5-12.7 5-12.7 -1.2-2.9-2.3-5.7-3.5-8.5L466 198.2" class="l"/><path d="M466.5 198.8c0 0-3.9 4.9-4.5 7 -0.6 2.1-0.8 11.3 0.7 13.3 1.6 2.1 5.7 7.1 7 4.5 1.4-2.6 4.6-11.6 4.6-11.6 -1.1-2.6-2.1-5.2-3.1-7.8C469.6 202.4 468 200.6 466.5 198.8" class="m"/><path d="M466.9 199.2c0 0-3.5 4.5-4.1 6.5 -0.6 1.9-0.8 10.3 0.6 12.1 1.5 1.9 5.2 6.5 6.4 4.1 1.2-2.4 4.2-10.6 4.2-10.6 -1-2.4-1.9-4.7-2.8-7.1C469.7 202.6 468.3 200.9 466.9 199.2" class="c"/><path d="M467.2 199.7c0 0-3.2 4.1-3.7 5.8 -0.5 1.8-0.7 9.4 0.6 11.1 1.3 1.7 4.7 5.8 5.8 3.7 1.1-2.2 3.8-9.6 3.8-9.6 -0.9-2.2-1.7-4.3-2.6-6.5C469.9 202.8 468.5 201.2 467.2 199.7" class="n"/><path d="M467.6 200.1c0 0-2.9 3.6-3.4 5.3 -0.4 1.6-0.6 8.5 0.6 10.1 1.2 1.6 4.3 5.4 5.3 3.4 1-1.9 3.5-8.7 3.5-8.7l-2.4-5.9L467.6 200.1" class="a"/><path d="M297.2 98.4c0 0 0.4 15.5 1.6 19.8 1.2 4.3 8.4 16.7 11.6 15.5 3.2-1.1 11-4.4 10.2-11 -0.9-6.5-5.2-26-5.2-26l-9.2-2.5L297.2 98.4" class="d"/><path d="M297.9 97.2c0 0 0.4 14.2 1.4 18.1 1 4 7.6 15.2 10.5 14.2 2.9-1.1 10.2-4.1 9.3-10.1 -0.8-6-4.8-23.7-4.8-23.7 -2.8-0.8-5.6-1.5-8.4-2.2C303.3 94.7 300.6 95.9 297.9 97.2" class="l"/><path d="M298.4 96.1c0 0 0.4 13 1.3 16.5 1 3.6 7 13.9 9.7 12.9 2.7-1 9.3-3.7 8.5-9.2 -0.7-5.4-4.4-21.7-4.4-21.7 -2.5-0.7-5.1-1.3-7.7-2.1C303.4 93.8 300.9 94.9 298.4 96.1" class="m"/><path d="M299 95.1c0 0 0.3 11.8 1.2 15.1 0.9 3.3 6.4 12.7 8.8 11.8 2.5-0.9 8.4-3.4 7.8-8.4 -0.7-5-4-19.8-4-19.8 -2.3-0.6-4.7-1.2-7-1.9C303.6 93 301.3 94.1 299 95.1" class="c"/><path d="M299.5 94.2c0 0 0.3 10.7 1.1 13.7 0.8 3 5.8 11.6 8 10.8 2.2-0.8 7.7-3.1 7.1-7.6 -0.6-4.5-3.6-18-3.6-18 -2.2-0.6-4.3-1.1-6.4-1.7C303.6 92.3 301.6 93.2 299.5 94.2" class="n"/><path d="M300 93.3c0 0 0.3 9.8 1 12.5 0.7 2.7 5.3 10.5 7.3 9.7 2-0.7 7-2.8 6.5-6.9 -0.6-4.2-3.3-16.4-3.3-16.4l-5.8-1.6L300 93.3" class="a"/><path d="M326.7 100.8c0 0-1.1 14.6 0.5 19.2 1.7 4.6 14.1 20 20.4 20.7 6.3 0.7 22 2 21.1-4.6 -0.9-6.6-6.7-26.9-6.7-26.9l-17.6-7.3L326.7 100.8" class="d"/><path d="M328.2 100.4c0 0-1 13.4 0.5 17.5 1.5 4.2 12.9 18.3 18.6 18.9 5.8 0.6 20.2 1.8 19.3-4.2 -0.8-6-6.2-24.6-6.2-24.6 -5.3-2.2-10.7-4.5-16.1-6.7C339 101 333.6 100.7 328.2 100.4" class="l"/><path d="M329.6 100c0 0-0.9 12.2 0.4 16 1.4 3.8 11.8 16.7 16.9 17.3 5.3 0.6 18.4 1.7 17.7-3.8 -0.7-5.4-5.6-22.5-5.6-22.5 -4.9-2-9.8-4.1-14.7-6.1C339.4 100.6 334.5 100.3 329.6 100" class="m"/><path d="M330.8 99.6c0 0-0.9 11.1 0.4 14.6 1.3 3.5 10.7 15.2 15.4 15.7 4.8 0.5 16.8 1.5 16.1-3.5 -0.7-5-5.1-20.4-5.1-20.4 -4.5-1.9-8.9-3.8-13.4-5.6C339.8 100.2 335.3 99.9 330.8 99.6" class="c"/><path d="M331.9 99.3c0 0-0.8 10.1 0.4 13.3 1.1 3.2 9.8 13.8 14.1 14.3 4.4 0.5 15.3 1.4 14.7-3.2 -0.6-4.5-4.7-18.6-4.7-18.6 -4-1.7-8.2-3.4-12.2-5.1C340.1 99.8 336.1 99.6 331.9 99.3" class="n"/><path d="M333 99.1c0 0-0.7 9.2 0.3 12.1 1 2.9 8.8 12.6 12.8 13 3.9 0.5 13.8 1.3 13.3-2.9 -0.6-4.1-4.2-17-4.2-17l-11-4.6L333 99.1" class="a"/><path d="M257.4 100.7c0 0 0 5.5 0.4 7 0.5 1.5 3.7 5.8 5.2 5.3 1.5-0.5 5.2-1.8 4.9-4 -0.3-2.3-2-9.1-2-9.1l-4.3-0.7L257.4 100.7" class="d"/><path d="M257.8 100.5c0 0 0 5 0.4 6.4 0.5 1.4 3.4 5.2 4.8 4.8 1.4-0.4 4.7-1.6 4.5-3.7 -0.3-2.1-1.9-8.4-1.9-8.4 -1.2-0.2-2.6-0.4-3.9-0.6C260.4 99.5 259.1 100.1 257.8 100.5" class="l"/><path d="M258.1 100.4c0 0 0 4.6 0.4 5.8 0.4 1.2 3 4.8 4.3 4.4s4.4-1.5 4.1-3.4c-0.3-1.9-1.7-7.6-1.7-7.6 -1.2-0.2-2.4-0.4-3.6-0.6C260.4 99.5 259.3 100 258.1 100.4" class="m"/><path d="M258.4 100.3c0 0 0 4.2 0.4 5.3 0.4 1.2 2.8 4.4 3.9 4.1 1.1-0.4 4-1.3 3.8-3.1s-1.6-6.9-1.6-6.9c-1-0.2-2.1-0.4-3.2-0.6C260.6 99.5 259.5 99.9 258.4 100.3" class="c"/><path d="M258.7 100.2c0 0 0 3.8 0.3 4.8 0.4 1 2.6 4 3.6 3.7 1-0.4 3.6-1.2 3.4-2.8 -0.2-1.6-1.4-6.3-1.4-6.3 -1-0.2-1.9-0.3-2.9-0.5C260.6 99.4 259.7 99.9 258.7 100.2" class="n"/><path d="M258.9 100.1c0 0 0 3.5 0.3 4.4 0.3 0.9 2.3 3.6 3.2 3.3 0.9-0.3 3.3-1.1 3.1-2.5 -0.2-1.5-1.3-5.8-1.3-5.8l-2.7-0.4L258.9 100.1" class="a"/><polygon points="270.3 243 268.2 253 260.4 256.8 260.7 257.5 268.8 253.5 271 243.1 " class="a"/><path d="M361.7 226l0 0c0.5 0.5 4.3 4.4 4.3 9.4 0 1.4-0.3 3-1.1 4.5l0.6 0.3c0.9-1.7 1.2-3.3 1.2-4.8 0-5.7-4.6-9.9-4.6-9.9L361.7 226z" class="a"/></svg>