<svg xmlns="http://www.w3.org/2000/svg" viewBox="0 0 768 430"><style>.a{fill:#C10202;}.b{fill:#D10202;}.c{fill:#950202;}.d{fill:#F3AB13;}.e{fill:#F3BA13;}.f{fill:#F3C913;}.g{fill:#F39513;}.h{fill:#DDDDDB;}.i{fill:#EBECE6;}.j{fill:#FFF;}.k{fill:#B7B7B6;}.l{fill:#FF9001;}.m{fill:#FFA101;}.n{fill:#FFB001;}.o{fill:#FF7503;}</style><path d="M441.4 96.4c0 0 12.3-10.6 10.9-23.5 -1.4-12.9-15.7-17.8-21.5-10.9 -5.8 6.9-10.9 10.2-14.8 4.4 -3.9-5.8-12.5-5.8-14.8-1.4 -2.3 4.4-0.2 10.1-8.3 8.3 -8.1-1.8-10.8-1.8-10.8 4.3 0 6.1-0.5 6.6-6.2 7.5 -5.8 0.9-9 4.6-6.9 6.9 2.1 2.3 0.9 5.5-2.8 8.5 -3.7 3 8.1 9.9 12.7 9.9C383.5 110.6 441.4 96.4 441.4 96.4z" fill="#B30202"/><path d="M441.4 96.4c0 0 12.3-10.6 10.9-23.5 -1.4-12.9-12.5-12.9-18.3-5.9 -5.8 6.9-13.2 9.2-17.1 3.4 -3.9-5.8-10.3-6.7-12.6-2.3 -2.3 4.4 1.2 9.4-6.9 7.5 -8.1-1.8-12.8-2.4-12.8 3.8 0 6.1 1.8 5.6-4 6.6 -5.8 0.9-9.8 4.2-7.7 6.5 2.1 2.3 1.5 4.1-2.2 7.1 -3.7 3 3.5 11.1 8.2 11.1C383.5 110.6 441.4 96.4 441.4 96.4z" class="a"/><path d="M441.4 96.4c0 0 12.3-10.6 10.9-23.5 -1.4-12.9-13.4-9.2-19.2-2.3 -5.8 6.9-13.3 8.5-17.3 2.8 -3.9-5.8-7.8-5.8-10.1-1.4 -2.3 4.4-0.4 8.3-8.4 6.5 -8.1-1.9-11.3-3.3-11.3 2.8 0 6.1 0.7 6.9-5.1 7.8 -5.8 0.9-8.1 3.3-6 5.6 2.1 2.3 2.3 3.6-1.4 6.6 -3.7 3 0.7 9.3 5.3 9.3C383.5 110.6 441.4 96.4 441.4 96.4z" class="b"/><path d="M364.8 103.1c-0.4-1.2-0.1-2.3 0.8-3.1 2.1-1.7 3.3-3.5 3.5-5 0.1-0.8-0.2-1.5-0.8-2.2 -0.8-1-1.1-2.2-0.7-3.4 0.8-2.4 4.1-4.4 8.1-5.1 5.3-0.8 5.5-0.9 5.5-6.6 0-3.1 0.6-6.3 5.1-6.3 1.7 0 4 0.4 6.9 1.1 1 0.2 1.8 0.3 2.5 0.3 2.5 0 2.8-1.2 3.5-4.1 0.3-1.3 0.6-2.7 1.3-4.1 1.2-2.3 3.8-3.6 7-3.6 3.8 0 7.3 1.8 9.3 4.9 1.2 1.7 2.5 2.6 3.9 2.6 2.4 0 5.5-2.3 9.4-7 1.9-2.3 4.7-3.5 7.9-3.5 6.7 0 14.2 5.5 15.2 14.8 1.4 13.3-10.7 23.9-11.2 24.3l-0.2 0.2 -0.2 0c-2.4 0.6-58 14.2-62.7 14.2C375.1 111.5 366.1 107 364.8 103.1zM451.4 73c-0.9-8.2-7.5-13.2-13.4-13.2 -2.7 0-4.9 1-6.5 2.8 -4.4 5.2-7.8 7.7-10.8 7.7 -2.1 0-3.9-1.1-5.4-3.4 -2.1-3-5.4-4.1-7.8-4.1 -2.5 0-4.5 1-5.4 2.6 -0.6 1.1-0.9 2.4-1.2 3.6 -0.6 2.6-1.2 5.5-5.3 5.5 -0.9 0-1.8-0.1-2.9-0.4 -2.8-0.6-4.9-1.1-6.5-1.1 -2.2 0-3.2 0.7-3.2 4.4 0 6.6-0.7 7.4-7 8.4 -3.9 0.6-6.2 2.4-6.7 3.9 -0.2 0.6-0.1 1.1 0.3 1.5 0.9 1 1.4 2.3 1.2 3.6 -0.2 2-1.6 4.2-4.1 6.3 -0.3 0.3-0.5 0.6-0.3 1.1 1 2.9 9 7.2 12.4 7.2 3.5 0 42-9.2 62.1-14.1C442.4 94.3 452.6 84.5 451.4 73z" class="c"/><path d="M387.3 304.9l-3.2 33.1c0 0 29.1-5.6 33.1-2 4.1 3.6-2.4 7.3-6.1 8.8 9.4 2 14.6 5.6 12.8 8.8 -1.9 3.2-21.9-4.1-29.2-3.7 10.1 3 12.9 7 11.3 9.1 -1.6 2.2-25-6.7-32.5-9.3 -7.5-2.6-20.8-9.2-16.1-9.9 4.7-0.6 17.9-0.6 17.9-0.6 0.9-7.5 2-19.1 1.3-24.6C375.9 309.1 387.3 304.9 387.3 304.9z" class="d"/><path d="M387.3 304.9l-3.2 33.1c0 0 29.1-5.6 33.1-2 4.1 3.6-2.4 7.3-6.1 8.8 9.4 2 14.6 5.6 12.8 8.8 -1.9 3.2-21.9-4.1-29.2-3.7 10.1 3 12.9 7 11.3 9.1 -1.6 2.2-21-8.3-28.5-10.9 -7.5-2.6-16.6-5.9-11.9-6.6 4.7-0.6 12.7-0.5 12.7-0.5 0.9-7.5 2.3-21 1.6-26.5C379.2 309.1 387.3 304.9 387.3 304.9z" class="e"/><path d="M387.3 304.9l-3.2 33.1c0 0 29.1-5.6 33.1-2 4.1 3.6-2.4 7.3-6.1 8.8 9.4 2 14.6 5.6 12.8 8.8 -1.9 3.2-21.9-4.1-29.2-3.7 10.1 3 12.9 7 11.3 9.1 -1.6 2.2-21-8.3-28.5-10.9 -7.5-2.6-16.6-5.9-11.9-6.6 4.7-0.6 14.5 0 14.5 0 0.9-7.5 0.6-21.6-0.2-27.1C379.2 309.1 387.3 304.9 387.3 304.9z" class="f"/><path d="M378 352.3c-1.9-0.7-3.5-1.2-4.7-1.6 -2.4-0.8-18-6.9-17.7-10.2 0-0.4 0.3-1.2 1.8-1.4 4-0.5 14-0.6 17.2-0.6 0.8-6.9 1.8-18.3 1.2-23.6 -0.8-6 10-10.2 11.3-10.7l1.4-0.5 -3.2 33.4c4-0.7 17-3 25.4-3 3.9 0 6.2 0.4 7.3 1.5 1.6 1.4 1.7 2.8 1.5 3.7 -0.4 2.3-3.1 4.2-5.5 5.5 5.9 1.5 9.8 3.8 10.9 6.3 0.5 1.1 0.4 2.2-0.2 3.3 -0.7 1.2-2.3 1.3-3.4 1.3 -3 0-7.8-1.1-12.8-2.2 -2.3-0.5-4.6-1.1-6.7-1.5 3 1.5 4.9 3.3 5.5 5 0.4 1 0.2 2.1-0.4 2.9 -0.5 0.6-1.3 0.7-2 0.7C400.4 360.3 386.9 355.5 378 352.3zM405.4 358.4c0.2-0.3 0.3-0.7 0.1-1.2 -0.6-1.7-3.8-4.3-11-6.4l-5.2-1.5 5.4-0.3c3.2-0.2 8.8 1.1 14.2 2.3 4.7 1.1 9.6 2.2 12.4 2.2 1.3 0 1.8-0.3 1.8-0.4 0.3-0.5 0.3-1 0.1-1.6 -0.8-1.7-4.4-4.2-12.2-5.8l-3-0.6 2.8-1.1c2.9-1.2 6.5-3.3 6.8-5.2 0.1-0.2 0.2-1-1-2 -0.4-0.4-1.7-1-6.1-1 -9.7 0-26.1 3.2-26.2 3.2l-1.2 0.2 3.1-32.8c-3.5 1.5-9.1 4.8-8.7 8.2 0.7 5.4-0.3 16.5-1.3 24.9l-0.2 0.8h-0.8c-0.5 0-13 0-17.6 0.6 1.6 1.7 9.6 5.8 16.2 8.1 1.2 0.4 2.8 1 4.7 1.7 8.3 2.9 22.2 7.9 26.3 7.9 0.2 0 0.4 0 0.5 0L405.4 358.4z" class="g"/><path d="M384.9 342.5c0 0-0.2-1.9 0.1-4.5l-1.8-0.2C382.9 340.6 384.9 342.5 384.9 342.5z" class="g"/><path d="M412.4 346l0.6-1.8c-6.6-2.2-22.7-0.1-22.7-0.1C390.4 344.1 406.1 343.9 412.4 346z" class="g"/><path d="M366.1 319.6c0 0-0.5 25.8-1 36 6.8-1.4 30.4-2.2 31.7 2 1.3 4.2-15 5.1-15 5.1 15.8 1.8 27.8 8.8 24.5 12.8 -3.3 4-23.8-4.9-33.9-5.9 12.2 5.3 17.7 10.5 14.7 13 -3 2.5-24.7-6.5-34.5-7.5 -9.8-0.9-28.5-2.9-19.3-7.1 9.2-4.2 22.6-7 22.6-7 0.6-10.9 1.3-37.6-0.4-42.6C353.6 313.6 364.6 312.4 366.1 319.6z" class="d"/><path d="M366.1 319.6c0 0-0.5 25.8-1 36 6.8-1.4 30.4-2.2 31.7 2 1.3 4.2-15 5.1-15 5.1 15.8 1.8 27.8 8.8 24.5 12.8 -3.3 4-23.8-4.9-33.9-5.9 12.2 5.3 17.7 10.5 14.7 13 -3 2.5-21.6-9.5-31.4-10.4 -9.8-0.9-22.5-1.2-13.3-5.4 9.2-4.2 17.5-6.3 17.5-6.3 0.6-10.9-0.7-36.3-2.4-41.2C355.7 314.4 364.6 312.4 366.1 319.6z" class="e"/><path d="M366.1 319.6c0 0-0.5 25.8-1 36 6.8-1.4 30.4-2.2 31.7 2 1.3 4.2-15 5.1-15 5.1 15.8 1.8 27.8 8.8 24.5 12.8 -3.3 4-23.8-4.9-33.9-5.9 12.2 5.3 17.7 10.5 14.7 13 -3 2.5-17.6-10.5-27.5-11.4 -9.8-0.9-23-0.2-13.8-4.4 9.2-4.2 15.5-4.6 15.5-4.6 0.6-10.9-0.7-37-2.4-42C357.1 315.4 364.6 312.4 366.1 319.6z" class="f"/><path d="M369.1 380.3c-6.2-1.8-12.6-3.7-16.8-4.1 -16.2-1.5-22.1-3-22.6-5.6 -0.3-1.6 1.6-2.6 3-3.3 8-3.7 19.2-6.3 22.1-6.9 0.6-12.3 1.1-37-0.4-41.5 -0.4-1.2-0.3-2.3 0.4-3.3 0.9-1.3 2.7-2 4.7-2 3.1 0 6.6 1.8 7.4 5.8l0 0.1v0.1c0 0.3-0.4 24.1-0.9 34.8 3.5-0.6 9.2-0.9 14.5-0.9 10.6 0 16.3 1.3 17.1 3.8 0.2 0.7 0.1 1.5-0.3 2.1 -1.2 1.8-5.1 2.8-8.8 3.4 9.6 2.1 17.3 6 18.9 9.8 0.5 1.2 0.3 2.4-0.5 3.4 -0.7 0.9-2.1 1.4-4.1 1.4 -3.9 0-9.9-1.7-16.2-3.5 -2.6-0.7-5.3-1.5-7.7-2.1 4.7 2.5 9.2 5.7 9.7 8.7 0.2 1.1-0.2 2-1.1 2.7 -0.5 0.4-1.3 0.6-2.4 0.6C381.8 384.1 375.7 382.2 369.1 380.3zM372.4 368.8c4 0.4 9.5 2 14.8 3.5 5.9 1.7 12 3.4 15.7 3.4 1.3 0 2.3-0.3 2.6-0.7 0.4-0.5 0.4-0.9 0.2-1.5 -1.4-3.6-11.4-8.3-24-9.8l0.1-1.4c4.7-0.3 12.8-1.9 14.1-3.8 0.2-0.2 0.2-0.4 0.1-0.6 -0.3-0.8-3.8-2.5-15.3-2.5 -5.8 0-12.2 0.5-15.3 1.1l-1.2 0.2 0.1-1.2c0.5-9.7 0.9-34 0.9-35.8 -0.7-3.2-3.4-4.3-5.5-4.3 -1.4 0-2.7 0.5-3.2 1.2 -0.3 0.5-0.4 1-0.2 1.6 1.8 5.3 1 33.3 0.5 42.9l0 0.7 -0.7 0.1c-0.1 0-13.4 2.8-22.4 6.9 -1.8 0.8-1.9 1.3-2 1.3 0.3 0.8 3.3 2.4 20.9 4 4.3 0.4 10.8 2.3 17.1 4.2 6.4 1.9 12.4 3.7 15.5 3.7 0.9 0 1.2-0.2 1.3-0.2 0.4-0.3 0.5-0.6 0.4-1.1 -0.3-1.9-4.3-5.7-14.9-10.4l-5.3-2.3L372.4 368.8z" class="g"/><path d="M388 364.7l0.5-1.8c-4.5-1.1-16.8-0.4-16.8-0.4C371.9 362.6 383.7 363.6 388 364.7z" class="g"/><path d="M448.6 142.9c0 0-3.2 26.8 7.4 46.2 10.6 19.4 17.7 78.5-18 110.4 -36.6 32.6-80.3 32.8-111.6 23.6 -31.4-9.2-49.4-37.2-53.4-62.8 -16.6-10.5-23.1-19.4-2.8-16.9 -19.4-8.3-24-22.2-2.2-15.1 -18.8-13.9-23.1-33.3 0.9-23.4 -19.7-13.2-41-52.3 5.6-24.9 -25.3-24.9-29.9-52-16.9-49.9 12.9 2.2 40 49.6 61 58.8 20.9 9.2 39.1-4.9 57.9-5.2 5.9-16 3.1-33.8-1.5-53.7 -4.6-19.9 4-41.1 29.9-48.8 25.9-7.7 53 12.9 50.5 34.2C452.8 136.4 448.6 142.9 448.6 142.9z" class="h"/><path d="M448.6 142.9c0 0-3.2 26.8 7.4 46.2 10.6 19.4 16.1 74.4-19.6 106.3 -36.5 32.6-72.7 32.3-104.1 23 -31.4-9.2-48.9-34.9-53-60.5 -16.6-10.5-18-14 2.3-11.5 -19.4-8.3-23.7-20.7-1.8-13.6 -18.8-13.9-13.9-27.5 10.1-17.7 -19.7-13.2-45.7-52 0.8-24.6 -25.2-24.9-46-62.7-33.1-60.5 12.9 2.2 40 49.6 61 58.8 20.9 9.2 46.4-3.7 65.2-4 5.8-16 2.3-34.5-2.3-54.4 -4.6-19.9-2.5-41.6 23.3-49.3 25.9-7.7 53 12.9 50.5 34.2C452.8 136.4 448.6 142.9 448.6 142.9z" class="i"/><path d="M448.6 142.9c0 0-3.2 26.8 7.4 46.2 10.6 19.4 16.4 71-19.3 102.8 -36.6 32.6-72.1 32.2-103.5 23 -31.4-9.2-43.3-30.3-47.3-55.9 -16.6-10.5-15.2-12 5.2-9.5 -19.4-8.3-20.6-18.2 1.3-11.1 -18.8-13.8-8-26.2 16-16.3 -19.7-13.2-48.3-47.8-1.8-20.4 -25.3-24.9-61.9-73.8-49-71.6 12.9 2.2 40 49.6 61 58.8 20.9 9.2 50.5-1.9 69.3-2.2 5.9-16 2.8-33.7-1.8-53.6 -4.6-19.9-7.1-44.3 18.8-52 25.9-7.7 53 12.9 50.5 34.2C452.8 136.4 448.6 142.9 448.6 142.9z" class="j"/><path d="M326.1 323.9c-33.9-10-50.2-40.2-54-63.1 -7.8-4.9-16.6-11.6-15.4-15.8 0.6-2.2 3.4-3.1 8.6-3 -8.2-4.4-13.4-9.8-12.6-13.6 0.2-1.2 1.3-3.1 5.6-3.1 1.6 0 3.5 0.3 5.6 0.8 -8.7-7.5-13.7-16.1-12.1-21.2 0.6-1.7 2.1-3.7 6.4-3.7 1.6 0 3.5 0.3 5.6 0.9 -10.2-8.7-19.9-22.9-17.9-29.3 0.5-1.5 1.8-3.3 5.4-3.3 4 0 10.1 2.2 18.2 6.6 -15.8-17.4-22.2-35.4-19.1-43.2 1.2-3 3.8-4.3 7.3-3.8 6.5 1.1 15.8 12.3 26.6 25.3 11.2 13.5 23.9 28.8 34.6 33.5 4.6 2.1 9.4 3 14.6 3 7.5 0 14.9-2.1 22.1-4.2 6.6-1.9 13.4-3.9 20.2-4.1 5.2-14.9 3.2-31.2-1.8-52.6 -4.1-17.6 1.5-41.3 30.5-49.9 3.8-1.1 7.7-1.7 11.6-1.7 12.1 0 24.1 5.3 32.1 14.3 6.1 6.8 8.9 14.9 8 22.6 -2.3 19.5-5.9 26.7-6.6 27.9 -0.3 2.4-2.6 27.4 7.3 45.4 11.9 21.7 16.2 80.8-18.2 111.5 -21.3 19-47.6 29-76.1 29h0C350.3 329.2 338 327.4 326.1 323.9zM405 81.9c-27.8 8.3-33.1 30.9-29.2 47.7 5.1 22 7.1 38.8 1.5 54.2l-0.2 0.6h-0.6c-6.8 0.1-13.4 2-20.4 4.1 -7.3 2.1-14.8 4.3-22.6 4.3 -5.4 0-10.4-1-15.3-3.2 -11.1-4.9-23.9-20.4-35.3-34 -10.1-12.2-19.6-23.7-25.5-24.7 -2.6-0.5-4.4 0.4-5.3 2.6 -2.8 6.8 3.6 26.6 23 45.7l5.3 5.2 -6.4-3.8c-13.2-7.8-19.6-9.4-22.7-9.4 -3 0-3.5 1.5-3.6 2 -1.8 6 10.2 23 21.8 30.8l7.5 5.1 -8.4-3.5c-8.4-3.4-14-3.5-15-0.1 -1.4 4.2 4 13.8 15 21.9l4.6 3.4 -5.4-1.7c-3.9-1.3-7.1-1.9-9.5-1.9 -1.3 0-3.5 0.2-3.8 1.6 -0.5 2.6 4.7 8.8 16.1 13.7l5.9 2.5 -6.4-0.8c-6.8-0.8-11.1-0.3-11.6 1.2 -0.5 1.8 3.1 6.5 15 14l0.4 0.2 0.1 0.4c3.5 22.5 19.5 52.3 52.7 62.1 11.8 3.5 23.8 5.2 35.9 5.2h0c28.1 0 54-9.9 74.9-28.6 36.1-32.3 27.3-92 17.8-109.3 -10.6-19.4-7.5-46.5-7.5-46.7l0.1-0.4c0-0.1 4.1-6.7 6.5-27.3 0.8-7.2-1.8-14.7-7.6-21.2 -7.6-8.5-19.1-13.6-30.7-13.6C412.3 80.3 408.6 80.8 405 81.9z" class="k"/><path d="M462.5 123.7c0 0-2.5 7.2 1.2 19.8 3.7 12.7 5.5 30-13.2 30.4 -18.7 0.3-24.2-14.2-19.8-27.6 4.4-13.4 11.3-20.1 11.1-24.2C441.5 118 462.5 123.7 462.5 123.7z" fill="#AE0202"/><path d="M462.5 123.7c0 0-2.5 7.2 1.2 19.8 3.7 12.7 5.5 30-13.2 30.4 -18.7 0.3-14.3-18.6-9.9-32 4.4-13.4 8.1-19.3 7.9-23.4C448.2 114.4 462.5 123.7 462.5 123.7z" class="a"/><path d="M462.5 123.7c0 0-2.5 7.2 1.2 19.8 3.7 12.7 5.5 30-13.2 30.4 -18.7 0.3-7.2-23.2-2.8-36.6 4.4-13.4 1-14.6 0.8-18.8C448.2 114.4 462.5 123.7 462.5 123.7z" class="b"/><path d="M431.9 167.1c-3.9-5.4-4.7-13.2-2.2-21 2.4-7.2 5.5-12.6 7.8-16.5 2-3.3 3.4-5.7 3.3-7.4 0-0.5 0.1-1 0.5-1.4 0.7-0.7 1.9-1 3.9-1 6 0 17.1 3 17.5 3.1l1 0.3 -0.3 0.9c0 0.1-2.4 7.1 1.2 19.3 3.4 11.9 3.2 20.5-0.7 25.8 -2.7 3.7-7.2 5.6-13.4 5.7l-0.6 0h0C439.7 174.9 434.5 170.6 431.9 167.1zM445.2 121.5c-2 0-2.5 0.4-2.6 0.5 0.1 2.2-1.4 4.8-3.5 8.4 -2.2 3.9-5.3 9.1-7.6 16.1 -2.4 7.2-1.6 14.4 1.9 19.3 3.4 4.6 9 7.1 16.4 7.1h0 0.6c5.6-0.1 9.6-1.8 11.9-5 3.5-4.7 3.6-13.1 0.4-24.2 -3-10.3-2-17.1-1.4-19.5C458.6 123.7 450 121.5 445.2 121.5z" class="c"/><path d="M431.8 118.4c0 0 6.7 15.7 26.6 11.1 19.9-4.6 32.3-8.1 37.6-6.5C484 114.7 454.6 112.4 431.8 118.4z" class="l"/><path d="M431.8 118.4c0 0 6.6 10.6 26.4 6 19.9-4.6 23.8-7.1 29.2-5.5C475.3 110.6 454.6 112.4 431.8 118.4z" class="m"/><path d="M431.8 118.4c0 0 6.9 8.3 26.7 3.7 19.8-4.6 23.6-4.8 28.9-3.2C475.3 110.6 454.6 112.4 431.8 118.4z" class="n"/><path d="M430.9 118.8l-0.4-1 1-0.3c8.5-2.2 18.1-3.4 27.9-3.4 15.8 0 29.7 3 37.1 8.1l4.9 3.4 -5.7-1.7c-0.8-0.2-1.8-0.4-3.1-0.4 -5.2 0-13.8 2-25.7 4.9 -2.6 0.6-5.5 1.3-8.4 2 -2.5 0.6-4.9 0.9-7.2 0.9C436.4 131.3 431 118.9 430.9 118.8zM459.4 116c-9.2 0-18.3 1.1-26.3 3.1 1.5 2.8 6.8 10.4 18.2 10.4 2.2 0 4.4-0.3 6.8-0.8 3-0.7 5.8-1.4 8.4-2 11.4-2.7 19.9-4.7 25.3-4.9C484.3 118.1 472.6 116 459.4 116z" class="o"/><path d="M429.2 117.7c0 0 9.8 6.7 25.4 2.9 15.5-3.8 33.6 0.3 45.6 6.1 1.6-12.7-24.5-24.8-45.8-21.5C444.9 111.7 434.7 118.4 429.2 117.7z" class="l"/><path d="M429.2 117.7c0 0 10.5 1.3 26.1-2.5 15.6-3.8 36.7 3.4 44.9 11.5 1.6-12.7-24.5-24.8-45.8-21.5C444.9 111.7 434.7 118.4 429.2 117.7z" class="m"/><path d="M429.2 117.7c0 0 12.8-3.2 28.4-7 15.6-3.8 34.4 7.9 42.6 16 1.6-12.7-24.5-24.8-45.8-21.5C444.9 111.7 434.7 118.4 429.2 117.7z" class="n"/><path d="M499.7 127.6c-9.9-4.8-21.7-7.5-32.3-7.5 -4.5 0-8.7 0.5-12.6 1.4 -3.2 0.8-6.5 1.2-9.7 1.2 -10.1 0-16.2-4-16.4-4.2l-3.2-2.2 3.8 0.5c0.2 0 0.5 0 0.7 0 5.2 0 14.5-5.9 23.7-12.4l0.2-0.1 0.2 0c2.4-0.4 4.9-0.5 7.5-0.5 13.9 0 29 5.6 35.7 13.3 2.8 3.2 4 6.6 3.6 9.8l-0.2 1.3L499.7 127.6zM454.7 106.1c-7.7 5.3-16.2 11-22.2 12.3 2.6 1.1 6.9 2.5 12.6 2.5 3 0 6.1-0.4 9.2-1.1 4-1 8.5-1.5 13.1-1.5 10.5 0 22 2.6 31.9 7.1 -0.1-2.4-1.2-4.7-3.3-7.1 -6.4-7.3-20.9-12.6-34.3-12.6C459.2 105.6 456.9 105.8 454.7 106.1z" class="o"/><path d="M398.3 110.7c0 7.6 6.1 13.7 13.7 13.7 7.6 0 13.7-6.1 13.7-13.7 0-7.6-6.2-13.7-13.7-13.7C404.4 97 398.3 103.1 398.3 110.7z" class="j"/><path d="M397.4 110.7c0-8.1 6.6-14.7 14.7-14.7 8.1 0 14.6 6.6 14.6 14.7 0 8.1-6.6 14.7-14.6 14.7C403.9 125.4 397.4 118.8 397.4 110.7zM399.2 110.7c0 7.1 5.7 12.8 12.8 12.8 7.1 0 12.8-5.7 12.8-12.8 0-7.1-5.7-12.8-12.8-12.8C404.9 97.9 399.2 103.6 399.2 110.7z" class="k"/><path d="M402.2 114.3c0 4.3 3.5 7.8 7.9 7.8 4.3 0 7.8-3.5 7.8-7.8 0-4.3-3.5-7.9-7.8-7.9C405.7 106.4 402.2 109.9 402.2 114.3z" fill="#069AFC"/><path d="M405.8 107.7c1.2-0.8 2.7-1.3 4.3-1.3 4.3 0 7.8 3.5 7.8 7.9 0 1.4-0.4 2.8-1.1 3.9C411.5 116.9 406.6 113.6 405.8 107.7z" fill="#067CFC"/><path d="M401.3 114.3c0-4.9 3.9-8.8 8.8-8.8 4.8 0 8.8 3.9 8.8 8.8 0 4.8-3.9 8.8-8.8 8.8C405.2 123 401.3 119.1 401.3 114.3zM403.1 114.3c0 3.8 3.1 6.9 6.9 6.9 3.8 0 6.9-3.1 6.9-6.9 0-3.8-3.1-6.9-6.9-6.9C406.2 107.3 403.1 110.5 403.1 114.3z" fill="#086AF9"/><path d="M405.8 114.3c0 2.4 1.9 4.3 4.3 4.3 2.4 0 4.3-1.9 4.3-4.3 0-2.4-1.9-4.3-4.3-4.3C407.7 110 405.8 111.9 405.8 114.3z"/><path d="M383.7 184.8c0 0-5.9-2.4-9.2-2.1l0.2 1.8C377.9 184.2 383.7 184.8 383.7 184.8z" class="k"/><path d="M294.8 202.3c14.5-6.1 53.6 14.8 53.6 14.8l52 0.6c0 0 28.3 6.5 12.6 44 -15.7 37.6-60 35.1-73.3 32 -13.2-3.1-18.8-10.8-2.2-16.6 -14.5 1.5-54.8-13.2-10.3-20.6 -23.9-4.6-45.1-25.9 0.5-18.5C293.3 226.4 280.4 208.5 294.8 202.3z" class="h"/><path d="M294.8 202.3c14.5-6.1 53.6 14.8 53.6 14.8l52 0.6c0 0 28.3 6.5 12.6 44 -15.7 37.6-53.5 33-66.7 29.9 -13.2-3.1-12.2-11.2 4.4-17.1 -14.5 1.5-54-11.6-9.5-19 -23.9-4.6-42.4-20.7 3.1-13.3C309.9 230.5 280.4 208.5 294.8 202.3z" class="i"/><path d="M294.8 202.3c14.5-6.1 48.6 12.3 48.6 12.3l57 3.1c0 0 28.3 6.5 12.6 44 -15.7 37.6-53.5 33-66.7 29.9 -13.2-3.1-3.4-13.5 13.2-19.4 -14.5 1.5-52.8-8.8-8.3-16.2 -23.9-4.6-41.2-18.3 4.4-10.9C321.1 233.5 280.4 208.5 294.8 202.3z" class="j"/><path d="M355.8 296.3c19.4 0 46.5-6.4 58.1-34.2 5.7-13.5 6.3-24.7 2-33.1 -5-9.7-15.7-10.4-15.7-10.4 0.1 0 9.5 2.3 14.1 11.3 4.1 7.9 3.4 18.5-2.1 31.5 -15.1 36.1-57.2 35-72.2 31.5 -7-1.6-11.6-4.5-11.8-7.4 -0.1-2.6 3.3-5.2 9.7-7.5l7.5-2.6 -7.9 0.8c-9.6 1-28.8-5-29.6-10.4 -0.2-1.5 1.3-5.4 19.5-8.4l5-0.8 -5-1c-13.8-2.7-26.4-11-25.6-15.2 0.5-2.7 7.5-4.5 25.7-1.5l4.5 0.5 -4.1-2.3c-25.8-8.8-37.9-20.3-38.2-27.3 -0.1-2.9 1.7-5.1 5.3-6.6 13.9-5.9 52.4 14.5 52.8 14.7 0 0-38.8-22.7-53.5-16.4 -5.5 2.3-6.5 5.8-6.4 8.4 0.3 8.4 15.6 19.7 35.2 27.1 -12.2-1.2-22.5-0.8-23.2 3.2 -0.9 5.2 10 12.8 22.7 16.3 -11.8 2.4-17.3 5.6-16.7 9.7 0.9 6.3 16.6 11.2 26.9 12 -5.5 2.7-6.7 5.5-6.6 7.5 0.2 3.8 5.1 7.2 13.2 9.1C343.5 295.6 349.2 296.3 355.8 296.3z" class="k"/><path d="M356 253.8c-15.5-4.6-14.3-13.2-2.6-15.9 0 0-9.2-0.2-9.8-7.2 -0.7-6.9 15.3-6.1 15.3-6.1l32 56c-46.4 16.9-43.4-7.2-28.6-10.2C336.6 270.4 339.9 256.8 356 253.8z" class="h"/><path d="M347.7 231.1c-0.7-6.9 11.2-6.6 11.2-6.6l32 56c-46.4 16.9-31.8-8.8-17-11.8 -25.6 0-26.2-11.9-10-14.9 -15.5-4.6-9.9-13.5 1.7-16.3C365.6 237.6 348.4 238.1 347.7 231.1z" class="i"/><path d="M358.9 224.5l42.8 53.1c-56.2 18.7-37.3-6.3-22.5-9.3 -25.6 0-26-10.9-9.8-13.9 -15.5-4.6-11.7-13.6 0-16.4 0 0-18.1-0.2-18.8-7.2C349.8 224 358.9 224.5 358.9 224.5z" class="j"/><path d="M364.4 287.4c5.8 0 26.2-7.7 26.2-7.7 -26.2 9.5-33.9 5-35.6 3.3 -1.7-1.6-1.6-3.4-1.3-4.7 0.9-3.3 4.5-6.1 8.7-7l9-1.8h-9.2c-12.8 0-17.6-3.4-17.9-6.4 -0.3-3 3.8-6.9 11.8-8.4l3.8-0.7 -3.7-1.1c-6.9-2-10.9-5.1-10.8-8.1 0.1-2.5 3.2-4.8 8.1-6l6.9-1.6 -7-0.2c-0.3 0-8.3-0.3-8.9-6.3 -0.1-0.9 0.2-1.6 0.8-2.3 2.6-2.7 10.7-3 13.6-2.8 0 0-11.2-2.3-14.9 1.6 -1 1-1.4 2.3-1.3 3.7 0.4 4.2 3.7 6.4 6.9 7.4 -3.7 1.5-5.8 3.9-5.9 6.6 -0.1 3.5 3.2 6.6 9.1 8.9 -6.4 1.9-10.6 5.7-10.2 9.7 0.4 4.3 5.9 7.2 15 7.9 -2.8 1.6-4.9 4-5.7 6.7 -0.7 2.5-0.1 4.9 1.8 6.6C355.3 285.8 358.4 287.4 364.4 287.4z" class="k"/><path d="M332.4 312.6h55.7c0 0-2.7 19.1-30.8 19.5C329.3 332.6 332.4 312.6 332.4 312.6z" class="h"/><path d="M332.4 312.6h55.7c0 0-1.3 13.1-29.3 13.6C330.7 326.6 332.4 312.6 332.4 312.6z" class="i"/><path d="M332.3 308.9l55.8 3.7c0 0-0.6 9.7-28.6 10.2C331.4 323.2 332.3 308.9 332.3 308.9z" class="j"/><path d="M356.4 333c0.3 0 0.7 0 1 0 29.8-0.9 29.8-20.6 29.8-20.6 -0.1 0.7-3 18.3-29.9 18.7 -9.6 0.2-16.4-2.1-20.4-6.6 -4.6-5.2-3.6-11.8-3.6-11.9 0 0-2.9 7.2 2.2 13.1C339.7 330.6 346.7 333 356.4 333z" class="k"/><path d="M408.6 112.4c0 1.6 1.3 2.9 2.9 2.9 1.6 0 2.9-1.3 2.9-2.9 0-1.6-1.3-2.9-2.9-2.9C409.9 109.5 408.6 110.8 408.6 112.4z" class="j"/><path d="M413.4 116c0 0.7 0.5 1.2 1.2 1.2 0.7 0 1.2-0.6 1.2-1.2 0-0.7-0.6-1.2-1.2-1.2C414 114.7 413.4 115.3 413.4 116z" class="j"/></svg>