<svg version="1.1" id="Layer_1" xmlns="http://www.w3.org/2000/svg" xmlns:xlink="http://www.w3.org/1999/xlink" x="0px" y="0px" viewBox="0 0 768 430" enable-background="new 0 0 768 430" xml:space="preserve">
<g>
	<g>
		<path fill="#BBDEFB" d="M430.052,72.09h-22.983c-1.352,0-2.445-1.096-2.445-2.445V49.211c0-1.35-1.097-2.445-2.444-2.445h-8.464
			c-1.35,0-2.444,1.096-2.444,2.445v20.434c0,1.349-1.098,2.445-2.448,2.445h-22.984c-1.351,0-2.445,1.094-2.445,2.444v7.771
			c0,1.349,1.095,2.445,2.445,2.445h22.984c1.351,0,2.448,1.094,2.448,2.445v57.882c0,1.351,1.095,2.445,2.444,2.445h8.464
			c1.348,0,2.444-1.094,2.444-2.445V87.195c0-1.351,1.094-2.445,2.445-2.445h22.983c1.352,0,2.445-1.096,2.445-2.445v-7.771
			C432.497,73.184,431.403,72.09,430.052,72.09z"/>
	</g>
	<g>
		<path fill="#FFFFFF" d="M400.717,52.042h-5.539c-0.875,0-1.583-0.708-1.583-1.583c0-0.875,0.708-1.583,1.583-1.583h5.539
			c0.875,0,1.582,0.708,1.582,1.583C402.299,51.334,401.592,52.042,400.717,52.042z"/>
	</g>
	<g>
		<path fill="#FFFFFF" d="M395.178,76.834c-0.875,0-1.583-0.708-1.583-1.583v-17.67c0-0.875,0.708-1.583,1.583-1.583
			s1.582,0.708,1.582,1.583v17.67C396.76,76.126,396.053,76.834,395.178,76.834z"/>
	</g>
	<g>
		<path fill="#FFFFFF" d="M367.919,81.582c-0.875,0-1.583-0.708-1.583-1.583v-4.748c0-0.875,0.708-1.583,1.583-1.583h22.155
			c0.875,0,1.583,0.708,1.583,1.583c0,0.875-0.708,1.583-1.583,1.583h-20.573v3.165C369.501,80.874,368.794,81.582,367.919,81.582z"
			/>
	</g>
	<g>
		<path fill="#FFFFFF" d="M395.178,130.346c-0.875,0-1.583-0.708-1.583-1.583V95.034c0-0.875,0.708-1.583,1.583-1.583
			s1.582,0.708,1.582,1.583v33.729C396.76,129.638,396.053,130.346,395.178,130.346z"/>
	</g>
	<g>
		<path fill="#FFFFFF" d="M395.178,90.552c-0.875,0-1.583-0.708-1.583-1.583v-2.64c0-0.875,0.708-1.583,1.583-1.583
			s1.582,0.708,1.582,1.583v2.64C396.76,89.844,396.053,90.552,395.178,90.552z"/>
	</g>
	<g>
		<rect x="253.934" y="256.688" fill="#BBDEFB" width="288.026" height="143.401"/>
	</g>
	<g>
		<path fill="#26A8DF" d="M547.499,271.755H248.396l8.126-36.641c0.8-3.623,4.015-6.199,7.727-6.199h267.396
			c3.709,0,6.924,2.576,7.729,6.199L547.499,271.755z"/>
	</g>
	<g>
		<polygon fill="#BBDEFB" points="447.927,400.188 347.963,400.188 347.963,173.103 396.275,128.763 447.927,173.103 		"/>
	</g>
	<g>
		<path fill="#26A8DF" d="M401.39,136.476l47.579,47.578c1.904,1.904,4.989,1.904,6.894,0l0,0c1.904-1.9,1.904-4.989,0-6.889
			l-54.473-54.472c-1.9-1.902-4.988-1.902-6.889,0l-54.472,54.472c-1.9,1.9-1.9,4.989,0,6.889l0,0c1.904,1.904,4.989,1.904,6.893,0
			l47.579-47.578C396.401,134.574,399.489,134.574,401.39,136.476z"/>
	</g>
	<g>
		<path fill="#26A8DF" d="M419.898,245.643h-43.906c-1.53,0-2.773-1.243-2.773-2.775v-37.384c0-13.656,11.069-24.727,24.729-24.727
			l0,0c13.655,0,24.727,11.071,24.727,24.727v37.384C422.674,244.399,421.432,245.643,419.898,245.643z"/>
	</g>
	<g>
		<g>
			<path fill="#FFFFFF" d="M401.699,213.198h13.659c0.544,0,0.986-0.439,0.986-0.983v-6.732c0-8.784-6.195-16.129-14.441-17.942
				c-0.605-0.137-1.187,0.361-1.187,0.981v23.693C400.717,212.759,401.154,213.198,401.699,213.198z"/>
		</g>
		<g>
			<path fill="#FFFFFF" d="M395.178,212.215v-23.693c0-0.621-0.581-1.118-1.189-0.981c-8.247,1.813-14.438,9.158-14.438,17.942
				v6.732c0,0.543,0.439,0.983,0.982,0.983h13.659C394.735,213.198,395.178,212.759,395.178,212.215z"/>
		</g>
		<g>
			<path fill="#FFFFFF" d="M400.717,220.018v18.015c0,0.705,0.571,1.279,1.278,1.279h13.066c0.708,0,1.283-0.574,1.283-1.279
				v-18.015c0-0.708-0.575-1.28-1.283-1.28h-13.066C401.288,218.737,400.717,219.31,400.717,220.018z"/>
		</g>
		<g>
			<path fill="#FFFFFF" d="M393.895,218.737H380.83c-0.709,0-1.28,0.572-1.28,1.28v18.015c0,0.705,0.571,1.279,1.28,1.279h13.064
				c0.708,0,1.283-0.574,1.283-1.279v-18.015C395.178,219.31,394.603,218.737,393.895,218.737z"/>
		</g>
	</g>
	<g>
		<g>
			<path fill="#26A8DF" d="M328.051,362.825h-43.903c-1.533,0-2.776-1.242-2.776-2.775v-37.382
				c0-13.655,11.071-24.728,24.727-24.728l0,0c13.656,0,24.728,11.072,24.728,24.728v37.382
				C330.828,361.583,329.584,362.825,328.051,362.825z"/>
		</g>
		<g>
			<g>
				<path fill="#FFFFFF" d="M309.852,330.383h13.663c0.541,0,0.982-0.445,0.982-0.982v-6.732c0-8.784-6.194-16.128-14.438-17.945
					c-0.609-0.136-1.19,0.365-1.19,0.983V329.4C308.869,329.938,309.309,330.383,309.852,330.383z"/>
			</g>
			<g>
				<path fill="#FFFFFF" d="M303.33,329.4v-23.694c0-0.618-0.581-1.119-1.19-0.983c-8.243,1.817-14.438,9.161-14.438,17.945v6.732
					c0,0.537,0.439,0.982,0.984,0.982h13.662C302.889,330.383,303.33,329.938,303.33,329.4z"/>
			</g>
			<g>
				<path fill="#FFFFFF" d="M308.869,337.201v18.015c0,0.704,0.572,1.279,1.28,1.279h13.068c0.708,0,1.28-0.575,1.28-1.279v-18.015
					c0-0.71-0.571-1.279-1.28-1.279h-13.068C309.441,335.922,308.869,336.491,308.869,337.201z"/>
			</g>
			<g>
				<path fill="#FFFFFF" d="M302.05,335.922h-13.068c-0.708,0-1.28,0.569-1.28,1.279v18.015c0,0.704,0.573,1.279,1.28,1.279h13.068
					c0.708,0,1.28-0.575,1.28-1.279v-18.015C303.33,336.491,302.759,335.922,302.05,335.922z"/>
			</g>
		</g>
		<g>
			<path fill="#26A8DF" d="M511.743,362.825h-43.904c-1.533,0-2.775-1.242-2.775-2.775v-37.382
				c0-13.655,11.072-24.728,24.728-24.728l0,0c13.658,0,24.728,11.072,24.728,24.728v37.382
				C514.519,361.583,513.275,362.825,511.743,362.825z"/>
		</g>
		<g>
			<g>
				<path fill="#FFFFFF" d="M493.543,330.383h13.662c0.544,0,0.982-0.445,0.982-0.982v-6.732c0-8.784-6.19-16.128-14.437-17.945
					c-0.609-0.136-1.19,0.365-1.19,0.983V329.4C492.561,329.938,493.002,330.383,493.543,330.383z"/>
			</g>
			<g>
				<path fill="#FFFFFF" d="M487.021,329.4v-23.694c0-0.618-0.581-1.119-1.188-0.983c-8.246,1.817-14.44,9.161-14.44,17.945v6.732
					c0,0.537,0.441,0.982,0.982,0.982h13.662C486.583,330.383,487.021,329.938,487.021,329.4z"/>
			</g>
			<g>
				<path fill="#FFFFFF" d="M492.561,337.201v18.015c0,0.704,0.574,1.279,1.282,1.279h13.065c0.708,0,1.279-0.575,1.279-1.279
					v-18.015c0-0.71-0.571-1.279-1.279-1.279h-13.065C493.135,335.922,492.561,336.491,492.561,337.201z"/>
			</g>
			<g>
				<path fill="#FFFFFF" d="M485.741,335.922h-13.065c-0.707,0-1.282,0.569-1.282,1.279v18.015c0,0.704,0.575,1.279,1.282,1.279
					h13.065c0.708,0,1.28-0.575,1.28-1.279v-18.015C487.021,336.491,486.449,335.922,485.741,335.922z"/>
			</g>
		</g>
	</g>
	<g>
		<path fill="#26A8DF" d="M419.898,397.66h-43.906c-1.53,0-2.773-1.242-2.773-2.775v-37.382c0-13.655,11.069-24.727,24.729-24.727
			l0,0c13.655,0,24.727,11.071,24.727,24.727v37.382C422.674,396.418,421.432,397.66,419.898,397.66z"/>
	</g>
	<g>
		<path fill="#FFFFFF" d="M255.557,262.519c-0.126,0-0.253-0.013-0.383-0.044c-0.847-0.209-1.363-1.068-1.153-1.923l6.331-25.426
			c0.176-0.704,0.811-1.199,1.537-1.199h74.906c0.875,0,1.582,0.712,1.582,1.583c0,0.879-0.708,1.584-1.582,1.584h-73.669
			l-6.031,24.226C256.914,262.043,256.268,262.519,255.557,262.519z"/>
	</g>
	<g>
		<path fill="#FFFFFF" d="M520.106,237.094h-68.312c-0.875,0-1.582-0.705-1.582-1.584c0-0.871,0.707-1.583,1.582-1.583h68.312
			c0.875,0,1.583,0.712,1.583,1.583C521.689,236.389,520.981,237.094,520.106,237.094z"/>
	</g>
	<g>
		<path fill="#FFFFFF" d="M396.784,128.121c-0.401,0-0.807-0.155-1.114-0.46c-0.619-0.617-0.626-1.618-0.008-2.24l1.163-1.17
			c0.615-0.616,1.616-0.626,2.238-0.006c0.617,0.615,0.624,1.617,0.006,2.238l-1.163,1.169
			C397.597,127.963,397.193,128.121,396.784,128.121z"/>
	</g>
	<g>
		<path fill="#FFFFFF" d="M344.708,180.623c-0.402,0-0.807-0.151-1.116-0.458c-0.618-0.618-0.624-1.62-0.009-2.241l48.529-48.926
			c0.616-0.615,1.615-0.627,2.24-0.009c0.618,0.618,0.624,1.62,0.009,2.241l-48.527,48.927
			C345.521,180.465,345.117,180.623,344.708,180.623z"/>
	</g>
	<g>
		<path fill="#FFFFFF" d="M377.676,376.994c-0.874,0-1.582-0.711-1.582-1.582v-17.315c0-12.049,9.805-21.853,21.854-21.853
			c0.875,0,1.582,0.705,1.582,1.582c0,0.872-0.707,1.583-1.582,1.583c-10.306,0-18.688,8.383-18.688,18.688v17.315
			C379.26,376.283,378.551,376.994,377.676,376.994z"/>
	</g>
</g>
</svg>
