<svg version="1.1" xmlns="http://www.w3.org/2000/svg" viewBox="0 0 768 430" xml:space="preserve"><style>.s0{fill:none;}.s1{fill:#DDE4D0;}</style><path d="M415.7 139.9c-0.2-4.7-3.9-7.5-8.1-7.6 -4.4-0.1-7.6 2.9-8.4 7.7 -0.2 1.1-0.2 2.3-0.2 3.5 0 6.6 0 13.1 0 19.7 0 3.1 0 6.2 0 9.5 5.8 0 11.1 0 16.8 0C415.8 161.6 416.1 150.7 415.7 139.9zM365.9 269.3c0-5.5 0.1-11 0-16.5 -0.1-6.1-4-10.2-10.2-11.1 -8-1.2-14 3.7-14.2 12 -0.2 10.8 0 21.5-0.1 32.3 0 2.4 1 3 3.4 2.9 5.8-0.1 11.7-0.1 17.5 0 2.7 0.1 3.7-0.7 3.6-3.2C365.8 280.3 365.9 274.8 365.9 269.3zM473.5 254c0-2.4-0.5-5-1.7-7.1 -2.3-4.3-8-6.2-13.3-5.1 -5.5 1.1-9.1 4.9-9.3 10.3 -0.2 5.7 0 11.5 0 17.2 0 0 0 0 0 0 0 5.5 0.1 11 0 16.5 0 2.2 0.6 3.2 3.2 3.1 6-0.1 11.9-0.1 17.9 0 2.5 0.1 3.4-0.7 3.4-3C473.5 275.3 473.7 264.6 473.5 254z" fill="none"/><path d="M415.7 139.9c-0.2-4.7-3.9-7.5-8.1-7.6 -4.4-0.1-7.6 2.9-8.4 7.7 -0.2 1.1-0.2 2.3-0.2 3.5 0 6.6 0 13.1 0 19.7 0 3.1 0 6.2 0 9.5 5.8 0 11.1 0 16.8 0C415.8 161.6 416.1 150.7 415.7 139.9zM365.9 269.3c0-5.5 0.1-11 0-16.5 -0.1-6.1-4-10.2-10.2-11.1 -8-1.2-14 3.7-14.2 12 -0.2 10.8 0 21.5-0.1 32.3 0 2.4 1 3 3.4 2.9 5.8-0.1 11.7-0.1 17.5 0 2.7 0.1 3.7-0.7 3.6-3.2C365.8 280.3 365.9 274.8 365.9 269.3zM473.5 254c0-2.4-0.5-5-1.7-7.1 -2.3-4.3-8-6.2-13.3-5.1 -5.5 1.1-9.1 4.9-9.3 10.3 -0.2 5.7 0 11.5 0 17.2 0 0 0 0 0 0 0 5.5 0.1 11 0 16.5 0 2.2 0.6 3.2 3.2 3.1 6-0.1 11.9-0.1 17.9 0 2.5 0.1 3.4-0.7 3.4-3C473.5 275.3 473.7 264.6 473.5 254z" fill="none"/><path d="M314.9 206.9c29.4-8.2 58.8-16.4 88.2-24.5 2.6-0.7 5.7-0.8 8.2-0.2 22.4 6.1 44.7 12.4 67 18.6 8 2.2 16 4.4 24.3 6.7 0.7-1.9 1.2-3.5 1.8-5.3 -1.7-0.5-2.9-0.9-4.2-1.2 -22.3-6.2-44.6-12.6-67-18.6 -3-0.8-3.8-2-3.7-4.6 0.1-11.3 0.1-22.5 0.1-33.8 0-1.3 0.1-2.5 0.2-3.9 2.6-0.2 7.6 0 10.2-0.1 -8.5-14.9-19.4-29.7-28-44 -4.4-7.3-1.7-14.7-2.6-22.5 3.1 0 5.5 0 8.3 0 -0.6-5.7-5.9-1.7-8.3-4.2 0-1.6 0-3.7 0-5.8 0-3.8 0-3.8-3.8-3.3 0 3.2 0 6.5 0 10.2 -3 0-5.4 0-7.8 0 0 2.8 0 2.8 7.9 3.5 0 4.9 0.2 9.5-0.1 14.2 -0.1 2-0.6 4.2-1.6 6 -5.3 9.5-10.9 18.9-16.3 28.4C384.5 128.2 379.5 133.8 376 140c2.9 0 6.8 0 9.2 0 0.1 1.3 0.3 2.3 0.3 3.4 0 11.6-0.1 23.2 0.1 34.8 0 2.5-0.9 3.4-3.4 4.1 -17.6 4.8-35.2 9.8-52.8 14.7 -6.1 1.7-12.3 3.5-18.7 5.3 0.8 2 1.4 3.6 2 5.2C313.7 207.2 314.3 207.1 314.9 206.9zM399 163.2c0-6.6 0-13.1 0-19.7 0-1.2 0-2.3 0.2-3.5 0.9-4.9 4.1-7.8 8.4-7.7 4.2 0.1 7.9 2.9 8.1 7.6 0.4 10.8 0.1 21.7 0.1 32.8 -5.8 0-11 0-16.8 0C399 169.4 399 166.3 399 163.2zM493.7 238c0-8.9 0-17.8 0-26.7 -1-0.3-1.9-0.7-2.9-0.9 -26.9-7.5-53.8-15.1-80.7-22.5 -1.7-0.5-3.8-0.4-5.6 0.1 -16.1 4.4-32.2 8.9-48.4 13.4 -11.6 3.3-23.3 6.5-34.7 9.7 0 9 0 17.9 0 26.9H261v69h16v-49c0-2.8 2.2-5 5-5h24c2.8 0 5 2.2 5 5v49h17v-0.5c21.6 0 43 0 64.6 0 0-1.4 0-2.7 0-3.9 0-11.5 0-23 0-34.5 0-5.4 1.9-10.2 6.3-13.9 5.1-4.4 12.1-4.4 17.2 0 4.4 3.8 6.3 8.5 6.3 13.9 0 10.3 0 20.6 0 31 0 2.4 0 4.9 0 7.5 21 0 41.6 0 62.6 0V307h16v-49c0-2.8 2.2-5 5-5h24c2.8 0 5 2.2 5 5v49h17v-69H493.7zM362.4 288.9c-5.8-0.1-11.7-0.1-17.5 0 -2.5 0-3.5-0.6-3.4-2.9 0.1-10.8-0.1-21.5 0.1-32.3 0.2-8.3 6.2-13.3 14.2-12 6.2 1 10 5 10.2 11.1 0.1 5.5 0 11 0 16.5 0 5.5-0.1 11 0.1 16.5C366.1 288.3 365 289 362.4 288.9zM470.3 288.9c-6-0.1-11.9-0.1-17.9 0 -2.7 0.1-3.3-0.9-3.2-3.1 0.1-5.5 0-11 0-16.5 0 0 0 0 0 0 0-5.7-0.2-11.5 0-17.2 0.2-5.4 3.8-9.2 9.3-10.3 5.3-1.1 11 0.8 13.3 5.1 1.1 2.1 1.6 4.7 1.7 7.1 0.2 10.6 0 21.3 0.1 32C473.7 288.2 472.8 289 470.3 288.9z" fill="#DDE4D0"/></svg>