<svg version="1.1" id="Layer_1" xmlns="http://www.w3.org/2000/svg" xmlns:xlink="http://www.w3.org/1999/xlink" x="0px" y="0px"
	viewBox="0 0 768 430" enable-background="new 0 0 768 430" xml:space="preserve">
<g>
	<path fill="#F46742" d="M459.879,152.688c0-5.55-2.725-10.43-6.846-13.274c1.784-1.771,2.903-4.268,2.903-7.042
		c0-5.208-3.921-9.446-8.845-9.692c0.252-1.146,0.396-2.333,0.396-3.558c0-8.781-6.808-15.899-15.205-15.899
		c-1.796,0-3.51,0.342-5.108,0.939c-0.413-8.394-7.036-15.072-15.166-15.072c-3.422,0-6.567,1.196-9.108,3.189
		c-1.365-3.591-4.711-6.134-8.632-6.134c-2.442,0-4.659,0.994-6.317,2.605c-2.783-3.73-7.111-6.139-11.987-6.139
		c-5.903,0-11.011,3.526-13.53,8.668c-1.704-2.059-4.216-3.368-7.025-3.368c-4.695,0-8.567,3.646-9.192,8.375
		c-1.269-0.458-2.625-0.719-4.042-0.719c-6.842,0-12.39,5.8-12.39,12.955c0,0.036,0.004,0.069,0.005,0.104
		c-0.557-0.064-1.121-0.104-1.695-0.104c-8.397,0-15.206,7.119-15.206,15.9c0,2.056,0.387,4.013,1.064,5.817
		c-5.166,1.56-8.949,6.533-8.949,12.438c0,4.737,2.439,8.869,6.07,11.128c-1.662,1.755-2.69,4.168-2.69,6.833
		c0,5.365,4.16,9.716,9.292,9.716c0.614,0,1.213-0.065,1.792-0.185c-0.602,1.711-0.948,3.554-0.948,5.485
		c0,8.781,6.808,15.899,15.205,15.899c6.05,0,11.259-3.704,13.708-9.053c9.984,4.215,22.149,6.698,35.29,6.698
		c16.645,0,31.732-3.979,42.791-10.428c2.521,5.138,7.626,8.661,13.527,8.661c8.397,0,15.205-7.118,15.205-15.9
		c0-2.011-0.372-3.926-1.022-5.698C457.239,162.97,459.879,158.152,459.879,152.688z"/>
	<g>
		<g>
			<g>
				<g>
					<path fill="#EAA475" d="M389.568,221.234c1.847-3.109,5.866-4.133,8.98-2.296c0.197,0.117,19.962,11.587,39.534,5.762
						c10.089-3.003,18.595-10.183,25.363-21.355c3.573,2.54,7.188,5.018,10.861,7.402c-8.467,13.747-19.406,22.668-32.608,26.561
						c-5.265,1.552-10.465,2.168-15.409,2.168c-18.667,0-33.666-8.797-34.454-9.269
						C388.732,228.354,387.722,224.343,389.568,221.234z"/>
				</g>
				<circle fill="#EAA475" cx="467.996" cy="208.839" r="12.46"/>
			</g>
			<path fill="#D5D5D6" d="M467.996,195.936c-7.114,0-12.902,5.788-12.902,12.903c0,1.366,0.224,2.728,0.664,4.053
				c-0.752,0.803-1.573,1.612-2.566,2.527c-0.179,0.164-0.19,0.443-0.026,0.623c2.757,3.022,5.481,6.342,8.328,10.149
				c0.073,0.099,0.187,0.162,0.31,0.175c0.015,0.001,0.028,0.002,0.043,0.002c0.109,0,0.214-0.039,0.295-0.113
				c1.603-1.441,3.145-2.981,4.588-4.582c0.452,0.047,0.869,0.069,1.268,0.069c7.114,0,12.902-5.789,12.902-12.902
				C480.898,201.724,475.11,195.936,467.996,195.936z"/>
		</g>
		<g>
			<g>
				<g>
					<path fill="#EAA475" d="M377.512,221.234c-1.847-3.109-5.866-4.133-8.98-2.296c-0.197,0.117-19.962,11.587-39.534,5.762
						c-10.089-3.003-18.595-10.183-25.363-21.355c-3.573,2.54-7.188,5.018-10.862,7.402c8.468,13.747,19.407,22.668,32.609,26.561
						c5.265,1.552,10.465,2.168,15.409,2.168c18.668,0,33.667-8.797,34.455-9.269C378.348,228.354,379.358,224.343,377.512,221.234z
						"/>
				</g>
				<circle fill="#EAA475" cx="299.084" cy="208.839" r="12.461"/>
			</g>
			<path fill="#D5D5D6" d="M299.084,195.936c7.114,0,12.902,5.788,12.902,12.903c0,1.366-0.223,2.728-0.664,4.053
				c0.751,0.803,1.573,1.612,2.566,2.527c0.178,0.164,0.191,0.443,0.026,0.623c-2.758,3.022-5.481,6.342-8.328,10.149
				c-0.074,0.099-0.187,0.162-0.31,0.175c-0.015,0.001-0.028,0.002-0.043,0.002c-0.108,0-0.214-0.039-0.295-0.113
				c-1.603-1.441-3.145-2.981-4.587-4.582c-0.452,0.047-0.869,0.069-1.267,0.069c-7.115,0-12.903-5.789-12.903-12.902
				C286.181,201.724,291.97,195.936,299.084,195.936z"/>
		</g>
		<path fill="#EAA475" d="M358.813,275.3c-3.62,0.13-4.24,2.784-4.113,6.403l0.99,90.366c-10.284,2.543-17.586,10.422-17.91,19.015
			l28.082-4.882l-0.067-0.389c2.045-1.174,3.39-3.406,3.3-5.924l3.839-101.603C372.805,274.668,362.434,275.174,358.813,275.3z"/>
		<path fill="#20B4D6" d="M354.247,362.168c-0.066,0.148-0.11,0.31-0.118,0.48l-0.396,8.444
			c-10.409,2.33-18.166,9.986-19.021,18.914c-0.039,0.397,0.104,0.792,0.391,1.071c0.285,0.281,0.681,0.417,1.079,0.372
			l28.318-3.255c0.541-0.062,0.968-0.441,1.116-0.931c2.197-1.398,3.571-3.788,3.646-6.42l1.788-18.677H354.247z"/>
		<path fill="#F2BC97" d="M431.446,391.084c-0.243-8.884-7.951-17.083-18.761-19.446l4.115-89.888
			c0.166-3.618-2.634-6.685-6.252-6.851c-3.619-0.163-13.985-0.775-14.15,2.843l2.804,101.637c-0.134,2.906,1.65,5.455,4.232,6.431
			l-0.02,0.106L431.446,391.084z"/>
		<path fill="#2ABCE9" d="M414.217,370.754l-0.386-8.288c-0.018-0.35-0.175-0.659-0.412-0.887h-16.846l2.334,19.392
			c0.171,3.212,2.254,5.964,5.258,7.017c0.202,0.175,0.458,0.288,0.742,0.314l28.39,2.562c0.397,0.036,0.791-0.109,1.069-0.396
			c0.279-0.287,0.413-0.685,0.364-1.082C433.629,380.217,425.083,372.521,414.217,370.754z"/>
		<path fill="#F2BC97" d="M415.305,234.286c0-10.864-8.153-19.673-19.02-19.673h-11.783h-9.855
			c-10.866,0-19.675,8.809-19.675,19.673l-6.558,62.956c0,10.865,8.808,19.674,19.675,19.674h16.413h17.685
			c10.867,0,19.675-8.809,19.675-19.674L415.305,234.286z"/>
		<path fill="#FFDEAE" d="M415.305,234.286c0-10.538-7.671-19.141-18.047-19.649c-0.565,2.522-1.827,4.869-3.674,6.715
			c-2.399,2.399-5.701,3.812-9.082,3.98c-0.223,0.011,0.226,0.034,0,0.034c-3.62,0-7.739-1.456-10.297-4.015
			c-1.752-1.752-2.971-3.954-3.575-6.329c-8.939,1.855-15.658,9.774-15.658,19.262l-6.558,62.956
			c0,10.865,8.808,19.674,19.675,19.674h16.413h17.685c10.867,0,19.675-8.809,19.675-19.674L415.305,234.286z"/>
		<polygon fill="#EAB000" points="374.678,345.25 373.903,301.084 348.415,297.242 347.457,345.25 		"/>
		<polygon fill="#2ABCE9" points="394.272,345.25 395.047,301.084 420.534,297.242 421.492,345.25 		"/>
		<polygon fill="#8DBC26" points="373.916,301.832 373.903,301.084 348.415,297.242 348.324,301.832 		"/>
		<polygon fill="#20B4D6" points="348.142,310.935 348.015,317.291 374.188,317.291 374.075,310.935 		"/>
		<polygon fill="#20B4D6" points="347.833,326.393 347.715,332.307 374.451,332.307 374.347,326.393 		"/>
		<polygon fill="#8DBC26" points="347.533,341.409 347.457,345.25 374.678,345.25 374.61,341.409 		"/>
		<g>
			<path fill="#D5D5D6" d="M384.502,225.367c-3.62,0-7.739-1.456-10.297-4.015c-1.752-1.752-2.971-3.954-3.575-6.329
				c-8.939,1.855-15.658,9.774-15.658,19.262l-6.558,62.956c0,10.865,8.808,19.674,19.675,19.674h16.413v-91.583
				C384.279,225.344,384.729,225.367,384.502,225.367z"/>
			<path fill="#F4F4F4" d="M415.305,234.286c0-10.538-7.671-19.141-18.047-19.649c-0.565,2.522-1.827,4.869-3.674,6.715
				c-2.399,2.399-5.701,3.812-9.082,3.98v91.583h17.685c10.867,0,19.675-8.809,19.675-19.674L415.305,234.286z"/>
		</g>
		<g>
			<path fill="#E94E1B" d="M348.831,358.729c-0.058-0.006-0.216-0.012-0.276-0.013c-0.055-0.006,0.06,0,0.001-0.005
				c-5.326-0.342-9.986,3.579-10.315,8.76c-0.332,5.178,3.795,9.657,9.121,9.995c0.057,0.007-0.057-0.008-0.001-0.003
				c0.059,0.007,0.22,0.018,0.278,0.022c5.326,0.339,9.912-3.584,10.239-8.766C358.207,363.541,354.158,359.069,348.831,358.729z"/>
		</g>
		<g>
			<path fill="#F46742" d="M421.482,360.199c-0.055-0.006-0.203-0.012-0.259-0.013c-0.052-0.004,0.056,0,0.001-0.003
				c-4.991-0.321-9.36,3.354-9.67,8.211c-0.311,4.854,3.558,9.053,8.551,9.37c0.054,0.004-0.053-0.009-0.001-0.003
				c0.055,0.004,0.206,0.017,0.26,0.02c4.992,0.319,9.292-3.359,9.599-8.216C430.272,364.709,426.475,360.518,421.482,360.199z"/>
		</g>
		<g>
			<path fill="#F2BC97" d="M415.351,125.819h-30.848v90.876c0.33,0.006,1.305,0.023,1.634,0.023
				c30.423,0,55.087-22.027,55.087-49.198C441.224,149.938,430.886,134.517,415.351,125.819z"/>
			<path fill="#EAA475" d="M384.502,216.695v-90.876h-29.271c-15.662,8.698-26.178,24.119-26.178,41.702
				c0,27.17,25.027,49.198,55.449,49.198C384.833,216.719,384.175,216.701,384.502,216.695z"/>
		</g>
		<g>
			<path fill="#FFF2DE" d="M410.773,132.52h-26.474v77.996c0.283,0.004,1.12,0.019,1.403,0.019c26.11,0,47.277-18.905,47.277-42.224
				C432.979,153.221,424.107,139.986,410.773,132.52z"/>
			<path fill="#FFE4BF" d="M384.299,210.516V132.52h-25.123c-13.442,7.466-22.467,20.701-22.467,35.791
				c0,23.319,21.479,42.224,47.59,42.224C384.582,210.535,384.018,210.52,384.299,210.516z"/>
		</g>
		<g>
			<path fill="#201B21" d="M369.967,169.996c0,2.396-1.942,4.34-4.34,4.34l0,0c-2.396,0-4.339-1.943-4.339-4.34v-7.958
				c0-2.396,1.943-4.339,4.339-4.339l0,0c2.397,0,4.34,1.942,4.34,4.339V169.996z"/>
			<path fill="#201B21" d="M408.304,169.996c0,2.396-1.943,4.34-4.34,4.34l0,0c-2.396,0-4.341-1.943-4.341-4.34v-7.958
				c0-2.396,1.944-4.339,4.341-4.339l0,0c2.396,0,4.34,1.942,4.34,4.339V169.996z"/>
		</g>
		<path d="M402.02,183.025c-1.05-0.345-2.181,0.228-2.527,1.278c-4.514,13.728-24.881,13.757-29.393,0.001
			c-0.346-1.052-1.477-1.625-2.528-1.279c-1.05,0.345-1.623,1.476-1.279,2.527c5.678,17.354,31.285,17.442,37.007,0
			C403.643,184.502,403.07,183.37,402.02,183.025z"/>
		<g>
			<circle fill="#F75B4B" cx="349.152" cy="182.472" r="9.765"/>
			<circle fill="#F75B4B" cx="421.124" cy="182.472" r="9.766"/>
		</g>
		<g>
			<circle fill="#F75B4B" cx="384.151" cy="178.331" r="10.081"/>
			<path fill="#E1361D" d="M384.15,168.25L384.15,168.25c-5.567,0-10.08,4.513-10.08,10.081s4.513,10.081,10.08,10.081l0,0V168.25z"
				/>
		</g>
		<g>
			<path fill="#EAB000" d="M373.02,286.067l-1.767-69.172c-0.25-0.609-0.46-1.233-0.623-1.872
				c-8.939,1.855-16.541,9.774-16.541,19.262l-4.51,51.781H373.02z"/>
			<path fill="#FFCF22" d="M420.699,286.067l-4.512-51.781c0-10.367-8.314-18.846-18.435-19.6l-0.884,71.381H420.699z"/>
		</g>
	</g>
	<path fill="#F46742" d="M444.886,146.125c0.535-0.679,0.834-1.59,0.86-2.829c0.041-1.866,0.146-3.69-0.416-5.479
		c-0.646-2.053-2.251-3.381-3.146-5.267c-1.611-3.396-2.344-6.242-4.671-9.276c-3.499-4.558-9.729-6.687-14.748-9.333
		c-2.582-1.36-5.376-1.841-8.2-2.608c-3.413-0.927-6.612-2.579-10.045-3.442c-5.005-1.259-10.616-0.532-15.749-0.544
		c-5.732-0.015-11.426,0.197-17.095,1.16c-6.672,1.135-13.19,1.697-19.625,3.968c-6.227,2.198-11.591,5.017-16.951,8.873
		c-6.854,4.933-8.435,11.04-6.425,19.015c0.082,0.325,0.183,0.656,0.301,0.986c-3.099,2.185-5.129,5.785-5.129,9.866
		c0,6.666,5.404,12.071,12.072,12.071c6.667,0,12.071-5.405,12.071-12.071c0-0.973-0.127-1.915-0.344-2.82
		c0.591,0.105,1.197,0.169,1.818,0.169c4.592,0,8.481-3.007,9.811-7.158c2.023,1.529,4.534,2.447,7.265,2.447
		c5.255,0,9.712-3.362,11.371-8.048c1.743,1.349,3.922,2.16,6.297,2.16c3.185,0,6.031-1.447,7.922-3.718
		c1.545,4.886,6.113,8.429,11.51,8.429c2.522,0,4.862-0.776,6.799-2.099c0.291,6.409,5.563,11.521,12.046,11.521
		c1.622,0,3.169-0.325,4.582-0.906c-0.103,0.583-0.166,1.177-0.166,1.789c0,5.69,4.613,10.306,10.307,10.306
		c5.69,0,10.305-4.615,10.305-10.306C447.513,150.345,446.515,147.947,444.886,146.125z"/>
	<g>
		<g>
			<polygon fill="#20B4D6" points="362.597,203.883 362.597,232.149 384.665,222.175 384.665,213.148 			"/>
			<polygon fill="#2ABCE9" points="406.064,203.883 406.064,232.149 384.665,222.175 384.665,213.148 			"/>
		</g>
		<rect x="377.853" y="209.773" fill="#5CE7FF" width="12.956" height="16.488"/>
	</g>
	<rect x="392.453" y="341.128" fill="#5CE7FF" width="30.622" height="7.655"/>
	<rect x="344.753" y="339.951" fill="#2ABCE9" width="30.623" height="7.654"/>
	<g>
		<g>
			<circle fill="#2ABCE9" cx="483.523" cy="169.056" r="14.056"/>
		</g>
		<g>
			<circle fill="#F75B4B" cx="470.273" cy="81.608" r="14.055"/>
		</g>
	</g>
	<g>
		<g>
			<circle fill="#F75B4B" cx="281.245" cy="169.056" r="14.055"/>
		</g>
		<g>
			<circle fill="#EAB000" cx="294.494" cy="81.608" r="14.055"/>
		</g>
	</g>
	<g>
		<circle fill="#5CE7FF" cx="384.592" cy="37.443" r="14.055"/>
	</g>
	<g>
		<g>
			<circle fill="#F75B4B" cx="384.298" cy="283.004" r="6.989"/>
			<path fill="#E1361D" d="M384.298,289.992L384.298,289.992c-3.86,0-6.99-3.128-6.99-6.988s3.129-6.989,6.99-6.989l0,0V289.992z"/>
		</g>
		<g>
			<circle fill="#F75B4B" cx="384.298" cy="259.596" r="6.989"/>
			<path fill="#E1361D" d="M384.298,266.585L384.298,266.585c-3.86,0-6.99-3.13-6.99-6.989c0-3.86,3.129-6.989,6.99-6.989l0,0
				V266.585z"/>
		</g>
		<g>
			<circle fill="#F75B4B" cx="384.298" cy="236.188" r="6.989"/>
			<path fill="#E1361D" d="M384.298,243.177L384.298,243.177c-3.86,0-6.99-3.129-6.99-6.989s3.129-6.988,6.99-6.988l0,0V243.177z"/>
		</g>
	</g>
</g>
</svg>
