<svg version="1.1" xmlns="http://www.w3.org/2000/svg" x="0" y="0" width="768" height="430" viewBox="0 0 768 430" enable-background="new 0 0 768 430" xml:space="preserve"><path fill-rule="evenodd" clip-rule="evenodd" fill="#DDE4D0" d="M502 165.8c-8.3-8.3-18.1-15-27-22.6 -2.9-2.5-6.1-5.4-7.5-8.8 -13.6-31.7-37.3-50.5-71.6-53.3 -35.7-3-63.8 11.7-81.1 43.2 -5.9 10.7-12.5 18.5-22.8 25.2 -35.5 23.5-35.2 58.1 0 82.1 5.9 4 11.1 8 14.6 14.6 2 3.8 5.8 7.3 9.6 9.4 7.3 4 9.1 9.9 10.4 17.7 2.6 15.4 5.2 31.1 11.1 45.4 9 21.9 27.7 32.4 51 32.3 23.3-0.1 42-10.6 50.8-32.7 5.8-14.3 8.4-30.1 11-45.5 1.3-7.6 3-13.3 10.1-17.2 3.5-1.9 7.3-4.8 8.9-8.2 4-8.6 11.3-13.1 18.4-18.3 4.7-3.4 9-7.7 12.9-12.2 6.5-7.6 10.4-16.5 10.3-25.5C511 181 508.4 172.1 502 165.8zM446.9 209.1c-1-4.1-1.7-8.3-3-12.3 -3.9-12.9-12.9-21.6-21.9-21.6 -8.5 0.1-17.8 8.9-21.4 21.4 -1.6 5.6-1.7 11.7-2.8 17.4 -0.3 1.6-2 2.9-3 4.3 -0.8-1.4-2.4-2.8-2.4-4.3 0.2-13.6 3.1-26.3 13.3-36.1 9.8-9.5 22.2-9.2 31.4 0.7 7.8 8.5 11.2 18.8 11.7 30C448.2 208.8 447.5 209 446.9 209.1zM436.1 284.9c-3.8 9.9-6.9 20.3-11.9 29.6 -7.5 14.1-20.4 20.2-35.8 20.3 -15.9-0.2-28.6-6.1-36-19.9 -5.2-9.7-9-20.3-12.1-30.9 -1-3.4 1.3-8.9 3.8-12 3.2-4.1 8.4-3.8 13.1-1.4 20.5 10.4 41 10.6 61.5 0.1 5-2.5 9.7-2.4 13.9 1.3C436.7 275.5 438.1 279.9 436.1 284.9zM347.6 172.8c8.5-3.6 16.1-1.6 22.6 4.5 10.7 10 14.1 23 13.8 37.1 0 1.3-1.7 2.6-2.6 4 -1-1.3-2.5-2.5-2.8-3.9 -0.8-4.9-0.4-10.1-1.9-14.8 -1.9-5.7-4.4-11.6-8-16.3 -8.5-11.1-20.7-11-29.1 0.4 -3.7 5-5.6 11.2-8 17.1 -1.1 2.6-1.3 5.5-1.9 8.3C326.5 196.2 336.2 177.7 347.6 172.8zM409.9 252.1c0.1 12.2-9.3 21.7-21.5 21.6 -11.9-0.1-21.2-9.3-21.3-21.2 -0.1-12.2 9.3-21.6 21.5-21.6C400.5 231 409.8 240.2 409.9 252.1zM405.9 228.2c8.2-9.6 18.9-9.4 28.7 0C425 228.2 415.9 228.2 405.9 228.2zM342.8 228.3c6.6-9.3 20.1-9.7 28 0C360.9 228.3 351.9 228.3 342.8 228.3zM417.9 295.5c-15.9 0-39.5 0-56.1 0C378.3 318.7 408.4 310.5 417.9 295.5z"/></svg>