<svg version="1.1" id="Layer_1" xmlns="http://www.w3.org/2000/svg" xmlns:xlink="http://www.w3.org/1999/xlink" viewBox="0 0 768 430" xml:space="preserve">
<path fill="#DDE4D0" d="M502,131.8c-8.3-8.3-18.1-15-27-22.6c-2.9-2.5-6.1-5.4-7.5-8.8c-13.6-31.7-37.3-50.5-71.6-53.3
	c-35.7-3-63.8,11.7-81.101,43.2c-5.9,10.7-12.5,18.5-22.8,25.2c-35.5,23.5-35.2,58.1,0,82.1c5.9,4,11.1,8,14.6,14.601
	c2,3.8,5.8,7.3,9.6,9.399c7.3,4,9.1,9.9,10.4,17.7c2.6,15.4,5.2,31.101,11.1,45.4c9,21.899,27.7,32.399,51,32.3
	c23.3-0.1,42-10.6,50.8-32.7c5.8-14.3,8.4-30.1,11-45.5c1.3-7.6,3-13.3,10.1-17.2c3.5-1.899,7.301-4.8,8.9-8.199
	c4-8.601,11.3-13.101,18.4-18.301c4.699-3.399,9-7.699,12.899-12.199c6.5-7.601,10.4-16.5,10.3-25.5C511,147,508.4,138.1,502,131.8z
	 M446.9,175.1c-1-4.1-1.7-8.3-3-12.3c-3.9-12.9-12.9-21.6-21.9-21.6c-8.5,0.1-17.8,8.9-21.4,21.4c-1.6,5.6-1.699,11.7-2.8,17.4
	c-0.3,1.6-2,2.9-3,4.3c-0.8-1.399-2.399-2.8-2.399-4.3c0.199-13.6,3.1-26.3,13.3-36.1c9.8-9.5,22.2-9.2,31.399,0.7
	c7.801,8.5,11.2,18.8,11.7,30C448.2,174.8,447.5,175,446.9,175.1z M436.1,250.9c-3.8,9.899-6.899,20.3-11.899,29.6
	c-7.5,14.1-20.4,20.2-35.8,20.3c-15.9-0.2-28.601-6.1-36-19.899c-5.2-9.7-9-20.301-12.1-30.9c-1-3.4,1.3-8.9,3.8-12
	c3.2-4.1,8.4-3.8,13.1-1.4c20.5,10.4,41,10.601,61.5,0.101c5-2.5,9.7-2.4,13.899,1.3C436.7,241.5,438.1,245.9,436.1,250.9z
	 M347.6,138.8c8.5-3.6,16.1-1.6,22.6,4.5c10.7,10,14.1,23,13.8,37.1c0,1.3-1.7,2.6-2.6,4c-1-1.301-2.5-2.5-2.8-3.9
	c-0.8-4.9-0.4-10.1-1.9-14.8c-1.9-5.7-4.4-11.6-8-16.3c-8.5-11.1-20.7-11-29.1,0.4c-3.7,5-5.6,11.2-8,17.1c-1.1,2.6-1.3,5.5-1.9,8.3
	C326.5,162.2,336.2,143.7,347.6,138.8z M409.9,218.1c0.1,12.2-9.301,21.7-21.5,21.601c-11.9-0.101-21.2-9.3-21.3-21.2
	c-0.1-12.2,9.3-21.6,21.5-21.6C400.5,197,409.8,206.2,409.9,218.1z M405.9,194.2c8.199-9.601,18.899-9.4,28.699,0
	C425,194.2,415.9,194.2,405.9,194.2z M342.8,194.3c6.6-9.3,20.1-9.7,28,0C360.9,194.3,351.9,194.3,342.8,194.3z M417.9,261.5
	c-15.9,0-39.5,0-56.101,0C378.3,284.7,408.4,276.5,417.9,261.5z"/>
</svg>
