<svg version="1.1" id="Layer_1" xmlns="http://www.w3.org/2000/svg" xmlns:xlink="http://www.w3.org/1999/xlink" viewBox="0 0 768 430" enable-background="new 0 0 768 430" xml:space="preserve">
<g>
	<g>
		<g>
			<path fill="#0E0073" d="M392.897,33c-25.303,0-45.889,20.585-45.889,45.887v199.779C329.945,292.426,320,312.998,320,335.326
				c0,40.193,32.701,72.896,72.897,72.896c40.2,0,72.901-32.703,72.901-72.896c0-22.326-9.947-42.898-27.012-56.658V78.887
				C438.787,53.585,418.201,33,392.897,33L392.897,33z"/>
			<path fill="#FFFFFF" d="M422.506,287.064V78.887c0-16.35-13.256-29.604-29.608-29.604c-16.349,0-29.605,13.254-29.605,29.604
				v208.175c-16.202,9.961-27.009,27.848-27.009,48.264c0,31.266,25.348,56.613,56.614,56.613c31.271,0,56.618-25.348,56.618-56.613
				C449.516,314.91,438.705,297.025,422.506,287.064z"/>
			<g>
				<path fill="#0E0073" d="M386.387,112.553h-22.697c-2.451,0-4.439-1.985-4.439-4.44c0-2.45,1.988-4.441,4.439-4.441h22.697
					c2.453,0,4.44,1.991,4.44,4.441C390.827,110.568,388.84,112.553,386.387,112.553z"/>
				<path fill="#0E0073" d="M386.387,146.599h-22.697c-2.451,0-4.439-1.986-4.439-4.441c0-2.451,1.988-4.441,4.439-4.441h22.697
					c2.453,0,4.44,1.99,4.44,4.441C390.827,144.613,388.84,146.599,386.387,146.599z"/>
				<path fill="#0E0073" d="M386.387,180.645h-22.697c-2.451,0-4.439-1.987-4.439-4.441c0-2.452,1.988-4.441,4.439-4.441h22.697
					c2.453,0,4.44,1.989,4.44,4.441C390.827,178.658,388.84,180.645,386.387,180.645z"/>
				<path fill="#0E0073" d="M386.387,214.69h-22.697c-2.451,0-4.439-1.986-4.439-4.439c0-2.453,1.988-4.443,4.439-4.443h22.697
					c2.453,0,4.44,1.99,4.44,4.443C390.827,212.704,388.84,214.69,386.387,214.69z"/>
				<path fill="#0E0073" d="M386.387,248.734h-22.697c-2.451,0-4.439-1.984-4.439-4.439c0-2.451,1.988-4.441,4.439-4.441h22.697
					c2.453,0,4.44,1.99,4.44,4.441C390.827,246.75,388.84,248.734,386.387,248.734z"/>
			</g>
		</g>
		<g>
			<linearGradient id="SVGID_1_" gradientUnits="userSpaceOnUse" x1="392.8994" y1="391.0176" x2="392.8994" y2="251.8755">
				<stop  offset="0" style="stop-color:#00ADBC"/>
				<stop  offset="1" style="stop-color:#004FDD"/>
			</linearGradient>
			<path fill="url(#SVGID_1_)" d="M422.506,287.064v-36.422l-59.214,0.49v35.93c-16.202,9.961-27.009,27.848-27.009,48.264
				c0,31.266,25.348,56.613,56.614,56.613c31.271,0,56.618-25.348,56.618-56.613C449.516,314.91,438.705,297.025,422.506,287.064z"
				/>
		</g>
	</g>
	<g>
		<g>
			<g>
				<path fill="#FFFFFF" d="M391.936,337.783c-0.908,15.197-13.973,26.771-29.178,25.857c-15.193-0.918-26.773-13.979-25.852-29.174
					c0.916-15.199,13.977-26.783,29.178-25.859C381.275,309.521,392.861,322.588,391.936,337.783z"/>
				<path fill="#0E0073" d="M377.115,324.771c-0.265,4.561-4.188,8.041-8.754,7.764c-4.555-0.275-8.033-4.195-7.754-8.758
					c0.278-4.555,4.193-8.037,8.76-7.752C373.92,316.295,377.391,320.215,377.115,324.771z"/>
			</g>
			<g>
				<path fill="#FFFFFF" d="M448.893,337.787c-0.922,15.193-13.988,26.777-29.184,25.855c-15.188-0.914-26.771-13.984-25.851-29.17
					c0.918-15.209,13.974-26.781,29.175-25.867C438.23,309.527,449.816,322.59,448.893,337.787z"/>
				<path fill="#0E0073" d="M425.189,324.902c-0.266,4.557-4.189,8.039-8.754,7.762c-4.555-0.277-8.033-4.199-7.754-8.758
					c0.277-4.557,4.193-8.039,8.76-7.756C421.992,316.424,425.467,320.342,425.189,324.902z"/>
			</g>
		</g>
		<path fill="#0E0073" d="M375.021,378.691c-0.185,0-0.372-0.027-0.56-0.084c-1.188-0.361-1.898-1.789-1.59-3.188
			c1.494-6.777,6.698-11.512,12.656-11.512c2.664,0,5.232,0.955,7.4,2.717c2.169-1.762,4.738-2.717,7.4-2.717
			c5.836,0,11.012,4.613,12.588,11.215c0.332,1.393-0.355,2.834-1.535,3.225c-1.18,0.393-2.404-0.418-2.738-1.807
			c-1.041-4.359-4.459-7.404-8.314-7.404c-2.184,0-4.275,0.973-5.885,2.744c-0.852,0.938-2.178,0.938-3.031,0
			c-1.609-1.771-3.699-2.744-5.885-2.744c-3.936,0-7.372,3.123-8.359,7.6C376.908,377.912,376.008,378.691,375.021,378.691z"/>
	</g>
</g>
</svg>
