<svg version="1.1" id="Layer_1" xmlns="http://www.w3.org/2000/svg" xmlns:xlink="http://www.w3.org/1999/xlink" viewBox="0 0 768 430" xml:space="preserve">
<path fill="#DDE4D0" d="M357.9,220.3c0-0.3-0.1-0.6-0.3-0.899c-0.4,0.3-0.8,0.5-1.2,0.8C357.3,220.2,357.8,220.2,357.9,220.3z"/>
<path fill="#DDE4D0" d="M421,249.6V217h-15v32.6c-11.4,3.2-19.8,13.7-19.8,26.2c0,15,12.2,27.3,27.3,27.3s27.3-12.199,27.3-27.3
	C440.7,263.3,432.4,252.8,421,249.6z M432.8,242.5l-0.1,0.2v-21.2h13.2V219v-0.7v-1.8h-13.2v-31.1h13.2v-2.5v-0.7v-1.8h-13.2v-31.1
	h13.2v-2.5v-0.7v-1.8h-13.2v-31.1h13.2v-2.5V110v-1.8h-13.2V73c0-10.6-8.7-19.2-19.2-19.2s-19.2,8.7-19.2,19.2v169.3
	c-11.5,6.601-19.2,19.101-19.2,33.3c0,21.2,17.3,38.5,38.5,38.5c21.2,0,38.4-17.1,38.4-38.3C452,261.6,444.3,249.1,432.8,242.5z
	 M413.4,307.4c-17.4,0-31.5-14.101-31.5-31.5c0-11.301,6.1-21.7,15.8-27.4l3.5-2V73.3c0-6.8,5.6-12.3,12.3-12.3s12.3,5.6,12.3,12.3
	v173.2h-0.1l3.5,2c9.8,5.7,15.8,16.1,15.8,27.4C445,293.2,430.9,307.4,413.4,307.4z M357.6,219.4c0.6-0.4,1.2-0.7,1.8-1.101
	c0.3-0.2,0.8-0.1,1.2,0c3.4,1,6.8,2,10.3,3c1.8,0.5,3.2-0.7,3-2.5c-0.1-1.2-0.8-1.899-2-2.2c-2.1-0.6-4.3-1.3-6.6-1.899
	c0.4-0.3,0.6-0.4,0.8-0.601c1.4-0.899,2.8-1.699,4.2-2.6c1-0.7,1.4-2,0.9-3.1c-0.4-1-1.2-1.601-2.3-1.4c-0.5,0.1-1.1,0.4-1.5,0.7
	c-1.4,0.899-2.8,1.7-4.4,2.8c0.7-2.7,1.3-5,1.8-7.4c0.4-1.6-0.3-2.899-1.6-3.199c-1.3-0.301-2.3,0.399-2.7,2.1
	c-0.9,3.6-1.8,7.3-2.7,10.9c-0.2,0.6-0.6,1.199-1.1,1.6c-1,0.6-2,1.3-3,1.9C355.4,217.3,357,218.3,357.6,219.4z M370.5,225.2
	c-3.3,1-6.6,1.899-9.9,2.899c-0.3,0.101-0.8,0.2-1.1,0c-2.6-1.6-5.2-3.199-7.9-4.899c1.7-1,3.3-2.101,4.8-3
	c-2.8-0.101-8.6-0.2-8.4-0.4c1.9-1.2,3.7-2.3,5.6-3.5c-3-1.8-6.6-3.5-6.5-5.2c0-0.6,0.3-1.3,0.7-1.699c2.3-2.601,4.6-5,6.9-7.601
	c0.3-0.3,0.6-0.7,0.9-1c0.7-1.1,0.5-2.6-0.4-3.3c-1-0.8-2.1-0.7-3.2,0.4c-0.7,0.699-1.3,1.5-2,2.199c-0.9,1-1.8,1.9-2.7,2.9
	c-0.2-0.7-0.2-1.3-0.2-1.9c0-1.5,0-3.1-0.1-4.6c-0.1-1.2-1-1.9-2-2c-1.1-0.1-2,0.7-2.3,1.9c-0.1,0.399-0.1,0.899-0.1,1.399
	c0,1.7,0,3.5,0,5.5c-0.5-0.5-0.8-0.8-1-1.1c-1.4-1.5-2.7-3-4-4.4c-0.7-0.8-1.6-1-2.6-0.5c-0.9,0.5-1.5,1.601-1.2,2.601
	c0.2,0.6,0.5,1.1,0.9,1.6c1.7,1.9,3.4,4,5.3,5.7c2.1,1.899,3,4,2.7,6.8c-0.2,2.1,0,4.2,0,6.5c-3.5-2.2-6.8-4.3-10.1-6.4
	c-0.3-0.199-0.5-0.699-0.6-1c-0.9-3.699-1.8-7.399-2.8-11.1c-0.4-1.6-1.5-2.4-2.8-2.1c-1.3,0.3-1.9,1.6-1.6,3.1
	c0.2,0.9,0.5,1.9,0.7,2.8c0.4,1.5,0.7,2.9,1.1,4.7c-1.7-1.1-3.1-2-4.5-2.8c-1.5-0.9-2.7-0.8-3.5,0.5c-0.8,1.3-0.4,2.7,1.1,3.6
	c1.3,0.8,2.7,1.7,4,2.5c0.2,0.101,0.3,0.3,0.6,0.5c-2.3,0.7-4.4,1.3-6.5,1.9c-1.6,0.5-2.3,1.7-1.8,3.2c0.4,1.399,1.5,1.899,3.2,1.5
	c3.3-1,6.6-1.9,9.9-2.9c0.4-0.1,0.9-0.2,1.2,0c2.6,1.6,5.2,3.2,7.9,4.9c-2.6,1.6-5,3.199-7.4,4.699c-0.4,0.301-1.2,0.301-1.7,0.2
	c-3.4-0.899-6.8-2-10.1-2.899c-1.4-0.4-2.5,0.199-2.9,1.5c-0.4,1.399,0.2,2.6,1.5,3.1c0.5,0.2,1,0.3,1.5,0.5c1.7,0.5,3.5,1,5.4,1.6
	c-1.7,1.101-3.3,2-4.8,3c-1.4,0.9-1.8,2.4-1,3.7c0.8,1.2,2,1.3,3.5,0.4c1.4-0.9,2.8-1.8,4.5-2.8c-0.1,0.6-0.2,0.899-0.2,1.199
	c-0.5,2.201-1.1,4.4-1.6,6.601c-0.3,1.2,0.5,2.5,1.7,2.8c1.1,0.3,2.2-0.4,2.6-1.7c0.1-0.3,0.1-0.5,0.2-0.8c0.9-3.6,1.8-7.2,2.7-10.8
	c0.1-0.5,0.5-1,0.9-1.3c2.9-1.9,5.8-3.6,8.7-5.5c0.3-0.2,0.6-0.4,1.1-0.6c0,3.199,0,6.199,0,9.199c0,0.801-0.2,1.4-0.7,1.9
	c-2.5,2.699-5,5.3-7.4,8c-1.1,1.3-1.1,2.8,0,3.8c1,0.899,2.2,0.7,3.4-0.601c1.5-1.6,3-3.299,4.7-5.1c0,2.3,0,4.2,0,6.2
	c0,1.5,0.9,2.601,2.2,2.601s2.3-1,2.3-2.601s0-3.3,0-4.899c0-0.301,0.1-0.601,0.1-1.101c1.8,1.899,3.3,3.601,4.9,5.399
	c0.7,0.701,1.5,1,2.4,0.701c1-0.4,1.6-1.201,1.4-2.201c-0.1-0.699-0.5-1.5-1-2.1c-2.4-2.7-4.8-5.3-7.2-7.9
	c-0.4-0.5-0.7-1.199-0.7-1.799c-0.1-2.601,0-5.301,0-7.9c0-0.4,0-0.7,0.1-1.2c0.4,0.2,0.7,0.399,1,0.601c2,1.199,3.9,2.6,6,3.699
	c2.6,1.301,4,3.2,4.4,6.1c0.4,2.801,1.3,5.601,2,8.4c0.3,1.301,1.4,2.1,2.5,1.9c1.2-0.2,2-1.301,1.9-2.6c0-0.301-0.1-0.601-0.2-0.9
	c-0.6-2.301-1.1-4.6-1.7-7.1c1.8,1.1,3.3,2.1,4.9,3.1c0.8,0.5,1.6,0.6,2.4,0.1s1.1-1.3,1.1-2.3s-0.6-1.7-1.5-2.2
	c-1.5-0.9-3-1.9-4.7-3c2.3-0.699,4.4-1.3,6.4-1.9c1.7-0.5,2.5-1.699,2.1-3.199C373.4,225.2,372.2,224.7,370.5,225.2z"/>
</svg>
