<svg version="1.1" xmlns="http://www.w3.org/2000/svg" x="0" y="0" width="768" height="430" viewBox="0 0 768 430" enable-background="new 0 0 768 430" xml:space="preserve"><path fill="#DDE4D0" d="M357.9 251.3c0-0.3-0.1-0.6-0.3-0.9 -0.4 0.3-0.8 0.5-1.2 0.8C357.3 251.2 357.8 251.2 357.9 251.3z"/><path fill="#DDE4D0" d="M421 280.6L421 248h-15l0 32.6c-11.4 3.2-19.8 13.7-19.8 26.2 0 15 12.2 27.3 27.3 27.3s27.3-12.2 27.3-27.3C440.7 294.3 432.4 283.8 421 280.6zM432.8 273.5l-0.1 0.2v-21.2h13.2v-2.5 -0.7 -1.8h-13.2v-31.1h13.2v-2.5 -0.7 -1.8h-13.2v-31.1h13.2v-2.5 -0.7 -1.8h-13.2v-31.1h13.2v-2.5 -0.7 -1.8h-13.2v-35.2c0-10.6-8.7-19.2-19.2-19.2s-19.2 8.7-19.2 19.2v169.3c-11.5 6.6-19.2 19.1-19.2 33.3 0 21.2 17.3 38.5 38.5 38.5S452 328 452 306.8C452 292.6 444.3 280.1 432.8 273.5zM413.4 338.4c-17.4 0-31.5-14.1-31.5-31.5 0-11.3 6.1-21.7 15.8-27.4l3.5-2v-173.2c0-6.8 5.6-12.3 12.3-12.3s12.3 5.6 12.3 12.3v173.2h-0.1l3.5 2c9.8 5.7 15.8 16.1 15.8 27.4C445 324.2 430.9 338.4 413.4 338.4zM357.6 250.4c0.6-0.4 1.2-0.7 1.8-1.1 0.3-0.2 0.8-0.1 1.2 0 3.4 1 6.8 2 10.3 3 1.8 0.5 3.2-0.7 3-2.5 -0.1-1.2-0.8-1.9-2-2.2 -2.1-0.6-4.3-1.3-6.6-1.9 0.4-0.3 0.6-0.4 0.8-0.6 1.4-0.9 2.8-1.7 4.2-2.6 1-0.7 1.4-2 0.9-3.1 -0.4-1-1.2-1.6-2.3-1.4 -0.5 0.1-1.1 0.4-1.5 0.7 -1.4 0.9-2.8 1.7-4.4 2.8 0.7-2.7 1.3-5 1.8-7.4 0.4-1.6-0.3-2.9-1.6-3.2 -1.3-0.3-2.3 0.4-2.7 2.1 -0.9 3.6-1.8 7.3-2.7 10.9 -0.2 0.6-0.6 1.2-1.1 1.6 -1 0.6-2 1.3-3 1.9C355.4 248.3 357 249.3 357.6 250.4zM370.5 256.2c-3.3 1-6.6 1.9-9.9 2.9 -0.3 0.1-0.8 0.2-1.1 0 -2.6-1.6-5.2-3.2-7.9-4.9 1.7-1 3.3-2.1 4.8-3 -2.8-0.1-8.6-0.2-8.4-0.4 1.9-1.2 3.7-2.3 5.6-3.5 -3-1.8-6.6-3.5-6.5-5.2 0-0.6 0.3-1.3 0.7-1.7 2.3-2.6 4.6-5 6.9-7.6 0.3-0.3 0.6-0.7 0.9-1 0.7-1.1 0.5-2.6-0.4-3.3 -1-0.8-2.1-0.7-3.2 0.4 -0.7 0.7-1.3 1.5-2 2.2 -0.9 1-1.8 1.9-2.7 2.9 -0.2-0.7-0.2-1.3-0.2-1.9 0-1.5 0-3.1-0.1-4.6 -0.1-1.2-1-1.9-2-2 -1.1-0.1-2 0.7-2.3 1.9 -0.1 0.4-0.1 0.9-0.1 1.4 0 1.7 0 3.5 0 5.5 -0.5-0.5-0.8-0.8-1-1.1 -1.4-1.5-2.7-3-4-4.4 -0.7-0.8-1.6-1-2.6-0.5 -0.9 0.5-1.5 1.6-1.2 2.6 0.2 0.6 0.5 1.1 0.9 1.6 1.7 1.9 3.4 4 5.3 5.7 2.1 1.9 3 4 2.7 6.8 -0.2 2.1 0 4.2 0 6.5 -3.5-2.2-6.8-4.3-10.1-6.4 -0.3-0.2-0.5-0.7-0.6-1 -0.9-3.7-1.8-7.4-2.8-11.1 -0.4-1.6-1.5-2.4-2.8-2.1 -1.3 0.3-1.9 1.6-1.6 3.1 0.2 0.9 0.5 1.9 0.7 2.8 0.4 1.5 0.7 2.9 1.1 4.7 -1.7-1.1-3.1-2-4.5-2.8 -1.5-0.9-2.7-0.8-3.5 0.5 -0.8 1.3-0.4 2.7 1.1 3.6 1.3 0.8 2.7 1.7 4 2.5 0.2 0.1 0.3 0.3 0.6 0.5 -2.3 0.7-4.4 1.3-6.5 1.9 -1.6 0.5-2.3 1.7-1.8 3.2 0.4 1.4 1.5 1.9 3.2 1.5 3.3-1 6.6-1.9 9.9-2.9 0.4-0.1 0.9-0.2 1.2 0 2.6 1.6 5.2 3.2 7.9 4.9 -2.6 1.6-5 3.2-7.4 4.7 -0.4 0.3-1.2 0.3-1.7 0.2 -3.4-0.9-6.8-2-10.1-2.9 -1.4-0.4-2.5 0.2-2.9 1.5 -0.4 1.4 0.2 2.6 1.5 3.1 0.5 0.2 1 0.3 1.5 0.5 1.7 0.5 3.5 1 5.4 1.6 -1.7 1.1-3.3 2-4.8 3 -1.4 0.9-1.8 2.4-1 3.7 0.8 1.2 2 1.3 3.5 0.4 1.4-0.9 2.8-1.8 4.5-2.8 -0.1 0.6-0.2 0.9-0.2 1.2 -0.5 2.2-1.1 4.4-1.6 6.6 -0.3 1.2 0.5 2.5 1.7 2.8 1.1 0.3 2.2-0.4 2.6-1.7 0.1-0.3 0.1-0.5 0.2-0.8 0.9-3.6 1.8-7.2 2.7-10.8 0.1-0.5 0.5-1 0.9-1.3 2.9-1.9 5.8-3.6 8.7-5.5 0.3-0.2 0.6-0.4 1.1-0.6 0 3.2 0 6.2 0 9.2 0 0.8-0.2 1.4-0.7 1.9 -2.5 2.7-5 5.3-7.4 8 -1.1 1.3-1.1 2.8 0 3.8 1 0.9 2.2 0.7 3.4-0.6 1.5-1.6 3-3.3 4.7-5.1 0 2.3 0 4.2 0 6.2 0 1.5 0.9 2.6 2.2 2.6 1.3 0 2.3-1 2.3-2.6 0-1.6 0-3.3 0-4.9 0-0.3 0.1-0.6 0.1-1.1 1.8 1.9 3.3 3.6 4.9 5.4 0.7 0.7 1.5 1 2.4 0.7 1-0.4 1.6-1.2 1.4-2.2 -0.1-0.7-0.5-1.5-1-2.1 -2.4-2.7-4.8-5.3-7.2-7.9 -0.4-0.5-0.7-1.2-0.7-1.8 -0.1-2.6 0-5.3 0-7.9 0-0.4 0-0.7 0.1-1.2 0.4 0.2 0.7 0.4 1 0.6 2 1.2 3.9 2.6 6 3.7 2.6 1.3 4 3.2 4.4 6.1 0.4 2.8 1.3 5.6 2 8.4 0.3 1.3 1.4 2.1 2.5 1.9 1.2-0.2 2-1.3 1.9-2.6 0-0.3-0.1-0.6-0.2-0.9 -0.6-2.3-1.1-4.6-1.7-7.1 1.8 1.1 3.3 2.1 4.9 3.1 0.8 0.5 1.6 0.6 2.4 0.1 0.8-0.5 1.1-1.3 1.1-2.3 0-1-0.6-1.7-1.5-2.2 -1.5-0.9-3-1.9-4.7-3 2.3-0.7 4.4-1.3 6.4-1.9 1.7-0.5 2.5-1.7 2.1-3.2C373.4 256.2 372.2 255.7 370.5 256.2z"/></svg>