<svg version="1.1" id="Layer_1" xmlns="http://www.w3.org/2000/svg" xmlns:xlink="http://www.w3.org/1999/xlink" viewBox="0 0 768 430" enable-background="new 0 0 768 430" xml:space="preserve">
<g>
	<defs>
		<path id="XMLID_1_" d="M218.325,230.369c0,29.141,59.414-8.324,69.632,9.083c10.053,17.128-19.734,16.433-8.326,43.899
			c10.218,24.598,36.062,7.055,50.387,16.016c14.326,8.961,12.882,23.514,23.03,26.369c12.11,3.404,41.757-11.615,39.511,7.285
			c-1.016,8.623-13.196,17.277-6.432,26.613c7.791,10.756,36.344,17.258,53.961-46.766c3.086-11.215,19.841-1.135,29.684,2.252
			c7.658,2.635,10.934-12.213,22.223-17.396c13.189-6.055,33.242,7.953,38.662-9.652c4.318-14.027-7.312-21.752-4.663-30.076
			c3.396-10.676,16.459-15.514,12.11-26.701c-4.92-12.656-22.707-12.656-24.461-23.549c-2.611-16.232,18.594-18.31,20.374-32.894
			c1.815-14.872-4.823-30.45,14.304-33.037c32.211-4.356,3.406-48.061-12.866-23.084c-17.604,27.019-29.196,18.262-33.617,15.489
			c-11.417-7.163-4.71-26.933-17.524-33.131s-14.781,4.712-27.582,2.395s-3.397-29.029-24.59-35.462
			c-21.191-6.433-30.652,18.163-42.384,18.921c-11.732,0.758-20.351-9.499-30.067-5.639c-16.103,6.397-27.077,36.672-49.549-3.123
			C290.525,43.442,248.09,78.349,267.9,99.81c18.165,19.679,54.278,11.939,50.364,32.214c-3.061,15.847-37.882,9.58-43.174,31.742
			c-6.055,25.355,24.432,45.503,1.892,54.874C260.786,225.371,218.325,201.23,218.325,230.369z"/>
	</defs>
	<use xlink:href="#XMLID_1_"  overflow="visible" fill="#CFD8DC"/>
	<clipPath id="XMLID_3_">
		<use xlink:href="#XMLID_1_"  overflow="visible"/>
	</clipPath>
	<g clip-path="url(#XMLID_3_)">
		
			<rect x="440.454" y="4.881" transform="matrix(-0.7071 0.7071 -0.7071 -0.7071 807.0383 -281.7043)" fill="#F44336" width="42.816" height="42.816"/>
		
			<rect x="410.18" y="35.156" transform="matrix(-0.7071 0.7071 -0.7071 -0.7071 776.7553 -208.6256)" fill="#E91E63" width="42.814" height="42.816"/>
		
			<rect x="379.903" y="65.432" transform="matrix(-0.7071 0.7071 -0.7071 -0.7071 746.4891 -135.5211)" fill="#9C27B0" width="42.816" height="42.814"/>
		
			<rect x="349.63" y="95.706" transform="matrix(-0.7071 0.7071 -0.7071 -0.7071 716.212 -62.4382)" fill="#673AB7" width="42.814" height="42.816"/>
		
			<rect x="319.355" y="65.431" transform="matrix(0.7071 -0.7071 0.7071 0.7071 38.4025 266.3896)" fill="#3F51B5" width="42.814" height="42.815"/>
		
			<rect x="349.629" y="35.157" transform="matrix(0.7071 -0.7071 0.7071 0.7071 68.674 278.9254)" fill="#2196F3" width="42.816" height="42.815"/>
		
			<rect x="379.904" y="4.881" transform="matrix(0.7071 -0.7071 0.7071 0.7071 98.9586 291.4772)" fill="#03A9F4" width="42.814" height="42.816"/>
		
			<rect x="410.179" y="-25.393" transform="matrix(0.7071 -0.7071 0.7071 0.7071 129.2248 304.0082)" fill="#00BCD4" width="42.816" height="42.814"/>
		
			<rect x="289.08" y="35.156" transform="matrix(0.7071 -0.7071 0.7071 0.7071 50.9429 236.1149)" fill="#009688" width="42.815" height="42.815"/>
		
			<rect x="319.355" y="4.881" transform="matrix(0.7071 -0.7071 0.7071 0.7071 81.2195 248.6571)" fill="#4CAF50" width="42.815" height="42.815"/>
		
			<rect x="349.629" y="-25.393" transform="matrix(0.7071 -0.7071 0.7071 0.7071 111.4884 261.1914)" fill="#8BC34A" width="42.816" height="42.815"/>
		
			<rect x="379.904" y="-55.669" transform="matrix(0.7071 -0.7071 0.7071 0.7071 141.7748 273.7415)" fill="#CDDC39" width="42.814" height="42.816"/>
		
			<rect x="379.904" y="125.98" transform="matrix(0.7071 -0.7071 0.7071 0.7071 13.3265 326.9484)" fill="#FFEB3B" width="42.814" height="42.816"/>
		
			<rect x="410.179" y="95.706" transform="matrix(0.7071 -0.7071 0.7071 0.7071 43.5955 339.4766)" fill="#FFC107" width="42.816" height="42.814"/>
		
			<rect x="440.454" y="65.431" transform="matrix(0.7071 -0.7071 0.7071 0.7071 73.8674 352.0135)" fill="#FF9800" width="42.815" height="42.815"/>
		
			<rect x="470.729" y="35.156" transform="matrix(0.7071 -0.7071 0.7071 0.7071 104.1491 364.5632)" fill="#FF5722" width="42.815" height="42.816"/>
	</g>
	<g clip-path="url(#XMLID_3_)">
		
			<rect x="319.354" y="125.981" transform="matrix(-0.7071 0.7071 -0.7071 -0.7071 685.9363 10.6523)" fill="#F44336" width="42.815" height="42.815"/>
		
			<rect x="289.08" y="156.255" transform="matrix(-0.7071 0.7071 -0.7071 -0.7071 655.6617 83.7422)" fill="#E91E63" width="42.815" height="42.815"/>
		
			<rect x="258.805" y="186.53" transform="matrix(-0.7071 0.7071 -0.7071 -0.7071 625.3868 156.8323)" fill="#9C27B0" width="42.815" height="42.815"/>
		
			<rect x="228.53" y="216.805" transform="matrix(-0.7071 0.7071 -0.7071 -0.7071 595.1119 229.9223)" fill="#673AB7" width="42.815" height="42.815"/>
		
			<rect x="198.255" y="186.53" transform="matrix(0.7071 -0.7071 0.7071 0.7071 -82.6967 216.2285)" fill="#3F51B5" width="42.815" height="42.815"/>
		
			<rect x="228.53" y="156.255" transform="matrix(0.7071 -0.7071 0.7071 0.7071 -52.4218 228.7688)" fill="#2196F3" width="42.815" height="42.815"/>
		
			<rect x="258.805" y="125.981" transform="matrix(0.7071 -0.7071 0.7071 0.7071 -22.1469 241.3091)" fill="#03A9F4" width="42.815" height="42.815"/>
		
			<rect x="289.08" y="95.706" transform="matrix(0.7071 -0.7071 0.7071 0.7071 8.1281 253.8494)" fill="#00BCD4" width="42.815" height="42.815"/>
		
			<rect x="167.98" y="156.256" transform="matrix(0.7071 -0.7071 0.7071 0.7071 -70.1563 185.9538)" fill="#009688" width="42.815" height="42.815"/>
		
			<rect x="198.255" y="125.981" transform="matrix(0.7071 -0.7071 0.7071 0.7071 -39.8815 198.4939)" fill="#4CAF50" width="42.815" height="42.815"/>
		
			<rect x="228.53" y="95.706" transform="matrix(0.7071 -0.7071 0.7071 0.7071 -9.6066 211.0342)" fill="#8BC34A" width="42.815" height="42.815"/>
		
			<rect x="258.805" y="65.431" transform="matrix(0.7071 -0.7071 0.7071 0.7071 20.6669 223.5725)" fill="#CDDC39" width="42.815" height="42.815"/>
		
			<rect x="258.805" y="247.081" transform="matrix(0.7071 -0.7071 0.7071 0.7071 -107.7775 276.7816)" fill="#FFEB3B" width="42.816" height="42.816"/>
		
			<rect x="289.08" y="216.805" transform="matrix(0.7071 -0.7071 0.7071 0.7071 -77.5019 289.3218)" fill="#FFC107" width="42.816" height="42.816"/>
		
			<rect x="319.355" y="186.53" transform="matrix(0.7071 -0.7071 0.7071 0.7071 -47.2267 301.8619)" fill="#FF9800" width="42.815" height="42.815"/>
		
			<rect x="349.629" y="156.256" transform="matrix(0.7071 -0.7071 0.7071 0.7071 -16.9547 314.3931)" fill="#FF5722" width="42.816" height="42.815"/>
	</g>
	<g clip-path="url(#XMLID_3_)">
		
			<rect x="561.553" y="125.981" transform="matrix(-0.7071 0.7071 -0.7071 -0.7071 1099.3975 -160.6037)" fill="#F44336" width="42.816" height="42.815"/>
		
			<rect x="531.279" y="156.255" transform="matrix(-0.7071 0.7071 -0.7071 -0.7071 1069.1187 -87.5223)" fill="#E91E63" width="42.815" height="42.816"/>
		
			<rect x="501.004" y="186.531" transform="matrix(-0.7071 0.7071 -0.7071 -0.7071 1038.8441 -14.4323)" fill="#9C27B0" width="42.815" height="42.815"/>
		
			<rect x="470.728" y="216.805" transform="matrix(-0.7071 0.7071 -0.7071 -0.7071 1008.5725 58.6662)" fill="#673AB7" width="42.816" height="42.815"/>
		
			<rect x="440.454" y="186.53" transform="matrix(0.7071 -0.7071 0.7071 0.7071 -11.7598 387.4851)" fill="#3F51B5" width="42.816" height="42.816"/>
		
			<rect x="470.729" y="156.255" transform="matrix(0.7071 -0.7071 0.7071 0.7071 18.5184 400.033)" fill="#2196F3" width="42.815" height="42.816"/>
		
			<rect x="501.004" y="125.981" transform="matrix(0.7071 -0.7071 0.7071 0.7071 48.7936 412.5733)" fill="#03A9F4" width="42.815" height="42.815"/>
		
			<rect x="531.278" y="95.706" transform="matrix(0.7071 -0.7071 0.7071 0.7071 79.0639 425.1059)" fill="#00BCD4" width="42.816" height="42.815"/>
		
			<rect x="410.179" y="156.256" transform="matrix(0.7071 -0.7071 0.7071 0.7071 0.7806 357.2109)" fill="#009688" width="42.816" height="42.814"/>
		
			<rect x="440.454" y="125.98" transform="matrix(0.7071 -0.7071 0.7071 0.7071 31.0551 369.7508)" fill="#4CAF50" width="42.816" height="42.816"/>
		
			<rect x="470.729" y="95.706" transform="matrix(0.7071 -0.7071 0.7071 0.7071 61.3339 382.298)" fill="#8BC34A" width="42.815" height="42.816"/>
		
			<rect x="501.004" y="65.432" transform="matrix(0.7071 -0.7071 0.7071 0.7071 91.6063 394.835)" fill="#CDDC39" width="42.814" height="42.814"/>
		
			<rect x="501.004" y="247.081" transform="matrix(0.7071 -0.7071 0.7071 0.7071 -36.8363 448.0479)" fill="#FFEB3B" width="42.815" height="42.815"/>
		
			<rect x="531.278" y="216.805" transform="matrix(0.7071 -0.7071 0.7071 0.7071 -6.564 460.579)" fill="#FFC107" width="42.816" height="42.815"/>
		
			<rect x="561.553" y="186.53" transform="matrix(0.7071 -0.7071 0.7071 0.7071 23.713 473.1234)" fill="#FF9800" width="42.815" height="42.816"/>
		
			<rect x="591.828" y="156.256" transform="matrix(0.7071 -0.7071 0.7071 0.7071 53.9834 485.655)" fill="#FF5722" width="42.816" height="42.815"/>
	</g>
	<g clip-path="url(#XMLID_3_)">
		
			<rect x="440.453" y="247.08" transform="matrix(-0.7071 0.7071 -0.7071 -0.7071 978.2965 131.7529)" fill="#F44336" width="42.816" height="42.816"/>
		
			<rect x="410.18" y="277.356" transform="matrix(-0.7071 0.7071 -0.7071 -0.7071 948.0198 204.8268)" fill="#E91E63" width="42.814" height="42.816"/>
		
			<rect x="379.904" y="307.631" transform="matrix(-0.7071 0.7071 -0.7071 -0.7071 917.7476 277.9524)" fill="#9C27B0" width="42.815" height="42.813"/>
		
			<rect x="349.63" y="337.904" transform="matrix(-0.7071 0.7071 -0.7071 -0.7071 887.4725 351.0134)" fill="#673AB7" width="42.815" height="42.816"/>
		
			<rect x="319.354" y="307.629" transform="matrix(0.7071 -0.7071 0.7071 0.7071 -132.8574 337.3354)" fill="#3F51B5" width="42.815" height="42.816"/>
		
			<rect x="349.63" y="277.357" transform="matrix(0.7071 -0.7071 0.7071 0.7071 -102.5856 349.8498)" fill="#2196F3" width="42.815" height="42.814"/>
		
			<rect x="379.904" y="247.08" transform="matrix(0.7071 -0.7071 0.7071 0.7071 -72.3055 362.4236)" fill="#03A9F4" width="42.814" height="42.816"/>
		
			<rect x="410.179" y="216.806" transform="matrix(0.7071 -0.7071 0.7071 0.7071 -42.0331 374.949)" fill="#00BCD4" width="42.816" height="42.814"/>
		
			<rect x="289.08" y="277.357" transform="matrix(0.7071 -0.7071 0.7071 0.7071 -120.3184 307.0431)" fill="#009688" width="42.814" height="42.814"/>
		
			<rect x="319.354" y="247.081" transform="matrix(0.7071 -0.7071 0.7071 0.7071 -90.0422 319.6004)" fill="#4CAF50" width="42.815" height="42.816"/>
		
			<rect x="349.629" y="216.805" transform="matrix(0.7071 -0.7071 0.7071 0.7071 -59.7684 332.1305)" fill="#8BC34A" width="42.816" height="42.815"/>
		
			<rect x="379.904" y="186.53" transform="matrix(0.7071 -0.7071 0.7071 0.7071 -29.4897 344.684)" fill="#CDDC39" width="42.814" height="42.816"/>
		
			<rect x="379.905" y="368.18" transform="matrix(0.7071 -0.7071 0.7071 0.7071 -157.9388 397.8776)" fill="#FFEB3B" width="42.813" height="42.815"/>
		
			<rect x="410.179" y="337.905" transform="matrix(0.7071 -0.7071 0.7071 0.7071 -127.6635 410.4182)" fill="#FFC107" width="42.816" height="42.814"/>
		
			<rect x="440.453" y="307.629" transform="matrix(0.7071 -0.7071 0.7071 0.7071 -97.3883 422.958)" fill="#FF9800" width="42.816" height="42.816"/>
		
			<rect x="470.729" y="277.356" transform="matrix(0.7071 -0.7071 0.7071 0.7071 -67.1167 435.4897)" fill="#FF5722" width="42.814" height="42.814"/>
	</g>
</g>
</svg>
