<svg version="1.1" id="Layer_1" xmlns="http://www.w3.org/2000/svg" xmlns:xlink="http://www.w3.org/1999/xlink" viewBox="0 0 768 430" xml:space="preserve">
<path fill="#DDE4D0" d="M484.2,132C459.1,89.6,421.6,70.3,372.5,73.3c-7.4,0.4-13.1,2.3-13.2,11.5c0,2.2-2,4.6-3.6,6.4
	c-3.7,4.3-3.5,8,0.1,12.2c7,8.2,4.8,16.2-5.4,19.8c-5.2,1.9-7.3,4.9-6.1,10.5c2.3,10.6-4.1,16.8-14.9,14.6c-5.2-1-8.3,0.8-10.2,5.7
	c-4,10.8-11.5,13-20.1,5.7c-4.3-3.6-7.9-3.4-12.3,0.1c-2.5,2-6,3.3-9.2,3.9c-4.5,0.8-7.4,2.9-7.6,7.5c-0.4,9.9-1.7,19.899-0.6,29.7
	c7,60.5,60.2,105.399,119.8,101.6c62.3-3.9,109.3-53.4,109.3-121.2C498.5,167.9,494.3,149.1,484.2,132z M389.6,288
	c-53.7,2.7-99.899-36.3-105.6-89c-0.5-4.4-0.9-8.7-0.9-13.1c0-9,6.1-12.8,14.4-9.4c11.4,4.7,22.9,1.5,31.2-8.1
	c2-2.3,5.2-4.3,8.2-4.8c12.3-2.1,20.5-10.4,22.6-22.9c0.5-2.8,2.3-5.8,4.5-7.6c10.1-8.6,13.1-20,7.9-32.4
	c-2.9-6.9,1.2-13.1,8.8-13.5c48.1-2.6,94.899,36,101.8,84.1c0.8,5.5,1.2,11,1.8,16.5C484,240.7,441.8,285.4,389.6,288z"/>
<circle fill="#DDE4D0" cx="345.5" cy="211.5" r="12.5"/>
<circle fill="#DDE4D0" cx="387" cy="190" r="12"/>
<circle fill="#DDE4D0" cx="423" cy="157" r="11"/>
<circle fill="#DDE4D0" cx="429" cy="219" r="10"/>
<circle fill="#DDE4D0" cx="390" cy="262" r="11"/>
<circle fill="#DDE4D0" cx="403.5" cy="128.5" r="7.5"/>
<circle fill="#DDE4D0" cx="283" cy="113" r="11"/>
<circle fill="#DDE4D0" cx="316" cy="77" r="11"/>
<circle fill="#DDE4D0" cx="319" cy="125" r="10"/>
</svg>
