<svg version="1.1" xmlns="http://www.w3.org/2000/svg" x="0" y="0" width="768" height="430" viewBox="0 0 768 430" enable-background="new 0 0 768 430" xml:space="preserve"><path fill-rule="evenodd" clip-rule="evenodd" fill="#DDE4D0" d="M484.2 161c-25.1-42.4-62.6-61.7-111.7-58.7 -7.4 0.4-13.1 2.3-13.2 11.5 0 2.2-2 4.6-3.6 6.4 -3.7 4.3-3.5 8 0.1 12.2 7 8.2 4.8 16.2-5.4 19.8 -5.2 1.9-7.3 4.9-6.1 10.5 2.3 10.6-4.1 16.8-14.9 14.6 -5.2-1-8.3 0.8-10.2 5.7 -4 10.8-11.5 13-20.1 5.7 -4.3-3.6-7.9-3.4-12.3 0.1 -2.5 2-6 3.3-9.2 3.9 -4.5 0.8-7.4 2.9-7.6 7.5 -0.4 9.9-1.7 19.9-0.6 29.7 7 60.5 60.2 105.4 119.8 101.6 62.3-3.9 109.3-53.4 109.3-121.2C498.5 196.9 494.3 178.1 484.2 161zM389.6 317c-53.7 2.7-99.9-36.3-105.6-89 -0.5-4.4-0.9-8.7-0.9-13.1 0-9 6.1-12.8 14.4-9.4 11.4 4.7 22.9 1.5 31.2-8.1 2-2.3 5.2-4.3 8.2-4.8 12.3-2.1 20.5-10.4 22.6-22.9 0.5-2.8 2.3-5.8 4.5-7.6 10.1-8.6 13.1-20 7.9-32.4 -2.9-6.9 1.2-13.1 8.8-13.5 48.1-2.6 94.9 36 101.8 84.1 0.8 5.5 1.2 11 1.8 16.5C484 269.7 441.8 314.4 389.6 317z"/><circle fill-rule="evenodd" clip-rule="evenodd" fill="#DDE4D0" cx="345.5" cy="240.5" r="12.5"/><circle fill-rule="evenodd" clip-rule="evenodd" fill="#DDE4D0" cx="387" cy="219" r="12"/><circle fill-rule="evenodd" clip-rule="evenodd" fill="#DDE4D0" cx="423" cy="186" r="11"/><circle fill-rule="evenodd" clip-rule="evenodd" fill="#DDE4D0" cx="429" cy="248" r="10"/><circle fill-rule="evenodd" clip-rule="evenodd" fill="#DDE4D0" cx="390" cy="291" r="11"/><circle fill-rule="evenodd" clip-rule="evenodd" fill="#DDE4D0" cx="403.5" cy="157.5" r="7.5"/><circle fill-rule="evenodd" clip-rule="evenodd" fill="#DDE4D0" cx="283" cy="142" r="11"/><circle fill-rule="evenodd" clip-rule="evenodd" fill="#DDE4D0" cx="316" cy="106" r="11"/><circle fill-rule="evenodd" clip-rule="evenodd" fill="#DDE4D0" cx="319" cy="154" r="10"/></svg>