<svg version="1.1" id="Layer_1" xmlns="http://www.w3.org/2000/svg" xmlns:xlink="http://www.w3.org/1999/xlink" x="0px" y="0px"
	viewBox="0 0 768 430" enable-background="new 0 0 768 430" xml:space="preserve">
<g>
	<g>
		<path fill="#F1DCC2" d="M386.16,263.708c-0.658,11.763-11.787,20.773-24.854,20.126l-100.096-4.956
			c-13.069-0.645-23.126-10.701-22.467-22.465l9.399-167.632c0.66-11.762,11.786-20.773,24.853-20.127l100.099,4.955
			c13.065,0.646,23.126,10.707,22.468,22.465L386.16,263.708z"/>
		<g>
			<g>
				<path fill="#6E5433" d="M255.794,281.868c-0.537,9.56-9.222,16.901-19.397,16.399c-10.178-0.503-17.994-8.66-17.457-18.223
					c0.537-9.561,9.221-16.903,19.397-16.4C248.513,264.148,256.331,272.308,255.794,281.868z"/>
				<path fill="#6E5433" d="M292.648,283.692c-0.535,9.56-9.22,16.901-19.399,16.398c-10.176-0.503-17.992-8.663-17.455-18.223
					c0.537-9.561,9.222-16.902,19.4-16.399C285.37,265.972,293.185,274.13,292.648,283.692z"/>
				<path fill="#6E5433" d="M329.504,285.516c-0.538,9.56-9.222,16.902-19.397,16.398c-10.178-0.503-17.994-8.662-17.458-18.222
					c0.537-9.562,9.222-16.903,19.398-16.4C322.224,267.795,330.039,275.953,329.504,285.516z"/>
				<path fill="#6E5433" d="M366.357,287.34c-0.535,9.559-9.22,16.901-19.397,16.398c-10.178-0.503-17.994-8.663-17.456-18.223
					c0.535-9.562,9.22-16.903,19.396-16.398C359.077,269.619,366.895,277.776,366.357,287.34z"/>
				<path fill="#6E5433" d="M403.212,289.163c-0.536,9.56-9.222,16.901-19.398,16.398c-10.176-0.504-17.992-8.663-17.457-18.222
					c0.538-9.563,9.223-16.903,19.4-16.398C395.933,271.444,403.749,279.603,403.212,289.163z"/>
			</g>
			<g>
				<path fill="#A47E4D" d="M412.892,110.69c0.506-9.023-6.443-16.792-15.79-18.035l0.014-0.235
					c9.434-0.315,17.215-7.357,17.718-16.38c0.537-9.542-7.265-17.688-17.422-18.19c-9.209-0.455-17.192,5.523-19.005,13.752
					l-0.424-0.021c-0.884-8.363-8.155-15.094-17.361-15.551c-9.209-0.455-17.192,5.523-19.003,13.752l-0.424-0.021
					c-0.884-8.363-8.154-15.095-17.363-15.551c-9.206-0.456-17.191,5.52-19.004,13.751l-0.422-0.022
					c-0.885-8.363-8.155-15.095-17.362-15.552c-9.208-0.454-17.192,5.523-19.005,13.753l-0.423-0.022
					c-0.882-8.362-8.155-15.096-17.361-15.551c-10.16-0.501-18.829,6.827-19.363,16.372c-0.507,9.023,6.443,16.792,15.789,18.036
					l-0.014,0.235c-9.434,0.315-17.213,7.355-17.719,16.377c-0.506,9.023,6.445,16.792,15.791,18.038l-0.015,0.236
					c-9.432,0.315-17.213,7.354-17.718,16.378c-0.506,9.023,6.442,16.792,15.789,18.037l-0.013,0.236
					c-9.433,0.314-17.211,7.354-17.719,16.377c-0.506,9.025,6.443,16.792,15.789,18.038l-0.012,0.233
					c-9.434,0.314-17.213,7.354-17.72,16.379c-0.508,9.023,6.442,16.794,15.79,18.037l-0.015,0.235
					c-9.433,0.314-17.213,7.357-17.718,16.379c-0.506,9.025,6.443,16.793,15.789,18.036l-0.014,0.234
					c-9.432,0.316-17.212,7.354-17.719,16.381c-0.534,9.542,7.269,17.688,17.426,18.19c9.209,0.452,17.192-5.525,19.007-13.753
					l0.423,0.023c0.881,8.36,8.151,15.094,17.361,15.549c9.207,0.456,17.191-5.521,19.004-13.752l0.425,0.022
					c0.882,8.359,8.152,15.093,17.359,15.548c9.208,0.458,17.192-5.521,19.005-13.75l0.423,0.021
					c0.884,8.363,8.153,15.096,17.362,15.548c9.209,0.458,17.192-5.52,19.004-13.748l0.424,0.02
					c0.884,8.363,8.155,15.096,17.362,15.553c10.159,0.503,18.829-6.829,19.365-16.37c0.503-9.025-6.443-16.794-15.791-18.035
					l0.012-0.236c9.437-0.316,17.214-7.355,17.721-16.381c0.504-9.021-6.443-16.789-15.787-18.035l0.011-0.234
					c9.434-0.314,17.215-7.354,17.719-16.379c0.506-9.023-6.44-16.792-15.79-18.037l0.014-0.235
					c9.437-0.315,17.212-7.354,17.719-16.378c0.509-9.024-6.441-16.793-15.787-18.038l0.014-0.234
					c9.433-0.313,17.212-7.354,17.719-16.378c0.504-9.024-6.443-16.792-15.791-18.038l0.012-0.233
					C404.606,126.755,412.388,119.714,412.892,110.69z M256.888,262.607c-2-0.101-3.537-1.704-3.432-3.582
					c0.106-1.879,1.812-3.322,3.813-3.224c2,0.1,3.538,1.705,3.431,3.58C260.595,261.262,258.89,262.706,256.888,262.607z
					 M258.818,228.165c-2-0.099-3.535-1.7-3.43-3.58c0.105-1.881,1.812-3.322,3.812-3.224c2,0.098,3.536,1.703,3.432,3.582
					C262.525,226.821,260.82,228.264,258.818,228.165z M260.77,193.386c-2.002-0.1-3.538-1.704-3.432-3.582
					c0.105-1.879,1.813-3.321,3.812-3.223c2.001,0.098,3.538,1.703,3.433,3.582C264.477,192.042,262.77,193.484,260.77,193.386z
					 M262.706,158.838c-2-0.1-3.536-1.701-3.43-3.579c0.104-1.879,1.812-3.324,3.812-3.225c2,0.1,3.535,1.703,3.429,3.582
					C266.415,157.495,264.706,158.937,262.706,158.838z M264.653,124.136c-2.001-0.097-3.537-1.702-3.431-3.58
					c0.105-1.878,1.811-3.322,3.812-3.224c2.001,0.1,3.536,1.703,3.43,3.583C268.357,122.794,266.652,124.235,264.653,124.136z
					 M266.594,89.512c-2.001-0.098-3.536-1.701-3.433-3.58c0.106-1.879,1.812-3.322,3.814-3.224c1.999,0.1,3.537,1.704,3.43,3.582
					C270.299,88.169,268.594,89.612,266.594,89.512z M293.522,264.42c-2-0.1-3.538-1.703-3.432-3.584
					c0.106-1.874,1.812-3.318,3.813-3.22c2,0.099,3.537,1.702,3.431,3.58C297.229,263.077,295.523,264.519,293.522,264.42z
					 M295.453,229.978c-2-0.096-3.536-1.701-3.431-3.58c0.105-1.878,1.813-3.322,3.812-3.224c1.999,0.099,3.536,1.702,3.43,3.58
					C299.16,228.635,297.455,230.078,295.453,229.978z M297.403,195.197c-2-0.099-3.535-1.702-3.431-3.581
					c0.105-1.879,1.813-3.322,3.812-3.223c2,0.099,3.538,1.701,3.432,3.58C301.109,193.854,299.404,195.296,297.403,195.197z
					 M299.339,160.651c-1.998-0.097-3.536-1.701-3.43-3.581c0.106-1.879,1.812-3.322,3.812-3.223
					c2.001,0.099,3.536,1.703,3.433,3.582C303.049,159.308,301.342,160.751,299.339,160.651z M301.287,125.949
					c-2-0.099-3.537-1.703-3.432-3.582c0.106-1.878,1.813-3.321,3.813-3.222c2.001,0.099,3.536,1.7,3.431,3.582
					C304.995,124.606,303.286,126.05,301.287,125.949z M303.228,91.325c-2-0.097-3.536-1.702-3.429-3.581
					c0.103-1.878,1.812-3.322,3.812-3.222c1.998,0.1,3.535,1.701,3.429,3.58C306.936,89.981,305.228,91.424,303.228,91.325z
					 M330.379,266.244c-2-0.101-3.537-1.702-3.43-3.583c0.104-1.879,1.812-3.321,3.812-3.224c2,0.099,3.538,1.705,3.432,3.583
					C334.086,264.9,332.38,266.345,330.379,266.244z M332.311,231.804c-2-0.099-3.538-1.704-3.432-3.583
					c0.105-1.877,1.812-3.321,3.812-3.222c2,0.097,3.538,1.701,3.432,3.579C336.019,230.458,334.311,231.901,332.311,231.804z
					 M334.26,197.021c-2-0.099-3.535-1.703-3.432-3.58c0.105-1.88,1.813-3.323,3.816-3.224c1.997,0.098,3.533,1.701,3.429,3.581
					C337.968,195.678,336.261,197.121,334.26,197.021z M336.196,162.477c-1.998-0.099-3.535-1.704-3.429-3.583
					c0.106-1.878,1.812-3.322,3.812-3.224c2,0.1,3.535,1.703,3.432,3.582C339.905,161.132,338.199,162.575,336.196,162.477z
					 M338.143,127.773c-1.999-0.1-3.535-1.702-3.431-3.582c0.106-1.877,1.814-3.322,3.813-3.224c2,0.101,3.536,1.703,3.431,3.582
					C341.852,126.43,340.142,127.873,338.143,127.773z M340.084,93.151c-2-0.1-3.533-1.704-3.429-3.583
					c0.103-1.879,1.812-3.322,3.813-3.222c1.998,0.097,3.535,1.702,3.429,3.581C343.792,91.807,342.084,93.248,340.084,93.151z
					 M367.153,268.063c-2-0.101-3.538-1.702-3.432-3.58c0.105-1.88,1.812-3.324,3.812-3.224c2.001,0.098,3.539,1.701,3.433,3.58
					C370.86,266.718,369.153,268.162,367.153,268.063z M369.085,233.621c-2.002-0.099-3.538-1.7-3.432-3.58
					c0.106-1.88,1.812-3.322,3.813-3.224c1.999,0.1,3.536,1.703,3.431,3.58C372.791,232.277,371.083,233.722,369.085,233.621z
					 M371.034,198.842c-2-0.098-3.536-1.703-3.429-3.582c0.104-1.879,1.81-3.321,3.812-3.223c2,0.098,3.535,1.703,3.43,3.582
					C374.741,197.498,373.033,198.941,371.034,198.842z M372.971,164.296c-2-0.1-3.537-1.703-3.432-3.582
					c0.106-1.88,1.813-3.321,3.813-3.224c2,0.1,3.538,1.704,3.432,3.582C376.679,162.951,374.972,164.394,372.971,164.296z
					 M374.918,129.592c-2.001-0.097-3.537-1.701-3.432-3.58c0.104-1.879,1.812-3.323,3.812-3.223c2,0.1,3.538,1.702,3.432,3.58
					C378.624,128.247,376.917,129.691,374.918,129.592z M376.858,94.969c-2.001-0.1-3.536-1.705-3.429-3.58
					c0.106-1.881,1.812-3.322,3.812-3.225c2,0.1,3.536,1.705,3.43,3.582C380.565,93.625,378.859,95.068,376.858,94.969z"/>
			</g>
		</g>
	</g>
	<g>
		<path fill="#F8EEE0" d="M437.508,340.843c-5.699,10.491-19.77,14.468-31.423,8.879l-89.284-42.802
			c-11.657-5.587-16.482-18.621-10.786-29.112l81.224-149.522c5.698-10.49,19.768-14.465,31.423-8.878l89.284,42.803
			c11.656,5.587,16.483,18.622,10.785,29.111L437.508,340.843z"/>
		<g>
			<g>
				<path fill="#A47E4D" d="M310.562,307.576c-4.632,8.529-15.747,11.916-24.826,7.562c-9.076-4.354-12.682-14.792-8.049-23.32
					c4.633-8.524,15.748-11.912,24.825-7.561C311.59,288.609,315.196,299.052,310.562,307.576z"/>
				<path fill="#A47E4D" d="M343.435,323.337c-4.633,8.526-15.746,11.914-24.824,7.562c-9.078-4.354-12.681-14.794-8.049-23.323
					c4.634-8.524,15.745-11.912,24.822-7.561C344.464,304.367,348.067,314.81,343.435,323.337z"/>
				<path fill="#A47E4D" d="M376.307,339.095c-4.633,8.526-15.747,11.914-24.823,7.561c-9.079-4.35-12.682-14.792-8.049-23.318
					c4.633-8.527,15.746-11.914,24.823-7.562C377.337,320.126,380.94,330.568,376.307,339.095z"/>
				<path fill="#A47E4D" d="M409.178,354.853c-4.632,8.529-15.743,11.914-24.822,7.563c-9.076-4.353-12.682-14.795-8.049-23.321
					c4.633-8.526,15.746-11.914,24.822-7.561C410.209,335.886,413.81,346.326,409.178,354.853z"/>
				<path fill="#A47E4D" d="M442.053,370.613c-4.633,8.526-15.745,11.912-24.826,7.561c-9.076-4.352-12.681-14.792-8.049-23.321
					c4.632-8.526,15.75-11.911,24.826-7.558C443.082,351.645,446.685,362.087,442.053,370.613z"/>
			</g>
			<g>
				<path fill="#DBA866" d="M528.227,211.298c4.373-8.048,1.392-17.8-6.605-22.511l0.115-0.211
					c8.754,3.321,18.907-0.135,23.279-8.183c4.624-8.513,1.026-18.935-8.032-23.279c-8.217-3.938-18.097-1.531-23.317,5.291
					l-0.379-0.181c2.815-7.975-0.905-16.905-9.12-20.84c-8.212-3.94-18.093-1.533-23.315,5.29l-0.378-0.181
					c2.816-7.973-0.905-16.905-9.118-20.842c-8.214-3.938-18.098-1.528-23.319,5.293l-0.377-0.181
					c2.817-7.977-0.907-16.908-9.119-20.843c-8.213-3.936-18.099-1.529-23.318,5.293l-0.376-0.181
					c2.814-7.977-0.907-16.906-9.119-20.843c-9.062-4.343-20.156-0.964-24.781,7.547c-4.372,8.05-1.392,17.804,6.605,22.514
					l-0.114,0.209c-8.751-3.319-18.907,0.137-23.281,8.186c-4.372,8.049-1.391,17.799,6.605,22.513l-0.114,0.208
					c-8.751-3.318-18.909,0.135-23.281,8.184c-4.372,8.05-1.39,17.804,6.605,22.515l-0.112,0.208
					c-8.754-3.319-18.91,0.136-23.282,8.185c-4.374,8.048-1.39,17.802,6.606,22.512l-0.115,0.21
					c-8.751-3.318-18.907,0.136-23.281,8.185c-4.372,8.052-1.39,17.802,6.607,22.514l-0.113,0.21
					c-8.753-3.322-18.91,0.135-23.281,8.184c-4.375,8.049-1.392,17.801,6.604,22.511l-0.114,0.21
					c-8.752-3.318-18.909,0.137-23.282,8.186c-4.625,8.512-1.028,18.936,8.034,23.28c8.212,3.936,18.095,1.528,23.318-5.294
					l0.378,0.18c-2.818,7.978,0.904,16.907,9.118,20.843c8.214,3.937,18.095,1.531,23.318-5.294l0.377,0.183
					c-2.817,7.978,0.906,16.906,9.121,20.842c8.212,3.939,18.094,1.529,23.317-5.292l0.376,0.181
					c-2.818,7.976,0.907,16.907,9.12,20.844c8.212,3.936,18.097,1.527,23.316-5.293l0.38,0.181
					c-2.818,7.976,0.906,16.904,9.117,20.843c9.062,4.346,20.157,0.965,24.782-7.548c4.372-8.049,1.389-17.801-6.607-22.514
					l0.113-0.207c8.753,3.318,18.909-0.135,23.281-8.186c4.375-8.049,1.394-17.802-6.606-22.512l0.114-0.212
					c8.753,3.32,18.912-0.134,23.281-8.183c4.372-8.05,1.392-17.804-6.604-22.514l0.112-0.209
					c8.754,3.318,18.911-0.138,23.279-8.183c4.374-8.049,1.392-17.803-6.603-22.516l0.112-0.209
					c8.754,3.32,18.909-0.135,23.28-8.184c4.376-8.049,1.394-17.804-6.605-22.514l0.115-0.207
					C513.701,222.804,523.858,219.347,528.227,211.298z M319.907,290.4c-1.784-0.853-2.491-2.904-1.583-4.58
					c0.911-1.676,3.095-2.341,4.879-1.487c1.783,0.854,2.494,2.91,1.583,4.584C323.875,290.595,321.691,291.258,319.907,290.4z
					 M336.595,259.684c-1.786-0.855-2.494-2.907-1.583-4.582c0.91-1.677,3.096-2.344,4.879-1.488
					c1.783,0.854,2.491,2.909,1.582,4.584C340.563,259.872,338.378,260.538,336.595,259.684z M353.447,228.661
					c-1.786-0.856-2.493-2.909-1.583-4.586c0.91-1.673,3.094-2.339,4.878-1.484c1.786,0.854,2.494,2.909,1.583,4.583
					C357.416,228.85,355.23,229.515,353.447,228.661z M370.185,197.847c-1.784-0.856-2.491-2.907-1.582-4.584
					c0.91-1.674,3.093-2.341,4.878-1.485c1.784,0.857,2.491,2.908,1.583,4.583C374.154,198.037,371.969,198.704,370.185,197.847z
					 M386.997,166.894c-1.781-0.854-2.49-2.908-1.578-4.583c0.91-1.677,3.094-2.34,4.877-1.486c1.785,0.855,2.495,2.907,1.583,4.583
					C390.968,167.083,388.785,167.748,386.997,166.894z M403.776,136.011c-1.784-0.857-2.492-2.908-1.582-4.585
					c0.909-1.675,3.093-2.341,4.879-1.483c1.783,0.856,2.493,2.904,1.58,4.582C407.744,136.201,405.561,136.867,403.776,136.011z
					 M352.583,306.068c-1.785-0.854-2.493-2.908-1.583-4.585c0.913-1.674,3.095-2.341,4.879-1.484
					c1.785,0.855,2.493,2.905,1.582,4.582C356.551,306.258,354.366,306.925,352.583,306.068z M369.271,275.349
					c-1.785-0.856-2.492-2.909-1.583-4.585c0.911-1.674,3.095-2.34,4.879-1.484c1.783,0.855,2.491,2.905,1.582,4.582
					C373.24,275.538,371.054,276.205,369.271,275.349z M386.122,244.323c-1.784-0.855-2.492-2.905-1.582-4.582
					c0.913-1.677,3.099-2.342,4.88-1.488c1.784,0.857,2.492,2.91,1.582,4.586C390.092,244.517,387.906,245.179,386.122,244.323z
					 M402.86,213.511c-1.782-0.855-2.49-2.906-1.58-4.583s3.093-2.341,4.877-1.486c1.786,0.855,2.495,2.907,1.582,4.584
					C406.83,213.701,404.646,214.365,402.86,213.511z M419.677,182.558c-1.785-0.854-2.494-2.907-1.582-4.583
					c0.909-1.676,3.094-2.341,4.88-1.486c1.783,0.856,2.489,2.909,1.58,4.584C423.645,182.748,421.461,183.414,419.677,182.558z
					 M436.451,151.676c-1.78-0.857-2.491-2.908-1.581-4.583c0.911-1.677,3.096-2.341,4.88-1.485
					c1.782,0.853,2.492,2.906,1.582,4.582S438.237,152.529,436.451,151.676z M385.458,321.828c-1.785-0.856-2.491-2.907-1.581-4.582
					c0.91-1.677,3.093-2.345,4.876-1.488c1.786,0.855,2.496,2.908,1.583,4.584C389.429,322.017,387.243,322.683,385.458,321.828z
					 M402.147,291.106c-1.785-0.854-2.491-2.904-1.584-4.581c0.909-1.678,3.096-2.341,4.879-1.488
					c1.783,0.855,2.49,2.909,1.583,4.586C406.112,291.298,403.93,291.963,402.147,291.106z M419,260.083
					c-1.785-0.853-2.494-2.904-1.585-4.581c0.91-1.678,3.094-2.342,4.88-1.486c1.783,0.855,2.492,2.907,1.58,4.584
					C422.968,260.274,420.781,260.941,419,260.083z M435.735,229.27c-1.782-0.854-2.491-2.905-1.581-4.582
					c0.909-1.675,3.095-2.339,4.878-1.484c1.786,0.855,2.493,2.905,1.583,4.582S437.521,230.127,435.735,229.27z M452.551,198.319
					c-1.782-0.856-2.492-2.909-1.582-4.585c0.91-1.674,3.096-2.341,4.875-1.484c1.789,0.854,2.497,2.905,1.586,4.582
					C456.52,198.509,454.335,199.174,452.551,198.319z M469.329,167.435c-1.785-0.854-2.495-2.905-1.583-4.583
					c0.91-1.676,3.094-2.342,4.88-1.487c1.782,0.856,2.489,2.909,1.58,4.585C473.296,167.625,471.112,168.292,469.329,167.435z
					 M418.258,337.553c-1.781-0.855-2.495-2.91-1.582-4.587c0.911-1.672,3.096-2.34,4.882-1.483c1.78,0.854,2.49,2.908,1.577,4.581
					C422.228,337.741,420.042,338.407,418.258,337.553z M434.947,306.833c-1.786-0.856-2.495-2.907-1.583-4.585
					c0.91-1.674,3.097-2.342,4.877-1.484c1.785,0.854,2.495,2.906,1.583,4.583C438.913,307.021,436.73,307.688,434.947,306.833z
					 M451.8,275.811c-1.786-0.855-2.495-2.909-1.586-4.586c0.914-1.676,3.099-2.34,4.883-1.486c1.783,0.857,2.492,2.907,1.58,4.584
					C455.766,275.999,453.58,276.665,451.8,275.811z M468.538,244.996c-1.786-0.855-2.493-2.907-1.584-4.584
					c0.914-1.677,3.094-2.339,4.881-1.486c1.785,0.855,2.492,2.907,1.579,4.584C472.504,245.188,470.32,245.852,468.538,244.996z
					 M485.354,214.042c-1.786-0.854-2.494-2.905-1.583-4.582c0.912-1.675,3.092-2.343,4.878-1.486
					c1.786,0.855,2.492,2.907,1.583,4.584C489.318,214.231,487.135,214.897,485.354,214.042z M502.128,183.159
					c-1.783-0.854-2.492-2.906-1.583-4.583c0.913-1.677,3.096-2.34,4.88-1.486c1.782,0.855,2.492,2.907,1.581,4.583
					C506.096,183.35,503.911,184.013,502.128,183.159z"/>
			</g>
		</g>
	</g>
</g>
</svg>
