<svg xmlns="http://www.w3.org/2000/svg" viewBox="0 0 768 430"><style>.a{fill:#C6C6C6;}.b{fill:#FFF;}.c{fill:#3A3A3A;}.d{fill:#191919;}.e{fill:#2D2D2D;}.f{fill:#707070;}.g{fill:#0C0C0C;}.h{fill:#E2A05D;}.i{fill:#F9C07D;}.j{fill:#BF6E25;}.k{fill:#F28B8B;}.l{fill:#FCC5C5;}.m{fill:#282828;}.n{fill:#141414;}.o{fill:#B9B9BA;}.p{fill:#505051;}.q{fill:#2E44FF;}.r{fill:#03147A;}.s{fill:#010521;}.t{fill:#CC4040;}.u{fill:#CE4A4A;}.v{fill:#E27676;}.w{fill:#BC3131;}</style><path d="M467.1 299.6c0 0 13 3.6 12.1-9.8 -0.9-13.4-10.9-33.2 13.9-40.1 -21.1 12.4-5.1 35.3-7.5 52.1 -1.7 11.8-9.9 18.2-15.7 18.6C464.1 315.2 463.5 299.2 467.1 299.6z" class="a"/><path d="M467.1 299.6c0 0 13 3.6 12.1-9.8 -0.9-13.4-10.9-33.2 13.9-40.1 -22.9 10.1-8.3 34-10.7 50.8 -1.7 11.8-8.1 14.3-13.9 14.7C462.8 310 463.5 299.2 467.1 299.6z" class="b"/><path d="M469.7 321l-0.1-0.1c-4.6-4.2-6.1-15.2-4.6-19.7 0.6-1.7 1.4-2 2-2l0.2 0c0.1 0 1.6 0.4 3.6 0.4 1.9 0 4.5-0.4 6.2-2.4 1.4-1.6 2-4.1 1.8-7.3 -0.2-2.6-0.7-5.4-1.2-8.4 -2.3-12.5-4.9-26.6 15.4-32.2l3.5-1 -3.2 1.9c-13.9 8.1-11.4 21.1-8.9 33.6 1.2 6.2 2.4 12.5 1.6 18.2 -1.8 12.6-10.5 18.7-16.1 19L469.7 321zM467 300.1c-0.6 0-0.9 0.7-1.2 1.4 -1.3 3.8-0.2 14.4 4.2 18.5 5.2-0.4 13.4-6.4 15.1-18.1 0.8-5.4-0.4-11.4-1.6-17.8 -2.3-11.9-4.7-24.2 6.5-32.7 -15.9 6-13.6 18.7-11.5 30 0.6 3 1.1 5.9 1.3 8.5 0.2 3.5-0.4 6.2-2 8 -1.5 1.8-3.9 2.7-6.9 2.7 -2.1 0-3.6-0.4-3.7-0.5L467 300.1z" class="c"/><path d="M309.5 319.3c-18.4 6.6-53.6-2.7-67.8 6 -14.8 9 8.7 59.1 35.6 51.9 21.6-5.8 45.8-22.6 48.8-25.3C323.1 345.9 318 322.7 309.5 319.3z" class="a"/><path d="M321.5 339.2c-3-8.4-6.9-17.8-12-19.8 -18.4 6.6-53.6-2.7-67.8 6 -8 4.9-4.8 21.7 4.1 35.1C272.7 362.8 300 355.9 321.5 339.2z" class="b"/><path d="M271.9 378.4L271.9 378.4c-15.3 0-29.2-17-33.8-33.3 -2.7-9.6-1.4-17.1 3.4-20.1 5.9-3.6 15.3-4.1 22.9-4.1 3.9 0 8 0.1 12 0.3 4.1 0.1 8.3 0.3 12.3 0.3 9.4 0 15.8-0.8 20.7-2.6l0.2-0.1 0.2 0.1c6.4 2.5 10.7 15.5 13.9 25 1.1 3.3 2.1 6.2 2.9 7.8l0.2 0.3 -0.3 0.2c-3.3 3-27.4 19.6-49 25.4C275.6 378.2 273.8 378.4 271.9 378.4zM264.4 321.8c-7.5 0-16.7 0.4-22.4 3.9 -4.5 2.7-5.6 9.8-3 19 4.4 15.7 18.3 32.7 33 32.7 1.8 0 3.5-0.2 5.2-0.7 20.9-5.6 44.3-21.5 48.4-25 -0.8-1.7-1.7-4.4-2.8-7.6 -2.9-8.7-7.4-21.9-13.3-24.4 -5 1.8-11.4 2.5-20.8 2.5 -4 0-8.2-0.1-12.3-0.3C272.4 322 268.2 321.8 264.4 321.8z" class="c"/><path d="M277.3 377.2c3.6-1 7.3-2.2 10.9-3.7 -14.3-16.8-22.1-40.2-25.3-52.1 -8.5 0.1-16.2 0.9-21.2 4C226.9 334.4 250.4 384.5 277.3 377.2z" class="d"/><path d="M277.9 358.8c-8-13.9-12.7-28.7-15.1-37.4 -8.5 0.1-16.2 0.9-21.2 4 -8 4.9-4.8 21.7 4.1 35.1C256.6 361.4 267.4 360.9 277.9 358.8z" class="e"/><path d="M264.1 325.9c0 0-21.2 0.1-26.7 6.2 -0.7 4.8-0.1 7.5-0.1 7.5 3.4-2.1 24.3-8.3 28.9-7.3C265.4 330.1 264.1 325.9 264.1 325.9z" class="f"/><path d="M271.9 378.4L271.9 378.4c-15.3 0-29.2-17-33.8-33.3 -2.7-9.6-1.4-17.1 3.4-20.1 4.4-2.7 11-4 21.4-4.1l0.4 0 0.1 0.3c3.3 12.3 11 35.3 25.2 52l0.4 0.5 -0.6 0.2c-3.9 1.6-7.5 2.8-10.9 3.7C275.6 378.2 273.8 378.4 271.9 378.4zM262.5 321.8c-10 0.1-16.4 1.3-20.6 3.9 -4.5 2.7-5.6 9.8-3 19 4.4 15.7 18.3 32.7 33 32.7h0c1.8 0 3.5-0.2 5.2-0.7 3.2-0.9 6.6-2 10.3-3.5C273.5 356.7 265.9 334.1 262.5 321.8z" class="g"/><path d="M322.3 201c0 0-46 23.8-38.5 79.6 5.2 38.5 14.3 57.7 17.4 79.1 9.1 18.2 92.7 15.4 118.6 10 23.7-1.1 55.8 13.9 67.8 20.8 18.1 3.6 46.1-23.3 37.1-41.8 -6.3-6.9-40.1-18.8-47.6-20.7 -2.7-19-16.4-38-36.2-55.2 -16.3-14.2-9-40.1-32.3-57.9C382.4 194.8 344.8 197.2 322.3 201z" class="a"/><path d="M524.8 348.7c-6.3-6.9-40.1-18.8-47.6-20.7 -2.7-19-16.4-38-36.2-55.2 -15.9-13.9-9.4-38.9-30.8-56.7 -13.2 3-27.3 0.6-40.4 3.3 -14.5 3.6-26.2 14.5-40.7 19.9 -12.6 4.7-28 2.6-36.6-8.3 -6.9 12.3-11.5 28.7-8.7 49.4 5.2 38.5 22 48.9 25.1 70.3 9.1 18.2 90.3 6.3 116.3 0.9 23.7-1.1 52.8 17.3 64.9 24.2C508.2 379.6 533.8 367.2 524.8 348.7z" class="b"/><path d="M491.2 391.3h0c-1.2 0-2.4-0.1-3.5-0.3l-0.1-0.1c-12.5-7.2-42.2-20.8-65-20.8 -0.9 0-1.7 0-2.6 0.1 -11.7 2.4-33.1 4.1-53.3 4.1 -17.6 0-59.3-1.4-65.7-14.3l0-0.1c-1.3-8.9-3.6-17.5-6.3-27.3 -3.8-13.8-8.1-29.4-11.1-51.8 -3.9-29 6.8-49.2 16.5-61.1 10.5-12.8 22.1-18.9 22.2-19l0.1 0c10.1-1.7 19.9-2.6 29.2-2.6 23.8 0 43.1 5.6 57.6 16.7 12.9 9.9 16.4 21.9 19.8 33.6 2.7 9.3 5.2 18 12.5 24.3 21.1 18.4 33.6 37.4 36.3 55.2 7.8 2 41.1 13.7 47.6 20.7l0.1 0.1c3.2 6.5 2.1 14.5-3 22.6C515 382.6 501.7 391.3 491.2 391.3zM487.9 390.1c1 0.2 2.2 0.3 3.3 0.3h0c10.2 0 23.3-8.5 30.3-19.7 4.9-7.8 6-15.5 3-21.7 -6.3-6.7-39.7-18.6-47.4-20.5l-0.3-0.1 0-0.3c-2.5-17.6-15-36.6-36-54.9 -7.4-6.5-10-15.3-12.8-24.7 -3.4-11.5-6.8-23.5-19.5-33.1 -14.3-10.9-33.5-16.5-57-16.5 -9.2 0-18.9 0.9-28.9 2.5 -0.9 0.5-11.9 6.5-21.9 18.7 -9.6 11.7-20.2 31.7-16.3 60.4 3 22.3 7.3 37.9 11.1 51.7 2.7 9.9 5 18.4 6.3 27.3 4.5 8.7 28.1 13.8 64.9 13.8 20.1 0 41.5-1.6 53.2-4.1 0.9 0 1.8-0.1 2.7-0.1C445.4 369.2 475.3 382.8 487.9 390.1z" class="c"/><path d="M426.6 301.2c-5 15.4 12.9 3.5 9.9 18.2 -2.9 14.6 10.4 11.2 17.2 2 5.2-7 11.7 2.3 21.6-1.4 -4.6-15.3-15.9-30.4-31.3-44.4C439.6 279.9 430.3 289.7 426.6 301.2z" class="e"/><path d="M441.2 329.7L441.2 329.7c-1.7 0-3.1-0.6-4.1-1.8 -1.5-1.8-1.8-4.7-1-8.7 1.4-6.7-1.8-7.5-5.2-8.2 -2-0.5-4-0.9-5-2.7 -0.9-1.6-0.8-3.9 0.3-7.3 3.7-11.3 12.6-21 17.5-25.8l0.3-0.3 0.3 0.3c16.5 15 27.1 30 31.5 44.6l0.1 0.4 -0.4 0.1c-1.7 0.6-3.3 0.9-5 0.9 -2.6 0-5-0.7-7.1-1.3 -1.7-0.5-3.3-0.9-4.7-0.9 -1.9 0-3.3 0.8-4.6 2.5C450.6 326.4 445.2 329.7 441.2 329.7zM444 276.2c-5 4.8-13.5 14.2-17 25.1 -1 3.1-1.1 5.3-0.4 6.6 0.8 1.4 2.6 1.8 4.5 2.2 3.5 0.8 7.4 1.7 5.9 9.3 -0.7 3.7-0.5 6.4 0.8 8 0.8 0.9 1.9 1.4 3.4 1.4h0c3.8 0 8.9-3.2 12.2-7.7 1.5-2 3.2-2.9 5.3-2.9 1.6 0 3.2 0.5 5 1 2 0.6 4.3 1.3 6.8 1.3 1.5 0 2.9-0.2 4.3-0.7C470.4 305.5 460 290.8 444 276.2z"/><path d="M389.7 245.1c11.6 12.4 27.6 12.8 39.9 7.7 -3.9-12.6-6.5-26.8-21-37.8 -5.2-4-10.9-7.1-16.8-9.5C385.6 214.9 377.5 231.9 389.7 245.1z" class="d"/><path d="M410.2 216.2c-8.1 1.9-16.5 1.7-24.8 1.9 -3.1 8.6-3.6 18.6 4.3 27 11.6 12.4 27.6 12.8 39.9 7.7C426 240.7 423.3 227.1 410.2 216.2z" class="e"/><path d="M414.5 256.4h0c-6.8 0-16.7-1.9-25.1-11 -12.5-13.5-4-30.9 2.2-40.1l0.2-0.3 0.3 0.1c6.2 2.5 11.9 5.7 16.9 9.6 12.9 9.9 16.4 21.9 19.8 33.6 0.4 1.5 0.9 3 1.3 4.4l0.1 0.4 -0.4 0.2C424.9 255.3 419.7 256.4 414.5 256.4zM392.1 206.1c-6 9.1-14 25.8-2.1 38.7 8.2 8.8 17.8 10.7 24.5 10.7h0c4.9 0 9.9-1 14.6-2.9 -0.4-1.3-0.8-2.7-1.2-4 -3.4-11.5-6.8-23.5-19.5-33.1C403.6 211.7 398.1 208.6 392.1 206.1z"/><path d="M307.6 259.6c-2.7-11.1 4.7-7.7 6.1-19.9 0.8-7.4-6.4-15.7-12.3-21.2 -9.7 11.3-18.9 28.3-18.4 51.9C296.4 275.7 310 269.1 307.6 259.6z" class="d"/><path d="M292.6 231.2c-5.7 10.2-9.9 23.2-9.5 39.2 13.3 5.4 26.9-1.3 24.6-10.8 -2.5-10.4 3.9-8 5.8-17.9C305.4 241.1 297.7 237.7 292.6 231.2z" class="e"/><path d="M292.7 272.7h0c-3.3 0-6.6-0.7-9.8-1.9l-0.3-0.1 0-0.3c-0.4-19.8 5.8-37.3 18.5-52.2l0.3-0.4 0.3 0.3c6.1 5.7 13.3 14.1 12.5 21.6 -0.6 5.8-2.7 8.2-4.3 10.1 -1.9 2.2-3.2 3.9-1.8 9.6 0.7 2.8 0.1 5.4-1.7 7.7C303.7 270.6 298.6 272.7 292.7 272.7zM283.5 270c3 1.2 6.1 1.8 9.2 1.8h0c5.5 0 10.5-2 13-5.2 1.6-2 2.1-4.4 1.5-6.9 -1.5-6.2 0.1-8.1 2-10.4 1.6-1.9 3.5-4.2 4.1-9.7 0.8-7-5.9-14.9-11.8-20.5C289.2 233.7 283.1 250.8 283.5 270z"/><path d="M283.9 280.6c6.7 49 19.6 66.8 18.4 97.5 0.3 11.5 47.4 12.7 46.8 0.3 0 0 0-20.7-7.2-43.6 -7.2-22.7-13.6-18.8-21.7-56.8L283.9 280.6z" class="a"/><path d="M283.9 280.6c6.7 49 24.4 67 23.2 97.8 0.3 11.5 37.4 11.9 36.8-0.5 0 0 1.5-19.5-5.7-42.3 -7.2-22.7-9.9-21.1-18.1-59.1L283.9 280.6z" class="b"/><path d="M327 387.7c-7.7 0-15.7-1.3-20.6-3.9 -3-1.6-4.5-3.5-4.5-5.6 0.6-16.7-2.9-29.5-7.3-45.7 -3.8-13.8-8.1-29.4-11.1-51.8l0.9-0.1c3 22.3 7.3 37.9 11.1 51.7 4.5 16.3 8 29.1 7.3 45.9 0.1 1.8 1.4 3.4 4.1 4.8 9.5 5.1 30.9 5.1 38.8 0.1 2.1-1.3 3.1-2.9 3-4.6 0-0.2-0.1-20.9-7.2-43.5 -2.8-8.9-5.4-13.6-8.2-18.5 -3-5.3-6-10.7-9.3-21.7 -1.3-4.5-3.3-16.7-3.3-16.7 4.9 23 9.2 30.6 13.4 38 2.7 4.8 5.5 9.7 8.3 18.7 7.2 22.6 7.3 43.5 7.3 43.7 0.1 2.1-1 3.9-3.4 5.4C342.1 386.4 334.6 387.7 327 387.7z" class="c"/><path d="M302.3 378.1c0.3 11.5 47.4 12.7 46.8 0.3 0 0 0-7.3-1.5-18 -21 7.8-37.1 4.9-45.9 1.8C302.2 367.3 302.5 372.5 302.3 378.1z" class="d"/><path d="M343.6 361.9c-15.8 5.3-29.5 3.7-37.4 1.8 0.6 5 0.3 9.1 0 14.7 0.2 8.2 22.2 11 34.6 7.5C345 379 343.8 370 343.6 361.9z" class="e"/><path d="M338.7 363.2c0 0 2 17.2-2.7 23.4 -5.9 1-9.9 0.5-9.9 0.5 2.2-5.8 3.9-19.3 3.2-22.1C333.1 364.9 338.1 363.2 338.7 363.2z" class="f"/><path d="M327.1 387.7h0c-12.4 0-25.1-3.3-25.3-9.5 0.2-5.3 0-10.5-0.6-15.8l-0.1-0.7 0.7 0.2c6 2.1 12.5 3.1 19.3 3.1 8.5 0 17.4-1.7 26.3-5l0.5-0.2 0.1 0.6c1.5 10.6 1.5 18 1.5 18 0.1 1.4-0.5 2.8-1.6 4C344.7 385.7 337 387.7 327.1 387.7zM302.2 363c0.6 5.1 0.8 10.1 0.6 15.2 0.2 5.6 12.7 8.6 24.4 8.6h0c9.5 0 17.2-1.9 20.1-5 1-1 1.4-2.1 1.3-3.3 0-0.1 0-7.1-1.4-17.4 -8.8 3.2-17.6 4.8-26.1 4.8C314.4 365.9 308 364.9 302.2 363z" class="g"/><path d="M423.2 278.1c-6.3 41.2-29.8 46.8-27.4 100.9 -0.3 11.5-47.4 12.7-46.8 0.3 0 0 0-20.7 7.2-43.6 7.2-22.7 14.5-26 22.6-64L423.2 278.1z" class="a"/><path d="M422.8 276.5c-6.3 41.2-35.5 47.3-33 101.4 -0.3 11.5-41.3 13.8-40.7 1.4 0 0 0-20.7 7.2-43.6 7.2-22.7 14.5-26 22.6-64L422.8 276.5z" class="b"/><path d="M371.1 388.6c-7.7 0-15.1-1.3-19.1-3.8 -2.4-1.5-3.5-3.3-3.4-5.4 0-0.2 0.1-21 7.3-43.7 2.7-8.5 5.3-14.2 8.1-20.2 4.6-9.8 9.4-20 14.4-43.8 0 0-0.9 10.8-4.1 19.9 -3.3 10.9-6.4 17.6-9.5 24.3 -2.8 6-5.4 11.6-8.1 20.1 -7.1 22.5-7.2 43.2-7.2 43.4 -0.1 1.8 0.9 3.4 3 4.7 7.9 5 29.3 5 38.8-0.1 2.6-1.4 4-3 4.1-4.9 -1.4-32 6-46.8 13.9-62.5 5.3-10.6 10.9-21.6 13.5-38.5 0 0 0 7.1-2.9 16.3 -2.8 8.7-6.3 15.7-9.8 22.5 -7.9 15.6-15.3 30.3-13.8 62.1 -0.1 2.2-1.6 4.1-4.5 5.7C386.8 387.3 378.8 388.6 371.1 388.6z" class="c"/><path d="M395.8 379.1c-0.3-5.9-0.2-11.2 0.1-16.1 -18.1 4.9-38 0.6-45.3-1.3 -1.5 10.6-1.5 17.8-1.5 17.8C348.4 391.7 395.5 390.5 395.8 379.1z" class="d"/><path d="M389.7 377.9c-0.3-5.9-0.2-8.8 0.1-13.7 -18.1 4.9-32-0.7-39.3-2.6 -1.5 10.6-1.5 17.8-1.5 17.8C348.4 391.7 389.4 389.4 389.7 377.9z" class="e"/><path d="M353.3 362.3c0 0-2.5 17.7 2.3 23.9 5.9 1 10 1.7 10 1.7 -2.2-5.8-3.6-21-2.9-23.8C359 364 353.9 362.3 353.3 362.3z" class="f"/><path d="M371 388.6h0c-9.9 0-17.6-2-20.8-5.3 -1.1-1.2-1.7-2.5-1.6-4 0 0 0-7.3 1.5-17.8l0.1-0.5 0.5 0.1c5.1 1.3 15.3 3.6 26.8 3.6 6.6 0 12.8-0.8 18.3-2.2l0.6-0.2 0 0.6c-0.3 5-0.3 10.4-0.1 16.1C396.1 385.3 383.4 388.6 371 388.6zM350.9 362.2c-1.4 10.1-1.4 17.1-1.4 17.2 -0.1 1.2 0.4 2.4 1.3 3.4 2.9 3.1 10.6 5 20.1 5 11.7 0 24.2-3 24.4-8.7 -0.2-5.4-0.2-10.7 0-15.5 -5.4 1.4-11.5 2.1-17.9 2.1C366.2 365.7 356.1 363.5 350.9 362.2z" class="g"/><path d="M524.8 348.7c-2.9-3.2-11.6-7.4-20.9-11.3 -7.5 3.3-16.1 8.8-23 18 -7 9.3-9.9 18.5-10.7 26.4 7.4 3.2 13.6 6.4 17.6 8.7C505.8 394.1 533.8 367.2 524.8 348.7z" class="d"/><path d="M518.7 375.3c6.7-8.2 10.1-18.2 6.1-26.5 -2.9-3.2-11.6-7.4-20.9-11.3 -7.5 3.3-16.1 8.8-23 18 -2.9 3.9-5.1 7.7-6.8 11.5C487.9 372.6 503.8 378 518.7 375.3z" class="e"/><path d="M499.8 339.4c0 0 12.6 5.4 14.8 7.9 -3.8 0.2-10.9 4.4-10.9 4.4 -1-2-9.3-7.5-10.4-8.2C494.7 342 499.8 339.4 499.8 339.4z" class="f"/><path d="M491.2 391.3h0c-1.2 0-2.4-0.1-3.5-0.3l-0.1-0.1c-4.8-2.7-11.2-5.9-17.5-8.7l-0.3-0.1 0-0.3c0.9-9.4 4.6-18.3 10.8-26.6 5.9-7.8 13.7-13.9 23.2-18.1l0.2-0.1 0.2 0.1c7.8 3.2 17.8 7.8 21.1 11.4l0.1 0.1c3.2 6.5 2.1 14.5-3 22.6C515 382.6 501.7 391.3 491.2 391.3zM487.9 390.1c1 0.2 2.2 0.3 3.3 0.3h0c10.2 0 23.3-8.5 30.3-19.7 4.9-7.8 6-15.5 3-21.7 -2.5-2.7-9.6-6.5-20.5-11 -9.3 4.2-16.9 10.1-22.7 17.7 -6.1 8-9.6 16.7-10.6 25.8C476.9 384.3 483.2 387.4 487.9 390.1z" class="g"/><path d="M524.8 348.7c-0.5-0.6-1.2-1.2-2.1-1.8 -8-0.9-17.9 2.4-26.1 9.7 -11.1 9.8-15.6 23.4-11.4 32.5 0.9 0.5 1.8 1 2.6 1.4C505.8 394.1 533.8 367.2 524.8 348.7z" fill="#161616"/><path d="M491.2 391.3h0c-1.2 0-2.4-0.1-3.5-0.3l-0.1-0.1c-0.8-0.4-1.6-0.9-2.6-1.4l-0.1-0.1 -0.1-0.1c-4.4-9.4 0.5-23.3 11.5-33 7.2-6.3 15.9-9.9 23.7-9.9 0.9 0 1.8 0.1 2.7 0.2l0.1 0 0.1 0.1c0.9 0.7 1.7 1.3 2.2 1.9l0.1 0.1c3.2 6.5 2.1 14.5-3 22.6C515 382.6 501.7 391.3 491.2 391.3zM487.9 390.1c1 0.2 2.2 0.3 3.3 0.3h0c10.2 0 23.3-8.5 30.3-19.7 4.9-7.8 6-15.5 3-21.7 -0.4-0.5-1.1-1-1.9-1.6 -0.8-0.1-1.6-0.1-2.5-0.1 -7.7 0-16.1 3.5-23.1 9.7 -10.7 9.4-15.5 22.7-11.4 31.8C486.4 389.2 487.2 389.7 487.9 390.1z" class="g"/><path d="M483.6 256.6c0 0 3.6-25.4 30.3-27.1 17.4-1.1 24.6 3.9 34.1-5.4 -0.2 12.4-13.1 20.8-19 21.9 4.5 2 11.3 0.5 13.6-0.9C537.4 251.6 513.2 274.3 483.6 256.6z" fill="#131313"/><path d="M486.6 255.9c0 0 0.7-24.7 27.4-26.4 17.4-1.1 24.6 3.9 34.1-5.4 -0.2 12.4-18.9 19.5-24.7 20.7 4.5 2 13 3.6 19.3 0.4C537.4 251.6 510.6 266 486.6 255.9z" class="d"/><path d="M506.2 263.7c-7.7 0-15.4-2.2-22.8-6.7l-0.3-0.2 0-0.3c0-0.3 4-25.8 30.7-27.5 1.8-0.1 3.6-0.2 5.5-0.2 3.2 0 6 0.2 8.5 0.3 2 0.1 4 0.2 5.7 0.2 5.2 0 9.4-0.9 14.1-5.7l0.8-0.8 0 1.1c-0.2 11.4-11.1 19.9-17.9 22 1.1 0.3 2.3 0.4 3.7 0.4 3.3 0 6.7-0.9 8.1-1.8l2.1-1.3 -1.5 1.9C538 251.7 523.8 263.7 506.2 263.7zM484.1 256.4c7.2 4.2 14.6 6.4 22.1 6.4 16 0 29.1-10 34.9-16.5 -1.8 0.6-4.3 1.1-6.8 1.1 -2.1 0-3.9-0.3-5.4-1l-1.3-0.6 1.4-0.3c5.1-1 17.6-8.4 18.6-20.4 -4.7 4.3-8.8 5.2-14 5.2 -1.8 0-3.7-0.1-5.8-0.2 -2.5-0.1-5.3-0.3-8.4-0.3 -1.9 0-3.6 0.1-5.5 0.2C489.5 231.5 484.6 253.6 484.1 256.4z"/><path d="M315.9 55.6c0 0-19.4-5.9-34.8-21.7 -11.7-12.1-16.1 1.6-13.8 14.5 2.3 12.9 12.4 27.5 25.5 30.4C304.6 75.1 312.4 61.7 315.9 55.6z" class="h"/><path d="M315.9 55.6c0 0-19.4-5.9-34.8-21.7 -11.7-12.1-13 2.1-8.9 14.6 4.2 13 15.1 21.9 28.2 24.8C312.1 69.7 312.4 61.7 315.9 55.6z" class="i"/><path d="M292.8 79.2l-0.1 0c-13.8-3.1-23.6-18.2-25.9-30.8 -1.3-7.4-0.4-14.5 2.3-17.7 1.1-1.3 2.4-2 4-2 2.4 0 5.2 1.6 8.3 4.8 15.1 15.6 34.4 21.5 34.6 21.6l0.5 0.2 -0.3 0.5c-3 5.4-11 19.6-23.3 23.4L292.8 79.2zM273.1 29.6c-1.3 0-2.4 0.6-3.3 1.6 -2.5 3-3.4 9.8-2.1 17 2.2 12.5 12.1 27.1 25 30 11.5-3.6 19.3-16.9 22.4-22.5 -3.2-1.1-20.6-7.4-34.4-21.7C277.8 31.2 275.3 29.6 273.1 29.6z" class="j"/><path d="M377.8 54.2c0 0 18.2-9 30.7-27.2 9.6-13.9 16.1-1.1 16 12 -0.1 13.1-7.7 29.2-20.1 34.2C392.2 71.6 382.2 59.7 377.8 54.2z" class="h"/><path d="M377.8 54.2c0 0 18.2-9 30.7-27.2 9.6-13.9 11.6-1.3 11.5 11.8 -0.1 13.1-14 26.3-26.5 31.4C381.3 68.6 382.2 59.7 377.8 54.2z" class="i"/><path d="M404.5 73.7l-0.1 0c-12.8-1.7-23-14.4-26.9-19.2l-0.4-0.4 0.5-0.2c0.2-0.1 18.2-9.2 30.6-27 2.8-4.1 5.6-6.2 8.2-6.2 1.4 0 2.7 0.6 3.9 1.8 2.9 3 4.8 9.5 4.7 16.7 -0.1 12.8-7.3 29.3-20.4 34.6L404.5 73.7zM378.5 54.4c4 5 13.8 16.8 25.8 18.5 12.2-5.1 19.6-21.1 19.7-33.8 0.1-6.9-1.7-13.2-4.5-16 -1-1-2.1-1.5-3.2-1.5 -2.3 0-4.9 2-7.5 5.8C397.6 43.7 381.5 52.7 378.5 54.4z" class="j"/><path d="M282 106.2c0 0-14.2-26.5-25.9-30.1 -11.8-3.6-26.2 9-34.7 5.3 3.6 6.5 3.9 30.6 20.2 39.1 16.3 8.4 37.4-0.9 40.4-3.6C282.3 112 282 106.2 282 106.2z" class="a"/><path d="M282 106.2c0 0-14.2-26.5-25.9-30.1 -11.8-3.6-26.2 9-34.7 5.3 7.8 6.3 9.3 27.3 25.6 35.7 16.3 8.4 32.5 0.1 35.6-2.6C282.9 109.6 282 106.2 282 106.2z" class="b"/><path d="M256.9 124.3L256.9 124.3c-5.8 0-11-1.2-15.5-3.5 -12-6.2-15.5-20.9-17.8-30.7 -0.9-3.7-1.6-6.8-2.6-8.6l-0.7-1.2 1.2 0.6c1 0.4 2.1 0.7 3.5 0.7 3.4 0 7.4-1.5 11.6-3 4.9-1.8 9.9-3.6 14.8-3.6 1.7 0 3.3 0.2 4.8 0.7 11.8 3.6 25.6 29.3 26.2 30.4l0.1 0.2c0 0.1 0.3 5.8 0 10.6l0 0.2 -0.1 0.1C280.1 119.1 268.9 124.3 256.9 124.3zM222.3 82.1c0.8 1.9 1.4 4.5 2.2 7.8 2.3 9.6 5.7 24 17.3 30.1 4.4 2.3 9.4 3.4 15 3.4 11.6 0 22.3-4.8 24.7-6.8 0.3-4.4 0-9.4 0-10.2 -0.9-1.7-14.5-26.4-25.6-29.8 -1.4-0.4-2.9-0.6-4.5-0.6 -4.7 0-9.7 1.8-14.5 3.6 -4.3 1.6-8.4 3.1-11.9 3.1C224 82.5 223.1 82.4 222.3 82.1z" class="c"/><path d="M235.6 88.1c0 0 13.9-5.1 22 2 8.1 7.1 10 21 18.4 23.4C257.9 119.2 238.6 114.4 235.6 88.1z" class="k"/><path d="M257 96.3c-4-6.4-13-5.7-20.7-3.6 4.3 20.4 19.8 25.4 35.5 21.9C265.1 110.5 261.9 102.6 257 96.3z" class="l"/><path d="M262.9 116.1c-9.2 0-25-3.6-27.8-28l0-0.4 0.3-0.1c0.2-0.1 5-1.8 10.6-1.8 4.9 0 8.9 1.3 11.8 3.9 3.6 3.2 6 7.6 8.2 11.8 2.8 5.2 5.4 10.2 10 11.5l1.4 0.4 -1.4 0.5C271.5 115.3 267.1 116.1 262.9 116.1zM236.1 88.4c2.8 23.3 18 26.8 26.8 26.8 3.7 0 7.6-0.6 11.7-1.7 -4.1-1.9-6.6-6.5-9.2-11.4 -2.2-4.2-4.5-8.5-8-11.6 -2.8-2.4-6.6-3.7-11.3-3.7C241.4 86.7 237.2 88 236.1 88.4z" class="c"/><path d="M344.2 39.4c-27.6 1.4-59.8 18-67.7 50.7 -7.9 32.6-7.4 54.7-16.9 65.1 0.9 18.1 9.6 42.1 22.6 46.6 13 4.5 17.1 28.5 37.1 28.6 22.3 0.1 18.5-7.8 29.5-13.5 29.7-15.4 53.7-0.1 73-15.1 23-17.9 29.9-45.5 8.4-73C432.4 97.1 405.3 36.2 344.2 39.4z" class="a"/><path d="M344.2 39.4c-27.6 1.4-59.8 18-67.7 50.7 -7.9 32.6-7.4 54.7-16.9 65.1 0.9 18.1 11.7 38.7 24.6 43.3 13 4.5 16.7 27.1 36.6 27.1 17 0 21.4-13.2 32.3-18.9 29.7-15.4 37.8-0.7 63.1-11.6 22.1-9.5 31.5-40.8 10.1-68.2C428.5 95.3 405.3 36.2 344.2 39.4z" class="b"/><path d="M344.9 39.6c-27.6 1.4-23.1 67.5-13.7 94.3 8.7 24.7 30.9 33.7 43.4 33.8 31.1 0.2 66.6-18.1 56.3-38.7C433.1 97.3 405.9 36.4 344.9 39.6z" class="m"/><ellipse cx="360.6" cy="118.9" rx="18.3" ry="27.8" class="n"/><ellipse cx="296.5" cy="117.8" rx="18.3" ry="27.8" class="a"/><path d="M319.8 230.9l-0.5 0c-12-0.1-18.5-8.8-24.2-16.4 -4-5.4-7.8-10.4-13-12.2 -12.9-4.5-22-27.9-22.9-47l0-0.2 0.1-0.1c6-6.6 8-18.2 10.7-34.2 1.5-9 3.2-19.1 6-30.7 8-33 40.9-49.6 68.1-51 23.7-1.2 44.9 7.3 60.9 24.5 19.2 20.5 26.7 48.1 25.6 65.2 9.8 12.7 14.2 26.2 12.6 39.1 -1.6 12.9-8.9 24.8-21.2 34.3 -9 7-18.6 7.5-31.2 7.5h0l-3 0c-13.2 0-25.2 0.6-38.9 7.7 -3.6 1.9-5.6 4-7.5 6C337.8 227.3 334.5 230.9 319.8 230.9zM260.1 155.3c1 18.8 10.2 41.8 22.3 46 5.4 1.9 9.3 7.1 13.4 12.6 5.9 7.9 12 16 23.5 16.1l0.5 0c14.2 0 17.4-3.4 21.1-7.3 2-2.1 4-4.2 7.7-6.2 15-7.8 29-7.8 39.3-7.8l3 0c12.4 0 21.8-0.5 30.6-7.3 12.1-9.4 19.3-21 20.9-33.7 1.6-12.7-2.7-26.1-12.5-38.6l-0.1-0.1 0-0.2c1.1-16.9-6.3-44.4-25.4-64.7 -15.9-17-36.8-25.4-60.2-24.2 -26.9 1.4-59.4 17.7-67.3 50.3 -2.8 11.6-4.5 21.7-6 30.7C268.2 136.9 266.2 148.5 260.1 155.3z" class="c"/><ellipse cx="360.6" cy="121.6" rx="15.5" ry="24.7" class="o"/><path d="M376.1 121.6c0 20.7-31.1 19.5-31 0 0.1-13.7 6.9-24.7 15.5-24.7C369.1 96.8 376.1 107.9 376.1 121.6z" class="b"/><path d="M360.6 146.8c-8.8 0-15.9-11.3-15.9-25.2 0-13.9 7.2-25.2 15.9-25.2 8.8 0 15.9 11.3 15.9 25.2C376.5 135.5 369.4 146.8 360.6 146.8zM360.6 97.3c-8.3 0-15 10.9-15 24.3 0 13.4 6.7 24.3 15 24.3 8.3 0 15-10.9 15-24.3C375.6 108.2 368.9 97.3 360.6 97.3z" class="p"/><ellipse cx="361.1" cy="123.9" rx="9" ry="12.7" class="q"/><path d="M361.1 137.1c-5.2 0-9.5-5.9-9.5-13.1s4.3-13.1 9.5-13.1 9.5 5.9 9.5 13.1S366.4 137.1 361.1 137.1zM361.1 111.7c-4.7 0-8.6 5.5-8.6 12.2s3.8 12.2 8.6 12.2 8.6-5.5 8.6-12.2S365.9 111.7 361.1 111.7z" class="r"/><ellipse cx="361.4" cy="124.1" rx="5.3" ry="7.1" class="s"/><ellipse transform="matrix(0.997 0.0777 -0.0777 0.997 10.3415 -22.6226)" cx="295.9" cy="121.6" rx="15.5" ry="24.7" class="o"/><path d="M311.3 122.8c-1.1 13.6-31.9 11.2-30.9-2.4 1.1-13.6 8.8-24.1 17.4-23.5C306.3 97.6 312.4 109.2 311.3 122.8z" class="b"/><path d="M294.7 146.7c-0.3 0-0.5 0-0.8 0 -4.3-0.3-8.1-3.3-10.7-8.3 -2.6-5-3.7-11.4-3.2-18 1.1-13.8 9-24.6 17.9-23.9 4.3 0.3 8.1 3.3 10.7 8.3 2.6 5 3.7 11.4 3.2 18C310.7 136.2 303.2 146.7 294.7 146.7zM297 97.3c-8 0-15.1 10.1-16.1 23.1 -0.5 6.5 0.6 12.7 3.1 17.6 2.5 4.7 6 7.5 10 7.8 8.3 0.6 15.8-9.7 16.9-23 0.5-6.5-0.6-12.7-3.1-17.6 -2.5-4.7-6-7.5-10-7.8C297.5 97.3 297.3 97.3 297 97.3z" class="p"/><ellipse transform="matrix(0.997 0.0777 -0.0777 0.997 10.53 -22.6472)" cx="296.2" cy="124" rx="9" ry="12.7" class="q"/><path d="M295.8 137.1c-0.2 0-0.4 0-0.5 0 -2.6-0.2-4.8-1.8-6.4-4.4 -1.6-2.6-2.3-5.9-2-9.4 0.6-7.2 5.2-12.8 10.5-12.4 2.6 0.2 4.8 1.8 6.4 4.4 1.6 2.6 2.3 5.9 2 9.4C305.2 131.6 300.8 137.1 295.8 137.1zM296.7 111.8c-4.6 0-8.5 5.1-9 11.5 -0.3 3.3 0.4 6.4 1.9 8.9 1.4 2.4 3.5 3.8 5.7 4 4.7 0.4 9-4.8 9.5-11.5 0.3-3.3-0.4-6.4-1.9-8.9 -1.4-2.4-3.5-3.8-5.7-4C297 111.8 296.9 111.8 296.7 111.8z" class="r"/><ellipse transform="matrix(0.997 0.0777 -0.0777 0.997 10.5436 -22.6579)" cx="296.5" cy="124.2" rx="5.3" ry="7.1" class="s"/><path d="M361.1 74.9c0 0 10.2 7.2 12.5 17.6 -5-7.9-14.5-14.7-18.8-15.4C355.1 75.8 358.6 72.8 361.1 74.9z"/><path d="M296.7 74.9c0 0-10.2 7.2-12.4 17.6 5-7.9 14.5-14.7 18.8-15.4C302.8 75.8 299.2 72.8 296.7 74.9z"/><path d="M289 196.8c8 4.1 16.9 21.5 25.3 22.8 13 2 32.1-7.5 38.4-22.8C348.9 185 289.2 190.8 289 196.8z" fill="#8A1000"/><path d="M302.1 204.5c-1.1 0-2.4 0.4-3.7 1.1 5.3 6.2 10.7 13.1 15.9 13.9 10.1 1.5 23.8-3.9 32.4-13.4C332.4 210.3 316.6 204.5 302.1 204.5z" fill="#B91000"/><path d="M317.9 220.3L317.9 220.3c-1.2 0-2.5-0.1-3.6-0.3 -4.9-0.7-9.8-6.6-14.6-12.3 -3.6-4.3-7.4-8.8-10.8-10.5l-0.3-0.1 0-0.3c0.1-4.4 22.9-7.3 37.8-7.3 9.1 0 24.7 0.9 26.8 7.1l0.1 0.2 -0.1 0.2C347.2 211.3 330.2 220.3 317.9 220.3zM289.5 196.5c3.5 1.9 7.1 6.1 10.8 10.6 4.7 5.6 9.5 11.3 14.1 12 1.1 0.2 2.3 0.3 3.5 0.3 12 0 28.5-8.6 34.4-22.6 -1.5-4.1-10.9-6.4-25.8-6.4C308.4 190.4 290.7 193.8 289.5 196.5z" fill="#5B1000"/><ellipse cx="298.3" cy="117.1" rx="2.5" ry="2.8" class="b"/><ellipse cx="363.8" cy="118.1" rx="2.5" ry="2.8" class="b"/><path d="M405.1 102.7c0 0 8.2-7.1 16.9-22.6 8.8-15.4 31.7-27.7 61.4-18.8 -2.9 14.8-9.2 37.8-24 47.9s-35.2 5.7-42.9 9.8L405.1 102.7z" class="n"/><path d="M405.1 102.7c0 0 8.2-7.1 16.9-22.6 8.8-15.4 33.3-26.9 59.2-19.4 -2.9 14.8-9.7 35.3-24.5 45.4 -14.8 10.1-32.8 7.3-41.5 14.6L405.1 102.7z" class="m"/><path d="M416.7 119.4c0 0 3-3.2 13.2-3.1 9-0.6 20.2-1.3 29.3-7.5 10.9-7.4 18.9-23.3 23.7-47.1 -29.4-8.7-51.9 3.6-60.5 18.7 -8.7 15.3-17.6 22-17.6 22 0.1-0.1 8.2-7.3 16.8-22.5 8.8-15.5 31.9-28 61.9-19l0.4 0.1 -0.1 0.4c-4.8 24.4-13 40.6-24.2 48.2 -9.2 6.3-20.6 7-29.7 7.6C424.4 117.6 419.6 118 416.7 119.4z" class="c"/><path d="M419.1 104.9c0 0 18.2-36.9 52.1-35.7 -1.3 8.3-6 22.1-17.2 29.2C444.7 104.2 432.5 101.5 419.1 104.9z" class="k"/><path d="M423 104c11.8-2.1 22.6-0.4 30.9-5.7 10.9-6.9 14.4-17.4 16.4-25.2C450.7 74.7 433.6 86.6 423 104z" class="l"/><path d="M418.3 105.6l0.5-0.9c0.2-0.4 18.7-37.2 52.5-36l0.5 0 -0.1 0.5c-1.5 9.9-6.9 22.8-17.5 29.5 -5.6 3.5-12.3 4-19.4 4.5 -5 0.3-10.2 0.7-15.6 2.1L418.3 105.6zM470.7 69.6c-29.9-0.7-47.6 28.9-50.7 34.6 5.1-1.2 10-1.5 14.7-1.9 7-0.5 13.6-1 19-4.4C463.9 91.5 469.1 79.2 470.7 69.6z" class="c"/><path d="M410.4 112.7c0.1 0 6.9-4.3 8.8-8.6l0.8 0.4C418 109 410.4 112.7 410.4 112.7z" class="c"/><path d="M468.2 66.6l0-1c3.4-0.1 6.4 1 6.4 1C474.5 66.7 471.6 66.5 468.2 66.6z" class="c"/><path d="M475.7 61.6c0 0-20-2.9-30.5 2.1 -10.5 5-19.2 11.4-24.2 24.1C432.9 65.9 457.7 60.9 475.7 61.6z" fill="#878787"/><path d="M306.3 200c0 0 24.7 17.5 56.4 0 30.8-17 17.8-52.5-20.8-61.8 -38.6-9.3-82.2-0.3-89.2 31.1C246.6 196.1 284.9 216 306.3 200z" fill="#E07070"/><path d="M298.9 191.9c0 0 28.6 18.1 58 4.4 31.9-14.9 23.6-48.8-15-58.2 -38.6-9.3-82.2-0.3-89.2 31.1C248.6 189.5 277.5 207.9 298.9 191.9z" fill="#F99B9B"/><path d="M334 208.2c-15.2 0-25.9-6.5-27.7-7.7 -5 3.7-11.3 5.6-18.1 5.6h0c-11.5 0-23.5-5.6-30.5-14.4 -5.5-6.8-7.4-14.6-5.6-22.7 4.8-21.5 28.1-34.9 60.7-34.9 9.7 0 19.5 1.2 29.1 3.5 21.1 5.1 36 18.3 38.1 33.8 1.5 11.5-4.7 22-17.1 28.9C353.5 205.6 343.7 208.2 334 208.2zM306.3 199.4l0.3 0.2c0.1 0.1 11.1 7.7 27.4 7.7 9.6 0 19.2-2.6 28.5-7.7 12.1-6.7 18.2-16.9 16.7-28 -2-15-16.7-28-37.4-33 -9.6-2.3-19.3-3.5-28.9-3.5 -25.2 0-54.1 9-59.8 34.2 -2.2 9.8 1.7 17.3 5.4 21.9 6.8 8.5 18.5 14 29.8 14 6.7 0 12.9-1.9 17.8-5.6L306.3 199.4z" class="t"/><path d="M307 201c-14.4-11.1-16.7-24.8-16.7-24.8 0 0.1 3.2 13.2 17.2 24L307 201z" class="t"/><path d="M280.8 160.8c-2.5-2.5-5.3-3.7-8.1-3.7 -4.7 0.1-8.2 3.6-8.3 3.7 0 0 3.2-4.5 8.3-4.6l0.1 0C278.1 156.2 280.8 160.8 280.8 160.8z" class="t"/><path d="M323.3 173.8c0 0 0-7.4 6.8-12.4 6.3-4.4 13.3-3.6 13.3-3.6C325.1 159.2 323.4 173.2 323.3 173.8z" class="t"/><ellipse transform="matrix(0.72 0.694 -0.694 0.72 216.3276 -185.691)" cx="338.3" cy="175.2" rx="6.2" ry="11.5" class="u"/><path d="M346.2 167c-0.2-0.2-0.4-0.3-0.6-0.4 -3.3 7-8.8 13.2-15.8 16.5 0.1 0.2 0.3 0.3 0.4 0.5 2.5 2.4 8 0.6 12.4-4C347.1 174.9 348.7 169.3 346.2 167z" class="v"/><path d="M333.2 185c-1.3 0-2.5-0.4-3.3-1.2 -2.7-2.6-1.1-8.4 3.5-13.2 3.1-3.2 6.8-5.2 9.8-5.2 1.3 0 2.5 0.4 3.3 1.2 2.7 2.6 1.1 8.4-3.5 13.2C340 183 336.2 185 333.2 185zM343.3 166.4c-2.7 0-6.2 1.9-9.1 4.9 -4.2 4.4-5.8 9.7-3.5 11.9 0.6 0.6 1.5 0.9 2.6 0.9 2.7 0 6.2-1.9 9.1-4.9 4.2-4.4 5.8-9.7 3.5-11.9C345.3 166.7 344.4 166.4 343.3 166.4z" class="w"/><ellipse transform="matrix(0.9813 -0.1925 0.1925 0.9813 -28.519 55.5032)" cx="271.4" cy="174.5" rx="5.7" ry="10.6" class="u"/><path d="M267.7 165c-2 1.8-2.9 6-1.9 10.7 1.1 5.8 4.6 9.9 7.7 9.3 0.6-0.1 1.2-0.5 1.7-0.9C269.7 179.3 266.6 172.3 267.7 165z" class="v"/><path d="M272.8 185.5c-3.2 0-6.4-4.2-7.5-9.7 -1.2-6.1 0.5-11.4 3.9-12 0.2 0 0.5-0.1 0.7-0.1 3.2 0 6.4 4.2 7.5 9.7 1.2 6.1-0.5 11.4-3.9 12C273.3 185.4 273.1 185.5 272.8 185.5zM270 164.5c-0.2 0-0.4 0-0.5 0.1 -2.9 0.6-4.3 5.5-3.2 11 1.1 5.4 4.3 9.5 7.1 9 2.8-0.6 4.3-5.6 3.2-11C275.6 168.5 272.7 164.5 270 164.5z" class="w"/><path d="M393.5 54c0 0-7.5-20.6-34.2-23.7 -27.6-3.3-44.3 12.1-55.4 30.3 3.9 2 9 1.5 11.9 0 -8.1 10.6-5.4 22.6-4.5 26.5 2.5-2.3 6.6-6.1 11.5-8.8 0 1.6 1.1 13.6-0.9 16.2 3.2 0.3 13.1-9.2 16.3-19.5 0.7 2.6 2.9 7.4 4.7 8.9C349 61.9 368.4 46.3 393.5 54z" fill="#A0A0A0"/><path d="M393.5 54c0 0-7.5-20.6-34.2-23.7 -27.6-3.3-44.3 12.1-55.4 30.3 3.9 2 13.9-3 16.8-4.6 -8.1 10.6-8.9 21.7-8 25.6 2.5-2.3 7.8-5.6 12.8-8.3 0 1.6 1.7 14.1-0.3 16.7 3.2 0.3 8.9-11.9 12.1-22.2 0.7 2.6 3.2 9.4 5 11C348.3 56.8 368.4 46.3 393.5 54z" class="b"/><path d="M322.2 94.8l-0.2 0 -0.8-0.1 0.5-0.6c1.6-2 1.1-10.9 0.9-14.3 0-0.3 0-0.6 0-0.9 -4.3 2.4-7.8 5.7-10.2 7.9l-1.2 1.1 -0.2-0.7c-2.3-9.9-1.1-18.5 3.6-25.5 -1.4 0.5-3.1 0.8-4.7 0.8 -2.3 0-4.4-0.5-6.1-1.4l-0.4-0.2 0.3-0.4c12.7-20.8 28.6-31 48.5-31 2.4 0 4.9 0.2 7.4 0.4 26.7 3.2 34.5 23.8 34.6 24l0.3 0.9 -0.9-0.3c-4.3-1.3-8.5-2-12.6-2 -17.5 0-32.1 12.4-37.3 31.5l-0.2 0.7 -0.5-0.5c-1.6-1.4-3.5-5.2-4.5-7.8C334.8 85.9 325.8 94.8 322.2 94.8zM323.4 77.4v0.8c0 0.3 0 0.8 0.1 1.6 0.3 5.5 0.5 11.4-0.6 14.1 3.6-1.1 12.2-9.8 15-19l0.5-1.5 0.4 1.5c0.6 2.2 2.4 6.3 4.1 8.2 5.5-19.1 20.4-31.4 38-31.4 3.9 0 7.9 0.6 11.9 1.7 -1.8-3.9-10.5-19.8-33.5-22.6 -2.5-0.3-4.9-0.4-7.3-0.4 -19.4 0-35 9.8-47.5 30.1 1.5 0.7 3.3 1.1 5.3 1.1 2.2 0 4.3-0.5 5.8-1.3l1.8-1 -1.3 1.6c-5.2 6.8-6.7 15.4-4.6 25.3l0 0c2.5-2.3 6.4-5.8 11-8.3L323.4 77.4z" class="c"/></svg>