<svg version="1.1" xmlns="http://www.w3.org/2000/svg" xmlns:xlink="http://www.w3.org/1999/xlink" viewBox="0 0 768 430" style="enable-background:new 0 0 768 430;" xml:space="preserve"><g id="cow"> <g id="cow_1_">  <g id="layer1_14_" transform="translate(-11.72 -320.55)"> <path id="path2170" style="fill:#DDE4D0;" d="M385.17,630.085c1.537-0.784,3.816-2.287,5.069-3.337  c1.255-1.051,2.826-1.916,3.491-1.916s2.998-1.707,5.182-3.794c5.186-4.954,6.347-8.151,1.592-16.59  c-0.914-1.629-4.039-4.937-4.524-6.269c-1.128-3.098,0.235-7.45,0.224-15.916c-0.013-14.652,1.218-23.498,3.769-27.14  c1.007-1.429,1.391-3.774,0.948-5.815c-1.312-6.087-0.073-6.326,35.765-6.789c17.961-0.234,35.986-0.896,40.05-1.47l7.392-1.032  l6.272,6.319c3.453,3.479,6.868,7.9,7.599,9.833c1.338,3.546,2.069,4.102,8.423,6.439c2.685,0.987,3.313,1.782,2.614,3.283  c-0.5,1.096-1.453,5.2-2.112,9.125c-1.063,6.36-1.915,7.854-7.852,13.804c-3.655,3.675-7.337,7.97-8.163,9.553  c-0.835,1.579-3.712,4.72-6.41,6.972c-4.332,3.615-4.799,4.508-4.044,7.678c1.296,5.486,6.005,7.779,15.678,7.637  c4.485-0.062,10.071-0.922,12.422-1.904c2.347-0.981,5.563-2.136,7.147-2.562c1.584-0.422,4.815-2.346,7.194-4.277  c3.832-3.116,4.297-4.11,4.146-8.816c-0.103-3.039-2.666-4.142,0.453-9.906c2.738-5.043,1.844-11.507,3.502-16.685  c2.764-8.65,8.576-19.762,10.668-20.406c2.49-0.765,5.523,5.118,6.197,12.029c0.805,8.211-2.585,24.985-5.931,29.331  c-1.317,1.715-2.398,3.627-2.398,4.244c0,0.623-2.242,3.521-4.971,6.444c-2.732,2.925-4.972,6.349-4.972,7.604  c0,3.062,5.433,7.933,8.852,7.933c5.95,0,18.448-2.606,19.82-4.138c0.797-0.892,2.151-1.617,3.012-1.617  c4.266,0,12.784-15.5,10.705-19.465c-0.434-0.837-2.338-2.425-0.804-5.544c2.963-6.056,0.404-16.645,1.628-17.776  c0.68-0.625-12.497-32.652-10.098-54.727c0.755-6.977,5.354-16.656,6.992-27.671c2.698-18.163,2.581-37.536,2.581-36.541  c0,3.485,3.546-0.401,5.925,11.958c1.889,9.78,2.673,32.727,3.054,56.621c0.022,1.216-6.576,49.775-6.541,48.757  c0.395-11.279,1.771,11.131,3.068,11.131c1.288,0,5.91,8.302,5.91,9.252c0,4.044,6.628-2.392,10.927-8.832  c2.71-4.063,2.76-6.775,0.371-21.24c-0.262-1.582-0.659-7.017-0.891-12.078c-0.268-5.982-1.444-11.827-3.359-16.684  c-2.655-6.764,1.639-9.249,1.736-25.887c0.062-10.13,0.544-26.361,1.068-36.085c1.005-18.518-0.457-34.779-3.787-42.16  c-2.257-5.006-13.174-13.923-18.215-14.878c-4.866-0.927-18.37-2.498-34.498-4.028c-6.488-0.616-15.849-1.734-20.791-2.484  c-8.143-1.235-9.73-1.137-16.769,1.022c-20.021,6.133-22.978,6.438-61.195,6.369c-21.799-0.034-37.99-0.555-40.993-1.308  c-10.703-2.692-40.455-1.085-49.692,2.68c-8.629,3.521-25.829,7.438-39.668,9.043c-16.068,1.864-24.931,2.595-19.338-3.125  c2.828-2.896-2.361-5.37-8.656-5.37c-4.006,0-7.014,0.845-10.245,2.879c-5.667,3.563-6.094,3.563-12.918-0.142  c-5.514-2.989-5.662-3.01-19.935-1.905c-11.048,0.854-16.857,0.737-25.1-0.483c-5.896-0.881-11.975-0.477-13.381-0.984  c-9.874-3.56-11.689-0.286,1.013,7.554c2.896,1.789,15.697,4.575,16.279,4.575s4.049,1.406,4.468,1.909  c0.954,1.136-0.236,0.337-1.885,0.521c-4.328,0.467-16.26-0.401-18.51-1.812c-9.273-5.804-12.364-4.565-5.557,4.499  c6.3,3.592,13.283,6.809,22.999,8.129l-0.446,8.495c-0.425,8.102-4.077,20.277-8.421,28.051  c-2.729,4.891-6.423,19.255-5.666,22.033c2.182,7.97,12.388,13.562,25.156,13.785c7.967,0.134,10.488-1.287,15.667-8.838  c3.737-5.439,9.657-8.867,15.34-8.873c2.406,0,6.426-1.028,8.948-2.28l4.583-2.274l6.582,2.984  c3.615,1.638,8.329,3.826,10.465,4.861c2.138,1.033,7.274,5.765,11.409,10.513c4.14,4.748,10.135,11.477,13.328,14.958  c7.241,7.883,16.696,21.749,16.709,24.494c0.006,1.135,1.212,3.571,2.685,5.408c2.599,3.26,2.616,3.521,0.652,9.452  c-1.109,3.35-2.38,8.939-2.812,12.42c-0.904,7.126-2.222,9.479-8.896,15.879c-8.484,8.143-16.468,17.299-16.468,18.903  c0,0.876,0.978,3.698,3.338,5.82l5.245,3.472l9.947-0.713c5.468-0.389,10.94-1.163,12.162-1.709  c1.23-0.559,4.454-1.994,7.167-3.208c5.947-2.651,9.056-7.267,6.223-9.232c-2.444-1.694-2.326-2.695,0.661-5.646  c2.171-2.137,2.559-4.322,2.914-16.185c0.428-14.671,1.587-18.277,7.503-23.398c1.767-1.53,3.387-2.569,3.598-2.3  c6.216,7.9,9.946,20.018,9.329,30.332c-0.611,10.18-3.342,15.592-11.809,23.391c-5.766,5.309-6.586,6.64-6.586,10.674  c0,3.885,0.496,4.783,3.186,5.725C363.316,632.185,381.803,631.808,385.17,630.085L385.17,630.085z"/>  </g> </g> <g id="Layer_1_4_"> </g></g><g id="Layer_1"></g></svg>