<svg version="1.1" xmlns="http://www.w3.org/2000/svg" xmlns:xlink="http://www.w3.org/1999/xlink" x="0px" y="0px"  viewBox="0 0 768 430" enable-background="new 0 0 768 430" xml:space="preserve">
<g id="Layer_1">
	<g>
		<g>
			<g>
				<linearGradient id="SVGID_1_" gradientUnits="userSpaceOnUse" x1="322.4229" y1="276.5742" x2="459.0688" y2="276.5742">
					<stop  offset="0" style="stop-color:#FFD383"/>
					<stop  offset="0.5937" style="stop-color:#FFB872"/>
					<stop  offset="1" style="stop-color:#FFA364"/>
				</linearGradient>
				<path fill="url(#SVGID_1_)" d="M410.984,278.482c0.083-3.354,0.207-5.87,0.207-5.87h-21.997h-0.576h-21.996
					c0,0,0.177,3.595,0.248,7.925c4.726-0.783,36.133-5.979,36.714-5.979C403.913,274.558,407.57,276.565,410.984,278.482z"/>
				<linearGradient id="SVGID_2_" gradientUnits="userSpaceOnUse" x1="322.4224" y1="316.6045" x2="459.0684" y2="316.6045">
					<stop  offset="0" style="stop-color:#FFD383"/>
					<stop  offset="0.5937" style="stop-color:#FFB872"/>
					<stop  offset="1" style="stop-color:#FFA364"/>
				</linearGradient>
				<path fill="url(#SVGID_2_)" d="M463.939,324.285c-2.422-8.074-11.841-9.689-11.841-9.689s-25.413-7.531-29.335-9.688
					c-0.758-0.417-1.588-0.93-2.433-1.484c-0.014,1.231-0.185,1.99-0.599,1.961c-16.087-1.163-48.093-21.299-52.855-24.347
					c0.076,5.325-0.018,11.573-0.793,13.643c-1.439,3.837-7.112,8.069-11.034,10.228c-3.923,2.156-29.335,9.688-29.335,9.688
					s-9.42,1.615-11.842,9.689s-9.693,26.471-8.881,27.451c0.411,0.496,42.521,0.488,83.914,0.361
					c41.393,0.127,83.503,0.135,83.915-0.361C473.633,350.756,466.362,332.359,463.939,324.285z"/>
				<path opacity="0.8" fill="#EF843C" d="M366.256,280.639c0,0,0.23,0.149,0.621,0.399c-0.003-0.166-0.004-0.337-0.007-0.501
					C366.486,280.601,366.256,280.639,366.256,280.639z"/>
				<linearGradient id="SVGID_3_" gradientUnits="userSpaceOnUse" x1="322.4214" y1="289.9717" x2="459.0697" y2="289.9717">
					<stop  offset="0" style="stop-color:#FFD383"/>
					<stop  offset="0.5937" style="stop-color:#FFB872"/>
					<stop  offset="1" style="stop-color:#FFA364"/>
				</linearGradient>
				<path fill="url(#SVGID_3_)" d="M420.331,303.424c-3.53-2.312-7.44-5.648-8.602-8.743c-0.905-2.412-0.885-10.515-0.745-16.198
					c-3.414-1.917-7.071-3.925-7.4-3.925c-0.581,0-31.988,5.196-36.714,5.979c0.003,0.164,0.004,0.335,0.007,0.501
					c4.763,3.048,36.769,23.184,52.855,24.347C420.146,305.414,420.317,304.655,420.331,303.424z"/>
				<path opacity="0.5" fill="#EF843C" d="M420.331,303.424c-3.53-2.312-7.44-5.648-8.602-8.743
					c-0.905-2.412-0.885-10.515-0.745-16.198c-3.414-1.917-7.071-3.925-7.4-3.925c-0.581,0-31.988,5.196-36.714,5.979
					c0.003,0.164,0.004,0.335,0.007,0.501c4.763,3.048,36.769,23.184,52.855,24.347
					C420.146,305.414,420.317,304.655,420.331,303.424z"/>
			</g>
			<g>
				<g>
					<path fill="#FFBC64" d="M456.174,185.204c0,0,8.463-21.101,16.412-10.092s-4.359,35.78-6.411,37.003
						c-2.052,1.223-8.205-4.587-8.205-4.587L456.174,185.204z"/>
					<path fill="#FFBC64" d="M322.827,187.563c0,0-8.462-21.101-16.411-10.092c-7.949,11.009,4.359,35.78,6.41,37.003
						c2.052,1.223,8.206-4.587,8.206-4.587L322.827,187.563z"/>
				</g>
				<linearGradient id="SVGID_4_" gradientUnits="userSpaceOnUse" x1="389.4707" y1="95.9688" x2="389.4707" y2="287.9318">
					<stop  offset="0" style="stop-color:#FFD383"/>
					<stop  offset="0.3124" style="stop-color:#FFCD7E"/>
					<stop  offset="0.7407" style="stop-color:#FFBB70"/>
					<stop  offset="1" style="stop-color:#FFAD64"/>
				</linearGradient>
				<path fill="url(#SVGID_4_)" d="M389.636,95.423v-0.004c-0.055,0-0.11,0.002-0.165,0.002s-0.11-0.002-0.165-0.002v0.004
					c-37.72-0.103-76.756,23.951-75.231,65.502c0.195,5.319,4.337,80.692,9.929,89.779c6.089,9.896,38.565,34.395,65.303,35.562
					v0.029c0.054-0.002,0.11-0.014,0.165-0.016c0.054,0.002,0.11,0.014,0.165,0.016v-0.029
					c26.737-1.167,59.213-25.666,65.303-35.562c5.591-9.087,9.732-84.46,9.928-89.779C466.392,119.374,427.354,95.32,389.636,95.423
					z"/>
				<path opacity="0.2" fill="#F39200" d="M412.133,98.25c19.51,11.872,33.455,32.354,32.532,59.864
					c-0.088,2.592,8.097,30.676-1.535,43.545c4.469,5.714-5.293,49.153-8.394,54.665c-3.676,6.534-16.985,18.866-32.825,27.914
					c23.569-6.221,47.795-25.125,52.969-33.534c5.592-9.087,9.733-84.46,9.929-89.779
					C466.026,127.724,441.344,105.711,412.133,98.25z"/>
				<path opacity="0.1" fill="#FFFFFF" d="M341.679,263.08c-7.374-5.39-12.886-10.661-14.968-14.043
					c-4.498-7.311-8.897-72.901-9.457-88.229c-0.722-19.647,8.274-36.667,24.736-48.066c-9.686,12.631-14.568,28.153-13.998,45.246
					c0.029,0.87,4.025,89.064,10.329,100.352C339.125,259.777,340.264,261.377,341.679,263.08z"/>
				
					<radialGradient id="SVGID_5_" cx="382.4634" cy="10363.709" r="40.2742" gradientTransform="matrix(1 0 0 0.4476 0 -4406.498)" gradientUnits="userSpaceOnUse">
					<stop  offset="0" style="stop-color:#FFFFFF"/>
					<stop  offset="0.0175" style="stop-color:#FFFDFA"/>
					<stop  offset="0.1726" style="stop-color:#FFE9D0"/>
					<stop  offset="0.3312" style="stop-color:#FFD9AE"/>
					<stop  offset="0.4917" style="stop-color:#FFCD93"/>
					<stop  offset="0.6547" style="stop-color:#FFC480"/>
					<stop  offset="0.822" style="stop-color:#FFBF75"/>
					<stop  offset="1" style="stop-color:#FFBD71"/>
				</radialGradient>
				<path opacity="0.31" fill="url(#SVGID_5_)" d="M372.099,231.168c12.249,4.264,36.062,0.951,37.647-0.983
					c-0.26-7.091-7.121-17.724-7.738-21.058c0,0-19.266-2.47-22.353,0C378.297,215.425,372.099,225.662,372.099,231.168z"/>
				<path fill="#EA9D49" d="M409.773,230.037c-3.156,0.762-17.646,4.227-37.675,1.131c-0.149,0.799,8.081,5.99,18.036,7.472
					C394.944,239.771,410.626,230.93,409.773,230.037z"/>
				<path opacity="0.3" fill="#DD9544" d="M402.59,231.428c1.441-0.746-1.242-20.575-0.845-20.973
					c2.783,6.561,6.36,8.398,8.028,19.582C407.339,230.98,404.826,231.229,402.59,231.428z"/>
			</g>
		</g>
		<linearGradient id="SVGID_6_" gradientUnits="userSpaceOnUse" x1="350.9517" y1="80.4702" x2="387.8804" y2="188.3746">
			<stop  offset="0" style="stop-color:#915418"/>
			<stop  offset="1" style="stop-color:#683C11"/>
		</linearGradient>
		<path opacity="0.2" fill="url(#SVGID_6_)" d="M445.641,141.486c-4.13-0.873-35.903,11.584-54.41,11.584
			c-0.406,0-13.735-0.828-19.158-1.938c-27.564-3.438-38.714-4.596-43.443-5.726c-2.393,3.128-4.329,7.147-4.689,8.366
			c-0.589,1.988,2.449,15.206,2.457,18.605c0.008,3.398-5.205,36.614-6.16,37.394c-0.306,0.249-2.208-0.068-2.726-0.112
			c0.052,0.576-0.053-0.276,0,0.298c1.013,0.474,4.144,0.918,4.722,0.448c0.955-0.778,5.762-32.508,5.754-35.908
			c-0.008-3.398-3.045-16.616-2.457-18.604c0.36-1.221,2.297-5.24,4.69-8.366c4.729,1.129,15.878,2.288,43.442,5.726
			c5.424,1.109,18.753,1.938,19.158,1.938c18.508,0,50.281-12.458,54.41-11.584c1.378,0.291,2.822,1.542,4.162,3.143
			C449.669,144.213,447.586,141.898,445.641,141.486z"/>
	</g>
	<g>
		<g>
			
				<image overflow="visible" opacity="0.15" width="49" height="31" xlink:href="C992E84272242853.png"  transform="matrix(1 0 0 1 333.5 179.5)">
			</image>
			
				<image overflow="visible" opacity="0.15" width="49" height="33" xlink:href="C992E84272242851.png"  transform="matrix(1 0 0 1 401.5 177.5)">
			</image>
		</g>
		<path fill="#3A3A3A" d="M402.448,179.026c0,0,24.414,3.41,47.115,11.424c5.808-0.361-25.286-14.236-29.398-14.808
			C416.052,175.069,407.462,175.982,402.448,179.026z"/>
		<path fill="#3A3A3A" d="M381.311,180.918c0,0-24.586,1.786-47.77,8.28c-5.771-0.744,26.174-12.531,30.315-12.83
			C367.998,176.069,376.509,177.549,381.311,180.918z"/>
		<path fill="#EF843C" d="M369.131,258.687c4.014-0.537,22.441-2.972,47.916-0.796c0.19-0.562-10.278-4.211-22.938-5.253
			C387.991,251.842,368.046,258.059,369.131,258.687z"/>
		<path opacity="0.7" fill="#EF843C" d="M378.956,267.951c2.366-0.289,13.229-1.602,28.248-0.429
			c0.112-0.304-6.06-2.271-13.523-2.831C390.074,264.262,378.316,267.612,378.956,267.951z"/>
		<g>
			<g>
				<path fill="#3C3C3B" d="M341.572,203.214c-0.885-1.942-0.109-3.732,1.364-5.549c1.474-1.816,11.952-9.132,23.391-3.547
					c11.438,5.584,10.724,10.861,10.724,10.861S361.451,214.869,341.572,203.214z"/>
				<path fill="#FFFFFF" d="M342.482,204.142c-0.687-0.353-1.229-1.035-1.278-1.805c-0.083-1.294,0.629-2.533,1.732-3.786
					c1.474-1.673,11.952-8.412,23.391-3.268c11.438,5.144,10.724,10.004,10.724,10.004S361.926,214.12,342.482,204.142z"/>
				<radialGradient id="SVGID_7_" cx="358.8945" cy="200.9717" r="7.0967" gradientUnits="userSpaceOnUse">
					<stop  offset="0.5027" style="stop-color:#683C11"/>
					<stop  offset="0.603" style="stop-color:#7D4C0A"/>
					<stop  offset="0.7195" style="stop-color:#8F5A04"/>
					<stop  offset="0.8461" style="stop-color:#996101"/>
					<stop  offset="1" style="stop-color:#9C6400"/>
				</radialGradient>
				<circle fill="url(#SVGID_7_)" cx="358.895" cy="200.972" r="7.097"/>
				<circle fill="#1D1D1B" cx="358.867" cy="201.046" r="4.046"/>
				<circle fill="#FFFFFF" cx="362.544" cy="197.965" r="2.791"/>
			</g>
		</g>
		<g>
			<g>
				<path fill="#3C3C3B" d="M442.086,203.214c0.885-1.942,0.109-3.732-1.364-5.549c-1.474-1.816-11.952-9.132-23.391-3.547
					c-11.438,5.584-10.724,10.861-10.724,10.861S422.207,214.869,442.086,203.214z"/>
				<path fill="#FFFFFF" d="M440.705,204.38c1.294-0.647,2.017-2.196,1.502-3.548c-0.291-0.766-0.816-1.521-1.485-2.281
					c-1.474-1.673-11.952-8.412-23.391-3.268c-11.438,5.144-10.724,10.004-10.724,10.004S421.489,213.979,440.705,204.38z"/>
				
					<radialGradient id="SVGID_8_" cx="117.0708" cy="200.9717" r="7.0964" gradientTransform="matrix(-1 0 0 1 541.834 0)" gradientUnits="userSpaceOnUse">
					<stop  offset="0.5027" style="stop-color:#683C11"/>
					<stop  offset="0.603" style="stop-color:#7D4C0A"/>
					<stop  offset="0.7195" style="stop-color:#8F5A04"/>
					<stop  offset="0.8461" style="stop-color:#996101"/>
					<stop  offset="1" style="stop-color:#9C6400"/>
				</radialGradient>
				<circle fill="url(#SVGID_8_)" cx="424.763" cy="200.972" r="7.096"/>
				<circle fill="#1D1D1B" cx="424.792" cy="201.046" r="4.046"/>
				<circle fill="#FFFFFF" cx="428.25" cy="197.807" r="2.791"/>
			</g>
		</g>
	</g>
	<linearGradient id="SVGID_9_" gradientUnits="userSpaceOnUse" x1="301.9648" y1="331.0889" x2="476.208" y2="331.0889">
		<stop  offset="0" style="stop-color:#5B777F"/>
		<stop  offset="0.2924" style="stop-color:#57767F"/>
		<stop  offset="0.5533" style="stop-color:#4D727F"/>
		<stop  offset="0.8013" style="stop-color:#3A6B7F"/>
		<stop  offset="1" style="stop-color:#26647F"/>
	</linearGradient>
	<path fill="url(#SVGID_9_)" d="M476.208,351.619c-0.271-2.21-1.657-6.273-4.886-15.348c-1.597-4.486-3.247-9.127-4.154-12.153
		c-2.765-9.211-12.505-11.539-14.136-11.866c-9.716-2.883-25.931-7.939-28.556-9.385c-1.282-0.704-2.645-1.59-3.938-2.545
		c-6.35,8.594-17.788,14.349-30.886,14.349c-13.377,0-25.029-5.997-31.289-14.894c-1.5,1.168-3.142,2.254-4.667,3.092
		c-2.625,1.443-18.838,6.5-28.554,9.383c-1.629,0.327-11.373,2.655-14.136,11.866c-0.907,3.024-2.556,7.659-4.153,12.144
		c-3.231,9.082-4.618,13.146-4.889,15.357h0.081c-0.002,0.029-0.018,0.059-0.018,0.088c0,5.906,38.991,10.693,87.089,10.693
		c48.1,0,87.091-4.787,87.091-10.693c0-0.029-0.016-0.059-0.019-0.088H476.208z"/>
	<linearGradient id="SVGID_10_" gradientUnits="userSpaceOnUse" x1="359.2139" y1="64.1792" x2="399.2039" y2="181.0284">
		<stop  offset="0" style="stop-color:#915418"/>
		<stop  offset="1" style="stop-color:#683C11"/>
	</linearGradient>
	<path fill="url(#SVGID_10_)" d="M466.473,112.177c-37.901-30.48-96.213-43.468-98.598-42.275c-2.386,1.193,1.192,9.343,1.192,9.343
		s-28.228-9.74-29.817-9.343c-1.591,0.397,8.945,12.126,8.945,12.126s-25.342-5.651-27.083-4.516
		c-1.741,1.137,9.987,11.076,9.987,11.076s-21.791-4.027-38.001,4.417c-0.268,0.811,21.501,5.324,21.501,5.324
		s-22.97,11.207-27.513,17.521c0.319,0.393,25.525-2.612,25.525-2.612s-14.213,10.305-14.472,13.523
		c4.687,2.725,8.724,10.658,10.949,12.478c-0.039,0.214-0.063,0.47-0.093,0.714c-0.716,6.021,1.158,20.663,2.834,34.937
		c0.589,0.039,0.997,0.122,1.37,0.245c0.605,0.198,1.088,0.522,1.875,1.116c0.023,0.36,0.049,0.753,0.073,1.121
		c0.587,9.209,1.441,21.18,2.504,32.875c0.477,0.224,0.979,0.355,1.438,0.394c0.517,0.044,0.98-0.034,1.287-0.282
		c0.955-0.78,6.167-33.996,6.159-37.394c-0.008-3.399-3.046-16.617-2.457-18.605c0.36-1.219,2.297-5.238,4.69-8.366
		c4.729,1.13,15.878,2.288,43.442,5.726c5.423,1.11,18.753,1.938,19.158,1.938c18.508,0,50.28-12.457,54.41-11.584
		c1.946,0.412,4.028,2.727,5.753,5.265c2.676,3.198,4.923,7.818,5.315,9.143c0.587,1.987-2.449,15.206-2.457,18.604
		c-0.008,2.957,3.935,28.463,5.59,35.569c0.468,0.006,0.997-0.099,1.511-0.309c1.213-12.924,2.174-26.5,2.803-36.478
		c1.347-1.012,1.594-1.014,2.588-1.212c1.171-10.305,2.85-20.602,3.355-27.445C470.845,143.666,473.37,122.362,466.473,112.177z"/>
</g>
<g id="Layer_2">
	<path fill="#96D7ED" d="M418.68,206.588c0,0-1.023,2.645-2.169,5.888c-1.467,4.159-1.151,9.257,4.753,8.452
		c6.56-0.896,5.066-8.847,0.697-9.741C418.763,210.536,418.679,206.587,418.68,206.588"/>
	<path fill="#96D7ED" d="M418.68,230.037c0,0-1.023,2.645-2.169,5.888c-1.467,4.159-1.151,9.257,4.753,8.452
		c6.56-0.896,5.066-8.848,0.697-9.74C418.763,233.985,418.679,230.036,418.68,230.037"/>
	<path fill="#96D7ED" d="M370.443,203.789c0,0-1.99,2.02-4.331,4.541c-3,3.233-4.736,8.037,1.001,9.645
		c6.375,1.785,8.166-6.104,4.512-8.661C368.95,207.445,370.443,203.788,370.443,203.789"/>
	<path fill="#96D7ED" d="M367.363,226.021c0,0-1.99,2.02-4.331,4.541c-3,3.232-4.736,8.036,1.001,9.645
		c6.375,1.785,8.165-6.104,4.512-8.661C365.87,229.678,367.363,226.02,367.363,226.021"/>
</g>
</svg>
