<svg version="1.1" xmlns="http://www.w3.org/2000/svg" xmlns:xlink="http://www.w3.org/1999/xlink" viewBox="0 0 768 430" style="enable-background:new 0 0 768 430;" xml:space="preserve"><g id="crying"> <g>  <path style="fill:#DDE4D0;stroke:#DDE4D0;stroke-width:1.1076;" d="M480.002,155.803c-0.525,17.458-5.72,33.066-21.289,32.427 c-23.089-0.973-36.088-24.786-37.104-40.974c-1.246-20.186,14.864-29.405,31.988-26.68c6.825,1.082,12.482,4.127,16.791,8.498 c-20.722-24.589-52.977-38.426-86.427-38.426c-56.429,0-102.228,51.873-102.228,115.813c0,63.922,44.765,91.539,101.193,91.539 c56.428,0,110.484-40.129,110.484-104.048c0-23.312-7.055-43.353-18.747-59.415C478.365,140.527,480.24,147.917,480.002,155.803z  M338.592,150.206c2.634-18.917,20.236-33.44,41.338-38.841c20.118-5.132,35.536,7.537,34.99,30.337 c-0.54,22.853-24.819,38.356-44.23,39.057C351.271,181.456,335.862,169.902,338.592,150.206z M398.592,282.737 c-28.563,5.416-46.219-1.321-47.101-29.274c-0.894-27.956,27.416-56.151,55.997-61.568c28.561-5.413,46.613,13.989,47.501,41.94 C455.881,261.788,438.662,275.139,398.592,282.737z"/>  <path style="fill:#DDE4D0;stroke:#DDE4D0;stroke-width:1.1076;" d="M470.389,129.074c1.487,1.765,2.911,3.589,4.275,5.464 C473.437,132.551,472.01,130.718,470.389,129.074z"/>  <path style="fill:#DDE4D0;stroke:#DDE4D0;stroke-width:1.1076;" d="M423.087,136.38l50.107-0.671 C455.914,128.697,433.524,130.523,423.087,136.38z"/>  <path style="fill:#DDE4D0;stroke:#DDE4D0;stroke-width:1.1076;" d="M478.512,161.799l-55.572-22.57 C432.784,148.729,454.291,157.569,478.512,161.799z"/>  <path style="fill:#DDE4D0;stroke:#DDE4D0;stroke-width:1.1076;" d="M423.894,137.55l24.016,6.232 C441.605,138.773,430.34,135.764,423.894,137.55z"/>  <path style="fill:#DDE4D0;stroke:#DDE4D0;stroke-width:1.1076;" d="M358.019,132.363l55.179,0.31 C401.841,126.883,377.218,125.217,358.019,132.363z"/>  <path style="fill:#DDE4D0;stroke:#DDE4D0;stroke-width:1.1076;" d="M413.535,135.897l-54.576,26.172 C382.938,157.863,404.062,147.614,413.535,135.897z"/>  <path style="fill:#DDE4D0;stroke:#DDE4D0;stroke-width:1.1076;" d="M414.096,135.239c-9.347,0.417-18.152,2.097-24.854,5.71 L414.096,135.239z"/>  <path style="fill:#DDE4D0;stroke:#DDE4D0;stroke-width:1.1076;" d="M302.38,125.878c-1.867-24.803-36.022-46.942-41.544-24.908 C255.099,123.794,288.824,109.716,302.38,125.878z"/>  <path style="fill:#DDE4D0;stroke:#DDE4D0;stroke-width:1.1076;" d="M537.605,107.683c-2.073-22.611-39.23-5.991-44.888,18.219 C508.6,112.011,539.752,131.129,537.605,107.683z"/>  <path style="fill:#DDE4D0;stroke:#DDE4D0;stroke-width:1.1076;" d="M527.754,130.872c15.854,3.212,18.432,29.733,31.873,18.246 C572.584,138.046,545.257,123.603,527.754,130.872z"/>  <path style="fill:#DDE4D0;stroke:#DDE4D0;stroke-width:1.1076;" d="M234.372,155.29c13.45,11.489,16.027-15.033,31.872-18.232 C248.746,129.789,221.419,144.219,234.372,155.29z"/> </g></g><g id="Layer_1"></g></svg>