<svg version="1.1" xmlns="http://www.w3.org/2000/svg" x="0" y="0" width="768" height="430" viewBox="0 0 768 430" enable-background="new 0 0 768 430" xml:space="preserve"><path fill-rule="evenodd" clip-rule="evenodd" fill="#DDE4D0" d="M391 120c10.7 0 19.2-9 18.8-19.7 -0.3-10.6-8.7-18.5-19.4-18.3 -10.5 0.2-18.9 8.8-18.7 19.2C372 111.4 380.8 120.1 391 120zM497.5 247.1c10 0.1 17.6-7.4 17.7-17.3 0.1-9.8-7.5-17.8-17.1-18.1 -9.8-0.3-18.1 7.9-18.1 17.8C480 239.3 487.8 247 497.5 247.1zM278.2 97.4c-1 0.2-1.8 2.1-2.5 3.4 -0.4 0.7-0.3 1.7-0.5 2.5 -1.2 6.8-2.3 13.6-3.5 20.9 -1.6-0.3-2.8-0.5-4-0.7 -14.9-2.5-29.8-5-44.7-7.5 -4-0.7-5.8 0.6-6.5 4.5 -0.4 2.3-0.8 4.6-1.2 6.8 -0.7 4.5 0.5 6.2 5 6.9 15 2.5 30 5.1 45 7.6 1 0.2 2 0.3 3.3 0.6 -0.2 1-0.3 1.8-0.4 2.5 -1.2 6.8-2.4 13.7-3.4 20.5 -0.2 1.4 0.6 3 0.9 4.5 1.6-0.4 3.2-0.7 4.8-1.1 0.3-0.1 0.6-0.4 0.9-0.7 12.3-8.9 24.6-17.9 36.9-26.8 0.6-0.4 1.1-1 1.7-1.5 -9.5-13.6-18.8-27-28.2-40.4C281 98.5 279.2 97.2 278.2 97.4zM389.1 190.4h-0.1c-0.3 1-0.5 2.1-0.9 3.2l-1.7 5.1h5.3l-1.7-5.1C389.6 192.4 389.3 191.4 389.1 190.4zM370.9 190c-1.2 0-2.1 0.1-2.7 0.2v13.9c0.6 0.1 1.4 0.1 2.3 0.1 4.9 0 7.5-2.7 7.5-7.5C378.1 192.7 375.8 190 370.9 190zM545.4 221.6c-5.3-1.9-9.6 0.4-12.2 7.1 -4.4 11.5-12.6 18.6-24.2 21.9 -20.6 5.9-39.1-0.1-57-10.2 -3.4-1.9-7.3-2.8-11.5-4.3 0-25.1 1-51.1-0.3-76.9 -1-20-16.2-32.3-36.4-32.4 -9.5 0-19-0.2-28.5 0.1 -17.8 0.4-33.4 14.4-34 32.2 -0.7 24.7-0.3 49.5-0.2 74.3 0 5.4 3.4 8.7 8.7 8.8 5.1 0.1 8-3.2 8.7-8.2 0.3-2 0.2-4.2 0.2-6.2 0-21.3 0-42.6 0-63.9 0-2.5 0-4.9 0-7.3 7.3-1.5 5.5 3.4 5.5 6.3 0.1 54.2 0.1 108.3 0.1 162.5 0 4.2-0.2 8.4 0.2 12.5 0.5 6.1 4.2 9.7 10.2 10.3 6 0.7 10.5-1.8 12.4-7.6 0.8-2.6 1-5.4 1-8.2 0.1-30.6 0-61.1 0-91.7 0-2.5 0-5 0-7.4 7-1.6 5.5 3.1 5.5 6.1 0.1 31.9 0 63.9 0.1 95.8 0 8.5 4.9 13.5 12.5 13.1 7.4-0.4 11.2-5.2 11.2-14.6 0-38.2 0-76.4 0-114.6 0-19.2 0-38.4 0-57.6 0-3.4-0.3-7 5.5-4.6 0 2.1 0 4.4 0 6.6 0 21.8 0 43.5 0 65.3 0 10.6 1.9 12.7 12.4 14 0.7 11.4 4.4 13.8 41.8 26.8 0 22.3 0 44.7 0 67.1 0 7.8 2.9 11.6 8.7 11.6 5.9 0.1 9-3.6 9-11.4 0.1-9.7-0.1-19.4 0.1-29.2 0-1.8 1.6-3.5 2.5-5.3 1 1.7 2.7 3.4 2.8 5.2 0.3 9.9 0.1 19.9 0.2 29.9 0.1 7.3 3 10.9 8.7 10.8 5.7-0.1 8.5-3.6 8.5-11 0-21.8 0.1-43.5-0.1-65.3 0-3.9 1-6.1 4.8-7.8 13-5.9 22.1-15.7 27.1-29.2C552 228.6 550.3 223.4 545.4 221.6zM377.9 203.6c-1.6 1.6-4.4 2.5-7.8 2.5 -1.6 0-3-0.1-4.1-0.2v-17.4c1.4-0.2 3-0.4 4.8-0.4 3.3 0 5.6 0.8 7.1 2.2 1.6 1.4 2.5 3.5 2.5 6.3C380.5 199.6 379.6 202 377.9 203.6zM394.1 206l-1.9-5.5h-6.3l-1.8 5.5h-2.4l6-17.6h2.7l6 17.6H394.1zM411 203.6c-1.6 1.6-4.4 2.5-7.8 2.5 -1.6 0-3-0.1-4.1-0.2v-17.4c1.4-0.2 3-0.4 4.8-0.4 3.3 0 5.6 0.8 7.1 2.2 1.6 1.4 2.5 3.5 2.5 6.3C413.6 199.6 412.7 202 411 203.6zM404 190c-1.2 0-2.1 0.1-2.7 0.2v13.9c0.6 0.1 1.4 0.1 2.3 0.1 4.9 0 7.5-2.7 7.5-7.5C411.2 192.7 408.8 190 404 190z"/></svg>