<svg version="1.1" id="Layer_1" xmlns="http://www.w3.org/2000/svg" xmlns:xlink="http://www.w3.org/1999/xlink" viewBox="0 0 768 430" xml:space="preserve">
<path fill="#DDE4D0" d="M391,87c10.7,0,19.2-9,18.8-19.7c-0.3-10.6-8.7-18.5-19.399-18.3c-10.5,0.2-18.9,8.8-18.7,19.2
	C372,78.4,380.8,87.1,391,87z M497.5,214.1c10,0.101,17.6-7.399,17.7-17.3c0.1-9.8-7.5-17.8-17.101-18.1
	c-9.8-0.3-18.1,7.899-18.1,17.8C480,206.3,487.8,214,497.5,214.1z M278.2,64.4c-1,0.2-1.8,2.1-2.5,3.4c-0.4,0.7-0.3,1.7-0.5,2.5
	c-1.2,6.8-2.3,13.6-3.5,20.9c-1.6-0.3-2.8-0.5-4-0.7c-14.9-2.5-29.8-5-44.7-7.5c-4-0.7-5.8,0.6-6.5,4.5c-0.4,2.3-0.8,4.6-1.2,6.8
	c-0.7,4.5,0.5,6.2,5,6.9c15,2.5,30,5.1,45,7.6c1,0.2,2,0.3,3.3,0.6c-0.2,1-0.3,1.8-0.4,2.5c-1.2,6.8-2.4,13.7-3.4,20.5
	c-0.2,1.4,0.6,3,0.9,4.5c1.6-0.4,3.2-0.7,4.8-1.1c0.3-0.1,0.6-0.4,0.9-0.7c12.3-8.9,24.6-17.9,36.9-26.8c0.6-0.4,1.1-1,1.7-1.5
	c-9.5-13.6-18.8-27-28.2-40.4C281,65.5,279.2,64.2,278.2,64.4z M389.1,157.4H389c-0.3,1-0.5,2.1-0.9,3.2l-1.699,5.1h5.3l-1.7-5.1
	C389.6,159.4,389.3,158.4,389.1,157.4z M370.9,157c-1.2,0-2.1,0.1-2.7,0.2v13.9c0.6,0.1,1.4,0.1,2.3,0.1c4.9,0,7.5-2.7,7.5-7.5
	C378.1,159.7,375.8,157,370.9,157z M545.4,188.6c-5.301-1.899-9.601,0.4-12.2,7.101c-4.4,11.5-12.601,18.6-24.2,21.899
	c-20.6,5.9-39.1-0.1-57-10.199c-3.4-1.9-7.3-2.801-11.5-4.301c0-25.1,1-51.1-0.3-76.899c-1-20-16.2-32.3-36.4-32.4
	c-9.5,0-19-0.2-28.5,0.1c-17.8,0.4-33.4,14.4-34,32.2c-0.7,24.7-0.3,49.5-0.2,74.3c0,5.399,3.4,8.699,8.7,8.8c5.1,0.1,8-3.2,8.7-8.2
	c0.3-2,0.2-4.2,0.2-6.2c0-21.3,0-42.6,0-63.9c0-2.5,0-4.9,0-7.3c7.3-1.5,5.5,3.4,5.5,6.3c0.1,54.2,0.1,108.3,0.1,162.5
	c0,4.199-0.2,8.399,0.2,12.5c0.5,6.1,4.2,9.699,10.2,10.3c6,0.7,10.5-1.8,12.399-7.601c0.801-2.6,1-5.399,1-8.199
	c0.101-30.601,0-61.101,0-91.7c0-2.5,0-5,0-7.4c7-1.6,5.5,3.101,5.5,6.101c0.101,31.899,0,63.899,0.101,95.8
	c0,8.5,4.899,13.5,12.5,13.1c7.399-0.399,11.2-5.2,11.2-14.6c0-38.2,0-76.4,0-114.601c0-19.2,0-38.399,0-57.6c0-3.4-0.301-7,5.5-4.6
	c0,2.1,0,4.4,0,6.6c0,21.8,0,43.5,0,65.3c0,10.601,1.899,12.7,12.399,14c0.7,11.4,4.4,13.8,41.8,26.8c0,22.301,0,44.7,0,67.101
	c0,7.8,2.9,11.6,8.7,11.6c5.9,0.101,9-3.6,9-11.399c0.101-9.7-0.1-19.4,0.101-29.2c0-1.8,1.6-3.5,2.5-5.3
	c1,1.699,2.699,3.399,2.8,5.199c0.3,9.9,0.1,19.9,0.2,29.9c0.1,7.3,3,10.9,8.699,10.8c5.7-0.1,8.5-3.6,8.5-11
	c0-21.8,0.101-43.5-0.1-65.3c0-3.9,1-6.1,4.8-7.8c13-5.9,22.101-15.7,27.101-29.2C552,195.6,550.3,190.4,545.4,188.6z M377.9,170.6
	c-1.6,1.6-4.4,2.5-7.8,2.5c-1.6,0-3-0.1-4.1-0.2v-17.4c1.4-0.2,3-0.4,4.8-0.4c3.3,0,5.6,0.8,7.1,2.2c1.6,1.4,2.5,3.5,2.5,6.3
	C380.5,166.6,379.6,169,377.9,170.6z M394.1,173l-1.899-5.5h-6.3l-1.8,5.5h-2.4l6-17.6h2.7l6,17.6H394.1z M411,170.6
	c-1.6,1.6-4.4,2.5-7.8,2.5c-1.601,0-3-0.1-4.101-0.2v-17.4c1.4-0.2,3-0.4,4.801-0.4c3.3,0,5.6,0.8,7.1,2.2c1.6,1.4,2.5,3.5,2.5,6.3
	C413.6,166.6,412.7,169,411,170.6z M404,157c-1.2,0-2.1,0.1-2.7,0.2v13.9c0.601,0.1,1.4,0.1,2.3,0.1c4.9,0,7.5-2.7,7.5-7.5
	C411.2,159.7,408.8,157,404,157z"/>
</svg>
