<svg version="1.1" id="Layer_1" xmlns="http://www.w3.org/2000/svg" xmlns:xlink="http://www.w3.org/1999/xlink" viewBox="0 0 768 430" xml:space="preserve">
<g>
	<path fill="#DDE4D0" d="M363.491,239.104c-2.844-1.756-5.342-3.315-7.854-4.847c-10.489-6.39-20.933-12.853-31.499-19.112
		c-4.212-2.494-3.145-2.199-6.406,0.615c-0.832,0.717-1.614,1.492-2.386,2.273c-16.671,16.837-33.334,33.678-50.009,50.511
		c-0.562,0.566-1.229,1.031-1.847,1.547c0,12.635,0,25.272,0,37.909c11.327,0,22.558,0,33.788,0
		c0.653-0.701,1.295-1.413,1.963-2.101c20.665-21.285,41.337-42.565,61.99-63.864C362.045,241.195,362.671,240.178,363.491,239.104z
		"/>
	<path fill="#DDE4D0" d="M503.308,62c-11.674,0-23.351,0-35.023,0c-14.181,14.679-28.361,29.357-42.683,44.179
		c13.526,10.776,23.368,23.882,29.336,40.015c0.841-0.746,1.266-1.087,1.649-1.47c15.25-15.129,30.509-30.251,45.708-45.431
		c0.618-0.619,0.966-1.786,0.971-2.701C503.33,85.062,503.308,73.531,503.308,62z"/>
	<path fill="#DDE4D0" d="M447.832,162.709c-1.566-10.804-5.656-20.737-11.52-29.908c-6.491-10.159-15.362-17.785-25.692-23.881
		c-15.833-9.343-33.046-11.948-50.655-8.349c-24.002,4.905-41.81,18.709-52.124,41.29c-2.29,5.011-3.68,10.434-5.433,15.685
		c-0.6,1.794,0.011,3.218,1.654,4.192c1.768,1.049,3.485,2.19,5.292,3.164c4.111,2.212,4.694,1.848,5.656-2.67
		c1.755-8.24,4.474-16.078,9.402-23.065c15.142-21.472,36.133-29.622,61.513-25.663c24.298,3.79,48.064,26.019,49.33,56.195
		c0.586,13.982-2.221,26.943-10.449,38.332c-3.516,4.865-7.956,9.068-12.008,13.543c-4.696,5.189-9.766,10.082-14.063,15.58
		c-7.037,9-12.062,19.275-17.485,29.294c-2.071,3.827-4.443,7.674-7.439,10.774c-5.302,5.488-15.451,6.559-22.686,3.068
		c-2.465-1.19-4.847-2.583-7.386-3.581c-0.901-0.354-2.354-0.143-3.212,0.375c-4.337,2.615-4.341,7.339,0.202,10.557
		c9.959,7.053,20.808,8.572,32.198,4.052c9.172-3.643,15.575-10.363,19.559-19.318c3.043-6.843,6.255-13.562,10.588-19.719
		c6.043-8.586,13.445-15.926,20.754-23.381c4.075-4.155,8.15-8.426,11.489-13.164c8.938-12.687,13.571-26.832,12.599-42.508
		C447.913,169.969,448.348,166.27,447.832,162.709z"/>
	<path fill="#DDE4D0" d="M423.475,155.55c-7.998-20.626-25.846-32.995-47.427-33.615c-15.144-0.436-28.152,5.582-38.44,16.705
		c-3.25,3.515-5.551,7.95-8.04,12.11c-1.316,2.2-0.836,3.432,1.238,4.905c1.393,0.991,2.86,1.889,4.346,2.738
		c1.565,0.895,2.876,0.6,3.828-1.026c0.902-1.538,1.841-3.056,2.79-4.566c9.488-15.111,24.386-21.089,40.965-18.276
		c16.815,2.853,31.67,17.286,33.108,38.541c0.618,9.131-2.696,17.358-7.641,24.943c-1.983,3.046-1.927,3.313,0.94,5.459
		c4.543,3.399,6.172,3.222,9.166-1.579c5.369-8.604,8.951-17.771,7.91-27.833C426.645,167.448,425.759,161.437,423.475,155.55z"/>
</g>
</svg>
