<svg version="1.1" xmlns="http://www.w3.org/2000/svg" xmlns:xlink="http://www.w3.org/1999/xlink" viewBox="0 0 768 430" style="enable-background:new 0 0 768 430;" xml:space="preserve"><g id="deer"> <path style="fill:#DDE4D0;" d="M491.511,309.674c-5.332-2.208-6.968-13.01-7.268-18.333c-0.475-8.525,2.935-15.214-3.162-21.873  c-11.385-12.425-20.767-26.996-12.041-44.436c3.642-7.276-5.881-13.772,3.725-15.66c4.363-0.856,9.273,0,12.34-3.9  c3.861-4.907,1.23-11.177-2.31-15.427c-0.432-0.636-0.978-1.131-1.639-1.485c0.614,0-0.064,8.471-1.637,9.551  c-3.536,2.43-9.041,6.612-13.536,6.758c-3.858,0.12-10.259-4.154-12.808-6.708c-1.871-1.872-8.413-2.503-11.049-3.053  c-6.449-1.334-11.452-2.511-17.681-5.047c-7.843-3.198-15.579-6.907-22.48-11.856c-16.674-11.951-19.71-32.68-17.593-52.141  c0.452-4.19-1.428-10.755,0.994-14.333c0.572-0.851,3.176-0.604,4.178-1.489c1.275-1.125,4.1-5.347,4.608-7.069  c2.082-7.053-9.219,2.023-7.589,1.915c-2.462,0.164,2.803-15.041,3.102-15.641c0.606-1.217,8.848-15.788,3.875-15.621  c-3.119,0.101-1.585,9.094-5.271,8.36c-3.992-0.796-9.745-11.41-8.001-15.394c3.064-7.003-3.045-8.531-3.926-2.418  c-0.176,1.177,2.803,9.812-1.763,8.521c-4.734-1.348-4.042-21.378-6.329-21.167c-3.993,0.366-0.512,18.098-1.705,20.338  c-0.357,0.682-6.146-5.874-6.515-7.448c-1.635-6.948-2.383-4.362-4.325,0.059c-2.567,5.848,17.186,16.152,20.75,18.225  c2.84,1.649,5.176,3.076,6.148,6.375c0.85,2.882,1.879,6.828-0.077,9.54c-1.393,1.93-5.087,2.992-5.087,5.792l0.012,0.013  c-7.097,0-14.167-1.092-20.059,1.942c-4.769,2.456-13.802,2.235-19.331,2.235c-2.634,0,2.431,5.946,2.354,7.957  c-0.216,5.803,11.536,7.062,15.11,8.578c5.528,2.344,3.219,6.086,3.694,10.887c1.255,12.809-3.469,22-7.99,33.433  c-1.364,3.453-4.024,8.302-3.691,12.154c0.602,6.957-10.305-1.1-13.495-2.223c-4.873-1.714-14.009-4.117-19.162-2.01  c-6.604,2.698-3.917,8.618-0.424,12.487c6.686,7.392,0.895,13.206,2.885,20.974c0.709,2.777,13.008,15.569,14.971,13.873  c6.429-5.549-2.329-8.312-4.599-12.534c-1.032-1.92-2.487-20.75-2.071-20.724c1.926,0.133,6.225,3.522,8.025,4.399  c5.381,2.612,10.688,5.406,15.528,8.933c10.341,4.561,21.007,8.727,31.969,11.584c15.004,3.918,28.904,5.561,43.272,12.242  c8.204,3.818,6.752,12.159,12.924,18.376c6.14,6.188,15.01,10.105,22.105,15.115c5.718,4.042,10.761,10.445,13.955,16.613  c3.705,7.148,2.902,16.712,4.183,24.513c0.89,5.406,7.585,9.431,10.799,13.674C495.37,326.28,494.346,310.839,491.511,309.674z"/></g><g id="Layer_1"></g></svg>