<svg version="1.1" id="Layer_1" xmlns="http://www.w3.org/2000/svg" xmlns:xlink="http://www.w3.org/1999/xlink" x="0px" y="0px"
viewBox="0 0 768 430" enable-background="new 0 0 768 430" xml:space="preserve">
<path fill="#C4890D" d="M315.572,237.155c0,0,0.552-16.979-14.088-18.359c-14.641-1.382-24.586,12.431-23.204,15.191
	c1.381,2.763,10.221,1.106,10.221,1.106s-18.509,6.63-23.758,21.547c-5.248,14.917,11.878,6.63,15.194,1.381
	c0,0-16.735,25.69,9.727,18.784C316.124,269.9,315.572,237.155,315.572,237.155"/>
<path fill="#401011" d="M406.457,370.453c0,0,5.8,5.524,9.667,15.193c0,0-11.877,5.778-14.916,2.475s-3.96-20.707-3.96-20.707
	L406.457,370.453z"/>
<path fill="#401011" d="M332.991,372.387c0,0,5.233,4.364,6.891,13.26c0,0-8.287,3.867-12.707,1.933
	c-4.42-1.933-6.354-15.192-6.354-15.192H332.991z"/>
<path fill="#C5890D" d="M355.351,291.171c0,0-14.641,32.32-18.232,45.305c-3.591,12.982-4.695,29.559-3.867,30.938
	c0.829,1.381,2.239,3.315-0.261,4.973c-2.501,1.657-9.131,3.591-12.17,0c-3.038-3.592-1.381-77.901,4.144-85.084
	C330.489,280.121,351.181,288.446,355.351,291.171"/>
<path fill="#C5890D" d="M420.82,284.452c8.194,5.798-12.43,73.294-14.363,79.923c0,0,2.762,4.144,0,6.079
	c-2.763,1.933-10.223,0.552-12.155-1.659c-1.935-2.209,1.381-57.734,0-65.193C392.921,296.144,416.4,281.325,420.82,284.452"/>
<path fill="#FAB947" d="M408.014,166.443c0,0,14.02-11.053,12.418-31.282c0,0-6.451,3.882-13.04,0.006
	c-6.589-3.874-5.614-9.976-2.181-11.025c3.433-1.049,6.429,7.309,10.564,5.982c4.137-1.327,6.865-7.731-1.319-18.279
	c-8.186-10.549-19.029-17.96-16.748-37.331c2.282-19.371,28.729-22.217,35.309-12.242c6.583,9.976-14.736,19.897-13.66,29.41
	c1.077,9.512,9.174,19.593,9.467,22.974c0,0,5.823,0.632,7.126-3.053c1.303-3.687-1.917-12.899,4.867-15.616
	c6.785-2.716,11.278,11.993,4.699,21.325c-6.578,9.33-13.429,8.079-13.429,8.079s2.512,28.784-21.328,45.615
	C410.759,171.004,404.462,170.034,408.014,166.443"/>
<path fill="#DC9F0C" d="M384.725,165.112c9.806-6.467,76.612-4.489,88.398,7.332s-6.262,36.868-47.883,38.708
	c0,0-5.156,10.499-4.788,23.297c0.368,12.799,15.47,39.317,4.052,58.104c-11.417,18.784-44.935,22.099-74.034,19.521
	c-29.097-2.579-60.774-17.68-63.72-39.41c-2.947-21.731,7.734-35.647,22.468-39.371c14.733-3.723,33.149,6.939,42.726,7.869
	c9.576,0.931,22.099-0.686,25.415-5.402C380.673,231.043,367.414,176.53,384.725,165.112"/>
<path fill="#EEEDBC" d="M408.667,210.211c0,0-3.316,14.456,0,28.923c3.314,14.469,4.695,36.567-8.564,48.169
	c-13.26,11.604-56.63,7.46-74.585-1.657c-12.495-6.343-16.024,5.768-17.018,13.724c11.97,6.915,27.296,11.404,41.972,12.704
	c29.097,2.579,62.616-0.736,74.033-19.521c11.418-18.784-3.684-45.305-4.052-58.103s4.788-23.297,4.788-23.297
	S418.299,212.236,408.667,210.211"/>
<path fill="#610F0C" d="M465.388,163.507c18.133-0.095,27.624,9.269,25.415,16.486c-2.209,7.218-7.366,12.281-23.205,13.801
	c-15.838,1.521-24.309-9.546-25.046-15.431C441.815,172.479,447.34,163.603,465.388,163.507"/>
<path fill="#A8191D" d="M408.667,196.604c0,0,14.916,4.236,22.099,4.604c0,0-3.13,6.997-9.394,8.102
	C415.111,210.416,408.667,199.919,408.667,196.604"/>
<path fill="#B08011" d="M413.271,185.937c0,2.755-3.588,4.988-8.012,4.988c-4.425,0-8.01-2.233-8.01-4.988
	c0-2.754,3.585-4.987,8.01-4.987C409.683,180.949,413.271,183.182,413.271,185.937"/>
<path fill="#1D1E1C" d="M415.261,172.278c0.373,2.567-0.794,4.861-2.604,5.123c-1.813,0.264-3.583-1.604-3.956-4.17
	c-0.372-2.567,0.794-4.861,2.606-5.124C413.118,167.844,414.889,169.711,415.261,172.278"/>
<path fill="#1D1E1C" d="M426.347,170.529c0.372,2.567-0.795,4.861-2.605,5.124c-1.812,0.263-3.584-1.604-3.956-4.171
	s0.795-4.861,2.605-5.124C424.203,166.095,425.975,167.961,426.347,170.529"/>
<path fill="#B08011" d="M456.774,176.983c0,0,0.127-0.259,0.493-0.623c0.361-0.354,1.008-0.813,1.953-0.949
	c0.468-0.063,0.986-0.054,1.503,0.061c0.516,0.111,1.046,0.276,1.558,0.538c0.512,0.258,1.011,0.583,1.476,0.961
	c0.454,0.392,0.873,0.834,1.246,1.311c0.359,0.485,0.674,1.001,0.937,1.531c0.268,0.529,0.452,1.08,0.599,1.614
	c0.15,0.533,0.242,1.06,0.295,1.559c0.056,0.498,0.072,0.97,0.062,1.402c-0.01,0.865-0.127,1.573-0.225,2.062
	c-0.121,0.483-0.188,0.761-0.188,0.761s-0.048-0.28-0.132-0.768c-0.079-0.485-0.201-1.17-0.368-1.968
	c-0.1-0.397-0.205-0.821-0.315-1.267c-0.132-0.438-0.282-0.894-0.453-1.352c-0.178-0.458-0.394-0.911-0.624-1.357
	c-0.234-0.446-0.51-0.879-0.821-1.281c-0.301-0.41-0.64-0.79-1.005-1.125c-0.355-0.348-0.739-0.651-1.141-0.901
	c-0.401-0.239-0.803-0.476-1.208-0.624c-0.401-0.146-0.791-0.255-1.158-0.285c-0.735-0.062-1.391,0.128-1.818,0.324
	C457.005,176.805,456.774,176.983,456.774,176.983"/>
<path fill="#B08011" d="M478.114,185.529c0,0-0.228-0.126-0.566-0.435c-0.341-0.305-0.784-0.816-1.153-1.526
	c-0.184-0.353-0.372-0.744-0.511-1.173c-0.145-0.429-0.295-0.881-0.394-1.355c-0.106-0.474-0.198-0.958-0.288-1.452
	c-0.073-0.499-0.141-1.017-0.176-1.549c-0.021-0.533-0.009-1.081,0.063-1.625c0.064-0.545,0.23-1.082,0.455-1.571
	c0.221-0.504,0.556-0.952,0.92-1.284c0.359-0.344,0.759-0.597,1.154-0.76c0.787-0.352,1.541-0.312,1.988-0.16
	c0.226,0.081,0.389,0.163,0.49,0.234c0.102,0.066,0.155,0.1,0.155,0.1s-0.261-0.066-0.684-0.017
	c-0.417,0.036-0.972,0.229-1.496,0.639c-0.258,0.208-0.509,0.464-0.729,0.76c-0.215,0.306-0.382,0.634-0.508,1.005
	c-0.123,0.384-0.196,0.799-0.242,1.236c-0.046,0.437-0.048,0.897-0.021,1.366c0.016,0.47,0.06,0.95,0.114,1.431
	c0.038,0.485,0.082,0.964,0.137,1.417c0.06,0.453,0.093,0.894,0.162,1.301c0.07,0.406,0.134,0.792,0.222,1.141
	c0.169,0.7,0.389,1.269,0.577,1.661C477.975,185.309,478.114,185.529,478.114,185.529"/>
<path fill="#B08011" d="M425.24,211.152c0,0-1.764,0.251-4.418,0.341c-0.665,0.017-1.384,0.054-2.143,0.045
	c-0.762-0.001-1.565,0.015-2.395-0.019c-0.828-0.032-1.685-0.065-2.555-0.099c-0.87-0.062-1.753-0.125-2.637-0.188
	c-0.88-0.095-1.76-0.19-2.628-0.283c-0.865-0.107-1.716-0.227-2.536-0.367c-0.82-0.14-1.612-0.271-2.358-0.44
	c-0.745-0.16-1.45-0.314-2.095-0.483c-1.29-0.339-2.353-0.662-3.084-0.936c-0.728-0.271-1.144-0.427-1.144-0.427
	s0.44,0.043,1.216,0.115c0.772,0.085,1.87,0.204,3.174,0.345c0.658,0.066,1.367,0.137,2.114,0.213
	c0.753,0.074,1.542,0.151,2.358,0.231c0.817,0.078,1.662,0.159,2.52,0.241c0.858,0.081,1.731,0.163,2.604,0.244
	c0.874,0.081,1.748,0.16,2.606,0.239c0.859,0.083,1.706,0.162,2.526,0.24c0.817,0.081,1.611,0.159,2.364,0.233
	c0.749,0.079,1.463,0.152,2.12,0.222C423.479,210.896,425.24,211.152,425.24,211.152"/>
<path fill="#AE7913" d="M381.463,163.506c3.83-7.215,25.476-7.695,27.167-5.485c1.693,2.21-3.371,3.871-3.371,3.871
	s4.051,2.879,0,5.443c-4.052,2.565-11.787,0-11.787,0s3.867,2.289,0.276,3.669S378.843,168.438,381.463,163.506"/>
<path fill="#FAB947" d="M389.329,172.062c0,0-19.668-2.492-29.723-22.658c0,0,8.361,0,12.412-7.459
	c4.051-7.458-0.368-12.707-4.236-11.74c-3.868,0.966-1.934,10.635-6.629,11.74c-4.697,1.105-10.958-3.426-9.208-18.15
	c1.75-14.723,7.826-27.982-5.433-45.109c-13.26-17.127-40.055-4.696-40.608,8.564c-0.552,13.259,25.414,10.496,29.834,20.165
	c4.419,9.669,2.486,23.896,4.143,27.279c0,0-5.18,3.938-8.528,1.174c-3.35-2.762-5.559-13.372-13.571-12.073
	c-8.011,1.3-3.868,17.87,7.735,22.982c11.602,5.112,17.403,0,17.403,0s14.088,26.618,46.409,28.987
	C389.329,175.764,394.764,173.445,389.329,172.062"/>
<path fill="#DC9F0C" d="M386.389,176.592c0,0-6.075,2.011-9.024,0c-2.947-2.01-11.97-15.451-28.544,9.411
	c0,0,7.918,11.05,20.81,10.129c12.891-0.921,11.786-9.81,19.336-12.455"/>
<path fill="#610F0C" d="M323.239,372.387c0,0,6.973,11.326,7.803,16.574c0,0-12.426,1.658-15.468,0
	c-3.041-1.657-4.718-11.96-4.019-14.544C312.257,371.834,323.239,372.387,323.239,372.387"/>
<path fill="#DC9F0C" d="M337.119,276.806c0,0-11.049,36.188-13.537,46.41c-2.485,10.221-1.104,49.106,0,50.797
	c1.106,1.688-6.354,3.347-11.049,2.517c-4.696-0.829-1.105-6.076-1.381-9.114c-0.276-3.039-11.878-58.288-15.194-65.746
	c-3.315-7.46-11.573-25.336-9.689-36.943C288.155,253.117,335.738,245.59,337.119,276.806"/>
<path fill="#B08011" d="M333.567,289.584c0,0,0.08-1.072,0.282-2.622c0.049-0.389,0.104-0.812,0.16-1.249
	c0.07-0.439,0.098-0.91,0.179-1.386c0.062-0.479,0.131-0.974,0.182-1.478c0.075-0.501,0.128-1.014,0.189-1.522
	c0.062-0.511,0.131-1.021,0.177-1.524c0.058-0.501,0.116-0.997,0.171-1.478c0.053-0.479,0.107-0.943,0.158-1.389
	c0.052-0.438,0.103-0.856,0.15-1.249c0.092-0.775,0.188-1.428,0.256-1.887c0.08-0.461,0.125-0.725,0.125-0.725
	s0.071,0.258,0.193,0.711c0.11,0.453,0.251,1.107,0.341,1.899c0.059,0.395,0.095,0.825,0.121,1.281
	c0.039,0.456,0.046,0.937,0.045,1.435c-0.006,0.497-0.002,1.015-0.051,1.535c-0.036,0.521-0.095,1.05-0.147,1.579
	c-0.08,0.524-0.153,1.052-0.249,1.564c-0.1,0.515-0.221,1.016-0.332,1.501c-0.117,0.483-0.261,0.943-0.396,1.38
	c-0.13,0.436-0.282,0.841-0.426,1.213C334.131,288.666,333.567,289.584,333.567,289.584"/>
<path fill="#610F0C" d="M398.42,370.836c0,0,8.864,12.417,10.247,18.861c0,0-13.813,2.396-17.682,0
	c-3.866-2.394-2.484-18.861-2.484-18.861H398.42z"/>
<path fill="#DC9F0C" d="M402.037,269.605c0,0-0.021,0.39-0.057,1.121c-0.51,10.257-4.31,87.553-3.536,95.03
	c0,0,2.384,5.249,1.744,6.906c-0.638,1.656-11.965,1.933-14.45,0c-2.487-1.934,0.276-3.039,0-10.497
	c-0.276-7.459-8.656-58.563-13.721-80.387C366.953,259.955,399.826,262.956,402.037,269.605"/>
<path fill="#B08011" d="M375.05,295.906c0,0-0.411-0.771-0.799-1.982c-0.096-0.303-0.207-0.63-0.293-0.982
	c-0.089-0.351-0.199-0.72-0.273-1.107c-0.077-0.388-0.154-0.788-0.234-1.196c-0.059-0.41-0.119-0.826-0.178-1.243
	c-0.039-0.419-0.076-0.838-0.113-1.25c-0.041-0.414-0.043-0.823-0.051-1.218c-0.011-0.396-0.006-0.777,0.014-1.141
	c0.011-0.363,0.032-0.706,0.069-1.023c0.052-0.634,0.146-1.162,0.22-1.532c0.085-0.368,0.136-0.58,0.136-0.58
	s0.066,0.206,0.184,0.567c0.104,0.36,0.246,0.874,0.376,1.489c0.071,0.308,0.14,0.641,0.201,0.994
	c0.068,0.353,0.137,0.723,0.188,1.108c0.062,0.384,0.128,0.779,0.171,1.185c0.049,0.404,0.099,0.815,0.147,1.226
	c0.041,0.412,0.083,0.823,0.124,1.229c0.029,0.407,0.059,0.808,0.086,1.195c0.041,0.387,0.035,0.766,0.06,1.123
	c0.024,0.357,0.02,0.7,0.028,1.014C375.139,295.039,375.05,295.906,375.05,295.906"/>
<path fill="#B08011" d="M401.075,287.805c0,0-0.222-1.045-0.357-2.604c-0.032-0.389-0.078-0.812-0.095-1.257
	c-0.02-0.447-0.062-0.917-0.064-1.403c-0.009-0.486-0.019-0.989-0.027-1.499c0.006-0.511,0.015-1.028,0.021-1.547
	c0.023-0.517,0.044-1.035,0.065-1.545c0.017-0.51,0.065-1.011,0.106-1.494c0.035-0.485,0.088-0.954,0.146-1.397
	c0.049-0.443,0.106-0.862,0.174-1.25c0.114-0.774,0.25-1.417,0.355-1.868c0.114-0.449,0.181-0.706,0.181-0.706
	s0.05,0.26,0.138,0.716c0.076,0.456,0.174,1.106,0.241,1.886c0.042,0.391,0.074,0.813,0.097,1.26
	c0.033,0.446,0.056,0.916,0.061,1.401c0.012,0.486,0.029,0.989,0.017,1.5c-0.011,0.51-0.02,1.027-0.029,1.545
	c-0.025,0.519-0.05,1.036-0.074,1.545c-0.04,0.509-0.079,1.011-0.118,1.495c-0.031,0.483-0.103,0.952-0.148,1.396
	c-0.045,0.444-0.115,0.862-0.173,1.25C401.36,286.777,401.075,287.805,401.075,287.805"/>
<path fill="#BD850F" d="M380.3,183.441c0,0-5.549-4.287-11.033-6.014c-4.982-1.57-10.538,4.943-12.195,7.845
	c0,0,2.957,7.018,11.561,5.651C377.237,189.557,377.896,184.27,380.3,183.441"/>
<path fill="#986914" d="M367.774,177.103c0,0,0.295-0.046,0.823-0.043c0.528-0.002,1.294,0.075,2.172,0.337
	c0.435,0.135,0.912,0.286,1.384,0.505c0.476,0.212,0.974,0.442,1.461,0.726c0.488,0.278,0.979,0.58,1.476,0.889
	c0.479,0.32,0.965,0.646,1.452,0.972c0.471,0.328,0.945,0.646,1.419,0.942c0.478,0.287,0.936,0.586,1.398,0.839
	c0.462,0.248,0.909,0.485,1.344,0.684c0.437,0.2,0.86,0.353,1.256,0.495c0.797,0.261,1.501,0.385,2.007,0.426
	c0.506,0.06,0.809,0.052,0.809,0.052s-0.271,0.122-0.784,0.267c-0.511,0.138-1.288,0.256-2.214,0.155
	c-0.46-0.046-0.963-0.125-1.47-0.275c-0.517-0.13-1.042-0.32-1.566-0.553c-0.526-0.226-1.054-0.489-1.567-0.792
	c-0.511-0.304-1.016-0.628-1.512-0.959c-0.476-0.34-0.952-0.681-1.421-1.016c-0.458-0.34-0.907-0.673-1.349-0.977
	c-0.444-0.297-0.857-0.611-1.274-0.864c-0.414-0.26-0.805-0.499-1.18-0.706c-0.747-0.407-1.411-0.685-1.894-0.85
	C368.065,177.184,367.774,177.103,367.774,177.103"/>
</svg>
