<svg version="1.1" id="Layer_1" xmlns="http://www.w3.org/2000/svg" xmlns:xlink="http://www.w3.org/1999/xlink" viewBox="0 0 768 430" enable-background="new 0 0 768 430" xml:space="preserve">
<pattern  width="90.708" height="85.04" patternUnits="userSpaceOnUse" id="ak" viewBox="0 -85.04 90.708 85.04" overflow="visible">
	<g>
		<polygon fill="none" points="0,0 90.708,0 90.708,-85.04 0,-85.04 		"/>
	</g>
</pattern>
<pattern  width="90.708" height="85.04" patternUnits="userSpaceOnUse" id="al" viewBox="0 -85.04 90.708 85.04" overflow="visible">
	<g>
		<polygon fill="none" points="0,0 90.708,0 90.708,-85.04 0,-85.04 		"/>
	</g>
</pattern>
<pattern  width="90.708" height="85.04" patternUnits="userSpaceOnUse" id="am" viewBox="0 -85.04 90.708 85.04" overflow="visible">
	<g>
		<polygon fill="none" points="0,0 90.708,0 90.708,-85.04 0,-85.04 		"/>
	</g>
</pattern>
<pattern  width="90.708" height="85.04" patternUnits="userSpaceOnUse" id="an" viewBox="0 -85.04 90.708 85.04" overflow="visible">
	<g>
		<polygon fill="none" points="0,0 90.708,0 90.708,-85.04 0,-85.04 		"/>
	</g>
</pattern>
<pattern  width="90.708" height="85.04" patternUnits="userSpaceOnUse" id="ao" viewBox="0 -85.04 90.708 85.04" overflow="visible">
	<g>
		<polygon fill="none" points="0,0 90.708,0 90.708,-85.04 0,-85.04 		"/>
	</g>
</pattern>
<pattern  width="90.708" height="85.04" patternUnits="userSpaceOnUse" id="ap" viewBox="0 -85.04 90.708 85.04" overflow="visible">
	<g>
		<polygon fill="none" points="0,0 90.708,0 90.708,-85.04 0,-85.04 		"/>
	</g>
</pattern>
<pattern  width="90.708" height="85.04" patternUnits="userSpaceOnUse" id="aq" viewBox="0 -85.04 90.708 85.04" overflow="visible">
	<g>
		<polygon fill="none" points="0,0 90.708,0 90.708,-85.04 0,-85.04 		"/>
	</g>
</pattern>
<pattern  width="90.708" height="85.04" patternUnits="userSpaceOnUse" id="ar" viewBox="0 -85.04 90.708 85.04" overflow="visible">
	<g>
		<polygon fill="none" points="0,0 90.708,0 90.708,-85.04 0,-85.04 		"/>
	</g>
</pattern>
<pattern  width="90.708" height="85.04" patternUnits="userSpaceOnUse" id="as" viewBox="0 -85.04 90.708 85.04" overflow="visible">
	<g>
		<polygon fill="none" points="0,0 90.708,0 90.708,-85.04 0,-85.04 		"/>
	</g>
</pattern>
<pattern  width="90.708" height="85.04" patternUnits="userSpaceOnUse" id="at" viewBox="0 -85.04 90.708 85.04" overflow="visible">
	<g>
		<polygon fill="none" points="0,0 90.708,0 90.708,-85.04 0,-85.04 		"/>
	</g>
</pattern>
<pattern  width="90.708" height="85.04" patternUnits="userSpaceOnUse" id="au" viewBox="0 -85.04 90.708 85.04" overflow="visible">
	<g>
		<polygon fill="none" points="0,0 90.708,0 90.708,-85.04 0,-85.04 		"/>
	</g>
</pattern>
<pattern  width="90.708" height="85.04" patternUnits="userSpaceOnUse" id="av" viewBox="0 -85.04 90.708 85.04" overflow="visible">
	<g>
		<polygon fill="none" points="0,0 90.708,0 90.708,-85.04 0,-85.04 		"/>
	</g>
</pattern>
<pattern  width="90.708" height="85.04" patternUnits="userSpaceOnUse" id="aw" viewBox="0 -85.04 90.708 85.04" overflow="visible">
	<g>
		<polygon fill="none" points="0,0 90.708,0 90.708,-85.04 0,-85.04 		"/>
	</g>
</pattern>
<pattern  width="90.708" height="85.04" patternUnits="userSpaceOnUse" id="ax" viewBox="0 -85.04 90.708 85.04" overflow="visible">
	<g>
		<polygon fill="none" points="0,0 90.708,0 90.708,-85.04 0,-85.04 		"/>
	</g>
</pattern>
<pattern  width="90.708" height="85.04" patternUnits="userSpaceOnUse" id="ba" viewBox="0 -85.04 90.708 85.04" overflow="visible">
	<g>
		<polygon fill="none" points="0,0 90.708,0 90.708,-85.04 0,-85.04 		"/>
	</g>
</pattern>
<pattern  width="90.708" height="85.04" patternUnits="userSpaceOnUse" id="bb" viewBox="0 -85.04 90.708 85.04" overflow="visible">
	<g>
		<polygon fill="none" points="0,0 90.708,0 90.708,-85.04 0,-85.04 		"/>
	</g>
</pattern>
<pattern  width="90.708" height="85.04" patternUnits="userSpaceOnUse" id="bc" viewBox="0 -85.04 90.708 85.04" overflow="visible">
	<g>
		<polygon fill="none" points="0,0 90.708,0 90.708,-85.04 0,-85.04 		"/>
	</g>
</pattern>
<pattern  width="90.708" height="85.04" patternUnits="userSpaceOnUse" id="bd" viewBox="0 -85.04 90.708 85.04" overflow="visible">
	<g>
		<polygon fill="none" points="0,0 90.708,0 90.708,-85.04 0,-85.04 		"/>
	</g>
</pattern>
<pattern  width="90.708" height="85.04" patternUnits="userSpaceOnUse" id="be" viewBox="0 -85.04 90.708 85.04" overflow="visible">
	<g>
		<polygon fill="none" points="0,0 90.708,0 90.708,-85.04 0,-85.04 		"/>
	</g>
</pattern>
<pattern  width="90.708" height="85.04" patternUnits="userSpaceOnUse" id="bf" viewBox="0 -85.04 90.708 85.04" overflow="visible">
	<g>
		<polygon fill="none" points="0,0 90.708,0 90.708,-85.04 0,-85.04 		"/>
	</g>
</pattern>
<pattern  width="90.708" height="85.04" patternUnits="userSpaceOnUse" id="bg" viewBox="0 -85.04 90.708 85.04" overflow="visible">
	<g>
		<polygon fill="none" points="0,0 90.708,0 90.708,-85.04 0,-85.04 		"/>
	</g>
</pattern>
<pattern  width="90.708" height="85.04" patternUnits="userSpaceOnUse" id="bh" viewBox="0 -85.04 90.708 85.04" overflow="visible">
	<g>
		<polygon fill="none" points="0,0 90.708,0 90.708,-85.04 0,-85.04 		"/>
	</g>
</pattern>
<pattern  width="90.708" height="85.04" patternUnits="userSpaceOnUse" id="bi" viewBox="0 -85.04 90.708 85.04" overflow="visible">
	<g>
		<polygon fill="none" points="0,0 90.708,0 90.708,-85.04 0,-85.04 		"/>
	</g>
</pattern>
<pattern  width="90.708" height="85.04" patternUnits="userSpaceOnUse" id="bj" viewBox="0 -85.04 90.708 85.04" overflow="visible">
	<g>
		<polygon fill="none" points="0,0 90.708,0 90.708,-85.04 0,-85.04 		"/>
	</g>
</pattern>
<pattern  width="90.708" height="85.04" patternUnits="userSpaceOnUse" id="bk" viewBox="0 -85.04 90.708 85.04" overflow="visible">
	<g>
		<polygon fill="none" points="0,0 90.708,0 90.708,-85.04 0,-85.04 		"/>
	</g>
</pattern>
<pattern  width="90.708" height="85.04" patternUnits="userSpaceOnUse" id="bl" viewBox="0 -85.04 90.708 85.04" overflow="visible">
	<g>
		<polygon fill="none" points="0,0 90.708,0 90.708,-85.04 0,-85.04 		"/>
	</g>
</pattern>
<pattern  width="90.708" height="85.04" patternUnits="userSpaceOnUse" id="bm" viewBox="0 -85.04 90.708 85.04" overflow="visible">
	<g>
		<polygon fill="none" points="0,0 90.708,0 90.708,-85.04 0,-85.04 		"/>
	</g>
</pattern>
<pattern  width="90.708" height="85.04" patternUnits="userSpaceOnUse" id="bn" viewBox="0 -85.04 90.708 85.04" overflow="visible">
	<g>
		<polygon fill="none" points="0,0 90.708,0 90.708,-85.04 0,-85.04 		"/>
	</g>
</pattern>
<pattern  width="90.708" height="85.04" patternUnits="userSpaceOnUse" id="bo" viewBox="0 -85.04 90.708 85.04" overflow="visible">
	<g>
		<polygon fill="none" points="0,0 90.708,0 90.708,-85.04 0,-85.04 		"/>
	</g>
</pattern>
<pattern  width="90.708" height="85.04" patternUnits="userSpaceOnUse" id="bp" viewBox="0 -85.04 90.708 85.04" overflow="visible">
	<g>
		<polygon fill="none" points="0,0 90.708,0 90.708,-85.04 0,-85.04 		"/>
	</g>
</pattern>
<pattern  width="90.708" height="85.04" patternUnits="userSpaceOnUse" id="bq" viewBox="0 -85.04 90.708 85.04" overflow="visible">
	<g>
		<polygon fill="none" points="0,0 90.708,0 90.708,-85.04 0,-85.04 		"/>
	</g>
</pattern>
<pattern  width="90.708" height="85.04" patternUnits="userSpaceOnUse" id="br" viewBox="0 -85.04 90.708 85.04" overflow="visible">
	<g>
		<polygon fill="none" points="0,0 90.708,0 90.708,-85.04 0,-85.04 		"/>
	</g>
</pattern>
<pattern  width="90.708" height="85.04" patternUnits="userSpaceOnUse" id="bs" viewBox="0 -85.04 90.708 85.04" overflow="visible">
	<g>
		<polygon fill="none" points="0,0 90.708,0 90.708,-85.04 0,-85.04 		"/>
	</g>
</pattern>
<g transform="translate(2.7571 4.098)">
	<g transform="translate(72.966 2.5868)">
		
			<radialGradient id="SVGID_1_" cx="-0.2631" cy="145.9026" r="131.4105" gradientTransform="matrix(1.6873 -1.0073 -0.9278 -1.5541 469.4988 422.4509)" gradientUnits="userSpaceOnUse">
			<stop  offset="0" style="stop-color:#C68A58"/>
			<stop  offset="0.3676" style="stop-color:#C68A58"/>
			<stop  offset="0.5818" style="stop-color:#775232"/>
			<stop  offset="1" style="stop-color:#613F23"/>
		</radialGradient>
		<path fill="url(#SVGID_1_)" stroke="#FF0000" stroke-width="0.6616" d="M302.058,339.434c-19.311,3.762-25.368,5.653-41.203-6.46
			c-8.999-6.884-16.653-1.103-19.267-15.698c-2.017-11.262-19.212-18.837-18.791-32.974c0.218-7.318,1.447-15.304,0.673-22.576
			c-6.061-6.739,1.696-20.085,1.696-28.744c0-23.271,25.941-1.486,35.617,6.002c-5.309-9.89-8.286-17.661-17.484-23.96
			c-3.701-2.534-11.489-4.869-8.792-9.39c3.293-5.52,6.586-11.04,9.879-16.56c6.856,5.107,19.016,19.705,28.272,15.163
			c-2.115-3.545-4.149-9.334-7.418-11.863c-2.533-1.959-13.524-7.953-14.066-10.881c-0.311-1.681,4.787-13.598,6.218-14.532
			c4.529,0.794,8.757-1.7,12.665,1.949c3.641,3.4,4.291,5.963,9.386,7.528c-1.233-11.726-4.854-25.987-13.676-34.373
			c-8.281-7.871-9.105-6.762-3.232-16.386c4.018-6.583,2.908-10.269,2.207-18.105c9.083,0.634,18.425,5.083,20.919-5.685
			c0.742-3.205-1.536-9.015-2.094-12.288c-1.956-11.477,17.833-0.97,20.188,0.28c1.896-4.832-3.647-33.66,9.61-25.903
			c3.519,2.059,6.36,16.763,7.912,20.852c7.634-7.108,10.299-14.228,20.072-9.478c11.861,5.764,6.753,12.577,0.285,21.48
			c2.446,1.671,8.605,7.825,11.289,6.321c8.018-4.489,11.022-7.357,18.765,0.524c6.822,6.945-7.838,24.204-11.397,30.431
			c6.481,0.225,23.431-2.034,26.008,7.581c2.59,9.662-20.192,19.386-7.348,29.062c4.491-4.463,8.95-11.937,16.207-10.783
			c19.658,3.126,5.771,20.968-4.338,27.838c13.854,2.977,25.862,8.952,10.74,20.218c15.17,9.687,1.416,14.769-5.652,22.744
			c-4.915,5.545-7.837,14.889-11.307,21.479c10.245-7.285,19.602-14.178,28.63-22.889c5.188-5.008,15.439-0.611,11.162,7.092
			c-3.275,5.897-6.55,11.795-9.825,17.692c10.734-0.998,15.296-3.88,16.138,9.55c0.801,12.764-3.093,25.59-11.766,35.14
			c-2.197,2.469-4.786,4.42-7.765,5.854c-0.028,3.356-0.688,6.574-1.976,9.652c-1.832,3.723-5.223,4.499-9.032,4.149
			c-10.1-0.927-4.879,14.845-18.182,15.074c-7.718,0.133-9.291,6.82-17.188,7.898c-5.941,0.812-7.889-4.023-11.948,0.728
			c-6.803,7.962-6.929,13.216-15.458,6.404c-7.364-5.881-9.33-3.926-18.629-1.698C312.807,348.323,307.106,342.491,302.058,339.434z
			"/>
		<g transform="translate(8.875,18.25)">
			<path fill="#A05A2C" stroke="#FF0000" stroke-width="1.3563" d="M291.711,220.692c8.193-0.293,20.61-1.074,25.21,8.402
				c4.12,8.488,0.452,21.118-7.004,25.674c-2.947-6.262-4.401-15.153-11.439-16.807C291.508,236.325,292.833,227.24,291.711,220.692
				z"/>
			<path fill="#502D16" stroke="#0000FF" stroke-width="1.3563" d="M318.32,226.76c5.374-6.865,8.149-11.58,16.805-14.003
				c2.852,18.994,3.349,30.441-16.805,36.408C318.32,241.696,318.32,234.228,318.32,226.76z"/>
			<path fill="#A05A2C" stroke="#FF0000" stroke-width="1.3563" d="M270.704,216.489c2.179,4.513,4.358,9.026,6.538,13.539
				c-10.662,2.405-15.623,4.158-24.211,10.838c0.25-9.652,0.397-16.431-2.631-25.543C257.168,215.712,263.936,216.1,270.704,216.489
				z"/>
			<path fill="#784421" stroke="#0000FF" stroke-width="1.3563" d="M270.239,214.155c3.734-6.536,7.467-13.071,11.201-19.607
				c3.281,4.784,9.524,10.839,11.206,16.338c1.046,3.422-2.354,6.065-0.607,11.469c1.614,4.99,1.499,9.68,0.136,14.676
				C277.24,231.248,276.586,228.838,270.239,214.155z"/>
			<path fill="#A05A2C" stroke="#FF0000" stroke-width="1.3563" d="M271.169,175.876c0,3.324-1.729,12.265,0,14.939
				c10.02,4.493,18.121,10.523,22.41,21.007c6.808-4.583,2.505-11.538,0.833-17.86C292.637,187.252,276.439,183.21,271.169,175.876z
				"/>
			<path fill="#502D16" stroke="#0000FF" stroke-width="1.3563" d="M293.111,187.547c6.069-6.846,12.138-13.692,18.207-20.538
				c5.551,7.272,8.787,17.223,7.813,25.694c-1.452,12.641-11.947,7.868-21.818,13.983
				C295.913,200.306,294.512,193.927,293.111,187.547z"/>
			<path fill="#502D16" stroke="#FF0000" stroke-width="1.3563" d="M315.986,154.405c5.968-7.496,7.886-12.268,17.738-16.338
				c0.571,6.516,4.939,21.399,2.082,27.112c-4.896,9.79-9.792,19.58-14.688,29.369C319.043,181.152,316.566,167.992,315.986,154.405
				C320.185,149.13,316.757,172.479,315.986,154.405z"/>
			<path fill="#C87137" stroke="#00FF00" stroke-width="1.3563" d="M290.311,157.204c1.556-2.956,3.112-5.912,4.668-8.867
				c2.93,2.302,18.901,5.203,19.294,7.391c0.807,4.503,3.506,12.357,1.853,16.788c-1.141,3.058-6.988-7.959-7.092-8.115
				C305.501,159.063,295.767,158.995,290.311,157.204z"/>
			<path fill="#A05A2C" stroke="#00FF00" stroke-width="1.3563" d="M323.455,191.75c3.968,1.901,21.854,7.589,22.545,11.538
				c2.598,14.846,5.114,16.426-7.145,25.336c-2.699-8.732-3.383-19.094-12.601-24.244
				C318.367,199.972,320.113,200.102,323.455,191.75z"/>
			<path fill="#502D16" stroke="#FF0000" stroke-width="1.3563" d="M346.794,202.02c5.134-4.668,10.269-9.336,15.402-14.004
				c-0.89,7.632-1.778,15.264-2.668,22.896c-0.84,7.211-4.861,7.336-11.336,10.71C347.727,215.088,347.26,208.554,346.794,202.02z"
				/>
			<path fill="#A05A2C" stroke="#0000FF" stroke-width="1.3563" d="M327.656,182.878c2.365-11.193,11.292-21.831,17.271-31.277
				c1.203,5.415,0.589,11.693,5.947,13.9c9.646,3.973,13.606,2.459,10.36,12.722C362.334,174.75,330.557,181.859,327.656,182.878z"
				/>
			<path fill="#784421" stroke="#00FF00" stroke-width="1.3563" d="M334.189,139.931c3.423-5.29,6.847-10.58,10.27-15.869
				c5.639,5.62,8.207,13.221,8.871,21.006c-9.03,3.346-12.642,12.731-16.807,20.537
				C335.344,156.898,333.291,148.827,334.189,139.931z"/>
			<path fill="#502D16" stroke="#00FF00" stroke-width="1.3563" d="M363.132,172.607c4.284-5.31,8.675-11.569,8.692-18.708
				c0.013-5.264,0.131-7.804,6.712-9.3c0.529,9.141,3.666,20.193-1.849,28.137c-4.83,6.959-9.661,13.918-14.491,20.877
				C361.177,185.459,361.226,180.608,363.132,172.607z"/>
			<path fill="#502D16" stroke="#0000FF" stroke-width="1.3563" d="M265.571,155.339c-2.846,2.841-3.958,6.897-5.324,10.574
				c-5.354,14.409-0.774,18.412,12.327,24.902c-0.426-5.659-2.436-13.127-1.405-18.673
				C273.245,160.974,275.525,163.797,265.571,155.339z"/>
			<path fill="#A05A2C" stroke="#FF0000" stroke-width="1.3563" d="M268.37,146.933c9.951-3.479,9.037-3.883,13.583,5.51
				c3.796,7.844,0.161,8.153-6.115,14.096C273.349,160.004,270.859,153.469,268.37,146.933z"/>
			<path fill="#784421" stroke="#0000FF" stroke-width="1.3563" d="M277.707,142.734c1.105-9.962,5.384-16.39,12.135-23.341
				c1.845,2.196,10.657,10.195,9.287,12.569c-3.627,6.286-6.688,9.595-5.792,16.771c0.856,6.854-2.702,7.789-8.323,9.112
				C282.201,158.509,278.829,145.582,277.707,142.734z"/>
			<path fill="#784421" stroke="#0000FF" stroke-width="1.3563" d="M222.154,228.624c7.612,5.22,13.62,10.816,22.769,12.124
				c12.466,1.78,12.356,6.039,18.314,17.29c-11.692-1.426-16.811-0.644-24.587-8.99c-4.228-4.538-12.306-1.879-15.562-5.484
				C221.236,241.511,222.339,231.579,222.154,228.624z"/>
			<path fill="#A05A2C" stroke="#FF0000" stroke-width="1.3563" d="M236.159,211.356c-3.06,3.058-16.688,6.3-17.738,9.802
				c-1.872,6.237,9.096,11.508,12.605,13.54c-4.028-10.146,4.164-14.072,12.604-17.274
				C241.14,215.401,238.649,213.379,236.159,211.356z"/>
			<path fill="#784421" stroke="#00FF00" stroke-width="1.3563" d="M262.768,252.434c7.71,2.925,21.019,4.57,26.977-2.394
				c1.788-2.09,11.378-11.342,13.657-6.944c2.354,4.543,10.922,19.124,2.778,23.807c-1.946,1.119-19.559-4.195-23.505-4.555
				C272.017,261.38,265.681,263.817,262.768,252.434z"/>
			<path fill="#502D16" stroke="#FF0000" stroke-width="1.3563" d="M306.179,99.787c-1.527,10.496-1.67,20.818-7.001,30.343
				c4.027-1.208,22.844-2.994,23.021-4.582C323.353,115.202,312.286,108.699,306.179,99.787
				C304.617,110.523,310.443,106.01,306.179,99.787z"/>
			<path fill="#784421" stroke="#0000FF" stroke-width="1.3563" d="M322.99,117.525c3.026-4.044,8.182-7.177,12.135-10.271
				c0.731,9.359,0.412,18.348-1.4,27.543C323.257,128.76,321.335,129.643,322.99,117.525z"/>
			<path fill="#C87137" stroke="#FF0000" stroke-width="1.3563" d="M333.259,96.518c3.428-3.069,7.049-9.263,10.999-6.132
				c6.513,5.163,9.527,10.893,10.937,19.202c-1.379,8.11-15.047,20.298-20.07,27.074
				C335.464,123.074,335.329,110.024,333.259,96.518z"/>
			<path fill="#A05A2C" stroke="#0000FF" stroke-width="1.3563" d="M309.449,259.435c6.612,3.606,13.225,7.213,19.837,10.819
				c2.37,1.293,0.317,14.241,0.235,17.192c-8.031-2.142-14.535-4.247-22.873-3.27c1.605-4.145,5.435-10.074,5.604-14.469
				C312.424,265.217,303.56,267.41,309.449,259.435z"/>
			<path fill="#502D16" stroke="#FF0000" stroke-width="1.3563" d="M330.925,272.041c6.654-2.548,17.658-17.326,22.469-11.685
				c3.749,4.397,7.351,13.015-0.232,14.12c-8.447,1.23-15.786,4.151-22.707,9.235C330.612,279.821,330.768,275.931,330.925,272.041z
				"/>
			<path fill="#A05A2C" stroke="#00FF00" stroke-width="1.3563" d="M330.925,245.432c3.933-7.882,4.217-11.875,12.778-11.12
				c7.648,0.675,9.204,0.428,14.527,5.751c8.498,8.497,3.511,21.848,2.565,33.378C355.455,258.799,345.097,251.409,330.925,245.432z
				"/>
			<path fill="#784421" stroke="#0000FF" stroke-width="1.3563" d="M366.867,206.219c5.139-0.053,10.186,0.356,15.014,2.287
				c10.753,4.302,1.924,11.941-3.809,17.319c-2.59-6.729-9.765-9.142-16.338-9.8C363.445,212.757,365.156,209.487,366.867,206.219z"
				/>
			<path fill="#784421" stroke="#FF0000" stroke-width="1.3563" d="M360.796,197.352c5.604-7.78,11.207-15.56,16.811-23.34
				c0.459,11.535,1.034,12.104,10.264,19.137c-13.596,1.695-22.298,9.979-28.008,21.941
				C360.174,209.178,360.485,203.265,360.796,197.352z"/>
			<path fill="#502D16" stroke="#0000FF" stroke-width="1.3563" d="M363.132,243.097c4.046-3.269,8.093-6.536,12.139-9.805
				c-7.499,2.822-3.771,34.043-4.668,34.547c0.105-0.06-7.053-1.446-8.406-1.4C362.508,258.659,362.821,250.878,363.132,243.097z"/>
			<path fill="#784421" stroke="#FF0000" stroke-width="1.3563" d="M371.07,242.63c11.789-11.229,21.856-27.985,33.194-9.093
				c4.873,8.12-27.06,19.853-33.661,22.632C370.758,251.656,370.915,247.142,371.07,242.63z"/>
			<path fill="#A05A2C" stroke="#00FF00" stroke-width="1.3563" d="M294.509,90.45c-1.312,8.665-2.625,17.33-3.938,25.994
				c-1.114,7.353,4.131,10.138,9.076,15.554c3.656-11.068,7.284-21.238,6.067-33.146C304.011,95.707,297.43,92.64,294.509,90.45z"/>
			<path fill="#28170B" stroke="#FF0000" stroke-width="1.3563" d="M276.712,103.844c-3.802,14.776-0.042,12.701,13.863,18.153
				C290.189,106.854,288.748,111.697,276.712,103.844z"/>
			<path fill="#784421" stroke="#0000FF" stroke-width="1.3563" d="M279.106,84.384c6.499-2.093,11.528-8.827,15.403-14.006
				c-0.778,10.27-1.556,20.539-2.334,30.809c-7.112-0.984-12.68-5.872-18.671-9.336C275.191,89.602,276.893,86.085,279.106,84.384z"
				/>
			<path fill="#A05A2C" stroke="#FF0000" stroke-width="1.3563" d="M313.652,68.51c2.864-1.592,5.161-4.539,6.533-7.467
				c10.92,8.733,19.384,27.627,0,31.742C321.525,84.457,316.824,75.85,313.652,68.51C317.851,66.176,317.308,76.971,313.652,68.51z"
				/>
		</g>
		<g transform="translate(8.875,18.25)" opacity="0.36">
			
				<pattern  id="SVGID_2_" xlink:href="#ba" patternTransform="matrix(2.3807 0 0 -2.8942 10797.0977 -27767.2832)"  opacity="0.36">
			</pattern>
			<path fill="url(#SVGID_2_)" stroke="#FF0000" stroke-width="1.3563" d="M291.711,220.692c8.193-0.293,20.61-1.074,25.21,8.402
				c4.12,8.488,0.452,21.118-7.004,25.674c-2.947-6.262-4.401-15.153-11.439-16.807C291.508,236.325,292.833,227.24,291.711,220.692
				z"/>
			
				<pattern  id="SVGID_3_" xlink:href="#bb" patternTransform="matrix(2.8942 0 0 -2.5675 15085.3809 -25222.1074)"  opacity="0.36">
			</pattern>
			<path fill="url(#SVGID_3_)" stroke="#0000FF" stroke-width="1.3563" d="M318.32,226.76c5.374-6.865,8.149-11.58,16.805-14.003
				c2.852,18.994,3.349,30.441-16.805,36.408C318.32,241.696,318.32,234.228,318.32,226.76z"/>
			
				<pattern  id="SVGID_4_" xlink:href="#bc" patternTransform="matrix(2.9876 0 0 -2.7075 15644.8809 -26342.3906)"  opacity="0.36">
			</pattern>
			<path fill="url(#SVGID_4_)" stroke="#FF0000" stroke-width="1.3563" d="M270.704,216.489c2.179,4.513,4.358,9.026,6.538,13.539
				c-10.662,2.405-15.623,4.158-24.211,10.838c0.25-9.652,0.397-16.431-2.631-25.543C257.168,215.712,263.936,216.1,270.704,216.489
				z"/>
			<pattern  id="SVGID_5_" xlink:href="#bd" patternTransform="matrix(2.334 0 0 -2.4274 10517.3418 -24062.1348)"  opacity="0.36">
			</pattern>
			<path fill="url(#SVGID_5_)" stroke="#0000FF" stroke-width="1.3563" d="M270.239,214.155c3.734-6.536,7.467-13.071,11.201-19.607
				c3.281,4.784,9.524,10.839,11.206,16.338c1.046,3.422-2.354,6.065-0.607,11.469c1.614,4.99,1.499,9.68,0.136,14.676
				C277.24,231.248,276.586,228.838,270.239,214.155z"/>
			
				<pattern  id="SVGID_6_" xlink:href="#be" patternTransform="matrix(3.0809 0 0 -2.9876 16416.1035 -28575.0039)"  opacity="0.36">
			</pattern>
			<path fill="url(#SVGID_6_)" stroke="#FF0000" stroke-width="1.3563" d="M271.169,175.876c0,3.324-1.729,12.265,0,14.939
				c10.02,4.493,18.121,10.523,22.41,21.007c6.808-4.583,2.505-11.538,0.833-17.86C292.637,187.252,276.439,183.21,271.169,175.876z
				"/>
			
				<pattern  id="SVGID_7_" xlink:href="#bf" patternTransform="matrix(2.8009 0 0 -3.0343 13950.0059 -28744.6504)"  opacity="0.36">
			</pattern>
			<path fill="url(#SVGID_7_)" stroke="#0000FF" stroke-width="1.3563" d="M293.111,187.547
				c6.069-6.846,12.138-13.692,18.207-20.538c5.551,7.272,8.787,17.223,7.813,25.694c-1.452,12.641-11.947,7.868-21.818,13.983
				C295.913,200.306,294.512,193.927,293.111,187.547z"/>
			<pattern  id="SVGID_8_" xlink:href="#bg" patternTransform="matrix(3.1276 0 0 -2.7542 16640.8066 -26674.791)"  opacity="0.36">
			</pattern>
			<path fill="url(#SVGID_8_)" stroke="#FF0000" stroke-width="1.3563" d="M315.986,154.405c5.968-7.496,7.886-12.268,17.738-16.338
				c0.571,6.516,4.939,21.399,2.082,27.112c-4.896,9.79-9.792,19.58-14.688,29.369C319.043,181.152,316.566,167.992,315.986,154.405
				C320.185,149.13,316.757,172.479,315.986,154.405z"/>
			<pattern  id="SVGID_9_" xlink:href="#bh" patternTransform="matrix(3.0809 0 0 -3.221 16416.1055 -30050.4551)"  opacity="0.36">
			</pattern>
			<path fill="url(#SVGID_9_)" stroke="#00FF00" stroke-width="1.3563" d="M290.311,157.204c1.556-2.956,3.112-5.912,4.668-8.867
				c2.93,2.302,18.901,5.203,19.294,7.391c0.807,4.503,3.506,12.357,1.853,16.788c-1.141,3.058-6.988-7.959-7.092-8.115
				C305.501,159.063,295.767,158.995,290.311,157.204z"/>
			
				<pattern  id="SVGID_10_" xlink:href="#bi" patternTransform="matrix(2.6608 0 0 -2.8475 12907.5039 -27387.2422)"  opacity="0.36">
			</pattern>
			<path fill="url(#SVGID_10_)" stroke="#00FF00" stroke-width="1.3563" d="M323.455,191.75c3.968,1.901,21.854,7.589,22.545,11.538
				c2.598,14.846,5.114,16.426-7.145,25.336c-2.699-8.732-3.383-19.094-12.601-24.244
				C318.367,199.972,320.113,200.102,323.455,191.75z"/>
			
				<pattern  id="SVGID_11_" xlink:href="#bj" patternTransform="matrix(2.2874 0 0 -2.8009 10212.1895 -27023.0781)"  opacity="0.36">
			</pattern>
			<path fill="url(#SVGID_11_)" stroke="#FF0000" stroke-width="1.3563" d="M346.794,202.02c5.134-4.668,10.269-9.336,15.402-14.004
				c-0.89,7.632-1.778,15.264-2.668,22.896c-0.84,7.211-4.861,7.336-11.336,10.71C347.727,215.088,347.26,208.554,346.794,202.02z"
				/>
			
				<pattern  id="SVGID_12_" xlink:href="#bk" patternTransform="matrix(3.3143 0 0 -2.8009 17971.5234 -27023.0762)"  opacity="0.36">
			</pattern>
			<path fill="url(#SVGID_12_)" stroke="#0000FF" stroke-width="1.3563" d="M327.656,182.878
				c2.365-11.193,11.292-21.831,17.271-31.277c1.203,5.415,0.589,11.693,5.947,13.9c9.646,3.973,13.606,2.459,10.36,12.722
				C362.334,174.75,330.557,181.859,327.656,182.878z"/>
			
				<pattern  id="SVGID_13_" xlink:href="#bl" patternTransform="matrix(3.221 0 0 -3.5477 17331.5723 -32944.9648)"  opacity="0.36">
			</pattern>
			<path fill="url(#SVGID_13_)" stroke="#00FF00" stroke-width="1.3563" d="M334.189,139.931c3.423-5.29,6.847-10.58,10.27-15.869
				c5.639,5.62,8.207,13.221,8.871,21.006c-9.03,3.346-12.642,12.731-16.807,20.537
				C335.344,156.898,333.291,148.827,334.189,139.931z"/>
			
				<pattern  id="SVGID_14_" xlink:href="#bm" patternTransform="matrix(2.8942 0 0 -3.221 15085.3809 -30050.4551)"  opacity="0.36">
			</pattern>
			<path fill="url(#SVGID_14_)" stroke="#00FF00" stroke-width="1.3563" d="M363.132,172.607c4.284-5.31,8.675-11.569,8.692-18.708
				c0.013-5.264,0.131-7.804,6.712-9.3c0.529,9.141,3.666,20.193-1.849,28.137c-4.83,6.959-9.661,13.918-14.491,20.877
				C361.177,185.459,361.226,180.608,363.132,172.607z"/>
			
				<pattern  id="SVGID_15_" xlink:href="#bn" patternTransform="matrix(2.9876 0 0 -3.1276 15644.8828 -29639.707)"  opacity="0.36">
			</pattern>
			<path fill="url(#SVGID_15_)" stroke="#0000FF" stroke-width="1.3563" d="M265.571,155.339c-2.846,2.841-3.958,6.897-5.324,10.574
				c-5.354,14.409-0.774,18.412,12.327,24.902c-0.426-5.659-2.436-13.127-1.405-18.673
				C273.245,160.974,275.525,163.797,265.571,155.339z"/>
			
				<pattern  id="SVGID_16_" xlink:href="#bo" patternTransform="matrix(2.8942 0 0 -3.361 15085.3809 -31297.7656)"  opacity="0.36">
			</pattern>
			<path fill="url(#SVGID_16_)" stroke="#FF0000" stroke-width="1.3563" d="M268.37,146.933c9.951-3.479,9.037-3.883,13.583,5.51
				c3.796,7.844,0.161,8.153-6.115,14.096C273.349,160.004,270.859,153.469,268.37,146.933z"/>
			
				<pattern  id="SVGID_17_" xlink:href="#bp" patternTransform="matrix(2.8009 0 0 -2.9409 13950.0078 -27913.1133)"  opacity="0.36">
			</pattern>
			<path fill="url(#SVGID_17_)" stroke="#0000FF" stroke-width="1.3563" d="M277.707,142.734c1.105-9.962,5.384-16.39,12.135-23.341
				c1.845,2.196,10.657,10.195,9.287,12.569c-3.627,6.286-6.688,9.595-5.792,16.771c0.856,6.854-2.702,7.789-8.323,9.112
				C282.201,158.509,278.829,145.582,277.707,142.734z"/>
			
				<pattern  id="SVGID_18_" xlink:href="#bq" patternTransform="matrix(3.4077 0 0 -3.4544 18560.6719 -32097.5469)"  opacity="0.36">
			</pattern>
			<path fill="url(#SVGID_18_)" stroke="#0000FF" stroke-width="1.3563" d="M222.154,228.624c7.612,5.22,13.62,10.816,22.769,12.124
				c12.466,1.78,12.356,6.039,18.314,17.29c-11.692-1.426-16.811-0.644-24.587-8.99c-4.228-4.538-12.306-1.879-15.562-5.484
				C221.236,241.511,222.339,231.579,222.154,228.624z"/>
			
				<pattern  id="SVGID_19_" xlink:href="#br" patternTransform="matrix(3.0343 0 0 -3.1276 15899.2324 -29639.707)"  opacity="0.36">
			</pattern>
			<path fill="url(#SVGID_19_)" stroke="#FF0000" stroke-width="1.3563" d="M236.159,211.356c-3.06,3.058-16.688,6.3-17.738,9.802
				c-1.872,6.237,9.096,11.508,12.605,13.54c-4.028-10.146,4.164-14.072,12.604-17.274
				C241.14,215.401,238.649,213.379,236.159,211.356z"/>
			
				<pattern  id="SVGID_20_" xlink:href="#bs" patternTransform="matrix(2.9876 0 0 -2.9876 15644.8848 -28575.0039)"  opacity="0.36">
			</pattern>
			<path fill="url(#SVGID_20_)" stroke="#00FF00" stroke-width="1.3563" d="M262.768,252.434c7.71,2.925,21.019,4.57,26.977-2.394
				c1.788-2.09,11.378-11.342,13.657-6.944c2.354,4.543,10.922,19.124,2.778,23.807c-1.946,1.119-19.559-4.195-23.505-4.555
				C272.017,261.38,265.681,263.817,262.768,252.434z"/>
			
				<pattern  id="SVGID_21_" xlink:href="#ak" patternTransform="matrix(3.4544 0 0 -3.4544 18992.8574 -32097.5469)"  opacity="0.36">
			</pattern>
			<path fill="url(#SVGID_21_)" stroke="#FF0000" stroke-width="1.3563" d="M306.179,99.787c-1.527,10.496-1.67,20.818-7.001,30.343
				c4.027-1.208,22.844-2.994,23.021-4.582C323.353,115.202,312.286,108.699,306.179,99.787
				C304.617,110.523,310.443,106.01,306.179,99.787z"/>
			
				<pattern  id="SVGID_22_" xlink:href="#al" patternTransform="matrix(2.7075 0 0 -2.8009 13026.3516 -27023.0762)"  opacity="0.36">
			</pattern>
			<path fill="url(#SVGID_22_)" stroke="#0000FF" stroke-width="1.3563" d="M322.99,117.525c3.026-4.044,8.182-7.177,12.135-10.271
				c0.731,9.359,0.412,18.348-1.4,27.543C323.257,128.76,321.335,129.643,322.99,117.525z"/>
			
				<pattern  id="SVGID_23_" xlink:href="#am" patternTransform="matrix(2.7542 0 0 -2.8942 13619.4473 -27767.2832)"  opacity="0.36">
			</pattern>
			<path fill="url(#SVGID_23_)" stroke="#FF0000" stroke-width="1.3563" d="M333.259,96.518c3.428-3.069,7.049-9.263,10.999-6.132
				c6.513,5.163,9.527,10.893,10.937,19.202c-1.379,8.11-15.047,20.298-20.07,27.074
				C335.464,123.074,335.329,110.024,333.259,96.518z"/>
			
				<pattern  id="SVGID_24_" xlink:href="#an" patternTransform="matrix(3.0809 0 0 -3.3143 16416.1035 -30774.8105)"  opacity="0.36">
			</pattern>
			<path fill="url(#SVGID_24_)" stroke="#0000FF" stroke-width="1.3563" d="M309.449,259.435
				c6.612,3.606,13.225,7.213,19.837,10.819c2.37,1.293,0.317,14.241,0.235,17.192c-8.031-2.142-14.535-4.247-22.873-3.27
				c1.605-4.145,5.435-10.074,5.604-14.469C312.424,265.217,303.56,267.41,309.449,259.435z"/>
			
				<pattern  id="SVGID_25_" xlink:href="#ao" patternTransform="matrix(3.0343 0 0 -2.9876 15899.2324 -28575.0039)"  opacity="0.36">
			</pattern>
			<path fill="url(#SVGID_25_)" stroke="#FF0000" stroke-width="1.3563" d="M330.925,272.041
				c6.654-2.548,17.658-17.326,22.469-11.685c3.749,4.397,7.351,13.015-0.232,14.12c-8.447,1.23-15.786,4.151-22.707,9.235
				C330.612,279.821,330.768,275.931,330.925,272.041z"/>
			
				<pattern  id="SVGID_26_" xlink:href="#ap" patternTransform="matrix(2.5208 0 0 -2.7542 11941.2207 -26674.793)"  opacity="0.36">
			</pattern>
			<path fill="url(#SVGID_26_)" stroke="#00FF00" stroke-width="1.3563" d="M330.925,245.432c3.933-7.882,4.217-11.875,12.778-11.12
				c7.648,0.675,9.204,0.428,14.527,5.751c8.498,8.497,3.511,21.848,2.565,33.378C355.455,258.799,345.097,251.409,330.925,245.432z
				"/>
			
				<pattern  id="SVGID_27_" xlink:href="#aq" patternTransform="matrix(3.4544 0 0 -3.4077 18992.8574 -31836.5938)"  opacity="0.36">
			</pattern>
			<path fill="url(#SVGID_27_)" stroke="#0000FF" stroke-width="1.3563" d="M366.867,206.219c5.139-0.053,10.186,0.356,15.014,2.287
				c10.753,4.302,1.924,11.941-3.809,17.319c-2.59-6.729-9.765-9.142-16.338-9.8C363.445,212.757,365.156,209.487,366.867,206.219z"
				/>
			
				<pattern  id="SVGID_28_" xlink:href="#ar" patternTransform="matrix(3.2677 0 0 -2.9409 17509.6973 -27913.1113)"  opacity="0.36">
			</pattern>
			<path fill="url(#SVGID_28_)" stroke="#FF0000" stroke-width="1.3563" d="M360.796,197.352c5.604-7.78,11.207-15.56,16.811-23.34
				c0.459,11.535,1.034,12.104,10.264,19.137c-13.596,1.695-22.298,9.979-28.008,21.941
				C360.174,209.178,360.485,203.265,360.796,197.352z"/>
			
				<pattern  id="SVGID_29_" xlink:href="#as" patternTransform="matrix(3.221 0 0 -2.8475 17331.5723 -27387.2422)"  opacity="0.36">
			</pattern>
			<path fill="url(#SVGID_29_)" stroke="#0000FF" stroke-width="1.3563" d="M363.132,243.097c4.046-3.269,8.093-6.536,12.139-9.805
				c-7.499,2.822-3.771,34.043-4.668,34.547c0.105-0.06-7.053-1.446-8.406-1.4C362.508,258.659,362.821,250.878,363.132,243.097z"/>
			
				<pattern  id="SVGID_30_" xlink:href="#at" patternTransform="matrix(3.0809 0 0 -2.7542 16416.1035 -26674.791)"  opacity="0.36">
			</pattern>
			<path fill="url(#SVGID_30_)" stroke="#FF0000" stroke-width="1.3563" d="M371.07,242.63
				c11.789-11.229,21.856-27.985,33.194-9.093c4.873,8.12-27.06,19.853-33.661,22.632
				C370.758,251.656,370.915,247.142,371.07,242.63z"/>
			
				<pattern  id="SVGID_31_" xlink:href="#au" patternTransform="matrix(3.0809 0 0 -3.1276 16416.1035 -29639.707)"  opacity="0.36">
			</pattern>
			<path fill="url(#SVGID_31_)" stroke="#00FF00" stroke-width="1.3563" d="M294.509,90.45c-1.312,8.665-2.625,17.33-3.938,25.994
				c-1.114,7.353,4.131,10.138,9.076,15.554c3.656-11.068,7.284-21.238,6.067-33.146C304.011,95.707,297.43,92.64,294.509,90.45z"/>
			
				<pattern  id="SVGID_32_" xlink:href="#av" patternTransform="matrix(3.1276 0 0 -3.8745 16640.8066 -35462.3516)"  opacity="0.36">
			</pattern>
			<path fill="url(#SVGID_32_)" stroke="#FF0000" stroke-width="1.3563" d="M276.712,103.844
				c-3.802,14.776-0.042,12.701,13.863,18.153C290.189,106.854,288.748,111.697,276.712,103.844z"/>
			
				<pattern  id="SVGID_33_" xlink:href="#aw" patternTransform="matrix(2.9876 0 0 -2.7075 15644.8809 -26342.3906)"  opacity="0.36">
			</pattern>
			<path fill="url(#SVGID_33_)" stroke="#0000FF" stroke-width="1.3563" d="M279.106,84.384c6.499-2.093,11.528-8.827,15.403-14.006
				c-0.778,10.27-1.556,20.539-2.334,30.809c-7.112-0.984-12.68-5.872-18.671-9.336C275.191,89.602,276.893,86.085,279.106,84.384z"
				/>
			
				<pattern  id="SVGID_34_" xlink:href="#ax" patternTransform="matrix(3.1743 0 0 -2.9409 16560.6348 -27913.1133)"  opacity="0.36">
			</pattern>
			<path fill="url(#SVGID_34_)" stroke="#FF0000" stroke-width="1.3563" d="M313.652,68.51c2.864-1.592,5.161-4.539,6.533-7.467
				c10.92,8.733,19.384,27.627,0,31.742C321.525,84.457,316.824,75.85,313.652,68.51C317.851,66.176,317.308,76.971,313.652,68.51z"
				/>
		</g>
		<path shape-rendering="auto" image-rendering="auto" color-rendering="auto" d="M308.673,58.934
			c-14.76-0.799,1.179,24.688-6.63,26.301c-4.778,0.986-19.118-11.512-21.829,3.19c-0.836,4.533,6.246,17.62-1.517,16.518
			c-4.949-0.703-13.374-4.145-17.055,1.093c-2.054,2.923-1.977,6.584-0.906,9.804c2.164,6.507-1.333,7.44-4.673,12.664
			c-8.011,12.525,11.059,14.273,10.839,25.079c-1.753,7.79,12.071,11.94,11.278,17.973c1.25-9.511-25.973-11.713-29.771,1.246
			c-2.008,6.85,0.141,11.291,5.549,15.534c0.904,0.709,15.354,12.116,13.399,13.434c-1.958,1.32-11.019-8.933-11.802-10.651
			c-9.941-6.627-16.275-3.452-22.267,5.567c-13.19,19.856,14.359,17.113,19.766,33.068c-2.048-6.044-16.358-10.306-22.208-10.164
			c-16.789,0.403-7.458,15.241-9.5,24.11c-4.454,19.355-5.587,52.62,8.988,69.619c4.983,5.812,3.684,4.128,6.524,11.358
			c1.964,5.001,6.511,8.686,11.207,10.988c4.279,2.098,9.663,3.617,14.427,2.38c2.154,5.474,7.677,7.601,13.138,7.965
			c9.497,0.633,21.831-7.395,30.116-1.711c8.461,5.804,14.2,11.477,22.793,1.544c4.594,3.01,9.442,16.037,16.912,10.623
			c11.009-1.23,6.173-19.937,19.516-9.167c9.238,0.843,9.236-16.327,18.879-9.542c7.34,2.757,21.692-10.67,13.717-16.538
			c4.491,2.33,10.992,1.972,14.881-1.427c2.666-2.33,3.335-5.787,2.585-9.146c-1.679-7.516,0.909-5.096,6.359-10.437
			c9.528-9.336,16.614-31.514,12.026-45.066c-1.377-4.068-11.851-5.97-11.791-6.265c1.451-7.205,10.307-10.749,7.312-19.168
			c-3.484-9.798-13.248-9.217-19.441-2.868c-3.974,4.074-18.189,14.978-19.719,19.268c2.696-7.562,10.437-14.647,16.751-18.913
			c10.58-7.146,7.86-11.117,2.776-20.19c-0.477-0.85,3.698-7.419,2.51-11.411c-1.916-6.434-14.357-8.287-14.608-9.407
			c-1.475-6.592,16.397-10.239,12.293-21.519c-2.043-5.613-8.668-7.368-14.023-7.24c-2.145,0.051-16.282,6.44-15.942,6.683
			c-2.547-1.819,7.066-13.587,8.352-14.861c9.953-9.873-4.343-19.759-14.245-18.464c-10.553,1.381-6.874-1.974-1.442-7.787
			c5.566-5.958,9.413-12.504,4.003-20.268c-4.373-6.273-14.666-10.749-21.401-5.358c-2.551,2.041-8.63,4.431-8.173-2.25
			c0.31-4.487,7.396-6.664,7.8-12.127c1.364-18.477-33.824-15.477-31.798-3.14C321.501,73,318.728,58.185,308.673,58.934z
			 M309.061,68.014c17.109,3.326,2.657,15.447-2.817,19.885C307.955,84.168,303.16,68.841,309.061,68.014z M338.039,79.183
			c11.371-3.884,4.752,22.438,1.389,6.346C339.017,82.247,331.025,80.547,338.039,79.183z M329.939,83.095
			c9.082,3.779,9.664,23.349,1.682,23.587C332.146,98.987,322.509,89.007,329.939,83.095z M292.398,90.426
			c12.337-3.966-0.045,10.284-3.177,9.754C282.853,96.767,287.617,91.168,292.398,90.426z M313.406,88.706
			c6.995-2.188,9.732,6.342,11.146,11.351c2.136,7.564,0.521,11.403-8.377,12.936c-2.272,0.392-12.264-6.448-12.879-9.369
			C302.022,97.573,307.815,90.324,313.406,88.706z M300.235,94.186c0.303,2.752,1.768,15.912-0.73,17.675
			c-2.473,1.733-7.095-6.88-7.671-7.993C291.493,102.353,299.831,97.152,300.235,94.186z M288.305,106.522
			c1.735,1.227,9.858,6.826,9.113,9.459C297.375,116.132,283.644,114.444,288.305,106.522z M271.775,109.863
			c4.183-0.433,28.354,9.116,26.358,13.802C297.724,124.625,255.751,115.999,271.775,109.863z M341.148,102.465
			c13.445-4.6,1.113,17.505-1.443,5.315C339.882,105.925,340.443,104.146,341.148,102.465z M360.296,100.983
			c10.607-1.381,9.199,22.694,3.168,17.775C361.74,108.045,345.794,108.846,360.296,100.983z M304.78,112.899
			c10.629,1.641,7.44,20.013,4.671,26.779c-2.734,6.681-7.003,0.376-7.539-3.502C299.97,128.095,306.859,120.974,304.78,112.899z
			 M268.051,122.984c3.652,4.065,10.549,0.23,13.57,3.311c1.883,1.921-11.534,11.026-13.439,11.869
			C259.39,142.058,262.721,126.33,268.051,122.984z M332.187,112.826c18.876,1.747,2.325,22.589-2.363,19.518
			C319.331,125.471,316.125,113.86,332.187,112.826z M350.691,109.74c23.057,2.195-1.594,33.399-4.805,39.674
			C348.108,139.191,338.75,115.576,350.691,109.74z M287.023,126.238c0.395,0.333,15.911,9.486,6.963,8.991
			C288.629,134.933,284.695,131.458,287.023,126.238z M316.759,126.575c3.822,3.983,7.646,7.967,11.468,11.95
			c3.416,3.559-14.862,5.928-16.509,7.793C314.873,140.231,316.336,133.374,316.759,126.575z M280.24,137.029
			c14.459,1.558,9.579,10.031,4.166,21.094C279.774,167.588,264.744,140.776,280.24,137.029z M341.855,130.87
			c3.383,11.675-4.24,23.924-7.977,9.92C334.822,137.07,337.804,131.996,341.855,130.87z M298.435,143.223
			c5.031,2.89,5.486,6.916,3.529,11.917c-1.079,2.755-2.226,16.606-3.369,17.286c-5.436-3.614-5.547,1.036-7.212-7.03
			C284.849,156.366,294.108,149.174,298.435,143.223z M364.503,137.183c5.4-1.248,16.091-0.189,16.161,7.462
			c0.034,3.668-5.264,15.328-9.706,15.383C362.543,160.132,352.601,140.361,364.503,137.183z M323.912,148.366
			c4.133-2.173,11.32,0.99,13.305,4.974c1.062,2.132-9.901,10.687-12.111,13.546c-4.231,5.474-15.149,3.782-19.13-1.586
			C299.247,156.225,318.153,149.284,323.912,148.366C330.468,144.919,318.765,149.186,323.912,148.366z M353.334,146.98
			c13.98,6.884-4.396,29.554-6.644,28.643C338.437,172.28,350.997,151.288,353.334,146.98z M262.589,169.431
			c11.004-1.386,7.435,15.4,2.681,18.942C260.102,192.223,251.461,174.476,262.589,169.431
			C269.391,168.575,257.821,171.593,262.589,169.431z M285.802,166.264c1.472,4.148,7.882,9.263,1.677,11.733
			C284.284,182.137,279.984,163.624,285.802,166.264z M339.294,160.537c1.921,17.932,1.431,28.876-8.717,44.63
			C328.05,192.941,320.256,164.902,339.294,160.537z M275.163,177.596c4.592,3.176,8.637,6.322,2.845,11.169
			c-4.324,3.371,1.538,9.618,0.243,13.512c-1.676,5.037-7.806-7.945-7.773-7.727C269.949,190.988,271.418,179.679,275.163,177.596z
			 M299.929,176.985c4.766,1.195,12.689,1.882,15.746,6.312c2.216,3.21-11.104,18.028-14.251,20.085
			c-4.424,2.893-17.568-4.318-18.284-9.38C282.057,186.351,293.976,178.635,299.929,176.985z M368.125,165.981
			c13.589,0.021,10.324,22.588-0.935,19.398c-5.151-1.459-14.217-9.733-9.614-15.697
			C359.478,167.217,364.954,166.743,368.125,165.981z M304.434,170.498c4.828-0.023,10.424,1.332,14.781,3.342
			c1.697,0.783,6.998,8.897,3.098,9.919c-5.415-6.704-12.299-7.159-19.589-10.438C303.293,172.38,303.863,171.439,304.434,170.498z
			 M391.513,163.952c15.426-3.742,8.268,15.746-0.916,19.471C393.658,177.569,387.3,165.62,391.513,163.952z M384.798,167.627
			c1.649,7.481,2.53,16.463-1.475,23.408c-0.864,1.5-10.101,12.44-10.047,12.592c-3.567-6.625,4.401-13.858,7.149-19.146
			C383.159,179.222,382.853,172.44,384.798,167.627z M247.153,194.431c12.77,3.768,19.647,20.148,9.947,30.94
			c3.2-3.56-19.21-16.173-18.515-18.1C240.345,202.404,245.711,199.581,247.153,194.431z M352.113,177.897
			c1.354,9.79,14.785,8.281,16.891,15.409c-7.939-3.792-18.829-1.115-25.902,3.369C339.528,196.271,350.632,180.184,352.113,177.897
			z M320.716,189.563c2.358,6.978,5.425,14.132,5.974,21.558c0.832,11.255-12.915,2.587-19.025,8.799
			C300.255,207.514,313.319,197.729,320.716,189.563z M283.787,202.4c8.953,5.217,21.247,9.909,18.426,22.753
			C298.759,217.265,283.631,209.542,283.787,202.4z M269.965,207.793c6.131-0.648,10.945,3.853,15.992,6.377
			c-6.22,4.108-4.187,21.572-14.748,17.036C257.084,233.773,262.454,210.192,269.965,207.793
			C276.001,207.156,265.584,209.193,269.965,207.793z M355.496,197.344c21.893-7.426,5.455,30.784-8.238,16.083
			C324.988,210.04,345.501,199.377,355.496,197.344z M390.097,192.458c6.578-2.517,22.031,3.209,10.525,10.302
			C392.839,208.974,383.039,199.204,390.097,192.458z M383.826,199.25c-1.062,2.484,2.613,11.935,5.422,11.47
			c-6.893,3.775-14.477,5.821-17.355,14.045C370.876,214.654,378.603,207.02,383.826,199.25z M233.536,226.319
			c12.054-0.511,6.811,5.106-0.282,7.742C226.567,238.572,228.317,226.944,233.536,226.319z M290.187,217.197
			c2.707,2.485,4.884,5.369,6.532,8.65c2.317,5.42-2.342,7.376,0.065,11.939c1.216,2.307,5.751,10.83,2.724,13.213
			C290.525,258.069,278.153,226.609,290.187,217.197z M332.085,213.592c5.557,3.969,13.562,2.886,18.503,8.104
			c4.938,5.217,5.93,18.077-2.44,20.31C349.992,228.029,329.793,222.657,332.085,213.592z M367.513,212.028
			c0.946,4.184,0.244,21.399-5.49,22.584C350.941,236.903,365.145,213.993,367.513,212.028z M247.104,232.643
			c3.827,1.405-11.909,10.544-11.028,15.74C224.406,240.55,240.48,234.778,247.104,232.643z M312.853,223.307
			c6.528-0.793,24.781-3.427,25.916,6.718c-7.601-0.375-7.341,10.969-13.364,12.761c-2.656,0.79-8.338-4.744-9.861-5.409
			c-1.492-0.652-13.104,0.354-14.209-1.375C300.362,234.48,311.696,224.5,312.853,223.307z M398.962,212.848
			c8.595-0.646,8.013,6.127,2.76,10.442c-7.388,6.07-13.248-2.909-21.145-1.147C386.126,218.107,392.536,215.175,398.962,212.848
			C410.773,211.96,392.775,215.088,398.962,212.848z M264.463,236.427c2.039,0.357,23.796,1.647,16.911,9.356
			C274.234,253.778,268.111,239.423,264.463,236.427z M247.431,240.261c11.583,3.771,13.225,2.065,11.488,14.272
			C257.723,262.935,228.389,249.879,247.431,240.261z M227.752,248.535c3.1,5.301,0.036,16.025-1.911,5.807
			C226.216,252.25,227.861,250.736,227.752,248.535z M232.921,250.47c8.349,2.607,14.281,9.527,23.341,12.04
			c4.609,1.278,10.929,4.082,11.455,10.396c0.184,2.204-16.58-5.09-18.154-6.271C242.691,261.473,232.742,260.907,232.921,250.47z
			 M377.003,226.868c4.153,2.028,20.844,0.939,12.934,9.303c-2.899,8.206-13.97-7.448-15.588-5.735
			C375.234,229.246,376.119,228.057,377.003,226.868z M265.315,246.354c6.679,3.028-4.545,14.119-0.478,3.36L265.315,246.354z
			 M341.988,234.977c3.086,9.138,2.19,24.124-8.688,27.783C321.813,266.624,332.208,238.657,341.988,234.977z M304.776,242.36
			c6.282,0,15.813,0.973,17.982,8.341c0.619,2.104,2.453,18.625-2.666,16.743c-3.033-1.115-4.376-7.479-5.802-9.978
			c-1.197-2.097-2.898-4.372-5.483-4.777C302.985,251.777,306.361,247.395,304.776,242.36z M282.233,251.343
			c8.546,3.021,16.973,6.654,25.971,8.154c-4.719-0.365-7.529,3.063-10.337,6.228c-4.398,4.955-8.946,3.77-14.822,4.437
			C265.326,272.172,264.782,254.17,282.233,251.343z M374.638,237.428c12.149,1.221,6.469,14.152,0.462,19.25
			c-4.81,4.082-5.789-0.484-9.144-3.93c-3.607-3.706-12.882-0.478-15.155-4.638C348.496,243.89,372.159,237.77,374.638,237.428z
			 M418.209,230.714c9.699-0.692-0.062,10.652-1.938,13.645c-2.886,8.633-6.035-6.863-10.635-4.167
			C409.522,237.149,412.406,230.446,418.209,230.714z M227.847,264.228c6.086-0.415,12.473-1.152,17.546,3.626
			C257.776,277.951,228.764,262.862,227.847,264.228z M229.061,271.91c7.084-3.378,18.517,6.861,11.301,12.349
			C233.701,288.15,224.78,279.697,229.061,271.91z M347.595,254.272c5.881,2.644,24.893,1.772,21.508,14.485
			c0.899,4.867-0.491,11.078-0.711,16.046c-2.713-7.983-9.074-14.574-16.382-18.571C340.17,259.756,346.722,265.412,347.595,254.272
			z M398.804,246.328c5.29-3.152,11.373,1.816,10.018,7.641c-1.779,7.643-20.316,13.508-26.693,16.127
			C382.734,259.531,391.319,252.565,398.804,246.328z M306.81,265.149c8.292-3.103,10.283,9.833,6.32,14.614
			c-2.444,2.949-6.069,1.126-8.381-0.94c-10.053-0.316-20.012,1.459-29.145-4.003c7.194-1.55,14.742,2.023,21.852-0.346
			C302.934,272.648,302.201,267.249,306.81,265.149z M248.84,277.501c6.233-0.641,47.784,4.142,29.941,15.861
			C268.472,300.133,245.531,291.301,248.84,277.501z M379,259.927c-2.689,4.611-1.828,26.713-5.283,21.484
			C374.279,273.79,372.931,265.477,379,259.927z M336.162,267.375c5.163,0.28,12.925,1.837,16.407,6.069
			c3.084,3.748-5.122,12.122-8.519,12.832c-6.001,1.254-12.372-5.018-17.467-7.588C316.094,273.397,330.532,268.219,336.162,267.375
			z M229.78,288.774c3.77,4.978,11.583-0.27,5.293,7.492C233.601,302.8,230.519,290.018,229.78,288.774z M415.304,257.902
			c4.915-3.097,10.882-1.033,10.602,5.335c-0.249,5.657-6.95,8.313-11.021,11.165c-5.843,4.093-12.637,2.997-11.848-6.698
			C403.388,263.395,411.996,260.267,415.304,257.902z M244.523,291.517c4.763,6.924,14.709,3.684,19.547,9.857
			c1.691,7.093-3.533,5.496-8.078,4.031c-6.245-2.013-10.396,2.954-15.594,1.571C234.308,305.357,242.565,293.383,244.523,291.517z
			 M299.579,283.817c4.994,1.29,12.248,1.338,16.074,5.314c3.989,4.147-1.188,12.227-5.805,13.348
			c-4.045,0.983-12.659-5.325-16.946-6.968C281.305,291.069,292.735,285.719,299.579,283.817z M318.918,281.456
			c4.781,1.573,10.045,2.946,13.938,6.334c2.593,2.256,4.107,15.337,1.242,13.877C333.017,301.117,319.663,279.675,318.918,281.456z
			 M397.605,269.517c3.063,5.396-15.421,5.221-15.766,8.607C382.294,273.653,394.599,270.935,397.605,269.517z M359.638,279.844
			c10.051,11.062-7.489,12.216-15.414,16.341c-4.944,2.574-1.893-3.68,3.561-5.08C354.119,289.478,353.474,282.69,359.638,279.844z
			 M394.025,278.649c15.426-5.192,5.28,16.031-6.58,18.235c-0.174-3.04-7.342-10.507-4.296-12.653
			C386.29,282.018,390.685,280.731,394.025,278.649z M281.417,298.186c4.31,1.06,33.122,8.579,18.165,15.327
			C290.258,317.719,260.776,300.999,281.417,298.186z M424.728,274.327c0.059,0.723,0.004,12.814-2.544,11.335
			c-0.876-2.746-2.839-4.085-5.889-4.016C414.891,280.052,423.562,275.133,424.728,274.327z M323.074,292.721
			C334.376,302.236,311.902,301.076,323.074,292.721z M373.375,289.151c9.094-1.812,10.133,15.036,4.75,10.759
			C378.966,294.541,372.271,293.716,373.375,289.151z M248.9,310.295c10.908-2.781,11.597,8.415,18.453,14.173
			C260,332.085,237.84,319.102,248.9,310.295z M269.158,308.517c3.704,6.488,28.214,7.07,17.227,18.156
			c-4.485,4.525-11.945-4.41-15.136-6.729C263.511,314.318,267.073,315.526,269.158,308.517z M362.593,295.174
			c6.24-1.357,12.537,4.424,8.106,10.448c-2.967,4.034-14.762,6.812-19.651,6.382C330.22,310.167,356.174,296.331,362.593,295.174z
			 M409.716,287.343c13.029-4.098,6.012,17.05-3.574,14.354C398.156,303.803,404.882,287.177,409.716,287.343z M314.234,306.078
			c7.982-1.13,16.725-2.286,23.195,3.748c5.118,1.234,8.924,7.835,2.706,10.795c-3.975,1.893-13.185,0.256-16.931-1.947
			C322.134,318.044,305.365,304.485,314.234,306.078z M397.64,299.331c2.789,9.219-13.763,21.421-18.927,12.138
			C375.732,306.11,394.188,300.802,397.64,299.331z M306.814,315.064c3.913,5.358,14.219,3.593,17.182,10.218
			c4.729,10.573-24.058,1.985-27.955-3.486C297.561,318.081,304.626,318.763,306.814,315.064
			C310.068,319.521,304.77,318.52,306.814,315.064z M272.002,327.152c4.263,7.8,18.222,5.896,16.854,11.544
			C284.256,340.477,262.881,334.457,272.002,327.152z M370.644,312.984c18.411,0.841-11.055,16.652-14.73,17.716
			c-1.702-1.765-12.256-7.904-7.397-10.926C355.049,315.713,364.891,317.788,370.644,312.984z M401.794,307.925
			c9.361-4.964,5.934,13.254-1.436,6.947C400.015,312.406,400.97,310.145,401.794,307.925z M292.13,327.27
			c4.048,5.991,18.383,5.822,17.989,9.911C305.533,341.009,284.657,333.85,292.13,327.27z M334.781,325.762
			c8.32-0.537,24.211,9.391,7.918,13.179C337.054,335.824,320.097,331.001,334.781,325.762z M388.375,319.312
			c13.5,9.655-20.246,12.326-8.084,5.162C382.839,322.594,385.664,321.022,388.375,319.312z M317.75,336.335
			c8.73-0.184,16.002,4.356,3.471,6.908C314.121,342.816,312.179,341.612,317.75,336.335z M370.751,331.835
			c-10.455,15.892-17.572,2.471-5.469,2.205L370.751,331.835z M335.041,340.792c4.217,7.961,22.225-3.657,10.324,4.818
			C341.646,347.58,334.043,348.364,335.041,340.792z"/>
	</g>
</g>
</svg>
