<svg xmlns="http://www.w3.org/2000/svg" viewBox="0 0 768 430"><style>.a{fill:#A7D8CF;}.b{fill:#C78C59;}.c{fill:#3C3C3B;}.d{fill:#D19E66;}</style><path d="M337.7 220.5c-1.5-0.8-2.8 0.2-4.2 0.7 -0.3 0.1-0.5 0-0.7-0.1 -2.2 1.9-3.4 4.5-3.2 7.7 0.2 4 3.1 6.9 7.2 5.2 3.8-1.5 4.5-6.1 3.5-9.6C339.8 223.1 339 221.3 337.7 220.5z" class="a"/><path d="M397.5 274.1c16-0.4 31.9-0.3 47.9-0.2 0.2-10.6 0.3-21.1 0.4-31.7 -17.1-0.5-34.1 1.1-51.2 0.9 -15.7-0.2-31.3-1.5-47-1.7 0.1 0.3 0.2 0.7 0.2 1 -0.1 0-0.2 0.1-0.3 0.1 -0.3 0.1-0.7 0.5-0.5 0.9 0.1 0.1 0.1 0.3 0.1 0.4 -0.1 0.2-0.2 0.3-0.1 0.6 0.3 1.5 0.4 3 0.5 4.5 0 0 0 0.1 0 0.1v5.8c0 0.1 0 0.2 0.1 0.3 0 0.4 0 0.8 0 1.2 -0.1 0.5-0.1 0.9-0.2 1.4 -0.2 1-0.3 2.9-0.7 3.5 0 0 0 0 0 0 -0.1 0.1-0.1 0.3-0.1 0.5 0 0 0 0 0 0 0 0.1 0.1 0.2 0.2 0.3 -0.4 1.5-0.4 3 0.1 4.5 0 2.6 0.2 5.3 0.4 7.9C363.7 272.5 381 274.6 397.5 274.1z" class="b"/><path d="M347 73.5c1.2 19.4 1.2 38.9 1 58.3 7 1.1 14.4-0.3 21.4-0.1 7.6 0.1 15.3 0.3 22.9 0.4 8.4 0.1 16.8 0.4 25.2 0 8.8-0.4 18.2 0.5 26.8-0.9 0.1 0 0.1 0 0.2 0 0.6-11.7 1.1-23.4 1.2-35.2 0.1-5.2 0-10.3-0.1-15.5 -0.1-2.4 0.7-6.1-1-7.8 -1.5-1.5-4.3-0.9-6.4-0.9 -10.3-0.2-20.7-0.1-31 0.1 -10.3 0.2-20.7 0.4-31 0.6 -5.2 0.1-10.3 0.1-15.5 0.2 -2.1 0-11.7-1.3-14.6-0.4C346.7 72.5 347 72.9 347 73.5zM426.7 78.3c4.2-0.9 8.7-0.6 13-0.6 1 0 1 1.6 0 1.6 -4.3 0-8.8 0.3-13-0.6C426.5 78.6 426.5 78.4 426.7 78.3zM429.6 82.4c-0.4 0-0.4-0.6 0-0.6 3.1-0.3 6.2-0.4 9.4-0.5 1 0 1 1.6 0 1.6C435.8 82.8 432.7 82.8 429.6 82.4zM433.1 86.1c2.5-0.6 5.1-0.7 7.5 0.2 1.1 0.4 0.6 2.1-0.5 1.7 -2.2-0.8-4.6-1.2-7-1.2C432.8 86.7 432.7 86.2 433.1 86.1zM436.2 90.4c0.7 0.3 1.8 0.2 2.5 0.2 1.1 0 2.1-0.1 3.2-0.1 1 0 1.2 1.5 0.2 1.8 -1.2 0.3-2.5 0.2-3.6 0 -1.1-0.2-1.7-0.7-2.6-1.3C435.6 90.8 435.8 90.3 436.2 90.4zM438.1 96.8c1.1-0.3 2.1-0.3 3.2-0.1 0.9 0.2 2 0.3 2.4 1.2 0.1 0.2 0 0.4-0.2 0.5 -0.8 0.4-1.4-0.1-2.2-0.2 -1-0.2-2.1-0.3-3.1-0.4C437.8 97.6 437.6 96.9 438.1 96.8zM439 103.1c1.1-0.1 2.7-0.5 3.8-0.1 0.7 0.3 0.7 1.1 0 1.4 -1.1 0.4-2.6 0-3.8-0.1C438.2 104.2 438.2 103.2 439 103.1zM442.9 115.6c-0.7 0.6-1.7 0.1-2.5 0 -0.5-0.1-0.5-0.7 0-0.7 0.8-0.1 1.8-0.6 2.5 0C443.1 115 443.1 115.4 442.9 115.6zM443.9 110.7c-0.3 0-0.5 0-0.8-0.1 -0.2-0.1-0.5-0.2-0.7-0.3 -0.6-0.1-1.3-0.2-1.9-0.2 -0.6 0-0.9-0.8-0.3-1.1 1.4-0.7 4-0.8 4.4 1.1C444.6 110.4 444.3 110.7 443.9 110.7zM423.1 76.2c6.5-1.6 14.2-1.4 20.9-1.4 1.1 0 1.1 1.7 0 1.7 -6.7-0.1-14.3 1.6-20.9 0C423 76.4 423 76.2 423.1 76.2z" class="b"/><path d="M418.9 133.7c-8.8 0.5-17.7 0.2-26.5 0 -8.9-0.1-17.8-0.4-26.7-0.4 -5.9 0-11.9 1-17.7-0.3 0 2.5 0 5 0 7.5 16 0.9 32.5 0.8 48.6 0.3 15.3-0.4 32.4-3.7 47.5-0.1 0.1-2.6 0.3-5.1 0.4-7.7C436.1 134.3 427.4 133.3 418.9 133.7z" class="a"/><path d="M418.6 141.8c-9.2 0-18.3 0.6-27.5 0.8 -9 0.1-18.1-0.3-27.1-0.3 -5.2 0-10.9 1.1-15.9-0.6 0 8.7-0.1 17.5 0.1 26.2 0.2 12 0.4 24 0.1 35.9 -0.1 2.2 0.5 8.4-0.4 12.6 6.5-0.5 12.9 0.3 19.5 0.5 8 0.3 15.9-1.1 23.9-1.4 17.1-0.6 34.3-0.3 51.5-0.9 0.6-19.1-0.3-38.1 0.6-57.2 0.2-4.9 0.5-9.8 0.7-14.6C435.8 141 426.9 141.7 418.6 141.8z" class="b"/><path d="M393.8 50.6c-23.1 0.8-46.2-0.1-69.3 0.2 -0.1 0-0.2 0-0.2 0 1.6 26.7 0.5 53.9 0.5 80.7 0 26.8 0 53.6 0.5 80.3 0.9 52.1-0.4 104.3 1.3 156.3 0 0 0 0 0 0 3.8-0.7 8 0.3 11.9-0.1 4.5-0.5 9-1.3 13.5-1.6 13-0.7 26.1-0.1 39.1-0.3 13.6-0.3 27.1-0.7 40.7-0.7 9.8 0 20.8 3 30.4 0.4 -1.6-51.2 0.4-102.6 0-153.9 -0.2-26.8-0.1-53.6 0.1-80.3 0.2-26.8-0.5-54 1.2-80.8 0 0 0 0-0.1 0C440.2 50.6 417.1 49.8 393.8 50.6zM455.8 346.1c1.1-0.4 2.2-0.4 3.3 0.2 0.6 0.3 0.2 1.4-0.5 1.1 -0.9-0.3-1.8-0.5-2.7-0.6C455.5 346.8 455.4 346.3 455.8 346.1zM455.7 349.1c1-0.4 2.3-0.5 3.4-0.4 0.9 0.1 0.9 1.3 0 1.4 -1.1 0.1-2.4 0.1-3.4-0.4C455.4 349.6 455.4 349.2 455.7 349.1zM455.4 352.1c1.1-0.2 2.1-0.3 3.2-0.7 1-0.4 1.5 1.3 0.5 1.7 -1.2 0.4-2.4 0.5-3.6 0.1C454.9 353 454.8 352.2 455.4 352.1zM454.3 354.9c0.7-0.4 1.5-0.5 2.3-0.5 0.9-0.1 1.8-0.2 2.7 0 0.8 0.1 0.8 1.4 0 1.6 -0.9 0.1-1.8 0-2.7 0 -0.8-0.1-1.6-0.1-2.3-0.5C454.1 355.3 454.1 355 454.3 354.9zM451.5 357.1c2.6-0.6 5.3-0.4 8-0.5 0.9 0 0.9 1.4 0 1.4 -2.6 0-5.4 0.1-8-0.5C451.3 357.5 451.3 357.1 451.5 357.1zM458.8 361.1c-1.7-0.1-3.3-0.3-5-0.2 -1.5 0.1-3 0.3-4.4-0.1 -0.3-0.1-0.3-0.6 0-0.6 2.8-0.5 6.9-1.4 9.6-0.3C459.5 360.2 459.5 361.2 458.8 361.1zM343.7 216.9c-0.7 0.4 0-1.2 0.1-2.3 0.1-1.8 0.3-3.5 0.3-5.3 0.2-4.5 0.2-9 0.2-13.6 0-11.2-0.2-22.4-0.5-33.6 -0.8-29.6-0.7-59.2 0-88.8 0-0.4 0.1-0.7 0.3-0.9 -0.4-0.4-0.5-1 0-1.5 1.4-1.6 3.4-0.9 5.5-0.9 4.7 0 9.4 0 14.1-0.1 8.9-0.1 17.8-0.3 26.8-0.5 18.8-0.4 37.6-0.8 56.4-0.2 0.8 0 1.3 0.6 1.3 1.3 1.2 24.8-0.3 49.5-1.4 74.2 -0.6 12.5-1.1 24.9-1.1 37.4 0 11.4 1.3 22.8 1.1 34.3 0 1.2-0.9 2-2.1 2.1 -16.9 0.9-33.8 0.5-50.7 0.7 -8.1 0.1-16.1 1.4-24.2 1.4 -8.2 0-16.4-1.7-24.6-0.3C343.2 220.7 341.7 218 343.7 216.9zM338 236.3c-11.6 4.4-13.6-14.1-4.9-17.7 3.2-3.2 8 0.4 9.4 4.1C344.3 227.6 343.3 234.3 338 236.3zM393.9 348.3c-8 0-16.1 0.4-24-0.2 -7.6-0.5-15.1-2.3-22.5 0.7 -0.9 0.4-1.8-0.6-1.9-1.4 -0.4-18.9 1.9-37.7 0.9-56.7 -0.5-8.6-1.4-17.4-1.4-26 -0.1 0-0.1-0.1-0.1-0.1 0.2-1.2 0.3-2.3 0.3-3.5 0-0.4-0.3-0.6-0.6-0.7 0.5-6.7 1.5-13.9-0.8-20.2 -0.4-1 0.5-2 1.5-2.1 0.1-0.1 0.2-0.1 0.3 0 16.4 0 32.7 1.3 49.1 1.6 17.6 0.3 35.3-1.4 52.9-0.8 0.9 0 1.7 0.8 1.7 1.7 -0.2 16.8-0.2 33.6-1 50.4 -0.9 17.9 0 35.8-0.8 53.7 0 0.8-0.6 1.5-1.5 1.5C428.6 345.8 411.3 348.2 393.9 348.3zM458.1 365.2c-1.9 0.3-3.8 0-5.7-0.2 -1.9-0.1-3.8-0.2-5.6-0.7 -0.3-0.1-0.2-0.5 0.1-0.5 2-0.2 4 0 6 0.1 1.7 0.1 3.6 0 5.2 0.6C458.4 364.6 458.5 365.1 458.1 365.2zM461.3 362.6c-4 0.5-8.2 0-12.2 0 -0.3 0-0.3-0.5 0-0.5 4 0 8.3-0.5 12.2 0C461.6 362.1 461.6 362.5 461.3 362.6z" class="b"/><path d="M430.9 284.1c-4 0-8.1-0.4-12.1-0.5 -8.2-0.2-16.4 0-24.6 0.1 -15.2 0.3-31.4 1.7-46.4-1.2 0.1 1.3 0.2 2.6 0.3 4 1.2 19.6-0.2 39.2 0.3 58.8 6.3-1.8 12.8-0.8 19.3-0.2 7.8 0.7 15.7 0.4 23.6 0.3 17.8-0.1 35.6-2.4 53.4-2.3 0.6-17.4-0.6-34.8 0.2-52.2 0.1-2.5 0.2-5 0.3-7.5C440.6 282.8 435.6 284.1 430.9 284.1z" class="b"/><path d="M398.4 281.8c8.6-0.2 17.3-0.3 26 0 6.8 0.2 14.3-1.6 20.9-0.4 0.1-1.8 0.1-3.7 0.2-5.5 -16-0.6-31.8-0.4-47.8 0.2 -16.3 0.6-33.9 1.4-50.2-0.6 0.1 1.9 0.3 3.9 0.4 5.8C364.7 281.5 381.4 282.2 398.4 281.8z" class="a"/><path d="M475.5 282.9c0.1-13.9 0.2-27.8 0.2-41.7 0-14.3-2.6-28.7-1.8-42.9 1.7-28.4 2.7-56.8 3.2-85.2 0.3-13.9-0.5-27.8-0.2-41.7 0.3-13.4 0.8-26.8-1.6-40 -14.7-1.1-29.2 0.8-43.9 0.9 -13.7 0.1-27.5-0.6-41.3-0.7 -28.1-0.2-56.2 0.6-84.3-0.1 3 24.1 1.7 49 2.3 73.1 0.5 24.3 0.5 48.6 1.6 72.9 0.1 2 0.1 3.9 0.2 5.9 0.7-0.2 1.4-0.3 2.1-0.6 1.3-0.4 1.9 1.6 0.6 2.1 -0.9 0.3-1.6 0.3-2.5 0.2 0 0-0.1 0-0.1 0 0.5 21.3-0.5 42.4-0.4 63.7 0.1 23.9 1.3 47.7 0.9 71.6 -0.1 6-0.4 12.1-0.6 18.1 0.7-0.1 1.5-0.1 2 0.4 0.4 0.5 0.4 1.2 0 1.6 -0.5 0.6-1.4 0.4-2.1 0.3 -0.5 11.1-0.9 22.2-0.5 33.4 0 0.1 0 0.3 0 0.4 4.4-0.2 8.7-0.4 13.1-0.5 -0.1-0.2-0.1-0.4-0.1-0.6 -0.1-2.1-0.1-4.1-0.2-6.2 -1.2 0.1-2.5-0.1-3.5-0.9 -0.5-0.4-0.1-1.2 0.5-1.2 1 0 1.9 0.1 2.9 0.1 -1.6-51.1 0.4-102.3 0-153.4 -0.2-26-0.1-52 0.1-78 -2 0.1-4.1-0.2-6.1-0.6 -0.9-0.2-0.6-1.5 0.2-1.6 1.9-0.1 3.9 0 5.9 0.1 0-0.1 0-0.2 0-0.3 0.2-26.9-0.5-54.2 1.2-81.1 -1-0.9-0.6-3.1 1.2-3.2 23.1-0.9 46.2 0.3 69.3-0.4 23.3-0.7 46.3 0.5 69.6 0.5 1.7 0 2 2.1 1 3 1.6 26.1 0.6 52.5 0.6 78.7 0.1 0 0.1 0 0.2 0.1 0.4 0.3 1.1 0 1.5-0.2 0.6-0.3 1.4-0.2 1.8 0.5 0.3 0.6 0.2 1.5-0.5 1.8 -1 0.4-2.1 0.7-3 0.4 0 0 0 0.1 0 0.1 0 1.1 0 2.1 0 3.2 0.7-0.2 1.4-0.2 2.1 0 1.2 0.3 0.7 2.2-0.5 1.9 -0.5-0.1-1-0.2-1.6-0.3 0 25.2 0.1 50.4 0.5 75.5 0.4 22.6 0.4 45.3 0.4 68 1.1-0.2 2.2-0.2 3.2-0.1 1 0.1 1 1.8 0 1.9 -1 0.2-2.2 0.1-3.2-0.1 0 30.6-0.1 61.2 1 91.8 3.3-0.3 6.6-0.6 9.9-0.9 0-0.1 0-0.3 0-0.4C476.3 342.3 475.3 312.6 475.5 282.9zM470.5 40.6c-0.2 0.2-0.4 0.1-0.5-0.1 -0.2-0.3-0.2-0.7-0.3-1 -0.5-0.1-1.1-0.4-1.6-0.4 -0.7 0-0.7-1.1 0-1.1 0.8 0 1.5 0.2 2.3 0.4 0.2 0 0.5 0.3 0.4 0.6C470.8 39.5 470.9 40.2 470.5 40.6zM473 38.7c-0.1 0.6-1.1 0.5-1.1-0.1 0-1.4-0.3-2.1-1.8-2.3 -1-0.1-2.1 0-3.1-0.4 -0.2-0.1-0.2-0.3 0-0.3C469.5 34.5 473.7 35.1 473 38.7zM472.7 34c-2.4-0.9-5.1 0.7-7.5-0.1 -0.3-0.1-0.4-0.5-0.1-0.7 2.4-1 6.4-1.7 8.8-0.2 2.2 1.3 1.2 4.1 1.7 6.2 0.2 0.7-0.9 1-1.1 0.3C473.9 37.7 474.6 34.8 472.7 34z" class="b"/><path d="M447.5 344.6c0.8-17.9-0.1-35.8 0.8-53.7 0.8-16.8 0.8-33.6 1-50.4 0-1-0.8-1.7-1.7-1.7 -17.6-0.7-35.3 1-52.9 0.8 -16.4-0.3-32.7-1.6-49.1-1.6 -0.1-0.1-0.2-0.1-0.3 0 -1 0.1-1.8 1.1-1.5 2.1 2.4 6.3 1.3 13.5 0.8 20.2 0.3 0.1 0.6 0.3 0.6 0.7 0 1.2-0.1 2.4-0.3 3.5 0 0 0.1 0.1 0.1 0.1 0 8.6 0.9 17.4 1.4 26 1 18.9-1.3 37.8-0.9 56.7 0 0.9 0.9 1.8 1.9 1.4 7.4-2.9 14.9-1.2 22.5-0.7 8 0.6 16 0.2 24 0.2 17.4 0 34.8-2.4 52.2-2.2C446.9 346.1 447.5 345.4 447.5 344.6zM445.5 283.4c-0.1 0-0.2 0-0.4 0 -0.1 2.5-0.2 5-0.3 7.5 -0.8 17.4 0.4 34.8-0.2 52.2 -17.8-0.1-35.6 2.2-53.4 2.3 -7.8 0-15.8 0.4-23.6-0.3 -6.5-0.6-13-1.6-19.3 0.2 -0.5-19.6 1-39.2-0.3-58.8 -0.1-1.3-0.2-2.6-0.3-4 -0.5-0.1-1-0.2-1.5-0.3 -0.6-0.1-0.4-1 0.1-1 0.4 0 0.8 0 1.2 0 -0.1-1.9-0.3-3.9-0.4-5.8 -0.4 0-0.8-0.1-1.2-0.1 -0.5-0.1-0.5-0.8 0-0.8 0.4 0 0.8-0.1 1.1-0.1 -0.2-2.6-0.3-5.3-0.4-7.9 -0.5-1.4-0.4-3-0.1-4.5 -0.1-0.1-0.2-0.2-0.2-0.3 0 0 0 0 0 0 0-0.2 0-0.4 0.1-0.5 0 0 0 0 0 0 0.3-0.6 0.5-2.6 0.7-3.5 0.1-0.4 0.1-0.9 0.2-1.4 0-0.4 0-0.8 0-1.2 0-0.1-0.1-0.2-0.1-0.3v-5.8c0 0 0-0.1 0-0.1 -0.1-1.5-0.2-3-0.5-4.5 0-0.2 0-0.4 0.1-0.6 0-0.1-0.1-0.3-0.1-0.4 -0.2-0.4 0.2-0.8 0.5-0.9 0.1 0 0.2-0.1 0.3-0.1 -0.1-0.3-0.1-0.7-0.2-1 15.7 0.2 31.3 1.5 47 1.7 17.1 0.2 34.1-1.4 51.2-0.9 -0.1 10.6-0.2 21.2-0.4 31.7 0.4 0 0.7 0 1.1 0 1.3 0 1.3 2 0 2 -0.4 0-0.8 0-1.1 0 0 1.8-0.1 3.7-0.2 5.5 0.3 0 0.6 0.1 0.8 0.1C447.4 281.8 446.8 283.6 445.5 283.4z" class="c"/><path d="M345.2 220.4c8.2-1.4 16.3 0.3 24.6 0.3 8.1 0 16.1-1.3 24.2-1.4 16.9-0.2 33.8 0.2 50.7-0.7 1.1-0.1 2.1-0.9 2.1-2.1 0.2-11.4-1.1-22.8-1.1-34.3 0-12.5 0.5-24.9 1.1-37.4 1.1-24.7 2.6-49.4 1.4-74.2 0-0.7-0.6-1.3-1.3-1.3 -18.8-0.6-37.6-0.2-56.4 0.2 -8.9 0.2-17.8 0.4-26.8 0.5 -4.7 0-9.4 0.1-14.1 0.1 -2 0-4.1-0.7-5.5 0.9 -0.4 0.5-0.3 1.1 0 1.5 -0.2 0.2-0.3 0.5-0.3 0.9 -0.7 29.6-0.8 59.2 0 88.8 0.3 11.2 0.5 22.4 0.5 33.6 0 4.5 0 9.1-0.2 13.6 -0.1 1.8-0.2 3.5-0.3 5.3 -0.1 1.1-0.8 2.7-0.1 2.3C341.7 218 343.2 220.7 345.2 220.4zM360.8 72.6c5.2 0 10.3-0.1 15.5-0.2 10.3-0.2 20.7-0.4 31-0.6 10.3-0.2 20.7-0.3 31-0.1 2.1 0 4.9-0.6 6.4 0.9 1.7 1.7 1 5.5 1 7.8 0.1 5.2 0.1 10.3 0.1 15.5 -0.1 11.7-0.6 23.5-1.2 35.2 1.1 0 1.6 1.7 0.4 1.9 -0.2 0-0.3 0-0.5 0.1 -0.1 2.6-0.3 5.1-0.4 7.7 0.2 0 0.3 0.1 0.5 0.1 1.2 0.3 0.7 2.1-0.5 1.8 0 0-0.1 0-0.1 0 -0.3 4.9-0.5 9.8-0.7 14.6 -0.9 19.1 0 38.1-0.6 57.2 -17.1 0.6-34.3 0.3-51.5 1 -8 0.3-15.9 1.6-23.9 1.4 -6.6-0.2-13-1.1-19.5-0.5 0.9-4.2 0.3-10.4 0.4-12.6 0.3-12 0.1-24-0.1-35.9 -0.1-8.7-0.1-17.4-0.1-26.2 -0.5-0.2-1.1-0.4-1.6-0.6 -0.2-0.1-0.1-0.5 0.1-0.5 0.5 0 1 0.1 1.5 0.1 0-2.5 0-5 0-7.5 -0.6-0.1-1.1-0.2-1.7-0.4 -0.7-0.2-0.4-1.2 0.3-1.1 0.5 0.1 0.9 0.2 1.4 0.2 0.1-19.5 0.2-39-1-58.3 0-0.6-0.3-1-0.7-1.3C349.1 71.3 358.8 72.6 360.8 72.6z" class="c"/><path d="M431.8 365.3c-13.6 0-27.1 0.5-40.7 0.7 -13 0.3-26.1-0.4-39.1 0.3 -4.5 0.3-9 1.1-13.5 1.6 -4 0.4-8.1-0.5-11.9 0.2 0 0 0 0 0 0 0 0.2 0 0.4 0 0.6 4.4 5.1 18.1 0.8 23.7 0.4 13.5-1 27.3 0.1 40.8 0 14.5-0.1 29-0.8 43.5-0.5 9.1 0.2 18.7 2.7 27.7 0.7 0-1.2-0.1-2.4-0.1-3.6C452.6 368.3 441.6 365.3 431.8 365.3z" class="c"/><path d="M333.1 218.7c-8.8 3.6-6.7 22.1 4.9 17.7 5.3-2 6.3-8.8 4.5-13.6C341.1 219.1 336.4 215.4 333.1 218.7zM336.8 234.1c-4.1 1.6-7-1.2-7.2-5.2 -0.2-3.2 1-5.8 3.2-7.7 0.2 0.1 0.5 0.2 0.7 0.1 1.4-0.5 2.7-1.5 4.2-0.7 1.4 0.7 2.2 2.6 2.6 4C341.2 228 340.6 232.6 336.8 234.1z" class="c"/><path d="M444 76.4c1.1 0 1.1-1.7 0-1.7 -6.7 0-14.4-0.2-20.9 1.4 -0.1 0-0.1 0.2 0 0.3C429.7 78 437.3 76.3 444 76.4z" class="c"/><path d="M439.7 79.3c1 0 1-1.6 0-1.6 -4.3 0-8.8-0.3-13 0.6 -0.2 0-0.2 0.3 0 0.4C430.9 79.6 435.4 79.3 439.7 79.3z" class="c"/><path d="M439 81.3c-3.1 0-6.2 0.1-9.4 0.5 -0.4 0-0.4 0.6 0 0.6 3.1 0.3 6.2 0.4 9.4 0.5C440 82.9 440 81.3 439 81.3z" class="c"/><path d="M440.6 86.3c-2.4-0.9-5.1-0.7-7.5-0.2 -0.4 0.1-0.3 0.7 0.1 0.7 2.4 0 4.7 0.4 7 1.2C441.2 88.4 441.7 86.7 440.6 86.3z" class="c"/><path d="M442.1 92.3c1-0.3 0.8-1.8-0.2-1.8 -1.1 0-2.1 0.2-3.2 0.1 -0.7 0-1.9 0-2.5-0.2 -0.4-0.1-0.6 0.4-0.3 0.6 0.9 0.6 1.4 1 2.6 1.3C439.6 92.5 440.9 92.6 442.1 92.3z" class="c"/><path d="M443.5 98.3c0.2-0.1 0.3-0.3 0.2-0.5 -0.4-0.9-1.4-1-2.4-1.2 -1.1-0.2-2.2-0.2-3.2 0.1 -0.5 0.2-0.4 0.8 0.1 0.9 1 0.1 2.1 0.2 3.1 0.4C442.1 98.2 442.8 98.7 443.5 98.3z" class="c"/><path d="M442.8 104.4c0.7-0.3 0.7-1.1 0-1.4 -1.1-0.4-2.6 0-3.8 0.1 -0.8 0.1-0.8 1.1 0 1.2C440.1 104.4 441.7 104.8 442.8 104.4z" class="c"/><path d="M440.1 108.9c-0.6 0.3-0.2 1.1 0.3 1.1 0.6 0.1 1.3 0.1 1.9 0.2 0.3 0.1 0.5 0.2 0.7 0.3 0.3 0.1 0.5 0.1 0.8 0.1 0.4 0.1 0.7-0.2 0.6-0.6C444.1 108.1 441.5 108.2 440.1 108.9z" class="c"/><path d="M440.4 114.8c-0.5 0.1-0.5 0.7 0 0.7 0.8 0.1 1.8 0.6 2.5 0 0.2-0.2 0.2-0.6 0-0.7C442.2 114.2 441.2 114.7 440.4 114.8z" class="c"/><path d="M455.9 346.9c0.9 0.1 1.8 0.3 2.7 0.6 0.7 0.2 1.1-0.8 0.5-1.1 -1.1-0.6-2.2-0.6-3.3-0.2C455.4 346.3 455.5 346.8 455.9 346.9z" class="c"/><path d="M455.7 349.7c1 0.4 2.3 0.5 3.4 0.4 0.9-0.1 0.9-1.3 0-1.4 -1.1-0.1-2.4-0.1-3.4 0.4C455.4 349.2 455.4 349.6 455.7 349.7z" class="c"/><path d="M455.4 353.1c1.2 0.5 2.4 0.3 3.6-0.1 1-0.4 0.6-2-0.5-1.7 -1 0.4-2.1 0.5-3.2 0.7C454.8 352.2 454.9 353 455.4 353.1z" class="c"/><path d="M456.6 355.9c0.9 0.1 1.8 0.2 2.7 0 0.8-0.1 0.8-1.4 0-1.6 -0.9-0.1-1.8 0-2.7 0 -0.8 0.1-1.6 0.1-2.3 0.5 -0.2 0.1-0.2 0.3 0 0.4C455 355.8 455.8 355.8 456.6 355.9z" class="c"/><path d="M451.5 357.5c2.6 0.6 5.3 0.4 8 0.5 0.9 0 0.9-1.4 0-1.4 -2.6 0-5.4-0.1-8 0.5C451.3 357.1 451.3 357.5 451.5 357.5z" class="c"/><path d="M449.3 360.2c-0.3 0.1-0.3 0.6 0 0.6 1.5 0.3 3 0.2 4.4 0.1 1.7-0.1 3.3 0.1 5 0.2 0.7 0 0.7-0.9 0.2-1.2C456.2 358.9 452.1 359.7 449.3 360.2z" class="c"/><path d="M461.3 362.1c-4-0.5-8.2 0-12.2 0 -0.3 0-0.3 0.5 0 0.5 4 0 8.3 0.5 12.2 0C461.6 362.5 461.6 362.1 461.3 362.1z" class="c"/><path d="M458.1 364.5c-1.7-0.5-3.5-0.5-5.2-0.6 -2-0.1-4-0.3-6-0.1 -0.3 0-0.4 0.4-0.1 0.5 1.9 0.5 3.8 0.5 5.6 0.7 1.9 0.1 3.8 0.4 5.7 0.2C458.5 365.1 458.4 364.6 458.1 364.5z" class="c"/><path d="M492.9 372c-3.7-0.1-7.4 0-11.2 0.2 -0.1 3-4.5 3.1-5 0.3 -3.3 0.2-6.6 0.5-9.9 0.9 0 0 0 0.1 0 0.1 0.1 2.7-4 2.8-4.4 0.3 -6.4 0.6-12.7 1.2-19.1 1.4 -16.4 0.4-32.8-0.1-49.2-0.6 -22.3-0.7-44.9-1.1-67.4-0.6 -0.3 2.2-3.7 2.2-4.3 0.1 -4.4 0.1-8.7 0.3-13.1 0.5 -0.3 2.1-3.4 2.2-4.1 0.2 -4.1 0.2-8.3 0.5-12.4 0.8 -1 0.1-1 1.4 0 1.5 33.6 2.6 67.6-0.4 101.3 1.1 15.9 0.7 31.9 1.7 47.9 1.4 17-0.3 33.9-3.3 50.9-3.3C495.8 376.4 495.7 372.1 492.9 372z" class="c"/><path d="M304.4 28.2c0.1-0.2 0.3-0.3 0.5-0.5C304.7 27.9 304.6 28.1 304.4 28.2z" class="c"/><path d="M305.4 27.4c-0.1 0.1-0.2 0.2-0.4 0.3 0.1 0 0.3 0 0.4 0C305.4 27.6 305.4 27.5 305.4 27.4z" class="c"/><path d="M304.2 28.5c-0.1 0.2-0.2 0.3-0.2 0.4C304 28.8 304.1 28.7 304.2 28.5L304.2 28.5z" class="c"/><path d="M309.4 374.6c0-0.1 0-0.3 0-0.4 -0.5-11.2 0-22.3 0.5-33.4 0 0 0 0-0.1 0 -0.6-0.1-1.6-0.2-1.9-0.8 -0.4-0.8 0.8-1.2 1.4-1.3 0.2 0 0.4-0.1 0.6-0.1 0.3-6 0.5-12 0.6-18.1 0.4-23.9-0.8-47.7-0.9-71.6 -0.1-21.3 0.9-42.4 0.4-63.7 -0.7-0.1-1.6-0.2-2.2-0.5 -0.2-0.1-0.2-0.4 0-0.6 0.6-0.4 1.3-0.4 2-0.5 0 0 0.1 0 0.1 0 -0.1-2-0.1-3.9-0.2-5.9 -1.1-24.3-1.1-48.6-1.6-72.9 -0.5-24.2 0.7-49.1-2.3-73.1 -0.5 0-1 0-1.5 0 -0.2 0-0.3 0-0.5-0.1v0.8c0 0.1 0 0.1 0 0.2 1.8 21.7 0.3 43.6 1 65.3 0.8 23.9 0.1 47.8 1 71.6 0.9 23.4 0.4 46.5-0.2 69.9 -0.7 23.8 1.2 47.6 0.8 71.4 -0.3 21.2-2.2 42.4-1.3 63.6 0 0.2 0.1 0.4 0.1 0.6C305.9 376.7 309.1 376.7 309.4 374.6z" class="c"/><path d="M305.9 31.5c28.1 0.8 56.2-0.1 84.3 0.1 13.7 0.1 27.5 0.9 41.3 0.8 14.7-0.1 29.2-2 43.9-0.9 -0.1-0.5-0.2-1-0.3-1.5 -0.3-1.7 2.2-2.4 2.6-0.7 0.1 0.5 0.2 1 0.3 1.5 0.6-1.1 0.1-2.9-1.6-3.1 -15-1.3-29.9 0.7-44.9 0.8 -13.7 0.1-27.5-0.7-41.3-0.8 -28.2-0.3-56.6-0.8-84.8 0 -0.1 0-0.3 0-0.4 0 0 0 0 0 0 0 0 0-0.1 0.1-0.1 0.1 -0.2 0.1-0.3 0.3-0.5 0.5 -0.1 0.1-0.2 0.1-0.2 0.2 0 0 0 0.1 0 0.1 -0.1 0.1-0.2 0.3-0.2 0.5v2.4c0.1 0 0.3 0.1 0.5 0.1C304.9 31.5 305.4 31.5 305.9 31.5z" class="c"/><path d="M475.1 29.9c0.1 0.5 0.2 1 0.3 1.5 2.4 13.2 1.9 26.6 1.6 40 -0.3 13.9 0.5 27.8 0.2 41.7 -0.5 28.4-1.5 56.9-3.2 85.2 -0.9 14.2 1.7 28.7 1.8 42.9 0 13.9-0.1 27.8-0.2 41.7 -0.2 29.7 0.8 59.4 1.2 89.1 0 0.2 0 0.3 0 0.4 0.5 2.8 4.9 2.7 5-0.3 0 0 0-0.1 0-0.1 -0.1-29.7-1.6-59.4-1.6-89.1 0-14.8 0-29.6-0.1-44.5 -0.1-14.3-2.9-28.6-1.8-42.8 2.3-29.2 2.3-58.8 2.2-88.1 0-13.7-0.5-27.4-0.2-41.2 0.2-12 0.2-23.9-2.3-35.6 -0.1-0.5-0.2-1-0.3-1.5C477.3 27.5 474.8 28.3 475.1 29.9z" class="c"/><path d="M326.6 368.8c0-0.2 0-0.4 0-0.6 -1.7-52.1-0.3-104.2-1.2-156.3 -0.5-26.8-0.6-53.6-0.5-80.3 0-26.8 1.1-54-0.5-80.7 -0.4 0-0.7-0.2-1-0.4 -1.7 26.9-1 54.2-1.2 81.1 0 0.1 0 0.2 0 0.3 0.2 0 0.4 0 0.6 0 1.3 0.1 1.2 1.8 0 2 -0.2 0-0.4 0-0.6 0 -0.2 26-0.3 52-0.1 78 0.4 51.1-1.6 102.3 0 153.4 0.1 0 0.2 0 0.3 0 0.6-0.1 1 0.5 1 1 0 0.6-0.5 1-1 1 -0.1 0-0.2 0-0.3 0 0.1 2.1 0.1 4.1 0.2 6.2 0 0.2 0 0.4 0.1 0.6 0.6 2.1 4 2.1 4.3-0.1 0-0.1 0-0.3 0-0.5C326.7 371.9 326.7 370.4 326.6 368.8z" class="c"/><path d="M465.9 281.5c-0.4-0.1-0.8-0.2-1.2-0.3 -0.6-0.2-0.6-1 0-1.2 0.4-0.1 0.8-0.2 1.2-0.3 0-22.7 0.1-45.3-0.4-68 -0.5-25.2-0.5-50.4-0.5-75.5 -0.4-0.1-0.8-0.1-1.2-0.1 -0.5-0.1-0.7-0.6-0.2-0.9 0.5-0.3 0.9-0.5 1.4-0.6 0-1.1 0-2.1 0-3.2 0 0 0 0 0-0.1 -0.5-0.2-0.9-0.5-1.2-1 -0.4-0.8 0.4-1.7 1.2-1.5 0.1-26.1 1.1-52.6-0.6-78.7 -0.2 0.2-0.6 0.4-0.9 0.4 -1.7 26.8-1 54-1.2 80.8 -0.2 26.8-0.3 53.6-0.1 80.3 0.4 51.3-1.6 102.6 0 153.9 0 1.2 0.1 2.4 0.1 3.6 0.1 1.4 0.1 2.8 0.1 4.2 0 0.1 0 0.2 0 0.3 0.4 2.5 4.5 2.5 4.4-0.3 0 0 0-0.1 0-0.1C465.8 342.8 465.8 312.2 465.9 281.5z" class="c"/><path d="M324.6 50.8c23.1-0.4 46.2 0.5 69.3-0.2 23.3-0.8 46.3 0.1 69.6 0.1 0 0 0.1 0 0.1 0 0.4 0 0.7-0.2 1-0.4 1-0.9 0.7-2.9-1-3 -23.3-0.1-46.3-1.3-69.6-0.5 -23.1 0.7-46.2-0.5-69.3 0.4 -1.8 0.1-2.2 2.2-1.2 3.2 0.2 0.2 0.6 0.4 1 0.4C324.4 50.8 324.5 50.8 324.6 50.8z" class="c"/><path d="M311.9 340.5c0.4-0.5 0.4-1.1 0-1.6 -0.4-0.4-1.3-0.5-2-0.4 -0.2 0-0.4 0.1-0.6 0.1 -0.6 0.1-1.8 0.5-1.4 1.3 0.3 0.6 1.3 0.8 1.9 0.8 0 0 0 0 0.1 0C310.5 340.9 311.4 341 311.9 340.5z" class="c"/><path d="M323.4 366.3c0-0.5-0.5-1.1-1-1 -0.1 0-0.2 0-0.3 0 -1 0.1-1.9-0.1-2.9-0.1 -0.6 0-1 0.8-0.5 1.2 0.9 0.8 2.3 1 3.5 0.9 0.1 0 0.2 0 0.3 0C323 367.3 323.4 366.9 323.4 366.3z" class="c"/><path d="M464.7 281.3c0.4 0.1 0.8 0.2 1.2 0.3 1.1 0.2 2.2 0.2 3.2 0.1 1-0.1 1-1.8 0-1.9 -1-0.2-2.2-0.1-3.2 0.1 -0.4 0.1-0.8 0.2-1.2 0.3C464.1 280.3 464.1 281.1 464.7 281.3z" class="c"/><path d="M475.5 39.1c-0.5-2.1 0.5-4.8-1.7-6.2 -2.3-1.4-6.4-0.8-8.8 0.2 -0.3 0.1-0.2 0.6 0.1 0.7 2.4 0.9 5.1-0.8 7.5 0.1 1.9 0.8 1.2 3.7 1.7 5.4C474.6 40.1 475.7 39.9 475.5 39.1z" class="c"/><path d="M467 35.5c-0.2 0.1-0.2 0.3 0 0.3 1 0.4 2.1 0.3 3.1 0.4 1.5 0.2 1.8 0.9 1.8 2.3 0 0.6 1 0.8 1.1 0.1C473.7 35.1 469.5 34.5 467 35.5z" class="c"/><path d="M470.4 38.4c-0.7-0.1-1.5-0.4-2.3-0.4 -0.7 0-0.7 1.1 0 1.1 0.6 0 1.1 0.3 1.6 0.4 0.1 0.4 0 0.7 0.3 1 0.1 0.2 0.4 0.2 0.5 0.1 0.4-0.4 0.3-1.1 0.3-1.6C470.8 38.7 470.6 38.4 470.4 38.4z" class="c"/><path d="M463.8 130.4c0.3 0.5 0.7 0.9 1.2 1 0.9 0.4 2.1 0.1 3-0.4 0.6-0.3 0.8-1.2 0.5-1.8 -0.4-0.6-1.1-0.8-1.8-0.5 -0.4 0.2-1.1 0.5-1.5 0.2 -0.1 0-0.1-0.1-0.2-0.1C464.2 128.7 463.4 129.6 463.8 130.4z" class="c"/><path d="M463.8 136.2c0.4 0 0.8 0.1 1.2 0.1 0.5 0.1 1.1 0.2 1.6 0.3 1.2 0.3 1.8-1.6 0.5-1.9 -0.7-0.2-1.4-0.2-2.1 0 -0.5 0.1-1 0.3-1.4 0.6C463.1 135.6 463.3 136.1 463.8 136.2z" class="c"/><path d="M322.8 131.8c-0.2 0-0.4 0-0.6 0 -2-0.1-3.9-0.2-5.9-0.1 -0.8 0-1.1 1.4-0.2 1.6 2 0.4 4.1 0.7 6.1 0.6 0.2 0 0.4 0 0.6 0C324 133.7 324.1 131.9 322.8 131.8z" class="c"/><path d="M312.6 184.9c1.3-0.4 0.8-2.5-0.6-2.1 -0.7 0.2-1.4 0.4-2.1 0.6 0 0-0.1 0-0.1 0 -0.7 0.1-1.4 0.1-2 0.5 -0.2 0.1-0.2 0.4 0 0.6 0.6 0.4 1.5 0.4 2.2 0.5 0 0 0.1 0 0.1 0C311 185.2 311.8 185.2 312.6 184.9z" class="c"/><path d="M417.6 132c-8.4 0.4-16.8 0.2-25.2 0 -7.6-0.1-15.3-0.3-22.9-0.4 -7-0.1-14.5 1.2-21.4 0.1 -0.5-0.1-0.9-0.1-1.4-0.2 -0.7-0.1-1 0.9-0.3 1.1 0.6 0.2 1.1 0.3 1.7 0.4 5.8 1.3 11.8 0.3 17.7 0.3 8.9 0 17.8 0.3 26.7 0.4 8.8 0.1 17.7 0.5 26.5 0 8.5-0.5 17.2 0.6 25.6-0.6 0.2 0 0.3 0 0.5-0.1 1.2-0.2 0.8-1.9-0.4-1.9 -0.1 0-0.1 0-0.2 0C435.8 132.6 426.4 131.6 417.6 132z" class="c"/><path d="M396.6 140.9c-16.1 0.5-32.5 0.6-48.5-0.3 -0.5 0-1 0-1.5-0.1 -0.2 0-0.4 0.4-0.1 0.5 0.5 0.3 1.1 0.5 1.6 0.6 5 1.7 10.7 0.6 15.9 0.6 9 0 18.1 0.5 27.1 0.3 9.2-0.1 18.3-0.7 27.5-0.8 8.3 0 17.3-0.8 25.5 0.9 0 0 0.1 0 0.1 0 1.2 0.3 1.7-1.5 0.5-1.8 -0.2 0-0.3-0.1-0.5-0.1C429 137.2 411.9 140.5 396.6 140.9z" class="c"/><path d="M397.5 276c16-0.5 31.8-0.8 47.9-0.2 0.4 0 0.7 0 1.1 0 1.3 0.1 1.3-1.9 0-2 -0.4 0-0.7 0-1.1 0 -16-0.1-31.9-0.2-47.9 0.2 -16.5 0.5-33.8-1.7-50.3 0.2 -0.4 0-0.8 0.1-1.1 0.1 -0.5 0.1-0.5 0.8 0 0.8 0.4 0.1 0.8 0.1 1.2 0.1C363.6 277.5 381.2 276.6 397.5 276z" class="c"/><path d="M446.1 281.5c-0.3-0.1-0.6-0.1-0.8-0.1 -6.7-1.2-14.1 0.6-20.9 0.4 -8.6-0.2-17.3-0.1-26 0 -16.9 0.4-33.7-0.3-50.6-0.5 -0.4 0-0.8 0-1.2 0 -0.6 0-0.7 0.9-0.1 1 0.5 0.1 1 0.2 1.5 0.3 15 2.9 31.2 1.5 46.4 1.2 8.2-0.2 16.4-0.4 24.6-0.1 4 0.1 8.1 0.5 12.1 0.5 4.6 0 9.6-1.2 14.2-0.7 0.1 0 0.3 0 0.4 0C446.8 283.6 447.4 281.8 446.1 281.5z" class="c"/><path d="M356 31.6c0.5 0 1 0 1.5 0.3 1.2 0.6 1.2 2.7 0.2 3.7 -0.9 1-2.4 1.4-3.7 1.7 -7.4 1.5-14.8 3.1-22.2 4.6 -2.5 0.5-5.2 1.1-7.3 2.6 -3.2 2.2-5 6.2-5.9 10.1 -3 13 0.7 26.3 1.7 39.3 0.9 11.8-2.9 24-6.8 35 1.1-3.1-3.7-13.5-3.9-17.5 -0.2-5.9 1-11.9 0.6-18 -0.6-9.9-1-19.8-0.8-29.6 0.2-7.8-5.3-27.8 2.8-32.6 1.4-0.8 3-0.9 4.6-1C329.9 29.3 342.9 31.5 356 31.6z" class="d"/><path d="M402.2 74.1c1.6 3.3-1.9 6.9-5.4 8.3 -3.4 1.3-7.6 2.1-9.6 5.2 1.3 1.1 2.7 2.1 4 3.2 -1.8 1.7-3.6 3.3-5.3 5 -0.5 0.4-1 0.9-1.1 1.6 -0.3 1.6 1.8 2.4 3.4 2.8 2.6 0.6 5.4 1.8 6.6 4.1s-0.2 6.1-2.9 6.1c3.8 3 8.1 6.9 7.5 11.8 -0.4 3.4-3.3 6.2-6.6 7.4 -3.2 1.2-6.8 1.3-10.3 1.3 -10.4 0-21 2.1-31.3 0.1 -0.7-0.1-1.5-0.3-1.9-0.9 -0.4-0.5-0.4-1.3-0.5-1.9 -0.5-16.9-0.9-33.8-1.4-50.8 0-1.3 0.1-2.8 1.2-3.4 0.5-0.2 1-0.2 1.6-0.2C367.8 74 384.8 72.9 402.2 74.1z" class="d"/><path d="M387.3 184.2c1.2-1.7 4.2-2.6 3.9-4.7 -0.1-0.9-0.8-1.6-1.5-2.1 -5-4.2-11.7-6.3-16-11.2 -0.7-0.8-1.3-1.7-1.1-2.7 0.2-0.6 0.6-1.1 1-1.7 2.4-3.3 0.8-8.4-2.5-10.8 -3.3-2.5-7.6-3-11.7-3.1 -4.1-0.1-8.3 0-12.2-1.4 3.9 22.5 3.1 45.6 2.3 68.5 16.9-0.7 33.9-1.6 50.8-2.4 1.2-0.1 2.8-0.6 2.7-1.8 -1.8-2.7-6-1.7-9-2.7 -2.4-0.8-4.2-3.4-3.6-5.9 0.6-2.5 3.9-4 5.9-2.4 0.3-3.2-3-5.5-5.6-7.3S385.4 186.9 387.3 184.2z" class="d"/><path d="M384.6 344.7c-0.5 1.4-2.3 1.5-3.8 1.4 -10.7-0.8-21.3-1.5-32-2.3 1-19.8 0-39.6 1-59.4 9.1-0.6 18.2-1.1 27.2-1.7 0.9-0.1 1.8-0.1 2.5 0.2 0.8 0.3 1.4 1.2 1.3 2 -0.1 0.6-0.6 1.1-1.1 1.5 -1.6 1.3-3.2 2.6-4.8 3.9 0.2-0.2 5.4 4.1 3.2 7 -1.6 2.1-9 3.2-11.6 4.1 3.4 2.9 7 5.5 10.9 7.7 -2.9 1.3-5.7 2.7-8.4 4.3 -0.7 0.4-1.6 1.1-1.5 1.9 0 0.6 0.5 1.1 1 1.5 4.6 4.1 9.2 8.3 13.8 12.4 -2 1.3-4.2 2.1-6.6 2.5 -0.4 4.8 6.4 6.6 8.5 10.9C384.7 343.3 384.9 344 384.6 344.7z" class="d"/><path d="M380.9 274.4c-1.8-4.6-9.4-3.4-12.3-7.4 3.7-0.8 7.4-1.9 11-3.3 -1.8-1.6-3.6-3.1-5.5-4.7 -0.6-0.5-1.3-1.2-1-2 0.2-0.7 1-1 1.7-1.1 2.3-0.6 4.5-1.2 6.8-1.8 0.7-0.2 1.5-0.4 2.1-0.9 1.1-0.9 1.2-2.6 0.6-3.8 -0.6-1.2-1.9-2-3.2-2.4 -1.2-0.3-2.5-0.3-3.6-0.9 -1.1-0.6-1.7-2.2-0.8-3.1 -8.9-0.7-17.8-1.5-26.6-2.2 -0.7-0.1-1.5-0.1-1.9 0.5 -0.2 0.3-0.3 0.8-0.2 1.2 0.2 10.4 0.4 20.8 0.6 31.2 4.4-1 9-0.8 13.5-0.5C368.2 273.7 374.6 274 380.9 274.4z" class="d"/></svg>