<svg xmlns="http://www.w3.org/2000/svg" viewBox="0 0 768 430"><style>.a{fill:#662E16;}.b{fill:#F2AF7C;}.c{fill:#F7C494;}.d{fill:#BA6F3C;}.e{fill:#7F3D1C;}.f{fill:#BA743F;}.g{fill:#C47942;}.h{fill:#FFF;}.i{fill:#1C1A19;}.j{fill:#723517;}.k{fill:#924B23;}.l{fill:#700000;}.m{fill:#FF8006;}.n{fill:#F60000;}</style><path d="M248.8 138.7c0 11.8-0.9 23.6-2.8 35.3 -1 5.8-2.2 11.5-3.6 17.1 -1.1 4.5-4.2 10.5-4.2 15 0 4.4 0 8.8 0 13.2 0 23.4 0 46.7 0 70.1 0 25.4 0 50.9 0 76.3 0 7 0 14 0 21 0 0.6-0.3 2.3 0 2.8 12 2.8 24.2 4.4 36.5 4.5 15.4 0.1 31-2.1 45.4-7.5 2.2-0.8 9.5-2.5 9.5-5.4 0.2-16 0.3-32.1 0.5-48.1 0.7-71.1 1.4-142.2 1.7-213.3 0.1-23.9 0.2-47.7 0.3-71.6 0-2.6 0-5.3 0-7.9 0-4.7-0.7-4-5.3-4.1 -7-0.2-14.1 0-21.1 0.9 -10.1 1.4-20.2 4.3-28.8 9.9C247 66.4 248.8 107.4 248.8 138.7z" fill="#DDD1B8"/><path d="M301.2 150.7c-13.3-1.4-26.6-2.8-39.9-4.1 -0.6-0.1-13.3-1.7-10.3 3 1.5 2.4 14.5 2 17.4 2.3 6.5 0.7 12.9 1.3 19.4 2 3.2 0.3 6.5 0.7 9.7 1 0 3.1 0 6.2-0.1 9.2 -0.1 13.7-0.2 27.3-0.2 41 -0.2 26.5-0.3 53-0.5 79.5 -0.1 13.2-0.2 26.4-0.2 39.5 0 6.5-0.1 13-0.1 19.5 0 3 0 6-0.1 9 -4.2 0.1-8.4 0.3-12.6 0.4 -6.3 0.2-12.6 0.4-19 0.6 -4.5 0.1-13.4-1.3-17.4 1 -6.7 3.9 3.4 3.7 5.6 3.6 6.4-0.2 12.8-0.4 19.2-0.6 6.4-0.2 12.8-0.4 19.2-0.6 6.2-0.2 10.1 0.6 10.2-6.5 0.1-13.8 0.2-27.7 0.2-41.5 0.2-27.6 0.3-55.2 0.5-82.8C302.1 218.8 304.7 151 301.2 150.7 285.7 149 302.1 150.8 301.2 150.7z" class="a"/><path d="M298.2 43.9c-5.5 2-3.4 23.4-3.6 28.7 -0.5 10.7-0.9 21.5-1.4 32.2 -6.3-0.8-12.7-1.7-19-2.5 -3.7-0.5-12.7-3.6-15.6-0.4 -3.9 4.2 8.2 4.1 10.1 4.3 7.5 1 15 2 22.5 2.9 7.5 1 7-2.9 7.3-9.4 0.3-6.7 0.6-13.4 0.9-20 0.3-6.7 0.6-13.4 0.9-20C300.2 57.3 302.8 42.2 298.2 43.9 296.7 44.5 299.5 43.4 298.2 43.9z" class="a"/><path d="M329.6 39.2c0 108.9 0 217.8 0 326.7 0 6.5 0 13 0 19.5 0 1.6 0.7 2.6 2.6 1.9 2.9-1.1 2.5-3.4 2.5-5.9 0-13.5 0-27 0-40.5 0-27.3 0-54.7 0-82 0-55 0-110 0-165 0-12 0-24 0-36.1 0-5.4 0-10.8 0-16.2 0-0.4 0.6-4.7-0.8-5.2C332.1 35.5 329.6 37.3 329.6 39.2z" class="a"/><path d="M383.2 240c-4.6-0.4-9.3-0.4-13.8 0.3 -2.4 0.4-5.9 1.1-7.2 3.5 -1.3 2.4 0.6 6 3.5 5.3 -5.7 4.5 4.9 8.4 8.6 8 -3.6 5.4 5.1 7.9 8.9 8.6 8.9 1.5 12.5-5.4 16.9-11.9C401.7 251.3 386.1 242.1 383.2 240z" class="b"/><path d="M377 259.2c-2.1-1.5 2-5.4-2.5-5.2 -1.7 0.1-3.5-0.4-4.9-1.4 -4.2-2.9 1.5-2.4-0.6-5.2 -0.5-0.7-6-1.6-2.1-3.9 3.8-2.2 9.6-1.9 13.8-1.7 5.2 0.2 10.8 6.4 15 9.3 2.8 2-3 6.9-4.7 9C387.9 264 380.3 261.5 377 259.2z" class="c"/><path d="M401.6 252.7c0.5-0.8-9-7-10-7.8 -5.1-3.6-7.3-5.8-13.6-5.9 -4.3-0.1-9.1 0.2-13.1 1.9 -3.4 1.4-6.5 8.3-0.7 8.9 -3.6 5 5.2 8.2 8.9 7.9 -3 7 10.1 9.2 14.5 8.7C394.2 265.6 398.3 257.8 401.6 252.7 401.7 252.5 399.2 256.3 401.6 252.7zM395.6 258.8c-3.5 4.7-6.2 7.4-12.6 6.2 -3.4-0.7-10.8-2.9-8.1-7.8 0.2-0.4-5.9-1.6-6.8-2 -3-1.5-2.1-6.7-1.8-6.5 -1.8-1-6.3-2.9-2.4-5.9 4-2.9 11.2-2.4 15.8-2.2 5.4 0.2 10.7 5.8 15.1 9C400.8 253.7 399.9 253 395.6 258.8 394.3 260.6 396.7 257.3 395.6 258.8z" class="d"/><path d="M365.9 249.8c1.9-2.1 6.3-0.3 7.2-2 1.2-2.4-10.7 0-8.6 2.2C364.9 250.3 365.4 250.2 365.9 249.8z" class="d"/><path d="M374.6 258.1c1.9-2.1 6.3-0.3 7.2-2 1.2-2.4-10.7 0-8.6 2.2C373.7 258.5 374.2 258.5 374.6 258.1z" class="d"/><path d="M448 273.2c3.1 3.7 6.1 7.8 8.1 12.2 0.9 2 2.1 4.8 1.1 7 -1.2 2.6-5.3 3.1-6.4 0.3 -0.4 7.2-9.7 1-11.5-2.3 -2.5 6.4-10.3-0.1-12.9-3 -5.8-6.3-1.7-13.9 0.9-20.9C427.7 265.7 445.7 272.4 448 273.2z" class="b"/><path d="M436 289.4c2.5 0.9 3.3-4.7 5.7-1 0.9 1.5 2.3 2.6 4 3.2 4.8 1.7 1.1-2.6 4.6-2.6 0.9 0 4.9 4 4.4-0.7 -0.6-5-4.8-10-7.9-13.7 -4.1-2.8-11.1-3.8-15.8-5.4 -1.6-0.5-4.1 9.3-3.9 11C427.4 284.4 432.3 288.1 436 289.4z" class="c"/><path d="M422.9 278c-1.9 6.8 11.6 22 16.5 13.8 2 3.1 9.7 8.4 11.6 2.6 3.9 4.3 7.7-2.1 6.9-5.7 -1.3-6.1-5.7-11.6-9.6-16.2 -2.7-3.2-13.8-4.8-17.9-6.2C424.6 264.3 424.2 273.3 422.9 278 422 281.2 424.1 273.8 422.9 278zM427.3 268.8c1.2-3.3 6.5 0.5 9.1 1.4 6.2 2.1 11 2.9 14.9 8.3 2.3 3.2 5.7 7.7 5.7 11.9 -0.1 4.9-4.3 2.4-6.2 1.5 0.3 0.1-3.3 3.9-6.3 2.3 -4.1-2.1-3.4-5.7-6.8-2.7 -3.5 3-10-3.3-11.9-5.9C421.9 280.3 425.3 274.2 427.3 268.8 427.4 268.3 426.6 270.5 427.3 268.8z" class="d"/><path d="M450.1 293c0.5-2.8-3.4-5.3-2.6-7 1.2-2.4 6.2 8.7 3.3 8.3C450.2 294 450 293.6 450.1 293z" class="d"/><path d="M438.3 290.7c0.6-2.8-3.4-5.3-2.6-7 1.2-2.4 6.2 8.7 3.3 8.3C438.5 291.7 438.2 291.3 438.3 290.7z" class="d"/><path d="M440.9 189.7c-5.4-7.7-10.7-15.5-15.9-23.4 -6-9.2-16.3-21.3-18-32.6 -2.8 0.8-17.8 3.8-15.5 7.9 3.7 6.7 7.6 13.4 11.6 20 5.7 9.4 11.6 18.6 18.3 27.3 1.5 1.9 3 3.8 4.6 5.6 2.3 2.6 2.3 4.1 5.6 1.8C434.5 194 437.6 191.7 440.9 189.7z" class="e"/><path d="M429.9 198.6c1.4-1 12.1-7.5 12-8.6 -0.4-4.4-8.5-12.4-11.1-16.2 -2.5-3.8-24.1-40.8-24.5-40.7 -1.7 0.5-17.6 5.2-16.6 7.1 4.3 8 8.9 15.8 13.6 23.5C405.6 167.2 426.3 201.2 429.9 198.6 433.7 195.7 429.4 198.9 429.9 198.6zM399.7 154.7c-2.2-3.7-4.3-7.5-6.4-11.2 -2.2-4-1.6-3.3 2.5-5.1 3.4-1.5 6.9-2.6 10.5-3.7 0.8 3.4 2.6 6.4 4.3 9.4 8.9 15.6 18.9 30.6 29.2 45.2 -3.8 2.2-7.3 4.9-10.8 7.6 -4.2-4.3-7.8-9.1-11.3-14C411.3 173.8 405.4 164.3 399.7 154.7 397 150.1 404.4 162.6 399.7 154.7z" class="a"/><path d="M456.6 205.3c3.1 8.1 6.3 16.2 9.7 24.2 4 9.4 7.9 23.6 15.7 30.7 -1.7 1.4-12.3 11.3-13.9 8.1 -3.3-6.4-6.4-12.8-9.4-19.3 -4.3-9.4-8.5-19-11.8-28.9 -0.6-1.7-1.1-3.5-1.6-5.3 -0.9-3.5-2.2-4.4 1.7-5.7C450.1 208 453.4 206.8 456.6 205.3z" class="e"/><path d="M443.6 210.5c3.1 16 10.6 31 17.5 45.6 1.8 3.8 3.6 7.5 5.5 11.3 2.2 4.3 2.9 3 6.7 0.5 3.1-2 5.9-4.4 8.7-6.7 1.5-1.3-2-4.1-2.6-5 -7.8-12.1-12.8-26.9-18.2-40.3 -0.7-1.9-2.8-10.6-4.5-11.4C455.9 203.9 443.4 209.2 443.6 210.5 446.1 223.3 443.5 210.1 443.6 210.5zM451.8 231.8c-2-4.9-3.9-9.8-5.4-14.9 -1.2-4-3.1-5.6 1.3-7.1 2.9-1 5.8-2.1 8.5-3.4 4.6 12 9.4 24 14.7 35.7 2.5 5.5 4.9 11.4 8.4 16.4 2.1 3 0.1 3-2.6 5 -2.5 1.9-5.1 3.7-8 5.1C462.4 256.7 456.8 244.3 451.8 231.8 449 225 454.9 239.6 451.8 231.8z" class="a"/><path d="M470.1 201.4c-6.6 5.7-12.9 12-18.3 18.9 -3.3 4.2-6.7 9-8 14.3 -1.8 7 3 15 5 21.6 0.9 3.1 5.2 14.3 1.2 16.7 -5 3.1-13.3 1.7-18.5 0.3 -6.5-1.7-8.2-4.6-11.3-10.2 -1.7-3.2-7.4-14.6-12.4-12.8 7.5 13.7-12.2 1.3-16.4-1.3 -6.4-4-28.3-13.7-14.6-21.5 22-12.5 40-34.1 54.6-54.4C444.3 182.4 457.2 191.9 470.1 201.4z" class="e"/><path d="M460.7 200.5c-6.3 5-12.1 11.1-16.5 18 -3.1 4.8-5.5 10.3-5.8 16.1 -0.2 4.1 2.6 8.7 1.5 12.7 -3.3 12.3-31.8-6.7-35.9-10.5 -4-3.7-9.5-10.1-6.2-15.9 3-5.3 10.5-8.6 15-12.5 5.8-5 11.1-10.5 16-16.4 2.1-2.5 4.1-5.2 5.9-7.9 0.5-0.7 4.6 2.6 5.3 3C446.9 191.6 453.8 196.1 460.7 200.5z" class="b"/><path d="M378.8 242.3c6.9 4.8 14.1 9.2 21.4 13.2 5.5 3 12.9 4.7 9.3-3.9 9.9 2.4 9.6 19 19.9 22.5 8.6 3 24.5 4.8 22.6-8.2 -2-13.3-11.5-25.4-3.9-38.2 3.1-5.2 7.1-9.7 11.3-14.1 2.1-2.3 12.3-9.3 11.5-12.5 -0.8-3.6-10.7-8.5-13.6-10.7 -6-4.4-11.9-8.8-17.9-13.3 -2.6-1.9-5.1-3.8-7.7-5.7 -0.9-0.7-5.6 6.5-6.2 7.3 -4.2 5.5-8.7 10.9-13.3 16.1 -9 10-18.8 19.7-30 27.3 -3.6 2.4-11.4 4.9-11.5 10.3C370.7 236.8 375.7 240.1 378.8 242.3 384.3 246.1 375 239.6 378.8 242.3zM378.4 228.1c21.3-12.7 39.1-33.5 53.4-53.5 12.1 8.9 24.1 17.9 36.2 26.8 -9.4 8.2-21.8 19.5-25 32.1 -3.2 12.3 10.1 24.1 7.5 36.2 -1.6 7.3-24.4 3-27.1-2.5 -2.9-5.8-5.9-12.4-10.9-16.8 -0.8-0.7-5.5-3.6-5.6-0.7 -0.1 2 2.6 3.7 2.1 5.6 -0.6 2.2-21.9-10.7-23.5-11.7 -4.1-2.6-8.7-5.2-11.9-8.8C370.6 231.5 376.2 229.4 378.4 228.1 388 222.3 376.9 228.9 378.4 228.1z" class="a"/><path d="M482 135c3.6-14-2.4-28.8-19.6-23.6 -9.4 2.9-10.8 12.7-6.2 20.4 2.5 4.2 6.4 8.9 11.4 7.7C472.5 138.5 477.4 137 482 135z" class="b"/><path d="M482.8 135.2c1.7-6 2.3-14-1.3-19.5 -4.5-6.7-15.4-7.2-22-3.7 -8.5 4.5-8 14.9-3 21.8 2.1 2.8 5.9 7.8 9.9 6.7C469.5 139.7 481.5 138.1 482.8 135.2zM472.5 137.8c-7.6 2.2-11.9 0.6-15.9-6.8 -3.4-6.4-3-14.9 4.2-18.4 5.9-2.8 14.9-2.6 18.9 3.3 2.5 3.8 2.9 8.7 2.5 13.1C481.7 135.8 478.6 136 472.5 137.8 471.3 138.2 475.5 136.9 472.5 137.8z" class="d"/><path d="M460.7 131.5c3.9 6.1 7.8 4.5 13.8 2.4 3.9-1.3 3.5-5.7 2.9-9.5C475.3 111.6 451.9 117.8 460.7 131.5 462 133.5 458.5 128.1 460.7 131.5z" class="f"/><path d="M481.1 115.1c-4.1-5.2-11.5-5.7-17.5-4.5 -3 0.6-13.8 6.9-8.9 10.2 1.8-11.1 19.6-13.4 25.4-4.5C480.4 116 480.7 115.5 481.1 115.1 477.2 110.2 480.7 115.6 481.1 115.1z" class="g"/><path d="M510.1 203.4c-23.2 18.5-51.4 12.1-66.6-12.3 -5.7-9.1-11.3-20.4-8-31.3 2.9-9.6 11.4-16.5 18.9-22.5 19.3-15.7 49.9-20.2 67.2 1.3C537.8 158.9 529.1 188.3 510.1 203.4 487 221.8 531.5 186.4 510.1 203.4z" class="e"/><path d="M485.2 122.7c6.2 3.1 10.6 9.5 5.6 15.9 11.1 2.2 18 14.9 15 25.5 -2 7.1-7.8 12.3-14.1 15.8 -2.2 1.2-4.5 2.3-6.8 3.2 -2-2.4-4-4.9-5.8-7.4 -3.4-4.8-6.4-9.8-8.7-15.3 -2.4-5.7-4.1-12-4-18.2 0-0.8 1.1-5.6 0.6-6C457.5 127.1 481.1 123.2 485.2 122.7z" fill="#8C4222"/><path d="M441.3 189.6c13.5 22.7 37.5 33.6 62 19.5 19.3-11.1 32.5-35.8 26.1-57.9 -7.6-26.1-37.8-34.5-60.8-24 -11 5-22.3 13.8-29.4 23.6C430.3 163.3 434 177.4 441.3 189.6 448.3 201.4 436 180.8 441.3 189.6zM436.4 159.6c7.2-21.2 37-37.1 58.4-34.4 24.1 3.1 39 26.4 33.2 49.7 -5.6 22.5-28.4 40.7-52.1 38.1 -12.2-1.4-22.1-8.7-29.1-18.5C440.1 185.2 432.4 171.3 436.4 159.6 439.8 149.5 434 166.5 436.4 159.6z" class="a"/><path d="M484.4 142.2c7.3 0.9 15.5 5.2 17.1 13.1 2.4 12.1-11.6 21.3-20.5 26.1 12.1 7.1 11.1 22.8-1.9 28.3 -16.8 7.1-35-9.4-44.6-21.5 -11-13.8-14.7-32.4-6.2-48.6 5.8-10.9 20.6-15.3 26.9-2.2 4.1-8 12.8-14.2 22.1-12.9C486.8 125.8 488.6 134.7 484.4 142.2 501.9 144.3 495.4 122.6 484.4 142.2z" class="b"/><path d="M460.7 155.8c4.1 0.2 8.2 1.9 11.1 4.9 3 3.1 4.4 7.2 4.8 11.4 0.4 3.8-0.5 6 1.6 9.3 1.9 3.1 3.5 6.4 4.1 10 1.6 10.1-6.9 16.2-16.1 14.7 -10.3-1.6-19.6-8.8-26.3-16.3 -12.2-13.7-19.1-37-6.1-52.6C447.7 120.2 458.8 142.9 460.7 155.8z" class="c"/><path d="M485.7 141.2c3-7 1.9-15.9-6.7-17.6 -9.6-2-18.8 3.9-23.6 11.9 -9.5-16.1-25.6-3.7-30 8.9 -5.6 16-1.4 32.8 9.2 45.6 8.8 10.7 23.7 24.3 38.8 22.2 15.6-2.2 23.7-20.8 9.7-31 9-5.2 20.9-13.7 19.4-25.6M425.1 150.8c2-9.2 7.6-22.5 19.4-20.4 2.9 0.5 5.4 2 7.4 4.1 0.6 0.6 2.8 5.4 3.9 3.4 2.9-5.4 7.8-10 13.8-11.8 4.9-1.4 11.9-0.9 15.1 3.7 3.2 4.7-3.4 12.9 1.5 13.9 11.5 2.4 19.4 13.1 11.4 23.7 -3 4-7.2 7.1-11.4 9.8 -1.5 0.9-5.3 2.2-5.9 4 -0.5 1.4 5 4.8 6 6 8.7 11.5-4.4 23.1-15.9 22.8 -13.3-0.4-25.2-11.3-33.4-20.9C427.9 178.6 422.1 164.9 425.1 150.8 426.8 143.1 421.7 166.9 425.1 150.8z" class="d"/><path d="M506.3 179.3c15.3 2.2 27.9 13.3 17.2 28.9 -6.8 9.9-18.5 8.3-25.2-0.7 -1.5-2-2.7-4.3-3.6-6.6 -1.8-5-1.1-6.5 2.1-10.7C499.7 186.3 502.8 182.6 506.3 179.3z" class="b"/><path d="M505.9 178.8c-3.9 3.8-7.5 8.1-10.7 12.5 -3.6 5-2.2 8.9 0.8 14.2 4.8 8.6 15.7 14.4 24.4 7.2 7.2-5.9 11.3-18.8 4.3-26.3C522.7 184.3 508.4 175.1 505.9 178.8 503.4 181.1 506 178.5 505.9 178.8zM506.2 180.2c7.7 1 17.9 4.6 20.4 12.9 2.3 7.5-3.4 17.9-10.6 20.5 -9 3.2-17.3-5-20.4-12.7C492.3 192.6 500.5 185.8 506.2 180.2 511.5 180.9 503.7 182.6 506.2 180.2z" class="d"/><path d="M500.6 202.9c-5-7.2-0.5-11.2 4.7-16.7 2.4-2.6 10 2 12 4C526.6 199.1 510.2 216.8 500.6 202.9 499.2 200.8 503.2 206.7 500.6 202.9z" class="f"/><path d="M526.5 188.9c3.6 6.5 0.9 14.5-3 20.1 -2 2.8-13.2 11.3-14.5 4.8 11.8 2.8 23.2-14.8 15.7-24.4C525.4 189.3 526 189.1 526.5 188.9 530 195.1 525.9 189.1 526.5 188.9z" class="g"/><path d="M477.6 175c-0.8-5.2-2.4-9.3-6.4-12.9 -3.6-3.3-0.5-5.4 3.1-8 3.1-2.3 7.1-4.1 11-3.8 5.6 0.3 10.6 5.7 8.8 11.4C492.1 167.5 483.5 173.4 477.6 175 477.3 172.9 479.2 174.5 477.6 175z" class="h"/><path d="M479.3 156c-6.8 4-2.9 11 4 7C490.1 159 486.1 152 479.3 156 476.2 157.8 482.4 154.2 479.3 156z"/><path d="M478.6 157.4c-3.5 2-1.5 5.6 2 3.6C484.2 158.9 482.2 155.3 478.6 157.4 477.1 158.3 480.2 156.5 478.6 157.4z" class="i"/><path d="M484.2 155.7c-0.7 0.1-1.2 0.4-1.3 1.1 0.2 1.3 3.1 0.8 2.9-0.4C485.5 155.7 484.9 155.5 484.2 155.7 483.4 155.8 485 155.5 484.2 155.7z" class="i"/><path d="M486 158.4c-3.8 0.3-3.7 4.3 0.2 4C490 162.2 489.9 158.2 486 158.4 484.3 158.6 487.7 158.3 486 158.4z" class="h"/><path d="M464.3 153c-0.7-4.1-2.8-9.6-5.7-12.5 -4-4.1 10.8-11.1 14.2-11 5.9 0.2 9.4 5.6 7.1 11.1C477.4 146.7 470.4 151 464.3 153 464 151.1 465.8 152.5 464.3 153z" class="h"/><path d="M466.2 134.5c-6.8 4.5-2.6 11.3 4.3 6.8C477.3 136.8 473.1 130 466.2 134.5 463.1 136.6 469.3 132.5 466.2 134.5z"/><path d="M465.6 136c-3.3 2.2-1.6 5.9 2.2 3.5C471.1 137.3 469.4 133.5 465.6 136 464 137 467.2 134.9 465.6 136z" class="i"/><path d="M471.3 133.8c-0.8 0.1-1.2 0.5-1.3 1.2 0.2 1.3 3.1 0.6 2.9-0.6C472.5 133.8 472 133.6 471.3 133.8 470.5 134 472.1 133.6 471.3 133.8z" class="i"/><path d="M473.2 136.5c-3.8 0.5-3.8 4.6 0.3 4C477.2 140 477.3 135.9 473.2 136.5 471.4 136.8 474.9 136.3 473.2 136.5z" class="h"/><path d="M476.3 178.9c0.9-4.8-0.1-9.9-3.2-13.8 -1.7-2.2-4-3.9-6.6-5.1 -0.8-0.3-3.6-3.8-1.1-2.9 4.8 1.6 9 4.8 11.1 9.6 1.3 2.9 1.8 6.1 1.6 9.3C478 177.3 476.1 179.8 476.3 178.9 478 169.9 476.1 180 476.3 178.9z" class="f"/><path d="M450.9 130.4c3.1 3.3 5.9 7.1 7.8 11.2 0.6 1.2 4.4 12.2 0.8 12 0.9 0-3.1-11.9-3.7-12.9 -1.3-2.3-2.8-4.4-4.5-6.3C450.9 133.8 449.4 128.7 450.9 130.4 456.3 136 450.2 129.6 450.9 130.4z" class="f"/><path d="M452.1 149.9c4.9-12.1 15.6-3.7 17.7 5.5 0.8 3.5-3.7 12.4-8.4 10.1C458.5 160.3 455.4 155.1 452.1 149.9z" class="c"/><path d="M462 166.5c-0.6-3.3 3.3-2.9 5.3-4.6 3-2.5 2.1-6.4 0.6-9.4 -1.5-3-4-6.9-7.3-8.1 -5.3-1.8-6 6.1-8.4 5.9 -2.6-0.3 4.4-7.9 6.2-8.3 4.6-0.9 8.4 4.4 10.3 7.8 2.5 4.5 3.2 10.3-1 14 -1.4 1.2-8.4 4.6-5.3 0.4C463.3 163.9 462.6 166.3 462 166.5z" class="f"/><path d="M465 159.7c0 0-4.8-6.3-6.3-3C457.2 160 462.4 160.6 465 159.7z" class="j"/><path d="M457.7 147.4c0 0 3.3 7.2-0.2 7.1C453.9 154.4 455.7 149.4 457.7 147.4z" class="j"/><path d="M452 163.4c-1.9-0.1-4.1 0.3-5.6 1.5 -1.1 0.9-1.4 4.8-2.9 4.9 -2.1 0.1 2.4-6.7 3.1-7.2 1.7-1.1 3.7-1.5 5.6-1.4C453.4 161.1 452.9 163.4 452 163.4 448.7 163.2 452.9 163.4 452 163.4z" class="f"/><path d="M470.8 198.5c3.7-1.9 1.3-7.1-0.4-5.2 1.1-1.2 0.6 6.5-0.7 5.3C470.1 198.5 470.5 198.5 470.8 198.5z" class="k"/><path d="M435.6 139.3c-7.8 13.7-5.5 29.8 3.6 42 3.9 5.2 8.7 9.8 14.6 12.7 1.7 0.8 16.8 5.5 17.1 1.4 -0.1 2.2-15-1.9-16.6-2.8 -6-3.2-10.9-8.2-14.8-13.8 -4.5-6.4-7.2-13.5-7.1-21.4 0-1.9 4.1-18.9 4.6-18.6C436.6 138.6 436.1 138.7 435.6 139.3z" class="k"/><path d="M434.9 138.9c3.6-3 2.2 2.1 4.4 1.3 2.4-0.9-1-3.7-2.6-3.3 -0.2 0-4.2 1.7-2.9 2.3C434.1 139.1 434.5 139 434.9 138.9z" class="k"/><path d="M491.1 264.8c2.4 4 12.8 15.2 6.1 20.1 -2.9 2.1-6.7 1.1-9.6 4 -2.6 2.6-3.6 6.5-8.4 5.4 -7.5-1.9-14.1-16.4-11-23.5C471.7 263 484.6 257.6 491.1 264.8 493.1 268.1 488 261.4 491.1 264.8z" class="c"/><path d="M490.7 265.3c3.1 4.9 14.7 17.3 3.1 20.4 -3 0.8-5 1.4-7.1 3.7 -1.8 2-2.4 4.3-5.8 4.5 -2.4 0.1-4.7-1.8-6.3-3.4 -6.2-6-9.4-17.2-2.7-23.8 3.4-3.3 8.3-4.9 12.9-4.5C487.1 262.4 489 263.7 490.7 265.3c1.4 1.4-0.2-2.1-0.1-1.9 -0.3 0.3-0.6 0.7-0.8 1C490.1 264.7 490.4 265 490.7 265.3c0.4 0.5 1.2-0.7 0.9-1.1 -0.3-0.3-0.7-0.8-1.1-1.1 -0.5-0.2-1 0.6-0.8 1 0.3 0.8 1 1.6 1.6 2.1 0.2 0.2 0.5-0.1 0.6-0.2 0 0 0 0 0 0 0.1-0.2 0.3-0.5 0.2-0.8 -4.1-9.2-17.8-2.8-22.3 2.3 -6.3 7.2-1.3 19.1 4.7 24.8 2.2 2.1 6.5 4.2 9.2 1.8 2.7-2.3 3.7-5.3 7.4-6.6 2.6-0.9 4.9-1 7.1-2.8 6.3-5.4-3.8-16-6.6-20.4C491.2 263.7 490.4 264.8 490.7 265.3z" class="d"/><path d="M488.1 264.8c2.7 0.7 6.2-5.9 10.4-4.2 6.7 2.7-1.2 10.7-4.7 11.9 -2.4 0.8-17.4-1.5-14.5-5.9C480.4 264.6 486.1 264.3 488.1 264.8 488.3 264.9 487.8 264.8 488.1 264.8z" class="c"/><path d="M487.8 264.3c3.4-0.8 5.4-4.9 9.6-4.5 3.6 0.3 4.8 4 3.7 7 -1.3 3.5-4.9 5.8-8.4 6.5 -1 0.2-11.9-0.4-10.8-2.7 0.5-1.2 6.8 1.7 8.2 1.7 3.8 0.1 8-1.9 9.5-5.6 1.9-4.7-2-6.7-5.9-4.8 -1.2 0.6-2.4 1.4-3.5 2.2C487.7 265.9 487.4 264.4 487.8 264.3z" class="d"/><path d="M492.8 283.3c-0.2-3.8-8.9-9.3-3.5-13.2 4.1-3 9 4.1 10.7 7 1.6 2.8 3.2 7.6-0.8 9.3C496.4 287.5 486.9 286.5 492.8 283.3z" class="c"/><path d="M492 283.1c0.8-1.8-4.2-5.8-4.8-7.7 -1.8-5.7 4.1-8.2 8.2-5 3.4 2.7 7.8 8.2 7 12.9 -0.8 4.4-9.3 3.7-9.2 3.6 0.9-2.6 8 1.3 7.6-4.6 -0.2-4.2-4.5-11.3-9-12.2 -4.9-1.1-3.1 5.6-1.7 7.5 1.1 1.5 3 2.9 3.4 4.8C494 284.4 491.7 283.7 492 283.1z" class="d"/><path d="M485.4 287.5c-0.2-3.8-8.9-9.3-3.5-13.2 4.1-3 9 4.1 10.7 7 1.6 2.8 3.2 7.6-0.8 9.3C489.1 291.7 479.5 290.7 485.4 287.5z" class="c"/><path d="M484.6 287.3c0.8-1.7-4.2-5.8-4.8-7.7 -1.8-5.7 4.1-8.2 8.2-5 3.4 2.7 7.8 8.2 7 12.9 -0.8 4.4-9.3 3.7-9.2 3.6 0.9-2.6 8 1.3 7.6-4.6 -0.3-4.2-4.5-11.3-9-12.2 -4.9-1.1-3.1 5.6-1.7 7.5 1.1 1.5 3 2.9 3.4 4.8C486.6 288.7 484.3 287.9 484.6 287.3z" class="d"/><path d="M484.4 293.1c6.2-4.9-4.7-18-9-13.6C468.7 286.4 480.3 291 484.4 293.1 489.4 289.1 481.8 291.8 484.4 293.1z" class="c"/><path d="M483.8 292.8c4.5-3.9-1.2-13-6.1-13.7 -6.9-1 0.3 12.7 1.1 12 -3.6 2.8-10.3-17.5 0.7-12.7 3.4 1.5 7.1 6 7.6 9.7C487.7 292.3 483.8 292.8 483.8 292.8z" class="d"/><path d="M363.5 48.6c-3.7 1.2-9.3 0.9-9.3 5.2 0 6.8 0 13.6 0 20.4 0 9 0 18 0 27 0 3.7 0 7.3 0 11 0 4.6 5.4 4.8 9.3 6.3C363.5 95.1 363.5 71.9 363.5 48.6z" class="l"/><path d="M381.2 53.5c-5.9-1.7-11.9-3.3-17.8-5 0 23.3 0 46.6 0 69.9 4.9-1 17.7-0.4 17.7-6.5 0-6.8 0-13.6 0-20.4C381.2 78.8 381.2 66.2 381.2 53.5z" class="m"/><path d="M380.9 67.6c-18.3-2.2-18.4 30.4-0.5 29.2C379.9 94 381.7 67.7 380.9 67.6 372.2 66.5 382.7 67.8 380.9 67.6z" fill="#960000"/><path d="M373.4 81.9c-0.1 4.3 0.8 14.7 7 14.9s7.8-10.1 8-14.3c0.1-4.3-0.8-14.7-7-14.9C375.2 67.4 373.5 77.7 373.4 81.9 373.1 90 373.7 73.9 373.4 81.9z" class="n"/><path d="M408.5 123.3c-5-9.8-8.1-20.8-15-29.6 -2.1-2.7-6.1-6.4-8.4-1.4 -2.6 5.5 2.6 13.6 5.3 18.1 -3.1 0.4-5.4 1.9-8.6 2.3 -2.4 0.3-4.7 1.5-5.8 3.7 -3.1 6.2 3.2 15.8 7.4 20C392 145 412.1 136.3 408.5 123.3 406.7 119.6 409.8 127.9 408.5 123.3z" class="c"/><path d="M409.1 122.5c-5.2-10.5-8.3-22.5-16.4-31.2 -5-5.4-9.4 0.2-8.9 5.8 0.2 2.6 1.2 5.1 2.3 7.4 0.9 2 2.9 8.2 4.5 4.9 -2.9 0.6-4.3 2.2-7.4 2.2 -3.2 0-6.5 1.6-7.8 4.7 -3.1 6.8 3.1 16.4 7.8 21.1 5.8 5.8 13.2 3.3 19.7 0 2.6-1.3 4.5-3.7 5.5-6.3 0.3-0.6 1.9-9.4 0.3-8.7 -1.5 0.6-1.4 9.4-3.7 11.8 -2.8 2.8-11.5 5.9-15.3 4.9 -9.1-2.5-21.7-27.1-5.5-25.5 1.4 0.1 6.2-1.8 6.9-3 0.7-1.4-2.8-6-3.4-7.4 -1-2.3-4.4-16.5 2.4-11.8 3.7 2.6 19.5 32.1 18.5 32.7C409 123.7 409.2 123.2 409.1 122.5 404 112.2 409.5 123.2 409.1 122.5z" class="d"/><path d="M385.1 115.5c3.5 2.5 2.6 11.4 8.8 10.8 5.6-0.5 3-8.7 1.7-11.8 -1.7-3.9-5.8-10.1-10.4-5.8C383.1 110.7 379.4 119.1 385.1 115.5z" class="c"/><path d="M384.9 116.3c2 0.3 2.8 7 4.1 8.5 3.4 4 8.5 2.1 9-2.8 0.5-4.8-2.2-10.7-5.7-14 -5.9-5.4-9.1 5.3-10.2 5 2.4 0.6 3.2-6.8 7.7-4.6 4.2 2.1 6.2 8.4 6.8 12.7 0.8 6.7-6.2 4.3-7.9-0.1 -0.7-1.8-0.9-4.3-2.4-5.7C384.7 113.7 384.1 116.2 384.9 116.3z" class="d"/><path d="M379.6 113.2c7.1-2.4 13.4 12.7 7.9 15.4 -3.4 1.6-7.3-1.4-8.2-4.6C378.1 119.4 379.1 118 379.6 113.2 386 111 379.3 116.3 379.6 113.2z" class="c"/><path d="M379.5 114c6-1.8 10.9 8.4 8.7 13.2 -3 6.6-11-7.4-10-7.8 -4.4 1.5 9.7 19.3 11.7 6.5 0.6-3.8-1.3-9.6-4.3-12.2 -1.7-1.4-3.9-1.8-6-1.2C379.1 112.6 378.4 114.3 379.5 114z" class="d"/><path d="M405.3 125.2c1-2.9 9-2 9.6-7 0.7-6.1-8.1-5.4-11.3-3.6 -4.7 2.7-9.5 11.8-5.9 17C399.6 134.2 404.8 126.8 405.3 125.2 405.4 124.9 405.2 125.4 405.3 125.2z" class="c"/><path d="M405.6 125.7c2.1-2 5.9-2.2 8.2-4.4 3.4-3.2 1.4-7.9-2.9-8.9 -3.6-0.8-7.6 1-10.2 3.5 -0.9 0.8-6.8 11.1-4.1 11.5 1.5 0.2 1.9-6 2.5-7.1 1.9-4 6.3-7.2 10.9-6.4 5.4 1 4.7 5.7 0.9 7.9 -1.6 1-4.6 1.5-5.9 2.7C404.5 125.1 404.7 126.6 405.6 125.7z" class="d"/><path d="M390.5 38.6c-1.4-3.4-2.9-6.7-4.3-10.1 2.6 0.7 8.1 3.3 10.6 2.7s6.2-5.4 8.3-7.2c0.2 2.7-0.7 8.7 0.7 11s7.1 4.3 9.4 5.7c-2.5 1-8.5 2-10.2 4s-1.9 8.1-2.5 10.7c-1.7-2.1-4.6-7.4-7-8.5s-8.2 0.7-10.9 1C386.5 44.7 388.5 41.6 390.5 38.6z" class="n"/><path d="M412.9 77.4c-1.1-2.5-2.1-5-3.2-7.5 1.9 0.5 5.9 2.5 7.8 2s4.6-4 6.1-5.3c0.5 8 0.6 8.1 7.4 12.2 -7.4 2.9-7.6 3.1-9.4 10.9 -1.3-1.5-3.4-5.5-5.2-6.2s-6.1 0.5-8.1 0.7C410 82 411.5 79.7 412.9 77.4z" class="n"/><path d="M432.1 39.4c-1.1-2.5-2.1-5-3.2-7.5 1.9 0.5 5.9 2.5 7.8 2s4.6-4 6.1-5.3c0.5 8 0.6 8.1 7.4 12.2 -7.4 2.9-7.6 3.1-9.3 10.9 -1.3-1.5-3.4-5.5-5.2-6.2s-6.1 0.5-8.1 0.7C429.2 44 430.6 41.7 432.1 39.4z" class="n"/><path d="M309.3 112.7c0 18.2-0.1 36.3-0.1 54.5 2.6-0.3 13.7-0.1 13.8-2.8 0.1-7.7 0.2-15.5 0.3-23.2 0.1-7.7 0.2-15.5 0.3-23.2C323.5 115 312 113.5 309.3 112.7z" class="l"/><path d="M311.8 113.1c0 18 0.1 35.9 0.1 53.9 3.3-0.1 14.4 1.8 14.4-2 0-8-0.1-16.1-0.1-24.1 0-7.7-0.1-15.4-0.1-23C326 115.1 314.5 113.8 311.8 113.1z" class="m"/><path d="M322.6 126c0 6.9-7.5 6.9-7.5 0C315 119.1 322.6 119.1 322.6 126 322.6 129.1 322.6 122.9 322.6 126z" class="l"/><path d="M324.8 126.3c0 6.9-7.5 6.9-7.5 0C317.2 119.4 324.8 119.4 324.8 126.3 324.8 129.4 324.8 123.2 324.8 126.3z" class="n"/><path d="M322.9 154.1c0 6.9-7.5 6.9-7.5 0C315.3 147.2 322.9 147.2 322.9 154.1 322.9 157.2 322.9 151 322.9 154.1z" class="l"/><path d="M325.1 154.4c0 6.9-7.5 6.9-7.5 0C317.5 147.5 325.1 147.5 325.1 154.4 325.1 157.5 325.1 151.3 325.1 154.4z" class="n"/><path d="M320.9 127.1c3.7 0.1 7.4 0.1 11.1 0.2 1.3 0 3.8-2.9 1.6-2.9 -3.7-0.1-7.4-0.1-11.1-0.2C321.2 124.2 318.7 127 320.9 127.1z" class="n"/><path d="M319.8 155.3c3.7 0.1 7.4 0.1 11.1 0.2 1.3 0 3.8-2.9 1.6-2.9 -3.7-0.1-7.4-0.1-11.1-0.2C320.1 152.4 317.5 155.2 319.8 155.3z" class="n"/><path d="M339.5 160.7c0 4.3-7.8 3.1-7.9-1.3 0-4.5 0-9-0.1-13.5 0-5.9 0-11.7-0.1-17.6 0-2.1-1-6.8 0-8.8 0-4.3 7.8-3.1 7.9 1.3 0 4.5 0 9 0.1 13.5C339.4 143.2 339.5 151.9 339.5 160.7z" class="m"/></svg>