<svg xmlns="http://www.w3.org/2000/svg" viewBox="0 0 768 430"><style>.a{fill:#5B261D;}.b{fill:#C77E38;}.c{fill:#390000;}.d{fill:#EF9945;}.e{fill:#FDAB4C;}.f{fill:#45160C;}.g{fill:#5A686F;}.h{fill:#42525A;}.i{fill:#7A8C94;}.j{fill:#404041;}.k{fill:#637981;}.l{fill:#FFF;}.m{fill:#D18331;}.n{fill:#6F3229;}.o{fill:#FC9C3C;}.p{fill:#FDA93E;}.q{fill:#FFD063;}.r{fill:#231F20;}</style><rect x="495.5" y="41.8" width="10" height="348.2" class="a"/><rect x="282.9" y="41.8" width="10" height="348.2" class="a"/><rect x="268.7" y="46.6" width="251.1" height="52.8" fill="#FFBE42"/><rect x="533.7" y="275.2" width="13.6" height="108.4" class="b"/><path d="M547.4 375.9l2.8 12.4c0 1.6-1.5 1.7-3.4 1.7h-13c-1.9 0-3.4-0.1-3.4-1.7l3.3-12.4H547.4z" class="c"/><rect x="471.4" y="275.2" width="13.6" height="108.4" class="b"/><path d="M485 375.9l2.8 12.4c0 1.6-1.5 1.7-3.4 1.7h-13c-1.9 0-3.4-0.1-3.4-1.7l3.3-12.4H485z" class="c"/><path d="M478.2 291.8l6.8 9.1c0 0 30.2 8.2 67.8 0.9v-53.2h-67.4L478.2 291.8z" class="d"/><path d="M576.6 297.2v-47.3c-1.3-0.7-2.6-1.2-3.6-1.3 -0.2 0-0.4 0-0.5 0h-13.7c-2 0-3.7 1.7-3.7 3.7s1.7 3.7 3.7 3.7h13.3c1 0.3 4.1 1.7 4.1 7.7v33.4H576.6z" class="d"/><path d="M530.9 267.3c-2 9.6-1.5 29.7 21.2 34.5v81.8h13.6V258.9c0 0 1.5-10.3-8-10.3h-5.6L530.9 267.3z" class="d"/><path d="M470.4 267.3c-2 9.6-1.5 29.7 21.2 34.5v81.8h13.6V258.9c0 0 1.5-10.3-8-10.3h-5.6L470.4 267.3z" class="d"/><polygon points="444.2 138.9 474.1 283.3 505 256.6 469.6 125.5 " class="d"/><path d="M505.2 375.9l2.8 12.4c0 1.6-1.5 1.7-3.4 1.7h-13c-1.9 0-3.4-0.1-3.4-1.7l3.3-12.4H505.2z" class="a"/><path d="M565.6 375.9l2.8 12.4c0 1.6-1.5 1.7-3.4 1.7h-13c-1.9 0-3.4-0.1-3.4-1.7l3.3-12.4H565.6z" class="a"/><path d="M576.6 294.6c-1.8 0.9-3 2.6-3 4.8 0 1.8 1.5 5.2 3 8V294.6z" class="a"/><path d="M529.1 264.6c-1.1 4-1.4 8.2-1.1 12.4 0.4 4.2 1.5 8.3 3.6 12 1.1 1.8 2.3 3.5 3.8 5.1 1.5 1.5 3.1 2.8 4.9 3.9 3.6 2.2 7.6 3.5 11.7 4.1 -4-1.1-7.8-2.6-11.2-4.9 -3.4-2.2-6.2-5.2-8.2-8.8 -2-3.5-3.2-7.5-3.7-11.5 -0.3-2-0.4-4.1-0.4-6.1C528.6 268.7 528.8 266.6 529.1 264.6z" fill="#A1662A"/><path d="M485.7 274c1.2 1 3.6 1 4.9 0 2.7-2.3 4.8-4.4 7-7 1-1.2 1-3.6 0-4.9 -2.3-2.7-4.3-4.8-7-7 -1.2-1-3.6-1-4.9 0 -2.7 2.3-4.8 4.4-7 7 -1 1.2-1 3.6 0 4.9C480.9 269.7 483 271.8 485.7 274z" class="a"/><path d="M513.3 248.6h17c0.3 0.4 0.7 0.7 1 1.1 1 1.3 1 3.6 0 4.9 -2.3 2.7-4.3 4.8-7 7.1 -1.2 1-3.6 1-4.9 0 -2.7-2.3-4.8-4.4-7-7.1 -1-1.3-1-3.6 0-4.9C512.6 249.3 512.9 249 513.3 248.6z" class="a"/><path d="M496.2 250.7c0.7-0.8 2-2.1 2.7-2.8l0.4 0.6h6.2c0.7 0.7 1.3 1.3 1.9 2.1 0.6 0.7 0.6 2.2 0 2.9 -1.4 1.6-2.6 2.9-4.2 4.2 -0.7 0.6-2.2 0.6-2.9 0 -1.6-1.4-2.8-2.6-4.2-4.2C495.6 252.9 495.6 251.5 496.2 250.7z" class="a"/><path d="M516.7 274.7c0.5 0.4 1.5 0.4 2 0 1.1-0.9 1.9-1.8 2.8-2.8 0.4-0.5 0.4-1.5 0-2 -0.9-1.1-1.7-1.9-2.8-2.8 -0.5-0.4-1.5-0.4-2 0 -1.1 0.9-1.9 1.8-2.8 2.8 -0.4 0.5-0.4 1.5 0 2C514.7 273 515.6 273.8 516.7 274.7z" class="a"/><path d="M504 278c0.5 0.4 1.5 0.4 2 0 1.1-0.9 1.9-1.8 2.8-2.8 0.4-0.5 0.4-1.5 0-2 -0.9-1.1-1.7-1.9-2.8-2.8 -0.5-0.4-1.5-0.4-2 0 -1.1 0.9-1.9 1.8-2.8 2.8 -0.4 0.5-0.4 1.5 0 2C502.1 276.2 502.9 277.1 504 278z" class="a"/><path d="M551.6 248.6h13c1 1 2 2.1 3 3.3 1 1.3 1.3 2.9 0.3 4.2h-2.2l0 2.1c-1.4 2.2-3.1 3.9-5.1 5.6 -1.2 1-3.6 1-4.9 0 -2.7-2.3-4.8-4.4-7-7 -1-1.3-1-3.6 0-4.9C549.7 250.7 550.6 249.6 551.6 248.6z" class="a"/><path d="M550.5 270.6c0.5 0.4 1.5 0.4 2 0 1.1-0.9 2-1.8 2.9-2.9 0.4-0.5 0.4-1.5 0-2 -0.9-1.1-1.8-2-2.9-2.9 -0.5-0.4-1.5-0.4-2 0 -1.1 0.9-2 1.8-2.9 2.9 -0.4 0.5-0.4 1.5 0 2C548.5 268.8 549.4 269.7 550.5 270.6z" class="a"/><path d="M534.7 273.9c0.5 0.4 1.5 0.4 2 0 1.1-0.9 2-1.8 2.9-2.9 0.4-0.5 0.4-1.5 0-2 -0.9-1.1-1.8-2-2.9-2.9 -0.5-0.4-1.5-0.4-2 0 -1.1 0.9-2 1.8-2.9 2.9 -0.4 0.5-0.4 1.5 0 2C532.7 272 533.6 272.9 534.7 273.9z" class="a"/><path d="M534.9 248.6h11.1c0 0 0.1 0.1 0.1 0.1 0.6 0.8 0.6 2.2 0 2.9 -1.4 1.6-2.6 2.9-4.2 4.2 -0.7 0.6-2.2 0.6-2.9 0 -1.6-1.4-2.9-2.6-4.2-4.2 -0.6-0.8-0.6-2.2 0-2.9C534.8 248.7 534.8 248.6 534.9 248.6z" class="a"/><path d="M545.5 279.1c0.4 0.3 1.2 0.3 1.6 0 0.9-0.8 1.6-1.5 2.4-2.4 0.4-0.4 0.4-1.2 0-1.6 -0.8-0.9-1.5-1.6-2.4-2.4 -0.4-0.3-1.2-0.3-1.6 0 -0.9 0.8-1.6 1.5-2.4 2.4 -0.3 0.4-0.3 1.2 0 1.6C543.9 277.7 544.6 278.4 545.5 279.1z" class="a"/><path d="M486.3 243.5c0.4 0.6 1.5 0.8 2.1 0.5 1.4-0.7 2.5-1.4 3.7-2.3 0.6-0.4 0.8-1.5 0.5-2.1 -0.7-1.4-1.4-2.5-2.3-3.7 -0.4-0.6-1.5-0.8-2.1-0.5 -1.4 0.7-2.5 1.4-3.7 2.3 -0.6 0.4-0.8 1.5-0.5 2.1C484.7 241.2 485.4 242.3 486.3 243.5z" class="a"/><path d="M474.9 217.9c0.5 0.6 1.6 0.9 2.4 0.5 1.6-0.8 2.8-1.6 4.2-2.7 0.6-0.5 0.9-1.7 0.5-2.4 -0.8-1.6-1.6-2.8-2.6-4.2 -0.5-0.6-1.6-0.9-2.4-0.5 -1.6 0.8-2.8 1.6-4.2 2.7 -0.6 0.5-0.9 1.7-0.5 2.4C473 215.2 473.8 216.5 474.9 217.9z" class="a"/><path d="M471.8 185.1c0.5 0.6 1.7 0.9 2.4 0.5 1.6-0.8 2.8-1.6 4.2-2.7 0.6-0.5 0.9-1.7 0.5-2.4 -0.8-1.6-1.6-2.8-2.7-4.2 -0.5-0.6-1.7-0.9-2.4-0.5 -1.6 0.8-2.8 1.6-4.2 2.7 -0.6 0.5-0.9 1.7-0.5 2.4C469.9 182.4 470.7 183.6 471.8 185.1z" class="a"/><path d="M499.6 247c-1 0.4-2.5-0.2-3.1-1.1 -1.2-2.1-2-3.9-2.9-6.1 -0.4-1 0.2-2.5 1.1-3.1 1.5-0.8 2.8-1.5 4.2-2.1l3.1 11.4C501.3 246.3 500.5 246.7 499.6 247z" class="a"/><path d="M491.2 229.9c-1.5 0.5-3.6-0.2-4.4-1.6 -1.7-2.9-2.9-5.5-4.1-8.7 -0.5-1.5 0.2-3.6 1.6-4.4 2.9-1.7 5.4-2.8 8.4-4l4.4 16.2C495.2 228.3 493.3 229.1 491.2 229.9z" class="a"/><path d="M482.5 205.8c-1.5 0.5-3.6-0.2-4.4-1.6 -1.7-2.9-2.9-5.5-4.1-8.7 -0.5-1.5 0.2-3.6 1.6-4.4 2.9-1.7 5.5-2.9 8.7-4.1 0.5-0.2 1.2-0.2 1.8-0.1l4.2 15.4C487.7 203.6 485.4 204.7 482.5 205.8z" class="a"/><path d="M475.8 169.5c-1.2 0.4-3-0.2-3.7-1.3 -1.4-2.5-2.4-4.6-3.4-7.3 -0.4-1.2 0.2-3.1 1.3-3.7 2.4-1.4 4.5-2.4 7.1-3.4l3.7 13.5C479.2 168.2 477.6 168.9 475.8 169.5z" class="a"/><path d="M434.5 143.5c-3.3 0.5-13.2-0.8-13.7-4.2l0 0c-0.5-3.4 8.6-7.4 11.9-7.9l0 0c3.3-0.5 6.4 1.8 6.9 5.2l0 0C440.2 139.9 437.9 143 434.5 143.5L434.5 143.5z" class="e"/><path d="M432.8 141.2c-2 0.3-7.8-0.5-8.1-2.5l0 0c-0.3-2 5.1-4.4 7.1-4.7l0 0c2-0.3 3.8 1.1 4.1 3.1l0 0C436.1 139.1 434.8 140.9 432.8 141.2L432.8 141.2z" class="a"/><path d="M476 143.5c3.3 0.5 13.2-0.8 13.7-4.2l0 0c0.5-3.4-8.6-7.4-11.9-7.9l0 0c-3.3-0.5-6.4 1.8-6.9 5.2l0 0C470.4 139.9 472.7 143 476 143.5L476 143.5z" class="e"/><path d="M477.7 141.2c2 0.3 7.8-0.5 8.1-2.5l0 0c0.3-2-5.1-4.4-7.1-4.7l0 0c-2-0.3-3.8 1.1-4.1 3.1l0 0C474.4 139.1 475.8 140.9 477.7 141.2L477.7 141.2z" class="a"/><path d="M439.4 182.7c0 2.9 4.6 10.2 15.7 10.2 10.1 0 15.7-7.3 15.7-10.2 0 0 6-27.7 8.6-36.5 2.2-7.7-3-22.2-24.3-22.2 -17.7 0-25.7 12.3-24.3 22.2C432.2 155.5 439.4 182.7 439.4 182.7z" class="e"/><circle cx="443.5" cy="151.7" r="2.2" class="f"/><ellipse cx="467" cy="151.7" rx="2.1" ry="2.2" class="f"/><path d="M455.3 192.9c-8.9 0-13.7-4.8-15.2-8.1 0.2-3.9 3.4-7.1 7.3-7.1h15.7c3.9 0 7.1 3 7.3 6.9C468.8 187.9 463.6 192.9 455.3 192.9z" class="a"/><path d="M458.7 177.7c0 1.7 1.4 3.1 3.1 3.1 1.7 0 3.1-1.4 3.1-3.1 0-1.7-1.4-3.1-3.1-3.1C460.1 174.6 458.7 176 458.7 177.7z" class="a"/><path d="M460.1 177.7c0 1 0.8 1.8 1.8 1.8 1 0 1.8-0.8 1.8-1.8 0-1-0.8-1.8-1.8-1.8C460.8 175.9 460.1 176.7 460.1 177.7z" class="c"/><path d="M445.6 177.7c0 1.7 1.4 3.1 3.1 3.1 1.7 0 3.1-1.4 3.1-3.1 0-1.7-1.4-3.1-3.1-3.1C446.9 174.6 445.6 176 445.6 177.7z" class="a"/><ellipse cx="448.6" cy="177.7" rx="1.8" ry="1.8" class="c"/><rect x="440.6" y="110" width="4.3" height="20.4" class="b"/><ellipse cx="442.8" cy="110" rx="3.9" ry="3.9" class="a"/><rect x="465.6" y="110" width="4.3" height="20.4" class="b"/><ellipse cx="467.7" cy="110" rx="3.9" ry="3.9" class="a"/><rect x="500" y="294.9" width="19.8" height="81.4" class="g"/><path d="M519.9 369.4l4 18.1c0 2.4-2.2 2.5-4.9 2.5h-18.8c-2.7 0-4.9-0.1-4.9-2.5l4.8-18.1H519.9z" class="g"/><path d="M513.1 390c0 0 0-0.1 0-0.1 0-2.6 1.7-4.6 3.8-4.6 2.1 0 3.9 2.1 3.9 4.6 0 0 0 0.1 0 0.1H513.1z" class="h"/><path d="M505.7 390c0 0 0-0.1 0-0.1 0-2.6 1.7-4.6 3.9-4.6 2.1 0 3.9 2.1 3.9 4.6 0 0 0 0.1 0 0.1H505.7z" class="h"/><path d="M498.4 390c0 0 0-0.1 0-0.1 0-2.6 1.7-4.6 3.9-4.6 2.1 0 3.9 2.1 3.9 4.6 0 0 0 0.1 0 0.1H498.4z" class="h"/><rect x="422.6" y="294.9" width="19.8" height="81.4" class="g"/><path d="M442.5 369.4l4 18.1c0 2.4-2.2 2.5-4.9 2.5h-18.8c-2.7 0-4.9-0.1-4.9-2.5l4.8-18.1H442.5z" class="g"/><path d="M435.6 390c0 0 0-0.1 0-0.1 0-2.6 1.7-4.6 3.9-4.6 2.1 0 3.9 2.1 3.9 4.6 0 0 0 0.1 0 0.1H435.6z" class="h"/><path d="M428.3 390c0 0 0-0.1 0-0.1 0-2.6 1.7-4.6 3.8-4.6 2.1 0 3.9 2.1 3.9 4.6 0 0 0 0.1 0 0.1H428.3z" class="h"/><path d="M421 390c0 0 0-0.1 0-0.1 0-2.6 1.7-4.6 3.9-4.6 2.1 0 3.9 2.1 3.9 4.6 0 0 0 0.1 0 0.1H421z" class="h"/><path d="M550.5 300.6c1.4 0 2.5-1.1 2.5-2.5v-21.8c0-4.8-4.1-6.7-6.8-6.8 0 0-0.1 0-0.1 0h-7.8c-1.4 0-2.5 1.1-2.5 2.5 0 1.4 1.1 2.5 2.5 2.5h7.7c0.8 0.1 2.1 0.4 2.1 1.9v21.8C548 299.5 549.1 300.6 550.5 300.6z" class="g"/><path d="M528.8 259.3h5.7c9.7 0 8.2 17.3 8.2 17.3v58.5h-16.7c-37 6.5-66.2-1.4-66.2-1.4l-13.8-27.3v-47.1H528.8z" class="i"/><rect x="522.8" y="294.9" width="19.8" height="81.4" class="i"/><path d="M542.7 369.4l4 18.1c0 2.4-2.2 2.5-4.9 2.5h-18.8c-2.7 0-4.9-0.1-4.9-2.5l4.8-18.1H542.7z" class="i"/><rect x="445.9" y="294.9" width="19.8" height="81.4" class="i"/><path d="M465.8 369.4l4 18.1c0 2.4-2.2 2.5-4.9 2.5h-18.8c-2.7 0-4.9-0.1-4.9-2.5l4.8-18.1H465.8z" class="i"/><path d="M480.4 251.7l16.6 21.8c0 0 8.6 10.4 0.8 15 0 0-29.7 26.1-40.6 33.4 -4.8 3.3-10.7 0.1-10.7-5 0-5.1 0-56.1 0-56.1s0.2-6.9 5.4-8.8c5.3-1.9 18.9-5 18.9-5S474.9 245.4 480.4 251.7z" class="g"/><path d="M387.9 251.7L371.3 273.5c0 0-8.6 10.4-0.8 15 0 0 29.7 26.1 40.6 33.4 4.8 3.3 10.7 0.1 10.7-5 0-5.1 0-56.1 0-56.1s-0.2-6.9-5.4-8.8c-5.3-1.9-18.9-5-18.9-5S393.4 245.4 387.9 251.7z" class="g"/><path d="M405 304.7c0 3.8 11.6 19.6 29.2 19.6 22.9 0 29.2-15.9 29.2-19.6v-32.7c0-3.8-8.1-18.1-29.6-18.1 -20.3 0-28.8 14.3-28.8 18.1V304.7z" class="i"/><path d="M417.9 282.6c0 1.4 1.1 2.5 2.5 2.5 1.4 0 2.5-1.1 2.5-2.5 0-1.4-1.1-2.5-2.5-2.5C419 280.1 417.9 281.2 417.9 282.6z" class="j"/><path d="M445.4 282.6c0 1.4 1.1 2.5 2.5 2.5 1.4 0 2.5-1.1 2.5-2.5 0-1.4-1.1-2.5-2.5-2.5C446.5 280.1 445.4 281.2 445.4 282.6z" class="j"/><path d="M405.6 335.7v-0.5H417.9v0.5c0 2.9 0 6.4 0.9 8.6 0.3 0.9 0.7 1.8 3.7 1.8 4.6 0 4.7-7 4.7-7.8v-60.2h12.3v60.1c0 1-0.1 9.9-5.8 15.7 -2.9 3-6.8 4.5-11.3 4.5 -7.2 0-12.6-3.4-15.1-9.4C405.6 344.6 405.6 339.7 405.6 335.7z" class="k"/><path d="M404.1 335.3c0 1.2 1 2.2 2.2 2.2h11.6c1.2 0 2.2-1 2.2-2.2l0 0c0-1.2-1-2.2-2.2-2.2H406.3C405.1 333.1 404.1 334.1 404.1 335.3L404.1 335.3z" class="k"/><path d="M451.8 293.2v26.2c0 1.9-1.5 3.4-3.4 3.4 -1.9 0-3.4-1.5-3.4-3.4v-26.2H451.8z" class="l"/><path d="M423.3 293.2v26.2c0 1.9-1.5 3.4-3.4 3.4 -1.9 0-3.4-1.5-3.4-3.4v-26.2H423.3z" class="l"/><path d="M428.7 282.4c0 0.8 0.6 1.5 1.4 1.5h7.2c0.8 0 1.4-0.6 1.4-1.4l0 0c0-0.8-0.6-1.4-1.4-1.4h-7.2C429.3 280.9 428.7 281.6 428.7 282.4L428.7 282.4z" class="i"/><path d="M428.7 288.6c0 0.8 0.6 1.5 1.4 1.5h7.2c0.8 0 1.4-0.6 1.4-1.5l0 0c0-0.8-0.6-1.4-1.4-1.4h-7.2C429.3 287.1 428.7 287.8 428.7 288.6L428.7 288.6z" class="i"/><path d="M428.7 294.7c0 0.8 0.6 1.5 1.4 1.5h7.2c0.8 0 1.4-0.6 1.4-1.5l0 0c0-0.8-0.6-1.5-1.4-1.5h-7.2C429.3 293.3 428.7 293.9 428.7 294.7L428.7 294.7z" class="i"/><path d="M428.7 300.9c0 0.8 0.6 1.4 1.4 1.4h7.2c0.8 0 1.4-0.6 1.4-1.4l0 0c0-0.8-0.6-1.4-1.4-1.4h-7.2C429.3 299.5 428.7 300.1 428.7 300.9L428.7 300.9z" class="i"/><path d="M428.7 307.1c0 0.8 0.6 1.4 1.4 1.4h7.2c0.8 0 1.4-0.6 1.4-1.4l0 0c0-0.8-0.6-1.4-1.4-1.4h-7.2C429.3 305.7 428.7 306.3 428.7 307.1L428.7 307.1z" class="i"/><path d="M428.7 313.3c0 0.8 0.6 1.4 1.4 1.4h7.2c0.8 0 1.4-0.6 1.4-1.4l0 0c0-0.8-0.6-1.4-1.4-1.4h-7.2C429.3 311.9 428.7 312.5 428.7 313.3L428.7 313.3z" class="i"/><path d="M428.7 319.5c0 0.8 0.6 1.5 1.4 1.5h7.2c0.8 0 1.4-0.6 1.4-1.4l0 0c0-0.8-0.6-1.5-1.4-1.5h-7.2C429.3 318 428.7 318.7 428.7 319.5L428.7 319.5z" class="i"/><path d="M428.7 325.7c0 0.8 0.6 1.5 1.4 1.5h7.2c0.8 0 1.4-0.6 1.4-1.4l0 0c0-0.8-0.6-1.5-1.4-1.5h-7.2C429.3 324.2 428.7 324.9 428.7 325.7L428.7 325.7z" class="i"/><path d="M428.7 331.9c0 0.8 0.6 1.5 1.4 1.5h7.2c0.8 0 1.4-0.6 1.4-1.5l0 0c0-0.8-0.6-1.5-1.4-1.5h-7.2C429.3 330.4 428.7 331.1 428.7 331.9L428.7 331.9z" class="i"/><path d="M428.7 338.1c0 0.8 0.6 1.4 1.4 1.4h7.2c0.8 0 1.4-0.6 1.4-1.4l0 0c0-0.8-0.6-1.4-1.4-1.4h-7.2C429.3 336.6 428.7 337.3 428.7 338.1L428.7 338.1z" class="i"/><path d="M501.2 300.5c-1 3.8-1.4 7.7-1 11.6 0.3 3.9 1.4 7.8 3.4 11.3 1 1.7 2.2 3.3 3.6 4.7 1.4 1.4 2.9 2.7 4.6 3.7 3.4 2.1 7.2 3.3 11 3.8 -3.7-1-7.3-2.5-10.5-4.6 -3.2-2.1-5.8-4.9-7.7-8.2 -1.9-3.3-3-7-3.5-10.8 -0.2-1.9-0.4-3.8-0.3-5.7C500.8 304.3 501 302.4 501.2 300.5z" class="g"/><path d="M535.5 390c0 0 0-0.1 0-0.1 0-2.6 1.7-4.6 3.8-4.6 2.1 0 3.8 2.1 3.8 4.6 0 0 0 0.1 0 0.1H535.5z" class="g"/><path d="M528.2 390c0 0 0-0.1 0-0.1 0-2.6 1.7-4.6 3.9-4.6 2.1 0 3.9 2.1 3.9 4.6 0 0 0 0.1 0 0.1H528.2z" class="g"/><path d="M520.8 390c0 0 0-0.1 0-0.1 0-2.6 1.7-4.6 3.9-4.6 2.1 0 3.8 2.1 3.8 4.6 0 0 0 0.1 0 0.1H520.8z" class="g"/><path d="M459.7 390c0 0 0-0.1 0-0.1 0-2.6 1.7-4.6 3.8-4.6 2.1 0 3.9 2.1 3.9 4.6 0 0 0 0.1 0 0.1H459.7z" class="g"/><path d="M452.4 390c0 0 0-0.1 0-0.1 0-2.6 1.7-4.6 3.9-4.6 2.1 0 3.9 2.1 3.9 4.6 0 0 0 0.1 0 0.1H452.4z" class="g"/><path d="M445 390c0 0 0-0.1 0-0.1 0-2.6 1.7-4.6 3.8-4.6 2.1 0 3.9 2.1 3.9 4.6 0 0 0 0.1 0 0.1H445z" class="g"/><path d="M281 389.7c0 0-2.5-5.9-5-7.3 -7.3-4.2-17.6-2.6-17.6-2.6 -1.4 0-2.4 1.1-2.4 2.4v7.5H281z" class="m"/><rect x="252.4" y="326.2" width="11.9" height="63.5" class="m"/><path d="M315.4 389.7c0 0-2.5-5.9-5-7.3 -7.3-4.2-17.6-2.6-17.6-2.6 -1.3 0-2.4 1.1-2.4 2.4v7.5H315.4z" class="m"/><rect x="286.9" y="326.2" width="11.9" height="63.5" class="m"/><path d="M286.9 358.2v1.8c2.4-1.4 4.3-3.4 5.3-5.7C292.2 354.3 290.1 356.4 286.9 358.2z" class="n"/><path d="M286.9 352.3v1.8c4.7-1.3 8.3-3.8 10.1-6.9C297 347.2 292.9 350.4 286.9 352.3z" class="n"/><path d="M286.9 372.4v1.8c2.4-1.4 4.3-3.4 5.3-5.7C292.2 368.5 290.1 370.6 286.9 372.4z" class="n"/><path d="M286.9 366.5v1.8c4.7-1.3 8.3-3.8 10.1-6.9C297 361.4 292.9 364.6 286.9 366.5z" class="n"/><path d="M286.9 386.6v1.8c2.4-1.4 4.3-3.4 5.3-5.7C292.2 382.7 290.1 384.9 286.9 386.6z" class="n"/><path d="M286.9 380.7v1.8c4.7-1.3 8.3-3.8 10.1-6.9C297 375.6 292.9 378.8 286.9 380.7z" class="n"/><path d="M252.4 358.2v1.8c2.4-1.4 4.3-3.4 5.3-5.7C257.8 354.3 255.7 356.4 252.4 358.2z" class="n"/><path d="M252.4 352.3v1.8c4.7-1.3 8.3-3.8 10.1-6.9C262.5 347.2 258.5 350.4 252.4 352.3z" class="n"/><path d="M252.4 372.4v1.8c2.4-1.4 4.3-3.4 5.3-5.7C257.8 368.5 255.7 370.6 252.4 372.4z" class="n"/><path d="M252.4 366.5v1.8c4.7-1.3 8.3-3.8 10.1-6.9C262.5 361.4 258.5 364.6 252.4 366.5z" class="n"/><path d="M252.4 386.6v1.8c2.4-1.4 4.3-3.4 5.3-5.7C257.8 382.7 255.7 384.9 252.4 386.6z" class="n"/><path d="M252.4 380.7v1.8c4.7-1.3 8.3-3.8 10.1-6.9C262.5 375.6 258.5 378.8 252.4 380.7z" class="n"/><path d="M328.6 327.6c0 0 0 8.5-5 13.6 -6.4 6.5-14.7 8.2-14.7 8.2s-26.1 6.4-58.9 0.1v-46.3h58.8L328.6 327.6z" class="o"/><path d="M264.7 389.7c0 0-2.5-5.9-5-7.3 -7.3-4.2-17.6-2.6-17.6-2.6 -1.3 0-2.4 1.1-2.4 2.4v7.5H264.7z" class="o"/><rect x="238.1" y="326.2" width="11.9" height="63.5" class="o"/><path d="M332.1 389.7c0 0-2.5-5.9-5-7.3 -7.3-4.2-17.6-2.6-17.6-2.6 -1.3 0-2.4 1.1-2.4 2.4v7.5H332.1z" class="o"/><rect x="303.5" y="338" width="11.9" height="51.8" class="o"/><path d="M221 353.9c-3.3 0-5.2-1.3-6.3-2.3 -2.1-2.1-2.2-4.8-2.2-5.3v-20.3c0-1.8 1.4-3.2 3.2-3.2s3.2 1.4 3.2 3.2v20.3c0 0.6 0.3 1.2 2 1.2 0.6 0 2 0 2.2-1.8v-29.4c0-9.4 6-12.7 9.2-13.2 0.2 0 0.3 0 0.5 0h12c1.8 0 3.2 1.4 3.2 3.2 0 1.8-1.4 3.2-3.2 3.2h-11.6c-0.9 0.3-3.6 1.4-3.6 6.7v29.5c0 0 0 0.1 0 0.1C229.5 349.1 227.1 353.9 221 353.9z" class="o"/><path d="M210.8 323.8c0-2.9 4.5-10.7 5.3-10.7 0.9 0 5.3 7.8 5.3 10.7 0 2.9-2.4 4.8-5.3 4.8C213.2 328.5 210.8 326.7 210.8 323.8z" class="n"/><path d="M268.4 319.4c1.8 8.3 1.3 25.9-18.5 30v30.1h-11.9v-67.5c0 0-1.3-9 7-9h4.8L268.4 319.4z" class="o"/><path d="M245.5 308.8c0-1.9 0.3-3.8 0.7-5.7h-1.9c-0.4 1.9-0.7 3.8-0.7 5.7 0 7.1 3.6 13.1 8.8 15.4C252.5 324.2 245.5 317.5 245.5 308.8z" class="n"/><path d="M253.9 303.1h-1.9c-0.3 2.1-0.5 4.2-0.5 6.3 0 9.2 3.6 17.1 8.8 20.1 0 0-6.9-8.7-6.9-20.1C253.4 307.3 253.6 305.1 253.9 303.1z" class="n"/><path d="M262 308.8c0-1.9 0.3-3.8 0.7-5.7h-1.9c-0.4 1.9-0.7 3.8-0.7 5.7 0 7.1 3.6 13.1 8.8 15.4C268.9 324.2 262 317.5 262 308.8z" class="n"/><path d="M270.4 303.1h-1.9c-0.3 2.1-0.5 4.2-0.5 6.3 0 9.2 3.6 17.1 8.8 20.1 0 0-6.9-8.7-6.9-20.1C269.8 307.3 270 305.1 270.4 303.1z" class="n"/><path d="M278.4 308.8c0-1.9 0.3-3.8 0.7-5.7h-1.9c-0.4 1.9-0.7 3.8-0.7 5.7 0 7.1 3.6 13.1 8.8 15.4C285.4 324.2 278.4 317.5 278.4 308.8z" class="n"/><path d="M286.8 303.1h-1.9c-0.3 2.1-0.5 4.2-0.5 6.3 0 9.2 3.6 17.1 8.8 20.1 0 0-6.9-8.7-6.9-20.1C286.3 307.3 286.5 305.1 286.8 303.1z" class="n"/><path d="M238.1 341.6v2c2.7-1.5 4.7-3.7 5.9-6.3C244 337.3 241.7 339.6 238.1 341.6z" class="n"/><path d="M238.1 335v2c5.1-1.5 9.2-4.2 11.2-7.6C249.3 329.4 244.8 333 238.1 335z" class="n"/><path d="M238.1 357.3v2c2.7-1.5 4.7-3.7 5.9-6.3C244 353 241.7 355.3 238.1 357.3z" class="n"/><path d="M238.1 350.7v2c5.1-1.5 9.2-4.2 11.2-7.6C249.3 345.1 244.8 348.7 238.1 350.7z" class="n"/><path d="M238.1 373v2c2.7-1.5 4.7-3.7 5.9-6.3C244 368.7 241.7 371 238.1 373z" class="n"/><path d="M238.1 366.4v2c5.1-1.5 9.2-4.2 11.2-7.6C249.3 360.8 244.8 364.4 238.1 366.4z" class="n"/><path d="M303.5 359.1v1.8c2.4-1.4 4.3-3.4 5.3-5.7C308.9 355.2 306.8 357.3 303.5 359.1z" class="n"/><path d="M303.5 353.1v1.8c4.7-1.3 8.3-3.8 10.1-6.9C313.6 348.1 309.6 351.3 303.5 353.1z" class="n"/><path d="M303.5 373.3v1.8c2.4-1.4 4.3-3.4 5.3-5.7C308.9 369.4 306.8 371.5 303.5 373.3z" class="n"/><path d="M303.5 367.3v1.8c4.7-1.3 8.3-3.8 10.1-6.9C313.6 362.3 309.6 365.5 303.5 367.3z" class="n"/><path d="M303.5 387.5v1.8c2.4-1.4 4.3-3.4 5.3-5.7C308.9 383.6 306.8 385.7 303.5 387.5z" class="n"/><path d="M303.5 381.5v1.8c4.7-1.3 8.3-3.8 10.1-6.9C313.6 376.5 309.6 379.7 303.5 381.5z" class="n"/><path d="M268.4 319.4c0.9 3.2 1.2 6.6 0.9 9.9 -0.3 3.3-1.2 6.7-2.9 9.6 -0.8 1.5-1.9 2.8-3.1 4.1 -1.2 1.2-2.5 2.3-4 3.1 -2.9 1.8-6.1 2.8-9.4 3.3 3.2-0.9 6.3-2.1 9-3.9 2.7-1.8 5-4.2 6.6-7 1.6-2.8 2.6-6 3-9.2 0.2-1.6 0.3-3.3 0.3-4.9C268.8 322.7 268.7 321 268.4 319.4z" class="m"/><path d="M300.3 350.9c0.4-0.1 0.8-0.1 1.2-0.2 -1.3-2-2.8-3.9-4.6-5.7C296.9 345 298.6 347.4 300.3 350.9z" class="n"/><path d="M293.8 351.6c0.6 0 1.1-0.1 1.7-0.2 -1.5-4.2-3.7-8.2-6.4-11.7C289.1 339.7 291.8 344.8 293.8 351.6z" class="n"/><path d="M284.4 352.1c0.5 0 1 0 1.5-0.1 -1.4-2.5-3.2-4.9-5.4-7.1C280.5 345 282.5 347.9 284.4 352.1z" class="n"/><path d="M277.5 352.2c0.6 0 1.2 0 1.7 0 -1.5-4.5-3.8-8.8-6.6-12.5C272.6 339.7 275.5 345.1 277.5 352.2z" class="n"/><path d="M267.8 351.8c0.5 0 1 0.1 1.5 0.1 -1.4-2.5-3.2-4.8-5.3-6.9C264.1 345 266 347.8 267.8 351.8z" class="n"/><path d="M260.8 351.1c0.6 0.1 1.2 0.1 1.8 0.2 -1.5-4.2-3.7-8.1-6.3-11.6C256.2 339.7 258.8 344.5 260.8 351.1z" class="n"/><path d="M327.7 333.6c-2.4-1.7-5-3.1-7.7-4.3 0 0 3.3 2.1 7.3 5.6C327.4 334.5 327.6 334 327.7 333.6z" class="n"/><path d="M324.9 339.6c-2.4-1.5-5.1-2.6-8-3.4 0 0 3.3 1.6 7.1 4.5C324.3 340.3 324.6 340 324.9 339.6z" class="n"/><path d="M306.5 336.2c0 0 5.7 3.7 11.3 9.5 0.5-0.3 1-0.6 1.5-1C315.5 341 311.1 338.2 306.5 336.2z" class="n"/><path d="M307.4 286.9c-1.9 2-5 5.2-6.9 7.2 -1.9 2-4.1 1.4-4.8-1.2 -0.8-2.6-2-6.9-2.8-9.5 -0.8-2.6 0.8-4.2 3.4-3.6 2.7 0.7 7 1.7 9.6 2.4C308.6 282.7 309.3 284.9 307.4 286.9z" class="p"/><path d="M304.2 286.9c-1 1.1-2.7 2.9-3.8 3.9 -1 1.1-2.2 0.8-2.7-0.7 -0.4-1.4-1.1-3.8-1.5-5.3 -0.4-1.4 0.4-2.3 1.9-2 1.5 0.4 3.9 0.9 5.3 1.3C304.9 284.6 305.2 285.8 304.2 286.9z" class="q"/><path d="M335.8 286.9c1.9 2 5 5.2 6.9 7.2 1.9 2 4.1 1.4 4.8-1.2 0.8-2.6 2-6.9 2.8-9.5 0.8-2.6-0.8-4.2-3.4-3.6 -2.6 0.7-7 1.7-9.6 2.4C334.6 282.7 334 284.9 335.8 286.9z" class="p"/><path d="M339.1 286.9c1 1.1 2.7 2.9 3.8 3.9 1 1.1 2.2 0.8 2.7-0.7 0.4-1.4 1.1-3.8 1.5-5.3 0.4-1.4-0.4-2.3-1.9-2 -1.5 0.4-3.9 0.9-5.3 1.3C338.4 284.6 338 285.8 339.1 286.9z" class="q"/><path d="M351.7 311.5c0 15.3-14.2 20.5-29.5 20.5 -15.3 0-30.5-5.3-30.5-20.5 0-15.3 13.1-34.8 30.5-34.8C339.3 276.7 351.7 296.2 351.7 311.5z" class="p"/><path d="M338.8 312.6c-7.2 0-13.5 3.1-16.6 7.6 -3.1-4.5-9.4-7.6-16.6-7.6 -3.2 0-9.1 0.6-13.7 1.7 1.8 13.1 16 17.7 30.3 17.7 14.2 0 27.5-4.6 29.3-17.5C347.5 313.3 342.3 312.6 338.8 312.6z" class="m"/><path d="M321.4 276.7c-2.4 0-4.6 0.3-6.8 0.9v30.2c0 6.4 3.2 11.6 7.1 11.6 3.9 0 7.1-5.2 7.1-11.6v-30.1C326.3 277.1 323.9 276.7 321.4 276.7z" class="q"/><path d="M335.1 303.6c0 1.1-0.9 2.1-2.1 2.1 -1.1 0-2.1-0.9-2.1-2.1 0-1.1 0.9-2.1 2.1-2.1C334.1 301.5 335.1 302.4 335.1 303.6z" class="n"/><path d="M312.3 303.6c0 1.1-0.9 2.1-2.1 2.1 -1.1 0-2.1-0.9-2.1-2.1 0-1.1 0.9-2.1 2.1-2.1C311.4 301.5 312.3 302.4 312.3 303.6z" class="n"/><path d="M314.3 319.4v6.6c0 2.5 1.6 3.2 3.6 3.2h7.7c2 0 3.6-0.8 3.6-3.2v-6.6H314.3z" class="p"/><path d="M321.7 316.7c0 3.3 0.3 5.9-3.6 5.9 -1.6 0-3.3 0-5.5 0 -5.4 0-5.8-4.3-3.5-6.7 1.5-1.6 3.6-3 3.6-3C317.5 309.1 321.7 313.5 321.7 316.7z" class="l"/><path d="M321.5 316.7c0 3.3-0.3 5.9 3.6 5.9 1.7 0 3.3 0 5.5 0 5.4 0 5.8-4.3 3.6-6.7 -1.5-1.6-3.6-3-3.6-3C325.7 309.1 321.5 313.5 321.5 316.7z" class="l"/><path d="M317.3 308.9c2.4 0 6.3 0 8.6 0 2.4 0 3.3 1.3 2.2 3 -1.2 1.6-3.1 4.3-4.3 5.9 -1.2 1.6-3.1 1.6-4.3 0 -1.2-1.6-3.1-4.3-4.3-5.9C314 310.2 314.9 308.9 317.3 308.9z" class="n"/><path d="M340.1 291.1c0 0 6.9 9.9 6.9 19.6 0 8.7-6.9 15.4-6.9 15.4 5.2-2.3 8.8-8.4 8.8-15.4C348.9 303.4 345.6 296.5 340.1 291.1z" class="n"/><path d="M336.7 293c0 0 6.2 8.9 6.2 17.5 0 7.8-6.2 13.8-6.2 13.8 4.6-2.1 7.8-7.5 7.8-13.8C344.5 303.9 341.5 297.8 336.7 293z" class="n"/><path d="M303.2 291.1c0 0-6.9 9.9-6.9 19.6 0 8.7 6.9 15.4 6.9 15.4 -5.2-2.3-8.8-8.4-8.8-15.4C294.4 303.4 297.7 296.5 303.2 291.1z" class="n"/><path d="M306.6 293c0 0-6.2 8.9-6.2 17.5 0 7.8 6.2 13.8 6.2 13.8 -4.6-2.1-7.8-7.5-7.8-13.8C298.8 303.9 301.8 297.8 306.6 293z" class="n"/><path d="M325.1 64.3c1.5-0.2 3.3-0.4 5.2-0.4 3.5 0 6.1 0.8 7.7 2.4 1.7 1.6 2.7 3.8 2.7 6.9 0 3.1-1 5.7-2.7 7.4 -1.8 1.8-4.7 2.7-8.4 2.7 -1.8 0-3.2-0.1-4.5-0.2V64.3zM327.5 81.2c0.6 0.1 1.5 0.1 2.5 0.1 5.3 0 8.1-2.9 8.1-8.1 0-4.5-2.5-7.4-7.7-7.4 -1.3 0-2.2 0.1-2.9 0.3V81.2z" class="r"/><path d="M346.4 64.1v19.1h-2.5V64.1H346.4z" class="r"/><path d="M360.6 74.2h-7.4v6.9h8.3v2.1h-10.7V64.1h10.3v2.1h-7.8v6h7.4V74.2z" class="r"/><path d="M364.7 64.3c1.2-0.3 3-0.4 4.7-0.4 2.6 0 4.3 0.5 5.5 1.6 1 0.9 1.5 2.2 1.5 3.6 0 2.5-1.6 4.2-3.6 4.9v0.1c1.5 0.5 2.4 1.9 2.8 3.9 0.6 2.7 1.1 4.5 1.5 5.2h-2.5c-0.3-0.5-0.7-2.2-1.3-4.6 -0.6-2.6-1.6-3.6-3.8-3.7h-2.3v8.3h-2.5V64.3zM367.1 73h2.5c2.6 0 4.3-1.4 4.3-3.6 0-2.5-1.8-3.5-4.4-3.6 -1.2 0-2 0.1-2.4 0.2V73z" class="r"/><path d="M389.8 74.2h-7.4v6.9h8.3v2.1h-10.7V64.1h10.3v2.1h-7.8v6h7.4V74.2z" class="r"/><path d="M393.8 83.2V64.1h2.7l6.1 9.7c1.4 2.2 2.5 4.3 3.4 6.2l0.1 0c-0.2-2.5-0.3-4.9-0.3-7.8V64.1h2.3v19.1h-2.5l-6.1-9.7c-1.3-2.1-2.6-4.3-3.6-6.4l-0.1 0c0.1 2.4 0.2 4.7 0.2 7.9v8.2H393.8z" class="r"/><path d="M416.1 66.2h-5.8V64.1h14.1v2.1h-5.8v17h-2.5V66.2z" class="r"/><path d="M429 64.1v11.3c0 4.3 1.9 6.1 4.4 6.1 2.8 0 4.6-1.9 4.6-6.1V64.1h2.5v11.1c0 5.9-3.1 8.3-7.2 8.3 -3.9 0-6.9-2.2-6.9-8.2V64.1H429z" class="r"/><path d="M447.4 64.1v19.1h-2.5V64.1H447.4z" class="r"/><path d="M451.7 83.2V64.1h2.7l6.1 9.7c1.4 2.2 2.5 4.3 3.4 6.2l0.1 0c-0.2-2.5-0.3-4.9-0.3-7.8V64.1h2.3v19.1h-2.5l-6.1-9.7c-1.3-2.1-2.6-4.3-3.6-6.4l-0.1 0c0.1 2.4 0.2 4.7 0.2 7.9v8.2H451.7z" class="r"/></svg>