<svg version="1.1" id="Layer_1" xmlns="http://www.w3.org/2000/svg" xmlns:xlink="http://www.w3.org/1999/xlink" viewBox="0 0 768 430" xml:space="preserve">
<rect x="201" y="96" fill="none" stroke="#DDE4D0" stroke-width="7" stroke-miterlimit="10" width="366" height="175"/>
<path fill="#DDE4D0" d="M393.6,175.3c-13-4.9-18.3-8.1-18.3-13.1c0-4.3,3.2-8.6,13.101-8.6c11,0,18,3.5,22,5.2l4.399-17.3
	c-5-2.4-11.899-4.6-22.2-5V123h-15v14.5c-16.4,3.2-25.8,13.8-25.8,27.2c0,14.8,11.2,22.5,27.5,28c11.3,3.8,16.2,7.5,16.2,13.3
	c0,6.1-6,9.5-14.7,9.5c-9.9,0-19-3.2-25.4-6.7l-4.4,17.8c5.8,3.4,15.7,6.101,26,6.601v14.5h15V232.1c17.6-3.1,27.2-14.699,27.2-28.3
	C419.2,190.1,411.8,181.7,393.6,175.3z"/>
</svg>
