<svg version="1.1" xmlns="http://www.w3.org/2000/svg"   viewBox="0 0 768 430" enable-background="new 0 0 768 430" xml:space="preserve"><rect x="201" y="127" fill="none" stroke="#DDE4D0" stroke-width="7" stroke-miterlimit="10" width="366" height="175"/><path fill="#DDE4D0" d="M393.6 206.3c-13-4.9-18.3-8.1-18.3-13.1 0-4.3 3.2-8.6 13.1-8.6 11 0 18 3.5 22 5.2l4.4-17.3c-5-2.4-11.9-4.6-22.2-5V154h-15v14.5c-16.4 3.2-25.8 13.8-25.8 27.2 0 14.8 11.2 22.5 27.5 28 11.3 3.8 16.2 7.5 16.2 13.3 0 6.1-6 9.5-14.7 9.5 -9.9 0-19-3.2-25.4-6.7L351 257.6c5.8 3.4 15.7 6.1 26 6.6v14.5h15v-15.6c17.6-3.1 27.2-14.7 27.2-28.3C419.2 221.1 411.8 212.7 393.6 206.3z"/></svg>