<svg version="1.1" id="Layer_1" xmlns="http://www.w3.org/2000/svg" xmlns:xlink="http://www.w3.org/1999/xlink" x="0px" y="0px"
	 viewBox="0 0 768 430" enable-background="new 0 0 768 430" xml:space="preserve">
<g>
	<g>
		<path fill="#578021" d="M621.57,329.029c-155.08-41.457-310.158,41.465-465.231,0c0-0.771-3.339-3.832-3.339-4.604
			c0-76.002,3.339-149.714,3.339-225.724c155.073,41.467,309.218-43.07,464.297-1.613
			C620.637,173.865,621.57,252.256,621.57,329.029z"/>
		<path fill="#6D9933" d="M618.932,326.625c-155.081-41.461-310.155,41.457-465.233,0c0-76.775,0-153.557,0-230.333
			c155.078,41.465,310.152-41.455,465.233,0C618.932,173.068,618.932,249.85,618.932,326.625z"/>
		<path fill="#86B34D" d="M488.099,96.947c2.276,12.888,3.791,180.494-7.583,206.275c21.234-2.275,65.22-3.033,65.22-3.033
			c-8.342-4.549-10.617-191.112-4.549-203.242C512.366,93.911,488.099,96.947,488.099,96.947z"/>
		<path fill="#578021" d="M291.4,337.195c-6.209-47.424-6.714-185.733-2.86-230.15c-44.946,2.825-89.892,1.267-134.841-10.753
			c0,76.776,0,153.558,0,230.333C199.602,338.896,245.498,340.266,291.4,337.195z"/>
		<path fill="#578021" d="M618.932,326.625c0-76.775,0-153.557,0-230.333c-18.354-4.905-36.707-8.05-55.059-9.88
			c-1.199,30.04,4.234,184.907-12.602,229.264C573.822,317.209,596.373,320.596,618.932,326.625z"/>
		<path fill="#96C655" d="M189.082,174.469c0,29.602,0,59.203,0,88.799c19.539,3.035,35.373,19.551,35.378,39.131
			c107.9,6.521,215.804-28.844,323.703-22.322c0.006-19.492,15.839-34.646,35.382-31.623c0,0,0.003,0,0.003,0.006
			c0-29.61,0-59.207,0-88.814h-0.003c-19.54-3.022-35.382-19.547-35.382-39.133C440.264,113.99,332.36,149.36,224.46,142.84
			C224.458,162.338,208.62,177.49,189.082,174.469z"/>
		<path fill="#87BA43" d="M288.493,301.988c-2.533-46.264-2.997-113.806-1.703-159.452c-20.779,1.251-41.553,1.555-62.33,0.303
			c-0.002,19.499-15.84,34.65-35.378,31.629c0,29.602,0,59.203,0,88.799c19.539,3.035,35.373,19.551,35.378,39.131
			C245.804,303.693,267.144,303.326,288.493,301.988z"/>
		<path fill="#6D9933" d="M444.539,204.165c0,32.105-26.066,61.113-58.229,65.527c-32.155,4.416-58.227-18.721-58.227-50.936
			c-0.001-32.1,26.071-61.11,58.227-65.521C418.473,148.817,444.539,171.95,444.539,204.165z"/>
		<path fill="#6D9933" d="M292.729,221.947c0,15.445-12.53,28.943-27.992,29.314c-15.463,0.398-27.99-12.615-27.99-28.07
			c-0.002-15.464,12.53-27.509,27.99-27.91C280.199,194.911,292.729,206.461,292.729,221.947z"/>
		<path fill="#578021" d="M286.098,204.299c-5.134-5.758-12.792-9.224-21.361-9.018c-15.459,0.401-27.992,12.446-27.99,27.91
			c0,15.455,12.527,28.469,27.99,28.07c8.763-0.213,16.574-4.641,21.708-11.248C286.247,228.162,286.131,216.129,286.098,204.299z"
			/>
		<g>
			<path fill="#96C655" d="M378.585,248.367c-9.029,0-17.645-2.668-20.011-4.322c-1.322-0.93-1.643-2.754-0.716-4.08
				c0.929-1.322,2.752-1.645,4.079-0.717c1.851,1.299,16.783,5.721,26.909,1.518c4.685-1.945,7.397-5.389,8.295-10.535
				c1.707-9.792-2.514-11.514-12.221-14.478c-6.694-2.044-14.284-4.36-19.558-11.382c-4.387-5.844-4.577-12.36-0.519-17.877
				c6.697-9.108,22.705-13.13,34.965-8.78c1.523,0.54,2.318,2.216,1.777,3.74c-0.543,1.521-2.212,2.31-3.739,1.778
				c-10.581-3.765-23.67,0.448-28.287,6.73c-2.527,3.436-2.361,7.099,0.487,10.892c4.128,5.496,10.461,7.428,16.585,9.298
				c8.879,2.713,18.945,5.784,16.278,21.084c-1.236,7.076-5.323,12.242-11.819,14.936
				C387.244,247.766,382.867,248.367,378.585,248.367z"/>
		</g>
		<path fill="#ACD96E" d="M538.628,120.048c-16.453-0.632-32.907-0.332-49.356,0.571c0.949,39.95,0.613,118.818-4.156,159.809
			c18.83-1.16,37.656-1.521,56.487-0.672C537.945,241.709,536.771,160.405,538.628,120.048z"/>
		<path fill="#6D9933" d="M479.896,200.974c0,15.488,12.525,27.042,27.989,26.665c15.466-0.398,27.989-12.435,27.992-27.905
			c-0.003-15.453-12.533-28.473-27.992-28.073C492.424,172.036,479.896,185.533,479.896,200.974z"/>
		<path fill="#86B34D" d="M507.885,227.639c15.466-0.398,27.989-12.435,27.992-27.905c-0.003-15.453-12.533-28.473-27.992-28.073
			c-6.987,0.169-13.361,3.037-18.262,7.538c-0.118,13.7-0.37,27.92-0.799,41.683C493.821,225.262,500.512,227.818,507.885,227.639z"
			/>
		<g>
			<path fill="#96C655" d="M383.788,260.424c-1.619,0-2.927-1.309-2.927-2.926v-88.453c0-1.618,1.308-2.928,2.927-2.928
				c1.618,0,2.928,1.31,2.928,2.928v88.453C386.716,259.115,385.406,260.424,383.788,260.424z"/>
		</g>
		<path opacity="0.5" fill="#A1D461" d="M156.109,99.392c154.272,41.25,308.546-40.58,462.822-0.611c0-0.832,0-1.659,0-2.488
			c-155.081-41.455-310.155,41.465-465.233,0c0,76.776,0,153.558,0,230.333c0.802,0.209,1.607,0.404,2.411,0.609
			C156.109,251.287,156.109,175.337,156.109,99.392z"/>
	</g>
	<path fill="#87BA43" d="M583.545,248.453c0,0,0.003,0,0.003,0.006c0-29.61,0-59.207,0-88.814h-0.003
		c-7.306-1.129-14.094-4.146-19.733-8.508c-0.007,32.049-0.447,70.062-2.723,102.592
		C567.202,249.277,575.018,247.133,583.545,248.453z"/>
</g>
</svg>
