<svg version="1.1" id="Layer_2" xmlns="http://www.w3.org/2000/svg" xmlns:xlink="http://www.w3.org/1999/xlink" x="0px" y="0px"
viewBox="0 0 768 430" enable-background="new 0 0 768 430" xml:space="preserve">
<g>
	<g id="XMLID_2_">
		<g>
			<path fill="#6AA9B7" d="M480.827,218.514l-59.349-49.344c0.396,0.6,12.188,19.102-4.326,59.97
				c-12.752,31.563-19.262,45.494-9.1,50.636C425.666,288.684,475.116,233.732,480.827,218.514z"/>
		</g>
		<g>
			<g>
				<path fill="#427982" d="M408.915,281.833c-0.534-0.156-1.044-0.344-1.538-0.567c-9.766-4.413-4.889-17.487,5.794-46.127
					c0.788-2.104,1.602-4.29,2.448-6.566c15.503-41.776,6.623-55.847,4.688-58.242c-0.104-0.124-0.166-0.213-0.192-0.257
					c-0.499-0.755-0.287-1.77,0.465-2.268c0.734-0.484,1.72-0.299,2.231,0.41c3.054,3.786,11.578,19.183-4.122,61.496
					c-0.847,2.276-1.661,4.469-2.449,6.569c-9.648,25.867-14.493,38.847-7.518,42.004c2.9,1.309,6.805,1.031,11.615-0.828
					c20.592-7.971,51.826-42.991,58.987-59.592c0.364-0.831,1.327-1.207,2.156-0.854c0.827,0.358,1.21,1.324,0.854,2.155
					c-7.373,17.073-39.563,53.121-60.821,61.343C416.614,282.407,412.382,282.849,408.915,281.833z"/>
			</g>
			<g>
				<polygon points="420.19,170.179 422.757,168.15 422.771,168.165 				"/>
			</g>
		</g>
	</g>
	<path fill="#6AA9B7" d="M535.824,195.286c0.069,0.083,0.795,1.035,2.166,2.542c4.202,4.616,14.39,14.433,29.718,20.431
		c0.794,0.311,1.61,0.616,2.438,0.906c11.347,3.99,11.858,12.476,6.64,18.583c-4.954,5.789-15.051,9.442-25.945,5.111
		c-22.383-8.898-98.308-27.534-136.462-15.374c-37.351,11.904-85.366-3.911-139.229,39.317c-1.158,0.933-2.323,1.886-3.484,2.872
		c0,0-14.21,11.46-18.18,32.063c-0.854,4.438-0.496,10.332,0.281,16.955c2.804,24.081,11.002,57.802-14.596,66.424
		c0,0-2.805-28.352-22.74-36.949c-19.934-8.604-39.048-0.881-50.07,18.303c0,0-13.554-15.488-3.875-38.363
		c9.678-22.87,44.944-22.377,53.802-35.674c8.856-13.293,10.747-56.762,38.406-104.41c25.284-43.557,58.86-59.718,58.86-59.718
		s9.834-26.564-41.054-74.07c-1.06-0.994-1.936-1.943-2.634-2.854c-1.145-1.481-1.821-2.854-2.084-4.117
		c-3.822-18.941,88.558-11.734,148.314,48.835c0,0,138.607-5.384,152.33,78.824c0,0,38.363,0.061,45.602,21.508
		c0.089,0.262,0.173,0.527,0.247,0.795c0.949,3.217,0.558,6.033-0.9,8.417C604.796,219.737,559.276,218.662,535.824,195.286z"/>
	<path fill="#84C7D2" d="M576.785,237.749c-4.954,5.789-15.051,9.442-25.945,5.111c-22.383-8.898-98.308-27.534-136.462-15.374
		c-37.351,11.904-85.366-3.911-139.229,39.317c0.513-1.087,1.191-2.197,2.038-3.315c29.825-39.328,70.2-64.524,161.421-61.479
		C523.954,204.856,535.669,244.131,576.785,237.749z"/>
	<g id="XMLID_1_">
		<g>
			<path fill="#6AA9B7" d="M374.404,190.024c40.689-14.088,77.326-16.774,90.751,2.316c-1.4-0.154-32.95,6.36-61.531,39.318
				c-22.301,25.717-31.739,37.857-40.943,31.146C346.731,251.179,363.453,202.036,374.404,190.024z"/>
		</g>
		<g>
			<g>
				<path fill="#427982" d="M364.319,265.495c-0.934-0.272-1.817-0.739-2.658-1.41c-4.104-3.275-6.485-8.723-7.075-16.188
					c-1.609-20.246,10.181-49.736,18.61-58.977c0.608-0.667,1.641-0.714,2.308-0.106c0.668,0.608,0.719,1.642,0.109,2.314
					c-8.078,8.862-19.253,37.706-17.767,56.507c0.518,6.53,2.486,11.199,5.856,13.892c6.008,4.789,19.151-9.578,34.374-26.227
					c1.42-1.551,2.865-3.139,4.341-4.747c34.972-38.064,66.974-40.415,67.244-40.386c0.91,0.1,1.554,0.904,1.455,1.806
					c-0.093,0.848-0.825,1.477-1.658,1.458c-0.875,0.074-31.728,3.528-64.625,39.337c-1.478,1.608-2.926,3.188-4.34,4.74
					C384.602,254.896,372.674,267.939,364.319,265.495z"/>
			</g>
		</g>
	</g>
	<path fill="#286E7F" d="M518.286,153.359c-2.712,4.434-7.572,6.404-10.848,4.396c-3.281-2.004-3.738-7.227-1.026-11.661
		c2.711-4.435,7.57-6.401,10.847-4.396C520.54,143.706,520.997,148.924,518.286,153.359z"/>
	<path opacity="0.8" fill="#6AA9B7" d="M481.272,107.199c0,0,72.559,10.813,83.23,66.292c0,0-1.804,6.09-10.561-11.744
		C549.773,153.262,544.88,130.291,481.272,107.199z"/>
	<path opacity="0.8" fill="#6AA9B7" d="M571.835,177.976c0,0,34.111,0.721,37.478,17.174c0,0-3.219-1.011-9.992-5.632
		C592.555,184.898,584.523,179.98,571.835,177.976z"/>
	<path opacity="0.8" fill="#6AA9B7" d="M412.909,98.952c0,0-65.848-63.333-135.117-56.779c0,0-4.331,5.506,9.427,5.77
		C287.219,47.942,336.833,45.73,412.909,98.952z"/>
	<path fill="#5898A3" d="M313.553,128.307c0,0,9.834-26.564-41.054-74.07c-1.06-0.994-1.936-1.943-2.634-2.854
		C289.739,64.853,329.917,97.072,313.553,128.307z"/>
	<path fill="#5898A3" d="M239.17,385.118c0,0-2.805-28.352-22.74-36.949c-19.934-8.604-39.048-0.881-50.07,18.303
		c0,0-2.461-19.499,25.752-30.311C220.323,325.356,249.138,365.304,239.17,385.118z"/>
	<path fill="#5898A3" d="M377.771,191.649c0,0-14.562,19.877-16.847,40.072c-2.281,20.197-0.249,28.637,5.509,27.846
		C372.202,258.775,355.597,246.698,377.771,191.649z"/>
	<path fill="#5898A3" d="M422.079,228.557c0,0-14.552,37.826-14.283,44.525c0.257,6.693,15.249,2.131,19.934-4.356
		C427.729,268.726,406.51,275.177,422.079,228.557z"/>
	<path fill="#5898A3" d="M613.373,205.646c-8.577,14.092-54.097,13.017-77.549-10.359c0.069,0.083,0.795,1.035,2.166,2.542
		c-3.764-3.455-6.418-7.019-7.367-10.528C530.623,187.3,570.804,224.693,613.373,205.646z"/>
	<path fill="#5898A3" d="M311.398,134.187c0,0-64.781,25.86-84.792,146.783c0,0,14.595-67.371,49.694-107.077
		C311.398,134.187,319.569,138.466,311.398,134.187z"/>
</g>
</svg>
