<svg version="1.1" xmlns="http://www.w3.org/2000/svg" xmlns:xlink="http://www.w3.org/1999/xlink" viewBox="0 0 768 430" style="enable-background:new 0 0 768 430;" xml:space="preserve"><g id="dolphin"> <g>  <path style="fill:none;" d="M534.839,202.196c-3.149,0.374-5.397,3.229-5.024,6.379c0.377,3.149,3.229,5.398,6.379,5.023 c3.153-0.373,5.401-3.23,5.024-6.379C540.846,204.07,537.987,201.82,534.839,202.196z"/>  <path style="fill:#DDE4D0;" d="M566.425,232.615c3.068-12.221-5.101-34.438-10.416-42.973 c-27.5-39.742-70.558-66.737-118.85-72.641c-14.575-12.615-43.775-33.93-66.452-30.667c-10.969,1.578-4.886,10.103-1.27,10.459 c7.115,0.702,18.487,20.383,4.921,24.574c-56.576,15.027-105.93,55.042-116.528,113.838c-1.047,4.081-0.105,7.432-8.974,9.074 c-13.784,3.153-23.077,13.435-28.079,21.707c-6.716,11.106,4.944,3.532,8.784,2.044c4.006-1.551,14.607,0.328,21.107,0.069 c1.943,12.138,10.522,20.908,13.42,24.174c2.902,3.259,3.99,12.406,2.371,15.694c-1.619,3.284-0.7,6.783,2.898,3.262 c14.571-16.109,10.19-35.169,5.536-49.439c-2.963-9.002-2.145-10.744,3.84-16.21c9.064-7.405,27.278-29.32,32.627-33.141 c10.224-7.304,52.788-18.801,70.491-19.723c15.794-0.821,63.53,0.374,68.667,11.42c3.387,7.276-19.959,9.588-22.929,9.942 c-2.97,0.352-7.25,2.406-2.866,5.493c14.077,12.757,41.644,3.811,49.459-2.273c-1.764,10.517-16.621,12.284-19.591,12.637 c-2.975,0.354-6.254,2.289-2.862,5.495c12.781,10.334,37.943-1.938,47.696-12.887c14.036,3.999,68.73,33.054,72.001,35.241 c3.275,2.188,6.465,6.346,10.879,1.217C588.857,251.392,574.881,240.368,566.425,232.615z M536.193,213.599 c-3.149,0.375-6.002-1.874-6.379-5.023c-0.373-3.149,1.875-6.005,5.024-6.379c3.148-0.376,6.007,1.874,6.379,5.023 C541.595,210.368,539.347,213.226,536.193,213.599z"/> </g></g><g id="Layer_1"></g></svg>