<svg version="1.1" xmlns="http://www.w3.org/2000/svg" viewBox="0 0 768 430" xml:space="preserve"><style>.s0{fill:none;}.s1{fill:#DDE4D0;}</style><path d="M357.1 289.5c0 0 0.1-0.1 0.2-0.1 0-0.1 0-0.2 0-0.3C357.1 289.3 357.1 289.5 357.1 289.5zM280.7 145.4c0.1 0.2 0.1 0.3 0.1 0.4 0.1 0 0.2-0.1 0.3-0.1C280.9 145.7 280.8 145.6 280.7 145.4zM282.3 145.1c0 0 0.1 0 0.1-0.1 -0.1 0-0.1-0.1-0.1-0.2C282.3 144.9 282.3 145 282.3 145.1zM279.6 146.5c0.1 0 0.1-0.1 0.2-0.1 -0.1 0-0.1-0.1-0.2-0.1C279.6 146.3 279.6 146.4 279.6 146.5zM320.9 145.9l4 3C323.8 147 322.4 146.6 320.9 145.9z" fill="none"/><path d="M343.7 192.1c0.1 0 0.1 0 0.2-0.1l0 0C343.8 192.1 343.7 192.1 343.7 192.1zM341.9 188.1l-0.9-1.7C341.2 186.9 341.5 187.5 341.9 188.1zM301.5 116.5c0.2 0.7 0.6 1.6 1.2 0.3 0.2-0.4 0.4-0.7 0.7-1.1 -0.4-0.2-0.7-0.4-1-0.7C301.8 115.6 301.4 116.2 301.5 116.5zM303.4 115.8c0.8 0.4 1.9 0.7 3 0.7 0.9 0 1.6-0.2 2.3-0.4 -1.7-0.2-3.1-1-3.6-1.3C304.6 114.4 303.9 115 303.4 115.8zM333.2 92.5c0-0.3 0.1-0.7 0.1-1.2 -0.8 3.3-2.3 5.7-3.3 7.4C331.5 96.5 333.1 93.6 333.2 92.5zM334.1 86.1c0 0-0.1-1.3-0.5-3.2 0.2 1.2 0.2 2.2 0.2 3.3L334.1 86.1zM307.3 112.1c0.6-0.4 2.3-0.4 3 0.2 0.1 0.1 0.3 0.3 0.5 0.4 -0.6-1.1-2.3-2-4.4-2 -2.6 0-4.6 1.3-4.6 2.9 0 0.5 0.2 1 0.7 1.5 0.6-0.6 1.3-1 1.6-1.1C304.7 113.7 306.8 112.4 307.3 112.1zM313.5 114.2c0 0-1.7-0.8-2.7-1.5 0.2 0.3 0.3 0.6 0.3 0.9 0 1.1-0.9 2-2.3 2.5 1 0.1 2.1 0 3.1-0.6 0 0 1.3-0.3 1.9-0.3C314.3 115.2 314.5 114.3 313.5 114.2zM504.7 230.8c0.1 0 0.1 0 0.2 0 -0.1 0-0.2-0.1-0.2-0.1C504.7 230.7 504.7 230.7 504.7 230.8zM504.7 228l0.1-0.5c0 0-0.1 0-0.1 0C504.8 227.7 504.7 227.8 504.7 228zM510.3 202.3c0.1 0.2 0.1 0.7 0 1.3l2-8.6C511.4 197.8 510.2 201.8 510.3 202.3z" fill="#DDE4D0"/><path d="M357.1 289.5c0 0 0.1-0.1 0.2-0.1 0-0.1 0-0.2 0-0.3C357.1 289.3 357.1 289.5 357.1 289.5zM313.5 114.2c0 0-1.7-0.8-2.7-1.5 -0.6-1.1-2.3-2-4.4-2 -2.6 0-4.6 1.3-4.6 2.9 0 0.5 0.2 1 0.7 1.5 -0.6 0.5-1 1.1-0.9 1.5 0.2 0.7 0.6 1.6 1.2 0.3 0.2-0.4 0.4-0.7 0.7-1.1 0.8 0.4 1.9 0.7 3 0.7 0.9 0 1.6-0.2 2.3-0.4 1 0.1 2.1 0 3.1-0.6 0 0 1.3-0.3 1.9-0.3C314.3 115.2 314.5 114.3 313.5 114.2zM320.9 145.9l4 3C323.8 147 322.4 146.6 320.9 145.9z" fill="none"/><path d="M357.1 289.5c0 0 0.1-0.1 0.2-0.1 0-0.1 0-0.2 0-0.3C357.1 289.3 357.1 289.5 357.1 289.5zM313.5 114.2c0 0-1.7-0.8-2.7-1.5 -0.6-1.1-2.3-2-4.4-2 -2.6 0-4.6 1.3-4.6 2.9 0 0.5 0.2 1 0.7 1.5 -0.6 0.5-1 1.1-0.9 1.5 0.2 0.7 0.6 1.6 1.2 0.3 0.2-0.4 0.4-0.7 0.7-1.1 0.8 0.4 1.9 0.7 3 0.7 0.9 0 1.6-0.2 2.3-0.4 1 0.1 2.1 0 3.1-0.6 0 0 1.3-0.3 1.9-0.3C314.3 115.2 314.5 114.3 313.5 114.2zM320.9 145.9l4 3C323.8 147 322.4 146.6 320.9 145.9z" fill="none"/><path d="M320.9 145.9l4 3C323.8 147 322.4 146.6 320.9 145.9zM313.5 114.2c0 0-1.7-0.8-2.7-1.5 -0.6-1.1-2.3-2-4.4-2 -2.6 0-4.6 1.3-4.6 2.9 0 0.5 0.2 1 0.7 1.5 -0.6 0.5-1 1.1-0.9 1.5 0.2 0.7 0.6 1.6 1.2 0.3 0.2-0.4 0.4-0.7 0.7-1.1 0.8 0.4 1.9 0.7 3 0.7 0.9 0 1.6-0.2 2.3-0.4 1 0.1 2.1 0 3.1-0.6 0 0 1.3-0.3 1.9-0.3C314.3 115.2 314.5 114.3 313.5 114.2z" fill="none"/><path d="M523.3 226.5c0 0-0.1-0.1-0.1-0.1 -1-1.6-0.9-3.6 0.1-5.1 -0.7-1.6-1.5-3.3-2-4.3l-0.1-0.6c1.1 1.3-1.8-4.4-2.4-5.6 1 1.8-2.8-7.6-2-6 0.8 1.6-1.4-6.4-1.4-8.8 0-2.2-0.1-9.2-0.2-10.7 0.5-1.8 0.8-3.7 0.8-4.9 -0.1-3.2 0.5-5.7-1-8 0 0 0.5-1.2-1-2.6 0 0 0.9-2.9-6.1-7.7 0 0-2.3-3-7.6-5.6 0 0 1.5-0.3-8.5-6.9 0 0-4.3-2.2-10.9-4.4 0 0-4.3-1.6-7.3-1.7 0 0 3.6 0-4.8-0.6 0 0 0.5-0.1-8.1 0.2 -0.3 0.1-0.7 0.2-1 0.2 -0.4 0.4-2 1.2-8.3 1.6 0 0-5.4 0.2-15.9 0.2 0 0-8.3 0.3-17.7-1l-28.9-2.8c-0.3 0.1-0.7 0.1-1 0.1 -0.8 0-1.4-0.1-2-0.4l-0.7-0.1 -2.3-1.5 -6.7-4.5c0.2-0.1 0.3-0.2 0.4-0.2 0 0-0.1 0-0.1-0.1l-0.5 0.2 -8-5.3c0.1 0 0.1 0 0.2-0.1 0 0 0 0-0.1 0l-0.2 0.1 -7-4.7c-0.7-0.2-1.2-0.6-1.7-1.1l-0.4-0.3c0 0 0.1-0.1 0.1-0.1 0 0-0.1-0.1-0.1-0.1l-0.1 0.1 -16.2-10.8c-3.1-2.9-5.7-5.1-7.6-5.9 -1.6-0.7-2.6-1.6-5.7-4.4 -0.8-0.7-0.3-1.8 0.6-3.4 1-1.7 2.5-4.1 3.3-7.4 0.4-1.5 0.6-3.2 0.6-5.1 0-1-0.1-2.1-0.2-3.3 -0.7-5.1-3.1-11.6-8.6-19.8 -1.6-2.3-2.1 6.7-2 16.7 -0.1-0.3-0.2-0.5-0.4-0.8l0 0c0 0-3.8-14.3-6.9-14.8 -0.2 0-0.1 2.4 0.1 5.4 -0.2 0.1-0.1 0.8 0 1.7 0 0.5 0.2 1.8 0.4 3.4 0.1 1.6 0.3 3.3 0.5 4.7 0 0.2 0.1 0.5 0.1 0.7 0 0.2 0 0.5 0.1 0.6 0.2 2 0.3 4 0.2 5.4 -0.1 3 0.7 9.9 1.3 13.6 -0.3-0.3-0.7-0.5-0.9-0.6l0.9 0.7c0.1 0.6 0.2 1.1 0.3 1.5 -0.9 0-1.7 0-2.1 0.1 0 0-10.1 0-20.4 7.6 -9.9 7.2-12.8 9.3-16.6 11.4 -1.2 0.6-2.9 1.4-4.1 2 -2 0.9-2.9 1.4-3.2 1.8 -0.2 0.4-2 2.9-2.9 3.9 -0.1 0.1-0.3 0.3-0.4 0.4 0 0 0 0 0 0 -0.1 0-0.1 0.1-0.2 0.3 -0.1 0.1-0.1 0.1-0.1 0.1 -0.6 1.1-1.3 3.5-1.4 4.4 0 0.1 0 0.2 0 0.3 0.1 0.8-0.1 4.5-0.1 5.2 0 0.7 0.4 1.9 1 2.4 0 0 0 0 0 0 0.6 0.4 2.4 2.3 3.4 2 0 0 0.1-0.1 0.1-0.1 0.3-0.2 0.8-0.6 1.3-1.1 0 0.1 0 0.1 0 0.2 0 0.8 1.3 0.2 1.6-0.3 0.5 0 1.3-0.6 1.3-0.8 0-0.1-0.1-0.1-0.1-0.2 0 0 0 0 0 0 0.4 0.7 1.7-0.2 1.5-0.6 0-0.1-0.1-0.1-0.1-0.2 0.3 0.8 1.7-0.2 1.6-0.5 0 0 0 0 0 0 0.5 0.4 1.6-0.4 1.5-0.8 0-0.1-0.1-0.1-0.1-0.1 0 0 0 0 0 0 0.2 0.7 1.2 0.2 1.6-0.2 1.4 1.2 2.7 3 2.2 5 0 0 0 0 0 0 0 0 0 0.1 0 0.1 0 0 0-0.1-0.1-0.1 -0.2-0.3-1.5 0.1-1.4 0.9 0-0.1 0-0.1-0.1-0.2 -0.2-0.3-1.5 0.1-1.5 0.7 -0.2-0.2-1.2 0-1.4 0.4 -0.5-0.1-1.8 0.5-1.2 1 0.2 0.2 0.4 0.3 0.5 0.3 -2 0.7-1.5 2.3-0.9 2.9 0.7 0.6 2.2 0.3 2.6 0.7 0.4 0.4 0.4 1.5 1 1.8 0.6 0.3 1.5 1.3 4 1.7 2.4 0.5 3.4 1.6 5.4 0.3 2-1.2 1.6-3.3 1.7-3.9 0.3-0.6 0.4-0.1 1-0.5 0.5-0.3 1.4 0 2.1-0.5 4.3-0.3 10.3-4.6 16.5-4 1.9-0.3 3 1 7-0.8l22.1 41.7 0.9 1.7 0 0c0 0 0.8 4.2 1.8 4.1 0.1 0 0.1 0 0.2-0.1l0 0c0 0 0.8 2.3 1.7 2.5 0 0 0 0 0 0 0 0 0.1 0 0.1 0 0 0 0.1 0.3 0.2 0.6 0 0-0.1 0-0.1-0.1 0 0 0.5 3.1 1.4 4 0 0 0.3 4.6 0.9 4.3 0 0-0.1 3.4 0.9 3.5 0 0 0.9 3 1.6 3.4 0 0 0.8 2.8 1.6 3.1 0 0 0.5 1.7 1.7 1.8 0 0 0.5 2.1 1.9 2.2 0 0 1.6 1.9 2.9 8.1 0 0-0.3 1.1 0.8 1.2 0 0 1 5 1 6.2 0 1 0.7 1.7 0.8 1.5 0 0-0.6 6.5 0.4 5.7 0 0-0.3 6.2 0.4 5.2 0 0-0.8 6.2-0.2 5.6 0 0-0.8 4-0.1 3.4 0 0-0.8 7.8 0.3 6.7 0 0 0.6 10.3-0.1 13.4 0 0-0.8 6.6-1.9 7.5 0 0-2.7 3.3-2.6 7.1 -0.9 0.4-3 1.5-3.5 2.6 -0.8 1.7-2.3 5.6-2.3 6.7 0 1-0.9 2.3 2.9 3.1 2.9 0.5 3.3 0.7 3.5 0.5 -0.3 0.7-0.5 1.2-0.5 1.5 0 1-0.6 2.6 3 3.4 3.7 0.7 9.7 0.1 10.4-0.2 0.7-0.2 2.3-2.7 2.8-3.7 0.4-1.1-0.5-3.6 1.8-4.3 0.2 0.2 2.1 1.7 2-2.6 0 0 1.4-1.4 1-2.3l3.8-51.6c0 0 1.3-2.7 1.4-3.7 0 0 1.1-2.2 1.8-5.6 0 0 1.5-1.3 1.7-4 0 0 1.6-1.7 1.2-3 0 0 1.4-1.2 1-2.6 0 0 0.6-1 1.6-0.1 0 0 2.2 0.6 1.3-0.8 0 0 0 0 0 0 0.2 0.2 1 0.8 1.7 1 0.2-0.1 0.5-0.1 0.7-0.1 0 0 0 0 0-0.1 0 0 0.1 0 0.2 0.1 0.5-0.1 1.1 0 1.7 0.1 0-0.1-0.2-0.3-0.5-0.6 0 0 7.2 1.6 5.5 0 0 0 8.7 2.3 7.6 0.3 0 0 3.8 2.1 2.8 0 0 0 0.9 0.7 1.9 1.2 2.1-0.1 4.2-0.2 6.3-0.2 0 0 0-0.1 0-0.1 0 0 0.1 0 0.1 0.1 0.2 0 0.4 0 0.7 0 6.5-0.1 13 0 19.5 0.7 1.2-0.1 2.4-0.3 3.3-0.6l20.1 5.6c0.6 1.1 1.5 2.4 2.1 2.1 0 0 1.8 4 2.3 2.9 0 0 4.3 3.6 5 5.1 0.8 1.6 2.8 2.7 3.2 3.5 0.3 0.6 1.6 1.5 2.3 1.7 0.6 0.2 3.1 6.3 3.8 7.3 0 0 0 5.2 1 4.9 0 0 0.2 15.7 0.1 16.8 0 0.4-0.3 1-0.5 1.5 0 0.3 0 0.6-0.1 0.8 0.1 0.2 0.2 0.3 0.4 0.4 0 0-0.3 4.5-1 5.6 -0.8 1.1-1.3 2-0.5 1.8 0 0-1.5 2.1-2 2.4 -0.4 0.3 0 0.8-1.8 1.8 0 0-2.3 2.6-2.5 4.1 -0.4 0.3-0.7 0.7-0.9 1 -0.7 1.7-3 5-3 6 0 0.9-1.6 3.3 1.9 3.9 3.6 0.7 9.5 0.1 10.1-0.1 0.7-0.2 3-1.1 3.6-4 0.2-1-0.3-2.3 1.7-3.6 0 0 0 0 0 0 0.3-0.1 0.5 0 0.4 0.6 0 0 2.4-1.6 2.5-2.8 0 0 1.6-1.4 1.2-3 0 0 1.1-0.3-0.2-3.9 0 0-0.5-1.8 0.3-1 0 0-1.3-4.2 0-11.9 0 0 1.4-0.3 0.6-1.7 0 0-0.2-4.3 0.5-5 0 0 0.6 0.1 0.5-2.2 -0.1-2.3 1-0.8 1-3.8 0-3 1.2-1.6 1-4.5 -0.3-2.8 0.3-4.3 1.1-2.3 1 2 1.6 5.8 1.7 6.5 0.1 0.7 0.3 14.2 0.1 16.7 -0.2 2.3-0.1 4.1-0.1 4.1s-2.2 3.8-1 3.4c0 0-1.6 3.4-0.5 3.6 -0.3 0-0.9 0.2-1.6 1.5 0 0-1.9 2.5-3.8 3.3 0 0 0.7 0.6 0.6 1.1 -0.7 0.4-1.5 1-1.8 1.7 -0.2 0.5-1.6 3.3-2.4 5.9 -0.3 1-2.2 4.2 1.5 4.9 6.4 1.2 6.7 0.6 11.2-0.7 0.7-0.2 2.3-2.7 2.8-3.8 0.4-1-0.2-3.6 1.7-4.5 0 0 0 0 0 0 0.7 0 1.8-0.1 2.1-1 0.5-1.5 1.6-3 1.7-4.7 0.3-1.7 0.8-3.1 0-4 0 0-0.6-5.6-0.3-6.6 0.3-1 0.9 0.6 0.9-2.3 0-2.9-0.2-7.5 0.3-8.3 0.3-0.9 0.4-5.1 1.2-7.7 0 0 0.2-1.3 0.3-2.8 0-0.2 0-0.3 0-0.4 0.3-0.6 0.6-1.6 0.4-3.2 0 0 0.9-0.5 0-2.5 0 0 1 0 0.1-1.7 0 0 0.5-1.6-3.3-4.4 0 0 3.3 1.2-2.1-3.6l-1.3-3c0 0-0.1-0.1-0.4-0.4 0-0.7 0.2-3.4 0-4.6 -0.3-1.4-1.9-2.6-0.9-5.3 0 0 0 0 0-0.1 0 0 0.1 0 0.2 0.1 0.5 0.2 1.6 0.6 0.2-1.4 0 0-0.3-0.7-0.3-1.4 0-0.2 0-0.3 0-0.5 0 0 0 0 0.1 0 0.2 0 0.9-0.2 0.4-1.5 0 0 0 0 0 0 -0.1-0.2-0.3-1.4-0.2-1.7 0.1-0.3 1.1 0.8 0.3-1.2 0 0 0.8-0.3 0.6-3 0 0 0-1.6 0.6-1.8 0.6-0.3 0.8-1.6 0.6-2.4 -0.1-0.7 0.2-1.7 0.9-2 0.1 0 0.2-0.1 0.3-0.1 0 0 1.3-1.6 1.4-6.3 0 0 0.5-2.4 0.7-3.9 0.1-0.6 0.1-1 0-1.3 -0.1-0.5 1.1-4.5 2-7.4 0.2-0.7 0.4-1.3 0.6-1.8 0 0.1 0.1 0.2 0.1 0.3 -0.1 0.2-0.1 0.4-0.1 0.8 0.1 2 1 7 1 11.4 0 1.8-0.2 3.5-0.6 4.9 -1.9 5.6-0.6 4.2-0.6 4.2 -1.4 3.6 0.2 5.4 0.2 5.4 -0.2 1.1-0.3 2-0.4 2.9l-0.4-3.1c0 0 0.1 1.6 0.3 3.6 -0.5 4.6 0.3 6.2 0.3 6.2 0 10.3 1.7 12 1.7 12 1 14.2 1.5 9.2 1.5 9.2 0.2 12.8 1 4.9 1 4.9 0.8 5.2 1.2 7.8 1.6 7 0.4-0.6 0.5 6.1 0.5 8.5 0.2-0.1 0.4-0.2 0.7-0.3 0.1-1 0.3-2.4 0.4-3.8 0 0.1 0 0.2 0 0.2 0.8 3 0.3-6.6 0.3-6.6 0.4 1.4 0.4-8.4 0.4-8.4 0.2 1.6 1.8-10 1.8-10 0.2 0.5 0.2 0.2 0.3-0.4 0-1 0-1.9 0.1-2.9 0-4.2-0.2-10.6-0.2-10.6 0.1 0 0.2 0.1 0.3 0.1C523 227.8 523.1 227.1 523.3 226.5zM357.1 289.5c0 0 0.1-0.2 0.2-0.5 0 0.1 0 0.2 0 0.4C357.2 289.4 357.1 289.5 357.1 289.5z" fill="#DDE4D0"/><path d="M311 113.6c0-0.3-0.1-0.6-0.3-0.9 -0.2-0.1-0.4-0.3-0.5-0.4 -0.7-0.6-2.3-0.6-3-0.2 -0.5 0.3-2.6 1.6-3.3 1.8 -0.4 0.1-1 0.6-1.6 1.1 0.3 0.3 0.6 0.5 1 0.7 0.6-0.8 1.2-1.4 1.8-1 0.5 0.3 1.9 1.1 3.6 1.3C310.1 115.6 311 114.7 311 113.6z" fill="#DDE4D0"/></svg>