<svg version="1.1" id="Layer_6" xmlns="http://www.w3.org/2000/svg" xmlns:xlink="http://www.w3.org/1999/xlink" x="0px" y="0px"
	viewBox="0 0 768 430" enable-background="new 0 0 768 430" xml:space="preserve">
<path fill="#191919" d="M550.356,301.855c0,0,15.22,9.936,15.914,21.766s-7.958-2.783-7.958-2.783s6.699,18.091,0.021,22.963
	c-6.678,4.871-10.667-11.326-7.978-20.97C550.356,322.831,536.533,326.714,550.356,301.855"/>
<path fill="#8D8C8C" d="M499.707,198.096c0,0,47.739,25.806,50.186,66.336c2.021,33.46,1.24,42.29,3.306,46.419
	c0,0-2.479,3.305-4.131-1.651c-1.651-4.955-5.195-34.386-7.018-42.29c-3.717-16.105-17.168-37.219-31.797-38.816
	C495.625,226.496,483.375,192.05,499.707,198.096"/>
<g>
	<defs>
		<path id="SVGID_1_" d="M510.253,228.094c14.629,1.6,28.08,22.711,31.797,38.816c1.821,7.904,5.366,37.335,7.018,42.292
			c1.651,4.95,4.131,1.651,4.131,1.651c-2.065-4.131-1.285-12.961-3.306-46.423c-2.446-40.526-50.186-66.334-50.186-66.334
			c-1.316-0.487-2.447-0.709-3.404-0.709C485.366,197.387,496.802,226.626,510.253,228.094"/>
	</defs>
	<clipPath id="SVGID_2_">
		<use xlink:href="#SVGID_1_"  overflow="visible"/>
	</clipPath>
	<path clip-path="url(#SVGID_2_)" fill="#686868" d="M487.42,209.99c0,0,32.654,14.245,46.751,25.849
		c3.094,2.549,20.027,20.42,19.027,68.111c-1.003,47.689-14.658,7.979-14.658,7.979s-2.186-55.333-11.471-62.981
		C517.782,241.301,473.445,251.328,487.42,209.99"/>
</g>
<path fill="#3A3A3A" d="M269.928,30.303c0,0,24.425,33.222,18.819,71.013l3.067-2.882C291.814,98.435,296.357,58.794,269.928,30.303
	"/>
<path fill="#515151" d="M282.316,102.565c0,0-21.471-47.488-12.388-72.262c0,0,27.067,30.017,18.583,72.262H282.316z"/>
<path fill="#989898" d="M282.316,96.991c0,0-12.8-32.005-10.53-57.399c0,0,15.277,15.893,16.724,56.569L282.316,96.991z"/>
<path fill="#757575" d="M282.522,96.991c0,0-3.304-8.26,0-9.293c3.306-1.032,6.914,9.293,6.914,9.293
	S284.381,100.914,282.522,96.991"/>
<path fill="#FFFFFD" d="M227.81,156.555c0,0,0.825,11.562,1.652,13.214c0.825,1.651,32.207-0.414,43.357-13.214v-9.498
	C272.819,147.057,238.545,158.619,227.81,156.555"/>
<path fill="#686868" d="M318.103,228.43c0,0,15.509,47.333,18.9,57.431c3.391,10.092,10.417,59.429,9.18,68.1
	c0,0,8.092,2.889,17.877,0c0,0-3.179-45.834,0-58.636c3.181-12.801,11.44-30.969,11.44-30.969s4.953-8.261-3.305-19.409
	C363.937,233.8,316.451,205.718,318.103,228.43"/>
<path fill="#3F3F3F" d="M346.182,353.96c0,0-6.194,12.286-7.122,15.071c0,0,12.075,5.575,23.227,0l1.775-15.071
	C364.062,353.96,351.756,356.231,346.182,353.96"/>
<path fill="#686868" d="M427.887,232.437c0,0-7.7,41.983,0,50.485c7.697,8.501,32.371,20.318,32.371,20.318
	s-15.801,37.49-20.811,42.885c-5.011,5.398-0.771,13.489-0.771,13.489s13.875,2.7,19.652,0c0,0-1.154-6.936,1.929-11.562
	c3.085-4.623,28.532-44.318,27.561-48.942c-0.968-4.628-10.989-9.636-10.989-12.717c0,0,17.73-16.958,16.957-27.363
	c-0.771-10.406-5.686-37.078-12.497-45.499C474.477,205.109,433.281,205.074,427.887,232.437"/>
<path fill="#3F3F3F" d="M438.677,359.133c0,0-2.313,10.022-3.182,12.622c0,0,11.579,6.648,21.984,1.445l0.85-13.586
	C458.329,359.614,443.878,361.253,438.677,359.133"/>
<path fill="#8D8C8C" d="M301.724,91.415c-16.487,1.302-33.446,11.564-34.274,18.582c-0.824,7.021-8.259,18.583-14.865,19.407
	c0,0-19.819-6.195-29.317,0c0,0-7.019-2.478-9.498,2.893c-2.477,5.367,0,7.846,0,7.846s-8.671,16.928-3.302,20.646
	c5.366,3.715,43.357,4.543,60.699-8.674c0,0,4.13,26.84-29.317,26.428c0,0-2.065,6.606-0.413,8.671
	c1.653,2.063,27.253,12.391,40.881-9.497c0,0,7.431-3.303,11.147-3.717c0,0,11.976,11.148,16.93,24.777
	c4.957,13.628,10.974,68.826,16.756,75.842c5.781,7.022,19.583,19.543,46.011,25.323c26.426,5.782,78.042,0.414,102.819-16.929
	c24.774-17.341,46.245-55.331,42.117-64.004c-4.129-8.67-21.472-30.556-42.945-28.493c-21.472,2.065-30.143,10.325-38.401,11.15
	c-8.257,0.826-43.358-2.479-51.203-12.39c-7.845-9.907-44.597-51.614-50.791-67.306C328.564,106.28,333.107,88.939,301.724,91.415"
	/>
<g>
	<defs>
		<path id="SVGID_3_" d="M301.725,91.417c-16.487,1.3-33.449,11.56-34.274,18.58c-0.826,7.021-8.258,18.583-14.864,19.411
			c0,0-19.822-6.196-29.318,0c0,0-7.021-2.479-9.498,2.889c-2.479,5.367,0,7.843,0,7.843s-8.67,16.929-3.304,20.646
			c5.37,3.717,43.357,4.545,60.702-8.669c0,0,4.129,26.838-29.317,26.426c0,0-2.065,6.608-0.413,8.673
			c1.652,2.065,27.25,12.387,40.88-9.497c0,0,7.431-3.306,11.148-3.717c0,0,11.974,11.149,16.93,24.775
			c4.954,13.626,10.973,68.826,16.754,75.842c5.78,7.022,19.582,19.543,46.011,25.325c26.426,5.78,78.042,0.414,102.816-16.931
			c24.774-17.343,46.248-55.331,42.12-64.004c-4.129-8.672-21.474-30.556-42.945-28.493c-21.474,2.065-30.143,10.325-38.403,11.148
			c-8.259,0.828-43.354-2.478-51.202-12.384c-7.847-9.913-44.597-51.618-50.789-67.308c-5.794-14.675-2.202-30.794-27.377-30.797
			C305.637,91.177,303.757,91.255,301.725,91.417"/>
	</defs>
	<clipPath id="SVGID_4_">
		<use xlink:href="#SVGID_3_"  overflow="visible"/>
	</clipPath>
	<path clip-path="url(#SVGID_4_)" fill="#CDCCC7" d="M313.174,212.774c0,0-6.679-15.949-2.136-17.864
		c4.542-1.916,17.62,15.43,23.352,30.295c5.736,14.863,11.758,36.663,22.082,42.858c10.326,6.191,47.247,3.388,61.287-0.327
		c14.035-3.718,68.957-12.581,80.932-24.665c11.977-12.087,19.92-29.429,19.92-29.429s5.681,6.191,3.205,13.626
		c-2.479,7.434-24.776,58.634-50.793,68.959c-26.012,10.322-77.215,16.517-94.972,13.626c-17.754-2.889-55.745-22.297-59.462-33.446
		C312.874,265.257,313.174,212.774,313.174,212.774"/>
	<path clip-path="url(#SVGID_4_)" fill="#B4B4B3" d="M311.311,219.808c2.956-3.034,7.919,13.571,18.025,40.613
		c13.242,35.429,0,0,0,0s6.787,18.516,47.637,24.277c40.851,5.763,73.077-9.891,96.564-15.993
		c23.488-6.103,60.086,2.639,60.086,2.639s-39.153,29.11-75.289,36.404c-36.141,7.295-108.405,13.79-128.261-7.757
		C310.218,278.444,305.861,225.404,311.311,219.808"/>
	<path clip-path="url(#SVGID_4_)" fill="#C0BFBB" d="M264.149,118.966c0,0,2.065-7.441,5.779-8.412
		c3.717-0.969,4.957,4.015,9.91,4.207c4.957,0.19,13.686-9.4,20.058-0.065c6.37,9.341-11.148,23.795-17.874,19.664
		c-6.726-4.129-12.507,2.892-12.92,4.543c0,0,25.189,3.305,13.213,38.814c-11.973,35.512-54.093,9.911-54.093,9.911
		s-37.988-27.527-29.729-50.722C206.751,113.714,264.149,118.966,264.149,118.966"/>
	<path clip-path="url(#SVGID_4_)" fill="#C0BFBB" d="M236.436,129.714c0,0,7.79-9.291,13.88,0
		C256.406,139.005,241.553,135.908,236.436,129.714"/>
	<path clip-path="url(#SVGID_4_)" fill="#3D3D3D" d="M217.074,133.123c-4.672,2.212,1.24,9.083,4.542,8.257
		C224.919,140.554,224.919,129.405,217.074,133.123"/>
	<path clip-path="url(#SVGID_4_)" fill="#3D3D3D" d="M236.481,138.903c0,0-0.825-4.402,4.542-6.539
		c5.369-2.133,9.911,6.263,4.543,9.085C240.198,144.271,236.481,138.903,236.481,138.903"/>
</g>
<path fill="#191919" d="M324.659,96.161c0,0,6.382,19.204,7.623,27.876c1.239,8.671,3.716,21.058,7.433,19.82
	c3.714-1.24,3.495-7.566,3.495-7.566s4.35,25.752,10.957,26.777c6.607,1.023,5.094-5.614,5.094-5.614s1.85,13.932,6.054,13.246
	c0,0,2.065,28.903,13.627,16.102c0,0,1.945,10.589,13.982,7.566c0,0,4.188,2.757-9.646-13.346
	c-13.834-16.105-39.022-53.268-41.914-59.462C338.475,115.365,336.483,100.838,324.659,96.161"/>
<path fill="#191919" d="M272.819,123.005c0,2.395-1.294,4.334-2.89,4.334c-1.597,0-2.892-1.94-2.892-4.334s1.294-4.337,2.892-4.337
	C271.525,118.668,272.819,120.611,272.819,123.005"/>
<path fill="#191919" d="M291.401,123.005c0,2.395-1.294,4.334-2.89,4.334c-1.597,0-2.891-1.94-2.891-4.334s1.294-4.337,2.891-4.337
	C290.106,118.668,291.401,120.611,291.401,123.005"/>
<path fill="#3D3D3D" d="M297.182,172.427c0,0,22.745-5.843,27.477-9.361c4.732-3.518,7.209-9.573,7.209-9.573
	s-1.24,12.25-9.085,15.552C314.939,172.348,297.182,172.427,297.182,172.427"/>
<path fill="#8D8C8C" d="M347.559,240.896c0,0,15.509,47.331,18.9,57.428s10.417,59.431,9.179,68.1c0,0,8.094,2.893,17.88,0
	c0,0-3.18-45.834,0-58.636c3.178-12.801,11.438-30.969,11.438-30.969s4.954-8.26-3.306-19.406
	C393.394,246.265,345.907,218.185,347.559,240.896"/>
<path fill="#3F3F3F" d="M375.638,366.424c0,0-6.193,12.285-7.122,15.072c0,0,12.076,5.573,23.227,0l1.775-15.072
	C393.519,366.424,381.213,368.696,375.638,366.424"/>
<path fill="#8D8C8C" d="M458.223,234.702c0,0-8.249,44.985,0,54.091c8.25,9.11,34.687,21.771,34.687,21.771
	s-16.928,40.169-22.3,45.952c-5.367,5.779-0.822,14.451-0.822,14.451s14.863,2.891,21.057,0c0,0-1.239-7.433,2.065-12.389
	c3.302-4.955,30.569-47.486,29.532-52.44c-1.038-4.956-11.777-10.323-11.777-13.628c0,0,18.997-18.168,18.169-29.317
	c-0.824-11.15-6.092-39.727-13.391-48.748C508.143,205.422,464.005,205.385,458.223,234.702"/>
<g>
	<defs>
		<path id="SVGID_5_" d="M458.225,234.699c0,0-8.251,44.988,0,54.094c8.25,9.11,34.684,21.771,34.684,21.771
			s-16.93,40.171-22.299,45.949c-5.365,5.782-0.825,14.455-0.825,14.455s14.869,2.89,21.06,0c0,0-1.239-7.434,2.064-12.39
			c3.305-4.955,30.571-47.486,29.529-52.44c-1.034-4.954-11.773-10.325-11.773-13.628c0,0,18.995-18.166,18.169-29.314
			c-0.825-11.151-6.089-39.729-13.391-48.753c-2.61-3.225-9.922-5.298-18.507-5.298
			C481.494,209.145,461.939,215.859,458.225,234.699"/>
	</defs>
	<clipPath id="SVGID_6_">
		<use xlink:href="#SVGID_5_"  overflow="visible"/>
	</clipPath>
	<path clip-path="url(#SVGID_6_)" fill="#686868" d="M525.436,241.807c0,0,1.998,25.896-8.561,35.727
		c-10.561,9.833-23.063,14.933-23.063,14.933s19.617,8.009,24.799,12.379c5.181,4.371,6.979,0,6.979,0
		S540.917,274.541,525.436,241.807"/>
</g>
<path fill="#3F3F3F" d="M469.787,370.45c0,0-2.479,10.737-3.411,13.525c0,0,12.407,7.123,23.556,1.546l0.912-14.554
	C490.844,370.968,475.361,372.722,469.787,370.45"/>
<path fill="#3A3A3A" d="M328.151,27c0,0,19.196,34.479-1.448,75.565h-2.044C324.659,102.565,337.028,73.866,328.151,27"/>
<path fill="#515151" d="M313.434,97.439c0,0-7.167-42.361,14.717-70.439c0,0,16.141,31.383-3.493,75.563
	C324.658,102.563,322.91,97.51,313.434,97.439"/>
<path fill="#989898" d="M315.335,97.508c0,0-1.164-39.54,10.958-57.916c0,0,10.085,18.618-2.69,61.143
	C323.603,100.735,319.593,97.403,315.335,97.508"/>
<path fill="#757575" d="M315.335,97.508c0,0-0.776-7.042,4.792-9.809c5.566-2.768,3.305,13.617,3.305,13.617
	S317.45,100.726,315.335,97.508"/>
<path fill="#191919" d="M302.55,87.7c-5.43,0-16.929,5.369-16.929,10.735c0,5.369,6.193,0,6.193,0s-3.304,10.322,2.271,11.976
	c5.576,1.652,10.117-11.354,10.117-11.354s2.064,7.224,5.781,5.572C313.698,102.977,319.893,87.7,302.55,87.7"/>
</svg>
