<svg version="1.1" id="Layer_1" xmlns="http://www.w3.org/2000/svg" xmlns:xlink="http://www.w3.org/1999/xlink" viewBox="0 0 768 430" enable-background="new 0 0 768 430" xml:space="preserve">
<g>
	<path fill="#E6E7E7" d="M543.914,337.817c4.524-2.111,16.304-4.357,20.278-0.534c3.183,3.062-3.387,4.826-5.366,5.252
		c-3.668,0.788-7.675,1.323-11.245-0.026C542.615,340.632,539.92,338.697,543.914,337.817z"/>
	<g>
		<path fill="none" d="M298.095,399.813c-6.625,3.526-14.577,3.485-21.927,2.866c-3.968-0.335-17.225-2.129-11.783-8.899
			c6.796-8.452,30.334-7.023,39.689-4.038C312.086,390.459,307.313,394.908,298.095,399.813z M540.771,360.515
			c0.841,7.731-4.576,15.889-10.862,20.454c-11.538,8.379-32.201,5.875-46.188,6.444c-27.47,1.117-52.226,11.783-80.016,4.56
			c-12.877-3.347-24.499-10.52-37.589-13.093c-16.269-3.196-33.45-0.679-49.89-0.247c-18.046,0.477-36.139,0.729-54.146-0.802
			c-13.041-1.107-39.088,2.993-45.534-11.905c-8.678-20.062,21.424-25.939,33.702-31.389c11.115-4.933,21.505-8.256,33.091-11.692
			c5.464-1.62,11.806-6.273,7.016-12.103c-3.351-4.076-11.851-5.484-5.541-12.791c1.729-2.002,5.806-3.104,8.178-4.125
			c13.362-5.751,28.614-7.541,44.003-7.951c-13.269-15.156-21.313-35-21.313-56.727c0-9.225,1.456-18.108,4.14-26.441
			c-19.717-2.496-32.596-8.272-33.982-16.748c-1.86-11.375,17.445-24.732,47.709-35.166c-0.221-0.884-0.399-1.747-0.521-2.578
			c-0.831-5.646,3.736-11.854,2.062-17.148c-2.725-8.618-21.643-8.589-23.767-19.018c-1.968-9.663,6.1-8.142-1.185-16.425
			c-4.457-5.069-16.217-8.165-16.208-15.018c-0.245-0.344-0.426-0.735-0.511-1.189c-0.053-0.284-0.077-0.586-0.053-0.921
			c0.302-4.189,6.696-8.864,9.747-11.175c4.336-3.284,9.104-5.923,13.728-8.768c2.791-1.717,5.676-3.331,8.581-4.848
			c9.905-5.173,21.404-6.643,32.38-7.854c10.062-1.111,20.067-2.898,30.161-3.694c10.434-0.821,20.227-0.667,30.594,0.724
			c2.456,0.329,7.379,0.631,8.362,3.456c0.022,0.065,0.03,0.138,0.048,0.205c0.119,0.449,0.125,0.958,0.061,1.5
			c1.663,4.186-1.869,9.755-3.353,15.726c-0.864,3.489-4.997,8.764-3.581,12.445c2.524,6.577,6.694,8.156,13.49,8.375
			c5.969,1.681,1.66,7.066-1.212,12.452c-4.994,9.365,0.432,7.946,6.898,14.981c5.282,5.751,10.279,14.28,10.076,21.885
			c26.331,1.468,44.235,7.729,45.884,17.811c1.324,8.106-8.104,17.22-24.585,25.565c10.895,14.429,17.358,32.392,17.358,51.866
			c0,22.806-8.863,43.538-23.329,58.951c4.611-0.108,9.187-0.346,13.688-0.792c16.73-1.663,46.505-7.194,59.389,5.155
			c4.479,4.294,5.258,9.802,1.213,14.3c-6.287,6.989-22.747,11.902-24.134,22.361C512.955,343.278,539.195,346.046,540.771,360.515z
			"/>
		<path fill="#E6E7E7" d="M538.965,306.763c4.045-4.498,3.267-10.006-1.213-14.3c-12.884-12.35-42.658-6.818-59.389-5.155
			c-4.502,0.446-9.077,0.684-13.688,0.792c14.466-15.413,23.329-36.146,23.329-58.951c0-19.474-6.464-37.437-17.358-51.866
			c-18.126,9.178-44.783,17.426-75.068,22.379c-29.032,4.748-55.871,5.564-75.754,3.046c-2.684,8.333-4.14,17.216-4.14,26.441
			c0,21.727,8.044,41.57,21.313,56.727c-15.389,0.41-30.641,2.2-44.003,7.951c-2.372,1.021-6.449,2.123-8.178,4.125
			c-6.31,7.307,2.19,8.715,5.541,12.791c4.79,5.829-1.552,10.482-7.016,12.103c-11.586,3.437-21.977,6.76-33.091,11.692
			c-12.278,5.449-42.38,11.327-33.702,31.389c6.445,14.898,32.493,10.798,45.534,11.905c18.006,1.531,36.099,1.278,54.146,0.802
			c16.44-0.432,33.621-2.949,49.89,0.247c13.09,2.573,24.712,9.746,37.589,13.093c27.79,7.224,52.546-3.442,80.016-4.56
			c13.986-0.569,34.649,1.935,46.188-6.444c6.286-4.565,11.703-12.723,10.862-20.454c-1.575-14.469-27.815-17.236-25.939-31.391
			C516.218,318.665,532.678,313.752,538.965,306.763z M399.305,231.438c3.74-9.906,15.546-9.252,23.738-5.273
			c7.45,3.616,11.473,9.792,12.253,16.807c1.322,11.906-11.403,19.395-22.328,17.026C401.35,257.48,395.369,241.869,399.305,231.438
			z M357.646,231.859c2.488-9.035,11.956-17.144,21.132-15.321c1.619,0.321,3.228,0.952,4.791,1.943
			c9.572,6.063,9.424,23.227-1.018,28.931C370.709,253.875,353.603,246.533,357.646,231.859z M395.57,291.826
			c-4.83,7.512-8.051,16.682-12.012,23.452c-6.026,10.312-25.862,29.666-26.973,27.923c-3.376-3.642,5.56-26.149,7.563-37.585
			c2.977-16.992,9.435-31.353,15.448-49.17c0,0,2.334-5.026,8.796-3.771c5.699,1.109,16.467,5.415,19.098,15.011
			C410.352,278.128,400.506,284.156,395.57,291.826z M436.312,297.826c-2.723,2.408-5.835,5.434-11.339,5.787
			c-6.255,0.399-12.907-6.071-16.03-13.84c0.028-0.113,0.057-0.226,0.085-0.336c1.495-5.769,6.588-8.346,12.321-10.882
			c0.35-0.155,0.69-0.282,1.036-0.412c1.094-0.419,2.156-0.729,3.19-0.929c5.713-1.103,10.594,0.857,15.442,2.924
			C442.495,286.571,441.322,293.405,436.312,297.826z"/>
		<path d="M401.844,142.989c28.11,0,53.073,13.465,68.802,34.294c16.48-8.346,25.909-17.459,24.585-25.565
			c-1.648-10.081-19.553-16.342-45.884-17.811c0.203-7.604-4.794-16.133-10.076-21.885c-6.467-7.035-11.893-5.616-6.898-14.981
			c2.872-5.385,7.181-10.771,1.212-12.452c-6.796-0.219-10.966-1.798-13.49-8.375c-1.416-3.681,2.717-8.956,3.581-12.445
			c1.483-5.971,5.016-11.54,3.353-15.726c-0.373,3.107-3.414,7.401-5.08,9.115c-23.254,23.923-60.936,32.714-93.326,31.665
			c-10.297-0.333-20.337-1.751-30.021-5.586c-1.609-0.637-3.684-1.244-4.668-2.629c-0.009,6.853,11.75,9.948,16.208,15.018
			c7.284,8.284-0.784,6.762,1.185,16.425c2.124,10.428,21.042,10.399,23.767,19.018c1.674,5.293-2.893,11.501-2.062,17.148
			c0.122,0.831,0.3,1.693,0.521,2.578c-30.264,10.433-49.569,23.79-47.709,35.166c1.386,8.476,14.265,14.251,33.982,16.748
			C330.984,168.06,363.483,142.989,401.844,142.989z"/>
		<path d="M395.577,199.662c30.285-4.953,56.942-13.201,75.068-22.379c-15.729-20.829-40.691-34.294-68.802-34.294
			c-38.36,0-70.859,25.071-82.021,59.719C339.706,205.226,366.545,204.409,395.577,199.662z"/>
		<path fill="#DC8630" d="M388.393,252.676c-6.462-1.256-8.796,3.771-8.796,3.771c-6.013,17.817-12.471,32.178-15.448,49.17
			c-2.003,11.436-10.939,33.943-7.563,37.585c1.111,1.743,20.947-17.611,26.973-27.923c3.961-6.771,7.182-15.94,12.012-23.452
			c4.936-7.67,14.781-13.698,11.92-24.14C404.859,258.091,394.092,253.785,388.393,252.676z"/>
		<path fill="#FFFFFF" d="M382.551,247.412c10.441-5.704,10.59-22.867,1.018-28.931c-1.562-0.991-3.172-1.622-4.791-1.943
			c-9.176-1.822-18.644,6.286-21.132,15.321C353.603,246.533,370.709,253.875,382.551,247.412z M379.042,235.399
			c1.445-0.281,2.864,0.033,4.018,0.761c-0.494,0.503-0.739,1.228-0.596,1.971c0.236,1.206,1.396,1.993,2.605,1.76
			c0.166-0.033,0.322-0.088,0.469-0.151l0.018,0.057c0.583,3.012-1.387,5.93-4.397,6.509c-3.014,0.586-5.929-1.38-6.515-4.396
			C374.061,238.898,376.031,235.983,379.042,235.399z"/>
		<path fill="#FFFFFF" d="M412.968,259.997c10.925,2.368,23.65-5.12,22.328-17.026c-0.78-7.015-4.803-13.19-12.253-16.807
			c-8.192-3.979-19.998-4.633-23.738,5.273C395.369,241.869,401.35,257.48,412.968,259.997z M414.232,251.218
			c0.834-0.907,0.777-2.309-0.129-3.141c-0.125-0.114-0.262-0.208-0.402-0.286l0.035-0.051c2.078-2.258,5.594-2.406,7.848-0.332
			c2.268,2.08,2.414,5.592,0.335,7.849c-2.073,2.262-5.587,2.412-7.849,0.337c-1.082-0.998-1.674-2.323-1.775-3.685
			C412.993,252.006,413.725,251.774,414.232,251.218z"/>
		<path fill="#231F20" d="M381.159,246.305c3.011-0.579,4.98-3.497,4.397-6.509l-0.018-0.057c-0.146,0.063-0.303,0.118-0.469,0.151
			c-1.209,0.233-2.369-0.554-2.605-1.76c-0.144-0.743,0.102-1.468,0.596-1.971c-1.154-0.728-2.573-1.042-4.018-0.761
			c-3.011,0.584-4.981,3.499-4.398,6.509C375.23,244.925,378.146,246.891,381.159,246.305z"/>
		<path fill="#231F20" d="M421.919,255.257c2.079-2.257,1.933-5.769-0.335-7.849c-2.254-2.074-5.77-1.926-7.848,0.332l-0.035,0.051
			c0.141,0.078,0.277,0.172,0.402,0.286c0.906,0.832,0.963,2.233,0.129,3.141c-0.508,0.557-1.239,0.788-1.938,0.691
			c0.102,1.361,0.693,2.687,1.775,3.685C416.332,257.669,419.846,257.519,421.919,255.257z"/>
		<path fill="#EB9197" d="M425.576,277.215c1.112,6.925,2.1,14.325,1.89,14.846c-4.191-4.398-4.811-9.089-5.08-13.917
			c-0.346,0.13-0.687,0.257-1.036,0.412c-5.733,2.536-10.826,5.113-12.321,10.882c-0.028,0.11-0.057,0.223-0.085,0.336
			c3.123,7.769,9.775,14.239,16.03,13.84c5.504-0.354,8.616-3.379,11.339-5.787c5.01-4.421,6.183-11.255,4.706-17.688
			C436.17,278.072,431.289,276.112,425.576,277.215z"/>
		<path fill="#EE575A" d="M425.576,277.215c-1.034,0.199-2.097,0.51-3.19,0.929c0.27,4.828,0.889,9.519,5.08,13.917
			C427.676,291.54,426.688,284.14,425.576,277.215z"/>
		<path fill="#E6E7E7" d="M304.075,389.742c-9.355-2.985-32.893-4.414-39.689,4.038c-5.442,6.771,7.815,8.564,11.783,8.899
			c7.35,0.619,15.301,0.66,21.927-2.866C307.313,394.908,312.086,390.459,304.075,389.742z"/>
		<path fill="#171717" d="M299.198,83.074c9.59,3.798,19.533,5.203,29.73,5.532c32.076,1.038,69.393-7.667,92.42-31.358
			c1.938-1.992,5.766-7.515,4.971-10.512c0.309,0.417,0.53,0.856,0.709,1.307c0.064-0.542,0.059-1.051-0.061-1.5
			c-0.018-0.067-0.025-0.14-0.048-0.205c-0.983-2.824-5.906-3.127-8.362-3.456c-10.367-1.39-20.16-1.545-30.594-0.724
			c-10.093,0.795-20.099,2.583-30.161,3.694c-10.976,1.211-22.475,2.681-32.38,7.854c-2.904,1.517-5.79,3.131-8.581,4.848
			c-4.624,2.845-9.391,5.484-13.728,8.768c-3.051,2.311-9.445,6.986-9.747,11.175c-0.024,0.334,0,0.637,0.053,0.921
			c0.085,0.454,0.266,0.845,0.511,1.189c0-0.424,0.041-0.86,0.137-1.315C294.494,81.549,297.207,82.287,299.198,83.074z"/>
		<path fill="#171717" d="M298.6,83.237c9.684,3.835,19.725,5.253,30.021,5.586c32.391,1.049,70.072-7.742,93.326-31.665
			c1.666-1.713,4.707-6.007,5.08-9.115c-0.179-0.45-0.4-0.889-0.709-1.307c0.795,2.997-3.033,8.52-4.971,10.512
			c-23.027,23.691-60.344,32.396-92.42,31.358c-10.197-0.33-20.14-1.734-29.73-5.532c-1.991-0.788-4.704-1.525-5.129-3.781
			c-0.096,0.455-0.137,0.891-0.137,1.315C294.916,81.994,296.991,82.6,298.6,83.237z"/>
	</g>
</g>
<circle fill="#FFC400" cx="752.279" cy="143.721" r="56.279"/>
</svg>
