<svg xmlns="http://www.w3.org/2000/svg" viewBox="0 0 768 430" style="enable-background:new 0 0 768 430;version:1"><style>.a{fill:#C1C1C1;}.b{fill:#A5A5A5;}.c{fill:#D6D6D6;}.d{fill:#828282;}.e{fill:#7EACDD;}</style><g><g><g><g><ellipse cx="252" cy="126.9" rx="31.2" ry="54.6" class="a"/></g></g><g><g><rect x="251.8" y="72.2" width="9.7" height="109.3" class="a"/></g></g><g><g><ellipse cx="252" cy="126.9" rx="31.2" ry="54.6" class="b"/></g></g><g><g><rect x="251.8" y="72.2" width="9.7" height="109.3" class="b"/></g></g><g><g><ellipse cx="260.8" cy="126.9" rx="31.2" ry="54.6" class="c"/></g></g><g><g><g><path d="M268.3 138.7c-1.8 0-3.7-0.4-5.5-1.1 -6.8-2.9-9.9-10.5-6.8-17 0.8-1.6 19.3-40.4 60.6-54.2 26.2-8.7 55-5.5 85.7 9.7 6.6 3.3 9.2 11.1 5.8 17.4 -3.4 6.3-11.6 8.8-18.2 5.5 -23.8-11.8-45.4-14.5-64.3-8.2 -30.4 10.1-44.7 40-44.8 40.3C278.4 135.8 273.5 138.7 268.3 138.7z" fill="#C6C6C6"/></g></g></g><g opacity="0.08"><g><g><path d="M324.1 81.7c-36.5 12.2-53.7 48.1-53.9 48.5 -1.6 3.3-4.2 5.9-7.4 7.4 1.8 0.7 3.6 1.1 5.4 1.1 5.2 0 10.1-2.8 12.4-7.6 0.1-0.3 14.4-30.2 44.8-40.3 18.9-6.3 40.5-3.5 64.3 8.2 6.6 3.3 14.8 0.8 18.2-5.5 0 0 0-0.1 0.1-0.1 -2.3-0.1-4.6-0.6-6.7-1.7C372.8 77.4 346.8 74.1 324.1 81.7z"/></g></g></g><g><g><g><path d="M463.4 158.3c-4.8 4.8-9.8 9.1-14.8 12.8 -23.7 17.8-48.5 23.4-59.8 12.1 -12.9-12.9-35.4-52-4.3-90.3 1.9-2.4 4.1-4.7 6.4-7.1 43.9-43.9 83.6-15.8 97.3-2.1C502 97.5 490.8 130.9 463.4 158.3z" fill="#E5E5E5"/></g></g><g opacity="0.03"><g><path d="M448.6 171.1c-23.7 17.8-48.5 23.4-59.8 12.1 -12.9-12.9-35.4-52-4.3-90.3 3.1 20 13.8 46.8 46.9 63.6C440.2 161 445.6 166 448.6 171.1z"/></g></g><g><g><g><ellipse transform="matrix(0.7071 0.7071 -0.7071 0.7071 224.0209 -271.4963)" cx="439.7" cy="134.7" rx="37.9" ry="76.1" fill="#C4C4C4"/></g></g><g><g><rect x="438" y="62.7" transform="matrix(0.7071 0.7071 -0.7071 0.7071 228.1537 -273.2104)" width="11.6" height="152.1" class="c"/></g></g></g><g><g><ellipse transform="matrix(0.7071 0.7071 -0.7071 0.7071 232.2396 -274.9005)" cx="448" cy="142.9" rx="37.9" ry="76.1" fill="#A0A0A0"/></g></g><g opacity="0.04"><g><ellipse transform="matrix(0.7071 0.7071 -0.7071 0.7071 232.2394 -274.9002)" cx="448" cy="142.9" rx="32.9" ry="66.1"/></g></g><g opacity="0.3"><g><g><ellipse transform="matrix(0.707 0.7072 -0.7072 0.707 215.6648 -316.185)" cx="489.4" cy="102.2" rx="3.3" ry="5.6" class="d"/></g></g><g><g><ellipse transform="matrix(0.7071 0.7071 -0.7071 0.7071 224.1223 -263.5821)" cx="430.2" cy="138.7" rx="3.3" ry="5.6" class="d"/></g></g><g><g><ellipse transform="matrix(0.7071 0.7071 -0.7071 0.7071 233.3967 -272.3221)" cx="445.4" cy="145.6" rx="3.3" ry="5.6" class="d"/></g></g><g><g><ellipse transform="matrix(0.7072 0.707 -0.707 0.7072 225.1098 -299.6929)" cx="474.4" cy="121.9" rx="3.3" ry="5.6" class="d"/></g></g><g><g><ellipse transform="matrix(0.7071 0.7071 -0.7071 0.7071 242.6918 -297.7429)" cx="480.8" cy="144.1" rx="3.3" ry="5.6" class="d"/></g></g><g><g><ellipse transform="matrix(0.707 0.7073 -0.7073 0.707 239.0566 -286.8585)" cx="465.7" cy="145.1" rx="3.3" ry="5.6" class="d"/></g></g><g><g><ellipse transform="matrix(0.7071 0.7071 -0.7071 0.7071 251.1112 -285.9429)" cx="470.7" cy="160.1" rx="3.3" ry="5.6" class="d"/></g></g><g><g><ellipse transform="matrix(0.7072 0.707 -0.707 0.7072 253.7725 -247.9152)" cx="426.2" cy="182.4" rx="3.3" ry="5.6" class="d"/></g></g><g><g><ellipse transform="matrix(0.7071 0.7071 -0.7071 0.7071 223.106 -284.8666)" cx="455.4" cy="126.9" rx="3.3" ry="5.6" class="d"/></g></g><g><g><ellipse transform="matrix(0.7071 0.7071 -0.7071 0.7071 213.7342 -297.7917)" cx="466.3" cy="109.1" rx="3.3" ry="5.6" class="d"/></g></g><g><g><ellipse transform="matrix(0.7073 0.707 -0.707 0.7073 205.0156 -289.5363)" cx="452.1" cy="102.8" rx="3.3" ry="5.6" class="d"/></g></g><g><g><ellipse transform="matrix(0.7072 0.707 -0.707 0.7072 205.7746 -310.1723)" cx="477.4" cy="93.3" rx="3.3" ry="5.6" class="d"/></g></g><g><g><ellipse transform="matrix(0.7071 0.7071 -0.7071 0.7071 238.3327 -238.3412)" cx="406.9" cy="168.5" rx="3.3" ry="5.6" class="d"/></g></g><g><g><ellipse transform="matrix(0.7072 0.707 -0.707 0.7072 239.9247 -257.3575)" cx="430.7" cy="161" rx="3.3" ry="5.6" class="d"/></g></g><g><g><ellipse transform="matrix(0.7071 0.7071 -0.7071 0.7071 231.4594 -311.5786)" cx="491.8" cy="123.6" rx="3.3" ry="5.6" class="d"/></g></g><g><g><ellipse transform="matrix(0.7072 0.707 -0.707 0.7072 227.8603 -247.7369)" cx="413" cy="151.2" rx="3.3" ry="5.6" class="d"/></g></g><g><g><ellipse transform="matrix(0.7071 0.7071 -0.7071 0.7071 249.7626 -267.3894)" cx="447.6" cy="167.8" rx="3.3" ry="5.6" class="d"/></g></g><g><g><ellipse transform="matrix(0.7071 0.7071 -0.7071 0.7071 259.5783 -265.5)" cx="450.3" cy="180.6" rx="3.3" ry="5.6" class="d"/></g></g><g><g><ellipse transform="matrix(0.7072 0.707 -0.707 0.7072 249.6837 -233.8004)" cx="407.1" cy="184.5" rx="3.3" ry="5.6" class="d"/></g></g><g><g><ellipse transform="matrix(0.7071 0.7071 -0.7071 0.7071 213.3872 -276.2159)" cx="440.1" cy="119.5" rx="3.3" ry="5.6" class="d"/></g></g></g></g></g><g><g><g><path d="M486.2 354.9l0.2-15.7c0-2.4 2-4.2 4.3-4.2 2.3 0 4.1 1.9 4.2 4.1v0.1l0.5 15.7c0.1 2.5-1.9 4.7-4.5 4.7 -2.5 0.1-4.7-1.9-4.7-4.5 0-0.1 0-0.1 0-0.2L486.2 354.9z" class="e"/></g></g><g><g><path d="M486.2 323.6l-0.5-15.7c-0.1-2 1.5-3.7 3.5-3.7 1.9-0.1 3.6 1.4 3.7 3.3l1.2 15.7c0.2 2.2-1.5 4.1-3.6 4.2 -2.2 0.2-4.1-1.5-4.2-3.6C486.2 323.7 486.2 323.6 486.2 323.6z" class="e"/></g></g><g><g><path d="M484.8 292.3l-1.2-15.7c-0.1-1.6 1.1-3 2.7-3.2 1.6-0.1 3 1 3.2 2.6l1.9 15.6c0.2 1.8-1.1 3.4-2.9 3.7s-3.4-1.1-3.7-2.9C484.8 292.4 484.8 292.3 484.8 292.3z" class="e"/></g></g><g><g><path d="M482 261l-2.1-15.6c-0.2-1.3 0.7-2.4 2-2.6 1.2-0.2 2.4 0.7 2.6 1.9l2.8 15.5c0.3 1.4-0.7 2.8-2.1 3s-2.8-0.7-3-2.1C482 261.1 482 261.1 482 261z" class="e"/></g></g><g><g><path d="M477.2 230l-3.3-15.4c-0.2-0.9 0.4-1.8 1.3-1.9 0.9-0.2 1.7 0.3 1.9 1.2l3.9 15.3c0.3 1.1-0.4 2.1-1.4 2.4s-2.1-0.4-2.4-1.4C477.2 230.1 477.2 230.1 477.2 230z" class="e"/></g></g><g><g><path d="M469.8 199.5c0 0-1.1-3.8-2.4-7.5 -1.3-3.7-2.7-7.4-2.7-7.4 -0.2-0.5 0.1-1.1 0.6-1.3 0.5-0.2 1 0 1.3 0.5 0 0 1.6 3.6 3 7.3 1.4 3.7 2.7 7.4 2.7 7.4l0 0c0.2 0.7-0.1 1.4-0.8 1.7 -0.7 0.2-1.4-0.1-1.7-0.8C469.8 199.6 469.8 199.6 469.8 199.5z" class="e"/></g></g><g><g><path d="M458.4 170.4c0 0-1.8-3.5-3.8-6.8 -2-3.4-4.3-6.5-4.3-6.5 -0.1-0.1-0.1-0.3 0.1-0.5 0.1-0.1 0.3-0.1 0.4 0.1 0 0 2.5 3.1 4.7 6.4 2.2 3.3 4.2 6.7 4.2 6.7l0 0c0.2 0.3 0.1 0.7-0.2 0.9 -0.3 0.2-0.7 0.1-0.9-0.2C458.4 170.4 458.4 170.4 458.4 170.4z" class="e"/></g></g></g><g><g><g><path d="M498.3 321.1l0.2-15.7c0-2.4 2-4.2 4.3-4.2 2.3 0 4.1 1.9 4.2 4.1l0 0 0.5 15.7c0.1 2.5-1.9 4.7-4.5 4.7 -2.5 0.1-4.7-1.9-4.7-4.5 0-0.1 0-0.1 0-0.2L498.3 321.1z" class="e"/></g></g><g><g><path d="M498.3 289.8l-0.5-15.7c-0.1-2 1.5-3.7 3.5-3.7 1.9-0.1 3.6 1.4 3.7 3.3l1.2 15.7c0.2 2.2-1.5 4.1-3.6 4.2 -2.2 0.2-4.1-1.5-4.2-3.6C498.3 289.9 498.3 289.9 498.3 289.8z" class="e"/></g></g><g><g><path d="M496.9 258.5l-1.2-15.7c-0.1-1.6 1.1-3 2.7-3.2 1.6-0.1 3 1 3.2 2.6l1.9 15.6c0.2 1.8-1.1 3.4-2.9 3.7 -1.8 0.2-3.4-1.1-3.7-2.9C496.9 258.6 496.9 258.5 496.9 258.5z" class="e"/></g></g><g><g><path d="M494 227.3l-2.1-15.6c-0.2-1.3 0.7-2.4 2-2.6 1.2-0.2 2.4 0.7 2.6 1.9l2.8 15.5c0.3 1.4-0.7 2.8-2.1 3 -1.4 0.3-2.8-0.7-3-2.1C494 227.4 494 227.3 494 227.3z" class="e"/></g></g><g><g><path d="M489.3 196.3l-3.3-15.4c-0.2-0.9 0.4-1.8 1.3-1.9 0.9-0.2 1.7 0.3 1.9 1.2l3.9 15.3c0.3 1.1-0.4 2.1-1.4 2.4s-2.1-0.4-2.4-1.4C489.3 196.3 489.3 196.3 489.3 196.3z" class="e"/></g></g><g><g><path d="M481.9 165.8c0 0-1.1-3.8-2.4-7.5 -1.3-3.7-2.7-7.4-2.7-7.4 -0.2-0.5 0.1-1.1 0.6-1.3 0.5-0.2 1 0 1.3 0.5 0 0 1.6 3.6 3 7.3 1.4 3.7 2.7 7.4 2.7 7.4l0 0c0.2 0.7-0.1 1.4-0.8 1.7 -0.7 0.2-1.4-0.1-1.7-0.8C481.9 165.8 481.9 165.8 481.9 165.8z" class="e"/></g></g><g><g><path d="M470.4 136.7c0 0-1.8-3.5-3.8-6.8 -2-3.4-4.3-6.5-4.3-6.5 -0.1-0.1-0.1-0.3 0.1-0.5 0.1-0.1 0.3-0.1 0.4 0.1 0 0 2.5 3.1 4.7 6.4 2.2 3.3 4.2 6.7 4.2 6.7l0 0c0.2 0.3 0.1 0.7-0.3 0.9 -0.3 0.2-0.7 0.1-0.9-0.2C470.4 136.7 470.4 136.7 470.4 136.7z" class="e"/></g></g></g><g><g><g><path d="M447.1 391.7l0.2-15.7c0-2.4 2-4.2 4.3-4.2 2.3 0 4.1 1.9 4.2 4.1l0 0.1 0.5 15.7c0.1 2.5-1.9 4.7-4.5 4.7 -2.5 0.1-4.7-1.9-4.7-4.5 0-0.1 0-0.1 0-0.2L447.1 391.7z" class="e"/></g></g><g><g><path d="M447.1 360.4l-0.5-15.7c-0.1-2 1.5-3.7 3.5-3.7 1.9-0.1 3.6 1.4 3.7 3.3l1.2 15.7c0.2 2.2-1.5 4.1-3.6 4.2 -2.2 0.2-4.1-1.5-4.2-3.6C447.2 360.6 447.1 360.5 447.1 360.4z" class="e"/></g></g><g><g><path d="M445.7 329.1l-1.2-15.7c-0.1-1.6 1.1-3 2.7-3.2 1.6-0.1 3 1 3.2 2.6l1.9 15.6c0.2 1.8-1.1 3.4-2.9 3.7 -1.8 0.2-3.4-1.1-3.7-2.9C445.8 329.2 445.7 329.2 445.7 329.1z" class="e"/></g></g><g><g><path d="M442.9 297.9l-2.1-15.6c-0.2-1.3 0.7-2.4 2-2.6 1.2-0.2 2.4 0.7 2.6 1.9l2.8 15.5c0.3 1.4-0.7 2.8-2.1 3 -1.4 0.3-2.8-0.7-3-2.1C442.9 298 442.9 297.9 442.9 297.9z" class="e"/></g></g><g><g><path d="M438.1 266.9l-3.3-15.4c-0.2-0.9 0.4-1.8 1.3-1.9 0.9-0.2 1.7 0.3 1.9 1.2l3.9 15.3c0.3 1.1-0.4 2.1-1.4 2.4 -1.1 0.3-2.1-0.4-2.4-1.4C438.1 267 438.1 266.9 438.1 266.9z" class="e"/></g></g><g><g><path d="M430.7 236.4c0 0-1.1-3.8-2.4-7.5 -1.3-3.7-2.7-7.4-2.7-7.4 -0.2-0.5 0.1-1.1 0.6-1.3 0.5-0.2 1 0 1.3 0.5 0 0 1.6 3.6 3 7.3 1.4 3.7 2.7 7.4 2.7 7.4l0 0c0.2 0.7-0.1 1.4-0.8 1.7 -0.7 0.2-1.4-0.1-1.7-0.8C430.7 236.4 430.7 236.4 430.7 236.4z" class="e"/></g></g><g><g><path d="M419.3 207.3c0 0-1.8-3.5-3.8-6.8 -2-3.4-4.3-6.5-4.3-6.5 -0.1-0.1-0.1-0.3 0.1-0.5 0.1-0.1 0.3-0.1 0.4 0.1 0 0 2.5 3.1 4.7 6.4 2.2 3.3 4.2 6.7 4.2 6.7l0 0c0.2 0.3 0.1 0.7-0.2 0.9 -0.3 0.2-0.7 0.1-0.9-0.2C419.3 207.3 419.3 207.3 419.3 207.3z" class="e"/></g></g></g><g><g><g><path d="M513.6 317.5l0.2-15.7c0-2.4 2-4.2 4.3-4.2 2.3 0 4.1 1.9 4.2 4.1l0 0.1 0.5 15.7c0.1 2.5-1.9 4.7-4.5 4.7 -2.5 0.1-4.7-1.9-4.7-4.5 0-0.1 0-0.1 0-0.2L513.6 317.5z" class="e"/></g></g><g><g><path d="M513.7 286.2l-0.5-15.7c-0.1-2 1.5-3.7 3.5-3.7 1.9-0.1 3.6 1.4 3.7 3.3l1.2 15.7c0.2 2.2-1.5 4.1-3.6 4.2 -2.2 0.2-4.1-1.5-4.2-3.6C513.7 286.3 513.7 286.3 513.7 286.2z" class="e"/></g></g><g><g><path d="M512.3 254.9l-1.2-15.7c-0.1-1.6 1.1-3 2.7-3.2 1.6-0.1 3 1 3.2 2.6l1.9 15.6c0.2 1.8-1.1 3.4-2.9 3.7 -1.8 0.2-3.4-1.1-3.7-2.9C512.3 255 512.3 254.9 512.3 254.9z" class="e"/></g></g><g><g><path d="M509.4 223.7l-2.1-15.6c-0.2-1.3 0.7-2.4 2-2.6 1.2-0.2 2.4 0.7 2.6 1.9l2.8 15.5c0.3 1.4-0.7 2.8-2.1 3s-2.8-0.7-3-2.1C509.4 223.8 509.4 223.7 509.4 223.7z" class="e"/></g></g><g><g><path d="M504.6 192.7l-3.3-15.4c-0.2-0.9 0.4-1.8 1.3-1.9 0.9-0.2 1.7 0.3 1.9 1.2l3.9 15.3c0.3 1.1-0.4 2.1-1.4 2.4 -1.1 0.3-2.1-0.4-2.4-1.4C504.6 192.7 504.6 192.7 504.6 192.7z" class="e"/></g></g><g><g><path d="M497.2 162.2c0 0-1.1-3.8-2.4-7.5 -1.3-3.7-2.7-7.4-2.7-7.4 -0.2-0.5 0.1-1.1 0.6-1.3 0.5-0.2 1 0 1.3 0.5 0 0 1.6 3.6 3 7.3 1.4 3.7 2.7 7.4 2.7 7.4l0 0c0.2 0.7-0.1 1.4-0.8 1.7 -0.7 0.2-1.4-0.1-1.7-0.8C497.2 162.2 497.2 162.2 497.2 162.2z" class="e"/></g></g><g><g><path d="M485.8 133.1c0 0-1.8-3.5-3.8-6.8 -2-3.4-4.3-6.5-4.3-6.5 -0.1-0.1-0.1-0.3 0.1-0.5 0.1-0.1 0.3-0.1 0.4 0.1 0 0 2.5 3.1 4.7 6.4 2.2 3.3 4.1 6.7 4.1 6.7l0 0c0.2 0.3 0.1 0.7-0.2 0.9 -0.3 0.2-0.7 0.1-0.9-0.2C485.8 133.1 485.8 133.1 485.8 133.1z" class="e"/></g></g></g><g><g><g><path d="M458.1 380.2l0.2-15.7c0-2.4 2-4.2 4.3-4.2 2.3 0 4.1 1.9 4.2 4.1l0 0 0.5 15.7c0.1 2.5-1.9 4.7-4.5 4.7 -2.5 0.1-4.7-1.9-4.7-4.5 0-0.1 0-0.1 0-0.2L458.1 380.2z" class="e"/></g></g><g><g><path d="M458.1 348.9l-0.5-15.7c-0.1-2 1.5-3.7 3.5-3.7 1.9-0.1 3.6 1.4 3.7 3.3l1.2 15.7c0.2 2.2-1.5 4.1-3.6 4.2 -2.2 0.2-4.1-1.5-4.2-3.6C458.1 349 458.1 349 458.1 348.9z" class="e"/></g></g><g><g><path d="M456.7 317.6l-1.2-15.7c-0.1-1.6 1.1-3 2.7-3.2 1.6-0.1 3 1 3.2 2.6l1.9 15.6c0.2 1.8-1.1 3.4-2.9 3.7s-3.4-1.1-3.7-2.9C456.7 317.7 456.7 317.6 456.7 317.6z" class="e"/></g></g><g><g><path d="M453.8 286.4l-2.1-15.6c-0.2-1.3 0.7-2.4 2-2.6 1.2-0.2 2.4 0.7 2.6 1.9l2.8 15.5c0.3 1.4-0.7 2.8-2.1 3s-2.8-0.7-3-2.1C453.8 286.5 453.8 286.4 453.8 286.4z" class="e"/></g></g><g><g><path d="M449.1 255.4l-3.3-15.4c-0.2-0.9 0.4-1.8 1.3-1.9 0.9-0.2 1.7 0.3 1.9 1.2l3.9 15.3c0.3 1.1-0.4 2.1-1.4 2.4 -1.1 0.3-2.1-0.4-2.4-1.4C449.1 255.4 449.1 255.4 449.1 255.4z" class="e"/></g></g><g><g><path d="M441.7 224.9c0 0-1.1-3.8-2.4-7.5 -1.3-3.7-2.7-7.4-2.7-7.4 -0.2-0.5 0.1-1.1 0.6-1.3 0.5-0.2 1 0 1.3 0.5 0 0 1.6 3.6 3 7.3 1.4 3.7 2.7 7.4 2.7 7.4l0 0c0.2 0.7-0.1 1.4-0.8 1.7 -0.7 0.2-1.4-0.1-1.7-0.8C441.7 224.9 441.7 224.9 441.7 224.9z" class="e"/></g></g><g><g><path d="M430.2 195.8c0 0-1.8-3.5-3.8-6.8 -2-3.4-4.3-6.5-4.3-6.5 -0.1-0.1-0.1-0.3 0.1-0.5 0.1-0.1 0.3-0.1 0.4 0.1 0 0 2.5 3.1 4.7 6.4 2.2 3.3 4.1 6.7 4.1 6.7l0 0c0.2 0.3 0.1 0.7-0.2 0.9 -0.3 0.2-0.7 0.1-0.9-0.2C430.2 195.8 430.2 195.8 430.2 195.8z" class="e"/></g></g></g><g><g><g><path d="M530.9 331.3l0.2-15.7c0-2.4 2-4.2 4.3-4.2 2.3 0 4.1 1.9 4.2 4.1l0 0.1 0.5 15.7c0.1 2.5-1.9 4.7-4.5 4.7 -2.5 0.1-4.7-1.9-4.7-4.5 0-0.1 0-0.1 0-0.2L530.9 331.3z" class="e"/></g></g><g><g><path d="M530.9 300l-0.5-15.7c-0.1-2 1.5-3.7 3.5-3.7 1.9-0.1 3.6 1.4 3.7 3.3l1.2 15.7c0.2 2.2-1.5 4.1-3.6 4.2 -2.2 0.2-4.1-1.5-4.2-3.6C530.9 300.1 530.9 300 530.9 300z" class="e"/></g></g><g><g><path d="M529.5 268.7l-1.2-15.7c-0.1-1.6 1.1-3 2.7-3.2 1.6-0.1 3 1 3.2 2.6l1.9 15.6c0.2 1.8-1.1 3.4-2.9 3.7 -1.8 0.2-3.4-1.1-3.7-2.9C529.5 268.7 529.5 268.7 529.5 268.7z" class="e"/></g></g><g><g><path d="M526.6 237.4l-2.1-15.6c-0.2-1.3 0.7-2.4 2-2.6 1.2-0.2 2.4 0.7 2.6 1.9l2.8 15.5c0.3 1.4-0.7 2.8-2.1 3 -1.4 0.3-2.8-0.7-3-2.1C526.6 237.5 526.6 237.5 526.6 237.4z" class="e"/></g></g><g><g><path d="M521.9 206.4l-3.3-15.4c-0.2-0.9 0.4-1.8 1.3-1.9 0.9-0.2 1.7 0.3 1.9 1.2l3.9 15.3c0.3 1.1-0.4 2.1-1.4 2.4 -1.1 0.3-2.1-0.4-2.4-1.4C521.9 206.5 521.9 206.5 521.9 206.4z" class="e"/></g></g><g><g><path d="M514.5 175.9c0 0-1.1-3.8-2.4-7.5 -1.3-3.7-2.7-7.4-2.7-7.4 -0.2-0.5 0.1-1.1 0.6-1.3 0.5-0.2 1 0 1.3 0.5 0 0 1.6 3.6 3 7.3 1.4 3.7 2.7 7.4 2.7 7.4l0 0c0.2 0.7-0.1 1.4-0.8 1.7 -0.7 0.2-1.4-0.1-1.7-0.8C514.5 176 514.5 176 514.5 175.9z" class="e"/></g></g><g><g><path d="M503 146.8c0 0-1.8-3.5-3.8-6.8 -2-3.4-4.3-6.5-4.3-6.5 -0.1-0.1-0.1-0.3 0.1-0.5 0.1-0.1 0.3-0.1 0.4 0.1 0 0 2.5 3.1 4.7 6.4 2.2 3.3 4.2 6.7 4.2 6.7l0 0c0.2 0.3 0.1 0.7-0.2 0.9 -0.3 0.2-0.7 0.1-0.9-0.2C503 146.8 503 146.8 503 146.8z" class="e"/></g></g></g><g><g><g><path d="M550 307.5l-1-15.7c-0.2-2.4 1.6-4.4 4-4.5 2.3-0.2 4.3 1.5 4.5 3.8l0 0.1 1.7 15.7c0.3 2.5-1.5 4.8-4.1 5.1 -2.5 0.3-4.8-1.5-5.1-4.1 0-0.1 0-0.1 0-0.2L550 307.5z" class="e"/></g></g><g><g><path d="M547.5 276.3l-1.8-15.7c-0.2-2 1.2-3.8 3.2-4 1.9-0.2 3.7 1.1 4 3l2.4 15.6c0.3 2.1-1.1 4.2-3.3 4.5 -2.1 0.3-4.2-1.1-4.5-3.3C547.6 276.4 547.5 276.3 547.5 276.3z" class="e"/></g></g><g><g><path d="M543.7 245.2l-2.5-15.6c-0.3-1.6 0.8-3.1 2.4-3.4 1.6-0.3 3 0.8 3.4 2.3l3.1 15.4c0.4 1.8-0.8 3.5-2.6 3.9 -1.8 0.4-3.5-0.8-3.9-2.6C543.7 245.3 543.7 245.2 543.7 245.2z" class="e"/></g></g><g><g><path d="M538.3 214.3l-3.4-15.4c-0.3-1.2 0.5-2.5 1.8-2.7 1.2-0.3 2.4 0.5 2.7 1.7l4 15.2c0.4 1.4-0.5 2.8-1.9 3.2 -1.4 0.4-2.8-0.5-3.2-1.9C538.3 214.4 538.3 214.3 538.3 214.3z" class="e"/></g></g><g><g><path d="M531.1 183.8l-4.5-15.1c-0.3-0.9 0.2-1.8 1.1-2 0.8-0.3 1.7 0.2 2 1l5.1 14.9c0.4 1-0.2 2.1-1.2 2.5 -1 0.4-2.1-0.2-2.5-1.2C531.1 183.8 531.1 183.8 531.1 183.8z" class="e"/></g></g><g><g><path d="M521.3 153.9c0 0-1.4-3.7-3-7.2 -1.5-3.6-3.3-7.1-3.3-7.1 -0.2-0.5 0-1.1 0.5-1.3 0.5-0.2 1 0 1.3 0.4 0 0 1.9 3.5 3.6 7.1 1.7 3.6 3.3 7.2 3.3 7.2l0 0c0.3 0.7 0 1.4-0.7 1.7 -0.7 0.3-1.4 0-1.7-0.7C521.3 154 521.3 154 521.3 153.9z" class="e"/></g></g><g><g><path d="M507.6 125.8c0 0-2.1-3.3-4.4-6.5 -2.3-3.2-4.8-6.2-4.8-6.2 -0.1-0.1-0.1-0.3 0-0.5 0.1-0.1 0.3-0.1 0.5 0 0 0 2.7 2.9 5.1 6 2.5 3.1 4.7 6.4 4.7 6.4l0 0c0.2 0.3 0.1 0.7-0.2 0.9s-0.7 0.1-0.9-0.2C507.6 125.8 507.6 125.8 507.6 125.8z" class="e"/></g></g></g><g><g><g><path d="M474.6 356.2l-1-15.7c-0.2-2.4 1.6-4.4 4-4.5 2.3-0.2 4.3 1.5 4.5 3.8l0 0 1.7 15.7c0.3 2.5-1.5 4.8-4.1 5.1 -2.5 0.3-4.8-1.5-5.1-4.1 0-0.1 0-0.1 0-0.2L474.6 356.2z" class="e"/></g></g><g><g><path d="M472.1 325l-1.8-15.7c-0.2-2 1.2-3.8 3.2-4 1.9-0.2 3.7 1.1 4 3l2.4 15.6c0.3 2.1-1.1 4.2-3.3 4.5 -2.1 0.3-4.2-1.1-4.5-3.3C472.1 325.1 472.1 325.1 472.1 325z" class="e"/></g></g><g><g><path d="M468.2 293.9l-2.5-15.6c-0.3-1.6 0.8-3.1 2.4-3.4 1.6-0.3 3 0.8 3.4 2.3l3.1 15.4c0.4 1.8-0.8 3.5-2.6 3.9 -1.8 0.4-3.5-0.8-3.9-2.6C468.3 294 468.2 293.9 468.2 293.9z" class="e"/></g></g><g><g><path d="M462.9 263l-3.4-15.4c-0.3-1.2 0.5-2.5 1.8-2.7 1.2-0.3 2.4 0.5 2.7 1.7l4 15.2c0.4 1.4-0.5 2.8-1.9 3.2 -1.4 0.4-2.8-0.5-3.2-1.9C462.9 263.1 462.9 263 462.9 263z" class="e"/></g></g><g><g><path d="M455.7 232.5l-4.5-15.1c-0.3-0.9 0.2-1.8 1.1-2 0.8-0.3 1.7 0.2 2 1l5.1 14.9c0.4 1-0.2 2.1-1.2 2.5 -1 0.4-2.1-0.2-2.5-1.2C455.7 232.5 455.7 232.5 455.7 232.5z" class="e"/></g></g><g><g><path d="M445.9 202.7c0 0-1.4-3.7-3-7.2 -1.5-3.6-3.3-7.1-3.3-7.1 -0.2-0.5 0-1.1 0.5-1.3 0.5-0.2 1 0 1.3 0.4 0 0 1.9 3.5 3.6 7.1 1.7 3.6 3.3 7.2 3.3 7.2l0 0c0.3 0.7 0 1.4-0.7 1.7s-1.4 0-1.7-0.7C445.9 202.7 445.9 202.7 445.9 202.7z" class="e"/></g></g><g><g><path d="M432.2 174.5c0 0-2.1-3.3-4.4-6.5 -2.3-3.2-4.8-6.2-4.8-6.2 -0.1-0.1-0.1-0.3 0-0.5 0.1-0.1 0.3-0.1 0.5 0 0 0 2.7 2.9 5.1 6 2.5 3.1 4.7 6.4 4.7 6.4l0 0c0.2 0.3 0.1 0.7-0.2 0.9 -0.3 0.2-0.7 0.1-0.9-0.2C432.2 174.6 432.2 174.6 432.2 174.5z" class="e"/></g></g></g></g></svg>