<svg xmlns="http://www.w3.org/2000/svg" viewBox="0 0 768 430"><style>.a{fill:#665C4B;}.b{fill:#E0AB85;}.c{fill:#5B4124;}.d{fill:#7A5B36;}.e{fill:#352412;}.f{fill:#FFF;}.g{fill:#35200B;}.h{fill:#CE493E;}.i{fill:#5D933E;}.j{fill:#B7D17D;}</style><polygon points="353.7 237.8 271.3 190.2 269 193.3 352.7 242.1 " class="a"/><polygon points="271.3 190.2 318.1 167.5 390 206.1 353.7 237.8 " fill="#DBD4CA"/><path d="M309.3 174.1l-3.4-2.6 -1 0.5 2.2 1.8c0.5 0.4 0.4 1.1-0.1 1.4l-13 6.6c-1.4 0.7-3 0.7-4.4-0.1l-2.1-1.1 -2.1 1 3.3 1.8c1.6 0.9 3.5 0.9 5.2 0.1l15.2-7.7C309.8 175.4 309.9 174.6 309.3 174.1z" class="a"/><polygon points="287.6 180.5 304.9 172 304.9 172 305.9 171.5 304.6 170.3 283.8 180.3 285.5 181.6 287.6 180.5 " class="a"/><path d="M381.2 189.5c0 0-18.7-3.8-19.7-5.3 -1-1.6-5.8-7.1-9.5-6.8 -3.8 0.3-8.4 1.1-9.1 2.1 -0.7 1 0 4.7 0 4.7s-1.4-0.1-2 1.3c-0.6 1.4 0 3.5 0 3.5s-0.7 0.4-0.7 1.2 0 2 0 2 -1 0-0.8 0.8c0.2 0.8 3.1 5 4.9 5.5s3.9 1.2 6.9 1.4 4.8-1.3 4.8-1.3 10.6 4.2 16.9 6.4c6.3 2.2 13.3 0.1 13.3 0 0-0.1 0.5-6.6 0.3-8C386.2 195.5 381.2 189.5 381.2 189.5z" class="b"/><path d="M385.4 175.6c0 0 0.5-7.4 0-10.5 -0.5-3 6.3-5.1 6.3-5.1l20.4-1.6 4 9.1c0 0 7.2 6.4-12.8 12.8 -20 6.4-22.5 3.4-21.4 0.5C383.1 178 385.4 175.6 385.4 175.6z" class="b"/><polygon points="394.5 319.9 394.5 405.2 402.1 408.2 402.1 321.5 " class="c"/><polygon points="402.1 321.5 402.1 408.2 414 402.7 414 316.9 " class="d"/><polygon points="446 300.5 446 385.9 453.5 388.8 453.5 302.2 " class="c"/><polygon points="453.5 302.2 453.5 388.8 465.5 383.4 465.5 297.6 " class="d"/><path d="M376.8 362c0 0 0 3.3-1 4.1 -1 0.8-8.6 5.2-14.5 4s-11.5-7-14.6-7.3 -12.6-1.2-19.4-5c-6.8-3.9-9.6-8-9.6-10.5 0-2.5 1.2-4 1.2-4s26.9 14.3 39.6 17.5C371.1 363.8 376.8 362 376.8 362z" fill="#580D09"/><path d="M331.3 348c0.8 2.7 23.3 5.5 29.6 6.7 6.3 1.3 15.3-6.7 15.3-6.7 -0.7-5.5-1.7-11.4-2.2-14.5 -1-6.1 1-24.1 0-37.3 -1-13.2-4.5-49.6-4.5-49.6s-19.5-6.2-29.1-1.8c-9.6 4.4-9.6 27.3-4.8 45.1 4.8 17.8 19.3 47.2 16.8 50.3 -1.8 2.3-7.6 1.6-12.5 0.4C331.4 339.5 330.4 345.3 331.3 348z" fill="#D09B75"/><path d="M323.3 338.1c-2.7 2.5-7.1 6.1-3.8 10.7 3.4 4.6 10.9 9 16.4 10.3 5.5 1.3 12 1 14 2.7s9.2 7.8 15.7 6.1c6.5-1.7 11.1-3.4 11.5-7.5 0.2-2.1-0.3-7.1-1-12.4 0 0-9 8-15.3 6.7 -6.3-1.3-28.7-4-29.6-6.7s0.1-8.4 8.4-7.4c-1.9-0.5-3.7-1-5.1-1.5C329.6 337.5 326 335.6 323.3 338.1z" fill="#BE392E"/><path d="M360.5 369.8c0 0 0 3.3-1 4.1 -1 0.8-8.6 5.2-14.5 4s-11.5-7-14.6-7.3c-3-0.3-12.6-1.2-19.4-5 -6.8-3.9-9.6-8-9.6-10.5s1.2-4 1.2-4 26.9 14.3 39.6 17.5C354.9 371.6 360.5 369.8 360.5 369.8z" fill="#681D19"/><polygon points="348.8 295.2 404 308.7 465.5 289.9 419.3 283.2 " fill="#B78F5E"/><path d="M471.5 99.2c0 0-1.3-9.9 8.9-10.5 10.2-0.7 19.6 3.6 21-2.8 1.3-6.5-5.8-3.4-5.8-3.4s5.7-2.7 7.5-0.3 4 7 1.3 8.9c-2.7 1.9-4 1.9-4 1.9s6.9-1.6 11.2 1.3c4.3 2.9 8.4 6.9 8.4 6.9s-3-2-5.7-0.9c-2.7 1.1-5.1 3.2-5.1 3.2l4.4-1.3c0 0-2.5 2.9-3.8 5.3s-0.5 5.4-5.3 9c-4.8 3.6-7.7 3.6-7.7 3.6s8.8 0.2 11.7-3 4.8-4.3 4.8-4.3 -2.2 2.9-2.8 3.8c-0.7 0.9 0.6 4-3 6.1 -3.6 2.1-7.5 2.3-7.5 2.3s7 3 8.9 7.1c1.9 4.1-1.8 6.1-1.8 6.1s1.7-3.3 0.5-4.2c-1.2-0.9-3.8-3.8-7.6-1.4 -3.8 2.4-8.7 6.7-15.9 2.9 -7.2-3.7-8.1-9-8.1-9s0.5 8.5 5.5 9.8c5 1.4 7.9 1.1 7.9 1.1s-6.6 5.4-11.8 0.3c-5.2-5.1-4.8-10.3-4.8-10.3s-4.1-0.8-2.8 2.7c1.2 3.5 3.2 3.6 3.2 3.6s-3-0.2-5.3-3.2c-2.3-3-3-6.2-0.5-8.6C469.8 119.5 471.5 99.2 471.5 99.2z" class="e"/><path d="M394 58.7c0 0-23.5 8.8-31.8 23.7 -8.3 14.9-3.6 19.1-5.8 25.7 -2.2 6.6-10.6 5.1-12.1 6.5 -1.5 1.4-1.7 5.2 1.1 7.4s5 2.7 5.2 4.5c0.2 1.8-5.8 16.6 7.1 27.8 12.8 11.3 27 11.5 27 11.5s27.2 3.4 35.2-5.4c8-8.8 35.9-36.6 15.2-67.9C414.3 61.2 394 58.7 394 58.7z" class="b"/><path d="M377.1 113.2c0 0 1.8 3.8-2.3 7.7 -4.1 4-8.8 1.1-9.5 0.1 -0.7-1-1.3-1.7-0.3-2.3S377.1 113.2 377.1 113.2z" fill="#C98F65"/><path d="M377.1 115c0 0-0.8 6.2-6.1 6.7 -5.3 0.5-6.3-2.9-6.3-2.9s-2-3.7-1.4-9.3c0.5-5.6 2.2-6.9 2.2-6.9s6.9-1 9.1 3.8c2.3 4.8 2.4 6.8 2.4 6.8L377.1 115z" class="f"/><path d="M377.1 115c0 0-1-6.9-4.8-9.4 -3.8-2.5-8.5 1.2-10.7-2.2 -2.2-3.4-1.3-3.8-1.3-3.8s3.7 1.7 7 1.8c3.3 0 6.7 1.6 8.3 4.9S377.1 115 377.1 115z" class="g"/><path d="M364 105.6c0 0 6-2.2 7.5 6.3 1.5 8.4-5.9 8.3-5.9 8.3s-2.3-1.2-2.6-7.1S364 105.6 364 105.6z" fill="#8DD83D"/><path d="M363.3 107.6c0 0 4.1-0.8 5.2 5.2 1.1 6.4-4.2 5.8-4.2 5.8s-1.2-1.3-1.6-5.4S363.3 107.6 363.3 107.6z" class="g"/><circle cx="368.1" cy="109.8" r="1.6" class="f"/><path d="M365 137.6c0-0.1 0.1-0.1 0.1-0.2 0.1-0.2 0.1-0.4 0-0.6 0-0.1-0.1-0.2-0.1-0.3 0 0 0 0 0 0 0 0 0 0-0.1-0.1 -0.2-0.3-0.6-0.4-1-0.2 -0.6 0.3-0.6 1.1-0.1 1.5 -1.2 2.8-3.2 5.1-6.3 6 -2.7 0.8-4.8 0-7.4-0.8 0.1 0.2 0.1 0.4 0.2 0.6 2.2 1.9 5.3 1.6 7.9 0.8C361.4 143.3 364.1 140.7 365 137.6z" class="g"/><path d="M466.7 98c0 0 6.8-5.2 9.2 8.5 2.4 13.7-2.4 18.2-7.1 18.4 -4.7 0.1-5.9-0.9-5.9-0.9l2.3-25.4L466.7 98z" fill="#85B730"/><polygon points="433.2 68.5 433.2 68.5 433.2 68.5 " fill="#A3733A"/><path d="M375.4 98.1c0 0-3.6-5.1-8.2-6.8 -4.6-1.6-8 0.2-1.1 2.8C373 96.8 375.4 98.1 375.4 98.1z" class="g"/><path d="M315.1 355.7c0.8 2.7 23.3 5.5 29.6 6.7 6.3 1.3 15.3-6.7 15.3-6.7 -0.7-5.5-1.7-11.4-2.2-14.5 -1-6.1 1-24.1 0-37.3 -1-13.2-4.5-49.6-4.5-49.6s-19.5-6.2-29.1-1.8c-9.6 4.4-9.6 27.3-4.8 45.1 4.8 17.8 19.3 47.2 16.8 50.3 -1.8 2.3-7.6 1.6-12.5 0.4C315.2 347.3 314.2 353 315.1 355.7z" class="b"/><path d="M307.1 345.9c-2.7 2.5-7.1 6.1-3.8 10.7s10.9 9 16.4 10.3 12 1 14 2.7c2.1 1.7 9.2 7.8 15.7 6.1s11.1-3.4 11.5-7.5c0.2-2.1-0.3-7.1-1-12.4 0 0-9 8-15.3 6.7 -6.3-1.3-28.7-4-29.6-6.7s0.1-8.4 8.4-7.4c-1.9-0.5-3.7-1-5.1-1.5C313.4 345.2 309.8 343.4 307.1 345.9z" class="h"/><polygon points="348.8 303.5 348.8 388.8 356.4 391.7 356.4 305.1 " class="c"/><polygon points="356.4 305.1 356.4 391.7 368.3 386.3 368.3 300.5 " class="d"/><polygon points="465.5 289.9 465.5 305.2 404.2 326 404.2 308.7 " fill="#9B794C"/><polygon points="404.2 326 348.8 311.1 348.8 295.2 404.2 308.7 " fill="#82633F"/><path d="M347.2 246.6c0 0-9.3 3.5-11.8 15.7 -2.5 12.2 5.9 27.7 7.5 31.1 1.6 3.3 8.2 4.9 10.7 4.9 2.6 0 5.1-2.6 5.1-2.6s-1-0.5 2.4 0 5.2 0 5.2 0 24.2 5.2 41.5 2.6c17.3-2.6 29.6-6.3 33.4-11.4s0-34.8 0-34.8L375.5 246.6l-11.1-1.4L347.2 246.6z" fill="#6D5554"/><path d="M415.3 168.6c0 0 3.6 2.7-5.2 5.8 -8.8 3.1-24.2 8-26 6.9 -1.8-1.1 1.3-5.6 1.3-5.6s-5.5 4.6-10.6 14.5c-5.2 9.9-4.4 35.1-3.2 45.9 1.2 10.8 0.4 14.7 2.3 17.6s15 12 38.8 9.4c23.8-2.7 30.5-7.7 30.5-11.2 0-3.5-1.5-44.3-13.1-65.1 -11.6-20.8-15.4-21.9-15.4-21.9L415.3 168.6z" fill="#EA8F88"/><path d="M368.8 216.9c0 0-12.6 16.5-14.7 16.6 -2.2 0.1-25.1-13.5-25.6-15.1 -0.5-1.5 0.6-8 0.1-10.8s-5.8-4.2-6.5-5.1c-0.7-0.9-2.6 0.1-1.7 1.7 0.9 1.6 2.2 2.7 2 4.3 -0.2 1.6-2.2 4.7-5.2 4.3 -3-0.4-13.4-4.2-15.5-6 -2.1-1.8-2.5-3.4-3.2-2.3 -0.7 1.1-0.1 3.7 0.9 4.9 1 1.2 1.6 2.2 1.9 2.9 0.2 0.8 3.7 7.9 5.4 9.9 1.7 2 13.1 5.8 14.1 7.3 1 1.5 27.7 25 38.8 24.8 11.1-0.2 27.6-25.3 27.6-25.3L368.8 216.9z" class="b"/><path d="M364.3 221.3c0 0 13.7-41.7 32.2-36.8s6.5 28.9 1.8 36c-4.7 7.2-12.1 14.3-12.1 14.3L364.3 221.3z" fill="#ED5E4F"/><path d="M367.9 216.9c0 0-0.8-2.3-2.9-0.8 -2.1 1.6-2 5.2-3.6 6.5 -1.6 1.3-3.8 3.5-3.5 5.2s3.1 7.1 10.3 9.7 12.6 4.2 14.1 3.2 1.7-2.9 4.5-5.1c2.8-2.3 3.3-3.6 3.3-4.2s-0.6-0.7-0.6-0.7 -7 0.4-14.5-4.5C367.3 221.2 367.9 216.9 367.9 216.9z" class="h"/><path d="M412.3 172c0.9 2.7 0.8 4 0.8 4s1.7-3.3 0.1-5.6c-1.3-1.8-4.2-3.1-5.4-3.6 -0.3-0.1-0.5-0.2-0.5-0.2s0.2 0.1 0.5 0.2c3.7 1.3 27.9 8.7 48-16.7 21.8-27.5 12.1-50.7 12.1-50.7s0-1.6-0.2-4.1c-0.5-4.9-2-13.6-7.1-21.9l0 0c-3.3-5.3-8-10.5-14.8-14.4 -4.3-2.5-8.5-4.1-12.3-5.1 -16.3-4.2-27 3.2-27 3.2s-0.2-1.7 2.2-4c2.4-2.3 3.8-1.9 3.8-1.9s-2.1-0.9-4.9 1.6c-2.8 2.6-4.3 6.4-4.3 6.4s2.2-14.5-9.3-15.9c-11.5-1.4-12.7 4-12.7 4s10.7-7 13.9-1.1c3.2 5.9 3 9.7 3 9.7s-2.6-1.8-7-2.9c-6-1.6-15.5-1.9-26.6 4.9 -1.2 0.7-2.2 1.5-3.3 2.2 -16 11.5-16.2 25.2-16.2 25.2l8.5 4.5c0 0 2.5-8.7 6.3-12.5 3.8-3.8 6-4.6 6-4.6s-7 7.4-8 11.5 -1.7 8-1.7 8 13.7 7.9 23.7 11c10 3.1 11.2 3 11.2 3l3.3-9.7c0 0 4.3 20.3 0.5 35.5 -3.8 15.2-11.4 21.4-11.4 21.4s12 0.1 17.7-7.1c5.7-7.1 7.3-14.2 7.3-14.2s-0.6 5.8-2.7 10.1c-2.1 4.3-4.2 5.8-4.2 5.8s8.7-2.1 13-9.6c4.3-7.6 4.9-8.9 4.9-8.9s8.6-5.9 9.8 6.2c1.1 12.1-13.8 12.9-13.8 12.9s1 5.5-2.2 9.8c-3.3 4.3-9.6 7.9-9.6 7.9s3.1 3.4 3 7.6c-0.1 4.1-4 3.7-4 3.7s5.5 2.3 6.1-2.2c0.6-4.5-3.1-7.5-3.1-7.5S411.4 169.2 412.3 172z" class="e"/><path d="M337.2 203.3c0 0-0.4 1.2-0.3 1.3 0.1 0.2 1.2-0.7 1.2-0.7l0.8-0.8 -0.9-0.6L337.2 203.3z" class="i"/><rect x="351.6" y="155.2" transform="matrix(0.8334 0.5526 -0.5526 0.8334 157.6218 -164.9374)" width="1.6" height="47.7" fill="#45752C"/><rect x="352.9" y="156" transform="matrix(0.8331 0.5532 -0.5532 0.8331 158.5576 -165.6506)" width="1.6" height="47.7" class="i"/><rect x="354.3" y="156.9" transform="matrix(0.8334 0.5527 -0.5527 0.8334 159.0485 -166.1125)" width="1.6" height="47.7" fill="#7AB554"/><polygon points="338.6 198.4 337.2 203.3 338.2 203.3 337.9 203.8 338.4 203.5 338.1 203.9 342.5 201.1 " fill="#9B865C"/><path d="M357.4 183.9c0 0-6.2 0.2-7.2 1 -1 0.8-3.5 2.9-5.1 3.3 -1.7 0.3-3.5 0.8-2 2.3s3.9 0.3 5.1 0.5c1.3 0.2 3.1 0.1 6.7 0.6s5.9-0.7 5.6-3.9C360.2 184.6 357.4 183.9 357.4 183.9z" fill="#E2BA9F"/><path d="M351.5 220.7c-3.2-4.2-8.2-5.3-12.7-7.7 -5.3-2.7-7.6-7.4-9.1-12.9 -0.7-2.4-1.2-4.9-1.8-7.3 0.2-0.1 0.4-0.2 0.5-0.5 1-2.5 0.4-5.6-0.1-8.2 -0.5-2.9-1.4-5.6-2.6-8.3 -0.3-0.7-1.5-0.2-1.2 0.5 0.9 2.7 1.5 5.4 1.8 8.2 0.2 1.4 0.1 2.9 0.2 4.3 -0.5-0.8-1.2-1.4-2.3-1.5 -1.9-0.2-3.6 1-5.1 2.3 0.6-2.7-0.4-6.1-0.8-8.9 -0.4-3-0.6-6.1-1.3-9 -0.2-0.7-1.2-0.5-1.3 0.2 -0.2 3.2 0.3 6.5 0.5 9.6 0.2 2.7 0 6 1.1 8.5 0.1 0.3 0.4 0.5 0.8 0.5 -0.3 0.3-0.6 0.5-0.8 0.7 -3 2.5-6.2 4.8-8.9 7.5 -0.4 0.4-0.2 1 0.1 1.2 -0.4 0.1-0.7 0.1-1.1 0.2 -0.5 0.1-0.3 0.8 0.2 0.7 3.8-0.5 6.3 1.3 9.5 2.8 0.9 0.4 1.8-0.6 1.1-1.4 -2.1-2.3-5.5-2.7-8.6-2.4 2.5-1.7 4.9-3.6 7.2-5.5 1.3-1 2.6-2.1 3.9-3.1 1.6-1.3 3.6-2.6 4.4 0.5 1.3 4.6 1.9 9.4 3.7 13.9 1.6 4 4.1 7.4 7.9 9.5 4 2.2 9.3 3.1 12.2 6.9C350.1 223.7 352.6 222.2 351.5 220.7z" class="j"/><path d="M358.8 205.9c-3.1-1.4-6.3 2-7.5 4.6 -0.9 2.1-1.8 7.8 1.3 8.6 0.5 0.1 1.1-0.2 1.2-0.7 0.2-1.1-0.4-1.8-0.6-2.8 -0.3-1.3-0.1-2.6 0.4-3.9 0.4-1.1 1.1-2.2 2.1-3 1-0.9 2.2-1.2 3.2-2.1C359.1 206.4 359.1 206 358.8 205.9z" class="j"/><path d="M311.9 182.2c-0.2-2.8-0.3-5.6-0.2-8.4 0-0.6-0.9-0.6-0.9 0 -0.3 3.1-0.5 6.1-0.5 9.2 0 2.6 0 5.5 1 7.9 0.3 0.8 1.3 0.3 1.4-0.4C312.9 187.8 312.1 184.9 311.9 182.2z" class="j"/><path d="M336.4 187.2c-0.2-3.1-0.4-6.3-0.8-9.4 -0.1-0.7-1.2-0.5-1.3 0.2 -0.1 3.2 0.1 6.4 0.3 9.6 0.1 2.9 0 6.1 0.9 9 0.2 0.4 0.9 0.5 1 0C337.1 193.5 336.6 190.3 336.4 187.2z" class="j"/></svg>