<svg version="1.1" id="Layer_1" xmlns="http://www.w3.org/2000/svg" xmlns:xlink="http://www.w3.org/1999/xlink" x="0px" y="0px"
	 viewBox="0 0 768 430" enable-background="new 0 0 768 430" xml:space="preserve">
<g>
	<path fill="#2B0606" d="M411.59,108.297c-3.887-12.294-3.976-45.67-3.964-51.224c2.238-2.107,3.657-5.16,3.657-8.568
		c0-6.357-4.906-11.508-10.962-11.508h-28.977c-6.055,0-10.962,5.151-10.962,11.508c0,3.409,1.42,6.461,3.662,8.568
		c0.011,5.553-0.083,38.93-3.969,51.224c-7.148,22.621-15.004,28.939-21.092,65.761l0,0h93.701
		C426.597,137.236,418.739,130.918,411.59,108.297z"/>
	<path fill="#2B0606" d="M345.013,317.241c-0.224,10.48-7.024,24.839-9.196,33.155c-1.118,4.295-1.118,7.994-0.314,11.137
		c2.562,10.041,9.563,14.76,18.232,14.76l32.098,1.1l32.1-1.1c8.675,0,15.671-4.719,18.233-14.76
		c0.803-3.143,0.803-6.842-0.315-11.137c-2.168-8.316-8.973-22.675-9.195-33.155c-0.279-12.933,3.657-38.195,6.627-61.607h-94.896
		C341.351,279.046,345.291,304.309,345.013,317.241z"/>
	<path fill="#B91476" d="M432.685,176.556c-8.826,0-83.028,0-94.055-0.021c-2.059,8.064-3.002,18.326-3.247,22.057
		c-0.616,9.562,0.802,37.189,3.002,54.546h94.896c0.354-2.812,3.721-43.67,2.77-55.203
		C435.598,192.422,435.354,188.035,432.685,176.556z"/>
</g>
</svg>
