<svg version="1.1" xmlns="http://www.w3.org/2000/svg" xmlns:xlink="http://www.w3.org/1999/xlink" viewBox="0 0 768 430" style="enable-background:new 0 0 768 430;" xml:space="preserve"><g id="drink"> <g>  <path style="fill:none;" d="M362.246,158.349c-2.704-1.942-5.977-3.795-10.011-5.737c-0.566-0.81-1.376,1.42-1.895,6.878 c-0.573,5.405-1.375,13.661-1.901,25.331c3.654-2.42,6.928-5.358,10.343-8.821c3.322-3.562,6.45-7.591,9.583-12.289 C366.938,161.91,364.9,160.247,362.246,158.349z"/>  <path style="fill:none;" d="M374.247,165.892c-0.202,0.271-0.183,0.438,0.057,0.504c-0.02-0.163-0.037-0.336-0.057-0.496V165.892z "/>  <path style="fill:none;" d="M369.738,169.784c-1.326,1.756-4.078,4.553-8.439,8.393c-4.416,3.845-10.109,8.401-17.46,14.236 c-2.182-4.649-4.367-10.294-7.119-17.46c-2.703-7.163-5.786-15.511-9.059-25.238c1.85,16.7,2.659,35.536,2.609,57.593 c-0.097,22.062-1.233,46.207-3.229,73.722c10.157,7.166,18.646,13.144,25.857,18.12c7.162,4.937,12.713,8.829,16.84,11.675 c1.664-16.748,2.517-36.624,2.566-60.209c-0.049-23.76-0.902-50.272-2.566-80.823V169.784z"/>  <path style="fill:none;" d="M374.304,166.396c1.288,10.931,1.798,27.947,1.885,51.919c-0.093,24.339-0.615,54.748-1.942,92.514 c9.016-1.425,21.159-5.317,37.526-11.675c16.414-6.498,35.771-15.085,59.539-26.516c0.615-14.803,1.045-33.78,1.279-58.213 c0.195-24.574,0.195-53.134,0-87.339c-34.298,14.754-59.158,25.145-75.669,31.692 C383.074,164.206,375.573,166.743,374.304,166.396z"/>  <path style="fill:none;" d="M346.876,150.661c-2.99-2.796-6.122-5.261-9.585-6.879c-3.605-1.659-7.07-2.986-11.1-3.46 c1.942,2.659,4.552,7.636,7.635,15.324c2.991,7.64,6.641,17.554,10.768,30.317c-0.187-5.269,0-10.538,0.38-16.51 C345.355,163.423,345.926,157.402,346.876,150.661z"/>  <polygon style="fill:none;" points="498.822,74.567 498.823,74.569 498.829,74.567   "/>  <path style="fill:none;" d="M496.122,77.699c-0.521,1.613-0.853,3.937-0.618,6.784c2.137-1.187,3.56-2.371,4.082-4.082 c0.515-1.707,0.327-3.651-0.763-5.833C497.545,74.952,496.644,75.995,496.122,77.699z"/>  <path style="fill:none;" d="M496.604,73.809H496.6c-5.167-2.229-10.201-4.318-15.798-6.453 c-5.645-2.371-12.758-4.554-17.313-6.356c-4.557-1.757-7.26-3.843-9.777-3.891c-2.654-0.19-3.221-1.091-5.737,2.99 c-2.752,3.983-6.64,12.097-9.631,21.064c-2.938,8.823-5.552,19.403-7.825,31.926c0.093,1.281,0.376,2.229,1.374,2.847 c0.758,0.616,2.228,0.758,3.89,0.616c0.708-2.893,1.753-7.02,3.323-12.192c1.472-5.312,2.893-13.14,5.551-19.26 c2.465-6.169,5.737-12.146,9.631-17.745c-1.995-0.617-3.273-0.949-4.035-1.517c-0.757-0.618-1.044-1.613-0.331-1.52 c0.57,0.144,1.994,0.617,4.079,1.946c-0.284-1.897-0.377-3.083-0.284-3.749c0-0.759,0.426-0.522,0.757,0 c0.194,0.522,0.43,1.519,0.713,3.178c2.658-2.181,4.175-3.13,4.366-3.035c0.189,0.046-0.807,1.137-2.991,3.462 c-0.093,1.139,3.083,3.085,9.348,6.025c6.357,2.895,15.611,6.595,28.276,11.291c-0.238-2.797-0.146-5.076,0.283-6.642 C494.848,75.138,495.561,74.14,496.604,73.809z"/>  <path style="fill:none;" d="M438.197,115.653c1.947,1.708,2.323,2.608,0.761,3.083c-1.708,0.284-7.4-0.095-9.962-0.761 c-2.656-0.615-5.363-2.561-5.363-3.083c-0.093-0.664,1.66-0.805,5.079-0.615c-0.096-0.19-0.096-0.761,0-1.188 c0.049-0.568,0.187-0.378,0.615-1.993c0.381-1.707,1.044-4.459,1.805-8.255l-6.361-3.698 c-10.719,4.411-22.296,9.013-34.913,14.326c-12.859,5.172-30.979,13-40.657,16.888c-9.68,3.796-14.944,5.647-16.511,5.742 c2.704,0.191,5.455,1.044,8.445,2.562c2.99,1.517,5.883,3.701,9.205,6.545c15.134-4.411,23.058-6.26,24.146-5.737 c0.951,0.473-4.932,3.415-18.027,8.821c1.474,0.526,3.463,1.664,6.167,3.796c2.655,2.087,5.98,4.839,9.962,8.449 c27.468-9.825,48.725-17.509,65.232-23.771c16.271-6.262,26.946-10.674,32.215-13.426l-29.56-16.509L438.197,115.653z"/>  <path style="fill:#DDE4D0;" d="M499.591,73.903c-15.944-6.832-27.756-11.67-35.966-14.707c-8.205-3.227-9.201-5.408-13.045-3.464 c-4.031,2.088-7.163,7.733-10.294,15.466c-3.177,7.639-5.929,17.458-8.441,29.984l-7.117-5.171 c-25.433,9.582-46.207,17.505-63.429,23.957c-17.174,6.357-29.936,11.102-38.81,14.233c1.994,34.539,3.132,63.236,3.225,87.955 c0.097,24.575-0.757,43.506-2.558,58.259l0.009,0.012c8.538,7.498,16.889,13.997,25.225,20.058 c8.397,5.98,16.413,10.958,24.574,15.516c13.714-3.371,28.893-8.167,45.923-14.898c17.08-6.734,35.205-15.087,55.648-25.24 c1.331-35.102,2.039-64.803,1.95-90.563c-0.195-25.763-0.996-46.306-2.614-62.72l-32.874-17.79 c1.044-6.737,2.518-12.904,5.123-19.214c2.468-6.213,5.602-12.334,9.583-18.171c4.506,3.273,10.058,6.12,16.84,9.252 c6.742,2.988,14.378,5.789,23.296,8.587c2.752-1.613,4.46-3.274,5.127-5.172C501.629,78.126,501.104,76.134,499.591,73.903z  M344.595,185.963c-4.127-12.763-7.777-22.677-10.768-30.317c-3.083-7.688-5.693-12.666-7.635-15.324 c4.029,0.474,7.494,1.801,11.1,3.46c3.464,1.619,6.596,4.083,9.585,6.879c-0.951,6.741-1.521,12.762-1.901,18.792 C344.595,175.425,344.408,180.694,344.595,185.963z M369.738,310.824c-4.127-2.846-9.678-6.738-16.84-11.675 c-7.211-4.977-15.7-10.954-25.857-18.12c1.995-27.516,3.131-51.66,3.229-73.722c0.049-22.057-0.76-40.894-2.609-57.593 c3.273,9.728,6.356,18.075,9.059,25.238c2.752,7.166,4.938,12.811,7.119,17.46c7.352-5.835,13.045-10.391,17.46-14.236 c4.361-3.84,7.114-6.636,8.439-8.393v0.008c1.664,30.55,2.517,57.063,2.566,80.823C372.255,274.2,371.402,294.076,369.738,310.824 z M348.438,184.821c0.527-11.67,1.328-19.926,1.901-25.331c0.519-5.458,1.328-7.688,1.895-6.878 c4.034,1.942,7.308,3.795,10.011,5.737c2.654,1.897,4.693,3.561,6.119,5.362c-3.133,4.698-6.26,8.728-9.583,12.289 C355.367,179.463,352.092,182.401,348.438,184.821z M472.592,214.425c-0.234,24.433-0.664,43.41-1.279,58.213 c-23.769,11.431-43.125,20.018-59.539,26.516c-16.367,6.357-28.511,10.25-37.526,11.675c1.327-37.766,1.849-68.175,1.942-92.514 c-0.087-23.972-0.597-40.988-1.885-51.919c-0.24-0.065-0.259-0.233-0.057-0.504v0.008c0.02,0.16,0.037,0.333,0.057,0.496 c1.269,0.348,8.77-2.19,22.619-7.617c16.511-6.547,41.371-16.938,75.669-31.692C472.787,161.291,472.787,189.851,472.592,214.425z  M470.035,123.337c-5.269,2.752-15.943,7.164-32.215,13.426c-16.508,6.262-37.765,13.946-65.232,23.771 c-3.982-3.61-7.308-6.362-9.962-8.449c-2.704-2.132-4.693-3.27-6.167-3.796c13.095-5.406,18.978-8.348,18.027-8.821 c-1.088-0.522-9.011,1.327-24.146,5.737c-3.322-2.844-6.215-5.028-9.205-6.545c-2.99-1.518-5.742-2.371-8.445-2.562 c1.567-0.095,6.831-1.946,16.511-5.742c9.678-3.888,27.798-11.716,40.657-16.888c12.617-5.312,24.194-9.915,34.913-14.326 l6.361,3.698c-0.761,3.796-1.424,6.548-1.805,8.255c-0.429,1.615-0.566,1.424-0.615,1.993c-0.096,0.427-0.096,0.998,0,1.188 c-3.419-0.19-5.172-0.049-5.079,0.615c0,0.522,2.707,2.469,5.363,3.083c2.562,0.666,8.254,1.044,9.962,0.761 c1.562-0.476,1.187-1.375-0.761-3.083l2.278-8.825L470.035,123.337z M494.184,83.439c-12.665-4.696-21.919-8.396-28.276-11.291 c-6.265-2.94-9.44-4.887-9.348-6.025c2.185-2.325,3.181-3.416,2.991-3.462c-0.191-0.095-1.708,0.854-4.366,3.035 c-0.283-1.659-0.519-2.656-0.713-3.178c-0.331-0.522-0.757-0.759-0.757,0c-0.093,0.666,0,1.851,0.284,3.749 c-2.085-1.329-3.509-1.802-4.079-1.946c-0.713-0.093-0.426,0.902,0.331,1.52c0.762,0.568,2.04,0.9,4.035,1.517 c-3.894,5.599-7.166,11.575-9.631,17.745c-2.658,6.12-4.079,13.948-5.551,19.26c-1.57,5.172-2.615,9.299-3.323,12.192 c-1.662,0.142-3.132,0-3.89-0.616c-0.998-0.618-1.281-1.566-1.374-2.847c2.273-12.523,4.888-23.103,7.825-31.926 c2.991-8.967,6.879-17.081,9.631-21.064c2.517-4.081,3.083-3.181,5.737-2.99c2.518,0.048,5.221,2.134,9.777,3.891 c4.556,1.802,11.669,3.985,17.313,6.356c5.597,2.135,10.631,4.223,15.798,6.453h0.004c-1.043,0.332-1.756,1.329-2.137,2.988 C494.038,78.363,493.945,80.642,494.184,83.439z M499.586,80.402c-0.522,1.71-1.945,2.895-4.082,4.082 c-0.234-2.847,0.097-5.171,0.618-6.784c0.521-1.705,1.423-2.748,2.701-3.13c0-0.001-0.001-0.001-0.001-0.002h0.007 c-0.002,0.001-0.004,0.001-0.006,0.002C499.913,76.751,500.101,78.695,499.586,80.402z"/> </g></g><g id="Layer_1"></g></svg>