<svg xmlns="http://www.w3.org/2000/svg" viewBox="0 0 768 430"><style>.a{fill:#FF7300;}.b{fill:#8C3000;}.c{fill:#FF8B2F;}.d{fill:#FFA92F;}.e{fill:#BF3B00;}.f{fill:#AEAAB2;}.g{fill:#C0BFC1;}.h{fill:#625C6A;}.i{fill:#121515;}.j{fill:#1C1F1F;}.k{fill:#D5D4D6;}.l{fill:#FFF;}.m{fill:#2E6225;}.n{fill:#448736;}.o{fill:#081400;}.p{fill:#DBDAD9;}.q{fill:#00B3FF;}.r{fill:#2EC4FF;}.s{fill:#2E9FFF;}.t{fill:#D87813;}.u{fill:#EB8C12;}.v{fill:#8A2E00;}.w{fill:#FA7263;}.x{fill:#FDDA83;}.y{fill:#FF8207;}</style><path d="M458.2 359c0 0-4.8-6.7 4.5-8.6 0.4-5 3.1-10.5 3.1-10.5 -2.7-0.8-4.6-1-4.8-5 -3.8-0.1-28.9 15.3-28.9 15.3L458.2 359z" class="a"/><path d="M431.1 350.3l0.8-0.5c1-0.6 25.1-15.4 29.1-15.4l0.5 0.5c0.1 3.3 1.5 3.7 3.9 4.4 0.2 0.1 0.9 0.8 0.9 0.8 0 0.1-2.7 5.5-3.1 10.4l-0.4 0.4c-2.8 0.6-4.5 1.6-5.1 3.2 -0.9 2.2 0.9 4.7 0.9 4.7L431.1 350.3zM433.3 350l24 8.1c-0.5-1.1-1-2.8-0.4-4.5 0.7-1.8 2.5-3 5.5-3.7 0.4-4.1 2.2-8.4 2.9-9.9 0 0 0 0-0.1 0 -2.4-0.7-4.2-1.2-4.5-4.8C456.7 336.1 440.4 345.7 433.3 350z" class="b"/><path d="M335.9 350.6c0 0 14 3.2-2.7 15.1 5.2 1.7 11.7 2.8 11.7 2.8 7 0.3 11.6-0.7 11 8.2 4.8-3.8 18-19.5 18-19.5l-8.7-10.6L335.9 350.6z" class="a"/><path d="M355.4 377.8l0.1-1c0.2-2.8-0.3-4.8-1.5-6.1 -1-1-2.4-1.5-4.2-1.5 -1.4 0-11.6-1.3-16.7-2.9l-0.9-0.3 0.8-0.5c5.7-4.1 8.5-7.7 8-10.3 -0.6-2.9-5-4-5.1-4l29.6-4.9 9.1 11.1 -0.2 0.3c-0.5 0.6-13.3 15.8-18.1 19.6L355.4 377.8zM349.8 368.2c2.1 0 3.7 0.6 4.8 1.8 1.2 1.3 1.8 3.2 1.8 5.7 4.8-4.2 15.2-16.4 16.9-18.5l-8.3-10.1 -27.1 3.7c1.5 0.7 3.4 1.9 3.9 4.1 0.6 3-2 6.6-7.6 10.7 4.5 1.5 10.2 1.9 11.1 2.3C347.2 367.2 348.3 368.2 349.8 368.2z" class="b"/><path d="M408.3 325.6c0 0 3.9 12 3.4 15.2 -0.5 3.3-4.7 10.6 4.7 13.7 6.5 1.9 38.2 13.9 41.9 8.6 3-4.7-4.5-9.3-21.8-12.5 4.8-0.3 34.7 3.1 34.6-5.6 -0.2-7.8-13.1-5.1-19-5 7.6-1.6 10-3.7 9-7 -1-3.1-13.4-0.9-33.6 3.9 -1.7-0.9-3-0.5-3-0.5 0-1.5-0.9-2.6-2-3.8 -1.2-1.2-3.3-4-2.1-9.8C418.5 323.2 408.3 325.6 408.3 325.6z" class="c"/><path d="M468.6 344.7c0-7.8-10.6-4.8-16.5-4.7 7.6-1.6 10-3.7 9-7 -1-3.1-13.4-0.9-33.6 3.9 -1.7-0.9-3-0.5-3-0.5 0-1.5-0.9-2.6-2-3.8 -1.2-1.2-3.3-4-2.1-9.8 -0.7 0.2-2.8 0.7-5 1.2 -2.4 2.1-3.7 5.1-0.8 10.4 0.9 2.3 1.7 5.7 2.2 5.7 -1.4 3.7-5.6 10.7-0.5 11.7 1.9 0.3 3.5 0.9 5 1.6 5.6 1.1 10.8 3.6 16.5 4.9 6.4 1.9 15.9 5.9 21 1.9 -1.1-3.6-8.6-7.1-22.3-9.6C448.7 346.2 468.6 349.6 468.6 344.7z" class="d"/><path d="M454 364.9c0 0 0 0 0 0 -7.8 0-23-5.1-32-8.1 -2.5-0.8-4.5-1.5-5.6-1.8 -8.2-2.7-6.5-8.7-5.5-12.3 0.2-0.8 0.4-1.4 0.5-2 0.4-3.1-3.4-14.9-3.4-15l-0.2-0.5 0.5-0.1c0.1 0 10.2-2.4 12.1-2.8l0.7-0.2 -0.1 0.7c-1.2 6 1.2 8.6 2 9.4 1 1.1 1.9 2.2 2.1 3.6 0.5 0 1.5 0 2.6 0.6 15.7-3.7 24.4-5.3 29.3-5.3 2.9 0 4.4 0.6 4.8 1.8 0.4 1.3 0.3 2.4-0.3 3.4 -0.7 1.2-2.1 2.2-4.4 3 1.5-0.1 3.2-0.2 4.8-0.2 2.4 0 9.8 0 9.9 6 0 1.1-0.4 2.1-1.2 2.9 -2.4 2.4-8.4 3.6-18.5 3.6 -3.7 0-7.2-0.1-10.1-0.3 9.9 2.2 15.8 5.1 17.3 8.3 0.6 1.3 0.4 2.5-0.4 3.8C458 364.4 456.4 364.9 454 364.9zM408.9 326c0.7 2.3 3.7 12 3.3 15 -0.1 0.6-0.3 1.3-0.5 2.1 -1 3.7-2.4 8.7 4.9 11.1 1.2 0.3 3.1 1 5.7 1.8 9 3 24.1 8.1 31.7 8.1 0 0 0 0 0 0 2.1 0 3.4-0.4 4-1.1 0.6-1 0.7-1.9 0.3-2.9 -1.5-3.4-9.3-6.6-21.8-8.8l-3.8-0.7 3.8-0.2c1-0.1 2.9 0 5.4 0.1 2.9 0.1 6.4 0.3 10 0.3 9.6 0 15.6-1.1 17.8-3.3 0.6-0.6 0.9-1.4 0.9-2.2 -0.1-3.5-2.9-5.1-9-5.1 -2 0-4.1 0.2-6 0.3 -1.3 0.1-2.5 0.2-3.6 0.2l-0.1-0.9c4.8-1 7.6-2.2 8.5-3.8 0.4-0.7 0.5-1.6 0.2-2.6 -0.2-0.7-1.6-1.1-3.9-1.1 -4.8 0-13.5 1.6-29.2 5.3l-0.2 0 -0.2-0.1c-1.5-0.8-2.6-0.5-2.6-0.5l-0.6 0.2 0-0.6c0-1.2-0.7-2.2-1.9-3.5 -0.8-0.9-3.3-3.5-2.3-9.5C417.3 324 410.8 325.5 408.9 326z" class="e"/><path d="M364.9 324.5c0 0 6.7 13.8 4.9 16.3 -1.2 2-0.9 3.4-0.9 3.4 -1.7-0.8-3.3-0.2-5.8 1 -2.3 0.9-29.6 0.4-29 5.8 0.7 4.2 19.5 0.1 25.5-0.9 -6.3 3-32.7 13.3-27.8 20.5 3.3 5 25.2-7.3 33.4-11.7 -5.4 5.4-12.8 16.3-9.8 20 3 3.6 12.3-3.5 26.9-21.5 6.9-4.7 8.6-9.3 3.7-14.5 -4.9-5.1-7.1-12.5-9.2-17.9C371.5 324.5 364.9 324.5 364.9 324.5z" class="c"/><path d="M365.4 372.8c5.6-4.7 10.7-10.3 14.5-17.3 0.9-1.9 3.7-2.3 4.2-4.2 2.3-4.2-2.8-5.1-4.2-8.4 -1.4-3.7-0.5-7.9-3.3-10.3 -2.8-2.5-6.7-3.3-10.3-5 1.9 4.2 4.8 11.5 3.5 13.3 -1.2 2-0.9 3.4-0.9 3.4 -1.7-0.8-3.3-0.2-5.8 1 -2.3 0.9-29.6 0.4-29 5.8 0.7 4.2 19.5 0.1 25.5-0.9 -6.3 3-30.1 12.6-25.6 18.5 2.4 3.1 24.4-8.2 31.1-9.7 -4.1 4.1-9.5 11.5-10.3 16.4C353.6 380.3 362.8 374.7 365.4 372.8z" class="d"/><path d="M357.5 380.3L357.5 380.3c-1 0-1.8-0.4-2.4-1.1 -3-3.6 3-12.9 7.9-18.5 -7.6 4.1-21.7 11.6-28.1 11.6 -1.6 0-2.8-0.5-3.4-1.4 -0.7-1-0.9-2.1-0.5-3.3 1.7-6 16.8-12.7 25-16.3 -4.8 0.9-11.7 2.1-16.4 2.1 -3.7 0-5.6-0.7-5.8-2.2 -0.1-0.6 0.1-1.2 0.5-1.6 2.6-3 14.5-3.7 22.4-4.1 3-0.2 5.8-0.3 6.4-0.6 1.7-0.8 3.1-1.4 4.4-1.4 0.4 0 0.7 0 1.1 0.1 0-0.7 0.2-1.7 0.9-3l0 0c1.2-1.7-2.4-10.6-4.9-15.9l-0.3-0.7 0.8 0c0.1 0 6.7 0 12 0.6l0.3 0 0.1 0.3c0.3 0.8 0.6 1.7 1 2.6 1.8 4.8 4.1 10.9 8.2 15.2 2.2 2.3 3.1 4.5 2.9 6.8 -0.3 2.8-2.5 5.6-6.6 8.4C370.5 372.8 362 380.3 357.5 380.3zM367.7 357.1l-2.2 2.2c-5.8 5.8-12.4 16.1-9.7 19.3 0.4 0.5 1 0.7 1.7 0.7l0 0c2.4 0 8.7-2.9 24.4-22.2l0.1-0.1c4-2.7 6-5.2 6.3-7.8 0.2-2-0.7-3.9-2.6-6 -4.2-4.4-6.5-10.6-8.4-15.5 -0.3-0.8-0.6-1.6-0.9-2.3 -4.1-0.4-9-0.6-10.8-0.6 1.4 3 6.2 13.7 4.6 16.1 -1 1.8-0.8 3.1-0.8 3.1l0.2 0.9 -0.8-0.4c-1.5-0.7-3-0.1-5.4 1 -0.7 0.3-2.8 0.4-6.7 0.6 -7.3 0.4-19.4 1.1-21.7 3.8 -0.2 0.3-0.4 0.6-0.3 0.9 0.2 0.9 1.9 1.4 4.9 1.4 5 0 12.3-1.3 17.1-2.2 1.2-0.2 2.2-0.4 2.9-0.5l3.3-0.6 -3 1.4c-0.8 0.4-1.9 0.9-3.3 1.5 -7.5 3.3-23.1 10.2-24.7 15.8 -0.3 0.9-0.1 1.7 0.4 2.5 0.4 0.7 1.3 1 2.6 1 6.3 0 20.3-7.5 27.8-11.5 0.9-0.5 1.7-0.9 2.3-1.3L367.7 357.1z" class="e"/><path d="M352.7 291.3c0 0-5.6 27.4 13.1 36.4 9.3 4.7 21.8-6.5 21.8-6.5L352.7 291.3z" class="f"/><path d="M369.9 321.7c-9.9-5.9-11.2-16-13.6-27.3l-3.5-3c0 0-5.6 27.4 13.1 36.4 1.2 0.6 2.5 0.9 3.8 1.1 2-0.5 4-1.4 6-2.8C376.6 325.6 371.2 322.4 369.9 321.7z" class="g"/><path d="M370.9 329.4L370.9 329.4c-1.9 0-3.7-0.4-5.2-1.2 -7.8-3.8-12.6-11.4-13.8-22 -0.9-8 0.5-14.9 0.5-15l0.2-0.8 35.9 30.8 -0.4 0.4C387.6 321.9 379.2 329.4 370.9 329.4zM353.1 292.2c-0.7 4.5-3.4 27.2 13 35.1 1.5 0.7 3.1 1.1 4.8 1.1 7 0 14.3-5.7 16-7.2L353.1 292.2z" class="h"/><path d="M340.6 262.1c0 0-28.5 1.1-27.1 5.8 1.4 4.7 13.6 16.1 32.9 6.7C343.4 264.6 340.6 262.1 340.6 262.1z" class="i"/><path d="M340.6 262.1c0 0-24.9 1-27 4.9 8.9 6.1 20.7 5.3 29.7-0.8C341.7 263.1 340.6 262.1 340.6 262.1z" class="j"/><path d="M332.1 278.7C332.1 278.7 332.1 278.7 332.1 278.7c-11.1 0-18-7.1-19-10.7 -0.1-0.5-0.1-1 0.3-1.4 2.8-3.9 24.8-4.9 27.3-5l0.2 0 0.1 0.1c0.1 0.1 2.9 2.7 6 12.7l0.1 0.4 -0.4 0.2C341.6 277.4 336.7 278.7 332.1 278.7zM340.4 262.6c-6.8 0.3-24.2 1.6-26.3 4.6 -0.2 0.2-0.2 0.4-0.1 0.6 1 3.4 7.6 10 18.1 10 4.4 0 9-1.1 13.8-3.4C343.3 266.1 341 263.2 340.4 262.6z"/><path d="M342.9 269c0 0-5.4 6.3-18.5 5.6 -13.1-0.7-19.9-3.3-17.8 1.9 2.1 5.1 23.4 17.5 44.2 6.9C346.7 274 342.9 269 342.9 269z" class="i"/><path d="M342.9 283.1c2.3-0.5 4-2.6 5.3-5.1 -3-5.9-5.3-8.9-5.3-8.9s-5.4 6.3-18.5 5.6c-9-0.5-15-1.8-17.2-1C316.4 283 330 286 342.9 283.1z" class="j"/><path d="M333.5 288L333.5 288c-14 0-25.6-7.3-27.2-11.3 -0.5-1.2-0.5-2.1-0.1-2.8 0.6-0.9 2-1 3.2-1 1.5 0 3.4 0.2 5.9 0.5 2.5 0.3 5.7 0.6 9.2 0.8 0.7 0 1.3 0.1 2 0.1 0 0 0 0 0 0 11.2 0 16.1-5.4 16.1-5.5l0.4-0.4 0.4 0.5c0 0.1 3.8 5.1 8 14.4l0.2 0.4 -0.4 0.2C345.6 286.6 339.7 288 333.5 288zM309.4 273.9c-1.4 0-2.2 0.2-2.5 0.6 -0.2 0.3-0.2 1 0.2 1.9 1.5 3.7 12.9 10.8 26.3 10.8 5.9 0 11.5-1.3 16.8-3.9 -3.4-7.5-6.4-12-7.4-13.4 -1.4 1.3-6.4 5.4-16.4 5.4h0c-0.7 0-1.3 0-2-0.1 -3.6-0.2-6.7-0.5-9.3-0.8C312.7 274.1 310.8 273.9 309.4 273.9z"/><path d="M346.4 210.1c0 0-34.2 19.2-34.2 37.6 0 16.2 20.6 18.6 33.5 24.6C344.3 259.5 346.4 210.1 346.4 210.1z" class="g"/><path d="M329.8 263.4c-8.4-9.8-9.3-22.4-0.9-30.8 7-6.6 15.6-12.7 17.1-22.3 -3.9 2.3-33.7 20.2-33.7 37.4 0 10.7 8.9 15.3 18.7 19C331.1 265.7 330.8 264.7 329.8 263.4z" class="k"/><path d="M318.2 256.4c-2.3-7-0.9-14 3.3-20.6 3.9-5.8 8.4-10.6 11.4-16.7 -9.5 7.3-20.6 18-20.6 28.5 0 8.3 5.4 13 12.3 16.3C324.9 263.5 319.1 258.8 318.2 256.4z" class="l"/><path d="M346.3 273l-0.7-0.3c-2.9-1.4-6.2-2.5-9.7-3.7 -11.8-4.1-24.1-8.4-24.1-21.3 0-18.4 33-37.2 34.4-38l0.7-0.4 0 0.8c0 0.5-2.1 49.6-0.7 62.1L346.3 273zM345.9 210.9c-4.9 2.9-33.2 20.4-33.2 36.8 0 12.2 11.9 16.3 23.4 20.4 3.2 1.1 6.3 2.2 9 3.4C344.1 258.8 345.7 217.4 345.9 210.9z" class="h"/><path d="M450.2 293.5c0 0-1.9 3.4-5.4 4.7 5.8-6.9 4.2-16.8 3.1-15.6 -3.1 5.5-7.2 9.8-10.3 10 1.6-1.7 2.6-7.6 1.9-10.6 -8.4 5.6-12.6 1.7-16.7-6.1 -1.2 2.8-8 36.2-6.5 45.8 2.6-0.9 4.8-1.9 6.6-2.9C453.4 314.6 451.5 291.9 450.2 293.5z" class="i"/><path d="M448.4 295.8c0 0-0.1 1.1-3.6 2.4 2.5-5.4 2.6-14.2 1.5-13 -3.1 5.5-5.6 7.2-8.7 7.4 1.6-1.7 2.6-7.6 1.9-10.6 -8.4 5.6-12.6 1.7-16.7-6.1 -1.2 2.8-8 36.2-6.5 45.8 2.6-0.9 3.7-5.9 5.5-6.8C452.3 310.6 449.7 294.3 448.4 295.8z" class="j"/><path d="M415.8 322.3l-0.1-0.6c-1.5-9.9 5.4-43.3 6.6-46.1l0.4-0.9 0.5 0.9c3.2 6 5.9 8.5 9.3 8.5 2 0 4.2-0.8 6.7-2.5l0.5-0.4 0.2 0.6c0.7 2.7 0 7.5-1.3 10 2.6-0.9 6-4.4 8.9-9.5l0.1-0.1c0.2-0.2 0.4-0.3 0.5-0.3 0.3 0 0.6 0.2 0.8 0.7 0.9 2 1 8.8-2.6 14.3 2.3-1.4 3.5-3.6 3.5-3.7l0-0.1c0.2-0.2 0.4-0.2 0.5-0.2 0.5 0 0.8 0.6 0.9 1.8 0.2 3-0.9 8.1-4.6 12.8 -4.9 6.2-12.9 10.2-23.7 11.7 -1.9 1-4.2 2-6.6 2.8L415.8 322.3zM422.8 277c-1.7 6.1-7.3 34.5-6.3 44 2.2-0.8 4.3-1.7 6-2.6l0.1 0 0.1 0c16.7-2.3 23.4-10 26-16 1.6-3.7 1.7-6.8 1.5-8 -0.7 1.1-2.5 3.3-5.3 4.3l-1.6 0.6 1.1-1.3c4.7-5.6 4.3-13.1 3.7-14.7 -2.8 4.7-6.9 9.7-10.4 9.8l-1.1 0.1 0.8-0.8c1.4-1.5 2.3-6.6 1.9-9.5 -2.5 1.6-4.7 2.3-6.7 2.3C428.1 285.1 425.2 281.3 422.8 277z"/><path d="M444.8 303.9c-0.8 0.5-6.2 2.5-10.9 2.5 0 0 5.3-4.2 6.7-7.9 -5.3 1.8-9.3 0.6-12-1.7 2.8-0.9 5.9-3.4 6.4-6.4 0 0-3.3 0.9-5.6 0 3.1-1.1 5.5-4.1 7-6.7 -7.2 3.1-11-2.3-15.1-10.8 -4.7-9.7-23-38.3-35.2-45.8 -17.8-10.6-17.2-27-17.4-35.4 -14.2 6.5-19.4-1.4-19.4-1.4 -1.2 12.6-6.8 23.4-10.5 34.3 -3.7 11-5.6 32 1.9 46.5 7.5 14.5 11.7 24.4 16.8 33.6 15.9 29.9 52.6 20.8 65.4 14 4.8-0.7 8.9-1.8 12.2-3.2C440.7 311.9 444.1 306.8 444.8 303.9z" class="f"/><path d="M400.4 317.6c3.7-1.9 7.5-6.1 11.7-4.7 7.9 3.3 19.2 4.2 24.3-3.7 -2.8 0.5-5.1-1.9-7.5-2.8 2.8-1.4 5.9-3.9 6.9-7.1 -3 0-5.4-1-7.2-2.6 2.8-0.9 5.9-3.4 6.4-6.4 0 0-3.3 0.9-5.6 0 3.1-1.1 5.5-4.1 7-6.7 -7.2 3.1-11-2.3-15.1-10.8 -4.7-9.7-23-38.3-35.2-45.8 -17.8-10.6-17.2-27-17.4-35.4 -14.2 6.5-19.4-1.4-19.4-1.4 -1.2 12.6-6.8 23.4-10.5 34.3 -3.7 11-5.6 32 1.9 46.5 7.5 14.5 11.7 24.4 16.8 33.6 0.9 1.6 1.8 3.2 2.8 4.6C368.4 318.5 386.9 323.3 400.4 317.6z" class="g"/><path d="M362.1 305c16.4 8.9 34.1 2.3 50.9 0.9 3.3 0 7 1.4 9.3 0 3.5-2.1 6.1-4.9 9.2-7.4 -1.1-0.4-2.1-1.1-3-1.8 2.8-0.9 5.9-3.4 6.4-6.4 0 0-3.3 0.9-5.6 0 3.1-1.1 5.5-4.1 7-6.7 -7.2 3.1-11-2.3-15.1-10.8 -4.7-9.7-23-38.3-35.2-45.8 -17.8-10.6-17.2-27-17.4-35.4 -14.2 6.5-19.4-1.4-19.4-1.4 -1.2 12.6-6.8 23.4-10.5 34.3 -3.7 11-5.6 32 1.9 46.5 4.7 9.1 8.1 16.4 11.3 22.8C355.1 297.8 357.5 302.4 362.1 305z" class="k"/><path d="M393.9 326.1L393.9 326.1c-11.7 0-27.7-3.7-36.9-21.1 -2.7-4.9-5.2-10-8-15.9 -2.5-5.1-5.3-11-8.8-17.7 -7.8-15.2-5.3-36.8-1.9-46.9 1-3 2.2-6.1 3.4-9.1 3.1-7.9 6.3-16.1 7.1-25.2l0.2-1.2 0.6 1c0.1 0.2 2.5 3.8 8.8 3.8 3 0 6.4-0.9 10-2.5l0.6-0.3 0 0.7c0 0.4 0 0.9 0 1.3 0.2 8.9 0.5 23.8 17.2 33.7 12.1 7.5 30.5 36 35.4 46 3.4 7 6.4 11.4 10.8 11.4 1.1 0 2.4-0.3 3.7-0.8l1.3-0.6 -0.7 1.2c-1.3 2.2-3.3 4.9-6 6.3 0.3 0 0.7 0.1 1.1 0.1 1.6 0 3-0.4 3-0.4l0.7-0.2 -0.1 0.7c-0.5 2.9-3.2 5.3-5.9 6.5 2.8 2.1 6.7 2.5 10.9 1.1l0.9-0.3 -0.3 0.9c-1.1 2.8-4.2 5.8-5.8 7.3 4.2-0.3 8.6-1.9 9.3-2.4l1-0.6 -0.3 1.1c-0.8 3.2-4.4 8.3-9.9 11.9l-0.1 0c-3.6 1.5-7.7 2.6-12.3 3.2C416.9 322.4 405.8 326.1 393.9 326.1zM349.6 191.5c-1 8.8-4.1 16.7-7.1 24.3 -1.2 3-2.3 6-3.4 9 -3.4 9.9-5.9 31.2 1.8 46.1 3.5 6.8 6.3 12.6 8.8 17.8 2.9 5.9 5.3 11 8 15.9 9 17 24.6 20.6 36.1 20.6 11.7 0 22.8-3.6 28.7-6.8l0.1 0 0.1 0c4.5-0.6 8.6-1.7 12.1-3.2 4.7-3.1 8-7.4 9.2-10.4 -2 0.8-6.3 2.1-10.1 2.1h-1.3l1-0.8c0 0 4.4-3.5 6.1-6.8 -4.5 1.2-8.5 0.5-11.5-2.1l-0.6-0.5 0.8-0.3c2.5-0.8 5.1-2.9 5.9-5.3 -0.6 0.1-1.5 0.3-2.5 0.3 -1 0-1.9-0.2-2.7-0.4l-1.2-0.5 1.2-0.4c2.6-0.9 4.6-3.2 6-5.3 -1 0.3-1.9 0.4-2.7 0.4 -5.4 0-8.7-5.9-11.7-11.9 -4.8-9.9-23-38.2-35-45.6 -17.1-10.2-17.4-26-17.6-34.5 0-0.2 0-0.4 0-0.6 -3.5 1.6-6.8 2.3-9.8 2.3C353.5 194.8 350.8 192.7 349.6 191.5z" class="h"/><path d="M349.1 191.4c0 0 2.9-19.6 5.3-26.6 2.3-7-5.8-25.7-18.9-33.4 -13.1-7.7-10.7-17.1 1.6-22 2.3-0.9-4.9-16.4 0.2-25.9 5.1-9.6 13.8-6.3 20.2-3 7.6-5.6 17.1-15.7 35.6-3.3 11.7 8.4 18.2 27.6 14.5 43.2 2.3 9.3 3 20.6-17.5 31.8 -15.7 7.9-21 11.2-21.5 39.5C364.2 201.8 350.4 196.7 349.1 191.4z" fill="#1B3D14"/><path d="M407.6 120.5c3.7-15.7-2.8-34.8-14.5-43.2 -18.5-12.4-28-2.3-35.6 3.3 -6.4-3.3-15.1-6.5-20.2 3 -5.1 9.6 2.1 25-0.2 25.9 -12.4 4.9-14.7 14.3-1.6 22 0.4 0.3 0.9 0.5 1.3 0.8 12.5 1.3 24.8-2.7 37.9-5.3 1.9-0.5-1.4 23.8-2.3 29 -1.4 7.5-1.4 18.6-11.1 22.8 -5 2.2-6.8 2.8-11.1 5.7 -0.7 4-1.1 7-1.1 7 1.3 5.3 15.1 10.4 19.5 0.3 0.5-28.3 5.8-31.5 21.5-39.5C410.7 141 410 129.8 407.6 120.5z" fill="#254F1D"/><path d="M405.5 116.3c3.7-15.7-0.7-30.6-12.4-39.1 -18.5-12.4-28-2.3-35.6 3.3 -6.4-3.3-15.1-6.5-20.2 3 -5.1 9.6 2.1 25-0.2 25.9 -10.9 4.3-14 12-5.7 19.1 11.4-1.4 23.2-0.8 34.9-2 5.6-0.5 14-3.3 17.3 2.3 1.4 1.9 1.9 5.6 0.5 8.4 -2.8 4.7-9.8 10.7-6.1 14 4 2.2 9.8-0.9 15.6-4.3C409.5 136.7 407.6 124.9 405.5 116.3z" class="m"/><path d="M336.5 93.1c0 0 0.1-18.7 14.9-13.7C347.7 79.4 339 78.4 336.5 93.1z" class="n"/><path d="M359.7 198c-5 0-10.2-3.1-11.1-6.4l0-0.1 0-0.1c0.1-0.8 2.9-19.7 5.3-26.6 2.3-6.9-5.9-25.3-18.7-32.9 -7.9-4.6-9.2-9.1-9-12.1 0.3-4.3 4.1-8.1 10.7-10.7 0.5-0.2-0.1-3.3-0.5-5.6 -1.1-5.6-2.8-14 0.5-20.2 2.3-4.4 5.7-6.6 9.9-6.6 3.7 0 7.6 1.7 10.6 3.2 0.6-0.5 1.3-1 1.9-1.5 4.4-3.4 9.9-7.7 17.4-7.7 5.2 0 10.6 2 16.6 6 5.8 4.2 10.5 11 13.2 19.2 2.8 8.2 3.3 16.9 1.5 24.5 2.6 10.3 2.1 21.3-17.8 32.2 -15.1 7.7-20.8 10.5-21.2 39.1l0 0.1 0 0.1C367.3 195.8 364 198 359.7 198zM349.6 191.4c0.8 2.9 5.7 5.6 10.1 5.6 2.2 0 6.3-0.7 8.4-5.4 0.2-14.1 1.7-22.1 5.1-27.5 3.4-5.4 8.5-8.2 16.6-12.3 20.4-11.1 19.6-22 17.3-31.2l0-0.1 0-0.1c3.6-15.3-2.8-34.4-14.3-42.8 -5.8-3.9-11.1-5.8-16.1-5.8 -7.2 0-12.3 4-16.8 7.5 -0.7 0.6-1.5 1.1-2.2 1.7l-0.2 0.2 -0.3-0.1c-3-1.5-6.8-3.2-10.5-3.2 -3.9 0-6.9 2-9.1 6.1 -3.1 5.8-1.5 14.1-0.4 19.5 0.8 3.8 1.2 6.1 0 6.6 -6.1 2.4-9.8 6-10.1 9.9 -0.3 3.8 2.7 7.8 8.5 11.2 13.6 8 21.5 26.8 19.1 34C352.6 171.6 349.8 189.9 349.6 191.4z" class="o"/><path d="M391.3 88.1c-0.1-0.4-1.7-9-11.7-10.8 -10-1.8-16.3 9-16.3 9.1 0 0 5.8-11.9 16.5-10C390.4 78.2 391.3 88.1 391.3 88.1z" class="o"/><path d="M361.9 80c0 0-6.5 6.1-7.6 4.1 -1.2-2 2.3-7.6 5.7-8.6 -2.6-0.7-5.5-1.4-8.3-1.2 -2 0 3.6-6.7 11.1-5.3 -2.8-2.3-13.1-4.4-13.1-4.4 -1.4-0.5 9.4-10.1 21.5 1.6 -1.3-2.6-2.7-5-2.8-6.8 1.3 0.1 10.9 4.3 8.5 13.1L361.9 80z" class="m"/><path d="M365.8 70c-3.3-4.7-8.1-6.3-12-6.4 4.7-1.7 8.4-1.5 13.1-0.8 -10.2-6.1-18.4 1.3-17.2 1.7 0 0 10.3 2.1 13.1 4.4 -7.5-1.4-13.1 5.3-11.1 5.3 0.3 0 0.6 0 0.9 0C355.9 70.4 361.1 70 365.8 70z" class="n"/><path d="M355 84.9c-0.1 0-0.2 0-0.3 0 -0.4-0.1-0.7-0.3-0.9-0.6 -0.4-0.7-0.4-1.8 0.1-3.2 0.8-2 2.6-4.4 4.6-5.6 -2.2-0.6-4.6-1-6.9-0.8 0 0 0 0 0 0 -0.5 0-0.7-0.3-0.8-0.4 -0.2-0.4 0-1 0.5-1.7 1.4-1.8 4.9-4.3 9.3-4.3 0 0 0 0 0.1 0 -3.9-1.8-11.1-3.3-11.2-3.3l-0.1 0c-0.3-0.1-0.4-0.3-0.4-0.6 0-0.8 1.6-2.2 3.7-3.2 2.6-1.2 9.3-3.1 16.8 3 -0.9-1.8-1.6-3.4-1.7-4.8l0-0.5 0.5 0c0.9 0.1 4.9 1.4 7.4 4.7 3 3.9 1 9 1 9 0.6-3.2 0-6.1-1.7-8.4 -1.9-2.5-4.8-3.8-6.1-4.2 0.3 1.3 1.1 3 2 4.7 0.2 0.4 0.4 0.8 0.6 1.2l1.2 2.5 -2-1.9c-6.7-6.5-12.9-6-15.9-5.1 -2.7 0.8-4.3 2.1-4.8 2.8 1.9 0.4 10.3 2.3 12.9 4.5l1.4 1.2 -1.8-0.3c-4-0.7-7.6 0.9-9.6 2.7 -0.8 0.7-1.2 1.3-1.3 1.6 2.9-0.2 5.8 0.5 8.3 1.2l1.5 0.4 -1.5 0.5c-2.2 0.7-4.4 3.4-5.3 5.6 -0.4 1-0.5 1.9-0.2 2.4 0 0.1 0.1 0.1 0.2 0.1 1.4 0.2 5.4-2.7 7.6-4.6C362.5 79.4 357.4 84.9 355 84.9z" class="o"/><ellipse cx="372.1" cy="105.8" rx="10.8" ry="18.1"/><ellipse cx="371.4" cy="106.8" rx="10.1" ry="17.1" class="p"/><path d="M381.3 103.4c-1-7.8-5-13.6-9.9-13.6 -5.6 0-10.1 7.6-10.1 17.1 0 4.9 1.2 9.4 3.2 12.5C373.6 119.9 379.2 111.7 381.3 103.4z" class="l"/><path d="M371.4 124.4c-5.8 0-10.6-7.9-10.6-17.5s4.8-17.5 10.6-17.5c5.8 0 10.6 7.9 10.6 17.5S377.3 124.4 371.4 124.4zM371.4 90.3c-5.3 0-9.7 7.4-9.7 16.6 0 9.1 4.3 16.6 9.7 16.6s9.7-7.4 9.7-16.6C381.1 97.7 376.8 90.3 371.4 90.3z"/><ellipse transform="matrix(0.2965 -0.955 0.955 0.2965 143.1094 400.2397)" cx="343.2" cy="103" rx="17.7" ry="7.7"/><ellipse transform="matrix(0.2965 -0.955 0.955 0.2965 141.63 400.1207)" cx="342.4" cy="103.9" rx="16.6" ry="7.2" class="p"/><path d="M350 103.7c1.9-7.8 0.8-14.5-2.6-15.5 -3.8-1.2-9.1 4.9-11.8 13.7 -1.4 4.6-1.8 8.9-1.4 12.2C340.3 112.8 346 108.7 350 103.7z" class="l"/><path d="M338.5 120.3c-0.4 0-0.8-0.1-1.1-0.2 -4.1-1.3-5.1-9.4-2.3-18.5 2.5-8.2 7.3-14.2 11.3-14.2 0.4 0 0.8 0.1 1.1 0.2 4.1 1.3 5.1 9.4 2.3 18.5C347.2 114.4 342.5 120.3 338.5 120.3zM346.4 88.4c-3.5 0-8 5.8-10.4 13.5 -2.6 8.3-1.8 16.3 1.7 17.4 0.3 0.1 0.6 0.1 0.8 0.1 3.5 0 8-5.8 10.4-13.5 2.6-8.3 1.8-16.3-1.7-17.4C346.9 88.5 346.7 88.4 346.4 88.4z"/><ellipse transform="matrix(0.0411 -0.9992 0.9992 0.0411 245.6663 481.1668)" cx="373.5" cy="112.6" rx="6.5" ry="3.8" class="q"/><path d="M377 109.9c-0.5-2.2-1.7-3.7-3.2-3.7 -2.1-0.1-3.9 2.7-4 6.3 -0.1 1.7 0.3 3.3 0.9 4.5C373.7 116.1 376 113.1 377 109.9z" class="r"/><path d="M373.3 119.5l-0.1 0c-2.4-0.1-4.1-3.2-4-7.1 0.2-3.8 2.1-6.8 4.4-6.8l0.1 0c1.2 0 2.2 0.8 3 2.2 0.7 1.3 1 3 1 4.9C377.6 116.6 375.6 119.5 373.3 119.5zM373.7 106.6c-1.8 0-3.3 2.6-3.5 5.9 -0.1 3.2 1.3 6.1 3.1 6.1l0.1 0c1.8 0 3.3-2.6 3.5-5.9 0.1-1.6-0.2-3.2-0.9-4.4 -0.6-1.1-1.4-1.7-2.2-1.8L373.7 106.6z" class="s"/><ellipse transform="matrix(0.2131 -0.977 0.977 0.2131 166.4648 420.3508)" cx="344.2" cy="106.8" rx="5.8" ry="3.4" class="q"/><path d="M347.5 107.5c0.7-3.1-0.3-5.9-2.1-6.3 -1.8-0.4-3.8 1.8-4.5 4.9 -0.4 1.9-0.2 3.7 0.4 4.9C343.8 110.8 346.1 109.6 347.5 107.5z" class="r"/><path d="M343.4 113c-0.2 0-0.4 0-0.5-0.1 -1-0.2-1.9-1.1-2.3-2.5 -0.4-1.3-0.5-2.8-0.1-4.4 0.7-3.1 2.6-5.3 4.5-5.3 0.2 0 0.4 0 0.5 0.1 1 0.2 1.9 1.1 2.3 2.5 0.4 1.3 0.5 2.9 0.1 4.4C347.3 110.7 345.4 113 343.4 113zM345 101.6c-1.5 0-3.1 2-3.6 4.6 -0.3 1.4-0.3 2.8 0.1 3.9 0.3 1 0.9 1.7 1.6 1.8 0.1 0 0.2 0 0.3 0 1.5 0 3.1-2 3.6-4.6 0.3-1.4 0.3-2.8-0.1-3.9 -0.3-1-0.9-1.7-1.6-1.8C345.2 101.6 345.1 101.6 345 101.6z" class="s"/><path d="M341.4 91.1c-6.3 0-8.7-4.5-8.7-4.5v0c0 0 2.9 3.6 8.7 3.6 0 0 0.1 0 0.1 0l0 0.9C341.5 91.1 341.5 91.1 341.4 91.1z"/><path d="M333.5 95.3c-2.7 0-4.4-1.6-4.4-1.6 0.1 0 5 1.8 10-0.5l0.4 0.8C337.4 95 335.3 95.3 333.5 95.3z"/><path d="M330.6 99.2l0 0c0 0 1.9 1.1 6.1-1.6l0.5 0.8C332.2 101.2 330.6 99.2 330.6 99.2z"/><path d="M379.6 93.6c-1.8 0-2.9-0.6-3-0.7l0.5-0.8 0 0c0 0 4.3 2.5 11.2-3.7C388.3 88.4 384.5 93.6 379.6 93.6z"/><path d="M384.1 97.4c-2.6 0-4.7-0.6-4.9-0.7l0.3-0.9c0.1 0 6.8 2.1 11.4-1.4C390.9 94.4 388.3 97.4 384.1 97.4z"/><path d="M380 99.2l0.8-0.5c0 0.1 3.4 4.9 8.3 3.9C389.1 102.5 384.5 104.9 380 99.2z"/><path d="M356 283.4c12.9 0.8 7.5-20.9 12.9-43.1 2.6-10.5 6.8-15.5 10.7-17.8 -11.2-10.3-10.8-23.4-11-30.7 -14.2 6.5-19.4-1.4-19.4-1.4 -1.2 12.6-6.8 23.4-10.5 34.3 -3.7 11-5.6 32 1.9 46.5 0.7 1.3 1.3 2.6 2 3.8C346.3 279.4 350.9 282.9 356 283.4z" fill="#411E1B"/><path d="M379.6 222.4c-11.2-10.3-10.8-23.4-11-30.7 -14.2 6.5-19.4-1.4-19.4-1.4 -1.2 12.6-6.8 23.4-10.5 34.3 -3.6 10.7-5.5 30.9 1.3 45.4 0.9 1.3 2 2.6 3.3 3.7 4.7 3.3 13.1 4.2 15-1.9 3.3-14.9 4.1-32.7 14.9-42.8C375.3 225.7 377.5 223.7 379.6 222.4z" fill="#4D2D2A"/><path d="M354.6 263.4c2.9-21.2 13.6-30.8 15.9-39.2 0.5-2.3 0.9-4.7-0.5-6.1 -5.7-8.3-5.6-16.5-4.5-25.2 -11.9 4.1-16.3-2.6-16.3-2.6 -1.2 12.6-6.8 23.4-10.5 34.3 -3.5 10.3-5.4 29.5 0.6 43.8 0.6 0.5 1.3 0.8 2.2 1.1C347.1 270.5 353.7 270 354.6 263.4z" fill="#583A37"/><path d="M340.7 255.8c-3.4-26.9 1-31.9 3.8-46.6 -1.9 5.3-4.1 10.3-5.8 15.5 -3.1 9.2-5 25.6-1 39.1C340.2 271.4 341.3 260.4 340.7 255.8z" fill="#9B8987"/><path d="M356.7 283.9c-0.2 0-0.5 0-0.7 0 -4.6-0.4-9.3-3.3-13.8-8.6l-0.1-0.1c-0.6-1.2-1.3-2.5-2-3.8 -7.8-15.2-5.3-36.8-1.9-46.9 1-3 2.2-6.1 3.4-9.1 3.1-7.9 6.3-16.1 7.1-25.2l0.2-1 0.7 0.8c0.1 0.2 2.5 3.8 8.8 3.8 3 0 6.4-0.9 10-2.5l0.6-0.3 0 0.7c0 0.4 0 0.9 0 1.3 0.2 7.3 0.4 19.5 10.8 29l0.5 0.4 -0.5 0.3c-4.8 2.9-8.3 8.8-10.5 17.6 -1.9 7.8-2.5 15.5-3 22.2C365.5 274.9 364.9 283.9 356.7 283.9zM342.9 274.7c4.3 5 8.8 7.8 13.1 8.2 0.2 0 0.4 0 0.6 0h0c7.3 0 7.9-8.6 8.8-20.4 0.5-6.8 1.1-14.5 3-22.4 2.1-8.7 5.6-14.7 10.4-17.8 -10.2-9.8-10.5-22-10.7-29.3 0-0.2 0-0.4 0-0.6 -3.5 1.6-6.8 2.3-9.8 2.3 -4.8 0-7.6-2.1-8.8-3.3 -1 8.8-4.1 16.7-7.1 24.3 -1.2 3-2.3 6-3.4 9 -3.4 9.9-5.9 31.2 1.8 46.1C341.7 272.2 342.3 273.5 342.9 274.7z" fill="#1F0F0C"/><path d="M369.9 205.3c-1.2-5.3-1.1-10.1-1.2-13.6 -14.2 6.5-19.4-1.4-19.4-1.4 -0.5 5.5-1.8 10.6-3.5 15.5C349.5 208.7 357.2 211.9 369.9 205.3z" fill="#DDDCDB"/><path d="M360.2 205.5c6.8-0.4 3.2-7.8 5.6-12.6 -12.1 4.3-16.6-2.5-16.6-2.5 -0.5 4.9-1.6 9.6-3 14.1C349.7 207.5 355.6 205.9 360.2 205.5z" class="l"/><path d="M356.1 209.7L356.1 209.7c-5.1 0-8.6-1.9-10.6-3.5l-0.3-0.2 0.1-0.3c1.9-5.8 3-10.6 3.5-15.4l0.2-1.2 0.6 1c0.1 0.2 2.5 3.8 8.8 3.8l0 0c3 0 6.4-0.9 10-2.5l0.6-0.3 0 0.7c0 0.4 0 0.8 0 1.3 0.1 3.4 0.2 7.6 1.2 12.2l0.1 0.4 -0.3 0.2C365.1 208.3 360.3 209.7 356.1 209.7zM346.3 205.7c2 1.4 5.2 3.1 9.8 3.1 4 0 8.5-1.2 13.3-3.7 -1-4.5-1.1-8.7-1.1-12 0-0.2 0-0.4 0-0.6 -3.5 1.6-6.8 2.3-9.8 2.3 -4.8 0-7.6-2.1-8.8-3.3C349.1 195.9 348 200.4 346.3 205.7z" fill="#939393"/><path d="M407.5 122c-1.6-6.5-4.9-9.2-5-9.2 0 0 4.2 2.2 5.9 9L407.5 122z" class="o"/><path d="M342.1 143.9c0 0 2.2 3.7-5.8 17.3 -6 10-5.5 16.8 8.6 16.2 2.5-0.1 12.5 4.4 18.9-2.9 6.4-7.4 2.6-18.6 10-27.2 7.5-8.6 10.6-13.3 7.7-19C376.4 129 342.1 143.9 342.1 143.9z" class="t"/><path d="M342.1 143.9c0 0 2.2 3.7-5.8 17.3 -6 10 0.9 12 8.9 12.3 2.5-0.1 10.4 5.3 16.8-2 6.4-7.4 0.4-17.2 7.9-25.9 7.5-8.6 15.6-8.8 11.8-17.2C376.4 129 342.1 143.9 342.1 143.9z" class="u"/><path d="M354 179.2c-2.5 0-4.9-0.5-6.7-0.9 -1-0.2-1.8-0.4-2.3-0.4h-0.1c-0.6 0-1.1 0-1.7 0l0 0c-5.5 0-8.9-1.2-10.3-3.8 -1.6-2.8-0.7-7.2 2.9-13.2 7.7-13 5.9-16.8 5.8-16.8l-0.2-0.4 0.5-0.2c1.4-0.6 34.4-15 39.6-15.6l0.3 0 0.1 0.3c3 5.9-0.2 10.7-7.8 19.5 -3.8 4.4-4.6 9.5-5.4 14.4 -0.8 4.7-1.5 9.2-4.7 12.8C361.7 177.8 358.2 179.2 354 179.2zM345 177c0.6 0 1.4 0.2 2.5 0.4 1.7 0.4 4 0.9 6.5 0.9 4 0 7.1-1.3 9.5-4 3-3.4 3.7-7.8 4.4-12.4 0.8-5.1 1.6-10.3 5.6-14.9 7.2-8.3 10.3-12.9 7.8-18.1 -5.7 1.1-34.9 13.7-38.7 15.3 0.4 1.4 0.6 6.1-6 17.3 -3.3 5.6-4.3 9.8-2.9 12.3 1.2 2.2 4.4 3.3 9.5 3.3h0c0.5 0 1.1 0 1.6 0C344.9 177 345 177 345 177z" class="v"/><path d="M346.3 178.1c-3.4-1.1-6.2-1.8-6.2-1.8 0 0 3-0.3 6.5 0.9L346.3 178.1z" class="v"/><path d="M373.6 134.4c0 0-6.2 6.6-10 19.2 -3.9 12.6-6.9 19.9-17.6 16.7 -7.3-2.5-7.1-6.5-0.8-16.7 1.8-3.1 0.1-6.1 2-8.6C349 142.5 373.6 134.4 373.6 134.4z" fill="#4B0000"/><path d="M348.5 160.7c-1.2-6.4 0.3-12.5 3.2-18.2 -2.4 1-4.1 1.9-4.6 2.5 -1.9 2.5-0.2 5.5-2 8.6 -6.3 10.2-6.5 14.2 0.8 16.7 4.6 1.4 7.8 0.9 10.2-1.2C352.3 167.8 349.2 165.4 348.5 160.7z" fill="#600"/><path d="M355.3 152.7c-4.4-1.8-7.8-0.8-10.2 0.9 -6.3 10.2-6.5 14.2 0.8 16.6 10.7 3.3 13.8-4.1 17.6-16.7 0.3-1 0.7-2 1-3C362 150 358.3 150.9 355.3 152.7z" fill="#FC9A8F"/><path d="M354.6 167.7c3.7-2.8 5.1-9.3 1.9-12.1 -2.8-2.8-3 3-5.8 3.9 0-2.3 0.2-5.3-2.6-6.3 -0.7-0.1-1.5-0.2-2.2-0.1 -0.3 0.2-0.5 0.3-0.8 0.5 -4 6.4-5.5 10.4-4.2 13.1C344.6 169.8 350.6 170.6 354.6 167.7z" fill="#FDB0B8"/><path d="M350.6 171.5L350.6 171.5c-1.4 0-3-0.3-4.7-0.8 -3.1-1-4.9-2.4-5.6-4.2 -1-2.7 0.3-6.3 4.5-13.1l0.1-0.1 0.1-0.1c3.1-2.2 6.6-2.5 10.4-1.1 2.4-1.4 5.3-2.2 7.7-2.2 0.6 0 1.2 0.1 1.7 0.2l0.5 0.1 -0.2 0.5c-0.4 1-0.7 2-1 3C360.8 164.4 358 171.5 350.6 171.5zM345.5 153.9c-3.9 6.3-5.2 9.9-4.3 12.2 0.6 1.5 2.1 2.7 5 3.6 1.6 0.5 3.1 0.8 4.5 0.8h0c6.8 0 9.4-6.8 12.6-17.1 0.3-0.8 0.5-1.6 0.8-2.5 -0.3 0-0.6-0.1-1-0.1 -2.3 0-5.1 0.8-7.4 2.2l-0.2 0.1 -0.2-0.1C351.6 151.7 348.3 152 345.5 153.9z" class="w"/><path d="M350.6 171.5c-1.4 0-3-0.3-4.7-0.8 -3.1-1-4.9-2.4-5.6-4.2 -1-2.7 0.3-6.4 4.5-13.1 0.8-1.4 0.8-2.8 0.9-4.2 0-1.5 0.1-3 1.1-4.4 1.9-2.5 24.2-9.9 26.7-10.8l1.7-0.6 -1.2 1.3c-0.1 0.1-6.1 6.7-9.9 19C360.8 164.4 358 171.5 350.6 171.5zM372.2 135.4c-9.8 3.3-23.5 8.3-24.7 9.9 -0.9 1.1-0.9 2.4-0.9 3.9 0 1.4-0.1 3-1 4.6 -4 6.4-5.3 10-4.4 12.4 0.6 1.5 2.1 2.7 5 3.6 1.7 0.5 3.1 0.8 4.5 0.8 6.8 0 9.4-6.8 12.6-17.1C366 144 370.3 137.9 372.2 135.4z" class="v"/><path d="M350.4 159.4c0 0 1.7-5.9 6.5-8.1l0.4 0.9C352.7 154.3 350.4 159.4 350.4 159.4z" class="w"/><path d="M432.7 238.1c-3.4 0-7.1-1.4-7.3-1.4l0.3-0.9c0 0 4.3 1.6 7.7 1.3l0.1 0.9C433.3 238.1 433 238.1 432.7 238.1z"/><path d="M391.1 257.3c0 0 11.7 22.5 19.2 20.4 7.5-2.1-3.7-28.6-6.5-32.2C401 242 391.1 257.3 391.1 257.3z" class="i"/><path d="M395.6 251c0 0 9.7 27.7 14.6 26.7 7.6-1.5-3.7-28.6-6.5-32.2C401 242 395.6 251 395.6 251z" class="j"/><path d="M409.2 278.3L409.2 278.3c-7.7 0-18.1-20-18.5-20.8l-0.1-0.2 0.1-0.2c0.8-1.3 8.2-12.5 12-12.5 0.6 0 1.1 0.2 1.4 0.7 2.5 3.2 11.1 23.1 8.7 30.3 -0.5 1.4-1.3 2.2-2.5 2.6C410 278.2 409.6 278.3 409.2 278.3zM391.6 257.3c1.2 2.3 10.9 20.1 17.6 20.1 0 0 0 0 0 0 0.3 0 0.6 0 0.9-0.1 0.9-0.2 1.5-0.9 1.8-2 2.2-6.8-6.2-26.4-8.5-29.5 -0.2-0.2-0.4-0.4-0.7-0.4C399.9 245.4 393.9 253.8 391.6 257.3z"/><path d="M403 251.3c0 0 6.1 16.6 17.8 24.3 11.7 7.7 22.6 7.5 8.9-14.7 -8-13-10.1-16.6-10.1-16.6L403 251.3z" class="i"/><path d="M409 248.8c0 0 1.2 14.7 12.9 22.5 11.7 7.7 21.5 11.9 7.7-10.3 -8-13-10.1-16.6-10.1-16.6L409 248.8z" class="j"/><path d="M432.1 280.7h0c-2.9 0-7.1-1.7-11.6-4.7 -11.7-7.7-17.9-24.4-17.9-24.5l-0.2-0.4 17.3-7.3 0.2 0.4c0 0 2.2 3.8 10.1 16.6 5.6 9 7.6 15.1 5.9 18.1C435.2 280 433.9 280.7 432.1 280.7zM403.6 251.5c1 2.6 7 16.8 17.4 23.7 4.3 2.9 8.4 4.5 11.1 4.5h0c1.5 0 2.5-0.5 3-1.4 0.8-1.5 1.2-5.7-5.9-17.2 -6.6-10.7-9.2-15.1-9.9-16.2L403.6 251.5z"/><path d="M413.8 242.2c0 0 12.5 22.1 26.3 27.5 13.8 5.4 22.9 1.4 17.8-4.7 -5.1-6.1-23.1-22.8-23.1-22.8H413.8L413.8 242.2z" class="i"/><path d="M421.7 243.4c0 0 6.3 16.4 20.1 21.7 13.8 5.4 21.3 6.1 16.1 0 -5.1-6.1-23.1-22.8-23.1-22.8L421.7 243.4z" class="j"/><path d="M451.9 272.7L451.9 272.7c-3.5 0-7.6-0.9-11.9-2.6 -13.8-5.4-26-26.8-26.5-27.7l-0.4-0.7h21.9l0.1 0.1c0.2 0.2 18.1 16.9 23.2 22.9 1.9 2.2 1.7 3.9 1.3 4.9C458.6 271.6 455.8 272.7 451.9 272.7zM414.6 242.7c2.3 3.8 13.5 21.9 25.6 26.6 4.2 1.6 8.2 2.5 11.6 2.5 3.5 0 6-0.9 6.8-2.5 0.5-1.1 0.1-2.4-1.1-3.9 -4.8-5.7-21.3-21.1-23-22.7L414.6 242.7 414.6 242.7z"/><path d="M427.8 242.2c0 0 14.9 13.5 34 15.7 19.2 2.2 23.1-7.4 19.6-10.4 -3.5-3-22.4-6.5-36.7-19C429.5 237.3 421.9 237.7 427.8 242.2z" class="i"/><path d="M432 239.8c0 0 10.5 10.9 29.6 13.1 19.2 2.2 23.4-2.3 19.9-5.4 -3.5-3-22.4-6.5-36.7-19C429.5 237.3 426.1 235.4 432 239.8z" class="j"/><path d="M467.2 258.8c0 0 0 0 0 0 -1.7 0-3.5-0.1-5.4-0.3 -19.1-2.2-34.1-15.7-34.3-15.8 -1.6-1.2-2.2-2.2-2.1-3.1 0.2-1.7 2.8-3 7.6-5.3 3.1-1.5 7-3.4 11.6-6l0.3-0.2 0.3 0.2c9.5 8.3 21.1 12.6 28.8 15.5 3.9 1.4 6.7 2.5 7.9 3.5 1.3 1.1 1.7 2.9 1 4.8C481.5 255.3 476.8 258.8 467.2 258.8zM444.7 229.1c-4.5 2.6-8.3 4.4-11.4 5.9 -4.2 2-7 3.4-7.1 4.6 -0.1 0.6 0.5 1.4 1.8 2.3 0.2 0.2 15 13.5 33.8 15.6 1.9 0.2 3.7 0.3 5.3 0.3 0 0 0 0 0 0 9.1 0 13.5-3.2 14.7-6.2 0.5-1.5 0.3-2.9-0.7-3.7 -1.1-0.9-4-2-7.6-3.4C465.9 241.7 454.3 237.4 444.7 229.1z"/><path d="M428 234.9c0 0 24.3 13.3 50.5 4 17.5-6.8 25.9-23.9 19.2-21.9 -6.8 2-42.5 4.8-64-1.5C426.3 230 428 234.9 428 234.9z" class="i"/><path d="M429.3 227.6c0 0 21.4 15.1 47.5 5.7 17.5-6.8 27.6-18.3 20.8-16.3 -6.8 2-42.5 4.8-64-1.5C426.3 230 429.3 227.6 429.3 227.6z" class="j"/><path d="M458.8 242.7L458.8 242.7c-17.4 0-30.9-7.3-31.1-7.4l-0.2-0.1 -0.1-0.2c-0.1-0.2-1.6-5.3 5.6-19.7l0.2-0.3 0.4 0.1c10.9 3.2 24.8 3.9 34.5 3.9 13.1 0 25.4-1.2 29.2-2.4 1.6-0.5 2.7 0 2.9 1.3 0.8 4.2-7.9 16.1-21.7 21.5C472.4 241.6 465.7 242.7 458.8 242.7zM428.4 234.6c1.6 0.9 14.3 7.1 30.4 7.1l0 0c6.8 0 13.3-1.1 19.5-3.3 14-5.4 21.8-17.2 21.2-20.5 -0.1-0.5-0.3-0.7-0.9-0.7 -0.2 0-0.5 0-0.9 0.1 -3.9 1.2-16.3 2.4-29.5 2.4 -9.7 0-23.5-0.7-34.4-3.8C427.6 228.6 428.2 233.7 428.4 234.6z"/><path d="M431 231.2c0 0 32.7 2.8 58.9-20.1 14.5-12.6 22.2-38.1 13.5-32.4 -8.6 5.7-39.6 30.2-66.3 37C432.2 221.9 431 231.2 431 231.2z" class="i"/><path d="M433.6 226.6c0 0 26.4 4.1 52.5-18.8 14.5-12.6 25.9-34.8 17.3-29.1 -8.6 5.7-39.6 30.2-66.3 37C432.2 221.9 433.6 226.6 433.6 226.6z" class="j"/><path d="M434.5 231.8L434.5 231.8c-2.2 0-3.5-0.1-3.5-0.1l-0.5 0 0.1-0.5c0.1-0.4 1.2-9.5 6.2-15.7l0.1-0.1 0.2 0c22.3-5.7 47.9-24 60.3-32.8 2.5-1.8 4.5-3.2 5.9-4.1 0.9-0.6 1.7-0.9 2.3-0.9 0.8 0 1.4 0.5 1.7 1.3 1.9 4.9-5.9 23-17.1 32.7C469.2 229.8 444.3 231.8 434.5 231.8zM431.5 230.8c0.6 0 1.6 0.1 3 0.1 9.7 0 34.4-2 55.1-20.1 11.4-9.9 18.4-27.5 16.8-31.7 -0.2-0.6-0.6-0.7-0.9-0.7 -0.3 0-0.9 0.1-1.8 0.7 -1.4 0.9-3.4 2.3-5.8 4.1 -12.3 8.8-38 27.2-60.4 32.9C433.3 221.3 431.9 228.8 431.5 230.8z"/><path d="M446.7 196.8c0 0 25.2-14.8 40.4-53.8 6.3-18 14.5 9.3 5.4 29.6 -6.1 13.6-19.4 35.3-57.7 47C441.3 209.9 446.7 196.8 446.7 196.8z" class="i"/><path d="M446.7 196.8c0 0 25.2-14.8 40.4-53.8 6.3-18 14.5 9.3 5.4 29.6 -6.1 13.6-19.4 35.3-57.7 47C441.3 209.9 446.7 196.8 446.7 196.8z" class="i"/><path d="M446.7 196.8c0 0 25.2-14.8 40.4-53.8 6.3-18 9.1 8.2 0 28.5 -6.1 13.5-9.1 27.2-47.4 38.9C446.2 200.8 446.7 196.8 446.7 196.8z" class="j"/><path d="M483.6 156.9c1.2-3.8 1.9-7.7 2.6-11.5 -15.3 37.2-39.4 51.4-39.4 51.4s-0.2 1.9-2.6 6.4C460.2 195.1 477 177.1 483.6 156.9z" fill="#777979"/><path d="M433.6 220.4l0.7-1.1c6.4-9.4 11.8-22.5 11.9-22.7l0.1-0.1 0.1-0.1c0.3-0.1 25.3-15.2 40.2-53.6 1.4-4.1 3.1-6.2 4.8-6.2 1 0 1.9 0.6 2.7 1.9 3.4 5.2 4.6 21.2-1.3 34.3 -10.3 23-29.3 38.5-58 47.2L433.6 220.4zM447 197.1c-0.6 1.4-5.4 12.8-11.2 21.6 27.7-8.7 46.1-23.9 56.2-46.3 5.7-12.8 4.6-28.3 1.3-33.4 -0.4-0.7-1.1-1.4-1.9-1.4 -1.3 0-2.7 2-3.9 5.6C473 180.4 449.1 195.8 447 197.1z"/><path d="M385 308c0 0 5.5 16.8 15.6 19 10.1 2.2 17.3-0.6 23.1-3.9 5.8-3.3 6-13.1 3.8-21.2L385 308z" class="f"/><path d="M415.8 322.3c6.8-3 11.5-8.3 12.6-15.5 -0.2-1.7-0.5-3.3-1-4.9l-42.5 6.1c0 0 2.9 9 8.4 14.7C401.1 327 408.1 325.6 415.8 322.3z" class="g"/><path d="M427.4 301.9l-44.3 2.5c0 0 4.1 10.6 8.5 16.1 2.2 0.2 4.3 0.6 6.5 1.3C412.5 325.3 422 313.5 427.4 301.9z" class="k"/><path d="M407.5 328.2c-2.2 0-4.5-0.2-7-0.8 -4.5-1-8.1-4.6-10.8-8.5 -3.5-5-4.7-11-4.7-11 0.1 0.2 5.9 16.4 15.7 18.5 10.2 2.2 17.2-0.7 22.7-3.8 5.4-3.1 6-13.4 3.8-21.6 0 0 2.6 5.4 2 10.9 -0.3 5.1-2 9.5-5.4 11.5C419.8 325.8 414.4 328.2 407.5 328.2z" class="h"/><path d="M421.9 338.1c0 0 1.3-1.9 3-2.2l0.2 0.9C423.5 337.1 421.9 338.1 421.9 338.1z" class="e"/><path d="M429.8 340.9c-0.4-2.6-3.1-3.8-3.2-3.8l0.4-0.9C429.3 337 429.8 340.9 429.8 340.9z" class="e"/><path d="M431.8 342.9c0 0 12.7-2.8 20.9-3.3l0.1 0.9C444.6 341 431.9 342.8 431.8 342.9z" class="e"/><path d="M438.8 351.6c-7.5-0.6-8.1-2.5-8.1-2.5l0 0c0 0 1.1 1.1 8.2 1.6L438.8 351.6z" class="e"/><path d="M368.4 343.7l0.9-0.1c0.2 2.2 1.7 5.9 1.7 6C371.1 349.6 368.7 346 368.4 343.7z" class="e"/><path d="M373.7 236.2c0 0-4-12 6.7-16.9 11.2-5.1 41.7-6.2 67.1-23.2 1.6-1.1 4.5-2.1 6.1 0.1 3 4.2 2.2 16.4-18.2 26.5 7.2 1.2 16.5 2.2 14.7 6.4 -1.8 4.2-8.5 9-18.8 8.3 5.6 2.3 8.1 5 6.5 8.5 -1.5 3.5-15.4 5.3-23.1 0.9 3 5.3 3.4 9.7 1.3 10.4 -2.1 0.7-11.1 0.4-17.8-6.7 0.9 5.4-0.9 11.9-4.2 11.3 -3.3-0.6-8.6-5.1-11.6-12.6L373.7 236.2z" class="f"/><path d="M393.4 258.3c3.7-3.7 1.4-9.3 2.3-14.5 4.7 3.3 9.8 13.1 14.5 7.9 2.3-2.8 1.4-7.9-0.5-12.1 5.1 3.3 9.3 8.4 15.4 4.2 4.7-2.8 0-9.3-2.8-12.6 3.7-0.5 8.9 1.9 10.7-1.4 2.3-4.2-2.3-6.5-5.1-9.8 0-0.5-1.4-1.9 0-2.3 11.6-3.2 21.1-11.2 21.9-22.5 -0.8 0.2-1.6 0.6-2.3 1.1 -25.5 17.1-56 18.1-67.1 23.2 -10.7 4.9-6.7 16.9-6.7 16.9l8.8 13.2c1.9 4.6 4.6 8.1 7.2 10.2C391.1 259.8 392.4 259.5 393.4 258.3z" class="g"/><path d="M392.9 238.2c3.3 2.3 6.1 6.5 10.3 6.1 4.2 0 2.8-6.1 2.3-9.3 2.8 2.3 7.5 4.7 9.8 2.8 2.8-2.3 0.9-7.5 0.5-11.2 2.8 0.5 6.5 3.3 7.9 0.5 1.9-3.3-2.8-9.3 0.5-11.2 7.6-4.8 14.3-6.6 20.7-17.9 -24.9 15.4-53.7 16.6-64.5 21.5 -10.7 4.9-6.7 16.9-6.7 16.9l6.7 13.2c1.3 3.2 5.1 5.9 6.8 7.9C394.4 255.9 392.9 244.8 392.9 238.2z" class="k"/><path d="M386.4 221.9c15.3-5.4 34.5-4.9 45.6-17.3 -21.2 9.2-42.6 10.7-51.5 14.8 -9.7 4.4-7.4 14.6-6.8 16.5C374.1 229.2 380.6 223.9 386.4 221.9z" class="l"/><path d="M394.5 262.5c-0.2 0-0.3 0-0.5 0 -8.7-3.3-11.7-13.7-11.7-13.7 3.1 7.5 8.9 12.3 11.9 12.8 0.6 0.1 1.2-0.1 1.8-0.6 1.7-1.7 2.6-6.3 1.9-10.1l-0.3-1.5 1.1 1.1c6.7 7 15.5 7.1 17.3 6.5 0.4-0.1 0.6-0.4 0.8-0.9 0.7-1.8-0.3-5.2-2.4-8.9l-0.9-1.5 1.5 0.8c5.4 3 14.2 3.1 19.3 1.4 1.7-0.6 2.8-1.3 3.2-2.1 0.5-1.1 0.5-2.1 0.1-3.1 -0.7-1.7-2.8-3.3-6.4-4.8l-2.6-1.1 2.8 0.2c10.7 0.7 16.8-4.4 18.3-8 0.2-0.6 0.2-1.1 0-1.6 -1.2-2.1-7.2-3.1-12.6-3.9 -0.6-0.1-1.2-0.2-1.8-0.3l-1.4-0.2 1.3-0.6c14.1-7 17.9-14.6 18.9-18.4 0.7-2.9 0.4-5.7-0.8-7.4 -1.4-2-4.2-0.9-5.4 0 -17.4 11.7-37.1 15.9-51.4 19 -6.6 1.4-12.2 2.7-15.8 4.2 -10.7 4.8-6.9 16.4-6.8 16.9 0 0-5.1-12.7 6.4-17.8 3.6-1.6 9.1-2.8 16-4.3 14.3-3.1 33.8-7.3 51.1-18.9 2.1-1.5 5.1-2 6.7 0.2 1.4 2 1.8 5 1 8.2 -1 3.9-4.6 11.4-18.1 18.4 0.1 0 0.2 0 0.4 0.1 5.8 0.9 11.8 1.8 13.2 4.4 0.4 0.7 0.4 1.5 0.1 2.4 -1.8 4.4-8.1 8.6-17 8.6 2.6 1.3 4.2 2.8 4.9 4.4 0.5 1.2 0.4 2.5-0.2 3.8 -0.6 1.3-2.3 2.1-3.7 2.6 -4.9 1.6-13.1 1.7-18.7-0.8 1.7 3.4 2.4 6.5 1.7 8.3 -0.3 0.7-0.7 1.2-1.4 1.4 -2.4 0.8-10.8 0.2-17.3-5.8 0.3 3.8-0.6 7.9-2.3 9.6C396 262.2 395.2 262.5 394.5 262.5z" class="h"/><path d="M374.7 133.6c-5.3 4.3-23 16.9-35.5 11.7 -13.1-6.1-15-4.2-20.9-1.7 -5.9 2.5-20.5 3-20.5-8.2 0.2-10 15.2-12.6 24.3-9.6 8.3 2 11.6-4.7 16.1-8.6 4.5-3.8 8.4-9.3 15-2.6 6.5 6.7 8.8 11.7 14.5 10.7 5.6-0.9 16.3-1 14.8 8.7C382.6 134 380.8 128.6 374.7 133.6z" class="t"/><path d="M367.7 125.3c-5.7 0.9-8-4-14.5-10.7 -6.5-6.7-10.4-1.2-15 2.6 -4.5 3.9-7.9 10.5-16.1 8.6 -9.1-3.1-24.2-0.5-24.3 9.6 0 4.5 2.3 7.1 5.5 8.5 3.4-7.3 9.6-7.9 17.5-6.6 10.7 2.3 18.5 8 29.2 6.6 7.3-0.9 15.8-5.5 24.1-9.8 0.2-0.2 0.4-0.3 0.6-0.4 6.1-4.9 7.9 0.4 7.9 0.4C384 124.3 373.4 124.4 367.7 125.3z" class="u"/><path d="M337.2 140.2c11.2 3.7 26.1 2.4 33.1-7.9 2.3-2.8 6.7-1.6 9.5-3 0.7-0.5 0.9-1.1 1-1.9 -3.1-3-9.3-2.8-13.1-2.1 -5.7 0.9-8-4-14.5-10.7 -6.5-6.7-10.4-1.2-15 2.6 -4.5 3.9-7.9 10.5-16.1 8.6 -9.1-3.1-24.2-0.5-24.3 9.6 0 4.5 2.3 7.1 5.5 8.5 0.3-0.6 0.5-1.1 0.8-1.5C309.7 129.7 327.5 137.1 337.2 140.2z" fill="#FCC233"/><path d="M345.8 147c-2.4 0-4.6-0.4-6.8-1.3 -11.8-5.5-14.3-4.4-19.1-2.3 -0.4 0.2-0.9 0.4-1.4 0.6 -4 1.7-12.2 2.6-17.2-0.7 -2.7-1.8-4-4.4-4-8 0-3.2 1.6-5.9 4.3-7.9 5.7-4 14.8-4.1 20.6-2.2 6.1 1.5 9.5-2.1 12.7-5.5 1-1 2-2.1 3-3 0.6-0.5 1.2-1 1.7-1.5 3.9-3.5 7.9-7.2 13.9-1 1.6 1.6 3 3.2 4.2 4.6 3.7 4.2 5.9 6.7 10 6.1 2.3-0.4 10-1.3 13.6 2.4 1.7 1.7 2.2 4.2 1.7 7.3l-0.9-0.2c0.5-2.8 0-5-1.4-6.4 -3.3-3.4-10.6-2.5-12.8-2.1 -4.6 0.7-7.1-2.1-10.8-6.4 -1.2-1.4-2.5-2.9-4.1-4.5 -5.4-5.5-8.7-2.5-12.6 1.1 -0.6 0.5-1.2 1.1-1.7 1.6 -1 0.9-1.9 1.8-2.9 2.9 -3.3 3.5-7 7.4-13.6 5.8 -6.6-2.2-15-1.3-19.8 2 -2.6 1.8-3.9 4.2-4 7.1 0 3.2 1.2 5.6 3.6 7.2 4.5 3 12.3 2.3 16.3 0.6 0.5-0.2 0.9-0.4 1.4-0.6 4.9-2.2 7.7-3.4 19.9 2.3 13.6 5.9 34.8-11.4 35-11.6l0.6 0.7C374.2 134.5 359 147 345.8 147z" class="v"/><path d="M348.7 141.7c-12.4-11.8-27.8-15.8-27.9-15.9l0.2-0.9C340.7 130.8 348.7 141.7 348.7 141.7z" class="v"/><path d="M329.8 142.1c-20-6.7-23.1-0.7-23.1-0.6 0 0 2.4-7.3 23.4-0.3L329.8 142.1z" class="v"/><path d="M375.7 135.9c-1.1-3.4-5.3-3.5-5.4-3.5 0 0 2.9-0.8 4.7 0.9C375.7 133.8 375.7 135.9 375.7 135.9z" class="v"/><ellipse cx="373.7" cy="114" rx="2.4" ry="4"/><circle cx="373" cy="111.2" r="1.6" class="l"/><circle cx="375.8" cy="115.6" r="0.5" class="l"/><circle cx="372.2" cy="116.3" r="0.7" class="l"/><ellipse transform="matrix(0.1078 -0.9942 0.9942 0.1078 199.5882 438.4763)" cx="344.1" cy="108" rx="3.3" ry="1.9"/><circle cx="343.8" cy="105.7" r="1.3" class="l"/><circle cx="345.6" cy="109.5" r="0.4" class="l"/><circle cx="342.7" cy="109.8" r="0.6" class="l"/><path d="M364.5 85.9c0 0 15-17.5 25.6 0.7C385 81.3 378.7 74.2 364.5 85.9z" class="n"/><path d="M298.8 136.6c0 0-0.4-11.5 17.3-11 8 0.5 22.2 7.5 29 13.5 -8.3-4.4-18.7-11.6-30-11.3C306.4 127.8 301.7 129.2 298.8 136.6z" class="x"/><path d="M328.8 126.5c0 0 6.1-2.9 9.4-7.5 3.3-4.6 9.7-8.6 13.2-4.7 -1.2-0.5-4.7-0.6-10.3 5.2C335.5 125.3 328.8 126.5 328.8 126.5z" class="x"/><path d="M352 367.4c0 0 3.2 1 3.5 2.6 1-2.3 5.1-7.2 5.1-7.2L352 367.4z" class="y"/><path d="M342.9 353.9c0 0 0.4 1.5 0 2.7 1.5-0.7 8.1-3.7 8.1-3.7L342.9 353.9z" class="y"/><path d="M447.9 352.2c0 0 5.8 1.3 7 2.7 0.3-1.9 1.2-2.7 1.2-2.7C454.7 352.3 447.9 352.2 447.9 352.2z" class="y"/></svg>