<svg xmlns="http://www.w3.org/2000/svg" viewBox="0 0 768 430"><style>.a{fill:#0909D6;}.b{fill:#00F;}.c{fill:#1D1D89;}</style><polygon points="127 300.9 127 178.7 257.2 260.1 257.2 393 " fill="#0400FF"/><polygon points="645.6 283.4 652 152.9 257.2 260.1 257.2 393 " fill="#0400A2"/><polygon points="652 152.9 512.9 78.5 127 178.7 257.2 260.1 " fill="#0000E7"/><path d="M309.5 226.7c0 10.2-15.6 18.4-34.8 18.4 -19.2 0-34.8-8.3-34.8-18.4v-20.6h69.7V226.7z" class="a"/><path d="M412.1 197.7c0 10.2-15.6 18.4-34.8 18.4s-34.8-8.2-34.8-18.4v-21h69.7V197.7z" class="a"/><path d="M509.7 169.2c0 10.2-15.6 18.4-34.8 18.4s-34.8-8.3-34.8-18.4v-17.1h69.7V169.2z" class="a"/><path d="M534.7 100c0 10.2-15.6 18.4-34.8 18.4 -19.2 0-34.8-8.3-34.8-18.4V84.8h69.7V100z" class="a"/><path d="M440 127.9c0 10.2-15.6 18.4-34.8 18.4 -19.2 0-34.8-8.3-34.8-18.4v-17.2h69.7V127.9z" class="a"/><path d="M607.3 142.6c0 10.2-15.6 18.4-34.8 18.4 -19.2 0-34.8-8.3-34.8-18.4l-0.3-17.2h69.7L607.3 142.6z" class="a"/><path d="M342.4 155.2c0 10.2-15.6 18.4-34.8 18.4 -19.2 0-34.8-8.2-34.8-18.4v-18.4h69.7V155.2z" class="a"/><path d="M239.8 182.4c0 10.2-15.6 18.4-34.8 18.4 -19.2 0-33.9-7.2-33.9-17.4v-19.5h69.7L239.8 182.4z" class="a"/><path d="M309.5 206c0 10.2-15.6 18.4-34.8 18.4 -19.2 0-34.8-8.3-34.8-18.4 0-10.2 15.6-18.4 34.8-18.4C293.9 187.6 309.5 195.8 309.5 206" class="b"/><path d="M412.1 176.6c0 10.2-15.6 18.4-34.8 18.4s-34.8-8.3-34.8-18.4c0-10.2 15.6-18.4 34.8-18.4S412.1 166.5 412.1 176.6" class="b"/><path d="M509.7 152c0 10.2-15.6 18.4-34.8 18.4s-34.8-8.3-34.8-18.4c0-10.2 15.6-18.4 34.8-18.4S509.7 141.8 509.7 152" class="b"/><path d="M607 125.4c0 10.2-15.6 18.4-34.8 18.4s-34.8-8.3-34.8-18.4c0-10.2 15.6-18.4 34.8-18.4S607 115.3 607 125.4" class="b"/><path d="M534.7 84.8c0 10.2-15.6 18.4-34.8 18.4 -19.2 0-34.8-8.3-34.8-18.4 0-10.2 15.6-18.4 34.8-18.4C519.1 66.4 534.7 74.6 534.7 84.8" class="b"/><path d="M440 110.7c0 10.2-15.6 18.4-34.8 18.4 -19.2 0-34.8-8.3-34.8-18.4 0-10.2 15.6-18.4 34.8-18.4C424.4 92.3 440 100.5 440 110.7" class="b"/><path d="M342.4 136.8c0 10.2-15.6 18.4-34.8 18.4 -19.2 0-34.8-8.3-34.8-18.4 0-10.2 15.6-18.4 34.8-18.4C326.8 118.4 342.4 126.6 342.4 136.8" class="b"/><path d="M240.8 164c0 10.2-15.6 18.4-34.8 18.4 -19.2 0-34.8-8.3-34.8-18.4 0-10.2 15.6-18.4 34.8-18.4C225.2 145.6 240.8 153.8 240.8 164" class="b"/><path d="M307.4 204.5c0 9.2-14 16.6-31.4 16.6s-31.4-7.4-31.4-16.6c0-9.2 14-16.6 31.4-16.6S307.4 195.4 307.4 204.5" class="c"/><path d="M408.6 176.5c0 9.2-14 16.6-31.4 16.6 -17.3 0-31.4-7.4-31.4-16.6 0-9.2 14-16.6 31.4-16.6C394.6 159.9 408.6 167.3 408.6 176.5" class="c"/><path d="M506.1 151.1c0 9.2-14 16.6-31.4 16.6 -17.3 0-31.4-7.4-31.4-16.6 0-9.2 14-16.6 31.4-16.6C492.1 134.5 506.1 141.9 506.1 151.1" class="c"/><path d="M604.2 125.6c0 9.2-14 16.6-31.4 16.6 -17.3 0-31.4-7.4-31.4-16.6s14-16.6 31.4-16.6C590.1 109 604.2 116.4 604.2 125.6" class="c"/><path d="M531.1 85c0 9.2-14 16.6-31.4 16.6 -17.3 0-31.4-7.4-31.4-16.6 0-9.2 14-16.6 31.4-16.6C517 68.4 531.1 75.8 531.1 85" class="c"/><path d="M436.2 110.7c0 9.2-14 16.6-31.4 16.6s-31.4-7.4-31.4-16.6c0-9.2 14-16.6 31.4-16.6S436.2 101.5 436.2 110.7" class="c"/><path d="M338.7 136.6c0 9.2-14 16.6-31.4 16.6 -17.3 0-31.4-7.4-31.4-16.6 0-9.2 14-16.6 31.4-16.6C324.6 120 338.7 127.4 338.7 136.6" class="c"/><path d="M236.7 164.1c0 9.2-14 16.6-31.4 16.6 -17.3 0-31.4-7.4-31.4-16.6 0-9.2 14-16.6 31.4-16.6C222.7 147.5 236.7 154.9 236.7 164.1" class="c"/></svg>