<svg version="1.1" id="Layer_1" xmlns="http://www.w3.org/2000/svg" xmlns:xlink="http://www.w3.org/1999/xlink" x="0px" y="0px"
	  viewBox="0 0 768 430" enable-background="new 0 0 768 430" xml:space="preserve">
<g>
	<g>
		<g>
			<path fill="#808080" d="M613.062,351.131c7.947,6.083,8.081,20.114,0.306,31.32l0,0c-7.772,11.216-20.513,15.373-28.459,9.281
				L458.483,282.975c-7.949-6.087-11.98-11.209-4.207-22.421l0,0c7.776-11.213,15.453-8.282,23.401-2.19L613.062,351.131z"/>
			<path fill="#BFBFBF" d="M600.377,351.895c6.978,5.347,8.617,15.475,3.662,22.618l0,0c-4.95,7.147-14.625,8.604-21.6,3.254
				l-112.327-93.635c-6.979-5.347-10.743-9.526-5.788-16.674l0,0c4.954-7.143,11.375-4.102,18.354,1.242L600.377,351.895z"/>
			<path fill="#606060" d="M505.195,284.549c2.09,1.603-0.862,2.624-5.817,9.768l0,0c-4.955,7.147-4.944,9.946-7.04,8.339
				l-34.701-28.082c-2.092-1.603-2.812-3.451,2.143-10.599l0,0c4.957-7.144,7.478-7.09,9.567-5.487L505.195,284.549z"/>
		</g>
		<g>
			<path fill="#808080" d="M452.112,70.027c66.521,50.97,82.157,147.51,34.928,215.63c-47.23,68.122-139.445,82.024-205.966,31.049
				c-66.525-50.967-82.162-147.509-34.93-215.631C293.378,32.955,385.588,19.053,452.112,70.027z"/>
			<path fill="#BFBFBF" d="M439.977,87.527c57.083,43.737,70.503,126.581,29.974,185.033
				c-40.531,58.455-119.663,70.388-176.744,26.647c-57.082-43.739-70.5-126.583-29.97-185.035
				C303.766,55.715,382.89,43.789,439.977,87.527z"/>
		</g>
	</g>
	<g>
		<g>
			<path fill="#FFFFFF" d="M345.752,252.589c-6.992,26.649-76.337-34.977-80.916-76.151c-3.085-27.754,26.437-89.99,74.863-81.99
				c27.556,4.555,59.029,10.27,59.612,38.055C400.285,178.901,359.777,199.094,345.752,252.589z"/>
			<g>
				<path fill="#FEA01D" d="M339.498,183.995c-19.164-0.488-34.713-16.365-34.717-35.46c-0.012-19.096,15.52-34.18,34.688-33.692
					c19.173,0.491,34.716,16.369,34.724,35.463C374.206,169.4,358.668,184.483,339.498,183.995z"/>
				<path fill="#FEC017" d="M344.241,174.275c-14.372-0.366-26.025-12.265-26.032-26.579c-0.009-14.314,11.636-25.62,26.004-25.254
					c14.366,0.368,26.02,12.267,26.03,26.581C370.249,163.339,358.604,174.645,344.241,174.275z"/>
				<path fill="#FFFFFF" d="M357.203,149.872c-3.997-0.101-7.242-3.482-7.241-7.553c-0.002-4.07,3.233-7.287,7.23-7.184
					c4.004,0.099,7.239,3.483,7.245,7.553C364.439,146.758,361.198,149.973,357.203,149.872z"/>
			</g>
		</g>
		<g>
			<path fill="#FFFFFF" d="M339.797,270.288c-16.4,17.668,58.879,43.665,90.929,28.393c21.61-10.297,54.15-61.877,27.155-96.077
				c-15.362-19.46-33.278-41.454-53.817-29.184C369.771,193.907,372.724,234.824,339.797,270.288z"/>
			<g>
				<path fill="#FEA01D" d="M394.335,246.695c7.771,13.143,24.136,17.493,36.548,9.714c12.416-7.778,16.181-24.742,8.406-37.885
					c-7.772-13.143-24.132-17.493-36.55-9.715C390.326,216.589,386.562,233.551,394.335,246.695z"/>
				<path fill="#FEC017" d="M398.808,239.436c5.827,9.853,18.091,13.112,27.4,7.279c9.299-5.83,12.121-18.542,6.3-28.393
					c-5.829-9.854-18.094-13.114-27.4-7.283C395.807,216.871,392.983,229.582,398.808,239.436z"/>
				<path fill="#FFFFFF" d="M409.63,220.461c1.621,2.741,5.079,3.623,7.727,1.964c2.643-1.657,3.475-5.224,1.851-7.963
					c-1.616-2.744-5.078-3.623-7.722-1.965C408.84,214.154,408.008,217.721,409.63,220.461z"/>
			</g>
		</g>
	</g>
</g>
</svg>
