<svg version="1.1" xmlns="http://www.w3.org/2000/svg" viewBox="0 0 768 430" xml:space="preserve"><style>.s0{fill:#DDE4D0;}</style><g transform="translate(-26.728629,-202.3389)"><g transform="matrix(0.7058263,0,0,0.7058263,-349.34431,313.72419)"><g transform="matrix(1.9829652,0,0,2.9485327,208.84164,-1629.1407)"><path d="M462.2 550.1c-0.8-0.1-1.6-0.3-2.4-0.3 -12.6-1-23.3 3.6-23.9 10.4 0 0.1 0 0.1 0 0.2 -19.7 2.2-34.6 12-35.6 24.9 -1.3 16.1 19.3 30.9 46.1 33.1 12.4 1 23.8-0.8 32.8-4.7 3.9 11.3 14.9 20.1 28.5 21.2 13.1 1.1 24.9-5.1 30.9-14.9 9.9 0.1 18.1-4.5 18.6-10.9 0-0.1 0-0.2 0-0.3 6.8-1.8 12.5-7.4 15.6-15.1 7.5-1.2 13.5-7.3 14.2-15.1 0.8-9.2-6.2-17.3-15.5-18.1 -1.4-0.1-2.9 0-4.2 0.2 -3.2-3.2-7.2-5.2-11.7-5.6 -3-0.3-6 0.3-8.7 1.5 -4.6-9.5-20.9-17.5-40.9-19.2C485.6 535.7 467.9 541.2 462.2 550.1z" style="fill:none;stroke-width:4.9;stroke:#DDE4D0"/></g></g></g><circle cx="463.6" cy="168.6" r="37.4" fill="#DDE4D0"/><path d="M301.6 197.6c-3.2-1.2-9.9-5.2-11.7-3 -2.3 2.7-3.6 6-5.9 8.7 -1.7 1.9-5.4 2-7.1 0 -2.2-2.6-3.2-5.5-3.8-8.8 -0.3-1.4-0.5-2.9-0.9-4.3 -0.2 0.1-0.4 0.2-0.6 0.3 -6.1 4.2-8.1 12.5-13.6 17.4 -2.4 2.1-6.1 1.9-7.9-1 -2.8-4.7-3.7-11.8-7.4-16 -1.2 1.4-2.2 3.1-2.9 4.9 -1.2 3-2.1 6.2-4.5 8.5 -6.8 6.4-14.4-3.3-18.3-8 -1-1.2-2.2-2.9-3.6-3.7 -0.1 0-0.4 0.1-0.8 0.5 -0.6 0.5-1.2 1-1.8 1.6 -2.4 2.3-4.5 4.9-6.9 7.2 -2 2.1-4.5 1.8-6.3 0.5 -0.3 0-0.6-0.1-0.9-0.2 -0.5-0.1-0.9-0.3-1.4-0.4 -0.8 5.7-1.3 11.5-1.3 17.1C194 260.6 218.5 279 248.8 279c30.2 0 54.8-18.4 54.8-60.2C303.5 211.9 302.8 204.7 301.6 197.6z" fill="#DDE4D0"/><path d="M302.2 195.2c-3.7-1.5-9.7-5.7-13.7-2.8 -2.9 2.2-4.2 6.3-6.5 9.1 -4.1 5-7.3-10.6-7.6-12 -0.4-1.6-2.3-2.3-3.7-1.5 -5.5 3.2-8.2 9.4-11.5 14.5 -1.1 1.7-4.5 6.6-7.1 3.2 -1.3-1.7-1.9-4.2-2.6-6.2 -1.2-3.5-2.5-6.9-4.7-9.9 -0.9-1.1-2.8-1.9-3.9-0.5 -3.4 4.3-5.7 17.4-13.1 14.1 -5.7-2.6-8.4-9.1-13.2-12.8 -0.7-0.5-1.8-0.4-2.5 0 -2.6 1.5-4.6 3.9-6.6 6.1 -1.1 1.2-2.3 2.4-3.4 3.6 -1 1-4.9-0.4-6.1-0.8 -1.2-0.4-2.9 0.4-3.1 1.7 -2.9 21.1-1.8 43.9 11.8 61.3 10.7 13.8 28.4 19.3 45.3 19.2 16.7-0.1 33.2-6.6 43.6-20 14-18 14.1-43.1 10.4-64.5 -0.5-3.2-5.4-1.8-4.8 1.3 3.4 19.9 3.2 42.2-8.9 59.3 -9.2 13-25 18.6-40.3 19 -15.1 0.4-30.1-4.6-40.3-16 -13.8-15.4-14.6-38.7-11.9-58.1 -1 0.6-2 1.2-3.1 1.7 3.1 1 6.1 2.7 9.2 0.9 4.3-2.5 6.4-7.7 10.7-10.3 -0.8 0-1.7 0-2.5 0 6 4.5 8.8 12.7 17 14 9.8 1.6 11-10.6 15.3-16.1 -1.3-0.2-2.6-0.3-3.9-0.5 4.6 5.9 4.6 19.6 14.3 19.7 9.2 0 11.7-15.5 18.5-19.5 -1.2-0.5-2.4-1-3.7-1.5 1.5 5.6 3.1 18.2 11.9 16.3 4-0.9 5.9-4.2 7.9-7.5 2.1-3.5 3.6-3 6.8-1.6 1.6 0.7 3.1 1.4 4.7 2C303.9 201.2 305.2 196.3 302.2 195.2z" fill="#DDE4D0"/><path d="M248.8 129c-23.8 0-44.1 30.7-51.6 64.2 0.6 0.2 1.2 0.4 1.9 0.6 4.8-5.4 10.9-12.6 18.2-9.1 4.3 2 6.9 6.2 9.9 9.7 0.7 0.8 1.3 1.6 2.1 2.3 0 0 0 0 0 0 0.6-1.5 1.2-3.1 1.9-4.7 2.9-6.4 10.8-15.1 17.8-7.8 3.2 3.4 4.8 7.8 6.5 12.1 4-6.2 7.5-12.8 14.9-14 4.5-0.7 8.5-0.2 10.5 4.1 0.5 1 0.7 2.3 1 3.7 1.4-1.9 3.1-3.6 5.6-4.5 4.1-1.4 7.8 0 11.6 1.6C290.5 156.3 271.2 129 248.8 129z" fill="#DDE4D0"/><path d="M248.8 126.5c-13.6 0.3-24.6 8.9-32.8 19.2 -10.8 13.5-17.4 30.2-21.2 46.9 -0.3 1.4 0.4 2.6 1.7 3.1 0.6 0.2 1.2 0.4 1.9 0.6 0.8 0.3 1.9 0 2.4-0.6 3.6-4.1 8.3-10.4 14.4-9 5.2 1.2 8.8 8.4 12.3 11.9 1.5 1.4 3.5 0.6 4.2-1.1 2-5.1 4.2-10 9.2-12.8 6.4-3.7 10.6 8.4 12.2 12.5 0.8 2 3.3 2.6 4.6 0.6 2.5-4 4.9-8.3 8.8-11.1 2.3-1.6 5.1-1.9 7.8-1.9 3.6 0.1 4.6 3.3 5.2 6.2 0.3 1.7 3.1 2.5 4.2 1.1 4.1-5.3 9.1-4.5 14.7-2.2 1.8 0.8 3.5-1.4 3.1-3.1C294.6 162.6 278.3 127.1 248.8 126.5c-3.2-0.1-3.2 4.9 0 5 11.9 0.2 21.3 8 28.6 16.8 9.4 11.4 15.3 25.7 19.2 39.8 1-1 2.1-2 3.1-3.1 -7.4-3.1-14.3-3.2-19.6 3.5 1.4 0.4 2.8 0.7 4.2 1.1 -1.3-7.5-6.5-10.6-13.8-9.7 -8.5 1.1-12.9 8.6-17 15.2 1.5 0.2 3 0.4 4.6 0.6 -2.8-7-6.7-17.6-16-16.6 -8.3 0.9-12.4 10.3-15 16.9 1.4-0.4 2.8-0.7 4.2-1.1 -4.8-4.7-8.9-13.1-16.5-13.6 -7.5-0.5-12.7 5.5-17.3 10.7 0.8-0.2 1.6-0.4 2.4-0.6 -0.6-0.2-1.2-0.4-1.9-0.6 0.6 1 1.2 2.1 1.7 3.1 3.4-14.8 9-29.1 17.7-41.7 7.2-10.5 18.1-20.4 31.5-20.7C252 131.4 252 126.4 248.8 126.5z" fill="#DDE4D0"/></svg>