<svg version="1.1" xmlns="http://www.w3.org/2000/svg" xmlns:xlink="http://www.w3.org/1999/xlink" viewBox="0 0 768 430" style="enable-background:new 0 0 768 430;" xml:space="preserve"><g id="elephant"> <path style="fill:#DDE4D0;" d="M563.851,263.387c-2.186-9.18-6.141-17.289-6.163-27.037c-0.007-4.844,2.202-9.834,2.741-14.678  c3.198-28.57,7.663-68.304-16.861-89.259c-10.938-9.339-22.777-16.168-34.75-23.898c-9.37-6.055-18.965-13.124-30.125-15.535  c-8.195-1.759-17.17,0.852-25.489,0.443c-18.152-0.882-35.981-4.318-54.07-6.02c-8.234-0.771-16.391,0.82-24.717-0.748  c-17.896-3.368-31.129-16.886-48.662-21.309c-5.554-1.401-15.186-0.441-20.857,0.555c-5.359,0.942-8.201,4.695-12.373,7.667  c-12.119,8.63-28.012,22.472-34.723,36.105c-4.119,8.372-4.562,19.557-7.205,28.579c-3.851,13.153-11.169,24.091-13.336,37.849  c-2.266,14.411,1.208,29.552,1.206,44.027c0,10.891-6.088,24.199-2.213,34.758c5.417,14.764,34.175,19.645,36.2,0  c3.782,1.121,13.072,0.18,9.889-6.094c-1.767-3.482-10.078-7.863-13.749-8.906c-5.533-1.568-14.827,5.236-7.725,9.594l-1.545,4.637  c-5.949-2.842-7.644-11.541-7.159-17.768c0.34-4.373,4.293-8.992,5.859-13.131c4.278-11.3,7.789-22.408,11.117-33.986  c1.33-4.627,1.725-13.377,5.747-16.429c3.767-2.859,9.553-3.276,13.784-5.376c3.12-1.553,5.158-4.75,8.513-5.785  c7.205-2.235,14.294-1.653,17.757-9.486c7.291,11.015,13.377,21.28,14.59,34.758c0.866,9.585-5.685,19.419-7.896,28.58  c-1.542,6.412-1.064,12.931-2.749,19.31c-2.094,7.955-6.186,15.311-8.186,23.172c-1.206,4.744-0.125,10.145-1.607,14.678  c-2.651,8.117-17.778,12.967-15.979,23.172c0.832,4.713,6.333,5.637,10.24,6.441c9.075,1.854,18.847,0.711,27.805-0.697  c2.983-0.461,6.607,0.109,8.932-2.215c5.624-5.625-1.021-16.244,0.802-22.842c1.306-4.719,5.771-8.834,8.11-13.127  c5.075-9.324,9.369-19.152,12.282-29.355h0.772c0.187,8.992,2.355,20.262,5.802,28.58c2.178,5.26,7.784,12.799,7.631,18.537  c-0.264,9.84-15.171,16.285-8.019,27.791c7.192,11.588,24.192-0.068,33.207-2.107c4.936-1.113,11.555,0.348,13.98-5.633  c3.344-8.248-3.445-16.072-4.581-23.912c-1.304-8.969,0.38-17.99-1.267-27.035c-1.196-6.617-6.59-14.32-6.409-20.855  c0.129-4.594,3.39-10.041,4.453-14.676l29.354,13.789l12.359,7.066c0.054,6.564-0.134,14.414,1.023,20.857  c0.552,3.08,3.439,6.184,2.56,9.371c-1.724,6.199-16.894,12.555-13.479,19.129c1.876,3.609,7.06,4.844,10.667,5.771  c9.13,2.35,33.052,5.877,39.764-2.682c2.957-3.775,2.711-10.055,2.719-14.598c0-11.441,1.204-23.566-1.545-34.76  c9.933,6.135,12.197,18.445,17.179,28.58c1.721,3.514,5.322,9.074,4.147,13.123c-1.814,6.232-20.422,15.973-11.817,24.393  c2.386,2.332,6.728,2.512,9.802,3.445c8.884,2.705,35.848,7.115,40.05-4.664c3.924-11.016,2.92-30.457,0.194-41.703  c-1.609-6.619-5.347-12.359-5.995-19.312c-0.604-6.395,3.823-12.859,4.303-19.309c0.656-8.969-2.117-16.847-2.395-25.49  c-0.177-5.553,1.69-11.285,1.69-16.994c8.48,22.495-0.4,46.685,5.778,69.517c0.896,3.33,1.252,22.176,7.908,20.277  C563.621,269.818,564.353,265.494,563.851,263.387z"/></g><g id="Layer_1"></g></svg>