<svg xmlns="http://www.w3.org/2000/svg" viewBox="0 0 768 430"><style>.a{fill:#28466B;}.b{fill:#7694C1;}.c{fill:#85A5DD;}.d{fill:#DDD878;}.e{fill:#FCFFA2;}.f{fill:#C1BC5F;}.g{fill:#96B0EA;}.h{fill:#FFB6B6;}.i{fill:#F94141;}.j{fill:#C9C5C5;}.k{fill:#FFF;}.l{fill:#137FFF;}.m{fill:#13ABFF;}.n{fill:#0031FF;}</style><path d="M527.8 302.7c6.5-1.5 12.7-10.3 12-19.9 -0.7-9.6-15.5-24.5-12-43.3 0.9-0.5 6 0.7 6 0.7 -2.2 12.7 3.4 20.8 8.3 29.4 10.9 19.2 9.6 39.4-16.1 47.6C521.5 311.7 527.8 302.7 527.8 302.7z" fill="#667EB2"/><path d="M527.8 302.7c6.5-1.5 12.7-10.3 12-19.9 -0.7-9.6-15.5-24.5-12-43.3 0.9-0.5 4.3 0.3 4.3 0.3 -2.2 12.7 1.7 20.3 6.6 28.8 10.9 19.2 5 36.4-14.3 41.7C520 304.8 527.8 302.7 527.8 302.7z" fill="#7388BF"/><path d="M525.7 317.8l-0.2-0.3c-4.6-5.7 1.6-14.7 1.9-15.1l0.1-0.2 0.2 0c6.1-1.4 12.3-9.7 11.6-19.4 -0.2-3.4-2.3-7.5-4.7-12.2 -4.3-8.5-9.5-19-7.3-31.2l0-0.2 0.2-0.1c0.2-0.1 0.6-0.2 1.1-0.2 1.7 0 5.2 0.8 5.3 0.8l0.5 0.1 -0.1 0.5c-2 11.4 2.3 18.9 6.9 26.8 0.4 0.7 0.9 1.5 1.3 2.2 6.5 11.4 8.2 22.4 4.8 31 -3.1 8-10.3 13.8-21.3 17.4L525.7 317.8zM528.1 303.2c-0.8 1.2-5.4 8.6-2 13.4 10.5-3.4 17.3-9 20.3-16.6 3.2-8.3 1.6-19-4.8-30.1 -0.4-0.7-0.8-1.5-1.3-2.2 -4.4-7.6-9-15.5-7.1-27 -1-0.2-3.3-0.7-4.6-0.7 -0.2 0-0.3 0-0.4 0 -2 11.7 3.1 22 7.3 30.2 2.4 4.9 4.5 9.1 4.8 12.6C541 292.8 534.5 301.5 528.1 303.2z" class="a"/><path d="M530.9 249.8c8.8 0.4 21.3-13.4 21-32.3 -0.3-18.9-14.4-32.5-24.1-34.2 4.5 5.3 5.5 14.1 3.1 22.3 -0.3-2.7-2.3-7.7-4.5-9.1 1.4 2.8-1.4 9.2-4.2 14.4C511.3 231.4 517.3 249.2 530.9 249.8z" fill="#0C1119"/><path d="M531 242.6c8.8 0.4 15-7.2 14.7-26.1 -0.3-18.9-8.3-31.4-18-33.1 4.5 5.3 5.5 14.1 3.1 22.3 -0.3-2.7-2.3-7.7-4.5-9.1 1.4 2.8-1.4 9.2-4.2 14.4C511.3 231.4 517.5 242 531 242.6z" fill="#0F151E"/><path d="M532.1 186.6c2 5.1 3.5 16.2-2.7 24.9 0.1-1.9-0.1-8.4-1.7-11.2 -0.9 10.3-8.8 17.8-8.4 29.9 0.4 12.1 18.7 9.3 21.6-2.2C544 215.9 543.7 197.4 532.1 186.6z" fill="#141B26"/><path d="M531.3 250.3L531.3 250.3c-0.1 0-0.3 0-0.4 0 -5.1-0.2-9.4-2.9-12-7.5 -4.5-7.9-3.4-20.2 2.9-32 4.7-8.9 4.9-12.5 4.2-14l-0.7-1.5 1.5 0.9c1.9 1.1 3.5 4.4 4.3 7.2 1.6-7.6 0.3-15.1-3.5-19.7l-0.9-1.1 1.4 0.2c10 1.8 24.1 15.8 24.5 34.7 0.2 10.4-3.6 20.6-10.1 27.2C538.8 248.3 534.7 250.3 531.3 250.3zM527.2 198.1c0.2 2.8-1.4 7.1-4.6 13.2 -6.1 11.5-7.2 23.4-2.9 31 2.4 4.3 6.4 6.8 11.2 7 0.1 0 0.2 0 0.4 0l0 0c3.2 0 6.9-2 10.3-5.4 6.3-6.4 9.9-16.3 9.8-26.4 -0.3-17.5-12.8-30.7-22.3-33.4 3.7 5.4 4.6 13.7 2.3 21.7l-0.7 2.4 -0.3-2.5C530.1 203.6 528.8 200 527.2 198.1z" fill="#06090D"/><path d="M336.7 270.7c-1.3 11.3-4.7 25.7-18.6 34.5 -12.9 8.2-21.4 20.4-22.2 45.1 -1.8 2.8-4.6 8.9-2.7 12.1 10.4 9.8 31.5 7.5 43.7 0.5 4-11.3 11.3-38 22.6-44.4 11.3-6.4 22.4-30.9 24.5-43.2C382.6 263.5 343.4 271.2 336.7 270.7z" class="b"/><path d="M317.7 324c3.1 0 6.2-2.1 8.2-4.1 1-2.1 0-4.1-1-6.2 20.2-4.6 15-27.2 13.7-43 -0.7 0-1.4 0-1.8 0 -1.3 11.3-4.7 25.7-18.6 34.5 -12.9 8.2-21.4 20.4-22.2 45.1 -1.8 2.8-4.6 8.9-2.7 12.1 4.3 4.1 10.5 6.1 17.2 6.5 0.7-11.5 1.6-23.3 8.1-33.5C320.7 332.3 320.7 327.1 317.7 324z" class="c"/><path d="M313.2 369.5c-6 0-14.4-1.2-20.2-6.7l-0.1-0.1c-2.1-3.4 0.6-9.4 2.6-12.5 0.7-22.2 7.4-35.8 22.4-45.4 14-8.9 17.1-23.8 18.3-34.2l0.1-0.5 0.5 0c0.2 0 0.5 0 0.7 0 0 0 0 0 0 0 1.8 0 5-0.3 8.6-0.7 5.9-0.6 13.3-1.3 20.1-1.3 11.8 0 17.8 2.3 18.5 7.1l0 0.1 0 0.1c-2.2 13.2-13.6 37.3-24.7 43.6 -9.6 5.4-16.5 26.3-20.6 38.7 -0.7 2-1.3 3.8-1.8 5.4l-0.1 0.2 -0.2 0.1C330.6 367.2 321.6 369.5 313.2 369.5zM293.7 362.1c5.6 5.3 13.7 6.4 19.5 6.4 8.1 0 16.9-2.2 23.4-5.9 0.5-1.5 1.1-3.2 1.7-5.2 4.1-12.6 11.1-33.7 21-39.3 10.9-6.2 22-29.8 24.2-42.8 -0.6-4.1-6.5-6.1-17.4-6.1 -6.7 0-14.1 0.7-20 1.3 -3.8 0.4-6.9 0.7-8.7 0.7 0 0 0 0 0 0 -0.1 0-0.2 0-0.3 0 -1.2 10.6-4.6 25.4-18.7 34.4 -14.7 9.4-21.2 22.8-21.9 44.7l0 0.1 -0.1 0.1C294.7 353.3 292 359.1 293.7 362.1z" class="a"/><path d="M329.4 318.1c-0.1-0.1-9.6-9-19.1-6.2l-0.3-1C320.1 308 329.4 318.1 329.4 318.1z" class="a"/><path d="M304.5 318l0.9-0.6c5.4 8.5 17.4 6.7 17.5 6.7C322.9 324.2 310.1 327.1 304.5 318z" class="a"/><path d="M322.6 319.7c0-0.1-5-5.2-15-4.9l0-1C318.1 313.6 322.6 319.7 322.6 319.7z" class="a"/><path d="M300.5 351.5c-2.6-0.6-5.1 1.2-7 4 -0.9 2.5-1.3 5.2-0.2 6.9 3.3 3.2 7.8 5 12.7 5.9C306.4 361.5 304.1 352.3 300.5 351.5z" class="d"/><path d="M300.5 351.5c-2.6-0.5-5.1 1.3-7 4 -0.9 2.5-1.3 5.2-0.2 6.9 1.3 1.2 2.7 2.2 4.3 3.1C301.2 361.6 302.6 356.4 300.5 351.5z" class="e"/><path d="M306.5 369l-0.6-0.1c-5.4-1-9.7-3-13-6.1l-0.1-0.1c-1-1.7-1-4.2 0.1-7.4l0.1-0.1c2.3-3.3 4.9-4.8 7.5-4.2 4.1 0.9 6.3 10.9 6 17.4L306.5 369zM293.7 362.1c3 2.8 6.9 4.7 11.8 5.6 0.2-6.7-2.1-15.1-5.2-15.8 -2.2-0.5-4.5 0.9-6.4 3.7C293.3 357.7 292.7 360.4 293.7 362.1z" class="f"/><path d="M318.6 356.1c-4.6 0-7.3 6.6-7.6 12.8 5.1 0.3 10.5-0.4 15.5-1.7C324.8 361.6 321.5 356.1 318.6 356.1z" class="d"/><path d="M316.8 356.5c-3.5 1.4-5.6 7.1-5.8 12.5 2.4 0.1 4.9 0 7.3-0.2C319.2 364.5 318.9 360.1 316.8 356.5z" class="e"/><path d="M313.2 369.5L313.2 369.5c-0.8 0-1.5 0-2.2-0.1l-0.5 0 0-0.5c0.2-6.5 3.1-13.3 8.1-13.3 3.4 0 6.7 5.9 8.4 11.4l0.2 0.5 -0.5 0.1C322.3 368.9 317.6 369.5 313.2 369.5zM311.6 368.4c4.6 0.2 9.6-0.4 14.3-1.6 -1.9-5.8-5-10.2-7.3-10.2C314.6 356.6 311.9 362.5 311.6 368.4z" class="f"/><path d="M438.5 195.2c8.2 17.5 32.2 21.9 59.3 42.7 27.1 20.7 42.7 43.9 37.1 85.2 -5.6 41.2-47.1 58.8-90.8 44 -16.2-5.5-37.5 0.3-52.9-8.6 -26-15-44.1-46.9-52.4-65.6 -15.8-35.7 15.5-57-9-82.5C343.4 195.5 423.3 190.4 438.5 195.2z" class="b"/><path d="M534.8 292.4c-4-23.4-17.5-39.6-37-54.6 -27.1-20.7-51-25.1-59.3-42.7 -15.2-4.8-95.1 0.3-108.8 15.1 21.8 22.7-0.7 42.1 5.4 71.4 10.1 18.9 37 23.8 56.7 32 2.2 1.6 4.6 2.9 6.9 4.4 0.8-1.2 1.6-2.3 2.4-3.4 6.2-9.3 8.2-20.6 5.2-30.9 8.2 7.2 9.3 17.5 17.5 23.7 10.3 8.2 23.7 6.2 34 13.4 10.6 9.6 17.7 22.2 21.5 35.8C512.4 351.4 534 322.9 534.8 292.4z" class="c"/><path d="M531 281.8c-0.8-4.1-2.2-8-3.9-11.7 -6.7-12.3-16.8-22.5-29.4-32.2 -3.5-2.7-6.9-5.1-10.3-7.3 -25.4-9.7-53.7-8.5-80.2 2.7 -13.4 6.2-28.9-6.2-44.3-6.2 -9.6 0.9-17 6.2-24.1 12.8 -1.1 7.5-3.5 15.3-4.5 23.9 1.4 10.7 4.7 20.8 14.1 26.2 14.4 9.3 29.9 6.2 45.4 7.2 3.1 0.4 5.4 1.8 7.3 3.8 2.2-7.6 1-16.8 1-25.4 4.1 1 8.2 4.1 9.3 7.2 10.3 22.7 36.1 21.7 54.6 28.9 12.6 4.5 16.1 16.7 17.3 30.8 6.1-3.1 11.7-8.4 16.7-9.1C526.9 327.1 535.2 305.5 531 281.8z" class="g"/><path d="M474.2 372.7c-9.9 0-20.1-1.8-30.3-5.2 -7-2.4-15.1-2.6-23-2.9 -10.4-0.3-21.2-0.7-30-5.8 -29.3-16.9-47.7-54.7-52.7-65.9 -7.5-17-4.5-30.8-1.8-43.1 3.1-13.9 5.7-26-7.1-39.2l-0.3-0.3 0.3-0.4c10.3-11.1 58-17 88.5-17 9.8 0 17.1 0.6 20.7 1.8l0.2 0.1 0.1 0.2c4.9 10.3 15.4 16.1 28.7 23.4 9.1 5 19.5 10.7 30.4 19.1 23 17.6 43.4 40.2 37.3 85.7C531.3 353.2 507.3 372.7 474.2 372.7zM330.5 210.3c12.8 13.5 10.1 25.7 7 39.8 -2.6 12.1-5.6 25.8 1.7 42.4 4.9 11.1 23.2 48.7 52.2 65.4 8.6 5 19.2 5.3 29.5 5.6 7.9 0.3 16.2 0.5 23.3 2.9 10.1 3.4 20.2 5.2 30 5.2 32.5 0 56.2-19.1 60.2-48.7 6.1-44.9-14.1-67.3-36.9-84.7 -10.9-8.3-21.2-14-30.3-19 -13.4-7.4-24-13.2-29-23.7 -3.6-1.1-10.7-1.7-20.2-1.7C387.9 193.9 341.2 199.6 330.5 210.3z" class="a"/><path d="M411.2 296.2l-40.3-27.5c0 0-1.1 11-8.6 21.5 -6 8.5-17.8 15.7-23.9 22.9 -13.8 16-11.9 43.2-13 48.4 -1.2 5.1-5.3 9.6-4 14.4 13.8 13.7 47.3 13 55.4 3 -4.8-12.8 5-17.8 1.2-29.9C417.2 339.9 411.2 296.2 411.2 296.2z" class="b"/><path d="M362.3 290.2c-6 8.5-17.8 15.7-23.9 22.9 -13.8 16-11.9 43.2-13 48.4 -1.2 5.1-5.3 9.6-4 14.4 7.1 7 19.4 10.3 30.8 10.4 10.7-14.5 22.4-31.4 15-50.8 16.5 7.2 25.8-9.3 34-20.6 4.2-6.3 6.5-13.6 6.6-20.9l-36.8-25.1C370.9 268.7 369.8 279.7 362.3 290.2z" class="c"/><path d="M362.3 290.2c-6 8.5-17.8 15.7-23.9 22.9 -13.8 16-11.9 43.2-13 48.4 -1.2 5.1-5.3 9.6-4 14.4 5.5 5.4 14.1 8.6 23 9.8 0.5-2.6 2-4.8 3.2-5.9 12.4-13.4 21.6-35.1 10.3-50.5 16.5 1 30.9-9.3 40.2-21.6 3.5-4.7 4.4-10.8 4.4-17.3l-29.5-28C373 262.3 369.8 279.7 362.3 290.2z" class="g"/><path d="M353 386.7c-10.5 0-24.1-2.7-32-10.5l-0.1-0.1 0-0.1c-0.9-3.3 0.6-6.4 2-9.3 0.8-1.7 1.6-3.5 2-5.4 0.2-1 0.3-3.1 0.5-5.7 0.6-10.5 1.6-30.1 12.7-42.9 2.7-3.1 6.4-6.2 10.3-9.5 5-4.2 10.2-8.6 13.6-13.3 7.3-10.2 8.5-21.1 8.5-21.3 0 0 0.4 5.6-2.4 12.5 -1.3 3-2.9 6.2-5.2 9.4 -3.5 4.9-8.7 9.3-13.8 13.5 -3.9 3.2-7.5 6.3-10.1 9.4 -10.8 12.5-11.8 31.9-12.4 42.3 -0.1 2.7-0.3 4.7-0.5 5.8 -0.4 2-1.3 3.8-2.1 5.6 -1.3 2.9-2.6 5.6-1.9 8.5 8.5 8.3 23.8 10.6 34.3 10.1 9.3-0.5 16.7-3.1 20-6.9 -2.4-6.6-0.9-11.2 0.5-15.7 1.3-4.3 2.6-8.3 0.8-14l-0.2-0.5 0.5-0.1c38.3-8.7 32.9-51.7 32.8-52.1 0 0 2.4 11-1 23.1 -3.4 12.1-11.7 25.3-31.1 29.9 1.7 5.7 0.3 10-0.9 14.1 -1.4 4.6-2.8 8.9-0.4 15.3l0.1 0.3 -0.2 0.2c-3.4 4.2-11.2 7-21 7.5C355.2 386.7 354.1 386.7 353 386.7z" class="a"/><path d="M378.3 352.9c-0.6-8.3-5.2-11.5-5.3-11.6 0 0 5.7 2.7 6.3 11.5L378.3 352.9z" class="a"/><path d="M353.7 327.7c-0.1-0.1-7.1-11.1-18.6-9.5l-0.1-1C347.1 315.5 353.7 327.7 353.7 327.7z" class="a"/><path d="M348.3 336.8c-4.3 0-13.4-1-18.3-9l0.9-0.5c6.1 10.1 19.5 8.5 19.6 8.4C350.4 335.6 349.7 336.8 348.3 336.8z" class="a"/><path d="M348.1 328.7c-0.1-0.1-6.3-6.1-15.6-5.6l-0.1-1C342.2 321.5 348.1 328.7 348.1 328.7z" class="a"/><path d="M330.4 366c-4.3-0.3-7.9 5-9 9.8 0 0 0 0 0 0 3.5 3.5 8.3 6 13.6 7.7C335.9 378 335.1 366.3 330.4 366z" class="d"/><path d="M330.5 366c0 0-0.1 0-0.1 0 -4.3-0.3-7.9 5-9 9.8 0 0 0 0 0 0 1.5 1.5 3.3 2.9 5.3 4C330.6 376.8 331.9 371.1 330.5 366z" class="e"/><path d="M335.4 384.2l-0.6-0.2c-5.8-1.9-10.4-4.5-13.8-7.8l-0.1-0.1 -0.1-0.3 0-0.2c1.2-5.1 5.1-10.6 9.6-10.2 1 0.1 1.9 0.6 2.7 1.6 2.7 3.5 3.1 12 2.3 16.6L335.4 384.2zM321.9 375.7c3.1 3 7.4 5.5 12.6 7.2 0.6-4.6 0.1-12.2-2.2-15.2 -0.6-0.7-1.2-1.2-2-1.2C326.6 366.2 323.2 371 321.9 375.7z" class="f"/><path d="M346.3 370.3c-5.3 0.5-8.3 8.4-8.1 14.1 5.3 1.3 10.9 1.9 16.3 1.8C353.7 379.6 350.8 369.9 346.3 370.3z" class="d"/><path d="M346 370.4c-5.1 0.7-8.1 8.5-7.9 14.1 2.3 0.6 4.7 1 7.1 1.3C347.8 380.7 348.8 375 346 370.4z" class="e"/><path d="M352.9 386.7c-5.1 0-10.2-0.6-14.9-1.8l-0.4-0.1 0-0.4c-0.2-5.7 2.8-14.1 8.6-14.7 0.1 0 0.2 0 0.3 0 4.9 0 7.8 10 8.4 16.4l0.1 0.6 -0.6 0C353.9 386.7 353.4 386.7 352.9 386.7zM338.6 384c4.8 1.2 10.1 1.7 15.2 1.7 -0.7-6.3-3.5-15.2-7.5-14.9C341.4 371.3 338.6 378.7 338.6 384z" class="f"/><path d="M363.2 372.9c-4.2 1.6-5.4 7.9-4.7 13.1 5.9-0.6 11.1-2 14.8-4.2C370.5 376.6 366.5 371.6 363.2 372.9z" class="d"/><path d="M364.2 372.7c-0.3 0-0.7 0.1-1 0.2 -4.2 1.6-5.4 7.9-4.7 13.1 2.5-0.2 4.8-0.6 7-1.2C366.9 380.9 366.9 376.7 364.2 372.7z" class="e"/><path d="M358 386.5l-0.1-0.5c-0.8-5.4 0.5-11.9 5-13.6 0.4-0.2 0.8-0.2 1.3-0.2 4.1 0 8 6.5 9.5 9.3l0.2 0.4 -0.4 0.3c-3.7 2.2-8.9 3.7-15 4.3L358 386.5zM364.3 373.2c-0.3 0-0.6 0.1-0.9 0.2 -3.7 1.4-5 7-4.4 12 5.5-0.6 10.3-1.9 13.6-3.8C369.8 376.4 366.6 373.2 364.3 373.2z" class="f"/><path d="M491.4 309.6c0 0-15.8-3.6-30.9-2.2 -15.1 1.4-25.6 12.4-41.6 9.6 -12.5-1.1-17.5 11.5-17 27 0.5 15.5 3.3 38.8 16 40.4 12.7 1.7 13.5-10.3 31.4-8.7 27.5 2.5 65.8-3.1 80.3-34.8L491.4 309.6z" class="b"/><path d="M519.9 333l-28.6-23.4c0 0-15.8-3.6-30.9-2.2 -15.1 1.4-25.6 12.4-41.6 9.6 -12.5-1.1-17.5 11.5-17 27 0.2 6.2 0.8 13.6 2.2 20.4 23.6-6.8 48.9-4 73.4-7.4C495.3 354.6 509.9 345.6 519.9 333z" class="c"/><path d="M475.4 344.7c9.3 0 17.5-10.3 24.7-11.3 5.3-1.2 9.8-3 13.7-5.3l-22.4-18.4c0 0-15.8-3.6-30.9-2.2 -15.1 1.4-25.6 12.4-41.6 9.6 -12.5-1.1-17.5 11.5-17 27 0.1 2.8 0.3 5.8 0.5 8.8C426 341.6 449.7 345.7 475.4 344.7z" class="g"/><path d="M420.2 385.1c-0.8 0-1.6-0.1-2.4-0.2 -12.5-1.6-15.8-23.2-16.4-40.9 -0.4-11 2-19.5 6.7-23.9 2.9-2.7 6.5-3.9 10.9-3.6 9.2 1.6 16.4-1.4 24-4.5 5.4-2.2 11-4.5 17.4-5.1 15-1.4 30.9 3.2 30.9 3.2 -0.2 0-15.9-3.6-30.8-2.2 -6.3 0.6-11.8 2.8-17.1 5.1 -7.4 3.1-15.1 6.2-24.6 4.6 -4-0.3-7.4 0.8-10 3.3 -4.5 4.3-6.7 12.5-6.4 23.1 0.6 17.4 3.7 38.4 15.5 39.9 5.7 0.7 8.9-1.3 12.5-3.7 4.3-2.8 9.1-5.9 18.9-5 14.4 1.3 62.8 2.7 79.8-34.5l0.9 0.4c-17.3 37.9-66.3 36.5-80.9 35.1 -9.4-0.9-14.1 2.2-18.2 4.8C427.8 383.1 424.8 385.1 420.2 385.1z" class="a"/><ellipse transform="matrix(0.9968 -0.0801 0.0801 0.9968 -26.7326 34.1329)" cx="412.1" cy="350.3" rx="20" ry="34.9" fill="#6685B2"/><path d="M414 385.7c-11 0-20.8-14.8-22.3-33.7 -1.6-19.5 6.3-36.1 17.6-37 11.4-0.9 21.7 14.2 23.3 33.7 0.8 9.4-0.6 18.4-3.9 25.4 -3.3 7.1-8.2 11.2-13.7 11.6C414.6 385.6 414.3 385.7 414 385.7zM410.2 316c-0.3 0-0.6 0-0.9 0 -10.7 0.9-18.2 16.9-16.7 35.9 1.5 18.9 11.3 33.6 22.2 32.7 5.1-0.4 9.7-4.3 12.9-11 3.2-6.8 4.6-15.6 3.8-24.8C430 330.4 420.7 316 410.2 316z" fill="#1A3856"/><path d="M440.5 347.8c-0.8-3.9-7.1-6.6-9.6-6.9 0 0 0 0 0 0 0.5 2.5 0.9 5.1 1.1 7.8 0.3 3.9 0.2 7.7-0.2 11.3 0 0 0 0 0 0C437 359.9 441.3 351.7 440.5 347.8z" class="d"/><path d="M440.4 347.4c-1.1-3.7-7.1-6.2-9.5-6.5 0 0 0 0 0 0 0.5 2.5 0.9 5.1 1.1 7.8 0 0.3 0 0.6 0.1 0.9C435.3 349.8 438.4 349.2 440.4 347.4z" class="e"/><path d="M431.9 360.5h-0.6l0.1-0.6c0.4-3.6 0.5-7.4 0.2-11.2 -0.2-2.6-0.6-5.2-1.1-7.7l-0.1-0.4 0.5-0.2 0.2 0c2.6 0.3 9.2 3.2 10 7.3 0.5 2.4-0.9 6.4-3.2 9.3 -1.8 2.2-3.9 3.5-6 3.5H431.9zM431.6 341.6c0.5 2.3 0.8 4.7 1 7.1 0.3 3.6 0.3 7.2-0.1 10.7 1.6-0.2 3.2-1.3 4.6-3.1 2.1-2.6 3.4-6.3 3-8.4C439.3 344.7 434.2 342.2 431.6 341.6z" class="f"/><path d="M432 348.7c-0.2-2.7-0.6-5.3-1.1-7.8 -6 3-4.1 19.1 1 19C432.3 356.4 432.4 352.6 432 348.7z" class="d"/><path d="M431.9 360.5c-2.1 0-3.8-2.2-4.7-5.9 -1.3-5.4-0.3-12.2 3.5-14.1l0.6-0.3 0.1 0.7c0.5 2.6 0.9 5.2 1.1 7.8 0.3 3.8 0.3 7.7-0.2 11.4l-0.1 0.4L431.9 360.5zM430.5 341.7c-2.8 2.1-3.5 8-2.4 12.6 0.7 2.9 1.9 4.7 3.2 5 0.4-3.5 0.4-7.1 0.1-10.6C431.3 346.4 431 344 430.5 341.7z" class="f"/><path d="M429.1 334.4c0 0 0 0 0 0 4.8-1.7 6.1-8.1 3.7-11.2 -2.4-3.1-10.3-3.8-12.4-3.2 0 0 0 0 0 0C424 323.4 427 328.4 429.1 334.4z" class="d"/><path d="M432.4 322.8c-2.7-2.7-10-3.3-12-2.8 0 0 0 0 0 0 2.1 2 4 4.6 5.7 7.6C428.9 327.1 431.2 325.7 432.4 322.8z" class="e"/><path d="M429.2 335h-0.5l-0.1-0.3c-2.1-6-5-10.9-8.5-14.2l-0.3-0.3 0.4-0.6 0.1 0c0.6-0.2 1.5-0.2 2.1-0.2 3.2 0 8.8 1 10.8 3.6 1.3 1.7 1.6 4.2 0.9 6.7 -0.8 2.6-2.5 4.5-4.8 5.3L429.2 335zM421.5 320.4c3.2 3.3 5.9 7.9 7.9 13.4 1.8-0.8 3.1-2.4 3.7-4.5 0.6-2.1 0.4-4.3-0.7-5.7 -1.8-2.3-7.1-3.2-10-3.2C422.1 320.4 421.8 320.4 421.5 320.4z" class="f"/><path d="M429.1 334.4c-2.1-6-5.1-11-8.7-14.4C416.6 325.9 423.1 335.2 429.1 334.4z" class="d"/><path d="M428.4 335L428.4 335c-3 0-6.4-2.3-8.2-5.8 -1.8-3.3-1.9-6.8-0.2-9.4l0.3-0.5 0.4 0.4c3.6 3.4 6.7 8.5 8.8 14.6l0.2 0.6 -0.6 0.1C428.9 335 428.7 335 428.4 335zM420.5 320.9c-1.1 2.2-0.9 5.1 0.5 7.8 1.7 3.1 4.6 5.3 7.3 5.3C426.4 328.6 423.7 324.1 420.5 320.9z" class="f"/><path d="M409.5 322c2.8 0.2 6.2-1.7 7.9-4.3 -2.5-1.6-5.3-2.4-8-2.1 -2.3 0.2-4.4 1-6.4 2.5C404.3 320.3 406.7 321.8 409.5 322z" class="d"/><path d="M409.9 322.5L409.9 322.5c-0.1 0-0.3 0-0.4 0 -2.9-0.2-5.5-1.8-7-4.3l-0.2-0.4 0.4-0.3c2.1-1.5 4.3-2.4 6.6-2.5 2.8-0.2 5.6 0.5 8.3 2.2l0.4 0.3 -0.3 0.4C416.1 320.6 412.8 322.5 409.9 322.5zM403.6 318.1c1.3 2 3.5 3.2 5.9 3.4 2.5 0.2 5.5-1.4 7.1-3.7 -2.4-1.4-4.8-2-7.3-1.8C407.4 316.2 405.4 316.9 403.6 318.1z" class="f"/><path d="M454.1 322.6c0-0.1-1.1-9.3-7.1-11.3l0.3-1C453.9 312.6 454.1 322.6 454.1 322.6z" class="a"/><path d="M463 322.7c0-0.1-2.6-10.1-12.3-12.7l0.3-1C461.3 311.7 463 322.7 463 322.7z" class="a"/><path d="M316.6 69.7c-8-0.3-20.6-9.8-28.1-17.5 -7.5-7.7-17.8-12.9-32-6.4 -14.2 6.4-30.7 26.3-33 28.9 -2.3 2.6-16.2 17.8-8.8 27.1 7.5 9.3 1.8 18 7 28.4 5.2 10.3 9.3 7.7 12.1 16 2.8 8.2 14.9 21.1 39.2 18 24.2-3.1 45.4-28.9 50-39.9C327.7 113 319.5 74.3 316.6 69.7z" class="b"/><path d="M288.8 110.6c-7.2-4.1-21.6 0-22.7 10.3 -1-10.3 5.2-18.6 8.2-26.8 2.1-5.2-5.2-8.2-9.3-5.2 -5.2 4.1-11.3 7.2-14.4 13.4 2.1-10.3 8.2-17.5 15.5-24.7 1-2.1 0-6.2-1-6.2 -16.5-5.2-29.9 6.2-38.1 20.6 4.1-20.6 21.6-38.1 43.3-34 13.4 2.1 17.5 16.5 27.8 24.7 7.5 6.6 15.6 13.9 25.4 17.6 -1.7-13.7-5.2-28-6.9-30.7 -8-0.3-20.6-9.8-28.1-17.5 -7.5-7.7-17.8-12.9-32-6.4 -14.2 6.4-30.7 26.3-33 28.9 -2.3 2.6-16.2 17.8-8.8 27.1 7.5 9.3 1.8 18 7 28.4 5.2 10.3 9.3 7.7 12.1 16 2.8 8.2 14.9 21.1 39.2 18 12-1.5 23.2-8.6 32.1-16.8C304.7 132.6 302.2 116.5 288.8 110.6z" class="c"/><path d="M265.9 165c0 0 0 0 0 0 -20.6 0-30.3-12.3-32.5-18.9 -1.4-4-3-5.3-5-7 -2.1-1.7-4.5-3.7-7.1-9 -2.4-4.7-2.5-9.2-2.6-13.4 -0.1-5.1-0.3-9.9-4.3-14.9 -4.9-6.1-1.8-15.9 8.7-27.6l0.1-0.1c0.2-0.2 0.5-0.6 0.9-1 12.7-14.6 23.6-24 32.3-28 12.1-5.5 23-3.3 32.5 6.6 8.2 8.5 20.3 17.1 27.7 17.4l0.3 0 0.1 0.2c3 4.8 11.1 43.8 6.5 54.8 -4.3 10.2-25.5 37.1-50.4 40.3C270.7 164.8 268.2 165 265.9 165zM268.9 43.3c-3.9 0-7.9 1-12.1 2.9 -8.5 3.9-19.3 13.2-31.9 27.7 -0.4 0.5-0.7 0.8-0.9 1l-0.1 0.1c-5.9 6.5-14.8 18.6-8.6 26.3 4.2 5.2 4.4 10.2 4.5 15.5 0.1 4.1 0.2 8.4 2.5 13 2.5 5.1 4.8 7 6.8 8.6 2.1 1.7 3.9 3.2 5.3 7.4 2.2 6.3 11.5 18.2 31.5 18.2h0c2.3 0 4.7-0.2 7.1-0.5 24.5-3.1 45.4-29.6 49.6-39.6 4.5-10.7-3.3-48-6.3-53.7 -8.6-0.5-21.5-10.8-28.2-17.7C282.2 46.3 275.9 43.3 268.9 43.3z" class="a"/><path d="M304.2 86.6c-6.1-0.9-10.8-6.7-15.8-12.8 -6.2-7.6-12.5-15.5-22.5-15.5 -13.7 0-27.7 15.2-27.8 15.4l-0.8-0.7c0.6-0.6 14.4-15.7 28.6-15.7 10.5 0 17.3 8.4 23.3 15.9 4.8 6 9.4 11.6 15.1 12.5L304.2 86.6z" class="a"/><path d="M269 112.2c0 0 8.3-25.3 29.1-25.5 -21.9-15.4-37.2 0.7-37.3 0.9 0 0 16-18.4 39.3-0.8l1.3 1 -1.7-0.1C278.6 86.6 269.1 111.9 269 112.2z" class="a"/><path d="M366.1 51.2c-41.2-7.2-74.2 19.2-82.1 60.8 -13.7 8.9-6.5 38.6-4.2 55.1 2.3 16.5 10.6 29.5 17.3 31.7 6.7 2.2 11.3 8 13.7 17.4 3.4 12.8 17.2 15.1 27.8 5.5 12-5.2 33.7-6.7 45.5-4.1 11.9 2.6 48.5 4.5 69.3-17.7 10.3-1.5 22.4 12.4 33.6 12.4s11.5-7.9 24.1-8.9c12.5-1 10.7-16.5 18.9-22.7 8.2-6.2 25.1-9.3 26.6-15.8 1.5-6.5-7.9-11.5-5.8-24.1 2.1-12.5 12.5-19.2 9.8-30.4 -2.7-11.2-13.4-9.4-24.2-23.2 -10.8-13.7-20.1-24.6-36.8-23.9 -16.7 0.7-35 25.9-48.1 32.5C440.3 71 414 45.9 366.1 51.2z" class="b"/><path d="M556.6 164.8c1.5-6.5-7.9-11.5-5.8-24.1 2.1-12.5 12.5-19.2 9.8-30.4 -2.7-11.2-13.4-9.4-24.2-23.2 -10.8-13.7-20.1-24.6-36.8-23.9 -16.7 0.7-35 25.9-48.1 32.5 -11.2-24.7-37.5-49.8-85.4-44.5 -41.2-7.2-74.2 19.2-82.1 60.8 -13.7 8.9-6.5 38.6-4.2 55.1 2.3 16.5 11.8 25.1 18.5 27.3s11.5 9.2 14 18.5c3.4 12.8 15.2 13.2 25.8 3.6 20.5-12.2 32.4-8.3 44.2-5.7 5.1 1.1 15 3.3 26.3 3.7 30.7-6.2 54.4-33.5 48.2-66.8 7.2 12.4 6.2 27.8 6.2 42.3 0 5.2 15.7 10.7 19.8 10.7 13.4 0 11.6-4 31.7-5.5 4.1-1 4.1-10.3 8.2-14.4 7.3-5.8 16.6-6 25-8.8C552.4 169.8 556 167.6 556.6 164.8z" class="c"/><path d="M550.8 140.7c2.1-12.5 12.5-19.2 9.8-30.4 -2.7-11.2-13.4-9.4-24.2-23.2 -10.8-13.7-20.1-25.2-36.8-23.9 -23.7 1.9-36.1 37.1-61.4 35.1 -4.2-21.2-24.1-52.5-72.1-47.2 -41.2-7.2-74.2 19.2-82.1 60.8 -13.7 8.9-6.5 38.6-4.2 55.1 0.1 0.5 0.1 0.9 0.2 1.4 1.1 1.2 2.3 2.4 3.5 3.5 0.7 0.2 1.4 0.4 2.2 0.6 24.7 5.2 54.6 12.4 76.3-3.1 4.1-4.1 11.3 4.1 8.2 9.3 -12.5 21.9-36.2 24.8-59.5 25.8 1.2 3.5 2.5 6.8 4.9 9.2 3.1 4.1 12.4 5.2 16.5 1 11.3-9.3 26.8-17.5 41.2-12.4 22.7 8.2 51.5 5.2 64.9-15.5 7.8-12.7 14.4-29.8 8.9-45.4 3-7.2 5-12.1 8.6-17.5 2.1-5.2 10.3-2.1 11.3 3.1 3.8 22.6 7.1 64.2 18.4 62 12.1-2.3 17.8 3.8 25.6-2.5 3.6-2.8 3.2-11 13.7-14.1 11.1-2.9 26.3-4.3 31.1-12.8C554 155.1 549.3 149.9 550.8 140.7z" class="g"/><ellipse transform="matrix(0.9987 -0.0509 0.0509 0.9987 -5.7732 19.1859)" cx="373.7" cy="122.9" rx="17.3" ry="28.9" class="b"/><ellipse transform="matrix(0.9648 0.263 -0.263 0.9648 41.3097 -75.1488)" cx="301.3" cy="116.7" rx="14.1" ry="28.3" class="b"/><path d="M447.2 141.5c0 0 1.4-5.9 9.3-3.5 7.9 2.4 2.7 33.7 36.4 32.9 33.7-0.9 22-21.5 34.4-28.5s-5.8-20.2 0-26.7c5.8-6.5 28.5-1.2 29.4 9.7 0.8-8.5-4.8-11.8-10.9-16.6 -6.1-4.9-24-13.4-32-19.1S497.1 84.4 487.2 93 453.8 125 447.2 141.5z" class="c"/><path d="M447.2 141.5c0 0 8.8-12.2 13.9-10 5.2 2.3 1.5 40.9 34.5 36 -8.1 0.3-16-10.5-16.5-20.3 -0.5-9.8-5.8-18.8-2.6-21.8 3.3-3 22.9 0.1 31.8 10.7 -0.7-6.6-9.6-23.3-18.7-27.4 -4.6-3.4-0.7-15 8.1-15.8 8.8-0.7 23.5 0 29 7.4 5.5 7.4 30.7 13 30.3 24.4 1.8-7.2-1.5-13.1-9.6-17.7 -8.1-4.5-13.1-7.1-21.1-15.5 -8-8.4-21.8-14.8-33.9-9.2C480.3 88.1 457.3 116 447.2 141.5z" class="b"/><path d="M324.8 228.1c-7 0-12.5-4.5-14.5-11.8 -2.5-9.2-6.8-14.8-13.4-17 -6.6-2.2-15.2-15.1-17.6-32.1 -0.3-2.2-0.7-4.7-1.1-7.3 -2.8-16.9-6.5-40.1 5.4-48.1 7.3-37.8 34.4-62.2 69.2-62.2 4.4 0 8.9 0.4 13.4 1.2 4.3-0.5 8.6-0.7 12.6-0.7 47 0 66.6 31.1 73 45 4.8-2.5 10.3-7.5 16.1-12.7 9.9-9 21.2-19.1 31.8-19.6 16.4-0.7 25.7 9.5 37.2 24.1 5 6.3 9.8 9.3 14.1 11.9 4.9 3 8.7 5.3 10.3 11.5 1.6 6.6-1.2 11.7-4.3 17.1 -2.3 4-4.6 8.2-5.5 13.5 -1.1 7 1.3 11.5 3.5 15.4 1.7 3 3.1 5.7 2.4 8.7 -1 4.1-7.4 6.9-14.3 9.7 -4.5 1.9-9.3 3.9-12.5 6.4 -3.2 2.4-4.9 6.4-6.5 10.3 -2.4 5.8-4.9 11.8-12.7 12.4 -6.1 0.5-9.2 2.7-12.3 4.7 -3.1 2.2-6.1 4.2-11.8 4.2 -5.5 0-11.2-3.3-16.7-6.5 -5.4-3.1-10.5-6-15.2-6 -0.5 0-0.9 0-1.4 0.1 -15.9 16.7-40 19.2-53 19.2 -8.7 0-14.5-1.1-16.6-1.5 -3.6-0.8-8.3-1.2-13.6-1.2 -11.8 0-23.9 2-31.5 5.3C334.6 225.9 329.6 228.1 324.8 228.1zM352.8 50.5c-34.4 0-61.2 24.2-68.3 61.6l0 0.2 -0.2 0.1c-11.6 7.5-7.9 30.5-5.1 47.2 0.4 2.6 0.8 5.1 1.1 7.3 2.3 16.6 10.6 29.2 16.9 31.3 6.8 2.3 11.6 8.2 14.1 17.7 1.8 6.9 6.9 11 13.5 11 4.6 0 9.4-2.1 13.5-5.8l0.1-0.1c7.8-3.3 20-5.4 32-5.4 5.3 0 10.1 0.4 13.8 1.2 4.3 0.9 10.4 1.5 16.4 1.5 12.9 0 36.8-2.5 52.4-19l0.1-0.1 0.2 0c0.6-0.1 1.1-0.1 1.7-0.1 5 0 10.2 3 15.7 6.2 5.4 3.1 11 6.3 16.2 6.3 5.4 0 8.3-1.9 11.2-4 3.1-2.2 6.4-4.4 12.8-4.9 7.1-0.6 9.4-6 11.8-11.8 1.7-4 3.4-8.2 6.9-10.8 3.4-2.5 8.1-4.5 12.8-6.5 6.6-2.8 12.8-5.4 13.7-9 0.6-2.6-0.7-5-2.3-7.9 -2.1-3.9-4.8-8.8-3.6-16.1 0.9-5.4 3.3-9.7 5.6-13.8 3.1-5.5 5.7-10.2 4.2-16.4 -1.4-5.8-4.9-7.9-9.8-10.9 -4.1-2.5-9.2-5.6-14.3-12.1 -11.3-14.3-20.4-24.4-36.3-23.7 -10.2 0.4-21.3 10.4-31.1 19.3 -6.1 5.5-11.8 10.6-16.8 13.1l-0.5 0.2 -0.2-0.5c-6.1-13.5-25.3-44.9-72.3-44.9 -4.1 0-8.3 0.2-12.6 0.7l-0.1 0 -0.1 0C361.6 50.9 357.1 50.5 352.8 50.5z" class="a"/><path d="M438.2 98.4c0.1 0 10.1-0.1 16.8-5.4l0.6 0.8C448.7 99.3 438.2 98.4 438.2 98.4z" class="a"/><path d="M447.2 141.5c0 0 3.4-9.4 9.8-20 4.3-7.1 9.6-15.1 15.4-21.9 14.8-17.6 24.2-22.2 37.1-18.3 7.9 2.4 15.4 8.9 21.9 14.7 4.2 3.7 7.9 6.9 11 8.4 13.5 6.4 18.5 14.2 14.6 22.5l-0.9-0.4c4.5-9.7-5.2-16.8-14.1-21.1 -3.2-1.5-6.9-4.8-11.2-8.5 -6.5-5.7-13.9-12.1-21.6-14.5 -12.5-3.7-21.6 0.8-36.1 18C459 117.1 447.3 141.3 447.2 141.5z" class="a"/><path d="M506.2 133.5c-0.2-0.3-23.9-29.4-49.6-9.4l-0.6-0.8c16.1-12.6 31.4-6.5 41 0.3C503.2 128 506.2 133.5 506.2 133.5z" class="a"/><path d="M474.9 154.1c-0.4-1.6-0.8-3.2-1.3-4.9 -2.3-9.3-5-19.7-10.8-22.9 -2.1-1.2-4.5-1.3-7.3-0.3l-0.3-1c3-1 5.8-0.9 8.2 0.4 6.2 3.4 8.9 14.1 11.3 23.6 0.4 1.7 0.8 3.4 1.3 4.9 3.5 12.7 11 13 11.4 13C487.2 166.8 478.6 167.5 474.9 154.1z" class="a"/><path d="M449.3 204.4l-0.7-0.8c18-14.8 15.4-34.5 15.4-34.7C464 169 467.8 189.2 449.3 204.4z" class="a"/><path d="M307 186.3c7.1 4.8 4.6 27 15.8 28.1 11.2 1.1 40.8-33 40.5-43.4C355.7 173.7 319.6 182.7 307 186.3z" fill="#4F0200"/><path d="M322.8 214.4c7.5 0.7 23.2-14.2 32.7-27.3 -4.4-0.3-10.8 0.3-16.4 4.1 -6.4-2.5-18.3 5.3-23 18.1C317.6 212.1 319.7 214.1 322.8 214.4z" fill="#FC6060"/><path d="M329 210.6c8.4-5 16.7-13 19.8-23.3 -3.1 0.5-6.5 1.6-9.7 3.8 -6.4-2.5-18.3 5.3-23 18.1 0.4 0.8 0.9 1.5 1.4 2.1C320.6 213.5 325.3 212.8 329 210.6z" fill="#FC8B8B"/><ellipse transform="matrix(0.9799 -0.1994 0.1994 0.9799 -35.2132 69.0721)" cx="325.4" cy="209.4" rx="3.7" ry="1" class="h"/><path d="M320.8 210c0 0.5-0.4 0.9-0.9 0.9 -0.5 0-0.9-0.4-0.9-0.9 0-0.5 0.4-0.9 0.9-0.9C320.4 209.1 320.8 209.5 320.8 210z" class="h"/><path d="M323.3 214.9h0c-0.2 0-0.4 0-0.6 0 -3-0.3-5.3-2-7.1-5.3l-0.1-0.2 0.1-0.2c4.2-11.7 14.1-19 20.8-19 0.9 0 1.8 0.1 2.6 0.4 5.1-3.4 10.8-4.1 14.6-4.1 0.7 0 1.3 0 1.9 0.1l0.9 0.1 -0.6 0.8C346.3 200.6 331.1 214.9 323.3 214.9zM316.6 209.3c1.6 2.9 3.6 4.3 6.2 4.6 6.9 0.7 21.9-13.2 31.6-26.4 -0.3 0-0.6 0-0.9 0 -3.8 0-9.3 0.7-14.3 4.1l-0.2 0.2 -0.3-0.1c-0.7-0.3-1.6-0.4-2.5-0.4C330 191.2 320.6 198.5 316.6 209.3z" class="i"/><path d="M329.2 203.9c0 0 2.3-8.9 11.6-14.4l0.5 0.9C332.4 195.7 329.3 203.8 329.2 203.9z" class="i"/><path d="M323.3 214.9c0 0 0 0 0 0 -0.2 0-0.4 0-0.6 0 -6.8-0.6-8.8-8.4-10.7-16 -1.3-5.3-2.6-10.3-5.4-12.2l-0.9-0.6 1.1-0.3c4.9-1.4 13.4-3.6 22.5-6 13.7-3.6 29.2-7.7 33.8-9.3l0.7-0.2 0 0.7c0.2 6.2-9.2 19.4-18.7 29.2C340.8 204.6 330.2 214.9 323.3 214.9zM308.1 186.5c2.6 2.4 3.8 7.2 5 12.2 1.8 7.2 3.7 14.6 9.8 15.2 0.2 0 0.3 0 0.5 0h0c4.5 0 12.3-5.4 21-14.4 10.2-10.6 17.9-22.3 18.4-27.8 -5.3 1.8-19.5 5.5-33.2 9.1C321.1 183 313.1 185.1 308.1 186.5z" class="a"/><path d="M313.5 122.1c-3.7 12.9-11.8 22.3-18.1 21 -6.3-1.3-8.5-12.9-4.8-25.8 3.7-12.9 11.8-22.3 18.1-21C315 97.7 317.2 109.2 313.5 122.1z" class="j"/><path d="M313.5 122.1c-3.7 12.9-26.5 8.1-22.9-4.8 3.7-12.9 11.8-22.3 18.1-21C315 97.7 317.2 109.2 313.5 122.1z" class="k"/><path d="M296.7 143.7c-0.4 0-0.9 0-1.3-0.1 -2-0.4-3.6-1.8-4.8-4 -2.7-5-2.8-13.6-0.3-22.4 3.5-12.2 10.9-21.4 17.3-21.4 0.4 0 0.9 0 1.3 0.1 2 0.4 3.6 1.8 4.8 4 2.7 5 2.8 13.6 0.3 22.4C310.5 134.5 303.1 143.7 296.7 143.7zM307.5 96.7c-5.9 0-13.1 9.1-16.4 20.7 -2.4 8.6-2.4 16.9 0.2 21.6 1.1 2 2.5 3.1 4.2 3.5 0.4 0.1 0.7 0.1 1.1 0.1 5.9 0 13.1-9.1 16.4-20.7 2.4-8.6 2.4-16.9-0.2-21.6 -1.1-2-2.5-3.1-4.2-3.5C308.3 96.8 307.9 96.7 307.5 96.7z" class="a"/><path d="M311 121.7c-2.4 8.4-7.6 14.6-11.6 13.7 -4-0.8-5.3-8.3-3-16.8 2.4-8.4 7.6-14.6 11.6-13.7C312.1 105.7 313.4 113.3 311 121.7z" class="l"/><path d="M311 121.7c-2.4 8.4-17 5.4-14.6-3.1 2.4-8.4 7.6-14.6 11.6-13.7C312.1 105.7 313.4 113.3 311 121.7z" class="m"/><path d="M300.2 136c-0.3 0-0.6 0-0.8-0.1 -1.3-0.3-2.4-1.2-3.1-2.6 -1.8-3.3-1.8-8.9-0.2-14.8 2.3-8.1 7.2-14.2 11.3-14.2 0.3 0 0.6 0 0.8 0.1 1.3 0.3 2.4 1.2 3.1 2.6 1.8 3.3 1.8 8.9 0.2 14.8C309.2 129.9 304.3 136 300.2 136zM307.3 105.3c-3.7 0-8.3 5.9-10.4 13.4 -1.6 5.5-1.5 11 0.1 14 0.6 1.2 1.5 1.9 2.5 2.1 0.2 0 0.4 0.1 0.7 0.1 3.7 0 8.3-5.9 10.4-13.4 1.6-5.5 1.5-11-0.1-14 -0.6-1.2-1.5-1.9-2.5-2.1C307.8 105.4 307.5 105.3 307.3 105.3z" class="n"/><path d="M308 122.7c-1.3 4.7-4.6 8.1-7.2 7.5 -2.7-0.6-3.7-4.8-2.4-9.6 1.3-4.7 4.6-8.1 7.2-7.5C308.3 113.7 309.4 117.9 308 122.7z"/><path d="M306.3 114.9c-0.5 1.8-2.1 3-3.5 2.7 -1.4-0.3-2.1-2-1.6-3.8 0.5-1.8 2.1-3 3.5-2.7C306.1 111.4 306.8 113.1 306.3 114.9z" class="k"/><path d="M300.9 118.7c-0.3 0.9-1.1 1.6-1.8 1.4 -0.7-0.2-1.1-1-0.8-2 0.3-0.9 1.1-1.6 1.8-1.4C300.8 116.9 301.2 117.8 300.9 118.7z" class="k"/><path d="M389.7 123.7c1.9 14.4-3.4 27.6-11.8 29.5 -8.4 1.9-16.7-8.2-18.5-22.6 -1.9-14.4 3.4-27.6 11.8-29.5C379.5 99.2 387.8 109.3 389.7 123.7z" class="j"/><path d="M389.7 123.7c1.9 14.4-28.4 21.3-30.3 6.9 -1.9-14.4 3.4-27.6 11.8-29.5C379.5 99.2 387.8 109.3 389.7 123.7z" class="k"/><path d="M376.9 153.8c-8.3 1-16.3-9.2-18.1-23.2 -1.9-14.6 3.6-28.1 12.2-30 8.7-2 17.3 8.5 19.1 23 1.9 14.6-3.6 28.1-12.2 30C377.6 153.7 377.3 153.8 376.9 153.8zM372.2 101.4c-0.3 0-0.6 0.1-0.9 0.2 -8.1 1.8-13.2 14.8-11.4 28.9 1.8 13.9 9.8 24 17.9 22.1 8.1-1.8 13.2-14.8 11.4-28.9C387.4 110.3 380 100.5 372.2 101.4z" class="a"/><path d="M385.3 128.9c1.2 9.4-2.1 18-7.5 19.2 -5.3 1.2-10.6-5.4-11.8-14.8 -1.2-9.4 2.1-18 7.5-19.2C378.8 112.9 384.1 119.5 385.3 128.9z" class="l"/><path d="M385.3 128.9c1.2 9.4-18.1 13.8-19.3 4.4 -1.2-9.4 2.1-18 7.5-19.2C378.8 112.9 384.1 119.5 385.3 128.9z" class="m"/><path d="M377.3 148.7c-5.4 0.6-10.6-6.1-11.8-15.3 -1.2-9.6 2.3-18.5 7.9-19.7 5.7-1.3 11.2 5.6 12.5 15.2 1.2 9.6-2.3 18.5-7.9 19.7C377.7 148.6 377.5 148.6 377.3 148.7zM374.1 114.5c-0.2 0-0.4 0.1-0.6 0.1 -5.1 1.2-8.2 9.5-7.1 18.6 1.2 9 6.2 15.5 11.2 14.3 5.1-1.2 8.2-9.5 7.1-18.6C383.7 120.3 379 113.9 374.1 114.5z" class="n"/><path d="M382.1 131.3c0.7 5.3-1.6 10.2-5.1 11 -3.5 0.8-6.9-2.8-7.6-8.1 -0.7-5.3 1.6-10.2 5.1-11C378.1 122.5 381.5 126.1 382.1 131.3z"/><path d="M376.2 124.7c0.3 2-1 4-2.9 4.4 -1.9 0.4-3.6-0.9-3.9-2.9 -0.3-2 1.1-4 2.9-4.4C374.3 121.4 376 122.7 376.2 124.7z" class="k"/><path d="M383 137.7c0.1 1-0.5 2.1-1.5 2.3 -0.9 0.2-1.8-0.4-2-1.5 -0.1-1 0.5-2.1 1.5-2.3C381.9 136 382.8 136.6 383 137.7z" class="k"/><path d="M376.6 147.7c-12.5 0.7-16.5 8.6-16.5 8.6l32.9-4.4C393.1 151.8 389.1 146.9 376.6 147.7z" class="g"/><path d="M392.8 152c0 0-4-4.7-16.2-4 -12.2 0.7-16.8 8.1-16.8 8.1 0-0.1 4.2-8 16.8-8.8C389.2 146.6 392.8 152 392.8 152z" class="a"/><path d="M320.9 68.5c0 0-12 4.9-16.3 14.8 4.9-5.4 14.2-10 21.3-10.4C326.2 71.9 320.9 68.5 320.9 68.5z"/><path d="M376.1 71.1c0 0 10.9 7.1 13.3 17.6 -3.9-6.3-12.1-12.4-19.1-14.1C370.3 73.4 376.1 71.1 376.1 71.1z"/><path d="M317.1 103.6c0 0-3 20.5-17.4 26.4 -4.8-0.1-10.8 1.5-17.4 2.8 -4.4-1.9-11.3-3.1-17.6-9.6 -13.9-14.6-15.9-33.6-17.2-52.3 -1.3-18.7-10.9-27.2-25.9-24.5 -8.2 1.5-14.3 8.3-14.8 17.3 -0.6 13 14.2 24.4 24.8 10.8 -3.3 21.3-9.3 65.4 16.5 95.2 31.8 36.8 94.2 29.9 120.3 0.3L317.1 103.6z" class="b"/><path d="M317.1 103.6c0 0-3 20.5-17.4 26.4 -4.8-0.1-10.8 1.5-17.4 2.8 -4.4-1.9-11.3-3.1-17.6-9.6 -13.9-14.6-15.9-33.6-17.2-52.3 -1.3-18.7-10.9-27.2-25.9-24.5 -8.2 1.5-14.3 8.3-14.8 17.3 -0.6 13 14.2 24.4 24.8 10.8 -3.3 21.3-4 61.1 22.9 89.9 29.5 31.7 90 26.2 113.9 5.6L317.1 103.6z" class="c"/><path d="M317.1 103.6c0 0-3 20.5-17.4 26.4 -4.8-0.1-10.8 1.5-17.4 2.8 -4.4-1.9-11.3-3.1-17.6-9.6 -13.9-14.6-15.9-33.6-17.2-52.3 -1.3-18.7-10.9-27.2-25.9-24.5 -7.4 1.3-13 7-14.5 14.6 0.5 5.9 4.3 12.8 10.6 15 9.3 2.1 15.4-4.1 12.1-14.8 2.6 4.1 4.6 8 1.3 13.9 0.1-0.2 0.3-0.3 0.4-0.5 -1.7 11 0.3 27.7 1.9 45.8 7.8 25.4 24.5 47.6 52.4 56.2 24.1 7.5 54.3 8.2 76-7.2 1.9-1.9 4.5-1.1 6.5 0.8 0 0 5.2-1.2 5.3-1.2L317.1 103.6z" class="g"/><path d="M307.2 195.4c-0.2 0-0.3 0-0.5 0 -23.9-0.1-44.8-9.1-58.8-25.3 -25.8-29.8-20-73.5-16.9-93.8 -4.2 4.5-9.3 6-14.2 4.1 -6.2-2.3-10.6-9.5-10.3-16.7 0.5-9.1 6.6-16.3 15.2-17.8 7-1.3 12.8-0.1 17.3 3.3 5.4 4.2 8.5 11.5 9.2 21.6 1.4 20.2 3.7 38 17.1 52 4.8 5 10 6.8 14.1 8.3 1.1 0.4 2.2 0.8 3.2 1.2 1.3-0.3 2.6-0.5 3.9-0.8 4.9-1 9.5-2 13.3-1.9 13.8-5.7 16.9-25.8 16.9-26 0 0 0.2 5.7-2.6 11.8 -2.6 5.8-7 12.3-14.1 15.2l-0.1 0 -0.1 0c-3.7 0-8.3 0.9-13.2 1.9 -1.3 0.3-2.7 0.6-4.1 0.8l-0.2 0 -0.1-0.1c-1-0.4-2.1-0.8-3.2-1.2 -4.3-1.5-9.6-3.3-14.5-8.6 -13.6-14.2-15.9-32.2-17.4-52.6 -0.7-9.9-3.7-16.9-8.8-20.9 -4.2-3.3-9.8-4.3-16.4-3.1 -8.2 1.5-13.9 8.2-14.4 16.9 -0.3 6.8 3.8 13.5 9.6 15.7 5 1.9 10.2 0 14.2-5.2l1.2-1.5 -0.3 1.9c-3 19.3-9.9 64.4 16.4 94.8 13.8 16 34.4 24.8 58.1 24.9 0.2 0 0.3 0 0.5 0 24.2 0 47.5-9.4 61-24.6l0.8 0.7C355.3 185.8 331.7 195.4 307.2 195.4z" class="a"/><path d="M228.2 78.7l-0.5-0.9c4.7-2.6 6.3-8.5 3.7-13.2 -2.1-3.7-6.7-5-10.4-2.9 -1.4 0.8-2.4 2.1-2.8 3.6 -0.4 1.5-0.2 3.2 0.6 4.6 0.6 1.1 1.6 1.9 2.8 2.2 1.2 0.3 2.5 0.2 3.6-0.4 1.8-1 2.4-3.2 1.4-5 -0.8-1.4-2.5-1.8-3.9-1.1 0 0 2.9-2.3 4.8 0.6 1.4 2.2 0.5 5.1-1.8 6.4 -1.3 0.8-2.9 0.9-4.4 0.5 -1.5-0.4-2.7-1.4-3.5-2.7 -0.9-1.6-1.2-3.5-0.6-5.4 0.5-1.8 1.7-3.3 3.3-4.2 4.2-2.3 9.5-0.9 11.8 3.3C235.2 69.2 233.4 75.8 228.2 78.7z" class="a"/><path d="M245.3 117c0.1 0 8.3-3.4 8.3-10.6l1 0C254.7 114.3 245.3 117 245.3 117z" class="a"/><path d="M255.7 139c0.1-0.1 10.3-5.3 8.6-15.8l1-0.2C267.2 134.3 255.7 139 255.7 139z" class="a"/><path d="M283.4 151.6c0.1-0.1 5.1-8.5-1.4-18.5l0.9-0.6C289.7 143.2 283.4 151.6 283.4 151.6z" class="a"/><path d="M313.7 145.5c0-0.1-3.2-11.7-14.1-15l0.3-1C311.4 133 313.7 145.5 313.7 145.5z" class="a"/><path d="M372.3 179.4c0-0.1-0.4-6.2-4.1-8.9 -3.7-2.7-8.7-2.7-8.7-2.7 0 0 5.3-1 9.3 1.9C372.9 172.6 372.3 179.4 372.3 179.4z" class="a"/><path d="M354.8 56c0 0 5.2-5.3 18.9-5.9l0 1C360.5 51.7 354.9 56 354.8 56z" class="a"/></svg>