<svg xmlns="http://www.w3.org/2000/svg" viewBox="0 0 768 430"><style>.a{fill:#C9C9C9;}.b{fill:#B8B6B6;}.c{fill:#ADABAB;}.d{fill:#918E8E;}.e{fill:#F06C6C;}.f{fill:#B8B8B8;}.g{fill:#B1B0B0;}.h{fill:#AAA;}</style><rect x="352.6" y="39.6" width="66.2" height="28.1" fill="#A5A69A"/><rect x="268.3" y="84.6" width="235.4" height="310.5" fill="#787878"/><rect x="270.9" y="85.8" width="23.9" height="318.7" class="a"/><rect x="270.9" y="87.8" width="21.5" height="316.7" class="b"/><polygon points="270.9 87.8 292.4 87.8 292.4 136.4 270.9 117.6 " class="c"/><polygon points="270.9 133.4 292.4 159.6 292.4 170.4 270.9 143.3 " class="a"/><polygon points="306.4 115 294.7 105.7 294.7 404.5 306 395.9 " class="d"/><polygon points="270.9 184.2 292.4 210.5 292.4 180.7 270.9 153.7 " class="a"/><polygon points="270.9 278.5 292.4 303.2 292.4 404.5 270.9 404.5 " class="c"/><rect x="477.2" y="85.6" width="23.9" height="318.7" class="a"/><rect x="479.6" y="87.6" width="21.5" height="316.7" class="b"/><polygon points="479.6 87.6 501.1 87.6 501.1 141.4 479.6 122.3 " class="c"/><polygon points="479.6 133.2 501.1 159.4 501.1 170.2 479.6 143.1 " class="a"/><polygon points="465.6 114.8 477.2 105.5 477.2 404.3 466 395.7 " class="d"/><polygon points="479.6 184 501.1 210.3 501.1 180.5 479.6 153.5 " class="a"/><polygon points="501.1 278.3 479.6 303 479.6 404.3 501.1 404.3 " class="c"/><rect x="293.4" y="86.8" width="183.8" height="18.4" class="a"/><rect x="294.6" y="88.6" width="182.6" height="16.5" class="b"/><polygon points="294.6 105.1 294.6 88.6 322.6 88.6 " class="c"/><polygon points="320.8 105.1 336 88.6 342.2 88.6 326.6 105.1 " class="a"/><polygon points="350.2 105.1 365.3 88.6 348.1 88.6 332.5 105.1 " class="a"/><polygon points="404.5 105.1 418.8 88.6 477.2 88.6 477.2 105.1 " class="c"/><path d="M294.7 105.7c0 0 11.6 8.3 11.6 9.3 0 1 159.2 1.2 159.2 1.2l11.6-10.6L294.7 105.7z" fill="#858282"/><polygon points="467.7 115 467.7 118.3 467.7 395.3 463.2 395.3 463.2 118.3 310.3 118.3 310.3 395.5 306 395.5 306 118.3 306 114.1 310.3 114.1 467.7 114.1 " fill="#666"/><rect x="307.9" y="115.9" width="158.1" height="279.4" fill="#D6D6D6"/><rect x="352.6" y="40.9" width="65.1" height="24.4" fill="#DEDEDE"/><rect x="353" y="43.3" width="64.7" height="22" class="b"/><polygon points="353 65.3 353 43.3 362.9 43.3 357.9 65.3 " class="c"/><polygon points="362.3 65.3 367.7 43.3 369.9 43.3 364.3 65.3 " class="a"/><polygon points="377.1 65.3 382.6 43.3 372 43.3 366.4 65.3 " class="a"/><polygon points="392 65.3 397 43.3 417.7 43.3 417.7 65.3 " class="c"/><rect x="360.5" y="46.8" width="49.9" height="14.6" fill="#404040"/><path d="M380.2 53.1c-3.6 0-7.2-0.2-10.5-0.5 -0.7-0.1-1.4-0.1-2.1-0.2 -0.7-0.1-1.4-0.1-2.1-0.2 -1.5-0.2-3-0.4-4.4-0.6 -0.2 0-0.4-0.1-0.6-0.1v2.5 7.3h2.8 2.1 2.1 10.6 14.8 17.6V50.1c-4.4 1.1-9.7 2-15.6 2.5 -4.1 0.4-8.5 0.6-13 0.6C381.3 53.1 380.7 53.1 380.2 53.1z" fill="#303030"/><path d="M384.1 53.2l0.7 0.7 -0.7 0.7h-4.5l-0.7-0.7 0.7-0.7H384.1L384.1 53.2zM385.1 54.1l0.3 0.3v4.7c-0.1 0.4-0.4 0.7-0.9 0.8l-0.5-1.3v-3.5L385.1 54.1 385.1 54.1zM384.3 59.9h-5.2c-0.5-0.1-0.8-0.4-0.9-0.8l1.4-0.5h4.2L384.3 59.9 384.3 59.9zM384.3 49.2h-4.7l-1.4-0.5c0.1-0.4 0.4-0.7 0.9-0.8h5.7L384.3 49.2 384.3 49.2zM379.6 49.6v3.2l-1 1 -0.3-0.3v-4.3L379.6 49.6z" class="e"/><path d="M393 54.2l0.3-0.3v-4.7c-0.1-0.4-0.4-0.7-0.9-0.8l-0.5 1.3v3.5L393 54.2z" class="e"/><path d="M395.4 51.7l-0.3-0.1 -1.6-2.8c-0.1-0.3 0-0.6 0.2-0.8l0.8 0.6 1.2 2.1L395.4 51.7z" class="e"/><path d="M390.1 51.6l0.3-0.1 1.6-2.8c0.1-0.3 0-0.6-0.2-0.8l-0.8 0.6 -1.2 2.1L390.1 51.6z" class="e"/><path d="M392.8 54.6l0.3 0.3v4.7c-0.1 0.4-0.4 0.7-0.9 0.8l-0.5-1.3v-3.5L392.8 54.6z" class="e"/><rect x="310.3" y="120.1" width="155.7" height="274.5" fill="#C2C0C0"/><rect x="386.4" y="115.9" width="1.7" height="279.4" fill="#595959"/><rect x="388.2" y="115.9" width="1.7" height="279.4" fill="#D1D1D1"/><path d="M386.4 199c-29.1-0.6-55.6-5.8-76.1-14.1v30.9h76.1V199z" class="a"/><path d="M462.6 188.8c-20 6.5-44.5 10.3-70.8 10.3 -0.6 0-1.2 0-1.8 0v16.7h72.6 3.2 0.2v-28.2c-0.1 0-0.2 0.1-0.2 0.1C464.7 188.1 463.6 188.4 462.6 188.8z" class="a"/><rect x="310.3" y="257.9" width="76.1" height="137.5" class="f"/><polygon points="389.9 257.5 389.9 395.4 462.6 395.4 466 395.4 466 257.5 465.8 257.5 462.6 257.5 " class="f"/><path d="M386.4 324.1c-29.1 2.2-55.6 22.8-76.1 55.5V258.1h76.1V324.1z" class="g"/><path d="M462.6 364.5c-20-25.6-44.5-40.5-70.8-40.5 -0.6 0-1.2 0-1.8 0v-65.9h72.6 3.2 0.2v110.9c-0.1-0.1-0.2-0.2-0.2-0.3C464.7 367.3 463.6 365.9 462.6 364.5z" class="g"/><rect x="310.3" y="257.5" width="76.1" height="33.5" class="h"/><rect x="389.9" y="257.5" width="75.9" height="33" class="h"/></svg>