<svg xmlns="http://www.w3.org/2000/svg" viewBox="0 0 768 430"><style>.a{fill:#D7D0CC;stroke-width:0.1;stroke:#D7D0CC;}.b{fill:#865F46;stroke-width:0.1;stroke:#865F46;}.c{fill:#020202;stroke-width:0.1;stroke:#020202;}.d{fill:#DA958C;stroke-width:0.1;stroke:#DA958C;}.e{fill:#D9948B;}.f{fill:#B7B6B4;stroke-width:0.1;stroke:#B7B6B4;}.g{fill:#B6B6B4;stroke-width:0.1;stroke:#B6B6B4;}.h{fill:#B6B5B4;stroke-width:0.1;stroke:#B6B5B4;}.i{fill:#B6B6B3;stroke-width:0.1;stroke:#B6B6B3;}.j{fill:#8B8C87;stroke-width:0.1;stroke:#8B8C87;}</style><path d="M425.2 134.4c3.2-0.4 9-0.7 12.2 0C433.3 134.4 429.2 134.4 425.2 134.4z" style="fill:#C1AA9A;stroke-width:0.1;stroke:#C1AA9A"/><path d="M414.9 134.8c1.5-0.7 4.3-0.3 6.4-0.2C419.2 134.8 417 134.8 414.9 134.8z" style="fill:#CDBBAD;stroke-width:0.1;stroke:#CDBBAD"/><path d="M421.3 134.5c5.8-0.4 18.4-3.2 19.8 3.7 1.3 6.7-5.7 4-10.4 4.9 -4.6 0.5-13 1.8-17.5 0.4 -1.8-1.4-2.4-3.2-1.6-5.6C412.5 133.5 418.4 134.9 421.3 134.5z" style="fill:#9E7461;stroke-width:0.1;stroke:#9E7461"/><path d="M464.5 223.3c-1.6-4.8 3-12.4 4.2-17.6 -1.2-7.1-2.2-14.2-3.2-21.4 -0.9-7 0.7-6.8-5.7-4.9 -3.9 1.2-9.3 0.7-8.6 5.2 -2.6 0.4-5.1 1.1-7.4 2.3 -1.1-6.5-10.1-21.1-6.6-27.1 3.6-6.3 7.7-9.8 10.5-16.4 -2.3-1.2-5.4 1.5-7.2-1.1 2.5-0.8 0.4-5.8-0.2-7.5 -0.7 0 8.5 1.5 6.5-0.3 5.3 1.6 7.5 5.4 11.6 7.4 -7.9 4.7 1.3 10.8 3.3 15.6 -2.2-2.3-5.1-9.9-8.3-7.2 -3.7 5.2-5.4 6-9.9 10.1 -3.6 3.3 4.5 16.9 6 20.2 5.9-2 12.7-2.8 17.3-6.6" class="a"/><path d="M477.7 235.5c-0.1 1.1 0.3 1.8 1.4 2.1 -0.9 0.3-1.8 0.6-2.7 0.9" class="a"/><path d="M411.6 141.7c-0.4-0.1-0.9-3.5 0-3.6C411.6 139.3 411.6 140.5 411.6 141.7z" style="fill:#B8A697;stroke-width:0.1;stroke:#B8A697"/><path d="M466.5 168.1c-2.2-7.4-6.6-14.3-11.9-19.9" style="fill:#6A7C4E;stroke-width:0.1;stroke:#6A7C4E"/><path d="M430.7 143.2c0.9-0.2 1.8-0.2 2.7-0.2C433.1 143.8 431.5 143.2 430.7 143.2z" style="fill:#CDB5A7;stroke-width:0.1;stroke:#CDB5A7"/><path d="M418.8 143.5c2.6-0.5 5.4-0.1 8-0.2C424.7 144 421.4 143.7 418.8 143.5z" style="fill:#C5B1A1;stroke-width:0.1;stroke:#C5B1A1"/><path d="M468.1 170.7c0.1 0.7 0.1 1.4 0.2 2.1 -2.5 1-1.8-3.7-1.8-4.7" class="b"/><path d="M466.6 173.9c2.2-4.3 1.6 4.4 1.2 3.3" class="b"/><path d="M466.4 170.1c-0.6-0.7-1.5-1.5-0.1-1.8C466.4 168.9 466.4 169.5 466.4 170.1z" style="fill:#D3BDB5;stroke-width:0.1;stroke:#D3BDB5"/><path d="M467.8 177.2c-0.7-1.8-1.4-4.3-1.3-6.9 -0.4 1.6 0.2 2.4 1.8 2.4 -0.1-0.7-0.1-1.4-0.2-2.1" style="fill:#C0A188;stroke-width:0.1;stroke:#C0A188"/><path d="M286.3 179.6c0 0.5 37.1 2.5 40.6 2 4.4-0.5 10.6-1.5 14.9 0.1 3.8 1.5 8 11.8 1.1 10.4 -16.2 0.4-29.9 14.4-46.3 9.5 -4.9-1.4-9.8-3.7-13.4-7.3C275.8 186.8 286.1 185.3 286.3 179.6z" style="fill:#896763;stroke-width:0.1;stroke:#896763"/><path d="M290.1 180c2.3-0.3 7.3-0.9 9.6 0C296.5 180 293.3 180 290.1 180z" style="fill:#C1ACA6;stroke-width:0.1;stroke:#C1ACA6"/><path d="M331.7 181.3c0-1.1 2.3-0.1 3.1-0.2C333.8 181.4 332.8 181.3 331.7 181.3z" style="fill:#B5A29C;stroke-width:0.1;stroke:#B5A29C"/><path d="M443.7 186.9c6.9-2.2 6.6-4.6 9.5 3.7 2.8 8 5.7 16 8.3 24 4.2 12.7 8.9 25.1 13.2 37.7 3.5 10.5 6.1 21.4 9.9 31.9 5.4 10.7 11.9 18.7 19.6 27.8 -4.8 8.2-23.2-22.2-25.4-27.2 -8.1-18.1-12.2-38.8-21.3-56.4 -26.2 30.2-53.9 59-80 89.2 -4.1-4.7-7.2-2.7-2.1-9 3.4-4.2 7.2-8 10.8-11.9 10-10.8 19.8-21.8 29.7-32.7 8.7-9.6 17.4-19.2 26-28.8 4.3-4.8 8.6-9.7 12.8-14.6 -1.6-7.1-4.5-13.8-6.8-20.6 -12.6 21.9-22.7 46.1-39.5 65.3 -8.4 9.5-19.2 16.5-30.4 22.3 -4.8 2.5-9.8 4.7-14.7 6.9 -10.8 4.7-10.1 4.2-5.4 15.1 -11.5-1-11.8-10-15.7-19.6 -5.2-12.5-9.3-25.5-14-38.2 -10.7 9.6-21.2 19.4-31.8 29.1 -6.5 5.9-12.9 11.8-19.4 17.7 -0.5 0.4-14.1 14.2-15.1 9.3 14-12.6 27.7-25.6 41.4-38.6 4-4.2 9.2-7.7 12.6-12.5 9.5-8 10-8.9 6.8-20.5 2.1-0.5 5.3 1.4 6.4-2.2 8.9 14.7 12.6 34.6 18.7 50.6 3.7 9.7 4 7.1 13.5 2.7 8.5-4 16.8-8.3 24.6-13.4 14.6-9.6 25.7-24.2 34.1-39.3 5.1-9.2 9.9-18.5 15-27.7 2.1-3.8 4.2-7.6 6.3-11.3C439.9 198.1 444.1 186.4 443.7 186.9z" style="fill:#AFC6A7;stroke-width:0.1;stroke:#AFC6A7"/><path d="M310.9 202c8.5-1.8 8.1 7.6 11 15.2 0.5 1.4 6.9 17.4 7.1 17.2 -2.8 9-7.9-4.4-8.5-6.5C317.3 219.2 314.2 210.6 310.9 202 312.6 201.6 314.2 210.6 310.9 202z" style="fill:#D7CFCD;stroke-width:0.1;stroke:#D7CFCD"/><path d="M322.6 329.6c-8.1 31.7-30.5 50.5-62.7 54.5 -32 7.6-66.1-28.9-68.8-57.8 -2.7-30 12.3-58.7 41-70.5 5.4-2.2 25.7-8.7 31.4-4.6 7.3 1.1 14.3 2.6 21.1 5.7 5.1 2.3 10 5.3 14.4 8.9 6.7 5.4 6.9 1.3 12.5-4.2 -22.1-21.7-55.9-28.1-84.3-16.2 -20.1 8.5-36 25.3-43.7 45.7 -4.9 13-3 24-4.8 36.8 4.4 39.3 39.7 68.7 78.6 68.7 16.5 0 32.7-4.9 46.1-14.7 8.8-6.3 16.2-14.4 21.8-23.7 2.7-4.6 5-9.5 6.8-14.5C336 332 333.6 333 322.6 329.6 322.5 330 326.7 330.9 322.6 329.6z" class="c"/><path d="M501.7 233.1c2.5-0.6 7.4-0.6 9.9 0C508.3 233.1 505 233.2 501.7 233.1z" style="fill:#ECCEC4;stroke-width:0.1;stroke:#ECCEC4"/><path d="M263 234.8c0.2-1.7 0.9-2.1 2.1-1.1C264.4 234 263.7 234.4 263 234.8 263.3 234.2 263.8 234.5 263 234.8z" style="fill:#AB8685;stroke-width:0.1;stroke:#AB8685"/><path d="M479 237.5c15.2-5.3 32.6-5.9 48.3-2.2 3.4 0.8 6.8 1.9 10.1 3.1 7.5 2.8 10.2 1.7 7.2 9.7 -5 0.8-16.3-6.1-21.8-7.2 -7.9-1.6-15.7-2-23.7-1.2 -7.1 0.7-14 2.3-20.7 4.8 -4 3.8-6.3 3.6-6.9-0.6C469.4 238.4 474.9 238.9 479 237.5z" class="d"/><path d="M183.8 275.4c-7.9 13.4-12.1 29-12.2 44.6 2.2-0.4 4.3-0.1 6.3 0.7 3.6-42.9 33.6-81.9 79.2-82.1 -6.3-11.5-28.1-1.4-37.4 3.3C204.8 249.2 192.1 260.9 183.8 275.4 175.9 288.8 197.9 250.8 183.8 275.4z" class="e"/><path d="M253.2 233.1c5.3 7.6 6.2 5.9 10.7 0.1C260.4 233.1 256.8 232.9 253.2 233.1 254.2 234.5 255.7 233 253.2 233.1z" class="e"/><path d="M265 233c-1.7 1.1-4.2 6.5-4.2 6.4 17.3 1.2 33.7 7.3 46.9 18.7 4.6 4 4.6 3.6 8-1.2 -4.8-4.9-10.4-8.9-16.4-12.2C288.8 238.8 277 234.8 265 233 262.6 234.6 282.8 235.7 265 233z" class="e"/><path d="M502.6 239.3c2.6-0.6 5.4-0.2 8.1 0C508 239.4 505.3 239.5 502.6 239.3z" style="fill:#9B736F;stroke-width:0.1;stroke:#9B736F"/><path d="M249.8 239.7c0.6-0.6 1.4-0.7 2.4-0.2C251.6 240 250.8 240.1 249.8 239.7z" style="fill:#704A45;stroke-width:0.1;stroke:#704A45"/><path d="M261.4 239.5c0.7-0.5 1.5-0.5 2.3 0.1C263 240 262.2 240 261.4 239.5z" style="fill:#623631;stroke-width:0.1;stroke:#623631"/><path d="M499.1 239.7c0.5-0.1 1.5-0.2 2.1-0.2C500.6 239.5 499.6 239.6 499.1 239.7z" style="fill:#744B48;stroke-width:0.1;stroke:#744B48"/><path d="M501.1 239.5c88.8-10 115.4 119.7 34.5 151.8 -34.1 13.6-74.2 0.8-94.9-29.5 -24.7-36.2-12.8-88.5 24.6-111.2 2.3 5.5 6.2 9.8 1 13.7 -2.9 2.2-5.8 4.9-8.3 7.5 -8.2 8.5-13.8 19.4-16.5 30.9 -2.7 11.4-2.2 23.6 1.4 34.8 12.4 39.1 58.6 57.9 94.6 38.9 31.9-16.9 44.6-57.5 28.1-89.3 -16.4-31.7-57-45.4-88.8-29 -5.4-11.1-4.1-12 7.3-15.4C489.7 240.9 495.4 240.1 501.1 239.5z" class="c"/><path d="M512.6 239.5c0.5 0.1 1.5 0.2 2.1 0.2C514.1 239.6 513.1 239.5 512.6 239.5z" style="fill:#7E5450;stroke-width:0.1;stroke:#7E5450"/><path d="M265.7 239.8c0.5-0.2 1-0.2 1.4 0.2C266.6 240.2 266 240.2 265.7 239.8z" style="fill:#664C45;stroke-width:0.1;stroke:#664C45"/><path d="M496.1 240c0.5-0.4 1.1-0.4 1.7-0.2C497.3 240.2 496.7 240.2 496.1 240z" style="fill:#6F4D49;stroke-width:0.1;stroke:#6F4D49"/><path d="M515.9 239.8c0.5-0.2 1-0.2 1.4 0.2C516.8 240.2 516.2 240.2 515.9 239.8z" style="fill:#684E42;stroke-width:0.1;stroke:#684E42"/><path d="M244.6 240.3c0.3-0.4 0.9-0.4 1.4-0.2C245.6 240.5 245 240.5 244.6 240.3z" style="fill:#784747;stroke-width:0.1;stroke:#784747"/><path d="M242.6 240.7c0.4-0.4 0.9-0.4 1.4-0.2C243.6 240.9 243 240.9 242.6 240.7z" style="fill:#714B48;stroke-width:0.1;stroke:#714B48"/><path d="M435 271.4c7.1-11 16.9-20.2 28.2-26.8 4.2 9.1-7.4 12.2-13.6 18.6 -7 7.3-12.6 15.9-16.4 25.3 -6 15-3.3 27.5-4.8 42.7 -2-0.7-3.9-0.7-5.9 0C419.1 310.6 423.6 288.8 435 271.4z" class="d"/><path d="M251.2 251.2c0.5-0.1 1.5-0.2 2.1-0.2C252.7 251 251.7 251.2 251.2 251.2z" style="fill:#7F7E7A;stroke-width:0.1;stroke:#7F7E7A"/><path d="M258.7 251c2.1-1 3.2-0.9 3.1 0.2C260.8 251.2 259.7 251.1 258.7 251 259.7 251 259.7 251.1 258.7 251z" style="fill:#C0BFBB;stroke-width:0.1;stroke:#C0BFBB"/><path d="M261.8 251C263.5 250.3 264.1 251.4 261.8 251 262.3 250.8 261.8 251 261.8 251z" style="fill:#5A5955;stroke-width:0.1;stroke:#5A5955"/><path d="M500.4 251.3c0.6-0.6 1.4-0.7 2.4-0.3C502.1 251.6 501.3 251.7 500.4 251.3z" style="fill:#7E7D79;stroke-width:0.1;stroke:#7E7D79"/><path d="M507.6 251c2.3-1.1 3.5-1.1 3.4 0.2C509.9 251.2 508.8 251.1 507.6 251 508.8 251 508.7 251.2 507.6 251z" style="fill:#C7C6C1;stroke-width:0.1;stroke:#C7C6C1"/><path d="M511 251C512.7 250.3 513.3 251.4 511 251 511.5 250.8 511 251 511 251z" style="fill:#686763;stroke-width:0.1;stroke:#686763"/><path d="M248.2 251.6c0.4-0.4 0.9-0.4 1.4-0.2C249.3 251.8 248.7 251.7 248.2 251.6z" style="fill:#8A8987;stroke-width:0.1;stroke:#8A8987"/><path d="M264.4 251.4c0.5-0.2 1-0.2 1.4 0.2C265.3 251.7 264.7 251.8 264.4 251.4z" style="fill:#908F8B;stroke-width:0.1;stroke:#908F8B"/><path d="M497.4 251.6c0.4-0.4 0.9-0.4 1.4-0.2C498.5 251.8 497.9 251.7 497.4 251.6z" style="fill:#73726E;stroke-width:0.1;stroke:#73726E"/><path d="M513.9 251.4c0.5-0.2 1-0.2 1.4 0.2C514.8 251.8 514.3 251.8 513.9 251.4z" style="fill:#888783;stroke-width:0.1;stroke:#888783"/><path d="M243.6 252.3c2.4-0.5 13 53.5 14.2 60.4C254.5 312.1 240.5 255.7 243.6 252.3z" class="f"/><path d="M492.1 252.4c0.9-0.2 1.8-0.3 2.7-0.5 0.5 19.7 8.3 41.3 12.4 60.5C503.6 313.7 495.7 258.3 492.1 252.4z" class="g"/><path d="M242.3 252.5C243.1 251.6 244.5 253 242.3 252.5 242.6 252.2 242.5 252.6 242.3 252.5z" style="fill:#6C6C6A;stroke-width:0.1;stroke:#6C6C6A"/><path d="M526.2 253.9c0.9 0.3 1.7 0.6 2.6 0.9 -7.1 19.3-12.8 39.1-19.5 58.6C503.3 310.8 527.8 261.9 526.2 253.9z" class="h"/><path d="M277.3 254.1c0.6 0.2 1.3 0.4 1.9 0.6 -4.1 11.8-8 23.6-11.8 35.5 -2.2 7-2.5 19.2-9.3 21.1C268.3 296.5 271.5 271.3 277.3 254.1z" class="i"/><path d="M480.6 256.1c0.8-0.3 1.6-0.6 2.3-0.9 0.9 6.1 0.7 5.5-5 7.1C477.2 260.4 484.2 257.4 480.6 256.1z" style="fill:#D5D0CC;stroke-width:0.1;stroke:#D5D0CC"/><path d="M313.9 264.4c1.6-1.5 3.2-2.9 4.8-4.4 8.5 8.9 14.9 19.9 18.9 31.5 1.7 5 3 10.2 3.8 15.4 4.6 1.9 11.4 2.3 16.4 2.7 22.4-0.8 35.5 30.1 13.4 41.4 -1.4-3.8-2.7-7.7-3.8-11.6 3.1-2.6 4-7.1 2.8-10.9 -2-6.7-9.9-9.5-15.8-5.9 -6 3.7-6.9 11.7-1.9 16.7 2.5 2.5 7.3 1.6 8.4 4.9 1.1 3.1 2.3 6 3.3 9.1 -9.1 2-18.9-3-23.2-11.1 -5.2-9.8-6.3-9-18.4-12.8 0.3-1.1-48.7-10.1-55.7-10 -5.1 0.1-11-6.1-6.2-9.5 6.8-4.9 19.9-3.9 28-4.6 11.4-0.9 22.5-1.1 33.9-0.4 2.9 0 9 1.9 12.1 1.4C340 305.7 316.8 267.3 313.9 264.4z" style="fill:#DC958C;stroke-width:0.1;stroke:#DC958C"/><path d="M305.9 272.2c2.7-2.6 5.4-5.1 8-7.8 6.2 6.1 11 13.5 14.6 21.5 1.3 2.8 9.3 21.5 3.9 20.2 -0.2-0.2-3.8-0.6-4-0.6 -8.4-1.5-5.4 0.1-7.9-8C317.4 287.4 310.4 281.1 305.9 272.2z" style="fill:#030202;stroke-width:0.1;stroke:#030202"/><path d="M462 268.1c1.5-1.6 17.9 13.8 17.2 19.2C473.4 281 467.6 274.7 462 268.1z" class="i"/><path d="M212.2 268.3c2.5-2.6 37.8 38.8 42.7 44.2C250.8 315.3 217.9 273.5 212.2 268.3z" class="f"/><path d="M267.3 307.7c12.7-12.1 25.8-23.7 38.6-35.6C307.6 275.4 274.1 307.6 267.3 307.7z" style="fill:#B4B8B0;stroke-width:0.1;stroke:#B4B8B0"/><path d="M555.3 272.4c0.5 0.5 1 1.1 1.5 1.6 -7.7 6.7-15.3 13.5-22.9 20.4 -2.9 2.6-23.2 21.9-24.4 19.2C525 300 540.2 286.3 555.3 272.4z" class="g"/><path d="M443 297.5c0.3-0.9 0.6-1.8 0.9-2.6 1.2 3.9 22.2 7.8 26.2 9.2 9.7 3.2 22.6 5.1 31.2 10.5C495.7 321 452.9 297.3 443 297.5z" style="fill:#B5B5B3;stroke-width:0.1;stroke:#B5B5B3"/><path d="M193.6 297.1c0.2-0.6 0.4-1.3 0.6-1.9 19 6.7 38.3 12.5 57.4 18.9C250.8 317.3 199.9 299.2 193.6 297.1z" class="i"/><path d="M571.2 301.7c0.2 0.9 0.4 1.8 0.6 2.7 -19.9 4.3-39.9 8.4-59.9 12.7C510.1 315 570.5 304.9 571.2 301.7z" class="f"/><path d="M313.5 304.4c3.6-1 7.8-3.6 9 0.7C319.5 305 316.5 304.7 313.5 304.4 316.3 303.7 316.5 304.8 313.5 304.4z" style="fill:#BEB4B0;stroke-width:0.1;stroke:#BEB4B0"/><path d="M328.4 305.5c0.5-0.2 1-0.2 1.4 0.2C329.3 305.9 328.7 305.9 328.4 305.5z" style="fill:#684D44;stroke-width:0.1;stroke:#684D44"/><path d="M331.1 305.8c0.5-0.2 1-0.2 1.4 0.2C332 306.2 331.4 306.2 331.1 305.8z" style="fill:#67423C;stroke-width:0.1;stroke:#67423C"/><path d="M334.9 305.7c0.6 1-0.8 0.9-1.5 0.5C333.9 306 334.4 305.9 334.9 305.7z" style="fill:#825A55;stroke-width:0.1;stroke:#825A55"/><path d="M179 308.1c-0.2-0.5-0.2-1 0.2-1.4C179.4 307.2 179.4 307.7 179 308.1z" style="fill:#724145;stroke-width:0.1;stroke:#724145"/><path d="M584.9 307.1c0.6-0.1 0.5 1 0.2 1.3C584.9 308 584.9 307.6 584.9 307.1z" style="fill:#767674;stroke-width:0.1;stroke:#767674"/><path d="M428.2 309.7c-0.2-0.6-0.2-1.2 0.2-1.7C428.6 308.6 428.7 309.3 428.2 309.7z" style="fill:#573B34;stroke-width:0.1;stroke:#573B34"/><path d="M440.4 309.7c-0.2-0.6-0.3-1.2 0.1-1.7C440.8 308.6 440.9 309.3 440.4 309.7z" style="fill:#969792;stroke-width:0.1;stroke:#969792"/><path d="M190.9 310.1c-0.2-0.5-0.2-1 0.2-1.4C191.2 309.1 191.3 309.7 190.9 310.1z" style="fill:#737270;stroke-width:0.1;stroke:#737270"/><path d="M572.5 308.7c0.4 0.4 0.4 0.9 0.2 1.4C572.2 309.7 572.2 309.1 572.5 308.7z" style="fill:#757671;stroke-width:0.1;stroke:#757671"/><path d="M585.3 310.1c0.7 0.3 0.5 1.6 0.1 2.2C585.2 311.6 585.1 310.9 585.3 310.1z" style="fill:#696A65;stroke-width:0.1;stroke:#696A65"/><path d="M440.1 313c-0.4-0.7-0.4-1.5 0.1-2.3C440.7 311.4 440.6 312.2 440.1 313z" style="fill:#8E8D88;stroke-width:0.1;stroke:#8E8D88"/><path d="M190.5 313.3C191 308.1 190.4 313.6 190.5 313.3 190.5 312.8 190.5 313.3 190.5 313.3z" style="fill:#5B5A56;stroke-width:0.1;stroke:#5B5A56"/><path d="M178.3 314.4c0-0.9 0.1-1.9 0.2-2.8C178.5 312.6 178.4 313.4 178.3 314.4z" style="fill:#684740;stroke-width:0.1;stroke:#684740"/><path d="M255.6 311.7c2.9 5.7 7.6 1.9 6 11.2 -3.9 1.9-5.4 2.9-9.6 0.7C246.9 315.6 253.5 318.3 255.6 311.7z" style="fill:#EED9C2;stroke-width:0.1;stroke:#EED9C2"/><path d="M427.8 314.7c0-1 0.1-2.1 0.2-3.1C428.1 312.7 428 313.7 427.8 314.7z" style="fill:#55332E;stroke-width:0.1;stroke:#55332E"/><path d="M572.8 311.7C573.9 312.8 572 314.2 572.8 311.7 573.1 312 572.6 312.1 572.8 311.7z" style="fill:#5D5C58;stroke-width:0.1;stroke:#5D5C58"/><path d="M504.2 312.1c10 2.6 8.6 5.6 3.7 13 -3.6-0.5-6.4 0.3-8-4.6C498.3 316 501.4 316.9 504.2 312.1z" style="fill:#EDD9C2;stroke-width:0.1;stroke:#EDD9C2"/><path d="M572.7 313c1.4 0 1.5 1.2 0.2 3.7C572.9 315.5 572.8 314.2 572.7 313z" style="fill:#B7B6B2;stroke-width:0.1;stroke:#B7B6B2"/><path d="M190.5 313.3c0.2 1.5 0.3 6.4 0 8C190.5 318.6 190.4 316 190.5 313.3z" style="fill:#C2C1BD;stroke-width:0.1;stroke:#C2C1BD"/><path d="M585.6 313.7c0.3 1.6 0.9 6 0 7.6C585.6 318.7 585.6 316.2 585.6 313.7z" style="fill:#B6B7B2;stroke-width:0.1;stroke:#B6B7B2"/><path d="M439.9 320.7c-0.5-2-0.2-4.1 0-6.1C440 316.6 440 318.7 439.9 320.7z" style="fill:#393833;stroke-width:0.1;stroke:#393833"/><path d="M178 320c0-1.4 0-2.8 0.2-4.1C178.2 317.3 178.2 318.6 178 320z" style="fill:#8F6B64;stroke-width:0.1;stroke:#8F6B64"/><path d="M191.7 330c6.1-1.2 58.3-9.6 58.6-11.1 -0.7 3-23.2 5.6-26.5 6.3C219 326.2 192.3 333.5 191.7 330 211 326.1 191.8 330.6 191.7 330z" class="g"/><path d="M447.4 328.7c5-1 52.1-9.8 52.1-9.9 -0.2 2.9-27 6.6-30.5 7.4 -5 1.1-27.4 8-28.1 3.5C443.2 329.7 445.3 329.4 447.4 328.7z" class="g"/><path d="M512.2 319.9c-0.1-4.6 52.4 19 58.2 16.3 -1.4 4.9-18.9-3.6-23.7-5.2C535.2 327.2 523.7 323.6 512.2 319.9z" class="h"/><path d="M572.8 321.3c0.1-1.1 0.1-2.3 0.2-3.4C574.2 320.3 574.1 321.5 572.8 321.3z" style="fill:#C3C2BE;stroke-width:0.1;stroke:#C3C2BE"/><path d="M262.5 318.6c1.5 1.3 8.3 1.9 9.8 2.4 5.1 1.4 10 3.6 15.2 4.6 5.5 2.4 34.1 9 32.5 13.6 -1.8-3.9-20.1-7.2-24.5-8.7 -10.7-3.5-20.6-5.6-31.5-7.9 6.7 7.8 13.8 15.4 20.7 23.1 3.4 3.8 19.7 18.9 16.4 21.7C291 353.3 263.3 334.9 262.5 318.6z" style="fill:#B5B6B2;stroke-width:0.1;stroke:#B5B6B2"/><path d="M427.9 319.6c0.1 1.2 0.2 2.5 0.2 3.8C427.9 322.1 427.8 320.8 427.9 319.6z" style="fill:#613B37;stroke-width:0.1;stroke:#613B37"/><path d="M271.6 320c15.1 1.8 33.3 2.9 47.4 8.8C308.4 328.4 278.9 329 271.6 320 281.7 321.2 271.8 320.3 271.6 320z" style="fill:#B3C2A6;stroke-width:0.1;stroke:#B3C2A6"/><path d="M349.3 332.5c-2.4-21.6 34.6-6.7 18.2 7 -6.3-14.9-12.7-13.3-7.4 2.9C354.5 343.1 349.6 337.7 349.3 332.5z" style="fill:#EFD8C0;stroke-width:0.1;stroke:#EFD8C0"/><path d="M510.7 322.5c2-2.8 15.2 14 18.1 17.2 7.6 8.4 14.8 18.8 23.7 25.8 -3.3 3.2-14.6-12.7-17.8-16.2C526.7 340.3 518.7 331.4 510.7 322.5 511.1 321.9 524 337.4 510.7 322.5z" class="f"/><path d="M190.5 321.3C190.9 323.5 189.8 323.1 190.5 321.3 190.5 321.3 190.3 321.8 190.5 321.3z" style="fill:#787773;stroke-width:0.1;stroke:#787773"/><path d="M572.8 321.3C573 324.2 571.8 323.2 572.8 321.3 572.8 321.3 572.5 321.9 572.8 321.3z" style="fill:#71716C;stroke-width:0.1;stroke:#71716C"/><path d="M250.9 321.9c2.4 3.6-42.3 41.3-44 39.4C221.7 348.3 236.2 335 250.9 321.9z" class="f"/><path d="M456.5 361.3c8.1-7.3 16.2-14.5 24.3-21.8 2.7-2.4 19.3-18.9 20.8-16.1C496.2 328.2 458.2 363.7 456.5 361.3z" class="i"/><path d="M440.1 322.6c0.4 0.5 0.4 1.1 0.2 1.7C439.8 323.8 439.9 323.1 440.1 322.6z" style="fill:#7C7D78;stroke-width:0.1;stroke:#7C7D78"/><path d="M585.3 324.8c0-0.5 0.1-1.4 0.2-1.9C585.8 323.4 586 324.7 585.3 324.8z" style="fill:#6E6F6A;stroke-width:0.1;stroke:#6E6F6A"/><path d="M178.1 323.3c0 0.5 0.1 1.4 0.2 1.9C177.5 325.1 177.7 323.7 178.1 323.3z" style="fill:#868782;stroke-width:0.1;stroke:#868782"/><path d="M258.4 324.8c2.6-1.8 6.4 20.7 7.2 24.8 1 4.7 3.6 31 7.5 32.5 -5 0.8-6.8-19.9-7.9-25.2C262.9 346.2 260.6 335.6 258.4 324.8z" class="f"/><path d="M507.9 325.1c0.6-0.4 1.1-0.9 1.7-1.3 2.2 10.4 4.4 20.7 6.5 31.1 1.4 6.8 1.6 22 6.5 27.2 -5 0.9-6.8-19.8-8-25C512.4 346.5 510.1 335.8 507.9 325.1 508.3 324.5 511.8 344.3 507.9 325.1z" class="g"/><path d="M190.9 324.2c0 0.5 0.1 1.5 0.2 2.1C191 325.8 190.9 324.7 190.9 324.2z" style="fill:#93928E;stroke-width:0.1;stroke:#93928E"/><path d="M572.5 326.3c0-0.5 0.1-1.6 0.2-2.1C572.6 324.7 572.5 325.7 572.5 326.3z" style="fill:#92938D;stroke-width:0.1;stroke:#92938D"/><path d="M254.2 324.8c3.3 0.2-4.9 21.1-6.3 25.2 -1.9 5.6-7.8 32.1-12.7 30.5C240.4 379.9 252.1 331.2 254.2 324.8z" class="g"/><path d="M503.5 325.2c1.3-3.8-0.4 7.6 0.1 6.1 -1.9 5.8-3.8 11.6-5.7 17.4 -1.8 5.6-8.4 33.3-13 31.8 4.4-2.5 6.9-19.3 8.4-23.8C496.7 346.2 500 335.7 503.5 325.2 503.8 324.2 498 342 503.5 325.2z" class="h"/><path d="M428.2 324.9c0.4 0.5 0.4 1.1 0.2 1.7C427.9 326.1 428 325.4 428.2 324.9z" style="fill:#624741;stroke-width:0.1;stroke:#624741"/><path d="M440.4 325.5c0.4 0.3 0.4 0.9 0.2 1.4C440.2 326.6 440.2 326 440.4 325.5z" class="j"/><path d="M178.4 326.6c0.2 0.4 0.3 0.8 0.2 1.3C178 327.9 178 326.8 178.4 326.6z" style="fill:#757570;stroke-width:0.1;stroke:#757570"/><path d="M584.9 327.8c-0.1-0.4 0-0.9 0.2-1.3C585.5 326.8 585.5 327.9 584.9 327.8z" style="fill:#70706D;stroke-width:0.1;stroke:#70706D"/><path d="M356.5 332.1c-0.6-2.8 2.7-5.2 5.2-4.2 3.8 2.6 4 7.7 5.7 11.6 2.6 10 8.3 19.6 10.5 29.6 -11.6-0.9-8.5-5.3-13.7-15.6C361.6 345.4 358.3 340.3 356.5 332.1z" style="fill:#D7CFCC;stroke-width:0.1;stroke:#D7CFCC"/><path d="M364.9 372.7c0.5-1 4-8.3 5.1-3.8 1.4 1 8.5 1.8 7.7-0.7 9 0 5.6 9.5-1 9.6C369.3 377.8 366.5 379.3 364.9 372.7z" class="c"/><path d="M377.5 367.9c1.7-0.3 3.4-0.2 5 0.3C379.9 369.6 378.3 369.5 377.5 367.9z" style="fill:#81827D;stroke-width:0.1;stroke:#81827D"/><path d="M370 368.8c2.5 0.8 5.3 0.1 7.9 0.3C376.2 369.9 371.5 369.9 370 368.8z" style="fill:#989493;stroke-width:0.1;stroke:#989493"/><path d="M364.9 372.7c1.8 7.2 0.9 3.9 7.9 5 -2.7 0.1-5.3 0.1-8 0.1C364.8 376 364.8 374.3 364.9 372.7z" style="fill:#383834;stroke-width:0.1;stroke:#383834"/><path d="M247.5 383.4c0.5-0.2 1.1-0.3 1.4 0.2C248.5 383.8 247.9 383.8 247.5 383.4z" style="fill:#73726D;stroke-width:0.1;stroke:#73726D"/><path d="M265 383.6c0.3-0.5 0.9-0.4 1.4-0.2C266.1 383.8 265.5 383.8 265 383.6z" style="fill:#7E7D78;stroke-width:0.1;stroke:#7E7D78"/><path d="M514.6 383.6c0.3-0.5 0.9-0.4 1.4-0.2C515.6 383.8 515 383.8 514.6 383.6z" style="fill:#767572;stroke-width:0.1;stroke:#767572"/><path d="M250.2 383.7c0.5 0.1 1.5 0.2 2.1 0.2C251.7 383.9 250.7 383.8 250.2 383.7z" style="fill:#6F706B;stroke-width:0.1;stroke:#6F706B"/><path d="M261.7 383.9c0.5-0.1 1.5-0.2 2.1-0.2C263.3 383.8 262.2 383.9 261.7 383.9z" style="fill:#777873;stroke-width:0.1;stroke:#777873"/><path d="M500.1 383.7c0.5 0.1 1.5 0.2 2.1 0.2C501.6 383.9 500.6 383.8 500.1 383.7z" class="j"/><path d="M511 383.9c0.5-0.1 1.5-0.2 2.1-0.2C512.5 383.8 511.5 383.9 511 383.9z" style="fill:#848580;stroke-width:0.1;stroke:#848580"/><path d="M254.1 384.1c1.9-0.1 3.9-0.1 5.8 0C258 384.5 256 384.3 254.1 384.1z" style="fill:#33342F;stroke-width:0.1;stroke:#33342F"/><path d="M503.3 384.1c2-0.1 4.1-0.1 6.1 0C507.4 384.6 505.3 384.3 503.3 384.1z" style="fill:#343530;stroke-width:0.1;stroke:#343530"/><path d="M246 395.9c0.4-0.1 0.9 0 1.3 0.2C247 396.4 245.9 396.5 246 395.9z" style="fill:#787876;stroke-width:0.1;stroke:#787876"/><path d="M266.4 396c0.5-0.2 1-0.3 1.6-0.2C267.9 396.5 266.8 396.4 266.4 396z" style="fill:#60615D;stroke-width:0.1;stroke:#60615D"/><path d="M495.5 395.9c0.4-0.1 0.9 0 1.3 0.2C496.5 396.4 495.5 396.5 495.5 395.9z" style="fill:#6E6E6C;stroke-width:0.1;stroke:#6E6E6C"/><path d="M516.3 396.1c0.4-0.2 0.8-0.3 1.3-0.2C517.6 396.5 516.5 396.4 516.3 396.1z" style="fill:#787974;stroke-width:0.1;stroke:#787974"/><path d="M249 396.2c0.7-0.1 1.5 0 2.2 0.2C250.6 396.7 249.2 397 249 396.2z" style="fill:#5B5A55;stroke-width:0.1;stroke:#5B5A55"/><path d="M263.4 396.4c0.5 0 1.4-0.1 1.9-0.2C265.2 396.9 263.9 396.8 263.4 396.4z" style="fill:#71706B;stroke-width:0.1;stroke:#71706B"/><path d="M498.2 396.2c0.5 0 1.4 0.1 1.9 0.2C499.6 396.8 498.3 396.9 498.2 396.2z" style="fill:#706F6B;stroke-width:0.1;stroke:#706F6B"/><path d="M513.3 396.4c0.5-0.2 1-0.2 1.6-0.2C514.8 396.8 513.7 396.7 513.3 396.4z" style="fill:#83827E;stroke-width:0.1;stroke:#83827E"/><path d="M252.5 396.5c3.1 0 6.2 0 9.2 0C259.6 396.8 254.7 397.4 252.5 396.5z" style="fill:#898884;stroke-width:0.1;stroke:#898884"/><path d="M502.1 396.5c2.9 0 5.7 0 8.6 0C508.6 397 504.1 397.2 502.1 396.5z" style="fill:#84837F;stroke-width:0.1;stroke:#84837F"/></svg>