<svg version="1.1" xmlns="http://www.w3.org/2000/svg" xmlns:xlink="http://www.w3.org/1999/xlink" viewBox="0 0 768 430" style="enable-background:new 0 0 768 430;" xml:space="preserve"><g id="fish"> <g>  <ellipse style="fill:none;" cx="528.153" cy="170.791" rx="17.052" ry="16.234"/>  <path style="fill:none;" d="M383.394,117.833c-15.092-7.834-40.62-5.719-60.571,7.901c-24.676,16.766-31.557,44.649-20.04,59.945 c2.18,2.915,5.01,5.229,8.331,6.955c14.125,7.329,37.141,3.947,57.097-9.646c24.643-16.785,35.313-42.741,23.852-58.053 C389.879,122.039,386.921,119.664,383.394,117.833z"/>  <path style="fill:#DDE4D0;" d="M513.183,119.586c-28.965-15.035-64.75-26.249-106.947-26.192 c-94.225,0.1-135.706,74.668-135.706,74.668L195,127.654c0,0,51.801,51.253,30.014,131.026c0,0.035,0.008,0.056,0.032,0.067 c1.383,0.721,49.209-41.03,49.209-41.03s22.262,28.036,58.935,47.071c18.172,9.432,39.875,16.654,64.17,17.16 c126.266,2.636,195.985-97.589,195.985-97.589C580.484,168.711,553.402,140.465,513.183,119.586z M368.211,182.989 c-19.956,13.592-42.971,16.975-57.097,9.646c-3.321-1.725-6.151-4.04-8.331-6.955c-11.517-15.296-4.637-43.179,20.04-59.945 c19.951-13.621,45.479-15.735,60.571-7.901c3.527,1.831,6.485,4.206,8.669,7.103C403.524,140.248,392.854,166.204,368.211,182.989 z M528.153,187.025c-9.417,0-17.052-7.269-17.052-16.234s7.635-16.234,17.052-16.234c9.415,0,17.054,7.269,17.054,16.234 S537.568,187.025,528.153,187.025z"/> </g></g><g id="Layer_1"></g></svg>