<svg xmlns="http://www.w3.org/2000/svg" viewBox="0 0 768 430"><style>.a{fill:#E68059;}.b{fill:#AA4526;}.c{fill:#F49E83;}.d{fill:#FE78B5;}.e{fill:#9B1F63;}.f{fill:#EF60A8;}.g{fill:#FFC9E1;}.h{fill:#1D1D1B;}.i{fill:#FFF;}</style><path d="M357.2 367.9c2.5 0.6 5.2 3 6.2 5.5 3.6-0.5 23.9-7 21.6-10.9C384.1 361.5 357.4 366.2 357.2 367.9z" class="a"/><path d="M363.3 373.7l-0.1-0.2c-1-2.5-3.7-4.8-6-5.3l-0.2-0.1 0-0.3c0.3-2 23.1-5.8 27.1-5.8 0.9 0 1.1 0.1 1.2 0.2l0 0c0.3 0.5 0.3 1 0 1.6 -2 4.1-19 9.3-21.8 9.7L363.3 373.7zM357.7 367.8c2.4 0.7 4.9 2.9 5.9 5.4 3.7-0.6 19.4-5.7 21.2-9.3 0.2-0.4 0.2-0.7 0-1 0 0-0.2-0.1-0.8-0.1C379.1 362.7 360 366.2 357.7 367.8z" class="b"/><path d="M392.6 355.1c-1.8-1.6-2.2-53.6-2.2-69.5 1.8-1.1 3.1-3.4 3.1-5.9 0-2.6-1.2-4.8-3-5.9 0.1-15.7 0.5-48 1.3-56.9 -1.7-3.5-6.3-4.4-8.1-0.7 0.6 10.4 1.2 42.4 1.6 57.5 -2 1.1-3.4 3.4-3.4 6.1 0 2.9 1.5 5.3 3.7 6.3 0.1 8.5-0.7 64.6-1.5 66.8 -1.6 4.4-8.1 4.4-13.5 4.9 -5.4 0.5-10.3 0.5-12.4 1 -3.7 1-3.8 3.7-1.5 5 -2.5 0.4-6.2 1.8-5.8 4.3 0.4 2.5 6.3 1.4 9.9 0.8 3.6-0.6 13.7-3 16.6-3.5 -3 1.2-9.8 3.5-13 5.2 -4.3 2.3-3.5 6.2 2.6 5 6.2-1.2 10.5-3.5 15.4-5 4.9-1.5 8.6-3.1 8.4-7.3 1.3 1.7 4.2 3.7 6.2 2.3C398.8 364.3 395.3 357.7 392.6 355.1z" class="a"/><path d="M389.6 353.3c-1.8-1.6-1.4-51.6-1.4-67.5 1.8-1.1 3.7-4.1 3.7-6.7 0-2.6-2.5-4.4-4.3-5.5 0.1-15.7 0.1-47.6 1-56.5 -1.7-3.5-3.3-4.7-5.1-1 0.6 10.4 1.2 42.4 1.6 57.5 -2 1.1-3.4 3.4-3.4 6.1 0 2.9 1.5 5.3 3.7 6.3 0.1 8.5-0.7 64.6-1.5 66.8 -1.6 4.4-8.1 4.4-13.5 4.9 -5.4 0.5-10.3 0.5-12.4 1 -3.7 1-3.8 3.7-1.5 5 -2.5 0.4-6.2 1.8-5.8 4.3 0.4 2.5 7-0.5 10.6-1.1s17.6-2.4 20.5-2.9c-3 1.2-14.3 4.8-17.5 6.6 -4.3 2.3-3.7 4.1 2.5 2.9 6.2-1.2 10.2-3.4 15.1-4.9 4.9-1.5 7.1-5 6.9-9.2 1.2 1.7 4.3 4.4 6.3 3S392.3 355.9 389.6 353.3z" class="c"/><path d="M364.7 376.1c-1.9 0-3.2-0.7-3.5-1.8 -0.3-1.3 0.8-2.9 2.8-4 2.2-1.2 5.8-2.5 9.1-3.7 0.3-0.1 0.6-0.2 0.9-0.3 -1.1 0.2-2.3 0.5-3.6 0.8 -3.6 0.8-7.7 1.7-9.7 2l-0.6 0.1c-1.8 0.3-4.1 0.7-6 0.7 -2.3 0-3.5-0.6-3.7-1.8 -0.3-2.4 2.5-3.9 5.4-4.5 -0.8-0.6-1.2-1.5-1.1-2.3 0.2-1.3 1.3-2.3 3.3-2.8 1.3-0.3 3.6-0.5 6.5-0.6 1.8-0.1 3.8-0.2 6-0.4 0.5 0 1-0.1 1.6-0.1 4.9-0.4 10.4-0.8 11.7-4.6 0.7-2 1.5-56.4 1.5-66.5 -2.3-1.1-3.7-3.6-3.7-6.5 0-2.7 1.3-5.1 3.4-6.3 -0.1-4.1-0.2-9.4-0.4-15.2 -0.4-15.4-0.8-34.6-1.2-42.1l0-0.1 0-0.1c0.8-1.6 2.2-2.5 3.8-2.5 2 0 3.9 1.3 4.8 3.3l0 0.1 0 0.1c-0.9 9.4-1.2 44-1.3 56.7 1.9 1.3 3 3.6 3 6.1 0 2.5-1.2 4.8-3.1 6.1 0 23.4 0.6 67.6 2.2 69.2 2.4 2.3 5.1 7.2 4.9 9.6 -0.1 0.6-0.3 1.1-0.7 1.4 -0.5 0.3-1 0.5-1.6 0.5l0 0c-1.5 0-3.3-1.1-4.4-2.3 -0.2 3.9-4 5.4-8.6 6.8 -1.7 0.5-3.3 1.2-5.1 1.8 -3.1 1.2-6.4 2.4-10.4 3.2C366.1 376 365.4 376.1 364.7 376.1zM379.6 364.6l-2.3 1c-1 0.4-2.5 1-4 1.5 -3.1 1.1-6.9 2.5-9 3.7 -2 1.1-2.7 2.5-2.5 3.4 0.3 1.2 2.3 1.7 5 1.2 4-0.8 7.2-2 10.3-3.2 1.7-0.7 3.4-1.3 5.1-1.8 4.6-1.4 8.4-2.9 8.2-7l-0.1-0.9 0.6 0.7c1 1.3 2.8 2.6 4.4 2.6l0 0c0.5 0 0.9-0.1 1.3-0.4 0.3-0.2 0.4-0.5 0.5-0.9 0.2-2.2-2.5-7-4.7-9.1 -2.3-2-2.3-69-2.3-69.7v-0.2l0.1-0.1c1.8-1.1 2.9-3.3 2.9-5.7 0-2.4-1.1-4.6-2.9-5.7l-0.1-0.1 0-0.2c0.1-12.6 0.4-47.3 1.3-56.9 -0.8-1.7-2.6-2.9-4.3-2.9 -1.4 0-2.6 0.8-3.3 2.2 0.4 7.6 0.9 26.7 1.2 42 0.1 5.9 0.3 11.2 0.4 15.4l0 0.2 -0.2 0.1c-2 1.1-3.2 3.4-3.2 5.9 0 2.7 1.4 5.1 3.6 6l0.2 0.1 0 0.2c0.1 8.9-0.7 64.6-1.5 66.9 -1.5 4.1-7.2 4.6-12.2 5 -0.5 0-1 0.1-1.6 0.1 -2.1 0.2-4.2 0.3-6 0.4 -2.9 0.2-5.1 0.3-6.4 0.6 -1.7 0.4-2.7 1.3-2.9 2.3 -0.1 0.8 0.4 1.6 1.4 2.2l0.7 0.4 -0.8 0.1c-2.2 0.4-5.9 1.6-5.6 4 0.1 0.9 1.2 1.3 3.2 1.3 1.8 0 4.1-0.4 5.9-0.7l0.6-0.1c2-0.3 6.1-1.2 9.7-2 2.9-0.6 5.6-1.2 6.9-1.5L379.6 364.6z" class="b"/><path d="M356.6 363.9l-0.1-0.5c1.8-0.3 5.4-0.8 9.2-1.2 3.4-0.4 7-0.8 9.2-1.2 4.5-0.7 6.9-2.2 6.9-2.2 0 0-2.2 2-6.8 2.8 -2.2 0.4-5.8 0.8-9.2 1.2C361.9 363.2 358.4 363.6 356.6 363.9z" class="b"/><path d="M374.6 214.7c0.8 3.7 6.9 9 8.2 12.6 1.5-0.5 2.1-4 2.3-4.8 1 1.4 2.5 4.5 3 6 1.3-0.9 2.2-4.8 2.2-4.8 0.5 1.5 1.8 4.8 1.8 4.8 0.7-2.5 4.6-10.5 4.3-12.9C396 213.2 375.6 206.8 374.6 214.7z" class="d"/><path d="M392 229.3l-0.3-0.8c0-0.1-0.9-2.3-1.5-3.9 -0.4 1.2-1.1 3.4-2 4.1l-0.3 0.2 -0.1-0.4c-0.4-1.2-1.6-3.8-2.6-5.4 -0.3 1.4-0.9 3.9-2.3 4.4l-0.3 0.1 -0.1-0.3c-0.6-1.6-2.2-3.7-3.9-5.7 -1.9-2.4-3.9-4.8-4.3-6.8l0 0 0 0c0.4-2.7 2.8-4.1 7.1-4.1 6.2 0 15 3.1 15.2 4.9 0.2 1.6-1.4 5.6-2.8 9.1 -0.7 1.7-1.3 3.1-1.5 4L392 229.3zM384.9 221.9l0.3 0.5c0.9 1.3 2.3 4.1 2.9 5.6 0.8-1 1.5-3.4 1.8-4.4l0.2-1 0.3 1c0.3 1.1 1.1 3 1.5 4.1 0.3-0.9 0.8-2 1.3-3.3 1.3-3.2 3-7.3 2.8-8.8 -0.1-1.3-8.2-4.4-14.7-4.4 -2.7 0-6.1 0.6-6.5 3.6 0.5 1.9 2.4 4.3 4.2 6.6 1.6 2 3.2 4 3.9 5.6 1-0.6 1.5-3 1.8-4.1 0-0.2 0.1-0.3 0.1-0.4L384.9 221.9z" class="e"/><path d="M348.6 198.5c3.3 10 18 20.7 39.4 21.2 15.3 5.2 37.1 1.3 51.4-5.1 4.6-0.7 13.2 4.3 16.5 9.7 1.1-1.8 0.2-5.5-0.6-6.9 2.6 0.8 9.5 6.4 11.8 10.5 0.3-2.5-3.6-11.9-7.6-14.9 1.6 0.5 5 1.9 6 3.2 -1.3-3.9-12.1-18.2-24.8-23.9 -5.6-10.4-37.8-29.8-69.7-26.1 -7.4 1.4-16.5-1.1-16.5-13.2 0-12.1 9.4-28.2 20.7-40.5 11.2-12.4 19.9-30.5 18.5-41.6 -1.4-11.1-9.8-18.3-17-18.9 -3.8-4.2-13.9-7.6-23.5-4.9 -9.6 2.7-17.2 9.2-19.7 15.8 -2.6 6.5-1.5 11.5 3.5 14.4 2.9 4.9 8.9 10.1 16.2 8.7s18.1-5.6 21.6-9.9c3.8 2.2 2.8 10.5-1.3 18.5 -4.1 8-25 30.2-33.5 48.3C331.3 160.9 326.4 189.8 348.6 198.5z" class="f"/><path d="M347.9 175.2c-2.2-22.8 3.9-38.9 16.1-54.4 10-13.3 26.1-25.5 21.7-40.5 -1.1-3-5.2-1.2-8.7 1.9 -0.1 3.5-1.4 8-3.7 12.3 -4.1 8-25 30.2-33.5 48.3 -3.7 8-6.8 18-7.1 27.5 0.9 2.8 2.1 5.4 4.2 7.7C340.1 181.8 347.9 179.6 347.9 175.2z" class="d"/><path d="M375.2 90c-0.5 1.5-1.2 3-2 4.5 -4.1 8-25 30.2-33.5 48.3 -3.7 8-6.8 18-7.1 27.5 0.2 0.7 0.5 1.4 0.7 2.1 1.7-27.4 21.9-49.6 38.4-72.7C373.9 96.8 374.9 93.6 375.2 90z" class="g"/><path d="M356.8 179.1c-2.8 6.7-2.8 15 2.8 20.5 5.6 5 15 3.3 19.4 8.9 1.7 2.2 1.7 6.1 4.4 8.9 0-1.7-1.1-2.8-0.6-4.4 4.4 1.1 6.1 6.1 10.6 7.2 0-1.7-2.2-3.9-1.1-4.4 1.7-1.1 3.9 2.2 3.9 1.7 6.1-8.3-2.2-16.1-3.9-24.4 11.1 0.6 21.7-1.7 32.8 0 12.2 1.7 22.2 8.3 31.6 15.5 -2.8 0-5-1.7-7.8-2.2 6.6 4.3 11.5 10.7 15.1 17.7 1.3 1.3 2.4 2.7 3 3.9 0.3-2.5-3.6-11.9-7.6-14.9 1.6 0.5 5 1.9 6 3.2 -1.3-3.9-12.1-18.2-24.8-23.9 -4.6-8.6-27.5-23.4-53.3-26.1C375.4 166.8 361.6 167.6 356.8 179.1z" class="d"/><path d="M366.8 76.9c6.7-4.4 10-12.8 8.3-20.5 7.9-1.3 13.9 3.9 17.7 10.6 -2.6-8.9-9.9-14.5-16.2-15.1 -3.8-4.2-13.9-7.6-23.5-4.9 -9.6 2.7-17.2 9.2-19.7 15.8 -2.6 6.5-1.5 11.5 3.5 14.4 0.3 0.5 0.7 1.1 1.1 1.6C347.1 82.6 357.5 83.1 366.8 76.9z" class="d"/><path d="M348.5 50.8c9.4-4.4 21.1-4.4 28.9 2.8 -0.1-0.6-0.3-1.1-0.6-1.6 -0.1 0-0.1 0-0.2 0 -3.8-4.2-13.9-7.6-23.5-4.9 -9.6 2.7-17.2 9.2-19.7 15.8 -2 5-1.8 9.1 0.7 12.1C330.6 64.6 339.8 54.9 348.5 50.8z" class="g"/><path d="M467.2 228.8l-0.4-0.8c-2.1-3.8-8.1-8.8-11-10.2 0.7 1.8 1.3 4.9 0.3 6.6l-0.2 0.4 -0.2-0.4c-3-4.9-10.6-9.6-15.4-9.6 -0.3 0-0.6 0-0.8 0.1 -10.5 4.7-23.6 7.5-35 7.5 0 0 0 0 0 0 -6.2 0-11.7-0.8-16.5-2.4 -21.4-0.5-36.1-11-39.6-21.3 -6.6-2.6-11.2-7.2-13.8-13.6 -5.1-12.7-0.8-30.3 4.9-42.5 5.3-11.3 15.2-23.9 23.1-34.1 4.7-6 8.8-11.2 10.3-14.3 4.2-8.2 4.9-15.8 1.6-18 -3.6 4.2-13.9 8.3-21.6 9.8 -0.8 0.2-1.6 0.2-2.4 0.2 -6.3 0-11.3-4.6-14-9 -5-2.9-6.2-7.9-3.5-14.7 2.7-6.9 10.7-13.3 19.9-15.9 2.3-0.6 4.7-1 7.2-1 6.5 0 13.3 2.4 16.5 5.9 7.4 0.7 15.8 8 17.1 19.1 1.3 10.8-6.6 28.8-18.5 41.9 -10 10.9-20.6 27.3-20.6 40.3 0 4.6 1.3 8.1 3.9 10.4 2.7 2.4 6.2 2.9 8.7 2.9 1.2 0 2.4-0.1 3.6-0.3 2.7-0.3 5.5-0.5 8.3-0.5 29.4 0 56.5 17.2 61.7 26.6 12.9 5.8 23.7 20.3 24.9 24.1l0.5 1.6 -1-1.4c-0.7-0.9-2.9-2-4.6-2.7 3.7 3.8 6.9 11.9 6.7 14.3L467.2 228.8zM454.8 216.9l0.6 0.2c2.4 0.7 8.6 5.7 11.3 9.7 -0.5-3.3-3.9-11-7.4-13.7l-1.2-0.9 1.4 0.4c1.3 0.4 3.7 1.3 5.2 2.4 -2.5-4.9-12.5-17.4-24.2-22.6l-0.1 0 0-0.1c-5-9.3-32-26.4-61.2-26.4 -2.8 0-5.5 0.2-8.2 0.5 -1.2 0.2-2.4 0.3-3.7 0.3 -2.5 0-6.2-0.5-9-3 -2.7-2.4-4.1-6-4.1-10.8 0-13.2 10.7-29.7 20.8-40.7 11.8-13 19.7-30.8 18.4-41.4 -1.4-10.9-9.6-18-16.8-18.6l-0.1 0 -0.1-0.1c-2.5-2.8-8.7-5.8-16.2-5.8 -2.4 0-4.8 0.3-7 1 -9 2.6-16.9 8.8-19.6 15.6 -2.6 6.6-1.5 11.3 3.4 14l0.1 0 0 0.1c2.5 4.2 7.4 8.8 13.5 8.8 0.8 0 1.6-0.1 2.3-0.2 7.7-1.5 18.2-5.7 21.4-9.8l0.1-0.2 0.2 0.1c4.3 2.5 2.6 11.4-1.2 18.9 -1.6 3.1-5.5 8-10.4 14.3 -7.9 10.1-17.8 22.8-23.1 34 -5.7 12.1-9.9 29.5-4.9 42 2.5 6.3 7.1 10.7 13.6 13.3l0.1 0 0 0.1c3.3 9.8 18.1 20.5 39.2 21l0.1 0c4.7 1.6 10.2 2.4 16.3 2.4 11.3 0 24.4-2.8 34.8-7.5l0.1 0c0.3 0 0.6-0.1 1-0.1 4.8 0 12.3 4.6 15.6 9.5 0.7-1.8-0.1-4.9-0.8-6.2L454.8 216.9z" class="e"/><path d="M455.6 218.7c-1.6-4.3-6-6.4-6-6.4 0 0 4.8 1.7 6.5 6.2L455.6 218.7z" class="e"/><path d="M373.4 77.5l-0.4-0.4c5.1-4.9 5.3-10.2 5.3-10.2C378.3 66.9 378.7 72.5 373.4 77.5z" class="e"/><path d="M357.3 61.1c1.1 4.4-0.4 8.6-3.3 9.4 -3 0.7-6.3-2.3-7.4-6.7 -1.1-4.4 0.4-8.6 3.3-9.4C352.8 53.7 356.2 56.7 357.3 61.1z" class="h"/><path d="M358.5 55.6c-0.6 0.8-2.1 1.7-3.2 1.6 0.1 0.3 0.4 0.6 0.4 0.6C356.5 57.7 358.1 56.6 358.5 55.6z" class="h"/><path d="M359.9 58.2c-0.8 0.6-2.5 1.1-3.5 0.7 0 0.3 0.2 0.7 0.2 0.7C357.4 59.7 359.3 59 359.9 58.2z" class="h"/><path d="M360.5 60.1c-0.8 0.6-2.5 1.1-3.5 0.7 0 0.3 0.2 0.7 0.2 0.7C358 61.6 359.9 61 360.5 60.1z" class="h"/><path d="M356.9 61.6c1.1 4.2-0.3 8.2-3.2 8.9 -2.8 0.7-6-2.2-7.1-6.4 -1.1-4.2 0.3-8.2 3.2-8.9C352.7 54.5 355.8 57.4 356.9 61.6z" fill="#D6D6D6"/><path d="M356.9 61.6c1.1 4.2-9.2 6.8-10.3 2.5 -1.1-4.2 0.3-8.2 3.2-8.9C352.7 54.5 355.8 57.4 356.9 61.6z" class="i"/><path d="M352.9 70.9c-2.7 0-5.4-2.8-6.4-6.7 -0.7-2.6-0.4-5.3 0.7-7.1 0.7-1.1 1.6-1.8 2.6-2.1 0.3-0.1 0.6-0.1 0.9-0.1 2.7 0 5.4 2.8 6.4 6.7 0.7 2.6 0.4 5.3-0.7 7.1 -0.7 1.1-1.6 1.8-2.6 2.1C353.5 70.8 353.2 70.9 352.9 70.9zM350.7 55.3c-0.3 0-0.5 0-0.8 0.1 -1 0.2-1.8 0.9-2.4 1.9 -1 1.7-1.3 4.3-0.6 6.8 0.9 3.6 3.5 6.4 6 6.4 0.3 0 0.5 0 0.8-0.1 1-0.2 1.8-0.9 2.4-1.9 1-1.7 1.3-4.3 0.6-6.8C355.8 58 353.2 55.3 350.7 55.3z" class="e"/><path d="M356.6 63.5c0.6 2.3-0.3 4.5-1.9 4.9 -1.6 0.4-3.4-1.2-4-3.5 -0.6-2.3 0.3-4.5 1.9-4.9C354.2 59.6 356 61.2 356.6 63.5z" fill="#054DD1"/><path d="M356.6 63.5c0.6 2.3-0.3 4.5-1.9 4.9 -1.6 0.4-3.4-1.2-4-3.5C352.1 67.1 355.8 66.8 356.6 63.5z" fill="#007AFF"/><path d="M354.2 68.7c-1.6 0-3.2-1.6-3.7-3.7 -0.4-1.4-0.2-2.9 0.4-3.9 0.4-0.7 1-1.1 1.6-1.3 0.2 0 0.4-0.1 0.6-0.1 1.6 0 3.2 1.6 3.7 3.7 0.4 1.4 0.2 2.9-0.4 3.9 -0.4 0.7-1 1.1-1.6 1.3C354.6 68.7 354.4 68.7 354.2 68.7zM353.1 60.2c-0.2 0-0.3 0-0.5 0.1 -0.6 0.1-1 0.5-1.4 1.1 -0.6 0.9-0.7 2.3-0.4 3.6 0.5 2 1.9 3.4 3.3 3.4 0.2 0 0.3 0 0.5-0.1 0.6-0.1 1-0.5 1.4-1.1 0.6-0.9 0.7-2.3 0.4-3.6C355.9 61.6 354.5 60.2 353.1 60.2z" fill="#003B6E"/><path d="M356.1 64.2c0.3 1.2-0.2 2.4-1.1 2.6 -0.9 0.2-1.9-0.6-2.3-1.8s0.2-2.4 1.1-2.6C354.8 62.1 355.8 63 356.1 64.2z"/><path d="M353.5 62.1c0.2 0.6-0.2 1.2-0.8 1.4 -0.6 0.2-1.2-0.2-1.4-0.8 -0.2-0.6 0.2-1.2 0.8-1.4C352.7 61.2 353.3 61.5 353.5 62.1z" class="i"/><path d="M353.1 64.4c0.1 0.4-0.1 0.7-0.5 0.8 -0.4 0.1-0.7-0.1-0.8-0.5 -0.1-0.4 0.1-0.7 0.5-0.8S353 64 353.1 64.4z" class="i"/><path d="M351.6 71.3c-6.4 3.2-14 4.2-18.7 1.8 -2.5-0.1-5.6 1.8-5.8 5.3 -4.6 2.9-14.2 14.4-12.4 26.2 1.8 11.8 7.8 22.3 16.1 23.2 5.7 0 5.8-12.5 6.8-21.1 1-8.6 6.1-18.9 9.6-21.2 -0.1-0.4-0.2-0.8-0.3-1.1C346.6 81.1 349.6 74.3 351.6 71.3z" class="a"/><path d="M321.3 110.8c1.1 2.8 1.1 6.1 3.3 7.2 2.8 2.2 5.6-2.2 5.6-4.4 0-13.3 5.6-26.1 16.1-34.4 0.9-0.6 1.8-1.4 2.5-2.3 0.9-2.2 2-4.2 2.9-5.5 -6.4 3.2-14 4.2-18.7 1.8 -2.5-0.1-5.6 1.8-5.8 5.3 -4.6 2.9-14.2 14.4-12.4 26.2 0.8 4.9 2.2 9.7 4.3 13.5 0.5 0.2 1 0.3 1.6 0.3C320.7 115.8 320.7 113.5 321.3 110.8z" class="c"/><path d="M327.9 79.6c-4.8 3.5-13 13-12.2 24.3C316.9 95.6 321.7 86.4 327.9 79.6z" fill="#FCD1C5"/><path d="M330.8 128.1l0 0c-9-0.9-14.7-12.4-16.3-23.4 -1.8-11.9 7.9-23.5 12.4-26.4 0.2-3.4 3.2-5.4 5.9-5.4l0.3 0c1.7 0.9 3.8 1.3 6.2 1.3 3.8 0 8.3-1.1 12.3-3.1l0.9-0.5 -0.6 0.9c-2 3-4.9 9.7-4.6 12.9 0.2 0.4 0.3 0.8 0.3 1.2l0 0.2L347.4 85.8c-3.5 2.2-8.5 12.3-9.5 21 -0.1 1.3-0.3 2.7-0.4 4.1C336.8 119 335.9 128.1 330.8 128.1zM332.8 73.4c-2.1 0-5.2 1.6-5.4 5.1l0 0.1 -0.1 0.1c-4.3 2.8-14 14.2-12.2 26 1.7 10.8 7.2 22.1 15.8 22.9 4.6 0 5.4-8.9 6.1-16.7 0.1-1.4 0.3-2.8 0.4-4.1 1-8.6 6-18.8 9.6-21.3 -0.1-0.3-0.2-0.6-0.3-0.9l0-0.1c-0.3-3.1 2.1-9.1 4.2-12.5 -3.8 1.8-8 2.8-11.6 2.8 -2.5 0-4.7-0.4-6.4-1.3L332.8 73.4z" class="b"/><path d="M314.7 104.7c1.8 11.8 7.8 22.3 16.1 23.2 5.7 0 5.8-12.5 6.8-21.1 -3.5 2.6-13 2.5-16.5-2.6C319.5 106 316 105.8 314.7 104.7z" fill="#260B16"/><path d="M321.1 104.1c-1.7 1.9-5.1 1.7-6.4 0.6 0.8 4.9 2.2 9.7 4.3 13.5 0.5 0.2 1 0.3 1.6 0.3 0-2.8 0-5 0.6-7.8 1.1 2.8 1.1 6.1 3.3 7.2 2.8 2.2 5.6-2.2 5.6-4.4 0-1.7 0.1-3.5 0.3-5.2C326.9 108.2 323.1 106.9 321.1 104.1z" fill="#381420"/><path d="M330.8 128.1l0 0c-9-0.9-14.7-12.4-16.3-23.4l-0.1-0.8 0.6 0.6c0.5 0.5 1.5 0.8 2.6 0.8 1.4 0 2.6-0.5 3.4-1.3l0.2-0.3 0.2 0.3c1.8 2.6 5.5 4.2 9.8 4.2 2.6 0 5-0.6 6.3-1.6l0.5-0.4 -0.1 0.6c-0.1 1.3-0.3 2.7-0.4 4.1C336.8 119 335.9 128.1 330.8 128.1zM315.1 105.3c1.8 10.6 7.3 21.4 15.7 22.3 4.6 0 5.4-8.9 6.1-16.7 0.1-1.2 0.2-2.4 0.3-3.5 -1.5 0.9-3.7 1.4-6.1 1.4 -4.4 0-8.1-1.5-10.1-4.2 -0.9 0.8-2.1 1.3-3.6 1.3C316.6 105.8 315.8 105.6 315.1 105.3z"/><path d="M323.3 96c4.3-10 15.2-16.2 15.3-16.2l-0.3-0.5c-0.1 0.1-11.2 6.3-15.5 16.5 -1 2.4-1.7 5.2-1.9 8.2 0.2 0 0.4 0.1 0.5 0.1C321.7 101.1 322.3 98.4 323.3 96z" class="b"/><path d="M321.4 104c-0.2 0-0.4-0.1-0.5-0.1 -0.8 9.2 2.5 19.7 9.8 24.2l0.3-0.5C323.8 123.2 320.7 113 321.4 104z"/><path d="M339.6 83.4c0-0.1 0.6-1.9-1.3-3.7 -1.9-1.8-3.2-1.6-3.2-1.6 0 0 1.4-0.9 3.6 1.2C340.8 81.4 339.6 83.4 339.6 83.4z" class="b"/><path d="M330.5 80.2c-0.3 0-0.5-0.1-0.6-0.2 -0.2-0.2-0.2-0.6 0-1 0.2-0.3 0.4-0.7 0.8-1 0.5-0.4 1.1-0.7 1.5-0.7 0.3 0 0.5 0.1 0.6 0.2 0.2 0.2 0.2 0.6 0 1 -0.2 0.3-0.4 0.7-0.8 1C331.5 80 330.9 80.2 330.5 80.2zM332.2 77.8c-0.3 0-0.8 0.2-1.1 0.5 -0.3 0.2-0.5 0.5-0.6 0.8 -0.1 0.2-0.1 0.4-0.1 0.4 0 0 0.1 0.1 0.2 0.1 0.3 0 0.8-0.2 1.1-0.5 0.3-0.2 0.5-0.5 0.6-0.8 0.1-0.2 0.1-0.4 0.1-0.4C332.3 77.8 332.2 77.8 332.2 77.8z" class="b"/><path d="M347.4 53.6c2-2 6.8-1.3 9 1.9 -0.3-2.4-3.9-5.6-6.2-5.5C348 50.2 347.2 52.7 347.4 53.6z" class="h"/><path d="M373.5 321c-1.2 0.8-1.3 5.2-0.3 7.4 -1.7 1.2-13.1-13.5-9.8-17.2C365.8 310.8 372.1 318.9 373.5 321z" class="a"/><path d="M372.9 328.8c-1.8 0-7.2-6.6-9.4-11.6 -1.3-2.9-1.4-5-0.4-6.1l0.1-0.1 0.1 0c0.1 0 0.2 0 0.3 0 2.8 0 9 8.2 10.2 9.9l0.2 0.2 -0.2 0.2c-1 0.7-1.2 4.9-0.2 7.1l0.1 0.2 -0.2 0.1C373.2 328.8 373.1 328.8 372.9 328.8zM363.5 311.6c-1 1.2-0.2 3.6 0.6 5.4 2.2 5 7.2 10.8 8.7 11.2 -0.8-2.2-0.8-6.1 0.3-7.3C371.1 318 365.6 311.4 363.5 311.6z" class="b"/><path d="M388.6 221.1c5.8 7.9 23.9 47.3 25.7 51.6 -1.1 0.7-2.2 3.4-1.5 5.8 -4 1.8-44.3 14.9-47 18.6 -4.6 1.6-8.6 9.2-6.2 16.6 0.2 7.5 6.6 14.4 9.9 17.2s7-0.7 3.3-4c-3.7-3.3-7.4-8.5-8.3-12.9 2.1 2.6 5.2 6.5 7.6 7.9 2.4 1.4 4.7-2 2.4-4.1 -2.2-2.1-4.3-5.3-5.1-6.6 1.6-1.2 2.3-7.8-0.3-10.3 5.1-4.2 41.2-16.4 46.8-18 6 1.6 9.6-7.3 4.2-10.6 -1.9-3.6-21.1-47.9-22.4-53.6C396.2 216.8 387.7 216.3 388.6 221.1z" class="a"/><path d="M416.9 271.6c-1.3-2.4-10.2-23.3-16.1-38.3 -0.1 0.4-0.3 0.8-0.7 1.2 -1.7-2.2-2.8-4.4-5-6.1 0.5 1.8 0.5 3.3 0.6 4.9 7.5 14.6 17.4 36.2 18.7 39.3 -1.1 0.7-2.2 3.4-1.5 5.8 -4 1.8-44.3 14.9-47 18.6 -4.6 1.6-8.6 9.2-6.2 16.6 0.2 7.5 5.8 12.1 9.1 14.9s4.4 0.2 0.7-3c-3.7-3.3-5.4-10-6.3-14.4 2.1 2.6 4.7 6.5 7.1 7.9 2.4 1.4 5.5-0.4 3.2-2.5 -2.2-2.1-6.5-5.3-7.3-6.5 1.6-1.2 2.6-7.4 0-9.9 5.1-4.2 43-17.6 48.6-19.3C420.8 282.4 422.3 275 416.9 271.6z" class="c"/><path d="M372 332.1c-0.9 0-1.8-0.4-2.6-1.1 -1.6-1.4-9.8-8.7-10-17.3 -2.4-7.3 1.5-15.1 6.3-16.8 2.1-2.5 19.4-8.7 37-14.9 4.7-1.7 8.5-3 9.9-3.6 -0.6-2.4 0.4-4.8 1.5-5.7 -2.3-5.3-19.8-43.6-25.6-51.4l0-0.1c-0.2-1 0-1.9 0.6-2.5 1.1-1.3 3.2-1.5 4.4-1.5 2 0 4 0.6 4.8 1.4l0.1 0.1 0 0.1c1.3 5.6 20.3 49.5 22.4 53.4 2.7 1.7 3.1 4.6 2.5 6.8 -0.6 2.2-2.6 4.5-5.4 4.5 0 0 0 0 0 0 -0.5 0-0.9-0.1-1.4-0.2 -6.5 1.9-40.6 13.5-46.4 17.8 1.1 1.3 1.7 3.5 1.5 6.1 -0.1 1.9-0.6 3.5-1.3 4.2 0.9 1.4 2.8 4.4 4.9 6.3 0.9 0.9 1.2 2.1 0.8 3.2 -0.4 1-1.3 1.7-2.3 1.7 -0.4 0-0.9-0.1-1.3-0.4 -2.2-1.2-4.8-4.4-6.9-7 1.2 3.8 4.3 8.3 7.9 11.5 1.4 1.2 1.9 2.6 1.5 3.8C374.2 331.4 373.2 332.1 372 332.1zM388.9 221c5.9 8 23.8 47.2 25.7 51.6l0.1 0.2 -0.2 0.1c-1 0.6-2.1 3.3-1.4 5.5l0.1 0.2 -0.2 0.1c-1.1 0.5-4.9 1.8-10.1 3.7 -13 4.6-34.9 12.3-36.8 14.8l-0.1 0.1 -0.1 0c-4.6 1.6-8.3 9.1-6 16.2l0 0.1c0.2 8.4 8.2 15.6 9.8 17 0.9 0.8 1.8 0.9 2.3 0.9 0.9 0 1.7-0.5 2-1.2 0.4-1-0.1-2.2-1.3-3.2 -3.3-3-7.4-8.3-8.3-13.1l-0.2-1.1 1.1 1.3c2.1 2.6 5 6.1 7.2 7.4 0.3 0.2 0.7 0.3 1 0.3 0.8 0 1.4-0.5 1.8-1.3 0.4-0.9 0.1-1.9-0.7-2.6 -2.2-2.1-4.3-5.3-5.1-6.7l-0.1-0.2 0.2-0.2c0.6-0.5 1.2-2.1 1.3-4 0.1-2-0.2-4.6-1.6-5.8l-0.2-0.2 0.2-0.2c5.3-4.4 42.1-16.7 46.9-18.1l0.1 0 0.1 0c0.4 0.1 0.9 0.2 1.3 0.2 2.6 0 4.3-2.1 4.9-4.1 0.6-2 0.3-4.6-2.3-6.2l-0.1 0 0-0.1c-1.9-3.6-20.9-47.4-22.4-53.6 -0.7-0.7-2.5-1.1-4.3-1.1 -1.8 0-3.3 0.5-4 1.3C388.9 219.5 388.8 220.2 388.9 221z" class="b"/><path d="M400.5 210.3l-23.3-0.7c0 0-0.6 4.4 2.6 8.5 3.3 4 10.6 9 12.4 12.3 1-1.5 0.9-5.8 0.7-7 1.4 1.3 4.5 4.6 5.2 5.6 0.3-1.3-0.2-5.4-0.3-6.2 0.7 0.6 2.6 2.7 3.6 3.4 -0.6-1.9-0.1-6.4 0.6-8.7C403.3 213.1 400.5 210.3 400.5 210.3z" class="f"/><path d="M383.5 217.4c0-1.7 0.3-2.9 0.8-4.6 2.7 2.8 4.7 6.2 9.2 7.4 0-1.7-1.3-3.9-1.6-5.4 2.2 0.6 4 2.7 5 4.5 1.8-2.4 1.7-6.7 1.6-9.1l-18.7-0.6C380.7 211.9 381.1 215 383.5 217.4z" class="d"/><path d="M392.2 230.8l-0.2-0.4c-1-1.8-3.6-4-6.3-6.4 -2.3-2-4.6-4-6.1-5.8 -3.3-4.1-2.1-8.6-2.1-8.6 0 0-0.6 4.4 2.6 8.3 1.5 1.8 3.8 3.8 6 5.7 2.6 2.2 5 4.4 6.2 6.1 0.7-1.7 0.6-5.3 0.5-6.4l-0.1-0.8 0.6 0.6c1.2 1.1 3.7 3.8 4.8 5.1 0.1-1.6-0.3-4.7-0.4-5.5l-0.1-0.7 0.6 0.5c0.3 0.2 0.7 0.7 1.2 1.2 0.6 0.6 1.2 1.3 1.8 1.8 -0.3-2.3 0.2-6 0.7-8.1 1.1-4-1.5-6.8-1.5-6.8 0 0 3.3 2.7 2.1 7 -0.7 2.5-1.1 6.8-0.6 8.6l0.2 0.8 -0.6-0.4c-0.7-0.5-1.6-1.4-2.5-2.3 -0.2-0.2-0.4-0.4-0.6-0.6 0.2 1.4 0.5 4.4 0.2 5.6l-0.1 0.6 -0.4-0.5c-0.6-0.8-3.1-3.6-4.6-5.1 0.1 1.7 0 5.1-0.8 6.5L392.2 230.8z" class="e"/><path d="M448.3 199.5c-1-3.5-5-9.7-8.7-12.9 -6.3-11.2-21.7-22.3-29.8-24 -4.5-2.9-21.8-6.6-32.2-5.1 -10.4 1.5-18.2 7.3-17.4 15.1 0.8 7.8 8.4 12.2 8.4 12.2l18.3 4.5c0 0 2.3 2.3 4.9 5.9 2.3 3.1 4.8 7.3 6.3 11.6 0.3-1.9 1.2-8.7 0.4-12.4 3.2 4.2 9.5 15.3 10.4 20.8 2.6-4 2.2-14 0.8-17.7 3.7 3.8 13.1 19.3 13.9 25 1.7-5.8 1.7-15.8-0.7-22.6 4.1 3.3 11.9 13.5 12.4 18.5 2.2-6.5-0.6-16.1-2.9-21.3 2.4 2 9 8.3 10.4 10.9 0.3-4-2.4-10.9-4.1-13.7C441.4 196.1 446.5 199.3 448.3 199.5z" class="f"/><path d="M407.8 195.6c0 0 0-0.1 0-0.1 0 0 0 0-0.1-0.1C407.7 195.5 407.8 195.5 407.8 195.6z" class="d"/><path d="M407.7 195.4c-0.8-1.5-1.9-2.8-3.1-4C405.5 192.8 406.6 194.1 407.7 195.4z" class="d"/><path d="M411.8 191.8c0 2.2 0 4.5 0 6.7 3.1 3.3 6.2 6.5 8.3 10.5 0-1.1 0-1.7 0-2.8 0.6 2.8 2.8 4.4 2.8 7.2 0-3.4 0.5-7.1-0.2-10.5 -0.1 0.4-0.2 0.7-0.3 1.1C420.1 198.5 415.7 195.7 411.8 191.8z" class="d"/><path d="M422.3 189.1c0.9 2.8 1.3 5.5 1.2 8.3 1.3 1.6 2.8 2.9 4.3 4.5 0-1.1 0-1.7 0-2.8 4.1 4.5 7.3 9.9 8.2 15.8 0.5-6-1.7-13.2-3.6-17.5 0.1 0.1 0.2 0.2 0.3 0.3 -0.4-0.5-0.7-1-1-1.5 0.2 1 0.3 2 0.5 3C429.5 195.2 426.2 191.8 422.3 189.1z" class="d"/><path d="M439.6 186.7c-6.3-11.2-21.7-22.3-29.8-24 -4.5-2.9-21.8-6.6-32.2-5.1 -10.4 1.5-18.2 7.3-17.4 15.1 0.8 7.8 8.4 12.2 8.4 12.2l18.5 5.1c0 0 0.5 0.1 1.4 1.2 3.8 1.4 5.8 5.6 8.2 8.5 0-3.3 0.6-6.7-1.7-9.4 5.6 1.1 7.2 6.7 10.6 10.5 0-1.1 0-1.7 0-2.8 0.6 2.8 2.2 5.6 2.8 8.3 0-3.6 0.4-7.1-0.6-10.7 0-0.1-0.1-0.1-0.1-0.2 -1.1-1.2-2.2-2.5-3.1-4 -1.3-1.3-2.7-2.6-4-4 3.3 0.6 5.6 3.9 8.9 5 -0.6-2.8-1.7-6.1-2.2-8.9 2.8 1.7 5.6 3.3 7.8 5.6 0-0.6 0-0.6 0-1.1 2.8 1.1 3.9 3.3 5.6 5.6 -0.6-3.3-1.7-6.1-3.3-8.9 4.4 1.1 7.2 4.4 10 7.2 0-0.6 0-1.1 0-1.7 1.1 0.6 1.7 1.7 2.2 2.2 -0.6-2.8-1.7-6.1-2.8-8.9 3 2.7 4 6.3 4.7 10.2 2.7 2.7 6 4.3 8.7 7 -0.6-3.3-2.2-6.1-3.3-8.9 4.8 1.3 8.2 4.3 11.3 7.7 0.1 0 0.2 0 0.2 0C447.3 196.1 443.2 189.8 439.6 186.7z" class="d"/><path d="M364.6 165.2c5.6-5 13.3-6.1 20.5-6.1 -0.6 0.6-1.7 0.6-2.2 1.1 10-1.7 20.5 0 27.8 7.2 0.6-1.1-1.1-2.2-1.1-3.3 6.1 1.7 11.7 5 15.5 10 0-0.6 0-0.6 0-1.1 3.9 2.8 7.7 5.8 11.4 9.1 -7.3-9.5-19.8-17.9-26.7-19.4 -4.5-2.9-21.8-6.6-32.2-5.1 -9.8 1.4-17.3 6.7-17.5 13.8C360.9 168.9 362.6 166.6 364.6 165.2z" class="g"/><path d="M423.6 224l-0.2-1.3c-0.7-5.1-8.7-18.9-13-23.9 1.1 4.3 1.3 12.9-1.2 16.8l-0.4 0.6 -0.1-0.7c-0.8-5.1-6.4-15-9.7-19.7 0.4 3.8-0.3 9.5-0.6 11.3l-0.2 1 -0.3-1c-1.2-3.7-3.4-7.5-6.3-11.6 -2.6-3.5-4.8-5.9-4.8-5.9 0 0 2.7 2 5.3 5.6 2.7 3.7 4.7 7.3 6 10.7 0.4-2.7 0.9-8.2 0.2-11.2l-0.3-1.2 0.8 1c3 4 9 14.4 10.3 20.1 2.1-4.1 1.8-13.1 0.4-16.8l-0.5-1.2 0.9 0.9c3.3 3.4 12 17.4 13.7 24 1.3-5.6 1.3-14.6-1-21.3l-0.3-0.9 0.8 0.6c4 3.2 10.9 12.2 12.3 17.6 1.6-6.6-1.2-15.6-3.2-20l-0.5-1.1 0.9 0.8c2.3 1.9 7.9 7.3 10 10.2 -0.1-4.1-2.6-10.1-4.1-12.6l-0.6-0.9 0.9 0.5c0.5 0.3 1.1 0.7 1.8 1 2.4 1.4 5.6 3.4 7.2 3.8 -1.1-3.3-4.9-9.2-8.4-12.3l-0.1-0.1c-6.1-10.8-21.4-22.1-29.6-23.8l-0.1 0c-4.7-3-21.9-6.5-32-5 -10.9 1.6-17.9 7.6-17.2 14.8 0.8 7.5 8.2 12 8.3 12 0 0-8-4.1-8.8-11.9 -0.8-7.5 6.5-13.8 17.6-15.4 10.2-1.5 27.6 2.1 32.3 5.1 8.4 1.8 23.8 13.2 29.9 24.1 3.5 3 7.7 9.3 8.7 13l0.1 0.4 -0.4 0c-1.5-0.2-5-2.3-7.9-4 -0.3-0.2-0.6-0.4-0.9-0.5 1.6 3.1 3.9 9.2 3.6 12.9l-0.1 1 -0.5-0.8c-1.2-2.2-6.6-7.5-9.4-10 2.1 5.1 4.6 14 2.4 20.4l-0.4 1.2 -0.1-1.3c-0.5-4.6-7.2-13.9-11.6-17.7 2.2 7.2 2 16.5 0.4 21.8L423.6 224z" class="e"/><path d="M422.6 202l-0.4-0.8c-1.5-2.7-8.8-10.8-12.1-13.6 0.8 2.8 1 7.4 0.8 9.7l-0.1 0.9 -0.4-0.8c-2.2-4-11.9-11.4-12-11.5 0 0 9.2 6.3 12 10.5 0.1-2.8-0.2-7.5-1.2-9.6l-0.4-1 0.9 0.6c2.6 1.9 10.1 10.1 12.5 13.7 0.2-4.3-0.9-10.6-2.5-13.1l-0.5-0.9 0.9 0.5c2.9 1.6 9.2 7.9 11.3 10.8 0.4-4.6-2.5-11.5-2.6-11.6 0 0 3.9 7.7 3 12.4l-0.1 0.7 -0.4-0.6c-1.4-2.2-7.5-8.3-10.7-10.6 1.4 3.2 2.4 9.5 2 13.4L422.6 202z" class="e"/></svg>