<svg xmlns="http://www.w3.org/2000/svg" viewBox="0 0 768 430"><style>.a{fill:#878684;}.b{fill:#575657;}.c{fill:#7D9DB2;}.d{fill:#6285AE;}.e{fill:#CDCAC5;}.f{fill:#EAE8E6;}.g{fill:#BBB8B4;}.h{fill:#6F6C6D;}.i{fill:#9B9798;opacity:0.3;}.j{fill:#8F8B8D;}</style><rect x="268.8" y="34.1" width="253.8" height="168.8" class="a"/><rect x="424.6" y="48.5" width="18" height="17.5" class="b"/><rect x="425.8" y="49.7" width="15.6" height="15.3" class="c"/><rect x="425.5" y="49.7" width="7.7" height="15.3" class="d"/><rect x="433.3" y="49" width="0.5" height="10.8" class="b"/><rect x="473.7" y="48.5" width="18" height="17.5" class="b"/><rect x="474.9" y="49.7" width="15.6" height="15.3" class="c"/><rect x="474.7" y="49.7" width="7.7" height="15.3" class="d"/><rect x="482.4" y="49" width="0.5" height="10.8" class="b"/><rect x="449.2" y="48.5" width="18" height="17.5" class="b"/><rect x="450.3" y="49.7" width="15.6" height="15.3" class="c"/><rect x="450.1" y="49.7" width="7.7" height="15.3" class="d"/><rect x="457.8" y="49" width="0.5" height="10.8" class="b"/><rect x="498.3" y="48.5" width="18" height="17.5" class="b"/><rect x="499.5" y="49.7" width="15.6" height="15.3" class="c"/><rect x="499.2" y="49.7" width="7.7" height="15.3" class="d"/><rect x="507" y="49" width="0.5" height="10.8" class="b"/><rect x="424.6" y="90.5" width="18" height="17.5" class="b"/><rect x="425.8" y="91.6" width="15.6" height="15.3" class="c"/><rect x="425.5" y="91.6" width="7.7" height="15.3" class="d"/><rect x="433.3" y="90.9" width="0.5" height="10.8" class="b"/><rect x="473.7" y="90.5" width="18" height="17.5" class="b"/><rect x="474.9" y="91.6" width="15.6" height="15.3" class="c"/><rect x="474.7" y="91.6" width="7.7" height="15.3" class="d"/><rect x="482.4" y="90.9" width="0.5" height="10.8" class="b"/><rect x="449.2" y="90.5" width="18" height="17.5" class="b"/><rect x="450.3" y="91.6" width="15.6" height="15.3" class="c"/><rect x="450.1" y="91.6" width="7.7" height="15.3" class="d"/><rect x="457.8" y="90.9" width="0.5" height="10.8" class="b"/><rect x="498.3" y="90.5" width="18" height="17.5" class="b"/><rect x="499.5" y="91.6" width="15.6" height="15.3" class="c"/><rect x="499.2" y="91.6" width="7.7" height="15.3" class="d"/><rect x="507" y="90.9" width="0.5" height="10.8" class="b"/><rect x="424.6" y="131.1" width="18" height="17.5" class="b"/><rect x="425.8" y="132.3" width="15.6" height="15.3" class="c"/><rect x="425.5" y="132.3" width="7.7" height="15.3" class="d"/><rect x="433.3" y="131.6" width="0.5" height="10.8" class="b"/><rect x="473.7" y="131.1" width="18" height="17.5" class="b"/><rect x="474.9" y="132.3" width="15.6" height="15.3" class="c"/><rect x="474.7" y="132.3" width="7.7" height="15.3" class="d"/><rect x="482.4" y="131.6" width="0.5" height="10.8" class="b"/><rect x="449.2" y="131.1" width="18" height="17.5" class="b"/><rect x="450.3" y="132.3" width="15.6" height="15.3" class="c"/><rect x="450.1" y="132.3" width="7.7" height="15.3" class="d"/><rect x="457.8" y="131.6" width="0.5" height="10.8" class="b"/><rect x="498.3" y="131.1" width="18" height="17.5" class="b"/><rect x="499.5" y="132.3" width="15.6" height="15.3" class="c"/><rect x="499.2" y="132.3" width="7.7" height="15.3" class="d"/><rect x="507" y="131.6" width="0.5" height="10.8" class="b"/><rect x="424.6" y="171.8" width="18" height="17.5" class="b"/><rect x="425.8" y="172.9" width="15.6" height="15.3" class="c"/><rect x="425.5" y="172.9" width="7.7" height="15.3" class="d"/><rect x="433.3" y="172.2" width="0.5" height="10.8" class="b"/><rect x="473.7" y="171.8" width="18" height="17.5" class="b"/><rect x="474.9" y="172.9" width="15.6" height="15.3" class="c"/><rect x="474.7" y="172.9" width="7.7" height="15.3" class="d"/><rect x="482.4" y="172.2" width="0.5" height="10.8" class="b"/><rect x="449.2" y="171.8" width="18" height="17.5" class="b"/><rect x="450.3" y="172.9" width="15.6" height="15.3" class="c"/><rect x="450.1" y="172.9" width="7.7" height="15.3" class="d"/><rect x="457.8" y="172.2" width="0.5" height="10.8" class="b"/><rect x="498.3" y="171.8" width="18" height="17.5" class="b"/><rect x="499.5" y="172.9" width="15.6" height="15.3" class="c"/><rect x="499.2" y="172.9" width="7.7" height="15.3" class="d"/><rect x="507" y="172.2" width="0.5" height="10.8" class="b"/><rect x="268.8" y="60.2" width="253.8" height="21.3" class="e"/><rect x="268.8" y="77.5" width="253.8" height="0.8" class="f"/><rect x="268.8" y="32.9" width="253.8" height="10.9" class="e"/><rect x="268.8" y="101" width="253.8" height="21.3" class="e"/><rect x="268.8" y="141.9" width="253.8" height="21.3" class="e"/><rect x="268.8" y="119.1" width="253.8" height="0.8" class="f"/><rect x="268.8" y="158.6" width="253.8" height="0.8" class="f"/><rect x="264.7" y="24.5" width="143" height="180.1" class="g"/><rect x="273" y="28.1" width="126.5" height="173" class="a"/><rect x="331.8" y="26.9" width="8.9" height="175.3" class="g"/><rect x="266.5" y="55.3" width="139.5" height="3.6" class="g"/><rect x="266.5" y="93.3" width="139.5" height="3.6" class="g"/><rect x="266.5" y="136.9" width="139.5" height="3.6" class="g"/><rect x="266.5" y="175.7" width="139.5" height="3.6" class="g"/><rect x="259.7" y="58.5" width="153" height="21.9" class="f"/><rect x="259.7" y="23" width="153" height="9.7" class="e"/><rect x="259.7" y="62.6" width="153" height="1.3" class="e"/><rect x="259.7" y="64.7" width="153" height="1.3" class="e"/><rect x="259.7" y="96.5" width="153" height="21.9" class="f"/><rect x="259.7" y="100.6" width="153" height="1.3" class="e"/><rect x="259.7" y="102.7" width="153" height="1.3" class="e"/><rect x="259.7" y="139.4" width="153" height="21.9" class="f"/><rect x="259.7" y="143.6" width="153" height="1.3" class="e"/><rect x="259.7" y="145.7" width="153" height="1.3" class="e"/><rect x="416.8" y="24.6" width="1.8" height="13.7" class="e"/><rect x="421.6" y="24.6" width="1.8" height="13.7" class="e"/><rect x="426.4" y="24.6" width="1.8" height="13.7" class="e"/><rect x="431.2" y="24.6" width="1.8" height="13.7" class="e"/><rect x="436.1" y="24.6" width="1.8" height="13.7" class="e"/><rect x="440.9" y="24.6" width="1.8" height="13.7" class="e"/><rect x="445.7" y="24.6" width="1.8" height="13.7" class="e"/><rect x="450.5" y="24.6" width="1.8" height="13.7" class="e"/><rect x="455.4" y="24.6" width="1.8" height="13.7" class="e"/><rect x="460.2" y="24.6" width="1.8" height="13.7" class="e"/><rect x="465" y="24.6" width="1.8" height="13.7" class="e"/><rect x="469.8" y="24.6" width="1.8" height="13.7" class="e"/><rect x="474.7" y="24.6" width="1.8" height="13.7" class="e"/><rect x="479.5" y="24.6" width="1.8" height="13.7" class="e"/><rect x="484.3" y="24.6" width="1.8" height="13.7" class="e"/><rect x="489.1" y="24.6" width="1.8" height="13.7" class="e"/><rect x="494" y="24.6" width="1.8" height="13.7" class="e"/><rect x="498.8" y="24.6" width="1.8" height="13.7" class="e"/><rect x="503.6" y="24.6" width="1.8" height="13.7" class="e"/><rect x="508.4" y="24.6" width="1.8" height="13.7" class="e"/><rect x="513.3" y="24.6" width="1.8" height="13.7" class="e"/><rect x="521.1" y="24.6" width="1.8" height="13.7" class="e"/><rect x="411.1" y="23.6" width="111.8" height="3" class="e"/><rect x="268.8" y="195.7" width="253.8" height="168.8" class="a"/><rect x="424.6" y="210.1" width="18" height="17.5" class="b"/><rect x="425.8" y="211.2" width="15.6" height="15.3" class="c"/><rect x="425.5" y="211.2" width="7.7" height="15.3" class="d"/><rect x="433.3" y="210.5" width="0.5" height="10.8" class="b"/><rect x="473.7" y="210.1" width="18" height="17.5" class="b"/><rect x="474.9" y="211.2" width="15.6" height="15.3" class="c"/><rect x="474.7" y="211.2" width="7.7" height="15.3" class="d"/><rect x="482.4" y="210.5" width="0.5" height="10.8" class="b"/><rect x="449.2" y="210.1" width="18" height="17.5" class="b"/><rect x="450.3" y="211.2" width="15.6" height="15.3" class="c"/><rect x="450.1" y="211.2" width="7.7" height="15.3" class="d"/><rect x="457.8" y="210.5" width="0.5" height="10.8" class="b"/><rect x="498.3" y="210.1" width="18" height="17.5" class="b"/><rect x="499.5" y="211.2" width="15.6" height="15.3" class="c"/><rect x="499.2" y="211.2" width="7.7" height="15.3" class="d"/><rect x="507" y="210.5" width="0.5" height="10.8" class="b"/><rect x="424.6" y="252" width="18" height="17.5" class="b"/><rect x="425.8" y="253.2" width="15.6" height="15.3" class="c"/><rect x="425.5" y="253.2" width="7.7" height="15.3" class="d"/><rect x="433.3" y="252.5" width="0.5" height="10.8" class="b"/><rect x="473.7" y="252" width="18" height="17.5" class="b"/><rect x="474.9" y="253.2" width="15.6" height="15.3" class="c"/><rect x="474.7" y="253.2" width="7.7" height="15.3" class="d"/><rect x="482.4" y="252.5" width="0.5" height="10.8" class="b"/><rect x="449.2" y="252" width="18" height="17.5" class="b"/><rect x="450.3" y="253.2" width="15.6" height="15.3" class="c"/><rect x="450.1" y="253.2" width="7.7" height="15.3" class="d"/><rect x="457.8" y="252.5" width="0.5" height="10.8" class="b"/><rect x="498.3" y="252" width="18" height="17.5" class="b"/><rect x="499.5" y="253.2" width="15.6" height="15.3" class="c"/><rect x="499.2" y="253.2" width="7.7" height="15.3" class="d"/><rect x="507" y="252.5" width="0.5" height="10.8" class="b"/><rect x="424.6" y="292.7" width="18" height="17.5" class="b"/><rect x="425.8" y="293.8" width="15.6" height="15.3" class="c"/><rect x="425.5" y="293.8" width="7.7" height="15.3" class="d"/><rect x="433.3" y="293.1" width="0.5" height="10.8" class="b"/><rect x="473.7" y="292.7" width="18" height="17.5" class="b"/><rect x="474.9" y="293.8" width="15.6" height="15.3" class="c"/><rect x="474.7" y="293.8" width="7.7" height="15.3" class="d"/><rect x="482.4" y="293.1" width="0.5" height="10.8" class="b"/><rect x="449.2" y="292.7" width="18" height="17.5" class="b"/><rect x="450.3" y="293.8" width="15.6" height="15.3" class="c"/><rect x="450.1" y="293.8" width="7.7" height="15.3" class="d"/><rect x="457.8" y="293.1" width="0.5" height="10.8" class="b"/><rect x="498.3" y="292.7" width="18" height="17.5" class="b"/><rect x="499.5" y="293.8" width="15.6" height="15.3" class="c"/><rect x="499.2" y="293.8" width="7.7" height="15.3" class="d"/><rect x="507" y="293.1" width="0.5" height="10.8" class="b"/><rect x="424.6" y="333.3" width="18" height="17.5" class="b"/><rect x="425.8" y="334.5" width="15.6" height="15.3" class="c"/><rect x="425.5" y="334.5" width="7.7" height="15.3" class="d"/><rect x="433.3" y="333.8" width="0.5" height="10.8" class="b"/><rect x="473.7" y="333.3" width="18" height="17.5" class="b"/><rect x="474.9" y="334.5" width="15.6" height="15.3" class="c"/><rect x="474.7" y="334.5" width="7.7" height="15.3" class="d"/><rect x="482.4" y="333.8" width="0.5" height="10.8" class="b"/><rect x="449.2" y="333.3" width="18" height="17.5" class="b"/><rect x="450.3" y="334.5" width="15.6" height="15.3" class="c"/><rect x="450.1" y="334.5" width="7.7" height="15.3" class="d"/><rect x="457.8" y="333.8" width="0.5" height="10.8" class="b"/><rect x="498.3" y="333.3" width="18" height="17.5" class="b"/><rect x="499.5" y="334.5" width="15.6" height="15.3" class="c"/><rect x="499.2" y="334.5" width="7.7" height="15.3" class="d"/><rect x="507" y="333.8" width="0.5" height="10.8" class="b"/><rect x="268.1" y="365.1" width="255.1" height="41.5" fill="#7C7C7A"/><rect x="295.2" y="372.5" width="40.4" height="33.8" class="h"/><rect x="395.9" y="365.2" width="15.4" height="41.5" class="e"/><rect x="263" y="365.2" width="15.4" height="41.5" class="e"/><rect x="268.8" y="221.7" width="253.8" height="21.3" class="e"/><rect x="268.8" y="239.1" width="253.8" height="0.8" class="f"/><rect x="268.8" y="262.6" width="253.8" height="21.3" class="e"/><rect x="268.8" y="303.5" width="253.8" height="21.3" class="e"/><rect x="268.8" y="344.4" width="253.8" height="21.3" class="e"/><rect x="268.8" y="280.6" width="253.8" height="0.8" class="f"/><rect x="268.8" y="322.2" width="253.8" height="0.8" class="f"/><rect x="268.8" y="359.7" width="253.8" height="0.8" class="f"/><rect x="264.7" y="193.3" width="143" height="172.9" class="g"/><rect x="273" y="189.6" width="126.5" height="173" class="a"/><rect x="331.8" y="195.7" width="8.9" height="168.1" class="g"/><rect x="266.5" y="216.8" width="139.5" height="3.6" class="g"/><rect x="266.5" y="254.8" width="139.5" height="3.6" class="g"/><rect x="266.5" y="296" width="139.5" height="3.6" class="g"/><rect x="266.5" y="337.3" width="139.5" height="3.6" class="g"/><rect x="264.7" y="364.7" width="261.9" height="3.3" class="f"/><rect x="318.5" y="388.2" width="3.3" height="2.2" class="e"/><rect x="308.9" y="388.2" width="3.3" height="2.2" class="e"/><polygon points="310.4 372.5 295.2 383.2 295.2 386.3 314.1 372.4 " class="i"/><polygon points="317.1 372.6 295.1 389 295.1 394.3 321.5 372.5 " class="i"/><rect x="314.8" y="372.4" width="1.1" height="34.1" class="e"/><rect x="338.9" y="372.5" width="40.4" height="33.8" class="h"/><rect x="362.2" y="388.2" width="3.3" height="2.2" class="e"/><rect x="352.6" y="388.2" width="3.3" height="2.2" class="e"/><polygon points="354.1 372.5 338.9 383.2 338.9 386.3 357.8 372.4 " class="i"/><polygon points="360.9 372.6 338.8 389 338.8 394.3 365.2 372.5 " class="i"/><rect x="358.5" y="372.4" width="1.1" height="34.1" class="e"/><rect x="422.1" y="373.6" width="37.3" height="27.5" class="h"/><rect x="424.6" y="375" width="32.3" height="24.7" class="j"/><rect x="439.8" y="373.6" width="1.8" height="27.5" class="h"/><rect x="422.8" y="386.6" width="35.8" height="1.4" class="h"/><rect x="476" y="373.6" width="37.3" height="27.5" class="h"/><rect x="478.5" y="375" width="32.3" height="24.7" class="j"/><rect x="493.7" y="373.6" width="1.8" height="27.5" class="h"/><rect x="476.8" y="386.6" width="35.8" height="1.4" class="h"/><rect x="402.6" y="396.5" width="124.1" height="10.4" class="e"/><rect x="259.7" y="220" width="153" height="21.9" class="f"/><rect x="259.7" y="224.1" width="153" height="1.3" class="e"/><rect x="259.7" y="226.2" width="153" height="1.3" class="e"/><rect x="259.7" y="258" width="153" height="21.9" class="f"/><rect x="259.7" y="262.1" width="153" height="1.3" class="e"/><rect x="259.7" y="264.2" width="153" height="1.3" class="e"/><rect x="259.7" y="298.6" width="153" height="21.9" class="f"/><rect x="259.7" y="302.7" width="153" height="1.3" class="e"/><rect x="259.7" y="304.8" width="153" height="1.3" class="e"/><rect x="259.7" y="340.8" width="153" height="21.9" class="f"/><rect x="259.7" y="344.9" width="153" height="1.3" class="e"/><rect x="259.7" y="347" width="153" height="1.3" class="e"/><rect x="406.7" y="182.8" width="115.9" height="21.3" class="e"/><rect x="259.7" y="179.2" width="153" height="21.9" class="f"/><rect x="259.7" y="183.4" width="153" height="1.3" class="e"/><rect x="259.7" y="185.5" width="153" height="1.3" class="e"/><rect x="268.8" y="198.9" width="253.8" height="0.8" class="f"/></svg>