<svg version="1.1" id="Layer_1" xmlns="http://www.w3.org/2000/svg" xmlns:xlink="http://www.w3.org/1999/xlink" x="0px" y="0px"
 viewBox="0 0 768 430" enable-background="new 0 0 768 430" xml:space="preserve">
<g>
	<g>
		<g>
			<path fill="#86C2B4" d="M310.732,227.566c39.797,70.038,121.832,97.707,192.794,124.586
				c23.323,8.836,46.768,17.352,70.463,25.145c1.957,0.644,2.798-2.441,0.849-3.081c-40.042-13.171-79.547-28.154-118.678-43.809
				c-36.578-14.634-73.073-31.465-103.199-57.345c-15.658-13.45-29.254-29.132-39.47-47.109
				C312.475,224.164,309.713,225.772,310.732,227.566L310.732,227.566z"/>
		</g>
	</g>
	<g>
		<g>
			<path fill="#86C2B4" d="M499.437,345.89c-18.564-7.772-30.235-25.046-40.385-41.588c-11.22-18.29-21.87-36.922-33.096-55.209
				c-10.786-17.57-22.108-34.842-34.802-51.105c-13.432-17.207-28.622-32.848-44.49-47.806
				c-18.881-17.8-38.477-34.829-58.669-51.124c-1.586-1.28-3.86,0.967-2.259,2.26c35.36,28.534,70.973,58.93,99.581,94.418
				c27.859,34.563,48.594,73.959,71.844,111.588c10.438,16.892,22.525,33.732,41.427,41.646
				C500.481,349.765,501.31,346.674,499.437,345.89L499.437,345.89z"/>
		</g>
	</g>
	<g>
		<g>
			<g>
				<path fill="#FA87B1" d="M311.856,234.343c-6.043,6.144-12.794,11.892-20.872,14.898c-8.077,3.007-17.725,2.874-24.748-2.121
					c-2.765-1.968-5.164-4.964-5.059-8.354c0.059-1.906,0.909-3.712,2.012-5.266c4.718-6.648,13.666-8.958,21.809-8.572
					c8.142,0.387,16.024,2.945,24.115,3.932c-5.329-2.771-10.414-6.015-15.173-9.68c-4.54-3.496-8.925-7.572-11.046-12.896
					c-2.121-5.324-1.378-12.151,3.076-15.756c5.249-4.247,13.57-2.316,18.27,2.532c4.699,4.847,6.568,11.729,7.795,18.368
					c0.782,4.233,1.375,8.502,1.775,12.789c0.547-2.402,1.093-4.805,1.64-7.207c2.179-9.572,4.481-19.427,10.193-27.411
					c2.235-3.124,5.062-5.966,8.623-7.405c3.562-1.438,7.948-1.236,10.903,1.216c2.894,2.401,3.928,6.524,3.411,10.249
					s-2.365,7.129-4.418,10.28c-5.911,9.067-13.831,16.816-23.024,22.528c15.838-4.095,33.532-0.207,46.195,10.149
					c1.833,1.499,3.672,3.32,3.992,5.666c0.183,1.342-0.162,2.701-0.645,3.965c-1.795,4.708-5.61,8.605-10.277,10.501
					c-7.937,3.225-17.3,0.463-24.062-4.797c-6.762-5.259-11.455-12.671-16.002-19.933c-0.394,9.338,7.808,16.74,10.271,25.756
					c0.985,3.606,1.023,7.41,0.739,11.138c-0.324,4.248-1.124,8.631-3.608,12.092c-3.998,5.565-12.079,7.503-18.419,4.901
					c-6.34-2.601-10.645-9.2-11.117-16.037c-0.271-3.916,0.585-7.825,1.724-11.581c2.576-8.491,6.642-16.529,11.956-23.635"/>
			</g>
			<g>
				<g>
					<path fill="#FA87B1" d="M310.726,233.213c-6.21,6.235-13.144,12.315-21.698,15.015c-7.755,2.446-19.482,2.29-24.643-5.169
						c-7.062-10.207,10.279-16.254,17.531-16.549c9.032-0.365,17.892,2.681,26.772,3.891c1.636,0.223,2.986-1.988,1.231-2.92
						c-6.654-3.537-13.286-7.613-18.837-12.751c-5.781-5.351-12.132-16.342-4.079-22.872c7.708-6.25,17.107,1.708,20.293,8.794
						c3.259,7.25,4.132,15.745,4.915,23.565c0.167,1.668,2.708,2.314,3.138,0.424c1.826-8.02,3.345-16.244,6.282-23.953
						c2.859-7.503,9.398-19.867,19.303-17.579c12.954,2.993,2.581,19.572-1.896,25.244c-5.236,6.634-11.591,12.197-18.707,16.735
						c-1.524,0.972-0.556,3.35,1.231,2.92c9.125-2.192,18.53-2.006,27.529,0.722c7.907,2.397,25.416,9.463,18.488,20.063
						c-6.15,9.411-18.218,9.246-27.083,4.039c-8.409-4.939-13.728-13.568-18.779-21.619c-0.826-1.315-2.99-0.82-2.978,0.806
						c0.062,8.237,5.142,14.33,8.5,21.462c4.453,9.455,4.655,27.463-7.557,31.281c-11.824,3.698-20.856-7.817-19.808-18.802
						c1.042-10.93,7.034-21.796,13.388-30.501c1.214-1.663-1.558-3.26-2.759-1.612c-7.281,9.975-15.511,24.638-13.74,37.48
						c1.298,9.416,9.17,17.605,19.015,17.292c11.26-0.361,16.373-9.526,17.167-19.707c0.491-6.311-0.459-12.086-3.292-17.755
						c-3.123-6.246-7.663-11.84-7.718-19.139c-0.992,0.27-1.985,0.538-2.978,0.807c6.405,10.209,13.532,21.138,25.449,25.347
						c9.966,3.52,21.497,0.667,26.697-9.065c5.676-10.624-5.957-17.101-14.45-20.934c-11.303-5.101-23.921-6.134-35.942-3.246
						c0.41,0.974,0.821,1.946,1.231,2.92c9.369-5.975,17.561-13.731,23.597-23.102c4.347-6.749,8.15-18.379-0.737-23.529
						c-8.084-4.684-16.563,1.765-21.028,8.291c-6.869,10.043-8.862,22.66-11.508,34.286c1.046,0.142,2.092,0.283,3.139,0.425
						c-1.022-10.225-1.978-22.398-8.671-30.711c-4.811-5.975-14.12-9.429-20.988-4.766c-6.748,4.582-6.718,14.125-3.119,20.656
						c5.216,9.468,16.451,15.94,25.678,20.844c0.411-0.974,0.821-1.946,1.231-2.92c-11.754-1.601-23.837-6.19-35.693-2.753
						c-7.065,2.049-16.808,9.028-13.654,17.609c3.384,9.21,16.048,11.535,24.506,10.303c11.329-1.65,20.461-9.149,28.288-17.007
						C314.439,234.013,312.18,231.752,310.726,233.213L310.726,233.213z"/>
				</g>
			</g>
		</g>
		<g>
			<circle fill="#F2C975" cx="315.183" cy="230.174" r="6.923"/>
			<path fill="#F2C975" d="M315.173,237.631c-1.838,0-3.589-0.669-4.968-1.906c-1.483-1.329-2.359-3.156-2.467-5.146
				c-0.108-1.987,0.564-3.899,1.894-5.383c1.33-1.482,3.157-2.358,5.146-2.468c1.989-0.105,3.9,0.565,5.383,1.895l0,0
				c1.482,1.33,2.359,3.157,2.467,5.146c0.108,1.988-0.564,3.899-1.895,5.383c-1.329,1.482-3.157,2.359-5.145,2.468
				C315.45,237.626,315.311,237.631,315.173,237.631z M315.19,223.783c-0.118,0-0.236,0.002-0.355,0.01
				c-1.705,0.093-3.271,0.844-4.411,2.115c-1.139,1.271-1.715,2.909-1.623,4.613c0.093,1.704,0.844,3.271,2.115,4.411
				c1.271,1.139,2.907,1.721,4.614,1.622c1.705-0.093,3.271-0.844,4.411-2.114c1.14-1.271,1.716-2.909,1.623-4.614
				c-0.093-1.704-0.844-3.271-2.115-4.41l0,0C318.267,224.355,316.767,223.783,315.19,223.783z"/>
		</g>
	</g>
	<g>
		<g>
			<g>
				<path fill="#FA87B1" d="M291.275,105.728c-6.042,6.145-12.794,11.893-20.872,14.899c-8.077,3.006-17.725,2.875-24.748-2.121
					c-2.765-1.967-5.164-4.964-5.059-8.355c0.059-1.906,0.909-3.71,2.012-5.266c4.718-6.646,13.666-8.958,21.808-8.571
					c8.142,0.386,16.024,2.945,24.116,3.932c-5.33-2.772-10.414-6.015-15.173-9.681c-4.54-3.496-8.926-7.571-11.047-12.895
					c-2.12-5.324-1.378-12.152,3.076-15.756c5.249-4.247,13.57-2.316,18.269,2.531c4.699,4.848,6.568,11.729,7.795,18.369
					c0.782,4.233,1.375,8.502,1.775,12.789c0.547-2.403,1.094-4.805,1.641-7.206c2.179-9.573,4.481-19.427,10.193-27.412
					c2.235-3.124,5.062-5.967,8.623-7.405s7.948-1.237,10.903,1.216c2.894,2.402,3.928,6.523,3.411,10.249
					c-0.517,3.725-2.364,7.129-4.418,10.279c-5.911,9.067-13.831,16.817-23.024,22.53c15.838-4.096,33.531-0.209,46.194,10.148
					c1.833,1.5,3.672,3.32,3.992,5.667c0.183,1.342-0.162,2.7-0.645,3.965c-1.795,4.708-5.61,8.605-10.278,10.501
					c-7.937,3.224-17.299,0.463-24.061-4.797c-6.763-5.26-11.455-12.672-16.002-19.933c-0.394,9.337,7.809,16.74,10.271,25.755
					c0.985,3.607,1.023,7.409,0.739,11.138c-0.323,4.248-1.124,8.631-3.608,12.091c-3.998,5.567-12.079,7.502-18.419,4.902
					c-6.34-2.6-10.645-9.201-11.117-16.038c-0.27-3.915,0.585-7.824,1.725-11.58c2.576-8.492,6.642-16.529,11.956-23.634"/>
			</g>
			<g>
				<g>
					<path fill="#FA87B1" d="M290.146,104.598c-6.21,6.236-13.144,12.317-21.698,15.015c-7.755,2.448-19.481,2.292-24.643-5.167
						c-7.062-10.207,10.279-16.255,17.532-16.549c9.032-0.366,17.892,2.681,26.772,3.89c1.636,0.223,2.985-1.988,1.231-2.92
						c-6.655-3.536-13.286-7.614-18.837-12.751c-5.782-5.35-12.133-16.341-4.079-22.871c7.708-6.251,17.107,1.707,20.293,8.794
						c3.259,7.25,4.132,15.745,4.914,23.565c0.167,1.668,2.708,2.314,3.138,0.424c1.826-8.02,3.346-16.245,6.283-23.954
						c2.859-7.503,9.398-19.866,19.303-17.578c12.954,2.991,2.581,19.57-1.896,25.244c-5.236,6.634-11.591,12.197-18.707,16.735
						c-1.525,0.972-0.556,3.35,1.231,2.92c9.124-2.193,18.53-2.006,27.529,0.722c7.907,2.397,25.416,9.461,18.488,20.062
						c-6.149,9.412-18.218,9.247-27.083,4.04c-8.409-4.939-13.728-13.569-18.779-21.62c-0.825-1.315-2.99-0.82-2.978,0.806
						c0.062,8.237,5.142,14.33,8.5,21.461c4.452,9.455,4.655,27.463-7.557,31.282c-11.823,3.697-20.856-7.819-19.808-18.803
						c1.042-10.929,7.035-21.795,13.388-30.5c1.214-1.664-1.557-3.259-2.759-1.612c-7.28,9.974-15.51,24.638-13.739,37.481
						c1.298,9.416,9.17,17.605,19.015,17.291c11.26-0.36,16.373-9.525,17.166-19.706c0.492-6.311-0.458-12.087-3.292-17.755
						c-3.123-6.246-7.663-11.84-7.718-19.139c-0.992,0.269-1.985,0.538-2.977,0.806c6.405,10.209,13.532,21.137,25.449,25.347
						c9.966,3.52,21.496,0.667,26.697-9.066c5.676-10.623-5.957-17.099-14.45-20.932c-11.303-5.101-23.921-6.136-35.942-3.246
						c0.41,0.973,0.821,1.946,1.231,2.92c9.369-5.975,17.561-13.732,23.597-23.102c4.347-6.749,8.151-18.38-0.737-23.529
						c-8.084-4.685-16.564,1.764-21.028,8.291c-6.869,10.042-8.862,22.659-11.508,34.285c1.046,0.143,2.092,0.284,3.138,0.425
						c-1.022-10.225-1.978-22.399-8.671-30.71c-4.811-5.975-14.12-9.429-20.988-4.766c-6.748,4.582-6.718,14.124-3.119,20.655
						c5.217,9.468,16.451,15.94,25.678,20.844c0.411-0.974,0.821-1.947,1.231-2.921c-11.753-1.601-23.836-6.19-35.693-2.752
						c-7.066,2.049-16.808,9.028-13.655,17.61c3.385,9.208,16.049,11.534,24.507,10.302c11.329-1.651,20.461-9.149,28.288-17.007
						C293.858,105.399,291.599,103.139,290.146,104.598L290.146,104.598z"/>
				</g>
			</g>
		</g>
		<g>
			<circle fill="#F2C975" cx="294.602" cy="101.561" r="6.923"/>
			<path fill="#F2C975" d="M294.593,109.017c-1.838,0-3.589-0.669-4.969-1.906c-1.482-1.329-2.358-3.157-2.467-5.146
				s0.564-3.901,1.894-5.383c1.33-1.482,3.156-2.359,5.145-2.467c1.998-0.102,3.901,0.564,5.384,1.894l0,0
				c1.482,1.329,2.358,3.157,2.466,5.146c0.108,1.988-0.564,3.9-1.894,5.383c-1.329,1.482-3.156,2.359-5.145,2.467
				C294.869,109.013,294.73,109.017,294.593,109.017z M294.61,95.169c-0.118,0-0.236,0.003-0.355,0.01
				c-1.705,0.093-3.271,0.844-4.411,2.115c-1.139,1.27-1.716,2.909-1.623,4.613c0.093,1.705,0.844,3.271,2.115,4.412
				c1.271,1.139,2.9,1.726,4.614,1.623c1.704-0.093,3.271-0.844,4.41-2.115s1.716-2.909,1.623-4.614
				c-0.092-1.704-0.843-3.27-2.115-4.41l0,0C297.686,95.742,296.186,95.169,294.61,95.169z"/>
		</g>
	</g>
	<g>
		<path fill="#86C2B4" d="M408.127,211.336c-8.229-15.687-10.021-34.631-4.873-51.581c2.722-8.965,7.258-17.282,10.197-26.179
			c3.898-11.793,4.905-24.332,7.83-36.403c3.863-15.953,11.018-30.886,18.124-45.682c-2.047,11.103-4.092,22.205-6.139,33.309
			c-1.854,10.054-3.712,20.141-4.305,30.347c-0.503,8.639-0.1,17.315-0.73,25.946c-1.774,24.287-10.074,48.092-19.781,70.425"/>
	</g>
</g>
</svg>
