<svg version="1.1" xmlns="http://www.w3.org/2000/svg" viewBox="0 0 768 430" xml:space="preserve"><style>.s0{fill:#DDE4D0;}</style><path d="M393 244c0.1-1.5 0.3-2.9 0.4-4.4 0-0.2 0-0.3 0-0.5 0.1-1.6 0.2-3.3 0.3-5 0 0 0-0.1 0-0.1 -0.5 0.4-0.9 0.7-1.3 1.1l0-0.1c0.4-0.3 0.8-0.7 1.3-1 0 0 0 0 0-0.1 1.3-25.7-1.1-51.6-3.7-68.9 -1.1-1-2.1-2.2-3-3.3 -1.1 1.1-2.2 2.1-3.4 3 2.5 26.2 3.3 68.2-12.1 98.4 -2.7 5.2-5 9.8-7.1 14 0 0 0 0 0 0 -0.6 1.2-1.2 2.3-1.8 3.4 -0.1 0.3-0.3 0.6-0.4 0.8 -14.8 28.9-15.2 29.6-15.2 29.6s-1.3 3.6-1.1 7.1c1.9-2.7 6.6-5.2 11.1-6.2 5.3-1.2 8.5 1.4 8.7 3 0.3 0.1 0.7 0.3 0.9 0.5 0.8-1 1.8-2.4 2.9-4C377.1 300.5 389.8 277.1 393 244zM481.9 183.2c0 0 0 0 0 0 0.1 0.1 0.2 0.3 0.3 0.4C482.1 183.4 482 183.3 481.9 183.2z" fill="#DDE4D0"/><path d="M362.8 280c-0.1-0.2-0.3-0.3-0.4-0.5 0-0.1 0-0.1 0-0.2 -2.2-2.5-5.7-5.1-6.2-5.4 0.4-0.7 0.7-1.4 1-2.1 1-2.4 1.5-5 1.8-7.5 1.3-10.9-2.3-23-11.1-29.9 -7.1-5.2-16.2-5.6-24.5-7.8 -5.8-1.8-12.1-3.7-16.2-8.5l-0.1-0.1c-0.2-0.6-0.2-0.9-0.2-0.9 0 0 0 0.1-0.1 0.3 0-0.1 0-0.1 0-0.1s-0.1 0.7-0.3 2c-0.1-0.1-0.2-0.2-0.2-0.3l-0.1-0.1c-0.2-0.6-0.2-0.9-0.2-0.9s0 0.1-0.1 0.3c0 0.1 0.1 0.4 0.2 0.8l0.1 0.1 0 0c0.1 0.1 0.2 0.2 0.3 0.3 -0.1 0.7-0.2 1.5-0.3 2.4 -0.1-0.1-0.1-0.1-0.2-0.2 0 0 0.1 0.3 0.2 0.5 0 0.3-0.1 0.7-0.1 1 -1 4.5-1.2 8.8-0.9 12.8 -0.1 7 0.7 14.6 3.3 20.2 6.3 13.7 27.1 24.2 36.7 23 5.3-0.7 8-1.9 9.3-2.9 2.5 2.6 5.9 6 7.6 7.5 0.1-0.2 0.1-0.5 0.2-0.7 0.2-0.9 0.5-1.9 0.8-2.9 0 0 0 0 0 0C362.8 280.1 362.8 280 362.8 280z" fill="#DDE4D0"/><path d="M499.2 115.2c-4.3-3.2-12-0.9-13.9-7 0.9-1.6 1.8-3.3 2.5-5 4.4-9.6 4.7-21.5-2-30.2 -14.1-19-47.5-14.1-56.1 7.6 -0.2 0.5-0.4 0.9-0.6 1.4 -1.2-14-14.4-25.7-28.2-25 -18.3 0.2-31.9 19.2-30.2 36.6 0.1 6.1 3.9 11.1 6.1 16.6 -13.1-5.7-30.3 1.2-35.9 14.5 -9.5 20.9 10.6 47.9 33.5 45 -7.6 8-9.8 20.5-5.2 30.7 8.1 17.8 33.7 22.3 48.6 10.6 2.7-2.8 7.1-7.6 11.1-4.3 4.9 12.2 18.9 20.3 31.9 17.4 21.2-4.6 32.3-32.9 19.9-50.4 10.1 2.9 21.9 0.3 29.2-7.6 2.4-2.5 4.2-5.4 5.4-8.4C522.2 142.8 514.4 122.3 499.2 115.2zM427.6 179.6c-16.1-2.8-26.8-18.1-24-34.2 2.8-16.1 18.3-28 34.4-25.1 16.1 2.8 26.6 19.3 23.8 35.4C458.9 171.6 443.6 182.4 427.6 179.6z" fill="#DDE4D0"/><path d="M386.5 269.2c0.2 0 0.4-0.1 0.7-0.1 0-0.1 0.1-0.1 0.1-0.2 3.3-0.5 7.7-0.2 8.2-0.2 0.2-0.8 0.4-1.5 0.6-2.2 0.8-2.4 2.1-4.8 3.5-6.9 6.1-9.2 16.6-16 27.8-15.6 8.7 0.7 16 6.2 23.7 9.9 5.6 2.4 11.6 5 17.8 4l0.1 0c0.5-0.3 0.7-0.6 0.7-0.6 0 0-0.1 0.1-0.2 0.3 0.1-0.1 0.1-0.1 0.1-0.1s-0.4 0.6-1 1.7c0.1 0 0.2 0 0.3 0l0.1 0c0.5-0.3 0.7-0.6 0.7-0.6s-0.1 0.1-0.2 0.3c-0.1 0.1-0.3 0.3-0.6 0.5l-0.1 0 0 0c-0.1 0-0.3 0-0.4 0.1 -0.4 0.6-0.8 1.3-1.3 2.1 0.1 0 0.2 0 0.3 0 0 0-0.2 0.1-0.5 0.3 -0.2 0.3-0.4 0.6-0.6 0.9 -2.2 4.1-4.8 7.5-7.6 10.3 -4.5 5.4-9.9 10.7-15.6 13.3 -13.7 6.3-36.3 0.9-42.8-6.2 -3.6-4-4.8-6.6-5.2-8.2 -3.6 0.3-8.4 0.8-10.6 0.8 0.1-0.2 0.2-0.4 0.3-0.7 0.4-0.9 0.9-1.8 1.3-2.7 0 0 0 0 0 0C386.4 269.2 386.5 269.2 386.5 269.2z" fill="#DDE4D0"/></svg>