<svg version="1.1" xmlns="http://www.w3.org/2000/svg" viewBox="0 0 768 430" xml:space="preserve"><style>.s0{fill:none;stroke-width:1.3;stroke:#DDE4D0;}.s1{fill:none;}.s2{fill:#DDE4D0;}</style><path d="M302 178.5l-6.5-15c3.2-6.2 5.7-10.1 7.7-11.9 1.9-1.8 2.4-0.3 4.1 0.9 1.5 0.9 3.8 2 5.2 5.4 1.4 3.4 2.4 8.4 3.1 15.1 1.8-2.7 3.3-4.2 4.4-4.6 1-0.4 1.8 0.3 2.1 2.2 1.3-8.9 3.2-14.7 5.9-17.5 2.6-2.8 7.7-0.8 9.6 0.8 1.9 1.6 2.4 4.3 1.6 8.4 3-4.8 6.8-7.9 11.5-9.9 4.7-2 14-2.4 16.5-1.5 2.4 0.8 1.8 3.2-1.9 6.8 6.2 0.2 10 1.1 11.7 3 1.5 1.7-0.1 5.8-2.1 7.6 -2 1.8-5.1 2.7-9.6 3 2 2.6 4.5 6.3 7.3 11.4 2.8 5 6 11.2 9.6 18.7 6.4-1.8 10.6-2.1 13-1 2.3 1.1 0.6 4.8 0.9 7.4 0.2 2.4 1.8 5.5 0.6 7.3 -1.3 1.8-3.9 2.9-8 3.4 4.4-1 7.6-0.3 9.8 2.1 2 2.3 1.1 8.4 2.9 12.1 1.9 3.6 4.6 6.6 8.2 9.4 2.4 6.4 2.4 10 0.2 11.1 -2.4 1-6.9-0.5-13.9-4.7 -2.9-1.8-5-2-6.7-0.6 -1.6 1.3-2.7 4.2-3.2 8.7l-6.1-1.3c-0.9 4.6-3.2 7.3-7.3 8.2 -4.1 0.8-8.9 0.6-16.7-3.2 -7.9-4-23.1-13.9-29.7-20 -6.6-6.2-9.5-11.5-9.2-16.4l-29.8-19.6c0.1-5.5 0.7-9.3 2.1-11.5 1.4-2.2 3.3-2.8 5.9-1.7 -0.4-2.6-0.1-5 1.1-7 1.2-2.1 3.1-4 5.9-5.5L302 178.5zM313.9 188.3l-9.6-34.4c2.6-0.3 4.6 0.7 6.1 3 1.4 2.2 1.7 4.4 2.9 10.4 1.2 5.9 2.4 14.2 4 25.1C316.2 191.1 315 189.7 313.9 188.3zM302.8 154.9l-5.3 8.6 7.7 15.7 6.2 6.9L302.8 154.9zM315.7 193.8l-13.2-13.5c-1.4 1-2.5 2.4-3.4 3.9 -0.9 1.6-1.6 3.3-2 5.5l20.7 16.4c-2.1-2.8-3.2-5.1-3.6-7.2C313.8 196.9 314.3 195.2 315.7 193.8zM325.3 212.5l-29.6-18.7c-2.2-0.4-3.7-0.5-4.6-0.2 -0.9 0.2-2.1 0.8-0.8 1.9 1.2 1.1 3.4 1.3 8.3 4.8 4.9 3.4 11.7 8.5 20.9 15.6 -0.6-0.2-0.6-0.2 0 0 0.5 0.1 1.6 0.3 3.2 0.7 -1.5-1.2-1.9-2.2-1.5-2.9C321.6 213 322.9 212.5 325.3 212.5zM316.5 221.6l1.4-4.4 -28.3-20.6 -0.3 7.6L316.5 221.6 316.5 221.6zM320.4 221.2c-0.7 3.5-0.6 6.7 0.5 9.5 1.1 2.6 3.5 5.2 5.7 7.2 2.1 2 2 1.6 6.6 4.9 4.7 3.2 14.9 11 20.7 14.2 5.6 3.1 10.1 4.1 13.5 4.6 3.4 0.4 5.8-0.2 7.2-1.8 -6.7-2.7-14.3-7.1-23.4-13.6 -9.1-6.5-19.2-14.7-30.8-24.9L320.4 221.2zM378.4 254.1c-6.7-3.5-14.4-8-23.3-14 -9-5.9-19-13-30.2-21.4l-2.5 1.6c6.7 7 14.3 13.5 23.4 19.9 9.1 6.3 19.1 12.3 30.5 18.1 0.7-1.4 1.4-2.8 2.2-4.2v0H378.4zM335.1 223.9c8.4-1.5 16.9-2.8 25.5-3.9 8.6-1.1 20.6-1.3 26-2.5 5.4-1.3 5.3-2.7 6.5-4.5 1.2-1.9 1.4-4.1 0.6-6.7 0.4 2.7-2.3 4.5-8.4 5.4 -6.2 0.8-19.6 0.3-28-0.1 -8.5-0.4-15.9-1.2-22.5-2.3 -5.5 1.8-8.8 3.2-9.9 4.6 -1.1 1.4 1.6 2 3.4 3.7 1.6 1.7 4 3.6 6.7 6.1H335.1L335.1 223.9zM340.2 208.4l6.8-4.1c5.7 0.5 11.7 0.8 18.2 0.5 6.5-0.3 15.7-1.6 20.4-2 4.5-0.5 5.6-1.3 6.5-0.7 0.9 0.6 0.5 2.7-0.9 4.1 -1.4 1.2-0.7 2.6-7.1 3.1 -6.5 0.5-23.5-0.3-30.9-0.3 -7.4-0.1-11.7-0.4-13.1-0.7h0V208.4zM367.1 201.9c-2.4-1.5-4-3.9-5.3-7.1 -1.3-3.4-2.3-8.5-2-12.3 0.3-3.8 1.6-7.2 3.9-10.2l15.9 28.9c-4.2 0.2-8.3 0.5-12.5 0.7L367.1 201.9zM327.3 195.4c4.3-3.8 8.9-7.1 14.1-10.1 5.2-3.1 10.6-5.6 16.6-7.9l3.3-5.3 -12.4-3.5c-9.9 4.8-17.4 9.7-22.7 14.7 -5.3 5.1-8.6 10.7-8.8 15.1 -0.1 4.2 2.3 7.5 7.6 10.1 -0.8-2.8-0.9-5.1-0.5-7.3C324.7 198.9 325.7 197.1 327.3 195.4zM327.5 208.2l9.3-3.5c-1.1-2.9-1-5.2 0.2-6.7 1.2-1.6 3.5-2.5 7-2.7 -1.1-0.9-1.1-2.3 0.1-4.3 1.1-2 3.3-4.5 6.7-7.5 -3.1 1.7-6 3.3-8.7 4.9 -2.7 1.5-5.3 2.7-7.8 4.7 -2.7 2.1-6.5 5-7.6 7.7C325.4 203.3 325.7 205.8 327.5 208.2zM355.1 182.7c-2.6 2-4.5 3.9-6 5.9 -1.4 2-4.5 4.1-2.5 5.8 2 1.6 6.8 2.9 14.4 4 -0.9-2.1-1.8-4.3-2.8-7C357.3 188.8 356.2 186 355.1 182.7zM357 201.4c-3.7-1.7-6.9-2.7-9.5-3.3 -2.6-0.6-4.6-1-6 0 -1.4 1-2 2.6-2 5.5l8-1.7C350.7 201.8 353.8 201.6 357 201.4L357 201.4zM338.4 171.1c0.7-5.1 2.1-8.8 4.7-11.7 2.5-2.9 6.6-4.4 10.1-5.5 3.5-1.4 8.6-2.4 10.2-2 1.4 0.3 0.2 2.3-1.3 4 -1.5 1.6-5.8 3.6-7.6 5.6 -1.8 2-2.8 4-3 6.2 -1.2-0.8-2.9-0.9-5.1-0.2C344.3 167.9 341.6 169.2 338.4 171.1zM358.6 168.6l5-9.5c-1.9-1.1-3.6-0.9-5.2 0.6 -1.6 1.4-3 4.1-4.3 8L358.6 168.6zM365.3 159c4.2-0.2 6.9 0.2 8.2 1.3 1.3 1.2 1.1 3.5-0.2 5 -1.4 1.3-5.5 2.5-7.4 3.1 -2 0.5-3.3 0.5-4.3-0.1C362.8 165.3 364 162.1 365.3 159zM335.2 172.5c1.4-3.9 2.1-7.2 2.2-10.2 0.1-3.1-0.3-6.5-1.8-7.6 -1.7-1.1-6-2-7.9 1.3 -1.9 3.3-3.1 9.3-3.6 18.4l4.2 4.3C330.6 176.6 332.9 174.6 335.2 172.5zM327.2 180.1l-6.6-8.7 -3.1 2.7 1.6 14.4c1.2-2.6 2.4-4.6 3.8-6C324.1 181.2 325.6 180.4 327.2 180.1zM345.5 229.1c4.9 1.7 10.8 3.8 18.1 6.5 7.3 2.6 15.6 5.7 25.2 9.2 -1.4 1-2.3 2.2-3.3 3.6 -0.9 1.3-1.7 2.9-2.3 4.6 2.3 2.8 0.3 2.3-6-1.7 -6.4-4.1-16.8-11.3-31.7-22.2L345.5 229.1zM380.8 221c8.3 9 11.6 13.4 9.8 13.6 -1.9 0-8.6-4.2-20.6-13 3.6-0.2 7.2-0.4 10.7-0.6L380.8 221zM389.2 237.3l-3.2 4.9 -11.4-4.6 -18.3-13.7 11.4-1.4c3 2.7 6.2 5.1 9.8 7.6 3.6 2.5 7.4 4.8 11.6 7.2L389.2 237.3zM354.7 223.9l-9.6 0.9c9.6 4.5 15.3 7.1 17.5 7.6 1.9 0.5-3.6-3.1-5-4.5C356.3 226.5 355.3 225.2 354.7 223.9L354.7 223.9zM394.1 234.5c3.2 0.8 5.9 2 8.2 3.5 2.3 1.4 4.2 2.9 5.2 5.4 0.9 2.4 0.9 5.4 0.2 9l-18.7-10c2.1-0.4 3.4-1.1 4.4-2.5 0.9-1.3 1.1-3.1 0.8-5.4H394.1zM386.6 221.8c3.4-2.8 6-3.1 7.9-1.2 1.8 1.9 2.9 6 3.3 12.6l-5.3-1.1c-0.9-1.9-1.8-3.3-2.9-4.4 -1.2-1.2-2.7-1.5-3.3-2.4 -0.4-1-0.5-2.1 0.3-3.3L386.6 221.8z" class="s0"/><path d="M491 186.5c0.1-29.5-11.8-56.2-31.1-75.6 -19.3-19.4-45.9-31.4-75.4-31.5v0 0c-29.5-0.1-56.2 11.8-75.6 31.1 -19.4 19.3-31.4 45.9-31.5 75.4h0v0h0c-0.1 29.5 11.8 56.2 31.1 75.6 19.3 19.4 45.9 31.4 75.4 31.5v0h0v0c29.5 0.1 56.2-11.8 75.6-31.1 19.4-19.3 31.4-45.9 31.5-75.4h0v0H491z" fill="none"/><line x1="384.6" y1="79.4" x2="384.6" y2="79.4" fill="none"/><line x1="383.9" y1="302" x2="383.9" y2="302" fill="none"/><path d="M466.4 104.5c-20.9-21-49.8-34.1-81.8-34.2v0h0v0h0v0c-32-0.1-61 12.8-82 33.7 -21 20.9-34.1 49.8-34.2 81.8h0v0h0c-0.1 32 12.8 61 33.7 82 20.9 21 49.8 34.1 81.8 34.2 32 0.1 61-12.8 82-33.7 21-20.9 34.1-49.8 34.2-81.8h0v0h0C500.2 154.5 487.3 125.5 466.4 104.5zM491 186.5c-0.1 29.5-12.1 56.1-31.5 75.4 -19.4 19.3-46.1 31.2-75.6 31.1v0h0v0c-29.5-0.1-56.1-12.1-75.4-31.5 -19.3-19.4-31.1-46.1-31.1-75.6h0v0h0c0.1-29.5 12.1-56.1 31.5-75.4 19.4-19.3 46.1-31.1 75.6-31.1 29.5 0.1 56.1 12.1 75.4 31.5 19.3 19.4 31.1 46.1 31.1 75.6h0v0H491zM245.7 90.7l-0.1 31 -4.8 0 0.1-32.6c-0.6-0.1-1.1-0.2-1.7-0.2l-0.1 32.8 -4.8 0 0.1-32.7c-0.7 0.1-1.4 0.2-2.1 0.4l-0.1 32.3 -4.8 0 0.1-30.3c-7.1 4-11.9 12.3-11.9 21.8 0 10.2 5.4 19 13.2 22.7l-0.4 137.6c0 2.1 3.7 3.9 8.3 3.9 4.6 0 8.3-1.7 8.3-3.9l0.4-137.6c7.8-3.7 13.3-12.4 13.4-22.6C258.8 103.2 253.4 94.5 245.7 90.7zM519.6 122c-2.5 18.5 1.3 39.2 3.2 48.7v0l-0.3 103.6c0 2.1 3.7 3.9 8.3 3.9 4.6 0 8.3-1.7 8.3-3.9 0.3-59.1-0.3-118.2 0.5-177.2C540.5 95.5 523.8 107.1 519.6 122zM579.5 89.8c-11.9 0-21.6 10.9-21.7 24.4 0 10.2 5.4 18.9 13.2 22.7l-0.4 137.6c0 2.1 3.7 3.9 8.3 3.9 4.6 0 8.3-1.7 8.3-3.9l0.4-137.6c7.8-3.7 13.3-12.4 13.4-22.6C601 100.8 591.4 89.8 579.5 89.8z" fill="#DDE4D0"/><path d="M471.3 220.1c0-0.4 0-0.6-0.1-0.8 -0.1-0.3-0.2-0.5-0.4-0.7 0.6-0.5 0.8-1.2 0.6-1.9 -0.1-0.5-0.4-0.8-0.9-1 0.4-0.6 0.4-1.2 0.3-1.8 -0.3-0.7-0.8-1.2-1.5-1.4 0.2-0.3 0.2-0.6 0-0.9 0-0.2-0.2-0.4-0.4-0.6 0.2-0.6 0.1-1.1-0.3-1.6 -0.3-0.4-0.8-0.6-1.3-0.7 0.4-0.9 0.2-1.7-0.4-2.6 -0.7-0.9-1.6-1.2-2.8-1l-0.3-0.6c-0.8-0.9-1.7-1.2-2.9-0.9 0.1-0.5-0.1-1-0.4-1.3 -0.6-0.8-1.3-1-2.2-0.6 -0.4-0.4-0.9-0.6-1.4-0.7 -0.6-0.1-1.1 0.1-1.5 0.5l-0.3 0.3c-0.7-0.4-1.4-0.3-2.1 0.1 -0.4 0.3-0.6 0.7-0.6 1.2 -0.5-0.2-0.9-0.1-1.3 0.3 -0.6 0.4-0.8 0.9-0.6 1.7 -0.4 0.3-0.6 0.7-0.6 1.1 -0.4 0.1-0.7 0.2-1 0.4 -0.4 0.3-0.6 0.7-0.7 1.2 0 0.1 0 0.2 0 0.4 0 0 0 0 0 0 -1.1-0.3-2.1-0.5-3.1-0.8 -2.6-0.7-4.6-1.3-5.9-1.9 -0.1 0-0.2-0.1-0.3-0.1 -1-0.5-2-1-3-1.7 -1.7-1.1-3.4-2.5-5.1-4.2 -3.5-3.5-5.4-5.7-5.8-6.4l0 0c-0.5-0.7-1.2-1-2.1-0.8 0 0-0.1 0-0.1 0 0 0-0.1 0-0.1 0 0 0 0 0 0 0 -0.1 0-0.2 0.1-0.3 0.1 0 0-0.1 0-0.1 0 -0.1 0-0.2 0.1-0.4 0.2 0 0-0.1 0-0.1 0 -0.1 0.1-0.2 0.1-0.4 0.2 0 0 0 0-0.1 0 -0.3 0.2-0.6 0.4-0.9 0.7 -0.3 0.2-0.5 0.5-0.7 0.7 -0.2 0.2-0.3 0.4-0.5 0.7 0 0 0 0.1-0.1 0.1 -0.1 0.3-0.3 0.5-0.4 0.8 0 0 0 0.1-0.1 0.1 -0.1 0.2-0.1 0.4-0.2 0.7 0 0.1-0.1 0.2-0.1 0.3l0 0.1c0 0.1-0.1 0.3-0.1 0.4l0.1 2.1c0.4 0 0.9 0.1 1.7 0.5 1.4 0.7 3 2 4.8 3.8 2.1 2.2 3.5 3.8 4 4.8 0.7 1.2 1.6 3.5 2.5 6.9 0.7 2.5 1.1 4.6 1.3 6.2 -0.4 0.3-0.6 0.6-0.7 1.1l-0.1 0 -0.7 0.1c-0.3-0.7-0.9-1-1.6-0.9 -0.6 0.1-1.1 0.6-1.3 1.3 -0.3-0.1-0.6-0.2-0.9-0.1 -0.6 0.1-1.1 0.4-1.4 0.9 -0.4 0.4-0.6 1-0.5 1.6l-0.9 0c-0.6 0.1-1.1 0.4-1.6 1 -0.4 0.5-0.6 1.1-0.5 1.8l-0.2 0c-0.8 0.2-1.5 0.7-2 1.4 -0.5 0.7-0.6 1.5-0.5 2.4l0.2 0.6c-0.5 0.6-0.7 1.4-0.6 2.2 0 0.2 0.2 0.6 0.4 1 -0.5 0.7-0.7 1.5-0.5 2.5 0.3 1.4 1.1 2.2 2.4 2.4l0 1.2c0.3 1.3 1.2 2 2.5 2.2l1 0.6c0 0.5 0.2 1 0.6 1.4 0.4 0.4 0.8 0.6 1.3 0.7l0.3 0 0 0.2c-0.1 0.6 0.1 1.1 0.4 1.5 0.4 0.4 0.8 0.7 1.3 0.7 0.6 0.1 1-0.1 1.4-0.4 0.4 0.6 0.9 0.9 1.6 1.1 0.3 0 0.7 0 1.1-0.2 0.3 0.8 0.9 1.2 1.8 1.3 0.5 0.1 1 0 1.3-0.2 0.4 0.5 1 0.8 1.8 0.7l0.3-0.1 0 0.2c0 0.6 0.2 1 0.6 1.4 0.4 0.4 0.9 0.6 1.5 0.6 0.5 0 0.9-0.2 1.3-0.6 0.5 0.5 1.1 0.7 1.7 0.7 0.2 0 0.6-0.1 1.1-0.3 0.5 0.6 1.2 0.9 2 0.9 0.7 0 1.4-0.3 1.8-1l0.2 0c0.6-0.1 1-0.2 1.4-0.5 0.6 0.8 1.4 1.1 2.4 1.1 0.7 0 1.3-0.3 1.7-0.9 0.5-0.5 0.8-1 0.9-1.7l1 0.2c0.7 0 1.3-0.3 1.7-0.9 0.5-0.5 0.8-1 0.8-1.7 0.7 0 1.3-0.3 1.7-0.9 0.5-0.5 0.8-1 0.9-1.7 0.2 0.1 0.6 0.2 1.1 0.3 0.7 0 1.3-0.3 1.7-0.9 0.5-0.5 0.7-1.1 0.6-1.8 0.4 0 0.8 0 1.1-0.1 1.2-0.6 1.7-1.5 1.4-2.7 0.2-0.4 0.2-0.8 0.2-0.9 0-0.3-0.1-0.5-0.3-0.8 0.9-0.4 1.2-1.1 1.2-2 0-0.5-0.2-0.9-0.5-1.4 0.5-0.5 0.8-1.1 0.8-1.8 -0.1-0.8-0.5-1.4-1.1-1.9 0.1-0.3 0.2-0.6 0.2-0.9 0-0.3 0-0.5-0.2-0.7 0.3-0.5 0.4-1.1 0.1-1.7 -0.2-0.4-0.4-0.7-0.7-0.9 0.1-0.1 0.1-0.2 0.2-0.3 0.3-0.5 0.4-1.1 0.3-1.7l1-0.1c0.7-0.2 1.1-0.6 1.3-1.2 0.3-0.5 0.3-1.1 0.1-1.7 0.6-0.2 0.9-0.4 1-0.4C471.7 222.1 471.9 221.2 471.3 220.1zM434.9 216.5c-0.1 0-0.1 0.1-0.2 0.2 -0.2-0.8-0.4-1.5-0.5-2.2 0.5 0.5 0.9 1.1 1.2 1.7C435.3 216.3 435.1 216.4 434.9 216.5zM436.3 215.4c0 0.1-0.1 0.1-0.2 0.2 -0.4-1.4-0.5-2.7-0.2-3.8 0.2 0.1 0.3 0.3 0.5 0.4 0.2 0.8 0.5 1.7 0.7 2.6C436.8 214.9 436.6 215.1 436.3 215.4zM438.1 214.7l-0.2-0.9c0.3 0.3 0.5 0.7 0.8 1C438.5 214.7 438.3 214.7 438.1 214.7zM440.1 212.1l-0.1 0.5c-0.5-1.1-1-2.3-1.5-3.5 0.1 0 0.3 0.1 0.4 0.1 0.4 0.1 1.1 0.5 2.1 1.3l0.3 0.2C440.6 211.2 440.2 211.7 440.1 212.1z" fill="#DDE4D0"/></svg>