<svg version="1.1" id="Layer_1" xmlns="http://www.w3.org/2000/svg" xmlns:xlink="http://www.w3.org/1999/xlink" x="0px" y="0px"
 viewBox="0 0 768 430" enable-background="new 0 0 768 430" xml:space="preserve">
<g>
	<g>
		<circle fill="#716A57" cx="380.602" cy="212.632" r="155.633"/>
		<circle fill="#5F5846" cx="380.602" cy="212.632" r="147.961"/>
		<circle fill="#4F493A" cx="380.602" cy="212.632" r="64.443"/>
		<path fill="#4F493A" d="M475.342,246.18c-0.262-0.184-0.62-0.254-1.021-0.078c-1.24,0.537-1.299,2.359-0.14,3.045
			c1.23,0.729,2.699-0.877,2.59-2.08C476.695,246.23,475.912,245.936,475.342,246.18z"/>
		<path fill="#4F493A" d="M408.893,295.047c-0.971,0.309-1.68,0.869-2.4,1.557c-1.382,1.322-1.431,3.846,0,5.158
			c1.393,1.279,3.794,1.516,5.156,0c0.672-0.744,1.25-1.424,1.538-2.422C413.897,296.852,411.439,294.232,408.893,295.047z"/>
		<path fill="#4F493A" d="M420.292,316.215c-0.074-0.018-0.149-0.035-0.224-0.051c-1.688-0.385-3.392,0.795-3.392,2.582
			c0,1.779,1.703,2.971,3.392,2.584c0.074-0.016,0.149-0.033,0.224-0.051C422.795,320.709,422.797,316.785,420.292,316.215z"/>
		<path fill="#4F493A" d="M331.979,318.82c-0.041-0.225-0.083-0.453-0.126-0.678c-0.404-2.172-3.982-2.172-4.386,0
			c-0.043,0.225-0.085,0.453-0.127,0.678c-0.284,1.52,0.669,3.047,2.32,3.047C331.297,321.867,332.263,320.34,331.979,318.82z"/>
		<path fill="#4F493A" d="M331.968,339.363c-0.117,0.086-0.236,0.172-0.353,0.258c-1.079,0.779-1.44,2.273-0.424,3.289
			c1.008,1.01,2.511,0.656,3.291-0.424c0.085-0.117,0.171-0.234,0.256-0.354C335.904,340.521,333.581,338.197,331.968,339.363z"/>
		<path fill="#4F493A" d="M310.123,310c-0.299-0.922-0.966-1.443-1.823-1.672c-0.238-0.125-0.488-0.256-0.752-0.309
			c-1.576-0.326-2.937,0.684-3.026,2.305c-0.128,2.314,2.67,3.492,4.479,2.434C309.897,312.232,310.453,311.023,310.123,310z"/>
		<path fill="#4F493A" d="M296.825,277.477c-3.509,0-3.515,5.455,0,5.455C300.335,282.932,300.34,277.477,296.825,277.477z"/>
		<path fill="#4F493A" d="M311.819,244.203c-0.072-0.027-0.145-0.057-0.216-0.084c-1.168-0.451-2.392,0.688-2.392,1.822
			c0,1.141,1.227,2.273,2.392,1.822c0.072-0.025,0.144-0.053,0.216-0.082C313.522,247.025,313.525,244.861,311.819,244.203z"/>
		<path fill="#4F493A" d="M322.521,270.539c-3.251,0-3.256,5.053,0,5.053C325.772,275.592,325.778,270.539,322.521,270.539z"/>
		<path fill="#4F493A" d="M295.771,179.955c-0.781-1.212-2.292-1.643-3.571-0.936c-0.429,0.237-0.778,0.542-1.106,0.9
			c-0.668,0.727-0.891,1.721-0.501,2.644c0.341,0.81,1.27,1.586,2.212,1.488c0.777-0.083,1.326-0.206,2.031-0.525
			C296.082,182.959,296.479,181.057,295.771,179.955z"/>
		<path fill="#4F493A" d="M461.699,213.875c-0.074-0.014-0.15-0.027-0.227-0.042c-1.704-0.303-3.42,0.742-3.42,2.605
			c0,1.851,1.716,2.908,3.42,2.605c0.076-0.014,0.152-0.027,0.227-0.041c1.096-0.194,2.002-1.482,1.954-2.564
			C463.604,215.344,462.871,214.083,461.699,213.875z"/>
		<path fill="#4F493A" d="M500.623,202.521c-0.951-0.468-1.763-0.561-2.786-0.364c-1.688,0.322-2.805,2.438-2.289,4.03
			c0.471,1.454,2.179,2.843,3.812,2.344c1.125-0.143,2.129-0.861,2.59-1.956C502.538,205.183,502.077,203.238,500.623,202.521z"/>
		<path fill="#4F493A" d="M508.102,222.16c-3.659,0-3.666,5.688,0,5.688C511.762,227.848,511.769,222.16,508.102,222.16z"/>
		<path fill="#4F493A" d="M497.424,239.65l-0.226,0.043c-2.415,0.459-2.417,4.424,0,4.883c0.075,0.016,0.15,0.029,0.226,0.043
			c1.625,0.309,3.262-0.721,3.262-2.484C500.686,240.385,499.051,239.344,497.424,239.65z"/>
		<path fill="#4F493A" d="M442.009,146.534c-0.024-0.072-0.05-0.145-0.074-0.217c-0.778-2.315-3.93-2.318-4.71,0
			c-0.025,0.073-0.049,0.145-0.072,0.217c-0.529,1.569,0.863,3.188,2.428,3.188C441.144,149.722,442.535,148.102,442.009,146.534z"
			/>
		<path fill="#4F493A" d="M470.51,122.792c-1.402,0.063-2.876,1.218-2.761,2.76c0.007,0.079,0.014,0.158,0.019,0.238
			c0.107,1.427,1.184,2.812,2.742,2.742c1.578-0.07,2.625-1.206,2.742-2.742c0.007-0.08,0.013-0.159,0.018-0.238
			C473.38,124.109,471.923,122.729,470.51,122.792z"/>
		<path fill="#4F493A" d="M491.914,148.436c-0.87-1.547-3.081-1.785-4.31-0.555c-1.229,1.227-0.992,3.44,0.554,4.309
			C490.799,153.673,493.406,151.094,491.914,148.436z"/>
		<path fill="#4F493A" d="M467.151,173.908c-0.353-1.093-1.302-1.774-2.392-1.771c-0.263-0.089-0.536-0.148-0.816-0.142
			c-0.998,0.024-1.88,0.68-2.158,1.642c-0.324,1.119,0.176,2.313,1.166,2.912c0.79,0.479,1.6,0.527,2.495,0.364
			C466.707,176.683,467.533,175.085,467.151,173.908z"/>
		<path fill="#4F493A" d="M493.808,170.264c-0.202,0.181-0.352,0.388-0.513,0.605c-0.794,1.062,0.785,2.642,1.848,1.849
			c0.218-0.163,0.425-0.312,0.605-0.515C496.929,170.887,495.126,169.082,493.808,170.264z"/>
		<path fill="#4F493A" d="M503.822,175.674c-0.021-0.109-0.015-0.224-0.046-0.326c-0.43-1.387-1.911-2.147-3.273-1.572
			c-1.385,0.584-1.819,2.14-1.16,3.442c0.368,0.726,1.03,1.124,1.795,1.325C502.905,179.011,504.324,177.284,503.822,175.674z"/>
		<path fill="#4F493A" d="M385.809,105.688c-0.078,0.009-0.159,0.018-0.237,0.027c-1.156,0.13-2.291,0.934-2.232,2.232
			c0.06,1.321,0.986,2.091,2.232,2.231c0.078,0.009,0.159,0.018,0.237,0.027c1.179,0.132,2.31-1.133,2.259-2.258
			C388.018,106.836,387.066,105.547,385.809,105.688z"/>
		<path fill="#4F493A" d="M417.69,100.203c-3.229,0-3.234,5.018,0,5.018C420.919,105.221,420.925,100.203,417.69,100.203z"/>
		<path fill="#4F493A" d="M414.693,126.284c-0.164-1.218-1.558-2.445-2.86-1.906c-0.594,0.245-1.208,0.543-1.486,1.167
			c-0.467,1.038-0.372,2.172,0.579,2.908c0.523,0.404,1.15,0.51,1.752,0.401C413.94,128.73,414.861,127.545,414.693,126.284z"/>
		<path fill="#4F493A" d="M440.055,113.801c-1.416,0-2.774,1.247-2.71,2.71c0.066,1.468,1.192,2.71,2.71,2.71
			c1.418,0,2.776-1.247,2.711-2.71C442.699,115.043,441.576,113.801,440.055,113.801z"/>
		<path fill="#4F493A" d="M379.33,77.636c-0.021,0.035-0.04,0.068-0.06,0.104c-0.422,0.723-0.422,1.636,0,2.359
			c0.021,0.035,0.04,0.069,0.06,0.104c1.233,2.116,4.854,1.276,4.738-1.283C383.96,76.463,380.646,75.38,379.33,77.636z"/>
		<path fill="#4F493A" d="M335.131,91.349c0.08,0.009,0.159,0.02,0.238,0.03c1.068,0.138,1.991-1.013,1.991-1.991
			c0-0.969-0.917-2.128-1.991-1.991c-0.08,0.01-0.158,0.02-0.238,0.031"/>
		<path fill="#4F493A" d="M338.225,133.204c-3.015,0-3.019,4.684,0,4.684C341.238,137.887,341.243,133.204,338.225,133.204z"/>
		<path fill="#4F493A" d="M359.185,113.656c-1.471,0-2.879,1.292-2.812,2.811c0.068,1.523,1.236,2.81,2.812,2.81
			c1.469,0,2.878-1.292,2.811-2.81C361.927,114.943,360.761,113.656,359.185,113.656z"/>
		<path fill="#4F493A" d="M325.149,111.108c-0.441,0.094-0.833,0.243-1.241,0.443c-1.592,0.784-1.592,3.426,0,4.21
			c0.408,0.201,0.8,0.349,1.241,0.443c1.665,0.357,3.345-0.769,3.345-2.549C328.495,111.886,326.816,110.75,325.149,111.108z"/>
		<path fill="#4F493A" d="M321.219,154.455c-0.74-0.74-1.813-0.465-2.392,0.308c-0.087,0.116-0.173,0.233-0.262,0.349
			c-0.855,1.146,0.85,2.851,1.995,1.995c0.118-0.086,0.234-0.174,0.351-0.261C321.683,156.268,321.964,155.2,321.219,154.455z"/>
		<path fill="#4F493A" d="M370.582,136.342c-2.648,0-2.652,4.116,0,4.116C373.229,140.458,373.234,136.342,370.582,136.342z"/>
		<path fill="#4F493A" d="M302.536,204.031c-2.498,0-2.503,3.88,0,3.88C305.033,207.911,305.037,204.031,302.536,204.031z"/>
		<path fill="#4F493A" d="M267.323,272.537c-1.292,0-1.294,2.008,0,2.008C268.615,274.545,268.617,272.537,267.323,272.537z"/>
		<path fill="#4F493A" d="M353.451,299.477c-2.756,0-2.761,4.281,0,4.281C356.207,303.758,356.211,299.477,353.451,299.477z"/>
		<path fill="#4F493A" d="M382.002,302.414c-2.649,0-2.652,4.115,0,4.115C384.649,306.529,384.655,302.414,382.002,302.414z"/>
		<path fill="#4F493A" d="M373.249,323.693c-1.126-1.125-2.974-0.82-3.81,0.492c-0.04,0.059-0.078,0.121-0.118,0.184
			c-1.268,1.988,1.262,4.52,3.254,3.25c0.06-0.037,0.121-0.076,0.182-0.115C374.068,326.668,374.379,324.824,373.249,323.693z"/>
		<path fill="#4F493A" d="M362.968,346.324c-1.324,0-1.617,1.354-1.64,2.4c-0.043,2.109,3.323,2.115,3.279,0
			C364.586,347.678,364.29,346.324,362.968,346.324z"/>
		<path fill="#4F493A" d="M397.046,343.16c-0.452-0.773-1.3-1.26-2.196-1.26c-0.896,0-1.742,0.486-2.195,1.26
			c-0.493,0.842-0.39,1.717,0,2.566c0.029,0.062,0.058,0.125,0.086,0.186c0.735,1.6,3.484,1.6,4.219,0
			c0.029-0.061,0.058-0.123,0.087-0.186C397.437,344.877,397.539,344.002,397.046,343.16z"/>
		<path fill="#4F493A" d="M443.862,264.279c-0.133,0-0.254,0.018-0.373,0.037c-0.395-0.387-0.921-0.631-1.53-0.631
			c-1.173,0-2.295,1.031-2.242,2.242c0.055,1.215,0.985,2.242,2.242,2.242c0.199,0,0.396-0.039,0.588-0.096
			c0.328,0.275,0.764,0.455,1.315,0.455C446.597,268.529,446.602,264.279,443.862,264.279z"/>
		<path fill="#4F493A" d="M426.73,282.404c-2.065,0-2.068,3.211,0,3.211C428.798,285.615,428.803,282.404,426.73,282.404z"/>
		<path fill="#4F493A" d="M347.74,282.875c-0.157,0.01-0.316,0.021-0.475,0.033c-0.193,0.012-0.194,0.287,0,0.301
			c0.159,0.01,0.317,0.023,0.475,0.033C347.978,283.26,347.979,282.857,347.74,282.875z"/>
		<path fill="#4F493A" d="M275.595,294.367c-0.075,0.016-0.148,0.033-0.224,0.051c-0.999,0.24-0.999,1.785,0,2.025
			c0.076,0.016,0.149,0.033,0.224,0.053C277.373,296.918,277.384,293.939,275.595,294.367z"/>
	</g>
	<g>
		<path fill="#62912D" d="M453.277,188.77c-2.188,7.169,0.648,15.582,6.731,19.96c3.323,2.392,7.811,4.097,8.874,8.051
			c0.928,3.443-1.269,6.846-2.912,10.01c-2.064,3.975-3.386,8.484-2.808,12.928c0.579,4.441,3.332,8.754,7.514,10.357
			c5.808,2.227,14.072-0.363,17.334,4.932c0.846,1.373,1.104,3.029,1.8,4.482c2.493,5.207,11.143,5.66,14.168,0.746
			c1.749-2.84,1.643-6.576,3.573-9.297c3.073-4.33,9.554-4.109,14.104-6.846c2.778-1.672,4.755-4.436,6.122-7.377
			c3.518-7.578,3.237-16.809-0.732-24.159c-3.421-6.337-9.34-11.245-11.782-18.02c-1.299-3.6-1.523-7.507-2.686-11.155
			c-4.388-13.782-22.126-19.253-33.449-11.554c-5.228,3.555-7.765,4.881-14.12,6.898C459.241,180.559,455.197,182.48,453.277,188.77
			z"/>
		<path fill="#5B872A" d="M472.304,206.979c2.082,2.897,4.146,6.096,4.17,9.664c0.019,2.59-1.049,5.045-1.955,7.471
			c-0.907,2.426-1.677,5.062-1.051,7.576s3.146,4.723,5.663,4.107c2.088-0.512,3.576-2.73,5.726-2.801
			c1.945-0.062,3.475,1.715,4.195,3.525c0.721,1.809,0.966,3.818,1.971,5.486c2.464,4.09,9.549,3.93,11.826-0.268
			c1.045-1.924,1.115-4.248,2.086-6.211c0.989-1.998,2.927-3.5,5.108-3.959c1.424-0.299,2.92-0.176,4.324-0.559
			c2.176-0.594,3.875-2.354,4.959-4.33c2.511-4.582,1.998-10.648-1.248-14.741c-0.998-1.257-2.264-2.417-2.61-3.984
			c-0.602-2.735,1.815-5.15,2.506-7.865c0.712-2.802-0.535-5.823-2.546-7.899c-2.01-2.076-4.687-3.364-7.359-4.464
			c-4.618-1.898-10.177-3.489-15.169-2.248c-5.297,1.317-7.871,6.632-13.316,7.386c-4.776,0.66-11.941-4.018-12.487,3.267
			C466.844,199.503,470.415,204.354,472.304,206.979z"/>
	</g>
	<g>
		<path fill="#6B9F31" d="M456.759,167.376c1.472,1.277,2.677,3.016,3.477,5.461c2.703,8.255-8.018,26.987,7.279,29.347
			c3.347,0.518,7.015-0.96,10.04,0.567c5.954,3.007,2.312,12.065,3.635,18.604c0.891,4.4,4.705,8.057,9.142,8.756
			c4.436,0.699,9.191-1.602,11.394-5.514c1.388-2.465,1.931-5.574,4.201-7.256c4.572-3.387,10.734,1.935,16.417,1.656
			c4.25-0.21,7.693-3.62,9.766-7.335c5.558-9.964,3.526-23.564-4.701-31.468c-1.995-1.916-4.347-3.58-5.646-6.021
			c-3.562-6.7,2.369-15.7-1.416-22.277c-4.49-7.808-19.188-6.143-21.389-14.877c-0.82-3.254,0.674-6.678,0.296-10.013
			c-0.591-5.199-5.382-8.739-9.75-11.62c-2.688-1.772-5.951-3.617-8.943-2.427c-2.152,0.855-3.426,3.036-5.157,4.576
			c-4.191,3.728-10.538,3.359-16.063,2.378c-9.454-1.68-21.021-0.56-25.757,9.012c-3.317,6.707-4.479,16.724-1.308,24.033
			C437.646,165.339,448.237,159.984,456.759,167.376z"/>
		<path fill="#73AB35" d="M443.62,148.359c2.414,3.078,6.301,4.549,10.019,5.771c3.719,1.22,7.634,2.431,10.388,5.213
			c1.823,1.843,3.005,4.309,3.302,6.885c0.449,3.903-1.075,7.742-1.468,11.651c-0.392,3.91,0.969,8.631,4.725,9.783
			c5.393,1.653,11.138-5.255,16.176-2.717c2.678,1.349,3.541,4.771,3.521,7.771c-0.018,3-0.604,6.099,0.372,8.936
			c1.135,3.296,4.481,5.699,7.969,5.719c3.485,0.019,6.859-2.346,8.03-5.63c1.343-3.764,0.064-8.468,2.639-11.524
			c2.724-3.231,8.722-3.158,10.086-7.159c1.192-3.506-2.324-6.702-5.429-8.722c-3.105-2.02-6.675-5.107-5.615-8.655
			c0.687-2.294,3.264-4.192,2.589-6.488c-0.438-1.491-2.076-2.24-3.562-2.695c-2.868-0.879-5.857-1.364-8.856-1.435
			c-3.915-0.093-7.932,0.503-11.689-0.604c-3.757-1.106-7.223-4.726-6.376-8.55c1.145-5.174,8.887-6.849,9.744-12.078
			c0.59-3.592-2.851-6.921-6.475-7.274c-3.623-0.354-7.117,1.535-9.865,3.924c-1.997,1.737-3.847,3.83-6.371,4.629
			c-2.99,0.947-6.211-0.144-9.12-1.321c-2.907-1.178-5.982-2.481-9.073-1.947C442.994,132.926,439.867,143.572,443.62,148.359z"/>
	</g>
	<g>
		<path fill="#B25325" d="M289.319,193.113c-10.538,24.975-1.329,57.865,22.662,70.486c22.581,11.881,50.499,4.545,75.202,10.924
			c10.968,2.832,21.238,8.365,32.472,9.809c21.314,2.734,42.985-10.982,51.897-30.535c8.914-19.555,5.831-43.427-5.621-61.611
			c-11.453-18.184-30.447-30.878-50.977-37.231C373.004,141.974,308.911,146.683,289.319,193.113z"/>
		<path fill="#E08B4B" d="M289.319,186.946c-10.538,24.975-1.329,57.865,22.662,70.486c22.581,11.879,50.499,4.543,75.202,10.924
			c10.968,2.832,21.238,8.365,32.472,9.807c21.314,2.736,42.985-10.98,51.897-30.533c8.914-19.555,5.831-43.427-5.621-61.611
			c-11.453-18.184-30.447-30.877-50.977-37.231C373.004,135.806,308.911,140.514,289.319,186.946z"/>
		<path fill="#B64D20" d="M297.477,219.929c2.503,17.452,20.767,28.419,38.137,31.44c17.368,3.023,35.399,0.725,52.637,4.42
			c11.313,2.424,21.979,7.373,33.33,9.621c11.349,2.244,24.296,1.273,32.737-6.639c8.512-7.979,10.247-20.756,10.213-32.422
			c-0.02-7.334-0.549-14.741-2.676-21.761c-7.32-24.167-32.064-39.072-56.581-45.115c-22.305-5.496-54.435-8.294-75.942,2.221
			C311.756,170.285,294.771,201.045,297.477,219.929z"/>
		<path fill="#963F1A" d="M448.503,193.082c-0.071-0.334-0.167-0.663-0.301-0.983c-0.92-2.176-2.767-3.515-4.839-4.516
			c-1.678-0.81-3.933-0.515-4.882,1.281c-0.504,0.952-0.578,2.189-0.186,3.223c-0.37,1.889-0.35,3.929,0.704,5.603
			c0.993,1.578,2.695,2.376,4.404,2.325c0.09,0.067,0.173,0.138,0.268,0.202c1.855,1.25,4.768,0.028,5.242-2.133
			C449.302,196.317,449.114,194.604,448.503,193.082z"/>
		<path fill="#963F1A" d="M435.597,211.255c-0.916-0.396-1.745-0.636-2.751-0.36c-0.828,0.228-1.724,0.868-2.131,1.64
			c-0.646,1.221-0.598,3.068,0.357,4.179c0.398,0.953,1.153,1.734,2.25,1.983c1.791,0.408,3.979-0.538,4.391-2.491
			C438.102,214.362,437.49,212.074,435.597,211.255z"/>
		<path fill="#963F1A" d="M452.428,209.071c-1.934,0.086-3.569,1.568-3.569,3.568v0.476c0,1.867,1.643,3.657,3.569,3.57
			c1.934-0.087,3.569-1.568,3.569-3.57v-0.476C455.997,210.772,454.355,208.984,452.428,209.071z"/>
		<path fill="#963F1A" d="M324.158,186.284c-0.149-0.479-0.301-0.958-0.449-1.436c-0.556-1.778-2.512-3.1-4.39-2.492
			c-1.79,0.579-3.089,2.481-2.494,4.389c0.151,0.479,0.3,0.957,0.45,1.436c0.556,1.78,2.512,3.1,4.39,2.493
			C323.453,190.096,324.755,188.192,324.158,186.284z"/>
		<path fill="#963F1A" d="M346.497,227.553c-0.547-0.393-1.188-0.674-1.851-0.801c-1.308-0.246-2.313-0.02-3.515,0.504
			c-0.764,0.33-1.43,1.367-1.64,2.131c-0.236,0.855-0.13,1.992,0.359,2.752c0.083,0.127,0.18,0.246,0.276,0.367
			c0.445,1.838,1.71,3.295,3.653,3.832c1.363,0.377,2.987,0.104,4.007-0.916c0.831-0.83,1.259-2.109,1.259-3.27
			C349.044,230.248,347.996,228.631,346.497,227.553z"/>
		<path fill="#963F1A" d="M309.673,220.967c-4.594,0-4.6,7.139,0,7.139C314.266,228.105,314.273,220.967,309.673,220.967z"/>
		<path fill="#963F1A" d="M417.668,186.186c-0.835-2.416-3.075-4.094-5.674-3.973c-2.736,0.126-4.856,1.937-5.77,4.447
			c-0.47,1.289,0.141,2.824,1.195,3.714c0.516,1.135,1.417,2.093,2.572,2.615c2.121,0.955,4.729,0.847,6.417-0.941
			C417.872,190.499,418.363,188.202,417.668,186.186z"/>
		<path fill="#963F1A" d="M384.432,228.107c-1.934,0.086-3.57,1.568-3.57,3.568v0.953c0,1.865,1.642,3.654,3.57,3.568
			c1.934-0.088,3.569-1.568,3.569-3.568v-0.953C388.001,229.811,386.359,228.021,384.432,228.107z"/>
		<path fill="#963F1A" d="M395.802,190.513c-4.594,0-4.601,7.138,0,7.138C400.394,197.651,400.401,190.513,395.802,190.513z"/>
		<path fill="#A6461D" d="M455.189,246.213c-0.159-0.158-0.318-0.316-0.477-0.475c-1.321-1.322-3.742-1.422-5.047,0
			c-1.308,1.424-1.411,3.637,0,5.047c0.158,0.158,0.318,0.316,0.477,0.475c1.321,1.322,3.742,1.42,5.047,0
			C456.497,249.836,456.6,247.625,455.189,246.213z"/>
		<path fill="#690E00" d="M469.472,236.439c-10.209-2.402-20.427-4.771-30.643-7.146c2.794-7.936,5.542-15.888,8.184-23.876
			c6.628,1.964,13.257,3.928,19.884,5.892c1.767,0.523,2.519-2.231,0.76-2.753c-6.581-1.951-13.164-3.9-19.746-5.851
			c2.463-7.499,4.86-15.017,7.186-22.56c0.543-1.76-2.212-2.513-2.754-0.76c-2.319,7.526-4.711,15.028-7.167,22.509
			c-9.25-2.741-18.499-5.483-27.748-8.224c2.93-8.986,5.901-17.961,8.927-26.918c0.589-1.744-2.167-2.494-2.754-0.759
			c-3.019,8.94-5.984,17.896-8.91,26.867c-11.457-3.395-22.913-6.791-34.369-10.185c2.447-10.424,4.961-20.833,7.555-31.223
			c0.446-1.784-2.307-2.544-2.751-0.76c-2.592,10.373-5.101,20.764-7.544,31.17c-11.106-3.291-22.211-6.583-33.317-9.874
			c1.562-7.78,3.136-15.559,4.74-23.331c0.37-1.792-2.381-2.56-2.753-0.758c-1.6,7.754-3.169,15.514-4.729,23.277
			c-6.927-2.054-13.854-4.106-20.781-6.159c-1.766-0.522-2.52,2.231-0.758,2.753l20.968,6.213
			c-2.107,10.524-4.167,21.057-6.201,31.596c-13.168-2.938-26.34-5.859-39.519-8.752c-1.791-0.392-2.556,2.359-0.759,2.753
			c13.25,2.909,26.496,5.847,39.737,8.8c-1.962,10.197-3.879,20.403-5.773,30.612c-8.626-1.213-17.264-2.336-25.92-3.348
			c-1.822-0.215-1.806,2.643,0,2.854c8.483,0.992,16.952,2.094,25.407,3.281c-0.967,5.232-1.941,10.463-2.89,15.699
			c-0.324,1.797,2.427,2.566,2.754,0.76c0.969-5.359,1.966-10.711,2.957-16.064c10.86,1.555,21.693,3.277,32.5,5.154
			c-0.892,4.357-1.797,8.711-2.661,13.072c-0.355,1.797,2.396,2.564,2.754,0.76c0.881-4.451,1.805-8.895,2.715-13.34
			c9.917,1.748,19.809,3.631,29.674,5.648c-1.445,4.803-2.9,9.604-4.317,14.418c-0.519,1.764,2.234,2.52,2.754,0.758
			c1.435-4.875,2.908-9.738,4.373-14.604c8.721,1.807,17.417,3.723,26.094,5.74c-1.62,4.256-3.254,8.508-4.923,12.746
			c-0.673,1.711,2.087,2.453,2.754,0.76c1.683-4.275,3.331-8.562,4.963-12.855c9.08,2.135,18.136,4.381,27.164,6.744
			c1.778,0.467,2.537-2.287,0.759-2.752c-8.943-2.344-17.914-4.564-26.907-6.682c3.229-8.553,6.376-17.131,9.431-25.744
			c10.284,2.389,20.566,4.775,30.843,7.193C470.5,239.613,471.263,236.861,469.472,236.439z M379.671,185.458
			c11.38,3.374,22.762,6.747,34.144,10.119c-2.813,8.66-5.571,17.339-8.301,26.026c-10.78-2.473-21.561-4.938-32.346-7.38
			C375.281,204.623,377.435,195.032,379.671,185.458z M343.693,174.798c11.079,3.283,22.157,6.566,33.237,9.849
			c-2.25,9.635-4.419,19.287-6.545,28.949c-10.949-2.477-21.898-4.953-32.853-7.4C339.554,195.724,341.599,185.256,343.693,174.798z
			 M331.257,239.387c1.881-10.135,3.786-20.267,5.733-30.389c10.932,2.441,21.856,4.912,32.781,7.384
			c-2.05,9.376-4.026,18.769-5.962,28.169C352.986,242.672,342.135,240.945,331.257,239.387z M366.618,245.043
			c1.928-9.357,3.895-18.703,5.937-28.034c10.705,2.425,21.406,4.87,32.103,7.325c-2.75,8.785-5.445,17.588-8.11,26.4
			C386.597,248.699,376.619,246.805,366.618,245.043z M425.647,257.09c-8.741-2.031-17.507-3.961-26.292-5.781
			c2.658-8.791,5.348-17.57,8.091-26.334c9.214,2.115,18.425,4.236,27.633,6.375C432.023,239.961,428.877,248.541,425.647,257.09z
			 M436.036,228.643c-9.239-2.146-18.485-4.275-27.731-6.4c2.712-8.628,5.452-17.25,8.248-25.854
			c9.241,2.739,18.482,5.479,27.726,8.218C441.619,212.647,438.853,220.652,436.036,228.643z"/>
	</g>
	<g>
		<path fill="#096B22" d="M385.11,212.1c-0.176-0.268-0.336-0.553-0.484-0.858c-1.27-2.625-0.458-6.008,0.147-8.705
			c0.443-1.971,1.159-4.095,2.108-5.876c0.633-1.188,1.486-2.556,2.562-1.2c0.97,1.22,1.214,3.564,1.241,5.056
			c-0.047-2.476,0.46-4.84,1.569-7.061c0.453-0.911,3.925-7.014,4.988-4.676c0.812,1.784,1.136,3.788,0.93,5.737
			c0.851-3.256,2.682-6.585,4.538-9.392c1.334-2.01,3.067-3.971,5.41-4.549c0.377-0.093,0.785-0.146,1.151-0.011
			c1.033,0.381,1.024,1.83,0.824,2.915c-0.571,3.093-1.145,6.188-1.717,9.281c0.201-1.622,1.542-2.839,2.646-4.043
			c0.903-0.987,1.989-2.118,3.302-2.667c1.095-0.459,3.656-0.998,3.38,0.905c-0.146,1.006-0.636,1.931-1.169,2.797
			c-1.633,2.661-3.758,5.02-6.235,6.921c0.977-0.187,1.015,0.194,1.992,0.007c1.405-0.27,3.419-0.527,3.697,1.185
			c0.224,1.384-0.737,2.926-1.814,3.691c-0.585,0.416-4.683,3.232-5.177,3.011c1.441,0.646,1.703,2.16,2.505,3.521
			c1.432,2.427-3.511,3.025-4.786,3.084c-1.316,0.06-2.708,0.118-4.018-0.052c-0.87-0.114-1.496-0.44-2.353,0.023
			c0.446,0.894,0.812,2.042,1.16,2.945c0.316,0.829,0.423,1.756-0.334,2.413c-1.847,1.605-6.567,0.461-8.663-0.104
			C389.572,215.608,386.768,214.651,385.11,212.1z"/>
		<path fill="#07591D" d="M400.772,200.367c-1.478,0.679-2.426,1.863-3.632,2.931c-1.689,1.497-3.494,2.851-5.39,4.075
			c-3.435,2.219-7.141,3.994-11.024,5.272c-7.735,2.546-15.443,2.68-23.448,1.758c-1.371-0.158-1.635,2.068-0.325,2.388
			c8.313,2.028,17.542,0.989,25.549-1.823c3.907-1.373,7.665-3.192,11.125-5.47c3.023-1.992,7.229-4.567,8.619-7.998
			C402.613,200.598,401.468,200.048,400.772,200.367z"/>
	</g>
	<g>
		<path fill="#CC3300" d="M264.302,278.439c0.792,11.004,6.693,21.531,15.666,27.951c8.971,6.418,20.842,8.602,31.511,5.799
			c4.206-1.105,8.283-2.986,11.455-5.965c7.809-7.332,8.534-19.693,5.724-30.033c-2.781-10.219-8.742-19.861-17.713-25.49
			C290.22,237.695,262.576,254.471,264.302,278.439z"/>
		<path fill="#E03800" d="M267.824,278.584c0.708,9.824,5.978,19.227,13.988,24.957s18.61,7.684,28.137,5.18
			c3.756-0.986,7.396-2.668,10.228-5.326c6.973-6.549,7.622-17.586,5.111-26.818c-2.481-9.127-7.806-17.736-15.816-22.764
			C290.966,242.201,266.282,257.18,267.824,278.584z"/>
		<path fill="#C23100" d="M279.875,293.375c4.137,7.164,13.466,11.455,21.159,8.416c2.115-0.836,4.287-2.734,3.824-4.959
			c-0.151-0.73-0.574-1.371-1.01-1.975c-1.8-2.5-3.975-4.73-6.428-6.594c-1.969-1.496-4.148-2.783-5.708-4.701
			c-2.732-3.357-3.099-8.145-2.095-12.357c0.643-2.691,2.176-7.955-1.295-9.395c-3.856-1.596-7.777,4.98-8.92,7.627
			C276.175,276.912,275.71,286.166,279.875,293.375z"/>
		<path fill="#C23100" d="M293.741,266.938c1.24,2.498,3.748,4.086,6.228,5.357c2.48,1.275,5.121,2.41,7.04,4.432
			c3.356,3.535,3.736,9.078,2.386,13.76c-0.328,1.139-0.749,2.277-0.728,3.463c0.02,1.184,0.609,2.457,1.721,2.861
			c0.581,0.213,1.224,0.164,1.832,0.053c4.147-0.771,7.366-4.424,8.477-8.492c1.109-4.068,0.391-8.447-1.084-12.398
			c-1.79-4.789-4.741-9.223-8.836-12.285C306.61,260.574,288.629,256.646,293.741,266.938z"/>
		<path fill="#F25C29" d="M305.67,265.42c-0.313-0.533-1.148-0.836-1.693-0.443c-0.994,0.717-2.144,1.209-3.12,1.938
			c-0.981,0.734-0.42,2.225,0.838,1.988c1.269-0.236,2.488-1.062,3.532-1.789C305.776,266.734,306.027,266.031,305.67,265.42z"/>
		<path fill="#F25C29" d="M308.656,269.146c-0.604,0.408-1.232,0.83-1.718,1.379c-0.604,0.682-0.036,2.018,0.966,1.658
			c0.695-0.25,1.308-0.631,1.916-1.043C311.044,270.311,309.891,268.311,308.656,269.146z"/>
		<path fill="#F25C29" d="M312.958,274.135c-0.475,0.281-0.982,0.479-1.536,0.547c-0.999,0.125-1.408,1.613-0.256,1.898
			c1.018,0.252,2.051,0.086,2.921-0.514C315.26,275.262,314.214,273.389,312.958,274.135z"/>
		<path fill="#F25C29" d="M316.297,282.32c-0.723-0.092-1.494-0.242-2.223-0.18c-1.198,0.104-1.415,1.65-0.28,2.07
			c0.687,0.254,1.469,0.312,2.191,0.416C317.663,284.869,318,282.535,316.297,282.32z"/>
		<path fill="#F25C29" d="M316.836,288.395c-0.842-0.498-1.696-0.787-2.678-0.615c-0.917,0.16-0.9,1.408-0.241,1.844
			c0.529,0.35,1.145,0.547,1.697,0.861C316.971,291.256,318.179,289.188,316.836,288.395z"/>
		<path fill="#F25C29" d="M286.952,270.41c-0.967-0.137-2.057-0.418-3.032-0.299c-0.417,0.051-0.784,0.256-0.903,0.688
			c-0.102,0.365,0.055,0.898,0.429,1.059c0.921,0.393,1.953,0.469,2.938,0.607c0.574,0.08,1.138-0.143,1.311-0.744
			C287.838,271.223,287.521,270.492,286.952,270.41z"/>
		<path fill="#F25C29" d="M284.181,277.52c-0.848,0.418-1.847,0.768-2.488,1.484c-0.466,0.523-0.186,1.539,0.614,1.486
			c1.059-0.068,2.015-0.668,2.955-1.121C286.5,278.771,285.417,276.912,284.181,277.52z"/>
		<path fill="#F25C29" d="M287.168,283.891c-1.151,0.564-2.409,1.051-3.417,1.85c-0.867,0.689,0.092,1.945,1.009,1.734
			c1.237-0.285,2.443-1.031,3.584-1.574C289.693,285.262,288.514,283.23,287.168,283.891z"/>
		<path fill="#F25C29" d="M289.157,290.258c-0.828,0.898-1.483,2.191-1.991,3.297c-0.705,1.541,1.402,2.854,2.312,1.352
			c0.33-0.545,0.592-1.133,0.877-1.703c0.292-0.582,0.616-1.168,0.766-1.803C291.376,290.311,289.988,289.355,289.157,290.258z"/>
		<path fill="#F25C29" d="M296.753,293.389c-0.447-0.797-1.618-0.576-1.876,0.244c-0.161,0.514-0.247,1.018-0.455,1.521
			c-0.533,1.297,1.719,2.26,2.285,0.963C297.096,295.23,297.248,294.27,296.753,293.389z"/>
		<path fill="#FFFFFF" d="M323.343,300.236c-0.039-0.436-0.487-0.773-0.905-0.518c-1.163,0.701-1.625,1.637-2.545,2.646
			c-1.347,1.48-3.021,2.605-4.761,3.572c-4.284,2.381-7.927,2.295-12.583,2.846c-0.958,0.113-1.39,1.623-0.25,1.85
			c4.767,0.943,9.358-0.1,13.588-2.361C318.656,306.791,323.671,303.895,323.343,300.236z"/>
		<path fill="#FFFFFF" d="M325.914,292.33c-0.179-0.232-0.419-0.367-0.719-0.291c-0.899,0.223-1.031,1.234-1.217,2.021
			c-0.222,0.926-0.458,1.922-0.349,2.875c0.099,0.844,1.199,1.049,1.501,0.201c0.298-0.834,0.388-1.732,0.619-2.586
			C325.939,293.84,326.417,292.99,325.914,292.33z"/>
	</g>
	<path opacity="0.2" fill="#4F493A" d="M465.984,91.533c-0.924-3.358-4.085-4.591-7.236-4.109c-2.7,0.414-5.365,1.327-7.939,2.23
		c-0.635,0.222-1.26,0.444-1.877,0.675c-6.58-10.762-18.289-18.657-33.826-18.641c-47.667,0.06-104.204,47.075-105.248,61.345
		c-0.044,0.57-0.059,1.141-0.029,1.695c0.209,5.897,3.755,11.3,9.793,14.331c2.251,1.141,4.844,1.951,7.735,2.326
		c56.104,7.369,117.798,11,126.8-32.173c1.255-5.999,0.983-12.283-0.639-18.247c0.287-0.091,0.577-0.182,0.87-0.27
		c2.473-0.736,5.015-1.204,7.488-1.926C464.925,97.88,466.836,94.63,465.984,91.533z"/>
	<g>
		<path fill="#D5E2E3" d="M465.064,84.08c-0.924-3.359-4.085-4.592-7.236-4.109c-2.702,0.414-5.366,1.327-7.939,2.23
			c-2.887,1.012-5.641,1.979-7.923,4.085c-3.271,3.018-0.761,8.999,3.668,8.852c2.789-0.091,5.196-1.11,7.834-1.895
			c2.473-0.736,5.015-1.204,7.486-1.926C464.005,90.426,465.915,87.176,465.064,84.08z"/>
		<path fill="#FFFFFF" d="M453.236,111.759c-9.003,43.173-70.696,39.541-126.8,32.173c-2.891-0.375-5.485-1.185-7.736-2.326
			c-6.036-3.031-9.584-8.434-9.792-14.331c-0.029-0.555-0.015-1.125,0.029-1.695c1.044-14.271,57.579-61.285,105.249-61.345
			C442.206,64.205,457.813,89.895,453.236,111.759z"/>
		<path fill="#E8F6F7" d="M450.407,111.512c-8.622,41.07-67.708,37.616-121.442,30.607c-2.769-0.357-5.253-1.128-7.408-2.212
			c-5.783-2.884-9.181-8.023-9.38-13.633c-0.028-0.528-0.013-1.071,0.03-1.614c0.998-13.575,55.145-58.3,100.799-58.357
			C439.844,66.273,454.789,90.713,450.407,111.512z"/>
		<path fill="#FFFFFF" d="M365.268,125.074l-43.71,14.833c-5.783-2.884-9.181-8.023-9.38-13.633l45.24-11.164L365.268,125.074z"/>
		<path fill="#DBC968" d="M364.719,92.211c-5.366,4.527-10.13,9.956-12.523,16.426c-2.393,6.472-2.128,14.108,1.91,19.817
			c4.482,6.338,12.64,9.275,20.475,10.637c15.219,2.644,31.24,0.68,45.222-5.544c20.964-9.332,34.01-37.476,8.872-50.732
			c-12.936-6.821-30.658-8.546-44.19-2.89C377.278,82.938,370.609,87.242,364.719,92.211z"/>
		<path fill="#E9D66F" d="M369.486,94.209c-4.908,4.203-9.267,9.24-11.461,15.241c-2.193,6.001-1.959,13.081,1.725,18.37
			c4.09,5.872,11.542,8.585,18.7,9.84c13.906,2.435,28.548,0.598,41.333-5.187c19.169-8.672,31.121-34.776,8.16-47.04
			c-11.813-6.311-28.008-7.891-40.382-2.633C380.974,85.601,374.874,89.597,369.486,94.209z"/>
		<path fill="#EFE898" d="M403.389,92.952c-0.337-0.713-0.783-1.394-1.359-2.035c-4.973-5.533-14.45-2.729-19.858,0.075
			c-11.55,5.988-21.312,21.032-16.904,34.079c2.137,6.323,8.714,10.188,15.252,11.524c3.829,0.782,7.872,0.879,11.584-0.339
			c3.712-1.218,7.056-3.869,8.557-7.476c1.818-4.378,0.761-9.337,0.509-14.074C400.819,108.117,406.359,99.251,403.389,92.952z"/>
		<path fill="#EFE898" d="M412.575,99.312c-1.059,2.504-0.904,5.348-0.478,8.032c0.428,2.684,1.113,5.353,1.062,8.07
			c-0.049,2.665-2.595,6.255-1.467,9.031c2.77,6.822,11.781,1.646,15.28-1.613c5.688-5.298,6.855-13.345,3.794-20.547
			C428.041,95.874,416.162,90.818,412.575,99.312z"/>
		<path fill="#096B22" d="M402.925,115.444c-0.062-0.243-0.112-0.44-0.147-0.572c-0.804-3.036-0.953-6.281,0.962-8.948
			c0.148-0.207,0.323-0.42,0.572-0.479c0.543-0.13,0.924,0.521,1.089,1.056c0.4,1.29,0.714,2.605,0.942,3.936
			c-0.013-1.395,0.356-3.496,1.056-4.702c1.651-2.855,3.072,1.248,3.001,3.078c0.075-1.882,0.335-3.986,0.99-5.797
			c0.48-1.326,3.245-4.897,3.579-1.493c0.188,1.905,0.223,3.824,0.106,5.735c0.122-2.014,1.808-4.774,3.083-6.252
			c3.293-3.815,3.067,3.479,1.724,5.177c0.814-1.031,1.601-1.957,2.632-2.772c2.515-1.986,4.914-1.263,2.518,1.937
			c-0.695,0.929-1.393,1.858-2.088,2.787c0.845-0.395,2.144-0.581,3.061-0.758c1.424-0.275,2.928,0.397,2.25,1.729
			c-0.332,0.651-4.928,3.344-5.465,2.834c1.019,0.964,1.395,2.708,1.731,4.069c0.078,0.311,0.118,0.682-0.101,0.914
			c-0.191,0.199-0.499,0.213-0.774,0.203c-1.876-0.069-3.728-0.677-5.28-1.733c0.688,0.857,0.619,1.89,0.69,2.986
			c0.021,0.314,0.008,0.648-0.157,0.916c-0.381,0.614-1.294,0.54-1.984,0.322c-1.925-0.607-3.675-1.751-5.005-3.268
			c0.71,1.269,0.739,2.904,1.017,4.332c0.085,0.438,0.092,1.001-0.306,1.203c-0.194,0.1-0.428,0.071-0.643,0.028
			c-2.063-0.416-3.818-2.093-4.327-4.134c0.002,0.551-0.243,1.285-0.223,1.835c0.019,0.551-0.158,1.169-0.644,1.429
			C404.747,122.132,403.417,117.357,402.925,115.444z"/>
		<path fill="#07591D" d="M418.264,109.105c-5.148,2.198-10.47,3.95-15.928,5.203c-5.139,1.179-10.353,1.552-15.534,2.413
			c-1.038,0.172-0.714,1.699,0.237,1.752c10.91,0.607,22.55-3.04,32.451-7.269C420.925,110.592,419.688,108.497,418.264,109.105z"/>
		<path fill="#C18200" d="M407.609,89.894"/>
		<path fill="#C18200" d="M418.672,89.815"/>
		<path fill="#C18200" d="M433.734,107.945c-0.043,0.028-0.085,0.057-0.128,0.085c-0.755,0.5-0.755,1.525,0,2.025
			c0.043,0.029,0.085,0.057,0.128,0.085c0.816,0.542,1.913-0.175,1.913-1.098S434.551,107.402,433.734,107.945z"/>
		<path fill="#C18200" d="M397.974,133.322c-1.363,0-1.366,2.119,0,2.119C399.337,135.441,399.34,133.322,397.974,133.322z"/>
		<path fill="#C18200" d="M379.057,123.541c-1.549,0-1.551,2.409,0,2.409C380.608,125.95,380.611,123.541,379.057,123.541z"/>
	</g>
	<g>
		<path fill="#CC3300" d="M309.128,282.166c-8.115,5.928-13.396,15.57-14.02,25.6s3.421,20.252,10.74,27.139
			c2.885,2.717,6.309,4.955,10.14,5.967c9.438,2.49,19.335-2.92,25.961-10.084c6.551-7.084,11.119-16.348,11.134-25.998
			C353.117,282.504,326.81,269.254,309.128,282.166z"/>
		<path fill="#E03800" d="M310.719,284.955c-7.247,5.293-11.963,13.902-12.52,22.857c-0.558,8.957,3.056,18.086,9.591,24.236
			c2.577,2.426,5.633,4.424,9.054,5.326c8.427,2.225,17.264-2.607,23.182-9.006c5.851-6.324,9.929-14.596,9.941-23.213
			C349.998,285.256,326.506,273.426,310.719,284.955z"/>
		<path fill="#C23100" d="M305.116,301.406c-3.536,6.656-2.344,15.936,3.72,20.408c1.667,1.229,4.182,1.99,5.677,0.559
			c0.489-0.469,0.782-1.105,1.038-1.734c1.061-2.598,1.733-5.354,1.988-8.15c0.203-2.242,0.147-4.547,0.873-6.678
			c1.273-3.734,4.795-6.328,8.532-7.588c2.39-0.803,7.196-2.16,6.631-5.535c-0.63-3.75-7.604-3.602-10.199-3.209
			C316.045,290.598,308.674,294.709,305.116,301.406z"/>
		<path fill="#C23100" d="M332.232,299.348c-1.328,2.162-1.344,4.867-1.131,7.396c0.215,2.533,0.614,5.121-0.021,7.58
			c-1.11,4.301-5.208,7.27-9.477,8.488c-1.038,0.297-2.12,0.521-3.025,1.109c-0.905,0.59-1.603,1.658-1.378,2.713
			c0.117,0.553,0.465,1.023,0.845,1.439c2.598,2.832,6.975,3.553,10.652,2.443c3.679-1.105,6.713-3.777,9.051-6.824
			c2.836-3.695,4.835-8.115,5.222-12.758C343.364,306.213,337.713,290.428,332.232,299.348z"/>
		<path fill="#F25C29" d="M339.167,307.828c0.261-0.5,0.09-1.291-0.476-1.521c-1.033-0.422-1.97-1.072-3.004-1.475
			c-1.04-0.402-1.92,0.75-1.129,1.607c0.796,0.865,2.022,1.408,3.086,1.865C338.203,308.543,338.868,308.398,339.167,307.828z"/>
		<path fill="#F25C29" d="M337.729,311.934c-0.606-0.268-1.234-0.551-1.894-0.66c-0.817-0.137-1.576,0.947-0.814,1.545
			c0.529,0.418,1.12,0.709,1.732,0.979C337.984,314.342,338.972,312.482,337.729,311.934z"/>
		<path fill="#F25C29" d="M335.956,317.666c-0.446-0.23-0.844-0.527-1.166-0.92c-0.579-0.711-1.925-0.309-1.589,0.717
			c0.296,0.908,0.925,1.627,1.808,2.01C336.199,319.988,337.139,318.275,335.956,317.666z"/>
		<path fill="#F25C29" d="M331.247,324.199c-0.278-0.602-0.535-1.27-0.935-1.803c-0.657-0.875-1.959-0.297-1.735,0.783
			c0.136,0.652,0.468,1.285,0.736,1.893C329.938,326.484,331.903,325.619,331.247,324.199z"/>
		<path fill="#F25C29" d="M326.814,327.549c-0.022-0.891-0.21-1.691-0.817-2.365c-0.568-0.631-1.522-0.014-1.541,0.705
			c-0.015,0.578,0.131,1.148,0.155,1.727C324.669,329.037,326.851,328.969,326.814,327.549z"/>
		<path fill="#F25C29" d="M326.271,295.781c-0.362-0.814-0.671-1.793-1.234-2.486c-0.241-0.299-0.576-0.482-0.968-0.367
			c-0.329,0.1-0.667,0.479-0.609,0.846c0.142,0.9,0.583,1.732,0.951,2.562c0.214,0.482,0.658,0.811,1.208,0.652
			C326.072,296.857,326.484,296.26,326.271,295.781z"/>
		<path fill="#F25C29" d="M319.441,297.074c-0.732-0.453-1.484-1.057-2.349-1.203c-0.627-0.107-1.276,0.598-0.851,1.193
			c0.565,0.785,1.49,1.232,2.293,1.738C319.595,299.471,320.506,297.736,319.441,297.074z"/>
		<path fill="#F25C29" d="M315.964,302.459c-0.991-0.617-1.976-1.354-3.08-1.744c-0.952-0.34-1.458,1.01-0.852,1.615
			c0.818,0.816,1.976,1.389,2.946,2.008C316.125,305.07,317.124,303.18,315.964,302.459z"/>
		<path fill="#F25C29" d="M312.007,307.07c-1.094-0.205-2.41-0.086-3.51,0.057c-1.529,0.199-1.526,2.461,0.074,2.436
			c0.58-0.008,1.162-0.088,1.74-0.143c0.589-0.055,1.2-0.088,1.763-0.279C313.037,308.811,313.105,307.275,312.007,307.07z"/>
		<path fill="#F25C29" d="M313.258,314.449c0.398-0.729-0.337-1.527-1.096-1.328c-0.475,0.121-0.904,0.299-1.393,0.383
			c-1.262,0.213-0.917,2.418,0.358,2.23C312,315.605,312.817,315.258,313.258,314.449z"/>
		<path fill="#FFFFFF" d="M320.811,338.295c0.318-0.24,0.362-0.748-0.036-0.949c-1.104-0.559-2.05-0.465-3.274-0.688
			c-1.794-0.324-3.472-1.076-5.058-1.951c-3.91-2.16-5.602-5.014-8.276-8.346c-0.549-0.686-1.927-0.287-1.551,0.701
			c1.574,4.137,4.598,7.18,8.387,9.354C313.486,337.84,318.145,340.314,320.811,338.295z"/>
		<path fill="#FFFFFF" d="M328.16,336.461c0.095-0.25,0.081-0.5-0.122-0.695c-0.606-0.588-1.452-0.199-2.151,0.037
			c-0.821,0.277-1.705,0.572-2.388,1.117c-0.605,0.484-0.232,1.434,0.568,1.26c0.789-0.174,1.526-0.537,2.298-0.773
			C327.005,337.211,327.893,337.168,328.16,336.461z"/>
	</g>
	<g>
		<path fill="#FFFFFF" d="M330.233,279.086c-9.665,11.025-10.391,23.922-7.524,37.906c0.377,1.842,0.904,3.652,1.436,5.457
			c4.736,16.096,12.617,25.311,29.189,29.736c9.989,2.666,18.833,4.975,29.165,4.115c9.715-0.807,19.628-3.117,28.401-7.455
			c7.074-3.496,11.779-8.389,14.923-15.746c4.913-11.5,6.102-22.244,2.117-34.051c-2.199-6.516-4.525-14.172-8.681-19.723
			c-3.969-5.303-10.81-8.012-16.365-11.227c-10.322-5.969-20.254-8.373-32.19-7.725
			C355.167,261.221,340.604,267.258,330.233,279.086z"/>
		<path fill="#F2A710" d="M363.328,338.088c7.426,2.094,15.564,1.145,22.569-2.09c4.445-2.051,8.591-5.131,10.929-9.434
			c1.068-1.967,1.731-4.135,2.132-6.338c6.719-36.951-56.926-46.607-55.011-8.225C344.52,323.506,351.937,334.879,363.328,338.088z"
			/>
		<path fill="#F2B335" d="M356.076,320.123c1.787,1.686,4.351,2.273,6.803,2.363c3.748,0.131,7.61-0.811,10.588-3.09
			c2.979-2.279,4.952-5.988,4.688-9.727c-0.117-1.648-0.642-3.24-1.315-4.748C366.93,282.723,343.08,307.855,356.076,320.123z"/>
		<path fill="#E6E6E6" d="M416.924,323.703c-2.94-3.506-6.278,1.002-7.032,3.91c-1.408,5.43,4.767,7.141,7.209,2.223
			C418.011,328.002,418.335,325.385,416.924,323.703z"/>
		<path fill="#E6E6E6" d="M422.876,313.143c-0.881-0.291-1.518,0.174-1.807,0.828c-0.167,0.186-0.315,0.396-0.416,0.641
			c-0.368,0.881-0.055,2.006,0.666,2.613c0.425,0.357,1.018,0.627,1.582,0.418C425.02,316.859,425.093,313.873,422.876,313.143z"/>
		<path fill="#E6E6E6" d="M422.71,323.906c-0.483-0.219-1.009-0.229-1.464-0.047c-0.112,0.035-0.215,0.08-0.312,0.139
			c-0.008,0.004-0.015,0.01-0.021,0.016c-0.457,0.287-0.738,0.791-0.812,1.373c-0.19,1.496,1.707,2.471,2.857,1.582
			C423.946,326.207,423.938,324.457,422.71,323.906z"/>
		<path fill="#E6E6E6" d="M330.228,307.889c-0.483-2.047-1.641-3.764-3.442-3.346c-1.858,0.43-2.472,3.342-2.445,4.928
			c0.033,2.061,0.916,4.055,2.477,5.404c0.856,0.74,2.455,0.568,2.718-0.717c0.005-0.029,0.008-0.062,0.013-0.09
			c0.182-0.17,0.35-0.367,0.492-0.604C330.983,311.904,330.756,309.611,330.228,307.889z"/>
		<path fill="#E6E6E6" d="M330.619,321.082c-0.129-0.713-0.504-1.289-1.116-1.65c-0.288-0.439-0.748-0.75-1.315-0.75
			c-0.964,0-1.522,0.75-1.625,1.625c-0.001,0.012,0.001,0.023,0,0.037c-0.151,0.314-0.22,0.666-0.196,1.039
			c0.004,0.082,0.005,0.162,0.023,0.24c0.007,0.037,0,0.074,0.009,0.113c0.025,0.104,0.077,0.193,0.123,0.287
			c0.039,0.891,0.38,1.76,1,2.51c0.633,0.766,1.77,0.531,2.371-0.107c0.404-0.311,0.717-0.789,0.652-1.277
			C330.45,322.453,330.749,321.795,330.619,321.082z"/>
		<path fill="#E6E6E6" d="M335.052,328.318c-0.285-0.016-0.575,0.02-0.857,0.188c-0.7,0.408-1.103,1.51-0.584,2.223
			c0.689,0.947,1.967,1.301,2.853,0.346C337.613,329.838,336.337,328.133,335.052,328.318z"/>
		<path fill="#E6E6E6" d="M337.162,320.25c0.019-0.707-0.395-1.332-0.979-1.645c-0.098-0.084-0.169-0.188-0.284-0.258
			c-0.877-0.543-2.14-0.031-2.388,0.971c-0.055,0.225-0.11,0.449-0.166,0.672c-0.255,1.033,0.428,1.756,1.228,1.961
			c0.718,0.412,1.643,0.365,2.132-0.535c0.024-0.043,0.022-0.086,0.042-0.131C336.994,321.012,337.151,320.674,337.162,320.25z"/>
		<path fill="#FFFFFF" d="M392.533,320.844c-2.806,3.715-5.144,7.451-9.363,9.758c-4.64,2.537-9.305,2.668-14.415,2.086
			c-1.074-0.121-1.203,1.523-0.247,1.82c9.402,2.926,23.193-2.748,24.987-13.258C393.598,320.646,392.896,320.361,392.533,320.844z"
			/>
		<path fill="#FFFFFF" d="M394.521,310.768c-0.15-0.082-0.385-0.115-0.531,0c-0.75,0.576-0.617,1.342-0.647,2.207
			c-0.036,1.047-0.214,2.074-0.214,3.119c0.003,0.691,0.999,1.004,1.338,0.361c0.517-0.979,0.706-2.025,0.775-3.131
			C395.299,312.434,395.435,311.26,394.521,310.768z"/>
	</g>
</g>
<g>
	<g>
		<g>
			<g>
				<path fill="#E7DAD2" d="M597.673,162.398c-6.881,9.451-10.035,18.387-11.463,35.79c-0.471,5.81-0.771,12.562-0.928,20.584
					c-0.058,2.198-0.101,4.497-0.114,6.909c-0.057,3.084-0.086,6.354-0.1,9.809c-0.028,5.994-0.043,12.549-0.043,19.729h-17.73
					c0-3.186-0.015-6.252-0.027-9.209c-0.029-3.184-0.058-6.238-0.115-9.164c-0.028-2.527-0.085-4.953-0.143-7.281
					c-0.186-7.137-0.457-13.404-0.813-18.972c-1.698-26.195-5.396-36.459-11.349-44.24c-7.309-9.536-0.871-80.899-0.871-80.899
					s0.086-6.124,2.412-6.124c3.569,0,3.212,6.124,3.212,6.124c0,77.616,10.621,62.099,10.621,62.099
					c0.186-38.359,1.999-59.372,3.525-66.481c0.5-2.312,3.912-2.327,4.44-0.028c1.641,7.166,3.584,28.408,3.626,67.551
					c0,0,12.291,14.376,12.291-63.24c0,0,0.3-6.024,2.784-6.024c2.512,0,2.126,6.124,2.126,6.124S604.739,152.706,597.673,162.398z"
					/>
				<path fill="#4F493A" d="M576.815,363.539c-9.722-0.057-10.906-44.125-10.492-76.016c0.028-2.484,0.071-4.896,0.128-7.209
					c0.043-2.227,0.086-4.354,0.143-6.367c0.043-1.455,0.072-2.854,0.115-4.182c0.041-1.299,0.085-2.527,0.128-3.684
					c0.241-6.695,0.457-10.863,0.457-10.863h17.729c0,0,0.286,4.168,0.614,10.863c0.058,1.156,0.113,2.385,0.171,3.684
					c0.072,1.328,0.128,2.727,0.187,4.182c0.086,2.014,0.171,4.141,0.241,6.367c0.087,2.312,0.157,4.725,0.215,7.209
					C587.322,319.457,586.709,363.582,576.815,363.539z"/>
			</g>
		</g>
	</g>
	<g>
		<g>
			<path fill="#E7DAD2" d="M191.618,195.539c-16.874,36.631-17.488,59.855-17.488,59.855h-13.089V79.507
				C205.865,86.002,198.456,180.692,191.618,195.539z"/>
			<path fill="#4F493A" d="M170.562,363.717c-9.721-0.057-10.906-44.125-10.492-76.016c0.028-2.484,0.071-4.896,0.128-7.209
				c0.042-2.227,0.085-4.354,0.143-6.367c0.043-1.455,0.072-2.855,0.114-4.182c0.043-1.299,0.086-2.527,0.129-3.684
				c0.243-6.697,0.458-10.865,0.458-10.865h17.729c0,0,0.286,4.168,0.613,10.865c0.058,1.156,0.115,2.385,0.172,3.684
				c0.071,1.326,0.128,2.727,0.186,4.182c0.085,2.014,0.172,4.141,0.243,6.367c0.085,2.312,0.157,4.725,0.215,7.209
				C181.068,319.635,180.454,363.76,170.562,363.717z"/>
		</g>
	</g>
</g>
</svg>
