<svg version="1.1" xmlns="http://www.w3.org/2000/svg" x="0" y="0" width="768" height="430" viewBox="0 0 768 430" enable-background="new 0 0 768 430" xml:space="preserve"><path fill="#DDE4D0" d="M539.7 147.9l-63.9 35.2c-3.8 2.4-6.2-1.5-2.3-3.8l60.3-41c3.8-2.3 1.5-6.2-2.3-3.8l-63.9 35.2c-3.9 2.4-6.2-1.5-2.4-3.9l60.4-40.9c3.8-2.3 1.5-6.2-2.3-3.8l-63.9 35.2c-3.8 2.4-6.1-1.4-2.3-3.7l60.3-41c3.8-2.3 1.5-6.2-2.3-3.8l-74.6 41.8c-19.2 11.8-7.2 28.6-24 38.5l-186.7 109c-7.7 4.7-8 12.9-4.5 18.6 3.5 5.8 10.9 9.2 18.6 4.5l182-116.7c16.4-10.5 26.1 7.8 45.2-3.9l71.1-47.5C545.9 149.4 543.5 145.5 539.7 147.9z"/></svg>