<svg version="1.1" id="Layer_1" xmlns="http://www.w3.org/2000/svg" xmlns:xlink="http://www.w3.org/1999/xlink" x="0px" y="0px"
	  viewBox="0 0 768 430" enable-background="new 0 0 768 430" xml:space="preserve">
<g>
	<path fill="#F1F1F2" d="M410.815,36.13l-7.317,86.517c-0.102,2.117-2.424,2.117-2.525,0l-4.964-87.664
		c-0.258-3.054-3.537-3.159-3.903-0.127l-7.202,87.791c-0.101,2.117-2.423,2.117-2.524,0l-7.146-87.791
		c-0.367-3.032-3.646-2.927-3.904,0.127l-5.019,87.664c-0.101,2.117-2.423,2.117-2.524,0l-7.264-86.517
		c-0.576-3.008-3.879-2.449-3.879,0.657l-3.863,105.313c0,13.16,7.956,23.829,17.771,23.829l0,0c5.069,0,9.152,4.158,9.058,9.226
		l-3.981,216.199c-0.117,6.733,5.307,12.255,12.042,12.26c6.743,0.004,12.176-5.528,12.054-12.271l-4.177-216.179
		c-0.098-5.07,3.986-9.234,9.058-9.234h0.131c9.814,0,17.771-10.669,17.771-23.829l-3.809-105.313
		C414.695,33.681,411.393,33.122,410.815,36.13z"/>
	<g>
		<path fill="#E6E6E7" d="M383.496,144.808c-4.975,3.211-8.655,8.147-13.654,11.32c-1.589,1.009-3.261,1.797-4.986,2.426
			c1.157,0.362,2.358,0.574,3.596,0.574h30.381c8.723,0,15.795-9.481,15.795-21.178v-6.142c-1.859,1.535-3.896,2.854-6.079,3.901
			C400.512,139.564,390.984,139.973,383.496,144.808z"/>
	</g>
</g>
</svg>
