<svg xmlns="http://www.w3.org/2000/svg" viewBox="0 0 768 430"><style>.a{fill:#F7D3A9;}.b{fill:#FFF;}.c{fill:#D23400;}.d{fill:#7B1300;}.e{fill:#6B2810;}.f{fill:#2E0E01;}.g{fill:#F2A69C;}.h{fill:#231F20;}.i{fill:#00079F;}.j{fill:#050085;}.k{fill:#000445;}.l{fill:#C18E56;}</style><path d="M365.8 319.8c0.4-0.1 0.8-0.1 1.2-0.2 4.8-1.8 10.6-2.7 17.4-2.7 0.4 0 0.7 0 1.1 0 0.5 0 1 0 1.5 0.1 0.1-11.7 0.4-29.9 2-43.1 -0.2 0.7-0.3 1.4-0.5 2.1 -0.7 2.9-1.5 6.1-1.1 7.7l0.2 0.7 -0.7-0.4c-3.1-1.6-6.2-3.5-7.7-6.5 -0.8 4.7-4.4 10.4-6.7 11.9l-0.6 0.4 0.1-0.7c0.2-2.4-1.4-4.9-3.1-7.5 -1.1-1.7-2.2-3.4-2.9-5.2 -0.7 1.7-2.3 4.2-3.7 5.7 0.6 5.6 1.1 11.6 1.5 17.5C364.6 307 365.1 313.9 365.8 319.8zM363.7 288.3c0.1 0.3 0.2 0.7 0.3 1.1C363.7 289 363.7 288.7 363.7 288.3z" class="a"/><path d="M363.9 289.4c-0.1-0.4-0.2-0.7-0.3-1.1C363.7 288.7 363.7 289 363.9 289.4z" class="b"/><path d="M350.9 324.6l-0.6-1.4c-1.2-2.8-2.6-5.7-4-8.8 -2.2-4.7-4.5-9.6-6.3-14.1 -0.9-2.2-2-4.5-3.2-6.9 -4.6 1.8-8.2 6.2-9 11.6 -0.8 5.5 0.8 13.6 5.2 22.4 2.5 0.5 5 0.8 7.4 0.8 2.2 0 4.3-0.2 6.2-0.6 1.7-0.4 3.4-1 5-1.8 -0.2-0.6-0.4-1.3-0.7-1.9V324.6z" class="c"/><path d="M332.9 327.4c-4.4-8.8-6-16.9-5.2-22.4 0.7-5.4 4.3-9.8 9-11.6 1.2 2.4 2.3 4.6 3.2 6.9 1.8 4.4 4.1 9.3 6.3 14.1 1.4 3.1 2.8 6 4 8.8l0.6 1.4v-0.7 -2 -3.1c1.9 1.6 2.6 3.7 3.1 5.8 0.2-0.1 0.4-0.2 0.6-0.3 -0.6-2.3-1.4-4.7-3.9-6.5l-0.5-0.4v4.1c-1.1-2.4-2.2-4.8-3.4-7.4 -2.2-4.7-4.5-9.6-6.3-14.1 -1.1-2.6-2.5-5.3-3.9-8.2 -4.3-8.5-8.8-17.3-7.1-26.5 1.7-9.2 6.6-14.3 11-18.8 1.5-1.6 2.9-3.1 4.2-4.6 3-3.8 4.6-10.2 4.6-18.7 -0.2 0-0.4-0.1-0.7-0.1 -0.1 8.5-1.5 14.7-4.5 18.4 -1.2 1.6-2.6 3-4.1 4.6 -4.4 4.6-9.4 9.7-11.1 19.1 -1.8 9.4 3 18.7 7.1 26.9 0.1 0.2 0.2 0.5 0.3 0.7 -4.8 1.9-8.6 6.5-9.3 12.1 -0.8 5.6 0.7 13.6 5 22.3C332.4 327.3 332.6 327.3 332.9 327.4z" class="d"/><path d="M427.8 304.9c-1.2-6.7-7-11.8-13.4-11.8 -0.7 0-1.4 0.1-2.1 0.2 -0.4 1-0.8 1.9-1.2 2.9 -0.6 1.4-1.1 2.8-1.6 4.1 -2.4 6-4.4 13-5.9 19.9 0.1 0 0.2 0 0.2 0.1 6.1 1.5 12.5 3.1 18.1 3.1 1.2 0 2.3-0.1 3.4-0.2 0.1-0.3 0.3-0.7 0.4-1.1 1-3.2 1.7-6.2 2.1-8.9 0-0.3 0.1-0.6 0.1-1 0-0.3 0-0.5 0.1-0.8 0.1-1.5 0.1-3.1 0-4.6l-0.1-0.7 0 0C427.9 305.6 427.8 305.2 427.8 304.9z" class="c"/><path d="M361.5 321.1c0.2-0.1 0.4-0.2 0.7-0.3 -0.3-0.3-0.5-0.7-0.7-1C361.4 320.2 361.5 320.7 361.5 321.1z" class="e"/><path d="M350.9 318.7v3.1c0.4 1.2 0.8 2.4 1.3 3.7 0.6-0.3 1.2-0.6 1.9-0.9C353.5 322.4 352.8 320.4 350.9 318.7z" class="e"/><path d="M356.2 320.4c-0.3-0.3-0.5-0.6-0.8-0.9 0 0.5 0.1 1.1 0.2 1.8 0.1 0.8 0.3 1.6 0.2 2.4 0.7-0.4 1.4-0.7 2.1-1.1C357.4 321.9 356.8 321.2 356.2 320.4z" class="e"/><path d="M350.9 323.9c0.2 0.6 0.4 1.3 0.7 1.9 0.2-0.1 0.4-0.2 0.6-0.3 -0.4-1.3-0.8-2.5-1.3-3.7V323.9z" class="f"/><path d="M340.5 246.6c-4.3 4.5-9.2 9.6-11 18.8 -1.7 9.2 2.7 18 7.1 26.5 1.5 2.9 2.8 5.5 3.9 8.2 1.8 4.4 4.1 9.3 6.3 14.1 1.2 2.6 2.3 5 3.4 7.4v-4.1l0.5 0.4c2.4 1.8 3.2 4.1 3.9 6.5 0 0 0.1 0 0.1 0 0.1 0 0.2-0.1 0.2-0.1 0.3-0.8 0.2-1.8 0-2.7 -0.2-0.9-0.3-1.9 0-2.8l0.2-0.6 0.4 0.5c0.4 0.5 0.8 1 1.2 1.5 0.6 0.7 1.3 1.5 1.8 2.3 0.7-0.3 1.5-0.7 2.3-1 -0.1-1-0.1-1.9 0.1-2.7l0.2-1 0.4 1c0.3 0.8 0.8 1.4 1.3 2 0.8-0.2 1.5-0.5 2.3-0.6 -0.7-6-1.3-12.9-1.9-20.2 -0.5-5.7-0.9-11.5-1.5-17 -0.2 0.1-0.3 0.3-0.5 0.4l-0.5 0.3 0-0.6c0.1-3-1.5-6.1-3.3-9.3 -1.4-2.7-2.9-5.4-3.4-8.2 -0.9 1.4-1.6 2.9-1.7 5l0 0.9 -0.6-0.8c-8.2-11.1-1.9-24.8 1.2-30.1 2.4-4.1 3.6-10.4 3.4-16.8 -0.5 0-1 0.1-1.5 0.1 -1.9 0-3.8-0.2-5.6-0.5 -0.1 8.6-1.6 14.9-4.6 18.7C343.5 243.5 342 245 340.5 246.6z" class="c"/><path d="M365.2 320c0.2-0.1 0.4-0.1 0.7-0.1 -0.7-6-1.3-12.9-1.9-20.1 -0.5-5.9-1-11.8-1.5-17.5 -0.2 0.2-0.4 0.4-0.6 0.6 0.6 5.5 1 11.3 1.5 17C363.9 307.1 364.5 314 365.2 320z" class="d"/><path d="M361.2 317.6l-0.2 1c-0.2 0.8-0.2 1.8-0.1 2.7 0.2-0.1 0.4-0.2 0.7-0.3 0-0.4-0.1-0.9 0-1.3 0.2 0.4 0.5 0.7 0.7 1 0.2-0.1 0.5-0.1 0.7-0.2 -0.5-0.6-1-1.3-1.3-2L361.2 317.6z" class="d"/><path d="M356.7 320c-0.4-0.5-0.8-1-1.2-1.5l-0.4-0.5 -0.2 0.6c-0.3 0.9-0.1 1.8 0 2.8 0.2 1 0.3 1.9 0 2.7 0.3-0.1 0.5-0.3 0.8-0.4 0.1-0.8 0-1.6-0.2-2.4 -0.1-0.6-0.2-1.2-0.2-1.8 0.3 0.3 0.5 0.6 0.8 0.9 0.6 0.7 1.2 1.4 1.7 2.2 0.2-0.1 0.4-0.2 0.6-0.3C358 321.5 357.4 320.8 356.7 320z" class="d"/><path d="M403 320c1.4-6.9 3.5-13.9 5.9-20 0.5-1.3 1.1-2.6 1.6-4.1 4.2-10.2 9.3-22.9 7.4-33.7 -1.6-8.8-5.5-12.7-9.4-16.5 -1.6-1.6-3.1-3-4.4-4.8 -0.6-0.8-1.2-1.6-1.9-2.5 -3.7-4.7-8.4-10.7-10.1-18.6 -1.1-0.1-2.1-0.1-3.2-0.2 0.1 3.8 0.6 8.1 2.2 13.2 1.1 3.6 2.8 5.6 4.7 7.8 1.6 1.9 3.3 3.8 4.7 6.8 1.8 4.1 1.1 9.7 0.5 14.7 -0.4 3.1-0.7 5.9-0.3 7.5l0.1 0.6 -0.6-0.2c-1.2-0.4-3.3-1.4-4.8-2.4 0.5 2.7 0.8 7.9-0.2 9.6l-0.3 0.5 -0.3-0.6c-0.8-1.6-2.7-3.6-4.3-5.2 -0.1-0.1-0.2-0.2-0.2-0.2 -1.9 13.3-2.2 32.8-2.3 45.2C392.6 317.4 397.9 318.7 403 320z" class="c"/><path d="M392.1 219.8c1.7 7.8 6.5 13.9 10.1 18.6 0.7 0.9 1.3 1.7 1.9 2.5 1.3 1.8 2.8 3.3 4.4 4.8 3.8 3.8 7.8 7.7 9.4 16.5 1.9 10.8-3.3 23.5-7.4 33.7 -0.6 1.4-1.1 2.8-1.6 4.1 -2.4 6-4.4 13.1-5.9 20 -5.1-1.3-10.4-2.5-15.3-2.9 0.1-12.4 0.5-31.9 2.3-45.2 -0.2-0.2-0.3-0.3-0.5-0.5 -0.1 0.7-0.3 1.6-0.5 2.6 -1.6 13.2-1.9 31.3-2 43.1 -0.5 0-1-0.1-1.5-0.1 -0.4 0-0.7 0-1.1 0 -6.9 0-12.6 0.9-17.4 2.7 -1.2 0.4-2.4 0.9-3.5 1.5 -1.9 0.9-3.6 2.1-5.2 3.3l-1.1 0.9 1.4-0.3c0.7-0.1 1.5-0.2 2.4-0.2 1.2 0 2.4 0.1 3.5 0.2 0.8 0.1 1.6 0.2 2.3 0.2 -2.6 1.8-5.4 4.8-6.5 7.1l-0.2 0.5 0.5 0c3.5-0.1 8.8 0.7 11.1 1.6 -5.1 0.7-13.1 5.4-14.6 6.9l-0.6 0.7 0.9-0.1c0.6-0.1 1.3-0.1 2-0.1 7.2 0 14.7 3.9 17.7 6.3 -3.8 0.3-12 2.6-15 4.1l-1.2 0.6 1.3 0c2.5 0.1 6.1 1.7 8.5 3.1 -0.5 0-1 0-1.6 0 -6.6 0-17.9 1.5-22.3 2.9l-1.2 0.4 1.3 0.2c4.9 0.9 13 7 15.6 9.6 -2.6-0.3-6.2-0.4-10.2-0.4 -3.3 0-6.4 0.1-8.3 0.3l-1.2 0.1 1.1 0.5c2.8 1.3 5.4 3.6 8.1 6.1 3.3 2.9 6.6 5.9 10.6 7.5 -1.7 0.4-3.5 1.2-5.2 2.1 -0.3 0.2-0.6 0.3-0.9 0.5 -1.1 0.6-2 1.3-2.8 1.9l-0.8 0.7 1.1-0.1c2.4-0.2 5.9 0.4 10.6 1.1 6.4 1 14.3 2.1 23.2 2.1 4.8 0 9.5-0.4 13.9-1.1 19.4-3.1 39.6-16.1 47.9-31 8.3-14.8 5.3-32.7 0.7-40.1 -2.9-4.7-9-7.2-14.4-9.5 -2.7-1.1-5.2-2.2-7-3.4 -0.1-0.6-0.1-1.2-0.2-1.7 -1.3-7-7.3-12.3-14-12.3 -0.6 0-1.2 0.1-1.8 0.1 3.8-9.6 7.7-20.7 6-30.5 -1.6-9-5.6-13-9.6-16.8 -1.6-1.5-3-3-4.4-4.8 -0.6-0.8-1.3-1.6-1.9-2.5 -3.6-4.6-8.2-10.5-10-18.1C392.6 219.8 392.3 219.8 392.1 219.8zM428.7 307.3c1.8 1.1 4.2 2.1 6.7 3.2 5.3 2.2 11.3 4.7 14.1 9.2 4.6 7.2 7.5 24.8-0.7 39.4 -8.2 14.7-28.2 27.6-47.4 30.6 -4.4 0.7-9 1.1-13.8 1.1 -8.9 0-16.8-1.2-23.1-2.1 -4-0.6-7.3-1.1-9.6-1.1 2.4-1.7 6-3.5 8.8-4l1.4-0.2 -1.3-0.4c-4.4-1.4-8-4.6-11.5-7.8 -2.4-2.2-4.8-4.3-7.2-5.7 1.9-0.1 4.4-0.2 7.1-0.2 4.4 0 8.4 0.2 11 0.5l0.8 0.1 -0.5-0.6c-1.5-2-9.7-8.4-15.3-10.2 4.9-1.3 14.9-2.6 20.9-2.6 1.2 0 2.2 0 3 0.1l1.4 0.2 -1.2-0.8c-2-1.3-5.8-3.3-8.8-3.8 3.8-1.6 11.4-3.6 14.4-3.6l0.9 0 -0.6-0.6c-2.5-2.4-10.8-7-18.8-7 -0.3 0-0.7 0-1 0 2.7-2 10.3-6.1 14.4-6.2l0.8 0 -0.6-0.6c-1.3-1.2-7.8-2.4-11.8-2.3 1.2-2.2 4.2-5.4 7-6.9l1.3-0.7 -1.5 0.1c-0.9 0.1-2.1 0-3.4-0.2 -1.2-0.1-2.4-0.2-3.6-0.2 -0.5 0-0.9 0-1.3 0.1 6.3-4.6 14.4-6.7 25.7-6.5 5.7 0.1 12.1 1.7 18.2 3.2 6.2 1.5 12.6 3.1 18.3 3.1 0.8 0 1.6 0 2.4-0.1v0c4.7-0.2 7.9-0.8 10.4-1.9 2.8-1.2 3.3-2.9 3.4-3 0 0-1.1 1.3-3.6 2.4 -2.1 0.9-4.7 1.5-8.4 1.7C427.4 320 429.1 313.7 428.7 307.3zM428 306.7c0.1 1.5 0.1 3.1 0 4.6 0 0.3 0 0.5-0.1 0.8 0 0.3-0.1 0.6-0.1 1 -0.3 2.8-1 5.8-2.1 8.9 -0.1 0.4-0.3 0.8-0.4 1.1 -1.1 0.1-2.2 0.2-3.4 0.2 -5.6 0-12-1.6-18.1-3.1 -0.1 0-0.2 0-0.2-0.1 1.4-6.9 3.5-13.9 5.9-19.9 0.5-1.3 1.1-2.6 1.6-4.1 0.4-0.9 0.8-1.9 1.2-2.9 0.7-0.1 1.4-0.2 2.1-0.2 6.4 0 12.1 5.1 13.4 11.8 0.1 0.4 0.1 0.7 0.2 1.1l0 0L428 306.7z" class="d"/><path d="M388.2 219.6c-6.7-0.6-12.3-1.6-14.4-2 -0.2 0.2-0.5 0.4-0.7 0.5 -0.1 0.1-0.1 0.1-0.2 0.2l0 0c-4 3.1-9.8 5-15.9 5.4 0.2 5.9-0.8 12.5-3.5 17.2 -3 5.1-9 18-1.8 28.6 0.3-2.2 1.1-3.7 2.2-5.2l0.5-0.7 0.1 0.9c0.3 2.9 1.9 5.9 3.4 8.8 1.6 3 3.3 6.1 3.4 9 1.6-1.4 3.9-5.1 4.3-6.7l0.3-1.2 0.4 1.2c0.6 2.1 1.9 4.1 3.2 6 1.6 2.5 3.1 4.8 3.2 7.2 2.3-2 5.8-8 6-12.3l0.1-1.8 0.6 1.7c1 3.2 4 5.3 7.2 7 -0.2-1.8 0.5-4.6 1.2-7.3 0.5-2.1 1-4.1 1-5.3l0-0.9 0.6 0.6c0.3 0.4 0.8 0.8 1.2 1.3 1.4 1.4 3.2 3.2 4.1 4.8 0.6-2.1 0.2-7.2-0.3-9.3l-0.2-0.9 0.7 0.5c1.3 0.9 3.4 2 4.8 2.5 -0.2-1.7 0.1-4.3 0.4-7.1 0.6-4.9 1.3-10.5-0.4-14.4 -1.3-2.9-3-4.8-4.5-6.6 -1.9-2.2-3.7-4.3-4.9-8.1C388.9 227.8 388.4 223.4 388.2 219.6z" class="a"/><path d="M327.8 74.8c-1.2-1-2.5-2.2-3.7-3.4 -2.4-2.5-4.7-5.3-7-8.1 -5.2-6.4-10.2-12.5-14.7-12.2 -5.7 0.5-7.3 6.9-9 13.6 -0.4 1.8-0.9 3.7-1.5 5.5 -0.3 1.1-0.8 2.6-1.3 4.3 -2.8 9.7-6.7 28.5 0.1 47.4 3.9 10.9 11.4 20 20.3 26 0.2-2.9 0.5-5.9 1-8.9 -11.5-9.9-17.8-25.3-18.9-40.2 -1.1-14.4 4.9-28 8.1-35.3 0.7-1.6 1.3-2.9 1.6-3.9l0.3-0.7 0.4 0.7c0.9 1.6 3.7 4.2 6 6.3 1.4 1.3 2.6 2.4 3.3 3.2l0.4 0.4 -0.7 0.2c-0.7 0.2-1.9 0.5-2.8 0.5 1.5 2.7 5.3 7.4 10.3 9.8l1 0.5 -1.1 0.2c-0.5 0.1-1.1 0.2-1.9 0.2 -1.6 0.1-2.9 0-3.8-0.3 1.2 3.5 4.7 7 9.3 9.5l0.6 0.3 -0.7 0.3c-1.7 0.7-3.7 2.4-4.7 3.6 4.6-0.3 10 2.2 11.9 4.2l0.6 0.6 -0.9-0.1c-0.4 0-0.9 0-1.4 0 -1.9 0.2-4.2 0.7-5.5 1.2l0 0c2.5 1 6 2.3 9.2 4.2 4.2-3.3 8.7-6 13.6-8.1C341.6 87.1 334.8 80.5 327.8 74.8z" class="c"/><path d="M332 104.9c-3.1-1.8-6.4-3-8.9-4l-1.3-0.5 0.5-0.4c1.2-0.8 4.3-1.5 6.4-1.7 0.2 0 0.4 0 0.6 0 -2.3-1.8-7.3-3.9-11.4-3.3l-0.7 0.1 0.4-0.6c0.7-1.2 2.8-3.2 4.9-4.2 -4.8-2.7-8.2-6.5-9.3-10.2l-0.2-0.8 0.7 0.4c0.8 0.5 2.2 0.6 4.1 0.5 0.3 0 0.5 0 0.8-0.1 -5-2.7-8.7-7.5-9.9-10.1l-0.3-0.5 0.6 0.1c0.7 0.1 1.9-0.2 2.8-0.4 -0.7-0.7-1.8-1.7-2.9-2.7 -2.2-2-4.7-4.3-5.8-5.9 -0.4 0.9-0.8 2-1.4 3.3 -3.2 7.2-9.2 20.7-8 35 1.2 14.6 7.2 29.7 18.4 39.5 1.6-8.4 4.7-16.8 10-23.4C325.2 111.1 328.5 107.8 332 104.9z" class="g"/><path d="M469.8 72.9c-0.6-1.7-1.2-3.1-1.6-4.2 -0.7-1.7-1.2-3.6-1.8-5.4 -2.1-6.7-4.1-12.9-9.8-13 -4.5-0.1-9.1 6.3-13.9 13.1 -2.1 2.9-4.2 5.9-6.5 8.6 -1.1 1.3-2.2 2.6-3.4 3.7 -7.5 7-14.8 15.1-18.4 26.8 3.6 2.8 6.7 5.9 9.3 9 3.3-5.2 10.7-8.6 15.1-10.7l0 0c-1.3-0.5-3.7-0.8-5.6-0.9 -0.6 0-1 0-1.4 0.1l-0.9 0.1 0.6-0.7c1.8-2.1 6.9-4.9 11.6-5 -1.1-1.2-3.2-2.7-5-3.3l-0.7-0.2 0.6-0.4c4.5-2.8 7.7-6.5 8.7-10 -0.9 0.4-2.2 0.5-3.8 0.5 -0.7 0-1.4-0.1-1.9-0.1l-1.1-0.1 1-0.5c4.8-2.7 8.3-7.6 9.6-10.4 -0.9 0-2.1-0.2-2.8-0.3l-0.7-0.1 0.3-0.4c0.6-0.8 1.8-2 3.1-3.4 2.2-2.3 4.9-5.1 5.6-6.7l0.3-0.7 0.3 0.7c0.4 0.9 1.1 2.2 1.9 3.8 3.7 7.1 10.6 20.2 10.4 34.7 -0.3 21-10.5 43.8-32.4 51.3 0.1 2.6 0.2 5.1 0.2 7.4 16.1-3.7 30.8-17.8 36-35.8C478.4 100.8 473.2 82.4 469.8 72.9z" class="c"/><path d="M470 71.4c-0.4-1.2-0.8-2.2-1.1-3 -0.7-1.7-1.2-3.5-1.8-5.3 -2.1-6.6-4.2-13.4-10.5-13.5 -4.9-0.1-9.5 6.5-14.5 13.4 -2.3 3.3-4.7 6.6-7.3 9.5 -0.8 0.9-1.7 1.8-2.5 2.6 -7.5 7-14.8 15.2-18.5 26.9 -4-3.1-8.6-5.7-13.9-7.7 -11.5-12.7-30.6-9.9-40.2-4.9 -2.6 1.3-4.9 2.9-7 4.6 -2 0.6-4 1.3-5.9 2.1 -4.6-9.4-11.5-16.1-18.6-21.9 -0.9-0.7-1.8-1.6-2.7-2.5 -2.7-2.7-5.3-5.9-7.9-9 -5.4-6.6-10.4-12.8-15.3-12.4 -6.2 0.5-7.9 7.4-9.6 14.1 -0.4 1.8-0.9 3.7-1.4 5.4 -0.3 0.8-0.6 1.9-0.9 3.1 -2.8 9.3-7.4 29.1-0.2 49 4 11.1 11.7 20.5 20.9 26.6 -0.2 5.3 0 10.3 0.7 14.5 1.4 9.5 1.6 15.1-0.9 19.7 0.3-0.1 0.6-0.1 0.8-0.2 2.3-4.7 2.1-10.3 0.7-19.6 -2-13.6-0.5-34.3 10.4-47.9 7.7-9.6 17.3-16.3 28.5-20.1 -5 4.3-8.5 9.2-9.7 12.9l-0.3 1 0.8-0.6c1.6-1.1 4.9-2.3 7.1-2.6 -1.1 2-1.6 4.8-2.1 7.8 -0.8 4.6-1.6 9.8-4.9 12.7l-0.9 0.8 1.1-0.2c0.7-0.1 6.5-1.2 9.4-3.5 -0.5 4.5 0.3 12.8 1.7 16.3l0.5 1.1 0.2-1.2c0.4-2.5 2-7.2 3.6-9.3 0.9 4.1 4.2 9.7 6 11.1l0.5 0.4 0-0.7c0.1-8.5 4.4-13 4.4-13 0 0-4.7 4-5 12.3 -1.8-2-4.8-7.3-5.4-10.9l-0.1-0.7 -0.5 0.5c-1.7 1.7-3.3 6-4 8.9 -1.2-4.2-1.8-12.1-1.1-15.8l0.3-1.2 -0.8 1c-1.6 1.9-5.8 3.2-8.7 3.8 2.8-3.2 3.6-8 4.4-12.3 0.5-3.2 1.1-6.3 2.3-8.1l0.4-0.5 -0.7 0c-2 0.1-5.2 1.1-7.3 2.2 2.3-5.4 8.8-12.8 17.5-17.3 9.7-5 29.1-7.9 40.2 5.6l0.4-0.3c12.7 5.1 21.4 14.3 27 22.4 9.8 14.2 8.5 40.8 8.1 49.6 -0.3 6.7 0.2 11.7 1.8 15.3 0.2 0 0.5-0.1 0.7-0.1 -1.5-3.6-2.1-8.5-1.8-15.2 0.1-2.4 0.3-6.2 0.3-10.6 16.4-3.7 31.4-18 36.7-36.3C479.3 100 473.3 80.6 470 71.4zM436.7 156c0-2.3-0.1-4.8-0.2-7.4 21.9-7.5 32.1-30.2 32.4-51.3 0.2-14.5-6.7-27.6-10.4-34.7 -0.8-1.6-1.5-2.8-1.9-3.8l-0.3-0.7 -0.3 0.7c-0.7 1.6-3.4 4.5-5.6 6.7 -1.3 1.4-2.5 2.6-3.1 3.4l-0.3 0.4 0.7 0.1c0.7 0.1 1.9 0.3 2.8 0.3 -1.3 2.8-4.8 7.7-9.6 10.4l-1 0.5 1.1 0.1c0.5 0 1.1 0.1 1.9 0.1 1.6 0 2.9-0.1 3.8-0.5 -1 3.5-4.2 7.3-8.7 10l-0.6 0.4 0.7 0.2c1.8 0.6 3.9 2.2 5 3.3 -4.6 0-9.8 2.9-11.6 5l-0.6 0.7 0.9-0.1c0.4-0.1 0.9-0.1 1.4-0.1 1.9 0 4.3 0.4 5.6 0.9l0 0c-4.4 2.1-11.8 5.5-15.1 10.7 -2.6-3.1-5.7-6.2-9.3-9 3.7-11.7 10.9-19.8 18.4-26.8 1.2-1.1 2.3-2.3 3.4-3.7 2.2-2.7 4.4-5.6 6.5-8.6 4.8-6.8 9.4-13.2 13.9-13.1 5.8 0.1 7.7 6.4 9.8 13 0.6 1.8 1.2 3.7 1.8 5.4 0.4 1.1 1 2.5 1.6 4.2 3.4 9.5 8.6 28 3 47.3C467.5 138.2 452.9 152.3 436.7 156zM439.1 101.4l1.3-0.6 -0.6-0.3c-1.2-0.7-4.4-1.2-6.5-1.2 -0.2 0-0.4 0-0.6 0 2.2-2 7-4.3 11.2-4.1l0.7 0 -0.4-0.6c-0.8-1.1-3-3-5.1-3.9 4.6-3 7.8-7 8.6-10.8l0.2-0.8 -0.7 0.4c-0.8 0.5-2.2 0.8-4.1 0.7 -0.3 0-0.5 0-0.8 0 4.8-3 8.1-8.1 9.2-10.7l0.2-0.5 -0.6 0.1c-0.6 0.1-1.9-0.1-2.8-0.2 0.7-0.8 1.7-1.8 2.7-2.9 2.1-2.2 4.4-4.6 5.4-6.3 0.4 0.9 1 1.9 1.6 3.2 3.7 7 10.5 20 10.3 34.4 -0.3 20.7-10.3 43.2-31.8 50.6 -0.6-10.5-2.7-22.5-8.2-30.6 -1.2-1.7-2.6-3.5-4-5.3C427.3 106.9 434.7 103.5 439.1 101.4zM293.8 98.7c-1.1-14.3 4.8-27.7 8-35 0.6-1.3 1.1-2.4 1.4-3.3 1.2 1.7 3.6 3.9 5.8 5.9 1.1 1 2.2 2 2.9 2.7 -0.8 0.2-2.1 0.4-2.8 0.4l-0.6-0.1 0.3 0.5c1.2 2.6 4.9 7.4 9.9 10.1 -0.2 0-0.5 0.1-0.8 0.1 -1.9 0.2-3.3 0-4.1-0.5l-0.7-0.4 0.2 0.8c1 3.7 4.5 7.5 9.3 10.2 -2 1-4.1 3-4.9 4.2l-0.4 0.6 0.7-0.1c4.1-0.5 9.1 1.5 11.4 3.3 -0.2 0-0.4 0-0.6 0 -2.1 0.2-5.2 0.9-6.4 1.7l-0.5 0.4 1.3 0.5c2.4 0.9 5.8 2.2 8.9 4 -3.5 2.9-6.8 6.1-9.8 9.9 -5.3 6.7-8.4 15-10 23.4C301 128.5 295 113.3 293.8 98.7zM323.4 100.3l0 0c1.3-0.5 3.6-1.1 5.5-1.2 0.6 0 1-0.1 1.4 0l0.9 0.1 -0.6-0.6c-1.9-2-7.3-4.4-11.9-4.2 1-1.2 3-2.9 4.7-3.6l0.7-0.3 -0.6-0.3c-4.6-2.5-8.1-6-9.3-9.5 0.9 0.3 2.2 0.4 3.8 0.3 0.7-0.1 1.4-0.2 1.9-0.2l1.1-0.2 -1-0.5c-5-2.4-8.8-7-10.3-9.8 0.9 0 2.1-0.3 2.8-0.5l0.7-0.2 -0.4-0.4c-0.7-0.8-1.9-1.9-3.3-3.2 -2.3-2.1-5.2-4.8-6-6.3l-0.4-0.7 -0.3 0.7c-0.3 1-0.9 2.3-1.6 3.9 -3.2 7.3-9.2 20.8-8.1 35.3 1.2 14.9 7.4 30.3 18.9 40.2 -0.5 3-0.8 6-1 8.9 -8.9-6-16.3-15.2-20.3-26 -6.8-18.9-2.9-37.7-0.1-47.4 0.5-1.7 0.9-3.2 1.3-4.3 0.6-1.7 1-3.6 1.5-5.5 1.7-6.8 3.2-13.2 9-13.6 4.5-0.4 9.5 5.7 14.7 12.2 2.3 2.8 4.6 5.6 7 8.1 1.2 1.2 2.4 2.4 3.7 3.4 7 5.7 13.8 12.3 18.4 21.6 -4.9 2.1-9.4 4.8-13.6 8.1C329.4 102.6 325.9 101.3 323.4 100.3z" class="d"/><path d="M436.5 147.9c21.5-7.4 31.5-29.8 31.8-50.6 0.2-14.3-6.6-27.4-10.3-34.4 -0.7-1.3-1.2-2.3-1.6-3.2 -1 1.7-3.4 4.1-5.4 6.3 -1 1.1-2 2.1-2.7 2.9 0.9 0.1 2.1 0.3 2.8 0.2l0.6-0.1 -0.2 0.5c-1 2.6-4.4 7.7-9.2 10.7 0.2 0 0.5 0 0.8 0 1.9 0 3.3-0.2 4.1-0.7l0.7-0.4 -0.2 0.8c-0.8 3.8-4 7.8-8.6 10.8 2.1 0.9 4.3 2.8 5.1 3.9l0.4 0.6 -0.7 0c-4.2-0.2-9 2.1-11.2 4.1 0.2 0 0.4 0 0.6 0 2.2 0 5.3 0.5 6.5 1.2l0.6 0.3 -1.3 0.6c-4.4 2-11.8 5.5-14.9 10.6 1.5 1.8 2.8 3.6 4 5.3C433.8 125.4 435.8 137.4 436.5 147.9z" class="g"/><path d="M324.7 180.5c-1.4-2.9-2.3-6.4-2.6-10.3 -4.6-24.3 3.4-40.1 13.4-39.1 6.1 0.6 9.3 18.1 10 29.7 0.4 2 0.6 4.1 0.6 6.4 0 4.1-0.7 7.9-1.9 11.2 2.4-0.8 3.9-1 3.9-1 0 0-4.5 1.2-9.7 4.4 -5.5 3.4-9.8 7.7-12.8 12.8 0.6-0.1 1.3-0.2 1.9-0.2 3 0 5.7 1.2 7.3 2.9 5-2.5 12.8-4.1 19.9-5.6 3.2-0.7 6.1-1.3 8.6-1.9 3.1-0.8 5.6-1.9 7.3-2.8 0.1 0 0.2-0.1 0.2-0.1 0.2-0.2 0.4-0.3 0.6-0.4 0 0 0.1 0 0.1 0.1 1.4-0.8 2.2-1.4 2.2-1.4l0 0c1.6-1.2 3.5-2.5 5.7-3.6 -5.3-3.5-9-10.6-9-18.8 0-1.5 0.1-2.9 0.4-4.3 0.3-12.3 4.7-35.3 13.7-36 13.5-1.1 24.3 16 18.3 42.4 -0.4 5.3-2.3 10-5.2 13.4 3.4 0.3 7.6 1.1 12.1 1.9 6.9 1.3 14.8 2.8 21.9 2.8 2.1 0 3.9-0.1 5.7-0.4 -1.5-3.7-2.1-8.6-1.8-15.3 0.4-8.7 1.7-35.3-8.1-49.6 -5.6-8.2-14.3-17.4-27-22.4l-0.4 0.3c-11.1-13.5-30.6-10.6-40.2-5.6 -8.7 4.5-15.2 11.9-17.5 17.3 2-1.1 5.3-2.1 7.3-2.2l0.7 0 -0.4 0.5c-1.3 1.8-1.8 4.9-2.3 8.1 -0.7 4.3-1.5 9.2-4.4 12.3 2.8-0.6 7-1.9 8.7-3.8l0.8-1 -0.3 1.2c-0.7 3.6-0.1 11.5 1.1 15.8 0.7-2.9 2.3-7.2 4-8.9l0.5-0.5 0.1 0.7c0.5 3.5 3.5 8.9 5.4 10.9 0.3-8.3 5.1-12.3 5.1-12.3 0 0-4.3 4.5-4.4 13l0 0.7 -0.5-0.4c-1.8-1.4-5.1-7-6-11.1 -1.6 2.1-3.3 6.8-3.6 9.3l-0.2 1.2 -0.5-1.1c-1.4-3.5-2.2-11.8-1.7-16.3 -2.9 2.3-8.7 3.4-9.4 3.5l-1.1 0.2 0.9-0.8c3.3-3 4.2-8.2 4.9-12.7 0.5-3 1-5.8 2.1-7.8 -2.2 0.3-5.5 1.5-7.1 2.6l-0.8 0.6 0.3-1c1.3-3.7 4.8-8.6 9.7-12.9 -11.3 3.8-20.9 10.5-28.5 20.1 -10.9 13.6-12.4 34.3-10.4 47.9 1.4 9.3 1.6 14.9-0.7 19.6 0.8-0.2 1.7-0.4 2.7-0.7C315.8 181.6 319.6 180.6 324.7 180.5z" class="c"/><path d="M386.9 141.8c9 0 16.2 9.4 16.2 21 0 0.7 0 1.4-0.1 2 6-26.4-4.8-43.5-18.3-42.4 -9.1 0.7-13.4 23.7-13.7 36C372.6 149 379.1 141.8 386.9 141.8z" class="b"/><path d="M402.5 162.9c0-11.1-7-20.2-15.5-20.2 -8.6 0-15.5 9.1-15.5 20.2 0 8.2 3.7 15.2 9.1 18.4 4.1-1.9 9.2-3.2 15.8-3 0.2 0 0.5 0 0.7 0C400.3 174.6 402.5 169 402.5 162.9zM377.4 164.7c0-7 4.3-12.7 9.5-12.7 5.3 0 9.5 5.7 9.5 12.7 0 7-4.3 12.7-9.5 12.7C381.7 177.4 377.4 171.7 377.4 164.7z" class="b"/><path d="M403.2 162.9c0-11.6-7.3-21-16.2-21 -7.8 0-14.3 7.2-15.9 16.7 -0.2 1.4-0.4 2.9-0.4 4.3 0 8.2 3.7 15.3 9 18.8 0.3-0.1 0.6-0.3 0.9-0.4 -5.4-3.2-9.1-10.2-9.1-18.4 0-11.1 7-20.2 15.5-20.2 8.6 0 15.5 9.1 15.5 20.2 0 6.2-2.1 11.7-5.5 15.4 0.3 0 0.6 0 0.9 0.1 2.9-3.4 4.8-8.1 5.2-13.4C403.1 164.2 403.2 163.6 403.2 162.9z" class="h"/><path d="M386.9 152.9c-4.8 0-8.7 5.3-8.7 11.8 0 6.5 3.9 11.8 8.7 11.8 4.8 0 8.7-5.3 8.7-11.8C395.7 158.1 391.7 152.9 386.9 152.9zM386.9 172.2c-3.2 0-5.8-3.4-5.8-7.6 0-4.2 2.6-7.6 5.8-7.6 3.2 0 5.8 3.4 5.8 7.6C392.7 168.8 390.1 172.2 386.9 172.2z" class="i"/><path d="M396.5 164.7c0-7-4.3-12.7-9.5-12.7 -5.3 0-9.5 5.7-9.5 12.7 0 7 4.3 12.7 9.5 12.7C392.2 177.4 396.5 171.7 396.5 164.7zM386.9 176.4c-4.8 0-8.7-5.3-8.7-11.8 0-6.5 3.9-11.8 8.7-11.8 4.8 0 8.7 5.3 8.7 11.8C395.7 171.2 391.7 176.4 386.9 176.4z" class="j"/><ellipse cx="386.9" cy="164.7" rx="5.8" ry="7.6" class="k"/><path d="M334 146.1c5.4 0 10 6.2 11.5 14.7 -0.7-11.6-3.9-29.1-10-29.7 -10.1-1-18 14.8-13.4 39.1 -0.1-1-0.1-2-0.1-3C322 155.6 327.4 146.1 334 146.1z" class="b"/><path d="M343.6 178.6c1.3-3.2 2-7.2 2-11.4 0-11.1-5.2-20.2-11.6-20.2 -6.4 0-11.6 9.1-11.6 20.2 0 5.1 1.1 9.8 2.9 13.3 0.1 0 0.2 0 0.3 0 4 0 7.7 0.6 11.1 1.7 0.5-0.3 0.9-0.6 1.4-0.9C340.1 180 342 179.1 343.6 178.6zM329 168.9c0-7 3.3-12.4 7.2-12.4 3.9 0 7 5.4 7 12.4 0 7-3.2 12.7-7.1 12.7C332.2 181.6 329 175.9 329 168.9z" class="b"/><path d="M322.5 167.2c0-11.1 5.2-20.2 11.6-20.2 6.4 0 11.6 9.1 11.6 20.2 0 4.2-0.7 8.2-2 11.4 0.2-0.1 0.5-0.2 0.7-0.2 1.2-3.2 1.9-7.1 1.9-11.2 0-2.2-0.2-4.3-0.6-6.4 -1.6-8.5-6.1-14.7-11.5-14.7 -6.7 0-12.1 9.4-12.1 21 0 1 0.1 2 0.1 3 0.3 3.9 1.2 7.4 2.6 10.3 0.2 0 0.4 0 0.7 0C323.6 176.9 322.5 172.3 322.5 167.2z" class="h"/><path d="M336.2 157.1c-3.6 0-6.5 5.3-6.5 11.8 0 6.5 2.9 11.8 6.5 11.8 3.6 0 6.5-5.3 6.5-11.8C342.6 162.4 339.7 157.1 336.2 157.1zM336.1 176.5c-2.4 0-4.3-3.4-4.3-7.6 0-4.2 1.9-7.6 4.3-7.6 2.4 0 4.3 3.4 4.3 7.6C340.5 173.1 338.5 176.5 336.1 176.5z" class="i"/><path d="M343.3 168.9c0-7-3.1-12.4-7-12.4 -3.9 0-7.2 5.4-7.2 12.4 0 7 3.2 12.7 7.1 12.7C340.1 181.6 343.3 175.9 343.3 168.9zM336.2 180.7c-3.6 0-6.5-5.3-6.5-11.8 0-6.5 2.9-11.8 6.5-11.8 3.6 0 6.5 5.3 6.5 11.8C342.6 175.4 339.7 180.7 336.2 180.7z" class="j"/><ellipse cx="336.1" cy="168.9" rx="4.3" ry="7.6" class="k"/><path d="M371 187c0 0 0 0 0 0 -0.1 0-0.2 0.1-0.2 0.1C370.9 187.1 371 187.1 371 187z" class="a"/><path d="M437.5 182.6c-1.7 0.2-3.6 0.4-5.7 0.4 -7.1 0-14.9-1.5-21.9-2.8 -4.4-0.8-8.7-1.6-12.1-1.9 -0.3 0-0.6 0-0.9-0.1 -0.2 0-0.5 0-0.7 0 -6.6-0.2-11.7 1.2-15.8 3 -0.3 0.1-0.6 0.3-0.9 0.4 -2.2 1.1-4.1 2.3-5.7 3.6l0 0c0 0-0.8 0.6-2.2 1.4 0 0-0.1 0-0.1-0.1 -0.2 0.1-0.4 0.3-0.6 0.4 0 0 0 0 0 0 -0.1 0-0.2 0.1-0.3 0.1 -1.8 0.9-4.2 1.9-7.3 2.8 -2.5 0.6-5.5 1.3-8.6 1.9 -7.1 1.5-14.9 3.1-19.9 5.6 0.2 0.2 0.3 0.4 0.4 0.6 4.9-2.4 12.6-4 19.6-5.5 3.2-0.7 6.1-1.3 8.7-1.9 7.1-1.8 10.7-4.8 10.9-4.9 4.5-3.4 11.4-7 21.8-6.7 3.6 0.1 8.4 1 13.6 2 7 1.3 14.8 2.8 22 2.8 6.5 0 11.4-1.2 15.1-3.7 0.1 4.5-3.3 11.2-8.3 13.7l-0.7 0.4 0.8 0.2c0.4 0.1 1 0.2 1.7 0.2 1.8 0 4.3-0.4 5.9-0.9 -1.9 3.4-7.9 8.6-14 9.6l-1.1 0.2 1 0.5c1.2 0.6 3.3 0.8 4.8 0.9 -4.7 4.1-14.2 9.5-25.9 12.9 -3.9 1.1-8.8 1.7-14.5 1.7 -9.6 0-19-1.7-22.2-2.3 2.6-2.8 3.4-4.9 3.4-5 0 0-1.6 2.5-4.9 5.6 -4.4 3.4-11 5.5-17.8 5.5 -5.5 0-10.7-1.3-14.7-3.7l-0.1-0.1 -0.1 0c-0.6 0.1-1.2 0.1-1.8 0.1 -10.3 0-22.2-8.7-26.1-14.8 0.2 0 0.4 0 0.7 0 1.5 0 2.7-0.5 3.5-0.9l0.9-0.4 -1-0.2c-4.4-0.9-10.4-5-12.8-10 1.6 0.5 4.3 1.1 6.3 0.9l1.1-0.1 -1-0.5c-3-1.6-7.9-6.2-9.7-11 2 1.1 4.2 1.6 6.7 1.6 2.3 0 4.7-0.4 7.7-1.3 3.1-1 7.3-1.5 11.2-1.5 3.7 0 7.2 0.5 10.3 1.5 0.2-0.2 0.5-0.3 0.7-0.5 -3.4-1.1-7.1-1.7-11.1-1.7 -0.1 0-0.2 0-0.3 0 -0.2 0-0.4 0-0.7 0 -5.1 0.1-8.9 1.1-10.4 1.5 -0.9 0.3-1.8 0.5-2.7 0.7 -0.3 0.1-0.6 0.1-0.8 0.2 -1.4 0.3-2.7 0.4-4 0.4 -2.7 0-5-0.6-7.1-1.9l-0.7-0.5 0.3 0.8c1.5 4.9 6 9.5 9.3 11.6 -2.2-0.1-4.7-0.8-5.6-1.2l-0.7-0.3 0.3 0.8c2.1 5.2 8 9.5 12.7 10.8 -0.7 0.2-1.5 0.5-2.4 0.5 -0.4 0-0.8 0-1.2-0.1l-0.7-0.2 0.4 0.7c3.1 5.5 15.1 15.8 27 15.8 0.6 0 1.2 0 1.7-0.1 2.5 1.5 5.5 2.6 8.7 3.2 0.2 0 0.4 0.1 0.7 0.1 1.8 0.3 3.7 0.5 5.6 0.5 0.5 0 1 0 1.5-0.1 0.2 6.4-1 12.8-3.4 16.8 -3.1 5.4-9.4 19-1.2 30.1l0.6 0.8 0-0.9c0.1-2.2 0.7-3.6 1.7-5 0.5 2.8 2 5.5 3.4 8.2 1.8 3.3 3.4 6.4 3.3 9.3l0 0.6 0.5-0.3c0.2-0.1 0.3-0.2 0.5-0.4 0.2-0.2 0.4-0.4 0.6-0.6 1.4-1.5 3-4 3.7-5.7 0.7 1.8 1.8 3.5 2.9 5.2 1.7 2.6 3.3 5.1 3.1 7.5l-0.1 0.7 0.6-0.4c2.2-1.5 5.9-7.2 6.7-11.9 1.5 2.9 4.5 4.8 7.7 6.5l0.7 0.4 -0.2-0.7c-0.4-1.6 0.4-4.8 1.1-7.7 0.2-0.7 0.4-1.4 0.5-2.1 0.2-1 0.4-1.9 0.5-2.6 0.1 0.2 0.3 0.3 0.5 0.5 0.1 0.1 0.2 0.2 0.2 0.2 1.6 1.6 3.6 3.6 4.3 5.2l0.3 0.6 0.3-0.5c1-1.7 0.7-6.9 0.2-9.6 1.5 0.9 3.6 2 4.8 2.4l0.6 0.2 -0.1-0.6c-0.4-1.6-0.1-4.3 0.3-7.5 0.6-5 1.4-10.7-0.5-14.7 -1.4-3-3-5-4.6-6.8 -1.9-2.2-3.7-4.2-4.7-7.8 -1.5-5.2-2-9.4-2.1-13.2 1 0.1 2.1 0.1 3.2 0.2 0.2 0 0.5 0 0.7 0 1.2 0.1 2.5 0.1 3.8 0.1 5.8 0 10.7-0.6 14.7-1.7 12.4-3.6 22.4-9.5 26.8-13.7l0.7-0.7 -1 0.1c-0.2 0-0.5 0-0.8 0 -1.1 0-2.4-0.2-3.4-0.4 6.4-1.6 12.2-7 13.6-10.4l0.3-0.7 -0.7 0.3c-1.1 0.4-4.2 1.1-6.4 1.1 -0.2 0-0.4 0-0.6 0 5-3.1 8.2-9.9 7.8-14.5l-0.1-0.6 -0.5 0.4c-2.3 1.7-5.2 2.9-8.8 3.5C438 182.5 437.8 182.6 437.5 182.6zM399.8 247.8c1.7 3.9 1 9.4 0.4 14.4 -0.4 2.9-0.7 5.4-0.4 7.1 -1.4-0.6-3.5-1.6-4.8-2.5l-0.7-0.5 0.2 0.9c0.5 2.1 0.9 7.2 0.3 9.3 -0.9-1.6-2.7-3.3-4.1-4.8 -0.5-0.5-0.9-0.9-1.2-1.3l-0.6-0.6 0 0.9c0 1.2-0.5 3.2-1 5.3 -0.7 2.7-1.4 5.5-1.2 7.3 -3.2-1.7-6.2-3.8-7.2-7l-0.6-1.7 -0.1 1.8c-0.2 4.3-3.7 10.2-6 12.3 -0.1-2.4-1.6-4.7-3.2-7.2 -1.2-1.9-2.5-3.9-3.2-6l-0.4-1.2 -0.3 1.2c-0.3 1.6-2.7 5.4-4.3 6.7 -0.1-2.9-1.8-6-3.4-9 -1.6-2.9-3.2-5.9-3.4-8.8l-0.1-0.9 -0.5 0.7c-1.1 1.5-1.9 3-2.2 5.2 -7.2-10.6-1.2-23.5 1.8-28.6 2.7-4.7 3.6-11.3 3.5-17.2 6.1-0.4 11.8-2.3 15.9-5.4l0 0c0.1-0.1 0.1-0.1 0.2-0.2 0.2-0.2 0.5-0.3 0.7-0.5 2.1 0.4 7.7 1.5 14.4 2 0.1 3.9 0.6 8.2 2.2 13.5 1.1 3.7 2.9 5.8 4.9 8.1C396.9 242.9 398.5 244.8 399.8 247.8z" class="l"/><path d="M327.6 207.8c-1 0-1.9-0.2-2.8-0.4 0.5 3.5 2.9 5.7 5.1 6.7 2.5 1.1 5 0.9 6.8-0.3 -2.6-1.6-3.9-3.8-4-3.9 0 0 2.2 2.4 5.4 3.9 3.2 1.4 9.4 2.6 18.8-1.2 9-3.7 13.5-10 14.4-11.5 -2-1-3.4-0.9-3.4-0.9 0 0 1.6-0.8 4 0.5 2.4 1.3 2.1 3.3 2.1 3.3 0-0.1-0.3-1.5-2.2-2.6 -0.9 1.4-5.5 8-14.7 11.8 -4.7 1.9-8.7 2.6-11.9 2.6 -3.3 0-5.8-0.7-7.4-1.4l0 0c0 0-0.1 0-0.1-0.1 -0.1 0-0.3-0.1-0.4-0.1 -2 1.6-4.9 1.8-7.7 0.6 -2.4-1.1-5.1-3.6-5.5-7.5 -3.1-1-5.3-3.4-5.3-6.1 0-2.9 2.5-5.4 6-6.3 2.7-4.8 6.4-8.8 11.2-12.2 -3.1-1-6.6-1.5-10.3-1.5 -3.8 0-8 0.6-11.2 1.5 -3 0.9-5.4 1.3-7.7 1.3 -2.5 0-4.7-0.5-6.7-1.6 1.8 4.8 6.6 9.4 9.7 11l1 0.5 -1.1 0.1c-2 0.2-4.7-0.4-6.3-0.9 2.4 5 8.4 9 12.8 10l1 0.2 -0.9 0.4c-0.8 0.4-2.1 0.9-3.5 0.9 -0.2 0-0.4 0-0.7 0 3.9 6.1 15.7 14.8 26.1 14.8 0.6 0 1.2 0 1.8-0.1l0.1 0 0.1 0.1c4 2.4 9.3 3.7 14.7 3.7 6.9 0 13.4-2 17.8-5.5 3.4-3.1 4.9-5.6 4.9-5.6 0 0.1-0.8 2.3-3.4 5 3.3 0.6 12.6 2.3 22.2 2.3 5.7 0 10.6-0.6 14.5-1.7 11.7-3.4 21.2-8.8 25.9-12.9 -1.5 0-3.6-0.3-4.8-0.8l-1-0.5 1.1-0.2c6.1-1 12.1-6.2 14-9.6 -1.6 0.4-4.1 0.9-5.9 0.9 -0.7 0-1.3-0.1-1.7-0.2l-0.8-0.2 0.7-0.4c5-2.5 8.4-9.2 8.3-13.7 -3.6 2.5-8.6 3.7-15.1 3.7 -7.1 0-15-1.5-22-2.8 -5.2-1-10-1.9-13.6-2 -10.4-0.3-17.3 3.3-21.8 6.7 -0.1 0.1-3.8 3.1-10.9 4.9 -2.5 0.6-5.5 1.3-8.6 1.9 -7 1.5-14.7 3.1-19.6 5.5 0.7 0.9 1.1 2 1.1 3.2C336.4 204.8 332.5 207.8 327.6 207.8z" class="a"/><path d="M329.6 214.7c2.8 1.2 5.7 1 7.7-0.6 0.1 0 0.2 0.1 0.4 0.1 0 0 0.1 0 0.1 0.1l0 0c1.7 0.7 4.1 1.4 7.4 1.4 3.2 0 7.2-0.7 11.9-2.6 9.2-3.8 13.8-10.4 14.8-11.8 1.9 1.1 2.2 2.5 2.2 2.6 0 0 0.3-2-2.1-3.3 -2.4-1.3-4-0.5-4-0.5 0 0 1.4-0.1 3.4 0.9 -0.9 1.4-5.4 7.8-14.4 11.5 -9.4 3.8-15.6 2.6-18.8 1.2 -3.2-1.5-5.4-3.9-5.4-3.9 0.1 0.1 1.3 2.3 4 3.9 -1.8 1.3-4.4 1.4-6.8 0.4 -2.2-1-4.6-3.3-5.1-6.7 -0.2-0.1-0.5-0.1-0.7-0.2C324.6 211.1 327.2 213.6 329.6 214.7z" class="l"/><path d="M324.8 194.8c0.3-0.1 0.6-0.2 0.9-0.2 3-5.1 7.3-9.4 12.8-12.8 5.2-3.2 9.7-4.4 9.7-4.4 0 0-1.6 0.2-3.9 1 -0.2 0.1-0.4 0.2-0.7 0.2 -1.6 0.6-3.5 1.4-5.4 2.6 -0.5 0.3-0.9 0.6-1.4 0.9 -0.2 0.2-0.5 0.3-0.7 0.5C331.2 186 327.5 190.1 324.8 194.8z" class="d"/><path d="M327.6 195.1c-4.5 0-8.2 2.7-8.2 6 0 3.3 3.7 6 8.2 6s8.2-2.7 8.2-6C335.8 197.8 332.1 195.1 327.6 195.1z" fill="#722C14"/><path d="M327.6 194.4c-0.7 0-1.3 0.1-1.9 0.2 -0.3 0.1-0.6 0.1-0.9 0.2 -3.5 0.9-6 3.4-6 6.3 0 2.7 2.2 5.1 5.3 6.1 0.2 0.1 0.5 0.1 0.7 0.2 0.9 0.2 1.8 0.4 2.8 0.4 4.9 0 8.8-3 8.8-6.7 0-1.2-0.4-2.2-1.1-3.2 -0.1-0.2-0.2-0.4-0.4-0.6C333.4 195.6 330.7 194.4 327.6 194.4zM335.8 201.1c0 3.3-3.7 6-8.2 6s-8.2-2.7-8.2-6c0-3.3 3.7-6 8.2-6S335.8 197.8 335.8 201.1z" class="f"/><path d="M355 324.8c-2.8 1.5-5.5 2.8-8.4 3.4 -2 0.4-4.2 0.6-6.4 0.6 -5.5 0-11.3-1.4-16.2-3.8 1.7 2.6 3.6 7.5 4.3 10.4l0.2 0.9 -0.7-0.6c-2.7-2.2-7.5-3.4-12.6-4.6 -5.4-1.3-11.5-2.8-16.1-5.8 2 8.4 11.9 18.5 16.9 21.3l1.4 0.8 -1.6-0.2c-0.5-0.1-1-0.1-1.6-0.1 -2 0-4.4 0.3-5.8 1.3 4 1.2 8.3 6.4 12.8 11.8 2.4 2.9 4.9 5.8 7.4 8.4 4.2 4.2 14.5 13.1 28.5 16.6 1.7-0.9 3.5-1.7 5.2-2.1 -4-1.6-7.4-4.6-10.6-7.5 -2.8-2.5-5.4-4.8-8.1-6.1l-1.1-0.5 1.2-0.1c1.9-0.2 5-0.3 8.3-0.3 4 0 7.6 0.2 10.2 0.4 -2.5-2.6-10.7-8.7-15.6-9.6l-1.3-0.2 1.2-0.4c4.4-1.5 15.7-2.9 22.3-2.9 0.6 0 1.1 0 1.6 0 -2.4-1.4-6-3-8.5-3.1l-1.3 0 1.2-0.6c3-1.5 11.2-3.8 15-4.1 -3-2.4-10.5-6.3-17.7-6.3 -0.7 0-1.3 0-2 0.1l-0.9 0.1 0.6-0.7c1.5-1.5 9.5-6.2 14.6-6.9 -2.2-0.9-7.5-1.7-11-1.6l-0.5 0 0.2-0.5c1.1-2.3 3.9-5.3 6.5-7.1 -0.7 0-1.5-0.1-2.3-0.2 -1.1-0.1-2.3-0.2-3.5-0.2 -0.9 0-1.7 0.1-2.4 0.2l-1.4 0.3 1.1-0.9c1.6-1.3 3.3-2.4 5.2-3.3C360.4 322.1 357.6 323.5 355 324.8z" fill="#FDE6C6"/><path d="M357.3 385.3c-14-3.5-24.3-12.4-28.5-16.6 -2.5-2.5-5-5.5-7.4-8.4 -4.5-5.4-8.8-10.5-12.8-11.8 1.4-0.9 3.9-1.3 5.8-1.3 0.6 0 1.1 0 1.6 0.1l1.6 0.2 -1.4-0.8c-5-2.8-15-12.9-16.9-21.3 4.6 3 10.7 4.5 16.1 5.8 5.1 1.2 9.8 2.4 12.6 4.6l0.7 0.6 -0.2-0.9c-0.6-2.9-2.6-7.8-4.3-10.4 4.9 2.4 10.7 3.8 16.2 3.8 2.2 0 4.3-0.2 6.4-0.6 2.9-0.6 5.5-2 8.4-3.4 2.6-1.3 5.3-2.7 8.5-3.7 1.1-0.6 2.3-1 3.5-1.5 -0.4 0.1-0.8 0.1-1.2 0.2 -0.2 0-0.4 0.1-0.7 0.2 -0.8 0.2-1.6 0.4-2.3 0.6 -0.2 0.1-0.5 0.1-0.7 0.2 -0.2 0.1-0.4 0.2-0.7 0.3 -0.2 0.1-0.4 0.2-0.7 0.3 -0.8 0.3-1.6 0.6-2.3 1 -0.2 0.1-0.4 0.2-0.6 0.3 -0.7 0.3-1.4 0.7-2.1 1.1 -0.3 0.1-0.5 0.3-0.8 0.4 -0.1 0-0.2 0.1-0.2 0.1 0 0-0.1 0-0.1 0 -0.2 0.1-0.4 0.2-0.6 0.3 -0.6 0.3-1.2 0.6-1.9 0.9 -0.2 0.1-0.4 0.2-0.6 0.3 -1.7 0.8-3.3 1.4-5 1.8 -2 0.4-4.1 0.6-6.2 0.6 -2.4 0-5-0.3-7.4-0.8 -0.3-0.1-0.5-0.1-0.8-0.2 -3.1-0.7-6.2-1.9-8.9-3.3l-1.8-1 1.4 1.5c1.6 1.7 3.8 6.9 4.8 10.4 -2.9-1.9-7.4-3-12.1-4.2 -5.6-1.4-12-2.9-16.5-6.1l-0.7-0.5 0.1 0.8c1.4 8.2 10.8 18.2 16.3 21.9 -2.4-0.1-5.6 0.4-7.2 1.8l-0.5 0.4 0.6 0.1c3.9 0.8 8.4 6.1 13.1 11.7 2.4 2.9 4.9 5.9 7.5 8.4 4.2 4.1 14.3 12.9 28.1 16.6C356.7 385.6 357 385.5 357.3 385.3z" fill="#CCA87D"/><path d="M434.5 321.4c2.5-1.1 3.6-2.4 3.6-2.4 0 0.1-0.5 1.8-3.4 3 -2.5 1.1-5.7 1.7-10.4 1.9v0c-0.8 0.1-1.6 0.1-2.4 0.1 -5.7 0-12.1-1.6-18.3-3.1 -6.1-1.5-12.5-3.1-18.2-3.2 -11.3-0.1-19.5 1.9-25.7 6.5 0.4 0 0.8 0 1.3 0 1.2 0 2.4 0.1 3.6 0.2 1.3 0.1 2.4 0.2 3.4 0.2l1.5-0.1 -1.3 0.7c-2.8 1.6-5.8 4.8-7 6.9 4-0.1 10.5 1.1 11.8 2.3l0.6 0.6 -0.8 0c-4.1 0.1-11.7 4.2-14.4 6.2 0.3 0 0.7 0 1 0 8 0 16.3 4.7 18.8 7l0.6 0.6 -0.9 0c-3 0-10.6 2-14.4 3.6 3 0.5 6.7 2.5 8.8 3.8l1.2 0.8 -1.4-0.2c-0.8-0.1-1.8-0.1-3-0.1 -6.1 0-16 1.2-20.9 2.6 5.6 1.7 13.9 8.2 15.3 10.2l0.5 0.6 -0.8-0.1c-2.6-0.3-6.6-0.5-11-0.5 -2.7 0-5.2 0.1-7.1 0.2 2.5 1.4 4.8 3.5 7.2 5.7 3.5 3.1 7.1 6.4 11.5 7.8l1.3 0.4 -1.4 0.2c-2.8 0.5-6.4 2.3-8.8 4 2.4 0 5.6 0.5 9.6 1.1 6.3 1 14.2 2.1 23.1 2.1 4.8 0 9.4-0.4 13.8-1.1 19.2-3.1 39.2-16 47.4-30.6 8.2-14.6 5.2-32.1 0.7-39.4 -2.8-4.5-8.8-7-14.1-9.2 -2.5-1.1-4.9-2.1-6.7-3.2 0.4 6.3-1.3 12.7-2.6 15.8C429.7 322.9 432.4 322.3 434.5 321.4zM431.8 315.8c-0.1 0-0.2 0-0.2 0C431.7 315.8 431.8 315.8 431.8 315.8z" class="c"/><path d="M431.6 315.8c0.1 0 0.2 0 0.2 0" fill="none"/><path d="M387.8 153.1c1.3 1 1.6 2.9 0.5 4.3 -1 1.3-2.9 1.6-4.2 0.5 -1.3-1-1.5-2.9-0.5-4.2C384.6 152.3 386.5 152.1 387.8 153.1z" class="b"/><path d="M385.4 160.2c0.4-0.6 1.2-0.7 1.8-0.2 0.6 0.4 0.7 1.2 0.2 1.8" class="b"/><path d="M338.4 157.7c1.3 1 1.6 2.9 0.5 4.3 -1 1.3-2.9 1.6-4.2 0.5 -1.3-1-1.5-2.9-0.5-4.2C335.1 156.9 337 156.7 338.4 157.7z" class="b"/><path d="M335.9 164.8c0.4-0.6 1.2-0.7 1.8-0.2 0.6 0.4 0.7 1.2 0.2 1.8" class="b"/></svg>