<svg xmlns="http://www.w3.org/2000/svg" viewBox="0 0 768 430"><style>.a{fill:#E1EFFB;}.b{fill:#B8D3EA;}.c{fill:#ABCAE5;}.d{fill:#88ACCB;}.e{fill:#6389AA;}.f{fill:#ECF5FD;}.g{fill:#FFF;}</style><path d="M461 69.6c20 4.7 12.2 15.7 30.2 26.6 18 10.9 36 4.1 40.4 40.2s-6.5 85.2-0.9 125.4c5.7 40.2-1.2 75.7-4.5 87.2 -3.2 11.6-37.2 31.4-89.5 25.9 -52.2-5.5-72.8 15-101.8 14.3 -29-0.7-50.7-30-65-44.3 -14.4-14.3-27.1-13.6-28.3-41.6 -1.1-27.9 5.5-76.3 4.3-102.9 -1.2-26.6-2.2-75.1-6.7-88.8 -4.5-13.6 1.3-40.7 33.1-38 31.8 2.7 116.9 0.7 134.6-1.4C424.9 70.3 440.1 64.7 461 69.6z" class="a"/><path d="M470.7 73.5c8.1 5.6 6.5 14.2 20.6 22.7 2.9 1.8 5.9 3.1 8.8 4.2 -16.8-4.7-47.3-10.2-69.9-11.3 -29-1.5-56.2 0.5-93 2 -36.8 1.5-50.8-5.9-37.6-6.4 12.7-0.5-0.7-8.9-19.7-10.4 36 1.9 110.6 0 127.2-1.9 -19.9 3.1 20.8 8.4 42.6 11.8C471.6 87.6 473.9 76.3 470.7 73.5L470.7 73.5zM510.6 104.1c0.2 0.1 0.4 0.1 0.6 0.2C511 104.3 510.8 104.2 510.6 104.1L510.6 104.1zM273.9 73.8c1 0.1 2.1 0.2 3.2 0.2l0 0C275.9 74 274.9 73.9 273.9 73.8z" class="b"/><path d="M445.2 97.4c-18.4-0.4-50.3 7.9-65 5.4 -14.7-2.5-18.2-5.9-31-4.4 -12.8 1.5-2.6 1 8.5 3.9 11.1 2.9 35.5 6.4 46.8 5.9 11.2-0.5 28.9 4.4 50.9 2.9C477.4 109.7 495.5 98.5 445.2 97.4z" class="b"/><path d="M525.5 115.4c2.9 4.7 5 11.3 6.2 21 3.8 30.9-3.7 71.2-2.4 107.3 -1.4-3-2.7-7.1-3.8-11.3v-23.6c2-6.6 3-26.6 3.4-38.2 0.6-15.7 3.5-26.5-1.6-26 -0.7 0-1.3 0.6-1.8 1.7V115.4zM521 110c1.6 1.5 3.1 3.2 4.5 5.4v30.8c-2.9 6.5-2 29.8-3.1 36.1 -1.3 7.4-3.3 20.1 0.6 27.5 1 1.9 1.8 1.2 2.5-1v23.6c-3.9-14.9-5.9-32.5-6.8-17.7 -1.2 20.1-5.3 19.2-7.9 5.9 -2.6-13.3-13.6-33.9-16.2-19.2 -2.6 14.7-4.9 24.1-6.9 6.4 -1.9-17.7 2.2-62.4-1-73.7 -3.2-11.3-22 0.5-67.6 6.9 -45.7 6.4-75.4-3.4-92.4 0.5 -17 3.9-10.8 32.4-12 64.3 -1.1 31.9 6 71.4 0.6 95.4 -5.4 24.1 3.7 16.6 24.7 15.1 21-1.5 72.8-6.9 95.7-5.9 22.9 1 72.5-0.9 65.9 6.7 -6.6 7.6-37 10.2-56.6 15.6 -19.6 5.4-42.9 11.3-65.8 10.3 -22.9-1-18.4 16.7-36.4 19.2 -18 2.5-14.7-14.5-32.2-10.5 -17.5 3.9-6 10.8-1.3 21.1 4.7 10.3 23 14.7 57.5 4.9 34.5-9.8 73.2-4.4 99.6-2.5l0.3 0c-9.1 0.7-19.2 0.7-30-0.4 -52.2-5.5-72.8 15-101.8 14.3 -24.4-0.6-57.8-32.6-70.9-49 -7.2-9 15.1-24 3.6-30.2 -4.7-2.6-18.6 19.2-22.9 4.4 -6.9-23.8 29.6 2.7 13.5-57.4 -3-11.4-8.2-19.4-13.2-23.4 0.8-12.5 1.3-24 0.9-33.1 -0.2-3.4-0.3-7.1-0.5-11.1 12.5-18.8 29.9-39.6 34.5-43.3 7.4-5.9 9.6-11.3-11.4-23.1 -21-11.8-29.5-17.7-20-27 9.5-9.3 18.9 3.6 38.9 17.2 20 13.6 30.9 17.6 57.5 16.8 26.6-0.8 45.5-2 36.1-10.9 -9.4-8.8 9.1 1.5 44.8 4.9 35.6 3.4 53.5-10.3 73.8-8.4C517.2 117.3 523.2 113.8 521 110z" class="c"/><path d="M310.1 312.6c-1.1 15.2 10.8 10.1 29.2 8.8 21-1.5 66.6-6.9 89.5-5.9 22.9 1 67.5-2 63.2 2.9 -4.3 4.9-32.4 6.4-52 11.8 -19.5 5.4-41.4 6.4-64.2 5.4 -1-1-2.4-1.6-5.7-1.9 -7.4-0.5-23.1-4.6-30.6-3.6 -7.4 1-24.1 8.2-24.8 13.2 -0.7 5.1 6.9-1.5 13.3-0.5 6.3 1 3.5 5.1-0.2 5.1 -2 0-4.4 1.1-6.4 3 -2.7-0.4-6-0.3-10.7 0.8 -7.9 1.8-9.9 4.2-9.3 7.2 -6.8-3.1 10.1-16.5 4.8-14.5 -5.4 2-0.3-5.1 2-11.2 2.3-6.1-11.6-15.3-11.4-22.4C297 306.3 303.6 309.2 310.1 312.6z" class="d"/><path d="M503 136.2c-5.1 0-13.1-4.4-12.4 5.4 0.7 9.8-1.7 48.6 7.5 48.1 9.2-0.5 3.5-26.5 4.8-34.9C504.2 146.5 509.2 134.7 503 136.2z" class="d"/><path d="M518.1 304.2c-11.2 0-6.2 17.2-26.8 22.1 -20.6 4.9-49.9 12.3-66.3 13.8 -16.4 1.5-21 2.9-13 7.9 8 4.9 16.4 12.8 22.4 16.7 6 3.9-14.9 2-27.1 2 -12.3 0-20 2-28.8 4.9 -8.8 2.9 18.9-1.5 27.6-1.5 8.7 0 55.5 2.9 72.5 0 16.9-2.9 33.6-10.8 39.9-18.2 6.4-7.4 2.9-10.3-5.1-15.2 -8-4.9-11.8-12.8-11.8 1 0 13.8-7 10.3-9.3 3.9 -2.3-6.4-2.6-12.3 6.7-15.7 9.3-3.4 13.8-13.8 21.2-6.4C527.5 326.8 527.8 303.7 518.1 304.2z" class="d"/><path d="M391.3 351.8c-11.2 0-29.7 16.2-51.6 16.2 -22 0-29.3 6.9-21.3 9.8 8.1 2.9 23.3 5.9 44.6-4.4 21.3-10.3 23-16.7 31.7-16.7C403.4 356.7 401.5 351.8 391.3 351.8z" class="d"/><path d="M526.8 126.9c1.4 6.1-12.3 3.1-21.3 3.6 -9 0.5-17.6 4.1-18.5-1.5 -0.9-5.6 17.7-7.1 25.1-5.6C519.4 124.9 525.9 121.8 526.8 126.9z" class="d"/><path d="M487.8 227.3c-12.7-0.5-6.5 4.1-16 4.1 -9.5 0-15.2 9.7-24.3 13.2 -9.1 3.6-7.2 8.7 0.8 8.2s14.1-8.7 13.9-3.6c-0.2 5.1-15.1 9.2-5.8 14.3 9.4 5.1 22.2 2 25.1-6.1C484.3 249.2 494.6 227.8 487.8 227.3z" class="c"/><path d="M474.2 237.5c-5.8 0-18.2 6.6-9.8 6.6S481.1 237 474.2 237.5z" class="a"/><path d="M415.2 318c-6.9 0-14.2 12.2-4.7 12.2C420.1 330.2 424.2 316.9 415.2 318z" class="e"/><path d="M376.5 318.1c11.9-1 24.3-2 35.1-2.5 -2.1 2.9-7 5.4-10.9 8.5 -6 4.6-1.3 8.2 4.5 8.7 5.8 0.5 22.3-3.1 32.4-2 -0.1 0.1-0.3 0.2-0.4 0.3 -16.5 4.1-34.6 5.3-53.5 4.9 -0.1-2.3-0.2-4.8 1-7.2C386.7 324.3 382.5 321.7 376.5 318.1L376.5 318.1zM362.5 338.5c-6.6 4.9-5.4 14.5-18.2 16.2 -5.5 0.8-9.2 0.4-12.1-0.4 0-3.3 2.6-7.3 6.4-10 6-4.1-10.7-12.7 6.8-12.2C355.7 332.5 358.7 335.7 362.5 338.5z" class="e"/><path d="M268.3 310.5c-0.2-0.1-0.4-0.3-0.6-0.4 -4.7-2.6-18.6 19.2-22.9 4.4 -3-10.3 2.1-11.2 7.6-13.7 6.5-1.8 12.9 0.1 19-4.7 6.5-5.1 18.9-9.7 21.2-0.5 2.3 9.2-13.9 19.9-21.2 15.8C270.3 310.7 269.3 310.5 268.3 310.5z" class="d"/><path d="M314.7 166.3c-0.4 11.1 0.6 25 0.1 39.6 -0.4 10.2-0.3 21.6-0.2 33.1 -9.3-32.7-14-92.2-6.1-91.7C311.5 147.5 313.4 155.7 314.7 166.3z" class="d"/><path d="M295 137.1c-5.3 0-1.6 46.9-0.2 64.7 1.5 17.8 4.6 51 4 65.7 -0.5 14.8 2.8 10.2 2.9-6.6 0.1-16.8-6.3-76.4-6.4-89.2C295.3 159 302.4 137.1 295 137.1z" class="d"/><path d="M529.3 243.7c0.2 6.2 0.7 12.2 1.5 18.1 2.9 20.9 2.5 40.5 0.9 56.1 -0.8 0.1 0.2 0.2-1.7 0.2s-3.6-17.7-9.5-19.5c-5.9-1.8-15.4 7.1-21.9 9.3 -6.5 2.2-11.3 6.2-10.6 0.9 0.6-5.3 0-24.8-5-42.1 -0.8-2.8-1.2-6.2-1.4-10.1 3.2-8.5 12.9-29 6.1-29.5 -1.8-0.1-3.2 0-4.3 0.1 1.5-13.3 3.4-25.4 2.9-30 0.3-0.3 0.6-0.5 0.9-0.7 0 4.4 0.2 8.3 0.5 11.3 1.9 17.7 4.3 8.4 6.9-6.4 2.6-14.7 13.6 5.9 16.2 19.2 2.6 13.3 6.6 14.2 7.9-5.9C519.8 195.7 522.8 230.1 529.3 243.7z" fill="#CDE1F3"/><path d="M424.8 218.5c-15.5 0.4-20.9 22.8-0.8 22.8S441.2 218.1 424.8 218.5z" class="c"/><path d="M413.9 226.8c-2.9 5.7-0.5 13 10.1 13 10.9 0 13.9-7.9 11.2-13.7 -1.7 3-5.2 5.3-11.1 5.3C418.7 231.4 415.4 229.4 413.9 226.8z" class="a"/><path d="M361.1 176.7c-18.8 0.5-25.3 26.9-0.9 26.9C384.5 203.6 381.1 176.1 361.1 176.7z" class="c"/><path d="M348 186.4c-3.5 6.7-0.6 15.3 12.3 15.3 13.2 0 16.9-9.3 13.6-16.2 -2 3.5-6.3 6.2-13.4 6.2C353.8 191.8 349.8 189.5 348 186.4z" class="a"/><path d="M458.8 268.8c-27.2-10.1-55.4-4-74.3-18.7 -18.9-14.7-49.2-20-47.9 20 1.4 40.1 72.5 32.7 95.9 34.7C478.2 308.9 490.4 280.6 458.8 268.8z" class="f"/><path d="M479.8 184.7c3.5 18.7-1.3 37.4-32.8 24 -31.4-13.4-58-6.7-57.3-28 0.8-21.4 58 8 69.4 0C470.5 172.7 484.4 174.1 479.8 184.7z" class="f"/><path d="M458.2 167.2c-14.6 4.6-46.3-11.4-64.1-6.7 -17.9 4.6-40.5 7.2-51.6 3.1 -11.1-4.1-12 21.2-6 34.6 6 13.4 7.2 25.3 0.4 34.6 -6.8 9.3-12.1 7.2-14.2-6.7 -2.2-13.9-1.1-45.9-0.6-57.8 0.4-11.9 5.5-18.6 19.4-17.5 13.9 1 33.7 0.5 52.1-2.1 11.2-1.6 37.5-5.4 54.4-7.2C481.2 137.8 474.5 162 458.2 167.2z" class="f"/><path d="M315.6 75c18.3 0.1 38.3-0.3 55.2-0.8 3.4 0.6 6.1 1.2 7.7 1.6 9.7 0 21.2 8.6 13.8 8.6 -7.4 0-32.8 2.9-58 2.9C311.6 87.3 319 82.7 315.6 75z" class="d"/><path d="M477.3 81.3c2.3 3.9 4.6 8.3 10.7 12.7 -11.4-3-30.1-6.5-22.8-6.5C470.6 87.6 474.9 85.2 477.3 81.3z" class="d"/><path d="M286.8 291.7c-5.3-0.2-14.7 7.2-4.2 7.6C293.1 299.7 291.9 292.1 286.8 291.7z" class="e"/><path d="M251.8 82.8c17.5 13.3 22.3 24.9 45.7 35.5 28.3 12.9 45.3 10.6 74.6 10.3l-7.1 2 -6.9 1.1C311 138 278.5 121.6 251.8 82.8z" class="g"/><path d="M259.3 332c19.7 20 46.1 66.1 79.7 56.9 28-7.7 45.9-19.5 78.5-15.8l6.7 1.1c-16.7 1.1-26.6 0.7-43.5 5.5 -10.8 3-38 15-46.5 16.1C304.3 399.8 272.4 354.5 259.3 332z" class="d"/><path d="M387 72.9c22.2-6.6 71.3-15.7 86.8 6.2v0l-3.6-2.1C449.3 65.1 411.3 73.7 387 72.9z" class="g"/><path d="M522.1 113.8c10.3 10.3 11.4 19.4 12.3 33.8 1.5 26.6-2.8 57-3.9 84.2 -0.6 13.3-0.1 8.2-0.9 14.6 -4-16.2-2-57.3-0.6-75.6C530.6 148.8 532.9 133.5 522.1 113.8z" class="e"/><path d="M242.8 159.9c5.9 26.4 7.4 85.9 2.3 112.1 -1.2-12.7-1.1-25.4-1.7-38.1C242.6 214.9 240.6 177.8 242.8 159.9z" class="c"/><path d="M239.6 130.6c-7.5-25-9.5-54.2 23.6-57l7.7-0.1 8.7 1.6v0l-8.7 1C235.3 80.7 239.4 99.6 239.6 130.6z" class="g"/><path d="M478.3 130.6c-28.4 1.3-46 15.8-80.6 14.6 -16.1-0.6-69-11.1-77 4.9 -2.9 5.9-3.2 91.3-3.8 108.5 -0.5 14.2-1 28.4-3.3 42.4h0c-0.3-20.9 0.3-42.3 0.2-63.4 -0.1-26.1-1.4-56.5-0.1-81.9 1-19 19.2-20.4 34.6-19.8 36.6 1.3 49.8 10.3 88.8 1.1C452.9 133.4 462 128.5 478.3 130.6z" class="d"/><path d="M492.3 230.8c-0.9 24.6-7 43.5-0.9 67.9 4.3 17.2-28.8 14.3-38.6 14.3 -10.9 0-20.8 0.1-31.8-0.6 17.4-3 32-2.9 49-4.6 6.5-0.7 17.5-0.1 15.5-9C480.8 278.7 486.7 250.6 492.3 230.8z" class="g"/><path d="M244.4 270.6c1.5 22.9-4.8 46.3 11.7 64.1l3.6 3.8 0 0C232.6 327.1 238.2 293.4 244.4 270.6z" class="g"/><path d="M531.8 264.6c5.2 21.4 8.2 78.3-7.4 94.4 -19.2 19.8-67.7 21.4-92.6 15l0 0c25.8 2.2 69.9 2 89.5-18.1C536.7 340 533 285.9 531.8 264.6z" class="g"/></svg>