<svg version="1.1" id="Layer_1" xmlns="http://www.w3.org/2000/svg" xmlns:xlink="http://www.w3.org/1999/xlink" x="0px" y="0px"
	 viewBox="0 0 768 430" enable-background="new 0 0 768 430" xml:space="preserve">
<g>
	<g>
		<path fill="#DBA965" d="M308.588,258.341c0.244,1.755-0.989,3.397-2.742,3.654l-11.993,1.76c-1.753,0.255-3.384-0.969-3.63-2.724
			L261.398,54.565c-0.244-1.752,0.984-3.393,2.739-3.654l11.997-1.755c1.749-0.257,3.384,0.968,3.63,2.721L308.588,258.341z"/>
		<path fill="#DBA965" d="M322.428,282.973c0.071,1.772-1.318,3.278-3.087,3.35l-12.105,0.504c-1.769,0.074-3.271-1.314-3.343-3.085
			l-8.258-208.394c-0.071-1.769,1.319-3.278,3.089-3.349l12.103-0.505c1.769-0.073,3.274,1.314,3.345,3.081L322.428,282.973z"/>
		<path fill="#DBA965" d="M398.366,265.409c-0.071,1.766-1.57,3.153-3.342,3.08l-12.103-0.517c-1.769-0.072-3.161-1.58-3.087-3.353
			l8.407-208.39c0.07-1.767,1.579-3.154,3.348-3.079l12.104,0.512c1.771,0.076,3.157,1.583,3.087,3.356L398.366,265.409z"/>
		<path fill="#DBA965" d="M386.618,302.196c-0.07,1.771-1.578,3.158-3.346,3.083l-12.104-0.514
			c-1.771-0.074-3.158-1.583-3.086-3.354l8.408-208.392c0.069-1.764,1.577-3.154,3.346-3.079l12.104,0.514
			c1.769,0.076,3.157,1.583,3.085,3.352L386.618,302.196z"/>
		<path fill="#DBA965" d="M367.869,265.409c-0.071,1.766-1.578,3.153-3.347,3.08l-12.104-0.517c-1.771-0.072-3.158-1.58-3.087-3.353
			l8.411-208.39c0.071-1.767,1.575-3.154,3.345-3.079l12.102,0.512c1.769,0.076,3.158,1.583,3.087,3.356L367.869,265.409z"/>
		<path fill="#DBA965" d="M442.569,288.607c0.249,1.752-0.985,3.395-2.734,3.654l-11.998,1.757
			c-1.751,0.255-3.386-0.969-3.631-2.724L395.384,84.831c-0.246-1.755,0.986-3.397,2.741-3.655l11.992-1.759
			c1.753-0.255,3.385,0.968,3.631,2.721L442.569,288.607z"/>
		<path fill="#DBA965" d="M376.959,273.554c0.245,1.755-0.988,3.402-2.739,3.654l-11.994,1.764c-1.75,0.253-3.385-0.968-3.63-2.724
			L329.771,69.783c-0.246-1.753,0.991-3.4,2.737-3.657l12-1.758c1.746-0.252,3.384,0.971,3.627,2.722L376.959,273.554z"/>
		<path fill="#DBA965" d="M370.188,288.607c0.246,1.752-0.985,3.395-2.742,3.654l-11.99,1.757c-1.755,0.255-3.387-0.969-3.63-2.724
			L323.002,84.831c-0.248-1.755,0.988-3.397,2.739-3.655l11.997-1.759c1.75-0.255,3.383,0.968,3.629,2.721L370.188,288.607z"/>
		<path fill="#DBA965" d="M418.847,276.077c-0.252,1.751-1.893,2.971-3.639,2.707l-11.992-1.807c-1.748-0.269-2.975-1.917-2.72-3.67
			L430.173,66.97c0.254-1.753,1.893-2.97,3.641-2.708l11.987,1.811c1.751,0.269,2.979,1.915,2.727,3.67L418.847,276.077z"/>
		<path fill="#DBA965" d="M432.101,281.9c-0.487,1.699-2.274,2.675-3.97,2.167l-11.638-3.492c-1.693-0.509-2.684-2.318-2.193-4.021
			L471.574,76.42c0.486-1.704,2.27-2.679,3.965-2.167l11.636,3.492c1.697,0.507,2.688,2.318,2.2,4.021L432.101,281.9z"/>
		<path fill="#DBA965" d="M412.309,289.46c-0.487,1.702-2.275,2.68-3.972,2.166l-11.635-3.494c-1.697-0.508-2.684-2.318-2.194-4.02
			l57.269-200.134c0.487-1.7,2.274-2.677,3.972-2.167l11.635,3.493c1.696,0.507,2.683,2.318,2.194,4.02L412.309,289.46z"/>
		<path fill="#DBA965" d="M331.849,264.593c-0.071,1.771-1.575,3.154-3.342,3.079l-12.103-0.51
			c-1.771-0.076-3.158-1.587-3.087-3.354l8.409-208.392c0.071-1.771,1.576-3.154,3.346-3.079l12.103,0.51
			c1.767,0.075,3.155,1.587,3.083,3.354L331.849,264.593z"/>
		<path fill="#EFC849" d="M317.709,273.535c0.247,1.751-0.988,3.396-2.739,3.655l-11.995,1.757c-1.75,0.258-3.384-0.966-3.627-2.721
			L270.521,69.76c-0.244-1.753,0.991-3.395,2.739-3.654l11.997-1.758c1.749-0.255,3.385,0.969,3.63,2.724L317.709,273.535z"/>
		<path fill="#EFC849" d="M331.55,301.423c0.073,1.771-1.319,3.281-3.087,3.352l-12.106,0.501c-1.768,0.075-3.269-1.312-3.34-3.083
			l-8.26-208.394c-0.071-1.771,1.321-3.278,3.09-3.347l12.105-0.507c1.766-0.074,3.271,1.314,3.342,3.08L331.55,301.423z"/>
		<path fill="#EFC849" d="M407.491,283.861c-0.071,1.765-1.574,3.151-3.347,3.079l-12.101-0.517
			c-1.769-0.074-3.159-1.581-3.088-3.352l8.406-208.391c0.07-1.767,1.581-3.154,3.349-3.079l12.104,0.514
			c1.771,0.074,3.158,1.583,3.087,3.351L407.491,283.861z"/>
		<path fill="#EFC849" d="M373.013,283.861c-0.071,1.765-1.574,3.151-3.345,3.079l-12.102-0.517
			c-1.769-0.074-3.157-1.581-3.085-3.352l8.41-208.391c0.071-1.767,1.574-3.154,3.343-3.079l12.105,0.514
			c1.768,0.074,3.156,1.583,3.085,3.351L373.013,283.861z"/>
		<path fill="#EFC849" d="M451.696,307.06c0.245,1.751-0.991,3.397-2.739,3.654l-11.996,1.758c-1.748,0.252-3.387-0.971-3.631-2.722
			l-28.824-206.464c-0.244-1.757,0.988-3.402,2.742-3.657l11.993-1.762c1.751-0.253,3.383,0.97,3.628,2.723L451.696,307.06z"/>
		<path fill="#EFC849" d="M401.983,309.924c0.246,1.757-0.991,3.397-2.736,3.657l-12,1.757c-1.748,0.254-3.382-0.967-3.63-2.723
			l-28.82-206.464c-0.246-1.753,0.987-3.402,2.738-3.654l11.994-1.757c1.754-0.259,3.387,0.966,3.633,2.721L401.983,309.924z"/>
		<path fill="#EFC849" d="M426.38,296.974c-0.253,1.752-1.893,2.968-3.641,2.703l-11.99-1.808c-1.75-0.263-2.977-1.913-2.727-3.667
			l29.686-206.341c0.25-1.749,1.889-2.97,3.637-2.702l11.99,1.812c1.75,0.261,2.977,1.913,2.725,3.666L426.38,296.974z"/>
		<path fill="#EFC849" d="M427.706,300.354c-0.486,1.7-2.27,2.674-3.968,2.168l-11.64-3.496c-1.689-0.508-2.68-2.318-2.193-4.021
			L467.18,94.871c0.487-1.707,2.274-2.68,3.972-2.168l11.633,3.497c1.693,0.505,2.684,2.314,2.199,4.021L427.706,300.354z"/>
		<path fill="#EFC849" d="M453.148,274.411c-0.487,1.7-2.271,2.675-3.968,2.168l-11.639-3.495c-1.691-0.51-2.683-2.318-2.197-4.021
			L492.62,68.93c0.49-1.702,2.274-2.68,3.969-2.168l11.634,3.495c1.697,0.507,2.688,2.316,2.201,4.021L453.148,274.411z"/>
		<path fill="#EFC849" d="M341.772,283.861c-0.076,1.765-1.581,3.151-3.349,3.079l-12.103-0.517
			c-1.771-0.074-3.159-1.581-3.085-3.352l8.411-208.391c0.071-1.767,1.573-3.154,3.344-3.079l12.104,0.514
			c1.766,0.074,3.155,1.583,3.083,3.351L341.772,283.861z"/>
	</g>
	<g>
		<g>
			<path fill="#DB4257" d="M502.337,145.715h-33.926c0.006,0.048,0.006,0.095,0.006,0.141c0,6.848,0,6.848-0.45,17.551
				c-33.652,11.471-130.402,11.471-165.966,0.576c-0.379-3.828-0.543-11.68-0.543-18.127c0-0.046,0.005-0.093,0.005-0.141h-34.989
				l28.238,153.274h179.397L502.337,145.715z"/>
			<path fill="#DB4257" d="M294.694,300.979l13.541,73.51h15.806c-0.022-2.675-0.117-1.434-0.117-4.204
				c24.086-5.927,96.291-5.159,120.142,0.377c0.361,4.084,0.28,2.167,0.213,3.827h15.542l13.593-73.795l-0.115,0.285H294.694z"/>
		</g>
		<g>
			<polygon fill="#FBEFC5" points="294.712,298.989 294.891,299.982 295.075,300.979 473.678,300.979 473.795,300.694 
				473.921,299.982 474.109,298.989 			"/>
		</g>
	</g>
</g>
</svg>
