<svg version="1.1" xmlns="http://www.w3.org/2000/svg" viewBox="0 0 768 430" xml:space="preserve"><style>.s0{fill:#409D8B;stroke-width:0.96;stroke:#DDE4D0;}</style><g transform="matrix(2.7141871,0,0,2.7141871,-556.59727,-891.43866)"><path d="M330.23 382.56l-4.74-1.09 -1.09 2.01 2.01 39.05 5.11-0.18L330.23 382.56z" class="s0"/><path d="M366.88 392.17l-4.34-3.46 -1.93 1.29 -5.07 24.67 5.48 1.46L366.88 392.17 366.88 392.17z" class="s0"/><path d="M347.58 388.85l5.69-3.43 -2.53 34.23 -4.99-6.58L347.58 388.85 347.58 388.85z" class="s0"/><path d="M348.01 378.32l-4.5-1.85 -1.41 1.8 -4.37 38.86 5.07 0.65L348.01 378.32 348.01 378.32z" class="s0"/><path d="M373.78 355.39l-5.43 0.7 8.27 33.07 3.59-2.12L373.78 355.39z" class="s0"/><path d="M368.35 354.82l-5.72 1.76 9.02 23.22 4.44 0.16L368.35 354.82z" class="s0"/><path d="M339.46 375.08l-1.09-18.59 6.2-2.27v22.14L339.46 375.08z" class="s0"/><path d="M362.73 361.3l6.19-2.41 -8.33 33.76 -3.79-7.34L362.73 361.3z" class="s0"/><path d="M334.33 355.93l-5.37-1.72 -1.57 3.29 3.3 29.95 6.66-0.22L334.33 355.93 334.33 355.93z" class="s0"/><path d="M372.74 386.03l4.81-24.28 4.26 7.08 -4.41 19.68L372.74 386.03 372.74 386.03z" class="s0"/><path d="M387.05 364.83l-4.29-3.66 -2.72 2.43 -8.36 28.93 6.22 2.38L387.05 364.83 387.05 364.83z" class="s0"/><path d="M379.57 359.59l-5.59-3.59 1.57 34.75 5.17-6.44L379.57 359.59z" class="s0"/><path d="M377.96 366.06l-5.94 0.85 -2.51 19.32 5.94 1.95L377.96 366.06z" class="s0"/><path d="M388.16 370.5l-5.94-0.84 -7.65 17.88 4.76 4.58 8.44-20.56L388.16 370.5z" class="s0"/><path d="M311.01 367.4l-5.63-0.22 -1.7 3.59 11.04 28.01 7.42-1.98L311.01 367.4z" class="s0"/><path d="M322.14 358.89l-4.36 1.26 8.63 31.77 3.52-7.48 -6.81-23.77L322.14 358.89z" class="s0"/><path d="M316.43 376.72l-5.48-0.91 -1.05 2.07 7.62 24.01 5.49-1.4L316.43 376.72 316.43 376.72z" class="s0"/><path d="M313.65 360.83l-4.85 0.43 -0.42 2.65 13.99 36.98 4.8-1.75 -13.52-37.9V360.83z" class="s0"/><path d="M328.96 354.22l-6.83 1.17 1.34 5.27 6.78 38.98 5.05-0.81L328.96 354.22z" class="s0"/><path d="M312.86 364.89l4.58-3.29 2.52 2.65 5.98 29.53 -6.4 1.85L312.86 364.89 312.86 364.89z" class="s0"/><path d="M339.28 368.64l4.08 2.51 2.31 16.41 -4.18 3.09L339.28 368.64z" class="s0"/><path d="M337.02 359.38l-5.21 1.69 14.15 30.98 3.14-2.75L337.02 359.38z" class="s0"/><path d="M338.87 393.8l-6.46-23.88 -3.75 7.82 5.75 18.86L338.87 393.8z" class="s0"/><path d="M356.57 355.41l-5.44-1.9 0.41 32.92 5.38-6.27L356.57 355.41 356.57 355.41z" class="s0"/><path d="M364.07 358.27l-4.53-1.78 -1.38 1.83 -3.73 39.39 5.08 0.57L364.07 358.27 364.07 358.27z" class="s0"/><path d="M345.65 360.85l5.48-0.7 1.53 1.97 -1.98 30.07 -6.66 0.08L345.65 360.85z" class="s0"/><path d="M377.72 364.23l3.55 3.22 -0.68 16.56 -4.68 2.26L377.72 364.23 377.72 364.23z" class="s0"/><path d="M372.76 388.89l-2.03-24.67 -5.04 6.54 2.17 20.06L372.76 388.89z" class="s0"/><path d="M332.83 367.63l5.29-4.01 1.1 34.77 -5.66-6.02L332.83 367.63z" class="s0"/><path d="M343.23 375.03l4.93-3.02 1.64 2.11 0.18 25.18 -5.66 0.37L343.23 375.03z" class="s0"/><path d="M332.13 367.89l-4.65 4.01 13.06 21.16 4.39-0.66L332.13 367.89 332.13 367.89z" class="s0"/><path d="M354.55 370.55l4.93-2.74 2.19 2.92 2.56 30.03 -6.57 1.1L354.55 370.55 354.55 370.55z" class="s0"/><path d="M342 361.57l4.75-1.09 1.1 2.01 -2.01 39.52 -5.11-0.18L342 361.57z" class="s0"/><path d="M369.69 367.09l5.66-4.2 -0.36 32.76 -7.12 3.29L369.69 367.09z" class="s0"/><path d="M381.83 362.43l-4.74-1.09 -1.09 2.01 2.01 39.52 5.11-0.18L381.83 362.43z" class="s0"/><path d="M333.75 362.13l4.45-1.98 2.19-1.55 5.47 39.18 -5.78 4.11L333.75 362.13 333.75 362.13z" class="s0"/><path d="M365.2 372.77l5.66 2.01 -1.28 18.98 -6.2 0.73L365.2 372.77z" class="s0"/><path d="M352.15 377.27l5.99 0.36 4.05 18.59 -5.76 2.43L352.15 377.27z" class="s0"/><path d="M319.15 374.85l-3.1 3.65 2.74 15.88 4.93 1.64L319.15 374.85 319.15 374.85z" class="s0"/><path d="M325.71 371.46l5.66 2.84 -6.02 23.72 -4.38 0.73L325.71 371.46z" class="s0"/><path d="M320.05 367.63h5.48l-4.01 33.86 -3.83-1.64L320.05 367.63 320.05 367.63z" class="s0"/><path d="M350.72 380.18l-1.09 24.27 5.84-5.84 0.37-19.71L350.72 380.18z" class="s0"/><path d="M364.29 395.1l0.01-24.76 -5.57 6.56 0.52 19.7L364.29 395.1 364.29 395.1z" class="s0"/><path d="M338.11 376.66l-5.56 2.25 2.1 18.91 6.23 0.46L338.11 376.66z" class="s0"/><path d="M374.33 398.43l-3.06-21.11 -4.01 3.44 2.17 19.59L374.33 398.43 374.33 398.43z" class="s0"/></g><path d="M327.46 117.78l15.36 7.7 -16.34 64.39 -11.89 1.98L327.46 117.78 327.46 117.78z" style="fill:#409D8B;opacity:0.3;stroke-width:0.96;stroke:#DDE4D0"/><path d="M261.47 138.09l27.8-2.8c77.27 65.96 131.87 35.26 186.39-0.7L503 136.34 468.82 312c-48.51-6.4-97.24-12.43-155.85-1.05L261.47 138.09z" fill="#DDE4D0"/></svg>