<svg xmlns="http://www.w3.org/2000/svg" viewBox="0 0 768 430"><style>.a{fill:#211B16;}.b{fill:#EFD7A7;}.c{fill:#38120D;}.d{fill:#E88243;}.e{fill:#A5482C;}.f{fill:#FDFFE9;}.g{fill:#B18061;}.h{fill:#FAE17C;}.i{fill:#FFF;}.j{fill:#1D1D1B;}.k{fill:#071222;}.l{fill:#A2CCE4;}.m{fill:#618EA2;}.n{fill:#FFB888;}</style><path d="M538.7 312.5c-10.9 2.9-22.7 2.9-33.9 2.8 -12.2-0.2-25.2-0.6-36.9-4.4 5.9 18.7 11.2 37.7 17.4 56.3 1.1 3.4 2.2 6.9 3.7 10.2 1.2 2.6 1.9 0.7 2.7-1.3 3.5-8.5 5.8-17.6 8.2-26.4 3.9 8.5 7.9 17 12.3 25.3 0.7 1.2 4 8.9 6 8.5 1.6-0.3 3.1-5.5 3.6-6.6 4.9-11.5 8.8-23.5 12.2-35.4C536.4 332.8 540.6 321.5 538.7 312.5z" fill="#A02116"/><path d="M518.1 384c-3.9-1.6-6.5-8.9-8.3-12.4 -3.5-6.7-6.7-13.6-9.9-20.5 -0.7 2.5-7.3 29.1-10.1 28.2 -1.5-0.5-2.5-4.9-2.9-6.1 -2.8-7.8-5.2-15.8-7.6-23.8 -2.2-7.2-4.4-14.3-6.5-21.5 -0.5-1.6-6.3-16.4-5.3-17.5 0.9-0.9 11.5 2.3 13.2 2.5 6.9 1 13.8 1.4 20.8 1.6 7.4 0.2 14.8 0.1 22.2-0.5 2.8-0.2 5.6-0.5 8.4-0.9 1.2-0.2 5.9-1.8 6.9-1.2 2 1.2-0.9 13.4-1.2 15.1 -1.5 7.7-3.7 15.3-6 22.9 -2.2 7.3-4.7 14.6-7.4 21.7C523.7 373.5 520.7 384 518.1 384zM500.3 349.5c4.6 10.1 9.2 20.4 15 29.9 0.6 0.9 2.3 4.7 3.4 2.9 1.6-2.6 2.7-5.6 3.8-8.4 4.7-11.7 8.6-23.7 11.9-35.8 2.1-7.5 5.6-17.1 4.3-25 -11.3 2.8-23.6 2.9-35.2 2.7 -11.7-0.2-23.9-0.9-35.2-4.2 3.9 12.9 7.9 25.7 11.9 38.6 1.9 6 3.8 12 5.9 18 1.1 3.2 2 7.3 3.9 10.2 3.4-3.7 4.6-11.9 5.9-16.6 0.9-2.9 3.8-8.9 3.1-11.7 -0.2-0.8-2.4-9.6-1.3-9.6C497.9 340.2 499.9 348.6 500.3 349.5 507.6 365.6 500.2 349.3 500.3 349.5z" class="a"/><path d="M497.8 343.2c-2.3 0-6-1.2-8.1-2.1 -1.9-0.8-1.3-5.6-1.4-7.2 -0.2-1.8-2.7-19.8-1.8-20.1 1.1-0.4 2.3 14 2.4 15.1 0.3 3.5 0.6 7 0.9 10.5 0.2 1.8 6 2.2 7.6 2.6 0-2.6-1.3-27.6-0.7-27.5C497.8 314.6 498.5 343.2 497.8 343.2z" class="a"/><path d="M496.7 318.3c-1.4 1-12.3 8.2-11.9 9.5 0.4 1.4 13.7 2.3 14 1.6 -2.1 0.7-4.3 1.2-6.4 2 -0.7 0.2-6.1 3.7-5.4 3.8 1.9 0.4 4.8-2.7 6.7-3.4 1.3-0.4 5.9-0.9 6.4-2.2 -0.3 0.7-11.7-3.5-12.7-2.7 1.3-1.1 10-9.2 10.9-8.8C497.8 318 497.2 318.1 496.7 318.3z" class="a"/><path d="M490.1 362.7c-1.4 0.7-7.9-18.7-8.4-20.1 -3.2-9.1-6.1-20.5-12.5-28.1 4 12.2 7.5 24.6 11.4 36.9 1.9 5.9 3.8 11.8 5.8 17.7 1 2.9 1.8 6.6 3.6 9.2 2.4-2.7 3.3-8.1 4.4-11.4 1.8-5.6 5.6-13.3 4.2-19.1C496.8 351.8 494.3 360.6 490.1 362.7 487.6 364 492.4 361.6 490.1 362.7z" fill="#87170A"/><path d="M459.8 382.9c-0.5 8.9 28 2.4 29.8-4 -3.5 3.5-10.7 4-15.3 4.5C470.4 383.9 463.3 385.2 459.8 382.9 459.8 383.2 463.3 385.2 459.8 382.9z" class="b"/><path d="M466.1 387.7c-2.4 0-6.3-0.4-6.8-3.4 -0.5-3.2 3.5-1.1 5.5-1 5.1 0.2 10.3-0.3 15.2-1.3 1.2-0.2 9.4-3.8 9.8-3.6 2.1 1.2-7.7 5.7-8.3 5.9C476.7 386.3 471.3 387.7 466.1 387.7zM460.2 383.7c0.6 7.7 21.7-0.2 25.1-2C478.5 384.1 467.3 386.2 460.2 383.7z" class="c"/><path d="M489.6 378.9c-3.3-2.8-9.8-1.7-13.8-2.7 1.1 2.1 1.4 4.5 1.4 6.8C481 382.5 486.6 381.8 489.6 378.9 487 376.8 487.7 380.8 489.6 378.9z" class="d"/><path d="M477.2 383.6c-0.1 0-2.1-7.3-1.8-7.7 0.7-0.9 10.7 1.1 12.1 1.4C495.1 379.5 479.7 383.6 477.2 383.6zM476.7 377c0.7 1.8 0.9 3.7 1 5.5 3.6-0.6 8.1-1.2 11.1-3.5C485.4 377 480.4 377.7 476.7 377 477.3 378.5 478.7 377.4 476.7 377z" class="c"/><path d="M488.8 379c-3.4-2-7.7 3.2-11.4 0.7 0.1 0.9 0.2 1.8 0.3 2.8C481.3 381.9 485.7 381.2 488.8 379 488.3 378.7 486.9 380.4 488.8 379z" class="e"/><path d="M480.7 379.3c-0.1 0 2.5 1 2.6 0.8 -0.5 1.2-3.3-3.5-2-2.9 1.3 0.6-4 1.9-3.5 0.7 0.5-1.2 3.4 3.5 2 2.9C480.2 380.4 480.5 379.9 480.7 379.3 482.1 379.9 480.3 380.2 480.7 379.3z" class="c"/><path d="M477.2 383.1c0-19.5-22.3-8.2-17.4-0.1C461.8 384.2 469.8 384.2 477.2 383.1z" class="f"/><path d="M466.7 384.4c-4.5 0-10.8-0.8-7.3-7 2.1-3.6 6.8-6.1 11-5.6 3 0.4 5.2 2.4 6.3 5.2 0.3 0.8 1.9 6.4 0.5 6.6C473.7 384.1 470.2 384.4 466.7 384.4zM460.1 382.5c2.8 1.6 7.4 0.9 10.4 0.7 2.3-0.1 6.3 0.6 6-2.3 -0.2-1.8-0.6-3.6-1.6-5.2C470.7 369 456.1 375.5 460.1 382.5 461.1 383.1 459.1 380.8 460.1 382.5z" class="c"/><path d="M466.7 383.4c2.6 0 5.3-0.2 7.9-0.5 2 0.4 2.7-0.3 1.9-2.1 -0.2-1.6-0.5-3.1-1.3-4.5 0.7 2.2-2.7 4.1-4.2 4.7 -3.7 1.7-8.1 1.6-11.4-0.7C459.4 384 464.1 383.4 466.7 383.4z" class="b"/><path d="M528.8 394.5c4.9 11.9-20.3 13.6-19.3 1.1 -4.3 6.7 5.1 11 10.4 11C526 406.6 534.9 401.2 528.8 394.5 529.2 395.3 530 395.8 528.8 394.5z" class="b"/><path d="M519.9 407.1c-3.6 0-7.5-1.1-9.9-3.8 -0.9-1-3.3-9.2-0.3-8.2 0.7 0.2 0.9 3.7 1.4 4.4 1.8 2.8 5.2 4.2 8.5 4.2 2.7 0 5.8-0.6 7.7-2.5 1.5-1.5 0.9-6.9 1.3-7.2 2.5-1.5 2.6 7.1 1.7 8.5C528.1 406 523.6 407.1 519.9 407.1zM509.1 397.7c-2.5 11.6 24.8 11.1 20.8-0.5C529.9 407.6 511.3 406.8 509.1 397.7 509.1 398 510.1 401.7 509.1 397.7z" class="c"/><path d="M519.5 387.7c2.1 0 4 0.9 5.6 2.1 0-1.2-5.8-6.4-7-6.8 -1.3 0.1-6.1 6.7-6.4 8C513.7 389 516.6 387.7 519.5 387.7z" class="d"/><path d="M511.7 391.6c-1.7 0 2.7-5 2.9-5.3 2.1-2.5 2.9-4.7 5.6-2.2 1.6 1.5 3 3 4.5 4.6 0.1 0.1 1.4 2.6 0.1 1.6 -2-1.5-4.4-2.3-7-1.9C515.9 388.7 513.1 391.6 511.7 391.6zM518.2 383.7c-1.5 1.6-2.9 3.3-4.3 5 2.6-1.5 5.7-2 8.5-0.9C521.1 386.4 519.8 384.8 518.2 383.7 516.9 385.2 518.8 384.2 518.2 383.7z" class="c"/><path d="M522.4 387.8c-1.3-1.4-2.7-2.9-4.2-4 0.4 1 1 2.7-0.1 3.6C519.6 387.1 521 387.2 522.4 387.8 520.2 385.5 521.4 387.4 522.4 387.8z" class="e"/><path d="M518.9 386.6c0.7 0.6 1.5 1 2.3 1.4 -0.8 1.1-2.3-3.6-1.5-3 0.8 0.6-4.1 0.7-3.4-0.4 0.8-1.1 2.3 3.6 1.5 3C518.3 387.4 518.7 387 518.9 386.6 520.1 387.4 518.4 387.2 518.9 386.6z" class="c"/><path d="M529.4 397.2c0 9.9-18 9.1-19.8 0.2C507.2 385.5 529.4 384.7 529.4 397.2z" class="f"/><path d="M519.5 404.8c-13.3 0-13.2-17.6 0-17.6 4.9 0 10.4 4.9 10.4 10C529.9 402.6 524.1 404.8 519.5 404.8zM519.5 388.2c-11.9 0-11.9 15.5 0 15.5 4.1 0 9.4-1.7 9.4-6.6C528.9 392.6 523.9 388.2 519.5 388.2z" class="c"/><path d="M513.5 402c4.1 2.7 12.7 2.7 14.9-2.7 2.3-5.6-4.7-11.7-10-11.1C522.5 392.6 520.8 403.4 513.5 402 515.2 403.1 522.4 403.8 513.5 402z" class="b"/><path d="M586.1 325c-3.7-4.8-8.2-8.9-11.9-13.7 -1.2-1.5-3.9-4.3-3.7-6.5 0.3-2.8 1.3-5.6 1.7-8.4 1.9-11 1.8-23.2-3-33.5 -5-10.5-13.4-19.3-20.5-28.4 -1.5 3.1-3 6.1-4.7 9 1.4 0 3.9 3.4 4.7 4.3 3.5 3.8 6.5 8.1 9 12.6 6.1 11 7.6 22.8 6.3 35.1 -0.8 8-4.2 12.1-8.9 18.5 -0.9 1.2-6 6.2-5.8 7.7 0.5 4.3 9.5-1.3 10.8-2 0.1 6.4 0.9 13.4 0 19.7 -0.2 1.5 3.6-0.1 3.9-0.6 0.9-1.1 0.6-3.8 0.7-5.2 0.3-3.6 0.6-7.2 1-10.9 0.6 2.7 1.1 5.5 1.7 8.2 0.3 1.5 0.5 8 1.9 9 4.3 3 4.1-5.2 3.9-6.8 -0.3-3.2-0.6-6.5-0.8-9.7 0.9 2.2 4.5 14.6 7 14.3 6-0.6-1.1-11.9-2.2-14.7 1.9 1.5 3.7 3 5.6 4.5 0.6 0.4 2.1 1.9 3 1.5C587.2 328.5 586.9 326 586.1 325 585.2 323.9 587.4 326.7 586.1 325z" class="g"/><path d="M570.1 340.7c-2.8 0-3.7-12.2-4.1-14.4 -0.3 3 0.6 11.9-2.4 13.6 -4.1 2.3-3.8-1.4-3.8-4.1 0-5.1 0-10.1-0.1-15.2 -2.6 1.4-5.6 3.7-8.7 2.9 -4.5-1.2 0.7-5.8 2.2-7.7 4.3-5.7 9.1-10.8 10-18 1.6-11.8 0.8-23.7-4.5-34.4 -2.4-5-5.6-9.6-9.1-13.8 -1.4-1.7-5.1-4-6-5.8 -0.5-1 3.2-6.5 3.8-7.6 2.1-4.3 3.5 0.2 5.6 2.8 4.4 5.5 9 11 12.9 16.9 7.8 11.9 9.3 25.5 7.2 39.4 -0.4 2.6-2.7 8-1.7 10.5 1.4 3.6 4.6 6.8 7.1 9.7 2.7 3.1 5.7 6 8.3 9.3 1.1 1.4 0.8 6.3-1.9 4.8 -2.3-1.2-4.3-3.1-6.3-4.7 1.2 2.8 4 6.8 4.1 9.8 1.1 2.6-3.8 5.2-5.1 2.2 -1.4-3.4-2.9-6.8-4.3-10.2C573.5 330.4 576.5 340.7 570.1 340.7zM565.7 322.3c1.4 0 3.4 14.9 3.7 16.7 0.3 2.3 3.7-1.1 3.5-3.2 -0.3-3.6-0.6-7.2-0.9-10.7 -0.2-2.3 0.6-2.4 1.5-0.3 1.5 3.5 3 7.1 4.5 10.6 1.1 2.6 4.5 1.6 3.5-0.8 -1.3-3-2.6-6.1-3.8-9.1 -3.5-8.3 9 7.5 8.6 1.2 -0.1-2.3-3.5-4.8-4.9-6.3 -2.2-2.5-4.4-5-6.5-7.5 -2.9-3.6-5.4-6.3-4.3-10.9 2.5-11 3.6-23.1 0.1-34 -4-12.5-14-22.5-21.9-32.6 -0.9 1.9-4.8 7.2-3.2 8.6 1.7 1.4 3.3 3.1 4.7 4.8 5.2 6.1 9.5 13.2 12.1 20.8 2.5 7.4 2.9 15.4 2.3 23.2 -0.3 4.3-0.4 9.1-3 12.8 -3.1 4.5-6.3 9-9.7 13.4 -0.5 0.6-2.8 2.6-1.8 3.2 2.5 1.5 5.1-0.4 7.2-1.6 4.5-2.4 3.2 1.3 3.2 5.2 0 4.5 0.5 9.3 0 13.7 0.2-0.6 3.1 0.1 3.3-1.9 0.2-1.9 0.3-3.8 0.5-5.6C564.5 331.2 564.6 322.3 565.7 322.3z" class="a"/><path d="M474.4 247.9c-3.4-0.1-6.2-4.2-8.9-1.7 -2.6 2.4-5.3 4.6-8.2 6.7 -4.6 3.3-9.7 6.2-15.2 7.6 -7.5 1.9-15 0-20.6-5.3 -9.8-9.2-13.9-24.1-16-37 -1.2 0.8-8.9 4.9-8.7 5.9 0.3 1.4 0.7 2.7 1 4.1 0.9 3.4 2 6.8 3.2 10.2 3 8 7 16 13 22.3 6.4 6.7 14.9 10.6 24.3 9.9 6.1-0.4 12-2.5 17.4-5.3 3.3-1.7 6.4-3.6 9.5-5.7 2-1.4 3.9-2.8 5.8-4.3C473.3 253.4 473.6 250.6 474.4 247.9z" class="g"/><path d="M436.1 271c-20 0-31.1-19.4-36.6-36.1 -0.4-1.3-4.1-11.1-2.9-11.8 2.4-1.4 4.7-2.8 7.1-4.4 2.5-1.6 2.3-1.2 2.8 1.2 1.4 7.4 3.4 14.7 6.6 21.6 3.3 7.1 8.1 14.4 15.5 17.6 8.9 3.8 18.6 0 26.2-5 2.6-1.7 5-3.5 7.4-5.5 1.6-1.3 3.1-2.7 4.6-4.1 0.6-0.6 3.4 1.4 4 1.7 0.5 0.2 4.5 1.1 4.2 1.9 -1.4 4.4-1.7 6.1-5.4 8.9C460 264.2 448.4 271 436.1 271zM397.4 223.9c3.6 15.2 9.8 33.2 23.8 41.9 7.4 4.6 16.2 5.2 24.5 2.9 5.3-1.5 10.3-4 15-6.8 2.8-1.7 5.5-3.6 8.1-5.5 3.2-2.5 3.8-4.1 5-7.9 -1.9-0.4-3.7-1.3-5.4-2.1 -2.4-1.2-5.4 3-7.5 4.6 -4.4 3.5-9.1 6.6-14.4 8.7 -7.8 3.1-16.3 3-23.1-2.3 -11.3-8.6-15.8-24.9-18.2-38.3C402.7 220.7 400.1 222.3 397.4 223.9 401.5 241.3 399.5 222.7 397.4 223.9z" class="a"/><path d="M485.8 218.4c-3.9-0.7-4.2-1.7-6.8 1 -2.5 2.6-5 5.3-7.5 7.9 -1.5 1.6-11.5 10.1-10.5 12.5 1 2.5 4.9 4.4 7.1 5.6 1.6 0.9 3.2 1.7 5 2.2 2.5 0.7 2-1.7 2.7-3.7C478.4 235.6 480.8 225.7 485.8 218.4z" class="h"/><path d="M474.4 248.4c-2.6 0-16.1-6.2-13.9-9.7 3.3-5.1 8.5-9.6 12.7-14 2.5-2.6 5.6-8.5 9.5-7.5 4.4 1.1 3.5 1 1.8 4.5C483 225 476 248.4 474.4 248.4zM481.2 217.9c-5 5.2-10 10.5-14.8 15.8 -0.7 0.7-5.5 4.9-4.8 6.2 1.3 2.5 5 4.3 7.4 5.5 1.4 0.7 2.8 1.4 4.4 1.8 1.5 0.4 2.9-6.2 3.4-7.7 2.3-6.9 4.4-14.5 8.3-20.7C483.7 218.5 482.4 218.2 481.2 217.9z" class="c"/><path d="M522.2 214.9c-0.3-0.3-8 2.6-8.9 2.9 -3.7 0.9-7.5 1.5-11.3 1.7 -4.1 0.2-8.1 0.1-12.1-0.4 -2.4-0.3-3.6-1.5-4.8 0.6 -3.1 5.6-5.1 12-7.2 18.1 -6.1 17.8-11.5 35.9-15.7 54.2 -0.9 3.9-3.3 10.4-2 14.4 1.4 4.3 11.9 5.7 15.4 6.4 18.2 3.4 38.1 3.7 56.5 1 3.1-0.5 12-1.1 12.9-5.1 2.1-8.9-1.4-20.7-3-29.4 -1.4-7.4-2.9-14.7-4.7-22.1 -1-4.1-1.3-6.7-4.4-9.5 -2.3-2.1-4.4-4.4-6.2-7C522.5 234.7 516.5 221.8 522.2 214.9 522.2 214.9 517.3 220.9 522.2 214.9z" fill="#30A878"/><path d="M507.8 315.8c-9.4 0-18.8-0.5-28.2-1.9 -6-0.9-14.7-1.8-19.2-6.4 -2.3-2.3-0.3-8.2 0.2-10.8 1.3-6.7 3-13.3 4.8-19.9 4.1-15.2 8.6-30.4 14-45.2 1.2-3.4 2.5-6.7 4-10 1.8-3.9 2.1-3.6 6.5-3.1 5.4 0.7 10.9 0.7 16.3 0 1.7-0.2 16.1-4.3 16.4-3.9 0 0-1.9 6.1-1.9 6.9 -0.1 2.8 0.4 5.6 1.2 8.3 1.8 6 5.2 11.6 9.6 16.1 2.8 2.8 4.2 3.3 5.2 7.2 0.9 3.4 1.7 6.9 2.5 10.3 1.7 7.3 3.1 14.7 4.4 22.1 0.9 5.4 1.7 10.9 2 16.4 0.1 2.4 0.9 6.9-1.2 8.7 -3.5 2.9-9.6 3.4-13.9 4C523 315.5 515.3 315.8 507.8 315.8zM485.6 218.9c-3.2 4.8-4.9 11-6.8 16.3 -3.1 9-5.9 18.2-8.6 27.4 -2.6 9-5.1 18.1-7.2 27.2 -1.1 4.8-3.2 10.8-2.6 15.8 0.3 2.5 5 3.9 6.9 4.6 6.7 2.2 13.8 3.1 20.8 3.7 14.9 1.3 30.4 1.5 45.2-0.9 3.2-0.5 8.5-1 10.8-3.6 1.7-1.9 0.5-7.5 0.3-9.8 -1.4-15.2-4.7-30.4-8.4-45.2 -0.6-2.4-0.6-3.8-2.5-5.4 -1.8-1.5-3.4-3.1-4.9-4.9 -2.4-2.8-4.3-5.9-5.9-9.2 -2.5-5.5-4.7-13.3-1.8-19C509.6 220.2 497.4 221.1 485.6 218.9 478.9 228.7 489.5 219.6 485.6 218.9z" class="a"/><path d="M522.8 235.1c-12 11.4-25.3 21.5-38.8 31 -5.6 4-11.3 7.9-17.2 11.5 -2.5 1.6-3.1 9.2-3.8 12.2 -0.9 3.9-1.8 7.7-2.3 11.7 12.5-5.1 23.8-13.8 34.6-21.8 13.1-9.7 25.9-19.9 38.1-30.7C528.9 245.2 525.3 240.4 522.8 235.1 505.9 251.2 525 239.9 522.8 235.1z" fill="#FBB90C"/><path d="M522.2 214.9c-6.6 8.1 1.7 23.1 7.1 29.4 2.2 2.5 7.3 9.5 10.5 5.7 3.2-3.8 5.4-8.5 7.6-12.9 1.8-3.6 3.8-7.4 4.9-11.3 0.7-2.2-3.4-3.6-5-4.3 -4.6-2.3-9.3-4.2-14.2-5.6C530.9 215 524.2 212.4 522.2 214.9 517 221.2 525.5 210.9 522.2 214.9z" class="h"/><path d="M537.9 252c-9.9-4.2-17.2-17.5-18.1-27.8 -0.5-5.2 0.5-11.3 6.8-10.5 4.8 0.6 9.5 2.3 13.9 4.1 3.7 1.5 7.6 3 11 5.3 2.5 1.7 1.3 3.4 0.3 5.8 -1.9 4.5-4.1 9-6.4 13.3C544.2 244.3 540.9 252 537.9 252zM525 214.6c-5.8 0-4.4 10-3.5 13.5 1.2 5 3.5 9.7 6.6 13.8 1.5 2 8.4 10.9 11 8.2 2.8-2.9 4.6-6.8 6.5-10.4 2-3.9 3.9-7.9 5.6-11.9 1-2.4 1.5-3.1-0.9-4.5C543.1 219.2 533.2 214.6 525 214.6z" class="c"/><path d="M522.6 215.2c-6.9 8.4 2.7 24.2 8.6 30.3 2 2 4.2 3.9 6.6 5.4 1.2-0.1 2.7-2.7 3.3-3.6 3.5-5.3 6.3-11.2 8.9-17 -5.8 5.2-12.7 3.6-18.1-1.4 -3.1-2.9-9-9.4-8.6-14.2C523.1 214.9 522.8 215.1 522.6 215.2 520.8 217.3 522.7 215 522.6 215.2z" fill="#F5B83D"/><path d="M440.6 126c7-0.4 13.2-8.3 10.5-14.9 6.4 7.2 20.2-0.7 19.5-9.3 10.3 9.3 22.3 8.6 30.4-3.4 -1.6 4.3 3 9.3 6.3 11.3 7.4 4.5 15.6 0.7 21.1-4.9 -3.5 4-2.5 9.4 1.5 12.6 4.6 3.7 11.1 3.8 16.2 1 -7.6 8.2 2.9 17.9 10.3 20.1 -9.8 2.4-10.4 16.5-1.3 20 1.1-0.1 4.7-5.3 6.1-6.2 1.7-1.1 3.8-2 5.9-1.4 4.1 1.1 5.3 6.2 5.5 9.9 0.2 5-1.5 10.2-4.9 13.9 -1.9 2.1-4.3 3.6-7 4.6 -2 0.7-2.8 0.2-3.7 2.2 -0.9 1.9-1.8 3.8-2.8 5.6 -6.4 11.3-16.3 20.5-28 26.2 -23.5 11.4-52.3 7.1-71.5-10.5 -18.7-17.1-25.4-44-17.7-68.1C437.8 131.6 439 128.7 440.6 126 443.3 125.8 435.5 134.9 440.6 126z" class="g"/><path d="M433.1 155.2c0-8.2 1.5-16.9 4.6-24.5 0.4-0.9 1.8-5.1 2.8-5.2 1.8-0.1 3.6-1.1 5.1-2 2.2-1.4 4.2-3.2 5.2-5.6 0.4-1.1-0.2-7 0-7.1 0.2-0.2 4.6 2 5.4 2.1 3.2 0.4 6.6-0.3 9.3-2 2.6-1.6 4.4-4.2 4.6-7.3 0.2-3.3 1-1.8 2.9-0.3 3.9 3.1 8.7 5.4 13.7 4.9 2.9-0.3 5.6-1.6 7.9-3.4 0.9-0.7 6.2-7 6.6-6.8 0.2 0.1 0.7 5 1.1 5.7 1.5 3 4.2 5.4 7.3 6.6 6.1 2.4 12.3-0.3 16.9-4.4 4-3.6 1 0.6 0.4 2.5 -0.9 3.2 0.6 6.4 3 8.5 2.4 2 5.6 3.1 8.7 3.1 1 0 7.6-2 7.8-1.8 0.3 0.4-1.7 4.4-1.8 5 -0.5 2.6-0.2 5.3 1.1 7.6 1.1 2 2.8 3.5 4.7 4.7 0.9 0.5 6.5 2.5 6.5 3.1 0 0.4-4.4 2.9-5 3.6 -1.6 2-2.8 4.5-3 7.1 -0.1 2.3 0.6 4.5 2.2 6.2 1.1 1.1 2.4 1.9 3.8 2.5 1.1-1.5 2.4-3 3.8-4.2 10.8-10 16.5 5.2 13.3 14.6 -1.5 4.3-4.3 8-8.3 10.2 -2.3 1.3-5.3 1.1-6.4 3.5 -1.3 2.9-2.9 5.8-4.6 8.5 -6.2 9.7-15.1 17.7-25.4 22.8C484.8 234.5 433.1 202.6 433.1 155.2 433.1 153.4 433.1 191 433.1 155.2zM555.5 158.8c-2 2.8-7.4-6.3-7.6-8.1 -0.5-4.8 2.5-10.2 6.9-12.2 -8.1-2.8-14.4-10.1-10.1-18.9 -7.5 3.2-22.5-1.6-18.6-12.2 -7.9 6.4-25.1 6.4-25.9-7.1 -7.9 10.5-19.3 11.1-29.1 2.7 -0.2 8.7-11.8 13.9-19 9.6 1.3 5.2-2.1 9.6-6.4 12 -1.3 0.7-2.6 1.4-4 1.7 -1.9 0.5-3.1 5.2-3.8 7 -2.9 8.4-4.2 17.7-3.5 26.5 1.3 18.5 10.9 35.7 25.8 46.7 32.4 24 80.7 11.2 96.9-25.8 -0.1 0.2-4.7-0.4-4.8-0.2 0.3-0.8 10-2.5 11-3.1 4.7-2.7 7.7-7.6 8.6-12.9 0.7-4.2 0.2-11.8-4.9-13.2C562.2 150.1 557.8 155.6 555.5 158.8 555.4 158.9 560.1 152.5 555.5 158.8z" class="a"/><path d="M562.9 161.3c-0.9 0.4-2.7 1.3-3.1 2.2 0 0.1 9.9 2.1 4.8 5.3 -2.1 1.3-5.3 1.7-7.1 3.1 1.5-1.2 10.7-5.4 4.7-7.1 -1.1-0.3-3.4-0.3-4.2-1.1 -1.1-1.2 5.7-3.9 6.3-4.2C564 159.6 563.6 161 562.9 161.3 562.5 161.4 563.8 160.9 562.9 161.3z" class="a"/><path d="M426 123.2c-2.4-8.5-2.7-19.3 6-24.3 1.5-0.9 3.2-1.6 4.9-1.8 0 0 0.6-6.4 0.8-7.2 0.6-2.4 1.7-4.6 3.4-6.3 2.3-2.3 5.4-3.5 8.6-4 2.3-0.3 4.8 0.6 5.7-1.7 3.6-9.2 12.9-12.9 22.2-11.7 2.2 0.3 5.5 0.7 7.1 2.4 4.3-4.6 10.2-7.2 16.5-7.4 4.8-0.1 9.8 1 14.1 3 1.7 0.8 3.3 1.7 4.7 2.9 1.9 1.5 1.3 2.8 3.9 2.1 9.2-2.6 21.2-0.6 26.5 8.2 1 1.6 0.2 2.1 2.4 2.3 2.7 0.3 5.3 0.9 7.8 2 4.1 1.8 7.5 5 9.5 8.9 1.7 3.4 4.5 11.2 2.4 15.1 6.2 0.7 10.9 4.4 10 11 -0.3 2.6-2.2 9.9-5.4 10.7 12.8 5.5 7.3 29.8-4.6 33.3 -0.1-3.6-1.4-8.8-5.5-9.9 -2.1-0.5-4.2 0.3-5.9 1.4 -1.4 0.9-5 6.1-6.1 6.2 -9.1-3.6-8.5-17.6 1.3-20 -7.5-2.2-18-11.9-10.3-20.1 -5 2.8-11.6 2.7-16.2-1 -4-3.2-5-8.6-1.5-12.6 -5.3 5.3-12.9 9.1-20.1 5.4 -3.6-1.8-9-7.2-7.3-11.8 -8.1 12-20.1 12.8-30.4 3.4 0.7 8.7-13.1 16.5-19.5 9.3 2.8 6.7-2.7 12.5-8.8 14.5 -6.5 2.2-7.6 18.2-8.4 24.4 -6.3-1.3-10-7.5-11.4-13.3C421.5 132.7 421 125 426 123.2 419.5 100.2 418.3 125.9 426 123.2z" fill="#4E2C23"/><path d="M572.2 161.1c-0.8-0.6-1-5.4-1.8-6.7 -1-1.8-2.6-3.3-4.8-3.3 -3.7 0-6.9 3.4-9 6 -3.2 3.9-8-1.9-8.7-5.6 -1-5 2.2-11 6.8-13.1 -8.1-2.8-14.4-10.1-10.1-18.9 -7.5 3.2-22.5-1.6-18.6-12.2 -7.9 6.4-25.1 6.4-25.9-7.1 -7.9 10.5-19.4 11.1-29.1 2.7 -0.2 8.7-11.8 13.9-19 9.6 1.6 6.5-4 11.6-9.6 13.5 -5.1 1.7-6.6 13.7-7.4 18.6 -0.2 1 0 4.6-0.7 5.4 -0.2 1.7-5.3-1.6-5.9-2.1 -5.2-4.1-7.8-11.8-7-18.3 0.3-2.6 1.4-5.5 3.9-6.7 -0.9-3.4-1.6-7-1.4-10.6 0.3-6.3 3.4-12.1 9.4-14.7 3.3-1.4 2.8-0.7 3.3-4.6 0.3-3 1.2-6.1 3.1-8.5 3.7-4.8 9.3-5.4 14.8-5.7 3.7-11.3 15.9-15.5 26.8-12.4 1.2 0.3 2.4 0.7 3.4 1.5 1.1-1.2 2.4-2.2 3.7-3.1 2.6-1.8 5.6-3 8.8-3.6 7.2-1.4 15.3 0.3 21.5 4.2 2.5 1.6 3 3.9 5.8 3.1 3.6-1 7.3-1.3 11-0.8 5.6 0.8 11.2 3.6 14.7 8.1 1.4 1.8 1 3.1 3.4 3.4 3.1 0.4 6.1 1.2 8.8 2.7 6.1 3.3 9.7 9.5 10.8 16.3 0.2 1.4 0.3 2.8 0.3 4.2 0 2.4-1 2.6 1.6 3.2 2.9 0.7 5.8 2.2 7.2 5 2.6 5 0 13.1-4 16.7 7.1 3.6 7.7 12.3 5.8 19.2 -1.1 3.9-2.9 7.7-5.6 10.7C577.6 158.1 573.7 162.2 572.2 161.1zM522.4 70.1c-0.2 0.1-3.9-3.8-4.5-4.1 -3.6-2.2-7.8-3.6-12.1-4.1 -4.7-0.6-9.5-0.1-13.8 2 -2.1 1-6.3 5.8-8.1 4.7 -5.1-3.1-13.4-2.6-18.7-0.3 -3.2 1.4-5.9 3.7-7.7 6.7 -2.3 3.7-1.2 4.7-5.6 5 -8.9 0.6-14.1 6.5-14.3 15.3 -0.1 3.3-1.7 2.3-4.4 3.6 -3.4 1.7-6 4.6-7.2 8.2 -1.4 4-1.1 8.3-0.4 12.4 0.4 2.2 1.6 3.5-0.4 4.8 -1.4 0.9-2.1 2.5-2.5 4.1 -1.9 7.7 2.4 19 10.6 21.1 0.9-7.6 2.4-15.2 5.9-22 1.4-2.8 5.1-2.9 7.6-4.8 1.7-1.2 3.2-2.8 3.9-4.8 0.4-1.1-0.2-7 0-7.1 0.2-0.2 4.6 2 5.4 2.1 3.2 0.4 6.6-0.3 9.3-2 2.1-1.3 3.8-3.3 4.4-5.8 0.6-2.4-0.4-4.8 2.3-2.5 10.1 8.5 21.1 6.3 28.4-4.4 0.8-1.1 1 3.7 1.1 4.1 1.1 3.1 3.6 5.8 6.4 7.3 5.7 3.1 12 1.3 16.9-2.5 1.8-1.4 5.1-4.8 2.6-0.4 -1.7 3-1 6.6 1.3 9.1 2.1 2.3 5.1 3.7 8.1 4 1.3 0.2 9.4-1.7 9.4-1.7 0.3 0.4-1.7 4.4-1.8 5 -0.5 2.6-0.2 5.3 1.1 7.6 1.1 2 2.8 3.5 4.7 4.7 0.9 0.5 6.5 2.5 6.5 3.1 0 0.5-3.4 2.1-4 2.5 -1.9 1.7-3.3 4.1-3.8 6.7 -1 4.6 1.6 8.4 5.8 10.2 2.5-3.3 6.3-7.7 10.8-7.7 5 0 7 5.8 7.3 9.9 10.1-4 16.1-25.1 5.3-31.5 -2.6-1.5-1.2-1.3 0.1-3.2 2-2.7 3.4-6.2 3.7-9.5 0.2-2.9-0.7-5.7-3.1-7.5 -1-0.7-7.2-2.5-6.9-3 2.2-4.6-1.2-13.1-3.8-16.8 -3.9-5.6-10.4-8.1-17-8.5 -0.4 0-1.3-2.6-1.6-3 -1.3-2-3.2-3.6-5.1-4.9C538 67.7 529.7 67.6 522.4 70.1 522.2 70.2 525.7 69 522.4 70.1z" class="a"/><path d="M442.6 142.6c3.9 0 3.9 20 0 20C438.6 162.6 438.6 142.6 442.6 142.6z" class="a"/><path d="M441.3 145.1c1.1 0 1.1 4.9 0 4.9C440.2 150 440.2 145.1 441.3 145.1z" class="i"/><path d="M501.7 138.4c4.6 0 4.6 23.2 0 23.2C497.2 161.6 497.2 138.4 501.7 138.4z" class="a"/><path d="M500.9 141.3c1.3 0 1.3 5.7 0 5.7C499.6 147 499.6 141.3 500.9 141.3z" class="i"/><path d="M521.9 136.4c-2.8-5.2-8.9-7.7-14.5-8.4 -2.9-0.4-5.8-0.4-8.7 0.1 -0.7 0.1-7 2.4-6.9 2.4 -1.2-1.6 4.4-4.6 5.3-5 3.3-1.3 7-1.5 10.4-1 3.6 0.5 7.2 1.9 10.1 4.3C520.2 131.2 521 134.7 521.9 136.4 516.6 126.4 522.1 136.7 521.9 136.4z" class="a"/><path d="M461.7 175.4c-2.1-0.8 1.9-3.6 2.7-3.7 1.8-0.3 7.1 0.4 6.6 3.3 -0.1 1-3.6-0.7-4-0.7C465.5 173.9 462.4 175.6 461.7 175.4 461.5 175.3 461.8 175.4 461.7 175.4zM462.9 173.4c0.8-0.8 5-0.1 6.7 0.5C468.2 172.5 464.5 171.8 462.9 173.4 462.9 173.5 463.5 172.9 462.9 173.4z" class="j"/><path d="M475.9 192.3c4.5 0 9.1-0.8 13.3-2.5 1.4-0.6 14.2-9.4 11.4-10.9 0.1 0-6.2 6.9-7.2 7.5 -2.7 1.8-5.9 3.1-9 3.8 -3.1 0.7-6.3 1.1-9.5 1 -1 0-9.7-2.5-9.7-2.5C463 190.2 475.2 192.3 475.9 192.3z" class="j"/><path d="M436.5 136c0.9-3.1 9.5-3.5 11.8-2.6 -4.2 1.3-8.7 3.3-12.3 5.9C435.3 138.5 436.3 136.8 436.5 136 436.8 135 436.2 137.1 436.5 136z" class="a"/><path d="M244.6 311.2c-1.9 9.4 2.6 21.2 5.1 30.1 3.4 11.8 7.2 23.7 12.1 35 0.5 1.1 1.9 5.7 3.3 6 2 0.4 5.3-7.3 6-8.5 4.5-8.2 8.5-16.7 12.3-25.3 2.3 8.6 4.6 17.4 7.9 25.7 0.6 1.4 1.6 5 2.8 2.3 1.5-3.1 2.5-6.4 3.6-9.7 6.4-18.9 11.5-38.2 17.7-57.1 -11.3 3.6-23.7 4.1-35.4 4.3C268.5 314.2 256 314.2 244.6 311.2z" fill="#5F7AA3"/><path d="M265.3 382.7c-1.9 0-4-6.5-4.5-7.9 -2.1-5-3.9-10.1-5.6-15.2 -4-11.7-7.7-23.7-9.9-35.9 -0.7-3.9-1.5-8.2-0.9-12.1 0.3-1.9 4-0.1 5.6 0.1 4.5 0.7 9 1.1 13.6 1.4 10.1 0.6 20.3 0.5 30.4-0.4 4-0.3 8.1-0.8 12.1-1.5 1.3-0.2 9.2-2.8 9.9-2 1 1-4.8 15.8-5.3 17.4 -2.2 7.2-4.3 14.3-6.5 21.5 -2.4 8-4.8 16-7.6 23.8 -0.4 1.2-1.4 5.7-2.9 6.1 -2.8 0.9-9.5-25.7-10.2-28.2 -3 6.5-6 12.9-9.2 19.2C273 371.4 268.6 382.7 265.3 382.7zM244.7 311.7c-1.5 9.1 2.8 20.2 5.3 28.7 3.7 12.6 7.6 25.3 13.1 37.3 0.6 1.3 1.6 5 3.1 3.1 2.8-3.4 4.7-7.7 6.7-11.6 3.3-6.3 6.3-12.7 9.3-19.2 0.5-1.1 2.9-9.5 3.3-9.5 0.8 0.1-1.1 6.1-1.2 6.7 -0.8 3 1.6 7.8 2.5 10.7 1.5 5.3 2.8 14.8 6.7 19 1.8-2.6 2.6-6.3 3.5-9.2 2.1-6.3 4.1-12.7 6.1-19 4-12.8 8-25.7 12-38.5 -10.6 3.1-22 3.8-33 4.1C269.8 314.8 256.7 314.8 244.7 311.7 243.8 317.4 251.4 313.4 244.7 311.7z" class="k"/><path d="M285.6 341.9c-1.1 0 0.8-25.1 0.7-28.2 -0.1-1.4 1 0.9 1 1.8 -0.1 2.7-0.2 5.4-0.4 8 -0.3 5.7-0.8 11.4-0.8 17.2 2.3-0.6 5.5-0.6 7.5-2 0.4-3 0.5-6.1 0.8-9.1 0.1-1.2 1.4-17.5 2.6-17.1 1 0.3-1.6 18.3-1.8 20.1 -0.1 1.3 0.4 6.1-1 7C292.3 340.8 287.8 341.9 285.6 341.9z" class="k"/><path d="M285 317.5c2.3 1.6 4.6 3.3 6.8 5.1 1.5 1.2 4.2 4.8 5.7 3.3 -2.8 0.6-12.7 0.2-14.3 2.8 -0.2 0.3 5.6 1.9 6.2 2.1 1.4 0.5 4.8 3.5 6 3.3 3.1-0.5-2-3.2-2.8-3.6 -1.9-0.8-7-3.2-8.3-1.6 2.5-0.7 5.1-1 7.7-1.3 0.5-0.1 7.1-1.2 6.6-1.7 -2.7-2.3-5.5-4.5-8.3-6.7 -1.1-0.9-2.3-1.7-3.4-2.5C286.4 316.5 284.6 317.3 285 317.5z" class="k"/><path d="M254.4 393.2c-4.9 11.9 20.3 13.6 19.3 1.1 4.3 6.7-5.1 11-10.4 11C257.3 405.4 248.3 399.9 254.4 393.2 254.1 394.1 253.2 394.5 254.4 393.2z" class="b"/><path d="M252 397.8c0-0.7 1.2-6 2.7-5.1 0.3 0.2-0.2 5.1 0.6 6.3 1.8 2.7 5.4 3.4 8.5 3.4 2.8 0 5.8-1 7.7-3.2 0.8-0.9 1.5-5.2 2.2-5.5 2.5-0.8 1.2 6.2 0.5 7.2 -1.6 2.5-4.5 3.9-7.3 4.5C261.4 406.7 252 404.9 252 397.8zM263.8 403.5c-4.6 0-10.4-2.1-10.4-7.6 -4 11.6 23.3 12.1 20.8 0.5C273 401 268.2 403.5 263.8 403.5z" class="c"/><path d="M263.8 386.4c-2 0-4 0.9-5.6 2.1 0-1.2 5.8-6.4 7-6.8 1.3 0.1 6.1 6.7 6.4 8C269.6 387.7 266.7 386.4 263.8 386.4z" class="l"/><path d="M271.2 390.2c-3.4-3.6-8.8-4.2-12.8-1.2 -1.3 1 0-1.4 0.1-1.6 1.7-1.8 3.3-3.6 5.2-5.2 2.1-1.9 3.5 1.1 4.9 2.8 1.1 1.3 2.4 2.7 3.2 4.2C272.1 389.7 271.9 390.9 271.2 390.2 269.3 388.1 271.3 390.3 271.2 390.2zM260.8 386.5c2.8-1 5.9-0.5 8.5 0.9 -1.4-1.7-2.8-3.4-4.3-5C263.5 383.5 262.2 385.1 260.8 386.5 261.8 386.1 263 384.2 260.8 386.5z" class="k"/><path d="M260.8 386.5c1.3-1.4 2.7-2.9 4.2-4 -0.4 1-1 2.7 0.1 3.6C263.6 385.8 262.2 386 260.8 386.5 263 384.2 261.8 386.1 260.8 386.5z" class="m"/><path d="M264.3 385.3c-0.7 0.6-1.5 1-2.3 1.4 0.8 1.1 2.3-3.6 1.5-3 -0.8 0.6 4.1 0.7 3.4-0.4 -0.8-1.1-2.3 3.6-1.5 3C265 386.1 264.6 385.8 264.3 385.3 263.1 386.2 264.8 385.9 264.3 385.3z" class="c"/><path d="M253.9 395.9c0 9.9 18 9.1 19.8 0.2C276 384.2 253.9 383.4 253.9 395.9 253.9 400.5 253.9 391.3 253.9 395.9z" class="f"/><path d="M253.4 395.9c0-11.9 21-13.3 21-1.2C274.3 405.6 253.4 406.9 253.4 395.9 253.4 391.1 253.4 400.4 253.4 395.9zM254.4 395.9c0 9.3 17.1 8.4 18.8 0.1C275.4 384.9 254.4 384.1 254.4 395.9z" class="c"/><path d="M269.7 400.8c-4.1 2.7-12.7 2.7-14.9-2.7 -2.4-5.7 4.7-11.7 10-11.1C260.8 391.3 262.4 402.2 269.7 400.8 268.1 401.8 260.8 402.5 269.7 400.8z" class="b"/><path d="M293.8 377.7c3.3-2.8 9.8-1.7 13.8-2.7 -1.1 2.1-1.4 4.5-1.4 6.8C302.3 381.2 296.7 380.6 293.8 377.7 296.4 375.5 295.7 379.6 293.8 377.7z" class="l"/><path d="M306.1 382.3c-3.1-0.5-19.5-4.8-8.8-6.5 1.3-0.2 10-1.9 10.6-1.1C308.3 375.1 306.2 382.3 306.1 382.3 302.5 381.7 306.2 382.3 306.1 382.3zM300.9 376.4c-2.1 0.2-4.5 0.2-6.3 1.3 3 2.3 7.5 2.9 11.1 3.5 0-1.9 0.3-3.8 1-5.5C304.8 376.1 302.9 376.2 300.9 376.4 298.3 376.6 302.7 376.3 300.9 376.4z" class="k"/><path d="M294.6 377.7c3.4-2.1 7.7 3.2 11.4 0.7 -0.1 0.9-0.2 1.8-0.3 2.8C302.1 380.6 297.6 380 294.6 377.7 295.1 377.4 296.5 379.1 294.6 377.7z" class="m"/><path d="M302.7 378c0.1 0-2.5 1-2.6 0.8 0.5 1.2 3.3-3.5 2-2.9 -1.3 0.6 4 1.9 3.5 0.7 -0.5-1.2-3.3 3.5-2 2.9C303.2 379.2 302.8 378.6 302.7 378 301.3 378.6 303.1 378.9 302.7 378z" class="c"/><path d="M323.6 381.6c0.6 8.9-28 2.4-29.8-4 3.5 3.5 10.7 4 15.3 4.5C313 382.6 320 383.9 323.6 381.6 323.6 381.9 320.1 383.9 323.6 381.6z" class="b"/><path d="M293.3 377.8c-0.3-0.9 4.9 1.7 5.7 1.9 3.6 1.1 7.3 1.7 11 2.1 3.8 0.4 7.8 0.7 11.6 0 1.7-0.3 2.9-1.2 2.5 1.3C322.8 391 295.2 384.1 293.3 377.8 293.2 377.6 294.3 381.3 293.3 377.8zM316.7 383.1c-6.2 0-12.8-0.7-18.7-2.7 3.4 1.7 24.5 9.7 25.1 2C321.1 383.1 318.8 383.1 316.7 383.1z" class="c"/><path d="M306.2 381.8c0-19.5 22.3-8.2 17.4-0.1C321.6 382.9 313.6 382.9 306.2 381.8z" class="f"/><path d="M306.1 382.3c-2.7-0.4 2-9.5 3.5-10.5 2.6-1.8 6-1.5 8.8-0.4 2.5 1 10.1 7.7 5.5 10.7C319.6 384.8 310.8 383 306.1 382.3 305.9 382.3 309.7 382.8 306.1 382.3zM323.1 376.6c-3.5-6.1-13.4-7.3-15.7 0.2 -0.8 2.5-1.7 4.4 1.4 4.8 2.6 0.3 5.3 0.5 7.9 0.5C320.3 382.1 326.1 382 323.1 376.6 321.4 373.7 323.7 377.7 323.1 376.6z" class="c"/><path d="M316.7 382.1c-2.6 0-5.3-0.2-7.9-0.5 -2 0.4-2.7-0.3-1.9-2.1 0.2-1.6 0.6-3.1 1.3-4.5 -0.7 2.2 2.7 4.1 4.2 4.7 3.7 1.7 8.1 1.6 11.5-0.7C324 382.7 319.3 382.1 316.7 382.1z" class="b"/><path d="M255.4 227.7c-12.6 4.8-24.8 9.4-33.2 20.5 -6 7.9-8 16.6-12.1 25.3 -1 2.2-5.5 3.3-7.5 4.1 -4.1 1.6-8.3 2.9-12.6 4.2 -1.4 0.4-8 2.2-5.4 5 1.5 1.5 8.5-0.6 10.4-0.9 -2.4 1.8-14.3 7.9-9.4 11.5 2 1.4 11.4-7.3 13.3-8.8 -1.9 2.6-3.8 5.3-5.7 7.9 -1 1.3-5.3 8.2-0.1 7.8 1.7-0.1 5.2-5.6 6.2-6.8 1.9-2.1 3.7-4.2 5.6-6.2 -1.4 3-2.8 5.9-4.2 8.9 -0.7 1.5-1.5 3.1-2.2 4.6 -0.8 1.8 2.3 4.8 2.8 3.7 2.5-5.9 6.7-11.5 10-16.9 1.7 2.7 3.3 7.4 7.1 7.6 2.3 0.1 0.7-5 0.5-6.3 -0.6-5.6-2.7-13.2-0.8-18.6 2.9-8.3 7.6-16.7 13.6-23.2 4.1-4.4 9.1-7.8 14.3-10.6 2.5-1.3 5.6-1.8 6.5-4.6C253.5 233.2 254.4 230.4 255.4 227.7 242.7 232.5 254.3 230.8 255.4 227.7z" class="n"/><path d="M200.9 309.4c-7.1 0 1.1-12.8 2.1-15 -2.5 2.8-5 5.5-7.5 8.3 -2 2.3-5.5 2.9-5.6-1.6 -0.1-3.1 4.9-7.7 6.6-10.1 -2.7 2-5.5 4.1-8.2 6.1 -3 2.2-6.7-1.9-4-4 1.7-2.5 6.1-4.5 8.6-6.4 -2.2 0.3-11.7 2.7-8.7-2.6 1.5-2.7 7.2-3.3 9.9-4.2 6.2-2 14.2-3.1 16.4-9.9 3.2-9.7 7.9-19 14.8-26.6 3.6-3.9 8.1-6.9 12.8-9.2 2.1-1 16-8.3 17.4-6.9 0.7 0.7-1.8 6.1-2.1 7 -1.1 3.2-1 3.6-4 5 -6 2.8-11.8 6.4-16.5 11.1 -6.6 6.6-11.8 15.6-14.7 24.5 -1.9 5.7 0.5 14.3 1.2 20.1 0.3 2.2 1.4 5.6-2.3 4.6 -3.2-0.8-4.5-4.4-6.1-7 -2.2 3.6-4.3 7.2-6.5 10.8C204.4 304.4 202.3 309.4 200.9 309.4zM205 290.9c0.9 0-4 10-4.4 11 -0.5 1-2.1 3.1-1.7 4.3 1.1 3.8 2.4 1.5 3.4-0.2 2.8-4.8 5.7-9.6 8.6-14.4 1.3-2.1 5.9 10.4 8.5 6.9 0.5-0.7-0.7-4.8-0.8-5.6 -0.4-3.3-0.7-6.7-0.9-10.1 -0.4-5.4-0.2-8.3 2-13.3 3.4-7.6 7.8-15.4 14.1-21 3.8-3.4 8-6.3 12.5-8.7 1.8-0.9 3.6-1.8 5.4-2.6 0.9-2.9 1.9-5.9 3-8.8 -10.7 4-21.9 8.1-29.6 17 -6.6 7.6-10.8 16.7-13.8 26.3 -1.3 4-5.3 5.1-9 6.4 -3.1 1.2-6.2 2.2-9.4 3.2 -1.9 0.6-5.8 1-7.2 2.6 -4.7 5.5 15.2-1.8 7.8 3.7 -2.5 1.9-5 3.7-7.5 5.6 -2.3 1.7-0.3 4.6 2.2 2.8 2.9-2.1 5.7-4.2 8.6-6.4 1.7-1.3 3.7-2.1 1.8 0.5 -1.9 2.7-3.9 5.4-5.8 8.1 -0.3 0.5-1.3 1.4-1.4 1.9 -0.8 1.2 1.5 4.3 2.1 3.5 1.7-2.4 3.9-4.5 5.9-6.7C200.1 296.1 203.5 290.9 205 290.9z" class="c"/><path d="M280.1 219.6c-4.1 0-8.1-0.4-12.1-1.1 -2.7-0.5-7.1-3.1-8.5-0.5 -2 4-3.6 8.3-5.1 12.5 -3.7 10.4-6.6 21.1-9.1 31.8 -2.4 10.1-4.5 20.2-6 30.5 -0.5 3.3-3 12.7-0.4 15.7 3.3 3.8 11.8 4 16.3 4.5 9.6 1.1 19.2 1.2 28.8 0.9 9.2-0.3 18.6-1 27.5-3.1 2.9-0.7 12-2.4 11.8-6.7 -0.3-5.6-2.8-11.4-4.6-16.6 -3.2-9.4-6.7-18.7-10.2-28 -3.5-9.2-7-18.5-10.4-27.8 -1.2-3.3-2.4-6.6-3.4-9.9 -0.4-1.2-0.8-2.4-1.1-3.6C289.2 219.1 284.7 219.6 280.1 219.6z" class="f"/><path d="M275.6 314.5c-7.1 0-14.1-0.3-21.1-1.1 -4.8-0.5-11.6-0.9-15.5-4.1 -3.2-2.7-0.9-11.9-0.4-15.2 2.8-20.9 7.9-41.9 14.7-61.8 1.4-4.1 2.9-8.2 4.7-12.1 0.3-0.6 1.6-4.5 2.5-4.2 4.4 1.4 8.9 2.3 13.4 2.8 2.3 0.2 19.7-0.6 19.7-0.6 1.6 6 4.1 11.8 6.4 17.6 5.9 15.2 11.8 30.4 17.2 45.8 2.3 6.5 7.5 16.3 6.6 23.4 -0.6 4.5-11.9 6.2-15.1 6.8C297.8 313.9 286.6 314.5 275.6 314.5zM260.6 217.1c-9.5 18.1-13.9 39.7-18 59.5 -1.7 8.4-3.4 17-3.9 25.5 -0.4 7.2 2.9 8.1 9.9 9.4 15.1 2.8 31.2 2.5 46.5 1.1 4.1-0.4 28.3-1.7 27.7-8.9 -0.8-10-6.1-20.6-9.5-29.9 -5.3-14.5-10.9-28.8-16.2-43.4 -1-2.8-2-5.7-3-8.6 -0.3-1.1-0.7-2.1-1-3.2 -2 0.4-4.1 0.7-6.2 1C278.2 220.7 269.1 219.8 260.6 217.1 248.7 239.6 271.1 220.4 260.6 217.1z" class="c"/><path d="M414 202.3c0.2-2.5 0.6-5 0.4-7.5 -0.2-2.7-4.3-3-4.9-5.7 -0.4-1.8 0-6.7-1.7-7.8 -2.1-1.4-4.8-2.1-7.2-2.9 -1.1-0.4-0.5-0.4-1.2 1.1 -1 2.2-2.9 2-1.6 4.1 1.9 2.9 1.5 4.2-1.7 5.1 -2.2 0.6-4.6 0.9-6.9 1.1 -2.4 0.2-5.1 2.7-7.7 3.1 1.1 1 1.6 3.6 2.6 4.1 2.3 1 4.9 2 6.7 3.9 2.1 2.1 1.3 4.7-0.5 6.7 -2.9 3.2-3.6 0-6-1.9 0.5 1.7 1.2 3.8 0.3 5.5 -0.7 1.4-3.4 3.9-4.9 1.9 -0.2 2.3-3.3 3-4.2 4.6 -0.6 1.2-1.9 2.2-3.1 2.7 -1.8 0.6-1.4-1.2-1.7-2.3 -4.9 11.9-16.4 22.9-26.9 29.9 -15.8 10.5-34.3 11.3-49-1.7 -2.1 3.2-4.4 6.2-6.7 9.3 14.2 11 31.5 13.9 48.3 7.1 13.8-5.6 25.2-15.7 35.6-26.1 2.9-2.9 5.7-6.2 9-8.6 4.1-3 10.8-1.2 15.3-3.6 5.8-3.1 11.4-7 16.7-10.9 1.6-1.1 3.5-2.3 4.7-3.9C418.6 207.8 413.9 204.1 414 202.3 414.1 200.9 413.9 203.7 414 202.3z" class="n"/><path d="M317.5 266.7c-6.8 0-13.5-1.7-19.6-4.7 -3.6-1.8-7.1-4-10.3-6.4 -0.8-0.6 3.8-6 4.4-6.7 2.9-4 2.2-3.7 6-0.8 2.9 2.2 6.1 4 9.4 5.3 6 2.3 12.5 2.7 18.8 1.4 11.6-2.4 21.7-9.9 29.9-18.2 3.4-3.5 6.5-7.2 9.3-11.1 0.6-0.9 4.3-8.2 5.2-8.2 2.1 0.1-0.7 4.2 2.7 1.7 1.6-1.1 3-3 4.5-4.3 0.3-0.3 1.3-2.3 1.7-2.4 1.2-0.3 1.1 1.3 2.7 0.3 3.3-1.9 0.4-6.7 1.7-7.6 1.3-0.9 2.6 3.3 3.7 3.3 2.2 0.1 4.4-3.9 3.7-5.8 -0.9-2.4-4.1-3.8-6.3-4.7 -2.5-1.1-1.9-2.5-3.7-4.4 -0.8-0.8 5.9-4.1 7.6-4.3 2.7-0.2 7-0.3 9.3-2 1.6-1.2-2.1-3.9-1.9-5 0.2-1.1 2.5-2.7 3-4.2 0.3-0.9 3.2 0.5 3.7 0.7 5.3 2.1 5.7 2.9 6.6 8.5 0.5 3.4 2.4 3.9 4.7 6 1 0.9 0.6 3.5 0.5 4.7 -0.2 3.4-0.5 4.8 1.5 7.7 1.1 1.6 2.6 3.1 0.9 4.7 -5.8 5.3-13.1 9.8-19.9 13.7 -6.2 3.5-13.7 1.5-19 6.6C361.3 246.8 342.9 266.7 317.5 266.7zM288.6 255.1c18.2 13.8 39.5 12.8 58.4 1 7.8-4.9 14.8-10.9 21.4-17.3 3.1-3 6.1-6.1 9.2-9.1 3.1-2.9 5.5-3.5 9.6-4.3 5.8-1 9-2 14.1-5.1 5.1-3.2 10.6-6.5 15.1-10.7 2-1.8-3-5.7-2.8-8.5 0.2-2 0.4-4.1 0.3-6.2 -0.1-1.9-2.6-2.6-3.8-3.9 -2.7-2.7-0.1-8.4-3.7-10 -2.4-1.1-5.4-3.3-6.8-0.9 -0.5 0.8-1.1 1.5-1.9 2.1 0.8 1.1 1.6 2.3 1.9 3.6 0-0.1 1.9-1.2 1.9-1.5 -0.4 2.7-4.4 4.4-6.5 4.9 -1.9 0.4-3.8 0.7-5.8 0.8 -2 1.3-4.4 2.4-6.8 2.9 1.4 1.6 1.1 3 3 3.8 2 0.9 4 1.9 5.5 3.4 2 1.9 1.8 4.4 0.2 6.6 -2.4 3.4-3.9 2.7-6.1 0.2 0.4 2 0.5 3.5-0.9 5.2 -1.7 2-3.8 1-5.1 2.5 -0.9 1-8.5 8.7-8.9 4.8 -13.6 26.3-48.7 50.3-75.5 27.2C292.8 249.6 290.8 252.4 288.6 255.1 297.9 262.2 290.6 252.6 288.6 255.1z" class="c"/><path d="M267.4 219.3c-9.4 8.3-1.9 27.9 3.5 36.1 2.4 3.7 6.2 11.2 10.7 7 4.1-3.8 7.5-8.6 10.8-13.2 2.7-3.8 5.5-7.7 7.6-11.9 1.3-2.7-3.2-5-5.1-6.3 -4.8-3.4-10-6.4-15.3-9C277.2 220.9 270.1 216.9 267.4 219.3 260.3 225.5 271.9 215.3 267.4 219.3z" class="l"/><path d="M278.8 264.6c-3-0.7-6.2-5.9-7.9-8.3 -2.2-3.1-3.9-6.5-5.2-10 -2.3-6.3-3.6-13.4-2.3-20 1.4-6.9 4.9-9.2 11.3-6.9 5.7 2 11.1 5.1 16.2 8.4 1.8 1.2 10.4 5.6 10.2 8.4 -0.3 2.6-3.2 5.9-4.6 7.9 -2.9 4.5-6 8.8-9.3 13C285.5 259.2 281.9 264.6 278.8 264.6zM269.4 219.2c-5.9 0-5.6 12.5-5.2 16.2 0.8 7.1 3.4 14.1 7.4 20 2.5 3.7 5.8 10.5 10.2 6.3 3.7-3.6 6.8-7.9 9.7-12.1 2.6-3.7 5.2-7.5 7.5-11.4 1.5-2.7 0.5-3.1-1.9-4.9C290 228 278.7 219.2 269.4 219.2z" class="k"/><path d="M391.9 178.8c2.4-1.5 3.8 4.5 5.7 2.9 1.6-1.3 2.3-3.5 2.7-5.5 0.3-1.7 0.5-3.7-0.2-5.3 -1-2.1-3.9 0.9-5 1.5 -4.2 2.2-8.8 3.8-13.6 3.5 -3.7-0.2-2.7 3.6-3.1 6.8C382.7 182.1 388.2 181.2 391.9 178.8 393 178.2 389.9 180.1 391.9 178.8z" class="n"/><path d="M378.4 183.2c-1 0 0-4.7 0.1-5.1 0.4-3.4 1.2-2.7 4.2-2.7 3.7 0 7.3-1.2 10.6-2.7 2.1-1 6.4-5.3 7.5-1.2 0.6 2.5 0.2 5.4-0.8 7.7 -1.8 4.4-3 3.4-5.8 1 -2.1-1.8-4 0.2-6.3 0.9C385 182 381.5 183.2 378.4 183.2zM379.7 176.3c-0.3 1.9-0.5 3.9-0.7 5.8 3.7-0.5 7.5-1.4 11-2.8 3.3-1.3 4.7-0.5 7 2.3 2.1-1.4 2.8-4.3 3-6.7 0-0.4 0.1-5-1.1-4.3C392.6 174.8 387 176 379.7 176.3 379.6 177.2 379.9 176.2 379.7 176.3z" class="c"/><path d="M374.5 216.3c-0.2-2.9-3.9-6.1-5.9-7.7 -2.1-1.7-2.5-1.9-4.5-0.3 -1.2 1-0.6 1.7 0.3 2.4 2.4 2 5.3 4.1 6.1 7.3 0.8 3.5 4.7 1.6 5-1.4C375.1 217 374.7 216.8 374.5 216.3 374.4 214.7 374.6 216.8 374.5 216.3z" class="g"/><path d="M371.5 220.8c-1.7 0-1.5-3-2-4.1 -0.9-1.7-2.4-3.1-3.8-4.3 -0.8-0.6-3.1-1.9-2.7-3.2 0.6-2.2 2.9-3 4.6-1.9 2.9 1.9 6.2 5 7.4 8.4 0.2 0.7 1.3 0.5 1.2 1.1C375.9 218.5 373.4 220.8 371.5 220.8zM366 207.6c-0.8 0.8-2.8 1.5-1.5 2.6 1.6 1.4 3.3 2.6 4.6 4.2 1.9 2.3 2.4 8.9 5.8 2.9 -0.9-0.1-1.5-2.6-2-3.3C371.2 211.4 368.8 209 366 207.6 365.8 207.8 370.4 209.9 366 207.6z" class="a"/><path d="M379.2 211.9c-0.8-2.8-5.9-5.6-8.1-7.1 -1.4-0.9-3.6-3.3-4.7-1.6 -1.3 2.1-1.7 2.9 0.4 4.2 2.7 1.6 7.5 5.5 7.7 8.9C374.6 217.1 380 214.8 379.2 211.9 378.7 210.4 379.3 212.3 379.2 211.9z" class="g"/><path d="M375.1 217.3c-2.3-1.6-3.6-5.6-6-7.7 -1.2-1.1-4.7-2.1-4.2-4.1 0.4-1.7 1.4-4.3 3.4-3.2 3.6 2.1 7.3 4.8 10.2 7.8C381 212.8 379.2 217.3 375.1 217.3zM367.2 203c-2.9 4.2 0.7 4.1 3.5 6.9 1.5 1.5 4.1 4.1 4.3 6.4C385.1 213.5 370.7 204.9 367.2 203 366.2 204.5 371.5 205.3 367.2 203z" class="a"/><path d="M384.2 205.5c-2.6-2.1-5.9-2.9-9.1-3.6 -2.6-0.5-3.1-5-4.4-7.3 -0.8 1.8-4.9 5-4.3 7.1 0.5 1.7 7.3 5 8.9 6.3 1.2 1 4.6 5.8 6 5.6C385.4 212.9 385 208.4 384.2 205.5 379.9 202 384.4 206.2 384.2 205.5z" class="g"/><path d="M381 214.1c-1.8 0-2.3-2.3-3.4-3.4 -1.8-1.8-3.8-3.3-5.8-4.8 -1.1-0.8-5.5-2.7-5.9-4.1 -0.6-2.4 3.5-5.4 4.3-7.4 0.6-1.4 3.3 4.7 3.5 5.3 0.8 2.3 3.1 1.9 5.4 2.6 2.7 0.8 5.4 1.8 6 4.7C385.7 209.9 384.7 214.1 381 214.1zM370.6 195.7c-0.8 1.3-4.2 4.3-3.8 5.9 0.1 0.6 3.2 2 3.7 2.3 2.5 1.7 8.2 4.8 9.1 7.9 0.9 2.9 4 0 4.6-1.5 1.2-3-1-5.2-3.4-6.2 -2.2-1-4.5-1.3-6.7-1.9C372.3 201.7 371.5 197.2 370.6 195.7 370.2 196.4 371.6 197.4 370.6 195.7z" class="a"/><path d="M383.5 196.7c0-2.8-1.6-3.7-3.8-3.7 -3.7 0.1-6.9-1.9-8.4-5.4 -2 4.3-1.4 5.3 0.6 9.4 0.7 1.5 0.8 4.4 2.5 4.8 2.2 0.5 4.3 0.9 6.4 1.8 4.2 1.8 7.2 8.9 10.5 2C393.8 200.5 386.8 198.3 383.5 196.7 383.5 194.6 384.6 197.2 383.5 196.7z" class="g"/><path d="M387.6 209.4c-2.1-0.5-3.5-3.6-5.6-4.8 -2.5-1.4-5.3-1.8-8-2.5 -1.8-0.5-3.2-6.3-4.2-8 -0.7-1.1-0.1-7.6 1.7-7 0.7 0.2 1.6 2.6 2.2 3.1 1.6 1.6 3.7 2.3 5.9 2.2 1.3 0 1.7-0.5 2.5 0.3 1 1 1.4 3.3 2.4 3.8 2.6 1.1 5.6 2.3 7.3 4.7C393.6 203.9 391 209.4 387.6 209.4zM374 201.1c3 1.2 6.2 1.2 9.1 3 1 0.6 3.7 4.3 4.5 4.3 1.9 0.2 3.7-3.2 3.8-4.7 0.5-4.5-8.5-4.6-8.5-7.1 0-3.7-2.8-2.9-5.3-3.3 -2.7-0.4-5-2.2-6.3-4.5C369.2 194.1 373 196 374 201.1 374.3 201.2 373.5 198.5 374 201.1z" class="a"/><path d="M399.1 186.8c0.3-2.4-2.8-5.5-4.4-6.9 -2.5-2.1-4.7 0-7.4 0.8 -3.5 1.1-7.2 1.9-10.9 2.2 -2.5 0.2-6-1-5.6 2.8 1 8.9 11.3 8 17 4.8C390 189.2 398.7 189.7 399.1 186.8 399.3 184.6 398.8 188.9 399.1 186.8z" class="g"/><path d="M379.3 193.5c-4.3 0-8.1-3-9-7.3 -1.1-5.6 6.7-3.8 10.3-4.5 2.5-0.4 4.9-1.1 7.2-1.8 1.3-0.4 3.2-1.8 4.5-1.8 2 0 4 2.6 5 4 0.2 0.3 2.8 4.7 2.9 3.8 -0.4 3.3-6.9 3.8-9.2 4C387 190.5 383.8 193.5 379.3 193.5zM372.6 183.2c-2.6 0-0.8 4.3-0.2 5.3 1.5 2.5 4.1 3.9 7 3.9 4.6 0 10.2-2 11-7.1 0.1 0.3 0.2 3.7-0.5 3.7 1.5-0.1 9.6-0.5 8.6-3.3 -0.8-2.2-4.1-7.6-6.9-6.2C385.7 182.5 379 183.2 372.6 183.2z" class="a"/><path d="M208.3 152.5c-0.1-1.5 4.4-1.9 5.4-1.7 4.4 0.9 7.7 5.2 10.1 8.7 1-7.5 2-15.1 3.2-22.6 0.6-4 1.2-7.9 1.9-11.9 0.5-2.6 0.3-4.4 3.3-3.3 2.3 0.8 7.8 4.7 10.2 3.9 2-0.6 4.1-7.9 4.9-9.6 0.7-1.6 2.8-8.1 4.8-8.5 2.2-0.5 6.6 2.3 8.5 3.2 4.1 1.8 8.3 3.7 12.4 5.5 1.6 0.7 5.3 3.3 7.2 2.6 7.1-2.6 13.2-8.5 19.8-12.2 2.9-1.6 12.4 10.7 14.9 12.7 3.9 3.2 13.6-6.7 15.4-4.7 30.6 34.8 9.6 91.4-33.4 102.9 -23.7 6.3-49.5-1.7-65.5-20.3 -3.7-4.3-6.9-9.2-9.3-14.3 -0.9-1.8-0.7-2.7-2.7-3.2 -1.3-0.3-2.5-0.8-3.7-1.3 -2.1-1-4-2.5-5.6-4.4 -2.8-3.4-4.3-7.8-4.4-12.1C205.5 158 207.5 155.9 208.3 152.5 208.3 152.6 208.3 152.6 208.3 152.5z" class="n"/><path d="M220.3 180.4c-9.3-1.7-15.2-9.9-15.2-19.2 0-4 1.3-9.6 5.7-10.9 5.2-1.5 10 4.2 12.6 7.8 1.4-10.8 2.8-21.6 4.7-32.3 0.2-1.1 0.3-4.4 1.4-5.1 3.6-2.3 11 7.5 13.5 2.9 2.6-5 4.2-12.1 8.2-16.3 1.7-1.7 7.8 2 9.4 2.7 3.5 1.5 7 3.1 10.5 4.7 2.5 1.1 5.7 3.2 8.4 3.6 3.8 0 10-5.8 13.1-7.9 2.2-1.4 6.9-6.3 9.5-4.1 4.4 3.6 8 8.1 12.2 11.8 3.6 3.2 10.3-2 13.9-3.9 4.8-2.4 11.2 14.3 12.4 17.5 5 13.2 5.6 27.9 1.7 41.4 -7.4 25.2-30 43.9-56.1 46.4C258.4 222.5 231.2 206.3 220.3 180.4 211.3 178.7 230.5 204.5 220.3 180.4zM316.3 120.7c-2.8 0-7.3-6.2-9-7.9 -2-2-3.9-4.1-6.1-5.8 -1.2-0.9-5.3 2.7-6.4 3.4 -4.6 3-9.2 6.7-14.3 8.8 -2.6 1.1-7.5-2.4-9.8-3.4 -5.2-2.4-10.5-4.8-15.8-6.9 -1.5-0.6-2.6-1.4-3.6 0.1 -1.5 2.4-2.7 5.1-3.9 7.7 -0.6 1.4-3.1 9.4-5.3 9.4 -1.5 0-11.8-5.1-12.1-4.3 -1.1 3-1.4 6.6-1.9 9.8 -0.7 4.6-1.4 9.2-2.1 13.9 -0.5 3.7-1 7.5-1.5 11.2 -0.4 2.8-0.2 4.5-2.5 1.5 -2.2-2.9-5.7-6.9-9.7-6.9 -5.5 0-6.6 7.8-6.3 11.8 0.4 4.9 2.6 9.7 6.4 12.9 2.3 1.9 5.2 3.1 8.1 3.6 0.7 0.1 4.2 0.4 4.4 1 -0.1-0.2-4.1 0.4-4.1 0.1 17.5 40.5 72.3 51 103.8 20.3 15-14.7 22-36.3 18.3-57 -1.7-9.2-5.4-18.2-10.8-25.8 -1.8-2.5-1.9-3.4-4.7-2C324.4 117.6 319.9 120.7 316.3 120.7z" class="c"/><path d="M213.7 159.6c1.9 1 4.1 1.4 5.7 3 2.4 2.4-3.8 2.1-5.2 3.3 -1.8 1.7 5.1 5.9 6.3 6.2 -2.1-0.5-4.4-2.1-6.2-3.2 -5.3-3.2 1.5-4.5 4.2-5.5C218.2 163.5 214.2 159.8 213.7 159.6z" class="c"/><path d="M335.6 142.6c3.9 0 3.9 20 0 20S331.7 142.6 335.6 142.6z" class="c"/><path d="M336.9 145.1c1.1 0 1.1 4.9 0 4.9S335.8 145.1 336.9 145.1z" class="i"/><path d="M276.4 138.4c4.6 0 4.6 23.2 0 23.2S271.9 138.4 276.4 138.4z" class="c"/><path d="M277.5 141.3c1.3 0 1.3 5.7 0 5.7C276.2 147 276.2 141.3 277.5 141.3z" class="i"/><path d="M256.3 136.4c2.8-5.2 8.9-7.7 14.5-8.4 2.9-0.4 5.8-0.4 8.7 0.1 0.7 0.1 7 2.4 6.9 2.4 1.2-1.6-4.4-4.6-5.3-5 -3.3-1.3-7-1.5-10.4-1 -3.6 0.5-7.2 1.9-10.1 4.3C258 131.2 257.2 134.7 256.3 136.4 261.6 126.4 256.1 136.7 256.3 136.4z" class="c"/><path d="M341.7 136c-0.9-3.1-9.5-3.5-11.8-2.6 4.2 1.3 8.7 3.3 12.3 5.9C342.9 138.5 341.9 136.8 341.7 136 341.4 135 342 137.1 341.7 136z" class="c"/><path d="M315.9 175.2c-1.5-1.7-4.3-1.3-6.2-0.7 -2.1 0.7-4.3 0.1-1.2-1.9 1.8-1.1 4.4-1.6 6.4-0.7C316.7 172.7 316.7 176.1 315.9 175.2 315.2 174.5 316 175.3 315.9 175.2zM315.4 173.6c-1.4-1.9-5.4-1.1-6.9 0.3C310.7 173.1 313.3 172.6 315.4 173.6 315.4 173.5 314.7 173.2 315.4 173.6z" class="c"/><path d="M301.1 192.7c3 0 6.2-0.3 9.1-1.4 0.8-0.3 1.6-0.7 2.3-1.1 1-0.7 0.6-2 0-1.3 -2.9 3.1-9.8 3-13.5 2.7 -4-0.3-7.9-1.3-11.4-3.1 -1.4-0.7-10.4-9.3-9.9-9.5 -2.2 1.2 7.7 9.4 8.8 10.1C290.9 191.6 296.1 192.7 301.1 192.7z" class="c"/><path d="M207.5 99.8c-0.1-1.4-4.9-6.9-2.1-7 4.2-0.1 8.5 0.3 12.7 0.5 1.2 0.1 7 1 7.8-0.2 1.3-2 2.7-4 4.1-6 5.6-7.9 11.6-15.7 18.7-22.2 2.9-2.7 6.1-5.4 9.8-6.7 4.6-1.7 4 1.7 3.4 5.3 -0.4 3-2.7 7.4 1.4 5.6 4.9-2.1 10.2-3.2 15.4-3.8 11.3-1.4 22.8-0.9 34.1 0.3 7.2 0.8 15 1.5 21.9 3.9 3.9 1.4-9.5 9.3-9.7 11.7 -0.3 2.9 18.9 9.7 21.4 10.8 2 0.9 6.5 2.1 7.9 4 1.4 2-4.5 8-5.8 9.4 3.7 1.1 20.7 5.8 14.1 11.5 -9.8 8.5-15.5 17.7-18.4 30.6 -1.3-11.2-5.6-22.2-12.5-31.2 -1.4-1.8-1.3-2.4-3.3-1.4 -3.6 1.8-7.7 4.4-11.7 5.1 -2.1 0.4-5.5-4.2-6.8-5.5 -2.7-2.7-5.4-6.2-8.7-8.3 -2.2-1.4-15.7 9.5-18.2 10.9 -5.6 3.3-11.9-1.9-17.3-4.3 -3.7-1.7-7.4-3.4-11.2-4.8 -3.1-1.2-3.5 0-4.9 2.9 -2 3.9-3.6 7.9-5.6 11.8 -1.9 3.8-3.2 2.5-6.9 0.9 -1.1-0.5-6.9-3.8-7.5-1.9 -1 3-1.3 6.4-1.8 9.5 -1.5 9.4-2.7 18.8-4 28.2 -2.8-4.1-10.2-12.8-15.5-6.9 -4-14.4-3.4-26.7-0.3-40.9 1.1-5.1-4.8-1.9-7.7-1.6 -3.1 0.4 1.1-3.5 1.7-4.2C203.1 104.9 207.7 101.5 207.5 99.8 207.4 98.5 207.6 101.1 207.5 99.8z" fill="#612E0F"/><path d="M223.8 160c-0.9 0-3.2-3.8-3.9-4.6 -1.4-1.4-2.9-2.8-4.7-3.6 -1.3-0.6-2.7-0.9-4.1-0.5 -2.7 0.8-2.7 3.4-3.8-0.7 -2.5-9.6-3.7-19.7-2-29.6 0.5-3 1.4-5.9 2.1-8.8 1.8-7.2-6 0.8-8.6-2 -1.5-1.7 6.2-8 7.3-9.2 1.9-2.1-3.6-8.1-1.7-8.7 4.4-1.4 11.1 0.3 15.6 0.5 2.7 0.1 4.8 0.9 6.3-1.4 3.5-5.2 7.3-10.3 11.3-15.2 4.9-6 10.2-12.3 16.8-16.5 2-1.3 4.5-2.7 6.9-2.7 3.3 0 0.3 10.5 0.2 12.3 13-6.5 29.4-5.9 43.5-4.9 7.1 0.5 14.2 1.3 21.2 2.6 1.5 0.3 9.9 1 10.1 3.2 0.4 3.3-8.2 7.7-10.3 10 -1.9 2.1 9.4 6.3 11.1 7 5.3 2.4 10.9 4.6 16 7.4 4.3 2.4-1.7 8.2-3.8 10.5 4.4 1.3 9.2 2.9 12.9 5.6 5 3.7 0.4 6.6-2.9 9.4 -3 2.6-5.6 5.7-7.7 9.1 -1.2 1.9-7.8 18.7-7.5 18.7 -0.3 0-4.1-15.5-4.9-17.3 -1.7-4.2-3.9-8.3-6.5-12 -1.9-2.7-2.2-4.2-5.2-2.7 -2.4 1.2-8.8 5.6-11.6 4.6 -4.2-1.6-7.9-7-10.9-10.1 -0.9-0.9-3.5-4.3-4.9-3.5 -3 1.7-5.8 3.7-8.7 5.6 -2.8 1.8-8.2 6.8-11.8 6.8 -3.6 0-8.8-3.7-12-5.1 -4.7-2.1-9.4-4.5-14.4-6.1 -2.8-0.9-6.1 9.4-7 11.5 -0.7 1.5-2.1 6.9-4.5 6.3 -1.2-0.3-11.1-5-11.4-4.2C227.9 127.2 226 160 223.8 160zM212.5 150.1c4.7 0 8.5 4.6 11 8 1.2-9.3 2.5-18.6 4-27.9 0.2-1.2 2.9-10.5 0-10.5 4 0 13.8 7.4 15.7 3.8 2.1-4 3.7-8.1 5.7-12.1 0.2-0.4 3.5-6.3 0.4-5.7 2.8-0.6 9.4 3.3 11.8 4.4 6 2.6 11.9 5.8 18.1 8 2.8 1 10.1-5.5 12.3-6.9 2.6-1.7 8.2-6.9 11.5-7.2 -2.5 2.1 0.9 3.8 2.4 5.3 3 3 5.9 6.1 9.1 8.9 2.3 2 3.8 0.9 6.5-0.3 1.9-0.8 3.8-1.7 5.6-2.7 0.9-0.4 1.8-0.9 2.7-1.4 0.4-0.2-0.2-1.7 0.2-1.9 0.1-0.1 6.3 9.4 6.6 9.9 4.1 7 6.9 14.8 8.2 22.8 2.6-10.2 7.3-19.5 15.5-26.3 1.1-0.9 4.5-2.7 3.9-4.5 -0.6-1.9-3.1-3.1-4.7-4 -0.8-0.4-13.6-6-12.5-2.3 -0.6-2.1 6.2-8.1 7.1-10.3 1-2.4-7.4-5-9-5.7 -5.3-2.4-10.6-4.7-15.8-7.3 -1.5-0.7-6-2.7-6.8-4.2 1.5 3 13.6-9.5 13.3-9.9 -1.3-1.2-4.4-1.4-6.1-1.7 -4.6-0.9-9.2-1.6-13.8-2.2 -11.3-1.4-22.7-2-34.1-0.9 -4.7 0.4-9.4 1.2-13.9 2.6 -1.6 0.5-3.3 1.1-4.8 1.9 -0.7 0.3-2.7 2.8-3.2 2.8 1.3 0 2.7-14.7 1.9-14.7 -5.3 0.2-10.3 5.2-13.8 8.7 -5.3 5.2-10 11-14.4 16.9 -1.9 2.5-3.7 5-5.4 7.6 -0.7 1-2.6 5.1-3.8 5.3 0.1 0 0.7-2.6 0.6-2.6 -6.5 0.3-13.2-1.4-19.6-0.6 0.4 2.2 4.2 5.2 2.8 7.4 -2.1 3.1-6.6 5.4-8 8.9 2.4 0.4 9.8-4 9.1 1.2 -0.4 3.3-1.8 6.6-2.4 9.9 -1.8 10.3-0.5 20.9 2.2 30.9C209.7 150.7 211 150.1 212.5 150.1z" class="c"/><path d="M356.9 106.6c-0.2-0.2-0.4-0.4-0.7-0.4C355.7 106 356 106.2 356.9 106.6z" fill="#4A210F"/></svg>