<svg version="1.1" id="Layer_1" xmlns="http://www.w3.org/2000/svg" xmlns:xlink="http://www.w3.org/1999/xlink" viewBox="0 0 768 430" enable-background="new 0 0 768 430" xml:space="preserve">
<g>
	<polygon fill="#FD991A" points="437.006,384.354 463.332,400.112 473.562,396.172 440.734,382.011 	"/>
	<g>
		<linearGradient id="SVGID_1_" gradientUnits="userSpaceOnUse" x1="248.2222" y1="224.6035" x2="497.9854" y2="224.6035">
			<stop  offset="0" style="stop-color:#DEDBD4"/>
			<stop  offset="1" style="stop-color:#CAC7C1"/>
		</linearGradient>
		<path fill="url(#SVGID_1_)" d="M486.587,378.387c-9.756,0.241-45.842-3.128-49.419-5.989c-3.006-2.405-14.882-27.191-18.59-35.026
			c1.499-1.981,2.385-5.177,2.362-10.038c20.999-9.352,32.027-25.864,52.534-26.018c0.216-3.901-11.706-11.271-16.475-11.271
			c4.553-3.902,17.774-4.553,17.774-4.553c-2.385-4.551-14.739-7.369-20.375-5.419c1.951-3.034,10.404-9.969,14.306-8.887
			c-2.383-3.251-16.906-4.118-23.191-0.217c0.866-3.251,7.803-9.536,7.803-9.536c-2.667-1-11.478,0.175-18.366-0.113
			c-0.173-2.197-1.382-4.339-3.092-5.523c26.877,3.902,24.709-11.271,18.207-13.438c24.276-1.301,17.664-17.34,6.935-19.616
			c14.307-5.526,1.302-19.507-8.452-19.833c-19.272-20.582-35.625-25.226-46.037-25.46c-1.725-14.834-1.146-27.712,3.446-35.012
			c12.68-20.158,40.315-28.286,36.738-62.424c-3.576-34.138-32.831-37.116-40.315-38.039c-18.437-2.273-43.9,11.799-41.761,45.182
			c-3.611,0.352-7.047-0.114-9.771-2.104c-10.241-7.478-20.808-7.803-22.434,0.97c-2.519,13.592,14.793,31.036,39.015,25.112
			c-2.52,7.975-14.387,13.746-15.118,21.386c-0.738,7.707,10.161,14.492,21.215,14.656c-0.791,2.63-1.978,5.463-3.658,8.59
			c-5.91,10.994-16.775,20.827-27.753,32.222c-16.026,1.098-34.871,4.27-42.04,12.825c3.63-7.099,1.492-17.664,1.492-17.664
			s9.941,3.169,16.282-0.325c3.9,2.167,14.955-1.301,12.103-11.488c4.37,0.215,11.089-2.384,7.483-11.488
			c3.173,0.648,10.325-1.083,7.236-8.562c-1.395-3.376-9.916-7.021-16.5-8.778c-1.599-0.427-3.125-0.873-4.605-1.265
			c0.956-3.509,3.535-13.644,3.06-19.219c-0.703-8.252-9.572-15.262-16.844-6.816c-4.021,4.671-0.329,11.725,0,20.959
			c0.089,2.504-0.113,4.351-0.403,5.694c-3.732,1.973-7.767,5.84-12.555,12.782c-13.108,19.008-35.195,21.397-46.601,52.613
			c-6.502,17.796,4.552,37.338,8.887,36.471c4.334-0.867,5.852-8.4,5.852-8.4s0.217,23.789,8.453,23.791
			c6.039,0,8.02-11.271,8.02-11.271s1.084,19.072,11.271,20.375c6.055,0.772,6.069-9.104,6.069-9.104s3.305,11.65,10.272,10.473
			c3.033,22.47,15.988,40.394,34.354,51.495c1.661,4.402,5.379,12.587,11.055,16.075c2.66,6.689,10.658,27.529,9.723,33.998
			c-1.118,7.743-20.552,4.259-33.162,1.625c-14.793-3.088-26.823,5.689-12.842,10.729c-7.641,3.414-4.227,17.068,11.704,9.266
			c15.931-7.803,25.685-9.266,25.685-9.266c-12.03,5.364-21.295,12.191-22.107,16.256c-0.813,4.064,3.088,11.38,16.743,0
			c13.655-11.379,22.433-14.956,26.335-13.167c3.901,1.788,15.734,2.98,15.769-3.089c0.037-6.594-8.921-7.708-12.907-8.666
			c-3.347-0.805-11.15-29.328-13.567-38.453c1.541-1.495,2.558-3.438,3.22-5.107c6.444,1.451,13.185,2.247,20.112,2.32
			c2.447,0.026,4.785-0.051,7.035-0.208c2.629,2.009,5.356,3.729,7.974,4.76c0.862,0.339,1.724,0.65,2.576,0.922
			c3.142,5.467,17.095,29.952,17.095,33.703c0,4.227-10.082,5.348-12.03,5.437c-3.576,0.163-4.389,5.293,3.17,7.406
			s7.524-1.352,16.826,4.333c10.729,6.558,18.076,14.434,24.546,16.8c6.665,2.438,16.744-1.554,6.99-10.169
			c-4.163-3.677-8.33-6.27-12.269-8.187c6.705,2.626,13.698,5.604,16.333,7.301c10.729,6.909,23.57,1.22,11.704-6.989
			c6.989,3.251,16.736,2.186,18.37-1.392C499.186,383.589,496.829,378.133,486.587,378.387z"/>
		<linearGradient id="SVGID_2_" gradientUnits="userSpaceOnUse" x1="284.1035" y1="210.2881" x2="300.5977" y2="210.2881">
			<stop  offset="0" style="stop-color:#F4F3F2"/>
			<stop  offset="1" style="stop-color:#A4A19C"/>
		</linearGradient>
		<path fill="url(#SVGID_2_)" d="M300.598,200.599c-5.012,6.979-10.484,13.361-16.494,19.378
			C291.244,214.844,297.717,209.228,300.598,200.599z"/>
		<linearGradient id="SVGID_3_" gradientUnits="userSpaceOnUse" x1="352.4653" y1="162.9668" x2="273.68" y2="180.6935">
			<stop  offset="0" style="stop-color:#F4F3F2"/>
			<stop  offset="0.227" style="stop-color:#DBD9D7"/>
			<stop  offset="0.5473" style="stop-color:#BDBBB7"/>
			<stop  offset="0.8165" style="stop-color:#ABA8A3"/>
			<stop  offset="1" style="stop-color:#A4A19C"/>
		</linearGradient>
		<path fill="url(#SVGID_3_)" d="M285.696,220.688c3.354-3.704,9.89-13.11,14.901-20.089c0.062-0.19,0.125-0.38,0.185-0.572
			c-0.247,0.257-0.483,0.52-0.708,0.788c3.63-7.099,1.492-17.664,1.492-17.664s9.941,3.169,16.282-0.325
			c3.9,2.167,14.955-1.301,12.103-11.488c4.37,0.215,11.089-2.384,7.483-11.488c3.173,0.648,10.325-1.083,7.236-8.562
			c-1.395-3.376-9.916-7.021-16.5-8.778c-1.599-0.427-3.125-0.873-4.605-1.265c0.956-3.509,3.535-13.644,3.06-19.219
			c-0.703-8.252-9.572-15.262-16.844-6.816c-4.021,4.671-0.329,11.725,0,20.959c0.089,2.504-0.113,4.351-0.403,5.694
			c-3.732,1.973-7.767,5.84-12.555,12.782c-13.108,19.008-35.195,21.397-46.601,52.613c-6.502,17.796,4.552,37.338,8.887,36.471
			c1.68-0.337,2.936-1.676,3.845-3.188c0.263-0.593,0.549-1.164,0.865-1.708c0.258-1.056,0.589-2.052,1.014-2.961
			c0.087-0.34,0.128-0.544,0.128-0.544s0.001,0.096,0.005,0.273c0.371-0.744-0.141-1.945,0.375-2.547
			C268.813,232.506,278.943,229.13,285.696,220.688z"/>
		<path fill="#DBD9D7" d="M300.783,200.027c-0.06,0.192-0.123,0.382-0.185,0.572c0.19-0.266,0.385-0.527,0.574-0.794
			c-0.189,0.268-0.384,0.529-0.574,0.794c-2.88,8.629-10.259,14.603-16.494,21.251c-5.315,5.321-12.616,9.812-18.763,11.206
			c-0.839,0.19,0.221,3.345-0.326,4.021c0.239,5.49,1.529,22.041,8.399,22.043c6.039,0,8.02-11.271,8.02-11.271
			s1.084,19.072,11.271,20.375c6.055,0.772,6.069-9.104,6.069-9.104s3.106,10.95,9.645,10.546
			c1.491-29.958,15.202-58.16,33.696-81.677C327.006,189.16,308.132,192.365,300.783,200.027z"/>
		<linearGradient id="SVGID_4_" gradientUnits="userSpaceOnUse" x1="302.5698" y1="186.3911" x2="303.9476" y2="222.5593">
			<stop  offset="0" style="stop-color:#E3E1DF"/>
			<stop  offset="1" style="stop-color:#A4A19C"/>
		</linearGradient>
		<path fill="url(#SVGID_4_)" d="M300.783,200.027c-0.06,0.192-0.123,0.382-0.185,0.572c0.19-0.266,0.385-0.527,0.574-0.794
			c-0.189,0.268-0.384,0.529-0.574,0.794c-2.88,8.629-10.259,14.003-16.494,20.652c-5.315,5.321-14.586,9.669-18.763,11.806
			c-0.767,0.393,0.221,3.345-0.326,4.021c0.742,6.086,4.502,17.656,9.004,17.234c6.012-0.563,7.737-17.866,7.737-17.866
			s0.407,23.599,10.593,24.901c6.055,0.773,5.164-14.099,5.164-14.099s5.702,16.191,12.24,15.787
			c1.491-29.957,13.867-51.529,32.361-75.046C327.006,189.16,308.132,192.365,300.783,200.027z"/>
		<path fill="#DBD9D7" d="M486.587,378.387c-9.756,0.241-45.842-3.128-49.419-5.989c-3.006-2.405-14.882-27.191-18.59-35.026
			c1.499-1.981,2.385-5.177,2.362-10.038c20.999-9.352,32.027-25.864,52.534-26.018c0.216-3.901-11.706-11.271-16.475-11.271
			c4.553-3.902,17.774-4.553,17.774-4.553c-2.385-4.551-14.739-7.369-20.375-5.419c1.951-3.034,10.404-9.969,14.306-8.887
			c-2.383-3.251-16.906-4.118-23.191-0.217c0.866-3.251,7.803-9.536,7.803-9.536c-2.667-1-11.478,0.175-18.366-0.113
			c-0.173-2.197-1.382-4.339-3.092-5.523c26.877,3.902,24.709-11.271,18.207-13.438c24.276-1.301,17.664-17.34,6.935-19.616
			c14.307-5.526,1.302-19.507-8.452-19.833c-19.272-20.582-35.625-25.226-46.037-25.46c-1.725-14.834-1.146-27.712,3.446-35.012
			c12.68-20.158,40.315-28.286,36.738-62.424c-3.576-34.138-32.825-37.155-40.315-38.039c-18.062-2.132-43.9,11.799-41.761,45.182
			c-3.611,0.352-7.047-0.114-9.771-2.104c-10.241-7.478-20.808-7.803-22.434,0.97c-2.519,13.592,14.793,31.036,39.015,25.112
			c-2.52,7.975-14.387,13.746-15.118,21.386c-0.738,7.707,10.161,14.492,21.215,14.656c-0.791,2.63-1.978,5.463-3.658,8.59
			c-5.91,10.994-16.775,20.827-27.753,32.222c-0.59,0.04-1.186,0.085-1.783,0.131c-18.495,23.517-30.422,51.588-31.913,81.546
			c0.206-0.014,0.415-0.037,0.627-0.073c3.033,22.47,15.988,40.394,34.354,51.495c1.661,4.402,5.379,12.587,11.055,16.075
			c2.66,6.689,10.658,27.529,9.723,33.998c-1.118,7.743-20.552,4.259-33.162,1.625c-14.793-3.088-26.823,5.689-12.842,10.729
			c-7.641,3.414-4.227,17.068,11.704,9.266c15.931-7.803,25.685-9.266,25.685-9.266c-12.03,5.364-21.295,12.191-22.107,16.256
			c-0.813,4.064,3.088,11.38,16.743,0c13.655-11.379,22.433-14.956,26.335-13.167c3.901,1.788,15.734,2.98,15.769-3.089
			c0.037-6.594-8.921-7.708-12.907-8.666c-3.347-0.805-11.15-29.328-13.567-38.453c1.541-1.495,2.558-3.438,3.22-5.107
			c6.444,1.451,13.185,2.247,20.112,2.32c2.447,0.026,4.785-0.051,7.035-0.208c2.629,2.009,5.356,3.729,7.974,4.76
			c0.862,0.339,1.724,0.65,2.576,0.922c3.142,5.467,17.095,29.952,17.095,33.703c0,4.227-10.082,5.348-12.03,5.437
			c-3.576,0.163-4.389,5.293,3.17,7.406s7.524-1.352,16.826,4.333c10.729,6.558,18.076,14.434,24.546,16.8
			c6.665,2.438,16.744-1.554,6.99-10.169c-4.163-3.677-8.33-6.27-12.269-8.187c6.705,2.626,13.698,5.604,16.333,7.301
			c10.729,6.909,23.57,1.22,11.704-6.989c6.989,3.251,16.736,2.186,18.37-1.392C499.186,383.589,496.829,378.133,486.587,378.387z"
			/>
		<linearGradient id="SVGID_5_" gradientUnits="userSpaceOnUse" x1="448.6572" y1="372.6318" x2="446.2229" y2="379.0272">
			<stop  offset="0" style="stop-color:#E3E1DF"/>
			<stop  offset="1" style="stop-color:#A4A19C"/>
		</linearGradient>
		<path fill="url(#SVGID_5_)" d="M486.587,378.387c-9.756,0.241-45.842-3.128-49.419-5.989c-3.006-2.405-14.882-27.191-18.59-35.026
			c0.308-0.407,0.573-1.112,0.802-2.013c-2.742,3.255-7.873,3.894-12.482,3.991c3.403,5.93,16.941,29.741,16.941,33.438
			c0,4.227-10.082,5.348-12.03,5.437c-3.576,0.163-4.389,5.293,3.17,7.406s7.524-1.352,16.826,4.333
			c10.729,6.558,18.076,14.434,24.546,16.8c6.665,2.438,16.744-1.554,6.99-10.169c-4.163-3.677-8.33-6.27-12.269-8.187
			c6.705,2.626,13.698,5.604,16.333,7.301c10.729,6.909,23.57,1.22,11.704-6.989c6.989,3.251,16.736,2.186,18.37-1.392
			C499.186,383.589,496.829,378.133,486.587,378.387z"/>
		<linearGradient id="SVGID_6_" gradientUnits="userSpaceOnUse" x1="356.8252" y1="368.6445" x2="353.3383" y2="377.8049">
			<stop  offset="0" style="stop-color:#E3E1DF"/>
			<stop  offset="1" style="stop-color:#A4A19C"/>
		</linearGradient>
		<path fill="url(#SVGID_6_)" d="M364.178,371.162c-1.118,7.743-20.552,4.259-33.162,1.625
			c-14.793-3.088-26.823,5.689-12.842,10.729c-7.641,3.414-4.227,17.068,11.704,9.266c15.931-7.803,25.685-9.266,25.685-9.266
			c-12.03,5.364-21.295,12.191-22.107,16.256c-0.813,4.064,3.088,11.38,16.743,0c13.655-11.379,22.433-14.956,26.335-13.167
			c3.901,1.788,15.734,2.98,15.769-3.089c0.037-6.594-8.921-7.708-12.907-8.666c-3.347-0.805-11.15-29.328-13.567-38.453
			c0.423-0.41,0.801-0.854,1.148-1.316c-4.191,0.852-8.188,2.406-12.264,2.73C357.591,345.104,365.085,364.89,364.178,371.162z"/>
		<linearGradient id="SVGID_7_" gradientUnits="userSpaceOnUse" x1="398.6289" y1="119.5972" x2="423.3035" y2="178.2928">
			<stop  offset="0" style="stop-color:#E3E1DF"/>
			<stop  offset="1" style="stop-color:#A4A19C"/>
		</linearGradient>
		<path fill="url(#SVGID_7_)" d="M401.861,170.391c-0.78-11.811,0.25-21.839,4.096-27.953c12.68-20.158,40.315-28.286,36.738-62.424
			c-3.576-34.138-32.819-37.212-40.315-38.039c-18.062-1.992-43.9,11.799-41.761,45.182c-3.611,0.352-7.047-0.114-9.771-2.104
			c-10.241-7.478-20.808-7.803-22.434,0.97c-2.519,13.592,14.793,31.036,39.015,25.112c-2.52,7.975-14.387,13.746-15.118,21.386
			c-0.738,7.707,10.161,14.492,21.215,14.656c-0.791,2.63-1.978,5.463-3.658,8.59c-3.023,5.625-7.349,10.946-12.317,16.327
			C372.32,171.129,387.091,170.133,401.861,170.391z"/>
		<linearGradient id="SVGID_8_" gradientUnits="userSpaceOnUse" x1="363.8618" y1="223.3564" x2="461.7799" y2="338.5324">
			<stop  offset="0" style="stop-color:#E3E1DF"/>
			<stop  offset="1" style="stop-color:#A4A19C"/>
		</linearGradient>
		<path fill="url(#SVGID_8_)" d="M457,290.045c4.553-3.902,17.774-4.553,17.774-4.553c-2.385-4.551-14.739-7.369-20.375-5.419
			c1.951-3.034,10.404-9.969,14.306-8.887c-2.383-3.251-16.906-4.118-23.191-0.217c0.866-3.251,7.803-9.536,7.803-9.536
			c-2.667-1-11.478,0.175-18.366-0.113c-0.173-2.197-1.382-4.339-3.092-5.523c26.877,3.902,24.709-11.271,18.207-13.438
			c24.276-1.301,17.664-17.34,6.935-19.616c14.307-5.526,1.302-19.507-8.452-19.833c-19.272-20.582-35.625-25.226-46.037-25.46
			c-0.279-2.41-0.498-4.768-0.649-7.06c-14.771-0.258-29.541,0.738-44.311,1.704c-4.744,5.138-10.074,10.33-15.436,15.895
			c-0.59,0.04-1.186,0.085-1.783,0.131c-18.495,23.517-30.422,51.588-31.913,81.546c0.206-0.014,0.415-0.037,0.627-0.073
			c2.794,20.71,14.023,37.552,30.142,48.756c-0.113-0.11-0.22-0.229-0.312-0.367c0.093,0.139,0.2,0.257,0.312,0.367
			c0.237,0.166,0.473,0.332,0.712,0.495c1.277,0.619,2.915,0.396,2.915,0.826c2.252,6.19,7.879,10.129,13.506,12.942
			c2.814,1.126,6.753,0.562,10.13-1.125c8.097-2.53,16.647,1.309,25.244,2.107c1.374-0.024,2.714-0.08,4.023-0.165
			c0.697-0.333,1.313-0.817,1.684-0.817c6.114,0.86,14.088,5.38,18.344-0.851c0.987-3.582,2.634-8.877,2.619-12.312
			c10.934,3.55,31.232-22.229,55.109-18.136C473.69,297.414,461.769,290.045,457,290.045z"/>
		<path fill="#F8F8F7" d="M264.593,211.622c3.376-6.752,6.19-13.506,10.13-20.259c4.748-7.914,9.001-17.312,18.326-20.773
			c13.909-10.698,20.926-25.591,28.382-41.692c0.495-5.931,0.553-13.163-4.396-17.505c-2.363-0.03-4.891,1.076-7.252,3.817
			c-4.021,4.671-0.329,11.725,0,20.959c0.089,2.504-0.113,4.351-0.403,5.694c-3.732,1.973-7.767,5.84-12.555,12.782
			c-13.108,19.008-35.195,21.397-46.601,52.613c-4,10.948-1.354,22.548,2.282,29.66c3.077,0.765,6.33,0.4,9.275-1.661
			c2.25-2.251,2.813-5.064,2.813-8.441c0.033,0.114,0.078,0.214,0.116,0.321C263.408,221.942,262.272,216.649,264.593,211.622z"/>
		<path fill="#EEEDEA" d="M344.671,151.288c-1.196-2.898-7.645-5.993-13.61-7.923c0.568,0.354,1.111,0.776,1.626,1.29
			c-0.515-0.514-1.058-0.936-1.626-1.29c-0.984-0.318-1.957-0.606-2.889-0.855c-1.059-0.282-2.076-0.568-3.079-0.846
			c-3.081-0.26-6.34-0.064-9.289-0.948c6.447-7.522,9.298-19.146,5.136-28.02c-2.558-1.335-5.385-0.982-7.14,2.003
			c-3.124,5.313-0.327,16.389,0.002,25.624c0.089,2.504-4.132,0.197-4.422,1.541c-3.732,1.973-3.995,8.854-8.782,15.796
			c-13.109,19.007-35.291,20.275-46.697,51.492c-4,10.947-0.722,22.048,2.914,29.159c1.729,2.917,5.604,1.14,6.588-0.957
			c2.04-3.176,1.6-5.13,1.19-10.538c1.126,3.939,5.627,3.377,8.441,2.251c4.74-1.822,8.76-5.541,11.318-10.225
			c0.585-2.387,1.217-4.767,1.625-7.221c-3.376,2.251-7.315,2.814-11.254,3.377c6.19-4.502,12.38-8.442,16.882-14.632
			c-3.938,2.813-9.003,2.251-13.505,2.251c11.255-1.125,18.57-13.506,18.57-24.198c6.19,0,12.943,4.501,19.134,0.562
			c0-0.562,0-1.688,0-2.251c2.814,0.563,6.753-0.563,7.316-3.376c1.125-2.814,0-5.627-1.126-7.879c3.376,0,7.316,0.563,9.004-1.688
			c3.376-2.814-1.688-8.441-5.628-9.567c5.628-0.563,11.818,1.125,17.445-0.563c1.137-0.189,1.753-0.958,1.999-1.994
			C344.767,151.54,344.724,151.417,344.671,151.288z"/>
		<path fill="#EEEDEA" d="M386.545,323.001c-0.408-0.313-0.924-0.517-1.522-0.517C385.543,322.614,386.048,322.792,386.545,323.001z
			"/>
		<path fill="#FD991A" d="M354.249,337.025c0.069,0.044,0.135,0.097,0.206,0.139c2.66,6.689,10.658,27.529,9.723,33.998
			c-1.118,7.743-20.552,4.259-33.162,1.625c-14.793-3.088-26.823,5.689-12.842,10.729c-7.641,3.414-4.227,17.068,11.704,9.266
			c15.931-7.803,25.685-9.266,25.685-9.266c-12.03,5.364-21.295,12.191-22.107,16.256c-0.813,4.064,3.088,11.38,16.743,0
			c13.655-11.379,22.433-14.956,26.335-13.167c3.901,1.788,15.734,2.98,15.769-3.089c0.037-6.594-8.921-7.708-12.907-8.666
			c-3.347-0.805-11.15-29.328-13.567-38.453c0.903-0.876,1.621-1.905,2.198-2.944C363.686,336.582,359.024,337.405,354.249,337.025z
			"/>
		<path fill="#FEE1A3" d="M339.439,398.455c1.125,1.689,3.939,0,5.628-0.562c13.505-6.189,20.54-18.978,36.297-15.601
			c1.125,0.562,0,0-0.563-0.562c-2.25-2.251-5.063-2.064-6.189-4.878c-6.287-13.097-8.729-26.464-12.407-40.537
			c-2.591,0.755-5.254,0.926-7.955,0.711c0.069,0.044,0.135,0.097,0.206,0.139c2.66,6.689,10.658,27.529,9.723,33.998
			c-1.118,7.743-20.552,4.259-33.162,1.625c-5.07-1.059-9.815-0.723-13.3,0.378c-3.882,3.968-2.653,6.478,1.464,9.533
			c0,0,1.126,0,2.251,0c0,8.998,6.993,8.504,13.99,7.505c12.62-5.558,20.141-6.687,20.141-6.687
			c-4.125,1.839-7.925,3.851-11.17,5.864c0.229,0.018,0.456,0.039,0.675,0.07C342.253,392.265,336.625,394.517,339.439,398.455z"/>
		<path fill="#FDB31A" d="M338.595,399.187c1.125,1.688,4.784,0.176,6.473-0.388c13.588-7.937,20.226-18.039,41.054-13.381
			c1.125,0.563,2.428-4.16-2.225-4.658c-3.165-0.339-6.753-0.875-7.879-3.688c-6.286-13.097-10.135-26.684-13.813-40.757
			c-2.591,0.755-5.254,0.926-7.955,0.711c0.069,0.044,3.348-1.711,3.418-1.667c2.66,6.689,11.771,30.605,10.754,37.062
			c-1.407,8.934-24.812,6.219-37.422,3.586c-5.071-1.058-11.818,0.283-15.209,2.257c-3.881,3.967-0.726,1.38,3.391,4.436
			c0,0,1.126,0,2.251,0c-2.206,10.113,6.993,8.504,13.99,7.505c12.62-5.558,20.141-6.687,20.141-6.687
			c-4.125,1.839-7.925,3.851-11.17,5.864c0.229,0.018,0.456,0.039,0.675,0.07C342.253,392.265,335.781,395.247,338.595,399.187z"/>
		<path fill="#FD991A" d="M486.587,378.387c-9.756,0.241-45.842-3.128-49.419-5.989c-3.006-2.405-14.882-27.191-18.59-35.026
			c0.743-0.982,1.334-2.264,1.74-3.897c-3.458,3.662-8.335,5.624-13.58,5.608c0.002,0,0.004,0.001,0.006,0.002
			c3.142,5.467,17.095,29.952,17.095,33.703c0,4.227-10.082,5.348-12.03,5.437c-3.576,0.163-4.389,5.293,3.17,7.406
			s7.524-1.352,16.826,4.333c10.729,6.558,18.076,14.434,24.546,16.8c6.665,2.438,16.744-1.554,6.99-10.169
			c-4.163-3.677-8.33-6.27-12.269-8.187c6.705,2.626,13.698,5.604,16.333,7.301c10.729,6.909,23.57,1.22,11.704-6.989
			c6.989,3.251,16.736,2.186,18.37-1.392C499.186,383.589,496.829,378.133,486.587,378.387z"/>
		<path fill="#FEE1A3" d="M432.079,374.875c-0.178-0.061-0.358-0.117-0.536-0.18c-5.275-12.66-12.774-24.918-16.629-38.381
			c-2.655,1.356-5.028,2.777-8.176,2.768c0.002,0,0.004,0.001,0.006,0.002c3.142,5.467,17.095,29.952,17.095,33.703
			c0,4.227-10.082,5.348-12.03,5.437c-3.576,0.163-4.389,5.293,3.17,7.406c5.696,1.593,7.083,0.018,11.398,1.578
			C429.96,384.097,432.22,379.782,432.079,374.875z"/>
		<path fill="#FDB31A" d="M477.032,394.859c2.251-0.562,1.834-2.697,0.708-4.947c-0.562-1.126-10.949-6.087-12.638-6.087
			c4.502,0,23.747,3.383,25.342,1.468c1.688-1.126,0.894-3.789-0.794-4.352c-18.009-4.501-39.294-1.123-56.739-7.313
			c-5.275-12.659-13.502-23.138-17.357-36.6c-2.655,1.355-5.668,2.063-8.815,2.054c0.002,0,3.283-0.262,3.285-0.261
			c3.143,5.467,18.706,31.561,18.706,35.311c0,4.227-12.684,6.665-14.632,6.753c-3.576,0.163-6.678,2.632,0.881,4.745
			s7.524-1.352,16.826,4.333c2.315,1.416,4.474,2.894,6.501,4.364c6.293,2.298,8.765,6.633,15.052,9.534
			c1.688,0.563,6.698,2.12,8.762-0.278c3.303-2.831-0.453-6.12-1.722-9.411c-3.172-2.436-6.315-4.3-9.325-5.765
			c6.705,2.626,13.698,5.604,16.333,7.301c0.258,0.167-0.865-2.483-0.605-2.331C469.977,394.489,473.773,396.341,477.032,394.859z"
			/>
		<path fill="#F8F8F7" d="M369.222,165.622c-3.795,3.545-8.164,6.318-13.117,8.026c-2.572,2.728-5.293,5.479-8.08,8.304
			c-3.597,5.03-7.954,9.579-11.962,14.477c-18.553,20.815-27.273,47.816-26.763,74.858c1.452,9.143,4.564,17.505,9.018,24.933
			c0.453-19.812,3.102-39.194,13.806-56.459C346.671,215.859,377.047,194.838,369.222,165.622z"/>
		<linearGradient id="SVGID_9_" gradientUnits="userSpaceOnUse" x1="375.918" y1="113.52" x2="397.4453" y2="113.52">
			<stop  offset="0" style="stop-color:#ED9198"/>
			<stop  offset="0.9636" style="stop-color:#CD1F33"/>
		</linearGradient>
		<path fill="url(#SVGID_9_)" d="M376.018,126.084c1.688-3.376,4.783-6.27,7.598-8.52c1.126-1.125,1.969-1.61,2.532-2.736
			c5.006-4.504,7.597-8.66,11.298-13.873c-5.416,2.644-10.133,4.196-14.368,4.914C377.018,110.536,375.479,119.079,376.018,126.084z
			"/>
		<linearGradient id="SVGID_10_" gradientUnits="userSpaceOnUse" x1="336.9067" y1="114.8682" x2="405.71" y2="114.8682">
			<stop  offset="0.1879" style="stop-color:#CD1F33"/>
			<stop  offset="1" style="stop-color:#60070C"/>
		</linearGradient>
		<path fill="url(#SVGID_10_)" d="M397.445,100.956c-4.967,6.338-6.292,9.369-11.298,13.873c-0.563,1.126-2.954,3.158-4.08,4.283
			c-2.813,2.251-4.361,3.596-6.05,6.973c-0.538-7.006,1-15.549,7.06-20.215c-15.729,2.668-24.803-6.182-38.263-13.489
			c-2.251-1.125-7.908-0.938-7.908,1.876c0,12.943,22.017,19.825,32.745,14.584c-0.562,7.879-3.763,12.74-8.827,18.93
			c-2.814,2.814,0,9.005,4.502,9.567c9.004,1.689,18.57,0.563,23.072-8.441c5.417-11.374,11.354-21.71,17.312-32.504
			C402.779,98.183,400.032,99.693,397.445,100.956z"/>
		<path fill="#FD781A" d="M413.159,88.943c-1.688-2.814-5.064,0.562-7.315,1.125c-7.879,2.813-12.943-3.376-19.133-7.879
			c-1.127-1.125-3.377-1.688-5.628-0.562c-6.649,3.324-13.3,6.095-20.485,5.105c0.008,0.142,0.012,0.282,0.021,0.425
			c-3.611,0.352-7.047-0.114-9.771-2.104c-10.241-7.478-20.808-7.803-22.434,0.97c-2.519,13.592,14.793,31.036,39.015,25.112
			c-2.52,7.975-14.387,13.746-15.118,21.386c-0.738,7.707,10.161,14.492,21.215,14.656c-0.028,0.095-0.062,0.192-0.091,0.288
			c9.824-3.104,15.338-2.561,23.31-19.712c5.025-12.307,10.838-20.453,16.414-32.62C414.284,92.882,414.284,90.068,413.159,88.943z
			 M405.71,96.394c-7.882,9.962-12.927,20.067-18.343,31.441c-4.502,9.004-13.037,11.193-22.041,9.504
			c-4.502-0.562-6.957-8.402-4.144-11.215c5.065-6.19,7.906-9.403,8.469-17.282c-13.985,6.026-35.277-8.113-32.745-13.764
			c1.151-2.567,3.471-4.19,7.908-2.697C365.104,99.21,369.836,116.861,405.71,96.394C405.942,95.973,405.942,95.973,405.71,96.394
			C406.519,95.656,406.519,95.656,405.71,96.394z"/>
		<path fill="#FEE1A3" d="M343.379,89.005c0.714,0.24,1.407,0.499,2.085,0.77c0.803,0.248,1.61,0.534,2.417,0.856
			c15.757,6.19,32.076,14.631,49.521,9.567c4.929-1.517,11.184-7.291,12.381-11.85c-0.02,0.005-3.921,1.715-3.939,1.72
			c-7.879,2.813-12.943-3.376-19.133-7.879c-1.127-1.125-4.127-2.001-6.378-0.875c-6.649,3.325-12.55,6.408-19.735,5.418
			c0.008,0.142,0.012,0.282,0.021,0.425c-3.611,0.352-7.047-0.114-9.771-2.104c-10.241-7.478-20.808-7.803-22.434,0.97
			c-0.389,2.097-0.304,4.286,0.205,6.466c2.505-2.211,5.35-3.371,8.377-3.694C338.939,88.303,341.24,88.285,343.379,89.005z"/>
		<path fill="#FDB31A" d="M413.159,88.943c-1.688-2.814-5.533,1.75-7.784,2.313c-7.879,2.814-10.974,0.75-17.164-3.751
			c-1.125-1.125-3.781-4.279-7.339-3.805c-3.891,0.519-8.418,3.147-12.263,9.995c0.992-4.082,1.917-6.024,2.469-6.659
			c-0.009,0.648-3.131,1.64-5.655,2.498c-2.069,0.704-7.132,1.06-9.543,0.095c-1.907,0.07,1.232,2.568-0.338,1.505
			c-8.964-6.073-22.849-11.012-25.549-2.508c-2.935,9.243,13.215,28.435,37.437,22.511c-2.52,7.975-14.387,13.746-15.118,21.386
			c-0.268,2.793,2.677,6.77,4.787,8.253c3.154,2.219,7.334,2.701,11.086,2.766c7.011,0.121,13.855-1.092,18.607-6.625
			c3.71-4.319,7.106-10.073,9.255-15.332c5.024-12.307,11.536-14.283,17.112-26.45C414.284,92.882,414.284,90.068,413.159,88.943z
			 M405.71,96.394c-6.15,7.711-12.927,20.067-18.343,31.441c-4.502,9.004-13.037,11.193-22.041,9.504
			c-4.502-0.562-6.003-9.035-3.188-11.849c5.064-6.19,7.866-10.318,7.514-16.648c-13.985,6.026-36.262-7.525-34.669-16.044
			c0.518-2.766,3.96-5.287,8.397-3.793C363.669,95.834,368.253,116.035,405.71,96.394C405.942,95.973,405.942,95.973,405.71,96.394
			C406.519,95.656,406.519,95.656,405.71,96.394z"/>
		<path fill="#F8F8F7" d="M442.695,80.014c-3.576-34.138-32.822-37.181-40.315-38.039c-18.202-2.085-43.686,11.679-41.782,44.757
			c7.186,0.99,13.836-1.781,20.485-5.105c2.251-1.125,4.501-0.562,5.628,0.562c6.189,4.502,11.254,10.692,19.133,7.879
			c2.251-0.563,5.627-3.939,7.315-1.125c1.125,1.125,1.125,3.939,0,6.19c-5.576,12.167-12.517,22.968-17.541,35.275
			c0.38-0.834,0.755-1.718,1.127-2.655c0.562-1.688,9.662-3.357,14.726-5.045c-4.501,2.25-9.566,4.502-11.817,9.004
			c-0.562,1.125,2.251,0,3.939,0.562c-7.315,2.251-11.442,12.818-13.13,20.134c-1.502-3.002-4.315-4.94-4.315-4.94
			c-1.008,0.797-1.125,6.753-5.064,7.878c0.562-1.688-1.688-2.251-1.688-3.376c-5.293,10.105-13.059,18.149-23.29,21.677
			c-2.535,2.689,1.088,1.142-1.658,3.924c-0.714,1.069-2.812,4.385-3.392,5.546c-2.252,4.502-9.928,11.622-12.178,16.124
			c-10.129,18.571-21.658,25.011-23.534,51.648c-0.842,11.96-0.092,29.825,6.598,44.343c4.56,8.76,5.271,13.727,12.961,19.911
			c6.979,3.294,13.998,6.666,21.42,9.029c2.814,1.125,6.19,1.688,6.753-2.251c6.753,5.627,11.198,8.472,19.639,5.658
			c0,0,2.685-0.391,3.071-3.346c0.27-0.562-0.241-1.62-0.762-1.75c0.599,0,0.354,0.404,0.762,0.719
			c4.591,2.718,11.1,9.8,18.371,7.723c0.562,0,0.562-2.251,0.562-3.377c1.689,2.813,4.503,6.753,6.753,5.064
			c2.252-1.125,0.563-5.064-1.125-7.315c1.125,1.688,3.377,2.814,5.065,1.688c3.147-3.541-0.453-11.415-1.407-15.977
			c-2.174-4.132-1.546-4.731-4.489-6.069c-11.256-6.19-16.349-5.281-30.12-10.031c5.628-3.501,5.628-3.501,8.441-4.627
			c-11.255-7.879-20.822-15.632-27.012-28.013c-1.126-2.251-2.252-5.627-1.688-8.441c1.688,1.126,3.938,2.814,6.19,3.377
			c0-7.316-1.126-14.068-0.563-21.385c1.688,1.688,4.502,5.628,4.502,3.939c4.166-15.104,11.715-26.345,23.075-35.075
			c-3.694-6.852-4.915-15.247-2.922-21.331c2.103-6.417,7.006-4.813,13.093-5.911c-1.725-14.831-1.145-27.707,3.446-35.005
			C418.637,122.28,446.272,114.152,442.695,80.014z"/>
		<path fill="#EEEDEA" d="M442.695,80.014c-3.576-34.138-27.357-34.487-34.835-35.462c-19.232-2.508-43.962,8.552-42.059,41.63
			c6.024-0.95,7.882-1.543,14.531-4.868c2.251-1.125,5.251-0.25,6.378,0.875c6.189,4.502,11.254,10.692,19.133,7.879
			c2.251-0.563,5.627-3.939,7.315-1.125c1.125,1.125,1.125,3.939,0,6.19c-5.576,12.167-12.517,22.968-17.541,35.275
			c0.38-0.834,0.755-1.718,1.127-2.655c0.562-1.688,9.662-3.357,14.726-5.045c-4.501,2.25-9.566,4.502-11.817,9.004
			c-0.562,1.125,2.251,0,3.939,0.562c-7.315,2.251-11.442,12.818-13.13,20.134c-1.502-3.002-4.315-4.94-4.315-4.94
			c-1.008,0.797-1.125,6.753-5.064,7.878c0.562-1.688-1.688-2.251-1.688-3.376c-5.293,10.105-13.059,18.149-23.29,21.677
			c-2.535,2.689,1.088,1.142-1.658,3.924c-0.714,1.069-2.812,4.385-3.392,5.546c-2.252,4.502-9.928,11.622-12.178,16.124
			c-6.235,8.518-21.658,25.011-23.534,51.648c-0.842,11.96-0.092,29.825,6.598,44.343c4.56,8.76,5.271,13.727,12.961,19.911
			c6.979,3.294,13.998,6.666,21.42,9.029c2.814,1.125,6.19,1.688,6.753-2.251c6.753,5.627,11.198,8.472,19.639,5.658
			c0,0,2.685-0.391,3.071-3.346c0.27-0.562-0.241-1.62-0.762-1.75c0.599,0,0.354,0.404,0.762,0.719
			c4.591,2.718,11.1,9.8,18.371,7.723c0.562,0,0.562-2.251,0.562-3.377c1.689,2.813,4.503,6.753,6.753,5.064
			c2.252-1.125,0.563-5.064-1.125-7.315c1.125,1.688,3.377,2.814,5.065,1.688c3.147-3.541-0.453-11.415-1.407-15.977
			c-2.174-4.132-1.546-4.731-4.489-6.069c-11.256-6.19-16.349-5.281-30.12-10.031c5.628-3.501,5.628-3.501,8.441-4.627
			c-11.255-7.879-20.822-15.632-27.012-28.013c-1.126-2.251-2.252-5.627-1.688-8.441c1.688,1.126,3.938,2.814,6.19,3.377
			c0-7.316-1.126-14.068-0.563-21.385c1.688,1.688,4.502,5.628,4.502,3.939c4.166-15.104,11.715-26.345,23.075-35.075
			c-3.694-6.852-4.915-15.247-2.922-21.331c2.103-6.417,7.006-4.813,13.093-5.911c-1.725-14.831-1.145-27.707,3.446-35.005
			C418.637,122.28,446.272,114.152,442.695,80.014z"/>
		<path fill="#EEEDEA" d="M426.666,270.711c2.813,0,6.753-0.562,7.878,1.126c2.252,3.376-5.064,6.753-3.376,11.817
			c2.251-1.125,4.502,0,6.753-1.125c-2.814,2.813-6.19,6.752-5.628,11.255c2.813-4.503,7.878-4.503,12.381-3.377
			c-4.503,4.502-10.692,9.567-10.692,16.32c8.054-8.591,23.275-8.471,34.432-5.021c1.627-0.237,3.307-0.379,5.062-0.392
			c0.216-3.901-11.706-11.271-16.475-11.271c4.553-3.902,17.774-4.553,17.774-4.553c-2.385-4.551-14.739-7.369-20.375-5.419
			c1.951-3.034,10.404-9.969,14.306-8.887c-2.383-3.251-16.906-4.118-23.191-0.217c0.866-3.251,7.803-9.536,7.803-9.536
			c-2.17-0.814-8.408-0.187-14.368-0.08C436.519,265.78,430.943,268.572,426.666,270.711z"/>
		<path fill="#F8F8F7" d="M399.653,185.735c-0.395-2.757-0.237-5.24-0.106-7.832c-4.788,0.682-8.739,1.266-10.586,6.582
			c-4.1,11.801,4.127,27.167,17.777,37.085c0.96-0.516,1.892-1.078,2.801-1.674c-4.706-7.605-4.79-17.388-6.51-26.845
			C402.468,190.8,400.216,188.55,399.653,185.735z"/>
		<path fill="#DBD9D7" d="M457,222.743c14.307-5.526,1.302-19.507-8.452-19.833c-5.741-6.132-11.222-10.84-16.365-14.448
			c-5.141,13.246-13.194,26.517-25.444,33.107c0.077,0.061,0.153,0.123,0.231,0.182c-11.915,11.97-23.574,21.128-29.264,30.388
			c-7.275,11.844,3.788,29.519,10.809,34.49c11.1,7.857,46.217,8.154,41.526-7.478c-2.25-7.878-15.193-1.688-22.509,0
			c5.064-3.939,4.502-10.13,3.938-15.758c5.065,3.94,12.382,4.503,18.009,2.814c2.321-0.773,4.377-2.612,5.436-5.15
			c-0.245-2.104-1.414-4.125-3.057-5.262c26.877,3.902,24.709-11.271,18.207-13.438C474.342,241.059,467.729,225.02,457,222.743z"/>
		<linearGradient id="SVGID_11_" gradientUnits="userSpaceOnUse" x1="396.0762" y1="192.3398" x2="435.8443" y2="279.7542">
			<stop  offset="0" style="stop-color:#F4F3F2"/>
			<stop  offset="1" style="stop-color:#A4A19C"/>
		</linearGradient>
		<path fill="url(#SVGID_11_)" d="M451.365,222.744c14.306-5.527,8.222-16.687-2.817-19.833
			c-5.741-6.132-27.556-23.599-37.742-23.599c-5.141,13.246,8.183,35.668-4.067,42.259c0.077,0.061,0.153,0.123,0.231,0.182
			c-11.915,11.97-23.574,21.128-29.264,30.388c-7.275,11.844,3.788,29.519,10.809,34.49c11.1,7.857,46.217,8.154,41.526-7.478
			c-2.25-7.878-18.382,0.249-25.698,1.938c5.064-3.938,5.766-12.755,2.251-20.067c5.065,3.939,12.381,4.499,18.01,2.81
			c6.151-2.051,1.595-10.164-1.877-12.567c26.877,3.9,24.135-10.589,17.633-12.756C464.635,237.208,463.058,230.92,451.365,222.744z
			"/>
		<path fill="#F8F8F7" d="M391.212,250.452c9.004-7.878,23.072-12.381,26.449-24.198c3.733-12.8-9.718-24.584-22.152-29.614
			c0.317,9.488,5.208,19.185,11.461,25.112c-11.915,11.97-21.947,19.892-29.264,30.388c-6.35,9.112,0.357,22.766,6.42,30.172
			C381.694,270.866,382.755,258.019,391.212,250.452z"/>
		<path fill="#EEEDEA" d="M405.844,257.768c3.377-2.25,3.377-6.753,3.939-10.692c2.813,3.377,8.441,2.251,10.129-1.688
			c1.688-3.377,1.688-7.316,1.688-11.255c3.377,3.938,9.567,5.063,12.381,2.813c3.939-3.939,1.688-11.817,0-17.444
			c1.033,3.443,11.178,4.624,13.7,3.105c7.753-4.67-0.214-14.341-4.669-17.3c-5.952-3.954-10.048-9.875-15.2-14.7
			c-4.836-4.529-10.919-8.645-17.007-11.295c-2.621-1.142-5.428-1.801-8.295-1.868c-6.087,1.098-10.287-1.552-12.503,4.827
			c-4.127,11.88,9.364,32.085,21.182,41.089c-11.914,11.97-21.947,19.472-29.263,29.969c-7.012,10.061-2.324,24.475,4.059,31.084
			c0.203-9.171,2.349-18.329,6.353-26.645C396.277,260.581,402.468,260.581,405.844,257.768z"/>
		<g>
			<linearGradient id="SVGID_12_" gradientUnits="userSpaceOnUse" x1="292.144" y1="-32.8472" x2="473.8947" y2="488.4893">
				<stop  offset="0" style="stop-color:#0040C4"/>
				<stop  offset="0.8727" style="stop-color:#00ABC4"/>
			</linearGradient>
			<path fill="url(#SVGID_12_)" d="M437.006,383.354c0.173,0.049,0.349,0.1,0.524,0.15
				C437.339,383.447,437.161,383.396,437.006,383.354z"/>
			<path fill="#FD991A" d="M327.903,392.782l7.878,3.859l29.92-15.007c0,0-4.532-1.97-14.646,0
				C340.94,383.604,327.903,392.782,327.903,392.782z"/>
			<path fill="#D15400" d="M354.615,337.568c2.803,7.078,10.479,27.247,9.562,33.594c-1.118,7.743-20.552,4.259-33.162,1.625
				c-14.793-3.088-26.823,5.689-12.842,10.729c-7.641,3.414-4.227,17.068,11.704,9.266c15.931-7.803,25.685-9.266,25.685-9.266
				c-12.03,5.364-21.295,12.191-22.107,16.256c-0.813,4.064,3.088,11.38,16.743,0c13.655-11.379,22.433-14.956,26.335-13.167
				c3.901,1.788,15.734,2.98,15.769-3.089c0.037-6.594-8.921-7.708-12.907-8.666c-3.347-0.805-11.15-29.328-13.567-38.453
				c0.056-0.055,0.105-0.112,0.16-0.168C362.524,338.688,358.296,339.063,354.615,337.568z M364.116,337.707
				c2.578,9.223,11.046,39.035,13.066,39.541c3.252,0.813,11.432,0.318,12.193,6.341c0.649,5.147-9.213,3.396-13.113,1.608
				c-3.901-1.788-12.158,1.541-26.01,12.68c-11.921,9.585-15.011,5.869-14.198,1.805c0.813-4.064,13.438-12.588,25.469-17.952
				c0,0-14.956,1.3-30.886,9.104c-14.245,6.976-15.09-1.726-9.863-5.944c5.907-4.768,28.769-5.669,30.779-5.869
				c-0.874-0.315-26.986,0.434-32.025,3.63c-10.447-4.88,2.221-9.465,13.352-7.903c12.758,1.79,32.618,6.02,33.737-1.725
				c0.981-6.796-7.712-29.336-9.853-34.748c1.011,0.347,2.072,0.541,3.188,0.539C361.581,338.81,362.956,338.385,364.116,337.707z"
				/>
			<path fill="#878582" d="M409.559,339.819c2.76,0.543,5.302,0.444,7.281-0.823c0.035,0.07,0.073,0.148,0.109,0.221
				c0.615-0.418,1.192-0.96,1.721-1.652c-0.03-0.064-0.062-0.131-0.092-0.193c1.499-1.981,2.385-5.177,2.362-10.038
				c20.999-9.352,32.027-25.864,52.534-26.018c0.216-3.901-11.706-11.271-16.475-11.271c4.553-3.902,17.774-4.553,17.774-4.553
				c-2.385-4.551-14.739-7.369-20.375-5.419c1.951-3.034,10.404-9.969,14.306-8.887c-2.383-3.251-16.906-4.118-23.191-0.217
				c0.866-3.251,7.803-9.536,7.803-9.536c-2.667-1-11.478,0.175-18.366-0.113c-0.173-2.197-1.382-4.339-3.092-5.523
				c26.877,3.902,24.709-11.271,18.207-13.438c24.276-1.301,17.664-17.34,6.935-19.616c14.307-5.526,1.302-19.507-8.452-19.833
				c-19.272-20.582-35.625-25.226-46.037-25.46c-1.725-14.834-1.146-27.712,3.446-35.012c12.68-20.158,40.315-28.286,36.738-62.424
				c-3.576-34.138-32.837-37.063-40.315-38.039c-19.192-2.503-43.555,12.246-41.761,45.182c0.682-0.084,1.363,0.014,1.998-0.271
				c-1.571-29.26,20.543-45.576,39.763-43.069c7.479,0.976,34.355,2.493,37.932,36.631c3.577,34.138-24.167,40.965-36.848,61.122
				c-4.612,7.333-4.647,20.35-2.942,35.888c-6.452,0.201-10.139,2.043-10.139,2.043s26.303-9.428,56.431,25.469
				c9.754,0.325,23.084,13.438,4.552,17.774c15.931,3.684,15.931,19.724-8.02,16.581c14.414,8.128,6.286,19.183-19.832,11.704
				c12.788,7.479,10.187,21.893-13.981,12.355c5.311,5.418-0.866,15.93-2.6,16.798c5.201-2.384,17.579-4.553,20.699-3.252
				s7.153,12.354-15.498,14.738c-23.924,2.518-43.8-24.113-31.445-41.29c11.374-15.814,27.706-28.773,27.706-28.773
				c-3.414-0.976-16.684-15.271-18.073-19.776c1.275,4.134,4.485,9.976,15.708,19.964c0,0-14.433,12.119-27.708,28.151
				c-13.495,16.297,7.152,45.518,33.597,43.133c26.442-2.385,19.724-15.605,16.604-16.905c-3.12-1.302-11.402-1.519-16.604,0.866
				c1.733-0.867,3.25-7.804,1.3-10.621c13.941,4.318,19.875,1.544,21.362-2.369c5.012-0.208,10.007-1.066,12.233-0.231
				c0,0-5.418,7.586-5.635,13.655c5.853-5.636,13.158-5.861,17.123-4.77c-3.736,2.199-6.719,8.889-8.67,11.923
				c5.635-1.951,10.56-3.229,15.389-1.084c0,0-9.97,2.601-14.076,8.886c4.769,0,14.771,3.732,17.544,6.936
				c-17.729,0.338-23.729,15.954-47.641,25.302c-0.229-3.625-0.882-8.022-2.049-13.326c1.138,26.394-3.089,28.329-13.818,24.102
				c-10.729-4.226-24.137-17.273-24.137-17.273s5.438,6.806,12.209,12.673c-8.912,0.706-17.686-0.141-25.979-2.339
				c-34.413-9.121-60.604-41.402-54.427-81.698c6.629-43.241,46.06-64.483,60.039-90.493c1.808-3.363,3.028-6.411,3.786-9.25
				c0.266-0.026,0.529-0.063,0.792-0.097c-1.254,0.059-2.508,0.159-3.763,0.293c-0.789,2.608-1.969,5.416-3.633,8.512
				c-5.91,10.994-16.775,20.827-27.753,32.222c-16.026,1.098-34.871,4.27-42.04,12.825c3.63-7.099,1.492-17.664,1.492-17.664
				s9.941,3.169,16.282-0.325c3.9,2.167,14.955-1.301,12.103-11.488c4.37,0.215,11.089-2.384,7.483-11.488
				c3.173,0.648,10.325-1.083,7.236-8.562c-1.395-3.376-9.916-7.021-16.5-8.778c-1.599-0.427-3.125-0.873-4.605-1.265
				c0.956-3.509,3.535-13.644,3.06-19.219c-0.703-8.252-9.572-15.262-16.844-6.816c-4.021,4.671-0.329,11.725,0,20.959
				c0.089,2.504-0.113,4.351-0.403,5.694c-3.732,1.973-7.767,5.84-12.555,12.782c-13.108,19.008-35.195,21.397-46.601,52.613
				c-6.502,17.796,4.552,37.338,8.887,36.471c4.334-0.867,5.852-8.4,5.852-8.4s0.217,23.789,8.453,23.791
				c6.039,0,8.02-11.271,8.02-11.271s1.084,19.072,11.271,20.375c6.055,0.772,6.069-9.104,6.069-9.104s3.305,11.65,10.272,10.473
				c3.033,22.47,15.988,40.394,34.354,51.495c1.661,4.402,5.379,12.587,11.055,16.075c0.05,0.127,0.105,0.269,0.16,0.404
				c3.681,1.495,7.896,2.33,11.372-1.339c1.449-1.47,2.422-3.33,3.06-4.939c6.444,1.451,13.185,2.247,20.112,2.32
				c2.447,0.026,4.785-0.051,7.035-0.208c2.629,2.009,5.356,3.729,7.974,4.76c0.862,0.339,1.724,0.65,2.576,0.922
				c0.11,0.19,0.235,0.41,0.37,0.645c0.898,0.189,1.794,0.369,2.676,0.502C409.712,340.093,409.631,339.948,409.559,339.819z
				 M322.401,115.941c3.737,4.532,3.588,14.283-0.397,24.911c-3.649-0.861-7.075-1.205-10.729,0.158
				c0.262-4.422,0.522-10.622-1.358-19.256C308.512,115.305,318.284,110.947,322.401,115.941z M308.852,250.379
				c-0.562,5.199-0.627,10.226-0.249,15.059c-0.172,0.058-0.339,0.104-0.496,0.131c-6.239,1.067-8.466-8.453-9.767-11.541
				c-0.163,0.812-0.397,10.129-4.335,11.055c-7.354,1.729-12.393-15.367-11.921-22.109c-0.326,2.112-3.323,10.465-8.453,13.167
				c-5.13,2.703-7.641-19.02-8.291-23.083c-2.438,4.552-5.039,6.339-7.315,6.015c-2.276-0.325-9.804-11.379-6.014-31.374
				c1.379-7.285,6.176-16.066,12.191-20.926c6.016-4.859,25.197-20.527,30.074-26.379c4.877-5.853,12.331-16.745,19.995-18.695
				c7.665-1.949,26.335,7.478,28.449,10.729s-0.976,5.69-3.089,6.178c-2.113,0.487-10.242-5.69-17.557-5.364
				c2.439,0,10.025,2.238,13.493,6.827c2.862,3.788-0.617,10.256-6.339,9.212c-4.146-4.253-10.729-5.798-10.729-5.798
				s12.479,7.559,8.697,13.492c-3.26,5.114-7.884,4.552-7.884,4.552s1.306-1.287-0.163-3.143c-1.951-2.466-4.877-0.943-4.877-0.943
				s3.414,2.866,0.813,4.654c-2.601,1.789-12.029,0.082-15.443-0.894c3.414,22.84-10.08,33.326-13.494,36.576
				c5.365-1.301,9.917-6.827,13.494-14.468c6.339-8.127,19.182-10.566,33.325-12.842c2.394-0.385,4.98-0.67,7.625-0.883
				C326.105,204.819,311.815,222.996,308.852,250.379z M359.465,335.446c-6.093,0.564-10.987-7.71-13.414-12.829
				c6.265,3.471,13.102,6.177,20.346,8.036C365.495,332.916,363.789,335.046,359.465,335.446z"/>
			<path fill="#D15400" d="M486.587,378.387c-9.756,0.241-45.842-3.128-49.419-5.989c-2.982-2.386-14.784-26.987-18.59-35.026
				c-0.528,0.692-1.123,1.208-1.738,1.625c4.563,9.173,16.256,32.32,19.109,34.604c3.576,2.862,39.503,6.545,49.256,6.91
				c8.697,0.325,10.784,2.698,8.859,5.852c-1.467,2.405-6.134,1.942-13.005,0.966c-2.752-0.391-24.526-5.689-31.861-6.665
				c3.357,1.288,27.239,7.161,29.911,10.566c4.061,5.177-1.301,9.194-11.218,2.773c-5.016-3.249-26.386-9.431-30.886-10.648
				c0.155,0.042,0.333,0.094,0.524,0.15c-0.176-0.051-0.352-0.102-0.524-0.15c0.214,0.062,0.426,0.123,0.637,0.185
				c1.552,0.468,4.183,1.382,7.282,2.527c4.705,2.014,9.264,4.932,15.652,10.537c8.615,7.56,2.275,11.055-4.39,8.615
				c-6.469-2.365-12.679-10.022-23.408-16.581c-9.302-5.686-9.022-1.706-16.582-3.82c-7.559-2.113-5.039-4.958-1.462-5.12
				c1.948-0.089,12.029-1.31,12.029-5.537c0-3.484-12.797-26.511-17.206-34.34c-0.883-0.134-1.815-0.32-2.814-0.735
				c3.731,6.511,17.095,30.083,17.095,33.703c0,4.227-10.082,5.348-12.03,5.437c-3.576,0.163-4.389,5.293,3.17,7.406
				s7.524-1.352,16.826,4.333c10.729,6.558,18.076,14.434,24.546,16.8c6.665,2.438,16.744-1.554,6.99-10.169
				c-4.163-3.677-8.33-6.27-12.269-8.187c6.705,2.626,13.698,5.604,16.333,7.301c10.729,6.909,23.57,1.22,11.704-6.989
				c6.989,3.251,16.736,2.186,18.37-1.392C499.186,383.589,496.829,378.133,486.587,378.387z"/>
			<g>
				
					<ellipse transform="matrix(0.3004 -0.9538 0.9538 0.3004 188.9838 403.2368)" fill="#FFFFFF" cx="369.36" cy="72.797" rx="14.125" ry="8.53"/>
				<g>
					<g>
						<path fill="#333333" d="M360.466,69.83c-2.465,7.729-0.415,15.284,4.578,16.877c4.993,1.593,11.04-3.381,13.505-11.109
							c2.467-7.728,0.416-15.284-4.578-16.877C368.978,57.128,362.931,62.102,360.466,69.83z M361.641,70.096
							c2.278-7.143,7.694-11.795,12.098-10.391c4.402,1.404,6.124,8.333,3.846,15.477c-2.279,7.143-7.695,11.795-12.098,10.391
							C361.085,84.169,359.363,77.24,361.641,70.096z"/>
						
							<linearGradient id="SVGID_13_" gradientUnits="userSpaceOnUse" x1="576.9854" y1="61.9541" x2="584.9386" y2="84.7673" gradientTransform="matrix(-1 0 0 1 949.9336 0)">
							<stop  offset="0" style="stop-color:#0040C4"/>
							<stop  offset="0.8727" style="stop-color:#00ABC4"/>
						</linearGradient>
						<path fill="url(#SVGID_13_)" d="M372.424,62.395c3.669,1.155,5.092,7.018,3.179,13.093c-1.914,6.077-6.439,10.066-10.108,8.91
							c-3.667-1.155-5.091-7.018-3.177-13.094C364.23,65.229,368.757,61.24,372.424,62.395z"/>
						
							<ellipse transform="matrix(0.3004 -0.9538 0.9538 0.3004 186.4315 403.3332)" cx="368.171" cy="74.575" rx="7.848" ry="4.739"/>
					</g>
					<ellipse fill="#FFFFFF" cx="373.27" cy="66.954" rx="2.167" ry="2.268"/>
				</g>
			</g>
			<path fill="#D94204" d="M393.276,135.285c1.125-2.546,2.289-5.062,3.469-7.532c0.272-0.043,0.605-0.099,0.984-0.168
				c0.39-0.781,0.451-1.715,0.662-2.546c-0.117,0.008-0.23,0.019-0.349,0.025c5.801-11.877,11.776-22.449,15.229-29.444
				c3.171-6.421-1.706-9.916-6.339-7.315c-4.853,2.723-10.648,1.463-14.236-2.886c-2.183-2.645-4.621-5.974-10.148-5.405
				c-2.645,0.272-11.491,5.42-19.931,6.873c-0.949,0.117-0.949,0.117-1.998,0.271c-3.611,0.352-7.047-0.114-9.771-2.104
				c-10.241-7.478-20.808-7.803-22.434,0.97c-2.519,13.592,14.793,31.036,39.015,25.112c-2.52,7.975-14.387,13.746-15.118,21.386
				c-0.738,7.707,10.161,14.492,21.215,14.656c-0.008,0.026-0.018,0.053-0.025,0.079c1.255-0.134,2.509-0.234,3.763-0.293
				C383.851,146.116,390.024,142.646,393.276,135.285z M353.396,132.143c0.731-7.641,12.625-10.724,14.521-21.436
				c-20.808,4.421-40.423-10.886-37.714-23.54c1.844-8.614,10.188-7.82,20.257-0.603c0.359,0.401,20.322,22.481,45.587,9.479
				c-5.424,2.634-22.532,8.721-41.345-7.396c5.186,1.345,11.39-0.586,16.545-2.698c-0.474,0.667-0.913,1.554-1.217,2.752
				c2.762-3.41,7.672-5.566,7.681-5.57c1.353-0.579,2.436-0.986,3.133-1.058c5.527-0.569,8.542,2.123,10.726,4.769
				c3.588,4.348,9.97,5.758,14.821,3.035c4.633-2.602,7.894,0.216,5.418,5.31c-3.599,7.405-9.678,17.66-15.641,29.949
				c0,0-0.002,0-0.003,0c-0.002,0.004-0.004,0.013-0.005,0.019c-1.264,2.604-2.521,5.293-3.75,8.072
				C383.144,154.197,352.13,145.36,353.396,132.143z"/>
			<path fill="#878582" d="M415.385,119.589c0,0-6.603,4.717-16.993,5.45c-0.211,0.831-0.272,1.765-0.662,2.546
				C401.634,126.877,410.739,124.737,415.385,119.589z"/>
			<path fill="#5F050F" d="M373.87,111.384c0,0-2.643,6.353-5.072,10.089c-2.312,3.553-4.457,9.169-1.693,10.308
				c-0.812-3.468,0.65-5.527,2.67-8.941C373.037,117.323,373.87,111.384,373.87,111.384z"/>
			<path fill="#5F050F" d="M385.448,106.122c-0.077,0.193-0.077,0.193-0.151,0.26c-1.297,1.669-3.332,4.672-3.183,6.931
				c1.994-2.959,4.955-6.256,6.521-7.938C387.628,105.649,386.479,105.918,385.448,106.122z"/>
			<path fill="#5F050F" d="M394.867,102.997c-1.078,1.473-2.829,4.033-4.008,5.872c-3.06,4.771-9.395,9.04-14.229,14.864
				c-1.851-9.62,3.842-15.516,5.178-16.769c-0.021,0,0.322-0.32,0.344-0.32c0.178-0.167-0.045,0.005-0.045,0.005l-1.263,0.143
				c0,0-2.522,2.555-4.907,7.47c-2.385,4.917-0.108,12.75-0.108,12.75s3.08-4.641,7.247-7.911
				c7.059-5.539,12.321-13.996,14.206-17.299C396.54,102.141,395.688,102.555,394.867,102.997z"/>
			<path fill="#D94204" d="M405.63,92.599c0,0,1.008,0.429,1.812,1.321c-2.725,2.066-17.126,12.43-30.72,11.454
				c-15.091-1.084-24.736-13.153-34.165-14.414c-1.057-0.141-2.764-0.102-2.764-0.102s-5.201-1.514-7.152,2.698
				c1.814-1.554,3.53-1.759,4.662-1.654c-2.747,1.995-2.042,6.563,4.604,11.088c-6.116-4.443-6.218-10.326,1.301-9.32
				c9.428,1.261,18.613,12.029,33.705,13.113c1.238,0.088,2.465,0.086,3.677,0.019c2.754-0.229,5.437-0.718,8.046-1.426
				c0.006-0.005,0.012-0.012,0.017-0.017c3.893-1.155,5.941-2.233,6.354-2.426c0.276-0.149,2.044-1.002,2.274-1.13
				c5.089-2.679,7.72-5.201,7.72-5.201c-10.079,9.428-13.268,21.442-19.202,31.494c-6.611,11.199-26.442,12.174-24.167,0
				c0.953-5.097,9.596-9.211,8.02-19.254c0.186,8.742-8.718,15.057-9.645,20.159c-0.215,1.183-0.218,2.252-0.045,3.212
				c-0.941-0.69-1.934-1.569-2.61-2.583c0,0,1.218,5.208,5.281,6.852c0,0,0,0-0.001,0c6.002,4.505,19.986,1.898,25.009-6.831
				c5.73-9.958,11.838-26.242,19.882-35.64c0.738,0.862,1.26,2.131,0.583,3.836C409.314,96.883,411.087,92.282,405.63,92.599z"/>
		</g>
		<g>
			
				<ellipse transform="matrix(-0.3004 -0.9538 0.9538 -0.3004 455.9631 476.9546)" fill="#FFFFFF" cx="402.904" cy="71.253" rx="16.737" ry="10.106"/>
			<g>
				<g>
					<path fill="#333333" d="M397.442,54.575c-5.917,1.887-8.346,10.84-5.425,19.997c2.92,9.157,10.085,15.05,16.002,13.163
						c5.916-1.888,8.345-10.84,5.424-19.998C410.523,58.581,403.358,52.688,397.442,54.575z M407.495,86.392
						c-5.216,1.664-11.634-3.849-14.334-12.313c-2.7-8.464-0.659-16.674,4.557-18.338c5.217-1.664,11.635,3.849,14.334,12.312
						C414.75,76.518,412.71,84.728,407.495,86.392z"/>
					<linearGradient id="SVGID_14_" gradientUnits="userSpaceOnUse" x1="398.6523" y1="58.4058" x2="408.0756" y2="85.4356">
						<stop  offset="0" style="stop-color:#0040C4"/>
						<stop  offset="0.8727" style="stop-color:#00ABC4"/>
					</linearGradient>
					<path fill="url(#SVGID_14_)" d="M399.274,58.928c-4.347,1.369-6.032,8.315-3.766,15.514c2.269,7.2,7.63,11.926,11.977,10.557
						c4.347-1.369,6.032-8.314,3.765-15.514C408.982,62.286,403.62,57.56,399.274,58.928z"/>
					<ellipse transform="matrix(-0.3004 -0.9538 0.9538 -0.3004 455.8116 481.035)" cx="404.313" cy="73.36" rx="9.3" ry="5.614"/>
				</g>
				<ellipse fill="#FFFFFF" cx="398.272" cy="64.33" rx="2.568" ry="2.688"/>
			</g>
		</g>
	</g>
	<polygon fill="#D15400" points="465.308,400.112 472.905,397.768 470.373,396.548 463.619,398.638 	"/>
	
		<ellipse transform="matrix(0.4077 -0.9131 0.9131 0.4077 141.5648 398.7371)" fill="#392911" cx="378.141" cy="90.246" rx="2.624" ry="1.425"/>
	<g>
		<path fill="#D15400" d="M358.255,345.062c0,0,3.675-0.046,7.038-1.823c-0.786,0.854-4.251,3.079-6.779,3.278
			C358.207,345.606,358.255,345.062,358.255,345.062z"/>
		<path fill="#D15400" d="M361.444,354.638c0,0,4.335-0.379,7.701-2.156c-0.786,0.854-4.916,3.411-7.443,3.611
			C361.396,355.183,361.444,354.638,361.444,354.638z"/>
		<path fill="#D15400" d="M364.226,364.861c0,0,3.865-0.187,7.23-1.965c-0.196,1.33-4.438,3.611-6.967,3.812
			C364.183,365.798,364.226,364.861,364.226,364.861z"/>
	</g>
	<g>
		<path fill="#D15400" d="M420.066,343.039c0,0-2.712,2.48-6.382,3.484c1.158,0.085,5.208-0.663,7.188-2.247
			C420.474,343.404,420.066,343.039,420.066,343.039z"/>
		<path fill="#D15400" d="M424.291,352.205c0,0-3.422,2.69-7.094,3.696c1.159,0.085,5.92-0.875,7.899-2.458
			C424.698,352.569,424.291,352.205,424.291,352.205z"/>
		<path fill="#D15400" d="M429.255,361.566c0,0-2.947,2.507-6.619,3.513c1.055,0.836,5.709-0.402,7.689-1.985
			C429.926,362.22,429.255,361.566,429.255,361.566z"/>
	</g>
	<polygon fill="#D15400" points="325.82,393.27 335.76,397.308 337.002,396.08 329.878,392.782 	"/>
</g>
<path fill="#878582" d="M406.219,221.346c0,0,8.239-4.291,15.288-5.347c-14.023,4.44-16.658,8.582-16.658,8.582L406.219,221.346z"/>
</svg>
