<svg xmlns="http://www.w3.org/2000/svg" viewBox="0 0 768 430"><style>.a{fill:#8A2B0E;}.b{fill:#A6420E;}.c{fill:#67200A;}.d{fill:#FFD4B5;}.e{fill:#FFE8D6;}.f{fill:#BF9F88;}.g{fill:#F86685;}.h{fill:#F991AC;}.i{fill:#FFF;}.j{fill:#594C44;}.k{fill:#9F7A1C;}.l{fill:#503D0E;}.m{fill:#CC9642;}.n{fill:#CCA657;}.o{fill:#997132;}.p{fill:#503C0E;}</style><path d="M376.1 344.8c0 0-6.3 7.7-5.8 18.4 1.7 3.3 5.8 2.6 8 2 0.9 1.5 5.9 4.8 12-0.4 6.1-5.2 5.6-15.9-1.9-19.3C380.9 342.1 380 342.5 376.1 344.8z" class="a"/><path d="M380 355.2c-2.4 8 5.6 11.2 11.2 8 0.6-0.5 1.1-1 1.6-1.5 3.2-5.5 1.8-13.4-4.4-16.2 -7.5-3.4-8.4-3-12.3-0.7 0 0-5.3 6.5-5.8 15.9 0 0 0.1 0 0.1 0C375.2 362.4 377.6 359.2 380 355.2z" class="b"/><path d="M383.6 368L383.6 368c-2.6 0-4.7-1.3-5.5-2.4 -4.1 1-6.9 0.3-8.2-2.3l0-0.2c-0.5-10.7 5.8-18.5 5.9-18.6l0.1-0.1c2-1.2 3.2-1.8 4.9-1.8s3.6 0.6 7.8 2.5c3.4 1.5 5.6 4.6 6.2 8.5 0.6 4.3-1 8.7-4.2 11.4C388.3 367 386 368 383.6 368zM378.5 364.7l0.2 0.3c0.4 0.7 2.2 2.2 5 2.2 2.1 0 4.3-0.9 6.4-2.7 3-2.5 4.5-6.6 3.9-10.7 -0.5-3.6-2.6-6.5-5.7-7.9 -4-1.8-5.9-2.4-7.4-2.4 -1.4 0-2.5 0.6-4.4 1.7 -0.5 0.7-6.1 8.1-5.7 17.9 1.2 2.2 3.7 2.7 7.5 1.7L378.5 364.7z" class="c"/><path d="M394.5 349.7c0 0-6.3 4.5-6.1 17.4 3.2 4 6.3 2.4 7.3 1.7 0.5 2.1 3.4 6.6 10.8 3.5 7.4-3.1 10.9-5.3 8.6-13.7 1.7 0.6 7.1-1.1 1.3-8.8C410.5 341.9 396.3 347.8 394.5 349.7z" class="a"/><path d="M396 360c-0.8 7.2 8 9.9 12.9 7.6 4.8-2.3 6.3-9 3.1-13 2.4 0.8 5.5 1 6.3-1.8 -0.4-0.9-1-1.9-1.9-3.1 -5.9-7.8-20-1.9-21.9 0 0 0-6.2 2-6.1 14.8 0.1 0.1 0 1.4 0.1 1.5C393.1 367.5 394.6 364.1 396 360z" class="b"/><path d="M401.8 373.7c-3.8 0-5.8-2.5-6.4-4.3 -0.7 0.4-1.6 0.7-2.6 0.7 -1.7 0-3.3-0.9-4.8-2.8l-0.1-0.1 0-0.1c-0.1-12.9 6-17.5 6.3-17.7 1.3-1.3 7.4-4 13.1-4 4.2 0 7.3 1.4 9.4 4.1 3.1 4.1 3 6.5 2.4 7.7 -0.7 1.4-2.2 1.9-3.2 1.9l0 0c-0.1 0-0.1 0-0.2 0 2 8-1.5 10.4-9 13.6C404.9 373.3 403.3 373.7 401.8 373.7zM395.9 368.1l0.1 0.6c0.4 1.6 2.1 4.3 5.8 4.3 1.3 0 2.8-0.3 4.4-1 7.5-3.1 10.6-5.3 8.4-13.2l-0.2-0.7 0.7 0.2c0.8 0.3 2.5 0 3.1-1.3 0.5-1.1 0.6-3.1-2.3-6.9 -1.9-2.5-4.8-3.8-8.7-3.8 -5.5 0-11.4 2.6-12.5 3.8 -0.1 0.1-6.1 4.6-6 16.9 1.3 1.6 2.7 2.3 4.1 2.3 1.1 0 2-0.5 2.6-0.9L395.9 368.1z" class="c"/><path d="M457.6 326.7c0 0-13.1 12.2-10.8 18.8 2 3.1 5.5 3.5 7.6 2.8 0.2 1.4 6.6 6.2 16.1 3.5 9.4-2.7 12.3-25.1 7-28.7C472.3 319.5 460.6 322.5 457.6 326.7z" class="a"/><path d="M452.6 345.6c1.2-0.9 2.5-2.6 3.4-4.9 -0.6 1.5-1 4.1 0.6 5.7 5.6 3.2 12 0 15.2-5.6 3.3-6.1 3.8-12.4 3.7-18.7 -5.8-1.9-15.2 0.9-17.9 4.6 0 0-11.3 10.7-11.1 16.7 0.1 0.2-0.1 1.2 0 1.4C448.1 345.8 450.3 347.3 452.6 345.6z" class="b"/><path d="M464.9 353C464.9 353 464.9 353 464.9 353c-5.8 0-9.9-2.7-10.7-4.2 -0.6 0.1-1.2 0.2-1.8 0.2 -2.5 0-4.6-1.2-5.9-3.2l0-0.1c-2.3-6.7 10.4-18.7 10.9-19.2 2.1-2.9 8.4-5.4 13.9-5.4 2.7 0 4.9 0.6 6.5 1.7 2.9 2 3.3 8.5 2.3 14.1 -1.1 6.4-4.1 13.8-9.5 15.3C468.7 352.7 466.7 353 464.9 353zM454.7 347.8l0.1 0.5c0.1 0.8 3.7 4 10.1 4 0 0 0 0 0 0 1.8 0 3.6-0.3 5.5-0.8 5-1.4 8-8.8 8.9-14.7 1-6.3 0.2-11.8-2-13.3 -1.5-1-3.5-1.5-6.1-1.5 -5.2 0-11.3 2.3-13.4 5.1 -0.2 0.2-12.9 12.1-10.8 18.4 1.6 2.5 4 2.8 5.3 2.8 0.7 0 1.3-0.1 1.9-0.3L454.7 347.8z" class="c"/><path d="M475.1 338.9c0 0-8.6 7.1-6.1 16.4 1.9 2.7 4.8 4.1 8.6 3.2 0.4 1.7 10.4 4.3 14.8 1.1 4.4-3.2 3-8.3 2.3-9.6 1.3 0.4 6.7 0.4 4.7-7.2C497.5 335.2 479.6 331.9 475.1 338.9z" class="a"/><path d="M491.7 345.6c0.3 0.1 0.5 0.1 0.8 0.2 0-0.1 0-0.1 0-0.2H491.7z" class="b"/><path d="M478.2 352c0 0.3 0 0.9 0 1.4C478.4 352.9 478.4 352.4 478.2 352z" class="b"/><path d="M475.8 356c0.6-0.6 1.8-1.9 2.2-3 0-0.5 0.6-0.8 0.6-1.1 0.2 0.5-0.1 0.7-0.3 1.2 -0.5 0.8-0.2 1.4 0 1.9 3.4 4.3 7.9 4.8 11.1 2.4 3.2-2.4 3.1-6.8 3.1-11.6 -0.3 0-0.5-0.1-0.8-0.2h0.8c0 0.1 0 0.1 0 0.2 3.5 0.5 5.4 0 6.1-4.7 -4-6.3-19.5-8.6-23.6-2.1 0 0-7.9 6.8-6.5 14.8C470.8 355.6 473.9 357.9 475.8 356z" class="b"/><path d="M486.5 361.6c-3.6 0-8.2-1.2-9.1-2.6 -3.5 0.8-6.6-0.4-8.7-3.4l-0.1-0.1c-2.5-9.1 5.5-16.2 6.2-16.8 1.6-2.5 5.2-4 9.7-4 6.4 0 14.1 3.1 15.3 8.1 0.7 2.8 0.5 5-0.5 6.3 -1 1.3-2.6 1.5-3.4 1.5l0 0c-0.2 0-0.3 0-0.5 0 0.7 2 1.3 6.5-2.7 9.4C490.8 361.3 488.3 361.6 486.5 361.6zM477.9 358.1l0.1 0.4c0.2 0.8 4.2 2.3 8.5 2.3 2.4 0 4.4-0.5 5.7-1.4 4.2-3 2.8-8 2.2-9.1l-0.5-0.9 0.9 0.3c0.3 0.1 0.6 0.1 1 0.1 0.7 0 2-0.2 2.8-1.2 0.9-1.2 1-3.1 0.4-5.6 -1.2-4.6-8.5-7.5-14.6-7.5 -4.3 0-7.6 1.3-9 3.7l-0.1 0.1c-0.1 0.1-8.4 7-6 15.9 2 2.8 4.8 3.8 8.1 3L477.9 358.1z" class="c"/><path d="M484.3 221.6c0 0 15.8-18.2 2.4-36.6 3.7 0 14.6 6 18.1 12.1 -0.4-3.7 0.1-7.6 0-8.2 3.1 2 7.7 10.1 7 16.4 2.3-3.1 4.7-6.6 4.7-6.6 0.7 3.2 2.4 10.5 0 14 2.4-2.4 5.7-5.6 5.7-5.6 -0.7 5.1-2.3 14-6.5 15.7 3.9-0.4 5.7-1.5 5.7-1.5 -1.2 2.9-10.1 16.6-24.5 13" class="d"/><path d="M504.5 225.9c5.5-1.8 8.8-6.4 12-10.4 -1.1 0.5-3.7 1.6-4.5 0.8 2.4-2.4 2.9-6.4 2.9-9.5 -0.8 2.4-2.8 3.5-4.4 5.4 -1.6-4-0.9-9.6-2.4-14.3 -0.4 1.5-1.5 6.6-3.1 7.4 0-1.6-1-5.2-1.8-6.8 -1.4-3.2-3-6-5.6-8.1 -4.5-3.4-8.5-5.4-10.9-5.4 13.4 18.4-2.4 36.6-2.4 36.6l11.8 11.9c4.5-1.6 10.2-3.4 14.1-6.2C508.7 227.3 506.1 225.9 504.5 225.9z" class="e"/><path d="M501.6 235.4c-1.5 0-3.1-0.2-4.8-0.6l0.2-0.8c12.8 3.2 21.3-7.8 23.5-11.8 -0.9 0.4-2.5 0.8-4.8 1.1l-2.8 0.3 2.6-1.1c2-0.8 4.6-3.9 6.1-14.2 -1.1 1.1-5.4 4.7-5.4 4.7 2.1-2.6 0.7-9.8 0-13.2 -0.8 1.2-2.5 3.6-4.1 5.8l-0.9 1.2 0.2-1.5c0.6-5.9-3.4-13.1-6.2-15.6 0 0.2 0 0.5 0 0.9 -0.1 1.6-0.2 4.1 0 6.5l0.2 1.9 -0.9-1.7c-3.2-5.7-12.8-11.1-16.9-11.8 12.5 18.2-2.8 36.2-2.9 36.4l-0.6-0.5c0.2-0.2 15.5-18.2 2.4-36.1l-0.5-0.6h0.8c3.8 0 13.4 5.3 17.6 11 -0.1-1.9 0-3.7 0.1-5 0-0.7 0.1-1.4 0-1.6l-0.2-0.9 0.8 0.5c3.1 2 7.2 9.4 7.3 15.4 2-2.8 3.8-5.5 3.9-5.5l0.5-0.8 0.3 1.5c0.6 3 1.7 8.1 0.7 11.7 2.1-2 4.2-4.1 4.2-4.1l0.8-0.8 -0.1 1.1c-1 7.7-2.8 12.8-5.2 15 2.5-0.5 3.8-1.2 3.8-1.2l1-0.6 -0.4 1.1C520.7 224.1 513.4 235.4 501.6 235.4z" class="f"/><path d="M302.6 234.5c0 0 13 22.5 27.5 26.9 -0.6-2.8-2.2-7.2-2.2-7.2 4.8 4.4 17 9 18.8 9.6 -4.6-4.4-13-12-13.6-14.7 3.4 1.9 7.8 2.1 10.4 2.7 -4.2-4-8-9.2-8-11.6 3.6 0.6 6 1.6 6 1.6 -3.8-4.4-9.2-8-9.2-12 2.8 1.8 6 1.8 6 1.8 -3.6-5.2-6.6-10-3-20" class="d"/><path d="M323.4 245c3.1 3.3 4.3 6.5 7.5 6.5 -1.6-4-2.9-5.9-2.9-9 2.4 1.2 5 3.8 7.4 3.8 -2.4-3.2-2.3-5.3-4.7-8.5 0.8 0 3.1-0.4 4.4 0.4 -3.2-3.1-6.8-9.6-4.5-12.8 3.2 2.2 1.6-7.6 2.3-8.7 -0.1-2.5 1.2-1.5 2.4-5l-32.7 22.7c0 0 2.2 3.8 5.7 8.5 4.6 4 9.9 8.7 15.9 10.7C323.4 251.3 323.4 247.4 323.4 245z" class="e"/><path d="M348.3 264.7l-1.7-0.6c-2-0.7-12.5-4.7-17.8-8.7 0.5 1.5 1.3 4 1.7 5.9l0.1 0.7 -0.6-0.2c-14.5-4.4-27.2-26.2-27.8-27.1l0.7-0.4c0.1 0.2 12.7 21.8 26.6 26.5 -0.7-2.7-2-6.4-2-6.5l-0.6-1.5 1.2 1.1c3.9 3.6 12.7 7.3 16.8 8.8 -0.2-0.2-0.4-0.4-0.7-0.6 -4.9-4.7-11.1-10.5-11.6-12.9l-0.2-0.9 0.8 0.4c2.4 1.4 5.4 1.8 7.8 2.2 0.4 0.1 0.8 0.1 1.1 0.2 -3.6-3.7-7.2-8.5-7.2-10.9v-0.5l0.5 0.1c1.9 0.3 3.5 0.8 4.6 1.1 -0.8-0.9-1.7-1.7-2.5-2.5 -2.9-2.9-5.7-5.6-5.7-8.6v-0.7l0.6 0.4c1.8 1.2 3.9 1.6 5 1.7 -3.2-4.6-6.2-9.6-2.6-19.6l0.8 0.3c-3.6 10.1-0.3 14.9 2.9 19.6l0.4 0.6h-0.8c-0.1 0-2.9 0-5.5-1.5 0.4 2.4 2.9 4.8 5.4 7.3 1.2 1.2 2.5 2.4 3.6 3.7l1.1 1.3 -1.6-0.6c0 0-2.2-0.9-5.4-1.5 0.4 2.3 3.7 6.9 7.8 10.8l1.1 1 -1.4-0.3c-0.7-0.2-1.5-0.3-2.4-0.4 -2.1-0.3-4.8-0.8-7.1-1.8 1.6 2.7 7.1 8 11 11.6 0.7 0.7 1.4 1.4 2.1 2L348.3 264.7z" class="f"/><path d="M304.8 140.5c0 0-11.4 3.8-24.7-10 -13.4-13.8-13.6-23.5-15.6-26.3 7.8-4.2 34.2-15.9 46.8 22.2" class="e"/><path d="M301 141.3c-4.5 0-12.5-1.6-21.2-10.5 -10-10.3-12.6-18.2-14.2-23 -0.5-1.6-0.9-2.7-1.4-3.4l-0.3-0.4 0.4-0.2c5.7-3.1 16.8-7.6 27.4-3.3 8.8 3.5 15.5 12.1 20 25.7l-0.8 0.3c-4.4-13.4-11-21.8-19.5-25.2 -10.1-4-20.7 0.1-26.4 3.1 0.4 0.8 0.8 1.8 1.3 3.2 1.6 4.7 4.2 12.5 14 22.7 13 13.4 24.2 9.9 24.3 9.9l0.3 0.8C304.9 140.9 303.4 141.3 301 141.3z" class="f"/><path d="M303.9 138c0 0-21.7-6-29.3-29.4 3.6-0.9 24.2-1.5 32.5 25C306.3 135.3 303.9 138 303.9 138z" class="g"/><path d="M307.1 133.6c-3.5-11.2-9.2-17.6-14.9-21.1 -4.6-1.4-9.6-3-15.2-2 5.3 10.5 14.3 19.4 23.9 26.4 1.9 0.8 3.1 1.1 3.1 1.1S306.3 135.3 307.1 133.6z" class="h"/><path d="M304.1 138.4l-0.2-0.1c-0.2-0.1-22-6.3-29.5-29.7l-0.1-0.4 0.4-0.1c0.8-0.2 2-0.3 3.3-0.3 5.1 0 22.2 1.8 29.6 25.6l0 0.1 -0.1 0.1c-0.8 1.8-3.2 4.4-3.3 4.5L304.1 138.4zM275.2 108.9c7.1 21.3 26.3 27.9 28.6 28.6 0.5-0.6 2.2-2.6 2.9-4 -7.3-23.1-23.9-24.9-28.8-24.9C276.6 108.7 275.7 108.8 275.2 108.9z" class="f"/><path d="M271.8 109.1c-1.1 0-2-0.1-2.1-0.1 0 0 3-0.6 5-0.9l0.1 0.8C273.8 109.1 272.7 109.1 271.8 109.1z" class="f"/><path d="M372.7 278.5c0 0 4.7 29.8 4.7 35.4 0 5.6 0.8 6.3 1.1 6.8 0.4 2.4 0.1 17.7-1.3 20.8s-3.9 4.6-4.5 5.7c2.4 0.4 5-1.6 5-1.6 -0.4 2 0 5.6 0 5.6 1.4-1.4 4.2-3.9 4.6-4.4 0.3 2.4 1.8 5.7 1.8 5.7 0.7-1.9 3-4.4 3-4.4 0.8 2.3 2.4 4.4 2.4 4.4 1.2-1.2 3.6-3.3 6.3-6.5 2.7-3.2 11-47.7 5.4-63.6C395.6 266.4 378.6 264.6 372.7 278.5z" class="d"/><path d="M388 301.7c-3.2-7.6-10.2-14-15-21.7 1 6.2 4.4 29 4.4 33.8 0 5.6 0.8 6.3 1.1 6.8 0.4 2.4 0.1 17.7-1.3 20.8s-3.9 4.6-4.5 5.7c0 0 0 0 0 0 1.9-2.1 4.6-3 6.5-4.8 0 1.6 0 4 0 5.6 0.8-1.6 2.4-2.4 3.2-4 1.2 2.3 1 3.9 2.1 5.1 0.9-2 2.4-3.1 1.9-4.3 0.7 1.9 1.9 3 3.5 4.3C395.1 333.5 394.7 316.2 388 301.7z" class="e"/><path d="M384.1 353.5l-0.4-0.9c-0.1-0.1-1.2-2.7-1.7-5 -0.4 0.4-0.9 0.9-1.6 1.5 -0.8 0.8-1.8 1.7-2.5 2.3l-0.6 0.6 -0.1-0.8c0-0.1-0.3-2.8-0.1-4.8 -0.9 0.5-2.3 1.2-3.8 1.2 -0.2 0-0.5 0-0.7-0.1l-0.6-0.1 0.3-0.5c0.2-0.4 0.7-0.9 1.3-1.4 1-0.9 2.3-2.2 3.2-4.2 1.3-3.1 1.7-18 1.3-20.5l0-0.1c-0.4-0.6-1.1-1.6-1.1-6.9 0-5.5-4.6-35.1-4.7-35.4l0-0.1 0-0.1c2.5-6 7.4-9.6 13.1-9.6 6.9 0 13.2 5.3 16.1 13.5 5.5 15.9-2.6 60.6-5.5 64 -2.2 2.6-4.2 4.4-5.5 5.7 -0.3 0.3-0.6 0.6-0.9 0.8l-0.3 0.3 -0.3-0.4c-0.1-0.1-1.3-1.8-2.2-3.9 -0.7 0.8-2 2.5-2.5 3.8L384.1 353.5zM387.3 347.3l0.2 0.6c0.6 1.7 1.6 3.2 2 3.9 0.2-0.2 0.3-0.3 0.5-0.5 1.3-1.2 3.3-3.1 5.4-5.6 2.8-3.3 10.8-47.6 5.3-63.3 -2.8-7.9-8.8-13-15.3-13 -5.3 0-9.9 3.4-12.3 9 0.4 2.3 4.7 29.9 4.7 35.4 0 5 0.6 6 0.9 6.4l0.1 0.3c0.4 2.2 0.2 17.7-1.3 21.1 -0.9 2.2-2.4 3.5-3.4 4.5 -0.3 0.2-0.5 0.5-0.7 0.7 2-0.1 4-1.6 4-1.6l0.8-0.6 -0.2 1c-0.3 1.3-0.2 3.5-0.1 4.6 0.6-0.6 1.3-1.2 1.9-1.8 0.9-0.9 1.9-1.8 2.1-2l0.6-0.7 0.1 0.9c0.2 1.6 1 3.6 1.4 4.7 0.9-1.7 2.6-3.6 2.7-3.7L387.3 347.3z" class="f"/><path d="M450.2 289.1c0 0 3.6 8.5 5.3 10.7 1.7 2.3 5.2 15.6 3 19.4 -2.2 3.9-5.8 6.6-6.4 9.4 1.3 0.8 5.1 0 5.1 0 0 1.7 0.6 4.6 0.8 5.4 1.9-1.9 3.5-2.5 4.7-3.1 -0.2 1.6 1.4 5.1 1.4 5.1 0.8-1.5 3.1-5.6 3.1-5.6 0.4 2.1 3.4 4.9 3.4 4.9 0.8-0.8 9.2-7.3 9.7-9.1s-0.1-10.7-0.8-15.4c-0.7-4.7-1.5-10.1-1-12.5s2-12.8-2.1-19.5C472.2 272.2 445.1 276.8 450.2 289.1z" class="d"/><path d="M471 285.7c-6.3 2.9-12.5 5.3-19.1 7 1.2 2.6 2.7 5.8 3.7 7 1.7 2.3 5.2 15.6 3 19.4 -1.6 2.8-4.5 6.5-5.9 8.5 1.9 0 4.3-0.5 5.6-0.5 0.8 0 0.4 3 0.4 4.6 1.6-1.6 2.7-2.2 4.3-3.8 0.8 1.6 0.8 3.2 1.6 4.8 0.8-2.4 1.6-4 3.2-6.4 0.8 2.3 1.5 3.8 3 5.3C475.4 317.2 474.5 300.8 471 285.7z" class="e"/><path d="M464.1 336.9l-0.3-0.7c-0.1-0.1-1.3-2.8-1.4-4.6 -1.1 0.5-2.4 1.2-4 2.7l-0.5 0.5 -0.2-0.7c-0.2-0.8-0.7-3.3-0.8-5 -0.6 0.1-1.7 0.3-2.8 0.3 -1 0-1.7-0.1-2.1-0.4l-0.2-0.1 0.1-0.3c0.4-1.7 1.7-3.2 3.2-5 1.1-1.4 2.3-2.8 3.3-4.5 2.1-3.7-1.3-16.9-2.9-19 -1.7-2.3-5.2-10.5-5.4-10.8 -1.1-2.5-0.9-4.9 0.5-7 3-4.5 10.9-6.8 17.1-6.8 4.6 0 7.9 1.2 9.2 3.2 4.7 7.5 2.3 19.3 2.2 19.8 -0.5 2.3 0.3 7.7 1 12.3 0.7 4.5 1.3 13.7 0.8 15.6 -0.4 1.4-4.2 4.6-8.1 7.9 -0.8 0.7-1.5 1.2-1.6 1.4l-0.3 0.3 -0.3-0.3c-0.1-0.1-2.3-2.2-3.2-4.2 -0.7 1.3-2.1 3.7-2.6 4.8L464.1 336.9zM463.2 330.2l-0.1 0.7c-0.1 1 0.5 2.9 1 4.1 1-1.8 2.7-4.8 2.7-4.9l0.5-1 0.2 1.1c0.3 1.6 2.3 3.7 3 4.4 0.3-0.3 0.8-0.7 1.4-1.2 2.3-1.9 7.5-6.2 7.9-7.5 0.5-1.7-0.1-10.4-0.8-15.3 -0.7-4.8-1.5-10.2-1-12.6 0.1-0.5 2.4-12-2.1-19.2 -1.1-1.8-4.3-2.9-8.5-2.9 -6.1 0-13.6 2.2-16.5 6.5 -1.3 1.9-1.4 4-0.4 6.3 0 0.1 3.6 8.4 5.3 10.7 1.9 2.5 5.3 15.8 3 19.9 -1 1.7-2.2 3.3-3.4 4.6 -1.3 1.6-2.5 3-2.9 4.4 0.3 0.1 0.7 0.2 1.4 0.2 1.4 0 3.1-0.3 3.1-0.3l0.5-0.1v0.5c0 1.3 0.4 3.4 0.6 4.6 1.5-1.3 2.7-1.9 3.8-2.4 0.2-0.1 0.4-0.2 0.5-0.3L463.2 330.2z" class="f"/><path d="M354.7 207.5c0 0 2.9 8.8 2.9 31.1s12 49.9 38.3 58.3c26.3 8.4 59.1-2.4 83-19.9 23.9-17.6 21.1-44.7 16-49.9 -5.2-5.2-16.4-13.8-37.3-7.7 -18 5.3-47.7 14.3-60.2-0.1 -12.6-14.4-9-55.7-19-64 -10-8.4-1.3-14.8-1.9-20.1 -0.5-5.3-4.8-21-15.2-23.7s-42.6 2.7-55.3 20.8c-12.8 18.1-10.4 30.9-14.6 35.4 -4.3 4.5-16.6 46.7-14.2 51.1 2.4 4.4 3.8 3.6 3.4 9 -0.4 5.4-1.2 13.2 7 14.9 8.3 1.7 9.6-5 15.1-4.7 5.5 0.3 15.3 4 23.4-11.4C334.3 211 345.6 208.9 354.7 207.5z" class="d"/><path d="M375.1 193.2c0.6-1.7 1-3.6 1-5.7C375.6 189.4 375 191.3 375.1 193.2z" class="e"/><path d="M494.9 227.1c-5.2-5.2-16.4-13.8-37.3-7.7 -8.4 2.5-19.4 5.7-30 7.1 -1.7 0.8-3.4 1.4-5.3 1.8 -15.2 3.2-31.9-6.4-35.1-22.3 -4-17.6-2.4-35.1-13.6-51.1 -1.9-2.3-1.3-4.3 0.1-6.4 -1.1-5.2 3.2-9.5 2.8-13.3 0-0.4-0.1-0.9-0.2-1.5 -4.3 0.5-8.6 0.1-12.3-1.2 -8.1-3.4-9.9-13-8.8-21.7 -13.6-0.1-38.3 6.1-49.1 21.4 -12.8 18.1-10.4 30.9-14.6 35.4 -4.3 4.5-16.6 46.7-14.2 51.1 2.4 4.4 3.8 3.6 3.4 9 -0.2 2.8-0.5 6.3 0.4 9.2 7.6 10.6 18.3-1.6 27.1-7 4.8 4.5 9.8-0.1 12.2-1.7 8-7.2 7.8-11.8 16.6-17.4 14.4-8.8 38.1-5.2 38.7-30.6 0.3 1.5 1.2 4.9 0.8 6.4 1.2 14.5-9.3 27.2-19.2 37.4 0.3 4 0.5 8.9 0.5 14.7 0 11.7 3.3 24.8 10.2 35.8 10.4 9.7 23 16.7 37.7 18.4 31.1 3.2 57.5-13.6 83.8-27.9 0.7-0.3 1.4-0.7 2.1-1.1C501.5 248.2 498.9 231.1 494.9 227.1z" class="e"/><path d="M415.6 300.2c-7 0-13.6-1-19.7-2.9 -26.5-8.4-38.6-36.3-38.6-58.6 0-19.7-2.3-28.9-2.8-30.7 -8 1.2-19.8 3.1-28 18.6 -5.8 11-12.4 12.2-16.9 12.2l0 0c-1.6 0-3.1-0.2-4.5-0.3 -0.9-0.1-1.7-0.2-2.4-0.2 -2.2-0.1-3.6 1-5.3 2.2 -1.8 1.3-3.9 2.8-7.1 2.8 -0.8 0-1.8-0.1-2.7-0.3 -8.4-1.8-7.8-9.6-7.4-14.8l0-0.5c0.3-3.6-0.3-4.3-1.4-5.8 -0.5-0.7-1.2-1.6-1.9-3 -1.3-2.5 1.5-14.9 4.6-25.8 3-10.7 7.3-23.3 9.7-25.8 1.5-1.6 2.2-4.5 3.1-8.4 1.5-6.6 3.6-15.7 11.5-27 11.1-15.7 36.1-21.6 49.2-21.6 2.6 0 4.9 0.2 6.5 0.7 11.1 2.9 15 19.7 15.5 24 0.2 1.8-0.6 3.6-1.4 5.5 -1.7 4.1-3.6 8.7 3.1 14.3 4.9 4.1 6.6 15.8 8.4 28.3 1.9 13.3 4.1 28.4 10.6 35.8 4.4 5.1 11.6 7.6 21.2 7.6 12.6 0 27.2-4.3 37.8-7.4l0.9-0.3c4.8-1.4 9.5-2.1 13.8-2.1 9.4 0 17.2 3.2 23.9 9.9 2.2 2.2 4.2 8.3 3.5 16.7 -0.6 7.7-3.9 22.3-19.5 33.8C459.3 291.8 436.1 300.2 415.6 300.2zM355 207.1l0.1 0.3c0 0.1 2.9 9.1 2.9 31.3 0 22 11.9 49.6 38 57.9 6 1.9 12.5 2.9 19.5 2.9 20.4 0 43.4-8.3 63.2-22.8 15.4-11.3 18.6-25.6 19.2-33.2 0.6-7.8-1.2-14-3.3-16.1 -6.5-6.5-14.2-9.7-23.4-9.7 -4.2 0-8.8 0.7-13.6 2.1l-0.9 0.3c-10.7 3.1-25.3 7.4-38 7.4 -9.9 0-17.2-2.7-21.8-7.9 -6.6-7.6-8.9-22.8-10.8-36.2 -1.8-12.3-3.5-23.9-8.1-27.8 -7.1-6-5-11.1-3.3-15.3 0.7-1.8 1.5-3.5 1.3-5.1 -0.6-6.3-5.2-20.9-14.9-23.3 -1.6-0.4-3.8-0.6-6.3-0.6 -13 0-37.7 5.8-48.6 21.2 -7.9 11.2-9.9 20.1-11.4 26.7 -0.9 4-1.6 6.9-3.3 8.7 -4.4 4.7-16.2 46.8-14.1 50.6 0.7 1.3 1.4 2.2 1.9 2.9 1.2 1.6 1.8 2.5 1.6 6.3l0 0.5c-0.4 5.2-0.9 12.4 6.7 14 0.9 0.2 1.7 0.3 2.5 0.3 3 0 4.9-1.4 6.7-2.7 1.7-1.3 3.3-2.4 5.8-2.3 0.7 0 1.6 0.1 2.4 0.2 1.3 0.2 2.8 0.3 4.4 0.3h0c4.3 0 10.6-1.2 16.2-11.8 8.5-16.1 20.8-17.9 28.9-19.1L355 207.1z" class="f"/><ellipse transform="matrix(0.9817 0.1905 -0.1905 0.9817 35.3199 -54.8271)" cx="302.8" cy="156.3" rx="6.6" ry="12.5" class="e"/><path d="M309.3 157.5c-1.3 6.8-14.3 4.3-13-2.5 1.3-6.8 5.3-11.7 8.9-11C308.8 144.7 310.6 150.8 309.3 157.5z" class="i"/><path d="M301.1 169c-0.3 0-0.5 0-0.8-0.1 -1.9-0.4-3.4-2.1-4.2-4.8 -0.8-2.6-0.9-5.9-0.2-9.2 1.3-6.5 4.9-11.4 8.6-11.4 0.3 0 0.5 0 0.8 0.1 1.9 0.4 3.4 2.1 4.2 4.8 0.8 2.6 0.9 5.9 0.2 9.2C308.4 164.1 304.7 169 301.1 169zM304.5 144.3c-3.2 0-6.6 4.7-7.8 10.7 -0.6 3.2-0.6 6.4 0.2 8.8 0.7 2.4 2 3.9 3.6 4.2 0.2 0 0.4 0.1 0.6 0.1 3.2 0 6.6-4.7 7.8-10.7 0.6-3.2 0.6-6.4-0.2-8.8 -0.7-2.4-2-3.9-3.6-4.2C304.9 144.4 304.7 144.3 304.5 144.3z" class="j"/><ellipse transform="matrix(0.9817 0.1905 -0.1905 0.9817 35.7394 -54.7837)" cx="302.8" cy="158.5" rx="5" ry="9.5" class="k"/><path d="M301.5 168.3c-0.2 0-0.4 0-0.6-0.1 -3-0.6-4.5-5.3-3.4-10.8 1-5 3.8-8.8 6.6-8.8 0.2 0 0.4 0 0.6 0.1 1.5 0.3 2.6 1.6 3.3 3.7 0.6 2 0.7 4.5 0.2 7.1C307.2 164.5 304.3 168.3 301.5 168.3zM304.1 149.5c-2.4 0-5 3.6-5.8 8.1 -0.9 4.9 0.3 9.4 2.8 9.8 2.5 0.5 5.3-3.2 6.3-8.1 0.5-2.4 0.4-4.8-0.2-6.7 -0.5-1.8-1.5-2.9-2.7-3.1C304.4 149.5 304.3 149.5 304.1 149.5z" class="l"/><ellipse transform="matrix(0.9817 0.1907 -0.1907 0.9817 36.0329 -54.8022)" cx="302.8" cy="159.8" rx="3.8" ry="7.3"/><path d="M297 218.5c4.5-1.2 7.7-1.6 9.9-1.3 1.9-1.7 3.5-2.9 3.5-2.9 -7.6-2.9-24.2 1.1-24.6 6.3 -0.4 5.1-4.9 12 1 15.6C285.5 224.3 297 218.5 297 218.5z" fill="#540016"/><path d="M287.4 237l-0.9-0.5c-4.5-2.8-3.3-7.4-2.2-11.5 0.4-1.6 0.8-3.1 0.9-4.5 0.3-4.3 10.2-7.7 18.6-7.7 2.6 0 4.9 0.4 6.6 1l0.7 0.3 -0.6 0.4c0 0-1.6 1.2-3.4 2.9l-0.1 0.1 -0.2 0c-2.2-0.3-5.5 0.2-9.7 1.3 -0.7 0.4-11.1 6.1-10 17.2L287.4 237zM303.8 213.7c-7.8 0-17.5 3.2-17.8 6.9 -0.1 1.5-0.5 3.1-1 4.6 -1.1 3.9-2.1 7.7 1.1 10.1 -0.6-11.4 10.5-17.1 10.6-17.2l0.1 0c4.2-1.1 7.5-1.6 9.8-1.4 1.2-1 2.2-1.9 2.8-2.4C307.9 213.9 306 213.7 303.8 213.7z" class="f"/><path d="M301.4 222.8c1.4-1.9 3.6-4 5.4-5.6 -2.1-0.2-5.3 0.1-9.9 1.3 0 0-11.4 5.8-10.3 17.6 0.1 0.1 0.3 0.2 0.4 0.3C293.7 239.9 298.6 226.5 301.4 222.8z" fill="#DF2B3D"/><path d="M287.6 228.8c-0.8 2.1-1.2 4.6-1 7.4 0.1 0.1 0.3 0.2 0.4 0.3 4.3 2.3 8-2.7 10.7-7.5C301.2 221 293 223.8 287.6 228.8z" fill="#DF4F57"/><path d="M306.9 216.8c-1.1-0.1-2.5-0.1-4.1 0.1 -0.1 0.4-0.4 0.7-0.8 0.9 1.5-0.2 2.8-0.3 3.9-0.3 -2.1 1.9-3.7 3.6-4.8 5 -0.6 0.9-1.4 2.2-2.2 3.7 -2.4 4.4-5.7 10.3-9.6 10.3h0c-0.7 0-1.3-0.2-2-0.5 -0.1 0-0.2-0.1-0.2-0.1 0-0.1-0.6-0.4-0.8-0.4 0 0.2 0 0.5 0 0.7l0 0.2 0.2 0.1c0.1 0.1 0.3 0.2 0.5 0.3 0.8 0.4 1.6 0.6 2.4 0.6l0 0c4.3 0 7.8-6.2 10.3-10.7 0.8-1.5 1.6-2.8 2.2-3.6 1.1-1.5 3-3.4 5.4-5.6l0.7-0.6L306.9 216.8z" class="f"/><path d="M297.1 218.9c1.8-0.5 3.4-0.8 4.8-1.1 0.4-0.3 0.7-0.5 0.8-0.9 -1.7 0.2-3.7 0.6-5.9 1.2l-0.1 0c-0.1 0.1-11.2 5.7-10.6 17.2 0.1 0.1 0.7 0.5 0.8 0.6C286.3 225.3 296.4 219.2 297.1 218.9z" fill="#A9202F"/><path d="M308.6 140.5c0 0 3.1 19.4-7.7 24.3 -10.8 4.9-35 9.8-35 24.3 -14.8 16.8-0.1 32.8 5.2 29.9 3.3 3 36.2 14.1 54.8-25.8" class="d"/><path d="M308.6 140.5c0 0 3.1 19.4-7.7 24.3 -10.8 4.9-35 9.8-35 24.3 0 1.3 0.1 0.6-0.1 2 0.1 5 1.3 12.3 4.7 14.7 3.9 1.2 14.7-7.8 21.2-11.8 -6.1 6.6-14.7 13.2-20.7 12.4 -6.6-0.4-6.2-11.4-5.6-16.1 0-1.2 0.1 0.4 0.2-0.8 -9.3 10.9-6.6 21.2-1.9 26.3 4.1 0.8 4.5-1.1 5.7-1.1 26.6 11.2 43.8-5.2 56.3-20.9 0.1-0.2 0.5-0.7 0.6-0.9L308.6 140.5z" class="e"/><path d="M265.5 193.1c0.2-1.4 0.4-2.7 0.4-4 -0.1 0.1-0.2 0.2-0.3 0.4C265.5 190.7 265.5 191.9 265.5 193.1z" class="e"/><path d="M286.5 223.2c-7.6 0-13.6-2.2-15.4-3.7 -2.2 0.9-5.4-0.6-8.1-3.9 -4.6-5.7-6.6-16.1 2.5-26.6 0.1-11.6 15.1-17.1 27.1-21.4 3-1.1 5.9-2.1 8.1-3.2 10.4-4.7 7.8-23.7 7.7-23.9 0 0 3.5 19.7-7.4 24.6 -2.3 1-5.1 2.1-8.2 3.2 -11.8 4.3-26.6 9.6-26.6 20.8v0.2l-0.1 0.1c-9 10.2-7 20.2-2.6 25.7 2.4 3 5.6 4.6 7.3 3.6l0.2-0.1 0.2 0.2c1.8 1.7 11.5 5.1 22.5 2.9 9.2-1.9 22.3-8.3 31.7-28.6l0.7 0.3c-9.6 20.6-22.8 27.1-32.3 29C291.4 223 288.8 223.2 286.5 223.2z" class="f"/><path d="M393.7 277.2c0 0 0.4 11.7 1.3 15.7 0.9 4-1.1 16.1-1.3 21.8 -0.3 5.7 3.5 14.9 2.1 20.1 -1.3 5.2-5.3 15.1-5.6 19.3 2.8-1.1 5.1-2.6 5.8-2.7 0.3 2.9 2.1 5.8 2.7 7 1-2 2.2-6.4 2.5-7.4 0.8 2.5 4.3 8.1 4.3 8.1 0.9-1.5 2.3-7.6 2.3-7.6 0.6 2.2 2.8 5.2 4.9 5.6 -0.2-2-0.2-5.6 0-7.2 1.4 0.7 5.1 1.2 6.9 0.8 -1.4-2.7-6.9-10.7-6.6-15.2 0.3-4.5-0.8-7.5 0.1-9.4 0.9-1.9 2.7-7.9 2.6-12 -0.1-4.1 20.6-28.4 19.1-35.6" class="d"/><path d="M435 277.8l-41.3-0.5c0 0 0.4 11.7 1.3 15.7 0.9 4-1.1 16.1-1.3 21.8 -0.3 5.7 3.5 14.9 2.1 20.1 -1.2 4.6-4.4 12.8-5.3 17.5 1.5-2 2.9-4 4.6-5.2 1 2.2 1.7 3.7 3.4 5.3 0-1.6 2.4-4.3 1.4-6.1 2.1 3.4 3.4 6.3 5.8 8.6 0.3-2.6 1.4-5.5 1.4-7.8 0.8 1.6 2.3 4.1 3.9 5.7 0-2.4 0.4-4.3 0.4-6.7 1.3 1.3 2.9 1.5 4.6 2.2 -2.4-2.9-4.8-7.1-5.7-10.8 -4.3-14.1 1.1-19.5-0.9-25.6 6.6-7.2 20.7-22.5 25.3-31.1C435 279.6 435.1 278.6 435 277.8z" class="e"/><path d="M405.7 359.8l-0.3-0.6c-0.1-0.2-2.7-4.3-3.9-7 -0.5 1.8-1.4 4.7-2.2 6.3l-0.4 0.7 -0.4-0.7c-0.1-0.2-0.2-0.4-0.4-0.7 -0.7-1.4-1.9-3.6-2.3-5.9 -0.4 0.2-0.9 0.4-1.5 0.7 -1.1 0.5-2.4 1.2-3.9 1.8l-0.6 0.2 0-0.6c0.2-2.7 1.8-7.5 3.3-12.1 0.9-2.7 1.8-5.3 2.2-7.2 0.7-2.8-0.1-7-1-11.1 -0.7-3.3-1.3-6.4-1.2-8.9 0.1-1.9 0.4-4.6 0.7-7.4 0.6-5.5 1.3-11.7 0.7-14.3 -0.9-4-1.3-15.3-1.3-15.8 0 0 1.2 11.7 2.1 15.6 0.6 2.7 0 9-0.6 14.6 -0.3 2.8-0.6 5.5-0.7 7.4 -0.1 2.4 0.5 5.7 1.2 8.7 0.8 4.1 1.7 8.4 0.9 11.4 -0.5 2-1.4 4.5-2.3 7.3 -1.3 4-2.8 8.6-3.2 11.3 1.2-0.5 2.3-1.1 3.2-1.5 1-0.5 1.7-0.9 2.1-0.9l0.4-0.1 0 0.4c0.3 2.3 1.6 4.7 2.3 6.1 0.8-1.8 1.6-4.7 2-6l0.5-1.8 0.4 1.2c0.6 1.9 2.9 5.9 3.9 7.4 0.8-2.1 1.9-6.8 1.9-6.8l0.4-1.5 0.4 1.5c0.5 2 2.3 4.4 4.1 5.1 -0.2-2.1-0.1-5.2 0.1-6.7l0.1-0.6 0.5 0.3c1.2 0.6 4.2 1.1 6.1 0.9 -0.3-0.5-0.6-1.1-1-1.7 -2.2-3.8-5.6-9.4-5.3-13.1 0.1-2 0-3.6-0.1-5.1 -0.2-1.8-0.3-3.3 0.3-4.4 0.9-1.9 2.7-7.9 2.6-11.8 0-1.7 2.7-5.8 7.2-12.5 5.7-8.4 12.8-18.9 11.9-23.1 0 0 0.3 4.5-1.4 7.8 -2.4 4.7-6.2 10.4-9.8 15.7 -3.6 5.4-7.1 10.5-7.1 12 0.1 4.1-1.7 10.1-2.6 12.1 -0.5 1-0.3 2.3-0.2 4 0.1 1.4 0.3 3.2 0.1 5.2 -0.2 3.4 3.2 9.2 5.2 12.7 0.5 0.9 1 1.7 1.3 2.3l0.2 0.5 -0.5 0.1c-1.7 0.4-4.9 0-6.6-0.6 -0.1 1.7-0.1 4.8 0.1 6.6l0.1 0.5 -0.5-0.1c-1.9-0.4-3.8-2.6-4.7-4.6 -0.5 1.9-1.4 5.3-2 6.4L405.7 359.8z" class="f"/><path d="M465 253.2c0 0-4.8 16.6 5.4 32.9 10.2 16.4 13.2 22.5 11 30.5 -2.2 8-10.6 22.5-10.6 25.5 2.9-0.8 6.4-2.5 6.4-2.5 -0.4 3.7 1.2 7.2 1.6 7.8 1.6-2.1 4.7-5.1 4.7-5.1 0.3 2.5 3.1 6.3 3.9 5.9 0.9-2.1 2.3-6.1 2.3-6.1 0.9 1.9 4.1 4 4.1 4 0.4-2 1.7-5.5 1.7-5.5 1.6 2.7 4 3.9 4.5 4.4 1.1-2.4 1.1-5.3 0-9 -1.1-3.7-1.2-15.8 2.7-22.9 3.9-7 4.4-9.6 2.5-14 -1.9-4.4-4.7-11.4-1.5-20.4 3.2-8.9 12.5-28.5-9.2-52.3" class="d"/><path d="M479 343.2c1.6-1.6 3.3-1.7 4.8-4 1.6 1.6 0.8 4 2.4 5.6 0.8-2.4 2.4-4.8 2.4-7.2 1.6 1.6 3.2 3.2 4 5.6 1.6-1.6 1.6-4 2.4-6.4 0.8 1.6 2.4 3.2 3.2 4.8 0.9-1.2 1.4-2.5 0.2-4 -5.6-8.1-7.8-16.7-1.8-27.1 5.8-6.6 1.2-17.5 1.2-23.1 -0.4-10.4 11.6-34.1-3.4-60.9l-29.9 26.1c0 0-4.2 17.2 6 33.5 10.2 16.4 13.2 22.5 11 30.5 -1.9 6.8-8.3 18.4-10.1 23.5 2.3-1.1 4.3-1.8 6.9-3.1C478.1 339.4 478.2 340.8 479 343.2z" class="e"/><path d="M487.1 348.7c-0.2 0-0.3-0.1-0.5-0.2 -1.1-0.6-2.9-3.1-3.4-5.3 -0.9 0.9-2.9 2.9-4.1 4.5l-0.4 0.5 -0.3-0.5c-0.5-0.9-1.9-4-1.7-7.4 -1.1 0.5-3.6 1.6-5.8 2.3l-0.5 0.1v-0.5c0-1.5 1.9-5.5 4.3-10.5 2.5-5.2 5.2-11 6.4-15.1 2.1-7.7-0.4-13.3-10.9-30.2 -10.2-16.3-5.5-33.1-5.4-33.2 0 0-3.9 16.8 6.1 32.8 9.8 15.8 13.3 22.5 11 30.8 -1.1 4.2-4 10-6.4 15.2 -1.9 4-3.7 7.8-4.1 9.6 2.7-0.8 5.7-2.3 5.7-2.3l0.7-0.3 -0.1 0.7c-0.3 3 0.7 5.8 1.3 7.1 1.6-2.1 4.2-4.5 4.3-4.6l0.6-0.6 0.1 0.8c0.2 2.2 2.4 5.1 3.2 5.5 0.9-2.1 2.1-5.8 2.1-5.8l0.3-0.9 0.4 0.9c0.7 1.3 2.6 2.8 3.5 3.5 0.5-2 1.6-4.8 1.6-4.9l0.3-0.8 0.4 0.7c1.2 1.9 2.8 3.1 3.7 3.8 0.1 0.1 0.2 0.1 0.3 0.2 0.8-2.2 0.7-4.9-0.2-8.3 -1-3.6-1.3-15.8 2.7-23.2 3.8-7 4.3-9.4 2.5-13.6 -1.7-4-4.8-11.3-1.5-20.6 0.2-0.6 0.4-1.1 0.7-1.8 3.6-9.8 10.4-27.9-9.8-50.2l0.5-0.6c20.6 22.6 13.8 41.2 10.1 51.1 -0.2 0.6-0.5 1.2-0.7 1.8 -3.2 9-0.2 16.2 1.5 20.1 1.9 4.5 1.4 7-2.5 14.3 -3.9 7.1-3.6 19.2-2.6 22.6 1.1 3.8 1.1 6.8 0 9.3l-0.2 0.5 -0.4-0.4c-0.1-0.1-0.3-0.3-0.6-0.5 -0.9-0.6-2.3-1.6-3.5-3.3 -0.4 1.1-1.2 3.3-1.4 4.7l-0.1 0.6 -0.5-0.3c-0.1-0.1-2.5-1.7-3.8-3.4 -0.4 1.3-1.3 3.8-2 5.4l-0.1 0.1 -0.1 0.1C487.3 348.7 487.2 348.7 487.1 348.7z" class="f"/><path d="M313 126.7c-8.8-7.5-13.5-40.2 7-54.1 3.2-2.2 1.8 8.2 1.4 13.2 -0.4 5 1.3 16.4 4.5 20.5C329.1 110.6 318.6 131.5 313 126.7z" class="m"/><path d="M321.8 74.3c0-0.1 0.1-0.2 0.1-0.3 -0.3-1.4-0.8-2.1-1.9-1.3 -20.5 13.9-15.8 46.6-7 54.1 0.2 0.2 0.4 0.3 0.6 0.4 0.1-0.1 0.1-0.1 0.2-0.2C323.4 111 316.2 91.8 321.8 74.3z" class="n"/><path d="M314.8 127.8c-0.8 0-1.5-0.3-2.1-0.8 -4.9-4.2-8.2-15.6-7.6-26.4 0.4-7.1 2.8-20.3 14.6-28.3 0.7-0.5 1.4-0.5 1.9 0 1.2 1.3 0.9 5.7 0.3 11.3 -0.1 0.8-0.1 1.6-0.2 2.2 -0.4 5.2 1.4 16.4 4.4 20.3 1.7 2.2 0 7.9-2.1 12C322 122.6 318.2 127.8 314.8 127.8zM320.8 72.8c-0.1 0-0.3 0-0.6 0.2 -11.5 7.8-13.8 20.7-14.2 27.7 -0.6 10.6 2.5 21.7 7.3 25.8 0.5 0.4 1 0.6 1.6 0.6 2.8 0 6.4-4.6 8.6-9.2 2.5-5 3.3-9.6 2.1-11.2 -3.2-4.2-5-15.5-4.6-20.8 0.1-0.7 0.1-1.4 0.2-2.2 0.4-3.8 0.9-9.5-0.1-10.7C320.9 72.8 320.8 72.8 320.8 72.8z" class="o"/><path d="M362.6 136.6c0 0 14.3-11.6 20.2-15.6 5.9-4 16.2-7.4 25.5-4.9s16.5 3.5 14.4 13c-2.1 9.5-12.5 30.4-32.3 29.2s-17 0-20.5 1.2" class="d"/><path d="M421.7 121.7c-2.4-2.9-7.4-3.9-13.3-5.5 -9.3-2.5-19.7 0.9-25.5 4.9 -5.9 4-20.7 15.8-20.7 15.8l7.8 22.7c3.4-1.2 0.7-2.4 19.8-1.2 4.4-1 11.5-3.9 15.4-6.5C414.9 144.8 421.7 132.7 421.7 121.7z" class="e"/><path d="M370 159.9c0 0 0.8-1.2 1.2-1.4 1.8-0.9 3-1.6 19.2-0.6 20.5 1.2 30.1-21 31.9-28.9 1.9-8.3-3.6-9.7-11.8-11.9 -0.8-0.2-1.5-0.4-2.3-0.6 -8.9-2.4-19.1 0.7-25.2 4.9 -5.8 3.9-20.7 14.9-20.7 14.9 0.1-0.1 14.4-11.6 20.2-15.6 6.3-4.3 16.7-7.5 25.9-5 0.8 0.2 1.6 0.4 2.3 0.6 8 2.1 14.4 3.8 12.3 12.8 -1.8 8.1-11.7 30.8-32.7 29.5 -16-1-17.2-0.4-18.8 0.5C371.2 159.4 370.7 159.7 370 159.9z" class="f"/><path d="M371.6 148.3c0 0 31.1 16.2 44.3-21.6C409.8 125.2 387.7 120.5 371.6 148.3z" class="g"/><path d="M374.8 147.9c3 1.2 4.3 2.6 7.7 3.7 10.3 1.3 25.3-1.4 33.4-24.8 -0.9-0.2-2.1-0.5-3.6-0.7C397.4 126.5 388.8 130.3 374.8 147.9z" class="h"/><path d="M386.7 152.2L386.7 152.2c-8.4 0-15.2-3.5-15.3-3.5l-0.4-0.2 0.2-0.4c11-19.1 25.1-23.1 34.9-23.1 4.3 0 7.7 0.7 9.9 1.3l0.4 0.1 -0.1 0.4C409 147.8 396.2 152.2 386.7 152.2zM372.2 148.2c1.5 0.7 7.4 3.2 14.5 3.2 9.2 0 21.5-4.2 28.7-24.4 -2.2-0.5-5.3-1.1-9.2-1.1C396.6 125.9 383 129.7 372.2 148.2z" class="f"/><path d="M298.6 239.6l-0.6-0.5c4-4.8 10.1-8.9 10.2-9C308.2 230.1 302.6 234.8 298.6 239.6z" class="f"/><path d="M271.4 206.4c-0.7 0-1.4-0.4-2-1.1 -2.5-2.8-4.4-10.8-3.8-16.6l0.8 0.1c-0.5 5.5 1.3 13.4 3.6 16 0.5 0.6 1 0.8 1.5 0.8 2.6 0 16-8.7 20.9-12C292.3 193.6 274.8 206.4 271.4 206.4z" class="f"/><path d="M270.8 219.4c-4.5-5.3 0.1-13.2 0.3-13.5l0.7 0.4c0 0.1-4.5 7.7-0.3 12.6L270.8 219.4z" class="f"/><path d="M330.3 196.6c-2.2-2.3-10.4-4.9-10.5-5 0 0 3.3 0.2 6.1 1.5C327.9 194 330.3 196.6 330.3 196.6z" class="f"/><path d="M354.8 207.9l-0.1-0.8c8.9-1.4 15.1-5.1 18.4-10.8 5.5-9.7 0.6-22.3 0.6-22.5 0 0 2.3 3.7 2.7 8.9 0.4 4.3 0 9.4-2.6 14C370.4 202.7 364 206.4 354.8 207.9z" class="f"/><ellipse cx="335.6" cy="159.8" rx="10.3" ry="15" class="e"/><path d="M345.9 159.8c0 8.3-20.6 8.3-20.6 0 0-8.3 4.6-15 10.3-15C341.3 144.9 345.9 151.6 345.9 159.8z" class="i"/><path d="M335.6 175.2c-5.9 0-10.7-6.9-10.7-15.4 0-8.5 4.8-15.4 10.7-15.4 5.9 0 10.7 6.9 10.7 15.4C346.3 168.3 341.5 175.2 335.6 175.2zM335.6 145.3c-5.5 0-9.9 6.5-9.9 14.6 0 8 4.4 14.6 9.9 14.6 5.5 0 9.9-6.5 9.9-14.6C345.5 151.8 341.1 145.3 335.6 145.3z" class="j"/><ellipse cx="335.9" cy="162.7" rx="7.3" ry="10.6" class="k"/><path d="M335.9 173.8c-4.3 0-7.7-4.9-7.7-11 0-6.1 3.5-11 7.7-11 4.3 0 7.7 4.9 7.7 11C343.6 168.8 340.1 173.8 335.9 173.8zM335.9 152.5c-3.8 0-6.9 4.6-6.9 10.2 0 5.6 3.1 10.2 6.9 10.2 3.8 0 6.9-4.6 6.9-10.2C342.8 157.1 339.7 152.5 335.9 152.5z" class="l"/><ellipse cx="336.4" cy="165.1" rx="5.2" ry="7.6"/><path d="M348.7 147.9c-4-6.5-10.2-12.8-11.6-13.5 0 0-0.7-1.6 1.1-1.6C344.2 132.7 348.7 147.9 348.7 147.9z" class="p"/><path d="M305.5 138c0 0 7.9-10.1 12.5-8.3 2 0.8 0.3 2.2 0.3 2.2C312.3 132.5 305.5 137.9 305.5 138z" class="p"/><path d="M317.1 179c0 0 23.4-13.9 39.2-7.2" class="e"/><path d="M320.8 177.5c0 0 5.4-3.9 12.1-5.8 10.6-3.1 16.7-1.4 16.7-1.4C338.9 168.3 321 177.4 320.8 177.5z" class="f"/><path d="M317 85c-3.4 0-6.6-1.2-6.8-1.3l0.3-0.7c0.1 0 6.7 2.6 10.9 0.3l0.4 0.7C320.3 84.7 318.6 85 317 85z" class="o"/><path d="M313.1 94.7c-3.6 0-6.4-1-6.6-1.1l0.3-0.7c0.1 0 8.4 3.1 14.6-1.4l0.5 0.6C319 94.1 315.8 94.7 313.1 94.7z" class="o"/><path d="M311 104.4c-3.4 0-5.8-0.8-5.8-0.8l0.3-0.8c0.1 0 8.8 2.9 17.5-2.9l0.4 0.7C318.9 103.7 314.4 104.4 311 104.4z" class="o"/><path d="M356.3 118c0 0-0.1 0-0.3 0.1 -1.6 0.7-9.5 4.1-11.5 9.6 -1.9-2.8-2.9-7.7-2.9-7.7 -2.9 2.1-8.5 5.9-8.8 9 -1.3-3.2-1.5-8-0.7-9 -4.9 2.6-10.4 6.6-10.5 7.9 -0.5-3.5 0-6.5 0-6.5 -1.5 0.4-16.8 4.7-21.9 9.7 1.5-4.1 10.9-12.9 14.1-13.2 -3.5 0.1-10.1-1.3-11-0.7 2.5-2.3 9.7-8.2 17.7-7.4 -3.1-1.3-8.6-3.6-11.6-2.7 2.4-2.7 9.6-5.1 16-3.9 -4-2-5.3-4.8-7-4.8 4-1.5 12.2 0.1 16.2 2.9 -0.7-2.5 0-6 3.2-7.2 0.7 2 1.5 7.2 2.3 7.7 2.1-3.2 8.5-6.4 12.6-6.4 -1.7 3.6-2.9 7.4-2.8 8.5 2.8-1.7 5.7-2.9 9.8-0.5S365.3 115.4 356.3 118z" class="d"/><path d="M322.4 123.6c4-1.6 7.8-6.1 12.6-6.1 -1.6 2.4-3 5.7-2.1 7 2.8-2.2 4.8-5.6 8.8-7.2 0.8 2.4 1.1 5.3 2 7.1 5.3-5.3 10-8.6 12.4-14.2 3.2-6.4-4-6.4-8.8-4.8 0-2.4 1.7-6.2 2.5-8.6 -4.1 1-8.7 3.7-11.1 7.7 -1.4-2.2-2.6-4.7-2.6-8.6 -2.2 2.5-1.1 5.6-1.1 8 -4-2.4-10-4.3-14.8-5.1 3.2 4.4 6.3 2.9 8 5.9 -5.2-0.5-7-1.2-13.9-0.3 -3 0.8-4.2 1.4-5.5 2.8 2.9-0.9 8.5 1.3 11.6 2.7 -8-0.8-15.2 5.2-17.7 7.4 0.9-0.7 7.6 0.8 11 0.7 -3.2 0.3-12.6 9-14.1 13.2 4.3-4.2 5.1-3.9 9.5-5.9 0.8-0.9 12.6-5.1 13.2-6.3C323.2 120.6 322.4 122 322.4 123.6z" class="e"/><path d="M298.7 132.7l0.6-1.6c1.3-3.6 8.2-10.4 12.4-12.7 -1.2-0.1-2.6-0.2-3.9-0.4 -1.6-0.2-3.1-0.4-4-0.4 -0.7 0-0.8 0.1-0.8 0.1l-0.5-0.6c5.3-4.8 10.8-7.4 15.8-7.6 -2.2-0.9-5.5-2-7.8-2 -0.6 0-1.1 0.1-1.5 0.2l-1.4 0.4 1-1.1c2.4-2.7 8.9-4.7 14.3-4.2 -1.1-0.8-2-1.5-2.7-2.2 -1-0.9-1.7-1.5-2.4-1.5h-2.2l2.1-0.8c1-0.4 2.4-0.6 4-0.6 4 0 8.8 1.3 11.8 3 -0.3-2.7 0.7-5.6 3.6-6.7l0.4-0.1 0.1 0.4c0.2 0.7 0.5 1.9 0.8 3.1 0.3 1.3 0.7 3.3 1.1 4.1 2.4-3.1 8.6-6.1 12.6-6.1h0.6l-0.3 0.6c-1.5 3.2-2.5 6.2-2.7 7.6 1.5-0.8 3.1-1.5 4.9-1.5 1.5 0 3 0.5 4.7 1.4 2.5 1.4 4 4.9 3.6 8.1 -0.2 1.9-1.4 5.4-6.5 7 0 0-0.1 0-0.3 0.1 -1.5 0.6-9.3 4-11.3 9.4l-0.3 0.7 -0.4-0.7c-1.5-2.3-2.5-5.8-2.8-7.2 -2.9 2-7.9 5.6-8.1 8.4l-0.1 1.6 -0.6-1.5c-1-2.5-1.4-6.3-1-8.3 -5 2.8-9.3 6.2-9.4 7.1l-0.3 3.1 -0.5-3.1c-0.4-2.6-0.2-5-0.1-6 -3.3 0.9-16.5 4.9-21.2 9.4L298.7 132.7zM313.8 117.6l0 0.8c-2.7 0.2-10.1 6.9-12.9 11.2 6.2-4.5 19-8.1 20.6-8.5l0.6-0.2 -0.1 0.6c0 0-0.4 2.4-0.1 5.3 1.7-2 6.5-5.2 10.1-7.1l1.7-0.9 -1.2 1.5c-0.5 0.7-0.6 4.3 0.3 7.4 1.3-2.8 5.6-5.9 8.3-7.8l0.8-0.6 0.1 0.6c0 0 0.9 4.1 2.5 6.9 2.5-5.2 9.9-8.5 11.5-9.1 0.2-0.1 0.3-0.1 0.3-0.1 3.5-1 5.6-3.3 6-6.3 0.3-2.9-1.1-6.1-3.2-7.4 -1.5-0.9-2.9-1.3-4.3-1.3 -2 0-3.6 0.9-5.2 1.8l-0.5 0.3 -0.1-0.6c-0.1-1.2 1-4.8 2.5-8.1 -4 0.3-9.7 3.3-11.7 6.2l-0.2 0.3 -0.3-0.2c-0.6-0.4-1-1.9-1.7-4.9 -0.2-1-0.4-1.9-0.6-2.6 -2.5 1.2-3.2 4.1-2.6 6.5l0.3 1.1 -0.9-0.6c-2.8-2-7.9-3.4-12.2-3.4 -0.9 0-1.7 0.1-2.5 0.2 0.5 0.3 1 0.8 1.6 1.3 1 0.9 2.3 2.1 4.3 3.1l2.5 1.3 -2.8-0.5c-1.1-0.2-2.3-0.3-3.5-0.3 -4.5 0-8.9 1.5-11.1 3.2 3-0.1 7.5 1.6 10.4 2.9l2.3 1 -2.5-0.3c-5.1-0.5-10.8 1.8-16.4 6.5 1 0 2.4 0.2 3.9 0.4C310 117.4 312.2 117.7 313.8 117.6z" class="f"/><path d="M353.3 113.4c-1.1 7 0.2 15.9 7.7 16.5 7.5 0.5 13.9-2.4 13.6-13.5 -0.4-18 10.4-36.5 10.4-39.4C384.9 73.9 356.7 90.6 353.3 113.4z" class="m"/><path d="M364.9 123.7c10-14.3 11.1-32.6 19.9-47.1 -2.6-1-28.1 15.1-31.4 36.7 -0.8 5.5-0.2 12.1 3.6 15C359.9 128.2 362.6 126.8 364.9 123.7z" class="n"/><path d="M362.6 130.3L362.6 130.3c-0.5 0-1.1 0-1.7-0.1 -2.4-0.2-4.3-1.1-5.7-2.9 -2.4-3-3.2-8.2-2.4-14 3.2-21.3 27.4-37.1 31.5-37.1 0.7 0 0.9 0.4 0.9 0.7 0 0.9-0.8 2.9-2.1 6 -3.2 7.7-8.6 20.6-8.3 33.4 0.1 4.8-1 8.4-3.3 10.8C369.6 129.2 366.5 130.3 362.6 130.3zM384.4 77c-3.9 0-27.6 16-30.8 36.5 -0.9 5.6 0 10.6 2.2 13.4 1.3 1.6 3 2.5 5.1 2.6 4.5 0.3 7.9-0.7 10.1-2.9 2.1-2.2 3.2-5.6 3.1-10.2 -0.3-13 5.1-25.9 8.3-33.7 1.1-2.7 2-4.9 2-5.6C384.5 77 384.5 77 384.4 77z" class="o"/><path d="M381.6 85.8c-2.7-0.7-7.1-3.3-7.3-3.4l0.4-0.7c0 0 4.5 2.7 7.1 3.4L381.6 85.8z" class="o"/><path d="M378.6 92.4c-4.9 0-10.7-4.2-10.9-4.3l0.5-0.6c0.1 0 6.3 4.6 11 4.2l0.1 0.8C379 92.4 378.8 92.4 378.6 92.4z" class="o"/><path d="M372.4 100.7c-6.5 0-11.7-4.1-12-4.3l0.5-0.6c0.1 0.1 7.7 6 15.7 3.5l0.2 0.8C375.4 100.5 373.9 100.7 372.4 100.7z" class="o"/><path d="M370.5 110.4c-8.4 0-15.2-4.3-15.3-4.4l0.4-0.7c0.1 0.1 9.2 5.8 19.2 3.8l0.2 0.8C373.4 110.2 371.9 110.4 370.5 110.4z" class="o"/><path d="M362.9 120.2c-6.3 0-10.1-3.2-10.2-3.2l0.5-0.6c0.1 0.1 8.5 7 21.1-0.4l0.4 0.7C370.2 119.3 366.2 120.2 362.9 120.2z" class="o"/><path d="M418.5 127.4c-0.8 0-1.8-0.1-2.7-0.3l0.2-0.8c1.7 0.4 3.8 1 3.8 1C419.8 127.3 419.3 127.4 418.5 127.4z" class="f"/><path d="M367.3 151.5c0 0 3.1-1.9 4-3.3l0.7 0.4C371 150.2 367.3 151.5 367.3 151.5z" class="f"/><path d="M382.6 325.2c-0.1-0.1-3.1-1.9-4.4-4.3l0.7-0.4C380.1 322.7 382.6 325.2 382.6 325.2z" class="f"/><path d="M377.9 365.3c-0.9-2.7 2.1-9.9 2.1-9.9 0 0.1-2.1 7.2-1.3 9.6L377.9 365.3z" class="c"/><path d="M395.2 368.8c-1.1-8.3 2.2-11.9 2.2-11.9 0 0-2.5 3.8-1.4 11.8L395.2 368.8z" class="c"/><path d="M477.2 358.6c-1-4.6 2.9-9.9 2.9-9.9 0 0.1-3.1 5.4-2.1 9.7L477.2 358.6z" class="c"/><path d="M454 348.4c-0.9-3.4 2.6-8.7 2.6-8.7 0 0.1-2.6 5.4-1.8 8.5L454 348.4z" class="c"/><circle cx="334.2" cy="158.6" r="2.4" class="i"/><circle cx="302.1" cy="153.2" r="1.4" class="i"/><ellipse transform="matrix(0.9734 -0.2291 0.2291 0.9734 -45.9547 72.7099)" cx="290.1" cy="234.3" rx="1.8" ry="0.7" fill="#E57279"/></svg>