<svg xmlns="http://www.w3.org/2000/svg" viewBox="0 0 768 430"><style>.a{fill:#E2A029;}.b{fill:#F4B631;}.c{fill:#CE8E28;}.d{fill:#F6C55A;}.e{fill:#DBC463;}.f{fill:#E9D66F;}.g{fill:#873A13;}.h{fill:#99481B;}.i{fill:#EABC54;}.j{fill:#C9A74F;}.k{fill:#BB9123;}.l{fill:#BFBFBF;}.m{fill:#FFF;}.n{fill:#7E4A18;}.o{fill:#562A09;}.p{fill:#6A3910;}.q{fill:#B75327;}</style><path d="M405.9 324.5c0 0-4.4 28.1 0.3 31.3 2.5 3.5 15.5 0.7 15.5-7 0-8-2-16.7-4-19C412.8 332.1 405.9 324.5 405.9 324.5z" class="a"/><path d="M456 281.2c0 0 13.6 13.7 25.6 8.2 -7.6 4.1-19.2 6-26.9 1.3C455.9 284.1 456 281.2 456 281.2z" class="a"/><path d="M456 281.2c0 0 13.6 13.7 25.6 8.2 -7.6 4.1-17.9 2.6-25.6-2.1C457.2 280.7 456 281.2 456 281.2z" class="b"/><path d="M331.8 291.8c0 0-10.4 61.4-15.6 80.4 -2 7.9 27.5 9.9 28.1 0 0.9-21.9 0.9-55.5 2.7-60.8C339.6 299.4 331.8 291.8 331.8 291.8z" class="c"/><path d="M331.8 291.8c0 0-10.4 61.4-15.6 80.4 -2 7.9 19.4 7.5 19.4-5.1 0.9-21.9 1.8-40.3 3.5-45.5C331.7 309.5 331.8 291.8 331.8 291.8z" class="a"/><path d="M405.9 324.5c0 0-4.4 28.1 0.3 31.3 2.5 3.5 21.9 1.5 24.8-4.4 1.8-5.6-3.8-27.5-9.4-33C416.8 320.7 405.9 324.5 405.9 324.5z" class="c"/><path d="M405.9 324.5c0 0-4.4 28.1 0.3 31.3 2.5 3.5 15.5 0.7 15.5-7 0-8-2-16.7-4-19C412.8 332.1 405.9 324.5 405.9 324.5z" class="a"/><path d="M320.5 77.3c0 0-23.2-0.4-22.5-21.5 3.5-4.8 14.2-10.6 39.3 11.8C330.2 71.6 320.5 77.3 320.5 77.3z" class="d"/><path d="M320.5 77.3c0 0-20.6-3.3-19.5-20.2 3.5-4.8 12.3-7.3 36.3 10.5C330.2 71.6 320.5 77.3 320.5 77.3z" class="b"/><path d="M325.8 72.4c2.1 0.1-14.1 2.1-19.1-12.4C315.3 58.8 321.1 61.5 325.8 72.4z" class="e"/><path d="M322.5 70.2c0.8 1.9-10.4-2.1-15.8-10.2C315.3 58.8 318.6 61.6 322.5 70.2z" class="f"/><path d="M375.5 86.8c0 0 18.7-10.7 29.9-1.6 11.2 9.1 9 15.1 9 20.9 -8.8 2.6-19.1 5.2-30-7.1 -3.5-4.4-7.2-6.1-10.1-2.8C374 92.7 375.5 86.8 375.5 86.8z" class="a"/><path d="M375.5 86.8c0 0 18.7-10.7 29.9-1.6 11.2 9.1 6.8 14.6 6.8 20.5 -8.8 2.6-18.6 0.7-29.6-11.6 -3.5-4.4-5.5-1.2-8.3 2.1C374 92.7 375.5 86.8 375.5 86.8z" class="b"/><path d="M381.5 90.9c0 0 18.5-4.3 26.6 10.1C392.5 103.7 385.5 90.6 381.5 90.9z" class="e"/><path d="M381.5 90.9c0 0 14.9-3.7 22.4 7.5C388.3 101 385.5 90.6 381.5 90.9z" class="f"/><path d="M341 141.5c0.6 3.3-11.1 42.9-14.2 92.4 -3 26.7-7 87.2 37.3 90.8 12.3 4 54.8 13.2 92.1-27.2 6.6-7 4.2-30.5-15.8-41.9 -41.5-17.2-72.5 10.4-76.7-38.7 -7.6-82.2 23.1-122.7 11.8-135.3C365.2 97.8 341 141.5 341 141.5z" class="a"/><path d="M343.9 158.4c0.6 3.3-6.9 27.7-9.9 77.2 -3 26.7-1.3 76.6 31.7 76.6 12.3 4 60.8 10.7 90.6-14.8 6.6-7 4.2-30.5-15.8-41.9 -41.5-17.2-72.5 10.4-76.7-38.7 -7.6-82.2 23.1-122.7 11.8-135.3C368.1 135.9 343.9 158.4 343.9 158.4z" fill="#F4C931"/><path d="M343.9 158.4c0.6 3.3-6.9 27.7-9.9 77.2 -3 26.7-1.3 76.6 31.7 76.6 12.3 4 60.8 10.7 90.6-14.8 6.6-7 5.2-24.7-14.8-36.1 -41.5-17.2-78.6 10.2-82.8-38.9 -7.6-82.2 28.3-128.4 16.9-141C368.1 135.9 343.9 158.4 343.9 158.4z" class="b"/><path d="M357.4 306.1c0 0-2.3 66.3-2.9 79.8 0 4.6 26.3 8.8 27.8 1.8 0.9-12.6-2.6-69.3-2.9-76.3C374.3 308.7 357.4 306.1 357.4 306.1z" class="a"/><path d="M357.4 306.1c0 0-2.3 66.3-2.9 79.8 0 4.6 18.3 0.8 19.8-6.2 -2.9-38.2 5.4-61.3 5.1-68.3C374.3 308.7 357.4 306.1 357.4 306.1z" class="b"/><path d="M437.8 297.9c0 0 12 70.1 14.3 75.7 1.2 2.6 27.8 1.1 27.8-8.2 -2.6-19.3-17.3-63.7-21.8-88C444.8 285.2 437.8 297.9 437.8 297.9z" class="a"/><path d="M437.8 297.9c0 0 12 70.1 14.3 75.7 1.2 2.6 19.9-4.2 16.1-17.1 -8.5-28.1-5.6-54.8-10.1-79.1C444.8 285.2 437.8 297.9 437.8 297.9z" class="b"/><path d="M285.2 160.2c0 0-39.5-24.1 6.1-66.6 17.5-13.6 22.4-20.8 47.9-31.3 2.7-1.4 2.6-15.6 1.7-22.6 7.9 0.4 7.9 0.4 7.9 0.4s-2.6 21.5 8.3 24.6c7 1.8 11 2.6 21.9-15.8 3.5 3.5 5.3 5.7 5.3 5.7s-12.1 14.2-7.9 22.8c4.2 9.9 0.4 29-20.4 57.2C336.1 163.7 306.3 188.3 285.2 160.2z" class="a"/><path d="M289.8 153.9c0 0-44.1-17.8 1.5-60.4 17.5-13.6 22.4-20.8 47.9-31.3 2.7-1.4 2.6-15.6 1.7-22.6 4.5 1.2 4.5 1.2 4.5 1.2s0.8 20.7 11.7 23.8c7 1.8 11 2.6 21.9-15.8 3.5 3.5 5.3 5.7 5.3 5.7s-14.4 13.1-10.1 21.6c4.2 9.9 2.7 30.2-18.1 58.4C336.1 163.7 310.9 182 289.8 153.9z" class="d"/><path d="M289.8 153.9c0 0-41-16.5 4.6-59 17.5-13.6 22-21.7 47.5-32.2 2.7-1.4-0.1-16-1-23 4.5 1.2 4.5 1.2 4.5 1.2s0.8 20.7 11.7 23.8c7 1.8 11 2.6 21.9-15.8 3.5 3.5 5.3 5.7 5.3 5.7s-14.4 13.1-10.1 21.6c4.2 9.9 2.7 30.2-18.1 58.4C336.1 163.7 310.9 182 289.8 153.9z" class="b"/><path d="M389.1 54.8c-2.5 2.4-7.2 1.6-10.4-1.8 -3.3-3.4-3.9-8.1-1.4-10.5 2.5-2.4 7.2-1.6 10.4 1.8C391 47.7 391.6 52.4 389.1 54.8z" class="h"/><path d="M290.9 94.1c-44.7 42.2-5.6 66.1-5.6 66.1 16.5 22 38.4 11.7 56.7-7.9C342.2 103.5 307.2 95.2 290.9 94.1z" class="i"/><path d="M290.9 94.1c-13 12.6-18.9 22.9-20.5 31.3 -3.3 16.8 10.3 26.2 17.6 32.2 0.7 0.6 18.7 6.8 43.3-7.8 -17.9 16.7-38.4 13.1-38.4 13.1 8.2 11.5 30.8 9.1 49.1-10.5C342.2 103.5 307.2 95.2 290.9 94.1z" fill="#FDDB81"/><path d="M270.4 125.4c-3.3 16.8 10.3 26.2 17.6 32.2 0.7 0.6 18.7 6.8 43.3-7.8 -17.9 16.7-38.4 13.1-38.4 13.1 8.2 11.5 30.8 9.1 49.1-10.5 0.3-45.5-30-55.8-47.4-57.9C289.3 99.9 272 116.9 270.4 125.4z" fill="#FCD262"/><path d="M286.8 130.6c0 6.6-3.2 12-7.2 12 -4 0-7.2-5.4-7.2-12 0-6.6 3.2-12 7.2-12C283.6 118.6 286.8 124 286.8 130.6z" class="i"/><path d="M285.2 129.3c0 5.9-2.9 10.7-6.4 10.7 -3.5 0-6.4-4.8-6.4-10.7 0-5.9 2.9-10.7 6.4-10.7C282.4 118.6 285.2 123.4 285.2 129.3z" class="j"/><path d="M283.2 127.6c0 5-2.4 9-5.4 9 -3 0-5.4-4-5.4-9s2.4-9 5.4-9C280.8 118.6 283.2 122.6 283.2 127.6z" class="k"/><path d="M311.1 147.8c-3.8 4.5-9.3 6-12.4 3.4 -3.1-2.6-2.5-8.3 1.2-12.8 3.8-4.5 9.3-6 12.4-3.4C315.4 137.6 314.8 143.3 311.1 147.8z" class="i"/><path d="M310.5 145.6c-3.3 3.9-8.1 5.2-10.8 3 -2.7-2.3-2.2-7.2 1.1-11.1 3.3-3.9 8.1-5.2 10.8-2.9C314.3 136.7 313.8 141.7 310.5 145.6z" class="j"/><path d="M309.9 142.9c-2.7 3.2-6.7 4.3-8.9 2.4 -2.2-1.9-1.8-6 0.9-9.2 2.7-3.2 6.7-4.3 8.9-2.4C313 135.6 312.6 139.7 309.9 142.9z" class="k"/><circle cx="358.7" cy="88.6" r="11.3" class="a"/><circle cx="358.7" cy="87.5" r="10.2"/><circle cx="358.7" cy="86.8" r="9.4" class="l"/><circle cx="358.7" cy="85.1" r="7.8" class="m"/><path d="M363.7 87.2c0 2.1-1.7 3.7-3.7 3.7 -2.1 0-3.7-1.7-3.7-3.7 0-2.1 1.7-3.7 3.7-3.7C362 83.5 363.7 85.1 363.7 87.2z"/><path d="M347.3 77.6c0 6.2-5.1 11.3-11.3 11.3 -6.2 0-11.3-5.1-11.3-11.3 0-6.2 5.1-11.3 11.3-11.3C342.2 66.3 347.3 71.4 347.3 77.6z" class="a"/><circle cx="336" cy="76.5" r="10.2"/><circle cx="336" cy="75.7" r="9.4" class="l"/><path d="M343.6 73.9c0 4.2-3.4 7.6-7.6 7.6 -4.2 0-7.6-3.4-7.6-7.6 0-4.2 3.4-7.6 7.6-7.6C340.2 66.3 343.6 69.7 343.6 73.9z" class="m"/><circle cx="337.3" cy="76.2" r="3.7"/><path d="M371.2 79.9c0 0-1.8-5.8-7.5-7.5C369.9 72.5 374.2 73 371.2 79.9z"/><path d="M343.1 65.1c0 0 4.5 2.7 6.1 5.9C349.2 66.3 347.5 62.9 343.1 65.1z"/><path d="M315.9 89.8c0 1.7-1.7 3.1-3.8 3.1s-3.8-1.4-3.8-3.1c0-1.7 1.7-3.1 3.8-3.1S315.9 88.1 315.9 89.8z" class="n"/><path d="M349.2 104.3c0 2.4-1.8 4.4-4.1 4.4 -2.3 0-4.1-2-4.1-4.4 0-2.4 1.8-4.4 4.1-4.4C347.4 99.9 349.2 101.9 349.2 104.3z" class="n"/><path d="M357.3 188.7c0 6.7-4 12.1-9 12.1 -5 0-9-5.4-9-12.1 0-6.7 4-12.1 9-12.1C353.3 176.6 357.3 182 357.3 188.7z" class="n"/><path d="M358.6 222.5c0 5-4.3 9.1-9.6 9.1 -5.3 0-9.6-4.1-9.6-9.1 0-5 4.3-9.1 9.6-9.1C354.3 213.4 358.6 217.4 358.6 222.5z" class="n"/><path d="M363.9 251.5c0 5.4-3.8 9.8-8.5 9.8 -4.7 0-8.5-4.4-8.5-9.8 0-5.4 3.8-9.8 8.5-9.8C360.1 241.7 363.9 246.1 363.9 251.5z" class="n"/><path d="M341.4 251.7c0 3.5-2.6 6.4-5.8 6.4 -3.2 0-5.8-2.9-5.8-6.4 0-3.6 2.6-6.4 5.8-6.4C338.8 245.3 341.4 248.1 341.4 251.7z" class="n"/><path d="M356.6 283.8c0 4.8-4.7 8.8-10.5 8.8 -5.8 0-10.5-3.9-10.5-8.8 0-4.8 4.7-8.8 10.5-8.8C351.9 275.1 356.6 279 356.6 283.8z" class="n"/><path d="M382.9 290.8c0 3.9-3.9 7-8.6 7 -4.8 0-8.6-3.1-8.6-7 0-3.9 3.9-7 8.6-7C379 283.8 382.9 287 382.9 290.8z" class="n"/><path d="M429.3 288.2c0 3.9-3.4 7-7.6 7 -4.2 0-7.6-3.1-7.6-7 0-3.9 3.4-7 7.6-7C425.9 281.2 429.3 284.3 429.3 288.2z" class="n"/><path d="M446.3 279.8c0 4.6-2.8 8.4-6.3 8.4s-6.3-3.8-6.3-8.4c0-4.6 2.8-8.4 6.3-8.4S446.3 275.2 446.3 279.8z" class="n"/><path d="M410 275.2c0 4.8-5.2 8.6-11.7 8.6 -6.5 0-11.7-3.9-11.7-8.6 0-4.8 5.2-8.6 11.7-8.6C404.8 266.6 410 270.5 410 275.2z" class="n"/><path d="M371.4 271.4c0 2-2.4 3.7-5.3 3.7 -3 0-5.4-1.6-5.4-3.7s2.4-3.7 5.4-3.7C369 267.8 371.4 269.4 371.4 271.4z" class="n"/><path d="M462.9 310c0 4.6-3.1 8.3-6.9 8.3 -3.8 0-6.9-3.7-6.9-8.3 0-4.6 3.1-8.3 6.9-8.3C459.8 301.7 462.9 305.4 462.9 310z" class="n"/><path d="M372.6 324.5c0 4.2-2.7 7.6-6 7.6 -3.3 0-6-3.4-6-7.6 0-4.2 2.7-7.6 6-7.6C369.9 316.9 372.6 320.3 372.6 324.5z" class="n"/><path d="M338.1 329.7c0 2.9-1.9 5.3-4.2 5.3 -2.3 0-4.2-2.4-4.2-5.3 0-2.9 1.9-5.3 4.2-5.3C336.3 324.5 338.1 326.8 338.1 329.7z" class="n"/><path d="M334.3 348.6c0 1.5-1.5 2.8-3.4 2.8 -1.9 0-3.4-1.2-3.4-2.8 0-1.5 1.5-2.8 3.4-2.8C332.8 345.8 334.3 347 334.3 348.6z" class="n"/><path d="M320.4 354.8c-1.5 7.4-3 13.9-4.2 18.2 -2 7.9 27.5 9.9 28.1 0 0.2-5 0.4-10.6 0.5-16.4C334.4 362.9 324.8 357.9 320.4 354.8z" class="o"/><path d="M335.6 367.1c0.1-2.6 0.2-5.1 0.3-7.5 -6.7 0.5-12.4-2.6-15.5-4.8 -1.5 7.4-3 13.9-4.2 18.2 -0.1 0.3-0.1 0.6-0.1 0.9C317.4 379.9 335.6 378.7 335.6 367.1z" class="p"/><path d="M355.3 367.1c-0.3 8.8-0.6 16.1-0.8 19.7 0 4.6 26.3 8.8 27.8 1.8 0.3-3.8 0.1-11.5-0.2-20.6C372.4 372.8 360.7 369.3 355.3 367.1z" class="o"/><path d="M374.2 379.7c-0.2-3.3-0.4-6.4-0.5-9.5 -7.3 0.7-14.5-1.5-18.5-3.1 -0.3 8.5-0.6 15.5-0.7 19.2C355.6 390.2 372.8 386.5 374.2 379.7z" class="p"/><path d="M404.4 337.7c-0.6 7.7-0.6 16.3 1.8 18 2.5 3.5 21.9 1.5 24.8-4.4 0.9-3-0.2-10.7-2.4-18.1C419.6 340.3 409.9 339.2 404.4 337.7z" class="o"/><path d="M404.3 349.9c0-0.2 0-0.4-0.1-0.7C404.2 349.4 404.2 349.7 404.3 349.9z" class="a"/><path d="M404.4 351c0-0.2-0.1-0.4-0.1-0.6C404.3 350.6 404.4 350.8 404.4 351z" class="a"/><path d="M404.1 346.1c0-0.3 0-0.6 0-0.8C404.1 345.6 404.1 345.8 404.1 346.1z" class="a"/><path d="M404.2 348.7c0-0.2 0-0.5 0-0.7C404.1 348.2 404.2 348.4 404.2 348.7z" class="a"/><path d="M404.1 347.4c0-0.3 0-0.5 0-0.8C404.1 346.9 404.1 347.2 404.1 347.4z" class="a"/><path d="M404.6 352c0-0.2-0.1-0.4-0.1-0.6C404.5 351.7 404.5 351.9 404.6 352z" class="a"/><path d="M405.3 354.6c-0.1-0.1-0.1-0.3-0.2-0.4C405.2 354.3 405.3 354.4 405.3 354.6z" class="a"/><path d="M405.7 355.2c-0.1-0.1-0.2-0.2-0.2-0.4C405.5 354.9 405.6 355.1 405.7 355.2z" class="a"/><path d="M404.8 353c0-0.2-0.1-0.3-0.1-0.5C404.7 352.7 404.7 352.8 404.8 353z" class="a"/><path d="M406.2 355.7c-0.1-0.1-0.3-0.2-0.4-0.4C405.9 355.5 406.1 355.6 406.2 355.7z" class="a"/><path d="M405 353.8c-0.1-0.1-0.1-0.3-0.2-0.5C404.9 353.5 405 353.7 405 353.8z" class="a"/><path d="M404.1 344.8c0-0.3 0-0.6 0-0.9C404.1 344.2 404.1 344.5 404.1 344.8z" class="a"/><path d="M406.2 355.7c0.6 0.8 1.8 1.3 3.3 1.4C407.9 356.9 406.7 356.4 406.2 355.7z" class="a"/><path d="M404.2 340.5c0-0.4 0-0.8 0.1-1.2C404.3 339.8 404.3 340.2 404.2 340.5z" class="a"/><path d="M404.2 342c0-0.3 0-0.7 0.1-1.1C404.2 341.3 404.2 341.6 404.2 342z" class="a"/><path d="M404.1 343.4c0-0.3 0-0.7 0-1C404.1 342.7 404.1 343.1 404.1 343.4z" class="a"/><path d="M404.3 339.1c0-0.4 0.1-0.9 0.1-1.3C404.4 338.2 404.4 338.7 404.3 339.1z" class="a"/><path d="M404.4 337.7l0 0.1L404.4 337.7z" class="p"/><path d="M404.9 353.4c0-0.1-0.1-0.3-0.1-0.4C404.8 353.1 404.8 353.2 404.9 353.4z" class="p"/><path d="M405.8 355.3l-0.1-0.2L405.8 355.3z" class="p"/><path d="M404.6 352.5c0-0.1-0.1-0.3-0.1-0.4C404.6 352.2 404.6 352.3 404.6 352.5z" class="p"/><path d="M405.1 354.2c0-0.1-0.1-0.2-0.1-0.3C405.1 353.9 405.1 354.1 405.1 354.2z" class="p"/><path d="M405.4 354.8l-0.1-0.3L405.4 354.8z" class="p"/><path d="M404.2 349.2c0-0.2 0-0.3 0-0.5C404.2 348.9 404.2 349 404.2 349.2z" class="p"/><path d="M404.1 348c0-0.2 0-0.4 0-0.5C404.1 347.6 404.1 347.8 404.1 348z" class="p"/><path d="M404.1 342.4c0-0.1 0-0.3 0-0.4C404.2 342.1 404.2 342.3 404.1 342.4z" class="p"/><path d="M404.3 339.4l0-0.3L404.3 339.4z" class="p"/><path d="M404.1 345.3c0-0.2 0-0.3 0-0.5C404.1 344.9 404.1 345.1 404.1 345.3z" class="p"/><path d="M404.1 346.6c0-0.2 0-0.4 0-0.5C404.1 346.3 404.1 346.5 404.1 346.6z" class="p"/><path d="M404.1 343.9c0-0.2 0-0.3 0-0.5C404.1 343.5 404.1 343.7 404.1 343.9z" class="p"/><path d="M404.3 350.4c0-0.2 0-0.3 0-0.5C404.3 350 404.3 350.2 404.3 350.4z" class="p"/><path d="M404.5 351.5c0-0.2 0-0.3-0.1-0.5C404.4 351.2 404.4 351.3 404.5 351.5z" class="p"/><path d="M404.2 340.9c0-0.1 0-0.2 0-0.4C404.2 340.7 404.2 340.8 404.2 340.9z" class="p"/><path d="M421.7 348.7c0-3.8-0.5-7.8-1.2-11.1 -6.4 2.1-12.3 1.2-16.1 0.1l0 0.1c0 0.4-0.1 0.9-0.1 1.3l0 0.3c0 0.4 0 0.8-0.1 1.2 0 0.1 0 0.2 0 0.4 0 0.4 0 0.7-0.1 1.1 0 0.1 0 0.3 0 0.4 0 0.3 0 0.6 0 1 0 0.2 0 0.3 0 0.5 0 0.3 0 0.6 0 0.9 0 0.2 0 0.3 0 0.5 0 0.3 0 0.6 0 0.8 0 0.2 0 0.4 0 0.5 0 0.3 0 0.5 0 0.8 0 0.2 0 0.4 0 0.5 0 0.2 0 0.5 0 0.7 0 0.2 0 0.4 0 0.5 0 0.2 0 0.5 0.1 0.7 0 0.2 0 0.3 0 0.5 0 0.2 0.1 0.4 0.1 0.6 0 0.2 0 0.3 0.1 0.5 0 0.2 0.1 0.4 0.1 0.6 0 0.1 0.1 0.3 0.1 0.4 0 0.2 0.1 0.3 0.1 0.5 0 0.1 0.1 0.3 0.1 0.4 0 0.2 0.1 0.3 0.2 0.5 0 0.1 0.1 0.2 0.1 0.3 0.1 0.1 0.1 0.3 0.2 0.4l0.1 0.3c0.1 0.1 0.2 0.2 0.3 0.4l0.1 0.2c0.1 0.2 0.3 0.3 0.4 0.4 0.5 0.7 1.7 1.2 3.3 1.4C414.2 357.6 421.7 354.6 421.7 348.7z" class="p"/><path d="M447.7 353.4c2 10.3 3.6 18.4 4.4 20.1 1.2 2.6 27.8 1.1 27.8-8.2 -0.7-5-2.2-11.6-4.1-19.2C464.6 353.8 453.4 354 447.7 353.4z" class="o"/><path d="M451.6 371.9c-0.1-0.2-0.1-0.5-0.2-0.7C451.5 371.4 451.5 371.6 451.6 371.9z" class="b"/><path d="M449.8 363.7c-0.1-0.4-0.2-0.8-0.2-1.2C449.6 362.9 449.7 363.3 449.8 363.7z" class="b"/><path d="M449.5 362.2c-0.1-0.5-0.2-1-0.3-1.6C449.3 361.2 449.4 361.7 449.5 362.2z" class="b"/><path d="M449.2 360.6c-0.1-0.5-0.2-1-0.3-1.6C448.9 359.6 449.1 360.1 449.2 360.6z" class="b"/><path d="M450.7 367.9c-0.2-0.8-0.3-1.6-0.5-2.4C450.3 366.3 450.5 367.1 450.7 367.9z" class="b"/><path d="M450.9 369c-0.1-0.3-0.1-0.5-0.2-0.8C450.8 368.4 450.8 368.7 450.9 369z" class="b"/><path d="M450.1 365.1c-0.1-0.3-0.1-0.7-0.2-1C449.9 364.4 450 364.8 450.1 365.1z" class="b"/><path d="M451.8 372.5c0-0.1-0.1-0.3-0.1-0.4C451.7 372.2 451.7 372.4 451.8 372.5z" class="b"/><path d="M451.4 371.1c-0.1-0.3-0.1-0.5-0.2-0.8C451.3 370.6 451.3 370.8 451.4 371.1z" class="b"/><path d="M451.9 373.1c0-0.1-0.1-0.2-0.1-0.3C451.9 372.8 451.9 372.9 451.9 373.1z" class="b"/><path d="M448.1 355.2c-0.1-0.6-0.2-1.2-0.3-1.8C447.9 354.1 448 354.6 448.1 355.2z" class="b"/><path d="M451.1 370c-0.1-0.2-0.1-0.5-0.2-0.7C451 369.5 451.1 369.8 451.1 370z" class="b"/><path d="M452.1 373.6c0-0.1-0.1-0.2-0.1-0.4C452 373.3 452.1 373.5 452.1 373.6z" class="b"/><path d="M448.4 357c-0.1-0.5-0.2-0.9-0.3-1.4C448.2 356 448.3 356.5 448.4 357z" class="b"/><path d="M448.8 358.7c-0.1-0.4-0.2-0.8-0.3-1.3C448.6 357.9 448.7 358.3 448.8 358.7z" class="b"/><path d="M452.3 373.8l-0.2-0.2L452.3 373.8z" class="b"/><path d="M451.2 370.3c0-0.1 0-0.2-0.1-0.3C451.2 370.1 451.2 370.2 451.2 370.3z" class="p"/><path d="M451.7 372.1l-0.1-0.2L451.7 372.1z" class="p"/><path d="M452 373.2l0-0.1L452 373.2z" class="p"/><path d="M451.8 372.7l-0.1-0.2L451.8 372.7z" class="p"/><path d="M451.4 371.1l0 0L451.4 371.1z" class="p"/><path d="M448.5 357.4c0-0.2-0.1-0.3-0.1-0.5C448.5 357.1 448.5 357.3 448.5 357.4z" class="p"/><path d="M448.2 355.6c0-0.1 0-0.2-0.1-0.3C448.1 355.4 448.1 355.5 448.2 355.6z" class="p"/><path d="M447.7 353.4l0 0L447.7 353.4z" class="p"/><path d="M448.8 359.1c0-0.1 0-0.3-0.1-0.4C448.8 358.8 448.8 359 448.8 359.1z" class="p"/><path d="M451 369.3c0-0.1 0-0.2-0.1-0.3C450.9 369.1 450.9 369.2 451 369.3z" class="p"/><path d="M450.7 368.2c0-0.1 0-0.2-0.1-0.3C450.7 368 450.7 368.1 450.7 368.2z" class="p"/><path d="M449.2 360.7l0 0L449.2 360.7z" class="p"/><path d="M450.1 365.4c0-0.1 0-0.2-0.1-0.4C450.1 365.2 450.1 365.3 450.1 365.4z" class="p"/><path d="M449.8 364.1c0-0.1-0.1-0.3-0.1-0.4C449.8 363.8 449.8 363.9 449.8 364.1z" class="p"/><path d="M449.5 362.5l-0.1-0.3L449.5 362.5z" class="p"/><path d="M468.2 356.5c-0.6-1.8-1.1-3.7-1.5-5.5 -7.8 2.9-14.8 2.9-18.9 2.5l0 0c0.1 0.6 0.2 1.2 0.3 1.8 0 0.1 0 0.2 0.1 0.3 0.1 0.5 0.2 0.9 0.3 1.4 0 0.2 0.1 0.3 0.1 0.5 0.1 0.4 0.2 0.9 0.3 1.3 0 0.1 0 0.3 0.1 0.4 0.1 0.5 0.2 1.1 0.3 1.6l0 0c0.1 0.5 0.2 1.1 0.3 1.6l0.1 0.3c0.1 0.4 0.2 0.8 0.2 1.2 0 0.1 0.1 0.3 0.1 0.4 0.1 0.3 0.1 0.7 0.2 1 0 0.1 0.1 0.2 0.1 0.4 0.2 0.9 0.4 1.7 0.5 2.4 0 0.1 0 0.2 0.1 0.3 0.1 0.3 0.1 0.5 0.2 0.8 0 0.1 0 0.2 0.1 0.3 0.1 0.2 0.1 0.5 0.2 0.7 0 0.1 0 0.2 0.1 0.3 0.1 0.3 0.1 0.6 0.2 0.8l0 0c0.1 0.3 0.1 0.5 0.2 0.7l0.1 0.2c0 0.2 0.1 0.3 0.1 0.4l0.1 0.2c0 0.1 0.1 0.2 0.1 0.3l0 0.1c0 0.1 0.1 0.3 0.1 0.4l0.2 0.2C454.5 375.7 471.9 368.9 468.2 356.5z" class="p"/><path d="M518.2 275.1c-1.4 2.2-3.7 4.8-10.8 8.8 3.8 0 6.4-1.8 9.6-2.6 -2.3 4.4-11.1 7.3-15.8 7 5 2 4.4 2.6 7 2.6 -4.7 1.8-18 6-33.4 1.3C487.5 266.6 507.4 283.8 518.2 275.1z" fill="#893C15"/><path d="M518.2 275.1c-1.4 2.2-11.2 4.8-18.3 8.8 3.8 0 4.3 0.9 7.5 0 -1.8 2.6-10.1 3.8-14.8 3.5 5 2 5.3 3.3 7.9 3.3 -4.7 1.8-11.6 3.6-25.6 1.5C487.5 266.6 507.4 283.8 518.2 275.1z" class="h"/><path d="M380.4 85.2c0 0 21-6.9 28.7 5.8 2 5.5-0.9 5.7-6.8 0C396.4 85.2 388.3 84.9 380.4 85.2z" class="d"/><path d="M351.2 35.4c0 0.9-2.8 1.7-6.2 1.7 -3.4 0-6.2-0.8-6.2-1.7 0-0.9 2.8-1.7 6.2-1.7C348.4 33.7 351.2 34.5 351.2 35.4z" class="q"/><path d="M388.4 52.9c-0.7 0.6-3.1-1-5.4-3.6 -2.3-2.6-3.6-5.2-2.9-5.8 0.7-0.6 3.1 1 5.4 3.6C387.9 49.7 389.1 52.3 388.4 52.9z" class="q"/><path d="M338.7 72.8c0 1-0.8 1.9-1.9 1.9 -1 0-1.9-0.8-1.9-1.9 0-1 0.8-1.9 1.9-1.9C337.9 71 338.7 71.8 338.7 72.8z" class="m"/><path d="M361.1 83.5c0 1-0.8 1.9-1.9 1.9 -1 0-1.9-0.8-1.9-1.9 0-1 0.8-1.9 1.9-1.9C360.2 81.6 361.1 82.4 361.1 83.5z" class="m"/><path d="M334.3 271.4c0-3.3-3.1-6-6.9-6 -0.8 0-1.5 0.1-2.2 0.3 0.1 3.8 0.4 7.7 0.8 11.5 0.5 0.1 1 0.1 1.5 0.1C331.3 277.4 334.3 274.7 334.3 271.4z" class="n"/><path d="M336.7 207.1c0-3.4-2.9-6.2-6.5-6.3 -0.6 4-1.1 8.1-1.5 12.4 0.5 0.1 1 0.2 1.5 0.2C333.7 213.4 336.7 210.6 336.7 207.1z" class="n"/><path d="M349.5 161.1c0 5 5.1 9.1 11.4 9.1 0.8 0 1.6-0.1 2.3-0.2 0.5-6.1 1.1-11.8 1.9-17.3 -1.3-0.4-2.7-0.7-4.2-0.7C354.6 152 349.5 156.1 349.5 161.1z" class="n"/><path d="M371.4 251c0 5.7 4.6 10.3 10.3 10.3 5.7 0 10.3-4.6 10.3-10.3 0-0.9-0.1-1.8-0.4-2.7 -6.8-0.4-12.5-1.4-17.1-4.7C372.6 245.5 371.4 248.1 371.4 251z" class="n"/><path d="M416.8 261.3c5.3 0 9.6-4.3 9.6-9.6 0-0.2 0-0.4 0-0.6 -6.7-1.4-13-2-18.8-2.3 -0.3 0.9-0.4 1.9-0.4 2.8C407.1 257 411.4 261.3 416.8 261.3z" class="n"/><path d="M442.3 265.4c2.7 0 5.2-1.3 6.7-3.3 -2.4-2.5-5.3-4.7-8.7-6.7 -2-0.8-4-1.6-6-2.2 -0.5 1.1-0.8 2.3-0.8 3.5C433.7 261.6 437.6 265.4 442.3 265.4z" class="n"/></svg>