<svg version="1.1" id="Layer_1" xmlns="http://www.w3.org/2000/svg" xmlns:xlink="http://www.w3.org/1999/xlink" viewBox="0 0 768 430" xml:space="preserve">
<path fill="#DDE4D0" d="M475.5,96.4c-0.1-1.2,0-2.6-0.6-3.6c-0.9-1.6-2.9-2.2-4-3.6c-2-2.5-3.2-5.6-4.601-8.5
	c-0.899-1.9-1.7-3.9-2.5-5.8c-0.5-1.2-0.7-2.6-1.5-3.6c-1.399-1.7-5.5-0.9-6.8-2.7c-1.7-2.4-2.6-5.2-3.1-7.7
	c-0.2-0.9,0.1-2.6-0.601-3.4s-0.7-2.2-1.8-2c-2.4,0.4-1.7,0.1-2.5,1.2c-0.5,0.8-2.1,1.3-1.9,2.2c0.301,1.1,1.9,2.4,2.101,3.6
	c0.2,1.3,0.7,2.2,0.1,3.4c-0.399,0.8-1.1,1.6-1.899,2.1c-1.4,0.8-3.101,0.7-4.601,0.6c-3.2-0.3-5,0-6.2-1.5
	c-0.899-1.1-5.899-3-5.899-3s1.6,3.6,2.5,5.2c0.7,1.2,1.6,4,1.6,4l0,0c0,0-7,5.7-9.899,9.1c-4.5,5.2-8.2,11-11.5,17
	c0,0-9.101,17.5-14.301,25.8c-2.199,3.6-4.5,7.1-7.1,10.3c0,0-11.8,6.5-15.2,9.7c-3.9,3.7-8.1,9-10.8,14.3c0,0-4.2,4.4-8.7,6.4
	c-5.1,2.2-10.7,3-16.1,4.6c0,0-11.5,2.7-17,4.9c-3.9,1.5-8.1,2.7-11.2,5.5l-4,3.6c-4.9,4.4-5.6,14.6-7.7,23.7
	c-0.7,3.2-0.8,3.8-2.8,9.399c-1,2.7-1.4,10-2.5,12.801c-1.1,2.899-0.8,6.5-0.9,9.1c-0.2,4.4-0.3,9.4-0.9,14
	c-0.5,3.9-2.2,3.5-0.9,7.3c0.5,1.601,0.3,13.7,1.9,13.101c2-0.801,2.6,1.1,4.7,0.3c2.2-0.9-1.5-0.2,0.6-1.2c2.4-1.1,0.4,1.3,2.8,0.3
	c1.7-0.7-4.1-8.8-4.6-11.2c-1-4.5-1.4-5.1-1.9-8.5c-0.3-1.8,1.1-4.899,0.9-6.699c-0.5-4.701,1-2.9,1.2-7.601
	c0.1-1,0.4-9.601,0.6-10.601c1.1-4.199,2.9-6.799,4-10.899c1.1-3.899,1.2-3.899,2.2-7.899c0.3-1.4,0.6-6.4,0.6-6.4l2.8,10.3
	c1,3.601,2,7.2,2.5,10.9c0.4,3.399,0.3,6.899,0.3,10.3c0,2.1,0.4,4.3,0,6.4c-0.4,2.1-2,3.899-2.5,6.1c0,0-1.2,3.8-1.2,5.8
	c-0.2,7.101,2.7,13.9,3.4,21c0,0,1.8,12.5,1.9,18.8c0,3-2.4,6.601-0.6,9.101c0,0,4.9,3.8,4.6,6.399c-0.1,1.4-3.1,3-3.1,3v1.801
	l14.3-0.301c1.5,0-1.9-3.6-2.8-4.899c-2.3-3.5-6-6.8-6.2-10.9c0,0-0.7-16-0.9-24c-0.1-4.399-0.9-8.8-0.3-13.101
	c0.4-3.199,1.7-6.299,2.8-9.399c1-3,2-6,3.4-8.8c1.8-3.5,4.6-6.5,6.5-10c2.4-4.3,1.9-10.9,6.2-13.4c1.3-0.699,2.9,0.101,4.3,0.301
	c1.3,0.199,4,0.399,5.3,0.6c3.2,0.5,8.9-0.4,12.1-0.9c3.8-0.6,3.1-1.399,6.8-2.399c3.4-0.9,7.7-3.7,10.5-1.5c2.7,2.1,0.6,6.7,0.9,10
	c0.4,3.5,1,6.899,1.2,10.3c0.3,5,0.7,9.9,0.3,14.9c-0.2,2.5-1.4,4.8-1.2,7.3c0.2,3.5,2.3,6.6,2.8,10c0.9,6.6,0.1,13.399-0.3,20.1
	c-0.2,4-1.5,7.9-1.2,11.9c0.1,1.8,2.2,6.399,2.2,8.2c0,2.8-2.2,5.8-2.2,5.8h3.7h10.2c0,0-1.5-2.7-2.5-4.3
	c-0.899-1.301-1.2-2.4-1.6-3.9c-0.5-2-0.601-4.4-0.601-6.4c-0.1-7.8-1.1-15.3-0.899-23.1c0.1-3.3,0.1-5.6,0.899-8.8
	c0.601-2.5,2.101-5.7,2.801-8.2c1.199-4.4,0.199-9.2,0.899-13.7c0.8-5,2.3-9.8,3.7-14.6c1.2-4.101,2.6-8.101,4-12.2
	c0,0,2.2-6.3,3.4-9.4c2-5.399,5.299-10.399,6.199-16.1c0.4-2.6-0.1-5.3-0.3-7.9c-0.3-3-1.7-5.899-1.2-8.8c0.601-3.7,3.301-6.7,5-10
	c2.9-5.7,6.5-11.1,9-17c1.801-4.2,3.2-8.6,4.301-13.1c2-7.5,2.399-15.4,4.6-22.8c2.1-6.7,2.8-14.7,8.1-19.5c0,0,2.4-2.8,4-3.6
	c0.7-0.4,1.601-0.5,2.5-0.6c1-0.2,2.101-0.5,3.101-0.3c3.6,0.7,6.1,4.3,9.6,5.2c1.2,0.3,2.5-0.2,3.7,0c0.9,0.2,1.7,0.5,2.5,0.9
	c2.4,1.2,4.2,3.8,6.8,4.6c1,0.3,2.101-0.4,3.101,0c0.899,0.4,1.199,1.9,2.199,2.1c0.4,0.1,1,0,1.2-0.3
	C476.5,99.8,475.7,97.9,475.5,96.4z"/>
</svg>
