<svg xmlns="http://www.w3.org/2000/svg" viewBox="0 0 768 430"><style>.a{fill:#F59E00;}.b{fill:#E28B00;}.c{fill:#F0C7A4;}.d{fill:#F4D9BF;}.e{fill:#C5E2D0;}.f{fill:#00A0DB;}.g{fill:#0077B3;}.h{fill:#3B9B45;}.i{fill:#A4000A;}.j{fill:#FDC744;}.k{fill:#FFD060;}.l{fill:#FFB500;}.m{fill:#FFC900;}.n{fill:#BF946F;}.o{fill:#925F2D;}.p{fill:#64421C;}.q{fill:#413000;}.r{fill:#FFF;}.s{fill:#75B73E;}.t{fill:#F29398;}.u{fill:#EC675E;}.v{fill:#E63528;}.w{fill:#E85924;}.x{fill:#72C5C7;}.y{fill:#009D9F;}.z{flood-color:white;flood-opacity:1;}.A{stop-color:#FFF;}.B{fill:#503513;}</style><path d="M274.8 205.5c0 0 7.6 16.6 0 26.9 0 0-32.6 4.2-36.6-2.6 -4-6.8 3-19.8 3-19.8L274.8 205.5z" class="a"/><path d="M272.2 222.7c0.3 3.6 1.1 6.7 2.4 9.6 0.1 0 0.1 0 0.1 0 7.3-9.8 0.6-25.5 0-26.8 -0.3 0.3-0.5 0.7-0.7 1.1 -0.9 2.1-1.4 4.1-1.6 6.4C272.2 216.3 272 219.5 272.2 222.7z" class="b"/><path d="M274.6 205.6c0 0 21.6 0.4 52-8.5l1.2 14.8c0 0-42.6 10.8-55.4 12.5C272.4 224.3 271.3 210.8 274.6 205.6z" class="c"/><path d="M186.1 320.3c0 0 3.6 32.2-0.8 53.7 -4.4 21.5-6.8 33-2.5 35.6 4.4 2.6 16.7-1.6 23.3-33.6 6.7-32.1 6.2-48.9 6.2-48.9L186.1 320.3z" class="d"/><path d="M185.9 370.8c-0.2 1.1-0.4 2.1-0.6 3.2 -4.4 21.5-6.8 33-2.5 35.6 4.4 2.6 16.7-1.6 23.3-33.6 0.1-0.4 0.1-0.7 0.2-1C198.9 376.3 190.7 375.6 185.9 370.8z" class="e"/><path d="M181.8 392c-1.7 10.1-1.9 15.9 1 17.6 3.5 2.1 12-0.2 18.8-17.5C195.8 388.1 187.9 387.9 181.8 392z" class="f"/><path d="M199.5 395.2c-1.1-1.5-3.9-2.4-5.7-2.8 -1.3-0.3-4.1-1.5-5.3-0.3 -1.1 1.1-1.1 2.4-1.4 3.9 0 0.2 0.2 0.2 0.3 0.1 0.3-0.4 0.5-1 0.7-1.4 0.9-1.9 2.7-1.5 4.3-1.2 1.3 0.3 2.5 0.9 3.8 1.3 0.7 0.3 1.4 0.6 2 1 0.6 0.4-0.3 2.9-0.5 3.3 -0.1 0.3 0.3 0.5 0.5 0.3C199 398.5 200.5 396.5 199.5 395.2z" class="g"/><path d="M234.2 322.1c0.3 0.5 8.9 14.8 14.8 34.7 5.9 19.9 10.1 45.9 19.1 45.9s7.4-28.1 0-57.4c-7.4-29.4-12.5-30.4-12.5-30.4L234.2 322.1z" class="d"/><path d="M264.3 365.8c-3.9 1.7-8.6 2.7-12.5 1.3 4.6 17.6 8.8 35.7 16.3 35.7 7.4 0 7.6-19 3.3-42.1C269.5 362.8 267.1 364.6 264.3 365.8z" class="e"/><path d="M267.9 374.9c-5.3 0.3-9.3 2.4-12.5 5.7 3.4 12.3 7.2 22.1 12.7 22.1 5.7 0 7.1-11.1 5.6-26.7C272 375.2 270.1 374.8 267.9 374.9z" class="f"/><path d="M272.3 379.6c-0.9-0.6-3.7 0.1-4.6 0.2 -1.6 0.2-4.1 0.3-5.4 1.4 -1.4 1.1-0.2 2.3 0.1 3.8 0 0.1 0.1 0.1 0.1 0 0.1-1.1-0.4-2.4 1-3.1 1.3-0.6 3-0.7 4.4-0.9 1-0.1 2-0.3 3-0.4 1.5-0.1 2 1.6 2.1 2.8 0 0.2 0.3 0.1 0.3 0C273.1 382.2 273.5 380.5 272.3 379.6z" class="g"/><path d="M239.7 291.8l-1.5-9.5 -51.1-10c0 0-6.2 5.1-7.9 24.1 -1.7 19-0.8 29.9-0.8 29.9s24.6 7.9 36.4 5.1c0 0 1.6-21.9 3.2-21.9 1.6 0 7.6 18.4 7.6 18.4s19.1 6.4 36.7-13.7C262.4 314.2 247.5 294.9 239.7 291.8z" class="h"/><path d="M308.3 194.5c0 0-5.2 74.9-2.4 93.2 0 0 40.4 17.3 72.6 18.7 0 0 27.8-23.1 32.7-32.2 0 0 10.3-62.8 10.7-81 0 0-54.2-15.9-74.9-20.1C347 173 314.9 188.2 308.3 194.5z" class="i"/><path d="M308.3 194.5c0 0-5.2 74.9-2.4 93.2 0 0 40.4 17.3 72.6 18.7 0 0 27.8-23.1 32.7-32.2 0 0 10.3-62.8 10.7-81 0 0-54.2-15.9-74.9-20.1C347 173 314.9 188.2 308.3 194.5z" class="i"/><path d="M308.3 194.5c0 0-5.2 74.9-2.4 93.2 0 0 40.4 17.3 72.6 18.7 1.1-6.8 7-79.1 7.5-91.3C379.2 211.5 308.3 194.5 308.3 194.5z" fill="#FF3607"/><path d="M351.9 205.3c-3.3-0.8-6.6-1.7-9.8-2.5 -3.8 29.7-9.3 76.8-8.5 94.7l0 0c3.2 1 6.5 1.9 9.9 2.8 0.2-10.4 1-26.8 3-50C348.3 229.8 350.3 215.3 351.9 205.3z" class="j"/><path d="M401.6 191c-1 29.9-1.6 69.6-6.2 100.4 2.6-2.4 5.1-4.9 7.5-7.2 3.9-29 5.8-63.2 6.8-91.1C407.6 192.5 403.9 191.7 401.6 191z" class="a"/><path d="M308.3 194.5c0 0 70.9 17 77.7 20.5 0 0 28-18 36-21.9 0 0-54.2-15.9-74.9-20.1C347 173 314.9 188.2 308.3 194.5z" fill="#E30613"/><path d="M406 200c-20.5-2.1-62.3-14.6-74.5-19.3 -2.6 1.3-5.3 2.7-7.9 4.2 3 1.7 21.1 4.6 39.9 9.6 13.9 3.8 27.9 10 37.6 11l0 0c2.6-1.6 5.4-3.3 8-4.9C408.1 200.3 407.1 200.1 406 200z" class="k"/><path d="M383.3 182.2c-16.4 7.5-30.8 15.1-41.3 20.6 3.4 0.8 6.4 1.6 9.8 2.5 0.5-0.4 7.9-8 13.2-11.3 6.6-4.1 17.5-8.1 23.2-10.5C386.7 183.1 385 182.6 383.3 182.2z" class="k"/><path d="M356.1 235.3c0 0 7.6 4.6 13.4 4.4 0 0-19.1-38.1-6.7-45.9 0 0-8.6 1.1-8.8 12.1C353.9 216.9 355 230.1 356.1 235.3z" class="l"/><path d="M365.1 194c0 0 18.1 10.9 24.5 18.7 6.4 7.8 8.7 13.2 8.7 13.2l7.7-6C406 220 391.3 194.9 365.1 194z" class="l"/><path d="M392.1 178.9c0 2.5-0.4 4.9-2.2 7 -2.1 2.6-4.7 4.3-8 4.9 -5.3 1.7-11.1 1.1-16.2-1.2 -0.2 1.2 0 1.8 0 1.8 1.1 8.2 16.6 9 24 5.8C396.5 194.3 395.4 184.9 392.1 178.9z" class="a"/><path d="M384.3 182.5c5.5-0.2 8.9 2 10.4 5.5 -0.1-3.7-1.6-7.6-3.5-10.4 -4-5.7-9.9-6.5-18.4 1.8s-7.1 12.1-7.1 12.1C365.8 192.9 373 182.8 384.3 182.5z" class="m"/><path d="M361.8 188.2c2-0.1 4.7 1.4 5.5 4.6 0.8 3.1-3.7 3.1-6.3 1.4C358.4 192.5 357.9 188.4 361.8 188.2z" fill="#FFBA00"/><path d="M362 193.9c-3.9 1.8-9.7 1.2-13.9-0.1 -4.5-1.3-7.2-3.8-8.2-8.4 -0.2-1.1-0.3-2.2-0.1-3.2 -0.5 1.1-0.9 2.4-1.2 3.6 -0.9 5.1-2.5 12.1 5.1 13.9 7.5 1.8 20.1-2.6 18.5-5.5C362.1 194.2 362.1 194.1 362 193.9z" class="a"/><path d="M362.1 194.2c0 0-4.9-10.4-11.9-14.8 -7-4.4-10.7 1.3-11.7 6.4 -0.6 3.2-1.4 7.2-0.1 10.1 0-0.2 0-0.4 0-0.6 0.4-5.1 4.4-8 9.5-7.5C352.2 188.2 362.5 194.9 362.1 194.2z" class="m"/><path d="M206.5 198.1c0 0 0.1 0.8-0.3 1.9 -0.1 0.3-0.2 0.6-0.4 0.9 -0.2 0.3-0.3 0.6-0.6 0.9 -0.2 0.3-0.5 0.6-0.8 0.9 -0.3 0.3-0.6 0.5-0.9 0.8 -0.3 0.2-0.7 0.4-1.1 0.6 -0.4 0.1-0.7 0.3-1.1 0.4 -0.4 0.1-0.7 0.1-1 0.2 -0.3 0-0.7 0-0.9 0 -0.6 0-1.1-0.1-1.4-0.1 -0.3-0.1-0.5-0.1-0.5-0.1s0.2 0 0.5-0.1c0.3-0.1 0.8-0.1 1.3-0.3 0.3-0.1 0.6-0.1 0.9-0.2 0.3-0.1 0.6-0.2 0.9-0.3 0.3-0.1 0.6-0.3 0.9-0.4 0.3-0.2 0.6-0.3 0.9-0.5 0.3-0.2 0.6-0.4 0.8-0.6 0.1-0.1 0.3-0.2 0.4-0.3 0.1-0.1 0.2-0.2 0.3-0.4 0.2-0.2 0.4-0.5 0.6-0.7 0.2-0.3 0.3-0.5 0.5-0.7C206.2 198.9 206.5 198.1 206.5 198.1z" class="n"/><path d="M225.3 210c0 0-18.7 11.8-42.3 66 0 0 22.2 28.5 57.7 15.4 0 0 11.9-60 1.9-78.3L225.3 210z" fill="#FECB27"/><path d="M227.1 211.8c0 0 1.6 14.6 6.2 15.1 6.5 0.8 6.5-14 6.5-14L227.1 211.8z" class="c"/><path d="M298.9 145.5c-9-8.4-10.3-24.7-10.3-24.7s-0.3 2.9-6.9 0.9c-6.7-2-11.4-5.8-11.4-5.8s0.2 17.1-4 17.4c-4.2 0.2-8.6-15.8-8.6-15.8s-2.1 22.2-8.8 24.1c-6.7 2-7-13.2-7-13.2s-5.1 21.3-9.4 22c-4.3 0.6-4-9.1-4-9.1 -0.2 5.2-6 19.7-11.2 20.5 -5.2 0.8-4-8.8-4-8.8s-1.7 5.1-0.5 18.7c1.2 13.7-0.7 19.2-1.8 17 -6.4-12.7-20.3-11.8-17.6 3.9 2.7 15.8 14.7 13 14.7 13 4.7 3.7 8.9 5.9 8.9 5.9l6.7 3.3c0 0 10.5 5 24 3.3C306.2 206.4 318.5 163.6 298.9 145.5z" class="d"/><path d="M289.9 101.5c0 0 13.8-16.3 5.8-16.9 -8-0.7-17.7 12.3-17.7 12.3 -70.1 10-107.9 93.4-107.9 93.4s-3.8 16.4 1.6 16.7c3.9 0.2 11.1-14.9 11.1-14.9s-2.7 15.9 1.5 18.5c4.5 2.8 5.2-9.4 5.2-9.4s1.1 2.4 3.4 4.6c9.6 11.2 24 5.9 24 5.9s-4.2-2.2-8.9-5.9c0 0-12 2.8-14.7-13 -2.7-15.8 11.2-16.6 17.6-3.9 1.1 2.2 3-3.3 1.8-17 -1.2-13.7 0.5-18.7 0.5-18.7s-1.2 9.6 4 8.8c5.2-0.8 11-15.3 11.2-20.5 0 0-0.3 9.7 4 9.1 4.3-0.6 9.4-22 9.4-22s0.3 15.1 7 13.2c6.7-2 8.8-24.1 8.8-24.1s4.4 16 8.6 15.8c4.2-0.2 4-17.4 4-17.4s4.7 3.8 11.4 5.8c6.7 2 6.9-0.9 6.9-0.9 0.1-5.5-6.1-8.7-6.1-8.7s22.2-0.6 23.2-6.6C306.8 99.5 289.9 101.5 289.9 101.5z" class="o"/><path d="M283.6 169.5c0 0 0.1-0.4 0.3-1.1 0.2-0.7 0.5-1.7 1.3-2.8 0.4-0.5 0.8-1.1 1.4-1.6 0.6-0.5 1.3-0.9 2.2-1.1 0.9-0.2 1.8-0.2 2.7 0.1 0.4 0.1 0.9 0.3 1.3 0.6 0.4 0.3 0.8 0.6 1 1 0.6 0.8 0.9 1.7 1 2.6 0.1 0.9 0 1.8-0.2 2.6 -0.4 1.6-1.4 3-2.5 3.7 -1.1 0.8-2.2 0.9-3 1 -0.4 0-0.7 0-0.9 0 -0.2 0-0.3 0-0.3 0s0.1 0 0.3 0c0.2 0 0.5 0 0.8-0.1 0.7-0.1 1.7-0.4 2.7-1.2 0.5-0.4 0.9-0.9 1.3-1.5 0.4-0.6 0.6-1.3 0.8-2 0.2-0.7 0.2-1.5 0.1-2.3s-0.4-1.5-0.8-2.1c-0.2-0.3-0.5-0.5-0.8-0.8 -0.3-0.2-0.6-0.3-1-0.5 -0.7-0.2-1.5-0.3-2.2-0.2 -0.7 0.1-1.3 0.4-1.9 0.8 -0.6 0.4-1 0.9-1.4 1.4 -0.7 1-1.3 1.9-1.6 2.6C283.7 169.1 283.6 169.5 283.6 169.5z" class="n"/><path d="M200.7 196c0 0-0.2-0.3-0.5-0.8 -0.2-0.5-0.6-1.3-0.7-2.4 -0.1-0.5-0.1-1.1 0.1-1.7 0.2-0.6 0.5-1.2 1-1.7l0.1-0.1 0 0 0.1 0 0.1 0 0.2-0.1c0.2-0.1 0.4-0.2 0.6-0.2 0.4-0.1 0.8-0.1 1.1-0.1 0.7 0.1 1.4 0.3 2.1 0.6 2.5 1.3 4.2 3.7 4.9 5.6 0.4 1 0.4 1.8 0.4 2.4 0 0.3 0 0.5-0.1 0.7 0 0.2 0 0.2 0 0.2s0-0.3-0.1-0.9c0-0.3-0.1-0.6-0.2-1 -0.1-0.4-0.3-0.8-0.5-1.2 -0.4-0.9-1.1-1.8-1.9-2.7 -0.8-0.9-1.8-1.7-2.9-2.3 -0.5-0.3-1.1-0.5-1.7-0.6 -0.3 0-0.6 0-0.8 0 -0.1 0-0.2 0.1-0.3 0.1l-0.2 0.1 -0.1 0c0 0 0 0 0 0l0 0 -0.1 0.1c-0.4 0.3-0.7 0.8-0.9 1.3 -0.2 0.5-0.3 1-0.3 1.5 0 1 0.2 1.8 0.3 2.3C200.6 195.7 200.7 196 200.7 196z" class="n"/><path d="M204.1 198c0 0 0.4-0.5 0.9-1.3 0.5-0.7 1.1-1.8 1.3-2.9 0-0.3 0.1-0.5 0-0.8 0-0.3-0.1-0.5-0.1-0.8 0-0.3-0.2-0.5-0.3-0.7 -0.1-0.2-0.3-0.4-0.4-0.6 -0.1-0.2-0.2-0.4-0.4-0.5 -0.1-0.1-0.2-0.3-0.3-0.4 -0.2-0.2-0.3-0.3-0.3-0.3s0.1 0.1 0.4 0.2c0.2 0.1 0.6 0.3 1 0.6 0.2 0.2 0.4 0.3 0.6 0.6 0.2 0.2 0.4 0.5 0.5 0.8 0.1 0.3 0.3 0.6 0.3 1 0.1 0.4 0 0.7 0 1.1 -0.1 0.3-0.2 0.7-0.3 1 -0.1 0.3-0.3 0.6-0.5 0.9 -0.2 0.3-0.4 0.5-0.5 0.7 -0.2 0.2-0.4 0.4-0.6 0.5C204.7 197.8 204.1 198 204.1 198z" class="n"/><path d="M266.8 149.5c0 0-4.2-6.1-9.1-4.8 -4.9 1.3-3.6 10.6-3.2 11.4 0.4 0.8-0.1-5.9 3.7-8.4C262 145.2 266.8 149.5 266.8 149.5z" class="p"/><path d="M281.3 143.7c0 0-2.9-7.4 1.9-9.5 4.1-1.8 7.9 4.8 7.9 4.8s-4.3-4.2-7.3-3.1C280.8 136.9 281.3 143.7 281.3 143.7z" class="p"/><path d="M269.3 164.9c1.2 4.3 0.7 8.3-1.3 8.8 -1.9 0.6-4.5-2.5-5.7-6.8 -1.2-4.3-0.7-8.3 1.3-8.8C265.5 157.5 268.1 160.6 269.3 164.9z" class="q"/><path d="M268.7 164.3c0.6 2.1 0.2 4-0.8 4.3 -1.1 0.3-2.4-1.1-3-3.2 -0.6-2.1-0.2-4 0.8-4.3C266.8 160.8 268.1 162.2 268.7 164.3z" class="r"/><path d="M295.8 148.9c1.7 3.9 1.7 7.7 0 8.5 -1.7 0.8-4.6-1.8-6.3-5.6 -1.7-3.9-1.7-7.7 0-8.5C291.2 142.5 294 145 295.8 148.9z" class="q"/><path d="M294.7 148.1c0.8 1.8 0.8 3.6 0 4 -0.8 0.4-2.1-0.8-3-2.6 -0.8-1.8-0.8-3.6 0-4C292.5 145.1 293.8 146.2 294.7 148.1z" class="r"/><path d="M180.3 90.8c-54 47.7-10.2 99.4-10.2 99.4s5-11 14.7-25.5C147.6 121.6 180.3 90.8 180.3 90.8z" class="s"/><path d="M180.3 90.8c0 0-32.6 30.7 4.5 73.9 9.4-14.1 23.3-31.4 41.4-45.2C199.8 81.2 180.3 90.8 180.3 90.8z" class="h"/><path d="M180.3 90.8c0 0 19.6-9.6 45.9 28.8 14.6-11.1 31.9-19.9 51.8-22.7C277.9 96.9 234.3 43.1 180.3 90.8z" class="s"/><path d="M227.9 109.7c0 0 22.3-15.1 37.7-15.8 0 0-9.7-21.4-30.6-14C214.1 87.4 227.9 109.7 227.9 109.7z" class="o"/><path d="M193 205.8c-2.3-2.3-3.4-4.6-3.4-4.6s-0.8 12.1-5.2 9.4c-4.1-2.6-1.5-18.5-1.5-18.5s-7.2 15.2-11.1 14.9c-3.3-0.2-3.2-6.3-2.6-11 -5.1 7.3-11.6 16.9-15.5 24.3 -3.4 6.4-4.5 11.9-2.8 15.6C163.7 240.3 193 205.8 193 205.8z" class="h"/><path d="M153.6 220.2c3.9-7.4 10.4-17 15.5-24.3 0.4-3.1 1-5.7 1-5.7s-32.5 37.1-20.6 44.9c0.4 0.3 0.9 0.5 1.4 0.7C149.1 232.1 150.2 226.6 153.6 220.2z" fill="#5D5D5D"/><path d="M273.6 188.5c3.9 0.4 12.9-0.6 16.9-2.5 4-1.9-9.8 23.8-21.5 23.8 -11.7 0-11.9-9.1-9.4-17.2C263.1 181.1 259.4 187.1 273.6 188.5z" class="t"/><path d="M287.3 187.1c-4.5 1.2-10.6 1.7-13.6 1.4 -13.9-1.4-10.7-7-13.8 3.4C267.5 198.5 282.2 195.5 287.3 187.1z" class="r"/><path d="M264.5 209.2c2-5.2-0.9-11.7-5.3-15.1C257.5 200.5 257.8 207.2 264.5 209.2z" class="u"/><path d="M259.6 230.9c0 0-15.3-4.7-24.9-8.3 -9.7-3.6-13.5-7.1-18.7-0.6s-1.6 33.5 30.6 40C246.6 262 260.9 260.9 259.6 230.9z" class="a"/><path d="M245.2 247.6c-1.4 5.3-0.7 10.1 1.4 14.3 0 0 0 0 0 0 0 0 14.1-1.1 13-30.8C252.2 233.4 247.2 240.2 245.2 247.6z" class="b"/><path d="M259.6 230.9c0 0 14.5 7 35.6 7.6s25.5-1.6 26.1-2.8 2-12.7 3.7-12.2c1.6 0.5 2.2 2.2 1.9 9.3 0 0 14.5-12.1 18.3-9.4 3.8 2.8-9.2 9.7-9.8 11 0 0 15.4-6.3 18.1-1.2 2.6 5.1-14.3 4.7-15.9 7.3 0 0 15.5-2.1 15.8 2.7 0.3 4.8-16.4 2.4-16.4 2.4s13.3 3.3 11.8 8.1c-1.5 4.8-13.7-2.2-14.5-3.3 0 0-7.4 5.5-14.9-2.2 0 0-15.3 5.5-37.5 6.3 -22.3 0.8-37.1-5.4-37.1-5.4S247.1 235.4 259.6 230.9z" class="d"/><path d="M507.9 300.7c-8.6 2.7-47.9 11.9-21.8 15.9 0 0 42 4.9 43.5-9.4 0 0 0-0.1-0.1-0.3C527.3 302.8 521.9 296.2 507.9 300.7z" fill="#005F8F"/><path d="M457.4 306.3c0 0-0.3 19.7 4.8 28.3s13.2 16.9 36.1 24.8c22.9 7.9 31.4 2.4 21.9-8.6 -9.5-10.9-40.8-14.2-35.4-37.1L457.4 306.3z" class="c"/><path d="M520.3 350.8c-2.3-2.7-6-4.9-10-7 0.3 0.4 0.5 0.9 0.8 1.4 1.3 2.7 3.2 6.9 1.8 9.9 -2.1 4.8-7.2 6-11.9 5.1C521.8 366.8 529.4 361.3 520.3 350.8z" class="v"/><path d="M490.1 311c0 0-0.3 19 7.9 47.5 8.3 28.5 13.9 41.6 21.5 42 7.6 0.5 2.5-19.5 0-33.3 -2.5-13.9-6.8-52.4-3.6-63.9L490.1 311z" fill="#EDD0B9"/><path d="M517.8 380.5c1.5 0.1 2.9 0.4 4.3 0.9 -0.2-1-0.4-2.1-0.6-3.1 -5.5-1.7-11.9-0.9-16.5 2.6 0.4 1.1 0.8 2.1 1.2 3.1C509.5 381.3 513.1 380 517.8 380.5z" class="v"/><path d="M522.7 384.7c-1.3 6.6-12.1 6.1-15.6 1.2 4.1 9.7 7.9 14.4 12.4 14.6C524.2 400.9 524.1 393.6 522.7 384.7z" class="v"/><path d="M495.7 198.9c0 0-17.8-3.9-37.5 57.7 -10.6 33.3-9.5 55.1-9.5 55.1s13.7 12.8 40.2 3.9c0 0 30.7-11.8 40.7-8.4 0 0-6.4-16.5-5.4-30.8 1.1-14.4 10.6-55.5-7.6-72.7C516.7 203.6 503.8 197.8 495.7 198.9z" style="fill:#72C5C7;opacity:0.5"/><path d="M476.6 108.3c0 0-7.3-10.6-31.1 2 -23.8 12.6-30.4 40.4-30.4 40.4l9.8 10.3 6.5-13.3 -3.6 16.4 7.5 4 3.3-9.2 -0.8 10.4 6.4 2c0 0 7-49.2 32.4-47.6L476.6 108.3z" class="w"/><path d="M593.8 132.3c0 0 48.2 18.9 41.8 73l-11.6 4.3c0 0 0.5-9-3.7-17.2 0 0-1.8 14.5-0.2 21.7 0 0-7.1 3.8-14.2 2.9 0 0 0.6-10.6-0.7-16.8 0 0-3.6 11.8-3.6 17.5 0 0-10.8-2.6-14.4-7.5 0 0 13.7-15.4 8.5-44.2C595.7 166 600.3 152 593.8 132.3z" class="w"/><path d="M601.3 131.6c0 3.1-2.5 5.5-5.6 5.5 -3.1 0-5.5-2.5-5.5-5.6 0-3.1 2.5-5.5 5.6-5.5C598.8 126 601.3 128.6 601.3 131.6z" class="x"/><path d="M606.9 143.4c0 4.1-3.4 7.4-7.5 7.3 -4.1 0-7.4-3.4-7.3-7.5 0-4.1 3.4-7.4 7.5-7.3C603.6 136 606.9 139.3 606.9 143.4z" class="y"/><circle cx="473.8" cy="106.9" r="4.9" class="x"/><path d="M462 114.8c-0.8 3.5 1.4 7 4.9 7.7 3.5 0.8 7-1.4 7.7-4.9 0.8-3.5-1.4-7-4.9-7.7C466.2 109.1 462.7 111.3 462 114.8z" class="y"/><path d="M516.1 206.1c0 0-1.1 9.4 1.1 18.4 2.2 9 8.5 13.4 17.2 12.3 8.6-1.2 37.5-8.5 50.7-19.1 13.2-10.6 32.2-27.4 32.2-27.4s3.4 3.1 9.6 1.4c6.2-1.7 4.5-11.8 2.6-15.3 -2-3.5-12.3-8.7-16.9 3.1 0 0-4.7-0.6-2.3 7.4 0 0-8.9 10.1-40.1 17.6C543.9 210.9 516.1 206.1 516.1 206.1z" class="d"/><path d="M622.7 182.4c-1-3.7-6-4-9-2.9 -0.2 0.1-0.1 0.4 0.1 0.3 2.3-0.5 5.4-0.5 7.2 1.3 1.4 1.4 1.1 3.1-0.7 4 -1.7 0.9-3.7 0.3-5.3-0.5 -0.1-0.1-0.2 0.1-0.1 0.2 1.5 1.2 3.5 2.1 5.4 1.4C622 185.7 623.3 184.3 622.7 182.4z" class="n"/><path d="M484.3 219.1c0 0-19.2-10.9-36.6-33.9 -17-22.4-24.1-46.5-24.2-46.8 0 0-3.2 2.2-7.3-0.6 -4.1-2.8-3.5-10 0.5-13.9 4-3.9 10.5-4.1 12.8-1 2.2 3.1 3.3 7.3 3.3 7.3s3.9 1.2-1.9 7.6c0 0 18.7 44.7 67.2 57.8L484.3 219.1z" class="c"/><path d="M430.8 129.5c-1.7-1.8-3.9-4.4-6.5-5 -2.3-0.5-4.3 0.2-4.3 2.8 -0.1 2.5 2.5 3.4 4.3 4.1 1.4 0.6 0.8 3.5 1 4.7 0.2 1.2 0.8 1.9 1.9 2.4 0.1 0.1 0.3-0.1 0.2-0.2 -1.2-1.1-2-2.2-1.7-3.9 0.1-0.6 0.4-1.1 0.4-1.7 0.1-1.2-0.9-2-1.8-2.4 -1-0.5-1.7-0.5-2.5-1.3 -1.2-1.3-1-2.5 0.5-3.6 1.1-0.2 2.1-0.1 3 0.4 2.1 0.8 3.5 2.6 5.3 3.9C430.8 129.8 431 129.6 430.8 129.5z" class="n"/><path d="M495.7 198.9c0 0-17.8-3.9-37.5 57.7 -10.6 33.3-9.5 55.1-9.5 55.1s13.7 12.8 40.2 3.9c0 0 30.7-11.8 40.7-8.4 0 0-6.4-16.5-5.4-30.8 1.1-14.4 10.6-55.5-7.6-72.7C516.7 203.6 503.8 197.8 495.7 198.9z" class="x"/><path d="M489 312.5c-22.9 7.6-36.5-0.4-40.3-3.1 0 1.5 0 2.3 0 2.3s13.7 12.8 40.2 3.9c0 0 30.7-11.8 40.7-8.4 0 0-0.5-1.4-1.3-3.7C516.4 302.1 489 312.5 489 312.5z" class="j"/><path d="M492 196.8c0 0-13.5 31.3 6.1 16.2 0 0-1.4 6 4.8 8 6.2 2 12.9-14.2 13.2-19.3C516.4 196.5 493.5 193.1 492 196.8z" class="v"/><path d="M498.8 198.9c0 0-8.2 11-0.7 14.1s13.4-11 12.6-12.3S498.8 198.9 498.8 198.9z" class="c"/><path d="M460.2 141.2c-8.6 2.8-7.8 16.6-4.9 20.8 1.9 2.7 4.8 2.4 7.2 1.1 1.1-4.7 3.3-10.2 7.3-15.9l0 0c-0.1-1.2-0.1-2.3 0-3.5C468.7 142 466.1 139.3 460.2 141.2z" class="c"/><path d="M455.7 150c0 0 0-0.1 0-0.2 0-0.1 0-0.3 0.1-0.5 0-0.2 0.1-0.5 0.2-0.7 0.1-0.3 0.3-0.6 0.6-0.9 0.3-0.3 0.7-0.5 1.1-0.6 0.4-0.1 0.9-0.2 1.4-0.1 1 0.1 2 0.7 2.6 1.5 0.7 0.8 1 1.8 1.1 2.8 0.1 1 0 1.8-0.2 2.5 -0.1 0.4-0.2 0.7-0.3 1 -0.1 0.3-0.2 0.5-0.3 0.7 -0.2 0.4-0.3 0.6-0.3 0.6s0-0.2 0.1-0.6c0.1-0.2 0.1-0.5 0.1-0.7 0.1-0.3 0.1-0.6 0.1-1 0.1-0.7 0.1-1.5-0.1-2.3 -0.2-0.8-0.5-1.7-1-2.3 -0.5-0.7-1.3-1.1-2.1-1.3 -0.8-0.2-1.5 0-2.1 0.4 -0.5 0.4-0.9 0.9-1 1.2C455.8 149.8 455.7 150 455.7 150z" class="n"/><path d="M457.5 154.6c0 0 0-0.1 0-0.4 0-0.2 0-0.6 0.1-1 0-0.2 0.1-0.4 0.2-0.7 0.1-0.2 0.2-0.5 0.3-0.7 0.1-0.2 0.3-0.4 0.5-0.7 0.2-0.2 0.4-0.4 0.7-0.6 0.2-0.2 0.5-0.3 0.8-0.4 0.3-0.1 0.6-0.1 0.9-0.1 0.1 0 0.3 0 0.4 0 0.1 0 0.3 0.1 0.4 0.1 0.3 0.1 0.5 0.3 0.6 0.5 0.1 0.2 0.2 0.4 0.3 0.6 0 0.2 0.1 0.3 0.1 0.4 0 0.2 0 0.4 0 0.4s-0.1-0.1-0.1-0.3c0-0.1-0.1-0.2-0.2-0.3 -0.1-0.1-0.2-0.2-0.3-0.3 -0.1-0.1-0.3-0.2-0.5-0.2 -0.1 0-0.2 0-0.3 0 -0.1 0-0.2 0-0.3 0 -0.2 0-0.4 0.1-0.6 0.2 -0.2 0.1-0.4 0.2-0.6 0.3 -0.2 0.1-0.4 0.3-0.6 0.4 -0.1 0.2-0.3 0.3-0.5 0.5 -0.1 0.2-0.3 0.3-0.4 0.5 -0.1 0.2-0.2 0.3-0.3 0.5 -0.1 0.2-0.2 0.3-0.2 0.5 -0.1 0.2-0.1 0.3-0.2 0.4C457.5 154.5 457.5 154.6 457.5 154.6z" class="n"/><path d="M541.9 198.8c0 0 0.6 7.9 10 7.8 9.4-0.1 18.1-10.1 12.8-17.6 -5.3-7.5-14.9 0.6-14.9 0.6 0.5-11.6 5.8-22.9 5.8-22.9 -16.7-17.6-8.6-38.4-8.6-38.4 -32.7 14-62.2-6.9-62.2-6.9 -34.1 24.1-25.5 51-25.5 51 5.6 19.3 32.3 29.2 32.3 29.2s10.1 3.8 24.6 4.5c3.5 0.6 10.7 0 10.7 0C537 204.7 541.9 198.8 541.9 198.8z" class="d"/><path d="M545.3 84.6c-64.1-12-77.9 33.7-77.9 33.7s-3.3 10.7-2.1 22.8l0 0c4-6.4 10.1-13.1 19.3-19.7 0 0 29.5 20.9 62.2 6.9 0 0-8.1 20.8 8.6 38.4 0 0-5.3 11.2-5.8 22.9 0 0 9.6-8.1 14.9-0.6 5.3 7.5-3.4 17.5-12.8 17.6 -9.3 0.1-10-7.8-10-7.8s-4.8 5.9-15.1 7.2C618.1 227.9 617.8 98.1 545.3 84.6z" fill="#ED7B24"/><path d="M550.3 201.6c0 0-0.1-0.1-0.1-0.2 -0.1-0.1-0.1-0.3-0.2-0.6 0-0.3 0-0.6 0-1 0.1-0.4 0.1-0.8 0.3-1.3 0.1-0.2 0.2-0.5 0.3-0.7 0.1-0.2 0.2-0.5 0.4-0.7 0.1-0.2 0.3-0.5 0.4-0.8 0.2-0.2 0.3-0.5 0.5-0.7 0.2-0.2 0.4-0.5 0.5-0.7l0.1-0.2 0 0 0 0 0 0 0 0 0.1-0.1 0.3-0.3c0.1-0.1 0.2-0.2 0.3-0.3l0.4-0.3c0.1-0.1 0.3-0.2 0.4-0.3l0.5-0.2c0.6-0.3 1.3-0.4 2-0.4 0.7 0.1 1.3 0.3 1.9 0.6l0.4 0.3 0.4 0.3c0.2 0.2 0.4 0.5 0.6 0.7 0.2 0.2 0.3 0.5 0.4 0.8 0.1 0.3 0.1 0.5 0.2 0.8 0 0.3 0 0.5 0 0.7 -0.1 0.2-0.1 0.4-0.2 0.6 -0.1 0.4-0.3 0.7-0.5 0.9 -0.4 0.4-0.6 0.7-0.6 0.7s0.2-0.3 0.4-0.7c0.1-0.3 0.2-0.6 0.3-0.9 0-0.2 0-0.4 0.1-0.6 0-0.2 0-0.4-0.1-0.6 -0.1-0.2-0.1-0.4-0.2-0.6 -0.1-0.2-0.2-0.4-0.4-0.6 -0.2-0.2-0.3-0.4-0.5-0.5l-0.3-0.2 -0.3-0.2c-0.5-0.3-1-0.4-1.5-0.4 -0.5 0-1.1 0.1-1.6 0.3l-0.4 0.2c-0.1 0.1-0.2 0.2-0.3 0.2l-0.3 0.2c-0.1 0.1-0.2 0.2-0.3 0.3l-0.3 0.3 -0.1 0.1 0 0 0 0c0-0.1 0 0 0 0l0 0 0 0 -0.1 0.2c-0.2 0.2-0.4 0.5-0.6 0.7 -0.2 0.2-0.4 0.4-0.5 0.7 -0.1 0.2-0.3 0.5-0.4 0.7 -0.1 0.2-0.3 0.4-0.4 0.6 -0.1 0.2-0.2 0.4-0.3 0.6 -0.2 0.4-0.3 0.8-0.4 1.2 -0.1 0.4-0.1 0.7-0.1 1 0 0.3 0 0.5 0 0.6C550.2 201.6 550.3 201.6 550.3 201.6z" class="n"/><path d="M550.5 198.4c0 0 0-0.1 0-0.4 0-0.1 0-0.3 0.1-0.5 0.1-0.2 0.1-0.4 0.2-0.6 0.1-0.2 0.2-0.4 0.4-0.6 0.2-0.2 0.4-0.4 0.6-0.6 0.3-0.2 0.5-0.3 0.8-0.4 0.3-0.1 0.6-0.1 1-0.1 0.3 0 0.7 0.1 1 0.2 0.2 0 0.3 0.1 0.4 0.2 0.1 0.1 0.3 0.2 0.4 0.3 0.1 0.1 0.2 0.2 0.3 0.3 0.1 0.1 0.1 0.3 0.2 0.4 0.1 0.3 0.1 0.5 0.2 0.8 0 0.2 0 0.4 0 0.6 0 0.2-0.1 0.3-0.1 0.5 -0.1 0.2-0.1 0.4-0.1 0.4s0-0.1 0-0.4c0-0.1 0-0.3 0-0.4 0-0.2-0.1-0.3-0.1-0.5 -0.1-0.2-0.1-0.4-0.3-0.5 -0.1-0.1-0.1-0.2-0.2-0.2 -0.1-0.1-0.2-0.1-0.2-0.2 -0.1-0.1-0.2-0.1-0.3-0.2s-0.2-0.1-0.3-0.1c-0.2-0.1-0.5-0.1-0.7-0.1 -0.2 0-0.5 0-0.7 0.1 -0.2 0.1-0.5 0.1-0.7 0.2 -0.2 0.1-0.4 0.2-0.6 0.4 -0.2 0.1-0.3 0.3-0.5 0.4 -0.1 0.1-0.2 0.3-0.3 0.4 -0.1 0.1-0.2 0.3-0.2 0.4C550.6 198.3 550.5 198.4 550.5 198.4z" class="n"/><path d="M488.5 173.2c0 0-0.1-0.4-0.5-0.9 -0.4-0.5-1-1.3-2-1.7 -0.5-0.2-1.1-0.3-1.7-0.2 -0.3 0-0.6 0.1-0.9 0.1 -0.4 0.1-0.6 0.2-0.9 0.4 -1.1 0.7-1.8 2.1-1.8 3.5 -0.1 1.4 0.5 2.8 1.5 3.8 0.9 1 2.2 1.5 3.3 1.7 0.5 0.1 1.1 0.2 1.5 0.2 0.5 0.1 0.9 0 1.2 0.1 0.7 0 1.1 0 1.1 0s-0.4 0.1-1 0.2c-0.3 0-0.7 0.1-1.2 0.1 -0.5 0-1 0-1.6-0.1 -0.6-0.1-1.2-0.2-1.9-0.5 -0.6-0.3-1.3-0.6-1.9-1.2 -0.6-0.5-1.1-1.2-1.4-1.9 -0.3-0.8-0.5-1.6-0.4-2.4 0-0.8 0.2-1.7 0.6-2.4 0.4-0.7 1-1.4 1.7-1.7 0.3-0.2 0.8-0.3 1.1-0.4 0.4-0.1 0.7-0.1 1.1-0.1 0.7 0 1.4 0.2 1.9 0.4 0.6 0.3 1 0.6 1.3 1 0.3 0.4 0.5 0.7 0.7 1C488.5 172.8 488.5 173.2 488.5 173.2z" class="n"/><path d="M472.3 144.9c0 0 3.1-5.1 7.5-3.3 4.4 1.8 1.7 8.6 1.7 8.6S482.3 138.8 472.3 144.9z" class="w"/><path d="M502.5 151.3c0 0 3.4-6.6 8.5-5.3 5.1 1.3 5.1 8.5 5.1 8.5S512.5 142.1 502.5 151.3z" class="w"/><path d="M509.4 167.7c-0.8 4-3.1 6.9-5.1 6.5 -2-0.4-3-4-2.2-7.9s3.1-6.9 5.1-6.5C509.2 160.1 510.2 163.7 509.4 167.7z" class="q"/><path d="M505.9 168.9c-0.2 1.9-1.1 3.4-2 3.3s-1.4-1.8-1.2-3.7c0.2-1.9 1.1-3.4 2-3.3C505.6 165.3 506.2 166.9 505.9 168.9z" class="r"/><path d="M476.6 163.5c-0.8 4-3.1 6.9-5.1 6.5 -2-0.4-3-4-2.2-7.9 0.8-4 3.1-6.9 5.1-6.5C476.4 156 477.4 159.6 476.6 163.5z" class="q"/><path d="M473.1 164.7c-0.2 1.9-1.1 3.4-2 3.3 -0.9-0.1-1.4-1.8-1.2-3.7 0.2-1.9 1.1-3.4 2-3.3C472.8 161.1 473.3 162.8 473.1 164.7z" class="r"/><path d="M477.3 183c0 0 21.9 6.8 37.4-1.5 0 0 5.3 19.4-13.1 21.3C484.4 204.6 477.3 183 477.3 183z" class="t"/><path d="M515.4 186c-0.2-2.6-0.7-4.5-0.7-4.5 -9.2 5-20.7 4.6-28.5 3.4C488.7 194.6 509.2 191.7 515.4 186z" class="r"/><path d="M498.2 197.6c-1.3 1.4-2.4 3-3.3 4.6 2.1 0.6 4.3 0.8 6.8 0.5 8.3-0.9 11.8-5.2 13.1-9.8C509.2 190.3 502.2 193 498.2 197.6z" class="u"/><defs><filter filterUnits="userSpaceOnUse" x="450.6" y="163.2" width="4.2" height="3.1"><feFlood result="back" class="z"/><feBlend in="SourceGraphic" in2="back" mode="normal"/></filter></defs><mask maskUnits="userSpaceOnUse" x="450.6" y="163.2" width="4.2" height="3.1"><g filter="url(#Adobe_OpacityMaskFilter)"><defs><filter filterUnits="userSpaceOnUse" x="450.6" y="163.2" width="4.2" height="3.1"><feFlood result="back" class="z"/><feBlend in="SourceGraphic" in2="back" mode="normal"/></filter></defs><mask maskUnits="userSpaceOnUse" x="450.6" y="163.2" width="4.2" height="3.1"/><radialGradient cx="506.3" cy="68.5" r="7.7" gradientTransform="matrix(0.9246 0.3813 -0.3813 0.9246 15.0548 -94.4009)" gradientUnits="userSpaceOnUse"><stop offset="0" class="A"/><stop offset="0.0858" stop-color="#F4F4F4"/><stop offset="0.2353" stop-color="#D8D8D8"/><stop offset="0.4306" stop-color="#A9A9A9"/><stop offset="0.6642" stop-color="#696969"/><stop offset="0.9275" stop-color="#181818"/><stop offset="1" stop-color="#000"/></radialGradient><path mask="url(#SVGID_1_)" d="M454.2 163.2c-3.8 0.3-3.6 3.1-3.6 3.1s1.7-0.5 4.2-0.7C454.6 164.7 454.4 163.9 454.2 163.2z" fill="url(#SVGID_2_)"/></g></mask><radialGradient cx="506.3" cy="68.5" r="7.7" gradientTransform="matrix(0.9246 0.3813 -0.3813 0.9246 15.0548 -94.4009)" gradientUnits="userSpaceOnUse"><stop offset="0" class="A"/><stop offset="1" class="A"/></radialGradient><path d="M454.2 163.2c-3.8 0.3-3.6 3.1-3.6 3.1s1.7-0.5 4.2-0.7C454.6 164.7 454.4 163.9 454.2 163.2z" style="fill:url(#SVGID_3_);opacity:0.7"/><path d="M327.3 319c3.5 0.1 7 0.1 10.5 0 5.8-0.1 11.8-0.3 17.3-1.4 0.2 0 0.1-0.3-0.1-0.3 -5.8 0.2-11.5 0.8-17.4 0.9 -5.7 0.1-11.4 0-17.1-0.4 -3.3-0.2-6.6-0.5-9.8-1.1C316.2 318 321.9 318.5 327.3 319z" class="B"/><path d="M350.4 313.2c-3.3 0-6.6 0.1-9.9 0.1 -3.4 0-6.8-0.3-10.2-0.6 -6.2-0.5-12.4-1.3-18.7-2.5 -2.8-0.6-5.5-1.2-8.3-1.9 -4.7-1-9.3-2.1-13.9-3.3 0.7 0.3 1.4 0.6 2.1 0.9 6 2.5 12.9 4 19.2 5.3 13.5 2.7 26.9 3.7 39.7 2.4C350.8 313.4 350.7 313.1 350.4 313.2z" class="B"/><path d="M380.5 150c-5.5-1.2-11.1-2-16.7-2.5 0.5 0.1 1 0.1 1.6 0.2 9.8 1.5 19.5 4.1 28.7 7.6 0.3 0.1 0.5-0.3 0.2-0.5C389.9 152.6 385.3 151.3 380.5 150z" class="B"/><path d="M394.7 162c-10-3.9-20.8-6.4-31.7-7.8 -3.1-0.4-6.4-0.8-9.6-1.1 -1.9 0.1-3.7 0.3-5.6 0.5 5.1 0.4 10.2 1.1 15.1 1.7 10.9 1.4 21.2 4.3 31.6 7.2C394.9 162.6 395.1 162.1 394.7 162z" class="B"/></svg>