<svg version="1.1" id="Layer_1" xmlns="http://www.w3.org/2000/svg" xmlns:xlink="http://www.w3.org/1999/xlink" viewBox="0 0 768 430" xml:space="preserve">
<path fill="#DDE4D0" d="M623.7,142.4c-8.3-0.2-10,0.8-18.2-0.9c-6-1.2-14.7-5.3-27-7.8c-22.3-4.3-41.8-4.3-60.2-4
	c-59.7,1.1-92.5,6.9-105.2,11.8c-17.399,4.7-40.7,4-58.1,1c-12.3-4.5-44.6-9.1-104.2-8.3c-2.3,0-4.6,0.1-7,0.1
	c-16.4,0.4-33.8,1.4-53.7,5.9c-12.6,2.8-21.7,7.2-27.8,8.7c-8.3,1.9-10,1-18.3,1.5c-0.8,0-1.2,0.7-1.3,1.5l-0.6,12.1
	c0,0.8,0.3,1.4,0.9,1.5c4.7,1.3,14.2,3.1,14,4.9c-2.6,19.9,2.1,43.1,5.6,55c2.6,8.899,6.7,14.3,15.7,15.1c37.7,3.5,82.7-0.1,122.5-4
	c12.3-1.2,28.1-0.8,35.4-9.7c18.4-22.5,22.3-37.1,27.7-53.8c1.5-4.6,2.6-8.7,5.6-11.7s9.1-4.7,13.5-4.7l0,0
	c5.2-0.4,9.9,1.2,13.7,4.2c3.1,2.6,3.399,7,4.5,11.6c3.8,16.5,6.2,31,22.5,52.9c6.5,8.7,22.3,7.7,34.6,8.5
	c39.5,2.601,84.2,4.7,122.3-0.1c9.101-1.101,13.7-6.601,17.2-15.601c4.7-12.1,11.601-35.5,11-55.3c-0.1-1.9,9.7-4,14.5-5.4
	c0.7-0.2,1-0.8,1.101-1.6l0.6-12.1C624.8,143.1,624.5,142.4,623.7,142.4z M352.5,157c0-0.1-0.1-0.1-0.1-0.2
	C352.4,156.9,352.4,156.9,352.5,157z M168.1,159.1c2-3.3,3.6-5.5,7.2-7c15.1-6.3,40.6-9.1,67.6-9.7l0,0c44.9-1,93.7,4.3,104,10
	c2.4,1.3,4.2,2.5,5.4,4.4c0.2,0.4,0.4,0.9,0.6,1.4c5.3,15.7-11.9,48-20.7,60.6c-2.2,3.2-5.1,6-8.9,7
	c-11.9,3.4-135.4,12.601-147.7,5.7c-2.2-1.3-3.9-2.4-5.2-4.1c-0.3-0.5-0.6-1.101-0.8-1.801C162.2,203.4,160.4,171.7,168.1,159.1z
	 M586.9,223.3c1.5-1.2,2.699-2.6,3.6-4.7c5.4-12.699,9.4-28.199,10.6-41.7c-1.199,13.5-5.199,29.1-10.6,41.7
	C589.5,220.7,588.4,222.1,586.9,223.3z M412.8,158.2c1.601-3.6,3.8-5.1,7.3-7c10.9-6.1,60.2-13,105.101-13.5l0,0
	c26.899-0.3,52.3,1.6,66.8,7.4c1.5,0.6,2.6,1.3,3.5,2.2c0.9,1,1.6,2.3,2.3,3.7c6.5,12.3,1.601,44.2-8.1,66.7
	c-1.5,3.6-3.8,5.1-7.2,7.1c-6.2,3.5-37.2,4.5-69.3,4.3c-35.2-0.6-71.4-2.8-77.4-4.3c-3.6-0.899-6.3-3.6-8.2-6.7
	C420.1,205.8,405.9,174,412.8,158.2z"/>
</svg>
