<svg version="1.1" id="Layer_1" xmlns="http://www.w3.org/2000/svg" xmlns:xlink="http://www.w3.org/1999/xlink" x="0px" y="0px"
 viewBox="0 0 768 430" enable-background="new 0 0 768 430" xml:space="preserve">
<path fill-rule="evenodd" clip-rule="evenodd" d="M641.577,166.293c-0.04-1.529-0.251-3.051-0.356-4.574
	c-0.408-5.934-1.607-7.206-7.656-7.684c-7.789-0.61-15.619-0.906-23.395-1.7c-11.163-1.14-22.287-2.84-33.463-3.888
	c-4.574-0.432-9.16-0.837-13.733-1.229c-8.053-0.692-16.119-1.341-24.172-1.99c-3.993-0.323-7.987-0.64-11.979-0.969
	c-9.912-0.824-19.52,0.221-29.365,1.364c-6.498,0.754-13.021,1.269-19.506,2.185c-8.949,1.262-17.99,2.89-26.729,4.765
	c-10.887,2.333-21.721,4.84-32.554,7.414c-12.573,2.988-25.292,3.865-38.089,3.928c-12.6-0.089-25.134-0.985-37.523-3.928
	c-10.834-2.573-21.681-5.081-32.567-7.414c-8.738-1.875-17.78-3.502-26.715-4.765c-6.484-0.916-13.015-1.43-19.519-2.185
	c-9.839-1.143-19.454-2.188-29.358-1.364c-4,0.329-7.987,0.646-11.974,0.969c-8.065,0.649-16.118,1.298-24.178,1.99
	c-4.58,0.392-9.16,0.797-13.74,1.229c-11.176,1.048-22.287,2.748-33.463,3.888c-7.77,0.794-15.592,1.09-23.388,1.7
	c-6.049,0.478-7.242,1.75-7.664,7.684c-0.105,1.522-0.303,3.044-0.342,4.574c-0.178,6.471-0.356,12.939-0.422,19.41
	c-0.033,2.748,0.62,5.212,3.75,6.125c7.671,2.234,11.671,7.5,12.942,15.266c1.529,9.314,3.341,18.584,4.956,27.882
	c2.537,14.569,6.029,28.884,11.736,42.558c4.903,11.749,11.499,22.457,22.972,28.738c7.591,4.158,15.684,7.723,23.96,10.24
	c13.971,4.257,28.436,6.122,43.124,5.298c41.022-2.319,78.188-21.588,97.424-58.86c7.75-15.025,13.72-30.827,19.216-46.811
	c6.959-20.175,34.953-20.742,42.096-0.004c5.51,15.987,11.467,31.789,19.229,46.814c19.229,37.272,56.396,56.541,97.411,58.86
	c14.695,0.824,29.153-1.041,43.137-5.298c8.264-2.518,16.356-6.082,23.961-10.24c11.467-6.281,18.057-16.989,22.973-28.738
	c5.707-13.674,9.199-27.988,11.729-42.558c1.621-9.298,3.427-18.567,4.956-27.882c1.265-7.766,5.271-13.031,12.941-15.266
	c3.124-0.913,3.783-3.377,3.757-6.125C641.92,179.232,641.748,172.764,641.577,166.293z M136.92,180.075
	c-4.619,0-8.468-1.838-9.496-4.296h18.992C145.381,178.237,141.54,180.075,136.92,180.075z M127.424,173.166
	c1.028-2.461,4.877-4.297,9.496-4.297c4.62,0,8.461,1.835,9.496,4.297H127.424z M152.09,187.268
	c-0.178,0.507-0.316,1.028-0.487,1.536c-0.06,0.161-0.178,0.303-0.271,0.455c0.844-6.201,3.545-11.641,7.809-16.323
	c5.332-5.858,12.343-8.857,19.579-11.431c12.441-4.421,25.384-6.365,38.445-7.733c14.511-1.522,29.048-2.145,43.599-0.985
	c22.32,1.789,44.284,5.262,64.343,16.033c1.12,0.603,2.194,1.302,3.255,2.04c0.369,0.257,0.718,0.534,1.081,0.797
	c0.725,0.531,1.45,1.071,2.175,1.641c0.04,0.033,0.092,0.066,0.145,0.102c0.013,0.01,0.02,0.026,0.04,0.04
	c1.568,1.235,3.156,2.521,4.863,3.776c-0.343,0.142-0.501,0.211-0.686,0.293c2.597,2.972,4.692,6.412,5.707,10.178
	c-0.277-1.051-1.384-2.267-1.964-3.192c-0.633-1.005-1.265-2.007-1.898-3.015c-1.087-1.727-2.32-3.479-3.776-5.005
	c-0.606-0.567-1.193-1.153-1.826-1.681c-0.316-0.267-0.646-0.534-0.975-0.784c-0.514-0.421-1.041-0.807-1.575-1.196
	c-0.916-0.639-1.838-1.266-2.768-1.878c-4.606-3.055-9.654-5.216-14.833-7.117c-2.887-1.061-5.826-1.964-8.771-2.831
	c-19.618-5.792-39.756-8.211-60.146-7.941c-19.611,0.264-39.117,1.845-58.083,7.338c-6.465,1.872-12.863,3.974-18.61,7.631
	C159.233,172.612,154.825,179.314,152.09,187.268z M338.075,237.275c-3.044,11.532-7.341,22.557-13.608,32.738
	c-15.658,25.443-43.474,40-72.752,42.788c-10.043,0.955-20.817,1.166-30.847-0.007c-7.012-0.817-13.971-2.062-20.409-5.074
	c-2.636-1.238-5.357-2.221-8.026-3.381c-2.26-0.988-4.396-2.385-6.603-3.499c-13.068-6.636-20.699-17.595-24.33-31.407
	c-6.346-24.132-8.547-48.662-5.516-73.503c0.606-4.939,2.201-9.803,3.763-14.567c2.729-8.336,9.522-12.511,17.062-15.753
	c11.4-4.917,23.434-7.394,35.677-8.953c18.623-2.369,37.285-2.929,55.981-1.097c17.957,1.766,35.519,5.249,52.027,12.962
	c3.387,1.588,6.577,3.614,9.489,5.957c1.265,1.021,2.596,1.987,3.69,3.203c1.344,1.506,2.168,3.364,3.269,5.038
	c1.054,1.615,2.227,3.143,3.189,4.814c2.042,3.549,2.306,7.575,3.203,11.45C344.045,211.987,341.396,224.669,338.075,237.275z
	 M600.219,269.434c-3.637,13.812-11.255,24.771-24.329,31.407c-2.201,1.114-4.337,2.511-6.603,3.499
	c-2.663,1.16-5.391,2.143-8.027,3.381c-6.432,3.012-13.391,4.257-20.402,5.074c-10.043,1.173-20.811,0.962-30.854,0.007
	c-29.271-2.788-57.094-17.345-72.752-42.788c-6.273-10.182-10.57-21.206-13.602-32.738c-3.32-12.606-5.982-25.289-5.271-38.291
	c0.896-3.875,1.16-7.901,3.203-11.45c0.975-1.671,2.148-3.199,3.202-4.814c1.095-1.674,1.911-3.532,3.269-5.038
	c1.081-1.216,2.412-2.181,3.678-3.203c2.926-2.343,6.102-4.369,9.502-5.957c16.501-7.713,34.057-11.196,52.021-12.962
	c18.688-1.832,37.364-1.272,55.974,1.097c12.244,1.559,24.277,4.036,35.691,8.953c7.525,3.242,14.326,7.417,17.055,15.753
	c1.555,4.764,3.149,9.627,3.756,14.567C608.773,220.771,606.572,245.302,600.219,269.434z M610.117,188.804
	c-0.172-0.507-0.316-1.028-0.488-1.536c-2.728-7.954-7.143-14.656-14.365-19.252c-5.746-3.658-12.152-5.76-18.609-7.631
	c-18.979-5.493-38.484-7.074-58.083-7.338c-20.402-0.27-40.541,2.148-60.152,7.941c-2.952,0.867-5.892,1.77-8.778,2.831
	c-5.166,1.901-10.214,4.062-14.826,7.117c-0.923,0.612-1.859,1.239-2.768,1.878c-0.527,0.389-1.068,0.774-1.582,1.196
	c-0.33,0.25-0.646,0.518-0.975,0.784c-0.62,0.527-1.213,1.114-1.819,1.681c-1.45,1.525-2.688,3.278-3.782,5.005
	c-0.633,1.008-1.252,2.01-1.885,3.015c-0.58,0.926-1.688,2.142-1.978,3.192c1.028-3.766,3.11-7.206,5.707-10.178
	c-0.185-0.083-0.343-0.152-0.686-0.293c1.714-1.262,3.308-2.55,4.89-3.795c0.014-0.003,0.026-0.01,0.026-0.02
	c0.026-0.02,0.053-0.04,0.079-0.059c0.765-0.6,1.529-1.173,2.293-1.733c0.344-0.247,0.672-0.501,1.016-0.741
	c1.055-0.745,2.135-1.443,3.268-2.046c20.047-10.771,42.018-14.244,64.33-16.033c14.564-1.16,29.088-0.537,43.6,0.985
	c13.074,1.368,26.016,3.312,38.445,7.733c7.248,2.574,14.246,5.572,19.584,11.431c4.258,4.682,6.959,10.122,7.803,16.323
	C610.302,189.107,610.17,188.965,610.117,188.804z M624.799,180.075c-4.612,0-8.461-1.838-9.488-4.296h18.991
	C633.261,178.237,629.412,180.075,624.799,180.075z M615.311,173.166c1.027-2.461,4.876-4.297,9.488-4.297
	c4.613,0,8.462,1.835,9.503,4.297H615.311z"/>
</svg>
