<svg version="1.1" xmlns="http://www.w3.org/2000/svg" x="0" y="0" width="768" height="430" viewBox="0 0 768 430" enable-background="new 0 0 768 430" xml:space="preserve"><path fill="#DDE4D0" d="M623.7 170.4c-8.3-0.2-10 0.8-18.2-0.9 -6-1.2-14.7-5.3-27-7.8 -22.3-4.3-41.8-4.3-60.2-4 -59.7 1.1-92.5 6.9-105.2 11.8 -17.4 4.7-40.7 4-58.1 1 -12.3-4.5-44.6-9.1-104.2-8.3 -2.3 0-4.6 0.1-7 0.1 -16.4 0.4-33.8 1.4-53.7 5.9 -12.6 2.8-21.7 7.2-27.8 8.7 -8.3 1.9-10 1-18.3 1.5 -0.8 0-1.2 0.7-1.3 1.5l-0.6 12.1c0 0.8 0.3 1.4 0.9 1.5 4.7 1.3 14.2 3.1 14 4.9 -2.6 19.9 2.1 43.1 5.6 55 2.6 8.9 6.7 14.3 15.7 15.1 37.7 3.5 82.7-0.1 122.5-4 12.3-1.2 28.1-0.8 35.4-9.7 18.4-22.5 22.3-37.1 27.7-53.8 1.5-4.6 2.6-8.7 5.6-11.7 3-3 9.1-4.7 13.5-4.7v0c5.2-0.4 9.9 1.2 13.7 4.2 3.1 2.6 3.4 7 4.5 11.6 3.8 16.5 6.2 31 22.5 52.9 6.5 8.7 22.3 7.7 34.6 8.5 39.5 2.6 84.2 4.7 122.3-0.1 9.1-1.1 13.7-6.6 17.2-15.6 4.7-12.1 11.6-35.5 11-55.3 -0.1-1.9 9.7-4 14.5-5.4 0.7-0.2 1-0.8 1.1-1.6l0.6-12.1C624.8 171.1 624.5 170.4 623.7 170.4zM352.5 185c0-0.1-0.1-0.1-0.1-0.2C352.4 184.9 352.4 184.9 352.5 185zM168.1 187.1c2-3.3 3.6-5.5 7.2-7 15.1-6.3 40.6-9.1 67.6-9.7l0 0c44.9-1 93.7 4.3 104 10 2.4 1.3 4.2 2.5 5.4 4.4 0.2 0.4 0.4 0.9 0.6 1.4 5.3 15.7-11.9 48-20.7 60.6 -2.2 3.2-5.1 6-8.9 7 -11.9 3.4-135.4 12.6-147.7 5.7 -2.2-1.3-3.9-2.4-5.2-4.1 -0.3-0.5-0.6-1.1-0.8-1.8C162.2 231.4 160.4 199.7 168.1 187.1zM586.9 251.3c1.5-1.2 2.7-2.6 3.6-4.7 5.4-12.7 9.4-28.2 10.6-41.7 -1.2 13.5-5.2 29.1-10.6 41.7C589.5 248.7 588.4 250.1 586.9 251.3zM412.8 186.2c1.6-3.6 3.8-5.1 7.3-7 10.9-6.1 60.2-13 105.1-13.5v0c26.9-0.3 52.3 1.6 66.8 7.4 1.5 0.6 2.6 1.3 3.5 2.2 0.9 1 1.6 2.3 2.3 3.7 6.5 12.3 1.6 44.2-8.1 66.7 -1.5 3.6-3.8 5.1-7.2 7.1 -6.2 3.5-37.2 4.5-69.3 4.3 -35.2-0.6-71.4-2.8-77.4-4.3 -3.6-0.9-6.3-3.6-8.2-6.7C420.1 233.8 405.9 202 412.8 186.2z"/></svg>