<svg version="1.1" id="Layer_1" xmlns="http://www.w3.org/2000/svg" xmlns:xlink="http://www.w3.org/1999/xlink" viewBox="0 0 768 430" enable-background="new 0 0 768 430" xml:space="preserve">
<g>
	<defs>
		<rect id="SVGID_1_" x="153" width="449" height="449"/>
	</defs>
	<clipPath id="SVGID_2_">
		<use xlink:href="#SVGID_1_"  overflow="visible"/>
	</clipPath>
	<path clip-path="url(#SVGID_2_)" fill="#F64B8D" d="M464.139,170.958h-60.801c-5.598,0-10.887,2.568-14.35,6.965L235.563,372.747
		c-3.463,4.399-8.751,6.966-14.35,6.966h-32.886c-10.088,0-18.267-8.178-18.267-18.267c0-10.088,8.179-18.266,18.267-18.266h22.553
		c5.538,0,10.777-2.512,14.245-6.831l160.819-200.312c3.468-4.318,8.705-6.83,14.243-6.83h20.38h57.598
		c2.154,0,3.899,1.746,3.899,3.899v19.926C482.064,162.933,474.04,170.958,464.139,170.958"/>
	<path clip-path="url(#SVGID_2_)" fill="#676868" d="M480.778,95.535H415.38c-2.117,0-3.832,1.715-3.832,3.833v68.007
		c0,2.117,1.715,3.833,3.832,3.833h65.398c2.117,0,3.834-1.715,3.834-3.833V99.368C484.612,97.25,482.896,95.535,480.778,95.535
		 M476.783,107.195v18.429c0,2.117-1.716,3.833-3.833,3.833h-49.741c-2.117,0-3.834-1.716-3.834-3.833v-18.429
		c0-2.117,1.717-3.833,3.834-3.833h49.741C475.067,103.363,476.783,105.079,476.783,107.195 M419.375,159.547v-18.428
		c0-2.117,1.717-3.833,3.834-3.833h49.741c2.117,0,3.833,1.716,3.833,3.833v18.428c0,2.117-1.716,3.833-3.833,3.833h-49.741
		C421.092,163.379,419.375,161.664,419.375,159.547"/>
	<path clip-path="url(#SVGID_2_)" fill="#676868" d="M582.353,386.141h-26.413l-3.286-2.232l-71.328-214l-0.173-0.873l-3.833-70.732
		l6.723-1.342l101.575,284.686L582.353,386.141z M558.437,378.956h19.004l-91.911-257.458l2.516,46.333L558.437,378.956z"/>
</g>
</svg>
