<svg version="1.1" id="Layer_1" xmlns="http://www.w3.org/2000/svg" xmlns:xlink="http://www.w3.org/1999/xlink" viewBox="0 0 768 430" enable-background="new 0 0 768 430" xml:space="preserve">
<pattern  x="0.5" y="430.5" width="28.8" height="28.801" patternUnits="userSpaceOnUse" id="SVGID_1_" viewBox="1.44 -30.241 28.8 28.801" overflow="visible">
	<g>
		<polygon fill="none" points="1.44,-1.439 30.24,-1.439 30.24,-30.241 1.44,-30.241 		"/>
		<g>
			<polygon fill="none" points="1.44,-1.439 30.24,-1.439 30.24,-30.241 1.44,-30.241 			"/>
			<g>
				<path fill="#FFFFFF" d="M30.24-31.68c0.795,0,1.439,0.645,1.439,1.438s-0.645,1.438-1.439,1.438c-0.796,0-1.44-0.645-1.44-1.438
					S29.444-31.68,30.24-31.68z"/>
				<path fill="#FFFFFF" d="M15.84-31.68c0.795,0,1.44,0.645,1.44,1.438s-0.646,1.438-1.44,1.438c-0.796,0-1.439-0.645-1.439-1.438
					S15.044-31.68,15.84-31.68z"/>
				<path fill="#FFFFFF" d="M30.24-17.282c0.795,0,1.439,0.646,1.439,1.44s-0.645,1.439-1.439,1.439c-0.796,0-1.44-0.645-1.44-1.439
					C28.8-16.635,29.444-17.282,30.24-17.282z"/>
				<path fill="#FFFFFF" d="M15.84-17.282c0.795,0,1.44,0.646,1.44,1.44s-0.646,1.439-1.44,1.439c-0.796,0-1.439-0.645-1.439-1.439
					C14.401-16.635,15.044-17.282,15.84-17.282z"/>
				<path fill="#FFFFFF" d="M8.64-24.48c0.795,0,1.44,0.645,1.44,1.438c0,0.797-0.646,1.44-1.44,1.44
					C7.844-21.6,7.2-22.244,7.2-23.041C7.2-23.836,7.844-24.48,8.64-24.48z"/>
				<path fill="#FFFFFF" d="M23.04-24.48c0.795,0,1.44,0.645,1.44,1.438c0,0.797-0.646,1.44-1.44,1.44
					c-0.796,0-1.44-0.645-1.44-1.44C21.6-23.836,22.244-24.48,23.04-24.48z"/>
				<path fill="#FFFFFF" d="M8.64-10.08c0.795,0,1.44,0.645,1.44,1.439c0,0.797-0.646,1.44-1.44,1.44
					c-0.796,0-1.439-0.646-1.439-1.44C7.2-9.436,7.844-10.08,8.64-10.08z"/>
				<path fill="#FFFFFF" d="M23.04-10.08c0.795,0,1.44,0.645,1.44,1.439c0,0.797-0.646,1.44-1.44,1.44
					c-0.796,0-1.44-0.646-1.44-1.44S22.244-10.08,23.04-10.08z"/>
			</g>
			<g>
				<path fill="#FFFFFF" d="M1.44-31.68c0.795,0,1.44,0.645,1.44,1.438s-0.645,1.44-1.44,1.44S0-29.446,0-30.241
					S0.645-31.68,1.44-31.68z"/>
				<path fill="#FFFFFF" d="M1.44-17.282c0.795,0,1.439,0.646,1.439,1.44s-0.645,1.439-1.439,1.439C0.645-14.401,0-15.045,0-15.84
					S0.645-17.282,1.44-17.282z"/>
			</g>
			<g>
				<path fill="#FFFFFF" d="M30.24-2.879c0.795,0,1.439,0.645,1.439,1.439c0,0.793-0.645,1.438-1.439,1.438
					c-0.796,0-1.44-0.646-1.44-1.438C28.8-2.234,29.444-2.879,30.24-2.879z"/>
				<path fill="#FFFFFF" d="M15.84-2.879c0.795,0,1.44,0.645,1.44,1.439c0,0.793-0.646,1.438-1.44,1.438
					c-0.796,0-1.439-0.646-1.439-1.438C14.401-2.234,15.044-2.879,15.84-2.879z"/>
			</g>
			<g>
				<path fill="#FFFFFF" d="M1.44-2.879c0.795,0,1.439,0.645,1.439,1.439C2.879-0.646,2.235,0,1.44,0S0-0.645,0-1.439
					C0-2.235,0.645-2.879,1.44-2.879z"/>
			</g>
		</g>
	</g>
</pattern>
<pattern  x="0.5" y="430.5" width="28.8" height="28.801" patternUnits="userSpaceOnUse" id="SVGID_2_" viewBox="1.44 -30.241 28.8 28.801" overflow="visible">
	<g>
		<polygon fill="none" points="1.44,-1.439 30.24,-1.439 30.24,-30.241 1.44,-30.241 		"/>
		<g>
			<polygon fill="none" points="1.44,-1.439 30.24,-1.439 30.24,-30.241 1.44,-30.241 			"/>
			<g>
				<path fill="#FFFFFF" d="M30.24-31.68c0.795,0,1.439,0.645,1.439,1.438s-0.645,1.438-1.439,1.438c-0.796,0-1.44-0.645-1.44-1.438
					S29.444-31.68,30.24-31.68z"/>
				<path fill="#FFFFFF" d="M15.84-31.68c0.795,0,1.44,0.645,1.44,1.438s-0.646,1.438-1.44,1.438c-0.796,0-1.439-0.645-1.439-1.438
					S15.044-31.68,15.84-31.68z"/>
				<path fill="#FFFFFF" d="M30.24-17.282c0.795,0,1.439,0.646,1.439,1.44s-0.645,1.439-1.439,1.439c-0.796,0-1.44-0.645-1.44-1.439
					C28.8-16.635,29.444-17.282,30.24-17.282z"/>
				<path fill="#FFFFFF" d="M15.84-17.282c0.795,0,1.44,0.646,1.44,1.44s-0.646,1.439-1.44,1.439c-0.796,0-1.439-0.645-1.439-1.439
					C14.401-16.635,15.044-17.282,15.84-17.282z"/>
				<path fill="#FFFFFF" d="M8.64-24.48c0.795,0,1.44,0.645,1.44,1.438c0,0.797-0.646,1.44-1.44,1.44
					C7.844-21.6,7.2-22.244,7.2-23.041C7.2-23.836,7.844-24.48,8.64-24.48z"/>
				<path fill="#FFFFFF" d="M23.04-24.48c0.795,0,1.44,0.645,1.44,1.438c0,0.797-0.646,1.44-1.44,1.44
					c-0.796,0-1.44-0.645-1.44-1.44C21.6-23.836,22.244-24.48,23.04-24.48z"/>
				<path fill="#FFFFFF" d="M8.64-10.08c0.795,0,1.44,0.645,1.44,1.439c0,0.797-0.646,1.44-1.44,1.44
					c-0.796,0-1.439-0.646-1.439-1.44C7.2-9.436,7.844-10.08,8.64-10.08z"/>
				<path fill="#FFFFFF" d="M23.04-10.08c0.795,0,1.44,0.645,1.44,1.439c0,0.797-0.646,1.44-1.44,1.44
					c-0.796,0-1.44-0.646-1.44-1.44S22.244-10.08,23.04-10.08z"/>
			</g>
			<g>
				<path fill="#FFFFFF" d="M1.44-31.68c0.795,0,1.44,0.645,1.44,1.438s-0.645,1.44-1.44,1.44S0-29.446,0-30.241
					S0.645-31.68,1.44-31.68z"/>
				<path fill="#FFFFFF" d="M1.44-17.282c0.795,0,1.439,0.646,1.439,1.44s-0.645,1.439-1.439,1.439C0.645-14.401,0-15.045,0-15.84
					S0.645-17.282,1.44-17.282z"/>
			</g>
			<g>
				<path fill="#FFFFFF" d="M30.24-2.879c0.795,0,1.439,0.645,1.439,1.439c0,0.793-0.645,1.438-1.439,1.438
					c-0.796,0-1.44-0.646-1.44-1.438C28.8-2.234,29.444-2.879,30.24-2.879z"/>
				<path fill="#FFFFFF" d="M15.84-2.879c0.795,0,1.44,0.645,1.44,1.439c0,0.793-0.646,1.438-1.44,1.438
					c-0.796,0-1.439-0.646-1.439-1.438C14.401-2.234,15.044-2.879,15.84-2.879z"/>
			</g>
			<g>
				<path fill="#FFFFFF" d="M1.44-2.879c0.795,0,1.439,0.645,1.439,1.439C2.879-0.646,2.235,0,1.44,0S0-0.645,0-1.439
					C0-2.235,0.645-2.879,1.44-2.879z"/>
			</g>
		</g>
	</g>
</pattern>
<g>
	<g id="ëÃ">
		<g>
			<g>
				<polygon fill="#AA9A88" points="380.448,378.208 373.967,378.208 369.572,222.928 384.844,222.928 				"/>
				<path fill="#AF6482" d="M381.303,378.208c-0.173,5.252-0.427,8.255-8.728,10.861c-8.058,2.528-21.403,3.861-22.056,0.415
					c-0.652-3.448,13.813-7.48,21.661-11.588c0.562-0.048,0.083-13.142,0.083-13.142l9.039-0.044
					C381.303,364.712,381.378,375.923,381.303,378.208z"/>
				<path fill="#754D29" d="M381.277,381.364c0.468,6.79-0.114,8.133-4.069,8.64c-8.378,1.072-27.183,4.718-27.699,1.247
					c-0.831-5.599,9.73-8.66,14.009-9.878c0.03,2.366,4.974,2.246,7.697,2.057C375.277,383.146,379.22,382.69,381.277,381.364z"/>
			</g>
			<g>
				<polygon fill="#AA9A88" points="391.264,378.208 397.744,378.208 402.141,222.928 386.867,222.928 				"/>
				<path fill="#AF6482" d="M390.408,378.208c0.173,5.252,0.428,8.255,8.728,10.861c8.06,2.528,21.403,3.861,22.057,0.415
					c0.651-3.448-13.813-7.48-21.661-11.588c-0.562-0.048-0.084-13.142-0.084-13.142l-9.038-0.044
					C390.408,364.712,390.333,375.923,390.408,378.208z"/>
				<path fill="#754D29" d="M390.436,381.364c-0.47,6.79,0.112,8.133,4.068,8.64c8.377,1.072,27.184,4.718,27.697,1.247
					c0.832-5.599-9.729-8.66-14.008-9.878c-0.03,2.366-4.976,2.246-7.697,2.057C396.436,383.146,392.491,382.69,390.436,381.364z"/>
			</g>
		</g>
		<g>
			<g>
				<g>
					<g>
						<polygon fill="#FFD39F" points="350.964,230.621 343.253,228.646 347.895,198.212 356.488,201.825 						"/>
					</g>
					<path fill="#FFD39F" d="M347.611,256.096c-0.768-2.656-0.299-10.437-0.299-10.437s-4.024,13.216-5.632,14.573
						c-0.402,0.34-1.334,0.394-1.934-0.072c0.997-3.04,1.873-6.721,1.873-6.721s-3.294,6.447-4.116,6.896
						c-0.883,0.479-1.769-0.783-1.769-0.783l0.855-2.086c0,0-0.371,0.904-1.048,0.886c-0.452-0.015-0.758-0.162-0.901-0.627
						c-0.124-0.404,3.248-7.783,3.248-7.783s-1.305,1.07-1.552,0.197l6.917-21.49l7.711,1.974l-1.12,27.769
						C349.844,258.389,348.379,258.751,347.611,256.096z"/>
					<g opacity="0.4">
						<polygon points="341.62,253.439 344.051,246.08 343.389,246.13 338.317,259.34 						"/>
						<polygon points="336.59,257.466 341.68,245.945 341.056,245.727 						"/>
						<polygon points="337.889,249.941 340.397,242.421 339.916,241.951 						"/>
					</g>
				</g>
				<path fill="#7977B7" d="M353.512,235.579l-13.272-2.915c0,0,13.757-90.269,16.57-103.202
					c4.092-18.812,13.234-14.41,13.234-14.41l-0.394,17.869L353.512,235.579z"/>
			</g>
			<g>
				<g>
					<g>
						<polygon fill="#FFD39F" points="420.007,230.621 427.718,228.646 423.075,198.212 414.482,201.825 						"/>
					</g>
					<path fill="#FFD39F" d="M423.359,256.096c0.769-2.656,0.299-10.437,0.299-10.437s4.023,13.216,5.633,14.573
						c0.401,0.34,1.333,0.394,1.933-0.072c-0.995-3.04-1.873-6.721-1.873-6.721s3.296,6.447,4.116,6.896
						c0.884,0.479,1.771-0.783,1.771-0.783l-0.856-2.086c0,0,0.371,0.904,1.049,0.886c0.452-0.015,0.759-0.162,0.9-0.627
						c0.124-0.404-3.247-7.783-3.247-7.783s1.305,1.07,1.553,0.197l-6.917-21.49l-7.711,1.974l1.12,27.769
						C421.127,258.389,422.592,258.751,423.359,256.096z"/>
					<g opacity="0.4">
						<polygon points="429.351,253.439 426.92,246.08 427.582,246.13 432.653,259.34 						"/>
						<polygon points="434.38,257.466 429.291,245.945 429.914,245.727 						"/>
						<polygon points="433.082,249.941 430.572,242.421 431.055,241.951 						"/>
					</g>
				</g>
				<path fill="#7977B7" d="M417.459,235.579l13.271-2.915c0,0-13.758-90.269-16.569-103.202
					c-4.093-18.812-13.234-14.41-13.234-14.41l0.396,17.869L417.459,235.579z"/>
			</g>
		</g>
		<g>
			<polygon fill="#7977B7" points="410.051,326.332 361.18,326.332 361.18,158.794 370.044,115.052 400.509,115.052 
				410.051,158.794 			"/>
			<g>
				<circle fill="#5C5C9B" cx="385.67" cy="123.826" r="1.553"/>
				<circle fill="#5C5C9B" cx="385.67" cy="132.75" r="1.553"/>
			</g>
			<g>
				<path fill="#5C5C9B" d="M366.86,243.893h-4.71c-1.377,0-2.493-1.117-2.493-2.494v-23.973h9.697v23.973
					C369.353,242.775,368.236,243.893,366.86,243.893z"/>
				<path fill="#5C5C9B" d="M408.835,243.893h-4.71c-1.377,0-2.493-1.117-2.493-2.494v-23.973h9.697v23.973
					C411.329,242.775,410.212,243.893,408.835,243.893z"/>
			</g>
		</g>
		<g>
			<g>
				<g>
					<path fill="#D1A7BA" d="M365.354,113.11c7.012,16.924,24.884,26.702,24.884,26.702s-19.69,26.519-39.274,19.429
						C352.262,143.141,356.471,117.682,365.354,113.11z"/>
					<pattern  id="SVGID_3_" xlink:href="#SVGID_1_" patternTransform="matrix(0.4156 0 0 -0.4156 -9166.7793 -7030.9326)">
					</pattern>
					<path opacity="0.3" fill="url(#SVGID_3_)" enable-background="new    " d="M365.354,113.11
						c7.012,16.924,24.884,26.702,24.884,26.702s-19.69,26.519-39.274,19.429C352.262,143.141,356.471,117.682,365.354,113.11z"/>
				</g>
				<g>
					<g>
						<g>
							<path fill="none" stroke="#AF6482" stroke-width="1.2468" stroke-linecap="round" stroke-linejoin="round" d="
								M390.238,139.812c0,0-0.004,0.005-0.012,0.015"/>
							
								<path fill="none" stroke="#AF6482" stroke-width="1.2468" stroke-linecap="round" stroke-linejoin="round" stroke-dasharray="0.0418,1.2534" d="
								M389.455,140.813c-3.796,4.71-20.802,24.22-37.883,18.638"/>
							
								<line fill="none" stroke="#AF6482" stroke-width="1.2468" stroke-linecap="round" stroke-linejoin="round" x1="350.978" y1="159.247" x2="350.964" y2="159.241"/>
						</g>
					</g>
				</g>
			</g>
			<g>
				<g>
					<path fill="#D1A7BA" d="M405.562,113.11c-7.013,16.924-24.883,26.702-24.883,26.702s19.69,26.519,39.274,19.429
						C418.656,143.141,414.447,117.682,405.562,113.11z"/>
					<pattern  id="SVGID_4_" xlink:href="#SVGID_2_" patternTransform="matrix(0.4156 0 0 -0.4156 -9088.3652 -7030.9326)">
					</pattern>
					<path opacity="0.3" fill="url(#SVGID_4_)" enable-background="new    " d="M405.562,113.11
						c-7.013,16.924-24.883,26.702-24.883,26.702s19.69,26.519,39.274,19.429C418.656,143.141,414.447,117.682,405.562,113.11z"/>
				</g>
				<g>
					<g>
						<g>
							<path fill="none" stroke="#AF6482" stroke-width="1.2468" stroke-linecap="round" stroke-linejoin="round" d="
								M380.68,139.812c0,0,0.004,0.005,0.011,0.015"/>
							
								<path fill="none" stroke="#AF6482" stroke-width="1.2468" stroke-linecap="round" stroke-linejoin="round" stroke-dasharray="0.0418,1.2534" d="
								M381.463,140.813c3.797,4.71,20.803,24.22,37.883,18.638"/>
							
								<line fill="none" stroke="#AF6482" stroke-width="1.2468" stroke-linecap="round" stroke-linejoin="round" x1="419.939" y1="159.247" x2="419.954" y2="159.241"/>
						</g>
					</g>
				</g>
			</g>
			<circle fill="#AF6482" cx="385.463" cy="140.471" r="2.355"/>
		</g>
	</g>
	<g id="äÁ">
		<g>
			<g>
				<path fill="#FFD39F" d="M421.264,82.562c-0.049,18.562-12.43,37.607-35.695,37.607c-23.959,0-35.715-19.11-35.667-37.672
					c0.049-18.562,15.912-33.293,34.847-33.293C403.684,49.204,421.312,64,421.264,82.562z"/>
				<g>
					<g>
						<path fill="#CCCCCC" d="M421.352,77.057c-8.771,3.746-13.379-11.234-13.379-17.226c-11.431,5.819-10.541-10.037-16.688-10.042
							c-6.146-0.004-13.421,14.487-30.555,11.37c-2.947,8.1-7.134,18.494-12.583,16.274c-3.229-1.315-4.249-14.7,2.609-13.573
							c-5.146-7.065,1.047-23.19,14.13-18.702c6.354-16.208,28.342-12.615,31.777-6.026c11.31-5.333,23.828,7.273,22.397,15.534
							C435.331,63.272,425.039,75.482,421.352,77.057z"/>
					</g>
				</g>
				<g>
					<path fill="#FFD39F" d="M356.811,85.567c0,4.666-3.113,8.905-6.953,8.905c-3.84,0-8.264-3.197-8.264-8.905
						c0-6.85,5.049-9.286,10.166-7.688C355.373,79.008,356.811,80.901,356.811,85.567z"/>
					<path fill="#FFD39F" d="M413.743,85.195c0,4.666,3.112,8.905,6.952,8.905c3.841,0,8.265-3.196,8.265-8.905
						c0-6.85-5.049-9.286-10.165-7.688C415.182,78.636,413.743,80.529,413.743,85.195z"/>
				</g>
			</g>
		</g>
		<g>
			<g>
				<path d="M375.485,79.654c0,0.427-0.017,0.84-0.134,1.217c-0.126,0.407-0.304,0.792-0.541,1.109
					c-0.254,0.339-0.621,0.542-0.968,0.736c-0.358,0.199-0.725,0.34-1.144,0.34c-0.419,0-0.834-0.056-1.192-0.256
					c-0.348-0.194-0.637-0.504-0.891-0.844c-0.237-0.316-0.455-0.675-0.582-1.082c-0.117-0.377-0.107-0.794-0.107-1.221
					c0-0.427,0.052-0.824,0.169-1.201c0.127-0.408,0.318-0.76,0.555-1.076c0.254-0.34,0.528-0.641,0.875-0.835
					c0.357-0.199,0.752-0.385,1.171-0.385c0.419,0,0.785,0.239,1.143,0.439c0.348,0.194,0.655,0.439,0.909,0.779
					c0.237,0.316,0.511,0.644,0.637,1.051C375.503,78.803,375.485,79.227,375.485,79.654z"/>
			</g>
			<g>
				<path d="M401.025,79.654c0,0.427-0.115,0.837-0.232,1.214c-0.127,0.407-0.318,0.777-0.557,1.093
					c-0.254,0.339-0.566,0.612-0.916,0.806c-0.356,0.2-0.754,0.292-1.172,0.292c-0.42,0-0.809-0.107-1.166-0.308
					c-0.348-0.194-0.617-0.489-0.873-0.829c-0.235-0.316-0.493-0.643-0.619-1.05c-0.117-0.377-0.188-0.792-0.188-1.219
					c0-0.427,0.039-0.851,0.156-1.228c0.127-0.407,0.335-0.786,0.571-1.102c0.255-0.34,0.6-0.587,0.947-0.781
					c0.356-0.199,0.752-0.35,1.17-0.35c0.42,0,0.85,0.09,1.207,0.29c0.348,0.194,0.609,0.538,0.864,0.878
					c0.236,0.316,0.425,0.678,0.552,1.085C400.889,78.824,401.025,79.227,401.025,79.654z"/>
			</g>
			
				<polyline fill="none" stroke="#000000" stroke-width="1.7224" stroke-linecap="round" stroke-linejoin="round" stroke-miterlimit="10" points="
				382.738,87.114 385.408,83.373 388.327,86.443 			"/>
			<g>
				<g>
					<path fill="#BA7F38" d="M379.425,91.009c0,0-0.174,0.229-0.495,0.613c-0.147,0.196-0.326,0.435-0.531,0.708
						c-0.189,0.286-0.414,0.594-0.629,0.95c-0.112,0.174-0.226,0.357-0.329,0.556c-0.106,0.196-0.232,0.388-0.334,0.602
						c-0.222,0.417-0.429,0.869-0.633,1.339c-0.203,0.472-0.397,0.965-0.571,1.475c-0.18,0.508-0.338,1.034-0.484,1.563
						c-0.148,0.529-0.274,1.064-0.39,1.595c-0.111,0.531-0.215,1.057-0.3,1.57c-0.084,0.513-0.165,1.011-0.228,1.486
						c-0.057,0.477-0.111,0.928-0.161,1.345c-0.087,0.837-0.146,1.542-0.185,2.039c-0.036,0.499-0.056,0.784-0.056,0.784
						s-0.089-0.275-0.192-0.768c-0.102-0.492-0.224-1.204-0.283-2.065c-0.033-0.431-0.058-0.9-0.052-1.396
						c0-0.496,0.011-1.021,0.059-1.562c0.043-0.542,0.11-1.1,0.209-1.664c0.094-0.564,0.225-1.133,0.375-1.696
						c0.161-0.561,0.334-1.12,0.553-1.653c0.1-0.27,0.217-0.531,0.337-0.787c0.113-0.259,0.245-0.506,0.374-0.749
						c0.256-0.486,0.546-0.934,0.836-1.345c0.288-0.413,0.585-0.784,0.886-1.103c0.283-0.333,0.588-0.597,0.845-0.838
						c0.27-0.233,0.517-0.421,0.716-0.573C379.178,91.158,379.425,91.009,379.425,91.009z"/>
				</g>
				<g>
					<path fill="#BA7F38" d="M391.285,91.009c0,0,0.26,0.13,0.697,0.379c0.205,0.146,0.478,0.309,0.754,0.537
						c0.139,0.115,0.283,0.237,0.438,0.366c0.152,0.132,0.294,0.289,0.452,0.444c0.307,0.318,0.628,0.681,0.916,1.099
						c0.301,0.411,0.591,0.866,0.848,1.358c0.264,0.489,0.493,1.015,0.7,1.559c0.204,0.544,0.377,1.108,0.521,1.678
						c0.14,0.571,0.259,1.146,0.338,1.716c0.088,0.569,0.137,1.133,0.171,1.677c0.055,1.091,0.028,2.107-0.058,2.972
						c-0.08,0.865-0.211,1.578-0.319,2.071c-0.109,0.495-0.201,0.77-0.201,0.77s-0.017-0.287-0.046-0.79
						c-0.03-0.5-0.081-1.21-0.148-2.055c-0.043-0.42-0.087-0.876-0.135-1.358c-0.049-0.48-0.125-0.983-0.193-1.501
						c-0.076-0.518-0.162-1.05-0.263-1.587c-0.103-0.537-0.218-1.079-0.354-1.613c-0.127-0.537-0.286-1.064-0.449-1.58
						c-0.176-0.512-0.354-1.013-0.557-1.484c-0.102-0.236-0.201-0.469-0.312-0.69c-0.104-0.225-0.208-0.444-0.326-0.648
						c-0.11-0.208-0.224-0.409-0.343-0.597c-0.116-0.19-0.221-0.382-0.343-0.548c-0.23-0.345-0.46-0.652-0.671-0.921
						c-0.213-0.266-0.411-0.484-0.57-0.678C391.479,91.225,391.285,91.009,391.285,91.009z"/>
				</g>
				
					<path fill="none" stroke="#000000" stroke-width="1.7224" stroke-linecap="round" stroke-linejoin="round" stroke-miterlimit="10" d="
					M381.857,102.208c0,0,1.108,0.918,3.695,0.918c2.538,0,3.748-1.126,3.748-1.126"/>
			</g>
		</g>
	</g>
</g>
</svg>
