<svg version="1.1" id="Layer_1" xmlns="http://www.w3.org/2000/svg" xmlns:xlink="http://www.w3.org/1999/xlink" viewBox="0 0 768 430" xml:space="preserve">
<path fill="#DDE4D0" d="M369.3,149.8C368.1,154.7,369.7,149.8,369.3,149.8L369.3,149.8z M470.3,184.8c-4.6-5.8-7.5-4.7-8.5-12.7
	c-0.8-6.6-2.2-13.1-3.899-19.5c-3.301-12.2-8.301-24.5-16.601-34.2c-6.399-7.5-18.899-18.1-27.8-9.7c-3.1,3-8.5,11.1-13.2,6.8
	c-3.3-3.1-9.399-11.9-14.6-10.4c-26,7.3-36.4,38.6-40.1,62.5c-0.9,5.6-3.8,14.7,0.8,19.3c3.4,3.399,9.4,3.699,13.2,0.699
	c4.5-3.7,4.2-11.1,4.9-16.3c1.1-7.3,3-14.3,4.8-21.5c7,1.4-11.1,99.5-12.7,110c-0.6,3.7-6.1,22.7-0.2,22.601
	c3.6-0.101,17.4-2.601,17.5,2.899c0.1,10.8-3.4,35,14,33.4c12.799-1.101,10.299-17.5,10.6-26.3c0.2-7.9-1.2-10,6.9-10.101
	c6.1-0.1,2.699,22.601,3.899,27.2c2.101,8.3,12.9,12.5,19.5,6.3c7-6.5,4.3-22.1,4.3-30.7c0.101-7.399,16.4,0.301,19.9-3.6
	c2-2.2-1.1-10.8-1.5-13.3c-1-5.8-2-11.601-3-17.5c-1.8-10.9-3.6-21.8-5.5-32.7c-3.9-22.3-7.9-44.5-7.9-67.2
	c3.801,2.4,4.5,15.3,5.4,19.5c1.6,7.5,3.2,14.2,0.9,21.5c-1.2,4,2.199,12.4,6.199,6.3c3.2-4.899,0.7-6.699,7.101-9
	c4.5-1.6,8.8-1.5,10.6,3.801c2.3,6.899,0.601,16.399,0.601,23.5c0,7.699,0,15.399,0,23c0,15.399,0,30.699,0,46.1c0,9,0,17.9,0,26.9
	c0,3.199,2.899,9.199,6.8,4.899c3.3-3.7,1.1-15.7,1.1-20.399c0-7.7,0-15.4,0-23.101c0-16.7,0-33.5,0-50.2
	C473.9,212.6,477.7,194.1,470.3,184.8z M300.1,151c0,0.4,0,0.7,0,1.1C300.1,153.7,300.4,150.9,300.1,151z M331.3,181.2
	c-3.7-2.1-4.4-0.5-5-5.4c-0.4-3.4-0.8-6.7-1.4-10.1c-1.1-6.4-2.5-12.7-4.4-18.9c-3.6-11.5-9.2-23.2-17.9-31.7
	c-6.6-6.4-16.7-13.8-24.5-6.3c-2.9,2.8-8.7,11.3-13.1,6.8c-3.2-3.3-8-11.4-13.4-10.6c-10.6,1.6-20,11.6-25.4,20.2
	c-5.9,9.3-29.3,63-8.1,65c15.4,1.5,13.4-29.8,17.4-39.3c3.4,1-1.9,37.6-1.4,42.7c0.6,7.101,2.9,13.101,3,20.4
	c0.2,7.4,0.3,14.8,0.5,22.2c0.3,16.2,0.7,32.399,1.1,48.6c0.2,10.3-3.8,33.2,11.9,34.2c17.4,1.1,12.8-28.2,13.1-38.3
	c0.5-18.4,1.2-36.8,1.2-55.2c2.7,0,4.8,0,7,0c1.6,18.1,1.1,36.6,1.6,54.7c0.3,10.5-4.4,38.7,12.6,38.8c15.5,0.1,12.1-21.7,12.3-31.5
	c0.4-16.6,0.7-33.2,1.1-49.7c0.2-8.899,0.4-17.899,0.6-26.8c0.1-6.4,2.3-12.1,2.7-18.5c1-13.3-2.3-27.1-2.5-40.5c0-0.2,0-0.6,0-1.1
	c0.4-0.1,0.7-0.1,1.1-0.2c1.8,7.2,3.7,14.3,4.8,21.6c1,6.9,3.8,14.5,0.9,21.3c-1.6,3.801,3.7,7.5,6.6,4.5c1.5-1.6,0.9-3.699,1.7-5.6
	c0.9-2.3,3.7-1.9,5.6-2.8c4.9-2.4,9.3-2.8,10.7,4.399c1.3,7,0.2,15.101,0.2,22.2c0,14.3,0,28.601,0,42.8c0,15.601,0,31.2,0,46.7
	c0,3.601-1.8,12.101,3.7,12.5c6.2,0.4,4.2-9.899,4.2-13.399c0-29.601,0-59.301,0-88.9C339.5,204.9,343,187.8,331.3,181.2z
	 M268.3,105c33.5,0,33.4-51.9,0-52C234.8,53,234.8,104.9,268.3,105z M269,105c-0.2,0-0.4,0-0.6,0c-0.1,0-0.1,0-0.2,0
	C268.4,105,268.7,105,269,105z M271.4,105c0.2,0,0.4,0,0.6,0C271.9,105,271.7,105,271.4,105z M264.6,105c0.2,0,0.4,0,0.7,0
	C265,105,264.8,105,264.6,105z M271.4,105c-0.2,0-0.5,0-0.9,0C270.9,105,271.2,105,271.4,105z M265.9,105c0.5,0,1.2,0,1.9,0
	C267.2,105,266.5,105,265.9,105z M270.6,105c-0.4,0-0.8,0-1.2,0C269.8,105,270.2,105,270.6,105z M429.8,80c0,0.5,0,0.9,0,1.3
	C429.8,80.9,429.8,80.4,429.8,80z M429.8,77.3c0,0.5,0,1.1,0,1.7l0,0C429.8,78.4,429.8,77.8,429.8,77.3z M429.8,75.2
	c0-0.1,0-0.2,0-0.3C429.8,74.9,429.8,75,429.8,75.2z M429.8,77.3c0-0.8,0-1.4,0-1.9C429.8,75.8,429.8,76.4,429.8,77.3z M429.8,75.4
	c0-0.1,0-0.2,0-0.3C429.8,75.2,429.8,75.3,429.8,75.4z M429.8,79L429.8,79c-0.1-33.7-52.1-33.4-51.9,0.3
	C378,112.5,429.9,112.4,429.8,79z M429.8,82.5C429.8,83.2,429.8,83.4,429.8,82.5L429.8,82.5z M429.8,80c0-0.3,0-0.6,0-1l0,0
	C429.8,79.3,429.8,79.7,429.8,80z M429.8,81.2c0,0.1,0,0.2,0,0.2S429.8,81.3,429.8,81.2z M429.8,81.5c0,0.4,0,0.7,0,1
	C429.8,82.2,429.8,81.9,429.8,81.5z M569.1,82.2c-0.8-2.1-1.6-4.2-2.5-6.2c-1.699-4.1-3.5-4.9-7.6-3.2c-13.7,5.4-27.3,10.8-41,16.3
	c-0.9,0.4-1.9,0.7-3,1.2c-0.4-0.9-0.6-1.6-0.9-2.3c-2.5-6.2-4.899-12.5-7.5-18.7c-0.6-1.3-2-2.2-3-3.3c-1.1,1.1-2.3,2.2-3.399,3.3
	c-0.2,0.2-0.3,0.7-0.4,1c-5.7,13.6-11.399,27.1-17.1,40.7c-0.3,0.7-0.4,1.3-0.7,2.1c14.6,6.5,29.1,13,43.6,19.3
	c1.2,0.5,3.301,0.6,4.101-0.1c0.7-0.7,0.399-2.7,0.399-4c0-0.8-0.6-1.6-0.899-2.3c-2.5-6.2-4.9-12.4-7.5-19c1.399-0.6,2.5-1,3.7-1.4
	c13.6-5.4,27.199-10.8,40.8-16.2C569.6,87.7,570.4,85.8,569.1,82.2z"/>
</svg>
