<svg version="1.1" xmlns="http://www.w3.org/2000/svg"   viewBox="0 0 768 430" enable-background="new 0 0 768 430" xml:space="preserve"><path fill-rule="evenodd" clip-rule="evenodd" fill="#DDE4D0" d="M466.4 180.8C465.2 185.7 466.8 180.8 466.4 180.8L466.4 180.8zM571 304.8c0-16.7 0-33.5 0-50.2 0-11 3.8-29.5-3.7-38.8 -4.6-5.8-7.5-4.7-8.5-12.7 -0.8-6.6-2.2-13.1-3.9-19.5 -3.3-12.2-8.3-24.5-16.6-34.2 -6.4-7.5-18.9-18.1-27.8-9.7 -3.1 3-8.5 11.1-13.2 6.8 -3.3-3.1-9.4-11.9-14.6-10.4 -26 7.3-36.4 38.6-40.1 62.5 -0.9 5.6-3.8 14.7 0.8 19.3 3.4 3.4 9.4 3.7 13.2 0.7 4.5-3.7 4.2-11.1 5-16.3 1.1-7.3 3-14.3 4.8-21.5 7 1.4-11.1 99.5-12.7 110 -0.6 3.7-6.1 22.7-0.2 22.6 3.6-0.1 17.4-2.6 17.5 2.9 0.1 10.8-3.4 35 14 33.4 12.8-1.1 10.3-17.5 10.6-26.3 0.2-7.9-1.2-10 6.9-10.1 6.1-0.1 2.7 22.6 3.9 27.2 2.1 8.3 12.9 12.5 19.5 6.3 7-6.5 4.3-22.1 4.3-30.7 0.1-7.4 16.4 0.3 19.9-3.6 2-2.2-1.1-10.8-1.5-13.3 -1-5.8-2-11.6-3-17.5 -1.8-10.9-3.6-21.8-5.5-32.7 -3.9-22.3-7.9-44.5-7.9-67.2 3.8 2.4 4.5 15.3 5.4 19.5 1.6 7.5 3.2 14.2 0.9 21.5 -1.2 4 2.2 12.4 6.2 6.3 3.2-4.9 0.7-6.7 7.1-9 4.5-1.6 8.8-1.5 10.6 3.8 2.3 6.9 0.6 16.4 0.6 23.5 0 7.7 0 15.4 0 23 0 15.4 0 30.7 0 46.1 0 9 0 17.9 0 26.9 0 3.2 2.9 9.2 6.8 4.9 3.3-3.7 1.1-15.7 1.1-20.4C571 320.2 571 312.5 571 304.8zM397.1 182c0 0.4 0 0.7 0 1.1C397.2 184.7 397.5 181.9 397.1 182zM428.3 212.2c-3.7-2.1-4.4-0.5-5-5.4 -0.4-3.4-0.8-6.7-1.4-10.1 -1.1-6.4-2.5-12.7-4.4-18.9 -3.6-11.5-9.2-23.2-17.9-31.7 -6.6-6.4-16.7-13.8-24.5-6.3 -2.9 2.8-8.7 11.3-13.1 6.8 -3.2-3.3-8-11.4-13.4-10.6 -10.6 1.6-20 11.6-25.4 20.2 -5.9 9.3-29.3 63-8.1 65 15.4 1.5 13.4-29.8 17.4-39.3 3.4 1-1.9 37.6-1.4 42.7 0.6 7.1 2.9 13.1 3 20.4 0.2 7.4 0.3 14.8 0.5 22.2 0.3 16.2 0.7 32.4 1.1 48.6 0.2 10.3-3.8 33.2 11.9 34.2 17.4 1.1 12.8-28.2 13.1-38.3 0.5-18.4 1.2-36.8 1.2-55.2 2.7 0 4.8 0 7 0 1.6 18.1 1.1 36.6 1.6 54.7 0.3 10.5-4.4 38.7 12.6 38.8 15.5 0.1 12.1-21.7 12.3-31.5 0.4-16.6 0.7-33.2 1.1-49.7 0.2-8.9 0.4-17.9 0.6-26.8 0.1-6.4 2.3-12.1 2.7-18.5 1-13.3-2.3-27.1-2.5-40.5 0-0.2 0-0.6 0-1.1 0.4-0.1 0.7-0.1 1.1-0.2 1.8 7.2 3.7 14.3 4.8 21.6 1 6.9 3.8 14.5 0.9 21.3 -1.6 3.8 3.7 7.5 6.6 4.5 1.5-1.6 0.9-3.7 1.7-5.6 0.9-2.3 3.7-1.9 5.6-2.8 4.9-2.4 9.3-2.8 10.7 4.4 1.3 7 0.2 15.1 0.2 22.2 0 14.3 0 28.6 0 42.8 0 15.6 0 31.2 0 46.7 0 3.6-1.8 12.1 3.7 12.5 6.2 0.4 4.2-9.9 4.2-13.4 0-29.6 0-59.3 0-88.9C436.6 235.9 440.1 218.8 428.3 212.2zM368.5 136c0.2 0 0.4 0 0.6 0C369 136 368.8 136 368.5 136zM368.5 136c-0.2 0-0.5 0-0.9 0C368 136 368.3 136 368.5 136zM366 136c-0.2 0-0.4 0-0.6 0 -0.1 0-0.1 0-0.2 0C365.5 136 365.8 136 366 136zM365.4 136c33.5 0 33.4-51.9 0-52C331.9 84 331.9 135.9 365.4 136zM363 136c0.5 0 1.2 0 1.9 0C364.3 136 363.6 136 363 136zM367.7 136c-0.4 0-0.8 0-1.2 0C366.9 136 367.3 136 367.7 136zM361.7 136c0.2 0 0.4 0 0.7 0C362 136 361.8 136 361.7 136zM526.9 111.1c0 1.5 0 2.4 0 2.7C526.9 113.4 526.9 112.3 526.9 111.1zM526.8 106.9c0-0.7 0-1.1 0-1.1C526.8 105.9 526.8 106.3 526.8 106.9zM526.8 106.9c0 0.7 0 1.7 0 3.1 0 0 0 0 0 0C526.9 108.9 526.9 107.8 526.8 106.9zM526.9 110c0 0.4 0 0.8 0 1.1 0-0.3 0-0.7 0-1.1 0 0 0 0 0 0 -0.1-33.7-52.1-33.4-51.9 0.3C475.1 143.5 527 143.4 526.9 110zM257.2 104.6c-1 0.2-1.8 2.1-2.5 3.4 -0.4 0.7-0.3 1.7-0.5 2.5 -1.2 6.8-2.3 13.6-3.5 20.9 -1.6-0.3-2.8-0.5-4-0.7 -14.9-2.5-29.8-5-44.7-7.5 -4-0.7-5.8 0.6-6.5 4.5 -0.4 2.3-0.8 4.6-1.2 6.8 -0.7 4.5 0.5 6.2 5 6.9 15 2.5 30 5.1 45 7.6 1 0.2 2 0.3 3.3 0.6 -0.2 1-0.3 1.8-0.4 2.5 -1.2 6.8-2.4 13.7-3.4 20.5 -0.2 1.4 0.6 3 0.9 4.5 1.6-0.4 3.2-0.7 4.8-1.1 0.3-0.1 0.6-0.4 0.9-0.7 12.3-8.9 24.6-17.9 36.9-26.8 0.6-0.4 1.1-1 1.7-1.5 -9.5-13.6-18.8-27-28.2-40.4C260 105.6 258.2 104.4 257.2 104.6z"/></svg>