<svg version="1.1" id="Layer_1" xmlns="http://www.w3.org/2000/svg" xmlns:xlink="http://www.w3.org/1999/xlink" viewBox="0 0 768 430" xml:space="preserve">
<path fill="#DDE4D0" d="M466.4,145.8C465.2,150.7,466.8,145.8,466.4,145.8L466.4,145.8z M571,269.8c0-16.7,0-33.5,0-50.2
	c0-11,3.8-29.5-3.7-38.8c-4.6-5.8-7.5-4.7-8.5-12.7c-0.8-6.6-2.2-13.1-3.899-19.5c-3.301-12.2-8.301-24.5-16.601-34.2
	c-6.399-7.5-18.899-18.1-27.8-9.7c-3.1,3-8.5,11.1-13.2,6.8c-3.3-3.1-9.399-11.9-14.6-10.4c-26,7.3-36.4,38.6-40.101,62.5
	c-0.899,5.6-3.8,14.7,0.801,19.3C446.8,186.3,452.8,186.6,456.6,183.6c4.5-3.7,4.2-11.1,5-16.3c1.101-7.3,3-14.3,4.801-21.5
	c7,1.4-11.101,99.5-12.7,110c-0.601,3.7-6.101,22.7-0.2,22.601c3.6-0.101,17.4-2.601,17.5,2.899c0.1,10.8-3.4,35,14,33.4
	c12.8-1.101,10.3-17.5,10.6-26.3c0.2-7.9-1.199-10,6.9-10.101c6.1-0.1,2.7,22.601,3.9,27.2c2.1,8.3,12.899,12.5,19.5,6.3
	c7-6.5,4.3-22.1,4.3-30.7c0.1-7.399,16.399,0.301,19.899-3.6c2-2.2-1.1-10.8-1.5-13.3c-1-5.8-2-11.601-3-17.5
	c-1.8-10.9-3.6-21.8-5.5-32.7c-3.899-22.3-7.899-44.5-7.899-67.2c3.8,2.4,4.5,15.3,5.399,19.5c1.601,7.5,3.2,14.2,0.9,21.5
	c-1.2,4,2.2,12.4,6.2,6.3c3.2-4.899,0.7-6.699,7.1-9c4.5-1.6,8.8-1.5,10.601,3.801c2.3,6.899,0.6,16.399,0.6,23.5
	c0,7.699,0,15.399,0,23c0,15.399,0,30.699,0,46.1c0,9,0,17.9,0,26.9c0,3.199,2.9,9.199,6.8,4.899c3.3-3.7,1.1-15.7,1.1-20.399
	C571,285.2,571,277.5,571,269.8z M397.1,147c0,0.4,0,0.7,0,1.1C397.2,149.7,397.5,146.9,397.1,147z M428.3,177.2
	c-3.7-2.1-4.399-0.5-5-5.4c-0.399-3.4-0.8-6.7-1.399-10.1c-1.101-6.4-2.5-12.7-4.4-18.9c-3.6-11.5-9.2-23.2-17.9-31.7
	c-6.6-6.4-16.7-13.8-24.5-6.3c-2.9,2.8-8.7,11.3-13.1,6.8c-3.2-3.3-8-11.4-13.4-10.6c-10.6,1.6-20,11.6-25.4,20.2
	c-5.9,9.3-29.3,63-8.1,65c15.4,1.5,13.4-29.8,17.4-39.3c3.4,1-1.9,37.6-1.4,42.7c0.6,7.101,2.9,13.101,3,20.4
	c0.2,7.4,0.3,14.8,0.5,22.2c0.3,16.2,0.7,32.399,1.1,48.6c0.2,10.3-3.8,33.2,11.9,34.2c17.4,1.1,12.8-28.2,13.1-38.3
	c0.5-18.4,1.2-36.8,1.2-55.2c2.7,0,4.8,0,7,0c1.6,18.1,1.1,36.6,1.6,54.7c0.3,10.5-4.4,38.7,12.6,38.8c15.5,0.1,12.1-21.7,12.3-31.5
	c0.399-16.6,0.699-33.2,1.1-49.7c0.2-8.899,0.4-17.899,0.6-26.8c0.101-6.4,2.301-12.1,2.7-18.5c1-13.3-2.3-27.1-2.5-40.5
	c0-0.2,0-0.6,0-1.1c0.4-0.1,0.7-0.1,1.101-0.2c1.8,7.2,3.699,14.3,4.8,21.6c1,6.9,3.8,14.5,0.899,21.3c-1.6,3.801,3.7,7.5,6.601,4.5
	c1.5-1.6,0.899-3.699,1.7-5.6c0.899-2.3,3.699-1.9,5.6-2.8c4.9-2.4,9.3-2.8,10.7,4.399c1.3,7,0.2,15.101,0.2,22.2
	c0,14.3,0,28.601,0,42.8c0,15.601,0,31.2,0,46.7c0,3.601-1.801,12.101,3.699,12.5c6.2,0.4,4.2-9.899,4.2-13.399
	c0-29.601,0-59.301,0-88.9C436.6,200.9,440.1,183.8,428.3,177.2z M368.5,101c0.2,0,0.4,0,0.6,0C369,101,368.8,101,368.5,101z
	 M368.5,101c-0.2,0-0.5,0-0.9,0C368,101,368.3,101,368.5,101z M366,101c-0.2,0-0.4,0-0.6,0c-0.1,0-0.1,0-0.2,0
	C365.5,101,365.8,101,366,101z M365.4,101c33.5,0,33.4-51.9,0-52C331.9,49,331.9,100.9,365.4,101z M363,101c0.5,0,1.2,0,1.9,0
	C364.3,101,363.6,101,363,101z M367.7,101c-0.4,0-0.8,0-1.2,0C366.9,101,367.3,101,367.7,101z M361.7,101c0.2,0,0.4,0,0.7,0
	C362,101,361.8,101,361.7,101z M526.9,76.1c0,1.5,0,2.4,0,2.7C526.9,78.4,526.9,77.3,526.9,76.1z M526.8,71.9c0-0.7,0-1.1,0-1.1
	C526.8,70.9,526.8,71.3,526.8,71.9z M526.8,71.9c0,0.7,0,1.7,0,3.1l0,0C526.9,73.9,526.9,72.8,526.8,71.9z M526.9,75
	c0,0.4,0,0.8,0,1.1C526.9,75.8,526.9,75.4,526.9,75L526.9,75C526.8,41.3,474.8,41.6,475,75.3C475.1,108.5,527,108.4,526.9,75z
	 M257.2,69.6c-1,0.2-1.8,2.1-2.5,3.4c-0.4,0.7-0.3,1.7-0.5,2.5c-1.2,6.8-2.3,13.6-3.5,20.9c-1.6-0.3-2.8-0.5-4-0.7
	c-14.9-2.5-29.8-5-44.7-7.5c-4-0.7-5.8,0.6-6.5,4.5c-0.4,2.3-0.8,4.6-1.2,6.8c-0.7,4.5,0.5,6.2,5,6.9c15,2.5,30,5.1,45,7.6
	c1,0.2,2,0.3,3.3,0.6c-0.2,1-0.3,1.8-0.4,2.5c-1.2,6.8-2.4,13.7-3.4,20.5c-0.2,1.4,0.6,3,0.9,4.5c1.6-0.4,3.2-0.7,4.8-1.1
	c0.3-0.1,0.6-0.4,0.9-0.7c12.3-8.9,24.6-17.9,36.9-26.8c0.6-0.4,1.1-1,1.7-1.5c-9.5-13.6-18.8-27-28.2-40.4
	C260,70.6,258.2,69.4,257.2,69.6z"/>
</svg>
