<svg version="1.1" id="Layer_1" xmlns="http://www.w3.org/2000/svg" xmlns:xlink="http://www.w3.org/1999/xlink" viewBox="0 0 768 430" enable-background="new 0 0 768 430" xml:space="preserve">
<g>
	<path fill="#006837" d="M418.782,17.515c0,0-59.422,185.336-69.1,377.759h75.556C425.239,395.274,397.474,211.242,418.782,17.515z"
		/>
	<path fill="#006837" d="M324.505,398.096c0,0,9.026-162.322-20.023-262.422c0,0,63.925,59.248,81.361,262.422H324.505z"/>
	<path fill="#006837" d="M274.781,398.096c0,0-0.654-113.238-66.515-195.245c0,0,89.104,46.947,126.567,195.245H274.781z"/>
	
		<linearGradient id="SVGID_1_" gradientUnits="userSpaceOnUse" x1="403.9863" y1="-49.5952" x2="403.9862" y2="305.1499" gradientTransform="matrix(1 0 0 -1 -37 348.5)">
		<stop  offset="0" style="stop-color:#006837"/>
		<stop  offset="0.355" style="stop-color:#39B54A"/>
		<stop  offset="1" style="stop-color:#8CC63F"/>
	</linearGradient>
	<path fill="url(#SVGID_1_)" d="M409.086,398.096c0,0,27.127-111.959-67.149-354.746c0,0,14.203,270.414-20.67,354.746H409.086z"/>
	
		<linearGradient id="SVGID_2_" gradientUnits="userSpaceOnUse" x1="354.0708" y1="-49.5952" x2="354.0708" y2="194.0898" gradientTransform="matrix(1 0 0 -1 -37 348.5)">
		<stop  offset="0" style="stop-color:#006837"/>
		<stop  offset="0.355" style="stop-color:#39B54A"/>
		<stop  offset="1" style="stop-color:#8CC63F"/>
	</linearGradient>
	<path fill="url(#SVGID_2_)" d="M359.361,398.096c0,0-0.633-162.322-84.579-243.686c0,0,40.679,155.477,14.196,243.686H359.361z"/>
	
		<linearGradient id="SVGID_3_" gradientUnits="userSpaceOnUse" x1="534.875" y1="-49.5952" x2="534.875" y2="67.5366" gradientTransform="matrix(1 0 0 -1 -37 348.5)">
		<stop  offset="0" style="stop-color:#006837"/>
		<stop  offset="0.355" style="stop-color:#39B54A"/>
		<stop  offset="1" style="stop-color:#8CC63F"/>
	</linearGradient>
	<path fill="url(#SVGID_3_)" d="M434.916,398.096c0,0,27.11-88.05,125.915-117.132c0,0-60.689,50.853-58.114,117.132h-36.796
		H434.916z"/>
	
		<linearGradient id="SVGID_4_" gradientUnits="userSpaceOnUse" x1="486.0273" y1="-49.5952" x2="486.0273" y2="267.7056" gradientTransform="matrix(1 0 0 -1 -37 348.5)">
		<stop  offset="0" style="stop-color:#006837"/>
		<stop  offset="0.355" style="stop-color:#39B54A"/>
		<stop  offset="1" style="stop-color:#8CC63F"/>
	</linearGradient>
	<path fill="url(#SVGID_4_)" d="M455.575,80.794c0,0,52.958,63.116,10.347,317.302h-50.376
		C415.546,398.096,467.2,255.777,455.575,80.794z"/>
	
		<linearGradient id="SVGID_5_" gradientUnits="userSpaceOnUse" x1="450.1035" y1="-49.5952" x2="450.1035" y2="207.6538" gradientTransform="matrix(1 0 0 -1 -37 348.5)">
		<stop  offset="0" style="stop-color:#006837"/>
		<stop  offset="0.355" style="stop-color:#39B54A"/>
		<stop  offset="1" style="stop-color:#8CC63F"/>
	</linearGradient>
	<path fill="url(#SVGID_5_)" d="M449.029,398.096c0,0,16.893-141.016-22.507-257.25c0,0-18.072,191.368-52.947,257.25H449.029z"/>
	
		<linearGradient id="SVGID_6_" gradientUnits="userSpaceOnUse" x1="404.5615" y1="6.4292" x2="404.5615" y2="211.6768" gradientTransform="matrix(1 0 0 -1 -37 348.5)">
		<stop  offset="0" style="stop-color:#006837"/>
		<stop  offset="0.355" style="stop-color:#39B54A"/>
		<stop  offset="1" style="stop-color:#8CC63F"/>
	</linearGradient>
	<path fill="url(#SVGID_6_)" d="M358.602,136.823c8.083,33.502,11.783,67.824,15.378,102.049
		c2.061,34.346,3.749,68.813,1.406,103.199C373.716,273.313,368.313,204.894,358.602,136.823z"/>
	
		<linearGradient id="SVGID_7_" gradientUnits="userSpaceOnUse" x1="465.7305" y1="-20.9116" x2="465.7305" y2="150.9121" gradientTransform="matrix(1 0 0 -1 -37 348.5)">
		<stop  offset="0" style="stop-color:#006837"/>
		<stop  offset="0.355" style="stop-color:#39B54A"/>
		<stop  offset="1" style="stop-color:#8CC63F"/>
	</linearGradient>
	<path fill="url(#SVGID_7_)" d="M431.063,197.588c3.513,28.588,2.907,57.449,2.447,86.162c-1.986,28.712-4.108,57.45-9.917,85.662
		C428.938,312.211,431.588,255.037,431.063,197.588z"/>
	
		<linearGradient id="SVGID_8_" gradientUnits="userSpaceOnUse" x1="519.5068" y1="21.7622" x2="574.9727" y2="21.7622" gradientTransform="matrix(1 0 0 -1 -37 348.5)">
		<stop  offset="0" style="stop-color:#006837"/>
		<stop  offset="0.355" style="stop-color:#39B54A"/>
		<stop  offset="1" style="stop-color:#8CC63F"/>
	</linearGradient>
	<path fill="url(#SVGID_8_)" d="M537.973,294.778c-22.495,17.684-43.141,37.845-55.466,63.919
		c3.203-14.239,11.785-26.63,20.981-37.755C513.818,310.757,524.798,300.905,537.973,294.778z"/>
	
		<linearGradient id="SVGID_9_" gradientUnits="userSpaceOnUse" x1="341.6597" y1="-3.1079" x2="341.6597" y2="177.0537" gradientTransform="matrix(1 0 0 -1 -37 348.5)">
		<stop  offset="0" style="stop-color:#006837"/>
		<stop  offset="0.355" style="stop-color:#39B54A"/>
		<stop  offset="1" style="stop-color:#8CC63F"/>
	</linearGradient>
	<path fill="url(#SVGID_9_)" d="M284.195,171.446c13.408,28,22.393,57.888,30.35,87.866c6.444,30.293,11.816,61.226,10.332,92.296
		C321.034,289.793,304.589,229.795,284.195,171.446z"/>
</g>
</svg>
