<svg xmlns="http://www.w3.org/2000/svg" viewBox="0 0 768 430"><style>.a{fill:#388BAF;}.b{fill:#529CC6;}.c{fill:#96CFE2;}.d{fill:#1C4658;}.e{fill:#151A1C;}.f{fill:#242A2D;}.g{fill:#040607;}.h{fill:#BAC7E2;}.i{fill:#E4E9F7;}.j{fill:#FFF;}.k{fill:#5D6471;}.l{fill:#3D4244;}.m{fill:#FAFBFD;}.n{fill:#E8E6E6;}.o{fill:#747373;}.p{fill:#F1F8FB;}</style><path d="M456 40.5c-28.9 2.7-48.2 21.9-53.7 27 0 0 26.7 11.2 45.3 42.1 4.2-1.3 5.1-9.1 6.7-12.3 1.7-3.2-0.2-6.1-0.2-6.6 0-0.5 3.9 0.2 4.1-0.3 1-1.6 5.5-6.5 7.5-7.6 2-1.1 1.4-3.9 0.4-4.9 4.6 2.2 7.3-0.2 8.3-1.9 10.8-10.8 31-3.9 30.8-5.6C500.6 61.3 483.9 38 456 40.5z" class="a"/><path d="M456 40.5c-28.9 2.7-48.2 21.9-53.7 27 0 0 12.4-6.1 30.5 23.4 5.8 1.1 17 2.4 16.8-3.4 -1.4-3.2-3.5-6.4-3.4-6.6 0.4-0.5 9.3 5.4 9.6 4.9 1.6-1.2 4.7-5.3 6.7-7 1.7-1.5-1.7-8.1-2.8-9.1 4.6 2.2 10.8 0.9 11.7-0.9 10.8-10.8 34 3.3 33.8 1.5C500.6 61.3 483.9 38 456 40.5z" class="b"/><path d="M456 40.5c-28.9 2.7-48.2 21.9-53.7 27 0 0 2.5-1.2 6.8 0.1 10.4-14.5 28.9-22.3 48.2-24 18.9-1.6 31.4 10.2 42.5 20.8 1.1 1.3 2.4 2.2 3.8 3.2C497.5 57.3 481.4 38.2 456 40.5z" class="c"/><path d="M460.2 40.1c-1.4 0-2.8 0.1-4.3 0.2 -27.4 2.5-45.9 19.6-52.8 26.1 -0.4 0.4-0.7 0.7-1 1l-0.3 0.3 0.3 0.1c0.3 0.1 26.9 11.5 45.2 42l0.1 0.2 0.2-0.1c3.1-1 4.4-5.3 5.5-8.7 0.5-1.5 0.9-2.8 1.4-3.8 1.4-2.6 0.4-5.1 0-6.2 -0.1-0.1-0.1-0.3-0.2-0.4 0.1 0 0.2 0 0.5 0 0.3 0 0.7 0 1.1 0 0.4 0 0.9 0 1.2 0 0.8 0 1.1-0.1 1.2-0.3 0.9-1.5 5.4-6.4 7.4-7.5 0.8-0.4 1.3-1.2 1.4-2.1 0.1-0.8-0.1-1.8-0.5-2.5 1 0.4 1.9 0.6 2.8 0.6 2.5 0 4.2-1.5 5-2.9 4.1-4 10.1-6.1 18-6.1 3.3 0 6.4 0.4 8.6 0.6 1.3 0.2 2.4 0.3 3.1 0.3 0.5 0 0.8-0.1 1-0.2 0.1-0.1 0.1-0.2 0.1-0.3l0-0.1C499.7 59 484 40.1 460.2 40.1zM504.3 70.4c-0.7 0-1.7-0.1-3-0.3 -2.3-0.3-5.3-0.6-8.7-0.6 -8.1 0-14.3 2.1-18.4 6.3l0 0.1c-0.7 1.3-2.3 2.7-4.6 2.7 -1.1 0-2.2-0.3-3.4-0.9l-1.3-0.6 1 1c0.6 0.6 1 1.7 0.9 2.8 -0.1 0.5-0.3 1.3-1.2 1.7 -2 1.1-6.6 6.1-7.6 7.7 0 0-0.2 0.1-0.8 0.1 -0.4 0-0.8 0-1.2 0 -0.4 0-0.8 0-1.1 0 -0.4 0-1 0-1 0.4 0 0.1 0.1 0.3 0.2 0.7 0.4 1.1 1.4 3.4 0.1 5.8 -0.5 1-0.9 2.4-1.4 3.8 -1.1 3.4-2.3 7.3-5 8.3 -17.2-28.7-41.8-40.5-44.9-41.9 0.2-0.2 0.5-0.5 0.8-0.7 6.9-6.4 25.3-23.4 52.5-25.9 1.4-0.1 2.8-0.2 4.2-0.2 23.4 0 39 18.6 44.6 29.7C504.8 70.4 504.6 70.4 504.3 70.4z" class="d"/><path d="M478.2 44.2c4.4 6.4 9.3 16.1 8.7 25.9 9.2-1.4 18.4 1.4 18.2 0.2C502 64.1 492.9 50.8 478.2 44.2z" class="e"/><path d="M478.2 44.2c3.7 5.3 7.7 12.9 8.5 20.9 6.5 0.7 12.7 1.6 18 4.5C501.3 63 492.3 50.5 478.2 44.2z" class="f"/><path d="M478.2 44.2c1 1.5 2.1 3.1 3.1 4.9 6.8 4 16.3 12.3 22.3 18.5C499.5 60.7 491 49.9 478.2 44.2z" fill="#3A4144"/><path d="M478.3 44l-0.8-0.4 0.5 0.7c3.5 5 9.3 15.1 8.6 25.8l0 0.3 0.3 0c1.7-0.3 3.6-0.4 5.6-0.4 3.3 0 6.4 0.4 8.6 0.6 1.3 0.2 2.4 0.3 3.1 0.3l0 0c0.5 0 0.8-0.1 1-0.2 0.1-0.1 0.1-0.2 0.1-0.3l0-0.1C504.4 68.4 495.7 51.8 478.3 44zM504.3 70.4L504.3 70.4c-0.7 0-1.7-0.1-3-0.3 -2.3-0.3-5.3-0.6-8.7-0.6 -1.9 0-3.7 0.1-5.4 0.3 0.5-10.2-4.7-19.8-8.2-25.1 16.5 7.7 24.8 23.3 26 25.5C504.8 70.4 504.6 70.4 504.3 70.4z" class="g"/><path d="M444.2 49.2c-10.9 2.6-28.2 12-30.4 24.9l0.4 0.2c5.6-13.8 19.2-20.8 29.8-23.8 11.6-3.2 22.3-2.6 22.4-2.6C466.4 47.9 459.8 45.5 444.2 49.2z" class="d"/><path d="M303.7 209c0.7 3.1 20-3.1 30.4-3.6 6.5-0.3 20.7 1.1 25.3 4.3 -4.4-12-16.1-41.3-16.1-41.3C330 171.3 301.1 199.5 303.7 209z" class="h"/><path d="M303.7 209c0.7 1.7 20.2-7.1 30.5-8.1 11.7-1.2 19.8 0.7 24.3 3.9 -4.4-12-15.3-36.4-15.3-36.4C330 171.3 301.1 199.5 303.7 209z" class="i"/><path d="M344.2 170.5c-0.6-1.3-0.9-2.1-0.9-2.1 -13.3 2.9-42.2 31.1-39.6 40.6 0.1 0.1 0.2 0.2 0.5 0.2C311.1 191.2 328.4 176.6 344.2 170.5z" class="j"/><path d="M343.5 168.3l-0.1-0.2 -0.2 0c-10.6 2.3-29.9 19.7-37 31.5 -2.5 4.1-3.4 7.3-2.8 9.5 0.2 0.9 1.6 1 2.6 1 2.7 0 7.5-1 12.5-2 5.5-1.1 11.2-2.3 15.5-2.5 0.6 0 1.2 0 1.8 0 7.2 0 19.2 1.5 23.3 4.3l0.6 0.4 -0.3-0.7C355.2 197.8 343.6 168.6 343.5 168.3zM336 205.2c-0.7 0-1.3 0-1.9 0 -4.3 0.2-10 1.4-15.5 2.5 -5 1-9.7 2-12.4 2 -1.3 0-2.1-0.2-2.2-0.7 -0.6-2 0.4-5.2 2.7-9.1 7-11.6 25.9-28.7 36.5-31.2 1 2.5 11.4 28.7 15.7 40.4C354.3 206.5 342.8 205.2 336 205.2z" class="k"/><path d="M314.3 189.6c-6.9 7.6-11.7 15.3-10.6 19.4 0.4 1.8 7.3 0.4 14.9-1.1C311.9 204 312.5 196 314.3 189.6z" class="e"/><path d="M314.5 189.6c-6.9 7.6-11.5 14.5-11 18 0.4 1.8 4.3 1 12.3-2C312.4 201.6 312.7 196 314.5 189.6z" class="f"/><path d="M314.5 189.6c-6.9 7.6-11.5 14.5-11 18 0.1 0.5-0.4 0.3 0.1 0.5 0.9-4 6.3-10.4 10-15C313.9 191.9 314.2 190.8 314.5 189.6z" class="l"/><path d="M314.6 189.7l0.3-1 -0.7 0.8c-7.8 8.6-11.7 15.8-10.6 19.7 0.2 0.9 1.6 1 2.6 1l0 0c2.7 0 7.5-1 12.5-2l0.6-0.1 -0.5-0.3C313.5 204.6 312 198.6 314.6 189.7zM306.1 209.6c-1.3 0-2.1-0.2-2.2-0.7 -1-3.6 2.7-10.4 9.9-18.5 -2.1 8.3-0.7 14.1 4.2 17.3C313.2 208.8 308.7 209.6 306.1 209.6z"/><path d="M358.2 263.9c0.7 1.3 10-5 14-2.1 0.2-6-1.8-22.6-1.8-22.6C367.4 241.4 356.2 256.1 358.2 263.9z" class="h"/><path d="M358.1 263.2c0.1 0.9 8.4-8.3 14.7-5.4 0.2-6-2.3-18.6-2.3-18.6C367.4 241.4 356.1 255.4 358.1 263.2z" class="i"/><path d="M371 241.9c-0.3-1.6-0.5-2.6-0.5-2.6 -2.9 1.9-12.7 15-12.5 23.5C360.2 255.6 364.7 246.9 371 241.9z" class="j"/><path d="M370.7 239l-0.3 0.2c-3.2 2.2-14.4 16.9-12.4 24.9l0 0c0.1 0.1 0.2 0.3 0.6 0.3 0.7 0 1.8-0.5 3.3-1 2.3-0.9 5.1-2 7.5-2 1.1 0 2 0.2 2.6 0.7l0.4 0.3 0-0.5c0.2-6-1.7-22.4-1.8-22.6L370.7 239zM372.1 261.5c-0.7-0.4-1.6-0.6-2.6-0.6 -2.5 0-5.4 1.1-7.7 2 -1.4 0.5-2.6 1-3.1 1 -0.1 0-0.2 0-0.2 0 -1.8-7.4 8.4-21.3 11.9-24.1C370.6 242.3 372.1 255.8 372.1 261.5z" class="k"/><path d="M317.8 63.4c0 0 32.6-4 41.1-4.7 0 0-14.4-11.1-20.9-11.1C330.5 48 322.1 57.8 317.8 63.4z" class="b"/><path d="M343 49c-1.9-0.8-3.7-1.3-5.1-1.3 -7.5 0.3-15.8 10.1-20.1 15.7 0 0 0.3-0.3 2.8-0.6C325 56.2 335 48.5 343 49z" class="c"/><path d="M337.9 47.5c-5.6 0.2-12.4 5.6-20.3 15.8l-0.4 0.5 0.6-0.1c0.3 0 32.7-4 41.1-4.7l0.6 0 -0.5-0.4C358.4 58.1 344.5 47.5 337.9 47.5zM318.3 63.1c7.6-9.7 14.3-15 19.6-15.2 5.7 0 17.7 8.7 20.3 10.6C349.6 59.3 322.6 62.6 318.3 63.1z" class="d"/><path d="M396.8 55.6c-20.2-10.6-26.3-5.1-36.4-1.1 -10.9-1-47.8 7.9-59.9 12.2 -29.7 9.6-38.7 21.4-38.6 25.2 0.2 17.7 26.2 25.3 29.4 28.7 0.9 1.3 19.1 18.9 23.1 19 0.1 5.3 5.1 8.4 10 8.8 4.7 0.3 17.1-2.4 32.8-14.2 15.7-11.9 19.7-32.4 18.3-36.8 0 0 8.8-0.5 12.7 0.6 4.7 19.4-1.4 42.6-15.7 54.7 -19.3 15.4-36.8 11-39.5 3.2 -3.7 8.2 3 15.7 9.2 17.3 -1.8 5.8 16.5 44.1 20.5 48.5 0.6 6.3 6.7 22.2 7.4 44.9s-12.4 31.9-13.3 31.2c-2.9-5.8-14.7-22.5-25.4-31.8 -10.7-9.3-27.1-8.3-24.7-6.3 2.4 2 8.7 16.7 9 21.1 2.2 21.7 12.5 30.5 17.7 35.6 -12 6.4-19.3 29.5-20 33.2 -0.6-1-3.5-1.4-5.9-0.6 -2.4 0.8-1.1 26.5 1.3 26 38.5-11.7 57.1-63.7 58.3-64.7 17.1-3.4 62-48.3 81.5-92 19.6-43.7 11.9-84.4 1.8-111C440.1 81 417 66.2 396.8 55.6z" class="a"/><path d="M396.8 55.6c-20.2-10.6-26.3-5.1-36.4-1.1 -10.9-1-47.8 7.9-59.9 12.2 -29.7 9.6-38.7 21.4-38.6 25.2 0.2 17.7 26.2 25.3 29.4 28.7 0.9 1.3 19.1 18.9 23.1 19 0.1 5.3 5.1 8.4 10 8.8 4.7 0.3 17.1-2.4 32.8-14.2 15.7-11.9 19.7-32.4 18.3-36.8 0 0 8.8-0.5 12.7 0.6 4.7 19.4-1.4 42.6-15.7 54.7 -19.3 15.4-36.8 11-39.5 3.2 -3.7 8.2 3 15.7 9.2 17.3 -1.8 5.8 16.5 44.1 20.5 48.5 0.6 6.3 6.7 22.2 7.4 44.9s-12.4 31.9-13.3 31.2c-2.9-5.8-14.7-22.5-25.4-31.8 -10.7-9.3-27.4-7.9-24.7-6.3 3.6 2.2 13.6 6.1 14.4 16.7 1.6 21.7 11.7 32.7 16.8 37.9 -14.5 7-23.8 31.7-24.5 35.4 -0.6-1-3.5-1.4-5.9-0.6 -2.4 0.8 0.8 17.2 3.2 16.7 28.4-7.4 46.3-50.6 47.2-59.1 20.1-0.1 66.2-60.4 82.3-94.5 17.8-37.6 12.9-74.5 2.7-101.1C432.7 84.7 417 66.2 396.8 55.6z" class="b"/><path d="M356.6 300.1c0.1-1 0.3-2 0-2.5 -3.1-6-14.7-22.4-25.3-31.5 -10.6-9.2-26.9-8.3-24.7-6.3C326.9 262.2 338.7 276.4 356.6 300.1z" class="c"/><path d="M391.9 53.2c-15.6-6.9-21.7-2.8-30.3 0.8C371.6 52.6 380.1 51 391.9 53.2z" class="c"/><path d="M285.5 75c20-9.5 48.5-15.9 72.9-20.6 -12.7 0-46.6 8.2-58 12.3 -29.7 9.6-38.7 21.4-38.6 25.2 0 2.1 0.4 4.1 1.1 5.9C261.6 89.3 275.6 79.7 285.5 75z" class="c"/><path d="M396.9 55.3c-8.1-4.2-14.4-6.2-19.9-6.2 -5.1 0-9 1.7-13.1 3.5 -1.2 0.5-2.4 1-3.6 1.5 -0.5 0-1.2-0.1-1.8-0.1 -12.9 0-46.9 8.2-58.1 12.3 -29.4 9.5-38.8 21.3-38.8 25.4 0.2 13.6 15.1 21.1 23.9 25.6 2.7 1.3 4.8 2.4 5.5 3.2 0.7 1.1 18.5 18.4 23 19.1 0.3 5.3 5.3 8.4 10.2 8.8 0.3 0 0.5 0 0.8 0 6.1 0 18.2-3.8 32.2-14.3 8.6-6.5 13.3-15.2 15.7-21.3 2.7-6.9 3.4-12.9 2.8-15.4 0.6 0 2.2-0.1 4-0.1 2.6 0 6.1 0.1 8.2 0.7 4.7 19.8-1.9 42.7-15.7 54.4 -8.3 6.6-17.2 10.3-25.3 10.3 -6.9 0-12.4-2.8-13.8-6.9l-0.2-0.6 -0.2 0.6c-1.5 3.2-1.4 6.6 0.1 9.8 1.7 3.6 5.2 6.7 9 7.8 -1.3 6.7 16.4 43.7 20.6 48.4 0.2 1.9 0.9 4.6 1.7 8.1 2.1 8.3 5.2 20.8 5.6 36.8 0.5 16.5-6.3 25.3-9.2 28.3 -1.9 2-3.3 2.7-3.7 2.7 -3.1-6.2-15-22.8-25.4-31.8 -6.6-5.7-15.4-7.7-21.1-7.7 -1.2 0-3.9 0.1-4.2 1 -0.1 0.2-0.1 0.5 0.3 0.8 2.3 2 8.6 16.6 8.9 20.9 2 20.3 11.2 29.3 16.7 34.7 0.3 0.3 0.6 0.6 0.9 0.8 -11.7 6.5-18.7 28.2-19.8 32.8 -0.7-0.5-1.9-0.7-3-0.7 -1 0-2 0.2-2.9 0.5 -2.1 0.7-1.6 15.3-0.5 22 0.7 4.1 1.4 4.5 1.8 4.5h0c0 0 0.1 0 0.1 0 14.3-4.3 27.4-14.6 39.2-30.6 9.4-12.8 15.3-25.8 17.8-31.3 0.6-1.4 1.1-2.5 1.3-2.7 8.6-1.7 23.9-13.6 39.9-30.9 17.7-19.2 32.9-41.5 41.8-61.2 19.7-44 11.9-84.7 1.8-111.2C440.4 81 417.7 66.3 396.9 55.3zM448.2 218.4c-19.9 44.3-64.8 88.6-81.4 91.8l-0.1 0 0 0c-0.2 0.2-0.5 0.8-1.5 2.9 -15.5 34.2-34.6 55-56.7 61.7 0 0 0 0 0 0 0 0-0.7 0-1.3-4.1 -1.3-8.1-1.2-21 0.2-21.4 0.8-0.3 1.8-0.4 2.8-0.4 1.4 0 2.6 0.4 2.9 0.9l0.3 0.6 0.1-0.7c0.6-3.1 7.9-26.7 19.9-33.1l0.3-0.2 -0.2-0.2c-0.3-0.3-0.7-0.7-1.1-1.1 -5.4-5.3-14.5-14.3-16.5-34.4 -0.4-4.5-6.7-19.2-9.1-21.2 0 0-0.2-0.2-0.1-0.2 0.1-0.3 1.2-0.7 3.8-0.7 5.5 0 14.3 2 20.7 7.6 10.4 9 22.3 25.6 25.3 31.7l0.1 0.1c0.1 0.1 0.2 0.1 0.3 0.1 0.6 0 2.2-1 4-2.9 3-3.1 9.8-12 9.4-28.6 -0.5-16-3.6-28.6-5.6-36.9 -0.9-3.5-1.6-6.2-1.7-8.1l0-0.1 -0.1-0.1c-1.9-2.1-7.5-12.7-12.4-23.6 -5.8-13-8.8-22.2-8.1-24.6l0.1-0.2 -0.2-0.1c-3.7-1-7.2-4-8.9-7.6 -1.4-2.9-1.5-5.9-0.3-8.9 1.8 4 7.3 6.7 14.1 6.7 8.1 0 17.2-3.7 25.6-10.4 14-11.8 20.6-35 15.8-55l0-0.1 -0.1 0c-2.1-0.6-5.8-0.8-8.5-0.8 -2.4 0-4.3 0.1-4.3 0.1l-0.3 0 0.1 0.3c1.5 4.4-2.8 24.9-18.2 36.5 -13.9 10.5-25.9 14.2-31.9 14.2 -0.3 0-0.6 0-0.8 0 -4.8-0.4-9.7-3.4-9.8-8.6l0-0.2 -0.2 0c-3.9-0.1-22.2-17.8-22.9-18.9 -0.8-0.8-2.8-1.9-5.6-3.3 -8.8-4.4-23.5-11.9-23.7-25.2 -0.1-3.9 9.6-15.6 38.4-25 11.2-4 45.1-12.3 57.9-12.3 0.7 0 1.3 0 1.8 0.1l0.1 0 0.1 0c1.3-0.5 2.5-1 3.7-1.6 4.1-1.8 7.9-3.5 12.9-3.5 5.4 0 11.7 1.9 19.6 6.1 20.8 10.9 43.3 25.5 53.4 51.8C460 134 467.9 174.6 448.2 218.4z" class="d"/><path d="M313.9 368.5c-4.4-4.2-1.6-13-0.7-18.8 -0.6-1-3.5-1.3-5.9-0.5 -2.4 0.8-1.1 26.5 1.3 26 10.8-3.3 20-9.7 27.7-17.3C328.4 362.5 315 369.5 313.9 368.5z" class="e"/><path d="M312.1 365.5c-1.6-4.6 0.4-11 1.2-15.8 -0.6-1-3.5-1.3-5.9-0.5 -1.3 0.4-1.5 7.9-1.1 14.7C307.7 365.3 309.9 366 312.1 365.5z" class="f"/><path d="M314.3 368.4c-0.1 0-0.2 0-0.2 0 -3.6-3.4-2.3-10.1-1.2-15.4 0.2-1.1 0.4-2.2 0.6-3.2l0-0.1 0-0.1c-0.4-0.7-1.7-1.1-3.3-1.1 -1 0-2 0.2-2.9 0.5 -2.1 0.7-1.6 15.2-0.5 22 0.7 4.1 1.4 4.5 1.8 4.5 0 0 0.1 0 0.1 0 9.8-3 19.1-8.8 27.8-17.3l1.3-1.3 -1.6 0.9C328.7 362 316.6 368.4 314.3 368.4zM308.6 374.9c0 0 0 0 0 0 0 0-0.7 0-1.3-4.1 -1.3-8.1-1.2-20.9 0.2-21.4 0.8-0.3 1.8-0.4 2.8-0.4 1.3 0 2.4 0.3 2.8 0.8 -0.2 1-0.4 2-0.6 3 -1.1 5.5-2.4 12.3 1.3 15.9 0.1 0.1 0.3 0.2 0.5 0.2 2.4 0 13.9-6.1 20.5-9.8C326.5 366.8 317.7 372.2 308.6 374.9z"/><path d="M306.6 259.8c2.4 2 8.7 16.7 9 21.1 0.2 2 0.5 3.9 0.8 5.6 0-7.3-1.5-20-0.1-21.4 1.2-1.3 9-0.1 15.7 1.6 -0.2-0.2-0.5-0.4-0.7-0.6C320.6 256.8 304.2 257.7 306.6 259.8z" class="e"/><path d="M331.9 266.7c-0.2-0.2-0.5-0.4-0.7-0.6 -10.7-9.3-27.1-8.3-24.7-6.3 0.4 0.4 1 1.2 1.6 2.2 3 0.5 5.6 1.8 7.7 4 0.1-0.4 0.2-0.8 0.4-0.9C317.4 263.7 325.3 264.9 331.9 266.7z" class="f"/><path d="M331.3 266.1c-10.4-9-26.3-8.3-24.8-6.4 5.3-0.3 11.8 2.1 16 5.1 3 0.3 6 1.1 9.5 2C331.7 266.5 331.5 266.2 331.3 266.1z" class="l"/><path d="M331.4 265.9c-6.6-5.7-15.4-7.7-21.1-7.7 -1.2 0-3.9 0.1-4.2 1 -0.1 0.2-0.1 0.5 0.3 0.8 2.3 2 8.6 16.6 8.9 20.9 0.2 1.9 0.5 3.8 0.8 5.6l0.5 0c0-2.5-0.2-5.7-0.4-8.7 -0.3-5.5-0.7-11.6 0.2-12.5 0.2-0.2 0.7-0.5 2.4-0.5 2.8 0 7.8 0.8 13 2.2l1 0.2 -0.8-0.7C331.8 266.2 331.6 266 331.4 265.9zM318.8 264.3c-1.5 0-2.4 0.2-2.8 0.6 -0.9 1-0.7 5.5-0.3 12.9 0.1 1.6 0.2 3.3 0.3 4.9 -0.1-0.6-0.1-1.2-0.2-1.8 -0.4-4.5-6.7-19.2-9.1-21.2 0 0-0.2-0.2-0.1-0.2 0.1-0.3 1.2-0.7 3.8-0.7 5.5 0 14.2 2 20.7 7.5C327.1 265.2 322 264.3 318.8 264.3z"/><path d="M404.5 104.5c1.1-13.3-5.6-24.9-16.7-25 -17.5 0.8-15.2 14-22.3 17.8 -27.1 11.4-63.3-8.6-80.5-10.4 -10.2-1.1-18.4 1.7-23.1 4.3 0 0.2-0.1 0.4-0.1 0.6 0.2 17.7 26.2 25.3 29.4 28.7 0.9 1.3 19.1 18.9 23.1 19 0.1 5.3 5.1 8.4 10 8.8 4.7 0.3 17.1-2.4 32.8-14.2 15.7-11.9 19.7-32.4 18.3-36.8 0 0 8.8-0.5 12.7 0.6 4.7 19.4-1.4 42.6-15.7 54.7 -19.3 15.4-36.8 11-39.5 3.2 -3.7 8.2 3 15.7 9.2 17.3 -1.8 5.8 16.5 44.1 20.5 48.5 0.6 6.3 6.7 22.2 7.4 44.9 0.4 15.3-5.3 24.5-9.4 28.6 10.1 5.3 22.1-21.4 32.1-34.6 12.3-16.1 24.6-56.1 27.7-75 3-18.1-13.6-54-15.8-60.1C402.5 119.5 403.3 117.8 404.5 104.5z" class="h"/><path d="M404.6 125.6c-2.1-6.1-1.2-7.7-0.1-21 1.1-13.3-5.6-24.9-16.7-25 -17.5 0.8-15.2 14-22.3 17.8 -27.1 11.4-63.3-8.6-80.5-10.4 -10.2-1.1-18.4 1.7-23.1 4.3 0 0.2-0.1 0.4-0.1 0.6 0.2 17.7 26.2 25.3 29.4 28.7 0.9 1.3 19.1 18.9 23.1 19 0 0.1 3.8-0.3 5.9-0.7 8.5-1.6 16.3-4.4 23.4-9.8 -7 7.7-17 11.8-29 12.7 0.7 4.3 5.1 6.3 9.7 6.7 4.7 0.3 17.1-2.4 32.8-14.2 15.7-11.9 19.7-32.4 18.3-36.8 0 0 8.8-0.5 12.7 0.6 4.7 19.4-1.4 42.6-15.7 54.7 -19.3 15.4-36.8 11-39.5 3.2 -0.7 1.5-0.7 0.8-0.7 2.2 1.8 19 21.1 13.8 30.2 11.3 28.4-7.9 29.6-42.5 30.7-53.3 2.2 22.5-1.5 42.1-21.3 56.2 -8.2 5.9-19.6 7.2-29.5 4.7 2.5 11.4 16.8 41 20.3 44.8 0.6 6.3 6.7 22.2 7.4 44.9 0.4 15.3-5.3 24.5-9.4 28.6 10.1 5.3 22.1-21.4 32.1-34.6 12.3-16.1 24.6-56.1 27.7-75C423.4 167.5 406.7 131.7 404.6 125.6z" class="i"/><path d="M404.8 125.5c-1.7-4.8-1.5-6.7-0.8-14 0.2-1.9 0.4-4.2 0.6-7 0.7-7.9-1.5-15.4-5.7-20.1 -3-3.3-6.9-5.1-11.2-5.2 -11.4 0.5-14.5 6.3-17.2 11.3 -1.4 2.7-2.8 5.2-5.2 6.5 -5.5 2.3-11.8 3.5-18.8 3.5 -14.3 0-29.5-4.8-41.8-8.7 -7.8-2.5-14.6-4.6-19.8-5.2 -1.5-0.2-3-0.2-4.5-0.2 -9.1 0-15.6 2.9-18.7 4.6l-0.1 0.1 0 0.1c0 0.2-0.1 0.5-0.1 0.7 0.2 13.6 15.1 21.1 23.9 25.6 2.7 1.3 4.8 2.4 5.5 3.2 0.7 1.1 18.5 18.4 23 19.1 0.3 5.3 5.3 8.4 10.2 8.8 0.3 0 0.5 0 0.8 0 6.1 0 18.2-3.8 32.2-14.3 8.6-6.5 13.3-15.2 15.7-21.3 2.7-6.9 3.4-12.9 2.8-15.4 0.6 0 2.2-0.1 4-0.1 2.6 0 6.1 0.1 8.2 0.7 4.7 19.8-1.9 42.7-15.7 54.4 -8.3 6.6-17.2 10.3-25.3 10.3 -6.9 0-12.4-2.8-13.8-6.9l-0.2-0.6 -0.2 0.6c-1.5 3.2-1.4 6.6 0.1 9.8 1.7 3.6 5.2 6.7 9 7.8 -1.3 6.7 16.4 43.7 20.6 48.4 0.2 1.9 0.9 4.6 1.7 8.1 2.1 8.3 5.2 20.8 5.6 36.8 0.5 16.6-6.4 25.4-9.4 28.4l-0.2 0.2 0.3 0.2c0.9 0.5 1.8 0.7 2.8 0.7 0 0 0 0 0 0 6.9 0 14.2-11.7 21.3-23 2.9-4.6 5.6-8.9 8.3-12.4 11.9-15.7 24.4-54.9 27.7-75.1 2.5-15.3-8.9-43.3-13.8-55.2C405.9 128.2 405.2 126.4 404.8 125.5zM420.1 185.6c-3.3 20.1-15.8 59.3-27.6 74.9 -2.7 3.5-5.4 7.8-8.3 12.4 -7 11.2-14.3 22.7-20.9 22.7 -0.8 0-1.6-0.2-2.3-0.5 3.1-3.3 9.7-12.1 9.3-28.5 -0.5-16-3.6-28.6-5.6-36.9 -0.9-3.5-1.6-6.2-1.7-8.1l0-0.1 -0.1-0.1c-1.9-2.1-7.5-12.7-12.4-23.6 -5.8-13-8.8-22.2-8.1-24.6l0.1-0.2 -0.2-0.1c-3.7-1-7.2-4-8.9-7.6 -1.4-2.9-1.5-5.9-0.3-8.9 1.8 4 7.3 6.7 14.1 6.7 8.1 0 17.2-3.7 25.6-10.4 14-11.8 20.6-35 15.8-55l0-0.1 -0.1 0c-2.1-0.6-5.8-0.8-8.5-0.8 -2.4 0-4.3 0.1-4.3 0.1l-0.3 0 0.1 0.3c1.5 4.4-2.8 24.9-18.2 36.5 -13.9 10.5-25.9 14.2-31.9 14.2 -0.3 0-0.6 0-0.8 0 -4.8-0.4-9.7-3.4-9.8-8.6l0-0.2 -0.2 0c-3.9-0.1-22.2-17.8-22.9-18.9 -0.8-0.8-2.8-1.9-5.6-3.3 -8.8-4.4-23.5-11.9-23.7-25.2 0-0.1 0-0.3 0-0.5 3.1-1.7 9.5-4.5 18.4-4.5 1.5 0 3 0.1 4.5 0.2 5.1 0.5 11.9 2.7 19.7 5.2 12.3 3.9 27.6 8.7 41.9 8.7 7.1 0 13.4-1.2 19-3.5 2.6-1.4 4-4 5.4-6.7 2.6-5 5.6-10.6 16.8-11.1 4.2 0.1 7.9 1.8 10.8 5 4.2 4.6 6.3 12 5.6 19.8 -0.2 2.8-0.5 5.1-0.6 7 -0.7 7.3-0.9 9.3 0.8 14.2 0.3 1 1 2.7 2 5C411.2 142.5 422.6 170.4 420.1 185.6z" class="k"/><path d="M365.5 59.2c-6-1.6-16.5 22.1-24.7 17.1 -2.5 9.1 4.9 17.1 13.9 17.1 6.2 0 19.2-2.7 19.2-26C374 65.7 371.5 60.8 365.5 59.2z" fill="#3282A5"/><path d="M365.2 60.4c-5.8-1.6-12.5 4.2-14.9 13 -2.4 8.7 0.3 17.1 6.1 18.6 5.8 1.6 12.5-4.2 14.9-13C373.7 70.3 371 61.9 365.2 60.4z"/><path d="M364.6 61c-5.6-1.5-11.6 4.3-14.4 12.7 -2.9 8.8 2 15.7 8.9 15.6 6.2-0.1 9.8-4.7 11.4-10C372.9 71.1 370.2 62.6 364.6 61z" class="j"/><path d="M364.6 60.8c-0.6-0.2-1.3-0.3-1.9-0.3 -5.3 0-10.7 5.5-12.7 13.1 -1.1 4.2-1.2 8.4 0 11.9 1.1 3.5 3.3 5.9 6.1 6.7 0.6 0.2 1.3 0.3 1.9 0.3 5.3 0 10.7-5.5 12.8-13.1 1.1-4.2 1.2-8.4 0-11.9C369.6 63.9 367.4 61.6 364.6 60.8zM370.2 79.2c-2 7.4-7.2 12.8-12.3 12.8 -0.6 0-1.2-0.1-1.8-0.2 -2.6-0.7-4.7-3-5.8-6.3 -1.1-3.4-1.1-7.5 0-11.6 2-7.4 7.2-12.8 12.3-12.8 0.6 0 1.2 0.1 1.8 0.2 2.6 0.7 4.7 3 5.8 6.3C371.4 71 371.4 75.1 370.2 79.2z"/><path d="M361.4 43.2c-12.9 2-26.1 21.8-26.1 21.8s17.4-7.8 25.6-9.4c7.9-1.6 25.4 0.1 25.4 0.1S376.3 40.9 361.4 43.2z" class="b"/><path d="M373.3 44.9c-3.4-1.5-7.4-2.3-11.8-1.7 -12.9 2-26.1 21.8-26.1 21.8S353.3 41.8 373.3 44.9z" class="c"/><path d="M361.4 43c-12.9 2-26.1 22-26.1 22 0.1-0.2 13.5-19.6 26.2-21.6 14.5-2.2 24.7 12.1 24.8 12.3C386.3 55.7 376.2 40.7 361.4 43z" class="d"/><path d="M298.8 109.7c-1.7-0.1-3.2 0.5-3.5 1.6 -0.4 1.4 1.2 3.1 3.6 3.8 0.7 0.2 1.3 0.3 1.9 0.3C302.8 114.1 301.3 110.9 298.8 109.7z" fill="#636D7C"/><path d="M300.4 109.8c-0.7-0.2-1.3-0.3-2-0.3 -1.8 0-3 0.7-3.3 1.8 -0.4 1.6 1.2 3.3 3.7 4 0.7 0.2 1.3 0.3 2 0.3 1.8 0 3-0.7 3.3-1.8C304.6 112.3 303 110.5 300.4 109.8zM303.7 113.7c-0.2 0.9-1.4 1.4-2.9 1.4 -0.6 0-1.2-0.1-1.8-0.3 -2.2-0.6-3.8-2.2-3.4-3.5 0.2-0.9 1.4-1.4 2.9-1.4 0.6 0 1.2 0.1 1.8 0.3C302.5 110.9 304.1 112.4 303.7 113.7z" class="k"/><path d="M304 112.4l-0.4 0.3c1.2 1.5 3.6 2 3.6 2C307.3 114.7 305.1 113.8 304 112.4z" class="k"/><path d="M296.6 105.3c-4.3 0.2-4.8 4.8-4.8 4.8 0 0 0.6-4 4.8-4.3 4.1-0.2 6.3 2.2 6.3 2.2C303 108 301 105.1 296.6 105.3z" class="k"/><path d="M314.3 139.3l0 0.5c18.1-1 29.3-10.8 29.3-10.8C343.4 129.1 332.2 138.2 314.3 139.3z" class="k"/><path d="M341.9 173.5c1.2 0.4 5.5 0.3 5.5 0.3 0 0-4.2-0.3-5.3-0.7L341.9 173.5z" class="k"/><path d="M440.5 153c-12.5-2.9-32.6 4.2-32.6 4.2l3.6 31.5c0 0 1.7 9.8 14 12.9 9.8 2.5 21.5-2.4 28.7-5.9 13-6.7 30.6-7.6 34.3-6.7 3.5 0.9 5.4 0.9 5-2.3C489.7 165.8 453 155.9 440.5 153z" class="h"/><path d="M440.5 153c-12.5-2.9-32.6 4.2-32.6 4.2s-0.7 8.2-0.3 16.5c0.4 6.9 3.7 15 3.7 15s6.1 8.8 18.8 8.3c10-0.4 14.2-6.4 23-9.4 18.8-6.3 32.4-1.9 36.1-1 3.5 0.9 4.7 3.2 4.3 0C489.7 165.8 453 155.9 440.5 153z" class="i"/><path d="M443.5 156.2c2.9 0.3 24.7 6.4 27.5 7.1 -9.9-4.2-25.1-9-30.5-10.2 -7.4-1.7-23.2 1.9-30.2 3.7C424.2 156.3 427.6 154.7 443.5 156.2z" class="m"/><path d="M440.5 152.8c-12.4-2.9-32.6 4.7-32.6 4.7 0.2-0.1 20.2-7 32.5-4.2 14.7 3.4 49.2 13.4 52.7 33.5 0.1 1.1 0 1.8-0.4 2.2 -0.7 0.6-2.2 0.4-4.3-0.1 -3.7-0.9-21.3 0-34.4 6.8 -7.6 3.7-18.9 8.3-28.5 5.8 -12-3.1-14-12.6-14-12.7 0 0 1.6 10 13.9 13.2 1.9 0.5 3.9 0.7 5.9 0.7 8.2 0 16.8-3.6 23-6.6 13.1-6.7 30.5-7.6 34.1-6.7 2.3 0.6 3.9 0.8 4.7 0 0.5-0.5 0.7-1.3 0.6-2.6C490.1 166.3 455.3 156.2 440.5 152.8z" class="k"/><path d="M474.7 165.4c4.4 6.3 8.2 15.4 3.7 23.7 4.8-0.5 8.5-0.4 10-0.1 3.5 0.9 5.4 0.9 5-2.3C491.8 177.7 484 170.7 474.7 165.4z" class="e"/><path d="M493.3 186.7c-1.6-9.1-9.3-16-18.6-21.3 4 5.6 7.4 12.4 5.3 19.4 3.6 0.1 11.1 1.9 13.2 3.8C493.3 188.4 493.6 188.8 493.3 186.7z" class="f"/><path d="M474.8 165.2l-0.9-0.5 0.6 0.9c4.2 6 8.3 15 3.6 23.4l-0.2 0.4 0.5 0c2.3-0.2 4.4-0.4 6.2-0.4 1.6 0 2.9 0.1 3.7 0.3 1.4 0.3 2.3 0.5 3.1 0.5 0.8 0 1.4-0.2 1.8-0.6 0.4-0.5 0.6-1.3 0.4-2.5C492.2 178.7 485.9 171.5 474.8 165.2zM492.8 188.8c-0.3 0.3-0.7 0.5-1.4 0.5 -0.7 0-1.6-0.1-3-0.5 -0.8-0.2-2.1-0.3-3.8-0.3 -1.7 0-3.7 0.1-5.8 0.3 4.2-8.1 0.7-16.6-3.3-22.7 10.3 6 16.3 13 17.6 20.6C493.2 187.8 493.1 188.4 492.8 188.8z" class="g"/><path d="M418.8 114.8c-5 5.6-11.2 7.1-11.3 7.1 0 0 7 0 12.8-5.9 5.4-5.5 4.4-13.9 4.4-13.9C424.8 102.1 423.2 109.9 418.8 114.8z" class="d"/><path d="M423.3 121.5c-5 5.6-11.2 7.1-11.3 7.1 0 0 7 0 12.8-5.9 5.4-5.5 4.4-13.9 4.4-13.9C429.3 108.8 427.7 116.6 423.3 121.5z" class="d"/><path d="M427.5 127.3c-5 5.6-11.2 7.1-11.3 7.1 0 0 7 0 12.8-5.9 5.4-5.5 4.4-13.9 4.4-13.9C433.4 114.6 431.8 122.4 427.5 127.3z" class="d"/><path d="M385.9 246.4c-3 1.8-4.3 21.1-3 21.6 4.1 0.8 6.9 10.7 7.7 9.8C401 267.4 387.1 245.7 385.9 246.4z" class="h"/><path d="M385.9 246.4c-2 1.2-3.2 8.9-3.4 14.8 6.6 0.5 10.7 9.5 10.2 13.8C398.8 263.9 387 245.8 385.9 246.4z" class="i"/><path d="M386 246.2c-0.1 0-0.1 0-0.2 0.1 -2.7 1.7-4 15.8-3.5 20.4 0.1 1.3 0.4 1.5 0.6 1.6 2.6 0.5 4.7 4.8 6 7.4 0.9 1.8 1.2 2.5 1.6 2.5 0.1 0 0.2 0 0.3-0.1 6.4-6.5 3.5-16.9 1.1-22.5C389.8 250.5 386.9 246.2 386 246.2zM390.5 277.6c-0.2-0.2-0.7-1.2-1.2-2.2 -1.4-2.8-3.5-7.1-6.3-7.7 -0.3-0.3-0.5-2.8-0.2-7.6 0.4-5.8 1.6-12.5 3.1-13.5 0.8 0.3 4.6 5.8 6.8 12.6C394.5 264.8 395.5 272.5 390.5 277.6z" class="k"/><path d="M375.4 97.3c1.4 4.3-2.6 24.9-18.3 36.8 -14.7 11.1-26.5 14.2-31.8 14.3 1.5 3.3 5.6 6.5 7.6 7.6 2.6 7.8 20.2 12.2 39.5-3.2 14.3-12.1 20.4-35.3 15.7-54.7C384.2 96.8 375.4 97.3 375.4 97.3z" fill="#400505"/><path d="M388.1 97.9c-3.9-1.1-12.7-0.6-12.7-0.6 1.4 4.3-2.6 24.9-18.3 36.8 -0.4 0.3-0.8 0.6-1.2 0.9 -1.4 10-6 19.7-12.4 27.8 7.4 1 17.8-1.3 28.8-10.1C386.7 140.6 392.8 117.4 388.1 97.9z" fill="#540505"/><path d="M337.5 160.7c0 0.1 0 0.1-0.1 0.1 7 3.8 20.5 3.4 34.9-8.2 11.1-9.4 17.3-25.6 17.3-41.4C371.2 126.8 335.7 145 337.5 160.7z" fill="#7F0A0A"/><path d="M343.1 162.7c7.5 1.2 18.1-1.1 29.2-10 7-5.9 12-14.5 14.8-24C369.8 130.2 349.6 142.9 343.1 162.7z" fill="#9B1515"/><path d="M353.9 149.6c-2.3 0.5-0.7 9.3-0.4 12.6 4.4-1 9.3-3 14.4-6.3C360.9 154.2 354.8 149.4 353.9 149.6z" class="n"/><path d="M355.3 150.2c-1.1 0.6 0.1 8.4 1.5 11.1 3-1.1 7.8-3.2 11.1-5.4C360.9 154.2 355.9 149.9 355.3 150.2z" class="j"/><path d="M356.8 150.7c-1.6-0.9-2.4-1.4-2.8-1.4 0 0-0.1 0-0.1 0 -2 0.5-1.5 5.4-0.8 10.9 0.1 0.8 0.2 1.5 0.2 2l0 0.3 0.3-0.1c4.8-1.1 9.7-3.2 14.5-6.3l0.5-0.3 -0.5-0.1C363.5 154.6 359.4 152.3 356.8 150.7zM353.7 161.9c-0.1-0.5-0.1-1.1-0.2-1.8 -0.4-3.5-1.3-9.9 0.5-10.3 0.3 0 1.3 0.6 2.5 1.3 2.6 1.5 6.5 3.7 10.8 4.9C362.8 158.9 358.2 160.9 353.7 161.9z" class="o"/><path d="M377.6 127.3c-0.5 2.3 2.6 10 4.5 13.4 2.3-4.1 4.1-8.6 5.4-13.2C384.1 127 378 126.2 377.6 127.3z" class="n"/><path d="M379.4 126.9c-0.1 2.8 2.5 9.4 4.5 10.3 1.1-2.6 2.8-6.9 3.6-9.6C384.3 127 381 126.7 379.4 126.9z" class="j"/><path d="M380 126.5c-1.6 0-2.4 0.2-2.6 0.7 -0.6 2.5 2.7 10.3 4.5 13.6l0.2 0.4 0.2-0.4c2.3-4.1 4.1-8.5 5.4-13.3l0.1-0.3 -0.3 0C385.3 126.9 382.2 126.5 380 126.5zM382.1 140.3c-2.1-3.9-4.7-10.9-4.3-12.9 0-0.1 0.3-0.4 2.2-0.4 2.1 0 5 0.4 7.2 0.7C385.9 132.2 384.2 136.4 382.1 140.3z" class="o"/><path d="M325.3 148.3c1.5 3.3 5.6 6.5 7.6 7.6 0 0 3.6 1.4 4 1.3 0.5-0.1-0.4-7.4-1-11.1C331.3 147.7 327.6 148.3 325.3 148.3z" class="n"/><path d="M328.4 148c1.1 3.3 4.5 6.7 8.6 7.8 -0.1-2.3-0.7-7.1-1.1-9.8C333 147.1 330.5 147.7 328.4 148z" class="j"/><path d="M336.1 146l0-0.3 -0.3 0.1c-5.4 2-8.9 2.3-10.5 2.3l-0.4 0 0.2 0.3c1.5 3.3 5.5 6.5 7.7 7.7 0.3 0.1 3.4 1.3 4 1.3 0.1 0 0.1 0 0.1 0 0.2-0.1 0.5-0.2 0.1-4.5C336.8 150.8 336.4 148 336.1 146zM336.7 156.9c-0.5-0.1-2.5-0.8-3.7-1.2 -1.8-0.9-5.7-3.9-7.3-7.1 1.7-0.1 5.1-0.5 10-2.2C336.3 150.5 336.9 156.1 336.7 156.9z" class="o"/><path d="M357.1 134.1c-2.6 1.9-5 3.6-7.4 5.1 2.9 5.5 12.1 8.5 12.7 7.3 1-1.4-0.5-10.9-1.4-15.8C359.8 131.9 358.5 133 357.1 134.1z" class="n"/><path d="M361.2 130.7c-1.2 1.2-2.5 2.3-3.9 3.4 -1.6 1.2-3.1 2.3-4.6 3.3 1.5 3.4 5.5 6.6 10.1 7.3C363.2 142 362 135 361.2 130.7z" class="j"/><path d="M361.2 130.2l-0.3 0.3c-1.3 1.2-2.6 2.4-3.9 3.4 -2.4 1.8-4.9 3.5-7.4 5.1l-0.2 0.1 0.1 0.2c2.5 4.8 9.7 7.7 12.2 7.7h0c0.5 0 0.8-0.1 1-0.4 1.3-1.9-1.2-15.4-1.4-15.9L361.2 130.2zM362.2 146.3c0 0-0.2 0.1-0.6 0.1h0c-2.3 0-9.1-2.8-11.6-7.2 2.4-1.5 4.8-3.2 7.2-5 1.2-0.9 2.5-2 3.6-3.1C362.1 137.8 363 145.2 362.2 146.3z" class="o"/><path d="M370.1 118.4c3.7 1.9 11.8 0.8 11.9 0.1 0-0.9-5.1-7.8-7.6-11.3C373.6 110.7 372.2 114.5 370.1 118.4z" class="n"/><path d="M381.2 116.8c-1.5-2.5-4.9-7-6.7-9.5 -0.7 2.7-1.8 5.7-3.2 8.9C373.4 117.6 377.9 118.1 381.2 116.8z" class="j"/><path d="M374.4 106.8l-0.1 0.5c-1 3.7-2.5 7.6-4.3 11.1l-0.1 0.2 0.2 0.1c1.7 0.9 4.3 1.1 6.1 1.1l0 0c2.2 0 6.1-0.4 6.2-1.2 0-0.8-2.3-4.1-6.7-10.1L374.4 106.8zM376.1 119.3c-1.7 0-4-0.2-5.6-0.9 1.7-3.3 3.2-6.9 4.1-10.5l0.6 0.9c2.3 3.1 6.5 8.9 6.6 9.7C381.5 118.8 379 119.3 376.1 119.3z" class="o"/><path d="M339.1 151.4c-0.3 0.2-0.2 6.2 0.2 10.3 3.8 1.5 7.3 2.1 13.8 0.6C349 158.8 339.8 151.1 339.1 151.4z" class="n"/><path d="M353.1 162.3c-4.1-3.5-11.8-10.3-12.5-10.2 -0.4 2.4 0.6 8.6 1.8 10.4C344.5 162.7 349.9 163.1 353.1 162.3z" class="j"/><path d="M339.1 151.1c-0.1 0-0.1 0-0.2 0 -0.7 0.3-0.1 8.8 0.1 10.6 0 0 4.5 1.2 7.5 1.2l7-0.5 -0.4-0.3C353.1 162 340.5 151.1 339.1 151.1zM346.6 162.9c-2.9 0-5.1-0.7-7-1.4 -0.4-3.9-0.5-9-0.3-9.9 1.2 0.4 8.4 6.3 13.3 10.6C350.3 162.7 348.4 162.9 346.6 162.9z" class="o"/><path d="M367 139.5c-2.4 1.3-0.3 11.3 1.1 16.3 1.4-0.9 2.8-2 4.2-3.1 3.3-2.8 6.1-6.2 8.5-10C375.1 141.8 368.2 139 367 139.5z" class="n"/><path d="M380.9 142.8c-5.8-0.9-11.3-3.3-12.3-3.1 -1.4 1.6 0.2 10 2.6 14.1C374.3 151 378.7 146.3 380.9 142.8z" class="j"/><path d="M372.3 140.4c-2.3-0.7-4-1.2-4.9-1.2 -0.2 0-0.4 0-0.5 0.1 -3.1 1.6 0.8 15.9 1 16.5l0.1 0.3 0.3-0.2c1.4-1 2.9-2 4.2-3.1 3.2-2.7 6.1-6.1 8.6-10l0.2-0.3 -0.4-0.1C378.1 142 374.9 141.1 372.3 140.4zM372.2 152.5c-1.3 1-2.6 2-3.9 2.9 -1.6-5.8-3.1-14.6-1.2-15.6 0 0 0.1 0 0.3 0 0.8 0 2.7 0.5 4.8 1.1 2.5 0.7 5.5 1.6 8.3 2C378.1 146.6 375.3 149.9 372.2 152.5z" class="o"/><path d="M382.7 113.4c-0.3 3.8 2.9 10.6 5.1 13 1.1-4.3 1.7-8.7 1.8-13.1C387.2 112.6 382.7 112.4 382.7 113.4z" class="n"/><path d="M388.7 122.4c0.4-2.6 0.9-6.6 0.9-9.1 -2-0.5-4.6-1.1-5.6-0.6C383.4 114.8 385.8 122.1 388.7 122.4z" class="j"/><path d="M385 112.5c-1.7 0-2.5 0.3-2.5 0.9 -0.3 3.9 2.9 10.8 5.1 13.2l0.3 0.3 0.1-0.4c1.1-4.3 1.7-8.7 1.8-13.1l0-0.2 -0.2 0C388.3 112.7 386.5 112.5 385 112.5zM387.7 125.9c-2.1-2.6-5-8.9-4.7-12.5 0-0.1 0.4-0.4 2-0.4 1.4 0 3.1 0.2 4.4 0.5C389.2 117.6 388.6 121.8 387.7 125.9z" class="o"/><path d="M335.7 146.1c3.7 2.5 13.1 8.4 14.2 7.5 0.5-0.4-0.8-9-1.7-13.5C343.5 142.9 339.3 144.8 335.7 146.1z" class="n"/><path d="M349.9 151.4c-0.1-2.6-1-7.8-1.8-11.3 -2.7 1.6-6.1 3.2-8.5 4.3C341.4 147.9 346.5 151.1 349.9 151.4z" class="j"/><path d="M348.3 139.7l-0.3 0.2c-4.3 2.5-8.4 4.5-12.4 6l-0.4 0.2 0.4 0.3c3.1 2.2 11.8 7.6 14 7.6l0 0c0.2 0 0.4 0 0.5-0.1 0.8-0.6-1.4-12.4-1.7-13.7L348.3 139.7zM349.7 153.4c0 0-0.1 0-0.2 0l0 0c-1.8 0-9.4-4.6-13.4-7.3 3.8-1.4 7.8-3.3 11.8-5.7C348.9 145.1 350 152.6 349.7 153.4z" class="o"/><path d="M360.9 130.9c3.5 2.9 13.4 3.3 13.6 2.3 0.5-2.8-2.4-10.2-4.5-14.5C367.8 122.9 364.8 127.1 360.9 130.9z" class="n"/><path d="M363.1 128.5c2.6 2 7 3.7 11.3 2.6 -0.5-3.5-2.7-9-4.4-12.5C368.2 122 365.9 125.4 363.1 128.5z" class="j"/><path d="M370 118.1l-0.2 0.4c-2.5 4.6-5.5 8.7-9.1 12.1l-0.2 0.2 0.2 0.2c2.5 2.1 8.1 2.8 11.2 2.8 0 0 0 0 0 0 2.6 0 2.7-0.5 2.8-0.6 0.7-3.6-3.9-13.6-4.5-14.7L370 118.1zM374.3 133.1c-0.1 0.1-0.6 0.3-2.3 0.3h0c-3 0-8.2-0.7-10.7-2.6 3.4-3.3 6.4-7.2 8.8-11.6C371.9 123.3 374.8 130.4 374.3 133.1z" class="o"/><path d="M375.4 97.3c0.6 1.7 0.3 5.7-1.1 10.7 3.6 0 10.5-2 10.5-2.5 0-0.4-4.6-5.1-7.6-8.3C376.1 97.3 375.4 97.3 375.4 97.3z" class="n"/><path d="M383.5 103.9c-1.6-1.7-4.3-4.6-6.4-6.7 -1.1 0-1.7 0.1-1.7 0.1 0.5 1.4 0.4 4.4-0.5 8.3C377.7 106.1 382.1 105.5 383.5 103.9z" class="j"/><path d="M377.2 97l-0.1 0c-1.1 0-1.7 0.1-1.7 0.1l-0.3 0 0.1 0.3c0.5 1.5 0.4 5.3-1.1 10.5l-0.1 0.3 0.3 0c2.9 0 10.7-1.8 10.7-2.7 0-0.3-1.1-1.6-7.6-8.4L377.2 97zM374.6 107.7c1.1-4.2 1.6-8.2 1.1-10.2 0.3 0 0.7 0 1.3 0l0 0c2.4 2.5 6.9 7.1 7.5 8C383.7 105.9 378.1 107.6 374.6 107.7z" class="o"/><path d="M388.3 97.7l-0.1 0c-2.1-0.6-5.8-0.8-8.5-0.8 -2.4 0-4.3 0.1-4.3 0.1l-0.3 0 0.1 0.3c1.5 4.4-2.8 24.9-18.2 36.5 -13.7 10.4-25.7 14.1-31.7 14.2l-0.4 0 0.2 0.3c1.5 3.3 5.4 6.5 7.6 7.6 1.5 4.3 7.2 7.2 14.3 7.2 0 0 0 0 0 0 8.1 0 17.2-3.7 25.6-10.4 14-11.8 20.6-35 15.8-55L388.3 97.7zM372.2 152.5c-8.3 6.6-17.2 10.3-25.3 10.3h0c-6.9 0-12.4-2.8-13.8-6.9l0-0.1 -0.1 0c-1.8-0.9-5.7-3.9-7.3-7.1 6.2-0.2 18-4.1 31.6-14.3 8.6-6.5 13.3-15.2 15.7-21.3 2.7-6.9 3.4-12.9 2.8-15.4 0.6 0 2.2-0.1 4-0.1 2.6 0 6.1 0.1 8.2 0.7C392.6 118 386 140.8 372.2 152.5z" class="k"/><path d="M360.7 69.9c-4.2 0-7.7 4.2-7.9 9.4 -0.2 5.2 3 9.3 7.2 9.3 4.2 0 7.7-4.2 7.9-9.4C368.1 74 364.9 69.8 360.7 69.9z" fill="#128DDD"/><path d="M363.1 84.1c3-2.2 4.5-6.2 3.7-10.2 -1.3-2.5-3.5-4.1-6.1-4.1 -4.2 0-7.7 4.2-7.9 9.4 -0.1 2.4 0.5 4.6 1.7 6.2C357.3 86.4 360.6 86.1 363.1 84.1z" fill="#30BCEC"/><path d="M361.7 69.7c-0.3 0-0.6-0.1-1-0.1 -2.1 0-4 1-5.6 2.8 -1.5 1.8-2.4 4.2-2.5 6.7 -0.2 4.8 2.6 8.9 6.4 9.5 0.3 0 0.6 0.1 1 0.1 2.1 0 4-1 5.6-2.8 1.5-1.8 2.4-4.2 2.5-6.7C368.2 74.4 365.5 70.3 361.7 69.7zM367.7 79.2c-0.1 2.4-1 4.8-2.4 6.5 -1.5 1.7-3.3 2.7-5.3 2.7 -0.3 0-0.6 0-0.9-0.1 -3.7-0.6-6.3-4.4-6.1-9.1 0.1-2.4 1-4.7 2.4-6.5 1.5-1.7 3.3-2.7 5.3-2.7 0.3 0 0.6 0 0.9 0.1C365.2 70.7 367.9 74.6 367.7 79.2z" fill="#124CDD"/><path d="M360.7 74c-2.8 0-5.2 2.9-5.3 6.5 -0.1 3.6 2 6.5 4.8 6.5 2.8 0 5.2-2.9 5.3-6.5C365.7 76.9 363.5 74 360.7 74z" fill="#000100"/><path d="M355 75.3c-0.5 1.6-0.2 3.2 0.6 3.6 0.8 0.4 1.9-0.6 2.4-2.2 0.5-1.6 0.2-3.2-0.6-3.6C356.6 72.7 355.5 73.7 355 75.3z" class="p"/><path d="M363.8 72.5c-0.7-0.1-1.3 0.5-1.5 1.2 -0.1 0.8 0.3 1.5 1 1.6 0.7 0.1 1.3-0.5 1.5-1.2C364.9 73.4 364.5 72.6 363.8 72.5z" class="p"/><path d="M375.4 97c-2.2 0.2-2.6 2.3-2.6 2.3 0-0.1 0.8-1.6 2.7-1.8 2.2-0.2 10.8 0 12.6 0.7 2.4 0.6 4.9 2.2 4.9 2.2 0 0-2.3-2.1-4.8-2.7C386.3 96.9 377.3 96.8 375.4 97z" class="k"/><path d="M354.8 93.4c0 0 4.6-2.5 6.9-2.9 2.3-0.4 4.2 0 4.2 0s-3 1.7-5.2 2.5C358.2 93.9 354.8 93.4 354.8 93.4z" class="b"/><path d="M354.8 93.4c0 0 4.5-2.7 6.9-3.1 2.3-0.4 4.3 0.2 4.3 0.2 0 0-1.9-0.1-4.2 0.2C359.5 91.1 354.8 93.3 354.8 93.4z"/><path d="M340.9 76.3c0 0 2.7 2.4 7.1-0.9 2.4-1.6 7.4-13.6 14.8-14.1 3.9 0 8.2 4.9 9.2 5.4 1.6 0.7 2.7 0 2.7 0s-3.7-9.6-14.1-9.1C353.8 57.9 340.9 76.3 340.9 76.3z" class="b"/><path d="M343.6 77.4c-1.8 0-2.5-1.3-2.5-1.3 0.1 0.1 2.7 2.3 6.8-0.9 0.7-0.5 1.7-1.9 2.8-3.6 2.7-4 6.8-10.2 12.1-10.5 0 0 0 0 0 0 3 0 6.1 2.7 8 4.3 0.6 0.5 1.1 1 1.3 1.1 1.5 0.7 2.4 0.1 2.4 0.1 0 0-0.9 1.2-2.6 0.4 -0.3-0.1-0.8-0.6-1.5-1.1 -1.8-1.6-4.9-4.2-7.7-4.2 0 0 0 0 0 0 -5 0.3-9.1 6.3-11.7 10.3 -1.2 1.8-2.2 3.2-2.9 3.7C346.3 77 344.8 77.4 343.6 77.4z"/><path d="M333.4 159.3c0 0 4.6 10.2 19.1 6.4 14.5-3.8 21.7-8.7 31.5-24.9 -9 18.3-19.2 26.1-34 27.9C338.7 170 334.6 163.6 333.4 159.3z" class="m"/></svg>