<?xml version="1.0" encoding="utf-8"?>
<!-- Generator: Adobe Illustrator 16.0.0, SVG Export Plug-In . SVG Version: 6.00 Build 0)  -->
<!DOCTYPE svg PUBLIC "-//W3C//DTD SVG 1.1//EN" "http://www.w3.org/Graphics/SVG/1.1/DTD/svg11.dtd">
<svg version="1.1" id="Layer_1" xmlns="http://www.w3.org/2000/svg" xmlns:xlink="http://www.w3.org/1999/xlink" x="0px" y="0px"
	 width="768px" height="430px" viewBox="0 0 768 430" enable-background="new 0 0 768 430" xml:space="preserve">
<g>
	<path fill="#AA7820" d="M195.668,323.445v2.182c0,26.709,21.145,48.373,47.221,48.373h294.243
		c26.081,0,47.224-21.664,47.224-48.373v-2.182H195.668z"/>
	<g>
		<path fill="#E3A02A" d="M195.668,314.766v2.173c0,26.719,21.145,48.383,47.221,48.383h294.243
			c26.081,0,47.224-21.664,47.224-48.383v-2.173H195.668z"/>
		<path fill="#C0392B" d="M602.523,204.221c0,11.994-10.089,21.709-22.522,21.709H192.762c-12.443,0-22.525-9.716-22.525-21.709l0,0
			c0-11.988,10.082-21.707,22.525-21.707h387.239C592.435,182.515,602.523,192.233,602.523,204.221L602.523,204.221z"/>
		<path fill="#1C7D44" d="M605.199,331.489c-7.248,0-11.054-3.951-16.665-10.402c-0.652-0.743-1.324-1.52-2.026-2.294
			c0,0-15.374-28.427-24.827-31.027c-113.524-31.166-225.673-33.952-351.458,0c-8.389,2.27-16.951,31.027-16.951,31.027l0,0
			c-0.702,0.774-1.368,1.551-2.024,2.294c-5.614,6.451-9.422,10.402-16.677,10.402c-3.197,0-5.794,1.938-5.794,4.331
			c0,2.39,2.597,4.333,5.794,4.333c13.911,0,20.832-7.955,26.4-14.344c5.608-6.449,9.421-10.406,16.668-10.406
			c7.258,0,11.069,3.957,16.68,10.406c5.562,6.389,12.48,14.344,26.399,14.344c13.904,0,20.832-7.955,26.391-14.344
			c5.615-6.449,9.419-10.406,16.676-10.406c7.25,0,11.053,3.957,16.666,10.406c5.565,6.389,12.48,14.344,26.393,14.344
			c13.913,0,20.835-7.955,26.392-14.344c5.614-6.449,9.425-10.406,16.676-10.406c7.25,0,11.056,3.957,16.671,10.406
			c5.561,6.389,12.479,14.344,26.389,14.344c13.915,0,20.834-7.955,26.396-14.344c5.608-6.449,9.414-10.406,16.662-10.406
			c7.254,0,11.061,3.957,16.67,10.406c5.562,6.389,12.48,14.344,26.39,14.344c13.911,0,20.825-7.955,26.388-14.344
			c5.609-6.449,9.416-10.406,16.669-10.406c7.245,0,11.056,3.957,16.67,10.406c5.556,6.389,12.477,14.344,26.384,14.344
			c3.205,0,5.801-1.943,5.801-4.333C611,333.428,608.404,331.489,605.199,331.489z"/>
		<path fill="#C0392B" d="M604.336,278.137c0,11.987-10.082,21.709-22.522,21.709H194.579c-12.437,0-22.524-9.722-22.524-21.709l0,0
			c0-11.985,10.087-21.704,22.524-21.704h387.234C594.254,256.433,604.336,266.151,604.336,278.137L604.336,278.137z"/>
		<path fill="#F4D03F" d="M601.309,236.818H167.82v8.489c0,0,180.417,1.059,253.068,0c23.065-0.334,87.185,26.518,87.185,26.518
			s29.028-23.026,41.171-26.518c12.368-3.557,52.064,0,52.064,0V236.818z"/>
		<g>
			<path fill="#E3A02A" d="M578.674,171.285C558.335,81.767,478.146,43.831,384.565,43.831
				c-93.582,0-170.136,37.936-190.482,127.454H578.674z"/>
			<path fill="#EEC67F" d="M318.888,89.093c0,0-4.479,10.842-10.616,13.762c-6.147,2.915-12.583,2.074-14.376-1.888
				c-1.792-3.962,1.731-9.537,7.874-12.456C307.909,85.59,318.888,89.093,318.888,89.093z"/>
			<path fill="#EEC67F" d="M365.342,74.384c0,0,2.132,11.567-1.413,17.479c-3.538,5.915-9.353,8.855-12.987,6.574
				c-3.637-2.288-3.712-8.934-0.171-14.845C354.31,77.681,365.342,74.384,365.342,74.384z"/>
			<path fill="#EEC67F" d="M333.436,112.054c0,0,6.014,10.032,4.764,16.854c-1.25,6.812-5.652,11.691-9.847,10.883
				c-4.186-0.802-6.574-6.986-5.327-13.805C324.273,119.173,333.436,112.054,333.436,112.054z"/>
			<path fill="#EEC67F" d="M282.589,113.969c0,0,1.508,11.676-2.343,17.38c-3.854,5.71-9.812,8.321-13.323,5.837
				c-3.506-2.479-3.231-9.122,0.62-14.823C271.394,116.65,282.589,113.969,282.589,113.969z"/>
			<path fill="#EEC67F" d="M445.449,74.347c0,0,4.477,10.84,10.621,13.762c6.141,2.922,12.566,2.074,14.365-1.888
				c1.791-3.962-1.733-9.543-7.871-12.458C456.42,70.843,445.449,74.347,445.449,74.347z"/>
			<path fill="#EEC67F" d="M393.892,56.395c0,0-2.126,11.57,1.413,17.485c3.544,5.916,9.355,8.853,12.987,6.571
				c3.64-2.287,3.71-8.929,0.173-14.841C404.927,59.697,393.892,56.395,393.892,56.395z"/>
			<path fill="#EEC67F" d="M434.709,98.144c0,0-6.016,10.032-4.767,16.848c1.25,6.822,5.652,11.697,9.847,10.889
				c4.185-0.802,6.574-6.986,5.33-13.802C443.868,105.26,434.709,98.144,434.709,98.144z"/>
			<path fill="#EEC67F" d="M471.196,113.969c0,0-1.51,11.676,2.341,17.38c3.854,5.71,9.812,8.321,13.322,5.837
				c3.506-2.479,3.229-9.122-0.624-14.823C482.39,116.65,471.196,113.969,471.196,113.969z"/>
			<path fill="#EEC67F" d="M387.11,100.06c0,0-6.015,10.038-4.768,16.854c1.247,6.815,5.66,11.69,9.85,10.886
				c4.191-0.805,6.575-6.986,5.327-13.805C396.27,107.179,387.11,100.06,387.11,100.06z"/>
		</g>
	</g>
</g>
</svg>
