 <svg version="1.1" xmlns="http://www.w3.org/2000/svg" xmlns:xlink="http://www.w3.org/1999/xlink" viewBox="0 0 768 430" style="enable-background:new 0 0 768 430;" xml:space="preserve"><g id="hamburger"> <g id="hamburger_1_">  <g id="layer1_10_" transform="translate(-380.43 -548.89)">   <g id="g7232" transform="matrix(.83842 0 0 .83842 89.87 107.79)">    <path id="rect3768" style="fill:#DDE4D0;" d="M674.002,774.614h315.375c10.564,0,19.128,8.563,19.128,19.13v14.373   c0,10.562-8.562,19.128-19.128,19.128H674.002c-10.563,0-19.127-8.566-19.127-19.128v-14.373   C654.876,783.176,663.439,774.614,674.002,774.614z"/>    <path id="rect3761" style="fill:#DDE4D0;" d="M656.016,832.635c0.414,23.738,15.129,42.691,33.371,42.691h285.851   c18.244,0,32.985-18.953,33.395-42.691H656.016z"/>    <path id="path2985_2_" style="fill:#DDE4D0;" d="M832.138,623.912c-98.225,0-177.859,57.044-177.859,128.221   c0,6.555,0.79,12.959,2.296,18.014h351.752c1.096-5.056,1.663-11.459,1.663-18.014c0-71.18-79.627-128.221-177.856-128.221   H832.138z"/>   </g>  </g>  <g>   <g>    <path style="fill:#349D8B;" d="M306.043,149.572c1.174,0,1.174-1.819,0-1.819C304.87,147.753,304.87,149.572,306.043,149.572   L306.043,149.572z"/>   </g>  </g>  <g>   <g>    <path style="fill:#349D8B;" d="M348.264,156.852c1.173,0,1.173-1.819,0-1.819C347.09,155.033,347.09,156.852,348.264,156.852   L348.264,156.852z"/>   </g>  </g>  <g>   <g>    <path style="fill:#349D8B;" d="M509.859,184.452c2.347,0,2.347-3.64,0-3.64S507.513,184.452,509.859,184.452L509.859,184.452z"   />   </g>  </g>  <g>   <g>    <path style="fill:#349D8B;" d="M524.418,147.571c2.348,0,2.348-3.64,0-3.64C522.071,143.931,522.071,147.571,524.418,147.571   L524.418,147.571z"/>   </g>  </g>  <g>   <g>    <path style="fill:#349D8B;" d="M499.669,151.454c2.348,0,2.348-3.64,0-3.64C497.322,147.814,497.322,151.454,499.669,151.454   L499.669,151.454z"/>   </g>  </g>  <g>   <g>    <path style="fill:#349D8B;" d="M468.612,158.247c2.347,0,2.347-3.64,0-3.64S466.266,158.247,468.612,158.247L468.612,158.247z"   />   </g>  </g>  <g>   <g>    <path style="fill:#349D8B;" d="M461.333,173.776c2.348,0,2.348-3.64,0-3.64C458.986,170.136,458.986,173.776,461.333,173.776   L461.333,173.776z"/>   </g>  </g>  <g>   <g>    <path style="fill:#349D8B;" d="M440.465,171.835c2.348,0,2.348-3.64,0-3.64C438.118,168.195,438.118,171.835,440.465,171.835   L440.465,171.835z"/>   </g>  </g>  <g>   <g>    <path style="fill:#349D8B;" d="M411.834,168.923c2.348,0,2.348-3.64,0-3.64C409.487,165.283,409.487,168.923,411.834,168.923   L411.834,168.923z"/>   </g>  </g>  <g>   <g>    <path style="fill:#349D8B;" d="M370.586,168.923c2.346,0,2.346-3.64,0-3.64C368.238,165.283,368.237,168.923,370.586,168.923   L370.586,168.923z"/>   </g>  </g>  <g>   <g>    <path style="fill:#349D8B;" d="M355.057,177.659c2.348,0,2.348-3.64,0-3.64C352.711,174.019,352.711,177.659,355.057,177.659   L355.057,177.659z"/>   </g>  </g>  <g>   <g>    <path style="fill:#349D8B;" d="M435.128,132.041c2.348,0,2.348-3.64,0-3.64C432.781,128.401,432.781,132.041,435.128,132.041   L435.128,132.041z"/>   </g>  </g>  <g>   <g>    <path style="fill:#349D8B;" d="M420.57,150.967c2.348,0,2.348-3.64,0-3.64S418.223,150.967,420.57,150.967L420.57,150.967z"/>   </g>  </g>  <g>   <g>    <path style="fill:#349D8B;" d="M478.316,127.189c2.347,0,2.347-3.64,0-3.64S475.97,127.189,478.316,127.189L478.316,127.189z"/>   </g>  </g>  <g>   <g>    <path style="fill:#349D8B;" d="M424.937,108.748c2.347,0,2.347-3.64,0-3.64S422.59,108.748,424.937,108.748L424.937,108.748z"/>   </g>  </g>  <g>   <g>    <path style="fill:#349D8B;" d="M457.45,142.718c2.347,0,2.347-3.64,0-3.64S455.104,142.718,457.45,142.718L457.45,142.718z"/>   </g>  </g>  <g>   <g>    <path style="fill:#349D8B;" d="M485.596,173.291c2.347,0,2.347-3.64,0-3.64C483.248,169.651,483.249,173.291,485.596,173.291   L485.596,173.291z"/>   </g>  </g>  <g>   <g>    <path style="fill:#349D8B;" d="M410.864,128.645c2.347,0,2.347-3.64,0-3.64S408.518,128.645,410.864,128.645L410.864,128.645z"   />   </g>  </g>  <g>   <g>    <path style="fill:#349D8B;" d="M373.012,106.808c2.348,0,2.348-3.64,0-3.64C370.666,103.168,370.666,106.808,373.012,106.808   L373.012,106.808z"/>   </g>  </g>  <g>   <g>    <path style="fill:#349D8B;" d="M348.264,119.91c2.347,0,2.347-3.64,0-3.64C345.916,116.27,345.916,119.91,348.264,119.91   L348.264,119.91z"/>   </g>  </g>  <g>   <g>    <path style="fill:#349D8B;" d="M396.305,119.91c2.348,0,2.348-3.64,0-3.64C393.959,116.27,393.959,119.91,396.305,119.91   L396.305,119.91z"/>   </g>  </g>  <g>   <g>    <path style="fill:#349D8B;" d="M375.438,120.881c2.347,0,2.347-3.64,0-3.64S373.092,120.881,375.438,120.881L375.438,120.881z"   />   </g>  </g>  <g>   <g>    <path style="fill:#349D8B;" d="M324.484,140.776c2.347,0,2.347-3.64,0-3.64C322.137,137.136,322.137,140.776,324.484,140.776   L324.484,140.776z"/>   </g>  </g>  <g>   <g>    <path style="fill:#349D8B;" d="M309.44,155.821c2.347,0,2.347-3.64,0-3.64S307.092,155.821,309.44,155.821L309.44,155.821z"/>   </g>  </g>  <g>   <g>    <path style="fill:#349D8B;" d="M315.264,186.878c2.347,0,2.347-3.64,0-3.64C312.916,183.238,312.916,186.878,315.264,186.878   L315.264,186.878z"/>   </g>  </g>  <g>   <g>    <path style="fill:#349D8B;" d="M326.426,175.232c2.347,0,2.347-3.64,0-3.64C324.078,171.592,324.078,175.232,326.426,175.232   L326.426,175.232z"/>   </g>  </g>  <g>   <g>    <path style="fill:#349D8B;" d="M344.866,159.702c2.347,0,2.347-3.64,0-3.64S342.52,159.702,344.866,159.702L344.866,159.702z"/>   </g>  </g>  <g>   <g>    <path style="fill:#349D8B;" d="M352.631,138.836c2.347,0,2.347-3.64,0-3.64C350.283,135.196,350.282,138.836,352.631,138.836   L352.631,138.836z"/>   </g>  </g>  <g>   <g>    <path style="fill:#349D8B;" d="M386.115,144.659c2.348,0,2.348-3.64,0-3.64C383.769,141.019,383.769,144.659,386.115,144.659   L386.115,144.659z"/>   </g>  </g>  <g>   <g>    <path style="fill:#349D8B;" d="M365.247,147.571c2.347,0,2.347-3.64,0-3.64S362.9,147.571,365.247,147.571L365.247,147.571z"/>   </g>  </g>  <g>   <g>    <path style="fill:#349D8B;" d="M410.864,185.422c2.347,0,2.347-3.64,0-3.64S408.518,185.422,410.864,185.422L410.864,185.422z"   />   </g>  </g>  <g>   <g>    <path style="fill:#349D8B;" d="M400.672,154.85c2.348,0,2.348-3.64,0-3.64C398.325,151.21,398.325,154.85,400.672,154.85   L400.672,154.85z"/>   </g>  </g>  <g>   <g>    <path style="fill:#349D8B;" d="M385.629,187.363c2.348,0,2.348-3.64,0-3.64C383.282,183.723,383.281,187.363,385.629,187.363   L385.629,187.363z"/>   </g>  </g>  <g>   <g>    <path style="fill:#349D8B;" d="M434.642,194.158c2.347,0,2.347-3.64,0-3.64C432.294,190.518,432.295,194.158,434.642,194.158   L434.642,194.158z"/>   </g>  </g>  <g>   <g>    <path style="fill:#349D8B;" d="M487.538,191.731c2.348,0,2.348-3.64,0-3.64C485.191,188.091,485.191,191.731,487.538,191.731   L487.538,191.731z"/>   </g>  </g>  <g>   <g>    <path style="fill:#349D8B;" d="M545.285,191.247c2.348,0,2.348-3.64,0-3.64C542.938,187.607,542.938,191.247,545.285,191.247   L545.285,191.247z"/>   </g>  </g>  <g>   <g>    <path style="fill:#349D8B;" d="M535.095,174.26c2.347,0,2.347-3.64,0-3.64C532.747,170.62,532.748,174.26,535.095,174.26   L535.095,174.26z"/>   </g>  </g>  <g>   <g>    <path style="fill:#349D8B;" d="M448.715,105.352c2.348,0,2.348-3.64,0-3.64C446.368,101.712,446.368,105.352,448.715,105.352   L448.715,105.352z"/>   </g>  </g>  <g>   <g>    <path style="fill:#349D8B;" d="M454.538,117.483c2.348,0,2.348-3.64,0-3.64C452.191,113.843,452.191,117.483,454.538,117.483   L454.538,117.483z"/>   </g>  </g> </g> <g id="Layer_1_8_"> </g></g><g id="Layer_1"> </g></svg> 