<svg xmlns="http://www.w3.org/2000/svg" viewBox="0 0 768 430"><path d="M444.9 92.7H295.5c-9.8 0-17.7 7.9-17.7 17.7v34.9c0 9.8 7.9 17.7 17.7 17.7h149.4c9.8 0 17.7-7.9 17.7-17.7v-34.9C462.6 100.7 454.7 92.7 444.9 92.7zM451 146.2c0 2.7-1.8 4.9-4.1 4.9H293.4c-2.2 0-4.1-2.2-4.1-4.9v-36.6c0-2.7 1.8-4.9 4.1-4.9h153.6c2.3 0 4.1 2.2 4.1 4.9V146.2z" fill="#757575"/><rect x="295.6" y="134.9" width="149.2" height="248.4" fill="#FFE082"/><rect x="295.6" y="341" width="149.2" height="16.4" fill="#EF9A9A"/></svg>