<svg version="1.1" id="Layer_1" xmlns="http://www.w3.org/2000/svg" xmlns:xlink="http://www.w3.org/1999/xlink" viewBox="0 0 768 430" enable-background="new 0 0 768 430" xml:space="preserve">
<g>
	<path fill="#999C29" d="M462.373,245.527c-24.01-38.629-74.813-75.995-73.855-54.257c0.501,7.572,8.259,18.701,10.506,21.965
		c45.801,66.547,33.896,110.041,66.803,127.939C465.826,341.175,489.59,289.313,462.373,245.527z"/>
	<path fill="#AEA94B" d="M402.362,204.844c-2.046-2.975-8.657-12.478-10.194-19.872c-2.521,0.525-3.929,2.48-3.765,6.237
		c0.504,7.572,8.262,18.701,10.509,21.965c45.801,66.546,33.896,110.041,66.802,127.94c0,0,1.431-3.133,3.188-8.485
		C436.336,314.635,448.036,271.204,402.362,204.844z"/>
	<path fill="#AEA94B" d="M605.375,107.352c-0.98-3.373-5.452-7.691-8.617-7.915c-3.178-0.224-8.555,3.437-9.67,6.569
		c-2.585,7.267-12.071,61.317-17.333,91.651c-0.282,1.622-2.669,1.428-2.674-0.218c-0.072-23.703,2.763-78.96,4.385-107.96
		c0.524-9.336,0.258-19.112-11.718-20.158c-11.443-0.999-12.921,8.989-14.146,17.175c-3.882,25.966-11.302,77.192-14.688,99.967
		c-0.238,1.6-2.579,1.495-2.676-0.12c-1.717-28.7-2.383-89.756-2.778-108.306c-0.197-9.186-3.419-17.204-13.902-17.605
		c-11.068-0.424-13.247,8.393-14.312,17.116c-0.49,4.009-3.454,66.61-5.262,102.34c-0.081,1.617-2.421,1.756-2.674,0.157
		c-2.983-18.773-6.694-61.526-8.362-83.17c-0.781-10.141,0.664-22.875-14.375-22.749c-14.627,0.123-12.628,12.826-12.813,22.189
		c-0.23,11.539-0.636,118.65-0.789,161.151h-0.055l8.502,109.476H583.47c0,0,11.174-126.38,12.44-134.866
		c5.29-35.48,7.199-71.47,10.366-107.255C606.789,119.022,606.965,112.812,605.375,107.352z"/>
	<path fill="#777726" d="M605.302,107.34c-0.98-3.373-5.455-7.691-8.619-7.915c-0.671-0.047-1.448,0.108-2.253,0.366
		c2.514,1.538,4.993,4.402,5.693,6.81c1.59,5.461,1.416,11.671,0.901,17.469c-3.167,35.784-5.076,71.774-10.366,107.255
		c-1.267,8.486-12.441,134.866-12.441,134.866l5.179,0.739c0,0,11.173-126.379,12.438-134.866
		c5.292-35.479,7.2-71.471,10.368-107.255C606.715,119.011,606.89,112.801,605.302,107.34z"/>
	<path fill="#777726" d="M489.327,180.138l-1.991-14.294c-2.518-21.235-5.137-51.768-6.461-68.982
		c-0.774-10.041,0.611-22.604-13.961-22.729c9.032,2.835,8.116,13.341,8.782,21.99c1.588,20.616,5.03,60.337,7.931,80.292
		l-0.004,0.018l0.279,1.828c0.052,0.333,0.104,0.712,0.155,1.032c0,0.006,0.004,0.009,0.006,0.016l0.498,3.271L489.327,180.138z"/>
	<path fill="#777726" d="M527.234,165.156c-1.049-30.853-1.533-72.395-1.85-87.132c-0.195-9.186-3.418-17.203-13.901-17.605
		c-0.27-0.01-0.51,0.009-0.769,0.01c6.995,2.225,9.329,9.116,9.493,16.855c0.361,16.988,0.95,69.605,2.368,100.393l-0.002,0.004
		l0.498,12.204l5.167-3.543L527.234,165.156z"/>
	<path fill="#777726" d="M559.675,69.308c-0.551-0.047-1.059-0.048-1.563-0.047c8.391,2.577,8.566,11.188,8.103,19.466
		c-1.489,26.595-3.993,75.255-4.344,101.427l-0.002,0.008v0.107c-0.03,2.322-0.046,4.485-0.04,6.419c0,0.078,0.03,0.137,0.04,0.208
		v4.547l5.245-3.705l0.396-25.382c0.874-26.655,2.7-61.74,3.884-82.89C571.914,80.13,571.647,70.354,559.675,69.308z"/>
	<path fill="#999C29" d="M585.169,356.339H459.97c-2.869,0-5.197,2.327-5.197,5.196v27.876c0,2.869,2.328,5.195,5.197,5.195h125.199
		c2.869,0,5.195-2.326,5.195-5.195v-27.876C590.364,358.666,588.038,356.339,585.169,356.339z"/>
	<rect x="454.772" y="384.15" fill="#AEA94B" width="135.592" height="4.624"/>
	<g>
		<g>
			<path fill="#999C29" d="M502.29,281.279l8.284-8.286c1.759-1.758,2.031-4.659,0.353-6.492c-1.761-1.923-4.747-1.972-6.571-0.148
				l-8.496,8.496c-0.018,0.018-0.046,0.018-0.062,0l-8.287-8.286c-1.756-1.758-4.657-2.03-6.489-0.352
				c-1.925,1.761-1.975,4.747-0.149,6.573l8.496,8.495c0.017,0.017,0.017,0.044,0,0.062l-8.387,8.387
				c-1.55,1.549-1.917,4.012-0.692,5.83c1.657,2.459,5.024,2.697,7.012,0.71l8.497-8.497c0.017-0.017,0.045-0.017,0.062,0
				l8.286,8.287c1.756,1.756,4.659,2.028,6.491,0.352c1.923-1.761,1.973-4.749,0.147-6.572l-8.494-8.496
				C502.271,281.323,502.271,281.296,502.29,281.279z"/>
			<path fill="#999C29" d="M525.938,281.279l8.286-8.286c1.759-1.758,2.031-4.659,0.353-6.492c-1.761-1.923-4.749-1.972-6.572-0.148
				l-8.496,8.496c-0.017,0.018-0.045,0.018-0.062,0l-8.286-8.286c-1.756-1.758-4.657-2.03-6.492-0.352
				c-1.923,1.761-1.972,4.747-0.147,6.573l8.496,8.495c0.018,0.017,0.018,0.044,0,0.062l-8.388,8.387
				c-1.549,1.549-1.916,4.012-0.693,5.83c1.658,2.459,5.027,2.697,7.015,0.71l8.496-8.497c0.018-0.017,0.046-0.017,0.062,0
				l8.286,8.287c1.757,1.756,4.658,2.028,6.492,0.352c1.923-1.761,1.972-4.749,0.147-6.572l-8.496-8.496
				C525.92,281.323,525.92,281.296,525.938,281.279z"/>
			<path fill="#999C29" d="M549.587,281.279l8.286-8.286c1.756-1.758,2.03-4.659,0.352-6.492c-1.76-1.923-4.749-1.972-6.571-0.148
				l-8.496,8.496c-0.019,0.018-0.046,0.018-0.062,0l-8.286-8.286c-1.757-1.758-4.66-2.03-6.492-0.352
				c-1.923,1.761-1.972,4.747-0.147,6.573l8.494,8.495c0.02,0.017,0.02,0.044,0,0.062l-8.387,8.387
				c-1.548,1.549-1.915,4.012-0.69,5.83c1.656,2.459,5.025,2.697,7.013,0.71l8.496-8.497c0.017-0.017,0.044-0.017,0.062,0
				l8.286,8.287c1.756,1.756,4.658,2.028,6.49,0.352c1.923-1.761,1.974-4.749,0.149-6.572l-8.496-8.496
				C549.569,281.323,549.569,281.296,549.587,281.279z"/>
			<path fill="#999C29" d="M514.114,244.949l8.286-8.287c1.756-1.757,2.028-4.658,0.352-6.49c-1.76-1.924-4.749-1.973-6.573-0.149
				l-8.494,8.496c-0.02,0.018-0.046,0.018-0.062,0l-8.286-8.286c-1.759-1.757-4.66-2.03-6.492-0.352
				c-1.923,1.76-1.974,4.748-0.149,6.572l8.496,8.496c0.018,0.017,0.018,0.045,0,0.062l-8.387,8.387
				c-1.55,1.549-1.917,4.013-0.692,5.829c1.658,2.46,5.027,2.697,7.015,0.711l8.496-8.497c0.017-0.018,0.043-0.018,0.062,0
				l8.286,8.287c1.756,1.756,4.658,2.029,6.49,0.352c1.923-1.761,1.972-4.749,0.149-6.573l-8.496-8.495
				C514.097,244.994,514.097,244.966,514.114,244.949z"/>
			<path fill="#999C29" d="M537.763,244.949l8.286-8.287c1.757-1.757,2.029-4.658,0.353-6.49c-1.763-1.924-4.749-1.973-6.573-0.149
				l-8.496,8.496c-0.018,0.018-0.046,0.018-0.062,0l-8.286-8.286c-1.757-1.757-4.658-2.03-6.49-0.352
				c-1.923,1.76-1.973,4.748-0.149,6.572l8.496,8.496c0.017,0.017,0.017,0.045,0,0.062l-8.387,8.387
				c-1.548,1.549-1.917,4.013-0.692,5.829c1.657,2.46,5.026,2.697,7.014,0.711l8.495-8.497c0.017-0.018,0.045-0.018,0.062,0
				l8.286,8.287c1.758,1.756,4.659,2.029,6.491,0.352c1.923-1.761,1.975-4.749,0.149-6.573l-8.496-8.495
				C537.746,244.994,537.746,244.966,537.763,244.949z"/>
			<path fill="#999C29" d="M514.114,316.808l8.286-8.286c1.756-1.758,2.028-4.659,0.352-6.491c-1.76-1.924-4.749-1.972-6.573-0.149
				l-8.494,8.496c-0.02,0.018-0.046,0.018-0.062,0l-8.286-8.285c-1.759-1.757-4.66-2.03-6.492-0.353
				c-1.923,1.761-1.974,4.748-0.149,6.572l8.496,8.496c0.018,0.017,0.018,0.046,0,0.062l-8.387,8.387
				c-1.55,1.549-1.917,4.013-0.692,5.829c1.658,2.461,5.027,2.698,7.015,0.71l8.496-8.495c0.017-0.018,0.043-0.018,0.062,0
				l8.286,8.286c1.756,1.756,4.658,2.029,6.49,0.352c1.923-1.76,1.972-4.748,0.149-6.572l-8.496-8.496
				C514.097,316.854,514.097,316.824,514.114,316.808z"/>
			<path fill="#999C29" d="M537.763,316.808l8.286-8.286c1.757-1.758,2.029-4.659,0.353-6.491c-1.763-1.924-4.749-1.972-6.573-0.149
				l-8.496,8.496c-0.018,0.018-0.046,0.018-0.062,0l-8.286-8.285c-1.757-1.757-4.658-2.03-6.49-0.353
				c-1.923,1.761-1.973,4.748-0.149,6.572l8.496,8.496c0.017,0.017,0.017,0.046,0,0.062l-8.387,8.387
				c-1.548,1.549-1.917,4.013-0.692,5.829c1.657,2.461,5.026,2.698,7.014,0.71l8.495-8.495c0.017-0.018,0.045-0.018,0.062,0
				l8.286,8.286c1.758,1.756,4.659,2.029,6.491,0.352c1.923-1.76,1.975-4.748,0.149-6.572l-8.496-8.496
				C537.746,316.854,537.746,316.824,537.763,316.808z"/>
		</g>
	</g>
	<path fill="#AEA94B" d="M334.969,209.496c24.011,38.629,74.814,75.994,73.858,54.256c-0.501-7.571-8.261-18.7-10.506-21.964
		c-45.803-66.547-33.898-110.041-66.804-127.94C331.517,113.848,307.752,165.709,334.969,209.496z"/>
	<path fill="#777726" d="M394.98,250.179c2.048,2.976,8.659,12.479,10.194,19.873c2.521-0.525,3.929-2.481,3.765-6.237
		c-0.502-7.572-8.26-18.701-10.507-21.965c-45.803-66.547-33.897-110.041-66.803-127.94c0,0-1.431,3.133-3.188,8.487
		C361.007,140.389,349.307,183.818,394.98,250.179z"/>
	<path fill="#999C29" d="M191.968,347.672c0.98,3.372,5.454,7.69,8.619,7.914c3.177,0.226,8.555-3.437,9.668-6.568
		c2.585-7.268,12.073-61.317,17.333-91.651c0.281-1.621,2.669-1.429,2.674,0.219c0.072,23.702-2.762,78.96-4.385,107.959
		c-0.523,9.338-0.257,19.112,11.718,20.159c11.443,0.999,12.921-8.989,14.146-17.175c3.883-25.967,11.302-77.192,14.688-99.967
		c0.237-1.601,2.578-1.495,2.675,0.12c1.718,28.699,2.384,89.756,2.779,108.306c0.196,9.186,3.417,17.203,13.902,17.604
		c11.067,0.425,13.246-8.393,14.312-17.116c0.491-4.01,3.455-66.61,5.263-102.34c0.082-1.617,2.421-1.756,2.675-0.157
		c2.982,18.773,6.694,61.526,8.361,83.171c0.781,10.141-0.666,22.874,14.375,22.748c14.626-0.123,12.627-12.826,12.814-22.189
		c0.231-11.539,0.635-118.649,0.788-161.15h0.057l-8.503-109.477H213.874c0,0-11.174,126.379-12.44,134.866
		c-5.291,35.48-7.2,71.471-10.368,107.256C190.553,336.001,190.379,342.21,191.968,347.672z"/>
	<path fill="#777726" d="M192.042,347.683c0.981,3.373,5.454,7.691,8.619,7.916c0.67,0.047,1.447-0.109,2.253-0.365
		c-2.512-1.539-4.993-4.403-5.693-6.811c-1.589-5.461-1.415-11.671-0.901-17.469c3.167-35.784,5.077-71.775,10.367-107.255
		c1.266-8.487,12.44-134.867,12.44-134.867l-5.178-0.74c0,0-11.174,126.379-12.44,134.866c-5.291,35.48-7.2,71.471-10.367,107.256
		C190.627,336.013,190.453,342.223,192.042,347.683z"/>
	<path fill="#777726" d="M308.016,274.885l1.992,14.293c2.517,21.236,5.136,51.769,6.462,68.983
		c0.773,10.04-0.612,22.604,13.959,22.729c-9.032-2.836-8.115-13.342-8.781-21.988c-1.588-20.617-5.031-60.339-7.931-80.293
		l0.003-0.018l-0.279-1.829c-0.051-0.333-0.103-0.712-0.154-1.032c-0.001-0.006-0.005-0.009-0.006-0.015l-0.499-3.271
		L308.016,274.885z"/>
	<path fill="#777726" d="M270.11,289.867c1.047,30.854,1.533,72.396,1.848,87.132c0.196,9.185,3.418,17.202,13.901,17.604
		c0.271,0.011,0.511-0.01,0.771-0.011c-6.996-2.224-9.329-9.114-9.494-16.854c-0.362-16.988-0.952-69.605-2.368-100.394l0.001-0.004
		l-0.499-12.203l-5.166,3.543L270.11,289.867z"/>
	<path fill="#777726" d="M237.67,385.715c0.55,0.048,1.057,0.048,1.562,0.047c-8.39-2.577-8.566-11.188-8.103-19.465
		c1.489-26.597,3.994-75.256,4.344-101.428l0.001-0.008v-0.106c0.031-2.322,0.046-4.485,0.041-6.419c0-0.078-0.03-0.137-0.041-0.209
		v-4.546l-5.245,3.704l-0.394,25.381c-0.875,26.656-2.701,61.742-3.884,82.891C225.429,374.894,225.696,384.669,237.67,385.715z"/>
	<path fill="#AEA94B" d="M212.175,98.684h125.199c2.869,0,5.196-2.327,5.196-5.196V65.612c0-2.87-2.327-5.196-5.196-5.196H212.175
		c-2.87,0-5.196,2.327-5.196,5.196v27.875C206.979,96.357,209.306,98.684,212.175,98.684z"/>
	<rect x="206.979" y="66.249" fill="#777726" width="135.591" height="4.623"/>
	<g>
		<g>
			<path fill="#AEA94B" d="M295.055,173.744l-8.287,8.287c-1.756,1.757-2.029,4.659-0.352,6.491
				c1.761,1.923,4.749,1.972,6.573,0.149l8.496-8.496c0.018-0.017,0.045-0.017,0.062,0l8.286,8.287
				c1.757,1.756,4.659,2.029,6.491,0.351c1.923-1.76,1.973-4.748,0.149-6.572l-8.496-8.497c-0.017-0.017-0.017-0.045,0-0.062
				l8.387-8.387c1.549-1.548,1.917-4.013,0.693-5.829c-1.658-2.46-5.027-2.697-7.014-0.709l-8.496,8.495
				c-0.017,0.018-0.045,0.018-0.062,0l-8.286-8.286c-1.757-1.757-4.658-2.03-6.491-0.353c-1.923,1.761-1.973,4.749-0.149,6.573
				l8.497,8.496C295.071,173.699,295.071,173.727,295.055,173.744z"/>
			<path fill="#AEA94B" d="M271.405,173.744l-8.286,8.287c-1.757,1.757-2.03,4.659-0.352,6.491c1.761,1.923,4.749,1.972,6.573,0.149
				l8.496-8.496c0.017-0.017,0.045-0.017,0.062,0l8.286,8.287c1.757,1.756,4.659,2.029,6.491,0.351
				c1.923-1.76,1.973-4.748,0.149-6.572l-8.496-8.497c-0.018-0.017-0.018-0.045,0-0.062l8.387-8.387
				c1.548-1.548,1.917-4.013,0.692-5.829c-1.658-2.46-5.026-2.697-7.014-0.709l-8.496,8.495c-0.017,0.018-0.045,0.018-0.062,0
				l-8.287-8.286c-1.757-1.757-4.658-2.03-6.491-0.353c-1.923,1.761-1.973,4.749-0.148,6.573l8.496,8.496
				C271.423,173.699,271.423,173.727,271.405,173.744z"/>
			<path fill="#AEA94B" d="M247.756,173.744l-8.286,8.287c-1.757,1.757-2.03,4.659-0.352,6.491c1.761,1.923,4.749,1.972,6.573,0.149
				l8.496-8.496c0.017-0.017,0.045-0.017,0.062,0l8.286,8.287c1.757,1.756,4.659,2.029,6.492,0.351
				c1.923-1.76,1.973-4.748,0.148-6.572l-8.496-8.497c-0.017-0.017-0.017-0.045,0-0.062l8.386-8.387
				c1.549-1.548,1.917-4.013,0.693-5.829c-1.658-2.46-5.026-2.697-7.013-0.709l-8.497,8.495c-0.017,0.018-0.045,0.018-0.062,0
				l-8.287-8.286c-1.757-1.757-4.659-2.03-6.491-0.353c-1.923,1.761-1.973,4.749-0.149,6.573l8.496,8.496
				C247.774,173.699,247.774,173.727,247.756,173.744z"/>
			<path fill="#AEA94B" d="M283.23,210.074l-8.287,8.286c-1.757,1.757-2.029,4.659-0.352,6.491c1.761,1.923,4.748,1.972,6.572,0.148
				l8.496-8.496c0.017-0.018,0.045-0.018,0.062,0l8.287,8.287c1.756,1.757,4.659,2.029,6.491,0.352
				c1.923-1.761,1.973-4.748,0.148-6.572l-8.496-8.496c-0.017-0.018-0.017-0.046,0-0.062l8.386-8.387
				c1.549-1.549,1.917-4.014,0.693-5.83c-1.658-2.46-5.026-2.697-7.014-0.71l-8.497,8.496c-0.017,0.018-0.045,0.018-0.062,0
				l-8.287-8.286c-1.757-1.757-4.658-2.03-6.491-0.353c-1.923,1.76-1.973,4.749-0.148,6.573l8.496,8.496
				C283.247,210.028,283.247,210.057,283.23,210.074z"/>
			<path fill="#AEA94B" d="M259.581,210.074l-8.287,8.286c-1.757,1.757-2.029,4.659-0.352,6.491
				c1.761,1.923,4.749,1.972,6.573,0.148l8.496-8.496c0.017-0.018,0.045-0.018,0.062,0l8.286,8.287
				c1.756,1.757,4.658,2.029,6.491,0.352c1.923-1.761,1.973-4.748,0.149-6.572l-8.496-8.496c-0.018-0.018-0.018-0.046,0-0.062
				l8.387-8.387c1.549-1.549,1.917-4.014,0.693-5.83c-1.658-2.46-5.027-2.697-7.014-0.71l-8.496,8.496
				c-0.017,0.018-0.045,0.018-0.062,0l-8.286-8.286c-1.757-1.757-4.658-2.03-6.491-0.353c-1.923,1.76-1.973,4.749-0.149,6.573
				l8.496,8.496C259.598,210.028,259.598,210.057,259.581,210.074z"/>
			<path fill="#AEA94B" d="M283.23,138.215l-8.287,8.286c-1.757,1.757-2.029,4.659-0.352,6.492c1.761,1.923,4.748,1.973,6.572,0.148
				l8.496-8.496c0.017-0.017,0.045-0.017,0.062,0l8.287,8.286c1.756,1.757,4.659,2.03,6.491,0.352
				c1.923-1.76,1.973-4.748,0.148-6.572l-8.496-8.496c-0.017-0.017-0.017-0.045,0-0.062l8.386-8.388
				c1.549-1.548,1.917-4.013,0.693-5.829c-1.658-2.46-5.026-2.697-7.014-0.71l-8.497,8.496c-0.017,0.017-0.045,0.017-0.062,0
				l-8.287-8.287c-1.757-1.756-4.658-2.029-6.491-0.352c-1.923,1.761-1.973,4.749-0.148,6.573l8.496,8.496
				C283.247,138.17,283.247,138.198,283.23,138.215z"/>
			<path fill="#AEA94B" d="M259.581,138.215l-8.287,8.286c-1.757,1.757-2.029,4.659-0.352,6.492
				c1.761,1.923,4.749,1.973,6.573,0.148l8.496-8.496c0.017-0.017,0.045-0.017,0.062,0l8.286,8.286
				c1.756,1.757,4.658,2.03,6.491,0.352c1.923-1.76,1.973-4.748,0.149-6.572l-8.496-8.496c-0.018-0.017-0.018-0.045,0-0.062
				l8.387-8.388c1.549-1.548,1.917-4.013,0.693-5.829c-1.658-2.46-5.027-2.697-7.014-0.71l-8.496,8.496
				c-0.017,0.017-0.045,0.017-0.062,0l-8.286-8.287c-1.757-1.756-4.658-2.029-6.491-0.352c-1.923,1.761-1.973,4.749-0.149,6.573
				l8.496,8.496C259.598,138.17,259.598,138.198,259.581,138.215z"/>
		</g>
	</g>
</g>
</svg>
