<svg version="1.1" id="Layer_1" xmlns="http://www.w3.org/2000/svg" xmlns:xlink="http://www.w3.org/1999/xlink" viewBox="0 0 768 430" xml:space="preserve">
<path fill="#DDE4D0" d="M528.6,246.5c-3.8-2.4-8.1-4.5-12.399-5.7c-10.601-2.8-21.3-5.8-32.101-7.3c-9.6-1.4-13.3-5-12.6-15.3
	c3-39.3,7.2-78.4,17.2-116.7c5.3-20.1,3.1-23.7-17.4-29.5c-1.8-0.5-3.5-1.1-5.3-1.4c-46-9-92.2-10.1-138.5-2.9
	c-10.5,1.6-21.1,3.8-31.1,7.3c-10.4,3.6-13.8,10.1-11.7,18.7c10.2,42.5,12.7,85.7,12.8,129.1c0,6.101-1.9,8-8,9.4
	c-17.7,4.2-35.6,8.3-52.6,14.8c-11.9,4.5-11.7,20.3-0.3,26c9.2,4.6,19.1,8.3,29.1,10.4c39.6,8,80.1,13.699,120.5,12.6
	c0.101,0.9-0.1-0.9,0,0c34.601-3.5,69.201-6.3,103.601-10.8c13.101-1.7,26.3-6,38.3-11.5C541.4,267.5,541,254.5,528.6,246.5z"/>
</svg>
