<svg version="1.1" xmlns="http://www.w3.org/2000/svg"   viewBox="0 0 768 430" enable-background="new 0 0 768 430" xml:space="preserve"><path fill-rule="evenodd" clip-rule="evenodd" fill="#DDE4D0" d="M528.6 282.5c-3.8-2.4-8.1-4.5-12.4-5.7 -10.6-2.8-21.3-5.8-32.1-7.3 -9.6-1.4-13.3-5-12.6-15.3 3-39.3 7.2-78.4 17.2-116.7 5.3-20.1 3.1-23.7-17.4-29.5 -1.8-0.5-3.5-1.1-5.3-1.4 -46-9-92.2-10.1-138.5-2.9 -10.5 1.6-21.1 3.8-31.1 7.3 -10.4 3.6-13.8 10.1-11.7 18.7 10.2 42.5 12.7 85.7 12.8 129.1 0 6.1-1.9 8-8 9.4 -17.7 4.2-35.6 8.3-52.6 14.8 -11.9 4.5-11.7 20.3-0.3 26 9.2 4.6 19.1 8.3 29.1 10.4 39.6 8 80.1 13.7 120.5 12.6 0.1 0.9-0.1-0.9 0 0 34.6-3.5 69.2-6.3 103.6-10.8 13.1-1.7 26.3-6 38.3-11.5C541.4 303.5 541 290.5 528.6 282.5z"/></svg>