<svg version="1.1" id="Layer_1" xmlns="http://www.w3.org/2000/svg" xmlns:xlink="http://www.w3.org/1999/xlink" viewBox="0 0 768 430" xml:space="preserve">
<path fill="#DDE4D0" d="M298.5,84.7l-0.3-0.4c-27.6,24.5-41.9,59.2-41.9,94.3c0,30.2,10.6,60.8,32.6,85.5
	c25.7,28.9,61,43.301,96.3,43.301c30,0,59.899-10.5,83.5-31.4c27.6-24.5,42-59.3,42-94.4c0-30.2-10.601-60.8-32.601-85.5
	c-25.6-28.8-61-43.3-96.2-43.3c-30,0-60,10.5-83.6,31.5L298.5,84.7l0.3,0.4c23.4-20.8,53.1-31.2,82.9-31.2
	c34.899,0,70,14.3,95.399,42.9c21.801,24.5,32.301,54.8,32.301,84.8c0,34.9-14.301,69.4-41.601,93.7c-23.399,20.8-53,31.2-82.8,31.2
	c-34.9,0-70.1-14.3-95.5-43c-21.8-24.5-32.3-54.9-32.3-84.9c0-34.9,14.2-69.3,41.6-93.6L298.5,84.7z M335.2,126l0.3,0.4
	c14.5-12.9,32.2-19.1,49.5-19.1c20,0,39.6,8.2,53.5,23.9c11.9,13.4,17.9,30.3,17.9,47.4c0,20.1-8.4,40.4-25.301,55.5
	C416.6,247,399,253.2,381.6,253.2c-20,0-39.6-8.3-53.5-23.9c-11.9-13.399-18-30.399-18-47.399c0-20.101,8.3-40.4,25.3-55.4
	L335.2,126l-0.3-0.4c-17.1,15.2-25.6,35.8-25.6,56.2c0,17.3,6.1,34.5,18.2,48.101c14.1,15.899,34,24.3,54.3,24.3
	c17.5,0,35.4-6.3,50.101-19.3c17.199-15.301,25.6-35.9,25.6-56.3c0-17.3-6.1-34.5-18.2-48.1c-14.1-15.9-34-24.2-54.3-24.2
	c-17.6,0-35.5,6.3-50.2,19.4L335.2,126z M276.7,109.8l42.4,35.5c-14.3,22-12.3,51.8,1.4,74.101L276.8,248.6
	c5.8,10.5,25.7,30.301,36.1,35.801l33.3-39c21.7,12.5,48.899,11.899,72-1.101l29.6,46.101c9.601-3.801,35.5-26.4,41.2-39.7
	L447.4,216c12.3-20.7,14.1-45,4.8-66.1l42.399-31.7c-4.8-8.4-20.3-28.4-33.899-37.1l-33.2,38.5c-21.3-15.1-51.3-17.4-75.7-5.5
	l-30.7-45.4C309.7,73.7,286,93.7,276.7,109.8z M345.8,139c23.5-20.9,57.8-18.3,77.2,3.6c19.5,21.9,18,56.3-5.5,77.2
	c-23.5,20.9-57.8,18.2-77.3-3.7C320.9,194.3,322.4,159.9,345.8,139z"/>
<polygon fill="#DDE4D0" points="345.4,166.4 345.4,177.4 358.1,177.4 358.1,166.4 361.5,166.4 361.5,192.7 358.1,192.7 358.1,180.4 
	345.4,180.4 345.4,192.7 342,192.7 342,166.4 "/>
<polygon fill="#DDE4D0" points="381,180.4 370.8,180.4 370.8,189.8 382.2,189.8 382.2,192.7 367.4,192.7 367.4,166.4 381.6,166.4 
	381.6,169.3 370.8,169.3 370.8,177.6 381,177.6 "/>
<polygon fill="#DDE4D0" points="386.6,166.4 390,166.4 390,189.8 401.2,189.8 401.2,192.7 386.6,192.7 "/>
<path fill="#DDE4D0" d="M405,166.7c1.6-0.3,3.8-0.5,6.5-0.5c3.4,0,5.8,0.8,7.4,2.2c1.399,1.2,2.3,3.2,2.3,5.5c0,2.4-0.7,4.3-2,5.6
	c-1.8,1.9-4.7,2.9-8,2.9c-1,0-1.9,0-2.7-0.2v10.5h-3.4v-26H405z M408.4,179.4c0.699,0.2,1.699,0.3,2.8,0.3c4.1,0,6.6-2,6.6-5.6
	c0-3.5-2.5-5.1-6.2-5.1c-1.5,0-2.6,0.1-3.199,0.3V179.4L408.4,179.4z"/>
</svg>
