<svg version="1.1" xmlns="http://www.w3.org/2000/svg" xmlns:xlink="http://www.w3.org/1999/xlink" x="0px" y="0px" viewBox="0 0 768 430" enable-background="new 0 0 768 430" xml:space="preserve">
<g id="Layer_1">
</g>
<g id="Layer_2">
	<g>
		<g>
			<path fill="#BA656D" d="M281.868,252.232l-76.303,7.586c15.641,69.299,70.01,123.92,139.176,139.912l8.643-76.061
				C319.468,312.893,292.681,286.131,281.868,252.232z"/>
			<path fill="#BA656D" d="M491.433,184.649l76.16-8.474C551.569,107.852,497.831,54.062,429.537,37.96l-6.061,77
				C455.593,126.325,480.858,152.169,491.433,184.649z"/>
			<path fill="#BA656D" d="M349.941,114.99l-6-77.024c-67.994,16.04-121.55,69.442-137.821,137.346l76.452,7.816
				C293.422,151.39,318.368,126.192,349.941,114.99z"/>
			<path fill="#BA656D" d="M419.924,323.734l8.786,76.008c69.125-15.961,123.48-70.504,139.185-139.727l-75.958-8.734
				C481.305,285.697,454.249,312.898,419.924,323.734z"/>
			<path fill="#FFFFFF" d="M386.751,328.826c-11.633,0-22.842-1.811-33.367-5.156l-8.643,76.061
				c13.499,3.121,27.562,4.771,42.01,4.771c14.43,0,28.476-1.646,41.959-4.76l-8.786-76.008
				C409.455,327.039,398.312,328.826,386.751,328.826z"/>
			<path fill="#FFFFFF" d="M386.751,108.676c12.88,0,25.239,2.219,36.726,6.284l6.061-77C415.8,34.722,401.478,33,386.751,33
				c-14.734,0-29.065,1.724-42.81,4.966l6,77.024C361.452,110.907,373.84,108.676,386.751,108.676z"/>
			<path fill="#FFFFFF" d="M567.593,176.175l-76.16,8.474c3.495,10.738,5.394,22.197,5.394,34.101c0,11.326-1.713,22.25-4.89,32.531
				l75.958,8.734c3.011-13.271,4.607-27.082,4.607-41.266C572.502,204.1,570.8,189.848,567.593,176.175z"/>
			<path fill="#FFFFFF" d="M276.677,218.75c0-12.467,2.076-24.448,5.896-35.622l-76.452-7.816c-3.34,13.937-5.12,28.478-5.12,43.438
				c0,14.113,1.583,27.855,4.565,41.068l76.303-7.586C278.5,241.674,276.677,230.426,276.677,218.75z"/>
		</g>
		<path opacity="0.18" d="M491.937,251.281l75.958,8.734c0,0-0.427,2.482-1.124,4.891l-75.338-12.035L491.937,251.281z"/>
		<path opacity="0.18" d="M353.3,323.508l-8.676,75.963c0,0-2.482-0.424-4.891-1.119l11.979-75.348L353.3,323.508z"/>
		<path opacity="0.18" d="M282.639,183.204l-76.492-7.631c0,0,0.384-2.555,1.042-5.04l75.929,11.03L282.639,183.204z"/>
		<path opacity="0.18" d="M423.477,114.96l6.178-77.018c0,0,2.515,0.699,5.013,1.305l-9.649,76.271L423.477,114.96z"/>
		<g opacity="0.05">
			<path d="M386.726,70.632c-81.036,0-146.728,65.692-146.728,146.727s65.692,146.727,146.728,146.727
				c81.035,0,146.727-65.691,146.727-146.727S467.761,70.632,386.726,70.632z M496.8,217.359c0,11.324-1.713,22.248-4.889,32.531
				c-10.632,34.416-37.688,61.615-72.015,72.451c-10.469,3.305-21.609,5.092-33.171,5.092c-11.633,0-22.842-1.811-33.368-5.154
				c-0.033-0.012-0.065-0.023-0.098-0.033l0.015-0.131l-1.59-0.502l-0.016,0.102c-33.112-11.119-59.194-37.541-69.827-70.875
				c-3.368-10.559-5.191-21.806-5.191-33.48c0-12.443,2.069-24.401,5.874-35.556l0.089,0.008l0.415-1.421
				c11.09-31.102,35.763-55.75,66.887-66.793c11.511-4.083,23.899-6.313,36.811-6.313c12.879,0,25.239,2.22,36.726,6.284
				c32.116,11.364,57.382,37.208,67.956,69.689C494.902,193.997,496.8,205.456,496.8,217.359z"/>
		</g>
	</g>
</g>
</svg>
