<svg version="1.1" xmlns="http://www.w3.org/2000/svg" x="0" y="0" width="768" height="430" viewBox="0 0 768 430" enable-background="new 0 0 768 430" xml:space="preserve"><path fill="#DDE4D0" d="M298.5 119.7l-0.3-0.4c-27.6 24.5-41.9 59.2-41.9 94.3 0 30.2 10.6 60.8 32.6 85.5 25.7 28.9 61 43.3 96.3 43.3 30 0 59.9-10.5 83.5-31.4 27.6-24.5 42-59.3 42-94.4 0-30.2-10.6-60.8-32.6-85.5 -25.6-28.8-61-43.3-96.2-43.3 -30 0-60 10.5-83.6 31.5L298.5 119.7l0.3 0.4c23.4-20.8 53.1-31.2 82.9-31.2 34.9 0 70 14.3 95.4 42.9 21.8 24.5 32.3 54.8 32.3 84.8 0 34.9-14.3 69.4-41.6 93.7 -23.4 20.8-53 31.2-82.8 31.2 -34.9 0-70.1-14.3-95.5-43 -21.8-24.5-32.3-54.9-32.3-84.9 0-34.9 14.2-69.3 41.6-93.6L298.5 119.7zM335.2 161l0.3 0.4c14.5-12.9 32.2-19.1 49.5-19.1 20 0 39.6 8.2 53.5 23.9 11.9 13.4 17.9 30.3 17.9 47.4 0 20.1-8.4 40.4-25.3 55.5 -14.5 12.9-32.1 19.1-49.5 19.1 -20 0-39.6-8.3-53.5-23.9 -11.9-13.4-18-30.4-18-47.4 0-20.1 8.3-40.4 25.3-55.4L335.2 161l-0.3-0.4c-17.1 15.2-25.6 35.8-25.6 56.2 0 17.3 6.1 34.5 18.2 48.1 14.1 15.9 34 24.3 54.3 24.3 17.5 0 35.4-6.3 50.1-19.3 17.2-15.3 25.6-35.9 25.6-56.3 0-17.3-6.1-34.5-18.2-48.1 -14.1-15.9-34-24.2-54.3-24.2 -17.6 0-35.5 6.3-50.2 19.4L335.2 161zM276.7 144.8l42.4 35.5c-14.3 22-12.3 51.8 1.4 74.1l-43.7 29.2c5.8 10.5 25.7 30.3 36.1 35.8l33.3-39c21.7 12.5 48.9 11.9 72-1.1l29.6 46.1c9.6-3.8 35.5-26.4 41.2-39.7l-41.6-34.7c12.3-20.7 14.1-45 4.8-66.1l42.4-31.7c-4.8-8.4-20.3-28.4-33.9-37.1l-33.2 38.5c-21.3-15.1-51.3-17.4-75.7-5.5l-30.7-45.4C309.7 108.7 286 128.7 276.7 144.8zM345.8 174c23.5-20.9 57.8-18.3 77.2 3.6 19.5 21.9 18 56.3-5.5 77.2 -23.5 20.9-57.8 18.2-77.3-3.7C320.9 229.3 322.4 194.9 345.8 174z"/><polygon fill="#DDE4D0" points="345.4 201.4 345.4 212.4 358.1 212.4 358.1 201.4 361.5 201.4 361.5 227.7 358.1 227.7 358.1 215.4 345.4 215.4 345.4 227.7 342 227.7 342 201.4 "/><polygon fill="#DDE4D0" points="381 215.4 370.8 215.4 370.8 224.8 382.2 224.8 382.2 227.7 367.4 227.7 367.4 201.4 381.6 201.4 381.6 204.3 370.8 204.3 370.8 212.6 381 212.6 "/><polygon fill="#DDE4D0" points="386.6 201.4 390 201.4 390 224.8 401.2 224.8 401.2 227.7 386.6 227.7 "/><path fill="#DDE4D0" d="M405 201.7c1.6-0.3 3.8-0.5 6.5-0.5 3.4 0 5.8 0.8 7.4 2.2 1.4 1.2 2.3 3.2 2.3 5.5 0 2.4-0.7 4.3-2 5.6 -1.8 1.9-4.7 2.9-8 2.9 -1 0-1.9 0-2.7-0.2v10.5h-3.4V201.7zM408.4 214.4c0.7 0.2 1.7 0.3 2.8 0.3 4.1 0 6.6-2 6.6-5.6 0-3.5-2.5-5.1-6.2-5.1 -1.5 0-2.6 0.1-3.2 0.3V214.4z"/></svg>