<svg xmlns="http://www.w3.org/2000/svg" viewBox="0 0 768 430"><style>.a{fill:#A3467B;}.b{fill:#743157;}.c{fill:#B67746;}.d{fill:#805331;}.e{fill:none;}.f{fill:none;stroke-linejoin:round;stroke-width:3;stroke:#644026;}.g{fill:#F38E3F;}.h{fill:#D07936;}.i{fill:#F3BE16;}.j{fill:#D2A73D;}</style><path d="M541 325.2c-15.8-9.1-43-17.7-56.9-1.4 -6.6 7.7-8 19.4-11.3 28.7 -1 3-14.7 26.7-8 26.6 21.6-0.2 47.4 7.6 67.3-5.4C542.4 366.9 553.6 332.5 541 325.2z" class="a"/><path d="M479.2 364.9c-2.6 2.2 3.4-0.5 3.3-0.4 4.5-2 8.8-4.2 13.1-6.5 8.2-4.3 15.9-9.3 23.7-14.2 7.9-5 16.1-10.7 25-13.8 4.6-1.6 9.3-2.3 14.1-3 5.9-0.9 5.5-1.7 3.6-6.1 -4.5-10-5.9-7.6-13.5-2.4 -9.7 6.6-19.4 13.3-29.2 19.8C506.1 346.9 491.3 354.7 479.2 364.9z" class="b"/><path d="M587.9 135.3c-4.6 7.7-11.5 14.6-17.8 20.9 -4.4 4.3-23.8 17.4-29.7 9.6 -6.7-8.9-0.9-21.6 3.5-29.9 2.3-4.3 9.8-22.9 15.3-23.8 -0.3 0.1 1.8 6.8 2.8 7.4 3.2 2.2 6.8 3.8 10.3 5.5C576.3 126.9 590.5 131 587.9 135.3z" class="c"/><path d="M577.1 117.2c1.2 0.6 10.4-9.4 8.4-11.6C580.7 100.3 576.5 116.9 577.1 117.2z" class="d"/><path d="M594.2 137c8.4-16.5-28.5-40.9-41.8-29.1 -11.8 10.4 8.1 15.6 14.9 19.5C574.7 131.6 587.5 150.1 594.2 137z" class="d"/><path d="M589.4 139.6c-3.7-5.3-18.6-26.4-22.3-31.7" class="e"/><path d="M589.4 139.6c-3.7-5.3-18.6-26.4-22.3-31.7" class="f"/><path d="M579 133.6c-3.2-4.4-16-21.9-19.2-26.2" class="e"/><path d="M579 133.6c-3.2-4.4-16-21.9-19.2-26.2" class="f"/><path d="M564.2 122.7c-1.7-2.3-8.5-11.7-10.3-14" class="e"/><path d="M564.2 122.7c-1.7-2.3-8.5-11.7-10.3-14" class="f"/><path d="M592.7 135.2c-2.9-3.8-14.3-19.2-17.2-23" class="e"/><path d="M592.7 135.2c-2.9-3.8-14.3-19.2-17.2-23" class="f"/><path d="M593.3 130.5c-6.9-2.6-34.3-13.2-41.2-15.9" class="e"/><path d="M593.3 130.5c-6.9-2.6-34.3-13.2-41.2-15.9" class="f"/><path d="M589.5 123.2c-6.1-2.2-30.7-10.9-36.8-13" class="e"/><path d="M589.5 123.2c-6.1-2.2-30.7-10.9-36.8-13" class="f"/><path d="M582.4 115.8c-4.6-1.4-22.9-7.2-27.5-8.6" class="e"/><path d="M582.4 115.8c-4.6-1.4-22.9-7.2-27.5-8.6" class="f"/><path d="M593.1 134.6c-3.8-1.4-18.9-7.1-22.7-8.5" class="e"/><path d="M593.1 134.6c-3.8-1.4-18.9-7.1-22.7-8.5" class="f"/><path d="M591.8 137.3c-2.3-0.8-11.4-3.8-13.7-4.5" class="e"/><path d="M591.8 137.3c-2.3-0.8-11.4-3.8-13.7-4.5" class="f"/><path d="M261.3 360.8c2.1 16.3 16 28.8 31.4 31.5 4.6 0.8 13 3.4 16.5-0.8 5.8-6.8 11.4-15.5 13.7-24.2 2-7.5-0.7-16.1-4.3-22.7 -4.6-8.5-8.6-2.8-15.5-0.5C297.1 345.9 260.5 354.6 261.3 360.8z" class="c"/><path d="M284.6 338.2c-1.2 0.7-8-6-5.7-8.1C284.1 325.3 285.6 337.7 284.6 338.2z" class="d"/><path d="M254.6 361.2c-4.8-20.2 53-42.6 65.7-28.5 12 13.3-21 18.1-27.9 20.6C284.2 356.3 258.3 376.7 254.6 361.2z" class="d"/><path d="M320.2 340.3c-8.9 0.7-44.8 3.5-53.7 4.2" class="e"/><path d="M320.2 340.3c-8.9 0.7-44.8 3.5-53.7 4.2" class="f"/><path d="M304.8 347.5c-7.5 0.7-37.5 3.5-45 4.2" class="e"/><path d="M304.8 347.5c-7.5 0.7-37.5 3.5-45 4.2" class="f"/><path d="M280.2 356.2c-4 0.4-20 1.9-24 2.3" class="e"/><path d="M280.2 356.2c-4 0.4-20 1.9-24 2.3" class="f"/><path d="M318.2 334.2c-6.6 0.7-33.2 3.4-39.8 4.1" class="e"/><path d="M318.2 334.2c-6.6 0.7-33.2 3.4-39.8 4.1" class="f"/><path d="M313.5 330.8c-8.7 5.5-43.7 27.6-52.4 33.1" class="e"/><path d="M313.5 330.8c-8.7 5.5-43.7 27.6-52.4 33.1" class="f"/><path d="M302.4 330.4c-7.6 5-37.9 25.2-45.5 30.3" class="e"/><path d="M302.4 330.4c-7.6 5-37.9 25.2-45.5 30.3" class="f"/><path d="M288.3 333.3c-5.5 3.9-27.4 19.4-32.8 23.3" class="e"/><path d="M288.3 333.3c-5.5 3.9-27.4 19.4-32.8 23.3" class="f"/><path d="M317.9 333.4c-4.8 3.1-23.9 15.4-28.6 18.4" class="e"/><path d="M317.9 333.4c-4.8 3.1-23.9 15.4-28.6 18.4" class="f"/><path d="M319.8 336.4c-2.8 1.9-13.8 9.6-16.6 11.5" class="e"/><path d="M319.8 336.4c-2.8 1.9-13.8 9.6-16.6 11.5" class="f"/><path d="M351 157.1c-13.2-0.8-37-2.9-44.9-14.7 -1.7-2.6-11.3-13.7-8.8-16.6 4.6-5.3 17.1-6.2 23.5-6.6 9-0.6 16.4 1.9 23.8 6.8 7.4 4.9 16.2 8.1 23.3 13.1 3.7 2.6 8.7 12.2 4.1 16C367.2 159.2 356.7 157.5 351 157.1z" class="g"/><path d="M360.3 146.1c-13.9 1.3-26.1-20.5-29.3-31.2 -2.2-7.5-3.8-15.5-1-23.1 1.1-3.1 6.9-18 9.7-17.3 14.6 3.6 26.8 15.9 31.5 29.7C374.6 114.6 378 144.5 360.3 146.1z" class="g"/><path d="M380.4 148.8c9.6-9 27.2-26.2 25.3-40.3 -0.6-4.5 2.3-18.4-3.5-18.1 -7.2 0.4-15.4 3-21.6 6.6 -14.5 8.3-15.8 28.9-22.6 42.5 -3.1 6.4-5.3 16 2.2 20.8C366.2 164 376.7 152.2 380.4 148.8z" class="g"/><path d="M366 137.4c12.1-4 24.8-7.8 37.2-3 5.1 2 11.9 1.9 16.6 4.4 4.6 2.5-11.5 13.2-13.1 14 -13 7.2-27 11.9-41.7 7.3 -5.5-1.7-10.4-4.6-12.7-10.2C348.9 141.6 360.1 139.3 366 137.4z" class="g"/><path d="M354.2 139.9c-12 2.8-23.4 6.5-30.1 17.5 -2.9 4.7-8.3 8.8-10.6 13.5 -2.5 5.3 14.6 6.9 16.9 6.9 14.3 0.1 27.1-3.6 35.7-15.6 3.7-5.1 5.7-10.8 4.7-17.2C369.5 135.7 361 138.3 354.2 139.9z" class="g"/><path d="M357 128.5c3.9 15.6 7.7 30.3 9.4 46.4 0.5 4.8 0.3 11.9 3 16.2 0.4 0.6 8.3 3.9 7.5 4.9 4.6-5.3-5-33.6-6.5-39.8 -2.1-8.8-4.8-17.4-7.8-25.9 -0.8-2.3-9.9-20.6-10.1-20.3C350.7 112.8 356.2 125.2 357 128.5z" class="h"/><path d="M398.4 365.6c-2.3-0.1-4.7-3-6.8-3.9 -4.1-1.7-8.6 1.2-12.2 3 -7 3.5-18 5.5-21.7-4.2 -1.4-3.7 13-20.7-0.4-16.8 -6.3 1.8-18.4 9.4-21.4-2.5 -2.4-9.2 8.5-9.6 11.8-16.1 5.4-10.5-7.8-6.8-12.2-5.3 -7 2.4-21.3-6.4-12.2-13.1 4.9-3.7 20.9-10.8 10.3-18 -7.8-5.3-11.7-14.3-3.5-21.7 9.2-8.4 16.4 0 20.9 8.1 5.3 9.4 11.2-4.4 18.4-3 12.5 2.5 10.8 15.5 6.2 23.8 -6.2 11.3 13.7 5.7 17.4 9.9 6.5 7.4-11.8 19.3-0.1 24.6 4.3 2 9.8-2.3 13.8 2.1 4.7 5.1-0.3 9.3-2.8 13.7 -4 7-1.9 8.8-2.8 15.7C400.7 364.8 400.8 364.4 398.4 365.6z" class="i"/><path d="M401.8 379c-7.8-8.3-10.9-22.3-16.6-32.1 -5.4-9.3-11.9-18.1-18.1-26.8 -2.6-3.7-33.6-41.6-31.2-44.8 0.7-0.9 41.7 50.8 44.7 54.9 7.2 9.9 12.4 21.1 19.5 31 3.2 4.4 8.3 7 11.4 11.3C414.8 377.2 406 383.5 401.8 379z" class="j"/><path d="M403.6 249.4c-10.3-15.6-18-40.8-3.7-56.2 6.9-7.4 17.9-10.7 26.7-15.2 2.7-1.4 25.2-18.2 25.4-12 0.7 21.9 8.8 46.6-2.4 67.6C444.3 243.4 411.7 261.6 403.6 249.4z" class="a"/><path d="M440.1 189.5c2-2.9-0.3 3.5-0.3 3.3 -1.7 4.7-3.7 9.4-5.7 14 -3.8 8.7-8.3 17.1-12.6 25.6 -4.4 8.6-9.5 17.4-12.2 26.8 -1.4 4.7-1.8 9.5-2.3 14.4 -0.6 5.7-1.2 5.8-5.7 4.4 -10.2-3.1-7.1-5.4-2.9-13 5.9-10.6 12-21.1 17.8-31.8C424 218.8 430.7 203 440.1 189.5z" class="b"/><path d="M473.2 120.4c2.6-14.4 3.1-38.6-6.7-50.5 -4.8-5.9-10.5-12.5-17.9-8.3 -7.4 4.2-11.5 10.3-13.9 18.3 -2.6 8.9-4.5 18-5.9 27.1 -0.8 4.8-3.8 14.4 2.8 9.2 5.7-4.5 18 1.1 24.2 2.7C460.4 120.1 472.1 126.3 473.2 120.4z" class="c"/><path d="M448.7 127.8c1.6 0.4 2.1 15.7-1.5 16.1C438.8 144.7 448 127.6 448.7 127.8z" class="d"/><path d="M480.3 123.6c-5.3 20.5-58.7 13.5-61.8-6.3 -2.7-17.8 20.7-7.1 29.2-5.5C456.9 113.6 484.5 107.3 480.3 123.6z" class="d"/><path d="M477.9 117.8c-7.6 1.7-38.2 8.6-45.8 10.4" class="e"/><path d="M477.9 117.8c-7.6 1.7-38.2 8.6-45.8 10.4" class="f"/><path d="M463.5 115.2c-6.4 1.3-32.1 6.7-38.5 8.1" class="e"/><path d="M463.5 115.2c-6.4 1.3-32.1 6.7-38.5 8.1" class="f"/><path d="M441.1 113.5c-3.4 0.7-17.1 3.6-20.6 4.3" class="e"/><path d="M441.1 113.5c-3.4 0.7-17.1 3.6-20.6 4.3" class="f"/><path d="M477.5 124.1c-5.7 1.1-28.4 5.7-34.1 6.8" class="e"/><path d="M477.5 124.1c-5.7 1.1-28.4 5.7-34.1 6.8" class="f"/><path d="M474.3 128.5c-8.5-2.8-42.3-14.2-50.7-17" class="e"/><path d="M474.3 128.5c-8.5-2.8-42.3-14.2-50.7-17" class="f"/><path d="M465.1 131.8c-7.4-2.7-37-13.5-44.4-16.2" class="e"/><path d="M465.1 131.8c-7.4-2.7-37-13.5-44.4-16.2" class="f"/><path d="M452.6 132.9c-5.4-2.2-26.9-10.9-32.3-13.1" class="e"/><path d="M452.6 132.9c-5.4-2.2-26.9-10.9-32.3-13.1" class="f"/><path d="M477.4 124.9c-4.6-1.6-23.2-8-27.8-9.6" class="e"/><path d="M477.4 124.9c-4.6-1.6-23.2-8-27.8-9.6" class="f"/><path d="M478.3 121.5c-2.7-1.1-13.6-5.3-16.3-6.3" class="e"/><path d="M478.3 121.5c-2.7-1.1-13.6-5.3-16.3-6.3" class="f"/><path d="M302.4 253.3c15.6 6.6 42.2 10.8 56.7 0.4 7.4-5.3 14.4-9.8 12.2-19.4 -2.5-10.5-8.3-17-17.6-22.1 -9-4.9-18.5-9.2-28.1-12.6 -11-3.9-6.4-1.2-6.1 6.5 0.3 8.2-7.2 18.8-10.5 25.9C306.6 237 296.4 250.9 302.4 253.3z" class="c"/><path d="M301.7 221.6c-0.9 1.9-16.3-0.9-16.5-4.2C284.6 205.8 302.4 220 301.7 221.6z" class="d"/><path d="M297 261.6c-20.7-10.9 2.4-75.3 24.5-75.3 20.9 0.1-1.7 33.9-4.6 42.3C313.8 237.3 312.9 270 297 261.6z" class="d"/><path d="M303.7 259.7c0.4-9.8 1.9-49 2.3-58.8" class="e"/><path d="M303.7 259.7c0.4-9.8 1.9-49 2.3-58.8" class="f"/><path d="M310.6 242.4c0.4-8.2 2.2-41.1 2.6-49.3" class="e"/><path d="M310.6 242.4c0.4-8.2 2.2-41.1 2.6-49.3" class="f"/><path d="M318.8 215c0.2-4.4 1.2-21.9 1.4-26.3" class="e"/><path d="M318.8 215c0.2-4.4 1.2-21.9 1.4-26.3" class="f"/><path d="M297.3 257.9c0.5-7.3 2.2-36.3 2.7-43.6" class="e"/><path d="M297.3 257.9c0.5-7.3 2.2-36.3 2.7-43.6" class="f"/><path d="M293.5 253.2c5.4-9.9 27.1-49.6 32.5-59.5" class="e"/><path d="M293.5 253.2c5.4-9.9 27.1-49.6 32.5-59.5" class="f"/><path d="M292.7 241.1c5-8.6 24.9-43.2 29.9-51.9" class="e"/><path d="M292.7 241.1c5-8.6 24.9-43.2 29.9-51.9" class="f"/><path d="M295.2 225.5c3.8-6.2 19.2-31.2 23.1-37.5" class="e"/><path d="M295.2 225.5c3.8-6.2 19.2-31.2 23.1-37.5" class="f"/><path d="M296.5 257.7c3-5.4 15.1-27.1 18.2-32.6" class="e"/><path d="M296.5 257.7c3-5.4 15.1-27.1 18.2-32.6" class="f"/><path d="M299.7 259.5c1.9-3.2 9.5-15.8 11.4-18.9" class="e"/><path d="M299.7 259.5c1.9-3.2 9.5-15.8 11.4-18.9" class="f"/><path d="M411.5 298c-1.2 13.5 8.5 25 20.3 29.3 7 2.6 10.3 3.7 16.1-1.5 4.7-4.2 10.3-9.4 12.4-15.5 1.8-5.4 1.3-14.3-2-19.1 -2.2-3.2-13.1 0.8-16.6 1.2C436.3 292.9 413 292.8 411.5 298z" class="c"/><path d="M433.9 284.4c-1.1 0.3-5.3-5.8-3.1-7.1C435.6 274.5 434.8 284.1 433.9 284.4 433.3 284.6 434.5 284.2 433.9 284.4z" class="d"/><path d="M406.1 297.3c-0.3-16.1 49.3-24.7 57.1-11.5 7.3 12.3-23 10.8-28.8 11.9C428.3 298.8 406.3 309.7 406.1 297.3z" class="d"/><path d="M461.7 291.6c-7.2-0.9-36.1-4.3-43.3-5.2" class="e"/><path d="M461.7 291.6c-7.2-0.9-36.1-4.3-43.3-5.2" class="f"/><path d="M448.3 294.6c-6.1-0.6-30.4-3.2-36.4-3.8" class="e"/><path d="M448.3 294.6c-6.1-0.6-30.4-3.2-36.4-3.8" class="f"/><path d="M427.3 297.5c-3.2-0.3-16.2-1.7-19.5-2" class="e"/><path d="M427.3 297.5c-3.2-0.3-16.2-1.7-19.5-2" class="f"/><path d="M461.2 286.6c-5.4-0.5-26.9-2.6-32.3-3.1" class="e"/><path d="M461.2 286.6c-5.4-0.5-26.9-2.6-32.3-3.1" class="f"/><path d="M458.1 283.2c-7.9 2.9-39.4 14.2-47.3 17.1" class="e"/><path d="M458.1 283.2c-7.9 2.9-39.4 14.2-47.3 17.1" class="f"/><path d="M449.4 281.2c-6.9 2.7-34.5 13.3-41.4 16" class="e"/><path d="M449.4 281.2c-6.9 2.7-34.5 13.3-41.4 16" class="f"/><path d="M437.6 281.3c-5 2.1-25.1 10.5-30.1 12.7" class="e"/><path d="M437.6 281.3c-5 2.1-25.1 10.5-30.1 12.7" class="f"/><path d="M461.1 286c-4.3 1.6-21.6 8-25.9 9.6" class="e"/><path d="M461.1 286c-4.3 1.6-21.6 8-25.9 9.6" class="f"/><path d="M462.1 288.6c-2.5 1-12.6 5.2-15.2 6.2" class="e"/><path d="M462.1 288.6c-2.5 1-12.6 5.2-15.2 6.2" class="f"/><path d="M475.5 149.3c-5 10.8-4.2 26.2 3.2 35.5 3.7 4.7 7.9 11.1 14.3 8.4 5.8-2.5 11.9-5.7 16.5-10.1 5.4-5.2 13.9-24.8 2.3-25.8C506 156.8 477.9 144.1 475.5 149.3z" class="c"/><path d="M498.9 146.4c-0.8-0.1-2.9-8.9 0.9-8.6C503.7 138.1 499.8 146.5 498.9 146.4 498.3 146.4 499.5 146.5 498.9 146.4z" class="d"/><path d="M471 147.8c5.4-14 50.1-4.1 52.1 10 1.8 12.8-19.8 2.4-24.9 1C492 157.2 466.8 158.8 471 147.8z" class="d"/><path d="M472 152.5c6.6-0.6 32.8-3.2 39.3-3.8" class="e"/><path d="M472 152.5c6.6-0.6 32.8-3.2 39.3-3.8" class="f"/><path d="M484 155.6c5.5-0.4 27.5-2.2 33.1-2.7" class="e"/><path d="M484 155.6c5.5-0.4 27.5-2.2 33.1-2.7" class="f"/><path d="M503 158.7c2.9-0.2 14.7-1.2 17.7-1.4" class="e"/><path d="M503 158.7c2.9-0.2 14.7-1.2 17.7-1.4" class="f"/><path d="M472.6 147.9c4.9-0.4 24.4-1.8 29.3-2.1" class="e"/><path d="M472.6 147.9c4.9-0.4 24.4-1.8 29.3-2.1" class="f"/><path d="M475.5 144.8c7 2.8 35.2 14.1 42.3 16.9" class="e"/><path d="M475.5 144.8c7 2.8 35.2 14.1 42.3 16.9" class="f"/><path d="M483.5 143.2c6.2 2.6 30.8 13.1 36.9 15.8" class="e"/><path d="M483.5 143.2c6.2 2.6 30.8 13.1 36.9 15.8" class="f"/><path d="M494.1 143.5c4.5 2.1 22.4 10.3 26.8 12.4" class="e"/><path d="M494.1 143.5c4.5 2.1 22.4 10.3 26.8 12.4" class="f"/><path d="M472.8 147.3c3.9 1.6 19.3 7.9 23.1 9.5" class="e"/><path d="M472.8 147.3c3.9 1.6 19.3 7.9 23.1 9.5" class="f"/><path d="M471.8 149.7c2.3 1 11.3 5.1 13.5 6.1" class="e"/><path d="M471.8 149.7c2.3 1 11.3 5.1 13.5 6.1" class="f"/><path d="M524.7 234.9c-8.5-6.2-26.8-19.2-37.9-16.7 -2.4 0.5-17.4 3.6-17.1 7.1 0.5 5.5 7 11.7 10.6 15.4 11.8 12.3 30.5 14.6 46.8 16.7 5.2 0.7 15.1-4.5 10.9-10.8C534.8 241.8 529.3 238.2 524.7 234.9z" class="g"/><path d="M525.8 248.1c-8.4-8.1-27.5-1.9-35.6 3.5 -6.2 4.1-12.2 9.3-14.2 16.7 -0.6 2.3-4.1 14.8-3.3 16.8 1.6 3.8 15.5 4.5 18.8 4.5 8.4 0.1 14.6-1.7 21.5-6.4C521.7 277.4 537 258.8 525.8 248.1z" class="g"/><path d="M541.8 258c2.3 11.4 6.7 34-2.2 43.1 -1.8 1.9-8.4 12.9-10.4 11.7 -4.6-2.7-8.3-8.9-11-13.3 -9.6-15.5-0.4-29.5 2.2-45.4 1.1-6.8 2.8-16.3 12-16C539.4 238.3 540.8 253.3 541.8 258z" class="g"/><path d="M525.5 257.5c6.7 9.8 13.8 20 25.5 23.9 4.8 1.6 9.5 5.6 14.3 6.6 4 0.9-0.3-12.5-0.7-13.5 -4.4-12.8-12.6-25.7-24.8-32.1 -5-2.6-10.9-4.9-16.5-2.5C514.5 243.8 522.1 252.6 525.5 257.5z" class="g"/><path d="M518.2 248.8c-8.1-10-13.7-19.2-12.7-32.4 0.2-2.1-2.3-13.8 0.1-14.5 4.5-1.3 11.6 3.9 14.8 6.5 10.3 8.3 17.8 18.3 18 31.9 0.1 6.1-1.7 12.5-7 16.2C525.9 260.3 521.1 252.4 518.2 248.8z" class="g"/><path d="M514.5 258.6c10.4-8.3 20.3-15.9 29.3-25.7 2.7-2.9 7.8-10.5 12.2-11 0.3 0 7.4 2.1 7.3 1.1 0.5 5.9-20.9 20.7-25.1 24.1 -5.8 4.7-11.9 9-18.1 13.1 -1.9 1.2-18.6 9.6-18.5 8.9C501.8 266.1 512.3 260.3 514.5 258.6L514.5 258.6z" class="h"/><path d="M208.6 165.1c2 2.8-0.3 6.8 2.4 9.7 3.1 3.3 8.2 4.8 12.2 6.9 4.6 2.5 14.7 15.1 4.9 18.4 -3.2 1.1-22.8 0-12.1 7.5 4.6 3.2 20 9 11.5 17.6 -7.1 7.2-15.6-3.2-23.7-0.3 -10.5 3.7 6.7 11.5 8.5 13.7 6.5 8 0.1 16.6-9.2 12.5 -8.6-3.8-19.1-7.2-18.7 5.4 0.3 10.5-12.2 13.1-20 9.4 -14.9-7 2.7-16.6-2.2-23.7 -4.3-6.3-18.8-1.8-15.8-14.6 2.9-12.5 19.7-4.7 22.5-13.2 2.1-6.3-16.4-13.5-3.2-19 5.3-2.2 24.8-1.7 13.2-12.1 -10.6-9.5 2.4-12.2 9.7-12.7 3.9-0.2 8.6 0.5 11.7-2.5C201.7 166.7 206 161.6 208.6 165.1z" class="i"/><path d="M217.9 155.7c-1.8 8.8-10.4 17.1-14.7 24.8 -5 8.9-8.6 18.6-12.3 28.2 -1.5 3.8-20.8 48.8-19.8 49.8 -3.1-2.8 5.8-24.7 7.1-28.7 4.2-12.9 8.5-25.8 13.5-38.5 5-12.7 12.6-22.7 13.9-36.6C206.3 146.7 218.3 148.4 217.9 155.7z" class="j"/><path d="M187.6 82.6c-6.9-9.5-26.7-6.8-35.6-2.9 -6.8 2.9-13.7 7-16.9 13.9 -1 2.2-6.7 13.8-6.2 16 0.9 4 14.4 7.2 17.6 7.8 8.2 1.6 14.7 1 22.3-2.4C178.3 110.8 196.7 95.2 187.6 82.6z" class="g"/><path d="M201.6 95.3c0.2 11.6 0.5 34.6-9.9 42 -2.1 1.5-10.5 11.2-12.3 9.7 -4.1-3.5-6.5-10.3-8.4-15.1 -6.7-16.9 4.9-29.1 10.3-44.3 2.3-6.5 5.7-15.5 14.7-13.6C202.7 75.4 201.5 90.4 201.6 95.3z" class="g"/><path d="M185.6 91.9c4.8 10.8 10 22.2 20.8 28.1 4.4 2.4 8.4 7.2 12.9 9.1 4.1 1.7 1.2-16.2 0.9-17.6 -3-12.1-7.7-23.9-17.8-31.8 -4.5-3.5-9.9-6.8-15.8-5.4C177.3 76.4 183.2 86.4 185.6 91.9z" class="g"/><path d="M174.6 90.9c12.9-6.9 24.8-13.6 36.6-22.4 0.9-0.7 18.4-9.5 17.9-3.8 -0.5 5.9-24.3 16.6-29 19.2 -6.5 3.6-13.3 6.7-20.1 9.6 -2.1 0.9-20 6.1-19.8 5.4C160.8 96.1 172.2 92.2 174.6 90.9z" class="h"/><path d="M299.1 106.4c-1.4 13-6.7 26.8-11.9 38.7 -3.3 7.6-7.7 14-15 18.4 -3.5 2.1-14.1 8.9-18 6.1 -12.7-9.1-14.3-23.8-13.7-38.1 0.1-3.1 1.9-39.3 5.7-38.9 2.5 0.2 4.2 7.2 8.2 7.9 6.2 1.1 12.7 1.1 19 1.4 6 0.3 12.8 1.7 18.8 1C296.1 102.4 300.4 100.1 299.1 106.4z" class="c"/><path d="M273.1 89.5c1.7 0.1 9.5-18.9 2.4-19.3C268.2 69.8 272 89.4 273.1 89.5z" class="d"/><path d="M308.5 105.1c0.9-25.8-61-34.3-73.4-15.3 -13.2 20.3 22.6 16.8 32.5 17.8C278.9 108.9 307.9 125.3 308.5 105.1z" class="d"/><path d="M303.7 111c-8.3-4.6-41.5-23.1-49.8-27.7" class="e"/><path d="M303.7 111c-8.3-4.6-41.5-23.1-49.8-27.7" class="f"/><path d="M286.1 109.1c-7-3.8-35.1-18.8-42.1-22.5" class="e"/><path d="M286.1 109.1c-7-3.8-35.1-18.8-42.1-22.5" class="f"/><path d="M259.4 103.3c-3.8-2-18.8-10-22.5-12" class="e"/><path d="M259.4 103.3c-3.8-2-18.8-10-22.5-12" class="f"/><path d="M305.4 103.6c-6.2-3.3-31.2-16.3-37.4-19.6" class="e"/><path d="M305.4 103.6c-6.2-3.3-31.2-16.3-37.4-19.6" class="f"/><path d="M303.3 97.4c-10.8 0.4-54.2 1.9-65 2.2" class="e"/><path d="M303.3 97.4c-10.8 0.4-54.2 1.9-65 2.2" class="f"/><path d="M293.6 90.4c-9.6 0.6-47.8 2.9-57.3 3.5" class="e"/><path d="M293.6 90.4c-9.6 0.6-47.8 2.9-57.3 3.5" class="f"/><path d="M279.5 84.9c-7 0.7-35.1 3.3-42.1 4" class="e"/><path d="M279.5 84.9c-7 0.7-35.1 3.3-42.1 4" class="f"/><path d="M305.5 102.7c-5.9 0.3-29.8 1.3-35.7 1.6" class="e"/><path d="M305.5 102.7c-5.9 0.3-29.8 1.3-35.7 1.6" class="f"/><path d="M305.5 106.8c-3.5 0.3-17.6 1.4-21.1 1.7" class="e"/><path d="M305.5 106.8c-3.5 0.3-17.6 1.4-21.1 1.7" class="f"/><path d="M269.8 245.4c4.6-8.8 7.2-19.5 9.2-29.1 1-5 0.3-26.2-7.9-27 -11-0.9-18.8 10.7-23.5 18.8 -2.5 4.2-14.3 20.3-12.3 25.5 -0.1-0.3 6.7-2.1 7.7-1.6 3.5 1.5 6.7 3.7 9.9 5.8C257.2 240.4 266.9 249.5 269.8 245.4z" class="c"/><path d="M248.8 245.8c1.1 0.7-2.6 13.7-5.5 13.2C236.5 257.8 248.3 245.5 248.8 245.8z" class="d"/><path d="M274.5 249.7c-9.5 15.7-49.2-2.1-46.2-19.7 2.7-15.3 17.2-1.6 24.2 2.2C259.9 236.3 282.1 237.2 274.5 249.7z" class="d"/><path d="M274.2 244.3c-6.4-0.3-32-1.6-38.4-1.9" class="e"/><path d="M274.2 244.3c-6.4-0.3-32-1.6-38.4-1.9" class="f"/><path d="M263.8 238.7c-5.3-0.4-26.7-1.8-32.1-2.2" class="e"/><path d="M263.8 238.7c-5.3-0.4-26.7-1.8-32.1-2.2" class="f"/><path d="M246.9 232.1c-2.9-0.2-14.3-1-17.1-1.2" class="e"/><path d="M246.9 232.1c-2.9-0.2-14.3-1-17.1-1.2" class="f"/><path d="M272.1 249.4c-4.7-0.4-23.6-1.9-28.3-2.2" class="e"/><path d="M272.1 249.4c-4.7-0.4-23.6-1.9-28.3-2.2" class="f"/><path d="M268.5 252.5c-5.8-4.4-28.9-21.8-34.7-26.2" class="e"/><path d="M268.5 252.5c-5.8-4.4-28.9-21.8-34.7-26.2" class="f"/><path d="M260.4 253.1c-5-4-25-20-30-24" class="e"/><path d="M260.4 253.1c-5-4-25-20-30-24" class="f"/><path d="M250.5 251.1c-3.6-3.1-17.9-15.4-21.5-18.5" class="e"/><path d="M250.5 251.1c-3.6-3.1-17.9-15.4-21.5-18.5" class="f"/><path d="M271.9 250.1c-3.1-2.4-15.8-12.2-18.9-14.6" class="e"/><path d="M271.9 250.1c-3.1-2.4-15.8-12.2-18.9-14.6" class="f"/><path d="M273.5 247.5c-1.8-1.5-9.1-7.6-10.9-9.1" class="e"/><path d="M273.5 247.5c-1.8-1.5-9.1-7.6-10.9-9.1" class="f"/><path d="M223.9 283.4c-9.9 5.5-25.2 14.6-26.4 26.7 -0.3 3.4-4 12.2 1.9 12.3 6.5 0 14-2.3 19.7-5.3 6.4-3.3 9.7-8.9 13.3-14.8 2.8-4.6 9.1-9.4 10.2-14.7C245.8 272.5 230.5 279.7 223.9 283.4z" class="g"/><path d="M234 287.6c-9.8 3.7-11.2 22.1-9.8 30.4 1.1 6.3 3 12.2 8.1 16.4 1.9 1.5 9.8 8.8 11.6 7.3 8-6.5 13.1-18.3 12-28.4C255 304.6 247.5 282.6 234 287.6z" class="g"/><path d="M247.1 279.1c11 3.1 28.1 8.3 31.8 20.1 1.1 3.5 8 9.5 2.5 11.5 -5.9 2.2-14 3.7-20.2 2.1 -10.8-2.8-22.5-15.4-30.2-23.1 -2.6-2.6-4.8-10.6-0.3-12.7C235.1 274.9 242.7 277.9 247.1 279.1z" class="g"/><path d="M240.9 291.5c10.9-1.6 20.5-3.7 28.2-12 1.9-2.1 12.2-7.1 6.8-9.4 -5.8-2.5-12.5-2.7-18.7-2.4 -10.6 0.5-21.8 3.6-28.2 12.9C221.5 291.5 233.2 292.8 240.9 291.5z" class="g"/><path d="M231.9 293.8c-10.5 2.4-19.2 3.1-28.6-2.6 -1.6-1-11.1-3.4-10.8-5.6 0.6-3.9 7-7.4 10-8.9 9.4-4.6 19.2-6.6 29-2.1C243.5 280 246 290.5 231.9 293.8z" class="g"/><path d="M237.8 300.4c-2.6-11.8-5-22.9-9.3-34.2 -0.4-1-4.2-18.8 0.3-17 4.8 1.9 7.9 23.9 8.9 28.5 0.7 3.2 3.3 36.5 3.3 36.5C238.8 312.9 238.3 302.7 237.8 300.4z" class="h"/></svg>