<svg version="1.1" xmlns="http://www.w3.org/2000/svg" x="0" y="0" width="768" height="430" viewBox="0 0 768 430" enable-background="new 0 0 768 430" xml:space="preserve"><path fill="#DDE4D0" d="M477 100c-72.4 0-131.1 55.5-131.1 123.9 0 26.1 8.6 50.3 23.2 70.3 -12.3 1.5-25.1 0.8-35.1-6.2 -1.1-0.7-2.1-1.6-3.3-2.5 -18.5-16.2-39.6-59.3-54.6-83l8.3-4.9c2.8-1.7 3.7-5.2 1.9-7.8l-12.7-19.1c-1.2-1.8-3.3-2.7-5.4-2.6 4.1-15.1 16.2-26.4 17.2-34 1.4-10.7-2.7-12-8.1-9.7 -5.5 2.3-18.7 22.6-24.6 23.6 -6 1-9.1-8-11.1-17.3 -1.9-9.4 1.8-32.3-0.6-38.9 -2.4-6.6-11.1-7.2-13.9-0.8 -2.7 6.4 0.9 39.6-2.5 39.2 -3.4-0.3-13.2-35.3-18.1-41.5 -4.9-6.2-12.2-4.8-11.3 3.9 0.3 3 2.5 9.3 5.3 16.5 5.2 13.7 12.3 30.2 11.2 31.5 0 0.1-0.1 0.1-0.2 0.1 -1.6-0.2-8.7-11.9-15.4-22.2 -1.1-1.6-2.1-3.2-3.1-4.7 -1.7-2.5-3.2-4.8-4.6-6.5 -1.1-1.4-2-2.5-2.8-3.2 -6.1-5.4-11.9-3.3-10.1 4 1.7 7.2 21.5 36.6 20.6 39.6s-20.4-19.8-25.9-21.9c-5.6-2.1-10.6 3.5-7.4 9.5 3.3 5.9 18.9 18.2 26.9 26.4 8 8.2 12.7 16.5 21.2 22.9 5.8 4.3 11.5 2.3 18.7 5.8 -2.2 1.8-2.7 4.8-1.1 7.2l12.7 19.1c1.7 2.6 5.4 3.4 8.2 1.8l2.5-1.5c9.7 19.7 26.3 47.5 37.3 62.2 15.2 20.2 24.4 34.3 46.7 41.4 15 4.8 40.9 3.4 61.8 2.1 22 15.8 49.4 25.1 79.1 25.1C549.3 347.8 608 292.3 608 223.9 608 155.5 549.3 100 477 100zM495.1 168.3c10.9 0 19.7 8.3 19.7 18.6s-8.9 18.7-19.7 18.7c-10.9 0-19.8-8.4-19.8-18.7S484.2 168.3 495.1 168.3zM437.3 168.3c10.9 0 19.8 8.3 19.8 18.6s-8.9 18.7-19.8 18.7c-10.9 0-19.7-8.4-19.7-18.7S426.4 168.3 437.3 168.3zM388.6 245.3l33.6-15.9C418.1 242.3 403 249.5 388.6 245.3zM465.9 283.5c-30.4 0-55-15.6-55-34.7 4.9 16.8 28 28.9 55 28.9 27 0 50.1-12.1 55-28.9C520.9 267.9 496.3 283.5 465.9 283.5zM509.1 228.7l33 16.9C528.5 249.8 513.8 242.2 509.1 228.7z"/></svg>