<svg version="1.1" id="Layer_1" xmlns="http://www.w3.org/2000/svg" xmlns:xlink="http://www.w3.org/1999/xlink" viewBox="0 0 768 430" xml:space="preserve">
<path fill="#DDE4D0" d="M477,66c-72.4,0-131.1,55.5-131.1,123.9c0,26.1,8.6,50.3,23.2,70.3c-12.3,1.5-25.1,0.8-35.1-6.2
	c-1.1-0.7-2.1-1.6-3.3-2.5c-18.5-16.2-39.6-59.3-54.6-83l8.3-4.9c2.8-1.7,3.7-5.2,1.9-7.8l-12.7-19.1c-1.2-1.8-3.3-2.7-5.4-2.6
	c4.1-15.1,16.2-26.4,17.2-34c1.4-10.7-2.7-12-8.1-9.7c-5.5,2.3-18.7,22.6-24.6,23.6c-6,1-9.1-8-11.1-17.3
	c-1.9-9.4,1.8-32.3-0.6-38.9c-2.4-6.6-11.1-7.2-13.9-0.8c-2.7,6.4,0.9,39.6-2.5,39.2c-3.4-0.3-13.2-35.3-18.1-41.5
	c-4.9-6.2-12.2-4.8-11.3,3.9c0.3,3,2.5,9.3,5.3,16.5c5.2,13.7,12.3,30.2,11.2,31.5c0,0.1-0.1,0.1-0.2,0.1
	c-1.6-0.2-8.7-11.9-15.4-22.2c-1.1-1.6-2.1-3.2-3.1-4.7c-1.7-2.5-3.2-4.8-4.6-6.5c-1.1-1.4-2-2.5-2.8-3.2c-6.1-5.4-11.9-3.3-10.1,4
	c1.7,7.2,21.5,36.6,20.6,39.6s-20.4-19.8-25.9-21.9c-5.6-2.1-10.6,3.5-7.4,9.5c3.3,5.9,18.9,18.2,26.9,26.4
	c8,8.2,12.7,16.5,21.2,22.9c5.8,4.3,11.5,2.3,18.7,5.8c-2.2,1.8-2.7,4.8-1.1,7.2l12.7,19.1c1.7,2.6,5.4,3.399,8.2,1.8l2.5-1.5
	c9.7,19.7,26.3,47.5,37.3,62.2c15.2,20.2,24.4,34.3,46.7,41.399c15,4.801,40.9,3.4,61.8,2.101c22,15.8,49.399,25.1,79.1,25.1
	c72.5,0,131.2-55.5,131.2-123.899C608,121.5,549.3,66,477,66z M495.1,134.3c10.9,0,19.7,8.3,19.7,18.6c0,10.3-8.899,18.7-19.7,18.7
	c-10.899,0-19.8-8.4-19.8-18.7C475.3,142.6,484.2,134.3,495.1,134.3z M437.3,134.3c10.9,0,19.8,8.3,19.8,18.6
	c0,10.3-8.899,18.7-19.8,18.7c-10.899,0-19.7-8.4-19.7-18.7C417.6,142.6,426.4,134.3,437.3,134.3z M388.6,211.3L422.2,195.4
	C418.1,208.3,403,215.5,388.6,211.3z M465.9,249.5c-30.4,0-55-15.6-55-34.7c4.899,16.8,28,28.9,55,28.9s50.1-12.101,55-28.9
	C520.9,233.9,496.3,249.5,465.9,249.5z M509.1,194.7l33,16.899C528.5,215.8,513.8,208.2,509.1,194.7z"/>
</svg>
