<svg xmlns="http://www.w3.org/2000/svg" viewBox="0 0 768 430"><style>.a{fill:#FCCFA8;}.b{fill:none;stroke-linejoin:round;stroke-width:2;stroke:#995A12;}.c{fill:#DD0A46;}.d{fill:#231F20;}.e{fill:#F7DE72;}.f{fill:none;stroke:#31A9AF;}.g{fill:none;stroke-linejoin:round;stroke-width:2;stroke:#00707B;}</style><polygon points="322.5 126.2 321.3 136.4 335.6 138.2 337.3 127.3 " class="a"/><path d="M345.6 105.9c0 0-1.2 6.3-1.3 8.8 -0.1 2.4 1.4 2.3 3.5 0.4 2.1-1.9 5.7-3.6 9.6-2.4 3.9 1.2 1.5 4.4-0.9 5.2 -2.5 0.7-3.3 1-9.9 7.8 -6.7 6.8-12.8 5.5-12.8 5.5s-4.2-1.1-5.6-1.2c-1.5-0.1-5 0.4-8.4-2.8 -3.4-3.2-2.9-9.3-3.5-16.2 -0.5-6.9-2.6-20.1-1.4-22.2 1.2-2 4.4-1.3 5.1 1.4 0.7 2.6 2.2 13.3 2.9 13.5 0.7 0.2 0.7 0.9 1-0.2 0.3-1.2-0.4-19.1 2-20.3 3.2-1.6 4.5 1.4 4.4 6.9 -0.1 5.5-0.6 13.8 0 14 0.6 0.3 1 0.6 1.3-0.4 0.3-1 2.3-20.2 5-21.1 2.3-0.7 5 0.2 4.2 5.3 -0.7 4.4-3.3 16.9-2.5 17.4 0.7 0.6 1 0.1 1.3-1 0.3-1 3.6-16.7 5.8-16.8C348.7 87.4 350.6 88.7 345.6 105.9z" class="a"/><path d="M341.2 115.1c0 0-9.3 0.8-9.9 10.5" class="b"/><path d="M320.8 109.1c0 0 11.4 0.2 19.6 2" class="b"/><path d="M359.4 251.5c-50.1-44.9-40.5-115.8-40.5-115.8 4.4 0.8 19.6 1.6 19.6 1.6 -6.4 58.9 28.9 84.6 28.9 84.6L359.4 251.5z" class="c"/><polygon points="449.5 126.2 450.7 136.4 436.4 138.2 434.7 127.3 " class="a"/><path d="M426.4 105.9c0 0 1.2 6.3 1.3 8.8 0.1 2.4-1.4 2.3-3.5 0.4 -2.1-1.9-5.7-3.6-9.6-2.4 -3.9 1.2-1.5 4.4 0.9 5.2 2.5 0.7 3.3 1 9.9 7.8 6.7 6.8 12.8 5.5 12.8 5.5s4.2-1.1 5.6-1.2c1.5-0.1 5 0.4 8.4-2.8 3.4-3.2 2.9-9.3 3.5-16.2 0.5-6.9 2.6-20.1 1.4-22.2 -1.1-2-4.4-1.3-5.1 1.4 -0.7 2.6-2.2 13.3-2.9 13.5 -0.7 0.2-0.7 0.9-1-0.2 -0.3-1.2 0.4-19.1-2-20.3 -3.2-1.6-4.5 1.4-4.4 6.9 0.1 5.5 0.6 13.8 0 14 -0.6 0.3-1 0.6-1.3-0.4 -0.3-1-2.3-20.2-5-21.1 -2.3-0.7-5 0.2-4.2 5.3 0.7 4.4 3.3 16.9 2.5 17.4 -0.7 0.6-1 0.1-1.3-1 -0.3-1-3.6-16.7-5.8-16.8C423.3 87.4 421.4 88.7 426.4 105.9z" class="a"/><path d="M430.8 115.1c0 0 9.3 0.8 9.9 10.5" class="b"/><path d="M451.2 109.1c0 0-11.4 0.2-19.6 2" class="b"/><path d="M412.7 251.5c50.1-44.9 40.5-115.8 40.5-115.8 -4.4 0.8-19.6 1.6-19.6 1.6 6.4 58.9-28.9 84.6-28.9 84.6L412.7 251.5z" class="c"/><path d="M374.9 388.9c6.6 0 10.3-4.2 10.3-4.2s11.8 11 21.3 0.5c-4.9-2.3-9.6-3.8-9.6-3.8l4.2-38.9 -7-6.6 -12.6 0.5 -11.2 6.1 4.2 38.9c0 0-2.9 0.9-6.5 2.4C369 386.1 371 388.9 374.9 388.9z" class="a"/><path d="M417.5 395c-0.2-3.9-5.7-7.4-11-9.8 -9.5 10.5-21.3-0.5-21.3-0.5s-3.7 4.2-10.3 4.2c-3.9 0-6-2.8-7-5.1 -5.9 2.4-13.8 6.6-14.1 11.2 -0.5 7.5 1.9 8.4 1.9 8.4s15 0.9 27.6-1.9h4.6c12.6 2.8 27.6 1.9 27.6 1.9S417.9 402.5 417.5 395z" fill="#92ABC4"/><path d="M356.7 302.3l1.4 43.5c0 0 5.6 2.8 14 2.8 8.4 0 9.8-1.9 9.8-1.9l3.3-3.3 6.6 3.3c0 0 1.4 1.9 9.8 1.9 8.4 0 14-2.8 14-2.8l1.4-43.5 -8.4-2.8L356.7 302.3z" fill="#229AA0"/><polygon points="407.7 222.3 406.8 215.7 365.1 215.2 364.2 248.9 375.9 259.2 402.1 258.3 403.5 246.1 " class="c"/><path d="M418.5 302.3c0 0-23.4 4.7-37.5 5.2 -14 0.5-29.5-4.1-29.5-4.1s0.7-14 1.1-29.4c0.5-15.4-1.6-27.4-1.6-27.4 8.4-9.8 11.2-38.4 11.2-38.4l4.2 5.1c0 0 3.3 39.4 18.7 39.4 15.4 0 20.1-39.3 20.1-39.3l2.8-5.6c0 0 2.8 20.1 6.1 27.6 3.3 7.5 7.4 13.1 7.4 13.1 -1.3 21.5-2.3 21-2.3 31.7 0 9.4 3.3 20.2 3.3 20.2L418.5 302.3z" fill="#3EC0CE"/><path d="M345.2 171.4c0 0-10.8-11.7-15.7 0.5 -4.9 12.3 7 20.8 13.5 20.8 6.5 0 6.5-2.1 6.5-2.1L345.2 171.4z" class="a"/><path d="M425.7 171.4c0 0 10.8-11.7 15.7 0.5 4.9 12.3-7 20.8-13.5 20.8 -6.5 0-6.5-2.1-6.5-2.1L425.7 171.4z" class="a"/><path d="M402.4 219.4c0 0 28.6-23.5 27.5-50.1 -1.1-26.7-20-35.7-40-36.8h-9.1c-20 1.1-38.9 10.1-40 36.8 -1.1 26.7 27.5 50.1 27.5 50.1s4.1 13.6 16.7 13.1C397.9 232.1 402.4 219.4 402.4 219.4z" class="a"/><path d="M373.5 159.1c0 2.2-1.4 4-3.2 4 -1.8 0-3.2-1.8-3.2-4 0-2.2 1.4-4 3.2-4C372 155.1 373.5 156.9 373.5 159.1z" class="d"/><path d="M401.6 159.1c0 2.2-1.4 4-3.2 4 -1.8 0-3.2-1.8-3.2-4 0-2.2 1.4-4 3.2-4C400.1 155.1 401.6 156.9 401.6 159.1z" class="d"/><polyline points=" 376.8 173.6 385.2 157.7 392.2 173.1 " class="b"/><path d="M406.8 177.2h-41.6c0 0 4.9 26.2 20 26.7C400.3 204.4 406.8 177.2 406.8 177.2z" fill="#F3928D"/><path d="M343.6 186.9c0 0-5.9-0.5-5.9-4.8 0-4.3 0-4.3 0-4.3s-1.6-3.2-3.8-3.2" class="b"/><path d="M427.3 186.9c0 0 5.9-0.5 5.9-4.8 0-4.3 0-4.3 0-4.3s1.6-3.2 3.8-3.2" class="b"/><path d="M364.6 140.3c0 0 6.1-14 18.3-17.3" class="e"/><path d="M374.9 139.9c0 0 4.7-11.2 22.5-16.4" class="e"/><path d="M387.6 139.4c0 0 4.2-11.7 23.4-13.1" class="e"/><path d="M400.7 141.3c0 0 10.3-7.5 21.1-8.9" class="e"/><path d="M352 254.2c0 0 11.9-13 11.9-30 0 0 3 35.3 21.3 34.1 18.3-1.2 20.6-29.5 20.6-29.5s2.3 19.8 13.6 26.6" class="f"/><path d="M352 297.2c0 0 42.5 7.9 68.5-4" class="f"/><line x1="385.2" y1="340.9" x2="385.2" y2="319.4" class="g"/><line x1="394.5" y1="318.1" x2="378.6" y2="318.1" class="g"/><line x1="385.2" y1="343.5" x2="385.2" y2="398.6" class="b"/><path d="M340.9 169.3c0 0-1.6-37.3 44.3-36.4 45.9 0.9 44.3 31.1 44.3 31.1l0.4 3.3 -2 11c0 0-3.3-7.8-6.1-11.4 -2.9-3.7-2.9-3.7-2.9-3.7s-1.6-13.9-4.9-15.9c-3.3-2-20-5.3-29.4-5.7 -9.4-0.4-27 2.4-29 4.5 -2 2-5.7 14.3-5.7 14.3s-2.8 6.1-3.7 8.6c-0.8 2.5 0 10.6 0 10.6L340.9 169.3z" class="e"/></svg>