<svg xmlns="http://www.w3.org/2000/svg" viewBox="0 0 768 430"><style>.a{fill:none;}.b{fill:#E0CEC3;}.c{fill:#71665D;}.d{fill:#69100C;}.e{fill:#350806;}.f{fill:#914800;}.g{fill:#492400;}.h{fill:#DDDBDB;}.i{fill:#2E3191;}.j{fill:#00079F;}.k{fill:#560000;}.l{fill:#FF4343;}.m{fill:#6F2800;}.n{fill:#381400;}.o{fill:#96100C;}.p{fill:#170D00;}.q{fill:#FFF;}</style><path d="M348.7 308.9c-0.9 2.2-1.9 4.8-2.1 6 -0.3 2.6-2.2 8.2-4.5 12.4 -2.3 4.1-1.6 13.3 0.1 16.1 0.8 1.3 0.8 2.7 0.2 3.9 -0.7 1.2-1.9 1.9-3.2 1.9 -0.2 0-0.4 0-0.6 0 1.7 11 0.3 17.7-2.1 22 1.5-0.3 3.4-0.4 5.8-0.3 0.4 0 0.9-0.4 1.4-1 2.4-3.2 3.3-12.4 2.4-16.2 -0.5-2.3-1.9-11 1.3-24.7C349.3 321.4 349.3 313.9 348.7 308.9z" class="a"/><path d="M377.2 351.6c-0.4-1.3-0.5-2.7-0.2-4.3 0.5-2.5 1.8-5.2 3.8-7.7 -0.9-1.5-1.8-2.9-2.7-4.2 -4.9 11.4-6.1 15.3-5.3 17.5 0.1 0.2 0.2 0.4 0.3 0.6 1.3-0.6 2.6-1.2 4.1-1.8C377.2 351.6 377.2 351.6 377.2 351.6z" class="a"/><path d="M391.5 374.3c2.2-2.1 4.7-4.4 7.6-3.1 2.3 1.1 5.8 2 9.4 2.5 -4-1.4-6-3-7.9-4.5 -1.7-1.3-3.2-2.5-5.8-3.3 -5.5-0.3-9.5-4.6-13.7-9.2 -0.8-0.8-1.5-1.7-2.3-2.5 -0.4-0.5-0.8-1-1.1-1.6 0 0 0 0 0 0 -1.4 0.6-2.8 1.2-4 1.8 0.7 1.4 1.3 3.1 0.7 4.7 -0.6 1.5-2.1 2.8-4.8 3.9 0 1 0 2.1 0 3.4 0.1 3.1 0.1 6.9-0.2 10.7 1.4 0.2 2.9 0.4 4.6 0.4 2.4 0 5.1-0.2 8-0.7 2.3-0.4 5-0.7 7.9-0.9C390.4 375.4 390.9 374.8 391.5 374.3z" class="b"/><path d="M481.1 366.7c-0.2 2.3-5.3 3.6-2.4 6.9 1.9 2.1-0.5 2.6-2.8 3.4 -2.2 0.8 1.4 3.3-1.1 3.8 -3.6 0.7-7.3 0.9-10.6 0.7 0 0 0 0 0 0 0 0 0 0 0 0 3.7 1.9 7.8 3.5 11.7 3.6 3.2 0.1 5.8 0.2 8 0.2l1.5 0c4.9 0 8.4 0.1 13.2 1.5 -1.4-1.6-2.5-2.4-2.5-2.4l0 0c-2.8-1.7-3.5-4.3-3.5-4.3 0 0 1.2 2 4 3.5l0 0c5 2.5 10.5 2.8 14.7 2.8 2.2 0 4.5-0.1 6.7-0.2 2.1-0.1 4.1-0.2 6-0.2 2.6 0 4.7 0.2 6.4 0.6 -11-8.3-13.3-7.8-13.2-7.9 0 0 2.9-1.7 16.2 8.8 3.5 1.9 6.8 2.7 10.1 2.7 4.1 0 8.1-1.5 11.9-4.4 -2.9-0.1-5.9-0.7-8-1.3 -5.4-1.5-15.2-7.8-15.2-7.8 0.1 0.1 10.2 5.3 15.5 6.8 2.6 0.7 6.9 1.5 10.2 1.2l0 0c2.3-0.2 4.2-0.4 5.9-0.4 5.1 0 7.6 1.1 9.5 3 0.1-1 0-1.6-0.1-1.7 -5.5-7.9-20-10.3-20.1-10.3 0 0 15 1.4 20.9 9.5 3.3 0.1 6.9-0.7 8.8-1.4 -4-1.1-10.4-4.6-17.6-11.8 -5.8-5.8-21-13.9-36.9-13.9 -3.7 0-7.3 0.5-10.5 1.4 -3 0.9-5.7 1.7-8.1 2.4 -10.9 3.2-17.4 5.2-26.3 5.2 -0.8 0-1.6 0-2.4 0v0C481.2 366.7 481.1 366.7 481.1 366.7z" class="b"/><path d="M584.6 382.7c-3.6-0.5-10.5-3.8-18.5-11.8 -5.9-5.9-21.5-14.2-37.6-14.2 -3.8 0-7.5 0.5-10.8 1.5 -3 0.9-5.7 1.7-8.1 2.4 -10.8 3.2-17.3 5.2-26 5.2 -1.6 0-3.3-0.1-5-0.2 0.7 0.1 1.4 0.1 2.1 0.1l0.5 0 0 1.1c0.8 0 1.6 0 2.4 0 8.9 0 15.4-2 26.3-5.2 2.4-0.7 5.1-1.5 8.1-2.4 3.3-0.9 6.8-1.4 10.5-1.4 15.8 0 31.1 8.1 36.9 13.9 7.1 7.1 13.6 10.7 17.6 11.8 -1.9 0.7-5.5 1.5-8.8 1.4 -5.9-8.1-20.8-9.5-20.8-9.5 0.1 0 14.6 2.4 20.1 10.3 0 0.1 0.2 0.7 0.1 1.7 -1.9-1.9-4.4-3-9.5-3 -1.7 0-3.7 0.1-5.9 0.4l0 0c-3.3 0.3-7.6-0.5-10.2-1.2 -5.3-1.5-15.4-6.8-15.5-6.8 0 0 9.8 6.3 15.2 7.8 2.1 0.6 5.2 1.2 8 1.3 -3.8 2.9-7.8 4.4-11.9 4.4 -3.3 0-6.6-0.9-10.1-2.7 -13.3-10.5-16.2-8.8-16.2-8.8 0 0 2.3-0.5 13.2 7.9 -1.8-0.4-3.8-0.6-6.4-0.6 -1.9 0-3.9 0.1-6 0.2 -2.2 0.1-4.4 0.2-6.7 0.2 -4.2 0-9.7-0.3-14.7-2.8l0 0c-2.8-1.5-4-3.5-4-3.5 0 0 0.7 2.6 3.5 4.3l0 0c0 0 1.1 0.8 2.5 2.4 -4.9-1.4-8.3-1.5-13.2-1.5l-1.5 0c-2.2 0-4.9 0-8-0.2 -3.9-0.2-8-1.7-11.7-3.6 -1 0.4-1.5 0.4-1.5 0.4l-0.1-0.1c-2.1-1.1-4-2.4-5.7-3.5 0-0.2 0-0.3 0-0.5 0-0.3-0.1-0.6-0.1-0.9 -0.1-0.4-0.1-0.8-0.2-1.2 -0.3 0.1-0.6 0.1-0.9 0.1 -0.1 0-0.1 0-0.2 0 0-0.1 0-0.1 0-0.2 0 0 0 0.1 0 0.1 0.1 0.7 0.2 1.4 0.3 2.1 0.8 6.4-12.3 10.7-27.5 15.6l-2.5 0.8c-14.3 4.6-23.9 2.8-27 1.2 -0.9-0.5-1.1-0.8-1.1-0.9l-0.1-0.4 0 0c-0.2-0.8-0.5-3.8 6.4-10.1 0 0-7.5 5-7.3 10 -6.2-0.5-9.5-2.9-9.6-4.5 0.5-1.1 4.7-9.9 11.7-11.2 0 0-6.7 0-12.4 10.4 -1.3-0.6-2.1-1.4-2.3-2.5 -0.5-3.2 3.9-8 6-9.7 0.6-0.5 1.3-1.1 1.9-1.7 2.1-2 4.1-3.9 6.4-2.9 3.5 1.7 10.1 2.9 15.2 2.9v0c0.1 0 2.5 0.2 6 0.2 0.9 0 1.7 0 2.5 0 -0.3 0-1.8-1-1.7-1 0 0 0.1 0 0.1 0 0 0-0.1 0-0.1 0 -3.7 0-6.3-0.2-6.7-0.2 -7.4-1.5-10.2-3.8-12.7-5.7 -1.7-1.3-3.3-2.6-6.2-3.5l-0.1 0c-5.1-0.2-8.8-4.2-13.1-8.9 -0.8-0.8-1.6-1.7-2.4-2.5 -1.4-1.4-1.9-3.5-1.4-5.9 1.2-6.4 8.4-13.7 17.3-17.7 5.9-2.4 11.4-3.5 16.3-3.7 0.1 0 0.2 0 0.2 0 -0.1 0-0.2 0-0.3 0 -0.1 0 0.5-0.9 0.6-0.9 11.4-0.2 19.3 4 20.2 4.5 -0.9-0.5-8.8-4.7-20.3-4.5 -5.2 0.1-11 1-17.3 3.6 -5.4 2.4-10.1 6-13.4 9.9 -0.9-1.5-1.9-3-3-4.5 0.7-1.5 1.4-3.2 2.2-5 0 0 0 0 0 0 0.6-1.5 1.3-3.1 2.1-4.8l0.4-0.9c4-9 6.2-15.7 7.3-20.7 0.3-1.3 0.4-2.5 0.5-3.6 0.8-9.1-3.5-9.4-3.5-9.4 0 0 0.4 0.1 0.9 0.5 0.3 0.2 0.6 0.6 0.9 1.1 1.5 2.7 2.5 10.4-7 31.6l-0.4 0.9c-9.1 21.1-11.3 26-10 29.2 0.2 0.4 0.4 0.9 0.6 1.3 0.7 1.5 1.3 2.9 0.8 4.2 -0.5 1.3-2 2.4-4.5 3.4l-0.3 0.1 0 0.3c0 1.1 0 2.3 0 3.7 0.1 8.1 0.4 21.8-7.2 26.8 -7 3.6-14.8 4.3-21.8 1.9 -1.2-0.8-1.9-1.8-2.1-3.2 -0.6-4.3 4-10.1 4.1-10.1 0 0-5.8 5.5-5.1 10.3 0.2 1 0.5 1.9 1.2 2.7 -4.6-0.9-9.9-3.2-11.4-5.7 -0.4-0.7-0.5-1.4-0.2-2.1 0.5-0.6 4.7-6.4 7.9-9.8 0 0-6.2 6.4-8.2 8.5 -0.4-2.3 1.7-5.4 3.9-8.4 0.2-0.2 0.3-0.4 0.5-0.6 2.1-3 3.5-4.9 12.3-4.8 0.8-0.1 1.5-0.5 2.2-1.4 2.6-3.5 3.5-13.1 2.6-17 -0.5-2.3-1.9-10.7 1.3-24.3 3.8-18.7-1-25.7-1-25.7 0.2 0.4 0.4 1.1 0.6 1.8 -25.4-7.9-29.2-26.7-30.7-34.1 -0.2-1-0.4-1.8-0.5-2.4 -1.6-5.4 2-13.7 5.1-16.6 1.8-1.7 2.8-5.5 3.6-9.8 -0.4-0.4-0.6-0.7-0.9-1.1 -0.8 4.4-1.8 8.6-3.5 10.1 -3.7 3.5-7 12.1-5.4 17.7 0.2 0.6 0.3 1.3 0.5 2.3 0.7 3.2 1.7 8.5 4.8 14.2 0.1 5.4-0.5 15-3.2 31.5 -2.9 18-2.2 21.5-1.8 23.7 0.1 0.6 0.2 1 0.2 1.7 0 0.7 0.1 1.7 0.2 2.9 0.4 4 1.1 9.9-3 11 -0.9 0.2-1.8 0.3-3 0.3 -0.7 0-1.4 0-2-0.1 -0.6 0-1.3-0.1-2-0.1 -2.7 0-5.7 0.5-8.7 4.5 -2.9 3.8-4.3 8.4-3.1 10.9 0.4 1 1.2 1.6 2.3 1.7 1.1 1.7 5.5 4 9.8 4 0.7 0 1.4-0.1 2.1-0.2 1.7 1.6 6.2 2.3 10.1 2.3 2 0 5.3-0.2 8.4-1.2 -2.1 3-3.5 5.9-2.5 8.2 -0.3 0.9-0.2 1.9 0.4 2.8 1.9 3.2 8.6 5.9 13.8 6.5 2.9 1 5.9 1.5 8.9 1.5 4.7 0 9.4-1.2 13.8-3.4l0 0c4.9-3.2 6.7-9.5 7.4-15.9 1.4 0.2 2.9 0.4 4.7 0.4 2.4 0 5.2-0.2 8.2-0.7 1.9-0.3 4.1-0.6 6.4-0.8 -2.3 2.2-5.8 6.4-5.2 9.7 0.2 1.5 1.3 2.6 3 3.4 0.3 2.6 4.9 4.9 10.8 5.3 0.3 0.4 0.7 0.8 1.4 1.1 1.7 0.9 5.3 1.8 10.5 1.8 4.6 0 10.4-0.8 17.3-3l2.5-0.8c15.9-5.1 28.5-9.2 28.3-16.2 5 3.5 12.2 7.5 18.9 7.8 3.2 0.1 5.8 0.2 8.1 0.2l1.5 0c5.4 0 8.9 0.1 14.6 1.9l1.6 0.5 -1-1.3c-0.5-0.7-1.1-1.4-1.6-1.9 4.4 1.5 8.8 1.7 12.4 1.7 2.3 0 4.5-0.1 6.7-0.2 2.1-0.1 4.1-0.2 6-0.2 3.9 0 6.7 0.4 8.8 1.3 3.6 2 7.1 2.9 10.6 2.9 4.7 0 9.3-1.8 13.6-5.4 2.7-0.3 4.9-0.5 6.8-0.5 5.5 0 7.6 1.3 9.5 3.5l0.7 0.9 0.2-1.2c0.2-1.3 0.2-2.2 0.1-2.7 0 0 0.1 0 0.1 0 4.1 0 9.1-1.2 10.3-2.2l0.9-0.8L584.6 382.7zM373.9 377.5c-1.7 0-3.2-0.1-4.6-0.4 0.3-3.9 0.3-7.7 0.2-10.7 0-1.3 0-2.4 0-3.4 2.6-1.1 4.2-2.4 4.8-3.9 0.6-1.6 0-3.3-0.7-4.7 1.3-0.6 2.6-1.2 4-1.8 0 0 0 0 0 0 0.3 0.6 0.6 1.1 1.1 1.6 0.8 0.8 1.6 1.7 2.3 2.5 4.2 4.6 8.2 9 13.8 9.2 2.6 0.8 4.1 2 5.8 3.3 1.9 1.5 3.9 3.1 7.9 4.5 -3.6-0.5-7.1-1.4-9.4-2.5 -2.9-1.4-5.4 1-7.6 3.1 -0.5 0.5-1.1 1.1-1.7 1.5 -2.9 0.3-5.6 0.6-7.9 0.9C378.9 377.2 376.2 377.5 373.9 377.5zM372.8 352.9c-0.9-2.2 0.4-6 5.3-17.4 1 1.4 1.9 2.8 2.7 4.2 -2 2.5-3.3 5.2-3.8 7.7 -0.3 1.6-0.2 3 0.2 4.3 0 0 0 0 0 0 -1.4 0.6-2.8 1.2-4.1 1.8C373 353.2 372.9 353 372.8 352.9zM309.5 376.5l-0.2-0.3 0 0c-3.2-3 2.2-10.5 2.3-10.6 0 0-6.2 7-3.5 10.8 -0.4 0-0.8 0.1-1.2 0.1 -4.3 0-8.2-2.5-8.9-3.6 0.7-7.1 6.3-11.2 6.3-11.2 0 0-6.4 3.4-7.3 10.7 -0.5-0.1-0.9-0.5-1.2-1 -0.8-1.8 0.1-6 3-9.8 2.6-3.4 5-4.1 7.9-4.1 0.6 0 1.3 0 1.9 0.1 0.7 0 1.4 0.1 2.1 0.1 1.2 0 2.3-0.1 3.3-0.3 5-1.2 4.2-7.8 3.8-12.1 -0.1-1.1-0.2-2.1-0.2-2.7 0-0.8-0.1-1.3-0.2-1.9 -0.4-2.1-1.1-5.5 1.8-23.3 2.4-14.8 3.1-24.1 3.2-29.8 4.4 7.2 12.1 14.7 26.2 19 0 0.1 0 0.2 0.1 0.4 -1.1 2.4-2.7 6.2-2.8 7.9 -0.3 2.5-2.1 7.9-4.4 12 -2.5 4.4-1.7 14.1 0.1 17.1 0.6 1 0.6 2 0.1 2.8 -0.5 0.8-1.4 1.4-2.3 1.4 -0.3 0-0.7-0.1-1-0.2l-0.9-0.4 0.2 1c2 12 0.4 18.9-2.3 23 -3.3 0.9-4.5 2.6-6 4.6 -0.1 0.2-0.3 0.4-0.5 0.6 -0.1 0.1-0.2 0.2-0.3 0.4 -2.5 1.1-5.9 1.7-9.5 1.7C314.6 378.7 310.5 377.8 309.5 376.5zM346.2 353.7c0.8 3.7 0 12.9-2.4 16.2 -0.5 0.6-0.9 1-1.4 1 -2.4 0-4.2 0.1-5.8 0.3 2.4-4.2 3.8-10.9 2.1-22 0.2 0 0.4 0 0.6 0 1.3 0 2.6-0.8 3.2-1.9 0.7-1.2 0.6-2.6-0.2-3.9 -1.7-2.8-2.4-12-0.1-16.1 2.4-4.2 4.3-9.8 4.5-12.4 0.1-1.2 1.1-3.8 2.1-6 0.6 5 0.5 12.5-1.3 20.1C344.2 342.7 345.6 351.3 346.2 353.7z" class="c"/><path d="M328.5 377.1c0.1-0.1 0.2-0.2 0.3-0.4 0.2-0.2 0.3-0.4 0.5-0.6 1.5-2.1 2.7-3.7 6-4.6 2.7-4.1 4.3-10.9 2.3-22.9l-0.2-1 0.9 0.4c0.3 0.1 0.6 0.2 1 0.2 0.9 0 1.8-0.5 2.3-1.4 0.5-0.9 0.4-1.9-0.1-2.8 -1.9-3.1-2.6-12.7-0.1-17.1 2.3-4.1 4.1-9.5 4.4-12 0.2-1.7 1.8-5.5 2.8-7.9 0-0.1 0-0.2-0.1-0.4 -14.1-4.2-21.8-11.7-26.2-19 -0.1 5.7-0.8 15-3.2 29.8 -2.8 17.8-2.2 21.2-1.8 23.3 0.1 0.6 0.2 1.2 0.2 1.9 0 0.6 0.1 1.6 0.2 2.7 0.5 4.3 1.2 10.9-3.8 12.1 -1 0.2-2 0.3-3.3 0.3 -0.7 0-1.4 0-2.1-0.1 -0.7 0-1.3-0.1-1.9-0.1 -2.9 0-5.3 0.7-7.9 4.1 -2.9 3.8-3.8 8-3 9.8 0.3 0.6 0.7 0.9 1.2 1 0.9-7.3 7.3-10.7 7.3-10.7 -0.1 0-5.7 4.1-6.3 11.2 0.7 1.2 4.6 3.6 8.9 3.6 0.4 0 0.8 0 1.2-0.1 -2.7-3.8 3.5-10.8 3.5-10.8 -0.1 0.1-5.5 7.6-2.3 10.6l0 0 0.2 0.3c1 1.2 5.1 2.2 9.5 2.2C322.6 378.7 325.9 378.1 328.5 377.1z" class="b"/><path d="M381.1 206.4c0.4 1.7 0.9 3.5 1.5 5.5 1.1-1.1 1.9-2.1 2.5-3.1C384.3 207.8 383 207 381.1 206.4z" class="d"/><path d="M328 220.2c-1.2 1.1-2 2.2-2.6 3.2 0.5 0.7 1.3 1.3 2.4 1.8C328 223.5 328.1 221.9 328 220.2z" class="d"/><path d="M323.8 226.3c0 0 0 0 0 0C323.8 226.3 323.8 226.3 323.8 226.3z" class="e"/><path d="M323.7 225.7c0 0 0 0 0 0C323.7 225.7 323.7 225.7 323.7 225.7z" class="e"/><path d="M385.6 207.8c0 0 0.1 0.1 0.1 0.1C385.7 207.9 385.7 207.9 385.6 207.8z" class="e"/><path d="M324 224.3c-0.1 0.2-0.1 0.3-0.1 0.5l0 0C323.9 224.6 323.9 224.4 324 224.3z" class="e"/><path d="M323.8 225.1c0 0 0-0.1 0-0.1C323.8 225.1 323.8 225.1 323.8 225.1z" class="e"/><path d="M324.4 223.1c-0.2 0.3-0.3 0.7-0.4 1 0.1-0.3 0.2-0.6 0.3-0.9L324.4 223.1z" class="e"/><path d="M381.1 206.4c1.9 0.6 3.2 1.4 4 2.4 0-0.1 0.1-0.2 0.1-0.3l0.4-0.8c-1-1.1-2.6-1.9-4.7-2.5C380.9 205.6 381 206 381.1 206.4z" class="e"/><path d="M325.3 223.2c0 0.1 0.1 0.1 0.2 0.2 0.5-1 1.4-2.1 2.6-3.2 0-0.5 0-0.9-0.1-1.4 -1.4 1.2-2.4 2.4-3.1 3.6L325.3 223.2z" class="e"/><path d="M302.6 103.4c-0.4-2.1-2.2-5.6-8.6-7 -1.7 0.9-3.6 2.1-5.5 3.6 3.3 1.5 9 4.3 12 7.3 0.7-0.4 1.5-0.9 2.2-1.3C302.8 105.3 302.8 104.4 302.6 103.4z" class="b"/><path d="M299.5 108c-3-2.9-9-5.8-12-7.2 -1.6 1.3-3.3 2.7-5 4.2 4.1 0.4 10.5 1.4 15.2 4.3C298.3 108.8 298.9 108.4 299.5 108z" class="f"/><path d="M305.9 104.6c0.4-0.2 0.8-0.3 1.2-0.4 -2.3-3.5-6.5-9-9.6-9 -0.2 0-0.4 0-0.7 0.1 -0.5 0.1-0.9 0.3-1.4 0.5 6 1.7 7.7 5.3 8.1 7.5 0.2 0.8 0.2 1.6 0.2 2.3C304.5 105.2 305.2 104.9 305.9 104.6z" class="f"/><path d="M296.6 94.2c0.3-0.1 0.6-0.1 0.9-0.1 4 0 8.7 6.6 10.7 9.7 3.4-1.1 7-1.6 10.8-1.7 -3.6-2.7-9.9-7.8-16.3-13.8 -4.4-4.7-9.6-7.1-15.4-7.1 -3.6 0-6.7 0.9-9 1.9 -11.1 4.8-15.7 17.2-15.8 17.3 0 0 2.8-9.8 10.9-15.7 -0.7 0-1.4-0.1-2.1-0.1 -19.6 0-23.7 14-27.1 25.2 -1.1 3.6-2.1 7-3.5 9.4 -0.2 0.4-0.5 0.8-0.7 1.1 -1.3 2.1-2.4 3.9-1.9 5 0.3 0.7 1.2 1.1 2.8 1.4 0.1 0 0.2 0 0.4 0h0c14.5 0 27.5-11.3 38-20.4C285.9 100.6 291.6 95.6 296.6 94.2z" class="f"/><path d="M366.4 295.4c-2.4-1.9-3.1-5.4-1.7-10.4 3.5-9 0.8-15.7-1.9-19 -2.8-3.3-4-4.6-4.5-7.6 -3.4-5.5-3.4-10.6-3.4-14.8 -5.9 1.3-11.6 1.9-16.4 1.9h0c-6.3 0-10.7-1.1-12.8-3.1 -0.8 4.3-1.8 8.1-3.6 9.8 -3.1 2.9-6.7 11.1-5.1 16.6 0.2 0.6 0.3 1.4 0.5 2.4 1.5 7.4 5.4 26.2 30.7 34.1 -0.2-0.8-0.4-1.4-0.6-1.8 0 0 4.8 7 1 25.7 -3.2 13.5-1.8 22-1.3 24.3 0.9 3.9 0 13.5-2.6 17 -0.7 0.9-1.4 1.4-2.2 1.4 -8.8-0.1-10.2 1.8-12.3 4.8 -0.1 0.2-0.3 0.4-0.5 0.6 -2.2 3-4.3 6.2-3.9 8.4 2-2.1 8.2-8.5 8.2-8.5 -3.2 3.4-7.5 9.1-7.9 9.8 -0.3 0.7-0.2 1.3 0.2 2.1 1.5 2.5 6.8 4.8 11.4 5.7 -0.6-0.8-1-1.7-1.2-2.7 -0.7-4.8 5.1-10.3 5.1-10.3 0 0.1-4.7 5.8-4.1 10.1 0.2 1.3 0.9 2.4 2.1 3.2 7 2.4 14.8 1.7 21.8-1.9 7.6-5 7.3-18.6 7.2-26.7 0-1.4 0-2.7 0-3.7l0-0.3 0.3-0.1c2.5-1 4-2.2 4.5-3.4 0.5-1.4-0.1-2.7-0.8-4.2 -0.2-0.4-0.4-0.9-0.6-1.3 -1.2-3.2 0.9-8.2 10-29.2l0.4-0.9c9.5-21.2 8.4-28.9 7-31.6 -0.3-0.5-0.6-0.9-0.9-1.1l-20.8 6.9C367.3 296.5 366.9 295.9 366.4 295.4z" class="b"/><path d="M399.4 311.7c-5.6-2-6.5-4.6-8.3-12.4 -0.1 1.1-0.3 2.2-0.5 3.6 -1 5-3.2 11.7-7.3 20.7l-0.4 0.9c-0.7 1.7-1.4 3.3-2.1 4.8 0 0 0 0 0 0 -0.8 1.8-1.5 3.5-2.2 5 1 1.4 2 2.9 3 4.5 3.3-3.9 8-7.5 13.4-9.9 6.3-2.6 12.1-3.5 17.3-3.6C411 315.6 405.1 313.8 399.4 311.7z" class="b"/><path d="M341.8 214.1c0.1-2.8-1.9-4.7-4.8-6.1 -0.7 0.1-1.3 0.1-2 0.1 -1.7 0-3.4-0.1-5.1-0.5 -0.9 0.8-1.7 1.5-2.5 2.1 1.3 4.6 2.2 10.3 1.4 16 2.3 0.8 5.4 1.2 9.2 1.2 2.4 0 4.9-0.2 7.6-0.5 -0.4-1.8-0.4-3.3-0.5-4.2C343.5 221.4 341.7 218.4 341.8 214.1z" class="b"/><path d="M328 220.2c0.1 1.6 0 3.3-0.2 5 0.3 0.1 0.7 0.3 1 0.4 0.7-5.7-0.1-11.4-1.4-16 0.8-0.6 1.7-1.3 2.5-2.1 0 0 0.1 0 0.1-0.1l0 0c0.2-0.3 0.4-0.5 0.6-0.8 1.1-1.4 1.8-3.2 2.2-5 -0.1-0.1-0.4 0.3-0.8 0.9 -0.8 1.2-1.9 3.2-2.8 4.2 -4.7 4.2-8.4 5.8-10.8 6.9 -0.8 0.4-1.5 0.7-2 1 1.3-3.2 3.3-8.2 3.3-8.2 -0.8 1.1-1.7 2.3-5.3 10.2 -1.7 2.1-5.9 5.5-15 5.5 -1.8 0-3.8-0.1-5.9-0.4 -7.3-1.1-11.4-2.9-12.7-5.6 -0.9-1.9-0.4-4.3 1.5-7.4 1.4-2.3 2.4-5 3.1-7.7 0.9 0.2 1.9 0.3 2.9 0.3 0.4 2.5 0.4 6.6-3.6 10.1 -0.9 0.9-1.2 2.1-0.7 3.1 0.8 2 3.9 3.3 8.6 3.5 0.1 0 0.3 0 0.4 0 0.4 0 0.9 0 1.4 0 0 0 0 0 0 0 1.7 0 3.7-0.1 5.8-0.3 7.2-1 9.7-6.1 11.7-10.8 0.1-0.3 0.3-0.6 0.4-0.9 0.7-1.8 1.4-3.5 2.4-4.9 0.9-1.3 2-3 3.2-4.6 0 0 0 0 0 0 3.1-4.2 6.7-8.7 7.9-10.1 0.4 0.4 0.9 0.8 1.2 1.2 0 0-0.9-2.3-5.3-5.1 -3.6-1.9-7.7-2.1-7.7-2.1 0 0 2.6 0.8 5.6 2.2 -9.1 11.3-18.7 17.2-28.5 17.7 -12.2 0.5-21.3-7.7-24.6-11.3l0 0v0c0 0 0 0 0 0l-0.2-0.2 0 0c-3.5-3.5-3.3-7.7-3.3-7.8 0 0-1.2 4.4 2.2 8.2 -6.2 2.1-10.7 1.6-13.1-1.5 -2.8-3.7-2.3-10.7 0-17.3 -0.2-0.4-0.5-0.8-0.7-1.2 -2.7 7-3.4 14.8-0.2 19 1.9 2.5 6 4.8 14.7 1.7 2.9 3.1 9.6 8.9 18.5 10.8 -0.6 2.7-1.6 5.2-2.9 7.4 -2.1 3.4-2.6 6.1-1.5 8.4 1.4 3.1 5.8 5.1 13.5 6.2 2.1 0.3 4.1 0.4 6 0.4 9.6 0 14.1-3.7 15.9-5.9l0 0c0 0 0 0 0 0 0.4-0.4 0.6-0.8 0.8-1.1 0.5-0.5 1.5-0.9 2.8-1.5 1.9-0.8 4.4-2 7.6-4.2 0.7 2.6 1.2 5.5 1.4 8.5C328 219.3 328 219.8 328 220.2zM295.8 200.7c0.7-0.2 1.5-0.4 2.2-0.6 1.9-0.6 3.8-1.4 5.7-2.3 0.5-0.3 1-0.5 1.5-0.8 5.2-3 10.3-7.7 15.3-13.8 1.5 0.8 3 1.6 4.3 2.7 -1.1 1.3-4.4 5.4-7.4 9.4 -0.6 0.8-1.2 1.6-1.8 2.4 -0.2 0.3-0.5 0.7-0.7 1 0 0 0 0.1-0.1 0.1 -0.2 0.3-0.4 0.6-0.6 0.9 -0.2 0.3-0.4 0.6-0.6 0.9 -1 1.5-1.7 3.3-2.4 5.1 -2 4.9-4.1 10-11.2 11.1 -1.9 0.2-3.7 0.3-5.3 0.3 -0.1 0-0.2 0-0.4 0 0 0 0 0 0 0 -0.9 0-1.8 0-2.5-0.1 -5.5-0.4-6.7-2.2-6.9-2.8 -0.3-0.7-0.1-1.4 0.5-2 4.2-3.7 4.4-8.1 3.9-10.9 0.2 0 0.4 0 0.6 0 0.4 0 0.8 0 1.1 0C292.6 201.3 294.2 201 295.8 200.7z" class="c"/><path d="M378.6 197.1c-1.5 1.9-3 3.4-3 3.4 7.7-10.5 16.3-33.3 8.4-53.1 -3.8-10.8-7.6-17.6-13.4-23 -3.4 1.8-6.5 2.3-6.5 2.3 9.1-3.4 16.3-10.9 19.7-20.7 3.1-8.9 2.5-18.1-1.8-25.2 -7.6-12.3-20.9-23.4-39.5-33 3.1 3.4 6.4 6.5 6.4 6.6 0 0-5.6-3.9-9-7.9l0 0 -0.1-0.1c0 0 0 0 0 0l0 0c-1.4-1.7-3.2-3.4-4.9-3.2 -1.4 0.2-2.8 1.7-4.3 4.4 -3.2 7.9 1.2 17.5 5.4 26.8 1.2 2.7 2.4 5.3 3.3 7.8 2.7 8.2 3.6 14 3.7 18.1 -0.3 8.6-4.3 8.9-4.3 8.9 0 0 1-0.4 1.9-2 -13.3-4.9-24.8-5.5-34.4-1.7 -11.4 4.5-17 14-19.3 19.4 -0.5 1.5-0.8 3.1-1.1 4.6 2.1-2.1 4.3-3.1 6.2-2.5 3.7 1.1 5 7.8 3.2 15.4 2-2.4 3.7-5.1 5.1-8.2 8.8-19.7 14.5-25.6 15.6-25.3 1.7 0.4-5.6 13.4-8.8 29.4 -3.2 16-0.7 24 5.4 31 6.1 6.8 13.4 6.7 16.9 13.6 2.7 5.3 4.2 13.6 2.4 19.7 0.4-0.6 0.7-1 0.8-0.9 -0.4 1.9-1.1 3.6-2.2 5 7.6 1.4 17-1.7 17.1-1.8 0 0-5.1 2.6-10.8 3.1 2.9 1.4 4.8 3.3 4.8 6.1 -0.1 4.3 1.8 7.4 3.3 8.2 0 0.8 0.1 2.4 0.5 4.2 4-0.5 8.2-1.3 12.4-2.5 10.1-2.8 18.9-7 23.8-11.2C379.9 206.8 379.1 202.7 378.6 197.1zM335.4 50.5l0.1-1.2 0.8 0.8c2.6 2.7 5.1 4 8.5 5.8 3.7 2 8.4 4.5 15.4 9.9 10.6 8.2 17.5 22.5 17.2 35.6 -0.8 13.5-11 17.8-14.9 18.3l-1 0.1 0.5-0.9c0.6-1.2 1.3-2.5 1.8-3.6 -1.4 1.2-3.3 2.8-4.4 3l-1.2 0.2 0.7-1c0.6-1 2-5.9 1.9-9.3 -0.8 2.1-2.3 5-4.4 6l-0.9 0.4 0.2-1c2.7-15.2-6.6-38-12.3-43.5C334.8 61.2 335.3 50.9 335.4 50.5zM327.7 122c0.6-1.1 2.3-1.9 4.2-1.9 2.3 0 7.9 1.2 10.3 11.8l0.4 2.2c0-0.1-4.3-10.4-14.5-11.4l-0.8-0.1L327.7 122zM301.7 115.7c-6.6 0.1-13.8 8.6-13.8 8.6l1.2-2.2c4.3-7.3 7.8-8.9 9.9-8.9 1.3 0 2.5 0.6 3.1 1.6l0.5 0.8L301.7 115.7zM332.1 133.4c7.8 0 14.1 8.2 14.1 18.3 0 5.6-2 10.7-5.1 14 0.4-0.1 0.8-0.3 1.2-0.4 0 0-4.2 2.9-11.1 3 -5.5 0-8.3-1.2-9.5-1.9 -0.5-0.3-0.7-0.5-0.7-0.5 0 0 0.5 0.2 1.4 0.4 -3-3.3-4.9-8.1-4.9-13.6 0-3.4 0.8-6.6 2.1-9.3C321.8 137.5 326.6 133.4 332.1 133.4z" class="f"/><path d="M390.6 226c6.9 5.2 12.8 13.7 14.6 21.4 0.4 2.2-0.3 4.7-0.4 4.7 0 0 1.1-1.7 1.4-3.6 9.7 8.1 26.4 27.7 36.5 39.6 2.7 3.1 4.8 5.6 6.1 7.1 5.4 6.1 8.1 26.3 8.8 43.1 0 0.6 0.1 1.2 0.1 1.8l0 0c0 0 0 0 0 0 0.3 2 0.5 4 0.7 5.8 1.2 12.7-0.3 19.9-4.7 21.9l-0.4 0.2c-1 0.4-2.3 0.9-3.5 1.4 0 0 0 0-0.1 0 -2.9 0.9-8 2-12.6 2.8 -7.2 1.3-12.4 1.9-16.4 2.1 0 0-0.1 0-0.1 0 -0.1 0 1.4 1 1.7 1 0 0 0 0 0 0 0 0 0 0 0 0 0.2 0 0.5 0 0.8 0 2.3-0.1 5.1-0.5 7.8-0.9 4.2-0.6 8.4-1.5 11.2-2 4.4-0.9 7.8-2 7.8-2 0.2 0 0.4-0.1 0.5-0.2 1.2-0.3 2.3-0.6 3.2-1.1 0.2 0.5 0.6 1.5 1.1 2.9 0 0.1 0 0.1 0.1 0.2 0 0.1 0.1 0.3 0.1 0.4 0 0.1 0.1 0.2 0.1 0.3 0 0.1 0.1 0.3 0.1 0.4 0 0.1 0.1 0.3 0.1 0.4 0 0.1 0.1 0.2 0.1 0.4 0 0.2 0.1 0.4 0.1 0.6 0 0.1 0 0.2 0.1 0.3 0.1 0.3 0.1 0.6 0.2 0.9 0 0 0 0 0 0 0 0.1 0 0.1 0 0.2 0.1 0 0.1 0 0.2 0 0.3 0 0.6-0.1 0.9-0.1 0 0 0 0 0 0 -0.1-0.4-0.1-0.8-0.2-1.1 -0.1-0.2-0.1-0.5-0.2-0.7 -0.1-0.3-0.1-0.6-0.2-0.9 -0.1-0.2-0.1-0.4-0.2-0.6 -0.1-0.2-0.1-0.4-0.2-0.6 0-0.2-0.1-0.3-0.1-0.5 -0.1-0.2-0.1-0.4-0.2-0.6 0-0.1-0.1-0.2-0.1-0.3 -0.1-0.2-0.1-0.4-0.2-0.6 0-0.1 0-0.1-0.1-0.2 -0.1-0.2-0.2-0.4-0.2-0.6 0 0 0 0 0 0 -0.1-0.2-0.2-0.4-0.2-0.5 1.7-0.9 3.5-2.7 4.5-7 4.1 1.9 10.9 4.3 19.3 5 0.6 0 1.1 0.1 1.7 0.1 0.3 0 0.7 0.1 1 0.1 0 0 0 0 0 0v0l0-1.1 -0.5 0c-0.7 0-1.4-0.1-2.1-0.1 -8.5-0.6-15.3-3.2-19.2-5 0.8-4.2 0.8-10.6-0.6-20.3 0-0.6-0.1-1.3-0.1-1.9 -0.4-8.3-2-35.9-9.1-43.8 -1.3-1.5-3.4-4-6.1-7.1 -10.3-12.1-27.6-32.4-37.3-40.3 0-0.1 0-0.1 0-0.2 0-0.2-0.1-0.3-0.1-0.5l0 0c-2-8-7.9-16.3-14.9-21.5C390.9 225.3 390.8 225.7 390.6 226z" class="g"/><path d="M457.7 340.5l0 0c0-0.1 0-0.1 0-0.2C457.7 340.4 457.7 340.4 457.7 340.5z" class="g"/><path d="M286 129.6c0 0 0 0 0 0 0.2-1.6 0.6-3.1 1.1-4.6 2.3-5.3 7.9-14.9 19.3-19.4 9.6-3.8 21.2-3.2 34.4 1.7 -0.9 1.6-1.9 2-1.9 2 0 0 4-0.3 4.3-8.9 0-4.1-1-9.9-3.7-18.1 -1-2.5-2.1-5.1-3.3-7.8 -4.2-9.3-8.5-18.9-5.4-26.8 1.4-2.8 2.9-4.2 4.3-4.4 1.7-0.2 3.4 1.5 4.9 3.2l0 0c0 0 0 0 0 0l0.1 0.1 0 0c3.4 4 9 7.9 9 7.9 0 0-3.4-3.2-6.4-6.6 18.6 9.6 31.9 20.7 39.5 33 4.3 7.1 4.9 16.2 1.8 25.2 -3.4 9.7-10.6 17.2-19.7 20.7 0 0 3.1-0.5 6.5-2.3 5.7 5.4 9.6 12.2 13.4 23 7.9 19.7-0.7 42.5-8.4 53.1 0 0 1.4-1.5 3-3.4 0.4 5.6 1.3 9.8 3.1 15.7 0.3-0.3 0.6-0.5 0.9-0.8 -0.6-2-1.1-3.8-1.5-5.5 -0.1-0.4-0.2-0.8-0.3-1.2 -0.6-3-1-5.9-1.3-9.5 0.7-1 1.4-2 1.8-2.9 5.9-12.1 10-29.9 3.6-45.8 -3.8-10.9-7.7-17.7-13.4-23.2 0.5-0.3 1.1-0.7 1.6-1.1 5.2-4.1 9.3-9.7 11.6-16.4 3.2-9.2 2.5-18.7-1.9-26.1 -8.1-13-22.3-24.6-42.3-34.6 -1.6-1.9-3.5-3.7-5.7-3.5 -1.8 0.2-3.5 1.8-5.1 5 -3.3 8.4 1.3 18.6 5.4 27.6 1.2 2.7 2.4 5.3 3.3 7.7 4.5 13.7 4 20.4 2.7 23.7 -7.3-2.7-14.2-4.1-20.4-4.2 -3.3-2.4-10.2-7.9-17.3-14.6 -4.6-4.9-10-7.4-16.2-7.4 -5.7 0-10.3 2.2-12.6 3.5 -1.1-0.1-2.3-0.1-3.3-0.1 -20.4 0-24.8 15-28.1 25.9 -1.1 3.5-2 6.9-3.4 9.1 -0.2 0.4-0.4 0.7-0.7 1.1 -1.4 2.3-2.7 4.4-1.9 6 0.5 1 1.6 1.7 3.6 2l0.1 0c0.1 0 0.3 0 0.4 0h0c14.9 0 28.1-11.4 38.7-20.6 0.5-0.4 0.9-0.8 1.4-1.2 3.9 0.3 10.6 1.1 15.5 4 -5.8 4.8-9.1 10.8-10.8 14.6l0 0.1c-0.6 2-1 4.1-1.3 6.1C285.2 130.3 285.6 129.9 286 129.6zM241.3 126.7H241.3c-0.1 0-0.2 0-0.4 0 -1.6-0.3-2.5-0.8-2.8-1.4 -0.5-1.1 0.6-2.9 1.9-5 0.2-0.4 0.4-0.7 0.7-1.1 1.4-2.4 2.4-5.8 3.5-9.4 3.3-11.2 7.5-25.2 27.1-25.2 0.7 0 1.4 0 2.1 0.1 -8.1 6-10.9 15.7-10.9 15.7 0-0.1 4.6-12.5 15.8-17.3 2.3-0.9 5.4-1.9 9-1.9 5.8 0 11 2.4 15.4 7.1 6.4 6.1 12.7 11.1 16.3 13.8 -3.8 0.1-7.4 0.6-10.8 1.7 -2-3.1-6.7-9.7-10.7-9.7 -0.3 0-0.6 0-0.9 0.1 -5 1.4-10.7 6.4-17.3 12.1C268.8 115.4 255.8 126.7 241.3 126.7zM300.4 107.4c-3-3-8.7-5.9-12-7.3 1.9-1.5 3.8-2.7 5.5-3.6 6.5 1.4 8.2 4.9 8.6 7 0.2 1 0.2 1.9 0.1 2.7C301.9 106.5 301.1 106.9 300.4 107.4zM303.6 103.2c-0.5-2.2-2.2-5.8-8.1-7.5 0.5-0.2 0.9-0.4 1.4-0.5 0.2-0.1 0.4-0.1 0.7-0.1 3.1 0 7.4 5.5 9.6 9 -0.4 0.1-0.8 0.3-1.2 0.4 -0.7 0.3-1.5 0.6-2.2 0.9C303.8 104.8 303.8 104 303.6 103.2zM287.5 100.8c3 1.3 9.1 4.2 12 7.2 -0.6 0.4-1.3 0.9-1.9 1.3 -4.7-2.9-11.1-4-15.2-4.3C284.2 103.5 285.9 102.1 287.5 100.8z" class="g"/><path d="M337 208c5.7-0.5 10.8-3.1 10.8-3.1 -0.1 0-9.5 3.2-17.1 1.8 -0.2 0.3-0.4 0.6-0.6 0.8l0 0c0 0-0.1 0-0.1 0.1 1.6 0.4 3.4 0.5 5.1 0.5C335.7 208.1 336.3 208 337 208z" class="g"/><path d="M338.4 166.5c2.5-2.2 4.3-5.5 5.2-9.2 0 0 0-0.1 0-0.1 0.1-0.4 0.2-0.8 0.2-1.2 0.2-1 0.2-2.1 0.2-3.2 0-1.7-0.2-3.4-0.6-4.9 0-0.1-0.1-0.2-0.1-0.3 -0.1-0.4-0.2-0.7-0.3-1.1 -0.1-0.4-0.3-0.8-0.4-1.2 0 0 0-0.1 0-0.1 -0.6-1.4-1.3-2.7-2.2-3.9 -2.4-3.1-5.5-4.8-8.9-4.9h-0.1c-0.8 0-1.6 0.1-2.4 0.3 -5.9 1.5-10.3 8.3-10.4 16.1 -0.1 4.4 1.2 8.6 3.6 11.7 0.6 0.8 1.3 1.5 2 2.2C327.5 167.3 332.8 167.7 338.4 166.5zM322.6 153.4c0.6-6.2 4.9-10.7 9.7-10.1 4.8 0.6 8.2 6.2 7.6 12.4 -0.6 6.2-4.9 10.7-9.7 10.1C325.4 165.2 322 159.6 322.6 153.4z" class="h"/><path d="M322.4 166.3c0.5 0.1 1.2 0.3 1.9 0.4 -0.7-0.6-1.4-1.3-2-2.2 -2.4-3.1-3.7-7.3-3.6-11.7 0.1-7.8 4.5-14.6 10.4-16.1 0.8-0.2 1.6-0.3 2.4-0.3h0.1c3.4 0 6.5 1.7 8.9 4.9 0.9 1.2 1.6 2.5 2.2 3.9 0 0 0 0.1 0 0.1 0.2 0.4 0.3 0.8 0.4 1.2 0.1 0.4 0.2 0.7 0.3 1.1 0 0.1 0.1 0.2 0.1 0.3 0.4 1.6 0.6 3.2 0.6 4.9 0 1.1-0.1 2.1-0.2 3.2 -0.1 0.4-0.1 0.8-0.2 1.2 0 0 0 0.1 0 0.1 -0.8 3.8-2.7 7-5.2 9.2 0.9-0.2 1.8-0.4 2.7-0.7 3.1-3.4 5.1-8.4 5.1-14 0-10.1-6.3-18.3-14.1-18.3 -5.5 0-10.2 4.1-12.6 10 -1.3 2.7-2.1 5.9-2.1 9.3C317.4 158.2 319.4 163 322.4 166.3z"/><path d="M339.9 155.7c0.6-6.2-2.8-11.7-7.6-12.4 -4.8-0.6-9.1 3.9-9.7 10.1 -0.6 6.2 2.8 11.7 7.6 12.4C335 166.4 339.4 161.9 339.9 155.7zM322.9 153.5c0.6-6 4.8-10.4 9.4-9.8 4.6 0.6 8 6 7.4 12 -0.6 6-4.8 10.4-9.4 9.8C325.7 164.9 322.3 159.5 322.9 153.5z" class="i"/><path d="M339.7 155.7c0.6-6-2.8-11.4-7.4-12 -4.6-0.6-8.9 3.8-9.4 9.8 -0.6 6 2.8 11.4 7.4 12C334.9 166.1 339.1 161.7 339.7 155.7zM325.9 154.6c0-4.2 2.6-7.6 5.7-7.6s5.6 3.4 5.6 7.7c0 4.2-2.6 7.6-5.7 7.6C328.4 162.2 325.9 158.8 325.9 154.6z" class="j"/><path d="M337.3 154.6c0.1-4.2-2.4-7.6-5.6-7.7s-5.7 3.4-5.7 7.6c-0.1 4.2 2.4 7.6 5.6 7.7C334.6 162.2 337.2 158.8 337.3 154.6z"/><path d="M338.4 166.5c-5.6 1.3-10.9 0.8-14.1 0.2 -0.7-0.1-1.4-0.3-1.9-0.4 -0.9-0.2-1.4-0.4-1.4-0.4 0 0 0.2 0.2 0.7 0.5 1.2 0.7 4 1.9 9.5 1.9 6.8-0.1 11.1-3 11.1-3 -0.4 0.1-0.8 0.3-1.2 0.4C340.2 166 339.3 166.3 338.4 166.5z" class="g"/><path d="M283.9 141.2c2.4-4.8 6-7 8.1-4.9 1.6 1.6 1.8 5.3 0.7 9.1 0.4-0.3 0.7-0.7 1-1 1-3.7 1.3-7.2 0.9-10 -0.4-1.7-1.1-3.1-2-4 -0.1-0.1-0.3-0.2-0.4-0.3 -0.4-0.3-0.9-0.5-1.3-0.5 -2.3-0.4-5 1.4-7.3 4.6 -1.3 2-2.5 4.5-3.3 7.2 -1.2 3.9-1.6 7.7-1.2 10.7 0.9 0.1 1.7 0.2 2.6 0.4 0.4 0.1 0.7 0.1 1 0.2C281.3 150 281.8 145.3 283.9 141.2z" class="h"/><path d="M278.9 152.1c-0.3-3 0-6.8 1.2-10.7 0.8-2.7 2-5.2 3.3-7.2 2.3-3.2 5-5 7.3-4.6 0.5 0.1 0.9 0.3 1.3 0.5 0.2 0.1 0.3 0.2 0.4 0.3 0.9 0.8 1.6 2.2 2 4 0.4 2.8 0.1 6.4-0.9 10 0.6-0.6 1.2-1.3 1.8-2 1.7-7.6 0.4-14.3-3.2-15.4 -1.9-0.6-4.1 0.4-6.2 2.5 0 0 0 0 0 0 -0.4 0.3-0.8 0.7-1.2 1.2 -2.2 2.4-4.3 6-5.6 10.3 -1.2 4-1.6 7.8-1.3 10.9C278.2 152 278.6 152 278.9 152.1z"/><path d="M284 141.4c2.3-4.6 5.8-6.8 7.8-4.7 1.6 1.6 1.7 5.2 0.6 9 0.1-0.1 0.1-0.1 0.2-0.2 1.1-3.8 0.9-7.5-0.7-9.1 -2.1-2.1-5.7 0.1-8.1 4.9 -2.1 4.1-2.6 8.8-1.4 11.4 0 0 0.1 0 0.1 0 0 0 0.1 0 0.1-0.1C281.5 150.1 282 145.5 284 141.4z" class="i"/><path d="M291.8 136.7c-2-2-5.5 0.1-7.8 4.7 -2 4.1-2.5 8.7-1.3 11.2 0.9-0.5 1.7-0.9 2.6-1.5 -1.1-1.3-1.1-4.5 0.1-7.6 1.4-3.4 3.7-5.4 5.2-4.4 1.5 1 1.6 4.6 0.3 8 0.5-0.4 1-0.9 1.5-1.4C293.5 141.9 293.4 138.2 291.8 136.7z" class="j"/><path d="M290.6 139.1c-1.5-1-3.8 1-5.2 4.4 -1.2 3.1-1.2 6.3-0.1 7.6 1.9-1.2 3.8-2.5 5.6-4.1C292.3 143.6 292.1 140 290.6 139.1z"/><path d="M329.7 182.9c-3.4-6.8-10.8-6.7-16.9-13.6 -6.1-7-8.6-15-5.4-31 3.2-16 10.4-29 8.8-29.4 -1.1-0.3-6.8 5.6-15.6 25.3 -1.4 3.1-3.2 5.8-5.1 8.2 -0.6 0.7-1.2 1.3-1.8 2 -0.3 0.4-0.7 0.7-1 1 -0.1 0.1-0.1 0.1-0.2 0.2 -0.5 0.5-1 0.9-1.5 1.4 -1.8 1.6-3.7 2.9-5.6 4.1 -0.9 0.5-1.7 1-2.6 1.5 0 0-0.1 0-0.1 0.1 5.7 1.3 9.6 4.1 9.6 4.1 -0.1-0.1-8.1-3.9-17-3.9 4.5 2.3 6.9 5.7 6.9 10.1 0 0.2 0 0.4 0 0.6 0 0 0 0.1 0 0.1 0 0.2-0.1 0.3-0.1 0.5 0 0 0 0 0 0.1 -1.3 4.6-9 10.6-15.8 12.8 0 0 0 0 0 0 0 0-0.1 0-0.1 0 -0.4 0.1-0.7 0.2-1 0.3 -0.1 0-0.2 0.1-0.3 0.1 -0.4 0.1-0.7 0.2-1.1 0.2 -0.1 0-0.1 0-0.2 0 -0.3 0.1-0.6 0.1-0.9 0.1 -0.1 0-0.2 0-0.3 0 -0.3 0-0.7 0-1 0 -2.7 0-6.4-3.3-9.1-7.5 -2.3 6.5-2.8 13.5 0 17.3 2.3 3.1 6.9 3.6 13.1 1.5 -3.4-3.8-2.2-8.2-2.2-8.2 0 0-0.2 4.3 3.3 7.8l0 0 0.2 0.2c0 0 0 0 0 0v0l0 0c3.4 3.6 12.5 11.8 24.6 11.3 9.8-0.4 19.4-6.4 28.5-17.7 -3-1.4-5.5-2.2-5.6-2.2 0 0 4.1 0.2 7.7 2.1 4.4 2.8 5.3 5.1 5.3 5.1 -0.4-0.4-0.8-0.8-1.2-1.2 -1.1 1.4-4.8 5.9-7.9 10.1 0 0 0 0 0 0 -1.2 1.7-2.4 3.3-3.2 4.6 -0.9 1.4-1.6 3.1-2.4 4.9 -0.1 0.3-0.3 0.6-0.4 0.9 -2 4.7-4.5 9.7-11.7 10.8 -2.1 0.2-4 0.3-5.8 0.3 0 0 0 0 0 0s0 0 0 0c-0.5 0-0.9 0-1.4 0 -0.1 0-0.1 0-0.2 0l-0.3 0 0 0c-4.7-0.2-7.8-1.5-8.6-3.5 -0.4-1.1-0.2-2.2 0.7-3.1 4-3.6 4.1-7.7 3.6-10.1 -1-0.1-1.9-0.2-2.9-0.3 -0.6 2.8-1.6 5.4-3.1 7.7 -1.9 3.1-2.3 5.5-1.5 7.4 1.3 2.7 5.4 4.6 12.7 5.6 2.1 0.3 4 0.4 5.9 0.4 9.1 0 13.3-3.4 15-5.4 3.6-7.9 4.5-9.1 5.3-10.2 0 0-2 5-3.3 8.2 0.6-0.3 1.2-0.6 2-1 2.4-1.1 6.1-2.7 10.8-6.9 0.9-1 2.1-3 2.8-4.2C333.9 196.5 332.3 188.2 329.7 182.9z" class="b"/><path d="M356.8 112.8c2.2-1.9 3.6-6.7 3.6-6.7l0.5-1.6 0.5 1.6c0.9 2.7-0.2 8.1-1.1 10.8 1.3-0.9 3.1-2.5 4.2-3.6l0.9-0.9v1.3c0 0.9-1.2 3.4-2 4.9 4.2-1 12.3-5.4 12.9-17.1 0.3-12.8-6.5-26.7-16.8-34.7 -7-5.4-11.6-7.8-15.3-9.8 -3-1.6-5.4-2.9-7.8-5.1 0.1 3 1.1 10.8 7.6 17.7C349.9 75.2 359 97 356.8 112.8z" class="b"/><path d="M355.5 113.8l-0.2 1 0.9-0.4c2.1-0.9 3.6-3.9 4.4-6 0.1 3.4-1.3 8.3-1.9 9.3l-0.7 1 1.2-0.2c1-0.2 3-1.8 4.4-3 -0.5 1-1.1 2.4-1.8 3.6l-0.5 0.9 1-0.1c3.9-0.5 14.1-4.8 14.9-18.3 0.3-13.1-6.6-27.4-17.2-35.6 -7-5.4-11.7-7.9-15.4-9.9 -3.4-1.8-5.9-3.1-8.5-5.8l-0.8-0.8 -0.1 1.2c0 0.4-0.6 10.7 7.9 19.8C349 75.8 358.3 98.5 355.5 113.8zM344.3 56.9c3.7 2 8.3 4.4 15.3 9.8 10.3 8 17.1 21.9 16.8 34.7 -0.7 11.7-8.8 16.1-12.9 17.1 0.8-1.5 2-4 2-4.9v-1.3l-0.9 0.9c-1.1 1.1-2.9 2.7-4.2 3.6 0.9-2.7 2-8.1 1.1-10.8l-0.5-1.6 -0.5 1.6c0 0.1-1.4 4.8-3.6 6.7 2.2-15.8-6.9-37.6-12.7-43.3 -6.5-6.9-7.5-14.8-7.6-17.7C338.8 54 341.3 55.3 344.3 56.9z" class="g"/><path d="M289.3 201.3c0.4 2.8 0.2 7.1-3.9 10.9 -0.6 0.6-0.8 1.3-0.5 2 0.2 0.6 1.4 2.4 6.9 2.8 -1.4-2.4-2.7-7.3 2.1-14.1 0.6-0.8 1.2-1.5 1.8-2.2 -1.6 0.3-3.2 0.6-4.8 0.6 -0.4 0-0.8 0-1.1 0C289.7 201.3 289.5 201.3 289.3 201.3z" class="k"/><path d="M317.4 195.2c3-4 6.3-8.2 7.4-9.4 -1.3-1-2.9-1.9-4.3-2.7 -4.9 6.2-10 10.8-15.3 13.8 0.5 0.2 1 0.4 1.4 0.7C309.7 196.2 314.1 195.2 317.4 195.2z" class="k"/><path d="M294.8 203.5c-4.9 6.7-3.2 11.3-1.7 13.5 0.4 0 0.8 0 1.2 0 0.1 0 0.2 0 0.4 0 1.6 0 3.4-0.1 5.3-0.3 7.1-1 9.2-6.1 11.2-11.1 0.8-1.9 1.5-3.6 2.4-5.1 0.2-0.3 0.4-0.6 0.6-0.9 0.2-0.3 0.4-0.6 0.6-0.9 0 0 0.1-0.1 0.1-0.1 0.2-0.3 0.5-0.6 0.7-1 0.3-0.4 0.6-0.9 1-1.3 -3.7 0.2-7.6 1.4-9.9 2.5 -8.7 5.2-7.7 10.9-7.6 11.1 0 0-2.2-6.1 6.5-11.7 -0.5-0.3-1.1-0.5-1.9-0.5 -1.9 1-3.8 1.8-5.7 2.3C296.9 201 295.9 202.1 294.8 203.5z" fill="#FF6D6D"/><path d="M292.8 218.1c0.1 0 0.1 0 0.2 0 -0.1 0-0.3 0-0.4 0l0 0L292.8 218.1z" class="l"/><path d="M311.8 207c-2 4.7-4.5 9.7-11.7 10.8C307.3 216.7 309.8 211.7 311.8 207z" class="l"/><path d="M300.1 217.7c-2.1 0.2-4.1 0.3-5.8 0.3 0 0 0 0 0 0C296.1 218.1 298 218 300.1 217.7z" class="l"/><path d="M317.8 196.5c0 0 0 0 0 0C317.8 196.5 317.8 196.5 317.8 196.5z" class="l"/><path d="M291.8 216.9c0.8 0.1 1.6 0.1 2.5 0.1 0 0 0 0 0 0 -0.4 0-0.8 0-1.2 0 -1.5-2.2-3.1-6.8 1.7-13.5 1-1.4 2.1-2.5 3.2-3.4 -0.7 0.2-1.5 0.4-2.2 0.6 -0.6 0.6-1.2 1.4-1.8 2.2C289.1 209.6 290.5 214.5 291.8 216.9z" class="l"/><path d="M314.3 199.6c-0.2 0.3-0.4 0.6-0.6 0.9C313.9 200.2 314.1 199.9 314.3 199.6z" class="l"/><path d="M315 198.6c0 0 0 0.1-0.1 0.1C314.9 198.7 314.9 198.6 315 198.6z" class="l"/><path d="M300 216.7c-1.9 0.2-3.7 0.3-5.3 0.3C296.3 217 298.1 216.9 300 216.7z" class="l"/><path d="M299.1 209.9c0-0.2-1.1-5.9 7.6-11.1 2.3-1.1 6.2-2.3 9.9-2.5 -0.3 0.5-0.7 0.9-1 1.3 0.6-0.8 1.2-1.6 1.8-2.4 -3.4 0-7.7 1-10.8 2.5 -0.4-0.3-0.9-0.6-1.4-0.7 -0.5 0.3-1 0.6-1.5 0.8 0.8 0 1.4 0.2 1.9 0.5C296.9 203.8 299.1 209.9 299.1 209.9z" class="l"/><path d="M340 128.3c-2.5-6.3-6.3-7.1-8.1-7.1 -1.1 0-2 0.3-2.6 0.7C334.6 122.8 338 125.8 340 128.3z" class="m"/><path d="M342.6 134.2l-0.4-2.2c-2.4-10.7-8-11.8-10.3-11.8 -1.9 0-3.6 0.8-4.2 1.9l-0.4 0.7 0.8 0.1C338.2 123.9 342.5 134.2 342.6 134.2zM340 128.3c-2-2.5-5.3-5.5-10.7-6.4 0.6-0.4 1.6-0.7 2.6-0.7C333.6 121.2 337.5 122 340 128.3z" class="n"/><path d="M300.5 114.7c-0.4-0.2-0.9-0.4-1.5-0.4 -1.1 0-3 0.5-5.6 3.5C295.3 116.4 297.7 115.1 300.5 114.7z" class="m"/><path d="M299 113.3c-2.1 0-5.6 1.5-9.9 8.9l-1.2 2.2c0.1-0.1 7.2-8.5 13.8-8.6l1 0 -0.5-0.8C301.5 113.9 300.3 113.3 299 113.3zM299 114.4c0.5 0 1 0.1 1.5 0.4 -2.7 0.3-5.2 1.7-7 3.1C296 114.9 297.9 114.4 299 114.4z" class="n"/><path d="M464.3 381.5c3.4 0.2 7 0 10.6-0.7 2.5-0.5-1.2-3 1.1-3.8 2.2-0.8 4.6-1.3 2.8-3.4 -2.9-3.2 2.2-4.6 2.4-6.9 -0.3 0-0.7 0-1-0.1 -0.6 0-1.1-0.1-1.7-0.1 -8.5-0.6-15.3-3.1-19.3-5 -1 4.3-2.8 6.1-4.5 7 0.1 0.1 0.1 0.3 0.2 0.5 0 0 0 0 0 0 0.1 0.2 0.2 0.4 0.2 0.6 0 0.1 0 0.1 0.1 0.2 0.1 0.2 0.1 0.4 0.2 0.6 0 0.1 0.1 0.2 0.1 0.3 0.1 0.2 0.1 0.4 0.2 0.6 0 0.2 0.1 0.3 0.1 0.5 0.1 0.2 0.1 0.4 0.2 0.6 0.1 0.2 0.1 0.4 0.2 0.6 0.1 0.3 0.1 0.6 0.2 0.9 0.1 0.2 0.1 0.5 0.2 0.7 0.1 0.4 0.2 0.7 0.2 1.1 0 0 0 0 0 0 0.1 0.4 0.1 0.8 0.2 1.2 1.8 1.3 3.9 2.7 6.2 3.9C463.6 381.1 463.8 381.3 464.3 381.5z" class="f"/><path d="M464.3 381.5c-0.5-0.2-0.7-0.4-1.2-0.6 -2.3-1.3-4.4-2.7-6.2-3.9 0 0.3 0.1 0.6 0.1 0.9 0 0.2 0 0.3 0 0.5 1.7 1.2 3.6 2.4 5.7 3.5l0.1 0.1c0 0 0.5-0.1 1.5-0.4C464.3 381.5 464.3 381.5 464.3 381.5 464.3 381.5 464.3 381.5 464.3 381.5z" class="g"/><path d="M411.1 362c-1.8-4.6-3.7-4.5-5.1-7.6 -1.4-3.2 0.1-8.2 1.4-10.5 0 0-3.6-0.3-3.6-2.9 0-2.8 3.6-11.3 7.9-14.8 -4.9 0.3-10.5 1.3-16.3 3.7 -8.9 4-16 11.3-17.3 17.7 -0.5 2.4 0 4.5 1.4 5.9 0.8 0.8 1.6 1.7 2.4 2.5 4.3 4.6 7.9 8.7 13.1 8.9l0.1 0c2.8 0.9 4.5 2.1 6.2 3.5 2.5 2 5.3 4.2 12.7 5.7 0.3 0 3 0.2 6.7 0.2C414.7 370.5 412.3 365 411.1 362z" class="b"/><path d="M433.3 378.3c-4.5-0.4-8.1-1.5-11-3 0 0 0 0 0 0 0 0 0 0 0 0 -0.8 0-1.6 0-2.5 0 -3.5 0-6-0.2-6-0.2v0c-5.1 0-11.7-1.3-15.2-2.9 -2.3-1.1-4.3 0.8-6.4 2.9 -0.6 0.6-1.3 1.2-1.9 1.7 -2.1 1.7-6.5 6.5-6 9.7 0.2 1.1 0.9 1.9 2.3 2.5 5.8-10.4 12.4-10.4 12.4-10.4 -7 1.3-11.2 10.1-11.7 11.2 0 1.6 3.4 4 9.6 4.5 -0.2-5 7.3-10 7.3-10 -6.9 6.3-6.6 9.3-6.4 10.1l0 0 0.1 0.4c0 0 0.1 0.4 1.1 0.9 3.1 1.6 12.7 3.4 27-1.2l2.5-0.8c15.2-4.9 28.3-9.2 27.5-15.6 -0.1-0.8-0.2-1.5-0.3-2.1C448.8 378.3 440.6 378.9 433.3 378.3z" class="b"/><path d="M449.7 369.4c0 0 0 0 0.1 0 1.2-0.5 2.5-1 3.5-1.4l0.4-0.2c4.4-2 5.9-9.2 4.7-21.9 -0.2-1.7-0.4-3.5-0.6-5.4l0 0c0-0.1 0-0.1 0-0.2 0 0 0-0.1 0-0.1h0c0 0 0 0 0 0l0 0c0-0.6-0.1-1.2-0.1-1.8 -0.7-16.9-3.4-37-8.8-43.1 -1.3-1.5-3.4-4-6.1-7.1 -10.1-11.8-26.8-31.5-36.5-39.6 -0.2 2-1.4 3.7-1.4 3.7 0 0 0.8-2.5 0.4-4.7 -1.8-7.7-7.7-16.2-14.6-21.4 -3.1 5.6-14.7 12.1-29.8 16.3 -2 0.6-4 1-6 1.5 0 4.1 0 9.2 3.4 14.8 0.5 3 1.7 4.3 4.5 7.6 2.8 3.3 5.4 10 1.9 19 -1.4 4.9-0.7 8.4 1.7 10.4 0.6 0.5 1 1.1 1.2 1.8l20.8-6.9c-0.5-0.4-0.9-0.5-0.9-0.5 0 0 4.3 0.3 3.5 9.4 1.8 7.8 2.7 10.4 8.3 12.4 5.7 2.1 11.7 3.9 12.9 13.6 11.4-0.2 19.3 4 20.3 4.5 0 0 0 0 0 0 0 0 0.1 0 0.1 0 0 0-0.1 0-0.2-0.1 0 0 0 0-0.1 0 -0.1-0.1-0.3-0.1-0.4-0.2 0 0-0.1 0-0.1 0 -0.1 0-0.2-0.1-0.3-0.1 -0.1 0-0.2-0.1-0.2-0.1 -0.1 0-0.2-0.1-0.4-0.1 -0.1-0.1-0.3-0.1-0.5-0.2 -0.2-0.1-0.4-0.1-0.5-0.2 -0.1-0.1-0.3-0.1-0.4-0.2 -0.1-0.1-0.3-0.1-0.5-0.2 -0.2-0.1-0.4-0.1-0.6-0.2 -0.2-0.1-0.4-0.1-0.6-0.2 -0.2-0.1-0.5-0.1-0.8-0.2 -0.2 0-0.3-0.1-0.5-0.1 -0.3-0.1-0.5-0.1-0.8-0.2 -0.1 0-0.3-0.1-0.4-0.1 -0.4-0.1-0.8-0.2-1.3-0.3 -0.2 0-0.3-0.1-0.5-0.1 -0.3-0.1-0.7-0.1-1-0.2 -0.2 0-0.3-0.1-0.5-0.1 -0.5-0.1-1-0.2-1.6-0.2 -0.1 0-0.3 0-0.4 0 -0.4-0.1-0.9-0.1-1.3-0.1 -0.2 0-0.4 0-0.5 0 -0.6 0-1.2-0.1-1.8-0.1 0 0-0.1 0-0.1 0 -0.6 0-1.2 0-1.8 0 -0.2 0-0.4 0-0.5 0 -0.6 0-1.1 0-1.7 0.1 -0.1 0-0.2 0-0.2 0 -4.2 3.5-7.9 12-7.9 14.8 0 2.6 3.6 2.9 3.6 2.9 -1.3 2.4-2.9 7.4-1.4 10.5 1.4 3.2 3.3 3 5.1 7.6 1.2 3 3.6 8.5 9.5 12.3 0 0 0.1 0 0.1 0 4-0.1 9.2-0.8 16.4-2.1C441.8 371.4 446.8 370.3 449.7 369.4z" class="f"/><path d="M455.5 374.9c0-0.1 0-0.2-0.1-0.3 0-0.2-0.1-0.4-0.1-0.6 0-0.1-0.1-0.2-0.1-0.4 0-0.1-0.1-0.3-0.1-0.4 0-0.1-0.1-0.3-0.1-0.4 0-0.1-0.1-0.2-0.1-0.3 0-0.1-0.1-0.3-0.1-0.4 0-0.1 0-0.1-0.1-0.2 -0.4-1.4-0.8-2.4-1.1-2.9 -0.9 0.5-2 0.8-3.2 1.1 -0.1 0.1-0.3 0.1-0.5 0.2 0 0-3.4 1.2-7.8 2 -2.9 0.6-7.1 1.4-11.2 2 -2 0.4-4.6 0.8-7.8 0.9 -0.3 0-0.5 0-0.8 0 2.9 1.5 6.5 2.6 11 3 7.3 0.6 15.4 0 22.3-2.4 0 0 0-0.1 0-0.1 0 0 0 0 0 0C455.6 375.5 455.5 375.2 455.5 374.9z" class="f"/><path d="M457.7 340.3c0 0.1 0 0.1 0 0.2 0.3 1.9 0.5 3.7 0.7 5.4 -0.2-1.8-0.4-3.7-0.7-5.8h0C457.7 340.2 457.7 340.2 457.7 340.3z" class="c"/><path d="M455.8 371.9c0-0.2-0.1-0.3-0.1-0.5C455.7 371.6 455.8 371.7 455.8 371.9z" class="c"/><path d="M455.5 370.8c0-0.1-0.1-0.2-0.1-0.3C455.4 370.6 455.4 370.7 455.5 370.8z" class="c"/><path d="M454.8 369.1c0 0 0 0 0 0C454.8 369.1 454.8 369.1 454.8 369.1z" class="c"/><path d="M456.1 373.1c-0.1-0.2-0.1-0.4-0.2-0.6C456 372.7 456.1 372.9 456.1 373.1z" class="c"/><path d="M455.1 369.9c0-0.1 0-0.1-0.1-0.2C455.1 369.8 455.1 369.8 455.1 369.9z" class="c"/><path d="M456.5 374.7c-0.1-0.2-0.1-0.5-0.2-0.7C456.4 374.2 456.4 374.4 456.5 374.7z" class="c"/><path d="M432.5 329.8c0 0 0.1 0 0.1 0S432.5 329.8 432.5 329.8z" class="c"/><path d="M423.9 327c-0.2 0-0.3-0.1-0.5-0.1C423.5 326.9 423.7 327 423.9 327z" class="c"/><path d="M418.5 326.2c-0.2 0-0.4 0-0.5 0C418.1 326.2 418.3 326.2 418.5 326.2z" class="c"/><path d="M422.3 326.7c-0.2 0-0.3-0.1-0.5-0.1C422 326.7 422.1 326.7 422.3 326.7z" class="c"/><path d="M420.2 326.4c-0.1 0-0.3 0-0.4 0C420 326.4 420.1 326.4 420.2 326.4z" class="c"/><path d="M416.1 326.1c0 0-0.1 0-0.1 0C416 326.1 416.1 326.1 416.1 326.1z" class="c"/><path d="M428.3 328.2c-0.2-0.1-0.4-0.1-0.6-0.2C427.9 328 428.1 328.1 428.3 328.2z" class="c"/><path d="M432.6 329.8c0 0-0.1 0-0.2-0.1C432.5 329.8 432.6 329.8 432.6 329.8z" class="c"/><path d="M413.6 326c0.2 0 0.4 0 0.5 0C414 326 413.8 326 413.6 326z" class="c"/><path d="M425.6 327.4c-0.1 0-0.3-0.1-0.4-0.1C425.3 327.3 425.4 327.4 425.6 327.4z" class="c"/><path d="M431.2 329.2c-0.1 0-0.2-0.1-0.4-0.1C431 329.1 431.1 329.2 431.2 329.2z" class="c"/><path d="M431.8 329.4c-0.1 0-0.2-0.1-0.3-0.1C431.6 329.4 431.7 329.4 431.8 329.4z" class="c"/><path d="M432.3 329.7c-0.1-0.1-0.3-0.1-0.4-0.2C432 329.6 432.2 329.6 432.3 329.7z" class="c"/><path d="M426.9 327.8c-0.2 0-0.3-0.1-0.5-0.1C426.6 327.7 426.8 327.7 426.9 327.8z" class="c"/><path d="M429.4 328.5c-0.1-0.1-0.3-0.1-0.5-0.2C429.1 328.4 429.3 328.5 429.4 328.5z" class="c"/><path d="M430.4 328.9c-0.2-0.1-0.4-0.1-0.5-0.2C430.1 328.8 430.2 328.8 430.4 328.9z" class="c"/><path d="M455.1 373.3c0 0.1 0.1 0.3 0.1 0.4C455.1 373.6 455.1 373.4 455.1 373.3z" class="c"/><path d="M454.7 372c0 0.1 0 0.1 0.1 0.2C454.7 372.1 454.7 372 454.7 372z" class="c"/><path d="M455.3 374.1c0 0.2 0.1 0.4 0.1 0.6C455.4 374.4 455.3 374.2 455.3 374.1z" class="c"/><path d="M455.5 374.9c0.1 0.3 0.1 0.6 0.2 0.9C455.6 375.5 455.5 375.2 455.5 374.9z" class="c"/><path d="M454.9 372.6c0 0.1 0.1 0.2 0.1 0.3C454.9 372.8 454.9 372.7 454.9 372.6z" class="c"/><path d="M414.2 326c0.6 0 1.2 0 1.8 0 0 0 0.1 0 0.1 0 0.6 0 1.2 0.1 1.8 0.1 0.2 0 0.4 0 0.5 0 0.5 0 0.9 0.1 1.3 0.1 0.1 0 0.3 0 0.4 0 0.5 0.1 1.1 0.1 1.6 0.2 0.2 0 0.3 0.1 0.5 0.1 0.4 0.1 0.7 0.1 1 0.2 0.2 0 0.3 0.1 0.5 0.1 0.4 0.1 0.9 0.2 1.3 0.3 0.2 0 0.3 0.1 0.4 0.1 0.3 0.1 0.6 0.1 0.8 0.2 0.2 0 0.3 0.1 0.5 0.1 0.3 0.1 0.5 0.1 0.8 0.2 0.2 0.1 0.4 0.1 0.6 0.2 0.2 0.1 0.4 0.1 0.6 0.2 0.2 0.1 0.3 0.1 0.5 0.2 0.2 0.1 0.3 0.1 0.4 0.2 0.2 0.1 0.4 0.1 0.6 0.2 0.2 0.1 0.3 0.1 0.5 0.2 0.1 0.1 0.2 0.1 0.4 0.1 0.1 0 0.2 0.1 0.2 0.1 0.1 0 0.2 0.1 0.3 0.1 0 0 0.1 0 0.1 0.1 0.2 0.1 0.3 0.1 0.4 0.2 0 0 0 0 0.1 0 0.1 0.1 0.2 0.1 0.2 0.1 0 0 0 0-0.1 0 0 0 0 0 0 0 -1-0.5-8.9-4.7-20.2-4.5 -0.1 0-0.6 0.9-0.6 0.9 0.1 0 0.2 0 0.3 0 0.6 0 1.2 0 1.7 0C413.8 326 414 326 414.2 326z" class="g"/><path d="M423.1 375.3c3.3-0.1 5.9-0.5 7.8-0.9C428.2 374.8 425.4 375.2 423.1 375.3z" class="c"/><path d="M358.3 224.9c-7.1 2-14.3 3-20.3 3 -6.4 0-10.9-1.2-13-3.4 -0.2 0.7-0.2 1.4-0.1 2 0.8 2.8 5.7 4.5 13.1 4.5 5.1 0 11.2-0.8 17.4-2.3 0.9-0.2 1.8-0.4 2.6-0.7 8.2-2.3 15.6-5.4 20.8-9 3.8-2.6 6.4-5.9 6.9-8.8 0-0.1 0-0.3-0.1-0.4C382.2 215.4 371.5 221.3 358.3 224.9z" class="o"/><path d="M275.1 152.9c9 0 16.9 3.8 17 3.9 0 0-3.9-2.9-9.6-4.1 0 0-0.1 0-0.1 0 -0.3-0.1-0.7-0.1-1-0.2 -0.8-0.1-1.7-0.3-2.6-0.3 -0.4 0-0.7-0.1-1.1-0.1 -1.6-0.1-3.2-0.1-4.9 0C273.7 152.2 274.4 152.5 275.1 152.9z" class="c"/><path d="M274.7 168c-0.4-0.7-1.5-0.8-2.2-0.8 -0.2 0-0.5 0-0.7 0 -1.9 0.2-4.2 0.9-4.4 4.9 0 0.4 0 0.8 0 1.2 0 0.7 0 1.5-0.2 2.2 2.3-0.9 4.6-2.3 6.7-3.8C274.8 170 275.1 168.7 274.7 168z" fill="#492906"/><path d="M262.4 177.8c0.3 0 0.6-0.1 0.9-0.1C262.9 177.7 262.6 177.8 262.4 177.8z" class="p"/><path d="M261.1 177.9c0.3 0 0.7 0 1 0C261.7 177.9 261.4 177.9 261.1 177.9z" class="p"/><path d="M264.8 177.3c0.3-0.1 0.7-0.2 1-0.3C265.5 177.1 265.2 177.2 264.8 177.3z" class="p"/><path d="M263.4 177.6c0.4-0.1 0.7-0.1 1.1-0.2C264.1 177.5 263.8 177.6 263.4 177.6z" class="p"/><path d="M281.8 164.1c0-0.2 0.1-0.3 0.1-0.5C281.9 163.8 281.9 164 281.8 164.1z" class="p"/><path d="M282 163.5c0-0.2 0-0.4 0-0.6C282 163.1 282 163.3 282 163.5z" class="p"/><path d="M281.8 164.2c-0.8 2.8-4.1 6.1-7.2 8.3l-1.7 1.1 0.9-1.8c0-0.1 0.1-0.1 0.1-0.1 -2.1 1.5-4.4 2.8-6.7 3.8 -0.2 0.7-0.5 1.3-1.2 1.6C272.8 174.8 280.5 168.8 281.8 164.2z" class="p"/><path d="M258.2 175.7c-1.3-3.7 0.9-10.3 0.9-10.3 -0.6 2.7-1.7 10.1 1.3 11.4 0.2 0.1 0.4 0.1 0.7 0.1 1.3 0 2.9-0.3 4.6-0.8 0.6-0.2 0.7-1.2 0.7-2.7 0-0.4 0-0.8 0-1.2 0.2-3.6 2-5.5 5.3-5.9 0.3 0 0.6 0 0.8 0 1.5 0 2.6 0.5 3.1 1.4 0.4 0.7 0.4 1.7 0 2.9 3.3-2.7 5.3-5.5 5.3-7.4 0-7.8-8.2-10.6-15-11.7 -1.1-0.2-2.2-0.3-3.3-0.3 -7.6 0-13.4 3.8-13.4 9C249.2 165.4 254.1 172.8 258.2 175.7z" fill="#4F1C00"/><path d="M252 170.4c2.7 4.2 6.3 7.5 9.1 7.5 0.3 0 0.7 0 1 0 0.1 0 0.2 0 0.3 0 0.3 0 0.6-0.1 0.9-0.1 0.1 0 0.1 0 0.2 0 0.3-0.1 0.7-0.1 1.1-0.2 0.1 0 0.2-0.1 0.3-0.1 0.3-0.1 0.7-0.2 1-0.3 0 0 0.1 0 0.1 0 0 0 0 0 0 0 0.7-0.3 1.1-0.8 1.2-1.6 0.1-0.6 0.2-1.4 0.2-2.2 0-0.4 0-0.8 0-1.2 0.2-4 2.5-4.7 4.4-4.9 0.3 0 0.5 0 0.7 0 0.6 0 1.8 0.1 2.2 0.8 0.4 0.7 0.1 2-0.8 3.7 0 0.1-0.1 0.1-0.1 0.1l-0.9 1.8 1.7-1.1c3.1-2.2 6.4-5.5 7.2-8.3 0 0 0 0 0-0.1 0-0.2 0.1-0.3 0.1-0.5 0 0 0-0.1 0-0.1 0-0.2 0-0.4 0-0.6 0-4.4-2.4-7.8-6.9-10.1 -0.7-0.3-1.4-0.7-2.2-1 -2-0.7-4.3-1.3-6.9-1.7 -1.2-0.2-2.3-0.3-3.5-0.3 -8.3 0-14.4 4.2-14.4 10 0 2.7 1.3 6.2 3.1 9.3C251.5 169.6 251.8 170 252 170.4zM262.6 151c1.1 0 2.2 0.1 3.3 0.3 6.9 1 15 3.9 15 11.7 0 1.9-2 4.7-5.3 7.4 0.4-1.2 0.4-2.1 0-2.9 -0.5-0.9-1.6-1.4-3.1-1.4 -0.3 0-0.6 0-0.8 0 -3.4 0.4-5.1 2.3-5.3 5.9 0 0.4 0 0.8 0 1.2 0 1.5-0.1 2.5-0.7 2.7 -1.7 0.5-3.2 0.8-4.6 0.8 -0.2 0-0.4 0-0.6-0.1 -3-1.3-2-8.6-1.3-11.4 0 0-2.2 6.7-0.9 10.3 -4.1-2.8-9-10.3-9-15.7C249.2 154.9 255 151 262.6 151z" fill="#280E00"/><path d="M325.3 238.7l0 0.7c0 0.3 0 0.6 0.1 0.8 0.7 2.7 5.6 4.3 13 4.3h0c6.4 0 14.2-1.2 22.1-3.4 17.6-4.8 31.1-13.4 29.7-18.8 0-0.2-0.1-0.3-0.2-0.5 -0.5-1.3-2-5.2-3.5-9.6 -0.8 2.4-3.2 5-7.1 7.6 -5.3 3.6-12.8 6.8-21.1 9.1 -0.9 0.2-1.8 0.5-2.7 0.7 -6.2 1.5-12.4 2.3-17.6 2.3 -6.4 0-10.9-1.2-13-3.4l0.3 10L325.3 238.7z" class="o"/><path d="M325.6 242.5c2.1 2 6.5 3.1 12.8 3.1h0c4.8 0 10.5-0.7 16.4-1.9 2-0.4 4-0.9 6-1.5 15.1-4.1 26.7-10.7 29.8-16.3 0.2-0.3 0.3-0.7 0.5-1 0.4-1 0.4-1.9 0.2-2.8 -0.1-0.2-0.1-0.4-0.2-0.6 -0.6-1.5-2.5-6.8-4.4-12 0 0-0.2-0.7-0.4-0.9 -0.1-0.2-0.3-0.5-0.5-0.7 -0.1-0.1-0.1-0.1-0.1-0.1 0 0 0 0 0 0l0 0 -0.4 0.8c0 0.1-0.1 0.2-0.1 0.3 -0.5 1-1.4 2.1-2.5 3.1 -0.3 0.3-0.6 0.5-0.9 0.8 -4.9 4.2-13.7 8.4-23.8 11.2 -4.2 1.2-8.4 2-12.4 2.5 -2.7 0.3-5.2 0.5-7.6 0.5 -3.8 0-6.9-0.4-9.2-1.2 -0.4-0.1-0.7-0.3-1-0.4 -1.1-0.5-1.9-1.1-2.4-1.8 -0.1-0.1-0.1-0.1-0.2-0.2l-0.5-0.8 0-0.1 -0.4 0.8 0 0.1c-0.1 0.3-0.3 0.6-0.3 0.9 0 0 0 0.1 0 0.1 -0.1 0.2-0.1 0.4-0.1 0.5l0 0 0 0c0 0 0 0.1 0 0.3 0 0 0 0.1 0 0.1 0 0.2 0 0.3 0 0.6 0 0 0 0 0 0 0 0.1 0 0.2 0 0.3 0 0 0 0 0 0 0 0 0 0.1 0 0.1 0 0 0 0.1 0 0.2 0 0 0 0 0 0 0.4 3.5 0.5 13.2 0.5 13.2l0 0.7 0 0c0 0.2 0.1 0.3 0.1 0.4 0.1 0.3 0.2 0.6 0.3 0.8C325 241.8 325.3 242.2 325.6 242.5zM325 228.7c2.1 2.2 6.6 3.4 13 3.4 5.2 0 11.4-0.8 17.6-2.3 0.9-0.2 1.8-0.4 2.7-0.7 8.3-2.3 15.8-5.5 21.1-9.1 3.9-2.6 6.3-5.3 7.1-7.6 1.6 4.4 3.1 8.3 3.5 9.6 0.1 0.2 0.1 0.3 0.2 0.5 1.5 5.4-12.1 14-29.7 18.8 -7.9 2.2-15.8 3.4-22.1 3.4h0c-7.4 0-12.2-1.6-13-4.3 -0.1-0.3-0.1-0.5-0.1-0.8l0-0.7 0 0L325 228.7zM385.6 210c0 0.1 0 0.3 0.1 0.4 -0.5 2.9-3.1 6.2-6.9 8.8 -5.2 3.5-12.6 6.7-20.8 9 -0.9 0.2-1.8 0.5-2.6 0.7 -6.2 1.5-12.2 2.3-17.4 2.3 -7.4 0-12.3-1.7-13.1-4.5 -0.2-0.6-0.1-1.3 0.1-2 2.1 2.2 6.6 3.4 13 3.4 5.9 0 13.1-1.1 20.3-3C371.5 221.3 382.2 215.4 385.6 210z" fill="#4B0806"/><path d="M333.7 145c1.3 1 1.6 2.9 0.5 4.3 -1 1.3-2.9 1.6-4.2 0.5 -1.3-1-1.5-2.9-0.5-4.2C330.5 144.2 332.4 144 333.7 145z" class="q"/><path d="M333.1 151.9c0.6 0.4 0.7 1.2 0.2 1.8 -0.4 0.6-1.2 0.7-1.8 0.2 -0.6-0.4-0.7-1.2-0.2-1.8C331.8 151.6 332.6 151.5 333.1 151.9z" class="q"/><path d="M292.9 137.1c0.9 1.2 0.7 2.9-0.4 3.8 -1.2 0.9-2.9 0.7-3.8-0.4 -0.9-1.2-0.7-2.9 0.4-3.8C290.3 135.7 292 135.9 292.9 137.1z" class="q"/><path d="M290.9 142.8c0.4 0.5 0.3 1.2-0.2 1.6 -0.5 0.4-1.2 0.3-1.6-0.2 -0.4-0.5-0.3-1.2 0.2-1.6C289.8 142.3 290.5 142.4 290.9 142.8z" class="q"/></svg>