<svg version="1.1" xmlns="http://www.w3.org/2000/svg" xmlns:xlink="http://www.w3.org/1999/xlink" viewBox="0 0 768 430" style="enable-background:new 0 0 768 430;" xml:space="preserve"><g id="horse"> <g>  <path style="fill:#DDE4D0;" d="M562.255,200.889c0.693,1.66,1.272,3.4,1.729,5.229c0.464,1.829,1.057,3.498,1.759,4.991 c0.703,1.506,2.043,2.455,4.037,2.878c-3.289-3.51-4.877-7.444-4.771-11.806c0.119-4.359-0.782-8.575-2.675-12.642l-3.258-5.381 c1.741-0.024,3.023,0.728,3.814,2.24c0.814,1.51,1.49,3.129,2.074,4.867c0.579,1.747,1.202,3.318,1.87,4.701 c0.658,1.396,1.706,1.965,3.165,1.717c-1.688-1.404-2.9-3.111-3.651-5.121c-0.738-2.009-1.309-4.108-1.693-6.28 c0.058-0.511-0.38-1.854-1.317-4.037c-0.929-2.183-1.477-3.592-1.609-4.212c-0.238-0.634-0.734-2.142-1.512-4.509 c-0.756-2.372-1.282-3.621-1.569-3.758c-2.052-3.573-4.165-6.497-6.305-8.758c-2.153-2.272-4.982-4.048-8.511-5.336 c-0.968-0.411-2.803-0.886-5.486-1.434c-2.688-0.542-4.942-0.96-6.732-1.252c-1.3-0.243-2.812-0.377-4.536-0.408 c-1.72-0.038-3.09-0.105-4.103-0.213c-1.004-0.108-2.096,0.158-3.275,0.798c-1.194,0.631-2.291,0.949-3.308,0.937 c-1.021,0.099-2.316-0.041-3.854-0.413c-1.525-0.371-2.556-0.579-3.055-0.633c-0.407-0.043-1.296-0.084-2.657-0.13 c-1.366-0.045-2.476,0.042-3.308,0.254c-1.131,0.184-2.352,0.612-3.646,1.289c-1.296,0.673-2.507,1.104-3.647,1.288 c-1.977,0.396-3.457,0.491-4.447,0.289c-0.61-0.065-1.335-0.197-2.175-0.39c-0.845-0.187-1.45-0.458-1.822-0.803 c-0.366-0.443-1.405-1.372-3.139-2.779c-1.724-1.401-2.789-2.177-3.188-2.321c-0.301-0.032-1.357-0.783-3.183-2.255 c-1.831-1.465-3.086-2.385-3.749-2.757c-0.787-0.291-2.246-0.88-4.391-1.766c-2.135-0.897-3.952-1.572-5.424-2.036 c-1.791-0.396-3.811-0.788-6.044-1.183c-2.255-0.392-4.283-0.686-6.087-0.88c-1.513-0.162-3.188-0.188-5.031-0.084 c-1.848,0.11-3.479,0.185-4.907,0.236c-1.433,0.054-3.042,0.136-4.837,0.25c-1.795,0.108-3.399,0.242-4.841,0.395 c-2.259,0.165-4.766,0.481-7.497,0.952c-2.76,0.464-5.253,0.785-7.503,0.947c-1.353,0.163-2.843,0.31-4.479,0.438 c-1.649,0.131-3.13,0.224-4.452,0.283c-1.737,0.023-3.66-0.01-5.782-0.084c-2.14-0.073-4.054-0.256-5.751-0.54 c-1.508-0.161-3.131-0.434-4.873-0.829c-1.736-0.393-3.342-0.864-4.805-1.43c-1.464-0.461-3.104-1.146-4.885-2.049 c-1.786-0.898-3.29-1.822-4.505-2.769c-0.867-0.5-2.449-1.842-4.762-4.019l-1.154-0.586l15.929-0.583 c-2.621-1.289-5.689-2.284-9.213-2.964c-3.541-0.687-6.733-0.622-9.571,0.19c-0.27-2.168,0.146-3.436,1.256-3.829 c1.114-0.391,2.489-0.421,4.129-0.091c1.649,0.327,3.382,0.716,5.212,1.164c1.83,0.449,3.329,0.434,4.505-0.046 c-3.196-1.462-6.91-2.803-11.158-4.018c-4.24-1.217-8.374-0.67-12.379,1.647c-0.672-2.308,0.977-3.48,4.952-3.512 c3.961-0.034,7.144,0.176,9.54,0.636l-3.961-1.487c-2.091-0.426-4.187-0.778-6.295-1.06c-2.1-0.271-4.244-0.272-6.397,0 c-0.239-3.581,1.552-4.563,5.345-2.935c3.784,1.629,6.614,2.744,8.484,3.347c-2.361-1.675-4.62-3.309-6.795-4.919 c-2.167-1.607-5.376-1.47-9.651,0.418c-0.522-4.635,1.733-6.735,6.768-6.299c5.04,0.441,9.174,1.748,12.405,3.926 c-2.4-4.229-5.813-6.498-10.261-6.821c-4.438-0.323-8.577,0.328-12.405,1.949c-0.5-1.981,1.534-3.392,6.083-4.224 c4.585-0.836,9.351,0.185,14.333,3.056l0.791-0.367c-4.734-4.169-10.155-6.154-16.216-5.936 c-6.083,0.214-11.967,0.374-17.67,0.475c3.232-1.694,7.162-2.289,11.786-1.792c-1.339-1.77-3.426-2.678-6.269-2.733 c-2.855-0.052-5.795-0.034-8.851,0.045c4.965-2.723,9.881-2.552,14.739,0.512c-1.463-1.479-2.86-2.956-4.173-4.414 c-1.318-1.463-4.775-1.734-10.372-0.815l-2.679,0.786c0.194-1.81,1.317-2.731,3.36-2.764c2.029-0.037,3.713-0.085,5.044-0.145 c0.066-0.605-0.261-0.944-0.964-1.019c-3.625-1.302-7.299-1.829-11.039-1.566c-3.745,0.262-7.432,0.297-11.079,0.111 c-0.902-0.097-2.79-0.047-5.654,0.154c1.424-1.883,2.989-2.778,4.713-2.697c1.711,0.082,3.665,0.339,5.862,0.779 c0.685,0.177,1.905,0.714,3.638,1.611c-1.026-1.736-1.834-2.69-2.445-2.858c-3.629-2.215-7.476-3.214-11.569-2.991 c-4.098,0.224-7.732,0.977-10.92,2.266c-1.057,0.287-3.134,0.728-6.247,1.311c2.104-3.537,4.938-5.27,8.493-5.193 c0.809,0.087,1.618,0.529,2.449,1.328c-2.061-2.663-4.151-3.29-6.282-1.89c-2.135,1.397-4.279,2.648-6.433,3.737 c0.774-1.446,0.181-3.137-1.735-5.07c0.855,1.517,1.103,2.689,0.758,3.511c-0.345,0.831-0.711,1.679-1.109,2.552l-1.57,0.444 l-3.042-2.918l1.079,2.708l-0.345,0.417l-3.616-0.387l-1.061-0.114l-3.718-3.752l-3.828-4.224l-1.295-2.125l-0.615,5.734 l0.666,5.254l0.305,2.779c-0.736,1.241-1.147,2.167-1.211,2.77c-0.086,0.808-0.736,2.211-1.972,4.219 c-4.934,7.093-7.46,10.796-7.602,11.082c-0.236,0.28-0.703,1.143-1.421,2.6c-0.719,1.446-1.097,2.37-1.139,2.771 c-0.055,0.504-0.986,2.086-2.785,4.738c-1.821,2.654-3.214,4.787-4.204,6.415c-0.738,1.239-1.663,2.744-2.763,4.503 c-1.11,1.769-1.804,2.937-2.069,3.517c-0.173,0.697-0.796,2.715-1.861,6.059c0.157,0.421,0.513,1.805,1.07,4.158 c0.57,2.352,1.114,3.86,1.653,4.526c0.394,0.247,0.756,0.763,1.127,1.572c0.376,0.801,0.712,1.275,0.999,1.405 c0.389,0.141,0.738,0.228,1.039,0.261c0.301,0.032,1.395,0.253,3.287,0.66c0.303,0.032,1.059,0.033,2.288,0.015 c1.216-0.017,2.197-0.198,2.951-0.523c0.641-0.236,1.188-0.634,1.654-1.198c0.342-0.369,0.652-0.847,0.913-1.427 c0.266-0.583,0.593-1.153,0.951-1.728c0.261-0.484,0.482-1.04,0.637-1.687c0.181-0.645,0.384-1.154,0.627-1.537 c0.394-0.871,0.962-1.445,1.716-1.727c0.738-0.274,1.609-0.865,2.626-1.77c1.03-1.012,2.347-1.911,3.957-2.705 s2.633-1.376,3.082-1.734c0.327-0.167,2.257-1.636,5.805-4.41c0.676-0.534,1.304-0.772,1.907-0.707 c0.506,0.054,0.931,0.122,1.282,0.212c0.338,0.09,1.132,0.145,2.35,0.177c1.207,0.024,3.152-0.02,5.805-0.145 c0.681,2.208,1.477,3.77,2.396,4.683c0.822,0.901,2.206,4.101,4.164,9.597l3.563,10.913l4.541,10.245 c0.84,3.548,1.136,6.43,0.897,8.641c-0.234,2.218-0.354,4.542-0.358,6.983c-0.004,2.439,0.128,4.236,0.416,5.38 c0.38,1.166,0.946,2.854,1.663,5.066c0.734,2.21,1.225,3.543,1.494,3.975c0.155,0.422,1.556,2.509,4.204,6.246l1.676,1.401 l-4.448,5.931l-6.879,7.196c-4.92,3.342-7.471,5.248-7.617,5.746c-0.168,0.489-1.631,1.862-4.421,4.104 c-1.039,2.23-1.547,3.547-1.49,3.957c0.066,0.419-0.08,1.265-0.429,2.544c-0.332,1.291-0.345,2.357-0.033,3.205 c0.479,1.275,1.417,2.491,2.818,3.656c0.455,0.457,1.848,2.623,4.182,6.478c2.334,3.852,3.577,6.048,3.722,6.575 c0.031,0.614,0.385,2.049,1.065,4.308c0.672,2.26,1.463,3.435,2.365,3.53c0.805,0.087,1.844,1.325,3.112,3.696l2.569,1.654 c2.308,0.343,3.629,0.736,3.997,1.185c0.345,0.546,2.224,2.017,5.627,4.416l3.599,3.446l2.962,2.291l1.98,0.059l0.451-4.222 c0.005-2.028,0.009-3.989,0.009-5.874c0-1.879-0.597-3.396-1.799-4.54l-3.617-3.286l-1.812,1.33l-1.507,1.212l-2.326,0.358 l-1.848-2.642c-0.15-1.537-0.239-2.606-0.27-3.222c-0.137-0.626-0.76-1.479-1.865-2.569c-1.105-1.089-1.804-1.644-2.109-1.676 c-0.398-0.043-2.109-2.053-5.15-6.04l-3.258-5.233c-1.64-3.635-2.33-5.688-2.073-6.177c0.106-0.083,0.734-1.189,1.879-3.305 l2.878-2.745c3.855-0.804,5.95-1.393,6.291-1.766c0.442-0.259,3.179-1.131,8.231-2.626l5.314-2.637l1.623-0.892l-0.99,10.577 l-2.14,12.889c-1.309,4.648-1.998,7.157-2.042,7.554c-0.044,0.418,0.115,1.954,0.433,4.632l3.594,4.806 c2.135,1.969,3.51,2.975,4.103,3.039c0.5,0.053,1.596,0.317,3.28,0.808c6.211,2.704,9.713,4.146,10.509,4.331 c0.8,0.187,2.71,1.237,5.774,3.141c3.042,1.895,4.818,2.871,5.327,2.925c0.397,0.043,0.827,0.171,1.26,0.366 c0.438,0.203,1.154,0.354,2.157,0.462c0.911,0.098,2.206,0.236,3.926,0.421c1.331-0.06,2.463,0.212,3.422,0.826 c0.849,0.6,1.99,0.924,3.396,0.974c0.818,0.905,1.684,1.454,2.577,1.655c0.8,0.18,2.781,1.057,5.968,2.614l3.621,0.387 l0.672-4.812l-1.706-6.891c-1.791-3.143-2.998-4.751-3.594-4.813c-1.335,0.07-3.325,0.657-5.999,1.801l-2.569,2.627 c-1.18-0.333-1.786-0.802-1.83-1.417c-0.04-0.51-1.181-1.808-3.4-3.875l-5.124-0.55l-10.637-3.277l-7.728-3.271l-5.217-4.066 l-0.358-2.325c0.455-0.459,0.871-1.029,1.238-1.692c0.376-0.576,1.733-2.773,4.067-6.592l4.553-8.356l2.202-7.693l0.372-3.473 l3.647-2.658l1.94-3.914l13.617,1.148c8.209,0.18,12.838,0.309,13.837,0.416c1.004,0.107,6.928-0.112,17.771-0.688l12.065-2.978 l10.539-4.363l1.614-0.893l2.325-0.361c0.535-0.252,1.189-0.124,1.94,0.359c0.663,0.58,1.41,2.13,2.255,4.671 c1.269,0.539,1.844,1.316,1.737,2.315c-0.105,1.004,0.106,3.193,0.668,6.559c0.557,3.365,0.813,5.244,0.77,5.644 c-0.054,0.517,0.597,3.836,1.984,9.982l1.725,5.22l0.217,5.209c-0.076,3.448-0.138,5.429-0.19,5.932 c-0.066,0.601-0.938,2.134-2.631,4.604l-12.44,10.715c-5.836,5.173-8.886,8.003-9.151,8.479c-0.238,0.381-1.083,1.487-2.556,3.317 c-1.472,1.826-2.635,3.396-3.483,4.735c-0.742,1.238-1.433,2.661-2.056,4.275c-0.646,1.613-1.361,2.936-2.188,3.965 c-0.363,0.568-0.907,1.044-1.602,1.429c-0.698,0.384-1.237,0.859-1.6,1.437c-0.495,0.76-0.836,1.631-1.048,2.63 c-0.212,0.995-0.362,1.945-0.46,2.852s0.04,3.004,0.394,6.296c3.002-0.5,4.837-0.906,5.464-1.249 c0.57-0.449,1.539-0.979,2.932-1.594c1.379-0.614,2.418-1.286,3.107-2.034c0.682-0.63,1.49-1.361,2.449-2.175 c0.951-0.813,1.632-1.706,2.043-2.675c0.186-0.698,0.159-1.51-0.045-2.451c-0.154-0.42-0.424-0.78-0.8-1.072 c-0.371-0.291-0.593-0.651-0.642-1.069c-0.277-1.247-0.193-2.449,0.227-3.63c0.406-0.884,1.092-1.613,2.073-2.224 c0.658-0.439,1.657-0.74,2.993-0.902c0.477,0.003,0.77,0.011,0.887,0.025c1.212-0.4,2.392-1.333,3.538-2.828 c1.185-1.556,1.963-2.617,2.325-3.183c0.354-0.471,1.326-1.508,2.927-3.113c1.596-1.614,2.608-2.494,3.024-2.656 c0.424-0.157,2.572-2.112,6.428-5.873l7.896-8.153l5.951-4.243l-8.073,9.809c-3.891,4.062-5.854,6.295-5.897,6.691 c-0.044,0.407-0.681,1.13-1.914,2.161c-1.233,1.045-1.884,1.86-1.945,2.467c-0.089,0.797-0.257,1.899-0.509,3.3 c-0.256,1.397-0.481,2.596-0.693,3.586c-0.261,0.581-0.593,1.286-0.986,2.113c-0.389,0.819-0.672,1.573-0.849,2.268 c-0.163,0.593-0.376,2.049-0.623,4.354c1.185,2.264,1.861,5.186,2.038,8.767c0.172,3.579,0.663,4.951,1.468,4.123 c3.501-0.44,5.49-0.988,5.964-1.647c0.915-0.919,1.737-2.402,2.476-4.465c0.282-0.787,0.481-1.685,0.588-2.682 c0.106-1.015,0.252-1.907,0.442-2.703c0.044-0.402,0.163-0.824,0.362-1.258c0.198-0.444,0.27-0.809,0.194-1.125 c-0.159-0.413-0.42-0.761-0.805-0.999c-0.38-0.243-0.61-0.526-0.672-0.838c-0.146-0.521-0.177-1.187-0.093-1.987 c0.066-0.602-0.115-0.805-0.54-0.602c-0.438,0.215-0.477-0.38-0.123-1.764c0.226-1.191,0.592-1.786,1.109-1.786 c0.504,0.005,0.938-0.179,1.277-0.541c0.354-0.476,0.761-1.046,1.252-1.704c0.468-0.659,0.889-1.179,1.233-1.548 c0.345-0.371,1.86-2.646,4.549-6.832l6.127-7.432c5.663-5.397,8.616-8.276,8.86-8.662c0.141-0.286,2.241-2.404,6.33-6.343 l5.274-5.076l0.252-3.787l-3.515-4.188l-6.057-7.67l-3.268-5.083c-1.215-1.852-1.759-2.936-1.626-3.226 c0.03-0.292,0.149-1.964,0.375-4.986l1.915-3.612l6.18-3.61l7.127-5.185l7.22-7.621l4.902-5.88 c1.706-2.668,2.582-4.707,2.635-6.124c0.15-1.414,0.257-3.052,0.301-4.926c0.044-1.878,0.084-2.974,0.115-3.274 c0.021-0.199-1.044-3.468-3.205-9.8c5.278,0.968,7.458,3.167,6.529,6.572c-0.924,3.408-0.725,6.512,0.614,9.297 c2.26-7.789,3.515-11.468,3.775-11.04c4.134,5.018,4.646,9.1,1.508,12.22c-3.125,3.122-6.937,5.204-11.428,6.251 c1.33-0.069,2.409-0.101,3.223-0.117c4.536,0.391,8.117-1.262,10.752-4.954c2.626-3.681,4.708-7.424,6.237-11.228 c0.168,0.326-0.048,1.393-0.646,3.214c-0.609,1.816-1.344,3.727-2.215,5.717c-0.871,1.989-1.68,3.809-2.422,5.455 c-0.738,1.653-1.093,2.424-1.084,2.326c0.288,1.045,1.062,0.568,2.286-1.436c1.233-2,2.479-4.41,3.753-7.222 c1.265-2.82,2.388-5.518,3.383-8.105c0.463-1.211,0.791-2.152,0.998-2.845c-1.087,6.568-2.695,11.914-4.845,16.007 c-1.788,3.397-3.163,5.254-4.124,5.592c1.28-0.259,3.498-2.185,6.652-5.775c3.891-4.414,7.498-9.339,10.827-14.781 c-0.805,5.612-2.472,10.357-4.965,14.266c-2.516,3.903-5.495,7.296-8.956,10.175c3.7-1.33,6.856-3.611,9.434-6.847 c2.577-3.231,4.678-6.639,6.287-10.234c-1.441,5.846-2.211,10.697-2.335,14.547c-0.097,3.858,0.106,7.241,0.606,10.138 c0.499,2.899,1.092,5.585,1.812,8.054c0.693,2.465,1.127,5.279,1.299,8.451c-0.004,2.033-0.273,4.854-0.76,8.458 c2.705-3.366,4.085-6.552,4.155-9.544c0.062-2.994-0.349-6.52-1.225-10.584c-0.959-1.525-1.193-3.635-0.698-6.331 c0.486-2.691,0.831-4.942,1.025-6.752c3.139,5.823,4.691,10.999,4.664,15.526c-0.026,4.524,0.363,8.714,1.172,12.562 c0.602-1.868,0.906-4.35,0.875-7.46c-0.021-3.104-0.168-6.14-0.469-9.127c-0.282-2.978-0.676-5.544-1.162-7.678 c-0.165-0.743-0.32-1.352-0.468-1.841c2.591,5.189,4.464,10.636,5.627,16.353c1.26,6.24,1.454,12.516,0.574,18.823 c2.26-4.939,3.068-10.12,2.428-15.525c-0.642-5.407-1.875-10.45-3.718-15.126c3.713,4.271,5.805,8.942,6.281,14.026 c0.46,5.08,0.43,10.243-0.128,15.462c2.104-4.545,2.736-9.382,1.853-14.51c-0.875-5.137-2.29-9.888-4.258-14.267 c2.98,3.469,5.244,7.426,6.813,11.865c1.542,4.438,2.696,8.939,3.431,13.491c0.711-1.86,0.685-5.037-0.054-9.547 c-0.729-4.499-1.896-8.31-3.492-11.431c-0.362-0.446-0.38-0.602-0.026-0.458c0.331,0.133,0.773,0.538,1.309,1.203 c1.94,4.688,3.903,9.17,5.889,13.457c1.98,4.273,4.328,8.492,7.029,12.642c-0.721-2.717-1.105-4.386-1.141-4.999 c-2.025-5.709-3.011-10.572-2.932-14.582c0.08-4.006-1.693-9.106-5.313-15.294C560.243,198.062,561.569,199.251,562.255,200.889z" />  <path style="fill:#DDE4D0;" d="M422.777,284.203c-0.045,0.016-0.09,0.043-0.136,0.057 C422.844,284.235,422.886,284.217,422.777,284.203z"/>  <path style="fill:#DDE4D0;" d="M509.602,190.445c0.209,0.16,0.455,0.184,0.734,0.086 C510.042,190.591,509.797,190.562,509.602,190.445z"/> </g></g><g id="Layer_1"></g></svg>