<svg version="1.1" id="Layer_1" xmlns="http://www.w3.org/2000/svg" xmlns:xlink="http://www.w3.org/1999/xlink" x="0px" y="0px"
	viewBox="0 0 768 430" enable-background="new 0 0 768 430" xml:space="preserve">
<g>
	<g>
		<path fill="#C5873E" d="M567.755,96.222c-21.753-53.052-113.81-22.482-223.509,24.649C234.542,168,148.744,213.832,170.5,266.887
			c0.215,0.529,0.452,1.042,0.689,1.56l397.174-170.63C568.164,97.281,567.977,96.746,567.755,96.222z"/>
	</g>
	<g>
		<path fill="#C5873E" d="M196.235,332.168c21.758,53.057,113.815,22.483,223.512-24.647
			c109.702-47.128,195.505-92.96,173.746-146.019c-0.21-0.529-0.453-1.042-0.685-1.559l-397.181,170.63
			C195.83,331.111,196.02,331.644,196.235,332.168z"/>
	</g>
	<path fill="#C0392B" d="M635.196,105.17c5.477,13.355-0.994,28.865-14.45,34.643L167.074,334.713
		c-13.458,5.789-28.807-0.349-34.282-13.7l0,0c-5.472-13.347,0.998-28.855,14.456-34.643L600.917,91.474
		C614.377,85.69,629.725,91.825,635.196,105.17L635.196,105.17z"/>
	<g>
		<g>
			<path fill="#FFE9BD" d="M564.08,148.367c-14.28,6.132-23.678,3.999-32.77,1.928c-8.926-2.027-18.151-4.125-32.115,1.873
				c-13.967,6-18.962,14.211-23.798,22.151c-4.923,8.088-10.02,16.449-24.299,22.584c-14.278,6.131-23.681,3.996-32.768,1.93
				c-8.923-2.03-18.148-4.13-32.114,1.872c-13.961,5.998-18.962,14.209-23.793,22.146c-4.925,8.089-10.02,16.458-24.301,22.587
				c-14.278,6.135-23.676,4.003-32.766,1.935c-8.921-2.033-18.147-4.131-32.112,1.866c-13.963,6.003-18.963,14.211-23.798,22.148
				c-4.924,8.091-10.017,16.452-24.3,22.587c-14.279,6.135-23.676,3.999-32.766,1.928c-8.921-2.024-18.149-4.125-32.112,1.875
				l-0.42-1.026c14.28-6.135,23.681-3.993,32.769-1.928c8.923,2.027,18.149,4.131,32.11-1.873
				c13.965-5.994,18.965-14.209,23.797-22.145c4.93-8.09,10.019-16.456,24.302-22.591c14.279-6.135,23.679-3.993,32.767-1.931
				c8.923,2.03,18.15,4.134,32.11-1.866c13.962-6.003,18.963-14.209,23.796-22.151c4.925-8.085,10.019-16.449,24.298-22.584
				c14.279-6.134,23.681-3.999,32.768-1.93c8.923,2.029,18.155,4.127,32.114-1.875c13.964-5.994,18.961-14.209,23.8-22.146
				c4.923-8.089,10.013-16.446,24.295-22.584c14.282-6.135,23.681-3.999,32.772-1.937c8.923,2.033,18.153,4.125,32.115-1.87
				c13.969-6.002,18.966-14.208,23.805-22.151c4.921-8.088,10.016-16.452,24.298-22.586l0.421,1.024
				c-13.966,6-18.964,14.211-23.8,22.148C583.459,133.863,578.365,142.227,564.08,148.367z"/>
			<g>
				<path fill="#FFE9BD" d="M562.623,143.078c-19.354,6.65-37.444-2.12-57.041,1.106c-15.613,2.581-27.045,14.677-34.918,27.365
					c-7.483,12.049-15.35,18.114-29.04,22.818c-12.316,4.232-22.617-2.932-34.433-2.964c-17.184-0.047-32.323,6.462-43.434,19.635
					c-16.65,19.738-25.495,37.767-56.941,31.041c-17.658-3.776-32.543-1.363-47.643,9.066
					c-13.102,9.054-17.016,25.635-30.378,34.851c-19.818,13.677-47.436-1.25-69.982,6.488c2.247,1.278,4.498,2.56,6.745,3.83
					c-0.139-0.343-0.279-0.68-0.419-1.019c-1.277,2.247-2.553,4.493-3.831,6.749c22.302-7.665,44.487,6.613,66.189-4.355
					c19.662-9.941,24.349-29.539,41.68-41.494c22.07-15.23,47.907,4.782,71.295-7.045c19.659-9.936,24.349-29.532,41.677-41.491
					c22.071-15.224,47.908,4.783,71.299-7.044c19.66-9.94,24.353-29.535,41.679-41.49c22.073-15.233,47.915,4.776,71.307-7.048
					c21.301-10.768,27.125-34.142,48.103-44.735c-2.688-1.097-5.374-2.188-8.06-3.282c-2.896-7.059-16.156,8.91-17.61,11.011
					c-8.203,11.827-14.045,21.736-27.553,28.558c-6.312,3.189-0.761,12.653,5.541,9.47c21.333-10.777,27.195-34.168,48.1-44.735
					c1.986-1.003,3.399-4.051,2.522-6.192c-0.141-0.339-0.281-0.685-0.422-1.024c-1.387-3.379-4.619-5.018-8.057-3.28
					c-17.049,8.612-22.139,21.326-33.888,35.251c-18.897,22.394-52.974,4.216-77.792,12.737
					c-18.113,6.223-23.88,22.388-35.192,35.798c-18.892,22.4-52.968,4.215-77.787,12.74c-18.112,6.222-23.878,22.386-35.192,35.801
					c-18.89,22.392-52.962,4.207-77.778,12.734c-18.114,6.223-23.882,22.389-35.194,35.798
					c-18.892,22.392-52.966,4.207-77.781,12.738c-2.56,0.88-5.02,3.853-3.833,6.746c0.138,0.339,0.28,0.682,0.42,1.023
					c1.074,2.624,3.668,4.885,6.745,3.833c19.195-6.592,37.357,2.181,56.863-1.048c15.905-2.633,27.562-14.932,35.596-27.861
					c7.313-11.772,14.977-17.729,28.365-22.321c12.103-4.154,22.493,2.976,34.156,2.996c17.507,0.044,32.953-6.598,44.279-20.013
					c16.393-19.416,24.875-37.334,55.89-30.697c17.998,3.853,33.162,1.346,48.545-9.265c13.089-9.034,16.973-25.595,30.266-34.777
					c19.481-13.458,47.494,1.26,69.855-6.424C572.189,151.372,569.334,140.773,562.623,143.078z"/>
			</g>
		</g>
	</g>
</g>
</svg>
