<svg version="1.1" xmlns="http://www.w3.org/2000/svg" xmlns:xlink="http://www.w3.org/1999/xlink" viewBox="0 0 768 430" style="enable-background:new 0 0 768 430;" xml:space="preserve"><g id="hot_dog"> <g>  <path style="fill-rule:evenodd;clip-rule:evenodd;fill:#65BCAB;" d="M559.479,69.775c-1.279-0.479-2.52-1.066-3.777-1.603 c-3.399-0.29-6.797-0.579-10.195-0.869c-17.18,2.368-27.056,13.661-34.483,27.92c0.415,2.267-1.127,4.857-3.454,5.782 c0.163,0.105,0.327,0.2,0.49,0.308c-4.506,6.307-8.748,12.347-13.153,18.267c-0.481,0.647-1.9,0.848-2.879,0.837 c-18.181-0.191-28.421,8.731-29.821,26.699c-0.324,4.166-1.618,6.865-5.104,8.957c-9.55,5.734-18.903,11.805-28.581,17.307 c-2.254,1.28-5.559,1.4-8.261,1.073c-8.979-1.088-15.947,2.224-22.01,8.566c-1.693,1.772-4.124,3.511-6.446,3.899 c-10.664,1.78-21.386,3.281-32.14,4.375c-2.107,0.214-5.022-1.268-6.574-2.905c-7.271-7.676-16.927-13.083-28.474-5.158 c-7.172,4.922-13.541,4.117-21.229,1.61c-8.243-2.688-13.448-6.281-13.383-15.76c0.022-3.349-1.777-6.889-3.361-10.032 c-3.445-6.834-10.27-8.041-15.644-2.568c-2.852,2.904-4.767,6.728-7.437,10.622c-4.975-2.25-10.542-4.621-15.934-7.347 c-2.792-0.565-5.003-2.242-6.018-4.936c-0.159,0.708-0.322,1.43-0.488,2.183c-4.76-1.587-8.934-3.233-13.246-4.344 c-4.327-1.115-8.761-2.096-13.2-2.433c-12.16-0.924-20.192,4.595-23.959,16.12c-1.431,4.374-2.626,8.823-3.929,13.238 c-0.263,3.089-0.526,6.179-0.79,9.269c1.6,6.38,2.305,13.167,4.982,19.056c5.929,13.03,17.498,19.929,30.221,25.235 c0.859,0.358,1.875,1.06,2.658,1.848c2.056-0.518,4.5,0.043,5.872,2.063c0.039-12.266,7.051-22.855,19.811-29.032 c15.982-7.734,32.485-7.023,48.898-1.622c6.283,2.067,12.657,4.558,18.184,8.107c29.238,18.78,58.775,16.918,88.89,2.489 c24.046-11.521,45.21-27.537,67.189-42.306c16.453-11.057,32.988-22.007,49.747-32.594c7.539-4.762,16.106-7.318,25.15-7.301 c9.099,0.017,16.868,3.688,22.4,10.182c0.247-2.23,1.651-3.678,3.334-4.34c-0.208-0.461-0.419-0.923-0.624-1.385 c3.442-6.106,8.487-12.638,11.029-20.031C590.621,99.217,579.402,77.242,559.479,69.775z M431.258,197.347 c-1.053,0.622-2.854,0.431-4.156,0.065c-2.066-0.581-3.945-1.812-6.005-2.438c-5.562-1.69-10.924-0.307-12.348,5.095 c-4.081,15.483-16.725,18.326-29.33,21.646c-2.091,0.553-4.257,0.812-6.375,1.269c-9.827,2.115-18.723,1.977-23.514-9.087 c-0.652-1.503-2.058-2.696-3.172-3.981c-8.327-9.587-14.069-11.429-25.797-6.744c-6.304,2.52-11.715,2.756-18.074,0.034 c-5.738-2.456-12.281-2.974-18.368-4.702c-2.182-0.619-4.886-1.787-5.94-3.548c-3.396-5.673-6.662-11.541-8.979-17.709 c-2.367-6.299-0.226-12.25,4.304-17.109c3.646-3.912,7.5-3.461,9.419,1.515c1.871,4.848,3.01,10.047,3.906,15.191 c2.86,16.415,15.15,22.866,30.087,15.499c3.883-1.916,7.568-4.234,11.432-6.191c7.104-3.599,13.098-3.143,18.569,2.733 c4.372,4.693,7.849,10.301,11.255,15.793c3.891,6.273,9.146,10.486,16.26,12.167c10.183,2.408,17.059-2.42,19.513-12.598 c1.284-5.329,3.096-10.768,5.864-15.45c5.715-9.668,14.766-12.173,25.181-8.053c6.292,2.49,12.647,4.816,20.073,7.633 C439.814,191.833,435.636,194.759,431.258,197.347z M507.554,145.602c-2.653-2.178-5.17-4.437-7.885-6.426 c-4.029-2.952-8.383-4.006-12.943-1.145c-4.686,2.94-6.507,7.25-5.718,12.693c0.065,0.458,0.153,0.916,0.267,1.364 c0.779,3.081,3.15,7.112,1.998,9.02c-1.912,3.167-6.085,4.967-9.272,7.319c-10.692-10.909-9.546-31.154,2.092-40.388 c6.171-4.896,13.208-4.31,19.903-2.124c8.772,2.865,17.242,6.652,26.915,10.466C516.933,139.971,512.322,142.739,507.554,145.602z "/>  <path style="fill-rule:evenodd;clip-rule:evenodd;fill:#DDE4D0;" d="M346.368,310.911c-36.979-2.887-66.202-13.442-92.363-31.694 c-11.2-7.813-19.153-18.979-22.918-32.469c-4.538-16.255,2.434-30.969,18.458-38.725c15.982-7.734,32.485-7.023,48.898-1.622 c6.283,2.067,12.657,4.558,18.184,8.107c29.238,18.78,58.775,16.918,88.89,2.489c24.046-11.521,45.21-27.537,67.189-42.306 c16.453-11.057,32.988-22.007,49.747-32.594c7.539-4.762,16.106-7.318,25.15-7.301c15.952,0.029,27.831,11.277,30.7,29.316 c3.288,20.672-2.75,39.28-13.628,56.548c-12.834,20.372-30.902,34.952-52.226,45.592c-33.35,16.64-67.582,31.015-104.168,39.055 C386.219,310.155,363.942,312.403,346.368,310.911z"/>  <path style="fill-rule:evenodd;clip-rule:evenodd;fill:#DDE4D0;" d="M508.06,101.314c-4.506,6.307-8.748,12.347-13.153,18.267 c-0.481,0.647-1.9,0.848-2.879,0.837c-18.181-0.191-28.421,8.731-29.821,26.699c-0.324,4.166-1.618,6.865-5.104,8.957 c-9.55,5.734-18.903,11.805-28.581,17.307c-2.254,1.28-5.559,1.4-8.261,1.073c-8.979-1.088-15.947,2.224-22.01,8.566 c-1.693,1.772-4.124,3.511-6.446,3.899c-10.664,1.78-21.386,3.281-32.14,4.375c-2.107,0.214-5.022-1.268-6.574-2.905 c-7.271-7.676-16.927-13.083-28.474-5.158c-7.172,4.922-13.541,4.117-21.229,1.61c-8.243-2.688-13.448-6.281-13.383-15.76 c0.022-3.349-1.777-6.889-3.361-10.032c-3.445-6.834-10.27-8.041-15.644-2.568c-2.852,2.904-4.767,6.728-7.437,10.622 c-5.029-2.274-10.664-4.669-16.11-7.434c-0.91-0.461-1.501-2.566-1.4-3.846c1.014-13.035,9.165-20.63,22.226-20.738 c13.224-0.11,25.267,4.463,36.857,10.131c9.029,4.415,17.718,9.536,26.476,14.486c28.679,16.208,56.417,13.117,79.838-10.188 c9.268-9.222,16.847-20.156,25.057-30.421c8.996-11.248,19.475-20.427,33.677-24.351 C483.454,91.075,495.833,93.246,508.06,101.314z"/>  <path style="fill-rule:evenodd;clip-rule:evenodd;fill:#DDE4D0;" d="M445.062,188.376c-5.248,3.458-9.427,6.383-13.805,8.971 c-1.053,0.622-2.854,0.431-4.156,0.065c-2.066-0.581-3.945-1.812-6.005-2.438c-5.562-1.69-10.924-0.307-12.348,5.095 c-4.081,15.483-16.725,18.326-29.33,21.646c-2.091,0.553-4.257,0.812-6.375,1.269c-9.827,2.115-18.723,1.977-23.514-9.087 c-0.652-1.503-2.058-2.696-3.172-3.981c-8.327-9.587-14.069-11.429-25.797-6.744c-6.304,2.52-11.715,2.756-18.074,0.034 c-5.738-2.456-12.281-2.974-18.368-4.702c-2.182-0.619-4.886-1.787-5.94-3.548c-3.396-5.673-6.662-11.541-8.979-17.709 c-2.367-6.299-0.226-12.25,4.304-17.109c3.646-3.912,7.5-3.461,9.419,1.515c1.871,4.848,3.01,10.047,3.906,15.191 c2.86,16.415,15.15,22.866,30.087,15.499c3.883-1.916,7.568-4.234,11.432-6.191c7.104-3.599,13.098-3.143,18.569,2.733 c4.372,4.693,7.849,10.301,11.255,15.793c3.891,6.273,9.146,10.486,16.26,12.167c10.183,2.408,17.059-2.42,19.513-12.598 c1.284-5.329,3.096-10.768,5.864-15.45c5.715-9.668,14.766-12.173,25.181-8.053C431.281,183.233,437.637,185.56,445.062,188.376z" />  <path style="fill-rule:evenodd;clip-rule:evenodd;fill:#DDE4D0;" d="M522.91,136.382c-5.978,3.589-10.588,6.357-15.356,9.22 c-2.653-2.178-5.17-4.437-7.885-6.426c-4.029-2.952-8.383-4.006-12.943-1.145c-4.686,2.94-6.507,7.25-5.718,12.693 c0.065,0.458,0.153,0.916,0.267,1.364c0.779,3.081,3.15,7.112,1.998,9.02c-1.912,3.167-6.085,4.967-9.272,7.319 c-10.692-10.909-9.546-31.154,2.092-40.388c6.171-4.896,13.208-4.31,19.903-2.124C504.768,128.781,513.237,132.568,522.91,136.382 z"/> </g></g><g id="Layer_1"></g></svg>