<svg version="1.1" xmlns="http://www.w3.org/2000/svg" xmlns:xlink="http://www.w3.org/1999/xlink" viewBox="0 0 768 430" style="enable-background:new 0 0 768 430;" xml:space="preserve"><g id="house"> <g>  <path style="fill:none;" d="M442.337,229.008c0.004-0.055,0.021-0.1,0.027-0.152c-10.555-0.919-21.134-1.482-31.703-2.199 c0,22.344,0,44.688,0,67.03c8.834,0,17.667,0,26.501,0C438.886,272.127,440.613,250.567,442.337,229.008z"/>  <path style="fill:none;" d="M478.145,74.289c-5.61,0-11.222,0-16.832,0c-2.172,14.335-4.344,28.669-6.517,43.006 c2.843,2.132,5.685,4.264,8.527,6.396C468.264,107.224,473.204,90.756,478.145,74.289z"/>  <path style="fill:none;" d="M364.007,157.66c1.218,7.313,2.437,14.626,3.656,21.939c4.937,0,9.874,0,14.812,0 c2.561-7.312,5.12-14.626,7.68-21.939C381.438,157.66,372.723,157.66,364.007,157.66z"/>  <path style="fill:none;" d="M320.616,157.285c11.972,45.397,23.407,90.934,35.108,136.402c15.874,0,31.749,0,47.623,0 c0-23.646,0-47.292,0-70.939c0-0.68,0.164-1.249,0.425-1.732c0.472-1.175,1.541-2.046,3.23-1.924 c13.069,0.938,26.159,1.542,39.205,2.798c2.993,0.288,4.066,3.417,3.207,5.494c0.189,0.459,0.284,0.996,0.234,1.625 c-1.723,21.56-3.449,43.119-5.174,64.679c3.647,0,7.293,0,10.94,0c12.806-46.01,25.613-92.02,38.42-138.029 c-27.979-20.985-55.96-41.971-83.94-62.957C380.135,114.23,350.375,135.757,320.616,157.285z M398.827,154.975 c-3.413,9.751-6.826,19.502-10.238,29.252c-0.113,0.323-0.263,0.603-0.43,0.86c-0.536,1.045-1.562,1.825-3.097,1.825 c-6.826,0-13.652,0-20.477,0c-0.175,0-0.33-0.029-0.492-0.049c-1.413,0.004-2.725-0.781-3.034-2.636 c-1.462-8.774-2.925-17.551-4.387-26.325c-0.097-0.58-0.069-1.117,0.052-1.605c-1.54-2.114-0.612-5.949,2.808-5.949 c11.923,0,23.846,0,35.768,0c1.008,0,1.786,0.346,2.363,0.87C398.773,151.97,399.417,153.289,398.827,154.975z"/>  <path style="fill:#DDE5CE;" d="M534.635,177.173c-21.692-16.27-43.386-32.539-65.079-48.809c5.679-18.92,11.354-37.84,17.03-56.76 c0.435-1.452,0.001-2.63-0.828-3.42c-0.588-0.72-1.484-1.209-2.698-1.209c-8.288,0-16.577,0-24.865,0 c-0.169,0-0.317,0.029-0.474,0.047c-1.435-0.03-2.768,0.75-3.054,2.638c-2.156,14.229-4.312,28.458-6.468,42.687 c-12.012-9.008-24.022-18.017-36.035-27.026c-0.477-0.487-1.064-0.822-1.72-0.928c-0.058-0.013-0.114-0.021-0.172-0.03 c-0.058-0.006-0.115-0.012-0.174-0.014c-0.908-0.088-1.73,0.284-2.36,0.925c-45.715,33.07-91.43,66.141-137.145,99.21 c-3.78,2.737-0.138,9.084,3.691,6.315c13.324-9.638,26.648-19.277,39.973-28.916c11.953,45.412,23.389,90.957,35.102,136.432 c0.305,1.183,1.007,1.921,1.855,2.297c0.471,0.239,1.021,0.388,1.67,0.388c35.102,0,70.206,0,105.31,0 c0.933,0,1.674-0.293,2.237-0.752c0.578-0.422,1.045-1.052,1.29-1.933c12.799-45.983,25.599-91.965,38.396-137.946 c10.275,7.707,20.551,15.413,30.826,23.12C534.721,186.32,538.358,179.967,534.635,177.173z M461.312,74.289 c5.61,0,11.222,0,16.832,0c-4.94,16.467-9.881,32.935-14.821,49.401c-2.843-2.132-5.685-4.264-8.527-6.396 C456.969,102.958,459.141,88.624,461.312,74.289z M410.661,226.656c10.569,0.717,21.148,1.28,31.703,2.199 c-0.006,0.053-0.023,0.098-0.027,0.152c-1.724,21.56-3.451,43.119-5.175,64.679c-8.834,0-17.667,0-26.501,0 C410.661,271.345,410.661,249,410.661,226.656z M455.415,293.687c-3.647,0-7.293,0-10.94,0c1.725-21.56,3.451-43.119,5.174-64.679 c0.05-0.629-0.045-1.166-0.234-1.625c0.859-2.077-0.214-5.206-3.207-5.494c-13.046-1.256-26.136-1.859-39.205-2.798 c-1.689-0.122-2.759,0.749-3.23,1.924c-0.261,0.483-0.425,1.053-0.425,1.732c0,23.647,0,47.294,0,70.939 c-15.874,0-31.749,0-47.623,0c-11.702-45.468-23.136-91.004-35.108-136.402c29.76-21.528,59.519-43.055,89.279-64.584 c27.98,20.986,55.961,41.971,83.94,62.957C481.028,201.667,468.221,247.677,455.415,293.687z"/>  <path style="fill:#DDE5CE;" d="M397.663,151.218c-0.577-0.524-1.355-0.87-2.363-0.87c-11.922,0-23.845,0-35.768,0 c-3.42,0-4.347,3.835-2.808,5.949c-0.122,0.488-0.149,1.026-0.052,1.605c1.462,8.774,2.925,17.55,4.387,26.325 c0.309,1.855,1.621,2.64,3.034,2.636c0.162,0.02,0.317,0.049,0.492,0.049c6.825,0,13.651,0,20.477,0 c1.535,0,2.561-0.779,3.097-1.825c0.167-0.257,0.316-0.537,0.43-0.86c3.412-9.75,6.825-19.501,10.238-29.252 C399.417,153.289,398.773,151.97,397.663,151.218z M382.475,179.6c-4.938,0-9.875,0-14.812,0 c-1.219-7.313-2.438-14.626-3.656-21.939c8.715,0,17.431,0,26.147,0C387.595,164.974,385.035,172.287,382.475,179.6z"/> </g></g><g id="Layer_1"></g></svg>