<svg xmlns="http://www.w3.org/2000/svg" viewBox="0 0 768 430"><style>.a{fill:#273332;}.b{fill:#FFDA8F;}.c{fill:#5B7488;}.d{fill:#82EAFF;}.e{fill:none;stroke:#60420D;}.f{fill:#60420D;}.g{fill:#895F22;}.h{fill:#47433C;}.i{fill:#473115;}.j{stop-color:#FFF;}.k{stop-color:#EDEF00;}.l{fill:#C7F7FF;}.m{fill:#292;}.n{fill:#3C8C3C;}.o{fill:#48B748;}.p{fill:#158715;}.q{fill:#2F842F;}.r{fill:#35A035;}.s{fill:#66491B;}.t{fill:#429B42;}.u{fill:#257F25;}</style><path d="M432.2 177c-16.3 0.7-11.4-27.4-11.4-37.2 0-8.1 0-16.2 0-24.4 0-7.1 1.3-15.6 10.7-15.6 16.3-0.5 11.4 27.2 11.4 37.2 0 8.1 0 16.2 0 24.4C442.8 168.5 441.5 177 432.2 177" class="a"/><path d="M303 384.2c0.3-64.6 0.6-129.2 0.9-193.8 0-1.8 0.8-2.5 1.9-4.2 4.5-6.8 9.1-13.6 13.7-20.4 5-7.4 9.9-14.8 14.8-22.3 2-3.1 7.4-15.2 11-15.2 18.9 0 37.9 0 56.8 0 7 0 13.9 0 20.9 0 2.9 0 10.2 15.8 11.9 18.6 5.8 9.7 11.5 19.5 17.8 28.9 4.2 6.3 10.2 10.9 10.2 18.4 0 5.9 0 11.8 0 17.7 0.1 39.2 0.1 78.5 0.2 117.7 0 14.4 0.1 28.8 0.1 43.2 0 2.7 0.1 5.4-0.1 8 -1.1 14.5-17.9 13-28.6 13" class="b"/><path d="M517.4 399.2c-69.8 0-139.6 0-209.4 0 -14.6 0-29.3 0-43.9 0 -2.8 0-5.7 0-8.5 0 -10 0-10.1-14.9-0.1-14.9 27.4 0 54.8 0 82.2 0 42.3 0 84.6 0 126.9 0 14.1 0 28.1 0 42.2 0 3.2 0 6.4 0 9.6 0C526.4 384.2 527.8 399.2 517.4 399.2" fill="#70838E"/><path d="M320.8 389.7c-0.1-0.4 0.2-0.7 0.5-0.8" class="c"/><path d="M323.5 398.2c0-0.5-0.3-0.8-1-0.8" class="c"/><path d="M321.3 388.9c2-0.4-0.6 8.2 2.6 7.9" class="c"/><path d="M342 140.4c-9.3 13.9-18.7 27.7-28 41.6 -4.5 6.6-8.9 13.3-13.4 19.9 -2.2 3.2-8.6 2.4-5.7-2 0.2-0.7 1.1-1.6 1.5-2.2 21.3-31.8 42.6-63.5 63.9-95.3 6.9-10.3 13.8-20.5 20.7-30.8 3-4.5 6.3 1.9 7.8 4.1 3.9 5.7 7.7 11.4 11.6 17.2 22.5 33.4 45.1 66.8 67.6 100.2 1.4 2 6.8 7.8 4.2 10.4 -4 5.1-9.8-7-11.4-9.4 -11.2-16.7-22.3-33.4-33.5-50.1 -2.6-3.9-3.8-5-8.6-5 -9 0-18 0-27 0.1 -11 0-21.9 0.1-32.9 0.1C355.7 139 344.2 137.1 342 140.4" class="a"/><path d="M364.4 188.7c0-5.1-3.3-29.1 4.4-29.1 5.1 0 31.2-3.4 31.2 4.3 1 4.8 0 10.9 0 15.8 0 3.8 1.7 13.3-4.4 13.3C390.5 193 364.4 196.5 364.4 188.7" class="d"/><path d="M364.4 188.7c0-5.1-3.3-29.1 4.4-29.1 5.1 0 31.2-3.4 31.2 4.3 1 4.8 0 10.9 0 15.8 0 3.8 1.7 13.3-4.4 13.3C390.5 193 364.4 196.5 364.4 188.7z" class="e"/><line x1="400.5" y1="176.5" x2="363.5" y2="176.5" class="d"/><path d="M364.5 176.5c6.2 0 12.5 0 18.7 0 4.1 0 8.3 0 12.4 0 0.2 0 6.3-0.3 4.9 1 -0.7 0.6-5 0-5.9 0 -4.3 0-8.5 0-12.8 0C379.3 177.5 364.8 178.8 364.5 176.5z" class="f"/><line x1="381.5" y1="158.5" x2="381.5" y2="193.5" class="d"/><path d="M381.5 159.5c2.1 0 1 12.8 1 14.9 0 2 1.5 18.2 0 19.1 -1.2 0.7-1-13.4-1-14.9C381.5 172.2 381.5 165.8 381.5 159.5z" class="f"/><path d="M406.4 257.7c0-5.1-3.3-29.1 4.4-29.1 5.1 0 31.2-3.4 31.2 4.3 1 4.8 0 10.9 0 15.8 0 3.8 1.7 13.3-4.4 13.3C432.5 262 406.4 265.5 406.4 257.7" class="d"/><path d="M406.4 257.7c0-5.1-3.3-29.1 4.4-29.1 5.1 0 31.2-3.4 31.2 4.3 1 4.8 0 10.9 0 15.8 0 3.8 1.7 13.3-4.4 13.3C432.5 262 406.4 265.5 406.4 257.7z" class="e"/><line x1="442.5" y1="245.5" x2="405.5" y2="245.5" class="d"/><path d="M406.5 245.5c6.2 0 12.5 0 18.7 0 4.1 0 8.3 0 12.4 0 0.2 0 6.3-0.3 4.9 1 -0.7 0.6-5 0-5.9 0 -4.3 0-8.5 0-12.8 0C421.3 246.5 406.8 247.8 406.5 245.5z" class="f"/><line x1="423.5" y1="227.5" x2="423.5" y2="262.5" class="d"/><path d="M423.5 228.5c2.1 0 1 12.8 1 14.9 0 2 1.5 18.2 0 19.1 -1.2 0.7-1-13.4-1-14.9C423.5 241.2 423.5 234.8 423.5 228.5z" class="f"/><path d="M356.5 306.9c-7.2 0-15.9-1.5-22.8 0 -7 0-4.7 13.7-4.7 17.8 0 18.7 0 37.4 0 56.1 0 8.6 15.3 5.6 20.8 5.6 3.4 0 9.4 1.1 11.1-2.9 0.8-1.9 0.4-4.6 0.4-6.5 0-19.7 0-39.4 0-59.2C361.3 314.1 362.4 306.9 356.5 306.9" class="f"/><path d="M351.9 340.4c-5.9 0-18.5 2.6-18.5-6.2 0-5-3-23 5.2-23 5.8-1.1 18.5-1.8 18.5 6.2C357.1 322.4 360.1 340.4 351.9 340.4" class="g"/><path d="M351.7 374.6c-6 0-18.4 2.6-18.4-6.3 0-5.1-3.1-23.5 5.3-23.5 5.9-1.1 18.4-1.7 18.4 6.3C356.9 356.2 360 374.6 351.7 374.6" class="g"/><path d="M331.3 346.5c-2-0.7-2.5-7.9 0-7.9C333.6 338.5 333.6 346.5 331.3 346.5" class="h"/><path d="M332 341.5c-1.4 0.8-2.7-1.4-1.2-2.2C332.1 338.5 333.4 340.7 332 341.5" class="i"/><path d="M363.4 387.3c-8 0-16 0-24 0 -4 0-8 0-12 0 -6 0-7.5-8.7-1-8.7 7.3-1.5 16.5 0 24 0 4 0 8 0 12 0C368.3 378.6 369.8 387.3 363.4 387.3" fill="#A5C3D3"/><path d="M371.3 320c-0.1 1.7-2.8 1.5-2.6-0.2C368.9 318.1 371.5 318.3 371.3 320" fill="#EDEF00"/><defs><filter filterUnits="userSpaceOnUse" x="368.3" y="318.2" width="3.5" height="3.5"><feColorMatrix type="matrix" values="1 0 0 0 0  0 1 0 0 0  0 0 1 0 0  0 0 0 1 0"/></filter></defs><mask maskUnits="userSpaceOnUse" x="368.3" y="318.2" width="3.5" height="3.5"><g filter="url(#Adobe_OpacityMaskFilter)"><radialGradient cx="121.1" cy="425.6" r="1" gradientTransform="matrix(2.3126 0 0 -2.3126 90.0762 1304.0957)" gradientUnits="userSpaceOnUse"><stop offset="0" class="j"/><stop offset="0.1882" class="j"/><stop offset="0.4203" stop-color="#FDFDFD"/><stop offset="0.5321" stop-color="#F5F5F5"/><stop offset="0.6181" stop-color="#E8E8E8"/><stop offset="0.691" stop-color="#D6D6D6"/><stop offset="0.7555" stop-color="#BEBEBE"/><stop offset="0.8142" stop-color="#A0A0A0"/><stop offset="0.8684" stop-color="#7D7D7D"/><stop offset="0.9192" stop-color="#545454"/><stop offset="0.9654" stop-color="#272727"/><stop offset="1" stop-color="#000"/></radialGradient><rect x="118.5" y="59.5" width="525" height="500" fill="url(#SVGID_2_)"/></g></mask><radialGradient cx="121.1" cy="425.6" r="1" gradientTransform="matrix(2.3126 0 0 -2.3126 90.0742 1304.0977)" gradientUnits="userSpaceOnUse"><stop offset="0" class="k"/><stop offset="0.1882" class="k"/><stop offset="1" class="k"/></radialGradient><path mask="url(#SVGID_1_)" d="M371.3 320c0.8 0.8-0.2 1.4-1.5 1.7 -4.1-1.5 1-6 2-1.7 -1.6-1-3.3 0.5-1.9 0.7C370.3 320.2 370.7 319.9 371.3 320z" fill="url(#SVGID_3_)"/><path d="M373.8 319.4c0 1.7-7.6 1.7-7.6 0C366.2 314.5 373.8 314.5 373.8 319.4" class="h"/><path d="M366.2 345.2c-1.4 0.8-2.7-1.4-1.2-2.2C366.4 342.2 367.6 344.3 366.2 345.2" class="i"/><path d="M327.4 256.7c0-5.1-3.3-29.1 4.4-29.1 5.1 0 31.2-3.4 31.2 4.3 1 4.8 0 10.9 0 15.8 0 3.8 1.7 13.3-4.4 13.3C353.5 261 327.4 264.5 327.4 256.7" class="d"/><path d="M327.4 256.7c0-5.1-3.3-29.1 4.4-29.1 5.1 0 31.2-3.4 31.2 4.3 1 4.8 0 10.9 0 15.8 0 3.8 1.7 13.3-4.4 13.3C353.5 261 327.4 264.5 327.4 256.7z" class="e"/><path d="M334.1 228.1c-2.3 3.2-7.1 7.3-6.2 11.6 2.7-3.8 5.5-7.7 8.2-11.5C335.5 228.1 334.7 228 334.1 228.1z" class="l"/><path d="M352.1 228.1c-2.3 3.2-7.1 7.3-6.2 11.6 2.7-3.8 5.5-7.7 8.2-11.5C353.5 228.1 352.7 228 352.1 228.1z" class="l"/><path d="M351.1 245.1c-2.3 3.2-7.1 7.3-6.2 11.6 2.7-3.8 5.5-7.7 8.2-11.5C352.5 245.1 351.7 245 351.1 245.1z" class="l"/><path d="M334.1 245.1c-2.3 3.2-7.1 7.3-6.2 11.6 2.7-3.8 5.5-7.7 8.2-11.5C335.5 245.1 334.7 245 334.1 245.1z" class="l"/><line x1="363.5" y1="244.5" x2="326.5" y2="244.5" class="d"/><path d="M327.5 244.5c6.2 0 12.5 0 18.7 0 4.1 0 8.3 0 12.4 0 0.2 0 6.3-0.3 4.9 1 -0.7 0.6-5 0-5.9 0 -4.3 0-8.5 0-12.8 0C342.3 245.5 327.8 246.8 327.5 244.5z" class="f"/><line x1="344.5" y1="226.5" x2="344.5" y2="261.5" class="d"/><path d="M344.5 227.5c2.1 0 1 12.8 1 14.9 0 2 1.5 18.2 0 19.1 -1.2 0.7-1-13.4-1-14.9C344.5 240.2 344.5 233.8 344.5 227.5z" class="f"/><path d="M338.9 260.8c0 6.8-10.5 6.8-10.5 0C328.4 254.1 338.9 254.1 338.9 260.8" class="m"/><path d="M332 261.5c0 4.7-7.3 4.7-7.3 0S332 256.8 332 261.5" class="n"/><path d="M348.5 260.2c0 6.8-10.5 6.8-10.5 0C338 253.4 348.5 253.4 348.5 260.2" class="m"/><path d="M341.1 260.6c0 4.7-7.3 4.7-7.3 0C333.8 255.9 341.1 255.9 341.1 260.6" class="o"/><path d="M360.9 261.6c0 6.8-10.5 6.8-10.5 0C350.4 254.9 360.9 254.9 360.9 261.6" class="m"/><path d="M355 261.1c0 4.7-7.3 4.7-7.3 0S355 256.4 355 261.1" class="p"/><path d="M365.8 260.9c0 4.7-7.3 4.7-7.3 0C358.5 256.2 365.8 256.2 365.8 260.9" class="q"/><path d="M361.1 263.6c0 4.7-7.3 4.7-7.3 0C353.8 258.9 361.1 258.9 361.1 263.6" class="r"/><path d="M362 271.6c-8.5 0-17 0-25.5 0 -1.9 0-6.7 0.9-8.4 0 -1.9 0-5.3-9.3-2.4-9.3 9.1 0 18.2 0 27.3 0 3.7 0 7.4 0 11.1 0C366.9 262.3 363.8 271.6 362 271.6" class="s"/><path d="M345.8 263.6c0 4.7-7.3 4.7-7.3 0C338.5 258.9 345.8 258.9 345.8 263.6" class="t"/><path d="M352.2 261.9c0 4.7-7.3 4.7-7.3 0C344.9 257.2 352.2 257.2 352.2 261.9" class="u"/><path d="M406.4 257.7c0-5.1-3.3-29.1 4.4-29.1 5.1 0 31.2-3.4 31.2 4.3 1 4.8 0 10.9 0 15.8 0 3.8 1.7 13.3-4.4 13.3C432.5 262 406.4 265.5 406.4 257.7" class="d"/><path d="M406.4 257.7c0-5.1-3.3-29.1 4.4-29.1 5.1 0 31.2-3.4 31.2 4.3 1 4.8 0 10.9 0 15.8 0 3.8 1.7 13.3-4.4 13.3C432.5 262 406.4 265.5 406.4 257.7z" class="e"/><path d="M413.1 229.1c-2.3 3.2-7.1 7.3-6.2 11.6 2.7-3.8 5.5-7.7 8.2-11.5C414.5 229.1 413.7 229 413.1 229.1z" class="l"/><path d="M431.1 229.1c-2.3 3.2-7.1 7.3-6.2 11.6 2.7-3.8 5.5-7.7 8.2-11.5C432.5 229.1 431.7 229 431.1 229.1z" class="l"/><path d="M430.1 246.1c-2.3 3.2-7.1 7.3-6.2 11.6 2.7-3.8 5.5-7.7 8.2-11.5C431.5 246.1 430.7 246 430.1 246.1z" class="l"/><path d="M413.1 246.1c-2.3 3.2-7.1 7.3-6.2 11.6 2.7-3.8 5.5-7.7 8.2-11.5C414.5 246.1 413.7 246 413.1 246.1z" class="l"/><line x1="442.5" y1="245.5" x2="405.5" y2="245.5" class="d"/><path d="M406.5 245.5c6.2 0 12.5 0 18.7 0 4.1 0 8.3 0 12.4 0 0.2 0 6.3-0.3 4.9 1 -0.7 0.6-5 0-5.9 0 -4.3 0-8.5 0-12.8 0C421.3 246.5 406.8 247.8 406.5 245.5z" class="f"/><line x1="423.5" y1="227.5" x2="423.5" y2="262.5" class="d"/><path d="M423.5 228.5c2.1 0 1 12.8 1 14.9 0 2 1.5 18.2 0 19.1 -1.2 0.7-1-13.4-1-14.9C423.5 241.2 423.5 234.8 423.5 228.5z" class="f"/><path d="M417.9 261.8c0 6.8-10.5 6.8-10.5 0C407.4 255 417.9 255 417.9 261.8" class="m"/><path d="M411 262.4c0 4.7-7.3 4.7-7.3 0C403.7 257.7 411 257.7 411 262.4" class="n"/><path d="M427.5 261.1c0 6.8-10.5 6.8-10.5 0C417 254.4 427.5 254.4 427.5 261.1" class="m"/><path d="M420.1 261.6c0 4.7-7.3 4.7-7.3 0C412.8 256.9 420.1 256.9 420.1 261.6" class="o"/><path d="M439.9 262.6c0 6.8-10.5 6.8-10.5 0S439.9 255.8 439.9 262.6" class="m"/><path d="M434 262.1c0 4.7-7.3 4.7-7.3 0C426.7 257.4 434 257.4 434 262.1" class="p"/><path d="M444.8 261.9c0 4.7-7.3 4.7-7.3 0C437.5 257.2 444.8 257.2 444.8 261.9" class="q"/><path d="M440.1 264.6c0 4.7-7.3 4.7-7.3 0S440.1 259.9 440.1 264.6" class="r"/><path d="M441 272.6c-8.5 0-17 0-25.5 0 -1.9 0-6.7 0.9-8.4 0 -1.9 0-5.3-9.3-2.4-9.3 9.1 0 18.2 0 27.3 0 3.7 0 7.4 0 11.1 0C445.9 263.3 442.8 272.6 441 272.6" class="s"/><path d="M436.1 265.6c0 4.7-7.3 4.7-7.3 0C428.8 260.9 436.1 260.9 436.1 265.6" class="t"/><path d="M442.5 263.9c0 4.7-7.3 4.7-7.3 0C435.2 259.2 442.5 259.2 442.5 263.9" class="u"/><path d="M364.4 188.7c0-5.1-3.3-29.1 4.4-29.1 5.1 0 31.2-3.4 31.2 4.3 1 4.8 0 10.9 0 15.8 0 3.8 1.7 13.3-4.4 13.3C390.5 193 364.4 196.5 364.4 188.7" class="d"/><path d="M364.4 188.7c0-5.1-3.3-29.1 4.4-29.1 5.1 0 31.2-3.4 31.2 4.3 1 4.8 0 10.9 0 15.8 0 3.8 1.7 13.3-4.4 13.3C390.5 193 364.4 196.5 364.4 188.7z" class="e"/><path d="M371.1 160.1c-2.3 3.2-7.1 7.3-6.2 11.6 2.7-3.8 5.5-7.7 8.2-11.5C372.5 160.1 371.7 160 371.1 160.1z" class="l"/><path d="M389.1 160.1c-2.3 3.2-7.1 7.3-6.2 11.6 2.7-3.8 5.5-7.7 8.2-11.5C390.5 160.1 389.7 160 389.1 160.1z" class="l"/><path d="M388.1 177.1c-2.3 3.2-7.1 7.3-6.2 11.6 2.7-3.8 5.5-7.7 8.2-11.5C389.5 177.1 388.7 177 388.1 177.1z" class="l"/><path d="M371.1 177.1c-2.3 3.2-7.1 7.3-6.2 11.6 2.7-3.8 5.5-7.7 8.2-11.5C372.5 177.1 371.7 177 371.1 177.1z" class="l"/><line x1="400.5" y1="176.5" x2="363.5" y2="176.5" class="d"/><path d="M364.5 176.5c6.2 0 12.5 0 18.7 0 4.1 0 8.3 0 12.4 0 0.2 0 6.3-0.3 4.9 1 -0.7 0.6-5 0-5.9 0 -4.3 0-8.5 0-12.8 0C379.3 177.5 364.8 178.8 364.5 176.5z" class="f"/><line x1="381.5" y1="158.5" x2="381.5" y2="193.5" class="d"/><path d="M381.5 159.5c2.1 0 1 12.8 1 14.9 0 2 1.5 18.2 0 19.1 -1.2 0.7-1-13.4-1-14.9C381.5 172.2 381.5 165.8 381.5 159.5z" class="f"/><path d="M376.4 191.6c0 6.8-10.5 6.8-10.5 0C366 184.8 376.4 184.8 376.4 191.6" class="m"/><path d="M369.6 192.2c0 4.7-7.3 4.7-7.3 0S369.6 187.5 369.6 192.2" class="n"/><path d="M386.1 190.9c0 6.8-10.5 6.8-10.5 0C375.6 184.2 386.1 184.2 386.1 190.9" class="m"/><path d="M378.6 191.4c0 4.7-7.3 4.7-7.3 0C371.3 186.7 378.6 186.7 378.6 191.4" class="o"/><path d="M398.4 192.4c0 6.8-10.5 6.8-10.5 0C388 185.6 398.4 185.6 398.4 192.4" class="m"/><path d="M392.6 191.9c0 4.7-7.3 4.7-7.3 0S392.6 187.2 392.6 191.9" class="p"/><path d="M403.4 191.6c0 4.7-7.3 4.7-7.3 0C396.1 186.9 403.4 186.9 403.4 191.6" class="q"/><path d="M398.6 194.3c0 4.7-7.3 4.7-7.3 0C391.4 189.6 398.6 189.6 398.6 194.3" class="r"/><path d="M399.5 202.3c-8.5 0-17 0-25.5 0 -1.9 0-6.7 0.9-8.4 0 -1.9 0-5.3-9.3-2.4-9.3 9.1 0 18.2 0 27.3 0 3.7 0 7.4 0 11.1 0C404.4 193 401.4 202.3 399.5 202.3" class="s"/><path d="M380.1 198c0 4.7-7.3 4.7-7.3 0C372.8 193.3 380.1 193.3 380.1 198" class="t"/><path d="M381.3 194.3c0 4.7-7.3 4.7-7.3 0C374 189.6 381.3 189.6 381.3 194.3" class="u"/><path d="M407.4 341.7c0-5.1-3.3-29.1 4.4-29.1 5.1 0 31.2-3.4 31.2 4.3 1 4.8 0 10.9 0 15.8 0 3.8 1.7 13.3-4.4 13.3C433.5 346 407.4 349.5 407.4 341.7" class="d"/><path d="M407.4 341.7c0-5.1-3.3-29.1 4.4-29.1 5.1 0 31.2-3.4 31.2 4.3 1 4.8 0 10.9 0 15.8 0 3.8 1.7 13.3-4.4 13.3C433.5 346 407.4 349.5 407.4 341.7z" class="e"/><path d="M414.1 313.1c-2.3 3.2-7.1 7.3-6.2 11.6 2.7-3.8 5.5-7.7 8.2-11.5C415.5 313.1 414.7 313 414.1 313.1z" class="l"/><path d="M432.1 313.1c-2.3 3.2-7.1 7.3-6.2 11.6 2.7-3.8 5.5-7.7 8.2-11.5C433.5 313.1 432.7 313 432.1 313.1z" class="l"/><path d="M431.1 330.1c-2.3 3.2-7.1 7.3-6.2 11.6 2.7-3.8 5.5-7.7 8.2-11.5C432.5 330.1 431.7 330 431.1 330.1z" class="l"/><path d="M414.1 330.1c-2.3 3.2-7.1 7.3-6.2 11.6 2.7-3.8 5.5-7.7 8.2-11.5C415.5 330.1 414.7 330 414.1 330.1z" class="l"/><line x1="443.5" y1="329.5" x2="406.5" y2="329.5" class="d"/><path d="M407.5 329.5c6.2 0 12.5 0 18.7 0 4.1 0 8.3 0 12.4 0 0.2 0 6.3-0.3 4.9 1 -0.7 0.6-5 0-5.9 0 -4.3 0-8.5 0-12.8 0C422.3 330.5 407.8 331.8 407.5 329.5z" class="f"/><line x1="424.5" y1="311.5" x2="424.5" y2="346.5" class="d"/><path d="M424.5 312.5c2.1 0 1 12.8 1 14.9 0 2 1.5 18.2 0 19.1 -1.2 0.7-1-13.4-1-14.9C424.5 325.2 424.5 318.8 424.5 312.5z" class="f"/><path d="M418.9 345.4c0 6.8-10.5 6.8-10.5 0C408.4 338.7 418.9 338.7 418.9 345.4" class="m"/><path d="M412 346.1c0 4.7-7.3 4.7-7.3 0C404.7 341.4 412 341.4 412 346.1" class="n"/><path d="M428.5 344.8c0 6.8-10.5 6.8-10.5 0S428.5 338 428.5 344.8" class="m"/><path d="M421.1 345.2c0 4.7-7.3 4.7-7.3 0C413.8 340.5 421.1 340.5 421.1 345.2" class="o"/><path d="M440.9 346.2c0 6.8-10.5 6.8-10.5 0C430.4 339.5 440.9 339.5 440.9 346.2" class="m"/><path d="M435 345.7c0 4.7-7.3 4.7-7.3 0C427.7 341 435 341 435 345.7" class="p"/><path d="M445.8 345.5c0 4.7-7.3 4.7-7.3 0C438.5 340.8 445.8 340.8 445.8 345.5" class="q"/><path d="M441.1 348.2c0 4.7-7.3 4.7-7.3 0C433.8 343.5 441.1 343.5 441.1 348.2" class="r"/><path d="M442 356.2c-8.5 0-17 0-25.5 0 -1.9 0-6.7 0.9-8.4 0 -1.9 0-5.3-9.3-2.4-9.3 9.1 0 18.2 0 27.3 0 3.7 0 7.4 0 11.1 0C446.9 346.9 443.8 356.2 442 356.2" class="s"/><path d="M425.8 348.2c0 4.7-7.3 4.7-7.3 0C418.5 343.5 425.8 343.5 425.8 348.2" class="t"/><path d="M426.9 352.5c0 4.7-7.3 4.7-7.3 0S426.9 347.8 426.9 352.5" class="u"/><path d="M420.7 348.8c-1.2 0-12.3-0.3-12.2 0.6C409.1 353.4 422.2 353.7 420.7 348.8" fill="#0C2328"/></svg>