<svg version="1.1" id="Layer_1" xmlns="http://www.w3.org/2000/svg" xmlns:xlink="http://www.w3.org/1999/xlink" x="0px" y="0px"
 viewBox="0 0 768 430" enable-background="new 0 0 768 430" xml:space="preserve">
<path fill="none" d="M175.28,171.6c-0.04,0-0.08,0.01-0.12,0.04c-0.16,0.1-0.22,0.3-0.12,0.45c0.25,0.4,0.42,0.33,0.42-0.18
	C175.46,171.72,175.38,171.61,175.28,171.6z"/>
<path fill="#DDE4D0" d="M215.22,261.51c-1.3-0.67-4.17-0.93-8.74-0.81c-5.19,0.14-6.76-0.091-8.25-1.19
	c-1.16-0.859-1.74-1.949-2.41-4.529c-0.46-1.801-0.52-3.449-0.53-15.801c0-7.59-0.08-18.449-0.16-24.14
	c-0.36-25.04-0.38-31.45-0.1-34.04c0.54-4.97,2.01-6.44,6.38-6.4c1.13,0.01,3.88,0.03,6.11,0.05c4.99,0.05,6.7-0.44,8.75-2.54
	c1.89-1.93,2.42-3.19,2.43-5.77c0.01-1.78-0.14-2.47-0.83-3.96c-1.94-4.2-4.72-5.14-13.39-4.52c-3.81,0.28-24.75,0.37-30.03,0.14
	c-5.35-0.24-9.26-0.35-12.04-0.33l0,0c-2.79,0.02-4.46,0.18-5.32,0.47c-1.87,0.63-3.67,2.18-4.35,3.76c-0.8,1.87-0.99,4.9-0.41,6.6
	c0.83,2.43,3.57,5.13,5.59,5.5c0.24,0.04,1.02,0.19,1.74,0.32c0.72,0.14,3.33,0.2,5.78,0.13c9.08-0.26,10.98,0.78,11.3,6.2
	c0.12,2.08,0.52,58.4,0.42,60.26c-0.05,0.93-0.05,0.869-0.02,8.57c0.02,5.358-0.04,6.039-0.74,7.6c-0.46,1.02-2.46,2.65-3.27,2.65
	c-0.27,0-0.95,0.188-1.49,0.41c-0.71,0.299-2.63,0.438-6.86,0.528c-3.23,0.07-6.32,0.271-6.89,0.45c-1.47,0.47-3.26,2.109-4,3.67
	c-0.94,1.99-0.92,5.16,0.05,7.318c0.89,1.972,2.79,3.66,4.89,4.33c0.83,0.271,2.03,0.44,2.66,0.381
	c8.82-0.84,29.2-1.061,41.71-0.449c7.92,0.38,8.5,0.37,10.31-0.12c3.88-1.05,5.88-3.729,5.88-7.88
	C219.42,265.83,217.48,262.66,215.22,261.51z M175.04,172.09c-0.09-0.15-0.04-0.35,0.13-0.45c0.04-0.02,0.08-0.04,0.12-0.04
	c0.1,0,0.18,0.12,0.18,0.31C175.46,172.41,175.28,172.49,175.04,172.09z"/>
<path fill="#BA656D" d="M404.82,179.25c-0.42-2.29-2.381-7.57-4.1-11.07c-2.642-5.36-8.4-12.33-13.392-16.21
	c-1.642-1.28-9.51-4.91-12.41-5.74c-5.94-1.69-16.37-1.92-22.28-0.51c-4.28,1.03-10.95,3.83-13.28,5.59
	c-0.45,0.34-1.81,1.25-3.03,2.04c-3.25,2.08-9.74,8.51-10.3,10.2c-0.3,0.89-1.81,0-2.89-1.71c-1.28-2.01-5.35-6.41-7.41-7.99
	c-3.99-3.07-5.23-3.91-7.77-5.27c-2.82-1.5-3.85-1.89-8.91-3.31c-7.56-2.12-16.42-1.58-25.1,1.55c-1.69,0.61-4,1.6-5.13,2.19
	c-3.47,1.83-10.63,8.28-13.64,12.28c-3.61,4.8-7.56,14.09-8.53,20.06c-0.45,2.77-0.42,17.15,0.04,19.43c0.2,0.98,0.5,2.51,0.68,3.4
	c0.85,4.37,2.05,8.58,3.13,11.02c0.44,0.989,0.8,1.94,0.8,2.1c0,1,5.37,11.03,7.28,13.601c0.46,0.619,2.06,2.811,3.55,4.859
	c3.51,4.84,5.12,6.77,9.25,11.11c4.98,5.239,11,10.94,14.54,13.771c7,5.609,14.77,11.42,17.61,13.17
	c0.58,0.359,1.69,1.119,2.47,1.699c0.78,0.58,1.54,1.051,1.69,1.051c0.14,0,0.91,0.439,1.7,0.969c0.79,0.531,1.58,0.972,1.76,0.972
	c0.17,0,0.49,0.2,0.7,0.46c0.21,0.25,2.42,1.59,4.91,2.971l0,0c3.51,2,6.82,4.051,10.25,5.359c2.95-1.53,5.84-3.141,8.67-4.87
	c1.25-0.819,2.63-1.642,3.08-1.812c0.45-0.18,1.54-0.879,2.43-1.568c0.89-0.682,3.22-2.29,5.18-3.58
	c1.96-1.279,4.87-3.271,6.48-4.41c1.6-1.14,3.64-2.56,4.53-3.17c0.89-0.602,2.28-1.68,3.08-2.39c2.48-2.19,7.74-6.552,9-7.45
	c1.83-1.311,12.18-11.96,15.54-15.979c4.21-5.041,4.142-4.94,5.76-7.451c0.812-1.25,1.73-2.561,2.052-2.909
	c0.84-0.94,3.5-5.41,5.028-8.46c0.729-1.45,1.53-2.881,1.79-3.19c0.49-0.59,4.102-10.81,4.58-12.97c1.311-5.9,1.602-8.15,1.79-13.93
	C406.12,188.2,405.84,184.84,404.82,179.25z"/>
<path fill="#DDE4D0" d="M464.81,195.76c-2.778,5.46-5.238,10.16-7.278,14.87h-0.21c-2.25-5.03-4.392-9.42-7.17-14.87l-10.16-19.9
	H429.4l22.79,41.51v30.601h9.42V217.26l24.18-41.41H475.2L464.81,195.76z"/>
<path fill="#DDE4D0" d="M519.38,174.68c-19.26,0-33.49,14.98-33.49,37.88c0,21.831,13.38,36.59,32.42,36.59
	c18.4,0,33.49-13.16,33.49-37.98C551.79,189.76,539.06,174.68,519.38,174.68z M518.84,241.55c-14.66,0-23-13.8-23-29.21
	c0-15.83,7.7-30.06,23.11-30.06c15.52,0,23,14.98,23,29.32C541.95,227.96,533.61,241.55,518.84,241.55z"/>
<path fill="#DDE4D0" d="M607.54,175.86v42.69c0,15.94-6.85,23-17.55,23c-9.63,0-16.8-6.85-16.8-23v-42.69h-9.422v42.48
	c0,22.36,11.132,30.811,25.892,30.811c15.62,0,27.28-9.101,27.28-31.239v-42.05L607.54,175.86L607.54,175.86z"/>
</svg>
