<svg version="1.1" xmlns="http://www.w3.org/2000/svg"   viewBox="0 0 768 430" enable-background="new 0 0 768 430" xml:space="preserve"><path fill="none" d="M174.28 171.6c-0.04 0-0.08 0.01-0.12 0.04 -0.16 0.1-0.22 0.3-0.12 0.45 0.25 0.4 0.42 0.33 0.42-0.18C174.46 171.72 174.38 171.61 174.28 171.6z"/><path fill="#DDE4D0" d="M214.22 261.51c-1.3-0.67-4.17-0.93-8.74-0.81 -5.19 0.14-6.76-0.09-8.25-1.19 -1.16-0.86-1.74-1.95-2.41-4.53 -0.46-1.8-0.52-3.45-0.53-15.8 0-7.59-0.08-18.45-0.16-24.14 -0.36-25.04-0.38-31.45-0.1-34.04 0.54-4.97 2.01-6.44 6.38-6.4 1.13 0.01 3.88 0.03 6.11 0.05 4.99 0.05 6.7-0.44 8.75-2.54 1.89-1.93 2.42-3.19 2.43-5.77 0.01-1.78-0.14-2.47-0.83-3.96 -1.94-4.2-4.72-5.14-13.39-4.52 -3.81 0.28-24.75 0.37-30.03 0.14 -5.35-0.24-9.26-0.35-12.04-0.33h0c-2.79 0.02-4.46 0.18-5.32 0.47 -1.87 0.63-3.67 2.18-4.35 3.76 -0.8 1.87-0.99 4.9-0.41 6.6 0.83 2.43 3.57 5.13 5.59 5.5 0.24 0.04 1.02 0.19 1.74 0.32 0.72 0.14 3.33 0.2 5.78 0.13 9.08-0.26 10.98 0.78 11.3 6.2 0.12 2.08 0.52 58.4 0.42 60.26 -0.05 0.93-0.05 0.87-0.02 8.57 0.02 5.36-0.04 6.04-0.74 7.6 -0.46 1.02-2.46 2.65-3.27 2.65 -0.27 0-0.95 0.19-1.49 0.41 -0.71 0.3-2.63 0.44-6.86 0.53 -3.23 0.07-6.32 0.27-6.89 0.45 -1.47 0.47-3.26 2.11-4 3.67 -0.94 1.99-0.92 5.16 0.05 7.32 0.89 1.97 2.79 3.66 4.89 4.33 0.83 0.27 2.03 0.44 2.66 0.38 8.82-0.84 29.2-1.06 41.71-0.45 7.92 0.38 8.5 0.37 10.31-0.12 3.88-1.05 5.88-3.73 5.88-7.88C218.42 265.83 216.48 262.66 214.22 261.51zM174.04 172.09c-0.09-0.15-0.04-0.35 0.13-0.45 0.04-0.02 0.08-0.04 0.12-0.04 0.1 0 0.18 0.12 0.18 0.31C174.46 172.41 174.28 172.49 174.04 172.09z"/><path fill="#DDE4D0" d="M403.82 179.25c-0.42-2.29-2.38-7.57-4.1-11.07 -2.64-5.36-8.4-12.33-13.39-16.21 -1.64-1.28-9.51-4.91-12.41-5.74 -5.94-1.69-16.37-1.92-22.28-0.51 -4.28 1.03-10.95 3.83-13.28 5.59 -0.45 0.34-1.81 1.25-3.03 2.04 -3.25 2.08-9.74 8.51-10.3 10.2 -0.3 0.89-1.81 0-2.89-1.71 -1.28-2.01-5.35-6.41-7.41-7.99 -3.99-3.07-5.23-3.91-7.77-5.27 -2.82-1.5-3.85-1.89-8.91-3.31 -7.56-2.12-16.42-1.58-25.1 1.55 -1.69 0.61-4 1.6-5.13 2.19 -3.47 1.83-10.63 8.28-13.64 12.28 -3.61 4.8-7.56 14.09-8.53 20.06 -0.45 2.77-0.42 17.15 0.04 19.43 0.2 0.98 0.5 2.51 0.68 3.4 0.85 4.37 2.05 8.58 3.13 11.02 0.44 0.99 0.8 1.94 0.8 2.1 0 1 5.37 11.03 7.28 13.6 0.46 0.62 2.06 2.81 3.55 4.86 3.51 4.84 5.12 6.77 9.25 11.11 4.98 5.24 11 10.94 14.54 13.77 7 5.61 14.77 11.42 17.61 13.17 0.58 0.36 1.69 1.12 2.47 1.7 0.78 0.58 1.54 1.05 1.69 1.05 0.14 0 0.91 0.44 1.7 0.97 0.79 0.53 1.58 0.97 1.76 0.97 0.17 0 0.49 0.2 0.7 0.46 0.21 0.25 2.42 1.59 4.91 2.97h0c3.51 2 6.82 4.05 10.25 5.36 2.95-1.53 5.84-3.14 8.67-4.87 1.25-0.82 2.63-1.64 3.08-1.81 0.45-0.18 1.54-0.88 2.43-1.57 0.89-0.68 3.22-2.29 5.18-3.58 1.96-1.28 4.87-3.27 6.48-4.41 1.6-1.14 3.64-2.56 4.53-3.17 0.89-0.6 2.28-1.68 3.08-2.39 2.48-2.19 7.74-6.55 9-7.45 1.83-1.31 12.18-11.96 15.54-15.98 4.21-5.04 4.14-4.94 5.76-7.45 0.81-1.25 1.73-2.56 2.05-2.91 0.84-0.94 3.5-5.41 5.03-8.46 0.73-1.45 1.53-2.88 1.79-3.19 0.49-0.59 4.1-10.81 4.58-12.97 1.31-5.9 1.6-8.15 1.79-13.93C405.12 188.2 404.84 184.84 403.82 179.25z"/><path fill="#DDE4D0" d="M463.81 195.76c-2.78 5.46-5.24 10.16-7.28 14.87h-0.21c-2.25-5.03-4.39-9.42-7.17-14.87l-10.16-19.9h-10.59l22.79 41.51v30.6h9.42v-30.71l24.18-41.41h-10.59L463.81 195.76z"/><path fill="#DDE4D0" d="M518.38 174.68c-19.26 0-33.49 14.98-33.49 37.88 0 21.83 13.38 36.59 32.42 36.59 18.4 0 33.49-13.16 33.49-37.98C550.79 189.76 538.06 174.68 518.38 174.68zM517.84 241.55c-14.66 0-23-13.8-23-29.21 0-15.83 7.7-30.06 23.11-30.06 15.52 0 23 14.98 23 29.32C540.95 227.96 532.61 241.55 517.84 241.55z"/><path fill="#DDE4D0" d="M606.54 175.86v42.69c0 15.94-6.85 23-17.55 23 -9.63 0-16.8-6.85-16.8-23v-42.69h-9.42v42.48c0 22.36 11.13 30.81 25.89 30.81 15.62 0 27.28-9.1 27.28-31.24v-42.05H606.54z"/></svg>