<svg version="1.1" id="Layer_1" xmlns="http://www.w3.org/2000/svg" xmlns:xlink="http://www.w3.org/1999/xlink" x="0px" y="0px" viewBox="0 0 768 430" enable-background="new 0 0 768 430" xml:space="preserve">
<path fill="none" d="M190.286,164.602c-0.039,0-0.079,0.01-0.119,0.04c-0.16,0.1-0.221,0.3-0.12,0.45c0.25,0.4,0.42,0.33,0.42-0.18
	C190.467,164.722,190.387,164.612,190.286,164.602z"/>
<path fill="#DDE4D0" d="M230.228,254.512c-1.301-0.67-4.171-0.93-8.74-0.81c-5.19,0.14-6.76-0.091-8.25-1.19
	c-1.16-0.859-1.74-1.949-2.41-4.529c-0.461-1.801-0.521-3.448-0.53-15.801c0-7.59-0.08-18.449-0.16-24.14
	c-0.36-25.04-0.38-31.45-0.101-34.04c0.541-4.97,2.011-6.44,6.381-6.4c1.13,0.01,3.88,0.03,6.109,0.05
	c4.99,0.05,6.701-0.44,8.75-2.54c1.891-1.93,2.42-3.19,2.431-5.77c0.01-1.78-0.14-2.47-0.83-3.96c-1.94-4.2-4.72-5.14-13.39-4.52
	c-3.811,0.28-24.75,0.37-30.03,0.14c-5.351-0.24-9.261-0.35-12.04-0.33l0,0c-2.79,0.02-4.46,0.18-5.32,0.47
	c-1.869,0.63-3.67,2.18-4.35,3.76c-0.801,1.87-0.99,4.9-0.41,6.6c0.83,2.43,3.57,5.13,5.59,5.5c0.24,0.04,1.02,0.19,1.74,0.32
	c0.72,0.14,3.33,0.2,5.779,0.13c9.08-0.26,10.98,0.78,11.301,6.2c0.119,2.08,0.52,58.4,0.42,60.26
	c-0.051,0.93-0.051,0.869-0.02,8.57c0.02,5.357-0.041,6.039-0.74,7.6c-0.461,1.02-2.461,2.65-3.271,2.65
	c-0.271,0-0.95,0.188-1.489,0.41c-0.711,0.299-2.631,0.438-6.861,0.527c-3.229,0.07-6.319,0.271-6.889,0.45
	c-1.471,0.47-3.261,2.108-4,3.67c-0.94,1.989-0.921,5.16,0.049,7.317c0.891,1.973,2.791,3.66,4.891,4.33
	c0.83,0.271,2.029,0.44,2.66,0.381c8.82-0.84,29.199-1.061,41.71-0.448c7.92,0.38,8.5,0.37,10.31-0.12
	c3.881-1.05,5.881-3.729,5.881-7.88C234.427,258.832,232.487,255.662,230.228,254.512z M190.047,165.092
	c-0.09-0.15-0.04-0.35,0.13-0.45c0.04-0.02,0.08-0.04,0.12-0.04c0.101,0,0.181,0.12,0.181,0.31
	C190.467,165.412,190.286,165.492,190.047,165.092z"/>
<path fill="#BA656D" d="M419.827,172.252c-0.42-2.29-2.381-7.57-4.1-11.07c-2.643-5.36-8.4-12.33-13.393-16.21
	c-1.643-1.28-9.51-4.91-12.41-5.74c-5.939-1.69-16.37-1.92-22.279-0.51c-4.281,1.03-10.951,3.83-13.281,5.59
	c-0.449,0.34-1.81,1.25-3.029,2.04c-3.25,2.08-9.74,8.51-10.301,10.2c-0.299,0.89-1.81,0-2.889-1.71
	c-1.281-2.01-5.351-6.41-7.41-7.99c-3.99-3.07-5.23-3.91-7.771-5.27c-2.819-1.5-3.851-1.89-8.91-3.31
	c-7.56-2.12-16.42-1.58-25.1,1.55c-1.69,0.61-4,1.6-5.13,2.19c-3.471,1.83-10.631,8.28-13.641,12.28
	c-3.609,4.8-7.56,14.09-8.529,20.06c-0.45,2.77-0.42,17.15,0.039,19.43c0.201,0.98,0.5,2.51,0.681,3.4
	c0.85,4.37,2.05,8.58,3.13,11.02c0.439,0.989,0.8,1.94,0.8,2.1c0,1,5.37,11.03,7.28,13.601c0.46,0.619,2.061,2.812,3.55,4.859
	c3.511,4.84,5.12,6.77,9.25,11.11c4.979,5.239,11,10.94,14.54,13.771c7,5.609,14.77,11.42,17.609,13.17
	c0.58,0.359,1.69,1.119,2.471,1.699c0.779,0.58,1.54,1.051,1.689,1.051c0.141,0,0.91,0.439,1.701,0.969
	c0.789,0.531,1.579,0.973,1.76,0.973c0.17,0,0.49,0.2,0.699,0.46c0.211,0.25,2.42,1.59,4.91,2.972l0,0
	c3.51,2,6.82,4.051,10.25,5.358c2.95-1.53,5.84-3.142,8.67-4.87c1.25-0.818,2.631-1.643,3.08-1.812c0.45-0.18,1.54-0.879,2.43-1.567
	c0.891-0.683,3.221-2.29,5.181-3.58c1.96-1.278,4.87-3.271,6.479-4.41c1.601-1.14,3.641-2.56,4.53-3.17
	c0.89-0.603,2.28-1.68,3.08-2.39c2.479-2.19,7.74-6.553,9-7.45c1.83-1.312,12.181-11.96,15.54-15.979
	c4.21-5.041,4.143-4.939,5.76-7.451c0.812-1.25,1.73-2.561,2.053-2.908c0.84-0.94,3.5-5.41,5.027-8.46
	c0.729-1.45,1.53-2.882,1.79-3.19c0.49-0.59,4.103-10.81,4.58-12.97c1.312-5.9,1.603-8.15,1.79-13.93
	C421.127,181.202,420.847,177.842,419.827,172.252z"/>
<path fill="#DDE4D0" d="M479.816,188.762c-2.777,5.46-5.237,10.16-7.277,14.87h-0.21c-2.25-5.03-4.393-9.42-7.17-14.87l-10.16-19.9
	h-10.592l22.79,41.51v30.601h9.42v-30.711l24.18-41.41h-10.59L479.816,188.762z"/>
<path fill="#DDE4D0" d="M534.387,167.682c-19.26,0-33.49,14.98-33.49,37.88c0,21.831,13.38,36.59,32.42,36.59
	c18.4,0,33.49-13.16,33.49-37.98C566.797,182.762,554.066,167.682,534.387,167.682z M533.847,234.552c-14.66,0-23-13.8-23-29.21
	c0-15.83,7.7-30.06,23.11-30.06c15.52,0,23,14.98,23,29.32C556.957,220.962,548.617,234.552,533.847,234.552z"/>
<path fill="#DDE4D0" d="M622.547,168.862v42.69c0,15.94-6.85,23-17.55,23c-9.63,0-16.8-6.85-16.8-23v-42.69h-9.423v42.48
	c0,22.36,11.133,30.811,25.893,30.811c15.62,0,27.28-9.101,27.28-31.238v-42.05L622.547,168.862L622.547,168.862z"/>
</svg>
