<svg version="1.1" xmlns="http://www.w3.org/2000/svg" xmlns:xlink="http://www.w3.org/1999/xlink" viewBox="0 0 768 430" style="enable-background:new 0 0 768 430;" xml:space="preserve"><g id="ice_cream"> <g>  <rect x="371.556" y="125.462" style="fill:none;" width="2.988" height="101.608"/>  <rect x="400.586" y="119.912" style="fill:none;" width="2.988" height="101.606"/>  <rect x="428.763" y="126.316" style="fill:none;" width="2.988" height="101.608"/>  <path style="fill:none;" d="M415.613,254.838c-8.522,0-16.818,0-25.355,0c-0.055,1.071-0.129,1.918-0.132,2.763 c-0.005,9.884-0.01,19.769,0.008,29.651c0.008,3.836-0.099,7.687,0.155,11.51c0.334,5.053,4.104,8.619,9.185,8.933 c2.054,0.126,4.122,0.099,6.184,0.048c6.164-0.149,10.071-4.136,10.075-10.275c0.01-13.439,0.005-26.877-0.003-40.317 C415.729,256.402,415.656,255.654,415.613,254.838z"/>  <path style="fill:#DDE4D0;" d="M451.419,133.589c-0.185-8.449-0.555-16.906-2.581-25.187 c-6.367-26.032-30.672-41.329-56.586-34.962c-20.012,4.917-31.3,18.655-35.576,38.35c-2.441,11.237-2.395,22.764-2.485,34.195 c-0.159,20.337,0.003,40.679,0.254,61.016c0.183,14.784,0.719,29.563,1.114,44.348c0.076,2.882,0.65,3.396,3.617,3.398 c8.821,0.004,17.641,0,26.461,0c0.765,0,1.53,0,2.351,0c0,8.491-0.015,16.734,0.004,24.98c0.017,6.399-0.114,12.807,0.172,19.196 c0.274,6.129,4.935,10.536,11.049,10.892c2.199,0.129,4.41,0.114,6.613,0.062c7.279-0.166,12.042-5.07,12.046-12.369 c0.009-13.302,0.003-26.604,0.003-39.907c0-0.848,0-1.691,0-2.854c1.099,0,1.868,0,2.639,0c8.963,0,17.925,0.009,26.889-0.008 c2.348-0.004,3.085-0.701,3.131-3c0.508-24.597,1.17-49.19,1.43-73.788C452.121,163.167,451.741,148.375,451.419,133.589z  M374.544,227.07h-2.988V125.462h2.988V227.07z M400.586,119.912h2.988v101.606h-2.988V119.912z M405.657,307.742 c-2.062,0.051-4.13,0.078-6.184-0.048c-5.08-0.313-8.851-3.88-9.185-8.933c-0.254-3.823-0.147-7.674-0.155-11.51 c-0.018-9.883-0.013-19.768-0.008-29.651c0.003-0.845,0.077-1.691,0.132-2.763c8.537,0,16.833,0,25.355,0 c0.043,0.816,0.116,1.564,0.116,2.312c0.008,13.44,0.013,26.878,0.003,40.317C415.729,303.606,411.821,307.593,405.657,307.742z  M431.751,227.924h-2.988V126.316h2.988V227.924z"/> </g></g><g id="Layer_1"></g></svg>