<svg version="1.1" id="Layer_1" xmlns="http://www.w3.org/2000/svg" xmlns:xlink="http://www.w3.org/1999/xlink" x="0px" y="0px"
	  viewBox="0 0 768 430" enable-background="new 0 0 768 430" xml:space="preserve">
<g>
	<path fill="#F5B654" d="M372.283,387.716L372.283,387.716c-12.171-0.897-21.31-11.485-20.415-23.656l7.109-96.609l44.066,3.242
		l-7.107,96.61C395.041,379.473,384.45,388.611,372.283,387.716z"/>
	<path fill="#D3699A" d="M435.709,283.888l-110.976-8.164c-8.202-0.604-14.361-7.742-13.757-15.943l12.025-163.469
		c2.6-35.291,33.312-61.792,68.598-59.196l12.885,0.948c35.289,2.596,61.793,33.308,59.197,68.599l-12.029,163.469
		C451.049,278.332,443.91,284.492,435.709,283.888z"/>
	<g opacity="0.48">
		<path fill="#F7ADB8" d="M356.354,249.392L356.354,249.392c-7.503-0.551-13.134-7.081-12.583-14.579l11.229-152.595
			c0.551-7.501,7.077-13.133,14.579-12.583l0,0c7.501,0.554,13.134,7.081,12.583,14.583l-11.23,152.591
			C370.383,244.311,363.855,249.942,356.354,249.392z"/>
		<path fill="#F7ADB8" d="M408.282,253.211L408.282,253.211c-7.502-0.55-13.135-7.077-12.579-14.579l11.225-152.595
			c0.551-7.498,7.081-13.134,14.579-12.579h0.005c7.498,0.55,13.13,7.077,12.58,14.579l-11.227,152.595
			C422.312,248.13,415.783,253.766,408.282,253.211z"/>
	</g>
</g>
</svg>
