<svg xmlns="http://www.w3.org/2000/svg" viewBox="0 0 768 430"><style>.a{fill:#DBDBDB;}.b{fill:#EFEFEF;}.c{fill:#F7F7F7;}.d{fill:#A8A0A3;}.e{fill:#CCC;}.f{fill:#E8E8E8;}.g{fill:#AAA9A9;}.h{fill:#E0DEDF;}.i{fill:#0393F9;}.j{fill:#035EFF;}.k{fill:#D33368;}.l{fill:#FFBBCD;}</style><path d="M261 91.1c0 0 0.5-15.2-10.9-22.3 -11.4-7-22.3-5.3-22.3-5.3 1.9 2.4 1.9 2.4 1.9 2.4 -4.1 0-14.3 3.4-18.6 9 4.4-1 4.4-1 4.4-1 -4.6 3.9-8 8.7-7 13.3 1.7-1 3.9-1.9 3.9-1.9 -3.4 6.8-4.6 11.1-2.4 16.2 0.2-1.5 2.7-3.6 2.7-3.6 -0.2 3.6 1.2 10.6 3.9 13.3 -0.2-1.9 0-4.8 0-4.8 2.2 4.8 6.3 8.7 9.2 9.9 -0.5-2.4-1-3.6-1-3.6 4.4 3.6 13.5 6.8 20.1 3.6C251.4 113.1 261 91.1 261 91.1z" class="a"/><path d="M261 91.1c0 0 0.5-15.2-10.9-22.3 -11.4-7-22.3-5.3-22.3-5.3 1.9 2.4 1.9 2.4 1.9 2.4 -4.1 0-14.3 3.4-18.6 9 4.4-1 4.4-1 4.4-1 -4.6 3.9-8 8.7-7 13.3 1.7-1 3.9-1.9 3.9-1.9 -3.4 6.8-4.6 11.1-2.4 16.2 0.2-1.5 2.7-3.6 2.7-3.6 -0.2 3.6 0 6.4 2.7 9.1 -0.2-1.9 0.5-6.4 0.5-6.4 2.2 4.8 5 11.8 7.9 13 -0.5-2.4-1.4-5.3-1.4-5.3 4.4 3.6 15.5 9.3 22.1 6.1C250.9 111.2 261 91.1 261 91.1z" class="b"/><path d="M261 91.1c0 0 0.5-15.2-10.9-22.3 -11.4-7-22.3-5.3-22.3-5.3 1.9 2.4 1.9 2.4 1.9 2.4 -4.1 0-14.3 3.4-18.6 9 4.4-1 4.4-1 4.4-1 -4.6 3.9-8 8.7-7 13.3 1.7-1 3.9-1.9 3.9-1.9 -3.4 6.8-4.6 11.1-2.4 16.2 0.2-1.5 4.1-8.1 4.1-8.1 -0.2 3.6-2.3 8.3 0.4 11 -0.2-1.9 0.7-10.3 0.7-10.3 2.2 4.8 3.5 15 6.4 16.2 -0.5-2.4-0.6-5.4-0.6-5.4 4.4 3.6 14.1 10.8 20.7 7.6C248.2 109.3 261 91.1 261 91.1z" class="c"/><path d="M238.7 117.9L238.7 117.9c-5.1 0-10.1-2-13.2-4.3 0.2 0.6 0.4 1.5 0.6 2.6l0.1 0.7 -0.6-0.3c-2.7-1.1-6.4-4.5-8.8-8.9 0 1-0.1 2.3 0.1 3.4l0.1 1 -0.7-0.7c-2.6-2.6-4-8.8-4-12.7 -0.8 0.8-1.8 2-1.9 2.8l-0.2 1.2 -0.5-1.1c-2.2-5-1-9.4 2-15.6 -0.8 0.4-1.9 0.9-2.9 1.5l-0.4 0.2 -0.1-0.5c-0.8-3.9 1.3-8.4 6.1-12.7l-4 0.9 0.6-0.8c4.2-5.3 13.6-8.7 18.2-9.1l-1.9-2.3 0.6-0.1c0 0 1.2-0.2 3.2-0.2 3.9 0 11.5 0.7 19.3 5.6 11.4 7 11.1 22.4 11.1 22.6l0 0.1c-0.4 0.9-9.8 22.2-16.4 25.3C243.2 117.4 241 117.9 238.7 117.9zM223.9 111.4l1.1 0.9c2.8 2.3 8.3 4.8 13.7 4.8 2.2 0 4.2-0.4 6-1.3 6.2-3 15.4-23.6 16-24.9 0-1.1 0-15.3-10.7-21.9 -7.7-4.7-15.2-5.4-19-5.4 -1.1 0-1.9 0.1-2.4 0.1l2 2.5h-0.8c-3.8 0-13.1 3-17.7 8l4.7-1.1 -1.1 1c-3 2.5-7.7 7.4-7 12.5 1.6-0.9 3.4-1.7 3.5-1.7l0.9-0.4 -0.5 0.9c-3.1 6.2-4.4 10.4-2.7 15 0.7-1.4 2.3-2.8 2.4-2.9l0.7-0.6 -0.1 0.9c-0.2 3.1 0.9 9.1 3.1 12.2 -0.1-1.8 0.1-3.7 0.1-3.8l0.1-1.4 0.6 1.3c2 4.4 5.6 8 8.4 9.4 -0.4-1.9-0.8-2.8-0.8-2.9L223.9 111.4z" class="d"/><path d="M248 98.1c0 0-1.4-18.8-17.4-21.4 -10.7 4.7-18.1 33.4 8.7 34.7C246 104.3 248 98.1 248 98.1z" class="e"/><path d="M248 98.1c0 0-0.7-14.3-16.7-16.9 -10.7 4.7-18.9 28.9 8 30.1C246 104.3 248 98.1 248 98.1z" class="a"/><path d="M248 98.1c0 0 0-10.3-16-12.9 -10.7 4.7-19.6 24.9 7.3 26.1C246 104.3 248 98.1 248 98.1z" class="f"/><path d="M239.4 111.8l-0.2 0c-14-0.7-17.6-8.6-18.5-13.3 -1.6-8.5 3.1-19.2 9.6-22l0.1 0 0.1 0c16.1 2.6 17.7 21.6 17.7 21.7l0 0.1 0 0.1c-0.1 0.3-2.1 6.3-8.8 13.4L239.4 111.8zM230.6 77.1c-5.6 2.5-10.8 12.3-9.1 21.2 1.4 7.7 7.7 12.2 17.6 12.7 6.1-6.5 8.2-12.2 8.5-12.9C247.5 96.8 245.5 79.6 230.6 77.1z" class="g"/><path d="M221 79.2c0 0 5.2-4.2 11.6-2.4l-0.2 0.7C226.3 75.8 221.1 79.2 221 79.2z" class="g"/><path d="M303.4 284.6c0 0 6.5 46.2 5.6 50 -1 3.8-25.9-0.4-21 21.4 -1.5 4.7 8.2 7.5 12.1 4.7 3.3 4.6 30.1 6.2 37.3-7.3 7.1-13.4 9.3-30.5 9.3-30.5S339.5 289.8 303.4 284.6z" class="a"/><path d="M303.4 284.6c0 0 6.5 46.2 5.6 50 -1 3.8-25.9-0.4-21 21.4 -1.5 4.7 8.2 7.5 12.1 4.7 3.3 4.6 21.2 0 30.7-21.7 6.1-13.9 4.5-33.1 4.5-33.1S339.5 289.8 303.4 284.6z" class="b"/><path d="M303.4 284.6c0 0 6.5 46.2 5.6 50 -1 3.8-23.2 0-19.6 17.8 -1.5 4.7 7.8 6.5 11.7 3.7 3.3 4.6 17 0.2 26.5-21.5 6.1-13.9 5.6-32 5.6-32S339.5 289.8 303.4 284.6z" class="c"/><path d="M313.2 364.4h0c-6.2 0-11.6-1.3-13.3-3.2 -1 0.6-2.4 1-4.1 1 -3.2 0-6.4-1.3-7.7-3.1 -0.7-0.9-0.9-2-0.6-3.1 -1.1-5.2-0.7-9.4 1.4-12.5 3.3-5 9.8-6.3 14.6-7.2 2.6-0.5 4.9-1 5.1-1.8 0.8-2.9-3.3-33.9-5.6-49.8l-0.1-0.5 0.5 0.1c36 5.2 43.4 38.3 43.5 38.7l0 0.1 0 0.1c0 0.2-2.3 17.3-9.4 30.6C332.3 363.6 317.6 364.4 313.2 364.4zM300.1 360.2l0.2 0.3c1.3 1.8 6.7 3.2 12.9 3.2 8.8 0 19.6-2.7 23.7-10.4 6.8-12.8 9.1-29.1 9.3-30.3 -0.4-1.6-8-32.8-42.4-38 0.7 5.2 6.4 46 5.5 49.6 -0.3 1.3-2.6 1.7-5.7 2.3 -4.7 0.9-11 2.2-14.1 6.9 -1.9 3-2.4 7-1.2 12l0 0.1 0 0.1c-0.3 0.9-0.1 1.7 0.4 2.5 1.2 1.6 4.2 2.8 7.1 2.8 1.6 0 3-0.4 3.9-1L300.1 360.2z" class="d"/><path d="M288.2 356l-0.7-0.1c2-10.3 9.9-10.8 10-10.8C297.5 345.1 290.1 346.3 288.2 356z" class="d"/><path d="M299.6 360.7c-0.2-11 10.3-11.5 10.4-11.5 0 0-9.9 1.2-9.7 11.5L299.6 360.7z" class="d"/><path d="M440.7 351.3c0 0 1 10.3-17.5 13.6 -18.6 3.3-25.6 0.9-27.3-2.2 -4.5 0.9-14.7-3.6-8-11.4 3.3-7.4 5.8-9.1 14.9-9.3 -6-4-9.3-16.5-9.3-16.5C406.2 319.7 434.5 318.6 440.7 351.3z" class="a"/><path d="M422 346.3c-8.2-0.5-15.1-2.6-19.7-4.3 -8.8 0.2-11.3 1.9-14.5 9.2 -6.7 7.8 3.4 12.3 8 11.4 1.2 2.2 5.1 4 14.1 3.7C423.2 362 425.9 351 422 346.3z" class="b"/><path d="M419.5 347.7c-8.2-0.5-14-3.9-18.5-5.6 -8.8 0.2-9.9 1.9-13.1 9.2 -6.7 7.8 3.9 9.7 8.5 8.8 1.2 2.2 2.5 4.7 11.4 4.3C421 360 423.4 352.4 419.5 347.7z" class="c"/><path d="M407.9 366.8c-8.1 0-11.2-2-12.2-3.7 -0.3 0-0.7 0.1-1.1 0.1 -3.3 0-7.5-1.8-8.8-4.8 -0.7-1.5-1-4 1.8-7.3 3.2-7.3 5.8-9.1 14.1-9.4 -5.5-4.5-8.4-15.6-8.5-16.1l-0.1-0.3 0.3-0.1c4.5-2 10.1-3.2 15.5-3.2 8 0 27.2 2.8 32.2 29.2 0 0.1 0.8 10.7-17.8 14C417.2 366.3 412.1 366.8 407.9 366.8zM396 362.3l0.1 0.2c0.7 1.3 3.2 3.6 11.7 3.6 4.1 0 9.2-0.5 15.2-1.6 18-3.2 17.3-13.1 17.3-13.2 -4.7-24.9-21.7-28.6-31.4-28.6 -5.2 0-10.6 1.1-14.9 3 0.5 1.9 3.7 12.5 9 16l1 0.6 -1.2 0c-8.9 0.2-11.3 1.7-14.6 9l-0.1 0.1c-2.1 2.4-2.6 4.6-1.7 6.6 1.2 2.7 5.2 4.4 8.2 4.4 0.4 0 0.8 0 1.2-0.1L396 362.3z" class="d"/><path d="M395.7 363.2c-1.8-5.1 5.8-10.9 5.8-10.9 -0.1 0.1-6.7 5.9-5.1 10.6L395.7 363.2z" class="d"/><path d="M387.8 351.9l-0.5-0.5c2.6-2.7 9.4-3.7 9.4-3.7C396.6 347.7 390.2 349.4 387.8 351.9z" class="d"/><path d="M511.9 234.5c-7.1 8.5-19.7 9.7-28.3 2.6 -8.5-7.1-9.7-19.7-2.6-28.3 7.1-8.5 19.8-9.7 28.3-2.6C517.8 213.3 518.9 225.9 511.9 234.5z" class="a"/><path d="M483.6 237.1c-8.5-7.1-9.7-19.7-2.6-28.3 7.1-8.5 19.8-9.7 28.3-2.6C517.8 213.3 492.1 244.1 483.6 237.1z" class="b"/><path d="M482.8 233.6c-8.5-7.1-8.9-16.3-1.8-24.9 7.1-8.5 17-9.5 25.5-2.4C515 213.5 491.3 240.7 482.8 233.6z" class="c"/><path d="M496.4 242.1c-11.3 0-20.4-9.2-20.4-20.4 0-11.3 9.2-20.4 20.4-20.4 11.3 0 20.4 9.2 20.4 20.4C516.9 232.9 507.7 242.1 496.4 242.1zM496.4 201.9c-10.9 0-19.7 8.8-19.7 19.7 0 10.9 8.8 19.7 19.7 19.7 10.9 0 19.7-8.8 19.7-19.7C516.1 210.7 507.3 201.9 496.4 201.9z" class="d"/><path d="M359.5 196.3c0 0 25.6 5.1 35.6 10 12.6-5 52.2-9.7 79.8 10.8 33.1 24.6 21.3 69 21.3 69 -14-9.2-55 40.8-68.1 44.7 -13.2 3.9-82.8 11.9-112.3-21 -29.5-32.9-8.3-69.1-29.3-91C315.2 207.4 359.5 196.3 359.5 196.3z" class="a"/><path d="M471.9 218.3c-27.6-20.5-64.2-16.9-76.8-11.9 -0.5-0.2-1-0.5-1.5-0.7 -18.7 16-44.4 21.5-70.1 23.3 -9.5 0.8-19.6 1.6-28.7 4.7 6.2 21.5-2.6 49.9 21 76.1 29.5 32.9 103.4 8.5 116.5 4.6 13.2-3.9 38.9-21.8 52.7-28.8C484.9 285.6 505 242.8 471.9 218.3z" class="b"/><path d="M466.1 223.2c-27.6-20.5-53-18.4-65.6-13.5 -0.5-0.2-1.3-1.6-1.8-1.9 -18.7 16-46.9 24.2-72.6 26.1 -9.5 0.8-20.7 3.7-29.9 6.8 3.8 20.4-4.1 42.8 19.5 69 29.5 32.9 102.9 4.3 116 0.5 13.2-3.9 27.4-15.1 41.2-22.1C473 288.1 499.2 247.8 466.1 223.2z" class="c"/><path d="M391.5 334.9c-20.1 0-56.6-3.2-76.1-24.9 -16.1-17.9-17.2-37-18.2-53.8 -0.8-14-1.6-27.3-11.1-37.2l-0.4-0.4 0.5-0.2c28.5-11.2 72.7-22.3 73.1-22.4l0.1 0 0.1 0c0.3 0 25.6 5.1 35.5 10 5.1-2 15.6-4.3 28.7-4.3 14.1 0 34.4 2.6 51.3 15.1 17.2 12.8 22.1 31 23.2 44 1.2 14.1-1.8 25.3-1.8 25.4l-0.1 0.5 -0.4-0.3c-1.1-0.7-2.4-1.1-3.9-1.1 -9.7 0-25.8 14.5-40 27.4 -10.1 9.1-18.9 17-23.9 18.5C423 332.7 409 334.9 391.5 334.9zM287 218.9c9.4 10.1 10.1 23.3 11 37.3 1 16.7 2.1 35.6 18 53.4 19.3 21.5 55.6 24.7 75.5 24.7 17.3 0 31.6-2.3 36.5-3.7 4.9-1.4 14-9.6 23.6-18.3 14.3-12.9 30.6-27.5 40.5-27.5 1.4 0 2.7 0.3 3.8 0.9 0.5-2.3 2.7-12.4 1.7-24.7 -1.1-12.9-5.9-30.8-22.9-43.4 -16.7-12.4-36.9-15-50.9-15 -13.1 0-23.6 2.3-28.6 4.3l-0.1 0.1 -0.1-0.1c-9.5-4.7-33.8-9.7-35.4-10C357.4 197.2 314.9 208 287 218.9z" class="d"/><path d="M409.6 215c-0.1-0.1-11.4-7.5-18.2-9.8l0.2-0.7C398.5 206.8 409.6 215 409.6 215z" class="d"/><path d="M496.8 283.3l-67.4 14.7c-16.7 34.8 5.7 58.3 11.5 62.7 0.6 2.5-7.4 5.7-11.1 8.2 -3.7 2.5-8.3 9.7-6 13.8 1 3.1 3.6 5.7 8.5 6 4.4 5.3 20.9 6.3 36.2 1.5 15.2-4.8 14.4-12.7 8-27.6 -6.4-14.9-4.1-26.9 7.1-45.4C494.7 298.6 496.8 283.3 496.8 283.3z" class="a"/><path d="M472.2 313.1c11.2-18.5 12.7-27.6 12.7-27.6l-55.5 12.3c-16.7 34.8 5.7 58.3 11.5 62.7 0.6 2.5-7.4 5.7-11.1 8.2 -3.7 2.5-8.3 9.7-6 13.8 1 3.1 3.6 5.7 8.5 6 4.4 5.3 17.7 2.4 32.8-2.9 10.4-3.6 10-10.2 3.6-25C462.2 345.8 461 331.7 472.2 313.1z" class="b"/><path d="M460.8 311.9c11.2-18.5 12.2-23.8 12.2-23.8l-43.5 9.8c-16.7 34.8 5.7 58.3 11.5 62.7 0.6 2.5-7.4 5.7-11.1 8.2 -3.7 2.5-8.3 9.7-6 13.8 1 3.1 3.6 5.7 8.5 6 4.4 5.3 15.9-0.9 31-6.2 10.4-3.6 6.4-9.8 0-24.6C456.7 342.9 449.5 330.4 460.8 311.9z" class="c"/><path d="M448.6 393.6c-7.6 0-14-1.6-16.6-4.6 -5.9-0.5-8-4.1-8.6-6.3 -2.3-4.2 2.2-11.5 6.2-14.2 1.1-0.8 2.6-1.5 4.1-2.4 3.1-1.7 7-3.8 6.9-5.3 -7.7-5.9-23.4-25.7-15.2-53.3 1.4-4.6 4.4-9.4 4.4-9.4 -15.5 32.4 3 55.9 11.4 62.2l0.1 0.1 0 0.1c0.5 2.1-3.3 4.1-7.2 6.3 -1.5 0.8-3 1.6-4.1 2.4 -3.8 2.6-8.1 9.5-5.9 13.3l0 0.1c1.1 3.4 3.9 5.5 8.2 5.8l0.2 0 0.1 0.1c4.4 5.4 21.1 6 35.8 1.3 6.1-1.9 9.7-4.4 11.2-7.7 2.1-4.6 0.2-10.8-3.4-19.4 -6.3-14.7-4.4-26.6 7.2-45.7 11.1-18.2 13.2-33.6 13.3-33.7l0.7 0.1c0 0.2-2.2 15.7-13.4 34 -11.5 18.9-13.3 30.6-7.1 45 3.8 8.7 5.7 15.1 3.4 20 -1.6 3.5-5.3 6.1-11.6 8.1C461.8 392.5 454.8 393.6 448.6 393.6z" class="d"/><path d="M432.3 389.3c-3.5-8.4 9.3-13.8 9.3-13.8 -0.1 0.1-11.9 5.7-8.6 13.5L432.3 389.3z" class="d"/><path d="M424.1 382.6l-0.7 0c0.3-7.4 8.9-10.8 8.9-10.8C432.2 371.8 424.4 375.7 424.1 382.6z" class="d"/><path d="M392.1 303.3l-60.6-10.5c9.9 10.4 20.1 63.9 10.2 65.8 -9.9 1.9-19.6 10.4-19.8 18.4 -3.9 6.1 5.3 11.8 11.6 10.4 16.2 7.7 39.7 0 42.6-10.4 2.9-10.4-3.1-10.9 7-27.6C393.1 332.8 392.1 303.3 392.1 303.3z" class="a"/><path d="M392.1 303.3l-60.6-10.5c9.9 10.4 20.1 63.9 10.2 65.8 -9.9 1.9-15.2 5.7-15.7 13.2 -3.9 6.1 0.4 11.1 6.7 9.7 16.2 7.7 36.8 2.3 39.7-8.1 2.9-10.4-4.6-7 5.6-23.6C388 333.1 392.1 303.3 392.1 303.3z" class="b"/><path d="M392.1 303.3l-60.6-10.5c9.9 10.4 20.1 63.9 10.2 65.8 -9.9 1.9-13.8 5.7-13.6 11.6 -3.9 6.1 0.5 8.8 6.8 7.3 16.2 7.7 30.5 4.6 33.4-5.8 2.9-10.4-3.3-8.8 6.9-25.5C385.1 329.7 392.1 303.3 392.1 303.3z" class="c"/><path d="M348.2 390.9c-5.1 0-10.2-0.9-14.9-3.1 -4 0.9-9.4-1.1-11.7-4.4 -1.5-2.1-1.5-4.4-0.2-6.5 0.3-7.9 9.7-16.6 20.1-18.6 1.2-0.2 2.1-1.4 2.8-3.4 4-12.5-4.6-52.9-13.1-61.8 0 0 4.2 4.3 7.2 12.4 5.9 15.9 9.6 40.4 6.6 49.6 -0.7 2.3-1.8 3.6-3.3 3.9 -10.2 2-19.3 10.4-19.5 18.1l0 0.1 -0.1 0.1c-1.5 2.4-0.8 4.4 0.2 5.7 2.2 3.1 7.3 5 11.1 4.1l0.1 0 0.1 0.1c10.3 4.9 23.4 3.3 31.7-0.5 5.6-2.5 9.4-6.1 10.4-9.7 1-3.6 0.9-6.1 0.8-8.4 -0.2-4.3-0.4-8.4 6.2-19.2 10-16.4 9.1-45.6 9.1-45.9 0 0 2.4 27.9-8.4 46.3 -6.3 10.7-6.3 14.6-6.1 18.8 0.1 2.4 0.2 4.9-0.8 8.6 -1.1 3.8-5 7.5-10.8 10.2C360.8 389.4 354.6 390.9 348.2 390.9z" class="d"/><path d="M333.1 387.6c-1.3-2.1-1.7-4.2-1.1-6.3 1.1-4.7 6.8-7.3 6.8-7.3 -0.1 0-5.1 3.1-6.1 7.4 -0.5 1.9-0.1 3.9 1.1 5.7L333.1 387.6z" class="d"/><path d="M321.9 377.6l-0.7-0.2c3.9-7.3 8.5-7.6 8.5-7.6C329.2 369.8 324.4 372.1 321.9 377.6z" class="d"/><path d="M232.6 166.4c0 0-6.2-47.4 15.1-70.7 26.7-29.3 91.5-25.8 112.5-5.2 21 20.6 16.3 40.9 22.5 49.6 6.2 8.7 20 42.5-9.4 64.2 -29.4 21.8-64.6 17.4-83.5 23.6 -9.1 8-31.8 8.9-35.7-6 -4-14.9-10.5-24.4-19.3-31.9C226 182.6 232.6 166.4 232.6 166.4z" class="a"/><path d="M232.6 166.4c0 0-6.2-47.4 15.1-70.7 26.7-29.3 91.5-25.8 112.5-5.2 21 20.6 13.7 41 19.9 49.7 6.2 8.7 14.9 38.1-14.5 59.8 -29.4 21.8-52.8 13.7-71.7 19.8 -9.1 8-35.8 17.1-39.8 2.1 -4-14.9-10.5-24.4-19.3-31.9C226 182.6 232.6 166.4 232.6 166.4z" class="b"/><path d="M300.8 183.8c0-0.1 0.1-0.3 0.1-0.4C300.8 183.5 300.8 183.6 300.8 183.8z" class="c"/><path d="M375 137.7c-6.2-8.7 6.3-26.6-14.8-47.2 -21-20.6-85.8-24-112.5 5.2 -21.2 23.2-15.1 70.7-15.1 70.7s-6.6 16.2 2.2 23.7c8.7 7.5 15.3 17 19.3 31.9 4 14.9 31.1 2.8 40.2-5.2 18.9-6.2 35.9 1.3 65.3-20.4C388.9 174.5 381.1 146.4 375 137.7zM300.8 183.8l0.1 0.2L300.8 183.8c-4.4 17.4-11 44.5-31.1 43 -15.2-0.7-14.5-23.2-22.5-34.8C264.7 185.4 300.9 183.6 300.8 183.8z" class="c"/><path d="M272.4 233.9c-9.8 0-16.8-4.5-18.8-12 -3.7-13.7-9.6-23.5-19.1-31.7 -8.6-7.4-2.9-22.6-2.3-24 -0.3-2.4-5.5-48.3 15.2-70.9 12.5-13.6 34.3-21.4 59.9-21.4 22.6 0 43 6.2 53.2 16.2 14 13.7 16.7 27.4 18.7 37.4 1 5 1.8 9.4 3.9 12.3 5.7 8 20.6 42.4-9.5 64.7 -20.2 14.9-43.1 17.6-61.5 19.8 -8.6 1-16.1 1.9-22 3.8C285.8 231.7 279.1 233.9 272.4 233.9zM307.2 74.7c-25.4 0-47 7.7-59.3 21.2 -20.9 22.8-15 69.9-15 70.4l0 0.1 0 0.1c-0.1 0.2-6.4 16 2.1 23.3 9.7 8.3 15.7 18.2 19.4 32.1 1.9 7.1 8.7 11.4 18.1 11.4 6.6 0 13.1-2.1 17.1-5.6l0.1-0.1c6-2 13.5-2.9 22.2-3.9 18.3-2.2 41.1-4.8 61.1-19.7 29.7-22 14.9-55.9 9.4-63.7 -2.1-3-3-7.4-4-12.5 -1.9-9.9-4.6-23.5-18.4-37C349.9 81 329.3 74.7 307.2 74.7z" class="d"/><ellipse cx="309.3" cy="141.3" rx="11.3" ry="19.2" class="h"/><path d="M303.1 148.4c8.9 5.8 14 0.6 17.3-6.3 0.1-1 0.1-2 0.1-3 0-10.6-5-19.2-11.2-19.2 -6.2 0-11.2 8.6-11.2 19.2 0 0.9 0 1.9 0.1 2.8C299.3 144.4 300.7 146.8 303.1 148.4z" class="d"/><path d="M303.1 150.6c8.9 5.8 14 0.6 17.3-6.3 0.1-1 0.1-2 0.1-3 0-10.6-5-19.2-11.2-19.2 -6.2 0-11.2 8.6-11.2 19.2 0 0.9 0 1.9 0.1 2.8C299.3 146.6 300.7 149 303.1 150.6z" class="c"/><path d="M309.3 160.9c-6.4 0-11.6-8.8-11.6-19.6 0-10.8 5.2-19.6 11.6-19.6 6.4 0 11.6 8.8 11.6 19.6C320.9 152.1 315.7 160.9 309.3 160.9zM309.3 122.4c-6 0-10.9 8.5-10.9 18.9 0 10.4 4.9 18.9 10.9 18.9 6 0 10.9-8.5 10.9-18.9C320.2 130.9 315.3 122.4 309.3 122.4z" class="d"/><path d="M323.9 158.3c-13.1-7-28.3 0-28.3 0s5.5 6.8 15.1 7.1C320.3 165.8 323.9 158.3 323.9 158.3z" class="c"/><path d="M295.8 158.6c0 0 4.3-2.7 10.5-3.5 3.3-0.4 7.1-0.5 11 0.4 2.3 0.5 6.6 3.1 6.6 3.1C311 151.8 295.9 158.6 295.8 158.6z" class="d"/><ellipse transform="matrix(0.9751 0.2216 -0.2216 0.9751 36.9498 -51.497)" cx="248" cy="138.9" rx="10.4" ry="18.1" class="h"/><path d="M252.7 119c-5.6-1.3-11.8 5.5-14.1 15.1 1.5 7.8 4.5 15.1 16.1 14.6 1.8-2.6 1.3-6.1 2.2-9.8C259.1 129.1 258.3 120.3 252.7 119z" class="d"/><path d="M252 121.2c-5.6-1.3-11.8 5.5-14.1 15.1 1.5 7.8 4.5 15.1 16.1 14.6 1.8-2.6 3.3-5.9 4.1-9.7C260.3 131.4 257.6 122.5 252 121.2z" class="c"/><path d="M245.3 157.1c-0.5 0-1-0.1-1.4-0.2 -2.8-0.6-5.1-3.2-6.3-7.1 -1.2-3.8-1.2-8.6-0.1-13.4 2.1-9 7.7-15.8 13.2-15.8 0.5 0 1 0.1 1.4 0.2 2.8 0.6 5.1 3.2 6.3 7.1 1.2 3.8 1.2 8.6 0.1 13.4C256.4 150.3 250.8 157.1 245.3 157.1zM250.6 121.4c-5.1 0-10.5 6.6-12.5 15.3 -1.1 4.7-1 9.3 0.1 13 1.1 3.6 3.2 6 5.7 6.6 0.4 0.1 0.8 0.1 1.3 0.1 5.1 0 10.5-6.6 12.5-15.3 1.1-4.7 1-9.3-0.1-13 -1.1-3.6-3.2-6-5.7-6.6C251.5 121.5 251.1 121.4 250.6 121.4z" class="d"/><ellipse transform="matrix(0.9759 0.218 -0.218 0.9759 36.8928 -50.916)" cx="249.2" cy="141.7" rx="6.6" ry="10.7" class="i"/><path d="M247.8 152.7c-0.3 0-0.7 0-1-0.1 -1.8-0.4-3.3-1.9-4.1-4.3 -0.8-2.3-0.9-5.2-0.2-8 1.2-5.4 4.7-9.4 8.2-9.4 0.3 0 0.7 0 1 0.1 1.8 0.4 3.3 1.9 4.1 4.3 0.8 2.3 0.9 5.2 0.2 8C254.8 148.6 251.3 152.7 247.8 152.7zM250.6 131.5c-3.2 0-6.4 3.8-7.5 8.9 -0.6 2.7-0.5 5.4 0.2 7.6 0.7 2.1 2 3.5 3.6 3.9 0.3 0.1 0.5 0.1 0.8 0.1 3.2 0 6.4-3.8 7.5-8.9 0.6-2.7 0.5-5.4-0.2-7.6 -0.7-2.1-2-3.5-3.6-3.9C251.2 131.6 250.9 131.5 250.6 131.5z" class="j"/><ellipse transform="matrix(0.976 0.2179 -0.2179 0.976 36.866 -50.8865)" cx="249.2" cy="141.7" rx="5" ry="8.1"/><path d="M256 119.6c0 0 3.8 25.3-14.3 36.8 0 0 23.9 1.9 24.3-13.6C266.3 127.4 256 119.6 256 119.6z" class="c"/><path d="M242.2 157l-0.5-0.6c18.2-15.5 14.3-33 14.2-33.2 0 0 1.7 3.3 0.5 10.7C255.4 140.6 251.6 149 242.2 157z" class="d"/><path d="M246.1 110.3c0 0 0.7-7.8 6.3-12.2 4.6-3.6 9.7 0.2 9.7 0.2C253 98.3 246.2 110.2 246.1 110.3z" class="d"/><path d="M326.9 117.7c-6.4-13-18.9-16.1-19-16.1 0 0 6.6-3.6 10.5-1.3C326.9 105.2 326.9 117.7 326.9 117.7z" class="d"/><path d="M299.7 183.2c0 0-8.7 22.1-12.7 29.6 -6.4 11.9-20.5 18.9-26.5 5.8 -6-13.1-3.4-17.6-12.5-25.9C238.9 184.3 299.7 183.2 299.7 183.2z" fill="#420003"/><path d="M248 192.7c9.1 8.3 6.5 12.9 12.5 25.9 3.7 8 10.4 8.5 16.6 4.9 -5.8-10.8-1.8-25.7 8.7-31.6 3.6-2 7.7-3.4 12-3.8 1.2-3 2-4.9 2-4.9S238.9 184.3 248 192.7z" fill="#570003"/><path d="M273.4 202.8c2.5-10.6 14.6-19.5 25.8-18.2 0.3-0.9 0.5-1.4 0.5-1.4s-60.8 1.1-51.7 9.4c9.1 8.3 6.5 12.9 12.5 25.9 3.7 8.2 10.6 8.5 16.9 4.7C272.8 217.7 271.5 210.3 273.4 202.8z" fill="#6A0003"/><path d="M287 212.8c1.4-2.5 3.2-6.7 5.1-11.2 -6-0.6-12 1.6-16.1 5.2 -9-1.2-13.8 6.7-15.8 11.2 0.1 0.2 0.2 0.4 0.2 0.5C266.5 231.7 280.6 224.7 287 212.8z" fill="#ED5A84"/><path d="M287 212.8c1.4-2.5 1.3-2.3 3.2-6.7 -6-0.6-12.3 0.6-16.3 4.2 -9-1.2-11.6 3.2-13.6 7.8 0.1 0.2 0.2 0.4 0.2 0.5C266.5 231.7 280.6 224.7 287 212.8z" fill="#F97A98"/><path d="M270 226L270 226c-3 0-7.1-1.3-9.8-7.2l-0.3-0.7 0.1-0.1c1.9-4.3 6.2-11.6 14.3-11.6 0.5 0 1.1 0 1.7 0.1 4.3-3.7 10.6-5.7 16.2-5.2l0.5 0 -0.2 0.5c-2.2 5.2-4 9-5.2 11.2C283.2 220.7 276.1 226 270 226zM260.6 218.1l0.2 0.4c2 4.5 5.2 6.8 9.2 6.8 5.8 0 12.7-5.2 16.7-12.7 1.2-2.2 2.8-5.7 4.9-10.7 -5.4-0.4-11.3 1.6-15.3 5.1l-0.1 0.1 -0.2 0c-0.6-0.1-1.2-0.1-1.7-0.1C266.7 207.1 262.5 213.9 260.6 218.1z" class="k"/><path d="M271.8 214.6c0.1-0.3 1.8-6.6 4.6-8.5l0.4 0.6C274.2 208.4 271.8 214.6 271.8 214.6z" class="k"/><path d="M270 226c-3 0-7.1-1.3-9.8-7.2 -2.2-4.8-3.2-8.4-4.2-11.6 -1.6-5.4-2.6-9-8.3-14.3 -0.9-0.9-1.2-1.7-0.9-2.5 2.5-6.6 50.4-7.5 52.4-7.5l0.3 0.4 0.5 0.1c-0.1 0.2-8.7 22.2-12.7 29.6C283.2 220.7 276.1 226 270 226zM299.1 183.6c-14.2 0.3-49.8 2.1-51.7 7.1 -0.1 0.2-0.3 0.8 0.7 1.7 5.8 5.4 6.9 9.2 8.5 14.6 0.9 3.2 1.9 6.7 4.1 11.5 2 4.5 5.2 6.8 9.2 6.8 5.8 0 12.7-5.2 16.7-12.7C290.3 205.9 297.8 187 299.1 183.6z" class="d"/><path d="M267 153.8c0 0-21.4-9.4-37.9 9.4 -16.5 18.9 6.5 37.9 22 33.6 10.3 4.5 31.8 5.6 49.9-12.3L267 153.8z" class="a"/><path d="M267 153.8c0 0-22.8-8.6-37.9 9.4 -12.7 15.2-2.5 29.7 12.9 25.3 10.3 4.5 40.8 13.9 59-4.1L267 153.8z" class="b"/><path d="M267 153.8c0 0-22.8-8.6-37.9 9.4 -12.7 15.2-3.4 25.6 12 21.3 10.3 4.5 40.8 16.8 58.9-1.2L267 153.8z" class="c"/><path d="M266 200c-6.2 0-11.5-1.3-14.9-2.7 -8.6 2.4-19.8-2.5-25.1-10.8 -4.7-7.4-3.6-16 2.9-23.4 10.6-12.1 23.4-12.6 31.2-11.4 4.3 0.7 6.9 2.6 6.9 2.6 -0.2-0.1-21.4-9.1-37.5 9.3 -8.6 9.9-5.5 18.4-2.8 22.6 5.1 8.1 16.1 12.8 24.4 10.4l0.1 0 0.1 0.1c8.9 3.9 30.7 6.4 49.5-12.3l0.5 0.5C289.4 196.5 276.3 200 266 200z" class="d"/><ellipse cx="237.4" cy="166.3" rx="16.6" ry="11.1" fill="#63220B"/><path d="M250 166.3c0 3.9-4.1 8.6-13.3 8.6 -9.1 0-15.9-2.4-15.9-8.6 0-6.1 7.4-11.1 16.6-11.1C246.5 155.2 250 160.2 250 166.3z" fill="#6D2B11"/><path d="M248.2 166.2c0 3.4-3.6 7.5-11.6 7.5 -8 0-13.9-2.1-13.9-7.5s6.5-9.7 14.5-9.7S248.2 160.8 248.2 166.2z" fill="#7A3016"/><path d="M237.4 177.8c-9.3 0-16.9-5.1-16.9-11.5 0-6.3 7.6-11.5 16.9-11.5 9.3 0 16.9 5.1 16.9 11.5C254.3 172.6 246.7 177.8 237.4 177.8zM237.4 155.6c-8.9 0-16.2 4.8-16.2 10.8 0 5.9 7.3 10.8 16.2 10.8 8.9 0 16.2-4.8 16.2-10.8C253.6 160.4 246.3 155.6 237.4 155.6z" fill="#591D07"/><path d="M305.1 189.8c-3.5-6.8-9.8-8-9.9-8 0 0 3.5-0.1 6.7 2.7C303.2 185.7 305.1 189.8 305.1 189.8z" class="d"/><path d="M418.3 105.5c-0.1-5.7 0-6.6-3.3-11.4 0 0 1.5-0.1 3.3 0 -2-3.7-4.5-8.8-9.8-12.5 0 0 1.1 0.1 2.9 0 0 0-1.8-5.7-13.1-6.8 0 0 1.3-1.3 3.8-2 0 0-5.4-3.1-15.4-2 0 0 0.2-0.9 2.4-2.7 -10.5-1.3-18.1 4.9-22.1 11.8C363 86.7 356.1 95.2 356.1 95.2l21.3 37.7c0.7-1.9 9.9-1.9 19.6-3.4 9.7-1.4 13.5-11.1 15-15.1 0 0 1.1 1.8 2.7 3 2.6-4.2 2.2-8.9 1.4-13.6C416.2 103.9 417.2 105.1 418.3 105.5z" class="a"/><path d="M416.9 102.4c-0.1-5.7-3.2-6.1-6.5-10.9 0 0 2.6 0.2 4.4 0.3 -2-3.7-5.4-7.8-10.7-11.5 0 0 2.4 0 4.2-0.1 0 0-2.4-3.9-13.7-5 0 0 5-1.7 7.5-2.4 0 0-5.4-3.1-15.4-2 0 0 0.2-0.9 2.4-2.7 -10.5-1.3-18.1 4.9-22.1 11.8C363 86.7 356.1 95.2 356.1 95.2l21.3 37.7c0.7-1.9 8.4-5.5 18.1-6.9 9.7-1.4 13.8-13.4 15.2-17.4 0 0 1.9 5 3.5 6.2 2.6-4.2 0.2-11.5-0.5-16.2C413.7 98.6 415.7 102 416.9 102.4z" class="b"/><path d="M413.9 98c-0.1-2.6-3.8-3.7-7-8.5 0 0 3.9 1 5.7 1.1 -2-3.7-7.8-6.6-13.1-10.3 0 0 2.8-1.5 4.6-1.6 0 0-2.6-2.3-13.8-3.4 0 0 9.4-1.9 11.9-2.6 0 0-5.4-3.1-15.4-2 0 0 0.2-0.9 2.4-2.7 -10.5-1.3-18.1 4.9-22.1 11.8C363 86.7 356.1 95.2 356.1 95.2l7.7 40c0.7-1.9 21.2-11.7 30.9-13.2 9.7-1.5 12.3-17.7 13.8-21.6 0 0 2.4 5.7 4 6.9 2.6-4.2-2.4-7.5-3.1-12.2C409.3 95.1 412.7 97.6 413.9 98z" class="c"/><path d="M377.7 133c0 0-0.5-2.3 10-2.8 2.8-0.1 6-0.6 9.2-1.1 6.5-1 11.5-6 14.7-14.8l0.3-0.7 0.4 0.7c0 0 0.9 1.5 2.3 2.7 2.3-4 1.9-8.4 1.2-13l-0.2-1.3 0.8 1c0 0 0.7 0.8 1.5 1.2 -0.1-5.2-0.1-6.1-3.2-10.7l-0.4-0.5 0.6 0c0.1 0 1.2-0.1 2.7 0l0 0c-2-3.7-4.5-8.3-9.4-11.8l-1.1-0.8 1.3 0.1c0 0 0.9 0.1 2.3 0 -0.7-1.3-3.6-5.2-12.5-6.1l-0.8-0.1 0.5-0.5c0 0 1.1-1 3.1-1.8 -1.8-0.8-6.8-2.4-14.4-1.6l-0.5 0.1 0.1-0.5c0-0.1 0.2-0.9 1.8-2.4 -8.5-0.7-16.3 3.6-21 11.7 -4 6.8-10.9 15.4-10.9 15.5 0 0 6.4-9 10.3-15.8 5-8.6 13.4-13.1 22.5-12l0.8 0.1 -0.6 0.5c-1.1 0.9-1.7 1.6-2 2 9.6-0.9 14.8 2 15 2.1l0.8 0.4 -0.8 0.2c-1.4 0.4-2.4 1-3 1.4 10.6 1.3 12.4 6.7 12.5 7l0.1 0.5 -0.5 0c-0.7 0-1.3 0-1.8 0 4.5 3.5 6.9 8 8.7 11.4l0.6 1.1 -0.6 0c-1.1-0.1-2 0-2.6 0 2.9 4.3 2.9 5.5 3 10.6l0 1 -0.5-0.1c-0.6-0.2-1.1-0.5-1.6-0.9 0.6 4.5 0.8 8.8-1.7 12.8l-0.2 0.3 -0.3-0.2c-1.1-0.8-1.9-1.9-2.4-2.5 -3.3 8.7-8.4 13.6-15 14.6 -3.2 0.5-6.4 0.8-9.3 1.1C382.8 131.5 378.1 132 377.7 133z" class="d"/><path d="M373.9 119.5c0 0 22.6 1.7 29-12 6.4-13.7-4.5-19.7-8.5-20.8 -4-1.1-12.4-1.1-16.4 6.5 -4 7.6-10.9 17.7-10.9 17.7s3.9-2.8 8 1.9C377.6 115.7 373.9 119.5 373.9 119.5z" class="e"/><path d="M373.9 119.5c0 0 22.6 1.7 29-12 6.4-13.7-3-17.5-7-18.6 -4-1.1-11.2-0.4-15.2 7.3 -4 7.6-13.5 14.8-13.5 14.8s4.1-3 8 1.9C376.9 115.1 373.9 119.5 373.9 119.5z" class="a"/><path d="M388.2 93.4c-6.3 5.3-9.4 12.4-15.6 17.3 0.8 0.4 1.7 1.1 2.5 2.2 1.8 2.3-1.2 6.7-1.2 6.7s22.6 1.7 29-12c3.2-6.9 2.4-11.3 0.3-14.1C399.1 90.6 391.7 90.2 388.2 93.4z" class="f"/><path d="M376.1 119.9c-1.4 0-2.2-0.8-2.2-0.8 0.2 0 22.5 1.5 28.7-11.8 2.3-4.8 2.6-9.1 0.9-12.8 -2.1-4.6-6.9-6.9-9.1-7.5 -3.8-1-12.1-1.1-16 6.4 -4 7.6-10.9 17.6-11 17.7 0 0 6.4-10.5 10.3-18 4.1-7.8 12.8-7.8 16.8-6.7 2.5 0.7 7.3 3.1 9.6 7.9 1.8 3.9 1.5 8.4-0.9 13.4C398 118.8 382 119.9 376.1 119.9z" class="g"/><path d="M404.8 87.6c-0.1 0-9.4-3.3-15.1-1l-0.3-0.7C395.4 83.5 404.8 87.6 404.8 87.6z" class="g"/><ellipse cx="309.9" cy="142.7" rx="7.7" ry="11.5" class="i"/><path d="M309.9 154.5c-4.5 0-8.1-5.3-8.1-11.9 0-6.5 3.6-11.9 8.1-11.9 4.5 0 8.1 5.3 8.1 11.9C318 149.2 314.4 154.5 309.9 154.5zM309.9 131.5c-4.1 0-7.3 5-7.3 11.1 0 6.1 3.3 11.1 7.4 11.1s7.4-5 7.4-11.1C317.3 136.5 314 131.5 309.9 131.5z" class="j"/><ellipse cx="309.9" cy="142.7" rx="5.8" ry="8.6"/><path d="M287.8 229.7l-0.4-0.6c4.6-3.2 6.8-10.8 6.8-10.8C294.2 218.6 292.7 226.4 287.8 229.7z" class="d"/><path d="M255.8 198.8c-9.7-2.9-13.8-10.2-13.8-10.2 0 0.1 4.5 6.7 14 9.5L255.8 198.8z" class="d"/><circle cx="306.6" cy="137.7" r="2.5" class="c"/><circle cx="304.9" cy="141.7" r="1.4" class="c"/><circle cx="247.1" cy="136.5" r="2.3" class="c"/><circle cx="245.5" cy="140.1" r="1.3" class="c"/><ellipse transform="matrix(0.9267 -0.3758 0.3758 0.9267 -43.5555 98.4036)" cx="230.5" cy="160.9" rx="6.6" ry="3.6" fill="#CC927F"/><ellipse cx="269.7" cy="223.4" rx="1.6" ry="1.1" class="l"/><ellipse transform="matrix(0.8883 -0.4593 0.4593 0.8883 -70.9373 151.479)" cx="276" cy="221.6" rx="4" ry="1.5" class="l"/></svg>