<svg xmlns="http://www.w3.org/2000/svg" viewBox="0 0 768 430"><style>.a{fill:#FFB888;}.b{fill:#38120D;}.c{fill:#A2CCE4;}.d{fill:#071222;}.e{fill:#FDFFE9;}.f{fill:#618EA2;}.g{fill:#EFD7A7;}.h{fill:#FFF;}</style><path d="M463.2 289.3c-4.8-17-11.9-33.8-21.5-48.6 -5.7 6-10 5.2-5.2 13.1 3.8 6.2 7.2 12.7 10.2 19.3 3.4 7.5 6.7 15.3 8.7 23.3 1 4.1-4.4 12-5 16.6 -0.3 2 5.3 4.3 6.6 5.3 -1.2 4.3-1 6.6 2.9 7.9 5 1.6 11 5.2 15.5 1.3 2.5-2.2 3.5-6 5.9-7.8 2.1-1.5 5.7-3.3 7.1-5.6 1.3-2.1-3-8.8-4-10.4C479.6 296 472.1 290.7 463.2 289.3 462.9 288.5 483.6 292.5 463.2 289.3z" class="a"/><path d="M472.1 330c-5 0-16-2.5-16.1-8.2 -0.1-5.6-1.9-3.4-5.5-7.6 -2.1-2.5 2.3-11.4 3.2-13.9 2.6-7.3-2.8-16.2-5.7-23 -2.7-6.2-5.7-12.3-9-18.3 -5.4-9.5-8-8.5-0.5-15.8 7.6-7.5 15.4 18.7 18.1 25.3 1.9 4.7 3.7 9.5 5.3 14.4 2.3 7 3.2 5.3 10 8.6 4.4 2.1 21.1 16.1 17 23 -1.5 2.5-6 4.8-8.2 6.4C480.1 323.6 475.4 330 472.1 330zM457.4 324.7c6.6 3.7 20.8 7.6 22.1-4.3 0.2-2.1 6.6-4.6 8.2-6.5 0.1-3-2.1-6.8-3.5-9.2 -2.6-4.4-6.1-8.3-10.5-10.9 -3.3-2-10.5-1.9-11.6-5.7 -4.7-16.3-11.6-32.2-20.6-46.5 -5.5 5.7-9 4.7-4.5 12.3 3.7 6.2 7.1 12.5 10.1 19.1 3.3 7.2 6.3 14.6 8.4 22.2 1.4 4.9-3 11.5-4.3 16.3 -0.8 3.2 2.3 4.2 4.9 5.8C458.8 318.7 456.7 321.9 457.4 324.7 459 325.5 456.9 322.6 457.4 324.7z" class="b"/><path d="M462.2 319.7c-0.9 0-4.4-11.5-3.9-11.8C459.3 307.3 463.2 319.7 462.2 319.7z" class="b"/><path d="M457 318.8c-2.2 0 3.4-7.6 4.1-5.1C461.1 313.7 457.1 318.8 457 318.8z" class="b"/><path d="M480.1 321c-1.5 0 0.1-4.8-0.1-4.8C480.1 316.1 481.9 321 480.1 321z" class="b"/><path d="M421.5 208.4c-4.1 1.9-8.4 3.5-12.8 4.6 8.5 11.5 11.9 28.2 16.1 41.5 8.4-4.3 24.2-16.6 26.9-26.3C453.1 223.3 425.1 209.9 421.5 208.4 417.4 210.3 433.3 213.5 421.5 208.4z" class="c"/><path d="M424.7 255c-1.8 0-11.8-32.7-14.5-38 -2.5-4.9-3.4-3.9 2.6-5.8 9.3-3 9.6-3.5 18.3 1.5 4.4 2.5 24.2 11.5 19.7 17.9C446.4 236.8 433.2 255 424.7 255zM409.5 213.3c7.4 12.4 11.3 26.7 15.5 40.3 3.4-1.8 29.2-22.6 25.6-26.4 -4.1-4.3-10-7.6-15.1-10.7 -3.5-2.1-7-4.2-10.7-6C419.7 208 415 211.9 409.5 213.3 411.2 216.1 413.6 212.2 409.5 213.3z" class="d"/><path d="M338.3 239.5c-3.3 4.2-6.5 9.5-10.7 12.9 -5.6-6.8-10.7-14.2-15.7-21.5 -3-4.5-0.2-4.9 1.4-10.1 1.9-6 2-12.5 1.4-18.8 -1.1-11.5 0.5-13.4 5.2-24.5 2.6-6.1-8.5-2.4-10.2-0.7 -4.5 4.2-5.5 11.4-6.4 17.1 -3.6-4-17.7-34.6-21.1-33.7 -17.5 4.5 12 29.9 8.5 34.1 -4.2 5.2-26.4-21.7-30.3-18.6 -13.4 10.7 22.7 20.6 21.7 26.3 -0.4 2.1-26.1-2.8-29.3-2.3 -7.2 1.1 2.8 8.3 5.3 8.9 3.4 0.8 16.5 0.9 18.4 3.9 0.2 0.4-20.5 8.1-20.9 10.5 -0.6 3.8 9 1.4 10.3 1.1 5.5-1.3 10.7-4.7 13.8 0 5 7.6 17 5.9 20.9 11.6 5.4 7.9 11.4 15.4 17.7 22.6 3.9 4.5 8.7 12.2 15 6.4 5.4-5 10.4-10.3 15.2-15.8C344.9 246.3 341.5 243 338.3 239.5 333.1 246.3 341.4 242.8 338.3 239.5z" class="a"/><path d="M328.6 267.9c-7.6 0-17.7-17.1-21.7-22.3 -4.9-6.3-5.6-9.5-12.9-11.6 -4.4-1.3-8.9-3.4-12.3-6.6 -1.7-1.5-2.9-3.3-3.7-5.4 -4.2 0.9-8.3 2-12.4 3 -2.6 0.6-15.7-0.2-8.6-3.9 6-3.1 12.5-5.2 18.5-8.3 -2.8-0.9-32.4-5-25-12.4 4.8-4.9 24.2 2.2 30.9 1.5 -4.7-5.1-28.3-13.8-23.2-24.1 3.7-7.6 25 16 32 16.3 -1.3-6.3-24.2-30.1-8.2-34.3 4.1-1 18 28.7 20.9 32.9 0.8-4.9 7.3-26.9 17.2-18.1 2.3 2-2.6 8.9-3.5 10.5 -2.9 5.5-2.7 7.2-1.9 13 0.7 4.8 1.1 9.7 0.7 14.6 -0.2 3.2-5.3 14.7-4.3 16.2 5.1 7.8 10.7 15.5 16.5 22.8 10.5-9.8 6.2-16.2 17.9-5.7 5.9 5.4 1.4 6-4 11.6C338.7 260.7 333.5 267.9 328.6 267.9zM299.5 233.8c2.9 0 14.2 18.5 16 20.6 2.5 3 9.9 14.5 15.1 11.9 6.6-3.3 12.5-11.7 17.2-17 -3.3-2.7-6.5-5.8-9.4-8.9 -2.8 3.7-5.6 7.5-8.8 10.9 -3.9 4.2-10.8-9.7-13.1-12.9 -2.2-3.1-5.8-6.8-7.1-10.5 -0.5-1.5 4.7-12.4 4.9-15.3 1.1-14-3.2-20.5 4.1-33.4 3.8-6.6-5.6-4.6-8.5-1.8 -2.7 2.5-5.5 16.9-6.6 17.2 -2.6 0.8-13.7-21.5-15-23.8 -0.4-0.8-4.3-10.4-6.2-9.9 -7.4 1.9-3.7 11.6-1.2 15.8 1.5 2.6 17.1 22.8 5.3 17 -3.7-1.8-28.1-22.6-27.6-13.3 0.8 15.9 47.9 26.5 3.7 21 -2-0.3-14.8-3-10.7 2.8 4.5 6.3 15.9 5.6 22.6 7.2 9.6 2.3-19.2 9.4-18.2 12.2 1.9 5.3 22-5 22.7-2.3C281 228.7 292.3 233.8 299.5 233.8z" class="b"/><path d="M283.3 215.6c-4.6 0 11.4-21.1 13.3-17C295.7 196.6 280.7 215.6 283.3 215.6z" class="b"/><path d="M303.7 199.1c-0.3-0.2-2.1-5.6-0.4-5.6C304.5 193.5 303.7 199.2 303.7 199.1 303.2 198.7 303.7 196.9 303.7 199.1z" class="b"/><path d="M306.4 231.1c-0.3-0.3 2.9-4.3 3.8-3.9C311.7 228.1 306.6 231.3 306.4 231.1 306.2 230.9 306.5 231.2 306.4 231.1z" class="b"/><path d="M328.1 253.7c-0.8-0.5-1.1-1.1-1-2 0.9-0.9 3.4 3.6 3.2 3.7C329.5 255 328.7 254.4 328.1 253.7 327.5 253.1 328.5 254.2 328.1 253.7z" class="b"/><path d="M342.3 255.3c1.9-2 3.7-4 5.5-6 -3.3-2.7-6.5-5.8-9.4-8.9 -1.2 1.5-2.4 3.1-3.6 4.6" fill="#EA965D"/><path d="M356.3 254.4c4-13 7.4-30.4 16-41.4 -11.4-3-12-5.7-22.6 0.4 -6.6 3.8-13.7 7.8-19.2 13.1C325.8 230.8 351.1 253.5 356.3 254.4 359.2 244.8 356.2 254.4 356.3 254.4z" class="c"/><path d="M356.3 254.9c-5.1 0-16.4-12.8-20.7-17.6 -9.9-11.2-4.7-13 7.3-20.5 5.2-3.3 10.6-6.5 16.3-8.9 1-0.7 13.6 5.4 13.6 5.5C368.2 219 358.8 254.9 356.3 254.9zM359.5 208.9c-6 2.6-28.1 11.9-29.7 19.2 2.8 9.4 18 21.2 26.1 25.6 4.2-13.5 8-28.2 15.5-40.4C367.3 212.1 363.3 210.7 359.5 208.9 347.5 214.1 363.3 210.7 359.5 208.9z" class="d"/><path d="M431.9 312.5c-4.9 1.5-39.9 6.5-41.4 3 -2.2 3.9-36.1-1.3-41.4-3 -3.7 9.2 6.8 32 9.2 40.9 1.1 4 9.2 42.2 13.2 42.7 6 0.7 10.6-61.1 17.6-61.1 12.2 0 13 61.9 20.3 61.1 3.8-0.4 11.3-36 12.4-39.7C424.9 345.3 434.8 324.3 431.9 312.5 424.8 314.7 431.9 312.5 431.9 312.5z" fill="#5B79A3"/><path d="M371.5 396.6c-4.5-0.4-11.4-34.7-12.5-38.6 -2.7-9.8-5.4-19.6-7.8-29.5 -1-4.1-4.1-11.7-2.7-16.1 0.1-0.2 46.2 2.7 54.6 2.5 2.6-0.1 29.4-2.2 29.4-2 0.3 5.9-2.1 12.5-3.4 18.1 -4.5 18.4-9.6 36.6-15.3 54.7 -2.8 8.9-3.8 15.4-7.2 3.4 -3.8-13.3-7.1-26.8-10.4-40.2 -2.6-10.5-6.1-20.5-10-4.7C385.1 347.9 376 396.6 371.5 396.6 371.2 396.6 372.2 396.6 371.5 396.6zM349.5 313.2c-0.6 13 6.1 28.5 9.5 40.8 3.7 13.5 6.9 28 12.5 40.9 3.2-8.5 12-60.5 17.6-60.5 9 0 10.1 22.6 12.1 30.4 2.5 10 4.6 20.5 8.2 30.1 5.6-12.9 8.7-27.4 12.5-40.9 3.4-12.3 10.1-27.8 9.5-40.8C409.7 319.4 371.3 319.4 349.5 313.2 349.2 321.2 356.1 315.1 349.5 313.2z" class="d"/><path d="M387.7 335.5c-1.3 0-3.9-20.4-3.1-20.5C385.6 314.9 388.7 335.5 387.7 335.5z" class="d"/><path d="M393.2 335.5c-0.4 0 3-20.8 4.4-20.5C398.3 315.2 394.8 335.5 393.2 335.5z" class="d"/><path d="M394.5 317c-0.8 0.6-12.1 6.3-11.6 6.5 0.7 0.2 13.6 1.3 13 2.1 -1.3 1.7-10.6 8-11.3 7.9 3.5 0.2 12.1-5.8 13.8-8.8 0 0-11.8-3.6-13.5-2 3.1-3 7.8-2.9 11.2-5.5C395.9 316.4 395.4 316.3 394.5 317z" class="d"/><path d="M408.7 213c-7.4 1.9-15.1 2.6-22.8 2.1 -9.7-0.6-12.8-4.7-17.2 4.6 -6.8 14.3-11.2 30-15.6 45.2 -3.8 12.9-9 27.6-8.5 41.3 0.4 11 22.4 8.8 29.7 9.1 15.3 0.5 30.8 0.6 46.1-0.8 12.4-1.2 17.2-2.7 15.5-15.7 -2.1-15.9-7.1-31.7-12-46.9C420 239.3 416.7 223.8 408.7 213 402.9 214.5 409.8 214.6 408.7 213z" class="e"/><path d="M392.2 316.1c-13.7 0-28.3 0.7-41.6-2.6 -11.5-2.8-5.5-19.6-3.6-27.7 3.5-15.5 8.3-30.7 13.3-45.7 3.1-9.2 6.3-28.5 17.2-26.5 3.6 0.7 31.2-1.4 31.6-0.8 3.4 4.6 5.8 10.7 7.7 16.1 4.4 12.5 8.5 25.2 12.2 38 3.6 12.5 9.2 27.5 7.9 40.7C435.6 319.6 400.6 316.1 392.2 316.1zM390.6 315c12.7 0.1 26 0.3 38.5-2.3 9.4-2 6.9-10.7 5.5-18.5 -3.1-17.3-8.6-34.4-14.1-51.1 -2.8-8.4-5.5-16.6-9.5-24.5 -4.1-8.3-14.5-2.6-23.2-2.9 -8.1-0.3-14.2-5.1-18.1 2.9 -3.9 7.9-6.6 16.1-9.4 24.5 -5.5 16.7-10.9 33.7-14.1 51.1 -1.4 7.8-4 16.5 5.5 18.5C364.5 315.4 378.3 312.2 390.6 315z" class="b"/><path d="M409.4 396c3.6-3 10.6-1.9 14.8-2.9 -1.1 2.3-1.5 4.8-1.4 7.3C418.7 399.8 412.6 399.1 409.4 396 412.2 393.6 411.5 398 409.4 396z" class="c"/><path d="M422.7 400.9c-6.9-1-22.3-6-5.7-7.4 0.6 0 8.5-1.8 7.7-0.2C424.1 394.5 423.7 401.1 422.7 400.9 418.7 400.3 422.7 400.9 422.7 400.9zM417.1 394.6c-2.4 0-4.6 0.5-6.8 1.4 3.2 2.4 8.1 3.2 11.9 3.8 0-2 0.4-4 1.1-5.9C421.2 394.2 419.2 394.5 417.1 394.6 414.3 394.9 419 394.5 417.1 394.6z" class="d"/><path d="M410.3 396c3.7-2.2 8.2 3.4 12.2 0.8C421.6 402.2 413.9 398.7 410.3 396 410.9 395.7 412.3 397.5 410.3 396z" class="f"/><path d="M419 396.4c-0.9 0.4-1.8 0.7-2.7 0.9 0.6 1.5 4-3.9 2.2-3.2 -1.9 0.8 4.4 2.2 3.8 0.7 -0.6-1.5-4 3.9-2.2 3.2C419.7 397.5 419.3 396.9 419 396.4 417.5 397 419.4 397.3 419 396.4z" class="b"/><path d="M422.8 400.4c0-21 23.9-8.9 18.7-0.2C439.3 401.6 430.7 401.6 422.8 400.4z" class="e"/><path d="M422.7 400.9c-0.9-0.1 2.2-15.8 12.6-11.9 4.2 1.6 9.6 6.6 6.6 11.5C439.7 404.1 425.7 401.4 422.7 400.9 422.4 400.9 426.5 401.5 422.7 400.9zM440.9 394.8c-4.2-7.4-15.3-7.4-17.1 1.4C422 404.2 445.5 403 440.9 394.8 439.1 391.7 441.6 396.1 440.9 394.8z" class="b"/><path d="M434 400.7c-3.6 0-7.1-0.3-10.7-0.8 0-2.4 0.5-4.7 1.5-6.8 -2.2 7.2 13.9 6.3 16.8 4.3C441.8 401.5 436.7 400.7 434 400.7z" class="g"/><path d="M441.5 400.2c0.7 9.6-30 2.5-32-4.3C414.7 401.1 435.1 404.3 441.5 400.2 441.5 400.5 437.7 402.7 441.5 400.2z" class="g"/><path d="M408.9 396.1c2.1 7.1 30.4 1 33.1 4.3C442.8 410.7 411 403.3 408.9 396.1 408.8 395.9 410 399.8 408.9 396.1zM434 401.8c-6.7 0-13.7-0.7-20.1-2.9 3.1 1.6 27 10.4 27 2.1C438.7 401.7 436.4 401.9 434 401.8z" class="b"/><path d="M371.6 396c-3.6-3-10.6-1.9-14.8-2.9 1.1 2.3 1.5 4.8 1.4 7.3C362.3 399.8 368.4 399.1 371.6 396 368.8 393.6 369.5 398 371.6 396z" class="c"/><path d="M358.2 400.9c-0.9 0-1.3-6.5-1.9-7.6 -0.8-1.6 7.1 0.2 7.7 0.2C380.4 394.9 365.3 400.9 358.2 400.9zM357.7 393.8c0.7 1.9 1 3.9 1.1 5.9 3.8-0.6 8.7-1.3 11.9-3.8C367.1 393.8 361.7 394.6 357.7 393.8 358.3 395.5 359.9 394.3 357.7 393.8z" class="d"/><path d="M370.7 396c-3.7-2.2-8.2 3.4-12.2 0.8C359.3 402.2 367 398.7 370.7 396 370.1 395.7 368.7 397.5 370.7 396z" class="f"/><path d="M362 396.4c0.9 0.4 1.8 0.7 2.7 0.9 -0.6 1.5-4-3.9-2.2-3.2 1.9 0.8-4.4 2.2-3.8 0.7 0.6-1.5 4 3.9 2.2 3.2C361.3 397.5 361.7 396.9 362 396.4 363.5 397 361.6 397.3 362 396.4z" class="b"/><path d="M339.5 400.2c-0.7 9.6 30 2.5 32-4.3C366.3 401.1 345.9 404.3 339.5 400.2 339.5 400.5 343.3 402.7 339.5 400.2z" class="g"/><path d="M346.3 405.4c-6.8 0-6-5.3-6.5-5.6 4 2.6 12.5 0.9 16.8 0.3 1.6-0.2 14.8-4.8 15.2-4.6C374.3 397 349.4 405.4 346.3 405.4zM340 401.1c0 8.3 23.9-0.5 27-2.1C359.7 401.5 347.6 403.8 340 401.1 340 401.1 341.7 401.7 340 401.1z" class="b"/><path d="M358.2 400.4c0-21-23.9-8.9-18.7-0.2C341.7 401.6 350.3 401.6 358.2 400.4z" class="e"/><path d="M347 401.8c-15.6 1-6.2-15 4.2-13.5 2.8 0.4 5.1 2.2 6.3 4.9C361.9 402.9 354.7 401.8 347 401.8zM339.9 399.8c5.9 3.3 21.2 2.9 16.3-6.6C352 385 335.5 392.1 339.9 399.8 341 400.4 338.8 397.9 339.9 399.8z" class="b"/><path d="M347 400.7c3.6 0 7.1-0.3 10.7-0.8 0-2.4-0.5-4.7-1.5-6.8 2.2 7.2-13.9 6.3-16.8 4.3C339.1 401.5 344.2 400.7 347 400.7z" class="g"/><path d="M468 138.6c-3.2 0.3-7 2-6.9 5.6 0.5 9.3-0.5 8.1-8.5 10.3 2.6-15.7-3.5-34.1-7.6-49.1 -3.6 1.2-11.9 6.2-14.3 2.8 -1.9-2.7-7.8-14.4-11-13.3 -8.2 2.8-16.3 5.5-24.5 8.3 -6.5 2.2-9.2-0.5-15.6-3.6 -8-3.8-9.1-6.4-16.2-1.4 -5.9 4.2-10 9.1-17.2 8.3 -9.7-1.1-9.9-2.7-12.5 6.8 -3.5 13.3-6.3 27.4-5.3 41.2 -4.2 0-8.4-0.6-8.6-4.8 -0.2-2.4-0.2-4.8 0-7.2 4 4.3-8.5-8.4-7-3.8 -9.8 0-7.6 15.2-4.4 20.3 3.2 5 8.5 8.2 14.2 9.8 1.6 0 8.5 15.4 10.4 17.9 9 12.1 21.8 21.2 36.3 25.6 28.6 8.8 61-1.4 78.8-25.6 4-5.5 7.2-11.5 9.5-17.9 5.5 0.1 12-5.4 14.8-9.7C475.6 153.8 477.8 138.6 468 138.6z" class="a"/><path d="M390.6 215.8c-15.4 0-30.7-4.9-43.1-14 -5.5-4-10.4-8.9-14.5-14.3 -2.3-3-8-17.5-10.5-18.3 -10.6-3-24.5-17.3-14.7-28.7 3.8-4.3 9.1-2 12.4 1.6 5.4 5.8-4.9 9.9 7.6 11.8 -1-15.8 2.6-32.1 7.2-47 1.8-5.8 12.3 2 16.2-0.7 2.8-2 15.3-13.4 18.3-12 4.9 2.3 17.2 11.4 22.3 9.6 9.3-3.1 18.5-6.3 27.8-9.4 5.6-1.9 8.9 15.9 13.2 14.5 8.4-2.8 11.9-7.3 14.2 1.9 3.4 13.5 8 29 6.3 43 7.6-1.9 8.4-2.9 7.2-11.2 -1.5-5.7 10.4-4.5 12.5-2.1 9.9 11.3-4 25.7-14.7 28.7 -1.4 0.4-4.6 9.7-5.6 11.4 -4.1 7.1-9.5 13.5-15.8 18.7C424 210 407.4 215.8 390.6 215.8zM324.1 168.4c10.8 31 43.2 49.7 75.4 45.7 15.7-1.9 30.6-9.1 41.7-20.4 2.2-2.2 19.9-31.4 17.6-31.6 -0.7 1.8-0.5 4.1-0.8 6 10.1-2.9 21.1-13.9 15.2-25.2 -3.1-6-11.7-3.9-11.5 2.6 0.2 7.1 0.7 7.4-5.8 8.8 -7 1.6-4-13.5-5-19.6 -1.6-9.6-3.8-19.2-6.3-28.6 -12.2 4.1-12 5.8-19.4-4.7 -6.7-9.4-11.7-3.8-22.3-0.2 -10.1 3.4-11.3 4.8-20.7 0.3 -12.4-6-12.1-7.2-23.3 0.6 -8.7 6.1-10.9 5.1-21.8 3.9 -4.5-0.5-8.3 39.8-8.2 43.8 0 7.2-0.8 5.4-7.4 3.7 -6.4-1.6 2.6-14.3-8.5-14.4 -14.5 0-3 29.2 10.2 28.9 -0.1 0-0.6-4.4-0.7-4.4C322 164.2 323.9 167.6 324.1 168.4 333.8 196.1 324.1 168.2 324.1 168.4z" class="b"/><path d="M312.3 149.4c2.6-0.1 6 1 2.3 3.7 -4.7 3.3 2.7 3.4 3.6 4.1C311.8 152.2 321.4 149.2 312.3 149.4z" class="b"/><path d="M468.9 148.8c-9.5-0.2-0.7 4.6-5.9 8.7 7.6-6 3.1 0.1 1.8-7C464.5 149.2 468.6 148.8 468.9 148.8z" class="b"/><path d="M452.7 154.5c8-2.2 9-1 8.5-10.3 -0.3-5.7 7.2-3.4 7.4-10.1 0.3-9.7-2.7-26.3 10.9-28.2 -1.2-5.7-16-11.8-20.7-14.5 8.5-6.5 5-7.2-3-12.2 -6.6-4.1-13.4-8-20.3-11.7 2.5-0.6 25.1-9.2 21.4-11.2 -6.2-3.4-17.7-1.6-24.3-1.6 -5.3 0-60.6 3.4-61.3-1.4 -0.2-1.6 1.2-14.7-2.6-12.2 -4.4 2.8-8 7-11.6 10.7 -6.7 7-18.7 17.2-21.1 27.1 -0.8 3.4-25.9-0.4-29.2-0.3 -7.8 0.1-0.1 6.5 1.9 9.5 2 3-7.2 10.9-7.2 14.6 2.1 2.6 9.8-11.6 11-2 0.9 7.5 0.1 15.3-0.1 22.8 -0.2 7-2.1 12.9 3.9 16 8.9 4.7-1.7 15 12.3 15 -0.9-12.7 1.4-25.7 4.5-38.1 2.4-9.5 1-11.3 10.6-10.2 8.7 1 10.2-1.1 17.6-6.3 7.9-5.5 7.3-5.7 15.9-1.5 5 2.4 10.8 7.4 16.3 5.5 8.3-2.8 16.6-5.6 25-8.5 5.4-1.8 8.4 6.9 11.3 11 4 5.6 9.5 0.9 15.5-1.1C449.2 120.4 455.2 138.8 452.7 154.5 455.1 153.8 455 140.5 452.7 154.5z" fill="#612E0F"/><path d="M452.7 155.1c2.2 0-6.6-44.1-8-49 -7.1 2.4-11.4 6.7-16 0.2 -7.2-10.2-5.9-11.7-17.4-7.8 -3.9 1.3-17.6 8.7-21.5 6.8 -3.1-1.5-19-11.4-21.3-9.8 -3.8 2.7-13.6 12.6-18.2 12.1 -4.4-0.5-8.8-1-13.2-1.5 -1.7-0.2-3.6 10.6-4 12 -1.3 5.6-4 37.2-6.4 36.7 -6.8-1.4-7.4-1.2-7.5-8.4 -0.1-7.5-7-4.4-7.5-10.8 -0.3-4.7 3.8-35.8-0.7-37.7 -1.2-0.5-10.1 7.7-10.1 4.8 0-5.7 10.4-11.2 5.6-16.2 -14-14.7 22.7-4.8 28.7-7.5 1.5-0.7 4.3-7.3 5.5-8.8 3.9-5.1 8.1-10 12.5-14.8 1.7-1.9 17.4-20.7 18.5-12.5 0.9 6.4-2.7 10.6 4.5 11.3 8.6 0.7 17.4 0.5 26 0.4 17-0.2 36.7-3.1 53.4 0.8 9.2 2.1-15.9 11.7-18.5 12.4 6.7 3.7 13.5 7.5 20 11.6 7.7 4.9 10.7 5.8 2.8 12 6.4 3.7 14.6 7.6 19.5 13.3 0.4 0.4-9.1 8.2-9.9 13.1 -0.8 5.4-0.1 10.9-0.3 16.4 -0.2 7.6-2.9 3.7-7.5 8.6C462.8 151 462 155.1 452.7 155.1zM320.7 152.2c2.4 0.7 4.8 1.2 7.3 1.7 -0.8-11.9 1.3-24.1 4.1-35.6 0.9-3.7 1.9-7.4 3-11.1 0.7-2.4-3.6-3.1-3.6-3.1 0.2-0.6 18.2 2.8 19.4 2.5 5.7-1.5 12.5-8.7 17.3-12.2 -0.6-0.8-1.3-1.5-1.9-2.3 2.9-2 20.2 13.7 25.5 11.9 5.4-1.8 30.6-6.8 27.4-13.1 0.9-0.3 10.9 15.5 11.6 16.5 3.6 5.1 9.7-4.3 14.1-2.4 2.8-0.9 9 44.3 8.4 48.9 14.6-3.7 0.8-10.2 7.1-17.1 -0.5 0.5 1.4 4.2 0.9 4.7 4.1-4 6.5-0.9 6.7-7.6 0.1-4.2-0.2-8.3 0-12.5 0.4-7.1 2.7-14.4 10.6-15.8 -3.3-4.5-22.4-11.2-22.7-15.6 0.2 3.8 8.2-3.6 8.4-3.8 -2.5-5.5-32.2-17.3-32.1-18.3 0.5-3.8 24.4-2.8 24.7-10.8 -3-5.8-39-1.5-44.3-1.5 -10.9 0.2-21.9 0.5-32.9 0 -1.5-0.1-12.2 0.5-13 0 4.4 2.8 6-13 3-14.3 -7.6 0.3-21.9 21.6-26.2 27 -3.9 4.9-5.8 12.3-12.6 12.3 -4.4 0-24.3-4.4-27.2-0.9 -2 3.6 6.5 6.3 5.5 9.9 -1.4 4.6-6.6 8.1-7.2 13 3.1 2 10.1-13.1 11.1-0.5 0.6 7.9-0.1 15.9-0.3 23.8 -0.1 3.2-0.1 6.4 0 9.6 0.3 4.2 3.7 3 6.6 5.7 -0.7-0.6 1.2-4.7 0.5-5.4C322.1 138.1 320.4 149.4 320.7 152.2 323.1 152.8 320.4 149.8 320.7 152.2z" class="b"/><path d="M384.4 168.7c-0.2 0 5.7-11.7 12.2-3.7 -0.9-1.1 1.9 5.2-0.1 3.6C391.7 164.5 388.8 168.7 384.4 168.7zM390.6 165.5c2.1 0 4 0.5 5.7 1.6 -0.8-4.7-10.7-4.7-11.5 0C386.6 166 388.5 165.5 390.6 165.5z" class="b"/><path d="M352.6 130.3c4.9 0 4.9 25.4 0 25.4C347.8 155.8 347.8 130.3 352.6 130.3z" class="b"/><path d="M353.7 133.6c1.6 0 1.6 7.1 0 7.1C352.1 140.8 352.1 133.6 353.7 133.6z" class="h"/><path d="M428.6 130.3c4.9 0 4.9 25.4 0 25.4C423.8 155.8 423.8 130.3 428.6 130.3z" class="b"/><path d="M429.7 133.6c1.6 0 1.6 7.1 0 7.1C428.1 140.8 428.1 133.6 429.7 133.6z" class="h"/><path d="M338.2 125.4c6.9-8.5 25.3-8 32.5 0 -4.1-4.6-5.9-9.1-14.9-9.5C346.8 115.6 342.9 119.6 338.2 125.4 345.9 116 338 125.7 338.2 125.4z" class="b"/><path d="M442.7 125.4c-6.9-8.5-25.3-8-32.5 0 4.1-4.6 5.9-9.1 14.9-9.5C434.1 115.6 438 119.6 442.7 125.4 435.1 116 443 125.7 442.7 125.4z" class="b"/><path d="M390.5 196.7c9 0 23.4-4.5 23.4-15.8 -15.6 0-31.2 0-46.8 0C367.1 192.1 381.5 196.7 390.5 196.7z" fill="#BD383D"/><path d="M390.5 197.2c-7 0-14.8-2.1-19.9-7.2 -0.6-0.6-6.7-9.7-3.3-9.7 7.2 0 14.4 0 21.6 0 8 0 16 0 23.9 0 3.5 0 0.6 5.4-0.3 6.9C408.1 194.4 398.5 197.2 390.5 197.2zM367.6 181.4c1.1 19.9 44.6 19.9 45.7 0C398.1 181.4 382.9 181.4 367.6 181.4z" class="b"/><path d="M408.4 190.3c-1.8-13.7-18.7-8.9-28.8-8.9 -8.2 0-9.4 8.8-1.6 12.2C387.4 197.7 400.3 197.1 408.4 190.3 407.9 186.9 404.2 193.8 408.4 190.3z" fill="#EE6767"/></svg>