<svg version="1.1" xmlns="http://www.w3.org/2000/svg" x="0" y="0" width="768" height="430" viewBox="0 0 768 430" enable-background="new 0 0 768 430" xml:space="preserve"><path fill-rule="evenodd" clip-rule="evenodd" fill="#DDE4D0" d="M341.6 157.1c12.5 12.3 25.1 24.6 37.6 36.9 0.6 0.6 1.3 1.1 2 1.7 13.7-13.4 27.2-26.6 40.6-39.9 1.1-1.1 2.1-3.4 1.7-4.6 -0.4-1.1-2.7-1.7-4.3-2.2 -0.9-0.3-2-0.1-3-0.1 -8 0-16 0-24.4 0 0-1.8 0-3.3 0-4.7 0-17.4 0-34.9 0-52.3 0-4.6-1.8-6.4-6.4-6.5 -2.7-0.1-5.3 0-8 0 -5.3 0-6.9 1.7-6.9 7 0 17.6 0 35.1 0 52.7 0 1.2 0 2.4 0 3.9 -1.2 0-2.1 0-2.9 0 -8 0-16-0.1-24 0.1 -1.7 0-3.3 1.3-5 1.9 0.7 1.7 1.4 3.5 2.2 5.2C340.8 156.5 341.2 156.8 341.6 157.1zM469.4 197.8c0-3.2-0.9-4.9-3.6-6.5 -19.5-11.3-24-14.5-43.4-25.9 -0.5-0.3-1.5-0.7-2.4-1.2 -3.6 3.3-6.5 7.2-9.9 10.7 9.6 5.6 19.2 11.3 28.8 17 0.8 0.5 1.6 1 2.5 1.7 -0.6 0.4-0.9 0.7-1.3 1 -18.3 10.9-36.7 21.7-55.1 32.5 -1.1 0.6-3.2 0.3-4.4-0.4 -17.6-10.3-35.2-20.7-52.8-31.1 -0.9-0.6-1.8-1.2-3-1.9 1.3-0.8 2.3-1.5 3.3-2.1 7.6-4.5 18.6-10.6 26.2-15.1 -1.9-1.7-4.4-4-6-6 -1.6-1.9-2.7-2.9-4-5l-44.2 26.3c-2.2 1.3-3.2 2.7-3.2 5.4 0.1 31.2 0.1 62.4 0 93.7 0 2.2 0.7 3.4 2.5 4.5 27.1 15.9 54.1 31.9 81.1 48 1.8 1.1 3.1 1.2 5.1 0.1 27-16.1 54-32 81.1-48 1.9-1.1 2.6-2.2 2.6-4.4C469.3 259.8 469.3 228.8 469.4 197.8zM363.7 299.4h-6.8v-52.6h6.8V299.4zM415 299.4h-6.9l-16.7-26.7c-3.7-5.9-7.2-11.9-9.8-17.6l-0.2 0.1c0.4 6.6 0.5 12.9 0.5 21.7v22.5h-6.4v-52.6h7.4l16.8 26.6c3.9 6.2 6.9 11.7 9.4 17.1l0.2-0.1c-0.6-7-0.8-13.4-0.8-21.6v-22h6.4V299.4z"/></svg>