<svg version="1.1" id="Layer_1" xmlns="http://www.w3.org/2000/svg" xmlns:xlink="http://www.w3.org/1999/xlink" viewBox="0 0 768 430" xml:space="preserve">
<path fill="#DDE4D0" d="M341.6,128.1c12.5,12.3,25.1,24.6,37.6,36.9c0.6,0.6,1.3,1.1,2,1.7c13.7-13.4,27.2-26.6,40.6-39.9
	c1.101-1.1,2.101-3.4,1.7-4.6c-0.4-1.1-2.7-1.7-4.3-2.2c-0.9-0.3-2-0.1-3-0.1c-8,0-16,0-24.4,0c0-1.8,0-3.3,0-4.7
	c0-17.4,0-34.9,0-52.3c0-4.6-1.8-6.4-6.399-6.5c-2.7-0.1-5.3,0-8,0c-5.3,0-6.9,1.7-6.9,7c0,17.6,0,35.1,0,52.7c0,1.2,0,2.4,0,3.9
	c-1.2,0-2.1,0-2.9,0c-8,0-16-0.1-24,0.1c-1.7,0-3.3,1.3-5,1.9c0.7,1.7,1.4,3.5,2.2,5.2C340.8,127.5,341.2,127.8,341.6,128.1z
	 M469.4,168.8c0-3.2-0.9-4.9-3.601-6.5c-19.5-11.3-24-14.5-43.399-25.9c-0.5-0.3-1.5-0.7-2.4-1.2c-3.6,3.3-6.5,7.2-9.9,10.7
	c9.601,5.6,19.2,11.3,28.801,17c0.8,0.5,1.6,1,2.5,1.7c-0.601,0.4-0.9,0.7-1.301,1c-18.3,10.9-36.699,21.7-55.1,32.5
	c-1.1,0.601-3.2,0.301-4.4-0.399c-17.6-10.3-35.2-20.7-52.8-31.1c-0.9-0.6-1.8-1.2-3-1.9c1.3-0.8,2.3-1.5,3.3-2.1
	c7.6-4.5,18.6-10.6,26.2-15.1c-1.9-1.7-4.4-4-6-6c-1.6-1.9-2.7-2.9-4-5l-44.2,26.3c-2.2,1.3-3.2,2.7-3.2,5.4
	c0.1,31.2,0.1,62.399,0,93.7c0,2.199,0.7,3.399,2.5,4.5c27.1,15.899,54.1,31.899,81.1,48c1.8,1.1,3.1,1.199,5.1,0.1
	c27-16.1,54-32,81.101-48c1.899-1.1,2.6-2.2,2.6-4.4C469.3,230.8,469.3,199.8,469.4,168.8z M363.7,270.4h-6.8V217.8h6.8V270.4z
	 M415,270.4h-6.9L391.4,243.7c-3.7-5.9-7.2-11.9-9.8-17.601l-0.2,0.101c0.4,6.6,0.5,12.899,0.5,21.7v22.5h-6.4V217.8h7.4
	l16.8,26.601c3.899,6.199,6.899,11.699,9.399,17.1l0.2-0.1c-0.6-7-0.8-13.4-0.8-21.601v-22h6.4V270.4H415z"/>
</svg>
