<svg xmlns="http://www.w3.org/2000/svg" viewBox="0 0 768 430"><style>.a{fill:#3C3C3B;}.b{fill:#C78C59;}.c{fill:#D19E66;}</style><path d="M305.2 38.9c26.1 0.7 52.2-0.1 78.3 0.1 12.8 0.1 25.6 0.8 38.4 0.7 13.6-0.1 27.2-1.9 40.8-0.9 -0.1-0.5-0.1-0.9-0.2-1.4 -0.3-1.6 2-2.2 2.4-0.7 0.1 0.5 0.2 0.9 0.3 1.4 0.6-1 0.1-2.7-1.5-2.9 -14-1.2-27.8 0.7-41.7 0.8 -12.8 0.1-25.6-0.6-38.4-0.8 -26.2-0.3-52.6-0.7-78.8 0 0 0 0 0 0 0h0c0 0 0 0 0 0 -0.2 0.2-0.4 0.4-0.5 0.6 0 0-0.1 0.1-0.1 0.1 -0.1 0.2-0.3 0.5-0.3 0.7 0 0.1 0 0.1-0.1 0.2 -0.1 0.3-0.1 0.5-0.2 0.8 0 0 0 0.1 0 0.1 0 0.3 0 0.5 0 0.8 0 0 0 0.1 0 0.1 0 0 0 0 0 0 0.1 0 0.2 0 0.3 0C304.3 38.9 304.8 38.9 305.2 38.9z" class="a"/><path d="M322.6 56.8c21.5-0.3 42.9 0.5 64.4-0.2 21.6-0.7 43.1 0.1 64.7 0.1 0 0 0 0 0.1 0 0.4 0 0.7-0.1 0.9-0.3 0.9-0.8 0.6-2.7-1-2.7 -21.6-0.1-43.1-1.2-64.7-0.5 -21.5 0.7-42.9-0.5-64.4 0.4 -1.7 0.1-2 2.1-1.1 3 0.2 0.2 0.5 0.3 0.9 0.4C322.4 56.8 322.5 56.8 322.6 56.8z" class="a"/><path d="M479.1 355.4c-3.5-0.1-6.9 0-10.4 0.1 -0.1 2.8-4.2 2.9-4.6 0.3 -3.1 0.2-6.1 0.5-9.2 0.8 0 0 0 0.1 0 0.1 0.1 2.6-3.7 2.6-4.1 0.3 -5.9 0.6-11.9 1.1-17.8 1.3 -15.3 0.4-30.5-0.1-45.8-0.6 -20.8-0.7-41.8-1-62.7-0.5 -0.3 2-3.4 2.1-4 0.1 -4.1 0.1-8.1 0.3-12.2 0.5 -0.2 2-3.2 2-3.8 0.2 -3.9 0.2-7.7 0.5-11.5 0.8 -0.9 0.1-0.9 1.3 0 1.4 31.2 2.4 62.8-0.4 94.1 1 14.8 0.7 29.6 1.6 44.5 1.3 15.8-0.3 31.5-3.1 47.3-3C481.7 359.5 481.7 355.5 479.1 355.4z" class="a"/><path d="M462.9 272.6c0.1-12.9 0.2-25.8 0.1-38.8 0-13.3-2.4-26.7-1.6-39.9 1.6-26.4 2.5-52.8 3-79.2 0.2-12.9-0.5-25.8-0.2-38.8 0.3-12.4 0.7-24.9-1.5-37.2 -13.6-1-27.2 0.8-40.8 0.9 -12.8 0.1-25.6-0.6-38.4-0.7 -26.1-0.2-52.2 0.6-78.3-0.1 2.8 22.4 1.6 45.5 2.1 68 0.5 22.6 0.5 45.2 1.5 67.8 0.1 1.8 0.1 3.7 0.2 5.5 0.6-0.1 1.3-0.3 1.9-0.5 1.2-0.4 1.8 1.5 0.5 1.9 -0.8 0.3-1.5 0.3-2.3 0.2 0 0-0.1 0-0.1 0 0.5 19.8-0.4 39.4-0.3 59.2 0.1 22.2 1.2 44.3 0.8 66.6 -0.1 5.6-0.3 11.2-0.6 16.8 0.7-0.1 1.4-0.1 1.8 0.3 0.4 0.4 0.4 1.1 0 1.5 -0.5 0.5-1.3 0.4-1.9 0.3 -0.4 10.3-0.9 20.7-0.4 31.1 0 0.1 0 0.2 0 0.4 4.1-0.2 8.1-0.4 12.2-0.5 0-0.2-0.1-0.3-0.1-0.5 -0.1-1.9-0.1-3.8-0.2-5.7 -1.1 0.1-2.4-0.1-3.2-0.8 -0.4-0.4-0.1-1.1 0.5-1.1 0.9 0 1.8 0.1 2.7 0.1 -1.5-47.5 0.4-95.1 0-142.6 -0.2-24.2-0.1-48.4 0.1-72.5 -1.9 0.1-3.8-0.2-5.6-0.6 -0.9-0.2-0.6-1.4 0.2-1.4 1.8-0.1 3.7 0 5.5 0.1 0-0.1 0-0.2 0-0.3 0.2-25-0.5-50.4 1.1-75.4 -0.9-0.9-0.6-2.9 1.1-3 21.5-0.9 42.9 0.3 64.4-0.4 21.6-0.7 43.1 0.4 64.7 0.5 1.6 0 1.9 1.9 1 2.7 1.5 24.2 0.6 48.9 0.5 73.1 0.1 0 0.1 0 0.2 0.1 0.4 0.2 1 0 1.4-0.2 0.6-0.3 1.3-0.2 1.6 0.4 0.3 0.5 0.2 1.4-0.4 1.6 -0.9 0.4-2 0.7-2.8 0.3 0 0 0 0 0 0.1 0 1 0 2 0 3 0.6-0.2 1.3-0.2 2 0 1.2 0.3 0.7 2.1-0.5 1.8 -0.5-0.1-1-0.2-1.5-0.3 0 23.4 0.1 46.8 0.5 70.2 0.4 21.1 0.4 42.1 0.3 63.2 1-0.2 2-0.2 3-0.1 0.9 0.1 0.9 1.7 0 1.8 -1 0.1-2 0.1-3-0.1 0 28.5 0 56.9 1 85.4 3.1-0.3 6.1-0.6 9.2-0.8 0-0.1 0-0.3 0-0.4C463.7 327.8 462.7 300.3 462.9 272.6zM458.2 47.3c-0.1 0.2-0.4 0.1-0.5-0.1 -0.2-0.3-0.2-0.6-0.2-1 -0.5-0.1-1-0.3-1.5-0.4 -0.7 0-0.7-1 0-1 0.7 0 1.4 0.2 2.1 0.4 0.2 0 0.4 0.3 0.4 0.5C458.5 46.4 458.6 46.9 458.2 47.3zM460.5 45.6c-0.1 0.6-1 0.4-1-0.1 0-1.3-0.3-2-1.7-2.2 -1-0.1-2 0-2.9-0.4 -0.1-0.1-0.1-0.2 0-0.3C457.3 41.7 461.2 42.2 460.5 45.6zM460.2 41.2c-2.2-0.9-4.8 0.7-7-0.1 -0.2-0.1-0.4-0.5-0.1-0.6 2.2-1 6-1.5 8.1-0.2 2 1.2 1.1 3.8 1.6 5.7 0.2 0.7-0.8 0.9-1 0.3C461.4 44.6 462 41.9 460.2 41.2z" class="b"/><path d="M414.7 222c-0.1 0.9-0.1 1.7-0.4 2.6 -0.1 0.3-0.3 0.6-0.6 0.7 -0.1 1.8 0 3.5 0.2 5.3 0.1 1.3 0.3 2.5 0.7 3.7 0.2-0.8 0.3-1.5 0.4-2.3 0.2-1.9 0.4-3.9 0.3-5.9 0-0.9 0-1.9-0.2-2.8C415.1 223 414.9 222.5 414.7 222z" fill="#A7D8CF"/><path d="M418.5 244.4c0 0 0 0 0 0 1 10.7 1.1 21.5 1.1 32.3 4.5-1.7 9.3-2.6 13.8-4.4 3.2-1.3 6.6-1.8 9.8-3 0-10.4 0.3-20.9 1.2-31.3 -3.3 0.1-6.6 1.5-9.6 2.7C429.4 242.8 424 242.7 418.5 244.4z" class="b"/><path d="M432.6 285.1c-4.3 1.7-8.9 1.6-13 3.8 0 3.3 0 6.6 0.1 9.9 0.3 17.6 0.5 35.1 0.7 52.7 0.5-0.3 1.1-0.6 1.8-0.8 2.9-1 5.2-2 7.7-3.7 2.8-1.9 5.7-3.4 8.5-5.2 1.9-1.2 3.2-2.7 5.1-3.2 0-0.1 0-0.2 0-0.3 -0.1-0.6 0.3-1 0.7-1.2 -0.6-2.2-0.3-11.1-0.3-11.8 0.1-4.2 0.1-8.3 0.1-12.5 -0.1-8.1-0.3-16.1-0.5-24.2 -0.1-2.4-0.1-4.8-0.1-7.2 -0.9 0.2-1.8 0.4-2.8 0.7C437.7 282.7 435.3 284.1 432.6 285.1zM440.1 332.8c0.5-0.3 1.2-0.9 1.8-0.8 0.1 0 0.2 0.2 0.2 0.3 -0.2 0.8-1.3 0.9-2 0.8C439.9 333 439.9 332.8 440.1 332.8zM439.3 336c0.6-0.4 1.1-0.9 1.7-1.3 0.4-0.3 0.9-0.9 1.5-0.9 0.3 0 0.5 0.3 0.4 0.6 -0.1 0.6-0.9 1-1.4 1.3 -0.6 0.4-1.3 0.6-1.9 0.9C439.2 336.7 439 336.2 439.3 336zM443.1 337.8c-0.6 0.4-1.2 0.7-1.9 1.1 -0.6 0.3-1.2 0.5-1.8 0.5 -0.4 0-0.5-0.5-0.2-0.8 0.5-0.4 1.1-0.7 1.7-1 0.6-0.3 1.1-0.7 1.7-0.9C443.4 336.3 443.7 337.4 443.1 337.8zM441.3 327.2c0.4-0.1 0.8-0.3 1.2-0.3 0.7 0 0.8 0.8 0.3 1.2 -0.4 0.2-0.7 0.3-1.1 0.4C440.8 328.8 440.5 327.5 441.3 327.2zM442.5 329.3c0.5 0.1 0.9 0.7 0.5 1.1 -0.6 0.6-1.5 0.6-2.3 0.4 -0.4-0.1-0.6-0.8-0.1-1C441.1 329.5 441.8 329.2 442.5 329.3z" class="b"/><path d="M443.6 73.4c-2.8 0.8-6.5-1.6-9.2-2.2 -5.4-1.2-11.2-1.3-16.3-3.3 0.5 6-0.1 12.2 0.1 18.2 0.2 5.9 0.4 11.7 0.3 17.5 -0.1 6.7-0.1 13.5-0.1 20.2 8.4-0.2 17.2-2.4 25.6-1.5 -0.4-16.4-1.1-32.9-0.1-49.2C443.8 73.2 443.7 73.3 443.6 73.4zM439.7 74.7c-0.3-0.1-0.3-0.6 0.1-0.6 0.9-0.1 1.8 0 2.6 0.5 0.5 0.3 0.2 1.2-0.4 1C441.2 75.3 440.5 75 439.7 74.7zM440.5 76.2c0.7 0 1.8 0.1 2.2 0.7 0.1 0.1 0 0.3-0.1 0.4 -0.6 0.1-1.2-0.2-1.8-0.5 0.1 0.4 0.4 0.8 0.7 1.1 0.4 0.2 0.8 0.3 1.2 0.5 0.3 0.2 0.2 0.8-0.2 0.8 -1.2-0.1-1.9-1.6-2.2-2.6C440.2 76.4 440.3 76.2 440.5 76.2zM442.6 83.3c-0.6 0.1-0.9-0.3-0.9-0.9 0-0.1 0.1-0.2 0.2-0.1 0.2 0.1 0.5 0 0.7 0C443.3 82.2 443.3 83.2 442.6 83.3zM441.9 81.1c0-0.1-0.1-0.1-0.1-0.1 -0.6 0-0.9-0.9-0.3-1.2 0.6-0.3 1.3-0.3 1.6 0.4C443.4 80.9 442.5 81.8 441.9 81.1z" class="b"/><path d="M450.8 54.7c-6.8-6.9-16.1-12.4-24.1-17.9 -6.8-4.6-13.9-10-19.7-15.8 1.4 27 0.8 54.3 1 81.3 0.2 48.2 0.1 96.4 0.2 144.5 0.1 46.5 0.9 92.9 0.2 139.4 1.7-1.2 3.5-2 5.4-3 3.9-2.1 7-5.3 10.5-8 5.1-3.9 9.9-8 14.9-11.8 4-3 8.4-5.4 11.2-9.6 0.1-0.2 0.3-0.3 0.4-0.4 -1.8-49.4 0.2-98.9-0.2-148.3 -0.2-24.9-0.1-49.8 0.1-74.7 0.2-25-0.5-50.4 1.1-75.4C451.5 55.1 451.2 55 450.8 54.7zM414.1 237.7c-1.1-0.5-1.4-2.2-1.6-3.2 -0.6-3.1-1-7.1-0.2-10.4 -0.4-1.8-0.3-4.6 1.4-5.6 1.6-1 2.9 0.6 3.4 1.9 1.1 2.6 1 5.8 0.8 8.6 -0.1 2.4-0.3 5-1.2 7.2C416.2 237.2 415.3 238.3 414.1 237.7zM445.4 340.1c0 0-0.1 0-0.1 0 -0.1 0-0.3 0.1-0.4 0.1 -1.3 3.3-6.7 5.4-9.5 7 -2.6 1.5-5 3.6-7.8 4.9 -2.4 1.2-5.7 1.2-7.3 3.7 -0.4 0.7-1.1 0.8-1.7 0.7 -0.1 0-0.2-0.1-0.3-0.1 0 0-0.1 0-0.1 0 -0.1 0-0.1-0.1-0.2-0.1 -0.5-0.4-0.7-1-0.4-1.7 0.2-18.6 0.1-37.1-0.1-55.7 -0.2-18-1.3-36.5 0.3-54.5 -0.5-0.4-0.6-1.5 0.3-1.7 5.9-2 12-2.5 17.9-4.5 2.7-0.9 6.1-2.4 9-1.6 0.3 0.1 0.5 0.3 0.6 0.6 0.3 0.1 0.6 0.3 0.5 0.8 -0.8 13.9-0.8 27.9-0.7 41.9 0 0 0 0 0.1 0 0.3 0.1 0.3 0.6 0 0.7 0 0 0 0 0 0 0.3 19.5 1 39 1 58.3C446.4 339.4 446 339.9 445.4 340.1zM446.5 211c-0.2 0.8-0.9 1.1-1.5 1 -3.8 2.2-8.4 2.2-12.6 3.5 -2.3 0.7-4.4 2-6.7 2.7 -2 0.5-3.9 0.2-5.9 1.1 -0.4 0.2-0.7 0.1-1 0 -0.9 0-1.8-0.5-1.9-1.7 -0.4-26.1-1.3-52.2-1.1-78.3 0.1-12.7 0.5-25.3 0.6-38 0.1-11.4-0.7-22.6 0.8-33.9 -0.4-0.7 0.1-1.8 1.1-1.5 5.1 1.8 10.6 2 15.9 3.2 3.4 0.7 6.5 2 9.8 3 0.2 0.1 0.2 0.3 0.2 0.5 0 0.1 0 0.1 0 0.2 0.2 0 0.4 0 0.4 0.3 1.6 25.4 1.2 51 1.8 76.5 0.3 12.1 0.4 24.3 0.3 36.4 0 5.3-0.2 10.6 0 16C446.7 204.7 447.1 207.9 446.5 211z" class="b"/><path d="M436.3 138.8c-6-0.4-11.7 0.7-17.7 1.1 0 0.2 0 0.4 0 0.7 0.6 25.4 1.3 50.8 1.8 76.1 1-0.2 1.9-0.3 3.3-0.5 2.6-0.4 4.8-1.6 7.3-2.5 3.9-1.4 8.5-2.4 12.7-2.7 -0.1-0.2-0.1-0.5 0-0.7 0.8-3.4 0.1-7.2 0-10.7 -0.1-5.4 0.1-10.9 0.2-16.3 0.1-12.2 0.1-24.3 0.4-36.5 0.1-3.1 0.1-6.1 0.1-9.2C442.1 139.1 438.9 139 436.3 138.8z" class="b"/><path d="M304.2 36c0.2-0.2 0.3-0.4 0.5-0.6C304.6 35.5 304.4 35.7 304.2 36z" class="a"/><polygon points="304.8 35.3 304.8 35.3 304.8 35.3 " class="a"/><path d="M303.8 36.8c0.1-0.2 0.2-0.5 0.3-0.7C304 36.3 303.9 36.6 303.8 36.8z" class="a"/><path d="M303.5 37.8c0-0.3 0.1-0.5 0.2-0.8C303.6 37.2 303.6 37.5 303.5 37.8z" class="a"/><path d="M303.5 38.7c0-0.3 0-0.6 0-0.8C303.5 38.1 303.5 38.4 303.5 38.7z" class="a"/><path d="M308.4 357.8c0-0.1 0-0.2 0-0.4 -0.4-10.4 0-20.7 0.4-31.1 0 0 0 0-0.1 0 -0.6-0.1-1.5-0.2-1.8-0.8 -0.4-0.8 0.8-1.1 1.3-1.3 0.2 0 0.4-0.1 0.6-0.1 0.2-5.6 0.5-11.2 0.6-16.8 0.4-22.2-0.7-44.3-0.8-66.6 -0.1-19.8 0.8-39.5 0.3-59.2 -0.7-0.1-1.5-0.2-2-0.5 -0.2-0.1-0.2-0.4 0-0.5 0.5-0.3 1.3-0.3 1.9-0.5 0 0 0.1 0 0.1 0 -0.1-1.8-0.1-3.7-0.2-5.5 -1-22.6-1-45.2-1.5-67.8 -0.5-22.5 0.6-45.6-2.1-68 -0.5 0-0.9 0-1.4 0 -0.1 0-0.2 0-0.3 0 0 0.3 0 0.5 0.1 0.8 0 0.2 0 0.4-0.1 0.5 1.7 20 0.2 40.3 0.9 60.3 0.8 22.2 0.1 44.4 0.9 66.6 0.9 21.7 0.4 43.2-0.2 64.9 -0.6 22.1 1.1 44.3 0.7 66.4 -0.3 19.7-2 39.4-1.2 59.1 0 0.2 0 0.4 0.1 0.5C305.2 359.8 308.2 359.8 308.4 357.8z" class="a"/><path d="M462.5 37.4c0.1 0.5 0.2 0.9 0.2 1.4 2.2 12.3 1.8 24.7 1.5 37.2 -0.3 12.9 0.4 25.8 0.2 38.8 -0.5 26.4-1.4 52.9-3 79.2 -0.8 13.2 1.6 26.7 1.6 39.9 0 12.9-0.1 25.8-0.1 38.8 -0.2 27.6 0.8 55.2 1.1 82.9 0 0.1 0 0.3 0 0.4 0.4 2.6 4.5 2.5 4.6-0.3 0 0 0-0.1 0-0.1 -0.1-27.6-1.5-55.2-1.5-82.9 0-13.8 0-27.6-0.1-41.3 -0.1-13.3-2.7-26.6-1.7-39.8 2.1-27.1 2.1-54.7 2-81.9 0-12.8-0.5-25.5-0.2-38.3 0.2-11.1 0.2-22.2-2.1-33.1 -0.1-0.5-0.2-0.9-0.3-1.4C464.5 35.2 462.2 35.9 462.5 37.4z" class="a"/><path d="M323.3 206.5c-0.5-24.9-0.5-49.8-0.5-74.7 0-24.9 1-50.2-0.5-75 -0.4 0-0.7-0.2-0.9-0.4 -1.6 25-0.9 50.4-1.1 75.4 0 0.1 0 0.2 0 0.3 0.2 0 0.4 0 0.6 0 1.2 0.1 1.2 1.7 0 1.8 -0.2 0-0.4 0-0.6 0 -0.2 24.2-0.3 48.4-0.1 72.5 0.4 47.5-1.5 95.2 0 142.7 0.1 0 0.2 0 0.3 0 0.5-0.1 1 0.5 1 1 0 0.6-0.4 0.9-1 1 -0.1 0-0.2 0-0.2 0 0.1 1.9 0.1 3.8 0.2 5.7 0 0.2 0 0.4 0.1 0.5 0.6 1.9 3.7 1.9 4-0.1 0-0.1 0-0.3 0-0.4C322.8 306.8 324.2 256.6 323.3 206.5z" class="a"/><path d="M453.9 271.3c-0.4-0.1-0.7-0.2-1.1-0.3 -0.5-0.2-0.5-0.9 0-1.1 0.4-0.1 0.7-0.2 1.1-0.3 0-21.1 0.1-42.1-0.3-63.2 -0.4-23.4-0.5-46.8-0.5-70.2 -0.4 0-0.8-0.1-1.1-0.1 -0.4 0-0.6-0.6-0.2-0.8 0.4-0.3 0.9-0.5 1.3-0.6 0-1 0-2 0-3 0 0 0 0 0-0.1 -0.4-0.2-0.8-0.4-1.1-1 -0.4-0.7 0.3-1.6 1.1-1.4 0.1-24.3 1-48.9-0.5-73.1 -0.2 0.2-0.5 0.3-0.9 0.3 -1.6 24.9-0.9 50.2-1.1 75.2 -0.2 24.9-0.3 49.8-0.1 74.7 0.4 50.1-1.7 100.3 0.3 150.3 0 0.1 0 0.2 0 0.3 0.4 2.4 4.2 2.3 4.1-0.3 0 0 0-0.1 0-0.1C453.9 328.3 453.9 299.8 453.9 271.3z" class="a"/><path d="M310.8 326.1c0.4-0.4 0.4-1.1 0-1.5 -0.4-0.4-1.2-0.4-1.8-0.3 -0.2 0-0.4 0.1-0.6 0.1 -0.5 0.1-1.7 0.5-1.3 1.3 0.3 0.6 1.2 0.7 1.8 0.8 0 0 0 0 0.1 0C309.5 326.5 310.3 326.6 310.8 326.1z" class="a"/><path d="M321.5 350.1c0-0.5-0.4-1-1-1 -0.1 0-0.2 0-0.3 0 -0.9 0.1-1.8-0.1-2.7-0.1 -0.5 0-0.9 0.7-0.5 1.1 0.9 0.8 2.1 0.9 3.2 0.8 0.1 0 0.2 0 0.2 0C321.1 351 321.5 350.7 321.5 350.1z" class="a"/><path d="M452.9 271.1c0.4 0.1 0.7 0.2 1.1 0.3 1 0.2 2 0.2 3 0.1 0.9-0.1 0.9-1.7 0-1.8 -1-0.1-2-0.1-3 0.1 -0.4 0.1-0.7 0.2-1.1 0.3C452.3 270.2 452.3 270.9 452.9 271.1z" class="a"/><path d="M462.9 46c-0.5-1.9 0.4-4.5-1.6-5.7 -2.2-1.3-5.9-0.8-8.1 0.2 -0.3 0.1-0.2 0.5 0.1 0.6 2.2 0.8 4.8-0.7 7 0.1 1.8 0.7 1.2 3.4 1.6 5C462 46.9 463 46.6 462.9 46z" class="a"/><path d="M455 42.6c-0.1 0.1-0.1 0.2 0 0.3 0.9 0.4 1.9 0.2 2.9 0.4 1.4 0.2 1.6 0.9 1.7 2.2 0 0.6 0.9 0.7 1 0.1C461.2 42.2 457.3 41.7 455 42.6z" class="a"/><path d="M458.1 45.3c-0.7-0.1-1.4-0.4-2.1-0.4 -0.7 0-0.7 1 0 1 0.5 0 1 0.2 1.5 0.4 0.1 0.3 0 0.7 0.2 1 0.1 0.2 0.3 0.2 0.5 0.1 0.4-0.4 0.3-1 0.3-1.5C458.5 45.6 458.3 45.3 458.1 45.3z" class="a"/><path d="M452 130.8c0.3 0.5 0.7 0.8 1.1 1 0.9 0.3 1.9 0.1 2.8-0.3 0.6-0.3 0.7-1.1 0.4-1.6 -0.3-0.6-1.1-0.7-1.6-0.4 -0.4 0.2-1 0.4-1.4 0.2 -0.1 0-0.1-0.1-0.2-0.1C452.4 129.2 451.6 130.1 452 130.8z" class="a"/><path d="M452 136.2c0.4 0 0.7 0.1 1.1 0.1 0.5 0.1 1 0.1 1.5 0.3 1.2 0.3 1.6-1.5 0.5-1.8 -0.7-0.2-1.3-0.2-2 0 -0.5 0.1-0.9 0.3-1.3 0.6C451.4 135.6 451.6 136.1 452 136.2z" class="a"/><path d="M320.9 132.2c-0.2 0-0.4 0-0.6 0 -1.8-0.1-3.7-0.2-5.5-0.1 -0.8 0-1.1 1.3-0.2 1.4 1.8 0.3 3.8 0.6 5.7 0.6 0.2 0 0.4 0 0.6 0C322 133.9 322.1 132.2 320.9 132.2z" class="a"/><path d="M311.5 181.5c1.2-0.4 0.7-2.3-0.5-1.9 -0.6 0.2-1.3 0.4-1.9 0.5 0 0-0.1 0-0.1 0 -0.6 0.1-1.3 0.1-1.9 0.5 -0.2 0.1-0.2 0.4 0 0.5 0.6 0.4 1.4 0.4 2 0.5 0 0 0.1 0 0.1 0C310 181.8 310.7 181.8 311.5 181.5z" class="a"/><path d="M453.7 205.1c-0.5-24.9-0.5-49.8-0.5-74.7 0-25.1 1.1-50.7-0.5-75.8 -0.2 0.2-0.5 0.4-0.9 0.4 -1.6 25-0.9 50.4-1.1 75.4 -0.2 24.9-0.3 49.8-0.1 74.7 0.4 49.4-1.6 98.9 0.2 148.3 1.1-0.8 3 0.5 2.1 1.9 -0.4 0.6-0.8 1.2-1.2 1.7 1.2 0.9 3.4 0.4 3.3-1.5C453.2 305.3 454.6 255.2 453.7 205.1z" class="a"/><path d="M406.4 388.8c-0.2-0.3-0.1-0.8 0.1-1 0.6-0.6 1.2-1.1 1.8-1.6 0.7-46.5-0.1-92.9-0.2-139.4 -0.1-48.2 0-96.4-0.2-144.5 -0.1-27 0.5-54.3-1-81.3 -0.1-0.1-0.3-0.3-0.4-0.4 -0.3-0.3 0-0.7 0.4-0.6 0 0 0 0 0 0 0 0 0 0 0 0 0-0.4-0.6-0.4-0.7 0 -1.3 24.3-0.6 48.8-0.7 73.1 -0.1 23.9 0 47.9-0.1 71.8 -0.2 47.8-0.9 95.6-0.8 143.5 0 27 0 54-0.4 81 0 2.6 4.1 2.6 4.1 0 0-0.1 0-0.2 0-0.3 -0.6 0.2-1.1 0.4-1.6 0.4C406.6 389.2 406.5 388.9 406.4 388.8z" class="a"/><path d="M406.6 20.6c0.1 0.1 0.3 0.3 0.4 0.4 5.8 5.8 12.9 11.2 19.7 15.8 8 5.4 17.3 11 24.1 17.9 0.3 0.3 0.7 0.4 1 0.4 0.3 0 0.6-0.2 0.9-0.4 0.5-0.5 0.6-1.3 0-1.8 -7.1-6.2-15.1-11.6-22.9-16.8 -7-4.8-14.5-13.9-22.8-16 0 0 0 0 0 0C406.6 19.8 406.3 20.3 406.6 20.6z" class="a"/><path d="M450.9 353.4c-0.1 0.1-0.3 0.2-0.4 0.4 -2.8 4.3-7.2 6.6-11.2 9.6 -5.1 3.9-9.9 8-14.9 11.8 -3.5 2.7-6.6 5.9-10.5 8 -1.9 1-3.7 1.8-5.4 3 -0.6 0.5-1.2 1-1.8 1.6 -0.2 0.2-0.4 0.7-0.1 1 0.1 0.1 0.2 0.4 0.3 0.4 0.5 0 1-0.1 1.6-0.4 1.9-0.8 4.2-2.6 5.6-3.3 5-2.3 8.9-6.3 13.3-9.6 5.2-3.9 10-8.1 15.4-11.7 3.4-2.3 6.5-4.2 9-7.3 0.4-0.5 0.8-1.1 1.2-1.7C453.8 353.8 452 352.6 450.9 353.4z" class="a"/><path d="M446.7 185.7c0.1-12.1 0-24.3-0.3-36.4 -0.7-25.4-0.2-51.1-1.8-76.5 0-0.2-0.2-0.3-0.4-0.3 0 0.2-0.1 0.4-0.2 0.5 -1 16.4-0.3 32.8 0.1 49.2 0.5 0.1 0.9 0.1 1.4 0.2 0.4 0.1 0.4 0.8 0 0.9 -0.4 0.1-0.9 0.2-1.4 0.2 0.1 4 0.2 7.9 0.2 11.9 0.3-0.1 0.6-0.1 0.9-0.2 0.3-0.1 0.6 0.3 0.4 0.6 -0.3 0.7-0.8 1.2-1.3 1.6 0 3.1 0 6.1-0.1 9.2 -0.2 12.2-0.3 24.3-0.4 36.5 0 5.4-0.3 10.9-0.2 16.3 0.1 3.5 0.8 7.3 0 10.7 -0.1 0.3-0.1 0.5 0 0.7 0.5 0 1-0.1 1.4-0.1 0.6 0 0.7 0.7 0.3 1 -0.1 0.1-0.3 0.1-0.4 0.2 0.7 0.1 1.4-0.2 1.5-1 0.6-3 0.2-6.2 0.1-9.3C446.4 196.4 446.6 191 446.7 185.7z" class="a"/><path d="M417.9 66.4c0.1 0.5 0.1 1 0.1 1.5 5.2 2 10.9 2.1 16.3 3.3 2.7 0.6 6.4 3 9.2 2.2 0.1 0 0.2-0.1 0.3-0.2 0.1-0.1 0.2-0.3 0.2-0.5 0-0.1 0-0.1 0-0.2 0-0.1 0-0.4-0.2-0.4 -3.3-1-6.4-2.3-9.8-3 -5.3-1.1-10.8-1.4-15.9-3.2 -1-0.3-1.4 0.7-1.1 1.5 0-0.3 0.1-0.6 0.1-1C417.3 65.8 417.9 66 417.9 66.4z" class="a"/><path d="M418.6 217.2c0.7-0.3 1.2-0.5 1.8-0.6 -0.5-25.4-1.2-50.8-1.8-76.1 0-0.2 0-0.4 0-0.7 -0.4 0-0.8 0.1-1.2 0.1 -1.4 0.1-1.4-2.2 0-2.2 0.4 0 0.8-0.1 1.2-0.1 -0.1-3.8-0.1-7.6-0.1-11.4 -0.3 0-0.7 0-1 0 -1.5 0-1.5-2.3 0-2.4 0.3 0 0.7 0 1 0 0-6.7 0-13.4 0.1-20.2 0.1-5.9-0.1-11.7-0.3-17.5 -0.2-6 0.4-12.2-0.1-18.2 0-0.5-0.1-1-0.1-1.5 0-0.3-0.6-0.5-0.7-0.1 0 0.3-0.1 0.6-0.1 1 -1.5 11.3-0.6 22.6-0.8 34 -0.1 12.7-0.5 25.3-0.6 38 -0.2 26.1 0.7 52.2 1.1 78.3 0 1.2 1 1.7 1.9 1.7C418 218.8 417.6 217.7 418.6 217.2z" class="a"/><path d="M445.1 210.8c-0.5 0-1 0.1-1.4 0.1 -4.2 0.4-8.8 1.3-12.7 2.7 -2.5 0.9-4.7 2.1-7.3 2.5 -1.3 0.2-2.3 0.3-3.3 0.5 -0.6 0.1-1.1 0.3-1.8 0.6 -1 0.4-0.6 1.5 0.1 1.9 0.3 0.1 0.6 0.2 1 0 2-0.9 3.9-0.5 5.9-1.1 2.3-0.6 4.4-1.9 6.7-2.6 4.2-1.3 8.8-1.3 12.6-3.5 0.1-0.1 0.3-0.1 0.4-0.2C445.8 211.5 445.6 210.8 445.1 210.8z" class="a"/><path d="M418.4 243.5c0 0.3 0 0.6 0.1 0.9 0 0 0 0 0 0 5.4-1.7 10.9-1.6 16.2-3.7 3-1.2 6.3-2.5 9.6-2.7 0-0.1 0-0.2 0-0.3 0.1-0.6 0.7-0.9 1.1-0.8 -0.1-0.3-0.3-0.5-0.6-0.6 -2.9-0.8-6.3 0.7-9 1.6 -5.9 2.1-12 2.6-17.9 4.5 -0.9 0.3-0.8 1.3-0.3 1.7 0-0.3 0-0.5 0.1-0.8C417.8 243.1 418.4 243.1 418.4 243.5z" class="a"/><path d="M418.2 356.3c-0.1 0-0.1-0.1-0.2-0.1C418 356.2 418.1 356.2 418.2 356.3z" class="a"/><path d="M420.3 351.5c-0.2-17.6-0.4-35.1-0.7-52.7 -0.1-3.3-0.1-6.6-0.1-9.9 -0.2 0.1-0.3 0.2-0.5 0.3 -1.2 0.7-2.3-1.1-1.1-1.8 0.5-0.3 1.1-0.6 1.6-0.8 0-2.6 0-5.1 0-7.7 -0.2 0.1-0.4 0.1-0.6 0.2 -1.2 0.4-1.6-1.4-0.5-1.8 0.4-0.1 0.7-0.3 1.1-0.4 0-10.8-0.1-21.6-1.1-32.3 0-0.3 0-0.6-0.1-0.9 0-0.4-0.6-0.4-0.6 0 0 0.3 0 0.5-0.1 0.8 -1.6 18-0.5 36.4-0.3 54.5 0.2 18.6 0.4 37.1 0.2 55.7 0-0.1 0-0.1 0.1-0.2C418.4 353 419.3 352.1 420.3 351.5z" class="a"/><path d="M418.6 356.4c-0.1 0-0.2-0.1-0.3-0.1C418.4 356.4 418.5 356.4 418.6 356.4z" class="a"/><path d="M418.4 123.8c-0.3 0-0.7 0-1 0 -1.5 0-1.5 2.4 0 2.4 0.3 0 0.7 0 1 0 8.4-0.2 17.3-1 25.6-2.5 0.5-0.1 0.9-0.2 1.4-0.2 0.4-0.1 0.4-0.8 0-0.9 -0.5-0.1-0.9-0.1-1.4-0.2C435.6 121.4 426.8 123.6 418.4 123.8z" class="a"/><path d="M419.6 276.7c-0.4 0.1-0.7 0.3-1.1 0.4 -1.1 0.5-0.7 2.2 0.5 1.8 0.2-0.1 0.4-0.1 0.6-0.2 2.9-1 5.9-1.6 8.9-2.5 3.4-1 6.5-2.7 9.8-3.7 1.6-0.5 3.6-0.5 5-1.2 0-0.7 0-1.4 0-2 -3.2 1.2-6.6 1.7-9.8 3C428.9 274.1 424.1 275 419.6 276.7z" class="a"/><path d="M445.5 280.4c0.3-0.1 0.3-0.6 0-0.7 0 0 0 0-0.1 0 0 0.3 0 0.5 0 0.8C445.4 280.4 445.4 280.4 445.5 280.4z" class="a"/><path d="M434.7 281.5c-2.9 1.3-5.7 2.5-8.9 3.1 -2.3 0.4-4.3 0.9-6.2 1.8 -0.5 0.2-1 0.5-1.6 0.8 -1.2 0.7-0.1 2.5 1.1 1.8 0.2-0.1 0.3-0.2 0.5-0.3 4.1-2.1 8.7-2.1 13-3.8 2.7-1 5.1-2.4 8-3.2 1-0.3 1.9-0.4 2.8-0.7 0-0.7 0-1.4 0-2.2C440.4 278.8 437.3 280.3 434.7 281.5z" class="a"/><path d="M432.7 136.2c-4.8-0.2-9.4 1.1-14.2 1.4 -0.4 0-0.8 0.1-1.2 0.1 -1.4 0.1-1.4 2.3 0 2.2 0.4 0 0.8 0 1.2-0.1 6-0.4 11.7-1.5 17.7-1.1 2.6 0.2 5.9 0.4 8-1.2 0.5-0.4 1-0.9 1.3-1.6 0.2-0.3-0.1-0.6-0.4-0.6 -0.3 0.1-0.6 0.1-0.9 0.2C440.2 136.3 436.9 136.3 432.7 136.2z" class="a"/><path d="M445.4 279.7c-0.2-14-0.1-28 0.7-41.9 0-0.4-0.2-0.7-0.5-0.8 -0.5-0.1-1.1 0.1-1.1 0.8 0 0.1 0 0.2 0 0.3 -0.8 10.4-1.2 20.9-1.2 31.3 0 0.7 0 1.4 0 2 0 2.6 0 5.2 0.1 7.7 0 0.7 0 1.4 0 2.2 0 2.4 0.1 4.8 0.1 7.2 0.2 8.1 0.4 16.1 0.5 24.2 0 4.2 0 8.3-0.1 12.5 0 0.7-0.2 9.6 0.3 11.8 -0.5 0.2-0.8 0.6-0.7 1.2 0 0.1 0 0.2 0 0.3 0.4-0.1 0.8-0.2 1.3-0.2 0.2 0 0.3 0.1 0.3 0.3 0 0.5-0.1 1-0.3 1.5 0.1 0 0.3 0 0.4-0.1 0 0 0.1 0 0.2 0 0.6-0.2 1-0.7 1-1.3 0-19.4-0.7-38.9-1-58.3C445.4 280.2 445.4 279.9 445.4 279.7z" class="a"/><path d="M444.8 338.4c-0.5 0-0.9 0.1-1.3 0.2 -1.9 0.5-3.2 2-5.1 3.2 -2.8 1.8-5.7 3.3-8.5 5.2 -2.5 1.7-4.9 2.7-7.7 3.7 -0.7 0.2-1.3 0.5-1.8 0.8 -1.1 0.7-1.9 1.5-2.7 2.8 0 0.1-0.1 0.1-0.1 0.2 -0.3 0.7-0.1 1.3 0.4 1.7 0.1 0.1 0.1 0.1 0.2 0.1 0 0 0.1 0 0.1 0 0.1 0.1 0.2 0.1 0.3 0.1 0.6 0.2 1.3 0 1.7-0.7 1.6-2.6 4.9-2.5 7.3-3.7 2.7-1.4 5.1-3.4 7.8-4.9 2.7-1.6 8.2-3.6 9.5-7 0.2-0.5 0.3-1 0.3-1.5C445.1 338.5 445 338.4 444.8 338.4z" class="a"/><path d="M417 220.4c-0.5-1.3-1.8-2.9-3.4-1.9 -1.6 1-1.8 3.8-1.4 5.6 -0.7 3.3-0.3 7.3 0.3 10.4 0.2 1 0.5 2.7 1.6 3.2 1.2 0.6 2.1-0.5 2.5-1.5 1-2.2 1.1-4.8 1.2-7.2C418 226.2 418.1 223 417 220.4zM415 231.9c-0.1 0.8-0.2 1.5-0.4 2.3 -0.3-1.2-0.5-2.5-0.7-3.7 -0.2-1.7-0.3-3.5-0.2-5.3 0.3-0.1 0.5-0.3 0.6-0.7 0.2-0.9 0.2-1.7 0.4-2.6 0.2 0.5 0.4 1 0.4 1.3 0.1 0.9 0.2 1.9 0.2 2.8C415.4 228 415.3 230 415 231.9z" class="a"/><path d="M442.4 74.6c-0.8-0.5-1.7-0.6-2.6-0.5 -0.4 0-0.4 0.5-0.1 0.6 0.8 0.3 1.5 0.6 2.3 0.9C442.6 75.8 442.9 74.9 442.4 74.6z" class="a"/><path d="M440.3 76.4c0-0.2 0.3-0.3 0.4-0.1 0 0.1 0.1 0.3 0.1 0.4 0.6 0.3 1.2 0.6 1.8 0.5 0.2 0 0.2-0.2 0.2-0.4 -0.5-0.7-1.5-0.7-2.2-0.7 -0.2 0-0.2 0.2-0.2 0.3C440.3 76.5 440.3 76.5 440.3 76.4z" class="a"/><path d="M440.3 76.4c0 0 0 0 0 0.1 0.2 1 1 2.6 2.2 2.6 0.4 0 0.5-0.6 0.2-0.8 -0.4-0.2-0.8-0.3-1.2-0.5 -0.4-0.2-0.6-0.7-0.7-1.1 -0.1-0.1-0.1-0.3-0.1-0.4C440.6 76.1 440.3 76.2 440.3 76.4z" class="a"/><path d="M441.5 79.8c-0.6 0.3-0.3 1.2 0.3 1.2 0-0.1 0.1-0.1 0.1 0.1 0.6 0.7 1.5-0.2 1.2-0.9C442.8 79.5 442.1 79.6 441.5 79.8z" class="a"/><path d="M442.6 82.3c-0.2 0-0.6 0.2-0.7 0 -0.1-0.1-0.2 0-0.2 0.1 0 0.5 0.3 1 0.9 0.9C443.3 83.2 443.3 82.2 442.6 82.3z" class="a"/><path d="M441.7 328.5c0.4-0.1 0.8-0.2 1.1-0.4 0.5-0.3 0.3-1.2-0.3-1.2 -0.4 0-0.8 0.2-1.2 0.3C440.5 327.5 440.8 328.8 441.7 328.5z" class="a"/><path d="M440.7 330.7c0.8 0.2 1.7 0.2 2.3-0.4 0.4-0.4 0.1-1-0.5-1.1 -0.7-0.1-1.3 0.3-1.9 0.5C440.1 330 440.3 330.6 440.7 330.7z" class="a"/><path d="M442.1 332.3c0-0.1 0-0.3-0.2-0.3 -0.6-0.1-1.3 0.5-1.8 0.8 -0.1 0.1-0.1 0.3 0 0.3C440.7 333.2 441.9 333.1 442.1 332.3z" class="a"/><path d="M439.6 336.6c0.7-0.3 1.3-0.5 1.9-0.9 0.5-0.3 1.3-0.7 1.4-1.3 0-0.3-0.1-0.5-0.4-0.6 -0.6-0.1-1.1 0.5-1.5 0.9 -0.6 0.4-1.1 0.9-1.7 1.3C439 336.2 439.2 336.7 439.6 336.6z" class="a"/><path d="M442.7 336.6c-0.6 0.2-1.1 0.6-1.7 0.9 -0.6 0.3-1.2 0.6-1.7 1 -0.3 0.2-0.2 0.7 0.2 0.8 0.7 0 1.2-0.2 1.8-0.5 0.6-0.3 1.3-0.6 1.9-1.1C443.7 337.4 443.4 336.3 442.7 336.6z" class="a"/><path d="M351.4 40.1c0.5 0 1 0 1.4 0.2 1.1 0.6 1.1 2.5 0.2 3.4 -0.9 1-2.2 1.3-3.5 1.5 -6.9 1.4-13.8 2.9-20.7 4.3 -2.4 0.5-4.8 1-6.8 2.4 -3 2.1-4.6 5.7-5.5 9.4 -2.8 12.1 0.7 24.4 1.6 36.6 0.8 10.9-2.7 22.3-6.3 32.5 1-2.9-3.5-12.6-3.6-16.3 -0.2-5.5 0.9-11.1 0.5-16.7 -0.6-9.2-0.9-18.4-0.7-27.6 0.2-7.3-4.9-25.9 2.6-30.3 1.3-0.8 2.8-0.9 4.3-1C327.2 37.9 339.2 40 351.4 40.1z" class="c"/><path d="M409.8 75.5c-0.1-12.3-0.2-24.6-1-36.9 -0.3-4.6-0.7-9.4 1.2-13.6 8.9 6.5 17.3 13.6 25.1 21.4 -5.7-0.9-11.3-1.8-17-2.7 -0.8-0.1-1.7-0.2-2.4 0.2 -0.9 0.5-1.1 1.6-1.2 2.6C412.9 56.2 411.4 65.9 409.8 75.5z" class="c"/><path d="M421.7 157.3c-0.3-3.9-0.5-7.8-0.8-11.7 0-0.7-0.1-1.4 0.3-2 0.4-0.7 1.3-0.9 2.1-1.1 2.8-0.6 5.7-0.8 8.5-0.5 0.6 3.1-2.4 5.6-5 7.4 -2.6 1.8-5.3 4.9-4 7.7" class="c"/><path d="M421.8 257.6c-0.3-3.8 0-7.6 0.7-11.3 2.4-0.6 4.8-1.2 7.2-1.8 0.8-0.2 1.7-0.4 2.5 0 1.4 0.7 1.4 2.8 0.4 4 -1 1.2-2.5 1.8-3.9 2.6 -3.2 1.8-5.6 4.9-6.6 8.5" class="c"/><path d="M424 309.7c-2-5.7-2.7-11.9-2.2-17.9 1.7 0 3-1.2 4.5-2.1 1.4-0.9 3.6-1.2 4.5 0.1 0.5 0.8 0.5 1.8 0.3 2.7 -1 5.7-5.1 10.7-5.6 16.5 -0.1 1 1 2.3 1.5 1.4" class="c"/><path d="M417 362.5c-0.1-6-2.2-11.9-5.9-16.6 0.6 11.4 1.1 22.8 1.7 34.3 5.9-3.2 11.3-7.5 15.7-12.7 -2.8-1.2-5.8 0.9-7.9 3 -0.5 0.5-1.2 1.1-1.9 0.8 -0.4-0.1-0.6-0.5-0.8-0.9C416.8 368 417.1 365.2 417 362.5z" class="c"/><path d="M421.2 83c-0.3-0.5-0.7-1.4-1.1-2.8 -0.9-3.4-1-8.1-0.8-11.6 4.4 0.8 8.8 2.1 12.9 3.9 0.9 0.4 1.9 1.1 1.7 2 -3-0.2-5.8 1.4-7.7 3.7C423.9 80.9 422.6 85.1 421.2 83z" class="c"/></svg>