<svg version="1.1" xmlns="http://www.w3.org/2000/svg"   viewBox="0 0 768 430" enable-background="new 0 0 768 430" xml:space="preserve"><polyline fill="#F5F7F1" points="406.1 325 397.1 325 397.1 326.3 370.3 326.3 370.3 325 363.8 325 363.8 348.3 406.1 348.3 406.1 325 "/><polyline fill="#F5F7F1" points="397.1 106.1 370.3 106.1 370.3 325 397.1 325 397.1 106.1 "/><polyline fill="#EEF1E7" points="397.1 325 370.3 325 370.3 326.3 397.1 326.3 397.1 325 "/><path fill="#DDE4D0" d="M240.4 318c5.1-7.4 19.5-9.9 26.5-4.3 6.1 4.8 1.9 23.1 1.9 23.1l-24.1 1.9C244.7 338.8 236.4 323.8 240.4 318L240.4 318zM528 317.5c-5.1-7.4-19.5-9.9-26.5-4.3 -6.1 4.8-1.9 23.1-1.9 23.1l24.1 1.9C523.7 338.3 532 323.4 528 317.5zM341.7 96.8c0 0-28.7 2.4-41.8 7.8 -6.6 2.7-12.5 7.1-17.7 11.9 -9.4 8.7-17.2 19.2-23.7 30.2 -4.6 8-7.5 16.9-10.5 25.6 -2.3 6.7-3.8 13.6-5.8 20.4 -3 9.8-7.8 19.1-9.4 29.3 -4.5 28.8-7.9 59.4 0.1 87.4 1 3.4 5.6 9 5.6 9l28.9-3.4c0 0 2.1-4.8 2.7-7.4 4.9-24.3 1-49.7 4-74.2 1.3-10.1 3.5-20 5.9-29.9 3.6-14.6 5.2-30.4 12.9-43.4 1.8-3 7.4-7.4 7.4-7.4l1.4 7.1 0 0c0 0-7 89.2-5.8 133.8 0.2 7.7-1.5 16.2 2.2 22.9 2.7 4.8 13.2 10 13.2 10l65.7-0.5 -6.8-220.2L341.7 96.8zM535.3 221.9c-1.6-10.1-6.4-19.5-9.4-29.3 -2.1-6.8-3.5-13.7-5.8-20.4 -3-8.7-5.9-17.7-10.5-25.6 -6.4-11.1-14.3-21.5-23.7-30.2 -5.2-4.8-11.1-9.2-17.7-11.9 -13.1-5.4-41.8-7.8-41.8-7.8l-22.1 6.8 21.8-7.5 -0.7-5.2 -2.2-6.1 -4.2-3.5 -18.3 0.2 -3.2 24.6 0.3-0.1 -6.7 219.9 65.7 0.5c0 0 10.5-5.1 13.2-10 3.8-6.7 2-15.2 2.2-22.9 1.2-44.6-5.8-133.8-5.8-133.8v0l1.4-7.1 7.4 7.4c0 0 9.3 28.7 12.9 43.4 2.4 9.9 4.7 19.8 5.9 29.9 3.1 24.6-0.9 50 4 74.2 0.5 2.6 2.7 7.4 2.7 7.4l28.9 3.4c0 0 4.6-5.6 5.6-9C543.2 281.3 539.8 250.6 535.3 221.9z"/><polygon fill="#DDE4D0" points="367.7 81.2 349.4 81 345.2 84.5 343 90.6 342.3 95.8 371 105.7 "/><rect x="312.7" y="326.7" fill="#DDE4D0" width="64.6" height="21.7"/><rect x="390.7" y="326.6" fill="#DDE4D0" width="66" height="21.6"/></svg>