<svg version="1.1" id="Layer_1" xmlns="http://www.w3.org/2000/svg" xmlns:xlink="http://www.w3.org/1999/xlink" viewBox="0 0 768 430" xml:space="preserve">
<polyline fill="#F5F7F1" points="406.1,293 397.1,293 397.1,294.3 370.3,294.3 370.3,293 363.8,293 363.8,316.3 406.1,316.3 
	406.1,293 "/>
<polyline fill="#F5F7F1" points="397.1,74.1 370.3,74.1 370.3,293 397.1,293 397.1,74.1 "/>
<polyline fill="#EEF1E7" points="397.1,293 370.3,293 370.3,294.3 397.1,294.3 397.1,293 "/>
<path fill="#DDE4D0" d="M240.4,286c5.1-7.4,19.5-9.9,26.5-4.3c6.1,4.8,1.9,23.1,1.9,23.1l-24.1,1.9
	C244.7,306.8,236.4,291.8,240.4,286L240.4,286z M528,285.5c-5.1-7.4-19.5-9.9-26.5-4.3c-6.1,4.8-1.9,23.1-1.9,23.1l24.101,1.9
	C523.7,306.3,532,291.4,528,285.5z M341.7,64.8c0,0-28.7,2.4-41.8,7.8c-6.6,2.7-12.5,7.1-17.7,11.9c-9.4,8.7-17.2,19.2-23.7,30.2
	c-4.6,8-7.5,16.9-10.5,25.6c-2.3,6.7-3.8,13.6-5.8,20.4c-3,9.8-7.8,19.1-9.4,29.3c-4.5,28.8-7.9,59.4,0.1,87.4c1,3.399,5.6,9,5.6,9
	l28.9-3.4c0,0,2.1-4.8,2.7-7.4c4.9-24.3,1-49.699,4-74.199c1.3-10.101,3.5-20,5.9-29.9c3.6-14.6,5.2-30.4,12.9-43.4
	c1.8-3,7.4-7.4,7.4-7.4l1.4,7.1l0,0c0,0-7,89.2-5.8,133.8c0.2,7.7-1.5,16.2,2.2,22.9c2.7,4.8,13.2,10,13.2,10L377,294l-6.8-220.2
	L341.7,64.8z M535.3,189.9c-1.6-10.101-6.399-19.5-9.399-29.3c-2.101-6.8-3.5-13.7-5.801-20.4c-3-8.7-5.899-17.7-10.5-25.6
	c-6.399-11.1-14.3-21.5-23.699-30.2c-5.2-4.8-11.101-9.2-17.7-11.9c-13.101-5.4-41.8-7.8-41.8-7.8L404.3,71.5l21.8-7.5l-0.699-5.2
	l-2.2-6.1l-4.2-3.5l-18.301,0.2L397.5,74l0.3-0.1l-6.7,219.9l65.7,0.5c0,0,10.5-5.1,13.2-10c3.8-6.7,2-15.2,2.2-22.899
	c1.2-44.601-5.8-133.8-5.8-133.8l0,0l1.399-7.1l7.4,7.4c0,0,9.3,28.7,12.899,43.4c2.4,9.9,4.7,19.8,5.9,29.9c3.1,24.6-0.9,50,4,74.2
	c0.5,2.6,2.7,7.399,2.7,7.399l28.899,3.4c0,0,4.601-5.601,5.601-9C543.2,249.3,539.8,218.6,535.3,189.9z"/>
<polygon fill="#DDE4D0" points="367.7,49.2 349.4,49 345.2,52.5 343,58.6 342.3,63.8 371,73.7 "/>
<rect x="312.7" y="294.7" fill="#DDE4D0" width="64.6" height="21.7"/>
<rect x="390.7" y="294.6" fill="#DDE4D0" width="66" height="21.601"/>
</svg>
