<svg xmlns="http://www.w3.org/2000/svg" viewBox="0 0 768 430"><style>.a{fill:#465769;}.b{fill:#596F85;}.c{fill:#9CA8B5;}.d{fill:#D7D7D7;}</style><polygon points="472.5 399.7 327.8 399.5 327.8 386.3 472.6 386.5 " class="a"/><path d="M471.4 261.9c1.6-14.2 0.4-24.7 0.4-24.7l18.5-70c0 0-60.5-40.8-91.1-40.8 -30.6 0-91.1 40.8-91.1 40.8l18.5 70c0 0-1.2 10.5 0.4 24.7 -2.3 8.1-5.2 28.6-0.6 41.2 -8.6 22.8-5.3 85.6-5.3 85.6h78.2 76.4c0 0 5.1-62.8-3.5-85.6C476.6 290.5 473.7 270 471.4 261.9z" class="b"/><rect x="260.1" y="370.9" transform="matrix(0.9913 0.132 -0.132 0.9913 52.246 -33.2747)" width="34.1" height="13.2" class="a"/><rect x="503.9" y="370.9" transform="matrix(-0.9913 0.132 -0.132 -0.9913 1087.2207 682.955)" width="34.1" height="13.2" class="a"/><polygon points="393.6 221.5 399.1 228.1 404.8 221.5 404.8 400.1 393.6 400.1 " class="c"/><path d="M308 167.1c-9.2 7.9-28.6 44.4-26.5 71.8 -10.4 7.7-13.3 32.3-9.3 44.1 -6.8 3.8-11.8 32.9-8 44.6 -8.9 12.8-6.5 42-6.5 42l40.2 5.7c0 0 12.7-19.8 9.3-42.9 4.8-6.6 11.5-32.8 9-41.5 4.9-8 10.4-30.7 8.1-37.4 3.7-11.4 3.3-15.3 3.3-15.3S334.1 198.6 308 167.1z" class="b"/><path d="M264.9 329.4c7 5.2 28.7 10.6 40 4.8C297.7 346.7 273.3 344.2 264.9 329.4z" class="d"/><path d="M363.6 200.1h-31.4v38.5c0 4.9 4 8.9 8.8 8.9h2.7 22.6c4.9 0 8.9-4 8.9-8.9v-38.5H363.6z" class="c"/><polygon points="355.9 197.5 330.6 197.5 330.6 202.7 355.9 202.7 376.7 202.7 376.7 197.5 " class="c"/><polygon points="355.9 201.2 330.6 201.2 330.6 202.7 355.9 202.7 376.7 202.7 376.7 201.2 " class="d"/><polygon points="332.1 211.3 332.1 216.4 353.7 233.2 375.3 216.4 375.3 211.3 354.6 203.7 " class="d"/><polygon points="355.9 202.7 330.6 202.7 330.6 210.3 353.7 226.3 376.7 210.3 376.7 202.7 " class="c"/><path d="M434.8 200.1h31.4v38.5c0 4.9-4 8.9-8.9 8.9h-2.7 -22.6c-4.9 0-8.8-4-8.8-8.9v-38.5H434.8z" class="c"/><polygon points="442.5 197.5 467.8 197.5 467.8 202.7 442.5 202.7 421.7 202.7 421.7 197.5 " class="c"/><polygon points="442.5 201.2 467.8 201.2 467.8 202.7 442.5 202.7 421.7 202.7 421.7 201.2 " class="d"/><polygon points="466.3 211.3 466.3 216.4 444.7 233.2 423.1 216.4 423.1 211.3 443.8 203.7 " class="d"/><polygon points="442.5 202.7 467.8 202.7 467.8 210.3 444.7 226.3 421.7 210.3 421.7 202.7 " class="c"/><path d="M273.4 284.1c7 5.6 29 12.2 41 7.1C306.2 303.2 281.2 299.4 273.4 284.1z" class="d"/><path d="M341.1 147.4l58 80.6 57.8-80.8c-19.1-10.3-42.2-20.8-57.7-20.8C383.6 126.4 360.2 137 341.1 147.4z" class="a"/><path d="M313.3 170l78.9 52.5 -45.4-78.1c-12.5 6.5-21.5 11.9-28.6 16.4L313.3 170z" class="d"/><path d="M282.7 239.7c5.9 6.7 27.4 16.9 40.1 14C311.7 263.1 287.7 256.2 282.7 239.7z" class="d"/><path d="M399.1 104.6c-12.7 1-26.5 2.9-45.5 17.2 -29.1 21.8-31.7 43.5-31.7 43.5l77.3 62.8 -38.6-78.9C360.4 149.1 367.5 117.4 399.1 104.6z" class="c"/><path d="M317.9 343.5v33.2h14c3.2 0 5.9-2.7 5.9-5.9v-27.3H317.9z" class="c"/><path d="M315.9 321.7v22.9h21.9c3.2 0 5.9-2.7 5.9-5.9v-17H315.9z" class="c"/><path d="M328.2 263.8c8.4 5.1 33 9.2 51 5.9C364.4 275.4 342.7 277 328.2 263.8z" class="d"/><path d="M328.3 303.3c8.2 5.4 32.7 10.3 50.8 7.5C363.5 315.8 340.3 315.8 328.3 303.3z" class="d"/><path d="M420 60.4c0 0-12.5-4.4-21.4-4.4 -9 0-21.4 4.4-21.4 4.4l-49.7 59.9h68.1 5.9 68.1L420 60.4z" class="b"/><path d="M490.4 167.1c9.2 7.9 28.6 44.4 26.5 71.8 10.4 7.7 13.3 32.3 9.3 44.1 6.8 3.8 11.8 32.9 8 44.6 8.9 12.8 6.5 42 6.5 42l-40.2 5.7c0 0-12.7-19.8-9.3-42.9 -4.8-6.6-11.5-32.8-9-41.5 -4.9-8-10.4-30.7-8.1-37.4 -3.7-11.4-3.3-15.3-3.3-15.3S464.2 198.6 490.4 167.1z" class="b"/><path d="M533.4 329.4c-7 5.2-28.7 10.6-40 4.8C500.7 346.7 525.1 344.2 533.4 329.4z" class="d"/><path d="M525 284.1c-7 5.6-29 12.2-41 7.1C492.2 303.2 517.2 299.4 525 284.1z" class="d"/><path d="M485 170l-78.9 52.5 45.4-78.1c12.5 6.5 21.5 11.9 28.6 16.4L485 170z" class="d"/><path d="M515.7 239.7c-5.9 6.7-27.4 16.9-40.1 14C486.7 263.1 510.7 256.2 515.7 239.7z" class="d"/><path d="M399.3 104.6c12.7 1 26.5 2.9 45.5 17.2 29.1 21.8 31.7 43.5 31.7 43.5l-77.5 62.8 38.9-78.9C437.9 149.1 430.8 117.4 399.3 104.6z" class="c"/><path d="M479.4 343.5v33.2h-14c-3.2 0-5.9-2.7-5.9-5.9v-27.3H479.4z" class="c"/><path d="M481.4 321.7v22.9h-21.9c-3.2 0-5.9-2.7-5.9-5.9v-17H481.4z" class="c"/><path d="M470.2 263.8c-8.4 5.1-33 9.2-51 5.9C433.3 276.9 456.1 277.4 470.2 263.8z" class="d"/><path d="M470.1 303.3c-8.2 5.4-32.7 10.3-50.8 7.5C434.9 316.6 456.1 315.8 470.1 303.3z" class="d"/><rect x="383.4" y="128.9" width="30.9" height="25" fill="#5A6875"/><path d="M474.1 157c-3.4-8.3-11.2-21.7-29.3-35.3 -19.1-14.3-72.2-14.3-91.3 0 -18 13.5-25.9 27-29.3 35.3 -1.4 0.8-2.6 1.6-3.9 2.4 6.2 2.3 13.7 1.2 20.1-2.6 36.4-22 80.4-22 116.7 0 6.5 3.9 14.3 4.9 20.5 2.4C476.6 158.5 475.4 157.8 474.1 157z" class="d"/><path d="M484.9 146.9c-6.2 8.5-18.4 8.9-27.9 3.2 -36.4-22-80.4-22-116.7 0 -9.5 5.7-21.7 5.2-27.9-3.2 -6.2-8.4-1.7-24 11.1-31.8 46.8-28.4 103.5-28.4 150.3 0C486.6 122.8 491.1 138.5 484.9 146.9z" fill="#A89B7B"/><rect x="317.9" y="344.6" width="20" height="4.2" class="d"/><rect x="459.5" y="344.6" width="20" height="4.2" class="d"/></svg>