<svg version="1.1" id="Layer_1" xmlns="http://www.w3.org/2000/svg" viewBox="0 0 768 430" enable-background="new 0 0 768 430" xml:space="preserve">
<g>
	<g>
		<g>
			<linearGradient id="SVGID_1_" gradientUnits="userSpaceOnUse" x1="347.707" y1="295.6855" x2="484.353" y2="295.6855">
				<stop  offset="0" style="stop-color:#FFD383"/>
				<stop  offset="0.5937" style="stop-color:#FFB872"/>
				<stop  offset="1" style="stop-color:#FFA364"/>
			</linearGradient>
			<path fill="url(#SVGID_1_)" d="M436.27,297.592c0.082-3.354,0.206-5.869,0.206-5.869h-21.997h-0.576h-21.996
				c0,0,0.177,3.596,0.248,7.926c4.727-0.783,36.133-5.98,36.715-5.98C429.197,293.668,432.854,295.676,436.27,297.592z"/>
			<linearGradient id="SVGID_2_" gradientUnits="userSpaceOnUse" x1="347.7065" y1="335.7148" x2="484.3525" y2="335.7148">
				<stop  offset="0" style="stop-color:#FFD383"/>
				<stop  offset="0.5937" style="stop-color:#FFB872"/>
				<stop  offset="1" style="stop-color:#FFA364"/>
			</linearGradient>
			<path fill="url(#SVGID_2_)" d="M489.225,343.396c-2.422-8.073-11.842-9.688-11.842-9.688s-25.412-7.531-29.335-9.688
				c-0.758-0.417-1.588-0.93-2.433-1.483c-0.014,1.231-0.184,1.99-0.6,1.96c-16.086-1.163-48.092-21.298-52.854-24.347
				c0.077,5.326-0.017,11.574-0.793,13.643c-1.439,3.837-7.112,8.07-11.034,10.228s-29.335,9.688-29.335,9.688
				s-9.419,1.615-11.842,9.688c-2.422,8.073-9.692,26.472-8.881,27.45c0.412,0.498,42.522,0.49,83.915,0.362
				c41.393,0.128,83.502,0.136,83.914-0.362C498.917,369.867,491.646,351.469,489.225,343.396z"/>
			<path opacity="0.8" fill="#EF843C" d="M391.541,299.75c0,0,0.229,0.148,0.62,0.398c-0.003-0.166-0.004-0.336-0.007-0.5
				C391.771,299.711,391.541,299.75,391.541,299.75z"/>
			<linearGradient id="SVGID_3_" gradientUnits="userSpaceOnUse" x1="347.7056" y1="309.082" x2="484.3539" y2="309.082">
				<stop  offset="0" style="stop-color:#FFD383"/>
				<stop  offset="0.5937" style="stop-color:#FFB872"/>
				<stop  offset="1" style="stop-color:#FFA364"/>
			</linearGradient>
			<path fill="url(#SVGID_3_)" d="M445.615,322.535c-3.53-2.312-7.44-5.648-8.602-8.744c-0.905-2.412-0.885-10.514-0.744-16.199
				c-3.415-1.916-7.072-3.924-7.4-3.924c-0.582,0-31.988,5.197-36.715,5.98c0.003,0.164,0.004,0.334,0.007,0.5
				c4.763,3.049,36.769,23.184,52.854,24.347C445.432,324.525,445.602,323.767,445.615,322.535z"/>
			<path opacity="0.5" fill="#EF843C" d="M445.615,322.535c-3.53-2.312-7.44-5.648-8.602-8.744
				c-0.905-2.412-0.885-10.514-0.744-16.199c-3.415-1.916-7.072-3.924-7.4-3.924c-0.582,0-31.988,5.197-36.715,5.98
				c0.003,0.164,0.004,0.334,0.007,0.5c4.763,3.049,36.769,23.184,52.854,24.347C445.432,324.525,445.602,323.767,445.615,322.535z"
				/>
		</g>
		<g>
			<g>
				<path fill="#FFBC64" d="M481.459,204.315c0,0,8.462-21.101,16.411-10.093c7.949,11.01-4.359,35.78-6.411,37.004
					c-2.051,1.223-8.205-4.588-8.205-4.588L481.459,204.315z"/>
				<path fill="#FFBC64" d="M348.111,206.674c0,0-8.462-21.1-16.411-10.092c-7.949,11.01,4.359,35.779,6.411,37.003
					s8.206-4.587,8.206-4.587L348.111,206.674z"/>
			</g>
			<linearGradient id="SVGID_4_" gradientUnits="userSpaceOnUse" x1="414.7549" y1="115.0796" x2="414.7549" y2="307.0421">
				<stop  offset="0" style="stop-color:#FFD383"/>
				<stop  offset="0.3124" style="stop-color:#FFCD7E"/>
				<stop  offset="0.7407" style="stop-color:#FFBB70"/>
				<stop  offset="1" style="stop-color:#FFAD64"/>
			</linearGradient>
			<path fill="url(#SVGID_4_)" d="M414.92,114.533v-0.004c-0.055,0-0.11,0.003-0.165,0.002c-0.055,0.001-0.11-0.002-0.165-0.002
				v0.004c-37.719-0.103-76.756,23.951-75.231,65.502c0.195,5.32,4.336,80.693,9.928,89.78c6.089,9.896,38.565,34.394,65.303,35.561
				v0.029c0.055-0.002,0.11-0.013,0.165-0.015c0.055,0.002,0.11,0.013,0.165,0.015v-0.029c26.737-1.167,59.213-25.665,65.303-35.561
				c5.592-9.087,9.732-84.46,9.928-89.78C491.676,138.484,452.639,114.431,414.92,114.533z"/>
			<path opacity="0.2" fill="#F39200" d="M437.418,117.361c19.509,11.871,33.454,32.354,32.531,59.863
				c-0.088,2.593,8.097,30.676-1.534,43.547c4.468,5.713-5.294,49.152-8.394,54.664c-3.676,6.533-16.986,18.865-32.826,27.914
				c23.569-6.223,47.795-25.126,52.969-33.534c5.592-9.087,9.733-84.46,9.929-89.78
				C491.311,146.835,466.628,124.822,437.418,117.361z"/>
			<path opacity="0.1" fill="#FFFFFF" d="M366.963,282.191c-7.374-5.391-12.885-10.662-14.968-14.044
				c-4.498-7.31-8.897-72.9-9.457-88.229c-0.722-19.646,8.274-36.666,24.737-48.065c-9.687,12.631-14.569,28.153-13.999,45.246
				c0.029,0.87,4.025,89.063,10.329,100.352C364.41,278.889,365.548,280.487,366.963,282.191z"/>
			
				<radialGradient id="SVGID_5_" cx="407.749" cy="10405.7891" r="40.272" gradientTransform="matrix(1 0 0 0.4476 0 -4406.2217)" gradientUnits="userSpaceOnUse">
				<stop  offset="0" style="stop-color:#FFFFFF"/>
				<stop  offset="0.0175" style="stop-color:#FFFDFA"/>
				<stop  offset="0.1726" style="stop-color:#FFE9D0"/>
				<stop  offset="0.3312" style="stop-color:#FFD9AE"/>
				<stop  offset="0.4917" style="stop-color:#FFCD93"/>
				<stop  offset="0.6547" style="stop-color:#FFC480"/>
				<stop  offset="0.822" style="stop-color:#FFBF75"/>
				<stop  offset="1" style="stop-color:#FFBD71"/>
			</radialGradient>
			<path opacity="0.31" fill="url(#SVGID_5_)" d="M397.383,250.279c12.25,4.262,36.062,0.95,37.647-0.984
				c-0.26-7.091-7.121-17.723-7.738-21.058c0,0-19.265-2.47-22.353,0C403.581,234.535,397.383,244.773,397.383,250.279z"/>
			<path fill="#EA9D49" d="M435.059,249.147c-3.156,0.763-17.646,4.227-37.676,1.132c-0.149,0.799,8.082,5.988,18.036,7.471
				C420.229,258.883,435.91,250.041,435.059,249.147z"/>
			<path opacity="0.3" fill="#DD9544" d="M427.874,250.537c1.441-0.745-1.242-20.574-0.845-20.972
				c2.783,6.56,6.361,8.399,8.029,19.582C432.623,250.092,430.11,250.339,427.874,250.537z"/>
		</g>
	</g>
	<linearGradient id="SVGID_6_" gradientUnits="userSpaceOnUse" x1="376.2383" y1="99.582" x2="413.1664" y2="207.4846">
		<stop  offset="0" style="stop-color:#915418"/>
		<stop  offset="1" style="stop-color:#683C11"/>
	</linearGradient>
	<path opacity="0.2" fill="url(#SVGID_6_)" d="M470.925,160.598c-4.13-0.873-35.903,11.584-54.41,11.584
		c-0.405,0-13.735-0.828-19.158-1.938c-27.564-3.438-38.714-4.596-43.443-5.726c-2.393,3.127-4.33,7.146-4.69,8.365
		c-0.589,1.988,2.449,15.206,2.457,18.605c0.008,3.398-5.204,36.614-6.16,37.394c-0.306,0.249-2.208-0.068-2.725-0.111
		c0.051,0.576-0.053-0.276,0,0.298c1.012,0.474,4.144,0.918,4.721,0.447c0.955-0.778,5.762-32.508,5.754-35.908
		c-0.008-3.396-3.045-16.615-2.457-18.604c0.36-1.22,2.297-5.239,4.69-8.365c4.729,1.129,15.878,2.287,43.443,5.726
		c5.423,1.108,18.752,1.938,19.157,1.938c18.508,0,50.281-12.459,54.411-11.584c1.377,0.29,2.821,1.542,4.162,3.143
		C474.953,163.324,472.871,161.009,470.925,160.598z"/>
</g>
<g>

	<path fill="#3A3A3A" d="M424.681,209.508c0,0,23.915-5.98,47.966-7.049c5.25-2.51-28.777-3.732-32.805-2.723
		C435.812,200.745,428.19,204.809,424.681,209.508z"/>
	<path fill="#3A3A3A" d="M405.264,209.288c0,0-23.41-7.72-47.318-10.554c-5.052-2.888,28.974-1.607,32.917-0.306
		C394.805,199.731,402.109,204.344,405.264,209.288z"/>
	<path opacity="0.8" fill="#EF843C" d="M408.045,283.105c2.115-0.668,11.823-3.721,25.754-5.209
		c0.051-0.295-5.927-1.042-12.846-0.283C417.582,277.836,407.403,282.904,408.045,283.105z"/>
	<g>
		<g>
			<path fill="#3C3C3B" d="M363.272,221.833c-0.885-1.942-0.11-3.732,1.364-5.55c1.474-1.816,11.952-9.131,23.391-3.547
				s10.724,10.861,10.724,10.861S383.15,233.487,363.272,221.833z"/>
			<path fill="#FFFFFF" d="M364.183,222.76c-0.687-0.352-1.229-1.033-1.279-1.805c-0.083-1.293,0.629-2.533,1.732-3.785
				c1.474-1.674,11.952-8.412,23.391-3.268c11.438,5.144,10.724,10.004,10.724,10.004S383.625,232.738,364.183,222.76z"/>
			<radialGradient id="SVGID_7_" cx="375.9482" cy="219.5908" r="7.0967" gradientUnits="userSpaceOnUse">
				<stop  offset="0.5027" style="stop-color:#683C11"/>
				<stop  offset="0.603" style="stop-color:#7D4C0A"/>
				<stop  offset="0.7195" style="stop-color:#8F5A04"/>
				<stop  offset="0.8461" style="stop-color:#996101"/>
				<stop  offset="1" style="stop-color:#9C6400"/>
			</radialGradient>
			<circle fill="url(#SVGID_7_)" cx="375.948" cy="219.59" r="7.097"/>
			<circle fill="#1D1D1B" cx="375.92" cy="219.665" r="4.046"/>
			<circle fill="#FFFFFF" cx="379.597" cy="216.584" r="2.791"/>
		</g>
	</g>
	<g>
		<g>
			<path fill="#3C3C3B" d="M463.785,221.833c0.885-1.942,0.109-3.732-1.364-5.55c-1.474-1.816-11.952-9.131-23.39-3.547
				c-11.439,5.584-10.725,10.861-10.725,10.861S443.906,233.487,463.785,221.833z"/>
			<path fill="#FFFFFF" d="M462.404,222.999c1.295-0.647,2.018-2.196,1.503-3.548c-0.292-0.766-0.817-1.521-1.486-2.281
				c-1.474-1.674-11.952-8.412-23.39-3.268c-11.439,5.144-10.725,10.004-10.725,10.004S443.189,232.597,462.404,222.999z"/>
			
				<radialGradient id="SVGID_8_" cx="99.8242" cy="219.5908" r="7.0967" gradientTransform="matrix(-1 0 0 1 542.834 0)" gradientUnits="userSpaceOnUse">
				<stop  offset="0.5027" style="stop-color:#683C11"/>
				<stop  offset="0.603" style="stop-color:#7D4C0A"/>
				<stop  offset="0.7195" style="stop-color:#8F5A04"/>
				<stop  offset="0.8461" style="stop-color:#996101"/>
				<stop  offset="1" style="stop-color:#9C6400"/>
			</radialGradient>
			<circle fill="url(#SVGID_8_)" cx="443.01" cy="219.59" r="7.097"/>
			<circle fill="#1D1D1B" cx="443.038" cy="219.665" r="4.046"/>
			<circle fill="#FFFFFF" cx="446.497" cy="216.426" r="2.791"/>
		</g>
	</g>
	<path fill="#EF843C" d="M417.832,272.596c8.188-1.623,15.704-1.934,20.81-1.109c-3.503-2.453-11.886-3.057-21.267-1.199
		c-9.379,1.857-16.9,5.61-19.204,9.213C402.577,276.793,409.645,274.217,417.832,272.596z"/>
</g>
<linearGradient id="SVGID_9_" gradientUnits="userSpaceOnUse" x1="327.7573" y1="349.6885" x2="502" y2="349.6885">
	<stop  offset="0" style="stop-color:#5B777F"/>
	<stop  offset="0.2924" style="stop-color:#57767F"/>
	<stop  offset="0.5533" style="stop-color:#4D727F"/>
	<stop  offset="0.8013" style="stop-color:#3A6B7F"/>
	<stop  offset="1" style="stop-color:#26647F"/>
</linearGradient>
<path fill="url(#SVGID_9_)" d="M502,370.219c-0.27-2.21-1.656-6.273-4.885-15.347c-1.598-4.487-3.248-9.128-4.155-12.153
	c-2.765-9.212-12.505-11.54-14.136-11.867c-9.715-2.883-25.931-7.939-28.555-9.383c-1.283-0.706-2.645-1.592-3.939-2.547
	c-6.35,8.594-17.787,14.35-30.886,14.35c-13.376,0-25.028-5.998-31.289-14.895c-1.5,1.168-3.142,2.254-4.667,3.093
	c-2.624,1.442-18.838,6.499-28.554,9.382c-1.629,0.327-11.373,2.655-14.135,11.867c-0.907,3.022-2.556,7.658-4.153,12.143
	c-3.232,9.082-4.619,13.146-4.889,15.357h0.081c-0.001,0.029-0.017,0.059-0.017,0.088c0,5.907,38.99,10.693,87.089,10.693
	S502,376.214,502,370.307c0-0.029-0.016-0.059-0.018-0.088H502z"/>
<linearGradient id="SVGID_10_" gradientUnits="userSpaceOnUse" x1="384.3345" y1="82.9028" x2="424.3243" y2="199.7514">
	<stop  offset="0" style="stop-color:#915418"/>
	<stop  offset="1" style="stop-color:#683C11"/>
</linearGradient>
<path fill="url(#SVGID_10_)" d="M491.594,130.9c-37.902-30.48-96.213-43.468-98.598-42.275c-2.386,1.193,1.192,9.344,1.192,9.344
	s-28.228-9.74-29.818-9.344c-1.59,0.398,8.945,12.127,8.945,12.127s-25.342-5.652-27.083-4.516
	c-1.741,1.136,9.987,11.075,9.987,11.075s-21.791-4.026-38.001,4.417c-0.267,0.811,21.501,5.324,21.501,5.324
	s-22.97,11.205-27.513,17.521c0.32,0.394,25.525-2.612,25.525-2.612s-14.212,10.305-14.471,13.523
	c4.687,2.724,8.724,10.656,10.949,12.477c-0.039,0.215-0.063,0.472-0.093,0.715c-0.716,6.021,1.159,20.664,2.834,34.938
	c0.588,0.039,0.997,0.123,1.37,0.245c0.606,0.196,1.089,0.521,1.876,1.115c0.023,0.36,0.048,0.753,0.073,1.121
	c0.587,9.21,1.441,21.181,2.503,32.874c0.477,0.225,0.979,0.355,1.438,0.395c0.518,0.044,0.981-0.033,1.288-0.282
	c0.955-0.78,6.167-33.995,6.159-37.394c-0.007-3.4-3.045-16.617-2.457-18.605c0.36-1.219,2.297-5.238,4.69-8.366
	c4.729,1.131,15.878,2.288,43.443,5.726c5.423,1.111,18.753,1.938,19.158,1.938c18.507,0,50.28-12.456,54.409-11.584
	c1.947,0.411,4.029,2.728,5.753,5.265c2.676,3.197,4.923,7.818,5.315,9.143c0.588,1.988-2.448,15.206-2.456,18.604
	c-0.008,2.957,3.934,28.465,5.589,35.569c0.468,0.007,0.997-0.1,1.512-0.31c1.213-12.924,2.174-26.498,2.803-36.477
	c1.347-1.014,1.594-1.015,2.588-1.213c1.171-10.305,2.85-20.602,3.355-27.445C495.966,162.39,498.49,141.086,491.594,130.9z"/>
</svg>
