<svg xmlns="http://www.w3.org/2000/svg" viewBox="0 0 768 430"><style>.a{fill:#FCEE21;}.b{fill:#FFF453;opacity:0.3;}.c{fill:#FFF453;opacity:0.2;}.d{fill:#FFF453;}.e{fill:#FFE100;}</style><rect x="344.9" y="49.1" transform="matrix(0.9822 -0.1881 0.1881 0.9822 -6.8565 67.0195)" width="9.7" height="41" class="a"/><rect x="441.6" y="42.5" transform="matrix(0.9878 0.1559 -0.1559 0.9878 15.9249 -68.8114)" width="9.7" height="49.2" class="a"/><path d="M290.7 289.9c0 0-32.4 32.7-44.1 83.7 0 0 51.5 24.5 91.6 5.1 0 0 40.1 31.3 78 7.5 0 0 49.7 23.2 80.7-7.5 0 0 41.6 19.4 66.9-4.1 0 0-22.5-68.4-49.2-92.9C487.8 257.2 306.1 270.6 290.7 289.9z" fill="#FBF174"/><path d="M307 226.6c0 0-27.4 28.5-37.3 73.1 0 0 43.6 21.4 77.4 4.5 0 0 33.9 27.3 66 6.5 0 0 42 20.2 68.2-6.5 0 0 35.2 16.9 56.6-3.6 0 0-19-59.7-41.6-81.1S320 209.7 307 226.6z" fill="#FFF791"/><polygon points="352.9 151.3 446.8 151.3 454.4 89.8 342 92.7 " class="a"/><path d="M352.9 151.3c0 0-47 27.7-58.5 81.2 0 0 34.9 31.1 68.9 12.1 0 0 45.1 18.4 73.6-3 0 0 44.2 16.9 76.3-4.5 0 0-16.5-59-66.4-85.9l-47-4.1L352.9 151.3z" fill="#FFFABC"/><path d="M351.5 79.2c-10.7-13.1-17.8 0.6-18.4 0 -0.6-0.6-0.6 4.2 0 8.3 0.6 4.2-5.6 4.8-0.4 8.3 5.2 3.6 8-3 8.4 3 0.4 5.9-8.7 10.3 0 10.5 8.7 0.2 5.1-0.2 10.5 0 5.3 0.2 1.8 9.7 8.9 4.4 7.1-5.3-0.6-12.5 7.7-10.1 8.3 2.4 14.9 4.2 13.1-3.6 -1.8-7.7-5.9-5.9-3.6-10.7 2.4-4.8 0.6-13.1-2.4-11.3 -3 1.8-4.2-1.3-7.1-4.5 -3-3.2-4.8-8.6-7.7-3.8 -3 4.8 4.2 9.5-3 4.8C350.3 69.7 351.5 79.2 351.5 79.2z" class="b"/><path d="M377 111.9c8.2 1.4 11.9-22.6 4.5-22.6 -7.4 0-7.4 0-7.4 0s-3.6 7.5-4.8-4.2 -0.2-21.3-8.9-15.4c-8.8 5.8-9.9 12.5-15.9 4.2 -6.1-8.3-13.8 0-11.4 5.3 2.4 5.3 12.5 6.3 4.2 12.4 -8.3 6.1-20.5 18.5-10.1 17.7s14.9 1.7 14.9 6c0 4.3 2.4 9.2 6.5 2.9 4.2-6.3 5.9-7.8 13.1-2.9C368.7 120.2 373.5 111.3 377 111.9z" class="c"/><path d="M359.2 86.4c-2.5 2.9-6.5-8.9-8.9-3.6 -2.4 5.3-4.8 3.9-7.1 0.8 -2.4-3.1-9.7 0.8-5.9 8 3.8 7.3 3.8-3.2 3.8 7.3 0 10.5 2.9 15.6 6.7 10.5 3.8-5.1 1.1-6.9 6.6-3.9 5.5 3 13.2 3.6 11.4-3.6 -1.8-7.1-3-3.8 0.3-10.2C369.3 85.2 363.4 81.6 359.2 86.4z" class="b"/><path d="M354.3 73.2c-8.8-6.4-30.5 4.4-23.8 11.4 6.7 7 8.3 8.4 2.9 11.8 -5.5 3.4-10.3 9-4.1 9 6.2 0 4.6 1.8 6.9 5.9 2.3 4.2 9.4 15.8 12.4 6.9 3-8.9 6.6-4 13.1-2.9 6.5 1.1 5.9 1.3 8.3-4 2.4-5.3 6.5-1.2 6.5-8.9 0-7.7-7-8.8-2.4-13.1 4.6-4.3 10.4-4.8 4.4-7.9 -6-3.1-9.2 2.3-9.8-2.7 -0.6-5.1 3-10.7-4.2-7.4 -7.1 3.3-7.1 3.3-7.1 3.3L354.3 73.2z" class="b"/><path d="M356 91.6c-3 2.7-3.2-11.8-4.4-5.8 -1.3 5.9-5.4 5.7-6.6 5.8 -1.2 0.1-0.6 3.1 3 7.3 3.6 4.2 2.7 8.3 6.4 6.5 3.7-1.8 4.3-3.6 7.9-3.6 3.6 0 10.2-4.7 4.8-7.1C361.6 92.3 364.1 84.3 356 91.6z" class="d"/><path d="M353.7 94.6c-0.5 3.2-1.9 9 3 6.6 4.9-2.4 5.8-2.7 7.5-6.2C366 91.6 354.5 89.4 353.7 94.6z" class="e"/><path d="M313.6 216.6c-3.2-16.6-16-7.9-16.2-8.7 -0.2-0.8-2.5 3.4-3.9 7.3 -1.4 3.9-7.2 1.5-4.3 7.1 2.9 5.6 8.5 1.2 6 6.6 -2.5 5.4-12.5 4.9-5 9.2 7.6 4.3 4.6 2.2 9.2 5 4.6 2.7-3 9.4 5.8 8.1 8.8-1.3 5.4-11.3 11.6-5.2 6.2 6 11.1 10.7 13.2 3 2.1-7.6-2.4-8 1.9-11.1 4.3-3.1 6.7-11.2 3.3-11.1 -3.5 0.2-3.1-3.1-4.2-7.3 -1.1-4.3-0.1-9.8-5-7s-0.8 10.3-4.9 2.8C317 207.6 313.6 216.6 313.6 216.6z" class="b"/><path d="M320.6 257.4c6.5 5.1 21.2-14.3 14.6-17.8 -6.5-3.5-6.5-3.5-6.5-3.5s-6.7 4.9-2.2-5.9 9.9-18.8-0.5-17.8c-10.5 1-14.6 6.3-16-3.9 -1.4-10.2-12.1-6.5-12.6-0.7 -0.4 5.8 8 11.4-2.2 12.8 -10.2 1.4-26.8 6.6-17.3 10.8 9.5 4.2 12.3 8.5 10.2 12.3s-2.3 9.2 4.4 5.7c6.7-3.6 8.9-4.1 12.9 3.6C309.3 260.8 317.7 255.2 320.6 257.4z" class="c"/><path d="M317 226.5c-3.6 1.3-1.5-10.9-6.2-7.4 -4.6 3.6-6 1.2-6.6-2.7 -0.6-3.9-8.9-3.9-9 4.3 -0.1 8.2 4.9-1-0.1 8.2 -5 9.2-4.8 15.1 0.9 12.4 5.8-2.7 4.3-5.5 7.7-0.3 3.4 5.2 10 9.4 11.8 2.3 1.8-7.1-0.9-4.8 5.1-8.9C326.5 230.2 322.9 224.3 317 226.5z" class="b"/><path d="M318.9 212.6c-4.7-9.8-28.9-10.5-26.3-1.2 2.6 9.3 3.4 11.3-3 11.7 -6.4 0.4-13.4 3.1-7.9 6s3.2 3.7 3.3 8.5c0 4.7 0.8 18.4 7.6 11.9s7.7-0.4 12.9 3.6 4.6 4 9.2 0.4c4.6-3.6 6.3 2.1 10-4.7 3.7-6.8-2-11.1 4.1-12.6 6.1-1.6 11.5 0.7 7.6-4.9 -3.8-5.6-9.2-2.3-7.3-7 1.9-4.8 7.7-8-0.1-8.5 -7.8-0.5-7.8-0.5-7.8-0.5L318.9 212.6z" class="b"/><path d="M311.7 229.6c-3.9 1 2.8-11.9-1.2-7.2s-7.5 2.4-8.6 2c-1.1-0.4-2 2.4-0.8 7.8 1.2 5.4-1.6 8.6 2.5 8.8 4.1 0.2 5.5-1.1 8.6 0.6 3.1 1.7 11.2 0.7 7.6-4C316.3 232.9 322.3 227 311.7 229.6z" class="d"/><path d="M308.3 231.2c-1.9 2.6-5.9 7-0.5 7.2 5.4 0.2 6.4 0.4 9.6-1.9C320.5 234.3 311.4 227 308.3 231.2z" class="e"/><path d="M480.6 223.5c-15.8-6-15.2 9.4-16 9.2 -0.8-0.2 1.6 3.9 4.1 7.2 2.6 3.3-2.5 6.9 3.8 7.4 6.3 0.5 5.5-6.6 8.8-1.6 3.3 5-2.4 13.2 5.2 9.1 7.6-4.1 4.3-2.7 9.1-5.2s6.4 7.6 9.9-0.6c3.5-8.2-6.7-10.5 1.7-12.6 8.4-2.1 15-3.8 9.6-9.6 -5.4-5.8-8.1-2.2-8.4-7.5 -0.3-5.3-6-11.6-7.7-8.6 -1.7 3-4.2 1-8.4-0.3 -4.2-1.3-8.4-5.1-8.6 0.5 -0.2 5.6 8.3 6.2-0.2 5.6C474.8 215.9 480.6 223.5 480.6 223.5z" class="b"/><path d="M519 239.1c7.7-2.9-0.9-25.5-7.4-21.8 -6.4 3.7-6.4 3.7-6.4 3.7s0.6 8.2-6.2-1.2c-6.8-9.5-10.7-18.4-15.4-9 -4.7 9.4-2.3 15.7-11.7 11.5 -9.4-4.2-12 6.9-7.2 10.3 4.7 3.5 13.9-0.8 9.8 8.6 -4.2 9.4-8.6 26.2 0.1 20.4 8.6-5.8 13.7-5.9 15.9-2.2 2.1 3.7 6.6 6.8 7.1-0.7 0.5-7.5 1.3-9.7 9.9-9C515.9 250.5 515.6 240.4 519 239.1z" class="c"/><path d="M490.8 225.9c-0.7 3.7-10.1-4.5-9.5 1.3 0.6 5.8-2.2 5.7-5.8 4.2 -3.6-1.5-8.1 5.5-1.2 9.9 6.9 4.4 1.7-4.7 6.9 4.4s10.2 12.1 11 5.8c0.8-6.3-2.5-6.5 3.8-6.7 6.2-0.2 13.2-3.5 8.1-8.8 -5.1-5.3-4.5-1.8-4.9-9C499 219.8 492.1 219.7 490.8 225.9z" class="b"/><path d="M480 216.8c-10.8-1.2-24.2 19-14.9 21.7 9.3 2.7 11.4 3.1 8.4 8.8 -3.1 5.7-4.4 13 0.9 9.9 5.3-3.1 4.9-0.8 8.9 1.7 4 2.5 16 9.1 14.2-0.1 -1.9-9.2 3.7-6.8 9.9-9 6.2-2.2 5.8-1.8 5.2-7.6 -0.6-5.8 5.1-4.3 1.2-11 -3.8-6.7-10.5-4.1-8.6-10.2 1.9-6 6.6-9.4-0.1-9.1 -6.8 0.3-6.8 6.6-9.8 2.5s-2.7-10.8-7.3-4.4c-4.6 6.4-4.6 6.4-4.6 6.4L480 216.8z" class="b"/><path d="M490.6 232c-1.3 3.8-8.6-8.6-6.8-2.8 1.9 5.8-1.9 7.6-2.8 8.3s1 3 6.2 4.8c5.2 1.8 6.5 5.9 8.8 2.5 2.3-3.4 2-5.2 5.1-7 3.1-1.8 6.5-9.2 0.6-8.6C495.8 229.8 494 221.6 490.6 232z" class="d"/><path d="M490.2 235.7c1.2 3 2.8 8.7 5.9 4.2 3.1-4.5 3.7-5.2 3.5-9.1C499.3 227 488.2 230.9 490.2 235.7z" class="e"/><path d="M427.2 230.6c-15.8-6-15.2 9.4-16 9.2 -0.8-0.2 1.6 3.9 4.1 7.2s-2.5 6.9 3.8 7.4c6.3 0.5 5.5-6.6 8.8-1.6s-2.4 13.2 5.2 9.1c7.6-4.1 4.3-2.7 9.1-5.2 4.7-2.5 6.4 7.6 9.9-0.6 3.5-8.2-6.7-10.5 1.7-12.6s15-3.8 9.6-9.6c-5.4-5.8-8.1-2.2-8.4-7.5 -0.3-5.3-6-11.6-7.7-8.6s-4.2 1-8.4-0.3c-4.2-1.3-8.4-5.1-8.6 0.5 -0.2 5.6 8.3 6.2-0.2 5.6C421.4 223 427.2 230.6 427.2 230.6z" class="b"/><path d="M465.6 246.3c7.7-2.9-0.9-25.5-7.4-21.8 -6.4 3.7-6.4 3.7-6.4 3.7s0.6 8.2-6.2-1.2c-6.8-9.5-10.7-18.4-15.4-9 -4.7 9.4-2.3 15.7-11.7 11.5 -9.4-4.2-12 6.9-7.2 10.3 4.7 3.5 13.9-0.8 9.8 8.6 -4.2 9.4-8.6 26.2 0.1 20.4 8.6-5.8 13.7-5.9 15.9-2.2 2.1 3.7 6.7 6.8 7.1-0.7 0.5-7.5 1.3-9.7 9.9-9C462.6 257.6 462.2 247.5 465.6 246.3z" class="c"/><path d="M437.5 233c-0.7 3.7-10.1-4.5-9.5 1.3 0.6 5.8-2.2 5.7-5.8 4.2 -3.6-1.5-8.1 5.5-1.2 9.9 6.9 4.4 1.7-4.7 6.9 4.4 5.2 9.1 10.2 12.1 11 5.8 0.8-6.3-2.5-6.5 3.8-6.7 6.2-0.2 13.2-3.5 8.1-8.8s-4.5-1.8-4.9-9C445.6 226.9 438.7 226.8 437.5 233z" class="b"/><path d="M426.6 224c-10.8-1.2-24.2 19-14.9 21.7 9.3 2.7 11.4 3.1 8.4 8.8 -3.1 5.7-4.4 13 0.9 9.9 5.4-3.1 4.9-0.8 8.9 1.7 4 2.5 16 9.1 14.2-0.1 -1.9-9.2 3.7-6.8 9.9-9 6.2-2.2 5.8-1.8 5.2-7.6 -0.6-5.8 5.1-4.3 1.2-11 -3.8-6.7-10.5-4.1-8.6-10.2 1.9-6 6.6-9.4-0.1-9.1 -6.8 0.3-6.8 6.6-9.8 2.5 -3-4.1-2.7-10.8-7.3-4.4 -4.6 6.4-4.6 6.4-4.6 6.4L426.6 224z" class="b"/><path d="M437.3 239.1c-1.3 3.8-8.6-8.6-6.8-2.8 1.9 5.8-1.9 7.6-2.8 8.3 -1 0.7 1 3 6.2 4.8 5.2 1.8 6.5 5.9 8.8 2.5s2-5.2 5.1-7c3.1-1.8 6.5-9.1 0.6-8.5S440.7 228.8 437.3 239.1z" class="d"/><path d="M436.8 242.8c1.2 3 2.8 8.7 5.9 4.3 3.1-4.5 3.7-5.2 3.5-9.1C446 234.1 434.9 238 436.8 242.8z" class="e"/><path d="M359.7 229.6c-15.8-6-15.2 9.4-16 9.2 -0.8-0.2 1.6 3.9 4.1 7.2 2.6 3.3-2.5 6.9 3.8 7.4 6.3 0.5 5.5-6.6 8.8-1.6 3.3 5-2.4 13.2 5.2 9.1 7.6-4.1 4.3-2.7 9.1-5.2 4.7-2.5 6.4 7.6 9.9-0.6 3.5-8.2-6.7-10.5 1.7-12.6 8.4-2.1 15-3.8 9.6-9.6 -5.4-5.8-8.1-2.2-8.4-7.5 -0.3-5.3-6-11.6-7.7-8.6 -1.7 3-4.2 1-8.4-0.3 -4.2-1.3-8.4-5.1-8.6 0.5 -0.2 5.6 8.3 6.2-0.2 5.6C354 221.9 359.7 229.6 359.7 229.6z" class="b"/><path d="M398.2 245.2c7.7-2.9-0.9-25.5-7.4-21.8 -6.4 3.7-6.4 3.7-6.4 3.7s0.6 8.2-6.2-1.2 -10.7-18.4-15.4-9c-4.7 9.4-2.3 15.7-11.7 11.5 -9.4-4.2-12 6.9-7.2 10.3 4.7 3.5 13.9-0.8 9.8 8.6 -4.2 9.4-8.6 26.2 0.1 20.4 8.6-5.8 13.7-5.9 15.9-2.2s6.7 6.8 7.1-0.7c0.5-7.5 1.3-9.7 9.9-9C395.1 256.6 394.8 246.5 398.2 245.2z" class="c"/><path d="M370 231.9c-0.7 3.7-10.1-4.5-9.5 1.3 0.6 5.8-2.2 5.7-5.8 4.2 -3.6-1.5-8.1 5.5-1.2 9.9 6.9 4.4 1.7-4.7 6.9 4.4 5.2 9.1 10.2 12.1 11 5.8 0.7-6.3-2.5-6.5 3.8-6.7 6.2-0.2 13.2-3.5 8.1-8.8 -5.1-5.3-4.5-1.8-4.9-9C378.2 225.9 371.2 225.7 370 231.9z" class="b"/><path d="M359.2 222.9c-10.8-1.2-24.2 19-14.9 21.7 9.3 2.7 11.4 3.1 8.4 8.8s-4.4 13 0.9 9.9c5.3-3.1 4.9-0.8 8.9 1.7 4 2.5 16 9.1 14.2-0.1 -1.9-9.2 3.7-6.8 9.9-9 6.2-2.2 5.8-1.8 5.2-7.6 -0.6-5.8 5.1-4.3 1.2-11 -3.8-6.7-10.5-4.1-8.6-10.2 1.9-6 6.6-9.4-0.1-9.1 -6.8 0.3-6.8 6.6-9.8 2.5 -3-4.1-2.7-10.8-7.3-4.4 -4.6 6.4-4.6 6.4-4.6 6.4L359.2 222.9z" class="b"/><path d="M369.8 238c-1.3 3.8-8.6-8.6-6.8-2.8 1.9 5.8-1.9 7.6-2.8 8.3 -1 0.7 1 3 6.2 4.8 5.2 1.8 6.5 5.9 8.8 2.5 2.3-3.4 2-5.2 5.1-7 3.1-1.8 6.5-9.2 0.6-8.5C375 235.9 373.2 227.7 369.8 238z" class="d"/><path d="M369.3 241.8c1.2 3 2.8 8.7 5.9 4.2 3.1-4.5 3.7-5.2 3.5-9.1C378.5 233.1 367.4 236.9 369.3 241.8z" class="e"/><path d="M263.6 287.4c-15.8-6-15.2 9.4-16 9.2 -0.8-0.2 1.6 3.9 4.1 7.2 2.6 3.3-2.5 6.9 3.8 7.4 6.3 0.5 5.5-6.6 8.8-1.6 3.3 5-2.4 13.2 5.2 9.1s4.3-2.7 9.1-5.2c4.7-2.5 6.4 7.5 9.9-0.6 3.5-8.2-6.7-10.5 1.7-12.6 8.4-2.1 15-3.8 9.6-9.6 -5.4-5.8-8.1-2.2-8.4-7.5 -0.3-5.3-6-11.6-7.7-8.6 -1.7 3-4.2 1-8.4-0.3s-8.4-5.1-8.6 0.5c-0.2 5.6 8.3 6.2-0.2 5.6C257.8 279.7 263.6 287.4 263.6 287.4z" class="b"/><path d="M302 303c7.7-2.9-0.9-25.5-7.4-21.8 -6.4 3.7-6.4 3.7-6.4 3.7s0.6 8.2-6.2-1.2c-6.8-9.5-10.7-18.4-15.4-9 -4.7 9.4-2.3 15.7-11.7 11.5 -9.4-4.2-12 6.9-7.2 10.3 4.7 3.5 13.9-0.8 9.8 8.6s-8.6 26.2 0.1 20.4c8.6-5.8 13.7-5.9 15.9-2.2 2.1 3.7 6.7 6.8 7.1-0.7 0.5-7.5 1.3-9.7 9.9-9S298.6 304.3 302 303z" class="c"/><path d="M273.8 289.7c-0.7 3.7-10.1-4.5-9.5 1.3s-2.2 5.7-5.8 4.2c-3.6-1.5-8.1 5.5-1.2 9.9s1.7-4.7 6.9 4.4c5.2 9.1 10.2 12.1 11 5.8 0.8-6.3-2.5-6.5 3.8-6.7 6.2-0.2 13.2-3.5 8.1-8.8 -5.1-5.3-4.5-1.8-4.9-9C282 283.7 275.1 283.5 273.8 289.7z" class="b"/><path d="M263 280.7c-10.8-1.2-24.2 19-14.9 21.7 9.3 2.7 11.4 3.1 8.4 8.8 -3.1 5.7-4.4 13 0.9 9.9 5.3-3.1 4.9-0.8 8.9 1.7 4 2.5 16 9.1 14.2-0.1s3.7-6.8 9.9-9c6.2-2.2 5.8-1.8 5.2-7.6 -0.6-5.8 5.1-4.3 1.2-11 -3.8-6.7-10.5-4.1-8.6-10.2s6.6-9.4-0.1-9.1c-6.8 0.3-6.8 6.6-9.8 2.5 -3-4.1-2.7-10.8-7.3-4.4 -4.6 6.4-4.6 6.4-4.6 6.4L263 280.7z" class="b"/><path d="M273.7 295.8c-1.3 3.8-8.6-8.6-6.8-2.8 1.9 5.8-1.9 7.6-2.8 8.3 -1 0.7 1 3 6.2 4.8 5.2 1.8 6.5 5.9 8.8 2.5 2.3-3.4 2-5.2 5.1-7 3.1-1.8 6.5-9.2 0.6-8.6S277.1 285.5 273.7 295.8z" class="d"/><path d="M273.2 299.6c1.2 3 2.8 8.7 5.9 4.3 3.1-4.5 3.7-5.2 3.5-9.1C282.3 290.9 271.3 294.7 273.2 299.6z" class="e"/><path d="M523.5 293.8c-15.8-6-15.2 9.4-16 9.2 -0.8-0.2 1.6 3.9 4.1 7.2 2.6 3.3-2.5 6.9 3.8 7.4 6.3 0.5 5.5-6.6 8.8-1.6 3.3 5-2.4 13.2 5.2 9.1s4.3-2.7 9.1-5.2c4.7-2.5 6.4 7.6 9.9-0.6 3.5-8.2-6.7-10.5 1.7-12.6s15-3.8 9.6-9.6c-5.4-5.8-8.1-2.2-8.4-7.5s-6-11.6-7.7-8.6c-1.7 3-4.2 1-8.4-0.3 -4.2-1.3-8.4-5.1-8.6 0.5 -0.2 5.6 8.3 6.2-0.2 5.6C517.8 286.2 523.5 293.8 523.5 293.8z" class="b"/><path d="M561.9 309.4c7.7-2.9-0.9-25.5-7.4-21.8 -6.4 3.7-6.4 3.7-6.4 3.7s0.6 8.2-6.2-1.2 -10.7-18.4-15.4-9c-4.7 9.4-2.3 15.7-11.7 11.5 -9.4-4.2-12 6.9-7.2 10.3 4.7 3.5 13.9-0.8 9.8 8.6s-8.6 26.2 0.1 20.4c8.6-5.8 13.7-5.9 15.9-2.2 2.1 3.7 6.7 6.8 7.1-0.7 0.5-7.5 1.3-9.7 9.9-9S558.6 310.7 561.9 309.4z" class="c"/><path d="M533.8 296.2c-0.7 3.7-10.1-4.5-9.5 1.3 0.6 5.8-2.2 5.7-5.8 4.2 -3.6-1.5-8.1 5.5-1.2 9.9 6.9 4.4 1.7-4.7 6.9 4.4s10.2 12.1 11 5.8 -2.5-6.5 3.8-6.7c6.2-0.2 13.2-3.5 8.1-8.8 -5.1-5.3-4.5-1.8-4.9-9C541.9 290.1 535 290 533.8 296.2z" class="b"/><path d="M522.9 287.1c-10.8-1.2-24.2 19-14.9 21.7 9.3 2.7 11.4 3.1 8.4 8.8s-4.4 13 0.9 9.9c5.3-3.1 4.9-0.8 8.9 1.7s16 9.1 14.2-0.1c-1.9-9.2 3.7-6.8 9.9-9 6.2-2.2 5.8-1.8 5.2-7.6 -0.6-5.8 5.1-4.3 1.2-11 -3.8-6.7-10.5-4.1-8.6-10.2 1.9-6 6.6-9.4-0.1-9.1 -6.8 0.3-6.8 6.6-9.8 2.5 -3-4.1-2.7-10.8-7.3-4.4 -4.6 6.4-4.6 6.4-4.6 6.4L522.9 287.1z" class="b"/><path d="M533.6 302.3c-1.3 3.8-8.6-8.6-6.8-2.8 1.9 5.8-1.9 7.6-2.8 8.3 -1 0.7 1 3 6.2 4.8 5.2 1.8 6.5 5.9 8.8 2.5 2.3-3.4 2-5.2 5.1-7 3.1-1.8 6.5-9.2 0.6-8.5C538.8 300.1 537 292 533.6 302.3z" class="d"/><path d="M533.1 306c1.2 3 2.8 8.7 5.9 4.3 3.1-4.5 3.7-5.2 3.5-9.1C542.3 297.3 531.2 301.2 533.1 306z" class="e"/><path d="M464.8 296.7c-15.8-6-15.2 9.4-16 9.2 -0.8-0.2 1.6 3.9 4.1 7.2 2.6 3.3-2.5 6.9 3.8 7.4 6.3 0.5 5.5-6.6 8.8-1.6 3.3 5-2.4 13.2 5.2 9.1 7.6-4.1 4.3-2.7 9.1-5.2s6.4 7.6 9.9-0.6c3.5-8.2-6.7-10.5 1.7-12.6 8.4-2.1 15-3.8 9.6-9.6 -5.4-5.8-8.1-2.2-8.4-7.5 -0.3-5.3-6-11.6-7.7-8.6 -1.7 3-4.2 1-8.4-0.3 -4.2-1.3-8.4-5.1-8.6 0.5 -0.2 5.6 8.3 6.2-0.2 5.6C459 289.1 464.8 296.7 464.8 296.7z" class="b"/><path d="M503.2 312.4c7.7-2.9-0.9-25.5-7.4-21.8 -6.4 3.7-6.4 3.7-6.4 3.7s0.6 8.2-6.2-1.2c-6.8-9.5-10.7-18.4-15.4-9 -4.7 9.4-2.3 15.7-11.7 11.5 -9.4-4.2-12 6.9-7.2 10.3 4.7 3.5 13.9-0.8 9.8 8.6 -4.2 9.4-8.6 26.2 0.1 20.4 8.6-5.8 13.7-5.9 15.9-2.2s6.7 6.8 7.1-0.7c0.5-7.5 1.3-9.7 9.9-9C500.2 323.7 499.8 313.6 503.2 312.4z" class="c"/><path d="M475.1 299.1c-0.7 3.7-10.1-4.5-9.5 1.3 0.6 5.8-2.2 5.7-5.8 4.2 -3.6-1.5-8.1 5.5-1.2 9.9 6.9 4.4 1.7-4.7 6.9 4.4 5.2 9.1 10.2 12.1 11 5.8 0.7-6.3-2.5-6.5 3.8-6.7s13.2-3.5 8.1-8.8c-5.1-5.3-4.5-1.8-4.9-9C483.2 293 476.3 292.9 475.1 299.1z" class="b"/><path d="M464.2 290.1c-10.8-1.2-24.2 19-14.9 21.7 9.3 2.7 11.4 3.1 8.4 8.8 -3.1 5.7-4.4 13 0.9 9.9 5.4-3.1 4.9-0.8 8.9 1.7 4 2.5 16 9.1 14.2-0.1s3.7-6.8 9.9-9c6.2-2.2 5.8-1.8 5.2-7.6 -0.6-5.8 5.1-4.3 1.2-11 -3.8-6.7-10.5-4.1-8.6-10.2 1.9-6 6.6-9.4-0.1-9.1 -6.8 0.3-6.8 6.6-9.8 2.5 -3-4.1-2.8-10.8-7.3-4.4 -4.6 6.4-4.6 6.4-4.6 6.4L464.2 290.1z" class="b"/><path d="M474.9 305.2c-1.3 3.8-8.6-8.6-6.8-2.8 1.9 5.8-1.9 7.6-2.8 8.3 -1 0.7 1 3 6.2 4.8 5.2 1.8 6.5 5.9 8.8 2.5 2.3-3.4 2-5.2 5.1-7 3.1-1.8 6.5-9.2 0.6-8.6C480.1 303.1 478.3 294.9 474.9 305.2z" class="d"/><path d="M474.4 309c1.2 3 2.8 8.7 5.9 4.2 3.1-4.5 3.7-5.2 3.5-9.1C483.5 300.2 472.5 304.1 474.4 309z" class="e"/><path d="M403.2 303.2c-15.8-6-15.2 9.4-16 9.2 -0.8-0.2 1.6 3.9 4.1 7.2 2.6 3.3-2.5 6.9 3.8 7.4 6.3 0.5 5.5-6.6 8.8-1.6 3.3 5-2.4 13.2 5.2 9.1 7.6-4.1 4.3-2.7 9.1-5.2 4.7-2.5 6.4 7.5 9.9-0.6 3.5-8.2-6.7-10.5 1.7-12.6 8.4-2.1 15-3.8 9.6-9.6 -5.4-5.8-8.1-2.2-8.4-7.5 -0.3-5.3-6-11.6-7.7-8.6 -1.7 3-4.2 1-8.4-0.3 -4.2-1.3-8.4-5.1-8.6 0.5 -0.2 5.6 8.3 6.2-0.2 5.6C397.4 295.5 403.2 303.2 403.2 303.2z" class="b"/><path d="M441.6 318.8c7.7-2.9-0.9-25.5-7.4-21.8 -6.4 3.7-6.4 3.7-6.4 3.7s0.6 8.2-6.2-1.2 -10.7-18.4-15.4-9c-4.7 9.4-2.3 15.7-11.7 11.5 -9.4-4.2-12 6.9-7.2 10.3 4.7 3.5 13.9-0.8 9.8 8.6 -4.2 9.4-8.6 26.2 0.1 20.4 8.6-5.8 13.7-5.9 15.9-2.2 2.1 3.7 6.7 6.8 7.1-0.7 0.5-7.5 1.3-9.7 9.9-9C438.5 330.2 438.2 320.1 441.6 318.8z" class="c"/><path d="M413.4 305.5c-0.7 3.7-10.1-4.5-9.5 1.3 0.6 5.8-2.2 5.7-5.8 4.2 -3.6-1.5-8.1 5.5-1.2 9.9 6.9 4.4 1.7-4.7 6.9 4.4 5.2 9.1 10.2 12.1 11 5.8 0.8-6.3-2.5-6.5 3.8-6.7 6.2-0.2 13.2-3.5 8.1-8.8s-4.5-1.8-4.9-9C421.6 299.5 414.7 299.3 413.4 305.5z" class="b"/><path d="M402.6 296.5c-10.8-1.2-24.2 19-14.9 21.7s11.4 3.1 8.4 8.8c-3.1 5.7-4.4 13 0.9 9.9 5.3-3.1 4.9-0.8 8.9 1.7s16 9.1 14.2-0.1c-1.9-9.2 3.7-6.8 9.9-9s5.8-1.8 5.2-7.6c-0.6-5.8 5.1-4.3 1.2-11 -3.8-6.7-10.5-4.1-8.6-10.2 1.9-6 6.6-9.4-0.1-9.1 -6.8 0.3-6.8 6.6-9.8 2.5s-2.7-10.8-7.3-4.4c-4.6 6.4-4.6 6.4-4.6 6.4L402.6 296.5z" class="b"/><path d="M413.3 311.7c-1.3 3.8-8.6-8.6-6.8-2.8s-1.9 7.6-2.8 8.3c-1 0.7 1 3 6.2 4.8 5.2 1.8 6.5 5.9 8.8 2.5s2-5.2 5.1-7c3.1-1.8 6.5-9.2 0.6-8.6C418.5 309.5 416.7 301.3 413.3 311.7z" class="d"/><path d="M412.8 315.4c1.2 3 2.8 8.7 5.9 4.2 3.1-4.5 3.7-5.2 3.5-9.1C421.9 306.7 410.9 310.5 412.8 315.4z" class="e"/><path d="M332.2 297.3c-15.8-6-15.2 9.4-16 9.2 -0.8-0.2 1.6 3.9 4.1 7.2 2.6 3.3-2.5 6.9 3.8 7.4 6.3 0.5 5.5-6.6 8.8-1.6 3.3 5-2.4 13.2 5.2 9.1 7.6-4.1 4.3-2.7 9.1-5.2 4.7-2.5 6.4 7.6 9.9-0.6 3.5-8.2-6.7-10.5 1.7-12.6 8.4-2.1 15-3.8 9.6-9.6 -5.4-5.8-8.1-2.2-8.4-7.5 -0.3-5.3-6-11.6-7.7-8.6 -1.7 3-4.2 1-8.4-0.3 -4.2-1.3-8.4-5.1-8.6 0.5 -0.2 5.6 8.3 6.2-0.2 5.6C326.4 289.6 332.2 297.3 332.2 297.3z" class="b"/><path d="M370.6 312.9c7.7-2.9-0.9-25.5-7.4-21.8 -6.4 3.7-6.4 3.7-6.4 3.7s0.6 8.2-6.2-1.2c-6.8-9.5-10.7-18.4-15.4-9 -4.7 9.4-2.3 15.7-11.7 11.5 -9.4-4.2-12 6.9-7.2 10.3 4.7 3.5 13.9-0.8 9.8 8.6 -4.2 9.4-8.6 26.2 0.1 20.4 8.6-5.8 13.7-5.9 15.9-2.2 2.1 3.7 6.7 6.8 7.1-0.7 0.5-7.5 1.3-9.7 9.9-9C367.5 324.3 367.2 314.2 370.6 312.9z" class="c"/><path d="M342.4 299.6c-0.7 3.7-10.1-4.5-9.5 1.3 0.6 5.8-2.2 5.7-5.8 4.2s-8.1 5.5-1.2 9.9c6.9 4.4 1.7-4.7 6.9 4.4 5.2 9.1 10.2 12.1 11 5.8 0.8-6.3-2.5-6.5 3.8-6.7 6.2-0.2 13.2-3.5 8.1-8.8 -5.1-5.3-4.5-1.8-4.9-9C350.6 293.6 343.7 293.4 342.4 299.6z" class="b"/><path d="M331.6 290.6c-10.8-1.2-24.2 19-14.9 21.7 9.3 2.7 11.4 3.1 8.4 8.8 -3.1 5.7-4.4 13 0.9 9.9 5.3-3.1 4.9-0.8 8.9 1.7 4 2.5 16 9.1 14.2-0.1 -1.9-9.2 3.7-6.8 9.9-9 6.2-2.2 5.8-1.8 5.2-7.6 -0.6-5.8 5.1-4.3 1.2-11 -3.8-6.7-10.5-4.1-8.6-10.2 1.9-6 6.6-9.4-0.1-9.1 -6.8 0.3-6.8 6.6-9.8 2.5 -3-4.1-2.7-10.8-7.3-4.4 -4.6 6.4-4.6 6.4-4.6 6.4L331.6 290.6z" class="b"/><path d="M342.2 305.8c-1.3 3.8-8.6-8.6-6.8-2.8 1.9 5.8-1.9 7.6-2.8 8.3 -1 0.7 1 3 6.2 4.8 5.2 1.8 6.5 5.9 8.8 2.5 2.3-3.4 2-5.2 5.1-7 3.1-1.8 6.5-9.2 0.6-8.6C347.4 303.6 345.6 295.4 342.2 305.8z" class="d"/><path d="M341.8 309.5c1.2 3 2.8 8.7 5.9 4.3 3.1-4.5 3.7-5.2 3.5-9.1C350.9 300.8 339.8 304.6 341.8 309.5z" class="e"/><path d="M396.7 88.9c9.8-13.8-5.3-17-4.9-17.8 0.4-0.7-4.2 0.5-8 2.2 -3.9 1.7-6.1-4.2-8.1 1.8 -2.1 6 5 6.9-0.7 8.9s-12.2-5.7-10.1 2.8c2.1 8.4 1.6 4.9 2.8 10.1 1.2 5.2-8.9 4.3-1.9 9.8 7 5.5 11.9-3.9 11.8 4.8 -0.1 8.7-0.1 15.4 6.9 11.7 7-3.8 4.2-7.3 9.4-6.3 5.2 1 12.8-2.9 10.3-5.3s0.1-4.3 2.5-8.1c2.3-3.7 7-6.8 1.7-8.5 -5.4-1.6-8.1 6.5-5.4-1.6C405.5 85.2 396.7 88.9 396.7 88.9z" class="b"/><path d="M371.9 122.1c0.8 8.2 24.9 5.5 23-1.7 -2-7.2-2-7.2-2-7.2s-8.1-1.5 2.8-5.7c10.9-4.2 20.5-5.8 12.5-12.7 -7.9-6.9-14.6-6.2-8.2-14.3 6.4-8-3.6-13.3-8.2-9.6 -4.5 3.7-2.8 13.7-10.8 7.3s-23.2-14.9-19.8-5.1c3.5 9.8 2.3 14.8-1.9 15.9 -4.2 1.1-8.3 4.7-1.1 7.1 7.2 2.3 9.1 3.7 6.3 11.8C361.7 116.3 371.5 118.5 371.9 122.1z" class="c"/><path d="M391.8 98.2c-3.4-1.7 6.9-8.7 1.1-9.5 -5.8-0.9-5-3.6-2.6-6.7 2.4-3.1-3.3-9.2-9.3-3.6 -6 5.6 4.1 2.8-6 5.6 -10.1 2.8-14.3 6.9-8.3 9.2 5.9 2.3 7-0.7 5.5 5.4s0 13.7 6.5 10.1c6.4-3.6 2.9-3.9 9.9-2.4C395.6 107.6 397.5 101 391.8 98.2z" class="b"/><path d="M403.3 90c3.9-10.1-12.3-28.2-17.3-19.9 -5 8.3-5.9 10.3-10.6 5.9 -4.7-4.4-11.4-7.6-9.8-1.6 1.6 5.9-0.5 4.9-3.9 8.2 -3.4 3.3-12.8 13.2-3.4 13.7 9.4 0.5 5.6 5.3 6.3 11.8 0.6 6.5 0.3 6.1 6.1 7 5.8 0.9 2.9 6 10.3 4 7.5-2 6.6-9.1 12-5.7s7.4 8.8 8.8 2.2c1.4-6.6-4.7-8.2 0.1-10.1s11.1 0 6.1-6c-5-6-5-6-5-6L403.3 90z" class="b"/><path d="M385.9 96.5c-3.4-2.2 10.5-6.2 4.4-5.8 -6.1 0.3-6.9-3.7-7.4-4.8 -0.4-1.1-3.1 0.2-6.2 4.8 -3.1 4.5-7.3 4.8-4.6 7.9 2.7 3.1 4.6 3.2 5.5 6.7 0.9 3.4 7.2 8.6 8.1 2.7C386.7 102.1 395.1 102.4 385.9 96.5z" class="d"/><path d="M382.4 95.1c-3.2 0.4-9.2 0.5-5.6 4.6 3.6 4.1 4.1 4.9 7.9 5.7C388.6 106.1 387.6 94.4 382.4 95.1z" class="e"/><path d="M423.1 71.6c-0.8-16.9-14.7-10.1-14.8-10.9 -0.1-0.8-2.9 3-4.9 6.7 -2 3.7-7.4 0.5-5.3 6.4 2.1 6 8.2 2.4 5 7.4 -3.2 5-13.1 3.1-6.2 8.4s4.3 2.9 8.4 6.2c4.2 3.4-4.3 8.9 4.6 8.8 8.9-0.1 6.9-10.4 12.2-3.5 5.3 6.9 9.5 12.2 12.6 4.9 3.2-7.3-1.3-8.3 3.5-10.7 4.7-2.4 8.2-10.2 4.8-10.5 -3.4-0.3-2.6-3.5-3.1-7.8 -0.5-4.4 1.3-9.7-3.9-7.7 -5.2 2.1-2.3 10.1-5.2 2.1C427.8 63.3 423.1 71.6 423.1 71.6z" class="b"/><path d="M424.3 113.1c5.8 5.9 23-11.1 17-15.5 -6-4.4-6-4.4-6-4.4s-7.3 3.9-1.4-6.2 12.5-17.2 2-17.7c-10.5-0.5-15.3 4.2-15.3-6.1 0.1-10.3-11.1-8.2-12.4-2.5 -1.3 5.7 6.3 12.5-4 12.4 -10.3-0.1-27.5 2.7-18.7 8.3 8.8 5.6 10.9 10.2 8.4 13.7 -2.6 3.5-3.6 8.8 3.5 6.2 7.1-2.6 9.4-2.8 12.2 5.4C412.7 114.8 421.8 110.5 424.3 113.1z" class="c"/><path d="M425.1 81.9c-3.7 0.8 0-11.1-5.1-8.2 -5.1 2.9-6.1 0.3-6.2-3.6 -0.1-3.9-8.3-5.2-9.5 2.9 -1.3 8.1 5-0.3-1.3 8.1 -6.2 8.4-6.9 14.2-0.8 12.4 6.1-1.9 5-4.9 7.7 0.8 2.7 5.7 8.5 10.7 11.3 3.9 2.8-6.8-0.2-4.9 6.3-8.1C434 87 431.3 80.6 425.1 81.9z" class="b"/><path d="M429 68.4c-3.2-10.4-27.1-14.5-25.9-4.9 1.2 9.6 1.7 11.7-4.7 11.2 -6.4-0.5-13.7 1.1-8.7 4.8 5 3.7 2.7 4.2 2 8.9 -0.7 4.7-1.9 18.3 5.8 12.9 7.7-5.4 7.7 0.7 12.2 5.4 4.5 4.8 4 4.6 9.1 1.7 5.1-2.9 6 2.9 10.5-3.3 4.6-6.2-0.4-11.2 5.9-11.9 6.3-0.7 11.2 2.3 8.3-3.8 -3-6.1-8.8-3.6-6.2-8 2.5-4.4 8.7-6.8 1.1-8.4 -7.7-1.6-7.7-1.6-7.7-1.6L429 68.4z" class="b"/><path d="M419.5 84.2c-4 0.4 4.4-11.3-0.1-7.3 -4.5 4-7.7 1.4-8.8 0.8 -1-0.6-2.3 2.1-1.9 7.6 0.4 5.5-2.8 8.3 1.3 9.1 4 0.8 5.6-0.3 8.5 1.8 2.9 2.1 11 2.2 8.1-2.9C423.5 88.1 430.3 83.2 419.5 84.2z" class="d"/><path d="M415.8 85.3c-2.3 2.3-6.9 6.1-1.5 7.1 5.3 1 6.2 1.3 9.7-0.5C427.5 90.2 419.5 81.6 415.8 85.3z" class="e"/><path d="M448.9 81.5c-0.8-16.9-14.7-10.1-14.8-10.9 -0.1-0.8-2.9 3-4.9 6.7 -2 3.7-7.4 0.5-5.3 6.4 2.1 6 8.2 2.4 5 7.4 -3.2 5-13.1 3.1-6.2 8.4 6.9 5.3 4.3 2.9 8.4 6.2 4.2 3.4-4.3 8.9 4.6 8.8 8.9-0.1 6.9-10.4 12.2-3.5 5.3 6.9 9.5 12.2 12.6 4.9 3.2-7.3-1.3-8.3 3.5-10.7s8.2-10.2 4.8-10.5c-3.4-0.3-2.6-3.5-3.1-7.8 -0.5-4.4 1.3-9.7-3.9-7.7 -5.2 2.1-2.3 10.1-5.2 2.1C453.6 73.2 448.9 81.5 448.9 81.5z" class="b"/><path d="M450 123c5.8 5.9 23-11.1 17-15.5 -6-4.4-6-4.4-6-4.4s-7.3 3.9-1.4-6.2c5.9-10.1 12.5-17.2 2-17.7 -10.5-0.5-15.3 4.2-15.3-6.1 0.1-10.3-11.1-8.2-12.4-2.5 -1.3 5.7 6.3 12.5-4 12.4s-27.5 2.7-18.7 8.3c8.8 5.6 10.9 10.2 8.4 13.7 -2.6 3.5-3.6 8.8 3.5 6.2 7.1-2.6 9.4-2.8 12.2 5.4C438.4 124.8 447.5 120.4 450 123z" class="c"/><path d="M450.9 91.9c-3.7 0.8 0-11.1-5.1-8.2 -5.1 2.9-6.1 0.3-6.2-3.6 -0.1-3.9-8.3-5.2-9.5 2.9 -1.3 8.1 5-0.3-1.3 8.1 -6.2 8.4-6.9 14.2-0.8 12.4s5-4.9 7.7 0.8c2.7 5.7 8.5 10.7 11.3 3.9 2.8-6.8-0.2-4.9 6.3-8.1C459.7 96.9 457 90.5 450.9 91.9z" class="b"/><path d="M454.8 78.3c-3.2-10.4-27.1-14.5-25.9-4.9 1.2 9.6 1.7 11.7-4.7 11.2 -6.4-0.5-13.7 1.1-8.7 4.8 5 3.7 2.7 4.2 2 8.9 -0.7 4.7-1.9 18.3 5.8 12.9s7.7 0.7 12.2 5.4c4.5 4.8 4 4.6 9.1 1.7 5.1-2.9 6 2.9 10.5-3.3 4.6-6.2-0.4-11.2 5.8-11.9 6.3-0.7 11.2 2.3 8.3-3.8 -3-6.1-8.8-3.6-6.2-8 2.5-4.4 8.7-6.8 1.1-8.4 -7.7-1.6-7.7-1.6-7.7-1.6L454.8 78.3z" class="b"/><path d="M445.2 94.2c-4 0.4 4.4-11.3-0.1-7.3 -4.5 4-7.7 1.4-8.8 0.8 -1-0.6-2.3 2.1-1.9 7.6 0.4 5.5-2.8 8.3 1.3 9.1 4 0.8 5.6-0.3 8.5 1.8 2.9 2.1 11 2.2 8.1-2.9C449.3 98.1 456 93.1 445.2 94.2z" class="d"/><path d="M441.6 95.2c-2.3 2.3-6.9 6.1-1.5 7.1 5.3 1 6.2 1.3 9.7-0.5C453.2 100.1 445.3 91.5 441.6 95.2z" class="e"/><path d="M451.9 37.4c-0.3-5.8-5-3.5-5.1-3.7 0-0.3-1 1-1.7 2.3 -0.7 1.3-2.5 0.2-1.8 2.2 0.7 2 2.8 0.8 1.7 2.5 -1.1 1.7-4.5 1.1-2.1 2.9 2.4 1.8 1.5 1 2.9 2.1 1.4 1.1-1.5 3 1.6 3 3.1 0 2.4-3.6 4.2-1.2 1.8 2.3 3.3 4.2 4.3 1.7 1.1-2.5-0.4-2.8 1.2-3.7 1.6-0.8 2.8-3.5 1.6-3.6 -1.2-0.1-0.9-1.2-1.1-2.7 -0.2-1.5 0.4-3.3-1.3-2.6 -1.8 0.7-0.8 3.5-1.8 0.7C453.5 34.5 451.9 37.4 451.9 37.4z" class="b"/><path d="M452.2 51.6c2 2 7.9-3.8 5.8-5.3 -2-1.5-2-1.5-2-1.5s-2.5 1.3-0.5-2.1c2-3.4 4.3-5.9 0.7-6.1 -3.6-0.2-5.3 1.4-5.2-2.1 0-3.5-3.8-2.8-4.2-0.8 -0.4 2 2.2 4.3-1.4 4.3s-9.4 0.9-6.4 2.8 3.8 3.5 2.9 4.7c-0.9 1.2-1.2 3 1.2 2.1 2.4-0.9 3.2-0.9 4.2 1.9C448.3 52.2 451.4 50.7 452.2 51.6z" class="c"/><path d="M452.5 40.9c-1.3 0.3 0-3.8-1.7-2.8 -1.7 1-2.1 0.1-2.1-1.2 0-1.3-2.8-1.8-3.3 1 -0.4 2.8 1.7-0.1-0.4 2.8 -2.1 2.9-2.4 4.9-0.3 4.2 2.1-0.6 1.7-1.7 2.6 0.3 0.9 1.9 2.9 3.7 3.9 1.3 1-2.3-0.1-1.7 2.2-2.8C455.6 42.6 454.6 40.5 452.5 40.9z" class="b"/><path d="M453.9 36.3c-1.1-3.5-9.3-5-8.9-1.7 0.4 3.3 0.6 4-1.6 3.8 -2.2-0.2-4.7 0.4-3 1.6 1.7 1.3 0.9 1.4 0.7 3 -0.2 1.6-0.6 6.3 2 4.4s2.6 0.2 4.2 1.9c1.6 1.6 1.4 1.6 3.1 0.6 1.7-1 2 1 3.6-1.1 1.6-2.1-0.1-3.8 2-4.1s3.9 0.8 2.8-1.3c-1-2.1-3-1.2-2.1-2.7 0.9-1.5 3-2.3 0.4-2.9s-2.6-0.5-2.6-0.5L453.9 36.3z" class="b"/><path d="M450.6 41.7c-1.4 0.1 1.5-3.9 0-2.5 -1.6 1.4-2.7 0.5-3 0.3 -0.4-0.2-0.8 0.7-0.7 2.6 0.1 1.9-1 2.8 0.4 3.1 1.4 0.3 1.9-0.1 2.9 0.6 1 0.7 3.8 0.8 2.8-1C452 43 454.3 41.4 450.6 41.7z" class="d"/><path d="M449.3 42.1c-0.8 0.8-2.4 2.1-0.5 2.4s2.1 0.4 3.3-0.2C453.3 43.7 450.6 40.8 449.3 42.1z" class="e"/><path d="M347.6 44c-0.3-5.8-5-3.5-5.1-3.7 0-0.3-1 1-1.7 2.3 -0.7 1.3-2.5 0.2-1.8 2.2 0.7 2 2.8 0.8 1.7 2.5 -1.1 1.7-4.5 1.1-2.1 2.9 2.4 1.8 1.5 1 2.9 2.1 1.4 1.1-1.5 3 1.6 3 3.1 0 2.4-3.6 4.2-1.2 1.8 2.3 3.3 4.2 4.3 1.7 1.1-2.5-0.4-2.8 1.2-3.7 1.6-0.8 2.8-3.5 1.6-3.6 -1.2-0.1-0.9-1.2-1.1-2.7 -0.2-1.5 0.4-3.3-1.4-2.6 -1.8 0.7-0.8 3.5-1.8 0.7S347.6 44 347.6 44z" class="b"/><path d="M348 58.2c2 2 7.9-3.8 5.8-5.3 -2-1.5-2-1.5-2-1.5s-2.5 1.3-0.5-2.1c2-3.4 4.3-5.9 0.7-6.1 -3.6-0.2-5.3 1.4-5.2-2.1 0-3.5-3.8-2.8-4.2-0.8 -0.4 2 2.2 4.3-1.4 4.3 -3.5 0-9.4 0.9-6.4 2.8s3.8 3.5 2.9 4.7c-0.9 1.2-1.2 3 1.2 2.1 2.4-0.9 3.2-0.9 4.2 1.9C344 58.8 347.2 57.3 348 58.2z" class="c"/><path d="M348.3 47.5c-1.3 0.3 0-3.8-1.7-2.8 -1.7 1-2.1 0.1-2.1-1.2 0-1.3-2.8-1.8-3.3 1s1.7-0.1-0.4 2.8c-2.1 2.9-2.4 4.9-0.3 4.2 2.1-0.6 1.7-1.7 2.6 0.3s2.9 3.7 3.9 1.3c1-2.3-0.1-1.7 2.2-2.8C351.3 49.2 350.4 47 348.3 47.5z" class="b"/><path d="M349.7 42.9c-1.1-3.5-9.3-5-8.9-1.7 0.4 3.3 0.6 4-1.6 3.8 -2.2-0.2-4.7 0.4-3 1.6 1.7 1.3 0.9 1.4 0.7 3 -0.2 1.6-0.6 6.3 2 4.4 2.6-1.9 2.6 0.2 4.2 1.9 1.6 1.6 1.4 1.6 3.1 0.6 1.7-1 2 1 3.6-1.1 1.6-2.1-0.1-3.8 2-4.1 2.1-0.2 3.9 0.8 2.8-1.3 -1-2.1-3-1.2-2.1-2.7 0.9-1.5 3-2.3 0.4-2.9 -2.6-0.5-2.6-0.5-2.6-0.5L349.7 42.9z" class="b"/><path d="M346.4 48.3c-1.4 0.1 1.5-3.9 0-2.5 -1.6 1.4-2.7 0.5-3 0.3s-0.8 0.7-0.7 2.6c0.1 1.9-1 2.8 0.4 3.1s1.9-0.1 2.9 0.6c1 0.7 3.8 0.8 2.8-1C347.8 49.6 350.1 47.9 346.4 48.3z" class="d"/><path d="M345.1 48.7c-0.8 0.8-2.4 2.1-0.5 2.4 1.8 0.3 2.1 0.4 3.3-0.2C349.1 50.3 346.4 47.4 345.1 48.7z" class="e"/><path d="M352.9 151.3l-1.7-9.4c0 0 76.5-6.2 96.8 0l-1.2 9.4C446.8 151.3 372.5 148 352.9 151.3z" fill="#FFCF01"/></svg>