<svg version="1.1" id="Layer_1" xmlns="http://www.w3.org/2000/svg" xmlns:xlink="http://www.w3.org/1999/xlink" viewBox="0 0 768 430" enable-background="new 0 0 768 430" xml:space="preserve">
<polyline fill="#E55A64" points="362.107,387 362.107,144.277 411.094,144.277 411.094,387 "/>
<polygon fill="#E6E7E7" points="362.107,312.414 411.094,280.484 411.094,253.87 362.107,285.806 "/>
<polygon fill="#E6E7E7" points="362.107,267.147 411.094,235.212 411.094,208.599 362.107,240.533 "/>
<polygon fill="#E6E7E7" points="362.107,357.686 411.094,325.752 411.094,299.143 362.107,331.078 "/>
<polygon fill="#E6E7E7" points="362.107,221.875 411.094,189.941 411.094,163.327 362.107,195.262 "/>
<polyline fill="#E6E7E7" points="411.094,383.568 411.094,344.415 362.107,376.345 362.107,383.568 "/>
<polygon fill="#E6E7E7" points="411.094,144.671 411.094,144.277 362.107,144.277 362.107,176.605 "/>
<rect x="383.347" y="131.824" fill="#E55A64" width="6.509" height="12.454"/>
<path fill="#FAAD48" d="M380.735,63.52c0,0,5.47,23.207-5.476,35.441c-4.375,4.892-18.798,35.344,11.341,35.441
	C429.708,134.538,391.506,68.673,380.735,63.52z"/>
</svg>
