<svg version="1.1" xmlns="http://www.w3.org/2000/svg" xmlns:xlink="http://www.w3.org/1999/xlink" viewBox="0 0 768 430" style="enable-background:new 0 0 768 430;" xml:space="preserve"><g id="kangaroo"> <g>  <g> <path style="fill:#DDE4D0;" d="M586.181,144.331c-2.59-2.79-3.76-2.127-5.654,3.198c-2.461,6.916-5.498,11.858-10.775,17.537  c-9.48,10.195-24.033,13.98-37.039,9.631c-8.553-2.866-24.936-12.017-30.15-16.847c-0.656-0.609-2.537-2.121-4.18-3.362  c-4.898-3.705-28.654-26.022-33.381-31.359c-4.785-5.404-25.172-21.992-31.699-25.792c-6.041-3.516-6.994-3.958-12.242-5.663  c-4.537-1.477-5.959-1.654-13.434-1.673c-13.576-0.038-21.921,2.86-33.809,11.736c-6.032,4.507-10.596,9.046-21.732,21.609  c-10.65,12.014-20.861,22.327-24.466,24.7c-2.111,1.389-2.982,1.572-7.478,1.572c-4.526,0-5.518-0.211-9.012-1.932  c-4.627-2.279-8.595-5.272-7.711-5.818c0.341-0.208,2.97-1.597,5.842-3.077c9.975-5.149,13.355-8.295,12.487-11.622  c-0.546-2.1-4.053-4.12-7.137-4.12c-2.519,0-7.654,2.089-10.192,4.148c-1.985,1.609-10.154,8.623-11.998,10.299  c-0.972,0.887-2.829,1.79-4.123,2.007c-3.112,0.527-5.827,1.695-7.926,3.413c-2.38,1.951-4.984,3.469-11.565,6.732  c-9.343,4.637-14.927,8.892-14.927,11.383c0,1.657,2.449,3.201,8.03,5.06l4.148,1.382l10.479-1.326  c9.817-1.244,10.707-1.269,14.062-0.398c5.59,1.452,10.988,5.467,21.332,15.864c10.824,10.884,14.637,13.896,19.649,15.543  c5.246,1.724,6.565,3.093,18.737,19.463c5.404,7.266,10.006,11.545,15.012,13.939c3.955,1.893,9.16,2.959,9.16,1.875  c0-0.355,0.467-0.791,1.045-0.973c1.568-0.506,4.328-5.271,4.328-7.48c0-2.141-2.8-5.322-4.839-5.5  c-2.885-0.26-3.178-0.145-3.516,1.289c-0.442,1.881-2.595,2.279-5.069,0.939c-2.229-1.205-6.604-7.669-8.128-12  c-1.54-4.394-1.48-8.763,0.171-11.691c0.713-1.275,1.452-2.323,1.641-2.323c0.184,0,1.667-1.212,3.295-2.689  c1.654-1.497,3.551-2.683,4.296-2.683c1.177,0,5.375,2.032,6.177,2.993c0.164,0.195,1.24,0.928,2.389,1.622  c5.704,3.472,8.267,9.009,8.76,18.971c0.18,3.636,0.019,8.964-0.367,11.937c-0.379,2.961-1.035,8.871-1.458,13.139  c-0.872,8.73-1.992,11.691-5.252,13.85c-4.198,2.785-22.412,9.457-41.685,15.271c-22.168,6.686-25.448,7.771-35.826,11.895  c-7.873,3.123-9.552,4.166-9.552,5.934c0,1.832,5.461,3.787,8.655,3.105c0.656-0.139,4.69-1.035,8.958-1.994  c10.82-2.418,15.6-3.303,28.958-5.359c32.471-5.006,42.196-7.033,48.708-10.164c5.775-2.777,7.598-4.527,10.602-10.203  c3.221-6.061,5.398-12.574,9.369-28.004c1.902-7.393,3.902-14.646,4.441-16.123c1.281-3.503,7.355-15.959,8.803-18.049  c0.623-0.89,3.467-2.885,6.326-4.419c10.164-5.467,18.33-10.75,23.402-15.141c3.35-2.901,6.568-6.067,6.568-6.461  c0-0.234,0.604-1.093,1.342-1.91c0.74-0.817,1.881-2.506,2.537-3.753c1.367-2.588,2.33-2.607,6.258-0.133  c3.033,1.919,10.018,5.634,19.178,10.208c12.469,6.221,21.549,9.485,35.41,12.726c4.078,0.955,18.686,0.796,24.229-0.265  c7.582-1.446,17.664-4.678,23.32-7.477c6.295-3.116,9.201-6.417,13.766-15.635C588.021,153.175,589.179,147.569,586.181,144.331z   M294.832,151.773c-1.783,0-3.232-1.445-3.232-3.232s1.449-3.232,3.232-3.232c1.787,0,3.232,1.446,3.232,3.232  S296.619,151.773,294.832,151.773z M346.725,266.348c-1.641,0.701-2.582,0.701-1.493,0c0.493-0.322,1.297-0.568,1.79-0.549  C347.615,265.824,347.514,266.008,346.725,266.348z"/>  </g> </g></g><g id="Layer_1"></g></svg>