<svg xmlns="http://www.w3.org/2000/svg" viewBox="0 0 768 430"><style>.a{fill:#EAC5B5;}.b{fill:#AF5337;}.c{fill:#562216;}.d{fill:#F9E8E1;}.e{fill:#F1D9CD;}.f{fill:#F4B4AB;}.g{fill:#FFF;}.h{fill:#35130D;}.i{fill:#2E3191;}.j{fill:#00079F;}.k{fill:#0A0A0A;}.l{fill:#E55A77;}</style><path d="M337.9 336.9c0.5 1.2 1 2.3 1.3 3.3l0.3 0.9 -0.7-0.6c-2.4-2.1-5.7-5.2-9.5-8.9 -11.1-10.7-26.2-25.3-36.7-28.8 -3.9-1.3-7.6-2-11-2 -7.3 0-12.2 3.1-13 8.2 4.3-4.4 20.7-0.3 20.7-0.3 -0.2 0-21.2-4-21.2 2.7 0 0.9 0.3 2 1 3.2 3.6 6.7 17.1 17.9 33.5 28.1 17.8 10.9 33.8 17.4 42.8 17.4 0 0 0 0 0 0 1.2 0 2.3-0.1 3.3-0.3 6.4-1.6 7.1-7.8 6.6-15.8C353.5 346.7 341.1 340 337.9 336.9z" class="a"/><path d="M354 330.2c-7-6-11.8-12.3-14.9-17.1 -4.3-6.6-7.1-13.2-8.6-18.8 -0.2 0-0.4 0.1-0.7 0.1 -1.8 0-3.5-1.3-4.3-3l0 0c0 0 0-0.1 0-0.1 0 0 0-0.1 0-0.1 -0.1-0.3-0.2-0.5-0.3-0.8 -2.4-1.7-3.5-3.6-3.4-5.6 0.3-4.6 7.2-8.1 7.3-8.2 0.7-0.4 1.8-0.6 2.9-0.6 1.4-1.3 3.2-2.6 5-3.7 0-1.3-0.1-2.7-0.3-4.3 -0.9 0.3-1.9 0.6-3.2 0.6 -0.2 0-0.4 0-0.6 0 -3.1 0-5.5-1-7.2-2.5 -1 1.3-1.7 2.7-2.2 4.3 -6.9 22.8 4 44.7 11.1 59.3 1.3 2.6 2.5 5 3.4 7.1 3.2 3.1 15.6 9.9 17.3 7 -0.1-2-0.3-4.1-0.5-6.3C354.4 335.1 354.2 332.7 354 330.2z" class="b"/><path d="M287.4 176.8c-0.3-1.1-0.5-2.7-0.3-4.5 0.2-1 0.5-2 0.9-2.7 -5.5-1.7-10.9-1-11.1-1l0 0c-3.1 0.6-5.5 3.4-5.2 6.1 0.3 2.7 3.2 4.4 7.8 4.5h0C280.5 178.1 282.7 176.6 287.4 176.8z" class="a"/><path d="M328.5 204.6c1.7 2.3 4.4 4.2 7.5 6.4 2.4 1.7 4.9 3.5 7.4 5.8 1.1-3.4 0-12.3-4.6-16.3 -9.3-6.6-7.9-11.6-11.7-16 -2.2-1.7-4.6-3.4-6.8-4.9 -3.2-2.2-6-4.1-7.4-5.7 -0.8 0.8-1.8 1.1-1.8 1.1 0 0 2-1.2 2.4-3.2 0.1-0.5 0.1-1.1 0.2-1.8 0.1-2.4 0.3-5.3 3.7-6.6 2.9-1.1 4.5-2.7 4.2-4.5 -0.3-2.2-3.2-3.8-7.4-4.3 -3.3-0.3-5.2 2.9-6.8 5.8 -0.8 1.4-1.5 2.6-2.3 3.3l0 0c0 0 0 0 0 0 -0.2 0.2-0.4 0.3-0.5 0.4 -2.4 2.2-2.6 6.4-2.6 6.5 0 0-0.2-3.6 1.5-6.1 -0.4 0.1-0.8 0.1-1.2 0.1 -1.7 0-3.7-0.5-5.6-0.9 -1.8-0.4-3.6-0.9-4.7-0.7 -0.1 0-0.1 0-0.2 0 -1 0-2.3-0.7-3.9-1.5 -2.4-1.2-5.3-2.7-8.2-2.7 -1.2 0-2.3 0.3-3.4 0.8 -2.5 1.3-2.9 2.9-2.8 4.1 0.2 2 2 3.8 3.5 4.3 0.6-0.1 6-0.7 11.4 1 0.9-1.6 1.9-2.5 1.9-2.5 -2.7 3.2-3.4 7.7-1.9 12.2 0 0-0.4-0.6-0.7-1.6 -6.6-0.2-8.2 2.9-8.2 3l0 0c-0.7 1.5-0.7 3 0 4.2 0.7 1.3 2.3 2 4.1 2 1.7 0 3.7-0.6 5.7-1.7l0.1-0.1 0.1 0c1.9 0.4 4.3 0.7 6.6 0.7 2.2 0 4.2-0.2 5.6-0.6 0 0 0 0 0.1 0 0.5-0.1 0.9-0.3 1.2-0.4l0.2-0.1 0 0c2.7-1.1 4.1-2.9 4.1-3 0 0-1.2 2.1-3.8 3.4 0.6 0.8 1.4 1.4 2.2 2.1 1.4 1.1 3.2 2.5 5.2 5.4l0 0c1.7 2.5 8 10.7 16.6 11.8 3.1 0.3 5.6-0.7 5.7-0.7 0 0-1.8 1.3-4.4 1.3C328.7 204.6 328.6 204.6 328.5 204.6z" class="a"/><path d="M338.7 200.5c4.7 4.1 5.7 12.9 4.6 16.3 1.9 1.7 3.7 3.6 5.3 5.8 1.6-3.9 4.4-7.6 8.4-10.3 5.4-4.9 8.6-8.3 10.2-11.6 -4.5-2.2-8.8-2.3-13.3-2.4 -5.9-0.1-11.9-0.2-19-4.7l-0.1-0.1 0-0.1c-0.9-3.1-4.1-6.2-7.8-9.1C330.9 188.9 329.4 193.9 338.7 200.5z" class="b"/><path d="M550.1 271.2c0.1 0 0.2-0.1 0.4-0.2 0.1 0 0.2-0.1 0.3-0.1 0.2-0.1 0.4-0.2 0.7-0.3 0.1-0.1 0.2-0.1 0.3-0.2 0.1 0 0.2-0.1 0.3-0.1 0.1-0.1 0.3-0.2 0.4-0.2 0.1 0 0.1-0.1 0.2-0.1 0.2-0.1 0.3-0.2 0.5-0.3 0 0 0.1 0 0.1-0.1 0.4-0.3 0.8-0.6 1.2-0.9l0.4-0.3 0 0c0.6-0.6 0.9-1.2 0.8-1.8 -0.2-1.4-2.6-1.9-7-1.6 -27.4 1.9-35.9 24.7-42.2 41.3 -2.2 5.9-4.1 11-6.5 14.1 -4.3 5.6-11.4 8.6-19.9 8.6 -11 0-22.4-5.1-30.3-13.6 -0.7-21.2-12.1-32.9-23.1-44.2 -9.8-10-19.1-19.6-21.4-35.2 2.6 1.7 5.4 3.5 7.8 5.5 0.1 0.4 0.2 0.9 0.4 1.3 0 0 0 0 0 0 0 0.1 0.1 0.2 0.1 0.3 0 0 0 0.1 0 0.1l0 0c3.2 7.5 16.3 14.6 23.6 18.6 2.5 1.4 4.6 2.5 5.1 3 -0.1 0.5-0.1 0.9-0.1 1.4 0 0.1 0 0.1 0 0.2h0c-0.5 8.4 5.3 11.5 7.9 12.8 0.5 0.3 0.9 0.5 1.1 0.6 0.2 0.2 0.6 0.8 1.2 1.6 1.9 2.9 5.5 8.2 9.3 8.8 0.3 0 0.5 0.1 0.8 0.1 0.9 0 1.8-0.3 2.6-0.9 0.8-0.6 1.3-1.4 1.4-2.3 0.2-2.6-2.8-5.8-5-8.1 -0.9-1-2.5-2.6-2.2-2.8 0.3-0.1 1.9 1.3 3.2 2.4 3.7 3.3 9.2 8.3 12.6 4.8 0.8-0.8 1.1-1.7 1-2.7 -0.4-3.6-6.1-7.6-9.2-9.8 -0.5-0.4-1-0.7-1.4-1 0.4 0.1 0.9 0.2 1.5 0.4 1.9 0.5 4.7 1.4 7.8 1.5 2 0.1 3.6-0.8 4.5-2.4 0.9-1.6 0.9-3.8-0.1-5.2 -0.8-1.2-2-1.8-3.6-1.7 -3.7 0.3-7-1.4-9.4-2.7 -1-0.5-1.9-1-2.6-1.2 0-0.2 0-0.4 0.1-0.6 0-0.3 0.1-0.6 0.1-0.9h0c0-0.2 0-0.3 0-0.5 0.1-1.2 0.1-2.2 0.4-3 0.2-0.5 0.5-1 0.8-1.7 1-2 2.5-4.6 1.6-6.7 -0.5-1.1-1.5-1.9-3.2-2.4 -1.9-0.6-3.4-0.5-4.4 0.2 -1.8 1.2-2 3.9-2.2 5.8 -0.1 0.9-0.2 1.8-0.4 2.1 -0.4 0.6-1.4 1-2.7 1.4 -1.1 0.4-2.3 0.8-3.4 1.5l0 0c-0.1 0-0.1 0.1-0.1 0.1 -0.1 0-0.1 0.1-0.2 0.1 -0.1 0.1-0.2 0.1-0.3 0.2 -0.2 0.2-0.4 0.4-0.6 0.6 -9.2-15.2-23.3-22.7-26.2-24.2l0 0c0 0 0 0-0.1 0 -0.3-0.1-0.5-0.2-0.5-0.2 -0.8-0.4-2.8-2.9-5.4-6.2 -6.1-7.7-15.1-19.4-22.8-20.5 -1-4.1-1.3-9.6-0.2-18.3 0.7 0.1 1.5 0.2 2.4 0.2 7.2 0 21.3-3.6 25.8-8.1 0.1 0.5 0 1.3-0.3 1.9l-0.2 0.3 0.4 0c1.9 0.2 6.6-3.3 7.4-7.1 0.2 0.6 0.4 1.5 0.3 2.3l-0.1 0.7 0.6-0.5c2-1.7 5.4-6.3 4.7-11.9 0.5 0.5 1.2 1.2 1.3 1.8l0.5-0.1c0.4-3.8-0.4-7.3-2.6-10.5 -0.1-16.5-3.7-29.8-10.7-39.7 -0.7-0.9-1.4-1.8-2.1-2.7 3.1-1.6 6.6-4.1 10.1-7.7 4.9-5 9.3-12.1 11.5-21.8 3.8-17.4 0.2-31.8-4-34.4 -1-0.6-2.1-0.6-3 0.2 -2.5 2-5.3 3.5-8.3 5 -5.3 2.7-11.3 5.7-18.4 13.4 -6.7 7.3-8.1 13.7-9.3 19.3 -0.8 3.9-1.7 7.6-4.1 11.3 -0.2 0-0.3-0.1-0.5-0.1 -0.5-0.5-6.1-5.8-16.1-6.3 -1.3-8.8-6.3-14-11.9-19.7 -4.6-4.8-9.4-9.7-12.8-17.4 -0.8-1.9-2.1-2.3-2.9-2.3 -4.8 0-11.6 11-12.4 23.3 -0.9 13.1 2.5 28 13.9 34.6 -4.9 6.8-7.7 15.2-10.3 22.8 -1.6 4.7-3.1 9.3-5 13.1 -0.6 0.2-1.3 0.5-1.9 0.9 -6.7 3.6-6 14.5-4.7 19.8l0.2 0.8 0.3-0.7c0.5-1 1.3-1.9 2-2.2 -0.1 1.6-0.2 7.4 4.1 10.5l0.3 0.2 0.1-0.4c0.4-1.7 0.9-3 1.4-3.8 0.5 3.1 3.2 6 5.6 7l0.4 0.2 0-0.4c0-1.3 0.2-3 0.7-3.9 2 3.7 11.5 8.4 14.1 9.1 0.1 0.2 0.2 0.5 0.3 0.7 0.1 0.3 0.2 0.6 0.3 0.8l0 0c1.7 3.8 4.4 7.6 8.1 9.8 0 2.5-0.4 4.6-1.4 6.7 -4.6-2.2-9-2.3-13.6-2.4 -5.8-0.1-11.7-0.2-18.7-4.5 -1.5-5.1-8.9-10.1-14.8-14.2 -3.1-2.1-5.8-4-7.3-5.5 0.3-0.5 0.5-1.1 0.6-1.7 0 0 0-0.1 0-0.1l0 0c0.1-0.5 0.1-1.1 0.2-1.7 0.1-2.5 0.3-5 3.4-6.1 3.1-1.2 4.8-3 4.6-5 -0.3-2.4-3.4-4.3-7.9-4.7 -3.7-0.4-5.6 3.1-7.3 6.1 -0.7 1.3-1.5 2.5-2.2 3.3 -0.2 0.1-0.3 0.2-0.4 0.4 -0.2 0.1-0.4 0.2-0.5 0.3 -0.4 0.1-0.9 0.2-1.4 0.2 -1.6 0-3.6-0.5-5.5-0.9 -1.9-0.5-3.7-0.9-4.8-0.8 -0.8 0.1-2.2-0.6-3.8-1.5 -2.4-1.3-5.4-2.8-8.5-2.8 -1.3 0-2.5 0.3-3.6 0.9 -2.1 1.1-3.2 2.8-3 4.6 0.2 2 1.7 3.7 3.1 4.4 -3 1-5.1 3.7-4.9 6.5 0.3 2.9 3.2 4.8 7.9 4.9 0 0.1-0.1 0.2-0.1 0.2 0 0.1 0 0.1-0.1 0.1l0 0c-0.7 1.7-0.7 3.4 0 4.7 0.8 1.4 2.5 2.3 4.6 2.3 1.8 0 3.8-0.6 5.8-1.7 1.9 0.4 4.3 0.7 6.7 0.7 2.2 0 4.1-0.2 5.5-0.6l0 0 0 0c0.1 0 0.1 0 0.2-0.1 0.4-0.1 0.8-0.2 1.2-0.4 0.7 0.9 1.5 1.5 2.4 2.3 1.4 1.1 3.1 2.5 5.1 5.3l0 0c0.8 1.2 6.4 9.2 14.6 11.5l0 0c0.8 0.2 1.6 0.4 2.3 0.5 0.2 0 0.3 0.1 0.5 0.1 1.7 2.5 4.6 4.5 7.8 6.8 4.1 3 8.9 6.4 12.8 11.8 -0.2 0.6-0.4 1.2-0.6 1.8 -3.2-0.8-6.7-1.1-9.9-1.1 -1.8 0-3.5 0.1-5 0.4 -4.4-7.5-14.8-15.7-20.4-15.7 -1.3 0-2.3 0.5-3 1.4 -1 1.5-1.1 3.7-0.1 6.5 1.8 5.2 7 11.6 13.3 14.9 -2.1 4-2.9 9.2-1.9 15 0.2-0.1 0.4-0.1 0.6-0.2 0-0.2-0.1-0.4-0.1-0.6 -0.7-1-1-2.5-0.7-4 0.1-0.6 0.3-1.1 0.5-1.6 0.4-7.5 4.2-13.3 10-14.7 1.9-0.5 4.2-0.7 6.8-0.7 3.4 0 6.8 0.4 9.7 1.1 -0.3 1.1-0.5 2.2-0.6 3.2 0-0.3 0.1-0.6 0.2-0.8 1.9-9.4 9.1-15.5 14.8-17.8 3-1.2 5.7-1.4 6.9-0.5 0.8 0.6 1.1 2 0.9 3.9 -0.7 5.6-6.3 15.4-14.5 18.5 0.6-0.1 1.3-0.3 2-0.6 2.8 4.2 4.1 10.1 2 14.5 -0.7-0.2-1.5-0.4-2.4-0.4 1.1 0.3 1.7 0.6 2.2 0.8l0 0 0.3 0.1c0.1 0 0.2 0.1 0.3 0.1 0.1 0 0.1 0 0.2 0.1 1.1 0.5 1.9 1.4 2.4 2.8 1.1 2.8 0.7 6.7-1 9.8 -2.7 4.8-12.6 5.8-17.2 5 -2.5-0.4-3.7 0.5-5 1.5 -1.3 1-2.8 2.1-5.7 2.2 -3.2 0.1-5.6-0.8-7.4-2.3 1 0.3 2 0.4 2.8 0.4 2.5 0 4.2-1.4 4.2-1.4 0 0-4 1.9-8.1 0 -0.7-0.7-1.2-1.5-1.6-2.2 1.5 0.6 3.3 0.9 5 0.9 1.3 0 2.7-0.2 4.1-0.6 6.1-1.7 7.7-6.4 8-8.1 -1.2 3.7-4.2 6.5-8.2 7.6 -3.2 0.9-6.6 0.7-9.3-0.6l0-0.1 -0.1 0c-0.5-0.2-0.9-0.4-1.3-0.7 -0.2-0.1-0.4-0.3-0.6-0.5 -1.7-1.4-2.9-3.4-3.4-5.8 -0.2-0.9-0.2-1.7-0.2-2.5 0-0.2-0.1-0.4-0.1-0.7 0-1.4 0.6-2.9 1.7-4 -0.1 0.1-0.2 0.2-0.3 0.3 -1.6 1.7-2.2 4.2-1.6 7 0.5 2.4 1.8 4.5 3.5 5.9l0 0c0.1 0 0.1 0.1 0.2 0.1 0.1 0.1 0.2 0.1 0.2 0.2 0.2 0.2 0.4 0.3 0.7 0.5 0.1 0 0.1 0.1 0.2 0.1 0.3 0.2 0.6 0.4 0.9 0.5 0.5 1.2 1.4 2.5 2.6 3.6 -1 1.3-1.8 2.9-2.3 4.5 -6.9 23 3.9 45 11.2 59.6 1.8 3.7 3.4 6.9 4.3 9.4 -2.3-2-5.3-5-8.8-8.3 -11.1-10.7-26.3-25.4-36.9-28.9 -4-1.3-7.7-2-11.2-2 -7.8 0-13.2 3.7-13.6 9.4 -0.8 1.2-0.6 3 0.6 5.1 3.6 6.7 17.2 18.1 33.7 28.3 17.8 11 33.9 17.5 43.1 17.5 0 0 0 0 0 0 1.2 0 2.4-0.1 3.4-0.4 8.5-2.1 7.6-11.6 6.5-22.6 -0.2-2.3-0.4-4.5-0.6-6.8 9.4 7.9 22.5 15.3 40.4 18 3.4 3.3 6.8 6.4 9.9 9.1 5 4.5 9.1 8.1 11 11.1 -15.5-3.7-54.5-3-69.5 7.9 -3.6 2.6-5.5 5.6-5.7 8.9 -0.1 0.2-0.2 0.4-0.3 0.6 -0.3 0.5-0.5 1.1-0.6 1.7l0 0c-0.7 2.5-0.4 4.9 0.7 6.7 1.5 2.3 4.5 3.7 8.1 3.7 0.3 0.2 0.7 0.4 1.1 0.5 0 0 0 0 0 0l0 0c2.7 1.1 7 1.6 12.5 1.6 7.8 0 17.9-1.1 28.6-3.3 21.5-4.4 38.6-11.8 45.7-19.7 3.4-3.8-1.1-9.5-6.4-16.2 -0.7-0.9-1.4-1.8-2.1-2.6 12.1 3 22.5 3.8 30.1 3.8 0 0 0 0 0 0 1.3 0 2.5 0 3.8-0.1 0.1 0 0.2 0 0.3 0 9.3-0.3 16.6-1.7 21.8-3.1 0 0 0.1 0 0.1 0 1.1-0.3 2.2-0.6 3.1-0.9 18.6-6.1 31.7-16.9 35.5-49.7 3.5-30.7 19.8-35.3 25.2-36.8 0.3-0.1 0.5-0.1 0.7-0.2 0.2-0.1 0.4-0.1 0.6-0.2 0.1 0 0.2-0.1 0.3-0.1C549.8 271.2 549.9 271.2 550.1 271.2zM548.6 271.1c-0.2 0.1-0.5 0.1-0.7 0.2 -5.5 1.5-22 6.2-25.6 37.2 -3.7 32.6-16.7 43.2-35.1 49.3 -8.1 2.7-18.4 4.1-28.9 4.1 0 0 0 0 0 0 -7.7 0-18.3-0.8-30.6-3.9 -4.9-6.4-9.3-13.3-7.9-20 0.9-4.2 4.5-5.4 8.9-6.1 11.1 9 23.9 14.7 36.8 16.3 2.7 0.3 5.3 0.5 7.8 0.5 22.9 0 37.3-13.5 42.7-40.1 3-14.9 11.6-40 34.9-40 0.8 0 1.5 0 2.3 0.1C552.1 269.7 550.3 270.6 548.6 271.1zM390.8 396.7c-17.6 3.6-34.2 4.3-40.7 1.7 -1.6-0.8-2.4-1.9-2.4-3.2 0-3.5 5.1-7.5 9.6-10.1 0 0-10.1 4.7-10.1 10.1 0 1 0.4 1.9 1.2 2.6 -3.3-0.1-5.9-1.3-7.2-3.4 -1.3-2-1.4-4.7-0.2-7.7 2.6-5 14-8.1 14.2-8.2 0 0-9.9 2-13.7 6.5 0.4-2.9 2.2-5.5 5.4-7.8 14.2-10.3 52.9-12 69.7-7.6l0.6 0.2 -0.3-0.6c-0.7-1.2-1.7-2.4-2.9-3.7 -2.2-2.4-5.1-5-8.6-8.1 -15.4-13.8-38.7-34.6-34-67.2 1-6.6 4.5-12.1 10.4-15.8 9.5-6.1 23.9-7.1 38.4-2.8 -3.4-2.2-13-4.1-22.9-2.9 -2.2-7.9-5-13.9-7.6-19.5 -3.1-6.5-5.7-12.2-6.3-19.1 -0.6-6.3 0.6-12.4 2-19.4 1.1-5.9 2.4-12.4 2.7-19.9 2.2-1.9 3.9-4 5.1-5.6 0.1 0 0.1 0 0.2 0.1 -1.1 8.6-0.9 14.2 0.2 18.4 -0.1 0-0.1 0-0.2 0 -3.5-0.2-5.1 2.4-5.1 2.4 1.4-1.4 3.2-2 5.1-1.9 7.6 0.5 17.3 13 23.1 20.4 2 2.6 3.6 4.7 4.7 5.7 -1.3 0-2.2 0.5-2.2 0.5 0 0 1.7-0.5 3.5 0.3 0.4 0.2 1.2 0.6 2.2 1.1 5.1 2.8 16.3 10.2 24.1 23.1 -1 1.8-0.4 3.8-0.4 3.8 0 0-0.2-2.1 1-3.8 0.1-0.1 0.1-0.2 0.2-0.2 0.1-0.1 0.1-0.1 0.2-0.2 0.1-0.1 0.3-0.3 0.5-0.4 0 0 0 0 0 0 1.1-0.8 2.4-1.3 3.7-1.7 1.3-0.5 2.5-0.9 3-1.6 0.3-0.4 0.3-1.3 0.4-2.3 0.2-1.8 0.4-4.4 1.9-5.4 0.9-0.6 2.3-0.7 4-0.2 1.5 0.4 2.4 1.1 2.8 2.1 0.8 1.8-0.6 4.4-1.6 6.2 -0.4 0.7-0.7 1.3-0.9 1.8 -0.3 0.9-0.4 2-0.5 3.2 0 0.5-0.1 1-0.1 1.5 -0.5 3.1-3.1 4.6-3.2 4.6 0 0 2.5-1 3.4-3.6 0.7 0.2 1.6 0.7 2.6 1.2 2.4 1.3 5.8 3 9.7 2.7 1.3-0.1 2.4 0.4 3.1 1.4 0.8 1.3 0.9 3.2 0 4.7 -0.8 1.4-2.2 2.2-4.1 2.1 -3-0.1-5.8-0.9-7.7-1.4 -1.6-0.5-2.2-0.6-2.4-0.3 0.4-1.6 0.1-2.5 0.1-2.5 0 3.9-3.8 8.3-8.5 9.9 0 0 0.9 0.3 2.6-0.5 0.1 0.6 1.1 1.6 2.4 3 2.1 2.3 5.1 5.4 4.9 7.7 -0.1 0.8-0.5 1.4-1.2 1.9 -0.9 0.7-1.9 0.9-3 0.7 -3.6-0.6-7.1-5.8-9-8.6 -0.6-0.9-1-1.5-1.3-1.7 -0.2-0.2-0.6-0.4-1.2-0.7 -2.7-1.4-8.2-4.3-7.7-12.3h0c0.3-3.8 2.8-5.5 2.9-5.5 0 0-2 0.9-2.9 3.4 -0.7-0.6-2.5-1.6-5.1-3 -7.3-4-20.4-11.1-23.4-18.5 0-0.1-0.1-0.1-0.1-0.2 -0.2-0.5-0.3-0.9-0.4-1.4l0-0.1 0 0c-0.4-1.8-0.5-3.5-0.5-3.6 0 0-0.2 1.5 0 3.2 -4.4-3.6-9.1-6.3-12.7-8.2 -3.9-2-6.6-3.1-6.6-3.1 0.1 0 5.2 2.6 11 6.2 2.2 16.1 12.1 26.2 21.6 35.9 11 11.2 22.4 22.9 23 43.9v0.1l0.1 0.1c8.1 8.7 19.6 13.9 30.8 13.9 8.6 0 15.9-3.1 20.3-8.8 2.4-3.1 4.3-8.2 6.6-14.2 6.2-16.5 14.7-39 41.7-40.9 0.8-0.1 1.5-0.1 2.2-0.1 3.5 0 4.2 0.8 4.2 1.2 0.1 0.5-0.3 1-1 1.7 -1-0.1-1.9-0.1-2.9-0.1 -23.7 0-32.4 25.3-35.5 40.4 -5.4 26.3-19.6 39.7-42.2 39.7 -2.5 0-5.1-0.2-7.7-0.5 -13.4-1.6-25.7-7.6-36.1-15.9 0.2 0 0.5-0.1 0.7-0.1 13.8-1.7 17.4-7.9 18.4-15.6 -3 12.3-11.2 13.8-18.5 15.1 -5.3 0.9-9.8 1.7-10.9 6.7 -1.7 8.1 4.8 16.4 10.6 23.7 1.1 1.4 2.1 2.7 3 3.9 3.6 4.8 5.8 8.8 3.3 11.6C429.2 385.1 412.2 392.4 390.8 396.7zM348.6 359.7c-0.9 0.2-2 0.3-3.3 0.3 0 0 0 0 0 0 -9 0-25-6.5-42.8-17.4 -16.4-10.1-29.9-21.4-33.5-28.1 -0.7-1.2-1-2.3-1-3.2 0.1-6.6 21.1-2.7 21.2-2.7 0 0-16.4-4.1-20.7 0.3 0.8-5.1 5.7-8.2 13-8.2 3.4 0 7.1 0.7 11 2 10.4 3.5 25.6 18.1 36.7 28.8 3.8 3.7 7.1 6.9 9.5 8.9l0.7 0.6 -0.3-0.9c-0.3-1-0.7-2.1-1.3-3.3 -0.9-2.1-2.1-4.5-3.4-7.1 -7.2-14.5-18-36.5-11.1-59.3 0.5-1.6 1.2-3 2.2-4.3 1.8 1.4 4.2 2.5 7.2 2.5 0.2 0 0.4 0 0.6 0 1.3-0.1 2.3-0.3 3.2-0.6 0.2 1.6 0.3 3 0.3 4.3 -1.8 1.1-3.6 2.3-5 3.7 -1.1 0.1-2.2 0.3-2.9 0.6 -0.1 0-6.9 3.6-7.2 8.2 -0.1 2 1 3.9 3.4 5.6 0.1 0.3 0.1 0.5 0.3 0.8 0 0 0 0.1 0 0.1 0 0 0 0.1 0 0.1l0 0c0.8 1.8 2.5 3 4.3 3 0.2 0 0.4 0 0.7-0.1 1.5 5.6 4.3 12.1 8.6 18.8 3.1 4.8 7.9 11.1 14.9 17.1 0.2 2.5 0.4 4.9 0.6 7.4 0.2 2.2 0.4 4.3 0.5 6.3C355.7 351.8 355 358.1 348.6 359.7zM344.1 264.9c0.2 0 0.5 0.1 0.7 0.1 -0.3 7.7 2 14.1 7 19.1 -1.5 0.2-2.8 1.4-3.3 3.1 -2.7 0-6.4-0.4-9.6-2 -0.3-0.1-0.5-0.3-0.8-0.5 -0.1 0-0.1-0.1-0.2-0.1 -0.2-0.1-0.3-0.3-0.4-0.4 -0.9-1-1.2-2.2-1.2-3.3 0-0.3 0-0.5 0-0.8 0 0 0 0 0-0.1 0-0.2 0.1-0.5 0.1-0.7 0-0.1 0.1-0.2 0.1-0.2 0.2-0.5 0.3-1 0.5-1.6 0 0 0 0 0 0l0.1-0.2 0 0c0.5-2.4 0.5-5.5 0.1-9.5 0.9-0.4 1.6-1 2.3-1.5C340.8 265.3 341.9 264.5 344.1 264.9zM363 249.4c-0.5-1.3-1.5-2.4-3-3.1 2.1-4.5 0.7-10.6-2.1-14.9 4.9-2.4 10.5-8.9 12.5-17.6 0.5-2.1-0.1-3.7-1.1-4.5 -1.4-1-4.2-0.9-7.5 0.4 -0.9 0.4-1.7 0.8-2.5 1.2 7.6-7.1 9.9-10.9 10-17 2 1.1 4.4 1.8 7 1.8 0.6 0 1.1 0 1.7-0.1 3.6-0.4 6.7-2.2 9.3-4.3 -0.4 7.3-1.6 13.6-2.7 19.4 -1.4 7.1-2.5 13.2-2 19.6 0.6 7 3.3 12.7 6.4 19.3 2.6 5.5 5.4 11.5 7.5 19.3 -5.3 0.7-10.8 2.3-15.3 5.2 -3.9 2.5-6.7 5.7-8.6 9.5 -1.9 0.9-3.8 1.6-5.6 2.1 -1.9-2.4-4.4-3.9-6.4-3.9 -0.7 0-1.4 0.2-1.8 0.6 -5.3-8-7-13.5-7.3-17.4 4.3-0.6 8.7-2.2 10.4-5.3C363.8 256.3 364.2 252.3 363 249.4zM327.5 204c-8.6-1.1-14.9-9.3-16.6-11.8l0 0c-2-2.9-3.8-4.3-5.2-5.4 -0.9-0.7-1.6-1.3-2.2-2.1 2.6-1.3 3.8-3.4 3.8-3.4 0 0-1.4 1.8-4.1 3l0 0 -0.2 0.1c-0.4 0.2-0.8 0.3-1.2 0.4 0 0 0 0-0.1 0 -1.4 0.4-3.4 0.6-5.6 0.6 -2.3 0-4.7-0.2-6.6-0.7l-0.1 0 -0.1 0.1c-2 1.1-4 1.7-5.7 1.7 -1.9 0-3.4-0.7-4.1-2 -0.7-1.1-0.7-2.6 0-4.2l0 0c0 0 1.6-3.2 8.2-3 0.3 1 0.7 1.6 0.7 1.6 -1.5-4.5-0.7-9 1.9-12.2 0 0-1 0.9-1.9 2.5 -5.4-1.7-10.8-1.1-11.4-1 -1.5-0.5-3.3-2.3-3.5-4.3 -0.1-1.2 0.3-2.8 2.8-4.1 1-0.5 2.1-0.8 3.4-0.8 2.9 0 5.9 1.5 8.2 2.8 1.7 0.9 3 1.6 3.9 1.6 0.1 0 0.1 0 0.2 0 1.1-0.1 2.8 0.3 4.7 0.7 1.9 0.5 3.9 0.9 5.6 0.9 0.4 0 0.8 0 1.2-0.1 -1.8 2.5-1.5 6.1-1.5 6.1 0 0 0.1-4.3 2.6-6.5 0.2-0.1 0.4-0.3 0.5-0.4 0 0 0 0 0 0l0 0c0.8-0.8 1.5-2 2.3-3.3 1.6-2.9 3.5-6.1 6.8-5.8 4.2 0.4 7.2 2.1 7.4 4.3 0.2 1.7-1.4 3.4-4.2 4.5 -3.4 1.3-3.6 4.2-3.7 6.6 0 0.6-0.1 1.2-0.2 1.8 -0.3 2-2.4 3.2-2.4 3.2 0 0 1-0.3 1.8-1.1 1.5 1.6 4.2 3.5 7.4 5.7 2.2 1.5 4.6 3.1 6.8 4.9 3.7 2.9 6.9 6 7.8 9.1l0 0.1 0.1 0.1c7.1 4.5 13.2 4.6 19 4.7 4.5 0.1 8.9 0.2 13.3 2.4 -1.6 3.3-4.8 6.6-10.2 11.6 -3.9 2.7-6.8 6.4-8.4 10.3 -1.7-2.3-3.5-4.2-5.3-5.8 -2.5-2.3-5-4.1-7.4-5.8 -3.1-2.2-5.8-4.2-7.5-6.4 0.1 0 0.2 0 0.3 0 2.6 0 4.4-1.3 4.4-1.3C333.2 203.4 330.7 204.3 327.5 204zM279.5 179.2c-4.6-0.1-7.6-1.7-7.8-4.5 -0.3-2.7 2.1-5.5 5.2-6.1l0 0c0.2 0 5.7-0.8 11.1 1 -0.4 0.8-0.7 1.7-0.9 2.7 -0.3 1.8-0.1 3.3 0.3 4.5 -4.8-0.2-7 1.4-7.9 2.4H279.5zM360.6 181.9l0-0.1 0 0c-0.4-1.5-0.7-2.9-0.8-2.9 0 0 0 1.4 0.3 2.8 -3.2-1-12.5-6-13.7-9.2l-0.2-0.4 -0.3 0.3c-0.9 1.1-1.1 3.2-1.1 4.2 -2.3-1.1-4.8-4.1-5-7l0-0.5 -0.4 0.4c-0.9 0.9-1.5 2.8-1.9 4.1 -4.4-3.5-3.6-10.1-3.6-10.2l0.1-0.4 -0.4 0.1c-0.8 0.2-1.7 1-2.4 2 -1.1-5.4-1.5-15.3 4.6-18.6 1.7-0.9 3.2-1.3 4.6-1.3 2 0 3.6 0.9 4.9 1.7 1 0.6 1.9 1.2 3 1.3 1.1 0.1 2.8-0.2 4.9-0.5 2.5-0.5 5.6-1 9.2-1 0.7 0 1.4 0 2 0.1 4.6 0.3 10.3 3.2 14.4 5.4 2.5 1.3 4.3 2.2 5.2 2.2h0c0.6 0 1.1-0.4 1.9-1 2.3-1.7 6.6-5 18.2-5h0.3l0.1 0c2.6-1.6 6.5-2.4 10.6-2.4 5 0 9.8 1.4 13 3.7 5.6 4.1 8.2 9 7.9 14.5 -0.5-0.7-1.2-1.4-1.6-1.7l-0.5-0.3 0.1 0.6c0.9 4.9-1.8 9.4-4 11.6 0-1.1-0.5-2.3-0.8-2.7l-0.4-0.5 0 0.6c-0.1 3.7-4.6 7.2-6.5 7.5 0.3-0.8 0.3-1.9 0.1-2.4l-0.2-0.4 -0.3 0.3c-4 4.6-18.4 8.3-25.7 8.3 -1.3 0-2.3-0.1-3-0.4 1.2-2.2 1.5-4.5 1.5-4.5 0 0-0.5 2.3-1.8 4.4l0 0 -0.1 0.2c-2.6 3.5-7.9 9.6-14.7 10.4 -0.6 0.1-1.1 0.1-1.6 0.1C368.3 195.2 362.9 188.3 360.6 181.9zM339.5 74.9c0.7-9.7 4.7-17.6 8.4-21 1.3-1.2 2.5-1.8 3.5-1.8 1.1 0 1.9 0.7 2.5 2 3.4 7.8 8.2 12.7 12.9 17.5 5.5 5.6 10.4 10.7 11.7 19.3 -2.1-0.1-4.3 0-6.7 0.4l0 0.5c1.5 0.5 3.6 2 4.5 3.3 -1.3-0.1-2.9 0.1-4.4 0.6 -1.5 0.5-3.1 1.3-4.5 2.2 1.8-9.7-3.3-15.7-8.6-21.9 -3.5-4.1-7.1-8.3-8.8-13.7 -0.5-1.6-1.3-2-1.8-2 -2.3 0-5.2 6.5-6.2 18.9 -0.8 9.8 3.6 18.4 7.9 23.1 1.7 1.9 3.6 3.3 5.4 4.2 -0.3 0.4-0.7 0.8-1 1.2 -0.3 0.4-0.6 0.8-0.9 1.2C341.9 102.5 338.6 87.9 339.5 74.9zM366.5 98.4c-0.1 0.1-0.2 0.2-0.4 0.3 -4.1 1.7-7.7 4.2-10.7 7.5 -1.8-0.9-3.7-2.3-5.4-4.2 -5.4-5.9-8.5-14.8-7.8-22.7 1.1-12.7 4-18.5 5.7-18.5 0.5 0 1 0.6 1.3 1.6 1.8 5.5 5.4 9.8 8.9 13.9C363.5 82.6 368.6 88.6 366.5 98.4zM364.8 99.9c-1.3 1.2-2.4 2.6-3.1 4.1l-0.4 0.8 0.7-0.5c1.3-0.9 5.9-1.7 8.3-1.5 -3.3 2.9-5.5 10.9-5 14.7l0.5 0.1c1.1-3 4.4-8.1 9-9.2 -3.4 0.5-6.3 2.6-9 7.9 0-4.2 2.3-11.4 5.4-13.5l0.6-0.4 -0.7-0.1c-1.8-0.3-6.4 0.3-8.6 1.2 2.7-4.9 9.9-8.5 14-7.7l0.5 0.1 -0.2-0.5c-0.6-1.3-2.5-2.9-4.1-3.7 14-1.9 21.6 5.8 21.8 6l0 0c0.2 0 0.5 0.1 0.7 0.1 -0.5 0.7-1 1.4-1.7 2.1 3-2 5.6-7.5 6.7-13.7 1.1-5.8 2.6-11.8 9.2-19 7-7.6 12.9-10.6 18.2-13.2 3-1.5 5.8-2.9 8.4-5 0.8-0.6 1.6-0.7 2.4-0.1 0.3 0.2 0.7 0.5 1 0.9 3.6 4.1 6.3 17.2 2.8 33 -2.1 9.6-6.5 16.5-11.3 21.5 -6.6 6.8-13.8 9.9-16.9 11 0.4-0.1 0.7-0.2 1.2-0.4 1.5-0.5 3.4-1.2 5.5-2.3 10.1 12 12.6 28.6 12.8 41.4 -1.3-1.6-2.9-3.2-4.8-4.6 -3.4-2.5-8.1-3.8-13.3-3.8 -4.2 0-8.1 0.9-10.8 2.5h-0.1c-0.6 0-1.2 0-1.7 0 -0.3 0-0.5 0-0.8 0 -1.4 0.1-2.7 0.2-3.8 0.3 -0.2 0-0.3 0-0.5 0.1 -2.1 0.3-3.8 0.7-5.2 1.2 -0.2 0.1-0.3 0.1-0.5 0.2 -1 0.4-1.9 0.7-2.6 1.1 -0.2 0.1-0.4 0.2-0.6 0.3 -1.2 0.7-2 1.3-2.7 1.8 -0.7 0.5-1.2 0.9-1.6 0.9 -0.7 0-2.7-1-5-2.2 -4.2-2.2-9.9-5.1-14.7-5.4 -0.7 0-1.4-0.1-2-0.1 -0.8 0-1.5 0-2.2 0.1 -0.2 0-0.4 0-0.6 0 -1.2 0.1-2.3 0.2-3.4 0.4 -0.2 0-0.3 0-0.5 0.1 -0.9 0.1-1.8 0.3-2.5 0.4 -0.1 0-0.3 0-0.4 0.1 -0.2 0-0.3 0.1-0.5 0.1 -0.9 0.2-1.8 0.3-2.5 0.4 -0.2 0-0.4 0-0.7 0 -0.2 0-0.4 0-0.6 0 -0.9-0.1-1.8-0.6-2.8-1.2 -1.4-0.9-3-1.8-5.2-1.8 -0.7 0-1.5 0.1-2.2 0.3 1.8-3.7 3.3-8.1 4.8-12.6C347.2 119.9 351.8 106.1 364.8 99.9zM394.6 97.6l0 0L394.6 97.6 394.6 97.6zM371.2 287.6c-0.8 0.3-1.6 0.6-2.5 0.9 -0.4-0.9-0.8-1.7-1.3-2.5 1.7-0.5 3.3-1.1 5-1.8C371.9 285.3 371.5 286.5 371.2 287.6zM368.6 290c0.4 1.6 0.3 2.8-0.2 3.6 -0.5 0.7-1.3 0.8-1.9 0.8 -0.6 0-1.2-0.1-1.8-0.4 0.1-1.9-0.4-4.4-2-7 -1.3-2.2-2.6-3.5-3.6-4.2 0.4-0.4 1-0.5 1.6-0.5C363.1 282.3 367.4 285 368.6 290zM333.4 293.8c-1.4-1.5-2.1-3.1-2-4.7 0.2-3.6 3.9-6.5 4-6.6 0 0-4.3 2.7-4.5 6.5 -0.1 1.4 0.3 2.7 1.2 4 -0.7 0.5-1.4 0.8-2.2 0.8 -1.6 0-3.2-1.2-3.9-2.9 0 0 0 0 0 0 -0.1-0.2-0.2-0.5-0.2-0.7l0-0.1c-0.7-4.3 6.8-10 6.8-10.1 0 0-7.4 5.1-7.4 9.6 -1.9-1.5-2.9-3.1-2.7-4.8 0.3-4.3 6.9-7.7 6.9-7.7 0.8-0.4 2-0.6 3.2-0.6 1.6 0 3 0.4 4 1 -1.4 3.8-0.6 6.8 2.1 8.2 0.7 4.7-0.2 6.8-1 7.8 -0.7 0.8-1.5 1-2.1 1C334.7 294.5 334 294.2 333.4 293.8zM336.7 276.9c-1.3-0.8-2.8-1-3.8-1 1.2-1.1 2.6-2.1 4.2-3C337 274.4 336.9 275.8 336.7 276.9zM339.2 286c3.1 1.4 6.6 1.8 9.2 1.8 0 0 0 0.1 0 0.1 -0.2 0.9-0.3 1.9-0.3 2.8 -3.2-0.2-6.1-0.7-8.7-1.4C339.4 288.4 339.3 287.3 339.2 286zM348.9 288c0.4-1.9 1.8-3.4 3.3-3.4 1.7 0 3.1 1.8 4 4.9 1 3.8 0.3 6.6-0.8 8 -0.9 1.2-2.2 1.6-3.4 1C349.4 297.2 348 292.5 348.9 288zM356.7 289.4c-0.7-2.7-1.7-4-2.7-4.7 0.5-1.2 1.5-2.2 2.7-2.2 1.7 0 3.6 1.7 5.4 4.7 2.5 4.1 2.2 7.6 1.2 9.4 -0.7 1.2-1.7 1.8-2.8 1.8 -1 0-2-0.5-3-1.5 -0.3-0.3-0.6-0.6-0.8-0.9C357.4 294.3 357.4 291.9 356.7 289.4zM358.2 282.3c-0.5-0.2-1-0.3-1.4-0.3 -1.5 0-2.6 1.1-3.2 2.4 -0.3-0.2-0.6-0.3-0.9-0.3 -5.2-5-7.6-11.4-7.3-19.1 1.6 0.1 3.6 0.1 5.6-0.1C351.3 268.9 353 274.5 358.2 282.3zM339.6 312.8c-4.2-6.6-7-13.1-8.5-18.6 0.4-0.1 0.9-0.4 1.3-0.6 0.2 0.3 0.5 0.5 0.7 0.7 0.1 0.1 0.1 0.1 0.2 0.2l0 0c0.6 0.4 1.4 0.7 2.2 0.7 1 0 1.9-0.4 2.5-1.2 0.6-0.7 1.2-1.9 1.4-4 2.6 0.7 5.6 1.2 8.8 1.4 0.1 3.5 1.5 6.7 3.6 7.8 0.5 0.3 1 0.4 1.5 0.4 1 0 2-0.5 2.7-1.5 0.3-0.4 0.5-0.8 0.7-1.2 0.2 0.2 0.4 0.5 0.7 0.7 1.1 1.1 2.3 1.7 3.4 1.7 1.3 0 2.5-0.8 3.3-2.1 0.4-0.6 0.6-1.5 0.8-2.4 0.7 0.2 1.3 0.4 1.9 0.4 1 0 1.8-0.3 2.3-1 0.7-0.9 0.8-2.3 0.3-4.1 -0.1-0.3-0.2-0.6-0.3-0.8 0.7-0.2 1.4-0.5 2.1-0.8 -0.1 0.6-0.3 1.3-0.4 1.9 -0.1 0.9-0.2 1.8-0.3 2.8 0 0.4-0.1 0.8-0.1 1.2 0 0.5-0.1 1-0.1 1.5 0 0.5 0 1-0.1 1.6 0 0.3 0 0.5 0 0.8 -0.3 21.9 12.1 38.1 24.3 50.2C363.3 343.1 346.7 323.9 339.6 312.8zM462.4 278.2c-1.4-1.3-2.4-2.1-3-2.4 0.9-0.6 1.8-1.4 2.9-2.7 1.1-1.3 1.7-2.4 2-3.4 0 0.3 0.5 0.6 1.9 1.6 2.8 2 8.7 6.1 9 9.4 0.1 0.9-0.2 1.6-0.9 2.3C471.3 286.1 465.9 281.4 462.4 278.2zM316.2 217.5c-0.1-0.4-0.1-0.7 0-0.8 0.1-0.1 0.2-0.1 0.3-0.1 2.1 0 8.7 5.3 10.4 10 -0.6 0.4-1.2 0.9-1.7 1.5C322.2 226.4 317 220.2 316.2 217.5zM316.5 216.1c-0.3 0-0.6 0.1-0.7 0.3 -0.2 0.3-0.3 0.7-0.1 1.3 0.8 2.6 5.9 9 9.2 10.9 -0.3 0.3-0.5 0.6-0.8 1 -0.3 0.4-0.6 0.9-0.9 1.3 -6.2-3.2-11.3-9.5-13.1-14.6 -0.9-2.6-0.9-4.6 0.1-6 0.5-0.8 1.4-1.1 2.5-1.1 5.3 0 15.4 7.9 19.8 15.2 -0.5 0.1-0.9 0.2-1.3 0.3 -0.6 0.2-1.2 0.4-1.7 0.6 -0.7 0.3-1.3 0.6-2 1.1C325.5 221.3 318.7 216.1 316.5 216.1z" class="c"/><path d="M351.6 264.9c0.3 3.9 1.9 9.4 7.3 17.4 0.5-0.4 1.1-0.6 1.8-0.6 2 0 4.6 1.5 6.4 3.9 1.9-0.5 3.8-1.2 5.6-2.1 1.8-3.8 4.7-7 8.6-9.5 4.5-2.9 9.9-4.5 15.3-5.2 -2.1-7.8-5-13.8-7.5-19.3 -3.1-6.6-5.7-12.3-6.4-19.3 -0.6-6.4 0.6-12.5 2-19.6 1.1-5.8 2.3-12.1 2.7-19.4 -2.6 2.1-5.7 3.9-9.3 4.3 -0.6 0.1-1.1 0.1-1.7 0.1 -2.6 0-4.9-0.7-7-1.8 -0.1 6.1-2.4 9.9-10 17 0.8-0.4 1.6-0.8 2.5-1.2 3.3-1.3 6.1-1.5 7.5-0.4 1 0.7 1.6 2.3 1.1 4.5 -2 8.7-7.6 15.2-12.5 17.6 2.8 4.3 4.2 10.5 2.1 14.9 1.4 0.6 2.4 1.7 3 3.1 1.2 3 0.8 7-1 10.2C360.2 262.7 355.8 264.3 351.6 264.9zM362.3 238.2c0.8-6.7 1.9-10 4.8-11.6 -1.2 0.7-2.4 2.6-3.2 5.6 -1.7 6-1.9 15.2 0.6 19.4C362.9 250 361.5 245 362.3 238.2z" class="a"/><path d="M551 268.6c-23.3 0-31.9 25-34.9 40 -5.4 26.6-19.8 40.1-42.7 40.1 -2.5 0-5.1-0.2-7.8-0.5 -12.9-1.5-25.7-7.2-36.8-16.3 -4.4 0.7-8 1.9-8.9 6.1 -1.4 6.7 3 13.6 7.9 20 12.3 3.1 23 3.9 30.6 3.9 0 0 0 0 0 0 10.5 0 20.8-1.5 28.9-4.1 18.4-6 31.4-16.7 35.1-49.3 3.5-31 20.1-35.7 25.6-37.2 0.3-0.1 0.5-0.1 0.7-0.2 1.6-0.5 3.4-1.4 4.6-2.4C552.5 268.7 551.7 268.6 551 268.6z" class="a"/><path d="M364 232.2c0.8-2.9 2-4.9 3.2-5.5 -2.9 1.6-4 4.9-4.8 11.6 -0.9 6.8 0.6 11.8 2.2 13.4C362.1 247.4 362.2 238.1 364 232.2z" class="c"/><path d="M394.4 348.1c-12.2-12.1-24.6-28.2-24.3-50.2 0-0.3 0-0.5 0-0.8 0-0.5 0-1 0.1-1.6 0-0.5 0.1-1 0.1-1.5 0-0.4 0.1-0.8 0.1-1.2 0.1-0.9 0.2-1.8 0.3-2.8 0.1-0.7 0.2-1.3 0.4-1.9 -0.7 0.3-1.4 0.5-2.1 0.8 0.1 0.3 0.2 0.6 0.3 0.8 0.5 1.8 0.3 3.2-0.3 4.1 -0.5 0.7-1.3 1-2.3 1 -0.6 0-1.2-0.1-1.9-0.4 -0.1 0.9-0.4 1.8-0.8 2.4 -0.8 1.4-2 2.1-3.3 2.1 -1.2 0-2.3-0.6-3.4-1.7 -0.2-0.2-0.4-0.5-0.7-0.7 -0.2 0.4-0.4 0.9-0.7 1.2 -0.7 1-1.7 1.5-2.7 1.5 -0.5 0-1-0.1-1.5-0.4 -2.1-1.1-3.5-4.3-3.6-7.8 -3.2-0.2-6.1-0.7-8.8-1.4 -0.2 2.1-0.8 3.3-1.4 4 -0.7 0.8-1.5 1.2-2.5 1.2 -0.8 0-1.5-0.3-2.2-0.7L333.2 294.4c-0.1-0.1-0.1-0.1-0.2-0.2 -0.3-0.2-0.5-0.4-0.7-0.7 -0.4 0.3-0.8 0.5-1.3 0.7 1.5 5.5 4.3 12 8.5 18.6C346.7 323.9 363.3 343.1 394.4 348.1z" class="a"/><path d="M336.7 276.9c0.2-1.2 0.3-2.5 0.3-4 -1.5 0.9-2.9 2-4.2 3C333.8 276 335.4 276.2 336.7 276.9z" class="d"/><path d="M348.1 290.7c0-0.9 0.1-1.9 0.3-2.8 0 0 0-0.1 0-0.1 -2.6 0-6.1-0.4-9.2-1.8 0.2 1.3 0.2 2.4 0.2 3.3C342 290 344.9 290.5 348.1 290.7z" class="d"/><path d="M367.4 286.1c0.5 0.8 1 1.6 1.3 2.5 0.9-0.3 1.7-0.6 2.5-0.9 0.3-1.2 0.7-2.3 1.2-3.4C370.7 285 369.1 285.6 367.4 286.1z" class="d"/><path d="M432.9 365.6c-0.5 2.5-14.7 2-19.1-0.2 1.2 1.3 2.2 2.6 2.9 3.7l0.3 0.6 -0.6-0.2c-16.8-4.4-55.5-2.7-69.7 7.6 -3.2 2.3-5 4.9-5.4 7.8 3.8-4.6 13.7-6.5 13.7-6.5 -0.1 0-11.6 3.2-14.2 8.2 -1.2 3-1.1 5.7 0.2 7.7 1.4 2.1 4 3.3 7.3 3.4 -0.8-0.7-1.2-1.6-1.2-2.6 0-5.4 10.1-10.1 10.1-10.1 -4.5 2.6-9.6 6.6-9.6 10.1 0 1.3 0.8 2.4 2.4 3.2 6.5 2.5 23.1 1.9 40.7-1.7 21.4-4.4 38.4-11.7 45.4-19.5C438.7 374.5 436.4 370.4 432.9 365.6z" class="a"/><path d="M432.9 365.6c-0.9-1.3-2-2.6-3-3.9 -5.8-7.3-12.3-15.6-10.6-23.7 1.1-5 5.6-5.8 10.9-6.7 7.3-1.3 15.5-2.7 18.5-15.1 -1 7.7-4.6 13.9-18.4 15.6 -0.2 0-0.5 0.1-0.7 0.1 10.3 8.3 22.7 14.3 36.1 15.9 2.7 0.3 5.3 0.5 7.7 0.5 22.6 0 36.9-13.4 42.2-39.7 3.1-15.1 11.8-40.4 35.5-40.4 0.9 0 1.9 0 2.9 0.1 0.6-0.6 1-1.2 1-1.7 -0.1-0.5-0.7-1.2-4.2-1.2 -0.7 0-1.4 0-2.2 0.1 -27 1.9-35.5 24.5-41.7 40.9 -2.2 6-4.2 11.1-6.6 14.2 -4.4 5.7-11.7 8.8-20.3 8.8 -11.2 0-22.7-5.2-30.8-13.9l-0.1-0.1v-0.1c-0.6-21-12-32.7-23-43.9 -9.5-9.8-19.4-19.8-21.6-35.9 -5.8-3.6-10.9-6.1-11-6.2 0 0 2.7 1 6.6 3.1 1.7-1.5 3.2-2.8 5.7-3.2 3.8-0.5 6.1-0.1 10.9 3 2 1.6 5 0.4 8 0 -1-0.6-1.7-0.9-2.2-1.1 -1.8-0.9-3.5-0.3-3.5-0.3 0 0 0.9-0.6 2.2-0.5 -1.1-1-2.7-3.1-4.7-5.7 -5.8-7.4-15.6-19.9-23.1-20.4 -1.9-0.1-3.6 0.5-5.1 1.9 0 0 1.6-2.7 5.1-2.4 0.1 0 0.1 0 0.2 0 -1-4.1-1.3-9.7-0.1-18.4 -0.1 0-0.1 0-0.2-0.1 -1.2 1.6-2.9 3.7-5.1 5.6 -0.4 7.6-1.6 14-2.7 19.9 -1.3 7-2.5 13.1-2 19.4 0.6 6.9 3.3 12.6 6.3 19.1 2.6 5.5 5.4 11.6 7.6 19.5 9.9-1.2 19.5 0.7 22.9 2.9 -14.6-4.3-28.9-3.3-38.4 2.8 -5.8 3.7-9.4 9.2-10.4 15.8 -4.7 32.5 18.6 53.4 34 67.2 3.4 3.1 6.4 5.7 8.6 8.1C418.2 367.6 432.4 368.1 432.9 365.6z" class="b"/><path d="M416.5 232.2c-4.8-3.2-7-3.5-10.9-3 -2.5 0.4-4 1.7-5.7 3.2 3.6 1.9 8.3 4.7 12.7 8.2 -0.2-1.7 0-3.2 0-3.2 0 0 0.1 1.7 0.5 3.6l0 0 0 0.1c0.1 0.5 0.2 0.9 0.4 1.4 0 0.1 0.1 0.2 0.1 0.2 3 7.3 16.1 14.5 23.4 18.5 2.6 1.4 4.4 2.4 5.1 3 0.9-2.5 2.9-3.4 2.9-3.4 0 0-2.5 1.6-2.9 5.5h0c-0.5 8 5 10.9 7.7 12.3 0.6 0.3 1 0.5 1.2 0.7 0.3 0.2 0.7 0.8 1.3 1.7 1.9 2.8 5.4 8 9 8.6 1.1 0.2 2-0.1 3-0.7 0.7-0.5 1.1-1.2 1.2-1.9 0.2-2.4-2.7-5.4-4.9-7.7 -1.3-1.4-2.2-2.3-2.4-3 -1.6 0.8-2.6 0.5-2.6 0.5 4.7-1.6 8.5-6.1 8.5-9.9 0 0 0.4 0.9-0.1 2.5 0.2-0.3 0.9-0.2 2.4 0.3 1.8 0.5 4.6 1.4 7.7 1.4 1.8 0.1 3.3-0.7 4.1-2.1 0.8-1.4 0.8-3.4 0-4.7 -0.7-1-1.8-1.5-3.1-1.4 -3.9 0.3-7.2-1.4-9.7-2.7 -1-0.5-1.9-1-2.6-1.2 -0.9 2.6-3.4 3.6-3.4 3.6 0 0 2.7-1.5 3.2-4.6 0-0.5 0.1-1 0.1-1.5 0.1-1.2 0.1-2.3 0.5-3.2 0.2-0.5 0.5-1.1 0.9-1.8 1-1.9 2.3-4.4 1.6-6.2 -0.4-0.9-1.4-1.6-2.8-2.1 -1.7-0.5-3.1-0.4-4 0.2 -1.5 1-1.8 3.6-1.9 5.4 -0.1 1-0.2 1.9-0.4 2.3 -0.5 0.8-1.6 1.2-3 1.6 -1.3 0.4-2.6 0.9-3.7 1.7 0 0 0 0 0 0 -0.2 0.1-0.3 0.3-0.5 0.4 -0.1 0.1-0.1 0.1-0.2 0.2 -0.1 0.1-0.1 0.2-0.2 0.2 -1.3 1.7-1 3.8-1 3.8 0 0-0.5-2 0.4-3.8 -7.7-13-19-20.3-24.1-23.1C421.6 232.7 418.6 233.9 416.5 232.2z" class="a"/><path d="M475.1 280.7c-0.3-3.4-6.2-7.5-9-9.4 -1.4-1-1.9-1.3-1.9-1.6 -0.3 0.9-0.9 2.1-2 3.4 -1.1 1.3-2.1 2.1-2.9 2.7 0.6 0.3 1.6 1.1 3 2.4 3.5 3.2 8.9 8 11.9 4.8C475 282.3 475.2 281.5 475.1 280.7z" class="a"/><path d="M350.6 54.3c2.1 2.1 3 9.4 4.9 13.4 3.7 7.4 8.9 8.3 12.9 16 2.1 4.1 3 8.1 3.3 12.1 1.6-0.5 3.1-0.8 4.4-0.6 -0.9-1.3-3-2.8-4.5-3.3l0-0.5c2.4-0.4 4.7-0.5 6.7-0.4 -1.3-8.6-6.2-13.7-11.7-19.3 -4.6-4.8-9.5-9.8-12.9-17.5 -0.6-1.3-1.4-2-2.5-2 -1 0-2.2 0.6-3.5 1.8C348.8 53.4 349.7 53.6 350.6 54.3z" class="b"/><path d="M353.1 109c0.3-0.4 0.6-0.8 0.9-1.2 0.3-0.4 0.7-0.8 1-1.2 -1.8-0.9-3.7-2.4-5.4-4.2 -4.4-4.8-8.7-13.3-7.9-23.1 1-12.4 3.9-18.9 6.2-18.9 0.5 0 1.3 0.3 1.8 2 1.7 5.4 5.3 9.7 8.8 13.7 5.3 6.3 10.4 12.2 8.7 21.9 1.4-0.9 3-1.7 4.5-2.2 -0.2-4-1.1-8-3.2-12.1 -4-7.7-9.2-8.5-12.9-16 -1.9-4-2.8-11.2-4.9-13.4 -0.9-0.7-1.8-1-2.7-0.5 -3.7 3.4-7.7 11.3-8.4 21C338.6 87.9 341.9 102.5 353.1 109z" class="e"/><path d="M349.2 62.4c-0.3-1-0.8-1.6-1.3-1.6 -1.7 0-4.6 5.7-5.7 18.5 -0.7 7.9 2.4 16.8 7.8 22.7 1.7 1.9 3.6 3.3 5.4 4.2 3.1-3.3 6.6-5.8 10.7-7.5 0.1-0.1 0.2-0.2 0.4-0.3 2-9.8-3.1-15.8-8.4-22C354.6 72.3 351 68 349.2 62.4z" class="f"/><path d="M362.3 127.3c-1.1-2.5-2.7-4.2-4.6-4.8 -0.2-0.1-0.4-0.1-0.6-0.1 -0.6-0.1-1.1-0.1-1.7 0 -4.1 0.6-7.7 5.8-8.7 12.2 -0.5 3.6-0.2 7.2 1 10 0.5 1.3 1.2 2.3 2 3.1 0.7-0.1 1.6-0.2 2.5-0.4 -2.9-1.2-4.4-5.9-3.4-10.9 1.1-5 4.5-8.3 7.5-7.3 3.1 1 4.7 5.9 3.6 11 -0.6 3-2.1 5.3-3.8 6.6 1.1-0.2 2.2-0.3 3.4-0.4 1.8-2.2 3.2-5.4 3.7-9C363.9 133.7 363.5 130.1 362.3 127.3z" class="g"/><path d="M343 132.4c-1.5 4.5-3 8.9-4.8 12.6 0.8-0.2 1.5-0.3 2.2-0.3 2.2 0 3.8 1 5.2 1.8 1 0.6 1.9 1.1 2.8 1.2 0.2 0 0.4 0 0.6 0 -2.4-2.8-3.6-7.9-2.8-13.3 1.2-7.8 6.3-14.4 11.1-13.6 0.2 0 0.4 0.1 0.7 0.1 4.5 1.3 6.8 9 5.7 16.3 -0.5 3.5-1.8 6.6-3.5 8.9 0.7 0 1.5-0.1 2.2-0.1 0.7 0 1.4 0 2 0.1 4.8 0.3 10.5 3.3 14.7 5.4 2.3 1.2 4.2 2.2 5 2.2 0.4 0 0.9-0.4 1.6-0.9 0.7-0.5 1.6-1.2 2.7-1.8 -0.3-0.2-0.6-0.4-0.9-0.6 -3.6-2.6-6.1-7.3-6.6-12.6 -0.8-8.7 4.1-18 10.9-18.7l0.1 0c2.5-0.3 5.2 1.2 7.5 2.8 3.6 2.6 5.9 8.2 6.4 13.4 0.4 4.8-0.9 9.3-3.2 12.5 0.6 0 1.1 0 1.7 0h0.1c2.7-1.6 6.6-2.5 10.8-2.5 5.2 0 9.9 1.4 13.3 3.8 2 1.4 3.6 3 4.8 4.6 -0.2-12.8-2.7-29.3-12.8-41.4 -2.1 1.1-4 1.8-5.5 2.3 0 0 0 0 0 0 -2.1 0.8-13.3 3.7-5.4-13 4.5-9.5 1.9-17.6 6.9-29.2 4.5-9 14.6-10.4 21.1-21.2 0.7-1.3 1.3-1.7 1.7-1.6 -0.3-0.4-0.7-0.7-1-0.9 -0.9-0.5-1.7-0.5-2.4 0.1 -2.6 2.1-5.4 3.5-8.4 5 -5.3 2.7-11.2 5.7-18.2 13.2 -6.6 7.2-8.1 13.2-9.2 19 -1.1 6.2-3.6 11.7-6.7 13.7 0.6-0.7 1.2-1.4 1.7-2.1 -0.2 0-0.5-0.1-0.7-0.1l0 0c-0.2-0.2-7.8-7.9-21.8-6 1.6 0.8 3.6 2.3 4.1 3.7l0.2 0.5 -0.5-0.1c-4.1-0.7-11.4 2.8-14 7.7 2.2-0.9 6.7-1.5 8.6-1.2l0.7 0.1 -0.6 0.4c-3.1 2.1-5.4 9.3-5.4 13.5 2.7-5.3 5.6-7.4 9-7.9 -4.5 1-7.9 6.2-9 9.2l-0.5-0.1c-0.5-3.8 1.7-11.8 5-14.7 -2.4-0.1-7 0.6-8.3 1.5l-0.7 0.5 0.4-0.8c0.6-1.4 1.7-2.8 3.1-4.1C351.8 106.1 347.2 119.9 343 132.4zM404.2 118.7c-4.1-5.5-8.7-5.6-10.9-5.3 -1.9 0.3-1.9-1.3-0.4-1.5C398.3 111.3 402.7 114.7 404.2 118.7zM359.1 115.8c-1.7-0.2-5.3-0.2-8.5 4.1 1.2-3.2 4.6-5.8 8.8-5.3C360.5 114.7 360.6 116 359.1 115.8z" class="b"/><path d="M405.2 135.5c-0.4-4.1-2-7.8-4.5-10.5 -2.5-2.7-5.6-3.9-8.7-3.6l-0.1 0c-0.8 0.1-1.5 0.3-2.2 0.5 -5.3 2-8.7 8.7-8.1 15.9 0.4 4.1 2 7.8 4.5 10.5 0.9 1 2 1.8 3.1 2.4 0.7-0.4 1.6-0.8 2.6-1.1 -3.7-1.1-6.5-5.4-6.5-10.4 -0.1-5.8 3.5-10.4 8-10.3 4.5 0.1 8.2 4.9 8.2 10.7 0 3.6-1.4 6.8-3.5 8.6 1.2-0.1 2.4-0.3 3.8-0.3C404.3 144.8 405.6 140.3 405.2 135.5z" class="g"/><polygon points="394.6 97.6 394.6 97.6 394.6 97.6 " class="b"/><path d="M437.7 51.3c-6.6 10.9-16.7 12.3-21.1 21.2 -5 11.6-2.4 19.7-6.9 29.2 -8 16.7 3.3 13.8 5.4 13 0 0 0 0 0 0 -0.4 0.1-0.8 0.3-1.2 0.4 3.1-1.1 10.4-4.2 16.9-11 4.8-5 9.2-11.9 11.3-21.5 3.5-15.8 0.9-28.9-2.8-33C439 49.6 438.4 50 437.7 51.3zM437.7 86.4c-3.1 7.7-9.5 18.4-22.6 25.3l-0.1 0c-0.9 0.5-1.7 0.7-2.2 0.7 -0.5 0-0.7-0.2-0.9-0.4 -0.3-0.6 0.1-1.4 0.4-2.1 4.6-7.8 5.2-12.5 5.8-17.4 0.5-3.7 0.9-7.5 3.1-12.9 3.3-8 7-11.4 10.5-14.7 1.9-1.8 3.7-3.5 5.4-5.9 0.6-0.9 1.3-0.9 1.9-0.1C441.1 61.9 441.6 76.4 437.7 86.4z" class="e"/><path d="M438.2 59c-0.2 0-0.4 0.2-0.6 0.4 -1.7 2.4-3.6 4.1-5.5 5.9 -3.5 3.2-7.1 6.6-10.4 14.5 -2.2 5.2-2.6 9-3.1 12.7 -0.6 5-1.2 9.8-5.8 17.7 -0.5 0.8-0.5 1.4-0.4 1.6 0.1 0.1 0.2 0.2 0.4 0.2 0.3 0 0.9-0.1 2-0.7l0.1 0c13-6.8 19.3-17.4 22.3-25 3.9-9.8 3.4-24 1.5-26.8C438.5 59.2 438.4 59 438.2 59z" class="f"/><path d="M437.2 59.1c-1.7 2.4-3.5 4.1-5.4 5.9 -3.5 3.3-7.2 6.7-10.5 14.7 -2.2 5.3-2.7 9.1-3.1 12.9 -0.6 5-1.2 9.7-5.8 17.5 -0.4 0.6-0.8 1.5-0.4 2.1 0.1 0.2 0.4 0.4 0.9 0.4 0.5 0 1.3-0.2 2.2-0.7l0.1 0c13.1-6.9 19.5-17.6 22.6-25.3 4-10 3.4-24.4 1.4-27.3C438.5 58.2 437.8 58.3 437.2 59.1zM437.2 86.2c-3 7.6-9.4 18.2-22.3 25l-0.1 0c-1.1 0.6-1.7 0.7-2 0.7 -0.2 0-0.3-0.1-0.4-0.2 -0.1-0.2-0.1-0.7 0.4-1.6 4.6-7.9 5.2-12.6 5.8-17.7 0.5-3.7 0.9-7.5 3.1-12.7 3.3-7.9 6.9-11.3 10.4-14.5 1.9-1.8 3.8-3.5 5.5-5.9 0.2-0.3 0.4-0.4 0.6-0.4 0.2 0 0.4 0.2 0.5 0.4C440.6 62.1 441.1 76.3 437.2 86.2z" class="c"/><path d="M359.3 114.6c-4.2-0.5-7.6 2.1-8.8 5.3 3.2-4.3 6.8-4.4 8.5-4.1C360.6 116 360.5 114.7 359.3 114.6z" class="h"/><path d="M393.3 113.4c2.1-0.3 6.8-0.2 10.9 5.3 -1.5-4.1-5.9-7.5-11.2-6.8C391.4 112.1 391.4 113.7 393.3 113.4z" class="h"/><path d="M358 121.1c-0.2-0.1-0.4-0.1-0.7-0.1 -4.8-0.8-9.9 5.8-11.1 13.6 -0.8 5.4 0.4 10.4 2.8 13.3 0.2 0 0.4 0 0.7 0 -0.8-0.8-1.5-1.9-2-3.1 -1.2-2.8-1.5-6.4-1-10 1-6.4 4.6-11.6 8.7-12.2 0.6-0.1 1.1-0.1 1.7 0 0.2 0 0.4 0.1 0.6 0.1 1.9 0.6 3.6 2.3 4.6 4.8 1.2 2.8 1.6 6.4 1 10 -0.5 3.6-1.9 6.8-3.7 9 0.2 0 0.4 0 0.6 0 1.7-2.3 3-5.3 3.5-8.9C364.9 130 362.5 122.3 358 121.1z"/><path d="M360 140.1c1.1-5-0.5-10-3.6-11 -3.1-1-6.4 2.3-7.5 7.3 -1.1 4.9 0.4 9.7 3.4 10.9 0.2 0 0.3-0.1 0.5-0.1 -0.1 0-0.2 0-0.2-0.1 -3-1-4.5-5.7-3.4-10.6 1.1-4.9 4.3-8.1 7.3-7.1 3 1 4.5 5.7 3.4 10.6 -0.7 3.1-2.3 5.6-4.1 6.6 0.2 0 0.3 0 0.5-0.1C357.9 145.5 359.3 143.1 360 140.1z" class="i"/><path d="M359.8 140.1c1.1-4.9-0.5-9.6-3.4-10.6 -3-1-6.2 2.2-7.3 7.1 -1.1 4.9 0.5 9.7 3.4 10.6 0.1 0 0.2 0 0.2 0.1 0.1 0 0.3 0 0.4-0.1 0.8-0.1 1.6-0.3 2.5-0.4C357.5 145.7 359.1 143.3 359.8 140.1zM353.5 145.1c-2-0.3-3.3-3.4-2.8-6.9 0.5-3.5 2.6-6 4.6-5.7 2 0.3 3.3 3.4 2.8 6.9C357.6 142.9 355.5 145.4 353.5 145.1z" class="j"/><path d="M355.4 132.5c-2-0.3-4.1 2.2-4.6 5.7 -0.5 3.5 0.7 6.5 2.8 6.9 2 0.3 4.1-2.2 4.6-5.7C358.6 135.9 357.4 132.9 355.4 132.5z"/><path d="M405.8 135.4c-0.5-5.2-2.8-10.8-6.4-13.4 -2.2-1.6-4.9-3.1-7.5-2.8l-0.1 0c-6.8 0.8-11.7 10-10.9 18.7 0.5 5.2 2.9 9.9 6.6 12.6 0.3 0.2 0.6 0.4 0.9 0.6 0.2-0.1 0.4-0.2 0.6-0.3 -1.1-0.6-2.1-1.4-3.1-2.4 -2.5-2.7-4.1-6.4-4.5-10.5 -0.7-7.2 2.8-14 8.1-15.9 0.7-0.3 1.5-0.4 2.2-0.5l0.1 0c3.1-0.3 6.2 1 8.7 3.6 2.5 2.7 4.1 6.4 4.5 10.5 0.4 4.8-0.9 9.3-3.4 12.4 0.3 0 0.5 0 0.8 0C405 144.7 406.3 140.2 405.8 135.4z"/><path d="M401.5 139.6c-0.1-5.8-3.7-10.6-8.2-10.7 -4.5-0.1-8.1 4.5-8 10.3 0.1 5 2.9 9.3 6.5 10.4 0.2-0.1 0.3-0.1 0.5-0.2 -3.8-0.9-6.7-5.1-6.8-10.2 -0.1-5.6 3.4-10.1 7.8-10 4.4 0.1 7.9 4.7 8 10.4 0 3.7-1.5 6.9-3.8 8.6 0.2 0 0.3 0 0.5-0.1C400.1 146.4 401.5 143.2 401.5 139.6z" class="i"/><path d="M401.3 139.7c-0.1-5.6-3.6-10.3-8-10.4 -4.4-0.1-7.8 4.4-7.8 10 0.1 5.1 3 9.3 6.8 10.2 1.4-0.5 3.2-0.9 5.2-1.2C399.8 146.6 401.3 143.4 401.3 139.7zM394.1 147c-2.9 0.3-5.5-2.6-5.9-6.5 -0.4-3.9 1.7-7.3 4.6-7.6 2.9-0.3 5.5 2.6 5.9 6.5C399.1 143.3 397 146.7 394.1 147z" class="j"/><path d="M398.7 139.4c-0.4-3.9-3-6.8-5.9-6.5 -2.9 0.3-5 3.7-4.6 7.6 0.4 3.9 3 6.8 5.9 6.5C397 146.7 399.1 143.3 398.7 139.4z"/><path d="M376.4 195.2c0.5 0 1.1 0 1.6-0.1 6.8-0.8 12.2-6.8 14.7-10.4l0.1-0.2 0 0c1.3-2.1 1.8-4.3 1.8-4.4 0 0-0.3 2.3-1.5 4.5 0.7 0.2 1.7 0.4 3 0.4 7.3 0 21.7-3.7 25.7-8.3l0.3-0.3 0.2 0.4c0.2 0.5 0.2 1.5-0.1 2.4 1.9-0.3 6.4-3.8 6.5-7.5l0-0.6 0.4 0.5c0.4 0.4 0.8 1.6 0.8 2.7 2.2-2.2 4.8-6.8 4-11.6l-0.1-0.6 0.5 0.3c0.4 0.2 1.1 0.9 1.6 1.7 0.4-5.6-2.3-10.5-7.9-14.5 -3.2-2.4-8-3.7-13-3.7 -4.1 0-8 0.9-10.6 2.4l-0.1 0h-0.3c-11.7 0-15.9 3.2-18.2 5 -0.8 0.6-1.3 1-1.9 1h0c-0.9 0-2.7-0.9-5.2-2.2 -4.1-2.1-9.8-5.1-14.4-5.4 -0.7 0-1.3-0.1-2-0.1 -3.6 0-6.7 0.6-9.2 1 -2 0.4-3.8 0.7-4.9 0.5 -1-0.1-2-0.7-3-1.3 -1.4-0.8-2.9-1.7-4.9-1.7 -1.4 0-2.9 0.4-4.6 1.3 -6.1 3.3-5.7 13.2-4.6 18.6 0.6-1 1.6-1.8 2.4-2l0.4-0.1 -0.1 0.4c0 0.1-0.9 6.7 3.6 10.2 0.3-1.3 0.9-3.3 1.9-4.1l0.4-0.4 0 0.5c0.2 2.9 2.7 5.8 5 7 0-1.1 0.2-3.2 1.1-4.2l0.3-0.3 0.2 0.4c1.2 3.2 10.5 8.1 13.7 9.2 -0.3-1.5-0.3-2.8-0.3-2.8 0 0 0.3 1.5 0.8 2.9l0 0 0.1 0.1C362.9 188.3 368.3 195.2 376.4 195.2zM377.5 193c-4.4 0.3-6-1.7-6-1.7 4.2 1.7 7.4 1.3 11.1-0.9C382.6 190.4 381 192.4 377.5 193zM351.2 165.1c-0.3 0.1-0.7 0.1-1 0.1 -1.3 0-2.5-0.4-3.7-1.1 -4.7-2.9-7-10.1-5.4-13.6 0.7-1.4 1.8-2.2 3.4-2.2 1.3 0 2.8 0.5 4.1 0.9 0.8 0.3 1.5 0.5 2.1 0.6 0.2 0 0.5 0.1 0.8 0.1 0.9 0 2-0.2 3.2-0.4 1.2-0.2 2.4-0.4 3.5-0.4 1.2 0 2 0.2 2.6 0.7 1.1 0.8 1.7 2.2 1.8 3.8 0.1 1.9-0.6 3.7-1.9 4.9 -0.3 0.2-0.5 0.5-0.8 0.8 -2.1 2.1-4.9 4.9-8.1 5.7 5.5 4.7 15.1 10 26.4 4.3 0.1 0 0.1-0.1 0.2-0.1 0.4-0.2 0.7-0.4 1.1-0.6 0.1-0.1 0.2-0.1 0.3-0.2 0.4-0.2 0.8-0.5 1.2-0.7 0.2-0.1 0.3-0.2 0.5-0.3 0.3-0.2 0.6-0.4 0.9-0.6 0.2-0.2 0.5-0.3 0.7-0.5 0.2-0.1 0.4-0.3 0.6-0.4 0.3-0.2 0.5-0.4 0.8-0.6 0.2-0.1 0.3-0.3 0.5-0.4 0.7-0.6 1.3-1.2 1.9-1.8l0.3-0.3c0.3-0.3 0.7-0.7 1-1 -2.2-0.6-3.4-1.7-3.4-1.7 0 0 4.3 2.4 9.1 1.3 0 0-1 0.8-2.7 0.8 -0.9 0-1.7-0.1-2.4-0.3 -0.5 0.5-1 1-1.5 1.5 -0.8 11-2.5 22.2-8.6 25.4 0 0 0 0 0 0 -0.2 0.1-0.5 0.2-0.7 0.3 -0.1 0-0.1 0-0.2 0.1 -0.2 0.1-0.4 0.1-0.6 0.2 -0.1 0-0.1 0-0.2 0.1 -0.3 0.1-0.5 0.1-0.8 0.2 -0.2 0-0.5 0.1-0.7 0.1 -0.2 0-0.4 0-0.6 0 -0.1 0-0.2 0-0.3-0.1 -0.1 0-0.2 0-0.3-0.1 -0.1 0-0.3-0.1-0.4-0.1 0 0-0.1 0-0.1 0 -1.3-0.5-2.4-1.5-3.5-2.9 0 0 0 0 0 0 -0.1-0.2-0.2-0.3-0.4-0.5 0 0 0-0.1-0.1-0.1 -0.2-0.3-0.4-0.6-0.6-0.9 0 0-0.1-0.1-0.1-0.1 -0.1-0.2-0.2-0.3-0.3-0.5 0-0.1-0.1-0.1-0.1-0.2 -0.8-1.2-1.5-2.6-2.3-4.1 -1.5-2.8-3.3-6-5.5-9C357 169.6 353.7 167.3 351.2 165.1z" class="a"/><path d="M371.5 191.3c0 0 1.6 2 6 1.7 3.5-0.5 5.1-2.5 5.1-2.5C378.9 192.7 375.7 193 371.5 191.3z" class="c"/><path d="M341.6 150.7c-1.5 3.2 0.8 10.2 5.2 13 1.1 0.7 2.2 1 3.4 1 3.7 0 7-3.3 9.4-5.7 0.3-0.3 0.5-0.5 0.8-0.8 1.2-1.2 1.8-2.9 1.8-4.5 -0.1-1.4-0.7-2.6-1.6-3.4 -0.5-0.4-1.3-0.6-2.3-0.6 -1.1 0-2.3 0.2-3.5 0.4 -1.2 0.2-2.3 0.4-3.3 0.4 -0.3 0-0.7 0-0.9-0.1 -0.6-0.1-1.4-0.4-2.2-0.6 -1.3-0.4-2.7-0.9-3.9-0.9C343.1 148.9 342.2 149.5 341.6 150.7z" fill="#2D2D2D"/><path d="M360 159.4c0.3-0.3 0.5-0.5 0.8-0.8 1.3-1.3 2-3.1 1.9-4.9 -0.1-1.6-0.7-2.9-1.8-3.8 -0.6-0.5-1.5-0.7-2.6-0.7 -1.1 0-2.3 0.2-3.5 0.4 -1.2 0.2-2.3 0.4-3.2 0.4 -0.3 0-0.6 0-0.8-0.1 -0.6-0.1-1.3-0.3-2.1-0.6 -1.3-0.4-2.8-0.9-4.1-0.9 -1.6 0-2.7 0.7-3.4 2.2 -1.6 3.5 0.7 10.7 5.4 13.6 1.2 0.7 2.4 1.1 3.7 1.1 0.4 0 0.7 0 1-0.1 0.2 0 0.4-0.1 0.7-0.1C355.1 164.2 357.9 161.5 360 159.4zM348.4 149.8c0.8 0.3 1.5 0.5 2.2 0.6 0.3 0 0.6 0.1 0.9 0.1 1 0 2.1-0.2 3.3-0.4 1.2-0.2 2.4-0.4 3.5-0.4 1 0 1.8 0.2 2.3 0.6 0.9 0.7 1.5 2 1.6 3.4 0.1 1.7-0.6 3.4-1.8 4.5 -0.3 0.2-0.5 0.5-0.8 0.8 -2.4 2.4-5.7 5.7-9.4 5.7 -1.2 0-2.3-0.3-3.4-1 -4.4-2.7-6.7-9.7-5.2-13 0.6-1.3 1.5-1.8 2.9-1.8C345.7 148.9 347.2 149.4 348.4 149.8z" class="k"/><path d="M368.3 172.3c-2.2 0-4.4-0.4-6.6-1 2 2.8 3.6 5.7 5.1 8.4 0.6 1.2 1.2 2.3 1.8 3.3 1.4-2 4.1-4 6.7-4 0.5 0 1 0.1 1.4 0.2 0.1-0.1 0.2-0.3 0.3-0.4 0.2-0.3 0.4-0.5 0.6-0.7l0 0c2-2.2 4.8-3.6 7.2-3.6 0.2 0 0.4 0 0.6 0 0.6-3.4 1-7.1 1.3-10.7C380.8 169.5 374.6 172.3 368.3 172.3z" fill="#930000"/><path d="M377.3 179.3c-1 1.6-1.3 4-1.3 4.1 0 0-0.1-2 0.6-3.7 -0.4-0.1-0.8-0.2-1.3-0.2 -2.5 0-5.1 2-6.4 3.9 0.1 0.2 0.2 0.4 0.4 0.6 0 0.1 0.1 0.2 0.1 0.2 0.1 0.2 0.2 0.3 0.3 0.5 0.1 0.1 0.1 0.2 0.2 0.3 0.1 0.2 0.3 0.4 0.4 0.5 0.1 0.1 0.2 0.2 0.3 0.4 0 0.1 0.1 0.1 0.1 0.2 0.1 0.1 0.2 0.3 0.3 0.4 0 0 0 0 0 0 0.9 1 1.8 1.8 2.8 2.2 0 0 0.1 0 0.1 0 0.1 0 0.2 0.1 0.3 0.1 0.1 0 0.2 0 0.3 0.1 0.1 0 0.2 0 0.3 0 0.2 0 0.4 0 0.6 0 0.2 0 0.4 0 0.6 0 0.3 0 0.5-0.1 0.8-0.1 0.1 0 0.2-0.1 0.3-0.1 0.1 0 0.3-0.1 0.4-0.1 0.1 0 0.3-0.1 0.4-0.2 0.1 0 0.2-0.1 0.3-0.1 0.2-0.1 0.3-0.2 0.5-0.2 0 0 0.1-0.1 0.1-0.1 2.9-1.8 4.7-5.7 5.9-10.4 0-0.2 0.1-0.4 0.1-0.5 0.1-0.2 0.1-0.4 0.2-0.6 0.1-0.4 0.2-0.8 0.3-1.3 0 0 0-0.1 0-0.1C382.7 174.8 379.4 176.6 377.3 179.3z" fill="#ED7281"/><path d="M369.9 185.8c0 0 0-0.1-0.1-0.1C369.8 185.8 369.9 185.8 369.9 185.8z" class="l"/><path d="M368.8 184.2c0-0.1-0.1-0.1-0.1-0.2C368.7 184.1 368.8 184.2 368.8 184.2z" class="l"/><path d="M369.2 184.8c0 0-0.1-0.1-0.1-0.1C369.1 184.8 369.2 184.8 369.2 184.8z" class="l"/><path d="M375.4 189.6c-0.2 0-0.4 0-0.6 0C375 189.5 375.2 189.6 375.4 189.6z" class="l"/><path d="M370.3 186.3c0 0 0 0 0 0C370.3 186.3 370.3 186.3 370.3 186.3z" class="l"/><path d="M373.8 189.3c0 0-0.1 0-0.1 0C373.8 189.3 373.8 189.3 373.8 189.3z" class="l"/><path d="M378.7 188.7c0 0 0 0 0 0C378.7 188.7 378.7 188.7 378.7 188.7z" class="l"/><path d="M374.5 189.5c-0.1 0-0.2 0-0.3-0.1C374.3 189.4 374.4 189.4 374.5 189.5z" class="l"/><path d="M377.2 189.3c-0.1 0-0.1 0-0.2 0.1C377 189.3 377.1 189.3 377.2 189.3z" class="l"/><path d="M377.9 189c-0.1 0-0.1 0-0.2 0.1C377.8 189.1 377.9 189 377.9 189z" class="l"/><path d="M377.7 178.1l0 0c-0.2 0.2-0.4 0.5-0.6 0.7 -0.1 0.1-0.2 0.3-0.3 0.4 -0.5-0.1-0.9-0.2-1.4-0.2 -2.6 0-5.2 2-6.7 4 0.1 0.2 0.2 0.3 0.3 0.5 1.3-2 3.9-3.9 6.4-3.9 0.5 0 0.9 0.1 1.3 0.2 -0.7 1.7-0.6 3.7-0.6 3.7 0 0 0.3-2.4 1.3-4.1 2.1-2.8 5.3-4.5 8-4.3 0-0.2 0.1-0.3 0.1-0.5 -0.2 0-0.4 0-0.6 0C382.5 174.5 379.7 175.9 377.7 178.1z" class="l"/><path d="M385.3 175.2c-0.1 0.4-0.2 0.9-0.3 1.3C385.1 176 385.2 175.6 385.3 175.2z" class="l"/><path d="M384.9 177.1c0 0.2-0.1 0.4-0.1 0.5C384.8 177.5 384.8 177.3 384.9 177.1z" class="l"/><path d="M369.9 185c-0.1-0.1-0.1-0.2-0.2-0.3C369.8 184.8 369.9 184.9 369.9 185z" class="l"/><path d="M378.8 188c0 0-0.1 0.1-0.1 0.1C378.7 188.1 378.7 188 378.8 188z" class="l"/><path d="M369.5 184.3c0-0.1-0.1-0.2-0.1-0.2C369.4 184.1 369.4 184.2 369.5 184.3z" class="l"/><path d="M378.2 188.3c-0.1 0-0.2 0.1-0.3 0.1C378 188.4 378.1 188.4 378.2 188.3z" class="l"/><path d="M374.9 189c-0.1 0-0.2 0-0.3 0C374.7 189 374.8 189 374.9 189z" class="l"/><path d="M377.5 188.6c-0.1 0-0.3 0.1-0.4 0.1C377.3 188.7 377.4 188.7 377.5 188.6z" class="l"/><path d="M374.3 188.9c-0.1 0-0.2-0.1-0.3-0.1C374.1 188.8 374.2 188.8 374.3 188.9z" class="l"/><path d="M371.1 186.5c-0.1-0.1-0.2-0.3-0.3-0.4C370.8 186.2 370.9 186.4 371.1 186.5z" class="l"/><path d="M376.8 188.8c-0.2 0.1-0.5 0.1-0.8 0.1C376.3 188.9 376.6 188.9 376.8 188.8z" class="l"/><path d="M370.6 185.9c-0.1-0.1-0.2-0.2-0.3-0.4C370.4 185.7 370.5 185.8 370.6 185.9z" class="l"/><path d="M371.1 186.5c0.9 1.1 1.8 1.8 2.8 2.2C372.9 188.3 371.9 187.5 371.1 186.5z" class="l"/><path d="M366.4 179.9c0.8 1.5 1.6 2.9 2.3 4.1 0 0.1 0.1 0.1 0.1 0.2 0.1 0.2 0.2 0.3 0.3 0.5 0 0 0.1 0.1 0.1 0.1 0.2 0.3 0.4 0.6 0.6 0.9 0 0 0 0.1 0.1 0.1 0.1 0.2 0.2 0.3 0.4 0.5 0 0 0 0 0 0 1.1 1.4 2.2 2.4 3.5 2.9 0 0 0.1 0 0.1 0 0.1 0 0.3 0.1 0.4 0.1 0.1 0 0.2 0 0.3 0.1 0.1 0 0.2 0 0.3 0.1 0.2 0 0.4 0 0.6 0 0.2 0 0.5 0 0.7 0 0.3 0 0.6-0.1 0.8-0.2 0.1 0 0.1 0 0.2-0.1 0.2-0.1 0.4-0.1 0.6-0.2 0.1 0 0.1 0 0.2-0.1 0.2-0.1 0.5-0.2 0.7-0.3 0 0 0 0 0 0 6.1-3.2 7.8-14.4 8.6-25.4 0.5-0.5 1-1 1.5-1.5 0.7 0.2 1.5 0.3 2.4 0.3 1.7 0 2.7-0.8 2.7-0.8 -4.8 1.1-9-1.2-9.1-1.3 0 0 1.2 1.1 3.4 1.7 -0.3 0.3-0.7 0.7-1 1l-0.3 0.3c-0.6 0.6-1.3 1.2-1.9 1.8 -0.2 0.1-0.3 0.3-0.5 0.4 -0.3 0.2-0.5 0.4-0.8 0.6 -0.2 0.2-0.4 0.3-0.6 0.4 -0.2 0.2-0.5 0.4-0.7 0.5 -0.3 0.2-0.6 0.4-0.9 0.6 -0.2 0.1-0.3 0.2-0.5 0.3 -0.4 0.3-0.8 0.5-1.2 0.7 -0.1 0.1-0.2 0.1-0.3 0.2 -0.4 0.2-0.7 0.4-1.1 0.6 -0.1 0-0.1 0.1-0.2 0.1 -11.3 5.7-20.9 0.4-26.4-4.3 -0.2 0.1-0.4 0.1-0.7 0.1 2.4 2.1 5.7 4.4 9.6 5.8C363.1 173.9 364.8 177.1 366.4 179.9zM386.7 163.8c-0.3 3.5-0.7 7.2-1.3 10.7 0 0.2-0.1 0.3-0.1 0.5 0 0 0 0.1 0 0.1 -0.1 0.4-0.2 0.9-0.3 1.3 0 0.2-0.1 0.4-0.2 0.6 0 0.2-0.1 0.4-0.1 0.5 -1.2 4.7-3 8.6-5.9 10.4 0 0-0.1 0.1-0.1 0.1 -0.1 0.1-0.3 0.2-0.5 0.2 -0.1 0-0.2 0.1-0.3 0.1 -0.1 0.1-0.3 0.1-0.4 0.2 -0.1 0-0.3 0.1-0.4 0.1 -0.1 0-0.2 0.1-0.3 0.1 -0.2 0.1-0.5 0.1-0.8 0.1 -0.2 0-0.4 0-0.6 0 -0.2 0-0.4 0-0.6 0 -0.1 0-0.2 0-0.3 0 -0.1 0-0.2 0-0.3-0.1 -0.1 0-0.2-0.1-0.3-0.1 0 0-0.1 0-0.1 0 -1-0.4-2-1.2-2.8-2.2 0 0 0 0 0 0 -0.1-0.1-0.2-0.3-0.3-0.4 0-0.1-0.1-0.1-0.1-0.2 -0.1-0.1-0.2-0.2-0.3-0.4 -0.1-0.2-0.3-0.4-0.4-0.5 -0.1-0.1-0.1-0.2-0.2-0.3 -0.1-0.1-0.2-0.3-0.3-0.5 0-0.1-0.1-0.2-0.1-0.2 -0.1-0.2-0.2-0.4-0.4-0.6 -0.1-0.2-0.2-0.3-0.3-0.5 -0.6-1-1.2-2.1-1.8-3.3 -1.4-2.6-3.1-5.6-5.1-8.4 2.2 0.7 4.4 1 6.6 1C374.6 172.3 380.8 169.5 386.7 163.8z" class="c"/><path d="M345.4 265.1c-0.3 7.7 2.1 14.1 7.3 19.1 0.3 0 0.6 0.1 0.9 0.3 0.6-1.4 1.7-2.4 3.2-2.4 0.4 0 0.9 0.1 1.4 0.3 -5.2-7.8-6.8-13.4-7.1-17.3C349 265.2 347 265.2 345.4 265.1z" class="b"/><path d="M337.2 277.3l0 0 -0.1 0.2c0 0 0 0 0 0 -0.1 0.6-0.3 1.1-0.5 1.6 0 0.1-0.1 0.2-0.1 0.2 -0.1 0.2-0.1 0.5-0.1 0.7 0 0 0 0 0 0.1 0 0.3 0 0.6 0 0.8 0 1.1 0.3 2.3 1.2 3.3 0.1 0.1 0.3 0.3 0.4 0.4 0.1 0.1 0.1 0.1 0.2 0.1 0.2 0.2 0.5 0.3 0.8 0.5 3.2 1.5 6.9 1.9 9.6 2 0.6-1.7 1.9-2.9 3.4-3.1 -5-5-7.3-11.4-7-19.1 -0.3 0-0.5-0.1-0.7-0.1 -2.2-0.4-3.3 0.4-4.6 1.4 -0.7 0.5-1.4 1-2.3 1.5C337.7 271.8 337.7 274.8 337.2 277.3z" class="a"/><path d="M337.5 293.5c0.8-1 1.7-3.1 1-7.8 -2.7-1.4-3.5-4.5-2.1-8.2 -1-0.6-2.4-1-4-1 -1.2 0-2.4 0.2-3.2 0.6 -0.1 0-6.6 3.4-6.9 7.7 -0.1 1.7 0.8 3.3 2.7 4.8 0-4.5 7.4-9.6 7.4-9.6 -0.1 0.1-7.5 5.8-6.8 10.1l0 0.1c0.1 0.3 0.1 0.5 0.2 0.7 0 0 0 0 0 0 0.7 1.7 2.3 2.9 3.9 2.9 0.8 0 1.5-0.3 2.2-0.8 -0.9-1.2-1.3-2.6-1.2-4 0.2-3.9 4.5-6.5 4.5-6.5 0 0-3.8 2.9-4 6.6 -0.1 1.7 0.6 3.3 2 4.7 0.6 0.4 1.3 0.6 2 0.6C336 294.5 336.8 294.3 337.5 293.5z" class="a"/><path d="M360.7 282.3c-0.5 0-1.1 0.1-1.6 0.5 1.1 0.7 2.3 2 3.6 4.2 1.6 2.7 2.1 5.1 2 7 0.6 0.3 1.3 0.4 1.8 0.4 0.6 0 1.3-0.1 1.9-0.8 0.6-0.7 0.7-2 0.2-3.6C367.4 285 363.1 282.3 360.7 282.3z" class="a"/><path d="M360.6 298.5c1.1 0 2.2-0.7 2.8-1.8 1.1-1.9 1.3-5.3-1.2-9.4 -1.8-3-3.8-4.7-5.4-4.7 -1.3 0-2.2 0.9-2.7 2.2 0.9 0.7 1.9 2 2.7 4.7 0.7 2.4 0.6 4.8 0 6.7 0.3 0.3 0.5 0.6 0.8 0.9C358.6 298 359.6 298.5 360.6 298.5z" class="a"/><path d="M351.9 298.6c1.2 0.6 2.5 0.3 3.5-1 1.1-1.4 1.8-4.2 0.8-8 -0.9-3.1-2.3-4.9-4-4.9 -1.5 0-2.9 1.4-3.3 3.4C348 292.5 349.4 297.2 351.9 298.6z" class="a"/><path d="M316.5 216.6c-0.2 0-0.3 0-0.3 0.1 -0.1 0.1-0.1 0.3 0 0.8 0.8 2.7 6.1 9 9 10.7 0.5-0.5 1.1-1 1.7-1.5C325.2 221.9 318.6 216.6 316.5 216.6z" class="f"/><path d="M311.9 211.9c-2.4 1.7 2.3 11.7 12.1 17.7 0.3-0.3 0.5-0.7 0.8-1 -3.3-2-8.4-8.4-9.2-10.9 -0.2-0.6-0.2-1 0.1-1.3 0.2-0.2 0.4-0.3 0.7-0.3 2.3 0 9 5.3 10.9 10.3 0.6-0.4 1.3-0.8 2-1.1C325.5 216.9 315.4 209.4 311.9 211.9z" class="e"/><path d="M311.9 211.9c3.5-2.5 13.6 5 17.4 13.4 0.6-0.2 1.1-0.4 1.7-0.6 0.4-0.1 0.9-0.2 1.3-0.3 -4.3-7.3-14.4-15.2-19.8-15.2 -1.1 0-2 0.4-2.5 1.1 -0.9 1.3-0.9 3.4-0.1 6 1.8 5.1 6.9 11.3 13.1 14.6 0.3-0.5 0.6-0.9 0.9-1.3C314.2 223.6 309.5 213.5 311.9 211.9z" class="b"/><path d="M325.3 246.3c0.2-0.1 0.3-0.2 0.5-0.4 0 0 0 0 0 0 0.2-0.1 0.3-0.3 0.5-0.5 0 0 0 0 0 0 0.6-0.7 1-1.7 1.2-2.8 0-0.3 0.1-0.6 0.1-0.8 0 0 0-0.1 0-0.1 0-0.2 0-0.5 0-0.7 0-0.1 0-0.2 0-0.3 0-0.2-0.1-0.4-0.1-0.6 0-0.1-0.1-0.2-0.1-0.3 -0.1-0.2-0.1-0.4-0.2-0.6 0-0.1-0.1-0.1-0.1-0.2 -0.5-0.9-1.2-1.4-2-1.6l0 0c-0.2 0-0.4 0-0.6 0 -0.4 0.1-0.8 0.2-1.1 0.4 0 0 0 0 0 0 -0.2 0.1-0.3 0.2-0.5 0.4 0 0 0 0-0.1 0 -0.2 0.1-0.3 0.3-0.4 0.5 0 0 0 0 0 0 -0.1 0.2-0.3 0.4-0.4 0.6 0 0 0 0 0 0 -0.2 0.4-0.4 0.8-0.6 1.2 0 1.5 0 3 0.2 4.5 0 0 0 0 0 0.1 0.2 0.4 0.4 0.7 0.7 0.9 0.1 0 0.2 0 0.3 0 0.2 0 0.5 0 0.7 0 -1.2-0.4-1.8-2.1-1.4-3.8 0.4-1.7 1.8-2.8 3-2.5 1.2 0.4 1.9 2.1 1.5 3.8 -0.3 1.4-1.3 2.4-2.3 2.5 0.3 0 0.5 0.1 0.8 0.2 0.2 0 0.3 0.1 0.5 0.1 0 0 0.1 0 0.1 0C325.3 246.3 325.3 246.3 325.3 246.3z" class="g"/><path d="M321.6 245.8c-0.1-0.1-0.1-0.2-0.1-0.2 0 0.2 0.1 0.4 0.1 0.6 0.1 0 0.2-0.1 0.4-0.1C321.8 246 321.7 245.9 321.6 245.8z" class="b"/><path d="M325.1 236.8l0 0c0.7 0.1 1.3 0.7 1.8 1.4 0.8 1.1 1 2.9 0.8 4.5 -0.3 1.7-1.2 3.1-2.3 3.8 1.4 0.5 2.7 1.3 3.6 2.2 0.5 0.4 1 0.8 1.5 1.2 1.6 1.4 3.1 2.5 4.2 2.5 0.9-0.1 1.6-0.8 2.6-1.9 0.6-0.7 1.4-1.4 2.3-2.1 -0.3-0.1-0.7-0.3-1-0.5 -1.4-1-2.4-2.8-2.6-4.9 -0.3-3.4 1.6-7 4.2-7.3l0 0c1-0.1 2 0.5 2.9 1.1 1.4 1 2.3 3.2 2.5 5.2 0.1 1.4-0.1 2.6-0.6 3.7 1.8-0.5 3.8-0.7 5.9-0.5 -0.2 0-0.4 0-0.5 0 3.2 0 6.3 0.4 9.4 1.5 -0.1 0-0.2-0.1-0.3-0.1l-0.3-0.1 0 0c-0.5-0.2-1.2-0.5-2.2-0.8 0.9 0 1.7 0.1 2.4 0.4 2.2-4.3 0.8-10.3-2-14.5 -0.7 0.3-1.4 0.5-2 0.6 8.2-3.2 13.8-13 14.5-18.5 0.3-1.9-0.1-3.3-0.9-3.9 -1.2-0.9-3.9-0.7-6.9 0.5 -5.7 2.3-12.8 8.3-14.8 17.8 0 0.3-0.1 0.6-0.1 0.8l0 0c0.1-1.1 0.3-2.2 0.6-3.2 -2.9-0.7-6.3-1.1-9.7-1.1 -2.6 0-4.9 0.2-6.8 0.7 -5.9 1.5-9.6 7.3-10 14.7C322 238 323.6 236.6 325.1 236.8zM365.8 213c3 2.1-4.1 12.8-11.3 16.3 -1.6 0.8-3.8-0.3-3.5-1.9C352.7 216.5 363.5 211.4 365.8 213zM340.7 233.1c2.1-0.2 3.7 1.1 4.3 2.6 -1.6-2.1-3.4-2.2-4.2-2C340.1 233.8 340.1 233.1 340.7 233.1zM326 234.1c0.5 0.1 0.5 0.5-0.1 0.5 -0.6-0.1-2-0.1-3.3 1.6C323.1 234.9 324.4 233.9 326 234.1z" class="b"/><path d="M345.4 242c-0.1-1.6-0.8-3-1.7-4.1 -1-1-2.2-1.5-3.4-1.4l0 0c-0.3 0-0.6 0.1-0.9 0.2 -2.1 0.8-3.4 3.4-3.1 6.2 0.1 1.6 0.8 3 1.7 4.1 0.5 0.6 1.2 1 1.8 1.2 0.3-0.2 0.6-0.4 0.9-0.6 -1.7-0.1-3-1.9-3.1-4.1 0-2.2 1.4-4 3.1-4 1.7 0 3.2 1.9 3.2 4.2 0 1.1-0.3 2-0.8 2.7 0.5-0.2 1-0.4 1.6-0.6C345.2 244.7 345.5 243.4 345.4 242z" class="g"/><path d="M321.1 240.6c-0.1 0.3-0.2 0.7-0.3 1 0 0.3-0.1 0.6-0.1 0.8 0 0 0 0.1 0 0.1 0 0.2 0 0.5 0 0.7 0 0.1 0 0.2 0 0.3 0 0.2 0.1 0.4 0.1 0.6 0 0.1 0.1 0.2 0.1 0.3 0.1 0.2 0.1 0.4 0.2 0.6 0 0 0 0.1 0.1 0.1C321.2 243.6 321.1 242 321.1 240.6z" class="c"/><path d="M351 227.4c-0.2 1.5 2 2.7 3.5 1.9 7.2-3.4 14.3-14.2 11.3-16.3C363.5 211.4 352.7 216.5 351 227.4zM363.7 214.8c0.3 0 0.6 0.1 0.7 0.3 0.3 0.3 0.3 0.7 0.1 1.3 -0.9 2.9-7.4 10.8-10.4 11.5l0 0h0c-0.5 0-0.9-0.2-1.2-0.5 -0.4-0.5-0.4-1.2-0.3-1.6C354.1 220.5 361.3 214.8 363.7 214.8z" class="e"/><path d="M354 227.3c2.6-0.7 9-8.1 9.9-11.1 0.1-0.4 0.1-0.7 0-0.8 -0.1-0.1-0.2-0.1-0.3-0.1 -2.2 0-9.1 5.6-10.6 10.5 0 0.2-0.1 0.8 0.2 1.2C353.5 227.2 353.7 227.2 354 227.3z" class="f"/><path d="M347.3 228c-0.1 0.3-0.1 0.5-0.2 0.8l0 0C347.2 228.6 347.3 228.3 347.3 228z" class="e"/><path d="M352.9 227.4c0.3 0.3 0.7 0.5 1.2 0.5h0l0 0c3-0.7 9.5-8.5 10.4-11.5 0.2-0.6 0.2-1-0.1-1.3 -0.2-0.2-0.4-0.3-0.7-0.3 -2.4 0-9.6 5.7-11.1 10.9C352.5 226.1 352.5 226.9 352.9 227.4zM353.1 225.8c1.4-4.9 8.4-10.5 10.6-10.5 0.2 0 0.3 0 0.3 0.1 0.1 0.1 0.1 0.3 0 0.8 -0.9 3-7.3 10.4-9.9 11.1 -0.3 0-0.6-0.1-0.7-0.3C353 226.6 353.1 226 353.1 225.8z" class="c"/><path d="M325.9 234.6c0.6 0.1 0.6-0.4 0.1-0.5 -1.6-0.2-2.9 0.8-3.4 2.1C323.9 234.5 325.3 234.5 325.9 234.6z" class="h"/><path d="M321.9 246.1c0.1 0 0.2 0 0.2 0 -0.3-0.2-0.5-0.6-0.7-0.9 0 0 0 0 0-0.1 0 0 0-0.1-0.1-0.1 -0.1-0.2-0.2-0.4-0.2-0.6 0-0.1-0.1-0.2-0.1-0.3 -0.1-0.2-0.1-0.4-0.1-0.6 0-0.1 0-0.2 0-0.3 0-0.2 0-0.5 0-0.7 0 0 0-0.1 0-0.1 0-0.3 0-0.6 0.1-0.8 0.1-0.4 0.2-0.7 0.3-1 0.1-0.4 0.3-0.9 0.6-1.2 0 0 0 0 0 0 0.1-0.2 0.3-0.4 0.4-0.6 0 0 0 0 0 0 0.1-0.2 0.3-0.3 0.4-0.5 0 0 0 0 0.1 0 0.2-0.1 0.3-0.3 0.5-0.4 0 0 0 0 0 0 0.4-0.2 0.8-0.4 1.2-0.4 0.2 0 0.4 0 0.7 0l0 0c0.8 0.1 1.5 0.7 2 1.6 0 0.1 0.1 0.1 0.1 0.2 0.1 0.2 0.2 0.4 0.2 0.6 0 0.1 0.1 0.2 0.1 0.3 0.1 0.2 0.1 0.4 0.1 0.6 0 0.1 0 0.2 0 0.3 0 0.2 0 0.4 0 0.7 0 0 0 0.1 0 0.1 0 0.3 0 0.5-0.1 0.8 -0.2 1.1-0.6 2.1-1.2 2.8 0 0 0 0 0 0 -0.1 0.2-0.3 0.3-0.5 0.5 0 0 0 0 0 0 -0.2 0.1-0.3 0.3-0.5 0.4 0 0 0 0 0 0 0 0-0.1 0-0.1 0 0.1 0 0.1 0 0.2 0.1 1.1-0.7 2-2.1 2.3-3.8 0.3-1.6 0-3.4-0.8-4.5 -0.5-0.6-1.1-1.3-1.8-1.4l0 0c-1.5-0.2-3.1 1.2-3.9 3.2 -0.2 0.5-0.4 1.1-0.5 1.6 -0.2 1.5 0 3 0.7 4 0 0.1 0.1 0.2 0.1 0.2C321.7 245.9 321.8 246 321.9 246.1z"/><path d="M326.2 243.6c0.4-1.7-0.2-3.4-1.5-3.8 -1.2-0.4-2.6 0.8-3 2.5 -0.4 1.7 0.2 3.4 1.4 3.8 0.2 0 0.5 0 0.7 0.1C324.9 246 325.9 245 326.2 243.6zM321.8 242.3c0.4-1.7 1.7-2.8 2.9-2.4 1.2 0.4 1.8 2 1.4 3.7 -0.4 1.7-1.7 2.8-2.9 2.4C322.1 245.6 321.4 244 321.8 242.3z" class="i"/><path d="M326.2 243.6c0.4-1.7-0.2-3.3-1.4-3.7 -1.2-0.3-2.5 0.7-2.9 2.4 -0.4 1.7 0.2 3.3 1.4 3.7C324.5 246.3 325.8 245.2 326.2 243.6zM322.5 242.9c0.2-1.2 1-2.1 1.8-1.9 0.8 0.1 1.3 1.2 1.1 2.4 -0.2 1.2-1 2.1-1.8 1.9S322.3 244 322.5 242.9z" class="j"/><path d="M325.5 243.3c0.2-1.2-0.3-2.3-1.1-2.4 -0.8-0.1-1.6 0.7-1.8 1.9s0.3 2.3 1.1 2.4S325.3 244.5 325.5 243.3z"/><path d="M340.9 233.7c0.8-0.1 2.6-0.1 4.2 2 -0.6-1.6-2.3-2.9-4.3-2.6C340.1 233.1 340.1 233.8 340.9 233.7z" class="h"/><path d="M339.7 248.2c-0.6-0.2-1.3-0.6-1.8-1.2 -1-1-1.6-2.5-1.7-4.1 -0.3-2.8 1.1-5.4 3.1-6.2 0.3-0.1 0.6-0.2 0.9-0.2l0 0c1.2-0.1 2.4 0.4 3.4 1.4 1 1 1.6 2.5 1.7 4.1 0.1 1.4-0.1 2.7-0.7 3.8 0.1 0 0.2-0.1 0.3-0.1 0.5-1.1 0.7-2.4 0.6-3.7 -0.2-2-1.1-4.2-2.5-5.2 -0.9-0.6-1.9-1.2-2.9-1.1l0 0c-2.6 0.3-4.5 3.9-4.2 7.3 0.2 2 1.1 3.9 2.6 4.9 0.3 0.2 0.7 0.4 1 0.5C339.6 248.4 339.7 248.3 339.7 248.2z"/><path d="M340.7 239.5c-1.7 0-3.1 1.8-3.1 4 0 2.2 1.4 4 3.1 4.1 0 0 0.1-0.1 0.1-0.1 -1.7 0-3.1-1.8-3.1-4 0-2.2 1.3-3.9 3-3.9 1.7 0 3.1 1.8 3.1 4 0 1.1-0.3 2.1-0.9 2.8 0 0 0.1 0 0.1-0.1 0.5-0.7 0.8-1.7 0.8-2.7C343.9 241.4 342.5 239.5 340.7 239.5z" class="i"/><path d="M340.7 239.6c-1.7 0-3 1.7-3 3.9 0 2.2 1.4 4 3.1 4 0.7-0.4 1.4-0.8 2.2-1.1 0.6-0.7 0.9-1.7 0.9-2.8C343.8 241.5 342.4 239.7 340.7 239.6zM341 246.5c-1.1 0.1-2.1-1-2.3-2.5 -0.1-1.5 0.7-2.8 1.8-3 1.1-0.1 2.2 1 2.3 2.5C343 245.1 342.2 246.4 341 246.5z" class="j"/><path d="M342.8 243.6c-0.1-1.5-1.2-2.7-2.3-2.5 -1.1 0.1-1.9 1.4-1.8 3 0.1 1.5 1.2 2.7 2.3 2.5C342.2 246.4 343 245.1 342.8 243.6z"/><path d="M350.4 245.3c-8 0.3-10.8 3.5-12.7 5.6 -1 1.1-1.8 2-2.9 2.1 -1.3 0.1-2.8-1.1-4.5-2.6 0.2 0.4 0.3 0.9 0.3 1.3 0 2.6-3 4.7-6.6 4.7 -3.3 0-6.1-1.8-6.5-4.1 -0.1 0.8 0 1.6 0.2 2.5 0.5 2.3 1.8 4.4 3.4 5.8 0.2 0.2 0.4 0.3 0.6 0.5 0.4 0.3 0.9 0.5 1.3 0.7l0.1 0 0 0.1c2.7 1.2 6.1 1.5 9.3 0.6 4-1.1 7-3.9 8.2-7.6 -0.3 1.7-1.9 6.4-8 8.1 -1.3 0.4-2.7 0.6-4.1 0.6 -1.8 0-3.5-0.3-5-0.9 0.4 0.8 0.9 1.5 1.6 2.2 4.1 1.9 8.1 0 8.1 0 0 0-1.7 1.4-4.2 1.4 -0.9 0-1.8-0.1-2.8-0.4 1.8 1.4 4.2 2.4 7.4 2.3 3-0.1 4.4-1.2 5.7-2.2 1.3-1 2.6-1.9 5-1.5 4.6 0.8 14.6-0.2 17.2-5 1.7-3.1 2.1-7 1-9.8 -0.5-1.3-1.4-2.3-2.4-2.8 -0.1 0-0.1 0-0.2-0.1C356.7 245.7 353.5 245.2 350.4 245.3z" class="a"/><path d="M323.2 246c-0.2 0-0.5 0-0.7 0 0.2 0 0.3 0 0.5 0 0.6 0 1.1 0.1 1.7 0.2 -0.3-0.1-0.5-0.1-0.8-0.2C323.7 246.1 323.4 246 323.2 246z" class="c"/><path d="M337.7 250.9c1.9-2.1 4.8-5.3 12.7-5.6 0.2 0 0.4 0 0.5 0 -2.2-0.2-4.1 0-5.9 0.5 -0.1 0-0.2 0.1-0.3 0.1 -0.6 0.2-1.1 0.4-1.6 0.6 0 0-0.1 0-0.1 0.1 -0.8 0.3-1.5 0.7-2.2 1.1 0 0-0.1 0.1-0.1 0.1 -0.3 0.2-0.6 0.4-0.9 0.6 -0.1 0.1-0.1 0.1-0.2 0.2 -0.9 0.6-1.6 1.3-2.3 2.1 -0.9 1.1-1.6 1.8-2.6 1.9 -1.1 0.1-2.5-1.1-4.2-2.5 -0.5-0.4-1-0.8-1.5-1.2 0.5 0.5 0.9 1.1 1.1 1.7 1.7 1.4 3.2 2.7 4.5 2.6C335.9 252.8 336.7 252 337.7 250.9z" class="c"/><path d="M323 246.6c-3.2 0-5.1 2.6-5.1 5.1 0 2.3 2.7 4.2 6 4.2 3.3 0 6-1.9 6-4.2C329.9 249.3 326.2 246.6 323 246.6z" fill="#1C1C1C"/><path d="M317.3 251.7c0 0.2 0 0.5 0.1 0.7 0.5 2.3 3.2 4.1 6.5 4.1 3.6 0 6.6-2.1 6.6-4.7 0-0.4-0.1-0.9-0.3-1.3 -0.2-0.6-0.6-1.1-1.1-1.7 -0.9-1-2.2-1.8-3.6-2.2 -0.1 0-0.1 0-0.2-0.1 -0.2-0.1-0.3-0.1-0.5-0.1 -0.6-0.1-1.1-0.2-1.7-0.2 -0.2 0-0.3 0-0.5 0 -0.1 0-0.2 0-0.3 0 -0.1 0-0.2 0-0.2 0 -0.1 0-0.2 0-0.4 0.1 -0.2 0-0.4 0.1-0.6 0.2 -0.8 0.3-1.5 0.7-2 1.3C317.9 248.7 317.3 250.2 317.3 251.7zM329.9 251.7c0 2.3-2.7 4.2-6 4.2 -3.3 0-6-1.9-6-4.2 0-2.5 1.9-5.1 5.1-5.1C326.2 246.6 329.9 249.3 329.9 251.7z" class="k"/><path d="M393.7 130.8c1.3 1 1.6 2.9 0.5 4.3 -1 1.3-2.9 1.6-4.2 0.5s-1.5-2.9-0.5-4.2C390.5 130 392.4 129.7 393.7 130.8z" class="g"/><path d="M393.1 137.6c0.6 0.4 0.7 1.2 0.2 1.8 -0.4 0.6-1.2 0.7-1.8 0.2 -0.6-0.4-0.7-1.2-0.2-1.8C391.7 137.3 392.5 137.2 393.1 137.6z" class="g"/><path d="M357.4 130c1.3 1 1.6 2.9 0.5 4.3 -1 1.3-2.9 1.6-4.2 0.5s-1.5-2.9-0.5-4.2C354.1 129.2 356 129 357.4 130z" class="g"/><path d="M356.8 136.9c0.6 0.4 0.7 1.2 0.2 1.8 -0.4 0.6-1.2 0.7-1.8 0.2 -0.6-0.4-0.7-1.2-0.2-1.8C355.4 136.6 356.2 136.5 356.8 136.9z" class="g"/><path d="M340.8 241.1c0.5 0.4 0.6 1.2 0.2 1.8 -0.4 0.5-1.2 0.6-1.8 0.2 -0.5-0.4-0.6-1.2-0.2-1.8C339.5 240.8 340.3 240.7 340.8 241.1z" class="g"/><path d="M340.5 244c0.2 0.2 0.3 0.5 0.1 0.8 -0.2 0.2-0.5 0.3-0.7 0.1 -0.2-0.2-0.3-0.5-0.1-0.7C340 243.8 340.3 243.8 340.5 244z" class="g"/><path d="M325.3 240.6c0.5 0.4 0.6 1.2 0.2 1.8 -0.4 0.5-1.2 0.6-1.8 0.2 -0.5-0.4-0.6-1.2-0.2-1.8C324 240.3 324.7 240.2 325.3 240.6z" class="g"/><path d="M325.2 242.9c0.2 0.2 0.3 0.5 0.1 0.8 -0.2 0.2-0.5 0.3-0.7 0.1 -0.2-0.2-0.3-0.5-0.1-0.7C324.6 242.8 325 242.7 325.2 242.9z" class="g"/></svg>