<svg version="1.1" xmlns="http://www.w3.org/2000/svg" viewBox="0 0 768 430" xml:space="preserve"><g transform="translate(-269.20937,-460.26302)"><g transform="translate(-379.42045,99.131359)"><path d="M1215.3 527.4l-162.7-0.5 -1-18.8c-0.1-6.7-8.1-9.5-13.4-6l-19.1 15.6c-10.1-21.8-27.9-39.9-50.1-48.6 -10-4.2-20.7-6.1-31.4-6 -23.5 0.2-46.9 10.2-63.4 27.5 -29.6 29.6-35.4 79.4-15.9 116.3 16.7 33.4 54.5 53.7 90.8 48.6 32.1-3.9 59.2-27.7 71.7-57.8l23 13.2c6.7 4.2 10.5-1.1 10.5-7.2l-0.4-24.7 26.2 0.6 17.8 16.7 15.2-17.7 29.1 14.5 7.4-13 16.1 12.1 19-17 28 1 19.8-9.1 28.2-17.7C1252.9 543 1231.9 534.6 1215.3 527.4zM899.2 577.3c-8.3 1.1-16.9-3.3-20.7-10.5 -4.5-8-3.1-18.7 3.6-25.1 5.5-5.4 14.3-7.5 21.6-4.6 7.7 2.9 13.1 10.3 13.4 18.3 0 0.4 0 0.8 0 1.2C917.4 566.6 909.4 576.2 899.2 577.3z" fill="#DDE4D0"/></g></g></svg>