<svg xmlns="http://www.w3.org/2000/svg" viewBox="0 0 768 430"><style>.a{fill:#83A505;}.b{fill:#CEEF56;}.c{fill:#99CC03;}.d{fill:#363F00;}.e{fill:#EAE8A0;}.f{fill:#FFFFCD;}.g{fill:#A59F34;}.h{fill:#131600;}.i{fill:#4A5B00;}.j{fill:#6B0A00;}.k{fill:#171900;}.l{fill:#EAAA1B;}.m{fill:#FFE000;}.n{fill:#FF6700;}.o{fill:#FFA669;}.p{fill:#9B2C00;}.q{fill:#F2FAFC;}</style><path d="M322.3 268.6c-59.9-42.4-149.7-10.8-149.5 6.6 0.2 16.3 41 44.6 64.1 50.4 -12.3 1.3-38 4.2-41 2.8 -3.3-1.5-14.7-13.8-22.9-3.2 -8.7 11.3 4.7 33.2 20.3 29.4 3.3 7.3 14.3 14 31.4 5.4 23.3-11.8 55.1-6.5 75.4-18.6C327.2 325.3 365.5 298.3 322.3 268.6z" class="a"/><path d="M249.8 276.1c24.9 7.6 52.1 8.6 69.1-9.8 -59.8-38.9-146.2-8.2-146 8.9 6.2 32.6 74.8 49.1 114 56.9 -19.8-1.4-33.7-1.4-51.2-6.3 -12.7 1.3-36.8 4-39.6 2.7 -3.3-1.5-14.7-13.8-22.9-3.2 -2.4 3.1-3.1 7.1-2.6 11.1 0.5 6.6 7.2 9 12.1 8.4 6.8-0.7 6.7-17.4 27.4-9.5 10.9 1.9 15.7 1.4 27.2-1.6 -3.8 2.8-18.7 7-25.9 6.7 -2.7-1.3-8.9-6.3-17.9 1.7 -5.4 11.9 12.7 16.1 22.9 12 24.7-9.9 50.1-6.8 76.9-22 6.8-3.9 9-10.6 3.4-13.5 -12.3-7.5-22.9-14.9-35.1-23.3 -17-10.4-36.5-15.4-53.2-17.1C217.6 274.4 234.4 271.4 249.8 276.1z" class="b"/><path d="M249.5 278.1c24.9 7.6 50.6 9 67.6-9.4 -50.1-37.2-141.8-8.6-141.6 8.6 6.2 32.6 72.1 47 111.3 54.8 -19.8-1.4-30.4-2.8-47.7-5.5 -15.9 4-41.6 4.2-44.6 3.4 -3.7-0.9-12.4-10.9-19.3-4.4 -2.3 2.1-4.2 6-4.2 12.2 0.8 5.8 6.7 9.1 11.5 8.5 6.8-0.7 6.7-17.6 27.5-9.7 10.9 1.9 15.8 0 27.3-3 -3.8 2.8-16.9 8.6-24.1 8.3 -2.7-1.3-14.9-6.4-20 1.5 -5.4 11.9 13 16 23.3 11.9 24.7-9.9 50-6.3 76.8-21.5 6.8-3.9 9-12.4 3.4-15.2 -12.3-7.5-21.7-17-33.9-25.5 -17-10.4-34.6-13.8-54.4-14.9C217.6 274.4 234.2 273.4 249.5 278.1z" class="c"/><path d="M209.7 364.6L209.7 364.6c-8.9 0-14.4-4.8-16.6-9.4 -1.1 0.3-2.3 0.4-3.4 0.4 -6.9 0-13.8-4.8-17.5-12.3 -3.3-6.6-3.1-13.6 0.5-18.2 2.3-3 5-4.5 8.2-4.5 4.8 0 9.5 3.5 12.7 5.8 1.1 0.8 2 1.5 2.6 1.7 0.3 0.1 1 0.3 3.5 0.3 7 0 21.6-1.5 32.3-2.7 0.9-0.1 1.8-0.2 2.6-0.3 -22.8-7-61.9-34-62.1-50.2 0-2.2 1.2-4.5 3.6-6.9 10.3-10.5 41-21.3 74.3-21.3 19.3 0 47.5 3.7 72.3 21.3 13.4 9.2 20 18.9 19.6 28.9 -0.6 17.9-22.7 33.3-41.8 44.7 -10.4 6.2-23.6 7.8-37.5 9.6 -13.1 1.6-26.6 3.3-38 9.1C219.6 363.2 214.4 364.6 209.7 364.6zM193.6 354.1l0.2 0.4c2 4.4 7.2 9.2 15.9 9.2h0c4.6 0 9.6-1.3 14.8-4 11.5-5.8 25.1-7.5 38.3-9.2 13.8-1.7 26.9-3.3 37.1-9.5 19-11.3 40.8-26.5 41.4-43.9 0.3-9.7-6.2-19.1-19.2-28.1 -24.6-17.4-52.6-21.1-71.8-21.1 -33.1 0-63.4 10.7-73.6 21 -2.2 2.3-3.3 4.4-3.3 6.3 0.2 16.5 41.6 44.3 63.8 50l-0.1 0.9c-1.5 0.2-3.2 0.3-5 0.5 -10.7 1.1-25.3 2.7-32.4 2.7 -2.7 0-3.5-0.2-3.9-0.4 -0.7-0.3-1.6-1-2.7-1.8 -3-2.2-7.6-5.6-12.1-5.6 -2.9 0-5.3 1.3-7.5 4.1 -3.3 4.4-3.5 11-0.4 17.2 3.5 7.2 10.1 11.8 16.7 11.8 1.2 0 2.4-0.1 3.6-0.4L193.6 354.1z" class="d"/><path d="M194.2 357c-5.3-8.2-2.6-14.7 1.4-17.7 10.5-7.6 18.6 3.6 18.6 3.6 -5.9-6.5-13.5-6.4-18-2.9 -3.6 2.8-6.1 8.8-1.2 16.4L194.2 357z" class="d"/><path d="M214.5 340.7c-1.2 0-2.2-0.1-3.1-0.3l-1.4-1.4c5.6 3.3 24-3.7 24.2-3.7C234.2 335.3 222.2 340.7 214.5 340.7z" class="d"/><path d="M222.7 320.8l0.5-0.8c17.5 9.8 63.2 12.1 63.7 12.1C286.8 332.1 245 332.1 222.7 320.8z" class="d"/><path d="M278.1 300.8c-28.1-30-67.7-22.6-68.1-22.5 0 0 40.3-8.5 68.8 21.8L278.1 300.8z" class="d"/><path d="M428.4 265c59.9-42.4 157-28.9 163.1-7.7 6.1 21.2-54.7 64-77.9 69.9 12.3 1.3 50.4 6.7 53.3 5.3 3.3-1.5 14.9-8 23.6-0.9 11.1 9 0.4 22.6-12.8 22.6 0.1 8.1-5.4 25.1-41.6 10.9 -21.9-8.6-45-5.8-85.6-22.1C421.3 331.2 385.3 294.7 428.4 265z" class="a"/><path d="M536.7 354c8.3 4 24.7 8 31.3 4.2 8.5-4.7 10.2-19.6-13-15.3 -5.1 0.2-16.2 0.9-33.8-6.4 23.7 4.8 30.8 0.4 44 1.4 6.6 0 7.9 10.2 19.3 5.2 10.6-5.9 7.9-10.6 2.8-13.6 -8.1-3.5-17.3 1.7-20.2 3 -2.5 1.2-36.5-3.3-52.5-5.2 -17.4 2.9-50.7 8.4-52.6 5.7 34-7.4 96.9-38.1 113.3-68 9.7-17.7-5.8-22.6-14.4-24.4 -34.9-7.4-92.1-4.2-132.3 24.4 -12.1 8.3-17.9 17.2-19.5 25.8 56.8-3.1 84.4-44.2 139.8-28.9 -35.7 3.1-60.9 29.6-73.1 38.1 -14.4 10.2-31.8 14.5-43.5 26.4 9.5 6.9 19.3 13.1 30.6 16.7C490.9 352.6 509.3 343.6 536.7 354z" class="b"/><path d="M535.6 358.7c8.3 4 26.6 5.8 33.2 2 8.5-4.7 9.4-22.2-13.8-17.8 -5.1 0.2-16.2 0.9-33.8-6.4 23.7 4.8 30.5 2.5 43.7 3.5 6.6 0 8.8 8.8 20.3 3.8 8.2-5 9.3-8.5 5.2-11.9 -8.1-3.5-20.1 1.7-23 3.1 -2.5 1.2-40.7-3.5-52.8-7.7 -17.4 2.9-50.7 8.4-52.6 5.7 45.3-7.5 98-37.5 113.3-68 7.6-15.1 1-20.4-7.7-22.3 -34.9-7.4-96.6-3.4-136.9 25.2 -12.1 8.3-20.1 14.2-21.7 22.9 56.8-3.1 84.4-39.3 139.8-28.9 -35.7 3.1-61.3 27.7-73.6 36.2 -14.4 10.2-31.3 16.3-43 28.3 9.5 6.9 19.3 13.1 30.6 16.7C490.9 352.6 508.2 348.3 535.6 358.7z" class="c"/><path d="M559.7 371c-6.4 0-14.4-1.8-23.7-5.5 -9.1-3.6-18.4-5.1-29.2-7 -15.4-2.6-32.8-5.6-56.5-15.2 -19.4-7.8-40.1-25.6-42.1-44.5 -1.4-12.7 5.3-24.2 20-34.3 34.2-24.2 75.8-27.9 97.6-27.9 34.4 0 62.9 8.8 66.3 20.4 1.1 4 0.1 8.8-3.1 14.5 -12.2 21.4-52.8 49-72.7 55.4 3.3 0.4 7.8 0.9 12.8 1.5 13.3 1.7 29.9 3.7 35.9 3.7 1.5 0 1.9-0.1 2-0.2 0.2-0.1 0.5-0.2 0.8-0.4 2.6-1.2 7.9-3.8 13.5-3.8 3.7 0 7 1.1 9.7 3.3 4.3 3.5 5.8 8 4.2 12.6 -2.2 6.1-9.3 10.7-16.8 10.9 0 2.4-0.6 7.6-4.5 11.5C570.5 369.4 565.8 371 559.7 371zM525.7 237.7c-36.8 0-72.2 10.1-97 27.7 -14.3 9.9-20.9 21.1-19.6 33.4 2 18.5 22.5 36 41.6 43.7 23.6 9.5 41 12.5 56.3 15.1 10.8 1.8 20.1 3.4 29.3 7 17.7 6.9 30.4 7.2 36.8 0.8 3.9-3.9 4.2-9.2 4.2-11.3l0-0.5h0.5c7.3 0 14.3-4.4 16.4-10.3 1.5-4.2 0.1-8.3-3.9-11.5 -2.6-2.1-5.6-3.1-9.1-3.1 -5.4 0-10.6 2.5-13.1 3.7 -0.3 0.2-0.6 0.3-0.9 0.4 -0.2 0.1-0.8 0.3-2.4 0.3 -6.1 0-22.7-2.1-36.1-3.7 -6.3-0.8-11.7-1.5-15.1-1.8l-0.1-0.9c18.8-4.8 61.8-33.5 74.5-55.6 3.1-5.4 4.1-10 3-13.7C587.9 246.4 559.2 237.7 525.7 237.7z" class="d"/><path d="M577.1 360.7l-0.9-0.3c2.3-6.2 0.4-11.9-5.3-15.4 -6.5-4-17.1-3.9-23.4 3.1 0 0 9.6-12.2 23.9-3.9C577.5 347.9 579.6 354.1 577.1 360.7z" class="d"/><path d="M552.7 343.8c-12.2 0-29-5.9-29-5.9 0.2 0 19.1 5.2 31.3 5l-1.3 0.9C553.3 343.8 553 343.8 552.7 343.8z" class="d"/><path d="M463.8 333.8c0.5 0 46.2-2.9 63.7-12.7l0.5 0.8C509.6 332.8 463.8 333.8 463.8 333.8z" class="d"/><path d="M479.2 298.1l-0.7-0.6c29.4-33 69.1-36 69.1-36l0 0.5C547.1 262 508.3 265.4 479.2 298.1z" class="d"/><path d="M290.7 176.1c17 19.1 32.1 40.1 0.6 87 -20.7 37.4 20.4 93.2 97.4 90.7 82.6-2.7 81.2-68 54.2-102.2 -12.8-23-33.5-45.3-8.7-75.5C391 190.6 325.3 191.2 290.7 176.1z" class="a"/><path d="M384.1 248c-3.4-20.9-4.7-41.7 0.6-62 -34.6 3.2-71.1 0.1-94-9.9 17 19.1 32.1 40.1 0.6 87 -2.8 5.1-4.5 10.6-5.1 16.3 20.2-10.2 47.5 1.1 70.7-3.4C367.9 274.5 373.5 252.8 384.1 248z" class="c"/><path d="M383.8 354.3c-47.7 0-78-22.4-90.3-43.3 -9.6-16.2-10.5-33.8-2.5-48.2 30.3-45.2 17.7-65.9-0.6-86.4l0.5-0.7c16.3 7.1 40.3 11 67.5 11 27.1 0 54.7-4 75.8-11.1l1.5-0.5 -1 1.3c-21.1 25.7-8.9 45.8 2.9 65.2 1.9 3.2 4 6.5 5.8 9.8 13.7 17.4 22.7 45.5 11.7 69.2 -6.8 14.6-23.8 32.2-66.3 33.6C387.1 354.3 385.4 354.3 383.8 354.3zM292.5 177.4c7.8 8.9 15.3 18.8 17.2 31.8 2.2 15.2-3.6 33-17.9 54.2 -7.8 14.1-6.9 31.3 2.5 47.2 12.2 20.7 42.1 42.8 89.5 42.8 1.7 0 3.3 0 5-0.1 42.1-1.4 58.9-18.8 65.5-33.1 10.8-23.3 1.9-51.1-11.6-68.3 -1.9-3.3-3.9-6.6-5.8-9.8 -11.8-19.4-24-39.4-3.9-65.1 -21 6.8-48 10.6-74.6 10.6C332.1 187.7 308.8 184 292.5 177.4z" class="d"/><path d="M425.9 245.8c-12.8-23-31.7-55.6 8.5-69.7 -43.4 14.5-109 15.1-143.6 0 17 19.1 50.4 33 32.5 78.1 -23.1 58.3 23.3 101.8 65.5 99.6C463.9 349.8 443.8 277.9 425.9 245.8z" class="e"/><path d="M408.5 237.2c-10.2-18.1-10.9-40.7-17.8-35.5 -16.9 11.6-41.6 11.8-55.3 3.8 -4.2-2.5-13-2.5-17.6-3.1 9.8 11.9 15.2 27.2 5.5 51.8 -7 17.7-7.6 34.1-3.9 48.2 18.5 23.9 35.5 33.1 65.3 27.5C435.6 312.3 420.2 258 408.5 237.2z" class="f"/><path d="M385.7 354.3c-22.3 0-44.2-11.9-57.3-31.1 -13.4-19.8-15.4-44.3-5.6-69.1 14.1-35.6-4.3-51.8-20.5-66.2 -4.4-3.9-8.5-7.5-12-11.4l0.5-0.7c16.3 7.1 40.3 11 67.5 11 27.1 0 54.7-4 75.8-11.1l0.3 0.9c-11.8 4.1-19.4 10.3-22.4 18.2 -5.7 15.1 5 34.3 13.6 49.7l0.6 1c10.7 19.2 25 58.6 10.7 84.5 -8.2 14.8-24.4 22.9-48.1 24.2C387.8 354.3 386.7 354.3 385.7 354.3zM292.5 177.4c3.1 3.3 6.7 6.5 10.4 9.8 16.4 14.6 35.1 31.1 20.7 67.2 -9.7 24.5-7.8 48.8 5.5 68.3 12.7 18.7 34.9 30.7 56.5 30.7 1 0 2.1 0 3.1-0.1 23.4-1.2 39.4-9.2 47.4-23.7 14.1-25.6 0-64.6-10.7-83.6l-0.6-1c-8.7-15.6-19.5-35-13.7-50.5 2.4-6.3 7.4-11.4 15-15.4 -19.9 5.5-44.1 8.6-67.8 8.6C332.2 187.7 308.9 184 292.5 177.4z" class="g"/><path d="M360.7 339.4c-7.9-0.1-17.9-5.9-21.6-14.6 -2.9-7-9.2-2.2-13.1-9.7 -4.9-9.3-15.2-21.5-20.8-25.6 3.8-1.3 10.5-6.3 12.3-12.5l-2.1-45.5c-29.5 10.2-48 49.4-46.9 60.2 1.5 14.1 38.5 34.8 39.9 38.7 1.2 3.4-13.6 11.8-16.5 9.9 -5.1-3.2-27-7.9-27.7 7.6 -0.7 15.6 21.8 19.4 29.9 13.3 1.3 11 12.2 13.5 21.1 12.8 9-0.7 18.2-10.6 20.3-23.7 5.5 10.1 28.9 24.4 41 15.5C389.3 356.5 379.4 337.9 360.7 339.4z" class="a"/><path d="M360.7 339.4c-10.5 4-21.6-0.2-25.2-8.8 -2.9-7-9.7-4.4-13.6-12 -4.9-9.3-31.5-28.9-28.5-34.3 11.6 0.8 18.9-1.6 24.2-7.4l-2.9-26.5 0.8-19c-29.5 10.2-48 49.4-46.9 60.2 1.5 14.1 38.5 34.8 39.9 38.7 1.2 3.4-13.6 11.8-16.5 9.9 -5.1-3.2-27-7.9-27.7 7.6 -0.5 11.8 23 12 24.3 4.8 1.5-8.5 8-9.2 18.1-12.2 5.1-1.5 12.4-6.3 15.3-9.2 -3.8 5.7-7.8 8.5-13.3 14.8 -7.2-1.5-12.7 5.3-14.3 8.3 -0.7 10.3 10 13.4 18.4 10.9 8.4-2.5 19.9-13.2 22-26.3 5.5 10.1 24.1 28.3 37.1 20.7C381.1 354.3 379.4 337.9 360.7 339.4z" class="b"/><path d="M360.7 339.4c-10.5 4-19.2-1.9-22.8-10.6 -2.9-7-9.6-3.9-13.5-11.5 -4.9-9.3-24.3-27.6-30-31.7 11.6 0.8 17.8-2.8 23.2-8.7l2.3-30 -4.4-15.5c-29.1 13.4-43.9 50.1-42.8 60.8 1.5 14.1 37.9 30.6 38.3 37.2 0.6 9.4-16.5 14.6-19.5 12.7 -5.1-3.2-22.6-6.9-27.3 5.7 -0.5 11.8 24.9 13.2 26.2 6 1.5-8.5 6.2-9.3 16.3-12.3 5.1-1.5 12.4-7.4 15.2-10.2 -3 7.6-10.9 12.8-8.2 16 -7.2-1.5-18.3 4.2-19.3 10 -0.7 10.3 10.7 13 19.2 10.5 8.4-2.5 19.3-11.6 21.4-24.7 5.5 10.1 24.9 25.8 37.9 18.2C382.1 355.9 379.4 337.9 360.7 339.4z" class="c"/><path d="M312.6 374.7c-8.6 0-17.2-3.3-18.8-12.6 -5.2 3.4-14.7 3.2-21.6-0.4 -5.7-3-8.7-7.9-8.4-13.8 0.2-4.5 2.1-7.7 5.6-9.5 7.3-3.8 19.2-0.7 22.7 1.5 1.6 1 8.5-1.9 13-5.5 2.1-1.6 3.1-3.1 2.8-3.9 -0.4-1.1-4.7-4.3-9.8-7.9 -11.6-8.4-29.1-21.1-30.1-30.9 -0.6-6 5-21.6 15.5-35.9 15.3-20.8 31.9-24.3 31.9-24.3 -13 4.5-23.6 14.5-31.5 25.3 -10.1 13.9-15.5 29-14.9 34.8 1 9.4 18.3 21.9 29.8 30.2 6.3 4.6 9.7 7 10.1 8.4 0.5 1.6-1.4 3.5-3.1 4.9 -4.1 3.2-11.8 7-14.1 5.5 -3.4-2.1-14.9-5.1-21.8-1.5 -3.2 1.7-5 4.6-5.1 8.7 -0.2 5.5 2.6 10.1 7.9 12.9 6.8 3.6 16.5 3.6 21.3 0l0.7-0.5 0.1 0.8c1.2 10.3 11.4 13.2 20.6 12.4 9.1-0.7 17.8-11 19.8-23.3l0.2-1.4 0.7 1.2c3.5 6.4 14.7 14.9 25.7 17.4 5.9 1.3 11 0.6 14.6-2.1 5-3.7 6.8-9.1 4.7-14.6 -2.3-6.1-9.4-11.9-20.2-11 -7.8-0.1-18.2-5.7-22-14.8 -1.4-3.2-3.4-3.8-5.8-4.4 -2.5-0.6-5.2-1.3-7.3-5.3 -4.9-9.5-15.2-21.5-20.7-25.5l-0.7-0.5 0.9-0.3c3.9-1.3 10.9-6.4 12.6-13.6l0.4 1.7c-1.7 5.8-7.7 10.8-11.8 12.5 5.7 4.5 15.5 16 20.3 25.3 1.9 3.6 4.4 4.3 6.7 4.9 2.4 0.6 4.9 1.2 6.4 4.9 3.6 8.7 13.8 14.2 21.1 14.3 11.3-0.9 18.7 5.2 21.1 11.6 2.2 5.9 0.3 11.8-5 15.7 -3.9 2.8-9.2 3.6-15.4 2.2 -10.7-2.4-21.5-10.3-25.6-16.8 -2.4 12.2-11.2 22.1-20.5 22.8C314.4 374.6 313.5 374.7 312.6 374.7z" class="d"/><path d="M307.8 292.3c-4.3-5-13.4-6.6-13.4-6.6 0 0 9.7 0.7 14.2 6L307.8 292.3z" class="d"/><path d="M308.6 346.2l-1.2-0.4c5.2-3.9 14.5-14 14.5-14C321.5 332.2 313.9 342.2 308.6 346.2z" class="d"/><path d="M294.3 364.3c-2.1-6-0.9-11.6 3.3-15.2 8.3-7.3 17.7-1 17.7-1 -5.8-2.8-12.6-2.1-17 1.7 -3.9 3.4-5 8.6-3 14.2L294.3 364.3z" class="d"/><path d="M350.2 342.2c0 0 8.8-4 15-3.2l-0.1 0.9C359 339.2 350.3 342.1 350.2 342.2z" class="d"/><path d="M473.7 352.5c-3.6-8-14.4-13.7-13.2-16.3 1.2-2.6 28-41.6 25.1-51.1 -5-16.7-31.4-54.1-63.2-56 0 0 12.3 32.9 17.1 49.3 2 6.8 11 10.4 16 12.4 -13.9 11.7-19.2 37.6-18.3 48.4 -4.1 1.1-14.3 5.1-20.1 10.2 -5-2.8-24.6-7.8-25.9 8.9 -1.5 20 27.8 20 45 8.3 -0.7 16.5 9 25.2 19.3 23.8 10.4-1.4 16.3-7.3 13.3-19.2 7.8 3.9 31.8 3.9 31.7-10.6C500.5 347.4 481.7 346.6 473.7 352.5z" class="a"/><path d="M495.6 351.5c-7.1-5-20.2-1.7-25.2 4.5 -0.9-7.5-18.4-16.5-16.8-19.3 10.5-15.9 18.2-33.9 22.2-47.3 0-10.6-4.3-18.8-19.5-31 -17.4-11.5-20.2 2.3-16.3 10.2 0.1 0.4-0.9 2.5-0.8 3 3.1 8.2 18.4 15.4 29.5 13.7 -5.3 1.6-10.1 4-13.1 5.6 -13.9 11.7-19.2 37.6-18.3 48.4 -4.1 1.1-14.3 5.1-20.1 10.2 -5-2.8-24.6-7.8-25.9 8.9 -0.1 1-0.1 1.9 0 2.8 0.8 11.6 38.1 7.6 48.4-5.2 -0.9 9.7-0.1 17.9 8.4 21.7 5.7 2.8 11.1 3.8 14 0 5.7-7 2.9-12.3 0.3-13.9 -4.3-3-8.6-7.1-9.9-15 8.5 11.3 17.2 19.9 32.5 16C496.8 361.7 502.2 355.2 495.6 351.5z" class="b"/><path d="M497.4 354.3c-7.1-5-22-4.6-27 1.7 -0.9-7.5-15.6-17.1-14-19.9 10.5-15.9 18.2-34.9 22.1-48.2 0-10.6-7.7-20.4-22.9-32.6 -17.4-11.6-22.4 7.2-18.6 15.1 0.1 0.4 0.3 0.9 0.4 1.3 3.1 8.2 18.3 16.3 29.4 14.6 -17.4 3.6-28.6 34.8-26.4 54.6 0 2.2-11 1.8-21.6 11.2 -5-2.8-25.8-7.6-27.7 9.2 0.8 11.6 37.3 10.6 47.6-2.2 -0.9 9.7-0.5 18.8 8 22.5 5.7 2.8 14.2 1.8 17.1-2 5.7-7 0.9-14.2-1.7-15.8 -4.3-3-8.6-7.1-9.9-15 8.5 11.3 20.6 22.7 35.8 18.5C497.2 364.8 502.2 358.9 497.4 354.3z" class="c"/><path d="M453.3 391.1c-4 0-7.7-1.4-10.7-4.2 -4.7-4.2-7.1-11.1-6.9-19.3 -12 7.8-28.9 9.9-38.1 4.6 -5-2.9-7.4-7.7-6.9-13.8 0.4-5 2.4-8.6 6.1-10.5 6.8-3.7 16.9-0.6 20.2 1.1 6-5.2 16.1-8.9 19.7-10 -0.8-11.2 4.5-36 18-47.9 -4.7-2-12.4-6.1-16.2-12.8l-0.1-1.7c4.2 7.8 12.8 12.1 17.3 13.9l0.7 0.3 -0.6 0.5c-13.8 11.6-19.1 37.1-18.2 48l0 0.4 -0.4 0.1c-3.3 0.9-13.9 4.7-19.9 10.1l-0.2 0.2 -0.3-0.2c-3.7-2-13.5-4.6-19.6-1.3 -3.3 1.8-5.2 5.1-5.6 9.8 -0.4 5.8 1.8 10.3 6.5 12.9 9.1 5.2 26.1 2.9 37.8-5.1l0.8-0.5 0 0.9c-0.4 8.4 2 15.3 6.6 19.5 3.4 3.1 7.7 4.4 12.2 3.8 5.6-0.8 9.5-2.8 11.7-6 2.1-3.1 2.5-7.4 1.2-12.7l-0.2-1 0.9 0.5c5.4 2.7 18.5 3.4 25.8-1.1 3.5-2.2 5.3-5.2 5.3-9.1 0-5.3-3.1-8-5.8-9.3 -5.8-2.9-15.1-2.2-20.3 1.6l-0.5 0.3 -0.2-0.5c-1.9-4.2-5.7-7.7-8.8-10.5 -3-2.8-5.1-4.6-4.4-6.1 0.2-0.5 1.3-2.2 3-4.9 6.7-10.5 24.3-38.4 22.1-45.8 -2.8-9.2-11.3-23.2-23-34.9 -11.1-11-25-19.9-39.8-20.8 0 0 19-1.9 42 21.6 11.6 12.1 19.2 25.7 21.7 33.8 2.4 7.9-14.9 35-22.2 46.6 -1.6 2.5-2.7 4.3-3 4.8 -0.4 0.9 1.8 2.9 4.1 5 3 2.8 6.8 6.2 8.8 10.3 5.5-3.7 14.9-4.4 20.9-1.4 4.1 2.1 6.3 5.6 6.3 10.1 0 4.2-1.9 7.6-5.7 9.9 -7.4 4.6-19.9 4-25.8 1.5 1.1 5.1 0.6 9.3-1.6 12.5 -2.3 3.4-6.5 5.6-12.3 6.4C454.8 391 454.1 391.1 453.3 391.1z" class="d"/><path d="M452.1 294.9l-0.8-0.5c3.6-5.4 15.5-8.1 15.5-8.1C466.7 286.3 455.6 289.8 452.1 294.9z" class="d"/><path d="M420.3 354.1c0 0-2-4.3-7.8-5.8l0.2-0.9C419 348.9 420.3 354.1 420.3 354.1z" class="d"/><path d="M470.4 356c0 0 4.4-5.4 7.8-6.3l0.2 0.9C475.3 351.4 470.4 356 470.4 356z" class="d"/><path d="M470 375.5h-0.9c0-5.3-2.3-9-6.7-10.9 -5.5-2.3-12.9-1-14.4 0.5 0 0 4.5-4.4 14.8-1.4C466 365.1 470 368.3 470 375.5z" class="d"/><path d="M462.8 364.8c-7.7-4.2-10.2-14.1-10.2-14.1 0 0.1 3.3 9.3 10.7 13.3L462.8 364.8z" class="d"/><path d="M442.5 101.2c-10.4-44.3-43.8-43.7-55.1-25.1 -20.3-9.5-59.2-1.5-70.5 8 -17.6-17-51.2-6.9-46.9 45.4 -46.8 34.3-8.5 77 61.3 71.7l65.5-5.2C502.4 184.7 488.1 115.7 442.5 101.2z" class="a"/><path d="M458.9 129.9c-5.8-18.2-17.8-21.5-20.4-26.6 -3.3-6.2 0.2-20.8-15.9-35 -13.1-8.1-28.2-3.5-35.1 7.9 -20.3-9.5-59.2-1.5-70.5 8 -17.6-17-51.2-6.9-46.9 45.4 -46.8 34.3-8.5 77 61.3 71.7l65.5-5.2c24.4-2.6 42.4-8.3 55.1-15.7 1.4-1.7 2.7-3.3 4.2-5C467.4 161.2 464 146.1 458.9 129.9z" class="b"/><path d="M460.7 128.6c-5.8-18.2-19.6-20.3-22.3-25.4 -3.3-6.2 3.2-18.5-11.6-31.2 -11.3-9.9-35.2-5.4-40.6 7.6 -17.4-9.9-63.2 0-66.1 9.9 -15-19.7-53.7-11.9-45.8 42.1 -51.9 34.4-12.9 74.8 56.9 69.4l65.5-5.2c24.4-2.6 42.4-8.3 55.1-15.7 1.4-1.7 2.7-3.3 4.2-5C467.4 161.2 465.8 144.8 460.7 128.6z" class="c"/><path d="M264.8 187.9c-6.9-4.8-11.8-10.6-14.3-17.3 -5.1-13.9 1.6-28.6 18.9-41.3 -2.9-36.5 12.4-47.8 19.1-51 9.3-4.4 20.4-2.4 28.4 5.1 12.2-9.8 50.1-17.1 70.3-7.9 5.4-8.6 15.3-13.1 25.4-11.5 14.3 2.3 25.3 15.7 30.3 36.9 21.9 7.1 36.3 26.3 34.4 45.9 -1.2 11.8-8.2 22.5-20.2 30.8l-0.5-0.8c11.8-8.2 18.7-18.6 19.8-30.1 1.9-19.2-12.4-38.1-34-45l-0.3-0.1 -0.1-0.3c-4.9-20.9-15.7-34.2-29.6-36.4 -9.8-1.6-19.5 2.9-24.7 11.4l-0.2 0.4 -0.4-0.2c-19.6-9.2-58.5-1.7-70 7.9l-0.3 0.3 -0.3-0.3c-7.7-7.5-18.5-9.5-27.6-5.3 -6.5 3.1-21.4 14.2-18.5 50.3l0 0.3 -0.2 0.2c-17.1 12.5-23.8 26.9-18.8 40.4 2.4 6.5 7.2 12.2 13.9 16.8L264.8 187.9z" class="d"/><path d="M321.7 96.2c0-0.1-1.9-9.8-7.5-13.8l0.5-0.8C320.7 85.8 321.7 96.2 321.7 96.2z" class="d"/><path d="M383.4 89.2c0 0 1.4-12.6 6.8-17.4l0.6 0.7C386.2 76.3 383.4 89.1 383.4 89.2z" class="d"/><path d="M330.9 108.5c-2.4-0.7-2.7-4.1-2.3-6.6 -2.5 4.3 0.1 8.2 2.2 8.5 2.2 0.4 5-2.1 5-6.3C335.3 105.3 333.3 109 330.9 108.5z" class="i"/><path d="M331.2 110.9c-0.2 0-0.4 0-0.6-0.1 -2.4-0.4-4-3.4-3.4-6.6 0.6-3.2 3-5.5 5.4-5.1 2.4 0.4 4 3.4 3.4 6.7C335.6 108.7 333.5 110.9 331.2 110.9zM332.1 100c-1.8 0-3.5 1.9-3.9 4.4 -0.5 2.7 0.7 5.2 2.6 5.6 1.9 0.3 3.9-1.7 4.3-4.3 0.5-2.7-0.7-5.2-2.6-5.6C332.4 100 332.2 100 332.1 100z" class="d"/><path d="M364.7 107.2c-2.5 0.1-3.8-3-4.3-5.5 -1 4.9 2.7 7.7 4.8 7.4 2.2-0.3 4-3.6 2.7-7.5C367.8 102.8 367.2 106.9 364.7 107.2z" class="i"/><path d="M365.8 109.4c-0.2 0.1-0.4 0.1-0.6 0.1 -2.4 0.4-4.8-2-5.3-5.2 -0.5-3.2 1.1-6.2 3.5-6.6 2.4-0.4 4.8 2 5.3 5.2C369.2 105.9 368 108.7 365.8 109.4zM363.2 98.8c-1.7 0.6-2.7 2.9-2.3 5.4 0.4 2.7 2.3 4.7 4.3 4.4 2-0.3 3.1-2.8 2.7-5.5 -0.4-2.7-2.3-4.7-4.3-4.4C363.4 98.7 363.3 98.7 363.2 98.8z" class="d"/><path d="M338.2 97.4c-1.4-2.2-3.6-3.4-6-3.4h0c-2.6 0-5.2 1.4-6.5 3.5 0 0 1.1-4.1 6.5-4.4h0C336.7 93 338.2 97.4 338.2 97.4z" class="d"/><path d="M369.5 95.9c-1.4-2.2-3.6-3.4-6-3.4h0c-2.5 0-5.2 1.4-6.5 3.5 0 0 1.5-4.4 6.5-4.4h0C368.7 91.5 369.5 95.9 369.5 95.9z" class="d"/><path d="M319.8 127c0 0 7.7-11 26.6-13.7 21.2-3.1 31.8 7.2 31.8 7.2C346.6 103.1 322.5 124.5 319.8 127z" class="d"/><path d="M475.6 133.5c-19.3-19.7-37.4 10-52.6 14.9 -22.1 7.1-47.8-20.8-74.1-15.5 -26.3 5.3-29.3 21.5-46.6 24 -15.6 2.3-43.4-12-52.6 8.7 3.6 21.9 35.8 39.1 81.6 35.6l33.2 4.3 32.4-9.5C463.8 188.8 482.5 158.4 475.6 133.5z" class="e"/><path d="M452.5 164c12.1-13.9 10-28.7 7.6-37.2 -13.3 1.6-26.1 18.1-37 21.6 -22.1 7.1-47.8-20.8-74.1-15.5 -26.3 5.3-29.3 21.5-46.6 24 -15.6 2.3-43.4-12-52.6 8.7 3.6 21.9 37.3 35.1 83 31.6 21.2 6.9 38.8 5.4 60.6-4.5C405.6 186.1 430.8 189.1 452.5 164z" class="f"/><path d="M279.5 195.4c-16.8-6.3-28.2-16.8-30.3-29.7l0-0.1 0.1-0.1c6.5-14.6 22.1-12.3 35.9-10.2 6.3 1 12.3 1.9 17.1 1.2 7.8-1.1 12.6-5.1 18.2-9.6 6.6-5.4 14-11.5 28.4-14.4 13.3-2.7 26.4 3 39 8.4 12.5 5.4 24.2 10.5 35.1 7 4.6-1.5 9.6-5.3 14.8-9.4 11.6-9 24.7-19.3 38.3-5.4l0.1 0.1 0 0.1c3 10.7 1.1 21.3-5.3 30.7 -3.9 5.8-10.5 12.4-21.4 18.2 -26.7 13.3-52.6 13.3-52.6 13.3 24.2-2.6 41-8 52.7-14.4 10.5-5.7 16.8-12 20.6-17.6 6.2-9.1 8-19.4 5.2-29.8 -13-13.2-25.2-3.6-37 5.6 -5.3 4.1-10.3 8-15.1 9.6 -11.2 3.6-23.1-1.6-35.7-7.1 -12.5-5.4-25.4-11-38.4-8.4 -14.1 2.9-21.5 8.9-28 14.2 -5.7 4.6-10.6 8.6-18.6 9.8 -4.9 0.7-11-0.2-17.4-1.2 -14-2.1-28.6-4.3-34.8 9.5 1.9 11.1 12 22 29.1 28.7 13.3 5.2 30.8 7.9 51.9 6.3C331.2 200.7 305.7 205.1 279.5 195.4z" class="d"/><path d="M317.1 175.6c7.1-0.5 12.1-3.2 17.5-6.2 6-3.3 12.2-6.7 22.1-7.6 10.3-0.9 18.7 1 26 2.8 6.2 1.5 11.6 2.8 17 2.1 0 0-6.6 1.9-17.2-1.2 -7.3-1.7-15.6-3.7-25.7-2.8 -9.7 0.9-15.8 4.2-21.8 7.5C324.2 176.4 317.1 175.6 317.1 175.6z" class="g"/><path d="M349 147.7c28.9-4.7 68.5 12.8 81-2.9 -2.4 1.6-4.7 2.8-6.9 3.6 -22.1 7.1-47.8-20.8-74.1-15.5 -26.3 5.3-29.3 21.5-46.6 24 -5.4 0.8-12.2-0.4-19.2-1.5C308.6 166.2 331.1 150.6 349 147.7z" fill="#1E0300"/><path d="M320.6 147.3c-5.5 4.5-10.4 8.4-18.2 9.6 -5.4 0.8-12.2-0.4-19.2-1.5 13.7 5.8 26.4 4 38.1 0.7C319.6 154.1 319 150.7 320.6 147.3z" class="j"/><path d="M423.1 148.4c-10.3 3.3-21.3-1-32.8-5.9 1.4 2.5 2 5.7 0.7 7.4 17 2.2 32.1 3.6 39-5C427.6 146.4 425.3 147.7 423.1 148.4z" class="j"/><path d="M301.8 159.6h0c-6.6 0-12.8-1.2-18.8-3.8l0.3-0.9 2 0.3c4.8 0.7 9.3 1.4 13.4 1.4 1.4 0 2.6-0.1 3.8-0.2 7.8-1.1 12.6-5.1 18.2-9.6 6.6-5.4 14-11.5 28.4-14.4 2.3-0.5 4.6-0.7 7.1-0.7 10.9 0 21.6 4.6 31.9 9.1 9.7 4.2 18.8 8.2 27.5 8.2 2.7 0 5.2-0.4 7.5-1.1 2-0.6 4.2-1.8 6.8-3.5l0.6 0.7c-3.7 4.7-10.1 6.9-19.9 6.9 -6.9 0-14.8-1.1-23.1-2.2 -9-1.2-18.3-2.5-27.2-2.5 -4.1 0-7.8 0.3-11.2 0.8 -5.1 0.8-10.6 2.7-16.5 4.7C323.3 156.1 312.8 159.6 301.8 159.6zM287.6 156.6c4.6 1.4 9.2 2.1 14.2 2.1h0c10.9 0 21.3-3.5 30.5-6.7 5.9-2 11.4-3.9 16.7-4.7 3.4-0.6 7.2-0.8 11.3-0.8 8.9 0 18.3 1.3 27.3 2.5 8.3 1.1 16.1 2.2 23 2.2 7 0 12.2-1.1 15.9-3.6 -1.1 0.6-2.2 1-3.2 1.3 -2.4 0.8-5.1 1.2-7.8 1.2h0c-8.9 0-18.1-4-27.9-8.3 -10.2-4.5-20.8-9.1-31.6-9.1 -2.3 0-4.7 0.2-6.9 0.7 -14.1 2.9-21.5 8.9-28 14.2 -5.7 4.6-10.6 8.6-18.6 9.8 -1.2 0.2-2.5 0.3-3.9 0.3C295.2 157.6 291.5 157.1 287.6 156.6z" class="d"/><path d="M316.1 111.2c-0.6 14.5-9.6 25.9-20.4 25.9 -10.8 0-20-11.8-20-26.3 0-14.5 8-28 20-28C309.1 82.8 316.7 97 316.1 111.2z" class="k"/><path d="M315.2 110.8c0 14.5-37.6 20.2-39.1 0 0-14.5 8.8-26.3 19.6-26.3C306.5 84.5 315.2 96.3 315.2 110.8z" class="m"/><path d="M295.7 137.5c-11 0-20-12-20-26.8s9-26.8 20-26.8c11 0 20 12 20 26.8S306.7 137.5 295.7 137.5zM295.7 85c-10.5 0-19.1 11.6-19.1 25.8 0 14.2 8.6 25.8 19.1 25.8 10.5 0 19.1-11.6 19.1-25.8C314.8 96.5 306.2 85 295.7 85z" class="k"/><path d="M310.5 108.2c0.7 10.3-4.6 19.2-12 20 -7.3 0.8-13.8-6.9-14.5-17.2 -0.7-10.3 4.6-19.2 12-20C303.3 90.2 309.8 97.9 310.5 108.2z" class="n"/><path d="M309.5 108.9c-0.6-9.3-6.6-16.4-13.2-15.6 -6.6 0.7-11.5 8.9-10.9 18.2 0.3 5 3.4 11.7 6.8 13.8 -4.7-7.3-5.3-13.4-3.2-19.4 2.6-7 9-10 14.6-3.7 4.4 5.4 4.5 14.3 0.3 22C306.8 120.8 309.9 114.7 309.5 108.9z" class="o"/><path d="M291.8 98.7c-0.6-1.3-1.1-2.4-1.2-2.3 -0.1 0.1 0.3 1.2 0.9 2.5 0.6 1.3 1.1 2.4 1.1 2.3C292.8 101.2 292.4 100.1 291.8 98.7z" class="p"/><path d="M296.4 96.3c-0.2-1.5-0.4-2.7-0.5-2.7 -0.1 0 0 1.2 0.2 2.7 0.2 1.5 0.4 2.7 0.5 2.7C296.7 99 296.6 97.8 296.4 96.3z" class="p"/><path d="M288.7 103c-0.9-0.7-1.6-1.2-1.7-1.1 0 0.1 0.7 0.7 1.5 1.4 0.9 0.7 1.6 1.2 1.7 1.1C290.2 104.3 289.6 103.6 288.7 103z" class="p"/><path d="M286.9 108.7c-0.9-0.2-1.6-0.3-1.6-0.2 0 0.1 0.7 0.3 1.6 0.5 0.9 0.2 1.6 0.3 1.6 0.2C288.5 109.1 287.8 108.9 286.9 108.7z" class="p"/><path d="M287.2 114.1c-0.8 0.1-1.4 0.2-1.4 0.2 0 0.1 0.6 0.1 1.4 0 0.7-0.1 1.4-0.2 1.4-0.2C288.6 114 288 114 287.2 114.1z" class="p"/><path d="M288.1 119c-0.5 0.2-0.9 0.4-0.9 0.5 0 0.1 0.4 0 0.9-0.3 0.5-0.2 0.9-0.4 0.9-0.5C289 118.7 288.6 118.8 288.1 119z" class="p"/><path d="M301 97.6c0.3-1.5 0.7-2.8 0.8-2.7 0.1 0-0.1 1.3-0.5 2.8 -0.3 1.5-0.7 2.8-0.8 2.7C300.5 100.4 300.7 99.1 301 97.6z" class="p"/><path d="M305.1 101.7c0.8-1 1.5-1.7 1.5-1.7 0.1 0.1-0.5 0.9-1.3 1.9 -0.8 1-1.5 1.7-1.5 1.7C303.7 103.6 304.3 102.7 305.1 101.7z" class="p"/><path d="M307.5 107.7c0.9-0.3 1.6-0.4 1.6-0.3 0 0.1-0.7 0.4-1.6 0.6 -0.9 0.3-1.6 0.4-1.6 0.3C305.9 108.2 306.6 107.9 307.5 107.7z" class="p"/><path d="M307.9 113.5c0.6 0 1.1 0.1 1.1 0.2 0 0.1-0.5 0.1-1.1 0 -0.6 0-1.1-0.1-1.1-0.2C306.8 113.5 307.3 113.5 307.9 113.5z" class="p"/><path d="M307.4 117.9c0.4 0.1 0.7 0.2 0.7 0.3 0 0.1-0.3 0-0.7 0 -0.4-0.1-0.7-0.2-0.7-0.3C306.7 117.8 307 117.8 307.4 117.9z" class="p"/><path d="M296.9 128.6c-6.9-0.4-12.5-8-13.2-17.6 -0.4-5.1 0.7-10 3-13.8 2.3-3.9 5.6-6.2 9.2-6.6 0.6-0.1 1.1-0.1 1.7 0 6.9 0.4 12.5 8 13.2 17.6 0.3 5.1-0.7 10-3 13.8 -2.3 3.9-5.6 6.2-9.2 6.6C298 128.6 297.5 128.7 296.9 128.6zM297.6 91.3c-0.5 0-1.1 0-1.6 0 -3.4 0.4-6.5 2.6-8.7 6.3 -2.2 3.7-3.2 8.4-2.9 13.3 0.6 9.2 6 16.5 12.6 16.9 0.5 0 1.1 0 1.6 0 3.5-0.4 6.6-2.6 8.8-6.3 2.2-3.7 3.3-8.4 2.9-13.3C309.6 99 304.2 91.8 297.6 91.3z" class="p"/><path d="M306.2 112.4c0.5 7.1-3.1 13.3-8 13.8 -4.9 0.5-9.3-4.8-9.8-11.9 -0.5-7.1 3.1-13.3 8-13.8C301.4 99.9 305.7 105.2 306.2 112.4z"/><path d="M295.6 107.2c-2.2 3.4-5.2 4.9-6.8 3.3 -1.6-1.6-1.2-5.6 1-9 2.2-3.4 5.2-4.9 6.8-3.3C298.2 99.8 297.8 103.8 295.6 107.2z" class="q"/><path d="M304 106.7c-0.1 1.6-1.1 2.8-2.3 2.7 -1.2-0.1-2.1-1.4-2.1-3 0.1-1.6 1.1-2.8 2.3-2.7C303.2 103.7 304.1 105.1 304 106.7z" class="q"/><path d="M305.6 109.6c0 0.6-0.5 1.1-1 1.1 -0.5 0-0.9-0.6-0.9-1.2 0-0.6 0.5-1.1 1-1.1C305.2 108.5 305.6 109 305.6 109.6z" class="q"/><path d="M431.2 98.4c0 14.5-9.2 26.3-20 26.3 -10.8 0-20-11.3-20-25.9 0-14.5 6.8-28.7 20-28.7C423.7 70.1 431.2 83.9 431.2 98.4z" class="k"/><path d="M430.8 98.4c-3.2 23.2-40 19.1-39.1 0 0-14.5 8.8-26.3 19.6-26.3C422 72.1 430.8 83.9 430.8 98.4z" class="m"/><path d="M411.2 125.1c-11 0-20-12-20-26.8 0-14.8 9-26.8 20-26.8 11 0 20 12 20 26.8C431.2 113.1 422.2 125.1 411.2 125.1zM411.2 72.6c-10.5 0-19.1 11.6-19.1 25.8 0 14.2 8.6 25.8 19.1 25.8 10.5 0 19.1-11.6 19.1-25.8C430.3 84.1 421.7 72.6 411.2 72.6z" class="k"/><path d="M421.5 97.4c0.7 10.3-4.6 19.2-12 20 -7.3 0.8-13.8-6.9-14.5-17.2 -0.7-10.3 4.6-19.2 12-20C414.3 79.4 420.8 87.1 421.5 97.4z" class="n"/><path d="M420.4 98.1c-0.6-9.3-6.6-16.4-13.2-15.6 -6.6 0.7-11.5 8.9-10.9 18.2 0.4 5 3.4 11.7 6.8 13.8 -4.7-7.3-5.3-13.4-3.2-19.4 2.6-7 9-10 14.6-3.7 4.4 5.4 4.5 14.3 0.3 22C417.8 110.1 420.8 104 420.4 98.1z" class="o"/><path d="M402.8 88c-0.6-1.3-1.1-2.4-1.2-2.3 -0.1 0 0.3 1.2 0.9 2.5 0.6 1.3 1.1 2.4 1.1 2.3C403.7 90.4 403.3 89.3 402.8 88z" class="p"/><path d="M407.3 85.5c-0.2-1.5-0.4-2.7-0.5-2.7 -0.1 0 0 1.2 0.2 2.7 0.2 1.5 0.4 2.7 0.5 2.7C407.6 88.2 407.5 87 407.3 85.5z" class="p"/><path d="M399.6 92.2c-0.9-0.7-1.6-1.2-1.7-1.1 0 0.1 0.7 0.7 1.5 1.4 0.9 0.7 1.6 1.2 1.7 1.1C401.2 93.5 400.5 92.9 399.6 92.2z" class="p"/><path d="M397.9 98c-0.9-0.2-1.6-0.3-1.6-0.2 0 0.1 0.7 0.3 1.6 0.5 0.9 0.2 1.6 0.3 1.6 0.2C399.5 98.4 398.8 98.1 397.9 98z" class="p"/><path d="M398.2 103.3c-0.8 0.1-1.4 0.2-1.4 0.2 0 0.1 0.6 0.1 1.4 0 0.7-0.1 1.4-0.2 1.4-0.2C399.5 103.3 398.9 103.3 398.2 103.3z" class="p"/><path d="M399.1 108.2c-0.5 0.2-0.9 0.4-0.9 0.5 0 0.1 0.4 0 0.9-0.3 0.5-0.2 0.9-0.4 0.9-0.5C400 107.9 399.6 108 399.1 108.2z" class="p"/><path d="M412 86.8c0.3-1.5 0.7-2.8 0.8-2.7 0.1 0-0.1 1.3-0.5 2.8 -0.3 1.5-0.7 2.8-0.8 2.7C411.4 89.6 411.7 88.3 412 86.8z" class="p"/><path d="M416 90.9c0.8-1 1.5-1.7 1.5-1.7 0.1 0.1-0.5 0.9-1.3 1.9 -0.8 1-1.5 1.7-1.5 1.7C414.6 92.8 415.2 91.9 416 90.9z" class="p"/><path d="M418.4 96.9c0.9-0.3 1.6-0.4 1.6-0.3 0 0.1-0.7 0.4-1.6 0.6 -0.9 0.3-1.6 0.4-1.6 0.3C416.8 97.4 417.5 97.2 418.4 96.9z" class="p"/><path d="M418.9 102.8c0.6 0 1.1 0.1 1.1 0.2 0 0.1-0.5 0.1-1.1 0 -0.6 0-1.1-0.1-1.1-0.2C417.8 102.7 418.3 102.7 418.9 102.8z" class="p"/><path d="M418.3 107.1c0.4 0.1 0.7 0.2 0.7 0.3 0 0.1-0.3 0-0.7 0 -0.4-0.1-0.7-0.2-0.7-0.3C417.6 107 417.9 107 418.3 107.1z" class="p"/><path d="M407.9 117.8c-6.9-0.4-12.5-8-13.2-17.6 -0.4-5.1 0.7-10 3-13.8 2.3-3.9 5.6-6.2 9.2-6.6 0.6-0.1 1.1-0.1 1.7 0 6.9 0.4 12.5 8 13.2 17.6 0.3 5.1-0.7 10-3 13.8 -2.3 3.9-5.6 6.2-9.2 6.6C409 117.9 408.4 117.9 407.9 117.8zM408.6 80.5c-0.5 0-1.1 0-1.6 0 -3.4 0.4-6.5 2.6-8.8 6.3 -2.2 3.7-3.2 8.4-2.9 13.3 0.6 9.2 6 16.5 12.6 16.9 0.5 0 1.1 0 1.6 0 3.5-0.4 6.6-2.6 8.8-6.3 2.2-3.7 3.3-8.4 2.9-13.3C420.5 88.2 415.1 81 408.6 80.5z" class="p"/><path d="M417.2 101.6c0.5 7.1-3.1 13.3-8 13.8 -4.9 0.5-9.3-4.8-9.8-11.9 -0.5-7.1 3.1-13.3 8-13.8C412.3 89.1 416.7 94.5 417.2 101.6z"/><path d="M406.6 96.4c-2.2 3.4-5.2 4.9-6.8 3.3 -1.6-1.6-1.2-5.6 1-9 2.2-3.4 5.2-4.9 6.8-3.3C409.2 89 408.7 93 406.6 96.4z" class="q"/><path d="M415 95.9c-0.1 1.6-1.1 2.8-2.3 2.7 -1.2-0.1-2.1-1.4-2.1-3 0.1-1.6 1.1-2.8 2.3-2.7C414.1 93 415.1 94.3 415 95.9z" class="q"/><path d="M416.5 98.9c0 0.6-0.5 1.1-1 1.1 -0.5 0-0.9-0.6-0.9-1.2 0-0.6 0.5-1.1 1-1.1C416.2 97.7 416.6 98.2 416.5 98.9z" class="q"/></svg>