<svg xmlns="http://www.w3.org/2000/svg" viewBox="0 0 768 430" style="enable-background:new 0 0 768 430;version:1"><style>.a{fill:#FFB68B;}.b{fill:#593919;}.c{fill:#E32047;}.d{fill:#F79E77;}.e{fill:#4F3115;}.f{fill:#FFF;}.g{fill:#EDECDA;}.h{fill:#5B5753;}.i{fill:#524E4B;}.j{fill:#726E6B;}.k{fill:#7F7E7F;}.l{fill:#AFACAF;}.m{fill:#F45179;}.n{fill:#DB4577;}.o{fill:#BA3568;}.p{fill:#423F3C;}.q{fill:#727172;}.r{fill:#4F4B47;}.s{fill:#4F4C48;}.t{fill:#AD0B0B;}.u{fill:#FFC82E;}.v{fill:#FF9B0B;}.w{fill:#2D2A28;}.x{fill:#FFB019;}.y{fill:#FF8906;}.z{fill:#B68538;}.A{fill:#9E6726;}.B{fill:#884C1A;}.C{fill:#7F4516;}.D{fill:#93561F;}.E{fill:#BD7C31;}.F{fill:#7C4115;}.G{fill:#743B12;}.H{fill:#728D1D;}.I{fill:#87A723;}.J{fill:#F38F00;}</style><ellipse cx="393" cy="249.9" rx="292.5" ry="134.6" fill="#7CD67C"/><path d="M212.3 182.1c0 0 19.9 16.7 28.5 28.6 9.4 13 8.7 33.5-10.7 42.8 -19.5 9.2-54.6 5.1-60.9-19.9 -6.3-25-1.4-29.9 4.5-37.9C188.2 193.5 212.3 182.1 212.3 182.1z" class="a"/><path d="M240.8 210.7c-8.6-11.9-28.5-28.6-28.5-28.6s-0.8 0.4-2.2 1c2.8 2.4 20.2 17.3 28.2 28.2 9.4 13 8.7 33.5-10.7 42.8 -1.9 0.9-4 1.7-6.1 2.3 3.1-0.7 6-1.7 8.7-3C249.6 244.2 250.3 223.7 240.8 210.7z" fill="#FCC7A2"/><path d="M225.6 255.2c1.5-0.5 3-1.1 4.4-1.8 5.3-6.3 7.7-16.3 4.8-23.1 -0.6-1.3-2.2 0.7-1.8 1.6C236 238.9 232.5 250.8 225.6 255.2z" class="b"/><path d="M211.9 257.5c-5.1-0.6-9.5-6.4-11.4-10.7 -0.5-1-2.1 1-1.7 1.9 1.4 3.1 4.1 6.9 7.3 9.2 2.2 0.1 4.3 0 6.4-0.1L211.9 257.5z" class="c"/><path d="M197.3 250.6c0.9-2.6 3.5-4.1 6.1-4.5 1-0.1 1.7-2.7 0.6-2.5 -3.6 0.5-7 2.9-8.2 6.4C195.3 251.5 196.7 252.1 197.3 250.6L197.3 250.6z" class="c"/><ellipse cx="188.8" cy="228.9" rx="4.5" ry="2.7" class="d"/><ellipse cx="195.6" cy="235.8" rx="3.1" ry="1.8" class="d"/><ellipse cx="185.7" cy="235.1" rx="2" ry="1.2" class="d"/><path d="M173.9 211.1c-1.1 1.1-5 3.1-7.3 7.8 0.4 4 1.2 8.8 2.7 14.8 3.7 14.7 17.4 22.2 32 23.9 1.6 0.2 3.3 0.3 4.9 0.4C163 247.2 173.9 211.1 173.9 211.1z" class="d"/><path d="M123.9 262.8c0 0-9 14.7 3.7 18.6 12.7 4 20.9-9.9 20.3-20.9C129.6 259.5 123.9 262.8 123.9 262.8z" class="b"/><path d="M148.6 260.2c0-0.2-0.1-0.5-0.4-0.5 -6.3-0.4-12.8-0.4-19 0.7 -1.7 0.3-3.7 0.7-5.3 1.6 -0.1 0-0.1 0.1-0.2 0.1 -0.1 0.1-0.2 0.2-0.3 0.4 -4.1 6.8-5.4 16.7 3.7 19.7C140.4 286.7 149 271.4 148.6 260.2zM147.2 263.4c-0.2 4.4-1.8 8.8-4.5 12.3 -2.6 3.5-6.5 5.7-10.9 5.6 -3.8 0-8.2-1.8-9.8-5.6 -1.6-3.8 0.1-8.8 2.2-12.2 3-1.6 7.3-1.8 10.6-2.1 2.2-0.2 4.3-0.2 6.5-0.2 1.5 0 2.9 0.1 4.4 0.1C147.5 261.4 147.3 261.8 147.2 263.4z" class="e"/><path d="M109.8 267.9c0 0-9 14.7 3.7 18.6 12.7 4 20.9-9.9 20.3-20.9C115.5 264.5 109.8 267.9 109.8 267.9z" class="b"/><path d="M134.5 265.3c0-0.2-0.1-0.5-0.4-0.5 -6.3-0.4-12.8-0.4-19 0.7 -1.7 0.3-3.7 0.7-5.3 1.6 -0.1 0-0.1 0.1-0.2 0.1 -0.1 0.1-0.2 0.2-0.3 0.4 -4.1 6.8-5.4 16.7 3.7 19.7C126.3 291.8 134.9 276.5 134.5 265.3zM133.1 268.4c-0.2 4.4-1.8 8.8-4.5 12.3 -2.6 3.5-6.5 5.7-10.9 5.6 -3.8 0-8.2-1.8-9.8-5.6 -1.6-3.8 0.1-8.8 2.2-12.2 3-1.6 7.3-1.8 10.6-2.1 2.2-0.2 4.3-0.2 6.5-0.2 1.5 0 2.9 0.1 4.4 0.1C133.4 266.5 133.2 266.8 133.1 268.4z" class="e"/><path d="M183.2 261.5c0 0 10.7 14.3-0.2 19.4 -10.9 5.1-17.1-11.9-18.1-18.3C169.1 261.3 183.2 261.5 183.2 261.5z" class="b"/><path d="M183.9 260.9c0-0.1-0.1-0.2-0.3-0.3 -0.1 0-0.2 0-0.3 0 -5.9-0.1-12.6-0.5-18.3 1.1 -0.6 0.2-0.9 0.9-0.8 1.4 1.3 8.2 7.4 22.7 18 18.8C191.9 278.4 188.5 267.2 183.9 260.9zM180.6 280.9c-8.4 1.6-13.3-10.7-14.7-17.6 5.3-1.3 11.5-0.9 16.9-0.8C187 268.2 190.7 278.9 180.6 280.9z" class="e"/><path d="M149.8 268.4c0 0 1.9 26.9 17.5 19.4 15.6-7.5-1.7-22-3.6-25.2C156.4 266.2 149.8 268.4 149.8 268.4z" class="b"/><path d="M174.3 277.3c-1-6.5-6.7-10.3-10-15.4 -0.1-0.2-0.4-0.2-0.6-0.1 -4.5 2.2-9.1 4.1-13.7 5.8 -0.1 0-0.3 0.2-0.4 0.3 -0.3 0.3-0.5 0.6-0.5 1 0.5 7.5 3.4 21.5 13.2 21.2C168.9 289.8 175.3 284.1 174.3 277.3zM166.8 287.3c-11.1 5.1-15.4-9.9-16.2-18.3 3-1.1 6-2.3 8.9-3.6 0.3-0.1 3.9-1.7 3.8-1.9 0.2 0.3 0.5 0.7 0.7 1 0.9 1.1 1.9 2.1 2.8 3.2 2.3 2.7 4.5 5.6 5.7 9C174.3 281.7 171.2 285.2 166.8 287.3z" class="e"/><path d="M190.6 256.2c0 0-10.3 13.4-17.8 4.6 -1.9 10.4-20.7 20.5-33.5 2.8 -16.5 11.7-46.1 3.5-33.1-24.5 -22.3 12.4-34.7-30.2-4.5-33.5 -7.7-12.6 6-29.9 19.9-20.3 -8.6-17.2 23.8-40.9 38-15.1 0.4-13.2 26.3-23 36.9-2.6 9.4-3.4 16.9 0.9 19.2 11.5 2.3 10.5-7.2 17.3-16.3 13.6 -1.7 7.1-8.2 8.8-13.8 5.9 -4.5 7.3-10.4 11.6-17.5 6.2C168.6 214.2 159.2 243.4 190.6 256.2z" fill="#FFEED9"/><path d="M189.9 255.3c-3.8 4.9-10.8 10-16.1 4.2 -0.9-1-2.1 0.8-2.2 1.6 -1.1 5.6-6.8 9.2-12 10.3 -7.8 1.7-14.7-3-19.2-9.1 -0.2-0.3-0.7-0.3-1.1-0.1 -7.4 5.2-17.7 6.7-26.1 2.9 -3.8-1.8-6.8-4.9-8.2-8.8 -2-5.6-0.1-11.8 2.3-17 0.4-0.8 0-2.1-1.1-1.5 -4.2 2.3-8.9 2.9-13.2 0.5 -3.9-2.1-6.3-6.3-7.4-10.4 -1.1-4.3-0.7-9 1.5-12.9 2.9-5.1 8.8-7.2 14.3-7.8 1.1-0.1 1.8-1.9 1.3-2.8 -3.1-5.3-2.6-11.7 1.4-16.3 4.4-5.1 11.4-4.7 16.6-1.2 1.3 0.8 2.3-1.9 1.9-2.7 -4.1-8.7 2.7-17.5 10.2-21.4 4.1-2.2 8.9-2.8 13.5-1.7 5.5 1.3 9.6 5.8 12.3 10.6 0.8 1.4 2.2-1.3 2.3-2 0.4-7 8.2-10.9 14.2-11.9 8.8-1.4 16.4 3.6 20.4 11.2 0.1 0.2 0.5 0.3 0.8 0.2 8-2.7 14.9 0.5 17.7 8.6 1.4 4.1 1.4 8.8-1.9 11.9 -3.1 2.9-7.9 3.1-11.7 1.6 -1.1-0.4-1.8 0.9-2 1.8 -1.5 5.6-7.1 6.3-11.8 4.2 -0.7-0.3-1.4 0.4-1.7 1 -1.8 2.9-4 5.8-7.3 7.1 -3 1.2-6-0.1-8.5-1.9 -1-0.7-2.1 1.4-2.1 2.1 0.2 3.4-0.4 6.9-0.7 10.4 -0.4 4.8-0.3 9.6 0.4 14.3 2 13.1 11.1 22.4 23.1 27.4 1.3 0.6 2.9-2.4 1.7-2.9 -11.8-4.9-20.3-13.7-22.5-26.5 -0.8-4.6-0.6-9.4-0.3-14.1 0.2-3.3 0.8-6.6 0.6-9.9 -0.7 0.7-1.4 1.4-2.1 2.1 8 5.7 14.8-0.2 19.2-7.2 -0.6 0.3-1.2 0.6-1.7 1 7.2 3.4 13.8-0.2 15.9-7.7 -0.7 0.6-1.4 1.2-2 1.8 10.2 3.8 19.9-4.3 18.5-15 -0.7-4.9-3.1-9.9-7.4-12.6 -2-1.3-4.5-1.7-6.9-1.7 -1.3 0-2.5 0.2-3.8 0.5 -0.3 0.1-1.5 0.7-1.8 0.2 -0.4-0.7-0.8-1.3-1.2-1.9 -5.2-7.9-14.7-10.9-23.6-8.4 -7 2-13.6 7.9-14 15.6 0.8-0.7 1.5-1.3 2.3-2 -3.1-5.4-7.5-9.8-13.7-11.3 -5.3-1.3-11 0.3-15.6 2.9 -8.7 5-15.5 16.1-10.8 26 0.6-0.9 1.3-1.8 1.9-2.7 -14.7-9.7-29.9 9.1-21.8 23.1 0.4-0.9 0.9-1.9 1.3-2.8 -6.5 0.8-12.4 3.6-16.2 9.1 -3.1 4.5-3.8 10.2-2.9 15.4 0.9 4.9 3.7 9.7 8 12.4 4.8 3 10.6 2.1 15.3-0.5 -0.4-0.5-0.7-1-1.1-1.5 -4.4 9.8-5.4 22.1 5.1 28.3 8.8 5.2 21 3.3 29.1-2.3 -0.4 0-0.7-0.1-1.1-0.1 5.4 7.2 13.4 11.7 22.4 9.1 6.3-1.8 12-7 13.3-13.5 -0.7 0.5-1.5 1.1-2.2 1.6 6.3 6.9 14.9 0.9 19.5-5C192.2 255.7 191.3 253.5 189.9 255.3z" fill="#F1CFA9"/><path d="M197.8 223.1c5.9 1.4 20-0.3 20-15.9 0-16.3-10.8-24.9-21.2-22C185.1 188.4 177.6 218.2 197.8 223.1z" class="f"/><ellipse cx="211.4" cy="211.2" rx="3.9" ry="5.2" class="b"/><path d="M213.8 207.4c0 1-0.6 1.8-1.4 1.8 -0.8 0-1.4-0.8-1.4-1.8 0-1 0.6-1.8 1.4-1.8C213.2 205.5 213.8 206.4 213.8 207.4z" class="f"/><path d="M217.6 208.9c2.4 1.7 11.9 4.3 15-4.7 3.4-9.9-10.3-25.3-18.9-20.9C206.3 186.9 211.2 204.3 217.6 208.9z" class="f"/><ellipse transform="matrix(0.5985 -0.8011 0.8011 0.5985 -74.9247 260.0516)" cx="222" cy="204.8" rx="3.1" ry="4.2" class="b"/><ellipse transform="matrix(0.168 -0.9858 0.9858 0.168 -19.1776 387.0947)" cx="219.7" cy="204.9" rx="1.4" ry="1.9" class="f"/><path d="M180.3 206.7c0 0-8.7-2.4-11.7-8.4 -3-6-11.8-8.2-13.9 0.6 -2.2 8.7 7.8 21.3 22.3 17C179.1 209.9 180.3 206.7 180.3 206.7z" class="a"/><path d="M172.8 216.9c0.9-3.2 0.9-5.9 0.9-5.9s-6.3-1.4-9.3-7.4c-2-3.9-6.3-6.1-9.7-4.9 0 0.1 0 0.2-0.1 0.2C152.6 207.1 159.8 219 172.8 216.9z" class="d"/><path d="M190.2 184.7c-2.9 0.1-3.8 3.9-3.9 6.1 -0.1 2.3-5.1 2.2-5-0.2 0.2-5.2 3.9-9.1 9.2-9.3 1-0.1 2.5 0.7 2.4 1.8C192.8 184.3 191.2 184.6 190.2 184.7z" class="b"/><path d="M213.3 178.5c2.4-1.9 5.6 0.3 7.1 1.8 1.6 1.7 5.5-2 3.9-3.7 -3.6-3.8-9-4.1-13.5-0.5 -0.8 0.7-1.5 2.3-0.7 3.1C211 180 212.5 179.2 213.3 178.5z" class="b"/><path d="M139.6 160.6c-2.4 0.3-4.7 1-6.8 2.1 -7.5 3.9-14.3 12.7-10.2 21.4 0.4 0.8-0.4 2.9-1.4 2.9 -0.2 0-0.3 0-0.5-0.2 -2.5-1.6-5.4-2.6-8.2-2.6 -3.1 0-6.1 1.2-8.4 3.8 -4 4.7-4.5 11-1.4 16.3 0.5 0.9-0.3 2.7-1.3 2.8 -5.5 0.7-11.4 2.8-14.3 7.8 -2.2 3.9-2.7 8.6-1.5 12.9 1.1 4.2 3.5 8.3 7.4 10.4 1.9 1 3.8 1.5 5.8 1.5 2.5 0 5.1-0.8 7.4-2 0.2-0.1 0.4-0.1 0.5-0.1 0.7 0 0.9 1 0.6 1.6 -2.4 5.2-4.2 11.4-2.3 17 1.4 4 4.4 7.1 8.2 8.8 3.2 1.5 6.6 2.1 10.1 2.1 5.7 0 11.4-1.8 16-5 0.1-0.1 0.3-0.2 0.5-0.2 0.2 0 0.4 0.1 0.6 0.3 3.9 5.2 9.5 9.4 16 9.4 1 0 2.1-0.1 3.2-0.3 5.2-1.1 10.9-4.7 12-10.3 0.1-0.6 0.9-1.9 1.6-1.9 0.2 0 0.4 0.1 0.6 0.3 1.7 1.9 3.5 2.6 5.4 2.6 0.3 0 0.7 0 1-0.1 -3-2.1-6.2-4.3-9.5-6.5 -2.8 4-7.3 6.1-12.1 6.1 -8 0-16.6-5.9-18.3-18.6 -3.2 3.5-6.6 4.9-9.6 4.9 -8.9 0-15.3-12-6.2-20.7 -0.9 0.3-1.8 0.4-2.7 0.4 -4.7 0-7.7-4-8.2-7.9 -0.5-4 1.5-7.9 6.8-7.9 0.2 0 0.3 0 0.5 0 -7-8.6-1.8-20.7 9.4-20.7 1.4 0 2.8 0.2 4.3 0.6C125.3 176.1 132.8 166 139.6 160.6L139.6 160.6z" fill="#FFE3C3"/><path d="M143 157.3c-4.1 0-8.2 1.4-11.6 3.4 -7.4 4.3-13.4 13-12.1 21.5 -1.7-0.7-3.4-1-5.1-1 -10.6 0-18.8 12.5-14.6 23.3 -5.5 1.1-10.4 3.9-13.7 8.7 -3.1 4.5-3.8 10.2-2.9 15.4 0.9 4.9 3.7 9.7 8 12.4 2.1 1.3 4.4 1.9 6.7 1.9 2.2 0 4.4-0.5 6.5-1.4 -3.5 9.3-3.5 20.2 6.1 25.8 3.6 2.1 7.7 3 11.9 3 5.9 0 11.9-1.9 16.6-4.9 4.3 5.5 10.2 9.3 16.9 9.3 1.7 0 3.4-0.2 5.1-0.7 5.3-1.5 10.2-5.5 12.4-10.7 1.6 1.3 3.4 1.8 5.2 1.8 1.6 0 3.2-0.4 4.8-1.2 -0.9-0.6-1.8-1.3-2.8-2 -0.3 0-0.7 0.1-1 0.1 -1.9 0-3.7-0.7-5.4-2.6 -0.2-0.2-0.4-0.3-0.6-0.3 -0.8 0-1.5 1.3-1.6 1.9 -1.1 5.6-6.8 9.2-12 10.3 -1.1 0.2-2.1 0.3-3.2 0.3 -6.5 0-12.2-4.2-16-9.4 -0.1-0.2-0.4-0.3-0.6-0.3 -0.2 0-0.4 0.1-0.5 0.2 -4.6 3.2-10.3 5-16 5 -3.5 0-6.9-0.7-10.1-2.1 -3.8-1.8-6.8-4.9-8.2-8.8 -2-5.6-0.1-11.8 2.3-17 0.3-0.7 0.1-1.6-0.6-1.6 -0.1 0-0.3 0-0.5 0.1 -2.4 1.3-4.9 2-7.4 2 -2 0-3.9-0.5-5.8-1.5 -3.9-2.1-6.3-6.3-7.4-10.4 -1.1-4.3-0.7-9 1.5-12.9 2.9-5.1 8.8-7.2 14.3-7.8 1.1-0.1 1.8-1.9 1.3-2.8 -3.1-5.3-2.6-11.7 1.4-16.3 2.3-2.7 5.3-3.8 8.4-3.8 2.8 0 5.7 1 8.2 2.6 0.2 0.1 0.3 0.2 0.5 0.2 1 0 1.8-2.1 1.4-2.9 -4.1-8.7 2.7-17.5 10.2-21.4 2.1-1.1 4.4-1.8 6.8-2.1 1.8-1.4 3.5-2.5 4.9-3.2C144 157.4 143.5 157.3 143 157.3L143 157.3z" fill="#F1C598"/><path d="M243 223.1c-9.2-3.1-16.9-1.6-23.4 5.1 1.4 3 9.2 6.3 15.5 6.7C238.9 232 242.9 227.1 243 223.1z" class="b"/><path d="M232.6 222.8c0 0-7.7 3.7-7.7 6.4 -2.6-0.2-3.2-1.2-3.2-1.2S224.1 224.9 232.6 222.8z" fill="#7F5132"/><path d="M642 286.8c0 0-12 31-29.8 19.9 -17.8-11.1 3.1-25 6.5-27.4C636.2 283 642 286.8 642 286.8z" class="g"/><path d="M619.3 309.9c11.6 0.6 19.6-13.2 23.3-22.6 0.1-0.3-0.2-0.9-0.5-1.2 0 0-0.1-0.1-0.1-0.1 -2-1.3-4.4-2.2-6.7-3 -3.1-1.1-6.2-2-9.3-2.8 -2.2-0.5-4.3-1.1-6.5-1.5 -1.2-0.2-1.2-0.2-2 0.4 -5.3 3.8-11.7 8.9-12.8 15.7C603.3 302.6 612.2 309.6 619.3 309.9zM606.5 293.4c1.6-3.8 4.5-6.9 7.6-9.4 1.2-1 2.5-2 3.7-2.9 0.4-0.3 0.8-0.5 1.1-0.8 0.6-0.4 4.2 0.9 5 1.1 5.5 1.3 12 2.7 17.1 5.7 -0.8 1.8-1.7 3.6-2.6 5.3 -3.3 5.9-7.9 12.8-14.6 15.2C615.8 310.4 602.5 303 606.5 293.4z" class="h"/><path d="M612.3 306.4c-6.7-4.1-7.9-8.7-6.7-12.9 9.7-0.2 16.3 8.5 18.2 11.8C619 309.7 619.5 310.9 612.3 306.4z" class="h"/><path d="M680.1 264.9c0 0 22.5 38.2-9.1 42.3 -17.4 2.3-13-29.6-9.7-32C678.9 278.8 680.1 264.9 680.1 264.9z" class="g"/><path d="M660.4 302.4c3.7 6.5 10.6 6.6 17 4.2 6.4-2.3 10.4-7.4 11-14.2 0.8-9.5-3.1-19.7-7.8-27.8 -0.2-0.3-0.4-0.4-0.6-0.5 -0.3-0.1-0.5 0-0.5 0.4 -0.3 2.9-2 6-4.4 7.8 -2.5 1.9-5.5 2.7-8.6 2.6 -1.3 0-2.5-0.1-3.8-0.3 -0.5-0.1-1.4-0.5-1.9-0.2 -0.4 0.3-0.6 0.7-0.8 1.1 -1.8 3.7-2.3 8.3-2.4 12.4C657.5 292.8 657.9 298.1 660.4 302.4zM659.7 281.9c0.3-1.8 0.7-4.6 2.1-5.9 0.3-0.3 3.4 0.5 4.1 0.6 1.2 0.1 2.3 0.1 3.5-0.1 1.7-0.2 3.5-0.7 5-1.5 3.1-1.7 5.4-4.8 6.2-8.2 2.2 4 3.9 8.3 5.1 12.7 2.1 7.6 3.1 17.6-4 22.9 -5.3 4-16.1 7-20.2-0.1C658.1 296.4 658.4 288.3 659.7 281.9z" class="h"/><path d="M634.8 198c0 0 14.2-9.7 29.8 11.7 -10.3 0.7-20.3 6.9-31.6-3.5C633.7 201.9 634.8 198 634.8 198z" class="g"/><path d="M632.5 206.5c0.8 1.5 3.2 2.8 4.6 3.6 1.7 1 3.6 1.9 5.6 2.3 7.5 1.7 14.7-1.3 22.2-1.9 0.6-0.1 0.2-1 0-1.3 -5-6.7-12-13.6-20.8-14.2 -3.2-0.2-7 0.3-9.7 2.2 -0.1 0-0.2 0.1-0.2 0.2 0 0.1 0 0.1-0.1 0.2 -0.3 1.3-0.7 2.5-0.9 3.8C632.9 202.6 631.8 205.2 632.5 206.5zM633.7 206c0.4-2.5 1-4.9 1.6-7.3 2.3-1.5 5.5-2.1 8.2-2.1 8.3 0.2 14.9 6 19.8 12.3 -4.7 0.5-9.2 1.9-13.9 2.3C643.4 211.6 638.3 209.9 633.7 206z" class="h"/><path d="M601.8 188.6c0 0-11.3-13-31.8 3.8 9.8 3.3 17.9 11.7 31.5 4.6C601.9 192.6 601.8 188.6 601.8 188.6z" class="g"/><path d="M570.2 193.2c6.7 2.3 12.8 7 20.1 7.3 4.2 0.2 8-0.9 11.7-2.8 0.8-0.4 0.5-4.7 0.5-5.5 0-1.1 0-2.2 0-3.2 0-0.1 0-0.2-0.1-0.2 0-0.2-0.1-0.4-0.3-0.6 -2.1-2.4-5.4-4-8.5-4.7 -8.9-1.9-17.3 2.8-24.1 8.2C569 192.1 569.7 193 570.2 193.2zM587.3 198.6c-5.6-1.2-10.4-4.2-15.6-6.3 6.1-4.7 14-9 21.9-7.3 2.7 0.6 5.7 1.9 7.6 3.8 0 0.9 0 1.8 0 2.7 0 1.1-0.1 2.2-0.1 3.3 -0.1 1.6-0.9 2-2.3 2.5C595 198.7 591.1 199.4 587.3 198.6z" class="h"/><path d="M607.9 272.2c0 0 8.7-27.6 14.7-32.9 6-5.3 27.4-10.6 44.2-3.6 5.4 2.2 10.1 5.6 14.1 9.5 11.7 1.3 14.8-5.3 16.9-9.6 1.9 11.7-5.8 18.5-8.5 20.5 2.3 4 24.1 49.4-2.4 53.2 -7.8 1.1-11.6-4.9-13.1-12 -4.8 1.1-10.7 1.7-17.8 1.3 -2.8 6.3-13.8 27.8-29.1 18.3 -14-8.7-4-19.3 2.6-24.5C613 284.5 607.9 272.2 607.9 272.2z" class="g"/><path d="M607.3 272.2c3.7 8.9 12.3 15.8 20.7 20.2 -4.8 4-10.4 10-8.5 16.6 2 7 11.2 12.6 18.4 10.7 6.9-1.9 11.7-8 15.2-13.9 0.8-1.3 1.5-2.7 2.2-4 0.3-0.6 0.6-1.2 0.9-1.8 0.4-0.9 0.9-0.5 1.9-0.5 5.1 0.1 10.3-0.2 15.3-1.2 0.5 2 1.1 3.9 2.1 5.7 2 3.6 5.3 6.4 9.7 6.3 3.5-0.1 7.3-1.1 10-3.5 4.8-4.3 5.7-11.1 5.2-17.2 -0.6-7.3-2.6-14.4-5.2-21.2 -1.5-4-3.1-8.1-5.2-11.9 6.4-5 9.5-12.7 8.3-20.8 0-0.3-0.9-1.5-1.2-0.8 -1.8 3.5-3.8 7-7.7 8.6 -2.6 1-7.4 2.1-9.6 0 -2.2-2-4.6-4-7.2-5.5 -5.4-3.3-11.5-5.4-17.9-6.1 -9.9-1.1-21.7-0.2-30.5 5.1 -6 3.6-8.6 11.8-11.1 18 -2.2 5.5-4.2 11-5.9 16.7C607.2 271.7 607.2 271.9 607.3 272.2zM608.6 272.4c0.5-1.5 1-3.1 1.5-4.6 2.7-7.9 5.5-16.1 9.6-23.3 1.7-3 3.5-5.1 6.6-6.7 4.6-2.3 9.8-3.6 14.9-4.2 13.6-1.7 27.3 1.1 37.6 10.5 1.1 1 1.6 1.8 3.1 1.9 1.4 0.1 2.9 0.1 4.3-0.1 2-0.3 4.1-0.8 5.9-2 2.3-1.5 3.9-3.6 5.2-6 0.1 6.8-3 13-8.6 17.2 -0.3 0.3-0.2 0.7 0 1.1 2.1 3.7 3.7 7.8 5.2 11.8 2.4 6.4 4.5 13.2 5.1 20.1 0.5 5.9 0.1 13.3-5 17.3 -2.8 2.2-7 3.6-10.5 3.1 -5.6-0.9-8-6-9.1-11.1 -0.1-0.4-0.5-1.1-0.9-1 -5.9 1.3-11.8 1.6-17.8 1.3 -0.2 0-0.3 0.2-0.3 0.3 -3.5 7.9-9.9 19.2-19.5 20.3 -6.2 0.7-15.9-4.3-15.4-11.5 0.4-5.7 5.3-10.3 9.4-13.7 0.5-0.4 0-1.3-0.4-1.5C621.3 287.7 612.3 281.1 608.6 272.4z" class="h"/><path d="M696.9 238.9c5.3 1 15.1-8.3-0.8-21.1C688.4 227.4 688.1 237.3 696.9 238.9z" class="i"/><path d="M655.3 206.2c0 0-9.1 5.8-18.7-1.6C639 202.4 645.6 200.7 655.3 206.2z" class="j"/><path d="M637.3 202.2c6.4-3.5 14.2-0.4 19.3 3.9 0.8 0.7 0.8 2.8-0.5 1.8 -4.6-3.9-11.8-6.6-17.5-3.5C637.7 204.9 636.4 202.7 637.3 202.2L637.3 202.2z" class="h"/><path d="M579.6 191.3c0 0 8.6 6.5 18.8-0.2C596.1 188.8 589.7 186.5 579.6 191.3z" class="j"/><path d="M597.8 188.8c-6.1-4-14.1-1.5-19.5 2.4 -0.9 0.6-1 2.8 0.4 1.8 4.9-3.5 12.2-5.7 17.8-2.1C597.3 191.4 598.7 189.3 597.8 188.8L597.8 188.8z" class="h"/><path d="M592.9 175c2.6-4.7 8.3-8.3 13.7-8.7 0.6 0 1.2 1 0.9 1.5 -3 5.4-2.5 12.1 1.4 16.9 0.5 0.4 0.7 1.3 0.1 1.5 -4.5 1-9.1 4-10.8 8.4 -0.2 0.5-0.7 0.2-1-0.1C592.4 189.1 589.2 181.9 592.9 175z" class="h"/><path d="M623.6 187.6c5.1 0.3 9.1-1.8 10.3-7 0.7-3.2 0.2-6.5-0.3-9.7 -0.1-0.6 0.4-0.8 0.8-0.5 7 4.9 15 13 10.9 22.2 -1.8 4.1-5.7 7.7-9.7 9.8 -0.4 0.2-0.8-0.2-1-0.6 -3-4.7-6.9-9-10.8-12.8C623.5 188.9 622.8 187.6 623.6 187.6z" class="h"/><path d="M557.6 229.9c-3.5 25.5 16.8 44.7 41 44.7 24.2 0 45.2-21.2 43.5-46.9 -1.5-23-7.2-44.5-33.6-44.4 -10.6 0.1-9.5 4-11.2 7.9C585.8 195.3 561.2 203.7 557.6 229.9z" class="g"/><path d="M564.9 259.6c6.6 8.2 16.3 13.8 26.7 15.4 21 3.2 42-9.3 48.9-29.5 3.4-10 2.6-20.7 0.7-31 -1.5-8.5-4.3-17.4-10.5-23.7 -6.5-6.6-17.1-9.8-26.3-8.2 -3.3 0.6-5.5 2.1-6.3 5.5 -0.4 1.6-0.3 2.8-2 3.3 -1.4 0.5-2.9 1-4.3 1.5 -7.6 2.8-15.2 6.3-21.4 11.6 -7.5 6.4-12.2 14.9-13.6 24.6 0 0 0 0.1 0 0.1 0 0 0 0.1 0 0.1C555.5 240.1 558.1 251.1 564.9 259.6zM558.4 230.4c1.8-11.9 8.6-21.6 18.7-28 6.4-4 11.7-7.9 18.8-10.3 2.6-0.9 3.3-3.8 5.1-5.6 1.8-1.7 4.6-2 6.9-2 2.9-0.1 5.7 0.1 8.6 0.7 9.7 2 16.6 8.5 20.1 17.7 1.8 4.6 2.9 9.5 3.6 14.4 0.8 5.4 1.5 11 1 16.4 -1.8 22.4-21.6 41-44.4 40.1 -10.8-0.4-21.8-4.7-29.2-12.8C560.1 252.4 557 241.5 558.4 230.4z" class="h"/><path d="M633.2 287.5c-0.6 0.8-1.3 1.6-2 2.3 -0.8 0.9-1.6 1.7-2.5 2.4 -0.5 0.4-1 0.9-1.5 1.3 -0.3 0.3-0.2 0.1 0.1 0.1 0.1 0.2 0.2 0.3 0.3 0.5 0.1 0.6-0.5 0.9 0.1 0.4 0.2-0.3 0.5-0.5 0.8-0.8 0.7-0.7 1.4-1.4 2.1-2.1 1-1 2-2 3.1-3 0.5-0.5 0.5-2-0.3-1.2 -1.2 1.2-2.5 2.4-3.7 3.5 -0.7 0.7-1.5 1.4-2.2 2.2 -0.4 0.4-1.2 1-1.1 1.7 0 0.2 0.1 0.4 0.3 0.5 0.3 0 0.6-0.3 0.9-0.5 1.2-1 2.4-2 3.5-3.2 1-1 2-2 2.8-3.2C634.3 287.7 633.8 286.5 633.2 287.5z" class="h"/><path d="M672.7 290.3c-0.3 2.3-0.2 4.6 0.3 6.8 0.1 0.3 0.2 1.5 0.7 1.7 0.6 0.3 1.1-0.6 1.1-1.1 0.2-1.4-0.2-3-0.4-4.4 -0.2-1.3-0.3-2.5-0.5-3.8 -0.1-0.9-1.3 0.4-1.2 1.1 0.3 2.1 0.6 4.2 0.8 6.3 0 0.4 0.1 0.8 0.1 1.2 0-0.5 1.2-0.4 1-0.9 -0.2-0.5-0.3-1.1-0.4-1.7 -0.4-1.8-0.4-3.8-0.2-5.6C674.1 288.8 672.8 289.5 672.7 290.3z" class="h"/><path d="M592 226.1c2 8.7 12.2 17.8 22.1 15.5 9.9-2.2 23-16.5 20.2-25 -4.5-13.8-11.1-5.5-21-3.2C603.5 215.6 590 217.4 592 226.1z" class="k"/><path d="M611.9 233.8c0.5 1.1 2.1 1.5 3.5 0.8 1.5-0.7 2.2-2.1 1.7-3.2 -0.5-1.1-2.1-1.5-3.5-0.8S611.4 232.6 611.9 233.8z" class="l"/><path d="M609.6 239c0.3 0.8 1.6 1 2.9 0.4 1.3-0.5 2.1-1.6 1.8-2.4 -0.3-0.8-1.6-1-2.9-0.4C610.1 237.2 609.3 238.2 609.6 239z" class="l"/><ellipse transform="matrix(-0.8747 0.4847 -0.4847 -0.8747 1275.0282 140.0692)" cx="619.4" cy="234.9" rx="2.6" ry="1.5" class="l"/><path d="M603.6 184.9c1.3-0.5 2.8-0.6 4.9-0.6 7.6-0.2 13 1.6 17.5 4.5 -2.1 3.7-6 6.1-10.5 6.1C609.5 194.9 604.6 190.7 603.6 184.9z" class="k"/><path d="M575.1 236.1c0 0-8.5-16.8-19.6-10.2 -10.7 6.4-13 30.3 11.2 42.5 24.2 12.1 39.6-5.4 36.2-17.2C600.5 242.7 593.1 234.9 575.1 236.1z" class="m"/><path d="M552.7 258c6.4 8.4 17.3 14.7 27.8 15.4 8.4 0.6 17.4-2.9 21.5-10.7 3.3-6.2 2.3-13.1-1.9-18.6 -5.8-7.8-15.7-9.4-24.9-9 -4.4-8-14.3-16.5-22.7-8.3C544.1 235.1 546.2 249.3 552.7 258zM548.5 242c0.1-6.6 3.7-15.8 11.4-16.6 6.6-0.7 11.9 5.7 14.6 11 0.2 0.4 0.4 0.6 0.6 0.6 0.1 0 0.2 0.1 0.3 0.1 9.5-0.6 21.2 1.2 25.6 10.9 3.2 7.2 0.4 15-6.1 19.5 -9.6 6.7-22.1 4-31.5-1.8C555.2 260.6 548.4 252.2 548.5 242z" class="n"/><path d="M571.3 251.3c0 0-2.1-7.8 2.5-10.7C578.4 237.6 571.3 251.3 571.3 251.3z" class="m"/><path d="M570.6 253c-1-4.5-0.9-10.4 2.7-13.3 0.7-0.6 1.8 1.6 1.1 2.2 -3.1 2.5-3.1 7.7-2.2 11.6C572.5 255 570.8 254 570.6 253L570.6 253z" class="n"/><path d="M582.9 245.9c-1.8 2-1.1 5.7 1.9 8.5 3 2.8 6.8 3.1 8.6 1.1 1.8-2 1.1-5.5-2-8.4S584.7 243.9 582.9 245.9z" class="o"/><path d="M581.8 250.2c0.4 1.6 1.4 3.2 2.8 4.4 1.7 1.6 3.8 2.5 5.7 2.5 1.4 0 2.5-0.5 3.3-1.3 2-2.2 1.2-6.1-1.9-8.9 -1.7-1.6-3.8-2.5-5.7-2.5 -1.4 0-2.5 0.5-3.3 1.3C581.7 246.8 581.3 248.4 581.8 250.2zM583.6 246.5c1.5-1.7 4.8-1.1 7.4 1.2 2.5 2.3 3.3 5.5 1.8 7.2 -1.5 1.7-4.8 1.1-7.4-1.2S582 248.2 583.6 246.5z" class="n"/><path d="M553.1 236c-0.4 2.7 2.5 5.4 6.6 6 4.1 0.6 7.5-1.1 7.9-3.8 0.4-2.7-2.3-5.3-6.4-5.9S553.5 233.3 553.1 236z" class="o"/><path d="M554.8 240.2c1.2 1.1 2.9 1.8 4.8 2.1 2.3 0.3 4.5-0.1 6.1-1.2 1.1-0.8 1.8-1.8 2-3 0.4-2.9-2.4-5.7-6.5-6.3 -2.3-0.3-4.5 0.1-6.1 1.2 -1.1 0.8-1.8 1.8-2 3C552.8 237.4 553.5 239 554.8 240.2zM554.2 236.1c0.3-2.2 3.4-3.6 6.8-3.1 3.4 0.5 5.9 2.7 5.5 4.9 -0.3 2.2-3.4 3.6-6.8 3.1C556.4 240.6 553.9 238.4 554.2 236.1z" class="n"/><path d="M571.2 235.5c-9-10.9-18.2-4.8-18.2-4.8S562.4 218.4 571.2 235.5z" fill="#FA6E9B"/><path d="M620.8 193c2.7 0 3.8 3.5 3.9 5.5 0.2 2.2 4.9 1.8 4.7-0.4 -0.4-4.9-4.1-8.4-9.1-8.4 -1 0-2.3 0.8-2.1 1.8C618.4 192.7 619.9 193 620.8 193z" class="p"/><path d="M599.2 188.4c-2.3-1.8-5.3 0.3-6.7 1.8 -1.5 1.6-5.2-1.9-3.7-3.5 3.4-3.7 8.5-3.9 12.7-0.6 0.8 0.6 1.4 2.1 0.7 2.9C601.4 189.9 600 189.1 599.2 188.4z" class="p"/><path d="M614.2 228.9c-5.6 1.3-18.9-0.3-18.9-15.1 0-15.4 10.2-23.6 20-20.8C626.3 196.1 633.3 224.3 614.2 228.9z" class="f"/><ellipse cx="601.4" cy="217.6" rx="3.7" ry="4.9" class="p"/><ellipse cx="600.4" cy="214" rx="1.3" ry="1.7" class="f"/><path d="M595.5 215.5c-2.2 1.6-11.2 4.1-14.1-4.5 -3.2-9.3 9.8-23.9 17.9-19.8C606.2 194.7 601.6 211.2 595.5 215.5z" class="f"/><ellipse transform="matrix(-0.5984 -0.8012 0.8012 -0.5984 775.7355 812.025)" cx="591.4" cy="211.6" rx="3" ry="3.9" class="p"/><ellipse transform="matrix(-0.1685 -0.9857 0.9857 -0.1685 484.7927 832.4117)" cx="593.5" cy="211.7" rx="1.3" ry="1.8" class="f"/><path d="M623.1 243.5c5.2 8 3.8 18.4-2 25.5 -0.7 0.9-3.3-0.1-2.6-0.7 5.4-4.4 7.9-16.8 3.2-24.1C620.9 242.9 622.3 242.2 623.1 243.5L623.1 243.5z" class="h"/><path d="M626.5 245.1c-2.3-1.1-5-0.5-6.8 1.2 -0.7 0.7-1.9-1.1-1.3-1.6 2.2-2.2 5.4-2.8 8.2-1.4C627.3 243.7 627.7 245.7 626.5 245.1L626.5 245.1z" class="h"/><path d="M561.4 220.2c3.5-7.9 9.1-13.5 15.4-17.6 2.3 4 1.8 9.6-1.7 13.8C571.4 220.7 565.8 222.1 561.4 220.2z" class="k"/><path d="M622.3 299.4c10.5 0.8 17.5 10.4 20.9 16.5 -4.6 3.5-10.2 4.9-16.6 1C617.4 311.2 618.6 304.7 622.3 299.4z" class="h"/><path d="M699.7 298.2c-1.3 5.8-4.9 10.2-12.4 11.3 -6.1 0.9-9.7-2.5-11.7-7.4C682.8 294.2 693.8 296.3 699.7 298.2z" class="h"/><path d="M679.5 303.4c-0.2 0.4-0.5 0.7-0.7 1 -2.2 1.1-4.9 1.9-8.2 2.3 -3.8 0.5-6.6-0.6-8.5-2.7C665.2 301.8 670.9 299.8 679.5 303.4z" class="h"/><path d="M638.4 246.2c-0.1 0-0.1 0-0.2 0 -3.5-0.6-5.6-4.8-4.8-9.3 0.8-4.5 4.3-7.6 7.8-7 0.1 0 0.1 0 0.2 0.1C641.5 235.7 640.4 241.2 638.4 246.2z" class="k"/><path d="M665.6 235.8c4.8 1.8 9 4.7 12.8 7.9 -15.3 9.7-34.1-0.4-33.2-10.5C649.6 232.7 659 233.2 665.6 235.8z" class="k"/><path d="M629.1 275.4c1.5 6.7 20.1 10.9 29.2 8.9 9.1-2.1 13.2-11.6 11.7-18.3 -1.5-6.7-15.2-7.1-24.3-5C636.5 263 627.6 268.7 629.1 275.4z" class="k"/><path d="M682.4 283.8c-4.8-7.9-8.2-13-3.9-18.6 3.6-4.7 8.1-3.8 13.9-1 2.1 4.9 4.7 11.9 6.2 21.1C694.4 290.8 686.6 290.6 682.4 283.8z" class="k"/><path d="M614 277.4c4.7 0 8.5 3 8.5 6.8 0 1.1-0.3 2-0.8 2.9 -4.6-3.2-7.8-6.6-10.1-9.5C612.4 277.5 613.2 277.4 614 277.4z" class="k"/><path d="M645.4 310c-0.8-4.7 3-11.1 6.7-11.7 1-0.2 2-0.1 2.9 0.3 -2.4 5.3-5.7 10.9-8.8 13.9C646 311.7 645.5 310.8 645.4 310z" class="k"/><path d="M608.3 292.3c-0.5 0.1-0.9 0.1-1.3 0.1 1.3-2.8 3.4-5.1 5.5-7.1 1.2 0.5 1.8 1.7 1.9 2.6C614.5 290 611.9 291.7 608.3 292.3z" class="k"/><path d="M698.7 285.3c-2 2.5-4.7 3.9-7.5 3.9 -2.4 0-4.8-1-6.8-2.9 -0.1 3.6-0.5 7.3-1.4 11.1 2.1-0.7 4.3-0.9 6.4-0.9 3.4 0 6.6 0.7 9.1 1.4 0.8-3.2 0.7-6.6 0.5-9.7C699 287.2 698.8 286.2 698.7 285.3L698.7 285.3zM697.6 279.7c0.4 1.8 0.8 3.6 1.1 5.6C698.4 283.3 698 281.5 697.6 279.7L697.6 279.7zM697.3 238.1c-1.3 2.3-2.8 4.4-5.2 6 -1.7 1.1-3.8 1.7-5.9 2 -0.7 0.1-1.4 0.1-2.2 0.1 -0.7 0-1.5 0-2.2-0.1 -1.5-0.1-2-0.9-3.1-1.9 -1-0.9-2-1.7-3-2.5 0.9 0.7 1.7 1.4 2.5 2.1 -2.5 1.6-5 2.6-7.6 3.2 3.6 4.7 7 10.2 9.4 16.5 1.4-1.1 2.8-1.5 4.4-1.5 2.3 0 4.8 0.9 7.7 2.3 -1.1-2.7-2.3-5.4-3.7-7.9 -0.2-0.3-0.3-0.8 0-1C694.3 251.1 697.4 244.9 697.3 238.1L697.3 238.1z" fill="#D5D4C4"/><path d="M672.6 237.9c2.6 1.6 5 3.5 7.2 5.5 0.9 0.9 2.3 1.2 3.8 1.2 2.1 0 4.3-0.6 5.8-1.2 3.9-1.5 5.9-5 7.7-8.5 0.1-0.1 0.2-0.2 0.3-0.2 0.4 0 0.9 0.8 0.9 1 1.1 8.1-1.9 15.8-8.3 20.8 2.1 3.8 3.7 7.9 5.2 11.9 2.5 6.8 4.6 13.9 5.2 21.2 0.5 6.1-0.3 12.9-5.2 17.2 -2.7 2.4-6.5 3.4-10 3.5 0 0-0.1 0-0.1 0 -2.1 0-3.9-0.6-5.4-1.7 0.1-0.2 0.2-0.4 0.2-0.6 1.4-3.6 2.4-7.1 3.2-10.5 2.1-0.7 4.3-0.9 6.4-0.9 3.4 0 6.6 0.7 9.1 1.4 0.8-3.2 0.7-6.6 0.5-9.7 -0.1-1-0.2-1.9-0.3-2.9 0 0 0 0 0 0 0 0 0-0.1 0-0.1 -0.3-1.9-0.6-3.7-1.1-5.6 -1.5-6.5-3.5-11.6-5.1-15.5 0 0 0 0 0 0 -1.1-2.7-2.3-5.4-3.7-7.9 -0.2-0.3-0.3-0.8 0-1 5.5-4.2 8.7-10.4 8.6-17.2 -1.3 2.3-2.8 4.4-5.2 6 -1.7 1.1-3.8 1.7-5.9 2 -0.7 0.1-1.4 0.1-2.2 0.1 -0.7 0-1.5 0-2.2-0.1 -1.5-0.1-2-0.9-3.1-1.9 -1-0.9-2-1.7-3-2.5 -3.1-2.4-6.5-4.4-10.2-5.8 -2.2-0.8-4.6-1.5-7.1-1.9 -0.8-0.7-1.5-1.3-2.3-1.9C662.1 232.9 667.6 234.8 672.6 237.9z" class="i"/><path d="M658.5 233.9c2.5 0.4 5 1.1 7.1 1.9 3.7 1.4 7.1 3.5 10.2 5.8 0.9 0.7 1.7 1.4 2.5 2.1 -2.5 1.6-5 2.6-7.6 3.2C666.7 241.5 662.3 237.2 658.5 233.9L658.5 233.9z" class="q"/><path d="M684.7 261.9c2.3 0 4.8 0.9 7.7 2.3 0 0 0 0 0 0 1.6 3.8 3.6 9 5.1 15.5 0.4 1.8 0.8 3.6 1.1 5.6 0 0 0 0.1 0 0.1 0 0 0 0 0 0 -2 2.5-4.7 3.9-7.5 3.9 -2.4 0-4.8-1-6.8-2.9 0.2-8.4-1.4-16.1-4.1-22.8C681.6 262.3 683.1 261.9 684.7 261.9L684.7 261.9z" class="q"/><path d="M645.3 308.1c-1.4 1.3-3 2.6-4.7 3.7 0.9 1.3 1.6 2.5 2.3 3.6 1.2-0.9 2.3-1.9 3.3-3 -0.3-0.7-0.8-1.6-0.9-2.5C645.3 309.4 645.3 308.7 645.3 308.1L645.3 308.1zM656.9 290c0 0-1.1 3.6-3.8 8.2 0 0 0.1 0 0.1 0 0.6 0 1.2 0.1 1.9 0.4 0.1-0.2 0.2-0.3 0.2-0.5 0.1-0.1 0.1-0.3 0.3-0.3 0 0 0 0 0 0 0.6 0 1.1 0 1.7 0.1C657.4 295.4 657.2 292.8 656.9 290L656.9 290z" fill="#CDCBBB"/><path d="M655.6 297.7c0 0 0 0 0 0 0.6 0 1.1 0 1.7 0.1 0 0.5 0 1.1-0.1 1.6 -0.1 0-0.2 0-0.3 0 -0.3 0-0.6 0.1-0.8 0.6 -0.3 0.6-0.6 1.2-0.9 1.8 -0.7 1.4-1.4 2.7-2.2 4 -3.5 5.9-8.4 12-15.2 13.9 -1 0.3-2 0.4-3 0.4 -3.3 0-6.7-1.3-9.6-3.3 0.4 0 0.7 0 1.1-0.1 0.1 0.1 0.2 0.1 0.3 0.2 2.7 1.7 5.2 2.4 7.7 2.4 3.3 0 6.3-1.3 9-3.4 -0.1-0.2-0.2-0.4-0.3-0.5 1.2-0.9 2.3-1.9 3.3-3 0 0 0 0 0 0 3.1-3 6.4-8.6 8.8-13.9 0 0 0 0 0 0 0.1-0.2 0.2-0.3 0.2-0.5C655.4 297.9 655.4 297.7 655.6 297.7L655.6 297.7z" class="r"/><path d="M640.7 311.8c0.9 1.3 1.6 2.5 2.3 3.6 0.1 0.2 0.2 0.4 0.3 0.5 -2.7 2-5.7 3.4-9 3.4 -2.4 0-5-0.7-7.7-2.4 -0.1-0.1-0.2-0.1-0.3-0.2C632 316.2 636.7 314.4 640.7 311.8L640.7 311.8z" class="r"/><path d="M653.2 298.2c0.6 0 1.2 0.1 1.9 0.4 0 0 0 0 0 0 -2.4 5.3-5.7 10.9-8.8 13.9 0 0 0 0 0 0 -0.3-0.7-0.8-1.6-0.9-2.5 -0.1-0.6-0.1-1.2-0.1-1.9 3.4-3.2 5.9-6.8 7.7-9.9C653.1 298.2 653.2 298.2 653.2 298.2L653.2 298.2z" fill="#6E6D6D"/><path d="M658.1 290.9c-0.2 2.9-0.8 5.8-1.8 8.6 -0.3 0.9-1.5-0.4-1.3-1.1 0.9-2.6 1.5-5.4 1.7-8.2C656.9 289.1 658.2 290.2 658.1 290.9L658.1 290.9z" class="r"/><path d="M623.4 259.9c-5 5.1-11.3 9.8-19.4 13.3 5.2-0.7 10.2-2.5 14.7-5C620.9 266.3 622.5 263.3 623.4 259.9L623.4 259.9zM634.5 243.5c-2.1 4.5-4.8 9-8.3 13.3 -0.3 2.8-1.1 5.5-2.3 8 6.3-4.8 11.3-11.2 14.3-18.6C636.7 245.9 635.4 244.9 634.5 243.5L634.5 243.5zM640.8 220.8c-0.3 2.5-0.7 5.7-1.6 9.2 0.4-0.1 0.8-0.1 1.1-0.1 0.3 0 0.6 0 0.9 0.1 0.1 0 0.1 0 0.2 0C641.4 226.9 641.2 223.8 640.8 220.8L640.8 220.8z" fill="#CFCDBD"/><path d="M641.1 214.1c0.1 0.1 0.1 0.1 0.1 0.2 0 0 0 0.1 0 0.1 1.9 10.3 2.6 21-0.7 31 -6.1 18.1-23.7 30-42.3 30 -0.1 0-0.2 0-0.3 0 2.1-0.7 4.2-1.5 6.1-2.3 5.2-0.7 10.2-2.5 14.7-5 -0.1 0.1-0.1 0.1-0.2 0.2 -0.5 0.4 0.6 1.1 1.6 1.1 0.4 0 0.8-0.1 1-0.4 1.1-1.3 2-2.7 2.7-4.2 6.3-4.8 11.3-11.2 14.3-18.6 0 0 0 0 0 0 0.1 0 0.1 0 0.2 0 2-5 3.1-10.5 3-16.3 0 0 0 0 0 0 0-3.1-0.3-6.1-0.7-9.2C641.2 216.7 641.1 214.1 641.1 214.1L641.1 214.1z" class="s"/><path d="M626.2 256.8c-0.3 2.8-1.1 5.5-2.3 8 -0.7 1.5-1.7 2.9-2.7 4.2 -0.2 0.3-0.6 0.4-1 0.4 -1 0-2.2-0.6-1.6-1.1 0.1-0.1 0.1-0.1 0.2-0.2 2.1-1.8 3.7-4.8 4.7-8.2C624.4 258.9 625.3 257.9 626.2 256.8L626.2 256.8z" class="s"/><path d="M640.3 229.8c0.3 0 0.6 0 0.9 0.1 0.1 0 0.1 0 0.2 0 0 0 0 0 0 0 0 5.8-1 11.2-3 16.3 -0.1 0-0.1 0-0.2 0 0 0 0 0 0 0 -1.5-0.3-2.8-1.3-3.7-2.6 2.2-4.8 3.7-9.4 4.7-13.6C639.6 229.8 640 229.8 640.3 229.8L640.3 229.8z" fill="#6F6D6E"/><ellipse transform="matrix(-0.913 0.408 -0.408 -0.913 1352.6421 247.2037)" cx="650" cy="267.8" rx="3.5" ry="2.7" class="l"/><path d="M643.9 275.7c0.4 0.9 2 1.2 3.6 0.5 1.6-0.6 2.6-1.9 2.2-2.9 -0.4-1-2-1.2-3.6-0.5C644.5 273.5 643.5 274.8 643.9 275.7z" class="l"/><ellipse transform="matrix(-0.8747 0.4846 -0.4846 -0.8747 1360.7683 189.5264)" cx="655.9" cy="270.7" rx="3.1" ry="1.9" class="l"/><ellipse transform="matrix(-0.9732 -0.2299 0.2299 -0.9732 1238.957 619.4857)" cx="655.6" cy="237.6" rx="2.6" ry="1.5" class="l"/><path d="M656.8 242.7c-0.1 0.6 0.6 1.4 1.7 1.6 1.1 0.3 2.1-0.1 2.2-0.7 0.2-0.6-0.6-1.4-1.7-1.6C658 241.8 657 242.1 656.8 242.7z" class="l"/><ellipse transform="matrix(-0.9734 -0.2293 0.2293 -0.9734 1231.7341 624.1542)" cx="652.1" cy="240.5" rx="1.4" ry="0.8" class="l"/><path d="M342.4 384.8c0 0 2.1 3.4-1.1 5.2 -3.2 1.8-6.7 5.2-5.5 7.4 1.2 2.1 4.3 0.6 6.3-3.3 -1.2 4 1.2 5.4 2.7 5.4 2.2-0.1 2.5-2.6 1.8-4.9 0.9 1.3 3.5 4.1 5.7 2.8 1.4-0.9 2.2-2.6 0.1-4.7 -2.1-2.1-3.6-3.1-3.6-3.1l-0.6-5.5L342.4 384.8z" class="t"/><path d="M367.9 381.5c0 0-2.6 6.7 0.7 8.5 3.3 1.8 6.7 5.2 5.5 7.4 -1.2 2.1-4.3 0.6-6.3-3.3 1.2 4-1.2 5.4-2.7 5.4 -2.2-0.1-2.5-2.6-1.8-4.9 -0.9 1.3-3.5 4.1-5.7 2.8 -1.4-0.9-2.2-2.6-0.1-4.7 2.1-2.1 3.6-3.1 3.6-3.1l0.6-5.5L367.9 381.5z" class="t"/><path d="M382.3 335.4c0 0 26.4 29.1-4.9 42.7 -31.3 13.6-63.2 3.2-71.3-20.5s19.7-27.2 29.8-23.2C346 338.4 382.3 335.4 382.3 335.4z" class="u"/><path d="M393.2 353.9c-0.8-4.6-2.9-9-5.4-13 -1.4-2.2-2.9-4.4-4.7-6.4 0 0 0 0 0 0 -0.1-0.2-0.2-0.3-0.4-0.3 0 0 0 0 0 0 -0.1 0-0.2 0-0.2 0 -8.7 0.7-17.5 1.1-26.2 1.1 -5.6 0-11.4-0.1-17-1.2 -1.8-0.4-3.5-1.2-5.4-1.6 -2.1-0.5-4.3-0.7-6.5-0.7 -9.8 0-21.2 4.2-23.4 14.9 -1.3 6.4 1.2 13.4 4.5 18.8 3.6 6 9.1 10.7 15.2 13.9 14.5 7.7 32.3 7.2 47.6 2.1 7.2-2.5 14.6-5.9 19-12.3C393.4 364.7 394.1 359.2 393.2 353.9zM389.3 368c-4 6.4-12 9.5-18.8 11.7 -15.3 4.9-33 4.9-47.1-3.3 -6-3.5-11.1-8.5-14.4-14.7 -2.8-5.2-4.8-12-2.5-17.7 0.8-2 2.2-3.7 4-5.1 1.8-1.5 4-2.5 6.2-3.2 4.5-1.5 9.4-1.9 14.1-1.3 1.9 0.3 3.6 0.8 5.4 1.4 2.2 0.7 4.5 1 6.8 1.3 6.1 0.7 12.3 0.6 18.4 0.5 6.8-0.1 13.6-0.5 20.3-1 1.4 1.5 2.6 3.2 3.7 5 2.5 3.8 4.6 7.9 5.7 12.3C392.3 358.7 392 363.7 389.3 368z" class="v"/><circle cx="361.1" cy="308.1" r="34.6" class="u"/><path d="M389.7 286.5c-4.4-5.9-10.7-10.4-17.7-12.6 -7.3-2.3-15.3-2.1-22.6 0.5 -7 2.5-13.1 7.3-17.3 13.4 -4.4 6.4-6.7 14-6.5 21.7 0.2 7.5 2.9 14.9 7.5 20.9 4.6 5.8 10.9 10.1 18 12.1 7.4 2.1 15.4 1.7 22.5-1.1 13.8-5.4 22.9-19.1 23-33.8C396.6 300 394.2 292.6 389.7 286.5zM387.7 329.2c-4.6 5.8-11.1 9.8-18.3 11.5 -7.5 1.8-15.5 0.9-22.4-2.3 -6.7-3.1-12.2-8.5-15.7-15 -3.6-6.7-4.7-14.7-3.3-22.2 1.4-7.2 5.3-13.7 10.8-18.5 5.7-4.9 13-7.7 20.5-8 7.6-0.3 15.1 2 21.3 6.4 8.9 6.3 14.2 16.7 14.2 27.6C394.8 316.1 392.3 323.4 387.7 329.2z" class="v"/><path d="M364 285.9c0 0-9.2-11.4-18.3-7.7 -2-8.4 2.2-16.5 4.5-11.1 3.4-6.7 8.7-10.4 9.8-4 8.4-5.7 19.8-5.7 9.4 6.4 9.1-2.7 11.8 0 9.1 7.4C374.8 275.4 365 278.8 364 285.9z" class="t"/><path d="M349.1 350.1c0 0-27.5 39.4-46.7-8.7C332.7 311.6 349.1 350.1 349.1 350.1z" class="u"/><path d="M350 349.4c0-0.1 0-0.2-0.1-0.3 -2.3-5.2-5.8-10.1-10-13.9 -3.4-3.1-7.6-5.4-12.2-6.1 -5.9-0.9-11.8 1.2-16.8 4.3 -3.2 2-6.1 4.4-8.8 7.1 -0.4 0.4-0.9 1.1-0.6 1.6 4.2 10.4 11.7 25.2 25 24.3 7.9-0.5 14.7-6.1 19.8-11.7 1.1-1.3 2.3-2.6 3.2-4 0-0.1 0.1-0.1 0.1-0.2C350 350.2 350.1 349.8 350 349.4zM345.6 353.2c-0.2 0.3-0.5 0.5-0.7 0.8 -0.1 0.1-0.3 0.3-0.4 0.4 -0.1 0.1-0.1 0.1-0.2 0.2 0 0 0 0 0 0 0 0 0 0-0.1 0.1 -0.6 0.6-1.3 1.2-1.9 1.8 -1.4 1.3-3 2.5-4.4 3.5 -3.3 2.2-7 3.9-11 4 -4.8 0.2-9.2-2.1-12.6-5.4 -4.9-4.8-8.1-11.1-10.7-17.4 4.9-4.6 10.7-8.8 17.5-9.9 4.8-0.8 9.7 0.5 13.8 3 5.8 3.7 10.3 9.7 13.2 15.8C347.3 351.3 346.4 352.3 345.6 353.2z" class="v"/><path d="M330.1 355.3c-2.2 0.5-4.6 0.5-6.9 0 -2.1-0.4-4-1.3-5.6-2.7 -2.2-1.8-3.6-4.5-4.4-7.2 -0.4-1.2-2 0.6-1.7 1.5 0.9 2.9 2.3 5.5 4.5 7.6 1.7 1.5 3.8 2.5 6 3 2.5 0.6 5.3 0.6 7.7 0C330.6 357.4 331.3 355 330.1 355.3L330.1 355.3z" class="v"/><path d="M335.8 346.8c-2.2 0.5-4.6 0.5-6.9 0 -2.1-0.4-4-1.3-5.6-2.7 -2.2-1.8-3.6-4.5-4.4-7.2 -0.4-1.2-2 0.6-1.7 1.5 0.9 2.9 2.3 5.5 4.5 7.6 1.7 1.5 3.8 2.5 6 3 2.5 0.6 5.3 0.6 7.7 0C336.2 348.9 337 346.5 335.8 346.8L335.8 346.8z" class="v"/><path d="M360.1 314.6c0 0-5.4 3.4 1.3 7.7 6.7 4.4 13.3 0.7 16.3-3.2C371.5 314.8 360.1 314.6 360.1 314.6z" fill="#870B0B"/><path d="M359.4 315.3c0 0 5.5-10.1 17.1 3.2C373.2 320.1 363.3 324.7 359.4 315.3z" class="t"/><path d="M352.2 313.3c4 1 13.5-0.2 13.5-10.8 0-11-7.3-16.8-14.3-14.9C343.6 289.8 338.6 310 352.2 313.3z" class="f"/><ellipse cx="361.3" cy="305.2" rx="2.6" ry="3.5" class="w"/><path d="M363 302.7c0 0.7-0.4 1.2-0.9 1.2 -0.5 0-0.9-0.5-0.9-1.2 0-0.7 0.4-1.2 0.9-1.2C362.6 301.4 363 302 363 302.7z" class="f"/><path d="M376.3 312.2c-3.4 0.8-11.5-0.2-11.4-9.1 0-9.3 6.2-14.3 12.1-12.6C383.6 292.3 387.8 309.4 376.3 312.2z" class="f"/><path d="M366.3 305.3c0 1.6 1 3 2.2 3s2.2-1.3 2.2-3c0-1.6-1-3-2.2-3S366.3 303.7 366.3 305.3z" class="w"/><ellipse cx="367.9" cy="303.2" rx="0.8" ry="1" class="f"/><path d="M376 286.5c1.4-0.7 2.7 0.8 3.3 1.8 0.6 1 2.9-0.3 2.4-1.4 -1.3-2.3-3.9-3.1-6.6-1.9 -0.5 0.2-1 0.9-0.7 1.4C374.7 287 375.5 286.8 376 286.5z" class="b"/><path d="M349.3 285.8c-1.4-0.7-2.8 0.8-3.3 1.8 -0.6 1-3-0.3-2.4-1.4 1.3-2.3 4-3.1 6.6-1.9 0.5 0.2 1 0.9 0.7 1.4C350.6 286.3 349.8 286 349.3 285.8z" class="b"/><path d="M305.7 351c0.3 3.7 1.7 7.5 3.4 10.7 3.3 6.2 8.3 11.2 14.4 14.7 8 4.7 17.1 6.7 26.3 6.7 7.1 0 14.2-1.2 20.8-3.3 6.8-2.2 14.8-5.3 18.8-11.7 -9.4 5.8-28.1 15.7-58.8-2.3 -1.2-0.7-2.6 0.6-4 0.7 -0.4 0-0.7 0-1.1 0C316.3 366.4 310 358.9 305.7 351L305.7 351z" class="x"/><path d="M304 347.6c-0.9 6.2 1.5 12.7 4.7 17.9 3.6 6 9.1 10.7 15.2 13.9 7.7 4.1 16.4 5.9 25 5.9 7.7 0 15.4-1.4 22.5-3.8 5.5-1.9 11.1-4.3 15.4-8.3 1.5-1.9 2.9-3.9 4.3-6 -0.5 0.2-1.1 0.3-1.6 0.5 -0.1 0.1-0.1 0.2-0.2 0.3 -4 6.4-12 9.5-18.8 11.7 -6.6 2.1-13.7 3.3-20.8 3.3 -9.2 0-18.3-2-26.3-6.7 -6-3.5-11.1-8.5-14.4-14.7 -1.7-3.2-3.1-6.9-3.4-10.7C305.1 349.9 304.5 348.7 304 347.6L304 347.6z" class="y"/><path d="M314.5 333.6c-4 1.9-7.6 4.7-10.9 7.8 2.6 6.3 5.8 12.6 10.7 17.4 3.3 3.2 7.4 5.4 12.1 5.4 0.2 0 0.3 0 0.5 0 0.5 0 1-0.1 1.5-0.1 -2.3-1.9-4.3-4.1-5.9-6.3 -0.2 0-0.3-0.1-0.5-0.1 -2.2-0.5-4.3-1.5-6-3 -2.2-2-3.7-4.7-4.5-7.6 -0.2-0.7 0.7-1.9 1.3-1.9 0.2 0 0.4 0.1 0.4 0.4 0.8 2.7 2.2 5.4 4.4 7.2 0.8 0.7 1.7 1.3 2.7 1.7C316.1 346.9 314.8 338.9 314.5 333.6L314.5 333.6z" class="x"/><path d="M314.4 331.5c-1.2 0.6-2.3 1.2-3.4 1.9 -3.2 2-6.1 4.4-8.8 7.1 -0.4 0.4-0.9 1.1-0.6 1.6 0.7 1.7 1.5 3.6 2.4 5.5 0.5 1.1 1.1 2.2 1.7 3.3 4.3 8 10.7 15.5 19.8 15.5 0.4 0 0.7 0 1.1 0 1.4-0.1 2.7-0.3 4-0.7 -0.8-0.5-1.5-1.1-2.3-1.7 -0.5 0.1-1 0.1-1.5 0.1 -0.2 0-0.3 0-0.5 0 -4.6 0-8.8-2.2-12.1-5.4 -4.9-4.8-8.1-11.1-10.7-17.4 3.2-3 6.8-5.9 10.9-7.8C314.4 332.8 314.4 332.1 314.4 331.5L314.4 331.5z" class="y"/><path d="M312.7 345c-0.6 0-1.5 1.2-1.3 1.9 0.9 2.9 2.3 5.5 4.5 7.6 1.7 1.5 3.8 2.5 6 3 0.1 0 0.3 0.1 0.5 0.1 -0.8-1.1-1.5-2.2-2.1-3.3 -1-0.5-1.9-1-2.7-1.7 -2.2-1.8-3.6-4.5-4.4-7.2C313.1 345.2 312.9 345 312.7 345L312.7 345z" class="y"/><polygon points="282.5 121.4 255.8 131.8 249.4 46.3 276.8 44.6 " class="z"/><polygon points="379.9 114.4 352.5 114.3 352.4 34.7 379.8 34.8 " class="z"/><polygon points="491.2 118.9 464.2 112.5 473.1 35.9 500.4 39 " class="z"/><path d="M226.6 71.7l4.7 18.8c0 0 84.1-12.6 134.4-14.1 50.2-1.4 122.1 3.7 140.5 5 1.2-18.1 1.9-20 1.9-20s-47-1.9-103.6-3.9C349.3 55.7 257.7 66.4 226.6 71.7z" class="z"/><path d="M228.7 100.7l5.1 13.3c0 0 83.6-9.9 133.7-9.8 50.1 0 122.1 7.7 140.5 9 0.8-12.7 1.5-14 1.5-14s-48.7-3.8-105.1-8.4S259.7 97.6 228.7 100.7z" class="z"/><path d="M471 62.4l0-0.1c-0.5 0-0.9 0.1-1.4 0.1C470.1 62.3 470.5 62.4 471 62.4z" class="A"/><path d="M281.1 96.4l0 0c0.2 0 0.3 0 0.5-0.1C281.4 96.4 281.3 96.4 281.1 96.4z" class="A"/><path d="M304.2 95.1c0.5 0 1 0 1.5-0.1 0.2 0 0.5 0 0.7-0.1C305.7 95 305 95.1 304.2 95.1z" class="A"/><path d="M499.6 101.4l0 0.2c2.9-0.2 5.8-0.4 8.6-0.6C505.3 101.2 502.4 101.3 499.6 101.4z" class="A"/><path d="M282.7 118.1l0 0c0.1 0 0.1 0 0.2 0C282.9 118 282.8 118 282.7 118.1z" class="A"/><path d="M353.2 92.5l0-0.1c-2.7 0.2-5.4 0.3-8.2 0.5C347.7 92.7 350.4 92.6 353.2 92.5z" class="A"/><path d="M498.8 53.2l0-0.4c-5.5 0.2-11 0.4-16.5 0.9C487.8 53.6 493.3 53.4 498.8 53.2z" class="A"/><path d="M277 58c0.3 0 0.5 0 0.8 0l0-0.4c-1.3 0.1-2.6 0.1-3.9 0.2 1.4-0.1 2.4-0.2 2.7-0.3 -5.9 0.4-11.9 0.7-17.8 1.1 -2.8 0.2-5.6 0.4-8.4 0.5l0 0.6c1-0.1 2-0.1 3.1-0.2C261.3 59 269.2 58.5 277 58z" class="A"/><path d="M262.3 57.8c2.6-0.2 5.3-0.3 7.9-0.5 1-0.1 2.1-0.1 3.2-0.2 1.5-0.1 2.9-0.2 4.4-0.3l0-0.3c-3.6 0.2-7.3 0.5-11 0.7 -5.5 0.4-10.9 0.7-16.4 1.1l0 0.3C254.3 58.3 258.3 58.1 262.3 57.8z" class="A"/><path d="M472.1 45.4c9.2-0.4 18.5-0.9 27.7-1.3l0-0.4c-9.3 0.4-18.5 0.9-27.7 1.3L472.1 45.4z" class="A"/><path d="M472.1 44.9l0 0.1c9.2-0.5 18.5-1 27.8-1.6l0-0.2C490.7 43.7 481.4 44.3 472.1 44.9z" class="A"/><path d="M472.2 44.4c9.2-0.5 18.5-0.9 27.8-1.4l0.1-0.7c-9.3 0.5-18.5 1-27.8 1.5L472.2 44.4z" class="A"/><path d="M251.5 58.7c-0.3 0-0.7 0-1.1 0.1l0 0.1c0.7 0 1.4-0.1 2-0.1C252.1 58.7 251.8 58.7 251.5 58.7z" class="A"/><path d="M352.5 53.6l0 0.3c9.1-0.5 18.3-1 27.4-1.6v-0.3C370.8 52.6 361.6 53.1 352.5 53.6z" class="A"/><path d="M379.9 51.3l0-0.6c-9.1 0.5-18.3 1-27.4 1.6l0 0.5c0 0 0 0 0.1 0C361.7 52.3 370.8 51.8 379.9 51.3z" class="A"/><path d="M501.9 75.8c0.7-0.3 1.8-0.2 2.4-0.2C503.4 75.7 502.7 75.7 501.9 75.8c-0.2 0.1-0.3 0.2-0.4 0.3 0.7 0 2.1-0.1 2.7-0.2 0.1-0.2 1-0.3 2.3-0.4 0-0.1 0-0.3 0-0.4 -3.6 0.2-7.3 0.4-10.9 0.7C497.7 75.7 499.8 75.9 501.9 75.8z" class="A"/><path d="M370.3 41.6c3.2-0.2 6.4-0.4 9.6-0.6l0-0.5c-9.1 0.6-18.2 1.2-27.4 1.8l0 0.5C359.2 42.4 377.1 41.3 370.3 41.6z" class="A"/><path d="M277 47.2c-9.1 0.6-18.2 1.2-27.3 1.9l0 0.5c9.1-0.6 18.2-1.3 27.3-1.9L277 47.2z" class="A"/><path d="M270.1 49.4c0.5 0 1.1-0.1 1.7-0.1 1.2-0.1 3.1-0.2 5.3-0.3l0-0.6c-9.1 0.6-18.2 1.3-27.3 2l0 0.5c2.6-0.2 5.2-0.4 7.7-0.6C261.8 50 266 49.7 270.1 49.4z" class="A"/><path d="M359.5 43c-2.2 0.2-4 0.3-5.8 0.5 -0.4 0-0.8 0.1-1.2 0.1l0 0.5c3.5-0.2 6.9-0.4 10.4-0.7 0.3 0 0.6 0 0.9 0 0.3 0 0.6 0 0.9-0.1 1.8-0.1 3.5-0.2 5.3-0.3 3.2-0.2 6.8-0.4 9.9-0.6l0-0.6c-4.1 0.3-8.2 0.5-12.2 0.8C365.5 42.7 363 42.8 359.5 43z" class="A"/><path d="M277.2 49.7c-3 0.2-6 0.4-9 0.6 -6.1 0.4-12.2 0.9-18.3 1.3l0 0.5c9.1-0.6 18.2-1.3 27.3-1.9L277.2 49.7z" class="A"/><path d="M352.5 45.6c9.1-0.6 18.3-1.2 27.4-1.8l0-0.6c-9.1 0.6-18.3 1.2-27.4 1.7L352.5 45.6z" class="A"/><path d="M352.5 46.7c9.1-0.6 18.3-1.1 27.4-1.7l0-0.7c-9.1 0.6-18.3 1.2-27.4 1.7L352.5 46.7z" class="A"/><path d="M478.1 36.4l-4.1-0.5c-0.3 0-0.5 0-0.8 0.1l-0.1 0.8C474.8 36.6 476.4 36.5 478.1 36.4z" class="A"/><path d="M263.4 52.2c2.6-0.2 5.2-0.4 7.8-0.5 2.2-0.1 4.2-0.2 6.1-0.3l-0.1-0.7c-2.9 0.2-5.8 0.4-8.7 0.6 -6.2 0.4-12.4 0.9-18.6 1.3l0 0.6c1.2-0.1 2.3-0.2 3.5-0.2C257.5 52.6 262 52.3 263.4 52.2z" class="A"/><path d="M277.4 52.7l-0.1-0.8c-5.8 0.4-11.7 0.8-17.5 1.2 -3.3 0.2-6.5 0.5-9.8 0.7l0.1 0.7c4.4-0.3 8.8-0.6 13.2-0.9C268 53.3 272.7 53 277.4 52.7z" class="A"/><path d="M473 38c2.6-0.2 5.3-0.3 7.9-0.5 -0.5 0.1 2.4 0.1 4.4-0.1 0.7-0.1-0.2-0.1-1.6-0.1 0.4 0 0.8-0.1 1.2-0.1l-2.9-0.3c-3 0.2-6 0.4-8.9 0.6L473 38z" class="A"/><path d="M472.8 39c6.1-0.4 12.2-0.8 18.3-1.1l-2.8-0.3c-5.1 0.3-10.3 0.6-15.4 1L472.8 39z" class="A"/><path d="M379.9 45.6c-4 0.3-8.1 0.5-12.1 0.8 0.1 0 0.2 0 0.3 0 1.2-0.1-2-0.2-4.2 0.1 -0.8 0.1 0.5 0.1 2.1 0.1 -4.5 0.3-9 0.6-13.5 0.9l0 0.5c9.1-0.6 18.3-1.1 27.4-1.7V45.6z" class="A"/><path d="M379.9 47l0-0.6c-9.1 0.6-18.3 1.1-27.4 1.7l0 0.6c2-0.1 4-0.2 6-0.3C365.7 47.9 372.8 47.4 379.9 47z" class="A"/><path d="M477.3 40.7c-1.4-0.3-2.8-0.2-4.4 0 -0.1 0-0.2 0-0.3 0l-0.1 0.8c9.2-0.5 18.5-1.1 27.8-1.6l0.1-0.7c-8.6 0.5-17.1 1-25.7 1.6C475.6 40.8 476.4 40.8 477.3 40.7z" class="A"/><path d="M277.6 55l0-0.5c-0.6 0-1.3 0.1-1.9 0.1 -5.7 0.4-11.3 0.7-17 1.1 -2.8 0.2-5.6 0.4-8.5 0.6l0 0.5c3.7-0.3 7.5-0.5 11.2-0.8C266.6 55.7 272.2 55.3 277.6 55z" class="A"/><path d="M379.9 48.7c-9.1 0.6-18.3 1.1-27.4 1.6l0 0.4c9.1-0.5 18.3-1.1 27.4-1.6L379.9 48.7z" class="A"/><path d="M461.8 62c2.7 0.1 5.3 0.2 7.9 0.3 0.5 0 0.9-0.1 1.4-0.1l0.1-0.9C468 61.6 464.9 61.8 461.8 62z" class="A"/><path d="M490.6 59.6c-6.8 0.5-13.7 1-20.5 1.5l-0.1 0.9c6.9-0.5 13.7-1 20.6-1.5 2.4-0.2 4.8-0.3 7.2-0.5l0.1-0.9C495.5 59.2 493 59.4 490.6 59.6z" class="A"/><path d="M240.1 78.7c3 0 6.2 0 0.5 0 -1.4 0-2.4 0-3 0 5.2-0.4 10.3-0.8 15.5-1.2 6.7-0.4 13.4-0.8 20.1-1.3 -1.4 0.1-2.1-0.2-3.6 0 -1.5 0.1-3.1 0.2-4.6 0.3 7.4-0.6 14.8-1.1 22.2-1.6 0.9 0 2.3 0 3.3-0.2 0.3 0 0.3-0.1 0-0.1 8.5-0.6 17-1.2 25.5-1.7 0.9 0 2.6 0 3.9-0.2 0.4 0 0.3-0.1-0.1-0.1 6.4-0.5 12.8-0.9 19.2-1.3 0.4 0 1 0 1.8-0.1 3.5-0.2 7-0.4 10.4-0.7 3.5-0.2 7-0.4 10.5-0.7 2.9-0.2 6.9-0.5 9.3-0.7s3-0.3-0.9-0.1c-2.6 0.2-5.2 0.4-7.9 0.5 12.8-0.9 25.5-1.8 38.2-2.6 -0.9 0.1-1.8 0.2-2.7 0.2 9.1-0.9 18.3-0.4 27.3-1.7 0 0-0.7 0-0.4-0.1 -4.9 0.3-9.6 0.6-14.2 0.8 18.8-1.3 37.6-2.6 56.3-3.9 0.9-0.1 1.8-0.1 2.7-0.2 -2.5-0.1-5.2-0.2-7.9-0.3 -47.7 3.4-95.4 6.8-144.2 10.3 -9.1 0.6-18.3 1.2-27.4 1.8 -20.5 1.4-41.1 2.9-61.8 4.5l0.2 0.7c2.9-0.2 5.8-0.5 8.8-0.7C238 78.7 239 78.7 240.1 78.7zM262.6 76.7c-3 0.3-6.2 0.5-9.3 0.7C256.4 77.2 259.5 77 262.6 76.7z" class="A"/><path d="M248.7 79.7c12.3-0.7 24.2-1 36.5-2.5 -0.7 0-2.1 0.1-3 0.2 -2.3 0.1-5 0.3-8 0.5 -3.9 0.2-7.8 0.5-11.6 0.7 6.2-0.5 12.3-1 18.4-1.5 7-0.5 14-1.1 20.9-1.6 41.8-2.5 83.5-5.3 125.2-8.3 0 0 0.1 0 0.1 0 2.3-0.1 4.7-0.1 7-0.2 8.4 0 16.3-1.2 24.6-1.7 -0.2 0-0.4 0-0.6 0 -3.5 0.3-7.1 0.5-10.6 0.8 -4.4 0.3-9.3 0.6-13.8 0.8 -0.7 0-1.5 0-2.2 0.1 1.8-0.1 3.7-0.3 5.5-0.4 9-0.6 18-1.3 27-2 11.4-0.8 22.8-1.6 34.3-2.4l0.1-0.8c-10.4 0.7-20.9 1.5-31.3 2.2 -8.5 0.6-17 1.2-25.5 1.9 -6.4 0.5-12.8 0.9-19.2 1.4 -0.4 0-1.1 0-2.1 0.1 -2.9 0.1-6.9 0.4-9.2 0.6 -2.3 0.2-2.9 0.3 0.9 0.1 0.5 0 1-0.1 1.6-0.1 -5.5 0.4-11 0.8-16.5 1.2 2-0.2 4-0.4 6.1-0.5 -7.7 0.5-16.1 1-23.8 1.5 1.4-0.1 2.1-0.1 3.2-0.1 0 0 0 0.1 0 0.1 -22.8 1.6-45.5 3.1-68.3 4.4 -9.1 0.6-18.3 1.3-27.4 2 -19.5 1.5-38.9 3.1-58.3 4.7l0.2 0.7C235.6 80.8 242.2 80.3 248.7 79.7z" class="A"/><path d="M310.3 77c12.3-0.6 24.6-1.3 36.9-2.1 0.4 0 1.1 0 2.4-0.1 0.8 0 1.6-0.1 2.1-0.2 6-0.4 12.1-0.8 18.1-1.2 3.6-0.2 7.2-0.4 10.7-0.7 13.4-0.9 26.8-1.9 40.2-2.9 9.2-0.7 18.4-1.4 27.6-2.1 14.5-0.9 29.2-1.9 43.9-3 5.5-0.2 9.4 0 14.9-0.3 0-0.1 0-0.1 0-0.1s0.9-0.6 0.3-0.6c-1.8 0.1-3.2 0.3-5 0.4 -0.4 0-0.8 0-1.1 0 1.5-0.1 3.1-0.2 4.6-0.3 -1.4-0.1-3.3-0.1-5.6-0.2 -1.4 0.1-2.9 0.2-4.3 0.3 -4.5 0.2-9 0.6-13.3 1 -6.6 0.5-13.3 0.9-19.9 1.4 -7.6 0.5-15.6 1.1-23.6 1.6 -15 1.1-30 2.1-45 3.1 1.9-0.2 3.8-0.4 5.6-0.5 -2.5 0.2-5.1 0.4-7.9 0.6 -0.3 0-0.6 0.1-0.9 0.1 -31.8 2.1-63.6 4.2-95.5 6.1 -8.3 0.6-16.7 1.2-25 1.8 -12 0.9-24 1.9-36 2.8 -1.7 0.1-3.5 0.1-5.2 0.2l0.2 0.9c19.1-1.5 38.1-3 57.1-4.4C294.5 78.1 302.4 77.5 310.3 77z" class="A"/><path d="M229.1 81.5l0 0.1c1.1 0 2.2-0.1 3.3-0.1C231.3 81.5 230.2 81.5 229.1 81.5z" class="A"/><path d="M245.5 83.5c0.3 0 0.5 0 0.8 0 1.4-0.1 2.8-0.2 4.2-0.3 2.7-0.2 5.5-0.3 8.2-0.5 2.8-0.2 5.6-0.3 8.4-0.5 3.3-0.2 6.6-0.4 9.9-0.6 1.1-0.1 2.2-0.1 3.4-0.2 13.2-0.8 26.5-1.6 39.7-2.3 0.1 0 0.1 0 0.2 0 1.7-0.1 3.4-0.2 5.1-0.3 -1 0-2.7 0-5.3 0.1 -20.4 1.2-40.9 2.4-61.4 3.7 -1.1 0.1-2.3 0.1-3.4 0.2 7.1-0.6 14.3-1.1 21.4-1.6 8-0.6 16.1-1.2 24.1-1.7 38.7-2.1 77.7-4.6 116.5-7.3 5.8-0.4 11.7-0.8 17.4-1.2 0.4 0 1.1 0 2.1-0.1 3.5-0.2 8.1-0.5 6.7-0.5 0.8-0.1 1.7-0.1 2.5-0.2 12.9-0.8 25.7-1.7 38.6-2.6 5.9-0.4 11.7-0.7 17.6-0.9 -0.7 0-2.1-0.2-2.7 0 -1.2 0.1-2.3 0.1-3.5 0.2 1.9-0.1 3.9-0.3 5.8-0.4 1.8-0.1 3.7-0.2 5.5-0.3 0 0 0-0.1 0-0.1 -1.7 0.1-3.5 0.2-5.2 0.3 1.7-0.1 3.5-0.3 5.2-0.4 0.1-0.5 0.1-0.8 0.2-1.1 -21.7 1.6-43.5 3.2-65.2 4.5 -1 0.1-2.1 0.1-3.3 0.2 -3.2 0.2-7.4 0.5-10.9 0.7 0.7 0 1.5 0 2.2 0 -4.3 0.3-8.7 0.6-13.1 0.9 -40.7 2.9-81.4 5.6-122 7.9 -7.8 0.5-15.6 1.1-23.4 1.7 -3 0.2-6.1 0.4-8.9 0.6 0.4 0 0.7 0 1.1 0 -9.5 0.7-19 1.5-28.5 2.2 -0.7 0-1.4 0-2.2 0.1 -1.2 0-2.4 0.1-3.6 0.1l0.3 1c3-0.2 6-0.4 8.9-0.6C241.2 83.8 243.4 83.6 245.5 83.5z" class="A"/><path d="M379.9 80.6l0-0.7c-9.1 0.6-18.3 1.1-27.4 1.7l0 0.6C361.6 81.7 370.8 81.1 379.9 80.6z" class="A"/><path d="M278.9 67.2c1-0.1 1.9-0.2 2.9-0.3 -1 0-2 0.1-2.9 0.1L278.9 67.2z" class="A"/><path d="M471.4 50.9l-0.1 0.5c7-0.6 14-1.2 21.1-1.7 2.2-0.2 4.4-0.3 6.8-0.5l0.1-0.5c-2.4 0.2-4.7 0.3-6.9 0.5C485.3 49.8 478.4 50.3 471.4 50.9z" class="A"/><path d="M359.1 63.4c15.7-1 31.5-2.1 47.1-3.4 -0.3 0-0.7 0-1 0 -1 0-2-0.1-3-0.1 -14.3 1.2-28.8 2.2-43.2 3.1 -12.2 0.8-24.2 1.4-36 2 -13.8 0.7-27.5 1.3-41.2 1.9 -1 0.1-2 0.2-2.9 0.3l0-0.2c-9.1 0.4-18.3 0.9-27.4 1.4l0 0.4c23.8-1.3 47.5-2.2 71.5-3.4C334.8 64.9 346.9 64.2 359.1 63.4z" class="A"/><path d="M364 112.9c4.8-0.4 5.5-0.5-2.1 0 -3 0.2-6.2 0.4-9.5 0.6l0 0.5c9.2-0.5 18.3-1 27.4-1.5l0-0.4C374.6 112.4 369.3 112.6 364 112.9z" class="A"/><path d="M379.9 110.9c-9.1 0.5-18.3 1-27.4 1.5v0.3c9.1-0.5 18.3-1 27.4-1.5V110.9z" class="A"/><path d="M421.3 108.6c1.5 0.1 3.1 0.2 4.6 0.3 3.9-0.2 7.8-0.5 11.6-0.7 3-0.2 5.9-0.4 8.9-0.6 3.6-0.2 7.1-0.4 10.7-0.5 -4.4 0.3-8.9 0.8-13.2 1 0.3 0 0.6 0 1 0 1.5-0.1 4.4-0.3 7.7-0.5 0.5 0 1.1 0 1.6-0.1 -6.7 0.5-13.4 0.9-20.1 1.4 -1.2 0.1-2.4 0.2-3.6 0.2 0.7 0.1 1.4 0.1 2.2 0.2 5-0.3 9.9-0.6 14.9-1 0.4 0 0.7 0 1.1-0.1 13.5-0.9 27-1.8 40.6-2.7 -0.9 0.1-1.7 0.2-2.5 0.4 4-0.3 6.3-0.4 8.5-0.4 2.8-0.5 5.5 0.2 7.5-0.8 1.8-0.1 3.7-0.3 5.5-0.4 0.1 0 0.1 0 0.2 0 0-0.2 0-0.3 0.1-0.5 -5.2 0.4-10.4 0.7-15.6 1.1 4.9-0.4 9.8-0.8 14.7-1.3 -3.2 0.2-5.8 0.4-7.9 0.5 -16.6 1.1-33.2 2.2-49.7 3.1 19.5-1.2 39.1-2.5 58.6-3.8 0-0.2 0.1-0.4 0.1-0.5 -21.9 1.5-43.8 3-65.7 4.4C435.6 107.8 428.4 108.2 421.3 108.6z" class="A"/><path d="M282.3 117.9l0-0.6c-5.6 0.3-11.2 0.5-16.8 0.8 -3.6 0.2-6.9 0.4-10.4 0.5l0 0.7c5.7-0.3 11.1-0.6 16.8-0.8C275.3 118.3 278.8 118.1 282.3 117.9z" class="A"/><path d="M282.2 116.6l0-0.3c-9.2 0.4-18.1 0.9-27.3 1.4l0 0.3C264 117.5 273 117 282.2 116.6z" class="A"/><path d="M277.7 96.9c1.1-0.1 2.2-0.2 3.5-0.2l0-0.3C280 96.6 278.8 96.7 277.7 96.9z" class="A"/><path d="M345 92.8c-6.6 0.3-13.1 0.7-19.7 1.1C331.9 93.6 338.4 93.2 345 92.8z" class="A"/><path d="M280.4 93l0-0.3c-9.2 0.4-18.3 0.9-27.5 1.3l0 0.3C262.1 93.9 271.3 93.5 280.4 93z" class="A"/><path d="M280.5 94.3l0-0.6c-5.5 0.3-11 0.5-16.5 0.7 -3.6 0.2-7.3 0.3-10.9 0.5l0 0.7c5.8-0.3 11.5-0.5 17.3-0.8C273.7 94.7 277.1 94.5 280.5 94.3z" class="A"/><path d="M363.4 91.3c4.8-0.4 5.5-0.5-2.1 0 -2.6 0.2-5.3 0.3-8.2 0.5l0 0.5c9.2-0.5 18.3-1 27.4-1.5l0-0.4C374.8 90.7 369.1 91 363.4 91.3z" class="A"/><path d="M491.2 118.7l0.1-0.4c-0.6 0-1.2 0.1-1.8 0.1l1.4 0.3C491 118.8 491.1 118.7 491.2 118.7z" class="A"/><path d="M491.4 117.2c-1.8 0.1-3.6 0.3-5.4 0.4l2 0.5c1.1-0.1 2.2-0.2 3.4-0.2L491.4 117.2z" class="A"/><path d="M491.6 115.7c-3.4 0.3-6.8 0.5-10.2 0.8l2.6 0.6c2.5-0.2 5-0.4 7.6-0.5L491.6 115.7z" class="A"/><path d="M474.5 114.9l1.8 0.4c5.1-0.3 10.2-0.7 15.4-1l0.1-0.6C486 114.1 480.3 114.5 474.5 114.9z" class="A"/><path d="M508.1 113.1c0-0.2 0-0.4 0-0.5 -1.3 0.1-2.5 0.2-3.8 0.3C505.8 112.9 507 113 508.1 113.1z" class="A"/><path d="M494.9 112c4.4-0.3 8.9-0.6 13.3-0.9 0-0.2 0-0.3 0-0.4 -5.3 0.4-10.7 0.7-16 1.1C493.1 111.8 494 111.9 494.9 112z" class="A"/><path d="M466.5 113c13.9-0.9 27.9-1.8 41.8-2.8 0-0.2 0-0.4 0-0.5 -14.5 1-28.9 2-43.3 2.9L466.5 113z" class="A"/><path d="M366 101.3c5-0.3 10.1-0.7 15.1-1 9.1-0.5 18.3-1.1 27.4-1.7 11.7-0.8 23.4-1.5 35.1-2.4 -1-0.1-2-0.2-3-0.2 -10.8 0.8-21.5 1.5-32.2 2.2 -9.2 0.6-18.4 1.2-27.5 1.7 -11 0.7-22 1.5-32.9 2.2 -0.2 0-1 0-2.8 0.1 -5.1 0.3-26.5 1.6-19.2 1.4 -31.5 2.1-62.8 4.1-94.1 6.2l0.2 0.6c43.8-2.9 87.5-5.9 132-8.8C364.7 101.4 365.4 101.4 366 101.3z" class="A"/><path d="M466.3 94.3c9.3-0.7 18.6-1.3 27.9-2l0.1-0.6c-9.3 0.7-18.6 1.3-28 2L466.3 94.3z" class="A"/><path d="M312.3 103.6c0.9 0 2.4 0 3.6-0.2 0.3 0 0.3-0.1 0.1-0.1 4.2-0.3 8.4-0.5 12.6-0.8 2.1-0.1 4.6-0.2 8.1-0.4 2.2-0.2 4-0.3 5.8-0.5 13.9-0.9 27.7-1.7 41.6-2.5 9.1-0.6 18.3-1.2 27.4-1.8 8-0.6 15.9-1.1 23.8-1.7 -1-0.1-2.1-0.2-3.1-0.3 -2 0.1-4 0.3-5.9 0.4 -0.5 0-1.1 0.1-1.7 0.1 -4.9 0.2-23.7 1.5-14.4 1.1 -4.5 0.3-9 0.6-13.4 0.9 -21.1 1.2-42.2 2.6-63.3 3.9 -0.3 0-0.6 0-0.9 0 -0.3 0-0.6 0-0.9 0.1 -1.8 0.1-3.5 0.2-5.3 0.3 -6.7 0.4-15 0.8-17.8 1.2 -15.7 1-31.4 2.1-47.1 3.1 -3.8 0.3-7.5 0.5-11.3 0.8 1-0.1 2-0.2 3-0.3 -1.7 0.1-4.3 0.2-7.1 0.4 -2.8 0.1-5.9 0.3-8.7 0.4 -2.3 0.1-4.4 0.2-6.1 0.4l0.1 0.4c2.1-0.2 3.9-0.3 5.5-0.4 2.4-0.2 4.5-0.3 6.3-0.4 0.1 0 0.2 0 0.3 0 -3 0.2-6.1 0.4-9.1 0.6 -1 0.1-2 0.1-2.9 0.2l0.2 0.5c8.4-0.6 16.8-1.1 25.2-1.7C275.3 106.1 293.8 104.8 312.3 103.6z" class="A"/><path d="M466.6 92.4l-0.1 0.5c9.3-0.7 18.6-1.4 28-2.1l0-0.4C485.2 91.1 475.9 91.7 466.6 92.4z" class="A"/><path d="M259.6 105.6c47.9-3.2 95.6-6.1 143.7-9 8-0.5 16-1.1 24-1.6 -1.2-0.1-2.3-0.2-3.5-0.3 -3.8 0.3-7.7 0.5-11.5 0.8 -7.9 0.5-15.8 1.1-23.7 1.6 -29.3 1.6-58.6 3.4-88 5.4 -0.4 0-0.9 0-1.5 0.1 -5.1 0.3-26.5 1.6-19.2 1.4 -0.6 0-1.2 0.1-1.7 0.1 -9.2 0.6-18.4 1.3-27.6 1.9 -6.5 0.4-13 0.8-19.5 1.2l0.2 0.4c1.6-0.1 3.3-0.2 4.9-0.3C243.6 106.7 251.6 106.1 259.6 105.6z" class="A"/><path d="M482.1 89.9c-2.3 0.1-4.7 0.4 0 0.2 0 0 0 0 0.1 0 -5.2 0.4-10.3 0.7-15.5 1.1l-0.1 0.5c9.3-0.7 18.6-1.4 28-2l0.1-0.4c-3.8 0.3-7.6 0.5-11.4 0.8C485.1 89.9 486.2 89.7 482.1 89.9z" class="A"/><path d="M466.8 90.7c9.3-0.7 18.6-1.3 27.9-2l0.1-0.6c-9.3 0.7-18.6 1.3-27.9 2L466.8 90.7z" class="A"/><path d="M280.8 103.2c40.9-2.7 81.7-5.3 122.6-7.6 5.7-0.4 11.5-0.8 17.2-1.1 -1.7-0.1-3.4-0.3-5.1-0.4 -11.6 0.6-18.9 1.4-32.8 2.1 1.3 0 3.2-0.1 5.4-0.2 -3.2 0.2-6.3 0.4-9.5 0.5 1.2-0.1 2.3-0.2 4.1-0.4 1.8-0.1 1.8-0.4 0-0.4 0.9 0-14.6 0.9-16.7 0.9 -0.3 0.3-14.4 1.3-15.8 1.6 -23.1 1.4-46.2 2.9-69.3 4.4 -9.8 0.6-19.5 1.3-28.8 1.9 -7.2 0.4-14.4 0.9-21.6 1.4l0.3 0.7c8.5-0.6 17.1-1.1 25.6-1.6C264.4 104.2 272.6 103.7 280.8 103.2zM413.1 94.3c-2.3 0.2-4.6 0.3-6.9 0.5C408.5 94.6 410.8 94.5 413.1 94.3zM398.9 95.3c-0.3 0-0.7 0-1 0.1 -0.1 0-0.2 0-0.3 0C398 95.3 398.4 95.3 398.9 95.3zM378.4 96.1c-0.6 0.3-7.6 0.6-12.5 1C366.5 96.8 373.5 96.4 378.4 96.1zM357.5 97.6c3.3-0.2 5.5-0.3 7.4-0.4 -3.5 0.2-7.1 0.4-10.6 0.6C354.9 97.8 355.9 97.7 357.5 97.6z" class="A"/><path d="M277.2 102.1c17.1-1.1 34.2-2.2 51.3-3.3 -0.1 0-0.2 0-0.3 0 -1.2 0.1 2 0.2 4.2-0.1 0.8-0.1-0.5-0.1-2.1-0.1 5.8-0.4 11.6-0.7 17.4-1.1 0.4 0 0.9 0 1.5-0.1 0.5 0 1-0.1 1.4-0.1 19.5-1.2 38.9-2.4 58.3-3.5 1.2-0.1 2.4-0.2 3.6-0.2 -1.9-0.2-3.9-0.3-5.8-0.5 -23.2 1.4-45.4 2.3-68.7 3.6 -9.1 0.6-18.2 1.1-27.3 1.7 -16.6 1-32.6 2-49.3 3 -1.5 0.1-3.2 0.2-4.5 0.3 -9.1 0.5-18.1 1-27.2 1.6l0.2 0.5c0.2 0 0.3 0 0.5 0 15-0.9 30-1.7 45.6-2.6 4.9-0.3 9.7-0.6 14.6-0.9 -0.3 0.1-1 0.2-4.1 0.4 -5.5 0.3-11.8 0.7-17.2 1.1 -3.2 0.2-6.3 0.4-8.8 0.6 -2.5 0.2-4.4 0.3-5.3 0.4 -1.8 0.2 0.5 0.1 10.5-0.5 2.5-0.2 5-0.4 7.5-0.5 -7.9 0.5-15.6 1-23 1.4 -2.6 0.1-5.2 0.3-7.8 0.5 1.4-0.1 1.7-0.3-1.8-0.1 -1.8 0.1-3.7 0.3-2.1 0.3 -2.8 0.2-5.5 0.3-8.3 0.5l0.2 0.5c7.1-0.4 14.2-0.9 21.3-1.3C259.7 103.3 268.5 102.7 277.2 102.1zM289.8 99.9c-4.7 0.3-9.5 0.6-14.1 0.9 11.5-0.8 23.3-1.5 34.8-2.2C303.6 99 296.7 99.4 289.8 99.9zM292.1 100.4c-0.6 0-0.7 0-1.3 0 4.1-0.3 8.2-0.5 12.2-0.8 32.1-2 64.2-4 96.2-5.6 -1.9 0.1-3.4 0.3-4 0.3 -35.1 1.9-70.3 4.2-105.4 6.5C290.5 100.7 291.3 100.5 292.1 100.4z" class="A"/><path d="M467 88.4l0 0.2c1.5-0.1 3-0.2 4.5-0.3 0.8 0 1.5-0.1 2.3-0.1 -1.1 0.1-2.3 0.2-3.4 0.3 -1.1 0.1-2.3 0.2-3.4 0.3l-0.1 0.7c9.3-0.7 18.6-1.3 27.9-2l0.1-0.8c-3.3 0.2-6.6 0.5-9.9 0.7C479 87.7 473 88.1 467 88.4z" class="A"/><path d="M467.2 86.5l-0.1 0.6c2.4-0.2 4.8-0.3 7.2-0.5 2.8-0.1 5.1-0.3 7.1-0.4 4.5-0.3 9.1-0.6 13.7-1l0.1-0.7C485.9 85.2 476.5 85.9 467.2 86.5z" class="A"/><path d="M301.6 95.3c28.8-1.8 57.6-3.5 86.4-5.1 -1.4 0-2.7-0.1-4.1-0.1 -3.4 0.2-6.9 0.4-10.3 0.5 0.3-0.1-2.5-0.1-4.4 0.1 -0.5 0.1-0.1 0.1 0.6 0.1 -6.8 0.4-13.7 0.7-20.6 1.2 -16.4 0.9-32.7 1.9-49 2.9 -8.2 0.5-16.3 1-24.5 1.5 -7.5 0.4-15.1 0.8-22.6 1.2l0 0.5c8.2-0.5 16.5-0.9 24.7-1.3C285.8 96.3 293.7 95.8 301.6 95.3z" class="A"/><path d="M499.6 101.4l0-0.2c-3.3 0.2-6.7 0.5-10 0.7C492.9 101.8 496.2 101.6 499.6 101.4z" class="A"/><path d="M499.3 101.7c-19.5 1.4-39 2.7-58.3 4 -12.2 0.7-26.9 1.6-34.9 2.2 -3.5 0.2-7.1 0.4-10.7 0.6 1.2 0 2.3 0.1 3.5 0.1 9.3-0.5 18.6-1 27.9-1.5 5.7-0.3 11.3-0.7 17-1.1 5.7-0.4 11.3-0.7 17-1.1 6.8-0.5 13.6-0.9 20.4-1.4 2.8-0.1 5.1-0.3 7.1-0.4 4.9-0.4 10-0.7 15-1.1 -1.2-0.1-2.5-0.2-3.9-0.3L499.3 101.7z" class="A"/><path d="M281.9 113.6l0-0.5c-1.7 0.1-3.4 0.2-5 0.3 -7.5 0.4-14.8 0.8-22.3 1.2l0 0.5c8.2-0.5 16.2-1 24.4-1.4C280 113.7 281 113.6 281.9 113.6z" class="A"/><path d="M379.8 107.8l0-0.3c-1.8 0.1-3.6 0.2-5.4 0.3 0.3-0.1-2.5-0.1-4.4 0.1 -0.5 0.1-0.1 0.1 0.6 0.1 -6.1 0.3-12.1 0.7-18.2 1v0.4C361.6 108.8 370.7 108.3 379.8 107.8z" class="A"/><path d="M391.8 164.6c0 0 8.6 7.3 7.5 14.7 -1 7.4-13.9 11.1-24-0.7C387 170.8 391.8 164.6 391.8 164.6z" class="B"/><path d="M375 179c3.5 4 8.1 7.5 13.6 7.9 3.6 0.3 7.8-0.7 10-3.8 4.5-6.4-1.7-14.9-6.5-19.2 -0.2-0.2-0.3-0.3-0.5-0.3 0 0 0 0 0 0 -0.1 0-0.2 0.1-0.3 0.2 -4.4 5.6-10.5 10-16.3 13.8C374.5 178 374.8 178.7 375 179zM376.5 178.9c5.5-3.7 11.4-8 15.6-13.2 4.2 3.8 9.7 11.6 4.9 16.6C391.1 188.6 381.6 184.1 376.5 178.9z" class="C"/><path d="M350.7 174c0 0-8.9 15.7-25.4 6 6.7-10.4 8.7-12.9 8.7-12.9L350.7 174z" class="B"/><path d="M325.3 180.8c5.9 3.4 13 4.6 19.1 0.9 2.7-1.7 5.3-4.1 7-6.9 0.1-0.1 0.1-0.3 0.1-0.5 0-0.4-0.3-0.9-0.6-1 0 0 0 0 0 0 -0.1-0.1-0.2-0.1-0.2-0.1 -5.5-2.3-11-4.5-16.5-6.8 -0.2-0.1-0.4-0.1-0.6 0.1 -3.3 4-5.9 8.6-8.7 12.9C324.4 179.8 324.9 180.5 325.3 180.8zM326.4 179.9c2.5-4 5-8.1 7.9-11.8 5 2.1 10.1 4.2 15.1 6.2 -1.4 2.1-3.4 4-5.5 5.3C338.4 183.3 332.2 182.8 326.4 179.9z" class="C"/><path d="M371.5 122.4c0 0-20.6-11.6-37.1 2.7 -5-7.9-19.1-7.1-10.5 7.7 -2.6 2.8-9 15.6-7 23.5 -6.3 1.5-17.9 9.3-12.7 21.9 5.2 12.6 25.2 7.8 29.7-3.7 8.3 2.8 14.3 2.1 14.3 2.1s0.4 15.8 15.4 18.5c15.9 2.9 24.5-8.1 13.4-18.8 3.8-1.5 16.3-9.5 17.7-18.3C385.8 149.9 371.5 122.4 371.5 122.4z" class="D"/><path d="M361.9 187.3c5.2-2.1 3.6-4.2 1-8.2 -2.7-4.1 3.8-5.7 4.3-5.9 2.8-0.7 6.3 0.4 9.4 2.5 11 10.6 2.4 21.6-13.5 18.7 -1-0.2-2-0.4-2.9-0.7C357 191.1 357.3 189.2 361.9 187.3z" class="B"/><path d="M363.2 119.8c0 0-0.2 6.9-6.1 6.2 -5.9-0.7-6.1-1.1-10.1 1.3 -3.9 2.4-8.2-0.7-8.5-3.8C344.6 119.6 353.2 117.6 363.2 119.8z" class="B"/><path d="M322.3 135.6c0 0 3.6-1.8 4.1 2.2 0.4 4-3.9 8.2-2.6 10.1 1.3 1.9 6.7 4.9 4 7.5 -2.7 2.6-7.6 2.3-10.6 0.9C315.2 144.9 322.3 135.6 322.3 135.6z" class="B"/><ellipse transform="matrix(-0.5216 0.8532 -0.8532 -0.5216 651.3741 -78.8633)" cx="347.8" cy="143.2" rx="4.5" ry="2.7" class="E"/><ellipse transform="matrix(-0.3852 0.9228 -0.9228 -0.3852 615.0638 -106.1703)" cx="342.9" cy="151.8" rx="3.1" ry="1.8" class="E"/><ellipse transform="matrix(-0.5142 0.8576 -0.8576 -0.5142 658.981 -71.4118)" cx="349.7" cy="150.9" rx="3.1" ry="1.8" class="E"/><ellipse transform="matrix(-0.5144 0.8575 -0.8575 -0.5144 639.2242 -71.4231)" cx="339.8" cy="145.3" rx="2.7" ry="1.6" class="E"/><path d="M321.6 126c-0.3-4.6 3.5-6 7.4-4.7C329.1 123.4 327.9 125.9 321.6 126z" class="B"/><path d="M325.1 170.1c0 0-7.5-0.6-6.1 5.9 -5 0-6.7 3-6.5 8.7 11.2 2.4 21-7.2 20.3-10.4C332.2 171.2 325.1 170.1 325.1 170.1z" class="B"/><path d="M327.3 167.9c4 6.2 13.2 8.5 20.5 7.9 0.7-0.1 1.5 1.6 0.6 1.7 -8 0.8-17.4-1.9-22.1-9C325.7 167.5 326.6 167 327.3 167.9L327.3 167.9z" class="C"/><path d="M311.6 185.7c6.6 2 14.4-0.4 19.2-5.2 1.2-1.2 2.4-2.6 3.1-4.2 0.2-0.3 0.3-0.6 0.4-0.9 0 0 1.8 0.6 1.9 0.6 1.3 0.4 2.7 0.7 4.1 0.9 2.3 0.4 4.8 0.7 7.2 0.6 0.8 8.4 6.6 16.3 15 18.2 5.9 1.3 14.9 1.3 18.6-4.5 3.2-5 0.6-10.4-3-14.4 5.7-2.5 11.5-7.3 14.8-12.5 0.9-1.5 1.8-3.1 2.2-4.8 0.3-1.5 0-1.8-1-2.9 -2.1-2.1-3.9-4.5-5.7-6.9 -6.2-8.7-11.6-18.1-16.5-27.6 -0.1-0.3-0.3-0.4-0.5-0.5 -11.6-6.5-26.8-6.1-37.2 2.4 -2.4-3.1-6.8-5.8-10.7-4.4 -5.4 2-2.5 9-0.5 12.8 -2.4 2.9-4 6.7-5.2 10.2 -1.4 4.1-2.5 8.6-1.7 12.9 -6.2 1.7-12.5 6.7-13.7 13.3C301.2 175.6 304.6 183.6 311.6 185.7zM305.7 165.3c2.6-3.9 6.9-7 11.5-8.1 0.3-0.1 0.4-0.4 0.3-0.7 -1.1-4.6 0.3-9.5 1.9-13.8 1.2-3.1 2.7-6.6 5-9.2 0.2-0.3 0-0.7-0.1-1 -1.6-2.8-4.9-9.7 0.1-11.2 3.5-1.1 7.5 1.3 9.4 4.1 0.1 0.2 0.6 0.8 1 0.5 10-8.5 24.9-9.2 36.3-2.9 2.6 5 5.4 10 8.4 14.9 4.2 6.9 8.5 14.5 14.4 20.2 -1.1 4.7-4.7 8.5-8.3 11.5 -2.8 2.3-5.8 4.5-9.1 5.9 -0.6 0.2 0 1.2 0.3 1.5 4 4 6.8 10.6 1.4 14.8 -4.9 3.8-12.4 3.8-18 1.7 -6.7-2.5-11.1-9.3-11.3-16.4 0-0.5-0.4-1.3-1-1.2 -4.7 0.5-9.7-0.6-14.1-2.1 -0.2-0.1-0.4 0.1-0.5 0.3 -2 4.7-6.4 8.2-11.2 9.8 -4.6 1.5-10.5 1.8-14.4-1.6C302.9 178 302.3 170.4 305.7 165.3z" class="C"/><path d="M420.7 107c0 0 7-7.3 11.5 9.5 5 18.5 16.3 33.1 3.8 50.1 -12.5 17-25.1 14.6-22 1.5 3.1-13.1 11.7-26.1 9.8-39.8C422 114.6 417.3 113.3 420.7 107z" class="D"/><path d="M427.4 166.8c2.2 0 4.1 0.8 5.6 2.1 -4.9 6.1-9.8 8.6-13.1 8.4 -0.3-0.9-0.5-1.8-0.5-2.8C419.3 170.3 422.9 166.8 427.4 166.8z" class="B"/><path d="M419.1 179.5c3.7 0.2 7.3-1.9 10-4.2 4.4-3.7 8.3-8.4 10.7-13.6 4.4-9.3 1.9-19.3-1.4-28.4 -2-5.5-4.1-11-5.7-16.6 -1-3.6-2.3-8-5.2-10.6 -2.2-1.9-5.2-2-7.3 0 -0.1 0-0.1 0.1-0.2 0.2 -0.1 0.1-0.1 0.2-0.1 0.3 -2.1 4.3-0.5 7.7 1 11.9 1.4 4.1 2.5 8.7 2.5 13 0 4.7-1 9.3-2.4 13.7 -1.5 4.6-3.3 9.1-4.9 13.6 -1.4 3.8-3 7.8-3.2 11.9C412.7 174.7 414.5 179.3 419.1 179.5zM416.7 161.9c3.7-10.7 9.5-21.8 7.8-33.5 -0.6-4.4-1.8-8.6-3.3-12.8 -1.1-2.9-1.4-5.1 0.1-8 0.7-0.7 2-1.4 3.2-1.4 3.8 0 5.6 5.3 6.5 8.2 1.9 6.2 4 12.3 6.2 18.4 2 5.4 3.9 11.2 3.9 17 0 5.9-2.1 11.4-5.6 16.1 -3.2 4.3-7.1 8.8-12.1 10.9 -2.6 1.1-6.9 1.9-8.4-1.3C412.9 171.5 415.4 165.8 416.7 161.9z" class="C"/><path d="M378.7 149.1c14.5 16.9 38.2 22.1 53.1 11.6 14.8-10.5 15.1-32.7 0.6-49.6 -14.5-16.9-38.3-22.1-53.1-11.6C364.4 110 364.2 132.2 378.7 149.1z" class="D"/><path d="M429.4 109.9c-5.8-6.8-13.2-11.7-20.8-14.5 8.4 2.6 16.6 7.7 23 15.2 14.5 16.9 14.3 39.1-0.6 49.6C443.3 147.5 443.9 126.8 429.4 109.9z" fill="#AA6927"/><path d="M414.4 98.5c0.3 1.1 0.4 2.1 0.4 3.3 0 8.1-7.9 14.7-17.7 14.7 -9.8 0-17.7-6.6-17.7-14.7 0-0.5 0-1 0.1-1.4 0 0 0 0 0.1 0C389.1 93.6 402.3 93.3 414.4 98.5z" class="B"/><path d="M381.3 124.8c-3.7 5.7-3.2 16.1 3.3 20.3 6.5 4.2 21.2 3.7 24.4-2.3 5.1-9.8-3-9-9.4-13.2C393.1 125.5 385 119.2 381.3 124.8z" class="B"/><path d="M367.3 122.6c0.3 10 4.6 19.4 11 27 3.3 3.9 7.2 7.3 11.5 10 14.5 9.1 37 11.7 48.4-3.9 11.9-16.3 2.8-38.7-11-50.6 -13.1-11.2-35.1-17.6-49.7-5.4C370.6 105.3 367 113.8 367.3 122.6zM368.7 121.7c0.3-8.4 4-16.5 11-21.4 14.5-10.1 34.6-4.8 47.1 6.1 8.3 7.2 14.7 17.5 15.4 28.7 0.6 9.6-2.9 19.2-11 24.8 -16.9 11.7-39.9 2.9-52.2-11.3C372.7 141.2 368.3 131.6 368.7 121.7z" class="C"/><path d="M416.3 96.9c2.1-1.9 5.1-0.1 6.5 1.3 1.5 1.5 4.9-2.1 3.3-3.6 -3.5-3.3-8.4-3.2-12.3 0.3 -0.7 0.7-1.2 2.1-0.4 2.8C414.3 98.5 415.6 97.6 416.3 96.9z" class="e"/><path d="M395.7 101.4c-2.6 0-3.7 3.4-3.9 5.3 -0.2 2.1-4.8 1.7-4.6-0.5 0.5-4.8 4-8 8.9-8 0.9 0 2.2 0.8 2 1.8C398.1 101.3 396.7 101.5 395.7 101.4z" class="e"/><path d="M393.7 148.6c2.7 6.3 10.7 14.6 18.9 18 -1.4 0.1-3.4-0.1-5-0.4 -6-2.4-13.7-11.7-16.2-17.7C391 147.5 393.4 147.8 393.7 148.6z" class="C"/><path d="M396.3 147.8c-2.5-0.1-4.6 1.3-4.9 3.8 -0.1 1-2.8 0.2-2.6-0.9 0.5-3.2 3.6-4.8 6.7-4.7 0.6 0 1.4 0.3 1.7 0.9C397.4 147.5 396.8 147.8 396.3 147.8L396.3 147.8z" class="C"/><path d="M431.9 145.2c2.7 5.7 2.1 12.9-2.2 17.7 -0.9 1-3.2 0.3-2.4-0.5 3.7-4.2 4.6-12.9 2.2-17.9 -0.8-1.8 1.3-1.5 1.9-0.2L431.9 145.2z" class="C"/><path d="M437.3 129.5c-10.6-2-18.6 1.3-24.2 10.6 2.1 3.3 11.3 5.8 18.2 5.1C434.8 140.9 438 134.3 437.3 129.5z" fill="#472B15"/><path d="M426 131c0 0-7.5 5.9-7 9.1 -2.9 0.3-3.7-0.9-3.7-0.9S417.3 135.3 426 131z" fill="#643C1B"/><path d="M377.2 105.1c0 0-5.3-6-9.7 12.7 -4.4 18.7-16.3 33.1-3.8 50.1 12.5 17 25.1 14.6 22 1.5 -3.1-13.1-11.7-26.1-9.8-39.8C377.7 115.8 380.6 111.4 377.2 105.1z" class="D"/><path d="M363.7 167c-10.9-15.8-1.1-29.3 3.6-46.3C361.3 146.4 371.5 149.6 363.7 167z" class="B"/><path d="M361.9 166.3c2.9 4.4 6.5 8.7 10.9 11.7 2.6 1.7 6.1 3.6 9.3 2.7 7.9-2 3.8-13.2 2.1-18.1 -2-5.7-4.4-11.2-6.1-17 -1.9-6.5-2.2-12.6-1.1-19.2 1.2-7 4.2-14.6 0.7-21.4 0-0.1-0.1-0.2-0.1-0.3 -0.1-0.1-0.2-0.3-0.3-0.3 -1-1-2.5-1.4-3.8-0.8 -1.7 0.8-2.8 2.6-3.5 4.1 -1.8 3.7-2.6 7.6-3.7 11.5 -2.3 8.5-6.3 16.5-8.1 25.1C356.7 152 357.6 159.6 361.9 166.3zM360.5 141.9c1.5-5.3 3.6-10.3 5.3-15.5 1.8-5.3 2.6-11 4.8-16.1 0.8-1.8 2.2-5.1 4.6-5.2 0.5 0 0.9 0.1 1.4 0.3 0 0 0.1 0.1 0.2 0.2 1.9 3.8 1.2 7.8 0.4 11.9 -1.2 5.9-2.7 12-2.2 18.1 0.5 6.4 2.6 12.4 4.8 18.3 1.2 3.2 2.4 6.3 3.5 9.5 1 2.9 2.1 5.9 2.2 9 0.1 3-1.1 6.3-4.6 6.7 -4.2 0.4-8.2-2.5-11.1-5.2 -4.6-4.3-9-9.9-10.3-16.3C358.3 152.3 359 147 360.5 141.9z" class="C"/><ellipse cx="393.5" cy="133.4" rx="4" ry="2.4" class="E"/><ellipse cx="388.3" cy="139.9" rx="2.8" ry="1.6" class="E"/><ellipse cx="395.6" cy="138.3" rx="1.8" ry="1.1" class="E"/><path d="M402.4 136.2c5.5 1.3 18.6-0.3 18.5-14.8 0-15.1-10-23.1-19.7-20.4C390.6 103.9 383.7 131.6 402.4 136.2z" class="f"/><ellipse cx="415" cy="125.1" rx="3.6" ry="4.8" class="e"/><ellipse cx="416" cy="121.5" rx="1.3" ry="1.7" class="f"/><path d="M420.8 122.9c2.2 1.6 11 4 13.9-4.4 3.1-9.1-9.6-23.5-17.6-19.4C410.3 102.6 414.8 118.7 420.8 122.9z" class="f"/><ellipse transform="matrix(0.5984 -0.8012 0.8012 0.5984 75.1387 388.2064)" cx="424.8" cy="119.1" rx="2.9" ry="3.9" class="e"/><ellipse transform="matrix(0.1671 -0.9859 0.9859 0.1671 234.5277 516.1552)" cx="422.7" cy="119.3" rx="1.3" ry="1.7" class="f"/><path d="M322.3 135.6c0 0 3.6-1.8 4.1 2.2 0.4 4-3.9 8.2-2.6 10.1 1.3 1.9 6.7 4.9 4 7.5 -2.7 2.6-7.6 2.3-10.6 0.9C315.2 144.9 322.3 135.6 322.3 135.6L322.3 135.6z" class="B"/><path d="M321.6 126c-0.3-4.6 3.5-6 7.4-4.7C329.1 123.4 327.9 125.8 321.6 126L321.6 126z" class="B"/><path d="M325.1 170.1c0 0-7.5-0.6-6.1 5.9 -5 0-6.7 3-6.5 8.7 11.2 2.4 21-7.2 20.3-10.4C332.2 171.2 325.1 170.1 325.1 170.1L325.1 170.1z" class="B"/><path d="M334.4 175.4c0 0 0.4 0.1 0.8 0.2 0.8 2.1 1.7 4.2 2.8 6.4 -0.8 0.1-1.6 0.2-2.5 0.2 -1.8 0-3.7-0.3-5.5-0.9 0.3-0.2 0.5-0.5 0.8-0.8 1.2-1.2 2.4-2.6 3.2-4.2C334.1 176 334.3 175.7 334.4 175.4 334.4 175.4 334.4 175.4 334.4 175.4L334.4 175.4z" class="F"/><path d="M330 181.3c1.8 0.6 3.7 0.9 5.5 0.9 0.8 0 1.6-0.1 2.5-0.2 0.3 0.6 0.6 1.2 0.9 1.7 -0.9 0.1-1.8 0.2-2.7 0.2 -2.5 0-5.1-0.6-7.6-1.6C329.1 182.1 329.6 181.7 330 181.3L330 181.3z" class="G"/><path d="M332.9 174.5c0 0.1 0 0.1 0 0.2 0 0 0-0.1 0.1-0.1C332.9 174.5 332.9 174.5 332.9 174.5L332.9 174.5zM329 121.5c0 2-1.3 4.3-7.1 4.4 0.3 2.4 1.6 5.1 2.5 6.6 0.1 0.2 0.3 0.7 0.1 1 -0.5 0.6-1 1.2-1.4 1.8 0.3-0.1 0.6-0.1 1-0.1 1 0 2.1 0.5 2.3 2.6 0.4 4-3.9 8.2-2.6 10.1 1.3 1.9 6.7 4.9 4 7.5 -1.5 1.4-3.5 2-5.6 2 -1.6 0-3.2-0.3-4.5-0.9 0 0.3-0.1 0.5-0.4 0.6 -4.6 1.2-8.9 4.2-11.5 8.1 -3.4 5.1-2.7 12.7 2 16.8 1.4 1.2 3.1 2 4.9 2.3 -0.1-5.5 1.6-8.4 6.5-8.4 -1.2-5.4 3.9-5.9 5.6-5.9 0.3 0 0.5 0 0.5 0s1.4 0.2 3 0.7c-0.7-0.7-1.3-1.5-1.8-2.3 -0.4-0.6-0.1-1.1 0.2-1.1 0.2 0 0.5 0.1 0.7 0.5 1.7 2.6 4.2 4.5 7.2 5.8 -6.8-19.7-2.3-36.2 4.8-48.4 -0.4-0.6-0.6-1.2-0.6-1.8 0.9-0.5 1.8-1.1 2.7-1.5 0-0.1 0.1-0.1 0.1-0.2 -2.3 1.1-4.6 2.5-6.6 4.2 -0.1 0.1-0.1 0.1-0.2 0.1 -0.3 0-0.6-0.4-0.8-0.6C332.8 123.8 331 122.3 329 121.5L329 121.5z" fill="#864A19"/><path d="M341.3 121.9c-0.7 1.1-1.4 2.2-2.1 3.4 -0.4-0.6-0.6-1.2-0.6-1.8C339.4 122.9 340.3 122.4 341.3 121.9L341.3 121.9z" class="F"/><path d="M324 135.2c1 0 2.1 0.5 2.3 2.6 0.4 4-3.9 8.2-2.6 10.1 1.3 1.9 6.7 4.9 4 7.5 -1.5 1.4-3.5 2-5.6 2 -1.6 0-3.2-0.3-4.5-0.9 0 0 0 0 0-0.1 -1.1-4.6 0.3-9.5 1.9-13.8 1-2.4 2-5.1 3.6-7.3C323.3 135.3 323.7 135.2 324 135.2L324 135.2z" class="F"/><path d="M326.3 121c0.9 0 1.8 0.2 2.7 0.5 0 2-1.3 4.3-7.1 4.4 -0.3-2.1 0.3-3.9 2.6-4.7C325.1 121.1 325.7 121 326.3 121L326.3 121z" class="F"/><path d="M324.6 170.1c0.3 0 0.5 0 0.5 0s1.4 0.2 3 0.7c1.4 1.5 3 2.7 4.8 3.7 0 0.1 0 0.1 0 0.2 -2.1 4.3-6.3 7.5-10.8 9 -2 0.7-4.2 1.1-6.4 1.1 -1.1 0-2.1-0.1-3.2-0.3 -0.1-5.5 1.6-8.4 6.5-8.4C317.8 170.5 322.9 170.1 324.6 170.1L324.6 170.1z" class="F"/><path d="M326.5 167.4c0.2 0 0.5 0.1 0.7 0.5 1.7 2.6 4.2 4.5 7.2 5.8 0 0 0 0.1 0 0.1 -0.3-0.1-0.5-0.2-0.8-0.2 0 0-0.1 0-0.1 0 -0.2 0-0.3 0.1-0.4 0.3 -0.1 0.2-0.2 0.5-0.3 0.7 0 0 0 0-0.1 0 -1.8-1-3.4-2.2-4.8-3.7 -0.7-0.7-1.3-1.5-1.8-2.3C325.9 167.9 326.1 167.4 326.5 167.4L326.5 167.4z" class="G"/><path d="M343.4 118.9c-0.7 0.9-1.3 1.8-1.9 2.8 -2.3 1.1-4.6 2.5-6.6 4.2 -0.1 0.1-0.1 0.1-0.2 0.1 -0.3 0-0.6-0.4-0.8-0.6 -1.1-1.7-2.9-3.1-4.9-3.9 -0.9-0.3-1.8-0.5-2.7-0.5 -0.6 0-1.2 0.1-1.8 0.3 -2.3 0.7-2.8 2.6-2.6 4.7 0.3 2.4 1.6 5.1 2.5 6.6 0.1 0.2 0.3 0.7 0.1 1 -0.5 0.6-1 1.2-1.4 1.8 -1.5 2.3-2.6 4.9-3.6 7.3 -1.7 4.3-3 9.2-1.9 13.8 0 0 0 0 0 0.1 0 0.3-0.1 0.5-0.4 0.6 -4.6 1.2-8.9 4.2-11.5 8.1 -3.4 5.1-2.7 12.7 2 16.8 1.4 1.2 3.1 2 4.9 2.3 1 0.2 2.1 0.3 3.2 0.3 2.2 0 4.4-0.4 6.4-1.1 4.5-1.5 8.7-4.7 10.8-9 0 0 0-0.1 0.1-0.1 0.1-0.2 0.2-0.5 0.3-0.7 0.1-0.2 0.2-0.3 0.4-0.3 0 0 0.1 0 0.1 0 0.3 0.1 0.5 0.2 0.8 0.3 0.2 0.6 0.4 1.2 0.7 1.8 -0.4-0.1-0.8-0.2-0.8-0.2 0 0 0 0 0 0 -0.1 0.3-0.3 0.6-0.4 0.9 -0.8 1.6-1.9 3-3.1 4.2 -0.3 0.3-0.5 0.5-0.8 0.8 -0.4 0.4-0.9 0.8-1.4 1.1 -3.4 2.5-7.8 4-12.1 4 -1.7 0-3.4-0.2-5-0.7 -7-2.1-10.4-10.1-9.1-16.9 1.2-6.5 7.5-11.6 13.7-13.3 -0.8-4.3 0.3-8.8 1.7-12.9 1.2-3.5 2.8-7.3 5.2-10.2 -2-3.7-4.9-10.8 0.5-12.8 0.8-0.3 1.5-0.4 2.3-0.4 3.2 0 6.5 2.3 8.4 4.8C337 121.8 340.1 120.1 343.4 118.9L343.4 118.9z" class="G"/><polygon points="221.1 164.4 188.2 126 189.3 125 222.2 163.4 " class="H"/><path d="M207.8 151.1c0 0-8-12.6-20.9 0.9C192.2 157.8 200.7 163.2 207.8 151.1z" class="I"/><path d="M212 149.6c0 0-11.2-9.9 4.1-20.5C221 135.2 225 144.5 212 149.6z" class="I"/><path d="M187.8 151.2c-0.3 0.3-0.5 0.5-0.8 0.8 5.1 5.7 13.5 10.9 20.5-0.3C203.9 151.2 194.5 150.1 187.8 151.2z" class="H"/><path d="M215.1 129.8c0.3-0.2 0.6-0.4 0.9-0.7 4.8 5.9 8.7 15-3.5 20.2C212.7 145.7 213 136.3 215.1 129.8z" class="H"/><path d="M206.3 112.5c-1.3-4.4-8.7-1.2-11.6 0.8 0 0 6.9-6.7 2.1-10.5 -4.8-3.8-8.9 4.1-10.2 7.3 -3.1-5.8-5.9-10.5-10.4-7.5 -4.5 2.9 2.1 11.6 2.1 11.6s-9.1-7.6-11.3-3.3c-2.6 5.1 4.1 7.5 8.2 9.2 -6.1 0.6-11 1-10.4 5.6 0.7 4.6 7.6 2.6 13.1 0.9 -5.5 5.4-7.7 8.1-5.1 10.6 2.6 2.5 9.2-0.5 11-6.3 0.1 4.7-0.2 7.8 3.7 7.9 3.9 0.1 5.7-5.4 3.5-10.9 5.4 4.3 11.4 4.5 12 0.2 0.7-4.3-4.2-6.6-8.1-6" class="J"/><circle cx="185.2" cy="120.5" r="7.5" class="t"/><polygon points="552.2 158.3 581.7 117.3 582.9 118.2 553.4 159.2 " class="H"/><path d="M561.9 142.3c0 0 10.3-10.8-5.8-20.1C551.7 128.6 548.5 138.2 561.9 142.3z" class="I"/><path d="M564.3 146c0 0 6.9-13.2 20.9-0.8C580.5 151.3 572.4 157.4 564.3 146z" class="I"/><path d="M557.1 122.9c-0.3-0.2-0.6-0.4-1-0.6 -4.3 6.3-7.5 15.7 5.1 19.8C560.9 138.5 559.8 129.1 557.1 122.9z" class="H"/><path d="M584.3 144.4c0.3 0.2 0.6 0.5 0.9 0.7 -4.6 6.1-12.5 12-20.4 1.4C568.3 145.7 577.6 143.8 584.3 144.4z" class="H"/><path d="M595.6 120.6c0 0 8.1 5.1 10.6-0.5 2.5-5.6-6-7.7-9.5-8.2 4.9-4.4 8.8-8.2 4.9-11.9 -3.9-3.6-10.8 4.7-10.8 4.7s5.2-10.7 0.6-11.8c-5.6-1.4-6.3 5.7-7 10.1 -2-5.8-3.6-10.5-7.8-8.8 -4.3 1.7-0.7 8 2.2 12.9 -6.6-4.1-9.7-5.5-11.5-2.4 -1.8 3.1 2.6 8.8 8.8 9.2 -4.5 1.2-7.6 1.6-6.8 5.4 0.8 3.8 6.6 4.2 11.4 0.8 -2.9 6.2-1.7 12.1 2.7 11.7 4.3-0.4 5.4-5.7 3.9-9.3 4 5.8 8.2 11.2 12.1 8.9C603 129.5 598.2 122.9 595.6 120.6z" class="J"/><circle cx="586.4" cy="113" r="7.5" class="t"/></svg>