<svg xmlns="http://www.w3.org/2000/svg" viewBox="0 0 768 430"><style>.a{fill:#FFF;}.b{fill:#C6C8CA;}.c{fill:#A8E1F7;}.d{fill:#DCDDDE;}.e{fill:#D55769;}.f{fill:#F66579;}.g{fill:#FFB741;}.h{fill:#FFCA43;}.i{fill:#008C4D;}.j{fill:#00A65A;}.k{fill:#FB923A;}.l{fill:#FC9C48;}.m{fill:#FDA65A;}.n{fill:#A56121;}.o{fill:#925419;}.p{fill:#FFDC46;}.q{fill:#F567A3;}.r{fill:#F890BA;}.s{fill:#F67DAE;}.t{fill:#719989;}.u{fill:#B1B3B6;}.v{fill:#98CAB4;}.w{fill:#D1D3D4;}.x{fill:#A7A9AC;}.y{fill:#414042;}.z{fill:#E6E7E8;}.A{fill:#939598;}.B{fill:#6D6F71;}.C{fill:#E4DCCB;}.D{fill:#BDB7AB;}.E{fill:#BCBEC0;}.F{fill:#808284;}.G{fill:#636466;}.H{fill:#CF7A2F;}.I{fill:none;}.J{fill:#4D4D4F;}.K{fill:#77787B;}.L{fill:#58595B;}.M{fill:#E26C4C;}.N{fill:#EA9377;}.O{fill:#9C857A;}.P{fill:#FEAF54;}.Q{fill:#FFFAC8;}</style><rect x="151.2" y="48.2" width="464.3" height="328.3" fill="#D7E6DD"/><path d="M615.5 76v-1h-26.1V48.2h-1v26.9h-26.4V48.2h-1v26.9h-26.4V48.2h-1v26.9h-26.4V48.2h-1v26.9h-26.4V48.2h-1v26.9h-26.4V48.2h-1v26.9h-26.4V48.2h-1v26.9h-26.4V48.2h-1v26.9H370.5V48.2h-1v26.9h-26.4V48.2h-1v26.9h-26.4V48.2h-1v26.9h-26.4V48.2h-1v26.9h-26.4V48.2h-1v26.9h-26.4V48.2h-1v26.9h-26.4V48.2h-1v26.9h-26.4V48.2h-1v26.9h-26.9v1h26.9v26.4h-26.9v1h26.9v26.4h-26.9v1h26.9v26.4h-26.9v1h26.9v26.4h-26.9v1h26.9v26.4h-26.9v1h26.9v26.4h-26.9v1h26.9v26.4h-26.9v1h26.9v26.4h-26.9v1h26.9v26.4h-26.9v1h26.9v26.4h-26.9v1h26.9V376.5h1v-26.9h26.4V376.5h1v-26.9h26.4V376.5h1v-26.9h26.4V376.5h1v-26.9h26.4V376.5h1v-26.9h26.4V376.5h1v-26.9h26.4V376.5h1v-26.9h26.4V376.5h1v-26.9h26.4V376.5h1v-26.9h26.4V376.5h1v-26.9h26.4V376.5h1v-26.9h26.4V376.5h1v-26.9h26.4V376.5h1v-26.9h26.4V376.5h1v-26.9h26.4V376.5h1v-26.9h26.4V376.5h1v-26.9H615.5v-1h-26.1v-26.4H615.5v-1h-26.1v-26.4H615.5v-1h-26.1v-26.4H615.5v-1h-26.1v-26.4H615.5v-1h-26.1v-26.4H615.5v-1h-26.1v-26.4H615.5v-1h-26.1v-26.4H615.5v-1h-26.1v-26.4H615.5v-1h-26.1v-26.4H615.5v-1h-26.1V76H615.5zM561.1 76v26.4h-26.4V76H561.1zM424.3 211.9h-26.4v-26.4h26.4V211.9zM425.2 185.5h26.4v26.4h-26.4V185.5zM396.9 211.9H370.5v-26.4h26.4V211.9zM369.6 211.9h-26.4v-26.4h26.4V211.9zM342.2 211.9h-26.4v-26.4h26.4V211.9zM314.8 211.9h-26.4v-26.4h26.4V211.9zM314.8 212.8v26.4h-26.4v-26.4H314.8zM315.8 212.8h26.4v26.4h-26.4V212.8zM343.2 212.8h26.4v26.4h-26.4V212.8zM370.5 212.8h26.4v26.4H370.5V212.8zM397.9 212.8h26.4v26.4h-26.4V212.8zM425.2 212.8h26.4v26.4h-26.4V212.8zM452.6 212.8h26.4v26.4h-26.4V212.8zM452.6 211.9v-26.4h26.4v26.4H452.6zM452.6 184.5v-26.4h26.4v26.4H452.6zM451.6 184.5h-26.4v-26.4h26.4V184.5zM424.3 184.5h-26.4v-26.4h26.4V184.5zM396.9 184.5H370.5v-26.4h26.4V184.5zM369.6 184.5h-26.4v-26.4h26.4V184.5zM342.2 184.5h-26.4v-26.4h26.4V184.5zM314.8 184.5h-26.4v-26.4h26.4V184.5zM287.5 184.5h-26.4v-26.4h26.4V184.5zM287.5 185.5v26.4h-26.4v-26.4H287.5zM287.5 212.8v26.4h-26.4v-26.4H287.5zM287.5 240.2v26.4h-26.4v-26.4H287.5zM288.4 240.2h26.4v26.4h-26.4V240.2zM315.8 240.2h26.4v26.4h-26.4V240.2zM343.2 240.2h26.4v26.4h-26.4V240.2zM370.5 240.2h26.4v26.4H370.5V240.2zM397.9 240.2h26.4v26.4h-26.4V240.2zM425.2 240.2h26.4v26.4h-26.4V240.2zM452.6 240.2h26.4v26.4h-26.4V240.2zM480 240.2h26.4v26.4h-26.4V240.2zM480 239.2v-26.4h26.4v26.4H480zM480 211.9v-26.4h26.4v26.4H480zM480 184.5v-26.4h26.4v26.4H480zM480 157.1v-26.4h26.4v26.4H480zM479 157.1h-26.4v-26.4h26.4V157.1zM451.6 157.1h-26.4v-26.4h26.4V157.1zM424.3 157.1h-26.4v-26.4h26.4V157.1zM396.9 157.1H370.5v-26.4h26.4V157.1zM369.6 157.1h-26.4v-26.4h26.4V157.1zM342.2 157.1h-26.4v-26.4h26.4V157.1zM314.8 157.1h-26.4v-26.4h26.4V157.1zM287.5 157.1h-26.4v-26.4h26.4V157.1zM260.1 157.1h-26.4v-26.4h26.4V157.1zM260.1 158.1v26.4h-26.4v-26.4H260.1zM260.1 185.5v26.4h-26.4v-26.4H260.1zM260.1 212.8v26.4h-26.4v-26.4H260.1zM260.1 240.2v26.4h-26.4v-26.4H260.1zM260.1 267.5v26.4h-26.4v-26.4H260.1zM261.1 267.5h26.4v26.4h-26.4V267.5zM288.4 267.5h26.4v26.4h-26.4V267.5zM315.8 267.5h26.4v26.4h-26.4V267.5zM343.2 267.5h26.4v26.4h-26.4V267.5zM370.5 267.5h26.4v26.4H370.5V267.5zM397.9 267.5h26.4v26.4h-26.4V267.5zM425.2 267.5h26.4v26.4h-26.4V267.5zM452.6 267.5h26.4v26.4h-26.4V267.5zM480 267.5h26.4v26.4h-26.4V267.5zM507.3 267.5h26.4v26.4h-26.4V267.5zM507.3 266.6v-26.4h26.4v26.4H507.3zM507.3 239.2v-26.4h26.4v26.4H507.3zM507.3 211.9v-26.4h26.4v26.4H507.3zM507.3 184.5v-26.4h26.4v26.4H507.3zM507.3 157.1v-26.4h26.4v26.4H507.3zM507.3 129.8v-26.4h26.4v26.4H507.3zM506.4 129.8h-26.4v-26.4h26.4V129.8zM479 129.8h-26.4v-26.4h26.4V129.8zM451.6 129.8h-26.4v-26.4h26.4V129.8zM424.3 129.8h-26.4v-26.4h26.4V129.8zM396.9 129.8H370.5v-26.4h26.4V129.8zM369.6 129.8h-26.4v-26.4h26.4V129.8zM342.2 129.8h-26.4v-26.4h26.4V129.8zM314.8 129.8h-26.4v-26.4h26.4V129.8zM287.5 129.8h-26.4v-26.4h26.4V129.8zM260.1 129.8h-26.4v-26.4h26.4V129.8zM232.8 129.8h-26.4v-26.4h26.4V129.8zM232.8 130.7v26.4h-26.4v-26.4H232.8zM232.8 158.1v26.4h-26.4v-26.4H232.8zM232.8 185.5v26.4h-26.4v-26.4H232.8zM232.8 212.8v26.4h-26.4v-26.4H232.8zM232.8 240.2v26.4h-26.4v-26.4H232.8zM232.8 267.5v26.4h-26.4v-26.4H232.8zM232.8 294.9v26.4h-26.4v-26.4H232.8zM233.7 294.9h26.4v26.4h-26.4V294.9zM261.1 294.9h26.4v26.4h-26.4V294.9zM288.4 294.9h26.4v26.4h-26.4V294.9zM315.8 294.9h26.4v26.4h-26.4V294.9zM343.2 294.9h26.4v26.4h-26.4V294.9zM370.5 294.9h26.4v26.4H370.5V294.9zM397.9 294.9h26.4v26.4h-26.4V294.9zM425.2 294.9h26.4v26.4h-26.4V294.9zM452.6 294.9h26.4v26.4h-26.4V294.9zM480 294.9h26.4v26.4h-26.4V294.9zM507.3 294.9h26.4v26.4h-26.4V294.9zM534.7 294.9h26.4v26.4h-26.4V294.9zM534.7 293.9v-26.4h26.4v26.4H534.7zM534.7 266.6v-26.4h26.4v26.4H534.7zM534.7 239.2v-26.4h26.4v26.4H534.7zM534.7 211.9v-26.4h26.4v26.4H534.7zM534.7 184.5v-26.4h26.4v26.4H534.7zM534.7 157.1v-26.4h26.4v26.4H534.7zM534.7 129.8v-26.4h26.4v26.4H534.7zM533.7 76v26.4h-26.4V76H533.7zM506.4 76v26.4h-26.4V76H506.4zM479 76v26.4h-26.4V76H479zM451.6 76v26.4h-26.4V76H451.6zM424.3 76v26.4h-26.4V76H424.3zM396.9 76v26.4H370.5V76H396.9zM369.6 76v26.4h-26.4V76H369.6zM342.2 76v26.4h-26.4V76H342.2zM314.8 76v26.4h-26.4V76H314.8zM287.5 76v26.4h-26.4V76H287.5zM260.1 76v26.4h-26.4V76H260.1zM232.8 76v26.4h-26.4V76H232.8zM179 76h26.4v26.4h-26.4V76zM179 103.4h26.4v26.4h-26.4V103.4zM179 130.7h26.4v26.4h-26.4V130.7zM179 158.1h26.4v26.4h-26.4V158.1zM179 185.5h26.4v26.4h-26.4V185.5zM179 212.8h26.4v26.4h-26.4V212.8zM179 240.2h26.4v26.4h-26.4V240.2zM179 267.5h26.4v26.4h-26.4V267.5zM179 294.9h26.4v26.4h-26.4V294.9zM179 348.7v-26.4h26.4v26.4H179zM206.4 348.7v-26.4h26.4v26.4H206.4zM233.7 348.7v-26.4h26.4v26.4H233.7zM261.1 348.7v-26.4h26.4v26.4H261.1zM288.4 348.7v-26.4h26.4v26.4H288.4zM315.8 348.7v-26.4h26.4v26.4H315.8zM343.2 348.7v-26.4h26.4v26.4H343.2zM370.5 348.7v-26.4h26.4v26.4H370.5zM397.9 348.7v-26.4h26.4v26.4H397.9zM425.2 348.7v-26.4h26.4v26.4H425.2zM452.6 348.7v-26.4h26.4v26.4H452.6zM480 348.7v-26.4h26.4v26.4H480zM507.3 348.7v-26.4h26.4v26.4H507.3zM534.7 348.7v-26.4h26.4v26.4H534.7zM588.4 348.7h-26.4v-26.4h26.4V348.7zM588.4 321.3h-26.4v-26.4h26.4V321.3zM588.4 293.9h-26.4v-26.4h26.4V293.9zM588.4 266.6h-26.4v-26.4h26.4V266.6zM588.4 239.2h-26.4v-26.4h26.4V239.2zM588.4 211.9h-26.4v-26.4h26.4V211.9zM588.4 184.5h-26.4v-26.4h26.4V184.5zM588.4 157.1h-26.4v-26.4h26.4V157.1zM588.4 129.8h-26.4v-26.4h26.4V129.8zM588.4 102.4h-26.4V76h26.4V102.4z" class="a"/><rect x="328" y="153.5" width="160.6" height="64.1" class="a"/><rect x="333.3" y="158.7" width="76.7" height="58.8" class="b"/><rect x="336" y="161.5" width="71.3" height="53.3" class="c"/><rect x="406.6" y="158.7" width="76.7" height="58.8" class="d"/><rect x="409.4" y="161.5" width="71.3" height="53.3" class="c"/><path d="M342.5 190.9c0 0 1.2-3.9 2.1-5.3C345.5 184.3 343.1 183 342.5 190.9z" class="e"/><path d="M342.5 190.9c0 0 0.7-4.9 0.5-5.2 -0.1-0.3-1.3-0.5-1.1 1.2C342.1 188.6 342.5 190.9 342.5 190.9z" class="f"/><path d="M342.5 190.9c0 0-0.7-4.4-1-4.6 -0.3-0.2-1.3-0.1-1.1 0.7C340.5 187.9 342.5 190.9 342.5 190.9z" class="e"/><path d="M342.5 190.9c0 0-2-2.9-2.4-3.2s-1.3 0-1.1 0.5C339.2 188.8 342.5 190.9 342.5 190.9z" class="f"/><path d="M342.5 190.9c0 0-3.3-1.9-3.8-2 -0.5-0.1-1.3 0.2-1 0.8C338 190.4 339.9 190 342.5 190.9z" class="f"/><path d="M342.5 190.9c0 0-4.6-1.1-5.4 0 -0.9 1.1 0.2 0.9 1.1 0.7C339.1 191.3 342.5 190.9 342.5 190.9z" class="e"/><path d="M342.5 190.9c0 0-3.7 0.2-4.3 1.1 -0.6 0.9-0.6 1.4 0.1 1C339.1 192.7 339.6 191.8 342.5 190.9z" class="f"/><path d="M342.5 190.9c0 0 1.1-4 2.2-4.5 1.1-0.5 0.8 0.6 0.4 1C344.8 187.8 342.5 190.9 342.5 190.9z" class="f"/><path d="M358.2 193.3c0 0-1.1-4-1.9-5.4C355.5 186.6 357.9 185.3 358.2 193.3z" class="g"/><path d="M358.2 193.3c0 0-0.4-5-0.3-5.3 0.1-0.3 1.3-0.5 1 1.3C358.7 191 358.2 193.3 358.2 193.3z" class="h"/><path d="M358.2 193.3c0 0 0.9-4.4 1.2-4.6 0.3-0.2 1.3 0 1.1 0.8C360.3 190.4 358.2 193.3 358.2 193.3z" class="g"/><path d="M358.2 193.3c0 0 2.2-2.8 2.6-3.1 0.4-0.3 1.3 0.1 1.1 0.6C361.6 191.3 358.2 193.3 358.2 193.3z" class="h"/><path d="M358.2 193.3c0 0 3.4-1.8 3.9-1.8 0.5 0 1.3 0.3 1 0.9C362.8 192.9 360.8 192.5 358.2 193.3z" class="g"/><path d="M358.2 193.3c0 0 4.6-0.9 5.4 0.2 0.8 1.1-0.2 0.9-1.1 0.6C361.6 193.9 358.2 193.3 358.2 193.3z" class="h"/><path d="M358.2 193.3c0 0 3.7 0.4 4.2 1.3 0.6 0.9 0.5 1.4-0.2 1C361.5 195.3 361.1 194.3 358.2 193.3z" class="g"/><path d="M358.2 193.3c0 0-0.9-4.1-2-4.6 -1.1-0.5-0.8 0.6-0.5 1C356.1 190.1 358.2 193.3 358.2 193.3z" class="h"/><path d="M350.7 206.2c-1.5-13.9-5.7-27.2-5.7-27.4 -0.1-0.2-0.2-0.3-0.4-0.2 -0.2 0.1-0.3 0.3-0.2 0.4 0.1 0.2 4 13.1 5.6 26.7 0.2 0.9 0.4 1.8 0.6 2.8C350.6 207.6 350.6 206.9 350.7 206.2z" class="i"/><path d="M351 211.2c0 0.1 0 0.1 0 0.2h0.1c0-0.2 0-0.4 0-0.5C351 210.9 351 211 351 211.2z" class="i"/><path d="M351.5 206.5c1.8-13 5.6-25 5.7-25.2 0.1-0.2 0-0.4-0.2-0.4 -0.2-0.1-0.4 0-0.4 0.2 0 0.1-3.1 9.7-5 21 0 1.5-0.1 3.3-0.2 5.1C351.4 207 351.4 206.7 351.5 206.5z" class="i"/><path d="M350.3 210.3c-0.1-1.6-0.3-3.1-0.4-4.7 -2-8.2-5.6-13.3-6.6-14.6 0-0.2 0-0.4 0-0.5 -0.1-0.4 0.1-1 0.1-1s-0.5-0.2-0.5 0 0 0.4-0.3 0.2c-0.4-0.2-0.5-0.2-0.4 0.1 0.1 0.3 0.1 0.3-0.1 0.3 -0.2 0-0.3 0.1-0.2 0.4 0.1 0.3 0.2 0.3-0.1 0.3 -0.2 0-0.4 0.2-0.4 0.2s-0.4 0.1-0.4 0.3c0 0.2 1 0.1 2.1 0.5 1.5 2 5.9 8.9 7.3 19.5 0 0 0-0.1 0-0.1C350.3 210.9 350.3 210.6 350.3 210.3z" class="i"/><path d="M350.5 208.4c-0.2-1-0.4-1.9-0.6-2.8 0.2 1.6 0.3 3.1 0.4 4.7C350.4 209.7 350.5 209 350.5 208.4z" class="i"/><polygon points="349.9 190.9 349.9 190.9 349.9 190.9 " class="j"/><path d="M351.5 202.1c0.1-7.6-0.9-11.1-0.9-11.3l-0.7 0.2c0 0.1 1.3 4.8 0.8 15.3 0 0.3 0.1 0.6 0.1 0.9C351 205.3 351.2 203.7 351.5 202.1z" class="j"/><path d="M350.5 208.7c0.1-0.5 0.1-1.1 0.2-1.6 0-0.3-0.1-0.6-0.1-0.9 0 0.7-0.1 1.5-0.1 2.3C350.5 208.5 350.5 208.6 350.5 208.7z" class="j"/><path d="M350.9 208.6c0.1-0.5 0.3-0.9 0.4-1.4 0.1-1.9 0.2-3.6 0.2-5.1 -0.3 1.6-0.5 3.3-0.8 5C350.8 207.5 350.8 208.1 350.9 208.6z" class="j"/><path d="M350.9 208.6c0-0.5-0.1-1-0.1-1.5 -0.1 0.5-0.1 1.1-0.2 1.6 0 0.2 0.1 0.5 0.1 0.7C350.7 209.1 350.8 208.8 350.9 208.6z" class="j"/><path d="M350.3 210.5c0 0 0-0.1 0-0.1 0 0.3-0.1 0.5-0.1 0.8 0 0 0-0.1 0-0.1C350.3 210.8 350.3 210.6 350.3 210.5z" class="j"/><path d="M350.5 208.7c0-0.1 0-0.2 0-0.2 0 0.6-0.1 1.3-0.2 1.9 0 0 0 0.1 0 0.1C350.4 209.9 350.5 209.3 350.5 208.7z" class="j"/><path d="M350.3 210.5c0 0.2 0 0.3-0.1 0.5 0-0.1 0-0.2 0.1-0.3C350.4 210.6 350.4 210.5 350.3 210.5z" class="j"/><path d="M350.4 210.7c0.1-0.4 0.2-0.9 0.3-1.3 0-0.2-0.1-0.5-0.1-0.7 -0.1 0.6-0.1 1.2-0.2 1.8C350.4 210.5 350.4 210.6 350.4 210.7z" class="j"/><path d="M350.1 210.8c2.1-9.1 6.2-14.9 7.6-16.7 1.2-0.4 2.2-0.2 2.2-0.4 0-0.2-0.4-0.3-0.4-0.3s-0.2-0.2-0.4-0.2c-0.2 0-0.2-0.1-0.1-0.3 0.1-0.3 0.1-0.4-0.1-0.4 -0.2 0-0.2-0.1-0.1-0.3 0.1-0.2-0.1-0.3-0.4-0.1 -0.4 0.2-0.3 0.1-0.3-0.2 0-0.2-0.5-0.1-0.5-0.1s0.1 0.6 0 1c0 0.1 0 0.3 0 0.5 -1 1.2-4.5 5.8-6.9 13.2 -0.2 1.3-0.3 2.6-0.5 3.9C350.1 210.6 350.1 210.7 350.1 210.8z" class="i"/><path d="M351 211.2c0-0.1 0.1-0.2 0.1-0.4 0-0.1 0-0.2 0-0.3C351 210.7 351 210.9 351 211.2z" class="i"/><path d="M351 210.4c0 0 0 0.1 0 0.1 0.1-1.3 0.3-2.6 0.5-3.9 -0.1 0.2-0.1 0.5-0.2 0.7C351.2 208.2 351.1 209.3 351 210.4z" class="i"/><path d="M351 210.4c0 0.3-0.1 0.6-0.1 0.9 0 0 0-0.1 0-0.1 0-0.2 0-0.5 0.1-0.7C351 210.4 351 210.4 351 210.4z" class="i"/><path d="M351.3 207.2c-0.1 0.4-0.3 0.9-0.4 1.4 0.1 0.6 0.1 1.2 0.1 1.8C351.1 209.3 351.2 208.2 351.3 207.2z" class="i"/><path d="M350.9 211.3c0 0 0 0 0 0 0-0.3 0.1-0.6 0.1-0.9 0-0.6-0.1-1.2-0.1-1.8 -0.1 0.3-0.1 0.5-0.2 0.8C350.8 210 350.9 210.6 350.9 211.3z" class="i"/><path d="M350.3 211.3c0-0.1 0-0.2 0-0.3 0 0 0 0.1 0 0.1 0 0.1 0 0.1 0 0.1 0 0 0 0 0 0.1H350.3z" class="i"/><path d="M350.4 210.7c0 0.1 0 0.2-0.1 0.3 0 0.1 0 0.2 0 0.3h0.1C350.4 211.1 350.4 210.9 350.4 210.7z" class="i"/><path d="M350.9 211.3c0 0 0 0 0-0.1 -0.1-0.6-0.2-1.3-0.3-1.9 -0.1 0.4-0.2 0.9-0.3 1.3 0 0.2 0 0.4 0 0.6H350.9z" class="i"/><path d="M350.4 190.5c0 0-0.3-3.5-0.1-4.5 0.2-0.9 1.5-0.9 1.4 0C351.6 186.9 350.4 190.5 350.4 190.5z" class="k"/><path d="M350.4 190.5c0 0-1.9-3-2.2-3.9 -0.3-0.9 0.9-1.5 1.2-0.6C349.8 186.8 350.4 190.5 350.4 190.5z" class="l"/><path d="M350.4 190.5c0 0-3.2-1.6-3.9-2.2 -0.7-0.6-0.1-1.7 0.7-1.2C347.9 187.7 350.4 190.5 350.4 190.5z" class="k"/><path d="M350.4 190.5c0 0-3.5 0.2-4.5 0 -0.9-0.2-0.9-1.5 0-1.4C346.9 189.2 350.4 190.5 350.4 190.5z" class="k"/><path d="M350.4 190.5c0 0-3.1 1.6-4.1 1.8 -0.9 0.2-1.4-1-0.5-1.3C346.7 190.8 350.4 190.5 350.4 190.5z" class="m"/><path d="M350.4 190.5c0 0-1.7 3.1-2.3 3.8 -0.7 0.7-1.7 0-1.2-0.7C347.5 192.8 350.4 190.5 350.4 190.5z" class="l"/><path d="M350.4 190.5c0 0-0.1 3.5-0.4 4.5 -0.3 0.9-1.6 0.8-1.4-0.2C348.8 193.8 350.4 190.5 350.4 190.5z" class="k"/><path d="M350.4 190.5c0 0 1.5 3.2 1.6 4.2 0.2 0.9-1 1.4-1.3 0.5C350.5 194.2 350.4 190.5 350.4 190.5z" class="l"/><path d="M350.4 190.5c0 0 2.9 2 3.6 2.7 0.6 0.7-0.2 1.7-0.9 1.1C352.4 193.6 350.4 190.5 350.4 190.5z" class="m"/><path d="M350.4 190.5c0 0 3.5 0.3 4.4 0.6 0.9 0.3 0.7 1.6-0.2 1.4C353.7 192.2 350.4 190.5 350.4 190.5z" class="k"/><path d="M350.4 190.5c0 0 3.3-1.2 4.3-1.3 1-0.1 1.3 1.2 0.4 1.3C354.1 190.7 350.4 190.5 350.4 190.5z" class="l"/><path d="M350.4 190.5c0 0 2.5-2.5 3.4-3 0.8-0.5 1.7 0.5 0.9 1.1C353.9 189.1 350.4 190.5 350.4 190.5z" class="k"/><path d="M350.4 190.5c0 0 1.2-3.3 1.8-4.1s1.7-0.3 1.3 0.6C352.9 187.7 350.4 190.5 350.4 190.5z" class="m"/><circle cx="350.4" cy="190.5" r="1.4" class="n"/><circle cx="350.6" cy="190.6" r="0.9" class="o"/><path d="M344.1 178.6c0 0 0.4-3.9 0.8-4.9 0.4-1 1.8-0.7 1.5 0.3C346.1 175 344.1 178.6 344.1 178.6z" class="g"/><path d="M344.1 178.6c0 0-1.4-3.6-1.6-4.7 -0.1-1 1.2-1.5 1.4-0.5C344.2 174.5 344.1 178.6 344.1 178.6z" class="h"/><path d="M344.1 178.6c0 0-3.1-2.3-3.8-3.1 -0.7-0.8 0.3-1.9 1-1.2C342 175 344.1 178.6 344.1 178.6z" class="h"/><path d="M344.1 178.6c0 0-3.9-0.5-4.8-0.9 -1-0.4-0.7-1.8 0.3-1.5C340.6 176.5 344.1 178.6 344.1 178.6z" class="g"/><path d="M344.1 178.6c0 0-3.7 1.1-4.8 1.2 -1.1 0-1.4-1.3-0.3-1.5C340 178.1 344.1 178.6 344.1 178.6z" class="p"/><path d="M344.1 178.6c0 0-2.4 3-3.3 3.7 -0.8 0.6-1.9-0.3-1.1-1C340.5 180.5 344.1 178.6 344.1 178.6z" class="h"/><path d="M344.1 178.6c0 0-0.8 3.8-1.3 4.7 -0.5 0.9-1.8 0.5-1.4-0.4C341.7 181.9 344.1 178.6 344.1 178.6z" class="g"/><path d="M344.1 178.6c0 0 1 3.8 1 4.8 0 1.1-1.4 1.3-1.5 0.3C343.5 182.6 344.1 178.6 344.1 178.6z" class="p"/><path d="M344.1 178.6c0 0 2.8 2.7 3.3 3.6 0.5 0.9-0.5 1.8-1.1 1C345.7 182.4 344.1 178.6 344.1 178.6z" class="h"/><path d="M344.1 178.6c0 0 3.8 1 4.7 1.5 0.9 0.5 0.5 1.9-0.5 1.4C347.3 181.1 344.1 178.6 344.1 178.6z" class="g"/><path d="M344.1 178.6c0 0 3.8-0.7 4.9-0.6 1.1 0.1 1.2 1.5 0.1 1.5C348.1 179.5 344.1 178.6 344.1 178.6z" class="h"/><path d="M344.1 178.6c0 0 3.2-2.2 4.2-2.5 1-0.4 1.7 0.9 0.8 1.3C348.1 177.8 344.1 178.6 344.1 178.6z" class="g"/><path d="M344.1 178.6c0 0 2-3.4 2.7-4.1 0.7-0.7 1.9 0.1 1.2 0.9C347.4 176.1 344.1 178.6 344.1 178.6z" class="p"/><circle cx="344.1" cy="178.6" r="1.5" class="n"/><circle cx="344.3" cy="178.8" r="1" class="o"/><path d="M357.4 180.9c0 0-0.4-3.9-0.7-4.9 -0.4-1-1.8-0.8-1.5 0.3C355.4 177.3 357.4 180.9 357.4 180.9z" class="q"/><path d="M357.4 180.9c0 0 1.5-3.6 1.6-4.7 0.1-1-1.2-1.5-1.4-0.5C357.3 176.8 357.4 180.9 357.4 180.9z" class="r"/><path d="M357.4 180.9c0 0 3.2-2.3 3.8-3.1 0.7-0.8-0.2-1.9-1-1.2C359.5 177.4 357.4 180.9 357.4 180.9z" class="q"/><path d="M357.4 180.9c0 0 3.9-0.5 4.8-0.9 1-0.4 0.7-1.8-0.3-1.5C360.9 178.8 357.4 180.9 357.4 180.9z" class="r"/><path d="M357.4 180.9c0 0 3.7 1.2 4.8 1.2 1.1 0.1 1.4-1.3 0.4-1.5C361.4 180.5 357.4 180.9 357.4 180.9z" class="s"/><path d="M357.4 180.9c0 0 2.4 3.1 3.3 3.7 0.8 0.6 1.9-0.3 1.1-1C361 182.9 357.4 180.9 357.4 180.9z" class="q"/><path d="M357.4 180.9c0 0 0.8 3.8 1.3 4.8 0.5 0.9 1.8 0.5 1.5-0.4C359.7 184.3 357.4 180.9 357.4 180.9z" class="r"/><path d="M357.4 180.9c0 0-1 3.8-1 4.8 0 1.1 1.4 1.3 1.5 0.3C357.9 185 357.4 180.9 357.4 180.9z" class="q"/><path d="M357.4 180.9c0 0-2.8 2.7-3.4 3.6 -0.6 0.9 0.5 1.8 1.1 1C355.8 184.7 357.4 180.9 357.4 180.9z" class="r"/><path d="M357.4 180.9c0 0-3.8 1-4.7 1.5 -0.9 0.5-0.5 1.9 0.5 1.4C354.1 183.4 357.4 180.9 357.4 180.9z" class="s"/><path d="M357.4 180.9c0 0-3.8-0.7-4.9-0.6 -1.1 0.1-1.2 1.5-0.2 1.5C353.4 181.8 357.4 180.9 357.4 180.9z" class="r"/><path d="M357.4 180.9c0 0-3.2-2.2-4.2-2.6 -1-0.4-1.7 0.9-0.8 1.3C353.3 180.1 357.4 180.9 357.4 180.9z" class="q"/><path d="M357.4 180.9c0 0-1.9-3.4-2.7-4.1 -0.7-0.8-1.9 0-1.3 0.8S357.4 180.9 357.4 180.9z" class="s"/><circle cx="357.4" cy="180.9" r="1.5" class="n"/><circle cx="357.1" cy="181.1" r="1" class="o"/><path d="M353 203.8c-0.6 0.1-1.4 0.1-2.1 0.1 -0.8 0-1.5 0-2.1-0.1 -1.6 0.2-2.7 0.5-2.7 0.9 0 0.3 0.6 7.6 1.7 12.8h6.4c1-5.1 1.7-12.4 1.7-12.8C355.8 204.4 354.6 204 353 203.8z" fill="#00AFEA"/><path d="M349.2 217.3c-0.9-5.1-1-12.1-1-12.6 1.4 0.2 5.3-0.1 5.3-0.1 -3.5 0-4.6-0.2-4.9-0.3 0.3-0.2 0.8-0.2 1.4-0.3 -0.2 0-0.5 0-0.7-0.1 -1.6 0.2-2.7 0.4-2.7 0.8 0 0.3 0.6 7.5 1.6 12.5H349.2z" fill="#B6E6F8"/><rect x="322.6" y="217.6" width="171.4" height="8.9" class="a"/><rect x="303.3" y="48.2" width="312.2" height="94.7" class="t"/><rect x="303.3" y="137.5" width="49.2" height="5.3" class="u"/><rect x="303.3" y="48.2" width="49.2" height="87.5" class="v"/><path d="M315.5 141.3c-0.6 0-1.1-0.5-1.1-1.1 0-0.6 0.5-1.1 1.1-1.1h24.8c0.6 0 1.1 0.5 1.1 1.1 0 0.6-0.5 1.1-1.1 1.1H315.5z" class="w"/><rect x="354.4" y="137.5" width="49.2" height="5.3" class="u"/><rect x="354.4" y="48.2" width="49.2" height="87.5" class="v"/><path d="M366.6 141.3c-0.6 0-1.1-0.5-1.1-1.1 0-0.6 0.5-1.1 1.1-1.1h24.8c0.6 0 1.1 0.5 1.1 1.1 0 0.6-0.5 1.1-1.1 1.1H366.6z" class="w"/><rect x="405.4" y="137.5" width="49.2" height="5.3" class="u"/><rect x="405.4" y="48.2" width="49.2" height="87.5" class="v"/><path d="M417.6 141.3c-0.6 0-1.1-0.5-1.1-1.1 0-0.6 0.5-1.1 1.1-1.1h24.8c0.6 0 1.1 0.5 1.1 1.1 0 0.6-0.5 1.1-1.1 1.1H417.6z" class="w"/><rect x="456.4" y="137.5" width="49.2" height="5.3" class="u"/><rect x="456.4" y="48.2" width="49.2" height="87.5" class="v"/><path d="M468.6 141.3c-0.6 0-1.1-0.5-1.1-1.1 0-0.6 0.5-1.1 1.1-1.1h24.8c0.6 0 1.1 0.5 1.1 1.1 0 0.6-0.5 1.1-1.1 1.1H468.6z" class="w"/><rect x="507.3" y="48.2" width="108.2" height="69.8" class="v"/><rect x="507.3" y="117.9" width="108.2" height="11.2" class="x"/><rect x="508.4" y="138.9" width="106" height="2.8" class="y"/><path d="M606.3 122.7c0.3 0 0.5-0.2 0.5-0.5 0-0.3-0.2-0.5-0.5-0.5h-8.3c-0.3 0-0.5 0.2-0.5 0.5 0 0.3 0.2 0.5 0.5 0.5H606.3z" class="y"/><path d="M606.3 125.5c0.3 0 0.5-0.2 0.5-0.5 0-0.3-0.2-0.5-0.5-0.5h-8.3c-0.3 0-0.5 0.2-0.5 0.5 0 0.3 0.2 0.5 0.5 0.5H606.3z" class="y"/><path d="M592.7 122.7c0.3 0 0.5-0.2 0.5-0.5 0-0.3-0.2-0.5-0.5-0.5h-8.3c-0.3 0-0.5 0.2-0.5 0.5 0 0.3 0.2 0.5 0.5 0.5H592.7z" class="y"/><path d="M592.7 125.5c0.3 0 0.5-0.2 0.5-0.5 0-0.3-0.2-0.5-0.5-0.5h-8.3c-0.3 0-0.5 0.2-0.5 0.5 0 0.3 0.2 0.5 0.5 0.5H592.7z" class="y"/><path d="M579.1 122.7c0.3 0 0.5-0.2 0.5-0.5 0-0.3-0.2-0.5-0.5-0.5h-8.3c-0.3 0-0.5 0.2-0.5 0.5 0 0.3 0.2 0.5 0.5 0.5H579.1z" class="y"/><path d="M579.1 125.5c0.3 0 0.5-0.2 0.5-0.5 0-0.3-0.2-0.5-0.5-0.5h-8.3c-0.3 0-0.5 0.2-0.5 0.5 0 0.3 0.2 0.5 0.5 0.5H579.1z" class="y"/><path d="M565.5 122.7c0.3 0 0.5-0.2 0.5-0.5 0-0.3-0.2-0.5-0.5-0.5h-8.3c-0.3 0-0.5 0.2-0.5 0.5 0 0.3 0.2 0.5 0.5 0.5H565.5z" class="y"/><path d="M565.5 125.5c0.3 0 0.5-0.2 0.5-0.5 0-0.3-0.2-0.5-0.5-0.5h-8.3c-0.3 0-0.5 0.2-0.5 0.5 0 0.3 0.2 0.5 0.5 0.5H565.5z" class="y"/><path d="M552 122.7c0.3 0 0.5-0.2 0.5-0.5 0-0.3-0.2-0.5-0.5-0.5h-8.3c-0.3 0-0.5 0.2-0.5 0.5 0 0.3 0.2 0.5 0.5 0.5H552z" class="y"/><path d="M552 125.5c0.3 0 0.5-0.2 0.5-0.5 0-0.3-0.2-0.5-0.5-0.5h-8.3c-0.3 0-0.5 0.2-0.5 0.5 0 0.3 0.2 0.5 0.5 0.5H552z" class="y"/><path d="M538.4 122.7c0.3 0 0.5-0.2 0.5-0.5 0-0.3-0.2-0.5-0.5-0.5h-8.3c-0.3 0-0.5 0.2-0.5 0.5 0 0.3 0.2 0.5 0.5 0.5H538.4z" class="y"/><path d="M538.4 125.5c0.3 0 0.5-0.2 0.5-0.5 0-0.3-0.2-0.5-0.5-0.5h-8.3c-0.3 0-0.5 0.2-0.5 0.5 0 0.3 0.2 0.5 0.5 0.5H538.4z" class="y"/><path d="M524.8 122.7c0.3 0 0.5-0.2 0.5-0.5 0-0.3-0.2-0.5-0.5-0.5h-8.3c-0.3 0-0.5 0.2-0.5 0.5 0 0.3 0.2 0.5 0.5 0.5H524.8z" class="y"/><path d="M524.8 125.5c0.3 0 0.5-0.2 0.5-0.5 0-0.3-0.2-0.5-0.5-0.5h-8.3c-0.3 0-0.5 0.2-0.5 0.5 0 0.3 0.2 0.5 0.5 0.5H524.8z" class="y"/><path d="M507.3 137.8v5H615.5v-5H507.3zM508.4 138.9h106v2.8H508.4V138.9z" fill="#9D9FA2"/><rect x="507.3" y="117" width="108.2" height="0.9" class="z"/><rect x="507.3" y="129.2" width="108.2" height="8.7" class="b"/><rect x="544.3" y="131.5" width="34.3" height="4.1" class="A"/><rect x="547.3" y="132.7" width="7" height="1.7" class="B"/><rect x="563.2" y="132.7" width="2.5" height="1.7" class="B"/><rect x="567.6" y="132.7" width="2.5" height="1.7" class="B"/><rect x="571.9" y="132.7" width="2.5" height="1.7" class="B"/><rect x="155.9" y="136.1" width="86.4" height="236.9" fill="#AAA59A"/><rect x="155.4" y="323.9" width="87.4" height="49.2" class="C"/><rect x="157.3" y="373.1" width="83.6" height="3.4" class="B"/><rect x="155.4" y="283.7" width="87.4" height="38" class="C"/><rect x="200.1" y="258" width="42.7" height="23.5" class="C"/><rect x="155.4" y="258" width="42.7" height="23.5" class="C"/><rect x="155.4" y="136.1" width="87.4" height="118.5" class="C"/><rect x="233.6" y="136.1" width="1.8" height="118.5" class="D"/><path d="M229 287c-8 2.3-18.5 3.7-29.9 3.7 -11.5 0-21.9-1.4-29.9-3.7H229z" class="D"/><path d="M231.3 243.6c-2.4-12.4-3.8-28.5-3.8-46.2 0-17.7 1.5-33.8 3.8-46.2V243.6z" class="D"/><path d="M229 327.2c-8 2.3-18.5 3.7-29.9 3.7 -11.5 0-21.9-1.4-29.9-3.7H229z" class="D"/><path d="M197.4 259.9v2.9c-14-0.1-26.8-1.2-36.7-2.9H197.4z" class="D"/><path d="M200.9 259.9h36.6c-9.9 1.7-22.6 2.8-36.6 2.9V259.9z" class="D"/><circle cx="598.9" cy="163.3" r="2.4" class="E"/><circle cx="519.9" cy="163.3" r="2.4" class="E"/><path d="M597 171h-75.1c-1.5 0-2.6-1.2-2.6-2.6v-5c0-0.4 0.3-0.7 0.7-0.7s0.7 0.3 0.7 0.7v5c0 0.7 0.6 1.3 1.3 1.3h75.1c0.7 0 1.3-0.6 1.3-1.3v-5c0-0.4 0.3-0.7 0.7-0.7s0.7 0.3 0.7 0.7v5C599.6 169.8 598.4 171 597 171z" class="a"/><path d="M533 175.4c-0.3 0-0.6-0.2-0.6-0.6v-6.3c0-0.3 0.2-0.6 0.6-0.6 0.3 0 0.6 0.2 0.6 0.6v6.3C533.5 175.2 533.3 175.4 533 175.4z" class="x"/><path d="M541.8 175.4c-0.3 0-0.6-0.2-0.6-0.6v-6.3c0-0.3 0.2-0.6 0.6-0.6 0.3 0 0.6 0.2 0.6 0.6v6.3C542.3 175.2 542.1 175.4 541.8 175.4z" class="x"/><path d="M550.6 175.4c-0.3 0-0.6-0.2-0.6-0.6v-6.3c0-0.3 0.2-0.6 0.6-0.6 0.3 0 0.6 0.2 0.6 0.6v6.3C551.2 175.2 550.9 175.4 550.6 175.4z" class="x"/><path d="M559.4 175.4c-0.3 0-0.6-0.2-0.6-0.6v-6.3c0-0.3 0.2-0.6 0.6-0.6 0.3 0 0.6 0.2 0.6 0.6v6.3C560 175.2 559.7 175.4 559.4 175.4z" class="x"/><path d="M568.2 175.4c-0.3 0-0.6-0.2-0.6-0.6v-6.3c0-0.3 0.2-0.6 0.6-0.6 0.3 0 0.6 0.2 0.6 0.6v6.3C568.8 175.2 568.5 175.4 568.2 175.4z" class="x"/><path d="M577 175.4c-0.3 0-0.6-0.2-0.6-0.6v-6.3c0-0.3 0.2-0.6 0.6-0.6 0.3 0 0.6 0.2 0.6 0.6v6.3C577.6 175.2 577.3 175.4 577 175.4z" class="x"/><path d="M585.8 175.4c-0.3 0-0.6-0.2-0.6-0.6v-6.3c0-0.3 0.2-0.6 0.6-0.6 0.3 0 0.6 0.2 0.6 0.6v6.3C586.4 175.2 586.1 175.4 585.8 175.4z" class="x"/><path d="M557.4 183.1c-0.4 4.3-0.3 12.2-0.4 13.9 -0.1 1.6-2 2.7-2 2.7 0 0-0.1 0.1-0.1 0.1 -1.7 1-2.7 2.5-2.2 3.3 1 1.7 3.2 2.3 4.9 1.3 1.6-0.9 2.2-2.8 1.5-4.7 0 0-1.2-3.1-1.4-6.2 -0.1-2.8 0.6-7.2 1.6-10.2L557.4 183.1zM556.6 202.6c-1.6 0.9-3.2 1-3.6 0.3 -0.4-0.8 0.5-2.1 2-3 1.6-0.9 3.2-1 3.6-0.3C559.1 200.4 558.2 201.7 556.6 202.6z" class="F"/><path d="M560.1 174.3c0-0.1 0-0.2-0.1-0.3 -0.2-0.3-0.6-0.4-0.9-0.2 -0.1 0.1-0.2 0.2-0.3 0.4 -1.2 3.9-1.6 8.9-1.6 8.9 0 0.2 0.4 0.4 1 0.4 0.6 0 1.1-0.1 1.1-0.2C559.5 183.2 560.2 178.4 560.1 174.3z" class="G"/><path d="M559.2 174.5c-0.1 0-0.1 0.1-0.2 0.1l-0.1 0.7c0 0.1 0 0.2 0.1 0.2 0.1 0 0.1 0 0.2-0.1l0.1-0.7C559.3 174.6 559.2 174.5 559.2 174.5z" class="y"/><path d="M548.5 183.1c-0.4 4.3-0.3 12.2-0.4 13.9 -0.1 1.6-2 2.7-2 2.7 0 0-0.1 0.1-0.1 0.1 -1.7 1-2.7 2.5-2.2 3.3 1 1.7 3.2 2.3 4.9 1.3 1.6-0.9 2.2-2.8 1.5-4.7 0 0-1.2-3.1-1.4-6.2 -0.1-2.8 0.6-7.2 1.6-10.2L548.5 183.1zM547.7 202.6c-1.6 0.9-3.2 1-3.6 0.3 -0.4-0.8 0.5-2.1 2-3 1.6-0.9 3.2-1 3.6-0.3C550.2 200.4 549.3 201.7 547.7 202.6z" class="F"/><path d="M551.3 174.3c0-0.1 0-0.2-0.1-0.3 -0.2-0.3-0.6-0.4-0.9-0.2 -0.1 0.1-0.2 0.2-0.3 0.4 -1.2 3.9-1.6 8.9-1.6 8.9 0 0.2 0.4 0.4 1 0.4 0.6 0 1.1-0.1 1.1-0.2C550.6 183.2 551.3 178.4 551.3 174.3z" class="G"/><path d="M550.3 174.5c-0.1 0-0.1 0.1-0.2 0.1l-0.1 0.7c0 0.1 0 0.2 0.1 0.2 0.1 0 0.1 0 0.2-0.1l0.1-0.7C550.4 174.6 550.4 174.5 550.3 174.5z" class="y"/><path d="M530.2 193.4c-1.7-0.4-2.1 0.9-2.2 1.5 0 0.6 0 2 0 2l-0.4 4.3c0 0 0 0.7-0.2 1.4 0 0 1 0.2 2 0.8 1 0.6 4.5 2.1 4.8-1l0.3-3.4c0 0 0.1-3.3-2.2-4.8L530.2 193.4z" class="b"/><path d="M529.8 193.4c-1.7-0.4-2.1 0.9-2.2 1.5 0 0.6 0 2 0 2l-0.4 4.3c0 0 0 0.7-0.2 1.4 0 0 1 0.2 2 0.8 1 0.6 4.5 2.1 4.8-1l0.3-3.4c0 0 0.1-3.3-2.2-4.8L529.8 193.4z" class="a"/><polygon points="531.8 194.7 531.3 201.4 532.2 194.7 " class="b"/><polygon points="530 193.9 529.4 200.9 531.3 201.4 531.8 194.7 " class="a"/><path d="M532.3 193.1c0 0 0.5-5.2 0.8-6.7 0.3-1.5 0.8-5.8 1-7.5l0.4-4c0.1-0.7-0.5-1.5-1.2-1.8 -0.7-0.3-1.6-0.2-1.6 0.5l-0.1 4.3c-0.1 1.7-0.4 6-0.4 7.7 0 1.6-0.4 7.1-0.4 7.1 -0.1 0.8-0.6 0.6-0.6 0.6l0 0.5 2.1 1.1 0.4-0.1 0.1-0.6C532.7 194 532.2 193.8 532.3 193.1zM533.2 175.3c0 0.1-0.1 0.3-0.1 0.3 0 0-0.1 0-0.1 0 -0.3-0.2-0.5-0.6-0.5-1 0-0.1 0.1-0.3 0.1-0.3 0 0 0.1 0 0.1 0C533 174.4 533.2 174.9 533.2 175.3z" fill="#DF5C6E"/><path d="M531.8 193.2c0 0 0.5-5.4 0.8-6.9 0.3-1.5 0.8-5.8 1-7.5l0.4-4c0.1-0.7-0.5-1.5-1.2-1.8 -0.7-0.3-1.3 0.1-1.4 0.8l-0.4 4c-0.1 1.7-0.4 6-0.4 7.7 0 1.6-0.4 7.1-0.4 7.1 -0.1 0.8-0.6 0.6-0.6 0.6l0 0.5 2.6 1.1 0.1-0.6C532.3 194.1 531.8 194 531.8 193.2zM533.2 175.3c0 0.1-0.1 0.3-0.1 0.3 0 0-0.1 0-0.1 0 -0.3-0.2-0.5-0.6-0.5-1 0-0.1 0.1-0.3 0.1-0.3 0 0 0.1 0 0.1 0C533 174.4 533.2 174.9 533.2 175.3z" class="f"/><path d="M533 175.6c0 0 0.1 0 0.1 0 -0.1 0.1-0.3 0.2-0.5 0.1 -0.3-0.2-0.5-0.6-0.5-1 0-0.3 0.2-0.5 0.5-0.5 -0.1 0.1-0.1 0.2-0.1 0.3C532.4 174.9 532.7 175.4 533 175.6z" fill="#CC5364"/><path d="M539.2 193.4c-1.5-0.3-1.8 0.7-1.8 1.2 0 0.5 0 1.7 0 1.7l-0.3 3.7c0 0 0 0.6-0.2 1.2 0 0 0.8 0.2 1.7 0.7 0.9 0.5 3.8 1.8 4.1-0.8l0.3-2.9c0 0 0.1-2.8-1.9-4.1L539.2 193.4z" class="b"/><path d="M538.9 193.5c-1.5-0.3-1.8 0.7-1.8 1.2 0 0.5 0 1.7 0 1.7l-0.3 3.7c0 0 0 0.6-0.2 1.2 0 0 0.8 0.2 1.7 0.7 0.9 0.5 3.9 1.8 4.1-0.8l0.3-2.9c0 0 0.1-2.8-1.9-4.1L538.9 193.5z" class="a"/><polygon points="540.6 194.6 540.2 200.3 541 194.6 " class="b"/><polygon points="538.9 193.9 538.4 200.9 540.3 201.4 540.8 194.7 " class="a"/><path d="M541.2 193.1c0 0 0.5-5.2 0.8-6.7 0.3-1.5 0.8-5.8 1-7.5l0.4-4c0.1-0.7-0.5-1.5-1.2-1.8 -0.7-0.3-1.6-0.2-1.6 0.5l-0.1 4.3c-0.1 1.7-0.4 6-0.4 7.7 0 1.6-0.4 7.1-0.4 7.1 -0.1 0.8-0.6 0.6-0.6 0.6l0 0.5 2.1 1.1 0.4-0.1 0.1-0.6C541.7 194 541.2 193.8 541.2 193.1zM542.2 175.3c0 0.1-0.1 0.3-0.1 0.3 0 0-0.1 0-0.1 0 -0.3-0.2-0.5-0.6-0.5-1 0-0.1 0.1-0.3 0.1-0.3 0 0 0.1 0 0.1 0C542 174.4 542.2 174.9 542.2 175.3z" class="H"/><path d="M540.8 193.2c0 0 0.5-5.4 0.8-6.9 0.3-1.5 0.8-5.8 1-7.5l0.4-4c0.1-0.7-0.5-1.5-1.2-1.8 -0.7-0.3-1.3 0.1-1.4 0.8l-0.4 4c-0.1 1.7-0.4 6-0.4 7.7 0 1.6-0.4 7.1-0.4 7.1 -0.1 0.8-0.6 0.6-0.6 0.6l0 0.5 2.6 1.1 0.1-0.6C541.3 194.1 540.7 194 540.8 193.2zM542.2 175.3c0 0.1-0.1 0.3-0.1 0.3 0 0-0.1 0-0.1 0 -0.3-0.2-0.5-0.6-0.5-1 0-0.1 0.1-0.3 0.1-0.3 0 0 0.1 0 0.1 0C542 174.4 542.2 174.9 542.2 175.3z" class="k"/><path d="M541.9 175.6c0 0 0.1 0 0.1 0 -0.1 0.1-0.3 0.2-0.5 0.1 -0.3-0.2-0.5-0.6-0.5-1 0-0.3 0.2-0.5 0.5-0.5 -0.1 0.1-0.1 0.2-0.1 0.3C541.4 174.9 541.6 175.4 541.9 175.6z" class="H"/><path d="M576 185l-0.7 11.3c-0.1 0.4 0.1 0.9 0.1 1.4s-0.8 0.4-0.8 0.4c-0.8 0.1-1.8 0.4-2.8 0.8 -2.4 1-4.1 2.4-3.8 3.2 0.3 0.8 2.5 0.7 4.9-0.3 2.4-1 4.1-2.4 3.8-3.2 0 0-0.2-0.4-0.3-1l0.9-13.1L576 185z" class="E"/><path d="M572.9 201.8c-2.4 1-4.6 1.1-4.9 0.3 0.7 1.7 3.2 2.3 5.6 1.3 2.4-1 3.8-3.1 3.1-4.8C577 199.4 575.3 200.8 572.9 201.8z" class="z"/><path d="M577.8 185.3c0 0.1-0.6 0.1-1.3 0.1s-1.3-0.2-1.3-0.3c0 0-0.2-5.6 1-10.7 0.1-0.2 0.2-0.4 0.5-0.5 0.4-0.2 0.9 0 1 0.4 0 0.1 0 0.1 0 0.2C577.9 174.4 578.4 181.5 577.8 185.3z" class="G"/><path d="M576.7 174.5c-0.1 0-0.1 0.1-0.2 0.2l-0.1 0.8c0 0.1 0 0.2 0.1 0.2 0.1 0 0.1-0.1 0.2-0.2l0.1-0.8C576.8 174.6 576.7 174.5 576.7 174.5z" class="y"/><path d="M562.9 201.5c0-0.2 0-0.3-0.1-0.3 -0.1 0-0.3 0.2-0.3 0.4 -0.1 0.2 0 0.3 0.2 0.3C562.7 201.9 562.8 201.7 562.9 201.5z" class="I"/><path d="M562.8 202.6c0-0.1-0.2-0.2-0.3 0 -0.1 0.1-0.2 0.3-0.2 0.5 0 0.1 0.2 0.2 0.3 0C562.7 202.9 562.8 202.7 562.8 202.6z" class="I"/><path d="M563.9 203.3c-0.1 0-0.3 0.2-0.3 0.4 0 0.2 0 0.3 0.2 0.3 0.1 0 0.3-0.2 0.3-0.4C564.1 203.4 564.1 203.3 563.9 203.3z" class="I"/><path d="M564.8 202.8c-0.1 0.1-0.2 0.3-0.2 0.5 0 0.1 0.2 0.2 0.3 0 0.1-0.1 0.2-0.3 0.2-0.5C565.1 202.7 565 202.7 564.8 202.8z" class="I"/><path d="M565.7 201.9c-0.1 0.2-0.1 0.4 0 0.4 0.1 0.1 0.3 0 0.4-0.2 0.1-0.2 0.1-0.4 0-0.4C565.9 201.6 565.8 201.7 565.7 201.9z" class="I"/><path d="M566.2 200.7c0 0.2 0 0.3 0.2 0.3 0.1 0 0.3-0.2 0.3-0.4 0-0.2 0-0.3-0.2-0.3C566.4 200.4 566.2 200.6 566.2 200.7z" class="I"/><path d="M566.3 199.7c0 0.1 0.2 0.2 0.3 0 0.1-0.1 0.2-0.3 0.2-0.5 0-0.1-0.2-0.2-0.3 0C566.3 199.4 566.2 199.6 566.3 199.7z" class="I"/><path d="M565.1 199c0.1 0 0.3-0.2 0.3-0.4 0-0.2 0-0.3-0.2-0.3 -0.1 0-0.3 0.2-0.3 0.4C564.9 198.9 565 199 565.1 199z" class="I"/><path d="M564.2 199.5c0.1-0.1 0.2-0.3 0.2-0.5 0-0.1-0.2-0.2-0.3 0 -0.1 0.1-0.2 0.3-0.2 0.5C564 199.6 564.1 199.6 564.2 199.5z" class="I"/><path d="M563.8 201.6c0-0.2-0.1-0.2-0.2-0.2 -0.1 0.1-0.3 0.3-0.3 0.4 0 0.2 0.1 0.2 0.2 0.2C563.7 201.9 563.8 201.7 563.8 201.6z" class="I"/><path d="M564.5 202c-0.1 0.1-0.3 0.3-0.3 0.4 0 0.2 0.1 0.2 0.2 0.2 0.1-0.1 0.3-0.3 0.3-0.4C564.7 202 564.6 201.9 564.5 202z" class="I"/><path d="M565.3 200.7c0 0.2 0.1 0.2 0.2 0.2 0.1-0.1 0.3-0.3 0.3-0.4 0-0.2-0.1-0.2-0.2-0.2C565.4 200.4 565.3 200.6 565.3 200.7z" class="I"/><path d="M565.1 200.3c0.1 0.1 0.3 0 0.4-0.2 0.1-0.2 0.1-0.4 0-0.4 -0.1-0.1-0.3 0-0.4 0.2C565 200 565 200.2 565.1 200.3z" class="I"/><path d="M564.6 200.3c0.1-0.1 0.3-0.3 0.3-0.4 0-0.2-0.1-0.2-0.2-0.2 -0.1 0.1-0.3 0.3-0.3 0.4C564.4 200.3 564.5 200.4 564.6 200.3z" class="I"/><path d="M566.3 183.1c-0.3 3.3-0.1 8.7-0.1 11.9 0 0.5-0.2 1.3-0.5 1.9 -0.4 0.6-0.8 0.9-0.8 1 -0.8 0.6-1.6 1.5-2.3 2.6 -0.8 1.3-1.4 2.6-1.6 3.7 0 0-0.1 0.3 0.2 0.5 0.2 0.1 0.4 0.3 0.6 0.4 0.4 0.2 0.8 0.3 1.2 0.4 0 0 0.3 0.1 0.8-0.3 0.9-0.7 1.9-1.7 2.7-3 0.8-1.2 1.5-2.6 1.5-3.5 0 0 0.1-1.4-0.6-3.1 0 0-0.5-1.2-0.5-2 -0.2-3.1 0.4-7.2 1.4-10.3L566.3 183.1zM562.7 201.6c0.1-0.1 0.2-0.2 0.3-0.2 0 0.1 0 0.2-0.1 0.3 -0.1 0.1-0.2 0.2-0.3 0.2C562.6 201.8 562.6 201.7 562.7 201.6zM562.9 203.8c0-0.1 0-0.2 0.1-0.3 0.1-0.1 0.2-0.2 0.3-0.2 0 0.1 0 0.2-0.1 0.3C563.1 203.7 563 203.8 562.9 203.8zM564 203.7c-0.1 0.1-0.2 0.2-0.3 0.2 0-0.1 0-0.2 0.1-0.3 0.1-0.1 0.2-0.2 0.3-0.2C564.1 203.5 564.1 203.6 564 203.7zM562.7 202.9c-0.1 0.1-0.2 0.2-0.3 0.2 0-0.1 0-0.2 0.1-0.3 0.1-0.1 0.2-0.2 0.3-0.2C562.8 202.7 562.8 202.8 562.7 202.9zM563.8 202.3c0.1-0.1 0.2-0.2 0.3-0.2 0 0.1 0 0.2-0.1 0.3 -0.1 0.1-0.2 0.2-0.3 0.2C563.7 202.6 563.7 202.4 563.8 202.3zM565.1 203.2c-0.1 0.1-0.2 0.2-0.3 0.2 0-0.1 0-0.2 0.1-0.3 0.1-0.1 0.2-0.2 0.3-0.2C565.2 202.9 565.1 203.1 565.1 203.2zM564.6 202.4c-0.1 0.1-0.2 0.2-0.3 0.2 0-0.1 0-0.2 0.1-0.3 0.1-0.1 0.2-0.2 0.3-0.2C564.7 202.2 564.7 202.3 564.6 202.4zM563.7 201.8c-0.1 0.1-0.2 0.2-0.3 0.2 0-0.1 0-0.2 0.1-0.3 0.1-0.1 0.2-0.2 0.3-0.2C563.8 201.6 563.8 201.7 563.7 201.8zM565.2 198.7c0.1-0.1 0.2-0.2 0.3-0.2 0 0.1 0 0.2-0.1 0.3 -0.1 0.1-0.2 0.2-0.3 0.2C565.1 198.9 565.2 198.8 565.2 198.7zM564.6 200c0.1-0.1 0.2-0.2 0.3-0.2 0 0.1 0 0.2-0.1 0.3 -0.1 0.1-0.2 0.2-0.3 0.2C564.5 200.2 564.6 200.1 564.6 200zM565.3 200c0.1-0.1 0.2-0.2 0.3-0.2 0 0.1 0 0.2-0.1 0.3 -0.1 0.1-0.2 0.2-0.3 0.2C565.2 200.2 565.2 200.1 565.3 200zM563.2 200.3c0.1-0.1 0.2-0.2 0.3-0.2 0 0.1 0 0.2-0.1 0.3 -0.1 0.1-0.2 0.2-0.3 0.2C563.1 200.5 563.2 200.4 563.2 200.3zM566 202.1c-0.1 0.1-0.2 0.2-0.3 0.2 0-0.1 0-0.2 0.1-0.3s0.2-0.2 0.3-0.2C566.1 201.9 566.1 202 566 202.1zM565.3 201.7c-0.1 0.1-0.2 0.2-0.3 0.2 0-0.1 0-0.2 0.1-0.3 0.1-0.1 0.2-0.2 0.3-0.2C565.5 201.4 565.4 201.6 565.3 201.7zM564.7 201.3c-0.1 0.1-0.2 0.2-0.3 0.2 0-0.1 0-0.2 0.1-0.3 0.1-0.1 0.2-0.2 0.3-0.2C564.8 201 564.8 201.1 564.7 201.3zM564.1 200.8c-0.1 0.1-0.2 0.2-0.3 0.2 0-0.1 0-0.2 0.1-0.3 0.1-0.1 0.2-0.2 0.3-0.2C564.2 200.6 564.1 200.7 564.1 200.8zM565.5 200.9c0-0.1 0-0.2 0.1-0.3 0.1-0.1 0.2-0.2 0.3-0.2 0 0.1 0 0.2-0.1 0.3C565.6 200.8 565.5 200.9 565.5 200.9zM566.6 200.8c-0.1 0.1-0.2 0.2-0.3 0.2 0-0.1 0-0.2 0.1-0.3 0.1-0.1 0.2-0.2 0.3-0.2C566.7 200.6 566.7 200.7 566.6 200.8zM564.4 199.3c-0.1 0.1-0.2 0.2-0.3 0.2 0-0.1 0-0.2 0.1-0.3 0.1-0.1 0.2-0.2 0.3-0.2C564.5 199.1 564.4 199.2 564.4 199.3zM566.7 199.6c-0.1 0.1-0.2 0.2-0.3 0.2 0-0.1 0-0.2 0.1-0.3 0.1-0.1 0.2-0.2 0.3-0.2C566.8 199.4 566.8 199.5 566.7 199.6zM566.2 198.9c-0.1 0.1-0.2 0.2-0.3 0.2 0-0.1 0-0.2 0.1-0.3 0.1-0.1 0.2-0.2 0.3-0.2C566.3 198.6 566.3 198.8 566.2 198.9z" class="F"/><path d="M564.5 201.1c0.1-0.1 0.2-0.2 0.3-0.2 0 0 0-0.1-0.1-0.1 -0.1-0.1-0.3 0-0.4 0.2 -0.1 0.2-0.1 0.4 0 0.4 0 0 0.1 0 0.1 0C564.4 201.4 564.5 201.3 564.5 201.1z" class="J"/><path d="M563.9 200.7c0.1-0.1 0.2-0.2 0.3-0.2 0 0 0-0.1-0.1-0.1 -0.1-0.1-0.3 0-0.4 0.2 -0.1 0.2-0.1 0.4 0 0.4 0 0 0.1 0 0.1 0C563.8 201 563.8 200.8 563.9 200.7z" class="J"/><path d="M563.2 200.3c0.1-0.1 0.2-0.2 0.3-0.2 0 0 0-0.1-0.1-0.1 -0.1-0.1-0.3 0-0.4 0.2 -0.1 0.2-0.1 0.4 0 0.4 0 0 0.1 0 0.1 0C563.1 200.5 563.2 200.4 563.2 200.3z" class="J"/><path d="M562.6 201.8c0-0.2 0.2-0.3 0.3-0.4l0 0c0-0.1-0.1-0.1-0.2-0.1 -0.1 0-0.3 0.2-0.3 0.4 0 0.2 0 0.3 0.2 0.3C562.5 201.9 562.6 201.8 562.6 201.8z" class="J"/><path d="M562.5 203.1c0 0 0 0 0 0 0-0.1 0.1-0.3 0.2-0.5 0 0 0.1-0.1 0.1-0.1 0-0.1-0.2-0.1-0.3 0 -0.1 0.1-0.2 0.3-0.2 0.5C562.3 203.1 562.4 203.1 562.5 203.1z" class="J"/><path d="M563 203.5c0.1-0.1 0.2-0.2 0.3-0.2 0 0 0-0.1-0.1-0.1 -0.1-0.1-0.3 0-0.4 0.2 -0.1 0.2-0.1 0.4 0 0.4 0 0 0.1 0 0.1 0C562.9 203.8 562.9 203.6 563 203.5z" class="J"/><path d="M563.8 203.8c0-0.2 0.2-0.3 0.3-0.4l0 0c0-0.1-0.1-0.1-0.2-0.1 -0.1 0-0.3 0.2-0.3 0.4 0 0.2 0 0.3 0.2 0.3C563.7 203.9 563.7 203.8 563.8 203.8z" class="J"/><path d="M564.8 203.4L564.8 203.4c0-0.1 0.1-0.3 0.2-0.5 0 0 0.1-0.1 0.1-0.1 0-0.1-0.2-0.1-0.3 0 -0.1 0.1-0.2 0.3-0.2 0.5C564.6 203.4 564.7 203.4 564.8 203.4z" class="J"/><path d="M565.8 202c0.1-0.1 0.2-0.2 0.3-0.2 0 0 0-0.1-0.1-0.1 -0.1-0.1-0.3 0-0.4 0.2 -0.1 0.2-0.1 0.4 0 0.4 0 0 0.1 0 0.1 0C565.7 202.2 565.8 202.1 565.8 202z" class="J"/><path d="M566.3 200.8c0-0.2 0.2-0.3 0.3-0.4l0 0c0-0.1-0.1-0.1-0.2-0.1 -0.1 0-0.3 0.2-0.3 0.4 0 0.2 0 0.3 0.2 0.3C566.3 201 566.3 200.9 566.3 200.8z" class="J"/><path d="M566.4 199.8c0 0 0 0 0 0 0-0.1 0.1-0.3 0.2-0.5 0 0 0.1-0.1 0.1-0.1 0-0.1-0.2-0.1-0.3 0 -0.1 0.1-0.2 0.3-0.2 0.5C566.3 199.8 566.3 199.8 566.4 199.8z" class="J"/><path d="M566.1 198.8c0.1-0.1 0.2-0.2 0.3-0.2 0 0 0-0.1-0.1-0.1 -0.1-0.1-0.3 0-0.4 0.2 -0.1 0.2-0.1 0.4 0 0.4 0 0 0.1 0 0.1 0C566 199 566 198.9 566.1 198.8z" class="J"/><path d="M565.1 198.8c0-0.2 0.2-0.3 0.3-0.4h0c0-0.1-0.1-0.1-0.2-0.1 -0.1 0-0.3 0.2-0.3 0.4 0 0.2 0 0.3 0.2 0.3C565.1 198.9 565.1 198.9 565.1 198.8z" class="J"/><path d="M564.1 199.5c0 0 0 0 0 0 0-0.1 0.1-0.3 0.2-0.5 0 0 0.1-0.1 0.1-0.1 0-0.1-0.2-0.1-0.3 0 -0.1 0.1-0.2 0.3-0.2 0.5C564 199.5 564 199.6 564.1 199.5z" class="J"/><path d="M563.4 201.9c0-0.2 0.1-0.4 0.3-0.4 0 0 0 0 0.1 0 0-0.1-0.1-0.1-0.2-0.1 -0.1 0.1-0.3 0.3-0.3 0.4 0 0.1 0.1 0.2 0.2 0.2C563.4 202 563.4 202 563.4 201.9z" class="J"/><path d="M563.8 202.3c0.1-0.1 0.2-0.2 0.3-0.2 0 0 0-0.1-0.1-0.1 -0.1-0.1-0.3 0-0.4 0.2 -0.1 0.2-0.1 0.4 0 0.4 0 0 0.1 0 0.1 0C563.7 202.6 563.7 202.4 563.8 202.3z" class="J"/><path d="M564.4 202.5c0-0.2 0.1-0.4 0.3-0.4 0 0 0 0 0.1 0 0-0.1-0.1-0.1-0.2-0.1 -0.1 0.1-0.3 0.3-0.3 0.4 0 0.1 0.1 0.2 0.2 0.2C564.4 202.6 564.4 202.6 564.4 202.5z" class="J"/><path d="M565.2 201.6c0.1-0.1 0.2-0.2 0.3-0.2 0 0 0-0.1-0.1-0.1 -0.1-0.1-0.3 0-0.4 0.2 -0.1 0.2-0.1 0.4 0 0.4 0 0 0.1 0 0.1 0C565.1 201.8 565.1 201.7 565.2 201.6z" class="J"/><path d="M565.4 200.8c0-0.2 0.1-0.4 0.3-0.4 0 0 0 0 0.1 0 0-0.1-0.1-0.1-0.2-0.1 -0.1 0.1-0.3 0.3-0.3 0.4 0 0.1 0.1 0.2 0.2 0.2C565.4 200.9 565.4 200.9 565.4 200.8z" class="J"/><path d="M565.3 200c0.1-0.1 0.2-0.2 0.3-0.2 0 0 0-0.1-0.1-0.1 -0.1-0.1-0.3 0-0.4 0.2 -0.1 0.2-0.1 0.4 0 0.4 0 0 0.1 0 0.1 0C565.2 200.2 565.2 200.1 565.3 200z" class="J"/><path d="M564.5 200.3c0-0.2 0.1-0.4 0.3-0.4 0 0 0 0 0.1 0 0-0.1-0.1-0.1-0.2-0.1 -0.1 0.1-0.3 0.3-0.3 0.4 0 0.1 0.1 0.2 0.2 0.2C564.5 200.3 564.5 200.3 564.5 200.3z" class="J"/><path d="M568.9 174.2c0-0.1 0-0.2-0.1-0.3 -0.2-0.3-0.6-0.4-0.9-0.2 -0.1 0.1-0.2 0.2-0.3 0.4 -1.1 4-1.4 9-1.4 9 0 0.2 0.4 0.4 1.1 0.4 0.6 0 1.1-0.1 1.1-0.3C568.4 183.2 569.1 178.4 568.9 174.2z" class="G"/><path d="M567.9 174.4c-0.1 0-0.1 0.1-0.2 0.1l-0.1 0.7c0 0.1 0 0.2 0.1 0.2 0.1 0 0.1-0.1 0.2-0.1l0.1-0.7C568.1 174.5 568 174.4 567.9 174.4z" class="y"/><path d="M583.3 190.2l-1.1 5.2c-0.1 0.5 0 1 0.1 1.3 0.2 0.5 0.4 0.5 0.5 0.8 0.1 0.1 0.1 0.3 0 0.5 -0.1 0.2-0.2 0.3-0.3 0.4 -0.1 0-0.2 0.1-0.2 0.2 0 0.1 0 0.2 0.1 0.3 0.3 0.2 0.5 0.5 0.4 0.9 -0.1 0.2-0.2 0.4-0.4 0.5 -0.1 0-0.1 0.1-0.2 0.2 0 0.1 0 0.2 0.1 0.3 0.2 0.2 0.3 0.5 0.3 0.8 -0.1 0.2-0.3 0.4-0.5 0.5 -0.1 0-0.2 0.1-0.2 0.2 0 0.1 0 0.2 0.1 0.3 0.2 0.2 0.2 0.4 0.2 0.7 -0.1 0.3-0.3 0.5-0.6 0.5 -0.1 0-0.2 0.1-0.3 0.2 0 0.1 0 0.2 0.1 0.3 0.1 0.2 0.2 0.4 0.1 0.6 -0.1 0.4-0.5 0.6-0.9 0.5 -0.2 0-0.3 0.2-0.4 0.3 -0.1 0.5-0.5 0.9-1 0.8 -0.4-0.1-0.7-0.6-0.5-1.2 0 0 0-0.3-0.2-0.3 -0.4-0.1-0.6-0.4-0.5-0.8 0-0.2 0.1-0.4 0.3-0.5 0.1 0 0.1-0.1 0.1-0.2 0-0.1-0.1-0.2-0.1-0.2 -0.2-0.1-0.3-0.4-0.3-0.7 0-0.3 0.2-0.5 0.4-0.6 0.1 0 0.1-0.1 0.2-0.2 0-0.1 0-0.2-0.1-0.3 -0.2-0.1-0.2-0.4-0.2-0.6 0-0.3 0.2-0.5 0.5-0.6 0.1 0 0.1-0.1 0.2-0.2 0-0.1 0-0.2-0.1-0.2 -0.1-0.1-0.2-0.4-0.1-0.6 0.1-0.4 0.3-0.6 0.6-0.7 0.1 0 0.2-0.1 0.2-0.2 0-0.1 0-0.2-0.1-0.2 -0.1-0.1-0.1-0.3-0.1-0.5 0-0.2 0.1-0.3 0.3-0.5 0 0 0.6-0.3 0.9-1.2l1.3-6.2 1.4 0.5L583.3 190.2z" class="E"/><path d="M584.2 177.8l-2.8 12.8 0.4 0.8 2.1-9.2c0 0 0.7-2 1.2-2.6l0.8-0.6 0.2-1.1c0-0.5-0.5-0.9-1-0.9C584.6 177.2 584.3 177.4 584.2 177.8z" class="K"/><path d="M583.8 182.2l-2.1 9.2 0.1 0.2c0.1 0.1 0.3 0.2 0.4 0.3 0.5 0.1 1-0.2 1.2-0.8l1.9-9.4 0.5-2.6 -0.8 0.6C584.4 180.3 583.8 182.2 583.8 182.2z" class="G"/><path d="M586 178c0-0.5-0.5-0.9-1-0.9 -0.4 0-0.7 0.3-0.8 0.6l-2.8 12.8 0.4 1c0.1 0.1 0.3 0.2 0.4 0.3 0.5 0.1 1-0.2 1.2-0.8l1.9-9.4L586 178z" class="I"/><path d="M584.9 174.8c0 0.5 0.3 4.4 0.9 4.3 0.6 0 1.2-4.1 1.2-4.5 0-0.4-0.4-0.8-1-0.7C585.4 174 584.9 174.4 584.9 174.8zM586.4 174.9c0 0.2-0.2 0.4-0.4 0.4 -0.3 0-0.5-0.1-0.5-0.3 0-0.2 0.2-0.4 0.4-0.4C586.2 174.5 586.4 174.7 586.4 174.9z" class="K"/><path d="M585.7 190.4l0.4 5c0 0.6-0.2 1-0.3 1.3 -0.3 0.4-0.8 0.9-0.9 1.2 -0.1 0.1-0.1 0.3-0.1 0.5 0 0.2 0.1 0.4 0.3 0.5 0.1 0 0.2 0.1 0.2 0.2 0 0.1 0 0.2-0.2 0.3 -0.3 0.1-0.6 0.4-0.6 0.8 0 0.2 0.1 0.4 0.3 0.6 0.1 0 0.1 0.1 0.1 0.2 0 0.1 0 0.2-0.1 0.3 -0.3 0.1-0.4 0.4-0.4 0.7 0 0.3 0.2 0.5 0.4 0.6 0.1 0 0.2 0.1 0.2 0.2 0 0.1 0 0.2-0.1 0.3 -0.2 0.2-0.3 0.4-0.3 0.7 0 0.3 0.2 0.6 0.5 0.7 0.1 0 0.2 0.1 0.2 0.2 0 0.1 0 0.2-0.1 0.3 -0.2 0.2-0.2 0.4-0.2 0.6 0 0.4 0.4 0.7 0.8 0.7 0.2 0 0.3 0.3 0.3 0.4 0 0.6 0.4 1 0.8 1 0.4 0 0.8-0.5 0.8-1.1 0 0 0.1-0.3 0.3-0.3 0.4 0 0.7-0.3 0.7-0.7 0-0.2-0.1-0.5-0.2-0.6 -0.1-0.1-0.1-0.2-0.1-0.3 0-0.1 0.1-0.2 0.2-0.2 0.2-0.1 0.4-0.4 0.4-0.7 0-0.3-0.1-0.5-0.3-0.7 -0.1-0.1-0.1-0.1-0.1-0.3 0-0.1 0.1-0.2 0.2-0.2 0.2-0.1 0.3-0.3 0.3-0.6 0-0.3-0.1-0.6-0.4-0.7 -0.1 0-0.1-0.1-0.1-0.3 0-0.1 0.1-0.2 0.1-0.2 0.1-0.1 0.2-0.3 0.3-0.6 0-0.4-0.2-0.7-0.5-0.8 -0.1 0-0.1-0.1-0.1-0.3 0-0.1 0.1-0.2 0.1-0.2 0.1-0.1 0.2-0.3 0.2-0.5 0-0.2 0-0.4-0.1-0.5 0 0-0.4-0.5-0.5-1.3l-0.5-6.2 -1.5-0.3L585.7 190.4z" class="u"/><path d="M585 178.1l-0.4 2.1c0 0.5 0.4 1.8 0.4 1.8l0.7 9.3 0.5-0.3 -1-13.6C585.1 177.6 585 177.8 585 178.1z" class="K"/><path d="M585.2 177.4l1 13.7c0.2 0.3 0.5 0.5 0.7 0.5 0.5 0 0.8-0.5 0.7-1.9l-0.9-11.6c0-0.6-0.5-1-1-1C585.5 177 585.3 177.2 585.2 177.4z" class="G"/><rect x="261.3" y="198.5" width="18.5" height="47.1" fill="#9F4B32"/><path d="M277.8 214.8c0 0-3.1 3.3-7.3 3.3 -4.2 0-7.3-3.3-7.3-3.3H277.8z" class="L"/><path d="M260.5 197.8h20.2c0 0 0.6 15.9-2.4 18.8h-15.4C259.9 213.6 260.5 197.8 260.5 197.8z" class="M"/><path d="M276.7 201.2c0-1.7 0-2.9 0-3.4h1.9c0 0.5 0 1.7 0 3.4H276.7z" class="N"/><path d="M278.6 202.9c-0.1 4.8-0.5 11.6-2.2 13.8h-1.9c1.7-2.2 2.2-8.9 2.2-13.8H278.6z" class="N"/><path d="M259.6 198.5v-1.2c0-0.3 0.3-0.6 0.6-0.6h20.7c0.3 0 0.6 0.3 0.6 0.6v1.2H259.6z" class="B"/><path d="M259.8 239.3c0-12.8 4.1-18 4.1-18l-1.4-1.7h8.1 8.1l-1.4 1.7c0 0 4.1 5.1 4.1 18 0 0 0.1 1.8-2 1.8h-8.8 -8.8C259.7 241.1 259.8 239.3 259.8 239.3z" class="z"/><path d="M263.7 219.6v-1.2c0-0.3 0.3-0.6 0.6-0.6h12.5c0.4 0 0.6 0.3 0.6 0.6v1.2H263.7z" class="y"/><path d="M253.2 226.6c1.3-7.3 7.1-7.6 7.1-7.6l0.7-1.6 2.7 1.2v1l0.2 1.7c0 0-6.9-2.5-8.8 4.2 -2.6 9.3 4.8 9.2 4.8 9.2l-0.1 2.8C254.1 237.5 252 233.5 253.2 226.6z" class="L"/><path d="M275.5 226.3h1.8c0.9 3 1.8 7.4 1.8 13.4 0 0 0 0.5-0.3 0.9h-1.8c0.3-0.4 0.3-0.9 0.3-0.9C277.3 233.6 276.4 229.3 275.5 226.3z" fill="#AC988E"/><path d="M277.4 226.3h1.6c0.9 2.9 1.8 7.1 1.8 13 0 0 0 0.5-0.3 0.9 -0.2 0.3-0.6 0.4-1.2 0.4h-0.5c0.3-0.4 0.3-0.9 0.3-0.9C279.1 233.6 278.3 229.3 277.4 226.3z" class="O"/><path d="M262.1 226.3h13.4c0.9 3 1.8 7.4 1.8 13.4 0 0 0 0.5-0.3 0.9h-15.2c-0.5 0-0.9-0.1-1.2-0.4 -0.3-0.4-0.3-0.9-0.3-0.9C260.3 233.4 261.2 229.1 262.1 226.3z" class="O"/><path d="M281.2 234.8c0.1 0.9 0.1 1.8 0.1 2.8h-2.3v-2.8H281.2z" class="A"/><rect x="277.2" y="234.8" width="1.8" height="2.8" class="b"/><path d="M260 234.8h17.3v2.8h-17.4C259.8 236.6 259.9 235.6 260 234.8z" class="A"/><circle cx="260.3" cy="250.8" r="1" class="y"/><circle cx="280.9" cy="250.8" r="1" class="y"/><path d="M257.3 246.6l1.9-5.6h11.4 11.4l1.9 5.6c1.4 4.2-1.4 4.4-1.4 4.4h-11.9 -11.9C258.7 251 255.9 250.9 257.3 246.6z" class="M"/><circle cx="270.6" cy="245.8" r="3.1" class="F"/><circle cx="270.6" cy="245.8" r="2.3" class="E"/><circle cx="275.6" cy="247.4" r="0.7" class="P"/><circle cx="275.6" cy="244" r="0.7" fill="#87C656"/><polygon points="247.8 357.4 247.8 361.9 247.8 376.5 252.5 376.5 254.7 361.9 286.4 361.9 288.7 376.5 293.3 376.5 293.3 361.9 293.3 357.4 " class="u"/><rect x="247.8" y="257.7" width="45.5" height="99.6" class="t"/><rect x="247.8" y="262.8" width="45.5" height="94.6" class="v"/><path d="M261.7 271.5c1.1 0 2-0.9 2-2 0-1.1-0.9-2-2-2s-2 0.9-2 2C259.7 270.6 260.6 271.5 261.7 271.5z" class="F"/><path d="M279.4 271.5c1.1 0 2-0.9 2-2 0-1.1-0.9-2-2-2 -1.1 0-2 0.9-2 2C277.4 270.6 278.3 271.5 279.4 271.5z" class="F"/><path d="M279.4 270.3c0.5 0 0.9-0.4 0.9-0.9 0-0.5-0.4-0.9-0.9-0.9h-17.7c-0.5 0-0.9 0.4-0.9 0.9 0 0.5 0.4 0.9 0.9 0.9H279.4z" fill="#E2E3E4"/><rect x="246" y="251.8" width="49.2" height="5.9" class="b"/><rect x="300.7" y="246.6" width="314.8" height="5.2" class="x"/><rect x="509.8" y="250.5" width="89.4" height="1.3" class="L"/><polygon points="578.4 249.7 578.4 248.9 580.4 248.9 580.4 249.7 582.8 249.7 582.8 250.5 576.1 250.5 576.1 249.7 " class="y"/><polygon points="590.8 249.1 592.6 249.1 592.6 250.5 590.8 250.5 590.8 249.8 583.7 250.6 583.7 249.9 " class="y"/><polygon points="568.1 249.1 566.3 249.1 566.3 250.5 568.1 250.5 568.1 249.8 575.1 250.6 575.1 249.9 " class="y"/><polygon points="553.7 249.7 553.7 248.9 555.1 248.9 555.1 249.7 556.8 249.7 556.8 250.5 552 250.5 552 249.7 " class="y"/><polygon points="562.6 249.1 563.9 249.1 563.9 250.5 562.6 250.5 562.6 249.8 557.5 250.6 557.5 249.9 " class="y"/><polygon points="546.3 249.1 545 249.1 545 250.5 546.3 250.5 546.3 249.8 551.4 250.6 551.4 249.9 " class="y"/><polygon points="530.5 249.7 530.5 248.9 528.5 248.9 528.5 249.7 526.1 249.7 526.1 250.5 532.8 250.5 532.8 249.7 " class="y"/><polygon points="518.1 249.1 516.3 249.1 516.3 250.5 518.1 250.5 518.1 249.8 525.2 250.6 525.2 249.9 " class="y"/><polygon points="540.8 249.1 542.6 249.1 542.6 250.5 540.8 250.5 540.8 249.8 533.8 250.6 533.8 249.9 " class="y"/><rect x="509.8" y="250.5" width="89.4" height="1.3" class="L"/><polygon points="496.7 241.9 437.3 241.9 435.4 243.8 435.4 247.7 498.6 247.7 498.6 243.8 " fill="#CBB59F"/><circle cx="438.5" cy="250.9" r="1" class="a"/><circle cx="495.5" cy="250.9" r="1" class="a"/><path d="M466 250.9c0 0.5 0.4 1 1 1 0.5 0 1-0.4 1-1 0-0.5-0.4-1-1-1C466.5 249.9 466 250.3 466 250.9z" class="a"/><rect x="435.4" y="247.7" width="63.3" height="2.2" fill="#DFC6AE"/><path d="M449.9 246.3c0 0.8-0.6 1.4-1.4 1.4h-6.3c-0.8 0-1.4-0.6-1.4-1.4v-7.6c0-0.8 0.6-1.4 1.4-1.4h6.3c0.8 0 1.4 0.6 1.4 1.4V246.3z" class="w"/><path d="M448 246.8h-5c-0.6 0-1.1-0.5-1.1-1.1v-6.4c0-0.3 0.1-0.5 0.2-0.7 -0.3 0.2-0.5 0.5-0.5 0.9v6.4c0 0.6 0.5 1.1 1.1 1.1h5c0.4 0 0.7-0.2 0.9-0.5C448.4 246.7 448.2 246.8 448 246.8z" class="a"/><path d="M448.1 239.9c-0.1 0-0.2 0-0.3 0.1 -0.1-0.1-0.2-0.2-0.3-0.2 -0.2 0-0.3 0.1-0.3 0.3 -0.1-0.1-0.2-0.1-0.3-0.1 0 0-0.1 0-0.1 0 -0.1-0.1-0.2-0.2-0.3-0.2 -0.2 0-0.3 0.1-0.3 0.3 -0.1 0-0.1-0.1-0.2-0.1 -0.1 0-0.1 0-0.2 0.1 0-0.1-0.2-0.2-0.3-0.2 -0.1 0-0.3 0.1-0.3 0.2 -0.1-0.1-0.1-0.1-0.2-0.1 -0.2 0-0.3 0.1-0.3 0.3 0-0.2-0.2-0.3-0.3-0.3 -0.1 0-0.2 0-0.2 0.1 0-0.2-0.2-0.3-0.3-0.3 -0.2 0-0.3 0.2-0.3 0.4 0 0 0 0 0 0.1 -0.1-0.1-0.1-0.1-0.2-0.1 -0.1 0-0.2 0-0.2 0.1 0 0 0 0 0 0 0-0.2-0.2-0.3-0.3-0.3 -0.2 0-0.4 0.2-0.4 0.3 0 0 0 0.1 0 0.1h0v5.2c0 0.5 0.4 1 1 1h4.4c0.5 0 1-0.4 1-1v-5.1C448.5 240 448.3 239.9 448.1 239.9z" fill="#C59971"/><path d="M449.6 236c0 0.8-0.6 1.4-1.3 1.4h-5.9c-0.7 0-1.3-0.6-1.3-1.4v-1.3c0-0.8 0.6-1.4 1.3-1.4h5.9c0.7 0 1.3 0.6 1.3 1.4V236z" class="P"/><path d="M448 233.6h-5.1c-0.3 0-0.6 0.1-0.8 0.4 0.2-0.1 0.4-0.2 0.7-0.2h5.1c0.6 0 1.1 0.5 1.1 1.2v1.2c0 0.3-0.1 0.6-0.3 0.8 0.3-0.2 0.5-0.5 0.5-0.9v-1.2C449.1 234.1 448.6 233.6 448 233.6z" class="a"/><path d="M460.7 246.3c0 0.8-0.6 1.4-1.4 1.4h-6.3c-0.8 0-1.4-0.6-1.4-1.4v-7.6c0-0.8 0.6-1.4 1.4-1.4h6.3c0.8 0 1.4 0.6 1.4 1.4V246.3z" class="w"/><path d="M458.8 246.8h-5c-0.6 0-1.1-0.5-1.1-1.1v-6.4c0-0.3 0.1-0.5 0.2-0.7 -0.3 0.2-0.5 0.5-0.5 0.9v6.4c0 0.6 0.5 1.1 1.1 1.1h5c0.4 0 0.7-0.2 0.9-0.5C459.2 246.7 459 246.8 458.8 246.8z" class="a"/><path d="M458.9 239.9c-0.1 0-0.2 0-0.3 0.1 -0.1-0.1-0.2-0.2-0.3-0.2 -0.2 0-0.3 0.1-0.3 0.3 -0.1-0.1-0.2-0.1-0.3-0.1 0 0-0.1 0-0.1 0 -0.1-0.1-0.2-0.2-0.3-0.2 -0.2 0-0.3 0.1-0.3 0.3 -0.1 0-0.1-0.1-0.2-0.1 -0.1 0-0.1 0-0.2 0.1 -0.1-0.1-0.2-0.2-0.3-0.2 -0.1 0-0.3 0.1-0.3 0.2 -0.1-0.1-0.1-0.1-0.2-0.1 -0.2 0-0.3 0.1-0.3 0.3 0-0.2-0.2-0.3-0.3-0.3 -0.1 0-0.2 0-0.2 0.1 0-0.2-0.2-0.3-0.3-0.3 -0.2 0-0.4 0.2-0.4 0.4 0 0 0 0 0 0.1 -0.1-0.1-0.1-0.1-0.2-0.1s-0.2 0-0.2 0.1c0 0 0 0 0 0 0-0.2-0.2-0.3-0.3-0.3 -0.2 0-0.3 0.2-0.3 0.3 0 0 0 0.1 0 0.1h0v5.2c0 0.5 0.4 1 0.9 1h4.4c0.5 0 1-0.4 1-1v-5.1C459.3 240 459.1 239.9 458.9 239.9z" fill="#C2DFA2"/><path d="M460.4 236c0 0.8-0.6 1.4-1.3 1.4h-5.9c-0.7 0-1.3-0.6-1.3-1.4v-1.3c0-0.8 0.6-1.4 1.3-1.4h5.9c0.7 0 1.3 0.6 1.3 1.4V236z" class="P"/><path d="M458.8 233.6h-5.1c-0.3 0-0.6 0.1-0.8 0.4 0.2-0.1 0.4-0.2 0.7-0.2h5.1c0.6 0 1.1 0.5 1.1 1.2v1.2c0 0.3-0.1 0.6-0.3 0.8 0.3-0.2 0.5-0.5 0.5-0.9v-1.2C459.9 234.1 459.4 233.6 458.8 233.6z" class="a"/><path d="M471.5 246.3c0 0.8-0.6 1.4-1.4 1.4h-6.3c-0.8 0-1.4-0.6-1.4-1.4v-7.6c0-0.8 0.6-1.4 1.4-1.4h6.3c0.8 0 1.4 0.6 1.4 1.4V246.3z" class="w"/><path d="M469.6 246.8h-5c-0.6 0-1.1-0.5-1.1-1.1v-6.4c0-0.3 0.1-0.5 0.2-0.7 -0.3 0.2-0.5 0.5-0.5 0.9v6.4c0 0.6 0.5 1.1 1.1 1.1h5c0.4 0 0.7-0.2 0.9-0.5C470.1 246.7 469.9 246.8 469.6 246.8z" class="a"/><path d="M469.8 239.9c-0.1 0-0.2 0-0.3 0.1 -0.1-0.1-0.2-0.2-0.3-0.2 -0.2 0-0.3 0.1-0.3 0.3 -0.1-0.1-0.2-0.1-0.3-0.1 0 0-0.1 0-0.1 0 -0.1-0.1-0.2-0.2-0.3-0.2 -0.2 0-0.3 0.1-0.3 0.3 -0.1 0-0.1-0.1-0.2-0.1 -0.1 0-0.1 0-0.2 0.1 0-0.1-0.2-0.2-0.3-0.2 -0.1 0-0.3 0.1-0.3 0.2 -0.1-0.1-0.1-0.1-0.2-0.1 -0.2 0-0.3 0.1-0.3 0.3 0-0.2-0.2-0.3-0.3-0.3 -0.1 0-0.2 0-0.2 0.1 0-0.2-0.2-0.3-0.3-0.3 -0.2 0-0.3 0.2-0.3 0.4 0 0 0 0 0 0.1 -0.1-0.1-0.1-0.1-0.2-0.1 -0.1 0-0.2 0-0.2 0.1 0 0 0 0 0 0 0-0.2-0.2-0.3-0.3-0.3 -0.2 0-0.3 0.2-0.3 0.3 0 0 0 0.1 0 0.1h0v5.2c0 0.5 0.4 1 0.9 1h4.4c0.5 0 1-0.4 1-1v-5.1C470.1 240 470 239.9 469.8 239.9z" fill="#FDBDAA"/><path d="M471.3 236c0 0.8-0.6 1.4-1.3 1.4h-5.9c-0.7 0-1.3-0.6-1.3-1.4v-1.3c0-0.8 0.6-1.4 1.3-1.4h5.9c0.7 0 1.3 0.6 1.3 1.4V236z" class="P"/><path d="M469.7 233.6h-5.1c-0.3 0-0.6 0.1-0.8 0.4 0.2-0.1 0.4-0.2 0.7-0.2h5.1c0.6 0 1.1 0.5 1.1 1.2v1.2c0 0.3-0.1 0.6-0.3 0.8 0.3-0.2 0.5-0.5 0.5-0.9v-1.2C470.8 234.1 470.3 233.6 469.7 233.6z" class="a"/><path d="M482.4 246.3c0 0.8-0.6 1.4-1.4 1.4h-6.3c-0.8 0-1.4-0.6-1.4-1.4v-7.6c0-0.8 0.6-1.4 1.4-1.4h6.3c0.8 0 1.4 0.6 1.4 1.4V246.3z" class="w"/><path d="M480.5 246.8h-5c-0.6 0-1.1-0.5-1.1-1.1v-6.4c0-0.3 0.1-0.5 0.2-0.7 -0.3 0.2-0.5 0.5-0.5 0.9v6.4c0 0.6 0.5 1.1 1.1 1.1h5c0.4 0 0.7-0.2 0.9-0.5C480.9 246.7 480.7 246.8 480.5 246.8z" class="a"/><path d="M480.6 239.9c-0.1 0-0.2 0-0.3 0.1 -0.1-0.1-0.2-0.2-0.3-0.2 -0.2 0-0.3 0.1-0.3 0.3 -0.1-0.1-0.2-0.1-0.3-0.1 0 0-0.1 0-0.1 0 -0.1-0.1-0.2-0.2-0.3-0.2 -0.2 0-0.3 0.1-0.3 0.3 -0.1 0-0.1-0.1-0.2-0.1 -0.1 0-0.1 0-0.2 0.1 -0.1-0.1-0.2-0.2-0.3-0.2s-0.3 0.1-0.3 0.2c-0.1-0.1-0.1-0.1-0.2-0.1 -0.2 0-0.3 0.1-0.3 0.3 0-0.2-0.2-0.3-0.3-0.3 -0.1 0-0.2 0-0.2 0.1 0-0.2-0.2-0.3-0.3-0.3 -0.2 0-0.3 0.2-0.3 0.4 0 0 0 0 0 0.1 -0.1-0.1-0.1-0.1-0.2-0.1 -0.1 0-0.2 0-0.2 0.1 0 0 0 0 0 0 0-0.2-0.2-0.3-0.3-0.3 -0.2 0-0.4 0.2-0.4 0.3 0 0 0 0.1 0 0.1h0v5.2c0 0.5 0.4 1 1 1h4.4c0.5 0 1-0.4 1-1v-5.1C481 240 480.8 239.9 480.6 239.9z" fill="#C3B59E"/><path d="M482.1 236c0 0.8-0.6 1.4-1.3 1.4h-5.9c-0.7 0-1.3-0.6-1.3-1.4v-1.3c0-0.8 0.6-1.4 1.3-1.4h5.9c0.7 0 1.3 0.6 1.3 1.4V236z" class="P"/><path d="M480.5 233.6h-5.1c-0.3 0-0.6 0.1-0.8 0.4 0.2-0.1 0.4-0.2 0.7-0.2h5.1c0.6 0 1.1 0.5 1.1 1.2v1.2c0 0.3-0.1 0.6-0.3 0.8 0.3-0.2 0.5-0.5 0.5-0.9v-1.2C481.6 234.1 481.1 233.6 480.5 233.6z" class="a"/><path d="M493.2 246.3c0 0.8-0.6 1.4-1.4 1.4h-6.3c-0.8 0-1.4-0.6-1.4-1.4v-7.6c0-0.8 0.6-1.4 1.4-1.4h6.3c0.8 0 1.4 0.6 1.4 1.4V246.3z" class="w"/><path d="M491.3 246.8h-5c-0.6 0-1.1-0.5-1.1-1.1v-6.4c0-0.3 0.1-0.5 0.2-0.7 -0.3 0.2-0.5 0.5-0.5 0.9v6.4c0 0.6 0.5 1.1 1.1 1.1h5c0.4 0 0.7-0.2 0.9-0.5C491.7 246.7 491.5 246.8 491.3 246.8z" class="a"/><path d="M491.4 239.9c-0.1 0-0.2 0-0.3 0.1 -0.1-0.1-0.2-0.2-0.3-0.2 -0.2 0-0.3 0.1-0.3 0.3 -0.1-0.1-0.2-0.1-0.3-0.1 0 0-0.1 0-0.1 0 -0.1-0.1-0.2-0.2-0.3-0.2 -0.2 0-0.3 0.1-0.3 0.3 -0.1 0-0.1-0.1-0.2-0.1 -0.1 0-0.1 0-0.2 0.1 -0.1-0.1-0.2-0.2-0.3-0.2 -0.1 0-0.3 0.1-0.3 0.2 -0.1-0.1-0.1-0.1-0.2-0.1 -0.2 0-0.3 0.1-0.3 0.3 0-0.2-0.2-0.3-0.3-0.3 -0.1 0-0.2 0-0.2 0.1 0-0.2-0.2-0.3-0.3-0.3 -0.2 0-0.3 0.2-0.3 0.4 0 0 0 0 0 0.1 -0.1-0.1-0.1-0.1-0.2-0.1s-0.2 0-0.2 0.1c0 0 0 0 0 0 0-0.2-0.2-0.3-0.3-0.3 -0.2 0-0.3 0.2-0.3 0.3 0 0 0 0.1 0 0.1h0v5.2c0 0.5 0.4 1 1 1h4.4c0.5 0 1-0.4 1-1v-5.1C491.8 240 491.6 239.9 491.4 239.9z" class="Q"/><path d="M492.9 236c0 0.8-0.6 1.4-1.3 1.4h-5.9c-0.7 0-1.3-0.6-1.3-1.4v-1.3c0-0.8 0.6-1.4 1.3-1.4h5.9c0.7 0 1.3 0.6 1.3 1.4V236z" class="P"/><path d="M491.3 233.6h-5.1c-0.3 0-0.6 0.1-0.8 0.4 0.2-0.1 0.4-0.2 0.7-0.2h5.1c0.6 0 1.1 0.5 1.1 1.2v1.2c0 0.3-0.1 0.6-0.3 0.8 0.3-0.2 0.5-0.5 0.5-0.9v-1.2C492.4 234.1 491.9 233.6 491.3 233.6z" class="a"/><path d="M395 216.1c3.7 1.1 5.3 9.7 5.3 20.1 0 0 0.2 2.3 0.7 4.3 0.5 1.9 1.5 4.5 1.5 10.3h-7.6c0-5.8 1-8.5 1.5-10.3 0.5-2 0.7-4.3 0.7-4.3 0-8.9-1-15.8-2.1-15.8 -1.1 0-1.9 5.6-2.1 13.3h-3.6C389.6 223.5 391.7 216.5 395 216.1z" class="w"/><path d="M394.2 215.9c0.3 0 0.6 0.1 0.8 0.1 -3.3 0.4-5.4 7.4-5.7 17.6h-1.2C388.4 223.3 390.6 215.9 394.2 215.9z" class="z"/><rect x="388.5" y="233.7" width="3.9" height="3" class="L"/><circle cx="389.9" cy="228.1" r="2.7" class="A"/><circle cx="389.6" cy="227.9" r="2" class="x"/><path d="M389.6 226.2c0.5 0 1 0.2 1.3 0.6 -0.3-0.2-0.6-0.4-1-0.4 -0.9 0-1.6 0.7-1.6 1.6 0 0.4 0.1 0.7 0.4 1 -0.4-0.3-0.6-0.8-0.6-1.3C387.9 227 388.7 226.2 389.6 226.2z" class="z"/><path d="M393 242.9l1.8 1.8c1.1 1.1 2.9 1.1 4 0 1.1-1.1 1.1-2.9 0-4l-1.8-1.8L393 242.9z" class="u"/><path d="M393.4 239.3c0.9-0.9 2.1-1 2.8-0.3 0 0 0.1 0.1 0.1 0.1 -0.7-0.6-1.9-0.4-2.7 0.4 -0.8 0.8-0.9 2-0.4 2.7 0 0-0.1-0.1-0.1-0.1C392.5 241.4 392.6 240.1 393.4 239.3z" class="z"/><path d="M394.8 250.8h7.6c0.4 0 0.7 0.3 0.7 1.1h-9C394.2 251.1 394.5 250.8 394.8 250.8z" class="B"/><rect x="307.3" y="364.6" width="304.4" height="11.9" class="u"/><polygon points="595 259.4 595 286.3 615.5 286.3 615.5 364.6 303.4 364.6 303.4 259.4 " class="t"/><rect x="505.6" y="259.4" width="109.9" height="26.8" class="F"/><rect x="303.4" y="259.4" width="137.7" height="76.1" class="v"/><rect x="303.4" y="337.4" width="137.7" height="27.2" class="v"/><rect x="443.1" y="259.4" width="60.4" height="26.6" class="v"/><rect x="443.3" y="288.2" width="60.4" height="47.3" class="v"/><rect x="443.3" y="337.4" width="60.4" height="27.2" class="v"/><path d="M390.7 265.5c0.6 0 1.1-0.5 1.1-1.1 0-0.6-0.5-1.1-1.1-1.1h-36.9c-0.6 0-1.1 0.5-1.1 1.1 0 0.6 0.5 1.1 1.1 1.1H390.7z" class="w"/><path d="M390.7 343.6c0.6 0 1.1-0.5 1.1-1.1 0-0.6-0.5-1.1-1.1-1.1h-36.9c-0.6 0-1.1 0.5-1.1 1.1 0 0.6 0.5 1.1 1.1 1.1H390.7z" class="w"/><rect x="596.9" y="288.2" width="18.6" height="76.4" class="v"/><rect x="596.9" y="259.4" width="18.6" height="26.8" class="x"/><path d="M491.8 265.5c0.6 0 1.1-0.5 1.1-1.1 0-0.6-0.5-1.1-1.1-1.1h-36.9c-0.6 0-1.1 0.5-1.1 1.1 0 0.6 0.5 1.1 1.1 1.1H491.8z" class="w"/><path d="M492 294.3c0.6 0 1.1-0.5 1.1-1.1 0-0.6-0.5-1.1-1.1-1.1h-36.9c-0.6 0-1.1 0.5-1.1 1.1 0 0.6 0.5 1.1 1.1 1.1H492z" class="w"/><rect x="505.6" y="288.2" width="89.4" height="76.4" fill="#FFE4BD"/><path d="M568.8 294.3c0.6 0 1.1-0.5 1.1-1.1 0-0.6-0.5-1.1-1.1-1.1h-36.9c-0.6 0-1.1 0.5-1.1 1.1 0 0.6 0.5 1.1 1.1 1.1H568.8z" class="x"/><path d="M610.8 294.3c0.6 0 1.1-0.5 1.1-1.1 0-0.6-0.5-1.1-1.1-1.1h-9.1c-0.6 0-1.1 0.5-1.1 1.1 0 0.6 0.5 1.1 1.1 1.1H610.8z" class="w"/><path d="M492 343.6c0.6 0 1.1-0.5 1.1-1.1 0-0.6-0.5-1.1-1.1-1.1h-36.9c-0.6 0-1.1 0.5-1.1 1.1 0 0.6 0.5 1.1 1.1 1.1H492z" class="w"/><rect x="505.6" y="259.4" width="89.4" height="26.8" class="x"/><rect x="530" y="261.8" width="40.4" height="22.9" class="F"/><rect x="532.1" y="263.7" width="36.1" height="12.6" fill="#42525A"/><rect x="583.9" y="267.9" width="8.9" height="4.2" class="F"/><rect x="572.7" y="267.9" width="8.9" height="4.2" class="F"/><rect x="519" y="267.9" width="8.9" height="4.2" class="F"/><rect x="507.8" y="267.9" width="8.9" height="4.2" class="F"/><rect x="583.9" y="262.5" width="8.9" height="2" class="B"/><rect x="572.7" y="262.5" width="8.9" height="2" class="B"/><rect x="519" y="262.5" width="8.9" height="2" class="B"/><rect x="507.8" y="262.5" width="8.9" height="2" class="B"/><rect x="505.6" y="298.9" width="89.4" height="45.3" class="G"/><rect x="505.6" y="286.3" width="89.4" height="12.7" class="y"/><rect x="508.1" y="302.2" width="84.4" height="40.2" class="y"/><rect x="518.9" y="305.4" width="62.8" height="34.8" class="B"/><rect x="505.6" y="344.2" width="89.4" height="20.4" class="w"/><rect x="505.6" y="364.6" width="89.4" height="11.9" class="A"/><rect x="505.9" y="295.3" width="89.4" height="3.6" class="A"/><path d="M584 300.7c0.6 0 1-0.7 1-1.6 0-0.9-0.5-1.6-1-1.6h-67.3c-0.6 0-1 0.7-1 1.6 0 0.9 0.5 1.6 1 1.6H584z" class="w"/><rect x="512.3" y="289.8" width="7.4" height="2.5" class="B"/><rect x="525.5" y="289.8" width="7.4" height="2.5" class="B"/><rect x="538.7" y="289.8" width="7.4" height="2.5" class="B"/><rect x="551.9" y="289.8" width="7.4" height="2.5" class="B"/><circle cx="567.2" cy="291.1" r="2.4" class="B"/><circle cx="576.5" cy="291.1" r="2.4" class="B"/><circle cx="585.8" cy="291.1" r="2.4" class="B"/><rect x="300.7" y="251.8" width="314.8" height="7.6" class="d"/><path d="M581.5 221.5c0 0-1 0.4-1 1v1.5h-1.8v-1.5c0-0.5-1-1-1-1H581.5z" class="B"/><path d="M564.5 229c1.1-3.4 7.4-6 15.1-6 7.6 0 13.9 2.6 15 6H564.5z" class="M"/><path d="M568.6 228.4h-2.4c1-2.9 6.2-5 13.1-5 0.4 0 0.8 0 1.2 0C574.2 223.6 569.5 225.6 568.6 228.4z" class="N"/><path d="M577 221.1c0 0.7 1.1 0.7 2.5 0.7 1.4 0 2.5-0.1 2.5-0.7 0-0.6-1.1-1.5-2.5-1.5C578.1 219.6 577 220.4 577 221.1z" class="M"/><path d="M578.2 220.4c0 0.2 0.3 0.3 0.7 0.3 0.3 0 0.6-0.2 0.6-0.4 0-0.2-0.3-0.3-0.7-0.3C578.4 220 578.2 220.2 578.2 220.4z" class="a"/><path d="M564.5 229.5h30.1c0.3 0 0.5-0.2 0.5-0.5 0-0.3-0.2-0.5-0.5-0.5h-30.1c-0.3 0-0.5 0.2-0.5 0.5C564 229.3 564.2 229.5 564.5 229.5z" class="E"/><rect x="591.6" y="232.7" width="3.9" height="1.4" class="B"/><path d="M594.2 234.4h1.3c0.2 0 3.4 0.7 4.6-3.9 0.2-0.6-0.2-1.2-0.8-1.4 -0.6-0.2-1.2 0.2-1.4 0.8 -0.8 2.9-2.3 2.6-2.5 2.6h-1.3V234.4z" class="M"/><rect x="563.5" y="232.7" width="3.9" height="1.4" class="B"/><path d="M564.8 234.4h-1.3c-0.2 0-3.4 0.7-4.6-3.9 -0.2-0.6 0.2-1.2 0.8-1.4 0.6-0.2 1.2 0.2 1.4 0.8 0.8 2.9 2.3 2.6 2.5 2.6h1.3V234.4z" class="M"/><path d="M594.5 230.1c0 0-1.3 0.5-1.3 1.5 0 0.9 0 14.7 0 14.7s-0.3 3-3.9 3h-19.6c-3.6 0-3.9-3-3.9-3s0-13.8 0-14.7c0-0.9-1.3-1.5-1.3-1.5H594.5z" class="M"/><path d="M567.5 232.8c0-0.8 0-1.4 0-1.5 0-0.9-1.3-1.5-1.3-1.5h2.3c0 0 1.3 0.5 1.3 1.5 0 0.1 0 0.7 0 1.5H567.5z" class="N"/><path d="M569.8 234.3c0 5.5 0 11.7 0 11.7s0.3 3 3.9 3h-2.3c-3.5 0-3.9-3-3.9-3s0-6.2 0-11.7H569.8z" class="N"/><path d="M563.3 228.9h32.4c0.4 0.1 0.7 0.3 0.7 0.4 0 0.4-0.8 0.8-1.8 0.8h-30c-1 0-1.8-0.4-1.8-0.8C562.6 229.1 562.9 229 563.3 228.9z" class="d"/><rect x="238.5" y="49.1" width="2.2" height="7.1" class="A"/><rect x="237.1" y="48.2" width="4.9" height="1" class="E"/><circle cx="239.6" cy="71.3" r="5.3" class="Q"/><polygon points="246.9 73.8 232.3 73.8 236.3 56.2 242.9 56.2 " class="w"/><rect x="382.2" y="49.1" width="2.2" height="7.1" class="A"/><rect x="380.9" y="48.2" width="4.9" height="1" class="E"/><circle cx="383.3" cy="71.3" r="5.3" class="Q"/><polygon points="390.6 73.8 376 73.8 380 56.2 386.6 56.2 " class="w"/><rect x="526" y="49.1" width="2.2" height="7.1" class="A"/><rect x="524.6" y="48.2" width="4.9" height="1" class="E"/><circle cx="527.1" cy="71.3" r="5.3" class="Q"/><polygon points="534.4 73.8 519.8 73.8 523.8 56.2 530.4 56.2 " class="w"/></svg>