<svg xmlns="http://www.w3.org/2000/svg" viewBox="0 0 768 430"><style>.a{fill:#F8C3DD;}.b{fill:#E7358B;}.c{fill:#EB579F;}.d{fill:#80CDF0;}.e{fill:#FFF;}</style><path d="M159.5 126.9c8.8-3.5 39.3-15.7 71-8.9 8.6 1.8 13 55.8 1.9 51 -11.2-4.8-84-11.4-88.8-17.7C138.8 144.9 159.5 126.9 159.5 126.9z" fill="#F9C32B"/><path d="M260.6 155.5c3.9-3.5 39.8 19.1 41.3 27.7 1.5 8.7-36.6 36.3-46.3 36.3 -69.4 0-38.4-21.8-37.3-31.5C219.5 178.3 260.6 155.5 260.6 155.5z" fill="#A6C42A"/><path d="M310.9 170.8l8.8 18.5 8.7 122c0 9.4 28.2 17 62.9 17 34.8 0 62.9-7.6 62.9-17l8.8-122 8.8-18.5H310.9L310.9 170.8z" class="a"/><path d="M471.8 170.8c0 12.2-36 22-80.4 22 -44.4 0-80.5-9.9-80.5-22v-6.2c14.6-4 58.2-15.8 80.5-15.8 22.2 0 65.9 11.8 80.4 15.8V170.8L471.8 170.8z" class="b"/><path d="M391.3 142.6c44.4 0 80.4 9.9 80.4 22 0 12.2-36 22-80.4 22 -44.4 0-80.5-9.9-80.5-22C310.9 152.5 346.9 142.6 391.3 142.6z" class="c"/><g transform="translate(35.144 -18.266)matrix(0.9174 -0.39796 0.39796 0.9174 -25.302 137.5)"><path d="M404.6 219l-21.3 12.6c0 0 13.5 17.1 26.8 12.2C424.1 238.5 404.6 219 404.6 219L404.6 219z" class="b"/><path d="M404.6 218.2l-25.5 8.7c0 0 17.1 21.7 30.9 16C423.9 237.3 404.6 218.2 404.6 218.2L404.6 218.2z" class="c"/></g><path d="M321.6 215.9l2.5 35 2.5 35c0 0 23.7 8 64.8 8 41.1 0 64.8-8 64.8-8l2.5-35 2.5-35c0 0-28.7 8-69.8 8 -41.1 0-69.8-8-69.8-8H321.6z" class="d"/><path d="M354.6 241.8h2.8v14.6l13.3-14.6h3.6l-9.8 10.8 11.1 17.6h-3.1l-9.8-15.6 -5.2 5.7v9.9h-2.8V241.8z" class="e"/><path d="M380.3 241.8h2.7v25.6h13.7v2.8h-16.4V241.8z" class="e"/><path d="M402.2 241.8h16.7v2.7h-14v9.3h10.4v2.7h-10.4v11h15.3v2.7h-18.1V241.8z" class="e"/><path d="M426.9 241.8h2.8v28.4h-2.8V241.8z" class="e"/><path d="M442 216.2l8.8 18.5 8.7 122c0 9.4 28.2 17 62.9 17s62.9-7.6 62.9-17l8.8-122 8.8-18.5H442L442 216.2z" class="a"/><path d="M602.9 216.2c0 12.2-36 22-80.4 22 -44.4 0-80.5-9.9-80.5-22v-6.2c14.6-4 58.2-15.8 80.5-15.8 22.2 0 65.9 11.8 80.4 15.8V216.2L602.9 216.2z" class="b"/><path d="M522.5 188c44.4 0 80.4 9.9 80.4 22 0 12.2-36 22-80.4 22 -44.4 0-80.5-9.9-80.5-22C442 197.9 478 188 522.5 188z" class="c"/><g transform="translate(35.144 -18.266)matrix(0.9174 -0.39796 0.39796 0.9174 -25.302 137.5)"><path d="M506.8 312.8l-21.3 12.6c0 0 13.5 17.1 26.8 12.2C526.4 332.3 506.8 312.8 506.8 312.8L506.8 312.8z" class="b"/><path d="M506.9 312l-25.5 8.7c0 0 17.1 21.7 30.9 16 13.8-5.6-5.5-24.8-5.5-24.8L506.9 312z" class="c"/></g><path d="M452.7 261.3l2.5 35 2.5 35c0 0 23.7 8 64.8 8 41.1 0 64.8-8 64.8-8l2.5-35 2.5-35c0 0-28.7 8-69.8 8 -41.1 0-69.8-8-69.8-8H452.7z" class="d"/><path d="M485.7 287.2h2.8v14.6l13.3-14.6h3.6l-9.8 10.8 11.1 17.6h-3.1l-9.8-15.6 -5.2 5.7v9.9h-2.8V287.2z" class="e"/><path d="M511.4 287.2h2.7v25.6h13.7v2.8h-16.4V287.2z" class="e"/><path d="M533.4 287.2h16.7v2.7h-14v9.3h10.4v2.7h-10.4v11h15.3v2.7h-18.1V287.2z" class="e"/><path d="M558 287.2h2.8v28.4h-2.8V287.2z" class="e"/><path d="M218.4 206.5c39.6 2.5 42.7 33.9 44.2 42.6 1.5 8.7-10.6 36.7-14.9 45.4 -22.4 44.8-78.9-38.3-80.8-47.9C154.6 182.8 218.4 206.5 218.4 206.5z" class="c"/></svg>