<svg xmlns="http://www.w3.org/2000/svg" viewBox="0 0 768 430"><style>.a{fill:#4A62AF;}.b{fill:#D6B096;}.c{fill:#EDC6AB;}.d{fill:#252B03;}.e{fill:#59514B;}.f{fill:#FFF;}.g{fill:#FFF;opacity:0.1;}.h{fill:#724526;}.i{fill:#F8C3DD;}.j{fill:#E7358B;}.k{fill:#EB579F;}.l{fill:#80CDF0;}</style><path d="M275.9 299.1c0 0-17.8 4.8-24.2 7.6 -6.5 2.8-16 8.1-12.7 9.6 3.3 1.5 35.8 1.4 40.3-0.6 4.5-2 3.4-10.2 3.4-10.2L275.9 299.1z" fill="#29417C"/><path d="M277.4 307.8c0 0-7.7 3.7-10.6 4.2s-5.9-1.3-19 3.7c-13.1 5-22.5 7.8-18.7 9.8 3.8 2 12.3 3.3 12.3 3.3s16.8-4.8 24.5-6.3c7.7-1.5 18-1.3 18-1.3L277.4 307.8z" class="a"/><path d="M384.1 326.6c0 0 5.4 9.6 6 17 0.6 7.4-4.3 14.4-9.1 16.9 -4.9 2.5-15.5 3.2-15.5 3.2s-29.2-19.7-15.8-35.4c13.4-15.8 29.1-8.3 29.1-8.3L384.1 326.6z" class="b"/><path d="M333.7 369.1c0 0-25.5-5.5-39.9-17.4 -14.4-11.8-22-17.8-29.9-20.6 -7.9-2.8-22.3-0.9-22.5-2.7 -0.2-1.9 28.1-6.6 36-9.4 7.9-2.8 42.2 12.1 42.2 12.1l20 23.6L333.7 369.1z" class="b"/><path d="M354.6 331.1c0 0 12.5 10.9 14.8 20.6 2.3 9.7-2.8 16-9.3 17.6 -6.5 1.6-26.4 2.5-31.5-3 -5.1-5.6-19.5-19.2-19.5-19.2s5.6-15.3 24.8-19C353.2 324.4 354.6 331.1 354.6 331.1z" class="c"/><path d="M354.6 331.1c0 0 7-9.3 15.1-9 8.1 0.2 14.5 4.5 14.5 4.5s1.2-8.3-2-10.4c-3.2-2-9.4-9.8-20.6-16.2 -11.2-6.4-17.6-12.3-17.6-12.3l-18.4 5.8c0 0-2.4 15.8-2.4 15.9 0 0.1 6.9 11.7 10.7 12.9C337.4 323.5 354.6 331.1 354.6 331.1z" fill="#493A38"/><path d="M333.5 288c0 0 1.2 8.3 0 13.7 -1.2 5.3-1.2 5.3-1.2 5.3s20.6 13.4 22.2 16.2c1.6 2.8 0 7.9 0 7.9s-11.4-1.9-22.2 3.9c-10.9 5.8-16.7 13.4-18.3 14.4 -1.6 0.9-8.6 4.2-21.5-8.3 -13-12.5-21.1-19.5-22.9-32.9 -1.9-13.4 3.7-26.2 3.7-26.2L333.5 288z" fill="#594945"/><path d="M346.1 216c0 0 16 14.5 17.5 15.2s35-8.8 35.4-10.5c0.3-1.6 6.9-13.4 10.5-14.5 3.6-1.1 13.9-3.3 15.6-1.4 1.7 1.9 1.4 3.9-2.3 4.2s-6.5 1-7 1.2 -2.1 2.4-2.1 2.4 8.4-2.2 10.2-2.4c1.8-0.2 5.8-0.6 6.9 0.6 1.2 1.2 1.2 3.5-3.3 4 -4.5 0.5-4.9 1.1-4.9 1.1l7.4-0.7c0 0 2.1 0 2.2 1.8 0.2 1.8-2.1 3.5-6.7 4.1 -4.5 0.6-6.1 2.3-6.1 2.3s2.9-0.9 5.5-1.3c2.6-0.3 4.6-1.3 5.7-0.4 1.1 1-0.4 3.9-5.2 4.6 -4.8 0.7-11 5.5-13.9 6.5 -2.9 0.9-7 2.6-8 3.2 -0.9 0.6-28.2 29-43.7 26.9 -15.5-2.1-34.3-36.5-34.3-36.5L346.1 216z" class="b"/><path d="M398.6 173.6c0 0-9.9 17.9-8.3 29.2 1.6 11.3 4.4 21.5 8.3 28.4 3.9 6.9 11.1 9.3 12.3 19.2 1.2 10-0.9 19.7-2.8 21.5 -1.9 1.9 0.2 5.1 3.1 5.1s14.7-9.3 12.4-22.7c-2.3-13.4-14.4-28.4-15.1-38.7 -0.7-10.3 3.5-32.8 0.5-38.8C406 170.8 398.6 173.6 398.6 173.6z" fill="#EA4E18"/><path d="M368 229.4l-22.8 20.2 -15.9-20c0 0-11.1-12.1-0.1-22.8 11.1-10.7 25.2 3.9 27.8 7.2C359.6 217.1 368 229.4 368 229.4z" fill="#3D55A2"/><path d="M293.9 199.7c0 0-9.3 13-16.3 43.6 -7.1 30.6-8 49.4-8 49.4s15.6 11.7 41.8 8.3c26.2-3.4 39-7.4 39-7.4s6.5-33.3 5.3-58.7c-1.1-25.3-9.2-37.7-9.2-37.7L293.9 199.7z" fill="#678FCE"/><polygon points="340.9 206 333.6 218.4 309.2 202.8 347.9 198.1 351.7 214 " class="a"/><path d="M326.8 230.7c0 0 17.4 15.5 19.1 16 1.7 0.5 38.3-19.5 38.3-21.3s4.7-15.7 8.4-17.6c3.6-1.9 14.2-6.3 16.4-4.6 2.2 1.7 2.3 3.9-1.6 5 -3.9 1.1-6.7 2.4-7.2 2.7 -0.5 0.3-1.8 3-1.8 3s8.5-4 10.5-4.6c1.9-0.5 6-1.7 7.6-0.7 1.5 1 2 3.5-2.7 4.9 -4.7 1.4-5.1 2.1-5.1 2.1l7.8-2.2c0 0 2.2-0.5 2.7 1.5 0.5 1.9-1.6 4.2-6.3 5.7 -4.7 1.5-6.1 3.6-6.1 3.6s2.9-1.6 5.6-2.4c2.7-0.9 4.7-2.3 6.1-1.5 1.4 0.8 0.3 4.2-4.7 5.9 -5 1.7-10.7 8.1-13.6 9.7 -2.9 1.6-7 4.1-7.9 4.9 -0.9 0.8-32.6 28.3-49.6 29.2 -17 0.8-35.7-24.1-35.7-24.1L326.8 230.7z" class="c"/><path d="M335.7 235.4l-22.3 24.5 -19.5-19.8c0 0-13.5-11.8-2.8-24.7 10.7-12.9 27.7 1.3 30.9 4.5C325.2 223.1 335.7 235.4 335.7 235.4z" class="a"/><path d="M351.9 201.7l-39.6 5.3c-21.2 2.8-40.6-12.1-43.5-33.2l-6.2-46.2c-2.8-21.2 12.1-40.6 33.2-43.5l39.6-5.3c21.2-2.8 40.6 12.1 43.5 33.2l6.2 46.2C387.9 179.4 373 198.9 351.9 201.7z" class="c"/><path d="M339 141.8c0 0-3.7-16.1 12.4-19.2 16.1-3.1 19.3 11.3 19 15.9C370 143 339 141.8 339 141.8z" class="d"/><circle cx="354.6" cy="139.6" r="15.8" class="e"/><circle cx="354.6" cy="139.6" r="14.7" class="f"/><circle cx="357.7" cy="143.3" r="9.8" class="d"/><path d="M359.3 145c3.3-0.6 5.7-3.2 6.1-6.2 -1.9-3.1-5.6-4.9-9.4-4.2 -2.4 0.5-4.4 1.8-5.7 3.6 0 0.3 0.1 0.7 0.1 1C351.2 143.2 355.2 145.8 359.3 145z" class="g"/><path d="M309 145.8c0 0-0.7-16.5-17-15.3 -16.3 1.2-15.7 16-14.2 20.3C279.4 155.1 309 145.8 309 145.8z" class="d"/><circle cx="293.4" cy="147.7" r="15.8" class="e"/><circle cx="293.4" cy="147.7" r="14.7" class="f"/><path d="M336.2 165.7c0.3 2.1-3.5 5.2-8.5 5.9 -5 0.7-9.4-1.3-9.7-3.4 -0.3-2.1 4.3 1 9.3 0.3C332.3 167.8 335.9 163.6 336.2 165.7z" fill="#BC6C61"/><path d="M341.8 174.9c-0.4 0.1-0.7 0.3-0.7 0.6 0.2 4.2-4.8 7.7-11.3 8.5l-0.4 0.1 -0.4 0.1c-6.5 0.9-12.2-1.2-13.1-5.3 -0.1-0.3-0.4-0.4-0.9-0.4 -0.5 0.1-0.8 0.4-0.7 0.7 1.1 4.6 7.6 7.5 14.9 6.5l0.4-0.1 0.4-0.1c7.3-1 12.8-5.5 12.7-10.2C342.7 175 342.3 174.8 341.8 174.9z" fill="#422522"/><circle cx="296.4" cy="150.9" r="9.8" class="d"/><path d="M298 152.6c3.3-0.6 5.7-3.2 6.1-6.2 -1.9-3.1-5.6-4.9-9.4-4.2 -2.4 0.5-4.4 1.8-5.7 3.6 0 0.3 0.1 0.7 0.1 1C289.9 150.8 293.9 153.4 298 152.6z" class="g"/><path d="M287.4 97.4c0 0 5.8 16.3 13.5 22.8 7.7 6.6 15.2 8.3 15.2 8.3s-5.7-5.2-8.2-8.5c-2.5-3.3-4.2-9.5-4.2-9.5s7.4 5.7 18.3 10.2c10.9 4.5 15.7 2.6 15.7 2.6l-11.1-20.5c0 0 9.2 10.1 14.6 11.8s6.2 1.8 6.2 1.8l-7.3-13.8c0 0 16.3 3.7 24.8 14.2 8.5 10.5 9.6 13.9 9.6 13.9s1.1-6.9-0.8-12c-1.9-5.1-3.1-7.4-3.1-7.4s6.5 9.3 8 15.9c1.5 6.7 1.9 12.8 1.9 12.8s2-2.9 2.5-3.4c0.5-0.5 6.2 1.3 6.2 1.3s7.7-41.2-20.3-62.7c-18.8-14.4-41.3-12.7-41.3-12.7s-1.4-5.8-8.2-7.7c-6.8-1.9-11.6 0.4-11.6 0.4s10.5-1.7 13.3 3.1c2.9 4.8 2.9 4.8 2.9 4.8s-25.9-13.7-55.8 10.5c-29.9 24.2-24.8 57.4-24.8 57.4s0.9-6.7 1.8-10.8c0.9-4 1.9-5.3 1.9-5.3s-2.1 10 0 17.8c2.2 7.8 8.4 18.1 8.4 18.1l9.8-3.6c0 0 1.9-16.4 3.1-20.8 1.2-4.4 1.7-5.2 1.7-5.2s-1.9 9.8-0.6 15.3c1.3 5.5 2.7 7.6 2.7 7.6s0.7-27.4 6.3-35.8S287.4 97.4 287.4 97.4z" fill="#B76B37"/><path d="M350.2 75.5c-1.2-0.5-2.5-1-3.8-1.3 1.5 0.3 3 0.8 4.4 1.4C350.7 75.6 350.4 75.6 350.2 75.5zM342 74.8c-0.2-0.1-0.4-0.2-0.6-0.3 0.2-0.1 0.3-0.1 0.5-0.1C341.9 74.5 341.9 74.6 342 74.8z" style="fill:#EAA97D;opacity:0.6"/><path d="M362.9 119.1c-1.3-1.1-3.2-1.4-4.8-1.8 -1.8-0.5-3.8-0.9-5.6-1.2 -1.9-0.3-3.8-0.7-5.6-0.8 -1.8-0.1-4-0.6-5.5 0.8 -1 1-1 2.2 0.1 3.1 1.4 1.3 3.3 0.8 5.1 0.7 1.8 0 3.7-0.1 5.5-0.1 1.8 0 3.6 0.2 5.4 0.4 1.7 0.1 3.5 0.7 5.2 0.3C363.2 120.4 363.4 119.6 362.9 119.1z" class="h"/><path d="M278.4 131c1-1.4 2.7-2.2 4.1-3.1 1.6-1 3.3-1.9 5.1-2.8 1.7-0.9 3.4-1.7 5.2-2.4 1.7-0.6 3.7-1.7 5.5-0.8 1.2 0.6 1.6 1.8 0.8 3 -1 1.6-3 1.7-4.7 2.1 -1.8 0.5-3.5 0.9-5.3 1.5 -1.7 0.6-3.4 1.2-5 1.9 -1.6 0.6-3.2 1.6-4.9 1.8C278.5 132.4 278 131.6 278.4 131z" class="h"/><circle cx="363.1" cy="140.1" r="3" class="f"/><circle cx="354.5" cy="149.9" r="1.1" class="f"/><circle cx="301.4" cy="148.2" r="3" class="f"/><circle cx="292.8" cy="158" r="1.1" class="f"/><path d="M399 305.1c3.4-1.3 15.2-6.1 27.5-3.4 3.3 0.7 5 21.6 0.7 19.8 -4.3-1.9-32.6-4.4-34.4-6.9S399 305.1 399 305.1z" fill="#F9C32B"/><path d="M438.2 316.2c1.5-1.4 15.4 7.4 16 10.7 0.6 3.4-14.2 14.1-17.9 14.1 -26.9 0-14.9-8.5-14.4-12.2C422.2 325.1 438.2 316.2 438.2 316.2z" fill="#A6C42A"/><path d="M465 322.2l3.4 7.2 3.4 47.3c0 3.6 10.9 6.6 24.4 6.6s24.4-2.9 24.4-6.6l3.4-47.3 3.4-7.2H465L465 322.2z" class="i"/><path d="M527.3 322.2c0 4.7-14 8.5-31.2 8.5 -17.2 0-31.2-3.8-31.2-8.5v-2.4c5.6-1.5 22.6-6.1 31.2-6.1 8.6 0 25.5 4.6 31.2 6.1V322.2L527.3 322.2z" class="j"/><g transform="translate(35.144 -18.266)matrix(0.9174 -0.39796 0.39796 0.9174 -25.302 137.5)"><path d="M394.5 387.4l-8.2 4.9c0 0 5.2 6.6 10.4 4.7C402.1 395 394.5 387.4 394.5 387.4L394.5 387.4z" class="j"/><path d="M394.5 387.1l-9.9 3.4c0 0 6.6 8.4 12 6.2C402 394.5 394.5 387.1 394.5 387.1L394.5 387.1z" class="k"/></g><path d="M469.1 339.6l1 13.5 1 13.5c0 0 9.2 3.1 25.1 3.1 15.9 0 25.1-3.1 25.1-3.1l1-13.5 1-13.5c0 0-11.1 3.1-27 3.1s-27-3.1-27-3.1H469.1z" class="l"/><path d="M515.8 339.7l3.4 7.2 3.4 47.3c0 3.6 10.9 6.6 24.4 6.6 13.5 0 24.4-2.9 24.4-6.6l3.4-47.3 3.4-7.2H515.8L515.8 339.7z" class="i"/><path d="M578.1 339.7c0 4.7-14 8.5-31.2 8.5 -17.2 0-31.2-3.8-31.2-8.5v-2.4c5.6-1.5 22.6-6.1 31.2-6.1 8.6 0 25.5 4.6 31.2 6.1V339.7L578.1 339.7z" class="j"/><g transform="translate(35.144 -18.266)matrix(0.9174 -0.39796 0.39796 0.9174 -25.302 137.5)"><path d="M434.1 423.7l-8.2 4.9c0 0 5.2 6.6 10.4 4.7C441.7 431.3 434.1 423.7 434.1 423.7L434.1 423.7z" class="j"/><path d="M434.1 423.4l-9.9 3.4c0 0 6.6 8.4 12 6.2 5.4-2.2-2.1-9.6-2.1-9.6L434.1 423.4z" class="k"/></g><path d="M519.9 357.2l1 13.5 1 13.5c0 0 9.2 3.1 25.1 3.1 15.9 0 25.1-3.1 25.1-3.1l1-13.5 1-13.5c0 0-11.1 3.1-27 3.1 -15.9 0-27-3.1-27-3.1H519.9L519.9 357.2z" class="l"/><path d="M532.7 367.2h1.1v5.7l5.1-5.7h1.4l-3.8 4.2 4.3 6.8h-1.2l-3.8-6 -2 2.2v3.8h-1.1L532.7 367.2 532.7 367.2z" class="f"/><path d="M542.7 367.2h1.1v9.9h5.3v1.1h-6.4L542.7 367.2 542.7 367.2z" class="f"/><path d="M551.2 367.2h6.5v1h-5.4v3.6h4v1.1h-4v4.2h5.9v1.1h-7V367.2z" class="f"/><path d="M560.7 367.2h1.1v11h-1.1V367.2z" class="f"/><path d="M481.9 349.7h1.1v5.7l5.1-5.7h1.4l-3.8 4.2 4.3 6.8h-1.2l-3.8-6 -2 2.2v3.8h-1.1L481.9 349.7 481.9 349.7z" class="f"/><path d="M491.9 349.7h1.1v9.9h5.3v1.1h-6.4L491.9 349.7 491.9 349.7z" class="f"/><path d="M500.4 349.7h6.5v1h-5.4v3.6h4v1.1h-4v4.2h5.9v1.1h-7V349.7L500.4 349.7z" class="f"/><path d="M509.9 349.7H511v11h-1.1V349.7z" class="f"/></svg>