<svg xmlns="http://www.w3.org/2000/svg" viewBox="0 0 768 430"><style>.a{fill:#665C4B;}.b{fill:#E0AB85;}.c{fill:#5B4124;}.d{fill:#7A5B36;}.e{fill:#352412;}.f{fill:#FFF;}.g{fill:#35200B;}.h{fill:#CE493E;}.i{fill:#B7D17D;}.j{stop-color:#777;}.k{stop-color:#626262;}.l{stop-color:#2C2C2C;}.m{stop-color:#1D1D1D;}.n{stop-color:#FFF;}.o{stop-color:#EAEAEA;}.p{stop-color:#BBB;}.q{stop-color:#EDB58C;}.r{stop-color:#D9A079;}.s{stop-color:#A76949;}.t{stop-color:#8B4A2D;}</style><polygon points="358.8 237.5 276.6 190 274.3 193.1 357.8 241.9 " class="a"/><polygon points="276.6 190 323.3 167.4 395.1 205.9 358.8 237.5 " fill="#DBD4CA"/><path d="M314.5 174l-3.4-2.6 -1 0.5 2.2 1.8c0.5 0.4 0.4 1.1-0.1 1.4l-12.9 6.6c-1.4 0.7-3 0.7-4.4-0.1l-2.1-1.1 -2.1 1 3.3 1.8c1.6 0.9 3.5 0.9 5.1 0.1l15.1-7.7C315 175.3 315 174.4 314.5 174z" class="a"/><polygon points="292.8 180.3 310.1 171.8 310.1 171.8 311.1 171.3 309.8 170.2 289 180.1 290.7 181.4 " class="a"/><path d="M386.4 189.3c0 0-18.6-3.8-19.7-5.3 -1-1.6-5.8-7.1-9.5-6.8 -3.8 0.3-8.4 1.1-9.1 2.1 -0.7 1 0 4.7 0 4.7s-1.4-0.1-2 1.3c-0.6 1.4 0 3.5 0 3.5s-0.7 0.4-0.7 1.2 0 2 0 2 -1 0-0.8 0.8c0.2 0.8 3.1 5 4.9 5.4 1.8 0.4 3.9 1.2 6.9 1.4 3 0.2 4.7-1.3 4.7-1.3s10.6 4.2 16.9 6.4c6.3 2.2 13.3 0.1 13.3 0 0-0.1 0.5-6.6 0.3-8C391.3 195.3 386.4 189.3 386.4 189.3z" class="b"/><path d="M390.5 175.4c0 0 0.5-7.4 0-10.5 -0.5-3 6.3-5.1 6.3-5.1l20.4-1.6 4 9.1c0 0 7.2 6.4-12.8 12.8 -20 6.4-22.5 3.4-21.4 0.5C388.2 177.8 390.5 175.4 390.5 175.4z" class="b"/><polygon points="399.6 319.6 399.6 404.8 407.2 407.7 407.2 321.2 " class="c"/><polygon points="407.2 321.2 407.2 407.7 419.1 402.3 419.1 316.6 " class="d"/><polygon points="451 300.2 451 385.5 458.6 388.4 458.6 301.9 " class="c"/><polygon points="458.6 301.9 458.6 388.4 470.5 383 470.5 297.3 " class="d"/><path d="M381.9 361.7c0 0 0 3.3-1 4.1 -1 0.8-8.6 5.2-14.5 4 -5.9-1.3-11.5-7-14.6-7.3 -3-0.3-12.6-1.2-19.4-5 -6.8-3.9-9.6-8-9.6-10.5 0-2.5 1.2-4 1.2-4s26.8 14.3 39.5 17.4C376.2 363.4 381.9 361.7 381.9 361.7z" fill="#580D09"/><path d="M336.4 347.6c0.8 2.7 23.3 5.4 29.5 6.7 6.3 1.3 15.3-6.7 15.3-6.7 -0.7-5.5-1.7-11.4-2.2-14.5 -1-6.1 1-24.1 0-37.3 -1-13.2-4.5-49.6-4.5-49.6s-19.5-6.2-29.1-1.8c-9.6 4.4-9.6 27.2-4.8 45 4.8 17.8 19.3 47.1 16.8 50.3 -1.8 2.3-7.6 1.6-12.5 0.4C336.5 339.2 335.6 344.9 336.4 347.6z" fill="#D09B75"/><path d="M328.5 337.8c-2.7 2.5-7.1 6.1-3.8 10.7 3.4 4.6 10.9 9 16.3 10.3 5.4 1.3 11.9 1 14 2.7 2.1 1.7 9.2 7.8 15.7 6.1 6.5-1.7 11.1-3.4 11.5-7.5 0.2-2.1-0.3-7.1-1-12.4 0 0-9 8-15.3 6.7 -6.3-1.3-28.7-4-29.5-6.7s0.1-8.4 8.4-7.3c-1.9-0.5-3.7-1-5.1-1.4C334.8 337.2 331.2 335.3 328.5 337.8z" fill="#BE392E"/><path d="M365.7 369.4c0 0 0 3.3-1 4.1 -1 0.8-8.6 5.2-14.5 4 -5.9-1.3-11.5-7-14.6-7.3 -3-0.3-12.6-1.1-19.4-5 -6.8-3.9-9.6-8-9.6-10.5 0-2.5 1.2-4 1.2-4s26.8 14.3 39.5 17.4C360 371.2 365.7 369.4 365.7 369.4z" fill="#681D19"/><polygon points="354 294.9 409.1 308.4 470.5 289.6 424.4 282.9 " fill="#B78F5E"/><path d="M476.5 99.2c0 0-1.3-9.9 8.9-10.5 10.2-0.7 19.6 3.6 21-2.8 1.3-6.5-5.8-3.4-5.8-3.4s5.7-2.7 7.5-0.3c1.8 2.4 3.9 7 1.3 8.9 -2.7 1.9-4 1.9-4 1.9s6.9-1.6 11.2 1.3c4.3 2.9 8.4 6.8 8.4 6.8s-3-2-5.7-0.9c-2.7 1.1-5 3.2-5 3.2l4.4-1.3c0 0-2.4 2.9-3.8 5.3 -1.3 2.4-0.5 5.4-5.3 9 -4.8 3.6-7.7 3.6-7.7 3.6s8.8 0.2 11.7-3c2.8-3.2 4.8-4.3 4.8-4.3s-2.2 2.9-2.8 3.8c-0.7 0.9 0.6 4-3 6.1 -3.6 2.1-7.5 2.3-7.5 2.3s7 3 8.9 7.1c1.9 4.1-1.8 6.1-1.8 6.1s1.7-3.3 0.5-4.2c-1.2-0.9-3.8-3.8-7.6-1.4 -3.8 2.4-8.7 6.6-15.9 2.9 -7.2-3.7-8.1-9-8.1-9s0.5 8.4 5.5 9.8c5 1.4 7.9 1.1 7.9 1.1s-6.6 5.4-11.8 0.3c-5.2-5-4.8-10.3-4.8-10.3s-4.1-0.8-2.8 2.7c1.2 3.5 3.2 3.6 3.2 3.6s-3-0.2-5.3-3.2c-2.3-3-3-6.2-0.5-8.6C474.8 119.4 476.5 99.2 476.5 99.2z" class="e"/><path d="M399.1 58.6c0 0-23.4 8.8-31.8 23.7 -8.3 14.9-3.6 19.1-5.8 25.7 -2.2 6.6-10.6 5.1-12.1 6.5 -1.5 1.4-1.7 5.2 1.1 7.4 2.8 2.2 5 2.6 5.2 4.5 0.2 1.8-5.8 16.5 7.1 27.8 12.8 11.3 26.9 11.5 26.9 11.5s27.2 3.4 35.2-5.4c8-8.8 35.9-36.6 15.2-67.9C419.4 61.1 399.1 58.6 399.1 58.6z" class="b"/><path d="M382.2 113.1c0 0 1.8 3.8-2.3 7.7 -4.1 3.9-8.8 1.1-9.5 0.1 -0.7-1-1.3-1.7-0.3-2.3S382.2 113.1 382.2 113.1z" fill="#C98F65"/><path d="M382.3 114.9c0 0-0.8 6.2-6.1 6.7 -5.3 0.5-6.3-2.9-6.3-2.9s-2-3.7-1.4-9.3c0.5-5.6 2.2-6.9 2.2-6.9s6.9-1 9.1 3.8c2.3 4.8 2.4 6.8 2.4 6.8L382.3 114.9z" class="f"/><path d="M382.3 114.9c0 0-1-6.9-4.8-9.4 -3.8-2.5-8.5 1.2-10.7-2.2 -2.2-3.4-1.3-3.8-1.3-3.8s3.7 1.7 7 1.8c3.3 0 6.7 1.6 8.3 4.9C382.4 109.5 382.3 114.9 382.3 114.9z" class="g"/><path d="M369.2 105.5c0 0 6-2.2 7.5 6.3 1.5 8.4-5.9 8.3-5.9 8.3s-2.3-1.2-2.6-7.1C367.8 107.1 369.2 105.5 369.2 105.5z" fill="#8DD83D"/><path d="M368.4 107.5c0 0 4.1-0.8 5.2 5.2 1.1 6.4-4.2 5.8-4.2 5.8s-1.2-1.3-1.6-5.4C367.5 109.1 368.4 107.5 368.4 107.5z" class="g"/><circle cx="373.2" cy="109.7" r="1.6" class="f"/><path d="M370.1 137.4c0-0.1 0.1-0.1 0.1-0.2 0.1-0.2 0.1-0.4 0-0.6 0-0.1-0.1-0.2-0.1-0.3 0 0 0 0 0 0 0 0 0 0-0.1-0.1 -0.2-0.3-0.6-0.4-1-0.2 -0.6 0.3-0.6 1.1-0.1 1.5 -1.2 2.8-3.2 5.1-6.3 6 -2.7 0.8-4.8 0-7.4-0.8 0.1 0.2 0.1 0.4 0.2 0.6 2.1 1.9 5.3 1.6 7.9 0.8C366.5 143.2 369.2 140.6 370.1 137.4z" class="g"/><path d="M471.7 97.9c0 0 6.7-5.2 9.2 8.5 2.4 13.7-2.4 18.2-7.1 18.4s-5.9-0.9-5.9-0.9l2.3-25.4L471.7 97.9z" fill="#85B730"/><path d="M438.3 68.5L438.3 68.5 438.3 68.5z" fill="#A3733A"/><path d="M380.5 98c0 0-3.6-5.1-8.2-6.8 -4.6-1.6-8 0.2-1.1 2.8C378.1 96.7 380.5 98 380.5 98z" class="g"/><path d="M320.2 355.4c0.8 2.7 23.3 5.4 29.5 6.7 6.3 1.3 15.3-6.7 15.3-6.7 -0.7-5.5-1.7-11.4-2.2-14.5 -1-6.1 1-24.1 0-37.3s-4.5-49.6-4.5-49.6 -19.5-6.2-29.1-1.8c-9.6 4.4-9.6 27.2-4.8 45 4.8 17.8 19.3 47.1 16.8 50.3 -1.8 2.3-7.6 1.6-12.5 0.4C320.3 346.9 319.4 352.7 320.2 355.4z" class="b"/><path d="M312.3 345.5c-2.7 2.5-7.1 6.1-3.8 10.7 3.4 4.6 10.9 9 16.3 10.3 5.4 1.3 11.9 1 14 2.7 2.1 1.7 9.2 7.8 15.7 6.1 6.5-1.7 11.1-3.4 11.5-7.5 0.2-2.1-0.3-7.1-1-12.4 0 0-9 8-15.3 6.7 -6.3-1.3-28.7-4-29.5-6.7 -0.8-2.7 0.1-8.4 8.4-7.3 -1.9-0.5-3.7-1-5.1-1.4C318.6 344.9 315 343 312.3 345.5z" class="h"/><polygon points="354 303.2 354 388.4 361.5 391.4 361.5 304.8 " class="c"/><polygon points="361.5 304.8 361.5 391.4 373.4 385.9 373.4 300.2 " class="d"/><polygon points="470.5 289.6 470.5 304.9 409.3 325.6 409.3 308.4 " fill="#9B794C"/><polygon points="409.3 325.6 354 310.8 354 294.9 409.3 308.4 " fill="#82633F"/><path d="M352.3 246.4c0 0-9.3 3.5-11.8 15.7 -2.5 12.2 5.9 27.7 7.4 31 1.6 3.3 8.2 4.9 10.7 4.9 2.6 0 5.1-2.6 5.1-2.6s-1-0.5 2.4 0c3.3 0.5 5.2 0 5.2 0s24.2 5.2 41.4 2.6 29.6-6.3 33.4-11.4c3.8-5.1 0-34.8 0-34.8l-65.6-5.5 -11.1-1.4L352.3 246.4z" fill="#6D5554"/><path d="M420.4 168.4c0 0 3.6 2.7-5.2 5.8 -8.8 3.1-24.2 8-26 6.8 -1.8-1.1 1.3-5.6 1.3-5.6s-5.4 4.6-10.6 14.5c-5.2 9.9-4.4 35.1-3.2 45.8 1.2 10.8 0.4 14.7 2.3 17.6 1.9 2.9 15 12 38.8 9.4 23.7-2.7 30.4-7.7 30.4-11.2 0-3.5-1.5-44.3-13.1-65.1 -11.6-20.8-15.4-21.9-15.4-21.9L420.4 168.4z" fill="#EA8F88"/><path d="M374 216.7c0 0-12.6 16.4-14.7 16.6 -2.2 0.1-25.1-13.5-25.6-15.1 -0.5-1.5 0.6-8 0.1-10.7 -0.5-2.7-5.8-4.2-6.5-5.1s-2.6 0.1-1.7 1.7c0.9 1.6 2.2 2.7 2 4.3 -0.2 1.6-2.2 4.7-5.2 4.3 -3-0.4-13.4-4.2-15.4-6 -2.1-1.8-2.5-3.4-3.2-2.3 -0.7 1.1-0.1 3.6 0.9 4.9 1 1.2 1.6 2.2 1.9 2.9 0.2 0.8 3.7 7.9 5.4 9.9 1.7 2 13.1 5.8 14 7.3s27.7 25 38.8 24.8c11.1-0.2 27.6-25.3 27.6-25.3L374 216.7z" class="b"/><path d="M369.5 221.1c0 0 13.7-41.6 32.2-36.8 18.5 4.8 6.5 28.9 1.8 36 -4.6 7.2-12 14.3-12 14.3L369.5 221.1z" fill="#ED5E4F"/><path d="M373 216.7c0 0-0.8-2.3-2.9-0.8 -2.1 1.6-2 5.2-3.6 6.5 -1.6 1.3-3.8 3.5-3.5 5.2 0.3 1.7 3.1 7.1 10.3 9.7 7.2 2.7 12.5 4.2 14.1 3.1 1.5-1 1.7-2.8 4.5-5.1s3.3-3.6 3.3-4.2c0-0.6-0.6-0.7-0.6-0.7s-7 0.4-14.5-4.5C372.5 221 373 216.7 373 216.7z" class="h"/><path d="M417.4 171.8c0.9 2.7 0.8 4 0.8 4s1.7-3.3 0.1-5.6c-1.3-1.8-4.2-3.1-5.4-3.6 -0.3-0.1-0.5-0.2-0.5-0.2s0.2 0.1 0.5 0.2c3.7 1.3 27.8 8.7 48-16.7 21.8-27.5 12.1-50.6 12.1-50.6s0-1.6-0.2-4.1c-0.5-4.9-2-13.6-7.1-21.8l0 0c-3.3-5.3-8-10.5-14.8-14.4 -4.3-2.5-8.4-4.1-12.2-5.1 -16.3-4.2-27 3.2-27 3.2s-0.2-1.7 2.2-4c2.4-2.3 3.8-1.9 3.8-1.9s-2.1-0.9-4.9 1.6c-2.8 2.6-4.3 6.4-4.3 6.4s2.2-14.4-9.3-15.9c-11.5-1.4-12.7 4-12.7 4s10.7-7 13.9-1.1 2.9 9.6 2.9 9.6 -2.6-1.8-7-2.9c-6-1.6-15.5-1.9-26.6 4.9 -1.2 0.7-2.2 1.5-3.3 2.2 -16 11.5-16.2 25.1-16.2 25.1l8.5 4.5c0 0 2.5-8.7 6.3-12.5 3.8-3.8 6-4.6 6-4.6s-7 7.4-8 11.5c-1 4.1-1.7 8-1.7 8s13.7 7.9 23.7 11c10 3.1 11.1 3 11.1 3l3.3-9.7c0 0 4.3 20.3 0.5 35.4s-11.4 21.4-11.4 21.4 12 0.1 17.7-7.1c5.7-7.1 7.3-14.1 7.3-14.1s-0.6 5.8-2.7 10.1c-2.1 4.3-4.2 5.8-4.2 5.8s8.7-2.1 13-9.6c4.3-7.6 4.9-8.9 4.9-8.9s8.6-5.9 9.8 6.2c1.1 12.1-13.8 12.9-13.8 12.9s1 5.4-2.2 9.8c-3.3 4.3-9.6 7.9-9.6 7.9s3.1 3.4 3 7.6c-0.1 4.1-4 3.7-4 3.7s5.5 2.3 6.1-2.2c0.6-4.5-3.1-7.5-3.1-7.5S416.5 169.1 417.4 171.8z" class="e"/><path d="M342.4 203.1c0 0-0.4 1.2-0.3 1.3 0.1 0.2 1.2-0.7 1.2-0.7l0.8-0.8 -0.9-0.6L342.4 203.1z" fill="#5D933E"/><rect x="356.8" y="155" transform="matrix(-0.833 -0.5533 0.5533 -0.833 556.4379 525.6432)" width="1.6" height="47.7" class="h"/><rect x="358.1" y="155.9" transform="matrix(-0.8335 -0.5525 0.5525 -0.8335 558.7448 527.7378)" width="1.6" height="47.7" class="h"/><rect x="359.4" y="156.7" transform="matrix(-0.8332 -0.5529 0.5529 -0.8332 560.4456 530.1201)" width="1.6" height="47.7" class="h"/><polygon points="343.7 198.3 342.4 203.1 343.3 203.1 343 203.6 343.6 203.3 343.3 203.7 347.7 200.9 " fill="#9B865C"/><path d="M362.6 183.7c0 0-6.2 0.2-7.2 1 -1 0.8-3.5 2.9-5.1 3.2 -1.7 0.3-3.5 0.8-2 2.3 1.5 1.5 3.9 0.3 5.1 0.5 1.3 0.2 3.1 0.1 6.7 0.6 3.6 0.5 5.9-0.7 5.6-3.9S362.6 183.7 362.6 183.7z" fill="#E2BA9F"/><path d="M356.6 220.5c-3.2-4.2-8.2-5.3-12.7-7.6 -5.3-2.7-7.6-7.4-9.1-12.9 -0.7-2.4-1.2-4.8-1.8-7.3 0.2-0.1 0.4-0.2 0.5-0.5 1-2.5 0.4-5.6-0.1-8.2 -0.5-2.9-1.4-5.6-2.6-8.3 -0.3-0.7-1.5-0.2-1.2 0.5 0.9 2.6 1.5 5.4 1.8 8.2 0.2 1.4 0.1 2.9 0.2 4.3 -0.5-0.8-1.2-1.4-2.3-1.5 -1.9-0.2-3.6 1-5.1 2.3 0.6-2.7-0.4-6.1-0.8-8.9 -0.4-3-0.6-6.1-1.3-9 -0.2-0.7-1.2-0.5-1.3 0.2 -0.2 3.2 0.3 6.5 0.5 9.6 0.2 2.7 0 6 1.1 8.5 0.1 0.3 0.4 0.5 0.8 0.5 -0.3 0.3-0.6 0.5-0.8 0.7 -3 2.5-6.1 4.8-8.9 7.5 -0.4 0.4-0.2 1 0.1 1.2 -0.4 0.1-0.7 0.1-1.1 0.2 -0.5 0.1-0.3 0.8 0.2 0.7 3.8-0.5 6.3 1.3 9.5 2.8 0.9 0.4 1.8-0.6 1.1-1.4 -2.1-2.3-5.5-2.7-8.6-2.4 2.5-1.7 4.8-3.6 7.2-5.5 1.3-1 2.6-2.1 3.9-3.1 1.6-1.3 3.6-2.6 4.4 0.5 1.3 4.6 1.9 9.4 3.7 13.9 1.6 4 4.1 7.4 7.9 9.5 4 2.2 9.2 3.1 12.1 6.9C355.2 223.5 357.8 222 356.6 220.5z" class="i"/><path d="M363.9 205.7c-3.1-1.4-6.3 2-7.5 4.6 -0.9 2.1-1.8 7.8 1.3 8.5 0.5 0.1 1.1-0.2 1.2-0.7 0.2-1.1-0.4-1.8-0.6-2.8 -0.3-1.3-0.1-2.6 0.4-3.9 0.4-1.1 1.1-2.2 2-3 1-0.9 2.2-1.2 3.2-2.1C364.2 206.3 364.2 205.8 363.9 205.7z" class="i"/><path d="M317 182c-0.2-2.8-0.3-5.6-0.2-8.4 0-0.6-0.9-0.6-0.9 0 -0.3 3.1-9.3 10.3-9.3 13.4 0 2.6 8.7 1.4 9.8 3.8 0.3 0.8 1.4 4.8 1.4 4.1C318.2 192.2 317.3 184.7 317 182z" fill="#3590DB"/><path d="M341.5 187c-0.2-3.1-0.4-6.3-0.8-9.4 -0.1-0.7-1.2-0.5-1.3 0.2 -0.1 3.2-5 6-4.9 9.1 0.1 2.9 5.1 6.6 6 9.4 0.2 0.4 0.9 0.5 1 0C342.3 193.4 341.7 190.1 341.5 187z" fill="#C90FD8"/><radialGradient cx="137.9" cy="460.3" r="8.5" gradientTransform="matrix(0.9957 -0.1162 0.0924 1.2519 34.7825 -277.7047)" gradientUnits="userSpaceOnUse"><stop offset="0" class="j"/><stop offset="0.2796" class="k"/><stop offset="0.8551" class="l"/><stop offset="1" class="m"/></radialGradient><path d="M214.3 287.3c-4 0-4.2 2.3-4.2 2.3l0 1.8c0 0 0.2-2.3 4.2-2.3 4 0 4.2 2.4 4.2 2.4l0-1.8C218.5 289.6 218.3 287.3 214.3 287.3z" fill="url(#SVGID_1_)"/><linearGradient gradientUnits="userSpaceOnUse" x1="135.4" y1="446.1" x2="141" y2="451.7" gradientTransform="matrix(0.9957 -0.0924 0.0924 0.9957 34.7825 -147.1759)"><stop offset="0" class="n"/><stop offset="0.3597" class="o"/><stop offset="1" class="p"/></linearGradient><path d="M218.6 289.7c0 0-0.2-2.3-4.2-2.4 -4 0-4.2 2.3-4.2 2.3s-0.5-6.7 4.2-6.7C219.2 283 218.6 289.7 218.6 289.7z" fill="url(#SVGID_2_)"/><path d="M214.3 289.1c-4 0-4.2 2.3-4.2 2.3l-0.2 58.4c0 0 0.3-0.7 1.4-0.7 1.1 0 1.5 0.7 1.5 0.7s0.3-0.7 1.4-0.7c1.1 0 1.4 0.7 1.4 0.7s0.4-0.7 1.4-0.7 1.4 0.7 1.4 0.7l0.2-58.4C218.5 291.4 218.3 289.1 214.3 289.1z" fill="#29A6CC"/><linearGradient gradientUnits="userSpaceOnUse" x1="128.4" y1="514.7" x2="136.7" y2="514.7" gradientTransform="matrix(0.9957 -0.0924 0.0924 0.9957 34.7825 -147.1759)"><stop offset="0" class="q"/><stop offset="0.2416" class="r"/><stop offset="0.7394" class="s"/><stop offset="1" class="t"/></linearGradient><path d="M216.9 349.1c-1.1 0-1.4 0.7-1.4 0.7s-0.3-0.7-1.4-0.7c-1.1 0-1.4 0.7-1.4 0.7s-0.4-0.7-1.5-0.7c-1.1 0-1.4 0.7-1.4 0.7l2.8 7.6c0 0 0.3-0.7 1.4-0.7 1.1 0 1.4 0.7 1.4 0.7l2.9-7.5C218.2 349.8 217.9 349.1 216.9 349.1z" fill="url(#SVGID_3_)"/><linearGradient gradientUnits="userSpaceOnUse" x1="132.4" y1="520.2" x2="130.5" y2="519.3" gradientTransform="matrix(0.9957 -0.0924 0.0924 0.9957 34.7825 -147.1759)"><stop offset="0.1439" stop-color="#0F1730"/><stop offset="1" stop-color="#18244C"/></linearGradient><path d="M214 356.6c-1.1 0-1.4 0.7-1.4 0.7l0.9 2.5c0 0 0.1 0.3 0.4 0.3 0.3 0 0.4-0.3 0.4-0.3l0.9-2.5C215.4 357.3 215 356.6 214 356.6z" fill="url(#SVGID_4_)"/><radialGradient cx="190.5" cy="465.2" r="8.5" gradientTransform="matrix(0.9957 -0.1162 0.0924 1.2519 34.7825 -277.7047)" gradientUnits="userSpaceOnUse"><stop offset="0" class="j"/><stop offset="0.2796" class="k"/><stop offset="0.8551" class="l"/><stop offset="1" class="m"/></radialGradient><path d="M267.1 287.3c-4 0-4.2 2.3-4.2 2.3l0 1.8c0 0 0.2-2.3 4.2-2.3 4 0 4.2 2.4 4.2 2.4l0-1.8C271.3 289.6 271.1 287.3 267.1 287.3z" fill="url(#SVGID_5_)"/><linearGradient gradientUnits="userSpaceOnUse" x1="188" y1="451" x2="193.7" y2="456.5" gradientTransform="matrix(0.9957 -0.0924 0.0924 0.9957 34.7825 -147.1759)"><stop offset="0" class="n"/><stop offset="0.3597" class="o"/><stop offset="1" class="p"/></linearGradient><path d="M271.5 289.7c0 0-0.2-2.3-4.2-2.4 -4 0-4.2 2.3-4.2 2.3s-0.5-6.7 4.2-6.7C272 283 271.5 289.7 271.5 289.7z" fill="url(#SVGID_6_)"/><linearGradient gradientUnits="userSpaceOnUse" x1="174.5" y1="484.7" x2="193.5" y2="486.6" gradientTransform="matrix(0.9957 -0.0924 0.0924 0.9957 34.7825 -147.1759)"><stop offset="0" stop-color="#392F6D"/><stop offset="1" stop-color="#3B3071"/></linearGradient><path d="M267.1 289.1c-4 0-4.2 2.3-4.2 2.3l-0.2 58.4c0 0 0.3-0.7 1.4-0.7 1.1 0 1.5 0.7 1.5 0.7s0.3-0.7 1.4-0.7c1.1 0 1.4 0.7 1.4 0.7s0.4-0.7 1.4-0.7 1.4 0.7 1.4 0.7l0.2-58.4C271.3 291.4 271.1 289.1 267.1 289.1z" fill="url(#SVGID_7_)"/><linearGradient gradientUnits="userSpaceOnUse" x1="181" y1="519.6" x2="189.4" y2="519.6" gradientTransform="matrix(0.9957 -0.0924 0.0924 0.9957 34.7825 -147.1759)"><stop offset="0" class="q"/><stop offset="0.2416" class="r"/><stop offset="0.7394" class="s"/><stop offset="1" class="t"/></linearGradient><path d="M269.7 349.1c-1.1 0-1.4 0.7-1.4 0.7s-0.3-0.7-1.4-0.7c-1.1 0-1.4 0.7-1.4 0.7s-0.4-0.7-1.5-0.7c-1.1 0-1.4 0.7-1.4 0.7l2.8 7.6c0 0 0.3-0.7 1.4-0.7 1.1 0 1.4 0.7 1.4 0.7l2.9-7.5C271.1 349.8 270.8 349.1 269.7 349.1z" fill="url(#SVGID_8_)"/><linearGradient gradientUnits="userSpaceOnUse" x1="185" y1="525.1" x2="183.2" y2="524.1" gradientTransform="matrix(0.9957 -0.0924 0.0924 0.9957 34.7825 -147.1759)"><stop offset="0.1439" stop-color="#161229"/><stop offset="1" stop-color="#221C42"/></linearGradient><path d="M266.9 356.6c-1.1 0-1.4 0.7-1.4 0.7l0.9 2.5c0 0 0.1 0.3 0.4 0.3 0.3 0 0.4-0.3 0.4-0.3l0.9-2.5C268.2 357.3 267.9 356.6 266.9 356.6z" fill="url(#SVGID_9_)"/><radialGradient cx="201.1" cy="466.2" r="8.5" gradientTransform="matrix(0.9957 -0.1162 0.0924 1.2519 34.7825 -277.7047)" gradientUnits="userSpaceOnUse"><stop offset="0" class="j"/><stop offset="0.2796" class="k"/><stop offset="0.8551" class="l"/><stop offset="1" class="m"/></radialGradient><path d="M277.8 287.3c-4 0-4.2 2.3-4.2 2.3l0 1.8c0 0 0.2-2.3 4.2-2.3 4 0 4.2 2.4 4.2 2.4l0-1.8C282 289.6 281.8 287.3 277.8 287.3z" fill="url(#SVGID_10_)"/><linearGradient gradientUnits="userSpaceOnUse" x1="198.6" y1="452" x2="204.3" y2="457.5" gradientTransform="matrix(0.9957 -0.0924 0.0924 0.9957 34.7825 -147.1759)"><stop offset="0" class="n"/><stop offset="0.3597" class="o"/><stop offset="1" class="p"/></linearGradient><path d="M282.1 289.7c0 0-0.2-2.3-4.2-2.4 -4 0-4.2 2.3-4.2 2.3s-0.5-6.7 4.2-6.7C282.7 283 282.1 289.7 282.1 289.7z" fill="url(#SVGID_11_)"/><linearGradient gradientUnits="userSpaceOnUse" x1="185.1" y1="485.7" x2="204.1" y2="487.6" gradientTransform="matrix(0.9957 -0.0924 0.0924 0.9957 34.7825 -147.1759)"><stop offset="0" stop-color="#7E1E69"/><stop offset="1" stop-color="#811F6C"/></linearGradient><path d="M277.8 289.1c-4 0-4.2 2.3-4.2 2.3l-0.2 58.4c0 0 0.3-0.7 1.4-0.7 1.1 0 1.5 0.7 1.5 0.7s0.3-0.7 1.4-0.7c1.1 0 1.4 0.7 1.4 0.7s0.4-0.7 1.4-0.7 1.4 0.7 1.4 0.7l0.2-58.4C282 291.4 281.8 289.1 277.8 289.1z" fill="url(#SVGID_12_)"/><linearGradient gradientUnits="userSpaceOnUse" x1="191.6" y1="520.6" x2="200" y2="520.6" gradientTransform="matrix(0.9957 -0.0924 0.0924 0.9957 34.7825 -147.1759)"><stop offset="0" class="q"/><stop offset="0.2416" class="r"/><stop offset="0.7394" class="s"/><stop offset="1" class="t"/></linearGradient><path d="M280.4 349.1c-1.1 0-1.4 0.7-1.4 0.7s-0.3-0.7-1.4-0.7c-1.1 0-1.4 0.7-1.4 0.7s-0.4-0.7-1.5-0.7c-1.1 0-1.4 0.7-1.4 0.7l2.8 7.6c0 0 0.3-0.7 1.4-0.7 1.1 0 1.4 0.7 1.4 0.7l2.9-7.5C281.8 349.8 281.5 349.1 280.4 349.1z" fill="url(#SVGID_13_)"/><linearGradient gradientUnits="userSpaceOnUse" x1="195.6" y1="526.1" x2="193.8" y2="525.1" gradientTransform="matrix(0.9957 -0.0924 0.0924 0.9957 34.7825 -147.1759)"><stop offset="0.1439" stop-color="#300C28"/><stop offset="1" stop-color="#4C123F"/></linearGradient><path d="M277.5 356.6c-1.1 0-1.4 0.7-1.4 0.7l0.9 2.5c0 0 0.1 0.3 0.4 0.3 0.3 0 0.4-0.3 0.4-0.3l0.9-2.5C278.9 357.3 278.6 356.6 277.5 356.6z" fill="url(#SVGID_14_)"/><radialGradient cx="159" cy="462.3" r="8.5" gradientTransform="matrix(0.9957 -0.1162 0.0924 1.2519 34.7825 -277.7047)" gradientUnits="userSpaceOnUse"><stop offset="0" class="j"/><stop offset="0.2796" class="k"/><stop offset="0.8551" class="l"/><stop offset="1" class="m"/></radialGradient><path d="M235.5 287.3c-4 0-4.2 2.3-4.2 2.3l0 1.8c0 0 0.2-2.3 4.2-2.3s4.2 2.4 4.2 2.4l0-1.8C239.7 289.6 239.5 287.3 235.5 287.3z" fill="url(#SVGID_15_)"/><linearGradient gradientUnits="userSpaceOnUse" x1="156.5" y1="448.1" x2="162.2" y2="453.6" gradientTransform="matrix(0.9957 -0.0924 0.0924 0.9957 34.7825 -147.1759)"><stop offset="0" class="n"/><stop offset="0.3597" class="o"/><stop offset="1" class="p"/></linearGradient><path d="M239.8 289.7c0 0-0.2-2.3-4.2-2.4 -4 0-4.2 2.3-4.2 2.3s-0.5-6.7 4.2-6.7C240.4 283 239.8 289.7 239.8 289.7z" fill="url(#SVGID_16_)"/><linearGradient gradientUnits="userSpaceOnUse" x1="142.9" y1="481.8" x2="162" y2="483.7" gradientTransform="matrix(0.9957 -0.0924 0.0924 0.9957 34.7825 -147.1759)"><stop offset="0" stop-color="#935E13"/><stop offset="1" stop-color="#976014"/></linearGradient><path d="M235.5 289.1c-4 0-4.2 2.3-4.2 2.3l-0.2 58.4c0 0 0.3-0.7 1.4-0.7 1.1 0 1.5 0.7 1.5 0.7s0.3-0.7 1.4-0.7c1.1 0 1.4 0.7 1.4 0.7s0.4-0.7 1.4-0.7c1.1 0 1.4 0.7 1.4 0.7l0.2-58.4C239.7 291.4 239.5 289.1 235.5 289.1z" fill="url(#SVGID_17_)"/><linearGradient gradientUnits="userSpaceOnUse" x1="149.5" y1="516.7" x2="157.9" y2="516.7" gradientTransform="matrix(0.9957 -0.0924 0.0924 0.9957 34.7825 -147.1759)"><stop offset="0" class="q"/><stop offset="0.2416" class="r"/><stop offset="0.7394" class="s"/><stop offset="1" class="t"/></linearGradient><path d="M238.1 349.1c-1.1 0-1.4 0.7-1.4 0.7s-0.3-0.7-1.4-0.7c-1.1 0-1.4 0.7-1.4 0.7s-0.4-0.7-1.5-0.7c-1.1 0-1.4 0.7-1.4 0.7l2.8 7.6c0 0 0.3-0.7 1.4-0.7 1.1 0 1.4 0.7 1.4 0.7l2.9-7.5C239.4 349.8 239.1 349.1 238.1 349.1z" fill="url(#SVGID_18_)"/><linearGradient gradientUnits="userSpaceOnUse" x1="153.5" y1="522.2" x2="151.7" y2="521.2" gradientTransform="matrix(0.9957 -0.0924 0.0924 0.9957 34.7825 -147.1759)"><stop offset="0.1439" stop-color="#955728"/><stop offset="1" stop-color="#AA632D"/></linearGradient><path d="M235.2 356.6c-1.1 0-1.4 0.7-1.4 0.7l0.9 2.5c0 0 0.1 0.3 0.4 0.3 0.3 0 0.4-0.3 0.4-0.3l0.9-2.5C236.6 357.3 236.3 356.6 235.2 356.6z" fill="url(#SVGID_19_)"/><radialGradient cx="169.5" cy="463.2" r="8.5" gradientTransform="matrix(0.9957 -0.1162 0.0924 1.2519 34.7825 -277.7047)" gradientUnits="userSpaceOnUse"><stop offset="0" class="j"/><stop offset="0.2796" class="k"/><stop offset="0.8551" class="l"/><stop offset="1" class="m"/></radialGradient><path d="M246 287.3c-4 0-4.2 2.3-4.2 2.3l0 1.8c0 0 0.2-2.3 4.2-2.3 4 0 4.2 2.4 4.2 2.4l0-1.8C250.2 289.6 250 287.3 246 287.3z" fill="url(#SVGID_20_)"/><linearGradient gradientUnits="userSpaceOnUse" x1="167" y1="449.1" x2="172.6" y2="454.6" gradientTransform="matrix(0.9957 -0.0924 0.0924 0.9957 34.7825 -147.1759)"><stop offset="0" class="n"/><stop offset="0.3597" class="o"/><stop offset="1" class="p"/></linearGradient><path d="M250.3 289.7c0 0-0.2-2.3-4.2-2.4 -4 0-4.2 2.3-4.2 2.3s-0.5-6.7 4.2-6.7C250.9 283 250.3 289.7 250.3 289.7z" fill="url(#SVGID_21_)"/><path d="M246 289.1c-4 0-4.2 2.3-4.2 2.3l-0.2 58.4c0 0 0.3-0.7 1.4-0.7 1.1 0 1.5 0.7 1.5 0.7s0.3-0.7 1.4-0.7c1.1 0 1.4 0.7 1.4 0.7s0.4-0.7 1.4-0.7 1.4 0.7 1.4 0.7l0.2-58.4C250.2 291.4 250 289.1 246 289.1z" fill="#D3C622"/><linearGradient gradientUnits="userSpaceOnUse" x1="159.9" y1="517.7" x2="168.3" y2="517.7" gradientTransform="matrix(0.9957 -0.0924 0.0924 0.9957 34.7825 -147.1759)"><stop offset="0" class="q"/><stop offset="0.2416" class="r"/><stop offset="0.7394" class="s"/><stop offset="1" class="t"/></linearGradient><path d="M248.6 349.1c-1.1 0-1.4 0.7-1.4 0.7s-0.3-0.7-1.4-0.7c-1.1 0-1.4 0.7-1.4 0.7s-0.4-0.7-1.5-0.7c-1.1 0-1.4 0.7-1.4 0.7l2.8 7.6c0 0 0.3-0.7 1.4-0.7 1.1 0 1.4 0.7 1.4 0.7l2.9-7.5C249.9 349.8 249.6 349.1 248.6 349.1z" fill="url(#SVGID_22_)"/><linearGradient gradientUnits="userSpaceOnUse" x1="164" y1="523.2" x2="162.1" y2="522.2" gradientTransform="matrix(0.9957 -0.0924 0.0924 0.9957 34.7825 -147.1759)"><stop offset="0.1439" stop-color="#A7A715"/><stop offset="1" stop-color="#BFBF18"/></linearGradient><path d="M245.7 356.6c-1.1 0-1.4 0.7-1.4 0.7l0.9 2.5c0 0 0.1 0.3 0.4 0.3 0.3 0 0.4-0.3 0.4-0.3l0.9-2.5C247.1 357.3 246.8 356.6 245.7 356.6z" fill="url(#SVGID_23_)"/><radialGradient cx="180.2" cy="464.2" r="8.5" gradientTransform="matrix(0.9957 -0.1162 0.0924 1.2519 34.7825 -277.7047)" gradientUnits="userSpaceOnUse"><stop offset="0" class="j"/><stop offset="0.2796" class="k"/><stop offset="0.8551" class="l"/><stop offset="1" class="m"/></radialGradient><path d="M256.8 287.3c-4 0-4.2 2.3-4.2 2.3l0 1.8c0 0 0.2-2.3 4.2-2.3 4 0 4.2 2.4 4.2 2.4l0-1.8C261 289.6 260.8 287.3 256.8 287.3z" fill="url(#SVGID_24_)"/><linearGradient gradientUnits="userSpaceOnUse" x1="177.7" y1="450.1" x2="183.4" y2="455.6" gradientTransform="matrix(0.9957 -0.0924 0.0924 0.9957 34.7825 -147.1759)"><stop offset="0" class="n"/><stop offset="0.3597" class="o"/><stop offset="1" class="p"/></linearGradient><path d="M261.1 289.7c0 0-0.2-2.3-4.2-2.4 -4 0-4.2 2.3-4.2 2.3s-0.5-6.7 4.2-6.7C261.7 283 261.1 289.7 261.1 289.7z" fill="url(#SVGID_25_)"/><linearGradient gradientUnits="userSpaceOnUse" x1="164.2" y1="483.8" x2="183.2" y2="485.7" gradientTransform="matrix(0.9957 -0.0924 0.0924 0.9957 34.7825 -147.1759)"><stop offset="0" stop-color="#358323"/><stop offset="1" stop-color="#368724"/></linearGradient><path d="M256.8 289.1c-4 0-4.2 2.3-4.2 2.3l-0.2 58.4c0 0 0.3-0.7 1.4-0.7 1.1 0 1.5 0.7 1.5 0.7s0.3-0.7 1.4-0.7c1.1 0 1.4 0.7 1.4 0.7s0.4-0.7 1.4-0.7c1.1 0 1.4 0.7 1.4 0.7l0.2-58.4C261 291.4 260.8 289.1 256.8 289.1z" fill="url(#SVGID_26_)"/><linearGradient gradientUnits="userSpaceOnUse" x1="170.7" y1="518.7" x2="179.1" y2="518.7" gradientTransform="matrix(0.9957 -0.0924 0.0924 0.9957 34.7825 -147.1759)"><stop offset="0" class="q"/><stop offset="0.2416" class="r"/><stop offset="0.7394" class="s"/><stop offset="1" class="t"/></linearGradient><path d="M259.4 349.1c-1.1 0-1.4 0.7-1.4 0.7s-0.3-0.7-1.4-0.7c-1.1 0-1.4 0.7-1.4 0.7s-0.4-0.7-1.5-0.7c-1.1 0-1.4 0.7-1.4 0.7l2.8 7.6c0 0 0.3-0.7 1.4-0.7 1.1 0 1.4 0.7 1.4 0.7l2.9-7.5C260.7 349.8 260.4 349.1 259.4 349.1z" fill="url(#SVGID_27_)"/><linearGradient gradientUnits="userSpaceOnUse" x1="174.7" y1="524.2" x2="172.9" y2="523.2" gradientTransform="matrix(0.9957 -0.0924 0.0924 0.9957 34.7825 -147.1759)"><stop offset="0.1439" stop-color="#2BA715"/><stop offset="1" stop-color="#31BF18"/></linearGradient><path d="M256.5 356.6c-1.1 0-1.4 0.7-1.4 0.7l0.9 2.5c0 0 0.1 0.3 0.4 0.3 0.3 0 0.4-0.3 0.4-0.3l0.9-2.5C257.9 357.3 257.6 356.6 256.5 356.6z" fill="url(#SVGID_28_)"/><radialGradient cx="148.5" cy="461.3" r="8.5" gradientTransform="matrix(0.9957 -0.1162 0.0924 1.2519 34.7825 -277.7047)" gradientUnits="userSpaceOnUse"><stop offset="0" class="j"/><stop offset="0.2796" class="k"/><stop offset="0.8551" class="l"/><stop offset="1" class="m"/></radialGradient><path d="M225 287.3c-4 0-4.2 2.3-4.2 2.3l0 1.8c0 0 0.2-2.3 4.2-2.3 4 0 4.2 2.4 4.2 2.4l0-1.8C229.2 289.6 229 287.3 225 287.3z" fill="url(#SVGID_29_)"/><linearGradient gradientUnits="userSpaceOnUse" x1="146" y1="447.1" x2="151.7" y2="452.6" gradientTransform="matrix(0.9957 -0.0924 0.0924 0.9957 34.7825 -147.1759)"><stop offset="0" class="n"/><stop offset="0.3597" class="o"/><stop offset="1" class="p"/></linearGradient><path d="M229.3 289.7c0 0-0.2-2.3-4.2-2.4 -4 0-4.2 2.3-4.2 2.3s-0.5-6.7 4.2-6.7C229.9 283 229.3 289.7 229.3 289.7z" fill="url(#SVGID_30_)"/><path d="M225 289.1c-4 0-4.2 2.3-4.2 2.3l-0.2 58.4c0 0 0.3-0.7 1.4-0.7 1.1 0 1.5 0.7 1.5 0.7s0.3-0.7 1.4-0.7c1.1 0 1.4 0.7 1.4 0.7s0.4-0.7 1.4-0.7c1.1 0 1.4 0.7 1.4 0.7l0.2-58.4C229.2 291.4 229 289.1 225 289.1z" fill="#E012CD"/><linearGradient gradientUnits="userSpaceOnUse" x1="139" y1="515.7" x2="147.4" y2="515.7" gradientTransform="matrix(0.9957 -0.0924 0.0924 0.9957 34.7825 -147.1759)"><stop offset="0" class="q"/><stop offset="0.2416" class="r"/><stop offset="0.7394" class="s"/><stop offset="1" class="t"/></linearGradient><path d="M227.6 349.1c-1.1 0-1.4 0.7-1.4 0.7s-0.3-0.7-1.4-0.7c-1.1 0-1.4 0.7-1.4 0.7s-0.4-0.7-1.5-0.7c-1.1 0-1.4 0.7-1.4 0.7l2.8 7.6c0 0 0.3-0.7 1.4-0.7 1.1 0 1.4 0.7 1.4 0.7l2.9-7.5C228.9 349.8 228.6 349.1 227.6 349.1z" fill="url(#SVGID_31_)"/><linearGradient gradientUnits="userSpaceOnUse" x1="143" y1="521.2" x2="141.2" y2="520.2" gradientTransform="matrix(0.9957 -0.0924 0.0924 0.9957 34.7825 -147.1759)"><stop offset="0.1439" stop-color="#952828"/><stop offset="1" stop-color="#AA2D2D"/></linearGradient><path d="M224.7 356.6c-1.1 0-1.4 0.7-1.4 0.7l0.9 2.5c0 0 0.1 0.3 0.4 0.3 0.3 0 0.4-0.3 0.4-0.3l0.9-2.5C226 357.3 225.7 356.6 224.7 356.6z" fill="url(#SVGID_32_)"/></svg>