<svg version="1.1" id="Layer_1" xmlns="http://www.w3.org/2000/svg" xmlns:xlink="http://www.w3.org/1999/xlink" x="0px" y="0px"
	 viewBox="0 0 768 430" enable-background="new 0 0 768 430" xml:space="preserve">
<g>
	<path fill="#F1F1F2" d="M389.418,46.509c-8.965-6.689-22.14-0.653-22.14,10.143V261.35l-3.773,127.168
		c-0.114,6.254,5.216,11.383,11.834,11.387c6.625,0.002,11.965-5.135,11.844-11.396l-4.221-133.366h4.298
		c9.144,0,16.557-7.007,16.557-15.65V74.593C403.817,63.642,398.512,53.294,389.418,46.509z"/>
	<g>
		<path fill="#E6E6E7" d="M389.418,46.509c-3.569-2.664-7.8-3.284-11.608-2.415c1.793,0.425,3.554,1.205,5.174,2.415
			c9.094,6.785,14.399,17.133,14.399,28.084v164.899c0,8.644-7.412,15.65-16.557,15.65h6.434c9.144,0,16.557-7.007,16.557-15.65
			V74.593C403.817,63.642,398.512,53.294,389.418,46.509z"/>
	</g>
</g>
</svg>
