<svg xmlns="http://www.w3.org/2000/svg" viewBox="0 0 768 430"><style>.a{fill:#F1C7A4;}.b{fill:#75B73E;}.c{fill:#3B9B45;}.d{flood-color:white;flood-opacity:1;}.e{stop-color:#FFF;}.f{stop-color:#FCFCFC;}.g{stop-color:#F2F2F2;}.h{stop-color:#E1E1E1;}.i{stop-color:#C9C9C9;}.j{stop-color:#AAA;}.k{stop-color:#858585;}.l{stop-color:#585858;}.m{stop-color:#252525;}.n{stop-color:#000;}.o{fill:#E32A1D;}.p{fill:#F59E00;}.q{fill:#F4D9BF;}.r{fill:#00A0DB;}.s{fill:#006BDB;}.t{fill:#A8A8A8;}.u{fill:#925F2D;}.v{fill:#413000;}.w{fill:#FFF;}.x{fill:#64421C;}.y{fill:#BF946F;}</style><path d="M332.2 283.1c0 0-16.1 13.3-17.9 28.9 -1.8 15.5 9.3 24.1 23.9 9.3 14.6-14.8 19.6-23.3 19.6-23.3L332.2 283.1z" class="a"/><path d="M351.4 268.8l-7-0.3c0 0-4.4 3.5-10.4 10.7C343.3 278.8 348.8 272.7 351.4 268.8z" class="b"/><path d="M417.3 289.2c-5-15-7.2-18.3-7.2-18.3l-11.2-0.4C401.8 277 408.5 289.1 417.3 289.2z" class="b"/><path d="M417.3 289.2c-8.9-0.1-15.5-12.2-18.5-18.7l-47.4-1.7c-2.6 3.9-8.1 10-17.4 10.5 -1.6 1.9-3.3 4.1-5.1 6.6 15 2.9 24.3 9.1 26.1 18.2 32.6 4.1 56 2.6 66.9-0.6C420.1 297.8 418.6 293.1 417.3 289.2z" class="c"/><defs><filter filterUnits="userSpaceOnUse" x="332.2" y="272" width="25.8" height="19.3"><feFlood result="back" class="d"/><feBlend in="SourceGraphic" in2="back" mode="normal"/></filter></defs><mask maskUnits="userSpaceOnUse" x="332.2" y="272" width="25.8" height="19.3"><g filter="url(#Adobe_OpacityMaskFilter)"><defs><filter filterUnits="userSpaceOnUse" x="332.2" y="272" width="25.8" height="19.3"><feFlood result="back" class="d"/><feBlend in="SourceGraphic" in2="back" mode="normal"/></filter></defs><mask maskUnits="userSpaceOnUse" x="332.2" y="272" width="25.8" height="19.3"/><radialGradient cx="331.5" cy="266.5" r="26.7" gradientUnits="userSpaceOnUse"><stop offset="0.0022" class="e"/><stop offset="0.1645" class="f"/><stop offset="0.2947" class="g"/><stop offset="0.4138" class="h"/><stop offset="0.5262" class="i"/><stop offset="0.6341" class="j"/><stop offset="0.7384" class="k"/><stop offset="0.8401" class="l"/><stop offset="0.937" class="m"/><stop offset="1" class="n"/></radialGradient><path mask="url(#SVGID_1_)" d="M343.3 272l-11 12.3c0 0 9.6 2.9 14.8 7 7.7-9.6 11-14.8 11-14.8S348.6 274.9 343.3 272z" fill="url(#SVGID_2_)"/></g></mask><radialGradient cx="331.5" cy="266.5" r="26.7" gradientUnits="userSpaceOnUse"><stop offset="0.0022" class="e"/><stop offset="0.9102" class="e"/><stop offset="1" class="e"/></radialGradient><path d="M343.3 272l-11 12.3c0 0 9.6 2.9 14.8 7 7.7-9.6 11-14.8 11-14.8S348.6 274.9 343.3 272z" fill="url(#SVGID_3_)"/><path d="M323.5 300.8c-4.1 0-8-4-9.2-9.6 -0.7-2.9-0.5-5.9 0.5-8.3 1-2.6 2.8-4.2 5-4.7 0.4-0.1 0.9-0.1 1.3-0.1 4.1 0 8 4 9.2 9.6 0.7 2.9 0.5 5.9-0.5 8.3 -1 2.5-2.8 4.2-5 4.7C324.4 300.7 324 300.8 323.5 300.8zM321.1 279.8c-0.3 0-0.6 0-0.9 0.1 -1.6 0.4-2.9 1.6-3.7 3.6 -0.8 2.1-1 4.7-0.4 7.3 1.1 4.7 4.3 8.2 7.5 8.2 0.3 0 0.6 0 0.9-0.1 1.6-0.4 2.9-1.6 3.7-3.6 0.8-2.1 1-4.7 0.4-7.3C327.5 283.3 324.3 279.8 321.1 279.8z" class="o"/><path d="M316.6 217.7c-1.4 8.6 14.7 21.6 20.1 20C336.6 211.8 316.6 217.7 316.6 217.7z" fill="#E28100"/><path d="M316.6 217.7c0 0 19.9-5.9 20.1 20 4.8-6.6 21.9-40.8 21.9-40.8C332 194.4 316.6 217.7 316.6 217.7z" class="p"/><path d="M316.7 218.3c0 0-17 20.5 1 61.4 -1.3 7.9 3.5 15.8 8.4 15.6 4.2-0.4 3-6 5.3-10 2.4-4 5-3.6 7.7-1.7 2.7 1.9 4.3-2.2 1.5-5.9 -2.7-3.7-7.9-6.1-13-4.1 -3.3-12.5-2.9-33.2 5.4-50.6C328.7 216.2 320 216.6 316.7 218.3z" class="q"/><path d="M408.2 236.3c0 0 8.3-7.5 22.4-4 -5.3-20.6-22.8-40.6-46.7-39C393.9 208.7 408.2 236.3 408.2 236.3z" class="p"/><path d="M341.5 270.3c0 0-5.3-74.7 27.3-79.2 30.4-7.4 45.4 45.4 45.1 81.5C413.9 272.6 374.4 283.5 341.5 270.3z" fill="#FECB27"/><path d="M364.9 195.8c0 0 2.2 9.8 9.4 9.1 7.2-0.7 5.7-8.8 5.4-10.8L364.9 195.8z" class="a"/><path d="M339.2 278.1c-0.4-6.5-2.9-11.5-5.9-11.5h-0.1c-2.2 0.1-3.9 2.8-4.6 6.8 0.6-0.2 1.2-0.4 1.9-0.5 0.6-2.8 1.7-4.6 2.8-4.6 1.7 0 3.9 4 4.2 9.8 0.3 5.7-1.4 10.1-3.2 10.2h-0.1c-0.9 0-2-1.2-2.8-3.1 -0.1 0.2-0.1 0.5-0.2 0.7 -0.2 0.5-0.4 1-0.6 1.5 1 1.7 2.3 2.7 3.6 2.7l0.2 0C337.5 289.9 339.6 284.8 339.2 278.1z" class="o"/><path d="M458.7 335.2c-15.6-13-52.1-39.4-60.1-65.5 0 0-30.8 15.5-55.1 33.7 2.9 7 3.8 12.9 2.1 30.5 -5.9-9.1-18.8-17.3-18.8-17.3l-37 51c0 0 63.7 6.9 97.8 20.3" class="r"/><path d="M413.6 409.3c0 0 26.4-56.3 45.1-74.1" class="r"/><polygon points="374.3 284.1 375 285.2 375 285.2 " class="s"/><polygon points="376.5 287.4 377.8 289.7 377.7 289.8 376.4 287.5 " class="s"/><polygon points="379.2 292 380.5 294.3 380.2 294.4 379 292.1 " class="s"/><polygon points="381.8 296.6 383 298.9 382.7 299.1 381.4 296.8 " class="s"/><polygon points="384.3 301.3 385.5 303.6 385 303.9 383.9 301.5 " class="s"/><polygon points="386.7 306 387.9 308.4 387.3 308.7 386.2 306.3 " class="s"/><polygon points="389 310.8 390.1 313.2 389.5 313.5 388.4 311.1 " class="s"/><polygon points="391.2 315.6 392.3 318 391.6 318.3 390.6 315.9 " class="s"/><polygon points="393.4 320.5 394.4 322.9 393.7 323.2 392.7 320.8 " class="s"/><polygon points="395.4 325.4 396.4 327.8 395.7 328.1 394.7 325.7 " class="s"/><polygon points="397.4 330.3 398.3 332.8 397.5 333.1 396.6 330.6 " class="s"/><polygon points="399.2 335.3 400.1 337.8 399.3 338.1 398.4 335.6 " class="s"/><polygon points="401 340.3 401.8 342.8 401 343.1 400.2 340.6 " class="s"/><polygon points="402.7 345.3 403.5 347.9 402.6 348.1 401.8 345.6 " class="s"/><polygon points="404.2 350.4 405 353 404.2 353.2 403.4 350.7 " class="s"/><polygon points="405.7 355.5 406.4 358.1 405.6 358.3 404.9 355.8 " class="s"/><polygon points="407 360.7 407.7 363.3 406.9 363.4 406.3 360.9 " class="s"/><polygon points="408.3 365.8 408.8 368.4 408.1 368.6 407.5 366 " class="s"/><polygon points="409.4 371 409.9 373.6 409.2 373.8 408.7 371.2 " class="s"/><polygon points="410.4 376.2 410.8 378.9 410.2 379 409.7 376.4 " class="s"/><polyline points="411.1 384.2 410.7 381.6 411.3 381.5 411.7 384.1 " class="s"/><polygon points="345.6 334 346.2 335.1 346.1 335.2 " class="s"/><polygon points="347.2 337.4 348.3 339.7 347.9 339.9 347 337.5 " class="s"/><polygon points="349.3 342 350.3 344.3 349.8 344.5 348.8 342.2 " class="s"/><polygon points="351.4 346.6 352.4 348.9 351.6 349.2 350.7 346.9 " class="s"/><polygon points="353.3 351.2 354.3 353.6 353.5 353.9 352.6 351.6 " class="s"/><path d="M355.3 355.9c0 0 0.2 0.6 0.5 1.2 0.2 0.6 0.5 1.2 0.5 1.2l-0.8 0.3c0 0-0.2-0.6-0.5-1.2 -0.2-0.6-0.5-1.2-0.5-1.2L355.3 355.9z" class="s"/><polygon points="357.1 360.6 358.1 362.9 357.3 363.2 356.4 360.9 " class="s"/><polygon points="359 365.3 359.9 367.6 359.2 367.9 358.2 365.6 " class="s"/><polygon points="360.7 370 361.5 372.4 361 372.6 360.1 370.2 " class="s"/><polygon points="362.4 374.8 363.2 377.2 362.9 377.3 362 374.9 " class="s"/><polygon points="363.9 379.6 364.3 380.9 363.8 379.6 " class="s"/><path d="M326.5 300.2l31.5 43.1c0 0-3.9-12-14.5-27 -8.6-12.1-12.8-17.6-14.1-19.3C328.6 298.2 327.6 299.3 326.5 300.2z" class="t"/><path d="M333.5 290l0.4 31.9 3.5 2.9 -0.7-35.7C335.7 289.9 334.6 290.3 333.5 290z" fill="#BDBDBD"/><circle cx="335.4" cy="308.7" r="0.8" class="t"/><path d="M410.1 234.3c0 0 17.4 32.1 12.9 76.3 -8.7-0.7-13.9 2.5-13.4 4.7 0.5 2.2 9.2 1.2 9.2 1.2s-9.7 9.7-7.2 13.4c1.5 2.1 9.8-10.1 9.8-10.1s-4.4 15.7-2.4 16.2c2 0.5 6.5-13.7 6.5-13.7s-0.1 12.7 1.9 12.7c2 0 2-13.2 2-13.2s3.3 9.1 5.1 8.9c1.8-0.2 1-9.6-2.1-17.1 2.7-17.9 7.6-57.2-2.6-82.7C422.1 228.9 410.1 234.3 410.1 234.3z" class="q"/><defs><filter filterUnits="userSpaceOnUse" x="293.6" y="319.8" width="98.4" height="66.9"><feFlood result="back" class="d"/><feBlend in="SourceGraphic" in2="back" mode="normal"/></filter></defs><mask maskUnits="userSpaceOnUse" x="293.6" y="319.8" width="98.4" height="66.9"><g filter="url(#Adobe_OpacityMaskFilter_2_)"><defs><filter filterUnits="userSpaceOnUse" x="293.6" y="319.8" width="98.4" height="66.9"><feFlood result="back" class="d"/><feBlend in="SourceGraphic" in2="back" mode="normal"/></filter></defs><mask maskUnits="userSpaceOnUse" x="293.6" y="319.8" width="98.4" height="66.9"/><radialGradient cx="279.3" cy="414.6" r="97.5" gradientUnits="userSpaceOnUse"><stop offset="0.0022" class="e"/><stop offset="0.1645" class="f"/><stop offset="0.2947" class="g"/><stop offset="0.4138" class="h"/><stop offset="0.5262" class="i"/><stop offset="0.6341" class="j"/><stop offset="0.7384" class="k"/><stop offset="0.8401" class="l"/><stop offset="0.937" class="m"/><stop offset="1" class="n"/></radialGradient><path mask="url(#SVGID_4_)" d="M326.3 319.8l-32.7 45.9c0 0 77.5 9.8 98.4 21C365.6 358.6 326.3 319.8 326.3 319.8z" fill="url(#SVGID_5_)"/></g></mask><path d="M392 386.7c-26.4-28.1-65.7-66.9-65.7-66.9l-32.7 45.9C293.6 365.8 371.1 375.5 392 386.7" fill="#4FCBE8"/><path d="M458.5 133.9c-1.1-4.3-14.5 0.4-14.5 0.4 -73.6-16.4-126.2-11.7-126.2-11.7s-12.4 7.8-10.5 10c1.9 2.2 16.6-5.4 16.6-5.4s-5.1 5.1-4 7.1c1.1 2 9.3-3.9 9.3-3.9s-5.4 6.2-4 8.4c1.4 2.3 22.9-4 29.2-7.1 0 0-4.8 3.7-4 5.4 0.8 1.7 21.5-2.7 27.1-5.6 0 0-4.4 4.7-2.4 6.5 2 1.9 16.8-7 16.8-7s6.7 9.3 10.8 10c4.1 0.6 1-8.6 1-8.6s16.6 11.6 21.3 11.8c4.7 0.2-0.2-6.8-0.2-6.8s4.7 5.8 12.7 10.7c0 0 13.3 6.7 15.4 3.5" class="u"/><path d="M452.9 151.5c2.1-3.1-8.7-10.1-8.7-10.1s15.4-3.2 14.3-7.5" class="u"/><path d="M430.4 159.6c0.9-4.4 2.4-9.3 2.5-14.8 -5.2-3.9-8.1-7.5-8.1-7.5s4.9 7 0.2 6.8c-4.7-0.2-21.3-11.8-21.3-11.8s3.2 9.2-1 8.6c-4.1-0.6-10.8-10-10.8-10s-14.7 8.8-16.8 7c-2.1-1.8 2.4-6.5 2.4-6.5 -5.7 2.9-26.4 7.3-27.1 5.6 -0.8-1.7 4-5.4 4-5.4 -5.3 2.6-21.4 7.4-27.2 7.6 -0.5 15.5-8.1 22.4-5.2 28.6 10.6 18.3 38.4 26.6 38.4 26.6s8.7 2.5 16.2 2.9c50.4 0.1 52.3-23.1 52.3-23.1C429.5 169.7 429.3 165.2 430.4 159.6z" class="q"/><path d="M434.9 154.9l2.6-7c-1.7-1-3.2-2.1-4.6-3.1 -0.1 4.3-1 8.3-1.9 11.9C432.1 155.9 433.3 155.2 434.9 154.9z" class="u"/><path d="M442.3 160.8c-1.5-6.5-7.4-5.9-7.4-5.9 -1.6 0.2-2.8 1-3.9 1.8 -0.2 1-0.4 1.9-0.6 2.9 -1.1 5.6-0.9 10.1-1.6 14.5C434.5 178.2 443.8 167.3 442.3 160.8z" class="q"/><path d="M326.9 142.6c-4.9-9.4-16.6-6.3-15.2 4.4 1.6 12.5 12.3 7.8 12.3 7.8C325.2 151.5 326.4 147.5 326.9 142.6z" class="q"/><path d="M386.7 60c-67.2-6.4-69 62.6-69 62.6s8.4-0.7 23.1-0.6C347.6 61.8 378.9 59.5 386.7 60z" class="c"/><path d="M388.5 60.1c-0.6-0.1-1.2-0.1-1.8-0.2 -7.8-0.4-39.1 1.8-45.9 62 18.1 0.2 45.7 1.7 79.2 7.6l0 0C426.9 65.1 388.5 60.1 388.5 60.1z" class="b"/><path d="M388.5 60.1c0 0 38.4 5 31.5 69.4l0 0c7.7 1.3 15.7 2.9 24 4.8C444 134.2 454.2 67.6 388.5 60.1z" class="c"/><path d="M358.1 115.7c0 0 28.1 1.7 38.6 4.4 0 0 2.6-20-17-22.2C359.6 95.6 358.1 115.7 358.1 115.7z" class="u"/><path d="M355.5 157.8c-0.5 4.4-2.5 7.7-4.4 7.5 -1.9-0.2-3.1-4-2.6-8.3 0.5-4.4 2.5-7.7 4.4-7.5C354.8 149.7 356 153.4 355.5 157.8z" class="v"/><path d="M354.1 155.9c-0.3 2.2-1.3 3.8-2.4 3.7 -1.1-0.1-1.8-2-1.5-4.2 0.3-2.2 1.4-3.8 2.4-3.7C353.7 151.9 354.4 153.8 354.1 155.9z" class="w"/><path d="M398.5 162.7c-0.5 4.4-2.5 7.7-4.5 7.5 -1.9-0.2-3.1-4-2.5-8.3 0.5-4.4 2.5-7.7 4.4-7.5C397.8 154.6 399 158.3 398.5 162.7z" class="v"/><path d="M397.1 160.8c-0.3 2.2-1.4 3.8-2.4 3.7s-1.8-2-1.5-4.2c0.3-2.2 1.4-3.8 2.4-3.7C396.7 156.8 397.4 158.7 397.1 160.8z" class="w"/><path d="M345.2 148.6c0.7 0.3 2.1-5.2 7-5.7 5-0.5 6.6 7.3 7.3 7.1 0.7-0.1-0.8-9.7-6-10.3C347.1 139.1 344.5 148.3 345.2 148.6z" class="x"/><path d="M388.4 153.5c0.7 0.3 2.1-5.2 7.1-5.7 5-0.5 6.6 7.3 7.3 7.1 0.7-0.1-0.8-9.7-6-10.3C390.3 144 387.6 153.2 388.4 153.5z" class="x"/><path d="M374.7 164.9c0 0-0.3-0.2-0.8-0.5 -0.5-0.3-1.4-0.7-2.4-0.9 -0.5-0.1-1.1-0.1-1.7-0.1 -0.6 0-1.2 0.3-1.7 0.6 -0.1 0.1-0.3 0.2-0.4 0.3 -0.1 0.1-0.2 0.2-0.3 0.3 -0.1 0.3-0.3 0.5-0.4 0.8 -0.2 0.6-0.2 1.3-0.1 1.9 0.1 0.3 0.1 0.7 0.3 1 0.1 0.2 0.1 0.3 0.2 0.5l0.3 0.4c0.3 0.6 0.8 1.1 1.3 1.5 0.2 0.2 0.5 0.4 0.8 0.6 0.2 0.2 0.5 0.3 0.8 0.5 0.5 0.3 1.1 0.5 1.6 0.6 0.2 0.1 0.5 0.1 0.7 0.2 0.2 0 0.5 0.1 0.7 0.1 0.4 0.1 0.8 0.1 1.1 0.1 0.6 0.1 1 0.1 1 0.1s-0.4 0-1 0.1c-0.3 0-0.7 0.1-1.2 0 -0.4 0-1 0-1.5-0.2 -0.5-0.1-1.1-0.2-1.7-0.5 -0.3-0.1-0.6-0.2-0.9-0.4 -0.3-0.2-0.6-0.3-0.9-0.6 -0.6-0.4-1.1-1-1.5-1.6l-0.3-0.5c-0.1-0.2-0.2-0.4-0.2-0.5 -0.2-0.4-0.2-0.7-0.3-1.1 -0.1-0.8-0.1-1.6 0.2-2.3 0.1-0.4 0.3-0.7 0.6-1.1 0.1-0.2 0.3-0.3 0.5-0.5 0.2-0.1 0.3-0.2 0.4-0.3 0.7-0.4 1.4-0.5 2.1-0.5 0.7 0 1.3 0.1 1.8 0.3 1.1 0.3 1.9 0.9 2.4 1.3C374.5 164.6 374.7 164.9 374.7 164.9z" class="y"/><path d="M315.5 145.2c0 0 0.1-0.3 0.2-0.7 0-0.1 0.1-0.2 0.1-0.4 0.1-0.1 0.1-0.3 0.2-0.4 0.1-0.1 0.2-0.3 0.2-0.5 0.1-0.2 0.2-0.3 0.4-0.5 0.2-0.3 0.6-0.6 1-0.9 0.2-0.1 0.5-0.2 0.7-0.3 0.3 0 0.5-0.1 0.8-0.1 0.3 0 0.5 0.1 0.8 0.1 0.3 0.1 0.5 0.2 0.8 0.3 0.2 0.2 0.5 0.3 0.7 0.5 0.2 0.2 0.4 0.4 0.6 0.6 0.2 0.2 0.3 0.5 0.5 0.7 0.2 0.2 0.3 0.5 0.4 0.7 0.1 0.2 0.2 0.5 0.3 0.7 0 0.3 0.1 0.5 0.2 0.8 0.1 0.5 0.1 1 0.1 1.4 0 0.5 0 0.9-0.1 1.3 0 0.4-0.1 0.7-0.1 1.1 -0.1 0.3-0.1 0.6-0.2 0.8 -0.1 0.4-0.2 0.7-0.2 0.7s0-0.3 0-0.7c0-0.2 0-0.5 0-0.8 0-0.3 0-0.7 0-1 0-0.4 0-0.8-0.1-1.2 -0.1-0.4-0.1-0.9-0.2-1.3 -0.1-0.2-0.1-0.4-0.2-0.7 -0.1-0.2-0.2-0.4-0.3-0.6 -0.1-0.2-0.2-0.4-0.3-0.6 -0.1-0.2-0.2-0.4-0.4-0.6 -0.2-0.2-0.3-0.4-0.5-0.5l-0.5-0.4c-0.2-0.1-0.4-0.2-0.6-0.3 -0.2 0-0.4-0.1-0.6-0.1 -0.2 0-0.4 0-0.6 0 -0.2 0.1-0.4 0.1-0.6 0.2 -0.2 0.1-0.3 0.2-0.5 0.3 -0.2 0.1-0.3 0.2-0.4 0.3 -0.1 0.1-0.3 0.2-0.4 0.4 -0.1 0.1-0.2 0.3-0.3 0.4 -0.1 0.1-0.2 0.2-0.3 0.3 -0.1 0.1-0.1 0.2-0.2 0.3C315.6 145 315.5 145.2 315.5 145.2z" class="y"/><path d="M317.5 147.7c0 0 0.1 0.1 0.3 0.3 0.1 0.1 0.2 0.2 0.3 0.3 0.1 0.1 0.3 0.2 0.4 0.3 0.1 0 0.2 0.1 0.3 0.1 0.1 0 0.2 0 0.3 0.1 0.1 0 0.2 0 0.3 0 0.1 0 0.2 0 0.3 0 0.2 0 0.4-0.1 0.7-0.2 0.2-0.1 0.4-0.2 0.6-0.4 0.2-0.1 0.4-0.3 0.5-0.5 0.1-0.2 0.3-0.4 0.4-0.6 0.1-0.2 0.2-0.4 0.3-0.6 0.1-0.2 0.1-0.4 0.1-0.6 0-0.2 0-0.4 0-0.6 0-0.2 0-0.3 0-0.4 0-0.3 0-0.4 0-0.4s0.1 0.1 0.2 0.4c0 0.1 0.2 0.3 0.2 0.4 0 0.2 0.1 0.4 0.1 0.6 0 0.2 0 0.5 0 0.7 0 0.3-0.1 0.6-0.2 0.8 -0.1 0.3-0.2 0.6-0.4 0.8 -0.2 0.2-0.4 0.5-0.6 0.7 -0.2 0.2-0.5 0.4-0.8 0.5 -0.3 0.1-0.6 0.2-0.9 0.2 -0.2 0-0.3 0-0.5 0 -0.1 0-0.3 0-0.4-0.1 -0.1-0.1-0.3-0.1-0.4-0.2 -0.1-0.1-0.2-0.2-0.3-0.2 -0.2-0.1-0.3-0.3-0.4-0.5 -0.1-0.2-0.2-0.3-0.2-0.4C317.5 147.9 317.5 147.7 317.5 147.7z" class="y"/><path d="M438.1 163.6c0 0-0.1-0.2-0.2-0.6 0-0.2-0.2-0.4-0.3-0.7 -0.1-0.3-0.4-0.4-0.6-0.7 -0.3-0.2-0.6-0.4-0.9-0.5 -0.2-0.1-0.4-0.1-0.5-0.1 -0.1 0-0.2 0-0.3 0l-0.3 0 -0.3 0 -0.3 0.1 -0.3 0.1 -0.3 0.2c-0.2 0.1-0.4 0.2-0.5 0.4 -0.1 0.2-0.3 0.3-0.4 0.5l-0.3 0.6c-0.1 0.2-0.2 0.4-0.2 0.6l-0.1 0.3 -0.1 0.3c0 0.2-0.1 0.4-0.1 0.6 -0.1 0.4 0 0.9-0.1 1.2 0 0.4 0 0.8 0.1 1.1 0 0.4 0 0.7 0.1 1 0 0.3 0.1 0.5 0.1 0.8 0.1 0.4 0.1 0.7 0.1 0.7s-0.1-0.2-0.2-0.6c-0.1-0.2-0.2-0.4-0.3-0.7 -0.1-0.3-0.2-0.6-0.3-1 -0.1-0.4-0.2-0.8-0.2-1.2 0-0.4-0.1-0.9 0-1.4 0-0.2 0.1-0.5 0.1-0.7l0.1-0.4 0.1-0.4c0.1-0.2 0.2-0.5 0.3-0.7l0.4-0.7c0.1-0.2 0.4-0.4 0.5-0.6 0.2-0.2 0.4-0.4 0.6-0.5 0.1-0.1 0.2-0.2 0.3-0.2l0.4-0.1 0.4-0.1c0.1 0 0.3 0 0.4 0 0.3 0 0.5 0 0.8 0 0.2 0 0.5 0.1 0.7 0.2 0.4 0.2 0.8 0.5 1.1 0.7 0.2 0.3 0.5 0.6 0.5 0.9 0.1 0.3 0.2 0.6 0.2 0.8C438.1 163.4 438.1 163.6 438.1 163.6z" class="y"/><path d="M436.5 165.9c0 0-0.4 0.2-1 0.4 -0.6 0.2-1.5 0.3-2.4 0 -0.2-0.1-0.4-0.2-0.6-0.4 -0.2-0.2-0.4-0.3-0.5-0.6 -0.1-0.1-0.1-0.2-0.2-0.3 0-0.1 0-0.2-0.1-0.3 -0.1-0.2 0-0.4 0-0.6 0-0.2 0-0.3 0.1-0.5 0-0.1 0.1-0.2 0.1-0.3 0.1-0.2 0.1-0.3 0.1-0.3s0 0.1 0 0.3c0 0.1 0 0.2 0 0.3 0 0.1 0.1 0.3 0.1 0.4 0 0.1 0.1 0.3 0.1 0.4 0 0.1 0.1 0.1 0.1 0.2l0.1 0.2c0.1 0.1 0.2 0.2 0.3 0.3 0.2 0.1 0.3 0.2 0.5 0.2 0.3 0.1 0.7 0.2 1.1 0.3 0.4 0 0.7 0.1 1 0.1C436.1 165.8 436.5 165.9 436.5 165.9z" class="y"/><path d="M326.9 142.6c0.1-1.1 0.2-2.2 0.2-3.4 -1.1 0-1.8-0.1-2-0.5 -1.4-2.3 4-8.4 4-8.4s-8.3 5.8-9.3 3.9c-1.1-2 4-7.1 4-7.1s-14.8 7.5-16.6 5.4c-0.7-0.8 0.7-2.5 2.8-4.3 -10.6 4.2-24.2 12.2-25.7 25.9 1.1 4.8 4.6 8.8 9.3 10.9 14.6 6.6 28.4 2.8 28.4 2.8 -1.7-3.6 0.2-7.4 2.1-13 0 0-10.7 4.8-12.3-7.8C310.3 136.4 322 133.2 326.9 142.6z" class="c"/><path d="M310 128.2c3.2-2.7 7.7-5.6 7.7-5.6 -28 7.6-35.9 21.4-33.5 31.5C285.7 140.4 299.4 132.4 310 128.2z" fill="#277A29"/><path d="M361.1 192.3c2.5 1.5 5.8 2.5 10 2.9 3.2 0.3 6-0.1 8.3-1C371.4 184.4 363.6 190 361.1 192.3z" fill="#EC675E"/><path d="M370.6 184c11.1 0.5 14-0.4 15.5-2.9 -11-3.6-21.8-3.2-28.1-2.5C358.7 180.4 361.2 183.6 370.6 184z" class="w"/><path d="M390.9 182.9c-1.6-0.7-3.2-1.3-4.8-1.8 -1.4 2.5-4.4 3.4-15.5 2.9 -9.4-0.4-11.9-3.6-12.6-5.5 -3.6 0.4-5.8 0.9-5.8 0.9 0.5 3 2.3 9.2 8.8 12.9 2.5-2.3 10.3-8 18.4 2C387.9 191.3 390.9 182.9 390.9 182.9z" fill="#F29398"/></svg>