<svg xmlns="http://www.w3.org/2000/svg" viewBox="0 0 768 430"><style>.a{fill:#7CDCEB;}.b{flood-color:white;flood-opacity:1;}.c{stop-color:#FFF;}.d{stop-color:#FCFCFC;}.e{stop-color:#F2F2F2;}.f{stop-color:#E1E1E1;}.g{stop-color:#C9C9C9;}.h{stop-color:#AAA;}.i{stop-color:#858585;}.j{stop-color:#585858;}.k{stop-color:#252525;}.l{stop-color:#000;}.m{fill:#F1C7A4;}.n{fill:#3B9B45;}.o{fill:#217C27;}.p{fill:#F59E00;}.q{fill:#E28B00;}.r{fill:#00A0DB;}.s{fill:#C5E2D0;}.t{fill:#0077B3;}.u{fill:#F4D9BF;}.v{fill:#75B73E;}.w{fill:#925F2D;}.x{fill:#BF946F;}.y{fill:#413000;}.z{fill:#FFF;}.A{fill:#64421C;}</style><path d="M329.5 355.6c2.1 8.9-6.3 18.4-18.7 21.3 -12.4 2.9-24.1-1.9-26.2-10.8 -2.1-8.9 6.3-18.4 18.7-21.3C315.7 341.9 327.4 346.7 329.5 355.6z" class="a"/><polygon points="285.2 367.5 285 366.7 286.2 366.3 286.5 367.1 " class="a"/><path d="M288.9 366.4l-0.2-0.8 2.4-0.7 0.2 0.8L288.9 366.4zM293.8 365l-0.2-0.8 2.4-0.7 0.2 0.8L293.8 365zM298.6 363.6l-0.3-0.8 2.4-0.7 0.2 0.8L298.6 363.6zM303.5 362.2l-0.2-0.8 2.4-0.7 0.2 0.8L303.5 362.2zM308.4 360.8l-0.2-0.8 2.4-0.7 0.2 0.8L308.4 360.8zM313.2 359.4l-0.2-0.8 2.4-0.7 0.2 0.8L313.2 359.4zM318.1 357.9l-0.2-0.8 2.4-0.7 0.2 0.8L318.1 357.9zM322.9 356.5l-0.2-0.8 2.4-0.7 0.2 0.8L322.9 356.5z" class="a"/><polygon points="327.8 355.1 327.6 354.3 328.8 353.9 329.1 354.7 " class="a"/><path d="M480.9 257.1c0 0-5.1-8.9-16.2-5.9 -11.1 3-13.7 11-14.5 17.9 -0.8 6.9-16.8 91.1-19.1 106.9 -0.1 0.4-0.1 0.9-0.1 1.4 2-3.4 6.4-7.1 15.4-9.3 15.1-3.8 18.7 3.6 18.7 3.6l14.8-109.4" fill="#EB639B"/><path d="M480 262.2l-14.8 109.4c0 0-3.7-7.4-18.7-3.6 -0.5 0.1-1 0.3-1.4 0.4l-3.7 13.8c0 0 4.7-7.3 17.5-6.3 8.7 0.6 12.4 4.6 12.7 9 2.9-6 3.9-13.5 5.1-21.4" fill="#C94788"/><path d="M450.2 389.4l3-13.4c-7.3 0.9-10.8 4.7-11.7 5.8C440 388.7 450.2 389.4 450.2 389.4z" fill="#9B296D"/><path d="M458.8 375.9c-2.1-0.2-3.9-0.1-5.6 0.1l-3 13.4c0 0-10.2-0.7-8.7-7.6 -0.2 0.2-0.2 0.3-0.2 0.3l3.7-13.8c-8.1 2.3-12.1 5.7-14 8.9 -0.7 9.6 6.6 21.2 22.9 19.9 9.5-1.5 14.6-6 17.7-12.3C471.2 380.5 467.5 376.5 458.8 375.9z" fill="#B2387B"/><defs><filter filterUnits="userSpaceOnUse" x="433.4" y="252.4" width="44" height="119.2"><feFlood result="back" class="b"/><feBlend in="SourceGraphic" in2="back" mode="normal"/></filter></defs><mask maskUnits="userSpaceOnUse" x="433.4" y="252.4" width="44" height="119.2"><g filter="url(#Adobe_OpacityMaskFilter)"><defs><filter filterUnits="userSpaceOnUse" x="433.4" y="252.4" width="44" height="119.2"><feFlood result="back" class="b"/><feBlend in="SourceGraphic" in2="back" mode="normal"/></filter></defs><mask maskUnits="userSpaceOnUse" x="433.4" y="252.4" width="44" height="119.2"/><radialGradient cx="338.3" cy="360.2" r="125" gradientTransform="matrix(0.9998 0.0207 -0.0207 0.9998 18.5789 -68.5951)" gradientUnits="userSpaceOnUse"><stop offset="0.0022" class="c"/><stop offset="0.1645" class="d"/><stop offset="0.2947" class="e"/><stop offset="0.4138" class="f"/><stop offset="0.5262" class="g"/><stop offset="0.6341" class="h"/><stop offset="0.7384" class="i"/><stop offset="0.8401" class="j"/><stop offset="0.937" class="k"/><stop offset="1" class="l"/></radialGradient><path mask="url(#SVGID_1_)" d="M452.9 262.8L433.4 371.6c0 0 12-9.7 28.2-5.1 10.5-72.5 15.9-110.7 15.9-110.7S465.6 244.7 452.9 262.8z" fill="url(#SVGID_2_)"/></g></mask><path d="M477.4 255.8c0 0-11.8-11.1-24.6 7L433.4 371.6c0 0 12-9.7 28.2-5.1C472.1 294 477.4 255.8 477.4 255.8" fill="#DB77AD"/><path d="M381.5 333.4c0 0 39.2 7.2 51.8 4.8 -6.8-20.7-9.5-28.6-9.5-28.6L381.5 333.4z" fill="#E32A1D"/><path d="M382.5 390.5c8.2-9 13.8-5.8 13.8-5.8l-38.1-77.8 -1.6-3.7c0 0-7.2-3.5-13.1 3.2 -5.9 6.8-4.1 13.2-1.6 18 2.5 4.8 28.9 66.7 34.2 78 0.2 0.3 0.3 0.6 0.5 0.9C376.4 400.2 377.6 395.9 382.5 390.5z" fill="#00B5ED"/><path d="M362.9 307.1c0 0-4.8-0.3-4.7-0.2l38.1 77.8c0 0-5.6-3.2-13.8 5.8 -0.3 0.3-0.5 0.6-0.8 0.9l3.6 10.6c0 0-0.1-6.8 8.7-11.7 5.9-3.4 10.1-2.4 12.2 0.4 -0.7-5.2-3.3-10.5-6-16.2C394.9 362.8 362.9 307.1 362.9 307.1z" fill="#00A7E5"/><path d="M394.3 402.8l-3.9-10c-4.4 3.8-5 7.8-5 8.9C387.4 406.8 394.3 402.8 394.3 402.8z" fill="#136C8F"/><path d="M394.1 390.2c-1.4 0.8-2.6 1.7-3.6 2.5l3.9 10c0 0-7 4-9-1.1 0 0.2 0 0.3 0 0.3l-3.6-10.6c-4.3 5-5.4 9-5.2 11.9 3.7 6.6 13.6 11 23.6 3 5.6-5.1 6.9-10.3 6.2-15.7C404.1 387.8 400 386.9 394.1 390.2z" fill="#198BBA"/><defs><filter filterUnits="userSpaceOnUse" x="340.8" y="303.7" width="50.9" height="94.8"><feFlood result="back" class="b"/><feBlend in="SourceGraphic" in2="back" mode="normal"/></filter></defs><mask maskUnits="userSpaceOnUse" x="340.8" y="303.7" width="50.9" height="94.8"><g filter="url(#Adobe_OpacityMaskFilter_2_)"><defs><filter filterUnits="userSpaceOnUse" x="340.8" y="303.7" width="50.9" height="94.8"><feFlood result="back" class="b"/><feBlend in="SourceGraphic" in2="back" mode="normal"/></filter></defs><mask maskUnits="userSpaceOnUse" x="340.8" y="303.7" width="50.9" height="94.8"/><radialGradient cx="921.9" cy="-668.2" r="98.1" gradientTransform="matrix(0.8422 -0.5392 0.5392 0.8422 -127.1922 1447.454)" gradientUnits="userSpaceOnUse"><stop offset="0.0022" class="c"/><stop offset="0.1645" class="d"/><stop offset="0.2947" class="e"/><stop offset="0.4138" class="f"/><stop offset="0.5262" class="g"/><stop offset="0.6341" class="h"/><stop offset="0.7384" class="i"/><stop offset="0.8401" class="j"/><stop offset="0.937" class="k"/><stop offset="1" class="l"/></radialGradient><path mask="url(#SVGID_3_)" d="M340.8 319.1l34.8 79.4c0 0 3.6-11.6 16.1-15.7 -24.8-51.9-38-79.1-38-79.1S341.2 301.7 340.8 319.1z" fill="url(#SVGID_4_)"/></g></mask><path d="M340.8 319.1l34.8 79.4c0 0 3.6-11.6 16.1-15.7 -24.8-51.9-38-79.1-38-79.1S341.2 301.7 340.8 319.1z" fill="#56C5E8"/><polyline points="493.3 93.2 473.3 97.6 462.1 84.9 458.2 101 439 113.2 457.3 118.8 459.7 136.8 470.2 119.3 488.9 128.3 " fill="#FFE754"/><path d="M363.7 169.8c6.8-0.6 4-9.3 4-9.3 -6.3 1.6-14.4 0.3-14.4 0.3l0.2 1.2C353.5 162 355.6 170.5 363.7 169.8z" class="m"/><path d="M400.4 236.1c-1-34.5-15.4-54.6-15.4-54.6s-9.6-16.2-17.3-21.1c0 0 2.7 8.7-4 9.3 -8 0.7-10.2-7.8-10.2-7.8 -8.9 8.8-14.7 32.6-14.7 32.6 -6 22.3-5.9 38.2-5.5 38.6 0.4 0.4 1.6 0.9 1.6 0.9S371.5 247.6 400.4 236.1z" fill="#FECB27"/><path d="M400.4 236.1c-29 11.5-65.6-2-65.6-2 -11.5 0.9-25 9.3-25 9.3s16.6 1.7 17.3 26.6c0 0 20.7-10.5 37.1-9.6 16.4 0.9 30.9 5.4 30.9 5.4s3.2-15.1 20.2-22.8C409.2 237.2 400.4 236.1 400.4 236.1z" class="n"/><path d="M310.6 246.9c-0.1 0-0.1 0-0.2 0 -0.1-0.1-0.2-0.2-0.3-0.3l-0.8-3.1c0-0.1 0-0.3 0.1-0.4 0.1-0.1 0.2-0.2 0.4-0.2 0.1 0 1.8 0.2 4.1 1.2 0.1 0.1 0.2 0.2 0.3 0.4 0 0.2-0.1 0.3-0.2 0.4l-3.2 1.9C310.8 246.9 310.7 246.9 310.6 246.9zM310.4 243.9l0.5 1.9 1.9-1.1C311.8 244.3 310.9 244 310.4 243.9z" fill="#48C2FF"/><path d="M321.4 265.5c2.8 3.3 5.7 4.4 5.7 4.4 -0.1-2.8-0.4-5.3-0.8-7.5C324.1 263.8 321.4 265.5 321.4 265.5z" class="o"/><path d="M395.1 265.7c3.3-2.1 5.5-5.1 5.5-5.1l-2.6-2C395.7 262.7 395.1 265.7 395.1 265.7z" class="o"/><path d="M415.3 242.9c-0.6 0.3-1.2 0.6-1.8 0.9l1.7 0.6L415.3 242.9z" class="o"/><path d="M409.5 157.9c-18.6-0.7-41.8 2.6-41.8 2.6 7.7 4.9 17.3 21.1 17.3 21.1 9.5 2.8 26.3 4.7 26.3 4.7C402.3 169.3 409.5 157.9 409.5 157.9z" class="p"/><path d="M411.4 186.2l0.7-4.3 -2.5 0.4C410 183.5 410.6 184.8 411.4 186.2z" class="q"/><path d="M277.1 290c-6.3 14.4-4.2 20-1.4 20.5 3.1 0.6 4.7-1.2 12.3-11.3C286.2 292.4 281.1 290.4 277.1 290z" class="r"/><path d="M285.2 274.6c-0.2 0.3-0.3 0.5-0.5 0.8 -1 1.6-1 2.1-1.8 3.6 -0.7 1.3-1.4 2.6-2.1 3.9 -1.4 2.6-2.8 5.2-3.6 7.1 3.9 0.4 9 2.3 10.9 9.2 1.4-1.9 3.1-4.2 5.1-6.8 0.2-0.2 0.3-0.4 0.6-0.7 0.8-1.1 2-2.5 2.5-3.2 1.3-1.7 1.8-2.2 3.1-3.7C295.8 276.2 289.3 274.6 285.2 274.6z" class="s"/><path d="M313.8 244.6l-3.2 1.9c0 0-10.4 4.6-23.1 24.4 -0.8 1.2-1.5 2.4-2.3 3.7 4.1 0 10.6 1.6 14 10.3 0.9-1.1 1.8-2 2.7-3 10.9-11.7 19.5-16.3 19.5-16.3s2.7-1.7 4.9-3.1C324.1 251.1 317.9 246.4 313.8 244.6z" class="m"/><path d="M283.3 298.4l-6.8-2.8c0 0-1.7 3.6-2 3.5 -0.3-0.1 1.4-4.3 1.4-4.3 5.4 0.2 8.5 3.6 8.5 3.6s-2 3.7-2.2 3.6C282 301.9 283.3 298.4 283.3 298.4z" class="t"/><path d="M385.4 277.9c-5.4 5.8-8.8 10.9-6.8 13 3.1 3.1 8 1.6 16-3C393.3 281.1 388.9 278.7 385.4 277.9z" class="r"/><path d="M424.5 255.2c-0.4-7.3-9.3-10.8-9.3-10.8l-1.7-0.6c-8.2 4.2-12.9 10.2-15.5 14.8l2.6 2 1.8 1.9c-1.6 1.2-3.3 2.6-5 4.1 -0.7 0.6-1.5 1.3-2.2 1.9 3.5 1.8 7.9 5.5 9.3 13.3 0.9-0.6 1.8-1.2 2.6-1.8C423.6 268.6 424.9 261.8 424.5 255.2z" class="m"/><path d="M395.2 268.5c-1.3 1.1-1.8 1.6-3 2.8 -0.7 0.7-1.5 1.4-2.3 2.2 -1.6 1.5-3.3 3.1-4.5 4.4 3.5 0.8 7.8 3.2 9.2 10 1.1-0.7 2.6-1.6 4.1-2.6 0.8-0.5 1.7-1.1 2.4-1.5 0.4-0.2 2.4-1.4 3.3-2C403.1 274 398.7 270.3 395.2 268.5z" class="s"/><path d="M391.6 288.3l-4.4-5.9c0 0-3.3 2.2-3.5 1.9 -0.2-0.2 3.4-2.9 3.4-2.9 4.5 3 5.4 7.5 5.4 7.5s-3.6 2.1-3.7 2C388.6 290.6 391.6 288.3 391.6 288.3z" class="t"/><path d="M409.5 157.9c0 0-0.2 0.3-0.5 1h1.2L409.5 157.9z" class="q"/><path d="M459.3 121.7c-1.2-5.4-7.6-5.2-8.5-5.6 -0.9-0.4 7.3-6 4.7-8.4 -2.6-2.5-11.8 7.7-12.1 10.9 -0.3 3.2 3.5 5.5 3.5 5.5s-2 14.3-12.4 25c-10.4 10.7-24.3 9.8-24.3 9.8h-1.2c-1.3 2.8-4.5 11.4 0.5 23.4l2.5-0.4c43.4-5.3 44.2-52.1 44.2-52.1 3.9 0.4 2.5-0.2 2.5-0.2L459.3 121.7z" class="m"/><path d="M314.2 180.5c0 0 3.8 9.1 20.1 19.7C330.2 179.7 314.2 180.5 314.2 180.5z" class="q"/><path d="M314.2 180.5c0 0 15.9-0.8 20.1 19.7l4.4-5.6c0 0 5.9-23.8 14.7-32.6C353.5 162 332 164.6 314.2 180.5z" class="p"/><path d="M317 234.9c-4.9-26.9 13.1-45.4 13.1-45.4 -5.2-8-12.8-8.9-15.2-9 0 0-19.9 24-10.6 55.4 0 0-15.9 7.4-14.3 10.5 1.6 3.2 11.8-3.2 9.5-2.1 -0.6 0.3-7.3 11.8-4.4 13.1 2.9 1.3 8.3-11.9 8.3-11.9s-0.9 11.5 1.9 13c2.8 1.5 4.4-12.9 4.4-12.9s1.2 12 4.4 13c3.3 1 1.4-15.3 4-15.3 2.6 0 5.8 1.5 8.1 3.1C328.5 248 327.4 238.9 317 234.9z" class="u"/><path d="M305.8 96.2l-0.3-0.7 0 0c0.2-0.1 0.4 0.1 0.5 0.3 0.1 0.2-0.1 0.4-0.2 0.5l0 0L305.8 96.2z" class="n"/><path d="M278.5 87.5c-0.9 4.4 1.5 7.6 5.1 9.2 6.3 2.8 22-0.9 22-0.9s0.1-0.6 0.3-1.6l-0.1 0C287.7 97.6 279.2 93.9 278.5 87.5z" fill="#277A29"/><path d="M286.8 76.2c-5.1 4.3-7.6 8.1-8.3 11.3 0.7 6.4 9.2 10.1 27.3 6.7l0.1 0c1.1-5 5.2-21 15.4-31.2C321.3 63 299.4 65.8 286.8 76.2z" class="n"/><path d="M365.6 53.1c0 0 6.5-5.5 19.1-6.6 -6.3-1.9-13-2.9-20-3 -9.9-0.1-17.9 1.9-24.2 4.6C352.9 48.6 365.6 53.1 365.6 53.1z" class="n"/><path d="M365.6 53.1c0 0-12.7-4.5-25.1-4.9 -13.3 5.7-19.2 14.8-19.2 14.8 -12.2 12.2-15.7 32.8-15.7 32.8s7.5 7.3 23.5 12.2C334.9 45.7 365.6 53.1 365.6 53.1z" class="v"/><path d="M365.6 53.1c0 0-30.7-7.4-36.5 54.9 8.9 2.7 20.3 4.6 34.5 4.1 17.8-0.7 31.1-3.8 40.4-7C402 52.7 365.6 53.1 365.6 53.1z" class="n"/><path d="M384.8 46.6c-12.6 1.1-19.1 6.6-19.1 6.6s36.4-0.5 38.5 52c11.4-4 16.7-8.1 16.7-8.1C421 69.4 405.7 52.9 384.8 46.6z" class="v"/><path d="M348.3 106.3c0 0 17.5 5.8 35.1 0.9 0 0 2.7-22.8-16.6-23.5C347.4 82.9 348.3 106.3 348.3 106.3z" class="w"/><path d="M320.7 123.2c0 0-0.9-2-4.3-3.3 -6-2.3-8.2 6-8.2 6s-2.2 14.3 9.8 13.6C321.7 127.9 320.7 123.2 320.7 123.2z" class="u"/><path d="M433.7 99.3c0.2-3.6-12.9-2.3-12.9-2.3s-17.4 13.6-57.1 15.1c-39.8 1.5-58-16.3-58-16.3l0 0c-0.5 0.2-8.2 2.6-10.2 8.2 -2.1 5.7 12.2-0.3 12.2-0.3s-3.8 5.1-4.2 12.7c-0.3 7.5 4.4 0.6 4.4 0.6s-1.6 5.4 0.4 8.9c0 0 2.2-8.3 8.2-6 3.4 1.3 4.3 3.3 4.3 3.3l-0.6-3.9c0 0 8.2-1.1 14-5 0 0-4.4 4.2-3.4 6 1 1.7 15 2.2 28.9-5 0 0-5.1 4.1-3.4 6.9 1.7 2.8 14.6-0.4 20.1-5.6 0 0 1.5 3.9 7 6.9 5.4 3 6.6-0.8 4-8.5 0 0 16 8.7 20.6 6.9 0 0 4.9-8.4 12.4 0.1 -0.7-4.1-2.9-6.1-2.9-6.1s9.4 5.1 11.1 0.7c1.7-4.4-5.3-11.7-6-12C421.7 104.1 433.5 102.9 433.7 99.3z" class="w"/><path d="M408.1 121.5c-0.1 0.2-0.2 0.3-0.2 0.3 -4.6 1.8-20.6-6.9-20.6-6.9 2.6 7.7 1.5 11.5-4 8.5 -5.5-3-7-6.9-7-6.9 -5.5 5.2-18.4 8.4-20.1 5.6 -1.7-2.8 3.4-6.9 3.4-6.9 -13.8 7.2-27.9 6.7-28.9 5 -1-1.7 3.4-6 3.4-6 -5.9 3.8-14 5-14 5l0.6 3.9c0 0 0.9 4.7-2.6 16.3 0 0-2 4.7 6 10.8 8.1 6.1 21.1 11.5 28.9 13.5 0 0 9 2.2 18.6 0.7 0 0 15.1-1.7 28.4-11.6 13.3-9.9 11.3-15.2 11.3-15.2s-0.7-3.4-2.1-9.4C408.4 125.2 408.1 123 408.1 121.5z" class="u"/><path d="M420 132.5c3.3-6.8 0.2-10.6 0.2-10.6 -6.6-7.5-11.2-1.8-12.2-0.4 0.1 1.5 0.4 3.7 1.1 6.8 1.4 6 2.1 9.4 2.1 9.4C413.2 138.5 416.8 139.3 420 132.5z" class="u"/><path d="M311.6 130c0 0 0-0.1 0-0.2 0-0.1 0-0.3 0-0.6 0-0.3 0-0.6 0.1-0.9 0.1-0.3 0.2-0.7 0.4-1.1 0.2-0.4 0.5-0.8 1-1.1 0.4-0.3 1-0.5 1.5-0.6 0.6-0.1 1.2 0 1.8 0.3 0.6 0.2 1.1 0.6 1.5 1.1 0.4 0.4 0.7 1 1 1.5 0.3 0.5 0.4 1.1 0.6 1.6 0.1 0.5 0.2 1 0.2 1.5 0 0.5 0.1 1 0 1.4 0 0.9-0.1 1.6-0.2 2 -0.1 0.5-0.1 0.8-0.1 0.8s0-0.3 0-0.8c0-0.5 0-1.2-0.1-2 0-0.4-0.1-0.9-0.2-1.3 -0.1-0.5-0.2-1-0.3-1.4 -0.1-0.5-0.3-1-0.6-1.4s-0.5-0.9-0.9-1.3c-0.7-0.8-1.7-1.2-2.6-1.2 -0.9 0.1-1.7 0.6-2.2 1.3 -0.2 0.3-0.4 0.7-0.5 1 -0.1 0.3-0.2 0.6-0.2 0.8 0 0.2-0.1 0.4-0.1 0.6C311.6 129.9 311.6 130 311.6 130z" class="x"/><path d="M313.4 132.7c0 0 0.1 0.1 0.3 0.2 0.1 0.1 0.2 0.1 0.4 0.2 0.1 0 0.1 0.1 0.2 0.1 0.1 0 0.2 0 0.3 0 0.1 0 0.2 0 0.3 0 0.1 0 0.2 0 0.3 0 0.2-0.1 0.4-0.1 0.7-0.2 0.2-0.1 0.4-0.3 0.6-0.4 0.2-0.2 0.4-0.3 0.6-0.5 0.2-0.2 0.3-0.4 0.5-0.6 0.1-0.2 0.3-0.4 0.4-0.7 0-0.1 0.1-0.2 0.1-0.3 0-0.1 0.1-0.2 0.1-0.3 0.1-0.2 0.1-0.4 0.1-0.6 0-0.2 0-0.4 0-0.6 0-0.2 0-0.3 0-0.4 0-0.3-0.1-0.4-0.1-0.4s0.1 0.1 0.2 0.3c0.1 0.1 0.2 0.3 0.2 0.4 0 0.2 0.1 0.4 0.1 0.6 0 0.2 0.1 0.5 0 0.8 0 0.1 0 0.3-0.1 0.4 0 0.1-0.1 0.3-0.1 0.4 -0.1 0.3-0.2 0.5-0.4 0.8 -0.2 0.2-0.3 0.5-0.6 0.7 -0.2 0.2-0.5 0.4-0.7 0.6 -0.3 0.2-0.5 0.3-0.8 0.4 -0.3 0.1-0.6 0.1-0.8 0.2 -0.3 0-0.5 0-0.8-0.1 -0.1 0-0.2-0.1-0.3-0.1 -0.1 0-0.2-0.1-0.3-0.2 -0.2-0.1-0.3-0.2-0.3-0.3C313.5 132.9 313.4 132.7 313.4 132.7z" class="x"/><path d="M414.4 133.6c0 0-0.1 0-0.2-0.1 -0.1-0.1-0.3-0.2-0.6-0.3 -0.2-0.2-0.5-0.4-0.8-0.7 -0.1-0.2-0.3-0.3-0.4-0.5 -0.1-0.2-0.3-0.4-0.4-0.6 -0.2-0.4-0.4-0.9-0.6-1.5 -0.1-0.6-0.2-1.2-0.1-1.8 0-0.6 0.2-1.3 0.4-1.9 0.2-0.6 0.5-1.2 0.8-1.8l0.3-0.4 0.3-0.4c0.2-0.3 0.5-0.5 0.7-0.7 0.6-0.4 1.3-0.7 2-0.6 0.7 0.1 1.3 0.4 1.7 0.8 0.4 0.4 0.8 0.8 1 1.3 0.1 0.2 0.2 0.4 0.3 0.7 0.1 0.2 0.1 0.4 0.1 0.6 0 0.4 0.1 0.8 0 1 0 0.3-0.1 0.5-0.1 0.6 0 0.1-0.1 0.2-0.1 0.2s0-0.1 0-0.2c0-0.1 0.1-0.4 0-0.6 0-0.3-0.1-0.6-0.1-1 -0.1-0.2-0.1-0.4-0.2-0.6 -0.1-0.2-0.2-0.4-0.3-0.6 -0.2-0.4-0.6-0.8-1-1 -0.4-0.3-0.9-0.5-1.4-0.5 -0.5 0-1 0.2-1.5 0.5 -0.2 0.2-0.4 0.3-0.6 0.6l-0.3 0.4 -0.2 0.4c-0.3 0.5-0.6 1.1-0.8 1.6 -0.2 0.6-0.4 1.1-0.4 1.7 -0.1 0.6-0.1 1.1 0 1.6 0.1 0.5 0.2 1 0.4 1.4 0.2 0.4 0.4 0.8 0.6 1.1 0.2 0.3 0.5 0.5 0.7 0.7 0.2 0.2 0.4 0.3 0.5 0.4C414.4 133.6 414.4 133.6 414.4 133.6z" class="x"/><path d="M417.7 129.2c0 0 0 0 0 0.1 0 0.1-0.1 0.2-0.1 0.2 -0.1 0.1-0.2 0.2-0.3 0.3 -0.1 0.1-0.3 0.2-0.5 0.3 -0.2 0.1-0.4 0.2-0.6 0.3 -0.2 0.1-0.5 0.1-0.7 0.1 -0.3 0-0.5 0-0.8 0 -0.1 0-0.3 0-0.4-0.1l-0.4-0.1c-0.3-0.1-0.6-0.3-0.8-0.4 -0.2-0.2-0.4-0.4-0.6-0.6 -0.3-0.5-0.4-1-0.5-1.4 -0.1-0.8 0.1-1.4 0.1-1.4s0.1 0.5 0.3 1.3c0.1 0.2 0.1 0.4 0.2 0.5 0.1 0.2 0.2 0.4 0.4 0.5 0.1 0.2 0.3 0.3 0.5 0.4 0.2 0.1 0.4 0.2 0.6 0.3l0.4 0.1c0.1 0 0.2 0 0.3 0.1 0.2 0 0.5 0.1 0.7 0.1 0.2 0 0.5 0 0.6 0 0.2 0 0.4 0 0.6-0.1 0.4-0.1 0.6-0.3 0.8-0.4C417.6 129.3 417.7 129.2 417.7 129.2z" class="x"/><path d="M341.1 136.6c-0.3 3.8-1.9 6.8-3.6 6.7 -1.7-0.1-2.8-3.3-2.5-7.2 0.3-3.8 1.9-6.8 3.6-6.7C340.3 129.6 341.5 132.8 341.1 136.6z" class="y"/><path d="M339.1 138.9c-0.2 1.9-0.9 3.3-1.8 3.3 -0.8-0.1-1.4-1.6-1.2-3.5 0.2-1.9 0.9-3.3 1.8-3.3C338.7 135.4 339.3 137 339.1 138.9z" class="z"/><path d="M381.8 137.7c-0.3 3.8-1.9 6.8-3.6 6.7 -1.7-0.1-2.8-3.3-2.5-7.2 0.3-3.8 1.9-6.8 3.6-6.7C381 130.7 382.1 133.9 381.8 137.7z" class="y"/><path d="M379.8 140.1c-0.1 1.8-0.9 3.2-1.7 3.1 -0.8-0.1-1.3-1.6-1.2-3.4 0.1-1.8 0.9-3.2 1.7-3.1C379.4 136.8 379.9 138.3 379.8 140.1z" class="z"/><path d="M386.4 130.3c-0.8-0.2-1.3-4.1-5.3-4.9 -5.9-1.3-7.4 4.2-8.5 4.1 -1.1-0.1 2.1-8.4 9.5-6C386.1 124.8 387.1 130.5 386.4 130.3z" class="A"/><path d="M344.6 128.9c-0.8-0.2-1.3-4.1-5.2-4.9 -5.9-1.3-7.4 4.2-8.5 4.1 -1.1-0.1 2.1-8.4 9.5-6C344.4 123.4 345.4 129.1 344.6 128.9z" class="A"/><path d="M359.6 143.7c0 0-0.3-0.2-0.8-0.5 -0.3-0.1-0.6-0.3-1-0.4 -0.4-0.1-0.9-0.2-1.4-0.3 -0.5 0-1 0-1.5 0.3 -0.5 0.3-1 0.6-1.3 1.1 -0.1 0.1-0.2 0.2-0.3 0.4l-0.2 0.4c-0.1 0.1-0.2 0.3-0.2 0.4l-0.2 0.5c-0.2 0.3-0.2 0.6-0.2 0.9 0 0.1 0 0.3 0 0.5l0 0.5c0.2 0.6 0.4 1.2 0.8 1.7 0.4 0.5 0.9 0.9 1.4 1.2 0.3 0.2 0.6 0.3 0.8 0.4 0.3 0.1 0.6 0.2 0.8 0.3 0.3 0 0.6 0.1 0.8 0.1 0.3 0 0.5 0 0.8 0 0.2 0 0.5-0.1 0.7-0.1 0.2-0.1 0.4-0.1 0.6-0.2 0.2-0.1 0.4-0.2 0.5-0.3 0.2-0.1 0.3-0.2 0.4-0.3 0.5-0.4 0.7-0.6 0.7-0.6s-0.2 0.3-0.6 0.8c-0.1 0.1-0.3 0.2-0.4 0.3 -0.1 0.1-0.3 0.3-0.5 0.3 -0.2 0.1-0.4 0.2-0.6 0.3 -0.2 0.1-0.5 0.1-0.8 0.2 -0.3 0-0.6 0-0.9 0.1 -0.3 0-0.6 0-0.9-0.1 -0.3-0.1-0.6-0.1-0.9-0.2 -0.3-0.1-0.6-0.3-0.9-0.4 -0.6-0.3-1.2-0.8-1.7-1.3 -0.5-0.6-0.8-1.3-1-2l-0.1-0.6c0-0.2 0-0.4 0-0.6 0-0.4 0.1-0.8 0.2-1.1l0.2-0.5c0.1-0.2 0.2-0.3 0.3-0.5l0.3-0.5c0.1-0.1 0.2-0.3 0.3-0.4 0.4-0.6 1-1 1.6-1.2 0.6-0.3 1.2-0.3 1.8-0.2 0.5 0.1 1 0.2 1.4 0.4 0.4 0.2 0.7 0.4 1 0.5C359.4 143.5 359.6 143.7 359.6 143.7z" class="x"/><path d="M345.4 154.7c0 0 0.2 0.4 0.7 1.1 0.3 0.3 0.6 0.7 1 1.2 0.4 0.4 0.9 0.9 1.5 1.3 0.6 0.5 1.2 0.9 1.9 1.3 0.4 0.2 0.7 0.4 1.1 0.6 0.4 0.2 0.8 0.3 1.2 0.5 0.4 0.2 0.9 0.3 1.3 0.4 0.4 0.1 0.9 0.2 1.4 0.3 0.5 0.1 0.9 0.2 1.4 0.2l0.4 0.1 0.1 0c0 0 0 0 0.1 0l0.2 0 0.7 0c0.2 0 0.5 0 0.7 0l0.7 0 0.7 0c0.2 0 0.5-0.1 0.7-0.1 0.5-0.1 0.9-0.2 1.4-0.3 0.4-0.1 0.9-0.2 1.3-0.4 0.4-0.2 0.8-0.3 1.2-0.5 0.4-0.2 0.8-0.4 1.1-0.6 0.4-0.2 0.7-0.4 1-0.7 0.3-0.2 0.6-0.4 0.9-0.7 0.3-0.2 0.5-0.4 0.8-0.7 0.3-0.2 0.5-0.4 0.7-0.6 0.4-0.4 0.8-0.8 1.1-1.1 0.6-0.6 0.8-1 0.8-1s-0.2 0.4-0.7 1.1c-0.3 0.3-0.6 0.8-1 1.2 -0.4 0.5-0.8 1-1.4 1.4 -0.3 0.3-0.6 0.5-0.9 0.7 -0.3 0.3-0.6 0.5-1 0.7 -0.3 0.2-0.7 0.5-1.1 0.7 -0.4 0.2-0.8 0.4-1.2 0.6 -0.4 0.2-0.9 0.4-1.3 0.5 -0.2 0.1-0.5 0.2-0.7 0.2l-0.7 0.1c-0.2 0-0.5 0.1-0.7 0.1l-0.8 0 -0.8 0.1c-0.2 0-0.5 0-0.7 0l-0.7 0 -0.2 0c0 0 0 0-0.1 0l-0.1 0 -0.4-0.1c-0.5-0.1-1-0.1-1.5-0.3 -0.5-0.1-0.9-0.2-1.4-0.4 -0.5-0.2-0.9-0.3-1.3-0.5 -0.4-0.2-0.9-0.4-1.2-0.6 -0.4-0.2-0.8-0.4-1.1-0.7 -0.7-0.5-1.4-1-1.9-1.5 -0.6-0.5-1-1-1.4-1.5 -0.4-0.5-0.7-0.9-0.9-1.3C345.6 155.2 345.4 154.7 345.4 154.7z" class="x"/><path d="M369.8 153.3c0 0 0 0.1 0.1 0.2 0.1 0.1 0.2 0.2 0.3 0.4 0.1 0.1 0.1 0.1 0.2 0.2 0.1 0.1 0.1 0.2 0.2 0.2 0.1 0.1 0.2 0.2 0.3 0.2 0.1 0.1 0.2 0.1 0.3 0.2l0.3 0.2c0.1 0 0.2 0.1 0.3 0.2 0.1 0.1 0.2 0.1 0.3 0.2 0.1 0.1 0.2 0.1 0.3 0.1 0.4 0.2 0.6 0.3 0.6 0.3s-0.3 0.1-0.7 0.1c-0.1 0-0.2 0-0.4 0 -0.1 0-0.3-0.1-0.4-0.1 -0.1 0-0.3-0.1-0.4-0.1 -0.1-0.1-0.3-0.2-0.4-0.3 -0.1-0.1-0.3-0.2-0.4-0.3 -0.1-0.1-0.2-0.2-0.3-0.4 -0.1-0.1-0.1-0.2-0.2-0.4 -0.1-0.1-0.1-0.2-0.1-0.3 -0.1-0.2-0.1-0.4-0.1-0.5C369.7 153.4 369.8 153.3 369.8 153.3z" class="x"/></svg>