<svg xmlns="http://www.w3.org/2000/svg" viewBox="0 0 768 430"><style>.a{fill:#C51A13;}.b{fill:#D61A13;}.c{fill:#E81A13;}.d{fill:#ED6E6E;}.e{fill:#7F0007;}.f{fill:#E2E0E0;}.g{fill:#FFF;}.h{fill:#7F7E7E;}.i{fill:#3C1A00;}</style><path d="M493.5 326.6c2.2 6.6 18.1 3 28.5 7.7 10.4 4.7 19.5 14.9 20.3 22.8 4.2-9.9 0.4-24.8-12.9-31.9 -13.3-7.1-30.1-5.4-32.9-3.3C495.1 322.9 493.5 324.6 493.5 326.6z" class="a"/><path d="M495.7 325.1c4.7 4.6 18.1 1 28.5 5.8 10.4 4.7 18.4 18 18.1 26.3 4.2-9.9 0.4-24.8-12.9-31.9 -13.3-7.1-30.1-5.4-32.9-3.3C495.1 322.9 495.7 323 495.7 325.1z" class="b"/><path d="M497.5 324c3.9 3 18 0 28.4 4.7 10.4 4.8 17.7 15.9 16.4 28.5 4.2-9.9 0.4-24.8-12.9-31.9 -13.3-7.1-30.1-5.4-32.9-3.3C495.1 322.9 497.5 324 497.5 324z" class="c"/><path d="M525 325.1c-8.1-3.3-17.8-6-26.4-4 5.7-1.5 19.4-1.8 30.7 4.2 12.9 6.9 16.9 21.1 13.3 31C546.3 343.9 538 330.1 525 325.1z" class="d"/><path d="M541.9 357.1c-0.8-7.7-9.8-17.8-20.1-22.5 -2.3-1.1-5.1-1.8-8.7-2.3 -2.1-0.3-4.2-0.5-6.3-0.6 -1.9-0.2-3.7-0.3-5.4-0.5 -3.5-0.5-7.3-1.4-8.3-4.4l0-0.1c0-2.4 1.9-4.1 3.1-4.9 1.9-1.4 9.4-2.7 18.4-1.4 5.6 0.8 10.6 2.3 15 4.7 13.5 7.2 17.3 22.4 13.1 32.3l-0.6 1.5L541.9 357.1zM496.7 322.3c-1 0.7-2.8 2.3-2.8 4.3 0.7 2.1 3 3.3 7.6 3.9 1.6 0.2 3.4 0.4 5.3 0.5 2.1 0.2 4.2 0.4 6.3 0.6 3.7 0.5 6.6 1.3 9 2.4 9.8 4.5 18.5 13.9 20.3 21.6 3.2-9.6-0.7-23.4-13.3-30.1 -4.3-2.3-9.2-3.8-14.7-4.6C505.8 319.8 498.4 321 496.7 322.3z" class="e"/><path d="M472.6 339.3c0.7 5.3 7.7 5.6 8.7 12.1 1.1 6.5-3.8 16.9-12.3 23.4 11.5 1.8 24.4-5.5 25.7-20.8 1.3-15.4-15.4-20.9-19.3-20.2C473.3 334.6 472.2 337.9 472.6 339.3z" class="a"/><path d="M479.8 370.3c9.9-12.3 6.1-27.5-7.2-32.6 0.3-1.5 1.3-3.4 2.9-4 3.8-0.7 20.6 4.9 19.3 20.2 -0.4 4.4-1.7 8.1-3.7 11.2C488 368 484.5 370.4 479.8 370.3z" class="b"/><path d="M485.3 367c8.3-13.6-0.1-25.4-11.9-31.4 0.5-0.9 1.2-1.6 2.1-1.9 3.8-0.7 20.6 4.9 19.3 20.2 -0.2 2.7-0.8 5.2-1.7 7.4C490.9 363.9 489 366.5 485.3 367z" class="c"/><path d="M489.9 362.1c2-5.9 3.7-17.8-9.7-24.8C492.2 339.7 493.9 353.1 489.9 362.1z" class="d"/><path d="M469 375.1l-0.7-0.1 0.6-0.5c8.8-6.7 13.1-17.2 12.2-23.1 -0.5-3.3-2.6-4.9-4.6-6.5 -1.9-1.5-3.7-2.9-4.1-5.6 -0.5-1.7 0.8-5.1 3.2-6 0.4-0.1 1-0.1 1.6 0 5.2 0.5 19.3 6.4 18 20.6 -0.6 6.7-3.4 12.3-8.1 16.2 -4.6 3.8-10.7 5.7-16.8 5C469.8 375.2 469.4 375.2 469 375.1zM475.6 334c-2.1 0.8-3.1 3.9-2.7 5.3 0.3 2.4 2.1 3.8 3.9 5.2 2 1.6 4.3 3.4 4.9 6.9 1.1 6.9-4 17-11.8 23.2 6 0.7 12.2-1.1 16.8-4.9 4.6-3.8 7.3-9.3 7.9-15.8 1.2-13.7-12.4-19.4-17.4-19.9C476.4 334 475.9 334 475.6 334z" class="e"/><path d="M322.1 326.7c-4.3 7.2-16.4-2.3-32.8 0 -16.4 2.3-28.5 11.1-32.8 19.2 0-22.4 35.8-42.2 61.5-28.1C322.5 321 323.1 325.4 322.1 326.7z" class="a"/><path d="M322.1 324.4c-4.3 7.2-15.1-4.5-31.5-2.1 -16.4 2.3-28.4 9.2-34.2 23.6 0-22.4 35.8-42.2 61.5-28.1C322.5 321 323.1 323.1 322.1 324.4z" class="b"/><path d="M321.5 322.3c-2.7 2.2-14.4-4.5-30.8-2.1 -16.4 2.3-28.5 9.8-34.2 25.8 0-22.4 35.8-42.2 61.5-28.1C322.5 321 322.5 321 321.5 322.3z" class="c"/><path d="M286 316.3c10.4-3.3 22.7-2.3 32.3 1.7 -0.1-0.1-0.2-0.1-0.3-0.2 -24.4-13.3-57.8 3.8-61.2 24.6C261.4 329.5 272.9 320.2 286 316.3z" class="d"/><path d="M256.1 347.2v-1.3c0-17 20.8-33.1 42.8-33.1 7 0 13.4 1.6 19.2 4.7 2.5 1.8 4.2 4.3 4.6 6.8 0.2 1.1 0 2.1-0.4 2.6 -1.1 2-3 2.9-5.7 2.9 -2.2 0-4.8-0.6-7.8-1.2 -4.1-0.9-8.8-1.9-14.1-1.9 -1.8 0-3.6 0.1-5.4 0.4 -16.8 2.4-28.5 11.3-32.6 19L256.1 347.2zM299 313.4c-21.1 0-41.2 15-42.2 31.2 4.6-7.6 16.1-15.9 32.4-18.2 1.8-0.3 3.6-0.4 5.5-0.4 5.4 0 10.1 1 14.2 1.9 3 0.7 5.6 1.2 7.7 1.2 2.5 0 4.1-0.8 5.2-2.6 0.4-0.4 0.5-1.2 0.3-2.2 -0.3-2.3-1.9-4.6-4.3-6.3C312.2 315 305.8 313.4 299 313.4z" class="e"/><path d="M341.1 321.5c-7.1 1.6-12.7 4.5-17.1 7.6 -4.8 3.1-14.6-10-8.4-14.9 4.5-2.7 19.6-1.6 22.5-1.6C339.7 313.6 342.6 319 341.1 321.5z" class="a"/><path d="M340.1 316.7c-7.1 1.6-12.9 4-17.3 7.1 -4.8 3.1-13.4-4.8-7.2-9.7 4.5-2.7 19.6-1.6 22.5-1.6C339.7 313.6 341.6 314.2 340.1 316.7z" class="b"/><path d="M339.5 314.7c-7.1 1.6-13.3 2.9-17.7 6 -4.8 3.1-12.4-1.7-6.2-6.6 4.5-2.7 19.6-1.6 22.5-1.6C339.7 313.6 341 312.1 339.5 314.7z" class="c"/><path d="M322.5 313.8c5.1 0 10.3-0.7 15.4-1.2 -3.1 0-17.9-1-22.4 1.6 -1.8 1.4-2.4 2.8-2.3 4C315 314.6 318.9 313.8 322.5 313.8z" class="d"/><path d="M322.3 329.9c-3 0-7-3.8-8.5-8.2 -1.2-3.3-0.6-6.1 1.5-7.8 2.1-1.3 6.6-1.9 13.6-1.9 2.6 0 5.1 0.1 6.9 0.1 1 0 1.7 0.1 2.2 0.1h0.1l0.1 0c1.7 1.1 4.8 6.6 3.2 9.4l-0.1 0.1 -0.1 0c-6.1 1.4-11.7 3.8-17 7.5C323.6 329.7 323 329.9 322.3 329.9zM328.9 312.7c-6.8 0-11.3 0.6-13.2 1.8 -2.5 2-1.9 5.3-1.3 7 1.4 4.1 5.2 7.7 7.9 7.7 0.5 0 1-0.1 1.5-0.4 5.4-3.7 11-6.2 17.1-7.6 1.2-2.4-1.5-7.3-3-8.3 -0.5 0-1.2 0-2.1-0.1C334 312.8 331.6 312.7 328.9 312.7z" class="e"/><path d="M353 332.5c-7.1 1.6-11.8 8.9-16.3 12 -4.8 3.1-13.9-8.1-7.8-13 4.5-2.7 13.7-2.9 20.1-7.6C350.8 324.9 354.5 329.9 353 332.5z" class="a"/><path d="M352 330c-7.1 1.6-12.4 7.3-16.8 10.4 -4.8 3.1-12.3-4-6.2-8.9 4.5-2.7 13.7-2.9 20.1-7.6C350.8 324.9 353.5 327.4 352 330z" class="b"/><path d="M350.5 327.7c-7.1 1.6-11.9 7.1-16.4 10.2 -4.8 3.1-11.3-1.6-5.1-6.5 4.5-2.7 13.7-2.9 20.1-7.6C350.8 324.9 352 325.2 350.5 327.7z" class="c"/><path d="M329 331.4c-2.8 2.3-3 4.5-1.9 5.9 0.3-2.3 2.7-5.4 4.6-5.9 7.3-1.8 12.9-2.9 18.2-7 -0.3-0.2-0.6-0.3-0.9-0.5C342.7 328.5 333.4 328.8 329 331.4z" class="d"/><path d="M334.9 345.3c-2.9 0-6.5-3.2-7.8-6.9 -1-2.9-0.4-5.5 1.7-7.2 1.9-1.1 4.7-1.9 7.6-2.6 4.1-1.1 8.9-2.3 12.5-5l0.2-0.1 0.2 0.1c1.7 1.1 5.7 6.2 4 9.1l-0.1 0.1 -0.1 0c-4.7 1.1-8.4 4.6-11.6 7.8 -1.6 1.6-3.1 3.1-4.6 4.1C336.3 345.1 335.6 345.3 334.9 345.3zM349.1 324.3c-3.8 2.7-8.4 3.9-12.6 4.9 -2.9 0.7-5.6 1.4-7.4 2.5 -2.5 2-2 4.9-1.5 6.5 1.2 3.5 4.6 6.5 7.2 6.5 0.6 0 1.2-0.2 1.7-0.5 1.4-1 2.9-2.5 4.5-4 3.3-3.2 6.9-6.8 11.7-8C354 329.9 350.9 325.5 349.1 324.3z" class="e"/><path d="M333.8 342.4c-2.4 5.9-14.5 0.4-23.1 3.5 -8.6 3.1-16.8 11.4-18.3 18.6 -2.2-9.8 2.3-23.1 13.5-28 11.2-4.9 24.1-1.2 26.1 1.2C332.9 338.8 334 340.5 333.8 342.4z" class="a"/><path d="M332.2 340.7c-4.2 3.7-14.3-1.4-22.9 1.7 -8.6 3.1-16.3 14.4-16.9 22.1 -2.2-9.8 2.3-23.1 13.5-28 11.2-4.9 24.1-1.2 26.1 1.2C332.9 338.8 332.4 338.8 332.2 340.7z" class="b"/><path d="M330.9 339.4c-3.3 2.3-14.1-2.3-22.7 0.7s-15.5 12.6-15.9 24.4c-2.2-9.8 2.3-23.1 13.5-28 11.2-4.9 24.1-1.2 26.1 1.2C332.9 338.8 330.9 339.4 330.9 339.4z" class="c"/><path d="M309.3 337c6.7-2.1 14.6-3.3 21.1-0.4 -4.3-2.1-15-4.2-24.5 0 -10.8 4.8-15.5 17.4-13.7 27.1C290.7 351.7 298.6 339.9 309.3 337z" class="d"/><path d="M292.4 366l-0.3-1.4c-2.2-9.8 2.4-23.4 13.7-28.4 3.7-1.6 7.8-2.4 12.2-2.4 7.2 0 12.9 2.1 14.2 3.7 0.8 0.9 2.1 2.7 1.9 4.9l0 0.1c-1.1 2.7-4.2 3.1-7 3.1 -1.3 0-2.7-0.1-4.2-0.2 -1.6-0.1-3.3-0.2-5-0.2 -2.9 0-5.1 0.3-7.1 1 -8.5 3.1-16.6 11.3-18.1 18.4L292.4 366zM318 334.4c-4.3 0-8.4 0.8-12 2.4 -10.5 4.6-15.1 16.9-13.6 26.3 2.2-6.9 10-14.6 18.2-17.5 2-0.7 4.3-1 7.3-1 1.7 0 3.4 0.1 5 0.2 1.5 0.1 2.9 0.2 4.2 0.2 3.7 0 5.6-0.8 6.4-2.6 0.2-1.9-1-3.6-1.7-4.4C330.5 336.5 324.9 334.4 318 334.4z" class="e"/><path d="M354.7 347.7c-1.3 5.2-8.2 4.8-9.9 11.2 -1.7 6.4 2.1 17.2 9.9 24.5 -11.6 0.6-23.7-7.9-23.5-23.3 0.2-15.4 17.5-19.3 21.2-18.2C354.5 342.9 355.3 346.3 354.7 347.7z" class="a"/><path d="M344.4 377.8c-8.6-13.2-3.3-28 10.5-31.8 -0.2-1.6-1-3.5-2.5-4.2 -3.7-1.1-21 2.8-21.2 18.2 -0.1 4.4 0.9 8.3 2.6 11.5C336.5 374.8 339.8 377.4 344.4 377.8z" class="b"/><path d="M339.3 374c-6.9-14.3 2.6-25.2 15-30 -0.4-0.9-1-1.7-1.9-2.1 -3.7-1.1-21 2.8-21.2 18.2 0 2.7 0.3 5.3 1 7.6C334 370.3 335.7 373.1 339.3 374z" class="c"/><path d="M335.3 368.7c-1.4-6.1-1.9-18.1 12.1-23.7C335.1 346.1 332.1 359.4 335.3 368.7z" class="d"/><path d="M353.5 383.7c-6.1 0-12-2.4-16.2-6.7 -4.3-4.4-6.5-10.2-6.4-17 0.2-14.3 14.7-18.7 20-18.7 0.7 0 1.2 0.1 1.6 0.2 2.3 1.1 3.2 4.7 2.6 6.3 -0.6 2.6-2.6 3.8-4.6 5.1 -2.2 1.4-4.4 2.8-5.3 6 -1.5 5.8 1.8 16.7 9.8 24.2l0.5 0.5 -0.7 0C354.3 383.7 353.9 383.7 353.5 383.7zM350.9 342c-5.1 0-19.2 4.3-19.3 18.1 -0.1 6.6 2.1 12.3 6.3 16.5 4.2 4.2 10.1 6.6 16.2 6.5 -7.1-7-11.3-17.5-9.4-24.3 0.9-3.5 3.4-5 5.5-6.4 1.9-1.2 3.8-2.4 4.4-4.8 0.5-1.3-0.2-4.5-2.2-5.5C352 342.1 351.5 342 350.9 342z" class="e"/><path d="M376.4 341.7c-6.4 0.7-19 7.6-22 10.3 -3.4 0.2-7.1-8.7-4.4-12.1 3.5-1 14.9 0.1 21-2.6C376.5 335.1 378.2 340.6 376.4 341.7z" class="a"/><path d="M374.8 339.5c-6.4 0.7-17.7 6.7-20.8 9.4 -3.4 0.2-6.8-5.7-4-9.1 3.5-1 14.9 0.1 21-2.6C376.5 335.1 376.6 338.4 374.8 339.5z" class="b"/><path d="M374.2 338.9c-6.4 0.7-17.4 4.4-20.5 7 -3.4 0.2-6.5-2.7-3.8-6.1 3.5-1 14.9 0.1 21-2.6C376.5 335.1 376 337.7 374.2 338.9z" class="c"/><path d="M354.2 352.3c-1.5 0-3.1-1.5-4.2-4 -1.3-2.7-1.9-6.6-0.2-8.7l0.1-0.1 0.1 0c1.3-0.4 3.7-0.4 6.5-0.5 4.7-0.2 10.6-0.4 14.4-2 0.9-0.3 1.7-0.5 2.5-0.5 2.3 0 3.6 1.5 3.9 2.8 0.3 1.1 0 2.2-0.7 2.7l-0.1 0c-6.4 0.7-18.9 7.7-21.9 10.2l-0.1 0.1 -0.1 0C354.3 352.3 354.2 352.3 354.2 352.3zM350.1 340.1c-1.4 1.9-0.8 5.4 0.4 8 1 2.2 2.5 3.6 3.7 3.6 0 0 0 0 0 0 3.1-2.6 15.6-9.5 22.1-10.3 0.5-0.3 0.6-1.1 0.4-1.9 -0.3-1.1-1.4-2.3-3.3-2.3 -0.7 0-1.5 0.2-2.3 0.5 -3.9 1.7-9.8 1.9-14.6 2.1C353.7 339.7 351.4 339.8 350.1 340.1z" class="e"/><path d="M509 306.7c7.2 4.4 13.4-9.7 29-15.3 15.6-5.6 30.4-3.6 37.9 1.6 -10.5-19.8-51.3-20.5-67.5 3.9C505.9 301.8 507.5 306 509 306.7z" class="a"/><path d="M507.8 304.6c7.2 4.4 11.2-11 26.8-16.6 15.6-5.6 29.4-5.2 41.3 4.9 -10.5-19.8-51.3-20.5-67.5 3.9C505.9 301.8 506.3 304 507.8 304.6z" class="b"/><path d="M507.4 302.5c3.4 0.7 10.6-10.7 26.2-16.3 15.6-5.6 29.8-4.6 42.3 6.8 -10.5-19.8-51.3-20.5-67.5 3.9C505.9 301.8 505.9 301.8 507.4 302.5z" class="c"/><path d="M535.9 280.6c-10.8 1.9-21.2 8.6-27.7 16.6 0.1-0.1 0.1-0.2 0.2-0.3 15.3-23.2 52.8-23.7 65.6-6.9C563.9 280.7 549.4 277.9 535.9 280.6z" class="d"/><path d="M575.7 293.2c-7.2-4.9-21.6-7.3-37.7-1.6 -1.7 0.6-3.3 1.3-4.9 2.2 -4.7 2.5-8.3 5.6-11.5 8.3 -2.4 2-4.4 3.7-6.4 4.8 -2.4 1.3-4.5 1.3-6.4 0.1 -0.6-0.3-1.2-1.1-1.6-2.1 -0.8-2.3-0.5-5.4 0.9-8.1 3.6-5.5 8.6-9.9 14.7-13.2 19.5-10.3 45.4-5.8 53.4 9.2l0.6 1.1L575.7 293.2zM508.6 297c-1.3 2.6-1.6 5.4-0.8 7.6 0.3 0.9 0.8 1.5 1.3 1.8 1.8 1.1 3.6 1.1 5.8-0.1 1.9-1 3.9-2.7 6.2-4.7 3.2-2.7 6.9-5.8 11.7-8.3 1.6-0.9 3.3-1.6 5-2.2 15.5-5.6 29.5-3.6 37.1 0.9 -8.5-13.9-33.2-17.8-51.9-7.9C517.1 287.3 512.2 291.7 508.6 297z" class="e"/><path d="M486.3 314.3c8.5-2.7 15.8-3.4 22.1-3.3 6.6-0.1 11.1-17.3 2.1-18 -6.1 0.3-22 10-25.1 11.7C484.1 306.5 483.5 312.9 486.3 314.3z" class="a"/><path d="M485.1 309.5c8.5-2.7 15.9-3.9 22.2-3.8 6.6-0.1 12.3-12 3.3-12.7 -6.1 0.3-22 10-25.1 11.7C484.1 306.5 482.3 308.1 485.1 309.5z" class="b"/><path d="M484.8 307.3c8.5-2.7 15.7-5.1 22.1-5 6.6-0.1 12.6-8.7 3.6-9.4 -6.1 0.3-22 10-25.1 11.7C484.1 306.5 482 305.9 484.8 307.3z" class="c"/><path d="M502.8 296.6c-5.5 3-11.5 5.4-17.2 7.9 3.3-1.8 18.9-11.3 25-11.6 2.6 0.2 3.9 1.1 4.4 2.2C511.3 293 506.7 294.5 502.8 296.6z" class="d"/><path d="M508.4 311.3c-7.5-0.1-14.7 0.9-22 3.3l-0.2 0.1 -0.1-0.1c-3.1-1.5-2.3-8.2-1-10.1l0.1-0.1 0.1-0.1c0.5-0.3 1.3-0.7 2.4-1.3 1.9-1.1 4.5-2.6 7.4-4.1 7.6-4.1 12.7-6.1 15.6-6.2 3.1 0.3 5 2.4 5.3 6 0.4 4.7-2.1 10.4-5.3 12.1C509.9 311.1 509.1 311.3 508.4 311.3zM488 303.5c-1 0.6-1.8 1-2.3 1.3 -1.1 1.8-1.7 7.7 0.7 9.1 7.3-2.4 14.6-3.4 22.1-3.3 0.6 0 1.2-0.2 1.8-0.5 2.9-1.6 5.3-7 4.9-11.4 -0.2-1.9-1-5.2-4.7-5.5 -2.7 0.1-7.8 2.2-15.1 6.1C492.5 300.9 489.9 302.4 488 303.5z" class="e"/><path d="M457.9 334.4c7.1 1.6 11.8 8.9 16.3 12 4.8 3.1 13.9-8.1 7.8-13 -4.5-2.7-13.7-2.9-20.1-7.6C460.1 326.9 456.4 331.9 457.9 334.4z" class="a"/><path d="M458.9 331.9c7.1 1.6 12.4 7.3 16.8 10.4 4.8 3.1 12.4-4 6.2-8.9 -4.5-2.7-13.7-2.9-20.1-7.6C460.1 326.9 457.4 329.4 458.9 331.9z" class="b"/><path d="M460.4 329.7c7.1 1.6 11.9 7.1 16.4 10.2 4.8 3.1 11.3-1.6 5.1-6.5 -4.5-2.7-13.7-2.9-20.1-7.6C460.1 326.9 458.9 327.1 460.4 329.7z" class="c"/><path d="M481.9 333.4c2.8 2.3 3 4.5 1.9 5.9 -0.3-2.3-2.7-5.4-4.6-5.9 -7.3-1.8-12.9-2.9-18.2-7 0.3-0.2 0.6-0.3 0.9-0.5C468.2 330.5 477.5 330.7 481.9 333.4z" class="d"/><path d="M474 346.7c-1.5-1-3-2.5-4.6-4.1 -3.2-3.2-6.9-6.8-11.6-7.8l-0.1 0 -0.1-0.1c-1.7-2.9 2.3-8 4-9.1l0.2-0.1 0.2 0.1c3.7 2.7 8.4 3.9 12.5 5 2.9 0.7 5.7 1.4 7.6 2.6 2.1 1.7 2.7 4.3 1.7 7.2 -1.3 3.8-4.9 6.9-7.8 6.9C475.3 347.3 474.6 347.1 474 346.7zM458.1 334.2c4.8 1.1 8.5 4.8 11.7 8 1.6 1.6 3.1 3 4.5 4 0.5 0.3 1.1 0.5 1.7 0.5 2.6 0 6-3 7.2-6.5 0.5-1.6 1.1-4.5-1.5-6.5 -1.8-1.1-4.5-1.8-7.4-2.5 -4.1-1.1-8.8-2.3-12.6-4.9C460.1 327.4 456.9 331.9 458.1 334.2z" class="e"/><path d="M476.3 322.7c7.3 0.4 13.1 6.8 18 9.1 5.2 2.3 12.4-10.3 5.5-14.1 -4.8-1.9-14-0.6-21.1-4.2C477.2 314.8 474.4 320.4 476.3 322.7z" class="a"/><path d="M476.9 320c7.3 0.4 13.4 5.2 18.3 7.5 5.2 2.3 11.5-6 4.6-9.8 -4.8-1.9-14-0.6-21.1-4.2C477.2 314.8 475 317.7 476.9 320z" class="b"/><path d="M478 317.6c7.3 0.4 12.9 5 17.8 7.4 5.2 2.3 10.9-3.4 4-7.2 -4.8-1.9-14-0.6-21.1-4.2C477.2 314.8 476.1 315.3 478 317.6z" class="c"/><path d="M499.8 317.7c3.2 1.8 3.7 3.9 2.8 5.5 -0.7-2.3-3.5-4.9-5.5-5.1 -7.5-0.6-13.2-0.7-19.1-3.9 0.2-0.2 0.5-0.4 0.8-0.7C485.8 317.1 495 315.8 499.8 317.7z" class="d"/><path d="M494.2 332.1c-1.6-0.8-3.4-2-5.2-3.3 -3.7-2.6-7.9-5.6-12.7-5.8l-0.1 0 -0.1-0.1c-2.1-2.5 1-8.3 2.5-9.6l0.2-0.1 0.2 0.1c4.1 2.1 8.9 2.5 13.2 2.9 3 0.3 5.8 0.5 7.9 1.3 2.3 1.3 3.4 3.8 2.9 6.8 -0.7 3.9-3.7 7.6-6.6 8.1C495.5 332.5 494.8 332.4 494.2 332.1zM476.4 322.4c4.9 0.3 9.2 3.3 12.9 5.9 1.8 1.3 3.5 2.5 5.1 3.2 0.5 0.2 1.1 0.3 1.7 0.2 2.6-0.4 5.4-4 6.1-7.6 0.3-1.6 0.3-4.6-2.5-6.2 -2-0.8-4.7-1-7.7-1.3 -4.3-0.4-9.1-0.8-13.2-2.8C477.3 315.4 474.9 320.3 476.4 322.4z" class="e"/><path d="M430.7 59.1c-6.2 6.2-6.2 14.9 3.6 13 -6.8 7.2-2.1 15.8 8.5 13.6 -8.3 6.6-4.9 16 4.9 17 -7.9 3.2-11.1 14.1 1.9 16.2 -10.4 3.2-9.4 13.4 2.3 15.8 8.5-13.4 9.6-31.1 5.8-43.2C453.9 79.3 439.2 63.1 430.7 59.1z" class="b"/><path d="M452.1 135l-0.2 0c-5.7-1.1-9.6-4.4-9.8-8.3 -0.2-3.2 2.2-6.1 6.3-7.7 -6.3-1.4-7.6-4.8-7.8-6.7 -0.4-3.5 2.2-7.4 6-9.4 -4.3-0.8-7.5-3.3-8.5-6.7 -1-3.4 0.4-7 3.6-10 -4.9 0.7-8.9-1.1-10.4-4.4 -1.2-2.8-0.4-6.2 2.1-9.3 -3.5 0.5-6-0.5-7-2.8 -1.2-2.9 0.4-7.4 4-10.9l0.2-0.2 0.2 0.1c8.8 4.2 23.4 20.3 27.2 32.6 3.6 11.4 3.2 29.3-5.8 43.5L452.1 135zM444 85.1l-1 0.8c-3.7 2.9-5.3 6.7-4.3 10.1 1 3.4 4.5 5.9 9 6.4l1.3 0.1 -1.2 0.5c-4.2 1.7-7 5.6-6.6 9.2 0.4 3.3 3.4 5.6 8.5 6.4l1.3 0.2 -1.3 0.4c-4.4 1.4-7.1 4.2-6.9 7.4 0.2 3.6 3.7 6.6 9 7.7 8.8-14 9.1-31.5 5.6-42.8 -3.7-11.7-18.1-27.8-26.7-32.1 -3.2 3.3-4.7 7.4-3.7 10.1 0.9 2.1 3.4 3 7.1 2.2l1-0.2 -0.7 0.7c-2.8 3-3.8 6.5-2.6 9.3 1.1 2.6 4 4.2 7.7 4.2 1 0 2-0.1 3.1-0.3L444 85.1z" class="e"/><path d="M404.3 110.8c6.8-10.2 13.4-4 10.2 6.6 6.8-4.3 12.1 1.9 9.6 9.4 7.7-5.1 11.5 0.6 9.8 7.9 4.5-6.4 13.2-2.6 11.7 8.3C438.8 148.7 403 125.7 404.3 110.8z" class="b"/><path d="M442.4 144.2c-7.5 0-22.4-8.8-31.3-18.5 -3.6-3.9-7.7-9.6-7.2-15l0-0.1 0-0.1c2.3-3.5 4.8-5.4 7.1-5.4 1.2 0 2.3 0.6 3.1 1.7 1.6 2.1 1.9 5.7 0.8 9.8 1.3-0.7 2.6-1 3.8-1 1.9 0 3.6 0.9 4.8 2.5 1.4 2 1.8 4.9 1 7.9 1.7-1 3.3-1.5 4.7-1.5 1.5 0 2.8 0.6 3.8 1.8 1.3 1.6 1.8 4.3 1.3 7.2 1.3-1.4 3-2.2 4.7-2.2 1.7 0 3.4 0.8 4.6 2.2 1.9 2.2 2.7 5.6 2.1 9.6l0 0.1 -0.1 0.1C445 143.9 443.9 144.2 442.4 144.2zM404.6 110.9c-0.3 4 2.1 9 7.1 14.4 8.6 9.4 23.6 18.2 30.8 18.2 1.2 0 2.2-0.3 2.8-0.8 0.5-3.7-0.2-6.9-2-8.9 -1.1-1.3-2.6-2-4.1-2 -1.9 0-3.7 1.1-5 3l-1 1.4 0.4-1.6c0.8-3.2 0.4-6.2-1-7.9 -0.8-1-1.9-1.5-3.3-1.5 -1.5 0-3.2 0.6-5.1 1.9l-0.8 0.5 0.3-0.9c1-3 0.8-6.1-0.7-8.1 -1-1.4-2.5-2.2-4.3-2.2 -1.3 0-2.7 0.5-4.2 1.3l-0.7 0.5 0.2-0.8c1.2-4.1 1-7.9-0.5-10 -0.7-0.9-1.6-1.4-2.6-1.4C409 105.9 406.7 107.7 404.6 110.9z" class="e"/><path d="M458.6 138.3c-23.4 3.8-45.1-14.1-52-32.7 -5.5-1.8-18.7 10-7.5 39.3 11.5 30 53.5 46.2 83.1 34.7C489.2 164.9 467.9 140.4 458.6 138.3z" class="a"/><path d="M448.5 157.4c4.4-7.3-0.5-14.2-6.4-19.9 -16.6-4.1-30.3-17.8-35.5-32 -5.3-1.7-17.7 9.1-8.7 35.9 2.3 4.2 4.6 8.2 7.8 11.4C416 163.2 438.3 172.8 448.5 157.4z" class="b"/><path d="M437 157.4c5.1-1.3 8.3-7.7 7-13.4 -0.9-2.9-2.5-5.3-4.6-7.2 -15.4-4.8-28-17.8-32.9-31.2 -4.8-1.6-15.5 7.2-10.6 28.9C403.1 150.2 419.6 162.5 437 157.4z" class="c"/><path d="M397.4 115.3c1.3-3.8 6.4-4.5 8.3-1.9 7.3 9.1 16 15.7 25.7 20 -11.6-6.2-20.8-16.9-24.8-27.8 -4.8-1.6-15.5 7.2-10.6 28.9 0.7 1.5 1.4 3 2.3 4.4C396.5 131 394.8 123.1 397.4 115.3z" class="d"/><path d="M461.3 183.6c0 0 0 0 0 0 -12.9 0-26.2-3.7-37.5-10.5 -12-7.2-20.6-16.9-25-28.2 -8-20.9-3.1-31.5-0.7-35.1 2-3 4.8-4.8 7.2-4.8 0.5 0 0.9 0.1 1.3 0.2l0.1 0 0.1 0.1c5.9 16 23.7 33 45.2 33 2.1 0 4.3-0.2 6.4-0.5l0.1 0 0.1 0c5.9 1.3 16.5 11.3 22 22.7 2.5 5.2 4.9 12.8 1.9 19.1l-0.1 0.1 -0.1 0C475.9 182.4 468.9 183.6 461.3 183.6zM405.4 105.7c-1.7 0-4.4 1.2-6.7 4.5 -2.4 3.5-7.2 13.9 0.7 34.5 8.5 22.1 34.5 38.2 61.9 38.2h0c7.4 0 14.3-1.2 20.6-3.6 2.8-6.1 0.5-13.4-1.9-18.4 -5.3-11-15.9-21-21.5-22.3 -2.1 0.3-4.3 0.5-6.4 0.5 -21.8 0-39.8-17.1-45.8-33.3C406.1 105.8 405.7 105.7 405.4 105.7z" class="e"/><path d="M479.3 180.6c-16.7-2.3-29.7-24.6-28.9-46.4 0.8-21.7 0.3-39.6-9.5-52.6 -9.8-13-16.6-22.4-16.8-28.1 7.9-13 49.2-14.5 77.9 10.9 28.7 25.3 28 49.9 20 72.5C514 159.4 498.8 183 479.3 180.6z" class="a"/><path d="M476.7 166.4c11.5-3.2 19.8-10.9 26.8-21.7 16.3-25 16-57.2-0.3-79.2 -0.4-0.4-0.8-0.7-1.2-1.1 -28.8-25.3-70.1-23.9-77.9-10.9 0.2 5.8 7 15.1 16.8 28.1 9.8 13 10.2 30.9 9.5 52.6 -0.3 9.9 2.2 19.9 6.6 28.1C462.2 166.7 469.2 168.5 476.7 166.4z" class="b"/><path d="M456.2 156.8c12.8 8.3 26.2-0.6 35.1-10.2 23-26.8 20.4-67.1-2.6-91.4 -0.2-0.2-0.4-0.4-0.7-0.6 -26.7-14.8-57.4-12.1-64.1-1.1 0.2 5.8 7 15.1 16.8 28.1 9.8 13 10.2 30.9 9.5 52.6 -0.1 4.1 0.2 8.2 1 12.2C453.3 149.9 453.2 154.8 456.2 156.8z" class="c"/><path d="M430 55.2c13.1-8.5 28.7-10.5 42.8-7.2 -22.1-6.9-43.3-3.4-48.7 5.5 0.2 4.8 5.1 12.3 12.4 22.3 -1.5-3.8-2.9-7.7-5.2-11.6C429.4 61.6 427.5 56.5 430 55.2z" class="d"/><path d="M482 181.1c-0.9 0-1.9-0.1-2.8-0.2 -16.4-2.3-30-24.1-29.2-46.7 0.7-20.9 0.5-39.3-9.4-52.4 -10.1-13.3-16.7-22.5-16.9-28.3l0-0.1 0-0.1c3.5-5.7 13.4-9.3 25.9-9.3 18.6 0 38.2 7.5 52.5 20.1 13.4 11.8 21.2 24.1 23.9 37.5 2.1 10.8 0.9 22-3.8 35.3C518.6 147.3 504.9 181.1 482 181.1zM424.4 53.6c0.3 5.6 6.8 14.7 16.8 27.8 10.1 13.3 10.3 31.8 9.5 52.8 -0.8 22.3 12.6 43.8 28.7 46 0.9 0.1 1.8 0.2 2.7 0.2 22.4 0 36-33.5 39.7-43.7 6.9-19.3 10.8-45-19.9-72.1 -14.2-12.5-33.6-19.9-52.1-19.9C437.5 44.7 427.8 48.1 424.4 53.6z" class="e"/><path d="M506.3 220c10.6-14.5 9.6-42.9 0-53.5 -6-5.5-14.3 4.9-21.7 7.3 -7.5 2.3-16.4-0.6-21.1 6 -4.7 6.6 7.1 28.5 20.1 34.7C492.4 218.3 502.4 222.2 506.3 220z" class="a"/><path d="M475.4 204.7c7 3.8 16 3.2 19.8-6.4 0.6-0.6 3.8-0.6 5.7-1.9 8.3-8.3 8.6-34.9-5.1-28.7 -0.1 0-0.2-0.1-0.4-0.1 -3.6 2.2-7.4 5.2-10.9 6.3 -7.5 2.3-16.4-0.6-21.1 6 -2.1 3-0.9 9.1 2.3 15.4C468.4 199 471.2 202.6 475.4 204.7z" class="b"/><path d="M485.6 200.9c2.6-1.3 2.6-8.3 3.8-8.3 12.8 0 13.4-13.4 10.9-21.7 -0.2-0.5-0.4-1.1-0.7-1.5 -1.1-0.7-2.4-1.3-3.8-1.7 -0.1 0-0.2-0.1-0.4-0.1 -3.6 2.2-7.4 5.2-10.9 6.3 -7.5 2.3-16.4-0.6-21.1 6 -2.1 3-0.9 9.1 2.3 15.4 0.1 0.1 0.2 0.2 0.2 0.3C471.3 201.1 478.7 204.3 485.6 200.9z" class="c"/><path d="M495.5 167.6c-3.6 2.2-7.4 5.2-10.9 6.3 -7.5 2.3-16.4-0.6-21.1 6 -2.1 3-0.9 9.1 2.3 15.4 0.1 0.1 0.2 0.2 0.2 0.3 1.1 1.2 2.3 2.2 3.6 3.1 -4.4-6-8.7-15.4-2.3-19.4 6.4-3.8 12.9 0.7 18-2.6 4.1-3.8 8.3-5.4 12.7-8.4 -0.7-0.3-1.4-0.6-2.1-0.8C495.7 167.6 495.6 167.6 495.5 167.6z" class="d"/><path d="M503.3 221C503.3 221 503.3 221 503.3 221c-5 0-13.2-3.3-19.8-6.2 -9.7-4.6-18.3-17.3-20.7-26.4 -1-3.9-0.9-6.9 0.4-8.8 3.1-4.4 8-4.7 13.1-4.9 2.7-0.2 5.6-0.3 8.2-1.1 2.5-0.8 5.2-2.6 7.8-4.3 3.6-2.4 7-4.6 10.1-4.6 1.6 0 2.9 0.5 4.1 1.7 9.4 10.4 11.1 38.9 0 53.9l-0.1 0.1C505.6 220.8 504.6 221 503.3 221zM502.3 165.3c-3 0-6.3 2.2-9.8 4.5 -2.6 1.7-5.3 3.5-7.9 4.3 -2.7 0.8-5.6 1-8.3 1.2 -5 0.3-9.7 0.5-12.6 4.7 -1.2 1.7-1.3 4.5-0.4 8.2 2.4 9 11.1 21.6 20.4 26 6.5 2.8 14.7 6.1 19.6 6.1 0 0 0 0 0 0 1.1 0 2.1-0.2 2.7-0.5 10.8-14.8 9.2-42.9 0-53C504.9 165.8 503.7 165.3 502.3 165.3z" class="e"/><path d="M492 251.8c7.9-5.3 19.6-21.8 20.4-31.1 -4-9.3-25.3-17.4-37-8.1 -3.9 3.6 7.6 13.4 5.5 30.5C478.8 251.8 485.8 255.4 492 251.8z" class="a"/><path d="M490.7 239.9c8.3-5.1 9.6-15.3 8.9-24.3 -0.5-2.5-1.7-4.5-3.4-6.1 -7.1-1.8-15.1-1.4-20.8 3.1 -3.7 3.5 6.7 12.7 5.7 28.5C484.2 241.9 488 241.4 490.7 239.9z" class="b"/><path d="M490.7 232.8c4-6 7.7-15 6.6-22.3 -0.3-0.4-0.6-0.7-1-1.1 -7.1-1.8-15.1-1.4-20.8 3.1 -3.4 3.1 4.9 10.9 5.7 24.1C484.8 237.3 488.4 236.7 490.7 232.8z" class="c"/><path d="M481.1 236.7c1.5 0.2 2.9 0.3 4.3 0 -1.8-7.9-8.6-15.8-5.5-23.7 0.8-1.6 1.7-2.9 2.9-3.9 -2.6 0.6-5.1 1.8-7.3 3.5C472.1 215.7 480.3 223.5 481.1 236.7z" class="d"/><path d="M487.2 253.5L487.2 253.5c-2.2 0-4.2-0.9-5.4-2.5 -1.5-1.9-1.9-4.8-1.1-8 1.2-9.6-2-16.8-4.3-22.1 -1.7-4-3-6.8-1.1-8.5 3.5-2.8 8.1-4.2 13.3-4.2 10.2 0 21.3 5.7 24.3 12.4l0 0.1 0 0.1c-0.9 9.4-12.5 25.9-20.6 31.4C490.5 253 488.8 253.5 487.2 253.5zM488.5 208.8c-5 0-9.5 1.4-12.9 4.1 -1.5 1.4-0.4 3.9 1.3 7.8 2.3 5.3 5.5 12.6 4.3 22.4 -0.7 3.1-0.4 5.7 1 7.5 1.1 1.5 2.9 2.3 4.9 2.3 1.5 0 3.1-0.5 4.6-1.3 7.9-5.4 19.4-21.5 20.3-30.8C509.2 214.2 498.4 208.8 488.5 208.8z" class="e"/><path d="M289.5 253.2c14.9 1.4 55.2 12.9 51.5 27.4 -3.8 14.5-50.2 30.2-77 20C237.1 290.3 252.9 249.7 289.5 253.2z" fill="#A01313"/><path d="M284.1 304.1c-7.7 0-14.5-1.1-20.3-3.3 -10.1-3.8-15.2-12.6-13.3-22.9 2.3-12.6 14.9-25.3 34.5-25.3 1.5 0 3 0.1 4.4 0.2 13 1.2 42.5 9.6 50.1 20.4 1.7 2.5 2.3 4.9 1.6 7.4C338.2 292.3 309.4 304.1 284.1 304.1zM285.1 253.3c-19.3 0-31.6 12.5-33.9 24.8 -1.8 9.9 3.1 18.4 12.9 22.1 5.7 2.2 12.4 3.2 20 3.2 24.6 0 53.6-11.8 56.5-23 0.6-2.3 0.1-4.6-1.5-6.9 -7.5-10.6-36.7-18.9-49.6-20.1C288 253.3 286.5 253.3 285.1 253.3z"/><path d="M401.1 230.8c-31.5 6.1-79.8 15.3-79.3 61.7 0.5 46.4 77.1 62.8 104.4 59.5 27.3-3.3 80.8-39 77.3-85.3C500 220.3 441.1 223 401.1 230.8z" class="a"/><path d="M401.1 230.8c-31.5 6.1-79.3 15.3-79.3 61.7 0 28.2 79.4 53.2 106.7 49.9 27.3-3.3 66.6-40.9 67.3-76.5C496.6 219.5 441.1 223 401.1 230.8z" class="b"/><path d="M463.9 248.8c3.8 2.6 8.3 0 11.5-3.8 2.6-3.2 1.9-7-0.6-9.6 -3-2.3-5.9-4.8-8.8-7.2 -17.6-5.5-42.6-1.7-64.8 2.6 -31.5 6.1-79.3 15.3-79.3 61.7 0 0.4 0 0.8 0.1 1.2 9.5 18.3 46.2 34.8 53.9 27.3 4.1-9.6-15.3-26.8-28.1-36.4 -2.6-2.6-4.5-5.1-5.1-8.9 10.9 4.5 18.5-3.2 25.6-10.9 1.3-0.6 4.5 0 4.5 0.6 3.2 6.4 2.6 14.1 10.2 16 22.4 5.7 45.4 0 62.6-14.1 5.7-4.5 10.2-12.8 7.7-21.1C456.8 246.2 460 246.9 463.9 248.8z" class="c"/><path d="M336.3 261.7c34.1-26.3 80.8-34.5 129.4-30.8C421 234 384.4 236.1 336.3 261.7z" class="d"/><path d="M481.8 257.1c-5.1-1.9-9.6 1.9-10.9 6.4 -5.7 17.9-8.3 35.8-14.7 53 1.9 0 3.8 0.6 5.1-0.6 12.6-12.1 20.4-28.6 23.2-45.7 -0.1 0.1-0.1 0.2-0.2 0.4 0.1-0.1 0.1-0.2 0.2-0.4 0.4-2.8 0.8-5.6 0.9-8.4C484.9 259.7 483.7 257.9 481.8 257.1z" class="c"/><path d="M485.4 261.7c-0.2 2.8-0.5 5.6-0.9 8.4C485.8 267.6 486.2 264.4 485.4 261.7z" class="c"/><path d="M418.5 352.7c0 0 0 0 0 0 -14.3 0-38.6-3.7-60.2-14 -16.7-8-36.6-22.5-36.8-46.2 -0.5-46.5 47.4-55.8 79.1-61.9l0.4-0.1c15.3-3 29.4-4.5 42-4.5 17.1 0 30.8 2.8 40.8 8.4 12.2 6.8 18.9 17.6 20 32.2 1.5 20.4-8.1 41.4-27.2 59.1 -15.3 14.1-35.5 24.8-50.4 26.6C424 352.6 421.4 352.7 418.5 352.7zM443 226.6c-12.5 0-26.6 1.5-41.9 4.5l-0.4 0.1c-31.5 6.1-79.1 15.4-78.6 61.3 0.2 23.4 20 37.7 36.5 45.6 21.5 10.3 45.8 14 60 14 0 0 0 0 0 0 2.8 0 5.4-0.1 7.6-0.4 14.7-1.8 34.8-12.4 50-26.4 19-17.5 28.5-38.3 27-58.6 -1.1-14.4-7.7-25.1-19.7-31.7C473.6 229.4 460 226.6 443 226.6z" class="e"/><path d="M396.1 292.2c-14.2 0-27.8-3.1-38.2-9l0.3-0.6c18.1 10.4 45.5 11.9 69.9 3.8 18.4-6.1 32-16.7 37.4-29l0.6 0.3c-5.5 12.5-19.2 23.2-37.8 29.4C417.8 290.5 406.7 292.2 396.1 292.2z" class="e"/><path d="M367.5 287.3c9.4 20 35.8 44.2 60 37.7 22.3-6 33.3-38.8 33-58.8C442.6 288.3 398.7 298.6 367.5 287.3z" fill="#7B1000"/><path d="M460.5 266.2c-17.8 22.1-61.8 32.4-93 21.1 4.4 9.3 12.4 19.6 22.3 27.2 1.5-4.5 4.1-8.6 9-12 17-11.2 39.3-12.7 53.4-1C457.8 289.9 460.6 276.4 460.5 266.2z" fill="#8F1000"/><path d="M427.5 325c7.6-2 13.9-7.2 18.9-14 -16.7-5-36.5-2.1-47.6 9.4C407.9 325.3 417.9 327.6 427.5 325z" fill="#EF5050"/><path d="M439.6 312c-10.9-3.2-24.3-0.6-31.9 7.7 -1.2 1-1.7 2.4-1.6 3.9 7 2.5 14.3 3.3 21.4 1.4 5.4-1.4 10.1-4.4 14.1-8.4C441.9 314.4 441.6 312.4 439.6 312z" fill="#FF625E"/><ellipse transform="matrix(0.9504 -0.3109 0.3109 0.9504 -78.8736 148.4639)" cx="426.3" cy="321.7" rx="5.6" ry="1" fill="#F99898"/><path d="M419.2 326.4L419.2 326.4c-6.6 0-13.5-1.9-20.6-5.7l-0.4-0.2 0.3-0.3c7.3-7.5 18.8-11.8 31.6-11.8 5.6 0 11 0.8 16.3 2.4l0.4 0.1 -0.3 0.4c-5.5 7.4-11.9 12.2-19.1 14.1C424.9 326 422.1 326.4 419.2 326.4zM399.3 320.3c6.8 3.6 13.5 5.4 19.9 5.4 2.8 0 5.5-0.4 8.2-1.1 6.9-1.9 13.1-6.4 18.5-13.5 -5-1.5-10.3-2.2-15.6-2.2C417.7 309 406.5 313.1 399.3 320.3z" fill="#BA3232"/><path d="M419.2 326.4c-12.7 0-23.9-7-31.1-12.8 -8.9-7.3-16.5-16.8-20.9-26.2l-0.3-0.7 0.7 0.3c8.5 3.1 18 4.7 28.3 4.7 26.1 0 52-10.3 64.3-25.6l0.6-0.7 0 0.9c0.3 20.9-11.1 53.1-33.2 59.1C424.9 326 422.1 326.4 419.2 326.4zM368.1 287.8c8.9 18.4 30.7 37.9 51.1 37.9 2.8 0 5.6-0.4 8.2-1.1 12.6-3.4 20.4-14.9 24.8-24 5-10.3 8-23.1 8-33.6 -12.7 15.1-38.3 25.2-64.3 25.2C385.8 292.3 376.5 290.8 368.1 287.8z" class="e"/><path d="M422.1 338.9c-7.5 0-12-3.1-12-3.1 0.1 0 7.1 3.7 17.6 2 10.6-1.7 14.7-6.2 14.7-6.3 0 0-3.8 5.1-14.6 6.9C425.8 338.7 423.9 338.9 422.1 338.9z" class="e"/><path d="M356.2 283.4c-3.8 0-5.9-2.3-5.9-2.3 0 0 3.3 2.3 8.2 1.4 4.9-0.9 7.2-3.1 7.2-3.1 -0.1 0.1-2 2.8-7.1 3.7C357.7 283.3 356.9 283.4 356.2 283.4z" class="e"/><path d="M464.3 258.1c-3.8 0-5.9-2.3-5.9-2.3 0 0 3.3 2.3 8.2 1.4 4.9-0.9 6.7-3.4 6.7-3.5 0 0-1.5 3.2-6.6 4.1C465.8 258 465 258.1 464.3 258.1z" class="e"/><path d="M352.3 204.9c-9.2 2.5-13.8 17.2-6.8 32.8 7 15.5 21.5 20.3 27.9 17.7 6.4-2.6 7.7-16.4 4.5-29.1C374.4 212.8 365.1 201.5 352.3 204.9z" class="f"/><path d="M352.3 204.9c-9.2 2.5-13.8 17.2-6.8 32.8 7 15.5 35.6 1.3 32.4-11.4C374.4 212.8 365.1 201.5 352.3 204.9z" class="g"/><path d="M369.5 256.4c0 0 0 0 0 0 -7.7 0-18.5-5.8-24.3-18.6 -4.1-9.1-4.6-18.7-1.3-25.7 1.9-3.9 4.8-6.6 8.3-7.5 1.6-0.4 3.1-0.6 4.6-0.6 9.6 0 17.9 8.7 21.3 22.3 3.1 12.3 2.2 26.7-4.7 29.5C372.4 256.2 371 256.4 369.5 256.4zM356.8 204.6c-1.5 0-2.9 0.2-4.4 0.6 -3.3 0.9-6.1 3.4-7.9 7.2 -3.2 6.8-2.8 16.2 1.3 25.2 5.7 12.5 16.3 18.2 23.7 18.2l0 0c1.4 0 2.7-0.2 3.8-0.6 6.5-2.6 7.2-17 4.3-28.7C375 216.4 368.1 204.6 356.8 204.6z" class="h"/><ellipse transform="matrix(0.9503 -0.3113 0.3113 0.9503 -52.102 123.1249)" cx="359.7" cy="224.8" rx="7.9" ry="11.7" class="i"/><path d="M439.8 189.1c9.6 0.6 16.9 14.2 13.1 30.8 -3.9 16.6-17.1 24.1-23.9 22.8 -6.8-1.3-10.7-14.6-10.1-27.7C419.6 201.1 426.6 188.2 439.8 189.1z" class="f"/><path d="M439.8 189.1c9.6 0.6 16.9 14.2 13.1 30.8 -3.9 16.6-34.6 8.2-34-4.9C419.6 201.1 426.6 188.2 439.8 189.1z" class="g"/><path d="M430.6 243.2c-0.6 0-1.2-0.1-1.7-0.2 -7.3-1.4-11-15.4-10.3-28 0.7-13.5 7.5-27.2 21.2-26.3 3.6 0.2 7 2.3 9.6 5.8 4.6 6.2 6 15.7 3.8 25.5C449.5 235.8 437.5 243.2 430.6 243.2zM438.6 189.4c-12.5 0-18.7 12.9-19.4 25.7 -0.6 12.1 2.9 26 9.8 27.4 0.5 0.1 1 0.1 1.6 0.1 6.7 0 18.4-7.2 22-22.7 2.2-9.5 0.9-18.9-3.7-24.9 -2.5-3.3-5.7-5.3-9.1-5.5C439.4 189.4 439 189.4 438.6 189.4z" class="h"/><path d="M428.6 209.1c-0.8 6.4 2.1 12.1 6.4 12.6 4.3 0.5 8.5-4.3 9.2-10.7 0.8-6.4-2.1-12.1-6.4-12.6C433.5 197.9 429.3 202.7 428.6 209.1z" class="i"/><ellipse transform="matrix(-0.9927 -0.1205 0.1205 -0.9927 844.327 471.1025)" cx="436.4" cy="210" rx="4.6" ry="6.9"/><ellipse transform="matrix(0.9555 -0.2951 0.2951 0.9555 -50.1405 116.1243)" cx="359.7" cy="224.2" rx="4.6" ry="6.9"/><path d="M260.6 279c5 7.1 13.6 8.7 13.4-1.3 6 8 15.2 4.8 14.9-6 5.1 9.3 14.9 7.6 17.6-1.9 1.8 8.3 11.9 13.3 16.3 0.9 1.3 10.8 11.6 11.5 15.9 0.4 -11.7-10.7-29-14.8-41.6-13.1C284.5 259.6 266.1 271.3 260.6 279z" class="a"/><path d="M269.3 285L269.3 285c-2.9 0-6.5-2.3-9-5.9l-0.1-0.2 0.1-0.2c5.6-7.9 24.1-19.5 36.8-21.2 1.8-0.2 3.8-0.4 5.8-0.4 13.1 0 26.9 5.2 36.1 13.6l0.2 0.1 -0.1 0.2c-2 5.1-5.5 8.2-9.1 8.2 -3.5 0-6.3-2.9-7.2-7.5 -2.3 5.7-5.7 6.6-7.6 6.6 -3.7 0-7.2-3.2-8.6-7.6 -1.6 4.4-5 7.2-8.9 7.2 -3.2 0-6.2-1.9-8.4-5.3 -0.1 3.2-1.1 5.8-2.8 7.6 -1.3 1.4-3 2.1-4.9 2.1 -2.6 0-5.1-1.4-7.2-3.9 -0.1 2.3-0.7 4.1-1.8 5.2C271.7 284.6 270.6 285 269.3 285zM261 279c2.4 3.3 5.6 5.4 8.3 5.4 1.1 0 2.1-0.4 2.8-1.1 1.1-1.1 1.7-3.1 1.6-5.6l0-1 0.6 0.8c2.1 2.8 4.7 4.3 7.3 4.3 1.7 0 3.2-0.7 4.4-1.9 1.8-1.8 2.7-4.8 2.6-8.3l0-1.3 0.6 1.2c2.1 3.8 5.1 6 8.4 6 3.9 0 7.3-3.1 8.6-7.8l0.4-1.2 0.3 1.2c1 4.6 4.6 8.1 8.2 8.1 3.2 0 5.8-2.6 7.4-7.3l0.5-1.3 0.2 1.4c0.6 5 3.3 8.2 6.8 8.2 3.3 0 6.6-2.9 8.5-7.6 -9.1-8.2-22.6-13.2-35.5-13.2 -2 0-3.9 0.1-5.7 0.4C285.1 259.8 266.7 271.2 261 279z" class="e"/><path d="M319.3 293c0.9-12.2-8.1-11.4-12.1-1.1 -2.7-7.6-10.7-6-13.3 1.5 -2.9-8.7-9.5-6.6-12.6 0.2 0.4-7.8-8.8-10.1-14.3-0.7C268.8 301.6 311.2 305.6 319.3 293z" class="a"/><path d="M294.1 301.3c0 0 0 0 0 0 -12.6 0-26.3-3.1-27.4-8.3l0-0.1 0.1-0.1c2.3-4 5.6-6.3 8.9-6.3 1.7 0 3.2 0.6 4.3 1.8 1 1 1.6 2.5 1.7 4.1 1.7-3.1 4.2-5 6.6-5 2.4 0 4.4 1.8 5.7 5.2 1.5-3.5 4.4-5.8 7.4-5.8 2.5 0 4.7 1.6 5.9 4.4 2-4.5 5-7.4 7.9-7.4 1.1 0 2 0.4 2.8 1.2 1.4 1.6 2.1 4.4 1.8 8.1l0 0.1 0 0.1C316.3 298.3 306.7 301.3 294.1 301.3zM267.3 293c1.1 4.2 13.2 7.7 26.7 7.7 0 0 0 0 0 0 12.4 0 21.7-2.9 25-7.8 0.3-3.5-0.3-6.2-1.6-7.6 -0.6-0.7-1.4-1-2.3-1 -2.3 0-5.5 2.4-7.6 7.7l-0.3 0.8 -0.3-0.8c-1.1-3-3.1-4.7-5.6-4.7 -3 0-5.8 2.5-7.1 6.2l-0.3 0.9 -0.3-0.9c-1.2-3.6-3.1-5.5-5.4-5.5 -2.4 0-5 2.3-6.6 5.7l-0.7 1.5 0.1-1.7c0.1-2-0.5-3.7-1.6-4.9 -1-1-2.3-1.6-3.8-1.6C272.6 287 269.5 289.3 267.3 293z" class="e"/><path d="M256.5 278.4c10.2 12.9 36.7 19.8 58.2 11.5 10.7-4.5 13.9 3.8 5.4 11.2 -8.5 7.4-36.3 22.1-64.7 16.2 -28.4-5.9-41.5-26.2-34.5-43C228.3 263.5 249.8 269 256.5 278.4z" class="a"/><path d="M247.9 309.5c26.8 6.4 56.2 6.4 74.1-16 0.9-1.1 0.9-2.8 0.4-4.5 -1.8-0.7-4.4-0.6-7.8 0.8 -13 5-27.7 4.5-39.6 0.5 -12.5 0.2-25 1.4-35.4 8.9C234.5 303.1 243.5 308.8 247.9 309.5z" class="b"/><path d="M250.5 301.3c6.5 8.8 30.7 10.1 45.4 6.2 9.5-2.2 22.8-5.9 26.9-16.6 0-0.6-0.1-1.3-0.3-2 -1.8-0.7-4.4-0.6-7.8 0.8 -13 5-27.7 4.5-39.6 0.5 -0.7 0-1.5 0-2.2 0C262.1 291.7 244.4 293.2 250.5 301.3z" class="c"/><path d="M262.2 295.8c8.7 3 35.8 7.3 56.9-4.9C304 303.8 270.3 302.4 262.2 295.8z" class="d"/><path d="M269 318.9c-4.7 0-9.3-0.5-13.6-1.4 -15.7-3.3-27.9-11.2-33.5-21.9 -3.7-7-4.1-14.7-1.3-21.6l0-0.1c2.7-3.9 7.4-6 13.5-6 8.7 0 18.4 4.4 22.6 10.2 7 8.9 22.2 15 37.7 15 7.1 0 13.9-1.2 20.1-3.6 2-0.9 3.9-1.3 5.5-1.3 2.4 0 4.2 1 4.9 2.8 1 2.8-0.8 6.8-4.6 10.2C312.5 308.1 291.6 318.9 269 318.9zM221.2 274.3c-2.8 6.7-2.4 14.2 1.2 21 5.5 10.5 17.6 18.3 33 21.5 4.3 0.9 8.9 1.4 13.5 1.4 22.4 0 43.1-10.7 50.9-17.5 3.7-3.2 5.4-6.9 4.5-9.5 -0.6-1.6-2.1-2.4-4.3-2.4 -1.5 0-3.3 0.4-5.3 1.2 -6.3 2.4-13.1 3.7-20.4 3.7 -15.7 0-31.1-6.1-38.3-15.2 -4-5.7-13.5-9.9-22-9.9C228.4 268.7 223.8 270.7 221.2 274.3z" class="e"/><path d="M257.7 287.6c10.4-5.2 11.7-14.3 25.3-18.3s36-2 47.7 1.9c11.7 3.9 23.6-0.8 14.5-18.3 -9.2-17.5-31.9-34.7-66.2-31.1 -34.3 3.6-53.5 26.2-60.7 43 -3.1 7.3-3.1 16.9 2.8 21.5C230.3 293.4 243.3 294.8 257.7 287.6z" class="a"/><path d="M235.2 284.6c16.6-2.6 21.7-18.5 35.1-26.2 17.9-10.9 39-5.1 57.5 1.3 4.5 1.9 10.2 3.2 12.8 0.6 3.4-3.1 3.7-7.1 2.4-11.3 -10.3-16-32.2-30.6-64-27.2 -34.3 3.6-53.5 26.2-60.7 43 -1.5 3.4-2.2 7.3-2 11C219.5 282.2 227 286.3 235.2 284.6z" class="b"/><path d="M250.1 268.3c-6.8 9.5-25.3 10.6-28.4 2.8s5.3-22.7 27.2-35.6c21.9-12.9 52.6-15.7 70-5.6 17.4 10.2 22.6 19.2 17.5 23.2 -5.1 3.9-22.5-8.6-39-8.6C280 244.5 265.1 247.6 250.1 268.3z" class="c"/><path d="M280.1 223.9c-31.3 3.2-48.8 22.9-55.4 37.6 -0.9 1.9-1.5 4.1-1.7 6.2 4.2-10 10.2-18.7 20-25.2 19.9-13.4 35.5-17.3 54.8-14.5 13.6 1.4 26.2 6.4 36.5 14.4C323.8 230.6 305.4 221.3 280.1 223.9z" class="d"/><path d="M239.1 292.7c0 0 0 0 0 0 -6.8 0-13.1-2.1-18.2-6.2 -6-4.7-6-14.6-2.9-21.9 8-18.6 28.2-39.8 61-43.2 3.1-0.3 6.1-0.5 9.1-0.5 30.1 0 49.4 16.4 57.5 31.7 3.5 6.7 4.2 12.1 2.1 15.7 -1.7 2.8-5 4.3-9.5 4.3 -2.3 0-4.9-0.4-7.4-1.3 -7.5-2.5-19-4.1-29.3-4.1 -7.1 0-13.4 0.8-18.2 2.2 -7.7 2.3-11.5 6.3-15.2 10.2 -2.8 2.9-5.6 5.9-10.1 8.1C251.5 291.1 245.1 292.7 239.1 292.7zM288.1 221.6c-2.9 0-6 0.2-9 0.5 -32.4 3.4-52.5 24.4-60.4 42.8 -3 7.1-3.1 16.6 2.7 21.1 5 3.9 11.2 6 17.8 6 0 0 0 0 0 0 5.9 0 12.1-1.6 18.5-4.8 4.4-2.2 7.1-5 9.9-8 3.7-3.9 7.6-8 15.5-10.3 4.9-1.4 11.2-2.2 18.4-2.2 10.3 0 21.9 1.6 29.5 4.1 2.5 0.8 5 1.2 7.2 1.2 4.2 0 7.4-1.4 8.9-4 2-3.4 1.3-8.6-2.1-15.1C337 237.8 317.9 221.6 288.1 221.6z" class="e"/><ellipse cx="354.1" cy="219.4" rx="3.8" ry="1.5" class="g"/><ellipse cx="353" cy="223.5" rx="2.6" ry="0.7" class="g"/><ellipse cx="432.2" cy="203.7" rx="3.8" ry="1.5" class="g"/><ellipse cx="431" cy="207.7" rx="2.6" ry="0.7" class="g"/></svg>