<svg version="1.1" id="Layer_1" xmlns="http://www.w3.org/2000/svg" xmlns:xlink="http://www.w3.org/1999/xlink" viewBox="0 0 768 430" enable-background="new 0 0 768 430" xml:space="preserve">
<g>
	<path fill="#2C3335" d="M354.743,404.115c0.865,5.129-0.185,6.385,5.03,6.385c5.547,0,6.19,0.976,8.146-4.244
		c-1.836-0.456-7.226-0.572-7.152-2.739c0.128-3.771,0.256-7.541,0.384-11.312c0.303-8.922,0.605-17.843,0.908-26.765
		c0.211-6.222,2.998-13.197,4.392-19.238c1.77-7.669,3.541-15.338,5.311-23.007c4.744,15.518,11.641,31.396,13.151,47.602
		c0.993,10.664,1.986,21.328,2.98,31.992c0.269,2.885-0.123,7.711,3.094,7.711c2.628,0,5.256,0,7.884,0
		c0.751,0,1.912-4.482,2.224-5.314c-4.301-1.067-7.271-0.127-7.032-4.669c0.34-6.457,0.68-12.913,1.019-19.369
		c0.38-7.217,0.402-14.354,1.836-21.433c4.214-20.814,8.429-41.629,12.643-62.443c-14.465,1.881-28.93,3.762-43.394,5.643
		c-12.45,1.619-25.654,0.692-38.212,0.986c6.825,18.156,13.649,36.312,20.474,54.468
		C353.822,372.722,353.307,388.926,354.743,404.115z"/>
	<path fill="none" stroke="#2C3335" stroke-width="0.7764" stroke-miterlimit="10" d="M395.518,399.098
		c2.831-3.248,3.327,2.818,0.322,4.709c1.149-3.657,7.376-3.191,4.984-0.219C397.353,407.925,391.71,403.501,395.518,399.098
		C395.85,398.717,394.469,400.311,395.518,399.098z"/>
	<path fill="none" stroke="#2C3335" stroke-width="0.9734" stroke-miterlimit="10" d="M361.938,398.453
		c3.437-3.972,4.489,3.336,0.401,5.904c1.845-5.873,10.267-2.972,5.174,0.753C362.413,408.84,357.839,403.188,361.938,398.453
		C362.352,397.975,360.623,399.973,361.938,398.453z"/>
	<path fill="#1E2021" d="M409.559,297.271c-27.202,2.21-54.404,4.419-81.606,6.629c2.601,6.92,5.203,13.84,7.804,20.76
		c12.162-5.426,25.114-9.506,38.144-12.19c10.149-2.092,20.653-3.322,31.011-2.366c3.287,0.303,2.59-2.667,3.195-5.657
		C408.591,302.055,409.074,299.663,409.559,297.271z"/>
</g>
<g>
	<defs>
		<path id="SVGID_1_" d="M386.979,198.247c8.051,34.557,16.102,69.112,24.152,103.669c-7.307-1.973-18.246,2.747-25.227,4.474
			c-12.51,3.093-25.172,6.303-38.059,7.293c-5.163,0.396-10.497,0.467-15.57-0.711c-1.614-0.375-9.079-2.517-8.896-4.854
			c0.41-5.252,0.82-10.505,1.23-15.758c1.681-21.547,3.362-43.095,5.044-64.642c0.576-7.391,1.153-14.78,1.729-22.17
			c0.352-4.505,3.475-3.026,7.854-3.385C355.15,200.858,371.064,199.553,386.979,198.247z"/>
	</defs>
	<use xlink:href="#SVGID_1_"  overflow="visible" fill="#F1E7E6"/>
	<clipPath id="SVGID_2_">
		<use xlink:href="#SVGID_1_"  overflow="visible"/>
	</clipPath>
	<path clip-path="url(#SVGID_2_)" fill="#E4876A" stroke="#26739C" stroke-width="1.5882" stroke-miterlimit="10" d="
		M381.689,203.699c-3.113,26.041-41.347,19.927-38.302-5.528C346.5,172.131,384.731,178.244,381.689,203.699z"/>
</g>
<g>
	<g>
		<path fill="#EB6600" d="M432.33,173.177c-1.942-8.138-0.695-16.59-2.082-24.781c-1.373-8.106-9.371-5.333-9.922,1.74
			c-0.273,3.522,3.506,9.191,4.752,12.549c0.97,2.612,1.852,5.259,2.776,7.887C428.701,172.978,429.816,172.627,432.33,173.177z"/>
		<path fill="#F9A215" d="M432.33,173.137c-1.068-6.712-4.057-11.279-7.547-16.853c-2.603-4.157-3.735-9.532,0.469-13.072
			c-5.286,1.555-14.864,1.616-15.897,7.985c-0.844,5.198,1.483,8.903,5.296,12.211c0.823,0.715,8.5,7.738,8.627,7.713
			C426.295,171.792,429.312,172.465,432.33,173.137z"/>
		<path fill="#F07E0E" d="M432.33,173.137c-0.448-2.814-1.604-11.07-5.058-11.515c-6.069-0.781-12.214-1.872-17.638-4.864
			c1.264,4.281,5.353,7.025,8.666,9.675c0.354,0.284,5.441,4.596,4.977,4.688C426.295,171.792,429.312,172.465,432.33,173.137z"/>
	</g>
	<g>
		<path fill="#F7820E" d="M440.621,179.067c1.35-6.31-1.456-13.1-2.069-19.359c-0.433-4.414-0.701-13.208,3.601-16.163
			c2.411-1.656,6.243,1.992,8.117,3.178c3.151,1.994,2.775,2.053,2.775,5.778c0,5.474,1.098,11.815-0.937,16.97
			c-1.24,3.141-2.479,6.281-3.719,9.422C448.092,179.647,441.689,179.067,440.621,179.067z"/>
		<path fill="#FAD642" d="M450.451,183.188c3.164-3.302,22.664-23.268,13.241-28.806c-6.178-3.63-12.354-7.261-18.532-10.892
			c11.144,8.67-0.272,26.178-4.539,35.577C443.897,180.441,447.175,181.814,450.451,183.188z"/>
		<path opacity="0.8" fill="#F99B15" d="M450.451,183.188c4.688-4.895,9.533-10.062,12.746-16.089
			c-4.896,2.591-10.377,4.686-15.977,4.876c-1.054,0.036-2.146,0.022-3.184-0.189c-0.39-0.08-3.105,6.599-3.416,7.283
			C443.897,180.441,447.175,181.814,450.451,183.188z"/>
	</g>
	<g>
		<path fill="#F7820E" d="M435.818,168.222c15.049,17.98,43.083,16.756,63.094,9.908c-4.968,4.027-9.937,8.055-14.904,12.083
			c2.511,2.04,5.021,4.081,7.531,6.121c-9.896-0.834-19.809-2.713-29.335-5.496c-7.832-2.288-15.646-5.284-22.442-9.87
			c-1.012-0.683-7.37-4.912-6.844-6.114C433.885,172.643,434.852,170.433,435.818,168.222z"/>
		<path fill="#E06202" d="M406.459,166.501c13.418,2.505,24.489-0.754,36.222,7.984c7.025,5.232,13.293,11.486,21.34,15.214
			c5.484,2.541,11.521,3.599,17.274,5.351c-13.202-2.091-25.38-6.354-37.832-11.097c-10.242-3.902-24.176-11.03-35.498-8.864
			C408.861,172.184,408.386,168.904,406.459,166.501C425.967,170.143,409.635,170.462,406.459,166.501z"/>
	</g>
	<path fill="#F99B15" d="M428.322,165.551c1.805-0.475,16.658,1.085,13.883,5.513c-1.347,2.148-2.458,6.381-5.178,5.518
		c-3.509-1.114-7.019-2.227-10.528-3.34C426.078,173.109,428.082,166.469,428.322,165.551z"/>
	<path fill="#E87000" d="M427.898,166.976c4.518-1.188,11.45,0,13.379,4.97c0.037,1.256-3.335,6.168-4.514,5.798
		c-3.534-1.11-7.068-2.22-10.603-3.331C425.709,174.271,427.66,167.888,427.898,166.976z"/>
	<path fill="#FF4A43" d="M454.393,257.135c3.872-9.367,7.743-18.733,11.615-28.101c2.777-6.721,5.556-13.441,8.333-20.163
		c0.608-1.471,4.347-7.641,3.813-9.225c-0.479-1.42-6.397-3.794-7.622-4.521c-6.093-3.613-12.187-7.227-18.279-10.84
		c-9.028-5.354-18.058-10.709-27.087-16.064c-4.428,22.504-8.856,45.008-13.284,67.511c-0.233,1.187-2.1,6.338-1.466,7.448
		c0.981,1.718,9.979,3.166,11.794,3.742C432.938,250.327,443.665,253.731,454.393,257.135z"/>
	<path fill="#D41515" d="M425.166,168.222c-10.21,3.206-20.421,6.411-30.631,9.616c-4.772,1.498-9.544,2.997-14.316,4.495
		c-1.562,0.49-0.88,3.463-0.929,4.896c-0.756,22.207-1.512,44.414-2.268,66.621c9.859-3.149,19.718-6.299,29.577-9.448
		c2.333-0.746,3.664-0.44,4.121-2.766c0.771-3.915,1.541-7.83,2.312-11.746C417.076,209.334,421.121,188.778,425.166,168.222z"/>
	<path fill="#AE1821" d="M454.393,257.135c-14.076-4.466-28.152-8.933-42.229-13.398c-4.33-1.374-10.394,2.207-14.523,3.526
		c-6.873,2.195-13.746,4.392-20.619,6.587c14.322,3.74,28.643,7.479,42.964,11.22c5.5,1.437,7.111,0.738,12.757-1.056
		C439.96,261.721,447.176,259.428,454.393,257.135z"/>
	<path fill="#593D0C" d="M462.219,190.196c-2.317,6.02-23.043,62.11-23.985,61.811c-1.525-0.484-13.136-3.466-13.047-4.379
		c0.249-2.566,0.743-5.118,1.242-7.645c4.075-20.636,10.628-40.853,17.265-60.774C449.868,182.872,456.044,186.534,462.219,190.196z
		"/>
	<path fill="#FAD642" d="M462.219,190.196c-4.791,12.445-9.582,24.89-14.373,37.335c-2.648,6.879-5.297,13.759-7.945,20.639
		c-0.495,1.285-0.989,2.57-1.484,3.855c-0.062,0.16-9.062-2.835-9.818-3.075c-4.995-1.585-2.899-3.062-1.597-7.89
		c2.176-8.062,4.352-16.124,6.527-24.187c3.389-12.555,6.776-25.11,10.165-37.665C449.868,182.872,456.044,186.534,462.219,190.196z
		"/>
	<path fill="#593D0C" d="M398.812,246.889c1.275-3.624,1.868-7.535,2.563-11.298c3.835-20.768,6.422-41.79,9.04-62.738
		c-2.355,0.739-20.18,5-20.253,6.499c-0.326,6.694-0.652,13.388-0.978,20.081c-0.834,17.109-1.667,34.22-2.5,51.329
		C390.728,249.471,394.771,248.18,398.812,246.889z"/>
	<path fill="#F99B15" d="M398.812,246.889c3.868-24.679,7.735-49.357,11.604-74.036c-2.355,0.739-20.18,5-20.253,6.499
		c-0.326,6.694-0.652,13.388-0.978,20.081c-0.834,17.109-1.667,34.22-2.5,51.329C390.728,249.471,394.771,248.18,398.812,246.889z"
		/>
	<path fill="#E06202" d="M438.402,252.061c-7.278,2.733-14.556,5.466-21.834,8.199c-1.781,0.669-4.869,2.646-6.81,2.139
		c-3.735-0.976-7.471-1.952-11.206-2.928c7.16-3.124,14.321-6.247,21.482-9.371c2.193-0.957,4.185-2.538,6.508-1.802
		C430.496,249.552,434.449,250.807,438.402,252.061z"/>
	<path opacity="0.82" fill="#593D0C" d="M398.812,246.889c14.406,4.175,28.871,8.615,42.752,14.322
		c-3.4,1.08-6.801,2.161-10.201,3.241c-3.483,1.107-13.373-3.89-16.922-4.984c-9.266-2.858-18.517-5.764-27.756-8.706
		C390.728,249.471,394.771,248.18,398.812,246.889z"/>
	<path fill="#E06202" d="M398.812,246.889c14.251,4.774,28.501,9.548,42.752,14.322c-2.629,0.835-8.256,3.972-10.867,3.164
		c-4.642-1.436-9.283-2.871-13.924-4.307c-10.029-3.103-20.059-6.204-30.088-9.307C390.728,249.471,394.771,248.18,398.812,246.889z
		"/>
	<path fill="#614735" d="M468.18,224.393c-9.873-0.934-11.29,6.307-5.578,12.885C464.461,232.982,466.32,228.688,468.18,224.393z"/>
</g>
<g>
	<path fill="#614735" d="M380.286,247.199c4.808-2.758,12.76-7.599,18.618-6.47c1.756,0.339,2.358,2.274,1.715,3.817
		c-1.307,3.135-5.681,3.629-8.575,3.445c3.628,0.303,7.35,0.811,10.808,1.981c5.919,2.003,5.409,6.505-0.099,8.796
		c-4.107,1.707-11.392-1.374-15.24-2.753C383.286,254.503,380.427,251.929,380.286,247.199z"/>
	<path fill="#E9AA7F" d="M380.498,246.246c4.809-2.757,12.759-7.597,18.617-6.468c1.756,0.339,2.359,2.273,1.717,3.816
		c-1.307,3.134-5.683,3.629-8.577,3.446c3.629,0.302,7.351,0.81,10.81,1.979c5.86,1.982,5.525,6.604-0.099,8.798
		c-4.176,1.623-11.336-1.367-15.243-2.758C383.494,253.556,380.639,250.971,380.498,246.246z"/>
	<path fill="#D17F4F" d="M406.992,251.369c3.65,5.402-5.562,6.917-8.934,6.386c-2.594-0.407-12.533-1.634-13.889-4.226
		c0.249,0.475,5.951,0.557,6.537,0.588C396.228,254.418,401.97,253.826,406.992,251.369
		C409.295,254.777,395.205,257.135,406.992,251.369z"/>
	<path fill="#23729A" d="M322.009,206.232c5.785-2.844,11.57-5.688,17.354-8.533c0,19.342,0,38.684,0,58.025
		c9.111-2.107,18.221-4.215,27.332-6.321c4.123-0.954,8.246-1.907,12.369-2.861c1.406-0.325,4.478,7.695,5.233,9.183
		c-18.67,6.254-37.34,12.508-56.011,18.762C326.194,251.734,324.102,228.983,322.009,206.232z"/>
	<path fill="#FFFFFF" d="M370.329,243.182c1.856,0.791,3.825,8.384,4.561,10.119c1.581,3.731,3.141,7.472,4.687,11.217
		c2.538-1.783,5.075-3.567,7.613-5.351c1.542-1.084-1.954-5.108-2.751-6.476c-1.193-2.045-2.885-6.989-4.862-8.338
		C377.704,243.076,372.636,243.474,370.329,243.182z"/>
	<path fill="#F5ECEC" d="M376.043,256.086c1.178,2.811,2.355,5.621,3.533,8.432c3.06-2.15,9.328-4.167,7.162-7.882
		c-1.391-2.386-1.11-3.315-3.732-2.559C380.685,254.747,378.364,255.416,376.043,256.086z"/>
	<path fill="#1B4970" d="M323.717,205.392c2.323,21.445,4.646,42.889,6.97,64.334c7.857-2.159,15.715-4.318,23.572-6.479
		c2.721-0.747,21.774-7.521,22.667-5.055c-16.213,5.431-32.426,10.862-48.64,16.293c-1.088-11.837-2.177-23.674-3.266-35.511
		C324.671,235.173,319.64,206.131,323.717,205.392z"/>
</g>
<g>
	<g>
		<defs>
			<path id="SVGID_3_" d="M321.815,130.95c-9.173-3.821-23.171,0.688-22.25,12.544c1.033,13.261,17.562,14.479,27.522,14.392
				C325.33,148.907,323.572,139.929,321.815,130.95z"/>
		</defs>
		<use xlink:href="#SVGID_3_"  overflow="visible" fill="#CC8A64"/>
		<clipPath id="SVGID_4_">
			<use xlink:href="#SVGID_3_"  overflow="visible"/>
		</clipPath>
		<path opacity="0.36" clip-path="url(#SVGID_4_)" fill="#E79D73" d="M307.113,143.862c-0.013,2.651,1.146,5.21,3.133,6.961
			c-12.424-0.853-7.715-20.682,3.774-15.833C310.019,136.026,307.134,139.728,307.113,143.862
			C307.099,146.636,307.134,139.585,307.113,143.862z"/>
	</g>
	<path fill="#2C1B1B" d="M407.227,31.95c-6.383,7.106-12.766,14.212-19.147,21.318c-4.503,5.013-9.005,10.025-13.508,15.038
		c-1.703,1.896-4.512,4.332-5.507,6.418c14.776-12.107,29.552-24.214,44.329-36.321C411.337,36.252,409.282,34.101,407.227,31.95z"
		/>
	<path fill="#2C1B1B" d="M372.755,71.482c-0.968-9.132-1.937-18.264-2.905-27.396c-2.381,0.552-4.762,1.104-7.144,1.656
		c1.73,4.744,3.46,9.488,5.19,14.232C368.668,62.089,370.711,71.179,372.755,71.482z"/>
	<path fill="#2C1B1B" d="M377.158,48.06c-0.576,3.394-5.518,29.607-8.945,28.205c1.39,0.542,2.78,1.083,4.17,1.625
		c-3.438-1.19,10.648-23.975,12.493-26.823C382.303,50.064,379.73,49.062,377.158,48.06z"/>
	<g>
		<defs>
			<path id="SVGID_5_" d="M406.098,83.412c12.626-2.44,27.439-4.542,39.965-0.812c-28.224-15.818-65.229-22.248-96.175-11.626
				C368.624,75.12,387.361,79.266,406.098,83.412z"/>
		</defs>
		<use xlink:href="#SVGID_5_"  overflow="visible" fill="#332422"/>
		<clipPath id="SVGID_6_">
			<use xlink:href="#SVGID_5_"  overflow="visible"/>
		</clipPath>
		<path clip-path="url(#SVGID_6_)" fill="#533C3B" d="M431.455,56.959c9.511,1.392,18.753,15.988,21.012,24.326
			c1.195,4.413,0.588,9.224-4.072,11.19c-3.072,1.296-4.454-0.641-7.135-2.234c-27.824-16.546-62.839-27.846-95.174-20.179
			c4.26-5.08,11.057-8.142,17.146-10.288C384.794,52.175,409.25,53.71,431.455,56.959C441.113,58.373,363.353,46.994,431.455,56.959
			z"/>
	</g>
	<g>
		<defs>
			<path id="SVGID_7_" d="M423.398,121.896c-3.348,9.678-6.533,19.421-9.451,29.238c-0.808,2.715-5.808,14.362-4.273,16.781
				c1.713,2.701,6.208,7.322,6.619,10.435c-6.635,21.274-27.329,33.273-48.928,33.261c-21.591-0.012-43-11.715-51.16-32.331
				c-2.167-5.476-3.332-11.312-3.645-17.185c-0.194-3.625,6.157-5.288,5.898-8.281c-0.383-4.442-0.766-8.885-1.149-13.328
				c-0.227-2.628-1.268-6.272-0.561-8.865c0.889-3.263,8.851-34.926,9.517-34.819c10.122,1.621,20.244,3.241,30.366,4.862
				c16.367,2.621,32.734,5.241,49.102,7.862c4.592,0.735,9.185,1.471,13.777,2.206C422.518,112.213,422.697,119.25,423.398,121.896z
				"/>
		</defs>
		<use xlink:href="#SVGID_7_"  overflow="visible" fill="#E9AA7F"/>
		<clipPath id="SVGID_8_">
			<use xlink:href="#SVGID_7_"  overflow="visible"/>
		</clipPath>
		<path clip-path="url(#SVGID_8_)" fill="#E79D73" d="M321.154,177.012c5.901,17.268,25.776,26.91,42.629,29.524
			c20.755,3.22,42.261-3.845,54.014-21.934c-2.354,8.225-6.928,16.096-12.677,22.388c-14.047,15.372-34.103,17.363-53.445,12.393
			c-16.376-4.207-34.877-12.482-42.24-28.875c-1.207-2.686-2.188-5.664-2.333-8.631
			C307.052,180.854,319.499,177.561,321.154,177.012z"/>
		<path clip-path="url(#SVGID_8_)" fill="#E4876A" d="M297.978,174.244c6.202,20.149,41.843,9.179,35.641-10.97
			C327.417,143.125,291.775,154.095,297.978,174.244z"/>
		<path clip-path="url(#SVGID_8_)" fill="#E4876A" d="M401.457,189.007c6.202,20.149,41.841,9.18,35.643-10.971
			C430.897,157.887,395.255,168.857,401.457,189.007z"/>
	</g>
	<path fill="#1E2021" d="M355.528,166.166c-0.991-12.944-9.063-12.781-7.057,0.585L355.528,166.166z"/>
	<path fill="#1E2021" d="M383.502,173.793c5.648-11.689-1.413-15.605-6.395-3.041L383.502,173.793z"/>
	<path fill="#533C3B" d="M362.32,136.164c-6.963-0.495-13.841-0.379-20.722,0.906c-0.235-1.451-0.469-2.902-0.704-4.353
		c4.791-0.456,9.664-0.531,14.454-0.027C357.836,132.952,364.126,132.224,362.32,136.164z"/>
	<path fill="#533C3B" d="M385.734,140.712c7.238-3.573,14.15-6.692,22.225-7.941c0.198,1.586,0.396,3.172,0.594,4.758
		c-5.153,0.333-10.231,1.378-15.104,3.094c-1.956,0.689-3.883,1.48-5.75,2.386C386.231,143.736,385.874,140.651,385.734,140.712
		C385.889,140.636,385.578,140.78,385.734,140.712z"/>
	<g>
		<defs>
			<path id="SVGID_9_" d="M421.633,118.274c-4.36,17.627-8.72,35.254-13.08,52.882c6.407-12.187,11.435-25.138,16.271-38.011
				c1.375-3.66,2.723-7.331,4.023-11.018C429.36,120.672,423.032,118.88,421.633,118.274z"/>
		</defs>
		<use xlink:href="#SVGID_9_"  overflow="visible" fill="#533C3B"/>
		<clipPath id="SVGID_10_">
			<use xlink:href="#SVGID_9_"  overflow="visible"/>
		</clipPath>
		<path clip-path="url(#SVGID_10_)" fill="#1F2021" d="M420.496,123.1c4.915,1.82,9.829,3.641,14.744,5.461
			c0-3.445,1.266-6.076-2.126-7.276c-3.827-1.354-7.654-2.708-11.481-4.062C421.254,119.182,420.875,121.141,420.496,123.1z"/>
	</g>
	<g>
		<defs>
			<path id="SVGID_11_" d="M352.091,173.487c0.6-2.687,3.033-4.397,5.503-5.221c2.442-0.815,1.983-1.069,2.667-3.562
				c1.074-3.91,2.147-7.82,3.221-11.73c2.135,1.353,8.861,4.017,9.826,6.225c1.732,3.96-4.688,8.454-0.231,11.422
				c7.712,5.136,4.889,13.562-3.897,14.494C363.133,185.756,350.208,181.908,352.091,173.487
				C352.743,170.571,351.057,178.11,352.091,173.487z"/>
		</defs>
		
			<linearGradient id="SVGID_12_" gradientUnits="userSpaceOnUse" x1="831.0371" y1="694.3262" x2="817.9943" y2="669.6827" gradientTransform="matrix(-0.9858 0.1676 0.1676 0.9858 1065.0261 -639.6699)">
			<stop  offset="0" style="stop-color:#DD504F"/>
			<stop  offset="1" style="stop-color:#E9AA7F"/>
		</linearGradient>
		<use xlink:href="#SVGID_11_"  overflow="visible" fill="url(#SVGID_12_)"/>
		<clipPath id="SVGID_13_">
			<use xlink:href="#SVGID_11_"  overflow="visible"/>
		</clipPath>
		<path opacity="0.76" clip-path="url(#SVGID_13_)" fill="#E4876A" d="M369.634,189.107c5.104,0.166,10.371-0.934,14.686-3.755
			c-1.609-2.461-2.044-5.313-4.848-3.941c-5.171,2.53-11.389,2.317-16.782,0.649c-5.179-1.601-10.256-4.779-12.992-9.59
			c-1.493-2.624-3.566-0.491-6.19,0.593C347.666,183.121,359.214,188.767,369.634,189.107
			C375.096,189.285,366.789,189.014,369.634,189.107z"/>
		<path opacity="0.52" clip-path="url(#SVGID_13_)" fill="#FFFFFF" d="M359.112,171.355c-0.833,2.781,6.252,4.904,7.087,2.124
			C367.031,170.699,359.944,168.575,359.112,171.355z"/>
	</g>
	<path fill="#422F2C" d="M308.943,69.721c3.025,26.33,6.05,52.659,9.075,78.988c3.355-11.373,6.711-22.746,10.066-34.119
		c0.496-1.681,0.654-5.998,2.729-6.055c4.31-0.117,8.625-0.064,12.933,0.064c40.511,1.203,84.424,8.845,118.487,32.031
		c-10.477-19.493-32.415-33.136-52.004-41.594c19.268,5.863,40.949,12.829,56.859,25.522c-5.412-13.248-17.468-24.077-29.088-31.779
		C400.766,68.097,352.012,65.964,308.943,69.721z"/>
	<path fill="#FAAB91" d="M376.862,178.3c-0.675-3.137-2.78-5.888-5.535-7.501c-1.824-1.068-4.534-0.68-3.189-3.409
		c5.227,0.967,9.658,5.271,10.777,10.468C378.276,177.996,377.51,178.333,376.862,178.3z"/>
	<path fill="#E4876A" d="M337.394,163.693c1.606-0.683,2.669-4.277,0.083-4.199C333.921,159.601,333.985,165.145,337.394,163.693
		C338.169,163.364,335.074,164.681,337.394,163.693z"/>
	<path fill="#E4876A" d="M336.415,168.077c0.815,0.799,2.646-0.158,2.035-1.375C337.783,165.379,335.366,167.045,336.415,168.077
		C336.635,168.293,335.377,167.057,336.415,168.077z"/>
	<path fill="#1E2021" d="M342.167,178.857c1.261,4.818,4.272,9.424,8.346,12.311c1.869,1.508,4.133,2.65,6.397,3.438
		c1.867,0.568,3.92,0.467,2.673,3.04c-9.549-1.625-17.545-8.573-20.42-17.836C340.068,179.522,341.224,178.892,342.167,178.857z"/>
	<g>
		<path fill="#1D1D1B" d="M324.901,132.996c-5.593-1.57-3.614-2.671-2.114-8.013c1.718-6.121,3.437-12.241,5.155-18.361
			c1.006-3.585,19.029-0.877,22.738-0.639c13.048,0.837,26.021,2.538,38.909,4.72c-0.819,4.826-0.772,4.102-5.965,3.279
			c-5.767-0.914-11.55-1.723-17.351-2.384c-10.775-1.229-21.605-1.917-32.45-2.042c-4.284-0.049-4.402,7.34-5.446,11.06
			C327.218,124.742,326.06,128.869,324.901,132.996z"/>
	</g>
	<g>
		<path fill="#1D1D1B" d="M430.488,113.818c-4.91-4.013-10.378-7.379-16.113-10.075c-2.751-1.293-5.581-2.431-8.484-3.338
			c-0.291-0.67,1.016-3.253,1.252-4.01c9.429,2.944,18.365,7.927,26.004,14.17C432.261,111.65,431.374,112.734,430.488,113.818z"/>
	</g>
	<g>
		<path fill="#1D1D1B" d="M459.873,126.043c-8.562-7.881-18.533-14.215-29.258-18.722c-5.721-2.404-11.662-4.29-17.728-5.605
			c-1.017-0.221-6.902-0.915-6.795-1.668c0.179-1.242,0.356-2.484,0.534-3.726c20.784,2.982,40.644,12.41,56.092,26.63
			C461.771,123.982,460.821,125.013,459.873,126.043z"/>
	</g>
</g>
<path fill="#614735" d="M460.881,241.438c2.047-0.39,4.147-0.805,6.018-1.748c-1.229-1.272-2.46-2.544-3.689-3.816
	C462.433,237.728,461.657,239.583,460.881,241.438z"/>
<path fill="#E9AA7F" d="M466.898,239.689c6.534-4.802,10.229-18.706-2.022-15.994C454.57,225.977,462.35,235.59,466.898,239.689z"/>
</svg>
