<svg xmlns="http://www.w3.org/2000/svg" viewBox="0 0 768 430"><style>.a{fill:#FFF;}.b{fill:#476D0F;}.c{fill:#123A12;}.d{fill:#091D09;}.e{fill:#183111;}.f{fill:#FFDC3E;}.g{fill:#806E1F;}.h{fill:#2E0000;}.i{fill:#6A0000;}.j{fill:#170000;}.k{fill:#C4C4C4;}.l{fill:#6B6C6C;}.m{fill:#FF657E;}.n{fill:#FF3D5C;}.o{fill:#2E3191;}.p{fill:#00079F;}.q{stop-color:#476D0F;}.r{stop-color:#2B4209;}</style><path d="M359.8 80.5c-1.6-3.8-3.9-6.2-6.6-6.6l-0.1 0c-0.7-0.1-1.3-0.1-2 0.1 -5 1-9.3 8.1-10.2 16.9 -0.5 5 0 9.8 1.6 13.7 1.6 3.8 3.9 6.2 6.6 6.6l0.1 0c0.7 0.1 1.3 0.1 2-0.1 5-1 9.3-8.1 10.2-16.9C361.9 89.2 361.4 84.3 359.8 80.5zM357.3 98.1c-1.2 6.9-4.3 10-8.1 8.7 -3.8-1.3-6.8-6.5-5.7-13.4 1.2-6.9 5.2-11.5 9-10.2C356.4 84.5 358.5 91.2 357.3 98.1z" class="a"/><path d="M343.9 92.2c0.9-3.7 2.7-6.7 4.8-8.4 -0.2-2.9-0.3-5.6-0.3-8 -3.3 2.8-6.1 7.9-7.1 13.8 -0.9 4.8-0.6 9.4 0.8 13.1 0.4 1.1 0.8 2 1.4 2.8 0.6-0.4 1.3-0.7 1.9-1C343.4 101.9 342.7 97.1 343.9 92.2z" fill="none"/><path d="M438.8 351.5c-0.3 0.2-0.7 0.4-1.1 0.7 -0.5 0.3-1 0.7-1.6 1 -0.6 0.3-1.2 0.7-1.8 1 -0.3 0.1-0.5 0.3-0.8 0.4 -0.3 2.4-0.8 4.8-1.4 6.9 -1.2 4.9-2.3 9.1 1.1 12.7 3.5 3.6 10.4 5.4 20.3 5.4 10 0 20.9-1.9 28.3-3.4l0.1 0c12.8-0.9 17.3-3.7 18.7-5.9 0.8-1.1 0.9-2.4 0.5-3.8 -10.2-4.4-21.9-2.6-22-2.6 0 0 11.7-2.7 22 1.6 0.4-3.1-2.3-5.4-6.9-8 -5.5-2.9-13.4-2.4-13.5-2.4 0 0 6.5-1.1 12 0.7 -2-3.3-8-5.5-15.5-5.5 -2.1 0-4.2 0.2-6.3 0.5l0 0c-8 8.9-12 11-12 11 4.6-3.3 12.2-12.6 13.2-13.9 3-4 9.4-13.6 11.4-24.3 1.9-10.4-9.1-24.3-14.8-30.7 0 3.9-0.4 8.1-1.1 12.6 -2.6 18.2-11.7 33.5-26.3 44.1 -0.8 0.6-1.6 1.1-2.4 1.6 0 0 0 0 0 0C439 351.4 438.9 351.4 438.8 351.5z" class="b"/><path d="M338.8 286c-1.1 3.2 1.1 9 3 13.1 0 0 0 0 0 0 2.4-5.8 4.5-12.3 6.6-18.9C345.1 280.8 340 282.5 338.8 286z" class="c"/><path d="M341.8 299c-1.9-4-4.1-9.9-3-13.1 1.2-3.4 6.4-5.1 9.6-5.9 0.1-0.3 0.2-0.7 0.3-1.1 -3.3 0.7-9.3 2.5-10.8 6.6 -1.3 3.6 1.2 9.9 3.1 14C341.4 299.4 341.6 299.1 341.8 299z" class="d"/><path d="M326 307.8c-2.2 2.8-0.7 9.6 0.7 14.2 2-1.8 3.8-3.7 5.4-5.7 1-5.3 3.1-9.4 5-12.2C333.3 304.4 328 305.2 326 307.8z" class="c"/><path d="M326.7 322c-1.4-4.6-2.9-11.4-0.7-14.2 2-2.6 7.2-3.4 11.2-3.7 0.2-0.3 0.5-0.7 0.7-1 -4.5 0.2-10.3 1.1-12.6 4.1 -2.5 3.3-0.8 10.7 0.6 15.5C326.2 322.5 326.5 322.3 326.7 322z" class="d"/><path d="M305.9 324.7c-2.4 1-2.5 5.7-2.2 9.4 5.7-1.5 11.1-3.8 15.8-6.7 -3.2-1.6-7.6-3.2-10.9-3.2C307.5 324.2 306.6 324.4 305.9 324.7z" class="c"/><path d="M303.7 334.1c-0.4-3.7-0.2-8.4 2.2-9.4 0.7-0.3 1.6-0.4 2.7-0.4 3.4 0 7.8 1.6 10.9 3.2 0.3-0.2 0.6-0.4 0.9-0.6 -3.3-1.8-8.1-3.5-11.9-3.5 -1.2 0-2.2 0.2-3.1 0.5 -3.1 1.3-3.1 6.8-2.7 10.6C303.1 334.3 303.4 334.2 303.7 334.1z" class="d"/><path d="M284.9 328.3c-0.3 0-0.6 0-0.9 0.1 -4 0.5-6.6 4.2-8 7.2 6.5 0.9 13.1 1 19.3 0.2 -0.3-0.3-0.5-0.6-0.8-0.9C291.7 331.6 288.7 328.3 284.9 328.3z" class="c"/><path d="M276 335.6c1.4-3 3.9-6.7 8-7.2 0.3 0 0.6-0.1 0.9-0.1 3.8 0 6.8 3.3 9.7 6.6 0.3 0.3 0.5 0.6 0.8 0.9 0.4 0 0.8-0.1 1.1-0.2 -0.4-0.4-0.8-0.9-1.2-1.3 -2.9-3.2-6.2-6.9-10.4-6.9 -0.3 0-0.7 0-1 0.1 -4.6 0.6-7.4 4.8-8.9 8C275.4 335.5 275.7 335.5 276 335.6z" class="d"/><path d="M262.6 325.6c-0.2-0.1-0.5-0.1-0.7-0.1 -2.3 0-4.8 2.4-6.4 4.4 4 1.7 8.1 3 12.1 4 -0.1-0.2-0.1-0.4-0.2-0.6C266.3 330.1 265 326.2 262.6 325.6z" class="c"/><path d="M255.5 329.9c1.7-2 4.2-4.4 6.4-4.4 0.2 0 0.5 0 0.7 0.1 2.3 0.6 3.7 4.5 4.8 7.7 0.1 0.2 0.1 0.4 0.2 0.6 0.4 0.1 0.7 0.2 1.1 0.3 -0.1-0.4-0.3-0.8-0.4-1.2 -1.2-3.6-2.6-7.6-5.5-8.3 -0.3-0.1-0.6-0.1-0.9-0.1 -2.7 0-5.6 2.8-7.4 5C254.9 329.7 255.2 329.8 255.5 329.9z" class="d"/><path d="M445.8 190.4c0 0 0.9-4.5 4.7-8 -2.1 0.6-4.5 0.9-7.1 0.9 -3 0-6-0.4-8.4-0.8 0.6 2.2 1.2 4.5 2 7 0 0-6-12.1-4.3-21.9 0.8-2.5 2.4-5.5 3.3-7.3 0.3-0.5 0.5-1 0.8-1.5 0 0 0-0.1 0-0.1l0 0c5.1-9.2 12.7-26.7 12.3-49.2 -1.5-37.4-26.3-42.5-37.7-42.9 0.9 3 0 5.8 0 5.8 0 0 0.1-2.8-1-5.8l0 0 -0.1-0.3c-3-7.6-7.5-12.1-13.4-13.1 -7.4-1.3-15.5 3-20.4 8l0 0c0 0 0 0 0 0 -0.3 0.3-0.6 0.6-0.9 1l0 0c-2.4 3.1-2.4 7.8-2.4 7.9 0 0-0.7-4.6 1.3-8 -9.5-3.9-16.1-4.3-20.1-1.3 -2.9 2.2-4.5 6.2-5 12.5 1.9-1.5 3.9-2.3 5.8-1.9l0.1 0c2.2 0.4 4 2.8 5.5 5.2 2.3 4 2.7 10.9 1.6 17 -0.6 3.5-1.8 6.7-3.3 9.3 4 0.8 6.4 2.4 6.4 2.4l32.3 25.3c-1.6-0.5-3.2-0.6-4.8-0.5 -0.5 0-0.9 0.1-1.3 0.2 -4.8 1-8.4 4.2-8.4 4.2s6.1-2.2 13.5 2c5 3.2 6.2 5.5 6.4 6.2 0-0.1 0.1-0.2 0.2-0.5 0.1 0.1 0.1 0.2 0.2 0.4 2.4-1.1 18.9 0.9 19.4 18 -0.4 2.8-0.7 6.2-0.9 8.5 0 0.3 0 0.5-0.1 0.7 0 0.1 0 0.2 0 0.3 -0.1 1.1-0.2 1.9-0.2 1.9s0.2 0 0.7 0c0.3 6.1 2.5 11.9 8 24.9 1.3 3 2.7 6.2 4.1 9.5 4 9.2 8.8 20.2 13.4 32.1l0 0 0 0c4.6 11.8 9 24.5 12.4 37.6 5.1 19.7 6.2 47.1-15.8 70.1 11.9-10.1 19.8-23.9 22.1-40.5 3.7-21.8-2-35.4-9.2-52.7 -3.7-8.9-7.8-18.9-11.3-31.5l-0.5-1.7c-2-6.6-2.9-9.7-5.5-14.9 0 0 1.2 1 3.1 5.3 6.7-1.7 13.3-5.5 17.4-9.1l0.1-0.1 0.1 0c8-2.5 20.8-9.1 27.2-16.9 -0.1 0-0.3 0-0.4 0 -8.6 0-12.1-7.8-12.1-7.8 0 0.1 4.5 7.6 13.6 6.8 10-0.9 16.8-10 17-22.6 0.7-12.2 5.6-18.8 8.5-22.7 1.5-2 2.2-3 1.7-3.5 -1-1.1-3.1-1.5-5.8-1.2 -2.9 0.3-5.8 1.4-7.2 2.7 -0.2 0.2-0.4 0.4-0.6 0.7 0 0 0 0.1-0.1 0.1l0 0c-3.1 3.9-3.3 8.3-3.2 9.3 1.2 0.8 2.4 2.5 2.4 2.5 -7.3-6.2-22.3-1.6-22.4-1.5 0 0 2.6-1.8 6.2-2.3 0.1 0 0.2 0 0.3 0 0-1.6 0.2-7.4 3-11.6 0.5-3.8 0-6.4-1.5-7.4 -1.4-0.9-3.6-0.3-6.5 1.6 -7.3 4.7-9.9 16.5-6.8 30 2.8 2.1 3.3 3.8 3.3 3.8 0 0-1.3-1.4-5-3.8 0 0-0.1-0.1-0.1-0.1 0 0 0 0 0 0l0 0c-1.1-0.8-2.2-1.8-3.3-2.9 -3.2-3-6.5-6.1-9.6-3.8 -0.8 0.7-1 2.7-0.5 5.2 1.1 6 6.2 16 15.6 19.2 0 0-0.9-0.1-2.2-0.7 -6.1 1.9-12.8 4.8-17.5 6.9C448 183.7 445.8 190.3 445.8 190.4zM408.6 99.7c-1.6 11.8-9.5 20.6-17.6 19.6l0 0 -0.1 0c-3-0.4-5.7-2.1-7.9-4.9 -3.5-4.6-5-11.5-4-18.6 1.6-11.8 9.9-22.7 18.1-21.7l0.1 0c3 0.4 5.7 3.1 7.9 5.9C408.5 84.6 409.6 92.6 408.6 99.7z" class="b"/><path d="M488.2 183.9c-6.4 7.8-19.2 14.4-27.2 16.9l-0.1 0 -0.1 0.1c-4.1 3.6-10.7 7.4-17.4 9.1 -1.9-4.3-3.1-5.3-3.1-5.3 2.6 5.2 3.5 8.3 5.5 14.9l0.5 1.7c3.5 12.6 7.6 22.6 11.3 31.5 7.2 17.2 12.8 30.9 9.2 52.7 -2.3 16.6-10.2 30.4-22.1 40.5 -1.7 1.8-3.6 3.6-5.7 5.4 0.8-0.5 1.6-1.1 2.4-1.6 14.7-10.6 23.8-25.9 26.3-44.1 0.8-4.5 1.1-8.7 1.1-12.6 5.8 6.4 16.7 20.3 14.8 30.7 -1.9 10.7-8.4 20.2-11.4 24.3 -1 1.3-8.6 10.6-13.2 13.9 0 0 4-2.1 12-11l0 0c2.1-0.3 4.3-0.5 6.3-0.5 7.5 0 13.5 2.2 15.5 5.5 -5.5-1.9-12-0.7-12-0.7 0.1 0 8-0.5 13.5 2.4 4.6 2.6 7.4 4.9 6.9 8 -10.4-4.3-22-1.6-22-1.6 0.1 0 11.8-1.8 22 2.6 0.4 1.4 0.3 2.7-0.5 3.8 -1.5 2.2-5.9 5-18.7 5.9l-0.1 0c-7.4 1.6-18.3 3.4-28.3 3.4 -9.9 0-16.7-1.8-20.3-5.4 -3.4-3.6-2.3-7.8-1.1-12.7 0.5-2.1 1.1-4.4 1.4-6.9 -0.7 0.4-1.5 0.8-2.3 1.2 0.4-0.2 0.8-0.4 1.2-0.6 -0.3 2.1-0.8 4.1-1.3 6.1 -1.2 4.9-2.4 9.6 1.3 13.6 3.7 3.8 10.8 5.7 21 5.7 10.1 0 21.1-1.9 28.5-3.4 10.6-0.7 17.1-2.9 19.4-6.3 0.9-1.4 1.1-3 0.6-4.7 1-4.3-2.9-7.1-7.3-9.5l0 0c0 0 0 0 0 0 -0.2-0.1-0.4-0.2-0.7-0.4 -1.6-4.2-8.1-6.9-16.8-6.9 -1.7 0-3.5 0.1-5.3 0.3 0.2-0.3 0.6-0.7 0.9-1.2 0 0 0.1-0.1 0.1-0.1l0 0c3.1-4.2 9.5-13.8 11.5-24.5 2.1-11.4-10.1-26.2-15.8-32.3 -0.2-14.5-4.8-25.7-10.3-39.1 -3.7-8.8-7.8-18.8-11.3-31.4l-0.5-1.7c-1.1-3.6-2.1-6.4-3-8.5 6.8-1.8 13.4-5.6 17.6-9.2 8.3-2.6 21.8-9.6 28.1-17.8 -0.1 0-0.1 0-0.2 0C488.9 183.8 488.6 183.8 488.2 183.9z" class="e"/><path d="M503.8 132.6c2-3.1 3.5-5.5 2.2-7.4 -0.5-0.7-1.5-0.9-2.3-0.9 0 0-0.1 0-0.1 0 -3.8 0-9.9 3.1-13.8 8.4 -2.7 3.9-3 9.6-3 11.3 3.6-0.4 8-0.4 11.7 1 0-1.6 0.5-5.7 3.4-9.4C502.6 134.6 503.2 133.6 503.8 132.6z" class="b"/><path d="M517.1 133.4c-1.6-1.8-4.8-1.7-6.6-1.5 -2.1 0.2-4.4 0.9-6.2 1.9 0.1-0.2 0.3-0.4 0.4-0.6 2.1-3.2 3.8-6 2.2-8.5 -0.5-0.8-1.6-1.3-3-1.3 -3.7 0-9.6 2.6-13.9 7.7 0.2-3.4-0.5-5.7-2.1-6.7 -1.7-1.1-4.3-0.6-7.5 1.6 -7.5 4.9-10.4 16.4-7.4 30 0 0 0 0 0 0 -1-0.7-2.2-1.8-3.3-2.8 -3.3-3.1-7.1-6.6-10.9-3.9 -1.1 0.9-1.4 3.1-0.8 6.2 2.9 11.2 9.1 15.9 13 17.8 0.5 0.2 0.9 0.4 1.3 0.6 1.3 0.5 2.2 0.7 2.2 0.7 -9.4-3.2-14.5-13.2-15.6-19.2 -0.5-2.6-0.3-4.6 0.5-5.2 3.1-2.3 6.4 0.8 9.6 3.8 1.1 1.1 2.2 2.1 3.3 2.9l0 0c0 0 0 0 0 0 0 0 0.1 0.1 0.1 0.1 3.7 2.4 5 3.8 5 3.8 0 0-0.5-1.7-3.3-3.8 -3.1-13.5-0.5-25.3 6.8-30 2.9-1.9 5.1-2.4 6.5-1.6 1.5 0.9 2 3.6 1.5 7.4 -2.8 4.2-3 9.9-3 11.6 -0.1 0-0.2 0-0.3 0 -3.6 0.5-6.2 2.3-6.2 2.3 0.2 0 15.1-4.7 22.4 1.5 0 0-1.2-1.7-2.4-2.5 0-1 0.1-5.4 3.2-9.3l0 0c0 0 0-0.1 0.1-0.1 0.2-0.2 0.4-0.4 0.6-0.7 1.4-1.3 4.3-2.4 7.2-2.7 2.7-0.3 4.8 0.1 5.8 1.2 0.5 0.5-0.3 1.6-1.7 3.5 -2.9 3.9-7.8 10.5-8.5 22.7 -0.1 12.6-7 21.6-17 22.6 -9 0.9-13.5-6.7-13.6-6.8 0 0 3.5 7.8 12.1 7.8 0.1 0 0.3 0 0.4 0 0.4 0 0.7 0 1.1-0.1 0.1 0 0.1 0 0.2 0 10.4-1.1 17.5-10.5 17.6-23.5 0.7-11.9 5.5-18.3 8.3-22.2C517 135.9 518.1 134.5 517.1 133.4zM498.6 145.1c-3.7-1.4-8.1-1.4-11.7-1 0-1.7 0.3-7.4 3-11.3 3.9-5.3 10-8.4 13.8-8.4 0 0 0.1 0 0.1 0 0.8 0 1.8 0.2 2.3 0.9 1.3 1.9-0.3 4.4-2.2 7.4 -0.6 1-1.2 2-1.8 3C499 139.3 498.6 143.4 498.6 145.1z" fill="#243708"/><path d="M430.9 56.9c-1.1-0.3-2.3-0.4-3.5-0.4 -6.8 0-13 4.3-16.8 7.7 0.1 0.3 0.2 0.6 0.4 0.9l0 0c0.1 0.1 0.1 0.3 0.2 0.4 5.9 0.1 15.6 1.5 23.8 8C435.2 67.3 434.8 58.1 430.9 56.9z" class="c"/><path d="M410.6 64.2c3.8-3.4 10-7.7 16.8-7.7 1.2 0 2.4 0.1 3.5 0.4 3.9 1.2 4.3 10.3 4.1 16.6 0.3 0.2 0.6 0.5 0.9 0.7 0.3-6.2 0.2-16.8-4.7-18.3 -1.2-0.3-2.5-0.4-3.8-0.4 -7.1 0-13.3 4.3-17.3 7.7C410.3 63.6 410.4 63.9 410.6 64.2z" class="d"/><path d="M458.1 83.1c-1.7-2.5-5.3-3.7-10.5-3.7 -2.4 0-4.6 0.3-6.4 0.5 3.9 5.3 7 12.4 8.3 22.1 3.7-4 7.7-10.3 8.8-14.9C458.7 85.4 458.7 84 458.1 83.1z" class="c"/><path d="M441.1 79.9c1.8-0.3 4.1-0.5 6.4-0.5 5.3 0 8.8 1.3 10.5 3.7 0.6 0.9 0.6 2.3 0.2 4.1 -1.1 4.5-5.1 10.8-8.8 14.9 0.1 0.4 0.1 0.8 0.2 1.2 4-4.1 8.4-10.9 9.6-15.9 0.5-2.1 0.4-3.7-0.3-4.8 -1.9-2.7-5.7-4.1-11.3-4.1 -2.6 0-5.2 0.3-7.1 0.6C440.7 79.4 440.9 79.6 441.1 79.9z" class="d"/><path d="M462.2 125.7c-1.5-7.5-8.2-12.5-12.1-14.8 0 8.6-1 16.4-2.6 23.2C454.8 131.7 462.7 128.3 462.2 125.7z" class="c"/><path d="M450.1 110.8c3.9 2.3 10.6 7.3 12.1 14.8 0.5 2.7-7.3 6.1-14.7 8.3 -0.1 0.4-0.2 0.7-0.3 1.1 6.5-2 16.6-5.7 15.9-9.6 -1.7-8.3-9.1-13.5-13-15.8C450.1 110.1 450.1 110.4 450.1 110.8z" class="d"/><path d="M449.5 162.1c1.5-4.6-3-10.3-6.5-13.8 -3.2 7.9-6.7 13.6-8.8 16.7 -0.3 0.8-0.6 1.7-0.8 2.7 3-1.3 5.9-1.5 8.5-1.7C445.6 165.6 448.3 165.4 449.5 162.1z" class="c"/><path d="M443 148.3c3.5 3.5 8 9.2 6.5 13.8 -1.2 3.3-3.9 3.5-7.7 3.8 -2.6 0.2-5.5 0.5-8.5 1.7 -0.1 0.4-0.1 0.7-0.1 1.1 3.1-1.4 6.1-1.7 8.7-1.9 3.8-0.3 7.1-0.6 8.5-4.5 1.7-5.2-3.3-11.4-7-15.1C443.2 147.6 443.1 148 443 148.3z" class="d"/><path d="M353.6 265.2c-3.1 11.2-6.3 22.6-10.2 32.4 2.7-2.7 5.6-7.3 5.7-7.3 0 0-3.5 7.2-6.6 9.4 -0.1 0.1-14.7 11-8.4 35.4 3.7 13.1 10.8 20.9 15.1 24.6 0.8 0.6 1.6 1.2 2.4 1.8 0.4 0.3 0.8 0.6 1.1 0.9 0 0 0.1 0 0.1 0l0.1 0.1c6.5 5.3 7.5 8 7.5 8 -1.1-2-4.4-4.6-7.9-7.2 -7.8 0.8-20.7 5-25.2 10.8 -1.1 1.4-1.5 2.8-1.5 4.2 9.9-4.8 18.2-5.1 18.2-5.1 -10.4 2-16.8 5.4-18.2 6.1l0 0 -0.3 0.2c-4.1 2.2-6.6 4.5-6.3 5.9 0.2 0.7 1.3 2 7.3 2.4 12.4-6.3 22.2-6.3 22.2-6.3 -16 2.5-21.6 6.9-21.8 7.1 -1.1 1.1-2.1 2.2-1.8 2.9 0.6 1.4 5.6 2 14.8 2 16.6 0.5 30-1.7 31.6-2.3l0.1 0c5.4-1 21.4-5.4 24.2-12.6 0.8-2.2 0.4-4.4-1.4-6.8 -7.5-9.9-14.6-20-11.5-24 5.4-7.4 11.5-29.2-5.7-45.9 0 0 0.5 0.2 1.2 0.8 -7.3-14.1-8.9-32.4-4.9-56.4 -5.4-1.4-9.8-3.2-12.8-4.7C358.3 248.7 356 256.7 353.6 265.2z" class="b"/><path d="M376 186.1l-0.1-4.3c0 0-0.4 2.1-3 3.5 -0.2 0.1-0.6 0.3-1 0.4 -4.3 1.9-17.4 7.6-20.2 31.1 -1.1 12.1 2.4 19.3 5.8 21.7 3.1 2.2 12.6 6.9 26.2 8.8 1.9-1.7 4.5-2.2 4.5-2.2 -2.5 1.2-4 2.8-4.6 3.6 -2.2 3.1-4.3 9 2.2 16.9l0.7 0.9 -1.1-0.1c-3.5-0.3-6.6 0.5-7.3 2 -0.4 0.8 0 1.7 0.9 2.7l0.3 0.3c2.5 2.6 5.9 6.3 9.4 6.3 1.6 0 3-0.6 4.4-2v0l0 0c7.7-7.4 3.1-16.1 3.1-16.2 0 0 5.7 8.7-2.1 16.5 2 1.9 4.5 2.9 7 2.7 2.3-0.2 4.3-1.3 5.7-3.3 5.6-10.5 2.2-18.3 2.2-18.4 0 0 4.3 7.7-1 18.2 3.1 0.3 5.5-0.4 7.4-2 2.8-2.5 4.2-7.3 4.1-14.2 -0.1-12.6-4.7-19.6-14.4-21.9l-1.3-0.3c-6.3-1.5-6.4-1.6-9.4-3.7 -0.3-0.2-0.6-0.4-0.9-0.7l0 0c-1.3-1-2.6-2-4-2.9l-0.1-0.1c-0.8-0.8-1.5-1.5-2.2-2.2 -4.6-4.5-6.3-6.2-14.3-8.4 -1.2 0.5-2.4 0.7-3.6 0.7 -2.1 0-3.8-1.5-3.8-1.5 0 0 4.2 1.2 7.1-0.1 4-2.7 3.7-12.2 3.7-12.3 0 0 1.2 9-2.4 12.5 2.4 0.7 4.2 1.3 5.7 2 7.4-22.5 8.1-36 7.1-43.8 -0.1 0-0.1 0-0.2 0 -0.3 0-0.5 0-0.8-0.1 -1-0.1-1.9-0.2-2.9-0.3 -1-0.1-2-0.2-3-0.2 -0.3 0-0.6 0-0.9 0 -0.6 0-1.2 0-1.8 0C377.2 178.2 376.8 181.5 376 186.1z" class="b"/><path d="M307.2 358.1c12.7 0 24.1-2.2 34-5.7 -3.1-4.3-6.1-9.9-8.1-17 -1.7-6.7-1.9-12.4-1.3-17.2 -7.3 8.5-17.9 14.7-30.3 17.5 -17.1 3.8-36.2 0.9-53.8-8.3l-0.1-0.1c-0.1-0.1-0.3-0.2-0.4-0.1 -0.3 0.1-0.6 0.5-0.7 1.4 -0.1 1.4 0.2 9.2 22.6 23.5 0.1 0 0.1 0.1 0.2 0.1 13 3.9 25.7 5.9 37.9 5.9C307.2 358.1 307.2 358.1 307.2 358.1z" class="b"/><path d="M326.1 367.7c0 0-0.1 0-0.1 0C326.1 367.7 326.1 367.7 326.1 367.7z" class="e"/><path d="M319 367c0.1 0 0.2 0 0.4 0 -0.3 0-0.6-0.1-1-0.1C318.7 366.9 318.8 367 319 367z" class="e"/><path d="M307.8 365.4c-0.3 0-0.6-0.1-0.8-0.1C307.2 365.4 307.5 365.4 307.8 365.4z" class="e"/><path d="M311.6 366c-0.4-0.1-0.9-0.1-1.3-0.2C310.7 365.9 311.2 366 311.6 366z" class="e"/><path d="M315.7 366.6c-0.4-0.1-0.9-0.1-1.3-0.2C314.8 366.5 315.2 366.5 315.7 366.6z" class="e"/><path d="M396.7 364.9c-0.1 0-0.1 0-0.2 0C396.6 365 396.6 364.9 396.7 364.9z" class="e"/><path d="M427.9 357.4c-0.8 0.4-1.6 0.7-2.4 1C426.3 358.1 427.1 357.8 427.9 357.4z" class="e"/><path d="M418.8 360.9c-0.8 0.2-1.6 0.5-2.4 0.7C417.2 361.4 418 361.1 418.8 360.9z" class="e"/><path d="M425 358.7c-0.8 0.3-1.6 0.6-2.4 0.9C423.4 359.3 424.2 359 425 358.7z" class="e"/><path d="M421.9 359.8c-0.8 0.3-1.6 0.6-2.4 0.8C420.3 360.4 421.1 360.1 421.9 359.8z" class="e"/><path d="M430.8 356.1c-0.8 0.4-1.5 0.7-2.3 1.1C429.3 356.8 430 356.5 430.8 356.1z" class="e"/><path d="M412.1 362.7c-0.7 0.2-1.4 0.3-2.1 0.5C410.8 363 411.4 362.8 412.1 362.7z" class="e"/><path d="M408.6 363.4c-0.6 0.1-1.2 0.2-1.8 0.3C407.4 363.6 408 363.5 408.6 363.4z" class="e"/><path d="M303.6 364.7c-0.2 0-0.4-0.1-0.5-0.1C303.2 364.6 303.4 364.7 303.6 364.7z" class="e"/><path d="M404.9 364c-0.5 0.1-1 0.1-1.5 0.2C403.9 364.2 404.4 364.1 404.9 364z" class="e"/><path d="M401 364.6c-0.3 0-0.6 0.1-1 0.1C400.3 364.6 400.7 364.6 401 364.6z" class="e"/><path d="M415.5 361.8c-0.7 0.2-1.5 0.4-2.2 0.6C414 362.2 414.8 362 415.5 361.8z" class="e"/><path d="M270.6 354.1c0 0 0 0 0 0C270.6 354.1 270.6 354.1 270.6 354.1z" class="e"/><path d="M299.8 364c-0.1 0-0.1 0-0.2 0C299.7 364 299.8 364 299.8 364z" class="e"/><path d="M272.8 355.3c0 0 0 0-0.1 0C272.8 355.3 272.8 355.3 272.8 355.3z" class="e"/><path d="M437.8 352.1c0.4-0.2 0.7-0.4 1.1-0.7C438.5 351.7 438.1 351.9 437.8 352.1z" class="e"/><path d="M434.5 354.1c0.6-0.3 1.2-0.7 1.8-1C435.7 353.5 435.1 353.8 434.5 354.1z" class="e"/><path d="M390 364.2c18.5-0.2 35.2-4.9 48.4-13.6 7-6 12.2-12.5 15.9-19.1 -10.9 7-23.4 9.2-34.8 9.2 -6.2 0-12-0.6-17.1-1.5 -5.1-0.9-9.8-2-13.8-3.2 -1.1 5.4-3.1 9.8-5 12.5C381.6 351 385.2 357.3 390 364.2z" class="f"/><path d="M390.2 228.8c1.4 0.9 2.7 1.9 4 2.9 0.4 0.3 0.7 0.5 0.9 0.7 2.8 2 2.8 2 9 3.6l1.3 0.3c6.3 1.5 10.5 5 12.9 10.5 10.2-0.8 20.4-3.3 28.6-8.8 -3.9-10.1-7.9-19.4-11.5-27.6 -14.1 5.7-30.9 6.9-42 6.9 -6 0-10.3-0.3-11.6-0.4 -0.4 1.3-0.8 2.6-1.3 3.9 2.7 1.4 4.5 3.2 7.4 6C388.7 227.3 389.4 228 390.2 228.8z" class="f"/><path d="M388.9 334.9c4 1.2 8.7 2.3 13.8 3.2 14.5 2.5 35.7 2.8 52.5-8.4 6-11.5 7.7-23.4 7.3-34.3 -1.3 1-3.6 2.5-4.8 3.3 -18.3 11.8-37.1 14.7-50 15.1 -0.8 0-1.6 0-2.4 0 -8.6 0-15.5-1.1-19.5-1.9C389.7 320 390.1 328.1 388.9 334.9z" class="f"/><path d="M383.2 307.5c0.8 1.1 1.5 2.3 2.1 3.4 4 0.9 12.2 2.2 22.5 2 12.8-0.3 31.4-3.2 49.5-14.9 1.2-0.8 3.9-2.7 5.2-3.6 -0.4-6.5-1.5-12.7-2.9-18.2 -1.1-4.1-2.2-8.2-3.5-12.2 -16.9 14.5-36.4 17.9-51.1 17.9 -1.5 0-2.9 0-4.3-0.1 -14.2-0.6-25.2-4.2-28.1-5.2 0.7 10.8 3.4 20 7.9 27.8C381.3 305.2 382.2 306.2 383.2 307.5z" class="f"/><path d="M421.5 170.2c-6.5 3.1-16.5 6.6-29 6.6 -1 0-2 0-3-0.1 -0.2 0-0.4 0-0.6 0 -0.4 0-0.8 0-1.2-0.1 0.4 2.8 0.5 6.4 0.2 10.7 2.7 0.5 19.3 3.2 36-4.3C422.2 177.8 421.5 174.2 421.5 170.2z" class="f"/><path d="M416.1 274c-2.1 1.9-5 2.6-8.5 2.3 -1.6 2.1-3.8 3.3-6.3 3.5 -0.2 0-0.4 0-0.6 0 -2.5 0-5.1-1.1-7.1-3 -1.5 1.3-3.1 2-4.8 1.9 -3.9-0.1-7.5-3.9-10.1-6.6l-0.3-0.3c-1.6-1.7-1.5-3-1.1-3.8 0.9-1.9 4.2-2.6 7.2-2.6 -6.1-8-3.9-14-1.6-17.2 -3-0.4-5.8-1-8.4-1.7 -1.8 10.8-2.5 20.4-2 29 2.1 0.7 13.4 4.6 28.2 5.3 15 0.7 36.6-1.9 55-17.8 -2.6-8.3-5.5-16.4-8.5-24.1 -8.4 5.7-18.7 8-28.6 8.8 1.2 3.2 1.9 7 1.9 11.5C420.6 266.3 419.1 271.4 416.1 274z" class="f"/><path d="M329.2 356.8c-6.8 1.5-14.1 2.3-21.9 2.3 0 0 0 0 0 0 -11.1 0-22.6-1.6-34.3-4.8 13.6 7 36.8 11.8 62.3 13 0.8-0.4 1.7-0.8 2.5-1.1C333.2 363.1 329.9 358 329.2 356.8z" class="f"/><path d="M338.9 365.7c4.2-1.6 8.7-2.7 12.3-3.2 -0.6-0.5-1.5-1.1-2.6-2 -0.1 0-0.1-0.1-0.2-0.1l0 0c-1.9-1.6-4.2-4-6.6-7.1 -3.7 1.3-7.6 2.5-11.7 3.4C331.2 358.2 334.6 363 338.9 365.7z" class="f"/><path d="M429.7 197c-2.3-5.5-4.1-9.7-5.3-13.2 -9.5 4.3-18.8 5.2-25.9 5.2 -5.3 0-9.2-0.6-10.5-0.8 -0.6 7-2.3 16-5.8 27.6 4.3 0.4 31.7 2.2 52.9-6.4 -0.4-1-0.8-1.9-1.3-2.9C432.3 203.2 430.9 200 429.7 197z" class="f"/><path d="M335.2 367.3c-25.6-1.2-48.7-6-62.3-13 11.7 3.2 23.2 4.8 34.3 4.8 0 0 0 0 0 0 7.8 0 15.1-0.8 21.9-2.3 0.8 1.2 4.1 6.3 8.6 9.4 0.4-0.1 0.7-0.3 1.1-0.4 -4.3-2.7-7.7-7.5-8.7-9.1 4.1-0.9 8-2.1 11.7-3.4 -0.2-0.3-0.4-0.5-0.6-0.8 -9.9 3.6-21.3 5.7-34 5.7 0 0 0 0 0 0 -12.2 0-25-2-37.9-5.9 0 0 0 0 0 0l-3.2-1 -0.2-0.1 3 1.9c0.5 0.3 1.1 0.7 1.7 1 0 0 0 0 0 0 0.7 0.4 1.4 0.8 2.1 1.1 0 0 0 0 0.1 0 6.9 3.5 16.1 6.5 26.8 8.7 0.1 0 0.1 0 0.2 0 1.1 0.2 2.1 0.4 3.2 0.6 0.2 0 0.4 0.1 0.5 0.1 1.1 0.2 2.2 0.4 3.4 0.6 0.3 0 0.6 0.1 0.8 0.1 0.8 0.1 1.7 0.3 2.6 0.4 0.4 0.1 0.8 0.1 1.3 0.2 0.9 0.1 1.9 0.3 2.8 0.4 0.4 0.1 0.9 0.1 1.3 0.2 0.9 0.1 1.9 0.2 2.8 0.3 0.3 0 0.6 0.1 1 0.1 2.2 0.2 4.4 0.5 6.6 0.6 0 0 0.1 0 0.1 0 2.4 0.2 4.9 0.4 7.4 0.5C334 367.8 334.6 367.6 335.2 367.3z" class="g"/><path d="M433.7 354.6c0.3-0.1 0.5-0.3 0.8-0.4 0.6-0.3 1.2-0.7 1.8-1 0.5-0.3 1-0.6 1.6-1 0.4-0.2 0.7-0.4 1.1-0.7 0.1 0 0.1-0.1 0.2-0.1 0 0 0 0 0 0 2-1.8 3.9-3.6 5.7-5.4 21.9-22.9 20.9-50.4 15.8-70.1 -3.4-13-7.8-25.8-12.4-37.6l0 0 0 0c-4.6-11.9-9.4-22.9-13.4-32.1 -1.5-3.4-2.9-6.6-4.1-9.5 -5.5-12.9-7.7-18.8-8-24.9 -0.4 0-0.7 0-0.7 0s0.1-0.7 0.2-1.9c0 0 0 0-0.1 0 0 0 0.1-0.2 0.1-0.4 0-0.2 0-0.5 0.1-0.7 -0.1 0.1-0.3 0.1-0.5 0.2 -6.3 3.1-16.5 6.7-29.1 6.7 -3.1 0-6.3-0.2-9.4-0.7 -1.7-0.2-3.4-0.3-5.1-0.3 -16.2 0-29 9.3-38.4 16.2l-0.4 0.3c-2.6 2-5.6 3-8.8 3 -5.8 0-11.5-3.4-14.8-8.9 -1.5-2.6-1.8-5-0.9-6.6 0.7-1.2 2-1.8 3.6-1.8 0.1 0 0.3 0 0.4 0 6.7 0.4 13.1 4.1 15.7 7 0.2 0.2 0.4 0.5 0.7 0.9l0.2 0.2 0 0c0.6 0.8 1.3 1.9 1.5 2.9 0 0 0.2-1.5-0.8-3.3 2.2-1.4 5.8-3.3 9.9-5.5 7.3-3.9 16.3-8.7 24-13.9l1.2-0.9c12-9.1 24.4-18.5 25.5-26.5 -0.3-0.2-0.6-0.4-0.9-0.5 -0.3 3.3-2.7 6.9-6.4 10.7 -0.2 0.2-0.5 0.5-0.7 0.7 -0.6 0.6-1.2 1.1-1.8 1.7 -0.2 0.2-0.5 0.4-0.7 0.7 -1.7 1.6-3.7 3.2-5.7 4.8 -0.3 0.2-0.5 0.4-0.8 0.6 -1.4 1.1-2.9 2.3-4.4 3.4 -0.1 0.1-0.2 0.2-0.3 0.3 -0.6 0.5-1.3 1-1.9 1.5 -0.3 0.2-0.6 0.5-0.9 0.7 -0.2 0.1-0.4 0.3-0.6 0.4 -0.3 0.3-0.7 0.5-1 0.8l-1.2 0.9c-0.7 0.4-1.4 0.9-2 1.3 -0.3 0.2-0.5 0.4-0.8 0.5 -3.3 2.1-6.8 4.1-10.1 6 -0.3 0.2-0.6 0.4-0.9 0.5 -3.5 1.9-6.9 3.8-10 5.4 -4.1 2.2-7.6 4.1-9.9 5.5 -0.2-0.2-0.4-0.5-0.6-0.7 0 0 0 0-0.1-0.1l0 0c-1.1-1.2-2.8-2.4-4.8-3.5 -0.3-0.2-0.6-0.3-0.9-0.5 -2.8-1.4-6.1-2.6-9.6-2.9 -0.3 0-0.6-0.1-0.9-0.1 -0.3 0-0.6 0-0.8 0 0 0 0 0-0.1 0 0 0 0 0 0 0 -0.2 0-0.4 0-0.6 0.1 -0.1 0-0.1 0-0.2 0 -0.2 0-0.4 0.1-0.5 0.1 -0.1 0-0.1 0.1-0.2 0.1 -0.1 0.1-0.3 0.1-0.4 0.2 -0.1 0-0.2 0.1-0.2 0.1 -0.1 0.1-0.2 0.1-0.3 0.2 -0.1 0.1-0.2 0.1-0.3 0.2 -0.1 0.1-0.2 0.1-0.3 0.2 -0.1 0.1-0.2 0.2-0.2 0.2 -0.1 0.1-0.2 0.2-0.2 0.2 -0.1 0.1-0.1 0.2-0.2 0.3 -0.1 0.1-0.1 0.2-0.2 0.3 0 0 0 0 0 0.1 -0.1 0.1-0.1 0.2-0.2 0.3 -0.1 0.1-0.1 0.2-0.2 0.4 0 0.1-0.1 0.3-0.1 0.4 0 0.2-0.1 0.3-0.1 0.5 0 0.1 0 0.2 0 0.3 0 0.2 0 0.4-0.1 0.6 0 0.1 0 0.2 0 0.3 0 0.2 0 0.4 0 0.7 0 0.1 0 0.2 0 0.3 0 0.2 0.1 0.5 0.1 0.7 0 0.1 0.1 0.2 0.1 0.3 0.1 0.2 0.1 0.5 0.2 0.7 0.1 0.2 0.1 0.3 0.2 0.5 0.1 0.2 0.2 0.4 0.2 0.6 0.2 0.4 0.4 0.7 0.6 1.1 0.3 0.5 0.7 1 1 1.5 0.1 0.1 0.2 0.2 0.3 0.3 0.3 0.4 0.7 0.9 1.1 1.3 0.1 0.1 0.3 0.3 0.4 0.4 0.3 0.3 0.6 0.6 0.9 0.9 0.2 0.2 0.5 0.4 0.7 0.6 0.3 0.2 0.5 0.4 0.8 0.6 0.2 0.2 0.4 0.3 0.7 0.5 0.4 0.2 0.7 0.5 1.1 0.7 0.2 0.1 0.5 0.3 0.7 0.4 0.3 0.2 0.6 0.3 0.9 0.4 0.3 0.1 0.6 0.3 0.9 0.4 0.4 0.1 0.7 0.3 1.1 0.4 0.2 0.1 0.4 0.1 0.5 0.2 0.5 0.1 1 0.3 1.5 0.4 0.2 0 0.3 0.1 0.5 0.1 0.3 0.1 0.6 0.1 0.9 0.1 0.1 0 0.3 0 0.4 0 0.4 0 0.9 0.1 1.3 0.1 3.4 0 6.6-1.1 9.4-3.2l0.4-0.3c0.6-0.4 1.2-0.9 1.9-1.4 0.2-0.1 0.4-0.3 0.6-0.4 0.4-0.3 0.9-0.6 1.4-1 0.3-0.2 0.7-0.5 1-0.7 0.3-0.2 0.7-0.5 1-0.7 0.4-0.3 0.8-0.6 1.2-0.8 0.3-0.2 0.6-0.4 0.8-0.6 0.5-0.3 0.9-0.6 1.4-0.9 0.2-0.1 0.5-0.3 0.7-0.4 0.5-0.3 1.1-0.7 1.6-1 0.2-0.1 0.4-0.2 0.6-0.3 0.6-0.3 1.2-0.7 1.8-1 0.2-0.1 0.3-0.2 0.5-0.3 0.6-0.3 1.3-0.7 1.9-1 0.1-0.1 0.2-0.1 0.3-0.2 2.9-1.4 6.1-2.7 9.3-3.6 0.2-0.1 0.4-0.1 0.6-0.2 0.5-0.1 1.1-0.3 1.6-0.4 0.4-0.1 0.9-0.2 1.3-0.3 0.5-0.1 0.9-0.2 1.4-0.2 0.5-0.1 1-0.2 1.6-0.2 0.4-0.1 0.9-0.1 1.3-0.1 0.6-0.1 1.2-0.1 1.7-0.1 0.2 0 0.4 0 0.6 0 0.6 0 1.1-0.1 1.7-0.1 0.3 0 0.7 0 1 0 0.3 0 0.6 0 0.9 0 1 0 2 0.1 3 0.2 1 0.1 1.9 0.3 2.9 0.3 0.3 0 0.5 0 0.8 0.1 0.1 0 0.1 0 0.2 0 1 7.8 0.2 21.3-7.1 43.8 0.3 0.1 0.6 0.3 0.9 0.4 0.4-1.3 0.9-2.7 1.3-3.9 1.3 0.1 5.6 0.4 11.6 0.4 11.1 0 27.9-1.1 42-6.9 3.6 8.2 7.6 17.5 11.5 27.6 -8.2 5.5-18.4 8-28.6 8.8 0.1 0.3 0.2 0.6 0.3 0.9 9.9-0.8 20.2-3.1 28.6-8.8 3 7.7 5.9 15.8 8.5 24.1 -18.4 15.9-40.1 18.5-55 17.8 -14.9-0.7-26.2-4.5-28.2-5.3 -0.5-8.6 0.2-18.2 2-29 -0.3-0.1-0.6-0.2-0.9-0.2 -4.1 24-2.5 42.2 4.9 56.4 0.6 0.4 1.3 1 2 1.7 -4.5-7.8-7.2-17-7.9-27.8 2.9 1 13.9 4.6 28.1 5.2 1.4 0.1 2.8 0.1 4.3 0.1 14.7 0 34.2-3.5 51.1-17.9 1.2 4 2.4 8.1 3.5 12.2 1.4 5.5 2.6 11.7 2.9 18.2 -1.3 0.9-4 2.8-5.2 3.6 -18.1 11.7-36.7 14.6-49.5 14.9 -10.3 0.2-18.4-1.1-22.5-2 0.2 0.4 0.4 0.7 0.6 1.1 3.9 0.8 10.8 1.9 19.5 1.9 0.8 0 1.6 0 2.4 0 12.9-0.3 31.7-3.2 50-15.1 1.2-0.8 3.5-2.4 4.8-3.3 0.4 11-1.3 22.9-7.3 34.3 -16.8 11.2-38.1 10.9-52.5 8.4 -5.1-0.9-9.8-2-13.8-3.2 -0.1 0.3-0.1 0.6-0.2 0.9 4 1.2 8.7 2.3 13.8 3.2 5.1 0.9 10.9 1.5 17.1 1.5 11.3 0 23.8-2.2 34.8-9.2 -3.7 6.6-8.9 13.1-15.9 19.1 -13.2 8.8-29.9 13.5-48.4 13.6 0.2 0.3 0.5 0.6 0.7 1 2 0 3.9-0.1 5.8-0.2 0.1 0 0.1 0 0.2 0 1.1-0.1 2.2-0.2 3.3-0.3 0.3 0 0.6-0.1 1-0.1 0.8-0.1 1.7-0.2 2.5-0.3 0.5-0.1 1-0.1 1.5-0.2 0.6-0.1 1.3-0.2 1.9-0.3 0.6-0.1 1.2-0.2 1.8-0.3 0.5-0.1 1-0.2 1.5-0.3 0.7-0.1 1.4-0.3 2.1-0.5 0.4-0.1 0.8-0.2 1.1-0.3 0.8-0.2 1.5-0.4 2.2-0.6 0.3-0.1 0.6-0.2 0.9-0.3 0.8-0.2 1.6-0.5 2.4-0.7 0.2-0.1 0.5-0.2 0.7-0.2 0.8-0.3 1.6-0.5 2.4-0.8 0.2-0.1 0.4-0.1 0.6-0.2 0.8-0.3 1.6-0.6 2.4-0.9 0.2-0.1 0.4-0.2 0.6-0.2 0.8-0.3 1.6-0.7 2.4-1 0.2-0.1 0.4-0.2 0.6-0.3 0.8-0.4 1.5-0.7 2.3-1.1 0.2-0.1 0.5-0.2 0.7-0.3C432.2 355.4 433 355 433.7 354.6zM424 183c-16.7 7.6-33.3 4.9-36 4.3 0.3-4.4 0.2-7.9-0.2-10.7 0.4 0 0.8 0 1.2 0.1 0.2 0 0.4 0 0.6 0 1 0 2 0.1 3 0.1 12.5 0 22.5-3.5 29-6.6C421.5 174.2 422.2 177.8 424 183zM382.2 215.8c3.5-11.6 5.2-20.6 5.8-27.6 1.3 0.2 5.2 0.8 10.5 0.8 7.1 0 16.3-0.9 25.9-5.2 1.3 3.5 3 7.7 5.3 13.2 1.3 3 2.7 6.2 4.1 9.5 0.4 0.9 0.8 1.9 1.3 2.9C413.9 218.1 386.5 216.2 382.2 215.8z" class="g"/><path d="M390 364.2c-4.9-6.9-8.4-13.3-6.4-15.9 1.9-2.6 4-7.1 5-12.5 0.1-0.3 0.1-0.6 0.2-0.9 1.2-6.8 0.8-15-3.1-22.9 -0.2-0.4-0.4-0.7-0.6-1.1 -0.6-1.2-1.3-2.3-2.1-3.4 -0.9-1.3-1.9-2.3-2.7-3.1 -0.8-0.7-1.5-1.3-2-1.7 -0.7-0.5-1.2-0.8-1.2-0.8 17.2 16.7 11.1 38.5 5.7 45.9 -3.1 4 3.9 14.1 11.5 24 1.8 2.3 2.2 4.6 1.4 6.8 -2.8 7.2-18.8 11.6-24.2 12.6l-0.1 0c-1.6 0.6-15 2.8-31.6 2.3 -9.3 0.1-14.2-0.6-14.8-2 -0.3-0.7 0.7-1.8 1.8-2.9 0.2-0.2 5.9-4.6 21.8-7.1 0 0-9.8 0-22.2 6.3 -6-0.4-7.2-1.7-7.3-2.4 -0.3-1.4 2.2-3.7 6.3-5.9l0.3-0.2 0 0c1.3-0.7 7.7-4.1 18.2-6.1 0 0-8.3 0.3-18.2 5.2 0-1.4 0.4-2.8 1.5-4.2 4.4-5.8 17.4-10 25.2-10.8 3.5 2.6 6.8 5.2 7.9 7.2 0 0-1-2.7-7.5-8l-0.1-0.1c0 0-0.1 0-0.1 0 -0.4-0.3-0.7-0.6-1.1-0.9 -0.8-0.6-1.6-1.2-2.4-1.8 -4.3-3.7-11.5-11.5-15.1-24.6 -6.3-24.4 8.3-35.3 8.4-35.4 3.1-2.2 6.6-9.4 6.6-9.4 0 0.1-3 4.6-5.7 7.3 3.9-9.8 7.1-21.2 10.2-32.4 2.4-8.5 4.7-16.5 7.1-23.7 3 1.5 7.4 3.3 12.8 4.8 0.3 0.1 0.6 0.2 0.9 0.2 2.6 0.7 5.4 1.2 8.4 1.7 -2.3 3.3-4.5 9.3 1.6 17.2 -3-0.1-6.2 0.7-7.2 2.6 -0.4 0.8-0.5 2.1 1.1 3.8l0.3 0.3c2.6 2.8 6.2 6.6 10.1 6.6 1.7 0 3.3-0.6 4.8-1.9 2 1.9 4.6 3 7.1 3 0.2 0 0.4 0 0.6 0 2.5-0.2 4.7-1.4 6.3-3.5 3.6 0.4 6.4-0.4 8.5-2.3 3-2.7 4.5-7.7 4.5-14.9 0-4.5-0.7-8.3-1.9-11.5 -0.1-0.3-0.2-0.6-0.3-0.9 -2.4-5.5-6.6-8.9-12.9-10.5l-1.3-0.3c-6.2-1.5-6.2-1.5-9-3.6 -0.3-0.2-0.6-0.4-0.9-0.7 -1.3-1-2.6-2-4-2.9 -0.8-0.8-1.5-1.5-2.2-2.1 -2.8-2.8-4.6-4.5-7.4-6 -0.3-0.1-0.6-0.3-0.9-0.4 -1.5-0.7-3.3-1.3-5.7-2 3.7-3.5 2.4-12.5 2.4-12.5 0 0.1 0.3 9.6-3.7 12.3 -2.9 1.3-7.1 0.1-7.1 0.1 0 0 1.6 1.5 3.8 1.5 1.2 0 2.5-0.2 3.6-0.7 8 2.1 9.7 3.8 14.3 8.4 0.7 0.7 1.4 1.4 2.2 2.2l0.1 0.1c1.4 0.9 2.7 1.9 4 2.9l0 0c0.3 0.2 0.6 0.5 0.9 0.7 2.9 2.2 3 2.2 9.4 3.7l1.3 0.3c9.8 2.4 14.3 9.4 14.4 21.9 0 6.9-1.4 11.7-4.1 14.2 -1.8 1.6-4.3 2.3-7.4 2 5.4-10.6 1-18.2 1-18.2 0 0.1 3.4 7.9-2.2 18.4 -1.5 2-3.4 3.2-5.7 3.3 -2.4 0.2-5-0.9-7-2.7 7.7-7.9 2.1-16.5 2.1-16.5 0 0.1 4.7 8.7-3.1 16.2l0 0v0c-1.4 1.4-2.9 2-4.4 2 -3.5-0.1-6.9-3.7-9.4-6.3l-0.3-0.3c-1-1-1.3-2-0.9-2.7 0.7-1.4 3.8-2.3 7.3-2l1.1 0.1 -0.7-0.9c-6.5-7.9-4.4-13.8-2.2-16.9 0.6-0.8 2-2.4 4.6-3.6 0 0-2.6 0.5-4.5 2.2 -13.6-1.8-23.1-6.5-26.2-8.8 -3.4-2.4-7-9.6-5.8-21.7 2.8-23.5 15.9-29.2 20.2-31.1 0.4-0.2 0.7-0.3 1-0.4 2.6-1.4 3-3.5 3-3.5l0.1 4.3c0.8-4.6 1.2-7.9 1.4-10.3 0.6 0 1.2 0 1.8 0 -0.3 0-0.7 0-1 0 -0.6 0-1.2 0-1.7 0.1 -0.1 1.6-0.3 3.6-0.7 6.2 -0.4 0.6-1.2 1.4-3.2 2.4 -0.2 0.1-0.5 0.2-0.9 0.4 -4.4 1.9-17.9 7.8-20.8 31.9 -1.2 12.5 2.6 20 6.2 22.6 0.7 0.5 1.6 1.1 2.9 1.7 -2.5 7.2-4.8 15.3-7.2 23.9 -1.3 4.7-2.6 9.4-4 14.1 -0.1 0.4-0.2 0.7-0.3 1.1 -2 6.7-4.2 13.1-6.6 18.9 0 0 0 0 0 0 -0.1 0.1-0.4 0.3-0.8 0.6 -0.7 0.7-1.9 1.8-3.1 3.4 -0.2 0.3-0.5 0.7-0.7 1 -2 2.8-4 6.9-5 12.2 -1.6 2-3.4 3.9-5.4 5.7 -0.3 0.2-0.5 0.5-0.8 0.7 -1.7 1.5-3.5 2.8-5.5 4.1 -0.3 0.2-0.6 0.4-0.9 0.6 -4.7 2.9-10.1 5.2-15.8 6.7 -0.3 0.1-0.6 0.2-0.9 0.2 -0.5 0.1-0.9 0.2-1.4 0.4 -1.6 0.4-3.2 0.6-4.8 0.9 -0.4 0.1-0.8 0.1-1.1 0.2 -6.3 0.8-12.8 0.7-19.3-0.2 -0.3 0-0.7-0.1-1-0.1 -2.1-0.3-4.2-0.7-6.3-1.2 -0.4-0.1-0.7-0.2-1.1-0.3 -4.1-1-8.1-2.4-12.1-4 -0.3-0.1-0.6-0.2-0.9-0.4 -2.1-0.9-4.2-1.9-6.3-3 -0.4-0.3-0.9-0.4-1.4-0.2 -0.7 0.3-1.2 1.1-1.3 2.1 -0.2 2 0.7 9.5 20.5 22.8l3.2 1c0 0 0 0 0 0 -0.1 0-0.1-0.1-0.2-0.1 -22.4-14.3-22.7-22.1-22.6-23.5 0.1-0.8 0.4-1.2 0.7-1.4 0.2-0.1 0.3 0 0.4 0.1l0.1 0.1c17.6 9.2 36.7 12.1 53.8 8.3 12.4-2.8 23-9 30.3-17.5 -0.7 4.8-0.5 10.5 1.3 17.2 2 7.1 5 12.8 8.1 17 0.2 0.3 0.4 0.5 0.6 0.8 2.4 3.1 4.7 5.5 6.6 7.1l0 0c0.1 0 0.1 0.1 0.2 0.1 1 0.9 1.9 1.6 2.6 2 -3.6 0.5-8 1.6-12.3 3.2 -0.4 0.1-0.7 0.3-1.1 0.4 -0.9 0.3-1.7 0.7-2.5 1.1 -0.6 0.3-1.2 0.6-1.8 0.9 -3 1.6-5.5 3.4-7 5.4 -1.3 1.7-1.9 3.5-1.7 5.2 -2.4 1.3-7.1 4.2-6.5 6.8 0.4 1.7 2.7 2.7 7.3 3.1 -1 1.1-1.8 2.2-1.3 3.2 0.6 1.3 2.9 2.7 15.7 2.6 1.6 0 3.1 0.1 4.6 0.1 14.4 0 25.6-1.9 27.3-2.5 6-1.1 21.9-5.5 24.8-13.1 1-2.5 0.5-5.1-1.5-7.7 -1.5-2-3-4-4.4-6C390.5 364.9 390.2 364.6 390 364.2z" class="e"/><path d="M368.5 148c-0.9 0.1-1.8 0.2-2.6 0.2 -2.8 0-4.9-0.8-7-1.7 -0.2 1-0.5 2-0.9 3 2-0.6 4.1-1 6.3-1 2.4 0 4.8 0.4 7.5 1.1 0.2-0.1 0.5-0.2 0.7-0.2 0.2-0.1 0.5-0.2 0.7-0.3 0.1 0 0.2-0.1 0.2-0.1l0 0c1.7-0.6 3.8-1.2 6-1.6 0 0 0.1-0.1 0.1-0.1 0.5-0.6 1.1-0.8 1.8-0.8 0.5 0 1.1 0.2 1.7 0.5 0.4 0 0.9-0.1 1.3-0.1 2.1 0 3.8 0.4 5.1 1.1 3.7-3.8 6.1-7.4 6.4-10.7 -0.6-0.3-1.1-0.6-1.6-0.8C390.5 139.4 378.6 146.4 368.5 148z" class="h"/><path d="M331.2 167.9c-4.4 3.8-9.2 6.9-11.5 8.2 3.5 0.4 6.8 1.5 9.6 2.9 0.7-2.3 1.8-4.9 3.6-7.9C332.4 170.2 331.7 169.1 331.2 167.9z" class="i"/><path d="M349.4 154.1c-0.6-0.6-1.2-1.4-1.7-2.4 -1.3 1.3-2.8 2.7-4.2 4.1 -1.7 1.6-3.5 3.3-5.2 5 0.7 0.4 1.3 0.9 1.9 1.3 0.3-0.3 0.6-0.6 0.9-0.9C343.9 158.4 346.7 156 349.4 154.1z" class="i"/><path d="M318 176c0.3 0 0.5 0 0.8 0 0.3 0 0.6 0.1 0.9 0.1 2.3-1.4 7-4.4 11.5-8.2 -0.1-0.3-0.3-0.6-0.4-0.9 -5.7 5-12.1 8.6-12.8 9.1C318 176 318 176 318 176z" class="j"/><path d="M338.3 160.8c1.7-1.7 3.4-3.4 5.2-5 1.5-1.4 2.9-2.7 4.2-4.1 -0.2-0.3-0.3-0.6-0.5-0.9 -1.4 1.4-2.9 2.8-4.4 4.2 -1.8 1.7-3.6 3.5-5.4 5.2C337.7 160.4 338 160.6 338.3 160.8z" class="j"/><path d="M333 159.7c-0.8 0-1.4 0.3-1.9 0.8 -1.5 1.9 0.5 6.5 2.4 9.7 1.5-2.3 3.5-4.8 6-7.5C337.8 161.5 335 159.7 333 159.7z" class="k"/><path d="M331.2 167.9c0.6 1.2 1.2 2.4 1.7 3.3 0.2-0.3 0.4-0.6 0.6-0.9 -1.8-3.2-3.9-7.8-2.4-9.7 0.4-0.6 1.1-0.8 1.9-0.8 2.1 0 4.8 1.7 6.5 3.1 0.2-0.2 0.4-0.5 0.7-0.7 -0.5-0.4-1.2-0.9-1.9-1.3 -0.3-0.2-0.6-0.3-0.8-0.5 -1.4-0.8-3-1.5-4.4-1.5 -1.1 0-2 0.4-2.6 1.2 -1.3 1.6-0.7 4.4 0.4 7C330.9 167.3 331 167.6 331.2 167.9z" class="l"/><path d="M387 150.5c0.6-0.6 1.2-1.1 1.8-1.7 -1.2-0.5-2.6-0.8-4.3-0.8C385.3 148.6 386.2 149.5 387 150.5z" class="m"/><path d="M378.9 148.6c-2.1 0.4-4 1-5.5 1.6 -0.1 0-0.3 0.1-0.4 0.2 -0.3 0.1-0.7 0.2-1 0.4l-0.1 0.1 0 0c-14.5 5.3-20.5 13.7-20.6 13.8 0 0 5.1-8.8 19-14.3 -2.1-0.5-4-0.8-5.9-0.8 -2.4 0-4.6 0.4-6.8 1.2 -1 2.3-2.5 4.2-4.5 4.6 -0.3 0.1-0.5 0.1-0.8 0.1l0 0c-0.8 0-1.5-0.3-2.1-0.7 -2.7 1.9-5.5 4.4-8.4 7.2 -7.1 7.1-10.2 13.1-11.5 17.6 2 1.1 3.7 2.4 4.8 3.5l0 0c0 0 0 0 0.1 0.1 0.2 0.2 0.5 0.5 0.6 0.7 2.3-1.4 5.8-3.3 9.9-5.5 3.1-1.7 6.5-3.5 10-5.4 -0.2-4.1 0.3-8.8 3.1-10.5 0.6-0.4 1.3-0.6 2-0.6 2.3 0 4.8 1.9 6.8 4 0.7-0.4 1.4-0.9 2-1.3l1.2-0.9c0.3-0.3 0.7-0.5 1-0.8 0.2-0.1 0.4-0.3 0.6-0.4 0.3-0.2 0.6-0.5 0.9-0.7 0.6-0.5 1.3-1 1.9-1.5 0.1-0.1 0.2-0.2 0.3-0.3 1.5-1.1 2.9-2.3 4.4-3.4C378.8 153.5 378.3 150.6 378.9 148.6z" class="m"/><path d="M383.1 147c0.4 0.2 0.9 0.5 1.4 0.9 1.7 0 3.2 0.3 4.4 0.8 0.2-0.2 0.5-0.5 0.7-0.7 -1.4-0.7-3.1-1.1-5.1-1.1C383.9 147 383.5 147 383.1 147z" class="n"/><path d="M370.2 150.3c-13.9 5.5-19 14.3-19 14.3 0.1-0.1 6-8.6 20.6-13.8l0 0 0.1-0.1c0.3-0.1 0.6-0.2 1-0.4 0.1 0 0.3-0.1 0.4-0.1 1.5-0.5 3.5-1.1 5.5-1.6 0.1-0.4 0.3-0.8 0.6-1.1 -2.2 0.4-4.3 1.1-6 1.6l0 0c-0.1 0-0.2 0.1-0.2 0.1 -0.3 0.1-0.5 0.2-0.7 0.3 -0.2 0.1-0.5 0.2-0.7 0.2 -2.6-0.8-5.1-1.1-7.5-1.1 -2.2 0-4.3 0.3-6.3 1 -0.1 0.4-0.3 0.8-0.5 1.2 2.2-0.8 4.4-1.2 6.8-1.2C366.2 149.5 368.2 149.8 370.2 150.3z" class="n"/><path d="M341.7 161.9c3-2.8 5.7-5.2 8.4-7.2 -0.3-0.2-0.5-0.4-0.7-0.6 -2.7 1.9-5.4 4.3-8.4 7.1 -0.3 0.3-0.6 0.6-0.9 0.9 -0.2 0.2-0.4 0.5-0.7 0.7 -2.5 2.7-4.5 5.2-6 7.5 -0.2 0.3-0.4 0.6-0.6 0.9 -1.8 2.9-2.9 5.6-3.6 7.9 0.3 0.1 0.6 0.3 0.9 0.5C331.4 175 334.6 169 341.7 161.9z" class="n"/><path d="M360.7 162.7c-0.6 0-1 0.1-1.5 0.4 -2.3 1.4-2.7 5.6-2.6 9.2 3.4-1.9 6.9-3.9 10.1-6C364.9 164.5 362.6 162.7 360.7 162.7z" class="k"/><path d="M360.7 161.8c-0.7 0-1.4 0.2-2 0.6 -2.8 1.7-3.3 6.4-3.1 10.5 0.3-0.2 0.6-0.3 0.9-0.5 -0.1-3.6 0.3-7.8 2.6-9.2 0.5-0.3 1-0.4 1.5-0.4 2 0 4.2 1.7 6 3.6 0.3-0.2 0.5-0.4 0.8-0.5C365.5 163.7 363 161.8 360.7 161.8z" class="l"/><path d="M381.3 147.5c-0.4 0-0.8 0.2-1.1 0.5 -1 1.2-0.9 4 0.3 7.9 2-1.6 3.9-3.2 5.7-4.8C384.3 148.8 382.5 147.5 381.3 147.5z" class="k"/><path d="M384.4 147.9c-0.5-0.4-0.9-0.7-1.4-0.9 -0.6-0.3-1.2-0.5-1.7-0.5 -0.7 0-1.3 0.3-1.8 0.8 0 0-0.1 0.1-0.1 0.1 -0.2 0.3-0.4 0.7-0.6 1.1 -0.6 2-0.1 5 0.9 8 0.3-0.2 0.5-0.4 0.8-0.6 -1.2-3.9-1.4-6.7-0.3-7.9 0.3-0.3 0.6-0.5 1.1-0.5 1.2 0 2.9 1.3 4.9 3.6 0.2-0.2 0.5-0.4 0.7-0.6C386.2 149.5 385.3 148.6 384.4 147.9z" class="l"/><path d="M405.7 84.4c-2.1-4.2-5.4-6.9-9.1-7.3l-0.1 0c-0.9-0.1-1.8-0.1-2.7 0.1 -6.8 1.1-12.7 9-14 18.8 -0.7 5.5 0 10.9 2.2 15.2 2.1 4.2 5.4 6.9 9.1 7.3l0.1 0c0.9 0.1 1.8 0.1 2.7-0.1 6.8-1.1 12.7-9 14-18.8C408.6 94.1 407.9 88.7 405.7 84.4zM402.4 104c-1.6 7.7-7.1 12.8-12.3 11.3 -5.2-1.4-8.1-8.9-6.5-16.6 1.6-7.7 7.1-12.8 12.3-11.3C401 88.9 404 96.3 402.4 104z" class="a"/><path d="M361.1 80.2c-1.3-3.7-3.6-6-6.3-6.5l-0.1 0c-0.7-0.1-1.3-0.1-2 0 -1.1 0.2-2.2 0.7-3.3 1.4 -0.1 2.4 0 5.1 0.2 8.1 1.3-0.8 2.7-1 4.1-0.5 3.8 1.3 5.5 7.8 3.9 14.4 -0.5 2-1.2 3.8-2.1 5.3 1.1 0 2.1 0.1 3.1 0.3 1.5-2.6 2.7-5.8 3.4-9.3C362.8 88.6 362.5 83.9 361.1 80.2z" class="a"/><path d="M366.8 177.3c-0.2 0.1-0.4 0.1-0.6 0.2C366.5 177.4 366.7 177.3 366.8 177.3z" class="e"/><path d="M356.9 181.1c-0.1 0.1-0.2 0.1-0.3 0.2C356.7 181.2 356.8 181.1 356.9 181.1z" class="e"/><path d="M348.1 186.2c-0.3 0.2-0.6 0.4-0.8 0.6C347.6 186.6 347.8 186.4 348.1 186.2z" class="e"/><path d="M350.3 184.8c-0.2 0.1-0.5 0.3-0.7 0.4C349.8 185.1 350 185 350.3 184.8z" class="e"/><path d="M354.7 182.3c-0.2 0.1-0.3 0.2-0.5 0.3C354.4 182.4 354.5 182.3 354.7 182.3z" class="e"/><path d="M348.7 83.8c0.3-0.2 0.6-0.4 0.9-0.6 -0.2-3-0.3-5.7-0.2-8.1 -0.3 0.2-0.6 0.5-1 0.7C348.4 78.2 348.5 80.9 348.7 83.8z" class="a"/><path d="M352.4 183.5c-0.2 0.1-0.4 0.2-0.6 0.3C352 183.7 352.2 183.6 352.4 183.5z" class="e"/><path d="M313.4 179.8c0-0.2 0.1-0.3 0.1-0.5C313.4 179.5 313.4 179.7 313.4 179.8z" class="e"/><path d="M339.8 192l0.4-0.3c0.6-0.4 1.2-0.9 1.9-1.4 -0.6 0.5-1.3 0.9-1.9 1.4L339.8 192z" class="e"/><path d="M313.6 179c0-0.1 0.1-0.3 0.2-0.4C313.7 178.7 313.6 178.9 313.6 179z" class="e"/><path d="M369.8 176.6c-0.4 0.1-0.9 0.2-1.3 0.3C368.9 176.8 369.3 176.7 369.8 176.6z" class="e"/><path d="M314.4 177.7c0.1-0.1 0.1-0.2 0.2-0.2C314.5 177.5 314.4 177.6 314.4 177.7z" class="e"/><path d="M316.1 187.7c-0.1-0.1-0.2-0.2-0.3-0.3C315.9 187.5 316 187.6 316.1 187.7z" class="e"/><path d="M314 178.2c0 0 0 0 0 0.1 0.1-0.1 0.1-0.2 0.2-0.3C314.1 178 314 178.1 314 178.2z" class="e"/><path d="M314.8 177.2c0.1-0.1 0.2-0.1 0.3-0.2C315 177 314.9 177.1 314.8 177.2z" class="e"/><path d="M317.3 176.1c0.2 0 0.4-0.1 0.6-0.1C317.7 176 317.5 176 317.3 176.1z" class="e"/><path d="M375.8 175.8c-0.6 0-1.2 0.1-1.7 0.1C374.7 175.9 375.2 175.9 375.8 175.8z" class="e"/><path d="M372.7 176.1c-0.5 0.1-1.1 0.2-1.6 0.2C371.7 176.3 372.2 176.2 372.7 176.1z" class="e"/><path d="M315.3 176.8c0.1-0.1 0.2-0.1 0.3-0.2C315.6 176.7 315.4 176.7 315.3 176.8z" class="e"/><path d="M316.6 176.2c0.2 0 0.3-0.1 0.5-0.1C316.9 176.1 316.7 176.2 316.6 176.2z" class="e"/><path d="M315.9 176.5c0.1-0.1 0.3-0.1 0.4-0.2C316.2 176.4 316.1 176.4 315.9 176.5z" class="e"/><path d="M313.3 181.7c0-0.2 0-0.4 0-0.7C313.3 181.3 313.3 181.5 313.3 181.7z" class="e"/><path d="M322.4 193.1c-0.2-0.1-0.5-0.3-0.7-0.4C321.9 192.9 322.2 193 322.4 193.1z" class="e"/><path d="M313.5 182.7c-0.1-0.2-0.1-0.5-0.1-0.7C313.4 182.2 313.4 182.5 313.5 182.7z" class="e"/><path d="M325.8 194.5c-0.2-0.1-0.4-0.1-0.5-0.2C325.4 194.4 325.6 194.5 325.8 194.5z" class="e"/><path d="M349.5 73.2c0.5-6.3 2.1-10.3 5-12.5 4-3 10.6-2.6 20.1 1.3 -2 3.3-1.3 8-1.3 8 0-0.1 0-4.8 2.4-7.9l0 0c0.3-0.3 0.6-0.6 0.9-1 0 0 0 0 0 0l0 0c4.9-4.9 13-9.3 20.4-8 5.9 1.1 10.4 5.5 13.4 13.1l0.1 0.3 0 0c1.2 3 1 5.8 1 5.8 0 0 0.9-2.7 0-5.8 11.4 0.4 36.2 5.5 37.7 42.9 0.4 22.5-7.2 40-12.3 49.2l0 0c0 0 0 0 0 0.1 -0.3 0.5-0.6 1-0.8 1.5 -1 1.8-2.5 4.8-3.3 7.3 -1.7 9.7 4.3 21.9 4.3 21.9 -0.7-2.5-1.4-4.8-2-7 2.4 0.5 5.4 0.8 8.4 0.8 2.6 0 5-0.3 7.1-0.9 -3.8 3.5-4.7 8-4.7 8 0-0.1 2.2-6.7 8.9-9.7 4.6-2.2 11.4-5 17.5-6.9 -0.4-0.2-0.8-0.3-1.3-0.6 -5.8 1.9-12 4.5-16.4 6.5l0 0c0 0-0.1 0-0.1 0.1 -0.7 0.3-1.4 0.7-2 1 -2.5 1-5.5 1.5-8.9 1.5 -3.2 0-6.2-0.4-8.7-0.9 -1.2-5-1.8-9.2-1.5-12.6 0-0.4 0.1-0.8 0.1-1.1 0.2-1 0.4-1.9 0.8-2.7 2.1-3.1 5.6-8.7 8.8-16.7 0.1-0.3 0.3-0.7 0.4-1 1.4-3.6 2.8-7.7 3.9-12.2 0.1-0.4 0.2-0.7 0.3-1.1 1.6-6.8 2.6-14.6 2.6-23.2 0-0.4 0-0.7 0-1.1 0-0.1 0-0.2 0-0.3 -0.1-2.1-0.3-4.1-0.5-6.1 0-0.4-0.1-0.8-0.2-1.2 -1.3-9.7-4.4-16.8-8.3-22.1 -0.2-0.3-0.4-0.6-0.7-0.9 -1.4-1.8-3-3.4-4.6-4.8 -0.3-0.3-0.6-0.5-0.9-0.7 -8.3-6.5-18-7.9-23.8-8 -0.1-0.1-0.1-0.3-0.2-0.4l0 0c-0.1-0.3-0.2-0.6-0.4-0.9 -0.1-0.3-0.3-0.6-0.4-0.9 -3.1-6.4-7.5-10.2-13-11.2 -7.7-1.4-16.1 3.1-21.2 8.2v0c-0.3 0.3-0.6 0.5-0.8 0.8 0 0 0 0 0 0 -10-4.1-16.9-4.5-21.2-1.3 -3.3 2.5-5 7-5.4 14.1C348.8 73.7 349.2 73.4 349.5 73.2z" class="e"/><path d="M327.5 195c0.1 0 0.2 0 0.3 0 -0.2 0-0.3-0.1-0.5-0.1C327.3 194.9 327.4 194.9 327.5 195z" class="e"/><path d="M324.2 194c-0.3-0.1-0.6-0.2-0.9-0.4C323.6 193.7 323.9 193.8 324.2 194z" class="e"/><path d="M317.6 189.4c-0.1-0.1-0.3-0.3-0.4-0.4C317.3 189.2 317.4 189.3 317.6 189.4z" class="e"/><path d="M314.2 184.8c-0.1-0.2-0.2-0.4-0.2-0.6C314.1 184.4 314.1 184.6 314.2 184.8z" class="e"/><path d="M320.6 192c-0.2-0.2-0.4-0.3-0.7-0.5C320.2 191.7 320.4 191.9 320.6 192z" class="e"/><path d="M313.8 183.7c-0.1-0.2-0.2-0.5-0.2-0.7C313.6 183.2 313.7 183.5 313.8 183.7z" class="e"/><path d="M319.2 190.9c-0.2-0.2-0.5-0.4-0.7-0.6C318.7 190.5 318.9 190.7 319.2 190.9z" class="e"/><path d="M344.1 189c-0.5 0.3-0.9 0.6-1.4 1C343.2 189.6 343.6 189.3 344.1 189z" class="e"/><path d="M329.1 195.2c-0.1 0-0.3 0-0.4 0C328.8 195.1 328.9 195.2 329.1 195.2z" class="e"/><path d="M313.3 180.7c0-0.2 0-0.4 0.1-0.6C313.3 180.4 313.3 180.6 313.3 180.7z" class="e"/><path d="M346.1 187.6c-0.3 0.2-0.7 0.5-1 0.7C345.4 188 345.7 187.8 346.1 187.6z" class="e"/><path d="M380.1 175.8c1 0 2 0.1 3 0.2C382.1 175.9 381.1 175.8 380.1 175.8z" class="e"/><path d="M386 176.4c0.3 0 0.5 0 0.8 0.1C386.5 176.4 386.2 176.4 386 176.4z" class="e"/><path d="M389.1 176.6c0.2 0 0.4 0 0.6 0C389.4 176.6 389.2 176.6 389.1 176.6z" class="e"/><path d="M422 169.9c0 0 0 0 0.1 0 0-0.1 0-0.2 0-0.3C422 169.8 422 169.9 422 169.9z" class="e"/><path d="M318 176c0.3 0 0.5 0 0.8 0C318.6 176 318.3 176 318 176z" class="e"/><path d="M369.5 164.5l1.2-0.9c0.3-0.3 0.7-0.5 1-0.8 -0.3 0.3-0.7 0.5-1 0.8L369.5 164.5z" class="e"/><path d="M373.2 161.7c-0.3 0.2-0.6 0.5-0.9 0.7C372.6 162.2 372.9 161.9 373.2 161.7z" class="e"/><path d="M375.5 160c-0.1 0.1-0.2 0.2-0.3 0.3C375.2 160.1 375.4 160.1 375.5 160z" class="e"/><path d="M423 160.3c-0.5-17.1-17-19.1-19.4-18 -0.1-0.1-0.1-0.2-0.2-0.4 -0.1 0.2-0.2 0.4-0.2 0.5 0 0.1 0.1 0.2 0.1 0.2 -0.1-0.1-0.2-0.2-0.3-0.3 0.2 0.4 0.3 0.7 0.3 0.7 -2.2-2.3-4.4-4-6.5-5.2 -1.1 8-13.4 17.4-25.5 26.5l-1.2 0.9c-7.8 5.2-16.8 10-24 13.9 -4.1 2.2-7.6 4.1-9.9 5.5 1 1.8 0.8 3.3 0.8 3.3 -0.2-0.9-0.9-2-1.5-2.9l0 0 -0.2-0.2c-0.3-0.4-0.6-0.7-0.7-0.9 -2.6-2.8-9.1-6.5-15.7-7 -0.1 0-0.3 0-0.4 0 -1.6 0-2.9 0.6-3.6 1.8 -0.9 1.6-0.6 4.1 0.9 6.6 3.4 5.5 9.1 8.9 14.8 8.9 3.2 0 6.2-1 8.8-3l0.4-0.3c9.4-6.8 22.2-16.2 38.4-16.2 1.7 0 3.4 0.1 5.1 0.3 3.1 0.5 6.3 0.7 9.4 0.7 12.6 0 22.7-3.6 29.1-6.7 0.2-0.1 0.4-0.2 0.5-0.2C422.3 166.5 422.7 163.2 423 160.3z" class="f"/><path d="M343.4 105.6c-0.5-0.8-1-1.7-1.4-2.8 -1.3-3.7-1.6-8.4-0.8-13.1 1.1-6 3.8-11.1 7.1-13.8 0.3-0.3 0.6-0.5 1-0.7 1.1-0.7 2.2-1.2 3.3-1.4 0.7-0.1 1.4-0.1 2 0l0.1 0c2.7 0.5 5 2.8 6.3 6.5 1.3 3.7 1.6 8.4 0.8 13.1 -0.6 3.5-1.8 6.7-3.4 9.3 0.2 0 0.4 0.1 0.6 0.1 1.5-2.6 2.7-5.8 3.3-9.3 1.1-6.1 0.8-13-1.6-17 -1.4-2.4-3.3-4.8-5.5-5.2l-0.1 0c-1.9-0.3-3.9 0.4-5.8 1.9 -0.3 0.3-0.7 0.6-1 0.9 -3.6 3.4-6.6 9.3-7.8 15.6 -1.1 6.1-0.4 12.1 1.9 16.1 0.1 0.1 0.1 0.2 0.2 0.3C343 105.8 343.2 105.7 343.4 105.6z"/><path d="M353.7 82.7c-1.3-0.5-2.7-0.2-4.1 0.6 -0.3 0.2-0.6 0.4-0.9 0.6 -2.1 1.7-3.9 4.6-4.8 8.4 -1.2 4.9-0.6 9.7 1.4 12.4 0.1 0 0.2-0.1 0.3-0.1 -1.9-2.6-2.6-7.3-1.4-12.1 1.6-6.4 5.8-10.5 9.5-9.3 3.7 1.3 5.3 7.5 3.8 13.9 -0.5 2-1.3 3.8-2.2 5.3 0.1 0 0.2 0 0.2 0 0.9-1.5 1.7-3.3 2.1-5.3C359.2 90.4 357.4 84 353.7 82.7z" class="o"/><path d="M353.6 83.1c-3.7-1.3-7.9 2.9-9.5 9.3 -1.2 4.8-0.5 9.5 1.4 12.1 1-0.5 2.1-0.9 3-1.2 -2.1-0.9-3.3-4.7-2.5-8.8 0.8-4.5 3.5-7.9 6.1-7.4 2.5 0.4 3.9 4.5 3.1 9 -0.5 2.8-1.8 5.2-3.2 6.4 1.1-0.2 2.1-0.2 3.1-0.2 0.9-1.5 1.7-3.3 2.2-5.3C358.9 90.6 357.3 84.4 353.6 83.1z" class="p"/><path d="M355.3 96.1c0.8-4.5-0.6-8.6-3.1-9 -2.5-0.4-5.3 2.9-6.1 7.4 -0.8 4.2 0.4 7.9 2.5 8.8 1.2-0.4 2.3-0.6 3.4-0.8C353.5 101.3 354.8 98.9 355.3 96.1z"/><path d="M286.4 96.7c0.6-0.5 1.3-1 1.9-1.4 -1-0.4-2.3-0.8-3.8-0.8 -2.3 0-4.3 1-5.8 3 -2.2 3-2.6 6.4-2.6 8.7C279.4 102.8 283.1 99.2 286.4 96.7z" class="b"/><path d="M296.7 151.3c0.1 0 0.2 0 0.2 0 0 0 0 0 0 0 2.9 0 5.4-4.5 7.5-8.5 0.3-0.5 0.6-1.1 0.9-1.6 -5.1 0.5-9.9 0.2-14.1-0.9C291.9 144.9 293.4 151 296.7 151.3z" class="k"/><path d="M305.4 141.2c-0.3 0.5-0.6 1-0.9 1.6 -2.2 4-4.6 8.5-7.5 8.5 0 0 0 0 0 0 -0.1 0-0.2 0-0.2 0 -3.3-0.3-4.8-6.4-5.4-10.9 -0.3-0.1-0.7-0.2-1-0.3 0.5 4.3 2.1 11.8 6.4 12.2 0.1 0 0.2 0 0.3 0 0 0 0 0 0 0 3.5 0 6-4.6 8.4-9 0.4-0.8 0.8-1.5 1.2-2.2C306.1 141.2 305.7 141.2 305.4 141.2z" class="l"/><path d="M326.2 154.4l0 0c1.3 0 3.1-1.8 4.8-4.8 0.7-1.3 1.3-2.6 1.8-3.7 -2.9-0.5-5.7-1.5-8.5-2.5 -1.6-0.6-3.2-1.1-4.8-1.6 1.1 1.9 1.9 4.1 2.7 6.2C323.5 151.2 324.7 154.3 326.2 154.4z" class="k"/><path d="M332.8 145.9c-0.4 1.1-1.1 2.4-1.8 3.7 -1.7 3-3.5 4.8-4.8 4.8l0 0c-1.5-0.1-2.7-3.2-4-6.4 -0.8-2-1.6-4.3-2.7-6.2 -0.4-0.1-0.9-0.2-1.3-0.4 1.3 2 2.3 4.6 3.2 6.9 1.4 3.7 2.7 7 4.8 7.1l0.1 0c2.1 0 4.2-2.9 5.6-5.3 0.8-1.3 1.4-2.8 1.9-4C333.5 146 333.1 145.9 332.8 145.9z" class="l"/><path d="M345.3 144.7c0.4 0.7 0.7 1.5 1 2.2 1.8 3.9 3.4 7.5 5.8 7.5l0 0c0.2 0 0.4 0 0.6-0.1 2.7-0.6 4.5-4.8 5.2-8.3C354.8 144.8 351.4 143.5 345.3 144.7z" class="k"/><path d="M347.6 151.7c0.5 0.9 1.1 1.8 1.7 2.4 0.2 0.2 0.5 0.5 0.7 0.6 0.6 0.5 1.3 0.7 2.1 0.7l0 0c0.3 0 0.5 0 0.8-0.1 2-0.4 3.5-2.4 4.5-4.6 0.2-0.4 0.3-0.8 0.5-1.2 0.4-1 0.7-2.1 0.9-3 -0.2-0.1-0.4-0.2-0.6-0.2 -0.1 0-0.2-0.1-0.3-0.1 -0.8 3.5-2.6 7.7-5.2 8.3 -0.2 0-0.4 0.1-0.6 0.1l0 0c-2.4 0-4.1-3.7-5.8-7.5 -0.3-0.7-0.7-1.5-1-2.2 -0.3 0.1-0.6 0.1-1 0.2 0.4 0.8 0.8 1.6 1.1 2.4 0.5 1.2 1.1 2.4 1.6 3.5C347.3 151.1 347.5 151.4 347.6 151.7z" class="l"/><path d="M283.7 137.2c-0.3 0.5-0.6 1-1 1.7 -1.4 2.5-3.4 5.9-5.5 5.5 -6.2-2.6-4.7-12.7-3.6-17.2 -0.2-0.4-0.5-0.8-0.7-1.2 -1.1 4.1-3.5 16.3 4 19.3l0.1 0c0.2 0.1 0.4 0.1 0.7 0.1h0c0.6 0 1.2-0.2 1.7-0.5 2.1-0.6 3.7-3.5 5-5.8 0.2-0.4 0.4-0.8 0.7-1.1C284.5 137.7 284.1 137.4 283.7 137.2z" class="l"/><path d="M277.2 144.4c2.1 0.5 4.1-3 5.5-5.5 0.4-0.7 0.7-1.3 1-1.7 -2.2-1.3-4.1-2.8-6-4.7 -1.7-1.7-3.1-3.6-4.2-5.4C272.5 131.7 270.9 141.8 277.2 144.4z" class="k"/><path d="M348.4 109.3l0.1 0c0.7 0.1 1.3 0.1 2 0 1.9-0.3 3.7-1.4 5.3-3.1 -0.5-0.7-1.1-1.5-1.6-2.3 -1.9 2.3-4.3 3.4-6.5 2.7 -0.7-0.2-1.3-0.7-1.9-1.3 -0.7 0.3-1.3 0.7-2 1.1C345.2 108 346.7 109 348.4 109.3z" class="b"/><path d="M382.4 125.2c-8.6-4.2-19.3-9.5-26.2-18.5 -2.4 2.5-5.2 3.8-7.8 3.3h0l-0.1 0c-1.9-0.3-3.5-1.5-4.8-3.3 -1.2 0.7-2.4 1.6-3.6 2.6 9.8 3.7 10 7.2 10 7.2 -2-3.7-8.6-6-11.5-6.8 -6.7-1.9-10.9-1.4-15.1 0 2.2 4.8 2.6 9.6 2.6 9.6 -0.3-3.8-3.9-10.2-4.5-11.1 -3.1-4.7-10.5-12.7-19.4-14.5 -4-0.8-7.9-0.2-11.5 1.7 0.2 0.1 0.3 0.2 0.4 0.2l0.5 0.3 -0.4 0.4c-0.1 0.1-9.2 9.1-14.3 13.5l-0.6 0.5 -0.2-0.7c0-0.1-0.1-0.4-0.2-0.9 -3.3 3.9-5.5 7.4-5.2 8.8 0.3 1.1 1.1 4 2.9 7.3 0 0 0 0 0-0.1l0.2-0.7 0.6 0.5c0 0 0 0 0 0 0 0 0-0.1 0-0.1l0.2-0.7 0.6 0.5c0.1 0.1 6.3 6 11.3 11.5l0.4 0.5 -0.6 0.3c-0.2 0.1-0.4 0.3-0.6 0.6 1.5 0.8 3.1 1.4 4.7 2 -0.1-1-0.1-1.8-0.2-1.9l0-0.5h0.5c0.1 0 9.9 0 16.8 2l0.6 0.2 -0.3 0.5c-0.1 0.2-0.3 0.4-0.4 0.7 0.8-0.1 1.5-0.2 2.3-0.4 2.7-0.4 5.3-0.1 7.9 0.5 -0.2-0.2-0.3-0.4-0.5-0.6l-0.9-0.9 1.3 0.1c4.7 0.5 12.1 2.4 17 4l0.3 0.1v0.3c0 0.4-0.2 1.1-0.4 1.9 2.5 0.4 5 0.3 7.5-0.4 0.8-0.2 1.6-0.4 2.3-0.6 -0.3-0.5-0.5-1-0.8-1.4l-0.3-0.6 0.7-0.1c0.6-0.1 1.3-0.3 1.9-0.4 2.2-0.5 4.1-0.9 6.4-0.9 1 0 2.1 0.1 3.2 0.3l0-0.1 0.3 0c14.2-0.1 24.7-3.1 32.3-5.4 0.6-0.2 1.2-0.4 1.8-0.5 -3.7-0.8-6.3-0.3-6.3-0.2 0 0 0.8-0.3 2.3-0.5 -1.3 0-2.1 0.2-2.1 0.2 0 0 3.7-3.2 8.4-4.2C389.3 128.6 386 126.9 382.4 125.2zM303.9 120.4c-0.5 1.4-1.7 2.4-3.1 2.8 -0.6 0.3-1.2 0.4-1.9 0.4 -1.3 0-2.5-0.6-3.2-1.5 -0.7-0.9-1.2-2.6-0.3-5.5 0.2-0.8 2.3-8.3 5.6-8.5 0.2-0.1 0.5-0.1 0.7-0.2h0.1c0.8 0 1.5 0.4 2 1.1C305.8 111.6 304.5 118.6 303.9 120.4zM307.4 105.3c-1.5-1.4-3.1-2-4.8-1.8 -7.7 0.7-11.6 12.1-11.6 12.2 0 0 3.2-12.4 11.5-13.1 2-0.2 3.9 0.5 5.5 2.1 2.7 2.5 3.2 7.8 3.2 7.8C311.2 111.4 309.9 107.6 307.4 105.3z" class="b"/><linearGradient gradientUnits="userSpaceOnUse" x1="301" y1="97.4" x2="298.5" y2="144.1"><stop offset="0.6341" class="q"/><stop offset="1" class="r"/></linearGradient><path d="M302.3 120.3c0.8-2.1 1.6-8.5 0.2-10.6 -0.3-0.4-0.7-0.6-1.1-0.7 -2 0.9-3.7 5.7-4.2 7.6 -0.9 2.5-0.4 3.9 0.1 4.6 0.5 0.7 1.4 1.1 2.4 1.1 0.3 0 0.6 0 0.9-0.1C301.3 121.9 302 121.3 302.3 120.3z" fill="url(#SVGID_1_)"/><path d="M358.3 141.7c0.2 0.1 0.5 0.1 0.7 0.2l0.3 0.1 0 0.3c0 0.8 0 1.9-0.3 3.2 2.7 1.1 5.2 2.1 9.2 1.5 9.2-1.4 20.6-7.8 24.9-10.9 -0.7-0.3-1.3-0.5-1.9-0.7 -1.1 0.3-2.2 0.6-3.4 1C380.7 138.5 371.1 141.2 358.3 141.7z" class="h"/><path d="M358.3 141.7c0.2 0.1 0.5 0.1 0.7 0.2l0.3 0.1 0 0.3c0 0.8 0 1.9-0.3 3.2 2.7 1.1 5.2 2.1 9.2 1.5 9.2-1.4 20.6-7.8 24.9-10.9 -0.7-0.3-1.3-0.5-1.9-0.7 -1.1 0.3-2.2 0.6-3.4 1C380.7 138.5 371.1 141.2 358.3 141.7z" class="b"/><path d="M355.3 140.8l-0.3 0 0 0.1c1.1 0.2 2.2 0.5 3.4 0.8 12.8-0.5 22.4-3.2 29.5-5.3 1.2-0.4 2.3-0.7 3.4-1 -0.6-0.2-1.3-0.4-1.8-0.5 -0.6 0.2-1.2 0.3-1.8 0.5C379.9 137.7 369.5 140.7 355.3 140.8z" class="j"/><path d="M355.3 140.8l-0.3 0 0 0.1c1.1 0.2 2.2 0.5 3.4 0.8 12.8-0.5 22.4-3.2 29.5-5.3 1.2-0.4 2.3-0.7 3.4-1 -0.6-0.2-1.3-0.4-1.8-0.5 -0.6 0.2-1.2 0.3-1.8 0.5C379.9 137.7 369.5 140.7 355.3 140.8z" class="b"/><path d="M356.5 105.5c0.6-0.7 1.2-1.5 1.8-2.4 -1-0.1-2.1-0.1-3.3-0.1 0 0.1-0.1 0.1-0.1 0.2C355.4 103.9 355.9 104.7 356.5 105.5z" class="b"/><linearGradient gradientUnits="userSpaceOnUse" x1="356.7" y1="100.4" x2="354.1" y2="147.2"><stop offset="0.6341" class="q"/><stop offset="1" class="r"/></linearGradient><path d="M356.5 105.5c0.6-0.7 1.2-1.5 1.8-2.4 -1-0.1-2.1-0.1-3.3-0.1 0 0.1-0.1 0.1-0.1 0.2C355.4 103.9 355.9 104.7 356.5 105.5z" fill="url(#SVGID_2_)"/><path d="M382.8 124.3c4.2 2.1 7.8 3.8 10.2 5.7 1.5-0.2 3.1-0.1 4.8 0.5L365.5 105.1c-0.1 0-2.6-1.5-6.6-2 -0.6 1.1-1.3 2-2 2.9C363.7 114.9 374.3 120.1 382.8 124.3z" class="b"/><path d="M382.8 124.3c4.2 2.1 7.8 3.8 10.2 5.7 1.5-0.2 3.1-0.1 4.8 0.5L365.5 105.1c-0.1 0-2.6-1.5-6.6-2 -0.6 1.1-1.3 2-2 2.9C363.7 114.9 374.3 120.1 382.8 124.3z" class="b"/><path d="M354.3 103.9c0.5 0.8 1 1.5 1.6 2.3 0.2-0.2 0.4-0.5 0.7-0.7 -0.6-0.8-1.1-1.5-1.6-2.4C354.7 103.4 354.5 103.7 354.3 103.9z" class="e"/><linearGradient gradientUnits="userSpaceOnUse" x1="355.6" y1="100.4" x2="353" y2="147.2"><stop offset="0.6341" class="q"/><stop offset="1" class="r"/></linearGradient><path d="M354.3 103.9c0.5 0.8 1 1.5 1.6 2.3 0.2-0.2 0.4-0.5 0.7-0.7 -0.6-0.8-1.1-1.5-1.6-2.4C354.7 103.4 354.5 103.7 354.3 103.9z" fill="url(#SVGID_3_)"/><path d="M356.8 105.9c-0.2 0.3-0.4 0.5-0.7 0.7 6.9 9 17.6 14.3 26.2 18.5 3.6 1.8 6.9 3.4 9.3 5 0.4-0.1 0.9-0.2 1.3-0.2 -2.4-1.8-6-3.6-10.2-5.7C374.3 120.1 363.7 114.9 356.8 105.9z" class="e"/><path d="M356.8 105.9c-0.2 0.3-0.4 0.5-0.7 0.7 6.9 9 17.6 14.3 26.2 18.5 3.6 1.8 6.9 3.4 9.3 5 0.4-0.1 0.9-0.2 1.3-0.2 -2.4-1.8-6-3.6-10.2-5.7C374.3 120.1 363.7 114.9 356.8 105.9z" class="b"/><path d="M348.2 110l0.1 0h0c2.7 0.4 5.4-0.9 7.8-3.3 0.2-0.2 0.5-0.5 0.7-0.7 0.7-0.8 1.4-1.8 2-2.9 -0.2 0-0.4-0.1-0.6-0.1 -0.6 0.9-1.2 1.7-1.8 2.4 -0.2 0.3-0.4 0.5-0.7 0.7 -1.6 1.7-3.5 2.8-5.3 3.1 -0.7 0.1-1.4 0.1-2 0l-0.1 0c-1.7-0.3-3.2-1.3-4.4-2.9 -0.2 0.1-0.4 0.2-0.5 0.3C344.7 108.5 346.4 109.6 348.2 110z"/><path d="M348.2 110l0.1 0h0c2.7 0.4 5.4-0.9 7.8-3.3 0.2-0.2 0.5-0.5 0.7-0.7 0.7-0.8 1.4-1.8 2-2.9 -0.2 0-0.4-0.1-0.6-0.1 -0.6 0.9-1.2 1.7-1.8 2.4 -0.2 0.3-0.4 0.5-0.7 0.7 -1.6 1.7-3.5 2.8-5.3 3.1 -0.7 0.1-1.4 0.1-2 0l-0.1 0c-1.7-0.3-3.2-1.3-4.4-2.9 -0.2 0.1-0.4 0.2-0.5 0.3C344.7 108.5 346.4 109.6 348.2 110z" class="b"/><path d="M347.8 106.6c2.2 0.8 4.5-0.3 6.5-2.7 0.2-0.3 0.4-0.5 0.6-0.8 0-0.1 0.1-0.1 0.1-0.2 -0.1 0-0.2 0-0.3 0 -2 2.8-4.5 4.2-6.8 3.3 -0.6-0.2-1.2-0.6-1.7-1.1 -0.1 0-0.2 0.1-0.3 0.1C346.5 105.9 347.1 106.3 347.8 106.6z" class="o"/><path d="M347.8 106.6c2.2 0.8 4.5-0.3 6.5-2.7 0.2-0.3 0.4-0.5 0.6-0.8 0-0.1 0.1-0.1 0.1-0.2 -0.1 0-0.2 0-0.3 0 -2 2.8-4.5 4.2-6.8 3.3 -0.6-0.2-1.2-0.6-1.7-1.1 -0.1 0-0.2 0.1-0.3 0.1C346.5 105.9 347.1 106.3 347.8 106.6z" class="b"/><path d="M354.8 102.9c-2.6 0.2-5.5 0.8-8.5 2.2 0.5 0.5 1.1 0.9 1.7 1.1C350.2 107.1 352.8 105.7 354.8 102.9z" class="p"/><path d="M354.8 102.9c-2.6 0.2-5.5 0.8-8.5 2.2 0.5 0.5 1.1 0.9 1.7 1.1C350.2 107.1 352.8 105.7 354.8 102.9z" class="b"/><path d="M289.6 96c-0.1 0-0.2-0.1-0.3-0.1 -0.8 0.5-1.6 1-2.4 1.6 -3.8 2.9-7.6 6.7-10.7 10.2 0 0.3 0.1 0.6 0.1 0.8C280.8 104.5 287.8 97.8 289.6 96z" class="b"/><linearGradient gradientUnits="userSpaceOnUse" x1="283.2" y1="96.4" x2="280.6" y2="143.2"><stop offset="0.6341" class="q"/><stop offset="1" class="r"/></linearGradient><path d="M289.6 96c-0.1 0-0.2-0.1-0.3-0.1 -0.8 0.5-1.6 1-2.4 1.6 -3.8 2.9-7.6 6.7-10.7 10.2 0 0.3 0.1 0.6 0.1 0.8C280.8 104.5 287.8 97.8 289.6 96z" fill="url(#SVGID_4_)"/><path d="M275.8 110.2l0.6-0.5c5.1-4.4 14.2-13.4 14.3-13.5l0.4-0.4 -0.5-0.3c0 0-0.2-0.1-0.4-0.2 -0.3 0.2-0.6 0.4-1 0.6 0.1 0.1 0.2 0.1 0.3 0.1 -1.8 1.8-8.8 8.6-13.2 12.5 0-0.2-0.1-0.5-0.1-0.8 -0.3 0.3-0.6 0.6-0.8 1 0.1 0.5 0.2 0.8 0.2 0.9L275.8 110.2z" class="e"/><linearGradient gradientUnits="userSpaceOnUse" x1="283.6" y1="96.4" x2="281" y2="143.2"><stop offset="0.6341" class="q"/><stop offset="1" class="r"/></linearGradient><path d="M275.8 110.2l0.6-0.5c5.1-4.4 14.2-13.4 14.3-13.5l0.4-0.4 -0.5-0.3c0 0-0.2-0.1-0.4-0.2 -0.3 0.2-0.6 0.4-1 0.6 0.1 0.1 0.2 0.1 0.3 0.1 -1.8 1.8-8.8 8.6-13.2 12.5 0-0.2-0.1-0.5-0.1-0.8 -0.3 0.3-0.6 0.6-0.8 1 0.1 0.5 0.2 0.8 0.2 0.9L275.8 110.2z" fill="url(#SVGID_5_)"/><path d="M291 137.6c0 0.5 0.1 1.1 0.2 1.7 4.4 1.2 9.4 1.5 14.8 0.9 0.2-0.3 0.3-0.5 0.5-0.8C300.6 137.9 293 137.6 291 137.6z" class="k"/><path d="M291 137.6c0 0.5 0.1 1.1 0.2 1.7 4.4 1.2 9.4 1.5 14.8 0.9 0.2-0.3 0.3-0.5 0.5-0.8C300.6 137.9 293 137.6 291 137.6z" class="b"/><path d="M307.9 138.9l-0.6-0.2c-6.9-2-16.7-2-16.8-2h-0.5l0 0.5c0 0.1 0 0.9 0.2 1.9 0.3 0.1 0.7 0.2 1 0.3 -0.1-0.6-0.1-1.2-0.2-1.7 2 0 9.6 0.3 15.4 1.8 -0.2 0.2-0.3 0.5-0.5 0.8 0.4 0 0.8-0.1 1.2-0.1 0.1-0.2 0.3-0.5 0.4-0.7L307.9 138.9z" class="l"/><path d="M307.9 138.9l-0.6-0.2c-6.9-2-16.7-2-16.8-2h-0.5l0 0.5c0 0.1 0 0.9 0.2 1.9 0.3 0.1 0.7 0.2 1 0.3 -0.1-0.6-0.1-1.2-0.2-1.7 2 0 9.6 0.3 15.4 1.8 -0.2 0.2-0.3 0.5-0.5 0.8 0.4 0 0.8-0.1 1.2-0.1 0.1-0.2 0.3-0.5 0.4-0.7L307.9 138.9z" class="b"/><path d="M318.3 139.9c0.2 0.2 0.3 0.4 0.4 0.7 2 0.5 4 1.2 5.9 1.9 2.8 1 5.6 2 8.5 2.5 0.2-0.6 0.3-1.1 0.4-1.4C329.2 142.2 322.8 140.5 318.3 139.9z" class="k"/><path d="M318.3 139.9c0.2 0.2 0.3 0.4 0.4 0.7 2 0.5 4 1.2 5.9 1.9 2.8 1 5.6 2 8.5 2.5 0.2-0.6 0.3-1.1 0.4-1.4C329.2 142.2 322.8 140.5 318.3 139.9z" class="b"/><path d="M334.5 142.9l-0.3-0.1c-4.9-1.6-12.3-3.4-17-4l-1.3-0.1 0.9 0.9c0.2 0.2 0.3 0.4 0.5 0.6 0.5 0.1 0.9 0.2 1.4 0.4 -0.1-0.2-0.3-0.5-0.4-0.7 4.5 0.6 10.9 2.3 15.3 3.6 -0.1 0.3-0.2 0.8-0.4 1.4 0.3 0.1 0.6 0.1 1 0.2 0.3-0.8 0.4-1.5 0.4-1.9V142.9z" class="l"/><linearGradient gradientUnits="userSpaceOnUse" x1="327.5" y1="98.8" x2="325" y2="145.6"><stop offset="0.6341" class="q"/><stop offset="1" class="r"/></linearGradient><path d="M334.5 142.9l-0.3-0.1c-4.9-1.6-12.3-3.4-17-4l-1.3-0.1 0.9 0.9c0.2 0.2 0.3 0.4 0.5 0.6 0.5 0.1 0.9 0.2 1.4 0.4 -0.1-0.2-0.3-0.5-0.4-0.7 4.5 0.6 10.9 2.3 15.3 3.6 -0.1 0.3-0.2 0.8-0.4 1.4 0.3 0.1 0.6 0.1 1 0.2 0.3-0.8 0.4-1.5 0.4-1.9V142.9z" fill="url(#SVGID_6_)"/><path d="M351.7 141.6c-2.1 0-4 0.4-6.2 0.9 -0.4 0.1-0.8 0.2-1.2 0.3 0.2 0.4 0.4 0.8 0.6 1.1 6.4-1.3 10.1 0 13.3 1.4 0.2-0.9 0.2-1.8 0.2-2.5C355.9 141.9 353.7 141.6 351.7 141.6z" class="k"/><path d="M351.7 141.6c-2.1 0-4 0.4-6.2 0.9 -0.4 0.1-0.8 0.2-1.2 0.3 0.2 0.4 0.4 0.8 0.6 1.1 6.4-1.3 10.1 0 13.3 1.4 0.2-0.9 0.2-1.8 0.2-2.5C355.9 141.9 353.7 141.6 351.7 141.6z" class="b"/><path d="M359.4 142.3l0-0.3 -0.3-0.1c-0.3-0.1-0.5-0.1-0.7-0.2 -1.2-0.4-2.3-0.6-3.4-0.8 -1.1-0.2-2.2-0.3-3.2-0.3 -2.2 0-4.1 0.4-6.4 0.9 -0.6 0.1-1.2 0.3-1.9 0.4l-0.7 0.1 0.3 0.6c0.3 0.5 0.5 0.9 0.8 1.4 0.3-0.1 0.6-0.1 0.9-0.2 -0.2-0.4-0.4-0.8-0.6-1.1 0.4-0.1 0.8-0.2 1.2-0.3 2.2-0.5 4-0.9 6.2-0.9 2 0 4.2 0.4 6.7 1.2 0 0.7-0.1 1.5-0.2 2.5 0.2 0.1 0.3 0.1 0.5 0.2 0.1 0.1 0.3 0.1 0.4 0.2C359.3 144.2 359.4 143.1 359.4 142.3z" class="l"/><path d="M359.4 142.3l0-0.3 -0.3-0.1c-0.3-0.1-0.5-0.1-0.7-0.2 -1.2-0.4-2.3-0.6-3.4-0.8 -1.1-0.2-2.2-0.3-3.2-0.3 -2.2 0-4.1 0.4-6.4 0.9 -0.6 0.1-1.2 0.3-1.9 0.4l-0.7 0.1 0.3 0.6c0.3 0.5 0.5 0.9 0.8 1.4 0.3-0.1 0.6-0.1 0.9-0.2 -0.2-0.4-0.4-0.8-0.6-1.1 0.4-0.1 0.8-0.2 1.2-0.3 2.2-0.5 4-0.9 6.2-0.9 2 0 4.2 0.4 6.7 1.2 0 0.7-0.1 1.5-0.2 2.5 0.2 0.1 0.3 0.1 0.5 0.2 0.1 0.1 0.3 0.1 0.4 0.2C359.3 144.2 359.4 143.1 359.4 142.3z" class="b"/><path d="M286 136.4l0.6-0.3 -0.4-0.5c-5.1-5.5-11.3-11.5-11.3-11.5l-0.6-0.5 -0.2 0.7c0 0 0 0.1 0 0.1 0 0 0 0 0 0l-0.6-0.5 -0.2 0.7c0 0 0 0 0 0.1 0.2 0.4 0.4 0.8 0.7 1.2 0-0.1 0-0.1 0.1-0.2 1.6 1.6 6.3 6.2 10.5 10.6 0 0-0.1 0.1-0.1 0.1 0.4 0.2 0.8 0.5 1.2 0.7C285.7 136.8 285.9 136.5 286 136.4z" class="l"/><path d="M286 136.4l0.6-0.3 -0.4-0.5c-5.1-5.5-11.3-11.5-11.3-11.5l-0.6-0.5 -0.2 0.7c0 0 0 0.1 0 0.1 0 0 0 0 0 0l-0.6-0.5 -0.2 0.7c0 0 0 0 0 0.1 0.2 0.4 0.4 0.8 0.7 1.2 0-0.1 0-0.1 0.1-0.2 1.6 1.6 6.3 6.2 10.5 10.6 0 0-0.1 0.1-0.1 0.1 0.4 0.2 0.8 0.5 1.2 0.7C285.7 136.8 285.9 136.5 286 136.4z" class="b"/><path d="M273.9 125.7c0 0.1 0 0.1-0.1 0.2 1.2 2 2.6 4 4.6 6 1.8 1.8 3.7 3.3 5.8 4.6 0 0 0.1-0.1 0.1-0.1C280.2 131.9 275.5 127.2 273.9 125.7z" class="k"/><linearGradient gradientUnits="userSpaceOnUse" x1="281" y1="96.3" x2="278.4" y2="143"><stop offset="0.6341" class="q"/><stop offset="1" class="r"/></linearGradient><path d="M273.9 125.7c0 0.1 0 0.1-0.1 0.2 1.2 2 2.6 4 4.6 6 1.8 1.8 3.7 3.3 5.8 4.6 0 0 0.1-0.1 0.1-0.1C280.2 131.9 275.5 127.2 273.9 125.7z" fill="url(#SVGID_7_)"/><path d="M345.3 144.7c6.1-1.2 9.5 0.1 12.7 1.4 0.1 0 0.2 0.1 0.3 0.1 0.2 0.1 0.4 0.2 0.6 0.2 2.1 0.9 4.2 1.7 7 1.7 0.8 0 1.7-0.1 2.6-0.2 10.1-1.6 22-8.5 25.7-11.5 0.5 0.2 1.1 0.5 1.6 0.8 0.3 0.2 0.6 0.4 0.9 0.5 2.1 1.2 4.3 2.9 6.5 5.2 0 0-0.1-0.2-0.3-0.7 0.1 0.1 0.2 0.2 0.3 0.3 0 0 0-0.1-0.1-0.2 -0.2-0.7-1.4-3-6.4-6.2 -7.4-4.2-13.5-2-13.5-2 0 0 0.8-0.2 2.1-0.2 -1.4 0.2-2.3 0.5-2.3 0.5 0.1 0 2.6-0.5 6.3 0.2 0.6 0.1 1.2 0.3 1.8 0.5 0.6 0.2 1.3 0.4 1.9 0.7 -4.2 3.2-15.7 9.5-24.9 10.9 -4 0.6-6.6-0.4-9.2-1.5 -0.1-0.1-0.3-0.1-0.4-0.2 -0.2-0.1-0.3-0.1-0.5-0.2 -3.2-1.3-6.9-2.7-13.3-1.4 -0.3 0.1-0.6 0.1-0.9 0.2 -0.7 0.2-1.5 0.4-2.3 0.6 -2.5 0.8-5 0.8-7.5 0.4 -0.3 0-0.6-0.1-1-0.2 -2.9-0.5-5.7-1.5-8.5-2.5 -1.9-0.7-3.9-1.4-5.9-1.9 -0.5-0.1-0.9-0.2-1.4-0.4 -2.6-0.6-5.2-0.9-7.9-0.5 -0.8 0.1-1.5 0.3-2.3 0.4 -0.4 0.1-0.8 0.1-1.2 0.1 -5.5 0.6-10.4 0.3-14.8-0.9 -0.3-0.1-0.7-0.2-1-0.3 -1.6-0.5-3.2-1.2-4.7-2 -0.4-0.2-0.8-0.4-1.2-0.7 -2.1-1.2-4.1-2.8-5.8-4.6 -1.9-2-3.4-4-4.6-6 -0.2-0.4-0.5-0.8-0.7-1.2 -1.8-3.3-2.6-6.2-2.9-7.3 -0.3-1.4 1.8-4.8 5.2-8.8 0.3-0.3 0.5-0.6 0.8-1 3.1-3.5 6.9-7.2 10.7-10.2 0.8-0.6 1.6-1.2 2.4-1.6 0.3-0.2 0.6-0.4 1-0.6 3.6-1.9 7.5-2.5 11.5-1.7 9 1.8 16.4 9.8 19.4 14.5 0.5 0.9 4.2 7.4 4.5 11.1 0 0-0.4-4.8-2.6-9.6 4.3-1.4 8.4-1.9 15.1 0 2.9 0.8 9.5 3.1 11.5 6.8 0 0-0.2-3.5-10-7.2 1.2-1 2.4-1.9 3.6-2.6 0.2-0.1 0.4-0.2 0.5-0.3 0.7-0.4 1.3-0.7 2-1.1 0.1 0 0.2-0.1 0.3-0.1 3.1-1.4 6-2.1 8.6-2.2 0.1 0 0.2 0 0.3 0 1.2-0.1 2.3 0 3.3 0.1 0.2 0 0.4 0 0.6 0.1 4 0.5 6.6 2 6.6 2 0 0-2.4-1.6-6.4-2.4 -0.2 0-0.4-0.1-0.6-0.1 -1-0.2-2-0.3-3.1-0.3 -0.1 0-0.2 0-0.2 0 -1 0-2 0.1-3.1 0.2 -1.1 0.2-2.2 0.4-3.4 0.8 -1 0.3-2 0.7-3 1.2 -0.1 0-0.2 0.1-0.3 0.1 -0.6 0.3-1.3 0.6-1.9 1 -0.2 0.1-0.4 0.2-0.5 0.3 -1.3 0.8-2.7 1.8-4 2.9 -0.5-0.2-1-0.3-1.5-0.4 -0.1 0-0.1 0-0.2-0.1l0 0c-6.2-1.5-10.2-1-14.3 0.4 -0.2-0.4-0.5-0.8-0.7-1.2 0 0 0-0.1-0.1-0.1l0 0c-3.2-4.9-10.8-13-20-14.9 -4.5-0.9-8.8-0.2-12.7 2.1 -1.1-0.5-2.9-1.1-4.8-1.1 -2.6 0-4.8 1.2-6.5 3.4 -2.8 3.7-2.9 7.8-2.7 10.3 -3.7 4.3-6.4 8.3-5.9 10.3 0.3 1.3 1.3 4.6 3.5 8.4 0.2 0.4 0.5 0.8 0.7 1.2 1.1 1.8 2.5 3.6 4.2 5.4 1.8 1.9 3.8 3.4 6 4.7 0.4 0.2 0.8 0.5 1.3 0.7 1.7 0.9 3.5 1.6 5.3 2.2 0.3 0.1 0.7 0.2 1 0.3 4.2 1.1 8.9 1.4 14.1 0.9 0.4 0 0.8-0.1 1.2-0.1 1-0.1 2-0.3 3.1-0.5 2.9-0.4 5.7 0 8.6 0.7 0.4 0.1 0.9 0.2 1.3 0.4 1.6 0.5 3.2 1 4.8 1.6 2.8 1 5.6 2 8.5 2.5 0.3 0.1 0.6 0.1 1 0.2 2.7 0.4 5.4 0.4 8.1-0.4 0.9-0.3 1.7-0.5 2.5-0.6C344.7 144.8 345 144.8 345.3 144.7zM278.7 97.6c1.5-2 3.4-3 5.8-3 1.4 0 2.8 0.4 3.8 0.8 -0.6 0.4-1.3 0.9-1.9 1.4 -3.2 2.5-7 6.1-10.2 9.6C276.1 104 276.5 100.6 278.7 97.6z" class="b"/><path d="M302.5 102.5c-8.3 0.7-11.5 13.1-11.5 13.1 0-0.1 3.9-11.5 11.6-12.2 1.7-0.1 3.3 0.5 4.8 1.8 2.5 2.3 3.8 6.2 3.8 7.1 0 0-0.5-5.3-3.2-7.8C306.3 103 304.5 102.3 302.5 102.5z" class="e"/><path d="M302 107.9h-0.1c-0.3 0-0.5 0.1-0.7 0.2 -3.3 0.2-5.4 7.7-5.6 8.5 -1 2.9-0.4 4.6 0.3 5.5 0.7 1 1.9 1.5 3.2 1.5 0.7 0 1.3-0.2 1.9-0.4 1.4-0.4 2.6-1.4 3.1-2.8 0.6-1.8 1.9-8.8 0-11.4C303.4 108.3 302.8 107.9 302 107.9zM299.6 122.4c-1 0-1.8-0.4-2.4-1.1 -0.5-0.7-1-2.1-0.1-4.6 0.5-1.9 2.2-6.7 4.2-7.6 0.5 0 0.8 0.2 1.1 0.7 1.5 2.1 0.6 8.5-0.2 10.6 -0.4 1-1.1 1.7-1.9 2C300.2 122.4 299.9 122.4 299.6 122.4z" class="e"/><path d="M397.2 74.1l-0.1 0c-8.1-1-16.5 9.9-18.1 21.7 -1 7.1 0.6 14 4 18.6 2.1 2.8 4.9 4.5 7.9 4.9l0.1 0 0 0c8.1 1 16-7.8 17.6-19.6 1-7.1-0.1-15.1-3.6-19.7C402.9 77.2 400.2 74.5 397.2 74.1zM393.9 118.4c-0.9 0.1-1.8 0.2-2.7 0.1l-0.1 0c-3.7-0.5-7-3.1-9.1-7.3 -2.2-4.3-2.9-9.7-2.2-15.2 1.3-9.8 7.2-17.7 14-18.8 0.9-0.1 1.8-0.2 2.7-0.1l0.1 0c3.7 0.5 7 3.1 9.1 7.3 2.1 4.3 2.9 9.7 2.2 15.2C406.6 109.4 400.7 117.3 393.9 118.4z"/><path d="M395.8 87.4c-5.2-1.4-10.7 3.6-12.3 11.3 -1.6 7.7 1.3 15.1 6.5 16.6 5.2 1.4 10.7-3.6 12.3-11.3C404 96.3 401 88.9 395.8 87.4zM402.1 104c-1.6 7.5-6.9 12.4-11.9 11 -5-1.4-7.9-8.6-6.3-16.1 1.6-7.5 6.9-12.4 11.9-11C400.8 89.3 403.7 96.5 402.1 104z" class="o"/><path d="M395.8 87.9c-5-1.4-10.4 3.5-11.9 11 -1.6 7.5 1.3 14.7 6.3 16.1 5 1.4 10.4-3.5 11.9-11C403.7 96.5 400.8 89.3 395.8 87.9zM399.2 102.9c-0.7 5.3-4.1 9.2-7.6 8.8s-5.7-5.1-5-10.4 4.1-9.2 7.6-8.7C397.7 93 399.9 97.7 399.2 102.9z" class="p"/><path d="M394.2 92.5c-3.5-0.5-6.8 3.5-7.6 8.8s1.5 9.9 5 10.4 6.8-3.5 7.6-8.8C399.9 97.7 397.7 93 394.2 92.5z"/><path d="M395.1 92.6c1.3 1 1.6 2.9 0.5 4.3 -1 1.3-2.9 1.6-4.2 0.5 -1.3-1-1.5-2.9-0.5-4.2C391.8 91.8 393.7 91.5 395.1 92.6z" class="a"/><path d="M394.4 99.4c0.6 0.4 0.7 1.2 0.2 1.8 -0.4 0.6-1.2 0.7-1.8 0.2 -0.6-0.4-0.7-1.2-0.2-1.8C393.1 99.1 393.9 99 394.4 99.4z" class="a"/><path d="M353.4 87.7c1.3 1 1.6 2.9 0.5 4.3 -1 1.3-2.9 1.6-4.2 0.5 -1.3-1-1.5-2.9-0.5-4.2C350.2 86.9 352.1 86.6 353.4 87.7z" class="a"/><path d="M352.8 94.5c0.6 0.4 0.7 1.2 0.2 1.8 -0.4 0.6-1.2 0.7-1.8 0.2 -0.6-0.4-0.7-1.2-0.2-1.8C351.4 94.2 352.2 94.1 352.8 94.5z" class="a"/></svg>