<svg version="1.1" id="Layer_1" xmlns="http://www.w3.org/2000/svg" xmlns:xlink="http://www.w3.org/1999/xlink" viewBox="0 0 768 430" enable-background="new 0 0 768 430" xml:space="preserve">
<g>
	<path fill="#538C1C" d="M510.687,133.964c0,0-23.192,43.489-27.938,51.922c-25.305,54.559-32.42,62.465-72.746,190.561
		c-11.069,39.535-22.14,46.65-14.231-5.537C395.771,370.91,423.184,210.925,510.687,133.964"/>
	<path fill="#538C1C" d="M268.124,133.964c0,0,23.194,43.489,27.938,51.922c25.302,54.559,32.418,62.465,72.743,190.561
		c11.071,39.535,22.139,46.65,14.233-5.537C383.038,370.91,355.627,210.925,268.124,133.964"/>
	<path fill="#88238E" d="M429.508,58.056c-5.535-5.797-7.116,0-10.543,4.217l-21.613,33.475c0,0-3.953,7.642-4.217,14.496
		c-0.227,5.895-3.377,44.541-4.252,55.226c-0.878-10.685-4.029-49.331-4.256-55.226c-0.263-6.854-4.216-14.496-4.216-14.496
		l-21.613-33.475c-3.426-4.217-5.008-10.014-10.542-4.217c-11.071,8.962-33.21,41.117-2.636,86.978
		c30.573,45.861,35.318,144.435,37.426,162.884c1.471,12.863,3.964,15.73,5.341,16.289c0,0.018,0.003,0.053,0.004,0.053
		c0,0,0.184,0.088,0.49,0.068c0.307,0.02,0.49-0.068,0.49-0.068c0.002,0,0.003-0.035,0.006-0.053
		c1.377-0.559,3.87-3.426,5.341-16.289c2.108-18.449,6.853-117.023,37.426-162.884C462.719,99.173,440.578,67.018,429.508,58.056"/>
	<path fill="#FFCE00" d="M408.702,59.683c-3.559-4.15-11.547-14.146-19.821-14.146c-8.272,0-16.261,9.996-19.818,14.146
		c-1.522,1.776-2.015,3.877-1.797,6.116c0.291,2.999,1.779,6.523,5.337,9.786c10.179,9.192,16.278,28.465,16.278,28.465
		s6.1-19.273,16.28-28.465c3.559-3.262,5.045-6.787,5.337-9.786C410.714,63.56,410.223,61.458,408.702,59.683"/>
</g>
</svg>
