<svg version="1.1" id="Layer_1" xmlns="http://www.w3.org/2000/svg" xmlns:xlink="http://www.w3.org/1999/xlink" viewBox="0 0 768 430" enable-background="new 0 0 768 430" xml:space="preserve">
<g>
	<path fill="#9E896F" d="M364.824,214.655c-4.231,9.605-8.481,19.654-12.686,30.037c-30.631,75.634-47.26,140.269-37.139,144.367
		c10.119,4.099,43.156-53.892,73.787-129.524c4.205-10.383,8.144-20.559,11.788-30.4L364.824,214.655z"/>
	<path fill="#9B9A9A" d="M405.587,167.575c-4.61-1.867-9.237-4.602-13.749-8.125c-0.158-0.124-0.308-0.256-0.462-0.383
		c-6.554,12.294-13.557,26.562-20.691,42.246l34.965,14.16c5.807-16.277,10.718-31.437,14.568-44.858
		C415.433,170.565,410.505,169.566,405.587,167.575z"/>
	<path fill="#f64b8d" d="M458.232,62.716c-13.637-3.678-22.172,10-26.886,20.519c-1.264-5.084-1.718-8.012-0.325-10.533
		c-41.95,1.604-55.228,62.45-34.002,79.03c30,23.434,55.146,0.576,55.34-27.166C452.477,108.4,448.412,71.345,458.232,62.716z"/>
</g>
</svg>
