<svg xmlns="http://www.w3.org/2000/svg" viewBox="0 0 768 430"><style>.a{fill:#141414;}.b{fill:#202020;}.c{fill:#070707;}.d{fill:#EA0001;}.e{fill:#CF0001;}.f{fill:#262626;}.g{fill:#4D4D4D;}.h{fill:#EFC197;}.i{fill:#F9E1BD;}.j{fill:#BD7F4C;}.k{fill:#FC6D6D;}.l{fill:#E6E8E7;}.m{fill:#FCFEFD;}.n{fill:#A56332;}.o{fill:#05DBFA;}.p{fill:#05B3FA;}.q{fill:#059AC9;}.r{fill:#FFF;}.s{fill:#C1C1C1;}.t{fill:#212121;}</style><path d="" style="fill:none;stroke-width:2;stroke:#000"/><path d="M508.5 332.9c0 0 0 0.2 0 0.5 0.2 2.5 1.7 14.1 15.9 24.3 3.2 3.5 7.4 13.3-21.2 12.7 -28.6-0.6-29.4-3.1-23.9-11.2 4.3-6.2 15-8.1 33-4.4 -3.1-4.6-11.8-14.1-9.4-17.2C505.1 335.3 508.5 332.9 508.5 332.9z" class="a"/><path d="M520.2 361.8c-5.5-8.8-14-16-15.5-26 -0.7 0.6-1.3 1.1-1.9 1.7 -2.4 3.1 6.3 12.7 9.4 17.2 -18-3.7-28.7-1.8-33 4.4 -0.8 1.2-1.5 2.3-2 3.2C489.8 368.2 525 367.6 520.2 361.8z" class="b"/><path d="M505.6 370.8c-0.8 0-1.6 0-2.4 0 -18.4-0.4-25.2-1.5-26.7-4.5 -0.9-1.8 0.2-4.1 2.5-7.4 4.5-6.5 15.5-8.1 32.3-4.8 -0.6-0.8-1.3-1.8-2.1-2.8 -3.9-5.1-8.7-11.4-6.7-14.1 2.3-2.3 5.6-4.6 5.7-4.7l0.7-0.5 0 0.8c0 0 0 0.2 0 0.4 0.2 2.2 1.7 13.8 15.7 23.9 2 1.8 3.2 4.8 2.1 7.4C524.9 368.7 517.8 370.8 505.6 370.8zM496.3 353.3c-8.3 0-13.9 2-16.7 6.1 -2 2.9-3.1 5.1-2.4 6.5 1.3 2.6 8.3 3.6 25.9 4 0.8 0 1.6 0 2.4 0 14.8 0 19.2-3 20.3-5.5 1-2.2 0.1-4.9-1.8-6.4 -13.7-9.9-15.7-21.3-16-24.2 -1.1 0.8-3.3 2.5-4.9 4.1 -1.6 2.1 3.4 8.6 6.7 12.9 1.1 1.4 2.1 2.7 2.8 3.7l0.6 0.9 -1.1-0.2C506.2 353.9 500.8 353.3 496.3 353.3z" class="c"/><path d="M444.8 327.6c0 0-16 10.7-18.1 20.2 0.1 7.5 15.3 15.7 26.9 22.6 5 3.4 6.2 11-14.4 15.4 -20.6 4.4-35.5 4.3-32.2-3.7s15.2-14.9 27.8-14.6c-5.9-4.4-26.2-13.3-15.6-29.2 7.1-9.7 11.5-13.5 16.3-14.4C437.3 324.7 444.8 327.6 444.8 327.6z" class="a"/><path d="M447.8 375.9c2.5-1 3.3-5.1-1.8-7.1 -10.6-5.3-23-10.8-23-21.2 0-10 8.1-16.5 15.8-22.4 -1.4-0.6-2.7-1.1-3.3-1.3 -4.9 0.9-9.3 4.7-16.3 14.4 -10.6 15.9 9.7 24.7 15.6 29.2 -11.8-0.3-23 5.7-27.1 13C427.4 385.3 443.7 378.8 447.8 375.9z" class="b"/><path d="M417.2 389.1c-5.6 0-9.1-1-10.5-3 -0.8-1.1-0.8-2.5-0.1-4.2 3.3-8.2 15-14.6 26.8-14.9 -0.7-0.4-1.5-0.9-2.3-1.5 -5.4-3.4-13.5-8.5-15.1-15.9 -0.8-3.7 0.2-7.6 2.8-11.6 7.1-9.7 11.6-13.7 16.6-14.6l0.1 0 0.1 0c1.7 0.7 9.2 3.7 9.3 3.7l0.8 0.3 -0.7 0.5c-0.2 0.1-15.9 10.8-17.9 19.9 0.1 6.5 12.5 13.7 23.5 20.2 1.1 0.6 2.2 1.3 3.3 1.9 2.4 1.6 3.6 4 3.2 6.2 -0.6 3-4.1 7.1-17.8 10.1C430.4 388.1 422.8 389.1 417.2 389.1zM434.1 368c-11.7 0-23.4 6.3-26.6 14.3 -0.6 1.4-0.6 2.5 0 3.4 1.1 1.7 4.5 2.6 9.7 2.6 5.5 0 13.1-1 22-2.9 13.9-3 16.7-7.1 17.1-9.4 0.4-1.9-0.7-3.9-2.8-5.3 -1-0.6-2.1-1.3-3.2-1.9 -11.1-6.5-23.8-13.9-23.9-21 1.9-8.6 14.5-17.9 17.6-20.1 -1.9-0.8-6.8-2.7-8.4-3.3 -4.7 0.9-9.1 4.8-15.9 14.2 -2.5 3.8-3.4 7.4-2.7 10.9 1.5 7 9.4 12 14.7 15.4 1.4 0.9 2.6 1.6 3.5 2.3l1.1 0.8 -1.4 0C434.6 368 434.3 368 434.1 368z" class="c"/><path d="M406.6 296.8c0 0-8.1 16.1-9.3 18.3 -1.3 2.3-1 3.7-10.5 2.5 -9.4-1.2-18.9-1.5-23.3-1 -4.4 0.6-12.5 10.6-14.9 12.4 -2.4 1.8-7.6 0.7 0.7-10.7 -2.2 1-11.9 7.4-16.1 6.5 -2.9-0.9-1.3-5.1 12.8-13.1 -4.4 0.3-11 1-12.6-0.7 -1.5-1.7-0.8-7.6 21.2-6.6 -2-1.8-11.2-14.7 1.3-10.4 4.7 2 8.9 8.6 8.5 13.7 3.1 0.3 20.8 1.5 24.5 2.1 1.9 0.1 1.2-1.8 1.2-2.5 0.1-8.7 4.1-21.2 6-21.4C399.9 290.5 406.6 296.8 406.6 296.8z" class="a"/><path d="M401.2 294.9c0 0-5.2 14.2-6.4 16.3 -1.3 2.3 0 4.4-9.4 3.2 -9.4-1.2-18.1-1-22.5-0.4 -4.4 0.6-10.1 8.1-12.5 9.9 -2.4 1.8-5.6 2.8 2.7-8.5 -2.2 1-9.2 6.2-13.4 5.3 -2.9-0.9-2-3 12.1-11 -4.4 0.3-10.2 0.4-12.4-0.1 -2.5-0.6-6.7-6.1 15.3-5.2 -2-1.8-11.2-14.7 1.3-10.4 4.7 2 8.9 8.6 8.5 13.7 3.1 0.3 20.8 1.5 24.5 2.1 1.9 0.1 1.2-1.8 1.2-2.5 0.1-8.7 4.1-21.2 6-21.4C399.9 290.5 401.2 294.9 401.2 294.9z" class="b"/><path d="M346.7 330.1c-0.9 0-1.6-0.4-2-1.2 -0.9-1.7 0.2-5 3.2-9.4 -0.3 0.2-0.6 0.3-0.9 0.5 -3.5 2-9.4 5.3-13 5.3 -0.3 0-0.7 0-1-0.1 -0.9-0.3-1.4-0.8-1.5-1.6 -0.3-2.4 4.2-6.4 12.6-11.4 -1.8 0.1-3.8 0.3-5.6 0.3 -3 0-4.7-0.4-5.5-1.2 -0.5-0.6-0.9-1.6-0.4-2.7 0.8-1.8 4-4.7 17.2-4.7 1.2 0 2.4 0 3.6 0.1 -1.8-2.2-5.3-7.3-4.3-9.8 0.3-0.6 0.9-1.4 2.6-1.4 1.1 0 2.5 0.3 4.2 0.9 4.9 2 9 8.6 8.8 13.7 1.4 0.1 4.3 0.4 7.6 0.6 6.3 0.5 14.2 1.1 16.5 1.4 0.3 0 0.5-0.1 0.7-0.2 0.2-0.3 0.2-0.9 0.1-1.4 0-0.2-0.1-0.4-0.1-0.6 0.1-8.3 3.9-21.6 6.4-21.9l0.2 0 0.2 0.2c3.7 4.7 10.3 10.9 10.4 11l0.2 0.2 -0.1 0.3c-0.3 0.7-8.1 16.2-9.3 18.3 -0.1 0.2-0.2 0.4-0.3 0.6 -0.8 1.6-1.5 2.6-5.2 2.6 -1.4 0-3.1-0.1-5.4-0.4 -6.3-0.8-12.8-1.2-17.9-1.2 -2.2 0-3.9 0.1-5.3 0.3 -2.9 0.4-7.9 5.5-11.2 8.9 -1.5 1.6-2.8 2.9-3.5 3.4C348.2 329.8 347.4 330.1 346.7 330.1zM350.6 317.2l-1 1.3c-5 6.8-4.6 9.3-4.2 10 0.3 0.6 0.8 0.7 1.2 0.7 0.6 0 1.2-0.2 1.7-0.6 0.7-0.5 2-1.8 3.4-3.3 3.6-3.7 8.5-8.7 11.7-9.1 1.4-0.2 3.2-0.3 5.4-0.3 5.1 0 11.7 0.5 18 1.3 2.3 0.3 4 0.4 5.3 0.4 3.3 0 3.7-0.8 4.4-2.1 0.1-0.2 0.2-0.4 0.3-0.6 1.1-1.9 8-15.7 9.1-17.9 -1.2-1.1-6.7-6.4-10.1-10.6 -1.5 1.1-5.3 12-5.4 20.9 0 0.1 0 0.3 0 0.4 0.1 0.6 0.2 1.5-0.3 2.1 -0.3 0.3-0.7 0.5-1.3 0.5h-0.1c-2.4-0.4-10.2-1-16.5-1.4 -3.7-0.3-6.9-0.5-8-0.7l-0.4 0 0-0.4c0.4-4.9-3.6-11.3-8.2-13.2 -1.6-0.6-2.9-0.8-3.9-0.8 -1.5 0-1.7 0.6-1.8 0.8 -0.9 2.2 3.3 8.2 4.8 9.6l0.9 0.8 -1.2-0.1c-1.6-0.1-3.2-0.1-4.7-0.1 -13.2 0-15.9 2.9-16.4 4.2 -0.3 0.8-0.1 1.4 0.2 1.8 0.6 0.6 2.2 0.9 4.8 0.9 1.9 0 4-0.2 5.9-0.3l3.4-0.2 -1.7 1c-10.4 6-14 9.8-13.8 11.5 0 0.1 0.1 0.6 0.9 0.8 0.2 0 0.5 0.1 0.7 0.1 3.3 0 9.1-3.2 12.5-5.2 1.1-0.6 2-1.1 2.6-1.4L350.6 317.2z" class="c"/><path d="M387.5 255.2c0 0-15.8 21.2-20.3 23 -1.7 0.8-23.5-9.6-26.1-9.4 -2.5 0.2-8.1 5-9.1 6 -1 1-13.8 10.2-11.2 3.4 1.5-2.9 2.2-3 6.7-8.9 -2.3-0.7-13.4 4.5-17.4 4.1 -1.5 0.1-5.9-2.5 14.1-10.8 -0.3 0-14.9 1.7-16.3-0.8 -0.9-1.2-1.1-9.7 20.3-7.1 -2.1-3.2-5.2-14.3 1.9-10.7 7.1 3.5 11.4 16 11.4 16 0.1 0.8 14.8 2.4 21.3 8.7 1.5-0.1 10.7-22.8 26.3-28C388.9 244.8 387.5 255.2 387.5 255.2z" class="a"/><path d="M382.7 254.5c0 0-11.4 17.6-16 19.4 -1.7 0.8-23.3-7.4-25.8-7.2 -2.5 0.2-7.9 4.5-8.9 5.5 -1 0.9-8.7 8.3-7 3.2 1.5-2.9 0.6-2 5.2-7.8 -2.3-0.7-6.6 1.5-11.3 2.1 -1.5 0.1-8.2 0.2 10.6-8.7 -0.3 0-14 1-16-0.7 -0.9-0.6-4.7-4.8 14.7-5.8 -2.1-3.2-5.2-14.3 1.9-10.7 7.1 3.5 11.4 16 11.4 16 0.1 0.8 14.8 2.4 21.3 8.7 1.5-0.1 10.7-22.8 26.3-28C388.9 244.8 382.7 254.5 382.7 254.5z" class="b"/><path d="M321.4 281.1c-0.7 0-1.1-0.3-1.2-0.6 -0.4-0.5-0.3-1.4 0.1-2.5 1-1.9 1.6-2.6 3.1-4.4 0.8-0.9 1.8-2.1 3.2-4 -1.4 0.1-3.9 0.9-6.6 1.8 -3.8 1.3-7.8 2.6-10 2.3 0 0 0 0 0 0 -0.6 0-1.7-0.3-1.8-1.3 -0.4-2.1 4-5.2 13.2-9.3 -3 0.3-5.2 0.3-6.6 0.3 -5.7 0-6.9-0.9-7.3-1.6 -0.4-0.5-0.6-2 0.2-3.5 1.1-2.1 4.2-4.7 13-4.7 2 0 4.2 0.1 6.6 0.4 -1.4-2.7-2.9-7.8-1.7-10.1 0.7-1.4 2.4-1.6 4.6-0.5 7 3.5 11.2 15 11.6 16.1 0.3 0.2 1.7 0.5 2.9 0.8 4.7 1.1 13.3 3.2 18 7.6 0.3-0.4 1.2-1.9 2.1-3.4 3.9-6.7 12.1-20.6 24-24.5l0.6-0.2 0 0.6c-0.1 4.3-1.5 14.7-1.6 14.8l0 0.1 -0.1 0.1c-1.9 2.3-16.3 21.8-20.5 23.1 -0.1 0-0.3 0.1-0.4 0.1 -1.6 0-7.2-2.3-13.2-4.8 -5.2-2.2-11.2-4.6-12.5-4.6 -2.3 0.2-7.5 4.5-8.9 5.8C331.7 275.6 324.4 281.1 321.4 281.1zM326.9 268.7c0.3 0 0.5 0 0.7 0.1l0.6 0.2 -0.4 0.5c-1.7 2.2-2.9 3.6-3.7 4.7 -1.4 1.7-2 2.5-3 4.2 -0.4 1.2-0.3 1.6-0.2 1.7 0.1 0.1 0.2 0.2 0.5 0.2 2.5 0 9.5-5.1 10.2-5.8 0.8-0.8 6.6-5.8 9.4-6.1l0.1 0c1.5 0 7 2.3 12.8 4.7 5.4 2.2 11.5 4.7 12.9 4.7 5-2.2 12.7-13.9 20.2-22.8 0.2-1.1 1.3-9.6 1.5-13.9 -11.2 4.1-19.1 17.5-22.9 23.9 -1.8 3-2.3 3.9-2.9 3.9l-0.2 0 -0.1-0.1c-4.5-4.3-13.2-6.4-17.8-7.6 -3-0.7-3.5-0.9-3.6-1.4 0 0-4.3-12.2-11.2-15.6 -1.8-0.9-2.9-0.9-3.5 0.1 -1.2 2.2 0.7 7.9 2.1 10l0.5 0.8 -1-0.1c-2.7-0.3-5.2-0.5-7.4-0.5 -8.8 0-11.4 2.6-12.2 4.2 -0.7 1.3-0.4 2.4-0.2 2.7 0.2 0.4 1.2 1.2 6.5 1.2 1.7 0 4.7-0.1 9.1-0.5 0.2 0 0.2 0 0.3 0l2.6-0.1 -2.4 1c-15.1 6.3-15.4 8.9-15.3 9.4 0.1 0.4 0.6 0.6 1 0.6 0.2 0 0.4 0 0.6 0 2.1 0 5.9-1.2 9.1-2.3C322.8 269.6 325.5 268.7 326.9 268.7z" class="c"/><path d="M474.6 187.9c0 0 10.7-5.6 17.2-6.6 1.8-0.3 0.4-4.6 0-6.1 -1.9-7.2-2.2-21.6-3-29.5 -0.7-2-5-6.4-13.1-7.3 -10.4-0.6-14.4-14.2 4.3-6.5 -0.7-2.6-4.4-25.3 0.6-25.5 2.6 0 5.6 9.8 8.2 17.7 2.2-9.2 4.4-21 11.8-17.7 3.2 1.7-1.3 11.4-0.9 17.3 3-2.4 14.7-10.7 12.3-1.7 -1.3 4.4-9.4 8.8-11.4 9.8 -2 1-5.9 5.2-4.9 11.4 1 6.2 9.3 38.8 2.8 43.3 -6.5 4.5-12 8.7-12 8.7L474.6 187.9z" class="a"/><path d="M474.6 187.9c0 0 10.7-5.6 17.2-6.6 1.8-0.3 0.4-4.6 0-6.1 -1.9-7.2-2.2-21.6-3-29.5 -0.7-2-2-6.5-10.6-8.1 -6.9 0.2-13.6-8.9 4.2-3.9 -0.7-2.6-5.3-21.5-1.2-21.5 2.6 0 5.1 8.9 7.7 16.8 3.2-8.5 2.9-17.3 8.8-15.6 2.5 1.4-0.4 9 0 14.9 3-2.4 12.8-10.9 11.5-4.3 -1.3 3-7.7 5.8-9.7 6.6 -3.8 1.6-6.3 7.5-5.3 13.7 1 6.2 8.3 36.1 1.8 40.6 -6.5 4.5-9.5 10.3-9.5 10.3L474.6 187.9z" class="b"/><path d="M486.6 195.8l-12.8-8 0.7-0.4c0.4-0.2 10.9-5.7 17.4-6.7 0.1 0 0.2-0.1 0.3-0.2 0.6-0.9-0.2-3.6-0.5-4.8l-0.1-0.5c-1.3-4.9-1.8-13.2-2.3-20.5 -0.2-3.4-0.4-6.6-0.7-9.1 -0.7-1.7-4.8-6-12.7-6.9 -5.2-0.3-9.2-3.9-9.1-6.8 0-1.8 1.7-2.9 4.3-2.9 2.2 0 5.1 0.7 8.6 2.1 -0.8-4.1-3.3-20.4-0.4-24.3 0.4-0.6 1-0.9 1.6-0.9 2.5 0 4.7 6.1 7.8 15.5l0.3 1 0.1-0.4c1.9-7.8 4-16.7 9.4-16.7 0.8 0 1.7 0.2 2.6 0.6 2.2 1.1 1.4 5 0.5 9.4 -0.5 2.6-1.1 5.2-1.1 7.4 2-1.5 7.4-5.3 10.4-5.3 0.8 0 1.4 0.3 1.8 0.8 0.6 0.8 0.6 2.1 0.1 3.9 -1.5 4.9-10.6 9.6-11.6 10.1 -1.8 0.9-5.6 5-4.6 10.9 0.2 1 0.5 2.8 1 5 2.5 12.2 7.3 34.8 1.6 38.7 -6.4 4.5-12 8.7-12 8.7L486.6 195.8zM475.5 187.9l11 6.8c1.1-0.9 6.1-4.6 11.8-8.6 5.2-3.6 0.2-27.6-1.9-37.8 -0.5-2.2-0.8-4-1-5 -1-6.4 3.1-10.8 5.1-11.8 0.4-0.2 9.8-4.9 11.1-9.6 0.5-1.9 0.3-2.8 0-3.1 -0.2-0.3-0.6-0.4-1.1-0.4 -2.6 0-8 3.7-10.5 5.7l-0.7 0.5 -0.1-0.8c-0.2-2.5 0.5-5.6 1.1-8.5 0.8-3.9 1.6-7.6 0-8.5 -0.8-0.3-1.5-0.5-2.2-0.5 -4.7 0-6.8 8.5-8.5 16l-0.8 3.3 -1.3-3.9c-2.1-6.3-5-14.9-6.9-14.9 -0.3 0-0.7 0.2-0.9 0.6 -2.8 3.8 0.1 21.8 0.7 24.4l0.2 0.9 -0.8-0.3c-3.7-1.5-6.8-2.3-9-2.3 -2.1 0-3.4 0.7-3.4 2.1 -0.1 2.2 3.2 5.7 8.3 5.9 8.4 0.9 12.8 5.5 13.5 7.6 0.3 2.6 0.5 5.8 0.7 9.2 0.5 7.3 1 15.5 2.3 20.3l0.1 0.5c0.6 2.1 1.1 4.4 0.4 5.5 -0.2 0.3-0.5 0.6-0.9 0.6C486.5 182.5 478 186.6 475.5 187.9z" class="c"/><path d="M424.8 193c0 0 56.1-36.2 106.9 32.7 50.8 68.9-13.8 126-35.8 110.3C473.9 320.3 370 209.8 424.8 193z" class="d"/><path d="M526.6 273.1c-5.3-33.9-33.3-56.8-65.7-71.7 -6 27.1-19.9 28.2-45.9 35.1 17.2 38.6 66.4 89.2 80.8 99.5 5.8 4.2 14.6 3.2 23.4-1.6C532 315.7 531.5 304.1 526.6 273.1z" class="e"/><path d="M504.8 339.1c-3.6 0-6.6-0.9-9.2-2.7 -19.3-13.8-92.5-91.5-86.7-127.3 1.3-8.1 6.6-13.7 15.7-16.5 1-0.6 15.7-9.5 36.1-9.5 26.6 0 50.6 14.3 71.3 42.4 27.8 37.6 19.3 68.2 11.8 83.1C533.7 328.6 516.5 339.1 504.8 339.1zM460.8 184c-20.8 0-35.6 9.3-35.7 9.4l-0.1 0.1c-8.8 2.7-13.9 8-15.1 15.8 -5.8 35.5 67.1 112.7 86.3 126.4 2.4 1.7 5.3 2.6 8.7 2.6 11.5 0 28.3-10.3 38.3-30.1 7.4-14.7 15.8-44.9-11.7-82.1C510.8 198.1 487.1 184 460.8 184z" fill="#700107"/><path d="M468.5 220.3c6.5 11.2 16.1 7.6 14.3-5.8 -1.8-9.3-12.7-16.4-25.9-16.4 -1.5 0-3 0.1-4.5 0.3C452.5 208.1 451.7 211.8 468.5 220.3z" class="f"/><path d="M410.2 205.9c0 0-62.3 37.5 0 104.7 21.9 28.1 103.6 54.8 113.5 13.4C527.7 313.6 522 202.8 410.2 205.9z" class="d"/><path d="M430.8 218c0 0 23.6 21.5 50 6.7 -7.2-5.2-27.8-15-27.8-15L430.8 218z" class="f"/><path d="M428.7 206.4c55.3 15.2 92.4 68.1 92.5 124.4 1.1-2 2-4.3 2.6-6.9C527.5 314.2 522.6 215.3 428.7 206.4z" style="fill:#FFF;opacity:0.3"/><path d="M391.1 228.1c-10.7 7.7-16.7 45 19.1 82.4 9.5 12.2 30.2 24.1 51.5 30.3 -53.8-35-62.5-88.5-52.6-116.7C405.5 221.3 400 222.2 391.1 228.1z" class="e"/><path d="M489.7 345.7c0 0 0 0 0 0 -27.5 0-65.6-16.6-79.8-34.9 -20.9-22.6-30.1-44.3-27.3-64.4 3.7-26.3 27.2-40.7 27.4-40.9l0.1-0.1 0.1 0c1.5 0 3.1-0.1 4.6-0.1 39.6 0 69.6 14.4 89.2 42.9 21.5 31.3 22.5 69.9 20.2 75.8C519.9 342 503.1 345.7 489.7 345.7zM410.4 206.3c-1.6 1-23.3 15.1-26.9 40.2 -2.8 19.9 6.3 41.4 27.1 63.7 14.1 18.1 51.8 34.6 79.1 34.6 0 0 0 0 0 0 13 0 29.5-3.6 33.6-21 2.3-5.8 1.2-44-20.1-75.1 -19.4-28.2-49.1-42.6-88.4-42.6C413.3 206.2 411.9 206.2 410.4 206.3z" class="c"/><path d="M391.3 215.1c0 0-8.7 20.3 15.3 16.8 28.2-4.1 60.4-14.7 65.1-39.8 0.7-7.7 1.8-8.4-26.5-11.9C428.4 188.2 406.3 190.4 391.3 215.1z" class="a"/><path d="M445.1 180.2c-2.2 1-4.5 2-6.8 2.9 1.5 2.6 2.9 5.5 3.8 8.6 9.8-0.3 18.7 3.2 28.7 3.8 0.3-1.1 0.6-2.2 0.8-3.3C472.3 184.5 473.4 183.8 445.1 180.2z" class="g"/><path d="M471.3 190.4c1.8-1.8-11.8-5.7-13.6-5.7 -16.9 21.9-40.9 41.2-67.9 38 0 1.8 0.4 3.7 1.4 5.4C421.4 232 469.7 215.5 471.3 190.4z" class="b"/><path d="M401.4 232.8L401.4 232.8c-5.1 0-8.7-1.5-10.6-4.3 -3.4-5.2-0.1-13.1 0-13.5 11.6-19.1 27.6-25 41.6-30.1 4.4-1.6 8.6-3.1 12.5-5l0.1-0.1 0.1 0c27 3.4 27.7 4.2 27 11.6l-0.1 0.8c-4.8 25.9-38.3 36.1-65.5 40.2C404.7 232.6 403 232.8 401.4 232.8zM445.2 180.7c-3.9 1.8-8.1 3.4-12.4 5 -13.9 5.1-29.7 10.9-41.2 29.7 0 0-3.2 7.8-0.1 12.6 1.7 2.6 5 3.9 9.8 3.9l0 0c1.5 0 3.3-0.1 5.1-0.4 26.9-4 60-14 64.7-39.4l0.1-0.7C471.9 184.7 472 184 445.2 180.7z" class="c"/><path d="M336 150.6c0 0 5.2-51.1 53.7-51.2 50.1-0.1 71.8 34 73.1 64 4.2 29.8-48.3 61.4-76.9 57 -11.6-3.1-24.3 4.9-30-14.1C345.3 203.2 308.2 173.5 336 150.6z" class="h"/><path d="M357.7 202.8c1.3 16.5 20.3 14.6 29.5 13 25.7 3 47.8-8.9 60.3-29.7 3.5-7.1-3.1-16.7-11.9-15 5.3-14.1 3.4-28.5-1.9-40.8 -7.1-15.9-31.8-10.6-42.4 3.5 0-11.7-1-23.4-4.3-34.4 -45.6 2-50.9 51.1-50.9 51.1 -4.8 3.9-7.6 8.1-9 12.3C330.5 179.9 338.3 195.5 357.7 202.8z" class="i"/><path d="M391.7 221.3c-2 0-4-0.1-5.8-0.4 -3.5-0.9-6.9-0.9-10.1-0.8 -8.5 0.1-16 0-20.2-13.4 -7.3-2.3-26.3-16.2-29.6-32.5 -1.8-8.9 1.4-17 9.7-23.8 0.8-2.7 8.8-50.9 54.1-51.4 48.8-0.6 72.1 32.4 73.5 64.5 1.2 8.9-2.4 18.5-10.6 27.9C438.1 208.1 411.3 221.3 391.7 221.3zM377.7 219.1c2.7 0 5.5 0.1 8.4 0.9 1.7 0.3 3.6 0.4 5.6 0.4 19.4 0 45.9-13 60.3-29.6 8-9.2 11.6-18.6 10.4-27.3 -1.4-31.7-24.4-63.7-72.7-63.7 -49.1 0-53.2 50.3-53.2 50.8l0 0.2 -0.1 0.1c-8.1 6.7-11.3 14.4-9.5 23.1 3.2 15.4 21.9 29.7 29.2 31.9l0.2 0.1 0.1 0.2c3.9 13 11.2 13.1 19.4 13C376.4 219.1 377 219.1 377.7 219.1z" class="j"/><path d="M352.7 176.3c0 0 7.6 16.3 8.1 22.7 0.4 6.4 1.5 18.8 19.7 13.7 8.5-2.2 18.1-12.3 19.6-28.6C383.2 190.7 364.5 187.2 352.7 176.3z" fill="#230000"/><path d="M377.8 201.4c-6.9-3.3-13.1-1.2-16.7 0.8 0.9 6.5 4 14.8 19.4 10.5 4.4-1.5 9.9-4 12.9-10.2C389.4 200 381.4 199.7 377.8 201.4z" fill="#FC9090"/><path d="M390.1 201.1c-4.1-1.1-9.5-1-12.3 0.3 -6.9-3.3-13.1-1.2-16.7 0.8 0.3 1.9 0.7 4 1.6 5.9C372.9 209.7 383 208.4 390.1 201.1z" fill="#FF9F9F"/><path d="M372.8 214.3L372.8 214.3c-7.1 0-11.1-3.9-12.2-12.1l0-0.3 0.3-0.1c2.1-1.2 5.5-2.6 9.5-2.6 2.5 0 5 0.6 7.4 1.7 1.7-0.7 3.9-1.1 6.6-1.2 8.4 0.7 9.5 2.7 9.5 2.7s-2.7 6.7-13.2 10.6C377.7 213.9 375.1 214.3 372.8 214.3zM361.6 202.5c0.7 4.8 2.6 11 11.3 11l0 0c2.2 0 4.7-0.4 7.5-1.2 3.7-0.9 9.9-4.4 12.7-9.7 -1.8-0.9-5.8-1.9-8.6-1.9 -2.5 0-4.9 0.4-6.4 1.2l-0.2 0.1 -0.2-0.1c-2.3-1.1-4.7-1.7-7.2-1.7C366.7 200.1 363.6 201.4 361.6 202.5z" class="k"/><path d="M373.9 205.9c0 0-0.7-3.8 7-5.8l0.2 0.9C381.1 200.9 374.7 202.6 373.9 205.9z" class="k"/><path d="M394.8 197.5c0.3 0.2 0.7 0.5 1 0.8 2.1-3.9 3.7-8.5 4.3-14.1 -16.8 6.6-35.5 3.1-47.3-7.8 0 0 6.5 13.8 7.8 21C369 189.5 384.8 191.7 394.8 197.5z" fill="#3C0000"/><path d="M372.8 214.3c-11.5 0-12.2-10.3-12.5-15.3 -0.4-6.3-8-22.4-8-22.6l-1-2 1.7 1.5c7.6 7 18.3 11.1 29.5 11.1 6 0 11.8-1.1 17.4-3.3l0.7-0.3 -0.1 0.7c-2.6 18.8-11 26.4-19.8 29C377.7 213.9 375.1 214.3 372.8 214.3zM353.9 177.9c2 4.5 6.9 15.8 7.3 21 0.3 5.1 1 14.5 11.6 14.5 2.2 0 4.7-0.4 7.5-1.2 7.4-1.4 16.8-10.6 19.2-27.5 -5.5 2.1-11.2 3.1-17.1 3.1C371.8 187.9 361.6 184.3 353.9 177.9z" class="j"/><path d="M462.8 163.4c-1.3-30-23-64-73.1-64 -42.9 0-52 40.4-53.7 51.2 1.7-0.9 3.1-2 3.8-2 0.2-4 6.4-29.3 28-40.5 4.4-2.2 20.3-5.8 23.4 21.3 3.8-8 26.7-27.9 47-4.7 7.1 8.8 10.2 33.4 2 43.1 7.8-1.6 16.8 4.3 15.9 18.5C461.2 178.9 463.9 171.1 462.8 163.4z" class="g"/><path d="M462.8 163.4c-1.3-30-23.4-62.6-73.5-62.6 -42.9 0-51.6 38.9-53.2 49.7 1.7-0.9 3.1-2 3.8-2 0.2-4 6.4-29.3 28-40.5 4.4-2.2 20.3-5.8 23.4 21.3 3.8-8 26.7-27.9 47-4.7 7.1 8.8 10.2 33.4 2 43.1 7.8-1.6 16.8 4.3 15.9 18.5C461.2 178.9 463.9 171.1 462.8 163.4z" class="b"/><path d="M446.8 163.2c3.6-14.2 2.3-30.2-6.1-41.7 -8.7-11.9-33.6-14.1-47.7-3.5 -1.1-8.9-9.5-12.3-16.3-15.1 -35 5.3-39.2 37.8-40.7 47.8 1.7-0.9 3.1-2 3.8-2 0.2-4 6.4-29.3 28-40.5 4.4-2.2 20.3-5.8 23.4 21.3 3.8-8 26.7-27.9 47-4.7 7.1 8.8 10.2 33.4 2 43.1 7.8-1.6 16.8 4.3 15.9 18.5 0.2-0.2 0.3-0.5 0.4-0.7C460.7 171.9 456.2 163.2 446.8 163.2z" class="a"/><path d="M455.6 187.7l0.1-1.6c0.5-7.7-2-12.1-4.2-14.4 -2.3-2.5-5.4-3.8-8.8-3.8 -0.8 0-1.6 0.1-2.4 0.2l-1.2 0.2 0.8-1c8.3-9.9 4.8-34.1-2-42.5 -6.2-7.1-13.2-10.7-20.7-10.7 -12.2 0-23 9.8-25.6 15.3l-0.7 1.4 -0.2-1.6c-2.2-19.5-11.2-22.4-16.3-22.4 -3.3 0-5.8 1.1-6.5 1.4 -21.5 11.2-27.6 36-27.8 40.2l0 0.4 -0.4 0c-0.3 0-1 0.5-1.8 0.9 -0.6 0.3-1.2 0.7-1.8 1.1l-0.8 0.4 0.1-0.9c0.8-5.1 3.4-18.2 11.5-29.8 9.9-14.4 24.3-21.7 42.7-21.7 48.8 0 72.1 32.4 73.5 64.5 1 7.3-1.2 15-6.7 22.9L455.6 187.7zM442.7 167c3.6 0 6.9 1.5 9.4 4.1 2.1 2.3 4.6 6.4 4.5 13.5 4.7-7.3 6.6-14.4 5.7-21.1 -1.4-31.7-24.4-63.7-72.7-63.7 -41.2 0-51 37.1-53.1 49.9 0.4-0.2 0.7-0.4 1-0.6 0.7-0.4 1.3-0.8 1.8-1 0.5-5 6.9-29.5 28.3-40.6 0.7-0.4 3.4-1.5 6.9-1.5 5.3 0 14.4 2.9 17 21.8 3.5-5.8 13.9-14.6 25.7-14.6 7.8 0 15 3.7 21.4 11 6.7 8.4 10.3 32.1 2.7 42.8C441.8 167 442.3 167 442.7 167z" class="c"/><path d="M348.3 171.2c0 0 16.8 26.3 52.4 12.4L348.3 171.2z" class="i"/><path d="M380.9 188c-22.1 0-32.8-16.4-33-16.6l0.7-0.5c0.2 0.3 17 25.8 51.8 12.2l0.3 0.8C393.4 186.8 386.8 188 380.9 188z" class="j"/><path d="M359.3 162.9c0 0 14.5-15.5 35.2 1.5L359.3 162.9z" class="i"/><path d="M394.2 164.7c-20.1-16.5-34.4-1.7-34.6-1.5 0 0 2.1-3.5 6.8-5.4 5.2-2.1 12.7-3.1 21.7 1.7C391.2 161.2 394.2 164.7 394.2 164.7z" class="j"/><path d="M370.5 147.6c-4.2 11.1-12.5 18.5-18.5 16.7 -6-1.9-7.5-12.4-3.4-23.4 4.2-11.1 12.5-18.5 18.5-16.7C373.1 126 374.7 136.5 370.5 147.6z" class="h"/><path d="M368.5 147.2c-3.5 9.7-10.5 16.3-15.5 14.6 -5.1-1.6-6.3-10.9-2.8-20.6 3.5-9.7 10.5-16.3 15.6-14.6C370.7 128.3 372 137.5 368.5 147.2z" class="l"/><path d="M367.6 149.3c0.3-0.7 0.6-1.4 0.8-2.1 3.5-9.7 2.2-19-2.8-20.6 -5.1-1.6-12 4.9-15.5 14.6 -1.4 4-2.1 7.8-2 11.1C354.8 154.5 361.3 152.6 367.6 149.3z" class="m"/><path d="M354.5 162.6c-0.6 0-1.2-0.1-1.8-0.3 -5.3-1.7-6.7-11.2-3.1-21.1 3.2-8.8 9.2-15.2 14.3-15.2 0.6 0 1.2 0.1 1.8 0.3 5.3 1.7 6.7 11.2 3.1 21.1C365.7 156.2 359.7 162.6 354.5 162.6zM364 126.8c-4.7 0-10.5 6.3-13.5 14.6 -3.4 9.5-2.3 18.5 2.6 20.1 0.5 0.2 1 0.2 1.5 0.2 4.7 0 10.5-6.3 13.5-14.6 3.4-9.5 2.3-18.5-2.6-20.1C365 126.9 364.5 126.8 364 126.8z" class="n"/><ellipse transform="matrix(0.9587 0.2843 -0.2843 0.9587 57.2748 -95.5972)" cx="357.9" cy="149.5" rx="5.8" ry="10.4" class="o"/><path d="M363.7 150.6c1.4-5.3 0.2-10.3-2.8-11.1 -3.1-0.9-6.9 2.8-8.5 8.3 -0.4 1.5-0.7 2.9-0.7 4.2C355.5 153.5 360.1 152.9 363.7 150.6z" class="p"/><path d="M355.9 160c-0.4 0-0.7-0.1-1.1-0.2 -1.6-0.5-2.8-2-3.3-4.4 -0.5-2.3-0.3-5 0.5-7.8 1.5-5.1 4.9-8.8 8-8.8 0.4 0 0.7 0.1 1.1 0.2 3.3 1 4.6 6.4 2.9 12.1C362.4 156.3 359 160 355.9 160zM359.9 139.7c-2.7 0-5.8 3.5-7.2 8.2 -0.8 2.6-0.9 5.2-0.5 7.4 0.5 2.1 1.5 3.4 2.8 3.8 0.3 0.1 0.6 0.1 0.8 0.1 2.7 0 5.8-3.5 7.2-8.2 1.6-5.3 0.5-10.3-2.4-11.2C360.5 139.8 360.2 139.7 359.9 139.7z" class="q"/><ellipse cx="411.2" cy="155.1" rx="17" ry="24.4" class="h"/><ellipse cx="411.1" cy="156.3" rx="13.8" ry="21.9" class="l"/><path d="M424.9 154c-0.7-11-6.6-19.6-13.8-19.6 -7.6 0-13.8 9.8-13.8 21.9 0 5 1.1 9.6 2.9 13.3C410.9 167.9 420.7 163.8 424.9 154z" class="m"/><path d="M411.1 178.6c-7.9 0-14.3-10-14.3-22.3 0-12.3 6.4-22.3 14.3-22.3s14.3 10 14.3 22.3C425.4 168.6 419 178.6 411.1 178.6zM411.1 134.9c-7.4 0-13.4 9.6-13.4 21.4 0 11.8 6 21.4 13.4 21.4 7.4 0 13.4-9.6 13.4-21.4C424.5 144.5 418.5 134.9 411.1 134.9z" class="n"/><ellipse cx="411.1" cy="161.8" rx="8.1" ry="12.8" class="o"/><path d="M419.2 162.3c0-0.2 0-0.3 0-0.5 0-7.1-3.6-12.8-8.1-12.8 -4.5 0-8.1 5.7-8.1 12.8 0 2 0.3 3.8 0.8 5.5C409.6 169.2 415.9 167.9 419.2 162.3z" class="p"/><path d="M411.1 175c-4.7 0-8.5-5.9-8.5-13.2 0-7.3 3.8-13.2 8.5-13.2 4.7 0 8.5 5.9 8.5 13.2C419.6 169.1 415.8 175 411.1 175zM411.1 149.4c-4.2 0-7.6 5.5-7.6 12.4s3.4 12.4 7.6 12.4 7.6-5.5 7.6-12.4S415.3 149.4 411.1 149.4z" class="q"/><ellipse cx="411" cy="164.8" rx="5.5" ry="7.2"/><ellipse cx="411.1" cy="158.9" rx="3.3" ry="3.3" class="r"/><ellipse cx="405.7" cy="162.1" rx="2.1" ry="2.2" class="r"/><ellipse transform="matrix(0.9787 0.2053 -0.2053 0.9787 38.8568 -70.0512)" cx="356.9" cy="152.2" rx="3.7" ry="5.7"/><ellipse cx="357.8" cy="147.3" rx="2.4" ry="2.2" class="r"/><ellipse cx="354.4" cy="150" rx="1.2" ry="1.3" class="r"/><path d="M411.6 110.8c0 0 9.1-17.3 31.6-22.2 5.7-1.3 11.5 1.2 8.5 7.4C449 101.6 421.7 94.5 411.6 110.8z" class="a"/><path d="M411.6 110.8c0.4-0.7 0.9-1.3 1.4-2 -0.2 0.2-0.4 0.4-0.6 0.6C411.8 110.3 411.6 110.8 411.6 110.8z" class="b"/><path d="M443.2 88.6c-18.7 4-28.1 16.7-30.8 20.8 0.2-0.2 0.4-0.4 0.6-0.6 1.3-1.6 2.8-3 4.4-4.1 9.6-7.8 21.7-11.8 34-14.5C449.9 88.4 446.5 87.8 443.2 88.6z" class="b"/><path d="M450.8 89.6c-1.6-1.2-4-1.6-6.6-1.2C444.9 91.9 450.8 90.6 450.8 89.6z" class="s"/><path d="M411.9 111l-0.8-0.4c0.1-0.2 9.4-17.6 31.9-22.4 1-0.2 2-0.4 3-0.4 2.9 0 5.1 1 6.2 2.7 0.7 1.1 1.2 2.9-0.2 5.7 -1.1 2.3-5.4 2.7-11.4 3.1C431.2 100 418.2 101 411.9 111zM446.1 88.7c-0.9 0-1.9 0.1-2.8 0.3 -13.7 2.9-22.4 10.6-27 16 7-5.3 16.8-6.1 24.4-6.7 5.3-0.4 9.8-0.7 10.7-2.6 0.9-1.9 1-3.6 0.2-4.9C450.6 89.5 448.6 88.7 446.1 88.7z" class="c"/><path d="M380 105.5c0 0-9.1-17.3-31.6-22.2 -5.7-1.3-11.5 1.2-8.5 7.4C342.6 96.3 369.9 89.2 380 105.5z" class="a"/><path d="M378.8 103.5c-3.1-4.7-12.5-16.4-30.4-20.2 -4.5-1-8.9 0.3-9.3 3.8C354.2 89 368.7 92.4 378.8 103.5z" fill="#2D2D2D"/><path d="M351.3 84c-0.9-0.3-1.9-0.5-2.8-0.7 -4.4-1-8.8 0.3-9.3 3.8C343.6 87.2 348.3 86.5 351.3 84z" class="s"/><path d="M339.2 87.1c-0.1 1 0.1 2.2 0.8 3.6 2.7 5.6 29.9-1.4 40.1 14.8 0 0-0.4-0.8-1.2-2C368.7 92.4 354.2 89 339.2 87.1z" class="b"/><path d="M379.7 105.7c-6.3-10-19.2-11-28.7-11.7 -6-0.5-10.3-0.8-11.4-3.1 -1.4-2.8-0.9-4.7-0.2-5.7 1.1-1.7 3.3-2.7 6.2-2.7 1 0 2 0.1 3 0.4 22.5 4.8 31.8 22.2 31.9 22.4L379.7 105.7zM345.5 83.4c-2.5 0-4.5 0.8-5.4 2.2 -0.8 1.2-0.7 2.9 0.2 4.9 0.9 1.9 5.4 2.2 10.7 2.6 7.6 0.6 17.4 1.3 24.4 6.7 -4.7-5.4-13.4-13.1-27-16C347.4 83.5 346.4 83.4 345.5 83.4z" class="c"/><ellipse transform="matrix(0.7751 -0.6318 0.6318 0.7751 -18.2155 362.8814)" cx="500.6" cy="207" rx="7.2" ry="9.3" class="t"/><ellipse transform="matrix(0.8502 -0.5264 0.5264 0.8502 -50.5228 312.9081)" cx="524.6" cy="245.2" rx="11" ry="16.5" class="t"/><ellipse cx="542.1" cy="284.2" rx="6.3" ry="11" class="f"/><g opacity="0.3"><path d="M531.7 225.7c-20.6-28-43.3-39.3-61.6-42 2.2 2.4 1.9 3.2 2.6 4.4 51.4 27.4 71.8 55.2 75.2 109C553.8 277.5 551.4 252.5 531.7 225.7z" class="r"/></g><path d="M413.9 119.2c1.1-4.7 18.3 2.6 14.3 12.9C422.1 119.7 413.4 121.2 413.9 119.2z" class="b"/><path d="M428.2 133.2l-0.4-0.9c-4.1-8.3-9.3-10.2-12.1-11.2 -1.4-0.5-2.5-0.9-2.2-1.9 0.3-1.2 1.3-1.8 3-1.8 3.2 0 8.4 2.4 11.1 6.4 1.8 2.7 2.2 5.6 1.1 8.5L428.2 133.2zM416.4 118.2c-0.8 0-1.9 0.2-2.1 1.1 -0.1 0.3 0.7 0.6 1.7 0.9 2.8 1 7.9 2.9 12.1 10.7 0.7-2.8-0.3-5.2-1.3-6.7C424.3 120.6 419.5 118.2 416.4 118.2z" class="c"/><path d="M376.7 115.3c0.6-4.8-18.1-3.7-17.8 7.3C368.9 113 376.5 117.4 376.7 115.3z" class="b"/><path d="M358.6 123.7l0-1c-0.1-2.5 0.8-4.7 2.5-6.5 2.9-3 7.5-4 10.6-4 2.4 0 4.2 0.6 5.1 1.5 0.4 0.5 0.6 1.1 0.5 1.7 -0.1 1-1.2 1.1-2.8 1.1 -3 0-8.5 0.1-15.2 6.5L358.6 123.7zM371.6 113c-2.9 0-7.2 1-9.9 3.7 -1.3 1.4-2.1 3-2.2 4.8 6.5-5.9 12-6 15-6 1 0 1.9 0 1.9-0.3 0-0.4-0.1-0.7-0.3-1C375.3 113.5 373.6 113 371.6 113z" class="c"/><path d="M344.4 157c0 0 12.4-1.5 13.2 8.4h-8.9L344.4 157z" class="i"/><path d="M357.5 165.8c-0.8-9.3-13.1-8.8-13.6-8.7 0 0 5.1-1.5 10 1.4C359.3 162.9 357.5 165.8 357.5 165.8z" class="j"/><path d="M401.1 176.5c0 0 13.7-5.1 18.8 1.6l-10 4.9L401.1 176.5z" class="i"/><path d="M420.1 178.4c-4.9-6.4-19.1-1.8-19.2-1.8 0 0 4.5-2.6 10.3-2.6C418.1 174.1 420.1 178.4 420.1 178.4z" class="j"/><path d="M339.8 169.6c0 0 7.1 4 11.5 0H339.8z" class="i"/><path d="M346 171.8c-4-0.2-6-2.6-6-2.6 0.1 0 6.8 3.8 11 0.1C351 169.3 350.5 171.4 346 171.8z" class="j"/><path d="M399.2 182c0 0 4.4 5.7 12.6 6L399.2 182z" class="i"/><path d="M404.1 186.4c-4.6-2.5-4.6-4.7-4.6-4.7 0 0.1 4.4 5.6 12.3 5.8C411.8 187.5 407.6 188.4 404.1 186.4z" class="j"/><ellipse cx="368.6" cy="202.8" rx="4.3" ry="1.4" fill="#FCC5DD"/><ellipse transform="matrix(0.9951 0.0985 -0.0985 0.9951 18.155 -36.1758)" cx="375.6" cy="165.8" rx="9.6" ry="5.1" fill="#F9EEE1"/><path d="M496.6 259.4c7.2 7.8 7.9 18.9 1.6 24.7 -6.3 5.9-17.3 4.3-24.5-3.5 -7.2-7.8-7.9-18.9-1.6-24.7S489.4 251.6 496.6 259.4z" class="f"/><ellipse transform="matrix(0.9487 -0.3163 0.3163 0.9487 -60.8264 146.1007)" cx="419.6" cy="260.4" rx="15.6" ry="19.2" class="b"/><ellipse transform="matrix(0.917 -0.3988 0.3988 0.917 -85.4718 224.6015)" cx="497" cy="317.7" rx="10.8" ry="13.3" class="f"/><path d="M463 301.4c6.6 6.7 7.6 16.4 2.1 21.8 -5.4 5.4-15.2 4.3-21.8-2.4 -6.6-6.7-7.6-16.4-2.1-21.8C446.7 293.6 456.4 294.7 463 301.4z" class="b"/></svg>