<svg version="1.1" id="Layer_1" xmlns="http://www.w3.org/2000/svg" xmlns:xlink="http://www.w3.org/1999/xlink" viewBox="0 0 768 430" xml:space="preserve">
<polygon fill="#DDE4D0" points="369.5,51 368.5,49.3 363,52.5 351.4,166.5 258.3,220.3 258.3,230.7 399.7,312.3 499.3,254.9 
	511.1,130.4 370.1,49 369.5,49 369,49 368.5,49.3 369.5,51 369.5,53 369.5,53 369.5,51 368.5,52.7 506.9,132.6 495.5,252.4 
	399.7,307.7 262.3,228.3 262.3,222.6 355.1,169 366.8,54.9 370.5,52.7 369.5,51 369.5,53 "/>
<polygon fill="#DDE4D0" points="353.2,167.8 492.7,248.3 504.3,134.2 364.9,53.7 "/>
<polygon fill="#DDE4D0" points="492.7,248.3 493.7,246.6 353.2,165.5 256.3,221.4 399.7,304.3 496.7,248.3 493.7,246.6 492.7,248.3 
	491.7,246.6 399.7,299.7 264.3,221.4 353.2,170.1 491.7,250 492.7,248.3 491.7,246.6 "/>
<polygon fill="#DDE4D0" points="364.9,268.4 365.9,270.2 392.1,255 341.6,225.9 314.4,241.6 364.9,270.7 365.9,270.2 364.9,268.4 
	365.9,266.7 322.4,241.6 341.6,230.5 384.1,255 363.9,266.7 364.9,268.4 365.9,266.7 "/>
<polygon fill="#DDE4D0" points="353.2,181.2 352.2,179.5 314.4,201.3 434.6,270.7 473.5,248.3 353.2,178.9 352.2,179.5 353.2,181.2 
	352.2,182.9 465.5,248.3 434.6,266.1 322.4,201.3 354.2,182.9 353.2,181.2 352.2,182.9 "/>
</svg>
