<svg version="1.1" xmlns="http://www.w3.org/2000/svg"   viewBox="0 0 768 430" enable-background="new 0 0 768 430" xml:space="preserve"><polygon fill="#DDE4D0" points="369.5 85 368.5 83.3 363 86.5 351.4 200.5 258.3 254.3 258.3 264.7 399.7 346.3 499.3 288.9 511.1 164.4 370.1 83 369.5 83 369 83 368.5 83.3 369.5 85 369.5 87 369.5 87 369.5 85 368.5 86.7 506.9 166.6 495.5 286.4 399.7 341.7 262.3 262.3 262.3 256.6 355.1 203 366.8 88.9 370.5 86.7 369.5 85 369.5 87 "/><polygon fill="#DDE4D0" points="353.2 201.8 492.7 282.3 504.3 168.2 364.9 87.7 "/><polygon fill="#DDE4D0" points="492.7 282.3 493.7 280.6 353.2 199.5 256.3 255.4 399.7 338.3 496.7 282.3 493.7 280.6 492.7 282.3 491.7 280.6 399.7 333.7 264.3 255.4 353.2 204.1 491.7 284 492.7 282.3 491.7 280.6 "/><polygon fill="#DDE4D0" points="364.9 302.4 365.9 304.2 392.1 289 341.6 259.9 314.4 275.6 364.9 304.7 365.9 304.2 364.9 302.4 365.9 300.7 322.4 275.6 341.6 264.5 384.1 289 363.9 300.7 364.9 302.4 365.9 300.7 "/><polygon fill="#DDE4D0" points="353.2 215.2 352.2 213.5 314.4 235.3 434.6 304.7 473.5 282.3 353.2 212.9 352.2 213.5 353.2 215.2 352.2 216.9 465.5 282.3 434.6 300.1 322.4 235.3 354.2 216.9 353.2 215.2 352.2 216.9 "/></svg>