<svg version="1.1" id="Layer_1" xmlns="http://www.w3.org/2000/svg" xmlns:xlink="http://www.w3.org/1999/xlink" x="0px" y="0px"
	 viewBox="0 0 768 430" enable-background="new 0 0 768 430" xml:space="preserve">
<g>
	<g>
		<g>
			<path fill="#57438E" d="M247.302,146.633L403.405,57.21c2.804-1.607,6.445-2.373,9.596-1.646c4.423,1.02,8.572,2.412,8.562,6.284
				l0.235,145.095l-13.733,8.114c4.494,2.188,141.521,68.882,141.747,69.047l0.33,5.597c0,2.417-1.277,4.643-3.367,5.854
				c-23.324,13.509-159.96,92.496-159.96,92.496c-4.495,2.6-10.036,2.6-14.532,0l-129.866-75.062
				c-1.354-0.782-2.189-2.228-2.192-3.793L240,159.196C240.013,154.004,242.797,149.213,247.302,146.633z"/>
			<g>
				<path fill="#381E60" d="M244.6,308.703L421.937,207.52l0.365-144.776c0.011-4.182-4.507-6.809-8.137-4.73l-163.532,93.68
					c-3.561,2.039-5.76,5.825-5.771,9.927L244.6,308.703z"/>
				<polygon fill="#381E60" points="415.004,66.419 252.655,159.606 252.317,295.901 415.004,202.511 				"/>
			</g>
			<g>
				<path fill="#FFF9FF" d="M244.701,308.69l177.244-102.216l125.347,72.446c3.62,2.094,3.62,7.319,0,9.411l-163.177,94.298
					c-3.553,2.053-7.931,2.053-11.484,0L244.701,308.69z"/>
			</g>
			<g>
				<g>
					<path fill="#57438E" d="M293.757,311.835c-3.53,2.028-5.294,3.041-8.825,5.069c-3.568-2.02-5.353-3.028-8.922-5.045
						c3.531-2.026,5.294-3.041,8.825-5.067C288.404,308.809,290.188,309.818,293.757,311.835z"/>
					<path fill="#57438E" d="M306.782,304.356c-3.529,2.026-5.294,3.039-8.825,5.067c-3.569-2.019-5.354-3.027-8.922-5.044
						c3.53-2.026,5.295-3.041,8.825-5.067C301.429,301.329,303.214,302.338,306.782,304.356z"/>
					<path fill="#57438E" d="M319.809,296.876c-3.53,2.026-5.295,3.041-8.825,5.067c-3.568-2.017-5.353-3.025-8.922-5.043
						c3.53-2.027,5.295-3.04,8.825-5.068C314.456,293.85,316.24,294.857,319.809,296.876z"/>
					<path fill="#57438E" d="M332.835,289.396c-3.53,2.027-5.295,3.041-8.826,5.068c-3.569-2.018-5.354-3.027-8.922-5.045
						c3.53-2.026,5.295-3.04,8.826-5.067C327.482,286.368,329.267,287.378,332.835,289.396z"/>
					<path fill="#57438E" d="M345.862,281.915c-3.53,2.026-5.295,3.041-8.825,5.067c-3.569-2.017-5.354-3.025-8.922-5.042
						c3.53-2.029,5.295-3.041,8.825-5.07C340.509,278.89,342.292,279.898,345.862,281.915z"/>
					<path fill="#57438E" d="M358.889,274.434c-3.53,2.028-5.295,3.041-8.826,5.068c-3.568-2.018-5.353-3.025-8.921-5.043
						c3.529-2.026,5.295-3.041,8.826-5.067C353.536,271.408,355.32,272.417,358.889,274.434z"/>
					<path fill="#57438E" d="M371.916,266.954c-3.53,2.026-5.295,3.041-8.825,5.067c-3.569-2.018-5.354-3.026-8.922-5.043
						c3.531-2.026,5.296-3.041,8.826-5.067C366.562,263.928,368.346,264.936,371.916,266.954z"/>
					<path fill="#57438E" d="M384.942,259.474c-3.53,2.027-5.295,3.041-8.826,5.067c-3.568-2.017-5.352-3.025-8.921-5.042
						c3.53-2.028,5.295-3.041,8.825-5.069C379.589,256.448,381.374,257.456,384.942,259.474z"/>
					<path fill="#57438E" d="M397.97,251.992c-3.531,2.028-5.296,3.041-8.826,5.068c-3.568-2.018-5.353-3.025-8.921-5.043
						c3.529-2.028,5.295-3.041,8.825-5.067C392.615,248.967,394.4,249.976,397.97,251.992z"/>
					<path fill="#57438E" d="M410.996,244.514c-3.531,2.026-5.295,3.041-8.826,5.067c-3.568-2.017-5.353-3.025-8.922-5.044
						c3.53-2.026,5.295-3.039,8.826-5.067C405.642,241.487,407.427,242.496,410.996,244.514z"/>
					<path fill="#57438E" d="M424.021,237.033c-3.529,2.025-5.294,3.04-8.825,5.066c-3.566-2.017-5.352-3.025-8.921-5.042
						c3.531-2.027,5.295-3.041,8.826-5.067C418.668,234.007,420.453,235.016,424.021,237.033z"/>
					<path fill="#57438E" d="M437.047,229.553c-3.529,2.028-5.295,3.041-8.825,5.068c-3.568-2.018-5.354-3.025-8.922-5.043
						c3.529-2.028,5.296-3.041,8.825-5.068C431.692,226.527,433.479,227.536,437.047,229.553z"/>
					<path fill="#57438E" d="M306.28,318.915c-3.53,2.026-5.295,3.041-8.825,5.067c-3.569-2.019-5.354-3.026-8.923-5.043
						c3.53-2.028,5.294-3.041,8.825-5.069C300.926,315.889,302.711,316.897,306.28,318.915z"/>
					<path fill="#57438E" d="M319.306,311.435c-3.53,2.027-5.295,3.04-8.825,5.068c-3.569-2.019-5.354-3.026-8.923-5.044
						c3.53-2.027,5.296-3.041,8.825-5.067C313.951,308.408,315.737,309.417,319.306,311.435z"/>
					<path fill="#57438E" d="M332.332,303.954c-3.531,2.029-5.295,3.041-8.825,5.067c-3.569-2.017-5.354-3.025-8.922-5.043
						c3.529-2.026,5.294-3.041,8.825-5.067C326.979,300.929,328.762,301.938,332.332,303.954z"/>
					<path fill="#57438E" d="M345.358,296.476c-3.529,2.026-5.295,3.04-8.825,5.067c-3.569-2.02-5.354-3.027-8.923-5.044
						c3.531-2.027,5.295-3.041,8.826-5.068C340.004,293.448,341.789,294.456,345.358,296.476z"/>
					<path fill="#57438E" d="M358.385,288.994c-3.531,2.026-5.295,3.041-8.826,5.068c-3.569-2.018-5.354-3.025-8.923-5.045
						c3.53-2.026,5.295-3.041,8.825-5.067C353.032,285.967,354.816,286.977,358.385,288.994z"/>
					<path fill="#57438E" d="M371.412,281.514c-3.53,2.027-5.295,3.041-8.826,5.067c-3.569-2.017-5.353-3.025-8.922-5.042
						c3.531-2.029,5.295-3.041,8.826-5.07C366.058,278.487,367.843,279.496,371.412,281.514z"/>
					<path fill="#57438E" d="M384.438,274.033c-3.53,2.027-5.295,3.042-8.825,5.068c-3.568-2.019-5.354-3.026-8.924-5.045
						c3.531-2.027,5.296-3.04,8.826-5.067C379.085,271.006,380.869,272.016,384.438,274.033z"/>
					<path fill="#57438E" d="M397.466,266.553c-3.53,2.026-5.296,3.041-8.825,5.067c-3.569-2.017-5.354-3.026-8.923-5.043
						c3.53-2.027,5.295-3.041,8.825-5.069C392.112,263.526,393.896,264.536,397.466,266.553z"/>
					<path fill="#57438E" d="M410.494,259.072c-3.531,2.027-5.297,3.04-8.828,5.067c-3.568-2.018-5.353-3.025-8.922-5.044
						c3.531-2.027,5.296-3.04,8.826-5.067C405.139,256.046,406.923,257.055,410.494,259.072z"/>
					<path fill="#57438E" d="M423.518,251.592c-3.529,2.027-5.293,3.041-8.824,5.068c-3.569-2.019-5.355-3.026-8.923-5.044
						c3.53-2.026,5.296-3.041,8.824-5.068C418.165,248.565,419.949,249.573,423.518,251.592z"/>
					<path fill="#57438E" d="M436.545,244.113c-3.53,2.026-5.297,3.039-8.825,5.067c-3.569-2.019-5.354-3.027-8.923-5.046
						c3.53-2.026,5.294-3.039,8.824-5.067C431.19,241.086,432.976,242.095,436.545,244.113z"/>
					<path fill="#57438E" d="M449.569,236.632c-5.918,3.399-8.878,5.099-14.795,8.498c-3.568-2.019-5.354-3.027-8.923-5.046
						c5.919-3.398,8.877-5.097,14.795-8.495C444.217,233.606,446,234.615,449.569,236.632z"/>
					<path fill="#57438E" d="M324.634,322.646c-5.862,3.367-8.793,5.05-14.655,8.416c-3.569-2.018-5.354-3.027-8.923-5.044
						c5.862-3.367,8.793-5.05,14.655-8.416C319.28,319.62,321.064,320.629,324.634,322.646z"/>
					<path fill="#57438E" d="M331.829,318.515c-3.53,2.026-5.295,3.041-8.825,5.067c-3.569-2.018-5.354-3.026-8.922-5.043
						c3.53-2.029,5.294-3.041,8.825-5.069C326.475,315.488,328.26,316.496,331.829,318.515z"/>
					<path fill="#57438E" d="M344.855,311.033c-3.53,2.028-5.295,3.041-8.826,5.068c-3.569-2.018-5.354-3.025-8.923-5.044
						c3.53-2.027,5.295-3.041,8.825-5.068C339.501,308.008,341.286,309.017,344.855,311.033z"/>
					<path fill="#57438E" d="M357.882,303.554c-3.531,2.026-5.295,3.041-8.826,5.067c-3.569-2.018-5.354-3.026-8.923-5.043
						c3.531-2.026,5.296-3.041,8.826-5.067C352.528,300.527,354.312,301.536,357.882,303.554z"/>
					<path fill="#57438E" d="M370.909,296.073c-3.531,2.027-5.295,3.041-8.827,5.067c-3.569-2.017-5.354-3.025-8.922-5.044
						c3.529-2.026,5.294-3.041,8.825-5.067C365.555,293.046,367.338,294.056,370.909,296.073z"/>
					<path fill="#57438E" d="M383.937,288.592c-3.532,2.029-5.297,3.041-8.827,5.07c-3.569-2.02-5.353-3.027-8.924-5.046
						c3.531-2.026,5.295-3.04,8.826-5.067C378.582,285.566,380.366,286.575,383.937,288.592z"/>
					<path fill="#57438E" d="M396.961,281.113c-3.53,2.026-5.294,3.041-8.825,5.067c-3.568-2.017-5.353-3.027-8.922-5.044
						c3.53-2.027,5.295-3.041,8.826-5.068C391.607,278.086,393.393,279.094,396.961,281.113z"/>
					<path fill="#57438E" d="M409.989,273.632c-3.53,2.027-5.296,3.041-8.825,5.068c-3.57-2.018-5.354-3.025-8.924-5.045
						c3.53-2.026,5.295-3.041,8.825-5.067C404.636,270.604,406.42,271.615,409.989,273.632z"/>
					<path fill="#57438E" d="M423.016,266.152c-3.53,2.026-5.294,3.04-8.825,5.067c-3.569-2.018-5.354-3.026-8.923-5.045
						c3.529-2.027,5.296-3.039,8.824-5.067C417.662,263.126,419.445,264.135,423.016,266.152z"/>
					<path fill="#57438E" d="M436.041,258.671c-3.53,2.027-5.295,3.042-8.825,5.068c-3.568-2.017-5.353-3.027-8.921-5.044
						c3.528-2.027,5.294-3.041,8.825-5.068C430.688,255.645,432.472,256.654,436.041,258.671z"/>
					<path fill="#57438E" d="M449.067,251.192c-3.529,2.026-5.295,3.039-8.825,5.067c-3.568-2.019-5.353-3.027-8.923-5.045
						c3.531-2.027,5.295-3.04,8.825-5.066C443.713,248.165,445.499,249.174,449.067,251.192z"/>
					<path fill="#57438E" d="M462.092,243.712c-3.528,2.027-5.294,3.04-8.822,5.066c-3.569-2.017-5.354-3.025-8.924-5.044
						c3.53-2.026,5.295-3.041,8.825-5.066C456.739,240.686,458.523,241.694,462.092,243.712z"/>
					<path fill="#57438E" d="M331.327,333.073c-3.53,2.027-5.295,3.041-8.825,5.067c-3.569-2.019-5.354-3.026-8.923-5.044
						c3.53-2.026,5.295-3.041,8.824-5.067C325.973,330.046,327.757,331.056,331.327,333.073z"/>
					<path fill="#57438E" d="M344.352,325.594c-3.53,2.027-5.294,3.04-8.825,5.068c-3.569-2.02-5.354-3.028-8.922-5.045
						c3.529-2.026,5.294-3.041,8.824-5.067C338.999,322.566,340.783,323.575,344.352,325.594z"/>
					<path fill="#57438E" d="M357.378,318.114c-3.529,2.026-5.294,3.04-8.825,5.066c-3.569-2.017-5.354-3.025-8.923-5.044
						c3.53-2.027,5.295-3.039,8.825-5.068C352.024,315.087,353.809,316.097,357.378,318.114z"/>
					<path fill="#57438E" d="M370.406,310.634c-3.531,2.026-5.296,3.041-8.827,5.067c-3.569-2.017-5.354-3.026-8.922-5.045
						c3.53-2.026,5.295-3.04,8.826-5.067C365.051,307.605,366.836,308.616,370.406,310.634z"/>
					<path fill="#57438E" d="M383.432,303.152c-3.53,2.028-5.295,3.041-8.825,5.067c-3.569-2.017-5.354-3.025-8.922-5.043
						c3.529-2.027,5.295-3.04,8.825-5.067C378.078,300.127,379.863,301.136,383.432,303.152z"/>
					<path fill="#57438E" d="M396.459,295.672c-3.53,2.027-5.297,3.041-8.826,5.068c-3.568-2.018-5.354-3.026-8.922-5.043
						c3.529-2.029,5.294-3.041,8.825-5.07C391.104,292.646,392.891,293.654,396.459,295.672z"/>
					<path fill="#57438E" d="M409.484,288.191c-3.529,2.028-5.295,3.041-8.825,5.068c-3.569-2.018-5.354-3.025-8.922-5.044
						c3.53-2.026,5.294-3.041,8.825-5.067C404.132,285.165,405.918,286.175,409.484,288.191z"/>
					<path fill="#57438E" d="M422.512,280.711c-3.529,2.027-5.295,3.041-8.825,5.068c-3.569-2.018-5.354-3.026-8.923-5.044
						c3.529-2.027,5.296-3.041,8.825-5.068C417.16,277.686,418.943,278.694,422.512,280.711z"/>
					<path fill="#57438E" d="M435.539,273.229c-3.53,2.029-5.296,3.041-8.825,5.07c-3.569-2.02-5.354-3.027-8.923-5.045
						c3.53-2.027,5.294-3.041,8.825-5.068C430.186,270.204,431.97,271.213,435.539,273.229z"/>
					<path fill="#57438E" d="M448.565,265.751c-3.53,2.026-5.296,3.041-8.825,5.067c-3.57-2.017-5.354-3.027-8.923-5.044
						c3.53-2.026,5.294-3.041,8.825-5.067C443.212,262.725,444.995,263.734,448.565,265.751z"/>
					<path fill="#57438E" d="M467.218,255.039c-5.78,3.32-8.671,4.979-14.452,8.3c-3.569-2.019-5.354-3.026-8.921-5.044
						c5.779-3.32,8.669-4.98,14.451-8.3C461.864,252.014,463.649,253.022,467.218,255.039z"/>
					<path fill="#57438E" d="M474.616,250.792c-3.53,2.026-5.294,3.039-8.825,5.066c-3.567-2.018-5.354-3.026-8.922-5.044
						c3.529-2.027,5.295-3.04,8.825-5.066C469.263,247.765,471.047,248.773,474.616,250.792z"/>
					<path fill="#57438E" d="M345.58,341.132c-3.53,2.026-5.294,3.039-8.824,5.066c-3.568-2.018-5.353-3.025-8.922-5.044
						c3.53-2.026,5.295-3.041,8.825-5.067C340.227,338.104,342.012,339.113,345.58,341.132z"/>
					<path fill="#57438E" d="M358.605,333.65c-3.529,2.028-5.294,3.041-8.824,5.067c-3.569-2.017-5.354-3.025-8.922-5.042
						c3.53-2.028,5.295-3.041,8.824-5.067C353.252,330.625,355.037,331.634,358.605,333.65z"/>
					<path fill="#57438E" d="M371.632,326.171c-3.53,2.026-5.295,3.041-8.825,5.067c-3.568-2.017-5.353-3.025-8.922-5.043
						c3.529-2.027,5.295-3.041,8.825-5.068C366.279,323.146,368.064,324.154,371.632,326.171z"/>
					<path fill="#57438E" d="M449.793,281.288c-24.653,14.157-49.307,28.313-73.96,42.472c-3.569-2.02-5.353-3.027-8.921-5.045
						c24.653-14.156,49.307-28.313,73.958-42.471C444.439,278.263,446.224,279.271,449.793,281.288z"/>
					<path fill="#57438E" d="M462.818,273.809c-3.529,2.026-5.295,3.04-8.825,5.067c-3.569-2.018-5.353-3.026-8.921-5.043
						c3.529-2.026,5.295-3.041,8.824-5.067C457.466,270.782,459.249,271.792,462.818,273.809z"/>
					<path fill="#57438E" d="M475.845,266.328c-3.53,2.028-5.295,3.041-8.825,5.067c-3.568-2.017-5.354-3.025-8.922-5.042
						c3.529-2.028,5.296-3.041,8.826-5.068C470.492,263.303,472.276,264.311,475.845,266.328z"/>
					<path fill="#57438E" d="M488.87,258.849c-3.53,2.026-5.296,3.04-8.825,5.068c-3.567-2.019-5.354-3.026-8.921-5.045
						c3.53-2.026,5.294-3.039,8.824-5.066C483.517,255.823,485.3,256.831,488.87,258.849z"/>
				</g>
			</g>
			<polygon fill="#57438E" points="389.36,327.39 450.176,292.277 484.928,313.688 424.135,348.813 			"/>
		</g>
		<g>
			<g>
				<polygon fill="#806CBE" points="389.812,154.804 400.368,148.709 400.368,149.153 389.995,155.143 				"/>
			</g>
			<g>
				<polygon fill="#806CBE" points="381.718,159.921 381.512,159.596 385.618,157.226 385.42,157.784 				"/>
			</g>
			<g>
				<polygon fill="#806CBE" points="394.639,163.761 400.401,160.435 400.402,160.864 394.815,164.09 				"/>
			</g>
			<g enable-background="new    ">
				<g>
					<polygon fill="#8E90FF" points="394.815,164.09 400.441,174.53 393.494,178.541 374.111,189.731 383.606,162.907 
						385.42,157.784 385.618,157.226 387.799,151.066 389.812,154.804 389.995,155.143 394.639,163.761 					"/>
				</g>
				<g>
					<polygon fill="#87CEFF" points="381.718,159.921 383.606,162.907 374.111,189.731 367.026,187.047 370.406,178.183 
						370.617,177.631 376.141,163.142 376.357,162.572 379.004,155.63 381.512,159.596 					"/>
				</g>
				<g>
					<polygon fill="#8E90FF" points="359.797,184.308 367.026,187.047 374.111,189.731 363.714,195.733 345.55,206.221 
						357.395,187.722 359.453,184.505 359.623,184.242 					"/>
				</g>
				<g>
					<polygon fill="#806CBE" points="356.296,186.329 356.062,186.033 370.617,177.631 370.406,178.183 359.797,184.308 
						359.623,184.242 359.453,184.505 					"/>
				</g>
				<g>
					<polygon fill="#87CEFF" points="356.296,186.329 357.395,187.722 345.55,206.221 342.787,200.84 346.476,191.999 
						346.712,191.432 351.42,180.148 356.062,186.033 					"/>
				</g>
				<g>
					<polygon fill="#806CBE" points="340.129,195.663 339.958,195.331 346.712,191.432 346.476,191.999 					"/>
				</g>
				<g>
					<polygon fill="#806CBE" points="335.482,186.615 335.307,186.272 376.357,162.572 376.141,163.142 					"/>
				</g>
				<g>
					<polygon fill="#8E90FF" points="340.129,195.663 342.787,200.84 345.55,206.221 338.952,210.03 321.802,219.933 
						329.663,194.481 331.356,188.998 331.523,188.457 333.366,182.493 335.307,186.272 335.482,186.615 339.958,195.331 					"/>
				</g>
				<g>
					<polygon fill="#806CBE" points="327.662,191.131 327.464,190.801 331.523,188.457 331.356,188.998 					"/>
				</g>
				<g>
					<polygon fill="#806CBE" points="321.914,181.511 400.332,136.236 400.334,136.68 322.111,181.841 					"/>
				</g>
				<g>
					<polygon fill="#806CBE" points="400.299,124.511 400.302,124.955 268.41,201.102 267.903,201.394 267.902,200.951 
						268.41,200.658 					"/>
				</g>
			</g>
			<g>
				<polygon fill="#806CBE" points="267.935,212.676 268.442,212.383 318.894,183.255 318.668,183.829 268.443,212.827 
					267.937,213.119 				"/>
			</g>
			<g>
				<polygon fill="#806CBE" points="308.065,202.445 307.825,202.14 312.573,199.398 312.348,199.973 				"/>
			</g>
			<g>
				<polygon fill="#806CBE" points="268.004,236.873 268.511,236.581 277.965,231.123 277.678,231.719 268.512,237.012 
					268.006,237.303 				"/>
			</g>
			<g enable-background="new    ">
				<g>
					<polygon fill="#8E90FF" points="308.065,202.445 310.277,205.261 321.802,219.933 299.488,232.814 281.504,243.197 
						289.25,224.162 295.024,209.974 295.26,209.393 301.493,194.079 307.825,202.14 					"/>
				</g>
				<g>
					<polygon fill="#87CEFF" points="283.611,219.395 289.25,224.162 281.504,243.197 268.551,250.676 277.678,231.719 
						277.965,231.123 					"/>
				</g>
				<g>
					<polygon fill="#806CBE" points="267.971,225.149 268.478,224.855 295.26,209.393 295.024,209.974 268.479,225.299 
						267.972,225.592 					"/>
				</g>
			</g>
			<g>
				<polygon fill="#87CEFF" points="327.662,191.131 329.663,194.481 321.802,219.933 310.277,205.261 312.348,199.973 
					312.573,199.398 318.668,183.829 318.894,183.255 320.501,179.147 321.914,181.511 322.111,181.841 327.464,190.801 				"/>
			</g>
			<g>
				<polygon fill="#806CBE" points="400.263,111.303 400.264,111.732 267.866,188.172 267.865,187.743 				"/>
			</g>
			<g>
				<polygon fill="#806CBE" points="268.374,188.102 268.41,200.658 267.902,200.951 267.903,201.394 268.41,201.102 
					268.442,212.383 267.936,212.676 267.937,213.119 268.444,212.827 268.478,224.855 267.971,225.149 267.972,225.592 
					268.479,225.299 268.511,236.581 268.004,236.873 268.006,237.303 268.512,237.012 268.551,250.676 400.995,174.209 
					400.998,174.792 268.046,251.552 267.867,188.394 				"/>
			</g>
		</g>
		<path opacity="0.2" fill="#FFF9FF" d="M414.165,58.014l-163.532,93.68c-3.561,2.039-5.76,5.825-5.771,9.927L244.6,308.703
			l5.334-3.044c31.801-46.998,151.627-224.153,167.34-248.345C416.246,57.234,415.174,57.437,414.165,58.014z"/>
	</g>
</g>
</svg>
