<svg xmlns="http://www.w3.org/2000/svg" viewBox="0 0 768 430"><style>.a{fill:#FFA100;}.b{fill:#FFC400;}.c{fill:#FF6F00;}.d{fill:#FFDDA3;}.e{fill:#FFF4E0;}.f{fill:#BF954D;}.g{fill:#FF7D7D;}.h{fill:#4C1400;}.i{fill:#601802;}.j{fill:#7C200A;}.k{fill:#280B00;}.l{fill:#351101;}.m{fill:#EFEFEF;}.n{fill:#FFF;}.o{fill:#591B02;}</style><path d="M430.6 305.7l10.1 30.2c-4.2 3.9-20.9 14.9-20.9 14.9 -3.9-10.7-9.6-26.6-9.6-26.6C416.3 319.2 430.6 305.7 430.6 305.7z" class="a"/><path d="M425.8 314.1l10.7 25.7c-4.2 3.9-16.7 11-16.7 11 -3.9-10.7-9.6-26.6-9.6-26.6C416.3 319.2 425.8 314.1 425.8 314.1z" class="b"/><path d="M419.7 351.3l-0.1-0.4c-3.9-10.7-9.6-26.6-9.6-26.6l-0.1-0.2 0.2-0.1c5.9-5 20.1-18.4 20.3-18.5l0.3-0.3 10.4 30.8 -0.1 0.1c-4.2 3.9-20.8 14.8-20.9 15L419.7 351.3zM410.6 324.3c0.7 1.8 5.7 16 9.4 26 2.3-1.5 16.4-10.9 20.4-14.6l-9.9-29.5C428.3 308.3 416.1 319.7 410.6 324.3z" class="c"/><path d="M418.7 355.9c3.8 6.6 14.2 7.8 23.3 2.6 9.1-5.2 13.5-14.7 9.7-21.3 -3.8-6.6-14.2-7.8-23.3-2.6C419.3 339.7 414.9 349.3 418.7 355.9z" class="d"/><path d="M440.1 341.9c0-4.4-2.6-7.9-6.4-9.6 -1.8 0.5-3.5 1.3-5.3 2.3 -9.1 5.2-13.5 14.7-9.7 21.3 2.2 3.8 6.6 5.8 11.7 5.8C436.5 356.7 440.9 350 440.1 341.9z" class="e"/><path d="M430.3 362h0c-5.4 0-9.8-2.2-11.9-6 -1.9-3.3-1.9-7.4 0-11.5 1.9-4.1 5.3-7.7 9.8-10.3 3.8-2.1 7.8-3.3 11.8-3.3 5.4 0 9.8 2.2 11.9 6 3.8 6.7-0.6 16.5-9.8 21.8C438.3 360.9 434.3 362 430.3 362zM440 331.6c-3.8 0-7.8 1.1-11.5 3.2 -4.4 2.5-7.7 6-9.6 10 -1.8 3.9-1.8 7.8 0 10.9 2.1 3.6 6.2 5.7 11.4 5.7h0c3.8 0 7.8-1.1 11.5-3.2 9-5.1 13.3-14.5 9.6-20.9C449.4 333.7 445.2 331.6 440 331.6z" class="f"/><path d="M302.1 280.1c0 0 13.7-5.4 22.7 9 0.9-4.5 1.5-9.9 1.5-9.9 -9.3-7.1-16.1-9.8-24.2-8C302.1 275.9 302.1 280.1 302.1 280.1z" class="a"/><path d="M303.6 277.4c0 0 18.2-5.1 21.2 11.6 0.9-4.5 1.5-9.9 1.5-9.9 -9.3-7.1-16.1-9.8-24.2-8C302.1 275.9 303.6 277.4 303.6 277.4z" class="b"/><path d="M325 289.8l-0.4-0.6c-5.1-8.1-11.7-9.8-16.3-9.8 -3.5 0-6 1-6 1l-0.4 0.2v-9.6l0.2-0.1c1.7-0.4 3.2-0.5 4.8-0.5 5.9 0 11.8 2.6 19.6 8.6l0.1 0.1 0 0.2c0 0.1-0.6 5.5-1.5 10L325 289.8zM308.3 278.8c4.7 0 11.3 1.7 16.4 9.5 0.7-3.8 1.2-8.1 1.3-9 -7.7-5.8-13.4-8.3-19.1-8.3 -1.5 0-2.9 0.2-4.4 0.5v8.3C303.3 279.4 305.5 278.8 308.3 278.8z" class="c"/><path d="M326.3 305.7l-10.1 30.2c4.2 3.9 20.9 14.9 20.9 14.9 3.9-10.7 9.6-26.6 9.6-26.6C340.7 319.2 326.3 305.7 326.3 305.7z" class="a"/><path d="M331.2 310.3c-2.9-2.6-4.9-4.5-4.9-4.5l-10.1 30.2c2.5 2.3 9.3 7.1 14.4 10.6C334.2 349 335.8 322.3 331.2 310.3z" class="b"/><path d="M337.2 351.3l-0.3-0.2c-0.2-0.1-16.8-11.1-20.9-15l-0.1-0.1 0.1-0.2 10.3-30.6 0.3 0.3c0.1 0.1 14.4 13.5 20.3 18.5l0.2 0.1 -0.1 0.2c0 0-5.7 15.8-9.6 26.6L337.2 351.3zM316.5 335.8c4 3.6 18.1 13 20.4 14.6 3.6-10 8.7-24.2 9.4-26 -5.5-4.7-17.6-16-19.8-18.1L316.5 335.8z" class="c"/><path d="M338.3 355.9c-3.8 6.6-14.2 7.8-23.3 2.6 -9.1-5.2-13.5-14.7-9.7-21.3 3.8-6.6 14.2-7.8 23.3-2.6C337.7 339.7 342 349.3 338.3 355.9z" class="d"/><path d="M333 337.8c-1.3-1.2-2.8-2.3-4.5-3.2 -9.1-5.2-19.6-4-23.3 2.6 -3.8 6.6 0.6 16.2 9.7 21.3 0.6 0.4 1.3 0.7 1.9 1C325.1 355.1 333 347.5 333 337.8z" class="e"/><path d="M326.6 362c-3.9 0-8-1.1-11.8-3.3 -9.2-5.3-13.6-15-9.8-21.7 2.2-3.8 6.5-6 11.9-6 3.9 0 8 1.1 11.8 3.3 9.2 5.3 13.7 15 9.8 21.8C336.4 359.8 332 362 326.6 362zM316.9 331.6c-5.2 0-9.4 2.1-11.4 5.7 -3.7 6.5 0.6 15.8 9.6 20.9 3.7 2.1 7.7 3.2 11.5 3.2 5.2 0 9.4-2.1 11.4-5.7 3.7-6.5-0.6-15.8-9.6-20.9C324.7 332.7 320.8 331.6 316.9 331.6z" class="f"/><path d="M434.5 275.9c-4.1-33.2-53.5-23.2-56-22.7 -2.5-0.5-51.9-10.5-56 22.7 -1.2 21.8-7.1 55.4 55.9 63.3v0l0.1 0 0.1 0v0C441.6 331.3 435.6 297.7 434.5 275.9z" class="a"/><path d="M414.5 318.1c20.2-13.3 17.8-45.5 5.5-55.1 -15.6-11.6-39.6-10.2-41.6-9.7 -2.5-0.5-51.9-10.5-56 22.7 -0.5 9-1.8 20.1 1.3 30.5 2.6 10.4 30.1 20.2 47.1 21.8C385.8 329.4 402.6 325.8 414.5 318.1z" class="b"/><path d="M378.1 339.4c-26.3-3.3-42.9-11.3-50.9-24.5 -6.8-11.3-6-24.6-5.3-35.3 0.1-1.3 0.2-2.6 0.2-3.8 2.5-20.5 22-24.8 37.9-24.8 9.4 0 17.3 1.6 18.4 1.8 1.1-0.2 9-1.8 18.4-1.8 15.9 0 35.3 4.3 37.9 24.8 0.1 1.3 0.2 2.5 0.2 3.8 0.7 10.7 1.5 24-5.3 35.3 -7.9 13.2-24.6 21.2-50.9 24.5L378.1 339.4zM360 251.7c-15.6 0-34.8 4.2-37.3 24.2 -0.1 1.2-0.1 2.5-0.2 3.8 -1.4 21.9-3.3 51.8 55.9 59.1l0.1 0 0.1 0c59.2-7.3 57.3-37.3 55.9-59.1 -0.1-1.3-0.2-2.6-0.2-3.8 -2.5-20-21.6-24.2-37.3-24.2 -9.6 0-17.5 1.6-18.4 1.8l-0.1 0 -0.1 0C377.5 253.3 369.6 251.7 360 251.7z" class="c"/><path d="M510.6 140.1c0 0 38.8-17.9 17.3-49.9 -19.7-25.7-56.1-7.5-59.7 3.6C475.7 101.6 510.6 140.1 510.6 140.1z" class="a"/><path d="M505.5 134.9c0 0 37.9-17.7 19.5-43.2 -19.7-25.7-53.2-8.9-56.8 2.1C475.7 101.6 505.5 134.9 505.5 134.9z" class="b"/><path d="M510.5 140.4l-0.1-0.2c-0.4-0.4-35-38.6-42.4-46.3l-0.1-0.1 0.1-0.2c2.2-6.8 17.2-16.8 33.5-16.8 7.6 0 18.4 2.3 26.7 13.2 6 8.9 7.9 17.6 5.6 25.8 -4.4 15.7-22.8 24.4-23 24.5L510.5 140.4zM468.5 93.7c7.4 7.7 39.6 43.2 42.1 46 2-1 18.4-9.4 22.5-24 2.3-8 0.4-16.6-5.5-25.3 -8.2-10.7-18.8-12.9-26.3-12.9C485.5 77.5 470.9 87.1 468.5 93.7z" class="c"/><path d="M503.7 128.1c0 0 25.1-6 10.5-27.3 -10.7-14.7-30.4 3.8-30.4 3.8L503.7 128.1z" class="g"/><path d="M503.8 128.4l-0.1-0.6c0.1 0 11-2.7 14-10.6 1.8-4.6 0.5-10.1-3.8-16.3 -2.4-3.3-5.5-5.2-9.2-5.5 -9.8-0.9-20.7 9.2-20.8 9.3l-0.4-0.4c0.5-0.4 11.2-10.4 21.3-9.5 3.8 0.4 7.1 2.3 9.6 5.8 4.4 6.4 5.7 12.1 3.8 16.9C515.1 125.6 503.9 128.4 503.8 128.4z" class="c"/><path d="M246.3 140.1c0 0-38.8-17.9-17.3-49.9 19.7-25.7 56.1-7.5 59.7 3.6C281.3 101.6 246.3 140.1 246.3 140.1z" class="a"/><path d="M250.5 135c0 0-40-18.1-21.5-44.8 19.7-25.7 56.1-7.5 59.7 3.6C281.3 101.6 250.5 135 250.5 135z" class="b"/><path d="M246.4 140.4l-0.2-0.1c-0.2-0.1-18.6-8.8-23-24.5 -2.3-8.2-0.4-16.9 5.6-25.8 8.4-10.9 19.2-13.2 26.8-13.2 16.2 0 31.3 10.1 33.5 16.9l0.1 0.2 -0.1 0.1c-7.4 7.7-42 45.9-42.4 46.3L246.4 140.4zM255.5 77.5c-7.5 0-18.1 2.2-26.3 12.9 -5.9 8.8-7.7 17.3-5.5 25.3 4.1 14.6 20.5 23 22.5 24 2.5-2.7 34.7-38.3 42.1-46C286 87.1 271.4 77.5 255.5 77.5z" class="c"/><path d="M253.2 128.1c0 0-25.1-6-10.4-27.3 10.7-14.7 30.4 3.8 30.4 3.8L253.2 128.1z" class="g"/><path d="M253.1 128.4c-0.1 0-11.3-2.8-14.4-10.9 -1.8-4.8-0.6-10.5 3.8-16.9 2.5-3.5 5.8-5.4 9.6-5.8 10.1-0.9 20.8 9.1 21.3 9.5l-0.4 0.4c-0.1-0.1-11-10.2-20.8-9.3 -3.7 0.3-6.8 2.2-9.2 5.5 -4.3 6.2-5.5 11.7-3.7 16.3 3 7.9 13.9 10.6 14 10.6L253.1 128.4z" class="c"/><path d="M490.3 106c0 0 11.9-3.9 16.4-5.3 -18.8-35.7-58.8-38.3-68.1-36.5 3.3-1.5 10.7-8.4 11.2-10.4 -45.2-19.5-69.6 5.2-71.4 7 -1.8-1.9-26.2-26.6-71.4-7 0.5 2.1 7.9 9 11.2 10.4 -9.3-1.8-49.3 0.8-68.1 36.5 4.5 1.4 16.4 5.3 16.4 5.3 -7.5 3.6-33.7 24.6-29.3 56.8 6-0.4 17.6-2.7 17.6-2.7 -3.3 7.2-13.4 37.6 6.6 65.4 4.8-5.1 13.4-15.3 13.4-15.3 0.6 8.7 5.7 39.4 39.1 49 0.6-1.5 0.9-12.8 0.9-12.8 4.9 16.6 47.9 20.6 60.8 35.7 1.1 1.3 2.7 4.5 2.7 4.4 0 0.1 1.5-2.9 2.5-4.1 12.6-15.4 56.1-19.2 61-36 0 0 0.3 11.3 0.9 12.8 33.4-9.6 38.5-40.3 39.1-49 0 0 8.7 10.2 13.4 15.3 20-27.8 9.9-58.2 6.6-65.4 0 0 11.6 2.4 17.6 2.7C524 130.6 497.8 109.6 490.3 106z" class="h"/><path d="M242.1 155.6c11-1.8 22.1-9.2 35-7.4 -23.9 9.2-23.9 44.2-14.7 64.4 11-5.5 12.9-18.4 22.1-25.8 -5.5 23.9-1.8 47.8 22.1 60.7 0-9.2-5.5-18.4-3.7-29.4 16.6 29.4 48.9 47.3 78.2 46.5 16.6-1.8 41.4-9.7 59.8-22.5 5.5-5.5 11-12.9 12.9-20.2 0 7.4 0 14.7 0 22.1 23.9-5.5 23.9-31.3 22.1-51.5 3.7 9.2 16.6 7.4 18.4 18.4 5.5-18.4 7.4-42.3-7.4-57 9.2 0 20.2-1.8 29.4 3.7 -12.9-18.4-22.1-40.5-44.2-47.8 9.2-1.8 16.6-7.4 25.8-9.2 -23.9-18.4-53.4-29.4-82.8-29.4 15.7-1.4 25.2-7 23.6-6.7 3.3-1.5 10.7-8.4 11.2-10.4 -45.2-19.5-69.6 5.2-71.4 7 -1.8-1.9-26.2-26.6-71.4-7 0.5 2.1 7.9 9 11.2 10.4 -9.1-1.8-47.7 0.8-66.9 34.5 9.2 0.5 18.4 2 27.5 3.5C264.2 118.8 240.3 131.7 242.1 155.6z" class="i"/><path d="M294.9 143c1.4-0.1 2.8-0.2 4.2-0.3C297.7 142.7 296.3 142.8 294.9 143z" class="j"/><path d="M245.8 150.1c15.3-10.2 32.1-6.3 49.1-7.1 1.4-0.2 2.8-0.3 4.2-0.3 -1.4 0.1-2.8 0.2-4.2 0.3 -25.9 3.4-32.6 37.7-32.6 60.4 12.9-11 23.9-22.1 38.6-27.6 -7.4 16.6-16.6 38.6-3.7 55.2 3.7-11-5.5-29.4 11-33.1 5.5 40.5 45.1 68.1 85.6 58.9 25.8-5.5 56.1-22.1 61.6-49.7 7.4 7.4 9.2 14.7 7.4 23.9 14.7-16.6 14.7-36.8 7.4-55.2 9.2 3.7 20.2 5.5 23.9 16.6 3.7-16.6-3.7-33.1-18.4-42.3 9.2-1.8 20.2-1.8 29.4-1.8 -14.7-20.2-36.8-27.6-60.7-31.3 12.9-7.4 29.4-11 42.3-18.4 -27.6-11-57-16.6-86.5-16.6 9.2-12.9 27.6-16.6 38.6-27.6 -22.1-1.8-47.8-1.8-62.6 18.4 -11-22.1-40.5-18.4-60.7-18.4 3.7 3.7 9.2 5.5 11 9.2 -12.9 5.5-27.6 7.4-40.5 12.9 -13.1 4.8-21.8 13.2-23 15.2 13.2-3.7 15.7 3.2 28.5 3.2C278.9 115.1 249.5 126.1 245.8 150.1z" class="j"/><path d="M378.5 286.7h-0.2l-0.1-0.1c-0.1-0.1-0.2-0.3-0.4-0.8 -0.5-1-1.5-2.7-2.2-3.6 -5.8-6.8-17.9-11.4-29.7-15.8 -13.8-5.2-26.9-10.2-30.6-18.5 -0.1 3.2-0.4 10.2-0.9 11.4l-0.1 0.2 -0.3-0.1c-33.7-9.6-38.6-40.6-39.3-48.5 -1.9 2.2-8.9 10.4-13 14.7l-0.2 0.3 -0.2-0.3c-20.9-29.1-8.8-60.5-6.8-65.1 -2.4 0.5-11.9 2.3-17.1 2.6l-0.3 0 0-0.3c-2.4-17.3 4.2-30.9 10.2-39.3 6.4-9 14.4-15.2 18.6-17.4 -2.6-0.8-11.9-3.9-15.7-5l-0.3-0.1 0.2-0.3c7.1-13.5 17.9-23.7 32-30.1 13.8-6.3 26.1-7 30.8-7 1.5 0 2.8 0.1 4 0.2 -3.6-2.3-9.5-7.9-10-9.9l-0.1-0.2 0.2-0.1c11.5-5 22.7-7.5 33.2-7.5 23.2 0 36.1 12.1 38.3 14.4 2.2-2.3 15.1-14.4 38.3-14.4 10.5 0 21.7 2.5 33.2 7.5l0.2 0.1 -0.1 0.2c-0.4 2-6.3 7.5-10 9.9 1.2-0.1 2.5-0.2 4-0.2 4.7 0 17 0.7 30.8 7 14.1 6.5 24.9 16.6 32 30.1l0.2 0.3 -0.3 0.1c-3.8 1.2-13.1 4.2-15.7 5 4.2 2.2 12.1 8.4 18.6 17.4 6 8.4 12.6 22 10.2 39.3l0 0.3 -0.3 0c-5.2-0.3-14.7-2.2-17.1-2.6 2 4.6 14.1 36.1-6.8 65.1l-0.2 0.3 -0.3-0.3c-4.1-4.3-11.1-12.5-13-14.7 -0.7 7.9-5.5 38.9-39.3 48.5l-0.3 0.1 -0.1-0.2c-0.5-1.2-0.8-8.2-0.9-11.4 -3.7 8.3-16.8 13.3-30.6 18.5 -11.9 4.5-24.2 9.1-29.9 16.1 -0.6 0.8-1.5 2.3-2 3.3 -0.2 0.4-0.4 0.7-0.4 0.8l-0.1 0.1h-0.1H378.5zM314.7 244.4l0.5 1.8c2.6 8.9 16.3 14.1 30.8 19.6 11.8 4.5 24 9.1 29.9 16 0.8 0.9 1.7 2.6 2.3 3.7l0.1 0.2 0.1-0.1 0.1 0.1 0.1-0.2c0.5-1 1.4-2.6 2.1-3.4 5.8-7.1 18.2-11.8 30.2-16.3 14.5-5.5 28.2-10.6 30.8-19.6l0.5-1.8 0 1.9c0.1 3 0.4 10.6 0.8 12.5 34.2-10 38.2-42.3 38.6-48.6l0.1-0.7 0.5 0.6c0.1 0.1 8.4 9.9 13.2 15 21.7-30.4 7-63.4 6.3-64.8l-0.2-0.5 0.6 0.1c0.1 0 11.3 2.3 17.3 2.7 4-30.3-19.9-51.8-29.1-56.2l-0.7-0.3 0.7-0.2c0.1 0 11.4-3.7 16.1-5.1 -18.9-35.4-57.7-36.5-62.1-36.5 -2.2 0-4.1 0.1-5.5 0.4l-2.5 0.5 2.3-1c3.2-1.4 10.1-7.8 11-10 -11.4-4.9-22.4-7.3-32.7-7.3 -23.8 0-36.7 13-38.1 14.4l-0.2 0.2 -0.2-0.2c-1.4-1.5-14.2-14.4-38.1-14.4 -10.4 0-21.4 2.5-32.7 7.3 0.9 2.2 7.8 8.6 11 10l2.3 1 -2.5-0.5c-1.4-0.3-3.3-0.4-5.5-0.4 -4.4 0-43.2 1-62.1 36.5 4.7 1.4 16 5.1 16.1 5.2l0.7 0.2 -0.7 0.3c-9.2 4.4-33.2 25.9-29.1 56.2 6-0.4 17.2-2.7 17.3-2.7l0.6-0.1 -0.2 0.5c-0.6 1.4-15.3 34.4 6.3 64.8 4.8-5.1 13.1-14.9 13.2-15l0.5-0.6 0.1 0.7c0.4 6.4 4.4 38.7 38.6 48.6 0.4-1.8 0.7-9.5 0.8-12.5L314.7 244.4z" class="k"/><path d="M457.2 191c-4.8-15.5-6.4-49.8-4-59.3 -5.6-2.8-21.1-19.1-29.5-34.2 -24.5 0.6-38.6-7.4-43.4-10.8 -0.9-0.6-1.8-1.5-1.8-1.4 -0.1-0.1-0.9 0.8-1.7 1.3 -4.8 3.4-18.9 11.5-43.5 10.9 -8.4 15.1-23.9 31.4-29.5 34.2 2.4 9.6 0.8 43.8-4 59.3 -3.6 15.3 1.6 50.6 62.1 50.2 4.3 0.8 9.1 9.4 16.5 9.5v0l0.1 0 0.1 0v0c7.4-0.2 12.2-8.8 16.5-9.5C455.6 241.6 460.7 206.3 457.2 191z" class="a"/><path d="M446.9 187.8c-4.8-15.5-6.9-46.2-4.5-55.8 -5.6-2.8-14.2-13.9-22.6-29 -17-1.3-30.1-7.3-41.3-11.4 -0.1-0.1-24.5 11.7-45.4 5.8 -8.4 15.1-23.9 31.4-29.5 34.2 2.4 9.6 0.8 43.8-4 59.3 -3.6 15.3 1.6 50.6 62.1 50.2 4.3 0.8 9.1 9.4 16.5 9.5v0l0.1 0 0.1 0v0c7.4-0.2 12.2-8.8 16.5-9.5C455.6 241.6 450.5 203.2 446.9 187.8z" class="b"/><path d="M378.6 251l-0.1 0 0-0.3 0 0.3 -0.4 0v0c-4.4-0.2-7.7-3.2-10.7-5.8 -2.1-1.8-3.8-3.4-5.5-3.7 -0.3 0-0.6 0-1 0 -25.9 0-44.1-6.5-54.2-19.2 -8.2-10.4-9.1-23-7.1-31.3 4.7-15.3 6.4-49.3 4-59.2l-0.1-0.2 0.2-0.1c5.7-2.9 21.1-19.3 29.3-34.1l0.1-0.2 0.2 0c0.9 0 1.8 0 2.7 0h0c22.9 0 36.1-7.6 40.7-10.9 0.4-0.3 0.8-0.6 1.1-0.9 0.4-0.3 0.6-0.5 0.7-0.5l0 0 0.1 0h0l0.1 0c0.1 0 0.3 0.2 0.7 0.5 0.3 0.3 0.8 0.6 1.2 0.9 4.8 3.4 18.8 11.4 43.2 10.8l0.2 0 0.1 0.2c8.2 14.8 23.6 31.3 29.3 34.1l0.2 0.1 -0.1 0.2c-2.5 9.8-0.7 43.9 4 59.1 1.9 8.4 1.1 21-7.1 31.3 -10.1 12.7-28.3 19.2-54.2 19.2 -0.4 0-0.7 0-1 0 -1.6 0.3-3.4 1.9-5.5 3.7 -3 2.6-6.4 5.6-10.7 5.8v0L378.6 251zM361.9 240.9c1.9 0.3 3.7 2 5.9 3.8 3 2.6 6.4 5.6 10.6 5.7l0.1 0 0.1 0c4.3-0.1 7.7-3.1 10.7-5.7 2.1-1.9 4-3.5 5.8-3.8 0.4 0 0.7 0 1.1 0h0c25.7 0 43.8-6.4 53.7-19 8.1-10.2 8.9-22.6 7-30.8 -4.7-15.2-6.4-49-4-59.2 -5.9-3.2-21.1-19.4-29.3-34.1 -24.5 0.6-38.6-7.5-43.4-10.9 -0.4-0.3-0.9-0.7-1.2-1 -0.1-0.1-0.3-0.2-0.4-0.3l0 0 0 0c-0.1 0.1-0.3 0.2-0.4 0.3 -0.3 0.3-0.7 0.6-1.1 0.9 -4.7 3.3-18 11-41 11h0c-0.8 0-1.7 0-2.5 0 -8.2 14.7-23.4 30.9-29.3 34.1 2.4 10.2 0.6 44-4 59.2 -1.9 8.2-1.1 20.6 7 30.8 10 12.6 28.1 19 53.8 19C361.2 240.9 361.5 240.9 361.9 240.9z" class="k"/><path d="M304.1 131.9c5.9-3.2 21.1-19.4 29.3-34.1 0.9 0 1.7 0 2.5 0h0c23 0 36.3-7.7 41-11 0.4-0.3 0.8-0.6 1.1-0.9 0.1-0.1 0.3-0.2 0.4-0.3l0 0 0 0c0.1 0.1 0.3 0.2 0.4 0.3 0.4 0.3 0.8 0.7 1.2 1 4.8 3.4 18.9 11.5 43.4 10.9 8.2 14.7 23.4 30.9 29.3 34.1 0 0.2 0.5 0.3 0.6-0.1l-0.2-0.3c-5.7-2.9-21.1-19.3-29.3-34.1l-0.1-0.2 -0.2 0c-24.4 0.6-38.4-7.4-43.2-10.8 -0.4-0.3-0.9-0.7-1.2-0.9 -0.4-0.3-0.6-0.5-0.7-0.5l-0.1 0h0l-0.1 0 0 0c-0.1 0-0.3 0.2-0.7 0.5 -0.3 0.3-0.7 0.6-1.1 0.9 -4.6 3.3-17.8 10.9-40.7 10.9h0c-0.9 0-1.8 0-2.7 0l-0.2 0 -0.1 0.2c-7.6 13.7-21.3 28.7-27.8 33.2 -0.5 0.4-1.6 1.2-1.6 1.2C303.5 132.1 304.1 132 304.1 131.9z" class="l"/><path d="M420.2 97.9c-1.3 0-2.5-0.1-3.8-0.2l0.1-0.6c10.9 1.2 25.8-3.6 26-3.6C442.4 93.5 430.6 97.9 420.2 97.9z" class="k"/><path d="M449.5 129.6l0.5-0.4c5.2 4.1 18.9 11.3 19 11.4C469.1 140.6 455 133.9 449.5 129.6z" class="k"/><path d="M411.4 318.6l14.4 43.5c-9.9 2.7-35.2 9.6-35.2 9.6 -1.8-18.2-5.1-47.3-5.1-47.3L411.4 318.6z" class="a"/><path d="M410.3 314.1l4.4 49.3c-9.9 2.7-24.1 8.4-24.1 8.4 -1.8-18.2-5.1-47.3-5.1-47.3L410.3 314.1z" class="b"/><path d="M390.3 372.1l0-0.3c-1-10-2.5-23.6-3.7-33.8 -0.9-8.2-1.1-14.3-1.1-14.3 0 0.3 3.6 29.7 5.4 47.7 3-0.8 25.2-6.8 34.6-9.4l-14.2-43.9 4 10.3 11 34 -0.3 0.1c-9.8 2.7-35.2 9.6-35.2 9.6L390.3 372.1z" class="c"/><path d="M388.9 373.2c1.9 8.3 12.8 12.9 24.2 10.2 11.5-2.7 19.2-11.5 17.3-19.8 -1.9-8.3-12.8-12.9-24.2-10.2C394.7 356 386.9 364.9 388.9 373.2z" class="d"/><path d="M414.5 352.7c-2.7-0.2-5.5 0-8.4 0.7 -11.5 2.6-19.2 11.5-17.3 19.8 0.8 3.5 3.3 6.4 6.7 8.3 7-0.9 13.8-3.3 19.4-8.6C419.9 367.5 419.2 358.2 414.5 352.7z" class="e"/><path d="M406.6 384.5L406.6 384.5c-9.2 0-16.5-4.5-18.1-11.2 -2-8.5 5.9-17.5 17.5-20.2 2.2-0.5 4.4-0.8 6.6-0.8 9.2 0 16.5 4.5 18 11.2 2 8.5-5.9 17.5-17.5 20.2C411 384.2 408.8 384.5 406.6 384.5zM412.6 352.9c-2.1 0-4.3 0.2-6.4 0.7 -11.3 2.6-18.9 11.4-17.1 19.5 1.5 6.4 8.5 10.8 17.5 10.8 2.1 0 4.3-0.2 6.4-0.7 11.3-2.6 18.9-11.4 17.1-19.5C428.6 357.2 421.6 352.9 412.6 352.9z" class="f"/><ellipse transform="matrix(-0.9984 0.0564 -0.0564 -0.9984 844.307 265.5799)" cx="418.4" cy="144.7" rx="20.5" ry="37.1" class="a"/><ellipse transform="matrix(-0.9984 0.0563 -0.0563 -0.9984 844.9617 273.3763)" cx="418.6" cy="148.6" rx="18.3" ry="33.2" class="m"/><path d="M400.3 140.4c0.7-15.5 7.5-27.6 16.5-28.1 10.1-0.6 19.1 13.8 20.2 32.1 0.3 6.1-0.3 12-1.6 17C433.4 167.7 399.1 152 400.3 140.4z"/><path d="M400.3 143.6c0.7-15.5 7.5-27.6 16.5-28.1 10.1-0.6 19.1 13.8 20.2 32.1 0.3 6.1-0.3 12-1.6 17C433.4 170.8 399.1 155.2 400.3 143.6z" class="n"/><path d="M400 149.6c-1-18.4 6.5-33.9 16.7-34.5 10.4-0.6 19.5 13.9 20.5 32.4 1 18.4-6.5 33.9-16.7 34.5 -0.2 0-0.4 0-0.6 0C409.8 182 401 167.8 400 149.6zM416.8 115.7c-9.9 0.6-17.2 15.7-16.2 33.9 1 17.6 9.7 31.8 19.3 31.8 0.2 0 0.4 0 0.6 0 9.9-0.6 17.2-15.7 16.2-33.9 -1-17.6-9.6-31.8-19.3-31.8C417.2 115.7 417 115.7 416.8 115.7z"/><ellipse transform="matrix(-0.9956 0.0937 -0.0937 -0.9956 845.8347 256.8902)" cx="416.9" cy="148.3" rx="11.2" ry="19.3"/><path d="M405.5 149.4c-1-10.8 3.3-20 9.6-20.6 6.3-0.6 12.2 7.7 13.3 18.4 1 10.8-3.3 20-9.6 20.6 -0.2 0-0.4 0-0.6 0C412 167.9 406.4 159.7 405.5 149.4zM415.1 129.4c-6 0.6-10 9.5-9 19.9 1 10.4 6.6 18.5 12.6 17.9 6-0.6 10-9.5 9-19.9 -0.9-10.1-6.2-17.9-12-17.9C415.5 129.4 415.3 129.4 415.1 129.4z"/><path d="M416.7 137.8c0.8 2 2.5 3.2 4 2.6 1.4-0.6 2-2.6 1.2-4.6 -0.8-2-2.5-3.2-4-2.6C416.5 133.7 416 135.8 416.7 137.8z" class="n"/><ellipse cx="422.2" cy="150.2" rx="4.2" ry="7.6" class="n"/><path d="M429.8 113.4c0 0-7.5-8.4-24.2-9.3C409.8 97.9 420.3 98.5 429.8 113.4z" class="o"/><path d="M405.6 104.5l-0.5 0 0.3-0.4c1.7-2.5 4.3-3.9 7.3-3.9 5.7 0 12 4.8 17.4 13.2l0.9 1.9C431 115.1 421.9 105.3 405.6 104.5zM406.2 103.9c11.8 0.8 19 5.3 22.1 7.7 -4.9-7-10.5-10.9-15.6-10.9C410.1 100.7 407.8 101.8 406.2 103.9z" class="l"/><ellipse transform="matrix(0.9984 0.0563 -0.0563 0.9984 8.7112 -18.866)" cx="339" cy="145.1" rx="20.5" ry="37.1" class="a"/><ellipse transform="matrix(0.9984 0.0563 -0.0563 0.9984 8.9324 -18.8509)" cx="338.7" cy="149" rx="18.3" ry="33.2" class="m"/><path d="M357.1 140.8c-0.7-15.5-7.5-27.6-16.5-28.1 -10.1-0.6-19.1 13.8-20.2 32.1 -0.3 6.1 0.3 12 1.6 17C323.9 168 358.2 152.4 357.1 140.8z"/><path d="M357.1 144c-0.7-15.5-7.5-27.6-16.5-28.1 -10.1-0.6-19.1 13.8-20.2 32.1 -0.3 6.1 0.3 12 1.6 17C323.9 171.2 358.2 155.6 357.1 144z" class="n"/><path d="M337.4 182.4c-0.2 0-0.4 0-0.6 0 -10.3-0.6-17.8-16-16.7-34.5 1-18.5 10.1-33 20.5-32.4 10.3 0.6 17.8 16.1 16.7 34.5C356.3 168.2 347.6 182.4 337.4 182.4zM340 116.1c-9.7 0-18.3 14.3-19.3 31.8 -1 18.1 6.2 33.3 16.2 33.9 0.2 0 0.4 0 0.6 0 9.7 0 18.3-14.3 19.3-31.8 1-18.1-6.2-33.3-16.2-33.9C340.4 116.1 340.2 116.1 340 116.1z"/><path d="M351.6 149.7c-1 10.6-6.8 18.8-12.9 18.2 -6.1-0.6-10.3-9.7-9.3-20.3 1-10.6 6.8-18.7 12.9-18.2C348.4 130 352.6 139.1 351.6 149.7z"/><path d="M339.3 168.2c-0.2 0-0.4 0-0.6 0 -6.3-0.6-10.6-9.8-9.6-20.6 1-10.7 6.9-19 13.3-18.4 6.3 0.6 10.6 9.8 9.6 20.6C350.9 160.1 345.4 168.2 339.3 168.2zM341.7 129.7c-5.8 0-11.1 7.9-12 17.9 -1 10.4 3.1 19.4 9 19.9 6 0.6 11.6-7.5 12.6-17.9 1-10.4-3.1-19.4-9-19.9C342.1 129.7 341.9 129.7 341.7 129.7z"/><ellipse transform="matrix(0.9331 0.3597 -0.3597 0.9331 71.968 -112.4309)" cx="338.1" cy="137.1" rx="2.8" ry="3.9" class="n"/><ellipse cx="335.1" cy="150.6" rx="4.2" ry="7.6" class="n"/><path d="M327.5 113.8c0 0 7.6-8.4 24.2-9.3C347.5 98.3 337.1 98.9 327.5 113.8z" class="o"/><path d="M326.3 115.5l0.9-1.9c5.4-8.4 11.7-13.2 17.4-13.2 3 0 5.6 1.4 7.3 3.9l0.3 0.4 -0.5 0C335.4 105.7 326.4 115.4 326.3 115.5zM344.7 101.1c-5 0-10.6 4-15.6 10.9 3.1-2.5 10.3-7 22.1-7.7C349.6 102.2 347.3 101.1 344.7 101.1z" class="l"/><path d="M336.7 97.9c-10.4 0-22.3-4.4-22.3-4.4 0.1 0 15.1 4.8 26 3.6l0.1 0.6C339.3 97.8 338 97.9 336.7 97.9z" class="k"/><path d="M288 140.9c0.1-0.1 13.8-7.6 19-11.8l0.4 0.5C302.2 133.8 288 140.9 288 140.9z" class="k"/><path d="M239.5 269.3c0 0 14 41.2 53.1 27.5 17.3-8.1 16.7-24.2 11-31.3 -3.9-3.6-13.4-12.5-34 0C256.5 273.5 247.8 274.7 239.5 269.3z" class="h"/><path d="M239.5 269.3c0 0 11 37.2 50.1 23.5 12.6-5.1 16.3-18.9 10.7-26.1 -3.9-3.6-10-13.8-30.6-1.3C256.5 273.5 247.8 274.7 239.5 269.3z" class="i"/><path d="M239.5 269.3c0 0 8.8 29.9 42.6 18.3 13.2-5.9 14.5-12.4 13-18.8 -2.2-4.3-7.4-15.3-25.5-3.5C256.5 273.5 247.8 274.7 239.5 269.3z" class="j"/><path d="M277.3 299.9c-27.5 0-38.1-30.2-38.2-30.5l-0.3-0.8 0.7 0.5c3.4 2.2 6.8 3.2 10.4 3.2 5.3 0 11.5-2.3 19.4-7.1 7.1-4.3 13.6-6.5 19.3-6.5 8 0 12.6 4.2 15 6.5l0.1 0c3.2 4.1 4.4 10.3 3.1 15.9 -1.1 4.8-4.5 11.4-14.2 15.9C287.4 298.9 282.2 299.9 277.3 299.9zM240.1 270c1.9 4.8 12.8 29.3 37.3 29.3 4.8 0 9.9-0.9 15.2-2.8 9.5-4.4 12.8-10.9 13.9-15.5 1.3-5.4 0.1-11.5-3-15.4l0 0c-2.4-2.2-6.9-6.3-14.6-6.3 -5.6 0-12 2.2-19 6.4 -8 4.9-14.3 7.2-19.7 7.2C246.6 272.9 243.3 272 240.1 270z" class="l"/><path d="M345.5 318.6l-14.4 43.5c9.9 2.7 35.2 9.6 35.2 9.6 1.8-18.2 5.1-47.4 5.1-47.4L345.5 318.6z" class="a"/><path d="M345.5 318.6l-14.4 43.5c9.9 2.7 28.4 6.2 28.4 6.2 1.8-18.2 13.1-46.9 13.1-46.9L345.5 318.6z" class="b"/><path d="M366.6 372.1l-0.3-0.1c0 0-25.4-6.9-35.2-9.6l-0.3-0.1 11-34 4-10.3 -14.2 43.9c9.4 2.6 31.6 8.6 34.6 9.4 1.8-18 5.3-47.4 5.4-47.7 0 0-0.1 6-1.1 14 -1.2 10.2-2.7 24-3.7 34.1L366.6 372.1z" class="c"/><path d="M368.1 373.2c-1.9 8.3-12.8 12.9-24.2 10.2 -11.5-2.7-19.2-11.5-17.3-19.8 1.9-8.3 12.8-12.9 24.2-10.2C362.3 356 370 364.9 368.1 373.2z" class="d"/><path d="M355.9 374.1c3.9-4.9 5-10.6 4.6-16.5 -2.7-1.9-6-3.4-9.7-4.3 -11.5-2.7-22.3 1.9-24.2 10.2 -1.5 6.6 3.1 13.6 10.8 17.5C344.3 381.5 351 379.9 355.9 374.1z" class="e"/><path d="M350.3 384.5c-2.2 0-4.4-0.3-6.5-0.8 -11.6-2.7-19.5-11.7-17.5-20.2 1.6-6.7 8.8-11.2 18-11.2 2.2 0 4.4 0.3 6.5 0.8 11.6 2.7 19.5 11.7 17.5 20.2C366.8 380 359.6 384.5 350.3 384.5zM344.3 352.9c-9 0-16 4.3-17.5 10.8 -1.9 8.1 5.8 16.9 17.1 19.5 2.1 0.5 4.3 0.7 6.4 0.7 9 0 16-4.3 17.5-10.8 1.9-8.1-5.8-16.9-17.1-19.5C348.6 353.2 346.4 352.9 344.3 352.9z" class="f"/><path d="M457.2 191c-1.4-5.4-7.4-13.5-13.4-16.9 -17.6-10-41.1-2.7-65.3 16.4 -24.2-19.1-47.7-26.4-65.3-16.4 -6 3.4-11.7 10.1-13.4 16.9 -3.6 15.3 1.6 50.6 62.1 50.2 4.3 0.8 9.1 9.4 16.5 9.5v0l0.1 0 0.1 0v0c7.4-0.2 12.2-8.8 16.5-9.5C455.6 241.6 460.7 206.3 457.2 191z" class="d"/><path d="M443.5 174c-10.7-6-23.6-5.6-37.5-0.1 2.5 3.4 2.3 8.7 0.6 12.7 -6 10.2-19.7 12.5-29.9 9.6 -7.9-1.8-11.4-9.4-14.8-16.9 -18.1-10.3-35.2-12.9-48.7-5.2 -6 3.4-11.7 10.1-13.4 16.9 -1.8 7.7-1.4 20.5 7.2 31.2 10.4 10.7 35 13.5 55.2 14.5 3.6 0 8.1 6 11.6 7.2 2.4 0.6 5.4 0.6 7.8-0.6 4.2-2.4 8.4-6.6 13.1-7.2 12.5-1.2 27.8-2.4 37.3-11.3C445.8 211 449.6 193.4 443.5 174z" class="e"/><path d="M378.6 251l-0.1 0 0-0.3 0 0.3 -0.4 0v0c-4.4-0.2-7.7-3.2-10.7-5.8 -2.1-1.8-3.8-3.4-5.5-3.7 -0.3 0-0.6 0-1 0 -25.9 0-44.1-6.5-54.2-19.2 -8.2-10.4-9.1-23-7.1-31.3 1.6-6.6 7.1-13.4 13.6-17.1 5.3-3 11.2-4.5 17.6-4.5 14 0 30.5 7.2 47.8 20.8 17.3-13.6 33.8-20.8 47.8-20.8 6.4 0 12.4 1.5 17.6 4.5 6.3 3.6 12.2 11.9 13.6 17.1 1.9 8.3 1.1 20.9-7.1 31.3 -10.1 12.7-28.3 19.2-54.2 19.2 -0.3 0-0.7 0-1 0 -1.6 0.3-3.4 1.9-5.5 3.7 -3 2.6-6.4 5.6-10.7 5.8v0L378.6 251zM361.9 240.9c1.9 0.3 3.7 2 5.9 3.8 3 2.6 6.4 5.6 10.6 5.7l0.1 0 0.1 0c4.3-0.1 7.7-3.1 10.7-5.7 2.1-1.9 4-3.5 5.8-3.8 0.4 0 0.7 0 1.1 0h0c25.7 0 43.8-6.4 53.7-19 8.1-10.2 8.9-22.6 7-30.8 -1.3-5.1-7.1-13.2-13.3-16.7 -5.2-2.9-11-4.4-17.3-4.4 -13.9 0-30.4 7.2-47.6 20.8l-0.2 0.1 -0.2-0.1c-17.2-13.6-33.7-20.8-47.6-20.8 -6.3 0-12.2 1.5-17.3 4.4 -6.4 3.6-11.7 10.3-13.3 16.7 -1.9 8.2-1.1 20.6 7 30.8 10 12.6 28.1 19 53.8 19C361.2 240.9 361.5 240.9 361.9 240.9z" class="f"/><path d="M374.1 204.3l-20 10.7c0 0 17.5 18.3 24.4 17.6 6.9 0.7 24.4-17.6 24.4-17.6l-20-10.7H374.1z" fill="#5B0000"/><path d="M402.9 215l-20-10.7h-8.7l-20 10.7c0 0 6.1 6.3 12.4 11.4 3.5-9.9 11-14.4 20.7-8 1.4 2.1 4.4 4 5.2 6.4C398 220.1 402.9 215 402.9 215z" fill="#950000"/><path d="M367.4 227.2c4.2 3.2 8.4 5.7 11 5.5 2.7 0.3 7-2.4 11.3-5.6C378.9 217.3 370.4 224.1 367.4 227.2z" fill="#F2618B"/><path d="M387.2 225c-9.6-6.6-17-0.6-19.7 2.2 0.8 0.6 1.6 1.2 2.4 1.8C374.8 231.5 384.6 232.9 387.2 225z" fill="#FF6B8F"/><path d="M378.1 232.9c-2.4 0-6-1.9-10.8-5.5l-0.3-0.2 0.2-0.2c1.9-2 5.9-5.3 11.2-5.3 3.8 0 7.7 1.7 11.5 5.1l0.3 0.2 -0.3 0.2c-4.9 3.8-8.6 5.7-11 5.7 -0.1 0-0.3 0-0.4 0C378.3 232.9 378.2 232.9 378.1 232.9zM367.9 227.1c4.8 3.7 8.3 5.4 10.5 5.2 0.2 0 0.3 0 0.4 0 2.2 0 5.7-1.8 10.4-5.4 -3.6-3.1-7.2-4.7-10.8-4.7C373.5 222.3 369.8 225.2 367.9 227.1z" fill="#B64968"/><path d="M378.1 232.9L378.1 232.9c-7.2 0-23.5-17-24.2-17.7l-0.3-0.3 20.5-11h8.9l0.1 0 20.4 10.9 -0.3 0.3c-0.7 0.7-17.7 18.4-24.7 17.7C378.3 232.9 378.2 232.9 378.1 232.9zM354.5 215.1c2.2 2.3 17 17.3 23.5 17.3 0.1 0 0.2 0 0.4 0 0.2 0 0.3 0 0.4 0 6.5 0 21.3-15 23.5-17.3l-19.6-10.5h-8.6L354.5 215.1z" class="f"/><path d="M344 198.1c0 0-8.4 18.4 13.1 20.8 9.6 0.9 17-5.1 21.5-12.8 0 0 8.2 13.9 21.3 12.8 21.5-2.4 13-20.9 13-20.9L344 198.1z" class="d"/><path d="M344.2 197.5c0 0-8.3 15.1 13.2 17.5 9.6 0.9 16.5-5.4 21-13.1 0 0 8.3 12.9 21.3 11.8 16.7-2.3 13.1-15.7 13.1-15.7L344.2 197.5z" class="e"/><path d="M358.9 219.3c-0.6 0-1.3 0-1.9-0.1 -6.6-0.7-11.1-3.1-13.3-7 -3.7-6.4 0.5-14.6 0.5-14.6 0 0.1-3.5 8.2 0 14.4 2.2 3.7 6.5 6 12.9 6.7 8.4 0.8 16.1-3.8 21.2-12.7l0.3-0.4 0.3 0.4c0.1 0.1 8.3 13.7 21 12.7 6.4-0.7 10.7-3 12.9-6.7 3.5-6.1 0.1-14.3 0-14.4 0 0 4.2 8.3 0.5 14.6 -2.3 3.9-6.8 6.3-13.3 7 -0.5 0-0.9 0.1-1.4 0.1 -11 0-18.4-10.4-19.9-12.6C373.7 214.7 366.7 219.3 358.9 219.3z" class="f"/><path d="M392.2 242.9l-0.4-0.5c4-3.4 11.1-5.7 11.1-5.7C402.9 236.8 396.2 239.6 392.2 242.9z" class="f"/><path d="M364.7 242.9c-4-3.4-10.6-6.1-10.7-6.2 0 0 7.1 2.3 11.1 5.7L364.7 242.9z" class="f"/><path d="M377.8 169.7c-4.3 0.1-24.8 1-23.7 9.8 1.2 9.7 21.1 18 24.4 17.9 3.3 0.1 23.2-8.2 24.4-17.9 1.1-8.9-19.5-9.7-23.7-9.8C378.9 169.7 378 169.7 377.8 169.7z" fill="#440A01"/><path d="M385.7 189.6c7.6-2.5 13.1-9 11.9-16.8 -6.1-2.7-15.9-3.1-18.6-3.2 -0.2 0-1.1 0-1.3 0 -4.3 0.1-24.8 1-23.7 9.8 0.3 2.8 2.2 5.5 4.8 7.9C367 193.3 376.4 192.5 385.7 189.6z" fill="#520E00"/><path d="M378.5 197.7L378.5 197.7l-0.1 0 -0.1 0c-3.4 0-23.4-8.2-24.6-18.2 -0.2-1.6 0.3-3 1.3-4.2 4.5-5.1 18.5-5.8 22.7-5.9 0.2 0 1.1 0 1.3 0 4.2 0.1 18.2 0.8 22.7 5.9 1.1 1.2 1.5 2.7 1.3 4.2C401.9 189.5 381.9 197.7 378.5 197.7zM378.5 197.1l0.1 0c3.3 0 22.8-8 24-17.7 0.2-1.4-0.2-2.7-1.2-3.8 -4.4-5.1-19.3-5.7-22.3-5.7 -0.2 0-1.1 0-1.3 0 -2.9 0.1-17.8 0.6-22.2 5.7 -1 1.1-1.4 2.4-1.2 3.8 1.2 9.7 20.7 17.7 24 17.7L378.5 197.1z" fill="#1C0300"/><path d="M388.9 174.3c0 1.5-5.7 2.9-12.9 3.1 -7.2 0.2-13-0.8-13.1-2.3 0-1.5 5.7-2.9 12.9-3.1C383 171.7 388.9 172.8 388.9 174.3z" fill="#976E66"/><ellipse cx="377" cy="228" rx="3.1" ry="1.6" fill="#FFA6BC"/></svg>