<svg version="1.1" id="Layer_1" xmlns="http://www.w3.org/2000/svg" xmlns:xlink="http://www.w3.org/1999/xlink" viewBox="0 0 768 430" enable-background="new 0 0 768 430" xml:space="preserve"> 
<path fill="#FFFFFF" d="M336.039,138.065c-0.064-0.182-0.13-0.375-0.181-0.557c-0.143-0.401-0.273-0.802-0.402-1.204
	c-0.556-1.683-1.114-3.353-1.67-5.037c-0.297-0.88-0.583-1.761-0.868-2.641c-2.137-6.408-4.247-12.817-6.37-19.227
	c-1.826-5.515-3.237-11.186-5.23-16.649c-1.683-4.661-3.741-9.141-4.934-13.97c-0.698-2.771-1.372-5.023-3.598-6.991
	c-3.988-3.508-9.93-3.78-14.954-3.47c-11.472,0.712-22.269,5.01-33.17,8.286c-7.984,2.402-15.85,5.146-23.605,8.154
	c0.077,0.308-0.04,0.661-0.436,0.764c-0.389,0.101-0.77,0.223-1.145,0.354c-0.046,1.052-14.687,5.894-4.1,4.673
	c1.234-0.157-2.496-0.386-3.307-1.282c-0.312,0.125-0.624,0.248-0.943,0.355c-0.433,0.146-0.721-0.162-0.774-0.514
	c-4.276,1.823-8.531,3.711-12.739,5.674c0.44,0.712,0.582,1.541,0.893,2.369c0.518,1.386,1.269,2.628,2.227,3.755
	c4.933-1.956,9.879-3.872,14.851-5.723c13.866-5.23,27.849-10.112,41.922-14.759c9.775-3.237,29.998-10.642,33.156,5.256
	c0.052,0.22,0.04,0.414,0.014,0.583c6.175,14.254,10.966,29.389,15.769,44.265c0.297,0.906,0.583,1.812,0.88,2.719
	c0.558,1.721,1.114,3.431,1.683,5.127c0.13,0.388,0.259,0.777,0.377,1.165c0.038,0.09,0.064,0.168,0.09,0.259
	c0.998,3.029,2.021,6.059,3.029,9.075c2.46,0.285,4.919,0.544,7.38,0.777C338.602,145.795,337.321,141.923,336.039,138.065z"/>
<path fill="none" d="M297.833,68.32c-11.472,0.712-22.269,5.01-33.17,8.286c-8.521,2.564-16.911,5.502-25.169,8.752
	c0.143,2.486-6.59,1.184-4.002,0.885c26.663-3.388-5.243-0.107-3.922,2.338c4.688-1.981-9.349,4.053-13.956,6.202
	c0.44,0.712,0.582,1.541,0.891,2.369c0.52,1.386,1.271,2.628,2.229,3.755c4.932-1.956,9.877-3.872,14.85-5.723
	c13.866-5.231,27.849-10.112,41.922-14.759c9.775-3.237,29.998-10.642,33.156,5.256c0.053,0.22,0.04,0.414,0.013,0.583
	c6.175,14.254,10.967,29.389,15.771,44.265c0.297,0.906,0.583,1.812,0.88,2.718c0.558,1.722,1.114,3.432,1.684,5.128
	c0.129,0.388,0.258,0.776,0.375,1.165c0.038,0.09,0.064,0.168,0.09,0.258c0.998,3.03,2.021,6.06,3.029,9.076
	c2.46,0.285,4.921,0.544,7.38,0.777c-1.282-3.858-2.562-7.729-3.845-11.587c-0.064-0.182-0.129-0.375-0.181-0.557
	c-0.145-0.401-0.272-0.802-0.402-1.204c-0.558-1.684-1.112-3.353-1.67-5.037c-0.297-0.88-0.583-1.761-0.869-2.641
	c-2.134-6.408-4.246-12.817-6.369-19.227c-1.826-5.515-3.237-11.186-5.23-16.649c-1.683-4.661-3.741-9.141-4.934-13.97
	c-0.699-2.771-1.372-5.023-3.598-6.991c-3.242-2.853-7.775-3.565-12.057-3.565C299.745,68.225,298.772,68.262,297.833,68.32"/>
<path fill="#FFFFFF" d="M352.986,188.442c-0.155-0.441-0.311-0.881-0.467-1.321c-2.355-6.654-4.635-13.348-6.874-20.082
	c-1.735-5.217-3.471-10.447-5.191-15.665c-2.409-0.065-4.855-0.298-7.303-0.596c2.356,7.056,4.699,14.099,6.888,21.194
	c1.657,5.347,3.237,10.733,4.66,16.158c0.039,0.168,0.091,0.324,0.13,0.492c0.077,0.284,0.142,0.556,0.193,0.815
	c0.492,2.187,0.57,3.598,2.797,4.583c1.942,0.854,4.894,0.259,6.771-0.583c0.052-0.025,0.104-0.038,0.156-0.064
	C354.151,191.73,353.569,190.086,352.986,188.442"/>
<g>
	<defs>
		<path id="SVGID_1_" d="M340.038,171.973c1.659,5.347,3.238,10.733,4.661,16.158c0.04,0.168,0.092,0.324,0.131,0.492
			c0.077,0.284,0.143,0.556,0.195,0.815c0.49,2.187,0.569,3.598,2.795,4.583c1.942,0.854,4.894,0.259,6.771-0.583
			c0.052-0.025,0.104-0.038,0.156-0.064c-0.596-1.645-1.178-3.289-1.761-4.932c-0.155-0.441-0.311-0.881-0.467-1.321
			c-2.356-6.654-4.634-13.348-6.874-20.082c-1.735-5.217-3.469-10.447-5.191-15.665c-2.41-0.064-4.856-0.297-7.303-0.596
			C335.508,157.835,337.852,164.877,340.038,171.973"/>
	</defs>
	<clipPath id="SVGID_2_">
		<use xlink:href="#SVGID_1_"  overflow="visible"/>
	</clipPath>
	<path clip-path="url(#SVGID_2_)" fill="#F45165" d="M361.668,174.925c-2.598-4.861-7.762-4.433-12.422-5.332
		c-3.635-0.701-7.31-1.431-10.89-2.335c-8.24-2.077-14.095,10.52-6.041,14.645c3.488,1.788,6.898,3.398,10.575,4.788
		c1.597,0.603,3.139,1.33,4.758,1.86c4.014,1.313,7.205,0.38,10.743-1.601C362.656,184.562,363.854,179.016,361.668,174.925"/>
</g>
<path fill="#E4EAEF" d="M342.344,149.886c2.304,0.221,4.596,0.401,6.901,0.557c10.889,0.738,21.802,1.01,32.703,0.829
	c11.109-0.194,22.218-0.868,33.274-2.033c5.424-0.569,10.837-1.243,16.222-2.045c4.091-0.609,11.238-0.493,13.529-4.623
	c-21.375-7.976-43.397-12.364-66.301-11.756c-11.393,0.311-22.747,1.748-33.843,4.337c-2.266,0.531-4.531,1.101-6.772,1.734
	c0.079,0.221,0.143,0.428,0.22,0.647C339.639,141.651,340.998,145.769,342.344,149.886"/>
<path fill="#E4EAEF" d="M316.127,144.914c-1.761,2.02,2.706,2.344,3.768,2.473c3.223,0.427,6.447,0.777,9.671,1.152
	c0.052,0,0.104,0.013,0.156,0.013c-0.868-2.745-1.749-5.477-2.655-8.208c-3.197,1.152-6.331,2.486-9.489,3.715
	C317.046,144.267,316.488,144.487,316.127,144.914"/>
<path fill="#E4EAEF" d="M456.069,142.61c-1.45-3.56-4.958-5.736-8.338-7.238c-7.405-3.289-15.64-4.039-23.55-5.308
	c-10.733-1.709-21.557-2.874-32.419-3.353c-27.835-3.263-52.445,3.51-55.738,4.026c0,0,0.984,5.088,1.645,4.933
	c17.97-6.089,53.963-6.098,53.963-6.098c18.708,0.829,37.598,4.622,54.675,12.001c0.673,0.298,0.324,0.997-0.233,1.191
	c-0.582,2.875-3.495,4.014-6.201,4.623c-5.412,1.204-11.044,1.787-16.533,2.486c-12.067,1.528-24.211,2.46-36.368,2.81
	c-14.721,0.427-29.454,0.09-44.11-1.205c1.658,5.011,3.315,10.021,4.959,15.044c1.489,4.519,3.211,8.959,4.739,13.464
	c0.672,1.969,1.695,4.416,2.473,6.876c8.44-0.88,16.92-1.308,25.414-1.295c10.267,0.013,20.521,0.673,30.697,1.942
	c5.152,0.647,10.28,1.45,15.394,2.421c4.843,0.919,10.812,1.438,15.239,3.703c0.155,0.077,0.932,0.544,0.893,0.984
	c-1.308,14.358-2.511,29.558-3.818,43.916c-2.331,25.492-4.661,50.985-6.992,76.49c-2.278,24.961-4.182,50.014-7.056,74.91
	c0.519,0.195,0.647,0.934-0.025,1.257c-14.565,7.005-32.446,7.937-48.306,7.121c-8.48-0.44-17.039-1.373-25.388-2.991
	c-3.548-0.686-12.43-2.667-12.895-7.418c-0.259,0.284-0.894,0.129-0.946-0.363c-1.722-14.267-2.706-28.651-3.975-42.97
	c-4.466-50.17-8.933-100.326-13.36-150.508c-0.079-1.917,9.476-3.249,14.461-4.195c2.615-0.493,5.231-0.946,7.858-1.36
	c-0.492-1.631-0.893-3.288-1.372-4.698c-1.644-4.959-3.224-9.944-4.791-14.942c-1.916-6.136-3.806-12.299-5.748-18.436
	c-3.081-0.401-6.164-0.842-9.18-1.114c-1.579-0.142-6.046,0.078-6.771-1.942c-0.504-1.411,0.116-2.978,1.423-3.638
	c3.6-1.799,7.147-3.198,10.889-4.544c-0.104-0.324-0.22-0.661-0.324-0.984c-0.453-1.347-0.906-2.693-1.359-4.039
	c-5.684,2.344-10.876,5.631-15.29,10.383c0.013,0.077,0.064,0.143,0.064,0.22c2.239,41.818,5.101,83.598,8.765,125.326
	c1.838,20.846,3.859,41.689,6.033,62.508c1.062,10.202,2.175,20.392,3.315,30.58c1.436,13.025-1.309,32.757,13.607,37.08
	c3.664,1.062,7.47,1.774,11.212,2.447c9.49,1.722,19.109,2.576,28.742,2.707c8.959,0.116,17.932-0.467,26.8-1.762
	c10.928-1.579,22.049-3.677,25.26-15.433c2.266-8.247,1.062-17.231,1.812-25.493c0.906-9.787,1.839-19.574,2.771-29.363
	c1.929-20.443,3.936-40.873,5.904-61.303c1.967-20.431,3.948-40.861,5.917-61.291c0.996-10.345,1.695-20.702,2.562-31.047
	c0.44-5.1,0.984-10.177,1.49-15.251c0.439-4.467,1.89-9.167,1.89-13.633C456.251,148.099,457.157,145.29,456.069,142.61"/>
<path fill="#D61A29" d="M427.185,191.626c-5.101-1.009-10.228-1.838-15.368-2.523c-10.435-1.36-20.96-2.059-31.486-2.085
	c-8.325-0.013-16.637,0.375-24.922,1.178c0.504,1.799,0.789,3.561,0.634,5.114c-0.026,0.233-0.065,0.44-0.117,0.647
	c-0.997,4.039-7.289,3.482-10.163,0.984c-1.476-1.295-2.408-3.159-3.12-5.154c-3.082,0.454-6.137,0.971-9.192,1.542
	c-3.975,0.751-8.015,1.994-12.054,2.562c0.078,0.907,0.155,1.801,0.247,2.706c1.178,13.413,2.382,26.853,3.573,40.266
	c2.214,25,4.402,50.014,6.603,75.015c1.101,12.57,2.357,25.168,3.535,37.767c1.166,12.584,2.24,25.193,2.952,37.791
	c1.411,0.687,2.33,2.098,3.638,3.017c1.294,0.894,2.757,1.554,4.234,2.085c3.353,1.179,6.9,1.644,10.396,2.175
	c7.264,1.087,14.579,1.877,21.92,2.175c7.793,0.311,15.613,0.052,23.342-1.049c7.614-1.087,14.684-3.327,21.933-5.749
	c0.959-14.24,2.383-28.456,3.677-42.673l13.491-149.018l0.336-3.702c0-0.053,0.026-0.091,0.039-0.144
	C436.649,194.346,431.768,192.52,427.185,191.626 M438.229,198.747c-18.954,3.962-38.322,5.853-57.69,5.515
	c-9.607-0.167-19.201-0.88-28.73-2.122c-4.829-0.635-9.646-1.398-14.422-2.332c-4.351-0.842-9.011-1.502-13.142-3.133
	c-0.129-0.052-0.181-0.168-0.181-0.298c0-0.142,0.09-0.284,0.272-0.271c4.44,0.414,8.855,1.748,13.244,2.536
	c4.583,0.842,9.206,1.555,13.841,2.149c9.606,1.244,19.277,1.942,28.962,2.098c19.238,0.311,38.453-1.579,57.29-5.542
	c0.569-0.129,1.049,0.402,1.049,0.854C438.721,198.45,438.579,198.67,438.229,198.747"/>
<g>
	<defs>
		<path id="SVGID_3_" d="M380.538,204.262c-9.607-0.167-19.201-0.88-28.731-2.122c-4.827-0.635-9.645-1.398-14.421-2.332
			c-4.352-0.842-9.011-1.502-13.142-3.133c-0.129-0.052-0.182-0.168-0.182-0.298c0-0.142,0.092-0.284,0.273-0.271
			c4.44,0.414,8.855,1.748,13.243,2.536c4.584,0.842,9.206,1.555,13.842,2.149c9.606,1.244,19.277,1.942,28.962,2.098
			c19.24,0.311,38.453-1.579,57.289-5.542c0.571-0.129,1.048,0.402,1.048,0.854c0,0.247-0.14,0.467-0.49,0.544
			c-17.517,3.662-35.391,5.553-53.286,5.553C383.473,204.3,382.007,204.287,380.538,204.262 M355.408,188.196
			c0.504,1.799,0.79,3.561,0.634,5.114c-0.026,0.233-0.064,0.44-0.116,0.647c-0.998,4.039-7.29,3.482-10.164,0.984
			c-1.476-1.295-2.407-3.159-3.12-5.154c-3.083,0.454-6.136,0.971-9.192,1.542c-3.975,0.751-8.015,1.994-12.056,2.562
			c0.08,0.907,0.157,1.801,0.248,2.706c1.178,13.413,2.382,26.853,3.573,40.266c2.214,25,4.402,50.014,6.604,75.015
			c1.099,12.57,2.355,25.168,3.534,37.767c1.166,12.584,2.239,25.193,2.952,37.791c1.411,0.687,2.33,2.098,3.638,3.017
			c1.294,0.894,2.756,1.554,4.234,2.085c3.353,1.179,6.899,1.644,10.396,2.175c7.264,1.087,14.578,1.877,21.919,2.175
			c7.793,0.311,15.613,0.052,23.345-1.049c7.612-1.087,14.682-3.327,21.931-5.749c0.959-14.24,2.381-28.456,3.677-42.673
			l13.491-149.018l0.337-3.702c0-0.053,0.024-0.091,0.038-0.144c-4.66-0.206-9.541-2.032-14.124-2.926
			c-5.102-1.009-10.229-1.838-15.369-2.523c-10.435-1.36-20.96-2.059-31.486-2.085c-0.134-0.001-0.266-0.001-0.398-0.001
			C371.74,187.016,363.56,187.406,355.408,188.196"/>
	</defs>
	<clipPath id="SVGID_4_">
		<use xlink:href="#SVGID_3_"  overflow="visible"/>
	</clipPath>
	<g clip-path="url(#SVGID_4_)">
		<g>
			<defs>
				<rect id="SVGID_5_" x="338.467" y="295.376" width="96.916" height="108.354"/>
			</defs>
			<clipPath id="SVGID_6_">
				<use xlink:href="#SVGID_5_"  overflow="visible"/>
			</clipPath>
			<path clip-path="url(#SVGID_6_)" fill="#D61A29" d="M338.521,386.671c6.011,5.217,16.542,2.876,23.278,0.835
				c14.369-4.356,25.233-10.152,36.748-20.32c9.103-8.035,17.719-20.146,22.992-31.107c2.995-6.223,4.196-13.079,6.146-19.631
				c2.088-7.021,6.145-13.838,7.312-21.071c-0.594,11.455,1.32,22.968-0.248,34.504c-1.511,11.111-2.519,22.116-3.636,33.333
				c-0.792,7.938-0.833,20.327-4.109,27.748c-3.273,7.408-13.812,10.729-21.301,11.433c-8.558,0.806-17.351-0.512-25.938,0.021
				c-8.552,0.531-16.147,2.426-24.685,0.403C346.029,400.676,337.704,394.819,338.521,386.671"/>
		</g>
	</g>
</g>
<path fill="#D61A29" d="M232.501,85.345c0.454,0.026,0.842,0.311,0.817,0.894c-0.018,0.359,0.053,0.694,0.157,1.009
	c1.277-0.615,2.528-1.284,3.816-1.871c-0.109-0.629-0.352-1.245-0.685-1.742c-0.066-0.104-0.13-0.194-0.208-0.284
	c-0.044-0.056-0.086-0.094-0.129-0.146c-1.098,0.294-2.198,0.601-3.237,1.155c-0.783,0.417-1.54,0.863-2.303,1.293
	c-0.032,0.169-0.063,0.341-0.091,0.506c0.297-0.142,0.595-0.271,0.893-0.389C231.765,85.475,232.153,85.333,232.501,85.345z"/>
<g opacity="0.66">
	<g>
		<defs>
			<rect id="SVGID_7_" x="329.812" y="155.021" width="30.089" height="228.275"/>
		</defs>
		<clipPath id="SVGID_8_">
			<use xlink:href="#SVGID_7_"  overflow="visible"/>
		</clipPath>
		<path clip-path="url(#SVGID_8_)" fill="#FFFFFF" d="M358.887,350.896c-0.421-8.577-1.123-17.149-1.683-25.719
			c-1.205-18.432-2.411-36.863-3.617-55.297c-1.177-18.003-2.355-36.007-3.534-54.01c-0.588-8.999-1.271-17.988-1.943-26.982
			c-0.678-9.083-0.166-19.423-2.619-28.188c-2.014-7.2-14.095-8.006-15.255,0.192c-1.25,8.837,0.609,18.72,1.157,27.623
			c0.526,8.578,1.017,17.157,1.616,25.729c1.286,18.419,2.604,36.838,3.907,55.257c1.271,17.992,2.544,35.982,3.816,53.973
			c0.635,8.995,1.201,17.997,1.908,26.986c0.699,8.886,0.645,19.653,3.572,28.062c2.095,6.014,11.411,6.762,12.854-0.163
			C360.833,369.888,359.312,359.552,358.887,350.896"/>
	</g>
</g>
<g>
	<g>
		<path fill="#D61A29" d="M425.764,263.236c-0.574-2.296-4.372-1.963-5.302-0.17c-2.118,4.092-2.141,8.572-2.663,13.116
			c-0.58,5.053-1.203,10.1-1.781,15.152c-1.1,9.609-2.119,19.261-2.604,28.923c-0.997,19.906-2.482,41.132,1.461,60.789
			c0.288,1.438,2.703,1.7,2.999,0.108c3.683-19.772,3.157-40.536,4.562-60.573c0.713-10.167,1.146-20.352,1.865-30.521
			C424.895,281.663,427.802,271.41,425.764,263.236"/>
	</g>
</g>
<path fill="#ADADAD" d="M457.609,139.709c-3.508-5.269-10.37-8.014-16.3-9.36c-17.361-3.936-35.332-6.034-53.107-6.577
	c-16.896-0.505-34.077,0.427-50.661,3.819c-0.79,0.156-1.581,0.324-2.383,0.518c-5.333-16.184-10.681-32.368-16.041-48.564
	c-0.22-5.282-3.741-9.801-8.648-12.105c-8.907-4.169-20.456-0.375-29.39,1.773c-12.882,3.108-25.558,7.03-37.909,11.782
	c-1.502,0.583-3.003,1.165-4.492,1.774c-0.051-0.082-0.111-0.155-0.166-0.234c-1.801,0.65-3.725,0.891-5.479,1.827
	c-1.258,0.671-2.455,1.414-3.715,2.035c0.01,0.107,0.006,0.217,0.026,0.322c-1.398,0.621-2.784,1.243-4.168,1.89
	c-2.085,0.971-7.755,2.524-9.05,4.389c-1.566,2.279,0.504,6.823,2.175,8.545c3.237,3.353,11.847-0.945,17.09-3.366
	c0.014,0.134,0.042,0.267,0.058,0.401c0.781-0.439,1.602-0.781,2.443-1.083c-0.015-0.043-0.026-0.09-0.041-0.134v-0.013
	c0-0.117,0.264-0.233,0.523-0.324c0.777-0.285,1.388-0.557,2.166-0.829c0.028,0.14,0.051,0.275,0.079,0.415
	c0.617-0.193,1.234-0.397,1.847-0.625c-0.077-0.154-0.144-0.312-0.227-0.464c6.564-2.37,13.142-4.7,19.731-6.953
	c6.382-2.188,12.779-4.312,19.187-6.396c7.808-2.525,22.23-8.066,26.528,2.252c0.013,0.091,0,0.169,0.027,0.272
	c4.647,15.756,10.835,31.163,16.312,46.712c-6.461,2.486-12.468,6.137-16.339,11.666c-2.045,2.913-0.569,8.325-0.375,11.678
	c0.247,4.635,0.519,9.256,0.791,13.892c0.556,9.257,1.139,18.515,1.774,27.771c1.255,18.501,2.654,36.99,4.208,55.478
	c0.544,6.474,1.1,12.935,1.67,19.408c1.863,20.856,3.922,41.7,6.188,62.52c1.114,10.189,2.266,20.392,3.496,30.581
	c2.11,17.529-1.386,34.141,19.603,39.19c11.6,2.797,23.549,4.376,35.473,4.621c11.407,0.234,22.904-0.608,34.129-2.718
	c5.787-1.101,13.736-2.953,17.659-7.833c6.072-7.548,4.183-22.022,5.114-31.164c1.048-10.214,2.046-20.429,3.056-30.645
	c2.071-20.857,4.053-41.715,6.059-62.573l5.931-61.303c1.087-11.147,2.511-22.256,3.701-33.39
	c0.583-5.477,1.114-10.965,1.502-16.468c0.338-4.596,0.506-9.077,1.386-13.621C459.682,145.29,459.487,142.532,457.609,139.709z
	 M310.676,86.265c0.025-0.169,0.038-0.363-0.014-0.583c-3.158-15.898-23.381-8.493-33.156-5.256
	c-14.073,4.647-28.056,9.529-41.922,14.759c-4.973,1.852-9.917,3.768-14.851,5.723c-0.958-1.127-1.708-2.37-2.227-3.755
	c-0.311-0.828-0.453-1.657-0.894-2.369c4.209-1.962,8.465-3.851,12.741-5.674c-0.043-0.292,0.073-0.614,0.43-0.734
	c3.293-1.106,6.109-3.219,9.495-4.1c0.413-0.107,0.701,0.164,0.78,0.484c7.756-3.008,15.622-5.751,23.605-8.154
	c10.901-3.276,21.698-7.574,33.168-8.286c5.025-0.311,10.967-0.039,14.955,3.47c2.226,1.968,2.899,4.221,3.598,6.991
	c1.191,4.829,3.25,9.309,4.934,13.97c1.994,5.464,3.405,11.135,5.23,16.649c2.123,6.409,4.233,12.818,6.37,19.227
	c0.285,0.88,0.569,1.761,0.868,2.641c0.556,1.684,1.114,3.354,1.67,5.037c0.129,0.401,0.259,0.803,0.401,1.204
	c0.052,0.182,0.118,0.375,0.182,0.557c1.281,3.858,2.563,7.729,3.845,11.587c-2.46-0.233-4.919-0.492-7.38-0.777
	c-1.01-3.017-2.032-6.046-3.029-9.075c-0.025-0.091-0.052-0.169-0.091-0.259c-0.116-0.388-0.245-0.777-0.375-1.165
	c-0.569-1.696-1.125-3.406-1.683-5.127c-0.297-0.907-0.583-1.813-0.88-2.719C321.642,115.654,316.851,100.519,310.676,86.265z
	 M355.408,188.196c8.285-0.803,16.597-1.191,24.922-1.178c10.526,0.026,21.052,0.725,31.486,2.085
	c5.141,0.685,10.268,1.515,15.368,2.523c4.583,0.894,9.465,2.72,14.125,2.926c-0.013,0.053-0.039,0.091-0.039,0.144l-0.336,3.702
	l-13.491,149.018c-1.294,14.217-2.718,28.433-3.677,42.673c-7.249,2.422-14.318,4.662-21.933,5.749
	c-7.729,1.101-15.549,1.359-23.342,1.049c-7.341-0.298-14.656-1.088-21.92-2.175c-3.495-0.531-7.042-0.996-10.396-2.175
	c-1.477-0.531-2.94-1.191-4.234-2.085c-1.308-0.919-2.227-2.33-3.638-3.017c-0.712-12.598-1.787-25.207-2.952-37.791
	c-1.178-12.599-2.434-25.196-3.535-37.767c-2.2-25.001-4.389-50.015-6.603-75.015c-1.191-13.413-2.395-26.853-3.573-40.266
	c-0.091-0.905-0.168-1.799-0.247-2.706c4.04-0.569,8.079-1.812,12.054-2.562c3.055-0.57,6.11-1.087,9.192-1.542
	c0.712,1.995,1.645,3.859,3.12,5.154c2.874,2.498,9.167,3.055,10.163-0.984c0.052-0.208,0.091-0.415,0.117-0.647
	C356.196,191.756,355.912,189.995,355.408,188.196z M354.592,193.439c-1.877,0.842-4.83,1.437-6.771,0.583
	c-2.227-0.985-2.305-2.396-2.797-4.583c-0.052-0.259-0.116-0.531-0.193-0.815c-0.039-0.168-0.091-0.324-0.13-0.492
	c-1.423-5.425-3.003-10.812-4.66-16.158c-2.189-7.096-4.532-14.138-6.888-21.194c2.448,0.298,4.894,0.531,7.303,0.596
	c1.721,5.217,3.457,10.448,5.191,15.665c2.239,6.734,4.519,13.427,6.874,20.082c0.156,0.44,0.312,0.88,0.467,1.321
	c0.583,1.644,1.165,3.288,1.761,4.932C354.696,193.401,354.644,193.414,354.592,193.439z M338.278,137.535
	c-0.077-0.22-0.142-0.427-0.22-0.647c2.241-0.635,4.506-1.205,6.772-1.735c11.095-2.589,22.45-4.026,33.843-4.337
	c22.903-0.608,44.926,3.78,66.301,11.756c-2.291,4.13-9.438,4.014-13.529,4.623c-5.387,0.802-10.798,1.476-16.222,2.045
	c-11.057,1.166-22.165,1.839-33.274,2.033c-10.901,0.181-21.816-0.091-32.703-0.829c-2.305-0.155-4.597-0.336-6.901-0.557
	C340.998,145.769,339.637,141.651,338.278,137.535z M329.721,148.552c-0.052,0-0.104-0.013-0.156-0.013
	c-3.224-0.375-6.448-0.725-9.672-1.152c-1.061-0.129-5.528-0.453-3.767-2.473c0.361-0.427,0.919-0.647,1.449-0.854
	c3.16-1.229,6.293-2.563,9.49-3.715C327.973,143.076,328.854,145.808,329.721,148.552z M455.85,150.844
	c0,4.466-1.45,9.166-1.89,13.633c-0.506,5.075-1.05,10.151-1.49,15.251c-0.867,10.345-1.566,20.703-2.562,31.047
	c-1.969,20.429-3.95,40.86-5.917,61.291c-1.969,20.43-3.976,40.859-5.904,61.303c-0.932,9.789-1.864,19.576-2.771,29.363
	c-0.751,8.262,0.453,17.246-1.812,25.493c-3.211,11.756-14.332,13.854-25.26,15.433c-8.868,1.295-17.841,1.878-26.8,1.762
	c-9.632-0.131-19.251-0.985-28.742-2.707c-3.742-0.673-7.548-1.385-11.212-2.447c-14.916-4.323-12.171-24.055-13.607-37.08
	c-1.141-10.188-2.253-20.378-3.315-30.58c-2.174-20.818-4.195-41.662-6.033-62.508c-3.664-41.728-6.525-83.507-8.765-125.326
	c0-0.078-0.052-0.143-0.064-0.22c4.414-4.751,9.606-8.04,15.29-10.383c0.453,1.347,0.906,2.692,1.359,4.039
	c0.104,0.324,0.22,0.661,0.324,0.984c-3.741,1.346-7.289,2.745-10.889,4.544c-1.307,0.661-1.928,2.227-1.423,3.638
	c0.724,2.02,5.191,1.8,6.771,1.942c3.017,0.272,6.099,0.712,9.18,1.114c1.942,6.137,3.833,12.3,5.748,18.436
	c1.566,4.998,3.147,9.983,4.791,14.942c0.479,1.411,0.88,3.067,1.372,4.698c-2.627,0.415-5.243,0.867-7.858,1.36
	c-4.985,0.946-14.54,2.278-14.461,4.195c4.428,50.182,8.895,100.338,13.36,150.508c1.27,14.318,2.253,28.703,3.975,42.97
	c0.052,0.492,0.687,0.647,0.946,0.363c0.465,4.751,9.347,6.732,12.895,7.418c8.35,1.618,16.908,2.551,25.388,2.991
	c15.859,0.815,33.74-0.116,48.306-7.121c0.673-0.323,0.544-1.062,0.025-1.255c2.874-24.898,4.777-49.951,7.056-74.912
	c2.331-25.505,4.661-50.998,6.992-76.49c1.308-14.357,2.511-29.558,3.818-43.916c0.039-0.44-0.737-0.907-0.893-0.984
	c-4.428-2.266-10.396-2.784-15.239-3.703c-5.113-0.971-10.241-1.774-15.394-2.421c-10.177-1.269-20.431-1.929-30.697-1.942
	c-8.494-0.013-16.974,0.415-25.414,1.295c-0.778-2.46-1.801-4.907-2.473-6.876c-1.527-4.505-3.25-8.945-4.739-13.464
	c-1.644-5.023-3.301-10.034-4.959-15.044c14.656,1.295,29.39,1.632,44.11,1.205c12.157-0.35,24.301-1.282,36.368-2.81
	c5.489-0.699,11.121-1.282,16.533-2.486c2.706-0.609,5.619-1.748,6.201-4.623c0.558-0.194,0.906-0.893,0.233-1.191
	c-17.077-7.379-35.967-11.173-54.675-12.001c-4.144-0.194-8.261-0.233-12.352-0.129c-11.329,0.272-22.644,1.683-33.714,4.208
	c-2.654,0.608-5.283,1.281-7.897,2.019c-0.556-1.644-1.087-3.289-1.645-4.932c1.464-0.337,2.953-0.635,4.442-0.907
	c13.594-2.447,27.46-3.457,41.274-3.379c3.341,0.013,6.681,0.103,10.021,0.259c10.862,0.479,21.686,1.644,32.419,3.353
	c7.91,1.269,16.145,2.02,23.55,5.308c3.38,1.502,6.888,3.678,8.338,7.238C457.157,145.29,456.251,148.099,455.85,150.844z"/>
<path d="M337.579,198.643c-4.389-0.789-8.804-2.123-13.244-2.536c-0.182-0.014-0.272,0.129-0.272,0.271
	c0,0.13,0.052,0.247,0.181,0.298c4.13,1.631,8.791,2.291,13.142,3.133c4.776,0.933,9.594,1.697,14.422,2.332
	c9.529,1.241,19.123,1.955,28.73,2.122c19.368,0.337,38.736-1.553,57.69-5.515c0.351-0.077,0.492-0.297,0.492-0.544
	c0-0.453-0.479-0.983-1.049-0.854c-18.837,3.962-38.05,5.853-57.29,5.542c-9.685-0.155-19.355-0.854-28.962-2.098
	C346.785,200.198,342.162,199.485,337.579,198.643"/>
</svg>
