<svg xmlns="http://www.w3.org/2000/svg" viewBox="0 0 768 430" style="enable-background:new 0 0 768 430;version:1"><style>.a{fill:#009800;}.b{fill:#FFFCDD;}.c{fill:#B27D6C;}.d{fill:#FFCFAF;}.e{fill:#FFF;}.f{fill:#B2947C;}.g{fill:#231F20;}.h{fill:none;stroke-linecap:round;stroke-linejoin:round;stroke-miterlimit:10;stroke-width:3;stroke:#94635B;}.i{enable-background:new    ;fill:#FFF;opacity:0.1;}.j{fill:#F7931E;}.k{fill:#F26522;}.l{fill:#F9EF6B;}.m{fill:#FFCD33;}.n{fill:#F8E80B;}</style><path d="M299 373.4V217h5.4v156.4" class="a"/><path d="M393.2 246.4l-23.1 31.6c-16.8 15.4-44.3 17.5-66.5 26.3l19-34.8c16.1-17.5 46.4-17.8 70.5-23.1L393.2 246.4z" class="a"/><path d="M212.5 272.3l22.5 30.9c16.4 15 43.3 17.1 64.8 25.7l-18.5-34c-15.7-17.1-45.3-17.3-68.8-22.6L212.5 272.3z" class="a"/><g><path d="M-561.3-279.3c14.1 11.7 3.5 30.4-8.5 49.2 -21.5-14.5-45.4-27-58.8-30.5 34.9 13.3 24 72.1 37.4 106.2 1.3 5.5 4.2 10 8.2 13.8 9.9 11.5 18.4 16.2 31.1 14.3 15.6 3.1 25.5-2.3 37.2-16.3 26.9-32.2 5.3-113.3 48.8-129.8 -15.3 4-43 18.7-67.2 35.4 -8.3-18-18.7-35.8-28.2-42.2L-561.3-279.3z" fill="#F55"/></g><path d="M385.4 290.1c0 0-8.2 12.5-67.6 31.1 -4.5 1.4-12.3 18.5-12.5 25.6 -0.2 10.5 13.2 30.4 22.3 35.5 9.5 5.2 34.2 5.9 43.3 0 9.6-6.2 25-38.1 25-38.1l3.9-31.5L385.4 290.1z" class="b"/><path d="M345.6 315.2c3.8 1 11.9 10.4 11.9 10.4s16.9 4.4 21.5 7.8c14.6 11 13.1 52.9-21.3 54.3 -8 0.3-24.8-2.4-31.7-6.6 -36-21.8-16.8-52.6-9.8-59.6C323.1 314.7 338.4 313.3 345.6 315.2L345.6 315.2z" class="c"/><path d="M511.9 283.9c0 0 6.1 21.8 67.6 31.1 7 1.1 12.3 18.5 12.5 25.6 0.2 10.5-13.2 30.4-22.3 35.5 -9.5 5.2-34.2 5.9-43.3 0 -9.6-6.2-25-38.1-25-38.1l-3.9-31.5L511.9 283.9 511.9 283.9z" class="b"/><path d="M551.8 309.4c-3.8 1-11.9 10.4-11.9 10.4s-16.9 4.4-21.5 7.8c-14.6 11-13.1 52.9 21.3 54.3 8 0.3 24.8-2.4 31.7-6.6 36-21.8 18.1-54.3 9.8-59.6C574.8 311.8 559 307.6 551.8 309.4z" class="c"/><path d="M398.8 138.1v0c-0.4 2.4-0.7 4.1-0.7 4.1s-0.3 4.2-1.6 10c-1.4 6.1-4.1 14-9 20.4 -5.2 6.9-13 12.3-24.5 12.3 -30.3 0-37.5-29-35.3-34.4 0.1-0.1 0.1-0.3 0.2-0.4 0.7-1.1 3-2.2 6.4-3.5 2.1-0.8 4.7-1.6 7.6-2.5 1.4-0.4 2.9-0.9 4.4-1.3 2.7-0.8 5.7-1.7 8.7-2.6h0c2.6-0.8 5.4-1.6 8.1-2.4 1.2-0.4 2.3-0.7 3.5-1.1 2-0.6 4-1.3 5.9-1.9 2.5-0.8 4.9-1.7 7.3-2.5 2.4-0.9 4.7-1.8 6.9-2.7 1.3-0.6 2.6-1.1 3.9-1.7 1.1-0.5 2.2-1 3.2-1.6 1.6-0.8 3-1.6 4.4-2.5h0C400.9 122.1 399.7 132.1 398.8 138.1L398.8 138.1z" class="b"/><path d="M537.3 189.3c-14.2 0-22.7-8.2-27.8-17.4v0c-2.1-3.9-3.6-7.9-4.7-11.6 -0.6-2-1-3.8-1.4-5.5 -0.4-1.8-0.6-3.3-0.8-4.6 -0.3-2.2-0.4-3.6-0.4-3.6s0-0.1 0-0.3c-0.1-0.3-0.2-1-0.3-1.9 -0.4-2.2-0.9-5.6-1.2-8.8 -0.4-4.6-0.3-8.6 1.5-7.4 0.9 0.6 1.8 1.1 2.8 1.7 0.8 0.4 1.7 0.9 2.5 1.3 0.4 0.2 0.9 0.5 1.4 0.7 2 0.9 4.1 1.9 6.3 2.7 3 1.2 6.2 2.4 9.4 3.5h0c2.8 1 5.7 1.9 8.6 2.8 4.8 1.5 9.6 2.9 14.1 4.2 2.5 0.7 4.8 1.4 7.1 2.1 1.7 0.5 3.4 1 5 1.5 1.7 0.5 3.3 1.1 4.7 1.6 2.7 0.9 4.9 1.8 6.4 2.6 1 0.5 1.6 1.1 2 1.5C575.1 158.6 568.5 189.3 537.3 189.3L537.3 189.3z" class="b"/><path d="M524.9 276.7c0 0.6 0 1.2 0 1.8 -0.1 8.9-1.5 17.9-4.9 26.7 -0.7 2-1.6 3.9-2.5 5.9 -1.7 3.4-4.9 6.4-9.1 9.1 -1.9 1.2-4 2.3-6.3 3.4 -2.3 1.1-4.8 2.1-7.3 3 -0.9 0.3-1.9 0.7-2.9 1 -13.1 4.2-28.1 6.5-37.9 6.8 -0.3 0-0.6 0-0.9 0h-0.3c-0.4 0-0.9 0-1.3 0 -0.2 0-0.4 0-0.6 0 -8.9-0.1-23.4-3.5-35.5-8.4 -5.2-2.1-9.9-4.5-13.6-7 -1.7-1.2-3.2-2.4-4.5-3.6 -0.8-0.8-1.6-1.7-2.4-2.5 0 0 0 0 0 0 -2-2.2-3.8-4.6-5.3-7 -1.3-2-2.4-4-3.3-6 -0.8-1.7-1.5-3.4-2.1-5.1 0 0 0 0 0 0 -0.1-0.4-0.3-0.7-0.4-1.1 -0.1-0.3-0.2-0.6-0.3-1 -0.8-2.5-1.4-5-1.9-7.5 -0.5-2.6-0.8-5.2-1-7.8v0c0-0.3 0-0.7-0.1-1 0-0.7-0.1-1.4-0.1-2.1 -0.2-7.8 0.8-15.7 2.5-23.3 0.6-2.7 1.3-5.4 2.1-8.1 0.9-3 1.9-6 2.9-8.8 0.6-1.7 1.2-3.3 1.9-4.9 1.9-4.7 3.9-9 5.8-13 3.8-7.8 7.5-13.9 9.7-17.4 1-1.6 1.8-2.7 2.1-3.2 0.1-0.2 0.2-0.2 0.2-0.2l14-0.5 29-0.9c0 0 0 0 0 0l3.1-0.1c0 0 0 0 0 0 0 0 0 0 0 0l26.8-0.9 11.2-0.4c0 0 1.1 1.3 2.8 3.8 4.7 6.5 14.3 20.9 21.4 39 0.2 0.6 0.5 1.2 0.7 1.8 0.2 0.4 0.3 0.8 0.5 1.2 0.1 0.2 0.1 0.4 0.2 0.6 0.2 0.6 0.4 1.2 0.7 1.8 0.2 0.6 0.4 1.2 0.6 1.8 0.1 0.4 0.3 0.9 0.4 1.3C522.5 254.1 524.8 265.3 524.9 276.7L524.9 276.7z" class="b"/><path d="" class="d"/><path d="M521.8 156.4c0 0.4 0 0.7-0.1 1.1 -0.1 2.3-0.4 4.7-0.7 7.2v0c-0.3 2.6-0.8 5.3-1.3 8v0c-3.4 16.4-11 34.1-25.6 45.9 0 0-0.1 0.1-0.1 0.1 -10.4 8.3-24.2 13.7-42.5 13.7 -19.1 0-33.5-5.7-44.2-14.3h0c-0.1-0.1-0.2-0.2-0.3-0.3 -13.6-11.2-21.1-27.4-24.5-42.9 -1-4.5-1.6-9-2-13.3v0c-0.2-3.1-0.3-6.2-0.3-9 0 0 0 0 0 0v-0.1c0-2.9 0.3-5.7 0.6-8.2v0c0.1-0.9 0.2-1.7 0.4-2.6 0-0.1 0-0.3 0.1-0.4 0.4-2.5 1.3-5 2.4-7.4 0.6-1.2 1.2-2.4 1.9-3.6 0.8-1.3 1.7-2.7 2.6-4 1-1.3 2-2.6 3.2-3.9 9.8-11 25.9-20.4 45.3-23.7 2.8-0.5 5.6-0.8 8.6-1.1 2.1-0.2 4.1-0.2 6.3-0.3h0.4c2.9 0 5.7 0.1 8.5 0.4 21.1 2.1 38.9 12 49.8 23.9 3.1 3.4 5.7 6.9 7.6 10.5 0.3 0.6 0.6 1.1 0.9 1.7 1.3 2.7 2.2 5.4 2.7 8.1 0.2 0.9 0.3 1.8 0.4 2.7C521.9 148 522 152 521.8 156.4L521.8 156.4z" class="b"/><path d="M451.3 139.1c0 0 28.2-5.7 37.4-3.9 20.2 3.9 23 22.3 19.7 40.1 -3.4 18.3-22.6 47.9-57.1 47.9 -33.5 0-55.3-30.6-58.6-48.6 -3.3-18.2-1.1-30.2 12.6-39.4C420.4 125.1 451.3 139.1 451.3 139.1L451.3 139.1z" class="d"/><ellipse cx="486.5" cy="167" rx="16.9" ry="18.2" class="e"/><ellipse cx="416.8" cy="167" rx="16.9" ry="18.2" class="e"/><polygon points="446.6 208.6 446.6 195.2 447.2 194.8 447.2 208.6 " class="f"/><path d="M447.7 194h0l-1.6 0.9v14.1h1.6L447.7 194z" fill="#94635B"/><path d="M435.9 190.2c0.5 3.2 11 6.6 11 6.6s10.4-3.4 11-6.6c0.5-2.9-2.9-4.9-10.9-4.9C439.3 185.2 435.5 187.3 435.9 190.2z" class="c"/><ellipse cx="416.3" cy="167.8" rx="12.6" ry="12.5" class="f"/><ellipse cx="487" cy="167.8" rx="12.6" ry="12.5" class="f"/><path d="M498.6 252.2c13.1-0.3 18.3 8.3 21.7 13.8 12.1 19.8 13.1 74.9 8.5 92.6 -1.5 5.9-14.9 13.1-21 12.5 -4.3-0.4-14.4-9.2-14.4-9.2s-12.7 9.1-17.7 9.2c-5.7 0.1-19.8-4.2-20.6-9.8 -1.3-8.5-4.6-29.3 0-37.4 6.8-12.1 7.5-40.6 14.1-52.5C473.3 263.5 482.7 252.6 498.6 252.2z" class="b"/><path d="M406.7 252.2c-13.1-0.3-18.3 8.3-21.7 13.8 -12.1 19.8-13.1 74.9-8.5 92.6 1.5 5.9 14.9 13.1 21 12.5 4.3-0.4 14.4-9.2 14.4-9.2s9.5 9.2 17.7 9.2c7.2 0 18.3-4.6 20.6-9.8 3.6-8.1 4.6-29.3 0-37.4 -6.8-12.1-7.5-40.6-14.1-52.5C432 263.5 422.7 252.6 406.7 252.2z" class="b"/><path d="M375.9 352.1c11.5-16.6 30.3 4.4 30.3 4.4s9.6-13.8 26.7-15c4.9-0.4 13.5-2 19.4 3.9 6.9 6.9 11.7 46.9-18.7 47.2 -13.2 0.1-19.5-10.2-19.5-10.2s-5 10.3-14.6 10.3c-16.9 0-21-12.5-21-12.5S371.9 357.9 375.9 352.1z" class="c"/><path d="M533.6 352.1c-11.5-16.6-30.3 4.4-30.3 4.4s-9.6-13.8-26.7-15c-4.9-0.4-13.5-2-19.4 3.9 -6.9 6.9-11.7 46.9 18.7 47.2 13.2 0.1 19.5-10.2 19.5-10.2s5 10.3 14.6 10.3c16.9 0 21-12.5 21-12.5S537.6 357.9 533.6 352.1z" class="c"/><ellipse cx="416.3" cy="167.8" rx="10.4" ry="10.3" class="g"/><ellipse cx="422.8" cy="166.1" rx="2.9" ry="3.2" class="e"/><ellipse cx="487" cy="167.8" rx="10.4" ry="10.3" class="g"/><ellipse cx="493.7" cy="166.1" rx="2.9" ry="3.2" class="e"/><path d="M446.7 207.7c0 0 1.1 7.6-8.6 6.5 -7-0.8-7.6-6.5-7.6-6.5" class="h"/><path d="M447.1 207.7c0 0-1.1 7.6 8.6 6.5 7-0.8 7.6-6.5 7.6-6.5" class="h"/><path d="M344.1 319.1c0 0 0.9 10.1 0.5 13.4 -0.7 5.1-6.3 12.4-6.3 12.4s4.7-6.9 12.7-9c4.7-1.2 19.2-2 19.2-2l-14.2-4.4c0 0-0.5-0.4-0.6-0.5C350.3 322.2 344.1 319.1 344.1 319.1z" class="i"/><path d="M558.4 309c0 0-0.9 10.1-0.5 13.4 0.7 5.1 6.3 12.4 6.3 12.4s-4.7-6.9-12.7-9c-4.7-1.2-19.2-2-19.2-2l14.2-4.4c0 0 0.5-0.4 0.6-0.5C552.2 312.1 558.4 309 558.4 309z" class="i"/><path d="M319.2 319.3c0 0-16.8 27.8 4.9 53 7.4 8.5 33.6 15.5 33.6 15.5s-19.9 0.5-33.4-7.6c-14-8.5-20.9-24.3-19.4-33.9C307.9 328.6 319.2 319.3 319.2 319.3z" class="i"/><path d="M577 314.4c0 0 23.7 31.3-4.9 53 -9 6.8-35.4 13.8-35.4 13.8s21.7 2.3 35.1-5.9c14-8.5 21.1-23.6 21.1-33.3C593 321.5 577 314.4 577 314.4L577 314.4z" class="i"/><path d="M410.7 387.1l3.4-4.7 5.2 5.5c0 0-5.1-10.8-6.9-15.7C411.1 368.5 410.7 387.1 410.7 387.1z" class="i"/><path d="M498.6 387.1l-3.4-4.7 -5.2 5.5c0 0 5.1-10.8 6.9-15.7C498.2 368.5 498.6 387.1 498.6 387.1z" class="i"/><path d="M436.5 341.1c15.5-1.2 19.1 7.9 19.1 14.7 0 4.4 0.8 16.6 0.8 16.6s0.3-27-20.8-27c-15.1 0-29.4 11-29.4 11s6.3-8.1 14.5-11.8C428.2 341.4 432.5 341.5 436.5 341.1L436.5 341.1z" class="i"/><path d="M472.8 341.1c-16.1-1.2-18 8.2-18 8.2l1.2 9.4c0 0-3.4-13.2 17.8-13.2 15.1 0 29.4 11 29.4 11s-6.3-8.1-14.5-11.8C481.2 341.4 476.9 341.5 472.8 341.1L472.8 341.1z" class="i"/><path d="M503.3 356.5c0 0 16-8.7 21.1-6.6 12.4 4.9 4.5 34.2 4.5 34.2s6-16.1 6-22.5c0-10.8-5.7-14.5-8.7-15.3C515.4 343.5 503.3 356.5 503.3 356.5L503.3 356.5z" class="i"/><path d="M406.2 356.5c0 0-15.4-8.7-20.5-6.6 -12.4 4.9-4.5 34.2-4.5 34.2s-7.1-7.4-6.5-22.5c0.4-10.8 3.5-13.1 9.2-15.3C392.6 343 406.2 356.5 406.2 356.5L406.2 356.5z" class="i"/><path d="M282 328.1l-7.4 2 13.1 48 -7.7 12 9.3-6.3 20.6 8.1c-2.1-2.9-15.6-10.6-15.6-10.6l14.8-4 -17.7 0.1C290.7 368.9 282 328.1 282 328.1L282 328.1z" class="j"/><polygon points="277.4 330.9 289.3 377.5 290.6 377.4 281.8 331.3 " class="k"/><path d="M233.2 336l-6.9 1.6 5.5 19 -27.2 10.8c-0.9 0.3-22.6 4-22.6 4 1.1 0.1 16.5-0.1 16.5-0.1C198.3 373.6 187.9 399 187.9 399c3.2-2.7 13.7-26.7 13.7-26.7l-2.6 19.6c1.3-1.7 7-21.3 7-21.3l31.4-10.5L233.2 336 233.2 336z" class="j"/><path d="M230.9 338.4l3.7 19.7 -28.9 10.9c-1.1-0.3-0.7-1.2-0.7-1.2l27.5-10.7 -4.8-17.9L230.9 338.4z" class="k"/><g><path d="M309 279.8l-2.6 19.7c5.3 2.4 28.5 2.2 28.5 2.2 2.4-0.9-0.1-1.5-0.1-1.5C319.7 296.5 309 279.8 309 279.8L309 279.8z" class="l"/><path d="M286.9 214.9c-33.7-11.3-63.8 34.2-63.8 34.2 -33.1 54.5 22.3 76.6 22.6 76.7 0.3 0.1 59.6 19.7 66.8-39.6 7.1-59.2-25.6-71.3-25.6-71.3V214.9z" class="l"/></g><path d="M226.5 309.1c-37.6-50.8 39.5-91.4 39.5-91.4C212.5 261.4 226.5 309.1 226.5 309.1" class="m"/><path d="M290.7 247.5c0.3-3.2 3.3-5.6 6.7-5.2 3.4 0.3 5.9 3.2 5.6 6.4 -0.3 3.2-3.3 5.6-6.7 5.2C292.9 253.7 290.4 250.8 290.7 247.5L290.7 247.5z"/><path d="M298.3 244.6c2.1 0.2 3.6 2.1 3.4 4.3 -0.2 2.2-2.1 3.8-4.1 3.6 -2.1-0.2-3.6-2.1-3.4-4.3C294.4 246 296.3 244.4 298.3 244.6z" class="e"/><polygon points="314.1 268.1 307.6 263.6 307.6 262.6 339.9 247 " class="k"/><g><path d="M339.9 247l-32.6 16.9c-0.2-5.6 4.4-12 4.4-12L339.9 247 339.9 247z" class="j"/><path d="M339.1 261.2l-25.9 15.5c-4.4-3.9-6.1-13.1-5.7-13.1C307.9 263.6 339.1 261.2 339.1 261.2L339.1 261.2z" class="j"/></g><path d="" fill="#FFF200"/><path d="M186 263.8c-1.8 0-0.8 1.5-0.8 1.5 4.5 8.3 42 20.4 42 20.4 -2.4-3.4 6.7-21.2 6.7-21.2C227.8 267.8 186 263.8 186 263.8z" class="l"/><path d="M230 267.2c-4.7 2.5-36.8-0.6-36.8-0.6 -1.4 0-0.6 1.2-0.6 1.2 3.4 6.4 32.3 15.7 32.3 15.7C222.9 281 230 267.2 230 267.2L230 267.2z" class="m"/><path d="M244.7 356.3c-0.1 0-13.1-2.9-23.9-12.1 -9.6-8.1-14.6-18.4-14.9-30.5 -0.1-5 0.6-10.4 2.1-15.9l1.6-5.8 6.5 2 0.8 0.2 0.1 0 3.7-2 12.2-6.4 -2.8 11.7 4.8-0.3 -1.1 5.2 2.7-0.3 1.3 4.7 0.5 1.7 5.1-1.8 2 5.5 0.6 1.6 1-0.3 5.9-1.7 1.6 4.2 3.3-2.3 3.9 4.1 1.4 1.5 1.3-0.8 4.6-2.7 2.7 2.7 0.5-0.5 3.4-4 4.9 2.6 0.2 0.1 0.2-0.5 1.4-4.1 4.9 0.2 2.3 0.1 -0.3-5.4 -0.5-8 8.8 2.7 9.4 2.9 4.5 1.4 -0.4 4.1c-0.1 1.1-0.2 2.2-0.4 3.3 -1.8 12.8-6.9 23.1-15.2 30.5 -6.9 6.1-15.9 10.2-26.6 12 -4.2 0.7-8.6 1.1-13.1 1.1C249.7 357.1 245.4 356.4 244.7 356.3z" fill="#008FD4"/><g><path d="M299.6 319.2c-2.9-1.1-4.2 8.3-4.2 8.3C302.1 320.3 299.6 319.2 299.6 319.2z" class="e"/><path d="M293.6 322c-3.1 0-1.2 9.2-1.2 9.2C296.3 322.1 293.6 322 293.6 322z" class="e"/><path d="M300.6 326.3c-2.4-2-6.9 6.3-6.9 6.3C302.6 328.2 300.6 326.3 300.6 326.3z" class="e"/><path d="M216.6 298.9c-3.1 0.1-0.8 9.3-0.8 9.3C219.3 298.9 216.6 298.9 216.6 298.9z" class="e"/><path d="M212.1 303.7c-2.9 1.1 2.3 9 2.3 9C214.7 302.8 212.1 303.7 212.1 303.7z" class="e"/><path d="M220.3 305.1c-3-1-4 8.4-4 8.4C222.8 306.1 220.3 305.1 220.3 305.1z" class="e"/></g><g><path d="M256.1 337.5l0.7-7.7c0.6-3.4 3.1-0.9 3.1-0.9C262.3 330.8 256.1 337.5 256.1 337.5L256.1 337.5z" class="n"/><path d="M251.8 328.2c0.1-3.6 3.5 0.8 3.5 0.8 0.6 3.1-3.8 7.2-3.8 7.2S251.8 328.6 251.8 328.2z" class="n"/><path d="M247.4 326.7c1.2-2.6 3 0.6 3 0.6 1.2 2-3.7 7.5-3.7 7.5L247.4 326.7z" class="n"/><path d="M242.1 333.7l-0.2 0 0.8-8.1c2.4-3.9 2.7 1.7 2.7 1.7C245.4 328.8 242.1 333.7 242.1 333.7L242.1 333.7z" class="n"/><path d="M237.4 324.1c0-0.1 0.1-0.1 0.1-0.2 2-3.3 3 1.4 3 1.4s-2.2 7.1-2.2 7.3C238.3 332.6 235.4 327.7 237.4 324.1z" class="n"/><path d="M233.8 330.8c0 0-2.1-4.4-1-8.6 1.1-4.2 3.4 0.9 3.3 1.1C236 323.5 233.8 330.8 233.8 330.8L233.8 330.8z" class="n"/><path d="M228.7 323.2c-0.4-2.5 1.4-2.7 1.4-2.7 3.8 0.4 0.3 9 0.3 9L228.7 323.2z" class="n"/><path d="M225.2 321.8c-0.5-2.4 0.8-2.8 0.8-2.8 2-0.5 1.5 2.1 1.5 2.1l-0.7 7.2L225.2 321.8z" class="n"/><path d="M222 320.1c0 0 0.7 2.1-0.2 0 -0.8-2.1 1-2.5 1-2.5 1.4-0.4 1.1 2 1.1 2l-0.8 6.5L222 320.1z" class="n"/><path d="M218.6 318.2c-0.3-2 1-1.8 1-1.8 1.2 0.2 0.9 2.1 0.9 2.1l0 6.5L218.6 318.2z" class="n"/><path d="M215.5 316.1c0.1-1.7 0.9-1 1.6-0.5 0.7 0.5 0.4 7.8 0.4 7.8L215.5 316.1z" class="n"/><path d="M215.3 322.2l-1.8-6.7c0.5-1.9 1.4 0.5 1.4 0.5l0.4 6.1L215.3 322.2 215.3 322.2z" class="n"/><path d="M211.4 313.6c0.6-1.5 1.3 0.6 1.3 0.6l0.2 5.8L211.4 313.6z" class="n"/><path d="M264.3 332.6c1.6-3.1-1.6-2.6-1.6-2.6 -2.1 0.4-2.8 8.3-2.8 8.3L264.3 332.6z" class="n"/><path d="M266.9 332.3c0 0-0.9 1.9-0.1-0.1 0.8-2 2.8-0.2 2.8-0.2 1 1.6-4.4 7.5-4.4 7.5L266.9 332.3z" class="n"/><path d="M268.9 340.2l-0.1 0.2c0 0 0.6-5.9 2.4-7.7 0 0 0 0 0 0 1.8-1.7 2.5 0.9 2.5 0.9C274.1 335.4 268.9 340.2 268.9 340.2L268.9 340.2z" class="n"/><path d="M276.1 333.1c1.5-1.1 2.3 1.2 2.3 1.2 0.4 2-4.7 6.5-4.7 6.5C274.2 334.4 276.1 333.1 276.1 333.1z" class="n"/><path d="M281.1 334.3c1.7-0.9 1.6 0.7 1.6 0.7 0.2 2.3-5.8 6.3-5.8 6.3C277 339.9 281.1 334.3 281.1 334.3z" class="n"/><path d="M280.4 341.7c0 0 4.3-4.5 5.1-6.4 0.8-1.9-0.4-1.4-1.5-0.7C282.8 335.3 280.4 341.7 280.4 341.7L280.4 341.7z" class="n"/><path d="M288.7 337.1c1.2-1.5 1-2.2-0.5-2.4 -1.5-0.2-5 7.4-5 7.4S287.5 338.6 288.7 337.1z" class="n"/><path d="M286.1 342.1c0 0 3.9-3.2 5.2-4.4 1.3-1.1 1.3-2.4 0.1-2.7C290.3 334.9 286.1 342.1 286.1 342.1L286.1 342.1z" class="n"/><path d="M294.1 335.5c-1.1-0.4-5.1 6.3-5.1 6.3C292.1 340.5 295.1 335.9 294.1 335.5z" class="n"/><path d="M297.1 336.5c-1.3-0.8-5 4.8-5 4.8C295.2 340.6 298.4 337.4 297.1 336.5z" class="n"/></g><polygon points="278.1 218.1 280.4 211.4 281.6 217.9 283.8 210.1 288.7 219.5 289.3 207.5 295.3 226.5 " class="m"/></svg>