<svg xmlns="http://www.w3.org/2000/svg" viewBox="0 0 768 430"><style>.a{fill:#FFF;}.b{fill:#8EDDDB;}</style><circle cx="379.2" cy="252.2" r="137" class="a"/><path d="M378.7 122.3c-71.6 0-129.7 58-129.7 129.7 0 71.6 58 129.7 129.7 129.7 71.6 0 129.7-58 129.7-129.7C508.4 180.4 450.3 122.3 378.7 122.3zM414.9 191.5c9.4 0 16.9 8.6 16.9 19.1 0 10.6-7.6 19.1-16.9 19.1 -9.4 0-16.9-8.6-16.9-19.1C397.9 200.1 405.5 191.5 414.9 191.5zM339 191.5c9.4 0 16.9 8.6 16.9 19.1 0 10.6-7.6 19.1-16.9 19.1 -9.4 0-16.9-8.6-16.9-19.1C322.1 200.1 329.6 191.5 339 191.5zM461.5 266.1c-8.8 41.4-43.3 72.4-84.4 72.4 -41 0-75.4-30.9-84.3-72.2 -0.3-1.6 8.1-4.7 8.1-4.7 7.3 36.7 38.7 64.4 76.2 64.4 37.5 0 68.9-27.7 76.2-64.4C453.3 261.5 461.8 264.6 461.5 266.1z" fill="#55C2C2"/><path d="M243 138c-3.9-4.4-6.9-2.1-9.8 1.7 -2.9 3.8-3.2 9.2-0.7 12.1l17.4 25.1 -1.4 3.3 -58.6-38.2c-3-2.2-7.4-0.4-9.8 3.8 -2.4 4.2-2 9.4 1 11.6l41.8 31.6 -1.4 3.3 -54-22.1c-3.3-1.4-7.6 1.2-9.4 5.8 -1.9 4.6-0.7 9.4 2.7 10.8l54 22.1 -1.4 3.3 -52.1-6.9c-3.6-0.5-7.6 2.8-8.8 7.5 -1.3 4.7 0.7 9 4.3 9.6l53.5 7.7 -1.4 3.3 -34.8 2.7c-3.8 0.3-7.4 4.3-8 9.1 -0.6 4.7 1.9 8.4 7.8 8l37.9-1.2 14.6 6c15.8 6.5 39.6-6.8 50.5-33.2 10.8-26.4 4.5-42.8-10-59.3L243 138z" class="b"/><path d="M245 136c-3.1-3.4-7.3-4.3-11-1.3 -3.3 2.6-5.6 6.6-6 10.8 -0.2 1.8 0 3.7 0.7 5.4 0.4 1 0.8 1.8 1.5 2.7 -0.4-0.5-0.2-0.3-0.1-0.1 0.7 1 1.4 2 2.1 3 5 7.2 9.9 14.3 14.9 21.4 0.1 0.2 0.2 0.3 0.3 0.5 -0.1-0.7-0.2-1.5-0.3-2.2 -0.5 1.1-0.9 2.2-1.4 3.3 1.4-0.6 2.8-1.1 4.2-1.7 -12.9-8.4-25.8-16.8-38.6-25.2 -6.2-4.1-12.4-8.1-18.7-12.2 -0.4-0.3-0.8-0.5-1.3-0.8 -2.8-1.8-6.1-1.6-8.9-0.1 -7.1 3.7-9.5 15.4-2.8 20.4 12.7 9.6 25.4 19.2 38.1 28.8 1.2 0.9 2.5 1.9 3.7 2.8 -0.4-1.1-0.9-2.2-1.3-3.3 -0.5 1.1-0.9 2.2-1.4 3.3 1.2-0.7 2.4-1.4 3.6-2 -14.8-6.1-29.5-12.1-44.3-18.2 -2.8-1.2-5.7-2.3-8.5-3.5 -0.5-0.2-1-0.4-1.5-0.6 -3.6-1.3-7.6 0.8-10 3.4 -4.8 5.3-5.5 15.6 2.1 18.8 1.9 0.8 3.9 1.6 5.8 2.4 15.8 6.5 31.7 13 47.5 19.5 0.2 0.1 0.5 0.2 0.7 0.3 -0.7-1.2-1.4-2.4-2-3.6 -0.5 1.1-0.9 2.2-1.4 3.3 0.9-0.7 1.9-1.4 2.8-2.1 -15.7-2.1-31.4-4.1-47.2-6.2 -2-0.3-4.1-0.8-6.1-0.7 -8.7 0.2-13.4 12-9.5 19 1.8 3.2 4.9 3.8 8.1 4.2 3.7 0.6 7.4 1.1 11.2 1.6 13.2 1.9 26.4 3.8 39.5 5.8 -0.7-1.2-1.4-2.4-2-3.6 -0.5 1.1-0.9 2.2-1.4 3.3 0.9-0.7 1.9-1.4 2.8-2.1 -7.7 0.6-15.4 1.2-23 1.8 -3.7 0.3-7.4 0.6-11 0.8 -6.7 0.5-10.9 6-11.6 12.4 -0.4 3.5 1.1 6.8 3.9 8.9 2 1.5 4.7 1.7 7.1 1.6 3.1-0.1 6.3-0.2 9.4-0.3 9-0.3 18-0.5 27-0.8 0.4 0 0.7 0 1.1 0 0.7 0-1.1-0.3-0.3 0 1.7 0.7 3.5 1.4 5.3 2.2 3.6 1.5 7.3 3.3 11 4.4 12.2 3.7 25.1-2.7 34.2-10.5 12.3-10.6 20.4-26.9 22.7-42.9 1.1-7.3 0.7-14.7-1.7-21.8 -2.2-6.9-6.1-13-10.6-18.7 -4.4-5.6-9.4-10.9-14.2-16.3C254 146.1 249.5 141 245 136c-2.5-2.8-6.5 1.3-4.1 4.1 5 5.7 10 11.4 15.1 17.1 5.7 6.5 11.9 12.9 16.6 20.2 3.6 5.6 6.1 11.8 6.8 18.4 0.9 7.9-0.7 15.7-3.3 23.2 -4.8 14.1-14 27.2-27.4 34.1 -5 2.6-10.3 3.9-15.8 3.4 -3.3-0.3-7.3-2.2-10.8-3.6 -2.3-0.9-4.6-1.9-6.9-2.8 -1-0.4-2.2-1.1-3.2-1.1 -2.8 0.1-5.6 0.2-8.5 0.3 -9.2 0.3-18.4 0.6-27.6 0.8 -0.8 0-1.6 0-2.3 0.1 -2.9 0.2-4.4-1.1-4.5-3.6 -0.1-3 1.7-6.7 4.8-7.7 0.7-0.2 1.5-0.2 2.2-0.3 11-0.8 22-1.7 32.9-2.5 1.4-0.1 2.2-0.8 2.8-2.1 0.5-1.1 0.9-2.2 1.4-3.3 0.6-1.3-0.6-3.3-2-3.6 -15.7-2.3-31.5-4.6-47.3-6.9 -2.1-0.3-4.1-0.6-6.2-0.9 -2.6-0.4-2.8-3.4-2.5-5.5 0.6-2.9 2.9-6.3 6.2-5.9 6.2 0.7 12.5 1.7 18.7 2.5 11.1 1.5 22.3 3 33.4 4.4 1.4 0.2 2.3-1 2.8-2.1 0.5-1.1 0.9-2.2 1.4-3.3 0.6-1.6-0.7-3-2-3.6 -14.8-6.1-29.6-12.1-44.3-18.2 -2.8-1.2-5.7-2.3-8.5-3.5 -0.3-0.1-0.6-0.3-0.8-0.3 -0.7-0.3 0.5 0.3-0.3-0.2 -1-0.5-1.4-2-1.4-3.1 -0.1-2 0.6-3.8 1.6-5.5 0.7-1.1 1.8-2.1 3.1-2.5 0.7-0.2 1.2-0.2 2 0.2 0.6 0.3 1.2 0.5 1.7 0.7 3.1 1.3 6.2 2.5 9.3 3.8 14.3 5.8 28.6 11.7 42.9 17.6 1.6 0.6 3-0.7 3.6-2 0.5-1.1 0.9-2.2 1.4-3.3 0.5-1.3-0.4-2.5-1.3-3.3 -12.7-9.6-25.3-19.1-38-28.7 -1-0.8-2-1.5-3-2.2 -0.3-0.2-0.5-0.3-0.7-0.5 0 0-0.1-0.1-0.1-0.1 0.6 0.5-0.3-0.4-0.5-0.7 -2.4-3.8 2.1-12.5 6.4-9.7 4.9 3.2 9.8 6.4 14.7 9.6 14.4 9.4 28.7 18.8 43.1 28.1 0.2 0.2 0.5 0.3 0.7 0.5 1.7 1.1 3.6-0.1 4.2-1.7 0.7-1.6 2.2-3.9 1-5.6 -0.6-0.9-1.3-1.8-1.9-2.7 -2.8-3.9-5.5-7.9-8.2-11.8 -2.3-3.3-4.5-6.5-6.8-9.8 -0.9-1.4-1.7-2.5-1.8-4.2 0-1.7 0.5-3.3 1.4-4.8 0.7-1.2 2-3 3.4-3.4 0.8-0.3 1.7 0.7 2.5 1.5C243.5 142.8 247.5 138.7 245 136z" class="a"/><path d="M492.5 161.9c-14.4 16.7-20.6 33.1-9.5 59.4 11.1 26.3 35.1 39.4 50.8 32.8l14.5-6.1 38 0.8c5.8 0.3 8.4-3.3 7.7-8 -0.6-4.7-4.3-8.8-8-9l-34.8-2.4 -1.4-3.3 53.4-8.3c3.6-0.6 5.5-4.9 4.2-9.6 -1.3-4.7-5.3-8-8.9-7.5l-52.1 7.5 -1.4-3.3 53.8-22.6c3.3-1.4 4.5-6.2 2.6-10.8 -1.9-4.5-6.2-7.1-9.5-5.7l-53.8 22.7 -1.4-3.3 41.5-32c3-2.2 3.3-7.4 0.9-11.6 -2.5-4.2-6.9-5.9-9.8-3.7l-58.2 38.7 -1.4-3.3 17.2-25.2c2.5-2.9 2.1-8.3-0.8-12.1 -2.9-3.8-6-6.1-9.8-1.7L492.5 161.9z" class="b"/><path d="M490.5 159.9c-4.8 5.5-9.2 11.5-12.1 18.3 -2.9 6.6-4.2 13.8-3.9 21.1 0.5 8.8 3.2 17.4 6.8 25.4 3.3 7.2 7.8 13.9 13.4 19.6 8.9 9 21.5 15.9 34.5 14.1 3.9-0.5 7.5-2.4 11.1-3.9 2.2-0.9 4.5-1.9 6.8-2.8 0.6-0.3 1.2-0.5 1.7-0.7 0.6-0.3-1.1 0-0.3 0 8.3 0.2 16.6 0.3 24.8 0.6 3.9 0.1 7.7 0.2 11.6 0.3 1.2 0 2.4 0.1 3.6 0 3.8-0.5 6.6-2.5 8-6.1 1.4-3.6 0.1-8-1.9-11.1 -1.9-3-5.1-5.2-8.7-5.5 -2.8-0.2-5.7-0.4-8.5-0.6 -8.6-0.6-17.2-1.2-25.8-1.8 -0.2 0-0.3 0-0.5 0 0.9 0.7 1.9 1.4 2.8 2.1 -0.5-1.1-0.9-2.2-1.4-3.3 -0.7 1.2-1.4 2.4-2 3.6 15.7-2.4 31.5-4.9 47.2-7.3 2.1-0.3 4.1-0.6 6.2-1 3.3-0.5 5.5-3.4 6.4-6.5 1.2-4.3-0.4-8.8-3-12.2 -2.3-2.9-5.9-4.4-9.5-3.9 -0.6 0.1-1.1 0.2-1.7 0.3 -3.4 0.5-6.9 1-10.3 1.4 -13.3 1.9-26.7 3.8-40 5.7 1.2 0.7 2.4 1.4 3.6 2 -0.5-1.1-0.9-2.2-1.4-3.3 -0.7 1.2-1.4 2.4-2 3.6 14.7-6.2 29.4-12.4 44.1-18.6 2.8-1.2 5.7-2.4 8.5-3.6 0.6-0.3 1.3-0.5 1.9-0.8 3.7-1.7 5.2-6 4.9-9.9 -0.3-4.3-2.6-8.3-6.2-10.7 -2.2-1.5-5.4-2.1-7.9-1.1 -1.9 0.8-3.8 1.6-5.8 2.4 -15.7 6.6-31.5 13.3-47.3 19.9 -0.2 0.1-0.4 0.2-0.7 0.3 1.2 0.7 2.4 1.4 3.6 2 -0.5-1.1-0.9-2.2-1.4-3.3 -0.4 1.1-0.9 2.2-1.3 3.3 12.6-9.7 25.1-19.4 37.7-29.1 1.7-1.3 3.8-2.6 5.2-4.2 5.9-6.3 0.9-18.2-6.9-20.1 -3.2-0.8-5.7 0.6-8.2 2.3 -2.6 1.7-5.2 3.5-7.8 5.2 -15.2 10.2-30.5 20.3-45.8 30.4 -0.9 0.6-1.9 1.3-2.8 1.9 1.4 0.6 2.8 1.1 4.2 1.7 -0.5-1.1-0.9-2.2-1.4-3.3 -0.1 0.7-0.2 1.5-0.3 2.2 4.4-6.5 8.9-13.1 13.4-19.6 1-1.5 2-3 3-4.4 0.3-0.3 0.5-0.7 0.7-1 0 0 0.1-0.1 0.1-0.2 -0.6 0.8 0.3-0.5 0.5-0.6 0.4-0.5 0.6-1.1 0.8-1.7 1.5-3.9 0.6-8.3-1.6-11.8 -2.1-3.3-5.6-6.8-9.8-6.2 -3.3 0.5-5.4 3.5-7.4 5.8 -2.8 3.2-5.5 6.4-8.3 9.5C499.4 149.7 494.9 154.8 490.5 159.9c-2.4 2.8 1.6 6.9 4.1 4.1 5-5.8 10-11.5 14.9-17.2 2.6-3 5.3-6.1 7.9-9.1 0.7-0.8 1.5-1.8 2.4-2.5 0.9-0.6 1.6 0 2.4 0.8 1.4 1.3 2.5 2.9 3.1 4.8 0.7 2.3 0.4 4.1-0.9 6.1 -0.6 0.8-1.1 1.6-1.6 2.4 -2.4 3.5-4.7 6.9-7.1 10.4 -2.3 3.4-4.6 6.8-6.9 10.2 -0.5 0.7-1 1.4-1.4 2.2 -1.1 1.7 0.4 4 1.1 5.5 0.7 1.6 2.5 2.9 4.2 1.7 12.8-8.5 25.6-17 38.4-25.6 6.2-4.1 12.4-8.3 18.6-12.4 0.4-0.3 0.9-0.6 1.3-0.8 1.9-1.3 4 0 5.3 1.8 1.1 1.5 1.7 3.2 1.7 5 0 0.8-0.1 1.5-0.3 2.3 -0.1 0.3-0.3 0.6-0.4 0.8 -0.1 0.1-1 1-0.3 0.4 -0.4 0.3-0.8 0.7-1.3 1 -13.2 10.1-26.3 20.3-39.5 30.4 -0.3 0.2-0.5 0.4-0.8 0.6 -0.9 0.7-1.9 2-1.3 3.3 0.5 1.1 0.9 2.2 1.4 3.3 0.6 1.3 1.9 2.7 3.6 2 14.7-6.2 29.4-12.4 44.1-18.6 2.8-1.2 5.7-2.4 8.5-3.6 0.5-0.2 1-0.4 1.5-0.6 2.6-1 5.2 2.4 6 4.7 0.6 1.6 0.6 3.3 0.1 4.9 -0.2 0.6-0.6 0.9-1 1.3 -0.6 0.6 0 0-0.1 0.1 -0.6 0.3-1.1 0.5-1.7 0.7 -3.1 1.3-6.2 2.6-9.3 3.9 -14.2 6-28.4 12-42.7 18 -1.3 0.6-2.7 1.9-2 3.6 0.5 1.1 0.9 2.2 1.4 3.3 0.7 1.6 1.8 2.2 3.6 2 15.7-2.2 31.4-4.4 47.1-6.7 1.3-0.2 2.5-0.3 3.8-0.5 0.3 0 0.6-0.1 0.9-0.1 0.1 0 0.1 0 0.2 0 -0.8 0.1 0.1 0 0.4 0 3.3 0.5 5.3 4.5 5.3 7.6 0 1.9-0.7 3.6-2.7 3.9 -6.9 1.1-13.8 2.1-20.6 3.2 -10.9 1.7-21.8 3.3-32.7 5 -1.4 0.2-2.6 2.2-2 3.6 0.5 1.1 0.9 2.2 1.4 3.3 0.5 1.3 1.4 2 2.8 2.1 7.7 0.5 15.4 1.1 23 1.6 3.7 0.3 7.4 0.5 11.1 0.8 1.5 0.1 2.7 0.7 3.7 1.9 2 2.1 2.9 5.8 1.7 8 -0.8 1.4-2.8 1.5-4.6 1.5 -1.1 0-2.1 0-3.2-0.1 -4.5-0.1-9-0.2-13.5-0.3 -5-0.1-9.9-0.2-14.8-0.3 -1.6 0-3.2-0.1-4.8-0.1 -0.7 0-1.7-0.2-2.3 0.1 -3.9 1.6-7.7 3.3-11.6 4.9 -1.3 0.6-2.6 1.1-4 1.7 -2.6 0.9-4.6 1.2-7.2 1.1 -5.5 0-11.1-2.1-16-5 -6-3.5-11.1-8.5-15.2-14 -4.2-5.7-7.4-12.1-9.7-18.8 -2.2-6.3-3.6-13-3.5-19.8 0.3-12 6.7-22.4 14.3-31.3C497 161.2 493 157.1 490.5 159.9z" class="a"/></svg>