<svg version="1.1" id="Layer_1" xmlns="http://www.w3.org/2000/svg" viewBox="0 0 768 430" enable-background="new 0 0 768 430" xml:space="preserve">
<g>
	<g>
		<g>
			<linearGradient id="SVGID_1_" gradientUnits="userSpaceOnUse" x1="341.707" y1="295.3398" x2="478.353" y2="295.3398">
				<stop  offset="0" style="stop-color:#FFD383"/>
				<stop  offset="0.5937" style="stop-color:#FFB872"/>
				<stop  offset="1" style="stop-color:#FFA364"/>
			</linearGradient>
			<path fill="url(#SVGID_1_)" d="M430.27,297.246c0.082-3.354,0.206-5.869,0.206-5.869h-21.997h-0.576h-21.996
				c0,0,0.177,3.596,0.248,7.926c4.727-0.783,36.133-5.98,36.715-5.98C423.197,293.322,426.854,295.33,430.27,297.246z"/>
			<linearGradient id="SVGID_2_" gradientUnits="userSpaceOnUse" x1="341.7065" y1="335.3691" x2="478.3525" y2="335.3691">
				<stop  offset="0" style="stop-color:#FFD383"/>
				<stop  offset="0.5937" style="stop-color:#FFB872"/>
				<stop  offset="1" style="stop-color:#FFA364"/>
			</linearGradient>
			<path fill="url(#SVGID_2_)" d="M483.225,343.049c-2.422-8.074-11.842-9.688-11.842-9.688s-25.412-7.531-29.335-9.689
				c-0.758-0.416-1.588-0.93-2.433-1.482c-0.014,1.23-0.184,1.99-0.6,1.959c-16.086-1.162-48.092-21.297-52.854-24.346
				c0.077,5.326-0.017,11.574-0.793,13.643c-1.439,3.836-7.112,8.07-11.034,10.227c-3.922,2.158-29.335,9.689-29.335,9.689
				s-9.419,1.613-11.842,9.688c-2.422,8.074-9.692,26.471-8.881,27.451c0.412,0.498,42.522,0.49,83.915,0.363
				c41.393,0.127,83.502,0.135,83.914-0.363C492.917,369.52,485.646,351.123,483.225,343.049z"/>
			<path opacity="0.8" fill="#EF843C" d="M385.541,299.404c0,0,0.229,0.148,0.62,0.398c-0.003-0.166-0.004-0.336-0.007-0.5
				C385.771,299.365,385.541,299.404,385.541,299.404z"/>
			<linearGradient id="SVGID_3_" gradientUnits="userSpaceOnUse" x1="341.7056" y1="308.7363" x2="478.3539" y2="308.7363">
				<stop  offset="0" style="stop-color:#FFD383"/>
				<stop  offset="0.5937" style="stop-color:#FFB872"/>
				<stop  offset="1" style="stop-color:#FFA364"/>
			</linearGradient>
			<path fill="url(#SVGID_3_)" d="M439.615,322.189c-3.53-2.314-7.44-5.648-8.602-8.744c-0.905-2.412-0.885-10.514-0.744-16.199
				c-3.415-1.916-7.072-3.924-7.4-3.924c-0.582,0-31.988,5.197-36.715,5.98c0.003,0.164,0.004,0.334,0.007,0.5
				c4.763,3.049,36.769,23.184,52.854,24.346C439.432,324.18,439.602,323.42,439.615,322.189z"/>
			<path opacity="0.5" fill="#EF843C" d="M439.615,322.189c-3.53-2.314-7.44-5.648-8.602-8.744
				c-0.905-2.412-0.885-10.514-0.744-16.199c-3.415-1.916-7.072-3.924-7.4-3.924c-0.582,0-31.988,5.197-36.715,5.98
				c0.003,0.164,0.004,0.334,0.007,0.5c4.763,3.049,36.769,23.184,52.854,24.346C439.432,324.18,439.602,323.42,439.615,322.189z"/>
		</g>
		<g>
			<g>
				<path fill="#FFBC64" d="M475.459,203.969c0,0,8.462-21.101,16.411-10.092c7.949,11.01-4.359,35.779-6.411,37.003
					c-2.051,1.223-8.205-4.588-8.205-4.588L475.459,203.969z"/>
				<path fill="#FFBC64" d="M342.111,206.329c0,0-8.462-21.102-16.411-10.092c-7.949,11.009,4.359,35.779,6.411,37.001
					c2.051,1.225,8.206-4.588,8.206-4.588L342.111,206.329z"/>
			</g>
			<linearGradient id="SVGID_4_" gradientUnits="userSpaceOnUse" x1="408.7549" y1="114.7339" x2="408.7549" y2="306.6954">
				<stop  offset="0" style="stop-color:#FFD383"/>
				<stop  offset="0.3124" style="stop-color:#FFCD7E"/>
				<stop  offset="0.7407" style="stop-color:#FFBB70"/>
				<stop  offset="1" style="stop-color:#FFAD64"/>
			</linearGradient>
			<path fill="url(#SVGID_4_)" d="M408.92,114.188v-0.004c-0.055,0-0.11,0.002-0.165,0.002c-0.055,0-0.11-0.002-0.165-0.002v0.004
				c-37.719-0.103-76.756,23.952-75.231,65.502c0.195,5.319,4.336,80.693,9.928,89.779c6.089,9.896,38.565,34.395,65.303,35.561
				v0.029c0.055-0.002,0.11-0.012,0.165-0.014c0.055,0.002,0.11,0.012,0.165,0.014v-0.029c26.737-1.166,59.213-25.664,65.303-35.561
				c5.592-9.086,9.732-84.459,9.928-89.779C485.676,138.139,446.639,114.085,408.92,114.188z"/>
			<path opacity="0.2" fill="#F39200" d="M431.418,117.015c19.509,11.872,33.454,32.354,32.531,59.864
				c-0.088,2.592,8.097,30.676-1.534,43.544c4.468,5.715-5.294,49.152-8.394,54.664c-3.676,6.535-16.986,18.867-32.826,27.916
				c23.569-6.223,47.795-25.127,52.969-33.535c5.592-9.086,9.733-84.459,9.929-89.779
				C485.311,146.489,460.628,124.477,431.418,117.015z"/>
			<path opacity="0.1" fill="#FFFFFF" d="M360.963,281.846c-7.374-5.391-12.885-10.662-14.968-14.045
				c-4.498-7.311-8.897-72.9-9.457-88.228c-0.722-19.647,8.274-36.667,24.737-48.066c-9.687,12.631-14.569,28.153-13.999,45.246
				c0.029,0.869,4.025,89.064,10.329,100.351C358.41,278.541,359.548,280.141,360.963,281.846z"/>
			
				<radialGradient id="SVGID_5_" cx="401.749" cy="10405.0156" r="40.272" gradientTransform="matrix(1 0 0 0.4476 0 -4406.2217)" gradientUnits="userSpaceOnUse">
				<stop  offset="0" style="stop-color:#FFFFFF"/>
				<stop  offset="0.0175" style="stop-color:#FFFDFA"/>
				<stop  offset="0.1726" style="stop-color:#FFE9D0"/>
				<stop  offset="0.3312" style="stop-color:#FFD9AE"/>
				<stop  offset="0.4917" style="stop-color:#FFCD93"/>
				<stop  offset="0.6547" style="stop-color:#FFC480"/>
				<stop  offset="0.822" style="stop-color:#FFBF75"/>
				<stop  offset="1" style="stop-color:#FFBD71"/>
			</radialGradient>
			<path opacity="0.31" fill="url(#SVGID_5_)" d="M391.383,249.934c12.25,4.262,36.062,0.949,37.647-0.984
				c-0.26-7.092-7.121-17.725-7.738-21.059c0,0-19.265-2.469-22.353,0C397.581,234.189,391.383,244.426,391.383,249.934z"/>
			<path fill="#EA9D49" d="M429.059,248.801c-3.156,0.764-17.646,4.227-37.676,1.133c-0.149,0.799,8.082,5.988,18.036,7.471
				C414.229,258.537,429.91,249.695,429.059,248.801z"/>
			<path opacity="0.3" fill="#DD9544" d="M421.874,250.191c1.441-0.746-1.242-20.574-0.845-20.973
				c2.783,6.561,6.361,8.4,8.029,19.582C426.623,249.746,424.11,249.992,421.874,250.191z"/>
		</g>
	</g>
	<linearGradient id="SVGID_6_" gradientUnits="userSpaceOnUse" x1="370.2373" y1="99.2344" x2="407.1661" y2="207.1387">
		<stop  offset="0" style="stop-color:#915418"/>
		<stop  offset="1" style="stop-color:#683C11"/>
	</linearGradient>
	<path opacity="0.2" fill="url(#SVGID_6_)" d="M464.925,160.251c-4.13-0.873-35.903,11.584-54.41,11.584
		c-0.405,0-13.735-0.827-19.158-1.938c-27.564-3.438-38.714-4.596-43.443-5.726c-2.393,3.127-4.33,7.147-4.69,8.366
		c-0.589,1.988,2.449,15.205,2.457,18.605c0.008,3.397-5.204,36.613-6.16,37.392c-0.306,0.25-2.208-0.068-2.725-0.111
		c0.051,0.576-0.053-0.277,0,0.299c1.012,0.473,4.144,0.918,4.721,0.447c0.955-0.779,5.762-32.508,5.754-35.908
		c-0.008-3.397-3.045-16.615-2.457-18.604c0.36-1.221,2.297-5.24,4.69-8.366c4.729,1.13,15.878,2.288,43.443,5.726
		c5.423,1.109,18.752,1.939,19.157,1.939c18.508,0,50.281-12.459,54.411-11.584c1.377,0.29,2.821,1.541,4.162,3.143
		C468.953,162.979,466.871,160.663,464.925,160.251z"/>
</g>
<g>

	<path fill="#3A3A3A" d="M421.803,207.854c0,0,23.915-5.98,47.966-7.049c5.25-2.51-28.777-3.732-32.806-2.723
		C432.936,199.091,425.312,203.155,421.803,207.854z"/>
	<path fill="#3A3A3A" d="M400.836,207.854c0,0-23.914-5.98-47.966-7.049c-5.25-2.51,28.777-3.732,32.806-2.723
		C389.703,199.091,397.326,203.155,400.836,207.854z"/>
	<path fill="#EF843C" d="M443.097,268.602c-5.232,0.701-29.255,3.875-62.464,1.039c-0.248,0.73,13.398,5.488,29.902,6.848
		C418.51,277.525,444.51,269.422,443.097,268.602z"/>
	<path opacity="0.8" fill="#EF843C" d="M398.781,283.51c2.366-0.289,13.229-1.602,28.248-0.428c0.111-0.303-6.06-2.27-13.523-2.832
		C409.9,279.82,398.142,283.172,398.781,283.51z"/>
	<g>
		<g>
			<path fill="#3C3C3B" d="M360.394,220.18c-0.885-1.943-0.109-3.732,1.364-5.55c1.474-1.816,11.952-9.132,23.39-3.547
				c11.439,5.583,10.725,10.861,10.725,10.861S380.273,231.834,360.394,220.18z"/>
			<path fill="#FFFFFF" d="M361.305,221.107c-0.687-0.354-1.229-1.035-1.278-1.807c-0.083-1.293,0.629-2.533,1.732-3.785
				c1.474-1.674,11.952-8.412,23.39-3.268c11.439,5.144,10.725,10.003,10.725,10.003S380.747,231.084,361.305,221.107z"/>
			<radialGradient id="SVGID_7_" cx="377.7168" cy="217.9365" r="7.0967" gradientUnits="userSpaceOnUse">
				<stop  offset="0.5027" style="stop-color:#683C11"/>
				<stop  offset="0.603" style="stop-color:#7D4C0A"/>
				<stop  offset="0.7195" style="stop-color:#8F5A04"/>
				<stop  offset="0.8461" style="stop-color:#996101"/>
				<stop  offset="1" style="stop-color:#9C6400"/>
			</radialGradient>
			<circle fill="url(#SVGID_7_)" cx="377.717" cy="217.938" r="7.097"/>
			<circle fill="#1D1D1B" cx="377.688" cy="218.01" r="4.046"/>
			<circle fill="#FFFFFF" cx="381.365" cy="214.93" r="2.791"/>
		</g>
	</g>
	<g>
		<g>
			<path fill="#3C3C3B" d="M460.908,220.18c0.885-1.943,0.109-3.732-1.365-5.55c-1.473-1.816-11.951-9.132-23.391-3.547
				c-11.438,5.583-10.723,10.861-10.723,10.861S441.029,231.834,460.908,220.18z"/>
			<path fill="#FFFFFF" d="M459.526,221.344c1.295-0.646,2.018-2.195,1.503-3.547c-0.291-0.766-0.816-1.521-1.486-2.281
				c-1.473-1.674-11.951-8.412-23.391-3.268c-11.438,5.144-10.723,10.003-10.723,10.003S440.312,230.943,459.526,221.344z"/>
			
				<radialGradient id="SVGID_8_" cx="99.249" cy="217.9365" r="7.0967" gradientTransform="matrix(-1 0 0 1 542.834 0)" gradientUnits="userSpaceOnUse">
				<stop  offset="0.5027" style="stop-color:#683C11"/>
				<stop  offset="0.603" style="stop-color:#7D4C0A"/>
				<stop  offset="0.7195" style="stop-color:#8F5A04"/>
				<stop  offset="0.8461" style="stop-color:#996101"/>
				<stop  offset="1" style="stop-color:#9C6400"/>
			</radialGradient>
			<circle fill="url(#SVGID_8_)" cx="443.585" cy="217.938" r="7.097"/>
			<circle fill="#1D1D1B" cx="443.614" cy="218.01" r="4.046"/>
			<circle fill="#FFFFFF" cx="447.072" cy="214.772" r="2.791"/>
		</g>
	</g>
</g>
<linearGradient id="SVGID_9_" gradientUnits="userSpaceOnUse" x1="321.7573" y1="349.5576" x2="496" y2="349.5576">
	<stop  offset="0" style="stop-color:#5B777F"/>
	<stop  offset="0.2924" style="stop-color:#57767F"/>
	<stop  offset="0.5533" style="stop-color:#4D727F"/>
	<stop  offset="0.8013" style="stop-color:#3A6B7F"/>
	<stop  offset="1" style="stop-color:#26647F"/>
</linearGradient>
<path fill="url(#SVGID_9_)" d="M496,370.088c-0.27-2.211-1.656-6.273-4.885-15.348c-1.598-4.486-3.248-9.127-4.155-12.154
	c-2.765-9.211-12.505-11.537-14.136-11.865c-9.715-2.883-25.931-7.939-28.555-9.385c-1.283-0.705-2.645-1.59-3.939-2.545
	c-6.35,8.594-17.787,14.348-30.886,14.348c-13.376,0-25.028-5.996-31.289-14.893c-1.5,1.168-3.142,2.254-4.667,3.092
	c-2.624,1.443-18.838,6.5-28.554,9.383c-1.629,0.328-11.373,2.654-14.135,11.865c-0.907,3.025-2.556,7.66-4.153,12.145
	c-3.232,9.082-4.619,13.146-4.889,15.357h0.081c-0.001,0.029-0.017,0.059-0.017,0.088c0,5.906,38.99,10.693,87.089,10.693
	S496,376.082,496,370.176c0-0.029-0.016-0.059-0.018-0.088H496z"/>
<linearGradient id="SVGID_10_" gradientUnits="userSpaceOnUse" x1="378.3335" y1="82.3525" x2="418.3233" y2="199.2011">
	<stop  offset="0" style="stop-color:#915418"/>
	<stop  offset="1" style="stop-color:#683C11"/>
</linearGradient>
<path fill="url(#SVGID_10_)" d="M485.594,130.351c-37.902-30.481-96.213-43.469-98.598-42.276c-2.386,1.193,1.192,9.343,1.192,9.343
	s-28.228-9.74-29.818-9.343c-1.59,0.398,8.945,12.126,8.945,12.126s-25.342-5.651-27.083-4.516
	c-1.741,1.136,9.987,11.076,9.987,11.076s-21.791-4.027-38.001,4.417c-0.267,0.811,21.501,5.324,21.501,5.324
	s-22.97,11.206-27.513,17.521c0.32,0.393,25.525-2.612,25.525-2.612s-14.212,10.305-14.471,13.523
	c4.687,2.725,8.724,10.657,10.949,12.478c-0.039,0.214-0.063,0.471-0.093,0.714c-0.716,6.021,1.159,20.663,2.834,34.938
	c0.588,0.039,0.997,0.123,1.37,0.245c0.606,0.197,1.089,0.521,1.876,1.115c0.023,0.36,0.048,0.753,0.073,1.121
	c0.587,9.209,1.441,21.18,2.503,32.874c0.477,0.225,0.979,0.355,1.438,0.395c0.518,0.045,0.981-0.033,1.288-0.281
	c0.955-0.781,6.167-33.996,6.159-37.394c-0.007-3.4-3.045-16.617-2.457-18.605c0.36-1.219,2.297-5.238,4.69-8.366
	c4.729,1.131,15.878,2.288,43.443,5.726c5.423,1.111,18.753,1.938,19.158,1.938c18.507,0,50.28-12.456,54.409-11.584
	c1.947,0.411,4.029,2.728,5.753,5.265c2.676,3.197,4.923,7.818,5.315,9.143c0.588,1.988-2.448,15.205-2.456,18.604
	c-0.008,2.957,3.934,28.464,5.589,35.57c0.468,0.006,0.997-0.1,1.512-0.311c1.213-12.923,2.174-26.498,2.803-36.476
	c1.347-1.013,1.594-1.014,2.588-1.213c1.171-10.305,2.85-20.602,3.355-27.445C489.966,161.839,492.49,140.536,485.594,130.351z"/>
</svg>
