<svg version="1.1" id="Layer_1" xmlns="http://www.w3.org/2000/svg" xmlns:xlink="http://www.w3.org/1999/xlink" viewBox="0 0 768 430" enable-background="new 0 0 768 430" xml:space="preserve">
<g>
	<polygon fill="#246D96" points="319.755,292.135 249.038,348.381 222.52,323.07 281.449,255.574 	"/>
	<polygon fill="#2B5272" points="287.343,261.199 222.52,323.07 196,297.76 254.932,241.514 	"/>
	<path fill="#F9C985" d="M561.127,95.51l-47.144-44.997c-9.724-9.28-24.805-10.073-33.513-1.762
		c-8.707,8.311-20.445,19.513-20.445,19.513l82.504,78.743c0,0,11.737-11.202,20.445-19.513S570.854,104.79,561.127,95.51z"/>
	<polygon fill="#E8E3D6" points="401.401,112.967 466.226,51.098 560.514,141.09 495.691,202.958 	"/>
	<polygon fill="#246D96" points="361.007,342.755 302.076,399 275.557,373.689 334.488,306.196 	"/>
	<polygon fill="#2B5272" points="249.036,348.379 313.859,286.509 340.378,311.819 275.555,373.688 	"/>
	<polygon fill="#ED565D" points="254.93,241.515 401.401,101.718 507.478,202.958 361.005,342.754 	"/>
</g>
</svg>
