<svg version="1.1" xmlns="http://www.w3.org/2000/svg" xmlns:xlink="http://www.w3.org/1999/xlink" viewBox="0 0 768 430" style="enable-background:new 0 0 768 430;" xml:space="preserve"><g id="lion"> <g>  <path style="fill:none;" d="M263.778,157.304c0.038-0.005,0.075-0.012,0.108-0.022c0.056-0.066,0.113-0.133,0.167-0.199 l-0.005-0.002h0.006v0.002l0,0l1.902,0.953c0,0,0.07,0.072,0.167,0.189C265.334,156.966,264.368,156.299,263.778,157.304z"/>  <path style="fill:none;" d="M539.294,153.079c0.117,0.632,0.214,1.271,0.31,1.909c-0.118-1.025-0.261-2.043-0.46-3.042 c3.136,5,5.049,13.464,6.176,23.395c-0.818-9.053-2.344-16.668-5.699-23.041c-0.142-1.127-0.628-3.225-1.849-5.968 C538.472,148.558,538.963,150.801,539.294,153.079z"/>  <path style="fill:none;" d="M261.977,159.234c-3.069,2.937-6.209,4.497-9.223,5.043c0.076-0.011,0.155-0.019,0.23-0.031 C255.739,163.731,258.875,162.367,261.977,159.234z"/>  <path style="fill:none;" d="M461.016,306.508c-0.017-0.208,0.096-0.466,0.154-0.706c-0.09,0.232-0.211,0.448-0.271,0.706 c0.04,0.712,0.135,1.325,0.275,1.921C461.065,307.857,460.989,307.236,461.016,306.508z"/>  <path style="fill:#DDE4D0;" d="M267.094,160.4c0.12,0.553,0.222,1.153,0.3,1.817C267.394,161.653,267.279,161.024,267.094,160.4z" />  <path style="fill:#DDE4D0;" d="M471.409,207.251c0-0.438-0.022-0.802-0.061-1.115 C471.344,206.655,471.362,207.045,471.409,207.251z"/>  <polygon style="fill:#DDE4D0;" points="264.055,157.08 264.049,157.08 264.054,157.083 264.055,157.082   "/>  <path style="fill:#DDE4D0;" d="M574.735,279.63c-4.899-5.735-10.029-10.507-13.261-17.317 c-5.131-12.187-7.527-36.791-7.527-51.482c3.825-36.187-1.428-64.137-28.66-80.741c4.089,3.663,7.022,7.167,9.142,10.298 c-8.276-11.265-14.331-13.189-25.509-16.995c-42.286-7.762-62.351,6.572-96.636,4.899c-10.826-0.491-15.536-2.671-19.503-4.384 c-2.575-1.126-4.833-2.052-8.295-2.17c-8.716-15.893-20.391-11.046-30.131-18.41c2.149-0.36,3.701-0.36,3.576-1.076 c-6.444-2.511-20.901-9.675-24.009-9.435c-3.817-1.554-4.414-3.701-13.37-4.541c-6.452-6.688-11.949-2.387-15.772-1.073 c0.48-4.065-1.552-10.514-5.015-15.53c0.238,1.67,1.312,8.122-8.724,10.151c-6.924,0.479-15.525-6.329-16.839-8.481 c-0.889,3.165,1.658,7.502,4.529,8.787c-4.879-1.068-8.587-2.662-12.411-6.276c-0.365,3.821,0.238,6.689,0.238,7.643l-0.006-0.002 c-4.659-2.028-13.972,0.84-13.734,2.628c6.453-1.312,12.304,3.344,16.965,4.422c-4.539-0.116-16.602,11.468-23.534,16.361 c9.56,3.588,19.474-10.87,25.085-10.391c-4.144,2.108-8.009,5.273-10.115,7.62c-6.503,4.473-12.913,10.299-13.657,13.41 c-0.835,5.611-2.03,6.568-5.254,11.823c-5.011,5.016-11.345,11.704-10.748,12.782c-0.062,0.271-0.109,0.537-0.145,0.796 c-0.034-0.028-0.061-0.047-0.096-0.076c-0.221,0.844-0.095,1.95,0.265,3.058c0.243,0.901,0.646,1.688,1.146,2.351 c0.617,0.915,1.371,1.658,2.172,1.996c0-0.02,0.005-0.05,0.006-0.071c0.037,0.021,0.073,0.045,0.11,0.066 c0.001,0.003,0.001,0.007,0.002,0.01c-0.001-0.002-0.001-0.003-0.002-0.005c1.199,5.015,2.274,6.928,5.258,10.51 c0.797,0.651,1.659,1.237,2.57,1.745c-0.141-0.065-0.279-0.124-0.421-0.193c-0.035,0.042-0.059,0.09-0.089,0.134 c-0.009-0.004-0.02-0.009-0.029-0.013c0.007,0.007,0.016,0.014,0.023,0.021c-0.583,0.841-0.384,2.104-0.384,3.799 c0,0.958,0.244,2.388,0.244,3.346l1.555,3.103l0.828-0.835c0.727,0,1.319,2.627,2.032,2.627l1.321,0.479l2.029-0.359 c0.598,0,0.833,0.236,1.548,0.236l1.913-0.835l0.596-1.793l0.478-0.595l1.319-0.239c0-1.672,0.712-0.955,1.431-0.955 c0,0-0.24-0.958,0.833-1.553c1.075-0.598,1.075-0.834,1.671-1.554c0.478-0.718,0.124-0.718,0.601-1.074 c0.472-0.239,1.314-0.479,2.75-0.479l1.554-2.985l0.595-1.196l1.553-1.789c0-0.137-0.02-0.269-0.049-0.398 c0.133,0.315,0.247,0.642,0.344,0.97c-0.001-0.004-0.002-0.009-0.003-0.014c0.187,0.628,0.303,1.261,0.303,1.828 c0.004-0.003,0.007-0.007,0.011-0.01c0,0.001,0,0.003,0,0.005c0.253-0.219,0.497-0.459,0.744-0.69 c0.135-0.127,0.274-0.247,0.409-0.376c0.359,9.049,0.511,17.132-1.282,21.855c5.011-4.42,9.554-11.349,12.182-16.963 c-0.959,5.733-0.357,18.156,3.224,21.619c0.124-7.641,4.302-16.365,4.779-18.393c1.434,5.375-2.153,31.058-2.864,35.355 c7.404-2.265,10.987-21.858,10.032-16.241c0.839,2.029-1.193,23.412-1.555,27.709c4.784-4.297,5.733-6.447,8.724-9.196 c0.712,8.004,13.139,24.96,17.557,28.312c-3.701-5.383-5.855-28.667-4.057-31.892c1.432,6.329,5.01,33.322,6.084,37.024 c2.031-1.793,4.66-10.271,5.137-10.633c0.843,0.957-1.312,10.988-2.504,14.457c9.084-9.992,12.104-20.549,13.945-30.916 c0.506,3.011,1.062,6.096,1.698,9.298c0,0.001,0.001,0.001,0.002,0.002c-0.001,3.581-0.712,5.853-2.983,8.596 c-5.017,7.172-12.665,16.964-21.384,26.755c-4.42,4.898-6.451,10.512-11.346,15.17c-4.179,4.78-2.51,9.081-13.977,12.904 c-7.492,3.449-19.846,5.596-11.199,17.188c-0.009,0.003-0.017,0.007-0.026,0.01c0.013,0.003,0.025,0.004,0.038,0.007 c0.029,0.038,0.052,0.074,0.081,0.113c7.63,1.551,11.215-2.252,18.476-5.006c0.012-0.005,0.024-0.01,0.036-0.014 c0.001-0.001,0.003-0.002,0.005-0.003c6.567-4.527,12.898,0.479,13.617-8.233c2.504-5.73,15.047-12.062,20.664-16.01 c11.105-8.122,22.813-15.286,35.355-27.472c0.266-0.164,0.51-0.336,0.749-0.509c0.234-0.157,0.479-0.312,0.704-0.473 c2.187,11.23,6.765,23.715,9.411,35.023c0.598,3.462,1.077,5.14,0.835,9.312c0.242,4.543,0.836,10.158-1.909,13.383 c-2.394,4.537-7.045,2.387-11.586,5.017c-1.072,1.194-5.021,1.313-4.302,7.286c0.602,3.102,16.006,0.115,24.729,0.239 c2.868-2.873,2.148-1.555,3.586-6.573c2.148-4.776,1.551-3.585,3.701-8.598c0.355-3.586,0.239-4.063,0.596-11.828 c0.959-20.902-0.834-44.908,0.959-65.217c-0.026-0.024-0.057-0.041-0.086-0.063c1.998-0.272,3.987-0.472,5.937-0.538 c1.05-0.021,2.091,0,3.131,0.036c10.334,0.892,20.262,3.678,30.343,3.346c8.021-0.051,16.103-2.153,24.655-9.302 c3.867-3.083,7.813-7.113,11.861-12.31c0.131-0.048,0.253-0.058,0.369-0.044c0.311,0.116,0.546,0.537,0.649,1.402 c0.002-0.177,0.007-0.37,0.014-0.576c0.106,0.395,0.171,0.937,0.171,1.689c-4.78,20.548,18.873,48.493,16.726,69.514 c0,1.675-0.479,2.751-1.314,4.659c-6.33,9.079-7.049,10.986-15.766,17.439c-4.183,1.078-7.648-0.718-14.094-0.718 c-4.543-0.116-8.006,10.396-5.026,11.709c3.057,1.382,2.093-2.618,4.003-7.015c-0.786,2.499-1.542,5.721-1.607,6.061 c0.35,4.028,5.412,4.873,8.295,3.014c0.023,0.029,0.043,0.055,0.066,0.084c0.013,0.006,0.031,0.011,0.044,0.017 c0.026,0.039,0.055,0.079,0.075,0.111c2.271,0.836,10.151,1.906,13.733-0.721c10.159-7.882,21.026-15.771,30.105-25.323 c4.775-2.031,6.209-6.692,4.299-11.229c0-6.334-3.108-13.74-0.843-21.025c0.925-6.232,2.583-12.375,4.65-18.43 c5.882,10.727,26.45,25.158,32.623,30.74c2.506,2.389,4.061,5.256,5.373,8.245c1.438,3.461,1.672,6.447,1.672,13.493v10.039 l-0.601,2.146c-1.784-2.147-14.805,2.267-9.791,13.021c1.792,0.357,4.421,0.357,6.092-0.246v-2.86c0,0.952,0.116,1.911,0.116,2.86 c2.873,0.604,5.617,0.725,8.484-0.23c0-1.795,0.239-3.347,0.239-4.305l-0.119,4.305c2.151-0.479,4.061-0.598,5.371-4.543 c0-7.645,0-8.597,0.598-18.152c0.481-2.158,1.316-5.381,2.031-6.338c0.455-1.088,0.839-2.321,0.786-3.74 c0.006-0.056,0.018-0.11,0.022-0.165c0.691,0.788,1.309,1.427,1.819,1.875c0.718,0,2.511,3.468,5.139,4.774 C575.331,284.529,574.735,281.423,574.735,279.63z M261.977,159.234c-3.102,3.132-6.238,4.497-8.993,5.012 c-0.076,0.012-0.154,0.02-0.23,0.031C255.767,163.731,258.908,162.171,261.977,159.234z M265.957,158.035l-1.902-0.953 c-0.055,0.066-0.112,0.133-0.167,0.199c-0.034,0.01-0.07,0.017-0.108,0.022c0.589-1.004,1.556-0.338,2.345,0.921 C266.027,158.107,265.957,158.035,265.957,158.035z M545.319,175.341c-1.127-9.931-3.04-18.396-6.176-23.395 c0.199,0.999,0.342,2.017,0.46,3.042c-0.096-0.638-0.192-1.276-0.31-1.909c-0.331-2.278-0.822-4.521-1.522-6.747 c1.221,2.743,1.707,4.84,1.849,5.968C542.976,158.672,544.501,166.288,545.319,175.341z M461.17,305.802 c-0.059,0.24-0.171,0.498-0.154,0.706c-0.026,0.729,0.05,1.35,0.159,1.921c-0.141-0.596-0.235-1.209-0.275-1.921 C460.959,306.25,461.08,306.034,461.17,305.802z"/>  <polygon style="fill:#DDE4D0;" points="525.28,130.085 525.287,130.089 525.28,130.083   "/> </g> <g id="Layer_1_7_"> </g></g><g id="Layer_1"></g></svg>