<svg version="1.1" id="Layer_1" xmlns="http://www.w3.org/2000/svg" xmlns:xlink="http://www.w3.org/1999/xlink" x="0px" y="0px"
	 viewBox="0 0 768 430" enable-background="new 0 0 768 430" xml:space="preserve">
<path fill="#BA656D" d="M562.859,128.596c-0.9-4.912-5.106-16.234-8.791-23.74c-5.665-11.495-18.016-26.441-28.719-34.763
	c-3.521-2.745-20.396-10.53-26.613-12.309c-12.739-3.625-35.106-4.118-47.78-1.093c-9.178,2.208-23.481,8.212-28.479,11.987
	c-0.966,0.729-3.882,2.681-6.498,4.375c-6.97,4.461-20.889,18.25-22.089,21.874c-0.643,1.909-3.881,0-6.196-3.667
	c-2.747-4.31-11.474-13.745-15.892-17.134c-8.556-6.584-11.216-8.385-16.664-11.302c-6.046-3.217-8.256-4.053-19.107-7.098
	c-16.211-4.546-35.212-3.389-53.826,3.324c-3.625,1.309-8.578,3.431-11.002,4.696c-7.441,3.924-22.796,17.757-29.25,26.335
	c-7.743,10.293-16.213,30.216-18.293,43.019c-0.964,5.94-0.9,36.778,0.086,41.667c0.43,2.101,1.073,5.383,1.459,7.292
	c1.822,9.371,4.396,18.399,6.712,23.633c0.943,2.122,1.715,4.162,1.715,4.503c0,2.144,11.516,23.654,15.613,29.167
	c0.986,1.327,4.417,6.026,7.612,10.421c7.527,10.379,10.98,14.517,19.836,23.825c10.68,11.236,23.59,23.463,31.181,29.531
	c15.012,12.029,31.675,24.491,37.765,28.244c1.244,0.77,3.624,2.398,5.297,3.644c1.671,1.244,3.302,2.253,3.624,2.253
	c0.301,0,1.952,0.943,3.646,2.078c1.694,1.139,3.388,2.084,3.773,2.084c0.365,0,1.051,0.429,1.502,0.985
	c0.449,0.537,5.188,3.41,10.528,6.371l0,0c7.527,4.288,14.626,8.687,21.981,11.493c6.326-3.281,12.525-6.734,18.594-10.444
	c2.682-1.757,5.639-3.521,6.604-3.885c0.965-0.385,3.302-1.885,5.212-3.363c1.908-1.461,6.904-4.91,11.108-7.677
	c4.202-2.744,10.444-7.017,13.897-9.458c3.43-2.444,7.805-5.489,9.712-6.798c1.911-1.291,4.891-3.603,6.605-5.125
	c5.319-4.697,16.6-14.05,19.301-15.977c3.925-2.812,26.12-25.648,33.326-34.267c9.028-10.811,8.882-10.595,12.353-15.979
	c1.739-2.68,3.711-5.49,4.399-6.238c1.801-2.017,7.506-11.603,10.783-18.142c1.564-3.111,3.282-6.179,3.839-6.843
	c1.052-1.265,8.796-23.181,9.821-27.814c2.812-12.652,3.436-17.477,3.839-29.873C565.646,147.79,565.046,140.583,562.859,128.596z"
	/>
</svg>
