<svg version="1.1" xmlns="http://www.w3.org/2000/svg"   viewBox="0 0 768 430" enable-background="new 0 0 768 430" xml:space="preserve"><path fill="#DDE4D0" d="M496.3 163.9c-0.6-3.3-3.4-10.8-5.8-15.8 -3.8-7.6-12-17.6-19.1-23.1 -2.3-1.8-13.6-7-17.7-8.2 -8.5-2.4-23.3-2.7-31.8-0.7 -6.1 1.5-15.6 5.5-18.9 8 -0.6 0.5-2.6 1.8-4.3 2.9 -4.6 3-13.9 12.1-14.7 14.5 -0.4 1.3-2.6 0-4.1-2.4 -1.8-2.9-7.6-9.1-10.6-11.4 -5.7-4.4-7.5-5.6-11.1-7.5 -4-2.1-5.5-2.7-12.7-4.7 -10.8-3-23.4-2.2-35.8 2.2 -2.4 0.9-5.7 2.3-7.3 3.1 -4.9 2.6-15.2 11.8-19.4 17.5 -5.1 6.8-10.8 20.1-12.2 28.6 -0.6 4-0.6 24.4 0.1 27.7 0.3 1.4 0.7 3.6 1 4.8 1.2 6.2 2.9 12.2 4.5 15.7 0.6 1.4 1.1 2.8 1.1 3 0 1.4 7.6 15.7 10.4 19.4 0.7 0.9 2.9 4 5.1 6.9 5 6.9 7.3 9.6 13.2 15.8 7.1 7.5 15.7 15.6 20.7 19.6 10 8 21.1 16.3 25.1 18.8 0.8 0.5 2.4 1.6 3.5 2.4 1.1 0.8 2.2 1.5 2.4 1.5 0.2 0 1.3 0.6 2.4 1.4 1.1 0.8 2.3 1.4 2.5 1.4 0.2 0 0.7 0.3 1 0.7 0.3 0.4 3.4 2.3 7 4.2 5 2.8 9.7 5.8 14.6 7.6 4.2-2.2 8.3-4.5 12.4-6.9 1.8-1.2 3.8-2.3 4.4-2.6 0.6-0.3 2.2-1.3 3.5-2.2s4.6-3.3 7.4-5.1c2.8-1.8 6.9-4.7 9.2-6.3 2.3-1.6 5.2-3.7 6.5-4.5 1.3-0.9 3.2-2.4 4.4-3.4 3.5-3.1 11-9.3 12.8-10.6 2.6-1.9 17.4-17 22.2-22.8 6-7.2 5.9-7 8.2-10.6 1.2-1.8 2.5-3.6 2.9-4.2 1.2-1.3 5-7.7 7.2-12.1 1-2.1 2.2-4.1 2.5-4.5 0.7-0.8 5.8-15.4 6.5-18.5 1.9-8.4 2.3-11.6 2.5-19.9C498.2 176.7 497.8 171.9 496.3 163.9z"/></svg>