<svg version="1.1" id="Layer_1" xmlns="http://www.w3.org/2000/svg" xmlns:xlink="http://www.w3.org/1999/xlink" viewBox="0 0 768 430" xml:space="preserve">
<path fill="#DDE4D0" d="M496.3,130.9c-0.6-3.3-3.399-10.8-5.8-15.8c-3.8-7.6-12-17.6-19.1-23.1c-2.301-1.8-13.601-7-17.7-8.2
	c-8.5-2.4-23.3-2.7-31.8-0.7c-6.101,1.5-15.601,5.5-18.9,8c-0.6,0.5-2.6,1.8-4.3,2.9c-4.601,3-13.9,12.1-14.7,14.5
	c-0.4,1.3-2.6,0-4.1-2.4c-1.8-2.9-7.6-9.1-10.6-11.4c-5.7-4.4-7.5-5.6-11.1-7.5c-4-2.1-5.5-2.7-12.7-4.7c-10.8-3-23.4-2.2-35.8,2.2
	c-2.4,0.9-5.7,2.3-7.3,3.1c-4.9,2.6-15.2,11.8-19.4,17.5c-5.1,6.8-10.8,20.1-12.2,28.6c-0.6,4-0.6,24.4,0.1,27.7
	c0.3,1.4,0.7,3.6,1,4.8c1.2,6.2,2.9,12.2,4.5,15.7c0.6,1.4,1.1,2.8,1.1,3c0,1.4,7.6,15.7,10.4,19.4c0.7,0.9,2.9,4,5.1,6.9
	c5,6.899,7.3,9.6,13.2,15.8c7.1,7.5,15.7,15.6,20.7,19.6c10,8,21.1,16.3,25.1,18.8c0.8,0.5,2.4,1.601,3.5,2.4s2.2,1.5,2.4,1.5
	c0.2,0,1.3,0.6,2.4,1.4c1.1,0.8,2.3,1.399,2.5,1.399c0.2,0,0.7,0.3,1,0.7c0.3,0.4,3.4,2.3,7,4.2c5,2.8,9.7,5.8,14.601,7.6
	c4.199-2.2,8.3-4.5,12.399-6.899c1.8-1.2,3.8-2.301,4.4-2.601c0.6-0.3,2.2-1.3,3.5-2.2c1.3-0.899,4.6-3.3,7.399-5.1
	c2.801-1.8,6.9-4.7,9.2-6.3c2.3-1.601,5.2-3.7,6.5-4.5c1.3-0.9,3.2-2.4,4.4-3.4c3.5-3.1,11-9.3,12.8-10.6c2.6-1.9,17.4-17,22.2-22.8
	c6-7.2,5.899-7,8.2-10.601c1.199-1.8,2.5-3.6,2.899-4.2c1.2-1.3,5-7.699,7.2-12.1c1-2.1,2.2-4.1,2.5-4.5c0.7-0.8,5.8-15.4,6.5-18.5
	c1.9-8.4,2.3-11.6,2.5-19.9C498.2,143.7,497.8,138.9,496.3,130.9z"/>
</svg>
