<svg version="1.1" xmlns="http://www.w3.org/2000/svg" viewBox="0 0 768 430" xml:space="preserve"><style>.s0{fill:none;}</style><rect x="352" y="219" width="122" height="9" fill="none"/><rect x="351" y="177" width="121" height="11" fill="none"/><rect x="352" y="198" width="122" height="9" fill="none"/><rect x="481.8" y="113" width="47.6" height="36.6" fill="none"/><path d="M554.9 88.9H256.9c-3.2 0-5.9 2.6-5.9 5.9v184.3c0 3.2 2.6 5.9 5.9 5.9h298.1c3.2 0 5.9-2.6 5.9-5.9V94.8C560.8 91.5 558.2 88.9 554.9 88.9zM342.3 181h129.6v11.8H342.3V181zM474.1 235.6H343.4v-9.6h130.7V235.6zM474.1 213.1H343.4v-9.6h130.7V213.1zM533.4 151.7h-51v-39.2h51V151.7z" fill="#DDE4D0"/></svg>