<svg id="Layer_1" xmlns="http://www.w3.org/2000/svg" viewBox="0 0 768 430"><style>.a{fill:#262525;}.b{fill:#0C0C0C;}.c{fill:#353535;}.d{fill:#111;}.e{fill:#903E2B;}.f{fill:#3A100E;}.g{stop-color:#FFF;}.h{stop-color:#F9F9F9;}.i{stop-color:#E9E9E9;}.j{stop-color:#CECECE;}.k{stop-color:#A9A9A9;}.l{stop-color:#909090;}.m{stop-color:#C3C3C3;}.n{stop-color:#0FF;}.o{stop-color:#0049FF;}.p{stop-color:#000;}.q{stop-color:#DDD;}.r{stop-color:#D9D9D9;}.s{stop-color:#BBB;}.t{stop-color:#A0A0A0;}.u{stop-color:#7D7D7D;}.v{stop-color:#525252;}.w{stop-color:#212121;}.x{fill:#0027A0;}.y{stop-color:#C06448;}.z{fill:#BC786D;}.A{fill:#000012;}.B{stop-color:#AD553D;}.C{stop-color:#1A0000;}.D{fill:#C74A4A;}</style><path d="M354 230.5c-0.1 0.8-0.4 1.6-0.8 2.3 -0.2 0.3-0.5 0.6-0.8 0.8 0 0.1 0 0.1 0.1 0.2 0.2 0.4 0.6 0.7 1.2 0.7 3 0.2 17.5-8.6 29.5-18.9 -1.1-3.8-1.1-7.5-0.2-11.1 0.6-2.3 1.5-4.4 2.7-6.4C374.4 206 358.6 224.8 354 230.5z" class="a"/><path d="M353.7 234.5c-0.6 0-1-0.3-1.2-0.7 0-0.1 0-0.1-0.1-0.2 0.3-0.2 0.6-0.4 0.8-0.8 0.4-0.8 0.6-1.5 0.8-2.3 4.6-5.7 20.4-24.5 31.7-32.4 0.2-0.3 0.4-0.7 0.6-1 -11.1 7.4-26.9 25.9-32.2 32.5 0.2-7.4-10-16-19.2-23.7 -7.1-6-15.2-12-19.3-13.7 0.2-0.5 0.2-0.9 0.1-1.3 -1.1-2.5-2.2-6.3-3.4-9.9 -2.4-7.9-4-12.7-5.7-12.7 -0.2 0-0.3 0-0.5 0.1 -3.9 2.1-2.2 13.6-1.4 19.1 0.2 1.1 0.3 2.1 0.3 2.4 -18.2 8.1-26.2 20.6-27.5 28.8 -0.3 1.9-0.2 3.3 0.3 3.7 0.1 0.1 0.3 0.1 0.4 0.1 2 0 10.1-6.6 21.3-15.9 4.8-3.9 9.3-7.7 11.6-9.3 1-0.7 2-1.6 2.8-2.5 3 5.2 11.6 16.4 19.2 24.7 6.5 7.1 14.8 14.3 18.5 14.3 0.1 0 0.3 0 0.4 0 0 0.1 0 0.2 0.1 0.3 0.3 0.6 0.9 0.9 1.6 1 0.1 0 0.1 0 0.2 0 3.8 0 18-9 29.5-18.9 -0.1-0.2-0.1-0.4-0.2-0.5C371.3 225.9 356.8 234.7 353.7 234.5zM310.8 196.9c-2.3 1.6-6.8 5.4-11.6 9.3 -8.5 7-19 15.8-21 15.8 -0.1 0-0.1 0-0.1 0 -0.2-0.2-0.5-1.2-0.1-3.2 1.3-8.2 9.2-20.5 27.4-28.5l0.1 0c0.2-0.2 0.2-0.4-0.2-2.9 -0.7-5-2.4-16.6 1.1-18.5 0.1 0 0.1-0.1 0.2-0.1 1.5 0 3.5 6.6 5.2 12.4 1.1 3.7 2.3 7.5 3.4 10C315.6 192.1 313.6 195 310.8 196.9zM351.6 233.3c-3.1 0-10.4-5.7-18.1-14.1 -8.7-9.5-16.6-20.2-19.2-24.7 0.5-0.6 0.9-1.2 1.2-1.8 3.6 1.5 10.9 6.7 19.1 13.6 10.4 8.8 22.2 18.7 18.3 26.3C352.6 233.1 352.2 233.3 351.6 233.3z" class="b"/><path d="M352.8 232.6c4-7.7-7.8-17.6-18.3-26.3 -8.3-6.9-15.6-12.1-19.1-13.6 -0.3 0.6-0.7 1.2-1.1 1.8 2.6 4.5 10.5 15.2 19.2 24.7 7.7 8.5 15 14.1 18.1 14.1C352.2 233.3 352.6 233.1 352.8 232.6z" class="a"/><path d="M315.2 191.1c-1.1-2.5-2.3-6.3-3.4-10 -1.8-5.8-3.8-12.4-5.2-12.4 -0.1 0-0.1 0-0.2 0.1 -3.5 2-1.8 13.6-1.1 18.5 0.4 2.5 0.4 2.7 0.2 2.9l-0.1 0c-18.1 8-26.1 20.3-27.4 28.5 -0.3 2-0.1 3 0.1 3.2 0 0 0 0 0.1 0 2 0 12.5-8.7 21-15.7 4.8-3.9 9.3-7.7 11.6-9.3C313.6 195 315.6 192.1 315.2 191.1z" class="a"/><path d="M362.9 80.1c-8.6-7.8-23.2-16-25.8-16.1 -0.5 0.4-1.4 1.2-2.5 2.5 0.2 0.9 3.2 2.4 6.9 4.4 9.3 4.8 26.4 13.7 36.3 30.4 0 0 0.1 0 0.1-0.1 0.8-0.6 1.7-1.2 2.6-1.8C377.7 95.7 371.4 87.7 362.9 80.1z" class="c"/><path d="M341.5 70.9c-3.8-1.9-6.7-3.5-6.9-4.4 1.1-1.2 1.9-2.1 2.5-2.5 2.7 0.1 17.3 8.3 25.8 16.1 8.4 7.7 14.7 15.6 17.6 19.3 0.1-0.1 0.3-0.2 0.4-0.3 -2.8-3.7-9.2-11.7-17.6-19.4 -8.3-7.5-21.6-15.1-25.5-16.1l0 0 -0.3 0 -0.4-0.1 0 0c0 0-0.3 0-1 0 -3.2 0-14.6 1.2-29.2 17.1 -12 13-14.5 23.2-13.8 25.9 0.1 0.3 0.2 0.6 0.5 0.6 0.1 0 0.1 0 0.2 0 1.9 0 11.6-7.5 24.2-21 4.6-4.9 8.8-10.1 12.2-14.2 1.5-1.9 2.9-3.6 4-4.9 0.6 1.1 3.1 2.4 7.1 4.4 9.3 4.8 26.3 13.6 36.1 30.2 0.1-0.1 0.3-0.2 0.4-0.3C367.9 84.5 350.8 75.7 341.5 70.9zM329.8 71.5c-3.4 4.1-7.5 9.3-12.1 14.2 -12.7 13.7-22.3 20.8-23.9 20.8l0 0c0 0-0.1-0.1-0.2-0.5 -0.4-2.9 2.3-12.8 13.7-25.2 14.5-15.7 25.7-16.9 28.8-16.9 0.1 0 0.1 0 0.2 0C335 65.1 332.7 67.9 329.8 71.5z" class="d"/><path d="M336.3 63.9c-0.1 0-0.1 0-0.2 0 -3.1 0-14.3 1.2-28.8 16.9 -11.4 12.3-14.1 22.3-13.7 25.2 0.1 0.4 0.2 0.5 0.2 0.5l0 0c1.6 0 11.1-7.1 23.9-20.8 4.6-4.9 8.8-10.1 12.1-14.2C332.7 67.9 335 65.1 336.3 63.9z" class="c"/><path d="M406.6 40c0 0 0 0-0.1 0 -0.7 0.2-1.8 0.8-3.2 1.7 0.4 1.3 1.9 3.7 3.7 6.5 5.6 8.8 15.9 24.8 16.3 44.1 1.1 0.2 2.2 0.5 3.3 0.8 -0.5-4.3-2-14.8-5.6-26.2C417.5 55.7 408.8 41.2 406.6 40z" class="c"/><path d="M407.1 48.2c-1.8-2.8-3.3-5.2-3.7-6.5 1.4-0.9 2.5-1.5 3.2-1.7 0 0 0 0 0.1 0 2.2 1.3 10.8 15.8 14.4 26.9 3.6 11.4 5.1 21.9 5.6 26.2 0.2 0 0.4 0.1 0.5 0.1 -0.5-4.2-2-14.9-5.7-26.5 -3.5-11-11.6-24.6-14.3-26.9l0.2 0 -0.7-0.3c0 0-0.3-0.1-0.9-0.3 -3-0.9-14.3-3-32.9 7.9 -15.2 9-20.6 18-20.7 20.8 0 0.4 0.1 0.6 0.3 0.7 0.1 0 0.1 0.1 0.2 0.1 1.8 0.6 13.3-3.8 29.3-13 5.8-3.4 11.3-7.1 15.8-10.1 2-1.3 3.7-2.5 5.2-3.4 0.4 1.4 1.8 3.4 3.7 6.5 5.6 8.7 15.8 24.6 16.2 43.7 0.2 0 0.3 0.1 0.5 0.1C423 73 412.7 56.9 407.1 48.2zM397.4 45c-4.4 3-9.9 6.7-15.7 10.1 -16.1 9.4-27.4 13.4-28.9 13l0 0c0 0-0.1-0.1 0-0.5 0.4-2.9 6-11.6 20.4-20.1 18.4-10.8 29.5-8.7 32.5-7.8 0.1 0 0.1 0 0.2 0.1C404.2 40.4 401.3 42.3 397.4 45z" class="d"/><path d="M405.7 39.6c-3-0.9-14.1-3-32.5 7.8 -14.4 8.5-20 17.2-20.4 20.1 -0.1 0.4 0 0.5 0 0.5l0 0c1.5 0.5 12.7-3.6 28.9-13 5.8-3.4 11.3-7.1 15.7-10.1 3.9-2.6 6.8-4.6 8.4-5.3C405.8 39.6 405.7 39.6 405.7 39.6z" class="c"/><path d="M397.3 326.3c-0.6 0-1.1-0.2-1.5-0.6 -1.1 6.9 2.1 22.1 15.3 45.5 1.9 0.6 3.4 1.4 4.6 2.5 -0.7-8-4.2-37.5-15.5-49C399.5 325.7 398.3 326.3 397.3 326.3z" class="a"/><path d="M394.9 372.2c-8.6 2.4-15.4 6.8-17.9 11.3 -1 1.8-1.2 3.5-0.8 5.1 1.1 3.7 7 6.2 14.8 6.2 3.4 0 6.9-0.5 10-1.4 5.2-1.5 9.8-4.1 12.9-7.2 3-3 4.3-6.2 3.5-9 -1.2-4-6.1-6.5-12.9-6.5C401.5 370.8 398.3 371.3 394.9 372.2z" class="a"/><path d="M396.4 317.4c-0.4 3-0.7 5.3-0.5 7.1 0.1 1.2 1 1.3 1.5 1.3 1 0 2.3-0.7 2.7-1.8 0.7-2.1 1-3.1 1.4-4.6 0.2-0.9 0.5-2 1-3.8 0.5-1.7 1.7-4.4 3.4-8.2 4-8.7 10.1-22.2 13.5-37.2 -0.1-0.6-0.2-1.2-0.3-1.8 -0.8-4.9-0.8-9.3-0.6-12.7 -0.4-0.3-0.7-0.6-1-0.9 -0.1-0.1-0.2-0.3-0.4-0.5 -4.8 6.9-16.6 26.7-20.1 58.8C396.7 314.6 396.5 316.1 396.4 317.4z" class="a"/><path d="M405.8 307.5c-1.7 3.8-3 6.5-3.4 8.2 -0.5 1.7-0.8 2.9-1 3.8 -0.4 1.5-0.7 2.5-1.4 4.6 -0.4 1.1-1.7 1.8-2.7 1.8 -0.5 0-1.4-0.2-1.5-1.3 -0.2-1.8 0.1-4.1 0.5-7.1 0.2-1.3 0.4-2.7 0.5-4.3 3.5-32 15.3-51.9 20.1-58.8 -0.1-0.1-0.2-0.3-0.3-0.4 -4.8 6.8-16.8 26.8-20.3 59.1 -0.2 1.5-0.4 3-0.5 4.3 -0.4 3-0.7 5.4-0.5 7.2 0 0.2 0.1 0.4 0.1 0.6 -1.3 6.3 0.8 20.8 14.9 45.9 -1.7-0.5-3.7-0.7-5.9-0.7 -3.1 0-6.3 0.5-9.7 1.4 -8.7 2.5-15.7 6.9-18.3 11.5 -1 1.9-1.3 3.7-0.8 5.5 1.2 4 7.3 6.6 15.3 6.6 3.4 0 7-0.5 10.2-1.5 5.3-1.6 9.9-4.2 13.1-7.3 3.2-3.2 4.5-6.5 3.6-9.5 -0.3-1-0.8-2-1.6-2.8 -0.6-7-3.9-38.2-15.8-50 0 0 0-0.1 0.1-0.1 0.7-2.1 1-3.1 1.4-4.6 0.2-0.9 0.5-2 1-3.8 0.5-1.6 1.8-4.5 3.4-8.1 3.9-8.5 9.8-21.6 13.3-36.3 -0.1-0.4-0.2-0.8-0.3-1.2C416 285.3 409.8 298.8 405.8 307.5zM417.3 377.2c0.8 2.7-0.4 5.9-3.5 9 -3.1 3.1-7.7 5.6-12.9 7.2 -3.2 0.9-6.6 1.4-10 1.4 -7.7 0-13.7-2.5-14.8-6.2 -0.5-1.6-0.2-3.3 0.8-5.1 2.5-4.5 9.4-8.9 17.9-11.3 3.3-0.9 6.5-1.4 9.5-1.4C411.2 370.8 416.1 373.3 417.3 377.2zM415.7 373.7c-1.2-1.1-2.7-1.9-4.6-2.5 -13.2-23.4-16.3-38.6-15.3-45.5 0.3 0.4 0.8 0.6 1.5 0.6 1 0 2.2-0.6 2.8-1.5C411.5 336.2 414.9 365.8 415.7 373.7z" class="b"/><path d="M442.6 304.2c1.8 1.3 3.6 2.4 5.4 3.4 33.2-5.7 37-36.3 37.1-49.5 -3.8-3.8-8.2-7.4-13.5-10.3 -3.4-1.9-6.9-3.3-10.6-4.4 0.2 1.6 0.8 7.5-1.7 15.5 -2.7 8.5-9.3 21.2-26.1 34.1 -0.1 0.8-0.3 1.6-0.5 2.4C435.4 298.4 438.7 301.4 442.6 304.2z" class="e"/><path d="M433.3 292.2c16.3-12.6 22.9-25.1 25.5-33.5 2.6-8.5 1.9-14.5 1.7-15.5 -4.3-1.2-8.7-1.8-13.1-1.8 -5.3 0-10.6 0.9-15.9 2.5 1.4 1.9 1.6 3.7 1.5 4.9 -0.1 1.3-0.6 2.6-1.4 3.7 0.9 1.1 1.6 2.8 2.1 5C436.6 270.9 435.5 280.5 433.3 292.2z" class="e"/><path d="M448.7 308c7.7 4.2 15.8 6.3 24.7 6.3 0.2 0 0.5 0 0.7 0 15.8-9.4 21.3-19.5 23.2-26.4 1.8-6.9 0.5-12 0.2-12.7 -2.9-5.5-6.8-11.2-11.9-16.5 -0.1 6.4-1.1 17.8-6.7 28.1C472.7 298.3 462.5 305.5 448.7 308z" class="e"/><path d="M422.8 257.1c-1.5 0-2.8-0.4-3.9-1.1 -0.2 3.3-0.2 7.5 0.6 12.3 0.4 2.2 0.9 4.6 1.7 7.1 0.2-6.3 1.1-12.7 3.3-18.5C423.9 257.1 423.4 257.1 422.8 257.1z" class="e"/><path d="M497.7 288c-1.8 6.9-7.3 17-22.6 26.3 9.5-0.3 20-2.9 32.2-7.9 0-1.3-1.2-11.4-6.1-23.3 -0.8-2-1.7-4-2.8-6.2C498.7 279.1 499 283.1 497.7 288z" class="e"/><path d="M426.8 252.3c0 0 0 0-0.1 0 -0.3 0.1-0.6 0.1-0.9 0.2 -1.8 0.2-3.5-0.2-4.7-0.7 -1-0.4-1.5-1.3-1.5-1.3 0 0 3.5 2.2 6.9 1.3 1.9-0.5 3.5-1.8 4.7-4 0 0-0.4 1.9-2 3.3 0.7 0.1 1.4 0.5 2 1.1 0.7-1 1.2-2.2 1.3-3.4 0.2-2.8-1.5-5.5-4.9-7.6 -3.1 2.7-7.1 4.3-10.9 4.3 -0.6 0-1.1 0-1.7-0.1 0.1 2.7 0.6 6.6 2.7 9.1 1.3 1.4 3 2.1 5 2.1 0.6 0 1.2-0.1 1.9-0.2 0-0.1 0.1-0.2 0.1-0.4C425.5 254.2 426.1 253 426.8 252.3z" fill="#662623"/><path d="M427.2 317l-0.1 0c-0.1 0-0.2 0-0.2 0 -0.1 3.3 1.7 12.5 19.9 29.2 4.9 4.5 15 14.7 19.8 19.7 1-0.8 2.3-1.6 3.8-2 -6.9-9.8-28.7-40.1-41.3-48.4C428.6 316.3 428 316.9 427.2 317z" class="a"/><path d="M425.3 256.2c-5.7 13.7-3.4 31.6-2.1 42.3 0.4 2.8 0.6 5 0.7 6.4 0.2 5.9 0.3 11.5 3.1 11.5h0c2.1-0.4 2.5-5.2 2.9-8.7 0.1-1.1 0.2-2.1 0.3-2.9 0.5-2.5 0.9-4.9 1.4-7.1 2.8-14.4 4.9-24.8 1.5-40.2 -0.8-3.6-2.5-6.1-4.1-6.1 -0.3 0-0.7 0.1-1 0.3 0 0 0 0-0.1 0C427 252.5 426.1 254 425.3 256.2z" class="a"/><path d="M433.2 293c0-0.3 0.1-0.5 0.1-0.8 2.2-11.7 3.3-21.3 0.4-34.7 -0.5-2.1-1.2-3.8-2.1-5 -0.1-0.1-0.2-0.3-0.3-0.4 -0.6-0.7-1.3-1.1-2-1.1 -0.3 0.3-0.7 0.6-1.2 0.8 0.3-0.2 0.6-0.3 1-0.3 1.7 0 3.3 2.5 4.1 6.1 3.4 15.3 1.4 25.7-1.5 40.2 -0.5 2.3-0.9 4.6-1.4 7.1 -0.1 0.7-0.2 1.7-0.3 2.9 -0.3 3.5-0.7 8.3-2.9 8.7h0c-2.8 0-3-5.6-3.1-11.5 0-1.4-0.3-3.6-0.7-6.4 -1.4-10.7-3.7-28.7 2.1-42.3 0.7-2.2 1.7-3.7 2.7-4.3 -0.4 0.2-0.8 0.3-1.2 0.4 -0.6 0.8-1.3 1.9-1.9 3.7 0 0.1-0.1 0.2-0.1 0.4 -0.1 0.2-0.1 0.4-0.2 0.6 -2.2 5.8-3.1 12.2-3.3 18.5 0 0.5 0 1.1 0 1.6 -0.1 8.1 0.9 15.9 1.6 21.6 0.4 2.8 0.6 5 0.7 6.4 0.2 5.9 0.3 11 2.9 11.8 -0.2 3.4 1.5 12.7 20.1 29.7 4.9 4.5 14.9 14.7 19.8 19.7 -0.6 0.6-1 1.1-1 1.6 -1.7 11.1-2.9 18.5 6.2 23 2.1 1.1 4.4 1.6 6.8 1.6 7.2 0 13.2-4.7 14.7-9 1.2-3.6 0.8-6.9-1.1-9.9 -4.6-7.1-16.3-9.9-17.9-10 -0.2 0-0.5 0-0.7 0 -0.7 0-1.4 0.1-2 0.3 -6.8-9.7-28.9-40.3-41.6-48.7 0.8-1.9 1-4.6 1.2-7.1 0.1-1.1 0.2-2.1 0.3-2.8 0.5-2.5 0.9-4.9 1.4-7.1 0.1-0.6 0.3-1.3 0.4-1.9 0-0.2 0.1-0.4 0.1-0.6C432.9 294.6 433 293.8 433.2 293zM472.9 363.9c0.2 0 0.5 0 0.7 0 1.5 0.2 13.1 2.9 17.6 9.8 1.9 2.9 2.2 6 1.1 9.5 -1.4 4.2-7.4 8.7-14.2 8.7 -2.3 0-4.5-0.5-6.5-1.5 -8.7-4.4-7.6-11.6-5.9-22.5C465.9 366.6 469.4 363.9 472.9 363.9zM470.4 363.8c-1.5 0.5-2.8 1.2-3.8 2 -4.8-5-14.9-15.2-19.8-19.7 -18.2-16.7-20-25.9-19.9-29.2 0.1 0 0.2 0 0.2 0l0.1 0c0.8-0.1 1.4-0.7 1.9-1.6C441.6 323.8 463.4 354 470.4 363.8z" class="b"/><path d="M465.6 367.9c-1.7 10.9-2.8 18.1 5.9 22.5 2 1 4.2 1.5 6.5 1.5 6.8 0 12.8-4.5 14.2-8.7 1.1-3.4 0.8-6.6-1.1-9.5 -4.5-6.9-16.1-9.6-17.6-9.8 -0.2 0-0.5 0-0.7 0C469.4 363.9 465.9 366.6 465.6 367.9z" class="a"/><path d="M431.3 247.8c-1.2 2.2-2.8 3.5-4.7 4 -3.4 0.9-6.9-1.3-6.9-1.3 0 0 0.5 0.9 1.5 1.3 1.2 0.5 2.9 0.9 4.7 0.7 0.3 0 0.6-0.1 0.9-0.2 0 0 0 0 0.1 0 0.5-0.1 0.9-0.2 1.2-0.4 0 0 0 0 0.1 0 0.5-0.2 0.9-0.5 1.2-0.8C430.9 249.7 431.3 247.8 431.3 247.8z" class="f"/><path d="M427.2 184.5c-2.2 0.6-4.2 1.2-6.1 1.8 -7.3 2.2-12.5 3.8-18.3 3.8 -2.7 0-5.4-0.3-8.2-1.1 -4.2 3.3-9.3 8.6-11.1 15.5 -1.6 6.5 0 13.2 4.7 20.1 8.3 12 17.1 18.6 26.7 20.2 0.6 0.1 1.2 0.1 1.8 0.1 4.8 0 9.9-2.7 12.9-6.8 6.2-8.5 9.8-17.4 10.7-26.5 -0.6-0.6-1.3-1.2-1.9-1.8 -5.4-5.3-8.4-10.4-8.1-13.8 0.1-1.1 0.5-2 1.3-2.5 0.6-0.4 1.3-0.6 2.2-0.6 1.3 0 2.9 0.5 4.7 1.5C436.2 189.8 431.7 186.5 427.2 184.5z" class="e"/><path d="M474.2 231.9c-0.4-0.8-0.6-1.5-0.8-2.3 -5.8-7.3-30.1-36-39.7-36 -0.7 0-1.4 0.2-1.9 0.5 -0.6 0.4-1 1.2-1.1 2.1 -0.1 1.5 0.4 5.9 8 13.4 12.5 12.3 31.5 24.2 35 23.9 0.6 0 1-0.3 1.2-0.7 0-0.1 0-0.1 0.1-0.2C474.7 232.5 474.4 232.2 474.2 231.9z" class="a"/><path d="M512.6 191.5c-3.3 1.1-11 6.5-19.7 13.8 -10.4 8.8-22.2 18.7-18.3 26.3 0.2 0.5 0.6 0.7 1.2 0.7 3.1 0 10.4-5.7 18.1-14.1 8.5-9.3 16.3-19.8 19-24.4C512.6 193 512.4 192.2 512.6 191.5z" class="a"/><path d="M538.7 217.1c-3.6-12.4-13-20.6-16.1-23.3 -1.2-1-1.3-1.2-1.2-1.4l0.1-0.2 0.2 0c0 0 0 0 0.1 0 10.7-0.8 17.3-2 17.6-2.7 0-0.5-0.2-1-0.7-1.5 -1.4-1.4-5-3-9.6-3 -1.9 0-3.7 0.2-5.4 0.7 -7.7 2.1-9.8 4.2-10.3 5.6 -0.3 0.7-0.1 1.5 0.4 2.2 14.9 20.7 20 33.5 22.2 39 0.6 1.6 1.2 2.9 1.4 3C540.5 234.3 540.5 223.3 538.7 217.1z" class="a"/><path d="M539.2 217c-3.6-12.5-13.2-20.8-16.3-23.5 -0.3-0.3-0.6-0.5-0.8-0.7 4.6-0.3 17.6-1.5 17.7-3.2 0-0.6-0.3-1.3-0.8-1.9 -1.5-1.6-5.1-3.2-10-3.2 -1.9 0-3.8 0.3-5.6 0.8 -6 1.7-9.5 3.6-10.5 5.6 -3.7 1-12.5 7.5-20.2 14 -9.2 7.7-19.4 16.3-19.2 23.7 -5.6-7-23.1-27.4-34.2-33.7 -0.3-0.1-0.5-0.3-0.8-0.4 -1.8-0.9-3.4-1.5-4.7-1.5 -0.8 0-1.6 0.2-2.2 0.6 -0.8 0.5-1.2 1.4-1.3 2.5 -0.3 3.4 2.7 8.4 8.1 13.8 0.6 0.6 1.2 1.2 1.9 1.8 0.2 0.1 0.3 0.3 0.5 0.4 11.9 10.9 28.7 21.8 32.9 21.8 0.1 0 0.1 0 0.2 0 0.8-0.1 1.3-0.4 1.6-1 0-0.1 0.1-0.2 0.1-0.3 0.1 0 0.3 0 0.4 0 3.7 0 12-7.2 18.5-14.3 7.5-8.1 15.8-19 19-24.3 14.7 20.5 19.7 33.2 21.9 38.6 1 2.5 1.3 3.4 1.9 3.4 0.1 0 0.1 0 0.2 0C541.1 234.7 541.1 223.5 539.2 217zM475 232.8c-0.2 0.4-0.6 0.7-1.2 0.7 -3.5 0.3-22.5-11.7-35-23.9 -7.6-7.4-8.1-11.8-8-13.4 0.1-1 0.5-1.7 1.1-2.1 0.5-0.4 1.1-0.5 1.9-0.5 9.6 0 33.9 28.6 39.7 36 0.1 0.8 0.4 1.6 0.8 2.3 0.2 0.4 0.5 0.6 0.8 0.8C475 232.7 475 232.8 475 232.8zM494 218.2c-7.8 8.5-15 14.1-18.1 14.1 -0.6 0-1-0.2-1.2-0.7 -4-7.7 7.8-17.6 18.3-26.3 8.7-7.3 16.4-12.7 19.7-13.8 -0.2 0.8-0.1 1.5 0.4 2.3C510.3 198.4 502.6 208.9 494 218.2zM537.2 235.6c-0.3-0.1-0.8-1.5-1.4-3 -2.2-5.5-7.3-18.3-22.2-39 -0.5-0.7-0.6-1.5-0.4-2.2 0.5-1.4 2.7-3.5 10.3-5.6 1.8-0.5 3.6-0.7 5.4-0.7 4.6 0 8.2 1.6 9.6 3 0.5 0.5 0.7 1 0.7 1.5 -0.2 0.7-6.9 1.9-17.6 2.7 0 0-0.1 0-0.1 0l-0.2 0 -0.1 0.2c-0.1 0.3 0.1 0.4 1.2 1.4 3.1 2.7 12.6 10.9 16.1 23.3C540.5 223.3 540.5 234.3 537.2 235.6z" class="b"/><path d="M372.7 114.6c3-3 6.2-4.7 8.7-3.9 2.6 0.9 3.8 9.7 0.5 18.1 5.2-11.3 5.7-25.1 2.8-25.8 0 0 0 0 0 0 -0.3-0.1-0.6-0.1-0.9-0.1 -2-0.1-4.9 0.8-8.5 3.7 -5.3 4.9-9.8 13.6-12 20.8 1.1-2.2 2.4-4.4 3.7-6.4C368.9 118.3 370.8 116.2 372.7 114.6z" class="e"/><path d="M371.9 141.1c-0.2 0-0.4 0-0.6 0 0.2 0.1 0.3 0.3 0.5 0.4 1.1-0.7 2-1.5 2.9-2.4C373.9 139.8 372.9 140.5 371.9 141.1z" class="e"/><radialGradient id="SVGID_1_" cx="373.8" cy="118.4" r="22.5" gradientUnits="userSpaceOnUse"><stop offset="0.129" class="g"/><stop offset="0.2424" class="h"/><stop offset="0.3898" class="i"/><stop offset="0.5559" class="j"/><stop offset="0.7345" class="k"/><stop offset="0.8387" class="l"/><stop offset="1" class="m"/></radialGradient><path d="M371.9 141.1c-0.2 0-0.4 0-0.6 0 0.2 0.1 0.3 0.3 0.5 0.4 1.1-0.7 2-1.5 2.9-2.4C373.9 139.8 372.9 140.5 371.9 141.1z" fill="url(#SVGID_1_)"/><path d="M362.4 130.6c-0.7 1.8-1.1 3.5-1.3 5 0.2 0.1 0.5 0.1 0.7 0.2C361.8 134.4 362 132.7 362.4 130.6z" class="e"/><radialGradient id="SVGID_2_" cx="373.8" cy="118.4" r="22.5" gradientUnits="userSpaceOnUse"><stop offset="0.129" class="g"/><stop offset="0.2424" class="h"/><stop offset="0.3898" class="i"/><stop offset="0.5559" class="j"/><stop offset="0.7345" class="k"/><stop offset="0.8387" class="l"/><stop offset="1" class="m"/></radialGradient><path d="M362.4 130.6c-0.7 1.8-1.1 3.5-1.3 5 0.2 0.1 0.5 0.1 0.7 0.2C361.8 134.4 362 132.7 362.4 130.6z" fill="url(#SVGID_2_)"/><path d="M362.4 130.6c-0.4 2-0.6 3.8-0.5 5.2 0 0 0 0 0 0 -0.2-2.9 1.3-7.3 3.6-11.6C364.2 126.4 363.2 128.6 362.4 130.6z" class="e"/><linearGradient id="SVGID_3_" gradientUnits="userSpaceOnUse" x1="381" y1="95.1" x2="366.4" y2="124.4"><stop offset="0" class="g"/><stop offset="0.4812" stop-color="#C69C92"/><stop offset="0.8366" stop-color="#9F5848"/><stop offset="1" stop-color="#903E2B"/></linearGradient><path d="M362.4 130.6c-0.4 2-0.6 3.8-0.5 5.2 0 0 0 0 0 0 -0.2-2.9 1.3-7.3 3.6-11.6C364.2 126.4 363.2 128.6 362.4 130.6z" fill="url(#SVGID_3_)"/><radialGradient id="SVGID_4_" cx="373.8" cy="118.4" r="22.5" gradientUnits="userSpaceOnUse"><stop offset="0.129" class="g"/><stop offset="0.2424" class="h"/><stop offset="0.3898" class="i"/><stop offset="0.5559" class="j"/><stop offset="0.7345" class="k"/><stop offset="0.8387" class="l"/><stop offset="1" class="m"/></radialGradient><path d="M362.4 130.6c-0.4 2-0.6 3.8-0.5 5.2 0 0 0 0 0 0 -0.2-2.9 1.3-7.3 3.6-11.6C364.2 126.4 363.2 128.6 362.4 130.6z" fill="url(#SVGID_4_)"/><path d="M374.7 139.1c6.7-6.5 8.4-16.2 7.7-21.9 -0.3-2.7-1.2-4.6-2.2-5 -0.4-0.1-0.8-0.2-1.3-0.2 -3.2 0-7.5 3.4-11.5 9.2 -0.7 1-1.3 2-1.9 3 -2.3 4.3-3.8 8.6-3.6 11.6 1.3 0.4 2.9 1.1 4.8 2.1 2 1.1 3.5 2.2 4.6 3.2 0.2 0 0.4 0 0.6 0C372.9 140.5 373.9 139.8 374.7 139.1zM368.6 138c-0.3-0.3-0.6-0.6-0.9-1 -0.2-0.3-0.3-0.5-0.4-0.8 -1-2.4-0.5-5.9 1.3-8.7 2.4-3.8 6.3-5.4 8.7-3.4 0.6 0.5 1 1.1 1.3 1.8 1 2.4 0.5 5.9-1.3 8.7C375 138.4 371 140 368.6 138z"/><radialGradient id="SVGID_5_" cx="373.8" cy="118.4" r="22.5" gradientUnits="userSpaceOnUse"><stop offset="0.129" class="g"/><stop offset="0.2424" class="h"/><stop offset="0.3898" class="i"/><stop offset="0.5559" class="j"/><stop offset="0.7345" class="k"/><stop offset="0.8387" class="l"/><stop offset="1" class="m"/></radialGradient><path d="M374.7 139.1c6.7-6.5 8.4-16.2 7.7-21.9 -0.3-2.7-1.2-4.6-2.2-5 -0.4-0.1-0.8-0.2-1.3-0.2 -3.2 0-7.5 3.4-11.5 9.2 -0.7 1-1.3 2-1.9 3 -2.3 4.3-3.8 8.6-3.6 11.6 1.3 0.4 2.9 1.1 4.8 2.1 2 1.1 3.5 2.2 4.6 3.2 0.2 0 0.4 0 0.6 0C372.9 140.5 373.9 139.8 374.7 139.1zM368.6 138c-0.3-0.3-0.6-0.6-0.9-1 -0.2-0.3-0.3-0.5-0.4-0.8 -1-2.4-0.5-5.9 1.3-8.7 2.4-3.8 6.3-5.4 8.7-3.4 0.6 0.5 1 1.1 1.3 1.8 1 2.4 0.5 5.9-1.3 8.7C375 138.4 371 140 368.6 138z" fill="url(#SVGID_5_)"/><path d="M378.2 126.1c-0.3-0.7-0.7-1.2-1.2-1.6 -2.2-1.8-5.9-0.3-8.1 3.3 -1.7 2.7-2.2 6-1.2 8.2 0.3 0.7 0.7 1.2 1.2 1.6 2.2 1.8 5.9 0.3 8.1-3.3C378.7 131.6 379.2 128.3 378.2 126.1zM375.2 133.7c-1.5 2.4-3.9 3.4-5.3 2.2 -1.2-1-1.4-3.1-0.6-5.1 -0.1-0.1-0.2-0.3-0.2-0.5 0-0.5 0.4-0.9 0.9-0.9 0 0 0 0 0 0 0.3-0.5 0.7-1 1.1-1.3 -0.1-0.2-0.2-0.5-0.2-0.7 0-1 0.8-1.9 1.9-1.9 0.9 0 1.6 0.6 1.8 1.4 0.2 0.1 0.5 0.2 0.7 0.4C376.7 128.4 376.7 131.3 375.2 133.7z"/><radialGradient id="SVGID_6_" cx="373.8" cy="118.4" r="22.5" gradientUnits="userSpaceOnUse"><stop offset="0.129" class="g"/><stop offset="0.2424" class="h"/><stop offset="0.3898" class="i"/><stop offset="0.5559" class="j"/><stop offset="0.7345" class="k"/><stop offset="0.8387" class="l"/><stop offset="1" class="m"/></radialGradient><path d="M378.2 126.1c-0.3-0.7-0.7-1.2-1.2-1.6 -2.2-1.8-5.9-0.3-8.1 3.3 -1.7 2.7-2.2 6-1.2 8.2 0.3 0.7 0.7 1.2 1.2 1.6 2.2 1.8 5.9 0.3 8.1-3.3C378.7 131.6 379.2 128.3 378.2 126.1zM375.2 133.7c-1.5 2.4-3.9 3.4-5.3 2.2 -1.2-1-1.4-3.1-0.6-5.1 -0.1-0.1-0.2-0.3-0.2-0.5 0-0.5 0.4-0.9 0.9-0.9 0 0 0 0 0 0 0.3-0.5 0.7-1 1.1-1.3 -0.1-0.2-0.2-0.5-0.2-0.7 0-1 0.8-1.9 1.9-1.9 0.9 0 1.6 0.6 1.8 1.4 0.2 0.1 0.5 0.2 0.7 0.4C376.7 128.4 376.7 131.3 375.2 133.7z" fill="url(#SVGID_6_)"/><linearGradient id="SVGID_7_" gradientUnits="userSpaceOnUse" x1="368.7" y1="137.9" x2="377.3" y2="124"><stop offset="0" class="n"/><stop offset="0.4032" class="o"/><stop offset="1" class="p"/></linearGradient><path d="M378.2 126.1c-0.3-0.7-0.7-1.2-1.2-1.6 -2.2-1.8-5.9-0.3-8.1 3.3 -1.7 2.7-2.2 6-1.2 8.2 0.3 0.7 0.7 1.2 1.2 1.6 2.2 1.8 5.9 0.3 8.1-3.3C378.7 131.6 379.2 128.3 378.2 126.1zM375.2 133.7c-1.5 2.4-3.9 3.4-5.3 2.2 -1.2-1-1.4-3.1-0.6-5.1 -0.1-0.1-0.2-0.3-0.2-0.5 0-0.5 0.4-0.9 0.9-0.9 0 0 0 0 0 0 0.3-0.5 0.7-1 1.1-1.3 -0.1-0.2-0.2-0.5-0.2-0.7 0-1 0.8-1.9 1.9-1.9 0.9 0 1.6 0.6 1.8 1.4 0.2 0.1 0.5 0.2 0.7 0.4C376.7 128.4 376.7 131.3 375.2 133.7z" fill="url(#SVGID_7_)"/><path d="M374.6 126.9c0 0.1 0.1 0.3 0.1 0.4 0 1-0.8 1.9-1.9 1.9 -0.8 0-1.4-0.5-1.7-1.1 -0.4 0.4-0.8 0.8-1.1 1.3 0.5 0 0.8 0.4 0.8 0.9 0 0.5-0.4 0.9-0.9 0.9 -0.3 0-0.5-0.1-0.7-0.3 -0.8 2-0.6 4.1 0.6 5.1 1.4 1.2 3.8 0.2 5.3-2.2 1.5-2.4 1.5-5.3 0.1-6.4C375.1 127.1 374.8 127 374.6 126.9z"/><path d="M374.6 126.9c-0.2-0.8-0.9-1.4-1.8-1.4 -1 0-1.9 0.8-1.9 1.9 0 0.3 0.1 0.5 0.2 0.7C372.2 127 373.6 126.5 374.6 126.9z"/><radialGradient id="SVGID_8_" cx="373.8" cy="118.4" r="22.5" gradientUnits="userSpaceOnUse"><stop offset="0.129" class="g"/><stop offset="0.2424" class="h"/><stop offset="0.3898" class="i"/><stop offset="0.5559" class="j"/><stop offset="0.7345" class="k"/><stop offset="0.8387" class="l"/><stop offset="1" class="m"/></radialGradient><path d="M374.6 126.9c-0.2-0.8-0.9-1.4-1.8-1.4 -1 0-1.9 0.8-1.9 1.9 0 0.3 0.1 0.5 0.2 0.7C372.2 127 373.6 126.5 374.6 126.9z" fill="url(#SVGID_8_)"/><linearGradient id="SVGID_9_" gradientUnits="userSpaceOnUse" x1="366.6" y1="136.7" x2="375.3" y2="122.8"><stop offset="0" class="n"/><stop offset="0.4032" class="o"/><stop offset="1" class="p"/></linearGradient><path d="M374.6 126.9c-0.2-0.8-0.9-1.4-1.8-1.4 -1 0-1.9 0.8-1.9 1.9 0 0.3 0.1 0.5 0.2 0.7C372.2 127 373.6 126.5 374.6 126.9z" fill="url(#SVGID_9_)"/><radialGradient id="SVGID_10_" cx="372.8" cy="127.3" r="1.9" gradientUnits="userSpaceOnUse"><stop offset="0" class="g"/><stop offset="0.5806" class="q"/><stop offset="0.6405" class="r"/><stop offset="0.6974" class="j"/><stop offset="0.753" class="s"/><stop offset="0.8079" class="t"/><stop offset="0.8622" class="u"/><stop offset="0.9162" class="v"/><stop offset="0.9688" class="w"/><stop offset="1" class="p"/></radialGradient><path d="M374.6 126.9c-0.2-0.8-0.9-1.4-1.8-1.4 -1 0-1.9 0.8-1.9 1.9 0 0.3 0.1 0.5 0.2 0.7C372.2 127 373.6 126.5 374.6 126.9z" fill="url(#SVGID_10_)"/><path d="M372.8 129.2c1 0 1.9-0.8 1.9-1.9 0-0.1 0-0.3-0.1-0.4 -1.1-0.4-2.4 0.1-3.5 1.2C371.4 128.7 372 129.2 372.8 129.2z"/><radialGradient id="SVGID_11_" cx="372.8" cy="127.3" r="1.9" gradientUnits="userSpaceOnUse"><stop offset="0" class="g"/><stop offset="0.5806" class="q"/><stop offset="0.6405" class="r"/><stop offset="0.6974" class="j"/><stop offset="0.753" class="s"/><stop offset="0.8079" class="t"/><stop offset="0.8622" class="u"/><stop offset="0.9162" class="v"/><stop offset="0.9688" class="w"/><stop offset="1" class="p"/></radialGradient><path d="M372.8 129.2c1 0 1.9-0.8 1.9-1.9 0-0.1 0-0.3-0.1-0.4 -1.1-0.4-2.4 0.1-3.5 1.2C371.4 128.7 372 129.2 372.8 129.2z" fill="url(#SVGID_11_)"/><path d="M370 129.4c0 0 0 0 0 0 -0.5 0-0.9 0.4-0.9 0.9 0 0.2 0.1 0.4 0.2 0.5 0.2-0.5 0.4-0.9 0.7-1.4C370 129.4 370 129.4 370 129.4z"/><radialGradient id="SVGID_12_" cx="373.8" cy="118.4" r="22.5" gradientUnits="userSpaceOnUse"><stop offset="0.129" class="g"/><stop offset="0.2424" class="h"/><stop offset="0.3898" class="i"/><stop offset="0.5559" class="j"/><stop offset="0.7345" class="k"/><stop offset="0.8387" class="l"/><stop offset="1" class="m"/></radialGradient><path d="M370 129.4c0 0 0 0 0 0 -0.5 0-0.9 0.4-0.9 0.9 0 0.2 0.1 0.4 0.2 0.5 0.2-0.5 0.4-0.9 0.7-1.4C370 129.4 370 129.4 370 129.4z" fill="url(#SVGID_12_)"/><linearGradient id="SVGID_13_" gradientUnits="userSpaceOnUse" x1="365.7" y1="136.1" x2="374.3" y2="122.2"><stop offset="0" class="n"/><stop offset="0.4032" class="o"/><stop offset="1" class="p"/></linearGradient><path d="M370 129.4c0 0 0 0 0 0 -0.5 0-0.9 0.4-0.9 0.9 0 0.2 0.1 0.4 0.2 0.5 0.2-0.5 0.4-0.9 0.7-1.4C370 129.4 370 129.4 370 129.4z" fill="url(#SVGID_13_)"/><radialGradient id="SVGID_14_" cx="370" cy="130.2" r="0.9" gradientUnits="userSpaceOnUse"><stop offset="0" class="g"/><stop offset="0.5806" class="q"/><stop offset="0.6405" class="r"/><stop offset="0.6974" class="j"/><stop offset="0.753" class="s"/><stop offset="0.8079" class="t"/><stop offset="0.8622" class="u"/><stop offset="0.9162" class="v"/><stop offset="0.9688" class="w"/><stop offset="1" class="p"/></radialGradient><path d="M370 129.4c0 0 0 0 0 0 -0.5 0-0.9 0.4-0.9 0.9 0 0.2 0.1 0.4 0.2 0.5 0.2-0.5 0.4-0.9 0.7-1.4C370 129.4 370 129.4 370 129.4z" fill="url(#SVGID_14_)"/><path d="M370.8 130.2c0-0.5-0.4-0.8-0.8-0.9 0 0 0 0 0 0.1 -0.3 0.4-0.5 0.9-0.7 1.4 0.2 0.2 0.4 0.3 0.7 0.3C370.4 131.1 370.8 130.7 370.8 130.2z"/><radialGradient id="SVGID_15_" cx="370" cy="130.2" r="0.9" gradientUnits="userSpaceOnUse"><stop offset="0" class="g"/><stop offset="0.5806" class="q"/><stop offset="0.6405" class="r"/><stop offset="0.6974" class="j"/><stop offset="0.753" class="s"/><stop offset="0.8079" class="t"/><stop offset="0.8622" class="u"/><stop offset="0.9162" class="v"/><stop offset="0.9688" class="w"/><stop offset="1" class="p"/></radialGradient><path d="M370.8 130.2c0-0.5-0.4-0.8-0.8-0.9 0 0 0 0 0 0.1 -0.3 0.4-0.5 0.9-0.7 1.4 0.2 0.2 0.4 0.3 0.7 0.3C370.4 131.1 370.8 130.7 370.8 130.2z" fill="url(#SVGID_15_)"/><path d="M377.4 134.6c1.8-2.9 2.3-6.3 1.3-8.7 -0.3-0.7-0.8-1.4-1.3-1.8 -2.4-2-6.3-0.4-8.7 3.4 -1.8 2.9-2.3 6.3-1.3 8.7 0.1 0.3 0.3 0.6 0.4 0.8 0.2 0.4 0.5 0.7 0.9 1C371 140 375 138.4 377.4 134.6zM368.9 137.6c-0.5-0.4-0.9-1-1.2-1.6 -0.9-2.2-0.4-5.5 1.2-8.2 2.3-3.6 5.9-5.1 8.1-3.3 0.5 0.4 0.9 1 1.2 1.6 0.9 2.2 0.4 5.5-1.2 8.2C374.7 137.9 371.1 139.4 368.9 137.6z" class="x"/><path d="M362.4 130.6c0.8-2 1.8-4.2 3.1-6.4 0.6-1 1.2-2 1.9-3 4-5.8 8.3-9.2 11.5-9.2 0.4 0 0.9 0.1 1.3 0.2 1 0.3 1.9 2.3 2.2 5 0.7 5.7-1.1 15.3-7.7 21.9 -0.9 0.9-1.9 1.7-2.9 2.4 0.1 0.1 0.3 0.2 0.4 0.4 3.3-2.3 5.7-5.3 7.4-8.5 0.9-1.5 1.7-3 2.3-4.6 3.3-8.5 2.1-17.3-0.5-18.1 -2.5-0.8-5.7 0.9-8.7 3.9 -1.9 1.6-3.8 3.7-5.6 6.4 -1.4 2-2.7 4.2-3.7 6.4 -1.4 2.9-2.4 5.7-2.6 8.1 0.2 0 0.3 0.1 0.5 0.1C361.3 134.1 361.7 132.5 362.4 130.6z"/><path d="M374.1 144.1c0 0-0.1-0.1-0.1-0.1 0 0 0.1 0.1 0.1 0.1C374.1 144.1 374.1 144.1 374.1 144.1z" class="e"/><linearGradient id="SVGID_16_" gradientUnits="userSpaceOnUse" x1="358.2" y1="135.3" x2="374.1" y2="144.1"><stop offset="0" stop-color="#9B4631"/><stop offset="1" class="y"/></linearGradient><path d="M374.1 144.1c0 0-0.1-0.1-0.1-0.1 0 0 0.1 0.1 0.1 0.1C374.1 144.1 374.1 144.1 374.1 144.1z" fill="url(#SVGID_16_)"/><path d="M373.9 144.1c-0.5-0.6-1.3-1.3-2.2-2 -0.2 0.2-0.5 0.3-0.7 0.5l-0.1 0 -0.3 0c-3.2-0.1-8.4-0.4-9.7-3.9 -0.3-0.7-0.4-1.6-0.3-2.6 -1-0.4-1.8-0.7-2.4-0.9C361.2 144.9 372.5 144.3 373.9 144.1z" class="e"/><path d="M370.7 142.1l0.2 0c0.2-0.1 0.3-0.2 0.5-0.3 -0.4-0.3-0.8-0.5-1.2-0.8 -3-0.2-6.9-0.8-7.9-3.7 -0.1-0.2-0.1-0.4-0.2-0.6 -0.3-0.1-0.6-0.3-0.9-0.4 0 0.9 0.1 1.6 0.3 2.2C362.6 141.8 367.6 142 370.7 142.1z" class="e"/><radialGradient id="SVGID_17_" cx="373.8" cy="118.4" r="22.5" gradientUnits="userSpaceOnUse"><stop offset="0.129" class="g"/><stop offset="0.2424" class="h"/><stop offset="0.3898" class="i"/><stop offset="0.5559" class="j"/><stop offset="0.7345" class="k"/><stop offset="0.8387" class="l"/><stop offset="1" class="m"/></radialGradient><path d="M370.7 142.1l0.2 0c0.2-0.1 0.3-0.2 0.5-0.3 -0.4-0.3-0.8-0.5-1.2-0.8 -3-0.2-6.9-0.8-7.9-3.7 -0.1-0.2-0.1-0.4-0.2-0.6 -0.3-0.1-0.6-0.3-0.9-0.4 0 0.9 0.1 1.6 0.3 2.2C362.6 141.8 367.6 142 370.7 142.1z" fill="url(#SVGID_17_)"/><path d="M370.7 142.1l0.2 0c0.2-0.1 0.3-0.2 0.5-0.3 -0.4-0.3-0.8-0.5-1.2-0.8 -3-0.2-6.9-0.8-7.9-3.7 -0.1-0.2-0.1-0.4-0.2-0.6 -0.3-0.1-0.6-0.3-0.9-0.4 0 0.9 0.1 1.6 0.3 2.2C362.6 141.8 367.6 142 370.7 142.1z" class="z"/><path d="M370.1 141c-1.4-0.9-2.9-1.8-4.5-2.6 -1.3-0.6-2.5-1.2-3.6-1.7 0 0.2 0.1 0.4 0.2 0.6C363.2 140.2 367.1 140.8 370.1 141z"/><radialGradient id="SVGID_18_" cx="373.8" cy="118.4" r="22.5" gradientUnits="userSpaceOnUse"><stop offset="0.129" class="g"/><stop offset="0.2424" class="h"/><stop offset="0.3898" class="i"/><stop offset="0.5559" class="j"/><stop offset="0.7345" class="k"/><stop offset="0.8387" class="l"/><stop offset="1" class="m"/></radialGradient><path d="M370.1 141c-1.4-0.9-2.9-1.8-4.5-2.6 -1.3-0.6-2.5-1.2-3.6-1.7 0 0.2 0.1 0.4 0.2 0.6C363.2 140.2 367.1 140.8 370.1 141z" fill="url(#SVGID_18_)"/><path d="M370.1 141c-1.4-0.9-2.9-1.8-4.5-2.6 -1.3-0.6-2.5-1.2-3.6-1.7 0 0.2 0.1 0.4 0.2 0.6C363.2 140.2 367.1 140.8 370.1 141z" class="z"/><path d="M370.8 142.1l-0.2 0c-3-0.1-8.1-0.3-9.3-3.6 -0.2-0.6-0.3-1.4-0.3-2.2 -0.2-0.1-0.3-0.1-0.5-0.2 0 1 0 1.9 0.3 2.6 1.3 3.6 6.6 3.8 9.7 3.9l0.3 0 0.1 0c0.2-0.2 0.5-0.3 0.7-0.5 -0.1-0.1-0.3-0.2-0.4-0.3C371.1 141.9 371 142 370.8 142.1z"/><path d="M361.4 138.6c-0.2-0.6-0.3-1.4-0.3-2.2 -0.2-0.1-0.3-0.1-0.5-0.2 0 1 0 1.9 0.3 2.6 1.3 3.6 6.6 3.8 9.7 3.9l0.3 0 0.1 0c0.2-0.2 0.5-0.3 0.7-0.5 -0.1-0.1-0.3-0.2-0.4-0.3 -0.2 0.1-0.3 0.2-0.5 0.3l-0.2 0" class="z"/><path d="M361.1 136.3c0.3 0.1 0.6 0.2 0.9 0.4 1.1 0.5 2.4 1 3.6 1.7 1.5 0.8 3.1 1.7 4.5 2.6 0.4 0.3 0.8 0.5 1.2 0.8 0.1 0.1 0.3 0.2 0.4 0.3 0.9 0.7 1.7 1.4 2.2 2 0.1 0.1 0.2 0.2 0.3 0.3 0 0 0-0.1-0.2-0.3 0 0 0-0.1-0.1-0.1 -0.3-0.4-0.8-1.2-1.8-2.2 -0.1-0.1-0.2-0.2-0.4-0.4 -0.1-0.1-0.3-0.3-0.5-0.4 -1.1-1-2.6-2-4.6-3.2 -1.9-1-3.5-1.6-4.8-2.1 0 0 0 0 0 0 -0.3-0.1-0.5-0.2-0.7-0.2 -0.2-0.1-0.3-0.1-0.5-0.1 -2.1-0.6-3.1-0.4-3.1-0.4 0 0 0.2 0.1 0.6 0.2 0.5 0.2 1.4 0.5 2.4 0.9C360.8 136.2 360.9 136.3 361.1 136.3z" class="f"/><path d="M501.7 282.9c-1-2.5-2.3-5.2-3.8-8 0 0 0-0.1 0-0.1l0 0c-3-5.6-7-11.6-12.3-17 0 0 0-0.1 0-0.1h-0.1c-3.8-3.9-8.3-7.5-13.6-10.4 -7.6-4.2-16.1-6.4-24.5-6.4 -5.4 0-10.8 0.9-16.2 2.6 -0.7-0.9-1.8-1.8-3.2-2.7 0.8-0.7 1.4-1.5 2-2.3 6.2-8.4 9.8-17.3 10.7-26.4 -0.2-0.1-0.3-0.3-0.5-0.4 -0.9 9.1-4.4 18-10.7 26.5 -3 4-8.1 6.8-12.9 6.8 -0.6 0-1.2-0.1-1.8-0.1 -9.6-1.6-18.3-8.2-26.7-20.2 -4.8-6.9-6.4-13.6-4.7-20.1 1.7-6.9 6.9-12.2 11.1-15.5 2.9 0.7 5.6 1.1 8.2 1.1 5.8 0 11.1-1.6 18.3-3.8 1.9-0.6 3.9-1.2 6.1-1.8 4.5 2 9 5.2 11.3 10 0.3 0.1 0.5 0.3 0.8 0.4 -2.1-5-6.5-8.5-11.2-10.7 2.4-0.7 5.1-1.4 8-2.1 14.5-3.5 24.2-9.5 28.8-17.7 3.9-7.1 2.7-13.6 2.3-15.2l0 0c0 0 0-0.1 0-0.1 0-0.1-0.1-0.2-0.1-0.2 -1.6-25.1-11.4-37.3-20.8-46 -4.8-4.4-11.4-7.8-19-9.9 -0.2 0-0.4-0.1-0.5-0.1 -1.1-0.3-2.2-0.6-3.3-0.8 -0.2 0-0.3-0.1-0.5-0.1 -4-0.8-8.1-1.2-12.3-1.2 -10.9 0-21.1 2.8-29.6 8.2 -0.1 0.1-0.3 0.2-0.4 0.3 -0.9 0.6-1.7 1.1-2.6 1.8 0 0-0.1 0-0.1 0.1 -0.1 0.1-0.3 0.2-0.4 0.3 -14.7 11.1-20.9 26.8-21.4 31.2 -5.8 3.8-8.8 13.3-7.1 22.6 3.8 20.7 27.7 28.1 40.5 32.2 0.7 0.2 1.4 0.4 2.1 0.6 0.9 0.3 1.7 0.5 2.5 0.7 -2.5 2.1-5.4 4.8-7.6 8.2 -0.2 0.3-0.4 0.7-0.6 1 -1.2 1.9-2.1 4.1-2.7 6.4 -0.9 3.6-0.8 7.4 0.2 11.1 0.1 0.2 0.1 0.4 0.2 0.5 0.9 2.9 2.4 5.9 4.4 8.9 8.3 12 17.1 18.6 26.7 20.3 0.1 2.5 0.5 6 2.2 8.6 0.1 0.2 0.2 0.3 0.3 0.4 0.1 0.2 0.2 0.3 0.4 0.5 0.3 0.3 0.6 0.6 1 0.9 -0.2 3.3-0.2 7.7 0.6 12.7 0.1 0.6 0.2 1.2 0.3 1.8 0.1 0.4 0.2 0.8 0.3 1.2 0.4 1.8 0.9 3.7 1.6 5.6 0-0.5 0-1.1 0-1.6 -0.8-2.5-1.3-4.9-1.7-7.1 -0.8-4.8-0.8-9-0.6-12.3 1.1 0.7 2.4 1.1 3.9 1.1 0.5 0 1.1-0.1 1.7-0.1 0.1-0.2 0.1-0.4 0.2-0.6 -0.7 0.1-1.3 0.2-1.9 0.2 -2.1 0-3.8-0.7-5-2.1 -2.2-2.4-2.7-6.4-2.7-9.1 0.5 0.1 1.1 0.1 1.7 0.1 3.8 0 7.8-1.7 10.9-4.3 3.4 2.1 5.1 4.8 4.9 7.6 -0.1 1.2-0.5 2.3-1.3 3.4 0.1 0.1 0.2 0.3 0.3 0.4 0.8-1.1 1.3-2.4 1.4-3.7 0.1-1.2-0.1-3-1.5-4.9 5.3-1.7 10.6-2.5 15.9-2.5 4.4 0 8.8 0.6 13.1 1.8 0.2 1.1 1 7-1.7 15.5 -2.6 8.4-9.2 20.8-25.5 33.5 0 0.3-0.1 0.5-0.1 0.8 16.8-12.8 23.5-25.6 26.1-34.1 2.5-8.1 2-13.9 1.8-15.5 3.6 1.1 7.2 2.5 10.6 4.4 5.2 2.9 9.7 6.4 13.5 10.3 -0.1 13.3-3.9 43.8-37.1 49.5 -1.8-1-3.6-2.2-5.4-3.4 -3.9-2.8-7.2-5.8-9.9-8.8 0 0.2-0.1 0.4-0.1 0.6 2.7 2.9 5.9 5.8 9.7 8.6 9.6 6.9 19.8 10.2 31.1 10.2 10 0 21.2-2.6 34.2-8.1l0.1 0 0-0.1C507.9 305.9 506.8 295.5 501.7 282.9zM359.2 132.6c0 0-0.1 0-0.5 0 -0.5-0.1-1.2-0.1-2.3 0M386.2 103.7c-0.5-0.5-1.1-0.8-1.9-1 2.9 0.7 2.4 14.5-2.8 25.8 -0.6 1.6-1.4 3.1-2.3 4.6 -1.7 3.2-4.1 6.2-7.4 8.5 1 1 1.5 1.7 1.8 2.2 0 0 0.1 0.1 0.1 0.1 0 0 0 0 0 0 0.1 0.2 0.2 0.3 0.2 0.3 -0.1-0.1-0.2-0.2-0.3-0.3 -1.4 0.1-12.3 1.1-15.3-8.6 0.3 0.1 0.2 0-0.4-0.3 0 0 0.8-0.1 2.9 0.5 0.3-2.4 1.3-5.2 2.6-8.1M374.9 106.3c-1.1 0.9-2.3 2-3.6 3.3M473.4 314.3c-8.8 0-16.9-2.1-24.7-6.3 13.8-2.5 24-9.7 30.2-21.2 5.6-10.3 6.6-21.8 6.7-28.1 5.1 5.3 9 11 11.9 16.5 0.2 0.8 1.6 5.8-0.2 12.7 -1.8 6.9-7.4 17.1-23.2 26.4C473.8 314.3 473.6 314.3 473.4 314.3zM475.1 314.3c15.4-9.3 20.8-19.4 22.6-26.3 1.3-4.9 1-8.8 0.7-11.1 1.1 2.1 2 4.2 2.8 6.2 4.9 11.8 6.1 21.9 6.1 23.3C495.1 311.4 484.5 314 475.1 314.3z" class="e"/><path d="M415.2 108.1c-6.6 2.9-8.7 9.9-8.4 17.1 0 0.1 0 0.2 0 0.3 -0.2 9.1 3.6 18.7 7.5 21.4 2.1 1.5 4.5 2.4 7 2.6 0.2-0.1 0.4-0.3 0.6-0.5 -1.1-0.1-2.2-0.3-3.3-0.6 -1.4-0.4-2.8-1.1-4-2 -2.3-1.6-4.6-5.9-6-11 -1-3.8-1.5-8-1.2-12 0.4-4.6 2.3-10.7 8.4-13.5 1.1-0.5 2.4-0.7 3.7-0.7 8.5 0 19.5 9 22.6 23.7 0 0.1 0 0.1 0.1 0.2 0.4 1.9-0.5 4.5-2.7 7.2 -1.2 1.6-2.9 3.1-4.8 4.5 0.3 0 0.6 0 0.9 0 1.7-1.3 3.2-2.7 4.3-4.2 2.3-2.8 3.3-5.6 2.8-7.7 -0.7-3.6-2-6.8-3.5-9.7 -1-2.1-2.2-4-3.5-5.7C429.5 109.3 420.6 105.7 415.2 108.1z"/><path d="M408.6 135.4c1.4 5.2 3.7 9.5 6 11 1.3 0.9 2.6 1.5 4 2 -1.5-0.6-3-1.5-4.4-2.7C412.1 144 410 140.1 408.6 135.4z" class="e"/><radialGradient id="SVGID_19_" cx="416.6" cy="123.2" r="28.4" gradientUnits="userSpaceOnUse"><stop offset="0.129" class="g"/><stop offset="0.2424" class="h"/><stop offset="0.3898" class="i"/><stop offset="0.5559" class="j"/><stop offset="0.7345" class="k"/><stop offset="0.8387" class="l"/><stop offset="1" class="m"/></radialGradient><path d="M408.6 135.4c1.4 5.2 3.7 9.5 6 11 1.3 0.9 2.6 1.5 4 2 -1.5-0.6-3-1.5-4.4-2.7C412.1 144 410 140.1 408.6 135.4z" fill="url(#SVGID_19_)"/><path d="M434.5 144.9c0.1 0 0.2 0 0.3 0 1.9-1.4 3.6-2.9 4.8-4.5 2.2-2.7 3.1-5.4 2.7-7.2 0-0.1 0-0.1 0-0.2C441.8 135.9 438.9 141.1 434.5 144.9z" class="e"/><radialGradient id="SVGID_20_" cx="416.6" cy="123.2" r="28.4" gradientUnits="userSpaceOnUse"><stop offset="0.129" class="g"/><stop offset="0.2424" class="h"/><stop offset="0.3898" class="i"/><stop offset="0.5559" class="j"/><stop offset="0.7345" class="k"/><stop offset="0.8387" class="l"/><stop offset="1" class="m"/></radialGradient><path d="M434.5 144.9c0.1 0 0.2 0 0.3 0 1.9-1.4 3.6-2.9 4.8-4.5 2.2-2.7 3.1-5.4 2.7-7.2 0-0.1 0-0.1 0-0.2C441.8 135.9 438.9 141.1 434.5 144.9z" fill="url(#SVGID_20_)"/><path d="M434.5 144.9c4.4-3.8 7.4-9 7.7-12 -3.1-14.6-14.2-23.7-22.6-23.7 -1.4 0-2.6 0.2-3.7 0.7 -6.2 2.7-8 8.8-8.4 13.5 -0.4 4 0.1 8.2 1.2 12 1.5 4.7 3.6 8.6 5.6 10.3 1.5 1.2 3 2.1 4.4 2.7 1.1 0.3 2.2 0.5 3.3 0.6 0.9-0.7 2.2-1.5 3.8-2.2C428.1 145.9 431.1 145.1 434.5 144.9zM421.5 135.7c-2.1-5.9-0.3-12 4-13.5 1-0.4 2.1-0.5 3.2-0.3 3.6 0.5 7 3.7 8.6 8.2 2.1 5.9 0.3 12-4 13.5 -1 0.4-2.1 0.5-3.2 0.3 0 0 0 0 0 0C426.4 143.4 423.1 140.2 421.5 135.7z"/><radialGradient id="SVGID_21_" cx="416.6" cy="123.2" r="28.4" gradientUnits="userSpaceOnUse"><stop offset="0.129" class="g"/><stop offset="0.2424" class="h"/><stop offset="0.3898" class="i"/><stop offset="0.5559" class="j"/><stop offset="0.7345" class="k"/><stop offset="0.8387" class="l"/><stop offset="1" class="m"/></radialGradient><path d="M434.5 144.9c4.4-3.8 7.4-9 7.7-12 -3.1-14.6-14.2-23.7-22.6-23.7 -1.4 0-2.6 0.2-3.7 0.7 -6.2 2.7-8 8.8-8.4 13.5 -0.4 4 0.1 8.2 1.2 12 1.5 4.7 3.6 8.6 5.6 10.3 1.5 1.2 3 2.1 4.4 2.7 1.1 0.3 2.2 0.5 3.3 0.6 0.9-0.7 2.2-1.5 3.8-2.2C428.1 145.9 431.1 145.1 434.5 144.9zM421.5 135.7c-2.1-5.9-0.3-12 4-13.5 1-0.4 2.1-0.5 3.2-0.3 3.6 0.5 7 3.7 8.6 8.2 2.1 5.9 0.3 12-4 13.5 -1 0.4-2.1 0.5-3.2 0.3 0 0 0 0 0 0C426.4 143.4 423.1 140.2 421.5 135.7z" fill="url(#SVGID_21_)"/><path d="M433 143c4-1.4 5.6-7.1 3.6-12.7 -1.5-4.1-4.7-7.2-8-7.7 -1-0.1-2-0.1-2.9 0.3 -4 1.4-5.6 7.1-3.6 12.7 1.5 4.1 4.7 7.2 8 7.7C431.1 143.4 432.1 143.3 433 143zM426.4 137.7c-0.6-0.1-1.1-0.6-1.1-1.3 0-0.2 0.1-0.3 0.1-0.4 -0.1-0.2-0.2-0.4-0.3-0.7 -0.3-0.8-0.5-1.6-0.5-2.4 -1.3-0.5-2.1-1.7-2.1-3.1 0.1-1.7 1.6-3.1 3.4-3 0.6 0 1.2 0.2 1.6 0.5 2.4-0.7 5.2 1.4 6.4 4.7 1.2 3.5 0.3 7-2.2 7.8C430 140.7 427.9 139.7 426.4 137.7z"/><radialGradient id="SVGID_22_" cx="416.6" cy="123.2" r="28.4" gradientUnits="userSpaceOnUse"><stop offset="0.129" class="g"/><stop offset="0.2424" class="h"/><stop offset="0.3898" class="i"/><stop offset="0.5559" class="j"/><stop offset="0.7345" class="k"/><stop offset="0.8387" class="l"/><stop offset="1" class="m"/></radialGradient><path d="M433 143c4-1.4 5.6-7.1 3.6-12.7 -1.5-4.1-4.7-7.2-8-7.7 -1-0.1-2-0.1-2.9 0.3 -4 1.4-5.6 7.1-3.6 12.7 1.5 4.1 4.7 7.2 8 7.7C431.1 143.4 432.1 143.3 433 143zM426.4 137.7c-0.6-0.1-1.1-0.6-1.1-1.3 0-0.2 0.1-0.3 0.1-0.4 -0.1-0.2-0.2-0.4-0.3-0.7 -0.3-0.8-0.5-1.6-0.5-2.4 -1.3-0.5-2.1-1.7-2.1-3.1 0.1-1.7 1.6-3.1 3.4-3 0.6 0 1.2 0.2 1.6 0.5 2.4-0.7 5.2 1.4 6.4 4.7 1.2 3.5 0.3 7-2.2 7.8C430 140.7 427.9 139.7 426.4 137.7z" fill="url(#SVGID_22_)"/><linearGradient id="SVGID_23_" gradientUnits="userSpaceOnUse" x1="433" y1="143.1" x2="425.7" y2="122.7"><stop offset="0" class="n"/><stop offset="0.4032" class="o"/><stop offset="1" class="p"/></linearGradient><path d="M433 143c4-1.4 5.6-7.1 3.6-12.7 -1.5-4.1-4.7-7.2-8-7.7 -1-0.1-2-0.1-2.9 0.3 -4 1.4-5.6 7.1-3.6 12.7 1.5 4.1 4.7 7.2 8 7.7C431.1 143.4 432.1 143.3 433 143zM426.4 137.7c-0.6-0.1-1.1-0.6-1.1-1.3 0-0.2 0.1-0.3 0.1-0.4 -0.1-0.2-0.2-0.4-0.3-0.7 -0.3-0.8-0.5-1.6-0.5-2.4 -1.3-0.5-2.1-1.7-2.1-3.1 0.1-1.7 1.6-3.1 3.4-3 0.6 0 1.2 0.2 1.6 0.5 2.4-0.7 5.2 1.4 6.4 4.7 1.2 3.5 0.3 7-2.2 7.8C430 140.7 427.9 139.7 426.4 137.7z" fill="url(#SVGID_23_)"/><path d="M431.8 140c2.4-0.9 3.4-4.4 2.2-7.8 -1.2-3.3-4-5.4-6.4-4.7 0.9 0.6 1.5 1.6 1.4 2.8 -0.1 1.7-1.6 3.1-3.3 3 -0.3 0-0.7-0.1-1-0.2 0.1 0.8 0.2 1.6 0.5 2.4 0.1 0.2 0.2 0.4 0.3 0.7 0.2-0.5 0.7-0.8 1.2-0.8 0.7 0 1.2 0.6 1.2 1.3 0 0.7-0.6 1.2-1.3 1.2 0 0-0.1 0-0.1 0C427.9 139.7 430 140.7 431.8 140z" class="A"/><path d="M430 143.9c1.1 0.2 2.2 0.1 3.2-0.3 4.3-1.6 6.1-7.6 4-13.5 -1.6-4.4-5-7.6-8.6-8.2 -1.1-0.2-2.2-0.1-3.2 0.3 -4.3 1.6-6.1 7.6-4 13.5 1.6 4.4 5 7.6 8.6 8.2C430 143.9 430 143.9 430 143.9zM422.1 135.5c-2-5.6-0.4-11.3 3.6-12.7 0.9-0.3 1.9-0.4 2.9-0.3 3.3 0.5 6.5 3.6 8 7.7 2 5.6 0.4 11.3-3.6 12.7 -0.9 0.3-1.9 0.4-2.9 0.3C426.8 142.8 423.6 139.6 422.1 135.5z" class="x"/><path d="M427.3 127.5c0.1 0 0.2 0 0.2-0.1 -0.5-0.3-1-0.5-1.6-0.5 -1.8-0.1-3.3 1.3-3.3 3 -0.1 1.4 0.8 2.6 2.1 3.1C424.5 130.4 425.5 128.2 427.3 127.5z"/><radialGradient id="SVGID_24_" cx="416.6" cy="123.2" r="28.4" gradientUnits="userSpaceOnUse"><stop offset="0.129" class="g"/><stop offset="0.2424" class="h"/><stop offset="0.3898" class="i"/><stop offset="0.5559" class="j"/><stop offset="0.7345" class="k"/><stop offset="0.8387" class="l"/><stop offset="1" class="m"/></radialGradient><path d="M427.3 127.5c0.1 0 0.2 0 0.2-0.1 -0.5-0.3-1-0.5-1.6-0.5 -1.8-0.1-3.3 1.3-3.3 3 -0.1 1.4 0.8 2.6 2.1 3.1C424.5 130.4 425.5 128.2 427.3 127.5z" fill="url(#SVGID_24_)"/><linearGradient id="SVGID_25_" gradientUnits="userSpaceOnUse" x1="430.5" y1="144" x2="423.1" y2="123.6"><stop offset="0" class="n"/><stop offset="0.4032" class="o"/><stop offset="1" class="p"/></linearGradient><path d="M427.3 127.5c0.1 0 0.2 0 0.2-0.1 -0.5-0.3-1-0.5-1.6-0.5 -1.8-0.1-3.3 1.3-3.3 3 -0.1 1.4 0.8 2.6 2.1 3.1C424.5 130.4 425.5 128.2 427.3 127.5z" fill="url(#SVGID_25_)"/><radialGradient id="SVGID_26_" cx="425.8" cy="130.1" r="3.2" gradientUnits="userSpaceOnUse"><stop offset="0" class="g"/><stop offset="0.5806" class="q"/><stop offset="0.6405" class="r"/><stop offset="0.6974" class="j"/><stop offset="0.753" class="s"/><stop offset="0.8079" class="t"/><stop offset="0.8622" class="u"/><stop offset="0.9162" class="v"/><stop offset="0.9688" class="w"/><stop offset="1" class="p"/></radialGradient><path d="M427.3 127.5c0.1 0 0.2 0 0.2-0.1 -0.5-0.3-1-0.5-1.6-0.5 -1.8-0.1-3.3 1.3-3.3 3 -0.1 1.4 0.8 2.6 2.1 3.1C424.5 130.4 425.5 128.2 427.3 127.5z" fill="url(#SVGID_26_)"/><path d="M429 130.2c0.1-1.1-0.5-2.2-1.4-2.8 -0.1 0-0.2 0-0.2 0.1 -1.9 0.7-2.9 2.9-2.7 5.5 0.3 0.1 0.6 0.2 1 0.2C427.4 133.3 428.9 132 429 130.2z" class="A"/><radialGradient id="SVGID_27_" cx="425.8" cy="130.1" r="3.2" gradientUnits="userSpaceOnUse"><stop offset="0" class="g"/><stop offset="0.5806" class="q"/><stop offset="0.6405" class="r"/><stop offset="0.6974" class="j"/><stop offset="0.753" class="s"/><stop offset="0.8079" class="t"/><stop offset="0.8622" class="u"/><stop offset="0.9162" class="v"/><stop offset="0.9688" class="w"/><stop offset="1" class="p"/></radialGradient><path d="M429 130.2c0.1-1.1-0.5-2.2-1.4-2.8 -0.1 0-0.2 0-0.2 0.1 -1.9 0.7-2.9 2.9-2.7 5.5 0.3 0.1 0.6 0.2 1 0.2C427.4 133.3 428.9 132 429 130.2z" fill="url(#SVGID_27_)"/><path d="M425.3 136.5c0 0.7 0.5 1.2 1.1 1.3 -0.4-0.5-0.7-1.1-1-1.7C425.4 136.2 425.3 136.3 425.3 136.5z"/><radialGradient id="SVGID_28_" cx="416.6" cy="123.2" r="28.4" gradientUnits="userSpaceOnUse"><stop offset="0.129" class="g"/><stop offset="0.2424" class="h"/><stop offset="0.3898" class="i"/><stop offset="0.5559" class="j"/><stop offset="0.7345" class="k"/><stop offset="0.8387" class="l"/><stop offset="1" class="m"/></radialGradient><path d="M425.3 136.5c0 0.7 0.5 1.2 1.1 1.3 -0.4-0.5-0.7-1.1-1-1.7C425.4 136.2 425.3 136.3 425.3 136.5z" fill="url(#SVGID_28_)"/><linearGradient id="SVGID_29_" gradientUnits="userSpaceOnUse" x1="428.6" y1="144.7" x2="421.2" y2="124.3"><stop offset="0" class="n"/><stop offset="0.4032" class="o"/><stop offset="1" class="p"/></linearGradient><path d="M425.3 136.5c0 0.7 0.5 1.2 1.1 1.3 -0.4-0.5-0.7-1.1-1-1.7C425.4 136.2 425.3 136.3 425.3 136.5z" fill="url(#SVGID_29_)"/><radialGradient id="SVGID_30_" cx="426.6" cy="136.5" r="1.3" gradientUnits="userSpaceOnUse"><stop offset="0" class="g"/><stop offset="0.5806" class="q"/><stop offset="0.6405" class="r"/><stop offset="0.6974" class="j"/><stop offset="0.753" class="s"/><stop offset="0.8079" class="t"/><stop offset="0.8622" class="u"/><stop offset="0.9162" class="v"/><stop offset="0.9688" class="w"/><stop offset="1" class="p"/></radialGradient><path d="M425.3 136.5c0 0.7 0.5 1.2 1.1 1.3 -0.4-0.5-0.7-1.1-1-1.7C425.4 136.2 425.3 136.3 425.3 136.5z" fill="url(#SVGID_30_)"/><path d="M427.9 136.6c0-0.7-0.5-1.3-1.2-1.3 -0.5 0-1 0.3-1.2 0.8 0.3 0.6 0.6 1.2 1 1.7 0 0 0.1 0 0.1 0C427.2 137.8 427.8 137.3 427.9 136.6z" class="A"/><radialGradient id="SVGID_31_" cx="426.6" cy="136.5" r="1.3" gradientUnits="userSpaceOnUse"><stop offset="0" class="g"/><stop offset="0.5806" class="q"/><stop offset="0.6405" class="r"/><stop offset="0.6974" class="j"/><stop offset="0.753" class="s"/><stop offset="0.8079" class="t"/><stop offset="0.8622" class="u"/><stop offset="0.9162" class="v"/><stop offset="0.9688" class="w"/><stop offset="1" class="p"/></radialGradient><path d="M427.9 136.6c0-0.7-0.5-1.3-1.2-1.3 -0.5 0-1 0.3-1.2 0.8 0.3 0.6 0.6 1.2 1 1.7 0 0 0.1 0 0.1 0C427.2 137.8 427.8 137.3 427.9 136.6z" fill="url(#SVGID_31_)"/><path d="M423 149.6c-0.4 0-0.9 0-1.3-0.1 -0.9 0.6-1.4 0.9-1.4 1 0 0 5.2 2.2 13.4 1.2 7.8-0.9 11.5-3.5 11.9-3.8 -3.7-2-7.3-2.7-10.6-2.6C431.5 147.8 427.3 149.6 423 149.6z" class="e"/><path d="M423 149.6c-0.4 0-0.9 0-1.3-0.1 -0.9 0.6-1.4 0.9-1.4 1 0 0 5.2 2.2 13.4 1.2 7.8-0.9 11.5-3.5 11.9-3.8 -3.7-2-7.3-2.7-10.6-2.6C431.5 147.8 427.3 149.6 423 149.6z" class="z"/><polygon points="445.6 148 445.6 148 445.6 148 " class="e"/><linearGradient id="SVGID_32_" gradientUnits="userSpaceOnUse" x1="446" y1="147.9" x2="420.4" y2="150.6"><stop offset="0" class="B"/><stop offset="1" class="y"/></linearGradient><polygon points="445.6 148 445.6 148 445.6 148 " fill="url(#SVGID_32_)"/><path d="M434 145.5c-0.1 0-0.1 0-0.2 0 -0.2 0.2-0.5 0.4-0.7 0.5C433.4 145.8 433.7 145.6 434 145.5z" class="e"/><radialGradient id="SVGID_33_" cx="416.6" cy="123.2" r="28.4" gradientUnits="userSpaceOnUse"><stop offset="0.129" class="g"/><stop offset="0.2424" class="h"/><stop offset="0.3898" class="i"/><stop offset="0.5559" class="j"/><stop offset="0.7345" class="k"/><stop offset="0.8387" class="l"/><stop offset="1" class="m"/></radialGradient><path d="M434 145.5c-0.1 0-0.1 0-0.2 0 -0.2 0.2-0.5 0.4-0.7 0.5C433.4 145.8 433.7 145.6 434 145.5z" fill="url(#SVGID_33_)"/><linearGradient id="SVGID_34_" gradientUnits="userSpaceOnUse" x1="445.6" y1="144.5" x2="420" y2="147.1"><stop offset="0" class="B"/><stop offset="1" class="y"/></linearGradient><path d="M434 145.5c-0.1 0-0.1 0-0.2 0 -0.2 0.2-0.5 0.4-0.7 0.5C433.4 145.8 433.7 145.6 434 145.5z" fill="url(#SVGID_34_)"/><path d="M433.1 146c0.2-0.2 0.5-0.4 0.7-0.5 -4.9 0.3-9 2.3-11.4 3.6 0.2 0 0.4 0 0.5 0C426.6 149.1 430.1 147.8 433.1 146z"/><radialGradient id="SVGID_35_" cx="416.6" cy="123.2" r="28.4" gradientUnits="userSpaceOnUse"><stop offset="0.129" class="g"/><stop offset="0.2424" class="h"/><stop offset="0.3898" class="i"/><stop offset="0.5559" class="j"/><stop offset="0.7345" class="k"/><stop offset="0.8387" class="l"/><stop offset="1" class="m"/></radialGradient><path d="M433.1 146c0.2-0.2 0.5-0.4 0.7-0.5 -4.9 0.3-9 2.3-11.4 3.6 0.2 0 0.4 0 0.5 0C426.6 149.1 430.1 147.8 433.1 146z" fill="url(#SVGID_35_)"/><path d="M433.1 146c0.2-0.2 0.5-0.4 0.7-0.5 -4.9 0.3-9 2.3-11.4 3.6 0.2 0 0.4 0 0.5 0C426.6 149.1 430.1 147.8 433.1 146z" class="z"/><path d="M435 145.4c-0.3 0-0.7 0-1 0 -0.3 0.2-0.6 0.4-0.9 0.5 -3 1.8-6.6 3.1-10.2 3.1 -0.2 0-0.4 0-0.5 0 -0.3 0.2-0.6 0.3-0.8 0.5 0.4 0 0.9 0.1 1.3 0.1C427.3 149.6 431.5 147.8 435 145.4z"/><path d="M435 145.4c-0.3 0-0.7 0-1 0 -0.3 0.2-0.6 0.4-0.9 0.5 -3 1.8-6.6 3.1-10.2 3.1 -0.2 0-0.4 0-0.5 0 -0.3 0.2-0.6 0.3-0.8 0.5 0.4 0 0.9 0.1 1.3 0.1C427.3 149.6 431.5 147.8 435 145.4z" class="z"/><path d="M434.5 144.9c-3.4 0.1-6.4 1-8.7 2 -1.6 0.7-2.9 1.5-3.8 2.2 -0.2 0.2-0.4 0.3-0.6 0.5 -0.7 0.6-1.1 1-1.1 1 0 0 0.5-0.4 1.4-1 0.2-0.1 0.5-0.3 0.8-0.5 2.4-1.4 6.5-3.3 11.4-3.6 0.1 0 0.1 0 0.2 0 0.3 0 0.6 0 1 0 3.3-0.1 6.9 0.6 10.6 2.6 0.1 0 0.2 0.1 0.2 0.1 0 0-0.1-0.1-0.2-0.1 0 0 0 0 0 0 -0.7-0.5-3.6-2.4-8.8-3.1 -0.4 0-0.7 0-1.1 0 -0.3 0-0.6 0-0.9 0C434.7 144.9 434.6 144.9 434.5 144.9z" class="f"/><path d="M406.9 181.2c-5 3.4-9.5 4.7-13.3 3.7 -4.3-1.1-6.3-4.7-6.3-4.8 0 0 0.2 1.5 1.5 2.7 1.1 1 2.6 2.1 4.7 2.6 0.9 0.2 1.8 0.3 2.7 0.3 2.3 0 4.9-0.6 7.5-2C405.6 182.7 406.9 181.2 406.9 181.2z" class="f"/><path d="M426.6 105.7c0 0-0.1-0.2-0.3-0.5 -0.6-0.9-2-3-3.4-4.4 -3.5-3.2-5.7-3.9-8.2-3.5 -1.5 0.3-2.6 1.1-3.4 2 -1.1 1.2-1.4 2.8-1.4 3.3 0 0.1 0 0.2 0 0.2C409.9 102.8 414.9 92.9 426.6 105.7z"/><path d="M384.7 103c0 0 0 0 0 0 0.8 0.2 1.4 0.6 1.9 1 0 0-3.7-8.7-14.9 5.9 1.3-1.3 2.5-2.4 3.6-3.3 3.6-2.9 6.5-3.9 8.5-3.7C384.1 102.9 384.4 102.9 384.7 103z"/><path d="M398.1 170c2.5 0 5.2 1 8 2.9 5.6-4.6 12.1-7.9 16.8-10.3 2.7-1.4 5.3-2.7 5.9-3.5 -0.6 0.2-1.2 0.4-1.8 0.7 -0.3 0.1-0.5 0.2-0.8 0.3 -0.9 0.3-1.8 0.6-2.7 0.9 -0.1 0-0.2 0.1-0.4 0.1 -0.8 0.3-1.6 0.5-2.4 0.8 -0.1 0-0.1 0-0.2 0.1 -1.1 0.3-2.2 0.7-3.3 1 -0.3 0.1-0.7 0.2-1 0.3 -0.9 0.2-1.8 0.5-2.6 0.7 -0.5 0.1-1.1 0.3-1.6 0.4 -0.6 0.1-1.2 0.3-1.8 0.4 -6.7 1.5-13 2.2-19 2.2 -2.3 0-4.5-0.1-6.5-0.3 -0.4 0-0.9-0.1-1.3-0.1 -0.2 0-0.4 0-0.7-0.1 -0.8-0.1-1.5-0.2-2.2-0.3 0 0 0 0-0.1 0 -0.7-0.1-1.3-0.2-1.9-0.4 -4.4-0.9-7.9-2.3-10.3-3.5 -0.1 0-0.1-0.1-0.2-0.1 -0.3-0.1-0.6-0.3-0.8-0.4 -0.1 0-0.2-0.1-0.3-0.1 -0.3-0.1-0.5-0.3-0.7-0.4 -0.2-0.1-0.3-0.2-0.5-0.3 -0.1 0-0.1-0.1-0.2-0.1 -0.7-0.4-1.2-0.8-1.6-1.1 0.7 1.2 4.6 3.6 8.1 5.7 4.3 2.6 9.2 5.6 12.3 8.5 1.2 1.1 2.5 2.3 4 3.3C389.7 174.3 392.8 170 398.1 170z" class="e"/><radialGradient id="SVGID_36_" cx="396.4" cy="169.1" r="24.3" gradientUnits="userSpaceOnUse"><stop offset="0" class="C"/><stop offset="0.5215" class="C"/><stop offset="1" stop-color="#720000"/></radialGradient><path d="M398.1 170c2.5 0 5.2 1 8 2.9 5.6-4.6 12.1-7.9 16.8-10.3 2.7-1.4 5.3-2.7 5.9-3.5 -0.6 0.2-1.2 0.4-1.8 0.7 -0.3 0.1-0.5 0.2-0.8 0.3 -0.9 0.3-1.8 0.6-2.7 0.9 -0.1 0-0.2 0.1-0.4 0.1 -0.8 0.3-1.6 0.5-2.4 0.8 -0.1 0-0.1 0-0.2 0.1 -1.1 0.3-2.2 0.7-3.3 1 -0.3 0.1-0.7 0.2-1 0.3 -0.9 0.2-1.8 0.5-2.6 0.7 -0.5 0.1-1.1 0.3-1.6 0.4 -0.6 0.1-1.2 0.3-1.8 0.4 -6.7 1.5-13 2.2-19 2.2 -2.3 0-4.5-0.1-6.5-0.3 -0.4 0-0.9-0.1-1.3-0.1 -0.2 0-0.4 0-0.7-0.1 -0.8-0.1-1.5-0.2-2.2-0.3 0 0 0 0-0.1 0 -0.7-0.1-1.3-0.2-1.9-0.4 -4.4-0.9-7.9-2.3-10.3-3.5 -0.1 0-0.1-0.1-0.2-0.1 -0.3-0.1-0.6-0.3-0.8-0.4 -0.1 0-0.2-0.1-0.3-0.1 -0.3-0.1-0.5-0.3-0.7-0.4 -0.2-0.1-0.3-0.2-0.5-0.3 -0.1 0-0.1-0.1-0.2-0.1 -0.7-0.4-1.2-0.8-1.6-1.1 0.7 1.2 4.6 3.6 8.1 5.7 4.3 2.6 9.2 5.6 12.3 8.5 1.2 1.1 2.5 2.3 4 3.3C389.7 174.3 392.8 170 398.1 170z" fill="url(#SVGID_36_)"/><path d="M394.7 179.4h0c3.5 0 7.4-3.2 10.8-6l0.2-0.2c-2.7-1.8-5.2-2.7-7.6-2.7 -5.1 0-8 4.2-9.3 6.9 0 0 0.1 0 0.1 0.1 0.3 0.2 0.5 0.3 0.8 0.5 0.1 0 0.2 0.1 0.3 0.1 0.2 0.1 0.5 0.2 0.7 0.4 0.1 0.1 0.3 0.1 0.4 0.2 0.2 0.1 0.4 0.2 0.5 0.2 0.3 0.1 0.7 0.2 1 0.3 0 0 0.1 0 0.1 0 0.2 0.1 0.4 0.1 0.6 0.1 0.1 0 0.2 0 0.3 0 0.1 0 0.3 0 0.4 0.1C394.2 179.4 394.4 179.4 394.7 179.4z" fill="#FF7C7C"/><polygon points="406.1 173.5 406.4 173.3 406.3 173.3 " class="D"/><path d="M398.1 170.5c2.3 0 4.9 0.9 7.6 2.7l0.4-0.3c0 0 0 0 0.1-0.1 -2.8-1.9-5.5-2.9-8-2.9 -5.3 0-8.4 4.3-9.8 7.1 0.1 0.1 0.3 0.2 0.4 0.3C390.1 174.7 393 170.5 398.1 170.5z" class="D"/><path d="M405.5 173.3c-3.4 2.8-7.3 6-10.8 6C398.2 179.4 402 176.2 405.5 173.3z" class="D"/><path d="M394.7 179.9h0c0.7 0 1.4-0.1 2.1-0.3 0.3-0.1 0.7-0.2 1-0.4 0.5-0.2 1.1-0.5 1.6-0.8 0.2-0.1 0.4-0.2 0.6-0.3 0.2-0.1 0.4-0.3 0.6-0.4 1.8-1.2 3.6-2.6 5.2-4l0.3-0.3 0.2-0.2c0 0 0 0 0 0 5.6-4.6 12.1-7.9 16.8-10.3 3.5-1.8 5.4-2.8 6.1-3.6 0.2 0.5 0.3 1.1 0.3 1.9 0 0 0.5-1.5-0.1-2.6 0 0 0 0 0 0l0 0c0 0 0-0.1-0.1-0.1 -1-1.4-2.7-1.1-2.7-1.1 0.1 0 1.3 0.2 2.1 1.2 -1.3 0.5-2.6 0.9-3.8 1.4 -0.2 0.1-0.3 0.1-0.5 0.2 -1.4 0.5-2.7 0.9-4 1.3 -0.1 0-0.2 0-0.2 0.1 -13.8 4.3-24.8 5.2-32.9 4.7 -0.1 0-0.1 0-0.2 0 -0.7 0-1.5-0.1-2.2-0.2 -0.3 0-0.6-0.1-0.9-0.1 -0.5-0.1-1-0.1-1.4-0.2 -0.8-0.1-1.6-0.2-2.3-0.4 -0.1 0-0.1 0-0.2 0 -0.8-0.1-1.5-0.3-2.2-0.5 -0.3-0.1-0.5-0.1-0.8-0.2 -0.5-0.1-0.9-0.2-1.4-0.4 -0.3-0.1-0.7-0.2-1-0.3 -0.3-0.1-0.5-0.2-0.8-0.3 -0.5-0.1-0.9-0.3-1.3-0.5 -0.2-0.1-0.3-0.1-0.5-0.2 -0.5-0.2-1-0.4-1.4-0.6 0 0-0.1 0-0.1 0 -0.5-0.2-0.9-0.4-1.3-0.6 -0.1 0-0.2-0.1-0.2-0.1 -0.3-0.1-0.6-0.3-0.9-0.4 -0.1-0.1-0.2-0.1-0.3-0.2 -0.3-0.2-0.6-0.3-0.8-0.4 -0.2-0.1-0.3-0.2-0.4-0.3 -0.1-0.1-0.2-0.1-0.3-0.2 -0.3-0.2-0.6-0.4-0.9-0.6 0 0 0 0 0 0 -0.3-0.2-0.6-0.4-0.8-0.6 -0.1 0-0.1-0.1-0.2-0.1 0 0-0.1-0.1-0.1-0.1 1.1-0.7 2.3-1.2 3.5-1.2 0 0-2.3-0.5-5 1.5 -2.2 1.6-2.8 3.6-2.8 3.6 0 0 1.5-2 3.5-3.5 0.6 1.3 3.5 3.1 8.4 6.1 4.3 2.6 9.1 5.6 12.2 8.4 2.6 2.4 5.8 5.4 9.9 5.8C394.2 179.9 394.4 179.9 394.7 179.9zM393.2 179.2c-0.2 0-0.4-0.1-0.6-0.1 0 0-0.1 0-0.1 0 -0.3-0.1-0.7-0.2-1-0.3 -0.2-0.1-0.4-0.1-0.5-0.2 -0.1-0.1-0.3-0.1-0.4-0.2 -0.2-0.1-0.4-0.2-0.7-0.3 -0.1 0-0.2-0.1-0.3-0.1 -0.3-0.1-0.5-0.3-0.8-0.5 0 0-0.1 0-0.1-0.1 -0.1-0.1-0.3-0.2-0.4-0.3 -1.5-1-2.8-2.2-4-3.3 -3.1-2.9-8-5.9-12.3-8.5 -3.5-2.1-7.4-4.5-8.1-5.7 0.4 0.3 0.9 0.6 1.6 1.1 0.1 0 0.1 0.1 0.2 0.1 0.1 0.1 0.3 0.2 0.5 0.3 0.2 0.1 0.5 0.3 0.7 0.4 0.1 0 0.2 0.1 0.3 0.1 0.3 0.1 0.5 0.3 0.8 0.4 0.1 0 0.1 0.1 0.2 0.1 2.5 1.2 5.9 2.6 10.3 3.5 0.6 0.1 1.2 0.2 1.9 0.4 0 0 0 0 0.1 0 0.7 0.1 1.5 0.2 2.2 0.3 0.2 0 0.4 0.1 0.7 0.1 0.4 0 0.8 0.1 1.3 0.1 2 0.2 4.2 0.3 6.5 0.3 5.9 0 12.3-0.7 19-2.2 0.6-0.1 1.2-0.3 1.8-0.4 0.5-0.1 1.1-0.3 1.6-0.4 0.9-0.2 1.7-0.4 2.6-0.7 0.3-0.1 0.7-0.2 1-0.3 1.1-0.3 2.2-0.6 3.3-1 0.1 0 0.1 0 0.2-0.1 0.8-0.2 1.6-0.5 2.4-0.8 0.1 0 0.3-0.1 0.4-0.1 0.9-0.3 1.8-0.6 2.7-0.9 0.2-0.1 0.5-0.2 0.8-0.3 0.6-0.2 1.2-0.4 1.8-0.7 -0.6 0.8-3.2 2.1-5.9 3.5 -4.7 2.4-11.1 5.7-16.8 10.3 0 0 0 0-0.1 0.1l-0.4 0.3 -0.2 0.2c-3.4 2.8-7.3 6-10.8 6h0c-0.3 0-0.5 0-0.7 0 -0.1 0-0.3 0-0.4-0.1C393.4 179.3 393.3 179.3 393.2 179.2z" class="f"/></svg>