<svg version="1.1" id="Layer_1" xmlns="http://www.w3.org/2000/svg" xmlns:xlink="http://www.w3.org/1999/xlink" x="0px" y="0px"
	 viewBox="0 0 768 430" enable-background="new 0 0 768 430" xml:space="preserve">
<g>
	<g>
		<path fill="#F0FBFF" d="M412.341,102.67c-0.637-3.341-2.3-5.886-4.581-7.821c0.11-0.4,0.045-0.867-0.254-1.237
			c-3.1-3.845-9.164-5.447-13.809-6.33c-2.536-0.482-5.102-0.657-7.66-0.566c-2.233-2.156-6.08-2.135-8.997-2.104
			c-4.349,0.046-8.723,0.543-13.055,0.896c-0.863,0.07-1.707,0.146-2.524,0.263c-0.841-0.626-1.813-0.684-2.726-0.362
			c-0.006-0.005-0.011-0.013-0.018-0.018c-0.005-0.023-0.007-0.048-0.013-0.071c-0.185-0.701-1.009-1.008-1.625-0.662
			c-0.107,0.061-0.208,0.127-0.308,0.196c-3.355-0.514-7.06,0-10.362,0.241c-3.983,0.291-7.957,0.831-11.901,1.445
			c-4.096,0.638-8.152,1.487-12.178,2.47c-3.502,0.855-7.186,1.702-10.518,3.146c-0.211-0.049-0.424-0.082-0.636-0.082
			c-0.788,0-1.382,0.144-1.822,0.391c-0.107-0.063-0.216-0.122-0.329-0.174c-0.614-0.287-1.17-0.004-1.418,0.439
			c-0.598-0.129-1.27,0.023-1.793,0.475c-0.172,0.148-0.33,0.302-0.475,0.459c-2.368-0.178-4.605,1.425-5.194,4.082
			c-0.892-0.194-1.89,0.445-1.896,1.294c-1.322,0.215-2.646,0.426-3.967,0.645c-0.913,0.151-1.235,1.149-1.126,1.932
			c-0.126,0.1-0.218,0.241-0.269,0.416c-0.666,0.452-1.292,0.95-1.854,1.502c-3.003,2.949-3.851,8.806-0.006,11.332
			c1.103,3.698,2.669,7.319,4.325,10.534c2.686,5.212,6.705,9.772,11.87,12.607c12.062,6.619,26.517,2.677,38.528-1.757
			c6.396-2.361,12.698-4.976,18.9-7.809c9.933,1.677,19.484,4.262,28.538,8.906c1.838,0.943,3.958,2.669,6.161,2.321
			c-0.116,0.463-0.229,0.924-0.336,1.381c-0.197,0.841,0.517,1.432,1.198,1.366c0.369,0.572,1.213,0.819,1.576,0.026
			c2.967-6.467,4.657-13.609,6.641-20.426c1.016-3.492,2.062-6.977,3.036-10.48C412.246,108.731,412.895,105.581,412.341,102.67z"/>
		<g opacity="0.5">
			<path fill="#808080" d="M406.336,121.771c-0.09-4.139-1.9-8.342-5.094-11.001c-3.708-3.088-8.83-2.97-13.197-1.603
				c-5.01,1.568-9.694,4.706-14.185,7.349c-2.462,1.449-4.889,2.954-7.299,4.487c-2.059,1.31-4.549,2.497-5.884,4.596
				c-0.484,0.763-0.167,1.534,0.438,1.948c0.119,0.217,0.317,0.384,0.622,0.43c10.981,1.659,21.515,4.279,31.452,9.375
				c1.852,0.95,3.99,2.698,6.212,2.315c1.759-0.304,2.875-1.486,3.72-2.991c1.147-2.042,1.632-4.602,2.223-6.841
				C406.035,127.201,406.395,124.494,406.336,121.771z"/>
			<path fill="#999999" d="M412.341,102.67c-2.411-12.654-19.454-13.974-29.637-13.41c-6.884,0.381-13.734,1.608-20.548,2.599
				c-7.301,1.061-14.601,2.131-21.9,3.205s-14.597,2.147-21.896,3.221c-4.286,0.631-8.625,1.15-12.943,1.766
				c-0.042-0.021-0.077-0.046-0.126-0.062c-4.786-1.537-10.698,0.053-14.258,3.549c-3.003,2.949-3.851,8.806-0.006,11.332
				c1.103,3.698,2.669,7.319,4.325,10.534c2.686,5.212,6.705,9.772,11.87,12.607c12.062,6.619,26.517,2.677,38.528-1.757
				c13.584-5.015,26.758-11.136,39.405-18.182c5.339-2.975,14.206-7.435,16.436,1.412c1.795,7.126-0.967,14.706-2.577,21.569
				c-0.197,0.841,0.517,1.432,1.198,1.366c0.369,0.572,1.213,0.819,1.576,0.026c2.967-6.467,4.657-13.609,6.641-20.426
				c1.016-3.492,2.062-6.977,3.036-10.48C412.246,108.731,412.895,105.581,412.341,102.67z"/>
			<path fill="#B3B3B3" d="M406.904,96.881c-2.486-2.564-5.982-4.009-9.32-5.068c-2.285-0.725-4.636-1.21-6.969-1.749
				c-2.088-0.481-4.224-1.279-6.367-1.376c-0.445-0.02-0.623,0.432-0.487,0.778c-9.237-1.417-18.623-0.338-27.814,0.977
				c-20.562,2.942-41.172,5.854-61.666,9.244c-0.913,0.151-1.235,1.149-1.126,1.932c-0.211,0.167-0.342,0.434-0.305,0.815
				c1.085,11.12,10.339,20.979,20.13,25.458c11.954,5.47,25.42,3.689,36.328-3.212c10.875-6.88,18.921-17.385,30.417-23.4
				c5.688-2.977,12.412-4.462,18.687-2.629c6.246,1.824,9.943,8.574,5.816,14.2c-0.658,0.898,0.639,2.177,1.535,1.536
				c1.168-0.834,2.008-1.877,2.574-3.037c1.627-1.322,2.235-3.634,2.337-5.767C410.833,102.257,409.148,99.196,406.904,96.881z"/>
			<path fill="#CCCCCC" d="M407.506,93.612c-3.1-3.845-9.164-5.447-13.809-6.33c-2.536-0.482-5.102-0.657-7.66-0.566
				c-2.233-2.156-6.08-2.135-8.997-2.104c-4.349,0.046-8.723,0.543-13.055,0.896c-0.863,0.07-1.707,0.146-2.524,0.263
				c-1.877-1.397-4.409,0.021-5.461,2.221c-0.325,0.284-0.638,0.602-0.938,0.961c-2.067,2.477-4.075,6.285-4.797,9.543
				c-0.493,0.452-0.947,0.959-1.408,1.47c-1.455,1.612-2.933,3.171-4.529,4.647c-0.567,0.525-1.168,1-1.782,1.455l0-0.001
				c0.257-0.5-0.256-1.016-0.757-0.757c-4.584,2.368-8.794,4.646-14.139,4.237c-2.486-0.19-4.907-1.202-7.062-2.39
				c-1.749-0.964-3.131-2.757-5.026-3.343c-0.307-0.095-0.686,0.168-0.66,0.503c0.02,0.256,0.07,0.503,0.14,0.746
				c-2.7-3.132-4.807-6.683-6.057-11.02c-0.416-1.444-2.103-1.757-3.17-0.837c-0.172,0.148-0.33,0.302-0.475,0.459
				c-2.368-0.178-4.605,1.425-5.194,4.082c-0.917-0.2-1.956,0.48-1.903,1.366c-0.721,0.214-1.333,0.951-1.039,1.734
				c3.29,8.748,12.526,15.022,21.072,17.825c9.885,3.241,20.98,1.447,29.825-3.796c4.512-2.674,8.084-6.543,11.582-10.385
				c3.941-4.329,7.973-8.182,13.26-10.823c5.201-2.597,11.094-3.531,16.856-3.163c2.979,0.19,5.896,0.936,8.71,1.898
				c2.677,0.916,5.074,2.511,7.806,3.254C407.588,96.006,408.236,94.518,407.506,93.612z"/>
			<path fill="#E6E6E6" d="M358.718,85.392c-0.005-0.023-0.007-0.048-0.013-0.071c-0.185-0.701-1.009-1.008-1.625-0.662
				c-0.107,0.061-0.208,0.127-0.308,0.196c-3.355-0.514-7.06,0-10.362,0.241c-3.983,0.291-7.957,0.831-11.901,1.445
				c-4.096,0.638-8.152,1.487-12.178,2.47c-3.502,0.855-7.186,1.702-10.518,3.146c-0.211-0.049-0.424-0.082-0.636-0.082
				c-0.788,0-1.382,0.144-1.822,0.391c-0.107-0.063-0.216-0.122-0.329-0.174c-0.813-0.38-1.526,0.239-1.553,0.906
				c-0.004-0.002-0.009-0.005-0.013-0.007c-0.175,1.892,1.134,4.003,2.395,5.829c0.293,0.498,0.588,0.933,0.843,1.261
				c0.076,0.098,0.156,0.192,0.234,0.289c0.101,0.148,0.199,0.294,0.29,0.435c1.815,2.797,3.957,5.343,6.517,7.485
				c4.818,4.033,10.776,5.705,16.929,4.324c6.188-1.39,11.163-6.056,15.107-10.757c2.193-2.613,4.111-5.453,5.836-8.392
				c0.963-1.641,2.547-3.9,3.055-6.05C359.386,87.09,359.419,85.933,358.718,85.392z"/>
		</g>
	</g>
	<g>
		<path fill="#FFFDE9" d="M429.287,262.91c-2.272-7.604-5.967-14.678-9.936-21.566c-0.136-0.521-0.272-1.043-0.416-1.562
			c-0.572-2.975-1.332-5.928-2.26-8.848c-0.773-2.43-1.606-4.836-2.451-7.238c-1.007-3.889-2.438-7.746-3.941-11.519
			c-0.353-1.118-0.696-2.238-1.018-3.366c-2.211-7.751-3.79-15.69-4.81-23.683c-1.673-13.109-1.214-26.188-0.678-39.345
			c0.571-1.047,1.122-2.106,1.651-3.182c0.785-1.595-1.492-2.969-2.401-1.404c-0.736,1.267-1.507,2.508-2.296,3.737
			c0.176-0.378,0.34-0.766,0.488-1.169c1.826-4.977-1.952-11.989-7.42-12.295c-3.225-1.979-7.088-3.206-10.67-4.294
			c-5.553-3.207-12.695-4.511-18.862-5.248c-7.691-0.918-15.417-0.875-23.098,0.12c-7.523,0.975-14.861,2.936-21.891,5.779
			c-4.799,1.941-10.983,4.458-12.556,9.652c-0.479,0.737-0.884,1.527-1.176,2.392c-0.733,2.177-0.288,4.009,0.773,5.559
			c0.109,0.525,0.289,1.035,0.528,1.526c-0.75-0.672-2.097-0.422-2.092,0.8c0.004,1.112,0.279,2.104,0.752,2.997
			c-0.006,0.075-0.006,0.153,0.006,0.236c0.068,0.436,0.161,0.859,0.267,1.276c-0.228,0.323-0.231,0.827,0.152,1.079
			c-0.365,0.269-0.624,0.702-0.657,1.263c-0.165,2.816-0.425,5.678-0.592,8.541c-0.178,0.017-0.347,0.146-0.352,0.367
			c-0.177,8.118-0.48,16.042-2.039,24.047c-1.525,7.834-4.003,15.485-6.728,22.974c-5.333,14.656-11.981,28.82-15.987,43.939
			c-3.741,14.119-4.457,28.732-0.488,42.877c3.675,13.098,11.275,24.975,21.475,33.939c7.837,6.891,17.208,11.938,27.217,14.836
			c0.315,0.092,0.593,0.074,0.836-0.004c0.06,0.014,0.12,0.031,0.18,0.045c7.092,2.395,14.889,3.17,22.229,3.328
			c4.646,0.102,9.276-0.244,13.876-0.873c4.736-0.646,9.903-1.43,14.132-3.773c0.084-0.047,0.141-0.115,0.186-0.189
			c8.597-2.531,16.773-6.441,24.107-11.648C425.336,317.385,437.165,289.264,429.287,262.91z M312.679,150.459
			c-0.382-0.221-0.76-0.452-1.129-0.703c-0.025-0.017-0.045-0.037-0.07-0.054c0.42,0.241,0.839,0.469,1.249,0.686
			C312.711,150.412,312.696,150.436,312.679,150.459z M397.928,136.651c-0.476-0.595-0.988-1.139-1.534-1.639
			c0.124-0.054,0.235-0.13,0.327-0.223c0.69,0.698,1.262,1.502,1.652,2.465C398.23,137.05,398.085,136.849,397.928,136.651z"/>
		<g opacity="0.5">
			<path fill="#808080" d="M330.256,342.834c-10.35-8.414-18.301-19.41-23.097-31.846c-5.311-13.771-6.432-28.688-5.08-43.289
				c1.475-15.926,6.439-31.027,11.664-46.041c4.663-13.4,8.872-27.344,7.243-41.685c-1.136-10.003-5.213-19.851-12.969-26.502
				c-1.077-0.924-2.652-0.312-2.737,1.134c-0.165,2.816-0.425,5.678-0.592,8.541c-0.178,0.017-0.347,0.146-0.352,0.367
				c-0.177,8.118-0.48,16.042-2.039,24.047c-1.525,7.834-4.003,15.485-6.728,22.974c-5.333,14.656-11.981,28.82-15.987,43.939
				c-3.741,14.119-4.457,28.732-0.488,42.877c3.675,13.098,11.275,24.975,21.475,33.939c7.837,6.891,17.208,11.938,27.217,14.836
				c1.014,0.295,1.697-0.447,1.791-1.256C330.437,344.697,331.081,343.506,330.256,342.834z"/>
			<path fill="#999999" d="M429.287,262.91c-3.268-10.932-9.473-20.775-15.213-30.533c-5.588-9.494-10.824-19.458-17.074-28.583
				c1.912-16.062,2.318-32.314,3.195-48.464c0.325-6.005,1.82-13.561-2.268-18.678c-3.848-4.816-10.181-6.369-15.992-7.263
				c-14.812-2.279-29.927,1.16-44.003,5.616c-11.703,3.705-24.95,9.967-28.824,22.565c-0.468-0.228-0.947-0.438-1.447-0.611
				c-0.603-0.21-1.065,0.635-0.615,1.057c5.016,4.7,8.687,9.498,10.194,16.351c1.692,7.688-0.11,15.748-2.749,22.996
				c-2.716,7.461-6.726,14.406-10.221,21.513c-3.229,6.566-5.887,13.385-7.958,20.404c-4.143,14.035-5.667,28.854-4.771,43.445
				c0.872,14.211,3.954,28.945,10.774,41.545c5.554,10.258,14.974,19.135,26.485,21.896c7.092,2.395,14.889,3.17,22.229,3.328
				c4.646,0.102,9.276-0.244,13.876-0.873c4.736-0.646,9.903-1.43,14.132-3.773c0.084-0.047,0.141-0.115,0.186-0.189
				c8.597-2.531,16.773-6.441,24.107-11.648C425.336,317.385,437.165,289.264,429.287,262.91z"/>
			<path fill="#B3B3B3" d="M420.222,244.967c-1.333-6.182-3.438-12.291-5.267-18.275c-2.34-7.656-4.866-15.253-7.568-22.79
				c-2.701-7.537-5.588-15.007-8.619-22.418c-1.381-3.377-2.804-6.736-4.25-10.086c-1.429-3.311-2.729-6.773-4.709-9.803
				c-3.64-5.568-9.811-6.096-15.846-5.05c-1.151,0.2-2.294,0.443-3.435,0.699c0.013-0.115,0.001-0.239-0.044-0.368
				c-0.192-0.55-0.44-1.083-0.683-1.612c-0.047-0.103-0.094-0.204-0.141-0.307c1.165-0.368,2.292-0.741,3.363-1.102
				c4.928-1.656,9.742-3.859,12.847-8.197c2.662-3.72,3.268-9.64,0.083-13.242c-3.152-3.565-8.021-4.299-12.551-4.242
				c-6.35,0.081-12.643,1.606-18.474,4.062c-4.922,2.073-9.727,4.805-12.986,9.129c-2.11,2.801-3.041,7.013-1.811,10.361
				c-0.304,0.323-0.39,0.84,0.011,1.245c0.588,0.595,1.207,1.122,1.847,1.598c0.068,0.065,0.127,0.137,0.199,0.199
				c0.148,0.131,0.305,0.217,0.464,0.272c7.137,4.751,17.01,2.923,25.285,0.445c0.029,0.085,0.052,0.172,0.083,0.257
				c0.226,0.628,0.448,1.259,0.732,1.862c0.007,0.015,0.016,0.025,0.023,0.039c-1.631,0.379-3.263,0.758-4.911,1.058
				c-3.93,0.714-7.903,1.126-11.89,1.339c-14.779,0.791-28.866-2.436-42.757-7.104c-0.537-0.659-1.04-1.366-1.521-2.113
				c-0.142-0.221-0.393-0.317-0.636-0.311c-0.032-0.045-0.064-0.09-0.097-0.136c-0.535-0.755-1.583-0.279-1.444,0.609
				c0.068,0.436,0.161,0.859,0.267,1.276c-0.236,0.335-0.235,0.867,0.192,1.107c0.056,0.032,0.114,0.061,0.17,0.092
				c2.568,7.233,10.875,11.371,17.96,12.567c2.235,0.378,4.583,0.765,6.325,2.33c2.147,1.93,1.595,5.612,1.32,8.146
				c-0.643,5.917-2.313,11.688-4.32,17.27c-3.913,10.884-9.708,20.979-14.543,31.456c-2.391,5.182-4.531,10.48-6.196,15.939
				c-0.246,0.807-0.506,1.662-0.763,2.547c-2.379,6.309-3.611,13.07-4.014,19.982c-0.8,13.719,1.849,28.252,7.353,40.816
				c10.225,23.344,36.187,37.527,61.306,34.865c20.015-2.121,38.272-14.475,48.384-31.752c5.553-9.486,8.318-20.467,8.641-31.406
				C427.905,265.723,425.822,253.99,420.222,244.967z"/>
			<path fill="#CCCCCC" d="M423.57,255.225c-0.781-3.826-1.859-7.498-3.445-11.064c-0.219-0.492-0.646-0.613-1.045-0.506
				c-0.793-1.684-1.625-3.34-2.305-4.955c-1.703-4.051-3.33-8.139-4.869-12.256c-3.074-8.232-5.664-16.643-7.709-25.19
				c-2.125-8.877-3.561-17.895-4.197-27.001c-0.312-4.462-0.354-8.935-0.298-13.405c0.042-3.36,0.604-6.896,0.608-10.322
				c0.379-0.553,0.71-1.135,0.982-1.75c0.509-1.144-0.547-2.745-1.807-2.11c-0.377-0.089-0.812,0.022-0.97,0.388
				c-0.054,0.125-0.101,0.252-0.151,0.378c-2.326,1.697-4.43,3.59-7.018,4.964c-3.272,1.737-6.93,2.724-10.522,3.544
				c-8.54,1.951-17.397,2.692-26.141,2.776c-0.585,0.005-1.171-0.005-1.756-0.007c0.421-0.719-0.205-1.677-1.17-1.523
				c-3.024,0.482-6.276-0.048-8.178-2.667c-1.734-2.39-1.337-5.26,0.117-7.637c2.792-4.566,8.542-7.918,13.184-10.266
				c4.785-2.42,10.146-3.889,15.458-4.535c2.573-0.313,5.174-0.366,7.762-0.454c2.883-0.097,5.589,0.562,8.425,0.635
				c0.639,0.017,0.915-0.921,0.331-1.222c-1.972-1.017-4.472-1.54-6.828-1.921c-3.276-2.458-8.172-3.177-12.037-3.731
				c-4.885-0.699-9.794-0.719-14.711-0.428c-4.958,0.293-9.892,0.979-14.795,1.743c-4.666,0.727-9.284,1.602-13.493,3.837
				c-6.432,3.416-11.375,12.464-5.993,18.965c2.407,2.909,5.938,3.829,9.545,4.268c1.922,0.234,3.84,0.421,5.742,0.793
				c1.427,0.278,2.801,1.229,4.232,1.448c0.546,0.835,1.203,1.591,1.951,2.229c-4.924-0.417-9.825-1.098-14.679-2.041
				c-4.188-0.815-8.374-1.797-12.45-3.063c-1.697-0.528-3.279-1.253-4.798-2.169c-1.583-0.953-2.424-2.415-3.515-3.83
				c-0.69-0.895-2.273-0.709-2.268,0.614c0.028,7.484,12.074,9.643,17.409,10.983c9.679,2.431,19.699,3.62,29.666,3.858
				c9.798,0.234,19.694-0.673,29.298-2.62c0.188-0.038,0.378-0.078,0.571-0.118c-20.843,12.201-38.821,30.464-49.694,51.848
				c-12.548,24.677-14.81,53.826-3.316,79.306c5.467,12.121,14.36,23.139,25.703,30.193c11.566,7.191,25.708,7.852,38.258,2.914
				c12.228-4.812,21.601-14.848,27.062-26.639C425.892,284.143,426.471,269.453,423.57,255.225z"/>
			<g>
				<path fill="#E6E6E6" d="M416.676,230.934c-2.359-7.418-5.273-14.629-7.41-22.124c-2.211-7.751-3.79-15.69-4.81-23.683
					c-1.673-13.109-1.214-26.188-0.678-39.345c0.571-1.047,1.122-2.106,1.651-3.182c0.785-1.595-1.492-2.969-2.401-1.404
					c-7.257,12.488-17.247,22.991-26.268,34.174c-8.667,10.744-15.543,22.41-19.945,35.53c-4.334,12.919-6.049,26.736-5.318,40.326
					c0.712,13.242,3.677,27.453,10.409,39.01c6.681,11.467,19.841,18.227,32.371,11.773c5.773-2.975,10.351-8.164,14.147-13.309
					c3.893-5.277,6.775-11.273,8.828-17.484C421.633,257.963,420.863,244.107,416.676,230.934z"/>
				<path fill="#E6E6E6" d="M396.701,133.646c-3.977-3.723-9.992-5.375-15.102-6.937c-5.866-1.793-11.905-2.92-18.003-3.534
					c-6.224-0.626-12.506-0.555-18.726,0.053c-3.199,0.312-6.487,0.72-9.694,1.418c-5.784,0.167-11.63,2.653-16.858,4.901
					c-4.946,2.127-10.929,4.858-12.77,10.322c-1.955,5.804,4.467,9.157,8.615,11.259c2.793,1.416,5.721,2.574,8.683,3.583
					c2.266,0.771,4.809,1.61,7.254,1.514c1.245,0.245,2.503,0.398,3.743,0.471c6.698,0.389,13.197,0.522,19.821,1.766
					c0.377,0.071,0.621-0.424,0.268-0.635c-4.084-2.439-9.042-2.659-13.674-2.955c-5.385-0.344-11.259-1.509-15.797-4.577
					c-4.235-2.863-5.846-7.894-3.706-12.561c2.271-4.953,7.621-7.318,12.566-8.677c10.012-2.75,20.891-2.989,31.164-1.941
					c5.458,0.557,10.864,1.639,16.147,3.101c5.089,1.408,10.022,4.074,15.23,4.87C396.646,135.205,397.393,134.293,396.701,133.646z
					"/>
			</g>
			<g>
				<path fill="#FFFFFF" d="M393.053,131.464c-0.346,0.02-0.537,0.514-0.188,0.692c2.717,1.389,5.121,3.066,5.857,6.207
					c0.814,3.472-1.389,6.909-3.841,9.118c-4.716,4.248-12.527,5.569-18.538,6.731c-6.875,1.331-13.91,1.934-20.886,2.441
					c-1.725,0.126-3.421,0.3-5.12,0.431c-3.991-0.039-7.981-0.273-11.949-0.662c-6.134-0.601-12.26-1.662-18.239-3.155
					c-3.031-0.757-5.999-1.743-8.6-3.511c-2.292-1.558-3.423-3.944-5.089-6.037c-0.085-0.107-0.234-0.008-0.243,0.101
					c-0.393,4.74,5.387,8.459,9.12,10.032c6.02,2.536,12.834,3.753,19.289,4.572c6.907,0.877,13.83,1.177,20.787,0.894
					c1.411-0.058,2.823-0.149,4.232-0.27c0.165,0.001,0.329,0.009,0.495,0.008c8.532-0.059,17.039-1.149,25.253-3.473
					c6.679-1.889,13.282-4.882,15.827-11.819C403.129,138.563,398.918,131.134,393.053,131.464z"/>
				<path fill="#FFFFFF" d="M385.128,128.458c-5.753-4.163-13.925-5.702-20.86-6.531c-7.691-0.918-15.417-0.875-23.098,0.12
					c-7.523,0.975-14.861,2.936-21.891,5.779c-5.53,2.237-12.903,5.235-12.935,12.217c-0.002,0.402,0.635,0.507,0.714,0.097
					c0.709-3.664,4.087-5.293,7.108-6.801c3.2-1.597,6.553-2.937,9.921-4.129c6.605-2.338,13.526-3.804,20.491-4.504
					c6.848-0.689,13.717-0.446,20.54,0.375c6.724,0.808,13.191,3.112,19.885,3.834C385.272,128.943,385.302,128.583,385.128,128.458
					z"/>
				<path fill="#FFFFFF" d="M406.221,201.957c-2.844-7.697-4.48-15.78-4.996-23.963c-0.503-7.966,0.546-15.896,1.199-23.821
					c0.014-0.155-0.031-0.272-0.104-0.361c0.342-0.922,0.657-1.858,0.92-2.821c0.163-0.593-0.692-0.965-0.996-0.42
					c-6.505,11.688-16.039,20.913-24.07,31.477c-8.526,11.216-13.019,24.687-12.408,38.807c0.544,12.574,5.518,26.381,16.856,33.045
					c5.122,3.012,11.374,3.92,17.154,2.711c6.039-1.262,10.667-5.725,13.277-11.148
					C420.043,230.938,411.229,215.507,406.221,201.957z"/>
			</g>
		</g>
	</g>
	<g>
		<path fill="#F0FBFF" d="M480.396,155.311c-7.766-10.332-19.207-17.788-32.125-19.514c-11.951-1.597-25.852,1.502-33.768,11.114
			c-2.231,1.233-4.609,1.848-6.508-0.678c-1.197-1.592-1.767-3.52-2.062-5.504c0.488-3.167,1.079-6.311,1.749-9.438
			c3.035-8.995,6.412-18.202,5.834-27.482c0.253-1.445,0.191-2.98-0.263-4.582c-0.427-1.025-0.864-2.053-1.498-2.997
			c-0.618-0.921-1.55-1.672-2.292-2.527c-2.963-2.448-6.982-3.921-10.354-5.14c-12.924-4.671-26.736-6.093-40.421-6.178
			c-0.809-0.037-1.615-0.071-2.417-0.101c-11.055-0.409-22.125,0.359-33.056,2.008c-1.937,0.292-3.883,0.609-5.827,0.971
			c-3.821,0.584-7.606,1.364-11.312,2.506c-7.929,2.444-16.007,7.562-20.682,14.637c-2.029,2.922-3.478,6.171-3.763,9.472
			c-0.201,1.277-0.296,2.59-0.269,3.939c0.009,0.466,0.161,0.827,0.39,1.096c0.238,0.816,1.3,1.387,2.15,0.911
			c6.363-3.562,9.408,4.226,11.087,8.989c2.129,6.04,3.513,12.389,4.285,18.738c1.023,8.416,1.201,17.066,0.774,25.634
			c-0.626,8.231-1.912,16.413-3.812,24.451c-3.428,14.503-9.584,27.953-15.183,41.693c-5.482,13.453-10.448,28.318-8.835,43.062
			c0.02,0.184,0.066,0.344,0.123,0.494c0.125,2.244,0.395,4.477,0.703,6.643c0.876,6.168,2.714,12.141,5.205,17.838
			c4.831,11.049,12.831,20.84,22.34,28.188c9.419,7.279,20.235,11.889,31.779,14.559c6.375,1.475,12.935,2.068,19.469,2.025
			c2.138-0.014,4.348-0.066,6.566-0.225c5.509,0.188,11.188-0.988,16.503-2.162c6.196-1.369,12.12-3.711,17.762-6.59
			c11.507-5.869,21.733-14.494,28.912-25.258c0.774-1.162,1.499-2.355,2.19-3.564c1.838-2.504,3.33-5.297,4.535-7.93
			c2.654-5.799,4.061-12.049,4.545-18.389c0.184-2.42,0.223-4.826,0.137-7.217c1.365-0.943,3.766-1.109,5.241-0.836
			c2.188,0.406,4.229,1.203,6.456,1.453c4.303,0.482,8.053-2.82,10.857-5.619c7.085-7.07,13.684-14.768,19.555-22.873
			c5.762-7.953,10.375-16.518,13.387-25.875c1.514-4.705,2.598-9.473,3.172-14.383c0.188-1.604,0.344-3.319,0.408-5.062
			c0.485-3.688,0.738-7.408,0.75-11.129C492.859,180.511,488.828,166.531,480.396,155.311z M421.57,145.265
			c0.009-0.006,0.019-0.013,0.027-0.019c-1.771,1.431-3.394,3.045-4.82,4.83c-0.405,0.507-0.836,1.1-1.243,1.744
			C416.969,149.199,419.187,147.017,421.57,145.265z M405.395,145.463c-0.041,0.028-0.076,0.065-0.117,0.095
			c0.014-0.109,0.027-0.217,0.04-0.326C405.346,145.309,405.365,145.388,405.395,145.463z M296.348,101.032
			c4.443-3.831,10.117-5.93,15.709-7.401c5.687-1.496,11.558-2.312,17.346-3.309c6.613-1.138,13.257-1.993,19.947-2.531
			c12.305-0.99,24.679-0.662,36.744,2.118c5.885,1.356,11.729,3.255,17.144,5.948c3.057,1.521,5.926,4.429,6.363,7.538
			c-0.697,1.25-1.445,2.448-2.447,3.535c-1.943,2.11-4.625,3.486-7.234,4.58c-5.06,2.122-10.459,3.617-15.775,4.935
			c-10.609,2.63-21.537,3.794-32.458,3.73c-7.071-0.042-14.125-0.695-21.086-1.897c-8.556-3.298-17.919-4.919-26.717-7.093
			c-4.186-1.034-9.04-2.898-13.512-2.527C291.832,105.801,293.711,103.306,296.348,101.032z M286.008,109.917
			c0.269-0.789,0.583-1.55,0.929-2.291c-0.268,0.702-0.491,1.424-0.667,2.166C286.182,109.834,286.095,109.872,286.008,109.917z
			 M314.051,117.631c0.993,0.292,1.987,0.579,2.982,0.859c0.032,0.067,0.069,0.131,0.114,0.192c-1.812-0.512-3.613-1.06-5.406-1.643
			C312.509,117.237,313.279,117.431,314.051,117.631z M297.336,205.729c0.042,0.023,0.087,0.043,0.134,0.059
			c-2.056,6.654-4.603,13.101-7.29,19.501C292.793,218.826,295.252,212.347,297.336,205.729z M391.288,338.803
			c-5.372,2.906-11.119,5.1-16.954,6.875c-0.705,0.215-1.413,0.408-2.121,0.586c-0.073-0.207-0.248-0.377-0.488-0.359
			c-6.347,0.486-12.542,1.947-18.93,2.213c-6.667,0.279-13.399-0.469-19.906-1.893c-8.342-1.828-16.48-5.352-23.795-9.945
			c0.065-0.297-0.014-0.619-0.323-0.885c-4.697-4.039-9.412-7.967-13.453-12.688c-4.101-4.791-7.435-10.221-10.124-15.914
			c-5.374-11.375-7.497-24.232-6.175-36.727c1.581-14.939,8.526-28.725,14.395-42.33c6.031-13.982,10.493-28.409,12.869-43.467
			c2.235-14.165,2.629-28.57,1.237-42.839c-0.623-6.382-1.118-13.588-3.862-19.468c-0.861-1.843-2.014-3.624-3.422-5.114
			c3.054,0.954,6.092,2.149,9.226,3.176c7.655,2.509,15.569,4.127,23.557,5.109c7.832,0.964,15.802,1.091,23.673,0.608
			c3.768-0.231,7.517-0.703,11.243-1.295c0.011-0.001,0.022-0.003,0.034-0.005c13.535-0.917,26.836-4.521,38.525-11.538
			c1.414-0.849,2.717-1.87,3.812-3.031c-0.357,2.291-0.881,4.572-1.502,6.842c-1.176,3.146-2.197,6.358-3.08,9.613
			c-1.16,3.325-2.34,6.611-3.324,9.844c-4.158,13.659-4.801,28.206-3.318,42.337c1.503,14.342,5.426,28.302,10.401,41.798
			c2.729,7.402,5.702,14.867,9.03,22.15c-0.096,0.189-0.119,0.422-0.016,0.648c2.583,5.705,5.682,10.949,7.621,16.953
			c1.903,5.891,2.813,12.064,2.928,18.244c0.234,12.635-3.637,25.273-10.488,35.836c-0.206,0.316-0.424,0.627-0.635,0.939
			c-0.672,0.885-1.344,1.775-2.004,2.689c-0.066,0.092-0.094,0.186-0.105,0.277C409.307,326.641,400.727,333.695,391.288,338.803z
			 M423.416,240.904c-5.775-14.475-12.142-28.581-15.604-43.848c-2.318-10.222-3.42-20.612-3.541-31.04
			c1.7,1.012,4.337,0.379,5.559-1.53c0.451-0.703,0.817-1.464,1.144-2.248c1.327,2.65,4.88,4.348,8.019,3.932
			c6.723-0.891,10.286-8.162,15.904-11.193c12.94-6.981,27.678,1.783,34.487,13.06c7.749,12.833,8.718,30.021,5.548,44.368
			c-2.974,13.467-10.813,25.75-22.213,33.6c-5.709,3.932-13.057,5.584-17.199,11.482c-0.914,1.303-1.428,2.965-1.539,4.656
			c-1.611-1.869-3.21-3.824-4.979-5.568C427.406,251.266,425.467,246.039,423.416,240.904z"/>
		<g opacity="0.5">
			<g>
				<path fill="#B3B3B3" d="M308.771,335.395c-4.697-4.039-9.412-7.967-13.453-12.688c-4.101-4.791-7.435-10.221-10.124-15.914
					c-5.374-11.375-7.497-24.232-6.175-36.727c1.581-14.939,8.526-28.725,14.395-42.33c6.031-13.982,10.493-28.409,12.869-43.467
					c2.235-14.165,2.629-28.57,1.237-42.839c-0.623-6.382-1.118-13.588-3.862-19.468c-2.331-4.993-6.804-9.535-12.703-9.049
					c-1.264,0.104-1.738,2.106-0.319,2.359c1.064,0.19,2.032,0.494,2.917,0.887c1.459,2.788,3.333,5.306,4.683,8.165
					c1.542,3.265,2.49,6.77,3.258,10.285c1.583,7.245,1.916,14.809,1.976,22.202c0.134,16.405-2.55,32.159-6.493,48.03
					c-0.123,0.495,0.142,0.831,0.492,0.946c-3.926,12.703-9.634,24.654-14.702,36.96c-5.262,12.777-8.822,26.016-7.699,39.928
					c0.885,10.965,4.425,21.623,9.911,31.133c5.271,9.135,12.977,18.404,22.509,23.25
					C308.511,337.578,309.728,336.217,308.771,335.395z"/>
				<path fill="#B3B3B3" d="M481.715,168.842c-5.73-10.729-15.757-19.1-27.855-21.31c-6.857-1.253-13.889-0.408-20.289,2.296
					c-3.182,1.344-6.062,3.364-8.533,5.762c-1.371,1.331-2.541,2.841-3.958,4.13c-1.771,1.612-7.406,2.708-6.271-1.515
					c0.247-0.916-0.906-1.583-1.549-1.081c-0.479-0.615-1.543-0.759-2.025,0.084c-2.963,5.185,2.896,9.605,7.758,8.961
					c6.723-0.891,10.286-8.162,15.904-11.193c12.94-6.981,27.678,1.783,34.487,13.06c7.749,12.833,8.718,30.021,5.548,44.368
					c-2.974,13.467-10.813,25.75-22.213,33.6c-5.709,3.932-13.057,5.584-17.199,11.482c-2.41,3.436-2.053,9.363,1.206,11.773
					c0.217,0.533,0.694,0.926,1.423,0.854c0.08-0.008,0.16-0.021,0.24-0.029c0.723,0.213,1.531,0.295,2.434,0.205
					c0.56-0.057,0.938-0.389,1.105-0.793c11.461-2.58,21.455-11.311,28.332-20.367c8.706-11.469,14.18-26.01,16.77-40.08
					C489.539,195.411,488.303,181.181,481.715,168.842z"/>
			</g>
			<g>
				<path fill="#CCCCCC" d="M410.385,99.191c-2.471-5.088-9.011-7.456-13.896-9.343c-13.359-5.161-28.071-6.208-42.258-5.634
					c-7.515,0.304-14.936,1.344-22.384,2.307c-7.24,0.937-14.546,2.017-21.615,3.872c-10.435,2.738-23.803,10.242-24.412,22.509
					c-0.001,0.015,0.002,0.027,0.001,0.042c-0.388,0.17-0.774,0.355-1.157,0.565c-1.104,0.606-0.522,2.139,0.549,2.221
					c0.282,0.276,0.707,0.433,1.242,0.345c8.015-1.315,10.121,8.456,11.239,14.219c1.384,7.131,2.216,14.357,2.594,21.609
					c0.764,14.684-0.672,29.437-4.052,43.736c-3.428,14.503-9.584,27.953-15.183,41.693c-5.482,13.453-10.448,28.318-8.835,43.062
					c0.02,0.184,0.066,0.344,0.123,0.494c0.125,2.244,0.395,4.477,0.703,6.643c0.876,6.168,2.714,12.141,5.205,17.838
					c4.831,11.049,12.831,20.84,22.34,28.188c9.419,7.279,20.235,11.889,31.779,14.559c6.375,1.475,12.935,2.068,19.469,2.025
					c6.659-0.043,14.015-0.463,20.155-3.25c0.477-0.215,0.244-1.025-0.268-0.986c-6.347,0.486-12.542,1.947-18.93,2.213
					c-6.667,0.279-13.399-0.469-19.906-1.893c-10.957-2.4-21.565-7.719-30.41-14.559c-9.044-6.992-16.145-15.949-20.855-26.359
					c-2.45-5.414-4.188-11.145-5.251-16.986c-0.754-4.143-0.817-8.287-0.953-12.443c0.704-14.676,5.517-28.344,11.19-41.93
					c6.09-14.582,11.92-28.953,14.913-44.545c2.894-15.078,3.503-30.566,1.965-45.834c-0.722-7.168-1.604-14.784-4.036-21.598
					c-0.846-2.371-2.321-4.697-4.234-6.399c4.796,0.871,9.405,2.867,14.244,4.453c7.655,2.509,15.569,4.127,23.557,5.109
					c7.832,0.964,15.802,1.091,23.673,0.608c3.768-0.231,7.517-0.703,11.243-1.295c3.2-0.508,8.182-0.943,10.644-3.217
					c0.225-0.208,0.107-0.597-0.178-0.674c-3.011-0.807-7.25,0.611-10.295,1.101c-4.08,0.656-8.202,1.044-12.324,1.297
					c-8.378,0.515-16.767,0.024-25.056-1.261c-8.15-1.263-16.054-3.515-23.806-6.294c-5.625-2.016-12.027-4.541-18.018-3.402
					c1.635-4.314,3.831-7.846,7.446-10.963c4.443-3.831,10.117-5.93,15.709-7.401c5.687-1.496,11.558-2.312,17.346-3.309
					c6.613-1.138,13.257-1.993,19.947-2.531c12.305-0.99,24.679-0.662,36.744,2.118c5.885,1.356,11.729,3.255,17.144,5.948
					c4.842,2.409,9.221,8.301,4.193,12.956c-0.438,0.405,0.117,0.984,0.594,0.77C411.92,107.831,412.02,102.556,410.385,99.191z"/>
				<path fill="#CCCCCC" d="M480.396,155.311c-7.766-10.332-19.207-17.788-32.125-19.514c-11.951-1.597-25.852,1.502-33.768,11.114
					c-2.231,1.233-4.609,1.848-6.508-0.678c-2.141-2.846-2.274-6.764-2.421-10.166c-0.007-0.167-0.224-0.186-0.279-0.038
					c-1.047,2.783-1.079,6.439,0.099,9.433c-2.381,1.643-2.363,6.25-2.686,8.858c-0.334,2.707-0.928,6.05,0.5,8.497
					c-0.287,0.17-0.497,0.535-0.44,0.877c0.606,3.651,5.302,3.538,7.062,0.79c0.74-1.156,1.271-2.461,1.732-3.786
					c0.267,0.489,0.581,0.969,0.959,1.431c2.619,3.2,7.988,2.105,9.116-1.772c0.413-1.423-1.524-2.115-2.297-0.968
					c-1.405,2.089-3.771,1.138-4.833-0.638c-1.059-1.771-0.242-4.238,0.525-5.941c1.383-3.068,3.857-5.578,6.537-7.546
					c5.502-4.043,12.441-5.876,19.182-6.156c13.539-0.562,26.022,6.043,34.738,16.093c9.166,10.571,13.237,24.569,13.523,38.361
					c0.156,7.536-0.945,15.036-2.794,22.326c-0.915,3.611-2.082,7.156-3.368,10.648c-1,2.715-2.246,5.357-3.225,8.082
					c-1.646,2.939-3.411,5.797-5.588,8.512c-4.036,5.035-8.847,9.369-13.885,13.377c-2.811,2.234-5.745,4.316-8.688,6.373
					c-2.769,1.936-5.653,4.436-8.838,5.633c-3.367,1.266-6.325-3.709-8.137-5.779c-2.391-2.73-4.705-5.725-7.548-8.002
					c-0.624-0.5-1.56,0.115-1.142,0.881c1.014,1.855,2.289,3.592,3.636,5.275c-0.625,1.732,0.628,4.494,0.972,6.121
					c0.447,2.109,0.461,4.883,1.139,7.146c-0.082,0.133-0.156,0.266-0.213,0.398c-0.418,0.984-0.117,1.619,0.289,2.508
					c0.023,0.055,0.061,0.096,0.094,0.141c-1.298,1.678-1.66,4.055,0.166,5.592c0.316,0.266,0.797-0.064,0.584-0.449
					c-2.206-3.996,3.187-4.852,5.761-4.375c2.188,0.406,4.229,1.203,6.456,1.453c4.303,0.482,8.053-2.82,10.857-5.619
					c7.085-7.07,13.684-14.768,19.555-22.873c5.762-7.953,10.375-16.518,13.387-25.875c1.514-4.705,2.598-9.473,3.172-14.383
					c0.188-1.604,0.344-3.319,0.408-5.062c0.485-3.688,0.738-7.408,0.75-11.129C492.859,180.511,488.828,166.531,480.396,155.311z"
					/>
			</g>
			<g>
				<path fill="#E6E6E6" d="M432.27,278.303c-0.13-5.938-1.207-11.85-2.947-17.521c0.222-0.197,0.338-0.494,0.212-0.848
					c-4.91-13.762-11.663-26.82-16.742-40.539c-5.108-13.795-8.944-28.097-10.376-42.766c-1.423-14.577-0.074-29.144,4.51-43.068
					c3.196-9.712,7.219-19.689,6.592-29.751c0.253-1.445,0.191-2.98-0.263-4.582c-0.427-1.025-0.864-2.053-1.498-2.997
					c-0.618-0.921-1.55-1.672-2.292-2.527c-2.963-2.448-6.982-3.921-10.354-5.14c-14.437-5.218-29.983-6.387-45.222-6.16
					c-8.094,0.121-16.174,0.727-24.232,1.463c-7.941,0.725-15.93,1.545-23.58,3.903c-12.312,3.796-24.998,14.028-24.714,28.049
					c0.009,0.466,0.161,0.827,0.39,1.096c0.238,0.816,1.3,1.387,2.15,0.911c6.363-3.562,9.408,4.226,11.087,8.989
					c2.129,6.04,3.513,12.389,4.285,18.738c1.572,12.93,1.156,26.415-0.397,39.303c-0.055,0.46,0.725,0.562,0.807,0.109
					c0.67-3.695,1.567-7.265,1.931-11.019c0.386-3.993,0.924-7.977,1.377-11.965c0.869-7.642-0.08-15.845-1.329-23.396
					c-1.144-6.912-2.796-14.883-6.822-20.762c-1.6-2.336-4.693-4.302-7.632-4.493c0.108-0.071,0.215-0.143,0.333-0.209
					c2.009-1.123,4.603-0.761,6.744-0.373c4.86,0.882,9.671,2.343,14.466,3.528c2.729,0.674,5.473,1.41,8.232,2.109
					c0.107,0.299,0.334,0.563,0.683,0.695c7.424,2.802,15.609,3.503,23.44,4.442c7.968,0.955,16,1.393,24.022,1.07
					c14.509-0.583,28.859-4.185,41.365-11.692c1.414-0.849,2.717-1.87,3.812-3.031c-1.398,8.972-5.323,17.817-7.906,26.299
					c-4.158,13.659-4.801,28.206-3.318,42.337c1.503,14.342,5.426,28.302,10.401,41.798c2.729,7.402,5.702,14.867,9.03,22.15
					c-0.096,0.189-0.119,0.422-0.016,0.648c2.583,5.705,5.682,10.949,7.621,16.953c1.903,5.891,2.813,12.064,2.928,18.244
					c0.234,12.635-3.637,25.273-10.488,35.836c-6.734,10.379-16.438,18.803-27.271,24.664c-5.372,2.906-11.119,5.1-16.954,6.875
					c-5.996,1.824-12.118,2.217-18.258,3.232c-0.522,0.088-0.332,0.807,0.115,0.855c6.187,0.656,12.685-0.68,18.715-2.012
					c6.196-1.369,12.12-3.711,17.762-6.59c11.507-5.869,21.733-14.494,28.912-25.258
					C428.949,304.857,432.561,291.531,432.27,278.303z M404.855,110.102c-5.916,4.323-13.589,6.663-20.623,8.405
					c-10.579,2.62-21.601,3.042-32.44,2.437c-5.695-0.318-11.337-1.027-16.974-1.873c-1.23-0.185-2.461-0.389-3.692-0.594
					c-8.697-3.436-18.265-5.074-27.242-7.292c-4.684-1.157-10.206-3.362-15.091-2.301c-0.84,0.183-1.827,0.537-2.786,1.033
					c3.736-10.949,15.169-17.225,26.281-19.784c7.498-1.727,15.288-2.239,22.938-2.86c7.76-0.629,15.541-1.012,23.328-0.98
					c7.854,0.032,15.719,0.583,23.474,1.846c7.462,1.215,15.279,2.788,22.207,5.908c3.16,1.424,6.279,3.957,6.476,7.674
					C410.898,105.301,407.451,108.207,404.855,110.102z"/>
				<path fill="#E6E6E6" d="M487.031,171.515c-7.089-18.973-24.934-35.146-46.188-33.765c-9.249,0.601-18.266,5.067-24.066,12.325
					c-1.282,1.604-2.816,4.058-3.086,6.343c-0.608,2.087-0.287,4.427,1.821,5.662c0.378,0.221,0.751,0.376,1.121,0.479
					c0.167,0.068,0.343,0.105,0.522,0.111c3.062,0.445,5.812-2.682,7.955-4.538c3.513-3.045,7.488-5.502,11.602-7.644
					c0.505-0.262,1.024-0.503,1.554-0.73c6.206-2.114,12.632-1.825,18.813,0.499c12.607,4.741,21.37,17.1,25.559,29.428
					c8.816,25.949-1.349,53.362-19.439,72.622c-4.607,4.904-9.741,9.342-15.16,13.326c-2.36,1.734-4.994,3.146-6.619,5.658
					c-1.231,1.902-0.957,5.689,1.33,6.773c2.551,1.207,4.947,0.389,7.054-1.369c2.813-2.35,5.437-4.945,7.989-7.572
					c4.867-5.014,9.27-10.477,13.273-16.199C487.235,229.814,497.322,199.059,487.031,171.515z"/>
			</g>
			<g>
				<path fill="#FFFFFF" d="M388.895,86.933c-10.388-3.257-21.785-4.248-32.622-4.648c-11.055-0.409-22.125,0.359-33.056,2.008
					c-10.011,1.51-20.314,3.671-28.866,9.369c-6.375,4.247-13.669,12.661-12.685,20.917c0.163,1.363,2.046,1.787,2.484,0.336
					c1.247-4.128,2.256-7.848,4.771-11.444c2.56-3.66,6.192-6.467,10.034-8.658c8.537-4.87,18.924-6.422,28.525-7.711
					c10.173-1.366,20.457-1.859,30.716-1.639c10.276,0.22,20.336,1.693,30.541,2.636C389.429,88.162,389.508,87.125,388.895,86.933z
					"/>
				<path fill="#FFFFFF" d="M410.621,101.52c-1.039,1.922-1.973,3.788-3.467,5.411c-1.943,2.11-4.625,3.486-7.234,4.58
					c-5.06,2.122-10.459,3.617-15.775,4.935c-10.609,2.63-21.537,3.794-32.458,3.73c-10.93-0.064-21.819-1.583-32.387-4.344
					c-10.259-2.681-20.427-6.358-31.177-5.672c-0.999,0.064-0.997,1.48,0,1.549c11.694,0.809,22.619,5.366,33.91,8.105
					c11.193,2.715,22.759,3.829,34.264,3.577c11.202-0.245,22.379-1.988,33.167-4.99c5.365-1.493,10.895-3.184,15.708-6.042
					c3.588-2.13,7.358-5.893,7.392-10.312C412.572,101.026,411.119,100.598,410.621,101.52z"/>
				<path fill="#FFFFFF" d="M487.777,180.058c-2.828-10.881-8.199-20.979-16.997-28.188c-8.203-6.722-19.166-10.619-29.8-9.176
					c-9.108,1.237-20.627,6.741-24.084,15.934c-0.604,1.607,1.746,2.894,2.854,1.66c3-3.339,5.41-6.614,9.248-9.11
					c3.957-2.573,8.596-4.111,13.273-4.629c10.111-1.12,20.183,3.02,27.73,9.572c7.771,6.744,13.043,16.399,15.529,26.304
					c1.412,5.624,2.187,11.558,2.246,17.352c0.03,2.901,0.012,5.812-0.195,8.706c-0.207,2.878-0.748,5.76-0.682,8.648
					c0.009,0.398,0.538,0.443,0.667,0.09c2.036-5.578,2.265-12.53,2.301-18.412C489.908,192.425,489.387,186.252,487.777,180.058z"
					/>
				<path fill="#FFFFFF" d="M482.742,222.262c-2.393,4.719-4.387,9.615-6.896,14.283c-2.657,4.945-5.831,9.531-9.178,14.027
					c-3.403,4.572-7.284,8.812-11.395,12.758c-1.92,1.842-3.942,3.57-5.981,5.277c-2.203,1.844-4.805,3.4-6.768,5.5
					c-0.756,0.809-0.023,2.445,1.16,1.996c4.977-1.891,9.525-6.287,13.408-9.826c4.242-3.863,8.104-8.137,11.588-12.693
					c3.559-4.654,6.579-9.688,9.229-14.908c2.547-5.016,4.895-10.414,5.857-15.982C483.869,222.107,483.05,221.656,482.742,222.262z
					"/>
				<path fill="#FFFFFF" d="M423.416,240.904c-5.775-14.475-12.142-28.581-15.604-43.848c-3.383-14.919-4.176-30.198-3.113-45.428
					c0.985-14.137,4.436-27.627,8.398-41.167c0.244-0.837-1.05-1.418-1.43-0.603c-6.201,13.272-9.141,28.158-10.446,42.672
					c-1.337,14.853-0.124,30.025,2.938,44.595c3.214,15.298,9.502,29.468,15.343,43.882c5.832,14.393,11.154,30.045,10.037,45.805
					c-0.408,5.756-1.82,11.521-4.154,16.799c-2.373,5.361-6.089,9.48-9.465,14.156c-0.424,0.586,0.375,1.227,0.93,0.93
					c5.355-2.873,9-8.914,11.457-14.285c2.654-5.799,4.061-12.049,4.545-18.389C434.047,270.35,429.152,255.277,423.416,240.904z"/>
			</g>
		</g>
	</g>
</g>
</svg>
