<svg version="1.1" xmlns="http://www.w3.org/2000/svg" xmlns:xlink="http://www.w3.org/1999/xlink" viewBox="0 0 768 430" style="enable-background:new 0 0 768 430;" xml:space="preserve"><g id="milk"> <g>  <path style="fill:none;" d="M383.129,98.451c-9.359,13.52-18.451,26.655-27.833,40.21c16.969,8.193,33.224,16.04,49.6,23.944 c9.413-13.595,18.439-26.633,27.84-40.211C415.938,114.286,399.678,106.438,383.129,98.451z"/>  <path style="fill:none;" d="M437.007,217.418c0,0,0.169-2.682-0.972-3.204c-1.861-0.843-4.007-0.127-4.007-0.127l-0.005-0.049 c0,0-0.432,2.016,0.604,2.995C433.672,218.059,437.007,217.418,437.007,217.418z"/>  <path style="fill:none;" d="M391.732,96.56c10.774,4.545,21.161,10.001,31.717,15.063c3.344,1.604,6.712,3.152,10.815,5.078 c0-2.96-0.241-5.026,0.047-7.017c0.745-5.17-1.039-8.191-6.148-10.203c-7.184-2.829-13.998-6.595-20.971-9.956 c-7.088-3.415-14.18-6.824-22.065-10.619c0,2.82,0.239,4.708-0.043,6.517C384.206,91.058,386.229,94.237,391.732,96.56z"/>  <path style="fill:none;" d="M429.043,137.872c-4.888,6.768-9.611,13.653-14.382,20.506c0.323,0.334,0.646,0.668,0.968,1.003 c15.094-5.805,30.188-11.61,45.279-17.415c-0.057-0.387-0.116-0.775-0.178-1.162c-9.563-1.291-19.123-2.618-28.699-3.816 C431.062,136.869,429.532,137.192,429.043,137.872z"/>  <path style="fill:none;" d="M436.35,233.462c-0.617-0.726-0.779-2.287-0.779-2.287l-0.006-0.048c0,0-1.813,1.519-1.32,2.948 c0.487,1.379,2.477,2.504,3.802,1.973c0.853-0.334,0.622-1.15,0.195-1.942C437.812,233.312,436.914,234.144,436.35,233.462z"/>  <path style="fill:none;" d="M454.067,134.19c0.127-0.379,0.254-0.759,0.38-1.14c-5.452-2.677-10.902-5.353-16.463-8.083 c-1.274,1.777-2.293,3.125-3.22,4.533c-0.284,0.432-0.318,1.027-0.601,2.016C440.93,132.425,447.497,133.308,454.067,134.19z"/>  <path style="fill:none;" d="M399.176,166.226c-11.985-6.075-24.149-11.795-36.269-17.601c-2.828-1.354-5.709-2.6-9.123-4.149 c0,2.931,0,5.005,0,7.079c0,38.105,0.45,76.217-0.302,114.305c-0.2,10.106,2.662,15.158,11.974,18.815 c12.428,4.88,24.212,11.399,36.962,17.548c0.286-1.804,0.503-2.538,0.503-3.272c0.024-42.466,0.075-84.929-0.121-127.393 C402.793,169.732,400.896,167.098,399.176,166.226z"/>  <path style="fill:none;" d="M448.253,230.309l0.004,0.048c0,0,0.36,1.099-0.095,1.934c-0.412,0.781-1.382-0.007-1.638,0.859 s-0.415,1.72,0.489,1.874c1.401,0.198,3.168-1.316,3.368-2.718C450.617,230.754,448.253,230.309,448.253,230.309z"/>  <path style="fill:none;" d="M471.763,144.104c-2.527,0.852-4.293,1.38-6.01,2.039c-17.317,6.638-34.583,13.418-51.972,19.86 c-4.011,1.486-5.344,3.476-5.325,7.791c0.177,40.951,0.104,81.903,0.118,122.855c0,1.818,0.176,3.638,0.266,5.396 c0.783,0.091,1.191,0.27,1.49,0.154c19.441-7.438,38.91-14.813,58.239-22.529c1.552-0.619,3.034-3.611,3.057-5.52 c0.22-19.714,0.137-39.433,0.137-59.151C471.763,191.689,471.763,168.376,471.763,144.104z M453.575,189.889 c-0.011-0.005-0.037-0.019-0.037-0.019l-0.006-0.05C453.532,189.82,453.549,189.848,453.575,189.889 c0.39,0.194,7.624,3.849,6.623,6.689c-1.151,3.173-9.967,5.665-9.967,5.665l-3.487-4.177c0,0,6.828-0.706,8.294-3.224 C455.817,193.578,453.878,190.375,453.575,189.889z M422.813,193.31c0.065-0.05,0.105-0.076,0.105-0.076l0.005,0.048 C422.924,193.281,422.88,193.292,422.813,193.31c-0.478,0.365-2.389,2.051-1.021,4.774c1.44,2.958,10.083,1.176,10.083,1.176 c-1.052,1.736-1.824,3.838-2.535,5.537c0,0-11.485,0.499-12.493-4.475C415.828,195.34,421.941,193.54,422.813,193.31z  M424.064,214.318c-2.202,1.607-8.126,1.529-8.126,1.529s1.134-8.104,3.822-9.763c0.653-0.363,1.375-0.535,2.154-0.616 c2.295-0.237,4.898,0.626,6.881,1.21C428.796,206.679,426.353,212.603,424.064,214.318z M454.481,233.312 c0.195,1.903-4.097,5.7-4.097,5.7c-5.075,1.463-9.57,1.385-14.06,1.354c0,0-4.979-1.901-5.814-4.723 c-0.623-2.204,2.979-6.965,2.979-6.965c-0.5-4.337-3.102-7.57-6.896-12.306c1.972-6.22,3.936-12.98,7.396-18.616 c1.599-0.655,3.419,0.325,5.168,0.155c1.748-0.191,3.425-1.532,5.351-0.946c5.222,5.18,8.667,11.333,10.874,16.924 c-2.051,4.502-5.165,8.718-5.208,13.063C450.174,226.954,454.282,230.919,454.481,233.312z M457.291,209.946 c-3.368-1.576-3.092-1.753-6.171-6.266c0,0,3.219-1.763,6.001-2.05c0.927-0.095,1.771-0.036,2.45,0.338 c2.974,1.568,5.044,7.763,5.044,7.763S460.658,211.52,457.291,209.946z"/>  <path style="fill:none;" d="M448.695,212.658l-0.054-0.043c0,0-2.13-0.568-3.386,0.646c-1.299,1.268-0.735,3.379-0.735,3.379 s2.583,0.176,3.523-0.758C449.385,214.56,448.695,212.658,448.695,212.658z"/>  <path style="fill:#DDE4D0;" d="M483,139.399c0.006-3.463-0.869-5.527-4.229-6.978c-5.904-2.549-11.346-6.345-17.405-8.328 c-12.344-4.04-19.127-10.995-15.854-24.742c0.083-0.359,0.146-0.838-0.019-1.122c-0.782-1.337-1.337-3.255-2.527-3.835 c-22.612-11.052-45.3-21.946-69.058-33.394c0,9.485,0.215,18.006-0.121,26.506c-0.11,2.82-1.041,5.979-2.602,8.31 c-8.55,12.758-17.49,25.252-26.082,37.982c-1.384,2.051-2.38,4.83-2.387,7.275c-0.138,46.862-0.15,93.726,0.058,140.587 c0.008,2.017,1.872,4.978,3.683,5.889c18.445,9.276,37.019,18.303,55.685,27.133c2.062,0.975,5.21,1.073,7.349,0.254 c23.172-8.862,46.215-18.058,69.37-26.966c3.237-1.246,4.144-2.988,4.138-6.277C482.906,234.262,482.902,186.832,483,139.399z  M460.908,141.967c-15.092,5.805-30.186,11.609-45.279,17.415c-0.322-0.335-0.645-0.669-0.968-1.003 c4.771-6.853,9.494-13.739,14.382-20.506c0.489-0.68,2.019-1.003,2.988-0.882c9.576,1.198,19.136,2.525,28.699,3.816 C460.792,141.192,460.852,141.581,460.908,141.967z M437.984,124.968c5.561,2.73,11.011,5.405,16.463,8.083 c-0.126,0.38-0.253,0.76-0.38,1.14c-6.57-0.882-13.138-1.765-19.903-2.673c0.282-0.989,0.316-1.584,0.601-2.016 C435.691,128.092,436.71,126.745,437.984,124.968z M385.084,85.423c0.282-1.808,0.043-3.696,0.043-6.517 c7.886,3.794,14.978,7.204,22.065,10.619c6.973,3.361,13.787,7.127,20.971,9.956c5.109,2.012,6.894,5.033,6.148,10.203 c-0.288,1.991-0.047,4.057-0.047,7.017c-4.104-1.925-7.472-3.474-10.815-5.078c-10.556-5.062-20.942-10.519-31.717-15.063 C386.229,94.237,384.206,91.058,385.084,85.423z M402.922,298.951c0,0.734-0.217,1.469-0.503,3.272 c-12.75-6.148-24.535-12.668-36.962-17.548c-9.312-3.657-12.174-8.709-11.974-18.815c0.751-38.088,0.302-76.2,0.302-114.305 c0-2.074,0-4.148,0-7.079c3.413,1.549,6.295,2.794,9.123,4.149c12.12,5.806,24.284,11.526,36.269,17.601 c1.721,0.872,3.617,3.506,3.625,5.333C402.997,214.022,402.946,256.485,402.922,298.951z M404.896,162.605 c-16.376-7.905-32.631-15.751-49.6-23.944c9.382-13.555,18.474-26.69,27.833-40.21c16.549,7.987,32.809,15.835,49.606,23.943 C423.335,135.972,414.309,149.01,404.896,162.605z M471.626,274.151c-0.022,1.908-1.505,4.9-3.057,5.52 c-19.329,7.716-38.798,15.091-58.239,22.529c-0.299,0.115-0.707-0.063-1.49-0.154c-0.09-1.759-0.266-3.578-0.266-5.396 c-0.015-40.952,0.059-81.904-0.118-122.855c-0.019-4.315,1.314-6.304,5.325-7.791c17.389-6.442,34.654-13.223,51.972-19.86 c1.717-0.658,3.482-1.187,6.01-2.039c0,24.272,0,47.585,0,70.896C471.763,234.719,471.846,254.438,471.626,274.151z"/>  <path style="fill:#DDE4D0;" d="M429.341,204.796c0.711-1.699,1.483-3.801,2.535-5.537c0,0-8.643,1.782-10.083-1.176 c-1.368-2.723,0.543-4.409,1.021-4.774c-0.872,0.23-6.985,2.03-5.966,7.012C417.855,205.295,429.341,204.796,429.341,204.796z"/>  <path style="fill:#DDE4D0;" d="M444.508,196.967c-1.926-0.586-3.603,0.754-5.351,0.946c-1.749,0.17-3.569-0.81-5.168-0.155 c-3.46,5.636-5.424,12.396-7.396,18.616c3.794,4.735,6.396,7.969,6.896,12.306c0,0-3.602,4.761-2.979,6.965 c0.835,2.821,5.814,4.723,5.814,4.723c4.489,0.03,8.984,0.108,14.06-1.354c0,0,4.292-3.797,4.097-5.7 c-0.199-2.394-4.308-6.358-4.308-6.358c0.043-4.346,3.157-8.562,5.208-13.063C453.175,208.299,449.729,202.147,444.508,196.967z  M432.628,217.032c-1.036-0.979-0.604-2.995-0.604-2.995l0.005,0.049c0,0,2.146-0.716,4.007,0.127 c1.141,0.522,0.972,3.204,0.972,3.204S433.672,218.059,432.628,217.032z M438.046,236.048c-1.325,0.531-3.314-0.594-3.802-1.973 c-0.493-1.43,1.32-2.948,1.32-2.948l0.006,0.048c0,0,0.162,1.562,0.779,2.287c0.564,0.682,1.463-0.15,1.892,0.644 C438.668,234.897,438.898,235.714,438.046,236.048z M444.521,216.641c0,0-0.563-2.111,0.735-3.379 c1.256-1.215,3.386-0.646,3.386-0.646l0.054,0.043c0,0,0.689,1.902-0.651,3.225C447.104,216.816,444.521,216.641,444.521,216.641z  M450.382,232.306c-0.2,1.401-1.967,2.916-3.368,2.718c-0.904-0.154-0.745-1.008-0.489-1.874s1.226-0.078,1.638-0.859 c0.455-0.835,0.095-1.934,0.095-1.934l-0.004-0.048C448.253,230.309,450.617,230.754,450.382,232.306z"/>  <path style="fill:#DDE4D0;" d="M459.571,201.967c-0.679-0.374-1.523-0.433-2.45-0.338c-2.782,0.288-6.001,2.05-6.001,2.05 c3.079,4.513,2.803,4.69,6.171,6.266c3.367,1.574,7.324-0.215,7.324-0.215S462.545,203.535,459.571,201.967z"/>  <path style="fill:#DDE4D0;" d="M421.915,205.468c-0.779,0.082-1.501,0.253-2.154,0.616c-2.688,1.659-3.822,9.763-3.822,9.763 s5.924,0.078,8.126-1.529c2.288-1.716,4.731-7.64,4.731-7.64C426.813,206.095,424.21,205.231,421.915,205.468z"/>  <path style="fill:#DDE4D0;" d="M453.538,189.87c0,0,0.026,0.013,0.037,0.019c-0.026-0.041-0.043-0.068-0.043-0.068L453.538,189.87 z"/>  <path style="fill:#DDE4D0;" d="M422.919,193.233c0,0-0.04,0.026-0.105,0.076c0.066-0.018,0.11-0.028,0.11-0.028L422.919,193.233z" />  <path style="fill:#DDE4D0;" d="M446.744,198.066l3.487,4.177c0,0,8.815-2.491,9.967-5.665c1.001-2.84-6.233-6.495-6.623-6.689 c0.303,0.486,2.242,3.689,1.463,4.953C453.572,197.36,446.744,198.066,446.744,198.066z"/> </g></g><g id="Layer_1"></g></svg>