<svg version="1.1" id="Layer_1" xmlns="http://www.w3.org/2000/svg" xmlns:xlink="http://www.w3.org/1999/xlink" x="0px" y="0px"
	 viewBox="0 0 768 430" enable-background="new 0 0 768 430" xml:space="preserve">
<g>
	<path fill="#EEF1D1" d="M343.819,87.749c-2.778,75.51-37.605,76.236-37.605,139.275v130.82c0,16.911,5.968,28.352,23.378,28.352
		h104.457c21.887,0,28.353-14.271,28.353-34.818V227.024c0-68.721-32.037-65.145-34.634-139.275H343.819z"/>
	<path fill="#E7E9C1" d="M355.966,381.041c-9.098-5.461-17.756-10.647-23.95-19.503c-7.726-11.045-9.428-23.929-10.016-37.333
		c-1.359-30.99,1.407-62.452,8.164-92.181c3.252-14.312,10.229-26.467,17.204-39.153c5.949-10.82,8.821-21.521,12.446-33.335
		c7.302-23.797,6.459-47.424,7.984-71.787h-23.979c-2.778,75.51-37.605,76.236-37.605,139.275v130.82
		c0,16.911,5.968,28.352,23.378,28.352h34.895C361.582,384.451,358.735,382.703,355.966,381.041z"/>
	<path fill="#EEF1F7" d="M412.66,93.718c0,0-3.482,35.316,8.456,68.146c7.904,21.746,14.425,59.855,15.917,79.089
		c1.484,19.234,0,145.126,0,145.126l5.607-0.8c0,0,0.634-131.511,0-145.38c-0.635-13.869-8.328-56.143-17.546-76.047
		C412.187,135.999,412.66,93.718,412.66,93.718z"/>
	<path fill="#EEF1F7" d="M423.884,93.718c0,0-3.483,35.316,8.454,68.146c7.909,21.746,14.43,59.855,15.918,79.089
		c1.488,19.234,0.031,142.388,0.031,142.388l5.603-3.934c0,0,0.612-125.639-0.022-139.508c-0.638-13.869-8.327-56.143-17.549-76.047
		C423.408,135.999,423.884,93.718,423.884,93.718z"/>
	<path fill="#65B4C1" d="M433.551,82.277h-93.513c0,0,0-8.97,0-14.432c0-11.433,1.492-22.874,20.642-22.874
		c13.183,0,34.819,0,52.478,0c22.135,0,20.394,7.957,20.394,21.389C433.551,75.563,433.551,82.277,433.551,82.277z"/>
	<path fill="#EEF1D1" d="M433.551,86.257c0,2.2-1.783,3.979-3.979,3.979h-85.556c-2.199,0-3.979-1.779-3.979-3.979l0,0
		c0-2.196,1.78-3.979,3.979-3.979h85.556C431.768,82.277,433.551,84.061,433.551,86.257L433.551,86.257z"/>
	<path fill="#E7E9C1" d="M340.1,86.87c0.297,1.906,1.928,3.366,3.917,3.366h85.556c1.986,0,3.62-1.46,3.917-3.366H340.1z"/>
	<path fill="#65B4C1" d="M449.799,323.85c0,6.205-5.075,11.28-11.281,11.28H330.424c-6.202,0-11.276-5.075-11.276-11.28v-52.386
		c0-6.2,5.074-11.276,11.276-11.276h108.094c6.206,0,11.281,5.076,11.281,11.276V323.85z"/>
</g>
<path fill="#FFFFFF" d="M423.404,297.683c-0.049-0.882-0.352-1.46-0.672-2.074c-0.061-0.119-0.123-0.236-0.188-0.364
	c-0.363-0.731-0.705-1.422-0.713-2.276c-0.002-0.723,0.059-1.439,0.125-2.219c0.104-1.208,0.219-2.579,0.082-4.223
	c-0.164-1.943-1.266-5.737-2.49-7.897c-1.375-2.5-4.008-3.907-7.83-4.183c-1.963-0.141-4.619-0.219-7.902-0.231l-1.205-0.003
	c-10.443,0-26.03,0.468-26.638,0.485l-0.713-0.076h-0.015c-0.268,0.002-6.611,0.057-9.211,0.473
	c-0.209,0.034-0.524,0.052-0.935,0.052c-1.183,0-2.763-0.144-2.768-0.146l-0.714-0.097l-3.396-0.654c0,0,0.251-0.428,0.404-0.748
	c0.275-0.578,0.588-1.315,0.551-1.973c-0.03,0.027-0.246,0.069-0.566,0.128c-0.871,0.162-2.527,0.462-3.358,0.981
	c-0.886-0.475-2.091-0.559-3.292-0.436s-2.672,0.578-3.252,1.274c-0.613-1.1-2.254-0.73-3.258-1.006
	c0.055,0.088,0.509,1.363,0.729,1.783c0.35,0.672,1.25,1.378,1.397,2.304c0.241,1.178,0.268,4.283-2.293,5.801
	c-0.797,0.372-1.439,1.198-1.344,2.195c0.047,0.504,0.438,2.15,3.45,2.15c0.674,0,1.272-0.018,1.801-0.035
	c0.428-0.012,0.831-0.024,1.2-0.024c1.489,0,2.557,0.17,4.173,1.42c-1.279,0.241-0.981,3.007-2.418,3.198
	c-0.195,0.024-0.237,0.266-0.047,0.34c0.249,0.094,0.814,0.499,1.481,0.674c0.79,0.204,1.698,0.165,2.057,0.066
	c0.119-0.031,0.185-0.209,0.079-0.295c-0.777-0.615,0.236-1.59,0.445-2.281c0.027-0.083,0.042-0.167,0.047-0.248
	c0.047,0.047,0.091,0.091,0.141,0.138c0.088,0.086,0.258,0.266,0.258,0.266l0.583,0.652l3.27,5.233l0.298,0.607
	c0.224,0.507,2.202,4.987,2.807,5.669c0.893,1.001,3.238,1.387,3.718,1.456l0.329,0.322c-0.154,0.805-1.399,7.131-0.959,9.785
	c0.305,2.571-0.854,4.04-1.976,5.221c-0.9,0.952-1.833,2.18-1.833,3.797v0.246h0.246c0.75,0,1.6-0.146,2.28-0.064
	c0.488,0.059,0.871,0.104,1.12,0.104c0.062,0,0.116-0.003,0.182-0.013c1.99-0.455,2.342-3.87,2.625-6.417
	c0.106-0.969,0.209-1.884,0.387-2.442c0,0,1.38-4.778,1.707-5.91c0.387-1.339,0.911-3.154,1.184-3.472
	c0.642,0.251,2.032,3.358,2.984,6.67l0.015,0.05l0.035,0.042c0.169,0.196,0.361,0.436,0.457,0.562l0.052,0.109
	c2.087,4.233,1.033,4.396,0.018,5.742c-0.537,0.711-1.09,1.444-1.09,2.549v0.246h0.246c1.521,0,2.327,0.037,2.975,0.068
	c0.475,0.022,0.886,0.042,1.448,0.042c0.219,0,0.532-0.083,0.783-0.484c0.757-1.198,0.462-4.427,0-5.396
	c-0.392-0.717-0.529-0.44-0.687-1.545c-0.057-0.382-0.111-0.775-0.183-1.177l-0.11-0.677c-0.278-1.803-0.396-3.354-0.399-3.38
	l-0.903-6.415c1.774,0.527,9.362,2.709,13.741,2.709c0.436,0,0.832-0.021,1.18-0.066c1.451-0.185,3.447-0.632,5.559-1.106
	c0.023-0.005,0.115-0.027,0.232-0.057c0.258-0.063,0.639-0.16,0.709-0.194c0.172-0.052,0.352-0.123,0.455-0.256
	c0.307,0.187,0.623,0.356,0.932,0.514c0.309,0.158,0.623,0.296,0.941,0.419c-0.35,0.282-0.588,0.893-0.682,1.255
	c-0.127,0.475,0.143,0.954,0.617,1.09c0.494,0.14,1.014-0.298,1.344-0.605c0.189-0.178,0.818-0.771,0.855-1.132
	c0.689,0.138,1.387,0.227,2.092,0.283c-0.162,0.915-0.207,2.361,1.035,2.325c0.959-0.027,1.203-1.4,1.182-2.223
	c0.238,0.003,0.477,0.006,0.713,0.008c-0.008,0.47-0.039,0.975-0.084,1.493c-0.1,1.135-0.27,2.338-0.418,3.394
	c-0.084,0.592-0.162,1.166-0.229,1.692l-0.076,0.682c-0.082,0.772-0.096,1.302-0.049,1.66c0.004,3.607-1.455,4.938-2.744,6.114
	c-1.066,0.972-2.074,1.89-2.074,3.841v0.246h4.111c0.545,0,1.479-0.632,3.316-6.097c0.947-2.814,1.705-5.664,1.777-5.927
	l0.297-0.675c0.346-0.743,1.018-2.155,1.328-2.714c0.367,0.254,0.867,1.383,1.152,2.438l0.094,0.635
	c0.002,0.024,0.191,2.517,0.191,3.634c0,1.265-0.545,1.895-1.125,2.56c-0.668,0.77-1.359,1.566-1.17,3.294l0.023,0.219h0.223
	c1.074,0,1.705-0.017,2.262-0.032c0.449-0.014,0.838-0.024,1.379-0.024c0.357,0,0.652-0.136,0.877-0.398
	c0.639-0.761,0.506-2.485,0.281-3.784c-0.127-1.127,0.064-2.411,0.266-3.771c0.094-0.63,0.191-1.282,0.258-1.932l0.07-0.674
	c0.135-0.994,0.795-5.994,0.49-6.702l-0.121-0.28c-0.193-0.451-0.486-1.132-0.797-1.888c-0.135-0.324-0.168-0.428-0.189-0.504
	c-0.031-0.108-0.057-0.18-0.191-0.453c-0.631-1.624-1-2.812-1.09-3.53c-0.016-0.121-0.004-0.325,0.033-0.598
	c0.311-2.195,2.197-8.823,3.125-11.955c0.18,0.787,0.305,1.508,0.35,2.015c0.127,1.528,0.02,2.778-0.084,4.001
	c-0.068,0.795-0.133,1.543-0.129,2.33c0.008,1.176,0.441,2.044,0.859,2.891l0.006,0.01c-0.09,0.099-0.199,0.207-0.326,0.325
	c-0.613,0.593-1.547,1.486-1.355,3.297c0.244,2.271,1.969,3.331,2.043,3.376l0.557,0.334l-0.195-0.62
	c-0.004-0.013-0.357-1.153,0.254-1.929C423.066,299.678,423.471,298.912,423.404,297.683z"/>
</svg>
