<svg xmlns="http://www.w3.org/2000/svg" viewBox="0 0 768 430"><style>.a{fill:#EC776B;}.b{fill:#EC8D79;}.c{fill:#ECAA8D;}.d{fill:#F6D4C6;}.e{fill:#CE5D57;}.f{fill:#B9A89D;}.g{fill:#F7E0D1;}.h{fill:#5D544F;}.i{fill:#3A3C47;}.j{fill:#494C57;}.k{fill:#535660;}.l{fill:#949594;}.m{fill:#171817;}.n{fill:#FFF;}.o{fill:#2A88EC;}.p{fill:#003CD3;}.q{fill:#FFCEDA;}</style><path d="M379.9 347.8c0 0-1.7 13.9-9.3 17.7 -7.5 3.8-26.9 4.9-35.6 8.7 -8.7 3.8-11.9 8.7-15.9 9.3 -4.1 0.6-4.9-5.5 2.3-13.9 -8.4 4.3-11.1 8.9-14.2 10.4 -5.8 2.9-12.2 0.3-1.4-10.1 -8.4 3.5-16.8 10.7-20.5 9 -3.8-1.7 2.9-11.3 9.3-17.1 -9 3.5-13.3-0.3-7.2-4.3 6.1-4 28.6-11.9 57-9.5C353.6 349 381.3 341.6 379.9 347.8z" class="a"/><path d="M326.3 366.2c0.5-0.2 1-0.4 1.5-0.6C327.3 365.8 326.8 366 326.3 366.2z" class="b"/><path d="M287.3 357.4c6.1-4 28.6-11.9 57-9.5 4.3 0.5 12.7-0.8 20.2-1.7 4.6 8.2-1.1 15-7.2 17.7 -12.2 6.1-26.9 5.2-36.5 17.4 -1.3 1.3-3 1.1-4.5 0.6 -0.9-2.3 0.4-6.8 5.1-12.3l0 0c1.6-1.3 3.4-2.3 5.1-3.1 0.5-0.2 1-0.1 1.5-0.2 -0.5 0.1-1.3-0.3-1.8 0 -7.1 2.6-12.8 6.7-19.3 11.6 -2.2 1.4-4.6 3.5-6.9 1.2 -0.2-1.8 1.3-4.8 5.8-9.2 -0.2 0.1-0.4 0.2-0.6 0.3 4.1-3.4 9.7-5.7 14.3-8 -15.9 3-31.4 17.6-34.7 12.4 1.5-3.8 5.7-9 9.8-12.7 -0.6 0.2-1.2 0.4-1.7 0.6 5.6-2.5 10.1-5 16.5-6.6 -8.6 0-15.3 5.4-24.8 4.7C284.8 359.5 285.7 358.5 287.3 357.4z" class="b"/><path d="M287.3 357.4c6.1-4 28.6-11.9 57-9.5 4.3 0.5 9-2 16.6-3 1.3 7.1-0.3 15.1-6.4 17.8 -12.2 6.1-24.2 4.7-33.7 16.8 -1.3 1.3-2.9 2.9-4.4 2.4 -0.9-2.3 0.4-6.8 5.1-12.3l0 0c1.6-1.3 3.4-2.3 5.1-3.1 0.5-0.2 1-0.1 1.5-0.2 -0.5 0.1-1.3-0.3-1.8 0 -7.1 2.6-12 4.8-18.4 9.6 -2.3 1.5-5 4.7-7.3 2.4 -0.2-1.8 0.8-4 5.3-8.4 -0.2 0.1-0.4 0.2-0.6 0.3 4.1-3.4 9.7-5.7 14.3-8 -20.5 3.5-31.2 15.8-34.4 11.5 1.5-3.8 5.3-8.2 9.4-11.9 -0.6 0.2-1.2 0.4-1.7 0.6 5.6-2.5 10.1-5 16.5-6.6 -6.2-0.7-22.5 6.3-24.3 3.7C285.3 358.6 285.7 358.5 287.3 357.4z" class="c"/><path d="M344.3 347.8c-28.4-2.3-50.9 5.5-57 9.6 -1.6 1.1-2 1.2-2.3 2.1 0.5 0-1 0.9-0.5 0.9 15.3-11.6 44.5-10.5 60.4-12.5C344.8 347.9 344.5 347.9 344.3 347.8z" class="d"/><path d="M316 382.3c-0.9-1.9-0.3-5.9 3.7-11.3 -4 2.3-6.6 4.7-8.5 6.4 -1.4 1.3-2.6 2.3-3.8 2.9 -1.5 0.7-3 1.1-4.4 1.1 -1.7 0-2.8-0.6-3.3-1.7 -0.6-1.4-0.2-3.9 4.1-8.6 -2.4 1.2-4.8 2.5-7.1 3.9 -4.1 2.4-7.7 4.5-10.2 4.5 -0.6 0-1.1-0.1-1.5-0.3 -0.7-0.3-1.2-0.9-1.3-1.8 -0.5-3.2 4.1-9.8 9-14.6 -1.6 0.5-3.2 0.7-4.5 0.7 -2.3 0-3.8-0.7-4.1-2 -0.4-1.4 0.7-3 2.9-4.5 4.9-3.3 22.8-10 46.9-10 3.5 0 7 0.1 10.4 0.4 0.6 0.1 1.4 0.1 2.3 0.1 3.6 0 8.8-0.7 13.7-1.3 5.1-0.7 10.3-1.3 14-1.3 3 0 4.8 0.4 5.5 1.4 0.4 0.5 0.5 1 0.3 1.7 -0.1 0.6-1.9 14.2-9.5 18 -3.9 2-10.7 3.2-17.9 4.5 -6.6 1.2-13.5 2.4-17.7 4.2 -4.4 1.9-7.4 4.1-9.8 5.9 -2.3 1.7-4.2 3.1-6.2 3.4 -0.2 0-0.4 0-0.6 0C317.4 383.9 316.5 383.3 316 382.3zM360.5 347.1c-5 0.7-10.2 1.3-13.9 1.3 -0.9 0-1.7 0-2.4-0.1 -3.4-0.3-6.9-0.4-10.3-0.4 -23.9 0-41.6 6.7-46.4 9.9 -1.9 1.3-2.9 2.6-2.6 3.6 0.3 0.8 1.5 1.4 3.3 1.4 1.7 0 3.8-0.5 6.1-1.3l2.2-0.8 -1.7 1.6c-5.3 4.8-10.7 12.1-10.2 15.2 0.1 0.5 0.3 0.9 0.8 1.1 0.3 0.2 0.7 0.2 1.1 0.2 2.3 0 5.8-2 9.8-4.4 2.8-1.7 6.1-3.5 9.2-4.8l2.1-0.9 -1.6 1.6c-6 5.8-5.9 8.4-5.5 9.3 0.4 1 1.7 1.2 2.5 1.2 1.2 0 2.6-0.4 4-1.1 1.1-0.5 2.2-1.5 3.6-2.8 2.3-2.1 5.4-4.9 10.6-7.6l2-1 -1.5 1.7c-4.8 5.5-5.9 10-5 12.1 0.4 0.9 1.2 1.3 2.3 1.1 1.9-0.3 3.6-1.6 5.8-3.2 2.4-1.8 5.5-4.1 10-6 4.3-1.9 11.2-3.1 17.9-4.3 6.8-1.2 13.9-2.5 17.7-4.4 7.2-3.6 9-17.2 9-17.4 0.1-0.4 0-0.7-0.2-1 -0.6-0.7-2.2-1.1-4.9-1.1C370.8 345.7 365.6 346.4 360.5 347.1z" class="e"/><path d="M294.8 362.1c5.4-3.8 15.1-6.3 15.2-6.3 0 0-10.2 1.7-15.7 5.6L294.8 362.1z" class="e"/><path d="M306.1 370.2c5.1-4.2 13.3-8 13.4-8 0 0-8.8 3.1-13.9 7.4L306.1 370.2z" class="e"/><path d="M321.7 369.9c3.1-2.7 6.2-3.7 6.3-3.7 0 0-3.6 0.2-6.8 3L321.7 369.9z" class="e"/><path d="M483.8 262.3c0 0 6.7 15 28 11.1 21.3-3.9 34.1-22.9 34.1-22.9s-5.6-5.1-7.5-5.6c-1.7 0-5.1 1.8-5.1 1.8s4.9-5.5 6.2-8.8c0.1-5.1-6.1-7.4-6.1-7.4l-5.1 3.2c0 0 3.9-5.9 3.9-12.3 -1.6-6.1-8-2.3-8-2.3s-2.2 4.2-7.7 7.7C511.2 230.2 483.4 258.7 483.8 262.3z" class="a"/><path d="M499.1 265.3c15.4 4.4 34.7-3.5 43.8-17.3 -1.4-1.1-3.7-2.8-4.5-3.1 -1.7 0-5.1 1.8-5.1 1.8s4.9-5.5 6.2-8.8c0.1-5.1-6.1-7.4-6.1-7.4l-5.1 3.2c0 0 3.9-5.9 3.9-12.3 -1.6-6.1-8-2.3-8-2.3s-2.2 4.2-7.7 7.7c-4.2 2.7-21.5 20-29.1 29.6C490.5 260.5 494.2 263.8 499.1 265.3z" class="b"/><path d="M500.1 261.4c15.4 4.4 33.7 0.4 42.8-13.4 -1.4-1.1-3.7-2.8-4.5-3.1 -1.7 0-5.1 1.8-5.1 1.8s4.9-5.5 6.2-8.8c0.1-5.1-6.1-7.4-6.1-7.4l-5.1 3.2c0 0 3.9-5.9 3.9-12.3 -1.6-6.1-8-2.3-8-2.3s-2.2 4.2-7.7 7.7c-4.2 2.7-19.9 17.5-27.6 27.1C492 258 495.2 259.9 500.1 261.4z" class="c"/><path d="M505 274.6h0c-16 0-21.5-11.9-21.6-12l0-0.1c-0.4-3.9 27.3-32.4 33.1-36 5.3-3.4 7.5-7.5 7.5-7.5l0.1-0.1 0.1-0.1c0.1 0 2.1-1.2 4.2-1.2 1.6 0 3.6 0.7 4.4 3.8l0 0.1c0 4.5-1.9 8.8-3.1 11l3.8-2.4 0.2 0.1c0.3 0.1 6.5 2.5 6.4 7.8l0 0.1c-0.9 2.3-3.4 5.5-5 7.4 1.1-0.5 2.5-0.9 3.4-0.9l0.1 0c1.9 0.6 7.5 5.5 7.7 5.7l0.3 0.3 -0.2 0.3c-0.1 0.2-13.2 19.1-34.4 23C509.4 274.3 507.1 274.6 505 274.6zM484.2 262.2c0.5 1 5.9 11.5 20.8 11.5h0c2.1 0 4.4-0.2 6.7-0.6 19.4-3.6 31.9-19.9 33.6-22.4 -1.7-1.5-5.6-4.8-7-5.3 -1.6 0-4.8 1.7-4.8 1.7l-2.1 1.1 1.6-1.8c0-0.1 4.8-5.4 6.1-8.6 0.1-4.2-4.6-6.4-5.6-6.8l-6.6 4.1 1.1-1.7c0-0.1 3.8-5.9 3.8-12 -0.6-2-1.7-3.1-3.6-3.1 -1.6 0-3.2 0.8-3.6 1 -0.4 0.7-2.7 4.5-7.8 7.7C510.9 230.9 484.3 258.7 484.2 262.2z" class="e"/><path d="M534.8 246.4l-0.4-0.8c0 0-4.5 2.6-8.7 4.2 0.7-2.1 1.2-5.1 1-8.7 -0.1-1.7-0.6-3.2-1.3-4.4 1.9-1.1 3.6-2.8 3.7-2.9l-0.6-0.6c0 0-1.6 1.8-3.5 2.8 -2.6-3.8-7.5-4.2-7.5-4.2 0.1 0 7.8 2.1 8.4 9.4 0.5 7.4-2.5 12.1-2.5 12.1 0 0 1.4-0.6 2.1-2.4C529.7 249.3 534.7 246.4 534.8 246.4z" class="e"/><path d="M544 253.1c0 0-2.8-4.8-8.1-7.5 4.8-2.5 14-10.4 15.9-10.5C553.8 235 551.2 246.8 544 253.1z" class="f"/><path d="M541.9 250.3c0 0-3-2.9-6-4.8 4.8-2.5 14-10.4 15.9-10.5C553.8 235 549.1 244 541.9 250.3z" class="g"/><path d="M543.9 253.8l-0.3-0.4c0 0-2.8-4.7-7.9-7.4l-0.7-0.4 0.7-0.4c2.1-1.1 5.2-3.4 8.1-5.5 4.2-3.1 6.9-5 8-5h0c0.3 0 0.7 0.1 0.9 0.7 0.9 2.3-2 12.4-8.5 18.1L543.9 253.8zM536.8 245.6c4 2.3 6.5 5.7 7.3 6.9 5.4-5 8.1-13.3 8-16.2 0-0.5-0.1-0.7-0.2-0.7 -0.9 0-4.4 2.6-7.5 4.9C541.7 242.3 538.9 244.3 536.8 245.6z" class="h"/><path d="M538.6 239.7c0 0 9.7-14.4 7.3-21.7 -1-2.5-8.6 9.7-13.9 13.5C537.7 235.1 538.6 239.7 538.6 239.7z" class="f"/><path d="M536.2 235.2c0 0 10.5-11.4 9.7-17.2 -1-2.5-8.6 9.7-13.9 13.5C535.3 233.4 536.2 235.2 536.2 235.2z" class="g"/><path d="M538.4 240.8l-0.2-1c0 0-1-4.5-6.4-8l-0.5-0.3 0.5-0.4c2.3-1.7 5.1-5.1 7.6-8 3.1-3.7 5-5.9 6.1-5.9 0.4 0 0.7 0.2 0.8 0.6 2.4 7.5-6.9 21.5-7.3 22.1L538.4 240.8zM532.7 231.4c3.9 2.7 5.5 5.7 6 7.3 1.9-3.1 8.7-14.5 6.7-20.6h0c-0.8 0-3.4 3.1-5.4 5.5C537.7 226.4 535 229.6 532.7 231.4z" class="h"/><path d="M532 225c0 0 2-15.4-0.4-17.9 -1.2-1.3-8.5 13.7-8.5 13.7S527.5 221.3 532 225z" class="f"/><path d="M529.1 223.1c0 0 3.8-13.1 2.4-16 -1.2-1.3-8.5 13.7-8.5 13.7S525.4 221.2 529.1 223.1z" class="g"/><path d="M532.3 225.9l-0.6-0.5c-4.3-3.6-8.6-4.1-8.6-4.1l-0.6-0.1 0.3-0.6c2-4.2 7-14.1 8.7-14.1 0.2 0 0.4 0.1 0.5 0.2 2.5 2.6 0.7 16.7 0.5 18.3L532.3 225.9zM523.7 220.5c1.3 0.3 4.5 1.1 7.9 3.7 0.5-4.6 1.3-14.7-0.3-16.7C530.3 208 526.7 214.4 523.7 220.5z" class="h"/><path d="M445.2 355.2c0 0 1.7 13.9 9.3 17.7 7.5 3.8 26.9 4.9 35.6 8.7 8.7 3.8 11.9 8.7 15.9 9.3 4.1 0.6 4.9-5.5-2.3-13.9 8.4 4.3 11.1 8.9 14.2 10.4 5.8 2.9 12.2 0.3 1.4-10.1 8.4 3.5 16.8 10.7 20.5 9 3.8-1.7-2.9-11.3-9.3-17.1 9 3.5 13.3-0.3 7.2-4.3 -6.1-4.1-28.6-11.9-57-9.6C471.6 356.4 443.8 349 445.2 355.2z" class="a"/><path d="M498.9 373.5c-0.5-0.2-1-0.4-1.5-0.6C497.9 373.2 498.4 373.4 498.9 373.5z" class="b"/><path d="M537.8 364.8c-6.1-4.1-28.6-11.9-57-9.6 -4.3 0.5-12.6-0.8-20.2-1.7 -4.6 8.2 1.1 15 7.2 17.7 12.2 6.1 26.9 5.2 36.5 17.4 1.3 1.3 3 1.1 4.5 0.7 0.9-2.3-0.4-6.8-5.1-12.3l0 0c-1.6-1.3-3.4-2.3-5.1-3.1 -0.5-0.2-1-0.1-1.5-0.2 0.5 0.1 1.3-0.3 1.8 0 7.1 2.6 12.8 6.7 19.3 11.6 2.2 1.4 4.6 3.5 6.9 1.2 0.2-1.8-1.3-4.8-5.8-9.2 0.2 0.1 0.4 0.2 0.6 0.3 -4.1-3.4-9.7-5.7-14.3-8 15.9 3 31.4 17.6 34.7 12.4 -1.5-3.8-5.7-9-9.8-12.7 0.6 0.2 1.2 0.4 1.7 0.6 -5.6-2.5-10.1-5-16.5-6.6 8.6 0 15.3 5.4 24.8 4.7C540.3 366.9 539.4 365.8 537.8 364.8z" class="b"/><path d="M537.8 364.8c-6.1-4.1-28.6-11.9-57-9.6 -4.3 0.5-9-2-16.6-3 -1.3 7.1 0.3 15.1 6.4 17.8 12.2 6.1 24.2 4.7 33.7 16.8 1.3 1.3 2.9 2.9 4.4 2.4 0.9-2.3-0.4-6.8-5.1-12.3l0 0c-1.6-1.3-3.4-2.3-5.1-3.1 -0.5-0.2-1-0.1-1.5-0.2 0.5 0.1 1.3-0.3 1.8 0 7.1 2.6 12 4.8 18.4 9.6 2.3 1.5 5 4.7 7.3 2.4 0.2-1.8-0.8-4-5.3-8.4 0.2 0.1 0.4 0.2 0.6 0.3 -4.1-3.4-9.7-5.7-14.3-8 20.5 3.5 31.2 15.8 34.4 11.5 -1.5-3.8-5.3-8.2-9.4-11.9 0.6 0.2 1.2 0.4 1.7 0.6 -5.6-2.5-10.1-5-16.5-6.6 9.2-0.5 14.8 4.5 24.3 3.7C539.9 366 539.4 365.8 537.8 364.8z" class="c"/><path d="M476.5 356.5c17.9 0.3 41.7-0.9 63.6 10.4 -0.3-0.9-0.7-1-2.3-2.1 -6.1-4.1-28.6-11.9-57-9.6 -2 0.3-4.2-0.2-6.7-0.8C474.9 355.3 475.6 356 476.5 356.5z" class="d"/><path d="M506.5 391.3c-0.2 0-0.4 0-0.6 0 -2.1-0.3-3.9-1.7-6.2-3.4 -2.4-1.8-5.4-4-9.8-5.9 -4.2-1.8-11-3-17.7-4.2 -7.2-1.3-14-2.5-17.9-4.5 -7.6-3.8-9.4-17.4-9.5-18 -0.1-0.6 0-1.2 0.3-1.7 0.8-0.9 2.5-1.4 5.5-1.4 3.7 0 9 0.7 14 1.3 5 0.7 10.1 1.3 13.7 1.3 0.9 0 1.7 0 2.3-0.1 3.4-0.3 6.9-0.4 10.4-0.4 24.1 0 42 6.8 46.9 10 2.3 1.5 3.3 3.2 2.9 4.5 -0.4 1.3-1.9 2-4.1 2 -1.3 0-2.9-0.3-4.5-0.7 4.9 4.9 9.5 11.4 9 14.6 -0.1 0.8-0.6 1.4-1.3 1.8 -0.4 0.2-0.9 0.3-1.5 0.3 -2.6 0-6.1-2.1-10.2-4.5 -2.3-1.3-4.7-2.7-7.1-3.9 4.3 4.6 4.7 7.2 4.1 8.6 -0.5 1.1-1.6 1.7-3.3 1.7 -1.3 0-2.9-0.4-4.4-1.1 -1.2-0.6-2.3-1.6-3.8-2.9 -1.9-1.8-4.5-4.1-8.5-6.4 4.1 5.3 4.6 9.3 3.7 11.3C508.7 390.7 507.7 391.3 506.5 391.3zM450.7 353.1c-2.7 0-4.3 0.4-4.9 1.1 -0.2 0.3-0.3 0.6-0.2 1 0 0.2 1.8 13.7 9 17.4 3.8 1.9 10.9 3.2 17.7 4.4 6.7 1.2 13.6 2.4 17.9 4.3 4.5 1.9 7.5 4.2 10 6 2.2 1.7 4 3 5.8 3.2 1.1 0.2 1.9-0.2 2.3-1.1 0.9-2-0.3-6.5-5-12.1l-1.5-1.7 2 1c5.3 2.7 8.3 5.5 10.6 7.6 1.4 1.3 2.5 2.3 3.6 2.8 1.4 0.7 2.8 1.1 4 1.1 0.7 0 2.1-0.2 2.5-1.2 0.3-0.8 0.5-3.4-5.5-9.3l-1.6-1.6 2.1 0.9c3.2 1.3 6.4 3.2 9.2 4.8 4 2.3 7.5 4.4 9.8 4.4 0.4 0 0.8-0.1 1.1-0.2 0.5-0.2 0.7-0.6 0.8-1.1 0.5-3.1-4.9-10.4-10.2-15.2l-1.7-1.6 2.2 0.8c2.3 0.9 4.4 1.3 6.1 1.3 1.8 0 3.1-0.5 3.3-1.4 0.3-1-0.7-2.3-2.6-3.6 -4.8-3.2-22.6-9.9-46.4-9.9 -3.4 0-6.9 0.1-10.3 0.4 -0.7 0.1-1.5 0.1-2.4 0.1 -3.7 0-8.8-0.7-13.9-1.3C459.6 353.8 454.4 353.1 450.7 353.1z" class="e"/><path d="M530.4 369.5c-5.4-3.8-15.1-6.3-15.2-6.3 0 0 10.2 1.7 15.7 5.6L530.4 369.5z" class="e"/><path d="M519 377.5c-5.1-4.2-13.3-8-13.4-8 0 0 8.8 3.1 13.9 7.4L519 377.5z" class="e"/><path d="M503.4 377.3c-3.1-2.7-6.2-3.7-6.3-3.7 0 0 3.6 0.2 6.8 3L503.4 377.3z" class="e"/><path d="M349.1 173.6c-14.5-6.7-32.4-6.1-44.9-7.2 -12.4-1.2-40.8-11.3-46-17.6 -5.2-6.4-12.2 10.1-8.7 16.8 3.5 6.7 16.2 26.6 33 38.8 16.8 12.2 44.3 16.8 50.3 32.4C348.8 222.3 349.1 173.6 349.1 173.6z" class="i"/><path d="M304.3 166.4c-12.4-1.2-40.8-11.3-46-17.6 -4.3-5.3-9.9 5.3-9.6 12.8 3.8 7 9.2 13.3 14.3 20.5 14.8 20.8 38.2 19.1 59.9 26 7.7 2.9 13.8 7.4 19.2 12.8 6.8-19.8 7-47.2 7-47.2C334.6 167 316.7 167.6 304.3 166.4z" class="j"/><path d="M286.4 193.3c20.1 6.2 41.5 4.8 58.8 16 3.7-17.5 3.8-35.7 3.8-35.7 -14.5-6.7-32.4-6.1-44.9-7.2 -12.4-1.2-40.8-11.3-46-17.6 -3-3.6-6.5 0.2-8.4 5.4C255.5 171.5 269.6 188.4 286.4 193.3z" class="k"/><path d="M348.1 176.8c0.3 0.1 0.6 0.2 1 0.3 0.1-2.2 0.1-3.4 0.1-3.4 -14.5-6.7-32.4-6.1-44.9-7.2 -12.4-1.2-40.8-11.3-46-17.6 -1.1-1.4-2.3-1.7-3.5-1.2C276.6 174.4 315.4 169.4 348.1 176.8z" class="l"/><path d="M332.7 237.5l-0.2-0.6c-3.7-9.6-15.7-15-28.5-20.7 -7.6-3.4-15.4-6.9-21.7-11.5 -16.9-12.2-29.6-32.2-33.1-38.9 -2-3.9-0.6-11 1.9-15.3 1.4-2.3 3-3.6 4.6-3.6 1 0 2 0.5 2.9 1.6 5.1 6.2 33.1 16.3 45.7 17.5 2.7 0.3 5.6 0.4 8.7 0.6 11.1 0.6 24.8 1.4 36.3 6.7l0.3 0.1 0 0.3c0 2-0.5 49-16.3 63.4L332.7 237.5zM255.7 147.8c-1.2 0-2.6 1.1-3.9 3.2 -2.4 4-3.8 10.8-1.9 14.4 3.5 6.6 16.1 26.5 32.9 38.6 6.2 4.5 14 8 21.6 11.4 12.6 5.7 24.6 11 28.7 20.6 14.5-14.1 15.5-58.1 15.6-62.1 -11.2-5.1-24.8-5.9-35.7-6.5 -3.1-0.2-6.1-0.3-8.8-0.6 -12.7-1.2-41.1-11.5-46.3-17.8C257.2 148.2 256.5 147.8 255.7 147.8z" class="m"/><path d="M254.1 123.7c0 0-6.8 7.2-9 13 -0.9 2-27.2 2.9-35.9 8 -3.9 3.9 2.6 10.3 2.6 10.3s-5.8 2.7-10.4 5.5c-3.8 5.8 0.3 9.7 2.6 9.8 2.3 0.1 15.5-4.3 15.5-4.3s-9.8 5.2-12.6 9.8c-2.7 4.6 0.7 7.7 4.3 8.2 3.6 0.6 9.7-2.9 17.5-3 7.8-0.1 19.5-2.9 26.8-8.4 7.2-5.5 9.6-13.6 9.4-19.1 4.9-10.6-3.7-14.8 0-27.5C263.5 123.2 254.1 123.7 254.1 123.7z" class="a"/><path d="M261.5 151.5c4.4-5.8-1.5-13 2.8-26.2 -2.6-2-10.2-1.6-10.2-1.6s-6.8 7.2-9 13c-0.9 2-27.2 2.9-35.9 8 -3.9 3.9 2.6 10.3 2.6 10.3s-5.8 2.7-10.4 5.5c-3.8 5.8 0.3 9.7 2.6 9.8 2.3 0.1 15.5-4.3 15.5-4.3s-9.8 5.2-12.6 9.8c-2.3 3.8-0.3 6.6 2.5 7.7 10-5.5 20.6-7.2 31.9-10.2C252.6 170.7 258.9 163.7 261.5 151.5z" class="b"/><path d="M259.8 150.8c4.4-5.8-3.4-13.5 3.3-25.4 -2.6-2-9-1.7-9-1.7s-6.8 7.2-9 13c-0.9 2-27.2 2.9-35.9 8 -3.9 3.9 2.6 10.3 2.6 10.3s-5.8 2.7-10.4 5.5c-3.8 5.8 0.3 9.7 2.6 9.8 2.3 0.1 15.5-4.3 15.5-4.3s-9.8 5.2-12.6 9.8c-2.3 3.8-0.3 6.6 2.5 7.7 5.6-6.4 19.8-9.4 31-12.4C251.7 168.5 257.2 163 259.8 150.8z" class="c"/><path d="M257.2 123.7c-2.2-0.2-3.2 0-3.2 0s-6.8 7.2-9 13c-0.9 2-27.2 2.9-35.9 8 -0.4 0.4-0.7 0.9-0.9 1.4 15.9-5.2 36.6-4.6 37.5-7.1C249.6 132.3 252.5 128.2 257.2 123.7z" class="d"/><path d="M265.7 140.3c-1.1-3.9-2.2-8-0.4-14.1l0-0.2 -0.1-0.2c-1.1-2.1-5.7-2.6-9.4-2.6 -1.1 0-1.9 0-1.9 0l-0.2 0 -0.1 0.1c-0.3 0.3-6.9 7.4-9 13.1 -0.5 0.6-5.9 1.4-10.7 2 -8.8 1.2-19.8 2.7-25 5.7l-0.1 0.1c-0.9 0.9-1.4 2-1.4 3.3 0 3 2.5 6 3.6 7.1 -1.6 0.8-6.1 3-9.9 5.3l-0.1 0.1 -0.1 0.1c-2.3 3.6-1.6 6.3-1 7.5 0.9 1.8 2.7 2.9 3.9 3 1.5 0.1 7.6-1.7 11.7-3.1 -3.1 2-7.4 5-9.2 7.9 -1.4 2.4-1.1 4.3-0.6 5.4 0.8 1.8 2.8 3.1 5.3 3.5 0.3 0 0.6 0.1 0.9 0.1h0c1.6 0 3.6-0.5 5.9-1.2 3-0.8 6.7-1.8 10.8-1.9 7.8-0.1 19.6-2.9 27-8.5 7.3-5.6 9.7-13.6 9.6-19.4C267.9 148.2 266.8 144.3 265.7 140.3zM204.1 169.9l-0.1 0c-1-0.1-2.4-1-3.2-2.5 -0.7-1.3-1.1-3.6 0.9-6.6 4.5-2.6 10-5.3 10.3-5.4 0.2-0.1 5.2-1.9 9-2.7 -1.6 3.7-3.2 9-2 13C216.9 166.4 206.4 169.9 204.1 169.9zM264.5 153.4l0 0.1 0 0.1c0.2 5.5-2.2 13.4-9.3 18.7 -7.2 5.5-18.8 8.2-26.5 8.3 -4.2 0.1-8 1.1-11 2 -2.2 0.6-4.1 1.1-5.7 1.1 -0.3 0-0.6 0-0.8-0.1 -2.1-0.3-3.9-1.5-4.6-3 -0.6-1.3-0.4-2.9 0.6-4.6 2.4-4 10.2-8.5 12-9.5 0.7 1.5 2.8 2.3 2.8 2.3 -6.8-5.2 1.7-20.1 1.8-20.3 0 0-1.6 1.1-2.5 3.1 -3.5 0.7-8.3 2.4-9.5 2.8 -0.7-0.8-3.5-3.9-3.5-6.8 0-1 0.3-1.9 1.1-2.7 5.1-2.9 16.4-4.5 24.6-5.6 8.1-1.1 11-1.6 11.4-2.6 2-5.2 7.9-11.8 8.8-12.7 0.3 0 0.9 0 1.7 0 4.6 0 7.7 0.7 8.5 2 -1.8 6.3-0.6 10.6 0.4 14.4C266 144.6 267 148.1 264.5 153.4z" class="e"/><path d="M264 131.3c0 0-4.7-5.2-14.4-2.2 3.2-5.5 12.9-16.2 19.9-15.2C273.2 114.6 265.7 121.8 264 131.3z" class="f"/><path d="M261.4 129.5c0 0-2.1-3.4-11.8-0.4 3.2-5.5 12.9-16.2 19.9-15.2C273.2 114.6 263.1 120 261.4 129.5z" class="g"/><path d="M264.3 132.3l-0.6-0.7c0 0-2.8-3-8.3-3 -1.8 0-3.7 0.3-5.6 0.9l-1.1 0.3 0.6-1c3.1-5.2 12.2-15.5 19.3-15.5 0.3 0 0.7 0 1 0.1 0.6 0.1 1 0.4 1.2 0.8 0.5 1.1-0.4 3-1.9 5.7 -1.5 2.9-3.6 6.9-4.4 11.4L264.3 132.3zM255.4 127.7c4.5 0 7.2 1.8 8.4 2.7 0.9-4.2 2.9-8 4.4-10.8 1.2-2.3 2.2-4.2 1.9-5 0-0.1-0.1-0.3-0.6-0.4 -0.3 0-0.6-0.1-0.9-0.1 -6.4 0-14.5 8.8-18 14.1C252.2 128 253.8 127.7 255.4 127.7z" class="h"/><path d="M211.8 155c0 0-2-6 0.9-11.8 -7.2 1-20.5 9.3-20.9 11.8C191.3 157.5 205.6 155.1 211.8 155z" class="f"/><path d="M211.2 151.7c0 0-0.6-4.3 1.5-8.5 -7.2 1-20.9 9.2-20.9 11.8C191.8 156.6 205 151.8 211.2 151.7z" class="g"/><path d="M195.5 156.6L195.5 156.6c-2.2 0-3.4-0.3-3.9-0.8 -0.2-0.2-0.3-0.5-0.2-0.8 0.5-3 14.2-11.2 21.3-12.2l0.8-0.1 -0.4 0.7c-2.8 5.6-0.9 11.4-0.9 11.5l0.2 0.6 -0.6 0c-1.9 0-4.6 0.3-7.4 0.5C201.2 156.3 197.9 156.6 195.5 156.6zM212 143.7c-7.5 1.4-19.4 9.3-19.8 11.3l0 0.1c0.1 0.2 0.7 0.5 3.3 0.5h0c2.4 0 5.7-0.3 8.8-0.6 2.6-0.2 5-0.5 6.9-0.5C210.8 153 210 148.4 212 143.7z" class="h"/><path d="M207.2 169.7c0 0-5.6-4.2-2-11.4 -6.5 1.6-20.9 12.7-21.3 19.4C184 179.6 193.1 173.8 207.2 169.7z" class="f"/><path d="M204.9 166.7c0 0-2.2-3.8 0.3-8.3 -6.5 1.6-20.9 12.7-21.3 19.4C184 179.6 194 169.5 204.9 166.7z" class="g"/><path d="M184.4 178.5L184.4 178.5c-0.7 0-0.9-0.4-0.9-0.8 0.5-7.1 15.3-18.2 21.7-19.8l0.9-0.2 -0.4 0.8c-3.3 6.8 1.8 10.8 1.9 10.9l0.7 0.5 -0.8 0.2c-7 2-12.7 4.4-16.9 6.2C187.3 177.7 185.4 178.5 184.4 178.5zM184.3 177.6l0.1 0c0.8 0 3-0.9 5.7-2.1 4-1.7 9.5-4 16.3-6 -1.3-1.3-4.2-5-1.9-10.5C197.5 161.4 184.9 171.6 184.3 177.6z" class="h"/><path d="M215 183.7c0 0-7.3-2.1-5.8-10.7 -8.4 5.8-14.3 15.2-11.6 17.9C198.7 192 202.8 187.6 215 183.7z" class="f"/><path d="M211.4 181.4c0 0-3.2-2.9-2.1-8.3 -8.4 5.8-14.3 15.2-11.6 17.9C198.7 192 199.2 185.2 211.4 181.4z" class="g"/><path d="M198.1 191.5L198.1 191.5c-0.3 0-0.6-0.1-0.8-0.3 -0.6-0.6-0.8-1.5-0.7-2.6 0.4-4.3 6-11.5 12.4-16l0.9-0.6 -0.2 1c-1.4 8.1 5.2 10.1 5.5 10.2l1.4 0.4 -1.4 0.4c-6.9 2.2-11.2 4.6-13.8 6C199.7 191 198.8 191.5 198.1 191.5zM208.7 174c-6.6 4.8-10.9 11.3-11.2 14.8 -0.1 0.8 0.1 1.5 0.5 1.9 0 0 0 0 0.1 0 0.5 0 1.5-0.6 2.9-1.3 2.5-1.4 6.5-3.6 12.8-5.7C211.8 182.7 208.1 180 208.7 174z" class="h"/><path d="M338.7 108.8c-1.2-30.1 18.5-54.4 49.8-56.7 31.3-2.3 71.8 3.9 74.1 117.1 16.2 8.5 69 16 56.8 54.8 -5.9 18.5-30 42.7-30 42.7s-7.1-15.8-11.1-25.2c0-6.7 1.4-14.1 1.4-14.1s-4.8-0.9-7.6-3.5c12.6 41.9 37.9 71.3 31.6 103.1 -6.4 32.6-44.2 44.8-77.1 22.5 -20-4.8-41.7 0.8-41.7 0.8s-21.5 12.3-43.4 5.1c-21.8-7.2-46.7-50.2-26.6-109.9C339.3 173.1 338.7 108.8 338.7 108.8z" class="i"/><path d="M478.3 241.5c0 0.1 0.1 0.2 0.1 0.3 0-0.1-0.1-0.2-0.1-0.3V241.5z" class="j"/><path d="M519.3 224c12-38.2-39-46.1-56-54.4 -0.3 18.9 1.2 38.9 9.2 55.8 -0.2-0.5-0.3-1-0.5-1.5 2.8 2.6 7.6 3.5 7.6 3.5s-1.4 7.4-1.4 14.1c0 0.1 0.1 0.2 0.1 0.3 4 9.5 11 24.9 11 24.9S513.5 242.5 519.3 224z" class="i"/><path d="M463.3 169.6c-0.2 11.7 0.3 23.9 2.7 35.4 1.9 7.8 8.6 13.7 17.8 12.1 -2.5 5.1-3.2 5.6-4.3 10.2 0.4 0.1 0.3 0.1 0.3 0.1s-1.4 7.4-1.4 14.1c0 0.1 0.1 0.2 0.1 0.3 4 9.5 7.2 16.6 7.2 16.6s25.9-17.3 31.7-35.8C529.4 184.4 480.3 177.9 463.3 169.6z" class="j"/><path d="M463.3 169.6c-0.2 11.7-0.5 19.5 1.9 31.1 1.9 7.8 15.1 13.3 21.2 13.3 -2.5 5.1-5.8 8.8-6.9 13.3 0.4 0.1 0.3 0.1 0.3 0.1s-1.4 7.4-1.4 14.1c0 0.1 0.1 0.2 0.1 0.3 4 9.5 5.1 12 5.1 12s26.4-15.4 32.5-33.8C527.9 184.1 480.3 177.9 463.3 169.6z" class="k"/><path d="M463.3 169.6c0 1.8-0.1 3.5-0.1 5.1 17.8 4.4 36.8 8.4 50.8 20.4C499.4 180 475.7 175.7 463.3 169.6z" class="l"/><path d="M479.7 227.4v0V227.4z" class="l"/><path d="M351.5 346.1c20.8-6.1 38.2-21.7 61.6-16.5 20 5.2 40.8 18.2 57.3 6.1 33.9-23.4 17.7-58.2-1.2-98.2 -6-13.4-9.5-31.2-11.3-40.7 -5.2-41.7 4.8-70.3-9.9-110.2 -1.3-3.9-8.1-13.3-10-17.2 -14.6-17.3-33.3-18.4-49.6-17.2 -31.3 2.3-50.9 26.6-49.8 56.7 0 0 0.6 64.3-23.7 136.6 -13.4 39.8-6.8 72.2 5.6 91.5 4.7 3.6 8.6 6.9 13.6 8.3C339.4 346.9 345.5 347.8 351.5 346.1z" class="j"/><path d="M331.6 340.9c21.7 5.2 38.2-10.4 56.4-16.5 26.9-8.7 48.4 17 75.3 3.1 19.1-10.4 20.6-40.4 12-56.9 -11.1-24.5-14.3-33.9-18.7-53 -12.2-50.3 7-107.2-20-148.4 -0.5-0.8-0.7-1.8-1.1-2.7 -14.2-14.6-31.7-15.5-47-14.4 -31.3 2.3-50.9 26.6-49.8 56.7 0 0 0.6 64.3-23.7 136.6 -12.5 37.1-7.6 67.8 3.2 87.4C320.9 337.7 326.1 339.1 331.6 340.9z" class="k"/><path d="M333.3 196.8c8.4-36.3 6-65.8 9.5-102.3 1.7-13.9 13.2-30 27.1-35.3 12.8-5.1 40.9-12 63.9 5.6 -16.1-15.5-37.5-13.4-45.4-12.8 -31.3 2.3-50.9 26.6-49.8 56.7 0 0 0.6 64.3-23.7 136.6 -12.3 36.5-7.7 66.8 2.6 86.5C298.9 274.1 320.9 250.4 333.3 196.8z" class="l"/><path d="M461.2 361.2c-11.7 0-23.8-3.9-34.7-11.4 -5.4-1.3-11.3-1.9-17.7-1.9 -12.5 0-22.8 2.5-23.6 2.7 -0.9 0.5-13.6 7.4-29 7.4 -5.1 0-10.1-0.8-14.7-2.3 -9.5-3.1-18.6-12.3-25-25.1 -6.8-13.7-16.2-42.9-1.9-85.3 24-71.4 23.7-135.8 23.7-136.4 -1.2-31.4 19.4-54.9 50.2-57.2 3.2-0.2 6-0.3 8.6-0.3 12.1 0 29.7 2.1 43.4 20.2 14.2 18.8 21.5 50.7 22.5 97.4 3.3 1.7 7.9 3.3 13.3 5.2 21.3 7.4 53.4 18.7 43.5 50 -5.6 17.7-27.3 40.1-29.9 42.7 9.4 20.5 18.3 39.9 14.3 60.3C500 347.8 483.2 361.2 461.2 361.2zM408.7 347.1c6.5 0 12.6 0.7 18 2l0.1 0.1c10.9 7.4 22.7 11.3 34.3 11.3 21.5 0 38.1-13.1 42.1-33.4 4-20-4.7-39.2-14.1-59.5l-1-2.2c-5.9-12.8-12-26.1-16.5-41.2l-0.5-1.5 1.2 1.1c2.7 2.5 7.3 3.4 7.4 3.4l0.4 0.1 -0.1 0.4c0 0.1-1.4 7.4-1.4 13.9 3.5 8.3 9.5 21.6 10.8 24.5 3.3-3.4 24.1-25.3 29.4-42.1 9.6-30.5-22-41.6-43-48.9 -5.5-1.9-10.3-3.6-13.6-5.3l-0.2-0.1 0-0.3c-0.9-46-8.5-78.7-22.3-97.1 -13.4-17.8-30.8-19.9-42.7-19.9 -2.6 0-5.4 0.1-8.5 0.3 -30.3 2.2-50.6 25.4-49.4 56.3 0 0.7 0.3 65.2-23.7 136.7 -14.2 42.1-4.9 71.1 1.9 84.7 6.2 12.5 15.4 21.7 24.5 24.7 4.5 1.5 9.4 2.2 14.4 2.2 15.6 0 28.5-7.2 28.6-7.3l0.1 0C385 349.8 395.6 347.1 408.7 347.1zM472.9 225.1c1.5 4.9 3.2 9.6 5 14.2 0.2-5.1 1-10.1 1.3-11.6C478.1 227.5 475.2 226.7 472.9 225.1z" class="m"/><path d="M471.7 224.1c-6.3-14.7-8.1-34.9-8.1-34.9 0.1 0.3 5 25.2 8.9 34.6L471.7 224.1z" class="m"/><path d="M480.1 227.5l-0.9-0.2c2-9.9 8.9-14.9 8.9-14.9C488.1 212.5 482 217.8 480.1 227.5z" class="m"/><path d="M387 186.8c19.8-2.4 44.7 4.8 52.5 49.9 7.8 45.1 23.9 76.8 11.7 95.9 -12.2 19.1-41.2 3.5-66.4 10.9 -25.2 7.4-54.1-24.7-53.8-70.7C331.5 226.7 351.4 191.2 387 186.8z" fill="#686D75"/><path d="M387 186.8c19.8-2.4 44.7 4.8 52.5 49.9 7.8 45.1 19.4 70.5 7.3 89.6 -12.2 19.1-38.9-0.7-64.1 6.7 -25.2 7.4-52-14.3-51.7-60.3C331.5 226.7 351.4 191.2 387 186.8z" fill="#7D828C"/><path d="M387 186.8c19.8-2.4 42.4 5.5 50.2 50.7 7.8 45.1 13.2 57.8 1.1 76.9 -12.2 19.1-30.4 4.6-55.6 12 -25.2 7.4-52-7.6-51.7-53.6C331.5 226.7 351.4 191.2 387 186.8z" fill="#8F939E"/><path d="M377.5 345c-8.7 0-17.7-4.3-25.4-12.1 -13.6-13.7-21.6-36.2-21.4-60.2 0.2-23.3 5.3-43.6 14.8-58.8 9.9-15.9 24.3-25.4 41.5-27.5 2.3-0.3 4.5-0.4 6.7-0.4 17.1 0 39.1 8.8 46.4 50.7 2.5 14.4 5.8 27.5 8.8 39 6.3 24.6 11.2 44 2.9 57.2 -5.7 9-15.1 10.2-23.5 10.2 -3.9 0-8-0.3-12.3-0.6 -4.5-0.3-9.2-0.7-13.9-0.7 -6.7 0-12.1 0.7-17 2.1C382.5 344.6 380 345 377.5 345zM393.6 186.8c-2.1 0-4.3 0.1-6.5 0.4 -33.9 4.1-55.2 36.9-55.5 85.5 -0.2 23.7 7.7 46 21.2 59.5 7.6 7.6 16.4 11.8 24.8 11.8 2.5 0 4.9-0.4 7.2-1 5-1.5 10.5-2.2 17.3-2.2 4.7 0 9.4 0.3 13.9 0.7 4.3 0.3 8.3 0.6 12.2 0.6 8.2 0 17.3-1.2 22.7-9.8 8.2-12.9 3.5-31.2-3-56.5 -3-11.6-6.3-24.7-8.8-39.1C432 195.5 410.4 186.8 393.6 186.8z" class="m"/><path d="M300.8 101.3c0.2-0.1 0.5 0.1 0.5 0.3 0.1 0.2-0.1 0.5-0.3 0.5 -0.2 0-18.3 4.7-25.6 17.2C275.3 119.5 278.9 108.4 300.8 101.3z" class="m"/><path d="M304.4 106.6c0.2-0.1 0.5 0 0.6 0.2 0.1 0.2 0 0.5-0.2 0.6 -0.2 0.1-23.4 11.8-24.6 31.7C280.1 139.3 278 121.3 304.4 106.6z" class="m"/><path d="M305.1 113.6c0.1-0.2 0.4-0.2 0.6-0.1 0.2 0.1 0.2 0.4 0.1 0.6 -0.1 0.2-10.7 15.8-11.2 32.4C294.6 146.7 292.1 133.9 305.1 113.6z" class="m"/><ellipse transform="matrix(-0.9697 -0.2441 0.2441 -0.9697 749.4487 294.6085)" cx="393" cy="100.9" rx="10.6" ry="16.3" class="j"/><ellipse transform="matrix(-0.9697 -0.2441 0.2441 -0.9697 745.8719 300.8839)" cx="391.6" cy="104.2" rx="9.9" ry="15.2" fill="#CACACA"/><path d="M399.2 111.8c0.8-1.5 1.5-3.3 2-5.1 2-8.1-0.6-15.8-5.8-17.1 -5.3-1.3-11.2 4.2-13.3 12.3 -0.2 0.9-0.4 1.8-0.5 2.6 0.3 0.5 0.6 1 1 1.4C386.6 111.5 392.9 112.7 399.2 111.8z" class="n"/><path d="M389.5 119.7c-0.6 0-1.2-0.1-1.7-0.2 -5.6-1.4-8.3-9.4-6.2-17.8 1.9-7.5 7-12.9 12.2-12.9 0.6 0 1.2 0.1 1.7 0.2 5.6 1.4 8.3 9.4 6.2 17.8C399.8 114.2 394.6 119.7 389.5 119.7zM393.7 89.8c-4.6 0-9.4 5.2-11.1 12.1 -2 7.8 0.5 15.2 5.5 16.5 0.5 0.1 1 0.2 1.5 0.2 4.6 0 9.4-5.2 11.1-12.1 2-7.8-0.5-15.2-5.5-16.5C394.7 89.9 394.2 89.8 393.7 89.8z" class="m"/><ellipse transform="matrix(-0.9697 -0.2442 0.2442 -0.9697 748.1075 306.4778)" cx="393" cy="106.9" rx="6.5" ry="10" class="o"/><ellipse transform="matrix(-0.9697 -0.2443 0.2443 -0.9697 748.3372 307.7237)" cx="393.3" cy="107.5" rx="3.5" ry="5.4"/><circle cx="393.3" cy="102" r="2.2" class="n"/><path d="M397.8 107.9c0 0.6-0.4 1-1 1 -0.5 0-1-0.4-1-1 0-0.5 0.5-1 1-1C397.4 106.9 397.8 107.3 397.8 107.9z" class="n"/><path d="M391.7 117.2c-0.4 0-0.8 0-1.2-0.1 -1.9-0.5-3.3-2-4.1-4.3 -0.8-2.2-0.8-4.9-0.1-7.6 1.3-5 4.7-8.7 8.2-8.7 0.4 0 0.8 0 1.2 0.1 1.9 0.5 3.3 2 4.1 4.3 0.8 2.2 0.8 4.9 0.1 7.6C398.6 113.6 395.2 117.2 391.7 117.2zM394.4 97.6c-3 0-6 3.4-7.2 7.9 -0.6 2.5-0.6 5 0.1 7 0.7 2 1.9 3.2 3.4 3.6 0.3 0.1 0.6 0.1 0.9 0.1 3 0 6-3.4 7.2-7.9 0.6-2.5 0.6-5-0.1-7 -0.7-2-1.9-3.2-3.4-3.6C395.1 97.6 394.8 97.6 394.4 97.6z" class="p"/><path d="M378.5 114.7c0 0-0.1 2.2 7.3 6.3 7.4 4.1 15.1 1.2 15.1 1.2C391.1 111.1 378.5 114.7 378.5 114.7z" class="k"/><path d="M400.9 122.2c-10.2-10-22.3-7.5-22.4-7.5 0 0 5.9-2.4 13.1 0.3C399.2 118 400.9 122.2 400.9 122.2z" class="m"/><ellipse transform="matrix(-0.9312 -0.3645 0.3645 -0.9312 654.6286 293.1708)" cx="355" cy="84.8" rx="9.2" ry="14.1" class="j"/><ellipse transform="matrix(-0.9312 -0.3646 0.3646 -0.9312 651.2476 297.003)" cx="353.7" cy="87" rx="8.6" ry="13.3" class="n"/><path d="M350.1 100.2c-0.5-0.1-1-0.2-1.5-0.4 -4.7-1.8-6.2-9-3.4-16.1 2.5-6.3 7.5-10.4 12-9.9 0.5 0.1 1 0.2 1.5 0.4 4.7 1.8 6.2 9 3.4 16.1C359.6 96.6 354.6 100.8 350.1 100.2zM357.1 74.8c-4-0.5-8.7 3.5-11 9.3 -2.6 6.6-1.3 13.3 2.9 14.9 0.4 0.2 0.8 0.3 1.3 0.3 4 0.5 8.7-3.5 11-9.3 2.6-6.6 1.3-13.3-2.9-14.9C357.9 74.9 357.5 74.8 357.1 74.8z" class="m"/><ellipse transform="matrix(-0.9312 -0.3646 0.3646 -0.9312 652.2523 302.105)" cx="354.6" cy="89.5" rx="5.7" ry="8.7" class="o"/><ellipse transform="matrix(-0.9311 -0.3647 0.3647 -0.9311 652.2365 303.2175)" cx="354.7" cy="90" rx="3.1" ry="4.7"/><circle cx="355.4" cy="85.3" r="1.9" class="n"/><circle cx="357.8" cy="90.8" r="0.9" class="n"/><path d="M352.3 98.3c-0.3 0-0.7-0.1-1-0.3 -1.6-0.6-2.7-2.1-3.1-4.2 -0.4-2-0.2-4.4 0.7-6.6 1.6-4.2 5-7 8.1-6.6 0.3 0 0.7 0.1 1 0.3 1.6 0.6 2.7 2.1 3.1 4.2 0.4 2 0.2 4.4-0.7 6.6C358.7 95.9 355.3 98.7 352.3 98.3zM356.9 81.6c-2.6-0.3-5.6 2.3-7.1 6 -0.8 2.1-1.1 4.3-0.7 6.1 0.4 1.8 1.3 3 2.5 3.5 0.3 0.1 0.5 0.2 0.8 0.2 2.6 0.3 5.6-2.3 7.1-6 0.8-2.1 1.1-4.3 0.7-6.1 -0.4-1.8-1.3-3-2.5-3.5C357.4 81.7 357.1 81.6 356.9 81.6z" class="p"/><path d="M361.6 70.6c0 0 2.4 24-19.3 25.7 8.1 7.3 16.3 10.4 22.4 6.2C380 91.6 361.6 70.6 361.6 70.6z" class="k"/><path d="M344.1 96.3l-0.1-0.9c18-1.8 17.5-22.6 17.5-22.8 0 0 1 6.9-2.2 13.3C356.9 90.8 352.4 95.4 344.1 96.3z" class="m"/><path d="M325.4 139.7c4.8 6.3 0.5 21.7 8 29.5 7.4 7.8 19.8 1.7 27.6-5.9 7.8-7.6 23-11.9 25.4-25.6 2.4-13.7-14.8-38.6-37.3-41.7 -8.1-1.5-28.4 4.3-50.2-11.9C285.2 92 303.7 131.8 325.4 139.7z" class="a"/><path d="M349.1 96.1c-8.1-1.5-28.4 4.3-50.2-11.9 -5.8 3.3-5 12.6-0.4 22.9 11 23 37.8 39.8 78.3 25.4 -12.2 12.2-30.4 10.7-46.7 8.4l0 0c0.6 5.5-1 17.8 4.9 25 6.8 8.4 18.6 1.4 26.5-6.2 7.8-7.6 22.1-10.2 25-22C389.7 124.3 371.5 99.1 349.1 96.1z" class="b"/><path d="M349.1 96.1c-8.1-1.5-28.4 4.3-50.2-11.9 -4.5 2.6-4.9 8.7-2.6 16.2 4.5 10.5 15 20.2 24.1 26.9 16.5 11.3 37.2 9 56.3 4.7 -10.3 12.4-29.2 12.9-45.3 9.8 0.7 6.9-1.1 15.3 4.3 21.3 7.1 8.1 17.5 1.3 25.3-6.3 7.8-7.6 21.2-11.3 23.1-23C386.4 120.2 371.5 99.1 349.1 96.1z" class="c"/><path d="M376.9 112.8c-7.2-9.9-20.7-15.7-27.8-16.7 -8.1-1.5-28.4 4.3-50.2-11.9 -1.3 0.8-2.3 1.8-2.9 3.2 29.3 16.2 45.3 8 57.7 11.7C359.9 101 371.9 106.9 376.9 112.8z" class="d"/><path d="M342 173.3h0c-3.5 0-6.6-1.3-8.9-3.8 -4.3-4.5-4.8-11.4-5.3-17.5 -0.4-4.7-0.7-9.2-2.7-11.9 -15.8-5.8-30-28.5-31.3-43.5 -0.5-6.2 1.1-10.6 4.8-12.7l0.2-0.1 0.2 0.2c13.9 10.3 27.2 11.6 37.2 11.6 1.8 0 3.4 0 4.9-0.1 1.3 0 2.5-0.1 3.7-0.1 1.9 0 3.3 0.1 4.3 0.3 11 1.5 22.2 8.7 29.9 19.3 5.9 8.1 8.8 16.6 7.7 22.9 -1.7 9.6-9.3 14.5-16.7 19.3 -3.3 2.1-6.4 4.2-8.8 6.5C355.1 169.7 347.9 173.3 342 173.3zM298.8 84.8c-4 2.5-4.5 7.7-4.2 11.7 1.3 14.8 15.3 37.2 30.8 42.8l0.1 0 0.1 0.1c2.2 2.9 2.5 7.5 2.9 12.5 0.5 6.3 1 12.8 5 17 2.2 2.3 5 3.5 8.3 3.5h0c6.7 0 14-4.8 18.7-9.4 2.5-2.4 5.6-4.5 9-6.6 7.2-4.7 14.7-9.5 16.3-18.8 1-6-1.8-14.5-7.5-22.2 -7.6-10.4-18.6-17.5-29.4-18.9 -1-0.2-2.3-0.3-4.2-0.3 -1.1 0-2.3 0-3.6 0.1 -1.5 0-3.2 0.1-4.9 0.1C326.2 96.4 312.9 95.1 298.8 84.8z" class="e"/><path d="M368.8 136.4c0 0-13.8 21.7-17.8 24.4 -4 2.7-12.6 2.9-15.3-1.5 -2.7-4.4-0.8-16.3-4.6-20.5C340.3 139.6 368.8 136.4 368.8 136.4z" fill="#1B0000"/><path d="M343.2 138.6c-4.9 0.3-9.3 0.4-12.1 0.1 3.8 4.2 1.8 16.1 4.6 20.5 0.6 0.9 1.4 1.7 2.4 2.2C335.9 150 339 145.4 343.2 138.6z" fill="#450000"/><path d="M351 160.8c1-0.7 2.6-2.5 4.4-4.9 -4-3.7-8.8-2.9-11.2-0.5 -1.4-2.4-6.6-0.3-9.3 2.1 0.2 0.7 0.5 1.3 0.8 1.9C338.4 163.7 347 163.5 351 160.8z" fill="#FF809E"/><path d="M350 158.6c1.2-1 2.8-3 3.3-4.3 -3.5-1.8-7.1-1-9 1 -1.4-2.4-6.2-0.5-9 1.8C337.5 162.7 345.7 162 350 158.6z" fill="#FF9EB5"/><ellipse cx="348.4" cy="155.6" rx="1.8" ry="0.6" class="q"/><circle cx="342.2" cy="155.9" r="0.6" class="q"/><path d="M343.7 163.2L343.7 163.2c-3.9 0-6.9-1.3-8.4-3.7 -0.3-0.5-0.6-1.2-0.8-2l-0.1-0.3 0.2-0.2c1.9-1.6 5-3.2 7.4-3.2 1 0 1.8 0.3 2.3 0.9 1.3-1.2 3.1-1.8 5-1.8 1.6 0 4 0.5 6.4 2.7l0.3 0.3 -0.2 0.3c-2.1 2.7-3.6 4.4-4.5 5C349.4 162.4 346.5 163.2 343.7 163.2zM335.4 157.5c0.2 0.6 0.4 1.1 0.6 1.5 1.2 2 4.1 3.3 7.6 3.3 2.7 0 5.3-0.7 7.1-1.9 0.8-0.6 2.2-2.1 4.1-4.5 -2.1-1.8-4.1-2.2-5.5-2.2 -1.8 0-3.6 0.7-4.8 1.9l-0.4 0.4 -0.3-0.5c-0.3-0.6-1-0.9-1.9-0.9C340 154.7 337.2 156.1 335.4 157.5z" fill="#FF416E"/><path d="M343.7 163.2c-3.9 0-6.9-1.3-8.4-3.7 -1.3-2.1-1.6-5.6-1.8-9.4 -0.3-4.4-0.7-8.9-2.7-11.1l-0.7-0.8 1.1 0.1c1 0.1 2.3 0.1 3.9 0.1 11.3 0 33.4-2.5 33.7-2.5l0.9-0.1 -0.5 0.8c-0.6 0.9-13.9 21.8-17.9 24.5C349.4 162.4 346.5 163.2 343.7 163.2zM332.1 139.3c1.6 2.6 2 6.7 2.3 10.8 0.3 3.6 0.5 7.1 1.7 9 1.2 2 4.1 3.3 7.6 3.3 2.7 0 5.3-0.7 7.1-1.9 3.5-2.3 14.7-19.7 17.2-23.5 -4.3 0.5-22.8 2.4-32.8 2.4h0C333.9 139.3 332.9 139.3 332.1 139.3z" class="e"/><path d="M325.4 139.7c37.8 10.6 51-7.4 51-7.4s-22.2-4.5-34.1-2.5C327.4 132.3 325.4 139.7 325.4 139.7z" class="a"/><path d="M376.2 132.6l0.2-0.2c0 0-22.2-4.5-34.1-2.5 -6.6 1.1-10.7 3.2-13.2 5.2C345.9 139.9 365.2 140 376.2 132.6z" class="b"/><path d="M376.2 132.1c-5.8-2.5-24.3-4.7-34.7-3 -4.4 0.7-9.3 1.6-9.3 3.9C346.6 136 362.5 136.5 376.2 132.1z" class="c"/><path d="M377.1 132.5c-1.8-1.9-3.9-1.8-3.9-1.8 0 0 1.3 0.4 2.6 1.7 -1.9 2.2-15.9 16.6-50.3 6.9l-0.2 0.8c8.6 2.4 15.9 3.3 22.1 3.3 18.7 0 27.3-8.5 29-10.5 0.8 1 1.6 2.3 2.1 4.2C378.5 137.2 378.8 134.3 377.1 132.5z" class="e"/><path d="M362.3 127.1c-5.3-12.4-33.1-15.3-33.4-15.4 -0.2 0-0.4-0.2-0.4-0.5 0-0.2 0.2-0.4 0.5-0.4C361.7 115.5 362.4 127.3 362.3 127.1z" class="m"/><path d="M346.4 156.4c0.4-22.5-26.4-40.5-26.7-40.7 -0.2-0.1-0.3-0.4-0.1-0.6 0.1-0.2 0.4-0.3 0.6-0.1C350.2 136.2 346.4 156.7 346.4 156.4z" class="m"/><path d="M324.4 162.6c5.2-31.3-11.8-46.8-12-47 -0.2-0.2-0.2-0.4 0-0.6 0.2-0.2 0.4-0.2 0.6 0C332.2 134.7 324.3 162.9 324.4 162.6z" class="m"/><path d="M312.1 101.3c3.2-4.7-1.2-14.9-10.4-19 -9.2-4.1-18.2 4.7-13.1 12.8C293.6 103.2 307.9 107.5 312.1 101.3z" fill="#2D2E2D"/><path d="M301.7 82.2c-5.3-2.3-10.5-0.4-13.1 3.2 -1.3 2.7-1.9 5.7 1 8.4 4.9 4.6 11.1 8.7 20.9 6.6 2.4-0.5 2.7-2 2.6-3.8C312.6 91.6 308.5 85.2 301.7 82.2z" fill="#3C3D3C"/><path d="M289.2 90.2c3.5 4.2 12.5 11.3 22.6 8.1 0.6-0.2 1.3-1.5 1.2-2.6 -0.8-4.8-4.9-10.6-11.3-13.4 -4.9-2.2-9.8-0.7-12.5 2.4C288.2 86.1 287.9 88.6 289.2 90.2z" fill="#464746"/><ellipse cx="296.1" cy="86.2" rx="4.6" ry="1.8" fill="#616161"/><path d="M303.2 84.8c4.8 2.6 8.2 6.5 9.7 12 0.1-0.3 0.1-0.7 0.1-1 -0.8-4.8-4.9-10.6-11.3-13.4 -4.9-2.2-9.8-0.7-12.5 2.4 -0.4 0.6-0.7 1.3-0.8 2C292 82.4 297.9 82.1 303.2 84.8z" fill="#676867"/><path d="M305.3 104.7h0c-6.3 0-13.9-4.1-17.1-9.3 -1.9-3-2-6.4-0.4-9.3 1.8-3.2 5.3-5.2 9.2-5.2 1.6 0 3.3 0.4 4.9 1.1 6.5 2.8 10 8.2 11.2 12.3 0.8 2.9 0.6 5.5-0.6 7.3C311 103.6 308.6 104.7 305.3 104.7zM296.9 81.6c-3.6 0-6.8 1.8-8.5 4.8 -1.5 2.6-1.3 5.7 0.4 8.5 3.1 5 10.3 9 16.4 9h0c2.1 0 4.9-0.5 6.5-2.8 1.1-1.6 1.3-3.9 0.5-6.6 -1.4-4.9-5.6-9.5-10.7-11.8C300 82 298.5 81.6 296.9 81.6z" fill="#161716"/><path d="M412 84.2c0 0-1.3-7.8-7.5-11.4 -1.4-1-2.5 1.3-1.4 1.7C404.1 75 409.2 77.9 412 84.2z"/><path d="M359.8 70.1c0 0 5-6.1 12.2-6.2 1.8-0.2 1.5 2.4 0.4 2.2C371.3 66 365.5 66 359.8 70.1z"/></svg>