<svg version="1.1" id="Layer_1" xmlns="http://www.w3.org/2000/svg" xmlns:xlink="http://www.w3.org/1999/xlink" viewBox="0 0 768 430" enable-background="new 0 0 768 430" xml:space="preserve">
<g id="Ç_xAE_ïÍÇ_x2265_ÇÒ">
	<g>
		<g>
			<path fill="#966024" d="M385.312,118.248c-0.594,5.92-7.159,12.712-2.894,19.061c2.823,4.202-3.117,16.124-10.621,20.08
				c1.696-6.5-10.617-4.371-11.185-8.87c-1.25-9.899,5.26-9.722,5.392-13.456c0.186-5.264-2.761-7.039-4.381-12.38
				c-2.326-7.674,6.23-18.363,14.107-16.87C380.131,106.648,385.759,113.791,385.312,118.248z"/>
			<g opacity="0.3">
				
					<path fill="none" stroke="#000000" stroke-width="0.8478" stroke-linecap="round" stroke-linejoin="round" stroke-miterlimit="10" d="
					M374.034,109.078c-7.373,3.801-6.288,18.238-4.216,22.453"/>
				
					<path fill="none" stroke="#000000" stroke-width="0.8478" stroke-linecap="round" stroke-linejoin="round" stroke-miterlimit="10" d="
					M374.198,134.216c1.696,7.277-7.537,10.456-2.29,17.804"/>
			</g>
		</g>
		<polygon fill="#FFD39F" points="403.715,138.62 389.624,138.62 391.862,111.21 401.477,111.21 		"/>
		<g>
			<g>
				<g>
					<path fill="#FFD39F" d="M428.79,81.066c-0.045,16.75-11.218,33.938-32.213,33.938c-21.622,0-32.231-17.246-32.187-33.996
						c0.044-16.75,15.192-33.542,32.28-33.542S428.834,64.316,428.79,81.066z"/>
					<g>
						<g>
							<path fill="#966024" d="M429.979,77.695c0,0-13.602-7.914-15.934-24.658c-13.07,17.103-51.032,24.022-51.032,24.022
								s1.374-34.96,33.657-34.96C429.16,42.099,429.979,77.695,429.979,77.695z"/>
							<g opacity="0.3">
								
									<path fill="none" stroke="#000000" stroke-width="0.8478" stroke-linecap="round" stroke-linejoin="round" stroke-miterlimit="10" d="
									M418.496,54.521c1.88,5.943,5.597,13.515,10.294,18.758"/>
								
									<path fill="none" stroke="#000000" stroke-width="0.8478" stroke-linecap="round" stroke-linejoin="round" stroke-miterlimit="10" d="
									M397.514,52.091c-4.663,6.594-22.484,11.828-29.231,11.828"/>
								
									<path fill="none" stroke="#000000" stroke-width="0.8478" stroke-linecap="round" stroke-linejoin="round" stroke-miterlimit="10" d="
									M409.982,47.466c-7.171,11.219-28.79,22.315-41.426,22.315"/>
							</g>
						</g>
					</g>
					<g>
						<path fill="#FFD39F" d="M370.626,83.779c0,4.21-2.809,8.036-6.274,8.036s-7.458-2.885-7.458-8.036
							c0-6.182,4.557-8.38,9.173-6.938C369.329,77.86,370.626,79.568,370.626,83.779z"/>
						<path fill="#FFD39F" d="M422.003,83.443c0,4.21,2.81,8.036,6.274,8.036s7.458-2.884,7.458-8.036
							c0-6.182-4.557-8.38-9.173-6.938C423.301,77.524,422.003,79.232,422.003,83.443z"/>
					</g>
				</g>
			</g>
			<g>
				<g>
					<path d="M387.482,78.442c0,0.385-0.021,0.757-0.128,1.098c-0.114,0.368-0.271,0.716-0.485,1.001
						c-0.229,0.307-0.509,0.582-0.822,0.756c-0.323,0.18-0.705,0.184-1.084,0.184s-0.746-0.033-1.069-0.213
						c-0.314-0.175-0.592-0.435-0.822-0.741c-0.213-0.285-0.396-0.618-0.51-0.985c-0.105-0.34-0.204-0.715-0.204-1.1
						s0.159-0.741,0.265-1.081c0.114-0.368,0.231-0.724,0.445-1.009c0.229-0.306,0.5-0.585,0.813-0.76
						c0.323-0.18,0.703-0.283,1.081-0.283c0.379,0,0.739,0.139,1.062,0.319c0.314,0.175,0.602,0.421,0.831,0.728
						c0.213,0.285,0.425,0.61,0.539,0.977C387.501,77.673,387.482,78.057,387.482,78.442z"/>
				</g>
				<g>
					<path d="M410.498,78.442c0,0.385-0.066,0.758-0.173,1.099c-0.114,0.368-0.289,0.704-0.503,0.989
						c-0.229,0.307-0.512,0.56-0.825,0.735c-0.323,0.18-0.688,0.223-1.066,0.223c-0.379,0-0.743-0.043-1.067-0.223
						c-0.312-0.175-0.616-0.414-0.845-0.721c-0.214-0.285-0.308-0.655-0.421-1.023c-0.107-0.34-0.192-0.694-0.192-1.079
						s0.085-0.739,0.191-1.079c0.114-0.368,0.264-0.698,0.477-0.983c0.23-0.307,0.457-0.624,0.771-0.798
						c0.323-0.18,0.708-0.213,1.087-0.213s0.71,0.131,1.032,0.311c0.314,0.175,0.605,0.388,0.836,0.694
						c0.213,0.285,0.413,0.602,0.527,0.969C410.433,77.684,410.498,78.057,410.498,78.442z"/>
				</g>
				
					<polyline fill="none" stroke="#000000" stroke-width="1.5543" stroke-linecap="round" stroke-linejoin="round" stroke-miterlimit="10" points="
					394.023,85.175 396.433,81.799 399.067,84.569 				"/>
				<g>
					
						<line fill="none" stroke="#000000" stroke-width="1.5543" stroke-linecap="round" stroke-linejoin="round" stroke-miterlimit="10" x1="386.37" y1="96.54" x2="384.252" y2="98.552"/>
					
						<line fill="none" stroke="#000000" stroke-width="1.5543" stroke-linecap="round" stroke-linejoin="round" stroke-miterlimit="10" x1="406.117" y1="96.066" x2="407.931" y2="97.783"/>
					
						<path fill="none" stroke="#000000" stroke-width="1.5543" stroke-linecap="round" stroke-linejoin="round" stroke-miterlimit="10" d="
						M385.785,97.783c0,0,5.32,5.505,10.292,5.505c6.038,0,10.515-6.274,10.515-6.274"/>
					
						<path fill="none" stroke="#000000" stroke-width="1.5543" stroke-linecap="round" stroke-linejoin="round" stroke-miterlimit="10" d="
						M394.023,106.484c0,0,0.736,0.947,2.165,0.829c1.428-0.119,2.257-0.829,2.257-0.829"/>
				</g>
			</g>
		</g>
	</g>
	<g>
		<g>
			<polygon fill="#FFD39F" points="391.957,387.808 386.107,387.808 382.142,230.725 395.924,230.725 			"/>
			<path fill="#FFD39F" d="M391.957,387.808c-0.156,4.739-1.072,8.634-8.562,10.985c-7.272,2.282-17.84,5.17-18.429,2.059
				c-0.589-3.112,14.188-11.977,21.27-15.684c1.4-0.117,5.744-0.56,5.744-0.56S392.025,385.745,391.957,387.808z"/>
			<path fill="#D66787" d="M391.931,388.443c-0.312,5.828-1.257,8.07-8.748,10.422c-7.272,2.283-17.189,4.973-18.429,2.059
				c-0.887-2.084,3.778-4.832,6.987-7.011c0.027,2.135,5.563,2.229,7.9,1.451c2.746-0.913,5.452-1.702,7.47-2.93
				C389.13,391.208,390.662,390.245,391.931,388.443z"/>
		</g>
		<g>
			<polygon fill="#FFD39F" points="400.672,387.808 406.521,387.808 410.487,230.725 396.705,230.725 			"/>
			<path fill="#FFD39F" d="M400.672,387.808c0.155,4.739,1.071,8.634,8.562,10.985c7.271,2.282,17.84,5.17,18.429,2.059
				c0.589-3.112-14.188-11.977-21.27-15.684c-1.401-0.117-5.744-0.56-5.744-0.56S400.604,385.745,400.672,387.808z"/>
			<path fill="#D66787" d="M400.698,388.443c0.312,5.828,1.257,8.07,8.747,10.422c7.272,2.283,17.19,4.973,18.43,2.059
				c0.887-2.084-3.778-4.832-6.987-7.011c-0.027,2.135-5.563,2.229-7.9,1.451c-2.746-0.913-5.452-1.702-7.471-2.93
				C403.499,391.208,401.967,390.245,400.698,388.443z"/>
		</g>
		<polygon fill="#5D5D5D" points="408.959,210.565 383.666,210.565 382.142,230.725 410.487,230.725 		"/>
	</g>
	<polygon fill="#FF8212" points="430.428,347.395 409.241,206.325 383.383,206.325 364.32,347.395 	"/>
	<polygon fill="#FFD39F" points="410.487,164.525 382.417,164.525 382.417,126.723 396.524,124.604 410.487,126.723 	"/>
	<g>
		<polygon fill="#FF9CB4" points="416.279,223.298 375.923,223.298 382.142,206.325 410.486,206.325 		"/>
		<path fill="#FF9CB4" d="M410.486,206.325h-28.345l-1.124-57.247l1.551-23.127c0,0,7.077,5.58,13.62,5.58
			c6.542,0,13.871-5.58,13.871-5.58l1.552,23.127L410.486,206.325z"/>
		<g>
			<g>
				<g>
					<polygon fill="#FFD39F" points="363.635,241.576 357.235,242.041 362.94,203.737 368.644,216.672 					"/>
				</g>
				<path fill="#FFD39F" d="M360.817,267.083c-0.693-2.396-0.638-12.018-0.638-12.018s-4.585,13.997-6.037,15.223
					c-0.363,0.307-0.91,0.43-1.451,0.01c0.9-2.743,2.351-8.21,2.351-8.21s-2.973,5.817-3.715,6.221
					c-0.797,0.434-1.597-0.707-1.597-0.707l0.773-1.881c0,0-0.335,0.815-0.947,0.797c-0.407-0.012-0.684-0.146-0.812-0.565
					c-0.112-0.364,2.931-7.021,2.931-7.021s-1.178,0.966-1.402,0.176l6.962-17.065l6.399-0.465l-1.366,27.465
					C362.269,269.041,361.511,269.479,360.817,267.083z"/>
				<g opacity="0.4">
					<polygon points="355.042,262.088 357.235,255.445 356.638,255.49 352.062,267.411 					"/>
					<polygon points="350.503,265.721 355.096,255.324 354.533,255.126 					"/>
					<polygon points="351.675,258.931 353.939,252.144 353.503,251.72 					"/>
				</g>
			</g>
			<path fill="#FF9CB4" d="M367.498,225.322l-8.554-2.024c0,0,12.835-74.595,16.607-85.928c3.801-11.418,7.018-11.418,7.018-11.418
				l-1.551,23.127L367.498,225.322z"/>
		</g>
		<g>
			<g>
				<g>
					<polygon fill="#FFD39F" points="428.717,241.576 435.117,242.041 429.413,203.737 423.708,216.672 					"/>
				</g>
				<path fill="#FFD39F" d="M431.534,267.083c0.693-2.396,0.639-12.018,0.639-12.018s4.586,13.997,6.038,15.223
					c0.362,0.307,0.909,0.43,1.45,0.01c-0.899-2.743-2.351-8.21-2.351-8.21s2.973,5.817,3.715,6.221
					c0.797,0.434,1.596-0.707,1.596-0.707l-0.771-1.881c0,0,0.335,0.815,0.946,0.797c0.407-0.012,0.684-0.146,0.812-0.565
					c0.112-0.364-2.932-7.021-2.932-7.021s1.178,0.966,1.402,0.176l-6.962-17.065l-6.4-0.465l1.366,27.465
					C430.083,269.041,430.842,269.479,431.534,267.083z"/>
				<g opacity="0.4">
					<polygon points="437.311,262.088 435.117,255.445 435.714,255.49 440.291,267.411 					"/>
					<polygon points="441.85,265.721 437.256,255.324 437.819,255.126 					"/>
					<polygon points="440.677,258.931 438.413,252.144 438.849,251.72 					"/>
				</g>
			</g>
			<path fill="#FF9CB4" d="M424.855,225.322l8.553-2.024c0,0-12.835-74.595-16.607-85.928c-3.8-11.418-7.018-11.418-7.018-11.418
				l1.552,23.127L424.855,225.322z"/>
		</g>
	</g>
</g>
</svg>
