<svg version="1.1" id="Layer_1" xmlns="http://www.w3.org/2000/svg" xmlns:xlink="http://www.w3.org/1999/xlink" viewBox="0 0 768 430" xml:space="preserve">
<path fill="#DDE4D0" d="M380.6,89.6c10.6,0,19.3-8.7,19.3-19.3c0-10.7-8.601-19.3-19.3-19.3c-10.6,0-19.3,8.7-19.3,19.3
	C361.3,80.9,370,89.6,380.6,89.6z M497.7,217.8c9.899,0,18-8.1,18-17.899c0-9.9-8-17.9-17.9-18c-9.899,0-18,8-18,17.9
	C479.8,209.7,487.8,217.8,497.7,217.8z M279.1,76c-1,0.2-1.8,2.1-2.5,3.4c-0.4,0.7-0.3,1.7-0.5,2.5c-1.2,6.8-2.3,13.6-3.5,20.9
	c-1.6-0.3-2.8-0.5-4-0.7c-14.9-2.5-29.8-5-44.7-7.5c-4-0.7-5.8,0.6-6.5,4.5c-0.4,2.3-0.8,4.6-1.2,6.8c-0.7,4.5,0.5,6.2,5,6.9
	c15,2.5,30,5.1,45,7.6c1,0.2,2,0.3,3.3,0.6c-0.2,1-0.3,1.8-0.4,2.5c-1.2,6.8-2.4,13.7-3.4,20.5c-0.2,1.4,0.6,3,0.9,4.5
	c1.6-0.4,3.2-0.7,4.8-1.1c0.3-0.1,0.6-0.4,0.9-0.7c12.3-8.9,24.6-17.9,36.9-26.8c0.6-0.4,1.1-1,1.7-1.5c-9.5-13.6-18.8-27-28.2-40.4
	C281.9,77,280.1,75.8,279.1,76z M382.5,193c-4,0-6,3.7-6,7.8c0,4,2.2,7.601,6,7.601c3.9,0,6-3.5,6-7.801
	C388.5,196.9,386.5,193,382.5,193z M548.3,193.3c-2.8-2.3-6-2.7-9.3-1.3c-2.6,1.1-4.2,3.1-5,5.7c-2.9,9.399-8.9,16.2-17.6,20.6
	c-5.9,3-12.101,4.4-18.601,4.9c-4.1,0.3-8.2,0.1-12.399-0.4c-6.101-0.7-12.101-2.3-17.9-4.399c-6.4-2.4-12.4-5.601-18.1-9.301
	c-3.101-2-6.301-2.199-9.5-0.5c-0.2,0.101-0.301,0.2-0.601,0.301c0-0.2,0-0.301,0.101-0.301c1.3-2.199,1.5-4.6,1-7.1
	c-1.101-5.3-2-10.7-3-16.1c-1.601-8.7-3.301-17.4-4.9-26.2c-1.7-8.8-3.3-17.7-5-26.5c-0.6-3.2-1.2-6.3-2.4-9.3
	c-3-7.7-7.899-14-14.5-18.8c-7.399-5.4-15.6-8.3-24.8-8.2c-3.6,0-7.1,0-10.7,0c-2.7,0-5.4,0.3-8.1,0.9c-8.2,1.8-15.2,5.8-21,11.7
	c-5.5,5.5-9.3,12.1-11,19.7c-0.7,3-1.2,6.1-1.8,9.2c-1.9,9.9-3.7,19.8-5.5,29.7c-2.2,11.6-4.4,23.2-6.5,34.8
	c-0.3,1.399-0.2,2.699,0.2,4c1.2,4,4.9,6.699,9,6.5c4.3-0.2,7.6-3.2,8.4-7.4c1-5.3,2-10.5,3-15.8c1.8-9.9,3.7-19.8,5.5-29.7
	c1.9-10,3.7-20,5.6-30c0.3-1.3,0.5-2.7,0.8-4c1.5-0.2,4.8-0.1,5.5,0.1c-7.2,38.2-14.4,76.5-21.6,114.8c5.5,0,10.9,0,16.4,0
	c0,0.6,0,1,0,1.5c0,21.699,0,43.3,0,65c0,0.899,0.1,1.899,0.2,2.8c0.9,4.8,4.6,8.6,9.5,9.5c5,0.899,9.2-0.8,12.2-4.9
	c1.6-2.1,2.2-4.6,2.2-7.2c0-21.8,0-43.5,0-65.3c0-0.399,0-0.899,0-1.399c1.9,0,3.6,0,5.5,0c0,0.5,0,0.899,0,1.399
	c0,21.601,0,43.2,0,64.8c0,0.7,0,1.5,0.1,2.2c0.7,4.8,3.399,8.2,7.899,9.8c4.601,1.601,8.801,0.7,12.4-2.6c2.7-2.4,3.8-5.6,3.8-9.2
	c0-21.7,0-43.399,0-65.1c0-0.4,0-0.9,0-1.4c5.5,0,10.8,0,16.2,0c-7.2-38.399-14.3-76.6-21.5-114.9c0.3,0,0.5-0.1,0.7-0.1
	c1.5,0,3.101,0,4.7,0c0.1,0.5,0.199,0.8,0.3,1.1c0.5,2.8,1,5.6,1.601,8.3c2.299,12.5,4.699,25,7,37.5c2,10.9,4.1,21.7,6.1,32.6
	c1.1,6.101,7.6,9.2,13,6.3c0.199-0.1,0.5-0.199,0.8-0.399c-0.2,0.3-0.2,0.5-0.3,0.6c-2.301,4.4-1.101,9.2,3,11.9
	c11.1,7.399,23.1,12.7,36.1,15.5c0.5,0.1,1.1,0.3,1.7,0.399c0,0.5,0,1,0,1.4c0,23,0,46,0.1,69c0,0.7,0,1.3,0.101,2
	c0.5,3.6,3,6.5,6.6,7.4c3.7,0.899,6.8-0.2,9.3-3.101c1.4-1.7,2-3.8,2-6.1c0-11.8,0-23.601,0.101-35.5c0-0.4,0-0.8,0-1.3
	c1.8,0,3.5,0,5.3,0c0,0.5,0,0.899,0,1.3c0,11.8,0,23.5,0,35.3c0,0.7,0,1.4,0.1,2.1c0.601,3.5,2.601,5.9,6,7.101
	c3.4,1.2,6.5,0.399,9.101-2c2-1.9,2.8-4.3,2.8-7c0-24,0-48.001,0-72.001c0-0.399,0-0.899,0-1.299c0.399-0.201,0.7-0.301,1-0.4
	c11.3-4.5,20.3-11.7,26.6-22.1c2.3-3.801,4.101-7.801,5.2-12.101C552.1,198.8,551.1,195.7,548.3,193.3z M368.8,210.1l-0.5-8.3
	c-0.1-2.6-0.3-5.8-0.3-8.1h-0.1c-0.6,2.2-1.4,4.6-2.4,7.1l-3.3,9.101h-1.8l-3-9c-0.9-2.7-1.6-5.101-2.2-7.301h-0.1
	c-0.1,2.301-0.2,5.5-0.4,8.301l-0.5,8.1H352l1.3-18.8h3.1l3.2,9.1c0.8,2.3,1.4,4.4,1.9,6.3h0.1c0.5-1.899,1.1-4,2-6.3l3.4-9.1h3.1
	l1.2,18.8h-2.5V210.1z M382.3,210.4c-5,0-8.5-3.9-8.5-9.5c0-6,3.7-9.9,8.7-9.9c5.1,0,8.5,3.9,8.5,9.5
	C391,207,387.1,210.4,382.3,210.4z M403.2,206.7h0.1c0.5-1.9,1.101-4,2-6.3l3.3-9.101h3.101l1.2,18.8h-2.4l-0.5-8.3
	c-0.1-2.6-0.3-5.8-0.3-8.1H409.6c-0.6,2.2-1.399,4.6-2.399,7.1l-3.3,9.101H402.1l-3-9c-0.899-2.7-1.6-5.101-2.199-7.301H396.8
	c-0.1,2.301-0.2,5.5-0.399,8.301l-0.5,8.1H393.6l1.301-18.8h3.1l3.2,9.1C402.1,202.7,402.7,204.8,403.2,206.7z"/>
</svg>
