<svg version="1.1" xmlns="http://www.w3.org/2000/svg"   viewBox="0 0 768 430" enable-background="new 0 0 768 430" xml:space="preserve"><path fill-rule="evenodd" clip-rule="evenodd" fill="#DDE4D0" d="M380.6 118.6c10.6 0 19.3-8.7 19.3-19.3C399.9 88.6 391.3 80 380.6 80c-10.6 0-19.3 8.7-19.3 19.3C361.3 109.9 370 118.6 380.6 118.6zM497.7 246.8c9.9 0 18-8.1 18-17.9 0-9.9-8-17.9-17.9-18-9.9 0-18 8-18 17.9C479.8 238.7 487.8 246.8 497.7 246.8zM279.1 105c-1 0.2-1.8 2.1-2.5 3.4-0.4 0.7-0.3 1.7-0.5 2.5-1.2 6.8-2.3 13.6-3.5 20.9-1.6-0.3-2.8-0.5-4-0.7-14.9-2.5-29.8-5-44.7-7.5-4-0.7-5.8 0.6-6.5 4.5-0.4 2.3-0.8 4.6-1.2 6.8-0.7 4.5 0.5 6.2 5 6.9 15 2.5 30 5.1 45 7.6 1 0.2 2 0.3 3.3 0.6-0.2 1-0.3 1.8-0.4 2.5-1.2 6.8-2.4 13.7-3.4 20.5-0.2 1.4 0.6 3 0.9 4.5 1.6-0.4 3.2-0.7 4.8-1.1 0.3-0.1 0.6-0.4 0.9-0.7 12.3-8.9 24.6-17.9 36.9-26.8 0.6-0.4 1.1-1 1.7-1.5-9.5-13.6-18.8-27-28.2-40.4C281.9 106 280.1 104.8 279.1 105zM382.5 222c-4 0-6 3.7-6 7.8 0 4 2.2 7.6 6 7.6 3.9 0 6-3.5 6-7.8C388.5 225.9 386.5 222 382.5 222zM548.3 222.3c-2.8-2.3-6-2.7-9.3-1.3-2.6 1.1-4.2 3.1-5 5.7-2.9 9.4-8.9 16.2-17.6 20.6-5.9 3-12.1 4.4-18.6 4.9-4.1 0.3-8.2 0.1-12.4-0.4-6.1-0.7-12.1-2.3-17.9-4.4-6.4-2.4-12.4-5.6-18.1-9.3-3.1-2-6.3-2.2-9.5-0.5-0.2 0.1-0.3 0.2-0.6 0.3 0-0.2 0-0.3 0.1-0.3 1.3-2.2 1.5-4.6 1-7.1-1.1-5.3-2-10.7-3-16.1-1.6-8.7-3.3-17.4-4.9-26.2-1.7-8.8-3.3-17.7-5-26.5-0.6-3.2-1.2-6.3-2.4-9.3-3-7.7-7.9-14-14.5-18.8-7.4-5.4-15.6-8.3-24.8-8.2-3.6 0-7.1 0-10.7 0-2.7 0-5.4 0.3-8.1 0.9-8.2 1.8-15.2 5.8-21 11.7-5.5 5.5-9.3 12.1-11 19.7-0.7 3-1.2 6.1-1.8 9.2-1.9 9.9-3.7 19.8-5.5 29.7-2.2 11.6-4.4 23.2-6.5 34.8-0.3 1.4-0.2 2.7 0.2 4 1.2 4 4.9 6.7 9 6.5 4.3-0.2 7.6-3.2 8.4-7.4 1-5.3 2-10.5 3-15.8 1.8-9.9 3.7-19.8 5.5-29.7 1.9-10 3.7-20 5.6-30 0.3-1.3 0.5-2.7 0.8-4 1.5-0.2 4.8-0.1 5.5 0.1-7.2 38.2-14.4 76.5-21.6 114.8 5.5 0 10.9 0 16.4 0 0 0.6 0 1 0 1.5 0 21.7 0 43.3 0 65 0 0.9 0.1 1.9 0.2 2.8 0.9 4.8 4.6 8.6 9.5 9.5 5 0.9 9.2-0.8 12.2-4.9 1.6-2.1 2.2-4.6 2.2-7.2 0-21.8 0-43.5 0-65.3 0-0.4 0-0.9 0-1.4 1.9 0 3.6 0 5.5 0 0 0.5 0 0.9 0 1.4 0 21.6 0 43.2 0 64.8 0 0.7 0 1.5 0.1 2.2 0.7 4.8 3.4 8.2 7.9 9.8 4.6 1.6 8.8 0.7 12.4-2.6 2.7-2.4 3.8-5.6 3.8-9.2 0-21.7 0-43.4 0-65.1 0-0.4 0-0.9 0-1.4 5.5 0 10.8 0 16.2 0-7.2-38.4-14.3-76.6-21.5-114.9 0.3 0 0.5-0.1 0.7-0.1 1.5 0 3.1 0 4.7 0 0.1 0.5 0.2 0.8 0.3 1.1 0.5 2.8 1 5.6 1.6 8.3 2.3 12.5 4.7 25 7 37.5 2 10.9 4.1 21.7 6.1 32.6 1.1 6.1 7.6 9.2 13 6.3 0.2-0.1 0.5-0.2 0.8-0.4-0.2 0.3-0.2 0.5-0.3 0.6-2.3 4.4-1.1 9.2 3 11.9 11.1 7.4 23.1 12.7 36.1 15.5 0.5 0.1 1.1 0.3 1.7 0.4 0 0.5 0 1 0 1.4 0 23 0 46 0.1 69 0 0.7 0 1.3 0.1 2 0.5 3.6 3 6.5 6.6 7.4 3.7 0.9 6.8-0.2 9.3-3.1 1.4-1.7 2-3.8 2-6.1 0-11.8 0-23.6 0.1-35.5 0-0.4 0-0.8 0-1.3 1.8 0 3.5 0 5.3 0 0 0.5 0 0.9 0 1.3 0 11.8 0 23.5 0 35.3 0 0.7 0 1.4 0.1 2.1 0.6 3.5 2.6 5.9 6 7.1 3.4 1.2 6.5 0.4 9.1-2 2-1.9 2.8-4.3 2.8-7 0-24 0-48 0-72 0-0.4 0-0.9 0-1.3 0.4-0.2 0.7-0.3 1-0.4 11.3-4.5 20.3-11.7 26.6-22.1 2.3-3.8 4.1-7.8 5.2-12.1C552.1 227.8 551.1 224.7 548.3 222.3zM368.8 239.1l-0.5-8.3c-0.1-2.6-0.3-5.8-0.3-8.1h-0.1c-0.6 2.2-1.4 4.6-2.4 7.1l-3.3 9.1h-1.8l-3-9c-0.9-2.7-1.6-5.1-2.2-7.3h-0.1c-0.1 2.3-0.2 5.5-0.4 8.3l-0.5 8.1H352l1.3-18.8h3.1l3.2 9.1c0.8 2.3 1.4 4.4 1.9 6.3h0.1c0.5-1.9 1.1-4 2-6.3l3.4-9.1h3.1l1.2 18.8H368.8zM382.3 239.4c-5 0-8.5-3.9-8.5-9.5 0-6 3.7-9.9 8.7-9.9 5.1 0 8.5 3.9 8.5 9.5C391 236 387.1 239.4 382.3 239.4zM403.2 235.7h0.1c0.5-1.9 1.1-4 2-6.3l3.3-9.1h3.1l1.2 18.8h-2.4l-0.5-8.3c-0.1-2.6-0.3-5.8-0.3-8.1h-0.1c-0.6 2.2-1.4 4.6-2.4 7.1l-3.3 9.1h-1.8l-3-9c-0.9-2.7-1.6-5.1-2.2-7.3h-0.1c-0.1 2.3-0.2 5.5-0.4 8.3l-0.5 8.1h-2.3l1.3-18.8h3.1l3.2 9.1C402.1 231.7 402.7 233.8 403.2 235.7z"/></svg>