<svg version="1.1" xmlns="http://www.w3.org/2000/svg" viewBox="0 0 768 430" xml:space="preserve"><style>.s0{fill:#DDE4D0;}.s1{fill:#409D8B;}</style><g transform="translate(3.9108 -90.648)"><path d="M344.4 228.2c8.6 23.8 0.3 48.6-18.5 55.4 -18.8 6.7-40.9-7.1-49.5-30.9 -8.6-23.8-0.3-48.6 18.5-55.4C313.7 190.5 335.9 204.4 344.4 228.2z" fill="#DDE4D0"/><path d="M331.5 236.9c5.2 14.6 0.2 29.7-11.3 33.8 -11.5 4.1-25-4.3-30.2-18.9 -5.2-14.6-0.2-29.7 11.3-33.8C312.8 213.9 326.3 222.4 331.5 236.9z" fill="#409D8B"/><path d="M454.7 228.2c-8.6 23.8-0.3 48.6 18.5 55.4 18.8 6.7 40.9-7.1 49.5-30.9s0.3-48.6-18.5-55.4C485.5 190.5 463.3 204.4 454.7 228.2z" fill="#DDE4D0"/><path d="M467.6 236.9c-5.2 14.6-0.2 29.7 11.3 33.8 11.5 4.1 25-4.3 30.2-18.9 5.2-14.6 0.2-29.7-11.3-33.8C486.4 213.9 472.9 222.4 467.6 236.9z" fill="#409D8B"/><path d="M320.7 207.8c1.3 63.3 18.6 88.2 40.4 88.2h76.9c21.8 0 35.1 1.7 39.5-78.7C481.8 137 319.5 144.5 320.7 207.8z" fill="#DDE4D0"/><path d="M361 179.6c-16.9 4.5-31.9 17.8-31.9 39.6 0 21.9 10 55 31.9 55h77.1c21.9 0 31.9-33.2 31.9-55 0-21.9-11.3-34.1-31.9-39.6 -20.6-5.5-34.3 10-38.5 10.1 -4.3 0.1-21.6-14.6-38.5-10.1H361z" fill="#409D8B"/><g transform="translate(-11.309 20)"><path d="M458.2 214.1c0 13-10.5 23.5-23.5 23.5 -13 0-23.5-10.5-23.5-23.5 0-13 10.5-23.5 23.5-23.5C447.6 190.6 458.2 201.1 458.2 214.1zM458.2 212.1c0 0-21.3-3.7-30.5-3.3 -9.3 0.4-16.5 3.3-16.5 3.3 0-13 10.5-23.5 23.5-23.5C447.6 188.6 458.2 199.1 458.2 212.1L458.2 212.1z" fill="#DDE4D0"/><path d="M442 212.1c0 4.1-3.3 7.4-7.4 7.4 -4.1 0-7.4-3.3-7.4-7.4 0-4.1 3.3-7.4 7.4-7.4C438.7 204.8 442 208.1 442 212.1z" fill="#409D8B"/></g><g transform="translate(8.6908 20)"><g transform="translate(67.286 34)"><path d="M322.5 182.1c0 13-10.5 23.5-23.5 23.5 -13 0-23.5-10.5-23.5-23.5s10.5-23.5 23.5-23.5C312 158.6 322.5 169.1 322.5 182.1z" fill="#DDE4D0"/></g><path d="M389.8 213.5c0 0-8.9-5.3-16.3-5.1 -16.6 0-30.8 5.1-30.8 5.1 0-13 10.5-23.5 23.5-23.5C379.3 189.9 389.8 200.5 389.8 213.5L389.8 213.5z" fill="#DDE4D0"/><path d="M373.6 213.5c0 4.1-3.3 7.4-7.4 7.4 -4.1 0-7.4-3.3-7.4-7.4 0-4.1 3.3-7.4 7.4-7.4C370.3 206.1 373.6 209.4 373.6 213.5z" fill="#409D8B"/></g><path d="M491.8 320.5c0 0-61.8-6.7-92.6-6.7 -30.9 0-92.6 6.7-92.6 6.7 0-37.5 41.5-67.9 92.6-67.9C450.3 252.5 491.8 283 491.8 320.5z" fill="#DDE4D0"/><g transform="matrix(.89218 0 0 .89218 32.708 47.643)"><path d="M381.5 260c-12.8-2.4-21.7-12-19.9-21.3 1.8-9.3 13.6-14.9 26.4-12.5 12.8 2.4 21.7 12 19.9 21.3C406.1 256.8 394.3 262.4 381.5 260zM435.8 260c12.8-2.4 21.7-12 19.9-21.3 -1.8-9.3-13.6-14.9-26.4-12.5 -12.8 2.4-21.7 12-19.9 21.3C411.2 256.8 423 262.4 435.8 260z" fill="#409D8B"/><path d="M385.3 251.6c-5.4-1-9.2-5.1-8.5-9.1 0.8-4 5.8-6.3 11.2-5.3 5.4 1 9.2 5.1 8.5 9.1C395.8 250.3 390.8 252.6 385.3 251.6zM431.3 251.6c5.4-1 9.2-5.1 8.5-9.1 -0.8-4-5.8-6.3-11.2-5.3 -5.4 1-9.2 5.1-8.5 9.1C420.8 250.3 425.9 252.6 431.3 251.6z" fill="#DDE4D0"/></g><path d="M491.8 325.7c0 0-61.8-6.7-92.6-6.7 -30.9 0-92.6 6.7-92.6 6.7 0 37.5 41.5 67.9 92.6 67.9C450.3 393.6 491.8 363.2 491.8 325.7z" fill="#DDE4D0"/></g></svg>