<svg version="1.1" id="Layer_5" xmlns="http://www.w3.org/2000/svg" xmlns:xlink="http://www.w3.org/1999/xlink" x="0px" y="0px"
 viewBox="0 0 768 430" enable-background="new 0 0 768 430" xml:space="preserve">
<path fill="#A99C86" d="M295.26,277.689c-2.722,4.479-18.329,9.677-18.329,9.677s-12.938-7.208-16.48,4.037l4.953,0.557
	c0,0-11.088,4.652-9.399,16.099c0,0,9.014-10.099,14.737-7.925c0,0-8.099,7.778-3.164,15.834c0,0,13.159-12.858,16.479-14.413
	c3.325-1.554,45.771-19.771,50.137-23.766C334.195,277.789,312.741,248.928,295.26,277.689"/>
<path fill="#C5B598" d="M571.125,223.529c0,0,86.334,35.518,58.261,88.658C601.311,365.327,451.239,344.195,397.24,385
	c0,0-9.728-11.03,50.743-28.309c60.466-17.274,174.5-19.673,163.048-68.027c-9.721-41.029-60.47-41.029-60.47-41.029
	S547.84,211.134,571.125,223.529"/>
<path fill="#685C47" d="M238.047,183.505c0,0-33.016-5.519-26.539-34.673c6.482-29.153,37.794-37.727,60.471-23.702
	c17.462,10.8,8.637,35.981,8.637,35.981S256.24,163.616,238.047,183.505"/>
<path fill="#C5B7A4" d="M238.047,183.505c0,0-22.273-6.699-18.443-31.637c3.403-22.098,27.044-28.939,42.095-20.317
	c15.047,8.619,9.816,29.56,9.816,29.56S253.418,166.702,238.047,183.505"/>
<path fill="#A99C86" d="M336.763,170.971c0,0-25.915-25.11-68.023-9.856c-42.113,15.254-75.584,101.635-126.334,85.44
	c0,0-16.202,11.876-7.562,19.438c8.638,7.554,75.584,29.149,113.379,14.035c0,0,79.9,22.676,124.175,10.8
	c0,0,171.686,76.659,197.597-60.471C595.912,93.223,415.59,71.626,336.763,170.971"/>
<g>
	<defs>
		<path id="SVGID_1_" d="M336.763,170.967c0,0-25.911-25.106-68.027-9.849c-42.109,15.25-75.584,101.631-126.334,85.433
			c0,0-16.194,11.88-7.558,19.438c8.641,7.561,75.584,29.153,113.379,14.039c0,0,79.903,22.676,124.175,10.8
			c0,0,171.682,76.664,197.597-60.471c15.172-80.277-40.349-120.961-104.795-120.968
			C419.557,109.381,369.444,129.781,336.763,170.967"/>
	</defs>
	<clipPath id="SVGID_2_">
		<use xlink:href="#SVGID_1_"  overflow="visible"/>
	</clipPath>
	<path clip-path="url(#SVGID_2_)" fill="#83785E" d="M121.166,247.635c0,0,71.572,43.26,131.529,16.771
		c0,0,49.156,17.416,82.988,13.102c33.836-4.318,38.874-20.395,38.874-20.395s159.817,44.524,197.964-42.049
		c0,0,17.857,27.24-12.239,63.131c-30.102,35.895-134.615,74.896-190.043,66.977c-55.432-7.917-125.504-6.475-159.571-21.593
		C176.597,308.461,101.013,285.425,121.166,247.635"/>
</g>
<path fill="#685C47" d="M301.93,165.568c0,0,4.066-83.697,66.948-52.652c62.906,31.056,6.759,93.243-29.952,82.447
	C338.926,195.363,326.769,162.33,301.93,165.568"/>
<path fill="#C5B7A4" d="M307.083,165.722c0,0,8.156-63.712,54.074-38.582c43.634,23.884,2.921,67.24-27.832,58.193
	C333.325,185.333,325.81,170.464,307.083,165.722"/>
<path d="M287.093,215.067c0,4.671-2.658,8.462-5.939,8.462c-3.282,0-5.936-3.791-5.936-8.462c0-4.674,2.654-8.466,5.936-8.466
	C284.435,206.601,287.093,210.393,287.093,215.067"/>
<path d="M252.695,215.067c0,4.671-2.662,8.462-5.94,8.462c-3.282,0-5.937-3.791-5.937-8.462c0-4.674,2.655-8.466,5.937-8.466
	C250.033,206.601,252.695,210.393,252.695,215.067"/>
<path fill="#753121" d="M252.695,263.027c0,0,25.376-20.518,30.233-24.835c0,0,12.125,19.433,0,29.694
	c-12.129,10.255-30.233-3.238-30.233-3.238"/>
<polygon fill="#F8DED1" points="262.632,254.964 267.631,262.293 276.988,253.311 270.507,248.539 "/>
<path fill="#A99C86" d="M354.401,267.428c0,0,10.796,23.759,9.356,28.797c-1.439,5.038-20.103,5.038-20.103,5.038
	s-10.85-10.076-16.968,0l4.678,1.714c0,0-11.879,1.885-12.958,13.401c0,0,11.159-7.66,16.198-4.19c0,0-9.716,5.633-6.837,14.63
	c0,0,15.838-9.356,19.437-10.076c3.599-0.724,49.16-8.316,54.349-11.159c5.188-2.844,13.675-33.056,13.675-33.847
	C415.237,257.979,369.879,242.236,354.401,267.428"/>
<path fill="#A99C86" d="M544.443,235.035c0-9.122-89.264,16.903-53.991,36.696c0,0,14.027,16.957,15.827,20.495
	c1.796,3.535,2.184,5.566,2.184,5.566s-9.685,0.491-6.634,5.188c0.206,0.31,0.413,0.535,0.619,0.798
	c-9.581,2.031-28.522,7.087-36.108,5.042c0,0-17.638-2.519-18,8.281c0,0,7.561-1.443,10.439,0c0,0-10.796,3.235-10.439,11.516
	c0,0,11.159-1.8,15.841-1.8c0,0-3.242,6.118-0.724,9.721c0,0,11.52-12.963,17.998-15.479c5.312-2.07,21.499-4.614,28.152-6.261l0,0
	c4.959,0.859,44.912,4.458,45.272-29.374C554.88,285.425,544.443,244.157,544.443,235.035"/>
<path fill="#513025" d="M150.091,250.962c-1.963,13.181-13.558,22.377-25.904,20.538c-12.342-1.835-20.751-14.01-18.788-27.193
	c1.963-13.184,13.558-22.377,25.896-20.541C143.638,225.604,152.054,237.778,150.091,250.962"/>
<path fill="#513025" d="M172.471,255.416c0,0,20.481-17.943,51.979-7.781C224.45,247.635,188.666,249.163,172.471,255.416"/>
<path fill="#513025" d="M172.471,262.293c0,0,40.31-7.329,54.961,11.954C227.432,274.247,199.95,261.1,172.471,262.293"/>
</svg>
