<svg version="1.1" xmlns="http://www.w3.org/2000/svg" xmlns:xlink="http://www.w3.org/1999/xlink" viewBox="0 0 768 430" style="enable-background:new 0 0 768 430;" xml:space="preserve"><g id="mouse"> <g>  <path id="path2407" style="fill:#DDE4D0;" d="M304.618,90.998c-0.273,1.853,5.83,1.244,7.487,0.372 c12.622-6.638,17.224-27.956,49.431-28.46c27.606-0.43,48.515,31.563,75.903,43.184v-1.536 c-7.506-4.329-17.557-12.192-31.207-25.881c-14.83-14.866-30.325-20.508-44.647-20.672C333.8,57.68,306.381,79.143,304.618,90.998 z"/>  <path id="path2386" style="fill:#DDE4D0;" d="M475.037,243C494.101,241.125,509,225.045,509,205.495 c0-20.814-16.892-37.706-37.704-37.706c-20.811,0-37.704,16.891-37.704,37.706c0,1.461,0.085,2.917,0.25,4.336"/>  <path id="path2388" style="fill:#DDE4D0;" d="M387.132,207.939c0.194-1.557,0.298-3.151,0.298-4.76 c0-20.812-16.871-37.704-37.683-37.704c-20.812,0-37.703,16.892-37.703,37.704c0,20.034,15.638,36.434,35.373,37.629"/>  <g> <g>  <path style="fill:#DDE4D0;" d="M413.857,94.999c-45.207,0-82.924,39.879-82.924,85.085c0,45.209,48.114,128.34,81.896,128.34   c32.861,0,81.896-83.131,81.896-128.34C494.726,134.878,459.064,94.999,413.857,94.999z M389.109,266.979   c-3.448,0-6.245-3.691-6.241-8.244c-0.004-4.549,2.793-8.24,6.241-8.24s6.245,3.691,6.241,8.24   C395.354,263.287,392.558,266.979,389.109,266.979z M434.056,266.979c-3.451,0-6.246-3.691-6.244-8.244   c-0.002-4.549,2.793-8.24,6.244-8.24c3.446,0,6.24,3.691,6.238,8.24C440.296,263.287,437.502,266.979,434.056,266.979z"/> </g>  </g>  <g id="g3221" transform="matrix(1.3917402,0,0,1.4058212,-239.24654,-659.88464)"> <path id="path2445" style="fill:none;stroke:#DDE4D0;stroke-width:1.7619;stroke-miterlimit:10;" d="M480.407,673.351  c28.109-11.051,40.126,0.991,37.953-0.999"/> <path id="path2447" style="fill:none;stroke:#DDE4D0;stroke-width:1.7619;stroke-miterlimit:10;" d="M477.911,677.846  c24.032-15.175,35.281,7.284,35.455,7.491"/> <path id="path2449" style="fill:none;stroke:#DDE4D0;stroke-width:1.7619;stroke-miterlimit:10;" d="M477.911,680.344  c19.973-9.988,26.806,14.542,26.806,14.542"/>  </g>  <g id="g3384" transform="matrix(-1.3917402,0,0,1.4058212,667.06082,-659.88464)"> <path id="path3386" style="fill:none;stroke:#DDE4D0;stroke-width:1.7619;stroke-miterlimit:10;" d="M194.545,673.351  c26.634-11.051,39.294-4.785,39.294-4.785"/> <path id="path3388" style="fill:none;stroke:#DDE4D0;stroke-width:1.7619;stroke-miterlimit:10;" d="M192.048,677.846  c20.269-10.532,36.726,3.254,36.726,3.254"/> <path id="path3390" style="fill:none;stroke:#DDE4D0;stroke-width:1.7619;stroke-miterlimit:10;" d="M192.048,680.344  c19.977-9.988,26.599,13.289,26.599,13.289"/>  </g> </g></g><g id="Layer_1"></g></svg>