<svg xmlns="http://www.w3.org/2000/svg" viewBox="0 0 768 430"><style>.a{fill:#5F5B4F;}.b{fill:#282520;}.c{fill:#494439;}.d{fill:#B2C3C5;}.e{fill:#CEE3E4;}.f{fill:#EBF4F4;}.g{fill:#717F7F;}.h{fill:#930302;}.i{fill:#3D0000;}.j{fill:#9F9D95;}.k{fill:#231F20;}.l{fill:#E6E7E8;}.m{fill:#FFF;}.n{fill:#4297FF;}.o{fill:#2788FF;}.p{fill:#B2B2B2;}.q{fill:#DADADA;}.r{fill:#F6F6F6;}</style><path d="M461.5 268.1c-22.6-14.1-34.2-42.5-42.6-66.6 -4.4-12.5-8-25.2-10.7-38.2 -0.5-2.5-0.4-15.9-4.6-16.9 -5.1-1.4-10.6 7.4-13.1 10.4 -3.3 3.9-6.4 8-9.5 12 -2 2.6-10.1 10-10.5 13.4 -1.2 10.1 7.1 0.4 9.4-2.8 6.6-9.1 13-21 21.9-28 2.1 21.7 11.4 44.8 20.2 64.6 8.8 19.6 20.9 43.1 41.2 53.1C462.7 268.8 462.1 268.4 461.5 268.1 460.3 267.4 462.7 268.8 461.5 268.1zM401.7 150.1C401.7 150.1 401.7 150.1 401.7 150.1L401.7 150.1z" class="a"/><path d="M463.2 269.4c-18.9-9.4-30.6-30.4-39.3-48.7 -9.9-21.1-19.4-45.3-22.3-68.6 -7.5 6.4-12.9 15.8-18.7 23.8 -2.1 2.9-4.2 5.8-6.4 8.6 -2.3 1.7-10.8 3.4-6.4-2.2 0.5-3.5 8.6-10.9 10.9-13.8 4.3-5.5 13.4-22.2 21.7-22.2 3.1 0.8 3.3 2.5 3.6 5.5 1.6 15.3 6.4 30.8 11.2 45.3 5.6 16.9 12.5 33.8 22.4 48.7C446.3 255.2 456.6 261.9 463.2 269.4zM402.1 150.9c4.3 35.8 21.3 80.9 46.6 106.9 -15.4-16.8-24.5-39.3-31.6-60.7 -3.3-9.8-6.1-19.8-8.4-29.9 -1.3-5.5-0.7-14.2-3.6-19.2 -8.4-7.4-28.1 28.7-34.7 34.3 -1.7 11.2 10.2-4.5 12-6.9C388.5 167.1 394.2 157.6 402.1 150.9zM401.7 150.4c-0.2-0.6-0.1-0.6 0.2-0.1C401.7 150 401.6 150.1 401.7 150.4z" class="b"/><path d="M398.7 272.1c-26.3-16.1-30.7-58-33.5-85.6 -0.8-8-1.4-16.1-1.8-24.1 -0.1-2.7 0.8-11.2-0.7-13.5 -0.6-1-0.2-2-1.3-2.9 -6.2-4.4-18.1 33.6-19.7 37.3 -1.1 2.4-2.2 4.7-3.4 7.1 -1.8 3.7 3.7 5.6 5.5 2 5.9-12.6 9.6-26.1 15.1-38.9 1.7 22.5 4 45 9.6 67 4.8 18.9 12.8 43.6 32 52.5C399.9 272.7 399.3 272.4 398.7 272.1 397.6 271.4 399.9 272.7 398.7 272.1z" class="c"/><path d="M398.7 272.1c-18.4-11.2-24.4-34.2-28.7-53.8 -2.6-12.1-4.9-24.3-6.5-36.6 -1.4-11-0.2-22.7-2.3-33.5 -0.7-3.3-2.5-2.8-4.1-0.7 -7.3 10.3-10.3 24.4-15.4 35.9 -1.1 2.4-2.2 4.7-3.4 7.1 -2.3 4.9 4.4 4.3 6.2 0.6 -0.3-2-0.4-4-0.3-6 1.4-3.3 2.7-6.7 4.1-10 3.1-7.9 6-15.5 10.8-22.6 1.8 23 3.6 45.7 9.4 68.2 4.8 18.9 12.8 43.6 32 52.5C399.9 272.7 399.3 272.4 398.7 272.1 397.6 271.4 399.9 272.7 398.7 272.1z" class="a"/><path d="M400.4 273.3c-17.9-8.4-25.9-30.4-30.9-48.2 -6.4-22.9-9-46.7-10.7-70.3 -4.7 11.3-8.2 23-13 34.2 -1 2.3-2.6 7.3-6.1 5.6 -4.2-2 0.8-8.9 1.9-11.3 2.8-6.2 10.5-37.9 18.6-37.9 6.7 0 5.9 45.2 6.6 51.2 2.3 17.5 5.7 35.5 13.1 51.7C384.9 259.1 393.5 265.5 400.4 273.3zM359.2 152.4c2.6 35.2 4.6 79.8 27.5 108.8 -17.8-24.1-20.8-59.2-22.8-88.1 -0.1-0.9 1-30.9-4.9-26.9 -4.9 2.9-7 13.1-9 18 -2.1 5.3-12 20.8-11.3 26.4 -1.8 3.8 3.5 4.8 5.2 1.3 2-4.3 3.8-8.8 5.4-13.3C352.6 169.8 355.5 160.9 359.2 152.4z" class="b"/><path d="M332.7 202c-1.2 10.8-15 8.5-19.1 16.8 -9.5 19.3-23.4 45-47.9 46 26.1-2.6 35.8-30.5 45.7-50.4 3.7-5.1 14.3-5.6 16-11.8C328 198.7 331.1 197.8 332.7 202z" class="a"/><path d="M265.7 265.1c4.4-2.1 11.5-3.3 16.4-6.8 12.6-9 20.2-23.6 26.2-37.5 2.7-6.1 3.5-9.5 10.3-12.2 2.4-1.5 12.3-10.6 13.8-8.9 6.4 7.7-16 14.2-19 20.1C304 239 289.8 264.1 265.7 265.1zM330.1 199.3c-1.5 0-6.1 7.7-8.2 8.6 -4.1 1.8-8.7 2.9-10.6 7.3 -4.6 5.9-6.4 15-10.2 21.5 -6 10.4-13.9 20.9-25.2 25.8 20.6-7.6 28.5-29.1 38.7-46.4 3.7-4 9.9-3.9 14.2-7.4C329.8 207.8 335.7 199.3 330.1 199.3z" class="b"/><path d="M380.8 228.7c2.6-1.8 27-16.2 26.4-11.5 -0.7 5.4-10.7 9.9-14.8 12C389.9 230.5 373.2 234 380.8 228.7 385.3 225.5 378.6 230.2 380.8 228.7z" fill="#3C3E36"/><path d="M380.8 228.7c1.8-1.3 25.1-15.5 25.8-12.2 1.8 8-26.3 11-27.6 13.7C379.5 229.6 380.1 229.1 380.8 228.7 382.4 227.5 378.6 230.2 380.8 228.7z" fill="#575D60"/><path d="M398.5 226.1c-3.8 2.4-13.8 9.5-18.7 7 -4.8-2.5 6.7-8.7 8-9.4 5.1-3.1 10.8-7.2 16.8-8.4C413 213.5 399.7 225.4 398.5 226.1 393.9 229.1 401.5 224.2 398.5 226.1zM385.5 226c-0.6 0.4-9.9 6.5-4.2 6.7 6.9 0.2 15.7-6 20.8-10 0.8-0.6 8.1-8.2 2.4-6.7C397.8 217.7 391.3 222.3 385.5 226 383.8 227.1 397 218.7 385.5 226z" fill="#33352E"/><path d="M372.7 178.9c6.2-37.7 41.6-72.6 70.4-94.7 11.4-8.8 71-46.1 74-9.6 2.4 29.6-35.5 61.4-55.5 77.7 -15 12.3-31.4 23.5-49.4 30.7C404 186.3 369.7 196.8 372.7 178.9 380.9 129 371.7 184.7 372.7 178.9z" class="d"/><path d="M372.7 178.9c5.9-36 38.8-69 66-90.7 13.9-11.1 29.9-21.9 47.4-25.9 8.2-1.9 25-2.9 26.9 8.6 1.8 11.1-7.6 23.4-13.8 31.6 -11 14.6-24.4 27.5-38.5 39.1 -14.6 12-30.5 23-47.8 30.8 -13.8 6.2-27.7 5.2-41.4 9.6C372.2 181.6 372.6 179.1 372.7 178.9 380.9 129 371.7 184.7 372.7 178.9z" class="e"/><path d="M376.1 184c2.3-18.5 13.6-36.7 24.2-51.6 19.9-28 46.5-51.2 76.1-68.5 -31.3 15.2-58.7 38.4-79.4 66.4 -7.6 10.3-14.4 21.3-19.4 33.1C376.1 167 368 185.8 376.1 184z" class="f"/><path d="M382.3 189c-34.4-3.2 32.7-80.5 41.4-88.8 15.3-14.5 32.6-28.2 52.3-36.3 12.9-5.3 39.7-10.1 41.4 10.6 2.4 28.8-33.8 59.8-53.1 76C443 168.3 412 191.8 382.3 189 372.7 188.2 383.3 189.1 382.3 189zM499.7 59.9c-15.8-1.5-32.2 7.9-44.9 16.3 -19.4 12.7-36.7 29-51.5 46.9 -12.1 14.6-23.8 31.3-29 49.8 -5.1 18.4 12.8 17.1 26.1 13.6 31.3-8.1 59.8-31.2 82-53.8C494.1 120.8 542.1 63.8 499.7 59.9 481.5 58.3 503 60.2 499.7 59.9z" class="g"/><path d="M381.5 180.4c-0.7-8.5 11.3-22.7 16.8-29.8 10.6-13.8 22.9-26.3 35.7-38 21-19.1 48.2-43.7 77-49.5 -7.5 5.5-21.2 8.9-30.2 14.5 -15.1 9.3-29.1 20.3-42.4 32.1C416.8 128.8 391.4 152.5 381.5 180.4z" class="g"/><path d="M459.3 92.5c3.5-4.8 19.3-6.1 25.6-7.3 10.2-1.8 21.1-3.8 31.6-3.1 -6.4 2.9-19.8 1.9-27.9 3.3C478.8 87.1 468.4 88.6 459.3 92.5z" class="g"/><path d="M386.3 182.1c-0.3-15.3 32.9-35.2 44.5-42.5 20.6-12.9 45.4-26.2 70.1-28.1 -6.2 3.9-19.7 4.8-27.7 7.9 -12.3 4.6-24.2 10.5-35.5 17.1C419.2 147.3 395.5 161.8 386.3 182.1z" class="g"/><path d="M447.6 130.9c4.1-6.2 29.1-1.4 36.3 0.6C473.9 134.3 458.8 125.2 447.6 130.9z" class="g"/><path d="M407.8 221.7c39.1-29.8 87.3 10.8 106 44.7 13.3 24.2 15.7 51.5 17.4 78.5 1.2 18.5 1.3 44.5 20.9 53.6 -20.8 4-44.1-5.2-62.4-14.2 -23.5-11.6-45.7-27.7-61.2-49 -13.4-18.6-23.6-40.3-28.7-62.6C396.3 257 393.1 232.9 407.8 221.7 432.4 202.9 381.6 241.6 407.8 221.7z" fill="#B20606"/><path d="M513.9 266.5c-6.1-11.2-14-21.7-23.2-30.5 -16.6 32.7-51.8 46.8-86.4 52.2 2.5 7.4 5.6 14.6 9 21.7 2.1 4.2 4.3 8.4 6.7 12.5 3.4 5.7 5.5 3.8 11.6 3 15.1-2.2 29.9-6.9 43-14.8C491.8 299.9 504.9 284.4 513.9 266.5 513.1 265 504.8 284.5 513.9 266.5z" class="h"/><path d="M533.2 366.6c-2.9-19.4-2.3-39-5.5-58.4 -14.3 30.1-41.9 46.1-73.8 53.3 12.4 10 26.2 18.5 40.8 25.1 9.2 4.2 12.2 2.1 20.5-3.6C521.7 378.3 527.8 372.7 533.2 366.6 530.7 350.2 525.9 375 533.2 366.6z" class="h"/><path d="M455.8 293.8c14.2 46.6 46 93.7 96.3 104.7 -18.5-8.7-19.5-32.3-20.7-49.9 -1.9-28.3-3.6-56.9-17.7-82.3 -18.4-33.3-67.8-75.4-106.3-44.3C441.4 228.6 447.3 265.8 455.8 293.8 467.2 331.2 444.7 257.4 455.8 293.8z" fill="#650103"/><path d="M513.9 266.5c-6.1-11.2-14-21.7-23.2-30.5 -5.8 11.5-14.1 21.4-24.5 29.1 -3.7 2.7-7.6 5.2-11.6 7.3 -6.6 3.6-3.7 5-1.8 11.6 3.2 10.9 6.6 21.6 11.1 32C486.2 305.9 503 288.1 513.9 266.5 513.1 265 507.3 279.5 513.9 266.5z" class="i"/><path d="M533.2 366.6c-2.9-19.4-2.3-39-5.5-58.4 -9.3 19.5-24 34-43.6 43.2 6.1 8.4 13 16.1 20.8 22.9 5.3 4.6 8.6 10.1 14.8 5.2C524.6 375.6 529.1 371.3 533.2 366.6 530.7 350.2 528.4 372 533.2 366.6z" class="i"/><path d="M543.2 399.6c-44.6 0-94-32.8-118.2-68.9 -18.6-27.7-52.7-100.8-3.4-116.6 47.4-15.2 90 34.8 102.1 75.1 6.9 22.8 6.6 46.5 8.9 70.1 1.5 15.4 4.9 32.6 20.6 39.4C549.9 399.3 546.5 399.6 543.2 399.6zM438 212.4c-67.3 0-34.2 85.2-13.1 117.1 14 21.1 33.6 37.3 55.5 49.6 20.2 11.4 46.7 23.1 70.6 19.3 -15.6-8-18-26.8-19.4-42.4 -1.9-22.3-2.1-44.8-8.6-66.5C512.1 252.9 479.4 212.4 438 212.4z" class="i"/><path d="M330.7 202.6c3.4-21.4 35.2-26.7 52.1-22 17.7 4.9 44.1 22.9 36.8 44.6C404.3 271.1 323.1 250.1 330.7 202.6 333.6 184.4 327.6 222.3 330.7 202.6z" fill="#141412"/><path d="M372 222c3.6 23.2 40.3 6.8 44.2-8.5 6.4-25.5-44.1-41-62-31.7C368.8 187.4 369.5 209.1 372 222 374.9 240.6 369.7 209.9 372 222z" fill="#383836"/><path d="M405.2 245.2c-19.4 12.4-51.1 5.6-65.9-11.4 -12.3-14.1-14-36.8 3.1-47.7 21.5-13.8 50.2-7.5 67.8 9.7C425.7 210.9 424.2 233.1 405.2 245.2 396.3 250.9 412.9 240.3 405.2 245.2zM343 186.9c-17.3 11-14.5 34.1-1.7 47.7 14.8 15.6 44.9 21.7 63.4 9.9 18-11.5 20-32.3 5.6-47.1C393.2 179.7 364.5 173.1 343 186.9 336.2 191.2 355 179.2 343 186.9z" fill="#050505"/><path d="M386.8 190.7c-4.2-9.2 12.4-18.9 18.3-22.2 20.9-11.9 45.5-17.4 69.1-20.2 27.1-3.2 55.5-3.4 82.5 1.3 14.9 2.6 35.9 7 44.9 20.7 22 33.2-67.3 46.3-82.2 47.5 -27.5 2.3-55.5 0.5-82.5-5.1C423.3 210 393.6 205.5 386.8 190.7 381.2 178.3 394 206.4 386.8 190.7z" class="d"/><path d="M386.8 190.7c-4.2-9.2 12.4-18.9 18.3-22.2 19.5-11.1 42.3-16.6 64.4-19.6 27.4-3.7 56.2-4.1 83.6 0.2 14.9 2.4 36.8 6.2 46.1 19.8 20.5 30.1-62.5 37.4-74.6 38.4 -28.4 2.4-57.2 2.9-85.7 0.3C425.7 206.5 393.6 205.6 386.8 190.7 381.2 178.3 394 206.4 386.8 190.7z" class="e"/><path d="M388.6 181.2c7.5-1.1 18.1-9.7 25.9-12.9 15.2-6.2 31.2-10.5 47.4-13.6 41.4-7.8 85-7.1 125.6 4.9 -31.5-14.6-70.4-15.4-104.4-12.3C451.4 150.3 411.8 157.2 388.6 181.2z" class="f"/><path d="M478.6 218.7c-12.2-0.8-114.3-12.6-87.5-40.4 27.4-28.5 81.3-32 117.8-32.4 22.4-0.3 45.6 1.1 67.1 8 11.3 3.7 31.7 12.4 28.8 27.8 -3.4 18.4-32.5 26.6-47.5 30.5C531.7 218.6 504.9 220.3 478.6 218.7 433.5 215.9 489.2 219.3 478.6 218.7zM531.9 147.2c-42-2.6-90.7 0.5-127.8 22.4 -7.9 4.7-24.2 15.7-13.4 25.3 14.3 12.8 38.6 16.4 56.8 19.4 44.2 7.3 104.4 9.4 143.4-17 14.8-10 17.1-24.9 1.8-35C575.4 150.9 552 148.4 531.9 147.2 518.7 146.4 574.8 149.9 531.9 147.2z" class="g"/><path d="M387.1 191c3.5-7.4 26.7-11.8 35-13.9 19.8-5.1 40.2-8.3 60.5-10.6 37.5-4.3 78.5-8.1 115.9-0.5 -3.9 1.3-12.3-1.2-17.3-1.6 -9.1-0.8-18.2-1.1-27.3-1.2 -21.4-0.1-42.8 1.1-64.1 3.4C456.8 170 416.1 173.2 387.1 191z" class="g"/><path d="M596.3 193.7c-7.5-8.3-18.9-14-28.6-19.1 -8.9-4.7-23.2-7.2-30.3-12.1 11.7 0.7 23.8 7.6 33.8 13.1C576.5 178.5 596.5 188.1 596.3 193.7z" class="g"/><path d="M557 212c-25.3-13.5-56.8-17.3-84.8-20.2 -16.2-1.7-32.4-2.6-48.7-2.5 -10.5 0.1-27.2 4.4-36.2 2.1 28.2-5.4 58.6-3.2 86.9-0.1 15.9 1.7 31.7 4.2 47.2 7.8C530.2 201.1 552.7 204.8 557 212z" class="g"/><path d="M518.1 218.1c-5.9-12.2-29.2-23.3-41.7-25.8C484.3 190.8 518.7 209.3 518.1 218.1z" class="g"/><path d="M282.1 155.9c9.6-23.4 27-49.8 52.4-57.6 -12.6 4.3-23.1 13.5-31 23.9 -4.3 5.6-8.2 11.6-11.5 17.8C289.6 144.4 286.7 157.2 282.1 155.9z" class="b"/><path d="M310.4 148.3c17.2 2.2 31.9 12.4 39.6 28 1.4 2.9 2.7 5.9 3.4 9 0 0 11 5.5 12.5 7.7 7.5 11 2.8 25.6-6.4 33.9 -16.5 15-46.4 17-67.5 14.2 -17.3-2.2-41.1-8.9-52.5-22.9 -6.5-8-13.1-30.9 2.5-33.9 7.3-1.4 10.6-13.5 16.3-19.5C271.9 150.5 291.3 145.8 310.4 148.3 346.3 152.9 262.4 142 310.4 148.3z" class="c"/><path d="M310.4 148.3c16.4 2.3 28.6 13.9 34.3 29.1 0.6 1.7 1 6.8 2.3 8.1 5.8 0.6 11.1 3.8 14.2 8.8 23.6 37.3-55.6 45.8-74.9 43.2 -16.7-2.2-39.5-9.1-49.2-23.9 -5.5-8.4-8.4-29.1 6.8-29.5 4.3-0.1 12.3-17.4 16.2-21.2C273.5 149.7 292.2 145.7 310.4 148.3 341.9 152.7 262.5 141.4 310.4 148.3z" class="a"/><path d="M250.7 175.5c11.8-16.6 29.3-31 67.8-25.4C282.1 142.1 262.4 157 250.7 175.5z" class="j"/><path d="M334.9 216c-0.4-1.7-2.8-3.8-3.5-4.6C333.7 212.2 335.1 214.5 334.9 216z" class="b"/><path d="M279.3 217c13.5-4.7 31.6-9.9 45.5-4.6 -15.3 6.9-34.3 8.3-50.8 10.6C275.8 221.1 277.6 219 279.3 217z" class="c"/><path d="M304.5 242.2c-22.7 0-85.7-15.2-70.9-50.8 2.2-5.3 11.5-6.1 12.3-8 3.5-8 8.4-15.4 14.8-21.4 12-11.2 28.2-15.7 44.4-14.6 16 1.1 30.9 7.7 40.5 21 3.6 5 6.6 10.8 8.1 16.7 8.2 1 14.1 7.6 15.8 15.4C376.6 234.6 327.6 242.2 304.5 242.2zM244.2 184.4c-17.9 0-10.8 25.9-4.2 33.8 11.1 13.5 33.6 19.9 50.2 22.4 24.8 3.7 77.8 0.2 79.1-34.1 0.3-6.4-2.1-13-7.1-17.1 -4-3.3-8.2-1.6-9.8-6.4 -4.7-14.3-15.6-26.1-29.7-31.4 -16.3-6.2-36.6-5.1-51.8 3.6 -7.6 4.3-13.9 10.5-18.7 17.8C249.9 176.5 248.7 184.4 244.2 184.4z" class="b"/><path d="M265.8 150.8c1.7-2.6 15-11.2 15.2-3.3C276.3 146.5 269.9 148.7 265.8 150.8 268.1 147.2 270.3 148.5 265.8 150.8z" class="k"/><path d="M341.9 156.9c-1.5-5.5-11.7-17.4-16.9-8.9C331 147.9 338 152.8 341.9 156.9 340.7 152.4 337.7 152.5 341.9 156.9z" class="k"/><path d="M337.2 188.3c-1.2 9.9-8.5 22.9-20.2 21.7 -11.7-1.2-15.6-15.5-14.4-25.3 1.2-9.9 8.5-22.9 20.2-21.7C334.5 164.2 338.4 178.5 337.2 188.3 335.5 201.3 338.8 175.3 337.2 188.3z" class="c"/><path d="M333.3 188c2.6-25.8-26.9-27.6-29.5-2.4C301.2 211.4 330.7 213.2 333.3 188 334.5 176.6 332.1 199.4 333.3 188z" class="l"/><path d="M330.2 185.8c2.3-22.8-23.7-24.3-26-2.1C301.9 206.5 327.9 208.1 330.2 185.8 331.2 175.8 329.2 195.9 330.2 185.8z" class="m"/><path d="M318.2 208.3c-21.2 1.5-19-36.7-2.3-42.3C338.3 158.5 341.1 206.4 318.2 208.3zM319 167.2c-18.1 1.5-20.3 40.6-0.8 39.4C336.3 205 338.3 165.6 319 167.2 311.8 167.7 319.5 167.1 319 167.2z"/><path d="M327.3 188.2c0.1-14.3-15.9-13.6-16 0.3C311.2 202.8 327.2 202.1 327.3 188.2 327.4 181.9 327.2 194.5 327.3 188.2z" class="n"/><path d="M324.9 186.9c0.1-10.2-11.3-9.6-11.4 0.2C313.4 197.3 324.8 196.7 324.9 186.9 324.9 182.4 324.8 191.3 324.9 186.9z" class="o"/><path d="M323.3 188.3c0.1-7.2-7.9-6.8-8 0.2C315.2 195.6 323.2 195.2 323.3 188.3 323.3 185.1 323.3 191.4 323.3 188.3z"/><path d="M320.5 177.8c-1.2-6.2-10.3-3.8-9.2 2.2C312.6 186.2 321.7 183.7 320.5 177.8 320 175.2 321 180.4 320.5 177.8z" class="m"/><path d="M325.2 197c-0.5-0.3-1-0.6-1.4-1 -1.5 1.2-1.3 2 0.5 2.5C324.6 198 324.9 197.5 325.2 197 325.1 196.3 325.3 197.7 325.2 197z" class="m"/><path d="M258.2 183.7c-1.3 26.9 29.4 27.9 30.7 1.2C290.1 158 259.5 157 258.2 183.7 257.6 195.6 258.7 171.7 258.2 183.7z" class="c"/><path d="M259.3 182.6c1.6-23.2 27.6-21.6 26 1.7C283.7 207.5 257.7 205.9 259.3 182.6 260 172.2 258.6 193 259.3 182.6z" class="l"/><path d="M259.6 181.4c1.4-20.5 24.4-19.1 23 1.5C281.2 202.7 258.2 202.6 259.6 181.4 260.3 172.2 259 190.6 259.6 181.4z" class="m"/><path d="M258.6 182.6c1.7-24.2 29.2-22.8 27.5 1.8C284.4 208.7 256.8 207.4 258.6 182.6 259.3 171.7 257.9 192.5 258.6 182.6zM273.6 165.4c-16.6-1.1-19.1 35-2.5 36C287.6 202.5 290.2 166.6 273.6 165.4 266.8 165 274 165.5 273.6 165.4z"/><path d="M266.4 183.1c2-12.8 15.9-10.2 13.9 2.4C278.2 198.2 264.3 195.7 266.4 183.1 267.3 177.4 265.4 188.8 266.4 183.1z" class="n"/><path d="M268.7 182.2c1.5-9.1 11.3-7.3 9.9 1.7C277.1 193 267.2 191.2 268.7 182.2 269.3 178.2 268 186.3 268.7 182.2z" class="o"/><path d="M269.8 183.7c1-6.4 7.9-5.1 6.9 1.2C275.7 191.3 268.8 190 269.8 183.7 270.3 180.8 269.4 186.5 269.8 183.7z"/><path d="M268.7 177c-2.2-5.4 5.7-8 7.8-2.8C278.7 179.5 270.8 182.1 268.7 177 267.8 174.7 269.6 179.2 268.7 177z" class="m"/><path d="M274.9 194c0.1-1.7 0.8-2 2-0.7C276.8 195 276.1 195.2 274.9 194 274.6 193.4 275.1 194.6 274.9 194z" class="m"/><path d="M345.7 186.4c1.4-1.1 5.2-1.7 7.8-1.2C352 185.5 347.7 185.8 345.7 186.4z" class="b"/><path d="M249.6 186.7c-1.2-1.4-3-1.8-3.6-2.8C247.5 184.3 249.9 186.9 249.6 186.7z" class="b"/><path d="M308 213.5C308 213.5 308 213.5 308 213.5L308 213.5z" class="p"/><path d="M319 230.2C319 230.2 319 230.2 319 230.2L319 230.2z" class="p"/><polygon points="297.6 227.9 297.6 227.9 297.6 227.9 " class="p"/><path d="M288.4 218.3C288.4 218.3 288.4 218.3 288.4 218.3L288.4 218.3z" class="p"/><path d="M308 213.5c-3.5 4.8-6.9 9.6-10.4 14.4 6.9 2.2 14.2 3.2 21.4 2.3C317.5 228 310.1 213.5 308 213.5z" class="q"/><path d="M311.9 219.4c-1.3-2-2.6-3.9-3.9-5.9 -2 0-8.9 12.4-10.4 14.4C304.6 230.1 320 231.1 311.9 219.4z" class="r"/><path d="M313.9 230.8c-5.7 0-11.3-1-16.7-2.8 1.6-2.2 8.7-15 11-14.8 2.5 0.1 9.7 14.7 11.4 17.3C317.7 230.7 315.8 230.8 313.9 230.8zM298.1 227.7c6.6 2.1 13.5 3 20.4 2.3 -3.5-5.3-7-10.7-10.5-16C304.7 218.6 301.4 223.2 298.1 227.7z" class="p"/><path d="M329.1 213l-10.1 17.2C335.5 228.2 338.4 216.4 329.1 213z" class="q"/><path d="M331.9 214.6c-4.8-3.9-10.1 11.2-12.4 15.3C326.3 228.4 335.9 222.9 331.9 214.6 331.2 214 335.6 222.4 331.9 214.6z" class="r"/><path d="M318.5 230.6c3.4-5.9 6.9-11.7 10.3-17.6 1.4-2.5 6.7 5.9 5.2 9.3C331.4 227.9 324 230.1 318.5 230.6zM329.2 213.4c-3.2 5.5-6.4 11-9.6 16.5C326 229 342.8 218.7 329.2 213.4z" class="p"/><path d="M324.9 212.2c-5.6-0.2-11.3 0.4-16.9 1.3 1.5 2.3 8.9 16.7 11 16.7 3.4-5.7 6.7-11.5 10.1-17.2C327.7 212.7 326.3 212.4 324.9 212.2 319.8 211.9 326.5 212.3 324.9 212.2z" class="q"/><path d="M319.9 224.3c2.3-3.8 4.3-7.8 5.7-12.1 -5.8-0.6-11.9 0.3-17.6 1.3C309.6 216 315.9 229.1 319.9 224.3 322.4 220 317.8 226.8 319.9 224.3z" class="r"/><path d="M318.9 230.5c-3.8-5.7-7.6-11.5-11.4-17.3 6.9-1.2 15.2-2.7 22-0.4C326.1 218.7 322.9 225.3 318.9 230.5zM308.5 213.7c3.5 5.3 7 10.7 10.5 16 3.2-5.5 6.4-11 9.7-16.5C322.5 211.1 314.7 212.6 308.5 213.7z" class="p"/><path d="M288.4 218.3c1.4 1.5 7.5 9.8 9.2 9.6 2.4-0.2 8.8-12.2 10.4-14.4C301.4 214.6 294.9 216.3 288.4 218.3z" fill="#EDEDED"/><path d="M288.4 218.3c1.4 1.5 7.5 9.8 9.2 9.6 2.4-0.2 8.8-12.2 10.4-14.4C301.4 214.6 294.9 216.3 288.4 218.3z" class="q"/><path d="M298.1 223.1c2-3 4-6.1 6.2-8.9 -5.4 1.1-10.7 2.5-15.9 4.1C289.6 219.5 296.2 228 298.1 223.1 300.2 220 297.3 225.1 298.1 223.1z" class="r"/><path d="M297.8 228.2c-3.5-2.9-6.7-6.7-9.9-10.1 6.8-2.1 13.7-3.9 20.8-5.1C305 218.1 301.4 223.1 297.8 228.2zM289 218.4c2.9 3 5.7 6 8.6 9 3.3-4.5 6.5-9 9.8-13.5C301.1 215 295 216.6 289 218.4z" class="p"/><path d="M288.4 218.3l-5.2 5.3C285 221.8 286.7 220 288.4 218.3c-4.5 1.4-8.9 2.9-13.4 4.4 8 0.2 15 2.8 22.5 5.2C296.5 226.8 289.4 217.9 288.4 218.3z" class="q"/><path d="M283.6 219.8c-2.7 0.9-5.9 2-8.5 2.9C278.1 222.8 283.6 224.8 283.6 219.8 280.8 220.7 283.6 221.6 283.6 219.8z" class="r"/><path d="M291 220.9c-2.8-5.2-5.1 0-7.7 2.7C285.7 224.1 295 226.6 291 220.9z" class="r"/><path d="M298.6 228.5c-7.8-2.5-15.3-5.3-23.5-5.5 0.1-0.2 0-0.4 0-0.6 4.9-1.1 9.6-3.3 14.4-4.8C289.8 220.9 295.8 225.5 298.6 228.5zM283.9 223.4c4.4 0.9 8.5 2.5 12.8 3.8 -2.7-2.9-5.4-5.7-8.2-8.6C287 220.2 285.1 221.7 283.9 223.4zM276.6 222.5c4.9 0.3 8 1.5 10.8-3.6C283.8 220 280.2 221.2 276.6 222.5 278.9 222.6 280.3 221.2 276.6 222.5z" class="p"/><path d="M313.9 230.8c-13.6 0-25.4-7.4-38.8-7.8 0.1-0.2 0-0.4 0-0.6 15.8-3.6 30.1-10.4 46.7-10.6 5.5-0.1 15.2 2.1 12.5 9.9C331.6 229.3 320.7 230.8 313.9 230.8zM276.6 222.5c13.1 0.7 49.7 19.3 57-0.9C340.6 202.7 281.6 220.7 276.6 222.5 283.8 222.9 295.4 215.8 276.6 222.5z" class="b"/><path d="M288.7 187.1c1.1-2.3 2.1-4.8 2.8-7.4L288.7 187.1z" class="a"/><path d="M253.7 219.4c-34.9 20.8-70.3 40.8-102.1 66.1 32.7-20.4 66.8-39.1 102.3-54.3 5.5-2.4 18.1-4.7 21.7-9.3 3.3-4.2 6.6-8.5 10-12.7 7.8-9.9 7.2-10 3.2-22C281.6 201.9 267.4 211.2 253.7 219.4 223.8 237.1 267.8 210.9 253.7 219.4z" class="c"/><path d="M253.7 219.4c-34.9 20.8-70.3 40.8-102.1 66.1 30.1-20.8 62-39 95.1-54.5 10.7-5 21.6-9.7 32.7-14 3.1-2.4 5.7-6.6 8.2-9.6 7.6-8.9 5.8-9.3 1.2-20.3C281.6 201.9 267.4 211.2 253.7 219.4 223.8 237.1 267.8 210.9 253.7 219.4z" class="a"/><path d="M289.2 186.7c-7.8 15.6-5.5 18.2-79.6 59.2C241.7 226.5 280.9 207.4 289.2 186.7z" class="j"/><path d="M151.7 285.7c8.7-10.7 25.8-20 37.9-27.9 13.7-9 27.7-17.4 41.8-25.7 12.1-7.1 24.6-13.8 36-21.9 12.1-8.6 17.2-19.2 24.5-30.4 -7.4 25.7-34.9 38-56.1 50.5 -27.5 16.1-54.7 32.7-79.9 52.3 37.8-23.1 77.5-45 119.2-60.1 -8.3 6-22.9 9.7-33.1 14.3 -13.5 6.2-26.8 12.9-39.9 19.9C185 265.8 168.2 275.5 151.7 285.7z" class="b"/><path d="M312 150.1c18.2-17.5 44.8-34.7 71.2-31.6 -13.2-1.2-26.6 3-38 9.4 -4.1 2.3-33 24-33.1 23.9C311.6 151 311.6 150.4 312 150.1z" class="b"/><path d="M474.6 210.8c-0.6-6.3-18.9 3.4-20.4 4 -17.6 6.2-35.5 13.3-53.8 17.6 -2.2 0.6-6.1 1.1-5.1 4.7 1.6 5.7 15.7-1.3 18.3-2.2 18.6-6.3 36.8-13.4 55.1-20.4 -24.7 49.9-52.9 114.8-11.7 164.6 -19.3-24.5-22.6-56-16.3-85.8 3.6-17.1 9.8-33.5 17.3-49.2C461.8 236 475.3 219.8 474.6 210.8 474.6 210.7 474.6 211.3 474.6 210.8z" class="c"/><path d="M473.3 208.9c-3-0.6-6.4 1.4-9 2.3 -10.9 3.8-21.7 7.7-32.6 11.4 -4.7 1.6-38.1 8.2-36.3 14.4 0.3 1.2 67.1-20.5 74-23.1 -24.8 50.2-53.9 114.9-12.3 165.2 -24-30.5-23.8-69.5-12.6-104.9 4.2-13.4 9.6-26.4 16-38.9C461.5 232.7 474.9 209.2 473.3 208.9 472.9 208.8 475.9 209.4 473.3 208.9z" class="a"/><path d="M456.7 379.3c-15.6-24.9-23.7-47.2-20-77.3 3.8-31.3 17.4-59.2 31.3-86.9 -7.9 3-70.9 30.3-73.1 22.1 -1.6-5.7 65-24.7 74.5-28.1 5.2-1.8 6 2 4 6 -9.4 18.5-19.6 36.1-26.3 55.8 -6.9 20-11.1 41.5-8.5 62.7 1.2 10 3.9 19.8 8.3 28.8C449.3 367.4 455.9 374.7 456.7 379.3zM469.3 213.9c-21.7 43.8-46.8 96.2-24.6 145 -14.8-36.2-4.8-76.2 10.9-110.3 3.7-8 7.7-15.9 12-23.6 1.4-2.6 7.6-10.2 6.8-13.3 1.1-5.7-9.7-0.3-11.1 0.2 -14.3 5.1-28.5 10.1-42.9 14.8 -5.9 1.9-11.8 3.7-17.7 5.4 -2.5 0.7-12.1 7-4.2 7 9.8 0 22.6-7.1 31.5-10.3C443 224 456.1 218.9 469.3 213.9z" class="b"/><path d="M398.2 205.1c0.1-1.8-0.5-4.2-2.4-4.8 -5.7-2.1-10 11-11.3 13.8 -1.1 2.3-15.9 33.2-6.7 29.1 3.6-1.6 4.8-9.7 5.9-12.6 2.8-7.1 5.6-14.4 9.2-21.2 -4.5 26.3-13 51.7-16.3 78.3 -2.9 22.8-5.2 51.8 9.5 71.3 -15.6-22.2-10.3-55.2-5.6-80.1 3.2-16.7 7.6-33.1 12.1-49.4C394.7 221.7 398.3 213.2 398.2 205.1z" class="c"/><path d="M397.2 201.8c-1-4.3-5.7-0.1-6.7 1.3 -7.3 10.3-11.7 23.4-16.6 34.9 -0.6 1.4-0.6 6.8 2.1 5 2.4-1.6 3.6-6 4.7-8.5 3.4-8 6-18.7 12.1-25.2 -4.5 26.3-13 51.7-16.3 78.3 -2.9 22.8-5.2 51.8 9.5 71.3 -11.2-16-11.1-39.1-9.5-57.9 1.4-17 4.5-33.9 8.4-50.5 2.6-11.3 5.7-22.6 9-33.7C395 213 398.2 206.1 397.2 201.8 396.9 200.6 397.2 201.9 397.2 201.8z" class="a"/><path d="M385.8 359.1c-14.6-19.7-12.4-48.4-9.6-71.4 3.3-26 10.8-50.9 16-76.4 -4.7 9.5-8.3 19.5-12.1 29.3 -1.7 4.5-8.8 3.3-6.8-1.7 -0.2-2 2.6-6.2 3.5-8.1 1-2.4 17.2-41.6 21.5-28.2 1.6 5.6-1.4 12.5-2.8 17.8 -4.5 16.4-9.2 32.8-12.8 49.5 -3.8 17.8-6.8 36.1-6 54.4C377.1 337.1 382.6 348.3 385.8 359.1zM393.5 207.6c-7.2 43.8-27.5 89.9-15.1 134.7 -8-31.2 1.5-66.9 9.6-97.2 2.1-7.9 15.1-35.9 9.1-43.6 -6-7.7-18.7 27-20.1 30.4 -0.9 2.2-4.2 6.9-3 9.5 2.2 5 5.7-0.9 6.5-3C384.3 228 388.2 217.4 393.5 207.6z" class="b"/><path d="M363.2 234.4c-3.5-0.9-4.4 6.2-5.4 8.3 -3.6 6.9-10.2 8.9-17.5 9.2 -1.2 0.1-1.6 0.2-2.6 1 -1.8 1.5-2.2 7.6-2.5 9.1 -2 10.1-4.4 20.2-9 29.4 -6 12.2-15.7 22.2-29.1 25.6 23.6-4.7 34.5-28.2 40.1-49.3 1.1-4 1.7-8.1 3.2-12 6.2 0 12.3-0.9 17.2-5.1C359.1 249.2 369.6 236 363.2 234.4 361.8 234 364.6 234.7 363.2 234.4z" class="c"/><path d="M363.2 234.4c-3.5-0.9-4.4 6.2-5.4 8.3 -3.6 6.9-10.2 8.9-17.5 9.2 -1.2 0.1-1.6 0.2-2.6 1 -1.8 1.5-2.2 7.6-2.5 9.1 -2 10.1-4.4 20.2-9 29.4 -6 12.2-15.7 22.2-29.1 25.6 22.6-4.5 32.5-27.4 38.2-47.4 1.2-4.3 1.1-15 6.5-15.6 5.9-0.7 11.3-1.6 15.4-6.4C357.7 246.8 365.1 234.9 363.2 234.4 361.8 234 363.9 234.5 363.2 234.4z" class="a"/><path d="M297.1 317.2c6.2-4.6 15.1-6.8 21.2-14 11-13.1 14-30.1 17.6-46.3 0.4-1.6 1-5.3 3.5-5.3 2.7-1.9 8.9-0.6 12.3-2.7 4.3-2.6 4.9-6.7 7.4-10.5 1.8-5.8 5.3-5.1 5.8 0.5 -3.1 11.4-12.9 17.1-24.4 17C331.4 280.1 327.8 311.1 297.1 317.2zM338.9 252.3c-3.7 3.5-3.4 9.9-4.5 14.7 -3.7 17-10.2 35.8-25.8 45.4 16.2-9.1 23.7-27.8 28.2-44.9 2.2-8.4 0.3-11.5 8.2-12.3 7.5-0.6 16-5.6 18.1-13.3 2.8-6.5 0.4-8.4-3.7-3C356.6 250 348.1 249.9 338.9 252.3z" class="b"/></svg>