<svg version="1.1" id="Layer_1" xmlns="http://www.w3.org/2000/svg" xmlns:xlink="http://www.w3.org/1999/xlink" viewBox="0 0 768 430" xml:space="preserve">
<path fill="#DDE4D0" d="M492.5,65.3L346.4,91c-2.5,0.5-4.1,2.4-4.1,4.6l-0.1,143.8c-7.8-4.9-17.5-7.801-28-7.801
	c-25.4,0-46.1,16.801-46.1,37.601s20.6,37.6,46.1,37.6s46.1-16.8,46.1-37.6V132.9l121.5-26.1v107.5c-7.899-5.1-17.899-8.2-28.7-8.2
	C427.7,206.1,407,222.9,407,243.7s20.6,37.6,46.1,37.6s46.101-16.8,46.101-37.6L500.1,72.2C500.3,65.2,497.1,64.4,492.5,65.3z"/>
</svg>
