<svg xmlns="http://www.w3.org/2000/svg" viewBox="0 0 768 430"><style>.a{fill:none;}.b{fill:#D67735;}.c{fill:#C45C16;}.d{fill:#C63914;}.e{fill:#A8231C;}</style><path d="M300.9 141.2l-10.1 6C294.1 145.1 297.5 143.1 300.9 141.2z" class="a"/><path d="M489.7 141.2h-12.6c4.3 2.4 8.5 4.9 12.6 7.6V141.2z" class="a"/><path d="M525.2 179.1v-2.5h-2.3C523.6 177.5 524.4 178.3 525.2 179.1z" class="a"/><path d="M241.6 192.8c-1.3 1.8-2.6 3.6-3.9 5.5h3.9V192.8z" class="b"/><rect x="220" y="247.5" width="21.6" height="21.6" class="b"/><path d="M277 156.8c-2.5 1.9-5 3.9-7.4 6h7.4V156.8z" class="b"/><rect x="397.2" y="141.2" width="21.6" height="21.6" class="b"/><rect x="361.7" y="141.2" width="21.6" height="21.6" class="b"/><rect x="503.5" y="318.4" width="21.6" height="21.6" class="b"/><path d="M508.4 162.8c-1.6-1.4-3.2-2.7-4.8-4v4H508.4z" class="b"/><rect x="503.5" y="247.5" width="21.6" height="21.6" class="b"/><path d="M503.5 176.6v21.6h21.6v-19.1c-0.8-0.8-1.5-1.7-2.3-2.5H503.5z" class="b"/><rect x="503.5" y="212.1" width="21.6" height="21.6" class="b"/><path d="M241.6 233.7v-21.6h-12.6c-3.3 5.9-6.4 12-9.1 18.3v3.3H241.6z" class="b"/><rect x="326.3" y="141.2" width="21.6" height="21.6" class="b"/><path d="M468.1 162.8h21.6v-14c-4.1-2.7-8.3-5.2-12.6-7.6h-9V162.8z" class="b"/><rect x="432.6" y="141.2" width="21.6" height="21.6" class="b"/><rect x="220" y="283" width="21.6" height="21.6" class="b"/><rect x="220" y="318.4" width="21.6" height="21.6" class="b"/><path d="M290.8 162.8h21.6v-21.6h-11.5c-3.4 1.9-6.8 3.9-10.1 6V162.8z" class="b"/><rect x="539" y="318.4" width="21.6" height="21.6" class="b"/><rect x="539" y="247.5" width="21.6" height="21.6" class="b"/><path d="M539 233.7h20.5c-3-7.5-6.5-14.7-10.5-21.6h-10V233.7z" class="b"/><rect x="539" y="283" width="21.6" height="21.6" class="b"/><path d="M540.3 198.3c-0.4-0.6-0.9-1.3-1.3-1.9v1.9H540.3z" class="b"/><rect x="255.4" y="176.6" width="21.6" height="21.6" class="b"/><rect x="397.2" y="212.1" width="21.6" height="21.6" class="b"/><rect x="361.7" y="212.1" width="21.6" height="21.6" class="b"/><rect x="326.3" y="212.1" width="21.6" height="21.6" class="b"/><rect x="432.6" y="247.5" width="21.6" height="21.6" class="b"/><rect x="432.6" y="212.1" width="21.6" height="21.6" class="b"/><rect x="432.6" y="283" width="21.6" height="21.6" class="b"/><rect x="290.8" y="212.1" width="21.6" height="21.6" class="b"/><rect x="290.8" y="318.4" width="21.6" height="21.6" class="b"/><rect x="290.8" y="247.5" width="21.6" height="21.6" class="b"/><rect x="432.6" y="318.4" width="21.6" height="21.6" class="b"/><rect x="290.8" y="283" width="21.6" height="21.6" class="b"/><rect x="397.2" y="283" width="21.6" height="21.6" class="b"/><rect x="397.2" y="318.4" width="21.6" height="21.6" class="b"/><rect x="361.7" y="247.5" width="21.6" height="21.6" class="b"/><rect x="397.2" y="247.5" width="21.6" height="21.6" class="b"/><rect x="361.7" y="283" width="21.6" height="21.6" class="b"/><rect x="361.7" y="318.4" width="21.6" height="21.6" class="b"/><rect x="326.3" y="247.5" width="21.6" height="21.6" class="b"/><rect x="326.3" y="318.4" width="21.6" height="21.6" class="b"/><rect x="326.3" y="283" width="21.6" height="21.6" class="b"/><rect x="255.4" y="318.4" width="21.6" height="21.6" class="b"/><rect x="255.4" y="283" width="21.6" height="21.6" class="b"/><rect x="255.4" y="212.1" width="21.6" height="21.6" class="b"/><rect x="255.4" y="247.5" width="21.6" height="21.6" class="b"/><rect x="290.8" y="176.6" width="21.6" height="21.6" class="b"/><rect x="468.1" y="247.5" width="21.6" height="21.6" class="b"/><rect x="326.3" y="176.6" width="21.6" height="21.6" class="b"/><rect x="468.1" y="283" width="21.6" height="21.6" class="b"/><rect x="468.1" y="318.4" width="21.6" height="21.6" class="b"/><rect x="432.6" y="176.6" width="21.6" height="21.6" class="b"/><rect x="397.2" y="176.6" width="21.6" height="21.6" class="b"/><rect x="468.1" y="212.1" width="21.6" height="21.6" class="b"/><rect x="361.7" y="176.6" width="21.6" height="21.6" class="b"/><rect x="468.1" y="176.6" width="21.6" height="21.6" class="b"/><rect x="503.5" y="283" width="21.6" height="21.6" class="b"/><path d="M444.8 127.4c-4-1.3-8.1-2.4-12.2-3.4v3.4H444.8z" class="b"/><path d="M383.4 127.4v-8.6c-7.3 0.2-14.5 0.9-21.6 1.9v6.6H383.4z" class="b"/><path d="M206.1 283.7c-0.6 6.3-1 12.7-1 19.2 0 0.6 0 1.2 0 1.8h1V283.7z" class="b"/><path d="M205.8 318.4c0.1 1.2 0.2 2.4 0.3 3.6v-3.6H205.8z" class="b"/><path d="M347.9 123.3c-5 1.1-9.9 2.5-14.8 4h14.8V123.3z" class="b"/><path d="M418.8 127.4v-6.2c-7.1-1.2-14.3-1.9-21.6-2.2v8.5H418.8z" class="b"/><rect x="539" y="340.1" width="21.6" height="13.8" class="c"/><rect x="468.1" y="340.1" width="21.6" height="13.8" class="c"/><rect x="220" y="340.1" width="21.6" height="13.8" class="c"/><rect x="326.3" y="340.1" width="21.6" height="13.8" class="c"/><rect x="503.5" y="340.1" width="21.6" height="13.8" class="c"/><rect x="397.2" y="340.1" width="21.6" height="13.8" class="c"/><rect x="290.8" y="340.1" width="21.6" height="13.8" class="c"/><rect x="361.7" y="340.1" width="21.6" height="13.8" class="c"/><rect x="432.6" y="340.1" width="21.6" height="13.8" class="c"/><rect x="255.4" y="340.1" width="21.6" height="13.8" class="c"/><rect x="220" y="304.6" width="21.6" height="13.8" class="c"/><rect x="468.1" y="304.6" width="21.6" height="13.8" class="c"/><rect x="361.7" y="304.6" width="21.6" height="13.8" class="c"/><rect x="432.6" y="304.6" width="21.6" height="13.8" class="c"/><rect x="326.3" y="304.6" width="21.6" height="13.8" class="c"/><rect x="255.4" y="304.6" width="21.6" height="13.8" class="c"/><path d="M206.1 304.6h-1c0 4.6 0.3 9.3 0.6 13.8h0.3V304.6z" class="c"/><rect x="397.2" y="304.6" width="21.6" height="13.8" class="c"/><rect x="539" y="304.6" width="21.6" height="13.8" class="c"/><rect x="503.5" y="304.6" width="21.6" height="13.8" class="c"/><rect x="290.8" y="304.6" width="21.6" height="13.8" class="c"/><rect x="503.5" y="269.2" width="21.6" height="13.8" class="c"/><rect x="468.1" y="269.2" width="21.6" height="13.8" class="c"/><rect x="220" y="269.2" width="21.6" height="13.8" class="c"/><rect x="361.7" y="269.2" width="21.6" height="13.8" class="c"/><rect x="397.2" y="269.2" width="21.6" height="13.8" class="c"/><rect x="290.8" y="269.2" width="21.6" height="13.8" class="c"/><rect x="255.4" y="269.2" width="21.6" height="13.8" class="c"/><rect x="432.6" y="269.2" width="21.6" height="13.8" class="c"/><rect x="539" y="269.2" width="21.6" height="13.8" class="c"/><rect x="326.3" y="269.2" width="21.6" height="13.8" class="c"/><rect x="255.4" y="233.7" width="21.6" height="13.8" class="c"/><rect x="220" y="233.7" width="21.6" height="13.8" class="c"/><rect x="503.5" y="233.7" width="21.6" height="13.8" class="c"/><rect x="326.3" y="233.7" width="21.6" height="13.8" class="c"/><rect x="397.2" y="233.7" width="21.6" height="13.8" class="c"/><rect x="468.1" y="233.7" width="21.6" height="13.8" class="c"/><rect x="290.8" y="233.7" width="21.6" height="13.8" class="c"/><path d="M539 233.7v13.8h21.6v-10.8c-0.4-1-0.8-2-1.2-3H539z" class="c"/><rect x="432.6" y="233.7" width="21.6" height="13.8" class="c"/><rect x="361.7" y="233.7" width="21.6" height="13.8" class="c"/><rect x="361.7" y="127.4" width="21.6" height="13.8" class="c"/><path d="M326.3 141.2h21.6v-13.8h-14.8c-2.3 0.7-4.6 1.5-6.9 2.3V141.2z" class="c"/><path d="M312.5 135.4c-3.9 1.8-7.8 3.7-11.5 5.8h11.6V135.4z" class="c"/><rect x="397.2" y="127.4" width="21.6" height="13.8" class="c"/><path d="M432.6 141.2h21.6V130.7c-3.1-1.2-6.2-2.3-9.4-3.3h-12.2V141.2z" class="c"/><path d="M477.1 141.2c-2.9-1.6-5.9-3.1-9-4.6v4.6H477.1z" class="c"/><path d="M539 212.1h10c-2.7-4.7-5.6-9.3-8.7-13.8h-1.3V212.1z" class="c"/><rect x="468.1" y="198.3" width="21.6" height="13.8" class="c"/><rect x="255.4" y="198.3" width="21.6" height="13.8" class="c"/><rect x="503.5" y="198.3" width="21.6" height="13.8" class="c"/><rect x="326.3" y="198.3" width="21.6" height="13.8" class="c"/><rect x="361.7" y="198.3" width="21.6" height="13.8" class="c"/><path d="M237.7 198.3c-3.1 4.5-6 9.1-8.7 13.8h12.6v-13.8H237.7z" class="c"/><rect x="290.8" y="198.3" width="21.6" height="13.8" class="c"/><rect x="432.6" y="198.3" width="21.6" height="13.8" class="c"/><rect x="397.2" y="198.3" width="21.6" height="13.8" class="c"/><path d="M503.5 176.6h19.3c-4.6-4.9-9.4-9.5-14.5-13.8h-4.8V176.6z" class="c"/><rect x="468.1" y="162.8" width="21.6" height="13.8" class="c"/><rect x="361.7" y="162.8" width="21.6" height="13.8" class="c"/><rect x="397.2" y="162.8" width="21.6" height="13.8" class="c"/><rect x="432.6" y="162.8" width="21.6" height="13.8" class="c"/><path d="M255.4 176.4v0.3h21.6v-13.8h-7.4C264.6 167.1 259.9 171.6 255.4 176.4z" class="c"/><rect x="326.3" y="162.8" width="21.6" height="13.8" class="c"/><rect x="290.8" y="162.8" width="21.6" height="13.8" class="c"/><path d="M560.6 304.6h12.2c0-0.6 0-1.2 0-1.8 0-6.7-0.4-13.3-1.1-19.9h-11.2V304.6z" class="d"/><path d="M560.6 340.1h8.5c1.4-7.1 2.5-14.3 3.1-21.6h-11.6V340.1z" class="d"/><path d="M560.6 269.2h9.2c-1.4-7.4-3.2-14.6-5.4-21.6h-3.8V269.2z" class="d"/><path d="M560.6 353.9h5.1c1.3-4.5 2.4-9.1 3.4-13.8h-8.5V353.9z" class="d"/><path d="M560.6 318.4h11.6c0.4-4.6 0.6-9.2 0.6-13.8h-12.2V318.4z" class="d"/><path d="M560.6 283h11.2c-0.5-4.7-1.2-9.3-2-13.8h-9.2V283z" class="d"/><path d="M564.4 247.5c-1.1-3.7-2.4-7.3-3.8-10.8v10.8H564.4z" class="d"/><rect x="525.2" y="283" width="13.8" height="21.6" class="d"/><path d="M525.2 198.3h13.8v-1.9c-4.3-6-8.9-11.7-13.8-17.2V198.3z" class="d"/><rect x="525.2" y="212.1" width="13.8" height="21.6" class="d"/><rect x="525.2" y="318.4" width="13.8" height="21.6" class="d"/><rect x="525.2" y="247.5" width="13.8" height="21.6" class="d"/><rect x="525.2" y="340.1" width="13.8" height="13.8" class="d"/><rect x="525.2" y="304.6" width="13.8" height="13.8" class="d"/><rect x="525.2" y="269.2" width="13.8" height="13.8" class="d"/><rect x="525.2" y="233.7" width="13.8" height="13.8" class="d"/><rect x="525.2" y="198.3" width="13.8" height="13.8" class="d"/><rect x="489.7" y="247.5" width="13.8" height="21.6" class="d"/><rect x="489.7" y="212.1" width="13.8" height="21.6" class="d"/><rect x="489.7" y="283" width="13.8" height="21.6" class="d"/><rect x="489.7" y="176.6" width="13.8" height="21.6" class="d"/><rect x="489.7" y="318.4" width="13.8" height="21.6" class="d"/><path d="M503.5 158.8c-4.4-3.5-9-6.9-13.8-10v14h13.8V158.8z" class="d"/><rect x="489.7" y="340.1" width="13.8" height="13.8" class="d"/><rect x="489.7" y="304.6" width="13.8" height="13.8" class="d"/><rect x="489.7" y="269.2" width="13.8" height="13.8" class="d"/><rect x="489.7" y="233.7" width="13.8" height="13.8" class="d"/><rect x="489.7" y="198.3" width="13.8" height="13.8" class="d"/><rect x="489.7" y="162.8" width="13.8" height="13.8" class="d"/><rect x="454.3" y="141.2" width="13.8" height="21.6" class="d"/><rect x="454.3" y="318.4" width="13.8" height="21.6" class="d"/><rect x="454.3" y="176.6" width="13.8" height="21.6" class="d"/><rect x="454.3" y="212.1" width="13.8" height="21.6" class="d"/><rect x="454.3" y="247.5" width="13.8" height="21.6" class="d"/><rect x="454.3" y="283" width="13.8" height="21.6" class="d"/><rect x="454.3" y="340.1" width="13.8" height="13.8" class="d"/><rect x="454.3" y="304.6" width="13.8" height="13.8" class="d"/><rect x="454.3" y="269.2" width="13.8" height="13.8" class="d"/><rect x="454.3" y="233.7" width="13.8" height="13.8" class="d"/><path d="M468.1 136.6c-4.5-2.2-9.1-4.1-13.8-5.9v10.5h13.8V136.6z" class="d"/><rect x="454.3" y="198.3" width="13.8" height="13.8" class="d"/><rect x="454.3" y="162.8" width="13.8" height="13.8" class="d"/><rect x="418.8" y="176.6" width="13.8" height="21.6" class="d"/><rect x="418.8" y="247.5" width="13.8" height="21.6" class="d"/><path d="M432.6 127.4v-3.4c-4.5-1.1-9.1-2-13.8-2.8v6.2H432.6z" class="d"/><rect x="418.8" y="212.1" width="13.8" height="21.6" class="d"/><rect x="418.8" y="141.2" width="13.8" height="21.6" class="d"/><rect x="418.8" y="318.4" width="13.8" height="21.6" class="d"/><rect x="418.8" y="283" width="13.8" height="21.6" class="d"/><rect x="418.8" y="340.1" width="13.8" height="13.8" class="d"/><rect x="418.8" y="304.6" width="13.8" height="13.8" class="d"/><rect x="418.8" y="269.2" width="13.8" height="13.8" class="d"/><rect x="418.8" y="233.7" width="13.8" height="13.8" class="d"/><rect x="418.8" y="127.4" width="13.8" height="13.8" class="d"/><rect x="418.8" y="198.3" width="13.8" height="13.8" class="d"/><rect x="418.8" y="162.8" width="13.8" height="13.8" class="d"/><rect x="383.4" y="283" width="13.8" height="21.6" class="d"/><rect x="383.4" y="141.2" width="13.8" height="21.6" class="d"/><rect x="383.4" y="176.6" width="13.8" height="21.6" class="d"/><path d="M397.2 127.4v-8.5c-2.7-0.1-5.4-0.2-8.2-0.2 -1.9 0-3.8 0-5.6 0.1v8.6H397.2z" class="d"/><rect x="383.4" y="247.5" width="13.8" height="21.6" class="d"/><rect x="383.4" y="318.4" width="13.8" height="21.6" class="d"/><rect x="383.4" y="212.1" width="13.8" height="21.6" class="d"/><rect x="383.4" y="340.1" width="13.8" height="13.8" class="d"/><rect x="383.4" y="304.6" width="13.8" height="13.8" class="d"/><rect x="383.4" y="269.2" width="13.8" height="13.8" class="d"/><rect x="383.4" y="233.7" width="13.8" height="13.8" class="d"/><rect x="383.4" y="127.4" width="13.8" height="13.8" class="d"/><rect x="383.4" y="198.3" width="13.8" height="13.8" class="d"/><rect x="383.4" y="162.8" width="13.8" height="13.8" class="d"/><rect x="347.9" y="318.4" width="13.8" height="21.6" class="d"/><rect x="347.9" y="176.6" width="13.8" height="21.6" class="d"/><path d="M361.7 127.4v-6.6c-4.7 0.7-9.3 1.6-13.8 2.6v4H361.7z" class="d"/><rect x="347.9" y="283" width="13.8" height="21.6" class="d"/><rect x="347.9" y="247.5" width="13.8" height="21.6" class="d"/><rect x="347.9" y="141.2" width="13.8" height="21.6" class="d"/><rect x="347.9" y="212.1" width="13.8" height="21.6" class="d"/><rect x="347.9" y="340.1" width="13.8" height="13.8" class="d"/><rect x="347.9" y="304.6" width="13.8" height="13.8" class="d"/><rect x="347.9" y="269.2" width="13.8" height="13.8" class="d"/><rect x="347.9" y="233.7" width="13.8" height="13.8" class="d"/><rect x="347.9" y="127.4" width="13.8" height="13.8" class="d"/><rect x="347.9" y="198.3" width="13.8" height="13.8" class="d"/><rect x="347.9" y="162.8" width="13.8" height="13.8" class="d"/><rect x="312.5" y="212.1" width="13.8" height="21.6" class="d"/><rect x="312.5" y="141.2" width="13.8" height="21.6" class="d"/><rect x="312.5" y="176.6" width="13.8" height="21.6" class="d"/><rect x="312.5" y="318.4" width="13.8" height="21.6" class="d"/><rect x="312.5" y="283" width="13.8" height="21.6" class="d"/><rect x="312.5" y="247.5" width="13.8" height="21.6" class="d"/><rect x="312.5" y="340.1" width="13.8" height="13.8" class="d"/><rect x="312.5" y="304.6" width="13.8" height="13.8" class="d"/><rect x="312.5" y="269.2" width="13.8" height="13.8" class="d"/><rect x="312.5" y="233.7" width="13.8" height="13.8" class="d"/><path d="M326.3 141.2V129.7c-4.7 1.7-9.3 3.6-13.8 5.7v5.8H326.3z" class="d"/><rect x="312.5" y="198.3" width="13.8" height="13.8" class="d"/><rect x="312.5" y="162.8" width="13.8" height="13.8" class="d"/><path d="M206.1 283v0.7c0-0.2 0.1-0.5 0.1-0.7H206.1z" class="d"/><path d="M220 247.5h-6.3c-2.2 7-4 14.3-5.4 21.6h11.7V247.5z" class="d"/><path d="M220 230.4c-0.5 1.1-0.9 2.2-1.4 3.3h1.4V230.4z" class="d"/><path d="M220 340.1v-21.6h-13.8v3.6c0.6 6.1 1.6 12.1 2.8 18H220z" class="d"/><path d="M220 304.6V283h-13.7c0 0.2-0.1 0.5-0.1 0.7v20.9H220z" class="d"/><path d="M220 340.1h-11c1 4.7 2.1 9.3 3.4 13.8h7.6V340.1z" class="d"/><rect x="206.1" y="304.6" width="13.8" height="13.8" class="d"/><path d="M208.2 269.2c-0.8 4.5-1.5 9.2-2 13.8h13.7V269.2H208.2z" class="d"/><path d="M220 233.7h-1.4c-1.8 4.5-3.5 9.1-5 13.8h6.3V233.7z" class="d"/><rect x="277" y="212.1" width="13.8" height="21.6" class="d"/><rect x="277" y="247.5" width="13.8" height="21.6" class="d"/><path d="M290.8 162.8v-15.7c-4.8 3-9.4 6.2-13.8 9.7v6H290.8z" class="d"/><rect x="277" y="176.6" width="13.8" height="21.6" class="d"/><rect x="277" y="318.4" width="13.8" height="21.6" class="d"/><rect x="277" y="283" width="13.8" height="21.6" class="d"/><rect x="277" y="340.1" width="13.8" height="13.8" class="d"/><rect x="277" y="304.6" width="13.8" height="13.8" class="d"/><rect x="277" y="269.2" width="13.8" height="13.8" class="d"/><rect x="277" y="233.7" width="13.8" height="13.8" class="d"/><rect x="277" y="198.3" width="13.8" height="13.8" class="d"/><rect x="277" y="162.8" width="13.8" height="13.8" class="d"/><rect x="241.6" y="212.1" width="13.8" height="21.6" class="d"/><rect x="241.6" y="318.4" width="13.8" height="21.6" class="d"/><rect x="241.6" y="247.5" width="13.8" height="21.6" class="d"/><path d="M255.4 198.3V176.6h-0.2c-4.8 5.1-9.4 10.5-13.6 16.2v5.5H255.4z" class="d"/><rect x="241.6" y="283" width="13.8" height="21.6" class="d"/><rect x="241.6" y="340.1" width="13.8" height="13.8" class="d"/><rect x="241.6" y="304.6" width="13.8" height="13.8" class="d"/><rect x="241.6" y="269.2" width="13.8" height="13.8" class="d"/><rect x="241.6" y="233.7" width="13.8" height="13.8" class="d"/><rect x="241.6" y="198.3" width="13.8" height="13.8" class="d"/><path d="M255.2 176.6h0.2v-0.3C255.3 176.5 255.2 176.6 255.2 176.6z" class="d"/><path d="M550.2 326.7h-327.1c-10.8 0-19.5 6-19.5 13.4v46.8c0 7.4 8.7 13.4 19.5 13.4h327.1c10.8 0 19.5-6 19.5-13.4v-46.8C569.8 332.7 561 326.7 550.2 326.7z" class="e"/><polygon points="413.9 145.1 407.7 146.5 402 149.4 395.6 149.2 389.4 150.7 383.3 148.9 376.9 148.7 371.4 145.5 365.3 143.7 360.7 139.2 355.2 136 352 130.5 347.4 126 345.6 119.9 342.4 114.4 342.1 108.1 340.3 102 341.7 95.7 341.5 89.3 344.4 83.7 345.7 77.4 349.9 72.6 352.8 66.9 358.1 63.3 362.3 58.5 368.3 56.3 373.5 52.7 379.9 52.1 385.9 49.9 392.2 50.9 398.5 50.3 404.4 52.8 410.7 53.8 415.7 57.7 421.6 60.2 425.5 65.2 430.6 69.1 433.1 74.9 437.1 79.9 438.1 86.2 440.7 92.1 440.1 98.4 441.1 104.7 439 110.8 438.4 117.1 434.8 122.4 432.7 128.4 427.9 132.6 424.3 137.9 418.7 140.8 " class="e"/><polygon points="410.6 138.7 405.3 139.9 400.4 142.4 394.9 142.2 389.6 143.4 384.4 141.9 378.9 141.8 374.2 139 368.9 137.5 365 133.7 360.3 130.9 357.5 126.2 353.7 122.3 352.1 117.1 349.3 112.4 349.1 107 347.6 101.7 348.8 96.4 348.6 90.9 351 86 352.2 80.7 355.8 76.6 358.3 71.7 362.8 68.6 366.4 64.5 371.5 62.6 376 59.6 381.4 59 386.6 57.2 392 58 397.4 57.5 402.4 59.6 407.8 60.4 412.2 63.8 417.2 65.9 420.5 70.2 424.9 73.6 427.1 78.6 430.4 82.9 431.3 88.3 433.5 93.3 433 98.7 433.9 104.1 432 109.2 431.5 114.7 428.5 119.2 426.7 124.4 422.6 128 419.5 132.5 414.7 135 " fill="#B72A27"/><path d="M385.8 50l-6 2.2 -6.3 0.6 -5.3 3.6 -6 2.2 -4.2 4.8 -5.3 3.6 -2.9 5.7 -4.2 4.8 -1.4 6.2 -2.9 5.7 0.2 6.4 -1.4 6.2 1.8 6.1 0.2 6.4 3.3 5.5 1.1 3.7c-4.6 1.1-9.1 2.3-13.6 3.8 -2.3 0.7-4.6 1.5-6.9 2.3 -4.7 1.7-9.3 3.6-13.8 5.7 -3.9 1.8-7.8 3.7-11.5 5.8 -3.4 1.9-6.8 3.9-10.1 6 -4.8 3-9.4 6.2-13.8 9.7 -2.5 1.9-5 3.9-7.4 6 -5 4.3-9.7 8.8-14.2 13.5 -0.1 0.1-0.2 0.2-0.2 0.3 -4.8 5.1-9.4 10.5-13.6 16.2 -1.3 1.8-2.6 3.6-3.9 5.5 -3.1 4.5-6 9.1-8.7 13.8 -3.3 5.9-6.4 12-9.1 18.3 -0.5 1.1-0.9 2.2-1.4 3.3 -1.8 4.5-3.5 9.1-5 13.8 -2.2 7-4 14.3-5.4 21.6 -0.8 4.5-1.5 9.2-2 13.8h-0.1v0.7c-0.6 6.3-1 12.7-1 19.2 0 0.6 0 1.2 0 1.8 0 4.6 0.3 9.3 0.6 13.8 0.1 1.2 0.2 2.4 0.3 3.6 0.3 3.4 0.8 6.7 1.3 10 -2.4 2.2-3.9 5-3.9 8v46.8c0 7.4 8.7 13.4 19.5 13.4h164.4V50.2L385.8 50z" style="fill:#FFF;opacity:0.2"/></svg>