<svg version="1.1" id="Layer_1" xmlns="http://www.w3.org/2000/svg" xmlns:xlink="http://www.w3.org/1999/xlink" viewBox="0 0 768 430" enable-background="new 0 0 768 430" xml:space="preserve">
<g transform="matrix(1.08461,0,0,1.08461,-69.21483,-14.84957)">
	<path fill="#007200" stroke="#000000" stroke-width="0.2642" d="M368.306,375.733c0,0,48.418-165.118,65.128-236.712
		c16.71-71.593,52.884-98.652,59.655-97.815c6.772,0.837-46.94,50.883-60.128,133.715c-13.19,82.833-55.101,202.975-55.101,202.975
		L368.306,375.733L368.306,375.733z"/>
	
		<linearGradient id="SVGID_1_" gradientUnits="userSpaceOnUse" x1="891.3018" y1="225.2294" x2="310.7181" y2="-355.5547" gradientTransform="matrix(0.2704 0 0 -0.7263 235.131 231.5081)">
		<stop  offset="0" style="stop-color:#FFFFBA;stop-opacity:0.6182"/>
		<stop  offset="1" style="stop-color:#FFFFFF;stop-opacity:0"/>
	</linearGradient>
	<path opacity="0.42" fill="url(#SVGID_1_)" enable-background="new    " d="M368.306,375.733c0,0,49.796-165.118,66.506-236.712
		c16.709-71.593,53.407-97.746,57.469-96.806c3.914,0.907-47.51,50.564-60.7,133.396c-13.189,82.832-53.721,202.286-53.721,202.286
		L368.306,375.733z"/>
	<path fill="#007200" stroke="#000000" stroke-width="0.2642" d="M435.511,102.714c0,0-36.007-1.204-42.887,11.697
		c-15.595,29.241-17.035,140.288-18.52,167.648c-1.462,27.292-6.823,96.496-6.823,96.496l8.772,0.975
		c0,0,5.717-72.145,5.361-100.394c-0.316-25.095,5.361-141.332,15.108-156.927c9.609-15.374,39.963-10.722,39.963-10.722
		L435.511,102.714z"/>
	<g transform="matrix(.59347,0,0,.59347,200.7676,20.37641)">
		
			<radialGradient id="SVGID_2_" cx="573.0467" cy="-489.4778" r="308.2423" fx="573.0466" fy="-489.4778" gradientTransform="matrix(0.263 0 0 -0.263 285.915 39.8684)" gradientUnits="userSpaceOnUse">
			<stop  offset="0" style="stop-color:#FFF100"/>
			<stop  offset="1" style="stop-color:#FFCF00"/>
		</radialGradient>
		<path fill="url(#SVGID_2_)" stroke="#000000" stroke-width="0.4451" d="M412.935,176.779c0,0,13.647,29.241,23.393,38.988
			c9.748,9.747,62.094,21.294,66.28,26.317c4.875,5.849,20.469,18.52,20.469,18.52s-0.974-22.419-1.95-33.141
			c-0.76-8.35-27.292-61.407-41.913-68.229s-47.76-13.646-47.76-13.646s0.974,9.747-2.925,15.596
			C424.63,167.031,412.935,176.779,412.935,176.779z"/>
		
			<linearGradient id="SVGID_3_" gradientUnits="userSpaceOnUse" x1="886.421" y1="-785.5641" x2="637.1688" y2="-547.4796" gradientTransform="matrix(0.263 0 0 -0.263 285.915 39.8684)">
			<stop  offset="0" style="stop-color:#FFFFBA;stop-opacity:0.6182"/>
			<stop  offset="1" style="stop-color:#FFFFFF;stop-opacity:0"/>
		</linearGradient>
		<path fill="url(#SVGID_3_)" d="M412.935,176.779c0,0,18.52,28.266,28.266,38.013c9.748,9.747,57.221,18.37,61.406,23.393
			c4.875,5.848,17.546,15.596,17.546,15.596s-0.976-12.671-1.95-23.393c-0.76-8.35-25.344-57.508-39.963-64.331
			c-14.621-6.823-46.786-20.469-46.786-20.469s0.974,9.747-2.925,15.596C424.63,167.031,412.935,176.779,412.935,176.779
			L412.935,176.779z"/>
		
			<radialGradient id="SVGID_4_" cx="399.212" cy="-562.1309" r="221.8879" gradientTransform="matrix(0.3258 0 0 -0.2123 300.2987 6.5138)" gradientUnits="userSpaceOnUse">
			<stop  offset="0" style="stop-color:#FFF100"/>
			<stop  offset="1" style="stop-color:#FFCF00"/>
		</radialGradient>
		<path fill="url(#SVGID_4_)" stroke="#000000" stroke-width="0.4451" d="M430.48,158.259c0,0,22.417,11.696,43.374,11.696
			c20.956,0,45.323-42.887,49.222-50.685c3.898-7.797,5.849-30.216,5.849-30.216s-18.52,5.848-27.293,5.848
			c-8.772,0-22.904-4.873-37.038-0.974c-14.132,3.898-38.988,24.368-38.988,24.368s8.772,12.671,8.772,18.519
			S430.48,158.259,430.48,158.259L430.48,158.259z"/>
		
			<linearGradient id="SVGID_5_" gradientUnits="userSpaceOnUse" x1="749.8353" y1="-308.5102" x2="582.9727" y2="-478.2496" gradientTransform="matrix(0.2972 0 0 -0.2327 293.7576 19.9367)">
			<stop  offset="0" style="stop-color:#FFFFBA;stop-opacity:0.6182"/>
			<stop  offset="1" style="stop-color:#FFFFFF;stop-opacity:0"/>
		</linearGradient>
		<path fill="url(#SVGID_5_)" d="M430.48,158.259c0,0,19.492,9.748,40.449,9.748c20.958,0,45.325-41.913,49.224-49.71
			c3.898-7.798,6.821-27.292,6.821-27.292s-15.595,6.823-24.367,6.823s-21.93-4.874-36.064-0.975
			c-14.132,3.899-40.937,21.444-40.937,21.444s8.772,12.671,8.772,18.519S430.48,158.259,430.48,158.259z"/>
		
			<radialGradient id="SVGID_6_" cx="762.8387" cy="-252.2066" r="280.4746" fx="759.6214" fy="-254.0397" gradientTransform="matrix(0.1973 0 0 -0.3505 270.8631 97.4864)" gradientUnits="userSpaceOnUse">
			<stop  offset="0" style="stop-color:#FFF100"/>
			<stop  offset="1" style="stop-color:#FFCF00"/>
		</radialGradient>
		<path fill="url(#SVGID_6_)" stroke="#000000" stroke-width="0.4451" d="M402.213,168.981c0,0-20.469,31.191-22.417,44.836
			c-1.95,13.646,7.797,44.837,12.671,55.559c4.873,10.722,10.722,28.267,10.722,28.267s5.849-10.722,13.645-23.394
			c7.797-12.671,35.09-44.836,35.09-61.407c0-16.57-19.495-43.861-19.495-43.861s-8.772,4.874-15.595,3.898
			C410.011,171.905,402.213,168.981,402.213,168.981z"/>
		
			<linearGradient id="SVGID_7_" gradientUnits="userSpaceOnUse" x1="785.9828" y1="-609.6616" x2="776.3431" y2="-386.304" gradientTransform="matrix(0.1734 0 0 -0.3082 281.1339 98.191)">
			<stop  offset="0" style="stop-color:#FFFFBA;stop-opacity:0.6182"/>
			<stop  offset="1" style="stop-color:#FFFFFF;stop-opacity:0"/>
		</linearGradient>
		<path fill="url(#SVGID_7_)" d="M403.851,176.779c0,0-17.987,27.41-19.702,39.401c-1.711,11.992,6.853,39.402,11.136,48.824
			s9.422,24.84,9.422,24.84s5.14-9.421,11.993-20.557c6.853-11.134,30.836-39.401,30.836-53.963
			c0-14.562-17.132-38.545-17.132-38.545s-7.707,4.282-13.704,3.426C410.704,179.348,403.851,176.779,403.851,176.779z"/>
		
			<radialGradient id="SVGID_8_" cx="833.1752" cy="-38.1197" r="180.234" fx="829.6967" fy="-38.8693" gradientTransform="matrix(0.1919 0 0 -0.3605 269.6187 104.0156)" gradientUnits="userSpaceOnUse">
			<stop  offset="0" style="stop-color:#FFF100"/>
			<stop  offset="1" style="stop-color:#FFCF00"/>
		</radialGradient>
		<path fill="url(#SVGID_8_)" stroke="#000000" stroke-width="0.4451" d="M408.061,121.22c0,0-8.774-37.039-8.774-43.861
			c0-6.823,3.964-29.092,10.236-35.089c11.209-10.722,18.031-24.368,18.031-24.368s5.073,14.562,14.621,23.393
			c5.366,4.963,13.905,23.372,14.621,34.115c0.974,14.621-15.596,50.685-15.596,50.685s-7.797-8.773-14.619-8.773
			C419.757,117.321,408.061,121.22,408.061,121.22L408.061,121.22z"/>
		
			<linearGradient id="SVGID_9_" gradientUnits="userSpaceOnUse" x1="877.5745" y1="177.7643" x2="869.2256" y2="2.3417" gradientTransform="matrix(0.1677 0 0 -0.315 282.1736 81.6628)">
			<stop  offset="0" style="stop-color:#FFFFBA;stop-opacity:0.6182"/>
			<stop  offset="1" style="stop-color:#FFFFFF;stop-opacity:0"/>
		</linearGradient>
		<path fill="url(#SVGID_9_)" d="M410.583,115.012c0,0-7.665-32.367-7.665-38.33c0-5.962,3.464-25.421,8.944-30.663
			c9.795-9.37,15.759-21.294,15.759-21.294s4.433,12.725,12.774,20.442c4.691,4.338,12.152,20.425,12.777,29.812
			c0.851,12.776-13.629,44.292-13.629,44.292s-6.815-7.665-12.776-7.665C420.806,111.605,410.583,115.012,410.583,115.012z"/>
		
			<linearGradient id="SVGID_10_" gradientUnits="userSpaceOnUse" x1="607.3099" y1="-164.7863" x2="638.1046" y2="-378.8824" gradientTransform="matrix(0.2017 0 0 -0.2889 287.9974 54.8152)">
			<stop  offset="0" style="stop-color:#FFF100"/>
			<stop  offset="1" style="stop-color:#FFB400"/>
		</linearGradient>
		<path fill="url(#SVGID_10_)" stroke="#888888" stroke-width="1.4245" d="M398.711,121.22l36.956-14.621
			c0,0-7.392,7.797-6.571,38.014c0.822,30.215,8.214,39.963,8.214,39.963l-36.958-12.671c0,0-9.033-2.924-9.854-23.393
			C389.678,128.044,398.711,121.22,398.711,121.22L398.711,121.22z"/>
		
			<linearGradient id="SVGID_11_" gradientUnits="userSpaceOnUse" x1="517.0366" y1="-5636.4023" x2="517.0366" y2="-5784.9028" gradientTransform="matrix(0.1354 0.015 0.0053 -0.0477 378.6542 -118.3511)">
			<stop  offset="0" style="stop-color:#000000;stop-opacity:0"/>
			<stop  offset="0.5" style="stop-color:#000000"/>
			<stop  offset="1" style="stop-color:#000000;stop-opacity:0"/>
		</linearGradient>
		
			<path opacity="0.11" fill="none" stroke="url(#SVGID_11_)" stroke-width="89.0294" stroke-linecap="round" enable-background="new    " d="
			M404.583,162.591l27.425,3.031"/>
		
			<linearGradient id="SVGID_12_" gradientUnits="userSpaceOnUse" x1="496.1941" y1="-396.507" x2="496.1941" y2="-423.5959" gradientTransform="matrix(0.263 0 0 -0.263 285.915 39.8684)">
			<stop  offset="0" style="stop-color:#000000;stop-opacity:0"/>
			<stop  offset="0.5" style="stop-color:#000000"/>
			<stop  offset="1" style="stop-color:#000000;stop-opacity:0"/>
		</linearGradient>
		<path opacity="0.075" fill="none" stroke="url(#SVGID_12_)" stroke-width="89.0294" enable-background="new    " d="
			M390.934,150.084h50.97"/>
		
			<linearGradient id="SVGID_13_" gradientUnits="userSpaceOnUse" x1="178.3146" y1="-6052.1948" x2="178.3146" y2="-6200.6694" gradientTransform="matrix(0.1499 -0.0291 -0.0091 -0.0471 336.7975 -163.3162)">
			<stop  offset="0" style="stop-color:#000000;stop-opacity:0"/>
			<stop  offset="0.5" style="stop-color:#000000"/>
			<stop  offset="1" style="stop-color:#000000;stop-opacity:0"/>
		</linearGradient>
		
			<path opacity="0.07" fill="none" stroke="url(#SVGID_13_)" stroke-width="89.0295" stroke-linecap="round" enable-background="new    " d="
			M404.8,125.367l30.367-5.893"/>
		
			<linearGradient id="SVGID_14_" gradientUnits="userSpaceOnUse" x1="525.5615" y1="-342.3555" x2="525.5615" y2="-369.4443" gradientTransform="matrix(0.263 0 0 -0.263 285.915 39.8684)">
			<stop  offset="0" style="stop-color:#000000;stop-opacity:0"/>
			<stop  offset="0.5" style="stop-color:#000000"/>
			<stop  offset="1" style="stop-color:#000000;stop-opacity:0"/>
		</linearGradient>
		
			<path opacity="0.09" fill="none" stroke="url(#SVGID_14_)" stroke-width="89.0294" stroke-linecap="round" enable-background="new    " d="
			M403.666,135.841h40.954"/>
		
			<linearGradient id="SVGID_15_" gradientUnits="userSpaceOnUse" x1="640.4536" y1="-218.0556" x2="671.2488" y2="-432.1561" gradientTransform="matrix(0.1815 0 0 -0.2601 294.5674 50.0378)">
			<stop  offset="0" style="stop-color:#FFFFBA;stop-opacity:0.6182"/>
			<stop  offset="1" style="stop-color:#FFFFFF;stop-opacity:0"/>
		</linearGradient>
		<path opacity="0.78" fill="url(#SVGID_15_)" enable-background="new    " d="M400.228,123.657l33.26-13.158
			c0,0-6.653,7.018-5.914,34.212c0.739,27.194,7.392,35.966,7.392,35.966l-33.26-11.404c0,0-8.13-2.631-8.871-21.053
			C392.1,129.797,400.228,123.657,400.228,123.657z"/>
		
			<radialGradient id="SVGID_16_" cx="380.1703" cy="-547.168" r="233.6449" gradientTransform="matrix(0.2891 0 0 -0.2392 291.9035 24.225)" gradientUnits="userSpaceOnUse">
			<stop  offset="0" style="stop-color:#FFF100"/>
			<stop  offset="1" style="stop-color:#FFCF00"/>
		</radialGradient>
		<path fill="url(#SVGID_16_)" stroke="#000000" stroke-width="0.4451" d="M390.029,152.411c0,0-59.456,16.57-71.153,35.089
			c-11.696,18.519-15.595,44.836-15.595,44.836s36.342,3.05,51.66,1.95c21.739-1.563,39.963-12.671,47.76-28.267
			s5.849-30.216,5.849-30.216s-3.899-2.924-13.645-9.747C391.004,154.36,390.029,152.411,390.029,152.411L390.029,152.411z"/>
		
			<radialGradient id="SVGID_17_" cx="326.4405" cy="-261.3421" r="208.6931" gradientTransform="matrix(0.263 0 0 -0.263 285.915 39.8684)" gradientUnits="userSpaceOnUse">
			<stop  offset="0" style="stop-color:#FFF100"/>
			<stop  offset="1" style="stop-color:#FFCF00"/>
		</radialGradient>
		<path fill="url(#SVGID_17_)" stroke="#000000" stroke-width="0.4451" d="M298.407,60.788c0,0,22.417-5.848,42.887-8.772
			c20.469-2.924,35.088,4.874,40.938,12.671c5.849,7.798,23.393,53.609,23.393,53.609s-9.748,2.436-13.645,16.57
			c-3.899,14.133,0.972,22.418,0.972,22.418s-42.886-1.95-55.556-11.696c-12.671-9.747-37.039-29.241-33.141-49.71
			C308.154,75.409,298.407,60.788,298.407,60.788z"/>
		
			<linearGradient id="SVGID_18_" gradientUnits="userSpaceOnUse" x1="66.8779" y1="-239.4171" x2="300.9289" y2="-239.4171" gradientTransform="matrix(0.263 0 0 -0.263 285.915 39.8684)">
			<stop  offset="0" style="stop-color:#FFFFBA;stop-opacity:0.6182"/>
			<stop  offset="1" style="stop-color:#FFFFFF;stop-opacity:0"/>
		</linearGradient>
		<path opacity="0.71" fill="url(#SVGID_18_)" enable-background="new    " d="M303.504,64.039c0,0,19.973-5.211,38.21-7.816
			c18.235-2.605,31.263,4.342,36.473,11.289c5.21,6.948,20.843,47.763,20.843,47.763s-8.686,2.171-12.158,14.763
			c-3.474,12.592,0.868,19.972,0.868,19.972s-38.209-1.736-49.498-10.421c-11.291-8.684-33-26.052-29.527-44.289
			C312.188,77.065,303.504,64.039,303.504,64.039z"/>
		
			<linearGradient id="SVGID_19_" gradientUnits="userSpaceOnUse" x1="102.1872" y1="-887.4869" x2="268.371" y2="-723.7198" gradientTransform="matrix(0.298 0 0 -0.2321 292.3112 21.151)">
			<stop  offset="0" style="stop-color:#FFFFBA;stop-opacity:0.6182"/>
			<stop  offset="1" style="stop-color:#FFFFFF;stop-opacity:0"/>
		</linearGradient>
		<path fill="url(#SVGID_19_)" d="M384.764,158.456c0,0-52.872,14.735-63.273,31.204c-10.401,16.468-13.868,39.87-13.868,39.87
			s32.318,2.713,45.938,1.733c19.331-1.39,35.536-11.268,42.471-25.135c6.933-13.868,5.201-26.869,5.201-26.869
			s-3.467-2.6-12.136-8.667C385.63,160.19,384.764,158.456,384.764,158.456L384.764,158.456z"/>
		
			<radialGradient id="SVGID_20_" cx="1108.765" cy="-599.8623" r="222.6024" fx="1013.7617" fy="-599.8623" gradientTransform="matrix(0.1026 0 0 -0.1416 338.9979 61.34)" gradientUnits="userSpaceOnUse">
			<stop  offset="0" style="stop-color:#CDC100"/>
			<stop  offset="0.3" style="stop-color:#E8DB00"/>
			<stop  offset="0.3" style="stop-color:#FAE500"/>
			<stop  offset="0.85" style="stop-color:#FCCA00"/>
			<stop  offset="1" style="stop-color:#FF9800"/>
		</radialGradient>
		<path fill="url(#SVGID_20_)" d="M467.614,183.382c-1.007,0.806-1.792,5.491-2.866,6.178c-1.076,0.687-5.331-0.611-6.486-0.28
			c-1.155,0.331-2.076,3.775-3.253,3.932c-1.176,0.158-4.708-2.305-5.886-2.322c-1.179-0.017-4.485,2.72-5.632,2.369
			c-1.144-0.351-2.104-4.21-3.21-4.716c-1.107-0.507-4.146-0.466-5.175-1.297c-1.029-0.831-1.032-3.752-1.937-4.743
			c-0.906-0.99-6.049-1.925-6.886-3.033c-0.836-1.107-0.909-6.05-1.642-7.348c-0.734-1.298-3.785-1.248-4.292-2.723
			c-0.507-1.475,0.394-8.699,0.006-10.209c-0.388-1.51-2.116-4.268-2.382-5.853c-0.264-1.585,2.2-4.171,2.182-5.789
			c-0.023-1.62-3.553-4.787-3.414-6.411c0.14-1.624,4.001-6.217,4.347-7.791c0.346-1.575-2.845-4.363-2.371-5.859
			c0.472-1.495,5.447-3.932,6.11-5.271c0.658-1.34-0.293-5.094,0.467-6.33c0.76-1.236,4.823-1.503,5.692-2.572
			c0.869-1.069,1.846-7.529,2.82-8.443c0.976-0.915,4.756,1.497,5.824,0.84c1.067-0.657,2.696-7.181,3.835-7.627
			c1.139-0.446,2.793,4.143,3.946,3.952c1.153-0.189,3.662-3.43,4.832-3.359c1.168,0.072,3.303,4.649,4.479,4.927
			c1.176,0.278,4.391-2.139,5.497-1.604c1.106,0.536,3.479,4.737,4.52,5.513c1.041,0.776,3.471-0.228,4.382,0.782
			c0.91,1.012,1.343,5.361,2.174,6.512c0.833,1.152,6.577,1.468,7.243,2.831c0.666,1.363-0.583,7.125-0.024,8.555
			c0.56,1.43,2.559,1.588,2.896,3.125c0.337,1.537-0.391,6.539-0.215,8.125c0.174,1.586,3.544,4.628,3.614,6.257
			c0.068,1.63-4.8,6.789-4.89,8.395c-0.089,1.604,4.054,4.409,3.723,5.958c-0.332,1.549-4.51,3.027-4.967,4.519
			c-0.455,1.491,0.845,8.816,0.19,10.147c-0.657,1.331-4.987,0.011-5.785,1.169c-0.8,1.158,0.049,6.707-0.885,7.722
			C473.262,182.625,468.62,182.574,467.614,183.382z"/>
		
			<radialGradient id="SVGID_21_" cx="1274.1992" cy="-902.9701" r="222.6025" fx="1179.1958" fy="-902.9701" gradientTransform="matrix(0.0912 0 0 -0.126 345.1953 55.3427)" gradientUnits="userSpaceOnUse">
			<stop  offset="0" style="stop-color:#FFFFBA;stop-opacity:0.6182"/>
			<stop  offset="1" style="stop-color:#FFFFFF;stop-opacity:0"/>
		</radialGradient>
		<path fill="url(#SVGID_21_)" d="M465.862,179.21c-0.895,0.718-1.595,4.884-2.55,5.495c-0.954,0.611-4.74-0.545-5.767-0.25
			c-1.026,0.296-1.845,3.358-2.892,3.498c-1.047,0.141-4.189-2.049-5.236-2.065c-1.05-0.015-3.989,2.42-5.008,2.107
			c-1.018-0.313-1.872-3.744-2.857-4.194c-0.983-0.451-3.687-0.415-4.603-1.154c-0.913-0.738-0.916-3.337-1.722-4.218
			c-0.806-0.881-5.38-1.713-6.125-2.697c-0.745-0.985-0.809-5.381-1.461-6.536c-0.652-1.154-3.367-1.109-3.817-2.421
			c-0.451-1.312,0.352-7.737,0.006-9.08c-0.346-1.342-1.883-3.797-2.118-5.206c-0.237-1.409,1.959-3.709,1.939-5.148
			c-0.02-1.44-3.16-4.256-3.036-5.701c0.126-1.446,3.558-5.529,3.867-6.93c0.31-1.4-2.529-3.88-2.109-5.211
			c0.42-1.33,4.844-3.496,5.431-4.689c0.587-1.191-0.259-4.53,0.417-5.629c0.677-1.1,4.289-1.338,5.063-2.289
			c0.772-0.951,1.643-6.696,2.509-7.509c0.866-0.814,4.23,1.331,5.18,0.747c0.95-0.584,2.399-6.386,3.411-6.784
			c1.015-0.397,2.485,3.684,3.509,3.515c1.026-0.168,3.259-3.051,4.298-2.987s2.939,4.134,3.984,4.382
			c1.045,0.247,3.905-1.902,4.888-1.426c0.983,0.476,3.094,4.214,4.019,4.903c0.924,0.69,3.089-0.203,3.898,0.696
			c0.809,0.9,1.194,4.768,1.933,5.791c0.742,1.024,5.85,1.306,6.443,2.518c0.592,1.213-0.519,6.336-0.023,7.609
			c0.496,1.271,2.276,1.412,2.576,2.779c0.299,1.366-0.347,5.814-0.193,7.225c0.156,1.412,3.153,4.116,3.213,5.566
			c0.062,1.45-4.269,6.038-4.348,7.465c-0.077,1.428,3.606,3.922,3.31,5.299c-0.293,1.378-4.01,2.693-4.416,4.019
			c-0.405,1.327,0.751,7.841,0.168,9.024c-0.584,1.184-4.435,0.01-5.145,1.04s0.042,5.965-0.786,6.868
			C470.887,178.536,466.758,178.492,465.862,179.21L465.862,179.21z"/>
		
			<linearGradient id="SVGID_22_" gradientUnits="userSpaceOnUse" x1="1021.6777" y1="-417.3276" x2="1145.9694" y2="-682.3704" gradientTransform="matrix(0.0912 0 0 -0.126 345.1953 55.3427)">
			<stop  offset="0" style="stop-color:#900000;stop-opacity:0.4"/>
			<stop  offset="1" style="stop-color:#FFFFFF;stop-opacity:0"/>
		</linearGradient>
		<path opacity="0.57" fill="url(#SVGID_22_)" enable-background="new    " d="M465.862,179.21c-0.895,0.718-1.595,4.884-2.55,5.495
			c-0.954,0.611-4.74-0.545-5.767-0.25c-1.026,0.296-1.845,3.358-2.892,3.498c-1.047,0.141-4.189-2.049-5.236-2.065
			c-1.05-0.015-3.989,2.42-5.008,2.107c-1.018-0.313-1.872-3.744-2.857-4.194c-0.983-0.451-3.687-0.415-4.603-1.154
			c-0.913-0.738-0.916-3.337-1.722-4.218c-0.806-0.881-5.38-1.713-6.125-2.697c-0.745-0.985-0.809-5.381-1.461-6.536
			c-0.652-1.154-3.367-1.109-3.817-2.421c-0.451-1.312,0.352-7.737,0.006-9.08c-0.346-1.342-1.883-3.797-2.118-5.206
			c-0.237-1.409,1.959-3.709,1.939-5.148c-0.02-1.44-3.16-4.256-3.036-5.701c0.126-1.446,3.558-5.529,3.867-6.93
			c0.31-1.4-2.529-3.88-2.109-5.211c0.42-1.33,4.844-3.496,5.431-4.689c0.587-1.191-0.259-4.53,0.417-5.629
			c0.677-1.1,4.289-1.338,5.063-2.289c0.772-0.951,1.643-6.696,2.509-7.509c0.866-0.814,4.23,1.331,5.18,0.747
			c0.95-0.584,2.399-6.386,3.411-6.784c1.015-0.397,2.485,3.684,3.509,3.515c1.026-0.168,3.259-3.051,4.298-2.987
			s2.939,4.134,3.984,4.382c1.045,0.247,3.905-1.902,4.888-1.426c0.983,0.476,3.094,4.214,4.019,4.903
			c0.924,0.69,3.089-0.203,3.898,0.696c0.809,0.9,1.194,4.768,1.933,5.791c0.742,1.024,5.85,1.306,6.443,2.518
			c0.592,1.213-0.519,6.336-0.023,7.609c0.496,1.271,2.276,1.412,2.576,2.779c0.299,1.366-0.347,5.814-0.193,7.225
			c0.156,1.412,3.153,4.116,3.213,5.566c0.062,1.45-4.269,6.038-4.348,7.465c-0.077,1.428,3.606,3.922,3.31,5.299
			c-0.293,1.378-4.01,2.693-4.416,4.019c-0.405,1.327,0.751,7.841,0.168,9.024c-0.584,1.184-4.435,0.01-5.145,1.04
			s0.042,5.965-0.786,6.868C470.887,178.536,466.758,178.492,465.862,179.21L465.862,179.21z"/>
	</g>
	<path fill="#007200" stroke="#000000" stroke-width="0.2642" d="M364.778,382.191c0,0-10.722-89.672-10.722-161.801
		c0-73.517-28.266-166.673-21.443-166.673c6.823,0,32.153,93.526,33.14,177.396c0.974,82.85,8.772,152.054,8.772,152.054
		L364.778,382.191z"/>
	<path fill="#007200" stroke="#000000" stroke-width="0.2642" d="M373.492,382.99c0,0,21.342-81.507,59.502-144.346
		c38.16-62.838,69.541-77.196,75.717-74.293c6.174,2.903-27.288,3.358-65.599,77.973c-38.311,74.615-59.146,144.317-61.213,145.695
		L373.492,382.99L373.492,382.99z"/>
	
		<linearGradient id="SVGID_23_" gradientUnits="userSpaceOnUse" x1="242.6667" y1="-236.2191" x2="348.128" y2="-236.2191" gradientTransform="matrix(0.4432 0 0 -0.4432 223.9473 115.1307)">
		<stop  offset="0" style="stop-color:#FFFFBA;stop-opacity:0.6182"/>
		<stop  offset="1" style="stop-color:#FFFFFF;stop-opacity:0"/>
	</linearGradient>
	<path opacity="0.285" fill="url(#SVGID_23_)" enable-background="new    " d="M364.778,382.191c0,0-8.654-89.672-8.654-161.801
		c0-73.517-27.523-164.773-22.822-163.916c5.399,0.984,29.397,90.08,30.383,173.95c0.975,82.849,10.84,152.742,10.84,152.742
		L364.778,382.191L364.778,382.191z"/>
	
		<linearGradient id="SVGID_24_" gradientUnits="userSpaceOnUse" x1="743.6708" y1="-26.8269" x2="378.2274" y2="-408.1451" gradientTransform="matrix(0.3558 0 0 -0.552 229.6049 159.8767)">
		<stop  offset="0" style="stop-color:#FFFFBA;stop-opacity:0.6182"/>
		<stop  offset="1" style="stop-color:#FFFFFF;stop-opacity:0"/>
	</linearGradient>
	<path opacity="0.52" fill="url(#SVGID_24_)" enable-background="new    " d="M375.559,380.234c0,0,20.25-77.289,58.41-140.127
		c36.21-60.888,66.13-76.708,71.817-74.78c6.175,2.902-26.312,2.871-64.623,77.485c-38.312,74.614-55.129,141.072-57.197,142.449
		L375.559,380.234z"/>
</g>
</svg>
