<svg xmlns="http://www.w3.org/2000/svg" viewBox="0 0 768 430"><style>.a{fill:#0CF;}.b{fill:#FFF;}</style><g transform="matrix(4.6459 0 0 4.7143 -977.73 -1657.8)"><path d="M242.6 424.8c0-0.4 2.8-1.5 5-1.5h0c2 0.1 2.8-1.9 0.7-2.2 -1.1-0.1-1.8-0.3-2.2-0.6 -0.9-0.8-0.6-2.5 0.4-3.1 3.2-2 7.3 1.3 9.6 3.2 1.9 1.6 4.8 1.7 5.4 1.7l0 0c2.1-0.2 4.5-0.1 6.6 0.7 3.1 1.1 6.1 0.6 9.2-0.2 4.5-1.1 3.4-6.1-1.5-5.9 -4.8 0.2-4.5-5.6 0-6 8.2-0.8 5.9 11.8 17.2 10.2 8.5-1.2 6.5 2.4 11.8 1.8 3.1-0.3 6.5-1.6 10-4.6 3.8-3.2 10.6-8.7 15.9-5.3 1.1 0.7 1.6 1.6 1.5 2.7 -0.1 2.7-1.4 3-4.6 3.4 -3.1 0.4-1.8 3.5 0.4 2.7 5.1-2.1 8 1.2 12.8 2.4l1.8 0.5 -100 0H242.6z" class="a"/><path d="M300 415c0 0 0.5 1.1-0.8 2 -1.2 0.9-1.7 0-3.6 0.2 -2 0.2-2.1 0.5-2.6 0.9 -0.5 0.4-1.5 0.3-1.2-0.9 0.3-1.1 0.9-2 2.6-3C299 412.1 300 415 300 415z" class="a"/><path d="M275.5 421.6c-0.5 0.8-3.1 0.2-4-0.3 -1-0.4-1.3-1.5-0.9-2.3 0.5-0.8 1.6-1.2 2.6-0.7C274.1 418.7 276 420.8 275.5 421.6L275.5 421.6z" class="a"/><path d="M271.4 419c0-0.3 0.2-0.5 0.5-0.6 0.3-0.1 0.6 0.1 0.7 0.4 0 0.3-0.2 0.5-0.5 0.6C271.7 419.4 271.4 419.3 271.4 419L271.4 419z" class="b"/><path d="M273.1 414.4c-0.2 1.4 1.5 1.5 1.2 0 -0.1-0.5-0.1-0.9 0.5-1.2 0.4-0.3 0.1-0.5-0.2-0.5C273.9 412.6 273.2 413.4 273.1 414.4L273.1 414.4z" class="b"/><path d="M275.4 412.3c0-0.2 0.2-0.5 0.5-0.5 0.3 0 0.6 0.1 0.6 0.3 0 0.2-0.2 0.5-0.4 0.5C275.7 412.7 275.5 412.5 275.4 412.3z" class="b"/><path d="M297.7 414c1 0.2 0.6 1.2-0.4 0.7 -0.3-0.1-0.6-0.2-1 0.1 -0.3 0.2-0.3-0.1-0.3-0.2C296.2 414.2 297 413.9 297.7 414L297.7 414z" class="b"/><path d="M328.3 412.9c2.2 0.3 1.6 2.5-1.2 1.4 -0.8-0.3-1.5-0.4-2.6 0 -0.8 0.3-0.9-0.1-0.8-0.4C324.1 413.3 326.4 412.6 328.3 412.9L328.3 412.9z" class="b"/><path d="M321.8 414.4c0.3-0.1 0.7 0 0.8 0.2 0.1 0.3-0.1 0.6-0.4 0.7 -0.3 0.1-0.7 0-0.8-0.2C321.3 414.8 321.5 414.5 321.8 414.4L321.8 414.4z" class="b"/><path d="M287 411.4c0 0 1.1-0.3 1.8 0.9 0.7 1.2-0.1 1.5-0.1 3.3 0.1 1.8 0.2 2 0.6 2.5 0.3 0.5 0.1 1.4-0.9 1 -1-0.4-1.7-1-2.5-2.7C284.2 412.2 287 411.4 287 411.4L287 411.4z" class="a"/><path d="M286.5 412.5c0.7-0.8 1.8-0.2 0.7 0.6 -0.3 0.2-0.5 0.4-0.4 0.8 0.1 0.3-0.2 0.3-0.4 0.2C286 413.9 286 413.1 286.5 412.5z" class="b"/><path d="M263 409.8c0 0-1 0.5-0.7 1.8 0.3 1.4 1.1 1 2.3 2.4 1.2 1.3 1.2 1.6 1.3 2.2 0.1 0.6 0.8 1.1 1.3 0.1 0.5-0.9 0.6-1.9 0-3.6C265.4 408.4 263 409.8 263 409.8L263 409.8z" class="a"/><path d="M264.1 410.2c-1.1-0.1-1.4 1.1-0.1 0.9 0.4-0.1 0.6 0 0.9 0.3 0.2 0.3 0.4 0 0.4-0.1C265.3 410.9 264.8 410.3 264.1 410.2L264.1 410.2z" class="b"/><path d="M302.1 421.2c0.5 0.8 3.1 0 4-0.5 0.9-0.5 1.3-1.6 0.7-2.4 -0.5-0.8-1.7-1.1-2.6-0.6C303.3 418.3 301.5 420.4 302.1 421.2L302.1 421.2z" class="a"/><path d="M306.1 418.4c0-0.3-0.2-0.5-0.5-0.5 -0.3 0-0.6 0.2-0.7 0.4 0 0.3 0.2 0.5 0.5 0.5C305.7 418.9 306 418.7 306.1 418.4L306.1 418.4z" class="b"/><path d="M317.2 410.5c0 0 0.9 0.9 0.1 2.2 -0.8 1.3-1.5 0.7-3.2 1.7 -1.7 1-1.7 1.3-2.1 1.9 -0.3 0.6-1.2 0.8-1.4-0.3 -0.2-1.1 0.1-2.2 1.2-3.8C315.1 408.2 317.2 410.5 317.2 410.5L317.2 410.5z" class="a"/><path d="M314.7 410.5c1-0.3 1.1 0.8-0.1 0.8 -0.3 0-0.6 0.1-0.9 0.4 -0.2 0.3-0.3 0.1-0.3-0.1C313.4 411.3 314 410.7 314.7 410.5z" class="b"/><path d="M334.2 419.6c0.3 0.6 2.1 0.1 2.8-0.3 0.6-0.3 0.9-1.1 0.6-1.6 -0.3-0.6-1.1-0.8-1.8-0.4C335.1 417.6 333.9 419 334.2 419.6L334.2 419.6z" class="a"/><path d="M337 417.7c0-0.2-0.1-0.3-0.4-0.4 -0.2 0-0.4 0.1-0.5 0.3 0 0.2 0.1 0.3 0.4 0.4C336.8 418 337 417.9 337 417.7z" class="b"/><path d="M245.6 422.2c-0.2 0.3-1.3 0-1.7-0.2 -0.4-0.2-0.5-0.6-0.3-1 0.2-0.3 0.7-0.5 1.1-0.3C245.1 421 245.8 421.9 245.6 422.2z" class="a"/><path d="M243.9 421.1c0-0.1 0.1-0.2 0.2-0.2 0.1 0 0.3 0.1 0.3 0.2 0 0.1-0.1 0.2-0.2 0.2C244.1 421.3 244 421.2 243.9 421.1z" class="b"/><path d="M341.6 421.1c0 0 0.1 0.5-0.5 0.7 -0.5 0.2-0.6-0.2-1.3-0.3 -0.7-0.1-0.8 0-1 0.1 -0.2 0.1-0.6 0-0.3-0.4 0.2-0.4 0.5-0.6 1.3-0.8C341.6 419.9 341.6 421.1 341.6 421.1z" class="a"/><path d="M340.9 420.5c0.4 0.2 0.1 0.5-0.2 0.2 -0.1-0.1-0.2-0.1-0.4-0.1 -0.1 0-0.1-0.1-0.1-0.1C340.3 420.4 340.7 420.4 340.9 420.5z" class="b"/><path d="M254.3 412.5c0 0-0.9 0.6-0.3 1.8 0.5 1.2 1.3 0.8 2.6 1.8 1.3 1.1 1.4 1.3 1.6 1.8 0.2 0.6 1 0.8 1.3-0.1 0.3-1 0.2-1.9-0.6-3.4C256.4 410.7 254.3 412.5 254.3 412.5L254.3 412.5z" class="a"/><path d="M256.5 412.7c-0.8-0.4-1 0.6 0 0.7 0.3 0 0.5 0.1 0.7 0.5 0.2 0.3 0.3 0.1 0.3 0C257.5 413.6 257.1 413 256.5 412.7L256.5 412.7z" class="b"/><path d="M340.6 412.7c0 0 0.2 0.6-0.4 1 -0.6 0.4-0.8 0-1.8 0.1 -1 0.1-1.1 0.2-1.3 0.4 -0.3 0.2-0.7 0.1-0.6-0.4 0.2-0.6 0.5-1 1.3-1.5C340.1 411.2 340.6 412.7 340.6 412.7L340.6 412.7z" class="a"/><path d="M339.5 412.2c0.5 0.1 0.3 0.6-0.2 0.4 -0.1-0.1-0.3-0.1-0.5 0 -0.2 0.1-0.2 0-0.1-0.1C338.7 412.3 339.1 412.2 339.5 412.2z" class="b"/><path d="M262 418c0 0-0.5 0.4-0.2 1 0.3 0.7 0.7 0.4 1.5 1 0.8 0.6 0.8 0.7 0.9 1 0.1 0.3 0.5 0.5 0.7-0.1 0.1-0.5 0.1-1-0.4-1.9C263.2 417 262 418 262 418L262 418z" class="a"/><path d="M263.3 418.1c-0.5-0.2-0.6 0.3 0 0.4 0.1 0 0.3 0.1 0.4 0.3 0.1 0.1 0.2 0.1 0.2 0C263.8 418.6 263.6 418.3 263.3 418.1z" class="b"/><path d="M248 417.3c-1.3 0.2-1 1.5 0.7 0.9 0.5-0.2 0.9-0.2 1.6 0 0.5 0.2 0.6-0.1 0.5-0.3C250.5 417.6 249.1 417.2 248 417.3z" class="b"/><path d="M251.9 418.2c-0.2-0.1-0.4 0-0.5 0.1 -0.1 0.2 0.1 0.3 0.3 0.4 0.2 0.1 0.4 0 0.5-0.1C252.2 418.5 252.1 418.3 251.9 418.2z" class="b"/><path d="M244.5 412.5c0 0-0.3 0.6 0.4 1.1 0.7 0.5 0.9 0 2 0.2 1.1 0.2 1.2 0.3 1.5 0.5 0.3 0.2 0.8 0.2 0.7-0.5 -0.2-0.6-0.5-1.1-1.4-1.7C245.2 410.9 244.5 412.5 244.5 412.5z" class="a"/><path d="M245.9 412c-0.6 0.1-0.4 0.6 0.2 0.4 0.2-0.1 0.3-0.1 0.5 0 0.2 0.1 0.2 0 0.2-0.1C246.7 412.2 246.2 412 245.9 412z" class="b"/><path d="M307 411.5c0 0 0.5 0.4 0.2 1.1 -0.3 0.7-0.7 0.4-1.5 1 -0.8 0.6-0.8 0.7-0.9 1 -0.1 0.3-0.6 0.5-0.7-0.1 -0.1-0.6-0.1-1.1 0.4-2C305.8 410.4 307 411.5 307 411.5L307 411.5z" class="a"/><path d="M305.7 411.6c0.5-0.2 0.6 0.4 0 0.4 -0.2 0-0.3 0.1-0.4 0.3 -0.1 0.2-0.2 0.1-0.2 0C305.1 412 305.4 411.7 305.7 411.6z" class="b"/></g></svg>