<svg version="1.1" id="Layer_1" xmlns="http://www.w3.org/2000/svg" xmlns:xlink="http://www.w3.org/1999/xlink" viewBox="0 0 768 430" enable-background="new 0 0 768 430" xml:space="preserve">
<g>
	<g>
		<g>
			
				<linearGradient id="SVGID_1_" gradientUnits="userSpaceOnUse" x1="374.3359" y1="63.752" x2="510.9819" y2="63.752" gradientTransform="matrix(1 0 0 -1 -37 348.5)">
				<stop  offset="0" style="stop-color:#FFD383"/>
				<stop  offset="0.5937" style="stop-color:#FFB872"/>
				<stop  offset="1" style="stop-color:#FFA364"/>
			</linearGradient>
			<path fill="url(#SVGID_1_)" d="M425.897,286.656c0.083-3.355,0.206-5.871,0.206-5.871h-21.996h-0.576h-21.996
				c0,0,0.177,3.596,0.248,7.926c4.726-0.783,36.133-5.98,36.714-5.98C418.826,282.73,422.483,284.738,425.897,286.656z"/>
			
				<linearGradient id="SVGID_2_" gradientUnits="userSpaceOnUse" x1="374.3354" y1="23.7217" x2="510.9815" y2="23.7217" gradientTransform="matrix(1 0 0 -1 -37 348.5)">
				<stop  offset="0" style="stop-color:#FFD383"/>
				<stop  offset="0.5937" style="stop-color:#FFB872"/>
				<stop  offset="1" style="stop-color:#FFA364"/>
			</linearGradient>
			<path fill="url(#SVGID_2_)" d="M478.853,332.459c-2.422-8.074-11.841-9.689-11.841-9.689s-25.413-7.53-29.335-9.688
				c-0.758-0.418-1.588-0.93-2.433-1.484c-0.014,1.23-0.186,1.99-0.6,1.961c-16.086-1.164-48.093-21.299-52.854-24.348
				c0.076,5.326-0.018,11.574-0.793,13.644c-1.439,3.838-7.112,8.069-11.034,10.229c-3.923,2.156-29.335,9.688-29.335,9.688
				s-9.42,1.614-11.842,9.688c-2.422,8.074-9.693,26.471-8.881,27.451c0.411,0.496,42.521,0.488,83.914,0.361
				c41.394,0.127,83.504,0.135,83.916-0.361C488.546,358.93,481.275,340.533,478.853,332.459z"/>
			<path opacity="0.8" fill="#EF843C" enable-background="new    " d="M381.169,288.812c0,0,0.23,0.147,0.621,0.397
				c-0.003-0.166-0.004-0.336-0.007-0.5C381.399,288.773,381.169,288.812,381.169,288.812z"/>
			
				<linearGradient id="SVGID_3_" gradientUnits="userSpaceOnUse" x1="374.3345" y1="50.355" x2="510.9828" y2="50.355" gradientTransform="matrix(1 0 0 -1 -37 348.5)">
				<stop  offset="0" style="stop-color:#FFD383"/>
				<stop  offset="0.5937" style="stop-color:#FFB872"/>
				<stop  offset="1" style="stop-color:#FFA364"/>
			</linearGradient>
			<path fill="url(#SVGID_3_)" d="M435.244,311.598c-3.53-2.312-7.44-5.647-8.603-8.744c-0.904-2.411-0.885-10.514-0.744-16.196
				c-3.414-1.918-7.071-3.927-7.4-3.927c-0.581,0-31.988,5.197-36.714,5.98c0.003,0.164,0.004,0.334,0.007,0.5
				c4.763,3.049,36.769,23.184,52.854,24.348C435.06,313.588,435.23,312.828,435.244,311.598z"/>
			<path opacity="0.5" fill="#EF843C" enable-background="new    " d="M435.244,311.598c-3.53-2.312-7.44-5.647-8.603-8.744
				c-0.904-2.411-0.885-10.514-0.744-16.196c-3.414-1.918-7.071-3.927-7.4-3.927c-0.581,0-31.988,5.197-36.714,5.98
				c0.003,0.164,0.004,0.334,0.007,0.5c4.763,3.049,36.769,23.184,52.854,24.348C435.06,313.588,435.23,312.828,435.244,311.598z"/>
		</g>
		<g>
			<g>
				<path fill="#FFBC64" d="M471.087,193.377c0,0,8.463-21.101,16.412-10.092c7.949,11.009-4.359,35.781-6.411,37.003
					s-8.205-4.588-8.205-4.588L471.087,193.377z"/>
				<path fill="#FFBC64" d="M337.74,195.736c0,0-8.462-21.1-16.411-10.092c-7.949,11.01,4.359,35.78,6.41,37.004
					c2.052,1.223,8.206-4.588,8.206-4.588L337.74,195.736z"/>
			</g>
			
				<linearGradient id="SVGID_4_" gradientUnits="userSpaceOnUse" x1="441.3838" y1="244.3574" x2="441.3838" y2="52.3934" gradientTransform="matrix(1 0 0 -1 -37 348.5)">
				<stop  offset="0" style="stop-color:#FFD383"/>
				<stop  offset="0.3124" style="stop-color:#FFCD7E"/>
				<stop  offset="0.7407" style="stop-color:#FFBB70"/>
				<stop  offset="1" style="stop-color:#FFAD64"/>
			</linearGradient>
			<path fill="url(#SVGID_4_)" d="M404.549,103.596v-0.004c-0.055,0-0.109,0.002-0.165,0.002c-0.055,0-0.11-0.002-0.165-0.002v0.004
				c-37.72-0.103-76.756,23.951-75.231,65.502c0.195,5.319,4.337,80.693,9.929,89.779c6.089,9.896,38.565,34.395,65.303,35.562
				v0.028c0.054-0.002,0.11-0.014,0.165-0.016c0.055,0.002,0.11,0.014,0.165,0.016v-0.028c26.737-1.168,59.213-25.666,65.303-35.562
				c5.592-9.086,9.732-84.459,9.929-89.779C481.305,127.547,442.268,103.493,404.549,103.596z"/>
			<path opacity="0.2" fill="#F39200" enable-background="new    " d="M427.046,106.424c19.51,11.872,33.455,32.354,32.532,59.864
				c-0.088,2.592,8.097,30.676-1.535,43.546c4.469,5.713-5.293,49.152-8.394,54.665c-3.677,6.533-16.985,18.864-32.825,27.914
				c23.568-6.222,47.795-25.125,52.969-33.535c5.592-9.086,9.733-84.459,9.929-89.779
				C480.939,135.898,456.257,113.885,427.046,106.424z"/>
			<path opacity="0.1" fill="#FFFFFF" enable-background="new    " d="M356.592,271.254c-7.374-5.391-12.886-10.662-14.968-14.043
				c-4.498-7.311-8.897-72.901-9.457-88.229c-0.722-19.648,8.274-36.668,24.736-48.066c-9.686,12.631-14.568,28.152-13.998,45.245
				c0.029,0.87,4.025,89.063,10.329,100.351C354.038,267.951,355.177,269.551,356.592,271.254z"/>
			
				<radialGradient id="SVGID_5_" cx="434.3779" cy="-10134.0518" r="40.2714" gradientTransform="matrix(1 0 0 -0.4476 -37 -4295.5298)" gradientUnits="userSpaceOnUse">
				<stop  offset="0" style="stop-color:#FFFFFF"/>
				<stop  offset="0.0175" style="stop-color:#FFFDFA"/>
				<stop  offset="0.1726" style="stop-color:#FFE9D0"/>
				<stop  offset="0.3312" style="stop-color:#FFD9AE"/>
				<stop  offset="0.4917" style="stop-color:#FFCD93"/>
				<stop  offset="0.6547" style="stop-color:#FFC480"/>
				<stop  offset="0.822" style="stop-color:#FFBF75"/>
				<stop  offset="1" style="stop-color:#FFBD71"/>
			</radialGradient>
			<path opacity="0.31" fill="url(#SVGID_5_)" enable-background="new    " d="M387.012,239.342
				c12.249,4.264,36.062,0.951,37.647-0.984c-0.26-7.09-7.121-17.723-7.738-21.057c0,0-19.267-2.471-22.353,0
				C393.21,223.598,387.012,233.836,387.012,239.342z"/>
			<path fill="#EA9D49" d="M424.688,238.211c-3.156,0.762-17.646,4.227-37.676,1.131c-0.148,0.799,8.081,5.99,18.036,7.471
				C409.857,247.945,425.539,239.104,424.688,238.211z"/>
			<path opacity="0.3" fill="#DD9544" enable-background="new    " d="M417.503,239.602c1.44-0.746-1.242-20.576-0.845-20.973
				c2.783,6.561,6.359,8.398,8.027,19.582C422.252,239.154,419.739,239.402,417.503,239.602z"/>
		</g>
	</g>
	
		<linearGradient id="SVGID_6_" gradientUnits="userSpaceOnUse" x1="402.8672" y1="259.8555" x2="439.7954" y2="151.9529" gradientTransform="matrix(1 0 0 -1 -37 348.5)">
		<stop  offset="0" style="stop-color:#915418"/>
		<stop  offset="1" style="stop-color:#683C11"/>
	</linearGradient>
	<path opacity="0.2" fill="url(#SVGID_6_)" enable-background="new    " d="M460.554,149.66
		c-4.13-0.873-35.902,11.584-54.409,11.584c-0.406,0-13.735-0.828-19.158-1.938c-27.564-3.439-38.714-4.596-43.443-5.727
		c-2.393,3.128-4.329,7.147-4.689,8.366c-0.589,1.987,2.449,15.206,2.457,18.604c0.008,3.398-5.205,36.614-6.16,37.395
		c-0.306,0.248-2.208-0.067-2.726-0.11c0.052,0.574-0.053-0.276,0,0.297c1.013,0.476,4.144,0.918,4.722,0.447
		c0.955-0.777,5.762-32.508,5.754-35.907c-0.008-3.399-3.045-16.616-2.457-18.604c0.36-1.222,2.297-5.24,4.69-8.367
		c4.729,1.129,15.878,2.288,43.442,5.727c5.424,1.109,18.753,1.938,19.158,1.938c18.508,0,50.28-12.458,54.409-11.584
		c1.378,0.291,2.822,1.543,4.162,3.144C464.582,152.386,462.499,150.072,460.554,149.66z"/>
</g>
<g>
	<path fill="#3A3A3A" d="M417.361,187.2c0,0,24.414,3.409,47.114,11.424c5.809-0.36-25.285-14.235-29.397-14.808
		C430.965,183.243,422.375,184.156,417.361,187.2z"/>
	<path fill="#3A3A3A" d="M396.225,189.091c0,0-24.586,1.787-47.771,8.28c-5.771-0.744,26.174-12.53,30.315-12.829
		C382.911,184.243,391.422,185.722,396.225,189.091z"/>
	<path fill="#EF843C" d="M384.044,266.859c4.015-0.537,22.44-2.971,47.916-0.795c0.19-0.562-10.278-4.211-22.938-5.254
		C402.904,260.016,382.959,266.232,384.044,266.859z"/>
	<path opacity="0.7" fill="#EF843C" enable-background="new    " d="M393.869,276.125c2.365-0.289,13.229-1.602,28.248-0.43
		c0.111-0.303-6.061-2.271-13.523-2.83C404.986,272.436,393.229,275.785,393.869,276.125z"/>
	<g>
		<g>
			<path fill="#3C3C3B" d="M356.485,211.388c-0.885-1.942-0.109-3.732,1.364-5.55c1.474-1.816,11.952-9.132,23.391-3.548
				s10.724,10.861,10.724,10.861S376.364,223.043,356.485,211.388z"/>
			<path fill="#FFFFFF" d="M357.396,212.316c-0.687-0.354-1.229-1.035-1.278-1.806c-0.083-1.294,0.629-2.533,1.732-3.786
				c1.474-1.673,11.952-8.411,23.391-3.268c11.438,5.145,10.724,10.005,10.724,10.005S376.839,222.293,357.396,212.316z"/>
			
				<radialGradient id="SVGID_7_" cx="410.8086" cy="139.355" r="7.0969" gradientTransform="matrix(1 0 0 -1 -37 348.5)" gradientUnits="userSpaceOnUse">
				<stop  offset="0.5027" style="stop-color:#683C11"/>
				<stop  offset="0.603" style="stop-color:#7D4C0A"/>
				<stop  offset="0.7195" style="stop-color:#8F5A04"/>
				<stop  offset="0.8461" style="stop-color:#996101"/>
				<stop  offset="1" style="stop-color:#9C6400"/>
			</radialGradient>
			<circle fill="url(#SVGID_7_)" cx="373.808" cy="209.145" r="7.097"/>
			<circle fill="#1D1D1B" cx="373.78" cy="209.22" r="4.046"/>
			<circle fill="#FFFFFF" cx="377.457" cy="206.138" r="2.791"/>
		</g>
	</g>
	<g>
		<g>
			<path fill="#3C3C3B" d="M456.999,211.388c0.885-1.942,0.109-3.732-1.364-5.55c-1.474-1.816-11.952-9.132-23.391-3.548
				c-11.439,5.584-10.725,10.861-10.725,10.861S437.12,223.043,456.999,211.388z"/>
			<path fill="#FFFFFF" d="M455.618,212.554c1.294-0.647,2.017-2.197,1.502-3.549c-0.291-0.766-0.816-1.521-1.485-2.281
				c-1.474-1.673-11.952-8.411-23.391-3.268c-11.438,5.145-10.724,10.005-10.724,10.005S436.402,222.152,455.618,212.554z"/>
			
				<radialGradient id="SVGID_8_" cx="67.1577" cy="139.355" r="7.0962" gradientTransform="matrix(-1 0 0 -1 506.834 348.5)" gradientUnits="userSpaceOnUse">
				<stop  offset="0.5027" style="stop-color:#683C11"/>
				<stop  offset="0.603" style="stop-color:#7D4C0A"/>
				<stop  offset="0.7195" style="stop-color:#8F5A04"/>
				<stop  offset="0.8461" style="stop-color:#996101"/>
				<stop  offset="1" style="stop-color:#9C6400"/>
			</radialGradient>
			<circle fill="url(#SVGID_8_)" cx="439.676" cy="209.145" r="7.096"/>
			<circle fill="#1D1D1B" cx="439.705" cy="209.22" r="4.046"/>
			<circle fill="#FFFFFF" cx="443.163" cy="205.98" r="2.791"/>
		</g>
	</g>
</g>
<linearGradient id="SVGID_9_" gradientUnits="userSpaceOnUse" x1="353.877" y1="9.2373" x2="528.1211" y2="9.2373" gradientTransform="matrix(1 0 0 -1 -37 348.5)">
	<stop  offset="0" style="stop-color:#5B777F"/>
	<stop  offset="0.2924" style="stop-color:#57767F"/>
	<stop  offset="0.5533" style="stop-color:#4D727F"/>
	<stop  offset="0.8013" style="stop-color:#3A6B7F"/>
	<stop  offset="1" style="stop-color:#26647F"/>
</linearGradient>
<path fill="url(#SVGID_9_)" d="M491.121,359.793c-0.271-2.211-1.657-6.273-4.886-15.348c-1.598-4.486-3.247-9.127-4.154-12.154
	c-2.765-9.211-12.505-11.539-14.136-11.865c-9.716-2.883-25.932-7.938-28.557-9.385c-1.281-0.705-2.645-1.59-3.938-2.545
	c-6.351,8.594-17.788,14.348-30.887,14.348c-13.377,0-25.028-5.996-31.289-14.893c-1.5,1.168-3.142,2.254-4.667,3.092
	c-2.625,1.443-18.838,6.5-28.554,9.383c-1.629,0.326-11.373,2.654-14.136,11.865c-0.907,3.025-2.556,7.66-4.153,12.145
	c-3.231,9.082-4.618,13.146-4.889,15.357h0.081c-0.002,0.029-0.018,0.059-0.018,0.088c0,5.906,38.991,10.693,87.089,10.693
	c48.1,0,87.091-4.787,87.091-10.693c0-0.029-0.016-0.059-0.02-0.088H491.121L491.121,359.793z"/>
<linearGradient id="SVGID_10_" gradientUnits="userSpaceOnUse" x1="411.126" y1="276.1465" x2="451.116" y2="159.2972" gradientTransform="matrix(1 0 0 -1 -37 348.5)">
	<stop  offset="0" style="stop-color:#915418"/>
	<stop  offset="1" style="stop-color:#683C11"/>
</linearGradient>
<path fill="url(#SVGID_10_)" d="M481.386,120.351c-37.9-30.481-96.213-43.469-98.598-42.276c-2.386,1.193,1.192,9.343,1.192,9.343
	s-28.228-9.74-29.817-9.343c-1.591,0.397,8.945,12.126,8.945,12.126s-25.342-5.651-27.083-4.516
	c-1.741,1.137,9.987,11.076,9.987,11.076s-21.791-4.027-38.001,4.417c-0.268,0.811,21.501,5.324,21.501,5.324
	s-22.97,11.207-27.513,17.521c0.319,0.393,25.525-2.612,25.525-2.612s-14.213,10.305-14.472,13.522
	c4.688,2.725,8.724,10.658,10.949,12.479c-0.039,0.215-0.063,0.471-0.093,0.715c-0.716,6.021,1.158,20.662,2.834,34.937
	c0.589,0.038,0.997,0.122,1.37,0.245c0.605,0.197,1.088,0.521,1.875,1.115c0.023,0.36,0.049,0.753,0.073,1.121
	c0.587,9.209,1.441,21.18,2.504,32.875c0.477,0.223,0.979,0.355,1.438,0.393c0.517,0.045,0.98-0.033,1.287-0.28
	c0.955-0.781,6.167-33.997,6.159-37.395c-0.008-3.398-3.046-16.617-2.457-18.604c0.36-1.22,2.297-5.238,4.69-8.366
	c4.729,1.131,15.878,2.287,43.442,5.727c5.423,1.109,18.753,1.938,19.158,1.938c18.508,0,50.279-12.457,54.41-11.584
	c1.945,0.412,4.027,2.727,5.753,5.265c2.676,3.198,4.923,7.818,5.314,9.144c0.587,1.986-2.449,15.205-2.457,18.604
	c-0.008,2.957,3.936,28.463,5.59,35.569c0.469,0.006,0.997-0.1,1.512-0.309c1.213-12.925,2.174-26.5,2.803-36.479
	c1.347-1.012,1.594-1.014,2.588-1.212c1.171-10.306,2.85-20.602,3.355-27.445C485.758,151.839,488.283,130.535,481.386,120.351z"/>
<path fill="#96D7ED" d="M452.595,156.99c0,0-0.07,2.834-0.052,6.275c0.023,4.41,2.041,9.102,7.327,6.35
	c5.872-3.058,1.78-10.039-2.633-9.403C454.007,160.677,452.594,156.989,452.595,156.99L452.595,156.99z"/>
<path fill="#96D7ED" d="M490.198,166.659c0,0-0.07,2.834-0.052,6.275c0.023,4.41,2.041,9.102,7.327,6.35
	c5.872-3.058,1.78-10.039-2.633-9.403C491.61,170.346,490.197,166.658,490.198,166.659L490.198,166.659z"/>
<path fill="#96D7ED" d="M492.871,152.475c0,0,1.174,2.581,2.692,5.668c1.946,3.958,5.81,7.298,9.364,2.514
	c3.948-5.314-2.78-9.809-6.474-7.311C495.751,155.177,492.869,152.475,492.871,152.475L492.871,152.475z"/>
</svg>
