<svg xmlns="http://www.w3.org/2000/svg" viewBox="0 0 768 430"><style>.a{fill:#8A714C;}.b{fill:#785B39;}.c{fill:#B99567;}.d{fill:#AF9274;}.e{fill:#9E7D58;}</style><path d="M391.2 130.6c68.7 1.9 150.3 44.3 167.2 115.5 10.4 43.7-14.4 84-48.5 109.4 -40.4 30.1-85 35.2-133.8 38 -45.2 2.6-100 7.1-139.1-20.8 -34.3-24.5-44.5-73.7-41.4-113.5C202.9 166.4 311.8 128.4 391.2 130.6 433.7 131.8 294.7 128 391.2 130.6z" fill="#DFCEB7"/><path d="M276.2 243.5c9.7-21.6 36.4-35.1 58-40.7 13.8-3.6 28.4-4.5 42.3-1.4 5.3-1.2 9.4-7.4 14.6-8.7 13.2-3.1 34.8 5.5 46.8 9.5 13.2 4.4 37.9 9 35.4 24.7 -0.4 2.8-1.2 17-3.9 19 -28.7 21.1-73.8 25.6-107.8 26.4C332.8 272.8 296 267.4 276.2 243.5z" class="a"/><path d="M265.8 227.4c-6.3 0-23-26.4-27.8-31.6 -9.2-10-18.9-19.5-29.2-28.3 -4.7-4-52.8-35.7-51.3-38.3C167.7 110.6 276.4 227.4 265.8 227.4z" class="b"/><path d="M217.1 280.5c-22.8 0 0.9-70.2 4.7-78 3.4-7 36.3-68.9 41.9-66.5 5 2.1-34 64-37.4 71.1 -5.8 12.3-10.7 25.5-11.8 39.2C214 251.3 220.1 280.5 217.1 280.5z" class="c"/><path d="M276.2 213.7c-10.1 0 25.5-46.6 30.6-50.8 10.5-8.5 57.1-35 70.3-23.6 7.2 6.2-16.6 7-17.9 7.3 -12 2.1-23.8 5.9-34.6 11.8 -10.1 5.5-19.2 12.9-26.7 21.7C294.2 184.6 280.3 213.7 276.2 213.7z" class="b"/><path d="M262.5 191.4c-9.6 0 9.2-19.4 10.9-20.7 10.6-8.5 24-13 37.3-15.1 15-2.4 30.3-2.2 45.4-0.6 0.6 0.1 24.3 1.7 16.1 7.5 -7.3 5.2-42.9-2.9-53.3-1.8 -10.7 1.1-21.4 3.4-31.1 8.2C281.8 171.8 266.4 191.4 262.5 191.4z" class="c"/><path d="M292.3 328.3c-19.1 0-44.7-15.3-57.1-29.1 -7.9-8.8-13.2-19.9-13.9-31.8 -0.2-3.7 4.1-36.5 12.6-30.9 1 0.6-6.9 30.3-5.8 35.9 2.1 10.8 8.4 20.2 16.5 27.5 9.1 8.1 20.3 13.7 31.8 17.7C276.6 317.7 304.1 328.3 292.3 328.3z" class="d"/><path d="M146 290.2c-10.6 0 14.5-11 15.5-11.3 10.6-2.7 52.2-11.6 59.4-0.9 3.8 5.6-35.2 2.9-40.6 3.6C169.5 283 156.6 290.2 146 290.2z" class="e"/><path d="M303.7 366.6c-24.6 0-52-15.2-67.8-33.3 -3.7-4.3-31.1-54.2-17.4-54.2 -1.5 0 19.2 47.4 24.4 52.8 10.1 10.6 22.8 18.3 36.5 23.1 8 2.8 16.3 4.6 24.7 5.6C307.2 361 308.1 366.6 303.7 366.6z" class="e"/><path d="M171.1 371.4c-13.5 0 13.5-10.3 8.1-8.5 11.1-3.6 21.9-8.3 32.3-13.7 9.7-5 19.4-10.4 28.3-16.7 4.8-3.4 5.2 3.8 2.5 5.6 -5 3.4-10.1 6.6-15.3 9.6C212.1 356.3 188.7 371.4 171.1 371.4z" class="b"/><path d="M171.1 343.4c-13.8 0 15-10.4 8.7-8.7 10.6-2.8 21.4-4.9 32.4-6.1 4.7-0.5 24-4.5 28 0.4 5.2 6.4-11.6 4.7-12.8 4.7C208.4 334.1 189.2 343.4 171.1 343.4z" class="c"/><path d="M393.9 380.2c-25.8 0-51.4-4.3-77.3-4.7 -22.7-0.3-45.5 1.2-68.3 0.2 -5.6-0.3-60.9-7.2-55.7-17.1 -0.2 0.4 55.7 11.1 62.3 11.3 23.6 0.5 47.1-0.9 70.7-0.2 26 0.8 51.8 5.3 77.9 4.3 19.3-0.8 38.5-3.8 56.9-9.6 5.1-1.6 54.7-28.8 55-28.6 7.4 6.5-32.6 26.6-36.1 28.1C452.6 375.3 423 380.2 393.9 380.2 384.2 380.2 456.4 380.2 393.9 380.2z" class="c"/><path d="M352 391.3c-4.4 0-10-3-14.2-4.2 -22.8-6.6-45.9-12.4-68.9-18.1 -16.1-4-39.3-7.9-50.6-21.6 -7.2-8.8-3.3-62.5 6.7-60 3.9 1-10.4 46.7-1.5 56.7 12.8 14.4 39.9 17.3 57.2 21.6 19.7 4.9 39.4 9.9 58.9 15.6C339.6 381.2 363.2 391.3 352 391.3z" class="a"/><path d="M298.6 388.5c-7.9 0-15.9-0.9-23.3-3.5 -10.1-3.6 8.3-4 8.2-4 16 3.4 33.1 0.7 48.7-3.5 39.8-10.9 78-34.2 104.4-66 22-26.5 37.8-63.5 33-98.6 -5.2-37.5-45-67.7-82.6-62.2 -2.6 0.4-4.4-2.7-2.9-4.8 2.7-3.6 14.6-1.9 18.1-1.5 17.1 1.6 33.5 9.2 46.5 20.3 28.7 24.6 32.1 60.9 22.3 95.5C451.2 329.9 370.9 388.5 298.6 388.5z" class="e"/><path d="M507.3 255.8c-1.3 0-15.6-38.7-19.8-43.8 -11-13.3-26.6-21.8-43-26.6 -20.3-6-42-6.9-63-5.7 -5.7 0.3-57.8 10-58.7 6.6 -4.6-16.2 114.1-9.8 126.6-5.7 18.8 6.1 36.2 17 47.3 33.7C499.5 218.4 517.3 255.8 507.3 255.8z" class="a"/><path d="M362.9 274.8c-37.9 0-82.2-12.2-106.5-43.6 -3.2-4.1 1.8-7.4 5-3.5 4.4 5.5 9.7 10.3 15.2 14.5 16.6 12.7 36.6 20.5 57.2 24 41.7 7.2 95 0.3 131.8-21.6 13.6-8.1 24.6-20.1 26.1-36.6 0.8-8.7-16.4-63-16-63.2 8-4.1 21.2 45.2 21.9 51 2 17.5-3.8 33.7-17 45.4C451.1 267.3 400.7 274.8 362.9 274.8z" class="e"/><path d="M270.1 274.8c-9.4 0 1.6-29.1 3.3-32.4 7.8-15.2 21.4-26.9 36.6-34.4 16-7.9 34.1-11.1 51.9-10.4 5.5 0.2 51.7 5.7 48.4 14.1 -0.5 1.3-49.5-8.4-56.7-8.2 -14.3 0.4-28.4 3.7-41.2 10.1 -12.6 6.3-24 15.6-31.4 27.7C278 246.1 272.7 274.8 270.1 274.8z" class="a"/><path d="M341 303.2c-23.4 0-46.8-2-69.9-6.1 -18.2-3.2-30.4-12-5.6-7.2 31.9 6.2 64.7 8.4 97.1 6.5 31.2-1.8 63.3-7.1 91.7-20.9 12.2-5.9 23.7-13.7 33-23.6 3.3-3.5 18.5-31.2 20.9-30.4 8.9 3-14.9 32.8-17.9 35.8 -11.4 11.7-25.7 20.4-40.7 26.8C415.8 298.8 377.7 303.2 341 303.2z" class="b"/><path d="M387.5 371.4c-10.3 0 7.6-41.1 9.6-45.2 11.2-22.2 26.2-42.4 41.5-61.8 4.1-1.9 5.7-0.7 4.8 3.7 -3.4 4.3-6.7 8.6-10 12.9 -8.8 11.7-17.3 23.8-24.7 36.5C405.5 323 388.2 371.4 387.5 371.4z" class="d"/><path d="M354.4 384.1c-11.2 0 14.6-7.8 16.1-8.1 15.5-2.6 30.7-7.2 44.8-14 26.5-12.7 48.6-32.7 65.6-56.5 13.6-19 6.3 2.1-0.6 10.9 -10.6 13.5-22.9 25.6-36.7 35.7C419 370.1 385.4 384.1 354.4 384.1z" class="d"/><path d="M431.1 388.5c-7.3 0 21.6-28.7 24.8-32.3 12.1-13.5 23.6-28.3 31.1-44.9 6.9-15.4 10.2-33.7 1.1-49 -2.9-5-31.9-25.8-31.4-27.2 4.2-10.2 34.4 20.3 36.7 24.3 7.5 12.8 7.7 28 3.7 41.9 -4.6 16-13.8 30.5-23.9 43.6C466.4 353.7 442.4 388.5 431.1 388.5z" class="a"/><path d="M382.5 329.4c-6.1 0-51.1 0.3-50.1-7 0.6-4.3 48 0.9 54.9 0.8 34.7-0.7 69.6-9 97.5-30.3 12.3-9.4 22.9-20.9 31.7-33.6 2.7-3.9 5.2-7.8 7.6-11.9 3.8-2.5 5.5-1.4 5.2 3.1 -6.5 11.2-14.1 21.7-23 31.1C474.1 316.2 428.7 329.4 382.5 329.4z" class="e"/><path d="M603.4 343.4c-2.3 0-13.5-40.1-17.6-47 -18-30.6-44.2-54.3-68.9-79.2 -19-19.1-40.7-39.5-51.7-64.6 -7.5-17.1-6.3-34.7 1-51.7 3.4-7.9 4.6 4.7 3.7 7 -1.6 4.2-2.8 8.6-3.4 13.1 -7.6 50.9 61.6 96.5 90.8 128 18.1 19.5 35.6 41.7 44.8 67C602.8 318.2 611.6 343.4 603.4 343.4z" class="a"/><path d="M519.6 248.7c-8.1 0 6.6-26 8.2-28.9 7.7-13.7 18-26.1 31.1-34.9 14.1-9.5 30.7-14 47.6-14.4 2.4 0 38.8 2.1 29.4 8.3 -6.2 4.1-33.4-2.5-42.8-0.9 -12.9 2.2-25.1 7.4-35.4 15.5 -9.5 7.4-17.2 16.8-23.3 27.1C532.1 224.6 523.9 248.7 519.6 248.7z" class="e"/><path d="M478 283.3c-10.8 0 30.9-49.5 37.6-53.8 27.3-17.6 63.5-19.7 91.8-3 2.5 3.8 1.4 5.5-3.1 5.2 -7.3-4.3-15.3-7.3-23.6-9 -16.5-3.4-33.8-1.4-49.3 5.2 -11.2 4.8-21.3 12-29.6 20.8C497.5 253.3 481.8 283.3 478 283.3z" class="c"/><path d="M479.9 349.8c-5.4 0 22.7-40.3 26.3-45.8 10.6-16.4 20.7-33.3 27.9-51.5 5.3-13.4 9.2-27.9 7.8-42.5 -0.6-6.7-19.2-47-16.7-48.4 7.4-4.3 20.3 34.7 21.4 39.5 3.9 17.5 0.2 35.2-6.1 51.7 -5.7 14.7-13.3 28.7-21.5 42.1C513.5 303.9 489.9 349.8 479.9 349.8z" class="b"/><path d="M501.2 377.5c-7.7 0 12.6-24 14.5-27.2 6.6-11 11-23.4 10.7-36.4 -0.6-27.5-20.9-50.7-17.7-78.8 -1.3-6.3 0.6-10.2 5.7-11.8 4.6 1.3-0.1 17.5 0 21 0.9 17 9.5 32.2 14.3 48.2 4.8 16 4.8 32.2-1.4 47.7C524.3 347.8 510.4 377.5 501.2 377.5z" class="d"/><path d="M509.2 290.2c-4.9 0 1.7-43.3 1.8-49.9 0.4-17-1.1-34.3-6.7-50.4 -8.8-24.9-27.9-38.9-45.6-56.9 -7.2-7.4-13.3-15.7-16.7-25.6 -3.7-10.7 13.5 12.6 13.9 13.2 12.1 16 29.7 26.7 41.5 43.1 11.5 15.9 17.1 34.8 18.9 54.2C517.1 226.5 518.8 290.2 509.2 290.2z" class="c"/><path d="M541.9 285.2c-1.8 0-14.6-53.5-17.8-60.3 -7.7-16.3-18.4-31.1-31.8-43.3 -20.9-19.2-47.5-31.7-75-37.9 -7.7-1.7-20-10-4.5-7.1 25.4 4.7 50 14.7 70.9 30 20.1 14.7 36.2 34.3 46.5 56.9C533 229.7 551.7 285.2 541.9 285.2z" class="e"/><path d="M553.7 339.1c-22.9 0-47.5-4.7-61.2-25.1 -3.3-4.9-13.7-22.7-10-28.5 4.7-7.3 10.7 17.4 12 19.8 10.5 20.1 31.4 26.7 52.8 27.6 6.3 0.2 27.2-4.1 31.6-0.4C586.8 339.2 555.8 339.1 553.7 339.1z" class="e"/><path d="M549.5 391.3c-14.5 0-31.3-35.1-34.3-46.2 -3.3-11.7-2.3-24.4 5.2-34.3 2.4-3.2 24.4-23.3 27.7-15.1 1.5 3.7-17.8 13-20.8 16.2 -6.7 7.3-8.9 16.7-7.4 26.3 1.9 11.8 8.3 22.8 15.6 32.1C536.6 371.8 557.9 391.3 549.5 391.3z" class="c"/><path d="M444.8 337.9c-5.2 0-19.2-16.2-24.5-19.5 -13-7.9-27.4-12.9-42-16.9 -33.3-9-68.1-12.6-100.8-23.7 -20.8-7.1-47.7-19.6-50.6-44.5 -1-8.9 22.4-71.5 33.2-63.2 5 3.8-10.7 19.3-11.7 20.7 -9.4 13.5-20.1 31.4-13.9 48.5 8.5 23.3 40.6 32.3 61.8 37.7 32 8.2 65.1 12.1 96.6 22.4 11.4 3.7 22.4 8.4 32.5 14.9C427.9 316.1 454.6 337.9 444.8 337.9z" class="b"/><path d="M245 242.3c-8.8 0 8-27.5 9.9-30.2 9.2-12.8 21.5-22.9 35.2-30.5 33.6-18.5 74.6-22.3 111.8-14.6 3.6 0.7 15.8 10.2 7.5 8 -9.3-2.4-18.8-4.1-28.3-4.9 -21.7-1.9-43.9 0.1-64.7 6.8 -16.3 5.3-31.8 13.5-44.4 25.1C267.1 206.5 247.1 242.3 245 242.3z" class="e"/><path d="M286.7 269.3c-12.6 0-27.5-12.3-27.5-25.3 0-27.2 36.4-45.2 58.5-50.7 4.4 1 4.9 2.9 1.5 5.9 -5.7 1.4-11.3 3.4-16.6 5.8 -11.7 5.3-23.3 12.9-31 23.3 -5.9 7.8-9.5 18.9-1.3 26.7C271.1 256 296.7 269.3 286.7 269.3z" class="e"/><path d="M325.7 221.1c-9.3 0 21.4-38.9 24.1-41.4 9.5-9 56.8-39 69.2-20.9 4.9 7.1-12.1 3.6-11.2 3.7 -12.7-0.8-25.3 2.4-36.3 8.6 -10.8 6-20.2 14.6-27.9 24.2C340.5 199 330 221.1 325.7 221.1z" class="a"/><path d="M352 217.6c-9.7 0 21.9-18.1 24.3-19.5 17.7-10 36.3-21.5 49.3-37.5 9.5-11.8 13.7-26.2 4.8-39.6 -4.3-6.4-10.3-11.5-16.5-15.8 -11.6-8.1-9.9-14.2 2.8-5.4 27 18.6 32.1 45.3 9.2 69.7 -11.3 12-25.3 21.4-39.4 29.8C378.6 203.9 361.3 217.6 352 217.6z" class="e"/><path d="M462.8 227.4c-7.1 0-29.5-24.3-38.1-28.6 -14.5-7.3-30.2-11.8-46.2-14.3 -22.5-3.4-45.9-3-68.4 0.8 -12.2 2.1 1.8-6.5 8.4-7.4 21.1-2.7 42.7-2.6 63.7 0.9 18.9 3.2 37.4 9.2 53.8 19.2C439.6 200.2 472.1 227.4 462.8 227.4z" class="c"/><path d="M337.4 358.2c-25.8 0-55.8-5-76.7-21.3 -11.3-8.8-18.9-21-22.8-34.7 -1.4-4.9-9.2-43-1.2-43 4.9 0 4.9 32.6 6.1 37.7 3.4 14.5 10.9 27.3 22.9 36.2 10.9 8 24 12.5 37.1 15.2 8.3 1.7 16.7 2.7 25.2 3.3C325.7 351.5 349.9 358.2 337.4 358.2z" class="a"/><path d="M239.8 349.8c-11 0 7.5-8.4 6.1-8 7.6-2.1 15.2-3.7 22.9-5.1 17.6-3.1 35.5-4.6 53.4-5.1 20-0.6 40.1 0.1 60.1 1.7 9.5 0.8 48.6 0 54.1 7.9 5.7 8.1-31.1 0.5-34 0.2 -20.1-2.4-40.3-3.8-60.5-4 -18.4-0.2-36.9 0.6-55.3 2.7C271.7 342 254.4 349.8 239.8 349.8z" class="d"/><path d="M415.4 368.5c-33.7 0-66.7-12-95-29.7 -6.5-4.1-72.3-56.7-60.9-63.8 1.9-1.1 34.6 36.7 39.3 40.7 19 16 41 28.8 64.5 37.1 20.2 7.2 42 11.1 63.5 9.1C462.5 358.7 434.4 368.5 415.4 368.5z" class="c"/><path d="M259 334.6c-8.1 0-18.1-8.4-11-6.9 13.9 2.8 29.6-0.1 43.3-2.7 34.9-6.8 70.7-19.9 98.8-42.2 17.4-13.8 19.3-7.3 2.7 5.6 -12.8 10-27.2 17.9-42.1 24.4C322.3 325.1 290.1 334.6 259 334.6z" class="c"/><path d="M434.7 358.2c-41.4 0-90.2-11.5-117.9-44.9 -12.4-14.9-18.3-34.1-13.1-53.2 1.6-5.7 3.9-11 6.9-16 3.8-2.4 5.5-1.4 5.2 3.1 -5.9 10-9.2 21.5-7.8 33.1 5.4 43.9 59.9 64.3 97.2 69.7 22.8 3.3 46.2 2.6 68.9-1.4 3.9-0.7 4.9 5.3 1.1 6C461.8 357 448.2 358.2 434.7 358.2z" class="c"/><path d="M272 313c-15.1 0-30.1-30.6-33.8-42.1 -1.9-5.8-8.1-63.2 4.2-59.2 -1.4-0.4 0.1 53.7 2.7 60.8 3.6 9.6 9.1 18.5 16.4 25.6C262.2 298.7 281.7 313 272 313z" class="c"/><path d="M340.6 367.9c-27.3 0-42.4-25-48.1-48.6 -2.3-9.4-3.6-19.2-3.3-28.8 0.3-8.9 6.1-6.5 6 1.5 -0.4 20.7 5.8 46.5 21.7 60.8 9.4 8.5 21.9 10.6 34 8C357.8 359.2 348.7 367.9 340.6 367.9z" class="e"/><path d="M356.7 320.3c-11.3 0 14.3-10.9 14.6-11 12.3-5.1 23.6-12.5 33.2-21.6 7.7-7.3 14.3-15.6 19.5-24.8 3.6-6.2 7.8-28.3 12.9-31.5 8.2-5.2 1.6 14 2.3 11.9 -4.5 14.4-11.9 27.7-21.5 39.2C404.7 297.9 378.5 320.3 356.7 320.3z" class="c"/><path d="M479.9 224.3c-5.7 0-17.3-9.5-22.9-12 -12.7-5.5-26.1-9.5-39.6-12.4 -6.2-1.3-55.1-4.9-55.1-8.7 0-8.4 52.3 1.9 57.1 2.9 14.3 3.1 28.5 7.3 41.9 13.4C462.9 208.4 490.5 224.3 479.9 224.3z" class="d"/><path d="M444.8 199.9c-5.2 0 4.9-24.7 5.4-28.8 0.8-6.2-5.6-42.6-3.6-43.3C456.3 124.4 463.8 199.9 444.8 199.9z" class="e"/></svg>