<svg xmlns="http://www.w3.org/2000/svg" viewBox="0 0 768 430"><style>.a{fill:#A7ADAD;}.b{fill:#C5CBCB;}.c{fill:#CFD5D5;}.d{fill:#777776;}.e{fill:#CCC;}.f{fill:#EFEFEF;}.g{fill:#FFF;}.h{fill:#939292;}.i{fill:#383838;}.j{fill:#EAEAEA;}.k{fill:#D696BB;}.l{fill:#E8AACE;}.m{fill:#F2B8D7;}.n{fill:#ADADAD;}.o{fill:#E0E0E0;}.p{fill:#2645FF;}.q{fill:#FFF;opacity:0.6;}</style><path d="M424.6 317.6c-2.3 13.1 12.6 29.4-3 38.8 -14.2 8.5-23.2 20.7-2.2 26.7 16.6 4.7 49.1 0.6 56.4-18.5 3.7-9.5-4.7-19.5-4.5-29 0.3-11.6 7.2-22 8.8-33.4" class="a"/><path d="M463.8 306.7c-12.4 3.5-24.9 6.9-37.3 10.4 -8.4 2.3 3.1 18.6 2.7 23 -1.2 12.3-5.3 12.7-13.2 20 -5.7 5.3-4.3 14.1 3.1 16.9 8.7 3.3 25.5 1.4 32.2-5.4 5.1-5.1 6.1-17.5 8.8-24.1 2.3-5.5 0-12.5 0.4-18.3C461.2 321.6 462.7 314.2 463.8 306.7z" class="b"/><path d="M447.4 330c-6.1-2.5-15.2 1.3-21.6 1.3 1.7 5.2 7.2 19.9-1.5 23.7 -6.1 2.6-2.9 7.1-2.3 12.1 0.8 5.9 8.4-2.9 12.4-0.8 12.4 6.5 13.1 1.2 16.9-10.6C454.2 346.7 460.4 335.2 447.4 330 442.2 327.9 452.6 332.1 447.4 330z" class="c"/><path d="M433.9 385.3c-8.5 0-21.8-1.7-27.6-8.9 -5-6.2 6.9-14.7 11-17.6 5.9-4.2 9.1-5.1 10.8-12.9 2.2-10.2-5.7-17.6-3.8-28.4 0.5 2.7 0.3 7.7 1.1 11.2 0.7 2.9 4 6.8 4.3 9.4 0.5 3.9-1.1 15.3-5.3 17.1 -12.4 5.3-27.3 19.5-8.3 26.5 16.9 6.2 51.7 2.9 59.5-17.2 3.6-9.4-4.8-19.6-4.5-29.1 0.3-9.9 5.5-25 9.4-33.1 -1.4 10-6.6 19-8.4 29 -1.7 9.8 3.9 17.8 4.7 27.3C478.2 377.2 447.9 385.3 433.9 385.3z" class="d"/><path d="M433.5 341.8c-1.6-0.9-3.1-2-4.4-3.4 2.3 1.1 5.8 3.8 9.1 4.8C436.6 343 435 342.6 433.5 341.8 432 340.9 435.8 343 433.5 341.8z" class="d"/><path d="M416.4 360.8c6.4 3 3.3 22.4-5.2 20.7C394.9 378.1 409.3 357.4 416.4 360.8 420.5 362.6 412.7 359 416.4 360.8z" class="e"/><path d="M416.4 360.8c5.9 3-3 18-8.5 18C396.2 378.6 409.6 357.3 416.4 360.8 418.9 362 412.7 358.9 416.4 360.8z" class="f"/><path d="M407.1 376.8c-11 0 4.2-18.6 8.1-15.7C419.6 364.4 411.4 376.5 407.1 376.8 405.2 376.8 414 376.4 407.1 376.8z" class="g"/><path d="M412.5 381.9c-15.6 0-8.2-21.6 3-21.6C422.5 360.3 421 381.9 412.5 381.9zM415.5 360.9c-9.6 0-16.8 15.6-5.7 19.8C420.9 385 421.3 360.9 415.5 360.9z" class="h"/><path d="M431.5 368.7c10.3 3.1 11.2 18.7-1.3 18.1C414.5 386.1 424 366.4 431.5 368.7 438.1 370.7 427.2 367.4 431.5 368.7z" class="e"/><path d="M431.5 368.7c9 2.1 6.6 20.9-5.8 17.4C416.1 383.3 424.6 367.1 431.5 368.7 435.5 369.6 427.2 367.7 431.5 368.7z" class="f"/><path d="M428.9 369.2c7.6 0.3 8.4 17.9-3.2 16C416.9 383.7 423.1 369 428.9 369.2 433 369.3 426.8 369.1 428.9 369.2z" class="g"/><path d="M431 387.1c-14.6 0-11-18.9-0.3-18.9C440.8 368.3 444 387.1 431 387.1zM430.7 368.9c-7.9 0-13.7 15.3-3.3 17.3C443.4 389.3 441.1 368.9 430.7 368.9z" class="h"/><path d="M463.3 273.7c3.5 7.2 1.9 15 1.8 22.7 -0.2 7.1 2.4 13.4 5 19.9 5.1 12.6 8.9 21.5 2.2 34.1 -3.5 6.6-15.7 20.6-13 28.6 3.8 11.3 23.6 13.8 33.2 14 10.7 0.2 28-1.2 32.7-13 5.3-13-9.4-24.8-5.7-38.7 3.7-14 13.4-25.2 18.4-38.6 5.2-13.9 7.7-30.5 3.7-45" class="a"/><path d="M524.1 261.3c-20.3 4.1-40.5 8.3-60.8 12.4 5.8 11.8 0.4 26.2 5.3 38.9 4.2 10.8 11 22 5.9 33.6 -3.4 7.6-14.7 19.3-10.6 28.1 4 8.7 15 10.2 23.5 10.6 8.5 0.5 24.7 1.9 30.2-6.8 6.9-11-6.6-20.9-6.4-31.6 0.2-15.4 7.7-28.2 12.4-42.4C528 290.6 527.9 275 524.1 261.3z" class="b"/><path d="M504 288.4c-9.3 8.6-15.9 19.6-25.3 28.1 -6.6 5.9-6.2 4.6-3.6 13.2 2 6.6 1.7 11.5-1.3 17.7 -2.6 5.3-5.9 10.2-8.6 15.5 -1.2 2.4 6.6 6.7 7.9 9.2 6.4 12.7 10 1.2 19.9 0.5 6.2-0.4 16.3 9 18.8-0.4 3.2-11.8-7.2-21.9-6-34 1.3-13.7 8.1-24.9 12-37.8C520.6 291.4 513.4 279 504 288.4 492.3 299.1 507.9 284.5 504 288.4z" class="c"/><path d="M493.8 393.3c-10.7 0-24.6-2.2-32.4-10.4 -8.1-8.6 6.3-24.7 10.4-32.3 7.3-13.7 2.1-23.4-3.2-37 -5.1-13.1-2.5-27.3-5.1-40 5.9 12.1 0.5 26.8 5.6 39.8 6.5 16.6 10.1 25.5 0.9 41.6 -4.7 8.1-16.4 21.3-6.3 29.3 10.2 8.1 25.5 9.3 37.9 8 9.1-1 21.3-4 23.9-14.2 1.9-7.4-2.7-14.3-5.4-20.9 -3-7.4-1.9-14.3 1-21.6 5.5-13.9 15-25.8 18.9-40.5 3.5-12.9 1.3-25.5 1.9-37.5 3.7 13.3 1.7 28.4-2.4 41.4 -5 15.8-17.4 28.8-20.3 45.3 -2.3 13 12.8 25.2 5.4 37.7C518.7 391.9 503.9 393.3 493.8 393.3z" class="d"/><path d="M462.9 368.9c7-3.7 14.1 13.8 8.3 18.3C462.6 393.7 452.4 374.5 462.9 368.9 466.7 366.9 460.3 370.3 462.9 368.9z" class="e"/><path d="M462.9 368.9c7.2-3.8 11.7 14.4 5.4 17.4C458.9 390.6 454.8 373.2 462.9 368.9 466.7 366.9 460.3 370.3 462.9 368.9z" class="f"/><path d="M462.9 368.9c4.9-3.1 7.2 11.5 4.8 14.5C462.1 390.1 453.6 374.7 462.9 368.9z" class="g"/><path d="M468 388.5c-10.7 0-14-20.3-3.6-20.3C472.8 368.2 478.6 388.5 468 388.5zM464.5 368.8c-9.7 0-5.9 17.7 2.6 19C477.4 389.4 472.7 368.8 464.5 368.8z" class="h"/><path d="M493.4 375.4c14.3-1 19.4 20.4 1.3 20.8 -4.3 0.1-12.8-0.5-14.4-5.6C478.2 384.2 487.7 375.8 493.4 375.4 499.9 374.9 487.1 375.8 493.4 375.4z" class="e"/><path d="M493.4 375.4c13.8-1 13 21.6-3.3 20.5C474 394.8 481.3 376.3 493.4 375.4 499.9 374.9 487.1 375.8 493.4 375.4z" class="f"/><path d="M491.1 375.9c12.7-0.8 13.8 19.3-1.3 18 -3.5-0.3-10.4-0.9-9.5-5.9C480.9 383.8 486.2 376.2 491.1 375.9 497.5 375.5 487.3 376.2 491.1 375.9z" class="g"/><path d="M494 396.5c-4.3 0-12.4-0.7-14-5.8 -2.1-6.6 7.5-15.2 13.4-15.6C508.5 374 513.1 396.5 494 396.5zM493.9 375.7c-12.3 0-19.2 18.1-3.3 20 4.5 0.5 13.8 0.7 15.9-4.7C509.2 384.3 500.3 375.7 493.9 375.7z" class="h"/><path d="M515.1 371c7-10.5 15 5.8 8.1 13.7C514.1 395.1 510.7 377.6 515.1 371 518 366.7 512.3 375.2 515.1 371z" class="e"/><path d="M515.1 371c4.4-6.5 15.2 8.6 6.4 15.1C511.7 393.4 511.8 376 515.1 371 518 366.7 512.3 375.2 515.1 371z" class="f"/><path d="M514.3 372.5c2.8-5 13.5 6.3 5.5 13.4C512.3 392.6 512.1 376.5 514.3 372.5 516.2 369.2 512.4 375.9 514.3 372.5z" class="g"/><path d="M517.6 387.9c-9.2 0-5.8-20.2 3-20.2C531.6 367.6 527.1 387.9 517.6 387.9zM520.6 368.3c-7 0-11.6 16.8-4.7 18.8C525.9 389.9 531.2 368.3 520.6 368.3z" class="h"/><path d="M604.9 213.1c-9.4-1.9 4.7-30.4 9.5-33.2 7.4-4.1 15.9-4.8 24-6.4 2.5-0.5 17.3-8.1 17.2-9 0.5 4.3-4.1 10.8-6.8 13.6 -0.5 6.3-4.6 12.3-9.6 16 -5.5 4.1-12.5 4.3-18.8 6.4C616.7 201.8 606.9 213.5 604.9 213.1 602.3 212.5 606.5 213.4 604.9 213.1z" fill="#494949"/><path d="M606.2 207.6c-3.1-0.6-2.1-9.8-1.9-11.7 1.1-8.4 5.7-14.4 13.5-17.7 7.4-3.1 15.4-3.2 23-5.3 1.7-0.5 14.8-8.4 14.8-8.5 1.1 9.5-10.7 17.9-18.7 19.1 12.7 2.4-5.7 9.8-8.9 10.6 -5.4 1.4-11.3 2.9-15.7 6.5C611.7 201.4 607.3 207.9 606.2 207.6 603.5 207.1 607.7 207.9 606.2 207.6z" fill="#5B5B5B"/><path d="M606.9 201.3c-2.7-0.6-1.2-8-0.9-9.4 1.5-6.9 5.4-10.8 11.9-13.5 3.1-1.2 34.7-6.9 34.3-10.3 0.9 8.3-15 14.2-20.4 16 1.9 0 3.4 0.7 4.4 2.1 0.6 3.8-13.5 6-15.7 6.7C617 193.9 609.2 201.7 606.9 201.3 604.3 200.7 608.5 201.6 606.9 201.3z" fill="#666"/><path d="M605.1 213.4c-7 0 1.9-27.1 4.1-29.6 5-6 14.1-7.9 21.4-9.2 9.1-1.6 14.1-3.8 21.7-9 6.3-4.3 2.8 3.5 1.2 6.6 -3.3 6.3-5.8 14.3-10.8 19.6 -5.3 5.5-11.8 6.4-18.8 8.2 -3.5 0.9-7 2-9.8 4.3C612.1 205.8 607.6 213.4 605.1 213.4zM655.4 164.6c-5.4 0-11.4 8.3-17.6 9.4 -7.8 1.4-15.9 2.2-22.9 6 -6.5 3.5-9.3 9.8-10.6 16.8 -0.3 1.8-2.4 15.3 0.7 16 1.7 0.3 11.5-11.2 14.9-12.3 6.5-2.2 13.8-2.3 19.4-6.6 6-4.6 6.4-9.7 9.3-15.8C648.8 177.6 656.8 164.6 655.4 164.6z" class="i"/><path d="M637 183.6c4.4-0.8 8.8-3.8 12.1-5.2C646.1 181.6 641.3 183.3 637 183.6z" class="i"/><path d="M554.3 196.6c3.3 11.8 17.7 34.4 30.7 37.2 13.4 2.9 17-25 20.5-24.3 3.7 0.7-3 18.7-3.8 20.3 -5.4 12.1-14.6 16.9-27.7 13.2 -8-2.3-25.6-12.4-23.9-22.2C551.5 212.8 552.9 204.7 554.3 196.6z" class="a"/><path d="M554.3 196.6c3.3 11.8 17.7 34.4 30.7 37.2 13.4 2.9 17-25 20.5-24.3 3.6 0.7-4 16.9-4.8 18.3 -5.2 9.1-13.3 14.7-24.1 11.4 -6.4-2-26.9-16.4-25.5-24.2C552.1 208.9 553.2 202.8 554.3 196.6z" class="b"/><path d="M554.3 196.6c4.5 15.9 22.6 42.6 41 34.7 -2.4 1-3.5 5.9-8.6 6.8 -7.4 1.3-13.9-3-18.9-7.9 -6.2-6.2-11-13.7-15.7-21C551.5 205.7 553.7 200.1 554.3 196.6z" class="c"/><path d="M582.7 244.6c-8.7 0-35.3-10.4-33.3-22.2 1.6-9.1 3.2-18.1 4.7-27.2 3.4 12.7 27.3 52.4 42.4 32.3 2.5-3.4 12.5-28.8 9.5-11C603.9 229.2 597.5 244.6 582.7 244.6zM549.9 223.7c7.6 11.7 28.4 28.3 43 17.8 7.7-5.6 15.4-22.1 12.5-31.6 -1.2 0-6.9 16.3-8.4 18.2 -3.8 5.1-10.1 8-15.9 4.4 -11.4-7-22.4-22-26.8-34.6C552.9 206.5 551.4 215.1 549.9 223.7z" class="d"/><path d="M512.2 124.2c17.8 5.2 29.2 24.8 36.3 40.5 9.1 20.2 12.1 40.3 9.9 62.3 -0.9 9.4-2.3 19.3-5.9 28.1 -1.1 2.6-3.1 4-1.9 6 1.8 3.1-0.7 7.8-2.5 10.2 -14.5 20.4-31.4-10.7-46.5-0.3 11.9-24.4 17-46.9 13.5-73.8C511.9 171.8 525.7 148.8 512.2 124.2 538.3 131.8 528.3 153.5 512.2 124.2z" class="a"/><path d="M536.9 265.7c1.8-1.4-6.7-5.7-7.2-6.9 1.6 3.8 16.7-18.1 17.3-19.7 5.1-13 6.9-27.5 6.8-41.4 0-26.8-12.8-65-41.7-73.5 7.2 13.2 7.7 27.2 5.4 41.7 -2.5 16.3-1.3 29.4-0.5 45.5 0.4 8.4-0.6 16.8-2.5 24.9 -1.8 7.6-8.1 16.6-2.8 23.4C516.6 266 529.8 271.2 536.9 265.7 539.2 263.9 531.5 269.9 536.9 265.7z" class="b"/><path d="M535.5 234.6c16.1-32.2 21.6-97.2-23.3-110.3 14.1 25.8-2.1 50.6 3.6 77.2 3.1 14.3 0.8 29.3-3.5 43.1C517 253 533.3 239.1 535.5 234.6 546.6 212.4 530.7 244.2 535.5 234.6z" class="c"/><path d="M535.5 278.8c-11.8 0-23.7-15.8-34.7-6.8 9.4-19 17.4-40.1 16-61.6 -0.6-8.4-2.8-16.2-2.2-24.7 0.5-7.7 2.2-15.3 3.2-22.9 1.9-13.6 0.7-26.9-6.2-39.1 29.8 8.2 46.5 53.3 47.8 81 0.7 16.2-0.4 34.3-6.2 49.6C549.7 263.4 550.7 278.7 535.5 278.8zM508.6 268.3c9 0 17.9 9 26.9 10.2 6-0.8 20.9-10.7 13.5-18.2 6.4-7.5 7.5-20 8.7-29.3 1.8-14.9 2.1-30.2-1.8-44.7 -5.8-22-19.3-54-43.1-61.6 13.7 25.6-2.4 50.3 3.3 76.6 5 23.5-3.6 48-13.8 68.9C504.2 269 506.3 268.4 508.6 268.3z" class="d"/><path d="M540.9 265c3.2-0.6 6.8-3.5 8.9-4.5C547.4 262.9 544.4 264.9 540.9 265z" class="d"/><path d="M240.2 110.3c1.7-11.7 15.2-17.7 24.4-22.5 9.7-5 15.1-12 23.1-19.1 25.6-22.8 59.4-18.8 85.2 2.1 9.1 7.4 16.5 15.3 26.9 21.3 15.7 9 32.6 10.5 50.4 9 29.1-2.5 54.7 0.9 69.3 29.5 6.9 13.4 7.7 27.7 6 42.5 -1.2 10.3-4.6 19.8-3.7 30.2 1.1 12.3 1.7 24.4-0.7 36.6 -3.8 18.7-15.2 33.8-25.9 49.1 -21.5 30.5-53.9 44.4-89.4 31.3 -14.6-5.4-30.4-15.2-46.4-14.8 -13 0.3-30.6 5.2-40.7-5.9 -4.6-5-5-13-7.4-19 -4.9-12-15.5-19.3-27.3-23.9 -9.5-3.7-12.3-1.4-14.2-10.3 -1.8-8.4-3.6-16.8-5.5-25.2C256.2 184.3 248.2 147.3 240.2 110.3z" class="a"/><path d="M358.9 290.8c29.1-9.1 58.4-27 71-56 4.1 17.6 21 50.9 44.7 39.8 19.1-8.9 26.1-34.6 25.2-53.6 1.9 2.6 5.7 15.2 10 14.4 5.9-1.1 9-9.8 10.6-14.6 2.5-7.7 1.4-14.4 1.1-22.3 -0.3-6.2 2.1-12.3 3.1-18.4 4.6-27.8-1.1-62.1-29.8-75.3 -28.6-13.1-60 3.8-88.9-9.6 -26.1-12.1-40.7-36.6-70.8-41.8 -15.6-2.7-30 1.7-42.5 11.2 -8.2 6.3-14 15.6-23.1 20.6 -14.1 7.8-31.6 14.2-27.6 32.5 8.4 38.7 16.8 77.4 25.2 116.1 1.2 5.7 2.5 11.5 3.7 17.2 0.8 3.8 6.1 3.2 9.3 4.3 7.5 2.6 14.9 6 21 11.2 7.7 6.5 10.7 15 13.4 24.3 2.2 7.4 4 7.3 12.2 6.8C337.6 297 348.5 294.3 358.9 290.8 387.8 281.8 345.9 295.2 358.9 290.8z" class="b"/><path d="M318.6 239.1c1.5 8.5-1 17 4.7 24.6 4.5 6.1 13.2 8.1 19.7 4.1 6.3-3.9 8.5-12.9 13.3-18.5 8-9.4 16.5-9.8 27.2-13.9 8.8-3.3 12.4-29.6 23.8-18.4 7.2 7.1 12.8 0 12.7-8.7 -0.2-12.5-10.4-23.4-17.2-33.1 14.7 4.5 24.4 16.5 31.5 29.5 7.1 13.1 12.2 33.1 27.2 39.4 12.1 5.1 21.1-8.5 23.1-18.9 1.6-8.7-3.6-31.1 8.2-34.4 7.9-2.2 16.1 1.6 22.1-6 9-11.5 8.9-33.4 5.5-46.7 -9.6-37.9-42-38.9-74-36.8 -16.5 1.1-32.1-0.9-46.6-9.3 -11.3-6.5-19.2-15.5-29.4-23.2 -26.9-20.3-59.9-21.8-84.8 1.8 -7.1 6.7-12 12.5-20.9 17.1 -6.5 3.3-26.6 12.4-24.4 22.6 2.9 13.4 5.8 26.9 8.8 40.3 5.1 23.3 10.1 46.7 15.2 70 1.9 9 1.1 11 11.1 14.6 8.9 3.3 18.4 3.1 27.7 1.9C306.4 236.8 317.5 233.4 318.6 239.1 319.8 245.7 316.8 229.4 318.6 239.1z" class="j"/><path d="M318.6 239.1c1.5 8.5-1 17 4.7 24.6 4.5 6.1 13.2 8.1 19.7 4.1 6.3-3.9 8.5-12.9 13.3-18.5 8-9.4 16.5-9.8 27.2-13.9 8.8-3.3 12.4-29.6 23.8-18.4 7.2 7.1 12.8 0 12.7-8.7 -0.2-12.5-10.4-23.4-17.2-33.1 14.7 4.5 24.4 16.5 31.5 29.5 7.1 13.1 12.2 33.1 27.2 39.4 12.1 5.1 21.1-8.5 23.1-18.9 1.6-8.7-3.6-31.1 8.2-34.4 7.9-2.2 16.1 1.6 22.1-6 9-11.5 8.9-33.4 5.5-46.7 -4.8-19.2-15.6-29-34.2-33.9 -14-3.7-25.8-0.6-39.8 0.6 -13.7 1.1-29.8 1.7-42.6-4.5 -11.2-5.5-18.9-15.2-28.7-22.7 -26.9-20.2-60.5-28.8-87.3-4.1 -7.3 6.8-12.5 12.8-21.3 17.8 -6.5 3.6-27.3 13.8-25.1 24 3 13.9 6 27.8 9 41.7 4.7 21.6 9.4 43.2 14.1 64.8 2.2 9.9 3.3 11.8 15.2 14.8C285.2 238.2 317.5 233.2 318.6 239.1 319.8 245.7 316.8 229.4 318.6 239.1z" class="c"/><path d="M434 326.8c-20.2 0-38.4-11-57-17.4 -17-5.9-38.9 3.4-54.1-5.9 -9.6-6-9-17.8-14.1-26.9 -6.8-12.2-20.3-18.4-33.1-22.2 -9.8-2.9-9.3-21.3-11.3-30.6 -4.7-21.6-9.4-43.2-14-64.8 -3.3-15.4-6.7-30.9-10-46.3 -1.5-7.1 4.7-13.1 10.1-17 10.6-7.6 21.8-11.6 30.9-21.2 24.3-25.5 56.9-28.1 86-8.1 8.6 5.9 15.2 13.9 23.8 19.9 13.9 9.6 29 15.5 46.1 15.2 28.7-0.4 58.6-7.3 77.5 20.5 14.3 20.9 13.7 45.5 7.9 69.4 -2.4 9.9 0.6 21 0.5 31.1 -0.1 15.7-4 31-12.4 44.4C493.9 293.8 469.7 326.8 434 326.8zM359.9 305.3c19.7 0 38.2 13.4 56.8 18.4 15.7 4.2 30.3 2.6 44.7-4.9 14.5-7.6 26.9-19.3 35.7-33.1 9.5-14.9 20.2-28.1 23.7-46 2.6-13.2 1.3-26.1 0.4-39.4 -1-15.5 5.7-30.9 4.5-46.9 -2.4-31.5-28.3-55.5-60.3-53.6 -29.7 1.8-61 4.2-83.4-20 -21.6-23.3-57.6-36.6-85.9-17.4 -8.3 5.7-13.8 14.1-21.7 20 -7.2 5.4-36.8 14.9-33.9 27.8 2.7 12.3 5.3 24.5 8 36.8 7.3 33.7 14.6 67.4 21.9 101.2 1.6 7.2 7.3 5.7 14.2 8.4 9.9 4 19.5 9.9 24.8 19.5 4 7.2 4 18.7 10.4 24.2C331.2 310.1 346.5 305.3 359.9 305.3z" class="d"/><path d="M501.9 278.6c1.5-8.8 6.6-18.9 7.9-28.9C510 259.3 506.3 270.3 501.9 278.6z" class="d"/><path d="M403.5 124.5c-0.4-17.8-14.1-28.9-19.4-43.3C392.9 91.6 405.8 110 403.5 124.5z" class="d"/><path d="M301.6 308.2c8.4 9.8 12.7 26.8 14.3 39.3 1.7 13.7-16.5 14.8-21.3 26.7 -4.3 10.7 14.2 16.3 21.5 17.6 16.6 2.9 43-3.2 47.9-22.3 2.2-8.4-3.2-15-3.5-23 -0.3-6.6 3.5-14.1 4.8-20.5 0.7-3.5 5.2-28.6 2-29.8 -2.7-1-5.4-1.8-8.1-2.6C341.8 288.5 303.3 280.3 301.6 308.2 309 316.9 303.8 272.3 301.6 308.2z" class="a"/><path d="M301.6 308.2c5.7 6.6 21 39.4 13.5 47.4 -5 5.3-21.8 8.9-14.3 17.7 6 7 16.5 15.1 25.4 8.8 17.6-12.5 16.6-37 10.6-55.4 -3.2-9.7-7.9-19-14.4-26.9 -2.7-3.3-5.8-6.3-9.3-8.7C306 294.1 302 300.5 301.6 308.2 309 316.9 302.1 299.1 301.6 308.2z" class="b"/><path d="M326.4 317.8c-3-5.7-9.9-11.8-16.9-9.7 -9.2 2.8-1 12.7 1.1 18.8 2.4 7 4.7 14.4 5.3 21.9 0.3 3.4-6.8 14.1-7.8 12.3 2.3 4.3 3.2 6.5 4.6 11.9 0.3 1.1 11.7 1.6 13.4 0.6C344.8 363.1 333.3 331.3 326.4 317.8 321.6 308.6 335.7 336.2 326.4 317.8z" class="c"/><path d="M325.6 393c-10.5 0-25.3-2.8-31.3-12.7 -5.8-9.5 12.3-19.1 18.2-23.1 8.3-5.5-0.1-24.4-2.6-31.5 -4-11.1-14-19.9-3.3-30.8 11.6-11.8 34.2-6.6 48-3 2.9 0.8 10.9 1.7 13 4 3.5 3.8-0.7 22.5-1.6 27.4 -1.2 6.8-3.4 13.4-5 20.1 -2 8.6 5.6 16.7 3.3 25.8C360.3 385 340 393 325.6 393zM293.8 377.8c2.4 7.3 11.7 11.1 18.3 12.8 16.3 4.2 35.1 0.7 46.6-12.4 11.1-12.6-1.3-23.5 2.4-36.9 1.8-6.4 12-42.7 5.2-45.1 -14.6-5.1-78.4-16.2-60.9 17.4 5.6 10.8 10.3 24 11 36.3C317 361.7 296.7 364.7 293.8 377.8 294.1 378.7 296 367.8 293.8 377.8z" class="d"/><path d="M306 362.8c8.1 3.8 3.6 28.2-8.1 23.5C282.9 380.2 297.7 358.9 306 362.8 310.7 365 301.6 360.7 306 362.8z" class="e"/><path d="M306.2 378c2.2-3.1 4.6-13-0.2-15.2 -3.9-1.8-9.6 4.8-11.6 7.2C285.3 381.1 298.8 388.6 306.2 378 308.9 374.3 302.1 383.9 306.2 378z" class="f"/><path d="M304.3 377.1c7-9.4 1.8-19.3-7.9-9.3 -2.4 2.5-6.3 6.7-6 10.5C291 385.3 302.5 379.5 304.3 377.1 307.1 373.4 298.1 385.4 304.3 377.1z" class="g"/><path d="M301.4 387.3c-17.5 0-9.3-18.9 0.2-24.1C312.2 357.5 313.3 387.3 301.4 387.3zM304.9 362.8c-11.6 0-19.8 19-6 23.5C311.2 390.2 311.9 362.8 304.9 362.8z" class="h"/><path d="M321.4 376.9c10.1 3.9 9.8 19.5-2.7 18C303.2 393 314.1 374.1 321.4 376.9 327.9 379.4 317.3 375.3 321.4 376.9z" class="e"/><path d="M321.4 376.9c10.1 4.5 3.3 19.4-7.6 16C304.9 390.2 315.7 374.3 321.4 376.9 326.3 379.1 317.4 375.1 321.4 376.9z" class="f"/><path d="M322.3 390.8c-5.1 6-15.4-1.3-9-9.2C321.4 371.5 328 384.1 322.3 390.8 320.1 393.4 325.8 386.6 322.3 390.8z" class="g"/><path d="M321.2 395.3c-15 0-12.8-18.9-0.7-18.9C329.6 376.4 333.3 395.3 321.2 395.3zM320.5 377c-9.4 0-14.2 15.5-2.5 17.4C332.4 396.8 329.9 377 320.5 377z" class="h"/><path d="M267.3 256.8c7.9 3.9 13.4 12.9 16.6 20.7 2.6 6.4 0.1 11.1 1.2 17.4 0.8 4.1 15.3 16 16.6 12.9 3-7.2 10.4-10.7 17.9-8.9 -0.8-15.7-8.4-30.9-22.3-38.8C291.5 256.8 268.3 244.4 267.3 256.8z" class="a"/><path d="M275.7 263.9c7.1 8.5 8.6 16.5 10.6 26.8 2.6 14.1 13.5 6.5 21.4 3.7 9.9-3.4 5.2-15.2-0.2-21.1C299.7 264.8 286.6 262.8 275.7 263.9 281.5 270.8 290.1 262.4 275.7 263.9z" class="b"/><path d="M301.8 308.6c-5.8-2-13.6-5.2-16.3-11.3 -2.1-4.8 0.7-9.6-0.3-14.5 -1.4-7.1-5.8-14.2-10.5-19.6 -2-2.3-12.7-7.9-5.6-12.3 6.7-4.2 29.8 9.3 34.6 13.1 10.3 8.3 15.8 22.3 16.3 35.3C312.2 297.2 304.6 301.2 301.8 308.6zM267.6 256.7c7.1 3.6 12 11.1 15.3 18.1 3.3 7 1.8 11.7 2.3 18.9 0.5 8 9.8 11.8 16.2 14.2 3-7.2 10.3-10.9 17.9-9.2 -0.7-14-7.2-28.4-19-36.3C295.3 259 268.1 244.5 267.6 256.7z" class="d"/><path d="M411.5 335.1c-3.4 7.8-6.6 16.1-8 24.5 -1.6 9.7 4.5 12.7 7.4 20.9 5.4 14.8-28.2 22.6-37 23 -9.1 0.4-41.6-3.2-38.1-18.8 3.5-15.5 14.8-24.5 11.3-42.1 -1.4-7.1-3.8-14-6.6-20.6 -2.5-6-8.1-12.7-8.5-19.3 -1.2-21.3 20.5-1.7 32.2-9.6 12.7-8.6 21.9-27.9 38.3-14.9C419.7 291.7 419.6 316.5 411.5 335.1 406.6 346.3 416.4 323.9 411.5 335.1z" class="a"/><path d="M402.8 334.3c-3.4 7.9-6.8 16.4-7.4 25.1 -0.6 8.9 7.1 17.4 5.2 26.1 -2.7 11.8-28.6 10-36.7 9.5 -10.4-0.7-30.8-4.5-23.8-19.2 7.2-15.2 9.9-26.4 4.6-43.1 -3.6-11.3-16.3-26.4-11.2-38.5 2.5-5.8 10.5-0.6 14.5 0.6 9.2 2.7 15 0 21.9-6 5.5-4.8 10.5-10.3 16.5-14.4 7.3-5 17.9 4.3 22.2 9.9C417.3 299 409 320 402.8 334.3 397.9 345.5 407.7 323.1 402.8 334.3z" class="b"/><path d="M396.4 333c-3.1 7.2-5.9 14.8-7.1 22.6 -1.2 7.6 1.9 11.9 3.4 18.9 0.5 2.5-0.9 8.6-1.2 11.4 -0.5 4.6-13.6-2.4-15.3-2.8 -7.5-2.1-11.9 3.4-18.8 4.5 -7.1 1.1-5.1-6.6-9.4-9 -6.7-3.8-6.1-5.6-3.2-12.1 3-6.7 3.9-13.9 2.9-21.2 -1.7-12.2-6.7-25.2-13-35.7 -3.3-5.5 0.1-12.9 7-8.8 5.6 3.3 11.8 8.5 18.9 6.5 11-3.1 21-20.5 33.5-17.6C412.2 293.9 400.7 323.1 396.4 333z" class="c"/><path d="M371.6 403.8c-9.8 0-40.8-4.6-35.5-20.7 5.8-17.4 14.9-27.4 9.3-46.9 -3.4-11.9-18-30.3-12.1-42.6 2.9-6.1 13.5 0.8 18 1.7 10.4 2.1 17.4-5.8 24.3-12.3 3.3-3.1 8.6-9.5 13.3-10.4 9.6 0 17.6 7.3 22.4 15 11.4 18.5 3.4 38.5-3.2 56.9 -2.4 6.6-5.1 14.1-4.7 21.2 0.4 7 10.7 12.3 8.1 19.6C406.6 398.7 383.6 403.8 371.6 403.8zM336.6 291.6c-12 0 3 26.8 4.3 30.2 6.5 15.8 10.5 31.5 2.7 47.6 -2.6 5.4-10 13.9-6.9 20.2 4.1 8.3 16.9 11.5 25.1 12.8 15.6 2.5 34.1-1 45.6-12.5 3.8-3.8 5-7.5 1.8-12.3 -5-7.6-7.4-11.8-5.4-21 4.4-20.2 15-35.9 11.8-57.4 -3.3-13.2-18.7-33.7-32.8-21.8 -6.7 5.6-12.6 12.9-20.4 17.2C353.1 299.7 345.7 291.6 336.6 291.6z" class="d"/><path d="M338.7 379.8c7.7-4.1 15.8 13.1 9.4 18.3C339.5 405.1 328.4 385.3 338.7 379.8 342.4 377.8 336.1 381.2 338.7 379.8z" class="e"/><path d="M350 388.4c-4-12.9-19.7-9-14.8 3.6C338.4 400.2 351.5 397.6 350 388.4 348.1 382.6 351.4 396.8 350 388.4z" class="f"/><path d="M349 386.1c-5.2-10-17.1-6.3-14.1 5.1C336.9 399.1 350.3 393.8 349 386.1 347 382.3 350.4 394.5 349 386.1z" class="g"/><path d="M344.7 399.6c-9.1 0-15.2-15.3-6.2-20.1C348 374.5 357.4 399.6 344.7 399.6zM340.4 379.7c-9.8 0-4.8 17.9 3.5 19.2C354.5 400.6 350 379.7 340.4 379.7z" class="h"/><path d="M371.6 385.9c14.3-0.9 19.3 20.5 1.2 20.8 -4.3 0.1-12.8-0.6-14.4-5.7C356.4 394.6 365.8 386.3 371.6 385.9 378 385.5 365.3 386.3 371.6 385.9z" class="e"/><path d="M371.6 385.9c11.3-0.8 11.7 20.3-2.5 20.3C352.2 406.1 358.9 386.7 371.6 385.9 378 385.5 365.3 386.3 371.6 385.9z" class="f"/><path d="M368.2 386.8c11.2-1.6 12 18.3-2.3 17.5C353.2 403.6 359.5 388.1 368.2 386.8 374.8 385.9 366 387.1 368.2 386.8z" class="g"/><path d="M372.2 407c-4.3 0-12.5-0.8-14.2-5.9 -2.1-6.6 7.5-15.1 13.5-15.5C386.3 384.6 391.5 407 372.2 407zM372 386.2c-12.4 0-19.2 18.1-3.2 20 4.5 0.5 13.7 0.7 15.8-4.6C387.3 394.9 378.4 386.2 372 386.2z" class="h"/><path d="M399.6 380.2c9.4-9.4 15.7 4.9 8.7 13C398.1 405 391 388.8 399.6 380.2 403.6 376.2 395.7 384.1 399.6 380.2z" class="e"/><path d="M399.6 380.2c7.8-7.8 14.8 9.2 4.5 15.5C392.8 402.7 394.6 385.2 399.6 380.2 403.6 376.2 395.7 384.1 399.6 380.2z" class="f"/><path d="M399.6 380.2c5.4-5.2 10.4 8.3 3.3 13.8C393.1 401.6 394.9 384.8 399.6 380.2z" class="g"/><path d="M400.6 397.6c-10.3 0-4.7-16.9 1.5-19.5C416.8 372.1 414.1 397.6 400.6 397.6zM405.5 378.1c-6.8 0-15.1 15.7-7.2 18.5C408.8 400.4 418.8 378.1 405.5 378.1z" class="h"/><path d="M432.4 227.9c-20.3 10-40.4 20.8-61.3 29.8 -14.6 6.3-29.2 12.6-43.8 18.9 -16.9 7.3-15.3 31.8 5.9 30.8 -2.3-3.9-2.1-17.4 4.9-15.9 11.1 2.5 18.7 7.6 28.8-0.5 6.4-5.1 16.4-19.6 25.3-17.9 12.1 2.3 20.7 14.7 23.6 26 11.1-7 17.5-19.4 15.1-32.4 -1.4-7.8-4.2-10.4-2.1-18.3C430.6 242.2 433.4 234.4 432.4 227.9z" class="a"/><path d="M432.4 227.9c-35.1 14.2-68.2 29-101.8 46.5 -8.4 4.4-17 8.5-15.3 20 0.6 4.1 8.5 13.1 12.1 6.4 3-5.5-2.2-14 7.9-14.8 7.6-0.6 16.9 3.8 24.2 0.1 5.3-2.6 9.7-7.4 14.5-10.8 13.6-9.7 28.8-12.3 40.1 2.3 -6.9-1.7-1.7 6.5 0.8 8.1 5 3.3 9.4-2.8 11.2-6.8 4.3-9.3-0.6-18.1 1.8-26.9C430 244.9 433.6 235.6 432.4 227.9z" class="b"/><path d="M331.9 307.7c-14.3 0-26.2-22.4-9.6-29 -14.7 8.8-4.6 28.8 10.4 28.3 -4.5-9.7 0.6-17.8 10.4-14.3 14.8 5.3 21.6 0.3 32.5-9.8 4.9-4.6 9.7-11.5 17-10.1 11.9 2.4 20.5 14.6 23.4 25.7 13.4-8.6 18.7-24.6 12.4-39.4 -4.3-10 5.3-20.4 3.6-31.3 1.1 3.4 0.3 7.1-0.5 10.6 -0.8 4-1.9 8-3 12 -1.7 6.3 0.3 7 2 12.9 4 14.2-2.4 28.6-14.9 36.2 -2.3-9.2-7.9-18.3-16.1-23.3 -12.2-7.4-18.3 2.4-27.1 10.3 -9.9 8.9-16.7 11.3-29.6 6.7 -10-3.6-13.9 5.2-9.2 14.3C333.2 307.7 332.6 307.7 331.9 307.7z" class="d"/><path d="M414.1 277.7c-7.5-8.6-16.6-7.1-25.6-5.1C396.8 268.1 408.8 269 414.1 277.7z" class="d"/><path d="M426.7 255.6c-2.1-3.9-5.8-7.3-9.7-9.5C421.2 247.7 426.1 251.9 426.7 255.6z" class="d"/><path d="M226.2 108.2c-12.8 8-20.3-0.8-29.1-9.3 -3.3-3.2-18.2-20.6-23.2-14.4 -9.6 11.9-5.2 34.7 0.5 47.2 8.8 19.4 21.5 5.1 36.9 5.3" class="a"/><path d="M226.2 108.2c-12.8 8-20.3-0.8-29.1-9.3 -3.2-3.1-18.4-20.7-23.1-14.4 -7.8 10.3-4 32.2 1.1 42.7 7.2 14.7 22.9 9.6 36.2 9.9" class="b"/><path d="M226.2 108.2c-12.5 7.9-20-0.4-28.7-8.9 -4.6-4.5-17.9-21.7-21.6-11.1 -4.2 11.9-4.1 29.6 2.8 40.6 5.3 8.4 24.1 8.2 32.6 8.3" class="c"/><path d="M187 143.2c-20.5 0-21.8-45.5-14.1-57.7 5.6-8.8 19.8 8.7 23.9 12.6 10.3 10 15.7 15.4 29.6 10.3 -14.8 9.3-23.8-4.1-33.8-13.4 -6.6-6.2-16.4-18.3-21.2-5 -4.7 13-2.1 30.1 3.7 42.3 8.7 18.4 21.6 4.2 36.3 4.4C204.8 138.6 194.6 143.2 187 143.2z" class="d"/><path d="M206.8 131c-9.3 0-13.5-7.1-15.2-15.2 -2.3-10.5-8-13.9-15.6-20.5C175 114.5 179.4 142.8 206.8 131z" class="k"/><path d="M206.8 131c-6.2 0-16.6-1.6-18.4-8.9 -1.2-4.7-0.6-9.6-2.8-14.1 -2.4-4.9-6.6-8.3-9.6-12.7C175 114.5 179.4 142.8 206.8 131z" class="l"/><path d="M206.8 131c-6.3 2.2-19.5-0.2-21.4-7.9 -2.3-9.1-1.5-16.7-9.7-23.1 0.6 8.4-0.8 17 3.6 24.7C184.3 133.8 198.2 134.8 206.8 131z" class="m"/><path d="M197.1 133.2c-22.5 0-22.6-21.3-21.4-38.5 7.7 6.2 13.8 10.3 16 20.5 1.9 8.6 6.3 16.1 16.3 15.5C204.7 132.5 200.9 133.2 197.1 133.2zM176.3 96c-1.2 19 3.1 44.3 29.2 35.3 -9-0.8-12.6-8.1-14.3-15.9C189.1 105.7 183.6 101.8 176.3 96 176.2 96.3 176.9 96.5 176.3 96z" class="d"/><path d="M203.4 127.7c5.3-9 15.7-18.4 25.4-22.2 5.7-2.3 11.8-0.5 17.8-0.4 5.3 0.1 10.2-2.9 15.2-4.3 28.1-8.2 57.1 11.6 66.6 37.7 9.1 24.9 22.1 45.6 15.7 73.7 -6.4 27.8-31.3 48.7-59.8 47.7 -7.4-0.3-15.8-2.1-23 0.4 -8.5 10.5-24.5 8.4-35.4 14.7 -5.5 3.2-14.9 19.6-21.6 18.1 -7-1.6-12.2-7.9-13.2-14.8 -0.7-5.1 0.4-10.3 2.2-15 1.6-4.2 3.8-8.3 6.2-12.1 -1.3-4.2-2.8-8.4-4.2-12.6 -5-14.6-12.1-30.7-11-46.5 0.4-6.1 2.7-11.8 7.5-15.8 4-3.3 2.7-9.3 3.4-14.6C196.4 150.9 197.8 137.3 203.4 127.7z" class="a"/><path d="M326.5 225.3c-11.7 17.6-39.3 27.7-59.6 27.7 0.4-2.9-0.1-5.6-1.5-8.1 -1.7 5.2-6.3 9.1-11.1 11.3 -1.2 0.6-12.8 4.2-11.2-0.8 1.7-5.2 7.6-7.9 8-13.9 0.7-9.7 3.8-14.1 9.8-21.1 4.3-5-6.2-3.3-8.5-1 -3.9 4.1-6.6 9.3-10.2 13.7 -10.6 12.7-27.7 17.2-43.6 19 2.4-3.9-4.9-17.8-6.4-22.3 -3.1-9.1-6.2-18.3-7.6-27.8 -0.9-6.3-1.1-13.2 1.6-19.1 1.2-2.7 3.1-5.1 5.4-7 3.5-2.9 2.4-4.2 2.7-8.7 1-12.5 3-26.8 8.2-38.3 4.4-9.7 19.8-24.6 31-24.8 5.8-0.1 12.2 1.7 17.9 0 7.2-2.2 13.5-5.2 21.3-5.3 17.6-0.2 39 7.5 44 25.1C326.2 157.3 348.8 191.6 326.5 225.3 316.5 240.5 336.5 210.2 326.5 225.3z" class="b"/><path d="M311.4 228c-10.4 6.8-22.9 12-35.4 12.2 -7.4 0.1-15.9-1.6-11.6-10.2 3.3-6.5 9.3-19.3-3.1-20.7 -9.6-1.1-15.5 9.5-20.6 15.6 -7 8.4-13 13.7-23.9 14.7 -5.3 0.5-10.7 0.6-16 0.7 -7.9 0.3-7.7-8-10-14.9 -4.2-12.6-10.5-29.7-4.3-42.6 2.1-4.4 7.7-6.5 7.7-11.1 0-6.6 1.1-13.3 2.3-19.8 3.5-19.2 13-42.1 34.7-47.2 9.6-2.2 17.7 0.5 27.4-3 11.5-4.1 23.9-2.9 35.3 1.2 6.5 2.3 12.5 5.8 17.6 10.4 5.2 4.7 5.2 12.4 7.5 18.9 2.5 7.1 4.8 8.4 1 15 -2.8 4.7-3.8 10-2 15.2C324.7 181 332 214.5 311.4 228 290 241.9 321.2 221.6 311.4 228z" class="j"/><path d="M311.4 228c-10.4 6.8-22.9 12-35.4 12.2 -7.4 0.1-15.9-1.6-11.6-10.2 2.9-5.9 8.5-15 0.5-19.5 -9.4-5.3-17.5 5.9-22.4 12.2 -6 7.7-12.5 15.2-22.6 16.5 -5.4 0.7-10.8 0.8-16.2 1 -8.9 0.3-8.1-0.8-11.2-9.8 -4.6-13.3-11.4-30.1-7.2-44.3 1.5-5 4.6-9.1 9.1-11.7 -0.5-5.9 0.5-12.2 1.5-18 3.4-21 10.8-43.6 34.9-48.5 10.3-2.1 18.5 1 28.6-3.2 11.7-4.8 24.5-2.8 36.1 1.3 5.5 1.9 10.8 4.5 15.6 7.8 5.9 4 5.7 11.9 8 18.4 2.5 7.1 4.8 8.4 1 15 -2.8 4.7-3.8 10-2 15.2C324.7 181 332 214.5 311.4 228 290 241.9 321.2 221.6 311.4 228z" class="c"/><path d="M214.7 167.8c-0.4 8.2-4.4 20.1-13.5 22.3 -3.9 1-7.4-1-9.7-4.1 -4.1-5.6-2.9-8.2 2.9-11.7 -0.6-6.8-0.2-29.1 6.9-31.2C212.9 139.6 215 161.1 214.7 167.8 214.1 180.6 215.3 154.9 214.7 167.8z" class="n"/><path d="M214.7 169c-0.4 8.3-5.7 21.9-16 21.4 -10.1-0.5-12.6-11.1-4.4-16 -0.6-6.7-0.5-26.5 6.5-28.8C212.4 141.9 215 162.1 214.7 169 214.1 181.2 215.2 156.8 214.7 169z"/><path d="M205.7 293.5c-9.9 0-15.7-11.4-15.2-20 0.4-6.3 2.9-12.5 5.9-18 4.3-7.8-1.2-16.1-4-24.2 -4.4-12.8-10.1-27.3-8.4-41.1 0.7-5.4 2.9-10.5 7.1-14 4.2-3.6 2.9-9.2 3.6-14.9 2.8-21.6 7.3-38.1 25.6-51.4 11.1-8 19.4-2.3 31.1-5.9 14.8-4.5 26.5-7 41.9-1.8 12.5 4.3 22 12.6 29 23.6 5.5 8.7 7.3 18.6 12.6 27.3 13.1 21.3 16.5 54 2.6 75.7 -16.2 25.4-35.6 32-64.1 30.6 -8.7-0.4-10.9 1.8-17.9 5.7 -6.2 3.4-13.4 4.6-20.1 6.4 -7.5 2-12.7 5.4-18.1 10.9C214.8 285.2 209.9 293.5 205.7 293.5zM234.7 104.7c-19.8 0-32.9 24.1-36.5 40.5 -2 9.3-4.5 19.7-3.6 29.2 -1 2.2-5.5 4.5-7.1 7.1 -3.6 5.9-3.6 13.2-2.7 19.8 2.1 15.4 8.4 30.1 13.2 44.7 3.7 11-8.8 20.1-6.7 32.6 1.3 7.7 11.2 19.3 18.4 11.5 4.4-4.7 8.5-9.7 13.5-13.7 6.8-5.5 16.6-6 24.7-8.5 5.4-1.7 8.5-5.6 13.1-7.7 4.8-2.2 11.4-1.1 16.5-0.8 11.5 0.8 22.8 0.6 33.3-4.8 25.9-13.2 37.5-42.7 33.9-70.4 -1.9-14.3-9.2-23.8-14-36.7 -4.2-11.3-7.7-21.6-16.2-30.7 -9.7-10.5-23.3-15.7-37.3-17 -6.5-0.6-12.8 0.4-18.9 2.6C249.8 105.3 243.5 104.7 234.7 104.7z" class="d"/><path d="M204.2 255.6c-3.1 3.5-6 23.7 0.3 17.5 6.5-6.4 10.9-15.2 19.3-19.5C217.2 254.3 210.7 255 204.2 255.6z" fill="#510B0B"/><path d="M202.3 274.8c-4.5-3-4.2-18.8 2.1-19.5 7-0.7 13.9-1.4 20.9-2.1C218.7 256.3 208.3 274.8 202.3 274.8zM204.3 255.9c-4.1 4.7-6.9 13.7-2 18.6 7.2-5.9 11.7-15.4 20-20.4C216.3 254.7 210.3 255.3 204.3 255.9z" class="d"/><path d="M187.3 168.5c-0.8 7.6 1.3 21.4 11.4 21.9 10.1 0.5 15.6-12.4 15.9-20.6 0.3-7.2-1.4-21-10.4-22.7C194.2 145.1 188.1 161.1 187.3 168.5 186 180.2 188.5 157.3 187.3 168.5z" class="o"/><path d="M187.2 169.9c-2.4 21.8 21.6 27.4 26.3 5.2 1.6-7.6 0.2-23.4-9.7-25.2C194.2 148.1 188 162.6 187.2 169.9 186 180.8 188.4 159.5 187.2 169.9z" class="g"/><path d="M188.1 171.7c-0.9 20.2 21 21.2 21.9 1C211 152.6 189 151.5 188.1 171.7 187.7 180.8 188.5 162.7 188.1 171.7z" class="p"/><path d="M198.6 186.9c-12.6 0-11.7-29.3 0.8-29.3C212.1 157.6 211.1 186.9 198.6 186.9z"/><path d="M196.6 160.9c0 8.2 12.7 8.2 12.7 0S196.6 152.7 196.6 160.9z" class="q"/><path d="M190.4 167.8c0 3.3 5.1 3.3 5.1 0C195.5 164.5 190.4 164.5 190.4 167.8z" class="g"/><path d="M199.1 190.7c-19.8 0-14.3-44.1 3.9-44.1C221.2 146.6 218.5 190.7 199.1 190.7zM203 147.2c-17.3 0-22.9 42.9-3.9 42.9C217.8 190.1 220.4 147.2 203 147.2z" class="d"/><path d="M151.5 248.5c-14.5-5.7-5.6-39.9 6.8-20.4" class="c"/><path d="M152.2 223.7c-5.8-1.1-9.3 10.1-6.7 13.8C143.9 235 151.1 223.4 152.2 223.7 149.8 223.2 153.1 223.8 152.2 223.7z" class="f"/><path d="M151.4 248.8c-15.4-6.1-4.4-39 7.2-20.8C144.1 213 141.1 240.1 151.4 248.8z" class="d"/><path d="M203.1 138.3c5.9 23.4-5.9 48.4-23.9 63.2 -21.4 17.6-42 43.2-21.1 70.4 3.6 4.7 11.4 11.9 18.2 10.3 6.6-1.6 7.5-14.7 14.2-18.4 12.9-7 29.1-6 42.4-12.2 14.2-6.7 12.9-24.1 25.9-31.6" class="a"/><path d="M256.6 216.6c-8.3 3.5-12.6 15.8-19.2 21.7 -10.3 9.1-25.4 12.4-38.7 14 -13.1 1.5-19.8 1.9-29.3 11.5 -3.1 3.2-6.6 1.9-10.1-0.1 -6.9-4-9-8-9.6-15.8 -1.8-23.3 19.2-37.1 34.7-50.7 15.5-13.6 23.6-39.1 18.7-58.9C220.9 164.4 238.8 190.5 256.6 216.6z" class="b"/><path d="M253.2 211.6c-9.4 5.3-13.8 16.9-22.3 23.5 -10.6 8.3-23.8 11.6-37 12.5 -11.9 0.8-16.7 4.9-26.9 10 -10.2 5-17.3-10.7-17.2-18.3 3.4-21.1 24.4-29.4 36.6-44 13.1-15.6 21.8-36.4 16.7-56.9C227.8 157.3 241 183.7 253.2 211.6z" class="c"/><path d="M174.9 282.6c-10.5 0-19.1-11.5-22.4-20.2 -6.5-16.9-2.6-32.1 9.2-45.2 11-12.3 24.9-20.2 33.4-34.7 7.8-13.3 11.3-28.9 8-44.1 8.1 21.8-6.4 49.3-23 62.8 -20.7 16.9-40.4 38.8-24.5 66.5 3.7 6.5 10.9 14 18.9 14.4 5 0.3 6.2-5.4 7.6-9 2.1-5.4 6.1-8.9 11.4-11 12.5-4.8 26.3-4.9 38.5-10.5 14.7-6.7 13.3-24.3 26.6-32 -6.4 6.6-9.7 14.3-14.6 22.7 -5.3 9.2-16.8 12.2-26.5 14.4 -9.4 2.1-21.7 2.9-29.5 8.9C183 269.6 182 282.6 174.9 282.6z" class="d"/><path d="M250.2 220.7c6.1-6.4 13.4-9.4 14.7 2.1C260.5 220.2 255.2 219.4 250.2 220.7z" fill="#C5C9C9"/><path d="M264.9 222.8c-4.2-2.2-10-3.6-14.7-2.1C255 218.6 260.8 219.6 264.9 222.8z" class="d"/><path d="M178.2 221c-5.4 5.2-19.3 13.2-24.3 2.9 -5.8-11.8 7.3-25.4 15.6-32.1 5.7-4.6 17.1-11.4 23.6-4.2 5.5 6 2.1 17-2.5 22.5" class="n"/><path d="M178.2 221c-5.4 5.2-19.3 13.2-24.3 2.9 -5.8-11.8 7.3-25.4 15.6-32.1 5.7-4.6 17.1-11.4 23.6-4.2 5.5 6 2.1 17-2.5 22.5" class="n"/><path d="M180.7 189.9c-9.1 2.2-19.4 8.2-24.4 16.3 -5.6 9.2-1.3 20.2 10.2 19.3 8.8-0.7 19.2-8.2 24.1-15.4C197.5 201.8 193.2 186.9 180.7 189.9 173.1 191.7 192.6 187.1 180.7 189.9z" class="c"/><path d="M162.3 229.1c-25 0 2.3-34.5 10.1-39.9 17.2-12 33.4 5.8 18.2 20.9 4.6-6.3 9.2-22.4-2.1-24.9 -10.6-2.4-21 7.6-27.2 14.9 -15.7 18.2-3.7 38.8 16.9 20.9C174.5 225.6 168.3 229.1 162.3 229.1z" class="d"/><path d="M184.1 193.5c-20.6-18.2-28.9-44-34.1-70.1 -3.6-17.9-9.3 6.1-10.8 12.7 -4.9 21.2-5 45.8 7 64.7 3.6 5.7 13.2 19.1 21 16.8C178 214.5 183.5 204.3 184.1 193.5 150 163.4 182.8 216.7 184.1 193.5z" fill="#D8C4A9"/><path d="M174.2 198.4c1.4-8-5.3-17.5-8.5-24.3 -5.4-11.4-9.2-23.1-12.1-35.4 -0.4-1.8-4.2-23.2-6.4-23 -2.8 0.3-5.2 10.3-5.8 12.2 -5.8 18.7-7.7 40.1-1.7 59 2.2 7.1 7.2 20.3 14.9 23.1C163.5 213.2 172.7 207.6 174.2 198.4 175.8 189.6 171.7 213.5 174.2 198.4z" fill="#E8D5BC"/><path d="M167.3 195.9c2.1-12.3-9.9-28.7-13.5-40 -1-3.2-6-40.2-6.6-40.2 -3.5 0.3-6.4 13.9-7 16.3 -3.2 11.7-4.6 24.1-3.9 36.2 0.6 9.6 3.1 29.7 12 35.6C156.1 208.9 165.7 205 167.3 195.9 168.8 187.1 164.7 211 167.3 195.9z" fill="#EFE2CE"/><path d="M164.2 218.6c-22.4-13.3-29.7-39.1-28-63.9 0.8-11.7 3-24 7.9-34.7 5.2-11.4 6.5 4.8 7.6 9.8 4.6 22.3 13 44.3 29.5 60.5C191.3 200.3 175.5 217 164.2 218.6zM147.3 116c-4.7 0.4-8 20.9-8.7 24.4 -1.7 8.7-2.5 17.6-2.1 26.5 0.4 9.5 2.3 19.1 6.5 27.7 2.6 5.5 14.3 24.6 21.8 23.3 5.4-0.9 10.4-4.1 13.7-8.4 3.5-4.6 5-10.2 5.3-15.9 -5.3-4.7-10-10.1-14-16 -7-10.2-11.9-21.8-15.4-33.7C153.6 141.2 149.1 116 147.3 116 146.1 116.1 148.2 116 147.3 116z" fill="#B79F83"/><path d="M181.9 189.9c15.1 12.6-11.8 42-25.1 26.6C170.2 220.9 186.5 202.8 181.9 189.9z" class="c"/><path d="M160.3 217.6c-1.3 0-2.5-0.4-3.5-1.1 13.6 3.8 28.8-13.6 25.1-26.6C187.6 202.1 172.1 217.6 160.3 217.6z" class="d"/><path d="M260 193.9c-23.1 0-26.5-47.2-4.5-50.1C278.2 140.9 285.2 193.9 260 193.9z" class="n"/><path d="M260.9 193.9c-21 0-23.8-44.8-4-47.5C277.3 143.5 283.5 193.9 260.9 193.9z"/><path d="M260.9 193.9c-19.9 0-22.5-37.2-6.5-44.6C273.9 140.2 285.7 193.9 260.9 193.9z" class="o"/><path d="M261.8 193.9c-18.6 0-21-35.2-6.1-42.1C273.9 143.2 285 193.9 261.8 193.9z" class="g"/><path d="M274.8 174c0 21.7-25.1 21.7-25.1 0C249.7 152.2 274.8 152.2 274.8 174z" class="p"/><path d="M262.3 189.7c-14.5 0-14.5-31.4 0-31.4C276.8 158.3 276.8 189.7 262.3 189.7z"/><path d="M272.4 161.9c-1.7 7.3-12.9 6.2-12.9-1.5C259.5 148.5 270.1 156.2 272.4 161.9 271.7 164.8 271.2 159 272.4 161.9z" class="q"/><path d="M259 167.6c0 3.4-5.3 3.4-5.3 0C253.7 164.2 259 164.2 259 167.6z" class="g"/><path d="M260.9 194.2c-20.8 0-23.7-43.4-4-46C277.3 145.4 283.4 194.2 260.9 194.2zM258 148.7c-19.3 0-16.8 39.7-0.3 44.4C280.2 199.6 279.7 148.7 258 148.7z" class="d"/><path d="M248.5 194.1c8.1 2 15.9 2.1 24 0C265.7 188.5 255.5 189.8 248.5 194.1z" class="c"/><path d="M248.5 194.1c5.9-5 18.6-6.2 24 0C265.6 189.2 255.6 189.9 248.5 194.1z" class="d"/><path d="M214.8 128.2c0 0-11.2-0.3-15.5 7C199.3 135.3 202.8 119.1 214.8 128.2z"/><path d="M253.5 129.5c0 0 11.4-0.2 17.5 10C271 139.5 268.6 120 253.5 129.5z"/><path d="M311.7 141.7c-2.3-7.4-9.4-13.1-12.9-19.9 -4.2-8.1-2.8-18.9-0.9-27.5 1.4-6.5 8.2-33.4 18.5-24 9.5 8.6 19 21.8 22.4 34.2 1.9 7-1.2 14.4-3.4 21 -3.4 9.8-4.2 19.1-11.3 27.4" class="b"/><path d="M326.5 137c-2.1 4-5.2 7.5-7.2 11.6 -8.2-7.5-15.3-16.8-20.5-26.8 -7.1-13.6-0.6-35.3 6.8-47.7 8.2-13.8 17.3 2.6 23.2 11.1C338.9 99.9 334.6 121.9 326.5 137 325.4 139.1 330.7 129.3 326.5 137z" class="j"/><path d="M326.5 137c-2.1 4-5.2 7.5-7.2 11.6 -8.2-7.5-15.2-16.8-20.5-26.8 -6.5-12.4 0.3-30.2 6.4-41.5 7.5-13.8 15.1-5.6 23.1 4.6C339.4 99.2 334.5 122 326.5 137 325.4 139.1 330.7 129.3 326.5 137z" class="c"/><path d="M324.1 152.9c5.5-7.5 7.2-14.6 9.7-23.4 1.9-6.8 6-14.5 5.4-21.7 -1.2-13.3-13.8-29.5-23.6-37.9 -9.7-8.4-17 21.8-18 27.4 -1.4 8-2.3 17.4 1.7 24.8 3.6 6.7 10.3 12.1 12.4 19.5 -2.9-7.1-9.3-12.5-13-19.2 -4.1-7.5-3.2-17-1.7-25.2 1.5-8.7 8.6-38.3 21-25.8 8.9 8.9 20.8 23.5 21.7 36.6 0.5 7.3-3.5 14.9-5.4 21.7C331.9 138.3 330.7 146.3 324.1 152.9z" class="d"/><path d="M316.5 129.8c2.1-9.4 7.8-17.8 9.7-27.2 1.7-8.6-13.2-17.5-14.9-25.9 3.1 8.9 18.3 18.3 14.8 28.4 -3.3 9.7-11 21.4-9.8 32C315.6 134.6 315.9 132.3 316.5 129.8 317.7 124.2 315.2 135.8 316.5 129.8z" class="d"/><path d="M326.4 102.6c-1.8 9.4-7.3 17.9-9.7 27.3 -14.1-14.1-15.1-32.6-3.9-49.4C316.1 85.8 327.8 95.8 326.4 102.6 325.6 106.8 327.3 98 326.4 102.6z" class="k"/><path d="M320.4 101.9c-1.7 8.8-5.8 18.9-3.6 28 -14.1-14.1-15.1-32.6-3.9-49.4C316.3 86.1 321.8 94.9 320.4 101.9 319.6 106.1 321.3 97.3 320.4 101.9z" class="l"/><path d="M316.5 102.1c-1.5 7.7-5.2 15.8-3.3 23.9 -10-14.2-10.1-26.9-2-42.7C314.5 88.7 317.8 95.7 316.5 102.1 315.7 106.3 317.4 97.5 316.5 102.1z" class="m"/><path d="M316.9 130.4c-14.8-14.7-15.4-32.9-4.1-50.5 3.4 5.3 15.2 15.8 13.9 22.7C324.9 112.2 319.4 121 316.9 130.4zM312.8 81c-10.5 16.7-10 34.2 3.8 48.2 2.2-8.4 6.1-16.2 8.9-24.4C328.3 96.6 316.8 87.4 312.8 81 308.6 87.8 314.4 83.5 312.8 81z" class="d"/><path d="M191.7 244.5c2.1-5.4 14-15.3 6.6-21.3C189.3 215.8 190.3 241.4 191.7 244.5 194 238.6 186.8 233.4 191.7 244.5z" fill="#4F4F4E"/><path d="M198.3 223.1c3.2 9.3-10.5 12.4-6.6 21.4C193.8 239.2 205.8 229 198.3 223.1 199.5 226.7 200.4 224.8 198.3 223.1z" class="a"/><path d="M191.7 245.3c-1.6-3.3-4.4-28.4 6.2-22.8C207 227.4 193.6 240.3 191.7 245.3zM196.3 222.7c-8.8 0-6.4 16.7-4.6 21C192.7 241.4 207.4 222.7 196.3 222.7z" class="d"/><path d="M185.1 242.5c-2.7-8.4-1.4-19.6 7-24.5 9.2-5.4 15.4 6.4 11.3 13.9 3.1-7.2-2.2-18.6-11-13.4 -9.8 5.8-9.2 19.5-4.7 28.4C186.7 245.6 185.8 244.1 185.1 242.5 182 233 185.6 244.1 185.1 242.5z" class="d"/><path d="M261.5 260.4c0.8-2.7 2.9-7 3.3-10.7C265 253.5 263.9 257.5 261.5 260.4z" class="d"/><path d="M186 227.6c1-2.9 10.5-15.2 14.1-8.5C197.8 214.9 186.3 227 186 227.6 187.7 222.7 185.9 228.2 186 227.6z" class="f"/><path d="M165.7 217.9c2.7-0.8 5.2-2.1 7.5-3.7 3-2.1 6.1-9 9-10.1 0.4-0.2-3.3 9.2-4.1 10.2 -2.1 2.4-5 3.9-8.1 4.5C172.8 218.2 160.6 219.4 165.7 217.9 169.8 216.7 163.6 218.5 165.7 217.9z" class="f"/><path d="M524.7 132.5c4.8 3.9 9 8.6 12.3 13.9 1.8 3 4.8 16.4 6.3 17.5 -3.2-2.3-5.8-12.3-7.9-15.7 -1.9-3.2-9-15.9-12.2-16.6C523.7 131.9 524.2 132.2 524.7 132.5 530.3 137 522.3 130.6 524.7 132.5z" class="f"/><path d="M143.3 128.6c-3.7 12.9-5.7 26.4-4.8 39.8 0.2 3.5 10.1 41.6 16 31.1 2.5-4.5-9.2-25.9-10.2-31.9 -1.1-6.4-1.5-13-1.3-19.5 0.1-5.5 4.4-18.5 2-23.2C143.8 125.7 143.2 126.9 143.3 128.6 138.8 144.2 145.2 122.1 143.3 128.6z" fill="#F9F3EA"/></svg>