<svg version="1.1" xmlns="http://www.w3.org/2000/svg" x="0" y="0" width="768" height="430" viewBox="0 0 768 430" enable-background="new 0 0 768 430" xml:space="preserve"><path fill="#DDE4D0" d="M363.5 172.6v35.8c0 13.3 0.3 23.8 1.3 35.2l-0.3 0.1c-4.1-8.8-9-17.8-15.4-27.8l-27.4-43.3h-12.1v85.6h10.4v-36.6c0-14.2-0.3-24.5-0.9-35.3l0.4-0.1c4.3 9.3 10 19.1 16 28.6l27.2 43.4h11.2v-85.6H363.5zM427.9 171.2c-22.9 0-39.7 17.8-39.7 45 0 25.9 15.9 43.4 38.5 43.4 21.8 0 39.8-15.6 39.8-45.1C466.4 189.1 451.3 171.2 427.9 171.2zM427.3 250.5c-17.4 0-27.3-16.4-27.3-34.7 0-18.8 9.1-35.7 27.4-35.7 18.4 0 27.3 17.8 27.3 34.8C454.7 234.4 444.8 250.5 427.3 250.5z"/><rect x="225" y="136" fill-rule="evenodd" clip-rule="evenodd" fill="none" stroke="#DDE4D0" stroke-width="9" stroke-miterlimit="10" width="318" height="157"/></svg>