<svg version="1.1" id="Layer_1" xmlns="http://www.w3.org/2000/svg" xmlns:xlink="http://www.w3.org/1999/xlink" viewBox="0 0 768 430" xml:space="preserve">
<path fill="#DDE4D0" d="M363.5,140.6v35.8c0,13.3,0.3,23.8,1.3,35.2l-0.3,0.101c-4.1-8.8-9-17.8-15.4-27.8l-27.4-43.3h-12.1v85.6
	H320V189.6c0-14.2-0.3-24.5-0.9-35.3l0.4-0.1c4.3,9.3,10,19.1,16,28.6l27.2,43.4h11.2v-85.6H363.5z M427.9,139.2
	c-22.9,0-39.7,17.8-39.7,45c0,25.899,15.899,43.399,38.5,43.399c21.8,0,39.8-15.6,39.8-45.1C466.4,157.1,451.3,139.2,427.9,139.2z
	 M427.3,218.5c-17.399,0-27.3-16.4-27.3-34.7c0-18.8,9.1-35.7,27.4-35.7c18.399,0,27.3,17.8,27.3,34.8
	C454.7,202.4,444.8,218.5,427.3,218.5z"/>
<rect x="225" y="104" fill="none" stroke="#DDE4D0" stroke-width="9" stroke-miterlimit="10" width="318" height="157"/>
</svg>
