<svg version="1.1" id="Layer_1" xmlns="http://www.w3.org/2000/svg" xmlns:xlink="http://www.w3.org/1999/xlink" viewBox="0 0 768 430" enable-background="new 0 0 768 430" xml:space="preserve">
<g id="wolk">
	<g>
		<path fill="#D1D1D1" d="M428.356,90.464c16.127-12.442,33.617-14.946,51.894-6.056c24.033,11.69,33.139,40.948,20.684,64.346
			c-1.942,3.652-1.942,3.652,1.955,4.782c30.23,8.765,50.938,36.418,50.956,68.046c0.015,31.783-20.732,59.729-50.889,68.538
			c-6.36,1.854-12.856,2.72-19.482,2.717c-67.891-0.008-135.778,0.122-203.667-0.05c-40.298-0.104-75.004-30.412-80.978-70.182
			c-5.34-35.568,12.382-70.088,44.477-86.546c1.547-0.794,2.56-1.386,2.447-3.572c-1.938-37.115,13.333-65.882,43.966-85.981
			c44.152-28.966,110.264-15.398,136.9,40.68C427.157,88.329,427.396,89.645,428.356,90.464z"/>
	</g>
</g>
<path fill="#EFE40C" d="M332.565,185.909l70.301,8.717l11.237,43.809l-22.603-3.372l26.939,76.448l-20.504-2.819l20.167,96.463
	l-59.597-94.665l25.18,4.288l-47.656-78.449l31.601,3.418L332.565,185.909z"/>
</svg>
