<svg xmlns="http://www.w3.org/2000/svg" viewBox="0 0 768 430"><style>.a{fill:#FFD39F;}.b{fill:#254F47;}.c{fill:#B79F7D;}.d{fill:#517C72;}.e{fill:#D8D8D8;}.f{fill:#89B2D3;}.g{fill:#AFAFAF;}.h{fill:#BA7F38;}</style><polygon points="398.6 137.8 385.5 137.8 387.6 113.5 396.5 113.5 " class="a"/><rect x="379.6" y="125.5" width="24.3" height="7.5" class="a"/><path d="M384.2 383c-0.2 5.7 2.1 12-8.1 12.8 -10.4 0.8-26 3-25.8-0.8 0.3-6.9 15.6-9.1 24.5-11.1 0.4 0 0.2-4.5 0.9-4.7 2.4-0.8 8.7 0 8.7 0S384.3 380.5 384.2 383z" class="b"/><polygon points="386.2 383.9 374 383.9 371.9 248.3 389.2 248.3 " class="c"/><path d="M398.8 383c0.2 5.7-2.1 12 8.1 12.8 10.4 0.8 26 3 25.8-0.8 -0.3-6.9-15.6-9.1-24.5-11.1 -0.4 0-0.2-4.5-0.9-4.7 -2.4-0.8-8.7 0-8.7 0S398.7 380.5 398.8 383z" class="b"/><polygon points="396.4 384 409.1 384 411.2 248.4 393.8 248.4 " class="c"/><rect x="371.9" y="231.3" width="39.3" height="17.7" class="c"/><polygon points="412.1 239.3 371.2 239.3 371.6 130.2 382.6 130.2 391.8 136.3 400.7 130.2 411.7 130.2 " fill="#FFFFDC"/><polygon points="412.1 239.3 371.2 239.3 375.9 126.2 386.2 124.8 392.4 134.4 397.9 124.6 408 125.6 " fill="#FFF"/><polygon points="355.6 251 348.1 248 352.1 223.8 359.7 226.8 " class="a"/><path d="M342 267l6.3-20.6 7.6 3 -2.2 26.7c0 0-0.7 0.4-1.4-1.8 -0.7-2.2-0.6-11.1-0.6-11.1s-4.4 12.9-5.9 14c-0.4 0.3-0.9 0.4-1.4 0 0.9-2.5 2.3-7.6 2.3-7.6s-2.9 5.4-3.6 5.7" class="a"/><polygon points="346.6 269.8 348.8 263.6 348.2 263.7 343.8 274.7 "/><polyline points="342.2 273.1 346.7 263.5 346.2 263.3 342.2 273.1 "/><polyline points="343.4 266.8 345.6 260.6 345.2 260.2 343.4 266.8 "/><path d="M359.7 249.8l-15.2-2.1c0 0 14.5-92.7 16.7-103.6 3.2-15.9 14.8-18.5 14.8-18.5l-4.4 41.4L359.7 249.8z" class="d"/><polygon points="428.2 251 435.7 248 431.7 223.8 424.2 226.8 " class="a"/><path d="M431.6 274.4c0.7-2.2 0.6-11.1 0.6-11.1s4.5 12.9 5.9 14c0.4 0.3 0.9 0.4 1.4 0 -0.9-2.5-2.3-7.6-2.3-7.6s2.9 5.4 3.6 5.7c0.8 0.4 1.5-0.7 1.5-0.7l-0.7-1.7c0 0 0.3 0.8 0.9 0.7 0.4 0 0.7-0.1 0.8-0.5 0.1-0.3-2.8-6.5-2.8-6.5s1.1 0.9 1.4 0.2l-6.3-20.6 -7.6 3 2.2 26.7C430.2 276.2 430.9 276.6 431.6 274.4z" class="a"/><g opacity="0.4"><polygon points="437.2 269.8 435 263.6 435.6 263.7 440.1 274.7 "/><polygon points="441.6 273.1 437.1 263.5 437.7 263.3 "/><polygon points="440.4 266.8 438.2 260.6 438.7 260.2 "/></g><path d="M424.2 249.8l15.2-2.1c0 0-14.5-92.7-16.7-103.6 -3.2-15.9-14.8-18.5-14.8-18.5l4.4 41.4L424.2 249.8z" class="d"/><rect x="390.9" y="134.4" width="3" height="18.2" class="b"/><circle cx="392.3" cy="136.2" r="0.8" class="e"/><circle cx="392.3" cy="142.9" r="0.8" class="e"/><circle cx="392.3" cy="149.5" r="0.8" class="e"/><polygon points="392.4 134.4 386.2 124.8 380.7 125.4 386.2 139.8 " class="f"/><polygon points="392.4 134.4 397.9 124.6 403.4 125.2 397.6 139.9 " class="f"/><polygon points="392.4 134.4 386.2 124.8 380.7 125.4 386.2 139.8 " class="b"/><polygon points="392.4 134.4 397.9 124.6 403.4 125.2 397.6 139.9 " class="b"/><polygon points="412.1 239.3 369.9 239.3 371.1 162.8 376 125.6 381.4 124.8 391.8 172.9 402.7 124.8 408 125.6 411.8 160.9 " class="d"/><path d="M421.8 94.6c0 9.4-0.3 21.8-6.3 28.4 -4.7 5.1-13.8 6.8-23.7 6.6 -9.8-0.1-18.2-1.6-22.8-6 -6.8-6.5-7.2-19.1-7.2-29.1 0-21.9 6.8-33.6 29.7-33.6C412.9 61 421.9 77.9 421.8 94.6z" class="a"/><path d="M367.6 97.8c0 4-2.6 7.7-5.8 7.7 -3.2 0-7-2.8-7-7.7 0-5.9 4.2-8 8.6-6.6C366.4 92.1 367.6 93.8 367.6 97.8z" class="a"/><path d="M415.5 97.5c0 4 2.6 7.7 5.9 7.7 3.2 0 7-2.8 7-7.7 0-5.9-4.2-8-8.6-6.6C416.7 91.8 415.5 93.4 415.5 97.5z" class="a"/><path d="M421.8 94.6c0 0-3.5-9-3.6-16.6 -5.3 0-14.5-8.1-16.2-11.6 -2.3 2.7-10.6 3.9-10.6 3.9s2.1-3.5 1.7-4.9c-2.8 2.6-9 5.3-11.1 5.8 0.2-2.7 0.4-5.1 0.4-5.1s-13.2 7.1-16.4 8.1c-0.6 9.2-4.3 20.4-4.3 20.4s-3.7-19.2 2.1-28.6c5.8-9.3 23.4-12.5 28.1-12.5 4.6 0 9 0.8 11.1 3.9 2.7-1.7 4.4-0.5 7.5 0.5 3.1 1 8 5 10.7 9.4C425 73.5 421.8 94.6 421.8 94.6z" class="g"/><path d="M383.4 92.7c0 0.3-0.1 0.6-0.2 0.8 -0.1 0.3-0.2 0.5-0.3 0.8 -0.1 0.3-0.3 0.5-0.5 0.7 -0.2 0.2-0.4 0.4-0.7 0.5 -0.3 0.1-0.5 0.2-0.8 0.2s-0.6-0.1-0.8-0.2c-0.2-0.1-0.5-0.3-0.7-0.5 -0.2-0.2-0.4-0.4-0.5-0.7 -0.1-0.2-0.2-0.5-0.3-0.8 -0.1-0.3-0.1-0.5-0.1-0.8s0.1-0.6 0.1-0.8c0.1-0.3 0.2-0.5 0.3-0.8 0.1-0.3 0.2-0.5 0.4-0.7 0.2-0.2 0.5-0.3 0.7-0.5 0.3-0.1 0.5-0.1 0.8-0.1 0.3 0 0.6 0 0.8 0.2 0.2 0.1 0.5 0.3 0.7 0.5 0.2 0.2 0.4 0.4 0.5 0.6 0.1 0.2 0.2 0.5 0.3 0.8C383.3 92.1 383.4 92.4 383.4 92.7z"/><path d="M404.8 92.7c0 0.3-0.1 0.6-0.2 0.8 -0.1 0.3-0.1 0.6-0.2 0.8 -0.1 0.3-0.3 0.5-0.5 0.7 -0.2 0.2-0.5 0.3-0.7 0.4 -0.3 0.1-0.5 0.2-0.8 0.2 -0.3 0-0.5 0-0.8-0.2 -0.2-0.1-0.5-0.3-0.7-0.5 -0.2-0.2-0.4-0.4-0.5-0.6 -0.1-0.2-0.2-0.5-0.3-0.8 -0.1-0.3-0.1-0.5-0.1-0.8 0-0.3 0-0.6 0.1-0.8 0.1-0.3 0.2-0.5 0.3-0.8 0.1-0.3 0.2-0.5 0.4-0.7 0.2-0.2 0.4-0.4 0.7-0.5 0.3-0.1 0.5-0.2 0.8-0.2 0.3 0 0.6 0.1 0.8 0.2 0.2 0.1 0.5 0.3 0.7 0.5 0.2 0.2 0.3 0.5 0.4 0.7 0.1 0.2 0.2 0.5 0.3 0.8C404.7 92.1 404.8 92.4 404.8 92.7z"/><path d="M388.2 99.1c0 0 1-3.6 3.4-3.2 2.5 0.4 3 3.2 3 3.2" style="fill:none;stroke-linejoin:round;stroke:#000"/><path d="M386.2 105c0 0-0.2 0.2-0.5 0.6 -0.1 0.2-0.3 0.4-0.5 0.7 -0.2 0.3-0.4 0.6-0.6 0.9 -0.1 0.2-0.2 0.3-0.3 0.5 -0.1 0.2-0.2 0.4-0.3 0.6 -0.2 0.4-0.4 0.8-0.6 1.2 -0.2 0.4-0.4 0.9-0.5 1.4 -0.2 0.5-0.3 1-0.4 1.4 -0.1 0.5-0.3 1-0.4 1.5 -0.1 0.5-0.2 1-0.3 1.5 -0.1 0.5-0.2 0.9-0.2 1.4 -0.1 0.4-0.1 0.9-0.1 1.2 -0.1 0.8-0.1 1.4-0.2 1.9 0 0.5-0.1 0.7-0.1 0.7s-0.1-0.3-0.2-0.7c-0.1-0.5-0.2-1.1-0.3-1.9 0-0.4-0.1-0.8 0-1.3 0-0.5 0-0.9 0.1-1.4 0-0.5 0.1-1 0.2-1.5 0.1-0.5 0.2-1 0.3-1.6 0.2-0.5 0.3-1 0.5-1.5 0.1-0.2 0.2-0.5 0.3-0.7 0.1-0.2 0.2-0.5 0.3-0.7 0.2-0.4 0.5-0.9 0.8-1.2 0.3-0.4 0.5-0.7 0.8-1 0.3-0.3 0.5-0.6 0.8-0.8 0.3-0.2 0.5-0.4 0.7-0.5C386 105.2 386.2 105 386.2 105z" class="h"/><path d="M397.2 105c0 0 0.2 0.1 0.6 0.4 0.2 0.1 0.4 0.3 0.7 0.5 0.1 0.1 0.3 0.2 0.4 0.3 0.1 0.1 0.3 0.3 0.4 0.4 0.3 0.3 0.6 0.6 0.8 1 0.3 0.4 0.5 0.8 0.8 1.3 0.2 0.5 0.5 0.9 0.6 1.4 0.2 0.5 0.3 1 0.5 1.6 0.1 0.5 0.2 1.1 0.3 1.6 0.1 0.5 0.1 1 0.2 1.6 0.1 1 0 2-0.1 2.8 -0.1 0.8-0.2 1.5-0.3 1.9 -0.1 0.5-0.2 0.7-0.2 0.7s0-0.3 0-0.7c0-0.5-0.1-1.1-0.1-1.9 0-0.4-0.1-0.8-0.1-1.3 0-0.4-0.1-0.9-0.2-1.4 -0.1-0.5-0.1-1-0.2-1.5s-0.2-1-0.3-1.5c-0.1-0.5-0.3-1-0.4-1.5 -0.2-0.5-0.3-0.9-0.5-1.4 -0.1-0.2-0.2-0.4-0.3-0.6 -0.1-0.2-0.2-0.4-0.3-0.6 -0.1-0.2-0.2-0.4-0.3-0.6 -0.1-0.2-0.2-0.4-0.3-0.5 -0.2-0.3-0.4-0.6-0.6-0.9 -0.2-0.2-0.4-0.4-0.5-0.6C397.4 105.2 397.2 105 397.2 105z" class="h"/><path d="M388.5 115.4c0 0 1 0.9 3.4 0.9 2.4 0 3.5-1 3.5-1" style="fill:none;stroke-linejoin:round;stroke-width:2;stroke:#000"/><polygon points="383.9 79 375.1 78.6 373.7 82.3 " class="g"/><polygon points="399.5 79 408.3 78.6 409.6 82.3 " class="g"/></svg>