<svg xmlns="http://www.w3.org/2000/svg" viewBox="0 0 768 430"><style>.a{fill:#FFF;}.b{fill:#765C48;opacity:0.7;}.c{fill:#DBAA49;}.d{fill:#B07E2B;}.e{fill:#422E18;}.f{fill:#322214;}.g{fill:#554E20;}.h{opacity:0.3;}.i{fill:#6A5422;}.j{fill:#FFD17F;}.k{fill:#E39F4D;}.l{fill:none;}.m{fill:#CC85B9;}.n{fill:#D469A8;}.o{fill:#FFD17F;opacity:0.6;}.p{fill:#F6F6D3;opacity:0.7;}.q{fill:#F8BB1F;}.r{fill:#D79528;}.s{opacity:0.5;}</style><path d="M522.8 188.1c-0.1 0-0.1-0.1-0.2-0.1 -5.1 0-10.2 0-15.2 0 -28.2 0-56.3 0-84.5 0 -63.6 0-127.3 0-190.9 0 -4 0-7.9 0-11.9 0 -5.3 12.9-10.7 25.7-16 38.6 47.4 0 94.9 0 142.3 0 60.3 0 120.7 0 181 0 2.8 0 5.6 0 8.4 0C531.6 213.7 527.2 200.9 522.8 188.1z" class="a"/><path d="M550.6 258.5c-0.1 0-0.1-0.1-0.2-0.1 -5.9 0-11.7 0-17.6 0 -32.6 0-65.2 0-97.7 0 -73.6 0-147.2 0-220.8 0 -4.6 0-9.1 0-13.7 0 -6.2 12.9-12.3 25.7-18.5 38.6 54.9 0 109.7 0 164.6 0 69.8 0 139.6 0 209.4 0 3.2 0 6.5 0 9.7 0C560.7 284.2 555.6 271.4 550.6 258.5z" class="a"/><path d="M560.3 335.8c-0.1 0-0.1-0.1-0.2-0.1 -6.3 0-12.6 0-18.9 0 -35 0-69.9 0-104.9 0 -79 0-157.9 0-236.9 0 -4.9 0-9.8 0-14.7 0 -6.6 12.9-13.2 25.7-19.9 38.6 58.9 0 117.8 0 176.6 0 74.9 0 149.8 0 224.7 0 3.5 0 7 0 10.4 0C571.2 361.4 565.7 348.6 560.3 335.8z" class="a"/><g opacity="0.7"><path d="M221.7 190.9c0 2.1-8.8 2.1-8.8 0C212.9 188.8 221.7 188.8 221.7 190.9z" class="b"/><path d="M207.8 185.3c0 2.1-8.8 2.1-8.8 0C199 183.1 207.8 183.1 207.8 185.3z" class="b"/></g><path d="M296 360c-0.5 10.1 2.4 19.6 3.1 29.6 -7.8 0-15.6 0-23.4 0 0.9-4.4 1.5-8.9 1.5-13.5 -0.1-3.8-4-17.3-1-20.2C279.1 353.2 292.5 358.9 296 360z" class="c"/><path d="M299.4 389.9c-8 0-16 0-24 0 1.7-7.6 1.3-14.6 0.6-22.3 -0.2-1.6-1.7-11.5 0.6-12.1 3.3-0.9 7.9 1 11.1 1.8 2.7 0.7 5.5 1.5 8.1 2.4 1.1 0.4 0.4 4.8 0.4 5.8C296.3 373.7 298.8 381.6 299.4 389.9zM276 389.4c7.6 0 15.2 0 22.8 0 -0.5-7.4-2.8-14.6-3.1-22.1 -0.1-1.2 0.6-6.9-0.5-7.3 -3-0.9-6.1-1.8-9.1-2.6 -2.7-0.7-5.6-1.5-8.4-1.5 -2.9 0-1.5 7.4-1.4 9.3C276.9 373.6 277.8 381 276 389.4z" class="d"/><path d="M246.7 359.4c-3.3 7.4-2 15.2-3.9 22.8 -1.9 7.8-3.4 12.3-12.7 12.3 -1.4 0-11.1-1.3-10.7-3.4 0.8-3.9 1.7-7.9 2.5-11.8 1.7-8.1 2.4-15.9 2-24.2C231.5 356.6 239.1 358 246.7 359.4z" class="c"/><path d="M230.2 394.8c-1.6 0-11.6-1.2-11.1-3.7 0.8-3.9 1.7-7.9 2.5-11.8 1.7-8.2 2.4-16.1 2-24.4 7.8 1.5 15.6 2.9 23.4 4.4 -3.3 7-2.4 14.3-3.7 21.7C241.9 389.3 240 394.8 230.2 394.8zM219.6 391.2c4.4 2.9 10.1 3.8 15.2 2.5 5.9-1.4 5.6-4.4 7.1-9.3 2.5-8.1 0.9-16.8 4.4-24.8 -7.4-1.4-14.8-2.8-22.2-4.2C224.6 367.8 222.1 379.2 219.6 391.2z" class="d"/><path d="M262.2 361.1l0.5 0.6C262.5 361.4 262.3 361.2 262.2 361.1z" class="e"/><path d="M262.7 361.9c-0.3 0-1-0.8-0.6-1C262.5 360.6 263.3 361.9 262.7 361.9z" class="f"/><path d="M263.6 354c0 0-0.2 0.1-0.7 0.1C263.2 354 263.6 354 263.6 354z" class="e"/><path d="M262.9 354.4c-0.9 0 0.9-1.3 0.9-0.4C263.8 354.4 263 354.4 262.9 354.4z" class="f"/><path d="M262.2 355.6c0.1-2.8 6.4 0.2 8.2 0.4 6.3 0.8 12.6 1 18.9 0.9 6-0.2 12.2-0.9 17.6-3.7 3.5-1.8 4.8-0.6 3.6 4.1 -2.1 7.9-21.3 7.1-27.5 7 -5.3-0.1-10.7-0.3-15.9-1.3C262 362.1 261.9 360.8 262.2 355.6 262.2 354.7 262.1 357.4 262.2 355.6z" class="e"/><path d="M286 364.6c-2.8 0-23.8 0.7-24-3.5 -0.1-1.5-1-8.9 2.2-6.8 4.2 2.7 11.9 2.2 16.6 2.4 7.4 0.3 15.1 0.4 22.2-2 1.2-0.4 5.7-3.5 6.9-2.9 5.3 3-1.9 8.8-4.6 9.9C299.1 364.2 292.6 364.6 286 364.6zM262.9 361.4c3 2.2 8.6 2 12.1 2.3 6.3 0.5 12.8 0.6 19.1 0.1 4.7-0.4 9.1-1.7 13.3-3.7 3.2-1.5 4.1-9.3 1.2-7.5 -8.9 5.4-20.3 5-30.3 4.4 -4.3-0.2-10.4 0-14.3-2.3C261.5 353.3 262.3 360.1 262.9 361.4z" class="f"/><path d="M216.3 338.8c-1-2.8 0.4-8.1 0.6-11 0.3-5 0.5-10 2.2-14.7 1.9 6.6 3.2-1.9 4.8-3.8 0 0 16.7 7.1 18.7 7.6 13 3.7 26.7 4 40 1.8 8.2-1.3 16.2-3.6 23.9-6.7 0.4-0.2 3.1-1.7 3.5-1.6 2.3 1.1 1.1 8.8 1.1 10.3 0 4.9 0.1 9.8-0.1 14.7 -0.2 2.8-2.8 11-1.2 13.3 -1 7.8-14.1 7.9-20.4 8.1 -3.5 0.1-26 1.1-25.6-4 0.3-4.5-0.1-9-0.5-13.4 -0.3-3.1-5.2-5.5-7.2-8.3 1.1 1.5 7 5.9 7 6.8 0.3 3.5 0.6 7 0.7 10.4 0.2 5.2 0.2 5.7-5 6.4 -5.1 0.7-10.2 0.8-15.4 0.4 -7.9-0.6-16.3-1.3-23.8-3.9C213.4 349.1 217.5 343.9 216.3 338.8 216.3 338.8 216.5 339.6 216.3 338.8z" class="e"/><path d="M285.8 357.2c-5.7 0-11.4-0.2-17-1.1 -3.5-0.6-5-1.8-8.4-1.2 -10.6 1.6-21.2 0.7-31.7-1.1 -3.7-0.6-7.9-1.2-11.2-3.1 -3.1-1.7-1.4-7.2-1.4-10.2 0-3.3-0.1-27.5 3.1-27.6 0.9 0 0.6 2.9 2 2.6 0.3-2.2 1.1-4.8 2.7-6.4 0.4-0.4 11.4 5.3 12.7 5.8 9.5 3.5 19.6 5.1 29.7 5.1 14.6 0 30-3.1 43.2-9.5 2.3-1.1 1.8 6.6 1.8 7.1 0 7.8 0.4 15.7-0.6 23.4 -0.2 1.7 0.1 10.2-1.6 11.3C302.4 356.7 293.7 357.2 285.8 357.2zM263.8 354c1.3 1.6 5.5 1.7 7.3 1.9 5.7 0.7 11.5 0.9 17.2 0.8 6.9-0.1 15-0.8 20.8-5.1 1.1-1.8 0.5-6.9 0.8-9 0.7-4.1 0.8-8.3 0.9-12.4 0.1-5.4 1.7-13.9-0.7-18.7 -0.4-0.8-11.9 4-13.4 4.4 -9.8 3-20.1 4.6-30.4 4.6 -10.9 0-21.7-1.9-31.8-5.9 -2.6-1-9.8-6.2-11.2-3.6 -0.9 1.5-2 8.7-4.1 3 -3.2 9.3-2.3 20.1-2.6 29.8 -0.1 2.5-1.1 5.4 1.5 6.7 4.1 2 9.1 2.5 13.6 3.2 4.7 0.7 9.4 1.2 14.1 1.5 6 0.3 11.7-1.1 17.6-1.4 0.6-4.9-0.1-10.2-0.5-15.2 0-0.5-8.1-6.9-7-7.7 -0.3 0.2 7.4 6.8 7.4 6.8C263.8 343 264.6 348.7 263.8 354z" class="f"/><path d="M247 355.4c5.3 0.2 10.7-0.3 15.9-1.3 -2.5 1.3 0.7 6.5-1.3 8.5 -2 2.1-8.4 1.2-11 1.2 -11.8 0-22.8-1.1-33.5-6.2 -3.1-1.5-3.8-2.2-3.7-5.5 0.3-5.9 2.3-2.4 5.1-1.2C227.1 354.5 237.8 355.1 247 355.4 253.9 355.7 238.6 355.2 247 355.4z" class="e"/><path d="M251.3 364.1c-9.6 0-20.4 0-29.4-4 -2.1-1-7.7-2.3-8.7-4.9 -0.8-2-0.3-8.6 3-6.5 5.4 3.8 12.1 4.6 18.8 5.5 3.3 0.4 28.3 0.5 28.1-0.1 0.2 0.8-0.4 6.2-0.7 7.5C261.6 365.2 253.8 364.1 251.3 364.1zM214.9 348.7c-2.4 0-1.4 6.7 0.4 7.7 5.4 3.2 11.6 5.2 17.7 6.1 7.5 1.1 15.1 1.3 22.6 1.1 1.9 0 5.8 0.4 6.3-2 0.5-2.2-0.9-4.9 0.2-7 -9 1.6-17.9 1.3-26.9 0.1 -4.5-0.6-9.1-1.2-13.5-2.4C219.9 351.7 216.2 348.7 214.9 348.7z" class="f"/><path d="M345.3 179c0.1-0.1 0.2-0.1 0.4-0.1C345.7 178.9 345.5 178.9 345.3 179z" class="c"/><path d="M344.6 179.4c0.5-0.3 0.3-0.8 1.1-0.8 0 0.2 0 0.3 0.1 0.5C345.4 179.2 344.9 179.2 344.6 179.4z" class="d"/><path d="M253.5 119.5c23.2-21.7 74.9-41 88.7 0.7 3.3 9.9 2.9 19.5 3.4 29.8 0.2 3.8 2.4 4.1 5.8 3.9 5.3-0.4 2.7 7-0.5 8.3 -2.1 0.9-4 3.6-1.7 5.9 2 2.1 7.2 2.8 3.3 7.4 -4.3 5.1-16.6 6.1-21.7 2.3 3.6 2.7 8.7 2.4 12.8 1.7 3.4-0.6 4.6 4.7 2.7 7.5 -1 1.5-5.1 2.3-5.4 3.2 -0.8 2.6-1.8 5.2-3.1 7.6 -5.4 10.1-13.6 13.1-24.5 14.7 -12.3 1.8-25.4 1.6-37.2-2.2 -15.4-5-24-20-30.1-34.1C237.5 156.7 237.2 134.7 253.5 119.5 284.3 90.7 222.7 148.2 253.5 119.5z" class="c"/><path d="M298.9 213.6c-13 0-29.7-2.2-38.4-13 -8.4-10.4-15.3-22.6-18.8-35.5 -3.9-14.4-2.4-29.6 7.4-41.4 10.2-12.2 25.7-21.5 40.8-26 13.3-3.9 29.4-4.5 40.8 4.4 8.2 6.4 12.1 17 13.9 26.9 1.3 7.3-0.4 15.5 1.3 22.5 0.7 2.8 3.6 2 5.8 2 4.2 0 3.2 6.1 0.9 7.9 -1.9 1.4-3.8 0.7-4 3.5 -0.3 4.2 3.2 2.3 4.6 5 2.7 5.2-3.8 8.5-7.8 9.2 1.8 4.5 2.8 9.3-3.7 10.7 -1.6 0.3-3.4 7.1-4.4 8.7C329.7 212.3 313.5 213.6 298.9 213.6zM307.7 95.5c-24 0-55.9 16.6-64.9 39.9 -8.6 22.3 4.4 48.3 18.5 65.5 7.5 9.1 21.5 11.5 32.6 12.2 12 0.7 30 0.7 38.9-8.8 2.8-3 4.9-6.7 6.5-10.6 0.4-0.9 0.9-4.1 1.9-4.2 4.9-0.7 7-5.2 4.3-9.3 -0.9-1.4-5.1 0-6.9 0 -2.8 0-5.7-0.5-8-2.2 0.1-0.1 0.2-0.3 0.3-0.4 4.1 3.1 10.7 2.3 15 1.1 3.4-0.3 11.8-7.5 5.5-9.6 -2.8-0.9-4.1-2.8-2.8-5.9 1.3-2.9 6.9-1.6 5.5-6.8 -1.4-5.3-8.9 0.9-8.8-7.7C345.7 123.4 338.2 95.5 307.7 95.5z" class="d"/><path d="M216.2 338.7c-3.6-8.8-4.6-16.2-2.6-25.6 1.2-6.1 3.5-11.9 4.3-18 1.2-8.7 1.7-17.5 2.8-26.2 0.2-1.5 3-15.7 2-16.3 2.2 0.8 4.6 1.3 6.9 1.2 -1.6 6.2-3.2 12.5-4.5 18.8 -1 4.5-1.6 9.1-3.1 13.5 -1 3-3 6.2-3.2 9.5 -0.1 1.2 0.2 2.5 0.8 3.5 0.3 0.5-1.7 2.4-2 3 -1.2 2.3 0.8 7.3 1.3 9.8 0.7 3.4-1.5 7.8-1.7 11.4C216.9 328.4 216.6 333.6 216.2 338.7 215.9 337.8 216.4 336.4 216.2 338.7z" class="c"/><path d="M216 338.8c-4-9.4-4.5-17.3-2.3-27.3 1.7-7.5 3.9-14.4 4.5-22.2 0.7-9.3 2-18.6 3.2-27.9 0.4-2.8 0.7-5.6 1.1-8.4 0.1-1 5.8 0.7 7.5 0.5 -1.8 7-3.6 13.9-5 21 -1 4.8-1.8 9.5-3.5 14 -1.1 3-4 7.7-1.5 10.7 -0.4 2.7-3.5 3.5-2 7.2 0.8 2 1.7 4.6 1.5 6.8 -0.3 4-1.9 8-2.1 12.2C217.1 328.2 217.9 337.1 216 338.8z" class="d"/><path d="M301.5 251c2.6 12.5 5.3 24.9 7 37.5 0.2 1.5 0.6 12.3 2.1 12 2.3-0.4 1.4 10.5 0.4 12.3 -0.6-4-4-0.9-6.3-0.1 -6 2.4-12.3 4.2-18.7 5.4 -20.2 4-41.4 2-59.7-7.7 -3.8-2-4.5 1.3-5 5.2 -1.1 0.6-1.9-1.3-2.1-2 -0.8-2.3-2.5-7.7-2.2-10.1 0.2-1.5 1.3-2.8 2.3-3.8 0.7-0.7-0.3-1.6-0.5-2.6 -0.6-3.2 1.6-6.6 2.6-9.5 1.6-4.3 2.3-8.8 3.2-13.3 1.4-6.9 3.1-13.8 4.9-20.6 -3.4 0.2-9-0.3-8.4-4.9 0.4-2.8 3.2-5.3 4.3-7.9 4.3-10 8.2-18.5 17.2-25.5 8.3-6.5 20.1-7.5 30.4-6.8 17 1.3 30.5 11.8 37.2 27.3 1.5 3.4 5.5 2.6 7 5.3 2.1 3.9-3.9 5.8-6.3 7 -2.2 1.1-4.6 1.9-7 2.4 -3.8 0.8-3-2.8-3.5-5.9 -0.7-4.2-1.3-8.3-1.9-12.5C299.4 238.5 300.3 244.8 301.5 251z" fill="#8A8232"/><path d="M266.3 320.4c-13.2 0-26.3-2.8-38.1-8.8 -2-1-3.6-3.2-5-0.8 -0.4 0.8-1.2 4.8-1.7 5 -2.7 1.7-3.4-7.1-3.4-7.7 -2.6-4.8 1.3-6.8 0.5-10.8 -0.8-4.2 2.7-9.5 3.8-13.5 2.8-9.8 4.3-19.9 6.8-29.8 -2.3 0.1-6.5-0.2-7.8-2.4 -2-3.3 1.7-6.6 3.1-9.3 4.1-7.9 6-15.1 12.3-21.8 9.3-10 21.2-12.7 34.2-12.2 13 0.5 25.2 6.3 33.1 16.7 2.6 3.3 4.6 7 6.2 10.9 1.5 3.3 5.3 2.5 6.9 5.2 3.6 6-12.3 9.9-15.5 10.2 1.9 9.4 4 18.6 5.5 28.1 0.8 4.7 1.6 9.5 2 14.2 0.1 1.3 0.3 2.7 0.2 4.1 -0.3 4.6 1.9 0.7 2.7 3 0.4 1 0 12.3-1.3 12.4 -0.9 0-0.6-2.5-1.6-2 -1.5 0.7-3 1.3-4.5 1.9C292.8 317.8 279.5 320.4 266.3 320.4L266.3 320.4zM224.1 308.9c2.6 0 7.8 4 10.4 5 5 2 10.1 3.5 15.4 4.5 10.1 1.9 20.5 1.9 30.7 0.4 8.2-1.2 16.3-3.3 24-6.3 2.1-0.8 5.8-4 6.5-0.3 1.3-2.8-0.1-4.7 0.5-7.3 1.4-6.2-1.9-2.2-2.4-5.5 -1.1-7.1-1.3-14.5-2.5-21.7 -0.7-4.4-9-45.6-8.1-45.7 0.4-0.1 2.3 13.6 2.5 14.7 0.2 1.4 0.5 2.7 0.8 4.1 2.1-0.2 4.3-0.8 6.3-1.5 1.9-0.7 4.2-1.7 6-2.6 8.4-4.2-1.9-6.6-3.7-9.8 -3.6-6.2-6.2-12.1-11.6-17 -13-12-39.1-15.9-54.3-5.4 -5.7 4-10.6 9.6-14.1 15.6 -3 5.1-3.9 11-7.4 15.9 -1.3 1.8-2.7 4.9-0.2 6.5 1 0.4 6.4 0.6 7 1.3 1.1 1.3-2.8 11.9-3.2 13.5 -1.5 6.7-2.4 13.6-4.6 20 -1 2.8-2.9 5.8-2.9 8.8 0 3.1 1.5 2.5-0.4 4.9 -2.1 2.6-0.3 10.5 1.2 13.5C221.9 318.5 221.7 308.9 224.1 308.9z" class="g"/><path d="M240 217.7c12.7-11.7 36.3-11.9 51-3.8C274.7 210.8 255.3 210.6 240 217.7 243.8 214.2 260 208.4 240 217.7z" class="g"/><g opacity="0.2"><path d="M353.1 173.1c1.7 3.3-3.9 7.5-5.6 4C347.2 176.4 353.4 176 353.1 173.1z" class="c"/><path d="M349.3 178.6c-2.5 0-2.6-2.5-0.1-2.8 2.2-0.2 3.6-1.1 4.1-2.9C354.7 175.6 352.2 178.6 349.3 178.6zM353.2 174.3c-0.8 2.8-4.6 0.9-5.5 2.5C347.1 177.9 353.9 178.6 353.2 174.3z" class="c"/></g><path d="M294.5 121.4c-5.4 0-9.7-5.2-14.4-4.6 -5 0.7-16.8-6.3-7.3-8.4 -1.7-1.6-5.3-6.7-3-9 1.1-1 7.8 2.5 9.7 2.8 -2.3-1.9-4.5-4.9-4.3-8 0.1-1.6 1.4-4.7 3.6-3.6 2.3 1.2 2.6 5.2 4.7 6.9 0.3 0.2 3.3 1.5 3.2 2 -0.7 3-8.1-8.1-7.8-7.9 -2.8-2.8-2.6 5.1-2 6.3 0.4 0.7 4.5 4.6 4.4 5 -0.9 2.5-9.9-3.5-10.7-3.1 -2.7 1.3 1.8 7.2 3 8.3 1.3 1.1-1.7 1.3-2.4 1.6 -3.1 1.5-0.6 3.5 1.3 4.6 1.7 0.9 3.7 1.6 5.6 1.7 0.5 0 4-0.8 4.2-0.6 1.3 1.2 3 2.1 4.6 2.8C288.4 119 294.8 121.4 294.5 121.4z"/><path d="M326.4 179.9c1.4-1.5 4.3-2.4 5.8-4.9 0.2 0.1 0.3 0.2 0.5 0.2C331.5 177.6 329.1 179.7 326.4 179.9z" class="d"/><g class="h"><path d="M340 119.1c-0.8 1.2-1.6 2.5-2.4 3.7 -2-3.7-5.8-5-9.9-4.4 0.4-0.1-8.1 3-6.2-0.4C324.9 112 337.4 112.9 340 119.1z" class="c"/><path d="M337.6 123.3c-2.4-5-10.1-6.7-14.2-2.7 -5.2-5.1 4.3-7.2 8.6-6.6 3.1 0.4 7 1.7 8.3 4.8C340.6 119.8 338.1 122.5 337.6 123.3zM330.3 118c3.1 0 5.8 1.8 7.3 4.3 0.8-1.2 2.6-2.7 1.6-4.1 -2.4-3.5-7.8-4.3-11.6-3.6 -1.1 0.2-6.9 2.3-5.4 4C324 120.7 327.3 118 330.3 118z" class="c"/></g><g class="h"><path d="M338.6 189.3c0.1-1.2 12.9-2.8 7.6-7.3 -1.8-1.5-6.2-0.1-8.4-0.4 -2.2-0.2-5.3-1.8-7.4-1.6 -2 2.7-13.3 2.2-6.5-0.4 2.9-1.1 5.5-2.8 7.4-5.2 0.3-0.4 1.9-3.7 2.5-3.7 2.6 0.2-1.2 5.7-1.4 6.3 -0.5 1.5 9.2 1.2 9.7 1.2 3.2-0.3 10.5-2 10.9-6.3 0.3-3.8-7.2-1.1-4.2-7.5 -0.7 4.8 3.1 2.7 4.6 5.6 1.8 3.6-1.3 6.5-4.2 7.9 -5.1 2.3-13.5 3.2-18.1-0.2 3.6 2.7 8.7 2.4 12.8 1.7 3.4-0.6 4.6 4.7 2.7 7.5 -1.7 2.6-4.8 1.6-5.7 4.3 -1.6 4.9-4.2 9.7-7.8 13.5C335.8 199.5 337.8 195.3 338.6 189.3 338.7 188.2 338.4 190.4 338.6 189.3z" class="c"/><path d="M332.9 204.8c-0.1-0.1 5.1-12.3 5.3-15.1 0.2-3 5.2-1.7 7.1-3.3 4-3.2-0.6-4.8-3.3-4.5 -3.9 0.4-7.9-0.5-11.6-1.6 -1.3 1.4-7.5 3.1-9.1 1.5 -1.7-1.7 6-4.1 7.2-5 0.8-0.6 4.4-6.3 5.1-6.3 3.2 0-1.2 6.5-1.2 6.7 0.7 1.7 8.2 0.9 9.4 0.8 3.3-0.3 9.6-1.8 10.6-5.7 0.8-3.2-6.9-1.9-4.2-7.9 0.2 0 0.3 0.1 0.5 0.1 -0.8 4.9 5.2 3.3 5 8.5 -0.2 3.8-5.2 5.6-8.2 6.1 1.9 4.8 2.5 10-4.4 10.8C339.7 195.4 336.8 200.8 332.9 204.8zM340.1 188.3c-2.7 2.7-2.4 8.5-4.4 12.3 2.2-3.3 4-7.1 5-10.9 1.4-1.4 4.2-0.8 5.5-3.3C344.8 188 342.3 188.4 340.1 188.3zM344.3 181.1c0.9 0 1.7 0.3 2.3 1 -1.9-5.4-11.2-0.5-16-4.2 0.1-0.2 0.2-0.3 0.3-0.4 3.7 3.7 11.9 2.1 16.1 0.9 2.3-0.7 6.2-2.5 6.3-5.4 0.2-4.9-4.6-2.9-5.1-6.9 -1 4.6 5.7 2.3 4.7 6.2 -1 4.2-7.5 5.8-11.1 6.1 -1.7 0.2-8.5 1-9.8-1 -0.9-1.3 3.3-4.1 1.6-6.5 -1.4 1.4-2.1 3.6-3.6 5.1 -1.2 1.2-8.4 4.1-8.6 4.8 -0.5 2.5 8.7-1.1 9-1.2C334.9 181.7 339.6 181.1 344.3 181.1z" class="c"/></g><path d="M264.8 151.2c2.3-0.9 5.4-0.6 7.2 1.2 3 3.1-1.3 2.2-2.7 3.8 -3.3 3.7-0.9 10.7 3.8 11.7C263.5 173.3 256 154.5 264.8 151.2 269.1 149.6 261.3 152.5 264.8 151.2z" style="fill:#DBAA49;opacity:0.6"/><path d="M270.2 168.8c-10.1-0.2-13.5-18.3-2.7-18.3 7.3 0 4.2 5.6 6.2 9.7C275.4 163.8 276.4 168.8 270.2 168.8zM267.5 151c-9.9 0-6.8 17.3 2.7 17.3 4.1 0 5.7-3.6 3.6-6.8C271.3 157.5 274.6 151 267.5 151z" class="d"/><g class="h"><path d="M340.6 131.5c-4.7-8.6-17.9-10.9-25.9-5.4 -4.9 3.4-6.3 9.6-5.8 15.2C311.3 165.5 353.8 155.5 340.6 131.5 337.4 125.6 344 137.7 340.6 131.5z" class="c"/><path d="M325.9 155.8c-8.6 0-16.4-5.6-17.2-14.4 -0.6-6.2 1.3-13.1 7.2-16.2 9.5-5.1 22.9-1.3 26.3 9.3C345.9 146.2 338 155.8 325.9 155.8zM325.3 123.6c-8.8 0-15.6 4.9-16.2 14 -0.4 6.5 2.3 12.9 8.4 15.9 9.7 4.8 23.9 0.5 25-11.3C343.5 131.6 335.7 123.6 325.3 123.6z" class="c"/></g><path d="M326.8 154.4c-17 0-23.5-24.2-6.7-30.3 7.6-2.7 16.7 0.4 20.3 7.6C345.8 142.1 338.9 154.4 326.8 154.4zM326.1 124c-15.7 0-21.6 22.2-6 28.3 8 3.1 19.1-0.3 21.4-9.4C344 133.1 335.7 124 326.1 124z" class="d"/><path d="M322.1 125.8c15.2-4 26.9 17.1 11.3 24.6C316.6 158.5 304.4 130.5 322.1 125.8z" fill="#F6F0DE"/><path d="M326.1 140.2c1.5 8.5 15.2 6.1 13.8-2.4C338.3 129.2 324.6 131.6 326.1 140.2 326.7 143.8 325.4 136.5 326.1 140.2z" fill="#7F7930"/><path d="M327.5 139.9c1.2 7 12.6 5.1 11.4-2C337.6 130.9 326.2 132.9 327.5 139.9 328 142.9 327 136.9 327.5 139.9z" style="fill:#4D502E;opacity:0.8"/><path d="M330.9 139.1c0.7 4 6.7 3 6-1.1C336.3 134 330.2 135.1 330.9 139.1 331.2 140.8 330.6 137.4 330.9 139.1z" fill="#2C2D1A"/><path d="M328.7 137.7c0.5 2.8 4.7 2.1 4.2-0.7C332.5 134.2 328.2 134.9 328.7 137.7 328.9 138.9 328.5 136.5 328.7 137.7z" style="fill:#E3D77D;opacity:0.8"/><path d="M314.2 331.4c1.7 4.5 0.5 7.9-1.6 12 -1.3 2.4-0.2 5.5 2.6 3.8 -1.6 1.6-3.8 2.3-5.5 1.6 -1.4-2 0.9-5.4 1.6-7.2 1.6-3.9 2.1-6.6 0.7-10.7 1.1 3.1 1.5 12.4-2.4 14.1 1.9-9.5 1.3-19.3 1.4-29 0-2.9 2.2-7 0.5-9.5 -1.8-2.8 2.8-4.9-1.5-6 -1.3-0.3-2.9-21-3.3-22.9 -1.5-8.9-3.5-17.7-5.3-26.6 3.6-0.4 7.3-1.6 10.5-3.4 1.7 18.6 5.7 37 8.8 55.4 2.4 14.5 5.8 30.4-4.4 42.8 -3.1 3.8-5.3 0.3-3.2-3.5 3.8-6.9-0.5-12.4-0.3-19.6L314.2 331.4z" class="c"/><path d="M309.9 349.5c-1.1-1.5-0.6-3-0.4-4.7 1.2-5.9 1.5-11.9 1.4-17.9 -0.1-4.7-0.2-9.5 0-14.2 0.4-2.8 0.2-5.3 0.8-7.9 0.5-2.3 1.2-4.2-1.2-4.1 -2 0-1.2-4-1.3-5.3 -0.3-4.9-1.1-9.7-1.9-14.5 -1.7-10.1-3.9-20.1-5.9-30.2 3.8-0.4 7.7-1.6 11-3.6 1.5 16.6 5 32.9 7.7 49.3C322.7 312.8 330 343.4 309.9 349.5zM309.7 348.2c1.5 1 2.7 0.8 4.2-0.3 -4.7 1.5 0-7.5 0.3-8.4 2-5.5-1.8-11.2-1.6-16.9 0.2 0 0.3 0 0.5 0 -0.2 6.9 4.1 12.7 0.5 19.4 -2 3.8-0.4 7.3 2.6 3.5 9.7-12 6.9-27.2 4.5-41.2 -3.1-18.7-7.2-37.4-9-56.3 -3.1 1.6-6.5 2.8-9.9 3.2 3 14.8 7.9 30.6 7.8 45.8 0 1.1-0.6 3.6 1.3 3.1 2.6-0.7 1.4 4 1.1 5.2 -0.3 1.4 0.5 2.2 0.4 3.6 -0.1 2.3-1.1 4.1-1.1 6.5 -0.1 9.1 0.9 18.9-1 27.9 2-4.6 3-7.5 1.5-12.4 0.2-0.1 0.3-0.1 0.5-0.2 1.5 4 0.9 7.1-0.7 10.8C310.7 343.7 309.2 346 309.7 348.2z" class="d"/><g class="h"><path d="M302.3 254.5c2 8.1 3.4 16.5 4.8 24.7 0.3 1.8 1.7 20.9 3 21.3 3.5 0.9 1.5 2.2 1.4 5.8 0 0.8 0.8 1.8 0.7 2.8 -0.1 2-1.1 3.5-1.1 5.5 -0.1 10.1 0.6 20.4-1.4 30.3 3.9-1.7 3.5-10.9 2.4-14.1 1.1 3.1 1.3 5.8 0 8.9 -0.8 2-4 6.8-2.4 9 1.7 0.7 3.8 0 5.5-1.6 -6 3.6-0.8-7.1-0.4-8.5 1.8-6.6-4.3-13-1.1-19.7 -2.3 4.9 0.2 9.7 1.2 14.5 0.7 3.2-0.2 6-1.7 8.8 -0.6 1-2.6 5.2 0.1 5.4 4.5 0.3 7.9-9.7 8.9-12.9 2.6-8 1.1-16.9-0.2-25 -3.3-20.7-8-41.3-9.9-62.2 -3.2 1.8-6.8 3-10.5 3.4C301.8 252.2 302 253.3 302.3 254.5 304.2 262.1 302.1 253.5 302.3 254.5zM311.2 250.2c-0.7 15.2 4.3 30.7 7 45.5 1.5 8.1 3.2 16.3 4 24.4 0.7 6.6-0.3 13-2.8 19.2 -0.7 1.8-1.8 4.5-3.6 5.5 -1.9 1-1.7-1.6-1.3-2.6 1.5-4.2 3.9-7.4 2.6-11.9 -1.5-5.4-1.4-9.8-0.7-15.3 0.5-4-1.2-5.6-2.3-9.1 -1.1-3.8-1.7-7.8-2.4-11.6 -1.5-8.2-3.2-16.5-4-24.8 -0.4-4-1.9-7.3-2.9-11.2C303.9 254.5 308.4 251.6 311.2 250.2z" class="c"/></g><g class="h"><path d="M214.6 325.2c1.5 0.4 1.3-7.7 1.3-8.5 0.1-4.2-1.5-7.3-0.4-11.4 0.5-1.6 1-3.2 1.4-4.9 0.9-3.8 0.2-10.2 2.2-13.2 3.4-5 3.8-12.7 4.7-18.5 0.4-3 1.4-5.8 1.9-8.8 0.4-2.5-1.6-7.2-3.5-2.9 0-0.1 0.8-4.1 0.5-4.3 2.2 0.8 4.6 1.3 6.9 1.2 -1.6 6.2-3.2 12.5-4.5 18.8 -1 4.5-1.6 9.1-3.1 13.5 -1 3-3 6.2-3.2 9.5 -0.1 1.2 0.2 2.5 0.8 3.5 0.3 0.5-1.7 2.4-2 3 -1.2 2.3 0.8 7.3 1.3 9.8 0.7 3.4-1.5 7.8-1.7 11.4 -0.3 5.2-0.6 10.3-0.9 15.5C215.4 336.7 209.6 323.9 214.6 325.2 216.1 325.5 213.4 324.9 214.6 325.2z" class="c"/></g><path d="M340.1 117.8c-0.8 1.2-1.6 2.5-2.4 3.7 -2-3.7-5.8-5-9.9-4.4 0.4-0.1-8.1 3-6.2-0.5C325 110.7 337.5 111.6 340.1 117.8z" fill="#392E16"/><path d="M337.7 121.9c-0.5 0-1.7-2.1-2.1-2.4 -2.5-2.4-6.1-2.5-9.3-1.6 -0.3 0.1-2.8 1.7-3.1 1.3 -0.5-0.2-2.2-2.1-1.8-2.7 3-5.2 11.6-4.9 16.1-2.2 1.2 0.7 2.7 2 3.1 3.4C340.6 118.3 338.3 121.9 337.7 121.9zM330.4 116.6c3 0 5.7 1.7 7.3 4.2 1.2-1.8 2.6-2.8 1-4.5 -2.6-2.8-7.3-3.4-10.9-2.9 -1 0.2-6.8 2.1-5.4 3.8C324.1 119.1 327.6 116.6 330.4 116.6z"/><path d="M194.9 108.9c-7.5 1.4-6.3-4.6-1-7.5 -2.6 0.7-7.2 1.8-9.2-0.7 -5.3-6.5 7.5-3 9.1-3.2 2.8-0.3 3.5-4.8 4.9-6.9 3.5-5.4 8.7-9.7 15.1-11.1 -1.8 0.1-5.6 0.3-6.7-1.5 -1.6-2.7 4.3-2.7 5.5-2.5 -2.1-1-4.2-2.1-6-3.6 -4.1-3.4 0.8-4.2 3.8-3 1.9 0.8 4.3 3.5 4.3 0.1 0.1-2.6-0.4-6.2 1.8-8.1 7.1-6.1 2.4 7.4 3.4 8.2 1.2 1 6.8-2.1 8.1-2.6 16.1-5.6 33.5-8.5 50.6-7.4 11.2 0.7 22.4 3.3 32.6 8.1 6.4 3 14.1 4.8 18.3 11 1.6 0.1 3.2-0.4 4.5-1.3 1.1-0.8 3-6.3 4.1-5.9 6.3 2-3.8 11.3-3.5 12.6 0.6 2.4 8.9-6.9 6.3 0.6 2.9 0.1 6.2-3.3 8.8-1.7 2.8 1.6 1.1 5.3-0.7 6.9 -3.4 3-15.3 1.5-4.9 5.2 2.7 1 16.4 0.6 14.5 4.3 -3.1 5.8-11.6 6.4-16.3 2.6 2.2 3.9 4.8 5.6 8.3 8.1 1.1 0.8-2.4 1.3-2.6 1.3 -2.6 0.2-5.7-0.4-7.3-2.6 0.6 0.8 6 8.8 4.1 9 -3.4 0.2-5.9-5.2-8.1-6.9 1.7 1.3 4.7 9.5 0.3 6.7 -4.4-2.7-8-7.2-11.3-11 -1 4.3-2.4 9.6-5.5 12.9 -5.3 5.7-6.6-4.2-5.4-7.9 -1.4 2.7-3.7 7.3-7.1 7.8 -2.4 0.3-2.1-0.1-4.6 1.1 -1.3 0.6-8.6 1-8.7 1.2 -3.9 5.5-3.8 9.4-0.7 15.1 0.7 1.2-9.4 1.1-8.2-4.6 -0.5 2.3 1 6.2 1.2 8.6 0.5 5.4-1.9 3.7-3.5-0.4 -0.1 1.7-1.1 12.3-2.9 6 0.1 1.3-0.1 11.5-2.1 7.6 -3-5.9-8.9-10.3-15.5-6.2 -16 9.9 4 38.7 15.9 24.3 1.3 1.6 2.8 3.1 4.6 4.2 2.7 1.7 5.4 0.2 7.8 1.3 3.9 1.8-4.3 7-7.7 5.6 -6.5-2.6 1.7 4.6 3.3 5.7 6.1 4.3-2.9 3.6-6.2 0.4 1.3 4.5 3.3 5.5 6.9 7.5 1.7 1-0.2 2.9-1.4 3.2 -0.9 0.3-5.7-0.8-5.6-1.6 -0.5 2.8 7 7.2 2.6 10.3 -4.1 2.8-2.8-6.3-3.8-6.3 -0.8 0-1.7 7.4-4.6 7.8 -2.4 0.3-2.5-6.9-1.9-7.2 -2.1 1-1.7 9.2-6.3 6.6 -1.9 5-8.7-5.9-8.2-6.1 -1.1 0.4 1.7 5.7 2.1 6.1 0.7 0.8 6.6 3.2 6.7 3 -0.3 1.3-5 0.8-5.8 0.6 -3.4-0.6-6.5-2.5-7.7-5.8 -0.9 2.4-2.3 6-4.8 7.3 -4 2.1-3.5-5.3-2.8-7.1 -1.3 2.4-3.8 4.1-6.5 4.5 -2.4 0.4-7.8-0.5-4.8-3.9 -2.2 1.2-5.7 2.8-8.2 1.6 -3.9-1.8 1.7-4.8 2-7.4 -3.4 2.7-8 2.6-11.4-0.1 -5.1-4.2 2.9-3.1 4.7-7 -2.3 2.1-6 3.5-8.9 1.9 -0.6-0.3 3-4.6 2.9-6.1 -2.2 1.8-5.2 4.1-8.2 3.8 -2.7-0.2-5.6-5.3-2.4-6.9 2.2-1.1 7.6 2.2 8.6-1.4 0.2-0.6-2.2-4.1-1.9-6 -1.1 1.5-2.5 3-4.1 4 -1.1 0.7-6.7 1.6-6.1-1.2 0.4-1.6 2.7-2.5 3.2-4.4 0.3-1.2 0.2-7.5-1.2-7.9 0 0-1.1 3.5-1.2 3.7 -1.2 2.5-4 4.3-6.9 4 -2-0.2 0-3.7 0.3-4.5 1.3-3.7 1.7-7.6 0.4-11.4 -9 8.5-7.9-6.1-6.1-11.7 -0.7 1.3-3.4 6.8-4.2 3.1 -1.1-4.8 0.6-10.6 4.3-13.9 -0.8 0.6-3.9 5-4.7 3.2 -1.5-3.2 3.4-7.5 5.4-9.2 -3.9 0.9-10-1.8-6.4-6.5 1.1-1.5 3.2-1.8 4.2-3 0.3-0.3 0.2-4.9 2-4.7 -2.5-0.3-5.7 1.1-2.9-3.5" fill="#443617"/><path d="M335.7 85c0 0 3.8-2.7 4.4-2.2C340.7 83.3 337.4 85 335.7 85z" class="i"/><path d="M215.1 73.2c0 0-5.9-4.6-7.6-4C205.8 69.8 212.5 72.6 215.1 73.2z" class="i"/><path d="M281.6 177.1c1.6 1.6 8.1 1 7.9 2.1C288.6 184 282.8 178.9 281.6 177.1z" class="i"/><path d="M206.1 188.4c1 0.3 8.5 0.4 6.1 2.5C208.5 194.1 203.2 190 206.1 188.4z" class="i"/><g class="h"><path d="M262.2 361.1c4.9 5 19.3 3.3 25.7 3.3 4.4-0.1 28.9-2.1 22.5-11.7 -1.3-1.9-5.7 1.6-7.3 2.2 -6.3 2.2-13.1 2.3-19.7 2.1 -5.7-0.1-11.6-0.2-17.1-1.6 -1.1-0.3-2.4-1.3-3.4-1.2C261.2 355 262.2 359.6 262.2 361.1zM278.3 358c6.8 1.4 14.5 0.2 21.1-1.2 1-0.2 9.5-3.4 9.8-2.2 0.8 3.3-1.9 4.5-4.5 5.5 -7.2 2.8-14.7 3.1-22.3 2.7 -2.5-0.1-5.7 0-7.9-1.3C270.9 359.5 276.5 357.7 278.3 358 281.9 358.7 274.7 357.3 278.3 358z" class="e"/><path d="M222.5 360.1c8.9 3.9 20 3.8 29.5 3.8 2.3 0 7.7 0.7 9.5-1.2 2-2-1.2-7.2 1.3-8.5 -13.3 2.5-28 1.3-41-2.1 -3.9-1-8.1-6.3-8.4 0.1C213.2 357.5 218.1 358.1 222.5 360.1 232.8 364.7 212.3 355.5 222.5 360.1zM231.3 355.9c5.2 0.8 10.6 1.4 15.9 1.5 3.3 0 7.7-1.6 10.7-0.6 1.5 0.5 2.3 3.6 0.8 4.5 -2.5 1.5-6.6 0.9-9.4 1 -4.5 0.1-9 0.6-13.5-0.3 -2.3-0.5-6-0.7-7.9-2.1C224.5 357.3 229 355.7 231.3 355.9z" class="e"/></g><path d="M498.6 362c-0.6 8.5-0.7 17 0.7 25.5 0.5 2.9 3.3 11.8 1.9 14.6 -1.1 2.3-7.3 3.3-9.4 3.3 -3.6 0.1-9.6-1-9.8-5.2 -0.1-4.3-0.3-8.5-0.5-12.8 -0.5-9.5-2.2-19-2.3-28.6C485.7 359.9 492.2 361 498.6 362z" class="j"/><path d="M491.2 405.8c-6.2 0-9.4-2.1-9.6-7.7 -0.2-6.3-0.5-12.7-1-19 -0.5-6.7-1.6-13.2-1.7-19.9 0-1.4 7.8 0.5 8.8 0.7 2 0.3 9.6 0.3 11 1.8 0.8 0.1-0.1 12.3-0.1 13.4 0.1 7.9 1.7 15.5 2.6 23.3 0.1 0.9 1 3.6 0 4.3C498.3 404.6 494.7 405.8 491.2 405.8zM482.5 401.9c3.8 3 8.6 3.9 13.2 2.5 4.1-1.2 5.2-1.8 4.7-5.8 -1.1-9.2-2.8-18.1-2.6-27.5 0.1-2.9 0.2-5.8 0.4-8.7 -0.5-0.6-4.1-0.7-4.8-0.8 -4.6-0.7-9.2-1.5-13.8-2.2C479.8 373.5 482.1 387.6 482.5 401.9z" class="k"/><path d="M458.5 365.4c-2.3 10.6-2.9 21.2-4.1 32 -0.5 4.6 0.7 7.2-4 7.8 -4.4 0.5-9.9 1.1-14-0.9 -4.2-2 1.9-17.5 2.7-21.5 1.6-7.4 1.7-15.3 2.3-22.8C447.1 361.8 452.8 363.6 458.5 365.4z" class="j"/><path d="M444.1 406c-5.5 0-10.6-0.4-9.2-6.3 1.3-5.7 2.6-11.3 3.8-17 0.6-2.8 2-23.3 3.3-22.9 4.3 1.4 8.6 2.7 12.9 4.1 5 1.6 3.8 2.1 2.8 7.4 -1.4 7.5-1.7 15-2.5 22.6 -0.4 3.6-0.9 7.3-1.2 10.9C453.9 406 445 406 444.1 406zM434.9 402.9c2.2 2.3 6.3 2.3 9.2 2.3 4.2 0 8.9 0.9 9.4-3.6 0.9-8.5 1.2-17.1 2.5-25.5 0.5-3.2 1.1-6.4 1.8-9.6 0.3-1.4-2.5-1.6-3.7-1.9 -4.1-1.3-8.3-2.6-12.4-3.9C440.6 375.1 438.2 388.7 434.9 402.9z" class="k"/><path d="M460.4 154.8c9.7-4.5 9.8 7.1 15.7 10.1 3.6 1.8 3 0.2 1.4-2 -1.9-2.6-1.9-6.5-2-9.5 0-2.3-0.8-4.8 1.5-5.1 3.2-0.3 5.7-3.2 7.5-5.6 1.1-1.5 1.8-3.8 3-5.2 2.5 0.2 4.4-3.5 5.3-5.3 -2.4 6.5 6.2 3.2 8.3 0.1 1.2-1.8 1.4-3.3 3.3-4.1 2-0.9 3.6-3.1 4.8-4.9 -0.3 3.2 1.5 3.9 3.9 2.2 -3.7 3 1.4 3.9 3.9 2.6 3.3-1.6 3.7-2.3 7.1-2.9 4.8-0.8 6-6.7 6.1-10.8 1.3 3.1 2.6 6.2 3.6 9.3 1.5 4.6 3.8 6.9 4.7 11.9 1.2 6.7 0.3 13.4 0 20.2 -0.2 5.3 0.2 6.6 5.1 7.6 4.9 1 1.5 6.8-0.3 8.9 -3.4 4 2.9 6.3 0.9 10.4 -2.9 8.9-18 6.5-23.2 2.4 5.3 4.2 12.7 4.9 18.8 1.9 0.6 3.5-4.7 9.1-6.3 12.2 -2.8 5.5-6.8 10.6-11.2 14.9 -4.6 4.5-9.8 8.1-15.9 3.8 -3.1-2.2-5.5-5.4-7.2-8.7 4.2 2.1 13.6 0.1 13-6.2 -0.2-2.6-6.4 1.2-7.2 1.4 -0.8 0.1-10-1.2-9.1-2.1 1-1 5.8 1.3 8-1 1.5-1.6 1.6-4.5 0-6.2 -1.3-1.3-10 2-11.6 2.3 -10.5 1.4-16.4-5.9-17.6-15.7 -5.9 5.9-17.2 0.1-20-6.3C452.1 169.1 453.6 158 460.4 154.8 467.5 151.6 453.4 158 460.4 154.8z" class="j"/><path d="M512.3 220.4c-2.4 0-16.3-8.7-13.4-11.4 0.2-0.2 6.7 0.9 8.3 0 1.2-0.6 6.3-4.8 4.4-6.4 1.1 0.9-18.7 4-16.1-0.4 0.4-0.7 4.7 0.6 5.8 0.2 3-0.9 4.4-4.3 2.3-6.9 -0.7-0.8-12.4 2.4-13.7 2.6 -9.3 0.9-14.2-7.5-15.5-15.6 -5.6 4.5-14.9 0.6-18.7-4.5 -4.1-5.6-3.2-14.7 0.7-20.2 3.7-5.2 10.5-5.5 14.6-0.6 1 1.2 5.4 10.7 8 7.9 -2.1-2.1-6.8-17.1-2.4-17.1 4.7 0 8-5.5 9.9-9.2 0.6-1.1 6.7-6.9 6.5-7 1.4 0.6-1.3 4.3 2.7 4.1 2.7-0.1 4.6-3 5.9-5 1-1.7 6.7-8.4 7.8-8.1 0.9 0.3 0 2.2 0.6 2.9 1 1.1 2.9-1.4 3.5-0.6 0.6 0.9-3.3 3.3 0.7 3.3 2.7 0 5.1-2.1 7-3.7 0.4-0.4 3.6 0 4.4-0.4 1.6-0.7 2.6-2.2 3.2-3.7 0.3-0.7 0.9-6.5 1.5-6.6 1.4-0.3 4.5 11.5 5.2 12.9 1.4 2.6 1.7 0.9 2.6 4.5 1.2 4.5 1.7 9.1 1.5 13.8 -0.1 3.1-2.9 16.3 1.2 17.6 1.9 0.6 4.1-0.4 5.3 1.8 1.9 3.2-1.5 7.1-3.5 9.2 -0.7 4.8 4.7 6.7 0.4 11.5 -0.8 0.9-1.7 1.5-2.7 2 -0.1 0.5 0.1 2.2-0.3 2.5 -1.9 1.4-1.9 4.1-3.4 5.4C529.2 202.4 525.1 220.4 512.3 220.4zM500.1 210.1c2.3 3.9 5.8 8.3 10.4 9.3 5.3 1.2 9.6-3.5 12.9-6.9 3.5-3.7 6.8-7.9 9.3-12.4 2-3.5 6.3-8.5 6.7-12.4 -6.1 2.8-13.3 1.9-18.6-2.2 0.1-0.2 0.3-0.4 0.5-0.6 3.6 2.8 8 4.1 12.5 3.6 0.5-0.1 5.9-0.9 5.9-1.7 0 0 0 0 0 0l0 0 0 0c1.9-0.7 3.4-2.3 4.2-4.1 1.6-3.2-2.5-5.1-2.1-8.5 0.2-2.2 3.1-3.7 3.8-6 1.7-5.6-3.9-2.9-6.1-5.3 -1.9-2.1-1.2-6.3-1.1-8.8 0.3-5.1 0.9-10.3 0.3-15.5 -0.9-7.9-4.9-15-8-22.4 -0.5 5.1-3.2 10.5-9.1 9.3 -1.2 1.1-12.4 6.2-10 1.2 -1.6 0.5-2.6-0.5-2.7-2.2 -1.2 1.6-3 4.1-5.2 4.2 -0.6 1.3-1.3 2.6-2.1 3.8 -1.5 2.2-8.8 7.6-9.2 1.5 -1.9 3-4.3 4-6.2 7.1 -1.7 2.8-4 5.9-7.2 7.1 -1.1 0.4-2.7-0.1-2.8 1.1 -0.1 1.6-0.2 3.3-0.1 4.9 0.1 2.8 0.1 7.1 2.5 9 3.7 3-1.9 2.5-3.7 1.1 -2.1-1.6-2.7-4.8-4.4-6.8 -7.6-9.4-16.1 2.1-16.5 10.2 -0.5 9 8.3 18.7 17.9 15.2 1.7-0.6 3-2.9 3.4-0.5 0.4 2.2 1 4.4 1.9 6.4 3.4 7.6 9.5 9 17.2 7.7 2.7-0.5 6-2.2 8.7-2.2 4.4 0 1.6 10.9-5.6 8.7 2.9 1.4 6.4 1.6 9.4 0.4 1-0.4 5.8-3.7 5.8-0.3C512.6 209 504.6 211.8 500.1 210.1z" class="k"/><path d="M542.5 203.3c-0.1-2.5 3.1-16.8-2.8-13.8 0-1.8 4.5-8.9 6.6-5.8 2.1 3.1 1.4 10.7 1.5 14.3 0.3 7.2-4.5 13.9-7.4 20.4C541.8 213.6 542.8 208.3 542.5 203.3z" class="j"/><path d="M540.4 218.8c1.1 0 1.8-20.2 2-22.1 0.1-1.4 1.4-5.8 0.2-6.9 -0.6-0.5-3.2 0.5-3.2-0.2 0-2.6 0-2.2 1.9-3.6 0.8-0.5 2.2-3.4 3-3.5 4.8-0.5 4.3 16.2 3.9 19.3C547.9 203.5 542 218.8 540.4 218.8zM541.6 188.7c3.9 0 0.8 22.5 0.1 25.8 2.6-5.6 5.9-10.7 5.6-17 -0.2-3.5 0.6-10.6-1.4-13.5 -1.5-2.2-5.8 3.7-5.9 5C540.6 188.9 541.1 188.8 541.6 188.7z" class="k"/><path d="M509.8 229.9c-0.3-0.7-0.5-1.3-0.8-2 0.8 0.3 1.6 0.6 2.4 0.9C511.1 229.5 510.6 229.8 509.8 229.9 509.4 229.2 511.4 229.4 509.8 229.9z" class="l"/><path d="M509 228.3c-1.4 0-3.8-2.9-4.7-3.8 -0.2-0.2-3.6-4.8-1.5-3.5 2.1 1.2 3.2 2.5 5.9 2.3C509.4 223.4 509.5 228.3 509 228.3zM503.5 222.6c1.4 1.7 3 3.3 4.9 4.5C507.6 222.2 506.8 225.9 503.5 222.6z" class="k"/><path d="M510.4 247.1c-2.8 0-2.8-12-7.1-12.2 -2-0.1-7.8-5-6.8-6.9 1.2-2.3 5.8-0.4 7 0.5 1.2 0.9 2.7 1.3 4.2 1.3 3.3 0 2 0.3 4.4 2.6 2.7 2.6 3.4 1.7 2.8 5.2C514.2 241.4 515 247.1 510.4 247.1zM497.7 228.5c1.5 2.2 2.8 5.5 5.7 5.6 2.7 0.2 3.3 2.9 4.2 4.9 0.8 1.8 4.2 10.9 5.3 5.2 0.6-3.3 2.9-8.1 0.1-10.1 -0.9-0.7-1.8-1.5-2.5-2.4 -1.6-2-2.1-0.8-4.5-1.3 -1.7-0.4-3.2-1.3-4.3-2.6C500.4 228.2 499 228.4 497.7 228.5z" class="k"/><path d="M502.6 264l-0.8 1.1C501.2 261.9 501.3 261 502.6 264z" class="l"/><path d="M514.7 256.2c3-4.3-2.3-7.4-1.6-11.2 0.5-2.8 1-5.6 1.6-8.4 0.5-2.9-3.5-3.9-5-6.6 0.8-0.1 1.4-0.4 1.7-1.1 -0.8-0.3-1.6-0.6-2.4-0.9 -0.8-2.9-1-3.8 1.8-4.4 0.9-0.2 8.2-3.7 3.9-3.7 5.2-2.6 9.4-7.1 12.9-11.6 3.1-3.9 5.1-9.8 8.6-13.2 -1.1 5 1.9 11.7-4.5 13.3 -6.1 1.6-10 5.9-9 12.5 -1.1-7.1 3.4-11.2 9.9-12.7 6-1.4 2.1-13.3 6-17.6 6.3-6.9 3.9 12.3 3.9 14.5 -0.2 8.3-2.4 15.3-6.8 22.3 -2 3.3-5.6 5.8-7.3 9.3 -1.1 2.3-0.7 5.1-0.9 7.6 -0.4 7.2-1.1 14.5-2.4 21.7 -0.9 4.9-2.1 13.3-8.3 14.4 -6.5 1.1-12.3-12-14.2-16.1C507.2 262.7 511.3 259.4 514.7 256.2c0.9 2.7 1.7 5.4 2.6 8.1C516.4 261.6 515.6 258.9 514.7 256.2z" class="j"/><path d="M516.3 280.6c-6.8 0-11.9-11.7-14.1-16.4 -0.4-0.9 14.7-6.4 13.2-11.6 -1.1-3.9-3.1-5.3-2.3-9.9 0.5-2.5 0.9-4.9 1.4-7.4 0.5-2.8-7.6-2.8-3.6-6.4 -3-0.8-3-2-2.6-5.2 0.1-0.7 8.1-1.4 7.5-3.3 -0.2 0-1.4-0.1-1.5-0.5 -0.1-0.3 6.9-5.3 7.6-6 2.8-2.7 5.2-5.7 7.4-8.8 3.4-4.8 5.4-11.7 9.6-15.6 6.2-5.7 3.7 11.7 3.8 13.8 0.3 5.3-0.5 11.9-2.9 16.8 -1.8 3.8-3.7 7.6-6.3 10.8 -2 2.5-5.1 4.6-5.5 8 -0.6 4.4-0.4 9-0.9 13.5C526.7 258.7 526.4 280.6 516.3 280.6zM503.2 264.2c1.6 3.5 8.2 17.9 14.4 15.2 5.9-2.5 6.6-10.3 7.5-15.8 1.1-6.7 1.8-13.5 2.1-20.3 0.1-2.7-0.2-5.7 1.5-8 3-4.1 6.4-7.4 8.8-12 3.2-6.1 5-13 4.6-20 -0.1-2.4 2.1-12 0.4-13.5 -2.1-1.9-4.8 2.4-5.3 3.6 -1.8 3.9 1.4 13.8-3.7 14.9 -2.7 0.6-5.4 1.4-7.5 3.2 -1.4 1.2-3.9 9.8-3.1 9.7 -1.6 0.2 0-6.6 0.4-7.4 -2.2 2.2-4.5 4.2-7.2 5.7 3.2 1.2-6.1 4.5-6.9 4.5 -0.1 1.5-0.5 3.8 1.5 3.9 2.6 0.1 0.5 1.8-0.3 2 2.1 3.6 5.4 3.1 4.6 7.4 -0.5 2.6-1.8 6-1.6 8.7 2.5 1.5 0.9 3.4 2.3 5 1.8 2.1-0.8 3.8-0.2 5.9 0.2 0.8 2.8 7.1 1.9 7.4 -0.8 0.2-2.6-6.9-2.9-7.8C511.3 259.9 507.4 262.9 503.2 264.2zM535.7 196.2c-3.3 4.4-5.4 9.5-9 13.8 3-1.9 7.9-1.4 8.7-5.4C535.9 201.9 535.1 198.9 535.7 196.2z" class="k"/><path d="M441.6 262c-1.9 10.8-4.8 21.4-7.1 32.1 -3.4 15.3-4.8 30.9-8.2 46.1 1.9-11.3 1.1-22.9 1.5-34.3 0.5-14.8 1.2-29.6 2.9-44.3C433.9 262.9 438.1 263.4 441.6 262 441.5 262.4 440.9 262.3 441.6 262z" class="j"/><path d="M426.2 340.7c0.9 0 1-33.2 1.1-34.8 0.3-9.2 0.7-18.4 1.3-27.6 0.3-3.9 0.6-7.8 1-11.7 0.6-6.2-0.3-5 5.2-4.3 1.2 0.1 6.3-1.1 7-0.6 0.8 0.7-1.1 6.5-1.3 7.4 -1.8 8-3.7 16.1-5.5 24.1C434.2 297.2 427.3 340.7 426.2 340.7zM430.9 262.2c-2.4 21.9-4.3 44.9-3.1 67 3.3-22.5 9.1-44.3 13.3-66.6C437.8 263.6 434.1 263.3 430.9 262.2z" class="k"/><path d="M441.6 262c0.5-4.5 1.6-9.6 1.6-14.4 0 3.2-0.5 6.5-0.9 9.6 -0.7 5.2-1.5 6-7 5.5 -2.9-0.3-6.2-1.1-8.4-3.2 -1.8-1.8-1.9-10.4 1.6-9 3.4-5.2 5.3-11 9.4-15.9 3.3-4 4.9-4.4 9.8-4.6 1.8-0.1 3.7-0.5 4.2-2.5 3 0.9 16.7 6.8 16.9 1.5 1.2 1.1 7 4.2 8.1 1.1 0.1-0.3-2.7-4-3-4.7 3.5 3.3 10.4 7.7 15.4 4.7 1.2-0.7-3.6-4.6-3.8-7.3 2.7 3.7 7 5.3 11.4 5.2 1.2 1.7 2.3 4.1 3.9 5.5 1.3 1.1 3 0.4 4.2 1.4 2.3 1.9 3.4 7 4.5 9.8 1.3 3 2.2 0.4 4.2 2.4 1.1 1 1.2 2.4 0.6 3.7 0.2 0.8 1.4 0.9 1.5 2.1 0.2 2.9-3.2 5-5.2 6.5 -1.5 1.1-3.1 2.2-4.7 3.1 -1.1 0.6-2.2 1.1-3.4 1.4 -0.2-0.7-0.6-1.3-1.1-1.8 -1-4.1-1.9-8.2-2.8-12.3 5.9 28.5 13.9 56.6 20.4 85 1.2 5.4 2.5 10.8 3.2 16.3 0.8 6.2-2.8 4.1-6.5 7.1 -2.7 2.1-4.3 4.6-7.6 6 -7 3.1-15.3 3-22.9 3.7 -17.3 1.5-36.5 2.5-53.1-3.8 -1.6-0.6-3.3-1.2-5-1.4 -1.2-0.1-2.2 1.5-2.6 1.2 -4.4-3.2 0.4-17.2 1.1-21.3C430.5 315.7 435.1 288.6 441.6 262z" fill="#E9B6D4"/><path d="M465.5 369.3c-7.4 0-14.9-0.5-22.2-1.9 -5.2-1-10.2-3.2-15.4-4.2 -2.9-0.6-4.5 2.9-5-2.9 -0.6-7 2.1-15.3 3.5-22.2 2.5-12.7 3.8-25.5 6.5-38.1 2.7-12.5 6-24.9 8.3-37.5 -6.6 2.2-18.8-0.8-15.4-10 0.8-2.1 2.8-2.9 3.9-5.2 2.1-4.4 4.6-8.7 7.7-12.5 3.3-4 4.9-4.9 9.7-4.9 1.1 0 5-2.4 4.7-2.4 2.9 0.8 5.7 1.7 8.6 2.5 1.7 0.5 3.4 0.9 5.1 1.3 3.1 0.7 1.7-1.6 3.1-2.3 -0.3 0.2 8 4.4 8 1.2 -0.6-0.3-3.6-4.4-2.9-4.8 -0.8 0.6 15.6 9.9 16 4 -0.1 0.7-7-5.6-4.4-6.7 0 0 5.4 4.2 6.4 4.5 3.5 1.1 4.6-0.3 6.7 2.8 1 1.4 1.9 3.6 3.7 4.1 1 0.3 2.1 0 3 0.8 2.2 2 3.3 6.7 4.4 9.4 1.3 3.1 2.8 0.6 4.7 3.1 1.2 1.5-0.1 2.6 1.1 3.9 1.4 1.5 0.5 3.6-0.5 5 -2.4 2.3-11 10.3-13.2 6.5 1.1 13.9 7 28.4 10.4 41.8 3.5 13.9 7.2 27.9 9.8 42 0.5 2.6 1.9 7 0.3 9.5 -1.2 1.9-4.1 1.1-5.8 2.1 -1.8 1.1-3.1 3.2-4.8 4.5 -5.3 3.9-12.4 4.3-18.7 4.9C483.8 368.4 474.7 369.3 465.5 369.3zM426.6 362.5c3.4 0 7 2 10.2 2.8 5.2 1.4 10.6 2.3 15.9 2.9 12.5 1.2 25 0.3 37.5-0.8 7.5-0.7 16.6-0.7 22.5-6.2 2.2-2 3.4-3.9 6.6-4.2 3.3-0.3 3.2-3 2.8-5.6 -1.3-9.9-24.5-101.4-23.5-101.7 0.6-0.1 1.8 7.1 1.9 7.6 0.5 2.4 1.1 4.3 2.1 6.4 2.3-0.7 4.5-2 6.5-3.4 2-1.4 7.3-4.5 6.4-7.8 0-0.1-1.5-1.6-1.4-1.8 0.7-1.5 0.2-3-1.1-3.9 -1.1-0.7-2.5 0.8-3-0.3 -1.4-3.4-2.9-6.9-4.4-10.3 -0.9-2.1-2.5-1.1-4.2-2 -2.1-1.1-3.4-4.1-4.7-6 -4.1 0.1-8.2-1.4-10.9-4.5 0.5 2.7 6.2 5.5 3.1 6.9 -4.8 2.1-10.7-1-14.2-4.1 0.7 1.3 3.7 3.6 1.4 4.6 -2.4 1.1-5.2 0.1-7.1-1.5 -0.5 4.2-8.6 0.7-10.8 0 -1.8-0.5-3.6-1-5.4-1.6 -0.8-0.2-3.3 2.1-5 2.2 -2.8 0.1-4.1-0.7-6.4 1.2 -1.6 1.3-3 3-4.3 4.6 -2.8 3.6-5 7.6-7 11.7 -1.1 2.2-1 2-2.6 3 -4 2.7-1.3 8.5 2.1 10.1 3.7 1.7 11.4 3.4 12.1-1.6 0.1-0.8 1.1-12.1 1.5-12.1 1.5 0-9.3 50.2-9.8 52.7 -2.4 11.1-3.8 22.2-5.7 33.4 -0.5 3-6.9 30.4-2.8 30.4C425.3 363.9 425.3 362.5 426.6 362.5z" class="m"/><path d="M447.5 351.2c14.5 3.1 30.5 1.8 44.9-1.5 3.9-0.9 9.7-1.8 12.7-4.8 2.1-2.1 3.2-4 6.4-4.6 2.7-0.6 7.4 0 8.1-3.5 0.6 2.7 1.2 5.3 1.7 8 0.6 3.1-2.4 2.3-4.9 2.6 -5.2 0.7-5.3 4.7-9.4 6.2 -11.8 4.4-25.1 6.4-37.7 6.5 -10.1 0-20.2-1.3-30-3.8 -2.3-0.6-13.5-5.7-15.4-3.3 0.8-4.3-0.1-9.3 5.2-7.4C435.2 347.8 441.2 349.8 447.5 351.2 469.6 355.9 431.1 347.6 447.5 351.2z" class="n"/><path d="M468.8 360.3c-9.7 0-19.4-1.3-28.8-3.6 -3.1-0.8-6.1-1.7-9.1-2.7 -1-0.3-2-0.7-3.1-1.1 -1-0.3-3.6 0.5-4.1 0.3 -0.5-0.3 0.4-8.5 2.6-8.5 3.4 0 7.5 2.5 10.8 3.5 11.5 3.6 23.2 4.8 35.3 4.1 9.8-0.6 20.9-1.8 30-6 2.8-1.3 3.9-4.3 6.8-5.6 2.2-1 4.7-1 7-1.4 1.2-0.2 3.1-2.8 3.3-2.8 1.5 3.7 4.6 10.6-1 11 -2.2 0.1-4.7 0.3-6.7 1.6 -1.9 1.2-2.4 3.7-4.5 4.7C496.2 359 481 360.3 468.8 360.3L468.8 360.3zM425.7 352c6.2 0 13.7 4.1 19.8 5.4 10.9 2.2 22.1 2.9 33.2 1.9 9.6-0.9 18.6-3.4 27.8-5.9 3.4-0.9 4.1-5.2 8-6 2.2-0.5 4.7-0.2 6.7-1.1 -0.5-2.9-1.2-5.8-1.8-8.6 -1.6 3.4-7.1 2.2-10 3.5 -2.8 1.3-4 4.2-6.8 5.6 -8.4 4-18.7 5.1-27.9 5.9 -11.6 0.9-23 0.2-34.2-2.8 -3.4-0.9-6.7-2.1-9.9-3.3 -1.4-0.5-3.6-1.7-5.1-1.1 -0.4 2.3-0.8 4.7-1.3 7C424.8 352.3 425.3 352.1 425.7 352z" fill="#C959A0"/><path d="M475.8 148.7c-1.3 0-1.5-1.2-1.1-2 -2.6 1.2-4.4 0.1-3.4-2.7 -4.2 2.4-9.4 2.9-12.7-1.2 -2.3-2.8-6.4-1.7-9.5-4 -2.6-2-5.5-7.2-0.6-8.6 -0.6-1.5-1-5.1 0.8-6.2 1.1-0.6 2.7 1.6 3.7 1.9 -1.9-1.5-3.4-4.5-2.7-7 0.8-2.8 3.1-0.1 4.3 0.6 1.4 0.7 10-0.4 10-0.4 0.8 1.9-9.5 1.6-10.6 1 -2.5-1.4-4-1.7-2.7 2.1 0.4 1.2 4.6 4.5 4.6 4.5 -0.3 2.9-6.5-5.2-7.1 0.1 -0.1 1.4 1.5 3.7-0.2 4.2 -2.6 0.8-2.3 3.4-1 5.2 2.8 3.9 9.1 2.4 11 5.3 1.3 2 3.5 3.5 5.9 3.7 1.3 0.1 7.8-2.5 7.9-2.4 0.8 0.7-1.9 3.1-0.3 3.7 1.2 0.4 4.3-2.2 4.7-1.6C476.8 144.8 474.8 148.7 475.8 148.7z" class="k"/><path d="M510.4 189.9c-1.1 0 4.5-1.4 5.2-1.7 2.1-0.8 3.9-2.1 5.2-3.9 0.4-0.6 2.6-7 2.8-7 1.3 0-1.1 5.6-1.3 6C520 187.8 515.3 189.9 510.4 189.9z" class="k"/><path d="M529 126c-1.4-0.4-2.8-0.7-4.3-0.8 4.5-1 5.7-6.7 5.7-10.7 3.6 8.3 8.1 16.4 8.8 25.4C538.2 132.8 536.1 128.4 529 126 528 125.6 531.1 126.7 529 126z" class="o"/><path d="M537.9 162.6c-2.3-2.9 0.7-11 1.1-14.1 -0.2 2.9-2.8 15.3 2.8 15C540.6 163.9 538.9 163.8 537.9 162.6 536.6 160.8 539.4 164.4 537.9 162.6z" class="o"/><path d="M507.9 203.6c-1.1 0.5-13.3 0.8-12-1.1 0.1-0.2 4.4 0.7 5.1 0.5 2.2-0.5 4.2-2.2 4.1-4.5C507.2 199 509.4 201.3 507.9 203.6 500.4 207.2 509.1 201.7 507.9 203.6z" class="o"/><path d="M500.9 150.4c0 22.1 36 22.1 36 0C536.9 128.3 500.9 128.3 500.9 150.4z" class="o"/><path d="M535.9 152.3c2-18.9-24.1-25-31.1-7.5C495.4 168 534.5 174.4 535.9 152.3z" fill="#F8F6C5"/><path d="M519.2 166.8c-24.8 0-17.9-38.2 5.3-32.3C543.6 139.2 537.8 166.8 519.2 166.8zM520.1 134.6c-9.6 0-17 8.8-16.3 18.3 0.8 9.5 11.1 14.8 19.7 12.5C540.8 160.9 538.9 134.6 520.1 134.6z" class="k"/><path d="M534.7 152.2c1.6-16.3-20.4-21.5-25.7-5.7C502.5 165.8 533.5 170.7 534.7 152.2z" fill="#FFFDED"/><path d="M519.2 152.4c1.8 8.4 15.5 5.5 13.7-2.9C531.2 141 517.4 144 519.2 152.4 520 155.9 518.5 148.8 519.2 152.4z" fill="#00B2B0"/><path d="M521.4 151.8c1.3 6.3 11.6 4.1 10.3-2.2C530.3 143.3 520.1 145.5 521.4 151.8 522 154.5 520.8 149.1 521.4 151.8z" fill="#026574"/><path d="M523.9 151.6c0.8 3.9 7.2 2.5 6.4-1.4C529.4 146.3 523 147.7 523.9 151.6 524.2 153.2 523.5 149.9 523.9 151.6z" fill="#054651"/><path d="M520.6 150.6c0.7 3.5 6.3 2.3 5.6-1.2C525.4 145.9 519.8 147.1 520.6 150.6 520.9 152.1 520.2 149.1 520.6 150.6z" class="p"/><path d="M528 153.4c0.4 2.1 3.8 1.4 3.3-0.7C530.9 150.6 527.5 151.3 528 153.4 528.1 154.3 527.8 152.5 528 153.4z" class="p"/><path d="M524.4 127.8c-2.3-0.1-4.6 0.5-6.6 1.7 -0.8 0.5-2.2 2.5-3 2.7 -2.7 2.9-0.5-3 0.3-4 3.4-4.1 9.3-4.6 13.8-2 0.7 0.4 6.2 4.5 4.6 6.1C533.7 132.3 525.6 127.9 524.4 127.8 518.1 127.5 529.8 128.1 524.4 127.8z" style="fill:#FFD17F;opacity:0.4"/><path d="M524.4 126.1c-2.3-0.1-4.6 0.5-6.6 1.7 -0.8 0.5-2.2 2.5-3 2.7 -2.7 2.9-0.5-3 0.3-4 3.4-4.1 9.3-4.6 13.8-2 0.8 0.4 6.2 4.5 4.6 6.1C533.7 130.6 525.6 126.2 524.4 126.1 518.1 125.8 529.8 126.4 524.4 126.1z" class="q"/><path d="M513.6 131.8c-1.7 0-0.3-3.1 0-3.6 1.4-2.6 3.9-4.7 6.8-5.3 5.2-1.1 10.7 1.4 13.3 6 2.7 4.8-6.2-1.8-7.3-2 -3.3-0.8-6.7 0-9.4 2.1C516.3 129.4 514.7 131.8 513.6 131.8L513.6 131.8zM522.8 123.4c-2.5 0-11 3.7-9.1 7.6 2.2-0.4 4.4-4.1 7.1-4.9 2.5-0.7 5.3-0.6 7.7 0.5 1.3 0.6 3.7 3.7 5 3.7C536.1 127.4 524 123.4 522.8 123.4z" class="k"/><path d="M513.2 125.5c0.3-0.2 0.4-0.3 0.4-0.3S513.5 125.3 513.2 125.5z" class="q"/><path d="M513.4 125.8c0-0.6-1.1-0.5 0-1C514 125.2 513.9 125.4 513.4 125.8z" class="r"/><path d="M376.7 188.5c1.1-27.1 1-62.3 21.7-82.9 -5.4-0.4-5.4-5.8 0-4.3 -1-1.8-3.9-15.4 1.3-13.2 2.6 1.1 2.3 8 2.4 10.3 13.1-14.3 33-23 52-24.4 6.2-0.5 12.7-0.4 18.9 0.9 4.4 1 9.9 1.9 14.2 0.1 3-1.2 3.8-8.4 7.3-5.7 3.6 2.8 4.2 9-1.3 9.7 10.3 1 20.6 5.2 29 11.1 7.5 5.2 12 11.9 17.5 18.9 1.6 2 7.2 3.9 7.1 6.4 -0.1 4.4-5.3 4.9-7.8 2.3 1 2.5 4.3 12.8-2.1 11.3 -3.3-0.7-5.4-11.6-6.7-14.6 0 4.1-1.3 10-6.1 10.8 -3.4 0.5-3.8 1.3-7.1 2.9 -3.1 1.5-7.9-0.7-3.5-3 -2.3 2.1-4.7 1.5-4.4-1.9 -1.2 1.8-2.7 4-4.8 4.9 -1.8 0.8-2 2.3-3.3 4.1 -2.1 3-10.7 6.4-8.3-0.1 -1.5 3-4.6 4.1-5.9 6.5 -1.9 3.8-5.2 9.2-9.9 9.6 -2.8 0.3-1.6 7.1-1.2 9.5 0.4 2.6 6 10 0.3 7 -4.3-2.2-4.3-8.3-9.1-10.4 -6-2.6-10.9 3-12.5 8.2 -1.6 5.2-1.6 12.4 2.7 16.4 4.2 4 12.5 7.6 17.5 2.7 1 8.1 5.9 16.9 15.2 16 2.5-0.2 11.4-3.9 13.7-2.7 1.5 0.8 1.7 3.8 1.2 5.1 -0.7 1.6-2.2 2.6-3.8 2.9 -0.9 0.2-4.7-0.9-5-0.5 -0.8 0.8 6.8 2.3 7.3 2.3 1.5 0 8.2-3.6 9-2.1 3 6-9.6 8.3-12.9 6.7 1.3 2.5 3 4.8 5 6.8 3.9 3.8 6.7 2.9 11.4 3.8 2.6 0.5-4 3.4-4.5 3.6 -1.6 0.4-3.3 0.5-5 0.1 -0.5-0.1-3.6-2.4-3.8-2.3 -1.4 1.1 9.1 8.2 9.2 7.6 -0.6 4.1-9.8-1.5-10.7-1.2 -5.5 1.3-11.7 0.1-15.2-4.7 0.2 2.1 4.2 7 4.3 7 -4.2 4.2-12.8-1.5-15.9-4.3 0.3 0.7 3.1 4.4 3 4.7 -1.1 3-7-0.1-8.1-1.1 -0.2 5.2-13.9-0.6-16.9-1.5 -1.3 4.8-8.8 1.5-11.8 1.1 -2.8-0.3-3.5 1.8-7.3 0.1 -1.9-0.8-3.8-1.9-5.3-3.4 -0.2-0.2-1.9-3.2-2-3.2 -0.4 0 0.6 3.5 0.7 3.6 0.9 2.6 2 2.9 3.8 4.5 0.1 0.1-4.3 0.1-4.9-0.1 -2.8-0.9-0.7-0.7-2 0.6 -1.1 1.2-2.7-1.4-3.6-0.2 -1.1 1.5-3.2 1.1-4.7 0.4 -2.1-1-2.7-2.1-4.9-2 -3.5 0.1-6.9-1.6-9.6-3.9 -0.7-0.4-2.3 0.1-3.2-0.4 -1.6-0.7-2.9-2.3-4-3.6 -2.7-3.1-4.9-6.7-6.2-10.6 -0.7 0.8-1.2 1.3-2.3 0.5 -1.4-1-3.6-0.6-4.8-2 -2.4-2.8-2-8.8-2-12.3 -0.1 1.9-1.8 7.2-4.8 5.6C371.6 201.9 376.6 190.4 376.7 188.5 377 181.7 376.4 195.3 376.7 188.5z" class="q"/><path d="M417.2 232.2c-3 0-4.7-2.7-7.6-2.7 -3.5 0-6.8-1.6-9.4-3.8 -6.2 1.4-11.9-9.6-13.4-14.1 -1.3 1.2-2.9-0.2-3.7-1.2 -1.3 0.7-2.7 0.2-3.6-0.8 -2-2.3-1.9-6.6-2-9.4 -0.6 1.6-1.8 2.9-3.7 3 -3.2 0.2-0.6-4.7-0.2-5.7 2-4.8 2.6-8.9 2.7-14 0.3-11.6 1.2-23.2 3.1-34.6 2.6-15.1 7.1-31.6 18-42.9 -4.7-0.7-5.3-5.8 0.1-5.1 -1.8-3.6-3.4-10.1 0.8-12.8 3.5-2.2 3.9 8 4 9.6 11.7-12.1 28.1-20.2 44.5-23 6.6-1.1 13.3-1.4 20-0.9 4.9 0.4 9.6 1.9 14.5 1.9 2.3 0 4.8-0.2 6.8-1.5 2.1-1.4 1.6-4.7 3.7-5.7 4.3-2 8.5 8.2 3.3 10.5 11.5 1.7 22.7 6.8 31.6 14.2 5.5 4.6 9 10.2 13.3 15.7 1.6 2.1 6.4 3.5 7.1 5.7 1.3 4.1-4.2 6.5-7.2 4.5 1 2.8 3.2 11.9-3 10.5 -3.4-0.6-5.2-10.5-6.3-13.2 -0.5 5.1-3.2 10.5-9.1 9.3 -1.7 1.5-3.7 2.9-5.8 3.5 -1.4 0.4-5.3 0.1-4.1-2.4 -1.6 0.5-2.6-0.5-2.7-2.2 -1.2 1.6-3 4.1-5.2 4.2 -0.6 1.3-1.3 2.6-2.1 3.8 -1.5 2.2-8.8 7.6-9.2 1.5 -1.1 1.8-4 2.9-4.7 4.4 -0.9 1.9-2.1 3.8-3.4 5.5 -2.1 2.6-8 4.1-8.1 6.4 -0.2 3.8-0.5 9 1.8 12.2 4.2 6-3.6 2.7-4.8-0.5 -4.6-12.1-16.9-7.9-18.8 3.5 -1.1 6.5 1 12.4 6.8 15.8 4.2 2.5 10.4 3.5 14-0.6 0.5 5.9 3.2 13.2 9 15.6 4.9 2.1 11.3 0.3 16.1-1.2 8.1-2.6 5.6 10.4-2.7 7.9 2.9 1.4 6.4 1.6 9.4 0.5 1-0.4 5.8-3.7 5.8-0.3 0 5.8-8.1 8.5-12.5 6.8 3.5 6 7.8 9.3 14.8 9.3 4.7 0-1.6 3.7-2.7 4.1 -2.7 0.9-6.3 1.2-8.6-1 1.6 1.8 4.4 5.4 7.1 5.5 3.4 0.2-2.4 2.6-4.1 2.4 -1.9-0.3-3.5-1.2-4.8-2.7 -1.7 0.5-3.5 0.8-5.3 0.8 -3.8 0-7.6-1.3-10.3-4.2 0.6 2.6 6.2 5.1 2.9 6.6 -4.6 2.1-10.4-0.8-13.9-3.7 0.5 0.9 3 2.9 1.6 3.9 -2.3 1.7-5.7 0.5-7.6-1.1 -0.8 4.2-10 0.2-12.4-0.5 -1.5-0.4-3.1-0.9-4.6-1.4 -0.6 2-3.2 2.4-5 2.4 -2.7 0-7.3-2.6-9.1-0.8 -2.9 2.9-10.5-3-12-5.4 0.3 1.3 4.2 6.1 4.2 6.2 -0.2 1.8-6-0.1-6.7-0.5 0 1.5-1 1.7-2.2 1.4C418.6 230.7 420.1 232.2 417.2 232.2zM411.5 228.5c3.8 3.3 5.1 2 8.3 1.5 3 1.4 1.9 0.6 3.2-0.7 0.3-0.3 4.9 1.2 5.8 1.1 -2.5-0.9-6.1-12.1-1.9-6.1 1.3 1.9 10.3 8.6 11.3 3.6 2.9 0.5 13.2 4.6 13.3-0.6 2.7 0.8 18.6 6.9 16.8 1 1.5 1.6 6.1 4.5 8.2 2.1 -1.4-0.9-2.3-3.1-2.9-4.5 0.2-0.1 0.4-0.3 0.6-0.4 0.6 0.6 15.5 9.6 15.5 4.1 -0.4-1.1-3.4-2-4.1-4.1 -0.4-1.2-0.5-2.4-0.6-3.7 3.2 4.6 7.9 6.6 13.4 6 1.1-0.1 2.8-0.8 3.7-0.5 1.7 2.1 6.4 4.1 8.8 1.8 -2.4-0.8-9.2-4.4-9.1-7.6 0-0.3 5.2 2.1 6.4 2.1 2.6 0 6-0.9 7.6-3 -4.6-0.9-7.8-0.1-11.6-3.7 -2.5-2.3-4.4-5.2-5.9-8.2 4.2 2.3 13.5 1.5 13.5-5.1 0-0.7-16.4 5-16.4-0.8 0 0 14.2 0.6 8.2-6.9 -0.7-0.8-12.4 2.4-13.7 2.6 -9.3 0.9-14.2-7.5-15.5-15.6 -5.6 4.5-14.9 0.6-18.7-4.5 -4.1-5.6-3.2-14.7 0.7-20.2 10-14 19.5 10.3 22.6 7.3 -4.4-4.4-4.2-11.3-3.5-17.2 5.2 1 9-5.2 11-9.1 1.5-2.8 4.4-3.5 6.1-6.8 0.2 0.1 0.5 0.2 0.7 0.3 -0.9 2 0.3 3.8 2.5 3.7 2.7-0.1 4.6-3 5.9-5 2.1-3.5 5-4.3 7.3-7.9 0.7 1.9 1.7 4.5 4.5 1.8 0.2 0.2 0.3 0.4 0.5 0.6 -2 1-2.2 3.1 0.3 3.1 2.5 0 5.3-2 7-3.7 2.7-1 4.9 0.5 6.9-2.7 1.3-2.1 1.8-4.9 1.9-7.4 0-1.8 1.8 2.1 1.8 2.1 1.3 3.2 2 7 3.7 10.1 0.9 1.7 2.5 2.4 4.1 1 2.6-2.2 0.2-7.7-0.8-10.1 2.2 0.1 7 3.1 7.8-2.1 0.3-2-6.3-5.4-7.7-7.4 -4.7-6.9-9.7-12.9-16.6-17.7 -8.2-5.8-18.8-10.4-29-11.2 0.5-1.5 2.6-1 3.5-2.8 1-2.1-0.3-4.9-1.8-6.4 -2.7-2.7-3.3 0.3-4.3 2.3 -1.3 2.5-4.3 3.4-6.9 3.7 -6.9 0.7-13.8-1.8-20.7-2 -7.3-0.2-14.7 0.5-21.8 2.3 -14.4 3.6-29.7 11.5-39.5 22.9 0-1.4-0.6-13.8-3.6-10.2 -3 3.6-1.2 9.1 1.1 12.6 -5.6-2.1-6.1 3.4 0 3.3 -12 11.8-16.6 29.3-19.2 45.4 -2 12.2-2.6 24.5-2.9 36.9 -0.1 2.8-5.2 12.9-4 14.7 1.6 2.6 4.2-4.3 4.3-5.2 0.3 0 0.5 0 0.8 0 0 1.9-0.1 14.9 4.4 12.7 1.8-0.9 2.9 3.2 4.3-0.1 1.4 4.8 5.6 13.9 11.2 15.2C402.5 225.9 406.6 229.6 411.5 228.5z" class="r"/><path d="M411.4 229.3c-3.5 0-6.9-13.1-5.9-13.2C405.8 216.2 409.6 229.3 411.4 229.3z" class="r"/><path d="M383.2 210.2c-2.8 0-4.2-21.5-3.4-21.6C381 188.7 381.2 210.2 383.2 210.2z" class="r"/><path d="M386.9 211.1c0.5 0 0-7.5 0.3-7.6C388.3 203.3 388.9 211.1 386.9 211.1z" class="r"/><path d="M501.9 227.7c-1.5 0-8.9-8.8-7.8-9.4C494.4 218.1 501.8 227.7 501.9 227.7z" class="r"/><path d="M496.2 79.8c-0.7 0-9.3-0.9-9.2-1.6C487.1 76.7 497.4 79.8 496.2 79.8z" class="r"/><path d="M461.3 160.9c2.3-0.9 5.4-0.6 7.2 1.2 3.1 3.1-1.3 2.2-2.7 3.8 -3.4 3.7-0.8 10.6 3.8 11.7C459.9 182.9 452.5 164.1 461.3 160.9 465.6 159.2 457.8 162.1 461.3 160.9z" class="o"/><path d="M464.4 171.7c-0.3-3.4 0.7-7.4 5-7 -0.7 4 2.3 5.7 2.3 9C471.7 180.4 464.9 176 464.4 171.7 464.2 169.5 464.7 174.2 464.4 171.7z" class="o"/><path d="M464.4 171.7c-0.3-3.4 0.7-7.4 5-7 -0.7 4 2.3 5.7 2.3 9C471.7 180.4 464.9 176 464.4 171.7 464.2 169.5 464.7 174.2 464.4 171.7z" class="o"/><path d="M466.7 178.6c-9.1-0.2-14.2-16.7-4.2-18.5 2.3-0.4 5.2 0.2 6.7 2.2 1.4 2-0.1 4.5 0.8 6.7C471.5 172.9 473.7 178.6 466.7 178.6zM464 160.8c-9.8 0-6.6 17.1 2.7 17.1 3.9-0.3 5.6-3.3 3.5-6.6C467.7 167.2 471 160.8 464 160.8z" class="k"/><g class="h"><path d="M493.3 79.1C494.8 79.3 492.8 79.1 493.3 79.1 493.4 79.1 493.3 79.1 493.3 79.1z" class="q"/><path d="M540.4 121.4c0.1 0.3 0.1 0.6 0.2 0.9 -0.2-0.9-0.5-1.7-0.7-2.6C540 120.3 540.2 120.8 540.4 121.4 540.4 121.7 540.2 120.9 540.4 121.4z" class="q"/><path d="M513.2 125.5c0.3-0.2 0.4-0.3 0.4-0.3S513.5 125.3 513.2 125.5z" class="q"/><path d="M495.1 79.3c-0.4-0.1-0.9-0.1-1.3-0.2C494.1 79.2 494.5 79.2 495.1 79.3z" class="q"/><path d="M495.6 126.4c0.1-0.2 0.1-0.2 0.1-0.2S495.7 126.2 495.6 126.4z" class="q"/><path d="M511 117.7c0.2-0.4 0.3-0.7 0.3-0.7S511.2 117.3 511 117.7z" class="q"/><path d="M536.7 112.7c1.6 2 4.1 4.3 6.9 3.6 1.6-0.4 2.9-1.6 1.6-3.2 4.2 1.2-1 9.8-6.1 4.6 0.2 0.6 0.5 1.3 0.7 1.9 -0.4-0.9-3.4-8.3-4.3-8.3C535.9 111.8 536.3 112.2 536.7 112.7 540.5 117.6 533.3 108.5 536.7 112.7z" class="q"/></g><path d="M418.9 88.2c0 0 19.9-17.4 48.4-11.1C495.8 83.4 454.8 70.8 418.9 88.2z" style="fill:#F8BB1F;opacity:0.2"/><path d="M541.4 216.1c0.7-1.6 1.5-3.1 2.2-4.7 0.6 1.8 1.9 0.3 2.9 0.4 -0.4 0-5.9 7.1-6.8 8.1C540.3 218.7 540.8 217.4 541.4 216.1z" class="l"/><path d="M536.2 226.5c1.1-1.8 2.1-3.7 2.9-5.4C538.8 221.9 537.9 224.1 536.2 226.5z" class="l"/><path d="M540.4 218.4c1.4-4.8 2.4-10.1 2.1-15.1 -0.1-2.5 3.1-16.8-2.8-13.8 0-2.1 5.6-9.9 7-4.9 -5.1-1.3-2 12.6-1.7 15.1C545.7 205.6 542.7 213.2 540.4 218.4z" class="o"/><path d="M539.2 220.9C538.9 221.5 539.2 220.8 539.2 220.9 539.2 221 539.2 220.9 539.2 220.9z" class="j"/><path d="M539.1 221.5c-0.5 0-0.4-1 0.1-1C539.8 220.4 539.6 221.5 539.1 221.5z" class="k"/><path d="M427.4 329.5c-0.8-12.3 0.3-24.8 0.8-37.1 0.6 3.6-2.3 19 1 20.9 0.9 0.5 1.8-3 1.8-3.1 -1.9 10-2.7 20.2-4.9 30.1C426.8 336.8 427.6 333.1 427.4 329.5 427.1 325 427.5 331.6 427.4 329.5z" class="o"/><path d="M431.1 310.2c0.8-4.1 1.7-8.4 2.6-12.8C433.2 301 432.2 306.7 431.1 310.2z" class="j"/><path d="M431.1 310.6c-0.4 0 1.7-13.8 2.7-13.6C434.4 297.1 432.4 310.6 431.1 310.6z" class="k"/><path d="M423.4 356c0.4-2.7 0.9-5.4 1.4-8.1 -0.3 1.7-0.6 3.4-0.9 5 0.5-0.5 1.2-0.8 1.9-0.7 -0.5 1.7-3.2 7.7-1.2 9.3 0 0 7.1 0.4 8 0.6 5.9 1.7 11.5 4.4 17.7 4.8 12.1 0.9 24.2-1.4 36.2-1.2 5.3 0.1 10.8 1.8 15.9-0.1 6-2.2 5.3-6.4 4.7-12.2 2.8-1.2 3.3-4.6 6.5-5.6 0.3 0.7 2.4 5.5 4.1 4 2.2-2-0.5-4.3 2.8-5.1 2.3-0.6-0.1-6.8-0.5-8.8 1 4.6 3.8 11.7 2.7 16.5 -0.8 3.5-5.6 2.4-7.9 4.9 -6.9 7.6-17.6 7.5-27.2 8.4 -15.8 1.4-31.9 2.1-47.4-1.5 -3.9-0.9-9.6-4-13.7-3.6 -0.9 0.1-0.9 1.8-1.7 1.2C422.6 362.5 423.1 358.1 423.4 356 423.8 353.9 422.3 363.1 423.4 356z" style="fill:#E4A3C8;opacity:0.7"/><g class="s"><path d="M518.8 347.2c0-1.9-0.2-3.8-0.5-5.7 -0.6-3.7 0.6-1.5 1.3-4.7C520.4 340.4 523.7 346.8 518.8 347.2 518.8 345 520.1 347.1 518.8 347.2z" class="n"/><path d="M518.4 347.6c0-3.9-2.9-9.3 1.5-10.9C520.9 341 524.8 347.4 518.4 347.6zM518.2 339.3c0.6 2.4 0.9 4.9 0.9 7.4 3.6-0.4 0.9-6 0.3-8.7C519.1 338.5 518.7 338.9 518.2 339.3z" class="n"/></g><g class="s"><path d="M429.3 345.7c0.4 1.2 2.9 4.7 0.2 4.4 -1.2-0.1-2.6-0.3-3.3 1.1 -0.8 1.8-1.3 0.6-2.4 1.9C424.7 348.6 423.8 343.7 429.3 345.7 430.4 349.2 427.4 345 429.3 345.7z" class="n"/><path d="M424.2 353.2c-1.5-2.1 0-12.1 5.4-7.9C435.3 349.9 425.9 351.2 424.2 353.2zM425.7 345.5c-0.4 2.2-0.8 4.4-1.2 6.7 1.5-0.6 1-1.5 2.4-2.3 1.3-0.7 2.4 0.2 3.6-0.2C430.4 347.3 428.3 344.6 425.7 345.5z" class="n"/></g><path d="M519.9 338.1c0 0 0 0 0 0C519.9 338.1 519.9 338.1 519.9 338.1z" class="a"/><path d="M519.6 338.2C520.2 338 520.2 338 519.6 338.2L519.6 338.2z" fill="#231F20"/><g class="s"><path d="M510.8 340.4c0.8 2.6 1.7 5.1 2.8 7.5 -3.2 1-3.7 4.4-6.5 5.6C506.5 348.1 503.8 342.3 510.8 340.4 511.8 343.7 508.9 340.9 510.8 340.4z" class="n"/><path d="M506.8 354.1c-0.4-3.4-2.8-8.8-0.2-11.6 5.6-5.8 5.5 1.3 7.6 5.7C510.5 349.1 510.1 352.9 506.8 354.1z" class="n"/></g><path d="M521 357c-0.1 0-16.5-84.3-17.3-84C505.2 272.4 521.9 357 521 357z" class="m"/></svg>