<svg version="1.1" xmlns="http://www.w3.org/2000/svg"   viewBox="0 0 768 430" enable-background="new 0 0 768 430" xml:space="preserve"><path fill-rule="evenodd" clip-rule="evenodd" fill="#DDE4D0" d="M345.7 131.6c0.9 0.3 2 0.1 3 0.1 8 0 16 0 24.4 0 0 1.8 0 3.3 0 4.7 0 17.4 0 34.9 0 52.3 0 4.6 1.8 6.4 6.4 6.5 2.7 0.1 5.3 0 8 0 5.3 0 6.9-1.7 6.9-7 0-17.6 0-35.1 0-52.7 0-1.2 0-2.4 0-3.9 1.2 0 2.1 0 2.9 0 8 0 16 0.1 24-0.1 1.7 0 3.3-1.2 5-1.9 -0.7-1.7-1.4-3.5-2.2-5.2 -0.2-0.4-0.6-0.6-0.9-0.9 -12.5-12.3-25.1-24.6-37.6-36.9 -0.6-0.6-1.3-1.1-2-1.7 -13.6 13.4-27.2 26.6-40.6 39.9 -1.1 1.1-2.1 3.4-1.7 4.6C341.8 130.6 344.1 131.1 345.7 131.6zM341.9 250.5c-11.2 0-16.8 10.4-16.8 21.9 0 11.2 6.1 21.3 16.8 21.3 10.8 0 16.8-9.9 16.8-21.8C358.7 261.4 353.2 250.5 341.9 250.5zM470 198.4c0-3.2-0.9-4.9-3.6-6.5 -19.5-11.3-38.8-22.9-58.2-34.3 -0.8-0.5-1.7-0.9-3-1.6 0 4.8 0.1 9.2-0.1 13.6 -0.1 2 0.7 3 2.3 3.9 10.7 6.3 21.4 12.6 32.1 18.9 0.8 0.5 1.6 1 2.5 1.7 -0.6 0.4-0.9 0.7-1.3 1 -18.3 10.9-36.7 21.7-55.1 32.5 -1.1 0.6-3.2 0.3-4.4-0.4 -17.6-10.3-35.2-20.7-52.8-31.1 -0.9-0.6-1.8-1.2-3-1.9 1.3-0.8 2.3-1.5 3.3-2.1 10.4-6.2 20.8-12.3 31.2-18.5 1-0.6 2.3-1.8 2.3-2.7 0.2-4.7 0.1-9.5 0.1-14.9 -1.7 1-2.7 1.5-3.8 2.1 -19.3 11.4-38.6 22.8-57.9 34.2 -2.2 1.3-3.2 2.7-3.2 5.4 0.1 31.2 0.1 62.4 0 93.7 0 2.2 0.7 3.4 2.5 4.5 27.1 15.9 54.1 31.9 81.1 48 1.8 1.1 3.1 1.2 5.1 0.1 27-16.1 54-32 81.1-48 1.9-1.1 2.6-2.2 2.6-4.4C469.9 260.4 469.9 229.4 470 198.4zM341.4 299.2c-13.9 0-23.6-10.8-23.6-26.7 0-16.7 10.4-27.6 24.4-27.6 14.4 0 23.6 11 23.6 26.6C365.9 289.6 354.9 299.2 341.4 299.2zM413.4 276.5c0 16.1-8.5 22.8-19.9 22.8 -10.8 0-18.9-6.2-18.9-22.5v-31h6.9v31.1c0 11.8 5.2 16.8 12.2 16.8 7.8 0 12.8-5.1 12.8-16.8v-31.1h6.9V276.5zM458.1 251.6h-16.1v46.8h-6.9v-46.8h-16v-5.8h38.9V251.6z"/></svg>