<svg version="1.1" id="Layer_1" xmlns="http://www.w3.org/2000/svg" xmlns:xlink="http://www.w3.org/1999/xlink" viewBox="0 0 768 430" xml:space="preserve">
<path fill="#DDE4D0" d="M345.7,100.6c0.9,0.3,2,0.1,3,0.1c8,0,16,0,24.4,0c0,1.8,0,3.3,0,4.7c0,17.4,0,34.9,0,52.3
	c0,4.6,1.8,6.4,6.4,6.5c2.7,0.1,5.3,0,8,0c5.3,0,6.9-1.7,6.9-7c0-17.6,0-35.1,0-52.7c0-1.2,0-2.4,0-3.9c1.199,0,2.1,0,2.899,0
	c8,0,16,0.1,24-0.1c1.7,0,3.3-1.2,5-1.9c-0.7-1.7-1.399-3.5-2.2-5.2c-0.199-0.4-0.6-0.6-0.899-0.9C410.7,80.2,398.1,67.9,385.6,55.6
	c-0.6-0.6-1.3-1.1-2-1.7C370,67.3,356.4,80.5,343,93.8c-1.1,1.1-2.1,3.4-1.7,4.6C341.8,99.6,344.1,100.1,345.7,100.6z M341.9,219.5
	c-11.2,0-16.8,10.4-16.8,21.9c0,11.199,6.1,21.3,16.8,21.3c10.8,0,16.8-9.9,16.8-21.8C358.7,230.4,353.2,219.5,341.9,219.5z
	 M470,167.4c0-3.2-0.9-4.9-3.6-6.5c-19.5-11.3-38.801-22.9-58.2-34.3c-0.8-0.5-1.7-0.9-3-1.6c0,4.8,0.1,9.2-0.101,13.6
	c-0.1,2,0.7,3,2.301,3.9c10.699,6.3,21.399,12.6,32.1,18.9c0.8,0.5,1.6,1,2.5,1.7c-0.6,0.4-0.9,0.7-1.3,1
	C422.4,175,404,185.8,385.6,196.6c-1.1,0.601-3.2,0.301-4.399-0.399c-17.6-10.3-35.2-20.7-52.8-31.1c-0.9-0.6-1.8-1.2-3-1.9
	c1.3-0.8,2.3-1.5,3.3-2.1c10.4-6.2,20.8-12.3,31.2-18.5c1-0.6,2.3-1.8,2.3-2.7c0.2-4.7,0.1-9.5,0.1-14.9c-1.7,1-2.7,1.5-3.8,2.1
	c-19.3,11.4-38.6,22.8-57.9,34.2c-2.2,1.3-3.2,2.7-3.2,5.4c0.1,31.2,0.1,62.399,0,93.7c0,2.199,0.7,3.399,2.5,4.5
	C327,280.8,354,296.8,381,312.9c1.8,1.1,3.1,1.199,5.1,0.1c27-16.1,54-32,81.101-48c1.899-1.1,2.6-2.2,2.6-4.4
	C469.9,229.4,469.9,198.4,470,167.4z M341.4,268.2c-13.9,0-23.6-10.8-23.6-26.7c0-16.7,10.4-27.6,24.4-27.6
	c14.4,0,23.6,11,23.6,26.6C365.9,258.6,354.9,268.2,341.4,268.2z M413.4,245.5c0,16.1-8.5,22.8-19.9,22.8
	c-10.8,0-18.9-6.2-18.9-22.5v-31h6.9V245.9c0,11.8,5.2,16.8,12.2,16.8c7.8,0,12.8-5.101,12.8-16.8V214.8h6.9V245.5z M458.1,220.6
	H442V267.4h-6.9V220.6h-16v-5.8H458v5.8H458.1z"/>
</svg>
