<svg xmlns="http://www.w3.org/2000/svg" viewBox="0 0 768 430"><style>.a{fill:#FFF;}.b{fill:#454641;}.c{fill:#211B16;}.d{fill:#CDD7CE;}.e{fill:#FFB888;}.f{fill:#5B79A3;}.g{fill:#EFD7A7;}.h{fill:#A2CCE4;}.i{fill:#FDFFE9;}.j{fill:#FFEDDC;}.k{fill:#374C7D;}.l{fill:#EA965D;}.m{fill:#38120D;}</style><path d="M178.9 255.2c70 0 140 0 210.1 0 44.9 0 89.9 0 134.8 0 12.5 0 25.1 0 37.6 0 2.2 0 4.4 0 6.6 0 -0.2 0 2.2 7.6-0.9 7.6 -69.6 0-139.3 0-208.9 0 -42.8 0-85.7 0-128.5 0 -12.9 0-25.8 0-38.8 0C181.3 262.8 178.9 265.7 178.9 255.2z" fill="#82867C"/><path d="M557.1 400.6c-2.7-6.1-3.8-17.4-11.2-17.4 -9.1 0-18.2 0-27.4 0.1 -35.4 0.1-70.8 0.1-106.1 0.2 -34.7 0.1-69.4 0.1-104.1 0.2 -9.5 0-19.1 0-28.6 0.1 -8.4 0-8.9 10.4-12 17.4C364.1 401 460.6 400.8 557.1 400.6z" class="a"/><path d="M318.8 285.4c62.4-0.1 124.8-0.3 187.2-0.4 -1.2-2.7-5.8-17.4-8.3-17.4 -5.2 0-10.5 0-15.7 0 -23.2 0-46.4 0.1-69.6 0.1 -23.2 0-46.4 0.1-69.6 0.1 -5.2 0-10.5 0-15.7 0C324.7 268 320 282.7 318.8 285.4z" class="a"/><path d="M523 323.5c-1.6-3.6-5-17.4-9.1-17.4 -6.5 0-13 0-19.6 0 -26.8 0.1-53.6 0.1-80.4 0.2 -27.2 0.1-54.3 0.1-81.5 0.2 -7 0-13.9 0-20.9 0 -5.3 0-7.9 13-9.8 17.4C375.5 323.8 449.3 323.6 523 323.5z" class="a"/><path d="M540 362c-2.1-4.8-4.2-17.4-10.1-17.4 -7.9 0-15.8 0-23.7 0.1 -30.8 0.1-61.5 0.1-92.3 0.2 -31.1 0.1-62.2 0.1-93.3 0.2 -8.3 0-16.6 0-25 0.1 -7 0-8.4 11.8-10.9 17.4C369.8 362.4 454.9 362.2 540 362z" class="a"/><path d="M520.6 135.2c-1.4 0-2.8 0-4.2 0 0.6 36.7 0.6 73.5-0.1 110.2 7.6 0.8 4.2-10.5 4.1-16.2 -0.1-11.8-0.2-23.7-0.2-35.5C520.1 174.2 520.3 154.7 520.6 135.2 519.9 135.2 520.3 148.7 520.6 135.2z" class="b"/><path d="M503 102.2c-4.7 0-9.4-0.1-14.1-0.3 0 0.5 0 0.9 0 1.4 16.9-1.4 18 16.8 13.6 28.7 8.5-0.1 5.3-5.6 5.2-13C507.6 112.1 511 102.3 503 102.2 502.9 102.2 504.4 102.2 503 102.2z" class="b"/><path d="M488.9 40.6c0-0.1 10.7 3 12.9 5.8 5.3 6.9 3.5 15.9 0.8 23.4 7.6-0.1 5-4.6 5.1-10.9 0.1-6.2 0.2-12.4 0.3-18.6C506.2 40.3 488.9 39.6 488.9 40.6z" class="b"/><path d="M502 101.1c2.3-8.3 4.4-19.5-3.4-25.8C496.1 79.5 492.9 101.1 502 101.1 502.3 100 501.9 101.1 502 101.1z" fill="#FFBD18"/><path d="M501.1 69.8c7.6-0.1 0.8-22.4-2.5-25C493.7 52.8 494.9 62.8 501.1 69.8 501.5 69.8 501.1 69.7 501.1 69.8z" fill="#D90018"/><path d="M499.2 74.5c8.6 6.4 6.3 18.2 3.1 26.7 8.5-0.1 5.2-6.5 5.2-13.8 0-5.5 0-10.9 0-16.4 -6.2 0-12.5-0.1-18.7-0.3 0 0.5 0 0.9 0 1.4C492.4 71.6 496.4 72.2 499.2 74.5 501.1 75.9 499.2 74.4 499.2 74.5z" class="b"/><path d="M504.2 120.9c0.2-5.2-1.4-10.8-5.6-14.2 -2.6 4.4-5.7 25.4 3.5 25.3C503.1 128.3 504 124.7 504.2 120.9 504.2 119.5 504.1 123.7 504.2 120.9z" fill="#A8D80F"/><path d="M531.7 46.2c-4.3 0.3-3.6 18.8 0 19C531.3 58.9 531.3 52.5 531.7 46.2 531 46.2 531.6 48.4 531.7 46.2z" class="c"/><path d="M531.8 126.1c-0.5-6.3-0.5-12.7 0-19C528.3 107.3 527.7 125.9 531.8 126.1 531.6 123.8 531.1 126 531.8 126.1z" class="c"/><path d="M523.4 132.9c-3.5 0.1-7 0.1-10.5 0.1 0 0.5 0 1.1 0 1.6C515.8 134.6 523.3 135.8 523.4 132.9 522.6 132.9 523.4 133.1 523.4 132.9z" class="c"/><path d="M529.7 95.6c0.7 0 1.4 0 2.1 0 -0.5-6.3-0.5-12.7 0-19C527.7 76.9 529.7 91.2 529.7 95.6 530.5 95.6 529.7 93.1 529.7 95.6z" class="c"/><path d="M508.3 40.3c0.6 30.5 0.7 61.1 0 91.6 6.8-0.1 13.7 0 20.6 0.2 -0.5-30.7-0.5-61.4 0.1-92.1C522.1 40.2 515.2 40.3 508.3 40.3 508.4 44.5 508.7 40.3 508.3 40.3z" class="b"/><path d="M500.1 48.1c1.5 0 1.5 4.3 0 4.3C498.7 52.5 498.7 48.1 500.1 48.1z" class="a"/><path d="M500.1 79.8c1.5 0 1.5 4.3 0 4.3C498.7 84.1 498.7 79.8 500.1 79.8z" class="a"/><path d="M500.1 111.4c1.5 0 1.5 4.3 0 4.3C498.7 115.7 498.7 111.4 500.1 111.4z" class="a"/><path d="M528.8 126c-0.4-28.7-0.4-57.3 0.2-86 -6.3 0.2-3.1 12.3-3 18 0.3 10.9 0.5 21.8 0.4 32.7 -0.1 9.5-0.2 19.1-1.3 28.5 -0.3 2.4-0.6 4.9-1.5 7.1 -2.7 4.7-15.2 1-15.3 5.5 6.8-0.1 13.7 0 20.6 0.2C528.8 130.1 528.8 128.1 528.8 126 528.7 120.7 528.8 126.4 528.8 126z" class="c"/><path d="M507.6 70.9c-5.7 0-11.4-0.1-17-0.3 5.8 0.9 12 1.5 17 4.8C507.6 73.9 507.6 72.4 507.6 70.9 505.6 70.9 507.6 72.4 507.6 70.9z" class="c"/><path d="M503 102.2c-4.1 0-8.2-0.1-12.3-0.3 5.8 1.1 11.9 2.4 17 5.7C509.4 102.5 507.8 100.7 503 102.2 502.9 102.2 504.4 102.2 503 102.2z" class="c"/><path d="M494.6 40.1c4.7 0.8 9.5 2 13.3 5.1C508 37 501.4 40.3 494.6 40.1 499.5 41 498 40.2 494.6 40.1z" class="c"/><path d="M520.6 135.2c-1.4 0-2.8 0-4.2 0 0.1 4.9-1.8 6.3 4.1 6.5C520.5 139.5 520.5 137.3 520.6 135.2 519.9 135.2 520.5 137.4 520.6 135.2z" class="c"/><path d="M517.4 242.1c-0.4 0-0.4-98.5 0-98.5C517.8 143.6 517.8 242.1 517.4 242.1z" class="d"/><path d="M511.6 126.3c-0.4 0-0.4-83.3 0-83.3C512.1 43 512.1 126.3 511.6 126.3z" class="d"/><path d="M499.5 67.8c1.2 1.8 1 2 2.7 2 1.1-4 2.1-8.2 2-12.4C503.9 61.2 502.5 65.1 499.5 67.8 499.9 68.3 502.4 65.2 499.5 67.8z" fill="#9F0018"/><path d="M498.7 97.1c0.5 0.7 2.1 4 3.3 4 0.9-3.3 1.8-6.7 2.1-10.1C502.9 93.6 501.1 95.6 498.7 97.1 498.8 97.3 501.1 95.6 498.7 97.1z" fill="#DD9918"/><path d="M498.5 128.2c0.9 1.5 1.8 3.8 3.6 3.7 0.9-2.9 1.5-5.9 1.9-9C502.7 125.2 500.9 127 498.5 128.2 498.7 128.4 500.9 126.9 498.5 128.2z" fill="#78BA0F"/><path d="M529.6 101.4c0-5.7 2.8-4.2 2.9-11.2 0.1-4.5 0-9-0.3-13.5 -0.2-4-2.6 3.8-2.7-6 -0.1-2.8 9.6-25.4-0.3-25.5 -0.1-7.7-0.7-5.9-8-6 -8-0.1-16-0.1-24 0.1 -19.3 0.3-4.6 1.1 1 5.3 -6.1 7.8-4.9 18.4 2 25.3 -3.8 0.1-12.8-2.3-12.6 2.7 3.6-0.3 7.8 0.4 10.7 2.7 -6.1 7.9-5 19.5 2.8 26 -3.9 0.1-13.6-2.4-13.4 2.7 3.7-0.3 7.7 0.4 10.7 2.7 -3.4 4.4-6.9 26.5 3.5 26.5 8.2 0 14.2-0.5 14.1 7.8 -0.2 11.4-3.9 104.2 0.3 105 8.9 1.7 4.9-21.9 4.9-28.7 0.2-20.7 0.1-41.4-0.1-62.1 0-4.6-2.5-19.8 2.4-19.9 -0.8 0 5.8-4.4 5.8-2.9 0.1-5.3 3.3-7.8 3.3-15.9C532.6 108.2 529.6 106.6 529.6 101.4 529.7 99.9 529.6 101.6 529.6 101.4zM531.7 76.6c-0.5 6.3-0.4 12.7 0 19C528 95.4 528.2 76.9 531.7 76.6 531.6 78.8 531.1 76.7 531.7 76.6zM531.7 46.2c-0.5 6.3-0.4 12.7 0 19C528.2 65 527.5 46.4 531.7 46.2 531.6 48.4 531 46.2 531.7 46.2zM497.3 42.7c-2.6-1.3-5.6-1.6-8.5-1.4 0-0.5 0-0.9 0-1.4 6.4 0.2 12.7 0.3 19.1 0.3 -0.1 6.2-0.3 12.4-0.3 18.6 -0.1 6.3 2.5 10.8-5.1 10.9C505.8 61.1 507.7 47.6 497.3 42.7 494.6 41.4 497.9 43 497.3 42.7zM500.9 69.5c-6.1-6.9-7.1-16.9-2.3-24.8 4.2 3.3 5.7 9 5.6 14.2C504.1 60.4 502.7 71.6 500.9 69.5 500.1 68.6 501 69.6 500.9 69.5zM497.3 73.3c-2.6-1.3-5.6-1.6-8.5-1.4 0-0.5 0-0.9 0-1.4 6.2 0.2 12.5 0.3 18.7 0.3 0 5.5 0 10.9 0 16.4 0 7.3 3.3 13.7-5.2 13.8C505.6 92.3 508 78.4 497.3 73.3 494.6 72 497.9 73.6 497.3 73.3zM500.9 100.2c-6.1-6.9-7.1-16.9-2.3-24.8 4.2 3.4 5.7 9 5.6 14.2C504.1 91.1 503.7 103.2 500.9 100.2 500.1 99.2 501.2 100.5 500.9 100.2zM500.9 131.5c-6.1-6.9-7.1-16.9-2.3-24.8 4.2 3.3 5.7 9 5.6 14.2C504.1 122 503.1 134 500.9 131.5 500.1 130.6 501 131.6 500.9 131.5zM502.5 131.9c4.4-11.8 3.3-30.1-13.6-28.7 0-0.5 0-0.9 0-1.4 4.7 0.2 9.4 0.3 14.1 0.3 7.7 0.1 4.6 5.1 4.7 11.5 0.1 6.1 0.1 12.1 0.2 18.2C506.1 131.9 504.3 131.9 502.5 131.9 503.6 128.8 504.2 131.9 502.5 131.9zM520.6 245.4c-1.4 0.1-2.9 0.1-4.3 0 0.6-36.7 0.7-73.5 0.1-110.2 1.4 0 2.8 0 4.2 0C520 171.9 520 208.6 520.6 245.4 520.3 245.4 520.4 235.8 520.6 245.4zM523.5 134.6c-3.5-0.1-7.1-0.1-10.6 0.1 0-0.5 0-1.1 0-1.6C515.9 133.1 523.3 131.4 523.5 134.6 522.8 134.6 523.4 134.2 523.5 134.6zM531.7 107.1c-0.5 6.3-0.4 12.7 0 19C527.7 125.9 528.3 107.3 531.7 107.1 531.6 109.3 531.1 107.1 531.7 107.1zM528.6 106c0.1 8.7 0.2 17.4 0.3 26.1 -6.8-0.2-13.7-0.3-20.6-0.2 0.6-30.5 0.5-61.1 0-91.6 6.9 0 13.8-0.1 20.7-0.3C528.5 62 528.4 84 528.6 106 528.6 106.4 528.6 104.7 528.6 106z" class="c"/><path d="M443.7 199.6c-5.4-0.7-4.7 3.1-4.3 6.6 0.5 3-4.1 3.2-6.1 3.7 -0.5-7-0.9-14.1-2.3-21 -1.4-7-0.7-10.3-8.1-8.9 -5.2 1-7-1.4-11-4.9 -4.6-4-11 4.4-16.7 3.7 -3.2-0.4-12.5-7.1-14-5.8 -4 3.5-7 7.9-12.6 6.9 -6.9-1.3-6.6 0.1-8.2 7 -1.8 7.5-2.2 15.3-2.7 23 -1.5-0.4-6.5-0.9-6.3-3.2 0.5-3.5 1.4-7.7-4.1-7.2 -13.6 0 8.4 24.5 6 15.5 10.6 41.7 74.6 39.3 84.3-1.3 -0.3 1.3-0.6 2.5-0.9 3.8C441.5 216.1 453.8 199.6 443.7 199.6 442.8 199.5 443.7 199.6 443.7 199.6z" class="e"/><path d="M439.2 170.7c-0.1 0.7-0.2 1.5-0.2 2.2 -1.3-3 1.4-7.8 3.3-9.8 -0.1 0.1-5.3-2.1-3.5-1.4 -7.2-2.8-10.3-6.4-17.6-3.8 4.6-3.1 12.7-4.6 15.7-9.2 -17.1-3.5-40.6-3.7-57.9-0.6 4.3-1.1 8.7-4.8 3.5-10.1 -8.9 7.7-16.7 17.4-22.1 27.8 0.4-1.4 0.9-2.7 1.5-4 -6.4-0.9-13.3-0.4-19.1 2.6 3.6 2.9 6.3 7 4.5 11.7 -1.3 3.1-4.9-1.2-7.3-0.2 0.8 4.9 6.9 4.5 7.7 10.4 0.5 4.3 0.4 8.5-0.1 12.8 3.4 0 4.4 5.1 5.2-0.1 0 4.6-2.6 10 4.3 9.8 0.2-4.4 0.5-8.9 1.1-13.3 0.7-5.4 6.6-16.4 1.8-17.5 3.6 0 7.5 0.8 11.1 1.3 3.3 0.5 11.7-6.5 8.7-8.4 4.7 1.9 9.2 4.6 14 6.4 2.9 1.1 5.1-0.4 7.9-1.4 4.5-1.6 10.2-1 5.3-5.5 8.6 7.9 13.4 8.9 24.4 7.7 -4.5 1.6 1 11.5 1.7 17 0.6 4.4 1.1 9.1 1.1 13.6 6.5-1.7 4.7-3.5 4.2-9.8 1.2 3.6 5.3 0.7 5-2.4 -0.3-4.2-0.7-9 0.8-13 1.2-3.3 5-3.1 6.4-5.5C446.5 176.1 442.9 173.3 439.2 170.7 439 171.3 440.4 171.5 439.2 170.7z" fill="#612E0F"/><path d="M389.9 322.3c0.5-0.9 1.2-1.7 1.9-2.4 -0.9-0.3-1.6-0.8-2.3-1.6 6 2.5 3.2-4.3 1.1-4.3 8.3-6.1-16.7-6.1-20.8-7.1 0 12.7 5.8 36.3 20.1 40.5 -1.9-10-5.7-18.4 3.1-27.1C391.7 319.6 390.7 320.3 389.9 322.3 390 322.2 390.7 321.3 389.9 322.3z" class="f"/><path d="M389.8 347.8c2.1 6.2-2.9 13-8 15.9 5.7-1.2 10.3-9.2 8.9-14.8C390.8 349.4 390.2 347.3 389.8 347.8 389.9 348.1 389.9 347.8 389.8 347.8z" class="g"/><path d="M395.3 317.9c-2 1.3 1.1 4.1 2.3-1.6C396.8 316.9 396.1 317.4 395.3 317.9 394.9 318.2 396 317.5 395.3 317.9z" class="f"/><path d="M394.6 311.9c0.7-0.5-1.9 1.2-1.8 1.5 4.9 1.4 5.6-0.6 6.8-4.6 -2.6 0.1-5.2 0-7.7 0 0.2 1.3 0.5 2.6 0.8 3.9 1.9-1.3 3.9-2.5 6-3.6C397.2 310 395.9 310.9 394.6 311.9 394.2 312.2 395.4 311.3 394.6 311.9z" class="f"/><path d="M397.9 315.2c0.6-2.5-3.2-1.2-5-1.2 0.3 1.4 0.7 2.7 1.1 4.1C395.3 317.2 396.6 316.2 397.9 315.2 397.9 315 397.5 315.5 397.9 315.2z" class="f"/><path d="M393.8 319.8C393.1 317.9 394.1 320.4 393.8 319.8 393.7 319.6 393.9 319.8 393.8 319.8z" class="f"/><path d="M363.2 267.4c3.6 1.2 7.3 2.3 11.1 2.8 2.7-8.5 5.6-17 9.6-25 -7.6-1.9-7-4.4-12.5 1.7 -4.9 5.5-10.1 11.7-13.4 18.3C359.3 266.2 362 267.1 363.2 267.4 364.3 267.8 363.2 267.4 363.2 267.4z" class="h"/><path d="M386.7 355.2c0.5 0.5 0.9 1 1.4 1.5 1.4-2.6 2.3-5.8 1.7-8.7 -1.4 2.2-3.6 4.2-6 5.3C384.8 353.7 385.8 354.4 386.7 355.2 387.2 355.6 386 354.5 386.7 355.2zM386.1 352.4c1 0 1.4-0.5 1.3-1.4 -0.5 1.2 1.7 0.4 2.1 0.6 -1.1-0.7-1.6 1.6-1.7 2.1C387.8 351.8 384.7 353.2 386.1 352.4 386.3 352.3 385.7 352.6 386.1 352.4z" class="h"/><path d="M398.4 283.2c-1-1.8-4.9-3.1-6.6-4.1 2 0.6 3.8 1.5 5.6 2.5 0.9-6-1.9-4.7-7.9-7.4 2.4 0.6 4.8 1.3 7.1 2.2 0.1-5.5-4.8-5-9.3-5.7 -4.5-0.7-4.2 10.4-5.1 14.7 0.2-1.3 0.1-2.7 0.3-4.1 -5.8 3-15.6 5.1-21.8 1.7 4.3 4.6 9.1-9.8 11.5-12.5 -3.2-0.4-6.5-1.3-9.5-2.5 -1.9 3.1-3.5 6.6-5.2 9.8 -1.6 3-6.5 10.5-5.8 14.3 3.9 4.2 23.9-1.4 29.1-2.4 -0.3-0.2-0.5-0.4-0.8-0.7 1.8 0.7 3.8 3.1 5.7 2.8 0.7-0.1 8.5-1.7 5.1-3.6 1 0 3.5 0.6 3.5 2 -3.1 0-0.6-1.8-3.2 0.5 1.3 0.6 2.5 1.2 3.7 1.9 2.6-5.9 2.8-6.3-4.3-9.5 2.4 0.6 4.8 1.8 6.8 3.3C397.1 286.9 398.5 283.5 398.4 283.2 398.4 283.1 398.4 283.2 398.4 283.2z" class="e"/><path d="M415.7 351.6c-1.5-1.4-1.9 0.6-2.9 2 2.8 1.8 5.4 4.4 7.2 7.1C424 357.8 418.3 354.2 415.7 351.6 415.6 351.5 416.6 352.5 415.7 351.6z" class="i"/><path d="M422.9 298c-1.7-9.1-3.9-18.3-6.8-27.2 -2.7-9.1-4-25.9-14.6-24.6 -5.5 0.7-10.9 0.4-16.3-0.7 -2.7-0.7-5.1 9.1-6 11.5 -3.1 8.7-5.8 17.5-8 26.4 3.8-0.5 7.8-1.2 11.4-2.6 0.1-1.1 1-10.8 2.6-10.8 3.2-0.1 8.3-0.3 11.1 1.6 2.3 1.5-0.5 4.1 1.9 5.1 2.3 1.1 0.7 18.4-5.4 15.3 -2.5-1.3-12.7-1.9-15.6-1.3 -7.1 1.5-12.5 4.6-9.7 13.7 1.1 2.5 8 2.6 9.3 2.7 9.4 1.1 18.9 1.2 28.4 0.7C414.5 307.6 425 309.6 422.9 298 422.6 296.2 423.3 299.9 422.9 298z" class="i"/><path d="M428.1 263c1.3-1.2 3.3-2.5 4.8-3.6 -3.4-3.9-6.9-7.7-10.8-11.1 -6.3-5.5-6.9-5-15-3 4.1 8 7 16.7 9.7 25.2C420.6 268.2 424.4 265.7 428.1 263 428.1 263 427.4 263.5 428.1 263z" class="h"/><path d="M415.4 350.4c2.1 2 5.5 5.3 7 8.4C426.6 355.5 418.8 346.7 415.4 350.4z" class="i"/><path d="M418.7 307.5c-7.8 1.2-17.9-2.2-19.6 6 0.8 0 1.5 0.2 2.3 0.2 -2.9 1.3-2.8 2.8-3.8 5.8 1.5-0.6 2.8-1.3 4.1-2.3 -1 1.2-2.2 2.1-3.6 2.8 1 0.1 1.9 0.4 2.8 0.8 0 0.6-3.5-0.5-3.6-0.5 9.9 10 11.8 25 11.8 38.4 1.7-3.9 6.2-7.5 7-11.3 2-13.5 4.7-26.6 5.1-40.3C420.4 307.2 419.6 307.3 418.7 307.5 413.9 308.3 419.3 307.4 418.7 307.5z" class="f"/><path d="M448.5 297.9c-1.9-2.4-4-4.6-6.3-6.5 3.1 1.8-2.1-7.6-2.8-9.2 -3-6.5-6.6-12.8-10.8-18.5 -2.3 1.7-4.7 3.4-7.2 4.8 8 8.8 14 19.1 18.5 30 -4-6.2-9.8 11.3-0.3 8.3 -0.1-1.1-0.1-2.6-0.8-3.5 1.2 2.3 1.8 3.6 1.1 6.2 -0.1-0.8-0.1-1.7-0.2-2.5 -2.3 1.1-4.4 5.8-0.1 5.3C446 311.4 453.8 304.7 448.5 297.9 447.7 296.9 448.9 298.5 448.5 297.9z" class="e"/><path d="M409.5 359.5c-1.3 2.9 1.4 6.7 4.9 4.9C412.4 363.2 410.7 361.5 409.5 359.5 409.4 359.8 410 360.3 409.5 359.5z" class="i"/><path d="M413.2 354.5c-3.5-3.1 3.5 7.3 4.1 8.3 0.8-0.5 1.6-1 2.3-1.6C417.5 358.8 415.5 356.5 413.2 354.5 413 354.3 414 355.2 413.2 354.5z" class="i"/><path d="M422.1 352.2c1.1 1.3 2.2 2.6 3 4.1 3.7-4-3.2-12.1-7.5-8.2C419.3 349.3 420.8 350.7 422.1 352.2 423.6 353.9 420.6 350.4 422.1 352.2z" class="i"/><path d="M409 363.1c-0.8-0.8-2.1 3.7 2.7 2.3C410.8 364.8 409.9 364 409 363.1 409 363.1 409.3 363.3 409 363.1z" class="i"/><path d="M411.4 357.1c-1.5-1.3-0.4 9.8 5.4 5.9C415.1 360.9 413.3 359 411.4 357.1 411.2 357 412.1 357.8 411.4 357.1z" class="i"/><path d="M425.1 349.7c0.9 1.1 1.7 2.2 2.3 3.4 3.2-5.5-1.3-10.3-6.8-7.2C422.4 347.1 423.7 348.1 425.1 349.7 426.5 351.3 423.7 348 425.1 349.7z" class="i"/><path d="M387.4 357.8c1.5-2.4-9.5-9.2-11.9-0.5C372.5 368.3 384.8 361.9 387.4 357.8 387.6 357.4 385.7 360.5 387.4 357.8z" class="i"/><path d="M351 201.7c-5.2-4.3-6.7 1.7-6.5 2.7C345.1 202.8 346 199.8 351 201.7z" class="j"/><path d="M439.7 201.4c5.2-4.3 6.7 1.7 6.5 2.7C445.6 202.5 444.7 199.5 439.7 201.4z" class="j"/><path d="M397.1 211.3c-0.4-0.5-1.1-0.6-1.8-0.6 0.6-0.1 1.2-0.2 1.8-0.3 -1.6 0-2.7 0.1-4.2 0.7 1.2 0 2.6 0.5 3.7 0.6 -1.4 0.6-2.7 1.8-4.1 2.3C392.5 214 398.1 212.5 397.1 211.3 397.1 211.2 397.3 211.4 397.1 211.3z" class="j"/><path d="M411.1 219.9c6.7-0.4 5.2 5.7 5.2 5.7S415.4 220.7 411.1 219.9z" class="j"/><path d="M392.6 312.7c1.9-1.3 3.9-2.5 6-3.6 -0.6 0.3-6 3.6-5.9 4.3 4.9 1.4 5.6-0.6 6.8-4.6 -2.6 0.1-5.2 0-7.7 0C392.1 310.1 392.3 311.4 392.6 312.7 392.7 312.6 392.3 311.4 392.6 312.7z" class="k"/><path d="M398 314.7c0.3-1.6-3.8-0.6-5.1-0.6C393.4 316.3 397.5 317 398 314.7 398 314.5 398 314.9 398 314.7z" class="k"/><path d="M353.4 286.5c-5.4 12.6 20.7 4.5 27.5 3.2C374.5 284.5 357 298.5 353.4 286.5 353.3 286.7 356.3 296.1 353.4 286.5z" class="l"/><path d="M393.5 291c-0.4-0.3-0.2-1.3-1.3-2 -0.2 0.7-0.6 1.2-1.1 1.7 1.3 0.6 2.5 1.2 3.7 1.9 0.6-1.3 2.1-3 2.5-4.5C396.4 289.7 395.2 290.7 393.5 291z" class="l"/><path d="M391.1 274.6c1.9 0.5 3.8 1.1 5.6 1.8C396.8 272.8 394.3 273.2 391.1 274.6 391.4 274.6 393.1 273.7 391.1 274.6z" class="l"/><path d="M381.4 289.7c3.6 2.1 7.6 3 10.7-0.8C391.9 288.8 383 290 381.4 289.7 381.5 289.8 385 290.4 381.4 289.7z" class="l"/><path d="M439.5 306.3c-0.2-1.1-2.8 0.5-2.8-1.1 0.6 1.5 0.2-12.2 1.8-9.3 -0.9 1.5-5.2 7-4.6 8.7C434.5 305.7 439.9 308.7 439.5 306.3 439.5 306.2 439.5 306.4 439.5 306.3z" class="l"/><path d="M439.4 310.6c0-1.5 0.4-2 0.2-3.6 -2.3 1.1-4.4 5.8-0.1 5.3 4.4-0.5 14.1-5.4 10.9-11.7C448.5 305.2 445.7 311.8 439.4 310.6 439.4 310.1 445.6 311.8 439.4 310.6z" class="l"/><path d="M440.2 307.4C440.2 309.3 440.8 309.2 440.2 307.4 440.2 307.6 440.4 308 440.2 307.4z" class="l"/><path d="M389.7 348c-1 1.1-1.7 2.3-2.1 3.7 0.1 0.3 1.4-0.3 1.8-0.1 -1.1-0.7-1.6 1.6-1.7 2.1 0-2.3-2.1-0.1-2.7 0.2 1.2 0.7 2.2 1.6 3 2.7C389.5 354.1 390.4 350.9 389.7 348 389.5 348.4 390 349.2 389.7 348z" fill="#618EA2"/><path d="M419.9 360.6c0.2 0.3 4.3-5.6-1.7-2.2C418.8 359.1 419.3 359.8 419.9 360.6 420 360.6 419.5 360 419.9 360.6z" class="g"/><path d="M421 356.4c0.5 0.8 1 1.6 1.4 2.4 2.8-2.2 2.8-1.6 0.5-4.4C422.3 355.1 421.7 355.8 421 356.4 421.6 357.2 421.7 355.8 421 356.4z" class="g"/><path d="M408.9 360.8c-0.9 2.3 3.5 4.6 5.5 3.6C412.3 363.1 411.4 360.9 408.9 360.8 408.9 360.9 409.4 360.8 408.9 360.8z" class="g"/><path d="M417.1 362.4c0.7 1.1 1.4-0.2 2.5-1.3 -1-2.6-2.5-3.1-4.5-1.3C415.7 360.6 416.4 361.5 417.1 362.4 417.2 362.5 416.6 361.7 417.1 362.4z" class="g"/><path d="M425.1 351c-1.7 4.3-2 1.8 0 5.4C427.8 354.6 427.8 352.8 425.1 351 424.7 352 425.9 351.9 425.1 351z" class="g"/><path d="M409 363.1c-0.8-0.8-2.1 3.7 2.7 2.3C410.8 364.8 409.9 364 409 363.1 409 363.1 409.3 363.3 409 363.1z" class="g"/><path d="M412.5 362c2.6 2.3 2.1 2.5 4.3 1C415.3 361.3 409 358.9 412.5 362 413.7 363 412.1 361.6 412.5 362z" class="g"/><path d="M427.6 346.3c-0.5-0.6-1.1-1-1.8-1.2 -1.2 3.2-0.7 5.8 1.7 8.1C428.9 350.9 429 348.6 427.6 346.3 427.3 345.9 428.5 347.4 427.6 346.3z" class="g"/><path d="M375.4 357.8c-2.8 13 15.1 1.7 12.4-1.4C384.2 358.8 379.4 359.2 375.4 357.8 375.3 358.4 379.7 359.3 375.4 357.8z" class="g"/><path d="M380.5 289.4C382.1 289.7 379 288.2 380.5 289.4 380.7 289.5 380.4 289.3 380.5 289.4z" class="m"/><path d="M451.1 300.3c-1.1-2.4-3.9-4.9-5.7-6.5 -2.7-2.3-3-6.2-4.3-9.5 -3-7.5-7.3-14.5-12.4-20.7 6.3-4.8 4.4-5.2-0.8-10.7 -1.6-1.7-11.1-12-13.6-11 6.6 5.5 12.8 11.1 18.6 17.6 -5.2 4-10.5 7.7-16.1 11.1 -0.8-2.4-8.2-26.5-10.3-26 6.7 12.9 10.6 28.2 14 42.4 4.8 19.6 3.4 20.3-15.3 21.2 -10.9 0.6-22 0.4-32.8-1.3 -13.1-2.7 0.7-22.8 10-15.8 2 1.5 12.9 1.8 13.3 1.1 1.4-2.2 5.2-8.6 2.2-10.2 1.2-4 0-10-4.7-11 -4.4-0.9-7.9-2.6-9.1 2 -2.4 9.4-2.7 9.3-12.8 10.7 3.4-13.2 7.1-26.9 13.3-39.1 -1.9-0.5-9.5 23.2-10.3 25.8 -5.3-0.8-11.6-2.1-16.3-4.9 4.3-8.6 11.3-17.4 18.6-23.5 -2.2-0.4-7.9 7-8.8 8.1 -5 5.9-15 14-5.2 18 -2.7 3.6-10.5 14.4-9.3 18.6 1.8-4.2 4-8.3 6.1-12.4 4.1-7.9 4.9-4.6 12.7-3.6 -2.3 2.7-7.3 17.1-11.5 12.5 6.2 3.3 16 1.3 21.8-1.7 -0.1 1.3-0.1 2.7-0.3 4.1 1.1-5 2-9.9 2.8-15 4.8 0.5 11.8 0 11.6 6 -2.3-0.9-4.7-1.6-7.1-2.2 5.9 2.7 8.8 1.4 7.9 7.4 -1.8-1-3.7-1.9-5.6-2.5 5.3 3.1 7.1 2.4 5.4 7.4 -2-1.6-4.3-2.7-6.8-3.3 7.1 3.2 6.9 3.5 4.3 9.5 -1.2-0.7-2.5-1.3-3.7-1.9 2.7-2.3 0.2-0.5 3.2-0.5 0-1.4-2.5-2-3.5-2 3.4 1.9-4.4 3.5-5.1 3.6 -1.8 0.3-3.4-2-5.2-2.4 -0.8-0.7-13.8 2.5-17.1 3 -2.9 0.4-8.8 2.3-11.4-0.1 -1.5-1.3 1.4-5 1.1-7.1 -5.1 11.9 6.6 8.4 15.2 7.2 -2.2 10.3 0.4 13.6 1.7 22.8 1.4 11.4 7.3 28.5 19.5 32.3 -1.8 2.3-24.5 11.9-11.2 16.1 7.5 2.3 16.4-8.5 12.4-15.3 -1.9-3.2-2.8-8.3-2.9-12.1 -0.1-2.9 6.4-21.2 9.5-16 8.8 10 10.6 23.9 11.4 36.6 0.2 2.1-2.7 8.3 0.1 9 7.2 1.8 24.7-12.8 20.2-18.4 -2.2-5.9-9.8-2-12.7 0.9 6.6-22.2 9.5-45.9 3.7-67.4 -0.9-3.4-1.9-6.9-3-10.3 4.5-2.1 3.4-3.4 7 1.4 4.9 6.8 9.5 13.9 13.5 21.4 3.8 7.1-10.2 8.9 0.7 13.8 -1.2 0.8-2.7 5.9-0.2 5.8C443.6 315.8 453.8 305.6 451.1 300.3 450.9 299.8 451.4 300.8 451.1 300.3zM371.7 271.8c0.4-1.3 1.2-1.7 2.4-1.1 -1.9 6.2-1.1 13.8-8.9 13.3 0.8-1.9 1.7-3.8 2.6-5.6M394.3 308.7c1.7 0 3.5 0.1 5.2 0 -1.2 4-1.9 6-6.8 4.6 -0.2-0.7 5.2-4 5.9-4.3 -2.1 1.1-4.1 2.2-6 3.6 -0.3-1.3-0.5-2.6-0.8-3.9C392.6 308.7 393.5 308.7 394.3 308.7zM384.7 352.8c2.1-1.2 3.8-2.8 5.1-4.8 0.6 2.9-0.3 6.1-1.7 8.7C386.9 355.1 382.7 353.8 384.7 352.8 385.4 352.4 384.4 352.9 384.7 352.8zM381 363.9c-8.3 1.1-6.9-12.4 0.3-11.1C390.2 354.4 387.7 360 381 363.9 380.9 363.9 381.2 363.8 381 363.9zM390 347.7c4.6 4.6-3.5 15-8.2 16C383.7 362.7 394.1 347.7 390 347.7 390.1 347.8 390 347.7 390 347.7zM390.2 324.1c-5.3 8.9-1.9 14.8-0.2 23.4 -14.3-4.4-20.1-27.8-20.1-40.5 4.1 1 29.1 1 20.8 7.1 2.2-0.1 4.9 6.7-1.1 4.3 0.7 0.7 1.4 1.3 2.3 1.6 -0.8 0.7-1.4 1.5-1.9 2.4 0.8-2.1 1.8-2.7 3.2-1.9C392.1 321.7 391.1 322.9 390.2 324.1 389 326.1 391.1 322.7 390.2 324.1zM393.7 320C391.3 319.8 394.4 320.1 393.7 320 393.7 320 393.8 320 393.7 320zM393.1 314.8c-0.4-1.8 4.3-0.7 5-0.6 -0.5 1.9-2.6 2.8-4.1 4C393.7 317.1 393.4 315.9 393.1 314.8 393 314.6 393.5 316.4 393.1 314.8zM396.9 319.7c-5.4 2-0.7-2.4 0.7-3.4C397.4 317.5 397.2 318.6 396.9 319.7 396.9 319.7 397.1 318.7 396.9 319.7zM410.4 365.7c-3 0.3-2.6-1.2-2-3.3C409.4 363.6 413.5 365.4 410.4 365.7 409.5 365.8 410.8 365.7 410.4 365.7zM412.6 365.2c-2.9-2.1-4.4-2.7-3.1-5.7 1.2 2.1 2.9 3.7 4.9 4.9C413.8 364.7 413.2 364.9 412.6 365.2 412 364.7 413.2 365 412.6 365.2zM416.3 363.3c-3 1.9-7.3-3.3-5.4-6.7C411.7 357.4 417.5 362.6 416.3 363.3 415.9 363.6 416.5 363.2 416.3 363.3zM419.5 361.2c-0.7 0.5-1.5 1-2.2 1.6 -2.3-3.6-7.6-4.6-4.7-8.8C413.6 354.8 419.7 361 419.5 361.2 418.8 361.7 419.5 361.1 419.5 361.2zM420 360.7c-1.8-2.8-4.4-5.4-7.2-7.1 0.7-0.9 1.4-1.8 2.1-2.7C417.8 353.4 424 357.8 420 360.7 420 360.7 420.7 360.3 420 360.7zM424.3 344.9c4.5 0.1 5.1 5 3.2 8.3 -1.6-3-4-5.4-6.8-7.2C421.9 345.6 423.1 345.2 424.3 344.9 425.1 344.9 423.1 344.8 424.3 344.9zM418.7 347.2c3.2-2.7 9.8 5.4 6.4 9.1C423.7 353.8 417.1 348.5 418.7 347.2 419.2 346.8 418.3 347.5 418.7 347.2zM417.3 348.4c3 2.9 9.7 6.9 5.1 10.4 -1.3-2.7-4.2-7.2-7.2-8.2C415.8 349.9 416.7 349 417.3 348.4 417.6 348.7 416.8 348.9 417.3 348.4zM420.9 314.5c-0.8 11.1-3.1 21.8-4.7 32.8 -0.9 3.9-5.4 7.5-7 11.3 0-13.4-1.9-28.4-11.8-38.4 0.1 0 3.6 1.1 3.6 0.5 -0.9-0.4-1.8-0.6-2.8-0.8 1.4-0.7 2.6-1.6 3.6-2.8 -1.4 1-2.6 1.7-4.1 2.3 1-3 0.9-4.5 3.8-5.8 -0.8 0-1.5-0.2-2.3-0.2 1.8-8.7 14.1-4.4 22.1-6.5C421.2 309.5 421 312 420.9 314.5 420.6 318 421 311.8 420.9 314.5zM450.5 301.8c-1.7 7.3-4.4 9.6-11.1 10.4 -4.3 0.6-2.2-4.1 0.1-5.3 0.1 0.8 0.2 1.7 0.2 2.5 0.8-2.6 0.1-3.9-1.1-6.2 0.7 0.9 0.7 2.5 0.8 3.5 -9.4 3-3.8-14.4 0.3-8.3 -4.5-10.9-10.6-21.2-18.5-30 2.5-1.4 4.9-3 7.2-4.8 3.2 4.4 6.1 9.2 8.7 14.1 1.2 2.3 7.6 15.1 5 13.6C444.3 293.2 451.4 298.7 450.5 301.8 450.4 302.2 450.7 301 450.5 301.8z" class="m"/><path d="M387.5 353.4c0.4 0.8 0.5-2.7 1.9-1.7 -0.5-0.2-2.6 0.6-2.1-0.6 -0.2 0.9-0.7 1.7-1.8 1.7C386.7 352.1 387.4 352.3 387.5 353.4 387.7 353.6 387.4 353.2 387.5 353.4z" class="m"/><path d="M450.9 177.5c-5.7-4-16.5-9.1-6.1-14.3 -4-4.3-12.4-5.6-17.7-7.5 3.3-1.4 9.4-3.3 10.5-7.1 -15.2-4.9-37.2-3.6-52.7-1.7 3.4-19.7-13.4-1.2-17.2 4.1 -6.5 9.1-2.4 9.1-13.2 9.1 -3.8 0-9.4 0.6-12.6 3.1 -2 3.6 6.2 6.5 4.5 12.5 -0.8 2.7-6.4-2.3-6.6 0.3 -0.1 3 0.9 3.6 3.1 4.7 4.9 2.4 4.1 11.5 4.3 16 0.2 5.3-7.2 7.2-2.4 14.6 1.6 2.4 4 4.4 6.6 5.6 4.7 2.1 5.1 7.7 8.1 12 11.9 17 35.8 22.2 54.5 14.2 9.9-4.2 17.7-12.1 21.6-22.1 2.3-5.9 10.1-5.4 12-12.6 0.7-2.7 0.5-7.4-2.6-8.8 -2.4-1.1-0.5-10.4-0.2-13C445.1 184.2 451.2 177.8 450.9 177.5 450.4 177.2 451 177.6 450.9 177.5zM444.4 199.8c9.7 3.5-2.9 16.3-7.6 17.8 0.3-1.3 0.6-2.5 0.9-3.8 -9.7 40.6-73.8 43.1-84.3 1.3 2.2 8-19.3-13.9-6.2-15.4 1.9-0.4 3.7 1 5.1 2.1 -1.1 7.1-0.7 6.5 5.5 8.3 0.4-5.5 0.9-32.2 7.6-30.7 6.6 1.4 7.1 1.2 12.5-3.3 6.4-5.4 8.3-0.3 15.6 2.4 5 1.8 12.1-3 16.7-4.8 2.4 2.2 6.6 7.6 10.2 6.9 8-1.5 8-2.5 10.1 5.8 1.9 7.7 2.4 15.7 2.9 23.6 2-0.6 6.6-0.8 6.1-3.7C438.9 202.7 438.9 198 444.4 199.8 445.4 200.2 444.2 199.7 444.4 199.8zM450.2 178.6c-6.3 6.2-7.7 7.4-6.9 18 0.3 3.1-3.8 6.1-5 2.4 0.5 6.3 2.3 8.1-4.2 9.8 0-2.9-0.3-5.9-0.6-8.8 -0.4-4.5-1.1-8.9-2.3-13.2 -1.3-4.6-5.3-6.7 0-8.6 -11.1 1.1-15.8 0.1-24.4-7.7 4.5 4.1 2 2.9-2.1 4.3 -2.8 1-6.4 3.4-9.4 3 -5.6-0.6-10.5-4.8-15.7-6.9 3 2-5.4 8.9-8.7 8.4 -3.5-0.6-7.4-1.3-11.1-1.3 4.8 1.1-1 12.1-1.8 17.5 -0.6 4.4-0.9 8.9-1.1 13.3 -6.8 0.1-4.3-5.3-4.3-9.8 -0.8 4.9-1 1-4 0.2 -1.7-0.4-0.7-10.6-1-13 -0.9-5.9-7-5.5-7.7-10.4 1.7-0.7 6.1 2.7 7 0.8 2.6-4.7-0.6-9.5-4.2-12.3 5.8-3.1 12.7-3.5 19.1-2.6 -0.6 1.3-1 2.7-1.5 4 5.4-10.4 13.2-20.1 22.1-27.8 5.2 5.3 0.8 9-3.5 10.1 17.3-3 40.9-2.9 57.9 0.6 -3 4.7-11.1 6.2-15.7 9.2 6.5-2.3 7-0.6 13.2 2 -0.7-0.3 7.6 3.4 7.9 3.1 -2 1.9-4.6 6.9-3.3 9.8C438.4 167.3 449.7 179.1 450.2 178.6 449.6 179.2 450.3 178.5 450.2 178.6z" class="m"/><path d="M362.9 191c3.2-2.7 18.9-6.5 20.7-0.2C380 183.2 366.4 183.9 362.9 191 364.3 189.8 362.9 191.1 362.9 191z" class="m"/><path d="M428.1 191c-5-7.2-15.5-7.4-20.7-0.2C410.9 187.3 426.2 185.2 428.1 191 427 189.5 428.1 191.1 428.1 191z" class="m"/><path d="M398.5 215.6c-1.7-2.6-5-1-6.3 0.7 0.8-1 1.8-1.4 3.2-1.3C395.6 215 399.2 216.5 398.5 215.6 398.3 215.2 398.8 215.9 398.5 215.6z" class="m"/><path d="M397.7 216.2c-1.4-0.6-4-0.7-5.2 0.4C393.6 216.1 399.5 216.9 397.7 216.2 397.2 215.9 398.2 216.4 397.7 216.2z" class="m"/><path d="M372 194.1c3 0 3 15.7 0 15.7S369 194.1 372 194.1z" class="m"/><path d="M372 196.1c1 0 1 4.4 0 4.4C371 200.6 371 196.1 372 196.1z" class="a"/><path d="M419 194.1c3 0 3 15.7 0 15.7S416 194.1 419 194.1z" class="m"/><path d="M419 196.1c1 0 1 4.4 0 4.4S418 196.1 419 196.1z" class="a"/><path d="M414.2 223.4c-0.6-1.7-2.3-1.8-3.8-1.5 0.6 0.2 1.2 0.4 1.7 0.7 -4.4 4.4-8.3 6.8-14.7 7.5 -3.9 0.4-8.1 0.3-11.7-1.5 -7.4-3.7-1-3.1-2.6-4.8 -1.7 0.7-1.5 1.4-2.9 2.8 1.1-1.4 12.5 4.7 17.5 4.3 4.5-0.4 13.9-2.4 15.5-7.6C413.7 223.8 414.8 225.7 414.2 223.4 414.1 223 414.2 223.5 414.2 223.4z" class="m"/><path d="M349 209.3c-0.3-0.3 3.6-6.6-1.9-3.7 -3 0.1 3.2 0.1 2.6 0.8 -3 4.9-1.9 1.2 1.1 4.7C350.2 210.5 349.6 209.9 349 209.3 348.9 209.2 349.5 209.8 349 209.3z" class="m"/><path d="M441.6 206.1c0.7-0.3 1.4-0.4 2.2-0.4 -5.8-1.8 0.3 3.1-3.6 5.5C444 209 441.8 206 441.6 206.1 441.9 206 441.5 206.1 441.6 206.1z" class="m"/></svg>