<svg xmlns="http://www.w3.org/2000/svg" viewBox="0 0 768 430"><style>.a{fill:#FFAD03;}.b{fill:#FFBD00;}.c{fill:#E37A00;}.d{fill:#6D2D01;}.e{fill:#7F3401;}.f{fill:#471C00;}.g{fill:#F2B370;}.h{fill:#ED9538;}.i{fill:#8E3D03;}.j{fill:#FECA8B;}.k{fill:#FEDFB9;}.l{fill:#FFEAD1;}.m{fill:#EE9D46;}.n{fill:#FFC703;}.o{fill:#E36100;}.p{fill:#F29709;}.q{fill:#B85E00;}.r{fill:#DD8005;}.s{fill:#E5E4E3;}.t{fill:#FFF;}.u{fill:#0094E8;}.v{fill:#00BDFF;}.w{fill:#006EBF;}</style><path d="M373.7 318.3c0 0-0.1 20.9-4.6 22.2 -8.5 2.4-26.6-4.2-28.4 5.3 -0.8 6.3 5.5 7.8 6.9 7.8 -0.7 1.9 0.6 10 10.5 8.8 0.2 2.6 3.5 9.8 15.7 0.7 5.8-5 5.8-10.1 7.9-10.7 1.9-0.6 16.1 8.5 19.6-3.8 1.6-8-17.4-2.8-19.3-6.8 -0.5-3 4.2-12.9 6.5-15.8C382.3 323.6 373.7 318.3 373.7 318.3z" class="a"/><path d="M381.9 341.7c-0.3-1.9-1.1-7.3 0.8-11.1 -4.3-2.7-6.5-4.5-9.1-9 -0.2 6-1.2 17.9-4.5 18.9 -8.5 2.4-22.8-3.7-24.3 4.7 -0.8 6.3 3.5 5.6 4.9 5.6 -0.7 1.9 0 8.4 10 7.2 0.2 2.6 1.6 9.7 13.1 2.9 5.8-5 5.8-11.3 7.8-11.9 1.9-0.6 14 8 16.7-0.5C398.9 340.6 383.9 345.7 381.9 341.7z" class="b"/><path d="M363.7 367.8c-4.2 0-5.6-3.5-5.8-5.1 -0.6 0.1-1.2 0.1-1.8 0.1 -4.1 0-6.3-1.8-7.4-3.4 -1.4-1.9-1.7-4.3-1.4-5.6 -1.2-0.1-3.7-0.8-5.3-2.7 -1.3-1.4-1.8-3.2-1.5-5.4 0.9-4.9 6.1-5.5 10.6-5.5 2.1 0 4.3 0.2 6.5 0.3 2.1 0.1 4.3 0.3 6.3 0.3 2.2 0 3.9-0.2 5.3-0.6 4.3-1.3 4.5-21.8 4.5-22l0-0.4 0.3 0.2c0.1 0.1 8.6 5.3 14.7 7.6l0.3 0.1 -0.2 0.2c-2.4 3-6.9 12.7-6.5 15.6 0.8 1.5 4.4 1.5 8.2 1.6 4.4 0.1 8.9 0.2 10.5 2.3 0.6 0.8 0.8 1.8 0.6 3 -1.3 4.4-4.1 6.7-8.3 6.7 0 0 0 0 0 0 -3 0-6.2-1.1-8.5-1.9 -1.3-0.4-2.2-0.8-2.7-0.8 -0.1 0-0.1 0-0.1 0 -0.8 0.2-1.3 1.3-2 2.7 -1 2.1-2.5 5.1-5.8 8C369.8 366.2 366.4 367.8 363.7 367.8zM358.2 362.1l0 0.2c0.1 1.4 1.3 5 5.4 5 2.7 0 6-1.5 9.9-4.4 3.3-2.8 4.7-5.7 5.7-7.8 0.8-1.5 1.3-2.7 2.3-2.9 0.5-0.2 1.6 0.2 3.2 0.8 2.3 0.8 5.4 1.9 8.4 1.9 0 0 0 0 0 0 4.1 0 6.7-2.1 7.9-6.3 0.2-1.1 0-1.9-0.5-2.6 -1.6-1.9-6.2-2-10.2-2.1 -4.1-0.1-7.7-0.2-8.6-1.9l0-0.1c-0.5-3.1 4-12.6 6.4-15.7 -5.4-2.1-12.6-6.4-14.2-7.4 0 3-0.5 20.7-4.8 22 -1.4 0.4-3.1 0.6-5.4 0.6 -2 0-4.2-0.1-6.3-0.3 -2.2-0.1-4.4-0.3-6.4-0.3 -6.4 0-9.4 1.5-10.1 5.1 -0.2 2 0.2 3.7 1.4 5 1.8 2.1 4.7 2.5 5.3 2.5h0.3l-0.1 0.3c-0.3 0.8-0.2 3.3 1.3 5.4 1 1.5 3.1 3.2 7 3.2 0.6 0 1.3 0 1.9-0.1L358.2 362.1z" class="c"/><path d="M404.8 320.9c0 0-5.2 28 10.5 30.8 3.4 0.7 7.7-1.6 7.7-12.4 3.9 6.1 12 12.5 18.3 8.7 3.9-2.5 3.2-8.4 2-9.3 3.4 2.4 22.8 10.7 30-1.8 5.7-12.3-19.2-12.7-21.4-17.9C439.4 319.3 404.8 320.9 404.8 320.9z" class="d"/><path d="M404.8 320.9c0 0-5.2 22.4 10.5 25.2 3.4 0.7 6.2-4 3.9-15.4 3.9 6.1 12.3 16 18.6 12.2 3.9-2.5 0.5-8.3-0.6-9.2 3.4 2.4 22.7 8.5 29.1-1.1 2.5-6.1-12.2-8.4-14.5-13.6C439.4 319.3 404.8 320.9 404.8 320.9z" class="e"/><path d="M416.4 352C416.4 352 416.4 352 416.4 352c-0.4 0-0.8 0-1.1-0.1 -3.2-0.6-5.8-2.3-7.7-5 -6.1-8.8-3-25.9-3-26l0-0.2 0.2 0c0.3 0 34.8-1.6 47-1.9l0.2 0 0.1 0.1c0.8 1.8 4.6 3 8.6 4.4 5.4 1.8 11.6 3.9 13.3 7.9 0.7 1.7 0.6 3.7-0.4 5.8 -2.6 4.6-7 6.9-13.1 6.9 -6.8 0-13.6-2.9-16.4-4.4 0.3 0.8 0.5 1.9 0.4 3.1 -0.1 1.5-0.6 4.1-3 5.7 -1.3 0.8-2.7 1.2-4.2 1.2 -5.2 0-10.7-4.6-14-9.4 -0.1 4.1-0.8 7.2-2.1 9.3C419.6 351.5 417.7 352 416.4 352zM405 321.1c-0.3 1.8-2.7 17.4 2.9 25.5 1.8 2.6 4.3 4.3 7.4 4.8 0.4 0.1 0.7 0.1 1 0.1 1.2 0 2.9-0.4 4.3-2.5 1.4-2.1 2.1-5.4 2.1-9.8v-0.8l0.4 0.6c3.1 4.7 8.7 9.8 14 9.8 1.4 0 2.8-0.4 4-1.1 2.3-1.5 2.8-4 2.8-5.4 0.1-1.7-0.4-3.2-0.8-3.6l0.3-0.4c1.8 1.3 9.4 4.9 16.9 4.9 5.9 0 10.2-2.2 12.7-6.6 1-2 1.1-3.8 0.4-5.4 -1.6-3.8-7.7-5.9-13-7.7 -4.2-1.4-7.8-2.6-8.8-4.5C439.8 319.5 407.7 321 405 321.1z" class="f"/><path d="M402.8 321.9c0 0-7.3 7.4-16.9 5.3 -13.4-3-15.7-7.9-20.7-32.6C367.5 297.5 402.8 321.9 402.8 321.9z" class="g"/><path d="M389.4 327.8c-1.2 0-2.4-0.1-3.5-0.4 -13.7-3.1-15.9-8.2-20.9-32.8l-0.2-0.9 0.6 0.7c2.3 2.9 37.3 27 37.6 27.2l0.2 0.2 -0.2 0.2C402.9 322.1 397.2 327.8 389.4 327.8zM365.5 295.3c4.9 23.7 7.1 28.6 20.4 31.7 1.1 0.3 2.3 0.4 3.5 0.4 6.8 0 12-4.5 13.1-5.4C399.3 319.8 370.3 299.7 365.5 295.3z" class="h"/><path d="M346.7 236.1c0 0-5.7 21.7-21 21.4 -5.7-0.6-3.6-4.5-3.6-4.5 -3.6 3.6-21.6 20.7-17.4-3.8 -3.9 5.3-35.2 24.2-18.9-13.1 -3.6 0.6-21 1.8-37.3 16.8 -11.4 8.1-12 4.5-12.3 2.7s-3.3-15.3 16.2-27.1c-8.4 3.3-35.2 18.5-40.6 16.8 -1.2-6.5 0.6-17.1 19.5-29.1 -9.9 1.8-15 3-18.3 5 -3.3 2-17.4 9.9-18.3 1.6 -0.9-8 15-28.6 66.7-26.4 -3.6-5.6-6.3-25.1 11.7-34.5 -0.6 3.3 2.4 15 4.5 17.4 2.1 2.4 6.3 12.3 7.5 18.2 4.8 0.8 10.8 2 24.4 15.5 8.1-5.4 32.3-14.1 53.5-13.7C358.8 212 346.7 236.1 346.7 236.1z" class="d"/><path d="M309.5 212.9c-13.5-13.5-19.5-14.7-24.4-15.5 -1.2-5.9-5.4-15.8-7.5-18.2 -2.1-2.4-5.1-14.1-4.5-17.4 -18 9.4-15.3 28.8-11.7 34.5 -51.7-2.2-67.6 18.4-66.7 26.4 0.9 8.3 15 0.4 18.3-1.6 3.3-2 8.4-3.2 18.3-5 -18.9 12-20.7 22.5-19.5 29.1 5.4 1.7 32.2-13.5 40.6-16.8 -19.5 11.7-16.5 25.3-16.2 27.1 0.3 1.6 0.8 4.8 9.4-0.7 1.7-3.1 3.9-5.9 7-8 12.2-7.2 28.1-16.8 38.3-14 3.2 0.9-0.5 9 2.7 10.8 6.3 4.1 14-3.2 15.8-10.4 1.8 5.9 4.5 14.4 11.7 10.8 2.7-1.4 3.2-5.4 3.6-8.6 2.7 1.8 2.3 6.3 5 6.8 6.3 1.4 7.2-6.8 9.5-11.3 2.3-4.1 7.3-4.8 11.8-3.6 3.9-8.2 9.5-20.3 12.1-28.2C341.8 198.8 317.6 207.5 309.5 212.9z" class="e"/><path d="M287.2 227.1c5.2-0.9 8.6 1.4 12.6 3.2 5.4 2.3 10.4-0.9 13.1-5.9 2.3 2.7 5.4 7.2 9.5 5 2.3-1.8 1.4-5.9 3.2-6.8 2.7-0.9 6.3 4.5 9.5 2.3 5-2.7 5.9-9.9 12.2-10.4 3.2-0.5 6.2 0.2 9.2 1 2.6-5.8 5-11.7 6.5-16.2 -21.2-0.4-45.4 8.3-53.5 13.7 -13.5-13.5-19.5-14.7-24.4-15.5 -1.2-5.9-5.4-15.8-7.5-18.2 -2.1-2.4-5.1-14.1-4.5-17.4 -18 9.4-15.3 28.8-11.7 34.5 -51.7-2.2-62.7 17-62.8 25 0 3.7 15.2-3.7 18.5-5.7 3.3-2 13.1-2.6 19.7 0 -11 10.4-20.5 16.5-19.3 23.1 5.4 1.7 26.8-13.7 40.7-12.3 -14.1 8.5-20.2 26.5-16.1 24.1C257.6 241.5 263.6 231.4 287.2 227.1z" class="i"/><path d="M308 262.3c-1.1 0-2.1-0.4-2.7-1.2 -1.5-1.8-1.8-5.5-0.9-11.2 -2.9 3.1-11.9 8.9-17.9 8.9 0 0 0 0 0 0 -2.1 0-3.6-0.7-4.5-2.1 -2.1-3.3-1-10.1 3.5-20.4 -0.2 0-0.5 0.1-0.8 0.1 -5.2 0.7-21.1 2.9-36 16.6 -4.9 3.5-8.2 5.1-10.3 5.1 -2 0-2.3-1.6-2.4-2.6l0-0.2c-1-5.5-0.3-16 14-25.6 -2.5 1.1-5.6 2.7-9.1 4.4 -10.2 5.1-23 11.4-27.9 11.4 -0.4 0-0.8 0-1.1-0.1l-0.1 0 0-0.1c-1.8-9.8 4.5-19.5 18.7-28.7 -9 1.7-13.9 2.8-17.1 4.7 -2.7 1.6-9.5 5.3-14.1 5.3 -2.8 0-4.3-1.3-4.6-3.9 -0.3-2.8 1.3-6.5 4.4-10 4.5-5.1 19-16.9 55.1-16.9 2.3 0 4.6 0 7 0.1 -1.8-3.1-3.6-10.4-1.5-18.1 1.9-7 6.6-12.7 13.6-16.3l0.4-0.2 -0.1 0.5c-0.6 3.3 2.4 14.9 4.5 17.2 2 2.3 6.2 12 7.5 18.1 4.4 0.7 10.6 1.8 24.2 15.4 8.5-5.6 31.8-13.6 51.9-13.6 0.5 0 1.1 0 1.6 0l0.3 0 -0.1 0.3c-4.1 12.5-15.8 36-16.3 36.8 -0.2 0.8-6 21.5-20.9 21.5 -0.1 0-0.2 0-0.3 0 -2-0.2-3.3-0.9-3.9-1.9 -0.4-0.7-0.3-1.4-0.2-2 -3.1 3-9.4 8.6-13.6 8.6C308 262.3 308 262.3 308 262.3zM305.1 248.3l-0.2 0.9c-1 6-0.8 9.9 0.7 11.6 0.6 0.7 1.4 1.1 2.4 1.1 0 0 0 0 0 0 4.5 0 11.8-7 14-9.1l1.1-1.1 -0.7 1.3c0 0-0.7 1.4-0.1 2.5 0.5 0.9 1.7 1.5 3.5 1.7 0.1 0 0.2 0 0.3 0 14.7 0 20.4-21 20.5-21.2l0 0c0.1-0.2 11.9-23.8 16.1-36.5 -20.5-0.4-44.5 7.9-53.1 13.6l-0.2 0.1 -0.1-0.1c-13.8-13.8-19.8-14.7-24.2-15.4l-0.2 0 0-0.2c-1.2-6-5.4-15.8-7.5-18.1 -2-2.3-4.9-13.3-4.6-17.1 -6.7 3.6-11.1 9-12.9 15.8 -2.1 8-0.1 15.4 1.7 18.2l0.2 0.4 -0.4 0c-2.5-0.1-5-0.2-7.4-0.2 -35.9 0-50.3 11.7-54.8 16.7 -3 3.4-4.6 7-4.3 9.6 0.3 2.4 1.6 3.5 4.1 3.5 4.5 0 11.2-3.7 13.9-5.3 3.4-2 8.7-3.2 18.4-5l1.1-0.2 -1 0.6c-14.6 9.3-21.2 19-19.5 28.7 0.2 0.1 0.5 0.1 0.9 0.1 4.8 0 17.5-6.3 27.7-11.3 4.9-2.4 9.2-4.5 11.8-5.6l0.2 0.4c-16.4 9.9-17.2 20.9-16.2 26.6l0 0.2c0.2 0.9 0.4 2.2 2 2.2 1.9 0 5.3-1.7 10-5 14.9-13.8 30.9-16 36.2-16.7 0.5-0.1 0.9-0.1 1.2-0.2l0.4-0.1 -0.2 0.4c-4.5 10.3-5.7 17.2-3.7 20.3 0.8 1.3 2.2 1.9 4.2 1.9 0 0 0 0 0 0 6.3 0 16-6.7 18-9.4L305.1 248.3z" class="f"/><path d="M489.8 221.2c0 0-31.1-32-54.8-27.1 6.8 8 29.5 41.2 29.5 41.2s5.7 29.6 33.1-5.2C493 222.8 489.8 221.2 489.8 221.2z" class="e"/><path d="M487.9 225c0 0-25.2-31.2-48.9-26.2 6.8 8 25.6 36.5 25.6 36.5s5.7 29.6 33.1-5.2C493 222.8 487.9 225 487.9 225z" class="i"/><path d="M475.3 247.3h0c-8.3 0-10.8-11-11-11.9 -0.9-1.3-22.9-33.3-29.5-41.1l-0.2-0.3 0.4-0.1c1.7-0.3 3.4-0.5 5.3-0.5 22.3 0 48.7 26.6 49.7 27.6 0.4 0.2 3.4 2 7.9 8.9l0.1 0.1 -0.1 0.1C489 241.5 481.4 247.3 475.3 247.3zM435.5 194.3c7 8.4 29.1 40.6 29.3 40.9l0 0.1c0 0.1 2.3 11.5 10.5 11.5 5.9 0 13.3-5.6 22.1-16.7 -4.5-7-7.6-8.6-7.7-8.7l-0.1 0c-0.3-0.3-27-27.5-49.4-27.5C438.6 193.9 437 194 435.5 194.3z" class="f"/><path d="M362.4 194.8c0 0-26.2 22.4-19.2 57.8 7.8 35.5 39.1 80.6 89.6 73 26.5-10.5 38.8-30 37-73.3 -1.2-35.2-4.8-49.9-46.9-62.2C396.4 184.4 362.4 194.8 362.4 194.8z" class="g"/><path d="M418 312.2c18.5 2.7 35.6-2.2 41.9-22.4 -11.5-6.1-11.1-19.7-7.5-32.7 1.4-5 6.8-14.9 9.1-20.9 3.5-9.4 1.6-21.3-2.8-27.2 -6.7-7.7-17.7-13.5-35.9-18.8 -26.5-5.7-60.4 4.7-60.4 4.7s-26.2 22.4-19.2 57.8C346.3 266.8 359.8 303.3 418 312.2z" class="j"/><path d="M364.2 196.8c0 0-22.2 9.3-16.5 27 3.9-1.7 10.2-5.1 10.2-5.1 -5.7 7.5-4.4 16 1.4 23.9 1.3-4.4 5.1-9.9 9.3-13.6 -0.2 6.5 4.9 20.5 11.1 24.5 1.6-4.4 2.5-14 2.5-14 3 9.9 11.7 19.8 14.4 21.5 1.5-5.1 4.8-16 4.8-16 1.5 7.8 7 16 7 16 4.7-5.5 13.7-19.1 13.7-19.1 1.8 5.8 3.5 10.2 3.5 10.2 5.3-2.4 14.3-10.6 13.4-19.8 2.1 3.7 3.3 7.5 3.3 7.5 3.3-4.1 7.5-12.3 5.4-20.5 3.9 2.4 7.5 4.8 7.5 4.8 1.2-4.1 7.3-18-18.6-29.1C417.3 188.7 364.2 196.8 364.2 196.8z" class="g"/><path d="M421.7 326.7c0 0 0 0 0 0 -19.9 0-38.4-8.5-53.2-24.7 -12.2-13.3-21.6-31.3-25.5-49.3 -3.6-18.4 1.9-33.2 7.1-42.4 5.6-9.9 12.2-15.6 12.3-15.7l0.1 0c0.2-0.1 21.2-6.4 42.8-6.4 6.5 0 12.4 0.6 17.7 1.7 20.9 6.1 32.5 12.9 38.9 22.6 6.1 9.2 7.5 20.6 8.2 39.8 1.7 41.1-9 62.4-37.1 73.5l0 0C429.1 326.4 425.3 326.7 421.7 326.7zM362.5 195c-0.5 0.5-6.8 6-12.1 15.5 -5.2 9.1-10.6 23.8-7 42.1 6.5 29.6 32.8 73.7 78.3 73.7 0 0 0 0 0 0 3.6 0 7.3-0.3 11-0.8 27.8-11.1 38.5-32.3 36.8-73.1 -0.7-19.1-2.1-30.4-8.1-39.6 -6.3-9.7-17.9-16.4-38.7-22.5 -5.2-1.1-11.1-1.7-17.6-1.7C384.1 188.6 363.6 194.7 362.5 195z" class="h"/><path d="M364.2 196.3c0 0-22.2 8.2-16.5 23.8 3.9-1.5 10.2-4.5 10.2-4.5 -5.7 6.6-4.4 14.1 1.4 21 1.3-3.9 5.1-8.7 9.3-12 -0.2 5.7 4.9 18 11.1 21.6 1.6-3.9 2.5-12.3 2.5-12.3 3 8.7 11.7 17.4 14.4 18.9 1.5-4.5 4.8-14.1 4.8-14.1 1.5 6.9 7 14.1 7 14.1 4.7-4.8 13.7-16.8 13.7-16.8 1.8 5.1 3.5 9 3.5 9 5.3-2.1 14.3-9.3 13.4-17.4 2.1 3.3 3.3 6.6 3.3 6.6 3.3-3.6 7.5-10.8 5.4-18 3.9 2.1 7.5 4.2 7.5 4.2 1.2-3.6 7.3-15.9-18.6-25.7C417.3 189.2 364.2 196.3 364.2 196.3z" class="k"/><path d="M367.1 208.1c0 0.9 0 2.3-0.5 3.2 -1.8 3.2-5 5-5.4 8.6 3.6-2.3 7.7-4.1 11.7-5.9 0.9 5.4-1.4 10.8 0.9 16.2 0.5-5 2.7-9.5 6.8-12.6 0.5 0 1.8-0.5 1.8 0.5 -0.5 7.2 3.2 14 7.2 19.4 -0.5-5 1.8-9.5 1.8-14.4 3.6 4.1 6.8 9.9 13.1 9.9 0-5 0-10.4 0.5-15.3 5.4 4.5 11.3 14 17.6 9.5 3.2-2.3 0.5-9-0.9-13.5 2.7 2.3 6.3 3.6 9.9 3.6 -0.9-5.9-2.3-13.1-7.7-15.3 -5-1.8-11.7 0-17.6 1.8 -8.6 2.3-18.5 1.4-26.6-1.4 -5-1.9-9.9-3.9-14.8-6 -0.4 0.1-0.7 0.1-0.7 0.1s-21.9 8-16.7 23.4C351.5 213.4 359.8 209.3 367.1 208.1z" class="l"/><path d="M408.5 253.3l-0.2-0.2c-0.1-0.1-5.2-6.8-6.9-13.5 -0.8 2.3-3.3 9.7-4.5 13.4l-0.1 0.3 -0.2-0.1c-2.4-1.4-10.9-9.6-14.2-18.2 -0.3 2.3-1.1 8.3-2.4 11.4l-0.1 0.2 -0.2-0.1c-6.1-3.6-11.1-15.6-11.2-21.4 -4.1 3.3-7.7 7.9-8.9 11.6l-0.1 0.4 -0.3-0.3c-6-7.2-6.8-14.5-2.1-20.6 -1.9 0.9-6.3 2.9-9.3 4.1l-0.2 0.1 -0.1-0.2c-5.7-15.7 16.4-24 16.7-24.1l0 0c0.3 0 27.7-3.7 50.1-3.7 10 0 17.6 0.7 22.5 2.2 24.7 9.4 20.6 20.9 19 25.3 -0.1 0.2-0.2 0.5-0.2 0.7l-0.1 0.3 -0.2-0.1c0 0-3.4-2-7-4 1.7 6.7-1.9 13.7-5.6 17.7l-0.3 0.3 -0.1-0.3c0 0-1-2.8-2.8-5.8 0.2 7.9-8.6 14.8-13.6 16.8l-0.2 0.1 -0.1-0.2c0 0-1.6-3.8-3.3-8.6 -1.5 2-9.3 12.2-13.5 16.5L408.5 253.3zM382.1 233l0.3 1c2.9 8.6 11.3 16.9 14.1 18.7 1.5-4.6 4.7-13.8 4.7-13.9l0.3-0.8 0.2 0.8c1.3 6.1 5.9 12.6 6.8 13.8 4.7-4.9 13.4-16.5 13.5-16.6l0.3-0.3 0.1 0.4c1.5 4.4 3 7.9 3.4 8.8 5.1-2.1 13.9-9.2 13-17.1l-0.1-1 0.5 0.8c1.7 2.7 2.8 5.4 3.2 6.3 3.6-4.1 7-11 5.1-17.6l-0.1-0.5 0.5 0.3c3.3 1.8 6.4 3.6 7.3 4.1 0-0.1 0.1-0.3 0.1-0.4 1.5-4.2 5.6-15.5-18.7-24.7 -4.9-1.4-12.4-2.1-22.4-2.1 -22.1 0-49 3.6-50 3.7 -0.8 0.3-21.7 8.4-16.5 23.3 3.9-1.5 9.9-4.4 10-4.4l1-0.5 -0.7 0.8c-5.2 6-4.7 13.2 1.2 20.4 1.4-3.8 5.1-8.5 9.3-11.8l0.4-0.3 0 0.5c-0.2 5.4 4.7 17.5 10.7 21.3 1.5-3.9 2.4-11.9 2.4-12L382.1 233z" class="h"/><path d="M326 143.8c0 0-12.6 18.3-9 27.7 1.5 3 4.2-1.5 4.2-1.5 -0.3 8.7 1.2 17.1 4.8 18.3 2.7 0.9 2.7-5.1 2.7-5.1 1.5 5.1 5.7 10.8 6.9 10.5 1.2-0.3 3.3-4.8 3.3-4.8 3.6 4.8 6.3 15 41.2 8.1 6 4.8 18.9 10.8 30.4-1.5 8.4 1.8 38.8 6 56.2-10.8 0.6 2.1 0 5.1 0 5.1 4.8-2.4 11.1-9.9 10.2-16.5 2.1 3.9 2.1 3.9 2.1 3.9 3.6-0.6 5.7-6.9 3.3-12.9 1.8 1.2 5.1 1.5 5.1 1.5 1.5-1.5-0.3-15.6-15.9-27.1 0-13.8-0.3-48.2-35.5-63.7 -34.6-13.2-61.6-4.8-83.9 4.2C331.7 88.8 320 106.2 326 143.8z" fill="#FED5A2"/><path d="M378.3 194.2c15.9 8.9 32.1 0.2 35.7-7.5 4.1 7.7 22.7 7.3 27.2 0.5 16.9-21.2 32.9-35.9 30.1-57.5 -1-16.3-6.3-41.9-35.3-54.7 -34.6-13.2-61.6-4.8-83.9 4.2 -20.4 9.6-32.2 27.1-26.2 64.6 0 0-12.6 18.3-9 27.7 1.5 3 4.2-1.5 4.2-1.5 -0.3 8.7 1.2 17.1 4.8 18.3 2.7 0.9 2.7-5.1 2.7-5.1 1.5 5.1 5.7 10.8 6.9 10.5 1.2-0.3 3.3-4.8 3.3-4.8 1 1.3 1.9 3 3.4 4.7C346.7 198.7 361.1 196.4 378.3 194.2z" class="k"/><path d="M377.4 190.1c15.9 8.9 32.4-0.9 36-8.6 4.1 7.7 21.1 4.3 25.6-2.5 16.9-21.2 35.2-27.7 32.3-49.3 -1-16.3-6.3-41.9-35.3-54.7 -34.6-13.2-61.6-4.8-83.9 4.2 -20.4 9.6-32.2 27.1-26.2 64.6 0 0-12.6 18.3-9 27.7 1.5 3 4.2-1.5 4.2-1.5 -0.3 8.7 1.2 17.1 4.8 18.3 2.7 0.9 2.7-5.1 2.7-5.1 1.5 5.1 5.7 10.8 6.9 10.5 1.2-0.3 3.3-4.8 3.3-4.8C339.9 190.2 346.7 198.7 377.4 190.1z" class="l"/><path d="M395.3 203c-7.2 0-13-4-15.2-5.8 -7.8 1.5-14.5 2.3-19.9 2.3 -14.4 0-17.8-5.2-20.4-9.1 -0.3-0.4-0.5-0.8-0.8-1.2 -0.5 1.1-2.2 4.3-3.3 4.6 0 0-0.1 0-0.2 0 -1.4 0-5-4.9-6.7-9.5 0 0.4-0.1 0.9-0.2 1.4 -0.5 2.3-1.4 2.8-2.1 2.8 -0.2 0-0.4 0-0.6-0.1 -3.9-1.3-5.2-10.2-5-17.8 -0.6 0.8-1.6 2-2.7 2h0c-0.6 0-1.1-0.4-1.5-1.2 -3.5-9.1 8-26.4 9-27.8 -2.9-18-1.8-32 3.2-42.8 4.4-9.5 12-16.7 23.1-21.9 14.2-5.8 29.9-11.1 48.3-11.1 12 0 23.7 2.2 35.8 6.9 35.5 15.7 35.6 50.6 35.6 63.8 14.9 10.9 16.2 23.1 16.3 24.4 0.1 1.4-0.1 2.5-0.5 2.9l-0.1 0.1 -0.1 0c-0.1 0-2.8-0.3-4.7-1.2 1.2 3.5 1.1 7.4-0.4 10 -0.8 1.5-2 2.4-3.3 2.6l-0.2 0 -1.7-3.1c0.2 6.4-5.8 13.3-10.4 15.7l-0.4 0.2 0.1-0.5c0 0 0.5-2.6 0.1-4.6 -10.9 10.3-26.5 12.4-37.8 12.4 -8.9 0-16.1-1.3-18.2-1.8C406.1 200.6 400.9 203 395.3 203zM380.2 196.8l0.1 0.1c2.2 1.7 7.9 5.7 15 5.7 5.5 0 10.6-2.4 15-7.2l0.1-0.1 0.1 0c2 0.4 9.2 1.8 18.3 1.8 11.3 0 27-2.2 37.8-12.6l0.3-0.3 0.1 0.4c0.5 1.7 0.2 3.8 0.1 4.8 4.7-2.6 10.6-9.7 9.7-16.1l-0.2-1.2 2.6 4.8c1.1-0.2 2.1-1.1 2.8-2.3 1.5-2.7 1.6-6.7 0.2-10.2l-0.3-0.7 0.6 0.4c1.5 1 4.3 1.4 4.9 1.5 0.2-0.3 0.4-1.1 0.3-2.5 -0.4-4.8-4.2-15.4-16.2-24.2l-0.1-0.1v-0.1c0-13.1 0-47.9-35.3-63.5 -12-4.6-23.7-6.8-35.6-6.8 -18.3 0-33.9 5.3-48.1 11.1 -23.4 11-31.4 30.9-26 64.4l0 0.1 -0.1 0.1c-0.1 0.2-12.5 18.3-9 27.5 0.3 0.6 0.7 0.9 1.1 0.9 1 0 2.3-1.8 2.7-2.4l0.4-0.8 0 0.9c-0.3 8.2 1.1 16.9 4.7 18.1 0.2 0.1 0.3 0.1 0.5 0.1 1 0 1.5-1.3 1.7-2.4 0.3-1.3 0.3-2.5 0.3-2.6v-1.6l0.4 1.5c1.5 5.1 5.5 10.4 6.6 10.4 0.8-0.2 2.4-3 3.2-4.7l0.2-0.3 0.2 0.3c0.3 0.5 0.7 1 1 1.5 2.5 3.7 5.9 8.9 20 8.9 5.4 0 12.2-0.8 19.9-2.3L380.2 196.8z" class="h"/><path d="M382.1 198.7c-2.2-1.3-4.8-4.7-4.8-4.7 0 0 2.9 3.1 5 4.3L382.1 198.7z" class="h"/><path d="M408.7 197.6l-0.3-0.3c0 0 2.8-2.6 5-5.3C413.4 192 411.6 195.2 408.7 197.6z" class="h"/><ellipse cx="398.8" cy="225.1" rx="2.7" ry="5" class="m"/><path d="M398.8 230.3c-1.6 0-2.9-2.3-2.9-5.2 0-2.9 1.3-5.2 2.9-5.2 1.6 0 2.9 2.3 2.9 5.2C401.7 228 400.4 230.3 398.8 230.3zM398.8 220.4c-1.3 0-2.5 2.2-2.5 4.7 0 2.6 1.1 4.7 2.5 4.7 1.3 0 2.5-2.2 2.5-4.7C401.2 222.6 400.1 220.4 398.8 220.4z" class="h"/><ellipse cx="421.5" cy="221.2" rx="3.3" ry="5.3" class="m"/><path d="M421.5 226.7c-1.9 0-3.5-2.5-3.5-5.5s1.6-5.5 3.5-5.5 3.5 2.5 3.5 5.5S423.4 226.7 421.5 226.7zM421.5 216.2c-1.7 0-3.1 2.3-3.1 5s1.4 5 3.1 5c1.7 0 3.1-2.3 3.1-5S423.2 216.2 421.5 216.2z" class="h"/><ellipse transform="matrix(0.8951 0.4458 -0.4458 0.8951 139.5522 -170.6338)" cx="432.4" cy="211.3" rx="4.2" ry="2.3" class="m"/><path d="M434.3 214.3c-0.9 0-1.9-0.3-2.9-0.8 -2.2-1.1-3.5-3-2.9-4.2 0.3-0.6 1.1-1 2.1-1 0.9 0 1.9 0.3 2.9 0.8 2.2 1.1 3.5 3 2.9 4.2C436.1 213.9 435.3 214.3 434.3 214.3zM430.6 208.8c-0.9 0-1.5 0.3-1.7 0.8 -0.5 1 0.7 2.6 2.7 3.6 0.9 0.5 1.9 0.7 2.7 0.7 0.9 0 1.5-0.3 1.7-0.8 0.5-1-0.7-2.6-2.7-3.6C432.4 209 431.5 208.8 430.6 208.8z" class="h"/><ellipse transform="matrix(0.9845 0.1756 -0.1756 0.9845 43.8874 -63.3352)" cx="379.7" cy="216.3" rx="2.5" ry="5" class="m"/><path d="M379.1 221.4c-0.1 0-0.2 0-0.3 0 -1.5-0.3-2.3-2.7-1.8-5.6 0.5-2.8 2.1-4.9 3.6-4.6 1.5 0.3 2.3 2.7 1.8 5.6C382 219.4 380.5 221.4 379.1 221.4zM380.4 211.6c-1.2 0-2.5 1.9-2.9 4.3 -0.4 2.5 0.2 4.8 1.4 5.1 1.2 0.2 2.6-1.7 3.1-4.3 0.5-2.5-0.2-4.8-1.4-5.1C380.5 211.6 380.4 211.6 380.4 211.6z" class="h"/><ellipse cx="405.3" cy="207.9" rx="3.2" ry="5.1" class="m"/><path d="M405.3 213.2c-1.9 0-3.4-2.4-3.4-5.3 0-2.9 1.5-5.3 3.4-5.3s3.4 2.4 3.4 5.3C408.7 210.8 407.2 213.2 405.3 213.2zM405.3 203c-1.6 0-3 2.2-3 4.9 0 2.7 1.3 4.9 3 4.9 1.6 0 3-2.2 3-4.9C408.3 205.2 407 203 405.3 203z" class="h"/><ellipse transform="matrix(0.8982 -0.4395 0.4395 0.8982 -52.6633 183.7478)" cx="370.5" cy="205.6" rx="4.1" ry="2.2" class="m"/><path d="M368.8 208.5c-1 0-1.8-0.4-2.1-1 -0.3-0.6-0.2-1.4 0.4-2.1 0.5-0.7 1.4-1.4 2.4-1.9 0.9-0.5 1.9-0.7 2.8-0.7 1 0 1.8 0.4 2.1 1 0.6 1.2-0.6 3-2.8 4.1C370.6 208.2 369.6 208.5 368.8 208.5zM372.2 203.2c-0.8 0-1.7 0.2-2.6 0.7 -0.9 0.5-1.7 1.1-2.2 1.8 -0.5 0.6-0.6 1.2-0.4 1.7 0.2 0.5 0.9 0.8 1.7 0.8 0.8 0 1.7-0.2 2.6-0.7 1.9-0.9 3-2.5 2.6-3.5C373.7 203.4 373.1 203.2 372.2 203.2z" class="h"/><path d="M299.7 221.3c0 0 7.3-7.7 12.5-10.2l0.2 0.4C307.2 213.9 299.8 221.2 299.7 221.3z" class="f"/><path d="M250.4 230l-0.3-0.4c7.1-5.1 15.2-4.6 15.2-4.6C255.5 226.2 250.4 230 250.4 230z" class="f"/><path d="M229 216.9l-0.1-0.4c11.3-2.6 14.4-0.3 14.4-0.3C238 214.7 229.1 216.9 229 216.9z" class="f"/><path d="M479.4 226.9c0 0-33.1 23.9-25.6 54 1.2 5.1 5.4 9.5 8.7 10.2 3.9 6 18.3 18.9 68.5 7.2 17.1-4.5 33.7-25.3 0-23.8 10.2-5.1 19.5-16.2 14.7-23.1 -4.8-6.9-21.6-0.9-29.8 4.8 5.4-5.4 6.3-15.3 3.6-17.7 -2.7-2.4-8.7-4.8-19.8 3.3 3.9-6.6 6-10.5-2.1-11.7 -3.5-5.4-6.1-7.7-7.3-8.5C490 221.3 479.4 226.9 479.4 226.9z" class="d"/><path d="M479.4 226.9c0 0-31.9 22.8-24.4 52.9 1.2 5.1 6.3 8.8 9.6 9.5 3.9 6 10.2 17.8 60.4 6.1 17.1-4.5 39.8-22.3 6.1-20.8 10.2-5.1 19.5-16.2 14.7-23.1 -4.8-6.9-21.6-0.9-29.8 4.8 5.4-5.4 6.3-15.3 3.6-17.7 -2.7-2.4-8.7-4.8-19.8 3.3 3.9-6.6 6-10.5-2.1-11.7 -3.5-5.4-6.1-7.7-7.3-8.5C490 221.3 479.4 226.9 479.4 226.9z" class="e"/><path d="M479.4 226.9c0 0-31.9 22.8-24.4 52.9 1.2 5.1 6.3 8.8 9.6 9.5 3.9 6 7.8 16 53.8 5.4 17.1-4.5 40.3-19.8 6.6-18.3 10.2-5.1 20.5-16.3 15.7-23.2 -4.8-6.9-23.2 3.2-31.3 8.9 5.4-5.4 11.1-18.6 8-20.4 -12.2-7.2-24.3 15.6-35.4 23.8 7.4-6.4 14.3-23.8 10.3-32.8 -2-3.7-4.6-8.6-5.8-9.4C486 223.1 479.4 226.9 479.4 226.9z" class="i"/><path d="M495.6 303.3c-22.2 0-30.4-7.6-33.2-12 -3.3-0.8-7.5-5.1-8.8-10.4 -3.9-15.6 3.4-29.6 10.1-38.7 3.5-4.7 7.3-8.5 10.2-11.3 3.2-3 5.8-4.4 5.8-4.4 -0.1 0.1-8.4 6.2-15.7 15.9 -6.7 8.9-13.9 22.8-10.1 38.3 1.2 5.1 5.5 9.4 8.5 10.1l0.1 0 0.1 0.1c2.8 4.3 10.8 11.9 32.9 11.9 9.2 0 20.8-1.3 35.4-4.7 10.4-2.7 20.2-11.4 19.3-17.1 -0.7-4.5-7.5-6.7-19.2-6.2l-1.1 0 0.9-0.5c7.7-3.9 14.1-10.6 15.6-16.3 0.6-2.5 0.3-4.7-0.9-6.5 -1-1.5-2.7-2.4-4.9-2.8 -6.8-1.2-18 3-24.6 7.7l-0.3-0.3c3.6-3.6 5.1-9.2 5-13.1 -0.1-2-0.6-3.6-1.4-4.4 -2.5-2.2-8.4-4.8-19.6 3.3l-0.9 0.6 0.6-0.9c2.6-4.3 4.1-7.1 3.2-9 -0.6-1.2-2.2-2-5.1-2.4l-0.1 0 -0.1-0.1c-4.6-7.1-7.7-8.8-7.8-8.8l0.2-0.4c0.1 0.1 3.2 1.7 7.9 8.9 3 0.5 4.7 1.3 5.4 2.7 0.9 1.9-0.4 4.5-2.7 8.5 10.8-7.6 16.7-5 19.3-2.7 0.9 0.8 1.5 2.5 1.5 4.7 0.1 3.5-1.1 8.4-4 12.1 6.7-4.3 17.1-7.9 23.5-6.8 2.3 0.4 4.1 1.4 5.2 3 1.3 1.9 1.7 4.2 1 6.9 -1.4 5.6-7.5 12.2-14.9 16.1 14.5-0.5 18.2 3.3 18.7 6.6 0.9 6.1-8.8 14.8-19.6 17.6C516.5 302 504.8 303.3 495.6 303.3z" class="f"/><path d="M481.9 265.5c22.4-26.6 15.1-36.1 15-36.2l0.4-0.3c0.1 0.1 2 2.5 1.1 8.3 -0.7 4.2-3 11-10.1 20.8C486.6 260.4 481.9 265.5 481.9 265.5z" class="f"/><path d="M511.7 259.1c0 0 3.7-1.9 5.2-4.2l0.4 0.3C515.7 257.6 511.7 259.1 511.7 259.1z" class="f"/><path d="M525 276.5c0 0 4.8-1.3 7.2-2.7l0.2 0.4C529.9 275.6 525 276.5 525 276.5z" class="f"/><path d="M442.8 328.4c0 0 5.9 10.3 9.5 19.4 -6.5 0-20.4 4.1-16.5 11.5 2.3 3.5 11.7 3.2 20.7-1.7 2.8-0.6 16.5 21.6 27.1 14.3 2.3-1.8 0.9-4.5 0.9-4.5 2.9 0.1 9.7 0.1 7.8-10.1 2.8-3.5 2.6-8.6-5-9.9 -6.1-0.7-19.2 1.7-25.9-0.8 -2.9-7.8-9.4-24-9.4-24C448.2 325.2 442.8 328.4 442.8 328.4z" class="a"/><path d="M484.8 348.6c-6.1-0.7-16.6 0.5-23.3-2 -4.5-3.5-8.1-12.8-10.4-17.2 -2 1.1-4.4 1.4-6.9 1.4 1.9 3.6 5.6 10.6 8.2 17 -6.5 0-18.8 2.8-14.9 10.2 2.3 3.5 10.5 1.8 19.5-3.1 2.8-0.6 15.3 18.5 23.9 12.8 2.3-1.8-0.2-5.5-0.2-5.5 2.9 0.1 9.5 2.6 7.6-7.7C491.1 351.1 490.5 349.6 484.8 348.6z" class="b"/><path d="M479 373.7c-6.3 0-13-7-17.4-11.6 -2.2-2.3-4.1-4.2-4.9-4.2 0 0 0 0 0 0 -4.8 2.6-10 4-14.3 4 0 0 0 0 0 0 -3.3 0-5.7-0.9-6.7-2.4 -1-1.8-1-3.6 0-5.2 2.5-4.2 11.1-6.5 16.3-6.6 -3.6-8.9-9.3-19-9.3-19.1l-0.1-0.2 0.2-0.1c0.1 0 5.5-3.3 9.2-5.9l0.2-0.2 0.1 0.3c0.1 0.2 6.4 16.2 9.3 23.9 2.1 0.8 5 1.1 9.1 1.1 2.5 0 5.1-0.1 7.7-0.3 2.3-0.1 4.4-0.2 6.2-0.2 1.1 0 2.1 0 2.8 0.1 4.4 0.8 6 2.7 6.5 4.2 0.7 1.8 0.2 4.1-1.3 6 0.7 3.7 0.3 6.4-1.1 8.1 -1.2 1.5-3.2 2.2-5.9 2.2 -0.2 0-0.4 0-0.6 0 0.3 0.8 0.8 2.9-1.1 4.5C482.3 373.1 480.7 373.7 479 373.7zM456.7 357.4c1 0 2.7 1.7 5.2 4.4 4.4 4.6 11 11.4 17.1 11.4 1.6 0 3.1-0.5 4.5-1.4 2.1-1.7 0.8-4.2 0.8-4.2l-0.2-0.3 0.4 0c0.3 0 0.6 0 0.9 0 2.6 0 4.5-0.7 5.6-2 1.4-1.6 1.7-4.3 1-7.9l0-0.1 0.1-0.1c1.5-1.8 2-3.9 1.3-5.6 -0.7-2-2.9-3.3-6.2-3.9 -0.7-0.1-1.7-0.1-2.8-0.1 -1.8 0-4 0.1-6.2 0.2 -2.5 0.1-5.1 0.3-7.7 0.3 -4.2 0-7.1-0.4-9.3-1.2l-0.1 0 0-0.1c-2.7-7.1-8.4-21.6-9.3-23.8 -3.4 2.3-7.9 5-8.8 5.6 0.8 1.5 6.1 10.9 9.4 19.2l0.1 0.3h-0.3c-5.2 0-13.9 2.4-16.3 6.4 -0.9 1.5-0.9 3.1 0 4.7 0.9 1.4 3.2 2.2 6.3 2.2 0 0 0 0 0 0 4.3 0 9.4-1.5 14.1-4l0.1 0C456.6 357.4 456.6 357.4 456.7 357.4z" class="c"/><path d="M484.3 367.5c-2-6.9-19.2-13-19.4-13 0 0 17.8 5.8 19.8 12.9L484.3 367.5z" class="c"/><path d="M492.2 358c-1-2.4-6.3-4-11.5-5.5 -5.3-1.6-13.2-1.7-13.2-1.7 0 0 8-0.3 13.4 1.2 5.3 1.5 10.7 3.1 11.8 5.8L492.2 358z" class="c"/><path d="M446.6 340.7c-6.4-2.4-12-10.1-12-10.1 0.1 0.1 6.1 7.3 12.1 9.7L446.6 340.7z" class="f"/><path d="M423.6 340.6c-2.8-4.3-4.4-9.9-4.4-9.9 0 0.1 2 5.5 4.8 9.7L423.6 340.6z" class="f"/><path d="M347.2 355c0-0.1-0.3-1.3 0.9-3 1.4-2.1 5.1-4.8 14.7-6.3 4.8-0.9 6.9-3.5 7-3.5 0 0-1.9 3.1-6.9 4 -9.5 1.5-13 4.1-14.4 6.1 -1 1.5-0.8 2.6-0.8 2.7L347.2 355z" class="c"/><path d="M357.9 363c-0.1-0.2-1.5-5.4 10.7-11.4 2-0.9 3.4-2.3 4.6-3.5 1.8-1.9 3.1-1.9 3.1-1.9 -0.9 0.4-1.8 1.2-2.8 2.2 -1.3 1.3-2.7 2.7-4.7 3.6 -11.9 5.8-10.5 10.9-10.5 10.9L357.9 363z" class="c"/><path d="M418.7 308.6c0 0 12.5 25.8 26.3 21.8 9.4-2.9 17.8-17.6 13-36.7L418.7 308.6z" class="g"/><path d="M418.7 308.6c0 0 11.8 17.6 25.7 13.6 9.4-2.9 15-14.6 13.6-29.8L418.7 308.6z" class="j"/><path d="M442.1 331c-7.8 0-15.1-8.5-19.5-15 -2.6-3.7-3.9-7.4-3.9-7.4 0.1 0.3 13.3 25.3 26.2 21.5 9.7-3 17.2-18.4 13-36.5 0 0 1.4 4.8 1.5 7.2 0.4 6.2-0.4 12.1-2.6 17.2 -2.6 6.3-7.1 11-11.9 12.5C444.1 330.8 443.1 331 442.1 331z" class="h"/><path d="M471.5 138.7c0-13.8-0.3-48.2-35.5-63.7 -34.6-13.2-61.6-4.8-83.9 4.2 -20.4 9.6-32.2 27.1-26.2 64.6 0 0-12.6 18.3-9 27.7 1.5 3 4.2-1.5 4.2-1.5 -0.3 8.7 1.2 17.1 4.8 18.3 2.7 0.9 2.7-5.1 2.7-5.1 1.5 5.1 5.7 10.8 6.9 10.5 1.2-0.3 3.3-4.8 3.3-4.8 1.8 2.4 3.4 6.3 9.1 8.6 7.9-2.6 19.6-11.1 26.3-37.4 6.9-19.2 17.1-19.8 17.1-19.8 4.2-1.5 19.2 4.8 24.1 18.6 4.3 12.2 14.6 29.8 37.5 34.4 4.9-1.9 9.6-4.7 13.6-8.5 0.6 2.1 0 5.1 0 5.1 4.8-2.4 11.1-9.9 10.2-16.5 2.1 3.9 2.1 3.9 2.1 3.9 3.6-0.6 5.7-6.9 3.3-12.9 1.8 1.2 5.1 1.5 5.1 1.5C489 164.2 487.2 150.1 471.5 138.7z" class="d"/><path d="M463.1 167.5c1.4 1.8-0.4 4.1 1.4 5.9 2.3-5 4.1-10.4 3.6-15.8 0.9 1.4 2.3 3.2 2.3 5 1.4-0.9 0.9-2.7 0.9-4.1 0.9-7.2-6.3-14.4-3.2-20.7 2-5 2.5-10.2 2.5-15.3 -2.2-15.9-9.6-36.4-34.6-47.5 -34.6-13.2-61.6-4.8-83.9 4.2 -20.4 9.6-32.2 27.1-26.2 64.6 0 0-12.6 18.3-9 27.7 1.5 3 4.2-1.5 4.2-1.5 -0.3 8.7 1.2 17.1 4.8 18.3 2.7 0.9 2.7-5.1 2.7-5.1 1.5 5.1 5.7 10.8 6.9 10.5 1.2-0.3 3.3-4.8 3.3-4.8 1.8 2.4 3.4 6.3 9.1 8.6 7.9-2.6 19.6-11.1 26.3-37.4 6.9-19.2 17.1-19.8 17.1-19.8 4.2-1.5 19.2 4.8 24.1 18.6 3.4 9.8 10.8 23.1 25.3 30.3C451 185 460.5 178.3 463.1 167.5z" class="e"/><path d="M458.6 155.8c2.7 0.5 1.8 3.2 3.2 4.5 1.8-4.5 1.8-9 0.9-13.5 0.5 0.9 1.4 1.8 2.3 2.7 -0.5-4.1-1.8-8.6-0.5-12.6 3.9-9.5 4.1-19.5 2.5-29.4 -4.5-12.3-13.3-24.7-30.9-32.5 -34.6-13.2-61.6-4.8-83.9 4.2 -20.4 9.6-32.2 27.1-26.2 64.6 0 0-12.6 18.3-9 27.7 1.5 3 4.2-1.5 4.2-1.5 -0.3 8.7 1.2 17.1 4.8 18.3 2.7 0.9 2.7-5.1 2.7-5.1 1.5 5.1 5.7 10.8 6.9 10.5 1.2-0.3 3.3-4.8 3.3-4.8 1.8 2.4 6.5 5.9 17.4 3.7 2.1-1.9 12-8.9 18.1-32.6 6.9-19.2 17.1-19.8 17.1-19.8 4.2-1.5 19.2 4.8 24.1 18.6 2.6 7.5 7.5 17 16.2 24.3C446 179.4 458.6 171.3 458.6 155.8z" class="i"/><path d="M348.1 197.7l-0.1 0c-4.7-1.9-6.7-4.8-8.2-7.2 -0.3-0.4-0.5-0.8-0.8-1.2 -0.5 1.1-2.2 4.3-3.3 4.6 0 0-0.1 0-0.2 0 -1.4 0-5-4.9-6.7-9.5 0 0.4-0.1 0.9-0.2 1.4 -0.5 2.3-1.4 2.8-2.1 2.8 -0.2 0-0.4 0-0.6-0.1 -3.9-1.3-5.2-10.2-5-17.8 -0.6 0.8-1.6 2-2.7 2 -0.6 0-1.1-0.4-1.5-1.2 -3.5-9.1 8-26.4 9-27.8 -2.9-18-1.8-32 3.2-42.8 4.4-9.5 12-16.7 23.1-21.9 14.2-5.8 29.9-11.1 48.3-11.1 12 0 23.7 2.2 35.8 6.9 35.5 15.7 35.6 50.6 35.6 63.8 14.9 10.9 16.2 23.1 16.3 24.4 0.1 1.4-0.1 2.5-0.5 2.9l-0.1 0.1 -0.1 0c-0.1 0-2.8-0.3-4.7-1.2 1.2 3.5 1.1 7.4-0.4 10 -0.8 1.5-2 2.4-3.3 2.6l-0.2 0 -1.7-3.1c0.2 6.4-5.8 13.3-10.4 15.7l-0.4 0.2 0.1-0.5c0 0 0.5-2.6 0.1-4.6 -3.7 3.5-8.2 6.3-13.4 8.3l-0.1 0 -0.1 0c-24-4.8-33.9-23.7-37.7-34.5 -4.3-12.3-16.8-18.7-22.3-18.7 -0.6 0-1 0.1-1.4 0.2l-0.1 0c-0.1 0-10.2 0.8-16.9 19.7 -6.6 26-18.1 34.8-26.5 37.6L348.1 197.7zM338.9 188.5l0.2 0.3c0.3 0.5 0.7 1 1 1.5 1.5 2.3 3.4 5.1 8 7 8.3-2.8 19.5-11.5 26.1-37.2 6.8-18.8 16.6-20 17.3-20 0.4-0.1 0.9-0.2 1.5-0.2 5.6 0 18.4 6.5 22.8 19 3.7 10.8 13.6 29.5 37.3 34.2 5.3-2.1 9.8-4.9 13.5-8.5l0.3-0.3 0.1 0.4c0.5 1.7 0.2 3.8 0.1 4.8 4.7-2.6 10.6-9.7 9.7-16.1l-0.2-1.2 2.6 4.8c1.1-0.2 2.1-1.1 2.8-2.3 1.5-2.7 1.6-6.7 0.2-10.2l-0.3-0.7 0.6 0.4c1.5 1 4.3 1.4 4.9 1.5 0.2-0.3 0.4-1.1 0.3-2.5 -0.4-4.8-4.2-15.4-16.2-24.2l-0.1-0.1v-0.1c0-13.1 0-47.9-35.3-63.5 -12-4.6-23.7-6.8-35.6-6.8 -18.3 0-33.9 5.3-48.1 11.1 -23.4 11-31.4 30.9-26 64.4l0 0.1 -0.1 0.1c-0.1 0.2-12.5 18.3-9 27.5 0.3 0.6 0.7 0.9 1.1 0.9 1 0 2.3-1.8 2.7-2.4l0.4-0.8 0 0.9c-0.3 8.2 1.1 16.9 4.7 18.1 0.2 0.1 0.3 0.1 0.5 0.1 1 0 1.5-1.3 1.7-2.4 0.3-1.3 0.3-2.5 0.3-2.6v-1.6l0.4 1.5c1.5 5.1 5.5 10.4 6.6 10.4 0.8-0.2 2.4-3 3.2-4.7L338.9 188.5z" class="f"/><path d="M386.7 162.1c0 0 3.8 20.5-1.4 30 7.4-2 23.2-2.3 28.9-17.7 3.4-9 3.6-19.3 3.6-19.3C409 158.1 386.7 162.1 386.7 162.1z" class="a"/><path d="M386.7 162.1c0 0 3.8 20.5-1.4 30 7.4-2 20.9-3.5 26.6-19 3.4-9 1.9-17 1.9-17C405 159.1 386.7 162.1 386.7 162.1z" class="b"/><path d="M384.9 192.5l0.3-0.5c5.1-9.3 1.4-29.6 1.3-29.8l0-0.2 0.2 0c0.2 0 22.4-4.1 31.1-7l0.3-0.1 0 0.3c0 0.1-0.3 10.4-3.6 19.3 -4.8 13-16.8 15.4-24.7 16.9 -1.6 0.3-3.1 0.6-4.3 0.9L384.9 192.5zM386.9 162.3c0.4 2.2 3.4 20.4-1.2 29.5 1.1-0.3 2.5-0.5 3.8-0.8 7.8-1.5 19.7-3.9 24.4-16.6 3-8 3.5-17.1 3.6-18.9C409.1 158.2 389.3 161.9 386.9 162.3z" class="c"/><path d="M411.6 156.9c-10.2 2.6-24.9 5.2-24.9 5.2s3.8 20.5-1.4 30c1.8-0.5 4.2-0.9 6.7-1.4C405.4 185.7 413.7 167.1 411.6 156.9z" class="n"/><path d="M384.9 192.5l0.3-0.5c5.1-9.3 1.4-29.6 1.3-29.8l0-0.2 0.2 0c0.1 0 14.8-2.7 24.9-5.2l0.2-0.1 0 0.2c1.1 5.1-0.4 12.4-4 19 -3.9 7.3-9.6 12.8-15.7 15.1 -0.9 0.2-1.7 0.3-2.5 0.5 -1.6 0.3-3.1 0.6-4.3 0.9L384.9 192.5zM386.9 162.3c0.4 2.2 3.4 20.4-1.2 29.5 1.1-0.3 2.5-0.5 3.8-0.8 0.8-0.2 1.6-0.3 2.4-0.5 13.4-5 21.3-23.6 19.4-33.3C402 159.5 388.8 162 386.9 162.3z" class="o"/><path d="M389.9 162.6c0 0 3.8 14.7-1 24.6 5.2-1.4 12.3-0.9 19.6-25.3C403.4 161.7 389.9 162.6 389.9 162.6z" fill="#6E0000"/><path d="M388.9 187.2c2.1-0.5 4.4-0.8 7-2.4 -1.9-0.3-3.5-5.3-4.6-10.7C391.4 178.4 390.8 183.2 388.9 187.2z" fill="#A80000"/><path d="M408.5 161.9c-2.3-0.1-6.2 0-9.9 0.2 -6.5 5-3.9 17-2.3 22.3C400.1 181.8 404.3 176 408.5 161.9z" fill="#FF4043"/><path d="M399.4 170.2c-0.9-2.2-3.8-3.5-4.4-2 -1.4 5.6 0.3 12.5 1.4 16.3 0.6-0.4 1.2-0.9 1.8-1.5C400.6 179.9 401.2 174.8 399.4 170.2z" fill="#FF4F52"/><path d="M396.2 184.8l-0.1-0.3c-1.5-5.1-4.4-17.4 2.4-22.6l0.1 0 0.1 0c4.6-0.2 8-0.3 9.9-0.2l0.3 0 -0.1 0.3c-3.6 12.2-7.5 19.4-12.2 22.7L396.2 184.8zM398.7 162.3c-6.3 4.9-3.8 16.6-2.2 21.8 4.5-3.3 8.2-10.3 11.7-22C406.3 162.1 403 162.1 398.7 162.3z" fill="#C21C00"/><path d="M388.5 187.5l0.2-0.4c4.6-9.7 1-24.3 0.9-24.4l-0.1-0.3 0.3 0c0.1 0 10.7-0.7 16.6-0.7 0.8 0 1.5 0 2 0l0.3 0 -0.1 0.3c-6.7 22.5-13.2 23.9-18.4 25.1 -0.5 0.1-0.9 0.2-1.3 0.3L388.5 187.5zM390.2 162.8c0.5 2 3.2 14.9-0.8 24 0.3-0.1 0.6-0.1 0.9-0.2 5.1-1.1 11.4-2.6 18-24.5 -0.5 0-1.1 0-1.7 0C401.1 162.1 391.9 162.7 390.2 162.8z" class="o"/><ellipse cx="359.8" cy="125.8" rx="32.4" ry="36.1" class="p"/><path d="M359.8 162.1c-18 0-32.6-16.3-32.6-36.3s14.6-36.3 32.6-36.3c18 0 32.6 16.3 32.6 36.3S377.7 162.1 359.8 162.1zM359.8 90c-17.7 0-32.2 16.1-32.2 35.8 0 19.8 14.4 35.8 32.2 35.8 17.7 0 32.2-16.1 32.2-35.8C391.9 106.1 377.5 90 359.8 90z" class="q"/><ellipse transform="matrix(-0.9544 0.2984 -0.2984 -0.9544 867.5654 109.7315)" cx="425.4" cy="121.1" rx="35.2" ry="35.9" class="p"/><path d="M425.8 157.2C425.8 157.2 425.8 157.2 425.8 157.2c-7.4 0-14.9-2.5-21-6.9 -6.3-4.6-10.9-11.1-13.2-18.6 -5.9-19 4.4-39.3 23-45.1 3.4-1.1 6.9-1.6 10.4-1.6 7.4 0 14.9 2.5 21 6.9 6.3 4.6 10.9 11.1 13.2 18.6 5.9 19-4.4 39.3-23 45.1C432.8 156.7 429.3 157.2 425.8 157.2zM425 85.4c-3.5 0-6.9 0.5-10.3 1.6 -18.4 5.8-28.6 25.7-22.7 44.5 4.7 15.1 18.3 25.2 33.8 25.2 3.5 0 6.9-0.5 10.3-1.6 18.4-5.8 28.6-25.7 22.7-44.5C454.1 95.6 440.5 85.4 425 85.4z" class="q"/><ellipse cx="363.3" cy="128.6" rx="15.4" ry="24" class="r"/><ellipse cx="361.3" cy="131.7" rx="13.4" ry="21" class="s"/><path d="M374.2 126c-1.6-8.8-6.8-15.3-12.9-15.3 -7.4 0-13.4 9.4-13.4 21 0 4.7 1 9 2.6 12.4C360.3 142.3 368.2 134.3 374.2 126z" class="t"/><path d="M361.3 152.9c-7.5 0-13.6-9.5-13.6-21.2 0-11.7 6.1-21.2 13.6-21.2 7.5 0 13.6 9.5 13.6 21.2C374.9 143.4 368.8 152.9 361.3 152.9zM361.3 111c-7.3 0-13.2 9.3-13.2 20.7 0 11.4 5.9 20.7 13.2 20.7 7.3 0 13.2-9.3 13.2-20.7C374.5 120.3 368.6 111 361.3 111z"/><ellipse transform="matrix(0.955 -0.2967 0.2967 0.955 -16.0079 131.8708)" cx="426.5" cy="118.7" rx="22.1" ry="26.7" class="r"/><ellipse transform="matrix(0.955 -0.2967 0.2967 0.955 -17.3289 131.5465)" cx="424.8" cy="122.9" rx="19.2" ry="23.2" class="s"/><path d="M441.5 113.3c-4.8-9.9-14.7-15.4-23.6-12.6 -10.1 3.1-15.2 15.6-11.4 27.8 1.2 3.9 3.2 7.3 5.7 10.1C425.8 137.4 436.1 125.3 441.5 113.3z" class="t"/><path d="M426.9 146c-9 0-17.4-7.1-20.6-17.3 -3.8-12.3 1.4-24.9 11.6-28.1 1.6-0.5 3.2-0.7 4.8-0.7 9 0 17.4 7.1 20.6 17.3 3.8 12.3-1.4 24.9-11.6 28.1C430.2 145.7 428.5 146 426.9 146zM422.7 100.2c-1.6 0-3.2 0.2-4.7 0.7 -10 3.1-15 15.5-11.3 27.6 3.1 10 11.4 17 20.2 17 1.6 0 3.2-0.2 4.7-0.7 10-3.1 15-15.5 11.3-27.6C439.8 107.2 431.5 100.2 422.7 100.2z"/><ellipse transform="matrix(0.9541 -0.2994 0.2994 0.9541 -18.8712 132.7753)" cx="423.9" cy="128" rx="8.6" ry="11.6" class="u"/><path d="M431.9 125c-2 5.6-6.9 9.6-12.9 11.2 2.4 2.5 5.5 3.7 8.4 2.8 4.5-1.4 6.6-7.5 4.7-13.6C432 125.3 432 125.1 431.9 125z" class="v"/><path d="M424.5 139.5c-3.9-0.5-7.5-4.1-9-8.9 -0.9-3-1-6.1-0.1-8.7 0.9-2.6 2.7-4.5 4.9-5.2 0.9-0.3 1.9-0.4 2.9-0.2 3.9 0.5 7.5 4.1 9 8.9 0.9 3 1 6.1 0.1 8.7 -0.9 2.6-2.7 4.5-4.9 5.2C426.5 139.6 425.5 139.6 424.5 139.5zM423.2 116.9c-0.9-0.1-1.9 0-2.7 0.2 -2.1 0.7-3.8 2.4-4.6 4.9 -0.9 2.5-0.8 5.5 0.1 8.4 1.5 4.7 4.9 8.1 8.6 8.6 0.9 0.1 1.9 0 2.7-0.2 2.1-0.7 3.8-2.4 4.6-4.9 0.9-2.5 0.8-5.5-0.1-8.4C430.4 120.8 426.9 117.4 423.2 116.9z" class="w"/><ellipse transform="matrix(0.9541 -0.2994 0.2994 0.9541 -18.871 132.7967)" cx="423.9" cy="128" rx="6.7" ry="8.6"/><path d="M356 134.6c0 5.9 3 10.8 6.9 10.9 3.8 0.1 7-4.5 7-10.4 0-5.9-3-10.8-6.9-10.9C359.2 124.1 356.1 128.8 356 134.6z" class="u"/><path d="M357.4 141.2c1.3 2.6 3.2 4.3 5.5 4.3 3.8 0.1 7-4.5 7-10.4 0-1.8-0.3-3.5-0.8-5C366.2 134.9 362.6 139.5 357.4 141.2z" class="v"/><path d="M362.9 145.7c-1.9-0.1-3.7-1.3-5-3.4 -1.3-2.1-2-4.8-2-7.7 0-4.6 2-8.7 4.9-10.1 0.8-0.4 1.5-0.5 2.3-0.5 1.9 0.1 3.7 1.3 5 3.4 1.3 2.1 2 4.8 2 7.7 0 4.6-2 8.7-4.9 10.1C364.5 145.6 363.7 145.8 362.9 145.7zM356.2 134.7c0 2.8 0.7 5.5 1.9 7.5 1.3 2 2.9 3.1 4.7 3.2 0.7 0 1.5-0.1 2.2-0.5 2.7-1.3 4.6-5.3 4.7-9.7 0-2.8-0.7-5.5-1.9-7.5 -1.3-2-2.9-3.1-4.7-3.2 -0.7 0-1.5 0.1-2.2 0.5C358.1 126.3 356.3 130.2 356.2 134.7z" class="w"/><path d="M357.6 134.7c0 4.3 2.4 8 5.3 8.1 3 0.1 5.4-3.3 5.5-7.7 0-4.3-2.4-8-5.3-8.1C360.1 126.9 357.6 130.4 357.6 134.7z"/><path d="M391.7 137.2c0 0 0.5-34-24.4-43.1 -18.3-5-33.9 4.4-41 15.1 -5.5-1.5-12-10.6-13.6-13.9 2.9 0.5 5.2-0.7 5.2-0.7 -5.2-2.7-9.7-9.5-11.5-18.5 2.9-0.7 7 0 7 0 -4.7-4.5-5-11.2-4.7-16.6 4.3 2.4 11.5 11.5 26.6 13.5 15.1 2 42.8 0.7 53.4 34.7 1.8-13.5 9.9-32.7 42.6-36.5 29.5-3.4 41.3-2.9 53-16.5 3.4 0.5 5.2 9.7 0 19.4 3.4-2 4.5-2.9 4.5-2.9 2.5 2.5 3.4 9-7.2 17.1 4.1-0.9 6.3-0.7 6.3-0.7 -2.5 5-2.7 15.7-21.4 18.7 -6.8-9.4-20-22.7-48.3-16.4C401.3 94.7 390.6 107.9 391.7 137.2z" class="d"/><path d="M391.7 137.2c0 0 3-37.2-25.3-46.7 -18.3-5-32.7 5.4-40.1 18.7 -5.5-1.5-12-10.6-13.6-13.9 2.9 0.5 5.2-0.7 5.2-0.7 -5.2-2.7-9.7-9.5-11.5-18.5 2.9-0.7 7 0 7 0 -4.7-4.5-5-11.2-4.7-16.6 4.3 2.4 11.5 11.5 26.6 13.5 15.1 2 42.8 0.7 53.4 34.7 1.8-13.5 9.9-32.7 42.6-36.5 29.5-3.4 41.3-2.9 53-16.5 3.4 0.5-1.8 14.2-7 23.9 3.2 0 6.3-1.6 6.3-1.6 2.5 2.5-5.9 16.6-17.4 19 -7.8-6.8-21.6-14.7-49.9-8.4C399.4 92.4 390.6 107.9 391.7 137.2z" class="e"/><path d="M391.7 137.2c0 0 0.2-2.9-0.1-7.4C391.6 132.1 391.6 134.6 391.7 137.2z" class="i"/><path d="M484 54.9c-11.6 13.2-23.4 12.8-52.7 16.1 -32.7 3.8-40.8 23-42.6 36.5 -10.7-34-38.3-32.7-53.4-34.7 -14.9-2-22.2-10.8-26.5-13.4 -1.3 6.9 8.2 15.5 14.7 20.8 -3.2-0.5-6.8-0.4-9.9 0 5 5 9.7 12.8 17.4 10.6 14.3-3.6 28.8-5.9 43.7 2.7 14.7 8.8 16.3 26.2 16.9 36.2 0.2-7.6 4.3-33.1 16-41.2 16.1-11.1 32.2-10.2 51.2-9.9C473.5 78.9 487.6 59.4 484 54.9z" class="i"/><path d="M391.5 137.2c0-0.7 0-1.5-0.1-2.2 -0.4-7.6-3.3-33-24.2-40.7 -3.3-0.9-6.6-1.3-10-1.3 -14.7 0-25.7 8.8-30.7 16.3l-0.1 0.1 -0.2 0c-5.7-1.6-12.2-10.8-13.8-14.1l-0.2-0.4 0.4 0.1c0.4 0.1 0.9 0.1 1.4 0.1 1.5 0 2.7-0.4 3.3-0.6 -5.3-3-9.5-9.8-11.2-18.4l0-0.2 0.2 0c0.9-0.2 1.9-0.3 3.2-0.3 1.3 0 2.5 0.1 3.2 0.2 -4.2-4.4-4.6-10.7-4.3-16.3l0-0.4 0.3 0.2c1 0.6 2.3 1.6 3.7 2.7 4.5 3.7 11.4 9.2 22.8 10.7 1.7 0.2 3.5 0.4 5.5 0.6 15.2 1.5 38.2 3.8 47.9 33.3 2.2-14.5 11.5-32.1 42.7-35.8 3.6-0.4 6.9-0.8 10-1.1 22.4-2.4 32.6-3.5 42.8-15.3l0.1-0.1 0.1 0c0.9 0.1 1.7 0.8 2.3 2 1.7 3.3 1.6 10.2-1.8 17 2.8-1.7 3.8-2.5 3.8-2.5l0.2-0.1 0.1 0.1c1.2 1.2 1.8 3 1.7 4.9 -0.2 2.7-1.7 6.9-8.1 12 2.3-0.4 3.9-0.5 4.7-0.5 0.5 0 0.7 0 0.8 0l0.3 0 -0.1 0.3c-0.4 0.8-0.8 1.8-1.1 2.9 -1.9 5.3-4.7 13.4-20.4 15.9l-0.1 0 -0.1-0.1c-8.7-12.1-19.9-18-34.2-18 -4.3 0-9 0.6-13.9 1.6 -18.2 5.3-26.8 20-26.4 45 0.1 1.4 0.1 2.2 0.1 2.2L391.5 137.2zM357.2 92.5c3.4 0 6.7 0.5 10.1 1.4 17.9 6.5 22.8 25.9 24.1 36.4 0.3-11.1 2.6-19.8 6.9-26.6 4.4-6.9 10.9-11.5 19.8-14.1 4.9-1.1 9.6-1.6 14-1.6 14.5 0 25.8 5.9 34.5 18 15.3-2.5 18-10.1 19.9-15.6 0.3-0.9 0.7-1.8 1-2.6 -0.1 0-0.2 0-0.4 0 -0.9 0-2.8 0.1-5.5 0.7l-1 0.2 0.8-0.6c6.9-5.3 8.5-9.6 8.7-12.2 0.1-1.7-0.4-3.3-1.4-4.4 -0.4 0.3-1.7 1.2-4.4 2.8l-0.7 0.4 0.4-0.7c3.7-6.9 3.9-13.9 2.2-17.3 -0.5-1-1.2-1.6-1.9-1.8 -10.3 11.9-20.6 13-43 15.3 -3.2 0.3-6.4 0.7-10 1.1 -31.5 3.7-40.5 21.8-42.4 36.3l-0.1 1 -0.3-1c-9.5-30.1-32.5-32.4-47.8-34 -1.9-0.2-3.8-0.4-5.5-0.6 -11.5-1.5-18.5-7.1-23-10.8 -1.3-1-2.4-1.9-3.3-2.5 -0.2 5.6 0.2 11.9 4.7 16.1l0.5 0.5 -0.7-0.1c0 0-1.8-0.3-3.8-0.3 -1.1 0-2 0.1-2.8 0.2 1.7 8.4 6.1 15.4 11.3 18.1l0.4 0.2L318 94.7c-0.1 0-1.6 0.8-3.9 0.8 -0.3 0-0.7 0-1-0.1 1.9 3.6 8 11.8 13.1 13.4C331.3 101.3 342.5 92.5 357.2 92.5z" class="f"/><path d="M369.5 168c0 0-7.2-29.6 19.6-35.2 15.1-2.4 20.7 20.3 31.6 21.5 -4.5 6.3-11.3 15.1-28 12.2C377.7 163.7 375.6 164.2 369.5 168z" class="a"/><path d="M411 147.5c-6-6.9-11.8-16.4-21.8-14.7 -26.8 5.6-19.6 35.2-19.6 35.2C374.7 152.7 411 162.6 411 147.5z" class="b"/><path d="M379.1 156.4c10.9-2.5 27.8-3.5 27.8-13.7 -4.8-5.7-10-11.1-17.8-9.9 -24.4 5.1-20.6 30.1-19.8 34.5C369.9 162.4 374.2 157.2 379.1 156.4z" class="n"/><path d="M395.8 137.7c1.2-1.2 1.4-3-2.9-3.2 -11.3 0-19.4 8.8-21.9 17.4 0.4-0.5 1-2 1.4-2.4C380.5 140.3 391.7 141.9 395.8 137.7z" fill="#FFD647"/><path d="M369.4 168.4l-0.1-0.3c0-0.1-3.4-14.3 3.3-24.9 3.5-5.5 9-9.1 16.5-10.6 0.8-0.1 1.5-0.2 2.3-0.2 7.4 0 12.4 6.1 17.2 11.9 3.9 4.8 7.6 9.2 12.2 9.7l0.4 0 -0.2 0.3c-3.4 4.8-9.1 12.9-21.8 12.9 -2 0-4.1-0.2-6.3-0.6 -5.9-1.1-10.2-1.7-13.4-1.7 -4 0-6.1 1-9.7 3.3L369.4 168.4zM391.4 132.8c-0.7 0-1.5 0.1-2.2 0.2 -7.3 1.5-12.8 5-16.2 10.4 -6 9.5-3.7 22.1-3.3 24.2 3.4-2.1 5.6-3.2 9.6-3.2 3.2 0 7.5 0.7 13.5 1.7 2.2 0.4 4.3 0.6 6.3 0.6 12.3 0 17.9-7.6 21.3-12.4 -4.6-0.7-8.2-5.1-12.1-9.8C403.5 138.8 398.6 132.8 391.4 132.8z" class="c"/><circle cx="361.7" cy="129.8" r="2.8" class="t"/><circle cx="367.3" cy="133.5" r="1.1" class="t"/><circle cx="364.6" cy="140.3" r="1.6" class="t"/><circle cx="420.5" cy="124.2" r="3.1" class="t"/><circle cx="427.8" cy="126" r="1.2" class="t"/><circle cx="427.5" cy="134.3" r="1.9" class="t"/></svg>