<svg xmlns="http://www.w3.org/2000/svg" viewBox="0 0 768 430"><style>.a{fill:#9D5127;}.b{fill:#A95B27;}.c{fill:#A96A33;}.d{fill:#4F2914;}.e{fill:#FF5E53;}.f{fill:#FF7C73;}.g{fill:#FF8E86;}.h{fill:#C73D30;}.i{fill:#542A15;}.j{fill:#5E3115;}.k{fill:#2A150B;}.l{fill:#FFF;}.m{fill:#3F8FFF;}.n{fill:#1F47A6;}.o{fill:#2E0200;}.p{fill:#4D0200;}.q{fill:#946766;}.r{fill:#0D0D0D;}.s{fill:#763D1D;}</style><path d="M280.8 97c0 0-10.1-7.4-10.9-23.8 0-9.3 5.8-5.4 8.1-4.7 0.9 0.2 10.9 3.6 14.7 7.3C291.7 81.2 280.8 97 280.8 97z" class="a"/><path d="M284.1 90.1c0 0-8.9 0.7-12.7-17.2 -1.5-8.4 4.3-5.1 6.6-4.4 0.9 0.2 10.9 3.6 14.7 7.3C291.7 81.2 284.1 90.1 284.1 90.1z" class="b"/><path d="M278.1 68.5c-1.7-0.4-5.2-2.3-6.4-0.1 0.3 0.7 0 0.9 1.7 1.9 2.9 1.6 8.7 1.3 10.6 6.7 1.2 3.5 3.4 7 2.8 9.7 2.3-3.1 5.4-7.7 6-11C289 72.1 279 68.7 278.1 68.5z" class="c"/><path d="M280.8 97.3l-0.1-0.1c-0.1-0.1-10.2-7.7-10.9-23.9 0-2.3 0.3-3.9 1.1-5 0.6-0.9 1.5-1.3 2.6-1.3 1.2 0 2.5 0.5 3.5 0.9 0.5 0.2 0.9 0.4 1.2 0.4 1 0.3 11 3.7 14.8 7.3l0.1 0.1 0 0.1c-1.1 5.4-11.6 20.7-12 21.3L280.8 97.3zM273.3 67.3c-1 0-1.7 0.4-2.3 1.1 -0.7 1-1 2.6-1 4.7 0.7 15 9.4 22.5 10.6 23.5 1.1-1.7 10.8-15.8 11.9-20.9 -3.8-3.6-13.6-6.9-14.6-7.2 -0.4-0.1-0.8-0.3-1.3-0.5C275.7 67.8 274.5 67.3 273.3 67.3z" class="d"/><path d="M281.4 92.1c0 0-9.6-11.3-7.8-20.5 3.2 2.3 10.9 2.5 10.4 12.9C283.3 90.5 281.4 92.1 281.4 92.1z" class="e"/><path d="M280.3 83.7c0.7-2.9-1.5-4-3.3-5.8 -1.4-1.4-0.3-3.1 1.5-3.9 -1.8-1-3.7-1.5-5-2.4 -0.9 4.7 1.1 10 3.4 14C278.4 85.5 279.8 85.3 280.3 83.7z" class="f"/><path d="M277.7 83.7c0.4-0.7 1.1-1.8 0-2.5 -3-1.8-3.5-6-1-8.1 -1.2-0.5-2.3-1-3.1-1.6 -0.9 4.5 0.9 9.4 3 13.3C277 84.6 277.4 84.2 277.7 83.7z" class="g"/><path d="M281.3 92.4l-0.1-0.1c-0.1-0.1-9.7-11.4-7.8-20.7l0.1-0.3 0.2 0.2c0.7 0.5 1.6 0.9 2.7 1.3 3.5 1.5 8.2 3.6 7.8 11.7 -0.6 6-2.5 7.7-2.6 7.8L281.3 92.4zM273.7 71.9c-1.4 8.4 6.6 18.6 7.7 19.9 0.4-0.5 1.8-2.5 2.4-7.4 0.4-7.9-4-9.8-7.6-11.3C275.3 72.7 274.4 72.3 273.7 71.9z" class="h"/><path d="M335.2 95.4c0 0 21 5.6 28.1 37.9 5.6 27.2 9.2 54.4 26.8 65.3 6.5 9.5 19.9-3.3 22.3 8 1.5-2.8 1.5-10.2-10.9-13.2 -15.3-7.7 0.6-20-8.8-31.5 3.3 1.8 6.7 3.4 7.5 6.2 0.2-1.3 0.2-6.2-3-9.9 -0.5-10.9-3.5-18.4-8.8-21.3 4.7 0.5 6.4 0 6.4 0 -1.9-2.6-1.3-9-8.6-12.7 5.2 0.2 7.9-2.9 7.6-4.6 -12-5.4-9.2-28.2-28.5-32.2 5.6-1.2 8.9-5.6 8.9-5.6 -13.5 2.3-14.7-17.3-29.5-4.6C338.6 82.1 335.2 95.4 335.2 95.4z" class="i"/><path d="M378.4 176.4c0.7 3.3 6.5 4.4 8 8.7 1.8 6.5 6.2 16.3 13.1 11.6 1.1-0.7-3.3-0.7-4.4-2.5 -1.5-1.5-2.5-3.3-3.6-5.1 -2.2-2.2-1.8-5.8-0.4-8.7 2.5-5.1 2.5-12.7-0.7-16 -4.7-4.7-8.4-9.4-12.4-14.5 5.8 1.8 10.2 6.2 15.6 8.4 0.7-9.8-6.9-17.1-10.2-25.4 1.8-0.4 4.7 0.7 4.4-0.4 -1.8-5.4-9.1-5.8-12.7-10.5 -1.1-0.7-1.8-2.2-2.2-3.6 3.6 2.5 12.7 3.2 16.7 1.4 0.4 0-3.7-2.8-4-3.2 -1.5-1.1-3.6-1.1-4.7-2.5 -6.2-8.4-6.2-20.7-18.2-23.2 -2.9-0.4-5.4-0.7-7.6-2.5 4-0.4 8.4-2.5 9.4-6.5 -4.4 0.4-7.3-4-10.9-5.8 -1.9-1.2-3.9-1.3-6-0.9 -1 0.6-2 1.4-3.1 2.3 -5.9 4.9-9.4 18.2-9.4 18.2s21 5.6 28.1 37.9c1.8 8.7 3.3 17.3 5.2 25.5C373.2 163.4 376.9 169.1 378.4 176.4z" class="j"/><path d="M412.2 207.1l-0.1-0.5c-0.9-4.2-3.4-4.8-5.7-4.8 -1.2 0-2.6 0.2-4 0.4 -1.5 0.2-3.1 0.4-4.6 0.4 0 0 0 0 0 0 -3.5 0-6-1.2-7.9-3.8 -15.8-9.8-20.4-32.8-25.2-57.1 -0.5-2.7-1.1-5.5-1.6-8.3 -3.6-16.6-11-26-16.6-31 -6-5.3-11.3-6.8-11.3-6.8l-0.2 0 0-0.2c0-0.1 3.6-13.4 9.5-18.3 3.4-2.9 6.4-4.3 9-4.3 3.2 0 5.6 2 8.2 4.2 2.9 2.4 5.8 4.9 10.2 4.9 0.7 0 1.4-0.1 2.1-0.2l0.5-0.1 -0.3 0.4c0 0-3.1 4-8.2 5.4 10.6 2.6 14.3 11.1 17.7 18.6 2.6 5.8 5 11.2 10 13.5l0.1 0 0 0.1c0.1 0.7-0.2 1.5-0.9 2.3 -0.6 0.7-2.5 2.4-6.2 2.5 4.6 2.6 5.8 6.4 6.7 9.2 0.4 1.3 0.7 2.4 1.3 3.1l0.2 0.2 -0.2 0.1c0 0-0.8 0.3-2.7 0.3 -0.9 0-1.9-0.1-2.9-0.2 4.9 3.1 7.7 10.3 8.2 20.9 3.2 3.7 3.3 8.5 3 10l-0.1 0.8 -0.2-0.8c-0.7-2.4-3.5-3.9-6.4-5.5 -0.1 0-0.2-0.1-0.2-0.1 3.7 5 2.8 10.1 2 15.1 -1.1 6.2-2 11.5 6.2 15.6 7.1 1.8 9.9 4.9 11 7.2 1.1 2.5 0.7 4.9 0 6.2L412.2 207.1zM406.3 201.4c2.2 0 4.9 0.5 6 4.6 0.5-1.3 0.7-3.3-0.3-5.4 -1-2.3-3.7-5.3-10.7-7.1l0 0c-8.5-4.2-7.5-10-6.4-16 0.9-5.1 1.8-10.3-2.5-15.5l-0.6-0.7 0.8 0.5c0.3 0.2 0.7 0.4 1 0.5 2.7 1.5 5.3 2.9 6.3 5 0.1-1.9-0.3-5.9-3.1-9l0 0 0-0.1c-0.5-11-3.5-18.3-8.7-21.1l-0.8-0.4 0.9 0.1c1.4 0.2 2.6 0.2 3.7 0.2 1.3 0 2-0.1 2.4-0.2 -0.5-0.8-0.8-1.8-1.2-3 -1-3-2.1-6.8-7.2-9.4l-0.8-0.4 0.9 0c0.2 0 0.4 0 0.6 0 3.6 0 5.5-1.7 6.1-2.4 0.6-0.6 0.9-1.3 0.8-1.9 -5.1-2.3-7.5-7.8-10.1-13.6 -3.6-8-7.3-16.3-18.2-18.6l-0.8-0.2 0.8-0.2c4.5-1 7.5-4.1 8.5-5.1 -0.6 0.1-1.1 0.1-1.7 0.1 -4.6 0-7.6-2.5-10.5-5 -2.5-2.1-4.9-4.1-8-4.1 -2.6 0-5.4 1.4-8.8 4.3 -5.5 4.5-8.9 16.3-9.3 17.9 1 0.3 5.8 2 11.3 6.8 5.6 5 13.1 14.4 16.7 31.2 0.6 2.8 1.1 5.6 1.6 8.3 4.8 24.3 9.3 47.2 25 56.9l0.1 0.1c1.7 2.5 4.2 3.7 7.6 3.7h0c1.5 0 3.1-0.2 4.6-0.4C403.7 201.6 405.1 201.4 406.3 201.4z" class="k"/><path d="M389.3 174.8c0 0-2.7-4.9-9.1-7.9 -6.5-3-13.9-18.1-14.2-18.7l0.3-0.2c0.1 0.2 7.6 15.6 14 18.5C386.9 169.5 389.3 174.8 389.3 174.8z" class="k"/><path d="M362.6 116.4c-6.7-10.7-15.2-13.3-15.3-13.3l0.1-0.3c0.1 0 8.8 2.7 15.5 13.5 7 11.2 10.7 15.5 14.3 16.1C377.2 132.4 372.2 133.2 362.6 116.4z" class="k"/><path d="M359.4 100.3c-4.6-1.9-7.2-2-10.1-2 -3.2-0.1-6.9-0.2-14.2-2.7l0.1-0.3c7.2 2.5 10.9 2.6 14.1 2.7C356.6 98.2 359.4 100.3 359.4 100.3z" class="k"/><path d="M328.8 220c0 0-17.8 2.2-39.2-2 -1.6 2.9-5.6 21.3-1.7 30.5 1.3 3.1 8 5.6 3.5 10.4 2.5 2.5 13.1 5.3 5.1 20.7 -5.8 9.4-14 19.6-16.9-2.9 -2.2-4.9-0.2-10.2-1.8-11.6s-6.5-4.4-3.5-15.4c1.6-7.8 3.5-33.4 3.5-34.5 -2.4-3.3-2.7-7.1 1.8-10.4 3.6-2.5 8.2-1.1 8.2-1.1 6.4-1.3 37.8-9.1 37.8-9.1L328.8 220z" class="a"/><path d="M283.9 262.8c7.3-3.9 1.6-9.2-0.4-19 -1.9-9 2-23.9 5.8-29.7 9.1 3.6 23.9 0.7 27.6-1.8 3.1-2.7 3.7-13.2 4.8-16.9 -8.5 2.1-29 7.1-34 8.2 0 0-4.5-1.5-8.2 1.1 -4.5 3.3-4.2 7.1-1.8 10.4 0 1.1 0.3 26.3-1.3 34.1C273.4 260.1 279.4 265.1 283.9 262.8z" class="b"/><path d="M285.9 290.4c-3.2 0-5.3-4.5-6.5-13.7 -1.2-2.7-1.1-5.4-1.1-7.6 0-1.8 0-3.3-0.6-3.9 -0.1-0.1-0.3-0.2-0.4-0.4 -1.9-1.6-5.9-4.9-3.1-15.3 1.6-7.8 3.4-32.8 3.4-34.4 -1.4-1.9-1.9-3.8-1.6-5.6 0.3-1.8 1.5-3.5 3.5-5 1.5-1 3.2-1.5 5.2-1.5 1.6 0 2.8 0.3 3.1 0.4 6.4-1.3 37.4-9 37.8-9.1l0.2 0 3.4 25.8 -0.2 0c0 0-4.7 0.6-12 0.6 -9.2 0-18.6-0.9-27.1-2.6 -1.6 3.3-5.4 21.1-1.7 30.2 0.4 0.9 1.3 1.8 2.2 2.7 2.1 2.1 4.4 4.4 1.3 7.7 0.4 0.4 1 0.8 1.7 1.2 3.7 2.5 10 6.6 3.3 19.6C293.8 284.3 289.5 290.4 285.9 290.4zM284.7 203.4c-1.9 0-3.6 0.5-5 1.5 -2 1.4-3.1 3-3.4 4.7 -0.3 1.7 0.3 3.5 1.6 5.4l0 0v0.1c0 0.9-1.8 26.6-3.5 34.5 -2.8 10.1 1.1 13.3 3 14.9 0.2 0.1 0.3 0.3 0.4 0.4 0.8 0.7 0.8 2.3 0.8 4.2 0 2.2-0.1 4.9 1.1 7.5l0 0.1c1.2 8.9 3.2 13.4 6.2 13.4 3.5 0 7.6-6 10.4-10.6 6.6-12.7 0.5-16.7-3.2-19.1 -0.8-0.5-1.4-0.9-1.9-1.4l-0.1-0.1 0.1-0.1c3-3.1 0.9-5.3-1.2-7.3 -1-1-1.9-1.9-2.3-2.8 -3.8-9.3 0.2-27.7 1.7-30.7l0.1-0.1 0.1 0c8.6 1.7 18 2.6 27.2 2.6 6.4 0 10.8-0.4 11.7-0.5l-3.2-25.1c-2.7 0.7-31.6 7.8-37.6 9l0 0 0 0C287.7 203.8 286.4 203.4 284.7 203.4z" class="d"/><path d="M400.5 297.8c0 0-8.7 7.3-5.3 13.8 1.9 4.1-6.3 6.8-11.6 9 -5.8 2.3-17.9 9.4-23.2 19.9 -1.9 3.4 1.9 8.8-5.8 8.8 0.6 4 1.8 9.6-7.3 9.7s-25.8-2.5-25.9-5.8c0.4-2.9 9.2-9.3 11.9-11 3.8-2.5 8.7-13 16.8-13 4.7-2.4 23.9-17.2 23.4-21.7 -2.4-2.1-21.2-22.9-19.2-33.5C366 282.3 400.5 297.8 400.5 297.8z" class="a"/><path d="M373 291.7c1.3 3 2 4.5-0.1 6.1 -1.2 1-2.8 1.2-4.5 0.9 3.6 3.6 6.6 6.2 7.4 6.9 3.9 2.8-18.5 21.5-23.2 23.9 -0.9 0-11.5 2.4-8.6 10.4 1.5 4.4 8.9 5.9 11.1 2.1 5.9-9.1 16.1-18.7 29.9-26.7C393.3 309.5 388.3 303.6 373 291.7z" class="b"/><path d="M346.6 359.2c-8.6 0-25.4-2.5-25.5-6 0.4-3.2 10.1-10 12-11.2 1.2-0.8 2.4-2.3 3.9-4.1 3.3-4 7.3-8.9 13-8.9 5-2.6 23.5-17 23.2-21.4 -3.2-2.8-21.1-23.2-19.2-33.6l0.1-0.3 0.2 0.2c11.6 8.2 45.9 23.6 46.3 23.8l0.3 0.1 -0.2 0.2c-0.1 0.1-8.6 7.2-5.3 13.6 0.4 0.8 0.4 1.6 0.1 2.4 -1.1 2.7-6.2 4.7-10.4 6.3 -0.5 0.2-1 0.4-1.4 0.6 -5.7 2.2-17.8 9.3-23.2 19.8 -0.6 1.1-0.6 2.4-0.6 3.7 0 1.4 0 2.6-0.7 3.6 -0.7 1.1-2.2 1.6-4.5 1.6l0 0.2c0.4 2.3 0.8 5.3-0.8 7.2 -1.2 1.5-3.4 2.2-6.7 2.2C347 359.2 346.8 359.2 346.6 359.2zM350 329.4c-5.5 0-9.5 4.9-12.7 8.8 -1.5 1.8-2.8 3.4-4 4.2 -2.9 1.9-11.4 8.1-11.8 10.9 0.1 3 15.7 5.6 25.1 5.6 0.2 0 0.4 0 0.6 0 3.1 0 5.2-0.7 6.4-2.1 1.5-1.8 1.1-4.5 0.8-6.9l-0.1-0.7h0.2c2.3 0 3.7-0.5 4.4-1.5 0.6-0.9 0.6-2.1 0.6-3.4 0-1.3 0-2.7 0.7-3.9 5.4-10.6 17.6-17.7 23.3-19.9 0.5-0.2 0.9-0.4 1.4-0.6 4.1-1.6 9.2-3.6 10.2-6.1 0.3-0.7 0.2-1.3-0.1-2.1 -3.1-6 3.8-12.6 5.2-13.8 -3.2-1.4-34.5-15.7-45.8-23.5 -1.6 10.4 16.2 30.5 19.2 33l0.1 0 0 0.1c0.5 4.8-19.1 19.6-23.5 21.9l0 0H350z" class="d"/><path d="M325.1 157.1c0 0 3 4.8 0 20.6 -3 15.8-7.4 36.6 3.8 49.9 2.7 14.8 28.9 78 91.5 74.1 17.4-0.5 27.2-51.2 3.3-62.1 -20.7-10.4-28.9-27.3-32.1-32.6 -0.2-4.6-2.2-17.1-13.8-26.1 -4.1-11-7.3-27.3-10.2-42.8 -2.9-15.6-9.9-36.9-30.6-45.1C334.1 100.8 325.1 157.1 325.1 157.1z" class="a"/><path d="M325.1 157.1c0 0 3 4.8 0 20.6 -3 15.8-3.9 33.2 10.1 52.8 2.7 14.8 21.1 51.8 77.8 49.8 17.4-0.5 34.7-29.8 10.7-40.7 -20.7-10.4-28.9-27.3-32.1-32.6 -0.2-4.6-2.2-17.1-13.8-26.1 -4.1-11-7.3-27.3-10.2-42.8 -2.9-15.6-9.9-36.9-30.6-45.1C334.1 100.8 325.1 157.1 325.1 157.1z" class="b"/><path d="M423.6 239.6c-20.7-10.4-28.9-27.3-32.1-32.6 -0.2-4.6-2.2-17.1-13.8-26.1 -4.1-11-7.3-27.3-10.2-42.8 -2.9-15.6-9.9-36.9-30.6-45.1 -1.5 4.1-4.7 21.5-7.4 37.1 4.9 2.6 11 4.3 16.1 6.8 1.6 12.2-4 20.9-6.2 24.5 -8.7 13.8-11.9 18.8-12.7 34.4 -0.4 9.1 2.5 16.1 8.3 23.3 1.1 1.1 5.7 33.4 38.9 39.7 18.5-21.6 42-12.9 60.8-2.3C436.7 250.8 434.1 244.4 423.6 239.6z" class="c"/><path d="M415 302.1c0 0 0 0 0 0 -13.6 0-26.4-3.2-38-9.6 -9.7-5.3-18.5-12.8-26.3-22.2 -13.3-16.1-20.6-34.6-22-42.6 -10.8-13-7.1-32.7-4-48.6l0.3-1.4c2.9-15.5 0.1-20.4 0-20.4l0-0.1 0-0.1c0.1-0.6 9.1-56.4 11.9-64.2l0.1-0.2 0.2 0.1c9.3 3.7 16.7 10.4 22.1 19.9 3.9 7 6.8 15.3 8.7 25.4 3.1 16.5 6.2 32.1 10.1 42.8 12 9.3 13.6 22.3 13.8 26.2 0.3 0.4 0.6 1 0.9 1.6 3.6 6.4 12.2 21.5 31.1 30.9 13.4 6.1 16.3 24.4 13.3 39.8 -2.2 11.1-8.2 22.4-16.6 22.7C418.6 302 416.7 302.1 415 302.1zM325.2 157.1c0.4 0.6 2.8 5.7 0 20.6l-0.3 1.4c-3 15.8-6.8 35.5 4 48.3l0 0 0 0c1.4 7.9 8.7 26.3 22 42.4 11.9 14.5 32.7 31.7 64 31.7 0 0 0 0 0 0 1.8 0 3.6-0.1 5.4-0.2 8.2-0.3 14.1-11.4 16.3-22.4 3.1-15.2 0.2-33.3-13.1-39.4 -19-9.5-27.6-24.6-31.2-31.1 -0.3-0.6-0.7-1.1-0.9-1.6l0 0 0 0c-0.2-3.7-1.8-16.7-13.7-26l0 0 0 0c-4-10.7-7.1-26.4-10.2-42.9 -4.4-23.5-14.6-38.6-30.3-44.9C334.2 101.5 325.6 154.9 325.2 157.1z" class="d"/><path d="M341.9 170.4c-0.8-7.5-1.3-17.4-0.7-30l0.4 0c-1.6 33.3 4.4 48.1 4.5 48.3C346 188.7 343.2 182.9 341.9 170.4z" class="d"/><path d="M441.8 258.4c0 0 4.7-4.8 7.9-7.3 3.7-2.8 13.2-3.4 9.3 10.5 -3.9 13.9-5.9 22.3-5.2 29.7s2.8 21.5 17.7 27.3c6.7 3.8 16.7 7.6 27.8 0 10.4-6.2 10-22.5 16.9-10.4 1.6-6.5-4.7-21.2-17.3-15.4 -2.7 1.1-10.5-1.1-7.8-9.9 2.7-8.8 5.3-24.1 4.4-27.3 1.1-3.3 6.5-30.7-12.9-38.5 -13.3-4.2-28.3 0.4-32.7 14.7 -4.4 12.9-6.6 19-10.2 21.3C439.9 255.4 441.8 258.4 441.8 258.4z" class="i"/><path d="M501.4 300.4c3.8-3.5 7.3-4.2 10.5-3.9 -7.3-7.4-9.8-1.4-20.2 0.2 -13.8 1.9-13.6-12.2-13.6-12.2 1.7 3 2.2 12.9 15.2 9.3 -9-3.3-6.9-11.3-6-13 6.2-10.9 5.9-27.7 1.9-39 -2.9-8.4-12.8-12.5-23.3-16.8 5.4-3.6 21.4 0 26.5 11.1 0-16.2-11.7-19.8-18.4-20.5 -10.6-0.3-20.7 4.9-24.1 16.2 -4.4 12.9-6.6 19-10.2 21.3 0.2 2.4 2.1 5.3 2.1 5.3s4.7-4.8 7.9-7.3c3.7-2.8 13.2-3.4 9.3 10.5 -3.9 13.9-5.9 22.3-5.2 29.7 0 0.2 0 0.3 0.1 0.5 0.8 2.4 0.7 8.6 6.4 8.6 1.1-0.4-1.9-9.2-1.6-11.8 6.2 14.9 12 36.9 36.7 28.3 4.3-1.5 7.6-7.6 8.7-12.4 -4.7 3.6-9 4.2-14.8 2.8 -2.2-0.4-4.6-1.6-5.6-3.8 -0.3-0.5-0.6-1.1-0.9-1.6 0 0 0 0 0 0C491.5 306 498.5 303.5 501.4 300.4z" class="j"/><path d="M486 323.2c-4.6 0-9.3-1.4-14.6-4.4 -14.1-5.5-16.9-18.3-17.8-27.4 -0.7-7.6 1.5-16.3 5.2-29.7 1.3-4.6 1.2-8.1-0.3-10.1 -1.1-1.5-2.8-1.8-4-1.8 -1.7 0-3.5 0.6-4.8 1.6 -3.2 2.4-7.8 7.2-7.9 7.2l-0.2 0.2 -0.1-0.2c-0.1-0.1-1.9-3-2.1-5.4l0-0.1 0.1-0.1c3.6-2.3 5.8-8.5 10.1-21.2 3.1-10.1 12-16.3 23.3-16.3 3.2 0 6.4 0.5 9.6 1.5 10.3 4.1 13.4 13.8 14.3 21.1 1 8.4-0.7 16-1.2 17.6 0.9 3.5-1.8 19-4.4 27.4 -0.9 3-0.7 5.5 0.6 7.3 1.4 1.9 3.8 2.6 5.4 2.6 0.6 0 1.1-0.1 1.5-0.2 1.9-0.9 3.8-1.3 5.6-1.3 4.2 0 7 2.5 8.6 4.5 2.8 3.6 4.2 8.9 3.3 12.4l-0.1 0.4 -0.2-0.4c-1.7-2.9-2.9-4.2-4-4.2 -1.3 0-2.5 2-3.9 4.5 -1.9 3.4-4.4 7.6-8.7 10.2C495.2 321.7 490.6 323.2 486 323.2zM454.6 249.3c1.3 0 3.1 0.3 4.3 1.9 1.6 2.1 1.7 5.6 0.4 10.4 -3.7 13.4-5.9 22.1-5.2 29.6 0.9 9.1 3.7 21.7 17.6 27.2 5.3 3 9.8 4.4 14.4 4.4 4.5 0 9-1.5 13.2-4.4 4.2-2.5 6.6-6.7 8.6-10 1.6-2.7 2.7-4.7 4.2-4.7 1.2 0 2.5 1.2 4.1 4 0.6-3.4-0.8-8.3-3.3-11.6 -1.6-2-4.3-4.4-8.3-4.4 -1.7 0-3.6 0.4-5.4 1.3 -0.5 0.2-1 0.3-1.7 0.3 -1.7 0-4.2-0.7-5.7-2.8 -1.4-1.9-1.6-4.5-0.7-7.6 2.8-9.1 5.2-24.1 4.4-27.2l0-0.1 0-0.1c0.5-1.4 2.2-9 1.2-17.5 -0.8-7.2-3.9-16.7-14-20.8 -3.1-1-6.3-1.5-9.5-1.5 -11.2 0-20 6.2-23 16.1 -4.3 12.7-6.5 18.9-10.2 21.3 0.2 1.9 1.5 4.3 1.9 4.9 0.9-0.9 4.9-5 7.7-7.1C450.9 249.9 452.8 249.3 454.6 249.3z" class="k"/><path d="M345.7 136.8c0 0 1.5 16.2-21 24.9 -2.4 6.5-3.9 9.7-4.1 11.4 1.2 4.1 3.1 17-9.7 21.3 -9.2 3.1-14 0.5-14.3-13.3 5.1-37.5-27.6-40.7-12.1-69.3 13.8-25.2 40.7-26.6 56.9-19.1L345.7 136.8z" class="a"/><path d="M345.7 136.8c0 0-2.3 16.8-24.8 25.6 0.6 2.6-0.9 6.2-2.1 7.6 1.2 4.1 3.8 17.2-9 21.5 -9.2 3.1-9.2-0.1-9.4-13.9 5.1-37.5-32.4-34.8-15.8-65.8 13.8-25.2 40.7-26.6 56.9-19.1L345.7 136.8z" class="b"/><path d="M345.7 136.8c0 0 4-7.9 2.3-24.9 -1.4-13.8-6.5-19.2-6.5-19.2 -16.2-7.5-43.1-6.1-56.9 19.1 -3.8 7.1-4.5 12.4-3.4 16.9 8-0.2 9.1 8.1 9.8 15.7 5.8 7.5 11.6 16.7 9.4 33.2 8-9.7 11.4-11.9 12.5-11.1 0.4 1.3 3.6 11.1-1 20.9 8.2-3.8 6-15.5 4.8-19.6 1.2-1.4 2-5.4 1.4-8C340.6 151.1 345.7 136.8 345.7 136.8z" class="c"/><path d="M287.1 129c0 0 16 2.1 19-8.2 9.5-2.6 4.5-26 17.5-23.1 2.5-2.1 3.3-6.9 3.3-6.9s-15.9-5.7-19.4 14.1C303.2 121.7 295.7 127.5 287.1 129z" class="b"/><path d="M305 195.8c-1.7 0-3.1-0.4-4.2-1.2 -2.8-2-4.1-6.2-4.3-13.5 2.4-18-3.8-28-9.3-36.8 -5.9-9.4-10.9-17.6-2.8-32.5 7.9-14.5 19.4-19.9 27.7-21.9 9.8-2.4 20.6-1.4 29.5 2.7l-0.2 0.3c-17.9-8.3-43.9-4.4-56.7 19.1 -8 14.7-3 22.8 2.8 32.1 5.5 8.9 11.8 19 9.3 37.1 0.1 7 1.5 11.3 4.1 13.2 2.2 1.5 5.4 1.5 9.9 0 13.9-4.7 10.1-19.4 9.6-21.1l0 0 0 0c0.2-1.1 0.8-2.8 1.9-5.7 0.6-1.5 1.3-3.4 2.2-5.7l0-0.1 0.1 0c11.6-4.5 16.6-11.1 18.9-15.9 2.4-5.2 2.1-9.3 2.1-9.4 0 0 0.7 4.3-1.7 9.5 -2.2 4.8-7.4 11.5-19 16 -0.8 2.3-1.6 4.1-2.2 5.7 -1.1 2.8-1.7 4.5-1.9 5.6 0.5 1.9 4.3 16.7-9.8 21.5C308.6 195.4 306.6 195.8 305 195.8z" class="d"/><path d="M320.7 174.2c-0.4-2.7-2.6-4.9-2.7-4.9 0 0 2.5 2 3 4.8L320.7 174.2z" class="d"/><path d="M320.9 162.4c0 0 2.9-0.4 5.2-1.4l0.1 0.3C323.9 162.4 320.9 162.4 320.9 162.4z" class="d"/><path d="M311.2 166.6c0 0 5.1 19.4-5.4 23.8 -4.3 2-4-8-4-9.3C304.8 175.3 311.2 166.6 311.2 166.6z" fill="#6B0800"/><path d="M311.2 166.6c0 0-5.5 7.5-8.7 13.3 1.4 5.7 4 8 5.9 8.9C315.3 182.6 311.2 166.6 311.2 166.6z" fill="#F36962"/><path d="M310.1 177.8c-0.5-1.6-3.9 4.6-6.7 4.9 1.2 3 2.7 4.6 4.1 5.5C309.9 185.5 311.4 181.4 310.1 177.8z" fill="#F58983"/><path d="M308.3 189l-0.1-0.1c-1.9-1-4.5-3.4-5.9-9.1l0-0.1 0-0.1c3.2-5.7 8.7-13.2 8.8-13.3l0.2-0.3 0.1 0.4c0 0.2 4.1 16.2-3 22.4L308.3 189zM302.6 179.9c1.4 5.4 3.8 7.7 5.6 8.7 6.2-5.6 3.4-19.1 2.8-21.6C310 168.5 305.4 174.9 302.6 179.9z" fill="#A12A22"/><path d="M304.7 190.8c-0.5 0-1-0.2-1.4-0.6 -1.2-1.2-1.8-4.2-1.7-8.9l0-0.3 0 0c3.1-5.8 9.4-14.5 9.5-14.6l0.2-0.3 0.1 0.4c0.1 0.2 5 19.6-5.6 24C305.4 190.7 305 190.8 304.7 190.8zM301.9 181.1l0 0.2c0 5.7 0.9 7.8 1.6 8.6 0.6 0.6 1.2 0.6 2.1 0.2 9.5-3.9 6.1-20.5 5.4-23.2C309.9 168.6 304.6 176 301.9 181.1z" class="d"/><path d="M284.4 186.9c-1.7-0.7-3.1-2.1-3.1-2.2l0.3-0.3c0 0 1.4 1.4 3 2.1L284.4 186.9z"/><path d="M281.9 183.6c0 0-8.7 0.8-10.7-8.3 -1.1-5.6 5.3-8.8 6.7-8.2C278.3 170.6 281.9 183.6 281.9 183.6z" class="b"/><path d="M281.3 183.8c-2 0-8.6-0.6-10.4-8.5 -0.5-2.5 0.5-4.4 1.5-5.6 1.7-2.1 4.5-3.2 5.5-2.8l0.1 0 0 0.1c0.5 3.4 4 16.3 4 16.5l0.1 0.2 -0.2 0C281.9 183.8 281.7 183.8 281.3 183.8zM277.4 167.2c-1.2 0-3.3 1.1-4.7 2.8 -0.9 1.1-1.9 2.9-1.4 5.3 1.7 7.6 8.1 8.2 10 8.2 0.1 0 0.2 0 0.3 0 -0.5-1.7-3.4-12.9-3.9-16.2C277.6 167.3 277.5 167.2 277.4 167.2z" class="d"/><path d="M332 124.3c1.7 6.6-2.5 13.3-9.3 15.1s-9.9-0.2-13.7-2.1c-2.5-6.7-5.5-17.6 0.8-20.9C316.9 112.6 328.2 119.2 332 124.3z" class="b"/><path d="M328.5 127.2c1.4 5.5-2.1 11.2-7.8 12.6 -5.7 1.5-8.3-0.2-11.5-1.8 -2.1-5.6-4.6-14.8 0.6-17.5C315.8 117.4 325.3 123 328.5 127.2z" class="l"/><path d="M316.6 140.6c-2.9 0-4.8-1-6.9-2 -0.2-0.1-0.4-0.2-0.7-0.3l-0.1 0 0-0.1c-2.5-6.6-4.4-15.1 0.7-17.7 1.2-0.6 2.6-0.9 4.1-0.9 5.9 0 12.4 4.4 14.8 7.6l0 0.1c1.4 5.6-2.1 11.4-7.9 12.9C319.2 140.4 317.9 140.6 316.6 140.6zM309.3 137.9c0.2 0.1 0.4 0.2 0.6 0.3 2 1 3.9 2 6.7 2 1.2 0 2.6-0.2 4.1-0.6 5.6-1.5 9.1-7 7.7-12.4 -2.7-3.5-9.3-7.5-14.5-7.5 -1.5 0-2.8 0.3-3.9 0.9C305 123.2 306.9 131.5 309.3 137.9z"/><ellipse transform="matrix(0.9395 -0.3425 0.3425 0.9395 -24.8419 116.9174)" cx="318.6" cy="128.8" rx="6.2" ry="8.3" class="m"/><path d="M319.8 137c-2.9 0-5.9-2.5-7.2-6 -1.6-4.4-0.2-8.9 3.1-10.1 0.5-0.2 1.1-0.3 1.7-0.3 2.9 0 5.9 2.5 7.2 6 1.6 4.4 0.2 8.9-3.1 10.1C320.9 136.9 320.4 137 319.8 137zM317.4 120.9c-0.5 0-1.1 0.1-1.6 0.3 -3.1 1.1-4.4 5.5-2.9 9.7 1.2 3.4 4.1 5.8 6.8 5.8 0.5 0 1.1-0.1 1.6-0.3 3.1-1.1 4.4-5.5 2.9-9.7C323 123.3 320.2 120.9 317.4 120.9z" class="n"/><ellipse transform="matrix(0.8817 -0.4719 0.4719 0.8817 -31.1361 151.6446)" cx="286.8" cy="137.9" rx="5.2" ry="8.2" class="l"/><path d="M288.9 145.7c-2.5 0-5.2-2.1-6.9-5.2 -2.2-4.1-1.8-8.5 0.8-9.9 0.5-0.3 1.1-0.4 1.8-0.4 2.5 0 5.2 2.1 6.9 5.2 1 2 1.5 4.1 1.4 5.9 -0.1 1.9-0.9 3.3-2.2 4C290.2 145.6 289.6 145.7 288.9 145.7zM284.6 130.5c-0.6 0-1.1 0.1-1.6 0.4 -2.5 1.3-2.8 5.5-0.7 9.4 1.6 3 4.3 5.1 6.6 5.1 0.6 0 1.1-0.1 1.6-0.4 1.2-0.6 1.9-1.9 2-3.7 0.1-1.8-0.3-3.8-1.4-5.7C289.6 132.5 287 130.5 284.6 130.5z"/><ellipse transform="matrix(0.9713 -0.2377 0.2377 0.9713 -24.5507 72.5456)" cx="288.5" cy="138.1" rx="3.2" ry="4.9" class="m"/><path d="M289.2 143.1c-1.7 0-3.3-1.8-3.9-4.2 -0.7-2.7 0.3-5.3 2.1-5.7 0.2 0 0.4-0.1 0.5-0.1 1.7 0 3.3 1.8 3.9 4.2 0.7 2.7-0.3 5.3-2.1 5.7C289.6 143 289.4 143.1 289.2 143.1zM287.9 133.5c-0.2 0-0.3 0-0.5 0.1 -1.6 0.4-2.4 2.8-1.8 5.3 0.5 2.2 2.1 3.9 3.6 3.9 0.2 0 0.3 0 0.5-0.1 1.6-0.4 2.4-2.8 1.8-5.3C290.9 135.1 289.4 133.5 287.9 133.5z" class="n"/><ellipse transform="matrix(0.9254 -0.3791 0.3791 0.9254 -30.7954 119.7347)" cx="288.7" cy="138.1" rx="2.7" ry="3.6"/><circle cx="287.1" cy="136.9" r="1.2" class="l"/><circle cx="289.5" cy="136" r="0.6" class="l"/><path d="M280.8 134.3c-4.2-1.2-4.5-4.4-4.5-4.4 0.7 3.2 4.5 4.1 4.5 4.1L280.8 134.3z"/><path d="M281.2 134.7c-4.1 1.7-6.2-0.8-6.2-0.8 2.5 2.1 6 0.5 6.1 0.4L281.2 134.7z"/><path d="M326.1 95.9c0 0-8.3-4.2-13.1 3.5 -4.8 7.6-2.8 17.1-9.9 21.4 -2.2 5-6.2 8.6-16.1 8.1 3.9-1.5 8.7-4.4 1.5-10.7 -5.4-3.6-18.7-18.7-3.3-38 9.9-11.4 16.9-12.2 16.9-12.2 -2.4-0.9-4.7-3.3-4.7-3.3 2.5 0.5 19.3-4.4 23.5-2 -1.4-2-3.1-3.5-3.1-3.5 2.5-0.5 13.8-1.1 19.2 10.7C336.8 76.8 326.1 95.9 326.1 95.9z" class="i"/><path d="M317.7 59.2c0 0 1.8 1.5 3.1 3.5 -4.3-2.4-21 2.5-23.5 2 0 0 2.4 2.4 4.8 3.3 0 0-6.9 0.7-16.9 12.2 -15.4 19.3-2.1 34.4 3.3 38 7.2 6.4 2.4 9.3-1.5 10.7 0.4 0 0.7 0 1.1 0 5.6-1 10.7-4 11-10.2 0.4-5.1-0.7-10.2-1.8-15.3 1.8 3.3 4 6.2 6.5 8.7 1.1-8.4 4.4-18.5 14.2-18.9 -2.5-4.7-10-0.2-12.9-3.1 -1.5-1.5 5.3-4.9 6.8-5.2 9.1-1.1 13.4-2.9 18.5-10.2 2-2.9 2.9-6.2 3.3-9.8C327.9 58.3 319.8 58.8 317.7 59.2z" class="j"/><path d="M289 129c-0.6 0-1.3 0-1.9-0.1l-0.9 0 0.8-0.3c3.1-1.1 4.7-2.5 5-4.1 0.3-1.7-0.9-3.9-3.6-6.3 -3-2-9-8-10.3-16.6 -1.1-7.2 1.2-14.5 7-21.6 8.3-9.6 14.4-11.7 16.4-12.1 -2.2-1-4.2-3-4.2-3.1l-0.4-0.4 0.6 0.1c0.1 0 0.3 0 0.5 0 1.2 0 3.7-0.5 6.5-1 4.1-0.8 9.1-1.7 12.7-1.7 1.4 0 2.4 0.1 3.2 0.4 -1.3-1.7-2.7-2.9-2.7-2.9l-0.3-0.2 0.4-0.1c0.3-0.1 1.2-0.2 2.6-0.2 3.5 0 12.2 1.1 16.8 11.1l0 0 0 0C336.9 76.8 326.7 95.2 326.3 96l-0.1 0.2 -0.2-0.1c0 0-2.3-1.1-5-1.1 -3.3 0-5.9 1.5-7.8 4.5 -2 3.1-2.8 6.5-3.6 9.8 -1.1 4.6-2.1 9-6.3 11.6C300.8 126.5 296.4 129 289 129zM287.9 128.6c0.4 0 0.7 0 1 0 9.3 0 12.4-4.3 14-8l0-0.1 0.1 0c4.1-2.5 5.1-6.8 6.2-11.4 0.8-3.3 1.6-6.8 3.6-9.9 1.9-3.1 4.7-4.7 8.1-4.7 2.5 0 4.5 0.8 5 1.1 1-1.8 10.5-19.2 10.7-25.7 -4.5-9.7-13-10.8-16.4-10.8 -0.8 0-1.6 0.1-2.2 0.2 0.6 0.5 1.8 1.7 2.9 3.2l0.4 0.6 -0.7-0.4c-0.7-0.4-2-0.6-3.7-0.6 -3.6 0-8.6 0.9-12.7 1.7 -2.9 0.5-5.4 1-6.6 1 0.8 0.7 2.5 2.2 4.3 2.9l0.7 0.3 -0.8 0.1c-0.1 0-7 0.9-16.7 12.1 -5.6 7.1-8 14.2-6.9 21.3 1.3 8.4 7.2 14.4 10.1 16.4 2.8 2.5 4.1 4.7 3.7 6.6C292.1 126.2 290.6 127.5 287.9 128.6z" class="k"/><path d="M303.3 120.8l-0.4-0.1c1.2-4.8-2.7-9.7-2.7-9.8C300.3 110.9 304.6 115.8 303.3 120.8z" class="k"/><path d="M326 96c-8.6-12.8-18.3-7.2-18.4-7.1 0 0 9.9-6.1 18.7 6.9L326 96z" class="k"/><path d="M312 69.3c-3.1-1.7-9.8-1.1-9.9-1.1l0-0.4C310.2 67.1 312 69.3 312 69.3z" class="k"/><path d="M324.9 66.5c-0.6-1.2-4.1-3.7-4.1-3.7l0.2-0.3C325.1 65.9 324.9 66.5 324.9 66.5z" class="k"/><path d="M288.4 118.2c-8.3-19 2.2-22.6 2.2-22.6 -10.1 5.9-1.9 22.3-1.8 22.5L288.4 118.2z" class="k"/><path d="M319.4 98.6c0 0 3.6-2.7 3.6-12.3 -0.1-9 3.2-19.5 18.7-28.2 6.8-4 10.8-7.9 8.5 9.8 0.2 9.1-0.4 27.3-21.3 35.3L319.4 98.6z" class="a"/><path d="M319.4 98.6c0 0 3.6-2.7 3.6-12.3 -0.1-9 3.2-19.5 18.7-28.2 6.8-4 9.1-4.4 6.7 9.6 0.2 9.1 1.6 24.1-19.5 35.5L319.4 98.6z" class="b"/><path d="M345.7 60.7c5.1-3.4-0.5-4.8-4.1-2.6 -15.5 8.7-18.8 19.2-18.7 28.2 0.1 9.6-3.6 12.3-3.6 12.3s0 3 3.6 4.6c3 1.3 5.3 0.3 5.8 0.1C336.2 98.4 322.8 70.2 345.7 60.7z" class="c"/><path d="M328.7 103.2c19.7-7.9 21.5-24 21.2-35.3 1-7.9 0.9-11.9-0.6-12.8 -1.2-0.8-3.3 0.5-6 2.2 -0.5 0.3-1.1 0.7-1.6 1 -12.6 7.1-18.7 16.3-18.6 28.1 0 3.9-0.5 6.8-1.2 8.7 -1 2.8-2.5 3.6-2.5 3.6 0 0 3.5-2.9 3.4-12.3 -0.1-11.9 6-21.2 18.8-28.4 0.6-0.3 1.1-0.7 1.6-1 2.8-1.7 5-3 6.4-2.2 1.6 1 1.8 4.9 0.7 13.1 0.3 10.6-1.3 25.3-17.3 33.7C331.7 102.3 328.7 103.2 328.7 103.2z" class="d"/><path d="M327 100.8c0 0 4.4-2.7 4.7-13.4 0.4-10.7 0.6-20 15.3-25.5C347.1 67.1 353.6 90.8 327 100.8z" class="e"/><path d="M347 61.9c-4.8 1.8-8 4-10.2 6.5 2.3-0.1 4.5 0.8 5.3 3 1.1 4.7-1.1 8-4.7 11.3 -1.1 1.5-1.1 3.3-0.4 4.7 0.7 1.9 3.1 2.8 5.3 2.7C350.5 79.1 347.1 65.7 347 61.9z" class="f"/><path d="M347 61.9c-4.3 1.6-7.4 3.6-9.6 5.8 3-0.4 6-0.5 6.8 2.2 1.8 5.4-3.3 10.2-2.5 15.3 0.2 1.1 1.1 2 2.2 2.5C350 77.3 347.1 65.4 347 61.9z" class="g"/><path d="M325.4 101.6l1.5-0.9c0 0 4.3-2.8 4.6-13.3l0-0.2c0.4-10.7 0.7-20 15.4-25.4l0.2-0.1 0 0.3c0 0.6 0.1 1.4 0.2 2.5 0.5 4.1 1.3 10.9-1 17.9 -2.7 8.5-9.3 14.8-19.4 18.6L325.4 101.6zM346.8 62.2c-14.2 5.4-14.5 14.5-14.9 25l0 0.2c-0.3 7.9-2.7 11.5-4 12.9 22.3-8.9 20.1-27.7 19.1-35.8C346.9 63.5 346.9 62.8 346.8 62.2z" class="h"/><path d="M346.7 62.2l-0.1-0.3c0 0 3.4-1.2 3.4-1.2C348.9 61.1 346.8 62.2 346.7 62.2z" class="h"/><path d="M399.7 193.9c-7.4 0-10-7.1-10-7.1 4.7 8.6 12.1 6.5 12.1 6.5l0.1 0.3C401.9 193.6 401 193.9 399.7 193.9z" class="k"/><path d="M397.1 202.5c-0.9 0-1.5-0.1-1.5-0.1l0.1-0.4c0.1 0 5.6 1.1 9.8-3.7C405.5 198.3 402.9 202.5 397.1 202.5z" class="k"/><path d="M392.5 162c-12.2-5.9-15.1-14.7-15.1-14.7 5 9.3 15.2 14.3 15.3 14.3L392.5 162z" class="k"/><path d="M386.5 124.4c-6.3 0-14.7-5.9-14.7-5.9 0.1 0.1 10.1 6.6 16.3 5.4l0.1 0.4C387.6 124.4 387.1 124.4 386.5 124.4z" class="k"/><path d="M361 88.3c0 0 3.1-1.5 5.2-0.8l-0.1 0.3C364.1 87.2 361 88.3 361 88.3z" class="k"/><path d="M279.6 276.8c2.9 22.4 11.1 12.2 16.9 2.8 5.5-10.6 2.3-15.2-1.1-17.8C289.5 273.5 283 276.2 279.6 276.8z" class="o"/><path d="M289.7 270.4c-4 4.6-7.7 6-10.1 6.4 1.8 14 5.7 15.3 9.8 11.9C291.6 282.7 292.1 276.2 289.7 270.4z" class="p"/><path d="M279.6 276.8c1.2 9.4 3.4 13 5.9 13.4 -2.9-2.9-4.1-9.9-4.6-13.7C280.4 276.6 280 276.7 279.6 276.8z" class="q"/><path d="M285.9 290.4L285.9 290.4c-3.2 0-5.3-4.5-6.5-13.6l0-0.2 0.2 0c3.3-0.5 9.8-3.2 15.6-15l0.1-0.2 0.2 0.1c3.2 2.5 6.8 7.2 1.2 18.1C293.8 284.3 289.5 290.4 285.9 290.4zM279.8 276.9c1.2 8.7 3.2 13.1 6.1 13.1 3.5 0 7.6-6 10.4-10.6 5.4-10.5 2.2-15-0.9-17.5C289.6 273.5 283.2 276.3 279.8 276.9z" class="r"/><path d="M362.1 221.6c0 0 5.3 11.8-20.9 16.2 -22.3 3.6-29.6 6.8-28.1 9 1.5 2.2 22.3 20.8 26.2 21.6 3.9 0.7 6.1-1.9 8.7 3.4 3.1 2.7 12.6-5.8 16.7 0 4.1 5.8 7.8 21.1 6.1 24.2 -1.7 2.2-19.9-6.3-26.6-10.2 -5.1-2.7-10.2-0.2-15.3-8.7 -4.8-6.1-23.7-24.7-26.4-26.6 -7-1.9-7.7-5.8-7.7-9.2s2.4-5.6 7.5-6.1c8.2-1.5 22.4-28.8 41.7-34.5L362.1 221.6z" class="a"/><path d="M348.9 282.8c5.9-2 0.8-8.7-3.2-9.1 -6.4 1-28.5-18.2-35.2-27.4 4-7.2 22.1-9.5 32.9-11.3 7.8-1.7 14.1-2.7 18.9-9.3 0.5-2.4-0.3-4.1-0.3-4.1l-18.2-21c-19.3 5.7-33.4 33-41.7 34.5 -5.1 0.5-7.5 2.7-7.5 6.1s0.7 7.3 7.8 9.2c2.7 1.9 21.8 17.6 26.6 23.7C334.1 282.5 345.7 283.9 348.9 282.8z" class="b"/><path d="M307.4 243.9c5-4.7 8.2-5.4 14.3-7.9 8-2.9 38.8-2.2 40.4-14.3 1.6-12.2-18.2-21-18.2-21 -19.3 5.7-33.4 33-41.7 34.5 -4.3 0.4-4.1 3-4.8 5.5C297.4 247.7 304 247.1 307.4 243.9z" class="c"/><path d="M369.6 296.4c-4.8 0-20.1-7.4-25.6-10.5 -1.6-0.8-3.2-1.2-4.8-1.5 -3.4-0.7-7-1.4-10.5-7.3 -4.9-6.2-23.8-24.7-26.3-26.6 -6.9-1.9-7.9-5.6-7.9-9.4 0-3.6 2.7-5.8 7.7-6.2 3.3-0.6 7.8-5.7 13-11.5 6-6.7 13-14.8 21.3-19.7 4.1-2.4 7.7-3.1 7.7-3.1 -11.5 3.6-21 14.4-28.7 23.1 -5.5 6.2-9.8 11-13.2 11.7 -4.8 0.5-7.4 2.5-7.4 5.9 0 3.6 0.9 7.2 7.6 9l0.1 0c2.8 2 21.8 20.8 26.4 26.7 3.4 5.7 6.8 6.4 10.3 7.1 1.6 0.3 3.3 0.7 4.9 1.5 7.9 4.5 24.9 12.1 26.4 10.2 1.6-2.9-1.8-18-6.1-24 -2.3-3.3-6.4-1.8-10.1-0.6 -2.7 0.9-5.2 1.8-6.6 0.6l0-0.1c-1.8-3.6-3.3-3.4-5.4-3.2 -0.9 0.1-2 0.2-3.2 0 -4-0.8-25-19.7-26.3-21.6 -0.2-0.4-0.3-0.7-0.1-1.1 1.1-2.5 10.9-5.3 28.4-8.1 13.6-2.3 18.5-6.6 20.3-9.8 1.8-3.3 0.7-6.2 0.6-6.2 0 0 1.6 2.9-0.3 6.4 -1.8 3.3-6.8 7.7-20.6 10 -23.1 3.8-27.5 6.6-28.1 7.9 -0.1 0.3-0.1 0.5 0.1 0.8 1.7 2.5 22.4 20.8 26.1 21.5 1.2 0.2 2.2 0.1 3.1 0 2.1-0.2 3.8-0.4 5.7 3.4 1.2 1 3.7 0.2 6.2-0.7 3.8-1.3 8-2.8 10.5 0.7 4.1 5.8 7.9 21 6.1 24.4C370.7 296.3 370.2 296.4 369.6 296.4z" class="d"/><path d="M370.7 295.9c1.7-3.1-1.9-18.4-6.1-24.2 -2.7-3.8-7.8-1.4-11.8-0.1 1.6 2.4 4.6 8.7 3.4 20.2C363 294.8 369.7 297.2 370.7 295.9z" class="o"/><path d="M355.6 278.3c0.8 3.3 1.2 7.7 0.6 13.4 6.7 3 13.5 5.4 14.5 4.1 0.1-0.2 0.2-0.4 0.2-0.6C369.8 287 363.4 281.3 355.6 278.3z" class="p"/><path d="M356.5 288.6c0 1-0.1 2-0.2 3.1 6.7 3 13.5 5.4 14.5 4.1C370.8 295.7 361.3 293.9 356.5 288.6z" class="q"/><path d="M369.6 296.4L369.6 296.4c-2.9 0-9.6-2.8-13.4-4.5l-0.1-0.1 0-0.1c1.2-11.7-2-18-3.4-20.1l-0.1-0.2 0.2-0.1c0.5-0.2 1-0.3 1.5-0.5 2.1-0.7 4.2-1.4 6.1-1.4 1.9 0 3.3 0.7 4.4 2.2 4.1 5.8 7.9 21 6.1 24.4C370.7 296.3 370.2 296.4 369.6 296.4zM356.5 291.7c6.4 2.8 11.1 4.4 13.1 4.4l0 0c0.5 0 0.9-0.1 1-0.3 1.6-2.9-1.8-18-6.1-24 -1-1.4-2.3-2-4.1-2 -1.9 0-4 0.7-6 1.4 -0.4 0.2-0.9 0.3-1.3 0.4C354.9 274.4 357.6 280.6 356.5 291.7z" class="r"/><path d="M333.2 342.2c-2.7 1.7-11.5 8.1-11.9 11 0.1 3.3 16.8 5.9 25.9 5.8 7.9-0.1 8-4.3 7.5-8 -7.3-1.1-17.6-6.6-21.5-8.8C333.2 342.1 333.2 342.1 333.2 342.2z" class="o"/><path d="M344 347.5c-4.5-1.9-8.6-4.2-10.8-5.4 0 0 0 0 0 0 -2.7 1.7-11.5 8.1-11.9 11 0 0.7 0.7 1.3 2 1.9C331.8 355.2 341 354.6 344 347.5z" class="p"/><path d="M333.2 342.1c0 0 0 0 0 0 -2.3 1.5-9.3 6.5-11.3 9.7 4.3-3.4 9.6-5.7 14.3-8.1C335 343.1 334 342.6 333.2 342.1z" class="q"/><path d="M346.6 359.2c-8.6 0-25.4-2.5-25.5-6 0.4-3.2 10.1-10 12-11.2l0.1-0.1 0.1 0c4 2.3 14.2 7.8 21.5 8.8l0.1 0 0 0.1c0.3 2.1 0.4 4.4-1 6 -1.2 1.4-3.4 2.1-6.6 2.2C347 359.2 346.8 359.2 346.6 359.2zM333.2 342.3c-3 1.9-11.4 8.1-11.7 10.9 0.1 3 15.7 5.6 25.1 5.6 0.2 0 0.4 0 0.6 0 3.1 0 5.2-0.7 6.4-2.1 1.3-1.5 1.2-3.6 1-5.6C347.4 350 337.3 344.7 333.2 342.3z" class="r"/><path d="M399.2 245.5c0 0-21.9 2.8-19.4 30.4 2.1 20.7 22.9 38.1 44.3 50 2.9 1.9-2.4 12-16.2 24.6 -4.1 3-6.7 3.2-8.2 8.4 -3.1 3.6-16.3 16.3-11.6 19.2 4.7 2.9 25.4 4.5 33.2-5.3 1.8-2.4-3.8-9.4-3.8-9.4 1.6 0.7 5.4 1.4 4.2-6.6 -0.9-4.5 13.6-22.3 17.3-22.9 3.6-0.5 10.7-8.2 8.5-12.2s-7-12.6-7.8-16.3c-1.7-7.8 8.2-17.3 8.2-31.5 0-11.2-5.5-37.2-37.6-37.9L399.2 245.5z" class="a"/><path d="M409 359.2c7.1 2.7 9.1-2.7 9.8-3.8 5.4-8.4 9.6-16.7 18.3-21.8 5.1-3.1 7.9-1.3 10.6-9 0.2-1 0.1-1.9-0.3-2.7 -2.2-4-7-12.6-7.8-16.3 -1.7-7.8 8.2-17.3 8.2-31.5 0-11.2-5.5-37.2-37.6-37.9l-11.1 9.4c0 0-20.2 2.6-17.8 30.3 2.1 20.7 27.4 38.3 42.6 50.1 2.9 1.9 0 11.8-13.4 24.2C406.5 353.7 405.8 357.4 409 359.2z" class="b"/><path d="M399.2 245.5c0 0-16.4 0.5-13.9 28.2 2.1 20.7 22 35.8 40.8 48.4 13.7 6.3 20.3 2.7 18.2-1.3 -2.2-4-3.9-11.6-4.7-15.3 -1.7-7.8 8.2-17.3 8.2-31.5 0-11.2-5.5-37.2-37.6-37.9L399.2 245.5z" class="c"/><path d="M400.5 380.6c-5.7 0-10.6-1-12.6-2.2 -0.6-0.4-1-0.9-1.1-1.6 -0.5-3.7 6.4-11.1 10.6-15.6 0.8-0.9 1.6-1.7 2-2.2 1.1-4 3-5.1 5.5-6.7 0.8-0.5 1.7-1.1 2.7-1.8 12-11 17.2-19.6 16.9-23 0-0.6-0.3-1.1-0.7-1.3 -15.5-8.6-41.9-26.6-44.3-50.1 -1.3-14.4 4.2-22 9-25.9 1.8-1.5 3.7-2.5 5.3-3.3 3.1-1.4 5.6-1.4 5.6-1.4 -0.1 0-5.6 0.8-10.8 4.9 -4.8 3.8-10.2 11.4-8.9 25.5 2.4 23.3 28.7 41.2 44.2 49.8 0.5 0.3 0.8 0.9 0.9 1.6 0.3 3.6-4.9 12.1-17 23.3 -1 0.7-1.9 1.3-2.7 1.8 -2.6 1.6-4.3 2.7-5.4 6.5l0 0.1c-0.5 0.6-1.2 1.3-2.1 2.3 -3.8 4.1-11 11.7-10.5 15.3 0.1 0.6 0.4 1.1 0.9 1.4 4.5 2.8 25.2 4.6 33-5.2 1.7-2.2-3.8-9.1-3.8-9.1l-0.5-0.6 0.7 0.3c0.6 0.3 2 0.8 3 0 1.1-0.9 1.4-3.1 0.9-6.4 -0.5-2.3 2.7-7.2 4.6-9.9 4.2-5.9 10.5-12.8 12.8-13.2 2.4-0.4 6.3-3.9 8-7.2 0.7-1.3 1.3-3.2 0.5-4.7l-0.6-1c-2.4-4.5-6.5-11.9-7.3-15.4 -0.8-3.8 1-7.9 3.1-12.7 2.4-5.3 5.1-11.4 5.1-18.8 0-3.7-1.1-36.7-37.6-37.9 0 0 5.8 0 8.4 0.6 9.9 1.9 17.5 6.8 22.7 14.4 6.4 9.4 6.9 19.9 6.9 22.9 0 7.5-2.7 13.6-5.1 19 -2.1 4.7-3.9 8.8-3.1 12.4 0.7 3.4 5 11.1 7.2 15.3l0.6 1c0.7 1.3 0.5 3-0.4 5 -1.7 3.4-5.7 7.1-8.2 7.4 -2 0.3-8 6.5-12.5 13 -3.2 4.6-4.9 8.1-4.6 9.6 0.6 3.5 0.2 5.8-1 6.7 -0.9 0.7-2 0.5-2.8 0.3 1.3 1.7 5 7 3.4 9.1C416.8 378.7 408 380.6 400.5 380.6z" class="d"/><path d="M421.2 324.6l0.2-0.3c0.1 0 5.7 3.3 7.2 3.5C428.6 327.8 426.9 327.8 421.2 324.6z" class="d"/><path d="M397 361.9c-4.8 5.1-12.8 14-9 16.3 4.7 2.9 25.4 4.5 33.2-5.3 1.1-1.4-0.4-4.4-1.9-6.6C408.5 368.9 400.2 364.1 397 361.9z" class="o"/><path d="M408.9 371.5c1-1.3 1.3-3 1.1-4.6 -6.2-0.7-10.8-3.4-13-5 -4.8 5.1-12.8 14-9 16.3 0.9 0.6 2.5 1.1 4.5 1.5 1.8 0 3.7-0.1 5.5-0.6C402.3 378 406.3 375.5 408.9 371.5z" class="p"/><path d="M400.2 363.8c-1.3-0.7-2.4-1.4-3.2-1.9 -3.6 3.8-8.9 9.6-9.8 13.3C390.8 370.7 395.5 367 400.2 363.8z" class="q"/><path d="M400.4 380.6c-5.2 0-10.4-0.9-12.5-2.3 -0.6-0.4-1-0.9-1.1-1.6 -0.5-3.7 6.6-11.3 10-15l0.1-0.1 0.1 0.1c2.7 1.9 8.4 5.1 16 5.1 2.1 0 4.2-0.3 6.3-0.7l0.1 0 0.1 0.1c1.5 2.3 3 5.4 1.9 6.8C415.9 379.9 404.9 380.6 400.4 380.6zM397 362.1c-3.4 3.7-10.3 11.1-9.8 14.6 0.1 0.6 0.4 1.1 0.9 1.4 2.1 1.3 7.2 2.2 12.3 2.2 4.4 0 15.3-0.7 20.7-7.4 0.8-1 0.1-3.2-1.8-6.3 -2.1 0.5-4.1 0.7-6.2 0.7C405.5 367.2 399.8 364 397 362.1z" class="r"/><path d="M471.4 318.7c-10-8.7-9.5-18.3-9.5-18.3 0.9 11.2 9.6 18 9.7 18L471.4 318.7z" class="k"/><path d="M488.7 296c-1.3 0-2.6-0.2-3.8-0.6 -5.3-2.3-5.8-7.3-5.8-7.3 1.2 3.6 3.2 5.9 5.9 7 6.1 2.3 14.1-2.5 14.2-2.5l0.2 0.3C499.3 292.9 494 296 488.7 296z" class="k"/><path d="M491.7 305.5c-2.7 0-4.4-1.1-4.4-1.1 0.1 0 7.3 2.9 14.3-3.1 3.5-2.9 6.7-4.3 9.4-3.9 2.3 0.3 3.7 1.7 4.5 2.9l-0.3 0.2c-0.8-1.1-2.2-2.4-4.3-2.7 -2.6-0.3-5.6 1-9.1 3.8C498.2 304.8 494.5 305.5 491.7 305.5z" class="k"/><path d="M495.3 255.6c-1.1-16.1-8.2-23.5-13.9-26.9 -6.2-3.7-12.3-3.5-12.4-3.5 0 0 6.2-0.5 12.5 3.2 5.8 3.4 13 10.9 14.1 27.2L495.3 255.6z" class="k"/><path d="M323.8 123c-4.2-2.7-9.9-4.6-14-2.5 -4.2 2.2-3.4 8.5-1.9 13.8C308.2 129.1 310.8 121.7 323.8 123z" class="a"/><path d="M308 135.4l-0.3-1c-2.2-7.5-1.5-12.2 2-14 1.2-0.6 2.6-0.9 4.1-0.9 3 0 6.7 1.2 10 3.4l0.6 0.4 -0.8-0.1c-1-0.1-2-0.2-2.9-0.2 -10.1 0-12.5 6.1-12.8 11.3L308 135.4zM313.8 119.8c-1.5 0-2.8 0.3-3.9 0.9 -3.9 2-3.4 7.8-2.1 12.6 0.5-4.4 3-10.6 13-10.6 0.7 0 1.4 0 2.2 0.1C319.9 120.9 316.6 119.8 313.8 119.8z" class="d"/><path d="M291.7 136.1c-0.1-0.2-0.2-0.5-0.3-0.7 -2.1-4-5.9-6.1-8.5-4.7 -1.2 0.6-1.9 1.9-2.1 3.4C282.9 133.8 287.3 133.4 291.7 136.1z" class="a"/><path d="M281.8 133.3c0 0 5.8-1 8.9 1.3C289.8 132.4 284 128.5 281.8 133.3z" class="b"/><path d="M292.1 136.6l-0.5-0.3c-3-1.8-6-2.2-8.1-2.2 -1.1 0-2.1 0.1-2.7 0.2l-0.2 0 0-0.2c0.2-1.7 1-2.9 2.2-3.5 0.5-0.3 1.1-0.4 1.8-0.4 2.5 0 5.2 2.1 6.9 5.2 0.1 0.2 0.2 0.5 0.3 0.7L292.1 136.6zM283.6 133.7c2 0 4.8 0.3 7.7 2 0 0 0-0.1-0.1-0.1 -1.6-3-4.3-5.1-6.6-5.1 -0.6 0-1.1 0.1-1.6 0.4 -1 0.5-1.7 1.6-1.9 3C281.7 133.8 282.6 133.7 283.6 133.7z" class="d"/><path d="M313.2 161.7c0 0 1.1 16.1-18.5 27.1 -4.8 2.7-11.5 5.2-12.4-3.3 -3.8-3.5-14.3-14.2 0-26.2 4.4-4.9 11-16.9 4.2-29.3L313.2 161.7z" class="a"/><path d="M313.2 161.7c0 0 1 14-18.7 25 -4.8 2.7-10.7 5.8-11.6-2.7 -3.8-3.5-15-12.6-0.6-24.6 4.4-4.9 11-16.9 4.2-29.3L313.2 161.7z" class="b"/><path d="M313.2 161.7c0 0-0.3 10.1-18.8 22.2 -4.8 2.7-9 6.3-9.9-2.3 -3.8-3.4-12.5-12.8-2.2-22.3 4.4-4.9 11-16.9 4.2-29.3 0 0 8 1.2 12 4.4C311.1 144.5 313.2 161.7 313.2 161.7z" class="c"/><path d="M287.3 191.5c-0.9 0-1.6-0.2-2.3-0.5 -1.6-0.8-2.6-2.7-2.9-5.5 -4.9-4.5-7.4-9.1-7.3-13.7 0.1-4.4 2.6-8.7 7.4-12.7 2-2.3 11.7-14.4 4.3-29.2 0 0 1.4 2.1 1.7 3.2 4.7 13.5-3.9 24.2-5.8 26.3 -4.7 4-7.2 8.1-7.3 12.4 -0.1 4.5 2.4 9 7.3 13.5l0.1 0 0 0.1c0.3 2.7 1.2 4.5 2.7 5.3 2 1 5.1 0.4 9.4-2.1 19.3-10.8 18.5-27.3 18.5-27.5 0 0 0.5 2.4-0.4 6 -1.5 5.9-5.7 15-17.9 21.8C291.7 190.7 289.2 191.5 287.3 191.5z" class="d"/><path d="M281.1 170.7c1-4.1 5-5 5-5 -2.6 1.2-4.2 3-4.6 5.1 -0.9 4.3 3.1 8.9 3.2 9C284.6 179.7 280.1 175.1 281.1 170.7z" class="d"/><path d="M289.5 180.9c0 0-5.5-9.6 0-14.3 3.6-2.7 8.3 1.9 7.6 6.1C296.5 176.8 294.2 179.1 289.5 180.9z" class="a"/><path d="M289.5 180.9c0 0-5.5-9.6 0-14.3 2.6-2 5.4 1.9 5.1 6.1C294.5 175.4 293 178.6 289.5 180.9z" fill="#823B27"/><path d="M289.5 181.1l-0.1-0.1c-0.1-0.1-5.5-9.8 0-14.6 0.8-0.6 1.6-0.9 2.5-0.9 1.4 0 2.8 0.7 3.9 2 1.3 1.5 1.9 3.4 1.6 5.1 -0.6 4.1-2.9 6.5-7.7 8.4L289.5 181.1zM291.9 165.9c-0.8 0-1.5 0.3-2.2 0.8 -5 4.3-0.7 12.8 0 14 4.7-1.9 6.8-4.1 7.4-8.1 0.2-1.6-0.3-3.4-1.5-4.8C294.5 166.6 293.1 165.9 291.9 165.9z" class="d"/><path d="M288.8 167.1l0.3 0.2c-2.4 5 2.1 9 2.1 9C291.2 176.2 286.2 172.3 288.8 167.1z" class="d"/><ellipse transform="matrix(0.5594 -0.8289 0.8289 0.5594 -18.0909 336.6398)" cx="307.6" cy="185.3" rx="1.6" ry="0.8" fill="#F9B9B6"/><path d="M442.9 252.2c0 0 5.2-7.1 8-17.7 3.2-10.8 11.5-18 24.9-17.7 6.5 1.1 14.3 7.4 15.1 15.1 -6.7-8.1-20.2-13.2-28.6-6.9 5.6 3.1 20.8 6.3 25.7 18.9 2.9 9 2.4 27.2-2.7 35.6 -4 5.7-0.4 11.2 1.9 13.1 -2.9-1.3-7.4-3.1-9.2-11.8 -2.3 2-4 20.6 20.5 16.6 -3.7 7.8-13.8 4.6-18.3 3 1.2 6 11.6 13.2 19.6 8.7 -1.5 3.1-8.8 13.1-23.4 4.1 -9-5.7-17.5-23.5-17.2-28.5 -2.9 1.2-1.6 9-0.6 13.3 -2.8-0.9-6.2-10.8-1.8-24.3 5-15.3 5.4-25.3-0.5-25.9 -6.6-0.7-12.2 6.9-12.2 6.9L442.9 252.2z" class="s"/><path d="M276.4 180.9c0 0-4.8-4.9-2.4-11.6C271.8 171.5 269.1 177.3 276.4 180.9z" class="c"/><ellipse transform="matrix(0.9254 -0.379 0.379 0.9254 -25.2431 130.396)" cx="318.6" cy="129.3" rx="4.6" ry="6.1"/><circle cx="315.9" cy="127.2" r="2" class="l"/><circle cx="320" cy="125.8" r="1.1" class="l"/><path d="M307.8 130.1c0 0 0.6-7.8 12.9-8.1C314.7 120.4 305.9 118 307.8 130.1z" class="b"/><path d="M352.1 100.3c0 0 5.7 2.5 6.3 6.6 3.4 4 13 28.1 26.6 24.5 -2.9-4.5-13.4-6.4-13.8-15.4 1.8 2.3 11.2 3 13.8 2.5 -21.4-7.8 1-20.7-34-30.2 2.8-1.6 9.9-2.2 10-4.8 -4.3-2.7-8.2-6.2-8.9-5.3 -0.7 1.9-5.2 16.6-6.1 17 8.8-0.8 16.3 6.4 16.3 6.4C357.4 101.7 352.1 100.3 352.1 100.3z" class="s"/><path d="M365.5 124.4c0 0 5.9 16.2 6.3 30.3 1 4.3 17.7 15.8 19.1 20.1 3.6-10.2-14.7-16.3-15.1-30.7 3.1 2.9 13.6 10.5 16.8 11.4 -3.2-8.2-9.7-19.8-12.6-20.2S369.9 132.4 365.5 124.4z" class="s"/><path d="M377.7 168c0 0 4.8 7 4.4 9.5 2.4 1.8 6.1 7.8 6.1 7.8C389.6 178.9 387.3 170.2 377.7 168z" class="s"/><path d="M294 125.4c0 0 7.1-3 1.3-23.8 4.4-1.3 6.8 6.1 6.8 6.1 0.5-8.2 4.6-13.9 9.8-14.8 -7.5-0.3-11.6-2.9-11.6-2.9 2.1-10.7 24.2-6.2 24.2-18.8 -0.3-5.7-8.6-7.9-17.4-6.7 4.1 1.2 6.8 6.2 6.8 6.2 -5.3-2-17.9-0.9-25.2 8.2 4.9-1.4 5.5-1.9 5.5-1.9 -10.7 5.7-20.9 17.9-9.5 34.9 -2.2-8.7-0.5-16.9 7.4-17.1 -2.5 2-8.2 12-1.9 20.4C294.2 121.4 294 125.4 294 125.4z" class="s"/><path d="M321.4 122.9l-0.9-0.2c0 0 3.3-2.1 3.2-4.3C323.7 118.4 324.1 121.1 321.4 122.9z"/><path d="M318.2 123.2l-0.7-0.3c0 0 2.7-2.2 2.4-4.5C320 118.5 320.8 121.2 318.2 123.2z"/><path d="M315.9 123.7l-1.1 0.1c0 0 2.1-3 1.2-5C316 118.7 317.7 121 315.9 123.7z"/><path d="M324.6 123.4c0 0-14-3-16.6 11.9C308 133.4 308.3 118.6 324.6 123.4z"/><path d="M323.7 123.2l-1.3-0.3c0 0 4.1-0.8 4.3-3.3C326.8 119.6 327.2 122 323.7 123.2z"/><path d="M281.6 134.1c-1.7-0.7-1.7-4.1-1.7-4.1 0 0 0.3 3.2 1.8 3.8L281.6 134.1z"/><path d="M283.3 134.1c-1.5-1-0.7-4.4-0.7-4.4 0 0-0.4 3.2 0.9 4.1L283.3 134.1z"/><path d="M288.5 134.7c0 0-6.6-1.7-7.9 0.7 0-1.3 0-1.3 0-1.3S284.7 131.8 288.5 134.7z"/></svg>