<svg version="1.1" id="Layer_1" xmlns="http://www.w3.org/2000/svg" xmlns:xlink="http://www.w3.org/1999/xlink" viewBox="0 0 768 430" enable-background="new 0 0 768 430" xml:space="preserve">
<g>
	<path fill="#FF5A4E" d="M382,36c-43.144,0-87.959,7.189-126.896,26.509c-25.671,12.738-54.101,33.991-57.741,64.682
		c-1.567,13.216-1.392,31.084,14.645,34.846c3.262,0.765,6.817,0.514,10.15,0.514c14.93,0,29.859,0,44.789,0
		c91.631,0,183.261,0,274.892,0c12.211,0,25.159-4.608,25.159-19.469c1.076-19.684-4.607-36.907-17.944-51.612
		c-17.376-19.16-41.775-31.338-65.903-39.645C450.758,40.674,416.181,36,382,36z"/>
	<path fill="#F9635F" d="M397.948,36c-39.604,0-82.062,11.915-110.992,40.146c-11.747,11.462-20.918,25.82-24.494,41.968
		c-2.592,11.706-5.121,33.403,5.481,41.778c4.046,3.196,8.799,2.658,13.568,2.658c7.141,0,14.281,0,21.421,0
		c23.904,0,47.808,0,71.712,0c45.964,0,91.928,0,137.893,0c3.248,0,6.855,0.413,10.084-0.178
		c15.496-2.834,13.416-27.055,11.821-38.625c-4.89-35.465-35.255-60.959-66.538-74.152C445.863,40.302,421.823,36,397.948,36z"/>
</g>
<path fill="#ED4C4C" d="M267.172,143.083c0-11.423,0.24-22.308,4.369-33.161c5.395-14.181,15.248-26.277,26.77-35.976
	c28.406-23.911,66.571-34.944,103.07-37.412c-44.15-2.426-90.19,2.391-131.706,18.213c-27.438,10.457-58.827,27.943-69.464,57.224
	c-3.55,9.773-3.824,20.804-3.21,31.112c0,14.918,13.022,19.469,25.357,19.469c20.199,0,40.397,0,60.595,0
	C272.939,162.552,267.172,151.999,267.172,143.083z"/>
<path fill="#FF7E68" d="M442.482,41.351c30.721,7.493,66.805,20.814,81.858,51.064c5.74,11.535,6.659,23.668,6.659,36.306
	c0,8.967,3.14,33.83-10.335,33.83c12.692,0,33.038,3.942,42.057-7.292c5.756-7.17,4.035-15.849,3.477-24.269
	c-0.511-7.704-1.01-14.991-3.9-22.272C544.837,64.735,483.829,48.876,442.482,41.351C496.339,54.486,514.943,54.54,442.482,41.351z"
	/>
<path fill="#C9C8AF" d="M407.517,162.552c-9.612,0-19.225,0-28.836,0c-2.88,0-21.64-1.84-22.478,0.928
	c-3.165,10.462-6.329,20.924-9.493,31.386c-1.659,5.486-3.319,10.972-4.978,16.458c-0.89,2.941-2.94,7.172-1.833,10.273
	c2.5,7.006,18.314,4.229,23.752,4.229c13.18,0,26.359,0,39.54,0c5.347,0,24.282,2.704,21.002-8.145
	c-0.76-8.424-5.418-17.912-7.857-25.976C413.396,181.988,410.456,172.27,407.517,162.552z"/>
<path fill="#DDDDCE" d="M407.517,225.827c-3.773,0-51.016-0.492-51.047,0.373c-0.615,17.08-1.23,34.16-1.845,51.239
	c-0.949,26.352-1.898,52.703-2.847,79.054c-0.553,15.351-6.446,43.74,15.872,46.373c16.769,1.978,46.356,3.195,45.497-20.652
	c-0.567-15.78-1.136-31.562-1.704-47.342C410.135,298.523,408.825,262.176,407.517,225.827z"/>
<path fill="#CFCFBB" d="M369.254,383.34c2.916-52.78,5.831-105.56,8.746-158.34c-2.449,0.094-21.494,0.188-21.53,1.2
	c-0.189,5.265-0.379,10.529-0.568,15.794c-0.862,23.93-1.724,47.858-2.585,71.787c-0.759,21.08-1.519,42.161-2.277,63.241
	c-0.264,7.335-0.536,14.356,5.126,20.176c8.019,8.243,21.781,5.802,32.213,5.802C377.757,403,368.87,394.006,369.254,383.34z"/>
<path fill="#B3B399" d="M342.188,216.131c-3.441,11.385,17.833,7.988,23.266,7.916c2.164-0.028,3.395,0.747,3.798-1.371
	c0.662-3.471,1.323-6.942,1.984-10.414c3.255-17.087,6.509-34.175,9.764-51.262c-7.173,0-14.345,0-21.518,0
	c-1.785,0-3.893,10.823-4.384,12.446C350.794,187.675,346.491,201.903,342.188,216.131z"/>
<g>
	<path fill="#FFFFFF" d="M437.439,114.019c12.329,0,12.329,18.981,0,18.981C425.112,133,425.112,114.019,437.439,114.019z"/>
	<path fill="#FFFFFF" d="M334.155,67.638c12.328,0,12.328,18.982,0,18.982C321.827,86.62,321.827,67.638,334.155,67.638z"/>
</g>
<path fill="#FF7E68" d="M245.887,96c12.329,0,12.329,18.982,0,18.982C233.559,114.982,233.559,96,245.887,96z"/>
<g>
	<path fill="#FFFFFF" d="M446.514,59c12.329,0,12.329,18.982,0,18.982C434.186,77.982,434.186,59,446.514,59z"/>
	<path fill="#FFFFFF" d="M374.77,89c8.22,0,8.221,12.656,0,12.656S366.549,89,374.77,89z"/>
	<path fill="#FFFFFF" d="M404.353,62c8.222,0,8.222,12.655,0,12.655C396.133,74.655,396.132,62,404.353,62z"/>
	<path fill="#FFFFFF" d="M492.065,73.344c8.22,0,8.22,12.656,0,12.656C483.845,86,483.845,73.344,492.065,73.344z"/>
	<path fill="#FFFFFF" d="M302.181,109c8.22,0,8.221,12.655,0,12.655C293.961,121.655,293.961,109,302.181,109z"/>
	<path fill="#FFFFFF" d="M332.426,115.344c8.22,0,8.22,12.656,0,12.656C324.206,128,324.206,115.344,332.426,115.344z"/>
</g>
<g>
	<path fill="#FF7E68" d="M215.198,134.017c8.22,0,8.22,12.655,0,12.655S206.978,134.017,215.198,134.017z"/>
	<path fill="#FF7E68" d="M266.233,77.068c8.221,0,8.221,12.656,0,12.656C258.013,89.725,258.013,77.068,266.233,77.068z"/>
	<path fill="#FF7E68" d="M240.716,140.344c8.22,0,8.219,12.656,0,12.656C232.496,153,232.496,140.344,240.716,140.344z"/>
</g>
<g>
	<path fill="#FFFFFF" d="M469.538,130.344c8.221,0,8.22,12.656,0,12.656S461.317,130.344,469.538,130.344z"/>
	<path fill="#FFFFFF" d="M483.652,106.344c8.222,0,8.221,12.656,0,12.656S475.432,106.344,483.652,106.344z"/>
	<path fill="#FFFFFF" d="M545.864,116.173c8.219,0,8.218,12.655,0,12.655C537.643,128.828,537.643,116.173,545.864,116.173z"/>
	<path fill="#FFFFFF" d="M360.655,123c8.219,0,8.219,12.656,0,12.656C352.435,135.656,352.435,123,360.655,123z"/>
</g>
</svg>
