<svg version="1.1" id="Layer_1" xmlns="http://www.w3.org/2000/svg" xmlns:xlink="http://www.w3.org/1999/xlink" x="0px" y="0px"
	 viewBox="0 0 768 430" enable-background="new 0 0 768 430" xml:space="preserve">
<g>
	
		<linearGradient id="SVGID_1_" gradientUnits="userSpaceOnUse" x1="140.0361" y1="265.5957" x2="140.2666" y2="265.5957" gradientTransform="matrix(1.3253 -0.0697 -0.0697 1.3735 -76.0322 -194.8271)">
		<stop  offset="0" style="stop-color:#FBB03B"/>
		<stop  offset="1" style="stop-color:#FCEE21"/>
	</linearGradient>
	<path fill="url(#SVGID_1_)" d="M91.287,160.789C91.445,161.9,90.76,157.248,91.287,160.789
		C91.347,161.212,91.234,160.435,91.287,160.789z"/>
	
		<linearGradient id="SVGID_2_" gradientUnits="userSpaceOnUse" x1="139.167" y1="310.166" x2="141.3896" y2="310.166" gradientTransform="matrix(1.3253 -0.0697 -0.0697 1.3735 -76.0322 -194.8271)">
		<stop  offset="0" style="stop-color:#FBB03B"/>
		<stop  offset="1" style="stop-color:#FCEE21"/>
	</linearGradient>
	<path fill="url(#SVGID_2_)" d="M87.746,220.313c0.618,1.038,1.249,2.066,1.881,3.095C87.178,220.028,85.952,218.186,87.746,220.313
		z"/>
	
		<linearGradient id="SVGID_3_" gradientUnits="userSpaceOnUse" x1="127.8369" y1="324.4199" x2="448.0186" y2="324.4199" gradientTransform="matrix(1.3253 -0.0697 -0.0697 1.3735 -76.0322 -194.8271)">
		<stop  offset="0" style="stop-color:#FBB03B"/>
		<stop  offset="1" style="stop-color:#FCEE21"/>
	</linearGradient>
	<path fill="url(#SVGID_3_)" d="M76.601,133.807c-4.432,2.78,31.087,45.563,28.125,51.623c-1.548-2.534-12.499-22.564-12.569-22.582
		c-0.563,2.339,0.1,4.582,1.99,6.729c0.712,1.171-6.598-12.168-6.723-12.187c-0.158,0.737-0.007,1.424,0.452,2.061
		c-0.188-0.298-8.605-7.468-7.433-8.201c-1.974,1.245,15.099,30.514,17.792,35.172c-1.488-2.271-9.419-13.938-6.517-9.527
		c-1.823-2.899-13.582-21.34-14.5-20.77c-2.483,1.505,21.609,42.404,24.858,47.741c-2.345-3.223-19.372-30.932-19.415-30.92
		c0.099,1.963,0.839,3.743,2.221,5.339c-0.783-2.022-2.057-3.595-3.823-4.718c-2.542,1.54,6.748,14.746,9.022,19.603
		c-1.599-3.191-9.312-20.404-10.532-20.713c2.521,0.963,21.654,45.951,25.177,50.962c-3.905-7.593-8.755-14.418-14.55-20.475
		c-0.908,1.848-0.188,3.636,2.16,5.364c-1.039-2.182-8.075-18.187-8.945-18.408c2.083,0.795,5.294,16.857,7.374,20.254
		c18.28,30.786,41.516,56.629,70.451,77.692c-26.985-14.245-44.044-57.604-67.199-67.46c-3.16,7.416,0.288,14.555,10.345,21.416
		c-2.804-5.083-11.219-13.546-14.733-18.394c42.222,68.626,111.662,110.974,190.813,123.173
		c34.358,5.296,69.584,5.159,104.232,3.543c21.498-1.009,50.037-3.454,68.814-15.452c2.824-1.799,15.441-18.826,18.56-18.976
		c-5.541,2.105-11.203,3.93-16.694,6.156c17.106-8.426,48.154-67.351,34.577-74.166c-0.304,0.383-6.037,0.02-7.425,0.689
		c4.512-13.534,16.127-16.002,4.226-13.22c0.111-1.156-0.183-1.083-0.882,0.22c-0.196-0.91,5.252-14.122,4.168-14.451
		c-3.785,1.75-7.32,3.914-10.605,6.491c3.266-3.579,5.706-7.665,8.799-11.342c-18.17,3.795-22.165,6.204-29.361,11.188
		c2.493-2.849,4.976-5.706,7.446-8.574c0.116-0.082-28.347,24.213-17.006,13.353c-9.837,6.986-29.098,20.629-30.394,20.776
		c-8.983,2.943-50.36,9.692-35.114,8.696c-11.668-2.654-67.979-10.49-76.312-7.266c-13.497-1.85-105.478-40.27-109.804-37.131
		c-3.579,3.514,34.387,20.411,34.361,20.4c-71.829-19.705-84.689-74.65-124.343-122.397c11.748,41.87,40.529,79.161,76.902,103.047
		c-0.674,0.462-0.786,1.176-0.335,2.143c-23.276-14.74-42.883-37.835-62.198-57.181c-6.273-6.283-7.419-28.449-15.515-29.642
		c-1.225,8.943,2.233,17.204,10.375,24.782c-8.69-5.827-21.395-25.809-23.636-34.62c2.322,9.13,7.998,17.657,11.938,26.123
		c-3.399-6.002-16.406-25.322-16.006-25.571c7.245-4.621,9.036,20.657,11.274,25.647c1.168,1.86-8.247-7.014-6.554-6.755
		c-0.673-0.103,12.091,28.507,10.007,23.975c-1.913-3.093-12.993-21.242-14.112-20.548c-2.295,1.384,9.829,18.978,10.916,24.695
		c0.002-0.518-4.438-8.14-5.472-7.874c-0.739,0.239,5.648,12.276,6.084,13.879C98.347,171.351,77.633,133.161,76.601,133.807
		C76.415,133.924,76.789,133.689,76.601,133.807z M483.838,240.846l-0.525,0.794C483.52,241.278,483.644,241.055,483.838,240.846z
		 M136.705,197.688c-1.268,0.329-8.159-9.504-7.638-8.815C131.613,191.811,134.159,194.749,136.705,197.688
		C136.615,197.711,134.079,194.817,136.705,197.688z M111.321,225.972c-0.3,0.794,16.678,23.972,14.903,21.284
		c-14.431-12.635-25.643-29.739-34.338-46.814C97.834,209.339,104.312,217.849,111.321,225.972
		C111.214,226.255,105.642,219.235,111.321,225.972z M119.092,176.585c2.568,3.608,5.183,7.183,7.845,10.723
		C118.892,178.026,123.239,182.52,119.092,176.585z M102.855,178.102C108.881,186.228,108.308,185.759,102.855,178.102
		C103.149,178.499,102.855,178.102,102.855,178.102z"/>
	
		<linearGradient id="SVGID_4_" gradientUnits="userSpaceOnUse" x1="168.9233" y1="270.5977" x2="190.7339" y2="270.5977" gradientTransform="matrix(1.3253 -0.0697 -0.0697 1.3735 -76.0322 -194.8271)">
		<stop  offset="0" style="stop-color:#FBB03B"/>
		<stop  offset="1" style="stop-color:#FCEE21"/>
	</linearGradient>
	<path fill="url(#SVGID_4_)" d="M156.873,182.14c-0.912-0.948-29.648-33.236-26.769-35.737
		C128.771,147.6,158.526,183.834,156.873,182.14C146.971,171.845,157.186,182.46,156.873,182.14z"/>
	
		<linearGradient id="SVGID_5_" gradientUnits="userSpaceOnUse" x1="122.0166" y1="276.4746" x2="134.0605" y2="276.4746" gradientTransform="matrix(1.3253 -0.0697 -0.0697 1.3735 -76.0322 -194.8271)">
		<stop  offset="0" style="stop-color:#FBB03B"/>
		<stop  offset="1" style="stop-color:#FCEE21"/>
	</linearGradient>
	<path fill="url(#SVGID_5_)" d="M67.156,163.084c-0.178-0.396,13.58,27.235,14.532,25.864
		C79.181,191.306,66.047,160.339,67.156,163.084C71.218,172.138,67.041,162.799,67.156,163.084z"/>
	
		<linearGradient id="SVGID_6_" gradientUnits="userSpaceOnUse" x1="130.1084" y1="297.1133" x2="142.1533" y2="297.1133" gradientTransform="matrix(1.3253 -0.0697 -0.0697 1.3735 -76.0322 -194.8271)">
		<stop  offset="0" style="stop-color:#FBB03B"/>
		<stop  offset="1" style="stop-color:#FCEE21"/>
	</linearGradient>
	<path fill="url(#SVGID_6_)" d="M76.442,190.868c-0.179-0.398,13.581,27.235,14.533,25.862
		C88.464,219.079,75.332,188.124,76.442,190.868C80.504,199.922,76.326,190.581,76.442,190.868z"/>
</g>
<g>
	
		<linearGradient id="SVGID_7_" gradientUnits="userSpaceOnUse" x1="-151.2422" y1="829.1035" x2="-62.6299" y2="829.1035" gradientTransform="matrix(-0.6483 -0.7614 0.7614 -0.6483 -248.3701 738.2168)">
		<stop  offset="0.0848" style="stop-color:#EDCCA6"/>
		<stop  offset="0.1305" style="stop-color:#EFD3B1"/>
		<stop  offset="0.2288" style="stop-color:#F2DEC2"/>
		<stop  offset="0.3513" style="stop-color:#F4E5CD"/>
		<stop  offset="0.5231" style="stop-color:#F5EAD4"/>
		<stop  offset="1" style="stop-color:#F5EBD6"/>
	</linearGradient>
	<path fill="url(#SVGID_7_)" d="M443.097,231.721c27.007,31.721,72.309,54.815,36.061,85.678
		c-30.943,26.346-56.257-29.198-75.647-51.974C416.705,254.19,429.901,242.955,443.097,231.721z"/>
	<path fill="#E2D5AC" d="M528.592,275.31c29.756-13.857,4.36-23.367,11.739-46.393c15.458-48.234,89.581-45.823,98.669-105.798
		c-33.442-0.328-57.666,21.946-77.905,45.875c-12.304,14.545-25.647,35.386-47.433,35c0.081,0.001-27.326-9.946-24.643-11.374
		C451.285,212.702,510.3,253.823,528.592,275.31z M624.51,132.763c1.863,7.561-0.788,9.817-7.955,6.771
		C614.691,131.973,617.343,129.716,624.51,132.763C626.379,134.959,622.641,130.566,624.51,132.763z"/>
	<path fill="#C69C6D" d="M562.859,199.799c-38.285,22.439-7.34,55.085-39.319,69.576c1.684,1.979,3.368,3.956,5.052,5.935
		c29.756-13.857,4.36-23.367,11.739-46.393c15.458-48.234,89.581-45.823,98.669-105.798
		C645.988,123.195,573.497,193.564,562.859,199.799C518.186,225.982,594.599,181.197,562.859,199.799z"/>
	
		<linearGradient id="SVGID_8_" gradientUnits="userSpaceOnUse" x1="-153.7676" y1="872.293" x2="-60.1089" y2="872.293" gradientTransform="matrix(-0.6483 -0.7614 0.7614 -0.6483 -248.3701 738.2168)">
		<stop  offset="0" style="stop-color:#B3B3B3"/>
		<stop  offset="0.0266" style="stop-color:#ABABAB"/>
		<stop  offset="0.0608" style="stop-color:#999999"/>
		<stop  offset="0.1326" style="stop-color:#FFFFFF"/>
		<stop  offset="0.516" style="stop-color:#FDFDFD"/>
		<stop  offset="0.6541" style="stop-color:#F6F6F6"/>
		<stop  offset="0.7526" style="stop-color:#EBEBEB"/>
		<stop  offset="0.8322" style="stop-color:#DADADA"/>
		<stop  offset="0.8995" style="stop-color:#C4C4C4"/>
		<stop  offset="0.9394" style="stop-color:#B3B3B3"/>
	</linearGradient>
	<path fill="url(#SVGID_8_)" d="M476.191,203.543c16.732,19.652,33.465,39.304,50.196,58.956
		c14.024,16.471-18.573,30.502-32.336,42.22c-16.732-19.652-33.464-39.305-50.196-58.957
		C429.832,229.291,462.429,215.261,476.191,203.543z"/>
	<path fill="#C69C6D" d="M618.872,134.297c5.158-4.386,3.743-6.853-1.809-2.128C611.449,136.95,613.774,138.64,618.872,134.297
		C620.727,132.72,617.021,135.874,618.872,134.297z"/>
	<g>
		
			<linearGradient id="SVGID_9_" gradientUnits="userSpaceOnUse" x1="-120.4224" y1="892.2412" x2="-117.9384" y2="894.9323" gradientTransform="matrix(-0.6483 -0.7614 0.7614 -0.6483 -248.3701 738.2168)">
			<stop  offset="0" style="stop-color:#706F6F"/>
			<stop  offset="0.0049" style="stop-color:#717070"/>
			<stop  offset="0.1542" style="stop-color:#999898"/>
			<stop  offset="0.3083" style="stop-color:#B9B9B9"/>
			<stop  offset="0.4664" style="stop-color:#D2D2D2"/>
			<stop  offset="0.6301" style="stop-color:#E4E4E4"/>
			<stop  offset="0.8029" style="stop-color:#EFEFEF"/>
			<stop  offset="1" style="stop-color:#F2F2F2"/>
		</linearGradient>
		<path fill="url(#SVGID_9_)" d="M509.264,249.701C516.35,243.675,502.184,255.74,509.264,249.701
			C510.36,248.769,508.168,250.636,509.264,249.701z"/>
		<g>
			
				<linearGradient id="SVGID_10_" gradientUnits="userSpaceOnUse" x1="-124.0737" y1="895.998" x2="-121.7019" y2="891.2543" gradientTransform="matrix(-0.6483 -0.7614 0.7614 -0.6483 -248.3701 738.2168)">
				<stop  offset="0" style="stop-color:#706F6F"/>
				<stop  offset="0.0049" style="stop-color:#717070"/>
				<stop  offset="0.1542" style="stop-color:#999898"/>
				<stop  offset="0.3083" style="stop-color:#B9B9B9"/>
				<stop  offset="0.4664" style="stop-color:#D2D2D2"/>
				<stop  offset="0.6301" style="stop-color:#E4E4E4"/>
				<stop  offset="0.8029" style="stop-color:#EFEFEF"/>
				<stop  offset="1" style="stop-color:#F2F2F2"/>
			</linearGradient>
			<path fill="url(#SVGID_10_)" d="M509.689,253.126C510.419,253.768,517.771,249.162,509.689,253.126
				C510.395,253.746,509.689,253.126,509.689,253.126z"/>
			
				<linearGradient id="SVGID_11_" gradientUnits="userSpaceOnUse" x1="-121.9961" y1="895.708" x2="-120.1787" y2="892.0733" gradientTransform="matrix(-0.6483 -0.7614 0.7614 -0.6483 -248.3701 738.2168)">
				<stop  offset="0" style="stop-color:#706F6F"/>
				<stop  offset="0.0049" style="stop-color:#717070"/>
				<stop  offset="0.1542" style="stop-color:#999898"/>
				<stop  offset="0.3083" style="stop-color:#B9B9B9"/>
				<stop  offset="0.4664" style="stop-color:#D2D2D2"/>
				<stop  offset="0.6301" style="stop-color:#E4E4E4"/>
				<stop  offset="0.8029" style="stop-color:#EFEFEF"/>
				<stop  offset="1" style="stop-color:#F2F2F2"/>
			</linearGradient>
			<path fill="url(#SVGID_11_)" d="M509.334,252.709C514.538,245.362,508.816,251.888,509.334,252.709
				C509.334,252.709,508.833,251.914,509.334,252.709z"/>
		</g>
	</g>
	<g>
		
			<linearGradient id="SVGID_12_" gradientUnits="userSpaceOnUse" x1="-80.3726" y1="892.2471" x2="-77.8966" y2="894.9294" gradientTransform="matrix(-0.6483 -0.7614 0.7614 -0.6483 -248.3701 738.2168)">
			<stop  offset="0" style="stop-color:#706F6F"/>
			<stop  offset="0.0049" style="stop-color:#717070"/>
			<stop  offset="0.1542" style="stop-color:#999898"/>
			<stop  offset="0.3083" style="stop-color:#B9B9B9"/>
			<stop  offset="0.4664" style="stop-color:#D2D2D2"/>
			<stop  offset="0.6301" style="stop-color:#E4E4E4"/>
			<stop  offset="0.8029" style="stop-color:#EFEFEF"/>
			<stop  offset="1" style="stop-color:#F2F2F2"/>
		</linearGradient>
		<path fill="url(#SVGID_12_)" d="M483.305,219.211C490.36,213.199,476.248,225.226,483.305,219.211
			C484.4,218.277,482.207,220.146,483.305,219.211z"/>
		<g>
			
				<linearGradient id="SVGID_13_" gradientUnits="userSpaceOnUse" x1="-84.0269" y1="896" x2="-81.655" y2="891.2563" gradientTransform="matrix(-0.6483 -0.7614 0.7614 -0.6483 -248.3701 738.2168)">
				<stop  offset="0" style="stop-color:#706F6F"/>
				<stop  offset="0.0049" style="stop-color:#717070"/>
				<stop  offset="0.1542" style="stop-color:#999898"/>
				<stop  offset="0.3083" style="stop-color:#B9B9B9"/>
				<stop  offset="0.4664" style="stop-color:#D2D2D2"/>
				<stop  offset="0.6301" style="stop-color:#E4E4E4"/>
				<stop  offset="0.8029" style="stop-color:#EFEFEF"/>
				<stop  offset="1" style="stop-color:#F2F2F2"/>
			</linearGradient>
			<path fill="url(#SVGID_13_)" d="M483.729,222.634C484.453,223.275,491.812,218.671,483.729,222.634
				C484.432,223.256,483.729,222.634,483.729,222.634z"/>
			
				<linearGradient id="SVGID_14_" gradientUnits="userSpaceOnUse" x1="-81.9507" y1="895.709" x2="-80.1325" y2="892.0726" gradientTransform="matrix(-0.6483 -0.7614 0.7614 -0.6483 -248.3701 738.2168)">
				<stop  offset="0" style="stop-color:#706F6F"/>
				<stop  offset="0.0049" style="stop-color:#717070"/>
				<stop  offset="0.1542" style="stop-color:#999898"/>
				<stop  offset="0.3083" style="stop-color:#B9B9B9"/>
				<stop  offset="0.4664" style="stop-color:#D2D2D2"/>
				<stop  offset="0.6301" style="stop-color:#E4E4E4"/>
				<stop  offset="0.8029" style="stop-color:#EFEFEF"/>
				<stop  offset="1" style="stop-color:#F2F2F2"/>
			</linearGradient>
			<path fill="url(#SVGID_14_)" d="M483.372,222.218C488.578,214.873,482.854,221.397,483.372,222.218
				C483.372,222.218,482.871,221.424,483.372,222.218z"/>
		</g>
	</g>
	<path opacity="0.5" fill="#999999" d="M449.715,231.675c16.923,19.876,36.404,51.563,57.962,61.444
		C489.829,280.538,454.331,227.963,449.715,231.675z"/>
	<path fill="#999999" d="M442.022,238.224c17.214,20.291,35.676,49.709,57.431,61.896c-15.013-2.746-31.341-32.489-40.462-43.203
		C457.099,254.694,436.272,225.721,442.022,238.224z"/>
	<path fill="none" stroke="#999999" stroke-width="0.7597" stroke-miterlimit="10" d="M413.363,236.898"/>
	<path fill="#CCCCCC" d="M447.723,230.526c-1.926,12.62,42.038,63.269,55.593,66.388c-0.638,0.409-0.942,0.023-0.914-1.155
		C490.055,295.103,442.138,237.471,447.723,230.526z"/>
	<path opacity="0.5" fill="#999999" d="M471.936,212.831c17.252,20.263,35.654,49.646,57.402,61.843
		C506.944,270.553,478.46,212.9,471.936,212.831z"/>
	
		<linearGradient id="SVGID_15_" gradientUnits="userSpaceOnUse" x1="411.499" y1="301.5361" x2="429.5586" y2="281.9716" gradientTransform="matrix(0.9968 0.08 -0.08 0.9968 42.1201 -30.5996)">
		<stop  offset="0" style="stop-color:#FBB03B"/>
		<stop  offset="1" style="stop-color:#FCEE21"/>
	</linearGradient>
	<path fill="url(#SVGID_15_)" d="M466.957,327.869c5.977-4.94,11.604-9.297,15.895-15.68c-2.077,0.837-4.228,1.238-6.452,1.203
		c1.012-1.577,2.023-3.154,3.035-4.731c-4.864,2.053-10.296,4.316-14.704,6.071c-1.655-3.574,4.83-6.987,6.302-9.663
		c-4.866-0.629-8.95,4.586-13.455,5.016c5.084-5.436,7.978-11.245,11.532-16.268c-5.106,3.632-10.212,7.263-15.318,10.895
		c4.159-4.437,7.422-9.729,11.6-14.174c-5.339,3.75-11.398,6.344-16.736,9.952c7.968-11.197,0.668-3.972,9.678-14.689
		c-2.252,1.201-4.503,2.401-6.755,3.603c0.953,1.306,3.159-8.41,3.057-9.053c-4.34,2.979-8.681,5.956-13.021,8.935
		c3.796-4.412,6.921-9.385,10.951-13.623c-4.892,2.867-9.2,5.893-14.047,7.655c1.122-1.671,2.243-3.343,3.365-5.014
		c-2.139,1.104-4.278,2.208-6.417,3.312c3.302-3.529,6.604-7.058,9.906-10.587c-4.064,1.022-7.045,2.611-11.354,3.213
		c1.679-2.146,3.357-4.292,5.036-6.438c-3.506,2.268-7.011,4.535-10.517,6.803c1.872-2.309,3.743-4.618,5.615-6.927
		c-2.862-1.38-7.396,1.424-10.915,0.685c2.854-3.146,5.707-6.292,8.561-9.438c-4.092,2.767-8.185,5.533-12.276,8.3
		c1.365-4.989,5.862-6.871,8.575-11.606c-2.997-2.66-8.487,4.119-11.858,1.481c3.017-3.287,6.033-6.573,9.05-9.86
		C381.076,264.912,439.542,325.387,466.957,327.869z"/>
</g>
</svg>
