<svg xmlns="http://www.w3.org/2000/svg" viewBox="0 0 768 430"><path d="M365.5 59.6c-32.3 5.4-54.9 34.3-56.6 68.5 -2.1 40.6 26.7 75-17 78.4 -77.4 6.1-57.1 107.6 9.8 159.5 62.3 48.4 135 49.9 193.5 0.7 53.6-45.1 58.6-121.8 28.6-183.1C494.3 123.8 441.1 47 365.5 59.6zM469.3 170.1c11-6.1 24.8-2.1 30.9 8.9 6.1 11 2.1 24.8-8.9 30.9s-24.8 2.1-30.9-8.9C454.4 190 458.3 176.1 469.3 170.1zM323 333.9c-11 6.1-24.8 2.1-30.9-8.9 -6.1-11-2.1-24.8 8.9-30.9 11-6.1 24.8-2.1 30.9 8.9C338 314 334 327.8 323 333.9zM391.1 374.1c-11 6.1-24.8 2.1-30.9-8.9 -6.1-11-2.1-24.8 8.9-30.9 11-6.1 24.8-2.1 30.9 8.9C406 354.2 402 368 391.1 374.1zM404.2 164.3c-14.2 7.9-34.6-1.8-45.5-21.6 -10.9-19.8-8.3-42.1 5.9-50 14.2-7.9 34.6 1.8 45.5 21.6C421.1 134 418.4 156.4 404.2 164.3zM464.9 359.2c-11 6.1-24.8 2.1-30.9-8.9 -6.1-11-2.1-24.8 8.9-30.9 11-6.1 24.8-2.1 30.9 8.9C479.8 339.2 475.9 353.1 464.9 359.2zM496.7 282.9c-11 6.1-24.8 2.1-30.9-8.9 -6.1-11-2.1-24.8 8.9-30.9 11-6.1 24.8-2.1 30.9 8.9C511.6 263 507.6 276.8 496.7 282.9z" fill="#9E896F"/><circle cx="313.5" cy="313.5" r="28.5" fill="#E08773"/><circle cx="381.5" cy="352.5" r="28.5" fill="#37DDC9"/><circle cx="453.5" cy="339.5" r="28.5" fill="#A7C6C6"/><circle cx="486.5" cy="262.5" r="28.5" fill="#C7CC69"/><circle cx="482.5" cy="191.5" r="28.5" fill="#EFC97B"/></svg>