<svg version="1.1" id="Layer_1" xmlns="http://www.w3.org/2000/svg" xmlns:xlink="http://www.w3.org/1999/xlink" x="0px" y="0px"
	viewBox="0 0 768 430" enable-background="new 0 0 768 430" xml:space="preserve">
<g>
	<g>
		<path fill="#4FB689" d="M400.268,188.624c-0.011,0.26,0.128,0.497,0.385,0.652c0.276,1.103,1.92,2.829,3.351,2.793
			c0.318-0.007,1.377-0.141,1.503-1.516c0.012-0.109,0.016-0.231,0.015-0.361c-0.011-0.946-0.542-1.745-1.453-2.191
			c-0.992-0.485-2.303-0.476-3.347,0.017C400.454,188.146,400.274,188.369,400.268,188.624z"/>
		<path fill="#4FB689" d="M410.289,182.847c-0.043,0.468,0.307,0.866,0.692,1.223c0.626,0.58,1.389,1.126,2.326,1.669
			c1.399,0.806,3.041,1.697,4.865,2.091c0.15,0.207,0.409,0.343,0.7,0.376c0.25,0.022,0.5,0.046,0.75,0.062
			c0.435,0.034,0.824-0.192,0.941-0.534c0.014-0.046,0.021-0.096,0.025-0.143c0.027-0.3-0.163-0.598-0.495-0.751
			c-0.971-0.439-1.796-1.101-2.521-2.021l-0.215-0.274c-1.128-1.443-2.524-3.238-5.461-2.758
			C411.398,181.871,410.363,182.04,410.289,182.847z"/>
		<path fill="#4FB689" d="M364.759,186.927c0.034-0.375-0.067-0.775-0.29-1.129c-0.283-0.457-0.714-1.149-1.544-1.266
			c-0.792-0.111-1.357,0.375-1.546,0.535c-0.297,0.256-0.574,0.562-0.875,0.956c-0.145,0.195-0.203,0.423-0.106,0.643
			c0.097,0.223,0.279,0.381,0.546,0.466c0.189,0.352,0.621,0.974,1.379,1.214c0.451,0.138,0.919,0.116,1.365-0.063
			C364.312,188.023,364.704,187.529,364.759,186.927z"/>
		<path fill="#4FB689" d="M350.725,179.802c0.004-0.035,0.004-0.069,0.001-0.104c-0.075-1.135-0.218-3.253-2.483-3.508
			c-0.292-0.034-0.576,0.061-0.775,0.234c-0.195,0.175-0.27,0.426-0.213,0.667c0.001,0.013,0.015,0.067,0.02,0.081
			c0.087,0.285,0.208,0.56,0.36,0.845c0.27,0.495,0.583,1,0.927,1.497c0.147,0.216,0.311,0.429,0.474,0.642
			c0.229,0.296,0.661,0.411,1.06,0.314C350.452,180.385,350.698,180.109,350.725,179.802z"/>
		<path fill="#4FB689" d="M332.702,184.627c-0.294,0.02-0.551,0.158-0.693,0.371c-0.142,0.21-0.15,0.468-0.023,0.693
			c0.174,0.306,0.414,0.603,0.733,0.903c0.225,0.212,0.618,0.321,0.944,0.269c0.562,0.801,1.838,1.322,2.836,1.155
			c0.678-0.111,1.132-0.523,1.183-1.076l0,0c0.033-0.36-0.1-0.747-0.411-1.186C336.274,184.354,333.772,184.542,332.702,184.627z"/>
		<path fill="#4FB689" d="M426.168,179.129c-0.188,0.042-0.355,0.131-0.473,0.255c-0.019,0.015-0.035,0.032-0.048,0.04
			c-0.039,0.028-0.072,0.059-0.1,0.095c-0.162,0.174-0.317,0.355-0.448,0.548c-0.223,0.319-0.344,0.614-0.37,0.895
			c-0.003,0.038-0.003,0.076,0,0.072c-0.008,0.094,0.015,0.225,0.048,0.313c0.024,0.068,0.031,0.094,0.08,0.155
			c0.036,0.06,0.081,0.115,0.131,0.164c0.025,0.023,0.098,0.087,0.128,0.106c0.019,0.017,0.06,0.042,0.079,0.057
			c0.055,0.034,0.111,0.066,0.173,0.098c0.033,0.019,0.094,0.043,0.136,0.056c0.036,0.013,0.124,0.04,0.282,0.083
			c0.064,0.021,0.131,0.043,0.199,0.052c0.782,0.132,1.277,0.12,2.106-0.062c0.076-0.009,0.147-0.027,0.22-0.052
			c0.02-0.004,0.039-0.012,0.061-0.017c0.078-0.024,0.158-0.051,0.244-0.081c0.029-0.013,0.102-0.042,0.171-0.073l0.095-0.042
			c0.058-0.02,0.114-0.045,0.169-0.076c0.1-0.06,0.196-0.123,0.283-0.194c0.093-0.07,0.161-0.158,0.211-0.252
			c0.034-0.076,0.059-0.156,0.065-0.233c0.018-0.194-0.055-0.396-0.212-0.555c-0.23-0.232-0.532-0.436-1.01-0.675
			c-0.051-0.282-0.312-0.533-0.643-0.636c-0.08-0.023-0.163-0.05-0.292-0.081c-0.038-0.01-0.124-0.024-0.164-0.031
			C426.865,179.004,426.502,178.996,426.168,179.129z"/>
	</g>
	<path fill="#CE34C7" d="M437.183,49.439c0.875-3.52,3.155-6.774,3.547-10.39c0.313-2.851-0.844-7.44-5.561-7.524
		c-3.893-0.071-7.247,2.791-7.112,6.026c0.16,3.758,1.538,7.397-1.728,10.4c-1.392,1.28-4.098,1.668-5.932,0.645
		c-3.042-1.698-3.503-3.705-4.114-6.432c-0.353-1.568-3.453-2.373-3.919-0.604c-0.107,0.4-0.352,1.691-0.601,2.207
		c-0.428,0.889-0.837,1.24-1.79,1.798c-4.732,2.78-5.178-2.562-5.024-5.148c0.101-1.684,0.166-3.332-0.863-4.917
		c-1.896-2.914-7.062-3.898-8.164-0.359c-0.674,2.156-0.435,4.421-0.95,6.598c-1.039,4.393-4.88,4.426-9.398,2.718
		c-0.453-0.17-0.746-0.594-0.559-0.993c0.862-1.805,2.012-4.263,1.288-6.273c-1.5-4.148-3.304-2.066-5.163-0.381
		c-2.985,2.703-7.317,3.515-6.34-1.287c0.514-2.544,1.822-5.19,1.778-7.793c-0.021-1.238,0.017-2.831-0.744-3.988
		c-2.16-3.269-6.476-0.688-7.63,0.963c-1.404,2.01-1.904,4.281-2.074,6.606c-0.289,3.929,1.337,12.494-3.668,14.721
		c-2.011,0.896-4.67-0.763-5.35-2.325c-0.242-0.545,0.4-2.854-1.88-2.01c-2.283,0.841-0.888,3.348-0.903,3.66
		c-0.068,1.191-0.234,2.08-1.019,3.063c-1.221,1.541-5.015,1.369-6.206-0.193c-0.846-1.111-1.185-2.355-1.282-3.639
		c-0.043-0.609,0.134-1.192,0.203-1.791c0.28-2.324-3.099-2.413-4.441-0.87c-2.297,2.647-3.292,10.164-9.211,6.567
		c-2.769-1.684-2.4-4.635-1.74-7.013c0.408-1.488,0.799-3.028,1.403-4.466c0.384-0.917,0.82-1.834,1.136-2.771
		c0.37-0.908,0.668-0.952,0.67-2.802c0.007-1.853-2.803-3.059-4.206-2.809c-1.403,0.249-1.136,1.08-1.551,1.658L313.639,187.49
		c1.063,1.647,3.522,2.539,5.509,1.036c4.598-3.481,2.926-10.336,4.441-14.964c1.139-3.489,4.76-10.52,10.292-5.758
		c2.296,1.972,0.91,5.85,0.656,8.091c-0.205,1.771,0.675,4.246,3.093,4.887c1.605,0.424,2.437-1.421,2.879-2.338
		c1.247-2.595,2.659-9.517,7.566-8.879c3.038,0.396,4.66,1.868,6.618,3.727c2.038,1.939,3.918,1.299,5.952-0.328
		c2.534-2.03,1.516-3.216,1.556-5.538c0.042-2.343,4.559-3.198,6.725-2.762c2.505,0.507,3.542,1.749,3.852,3.826
		c0.422,2.824-0.586,5.583-0.129,8.441c0.453,2.836,1.056,5.841,2.567,8.466c2.186,3.804,7.39,5.599,10.667,1.38
		c2.13-2.744,1.191-6.34,0.947-9.457c-0.437-5.632,1.194-9.66,8.519-10.455c0.511-0.054,0.971,0.218,1.084,0.635
		c0.49,1.771,0.729,3.583,1.25,5.348c0.304,1.042,1.067,4.402,3.708,3.246c1.298-0.568,2.935-1.438,3.769-2.49
		c1.747-2.199,1.142-5.056,2.696-7.159c0.474-0.646,1.083-0.761,1.768-0.518c1.303-0.712,2.817-0.929,4.213,0.339
		c1.085,0.982,1.864,2.074,2.358,3.343c0.326,0.833,2.29,7.249,5.24,3.484c0.935-1.194,1.446-2.429,1.628-3.858
		c0.225-1.754,0.1-4.427,2.461-5.246c2.076-0.723,5.323-0.419,7.741-0.902c2.359-1.884,0.791-4.628,0.644-7.099
		c-0.118-1.974,0.689-3.701,1.799-5.396c0.44-0.671,0.889-1.333,1.341-1.99l7.719-84.015
		C436.929,62.681,435.792,55.031,437.183,49.439z"/>
</g>
<g>
	<path fill="#EA9460" d="M404.938,409c-3.38-22.553-6.809-49.96-4.271-54.248l-57.223,31.959c0,0,1.454,9.656,2.991,22.289H404.938z
		"/>
	<path fill="#FDAA71" d="M404.938,409c-3.38-22.553-6.809-49.96-4.271-54.248l-19.201,25.758c0.579,1.507,6.977,14.85,13.559,28.49
		H404.938z"/>
	<path fill="#EA9460" d="M347.253,295.877c0,0-16.423-4.529-12.268,9.275c1.184,3.933,6.305,7.624,3.284,10.22
		c-3.379,2.908-7.225,15.611-2.157,16.757c9.444,2.137-10.179,18.869-2.41,20.756c3.414,0.828-3.504,17.095-0.297,20.649
		c0,0,4.801,13.473,15.449,15.275c3.043,0.516,20.074,4.259,31.71-6.24l9.081-5.237c11.629-10.496,13.386-35.561,2.884-47.194
		c0,0,1.569-16.361-13.712-20.146l-6.097,7.624C372.721,317.615,375.507,310.275,347.253,295.877z"/>
	<g>
		<g>
			<path fill="#653A26" d="M441.055,176.409l-3.91-0.211l-0.629,11.571l3.909,0.212c11.574,0.627,20.509,10.023,19.917,20.946
				l-0.309,5.686c-0.593,10.92-10.496,19.293-22.071,18.665l-71.577-3.885l-0.631,11.571l71.582,3.884
				c16.875,0.919,31.367-12.412,32.308-29.713l0.309-5.687C470.892,192.144,457.929,177.324,441.055,176.409z"/>
		</g>
		<g>
			
				<rect x="364.465" y="237.827" transform="matrix(0.9985 0.0542 -0.0542 0.9985 14.8993 -19.6262)" fill="#653A26" width="9.621" height="54.081"/>
		</g>
		<path fill="#F2F483" d="M443.887,192.519c-0.517,9.587-7.395,17.009-15.356,16.576l-112.12-6.09
			c-7.958-0.431-13.992-8.552-13.471-18.138l1.099-20.249c0.522-9.587,7.399-17.005,15.36-16.575l112.118,6.088
			c7.961,0.435,13.993,8.555,13.47,18.141L443.887,192.519z"/>
		<path fill="#432619" d="M304.013,165.084l-1.074,19.781c-0.019,0.318-0.009,0.63-0.013,0.945
			C307.815,180.333,306.351,172.319,304.013,165.084z"/>
		<path fill="#432619" d="M441.097,182.909c-0.378,2.915-0.476,8.866,2.731,10.216c0.019-0.202,0.05-0.399,0.059-0.606l1.082-19.903
			C442.258,174.136,441.417,180.447,441.097,182.909z"/>
		<path fill="#BC1BAD" d="M433.127,194.646c-0.266-6.033,0.291-11.976,0.71-17.994c0.403-5.836,0.89-15.238,6.263-18.428
			c-2.31-2.391-5.273-3.914-8.584-4.095l-112.118-6.088c-2.495-0.133-4.881,0.501-6.999,1.732c-0.422,3.77,3.787,6.958,3.547,10.87
			c-0.364,5.994-2.743,11.532-3.201,17.534c-0.473,6.196,0.178,13.184-1.338,19.204c-0.306,1.218-0.682,2.41-1.095,3.587
			c1.823,1.176,3.88,1.914,6.098,2.035l112.12,6.09c0.974,0.052,1.927-0.014,2.856-0.186
			C432.739,204.577,433.362,199.953,433.127,194.646z"/>
		<path fill="#FF5B0D" d="M378.874,371.513c-0.521,9.581-7.396,17.004-15.36,16.572l-3.199-0.175
			c-7.963-0.432-13.995-8.555-13.473-18.137l6.062-92.656c0.521-9.59,6.496-6.986,14.456-6.55l3.206,0.17
			c7.958,0.433,14.889-1.469,14.372,8.119L378.874,371.513z"/>
		<path fill="#E6E5D3" d="M378.874,371.513l0.329-5.52c-5.254,4.963-11.673,7.757-19.944,7.646
			c-4.06-0.054-8.332-0.406-12.387-1.362c0.551,8.453,6.188,15.236,13.443,15.633l3.199,0.175
			C371.477,388.517,378.352,381.094,378.874,371.513z"/>
	</g>
	<path fill="#FDAA71" d="M400.895,293.459c0.259,5.002-3.595,9.273-8.601,9.524l0,0c-5.003,0.256-9.274-3.596-9.525-8.606
		l-0.815-18.329c-0.253-5.009,3.599-9.271,8.603-9.525l0,0c5.006-0.256,9.271,3.598,9.529,8.601L400.895,293.459z"/>
	<path fill="#FDAA71" d="M400.544,313.018c-0.073,5.013-4.195,9.021-9.203,8.948l0,0c-5.017-0.073-16.954,12.773-13.061-0.676
		c3.892-13.449,4.495-26.878,4.495-26.878c0.072-5.013,4.193-9.016,9.206-8.947l0,0c5.014,0.074,9.016,4.196,8.945,9.207
		L400.544,313.018z"/>
	<path fill="#FDAA71" d="M382.832,383.543c0,0,14.352-8.289,17.307-25.98c0.992-5.939,7.343-32.793,4.096-42.343
		c-2.715-7.992-3.308-20.548-3.308-20.548s-16.775-1.747-21.347,21.679c-1.827,9.36-7.313,17.049-7.743,27.413
		C371.199,359.073,382.832,383.543,382.832,383.543z"/>
	<path fill="#FDAA71" d="M360.986,364.322c-0.423,5.387-5.147,8.729-10.524,8.312l-15.567,1.132
		c-5.38-0.42-9.406-5.127-8.988-10.512l0,0c0.426-5.379,5.128-9.404,10.509-8.985l14.943,1.17
		C356.74,355.857,361.408,358.94,360.986,364.322L360.986,364.322z"/>
	<path fill="#FDAA71" d="M359.081,341.712c0.31,5.393-3.339,8.613-8.732,8.918l-15.431,2.263c-5.388,0.31-10.008-3.811-10.319-9.201
		l0,0c-0.31-5.393,3.811-10.012,9.2-10.318l15.218,0.945C355.721,334.354,358.774,336.323,359.081,341.712L359.081,341.712z"/>
	<path fill="#FDAA71" d="M363.104,321.793c0.177,5.394-3.505,8.541-8.901,8.721l-15.524,1.87c-5.398,0.179-9.917-4.053-10.095-9.448
		l0,0c-0.179-5.397,4.052-9.916,9.45-10.095l15.315,0.42C358.743,313.082,362.926,316.397,363.104,321.793L363.104,321.793z"/>
	<path fill="#FDAA71" d="M367.009,303.064c-1.023,5.593-5.225,6.914-10.538,5.941l-15.668-0.262
		c-5.313-0.97-8.79-6.292-7.768-11.887l0,0c1.023-5.593,6.155-9.34,11.466-8.368l15.786,5.576
		C365.593,295.037,368.035,297.468,367.009,303.064L367.009,303.064z"/>
</g>
</svg>
