<svg version="1.1" xmlns="http://www.w3.org/2000/svg" viewBox="0 0 768 430" xml:space="preserve"><style>.s0{fill:#409D8B;}.s1{fill:#DDE4D0;}</style><path d="M223.5 241.4c-1.1 3.1-3.1 9.1-2.3 12.4 0.5 1.9 2.2 2.9 3.4 4.5 1.6 2.2 1.5 3.2 2.4 5.5 1.7 4.4 5 5.1 8.1 8.6 2.9 3.3 3.5 6.6 7.6 9.3 5.7 3.7 12.7 5.6 19.5 6.7 2.7 0.4 5.6 0.3 8.1 1.2 3.2 1.2 5.2 4.3 8.6 5.4 2 0.6-37.9-25.3-36.2-24.5 2.3 1 4.3 3.3 6.7 4.1 5.2 1.8 10.5-0.5 15.8 0.1 4.4 0.5 8.7 2.4 12.4 4.4 4.1 2.3 7.8 4.8 12.8 5.4 5.4 0.7 9.3-2.1 14.3-2.2 5-0.1 8.6 2.9 13.2 4.2 6.3 1.8 13.6 4 20.1 4.5 8.6 0.7 17.5-3.7 26.3-2.7 4.9 0.5 9.3 1.7 14.3 1.3 6.3-0.5 12.3-2.1 18.7-2.3 4.7-0.2 8.8 0.9 13.4 1.5 5.6 0.7 10.2-1.2 15.6-2.8 6-1.8 11.9-4.9 18.2-5.4 7.1-0.6 14 0.8 21.3-0.3 4.9-0.8 9.9-1.7 14.9-2.4 4.2-0.6 8.3-1.3 12.5-1.8 3.8-0.5 7.5 0.4 11 0.1 7-0.7 56.3 17.2 61.3 12.9 4.4-3.8 10.9-5.8 14.8-10.3 8.4-9.7 5.2-18.7 2-29 -2.2-7-5.6-15.7-12-20.5 -6.4-4.8-14.3-6.3-21.9-8.1 -5.1-1.2-9.5-2.5-15.1-2.2 -27.3 1.1-54.5 3.4-81.7 4.9 -16.5 0.9-34.1 2.7-50.6 0.2 -18.9-2.9-37.4-5.2-56.6-5.5 -14.6-0.3-28.9 0.4-43.4 1.3 -11.4 0.7-21.5 0.7-32.4 4.2 -7 2.3-11.9 0.7-19 0.4 -6.1-0.2-9.7-0.7-14.4 2.9C230.2 231 225.6 235.6 223.5 241.4z" fill="#409D8B"/><path d="M249.3 194.9c-4.3 1.2-8.4 2.7-11.5 5.7 -6.6 6.2-6.1 15.7-1.5 22.8 2.6 3.9 6.5 6.8 10.2 9.6 3.3 2.5 5.9 6.2 9.4 8.5 3.6 2.3 7.9 2.6 11.5 4.9 4.6 2.8 7.5 6.7 13.2 7.7 7.5 1.4 14.8-0.5 22.3 0.1 6.8 0.6 12.5 4 18.5 6.9 6.2 2.9 10.6 2.8 17.4 3.1 7.7 0.4 16.2 0.3 23.6 2.3 6.5 1.8 11.1 0.1 17.8-0.8 8.8-1.1 15 1.6 23.1 3.2 7.9 1.6 15.5-3.6 23.5-2.9 7.4 0.6 13.2 5.2 20.9 3.7 9.4-1.9 14.4-5.2 23.4-1.8 11.2 4.3 19.9-3.8 30.5-5.8 10.2-1.9 19.3 2.6 29.8 0.2 4.8-1.1 8.3-4.1 12.9-5.8 4.3-1.6 8.8-0.9 13-2.3 5.1-1.6 10.5-12.5 13.5-17.7 2.8-4.9 2.5-13.8 2.4-19.5 -0.1-5.4-3.2-11.4-7.8-14.5 -2.6-1.8-5.8-2.2-8.6-3.6 -3.6-1.8-6.4-4.5-10-6.5 -7.1-4-15-4-22.6-6.2 -7.3-2.1-14.5-4.8-21.8-7 -6.5-2-13.3-3.4-20.1-4.7 -17.7-3.5-37.4-5.1-55.6-4.2 -22.6 1.1-45.6-0.6-68.3 0.5 -18.7 0.9-36.3 3.5-54.4 7.4 -15.6 3.3-30.6 7.9-45.4 13.9C255.9 193.2 252.6 194 249.3 194.9z" fill="#DDE4D0"/><path d="M224.5 178.2c-1.1 3.1-3.1 9.1-2.3 12.4 0.5 1.9 2.2 2.9 3.4 4.5 1.6 2.2 1.5 3.2 2.4 5.5 1.7 4.4 5 5.1 8.1 8.6 2.9 3.3 3.5 6.6 7.6 9.3 5.7 3.7 12.7 5.6 19.5 6.7 2.7 0.4 5.6 0.3 8.1 1.2 3.2 1.2 5.2 4.3 8.6 5.4 2 0.6 4 0.9 5.7 1.7 2.3 1 4.3 3.3 6.7 4.1 5.2 1.8 10.5-0.5 15.8 0.1 4.4 0.5 8.7 2.4 12.4 4.4 4.1 2.3 7.8 4.8 12.8 5.4 5.4 0.7 9.3-2.1 14.3-2.2 5-0.1 8.6 2.9 13.2 4.2 6.3 1.8 13.6 4 20.1 4.5 8.6 0.7 17.5-3.7 26.3-2.7 4.9 0.5 9.2 1.7 14.3 1.3 6.3-0.5 12.3-2.1 18.7-2.3 4.7-0.2 8.8 0.9 13.4 1.5 5.6 0.7 10.2-1.2 15.6-2.8 6-1.8 11.9-4.9 18.2-5.5 7.1-0.6 14 0.9 21.3-0.3 4.9-0.8 9.9-1.7 14.9-2.4 4.2-0.6 8.3-1.3 12.5-1.8 3.8-0.5 7.5 0.4 11 0.1 7-0.7 14.4-9 19.4-13.3 4.4-3.8 10.9-5.8 14.8-10.3 8.4-9.7 5.2-18.7 2-29 -2.2-7-5.6-15.7-12-20.5 -6.4-4.8-14.3-6.3-21.9-8.1 -5.1-1.2-9.5-2.5-15.1-2.3 -27.3 1.1-54.5 3.5-81.7 4.9 -16.5 0.9-34.1 2.7-50.6 0.2 -18.9-2.9-37.4-5.2-56.6-5.5 -14.6-0.3-28.9 0.4-43.4 1.3 -11.3 0.7-21.5 0.7-32.4 4.2 -7 2.3-11.9 0.7-19 0.4 -6.1-0.2-9.7-0.7-14.4 2.9C231.3 167.8 226.6 172.4 224.5 178.2z" fill="#409D8B"/><path d="M250.3 162.1c-4.3 1.2-8.4 2.7-11.5 5.7 -6.6 6.2-6.1 15.7-1.5 22.8 2.6 3.9 6.5 6.8 10.2 9.6 3.3 2.6 5.9 6.2 9.4 8.5 3.6 2.3 7.9 2.6 11.6 4.9 4.6 2.8 7.5 6.7 13.2 7.7 7.5 1.4 14.8-0.5 22.3 0.1 6.8 0.6 12.5 4 18.5 6.9 6.2 2.9 10.6 2.8 17.4 3.1 7.7 0.4 16.2 0.3 23.6 2.3 6.5 1.8 11.1 0.1 17.8-0.8 8.8-1.2 15 1.6 23.1 3.2 8 1.6 15.5-3.6 23.5-2.9 7.4 0.6 13.2 5.2 20.9 3.7 9.4-1.9 14.3-5.3 23.4-1.8 11.2 4.3 19.9-3.8 30.5-5.8 10.2-1.9 19.3 2.6 29.8 0.2 4.8-1.1 8.3-4.1 12.9-5.8 4.3-1.6 8.8-0.9 13-2.3 5.2-1.6 10.5-12.5 13.5-17.7 2.8-4.9 2.5-13.8 2.4-19.5 -0.1-5.4-3.2-11.4-7.8-14.5 -2.6-1.8-5.8-2.2-8.6-3.6 -3.6-1.8-6.4-4.5-10-6.5 -7.1-4-15-4-22.6-6.2 -7.3-2.1-14.5-4.8-21.8-7 -6.5-2-13.3-3.4-20.1-4.7 -17.7-3.5-37.4-5.1-55.6-4.2 -22.6 1.1-45.6-0.6-68.3 0.5 -18.7 0.9-36.3 3.5-54.4 7.4 -15.6 3.3-30.6 7.9-45.4 13.9C256.9 160.3 253.6 161.1 250.3 162.1z" fill="#DDE4D0"/><path d="M232.1 146.3c-1.1 3.1-2.9 9.1-2.2 12.4 0.5 1.9 2.1 2.9 3.2 4.5 1.5 2.2 1.4 3.2 2.3 5.5 1.6 4.4 4.8 5.1 7.7 8.6 2.8 3.3 3.4 6.6 7.3 9.3 5.5 3.7 12.2 5.6 18.7 6.7 2.6 0.4 5.3 0.3 7.7 1.2 3 1.2 5 4.3 8.2 5.4 1.9 0.6 3.8 0.9 5.4 1.7 2.2 1 4.1 3.3 6.4 4.1 4.9 1.8 10.1-0.5 15 0.1 4.2 0.5 8.3 2.4 11.9 4.4 3.9 2.3 7.5 4.8 12.3 5.4 5.1 0.7 8.9-2.1 13.6-2.2 4.7-0.1 8.3 2.9 12.6 4.2 6.1 1.8 13 4 19.2 4.5 8.2 0.7 16.7-3.7 25.1-2.7 4.6 0.5 8.8 1.7 13.6 1.3 6-0.5 11.8-2.1 17.9-2.3 4.5-0.2 8.4 0.9 12.7 1.5 5.4 0.7 9.8-1.2 14.9-2.8 5.8-1.8 11.3-4.9 17.4-5.5 6.8-0.6 13.4 0.8 20.3-0.3 4.7-0.8 9.5-1.7 14.2-2.4 4-0.6 7.9-1.3 11.9-1.8 3.7-0.5 7.2 0.4 10.5 0.1 6.7-0.7 13.7-9 18.5-13.3 4.2-3.8 10.5-5.8 14.2-10.3 8-9.7 5-18.7 1.9-29 -2.1-7-5.3-15.7-11.5-20.5 -6.1-4.8-13.6-6.3-21-8.1 -4.9-1.2-9.1-2.5-14.4-2.2 -26 1.1-52 3.4-78.1 4.9 -15.8 0.9-32.6 2.7-48.3 0.2 -18.1-2.9-35.7-5.2-54.1-5.5 -13.9-0.3-27.6 0.4-41.5 1.3 -10.8 0.7-20.5 0.7-30.9 4.2 -6.7 2.3-11.3 0.7-18.2 0.4 -5.8-0.3-9.3-0.7-13.7 2.9C238.6 135.9 234.1 140.5 232.1 146.3z" fill="#409D8B"/><path d="M257.8 131c-4 1.3-7.9 2.8-10.9 5.7 -6.2 6.2-5.7 15.6-1.4 22.8 2.4 3.9 6.1 6.8 9.6 9.6 3.1 2.6 5.6 6.2 8.9 8.5 3.4 2.3 7.5 2.6 10.9 4.9 4.4 2.8 7.1 6.7 12.4 7.7 7.1 1.4 13.9-0.5 21 0.1 6.4 0.6 11.8 4 17.5 6.9 5.8 2.9 10 2.8 16.4 3.1 7.3 0.4 15.3 0.3 22.3 2.3 6.1 1.8 10.4 0.1 16.8-0.8 8.3-1.2 14.2 1.6 21.7 3.2 7.5 1.6 14.6-3.6 22.1-2.9 6.9 0.6 12.4 5.2 19.7 3.7 8.8-1.9 13.5-5.2 22.1-1.8 10.6 4.3 18.8-3.8 28.7-5.8 9.6-1.9 18.2 2.6 28.1 0.2 4.5-1.1 7.9-4.1 12.2-5.8 4.1-1.6 8.3-0.9 12.2-2.3 4.9-1.6 9.9-12.5 12.7-17.7 2.6-4.9 2.4-13.8 2.3-19.5 -0.1-5.4-3-11.4-7.4-14.5 -2.5-1.8-5.5-2.2-8.1-3.6 -3.4-1.8-6.1-4.5-9.4-6.5 -6.7-4-14.1-4-21.3-6.2 -6.8-2.1-13.7-4.8-20.6-7 -6.2-2-12.6-3.4-18.9-4.8 -16.7-3.5-35.2-5.1-52.4-4.2 -21.3 1.1-42.9-0.6-64.3 0.5 -17.6 0.9-34.2 3.5-51.2 7.4 -14.7 3.3-28.8 7.9-42.7 13.9C264 129.2 260.9 130 257.8 131z" fill="#DDE4D0"/></svg>