<svg version="1.1" id="Layer_1" xmlns="http://www.w3.org/2000/svg" xmlns:xlink="http://www.w3.org/1999/xlink" x="0px" y="0px"
 viewBox="0 0 768 430" enable-background="new 0 0 768 430" xml:space="preserve">
<g>
	<path fill="#D19259" d="M551.22,190.68c-1.702-2.62-4.048-5.568-6.793-7.786c13.641-7.984,21.27-25.61,18.771-41.05
		c-1.646-10.167-6.9-19.098-13.725-26.668c-3.603-4.001-7.817-7.598-12.254-10.642c-2.841-1.951-6.118-4.08-9.504-5.551
		c-9.263-6.397-19.884-10.729-30.537-14.205c-11.43-3.73-23.199-6.379-35.069-8.249c-5.853-0.92-11.724-1.54-17.63-1.949
		c-0.132-0.009-0.262-0.019-0.394-0.028c-33.902-5.436-68.515-6.449-102.678-3.156c-14.285,1.377-28.507,3.551-42.559,6.465
		c-12.721,2.637-25.418,6.32-36.604,13.095c-15.117,9.154-28.182,28.784-24.37,46.716c-2.454,0.404-5.083,2.283-6.588,3.636
		c-3.836,3.449-4.926,9.416-4.157,14.29c0.896,5.682,3.873,10.507,7.121,15.143c1.293,1.847,2.692,3.955,4.271,5.904
		c-0.634,2.143-0.981,4.436-1.472,6.381c-1.186,4.68-2.415,9.348-3.587,14.032c-1.184,4.724-2.307,9.461-3.44,14.197
		c-0.503,0.108-0.972,0.447-1.299,1.11c-7.652,15.488-5.014,33.979,1.355,49.462c6.833,16.609,18.463,30.215,32.825,40.825
		c15.002,11.088,32.773,18.165,50.657,23.06c19.477,5.329,39.747,8.145,59.887,9.213c40.22,2.136,81.898-3.654,119.608-18.01
		c15.303-5.822,30.236-13.852,40.282-27.135c4.979-6.585,9.157-15.391,6.955-23.744c-1.148-4.358-5.234-7.857-9.594-8.546
		c0.122-0.637,0.211-1.292,0.25-1.964c0.077-1.268-1.009-2.851-2.315-3.044c-0.619-0.092-1.285-0.17-1.982-0.224
		c3.882-2.806,7.765-5.609,11.559-8.525c4.151-3.187,7.847-6.775,10.838-11.087c0.994-1.432,2.529-4.104,3.258-6.698
		c0.125-0.212,0.25-0.42,0.373-0.628c3.062-5.285,4.309-11.758,4.12-17.806C556.618,201.598,554.415,195.609,551.22,190.68z"/>
	<g>
		<path fill="#B76E32" d="M553.189,159.127c-10.049,13.994-29.108,19.504-44.847,24.068c-19.804,5.743-40.137,9.674-60.637,11.873
			c-40.987,4.396-82.678,1.599-122.846-7.524c-11.597-2.633-23.066-6.448-34.803-8.378c-1.997-0.329-3.44,2.333-1.453,3.442
			c8.733,4.866,18.731,7.85,28.332,10.465c9.919,2.702,19.966,4.936,30.087,6.734c20.208,3.587,40.731,5.335,61.249,5.414
			c20.532,0.079,41.046-1.692,61.306-4.996c19.497-3.181,39.226-7.708,57.74-14.679c2.188-0.822,4.33-1.714,6.423-2.696
			c1.147,2.452,0.91,6.158,0.521,8.709c-0.527,3.434-2.096,6.801-4.265,9.497c-5.064,6.291-13.465,8.991-20.94,11.089
			c-17.955,5.042-36.354,9.007-54.759,11.997c-18.402,2.991-37.078,4.458-55.721,3.877c-9.337-0.288-18.718-1.145-27.953-2.559
			c-4.578-0.702-9.101-1.684-13.649-2.544c-2.069-0.391-4.12-0.863-6.187-1.268c-0.266-0.054-0.528-0.078-0.787-0.093
			c-4.501-1.64-9.209-2.867-13.737-4.247c-6.667-2.029-13.259-4.336-19.836-6.643c-12.132-4.257-24.178-9.02-35.494-15.155
			c-0.488-0.265-0.974-0.537-1.457-0.808c0.779-0.653,1.09-1.78,0.513-2.811c-2.446-4.368-8.201-6.96-11.985-10.126
			c-4.465-3.734-8.487-8.055-11.955-12.724c-3.467-4.666-6.272-9.768-8.713-15.032c-2.412-5.203-3.329-11.037-5.901-16.124
			c-0.286-0.565-0.675-0.924-1.11-1.131c-1.315-1.494-3.934-1.59-4.588,0.89c-3.188,12.093,2.247,25.783,8.704,35.85
			c7.115,11.088,17.408,19.658,28.583,26.427c11.772,7.133,24.78,12.09,37.725,16.63c6.981,2.447,14.059,4.644,21.224,6.489
			c5.82,1.497,11.88,3.294,17.947,3.948c1.747,0.732,3.677,1.208,5.442,1.773c4.791,1.538,9.75,2.544,14.689,3.49
			c9.838,1.885,19.785,2.857,29.79,3.241c20.672,0.792,41.353-1.363,61.715-4.821c10.445-1.773,20.81-3.989,31.124-6.4
			c9.364-2.189,19.015-4.157,27.972-7.731c7.787-3.109,14.763-8.009,18.676-15.599c1.785-3.465,2.63-7.275,2.669-11.161
			c0.036-3.689-1.759-6.414-3.698-9.29c2.281-1.305,4.483-2.761,6.57-4.435c5.325-4.271,9.04-9.259,11.497-15.59
			C557.133,158.498,554.255,157.644,553.189,159.127z"/>
		<path fill="#B76E32" d="M519.745,218.84c-7.87,4.39-15.257,8.38-24.007,10.796c-9.573,2.64-19.515,4.306-29.288,6.002
			c-21.876,3.794-43.764,7.66-65.9,9.588c-20.659,1.798-41.585,1.756-62.121-1.339c-19.876-2.993-38.613-9.579-57.195-17.007
			c-2.501-0.999-3.653,2.732-1.72,4.083c16.291,11.415,36.214,16.968,55.659,20.223c20.288,3.401,40.924,3.804,61.414,2.432
			c21.942-1.474,43.832-4.954,65.334-9.492c10.147-2.143,20.357-4.071,30.466-6.383c8.46-1.935,17.205-4.643,24.265-9.862
			c2.338-1.729,4.214-3.966,5.671-6.463C523.29,219.76,521.382,217.928,519.745,218.84z"/>
		<path fill="#B76E32" d="M527.129,249.38c-1.11,1.429-2.491,2.301-3.735,3.564c-1.461,1.488-2.8,3.08-4.312,4.521
			c-2.775,2.648-5.618,5.306-8.662,7.65c-6.151,4.736-12.939,8.645-20.104,11.623c-16.818,6.993-35.211,8.895-53.25,9.504
			c-19.521,0.658-39.122,0.116-58.629-0.696c-9.874-0.409-19.745-0.981-29.608-1.612c-4.925-0.315-9.85-0.602-14.774-0.913
			c-5.032-0.319-9.767,0.515-14.752,0.627c-0.926,0.021-1.145,1.394-0.22,1.631c4.633,1.191,8.829,2.991,13.63,3.637
			c5.365,0.717,10.73,1.396,16.117,1.935c10.302,1.027,20.619,1.764,30.956,2.32c20.323,1.099,40.791,1.596,61.139,0.812
			c18.616-0.717,37.182-3.461,54.396-10.834c7.437-3.188,14.418-7.4,20.708-12.48c1.622-1.31,3.28-2.702,4.812-4.201
			c-0.965,1.814-2.128,3.547-3.268,5.207c-3.262,4.746-7.136,9.058-11.302,13.021c-8.115,7.719-17.815,13.572-27.941,18.253
			c-11.293,5.22-23.506,8.383-35.7,10.65c-6.29,1.172-12.629,2.098-18.982,2.856c-6.409,0.769-13.381,0.998-19.482,3.262
			c-1.868,0.693-2.291,3.72,0,4.217c6.717,1.451,13.976,0.529,20.742-0.146c7.046-0.703,14.062-1.646,21.023-2.95
			c13.203-2.475,26.097-6.396,38.244-12.165c10.956-5.201,21.117-12.339,29.625-20.987c4.25-4.317,7.961-9.149,11.105-14.325
			c2.649-4.353,6.101-11.471,3.356-16.488c0.866-1.606,1.28-3.323,2.125-4.978C531.401,249.909,528.638,247.431,527.129,249.38z"/>
	</g>
	<g>
		<path fill="#DDAA79" d="M553.323,201.489c-0.491-2.007-3.098-1.313-3.321,0.45c-0.573,4.536-1.449,8.651-3.555,12.725
			c-2.138,4.123-4.551,8.137-7.577,11.666c-6.23,7.251-14.432,12.126-23.101,15.926c-9.222,4.041-19.148,6.668-28.837,9.299
			c-10.344,2.809-20.807,5.172-31.347,7.124c-40.398,7.484-82.646,7.737-122.382-3.439c-15.794-4.443-31.03-10.704-45.346-18.715
			c-2.777-1.556-5.495-3.195-8.166-4.904c1.433,0.482,2.87,0.953,4.311,1.408c3.002,0.949,6.03,1.731,9.089,2.479
			c2.941,0.714,6.317,1.568,9.321,1.012c1.137-0.211,1.685-1.532,1.376-2.565c1.85,0.67,3.688,1.304,5.498,1.898
			c6.053,1.991,12.293,3.378,18.571,4.426c5.392,0.898,12.212,2.157,17.371-0.074c0.618-0.269,0.909-0.846,0.956-1.458
			c21.128,2.922,42.451,4.305,63.781,3.983c7.556-0.112,15.126-0.5,22.645-1.276c7.128-0.734,14.92-1.003,21.634-3.637
			c1.178-0.464,1.602-2.585,0-2.832c-4.966-0.759-9.978-0.339-14.985-0.119c-5.762,0.256-11.534,0.369-17.299,0.474
			c-11.111,0.205-22.213,0.154-33.318-0.251c-21.439-0.782-42.975-3.034-63.981-7.45c-36.257-7.618-72.591-25.606-87.273-61.756
			c-2.441-6.011-3.656-12.284-4.987-18.571c0.417-1.146,0.802-2.301,1.124-3.485c0.201-0.735-0.624-1.391-1.288-0.991
			c-0.121,0.073-0.234,0.153-0.352,0.228c0.092-0.208,0.186-0.412,0.272-0.623c0.278-0.669-0.546-1.441-1.196-1.198
			c-5.167,1.933-7.933,8.083-9.543,12.98c-1.932,5.88-1.992,12.233-1.101,18.296c0.235,1.6,0.585,3.187,1.021,4.755
			c0.952,5.682,3.034,11.111,5.838,16.158c0.031,0.293,0.065,0.577,0.099,0.86c-2.796,5.743-1.863,13.666-1.059,19.776
			c0.112,0.85,0.24,1.698,0.383,2.54c-4.023,4.756-4.538,11.538-3.41,18.471c-6.479,10.296-2.345,25.544,2.266,35.664
			c5.532,12.141,14.451,23.791,24.316,32.724c9.626,8.714,21.641,14.031,34.143,17.131c13.153,3.259,26.377,3.583,39.85,3.782
			c0.666,0.013,1.032-0.648,0.962-1.204c0.442,0.011,0.882,0.011,1.322,0.011c0.075,0.019,0.152,0.04,0.227,0.06
			c7.457,1.935,14.974,3.694,22.55,5.092c6.838,1.266,14.852,3.407,21.868,2.371c1.362,0.447,2.708,0.825,3.924,1.191
			c4.359,1.315,8.959,1.884,13.481,2.285c9.847,0.875,19.786-0.102,29.566-1.253c21.009-2.473,42.432-4.397,63.13-8.855
			c18.141-3.907,35.194-11.445,47.972-25.207c5.646-6.08,9.912-13.323,12.394-21.237c1.92-6.115,2.029-15.278-5.505-17.456
			c-1.359-0.394-2.351,1.359-1.365,2.347c0.884,0.885,1.423,1.992,1.698,3.233c-0.708,2.567-0.858,5.29-1.439,7.888
			c-0.545,2.432-1.976,4.747-1.979,7.226c-0.252,0.541-0.493,1.044-0.713,1.493c-3.283,6.692-8.237,12.383-13.912,17.146
			c-13.045,10.95-29.992,15.852-46.427,18.862c-18.542,3.399-37.494,5.345-56.212,7.532c-8.639,1.009-17.343,1.655-26.04,1.19
			c-1.658-0.09-3.303-0.25-4.939-0.471c20.639-0.179,41.288-3.154,61.168-8.615c10.942-3.004,21.606-6.989,31.936-11.667
			c5.351-2.425,10.46-5.314,15.616-8.127c5.026-2.738,10.056-5.624,14.097-9.706c0.657-0.664,0.688-1.643,0.327-2.411
			c3.294-2.877,6.187-6.13,8.481-9.811c1.029-1.648,1.772-3.301,2.395-5.133c0.426-1.254-1.172-1.893-2.025-1.182
			c-6.681,5.57-12.767,11.688-20.263,16.215c-7.906,4.772-16.61,7.864-25.54,10.081c-9.876,2.455-20.033,3.577-30.145,4.533
			c-10.421,0.981-20.862,1.776-31.322,2.178c-20.121,0.776-40.421-0.26-59.927-5.553c-8.701-2.359-17.119-5.526-25.123-9.681
			c-0.17-0.089-0.335-0.182-0.503-0.271c7.77,1.432,15.7,2.199,23.541,2.785c22.206,1.661,44.522,1.651,66.742,0.28
			c21.057-1.304,42.874-3.071,63.225-8.918c8.734-2.512,16.866-6.243,24.249-11.086c7.681-3.495,15.008-7.73,21.884-12.618
			c3.58-2.543,7.127-5.268,10.32-8.285c3.362-3.176,7.186-6.529,9.162-10.754c0.396-0.846,0.331-1.773-0.026-2.542
			c2.918-3.312,5.252-6.966,6.763-10.995c1.795-3.092,3.157-6.558,3.949-10.144c0.414-0.257,0.468-0.792,0.227-1.158
			C554.309,209.833,554.314,205.511,553.323,201.489z"/>
		<path fill="#DDAA79" d="M517.592,148.103c-5.035-7.426-12.868-12.368-20.561-16.655c-8.65-4.824-17.568-9.18-26.617-13.205
			c-18.113-8.055-36.905-14.52-56.11-19.422c-29.592-7.552-60.25-11.111-90.78-10.793c-14.782,0.155-29.61,1.253-44.227,3.489
			c-8.543,1.308-18.192,3.724-24.96,9.418c-0.448,0.018-0.908,0.177-1.348,0.515c-0.753,0.574-1.454,1.177-2.119,1.798
			c-5.257,3.181-9.217,8.15-10.954,14.126c-2.037,7.008-0.265,14.617,3.169,20.861c0.162,0.821,0.372,1.633,0.632,2.434
			c-0.345-0.525-0.686-1.055-1.053-1.561c-0.715-2.42-1.449-4.883-3.095-6.802c-1.045-1.219-2.881-0.425-3.333,0.881
			c-1.012,2.917-0.091,6.424,0.679,9.327c0.943,3.559,2.162,7.075,3.631,10.449c2.86,6.573,6.477,12.72,10.812,18.427
			c4.306,5.667,9.24,10.806,14.819,15.228c2.644,2.095,5.384,4.007,8.297,5.706c2.561,1.494,6.313,3.313,9.301,2.648
			c0.546-0.122,0.893-0.477,1.064-0.916c0.816,0.513,1.622,0.989,2.396,1.419c9.229,5.13,19.263,9.039,29.188,12.586
			c10.185,3.639,20.608,6.539,31.18,8.812c10.577,2.275,20.997,3.713,31.782,2.755c0.984-0.088,1.584-0.902,1.612-1.703
			c8.717,1.834,17.465,3.479,26.2,4.875c10.76,1.717,21.288,1.955,32.001-0.173c10.792-2.143,20.993-5.018,32.057-5.604
			c8.809-0.468,17.78-0.427,26.265-3.11c6.793-2.148,14.205-4.69,18.229-10.979c0.709-1.106-0.658-2.302-1.723-1.724
			c-3.857,2.095-7.511,4.484-11.713,5.842c-4.623,1.496-9.188,2.064-14.006,2.527c-10.758,1.031-21.545,0.357-32.249,2.159
			c-10.76,1.811-20.969,5.381-31.991,5.444c-11.183,0.063-22.24-2.686-33.114-4.98c-36.131-7.625-72.721-15.847-104.781-34.539
			c-4.517-4.341-9.208-8.49-13.84-12.705c7.693,4.401,16.043,7.774,24.25,10.44c19.461,6.325,40.086,9.601,60.329,12.219
			c21.626,2.797,43.441,3.93,65.245,3.668c14.186-0.171,28.355-1.052,42.46-2.557c2.869,0.046,5.753,0.026,8.672-0.078
			c10.066-0.357,20.487-0.716,30.373-2.783c8.27-1.73,15.135-6.498,18.023-14.609C524.396,163.638,521.978,154.568,517.592,148.103z
			"/>
	</g>
	<g>
		<path fill="#E8C298" d="M535.904,274.23c-3.88,7.317-7.928,14.176-13.391,20.451c-5.509,6.327-11.528,11.796-18.568,16.379
			c-15.658,10.188-33.915,14.974-52.361,16.664c-21.327,1.955-42.937,0.032-64.213-1.667c-21.368-1.708-42.668-3.481-63.694-7.832
			c-20.58-4.255-40.568-11.102-58.617-21.981c-8.174-4.925-15.914-10.597-22.909-17.093c-7.079-6.575-13.198-14.167-19.327-21.612
			c-0.587-0.715-1.91,0.051-1.574,0.916c6.16,15.857,19.222,28.16,32.659,38.087c14.335,10.59,31.334,17.827,48.287,23.026
			c5.807,1.779,11.68,3.275,17.597,4.573c-0.946,0.551-1.085,2.08-0.014,2.744c8.012,4.951,17.982,6.639,27.123,8.415
			c9.877,1.922,19.866,3.297,29.879,4.273c19.852,1.934,39.893,1.782,59.738-0.158c19.333-1.886,39.169-5.119,57.517-11.664
			c15.795-5.637,31.68-15.564,38.057-31.758c0.176-0.443,0.194-0.842,0.102-1.19c3.768-5.767,6.457-12.114,7.502-18.976
			C540.024,273.662,537.094,271.989,535.904,274.23z"/>
		<path fill="#E8C298" d="M524.613,259.61c-3.347,3.771-6.409,7.788-9.766,11.549c-3.188,3.57-7.022,6.601-10.599,9.766
			c-6.99,6.184-14.778,11.397-22.991,15.802c-6.121,3.282-12.489,5.912-19.018,8.04c-6.451,0.717-12.88,1.661-19.321,2.499
			c-9.707,1.262-19.452,2.182-29.216,2.893c-19.759,1.44-39.699,2-59.473,0.566c-18.309-1.327-36.431-4.702-53.703-10.996
			c-8.003-2.916-15.756-6.475-23.165-10.676c-4.457-2.527-8.951-5.214-13.283-8.107c-3.683-3.168-7.149-6.591-10.382-10.218
			c-2.433-2.729-4.675-5.612-6.777-8.6c2.723,2.734,5.647,5.271,8.712,7.594c15.38,11.662,33.972,17.435,52.886,20.157
			c20.995,3.026,42.523,3.381,63.703,3.306c22.262-0.076,44.255-1.874,66.337-4.541c9.159-1.106,19.28-2.088,27.942-5.299
			c1.16-0.432,1.015-2.16-0.295-2.196c-5.278-0.14-10.542,0.757-15.776,1.401c-5.702,0.705-11.442,1.202-17.155,1.812
			c-11.013,1.176-22.08,1.625-33.138,2.205c-8.617,0.452-17.247,0.702-25.875,0.755c0.094-0.523-0.196-1.134-0.771-1.355
			c-2.858-1.107-6.21-1.199-9.249-1.533c-3.851-0.423-7.674-0.932-11.52-1.354c-7.378-0.812-14.76-1.689-22.099-2.793
			c-14.301-2.151-28.454-5.006-42.068-9.993c-11.296-4.14-21.835-9.986-31.516-17.104c-4.81-3.539-9.223-7.625-13.27-12.008
			c-3.498-3.788-6.338-8.409-9.899-12.171c-0.152-0.304-0.297-0.609-0.451-0.913c-0.297-0.586-0.806-0.83-1.325-0.821
			c-0.079-0.072-0.152-0.152-0.232-0.224c-1.104-0.967-2.583-0.021-2.348,1.366c0.183,1.077,0.478,2.131,0.858,3.157
			c0.442,6.439,3.278,12.521,6.66,18.015c-1.361-1.262-3.464,0.414-3.09,2.098c1.812,8.189,7.162,15.132,12.423,21.5
			c5.437,6.577,11.883,12.242,18.68,17.363c14.272,10.752,30.922,17.943,48.107,22.562c20.438,5.497,41.783,7.128,62.871,7.457
			c20.937,0.331,42.123-0.041,62.867-3.06c18.273-2.659,35.827-8.501,51.619-18.133c7.178-4.381,13.892-9.555,20.093-15.229
			c6.781-6.211,12.578-14.069,18.125-21.366C530.533,260.405,526.571,257.411,524.613,259.61z"/>
		<path fill="#E8C298" d="M557.603,213.842c-0.086-1.706-0.898-2.912-1.423-4.529c-0.146-0.449-0.862-0.389-0.848,0.114
			c0.11,3.316-0.971,7.334-2.08,10.464c-1.264,3.567-3.234,6.716-5.609,9.635c-4.347,5.354-10.177,9.32-15.936,12.992
			c-5.138,3.279-10.414,6.342-15.806,9.177c-20.756,4.541-41.401,9.157-62.473,12.063c-21.208,2.926-42.758,3.509-64.136,2.735
			c-21.403-0.777-42.741-3.315-63.736-7.531c-20.093-4.038-40.559-9.162-58.178-20c-12.544-7.716-22.608-18.509-30.188-31.091
			c-0.256-0.424-0.688-0.564-1.09-0.506c-0.012-0.024-0.025-0.049-0.037-0.075c-0.828-1.601-3.192-0.772-3.242,0.878
			c-0.247,8.409,3.903,16.798,8.449,23.661c4.839,7.312,11.015,13.685,17.86,19.127c15.392,12.239,34.232,18.953,53.173,23.429
			c20.789,4.91,42.224,7.466,63.549,8.377c10.906,0.467,21.797,0.276,32.691-0.401c6.772-0.421,13.68-0.914,20.484-1.837
			c1.286-0.012,2.569-0.033,3.851-0.071c7.645-0.22,15.261-0.996,22.824-2.104c15.307-2.238,30.278-6.481,44.585-12.341
			c13.855-5.671,26.955-12.878,38.891-21.931c5.707-4.326,11.036-9.136,14.706-15.357c1.811-3.074,3.005-6.479,3.535-9.995
			C557.662,217.096,557.687,215.482,557.603,213.842z"/>
		<path fill="#E8C298" d="M456.971,232.02c-4.554,0.595-8.74,2.109-13.097,3.508c-2.731,0.878-5.485,1.682-8.249,2.443
			c-6.361,0.622-12.713,1.479-19.102,1.896c-9.566,0.622-19.16,0.726-28.738,0.42c-19.776-0.631-39.483-3.157-58.848-7.187
			c-18.808-3.913-37.473-9.248-55.338-16.33c-15.396-6.104-30.354-14.118-42.722-25.264c-1.228-1.242-2.448-2.492-3.646-3.744
			c-0.588-0.613-1.487,0.164-1.128,0.869c8.188,16.137,23.245,27.583,38.679,36.369c16.586,9.438,34.966,16.039,53.454,20.586
			c38.243,9.409,78.907,8.743,116.908-1.473c7.614-2.048,16.235-3.994,22.791-8.526C459.318,234.632,459.041,231.749,456.971,232.02
			z M378.725,244.22c1.113,0.036,2.227,0.068,3.34,0.093C380.952,244.304,379.838,244.271,378.725,244.22z"/>
		<path fill="#E8C298" d="M538.296,179.743c-0.148-1.034-1.479-0.887-1.952-0.254c-0.381,0.504-0.717,1.041-1.032,1.59
			c-0.5-0.076-1.042,0.056-1.477,0.436c-2.285,1.993-3.472,5.377-5.111,7.911c-1.862,2.882-4.354,5.364-6.919,7.619
			c-5.848,5.137-13.227,8.402-20.548,10.79c-8.123,2.65-16.604,4.205-24.933,6.054c-5.098,1.132-10.535,2.089-15.732,3.599
			c-8.87,1.407-17.527,3.408-26.534,3.994c-9.172,0.596-18.417,0.167-27.564-0.602c-18.519-1.557-37.17-4.626-55.215-9.053
			c-18.576-4.559-35.6-12.048-52.239-21.382c-8.501-4.768-16.918-9.69-25.379-14.531c-8.256-4.726-16.664-9.889-25.621-13.156
			c-0.979-0.356-1.84,0.567-1.857,1.467c-0.167,0.274-0.221,0.614-0.073,0.993c6.371,16.461,22.809,27.986,37.473,36.659
			c16.562,9.795,34.946,16.879,53.46,21.961c38.334,10.52,79.515,11.65,118.304,2.916c2.734-0.615,5.16-1.273,7.483-2.695
			c3.202,0.288,6.475,0.053,9.665-0.071c4.488-0.179,8.98-0.604,13.43-1.22c8.876-1.224,17.453-3.573,25.555-7.44
			c7.079-3.379,13.706-8.433,18.468-14.705C534.026,195.25,539.308,186.775,538.296,179.743z M283.615,189.154
			c1.43,0.859,2.864,1.712,4.297,2.568c0.159,0.217,0.331,0.43,0.509,0.64C286.806,191.308,285.204,190.241,283.615,189.154z"/>
		<path fill="#E8C298" d="M560.254,141.875c-0.173-0.734-1.205-0.667-1.414,0c-0.624,1.993-1.094,4.049-1.662,6.066
			c-0.703,2.489-2.471,4.87-3.845,7.032c-2.648,4.166-6.604,7.68-10.606,10.51c-8.748,6.188-19.562,10.116-29.699,13.333
			c-10.633,3.375-21.604,5.775-32.662,7.24c-5.463,0.725-10.966,1.169-16.465,1.497c-5.562,0.331-11.519,0.05-16.917,1.598
			c-0.727,0.21-1.054,0.78-1.044,1.365c-1.519-0.022-3.03-0.054-4.539-0.104c-11.051-0.376-22.097-0.921-33.125-1.733
			c-21.794-1.608-43.49-4.346-65.023-8.055c-20.491-3.531-41.216-7.752-60.319-16.208c-16.521-7.314-30.175-18.012-42.175-31.294
			c-0.701-1.52-1.236-3.103-1.552-4.756c-0.317-1.653-2.697-1.143-2.79,0.378c-0.565,9.206,4.875,15.969,11.046,22.232
			c6.442,6.534,13.838,12.144,21.532,17.119c15.656,10.126,33.377,16.862,51.313,21.697c19.577,5.279,39.674,8.485,59.904,9.8
			c5.498,0.594,11.03,0.886,16.559,0.963c3.461,0.048,7.213,0.073,10.882-0.321c13.087-0.231,26.154-1.217,39.101-2.915
			c2.641-0.346,5.096-0.766,7.521-1.495c4.573-0.09,9.136-0.321,13.658-0.804c1.457-0.157,2.874-0.417,4.31-0.717
			c0.595-0.125,0.897-0.692,0.892-1.247c3.116-0.271,6.222-0.628,9.319-1.05c12.654-1.725,24.949-4.731,37.097-8.642
			c10.715-3.449,21.02-7.756,29.572-15.249C555.912,162.161,562.492,151.27,560.254,141.875z"/>
		<path fill="#E8C298" d="M496.75,226.529c-4.628-1.369-9.544-0.026-14.103,1.006c-5.208,1.181-10.931,1.544-15.751,3.954
			c-1.75,0.879-1.247,3.586,0.533,4.06c5.112,1.354,10.752,0.134,15.86-0.744c4.981-0.86,10.582-1.949,14.079-5.928
			C498.062,228.086,497.806,226.842,496.75,226.529z"/>
	</g>
	<g>
		<path fill="#F3DAB8" d="M536.374,275.177c-1.75,3.559-4.13,6.882-6.297,10.215c-2.384,3.667-5.08,7.08-8.034,10.3
			c-5.73,6.237-12.12,11.658-19.226,16.267c-15.945,10.339-34.558,15.511-53.308,17.603c-21.154,2.359-42.746,1.14-63.895-0.652
			c-22.261-1.887-44.427-5.348-66.359-9.552c-20.975-4.023-42.202-9.15-60.594-20.426c-8.002-4.906-15.233-11.006-21.267-18.199
			c-6.075-7.245-9.297-15.714-13.329-24.115c-0.65-1.351-2.694-0.634-2.707,0.735c-0.048,5.371,1.589,10.555,3.923,15.414
			c-0.217,0.176-0.355,0.449-0.265,0.741c4.816,15.399,17.076,27.781,29.717,37.244c14.971,11.207,33.001,16.747,51.097,20.428
			c20.045,4.08,40.513,6.711,60.937,7.803c10.568,0.565,21.156,0.812,31.741,0.734c5.313-0.038,10.578-0.698,15.875-1.014
			c1.5-0.09,3.028-0.176,4.562-0.277c3.042,0.069,6.076,0.102,9.111,0.083c24.676-0.137,49.686-3.993,71.69-15.649
			c9.231-4.891,17.736-11.289,24.997-18.797c3.666-3.791,6.794-8.258,9.559-12.729c2.889-4.679,4.359-9.327,5.921-14.53
			C540.902,274.54,537.439,273.013,536.374,275.177z M278.8,316.974c6.701,2.392,13.567,4.329,20.38,5.996
			c7.332,1.791,14.731,3.347,22.166,4.725c-3.806-0.633-7.607-1.3-11.398-2.029C299.219,323.601,288.749,320.976,278.8,316.974z"/>
		<path fill="#F3DAB8" d="M502.912,284.722c-10.136,2.718-19.529,7.365-29.191,11.358c-9.678,4.002-19.536,7.553-29.621,10.386
			c-21.195,5.949-42.953,6.808-64.814,5.278c-21.294-1.49-42.832-4.251-63.676-8.903c-18.794-4.191-36.785-11.149-52.521-22.383
			c-10.385-7.413-18.174-17.129-25.969-27.082c-0.802-1.023-2.45,0.087-2.107,1.227c4.911,16.354,19.454,28.802,33.316,37.803
			c16.325,10.603,36.143,16.107,55.065,19.708c20.958,3.988,42.522,6.577,63.829,7.585c21.615,1.024,42.931-1.201,63.668-7.463
			c9.228-2.788,18.231-6.285,27.117-10.014c9.201-3.862,18.331-7.828,26.589-13.506C506.59,287.347,505.402,284.053,502.912,284.722
			z"/>
		<path fill="#F3DAB8" d="M411.87,287.649c-4.125-1.589-8.687-1.701-13.007-2.505c-4.273-0.791-8.805-0.782-13.136-1.112
			c-8.944-0.685-17.888-1.372-26.831-2.057c-17.575-1.348-35.205-2.39-52.744-4.143c-15.965-1.595-30.48-6.097-43.158-16.163
			c-11.443-9.089-19.982-21.107-30.75-30.895c-1.464-1.327-3.55,0.331-2.681,2.071c6.643,13.305,16.353,24.939,27.745,34.51
			c12.753,10.712,27.551,15.84,43.899,18.026c18.185,2.431,36.716,3.089,55.004,4.481c9.391,0.714,18.782,1.432,28.173,2.146
			c4.467,0.339,8.94,0.788,13.415,0.976c4.571,0.188,9.591,0.386,14.069-0.599C414.462,291.819,413.95,288.45,411.87,287.649z"/>
		<path fill="#F3DAB8" d="M555.501,215.604c-0.233-1.555-2.922-1.568-3.138,0c-0.613,4.369-1.812,8.538-4.078,12.345
			c-1.073,1.8-3.591,3.698-5.255,4.945c-2.147,1.609-4.537,3.071-6.811,4.499c-8.309,5.223-17.552,9.239-26.552,13.094
			c-12.234,5.237-24.884,9.54-37.748,13.016c-9.146,2.237-18.28,4.469-27.639,5.706c-10.013,1.325-20.241,1.61-30.328,1.355
			c-20.711-0.531-41.454-2.75-62.024-5.107c-32.87-3.765-67.391-10.694-93.986-30.985c-1.157-1.057-2.3-2.131-3.413-3.243
			c-6.671-6.681-11.891-14.545-16.844-22.536c-1.631-2.632-6.09-0.948-5.104,2.151c5.422,17.042,19.479,30.544,33.852,40.462
			c16.604,11.459,36.409,18.039,55.866,22.71c38.459,9.239,78.571,10.406,117.625,4.515c23.855-3.599,47.25-10.146,69.572-19.287
			c11.116-4.553,22.855-9.331,32.551-16.529c2.229-1.657,3.938-3.469,5.672-5.627c1.782-2.211,2.832-4.579,4.335-6.934
			C554.874,225.74,556.285,220.786,555.501,215.604z"/>
		<path fill="#F3DAB8" d="M438.557,237.828c-2.254,0.497-4.523,1.068-6.812,1.372c-2.198,0.288-4.775-0.703-7.027-0.812
			c-4.685-0.229-9.493,0.904-14.149,1.318c-9.094,0.803-18.212,1.297-27.339,1.467c-15.813,0.288-31.634-0.881-47.244-3.383
			c-0.77-0.194-1.54-0.391-2.315-0.59c-5.75-1.491-11.415-3.568-17.088-5.362c-10.934-3.461-21.798-7.579-32.533-11.635
			c-10.596-4.003-21.037-8.389-31.371-13.021c-4.241-1.902-8.405-3.992-12.303-6.533c-0.259-0.168-0.521-0.339-0.788-0.51
			c-2.48-2.499-4.771-5.229-7.049-8.206c-1.06-1.385-2.873-1.041-3.409,0.262c-0.246-0.273-0.485-0.551-0.71-0.833
			c-0.167-0.209-0.455,0.058-0.351,0.271c0.376,0.768,0.708,1.512,1.036,2.245c1.473,7.658,7.711,13.652,13.592,18.322
			c7.087,5.632,15.543,9.557,23.718,13.318c17.967,8.267,37.155,14.135,56.503,18.116c19.031,3.916,38.503,5.758,57.928,5.645
			c9.877-0.057,19.746-0.782,29.523-2.195c4.689-0.676,9.436-1.28,14.013-2.533c2.029-0.554,4.032-1.689,5.716-2.919
			c2.304-1.679,6.102-1.869,8.817-2.512C439.756,238.923,439.398,237.644,438.557,237.828z"/>
		<path fill="#F3DAB8" d="M530.211,193.738c-3.226,1.876-5.881,4.356-9.001,6.396c-3.616,2.361-7.702,3.915-11.79,5.229
			c-9.486,3.052-19.396,5.051-29.094,7.308c-21.529,5.009-43.356,8.532-65.406,10.315c-1.856,0.148-3.714,0.273-5.57,0.384
			c-0.268-0.012-0.535-0.021-0.804-0.033c-8.076-0.383-16.19-1.717-24.168-3.056c-15.773-2.649-31.37-5.964-46.619-10.833
			c-15.298-4.885-30.126-11.188-44.327-18.674c-7.065-3.726-13.926-7.832-20.66-12.125c-3.523-2.247-6.965-4.621-10.429-6.957
			c-2.362-1.595-5.096-3.672-7.973-4.377c-0.637-0.405-1.28-0.802-1.931-1.177c-1.748-1.006-3.552,0.961-2.665,2.663
			c4.141,7.931,11.75,14.071,18.554,19.677c7.097,5.849,14.768,11.012,22.669,15.709c15.843,9.418,33.166,16.398,51.006,20.969
			c19.932,5.106,40.66,6.526,61.171,5.794c10.8-0.384,21.562-1.487,32.252-3.044c10.888-1.586,21.517-4.211,32.294-6.359
			c13.553-2.704,27.147-5.693,40.482-9.334c8.832-2.411,22.606-6.797,23.979-17.344
			C532.312,193.843,530.984,193.289,530.211,193.738z"/>
		<path fill="#F3DAB8" d="M540.896,166.923c-11.918,13.275-32.155,14.311-48.625,16.619c-22.211,3.116-44.464,6.138-66.886,7.139
			c-21.845,0.976-43.768,1.129-65.52-1.347c-18.253-2.077-36.252-6.366-53.593-12.409c-12.448-4.337-24.337-10.064-35.532-17.02
			c-5.623-3.493-11.218-7.082-16.437-11.164c-4.977-3.892-9.469-8.382-14.762-11.836c-1.072-0.699-2.309,0.657-1.704,1.703
			c4.392,7.586,11.787,13.291,18.473,18.792c6.922,5.694,14.521,10.467,22.385,14.74c16.008,8.699,33.234,15.109,50.934,19.345
			c19.151,4.583,38.845,6.638,58.506,7.141c22.278,0.57,44.385-1.686,66.501-4.107c17.961-1.967,35.919-4.346,53.782-7.083
			c13.302-2.04,28.115-5.899,34.956-18.6C544.203,167.303,542.132,165.544,540.896,166.923z"/>
	</g>
	<g>
		<path fill="#FFF2D7" d="M535.181,276.837c-4.386,7.399-8.243,14.717-13.968,21.24c-5.689,6.479-12.483,11.917-19.81,16.426
			c-17.024,10.473-37.113,14.721-56.785,16.574c-21.482,2.024-43.306,1.735-64.836,0.69c-21.746-1.056-43.58-3.213-65.016-7.069
			c-20.528-3.692-40.972-9.853-58.204-21.943c-7.521-5.275-14.333-11.808-19.829-19.173c-5.656-7.573-9.433-16.115-12.479-25.016
			c-0.455-1.333-2.743-1.209-2.592,0.352C223.278,275.444,234,290.248,246.12,301c14.003,12.426,31.581,19.97,49.471,24.858
			c20.037,5.476,41.019,7.892,61.659,9.76c22.028,1.998,44.173,2.631,66.28,2.046c25.028-0.667,50.67-3.361,73.419-14.553
			c9.636-4.74,18.613-11.205,25.951-19.056c6.788-7.265,13.123-16.607,14.462-26.63
			C537.525,276.215,535.729,275.914,535.181,276.837z"/>
		<path fill="#FFF2D7" d="M484.902,297.575c-4.425,1.428-8.966,2.313-13.411,3.71c-4.809,1.512-9.658,2.875-14.538,4.133
			c-9.39,2.423-18.905,4.345-28.496,5.768c-19.331,2.868-39.003,3.469-58.483,2.062c-19.492-1.407-38.788-5.151-57.462-10.892
			c-17.945-5.517-36.057-12.762-51.761-23.175c-8.775-5.816-16.365-13.506-21.987-22.412c-0.743-1.178-2.858-0.426-2.335,0.981
			c6.115,16.441,21.64,26.809,36.632,34.5c16.987,8.717,35.187,15.111,53.712,19.638c37.406,9.136,76.792,9.867,114.534,2.348
			c7.604-1.517,15.119-3.437,22.534-5.714c3.711-1.136,7.383-2.39,11.031-3.717c3.829-1.392,7.216-3.461,10.895-5.189
			C486.918,299.074,486.1,297.19,484.902,297.575z"/>
		<path fill="#FFF2D7" d="M403.279,288.374c-7.714-0.75-15.492-0.461-23.229-0.352c-8.187,0.118-16.377-0.188-24.542-0.8
			c-16.525-1.235-32.901-4.116-48.92-8.339c-15.263-4.022-30.186-9.325-43.748-17.501c-6.09-3.671-11.694-8.111-16.748-13.107
			c-4.921-4.862-8.466-10.641-12.847-15.914c-0.891-1.074-2.568,0.08-2.239,1.304c1.75,6.522,6.424,12.349,10.861,17.291
			c4.779,5.327,10.396,9.832,16.323,13.808c13.385,8.979,29.051,14.353,44.468,18.646c16.423,4.576,33.298,7.484,50.273,8.989
			c8.586,0.765,17.209,1.066,25.826,1.021c8.336-0.042,16.766-0.559,24.807-2.937C404.787,290.123,404.451,288.486,403.279,288.374z
			"/>
		<path fill="#FFF2D7" d="M554.249,204.344c-0.652-0.934-1.932-0.334-1.768,0.748c1.023,6.75,0.337,13.02-2.923,19.087
			c-1.662,3.095-3.954,5.844-6.507,8.341c-3.208,2.58-6.91,4.731-10.293,6.835c-4.868,3.029-9.775,5.996-14.664,8.993
			c-1.938,1.188-4.247,2.359-6.463,3.678c-0.072,0.021-0.144,0.036-0.218,0.076c-8.855,4.763-18.834,8.354-28.347,11.603
			c-9.48,3.241-19.259,5.529-29.114,7.303c-21.339,3.837-43.217,3.977-64.794,2.571c-21.714-1.413-43.593-4.104-64.939-8.361
			c-19.332-3.856-38.177-10.088-54.74-20.967c-11.714-7.692-20.567-17.84-28.631-29.161c-0.89-1.248-3.31-0.52-2.665,1.124
			c6.235,15.863,20.611,28.088,34.954,36.571c17.03,10.072,36.446,15.31,55.768,18.821c21.173,3.851,42.777,6.371,64.255,7.617
			c10.697,0.623,21.428,0.747,32.123,0.239c6.245,1.648,13.387,0.648,19.726,0.05c7.166-0.676,14.286-1.773,21.317-3.297
			c14.373-3.112,28.115-7.892,41.357-14.287c12.648-6.105,24.897-13.711,35.568-22.877
			C552.252,231.323,562.405,216.022,554.249,204.344z"/>
		<path fill="#FFF2D7" d="M402.823,240.753c-7.469,0.599-14.86,1.994-22.345,2.568c-7.554,0.577-15.156,0.423-22.705-0.134
			c-15.435-1.137-30.604-4.702-45.324-9.374c-14.895-4.731-29.337-10.811-43.575-17.221c-6.484-2.919-13.056-5.708-19.368-8.991
			c-2.879-1.498-5.591-3.21-8.263-5.045c-2.586-1.777-4.653-4.157-7.338-5.787c-0.775-0.47-1.794,0.302-1.531,1.178
			c1.725,5.765,7.988,9.706,12.846,12.688c6.274,3.851,13.197,6.824,19.877,9.882c14.617,6.696,29.446,12.954,44.735,17.959
			c15.158,4.961,30.781,8.419,46.677,9.826c15.125,1.339,32.913,1.461,47.036-4.874C404.845,242.849,404.21,240.64,402.823,240.753z
			"/>
		<path fill="#FFF2D7" d="M453.324,218.371c-8.784,1.514-17.375,3.771-26.251,4.813c-8.65,1.012-17.353,1.185-26.049,1.018
			c-18.057-0.342-36.16-2.746-53.935-5.812c-17.548-3.026-34.319-7.985-49.536-17.435c-7.147-4.438-13.818-9.606-20.244-15.024
			c-6.429-5.422-12.473-11.413-19.531-16.022c-1.035-0.677-2.542,0.712-1.76,1.76c5.023,6.727,11.348,12.397,17.671,17.884
			c6.687,5.802,13.697,11.254,21.177,16c15.463,9.815,32.892,14.873,50.801,17.992c18.254,3.178,36.815,5.377,55.355,5.62
			c8.882,0.117,17.836-0.419,26.632-1.665c9.008-1.277,18.327-2.979,26.505-7.146C455.334,219.757,454.462,218.174,453.324,218.371z
			"/>
		<path fill="#FFF2D7" d="M427.162,195.007c-7.43-1.65-15.533-1.309-23.112-1.637c-8.064-0.348-16.129-0.73-24.183-1.241
			c-16.436-1.043-32.856-2.581-49.194-4.652c-14.885-1.886-29.598-4.905-42.775-12.373c-12.548-7.113-22.473-17.384-33.927-25.951
			c-1.227-0.916-2.357,0.957-1.522,1.972c8.84,10.741,19.983,20.569,31.907,27.754c13.15,7.923,28.15,11.225,43.198,13.263
			c16.464,2.23,33.045,3.705,49.628,4.699c8.501,0.509,17.008,0.854,25.522,1.023c7.95,0.16,16.652,0.737,24.457-1.01
			C428.079,196.649,428.079,195.211,427.162,195.007z"/>
		<path fill="#FFF2D7" d="M534.342,170.66c-11.043,5.063-21.907,9.691-33.741,12.636c-5.515,1.372-11.178,2.523-16.79,3.38
			c-3.028,0.463-6.111,1.058-9.159,1.323c-2.96,0.259-5.938,0.268-8.784,1.207c-0.741,0.245-0.737,1.251,0,1.498
			c2.471,0.824,4.976,0.849,7.562,0.818c3.258-0.04,6.529,0.073,9.772-0.219c6.371-0.573,12.561-1.484,18.792-2.96
			c11.938-2.83,24.272-7.102,34.817-13.458C539.563,173.226,537.162,169.365,534.342,170.66z"/>
		<path fill="#FFF2D7" d="M527.074,193.308c-2.555,2.252-4.688,4.709-7.576,6.618c-2.9,1.92-6.178,3.289-9.415,4.513
			c-7.738,2.927-16.366,4.828-23.356,9.417c-0.73,0.482-0.518,1.83,0.479,1.765c8.749-0.577,17.919-4.154,26.038-7.336
			c6.16-2.415,14.547-6.456,16.321-13.526C529.94,193.259,528.179,192.334,527.074,193.308z"/>
	</g>
</g>
<path opacity="0.5" fill="#FF7F00" d="M188.291,290.424c5.557,7.543,12.89,13.998,20.206,19.782
	c7.405,5.859,15.368,10.995,23.795,15.257c4.029,2.038,8.183,3.826,12.379,5.493c4.685,1.856,9.561,3.752,14.684,3.41
	c8.581-0.572,14.282-9.454,9.341-16.971c-2.604-3.96-6.915-7.091-10.335-10.312c-3.541-3.331-7.083-6.665-10.624-9.998
	c-2.653-3.568-5.258-7.171-7.796-10.825c-5.177-7.447-9.566-15.566-14.763-23.025c-0.941-3.655-1.376-7.419-1.449-11.201
	c-0.204-10.445,3.627-19.515,9.748-27.764c3.122-4.208,4.965-8.882,3.581-14.113c-1.191-4.502-5.009-7.753-7.67-11.369
	c-0.464-0.627-0.848-1.29-1.168-1.97c1.799,1.499,4.229,2.384,6.929,2.268c3.834-0.166,7.391-2.561,10.489-4.595
	c2.896-1.902,5.608-4.271,7.001-7.505c1.521-3.534,0.53-6.989-0.314-10.552c-0.931-3.929,1.909-6.066,4.507-8.268
	c1.193,0.523,2.562,0.714,4.083,0.43c1.435-0.267,1.332-2.107,0.366-2.799c-4.583-3.283-3.219-8.582,1.065-11.306
	c5.113-3.25,12.97-2.839,18.776-3.426c13.923-1.411,27.964-3.484,41.962-3.854c12.938-0.342,24.051,3.795,33.649,12.431
	c4.797,4.316,8.779,9.441,12.396,14.758c1.859,2.73,3.657,5.521,5.382,8.338c1.596,2.605,3.025,5.306,5.317,7.364
	c0.253,3.454,1.627,7.03,2.892,9.909c1.627,3.702,5.026,9.03,9.1,11.278c-0.188,0.412-0.373,0.824-0.566,1.22
	c-1.162,2.378-2.443,4.669-3.906,6.873c-1.093,1.639-0.302,3.886,1.271,4.855c1.362,0.836,3.755,2.55,5.903,2.952
	c0.271,0.708,0.842,1.279,1.735,1.439c0.244,0.042,0.473,0.08,0.699,0.113c2.627,5.621,3.473,11.709,3.387,17.92
	c-0.021,1.481-0.155,2.987-0.337,4.505c-3.515-0.812-7.413,1.169-9.751,3.97c-4.425,5.3-1.92,13.221-0.857,19.253
	c1.331,7.559,2.729,15.104,4.104,22.657c0.727,3.996,1.438,7.996,2.211,11.982c0.321,1.664,0.637,3.253,1.122,4.768
	c-0.262,0.31-0.467,0.679-0.589,1.118c-1.435,5.151-2.654,10.377-3.815,15.597c-0.55,2.479-1.607,5.538-2.038,8.502
	c-10.267-0.301-20.568,0.749-30.873,0.273c-11.028-0.509-21.961-1.89-32.777-4.092c-8.942-1.817-18.844-2.892-24.435,5.904
	c-4.934,7.763,2.242,14.974,8.918,17.928c18.791,8.321,39.949,13.576,60.41,15.144c21.298,1.635,42.661-2.363,63.089-8.094
	c12.474-3.503,24.713-7.794,36.938-12.072c4.172-1.464,7.853-4.057,8.252-8.743c0.413-4.809-4.964-6.774-8.714-7.156
	c-6.21-0.628-12.857,0.143-19.101,0.238c-6.728,0.098-13.453,0.231-20.182,0.377c-5.273,0.114-10.543,0.228-15.815,0.343
	c1.098-4.317,0.5-9.688,0.464-13.311c-0.032-2.91,0.024-6.656-0.67-10.069c0.155-1.291,0.287-2.571,0.421-3.814
	c0.487-4.499,0.889-8.999,1.258-13.511c0.762-9.255,1.465-18.523,1.991-27.799c0.346-6.112-0.443-13.69-6.085-17.354
	c-0.042-0.027-0.09-0.052-0.132-0.077c-0.485-0.908-0.928-1.828-1.333-2.774c-0.64-3.059-0.723-6.219-0.118-9.216
	c1.537-7.611,8.004-11.421,12.578-17.089c5.014-6.214,5.889-14.271,8.325-21.62c2.289-6.911,6.685-12.995,11.922-17.969
	c10.911-10.357,26.822-14.524,41.288-10.259c7.218,2.13,13.345,6.884,17.383,13.193c2.021,3.159,3.244,6.621,3.914,10.293
	c0.639,3.522,1.27,7.903,0.669,11.434c-0.137,0.793,0.407,1.509,1.06,1.779c0.178,2.46,0.467,4.922,0.675,7.322
	c0.683,7.799,1.443,15.592,2.203,23.386c-5.06,1.967-7.229,8.998-4.666,14.286c2.06,4.253,5.672,7.498,8.079,11.552
	c2.701,4.543,3.469,9.698,3.937,14.872h0.096c0.3,2.998,4.916,4.125,5.479,0.757c0.478-2.875,0.443-5.734,0.012-8.535
	c0.112-2.335,0.291-4.672,0.386-6.97c0.224-5.251,0.509-10.509,0.533-15.768c0.012-2.942-0.592-5.772-2.131-8.162
	c-0.929-3.66-2.023-7.291-2.833-10.959c-1.573-7.157-2.434-14.446-2.646-21.767c-0.211-7.319,0.394-14.651,1.69-21.851
	c1.218-6.751,2.845-13.755,6.787-19.473c3.366-4.882,10.855-7.774,15.649-3.321c3.961,3.679,3.973,10.811,4.092,15.773
	c0.196,8.083,0.298,16.167,0.443,24.251c0.062,3.394-0.023,6.869,0.033,10.338c-0.019,0.042-0.045,0.078-0.06,0.124
	c-1.702,5.367-1.259,10.373-0.854,15.967c0.449,6.222,0.854,12.433,0.848,18.673c-0.006,5.72-0.385,11.433-0.994,17.116
	c-0.324,3.011-0.827,5.996-1.125,9.011c-1.327,3.782-2.317,7.671-3.711,11.446c-1.892,5.125-4.505,9.987-7.496,14.549
	c-6.007,9.163-14.369,16.674-23.941,21.947c-2.94,1.618-1.747,6.742,1.758,6.492c20.122-1.429,39.068-10.198,53.236-24.56
	c6.486-6.572,14.391-15.798,10.144-25.501c-1.729-3.955-6.57-5.969-10.388-7.139c-4.413-1.348-10.77-2.298-11.484-7.475
	c0.549-5.279,0.801-10.583,0.843-15.888c0.051-6.237-0.357-12.468-0.961-18.673c-0.054-0.538-0.104-1.068-0.157-1.598
	c0.365-0.295,0.651-0.708,0.778-1.262c2.086-8.859,0.747-18.589,0.51-27.611c-0.131-4.939-0.122-9.921-0.253-14.891
	c2.068-7.939,2.779-16.525,3.979-24.412c1.336-8.797,3.208-18.241-3.371-25.451c-2.804-3.068-6.993-4.689-10.714-6.292
	c-5.319-2.292-10.667-4.529-16.003-6.785c-5.873-2.483-18.188-6.006-16.661-14.559c0.729-4.074,5.606-3.339,8.74-4.032
	c3.842-0.851,7.895-5.27,6.778-9.422c-1.189-4.424-5.413-6.013-9.195-7.828c-4.624-2.22-9.402-4.113-14.257-5.769
	c-18.987-6.477-39.124-8.99-58.963-11.314c-11.783-1.38-23.571-2.716-35.357-4.072c-2.218-0.256-4.438-0.5-6.654-0.747
	c-2.707-0.597-5.418-1.116-8.082-1.606c-9.721-1.787-19.606-2.664-29.482-2.771c-19.841-0.212-39.774,3.329-58.422,10.053
	c-6.533,2.356-17.593,6.44-13.102,15.482c1.31,2.637,4.571,3.895,7.069,5.023c1.254,0.565,2.754,1.18,3.59,2.33
	c1.613,2.222-0.732,5.112-2.242,6.53c-3.366,3.161-8.847,4.73-13.084,6.255c-4.987,1.794-10.084,3.276-15.112,4.956
	c-8.563,2.86-16.68,6.516-23.74,12.22c-7.059,5.705-11.366,13.696-12.664,22.622c-0.745,5.13-0.684,10.329-0.428,15.491
	c0.183,3.712,0.192,7.77,1.369,11.327c-3.095-0.085-6.527,0.911-8.626,1.966c-5.151,2.584-8.605,7.318-9.515,13.011
	c-0.952,5.968,1.276,10.93,4.886,15.518c1.699,2.16,3.575,4.081,4.895,6.515c1.486,2.744-0.355,5.575-1.864,7.822
	c-3.29,4.901-6.344,9.351-8.413,14.944c-1.843,4.979-2.66,10.37-2.825,15.673c-3.379-1.005-7.31-0.848-10.751,0.33
	c-7.812,2.679-16.127,7.964-20.539,15.067"/>
<g opacity="0.5">
	<path fill="#FFFFFF" d="M253.543,323.273c-2.013-3.869-8.208-4.641-11.943-5.935c-5.074-1.762-9.924-4.008-14.593-6.656
		c-8.961-5.086-17.798-11.245-25.599-17.953c-0.411-0.352-1.012,0.087-0.753,0.581c2.6,4.939,5.406,9.454,9.32,13.452
		c3.971,4.06,8.325,7.551,13.175,10.517c4.831,2.956,10.019,5.407,15.335,7.351c4.26,1.56,10.72,4.252,14.752,1.003
		C253.934,325.069,253.917,323.99,253.543,323.273z"/>
	<path fill="#FFFFFF" d="M407.424,360.877c-3.449,0.048-7.016,1.259-10.409,1.89c-3.71,0.693-7.441,1.339-11.191,1.794
		c-7.736,0.943-15.625,1.021-23.386,0.396c-15.276-1.229-30.774-6.323-44.916-12.045c-0.966-0.39-1.768,1.077-1.011,1.734
		c6.135,5.309,12.426,9.088,19.926,12.203c7.818,3.247,16.52,4.675,24.887,5.553c8.155,0.86,16.251,0.545,24.36-0.568
		c4.026-0.55,8.082-1.374,11.948-2.646c3.728-1.223,8.069-2.574,11.123-5.097C410.055,363.017,408.963,360.856,407.424,360.877z"/>
	<path fill="#FFFFFF" d="M365.775,154.378c-2.863-7.893-9.616-11.922-17.117-14.947c-3.824-1.542-7.982-2.238-12.062-2.665
		c-3.263-0.344-7.923,0.241-9.956,3.06c-0.174,0.24-0.104,0.639,0.108,0.833c2.117,1.944,5.208,2.101,7.933,2.574
		c3.453,0.6,6.793,1.222,10.123,2.355c6.869,2.342,12.812,6.875,19.261,10.105C364.898,156.11,366.154,155.415,365.775,154.378z"/>
	<path fill="#FFFFFF" d="M401.699,207.55c-1.878-3.763-7.058-7.632-11.313-5.252c-1.301,0.726-1.664,2.779-0.491,3.803
		c1.682,1.467,4.262,1.962,5.196,4.235c0.948,2.318-0.604,4.452-1.206,6.617c-0.788,2.846,2.172,4.487,4.521,3.473
		C403.041,218.425,403.723,211.604,401.699,207.55z"/>
	<path fill="#FFFFFF" d="M399.422,277.051c-0.559-2.938-1.14-5.868-1.648-8.812c-0.52-3.028-1.918-6.862,1.117-8.778
		c1.952-1.231,1.847-4.665-0.679-5.191c-3.285-0.685-5.654,1.014-7.416,3.698c-2.178,3.317-0.705,8.671-0.086,12.218
		c1.401,8.059,3.919,18.143,9.84,24.15c0.469,0.475,1.224,0.105,1.253-0.52C402.068,288.288,400.458,282.458,399.422,277.051z"/>
	<path fill="#FFFFFF" d="M516.143,223.571c-0.533-4.236-1.018-8.483-1.616-12.713c-1.178-8.329-2.015-17.036-4.948-24.963
		c-0.164-0.438-0.732-0.342-0.786,0.105c-0.994,8.419,0.224,17.097,1.026,25.495c0.387,4.03,0.888,8.054,1.337,12.076
		c0.404,3.657,0.812,8.159,2.731,11.341c0.548,0.907,1.877,0.696,2.187-0.286C517.133,231.284,516.574,227.012,516.143,223.571z"/>
	<path fill="#FFFFFF" d="M551.463,225.562c-0.038-5.418-0.142-10.834-0.428-16.249s-0.473-10.845-0.894-16.251
		c-0.392-5.093-1.365-10.043-2.239-15.066c-0.132-0.751-1.203-0.504-1.254,0.17c-0.377,4.982-0.818,9.891-0.771,14.896
		c0.051,5.414,0.447,10.843,0.688,16.251c0.221,4.974,0.584,9.938,1.027,14.896c0.438,4.862,0.148,10.507,1.916,15.102
		c0.26,0.676,1.259,0.779,1.476,0C552.189,234.978,551.497,230.017,551.463,225.562z"/>
	<path fill="#FFFFFF" d="M570.764,284.743c-1.567-3.446-5.748-7.105-9.688-6.983c-2.303,0.073-4.22,3.317-2.073,5.01
		c2.031,1.604,4.165,2.497,5.671,4.717c1.473,2.169,2.285,4.664,3.657,6.877c0.342,0.548,1.009,0.581,1.479,0.19
		C572.752,292.099,572.184,287.855,570.764,284.743z"/>
	<path fill="#FFFFFF" d="M237.275,180.176c-6.479-3.29-14.215,2.678-16.47,8.504c-2.479,6.406,1.446,17.415,7.768,20.336
		c1.391,0.643,3.592-0.081,3.41-1.957c-0.509-5.229-4.845-8.975-4.726-14.509c0.128-6.035,7.515-5.667,10.401-9.393
		C238.358,182.256,238.476,180.786,237.275,180.176z"/>
	<path fill="#FFFFFF" d="M253.974,132.416c-11.382-1.238-17.929,14.002-13.403,23.028c1.185,2.362,4.731,1.135,4.771-1.292
		c0.067-4.042,0.079-7.613,2.035-11.274c1.76-3.294,4.848-5.911,7.387-8.557C255.49,133.566,254.914,132.517,253.974,132.416z"/>
	<path fill="#FFFFFF" d="M308.285,87.801c-1.356,0.283-2.44,2.044-1.917,3.379c0.937,2.396,3.026,3.413,1.399,6.111
		c-1.489,2.47-4.772,3.038-6.906,4.752c-0.611,0.492-0.289,1.683,0.479,1.813c4.653,0.794,9.908-1.634,12.358-5.627
		C316.149,94.233,313.912,86.628,308.285,87.801z"/>
	<path fill="#FFFFFF" d="M522.441,126.417c-5.041-2.372-9.52-6.264-12.686-10.861c-3.567-5.182-2.832-10.749-0.098-16.061
		c1-1.938-1.036-4.184-3.036-3.035c-6.802,3.914-7.798,13.413-4.507,19.973c1.868,3.719,4.6,6.762,8.373,8.586
		c3.818,1.845,7.522,2.255,11.712,2.29C522.653,127.312,522.885,126.626,522.441,126.417z"/>
</g>
</svg>
