<svg xmlns="http://www.w3.org/2000/svg" viewBox="0 0 768 430"><style>.a{fill:#202020;}.b{fill:#141414;}.c{fill:#E5544C;}.d{fill:#FF8073;}.e{fill:#181818;}.f{fill:#F3F3F3;}.g{fill:#878686;}.h{fill:#161616;}.i{fill:#B9B9BA;}.j{fill:#FFF;}.k{fill:#505051;}.l{fill:#2E44FF;}.m{fill:#03147A;}.n{fill:#010521;}.o{fill:#262626;}.p{fill:#5F0000;}.q{fill:#F98B85;}</style><path d="M459.2 140.1c14 7.9 34.4-4.4 37.1-21.5 2.8-17.1-4.8-33.7-25.1-37.8 -20.3-4.2-29.3 14.1-30.9 20.8C440.2 114.2 445.2 132.2 459.2 140.1z" class="a"/><path d="M468.7 142.9L468.7 142.9c-3.5 0-6.8-0.8-9.7-2.5 -14.1-7.9-19.1-25.9-19.1-38.8l0-0.1c1.5-6 8.9-21.6 25.5-21.6 1.9 0 3.9 0.2 5.8 0.6 18.6 3.8 28.6 18.8 25.4 38.2C494.5 131.8 481.7 142.9 468.7 142.9zM440.6 101.6c0 12.8 4.9 30.4 18.7 38.2 2.8 1.6 6 2.4 9.4 2.4l0 0c12.7 0 25.1-10.8 27.2-23.6 2.3-14.4-2.8-32.9-24.9-37.4 -2-0.4-3.9-0.6-5.7-0.6C449.2 80.5 442 95.7 440.6 101.6z" class="b"/><path d="M449.2 118.4c0 0 1.7-21.6 17.3-22.5 15.6-0.9 18.9 18.9 10.2 28.4 -8.6 9.5-23.7 1.7-24.9 1.4 0.3-2.8 2.8-7.7 6.4-8.9C456.2 115.7 451.8 116.7 449.2 118.4z" class="c"/><path d="M449.2 118.4c0 0 5.6-17 18.2-18.8 9.5-1.3 17.9 15.2 9.3 24.7 -8.6 9.5-23.7 1.7-24.9 1.4 0.3-2.8 2.8-7.7 6.4-8.9C456.2 115.7 451.8 116.7 449.2 118.4z" class="d"/><path d="M465.3 129.3c-5.6 0-10.9-2.2-12.9-3.1 -0.3-0.1-0.6-0.3-0.7-0.3l-0.3-0.1 0-0.3c0.3-2.7 2.6-7.2 5.8-8.8 -0.4-0.1-0.8-0.1-1.3-0.1 -2.1 0-4.8 0.8-6.5 2l-0.6 0.4 0.1-0.7c0-0.2 1.9-21.9 17.6-22.8 0.3 0 0.7 0 1 0 5.8 0 10.4 2.9 12.7 8.2 3 6.7 1.6 15.4-3.2 20.7C474.1 127.7 470.2 129.3 465.3 129.3zM452.2 125.4c0.1 0.1 0.3 0.1 0.5 0.2 2 0.8 7.1 3 12.6 3 4.6 0 8.4-1.5 11.1-4.6 4.7-5.1 6-13.5 3.1-20 -2.2-5-6.5-7.8-12.1-7.8 -0.3 0-0.6 0-1 0 -13.5 0.8-16.4 17.8-16.9 21.5 1.8-1 4.3-1.7 6.3-1.7 1 0 1.8 0.2 2.4 0.5l0.8 0.4 -0.8 0.3C455.2 118.1 452.7 122.5 452.2 125.4z" class="b"/><path d="M342.8 307.4c0 0-31.1 11.3-43.6 20.8 -5.3-4.8-16.4-8.3-23.3-8.3 -6.9 0-17.3 8.1-10.6 15.5 -2.2 8.8 6.7 12.2 18.5 18.2 11.8 6 28.8 19.1 50.1 8.8 8.8-3.5 21.9-22 21.2-25.5C352.5 330.2 347.2 309.3 342.8 307.4z" class="e"/><path d="M342.8 307.4c0 0-31.1 11.3-43.6 20.8 -5.3-4.8-16.4-8.3-23.3-8.3 -6.9 0-13.1 6.3-7.9 11.7 -2.2 8.8 7.4 10.4 19.2 16.4 11.8 6 20.8 12 42 1.7 8.8-3.5 21.5-20.1 20.8-23.6C347.5 319.5 347.2 309.3 342.8 307.4z" class="a"/><path d="M317.7 366.5h0c-11.3 0-21.1-5.5-28.9-9.8 -1.8-1-3.6-2-5.2-2.8 -1.1-0.5-2.1-1.1-3.1-1.6 -10.1-5.1-17.5-8.8-15.6-16.9 -2.8-3.2-2.3-6.2-1.5-8.1 2-4.6 8.2-7.8 12.5-7.8 6.8 0 17.7 3.3 23.3 8.2 12.5-9.3 43.1-20.5 43.5-20.6l0.1 0 0.1 0.1c3.4 1.4 7 12.9 9.9 22.2 1 3.1 1.8 5.7 2.5 7.4 0.8 4-12.8 22.6-21.4 26C328.6 365.2 323.2 366.5 317.7 366.5zM275.9 320.2c-4 0-9.9 3-11.8 7.4 -1.1 2.6-0.6 5.2 1.5 7.5l0.1 0.1 0 0.2c-1.9 7.7 4.9 11.1 15.2 16.3 1 0.5 2 1 3.1 1.6 1.6 0.8 3.4 1.8 5.2 2.8 7.8 4.3 17.4 9.7 28.6 9.8h0c5.4 0 10.7-1.3 15.9-3.8 8.7-3.4 21.7-21.9 21-25.1 -0.6-1.7-1.5-4.3-2.5-7.4 -2.5-8-6.4-20.1-9.4-21.7 -2.2 0.8-31.5 11.7-43.4 20.7l-0.2 0.2 -0.2-0.2C293.7 323.6 282.5 320.2 275.9 320.2z" class="b"/><path d="M265.6 335.4l-0.6-0.2c3.5-9.8 16.6-7.2 16.6-7.2C281.5 328 268.9 326.1 265.6 335.4z" class="b"/><path d="M437.8 240.5c6 15.5 25.8 38.8 26.8 60.7 10.6 7.2 24.8 29.9 25.8 37.9 10.8-7.6 18.1-19.3 31.1-16.3 7-2.2 17.4 0.6 20.3 8.3 5.1 2.2 6.8 11.9-1 20.2 -7.8 8.3-24.1 21.2-40.1 24.6 -15.4 3.2-19.5-3.7-21.2-8.8 -6.5-6.5-30.7-16.1-60-9.6C416.2 336 420.7 246.1 437.8 240.5z" class="e"/><path d="M541.8 331.2c-2.9-7.7-13.3-10.5-20.3-8.3 -13-3-20.3 8.6-31.1 16.3 -1-8.1-15.2-30.8-25.8-37.9 -0.9-21.9-20.8-45.2-26.8-60.7 -17.1 5.5-20.5 83.7-17.3 105.2 29.3-6.6 49.5 4.4 56 10.9 1.2 3.7 5.8 11.2 14.1 13.8 -1.6-4.4-1.8-9.2-0.4-13.7 4.8-13.1 18.7-23.5 33.2-22.8 4.1 0.8 4.3 5.1 2.8 8.2 2.1-3.5 6.9-8.2 10.3-4.8 1 1 2.2 3.4 1.6 5.3C540.3 341.1 543.7 335.2 541.8 331.2z" class="a"/><path d="M470.8 306.7c0 0-39.1 3.9-57.8 36.5 -0.3-10.5 17.5-93.4 27.1-93.4 6.3 3.2 25.4 39.3 24.2 51.2C466.6 302.2 470.8 306.7 470.8 306.7z" class="f"/><path d="M493.5 377.1c-9.8 0-12.9-5.5-14.3-9.7 -4.6-4.5-19.4-11.6-40-11.6 -6.5 0-13.1 0.7-19.6 2.2l-0.4 0.1 -0.1-0.4c-1.5-10.3-1.4-37.9 1.6-64.6 2-18.3 6.9-49.5 17-52.8l0.3-0.1 0.1 0.3c2 5.2 5.7 11.4 9.5 17.9 7.8 13.2 16.6 28.1 17.3 42.7 10.6 7.2 24.2 29.2 25.8 37.5 2.7-1.9 5.2-4.1 7.6-6.3 6-5.3 11.6-10.2 19.2-10.2 1.3 0 2.7 0.2 4.1 0.5 1.6-0.5 3.3-0.7 5.1-0.7 6 0 13.1 2.8 15.5 9.1 2.1 1 3.6 3.1 4.2 5.9 1 4.8-1 10.3-5.2 14.8 -7.1 7.5-23.6 21.2-40.3 24.7C498.1 376.8 495.7 377.1 493.5 377.1zM439.1 355c20.9 0 36 7.3 40.5 11.9l0.1 0.1 0 0.1c1.4 4 4.3 9.4 13.7 9.4 2.1 0 4.5-0.3 7.1-0.8 16.6-3.5 32.9-17 40-24.5 4.1-4.3 6-9.6 5-14.2 -0.5-2.6-2-4.6-3.9-5.4l-0.1-0.1 -0.1-0.1c-2.3-6.1-9.1-8.8-14.9-8.8 -1.8 0-3.4 0.2-4.9 0.7l-0.1 0 -0.1 0c-1.4-0.3-2.7-0.5-4-0.5 -7.3 0-12.8 4.9-18.7 10.1 -2.6 2.3-5.2 4.6-8.1 6.6l-0.5 0.3 -0.1-0.6c-1-7.8-15-30.5-25.7-37.7l-0.1-0.1 0-0.2c-0.6-14.4-9.4-29.4-17.2-42.5 -3.8-6.4-7.4-12.5-9.4-17.7 -16.3 6.4-21.1 93.4-17.9 116.2C426.2 355.8 432.7 355 439.1 355z" class="b"/><path d="M468.6 305c-5.3-5.8-15.7-8.3-15.8-8.3 0 0 10.8 1.9 16.3 7.8L468.6 305z" class="b"/><path d="M524.7 343.2c0.1 0 4.9-3.5 5.5-10.1 0.3-3.9-1.8-8.6-8.7-10l0.1-0.7c7.4 1.5 9.6 6.5 9.3 10.7C530.3 340.2 524.7 343.2 524.7 343.2z" class="b"/><path d="M534.3 345.7c0.1 0 9.5-5.3 7.2-14.5l0.7-0.2C544.6 340.8 534.3 345.7 534.3 345.7z" class="b"/><ellipse transform="matrix(0.5373 0.8434 -0.8434 0.5373 537.6995 -264.1769)" cx="509.6" cy="357.9" rx="8.2" ry="14.1" fill="#9E686A"/><path d="M503.8 368.5c-2.9 0-5.2-1-6.3-2.8 -1.2-2-1.1-4.6 0.4-7.4 1.4-2.8 4-5.4 7.2-7.5 3.4-2.2 7.2-3.4 10.4-3.4 2.9 0 5.2 1 6.3 2.8 1.2 1.9 1.1 4.6-0.4 7.4 -1.4 2.8-4 5.4-7.2 7.5C510.8 367.3 507 368.5 503.8 368.5zM515.4 348c-3.1 0-6.7 1.2-10 3.3 -3.1 2-5.6 4.6-7 7.2 -1.4 2.6-1.5 5-0.4 6.7 1 1.6 3.1 2.5 5.8 2.5 3.1 0 6.8-1.2 10-3.3 3.1-2 5.6-4.6 7-7.2 1.4-2.6 1.5-5 0.4-6.7C520.1 348.9 518.1 348 515.4 348z" fill="#7A484C"/><path d="M479.1 367.2c-1.5-4.9-5.9-10.6-5.9-10.6 0 0 5.1 5.3 6.6 10.4L479.1 367.2z" class="b"/><path d="M354.1 211.2c-23.8 9.7-33 45.7-30.9 68.5 2.1 22.8 9.2 58.7 15.3 68 -14 6.1-15 23.6-0.6 25.9 3.2 5.3 14.5 6.8 19.3 3.1 5.1 3.1 22.3 1 19.7-20.4 2-1.3 8.5-0.3 8.5-0.3 -8.3 6-6.1 22.7 8.2 22.8 2.6 4 15 4.6 18.1 1.5 4.8 4 13.7 1.1 16.3-7.3 1.8-6 0.1-13.7-2.5-17.9 7.6-12.6 11.4-39.2 11.4-44.4 5.9-24.6 13.1-61.6-1.4-84.4C421 203.5 379.9 200.6 354.1 211.2z" class="e"/><path d="M428.6 226.5c-2-3.2-8.7-12.3-11.4-14.7 -7.9 1.8-11.8 0.1-20.5 1.5 -5.5 0.7-15.9 6.5-22.1 7.2 -6.9 0.7-6.4-0.3-12-3 -7.1-3.8-8.3-0.4-15.2-2.6 -18.4 9.5-25.9 46.7-24.2 64.9 2.1 22.8 9.2 58.7 15.3 68 -14 6.1-10.7 18.5-2.3 17.9 3.2 5.3 11.7 6.3 16.4 2.6 5.1 3.1 19.7 2.9 17.2-18.5 -12.5-15-17.2-47.3-14.7-64.1 1.6 5.2 7.8 35.8 10.9 39.1 7.3 8.1 25.5 6.7 32.6-1.4 3.5-4 4.8-26.5 4.5-32.9 1 8.9 0.8 55.2-13.1 62 -8.3 4.1-10.5 18.6 1.4 18.6 2.6 4 20.2 5.9 23.4 2.8 12.9 5.2 9.2-18.3 6.6-22.5 7.6-12.6 10.3-37.4 10.4-42.6C437.6 284.1 443.1 249.3 428.6 226.5z" class="a"/><path d="M401.7 279.5c-10.4-6.8-36.7-8.5-47.2-2.1 1.5 14.3 3.2 36.6 9.4 50 6.2 13.4 12.4 24.2 13 29 4.9-1.1 8.1 0 8.1 0 2.4-3.9 9.4-4.9 12.5-15.3C400.7 330.7 406.5 301.8 401.7 279.5z" fill="#D2D2D2"/><path d="M373.5 322c10.4 1.2 20.8-1.5 29.1-7.3 1.2-11.3 1.5-24.1-0.9-35.2 -10.4-6.8-36.7-8.5-47.2-2.1 1 9.5 2.1 22.6 4.5 34.2C362.7 316.6 366.7 321.5 373.5 322z" class="f"/><path d="M404.3 382.6c-4.2 0-9.1-1.1-10.8-3.5 -6.1-0.1-10.8-3.4-12.5-8.8 -1.7-5.2-0.2-10.9 3.7-14.1 -0.9-0.1-2.3-0.2-3.7-0.2 -2 0-3.1 0.3-3.6 0.5 0.8 7.3-0.5 12.9-4 16.8 -3.9 4.4-9.1 4.9-11.1 4.9 -1.9 0-3.7-0.4-5-1.1 -1.7 1.3-4.3 2-7.3 2 -4.4 0-9.9-1.6-12.2-5.2 -5.9-1-9.8-4.7-10.4-9.9 -0.8-6.5 3.6-13.2 10.7-16.5 -5.9-9.6-13-44-15.1-67.8 -2-21.8 6.5-58.8 31.1-68.9 9.3-3.8 20.8-5.9 32.2-5.9 22.7 0 41.2 7.9 49.7 21.2 14 22 8.1 56.8 1.4 84.6 -0.1 5.2-3.8 31.7-11.4 44.4 2.6 4.2 4.3 11.8 2.5 18 -1.9 6.4-7.3 9.3-11.4 9.3l0 0c-1.9 0-3.7-0.6-5.1-1.7C410.4 381.9 407.6 382.6 404.3 382.6zM380.9 355.3c2.3 0 4.6 0.3 4.6 0.3l0.9 0.1 -0.7 0.5c-4 2.9-5.7 8.7-4.1 13.9 1.6 5.1 6.2 8.3 12.1 8.3l0.2 0 0.1 0.2c1.5 2.3 6.4 3.3 10.3 3.3 3.4 0 6.1-0.7 7.2-1.9l0.2-0.2 0.2 0.2c1.3 1.1 3 1.7 4.9 1.7 3.9 0 9-2.7 10.8-8.8 1.8-6 0.1-13.6-2.5-17.6l-0.1-0.2 0.1-0.2c7.6-12.5 11.3-39.1 11.4-44.2l0-0.1c6.6-27.8 12.5-62.4-1.3-84.2 -8.3-13.1-26.7-20.9-49.1-20.9 -11.3 0-22.7 2.1-31.9 5.9 -24.3 9.9-32.7 46.5-30.7 68.2 2.2 24 9.3 58.8 15.3 67.8l0.2 0.3 -0.4 0.2c-8.2 3.6-11.3 10.7-10.7 15.9 0.6 4.9 4.4 8.4 10 9.3l0.2 0 0.1 0.1c1.8 2.9 6.6 5 11.7 5 2.9 0 5.5-0.7 7.1-2l0.2-0.1 0.2 0.1c1.1 0.7 2.9 1.1 4.8 1.1 1.9 0 6.9-0.5 10.6-4.6 3.4-3.8 4.6-9.3 3.8-16.5l0-0.2 0.2-0.1C377.5 355.5 378.9 355.3 380.9 355.3z" class="b"/><path d="M393.3 378.9c-4.9-8.8 0.8-16 0.8-16 0 0.1-4.9 7.3-0.2 15.7L393.3 378.9z" class="b"/><path d="M411.2 381.1l-0.5-0.5c6.3-5.5 3.7-14.2 3.7-14.3C414.5 366.3 417.9 375.3 411.2 381.1z" class="b"/><path d="M357 377c-2.2-1.8-4.4-5.9-4.4-10 0-5.9 3.8-8.5 3.8-8.5 0 0-3.1 2.9-3.1 8.5 0 4 2.1 7.8 4.2 9.5L357 377z" class="b"/><path d="M338.4 374.9c-6.3-9.9 0.1-18.6 0.1-18.6 -0.1 0.1-5.6 8.7 0.5 18.2L338.4 374.9z" class="b"/><path d="M335.6 349.6l-0.4-0.6c8.1-5.3 18.6-1.3 18.6-1.3C353.8 347.7 343.5 344.5 335.6 349.6z" class="b"/><path d="M377.4 358.3l-0.7 0c0.2-3.2-2.3-8.2-5.6-14.5 -3.8-7.5-8.6-16.9-11.6-28.4 -4.5-17.2-5.3-41.6-5.3-41.6 0 0.2 1.5 24.3 5.9 41.5 3 11.5 7.8 20.8 11.6 28.3C375.2 350 377.6 354.8 377.4 358.3z" class="b"/><path d="M382.4 360.1l-0.6-0.4c2.1-3.4 4.5-5.4 6.9-7.3 2.3-1.9 4.5-3.7 6.4-6.8 3.9-6.2 5.3-17.2 7.4-34.6 2.4-19.9-1.3-34.3-1.4-34.5 0 0 4.4 14.5 2.1 34.6 -2.1 17.5-3.6 28.6-7.5 34.9 -2 3.2-4.3 5.1-6.6 7C386.8 354.9 384.5 356.8 382.4 360.1z" class="b"/><path d="M341.8 102.2c0 0-15-19.8-37.1-16.4 -22.1 3.5-24.9 43.8-7.2 53.5 17.8 9.7 36.2-0.7 39-3.5C338.8 128.3 343.4 109.2 341.8 102.2z" class="e"/><path d="M341.8 102.2c0 0-15-19.8-37.1-16.4 -22.1 3.5-16.1 41.5 2.1 50.4 12.9 6.3 27.9-2.4 30.7-5.2C339.6 123.5 343.4 109.2 341.8 102.2z" class="a"/><path d="M313.5 143.8c0 0 0 0 0 0 -5.8 0-11.2-1.4-16.2-4.1 -10.1-5.5-13.2-20.3-11.2-32.2 2.1-12.3 9-20.5 18.4-22 1.7-0.3 3.5-0.4 5.2-0.4 19.2 0 32.1 16.8 32.2 16.9l0.1 0.1c1.6 7-2.9 25.8-5.3 33.9l0 0.1 -0.1 0.1C334.7 138.1 325.2 143.8 313.5 143.8zM309.8 85.8c-1.7 0-3.4 0.1-5.1 0.4 -9.1 1.4-15.8 9.4-17.9 21.4 -2 11.6 1.1 26.1 10.8 31.4 4.9 2.7 10.2 4 15.9 4 11.5 0 20.9-5.6 22.7-7.3 2.3-7.7 6.8-26.5 5.3-33.3C340.6 101.3 328.1 85.8 309.8 85.8z" class="b"/><path d="M333.9 117.9c0 0-8.9-13.8-18-15 -14.1-1.8-19.6 18.2-8.1 25.6C319.4 135.9 333 125.8 333.9 117.9z" class="c"/><path d="M332.6 122.3c0 0-7.3-12.2-16.4-13.4 -14.1-1.8-20.2 12.6-8.4 19.6C317.8 134.5 329 128 332.6 122.3z" class="d"/><path d="M316.5 131.4h0c-3.1 0-6.1-0.9-8.8-2.6 -6.2-3.9-7.3-11.2-5.7-16.6 1.7-5.9 6.5-9.8 12.2-9.8 0.6 0 1.2 0 1.8 0.1 9.2 1.2 17.9 14.6 18.2 15.2l0.1 0.1 0 0.1C333.5 124.1 325.4 131.4 316.5 131.4zM314.1 103.2c-6.5 0-10.2 4.8-11.5 9.3 -1.5 5.2-0.4 12 5.4 15.8 2.6 1.7 5.4 2.5 8.4 2.5 8.6 0 16.3-6.9 17.1-12.7 -0.8-1.3-9.2-13.6-17.7-14.7C315.3 103.2 314.7 103.2 314.1 103.2z" class="b"/><path d="M385.8 73.6c-17.8 0-39.5 9.2-50.7 24.4 -11.2 15.2-10.8 31.5-12.5 38.1 -12.7 9.7-19.4 28.4-13.4 46.4 6 18 27.8 29.3 46.5 33.2 2.5 4 8.8 8.6 16.1 8.7 8.3 0.1 13.6-2.2 18.3-7 10.5-5.5 47.6 1.4 70.6-24 20-22-1.6-53.3-1.6-53.3 -16.1-15.5-13-26.5-18.9-38.5C435.2 91.4 413.9 73.6 385.8 73.6z" fill="#E2E1E0"/><path d="M385.8 73.6c-17.8 0-39.5 9.2-50.7 24.4 -11.2 15.2-10.8 31.5-12.5 38.1 -9.1 7.6-14.6 24.1-8.6 43.3 5.7 18.2 22.3 26.9 36.4 30.4 2.5 4 14.3 10.7 21.6 10.8 8.3 0.1 19.2-5.6 24-10.4 10.5-5.5 36.7 0 57.1-21.5 20.5-21.6 3.2-48 3.2-48 -16.1-15.5-10.2-27.2-16.1-39.1C435.2 91.4 413.9 73.6 385.8 73.6z" class="f"/><path d="M372.4 224.7L372.4 224.7l-0.5 0c-7.1-0.1-13.6-4.4-16.3-8.7 -17.7-3.7-40.4-14.7-46.6-33.4 -5.7-17.1-0.2-36.2 13.4-46.7 0.4-1.5 0.7-3.5 1-5.8 1.2-8.2 2.9-20.5 11.6-32.3 10.4-14.2 31.8-24.6 50.9-24.6 28.9 0 49.9 18.3 54.7 28.1 2 3.9 2.9 7.7 3.9 11.7 2 8 4.2 16.4 14.9 26.7l0 0.1c0.2 0.3 21.5 31.7 1.6 53.7 -16 17.7-38.4 19.7-54.8 21.2 -7.1 0.6-12.7 1.2-15.8 2.8C385.5 222.6 380.1 224.7 372.4 224.7zM385.8 74c-18.9 0-40.1 10.2-50.4 24.3 -8.5 11.7-10.3 23.9-11.4 32 -0.3 2.4-0.6 4.5-1 6l0 0.1 -0.1 0.1c-13.4 10.2-18.9 29.2-13.3 46 6.1 18.4 28.8 29.3 46.3 33l0.1 0 0.1 0.1c2.6 4.2 8.9 8.4 15.8 8.5l0.5 0c7.5 0 12.8-2.1 17.6-6.9l0.1-0.1c3.3-1.7 9-2.2 16.1-2.9 16.2-1.5 38.5-3.5 54.3-21 19.3-21.3-0.9-51.7-1.6-52.8 -10.9-10.5-13-18.9-15.1-27 -1-4-1.9-7.7-3.9-11.6C435.2 92 414.4 74 385.8 74z" class="g"/><path d="M414.1 132.5c2.4 14.3-4 27.2-14.2 28.9 -10.2 1.7-20.5-8.5-22.8-22.8 -2.4-14.3 4-27.2 14.3-28.9C401.5 108 411.7 118.2 414.1 132.5z" class="a"/><ellipse transform="matrix(0.9768 0.214 -0.214 0.9768 36.7616 -70.6759)" cx="344.9" cy="134.5" rx="18.8" ry="26.2" class="a"/><ellipse transform="matrix(0.9938 -0.1111 0.1111 0.9938 -12.5507 44.5281)" cx="393.3" cy="134.9" rx="14.1" ry="20.7" class="h"/><ellipse transform="matrix(0.9817 0.1905 -0.1905 0.9817 32.3683 -63.8295)" cx="348.2" cy="136.5" rx="14.1" ry="20.7" class="h"/><ellipse transform="matrix(0.9865 -0.1638 0.1638 0.9865 -17.1616 66.2177)" cx="392.9" cy="137.1" rx="11.7" ry="18" class="i"/><path d="M404.4 135.2c2.5 14.9-20.9 17.8-23.1 3.8 -1.5-9.8 2.2-18.6 8.6-19.7C396.3 118.3 402.8 125.4 404.4 135.2z" class="j"/><path d="M395.9 155.3c-6.5 1.1-13.2-6.1-14.9-16.1 -1.7-10 2.3-19 8.9-20.1 6.5-1.1 13.2 6.1 14.9 16.1C406.4 145.2 402.4 154.2 395.9 155.3zM390 119.7c-6.2 1-9.9 9.7-8.3 19.3 1.6 9.6 7.9 16.6 14.1 15.6 6.2-1 9.9-9.7 8.3-19.3C402.5 125.7 396.1 118.7 390 119.7z" class="k"/><ellipse transform="matrix(0.9865 -0.1639 0.1639 0.9865 -17.4117 66.6633)" cx="395.4" cy="138.9" rx="6.8" ry="9.2" class="l"/><path d="M397 148.3c-3.9 0.6-7.8-3.1-8.6-8.3 -0.9-5.2 1.6-10 5.5-10.6 3.9-0.6 7.8 3.1 8.6 8.3C403.3 142.9 400.9 147.7 397 148.3zM393.9 130.1c-3.5 0.6-5.7 5-4.9 9.9 0.8 4.8 4.3 8.3 7.8 7.7 3.5-0.6 5.7-5 4.9-9.8C401 133 397.5 129.5 393.9 130.1z" class="m"/><ellipse transform="matrix(0.9865 -0.1635 0.1635 0.9865 -17.4862 66.7277)" cx="396.7" cy="139.6" rx="4" ry="5.2" class="n"/><path d="M399.7 134.7c0.2 1.1-0.5 2.1-1.5 2.3 -1 0.2-2-0.6-2.2-1.7 -0.2-1.1 0.5-2.1 1.5-2.3C398.5 132.9 399.5 133.6 399.7 134.7z" class="j"/><ellipse transform="matrix(0.9859 0.1673 -0.1673 0.9859 28.1555 -56.4717)" cx="349.3" cy="138.9" rx="11.7" ry="18" class="i"/><path d="M360.8 140.8c-2.5 14.9-25.6 10.1-23.1-3.9 1.7-9.8 8.2-16.9 14.5-15.8C358.6 122.2 362.5 131 360.8 140.8z" class="j"/><path d="M346.2 157c-6.5-1.1-10.5-10.1-8.8-20.1 1.7-10 8.4-17.2 14.9-16.1 6.5 1.1 10.5 10.1 8.8 20.1C359.4 150.9 352.7 158.1 346.2 157zM352.2 121.4c-6.2-1-12.5 5.9-14.2 15.5 -1.6 9.6 2.1 18.3 8.2 19.3 6.2 1 12.5-5.9 14.2-15.5C362.1 131.2 358.4 122.5 352.2 121.4z" class="k"/><ellipse transform="matrix(0.9859 0.1672 -0.1672 0.9859 28.1821 -56.9262)" cx="352.1" cy="138.9" rx="6.8" ry="9.2" class="l"/><path d="M350.5 148.3c-3.9-0.7-6.3-5.4-5.5-10.6 0.9-5.2 4.8-8.9 8.7-8.2 3.9 0.7 6.3 5.4 5.5 10.6C358.3 145.3 354.4 149 350.5 148.3zM353.6 130.1c-3.5-0.6-7.1 2.9-7.9 7.7 -0.8 4.8 1.4 9.3 4.9 9.9 3.5 0.6 7.1-2.9 7.9-7.7C359.3 135.1 357.1 130.7 353.6 130.1z" class="m"/><ellipse transform="matrix(0.9859 0.1673 -0.1673 0.9859 28.1071 -57.1559)" cx="353.4" cy="138.3" rx="4" ry="5.2" class="n"/><ellipse transform="matrix(0.986 0.1669 -0.1669 0.986 27.4028 -57.515)" cx="355.9" cy="134.3" rx="1.9" ry="2" class="j"/><path d="M392.6 96.6c0 0 8.9 2.4 12.2 13.8 -3.6-4.9-10.1-9.8-14.8-10.8C389.2 98.1 391.2 96 392.6 96.6z" class="o"/><path d="M351.3 95.5c0 0-8.9 2.4-12.2 13.8 3.6-4.9 10.2-9.8 14.8-10.8C354.7 97.1 352.8 94.9 351.3 95.5z" class="o"/><path d="M376.5 157.1c-8-4.6-16.9-0.9-17-0.9 0 0 3.7-2.1 8.7-2.1C372.8 154 376.5 157.1 376.5 157.1z" class="g"/><path d="M349.6 192.2c4.7 3.5 6.8 13 10.6 18.3 3.8 5.3 15.3 6.9 22.9-0.9 6.1-6.2 8.8-13.8 9.7-19.6C387.8 188.5 355.9 187.4 349.6 192.2z" fill="#821200"/><path d="M369.8 188.8c-8.7 0.2-17.2 1.2-20.2 3.4 4.7 3.5 6.8 13 10.6 18.3 0.3 0.4 0.7 0.8 1.1 1.2C360.8 203.2 363.4 194.1 369.8 188.8z" fill="#A21200"/><path d="M370.6 215.4h0c-4.5 0-8.6-1.8-10.7-4.6 -1.6-2.2-2.8-5.1-4.1-7.9 -1.8-4.1-3.7-8.4-6.5-10.4l-0.4-0.3 0.4-0.3c4.2-3.2 18.7-3.6 24.7-3.6 8.1 0 16.4 0.6 18.9 1.3l0.3 0.1 0 0.3c-0.7 4.4-2.9 12.7-9.8 19.8C380 213.4 375.4 215.4 370.6 215.4zM350.2 192.2c2.7 2.2 4.5 6.4 6.3 10.4 1.2 2.8 2.5 5.6 4 7.8 1.9 2.7 5.8 4.3 10.1 4.3h0c4.6 0 9-1.9 12.3-5.3 6.6-6.8 8.8-14.8 9.5-19.1 -2.5-0.6-9.8-1.2-18.4-1.2C362 189 353.4 190.2 350.2 192.2z" class="p"/><path d="M383.2 209.6c3.5-3.6 5.9-7.6 7.4-11.5 -4.1-0.7-11.3-1.3-17.1 1.7 -6.3-2-12.4 1.4-15.1 7.6 0.6 1.1 1.2 2.2 1.8 3.1C364 215.8 375.5 217.5 383.2 209.6z" fill="#E8362D"/><path d="M375.2 211.8c6.3-1.9 10.8-7.7 13.2-13.9 -4.2-0.5-10-0.5-14.9 2.1 -5.6-1.8-11.2 0.8-14.2 5.8C362.4 211.6 368.8 214.4 375.2 211.8z" fill="#FF5545"/><path d="M370.6 215.4h0c-4.5 0-8.6-1.8-10.7-4.6 -0.6-0.8-1.2-1.9-1.9-3.1l-0.1-0.1 0.1-0.1c2.2-5.1 6.7-8.3 11.8-8.3 1.2 0 2.4 0.2 3.6 0.5 3-1.5 6.6-2.3 10.8-2.3 2.1 0 4.3 0.2 6.4 0.6l0.4 0.1 -0.2 0.4c-1.8 4.4-4.3 8.3-7.5 11.6C380 213.4 375.4 215.4 370.6 215.4zM358.8 207.5c0.6 1.2 1.2 2.1 1.7 2.9 1.9 2.7 5.8 4.3 10.1 4.3h0c4.6 0 9-1.9 12.3-5.3 3-3.1 5.5-6.8 7.2-11 -2-0.3-4-0.5-5.9-0.5 -4.1 0-7.7 0.8-10.6 2.3l-0.1 0.1 -0.1 0c-1.2-0.4-2.3-0.5-3.5-0.5C365.1 199.7 360.9 202.7 358.8 207.5z" class="p"/><path d="M369.4 205.7c0 0 1.1-4.4 5.5-6.8l0.3 0.6C371 201.8 369.4 205.6 369.4 205.7z" class="p"/><path d="M356.1 216.8c-2.5-3.9-7.5-8.3-7.5-8.4 0 0 5.5 4 8.1 8L356.1 216.8z" class="g"/><path d="M390.5 217.4c2.5-3.9 7.5-8.3 7.5-8.4 0 0-5.5 4-8.1 8L390.5 217.4z" class="g"/><path d="M331.5 179.5c0 0 2.5 12.4 16.7 15.1 12.2 2.3 18-4.6 18-4.6 3.7 3.8 13.4 6.5 22.9 5.1 8.1-1.1 16.1-5.2 20.3-13.8L331.5 179.5z" fill="#D1D1D1"/><path d="M331.5 178.5c0 0 4.7 11.7 18.1 12.2 9.6 0.4 15.6-6.7 15.6-6.7 3.7 3.8 14.1 8.7 23.6 7.4 8.1-1.1 16.3-4.4 20.6-10L331.5 178.5z" class="f"/><path d="M384 195.8c-7.8 0-14.7-2.4-17.8-5.3 -1.3 1.3-7.2 6.5-18.1 4.5 -14.3-2.7-17-15.3-17-15.4l0.7-0.1c0 0.1 2.6 12.2 16.4 14.8 11.9 2.2 17.6-4.4 17.7-4.5l0.2-0.3 0.3 0.3c3.4 3.6 12.8 6.4 22.6 5 9.3-1.3 16.4-6.1 20.1-13.6l0.6 0.3c-3.8 7.7-11.1 12.6-20.6 14C387.4 195.7 385.7 195.8 384 195.8z" class="g"/><path d="M329 184.8c0 0 0-3 2.6-5.8 2.1-2.3 4.6-1.6 4.6-1.6C336 177.4 331.2 177.8 329 184.8z" class="g"/><path d="M411.3 184.8c-1.2-4.1-5-4.4-5-4.4 0 0 1.8-0.7 3.3 0.6C411.3 182.5 411.3 184.8 411.3 184.8z" class="g"/><path d="M365.9 190.2c-2-3.1-1.5-11.9-1.4-12.3l0.7 0c0 0.1-0.5 9 1.3 11.9L365.9 190.2z" class="g"/><ellipse cx="365.5" cy="171.7" rx="17.7" ry="10.1" fill="#3B0101"/><path d="M383.2 171.7c0 5.6-35.4 5.6-35.4 0s7.9-10.1 17.7-10.1S383.2 166.2 383.2 171.7z" fill="#590000"/><path d="M365.5 182.2c-10 0-18-4.7-18-10.4 0-5.8 8.1-10.4 18.1-10.4 10 0 18 4.7 18 10.4C383.5 177.5 375.4 182.2 365.5 182.2zM365.5 162c-9.6 0-17.4 4.4-17.4 9.7s7.8 9.7 17.4 9.7 17.4-4.4 17.4-9.7S375 162 365.5 162z" fill="#1D0101"/><ellipse cx="365.3" cy="164.1" rx="9.3" ry="0.9" fill="#964747"/><ellipse transform="matrix(0.9786 -0.2058 0.2058 0.9786 -35.161 81.6697)" cx="375" cy="209.8" rx="2.7" ry="1" class="q"/><ellipse transform="matrix(0.9785 -0.2065 0.2065 0.9785 -35.4013 81.1527)" cx="371.1" cy="210.2" rx="0.9" ry="0.6" class="q"/></svg>