<svg version="1.1" xmlns="http://www.w3.org/2000/svg" xmlns:xlink="http://www.w3.org/1999/xlink" viewBox="0 0 768 430" style="enable-background:new 0 0 768 430;" xml:space="preserve"><g id="paper"> <g id="paper_1_">  <g id="layer1_15_"> <g id="g2269" transform="matrix(.78306 0 0 .78306 -90.507 -132.91)">  <g id="g2217" transform="translate(152 18)">   <path id="path2219_2_" style="fill:none;stroke:#DDE4D0;stroke-width:5.5829;stroke-miterlimit:10;" d="M218.662,283.05  h136.806l-3.176,51.386l48.778-0.118v194.141H218.658L218.662,283.05L218.662,283.05z"/>   <path id="path2221_2_" style="fill:none;stroke:#DDE4D0;stroke-width:5.5829;stroke-miterlimit:10;" d="M354.93,284.142  l45.233,48.191"/>  </g>  <path id="path2223_2_" style="fill:none;stroke:#DDE4D0;stroke-width:5.5829;stroke-miterlimit:10;" d="M394.628,334.669   h107.578"/>  <path id="path2225_2_" style="fill:none;stroke:#DDE4D0;stroke-width:5.5829;stroke-miterlimit:10;" d="M395.049,368.287H525.32   "/>  <path id="path2227_2_" style="fill:none;stroke:#DDE4D0;stroke-width:5.5829;stroke-miterlimit:10;" d="M395.049,401.904H525.32   "/>  <path id="path2229_2_" style="fill:none;stroke:#DDE4D0;stroke-width:5.5829;stroke-miterlimit:10;" d="M395.049,435.521H525.32   "/>  <path id="path2231_2_" style="fill:none;stroke:#DDE4D0;stroke-width:5.5829;stroke-miterlimit:10;" d="M395.049,469.14H525.32"   />  <path id="path2233_2_" style="fill:none;stroke:#DDE4D0;stroke-width:5.5829;stroke-miterlimit:10;" d="M395.049,502.758H525.32   "/> </g>  </g>  <g id="layer1_16_" transform="translate(-69.23 -475.12)"> <path id="path2816_2_" style="fill:none;stroke:#DDE4D0;stroke-width:2.3927;stroke-miterlimit:10;" d="M710.224,604.413  c0.178,0.238-3.611,3.431-10.723,9.057c-7.107,5.624-17.537,13.68-30.617,23.643c-13.078,9.962-28.811,21.831-46.49,35.083  c-17.682,13.253-37.314,27.89-58.178,43.388l0,0c-7.803-7.969-15.797-16.152-23.934-24.48c-4.609-4.721-9.174-9.395-13.68-14.01  l0,0c25.6-10.479,49.855-20.379,71.842-29.283c21.988-8.905,41.703-16.816,58.229-23.353  c16.523-6.536,29.854-11.699,39.082-15.148C704.982,605.862,710.107,604.128,710.224,604.413  c0.111,0.287-4.791,2.564-13.795,6.41c-9.008,3.845-22.115,9.257-38.41,15.85c-16.301,6.592-35.789,14.364-57.57,22.965  c-21.777,8.601-45.846,18.031-71.309,27.977l0,0c4.236,4.131,8.525,8.307,12.854,12.525c7.641,7.445,15.141,14.765,22.471,21.921  l0,0c20.424-15.463,39.668-29.985,57.08-43.052c17.414-13.067,32.992-24.682,46.061-34.33  c13.07-9.649,23.629-17.334,30.969-22.547c7.344-5.213,11.469-7.956,11.645-7.719H710.224z"/> <path id="path2820_2_" style="fill:none;stroke:#DDE4D0;stroke-width:2.3927;stroke-miterlimit:10;" d="M709.548,604.413  c0.074,0.292-5.189,1.961-14.877,4.743c-9.689,2.782-23.805,6.675-41.41,11.418c-17.607,4.744-38.705,10.341-62.34,16.539  c-23.631,6.197-49.799,12.994-77.521,20.147l0,0c-5.881-7.955-11.877-16.079-17.955-24.318c-2.152-2.922-4.299-5.824-6.43-8.713  c60.537-5.758,115.123-10.874,154.809-14.443c39.689-3.569,64.48-5.593,65.725-5.395c0.002,0.024,0.002,0.024,0.002,0.024  s0,0,0.004,0.024c-1.189,0.423-25.873,2.966-65.189,6.689c-39.316,3.724-93.266,8.627-153.268,13.998  c2.062,2.484,4.133,4.981,6.217,7.492c5.877,7.083,11.664,14.062,17.348,20.932l0,0c27.361-7.213,53.178-13.972,76.529-20.029  c23.355-6.058,44.252-11.412,61.752-15.823c17.502-4.413,31.611-7.881,41.369-10.171c9.756-2.29,15.162-3.402,15.238-3.111  L709.548,604.413z"/> <path id="path2852_2_" style="fill:none;stroke:#DDE4D0;stroke-width:2.3927;stroke-miterlimit:10;" d="M515.044,654.39  c0.314,0.084,0.279,1.407-0.1,3.699c-0.381,2.295-1.104,5.559-2.129,9.547c-1.027,3.986-2.355,8.696-3.906,13.905  s-3.322,10.915-5.203,16.911c-0.758,2.418-1.506,4.791-2.23,7.107l0,0c3.449-4.119,6.705-7.975,9.695-11.408  c2.988-3.435,5.711-6.451,8.053-8.913c2.344-2.462,4.307-4.368,5.746-5.606c1.438-1.238,2.354-1.804,2.568-1.604  c0.215,0.199-0.297,1.148-1.463,2.685c-1.164,1.535-2.984,3.654-5.359,6.214c-2.375,2.559-5.307,5.556-8.656,8.867  c-3.348,3.309-7.117,6.932-11.137,10.758l0,0c0.541-2.406,1.094-4.883,1.662-7.406c1.4-6.26,2.76-12.234,4.055-17.651  c1.295-5.416,2.533-10.276,3.66-14.325c1.127-4.051,2.146-7.292,2.973-9.496C514.099,655.472,514.73,654.306,515.044,654.39  L515.044,654.39z"/> <path id="path2864_2_" style="fill:none;stroke:#DDE4D0;stroke-width:2.3927;stroke-miterlimit:10;" d="M501.125,706.276  c-0.283-0.443,8.443-4.535,19.478-9.139c11.035-4.602,20.221-7.979,20.504-7.537c0.283,0.441-8.443,4.535-19.479,9.136  C510.593,703.339,501.408,706.716,501.125,706.276z"/>  </g> </g> <g id="Layer_1_6_"> </g></g><g id="Layer_1"></g></svg>