<svg xmlns="http://www.w3.org/2000/svg" viewBox="0 0 768 430"><style>.a{flood-color:white;flood-opacity:1;}.b{stop-color:#FFF;}.c{stop-color:#FCFCFC;}.d{stop-color:#F2F2F2;}.e{stop-color:#E1E1E1;}.f{stop-color:#C9C9C9;}.g{stop-color:#AAA;}.h{stop-color:#858585;}.i{stop-color:#585858;}.j{stop-color:#252525;}.k{stop-color:#000;}</style><polygon points="202 185.6 334 194 309.8 261.2 171.2 258.6 " fill="#4D82D6"/><polygon points="355.8 290.1 583 290.1 610.8 363.1 336 363.1 " fill="#C64228"/><polygon points="269.9 236 440 238.6 451 324.7 226.3 324.7 " fill="#F9C32B"/><path d="M497.9 60c0 0-11-19-34.7-12.6 -23.7 6.4-29.4 23.6-31.1 38.3 -1.7 14.7-35.9 195.1-40.8 228.8 -0.2 0.9-0.2 1.9-0.3 2.9 4.3-7.3 13.7-15.1 33.1-20 32.2-8.1 40.1 7.6 40.1 7.6l31.7-234.2" fill="#EB639B"/><path d="M496 70.9l-31.7 234.2c0 0-7.8-15.8-40.1-7.6 -1.1 0.3-2.1 0.5-3.1 0.8l-7.8 29.5c0 0 10-15.5 37.5-13.5 18.6 1.4 26.5 9.9 27.2 19.4 6.2-12.8 8.4-28.9 11-45.8" fill="#C94788"/><path d="M432.3 343.3l6.4-28.7c-15.7 2-23.1 10.1-25 12.5C410.4 341.7 432.3 343.3 432.3 343.3z" fill="#9B296D"/><path d="M450.7 314.3c-4.5-0.3-8.5-0.2-12 0.3l-6.4 28.7c0 0-21.9-1.6-18.6-16.2 -0.3 0.4-0.5 0.7-0.5 0.7l7.8-29.5c-17.3 4.9-25.9 12.3-30 19.1 -1.5 20.6 14.1 45.5 49 42.6 20.4-3.2 31.3-12.9 37.8-26.3C477.2 324.2 469.3 315.7 450.7 314.3z" fill="#B2387B"/><defs><filter filterUnits="userSpaceOnUse" x="396.3" y="49.9" width="94.3" height="255.2"><feFlood result="back" class="a"/><feBlend in="SourceGraphic" in2="back" mode="normal"/></filter></defs><mask maskUnits="userSpaceOnUse" x="396.3" y="49.9" width="94.3" height="255.2"><g filter="url(#Adobe_OpacityMaskFilter)"><defs><filter filterUnits="userSpaceOnUse" x="396.3" y="49.9" width="94.3" height="255.2"><feFlood result="back" class="a"/><feBlend in="SourceGraphic" in2="back" mode="normal"/></filter></defs><mask maskUnits="userSpaceOnUse" x="396.3" y="49.9" width="94.3" height="255.2"/><radialGradient cx="202.2" cy="213.2" r="267.7" gradientTransform="matrix(0.9998 0.0207 -0.0207 0.9998 18.5789 -68.5951)" gradientUnits="userSpaceOnUse"><stop offset="0.0022" class="b"/><stop offset="0.1645" class="c"/><stop offset="0.2947" class="d"/><stop offset="0.4138" class="e"/><stop offset="0.5262" class="f"/><stop offset="0.6341" class="g"/><stop offset="0.7384" class="h"/><stop offset="0.8401" class="i"/><stop offset="0.937" class="j"/><stop offset="1" class="k"/></radialGradient><path mask="url(#SVGID_1_)" d="M438 72.2l-41.6 233c0 0 25.6-20.8 60.3-11 22.6-155.2 34-237 34-237S465.2 33.4 438 72.2z" fill="url(#SVGID_2_)"/></g></mask><path d="M490.6 57.1c0 0-25.3-23.8-52.6 15.1l-41.6 233c0 0 25.6-20.8 60.3-11C479.2 138.9 490.6 57.1 490.6 57.1" fill="#DB77AD"/><path d="M287.3 345.6c17.5-19.4 29.5-12.5 29.5-12.5l-81.5-166.6 -3.5-7.9c0 0-15.4-7.6-28.1 6.9 -12.7 14.5-8.8 28.2-3.5 38.5 5.3 10.4 61.8 142.9 73.3 167 0.3 0.7 0.7 1.3 1.1 2C274.2 366.4 276.9 357.2 287.3 345.6z" fill="#00B5ED"/><path d="M245.4 167c0 0-10.2-0.5-10.1-0.5l81.5 166.6c0 0-12-6.8-29.5 12.5 -0.6 0.6-1.1 1.3-1.6 1.9l7.8 22.7c0 0-0.2-14.5 18.6-25.1 12.7-7.2 21.6-5.1 26.2 0.8 -1.5-11.1-7.1-22.5-12.8-34.6C313.9 286.2 245.4 167 245.4 167z" fill="#00A7E5"/><path d="M312.7 371.9L304.3 350.4c-9.3 8.1-10.7 16.7-10.8 19.1C297.8 380.4 312.7 371.9 312.7 371.9z" fill="#136C8F"/><path d="M312.1 345c-3.1 1.7-5.6 3.6-7.7 5.4l8.4 21.5c0 0-14.9 8.5-19.2-2.4 0 0.4 0 0.6 0 0.6l-7.8-22.7c-9.1 10.7-11.5 19.3-11.2 25.6 8 14.1 29.1 23.5 50.6 6.4 11.9-11 14.8-22.1 13.2-33.7C333.6 339.9 324.8 337.8 312.1 345z" fill="#198BBA"/><defs><filter filterUnits="userSpaceOnUse" x="198.1" y="159.8" width="109" height="203"><feFlood result="back" class="a"/><feBlend in="SourceGraphic" in2="back" mode="normal"/></filter></defs><mask maskUnits="userSpaceOnUse" x="198.1" y="159.8" width="109" height="203"><g filter="url(#Adobe_OpacityMaskFilter_2_)"><defs><filter filterUnits="userSpaceOnUse" x="198.1" y="159.8" width="109" height="203"><feFlood result="back" class="a"/><feBlend in="SourceGraphic" in2="back" mode="normal"/></filter></defs><mask maskUnits="userSpaceOnUse" x="198.1" y="159.8" width="109" height="203"/><radialGradient cx="777.8" cy="-817.7" r="210.1" gradientTransform="matrix(0.8422 -0.5392 0.5392 0.8422 -127.1922 1447.454)" gradientUnits="userSpaceOnUse"><stop offset="0.0022" class="b"/><stop offset="0.1645" class="c"/><stop offset="0.2947" class="d"/><stop offset="0.4138" class="e"/><stop offset="0.5262" class="f"/><stop offset="0.6341" class="g"/><stop offset="0.7384" class="h"/><stop offset="0.8401" class="i"/><stop offset="0.937" class="j"/><stop offset="1" class="k"/></radialGradient><path mask="url(#SVGID_3_)" d="M198.1 192.7l74.6 170c0 0 7.6-24.7 34.5-33.5 -53-111-81.3-169.3-81.3-169.3S198.9 155.5 198.1 192.7z" fill="url(#SVGID_4_)"/></g></mask><path d="M198.1 192.7l74.6 170c0 0 7.6-24.7 34.5-33.5 -53-111-81.3-169.3-81.3-169.3S198.9 155.5 198.1 192.7z" fill="#56C5E8"/></svg>