<svg version="1.1" id="Layer_1" xmlns="http://www.w3.org/2000/svg" xmlns:xlink="http://www.w3.org/1999/xlink" viewBox="0 0 768 430" enable-background="new 0 0 768 430" xml:space="preserve">
<g>
	<g>
		<rect x="381.144" y="207.712" fill="#84654C" width="10.127" height="121.992"/>
		<path fill="#EFDF50" d="M378.611,358.412c0,9.621-5.197,13.933-10.344,13.933c-5.149,0-10.347-4.312-10.347-13.933
			c0-4.203-3.398-7.595-7.593-7.595c-4.196,0-7.596,3.392-7.596,7.595c0,19.115,12.847,29.122,25.536,29.122
			c12.688,0,25.533-10.007,25.533-29.122v-43.057h-15.189V358.412z"/>
	</g>
	<g>
		<path fill="#EFDF50" d="M340.558,236.412c22.748-18.193,68.244-18.193,90.994,0c4.549-50.041-9.102-100.088-45.498-145.583
			C349.657,136.324,336.008,186.371,340.558,236.412z"/>
		<path fill="#B59FD3" d="M386.054,90.83c-90.993,0-136.489,72.792-136.489,145.583c27.298-18.193,63.697-18.193,90.993,0
			C340.558,145.426,386.054,90.83,386.054,90.83z"/>
		<path fill="#B59FD3" d="M386.054,90.83c90.991,0,136.487,72.792,136.487,145.583c-27.289-18.193-63.689-18.193-90.989,0
			C431.552,145.426,386.054,90.83,386.054,90.83z"/>
	</g>
	<g>
		<path fill="#84654C" d="M253.413,237.153c0,1.987-1.606,3.59-3.59,3.59c-1.98,0-3.587-1.603-3.587-3.59
			c0-1.978,1.607-3.589,3.587-3.589C251.807,233.564,253.413,235.176,253.413,237.153z"/>
		<path fill="#84654C" d="M343.917,237.153c0,1.987-1.608,3.59-3.589,3.59c-1.98,0-3.588-1.603-3.588-3.59
			c0-1.978,1.608-3.589,3.588-3.589C342.309,233.564,343.917,235.176,343.917,237.153z"/>
		<path fill="#84654C" d="M518.693,237.153c0,1.987,1.611,3.59,3.59,3.59c1.988,0,3.589-1.603,3.589-3.59
			c0-1.978-1.601-3.589-3.589-3.589C520.305,233.564,518.693,235.176,518.693,237.153z"/>
		<path fill="#84654C" d="M428.194,237.153c0,1.987,1.607,3.59,3.591,3.59c1.977,0,3.59-1.603,3.59-3.59
			c0-1.978-1.613-3.589-3.59-3.589C429.802,233.564,428.194,235.176,428.194,237.153z"/>
	</g>
	<polygon fill="#84654C" points="384.694,49.835 387.087,49.835 389.479,92.892 382.306,92.892 	"/>
</g>
</svg>
