<svg xmlns="http://www.w3.org/2000/svg" viewBox="0 0 768 430"><style>.a{fill:none;}.b{fill:#073D72;}.c{fill:#012C3D;}.d{fill:#739E0B;}.e{fill:#231F20;}.f{fill:#424F02;}.g{fill:#F9AA0B;}.h{fill:#B76002;}.i{fill:#EE7218;}.j{fill:#D15418;}.k{fill:#BFBEBE;}.l{fill:#7F7E7E;}.m{fill:#C80000;}.n{fill:#640000;}.o{fill:#5E0009;}.p{fill:#FFF;}.q{fill:#D39B63;}.r{fill:#070707;}.s{fill:#F24646;}</style><path d="M401.5 354.3c2.3 0.2 4.7 0.4 6.1 1.7 2.4 0.2 4.8 1 6.4 1.8 -0.1-0.9-0.6-2.7-1.8-5.4 -0.5-1.2-1-2.3-1.6-3.3 -1.1-0.7-2.2-1.6-2.8-2.6 -1.4 3.2-3 5-5.1 5.8l-1.2 0.4 0.8-1.1c0.5-0.6 0.3-4.5-2.9-7.1 -3-2.1-5.8-4.6-8.2-7.3 1 4.5 2.6 11.3 3.3 13.6C395.3 353.7 398.3 354 401.5 354.3z" class="a"/><path d="M368.5 331.4c-0.2 0-0.5 0.1-0.8 0.1 -1.9 0-4.6-1-8.1-3.2 5.7 7.6 11.5 14.4 13.2 14.6 0.9 0.1 1.6-0.4 2.3-1.4 0.1-0.2 0.3-0.4 0.4-0.7 -1.3-3.9-3.3-7.5-5.3-10.4C369.8 330.9 369.2 331.3 368.5 331.4z" class="b"/><path d="M375.7 341.3c-0.1-0.2-0.1-0.4-0.2-0.6 -0.1 0.2-0.2 0.5-0.4 0.7 -0.7 1-1.5 1.5-2.3 1.4 -1.7-0.2-7.5-6.9-13.2-14.6 -0.1-0.1-0.2-0.1-0.3-0.2l-1.5-0.9c5.1 6.9 12.4 16.2 14.9 16.4 0.3 0 0.5 0 0.8 0 0.9-0.2 1.6-0.7 2.3-1.7 0.1-0.1 0.1-0.2 0.2-0.3l-0.1 0L375.7 341.3z" class="c"/><path d="M354.2 314.4c-6.3-6.1-16.2-15.6-26.2-27.2 -0.3 1.7-0.8 3.3-1.5 4.8 -1.3 2.6-3.2 4.3-5.6 5.3 -0.1 0.1-0.3 0.1-0.4 0.2 -0.2 0.1-0.4 0.1-0.6 0.2 -0.2 0.1-0.4 0.1-0.7 0.2 6.6 6.2 15.1 12.9 26.1 20.4 3.6 2.4 7.4 4.9 11.6 7.5l2.9 1.8c4.5 2.8 7.7 3.8 9.3 2.9 0.3-0.2 0.5-0.4 0.7-0.7 -1.2-1.6-2.3-3-3.2-4 -2.8-2.1-5.6-4.6-8.6-7.6C357 317.1 355.7 315.8 354.2 314.4z" class="d"/><path d="M282.4 234.9c0 0 0 0 0 0 0 0 0 0 0 0.1 0 0 0 0 0 0C282.4 234.9 282.4 234.9 282.4 234.9z" class="e"/><path d="M282.2 232.5c0 0 0 0 0 0 0 0 0 0.1 0 0.1 0 0 0 0 0 0C282.2 232.5 282.2 232.5 282.2 232.5z" class="e"/><path d="M282.7 237.2c0 0 0 0 0 0 0 0.1 0 0.2 0.1 0.3 0 0 0 0 0 0C282.8 237.4 282.8 237.3 282.7 237.2z" class="e"/><path d="M282.6 220.5c0 0 0 0 0 0l0 0C282.6 220.5 282.6 220.5 282.6 220.5z" class="e"/><path d="M283.8 215.3c0 0 0 0 0 0 -0.1 0.4-0.2 0.8-0.3 1.2 0 0 0 0 0 0C283.6 216.1 283.7 215.7 283.8 215.3z" class="e"/><path d="M290.4 202.2c0 0 0 0 0 0 -2.9 3.9-5 8.1-6.4 12.5 0 0 0 0 0 0C285.4 210.3 287.5 206.1 290.4 202.2z" class="e"/><path d="M283.2 217.6c0 0 0 0 0 0 -0.1 0.3-0.1 0.6-0.2 0.8l0 0C283 218.2 283.1 217.9 283.2 217.6z" class="e"/><path d="M282.6 220.4c0 0 0 0.1 0 0.1C282.6 220.5 282.6 220.5 282.6 220.4L282.6 220.4z" class="e"/><path d="M284.2 244c0 0 0 0 0 0 0 0.2 0.1 0.3 0.1 0.5 0 0 0 0 0 0C284.3 244.4 284.3 244.2 284.2 244z" class="e"/><path d="M283.7 241.9c0 0 0 0 0 0 0 0.2 0.1 0.4 0.1 0.6 0 0 0 0 0 0C283.8 242.2 283.7 242 283.7 241.9z" class="e"/><path d="M285 246.6c0 0 0 0 0 0 0 0.1 0.1 0.2 0.1 0.3 0 0 0 0 0 0C285 246.7 285 246.7 285 246.6z" class="e"/><path d="M283.1 239.4c0 0 0 0 0 0 0 0.2 0.1 0.4 0.1 0.5 0 0 0 0 0 0C283.2 239.7 283.2 239.5 283.1 239.4z" class="e"/><path d="M368.5 331.4c0.8-0.1 1.3-0.5 1.8-1.1l0 0C369.8 330.9 369.2 331.3 368.5 331.4z" class="e"/><path d="M368.5 331.4c-0.2 0-0.5 0.1-0.8 0.1C367.9 331.5 368.2 331.5 368.5 331.4z" class="e"/><path d="M359.8 327.5c4.5 2.8 7.7 3.8 9.3 2.9C367.4 331.3 364.3 330.3 359.8 327.5z" class="e"/><path d="M359.3 328.2c0.1 0.1 0.2 0.1 0.3 0.2 3.5 2.2 6.2 3.2 8.1 3.2 0.3 0 0.5 0 0.8-0.1 0.8-0.1 1.3-0.5 1.8-1.1 -0.2-0.2-0.3-0.5-0.5-0.7 -0.2 0.3-0.4 0.6-0.7 0.7 -1.6 0.9-4.7-0.1-9.3-2.9l-2.9-1.8c-4.2-2.6-8-5.1-11.6-7.5 -11.1-7.5-19.5-14.2-26.1-20.4 -0.2 0-0.3 0.1-0.5 0.1 0 0 0 0 0 0l-0.1 0 -0.1-0.1c-0.7-0.4-1.3-0.9-2.1-1.5 12.9 13.1 26.7 21.6 40.1 30l1.4 0.8L359.3 328.2z" class="f"/><path d="M282.4 234.9c0 0 0 0 0 0C282.4 234.9 282.4 234.9 282.4 234.9z" class="f"/><path d="M283.7 241.9c0 0.2 0.1 0.4 0.1 0.6C283.8 242.2 283.7 242 283.7 241.9z" class="f"/><path d="M283.8 215.3c-0.1 0.4-0.2 0.8-0.3 1.2C283.6 216.1 283.7 215.7 283.8 215.3z" class="f"/><path d="M283.2 217.6c-0.1 0.3-0.1 0.6-0.2 0.8C283 218.2 283.1 217.9 283.2 217.6z" class="f"/><path d="M289.3 203.8c0 0 0.4-0.6 1-1.6 -2.9 3.9-5 8.1-6.4 12.5C285.1 211 286.9 207.4 289.3 203.8z" class="f"/><path d="M282.6 220.4c0 0 0 0.1 0 0.1 0 0 0 0 0 0C282.6 220.5 282.6 220.5 282.6 220.4z" class="f"/><path d="M283.1 239.4c0 0.2 0.1 0.3 0.1 0.5C283.2 239.7 283.2 239.5 283.1 239.4z" class="f"/><path d="M282.2 232.5c0 0 0 0 0 0.1C282.2 232.5 282.2 232.5 282.2 232.5z" class="f"/><path d="M284.2 244c0 0.2 0.1 0.3 0.1 0.5C284.3 244.4 284.3 244.2 284.2 244z" class="f"/><path d="M282.7 237.2c0 0.1 0 0.2 0 0.3C282.8 237.4 282.8 237.3 282.7 237.2z" class="f"/><path d="M294.9 268.4c0 0 0.1 0.1 0.1 0.1C295 268.5 294.9 268.5 294.9 268.4z" class="f"/><path d="M285 246.6c0 0.1 0.1 0.2 0.1 0.3C285 246.7 285 246.7 285 246.6z" class="f"/><path d="M295.8 197c-3.8 3.8-5.8 7.1-5.8 7.2 -13.4 19.6-4.7 41.9-1.4 50.3 4.1 10.5 20.5 36.7 30 42.6 3.1-0.7 5.5-2.5 7-5.5 0.8-1.6 1.3-3.3 1.6-5.2C305.2 260.9 282.6 225.8 295.8 197z" class="g"/><path d="M320.4 297.5c0.1-0.1 0.3-0.1 0.4-0.2C320.6 297.3 320.5 297.4 320.4 297.5z" class="g"/><path d="M318.7 297.9l0 0c0 0 0 0 0 0 0.2 0 0.3-0.1 0.5-0.1 0.2-0.1 0.4-0.1 0.7-0.2C319.4 297.8 319.1 297.9 318.7 297.9z" class="g"/><path d="M318.5 298l0.1 0 0 0c0.4-0.1 0.8-0.2 1.1-0.3 0.2-0.1 0.4-0.1 0.6-0.2 0.1-0.1 0.3-0.1 0.4-0.2 2.4-1 4.3-2.8 5.6-5.3 0.7-1.4 1.2-3.1 1.5-4.8 -0.2-0.3-0.4-0.5-0.7-0.8 -0.3 1.8-0.8 3.6-1.6 5.2 -1.5 3-3.9 4.9-7 5.5 -9.5-6-25.9-32.2-30-42.6 -3.3-8.4-12.1-30.8 1.4-50.3 0-0.1 2-3.4 5.8-7.2 0.3-0.7 0.6-1.3 1-2 -3.1 2.8-5.3 5.6-6.4 7.2 0 0 0 0 0 0 -0.7 0.9-1 1.5-1 1.6 -2.5 3.6-4.2 7.3-5.4 11 0 0 0 0 0 0 -0.1 0.2-0.1 0.4-0.2 0.5 0 0 0 0 0 0 -0.1 0.4-0.2 0.8-0.3 1.2 0 0 0 0 0 0 -0.1 0.4-0.2 0.8-0.3 1.2 0 0 0 0 0 0 -0.1 0.3-0.1 0.6-0.2 0.8l0 0c-0.1 0.7-0.3 1.3-0.4 2l0 0c0 0 0 0.1 0 0.1l0 0c-0.7 4.1-0.7 8.1-0.4 11.9 0 0 0 0 0 0 0 0 0 0 0 0.1 0 0 0 0 0 0 0.1 0.8 0.1 1.5 0.2 2.3 0 0 0 0 0 0 0 0 0 0 0 0 0 0 0 0 0 0 0.1 0.8 0.2 1.5 0.3 2.3 0 0 0 0 0 0 0 0.1 0 0.2 0 0.3 0 0 0 0 0 0 0.1 0.6 0.2 1.2 0.3 1.8 0 0 0 0 0 0 0 0.2 0.1 0.3 0.1 0.5 0 0 0 0 0 0 0.1 0.7 0.3 1.3 0.4 2 0 0 0 0 0 0 0 0.2 0.1 0.4 0.1 0.6 0 0 0 0 0 0 0.1 0.5 0.3 1.1 0.4 1.6 0 0 0 0 0 0 0 0.2 0.1 0.3 0.1 0.5 0 0 0 0 0 0 0.2 0.7 0.4 1.4 0.6 2 0 0 0 0 0 0 0 0.1 0.1 0.2 0.1 0.3 0 0 0 0 0 0 1 3.3 2.1 6 2.9 7.9 1.3 3.4 3.9 8.3 7 13.6 0 0 0.1 0.1 0.1 0.1 6.2 10.5 14.8 22.6 21.3 27.9 0.7 0.6 1.4 1.1 2.1 1.5L318.5 298z" class="h"/><path d="M381.4 351.9c0.4 1.2 0.2 2.5-0.5 3.5 -0.6 0.8-1.5 1.3-2.4 1.3 -0.7 0-4-0.5-9-1.2 -10.4-1.4-26.2-3.6-33.2-3.8 -0.2 0-0.3 0-0.5 0 -6.9 0-10 3.7-11.4 7.3 0.3-0.2 0.7-0.4 1-0.5l0.1 0h0.1c2 0 3.7 0.7 4.9 2.1 1.9 2.2 2.3 5.5 2.3 7.7 0.6-2 5-13.1 23.7-9.8 7.6 1.6 19.7 0.8 20.5 0.1 0 0-0.8 1.3-7.8 1.6 -4.3 0.1-9.3-0.2-12.9-0.9 -15.9-2.8-21 5.1-22.4 8.2 0.9-0.6 1.8-1.2 2.7-1.7 1.6-0.9 3.4-0.4 4.9 1.3 1.9 2.1 3.2 5.8 2.9 8.2 -0.2 1.8-1.1 3-2.7 3.7 0.7 0.1 1.4 0.1 2.2 0.1h0c13.5 0 37.8-10.6 41.8-12.6 2-1 4.5-2.1 6.7-2.1 1 0 1.9 0.2 2.7 0.7 1.6 1 3.1 1.7 4.5 2.1 -0.2-1-0.3-2.1-0.2-3.5 0.5-6.2 4.3-7.6 7-7.7 -1.2-0.6-2.9-0.8-4.8-0.9 -3.3-0.3-6.7-0.6-7.7-4 -0.5-1.7-1.5-5.8-2.4-9.6 -0.2 0.1-0.5 0.1-0.8 0.1 -1.5 0-4-1-5.6-2.2 -0.6 2.6-2.2 4.5-4.1 4.5 -0.3 0-0.5 0-0.8-0.1l-0.5-0.1 0.2-0.4c0.6-1.1 0-3.4-0.6-4.9 -0.2 0.6-0.6 1.4-1.1 2.1 1 3.1 1.9 6.4 2.5 8.8C381 350.4 381.3 351.4 381.4 351.9z" class="i"/><path d="M324.3 359c1.4-3.6 4.5-7.3 11.4-7.3 0.2 0 0.3 0 0.5 0 7 0.2 22.7 2.4 33.2 3.8 5 0.7 8.3 1.2 9 1.2 0.9 0 1.8-0.5 2.4-1.3 0.7-1 0.9-2.3 0.5-3.5 -0.1-0.4-0.4-1.4-0.8-2.7 -0.6-2.4-1.5-5.7-2.5-8.8 -0.2 0.3-0.4 0.5-0.6 0.7 0.9 3 1.8 6.2 2.4 8.3 0.4 1.4 0.6 2.3 0.8 2.8 0.3 0.9 0.1 2-0.4 2.8 -0.5 0.6-1.1 1-1.8 1 -0.6 0-4.3-0.5-8.9-1.1 -10.4-1.4-26.2-3.6-33.3-3.8 -8.5-0.2-11.8 4.7-13.1 8.9C323.6 359.5 324 359.2 324.3 359z" class="j"/><path d="M414.7 358.6l-0.2 0.4 -0.4-0.2c-1.6-0.9-4.4-2.1-7.2-2.1 -2.9 0-6.4 1.2-6.9 7 -0.2 2.5 0.2 4.2 1.3 5.3 1 1.1 2.6 1.6 4.9 1.6 2.7 0 6-0.7 9.4-1.4 0.7-0.1 1.4-0.3 2.1-0.4 0.2 0 0.4 0 0.5 0 7.1 0 19.7 12.2 29 22.5 3.7 2.7 7.1 4.2 9.9 4.2 -0.4-0.5-0.7-1-0.9-1.7 -0.4-1.7 0.2-3.6 1.7-5.6 1.9-2.4 3.4-3.5 4.8-3.5 0.5 0 0.9 0.1 1.4 0.3 -0.4-1.9-2.3-7-10-10.6 -4.2-1.9-8.3-3.5-11.9-4.9 -9.7-3.4-10-5.5-10-5.5 1.5 1.3 5.4 2.8 10.3 4.7 3.6 1.4 7.7 3 11.9 4.9 9.4 4.3 10.5 10.6 10.6 11.8 0.1 0.1 0.2 0.1 0.3 0.2 2 1.1 5.7 2.2 9.1 2.2 0.7 0 1.3 0 2-0.2 -1.7-1-2.7-2.6-3-4.5 -0.5-3.3 1.5-7 4.2-8.2 0.6-0.2 1.2-0.3 1.8-0.3 0.3 0 0.6 0 1 0.1 -0.1-0.2-0.3-0.4-0.4-0.6 -3-3.9-9.7-6.4-18.6-6.6 -0.4 0-0.9 0-1.3 0 -20.8 0-31.6-9.5-37.1-17.4 -0.8-1.2-1.5-2.3-2.2-3.5 -0.2 0.4-0.4 0.6-0.5 0.7L420 347.7l-0.2-0.4c-1.4-3.3-3.6-3.6-4.5-3.5 0.4 2.1 0.9 6.3-0.3 6.8 -0.6 0.3-1.9-0.1-3.2-0.8 0.4 0.8 0.8 1.6 1.1 2.3C413.7 354 415.1 357.5 414.7 358.6z" class="i"/><path d="M457.2 395.5c-2.8-0.1-6.2-1.5-9.9-4.2 -9.3-10.2-21.9-22.5-29-22.5 -0.2 0-0.3 0-0.5 0 -0.7 0.1-1.4 0.3-2.1 0.4 -3.4 0.7-6.7 1.4-9.4 1.4 -2.3 0-3.9-0.5-4.9-1.6 -1-1.1-1.4-2.9-1.3-5.3 0.4-5.8 4-7 6.9-7 2.8 0 5.6 1.1 7.2 2.1l0.4 0.2 0.2-0.4c0.4-1.1-0.9-4.6-1.8-6.5 -0.3-0.7-0.7-1.5-1.1-2.3 -0.4-0.2-0.8-0.4-1.2-0.7 0.5 1.1 1.1 2.2 1.6 3.4 1.2 2.7 1.7 4.6 1.8 5.4 -1.6-0.8-3.9-1.7-6.4-1.8 -1.4-1.3-3.8-1.5-6.1-1.7 -3.2-0.3-6.2-0.5-7.1-3.5 -0.7-2.3-2.3-9.1-3.3-13.6 -0.1-0.1-0.1-0.1-0.1-0.2 0.4 1.6 0.8 2.9 0.9 3.3s0 0.7-0.2 0.8c-0.1 0.1-0.2 0.2-0.4 0.3 0.9 3.8 1.9 7.9 2.4 9.6 1 3.4 4.4 3.7 7.7 4 1.8 0.2 3.5 0.3 4.8 0.9 -2.7 0.2-6.5 1.5-7 7.7 -0.1 1.3 0 2.5 0.2 3.5 -1.4-0.4-2.9-1.1-4.5-2.1 -0.8-0.4-1.7-0.7-2.7-0.7 -2.2 0-4.7 1.1-6.7 2.1 -3.9 2-28.2 12.6-41.8 12.6h0c-0.8 0-1.5 0-2.2-0.1 -0.6 0.2-1.3 0.4-2 0.5 1.2 0.3 2.6 0.5 4.2 0.5h0c13.7 0 38.2-10.7 42.1-12.7 1.9-0.9 4.3-2 6.4-2 0.9 0 1.6 0.2 2.3 0.6 1.9 1.2 3.6 1.9 5.2 2.3 0.2 0.6 0.6 1.1 1 1.5 1.2 1.2 3 1.8 5.5 1.8 2.8 0 6.1-0.7 9.6-1.4 0.7-0.1 1.4-0.3 2.1-0.4 0.1 0 0.3 0 0.4 0 5.4 0 15.2 7.7 28.5 22.3 4 2.9 7.6 4.4 10.6 4.4 0.2 0 0.4 0 0.6 0C457.7 396.1 457.4 395.8 457.2 395.5z" class="j"/><path d="M476.6 387.8c-0.7 0.1-1.4 0.2-2 0.2 -3.4 0-7-1.2-9.1-2.2 0.5 0.4 1 0.9 1.5 1.5 2.1 0.8 4.9 1.5 7.6 1.5 1.2 0 2.2-0.1 3.1-0.4C477.3 388.2 476.9 388.1 476.6 387.8z" class="j"/><path d="M420.9 346.8c0.6 1.2 1.3 2.3 2.2 3.5 5.5 7.9 16.4 17.4 37.1 17.4 0.4 0 0.9 0 1.3 0 8.9 0.3 15.6 2.7 18.6 6.6 0.2 0.2 0.3 0.4 0.4 0.6 0.4 0.1 0.8 0.2 1.1 0.4 -0.3-0.5-0.5-1-0.9-1.5 -3.1-4.1-10.1-6.7-19.2-7 -21.2 0.4-32.3-9.1-37.8-17 -0.9-1.3-1.7-2.6-2.4-3.9C421.1 346.3 421 346.5 420.9 346.8z" class="j"/><path d="M479.5 375.6c-0.5 0-1 0.1-1.5 0.2 -2.4 1-4.2 4.4-3.7 7.3 0.2 1.7 1.4 4.7 6.6 5.2 3.2 0.4 5.1 0.8 6 1C486.6 386.8 485.1 375.6 479.5 375.6z" class="k"/><path d="M480.5 375c-0.3-0.1-0.6-0.1-1-0.1 -0.6 0-1.1 0.1-1.8 0.3 -2.8 1.1-4.7 4.9-4.2 8.2 0.3 2 1.3 3.5 3 4.5 0.3 0.2 0.7 0.4 1.1 0.6 0.9 0.4 2 0.7 3.2 0.8 4.4 0.5 6.4 1.2 6.4 1.2l0.5 0.2 0-0.6c0-0.6-0.9-12.2-6.1-14.6C481.2 375.2 480.9 375 480.5 375zM480.9 388.4c-5.2-0.6-6.4-3.5-6.6-5.2 -0.4-3 1.3-6.3 3.7-7.3 0.5-0.2 1-0.2 1.5-0.2 5.6 0 7.1 11.2 7.3 13.8C486 389.2 484.1 388.8 480.9 388.4z" class="l"/><path d="M458.7 388.7c-1.4 1.9-2 3.5-1.6 4.9 0.4 1.6 1.8 2.4 2.4 2.7 3.8 1.4 6.7 3.2 7.7 3.9 0.6-1.7 2.6-8-0.1-11.6 -1.7-2.2-3-3.2-4.2-3.2C461.7 385.4 460.4 386.4 458.7 388.7z" class="k"/><path d="M465.5 385.8c-0.1-0.1-0.2-0.2-0.3-0.2 0 0.1 0 0.2 0 0.2l-0.8 0c0 0 0-0.3-0.1-0.8 -0.5-0.2-0.9-0.3-1.4-0.3 -1.5 0-3 1.1-4.8 3.5 -1.6 2.1-2.2 3.9-1.7 5.6 0.2 0.7 0.5 1.3 0.9 1.7 0.3 0.3 0.5 0.6 0.8 0.8 0.5 0.4 0.9 0.6 1.2 0.7 4.7 1.7 7.9 4.1 7.9 4.2l0.4 0.3 0.2-0.5c0.1-0.3 3.4-8.3 0-12.8 -0.2-0.3-0.5-0.6-0.7-0.9C466.4 386.7 465.9 386.2 465.5 385.8zM467 388.7c2.7 3.6 0.8 9.8 0.1 11.6 -1-0.7-3.8-2.6-7.7-3.9 -0.6-0.3-2-1.1-2.4-2.7 -0.4-1.4 0.2-3.1 1.6-4.9 1.7-2.2 3-3.2 4.2-3.2C464.1 385.4 465.4 386.4 467 388.7z" class="l"/><path d="M454.6 373.7c-4.2-1.9-8.3-3.5-11.9-4.9 -4.9-1.9-8.8-3.4-10.3-4.7 0 0 0.3 2.1 10 5.5 3.6 1.4 7.7 3 11.9 4.9 7.8 3.5 9.6 8.7 10 10.6 0.1 0.5 0.1 0.8 0.1 0.8l0.8 0c0 0 0-0.1 0-0.2C465.1 384.3 464 378 454.6 373.7z" class="j"/><path d="M331.8 369.1c0.1-2-0.2-5.7-2.1-8 -1-1.2-2.5-1.8-4.3-1.8 -2.6 0.8-7.3 7.3-6.7 9.9 0.7 0.9 4.6 1.8 8.3 1.8h0c1.2 0 2.3-0.1 3.2-0.3C330.8 370.2 331.3 369.6 331.8 369.1z" class="k"/><path d="M356.1 359.3c3.6 0.7 8.6 1 12.9 0.9 7-0.3 7.8-1.6 7.8-1.6 -0.8 0.6-12.9 1.4-20.5-0.1 -18.7-3.3-23 7.8-23.7 9.8 0 0.1 0 0.1 0 0.2 0.4-0.3 0.8-0.6 1.2-0.9C335.1 364.4 340.2 356.4 356.1 359.3z" class="j"/><path d="M526.5 297.9l0.2-0.3c1.4-2.3 1.8-4.4 1.2-5.4 -0.3-0.6-0.9-0.8-1.8-0.8 -1.2 0-3.4 0.5-7.2 2.9 -12.3 9.3-32.1 18.4-47 24.6 -2.9 4.9-11.2 10.5-16 12.2 2.8 1 8.1 2 14.1 2.3C491.4 328.8 514.3 318.8 526.5 297.9z" class="b"/><path d="M471.8 318.9c15-6.2 34.8-15.3 47-24.6 3.8-2.4 6-2.9 7.2-2.9 0.9 0 1.5 0.3 1.8 0.8 0.6 1.1 0.1 3.1-1.2 5.4l-0.2 0.3c-12.1 20.9-35.1 30.9-56.7 35.5 1.1 0.1 2.1 0.1 3.2 0.1 14.2-3.4 26.3-8.5 35.9-15.4 11.4-8.2 16.2-16.3 18.2-19.8l0.2-0.3c1.6-2.7 2-4.9 1.2-6.2 -0.3-0.6-1-1.2-2.5-1.2 -1.9 0-4.5 1-7.6 3 -12 9.1-31.2 18-46 24.2C472.2 318.2 472 318.5 471.8 318.9z" class="c"/><path d="M455.3 343.2c1.7 1.2 4.8 2.5 8.7 3.7 8-0.3 19.3-1 30.1-2.1 12-4 20.6-9.7 26.6-14.9 11.3-9.8 16-20.2 16.8-24.6 -14.6 12.9-32.7 21.2-48.6 26.5C487.9 336.6 478.2 343.3 455.3 343.2z" class="b"/><path d="M538.5 304.4l0-0.9 -0.7 0.6c-14.5 13.1-32.8 21.6-48.8 26.9l0 0.3c0 0.2-0.1 0.4-0.1 0.6 15.9-5.3 34-13.6 48.6-26.5 -0.8 4.4-5.6 14.8-16.8 24.6 -5.9 5.2-14.6 10.9-26.6 14.9 -10.9 1.1-22.1 1.8-30.1 2.1 0.8 0.2 1.6 0.5 2.5 0.7 18-0.8 48.2-3 59.1-8.7 -0.1 1.4-1 3.9-3.3 6.6 -3.9 4.7-16 15.6-44.6 15.6 -4 0-8.2-0.2-12.6-0.7 0.5 0.3 1 0.5 1.6 0.8l0.6 0.2c3.6 0.3 7.1 0.5 10.4 0.5 28.9 0 41.2-11.1 45.2-15.9 2.4-3 3.8-6 3.5-7.8l-0.1-0.5 -0.5 0.3c-5.3 3-16.3 5-28.1 6.4 10.5-3.9 18.2-9.1 23.7-13.9C533.7 319.7 538.3 308 538.5 304.4z" class="c"/><path d="M481.5 349.7c2.1 0 4-0.2 5.7-0.5l1.2-0.2 -0.8 0.9c-2.9 3-14.3 5.3-22.7 5.3 -1.9 0-4.2-0.1-5.9-0.6 0.2 0.3 0.5 0.6 0.7 0.9 1.3 1.7 2.7 3.5 5.4 5 4.4 0.4 8.6 0.7 12.6 0.7 28.6 0 40.7-10.9 44.6-15.6 2.3-2.8 3.3-5.2 3.3-6.6 -10.9 5.6-41.1 7.8-59.1 8.7C471.2 348.9 476.6 349.7 481.5 349.7z" class="b"/><path d="M369.1 327.6c2.6 3.3 5.6 7.9 7.2 13.2 1.3-0.3 2.2-2.9 2.5-3.8l0.3-1 0.4 1c0.1 0.2 1.8 3.9 1.2 6.1 1.4 0.1 2.8-1.4 3.4-3.5 0.1-0.3 0.1-0.6 0.2-0.9l0.1-0.7 0.6 0.5c1.5 1.3 4.3 2.4 5.6 2.4 0.4 0 0.5-0.1 0.5-0.1 0 0 0-0.1 0-0.2 -0.1-0.5-0.6-2.4-1.3-4.7C382.2 334.7 375.7 332.2 369.1 327.6z" class="m"/><path d="M380.7 343.1c1.4 0.1 2.8-1.4 3.4-3.5C383.6 341.6 382.2 343.2 380.7 343.1z" class="e"/><path d="M306.5 182.8c-0.2 0.4-0.4 0.7-0.5 1.1 8.3-8.4 17.7-19.3 24.4-29.4 -0.3 0-0.6 0-0.9-0.1 -6.2 9.4-14.7 19.3-22.5 27.4 0.1-0.1 0.1-0.1 0.2-0.2C306.9 182 306.7 182.4 306.5 182.8z" class="n"/><path d="M330.7 57.6c0.3-0.9 0.7-1.8 1.3-2.7 2.9-4.2 9-6.8 18.3-7.5 13.8 0.4 31.7 10.8 31.9 10.9 0.6 0.4 15.2 9.8 19.6 11.8 1.2 0.5 3 0.9 4.9 0.9 4.1 0 7.6-1.3 9.4-3.4 0.9-1 1.4-2.2 1.5-3.5 0.5 1.7 0.7 4.2 0 6.8 -0.7 2.7-2.9 7.5-9.5 10.2l-0.4 0.2 0.2 0.4c1 1.7 4.5 2.9 8.3 2.9 2.1 0 6.9-0.4 9.5-4 0.1 1.4-0.5 3.5-1.8 5.5 -1 1.6-4.9 6.8-11.7 6.8H411.4l0.4 0.6c3.1 4.5 8 8.1 10.9 8.2 -3.7 3.4-9.9 3.7-11.7 3.7 -0.3 0-0.4 0-0.4 0l-0.7 0 0.4 0.6c4.4 6.9 1.3 17.7-2.2 30.1 -3.7 12.8-7.9 27.8-4.3 41.6 0.1 0 0.2 0 0.3 0 0.1 0 0.3 0 0.4 0 -3.6-13.5 0.5-28.1 4.3-41.4 3.5-12.3 6.6-23 2.5-30.2 2.4 0 9.3-0.5 12.9-4.8l1.2-1.5 -1.7 0.9c-0.2 0.1-0.5 0.2-0.8 0.2 -2.6 0-7-3.3-10-7.3 4.6-0.3 8.8-2.9 11.6-7.1 1.8-2.7 2.4-5.5 1.7-7.1l-0.3-0.7 -0.4 0.7c-2.1 4-7.2 4.4-9.3 4.4 -3.2 0-6.2-0.9-7.4-2.1 6.5-2.9 8.8-7.8 9.5-10.6 1.1-4 0.3-7.5-0.8-9l-0.9-1.2 0.2 1.5c0.3 1.8-0.2 3.4-1.3 4.7 -2 2.3-5.9 3.1-8.9 3.1 -1.8 0-3.5-0.3-4.6-0.8 -4.3-1.9-19.3-11.6-19.5-11.7 -0.2-0.1-18.3-10.6-32.3-11 -9.5 0.8-15.9 3.4-18.9 7.8 -0.7 1-1.1 2-1.4 2.9C330.2 57.4 330.5 57.5 330.7 57.6zM382.4 58c0 0 0 0 0 0 0.1 0.1 0.3 0.2 0.5 0.3 0 0 0.1 0.1 0.1 0.1 0.1 0 0.1 0.1 0.2 0.1 0 0 0.1 0.1 0.1 0.1 0 0-0.1-0.1-0.1-0.1 -0.1 0-0.1-0.1-0.2-0.1 -0.1 0-0.1-0.1-0.1-0.1 -0.3-0.2-0.4-0.3-0.5-0.3C382.4 58 382.4 58 382.4 58c0 0 0 0 0 0S382.4 58 382.4 58z" class="n"/><path d="M295.8 197c-13.2 28.9 9.3 63.9 31.4 89.5 0.2 0.3 0.4 0.5 0.7 0.8 10.1 11.6 20 21.1 26.2 27.2 1.5 1.5 2.8 2.7 3.8 3.7 3 2.9 5.8 5.4 8.6 7.6 0.9 0.7 1.8 1.3 2.6 1.9 6.6 4.6 13 7.1 20.6 8.2 0 0 0 0 0 0 -0.1-0.2-0.3-0.3-0.4-0.5 -11.6-1.7-20.6-7-31.2-17.5 -15.8-15.7-96.1-87.2-53.8-133 0.6-0.6 1.3-1.3 2-2 0.2-0.4 0.4-0.8 0.6-1.2 -0.1 0.1-0.1 0.1-0.2 0.2 -0.9 0.9-1.8 1.8-2.7 2.7 -3.1 3.4-5.5 6.8-7.4 10.4C296.4 195.6 296.1 196.3 295.8 197z" class="o"/><path d="M382.5 58c0.1 0.1 0.3 0.2 0.5 0.3C382.7 58.2 382.5 58.1 382.5 58z" fill="#2A6434"/><path d="M382.4 58c0 0 0 0 0 0" class="a"/><path d="M383.1 58.4c0.1 0 0.1 0.1 0.2 0.1" class="a"/><path d="M382.4 58c0 0 0 0 0 0" class="a"/><path d="M383.1 58.4c-0.1 0-0.1-0.1-0.1-0.1" class="a"/><path d="M383.3 58.6c0 0 0.1 0.1 0.1 0.1" class="a"/><path d="M357.8 96c0 0 0 0 0 0 0 0 0.1-0.1 0.5-0.2 -2.5-3.7-3.8-8.7-3.4-13.9 0.7-10.4 8-20.3 15.8-19.9l0.1 0c2.9 0.2 5.7 2.5 8 4.8 3.7 3.8 5.3 10.8 4.8 17 -0.3 4.8-2 9-4.4 12.2 2.5-1.6 4.8-3.9 6.7-6.9 3.9-6.4 4.8-14.2 2.1-19.5 -3.5-7-11.6-11.5-20.5-11.5 -3.3 0-6.5 0.7-9.2 1.9 -7.6 2.8-13.5 4.4-17.5 4.8 1.1 1.6 2 3.4 2.5 5.3 0.4 1.5 0.8 3.1 1.2 4.6 2.2 8.5 4.3 16.6 12.2 21.6 0 0 0 0 0.1 0C356.9 96.3 357.3 96.2 357.8 96z" fill="#E8BB95"/><path d="M382.9 83.8c0.3-4.9-0.8-9.6-3.2-13.2 -2.3-3.6-5.6-5.7-9.3-6l-0.1 0c-0.9 0-1.8 0-2.6 0.2 -6.5 1.3-11.6 8.5-12.1 17.2 -0.3 4.9 0.8 9.6 3.2 13.2 0.1 0.1 0.2 0.2 0.2 0.3 0.8-0.3 2.2-0.6 4.2-0.8 -1.9-2.4-2.8-6-2.2-9.7 0.9-6.1 5.3-10.2 9.8-9.3 4.5 0.9 7.5 6.5 6.6 12.6 -0.4 3-1.8 5.6-3.6 7.3 1.6 0.5 2.7 1 3.5 1.6 0.1 0 0.2-0.1 0.2-0.1C380.5 93.9 382.5 89.1 382.9 83.8z" class="p"/><path d="M356.6 96.4c0 0 0 0 0 0 0 0 0 0 0 0C356.7 96.4 356.6 96.4 356.6 96.4z" class="q"/><path d="M367.4 58.2c8.9 0 16.9 4.5 20.5 11.5 2.7 5.3 1.8 13.1-2.1 19.5 -1.8 3-4.1 5.3-6.7 6.9 -0.4 0.5-0.8 1-1.3 1.5 0 0 0 0 0.1 0 3.3-1.6 6.3-4.3 8.6-8 4.1-6.7 4.9-14.6 2.1-20.2 -3.7-7.3-12-12-21.2-12 -3.4 0-6.8 0.7-9.5 2 -7.9 2.9-13.9 4.5-17.8 4.7 0.2 0.2 0.4 0.5 0.6 0.7 4-0.3 9.9-1.9 17.5-4.8C360.9 58.9 364.1 58.2 367.4 58.2z" class="q"/><path d="M377.2 97.2c0 0 0.1 0 0.1 0.1 0.1-0.1 0.1-0.1 0.2-0.2C377.4 97.1 377.3 97.1 377.2 97.2z" class="q"/><path d="M358.9 95.5c-0.1-0.1-0.2-0.2-0.2-0.3 -2.4-3.6-3.5-8.3-3.2-13.2 0.6-8.7 5.7-15.9 12.1-17.2 0.9-0.2 1.7-0.2 2.6-0.2l0.1 0c3.6 0.3 6.9 2.4 9.3 6 2.4 3.6 3.5 8.3 3.2 13.2 -0.4 5.3-2.4 10-5.4 13.2 -0.1 0.1-0.1 0.1-0.2 0.2 0.2 0.1 0.4 0.3 0.6 0.4 0.5-0.5 0.9-1 1.3-1.5 2.4-3.2 4.1-7.5 4.4-12.2 0.4-6.2-1.2-13.2-4.8-17 -2.3-2.3-5-4.6-8-4.8l-0.1 0c-7.9-0.5-15.1 9.5-15.8 19.9 -0.3 5.1 0.9 10.1 3.4 13.9C358.4 95.7 358.7 95.6 358.9 95.5z"/><path d="M377.3 88.3c0.9-6.1-2.1-11.7-6.6-12.6 -4.5-0.9-8.9 3.3-9.8 9.3 -0.5 3.7 0.4 7.3 2.2 9.7 0.1 0 0.2 0 0.3 0 -1.9-2.3-2.8-5.9-2.3-9.6 0.9-5.9 5.1-9.9 9.5-9 4.4 0.9 7.2 6.3 6.4 12.2 -0.4 3-1.8 5.6-3.6 7.2 0.1 0 0.2 0.1 0.3 0.1C375.5 93.9 376.8 91.3 377.3 88.3z" fill="#2E3191"/><path d="M377.1 88.3c0.9-5.9-2-11.3-6.4-12.2 -4.4-0.9-8.6 3.2-9.5 9 -0.5 3.7 0.4 7.3 2.3 9.6 1.4-0.1 3-0.1 5 0 -2.9-0.3-5-3.8-4.7-7.8 0.3-4.1 2.9-7.3 5.9-7.1 3 0.2 5.2 3.7 4.9 7.9 -0.3 4-2.7 7.1-5.6 7.1 0.2 0 0.5 0 0.7 0 1.5 0.2 2.7 0.4 3.8 0.8C375.3 93.9 376.6 91.3 377.1 88.3z" fill="#00079F"/><path d="M374.5 87.6c0.3-4.1-1.9-7.7-4.9-7.9 -3-0.2-5.6 3-5.9 7.1 -0.3 4 1.8 7.5 4.7 7.8 0.2 0 0.3 0 0.5 0C371.8 94.7 374.3 91.6 374.5 87.6z"/><path d="M377.3 97.2c0 0-0.1 0-0.1-0.1 -0.8-0.5-1.9-1.1-3.5-1.6 -0.1 0-0.2-0.1-0.3-0.1 -1.1-0.3-2.3-0.6-3.8-0.7 -0.3 0-0.5 0-0.7 0 -0.2 0-0.3 0-0.5 0 -2-0.1-3.6-0.1-5 0 -0.1 0-0.2 0-0.3 0 -2 0.2-3.4 0.5-4.2 0.8 -0.3 0.1-0.5 0.2-0.7 0.3 -0.3 0.1-0.5 0.2-0.5 0.2 0 0 0 0 0 0 0.8-0.1 14.6-2.6 21.2 2.9 0 0-0.3-0.5-1.1-1.2 0 0 0 0-0.1 0C377.7 97.5 377.5 97.4 377.3 97.2z" class="n"/><path d="M439.1 333.1c0 0.1 0 0.1 0 0.2 0 0.3 0 0.5 0 0.6h0c-0.2 3.4-1.5 7.2-3.4 9.1 -0.8 0.9-1.7 1.3-2.6 1.3 -0.3 0-0.5 0-0.8-0.1 -1.6-0.5-4.7-5.6-7.7-11.2 -0.6 4.4-1.5 8-2.4 10.6 8.5 11.8 31.4 18.2 41.1 18.2 1 0 1.6-0.1 2.1-0.2 -3.4-1.6-5-3.7-6.4-5.6 -0.6-0.8-1.1-1.5-1.8-2.1l-2.7-2.7 3.1 2.1c1.2 0.8 3.7 1.2 7.1 1.2 7.2 0 17-1.7 21-4.1 -1.4 0.2-2.8 0.3-4.4 0.3 -11.3 0-24.8-4.5-27.6-7.4l-0.6-0.7 0.9 0c0.6 0 1.2 0 1.8 0 20.4 0 30.7-5.9 32.1-10.4 -3.9 1.9-9.8 2.4-14.2 2.4 -8.4 0-16.7-1.5-19.5-2.9l-0.9-0.5 1-0.3c5-1.3 16-8.7 17.4-14 -7.3 4-14.5 6-21.6 6 -2.5 0-4.7-0.3-6.8-0.7C442.7 326.5 441.4 330.6 439.1 333.1L439.1 333.1z" class="m"/><path d="M465.1 360.5c-2.7-1.4-4.1-3.3-5.4-5 -0.2-0.3-0.5-0.6-0.7-0.9 1.8 0.5 4.1 0.6 6 0.6 8.3 0 19.8-2.3 22.7-5.3l0.8-0.9 -1.2 0.2c-1.7 0.3-3.7 0.5-5.7 0.5 -4.9 0-10.3-0.9-15-2.1 -0.8-0.2-1.7-0.5-2.5-0.7 -3.9-1.2-7.1-2.5-8.7-3.7 22.9 0.1 32.5-6.7 33.7-11.3 0-0.2 0.1-0.4 0.1-0.6l0-0.3 0-0.5 -0.7 0.4c-3.7 2.2-10 2.7-14.5 2.7 -0.3 0-0.6 0-0.9 0 -1.1 0-2.1 0-3.2-0.1 -5.9-0.3-11.3-1.3-14.1-2.3 4.8-1.7 13.2-7.3 16-12.2 0.2-0.4 0.4-0.7 0.5-1.1 0.3-0.6 0.4-1.2 0.5-1.8l0.1-0.7 -0.6 0.4c-7.4 4.2-14.8 6.3-21.9 6.3 -2.4 0-4.6-0.2-6.7-0.6 0 0.3-0.1 0.5-0.1 0.8 2.1 0.4 4.4 0.7 6.8 0.7 7 0 14.3-2 21.6-6 -1.4 5.2-12.4 12.7-17.4 14l-1 0.3 0.9 0.5c2.8 1.4 11.1 2.9 19.5 2.9 4.4 0 10.3-0.4 14.2-2.4 -1.4 4.6-11.7 10.4-32.1 10.4 -0.6 0-1.2 0-1.8 0l-0.9 0 0.6 0.7c2.8 2.9 16.2 7.4 27.6 7.4 1.6 0 3-0.1 4.4-0.3 -3.9 2.4-13.8 4.1-21 4.1 -3.5 0-6-0.4-7.1-1.2l-3.1-2.1 2.7 2.7c0.6 0.6 1.2 1.4 1.8 2.1 1.4 1.9 3 4 6.4 5.6 -0.5 0.1-1.1 0.2-2.1 0.2 -9.8 0-32.6-6.3-41.1-18.2 0.9-2.6 1.9-6.2 2.4-10.6 -0.2-0.4-0.4-0.8-0.6-1.1 -0.8 7.5-3 12.9-3.8 14.5 -2.1-4.1-5.4-3.3-5.4-3.3l-0.4 0.1 0.1 0.4c0.6 3.4 0.6 6.2 0.2 6.3 -0.9 0.4-5.4-1.8-6.7-4.4l-0.4-0.8 -0.3 0.8c-1.2 2.9-2.5 4.8-4.1 5.7 0.2-1.7-0.6-5-3.4-7.2 -17.2-12-25.2-36.6-25.3-36.8 0 0 0.6 5.8 5.8 14.9 2.3 4.2 5.2 8.7 8.7 12.9 -11.2-1.8-20-6.9-30.5-17.3 -1-1-2.3-2.3-3.8-3.7 -22.1-21.3-89.2-86.2-49.9-128.7 0.4-0.4 0.8-0.8 1.1-1.2 0 0 0 0 0 0 0.2-0.4 0.4-0.7 0.5-1.1 -0.7 0.7-1.3 1.4-2 2 -42.3 45.8 38 117.3 53.8 133 10.6 10.5 19.6 15.8 31.2 17.5 0.1 0.2 0.3 0.3 0.4 0.5 0 0 0 0 0 0 0.6 2.4 1.1 4.2 1.3 4.7 0 0 0 0.1 0 0.2 0 0-0.1 0.1-0.5 0.1 -1.3 0-4.1-1.1-5.6-2.4l-0.6-0.5 -0.1 0.7c0 0.3-0.1 0.6-0.2 0.9 -0.6 2.1-2 3.6-3.4 3.5 0.6-2.2-1.1-5.9-1.2-6.1l-0.4-1 -0.3 1c-0.3 0.9-1.2 3.5-2.5 3.8 -1.6-5.3-4.6-9.9-7.2-13.2 -0.9-0.6-1.7-1.2-2.6-1.9 0.9 1.1 2.1 2.4 3.2 4 0.2 0.2 0.3 0.5 0.5 0.7l0 0c2 2.9 4 6.4 5.3 10.4 0.1 0.2 0.1 0.4 0.2 0.6l0.1 0.3 0.1 0 0.2 0c0.5 0 1-0.2 1.4-0.6 0.2-0.2 0.4-0.4 0.6-0.7 0.5-0.7 0.9-1.5 1.1-2.1 0.5 1.5 1.2 3.8 0.6 4.9l-0.2 0.4 0.5 0.1c0.3 0.1 0.5 0.1 0.8 0.1 1.9 0 3.5-1.9 4.1-4.5 1.6 1.2 4.1 2.2 5.6 2.2 0.3 0 0.6 0 0.8-0.1 0.2-0.1 0.3-0.2 0.4-0.3 0.1-0.2 0.2-0.4 0.2-0.8s-0.4-1.6-0.9-3.3c0 0.1 0.1 0.1 0.2 0.2 2.5 2.7 5.2 5.2 8.2 7.3 3.2 2.6 3.4 6.5 2.9 7.1l-0.8 1.1 1.2-0.4c2-0.7 3.7-2.6 5.1-5.8 0.7 1 1.7 1.9 2.8 2.6 0.4 0.3 0.8 0.5 1.2 0.7 1.4 0.7 2.6 1 3.2 0.8 1.2-0.5 0.7-4.6 0.3-6.8 0.9 0 3 0.2 4.5 3.5l0.2 0.4 0.4-0.2c0.1-0.1 0.3-0.3 0.5-0.7 0.1-0.2 0.3-0.5 0.4-0.9 0.2-0.4 0.4-0.9 0.6-1.5 9 11.8 31.7 18.1 41.4 18.1 1.6 0 2.8-0.2 3.4-0.6l0.7-0.4 -0.1 0 -0.6-0.2C466.1 361 465.6 360.7 465.1 360.5z" class="o"/><path d="M420.8 325.2l-1.2-1.1c-11.6-10.7-23.6-21.7-33.8-37 -5.4-6.4-11.5-19.8-15.7-31.3 0-0.1-0.1-0.2-0.1-0.3 -2.1-5.8-3.6-11.1-4.3-14.7 -0.4-2.1-0.9-5-1.3-8.3 0-0.1 0-0.2 0-0.3 -0.1-0.7-0.1-1.4-0.2-2.1 0-0.2 0-0.3 0-0.5 0-0.5-0.1-1.1-0.1-1.7 0-0.2 0-0.4 0-0.6 0-0.7 0-1.3-0.1-2 0-0.2 0-0.3 0-0.5 0-0.6 0-1.3 0-1.9 0-0.1 0-0.2 0-0.3 0-0.8 0.1-1.5 0.1-2.3 0 0 0 0 0-0.1 0.1-0.8 0.1-1.5 0.2-2.3 0 0 0-0.1 0-0.1 0.4-3.8 1.2-7.7 2.7-11.6 0 0 0 0 0 0 0 0 0-0.1 0-0.1 0.2-0.6 0.5-1.2 0.7-1.8 0.1-0.3 0.2-0.5 0.4-0.8 0.2-0.4 0.3-0.7 0.5-1.1 0.2-0.4 0.4-0.7 0.6-1.1 0.1-0.2 0.2-0.3 0.3-0.5 2.2-4.1 5.1-7.9 8.7-11.1 1.8-1.7 5.3-4.7 10.1-7.2 0 0 0 0 0 0 0.8-0.4 1.6-0.9 2.5-1.3 1.7-0.8 3.4-1.6 5.3-2.3 0.1 0 2.6-0.9 6.3-1.1 0.4 0 0.9 0 1.4 0 -3.6-13.9 0.6-28.8 4.3-41.6 3.6-12.5 6.7-23.2 2.2-30.1l-0.4-0.6 0.8 0c0 0 0.2 0 0.4 0 1.9 0 8-0.3 11.7-3.7 -3-0.1-7.9-3.7-10.9-8.2l-0.4-0.6h0.7c6.8 0 10.7-5.2 11.7-6.8 1.3-2 2-4.1 1.8-5.5 -2.5 3.6-7.4 4-9.5 4 -3.8 0-7.3-1.2-8.3-2.9l-0.2-0.4 0.4-0.2c6.6-2.7 8.8-7.6 9.5-10.2 0.7-2.6 0.6-5.1 0-6.8 -0.1 1.3-0.6 2.5-1.5 3.5 -1.9 2.1-5.4 3.4-9.4 3.4 -1.9 0-3.7-0.3-4.9-0.9 -4.4-1.9-18.9-11.4-19.5-11.8 -0.2-0.1-18.1-10.5-31.9-10.9 -9.2 0.7-15.4 3.3-18.3 7.5 -0.6 0.9-1 1.8-1.3 2.7 0.3 0.1 0.6 0.2 0.8 0.3 3.5 1.4 6.4 3.6 8.6 6.3 3.9-0.2 9.9-1.8 17.8-4.7 2.8-1.3 6.1-2 9.5-2 9.2 0 17.5 4.7 21.2 12 2.8 5.6 2 13.5-2.1 20.2 -2.3 3.7-5.2 6.5-8.6 8 0.8 0.7 1.1 1.2 1.1 1.2 -6.5-5.4-20.4-3-21.2-2.9 -0.6 0.1-0.9 0.3-1.2 0.4 0 0 0 0 0 0 0.2 0.1 0.4 0.3 0.6 0.4 4.1 1.6 6.4 3.8 6.8 6.5 0.9 5.5-5.7 11.1-5.9 11.3 -0.1 0-3.8 3.1-6.1 17.8 -2.2 14-8.4 21.4-18.6 22.1 -0.5 0-1 0.1-1.5 0.1 -0.5 0-1.1 0-1.7-0.1 -6.6 10.1-16 21-24.4 29.4 0 0 0 0 0 0 -0.4 0.4-0.8 0.8-1.1 1.2 -39.3 42.6 27.9 107.4 49.9 128.7 1.5 1.5 2.8 2.7 3.8 3.7 10.5 10.4 19.3 15.6 30.5 17.3 -3.5-4.2-6.4-8.8-8.7-12.9 -5.2-9-5.8-14.9-5.8-14.9 0.1 0.2 8.1 24.8 25.3 36.8 2.8 2.2 3.6 5.5 3.4 7.2 1.6-0.9 3-2.8 4.1-5.7l0.3-0.8 0.4 0.8c1.3 2.7 5.8 4.8 6.7 4.4 0.4-0.2 0.4-2.9-0.2-6.3l-0.1-0.4 0.4-0.1c0 0 3.4-0.7 5.4 3.3 0.9-1.6 3-7 3.8-14.5C422.9 329.6 421.8 327.3 420.8 325.2z" class="m"/><path d="M330.3 154.5c0.6 0 1.2 0.1 1.7 0.1 0.5 0 1 0 1.5 0 10.2-0.7 16.5-8.2 18.6-22.1 2.3-14.6 6-17.7 6.1-17.8 0.3-0.2 6.9-5.9 5.9-11.3 -0.5-2.8-2.8-4.9-6.8-6.5 0 0 0 0 0 0l-0.2 0.3 0 0 -0.1 0.4c3.6 1.4 5.9 3.5 6.4 5.9 0.9 5-5.6 10.5-5.7 10.6 -0.2 0.1-4 3.2-6.3 18.3 -2.1 13.5-8.1 20.8-17.9 21.5 -0.5 0-0.9 0-1.4 0 -7.3 0-18.7-3.4-22.6-7.9 -0.7-0.8-1.1-1.6-1.2-2.4 1.7 0.8 5.6 2.2 9.8 2.2h0c5.8 0 12.9-2.4 14.2-13.8 0.5-3.5 2.8-7.3 5.1-10.3 -0.5 0.2-0.9 0.4-1.4 0.5 -2.1 2.9-4 6.4-4.5 9.7 -1.3 10.8-8 13.1-13.5 13.1h0c-4.4 0-8.4-1.5-9.8-2.3 0.2-1.8 1.9-2.9 3.3-3.5 3.2-1.5 4.5-5.3 4.6-8 1-6 4.1-9.1 6.8-10.7 -0.2-0.2-0.4-0.3-0.6-0.5 -2.7 1.7-6 5-7 11.1 -0.1 2.5-1.2 6-4.2 7.4 -1.5 0.7-3.5 1.9-3.7 4.1l0 0 0 0.3c0 0 0 0 0 0 0 0 0 0 0 0v0c-0.1 1.2 0.3 2.4 1.4 3.6 3.6 4.1 13.3 7.3 20.6 8C329.7 154.5 330 154.5 330.3 154.5z" class="r"/><path d="M328.9 133.2c-0.2 0.9-0.5 1.9-0.7 2.9 -0.1 0.3-0.2 0.7-0.3 1 0 0.1-0.1 0.2-0.1 0.3 -0.1 0.2-0.2 0.4-0.3 0.6 -0.1 0.1-0.1 0.2-0.2 0.3 -0.1 0.2-0.2 0.3-0.3 0.5 -0.1 0.1-0.2 0.2-0.3 0.3 -0.1 0.1-0.1 0.1-0.2 0.2 -2.9 3-8.2 3.3-10.1 3.3h0c-2.4 0-4.7-0.4-5.5-1l-0.6-0.4 0.7-0.2c4.2-1.4 5.3-5.4 6.3-9.3 0.6-2.1 1.1-4 2.1-5.6 1.8-2.3 3.7-3.5 5.3-4.3 -0.6-0.4-1.2-0.7-1.7-1.1 -2.6 1.6-5.8 4.7-6.8 10.7 -0.1 2.7-1.4 6.5-4.6 8 -1.3 0.6-3.1 1.7-3.3 3.5 1.4 0.8 5.4 2.3 9.8 2.3h0c5.4 0 12.2-2.3 13.5-13.1 0.4-3.3 2.4-6.8 4.5-9.7 -1.2 0.4-2.4 0.7-3.6 0.9C330.6 126.2 329.9 129.2 328.9 133.2z" fill="#232323"/><path d="M319.9 126.3c-0.9 1.4-1.4 3.3-1.9 5.3 -1 3.6-2 7.7-5.9 9.5 0.9 0.3 2.4 0.5 4.3 0.5h0c2.2 0 4.5-0.3 6.5-1.1 -3.9-8.5-0.5-14.8 2.7-18.4 0 0 0 0 0 0C323.9 122.7 321.9 123.9 319.9 126.3z" fill="#650202"/><path d="M323.5 140.2c0.5-0.2 0.9-0.4 1.3-0.7 1-0.7 1.9-1.6 2.3-2.8 0 0 0 0 0 0 0.1-0.2 0.2-0.5 0.3-0.8 0.3-1 0.5-2 0.7-2.9 0.9-3.9 1.7-6.8 3.3-9.8 -0.1 0-0.2 0-0.2 0 -1.9 0.1-3.5-0.2-4.9-0.7C323.2 125.8 319.7 132 323.5 140.2z" fill="#F76666"/><path d="M328.2 136.1c-0.1 0.3-0.2 0.7-0.3 1C328 136.7 328.1 136.4 328.2 136.1z" class="s"/><path d="M326.6 139c-0.1 0.1-0.1 0.1-0.2 0.2C326.5 139.1 326.5 139.1 326.6 139z" class="s"/><path d="M327.2 138.2c-0.1 0.2-0.2 0.3-0.3 0.5C327 138.5 327.1 138.4 327.2 138.2z" class="s"/><path d="M327.7 137.3c-0.1 0.2-0.2 0.4-0.3 0.6C327.5 137.7 327.6 137.5 327.7 137.3z" class="s"/><path d="M322.8 140.5c0.7-0.3 1.4-0.6 2-1.1 -0.4 0.3-0.8 0.5-1.3 0.7 -3.8-8.2-0.3-14.4 2.8-17.8 -0.3-0.1-0.5-0.2-0.8-0.3C322.4 125.7 318.9 132.1 322.8 140.5z" class="s"/><path d="M331.4 123.1L331.4 123.1c-1.6 3-2.3 6-3.3 9.8C329.1 129.1 329.8 126.2 331.4 123.1z" class="s"/><path d="M327.1 136.7c0 0 0 0 0 0C327.1 136.7 327.1 136.7 327.1 136.7z" class="s"/><path d="M319.3 125.9c-1 1.6-1.5 3.5-2.1 5.6 -1 3.9-2.1 7.8-6.3 9.3l-0.7 0.2 0.6 0.4c0.8 0.6 3 1 5.5 1h0c1.9 0 7.2-0.3 10.1-3.3 0.1-0.1 0.1-0.1 0.2-0.2 0.1-0.1 0.2-0.2 0.3-0.3 0.1-0.1 0.2-0.3 0.3-0.5 0.1-0.1 0.1-0.2 0.2-0.3 0.1-0.2 0.2-0.4 0.3-0.6 0-0.1 0.1-0.2 0.1-0.3 0.1-0.3 0.2-0.6 0.3-1 0.3-1 0.5-2 0.7-2.9 1-4 1.7-7 3.5-10.1 -0.3 0-0.6 0.1-0.9 0.1 -1.6 3-2.3 6-3.3 9.8 -0.2 0.9-0.5 1.9-0.7 2.9 -0.1 0.3-0.2 0.5-0.3 0.8 0 0 0 0 0 0 -0.5 1.2-1.3 2.1-2.3 2.8 -0.6 0.4-1.3 0.8-2 1.1 -2 0.8-4.3 1.1-6.5 1.1h0c-1.8 0-3.4-0.2-4.3-0.5 3.9-1.8 5-5.8 5.9-9.5 0.5-2 1-3.9 1.9-5.3 2-2.4 3.9-3.6 5.5-4.3 -0.3-0.1-0.6-0.3-0.9-0.5C323 122.3 321.1 123.6 319.3 125.9z" class="r"/><path d="M356.9 97.5c-8.8-5.2-10.9-13.6-13.2-22.5 -0.4-1.5-0.8-3-1.2-4.6 -1.5-5.2-5.7-9.6-11.2-11.8 -7-2.7-19.3-3.5-38.6 8.5 -10.4 7-17 21.3-16.4 35.5 0.5 12.3 6.3 22.5 16 28 0.4-1.3 0.3-3.6 0.1-6.2 -0.3-6.6-0.8-15.6 6.1-17.5 9.4-1.5 16 4.6 22.3 10.6 0.6 0.6 1.3 1.2 1.9 1.8 1.6 1.5 4.3 3.2 8.4 3 6.3-0.3 13.7-5 21.9-13.9 -1.2-1.2-2.9-1.5-3-1.5 0 0 1.9-0.4 3.4 0.8 1.1 1 0.8 3 0.8 3 -0.1-0.7-0.3-1.2-0.7-1.7 -5.8 6.3-11.3 10.5-16.2 12.6 -2.2 2.9-4.6 6.8-5.1 10.3 -1.3 11.4-8.5 13.8-14.2 13.8h0c-4.2 0-8.1-1.3-9.8-2.2 0.1 0.8 0.5 1.6 1.2 2.4 3.9 4.4 15.3 7.9 22.6 7.9 0.5 0 1 0 1.4 0 9.8-0.7 15.8-7.9 17.9-21.5 2.3-15.1 6.2-18.1 6.3-18.3 0.1 0 6.5-5.6 5.7-10.6 -0.4-2.4-2.7-4.5-6.3-5.9l0.1-0.4 0 0L356.9 97.5zM321.2 71.6c-0.8-1-1.1-1.9-0.9-2.8 0.2-1.1 0.7-1.7 1.4-1.7 1 0 2 1.5 2.1 1.9 1.5 2.6 4.5 5 4.5 5l0.6 0.5 -0.8 0.2c-0.3 0.1-0.6 0.1-1 0.1l0 0C325.3 74.7 322.6 73.3 321.2 71.6z" fill="#2D2D2D"/><path d="M322.9 120.5c0.5 0.4 1.1 0.8 1.7 1.1 0.3 0.2 0.6 0.3 0.9 0.5 0 0 0 0 0 0 0.2 0.1 0.5 0.2 0.8 0.3 1.4 0.5 3 0.8 4.9 0.7 0.1 0 0.2 0 0.2 0l0 0c0.3 0 0.6 0 0.9-0.1 1.2-0.1 2.4-0.4 3.6-0.9 0.5-0.2 0.9-0.3 1.4-0.5 5-2.1 10.4-6.3 16.2-12.6 -0.2-0.2-0.3-0.4-0.5-0.6 -8.2 8.9-15.6 13.6-21.9 13.9 -4 0.2-6.8-1.5-8.4-3 -0.6-0.6-1.3-1.2-1.9-1.8 -6.4-6-12.9-12.1-22.3-10.6 -6.9 2-6.4 11-6.1 17.5 0.1 2.6 0.2 4.9-0.1 6.2 -9.7-5.5-15.5-15.7-16-28 -0.6-14.2 6-28.5 16.4-35.5 19.3-11.9 31.6-11.2 38.6-8.5 5.6 2.2 9.7 6.6 11.2 11.8 0.4 1.5 0.8 3.1 1.2 4.6 2.3 8.9 4.5 17.4 13.2 22.5l0.2-0.3 0.2-0.3c0 0 0 0 0 0 -0.2-0.1-0.4-0.3-0.6-0.4 0 0 0 0 0 0 -7.9-5-10-13.1-12.2-21.6 -0.4-1.5-0.8-3-1.2-4.6 -0.5-1.9-1.4-3.7-2.5-5.3 -0.2-0.3-0.4-0.5-0.6-0.7 -2.1-2.7-5.1-4.9-8.6-6.3 -0.3-0.1-0.5-0.2-0.8-0.3 -0.2-0.1-0.5-0.2-0.7-0.2 -7.4-2.3-19.5-2.2-37.7 9.1 -10.7 7.1-17.4 21.7-16.8 36.2 0.5 12.7 6.7 23.3 16.8 28.9l0.4 0.2 0.2-0.4c0.6-1.3 0.5-3.8 0.3-6.9 -0.3-6.3-0.7-14.9 5.5-16.7 9-1.5 15.4 4.6 21.6 10.4 0.6 0.6 1.3 1.2 1.9 1.8 0 0 0 0 0.1 0C322.5 120.1 322.7 120.3 322.9 120.5z" class="r"/><path d="M353.4 107.7c-1.4-1.3-3.3-0.8-3.3-0.8 0 0 1.7 0.3 3 1.5 0.2 0.2 0.3 0.4 0.5 0.6 0.3 0.5 0.6 1 0.7 1.7C354.2 110.8 354.5 108.7 353.4 107.7z" class="r"/><path d="M327.2 73.9c-1-0.9-2.9-2.6-4-4.6 -0.4-0.7-1.1-1.5-1.5-1.5 -0.2 0-0.5 0.4-0.6 1.1 -0.2 0.8 0.3 1.7 0.7 2.2C323.1 72.6 325.4 73.8 327.2 73.9z" fill="#590000"/><path d="M327.3 74.7c0.3 0 0.7 0 1-0.1l0.8-0.2 -0.6-0.5c0 0-3-2.3-4.5-5 -0.2-0.3-1.1-1.9-2.1-1.9 -0.7 0-1.1 0.6-1.4 1.7 -0.2 0.9 0.1 1.9 0.9 2.8C322.6 73.3 325.3 74.7 327.3 74.7L327.3 74.7zM321.1 68.9c0.1-0.7 0.4-1.1 0.6-1.1 0.4 0 1.1 0.8 1.5 1.5 1.1 2 3 3.7 4 4.6 -1.8-0.1-4.1-1.3-5.3-2.8C321.4 70.6 320.9 69.8 321.1 68.9z" class="r"/><path d="M338.8 378.7h0c2.9 0 4.4-1.2 4.7-3.5 0.2-2-0.8-5.5-2.7-7.6 -0.6-0.7-1.6-1.5-2.7-1.5 -0.4 0-0.8 0.1-1.2 0.3 -4 2.1-8 6.1-7.7 9.2C331.1 377 335.3 378.7 338.8 378.7z" class="k"/><path d="M341.6 379c1.5-0.6 2.5-1.9 2.7-3.7 0.3-2.4-1.1-6.1-2.9-8.2 -1.5-1.7-3.3-2.2-4.9-1.3 -0.9 0.5-1.8 1.1-2.7 1.7 -0.4 0.3-0.8 0.6-1.2 0.9 0 0 0-0.1 0-0.2 0-2.2-0.4-5.5-2.3-7.7 -1.2-1.4-2.9-2.1-4.9-2.1h-0.1l-0.1 0c-0.3 0.1-0.6 0.3-1 0.5 -0.4 0.2-0.8 0.5-1.1 0.8 -2.8 2.4-5.8 7.2-5.1 9.7l0 0.1c0.9 1.4 5.4 2.2 9 2.2l0 0c0.7 0 1.6 0 2.5-0.2 -1 1.4-1.5 2.9-1.3 4.3l0 0.2 0.1 0.1c2 1.3 6.5 3.2 10.3 3.2h0c0.3 0 0.5 0 0.8 0C340.3 379.4 341 379.2 341.6 379zM336.8 366.5c0.4-0.2 0.8-0.3 1.2-0.3 1.1 0 2.1 0.8 2.7 1.5 1.9 2.1 3 5.6 2.7 7.6 -0.3 2.3-1.9 3.5-4.7 3.5h0c-3.5 0-7.7-1.7-9.7-3C328.8 372.5 332.8 368.6 336.8 366.5zM327.1 371c-3.7 0-7.6-0.8-8.3-1.8 -0.6-2.7 4.1-9.1 6.7-9.9 1.8 0 3.2 0.6 4.3 1.8 2 2.2 2.2 6 2.1 8 -0.6 0.5-1.1 1.1-1.5 1.7C329.4 370.9 328.4 371 327.1 371L327.1 371z" class="l"/><path d="M446.9 251.3c0.2 3.9-0.5 5.3-1.2 6.8 -0.3 0.5-0.5 1.1-0.7 1.7 1.4 3.9 0.6 8.1-0.7 11 0.9 2.2 1.5 4.4 1.9 5.9C448.6 265.3 448.3 257.1 446.9 251.3z" class="b"/><path d="M440.4 285.5c2.9 5.5 3.5 12.2 3.6 15.3 2.6-5.8 3.3-14.3 1.7-22.2 0 0 0 0 0 0l0 0c-0.2-0.9-0.8-3.7-1.9-6.8 -0.7 1.3-1.5 2.3-2.2 2.7C441.8 277.2 441.4 281.6 440.4 285.5z" class="b"/><path d="M439.1 331.9c5.3-7.1 4.9-24.4 4.1-29.2l-0.1-0.3 0-0.1c0-1.2 0-9.2-3.1-15.8 -0.9 2.7-2.2 5.1-4 6.1 0 0.5 0 1.1 0 1.7 0 0 0 0.1 0 0.1h0c-0.1 3.6-0.7 9.3-2.2 13.3C438.4 313.2 439.1 326.7 439.1 331.9z" class="b"/><path d="M432.6 343.4c0.8 0.3 1.7-0.1 2.5-1 1.9-1.9 3.2-5.7 3.2-9.1 0-3.1-0.2-18.8-4.8-24.8 -0.5 1.2-1.2 2.2-1.9 2.9 0 0.1 0 0.1 0.1 0.2 0 0 0 0 0 0.1l0 0c1.6 5.5 3.6 15.2 1.2 18.4 -0.6 0.8-1.4 1.2-2.4 1.2 -2 0-4.6-1.6-8.1-4.7C426.5 335.2 430.9 342.9 432.6 343.4z" class="b"/><path d="M446.9 251.3c1.4 5.8 1.7 14-0.9 25.4 -0.4-1.5-1-3.6-1.9-5.9 -0.2 0.3-0.3 0.6-0.5 0.9 1.2 3.1 1.8 5.9 1.9 6.8l0 0c0 0 0 0 0 0 1.5 7.9 0.8 16.4-1.7 22.2 -0.1-3.1-0.7-9.8-3.6-15.3 -0.1 0.2-0.1 0.5-0.2 0.7 0 0.1-0.1 0.3-0.1 0.4 3.1 6.5 3.1 14.6 3.1 15.8l0 0.1 0.1 0.3c0.9 4.8 1.2 22.1-4.1 29.2 -0.1-5.2-0.7-18.7-5.2-24.1 -0.1 0.3-0.2 0.6-0.3 0.8 4.6 6 4.8 21.7 4.8 24.8 0 3.4-1.4 7.2-3.2 9.1 -0.9 0.9-1.7 1.2-2.5 1 -1.6-0.5-6.1-8.2-10.2-16.8 -0.1-0.1-0.1-0.1-0.2-0.2l-1.3-1.2c1 2.1 2.1 4.4 3.3 6.6 0.2 0.4 0.4 0.8 0.6 1.1 3 5.6 6 10.7 7.7 11.2 0.3 0.1 0.5 0.1 0.8 0.1 0.9 0 1.7-0.4 2.6-1.3 1.9-1.9 3.3-5.6 3.4-9.1h0c0-0.1 0-0.3 0-0.6 0-0.1 0-0.1 0-0.2l0 0c2.2-2.5 3.6-6.6 4.4-11.1 0-0.3 0.1-0.5 0.1-0.8 1.2-7.4 0.9-15.6 0.3-18.7 3.1-5.8 4.1-15.2 2.5-23.8l0 0c0 0 0-0.1 0-0.2 0 0 0 0 0 0 3.6-14.9 2.5-24.7 0.1-30.9C446.8 249.1 446.9 250.3 446.9 251.3z" class="c"/><path d="M405.7 179.1c0.4 0 0.8 0 1.2 0C406.5 179.1 406.1 179.1 405.7 179.1z" class="d"/><path d="M407.5 179.1c0.4 0 0.7 0.1 1.1 0.1C408.2 179.2 407.9 179.2 407.5 179.1z" class="d"/><path d="M409.2 179.3c0.4 0.1 0.8 0.1 1.2 0.2C410 179.4 409.6 179.4 409.2 179.3z" class="d"/><path d="M410.2 314.1c3.1 3 6.4 6.2 10 9.5l2.5 2.3c4.1 3.8 7 5.3 8.7 4.5 0.3-0.1 0.6-0.4 0.8-0.7 1.6-2.1 1-7.6 0-12.4 -0.5-2.2-1-4.2-1.5-5.8l-0.1-0.3 0 0c-0.6-1.8-2.4-6.8-6.1-10.5 0 0 3.3 0.7 6.7 10 2.8-2.7 3.9-11.4 4-16.3 -0.1-1.2-0.8-8.9-7.4-21.6 0 0 6 7.6 7.9 19.2 1.6-1 2.7-3.1 3.5-5.6 1.3-4 1.7-8.9 1.4-11.9 -0.2-1-1.8-9.2-4.9-11.1 0 0 3.7-0.2 5.6 10.3 0.1-0.1 0.2-0.2 0.3-0.3 1.9-1.9 4.4-7.8 2.5-13.2l-0.1 0c0-0.1-1.6-9.2-4.9-11.2 0 0 3.5-0.2 5.4 9.6 0.1-0.3 0.2-0.5 0.4-0.8 1.5-3 2.9-5.8-4.6-35.4 -0.7-2.8-1.5-5.8-2.3-9.1 -0.7-2.9-1.6-5.5-2.5-7.9 0.1 3.6-1 6.9-3.6 9.6 0.8 2.8 1.5 9.6-1.6 14.4 -1.5 2.3-3.7 3.8-6.4 4.5 0 0-0.1 0-0.1 0 -0.2 0.1-0.5 0.1-0.7 0.2 -0.2 0-0.4 0.1-0.6 0.1 -0.1 0-0.2 0-0.3 0.1 1 14-5.7 18-11.6 18.8 0 0.6 0.1 1.1 0.1 1.6 0 0 0 0 0 0.1h0c0.2 6.7-0.6 11.1-2.5 13.1 -0.5 0.5-1 0.8-1.6 1 -0.2 0.1-0.4 0.1-0.6 0.2 0 0 0 0-0.1 0 -0.5 0.1-1.1 0-1.8-0.2 -0.1 0-0.3-0.1-0.4-0.1 -0.1 0-0.2-0.1-0.3-0.1 -0.9-0.3-1.8-0.8-2.8-1.5 0.7 4.5-0.2 12.5-4 17.4 -1.8 2.3-3.9 3.7-6.5 4.2 -0.1 0-0.3 0.1-0.5 0.1 -0.2 0-0.4 0.1-0.6 0.1 -0.2 0-0.4 0-0.7 0C393.7 296.4 400.7 304.6 410.2 314.1z" class="d"/><path d="M402.4 179.1c0.4 0 0.8-0.1 1.2-0.1C403.2 179.1 402.8 179.1 402.4 179.1z" class="d"/><path d="M405.2 179c-0.1 0-0.2 0-0.3 0 -0.3 0-0.6 0-0.9 0C404.4 179 404.8 179 405.2 179z" class="d"/><path d="M437.2 207.7c-0.7-2-1.4-3.8-2.1-5.6l0 0C435.9 203.9 436.6 205.7 437.2 207.7z" class="e"/><path d="M367.8 204.3c0.1-0.3 0.2-0.5 0.4-0.8 0 0 0 0 0 0C368.1 203.8 368 204.1 367.8 204.3 367.8 204.3 367.8 204.3 367.8 204.3z" class="e"/><path d="M368.7 202.5c0.2-0.4 0.4-0.7 0.6-1.1 0 0 0 0 0 0 -0.2 0.4-0.4 0.7-0.6 1.1C368.7 202.5 368.7 202.5 368.7 202.5z" class="e"/><path d="M369.5 200.9c0 0 0 0 0 0 2.2-4.1 5.1-7.9 8.7-11.1 0 0 0 0 0 0C374.6 193 371.7 196.7 369.5 200.9z" class="e"/><path d="M388.3 182.5L388.3 182.5c0 0 0 0 0 0C388.3 182.5 388.3 182.5 388.3 182.5z" class="e"/><path d="M390.8 181.2c1.7-0.8 3.4-1.6 5.3-2.3C394.2 179.6 392.4 180.4 390.8 181.2z" class="e"/><path d="M367.1 206.2L367.1 206.2c0 0 0 0.1 0 0.1C367.1 206.2 367.1 206.2 367.1 206.2z" class="e"/><path d="M404 177.7c6.3 0 16 2 24.1 12.3 0 0 0 0 0 0 -8-10.1-17.4-12.2-23.7-12.3C404.3 177.7 404.1 177.7 404 177.7z" class="e"/><path d="M441.5 274.5c0.3 2.9-0.1 7.7-1.3 11.7 0.1-0.2 0.1-0.4 0.2-0.7C441.4 281.6 441.8 277.2 441.5 274.5z" class="e"/><path d="M432.9 330.2c-0.6 0.8-1.4 1.2-2.4 1.2C431.5 331.4 432.3 331 432.9 330.2z" class="e"/><path d="M438.1 213.4c0.9 3.3 1.6 6.3 2.3 9.1C439.7 219.7 439 216.7 438.1 213.4z" class="e"/><path d="M435.8 292L435.8 292c1.6-1 2.7-3.1 3.5-5.6C438.5 288.9 437.3 291 435.8 292z" class="e"/><polygon points="430.8 311.5 430.7 311.2 430.7 311.2 430.7 311.2 430.7 311.2 " class="e"/><path d="M441.7 273.3c1.9-1.9 4.4-7.8 2.5-13.2l0 0C446.1 265.5 443.5 271.5 441.7 273.3z" class="e"/><path d="M422.7 325.9c4.1 3.8 7 5.3 8.7 4.5C429.7 331.2 426.8 329.6 422.7 325.9z" class="e"/><path d="M431.3 310.7C431.3 310.7 431.3 310.7 431.3 310.7c2.8-2.7 3.9-11.3 4-16.3 0 0 0 0 0 0C435.2 299.4 434.1 308 431.3 310.7z" class="e"/><path d="M396 178.8c-1.8 0.7-3.6 1.5-5.3 2.3 -0.8 0.4-1.7 0.8-2.5 1.3 0 0 0 0 0 0 4.5-2.3 10.2-4.2 16.7-4.2 2 0 4 0.2 6 0.5 5.1 1 11.9 5.5 17.1 11.2 -8.2-10.3-17.8-12.3-24.1-12.3 -0.1 0-0.2 0-0.3 0 -0.5 0-0.9 0-1.4 0C398.6 178 396.2 178.8 396 178.8z" class="f"/><path d="M435.6 205.5c0.9 2.4 1.7 5 2.5 7.9 0.9 3.3 1.6 6.3 2.3 9.1 7.4 29.5 6 32.4 4.6 35.4 -0.1 0.2-0.2 0.5-0.4 0.8 -1.9-9.8-5.4-9.6-5.4-9.6 3.3 2 4.9 11.1 4.9 11.2l0.1 0 0 0c1.9 5.3-0.7 11.3-2.5 13.2 -0.1 0.1-0.2 0.2-0.3 0.3 -1.9-10.5-5.6-10.3-5.6-10.3 3.1 1.9 4.7 10.1 4.9 11.1 0.3 3-0.1 8-1.4 11.9 -0.8 2.5-2 4.7-3.5 5.6l0 0c-1.8-11.6-7.9-19.2-7.9-19.2 6.6 12.7 7.3 20.4 7.4 21.6 0 0 0 0 0 0 -0.1 5-1.2 13.6-4 16.3 0 0 0 0 0 0 -3.4-9.3-6.7-10-6.7-10 3.7 3.7 5.5 8.6 6.1 10.5l0 0 0 0 0.1 0.3c0.5 1.5 1 3.6 1.5 5.8 1 4.8 1.6 10.3 0 12.4 -0.2 0.3-0.5 0.5-0.8 0.7 -1.7 0.8-4.7-0.8-8.7-4.5l-2.5-2.3c-3.6-3.3-6.9-6.5-10-9.5 -9.5-9.4-16.5-17.6-21.8-25 -0.2 0-0.3 0-0.5 0 0 0 0 0 0 0h-0.1l-0.1-0.1c-0.6-0.5-1.1-1.1-1.7-1.8 10.2 15.3 22.1 26.3 33.8 37l1.2 1.1 1.3 1.2c0.1 0.1 0.1 0.1 0.2 0.2 3.5 3.2 6.1 4.7 8.1 4.7 1 0 1.8-0.4 2.4-1.2 2.4-3.3 0.5-12.9-1.2-18.4l0 0c0 0 0 0 0-0.1 0-0.1 0-0.1-0.1-0.2 0.8-0.6 1.4-1.7 1.9-2.9 0.1-0.3 0.2-0.5 0.3-0.8 1.5-4 2.1-9.7 2.2-13.3h0c0 0 0-0.1 0-0.1 0-0.7 0-1.2 0-1.7 1.8-1 3.1-3.4 4-6.1 0-0.1 0.1-0.3 0.1-0.4 1.2-4 1.6-8.8 1.3-11.7 0.7-0.4 1.5-1.4 2.2-2.7 0.2-0.3 0.3-0.6 0.5-0.9 1.3-2.9 2.1-7.1 0.7-11 0.2-0.7 0.5-1.2 0.7-1.7 0.7-1.5 1.4-2.9 1.2-6.8 0-1.1-0.2-2.3-0.3-3.7 -0.8-6.1-3-16.4-7.7-34.4 -0.5-1.9-1-3.8-1.6-5.5 -0.7-2-1.4-3.8-2.1-5.6C435.4 203.3 435.6 204.4 435.6 205.5z" class="f"/><path d="M367 206.3c0 0 0-0.1 0.1-0.1 0 0 0 0.1 0 0.1C367.1 206.3 367 206.3 367 206.3z" class="f"/><path d="M364.5 232.3c0 0.1 0 0.2 0 0.3C364.5 232.5 364.5 232.4 364.5 232.3z" class="f"/><path d="M369.2 201.3c-0.2 0.4-0.4 0.7-0.6 1.1C368.9 202.1 369 201.7 369.2 201.3z" class="f"/><path d="M364.2 229.7c0 0.2 0 0.3 0 0.5C364.3 230 364.3 229.8 364.2 229.7z" class="f"/><path d="M364.2 220.3c0 0 0 0 0 0.1C364.2 220.4 364.2 220.3 364.2 220.3z" class="f"/><path d="M364.1 227.4c0 0.2 0 0.4 0 0.6C364.1 227.8 364.1 227.6 364.1 227.4z" class="f"/><path d="M369.5 200.9c1.8-3.4 4.2-6.7 7.3-9.8 0 0 0.5-0.5 1.3-1.4C374.6 193 371.7 196.7 369.5 200.9z" class="f"/><path d="M364 225.4c0-0.2 0-0.3 0-0.5C364 225.1 364 225.2 364 225.4z" class="f"/><path d="M368.2 203.5c-0.1 0.3-0.2 0.5-0.4 0.8C368 204.1 368.1 203.8 368.2 203.5z" class="f"/><path d="M364.4 217.9c0 0 0 0.1 0 0.1C364.4 218 364.4 218 364.4 217.9z" class="f"/><path d="M364.1 222.7c0 0.1 0 0.2 0 0.3C364.1 222.9 364.1 222.8 364.1 222.7z" class="f"/><path d="M370.1 255.6c0 0.1 0.1 0.2 0.1 0.3C370.2 255.8 370.2 255.7 370.1 255.6z" class="f"/><path d="M409.9 254.8c-0.2-3.9-1.4-13.8-4.9-14.4 0 0 4-1.9 5.5 12.1 7.5-1 11.2-6.5 11-16.2l0 0c0-0.1-0.7-10-5.7-12 0 0 4.7 0 6.2 9.4 3.5-0.4 6.1-1.9 7.8-4.5 2.8-4.3 2.4-10.5 1.7-13.3 -0.4-1.5-2-5.7-7.1-8.8 0 0 4.9 0.8 7.4 7.4 3.2-3.6 4-8.1 2.3-13.2 -3.3-10.1-15.3-20.1-23.2-21.6 -0.1 0-0.3 0-0.4-0.1 -0.4-0.1-0.8-0.1-1.2-0.2 -0.2 0-0.4 0-0.6-0.1 -0.4 0-0.7-0.1-1.1-0.1 -0.2 0-0.4 0-0.6 0 -0.4 0-0.8 0-1.2 0 -0.2 0-0.3 0-0.5 0 -0.4 0-0.8 0-1.2 0 -0.2 0-0.3 0-0.5 0 -0.4 0-0.8 0-1.2 0.1 -15.1 1.2-24.9 12.4-25 12.5 -16.9 16.7-12.5 40.3-10.8 49.2 2.1 11 13.2 39.9 21.4 47.5 3.2-0.1 5.9-1.5 7.9-4.1 3.8-4.9 4.5-13 3.8-16.9 -0.2-1-2.3-10.3-4.7-12.5 0 0 2.6-0.2 5.2 11.4 3.3 2.5 5.7 3 7.3 1.3C409.4 265.6 410.1 261.3 409.9 254.8z" class="g"/><path d="M406 269.2c0.2 0 0.4-0.1 0.6-0.2C406.4 269.1 406.2 269.1 406 269.2z" class="g"/><path d="M405.9 269.2c-0.6 0.1-1.2 0-1.8-0.2C404.8 269.2 405.4 269.2 405.9 269.2z" class="g"/><path d="M422.5 234.3c0.2 0 0.4-0.1 0.6-0.1C422.9 234.3 422.7 234.3 422.5 234.3z" class="g"/><path d="M423.8 234.1c0 0 0.1 0 0.1 0C423.9 234.1 423.9 234.1 423.8 234.1z" class="g"/><path d="M403.4 268.8c0.1 0 0.2 0.1 0.3 0.1C403.6 268.8 403.5 268.8 403.4 268.8z" class="g"/><path d="M389.6 288.9c0.2 0 0.3 0 0.5-0.1C389.9 288.9 389.8 288.9 389.6 288.9z" class="g"/><path d="M388.4 289.1c0.2 0 0.5 0 0.7 0 -0.4 0-0.8 0.1-1.2 0.1h0c0 0 0 0 0 0C388.1 289.1 388.2 289.1 388.4 289.1z" class="g"/><path d="M411 178.8c-2-0.4-4-0.5-6-0.5 -6.5 0-12.2 1.9-16.7 4.2l0 0c-4.8 2.5-8.3 5.5-10.1 7.2 0 0 0 0 0 0 -0.8 0.8-1.3 1.3-1.3 1.4 -3.1 3.1-5.5 6.4-7.3 9.8 0 0 0 0 0 0 -0.1 0.2-0.2 0.3-0.3 0.5 0 0 0 0 0 0 -0.2 0.4-0.4 0.7-0.6 1.1 0 0 0 0 0 0 -0.2 0.4-0.3 0.7-0.5 1.1 0 0 0 0 0 0 -0.1 0.3-0.2 0.5-0.4 0.8 0 0 0 0 0 0 -0.3 0.6-0.5 1.2-0.7 1.8l0 0c0 0 0 0.1-0.1 0.1 -1.4 3.9-2.3 7.8-2.7 11.6 0 0 0 0.1 0 0.1 -0.1 0.8-0.1 1.5-0.2 2.3 0 0 0 0 0 0.1 0 0.8-0.1 1.5-0.1 2.3 0 0.1 0 0.2 0 0.3 0 0.6 0 1.3 0 1.9 0 0.2 0 0.3 0 0.5 0 0.7 0 1.4 0.1 2 0 0.2 0 0.4 0 0.6 0 0.6 0.1 1.1 0.1 1.7 0 0.2 0 0.3 0 0.5 0.1 0.7 0.1 1.4 0.2 2.1 0 0.1 0 0.2 0 0.3 0.4 3.4 0.9 6.3 1.3 8.3 0.7 3.6 2.2 8.9 4.3 14.7 0 0.1 0.1 0.2 0.1 0.3 4.1 11.5 10.3 24.9 15.7 31.3 0.6 0.7 1.2 1.3 1.7 1.8l0.1 0.1h0.1 0c0.4 0 0.8 0 1.2-0.1 0.2 0 0.4-0.1 0.6-0.1 0.2 0 0.3 0 0.5-0.1 2.6-0.5 4.8-1.9 6.5-4.2 3.8-4.9 4.7-12.9 4-17.4 1 0.7 1.9 1.2 2.8 1.5 0.1 0 0.2 0.1 0.3 0.1 0.1 0 0.3 0.1 0.4 0.1 0.6 0.2 1.2 0.2 1.8 0.2 0 0 0 0 0.1 0 0.2 0 0.4-0.1 0.6-0.2 0.6-0.2 1.2-0.5 1.6-1 1.9-2 2.7-6.4 2.5-13.1h0c0 0 0 0 0-0.1 0-0.5 0-1.1-0.1-1.6 5.9-0.8 12.5-4.8 11.6-18.8 0.1 0 0.2 0 0.3-0.1 0.2 0 0.4-0.1 0.6-0.1 0.2 0 0.5-0.1 0.7-0.2 0 0 0.1 0 0.1 0 2.8-0.7 4.9-2.2 6.4-4.5 3.1-4.8 2.5-11.6 1.6-14.4 2.5-2.7 3.7-6 3.6-9.6 0-1.1-0.2-2.2-0.5-3.4l0 0c-0.1-0.4-0.2-0.8-0.3-1.2 -1.2-3.8-3.7-7.6-6.7-10.9 0 0 0 0 0 0C422.9 184.3 416.1 179.8 411 178.8zM400.3 266.1c-2.7-11.5-5.2-11.4-5.2-11.4 2.4 2.3 4.5 11.5 4.7 12.5 0.6 4 0 12-3.8 16.9 -2 2.7-4.7 4-7.9 4.1 -8.2-7.7-19.4-36.5-21.4-47.5 -1.7-8.9-6.1-32.5 10.8-49.2 0.1-0.1 9.9-11.3 25-12.5 0.4 0 0.8-0.1 1.2-0.1 0.2 0 0.3 0 0.5 0 0.3 0 0.6 0 0.9 0 0.1 0 0.2 0 0.3 0 0.2 0 0.3 0 0.5 0 0.4 0 0.8 0 1.2 0 0.2 0 0.4 0 0.6 0 0.4 0 0.7 0.1 1.1 0.1 0.2 0 0.4 0 0.6 0.1 0.4 0.1 0.8 0.1 1.2 0.2 0.1 0 0.3 0 0.4 0.1 7.8 1.5 19.9 11.5 23.2 21.6 1.6 5.1 0.9 9.5-2.3 13.2 -2.5-6.5-7.4-7.4-7.4-7.4 5.1 3.1 6.7 7.2 7.1 8.8 0.7 2.8 1.1 9-1.7 13.3 -1.7 2.6-4.3 4.1-7.8 4.5 -1.5-9.3-6.2-9.4-6.2-9.4 5 2 5.7 11.9 5.7 12l0 0c0.2 9.7-3.5 15.1-11 16.2 -1.4-14-5.5-12.1-5.5-12.1 3.5 0.7 4.7 10.5 4.9 14.4 0.2 6.6-0.5 10.8-2.2 12.7C406.1 269.1 403.6 268.6 400.3 266.1z" class="h"/><path d="M371.4 79.3c1.3 1 1.6 2.9 0.5 4.3 -1 1.3-2.9 1.6-4.2 0.5 -1.3-1-1.5-2.9-0.5-4.2C368.1 78.5 370 78.3 371.4 79.3z" class="p"/><path d="M370.7 86.2c0.6 0.4 0.7 1.2 0.2 1.8 -0.4 0.6-1.2 0.7-1.8 0.2 -0.6-0.4-0.7-1.2-0.2-1.8C369.4 85.8 370.2 85.7 370.7 86.2z" class="p"/></svg>