<svg version="1.1" id="Layer_1" xmlns="http://www.w3.org/2000/svg" xmlns:xlink="http://www.w3.org/1999/xlink" viewBox="0 0 768 430" enable-background="new 0 0 768 430" xml:space="preserve">
<g>
	<path fill="#D4AAFF" d="M148.277,193.143l-12.82-77.834l65.725,19.32l-52.901,58.517l0,0L148.277,193.143z"/>
</g>
<g transform="rotate(.74818 279.74 356.39)">
	<path fill="#FFAAD4" d="M235.909,215.229l-22.229-75.688l67.589,11.15l-45.36,64.54L235.909,215.229z"/>
</g>
<g>
	<path fill="#AA56FF" d="M328.918,225.1l-30.237-72.857l68.396,3.818l-38.161,69.041L328.918,225.1z"/>
</g>
<g>
	<path fill="#FF56AA" d="M425.028,223.389L385.871,155.4l68.333-4.777l-29.177,72.77L425.028,223.389z"/>
</g>
<g>
	<path fill="#D4AAFF" d="M517.961,211.146l-47.756-62.786l67.124-13.683L517.961,211.146L517.961,211.146z"/>
</g>
<g transform="rotate(-.40082 917.67 302.67)">
	<path fill="#FFAAD4" d="M606.842,185.574l-54.385-57.138l65.205-21L606.842,185.574L606.842,185.574z"/>
</g>
<path fill="none" stroke="#000000" stroke-width="0.6292" d="M123.875,111.383c168.271,60.77,333.673,61.628,508.625-9.298"/>
<path fill="#D4AAFF" d="M411.785,69.395c65.064,3.101,27.896,101.43-4.76,99.873C374.369,167.711,346.719,66.294,411.785,69.395z"/>
<path fill="#63594B" d="M384.158,291.107c-3.812-14.783-8.132-31.537-12.391-54.121"/>
<path fill="#FFAAD4" d="M345.642,148.766c55.374-15.786,52.022,77.074,24.229,84.997
	C342.08,241.686,290.269,164.551,345.642,148.766z"/>
<path fill="#D4AAFF" d="M314.919,316.804l-0.346,0.161c-21.683,10.085-46.711,10.085-68.393,0l-0.345-0.161l34.542-100.584"/>
<path fill="none" d="M314.919,316.804l-0.346,0.161c-21.683,10.085-46.711,10.085-68.393,0l-0.345-0.161l34.542-100.584"/>
<path opacity="0.5" fill="#D15E5E" d="M280.376,216.22l19.535,105.921c5-1.241,9.911-2.967,14.662-5.176l0.346-0.161"/>
<path fill="#FF56AA" d="M264.875,212.587c0,0,0.241-0.093,0.664-0.254c0.21-0.08,0.467-0.179,0.761-0.291
	c0.295-0.111,0.602-0.241,1.068-0.371c0.432-0.127,0.901-0.264,1.396-0.407c0.49-0.141,1.021-0.188,1.553-0.283
	c0.523-0.11,1.109-0.103,1.68-0.122c0.564-0.047,1.166,0.062,1.739,0.121c0.287,0.017,0.574,0.108,0.856,0.18
	c0.281,0.08,0.561,0.138,0.828,0.235c0.528,0.231,1.048,0.415,1.493,0.721c0.467,0.254,0.855,0.587,1.222,0.885
	c0.18,0.153,0.333,0.328,0.49,0.481c0.159,0.152,0.299,0.311,0.421,0.474c0.262,0.308,0.467,0.613,0.642,0.884
	c0.17,0.275,0.305,0.52,0.406,0.724c0.205,0.41,0.283,0.657,0.283,0.657s-0.146-0.215-0.452-0.541
	c-0.151-0.163-0.345-0.354-0.573-0.557c-0.234-0.201-0.498-0.419-0.81-0.622c-0.147-0.11-0.31-0.211-0.488-0.302
	c-0.176-0.092-0.345-0.2-0.535-0.284c-0.386-0.156-0.774-0.333-1.208-0.421c-0.412-0.14-0.873-0.149-1.307-0.21
	c-0.222-0.014-0.453,0.012-0.674,0.014c-0.224,0.011-0.441-0.001-0.667,0.057c-0.447,0.096-0.876,0.126-1.301,0.301
	c-0.422,0.147-0.827,0.248-1.212,0.466c-0.379,0.198-0.763,0.34-1.079,0.551c-0.312,0.202-0.608,0.394-0.88,0.569
	c-0.252,0.144-0.547,0.382-0.797,0.572c-0.25,0.191-0.468,0.358-0.647,0.496c-0.359,0.274-0.564,0.433-0.564,0.433L264.875,212.587z
	"/>
<path fill="#CADEDF" d="M269.432,203.565c0,0,0.246,0.084,0.676,0.229c0.215,0.072,0.476,0.16,0.776,0.263
	c0.268,0.075,0.728,0.286,1.146,0.463c0.423,0.197,0.916,0.37,1.334,0.649c0.433,0.271,0.904,0.51,1.342,0.845
	c0.43,0.349,0.899,0.654,1.303,1.061c0.404,0.404,0.834,0.778,1.18,1.237l0.534,0.656c0.155,0.231,0.31,0.464,0.463,0.693
	c0.319,0.444,0.544,0.938,0.792,1.384c0.211,0.469,0.422,0.912,0.574,1.351c0.158,0.437,0.295,0.847,0.392,1.235
	c0.213,0.77,0.316,1.42,0.372,1.875c0.059,0.454,0.061,0.714,0.061,0.714s-0.076-0.248-0.258-0.661
	c-0.178-0.412-0.456-0.992-0.858-1.636c-0.191-0.327-0.426-0.663-0.681-1.008c-0.249-0.348-0.552-0.686-0.85-1.031
	c-0.333-0.321-0.636-0.679-1.015-0.969c-0.18-0.149-0.361-0.302-0.543-0.453l-0.587-0.397c-0.373-0.282-0.81-0.471-1.202-0.688
	c-0.392-0.22-0.834-0.338-1.217-0.504c-0.393-0.151-0.81-0.217-1.174-0.323c-0.372-0.121-0.708-0.11-1.012-0.161
	c-0.15-0.02-0.294-0.038-0.432-0.057c-0.071-0.009-0.125-0.021-0.204-0.026c-0.084-0.002-0.166-0.006-0.245-0.009
	c-0.316-0.012-0.592-0.022-0.819-0.031c-0.454-0.018-0.713-0.026-0.713-0.026L269.432,203.565z"/>
<path fill="#FF56AA" d="M286.625,208.882c0,0-0.506,0.391-1.265,0.979c-0.211,0.154-0.346,0.288-0.516,0.441
	c-0.172,0.154-0.354,0.317-0.542,0.486c-0.097,0.088-0.195,0.178-0.295,0.269c-0.095,0.106-0.191,0.215-0.289,0.324
	c-0.197,0.222-0.397,0.447-0.597,0.673c-0.211,0.224-0.377,0.477-0.565,0.714c-0.183,0.244-0.363,0.484-0.537,0.718
	c-0.314,0.483-0.642,0.936-0.871,1.346c-0.246,0.404-0.442,0.75-0.569,0.997c-0.134,0.246-0.201,0.392-0.201,0.392
	s-0.006-0.16,0.003-0.441c0.002-0.281,0.021-0.685,0.058-1.17c0.021-0.491,0.111-1.048,0.178-1.668
	c0.053-0.305,0.109-0.62,0.165-0.94c0.064-0.32,0.105-0.658,0.2-0.979c0.086-0.327,0.171-0.655,0.255-0.978
	c0.044-0.164,0.087-0.326,0.13-0.486c0.06-0.163,0.119-0.325,0.178-0.483c0.125-0.324,0.245-0.638,0.36-0.935
	c0.118-0.298,0.238-0.604,0.339-0.799c0.412-0.868,0.688-1.447,0.688-1.447L286.625,208.882z"/>
<g>
	<g>
		<path fill="#FFAAD4" d="M455.541,271.277L455.541,271.277c-13.357-0.061-27.479-5.689-31.478-12.545
			c-2.193-3.761-1.246-7.548,2.672-10.669c2.952-2.351,6.279-3.537,9.883-3.52c13.445,0.061,24.1,17.852,25.271,19.88l0.304,0.528
			l-0.026,5.984l-3.349,0.235C457.755,271.248,456.651,271.282,455.541,271.277z M429.254,249.489
			c-5.757,4.846,14.557,15.915,25.29,16.245C452.21,257.421,434.445,245.12,429.254,249.489z"/>
	</g>
	<g>
		<path fill="#FFAAD4" d="M465.512,271.203l-3.346-0.267l0.026-5.984l0.309-0.525c1.189-2.018,12.007-19.71,25.453-19.647
			c3.604,0.016,6.918,1.231,9.851,3.609c3.888,3.157,4.801,6.954,2.575,10.692c-4.062,6.82-18.235,12.318-31.595,12.258l0,0
			C467.675,271.332,466.573,271.287,465.512,271.203z M469.836,265.805c10.734-0.232,31.147-11.114,25.436-16.013
			C490.123,245.376,472.244,257.513,469.836,265.805z"/>
	</g>
</g>
<rect x="418.198" y="279.72" transform="matrix(1 0.0046 -0.0046 1 1.4319 -2.1192)" fill="#FF56AA" width="87.574" height="61.758"/>
<rect x="492.179" y="279.89" transform="matrix(1 0.0046 -0.0046 1 1.4343 -2.2912)" opacity="0.5" fill="#D15E5E" width="13.592" height="61.757"/>
<ellipse transform="matrix(0.0052 -1 1 0.0052 224.9224 778.1966)" fill="#FFFFFF" cx="503.573" cy="276.055" rx="1.23" ry="1.658"/>
<ellipse transform="matrix(0.0044 -1 1 0.0044 212.7874 790.7802)" fill="#FFFFFF" cx="503.514" cy="288.531" rx="1.23" ry="1.655"/>
<ellipse transform="matrix(0.0044 -1 1 0.0044 200.2563 803.1466)" fill="#FFFFFF" cx="503.458" cy="301.007" rx="1.231" ry="1.658"/>
<ellipse transform="matrix(0.0052 -1 1 0.0052 187.3252 815.2583)" fill="#FFFFFF" cx="503.401" cy="313.482" rx="1.23" ry="1.657"/>
<ellipse transform="matrix(0.0044 -1 1 0.0044 175.1899 827.8716)" fill="#FFFFFF" cx="503.342" cy="325.958" rx="1.23" ry="1.655"/>
<ellipse fill="#FFFFFF" cx="503.286" cy="338.434" rx="1.657" ry="1.23"/>
<ellipse transform="matrix(0.0052 -1 1 0.0052 208.2836 761.3193)" fill="#FFFFFF" cx="486.771" cy="275.979" rx="1.23" ry="1.656"/>
<ellipse fill="#FFFFFF" cx="495.2" cy="269.78" rx="1.657" ry="1.23"/>
<ellipse fill="#FFFFFF" cx="486.713" cy="288.455" rx="1.656" ry="1.23"/>
<ellipse transform="matrix(0.0052 -1 1 0.0052 210.3352 775.9342)" fill="#FFFFFF" cx="495.142" cy="282.255" rx="1.23" ry="1.657"/>
<ellipse transform="matrix(0.0044 -1 1 0.0044 183.6043 786.2682)" fill="#FFFFFF" cx="486.657" cy="300.93" rx="1.23" ry="1.658"/>
<ellipse transform="matrix(0.0048 -1 1 0.0048 197.9998 788.4072)" fill="#FFFFFF" cx="495.086" cy="294.731" rx="1.23" ry="1.657"/>
<ellipse transform="matrix(0.0048 -1 1 0.0048 170.8793 798.5068)" fill="#FFFFFF" cx="486.6" cy="313.406" rx="1.23" ry="1.657"/>
<ellipse fill="#FFFFFF" cx="495.028" cy="307.206" rx="1.655" ry="1.23"/>
<ellipse transform="matrix(0.0044 -1 1 0.0044 158.5386 810.9951)" fill="#FFFFFF" cx="486.542" cy="325.881" rx="1.23" ry="1.655"/>
<ellipse transform="matrix(0.0044 -1 1 0.0044 173.129 813.2515)" fill="#FFFFFF" cx="494.971" cy="319.682" rx="1.229" ry="1.658"/>
<ellipse transform="matrix(0.0044 -1 1 0.0044 146.0064 823.3585)" fill="#FFFFFF" cx="486.485" cy="338.356" rx="1.23" ry="1.658"/>
<ellipse transform="matrix(0.0044 -1 1 0.0044 160.5988 825.6151)" fill="#FFFFFF" cx="494.914" cy="332.157" rx="1.23" ry="1.656"/>
<ellipse transform="matrix(0.0048 -1 1 0.0048 191.8331 744.551)" fill="#FFFFFF" cx="469.97" cy="275.901" rx="1.23" ry="1.657"/>
<ellipse fill="#FFFFFF" cx="478.398" cy="269.703" rx="1.657" ry="1.229"/>
<ellipse fill="#FFFFFF" cx="469.912" cy="288.378" rx="1.655" ry="1.23"/>
<ellipse transform="matrix(0.0048 -1 1 0.0048 193.8881 759.1684)" fill="#FFFFFF" cx="478.341" cy="282.177" rx="1.23" ry="1.657"/>
<ellipse fill="#FFFFFF" cx="469.856" cy="300.853" rx="1.657" ry="1.229"/>
<ellipse transform="matrix(0.0052 -1 1 0.0052 181.1674 771.4105)" fill="#FFFFFF" cx="478.285" cy="294.653" rx="1.23" ry="1.657"/>
<ellipse transform="matrix(0.0052 -1 1 0.0052 154.0475 781.5024)" fill="#FFFFFF" cx="469.798" cy="313.329" rx="1.229" ry="1.657"/>
<ellipse transform="matrix(0.0044 -1 1 0.0044 169.011 784.0088)" fill="#FFFFFF" cx="478.226" cy="307.129" rx="1.23" ry="1.655"/>
<ellipse transform="matrix(0.0044 -1 1 0.0044 141.8871 794.1157)" fill="#FFFFFF" cx="469.74" cy="325.804" rx="1.23" ry="1.655"/>
<ellipse transform="matrix(0.0044 -1 1 0.0044 156.4804 796.3752)" fill="#FFFFFF" cx="478.17" cy="319.605" rx="1.23" ry="1.658"/>
<ellipse transform="matrix(0.0044 -1 1 0.0044 129.3565 806.4822)" fill="#FFFFFF" cx="469.684" cy="338.28" rx="1.23" ry="1.657"/>
<ellipse transform="matrix(0.0048 -1 1 0.0048 143.7589 808.6064)" fill="#FFFFFF" cx="478.113" cy="332.081" rx="1.23" ry="1.657"/>
<ellipse transform="matrix(0.0052 -1 1 0.0052 175.0087 727.5637)" fill="#FFFFFF" cx="453.168" cy="275.825" rx="1.23" ry="1.656"/>
<ellipse transform="matrix(0.0044 -1 1 0.0044 189.9595 730.0419)" fill="#FFFFFF" cx="461.598" cy="269.625" rx="1.23" ry="1.658"/>
<ellipse transform="matrix(0.0044 -1 1 0.0044 162.8356 740.1488)" fill="#FFFFFF" cx="453.112" cy="288.3" rx="1.23" ry="1.657"/>
<ellipse transform="matrix(0.0044 -1 1 0.0044 177.4267 742.4053)" fill="#FFFFFF" cx="461.541" cy="282.101" rx="1.23" ry="1.657"/>
<ellipse transform="matrix(0.0044 -1 1 0.0044 150.3031 752.5133)" fill="#FFFFFF" cx="453.054" cy="300.776" rx="1.23" ry="1.657"/>
<ellipse transform="matrix(0.0048 -1 1 0.0048 164.7117 754.6516)" fill="#FFFFFF" cx="461.483" cy="294.577" rx="1.23" ry="1.657"/>
<ellipse transform="matrix(0.0048 -1 1 0.0048 137.5912 764.7512)" fill="#FFFFFF" cx="452.997" cy="313.251" rx="1.23" ry="1.657"/>
<ellipse transform="matrix(0.0044 -1 1 0.0044 152.363 767.1323)" fill="#FFFFFF" cx="461.426" cy="307.051" rx="1.23" ry="1.656"/>
<ellipse fill="#FFFFFF" cx="452.939" cy="325.727" rx="1.655" ry="1.23"/>
<ellipse transform="matrix(0.0044 -1 1 0.0044 139.8307 779.4979)" fill="#FFFFFF" cx="461.369" cy="319.528" rx="1.231" ry="1.656"/>
<ellipse transform="matrix(0.0044 -1 1 0.0044 112.705 789.6027)" fill="#FFFFFF" cx="452.882" cy="338.202" rx="1.23" ry="1.656"/>
<ellipse transform="matrix(0.0044 -1 1 0.0044 127.2979 791.8615)" fill="#FFFFFF" cx="461.311" cy="332.003" rx="1.231" ry="1.656"/>
<ellipse transform="matrix(0.0052 -1 1 0.0052 158.3701 710.6852)" fill="#FFFFFF" cx="436.368" cy="275.748" rx="1.229" ry="1.656"/>
<ellipse transform="matrix(0.0044 -1 1 0.0044 173.3073 713.1644)" fill="#FFFFFF" cx="444.796" cy="269.549" rx="1.23" ry="1.658"/>
<ellipse transform="matrix(0.0044 -1 1 0.0044 146.1834 723.2714)" fill="#FFFFFF" cx="436.31" cy="288.224" rx="1.23" ry="1.656"/>
<ellipse transform="matrix(0.0044 -1 1 0.0044 160.7742 725.5269)" fill="#FFFFFF" cx="444.739" cy="282.024" rx="1.23" ry="1.656"/>
<ellipse fill="#FFFFFF" cx="436.253" cy="300.7" rx="1.657" ry="1.23"/>
<ellipse transform="matrix(0.0052 -1 1 0.0052 147.893 737.656)" fill="#FFFFFF" cx="444.682" cy="294.499" rx="1.23" ry="1.657"/>
<ellipse transform="matrix(0.0052 -1 1 0.0052 120.7759 747.7483)" fill="#FFFFFF" cx="436.196" cy="313.174" rx="1.23" ry="1.657"/>
<ellipse transform="matrix(0.0044 -1 1 0.0044 135.7117 750.2559)" fill="#FFFFFF" cx="444.625" cy="306.975" rx="1.23" ry="1.657"/>
<ellipse fill="#FFFFFF" cx="436.138" cy="325.649" rx="1.656" ry="1.23"/>
<ellipse transform="matrix(0.0044 -1 1 0.0044 123.1789 762.6193)" fill="#FFFFFF" cx="444.568" cy="319.451" rx="1.23" ry="1.657"/>
<ellipse transform="matrix(0.0044 -1 1 0.0044 96.055 772.7263)" fill="#FFFFFF" cx="436.082" cy="338.125" rx="1.23" ry="1.657"/>
<ellipse transform="matrix(0.0048 -1 1 0.0048 110.4707 774.8507)" fill="#FFFFFF" cx="444.511" cy="331.926" rx="1.23" ry="1.657"/>
<ellipse transform="matrix(0.0044 -1 1 0.0044 142.0669 694.0295)" fill="#FFFFFF" cx="419.567" cy="275.67" rx="1.23" ry="1.657"/>
<ellipse transform="matrix(0.0044 -1 1 0.0044 156.658 696.286)" fill="#FFFFFF" cx="427.996" cy="269.471" rx="1.23" ry="1.658"/>
<ellipse transform="matrix(0.0044 -1 1 0.0044 129.5341 706.393)" fill="#FFFFFF" cx="419.509" cy="288.146" rx="1.23" ry="1.655"/>
<ellipse transform="matrix(0.0052 -1 1 0.0052 143.7874 708.425)" fill="#FFFFFF" cx="427.939" cy="281.947" rx="1.23" ry="1.658"/>
<ellipse fill="#FFFFFF" cx="419.452" cy="300.622" rx="1.657" ry="1.23"/>
<ellipse transform="matrix(0.0052 -1 1 0.0052 131.2544 720.7775)" fill="#FFFFFF" cx="427.881" cy="294.422" rx="1.23" ry="1.656"/>
<ellipse transform="matrix(0.0052 -1 1 0.0052 104.1376 730.8708)" fill="#FFFFFF" cx="419.395" cy="313.097" rx="1.23" ry="1.656"/>
<ellipse transform="matrix(0.0044 -1 1 0.0044 119.059 733.3763)" fill="#FFFFFF" cx="427.824" cy="306.898" rx="1.229" ry="1.656"/>
<ellipse transform="matrix(0.0044 -1 1 0.0044 91.9366 743.4844)" fill="#FFFFFF" cx="419.337" cy="325.573" rx="1.23" ry="1.656"/>
<ellipse transform="matrix(0.0044 -1 1 0.0044 106.5267 745.7419)" fill="#FFFFFF" cx="427.766" cy="319.375" rx="1.23" ry="1.656"/>
<ellipse fill="#FFFFFF" cx="419.281" cy="338.048" rx="1.657" ry="1.229"/>
<ellipse transform="matrix(0.0052 -1 1 0.0052 93.6557 757.839)" fill="#FFFFFF" cx="427.709" cy="331.849" rx="1.229" ry="1.657"/>
<rect x="418.198" y="279.72" transform="matrix(1 0.0046 -0.0046 1 1.4319 -2.1192)" fill="none" width="87.574" height="61.758"/>
<rect x="416.969" y="267.436" transform="matrix(1 0.0046 -0.0046 1 1.2554 -2.1096)" fill="#FF56AA" width="90.37" height="12.283"/>
<rect x="490.002" y="267.603" transform="matrix(1 0.0045 -0.0045 1 1.2231 -2.2165)" opacity="0.5" fill="#D15E5E" width="17.336" height="12.284"/>
<rect x="452.822" y="267.436" transform="matrix(1 0.0046 -0.0046 1 1.396 -2.1079)" fill="#FFAAD4" width="18.38" height="74.042"/>
<g>
	<g>
		<path fill="#FFAAD4" d="M559.84,270.613L559.84,270.613c-13.357-0.061-27.479-5.689-31.478-12.545
			c-2.193-3.761-1.246-7.548,2.672-10.669c2.952-2.351,6.279-3.537,9.883-3.52c13.445,0.061,24.1,17.852,25.271,19.88l0.304,0.528
			l-0.026,5.984l-3.349,0.235C562.054,270.584,560.95,270.618,559.84,270.613z M533.553,248.825
			c-5.757,4.846,14.557,15.915,25.29,16.245C556.509,256.757,538.744,244.456,533.553,248.825z"/>
	</g>
	<g>
		<path fill="#FFAAD4" d="M569.811,270.539l-3.346-0.267l0.026-5.984l0.309-0.525c1.189-2.018,12.007-19.71,25.453-19.647
			c3.604,0.016,6.918,1.231,9.851,3.609c3.888,3.157,4.801,6.954,2.575,10.692c-4.062,6.82-18.235,12.318-31.595,12.258l0,0
			C571.974,270.668,570.872,270.623,569.811,270.539z M574.135,265.141c10.734-0.232,31.147-11.114,25.436-16.013
			C594.422,244.712,576.543,256.849,574.135,265.141z"/>
	</g>
</g>
<rect x="522.497" y="279.056" transform="matrix(1 0.0046 -0.0046 1 1.4299 -2.5984)" fill="#FF56AA" width="87.574" height="61.758"/>
<rect x="596.477" y="279.226" transform="matrix(1 0.0046 -0.0046 1 1.4323 -2.7708)" opacity="0.5" fill="#D15E5E" width="13.592" height="61.757"/>
<ellipse transform="matrix(0.0052 -1 1 0.0052 329.3471 881.8334)" fill="#FFFFFF" cx="607.872" cy="275.391" rx="1.23" ry="1.658"/>
<ellipse transform="matrix(0.0044 -1 1 0.0044 317.2948 894.4168)" fill="#FFFFFF" cx="607.813" cy="287.867" rx="1.23" ry="1.655"/>
<ellipse transform="matrix(0.0044 -1 1 0.0044 304.7641 906.7833)" fill="#FFFFFF" cx="607.756" cy="300.343" rx="1.231" ry="1.658"/>
<ellipse transform="matrix(0.0052 -1 1 0.0052 291.7498 918.8951)" fill="#FFFFFF" cx="607.7" cy="312.818" rx="1.23" ry="1.657"/>
<ellipse transform="matrix(0.0044 -1 1 0.0044 279.6973 931.5083)" fill="#FFFFFF" cx="607.641" cy="325.293" rx="1.23" ry="1.655"/>
<ellipse fill="#FFFFFF" cx="607.584" cy="337.77" rx="1.657" ry="1.23"/>
<ellipse transform="matrix(0.0052 -1 1 0.0052 312.7082 864.9561)" fill="#FFFFFF" cx="591.07" cy="275.315" rx="1.23" ry="1.656"/>
<ellipse fill="#FFFFFF" cx="599.499" cy="269.116" rx="1.657" ry="1.23"/>
<ellipse fill="#FFFFFF" cx="591.012" cy="287.791" rx="1.656" ry="1.23"/>
<ellipse transform="matrix(0.0052 -1 1 0.0052 314.7598 879.571)" fill="#FFFFFF" cx="599.441" cy="281.591" rx="1.23" ry="1.657"/>
<ellipse transform="matrix(0.0044 -1 1 0.0044 288.1117 889.9048)" fill="#FFFFFF" cx="590.956" cy="300.266" rx="1.23" ry="1.658"/>
<ellipse transform="matrix(0.0048 -1 1 0.0048 302.4659 892.044)" fill="#FFFFFF" cx="599.385" cy="294.067" rx="1.23" ry="1.657"/>
<ellipse transform="matrix(0.0048 -1 1 0.0048 275.3454 902.1436)" fill="#FFFFFF" cx="590.898" cy="312.742" rx="1.23" ry="1.657"/>
<ellipse fill="#FFFFFF" cx="599.327" cy="306.542" rx="1.655" ry="1.23"/>
<ellipse transform="matrix(0.0044 -1 1 0.0044 263.0461 914.6318)" fill="#FFFFFF" cx="590.84" cy="325.217" rx="1.23" ry="1.655"/>
<ellipse transform="matrix(0.0044 -1 1 0.0044 277.636 916.8881)" fill="#FFFFFF" cx="599.27" cy="319.018" rx="1.229" ry="1.658"/>
<ellipse transform="matrix(0.0044 -1 1 0.0044 250.5137 926.9952)" fill="#FFFFFF" cx="590.784" cy="337.692" rx="1.23" ry="1.658"/>
<ellipse transform="matrix(0.0044 -1 1 0.0044 265.1063 929.2518)" fill="#FFFFFF" cx="599.212" cy="331.493" rx="1.23" ry="1.656"/>
<ellipse transform="matrix(0.0048 -1 1 0.0048 296.2992 848.1877)" fill="#FFFFFF" cx="574.269" cy="275.237" rx="1.23" ry="1.657"/>
<ellipse fill="#FFFFFF" cx="582.697" cy="269.039" rx="1.657" ry="1.229"/>
<ellipse fill="#FFFFFF" cx="574.211" cy="287.714" rx="1.655" ry="1.23"/>
<ellipse transform="matrix(0.0048 -1 1 0.0048 298.3541 862.8052)" fill="#FFFFFF" cx="582.64" cy="281.513" rx="1.23" ry="1.657"/>
<ellipse fill="#FFFFFF" cx="574.155" cy="300.189" rx="1.657" ry="1.229"/>
<ellipse transform="matrix(0.0052 -1 1 0.0052 285.5921 875.0473)" fill="#FFFFFF" cx="582.583" cy="293.989" rx="1.23" ry="1.657"/>
<ellipse transform="matrix(0.0052 -1 1 0.0052 258.4717 885.1392)" fill="#FFFFFF" cx="574.097" cy="312.665" rx="1.229" ry="1.657"/>
<ellipse transform="matrix(0.0044 -1 1 0.0044 273.5182 887.6454)" fill="#FFFFFF" cx="582.525" cy="306.465" rx="1.23" ry="1.655"/>
<ellipse transform="matrix(0.0044 -1 1 0.0044 246.3943 897.7524)" fill="#FFFFFF" cx="574.039" cy="325.14" rx="1.23" ry="1.655"/>
<ellipse transform="matrix(0.0044 -1 1 0.0044 260.9878 900.0118)" fill="#FFFFFF" cx="582.469" cy="318.941" rx="1.23" ry="1.658"/>
<ellipse transform="matrix(0.0044 -1 1 0.0044 233.864 910.1188)" fill="#FFFFFF" cx="573.983" cy="337.616" rx="1.23" ry="1.657"/>
<ellipse transform="matrix(0.0048 -1 1 0.0048 248.2249 912.2432)" fill="#FFFFFF" cx="582.412" cy="331.417" rx="1.23" ry="1.657"/>
<ellipse transform="matrix(0.0052 -1 1 0.0052 279.4333 831.2005)" fill="#FFFFFF" cx="557.467" cy="275.161" rx="1.23" ry="1.656"/>
<ellipse transform="matrix(0.0044 -1 1 0.0044 294.4669 833.6785)" fill="#FFFFFF" cx="565.897" cy="268.961" rx="1.23" ry="1.658"/>
<ellipse transform="matrix(0.0044 -1 1 0.0044 267.343 843.7855)" fill="#FFFFFF" cx="557.411" cy="287.636" rx="1.23" ry="1.657"/>
<ellipse transform="matrix(0.0044 -1 1 0.0044 281.9341 846.042)" fill="#FFFFFF" cx="565.839" cy="281.437" rx="1.23" ry="1.657"/>
<ellipse transform="matrix(0.0044 -1 1 0.0044 254.8107 856.15)" fill="#FFFFFF" cx="557.353" cy="300.112" rx="1.23" ry="1.657"/>
<ellipse transform="matrix(0.0048 -1 1 0.0048 269.1777 858.2883)" fill="#FFFFFF" cx="565.782" cy="293.913" rx="1.23" ry="1.657"/>
<ellipse transform="matrix(0.0048 -1 1 0.0048 242.0572 868.3879)" fill="#FFFFFF" cx="557.296" cy="312.587" rx="1.23" ry="1.657"/>
<ellipse transform="matrix(0.0044 -1 1 0.0044 256.8704 870.769)" fill="#FFFFFF" cx="565.725" cy="306.387" rx="1.23" ry="1.656"/>
<ellipse fill="#FFFFFF" cx="557.238" cy="325.063" rx="1.655" ry="1.23"/>
<ellipse transform="matrix(0.0044 -1 1 0.0044 244.3386 883.1346)" fill="#FFFFFF" cx="565.667" cy="318.864" rx="1.231" ry="1.656"/>
<ellipse transform="matrix(0.0044 -1 1 0.0044 217.2122 893.2394)" fill="#FFFFFF" cx="557.181" cy="337.538" rx="1.23" ry="1.656"/>
<ellipse transform="matrix(0.0044 -1 1 0.0044 231.8057 895.4981)" fill="#FFFFFF" cx="565.61" cy="331.339" rx="1.231" ry="1.656"/>
<ellipse transform="matrix(0.0052 -1 1 0.0052 262.7943 814.322)" fill="#FFFFFF" cx="540.667" cy="275.083" rx="1.229" ry="1.656"/>
<ellipse transform="matrix(0.0044 -1 1 0.0044 277.8147 816.801)" fill="#FFFFFF" cx="549.095" cy="268.885" rx="1.23" ry="1.658"/>
<ellipse transform="matrix(0.0044 -1 1 0.0044 250.6908 826.9081)" fill="#FFFFFF" cx="540.609" cy="287.56" rx="1.23" ry="1.656"/>
<ellipse transform="matrix(0.0044 -1 1 0.0044 265.2815 829.1636)" fill="#FFFFFF" cx="549.038" cy="281.36" rx="1.23" ry="1.656"/>
<ellipse fill="#FFFFFF" cx="540.552" cy="300.036" rx="1.657" ry="1.23"/>
<ellipse transform="matrix(0.0052 -1 1 0.0052 252.3179 841.2928)" fill="#FFFFFF" cx="548.981" cy="293.835" rx="1.23" ry="1.657"/>
<ellipse transform="matrix(0.0052 -1 1 0.0052 225.2007 851.3851)" fill="#FFFFFF" cx="540.495" cy="312.51" rx="1.23" ry="1.657"/>
<ellipse transform="matrix(0.0044 -1 1 0.0044 240.2191 853.8925)" fill="#FFFFFF" cx="548.924" cy="306.311" rx="1.23" ry="1.657"/>
<ellipse fill="#FFFFFF" cx="540.437" cy="324.985" rx="1.656" ry="1.23"/>
<ellipse transform="matrix(0.0044 -1 1 0.0044 227.6863 866.256)" fill="#FFFFFF" cx="548.867" cy="318.787" rx="1.23" ry="1.657"/>
<ellipse transform="matrix(0.0044 -1 1 0.0044 200.5624 876.363)" fill="#FFFFFF" cx="540.38" cy="337.461" rx="1.23" ry="1.657"/>
<ellipse transform="matrix(0.0048 -1 1 0.0048 214.9367 878.4875)" fill="#FFFFFF" cx="548.81" cy="331.262" rx="1.23" ry="1.657"/>
<ellipse transform="matrix(0.0044 -1 1 0.0044 246.5744 797.6661)" fill="#FFFFFF" cx="523.866" cy="275.006" rx="1.23" ry="1.657"/>
<ellipse transform="matrix(0.0044 -1 1 0.0044 261.1654 799.9227)" fill="#FFFFFF" cx="532.294" cy="268.807" rx="1.23" ry="1.658"/>
<ellipse transform="matrix(0.0044 -1 1 0.0044 234.0415 810.0297)" fill="#FFFFFF" cx="523.808" cy="287.482" rx="1.23" ry="1.655"/>
<ellipse transform="matrix(0.0052 -1 1 0.0052 248.2121 812.0618)" fill="#FFFFFF" cx="532.238" cy="281.283" rx="1.23" ry="1.658"/>
<ellipse fill="#FFFFFF" cx="523.751" cy="299.958" rx="1.657" ry="1.23"/>
<ellipse transform="matrix(0.0052 -1 1 0.0052 235.6788 824.4143)" fill="#FFFFFF" cx="532.18" cy="293.758" rx="1.23" ry="1.656"/>
<ellipse transform="matrix(0.0052 -1 1 0.0052 208.5623 834.5076)" fill="#FFFFFF" cx="523.694" cy="312.433" rx="1.23" ry="1.656"/>
<ellipse transform="matrix(0.0044 -1 1 0.0044 223.5661 837.0131)" fill="#FFFFFF" cx="532.123" cy="306.234" rx="1.229" ry="1.656"/>
<ellipse transform="matrix(0.0044 -1 1 0.0044 196.444 847.1211)" fill="#FFFFFF" cx="523.636" cy="324.909" rx="1.23" ry="1.656"/>
<ellipse transform="matrix(0.0044 -1 1 0.0044 211.0341 849.3786)" fill="#FFFFFF" cx="532.065" cy="318.71" rx="1.23" ry="1.656"/>
<ellipse fill="#FFFFFF" cx="523.58" cy="337.384" rx="1.657" ry="1.229"/>
<ellipse transform="matrix(0.0052 -1 1 0.0052 198.08 861.4758)" fill="#FFFFFF" cx="532.008" cy="331.185" rx="1.229" ry="1.657"/>
<rect x="522.497" y="279.056" transform="matrix(1 0.0046 -0.0046 1 1.4299 -2.5984)" fill="none" width="87.574" height="61.758"/>
<rect x="521.268" y="266.772" transform="matrix(1 0.0046 -0.0046 1 1.2534 -2.5865)" fill="#FF56AA" width="90.37" height="12.283"/>
<rect x="594.301" y="266.939" transform="matrix(1 0.0045 -0.0045 1 1.2213 -2.6806)" opacity="0.5" fill="#D15E5E" width="17.336" height="12.284"/>
<rect x="557.12" y="266.772" transform="matrix(1 0.0046 -0.0046 1 1.394 -2.5845)" fill="#FFAAD4" width="18.38" height="74.042"/>
</svg>
