<svg version="1.1" xmlns="http://www.w3.org/2000/svg" xmlns:xlink="http://www.w3.org/1999/xlink" viewBox="0 0 768 430" style="enable-background:new 0 0 768 430;" xml:space="preserve"><g id="pen"> <g>  <polygon style="fill:#DDE4D0;" points="324.234,278.487 337.148,287.003 362.2,257.2 341.214,243.365   "/>  <path style="fill:#DDE4D0;" d="M315.133,306.474l15.921-17.295l-7.534-4.966C321.736,289.614,315.133,306.474,315.133,306.474z"/>  <path style="fill:#DDE4D0;" d="M469.887,80.766c-1.217-4.576-4.25-5.597-7.976-5.257l-17.125,25.975l7.976,5.257L469.887,80.766z" />   <rect x="316.453" y="163.512" transform="matrix(0.5504 -0.8349 0.8349 0.5504 32.9286 413.3104)" style="fill:#DDE4D0;" width="167.563" height="25.135"/>   <rect x="445.147" y="113.541" transform="matrix(-0.8348 -0.5506 0.5506 -0.8348 740.9631 513.7399)" style="fill:#DDE4D0;" width="4.826" height="64.32"/>  <polygon style="fill:#DDE4D0;" points="426.452,162.033 427.558,170.461 434.595,159.852   "/>   <rect x="454.918" y="115.344" transform="matrix(-0.5503 0.835 -0.835 -0.5503 808.7703 -199.5981)" style="fill:#DDE4D0;" width="6.433" height="5.296"/> </g></g><g id="Layer_1"></g></svg>