<svg version="1.1" xmlns="http://www.w3.org/2000/svg" xmlns:xlink="http://www.w3.org/1999/xlink" viewBox="0 0 768 430" style="enable-background:new 0 0 768 430;" xml:space="preserve"><g id="phone"> <path style="fill:#DDE4D0;stroke:#DDE4D0;stroke-width:1.2606;" d="M311.17,83.417c-9.631,7.692-36.323,48.868,18.916,138.324  c58.224,94.263,110.678,88.591,120.991,81.748l-39.224-61.76c-8.626,5.479-16.31-2.815-30.592-20.928  c-9.424-12.044-19.887-27.615-28.238-44.462c-5.802-11.833-10.645-23.934-1.612-29.671L311.17,83.417z"/> <path style="fill:#DDE4D0;stroke:#DDE4D0;stroke-width:1.2606;" d="M479.62,285.536c4.012-2.549,4.792-7.602,2.471-11.26  l0.018-0.074c0,0-30.603-48.083-30.636-48.134c-2.416-3.803-7.423-4.835-11.177-2.45l-17.505,11.115l39.325,61.919  c0,0,17.485-11.035,17.455-11.084L479.62,285.536L479.62,285.536z"/> <path style="fill:#DDE4D0;stroke:#DDE4D0;stroke-width:1.2606;" d="M379.925,128.559c4.014-2.549,4.792-7.602,2.472-11.255  l0.047-0.03c0,0-31.501-49.498-31.533-49.547c-2.413-3.8-7.423-4.835-11.177-2.451L322.23,76.392l40.191,63.284l17.484-11.037  L379.925,128.559z"/></g><g id="Layer_1"></g></svg>