<svg version="1.1" id="Layer_1" xmlns="http://www.w3.org/2000/svg" xmlns:xlink="http://www.w3.org/1999/xlink" x="0px" y="0px"
	 viewBox="0 0 768 430" enable-background="new 0 0 768 430" xml:space="preserve">
<g>
	<g>
		<g>
			<path fill="#57438E" d="M651.48,278.988c0.288-1.029,0.251-2.01,0-2.93v-15.514l-32.251-6.398
				c-70.971-40.987-261.088-150.79-272.112-157.152c-13.571-7.836-27.162,0.01-27.162,0.01s-93.578,54.029-126.014,72.759
				l-15.642-3.098v15.508c-0.694,5.005,5.945,8.854,5.945,8.854s284.999,164.588,298.572,172.4
				c4.289,2.467,8.575,3.371,12.435,3.459h0.006l0,0c8.356,0.189,14.707-3.459,14.707-3.459l122.152-70.523c0,0,0,0,13.571-7.838
				C649.286,282.99,650.941,280.916,651.48,278.988L651.48,278.988L651.48,278.988z"/>
			<path fill="#381E60" d="M632.117,277.385l-122.152,70.529c0,0-13.571,7.811-27.147,0c-13.573-7.811-298.572-172.4-298.572-172.4
				s-13.561-7.816,0-15.658c13.561-7.841,135.71-78.366,135.71-78.366s13.591-7.847,27.162-0.01
				c13.571,7.831,298.54,172.416,298.54,172.416s13.603,7.82,0.031,15.65C632.117,277.385,632.117,277.385,632.117,277.385z"/>
			<polygon fill="#FFF2FF" points="591.26,238.295 347.112,97.189 211.363,175.529 455.813,316.496 			"/>
			<path fill="#FFF2FF" d="M589.533,264.014l-2.303-1.33c-3.411-1.975-7.615-1.975-11.028,0l-69.608,40.152
				c-2.832,1.635-2.832,5.725,0,7.359l0.833,0.482c3.936,2.271,8.786,2.271,12.722,0l69.385-40.02
				C592.092,269.184,592.092,265.488,589.533,264.014z"/>
			<path fill="#FFF2FF" d="M258.886,127.426c0,1.572,3.042,2.847,6.788,2.847c3.747,0,6.783-1.275,6.783-2.847
				c0-1.567-3.036-2.842-6.783-2.842C261.928,124.583,258.886,125.859,258.886,127.426z"/>
		</g>
	</g>
</g>
</svg>
