<svg version="1.1" xmlns="http://www.w3.org/2000/svg"   viewBox="0 0 768 430" enable-background="new 0 0 768 430" xml:space="preserve"><rect x="259" y="116.4" fill="#DDE4D0" width="22.8" height="112.8"/><polygon fill="#DDE4D0" points="259 116.4 259 120.2 278 120.2 278 225.4 262.8 225.4 262.8 116.4 259 116.4 259 120.2 259 116.4 255.2 116.4 255.2 233 285.6 233 285.6 112.6 255.2 112.6 255.2 116.4 "/><rect x="304.2" y="116.3" fill="#DDE4D0" width="22.8" height="112.8"/><polygon fill="#DDE4D0" points="304.2 116.3 304.2 120.1 323.2 120.1 323.2 225.3 308 225.3 308 116.3 304.2 116.3 304.2 120.1 304.2 116.3 300.4 116.3 300.4 232.9 330.8 232.9 330.8 112.5 300.4 112.5 300.4 116.3 "/><rect x="394.7" y="116.1" fill="#DDE4D0" width="22.8" height="112.8"/><polygon fill="#DDE4D0" points="394.7 116.1 394.7 119.9 413.7 119.9 413.7 225.1 398.5 225.1 398.5 116.1 394.7 116.1 394.7 119.9 394.7 116.1 390.8 116.1 390.8 232.7 421.3 232.7 421.3 112.3 390.8 112.3 390.8 116.1 "/><rect x="439.5" y="116.6" fill="#DDE4D0" width="22.8" height="112.8"/><polygon fill="#DDE4D0" points="439.5 116.6 439.5 120.4 458.6 120.4 458.6 225.5 443.3 225.5 443.3 116.6 439.5 116.6 439.5 120.4 439.5 116.6 435.7 116.6 435.7 233.1 466.2 233.1 466.2 112.8 435.7 112.8 435.7 116.6 "/><rect x="485.3" y="116.3" fill="#DDE4D0" width="22.8" height="112.8"/><polygon fill="#DDE4D0" points="485.3 116.3 485.3 120.1 504.3 120.1 504.3 225.3 489.1 225.3 489.1 116.3 485.3 116.3 485.3 120.1 485.3 116.3 481.5 116.3 481.5 232.9 512 232.9 512 112.5 481.5 112.5 481.5 116.3 "/><polygon fill="#DDE4D0" points="225 115.8 225 119.6 538 119.6 538 310.1 228.8 310.1 228.8 115.8 225 115.8 225 119.6 225 115.8 221.2 115.8 221.2 317.7 545.6 317.7 545.6 112 221.2 112 221.2 115.8 "/><polyline fill="#DDE4D0" points="266.3 224.7 266.3 313.8 273.9 313.8 273.9 224.7 "/><polyline fill="#DDE4D0" points="312 224.2 312 313.4 319.6 313.4 319.6 224.2 "/><polyline fill="#DDE4D0" points="402.3 224.8 402.3 314 409.9 314 409.9 224.8 "/><polyline fill="#DDE4D0" points="447.2 224.8 447.2 314 454.8 314 454.8 224.8 "/><polyline fill="#DDE4D0" points="493.3 224.5 493.3 313.7 500.9 313.7 500.9 224.5 "/><polyline fill="#DDE4D0" points="357.1 116 357.1 313.7 364.7 313.7 364.7 116 "/></svg>