<svg version="1.1" id="Layer_1" xmlns="http://www.w3.org/2000/svg" xmlns:xlink="http://www.w3.org/1999/xlink" x="0px" y="0px"
 viewBox="0 0 768 430" enable-background="new 0 0 768 430" xml:space="preserve">
<g>
	<path fill="#D88205" d="M546.381,310.917c0,2.723-2.188,4.916-4.917,4.916c-0.744,0-1.44-0.161-2.084-0.48
		c-1.655-0.803-2.776-2.462-2.776-4.436c0-1.98,1.121-3.636,2.776-4.437c0.644-0.319,1.34-0.482,2.084-0.482
		C544.192,305.998,546.381,308.188,546.381,310.917z"/>
	<path fill="#EF9D18" d="M542.16,310.917c0,1.974-1.125,3.633-2.78,4.436c-1.655-0.803-2.776-2.462-2.776-4.436
		c0-1.98,1.121-3.636,2.776-4.437C541.035,307.281,542.16,308.937,542.16,310.917z"/>
	<polygon points="541.478,309.58 545.142,307.129 555.012,176.388 543.491,191.539 	"/>
	<polygon fill="#231F20" points="541.478,309.58 537.348,309.58 530.671,149.713 546.823,149.713 	"/>
	<path fill="#D88205" d="M237.777,327.856c0,2.729-2.189,4.918-4.917,4.918c-0.744,0-1.44-0.162-2.084-0.481
		c-1.656-0.802-2.776-2.457-2.776-4.437c0-1.974,1.121-3.633,2.776-4.431c0.644-0.324,1.34-0.481,2.084-0.481
		C235.588,322.944,237.777,325.134,237.777,327.856z"/>
	<path fill="#EF9D18" d="M233.556,327.856c0,1.979-1.121,3.635-2.78,4.437c-1.656-0.802-2.776-2.457-2.776-4.437
		c0-1.974,1.121-3.633,2.776-4.431C232.436,324.224,233.556,325.883,233.556,327.856z"/>
	<polygon points="232.877,326.521 236.538,324.074 246.407,193.329 234.887,208.484 	"/>
	<polygon fill="#231F20" points="232.877,326.521 228.748,326.521 222.071,166.659 238.22,166.659 	"/>
	<path fill="#D88205" d="M486.113,401.083c0,2.728-2.194,4.917-4.919,4.917c-0.744,0-1.443-0.157-2.084-0.481
		c-1.654-0.802-2.774-2.457-2.774-4.436c0-1.976,1.12-3.63,2.774-4.431c0.641-0.325,1.34-0.482,2.084-0.482
		C483.919,396.17,486.113,398.359,486.113,401.083z"/>
	<path fill="#EF9D18" d="M481.892,401.083c0,1.979-1.125,3.634-2.781,4.436c-1.654-0.802-2.774-2.457-2.774-4.436
		c0-1.976,1.12-3.63,2.774-4.431C480.767,397.453,481.892,399.107,481.892,401.083z"/>
	<polygon points="481.208,399.748 484.874,397.3 494.743,266.555 483.223,281.71 	"/>
	<polygon fill="#231F20" points="481.208,399.748 477.078,399.748 470.401,239.884 486.555,239.884 	"/>
	<path fill="#231F20" d="M512.224,275.76c0,0,58.307-20.483,73.776-42.751c0-43.639,0-77.568,0-77.568l-97.001,16.118
		L512.224,275.76z"/>
	<polygon fill="#231F20" points="565.267,96.726 565.267,159.981 502.087,159.981 497.322,112.779 	"/>
	<polygon fill="#2B2B2B" points="512.232,198.274 512.232,275.76 222.071,180.908 222.071,112.779 489.305,191.542 	"/>
	<path fill="#414042" d="M582.229,163.542c-23.513,18.701-69.997,34.732-69.997,34.732l-22.928-6.731l-267.234-78.764
		c32.113-10.798,64.708-20.256,97.409-28.966c54.402-14.428,117.561-34.146,174.204-25.97c3.319,0.482,7.006,1.068,10.903,1.765
		c20.146,3.635,45.688,10.579,56.911,25.97c13.735,18.702-13.094,35.214-26.825,43.231
		C509.666,143.342,605.796,144.839,582.229,163.542z"/>
	<polygon fill="#231F20" points="222.071,166.659 176.06,177.347 469.981,270.413 512.224,256.164 	"/>
	<polygon fill="#231F20" points="512.224,256.164 469.981,270.413 469.981,290.9 512.224,275.76 	"/>
	<polygon fill="#2B2B2B" points="176.06,177.347 469.981,270.413 469.981,290.9 176.06,196.938 	"/>
	<polygon fill="#FFFFFF" points="190.947,182.059 222.071,174.562 482.57,256.164 456.272,266.073 	"/>
	<polygon fill="#D1D3D4" points="190.947,182.059 190.947,188.593 455.852,273.753 456.272,266.073 	"/>
	<g>
		<polygon fill="#231F20" points="217.897,183.937 215.179,183.114 235.5,172.706 238.22,173.529 		"/>
		<polygon fill="#231F20" points="222.316,185.272 219.602,184.449 239.918,174.041 242.633,174.865 		"/>
		<polygon fill="#231F20" points="233.188,188.561 230.469,187.743 250.791,177.329 253.511,178.153 		"/>
		<polygon fill="#231F20" points="237.606,189.9 234.887,189.078 255.209,178.668 257.924,179.488 		"/>
		<polygon fill="#231F20" points="242.025,191.236 239.306,190.413 259.623,180.005 262.346,180.828 		"/>
		<polygon fill="#231F20" points="252.219,194.318 249.5,193.496 269.817,183.087 272.54,183.912 		"/>
		<polygon fill="#231F20" points="256.637,195.655 253.918,194.836 274.239,184.427 276.953,185.247 		"/>
		<polygon fill="#231F20" points="267.508,198.947 264.791,198.124 285.106,187.716 287.831,188.54 		"/>
		<polygon fill="#231F20" points="271.927,200.282 269.208,199.46 289.53,189.051 292.244,189.875 		"/>
		<polygon fill="#231F20" points="276.341,201.619 273.626,200.8 293.943,190.387 296.662,191.21 		"/>
		<polygon fill="#231F20" points="286.534,204.706 283.82,203.882 304.137,193.474 306.856,194.297 		"/>
		<polygon fill="#231F20" points="290.958,206.041 288.233,205.218 308.555,194.809 311.274,195.632 		"/>
		<polygon fill="#231F20" points="301.825,209.334 299.11,208.51 319.428,198.098 322.147,198.921 		"/>
		<polygon fill="#231F20" points="306.247,210.67 303.524,209.846 323.846,199.438 326.565,200.261 		"/>
		<polygon fill="#231F20" points="310.662,212.004 307.946,211.182 328.264,200.772 330.984,201.596 		"/>
		<polygon fill="#231F20" points="320.854,215.088 318.14,214.264 338.458,203.856 341.173,204.678 		"/>
		<polygon fill="#231F20" points="325.272,216.428 322.553,215.604 342.872,205.196 345.595,206.015 		"/>
		<polygon fill="#231F20" points="336.145,219.717 333.431,218.893 353.748,208.484 356.467,209.307 		"/>
		<polygon fill="#231F20" points="340.563,221.051 337.844,220.229 358.166,209.82 360.886,210.643 		"/>
		<polygon fill="#231F20" points="344.982,222.392 342.262,221.568 362.584,211.154 365.299,211.979 		"/>
		<polygon fill="#231F20" points="355.176,225.474 352.456,224.65 372.778,214.243 375.493,215.065 		"/>
		<polygon fill="#231F20" points="359.594,226.81 356.875,225.986 377.191,215.578 379.915,216.4 		"/>
		<polygon fill="#231F20" points="370.467,230.103 367.747,229.279 388.068,218.871 390.783,219.689 		"/>
		<polygon fill="#231F20" points="374.885,231.438 372.165,230.614 392.482,220.207 395.206,221.029 		"/>
		<polygon fill="#231F20" points="379.302,232.773 376.584,231.95 396.904,221.542 399.619,222.364 		"/>
		<polygon fill="#231F20" points="389.496,235.855 386.776,235.037 407.099,224.624 409.812,225.447 		"/>
		<polygon fill="#231F20" points="393.91,237.195 391.194,236.372 411.512,225.964 414.231,226.787 		"/>
		<polygon fill="#231F20" points="404.786,240.483 402.067,239.661 422.39,229.253 425.104,230.076 		"/>
		<polygon fill="#231F20" points="409.2,241.819 406.485,241.001 426.803,230.588 429.522,231.411 		"/>
		<polygon fill="#231F20" points="413.623,243.159 410.898,242.336 431.221,231.928 433.94,232.746 		"/>
		<polygon fill="#231F20" points="423.815,246.241 421.093,245.419 441.415,235.01 444.134,235.835 		"/>
		<polygon fill="#231F20" points="428.23,247.577 425.515,246.754 445.833,236.346 448.548,237.17 		"/>
		<polygon fill="#231F20" points="439.106,250.87 436.384,250.048 456.706,239.639 459.424,240.459 		"/>
		<polygon fill="#231F20" points="443.52,252.205 440.806,251.383 461.123,240.974 463.839,241.799 		"/>
		<polygon fill="#231F20" points="447.938,253.541 445.219,252.718 465.537,242.31 468.261,243.133 		"/>
		<polygon fill="#231F20" points="458.132,256.629 455.413,255.805 475.731,245.396 478.454,246.216 		"/>
		<polygon fill="#231F20" points="462.551,257.964 459.831,257.142 480.153,246.731 482.868,247.557 		"/>
	</g>
</g>
</svg>
