<svg version="1.1" id="Layer_1" xmlns="http://www.w3.org/2000/svg" xmlns:xlink="http://www.w3.org/1999/xlink" viewBox="0 0 768 430" xml:space="preserve">
<rect x="259" y="84.4" fill="#DDE4D0" width="22.8" height="112.8"/>
<polygon fill="#DDE4D0" points="259,84.4 259,88.2 278,88.2 278,193.4 262.8,193.4 262.8,84.4 259,84.4 259,88.2 259,84.4 
	255.2,84.4 255.2,201 285.6,201 285.6,80.6 255.2,80.6 255.2,84.4 "/>
<rect x="304.2" y="84.3" fill="#DDE4D0" width="22.8" height="112.8"/>
<polygon fill="#DDE4D0" points="304.2,84.3 304.2,88.1 323.2,88.1 323.2,193.3 308,193.3 308,84.3 304.2,84.3 304.2,88.1 
	304.2,84.3 300.4,84.3 300.4,200.9 330.8,200.9 330.8,80.5 300.4,80.5 300.4,84.3 "/>
<rect x="394.7" y="84.1" fill="#DDE4D0" width="22.8" height="112.8"/>
<polygon fill="#DDE4D0" points="394.7,84.1 394.7,87.9 413.7,87.9 413.7,193.1 398.5,193.1 398.5,84.1 394.7,84.1 394.7,87.9 
	394.7,84.1 390.8,84.1 390.8,200.7 421.3,200.7 421.3,80.3 390.8,80.3 390.8,84.1 "/>
<rect x="439.5" y="84.6" fill="#DDE4D0" width="22.8" height="112.8"/>
<polygon fill="#DDE4D0" points="439.5,84.6 439.5,88.4 458.6,88.4 458.6,193.5 443.3,193.5 443.3,84.6 439.5,84.6 439.5,88.4 
	439.5,84.6 435.7,84.6 435.7,201.1 466.2,201.1 466.2,80.8 435.7,80.8 435.7,84.6 "/>
<rect x="485.3" y="84.3" fill="#DDE4D0" width="22.8" height="112.8"/>
<polygon fill="#DDE4D0" points="485.3,84.3 485.3,88.1 504.3,88.1 504.3,193.3 489.1,193.3 489.1,84.3 485.3,84.3 485.3,88.1 
	485.3,84.3 481.5,84.3 481.5,200.9 512,200.9 512,80.5 481.5,80.5 481.5,84.3 "/>
<polygon fill="#DDE4D0" points="225,83.8 225,87.6 538,87.6 538,278.1 228.8,278.1 228.8,83.8 225,83.8 225,87.6 225,83.8 
	221.2,83.8 221.2,285.7 545.6,285.7 545.6,80 221.2,80 221.2,83.8 "/>
<polyline fill="#DDE4D0" points="266.3,192.7 266.3,281.8 273.9,281.8 273.9,192.7 "/>
<polyline fill="#DDE4D0" points="312,192.2 312,281.4 319.6,281.4 319.6,192.2 "/>
<polyline fill="#DDE4D0" points="402.3,192.8 402.3,282 409.9,282 409.9,192.8 "/>
<polyline fill="#DDE4D0" points="447.2,192.8 447.2,282 454.8,282 454.8,192.8 "/>
<polyline fill="#DDE4D0" points="493.3,192.5 493.3,281.7 500.9,281.7 500.9,192.5 "/>
<polyline fill="#DDE4D0" points="357.1,84 357.1,281.7 364.7,281.7 364.7,84 "/>
</svg>
