<svg version="1.1" xmlns="http://www.w3.org/2000/svg" xmlns:xlink="http://www.w3.org/1999/xlink" viewBox="0 0 768 430" style="enable-background:new 0 0 768 430;" xml:space="preserve"><g id="pig"> <path id="path618" style="fill:none;stroke:#DDE4D0;stroke-width:1.6056;stroke-miterlimit:10;" d="M437.38,249.635  c0,17.82-16.034,32.285-35.791,32.285c-19.759,0-35.795-14.465-35.795-32.285s16.036-32.283,35.795-32.283  C421.346,217.352,437.38,231.814,437.38,249.635z"/> <g>  <path style="fill:none;" d="M348.701,167.9c-6.585,0-11.932,5.347-11.932,11.933s5.347,11.933,11.932,11.933 c6.584,0,11.932-5.347,11.932-11.933S355.285,167.9,348.701,167.9z"/>  <path style="fill:none;" d="M417.289,237.031c-7.239,0-13.113,5.594-13.113,12.486s5.875,12.488,13.113,12.488 c7.237,0,13.113-5.596,13.113-12.488S424.526,237.031,417.289,237.031z"/>  <path style="fill:none;" d="M386.213,237.137c-7.238,0-13.111,5.596-13.111,12.488s5.873,12.486,13.111,12.486 c7.237,0,13.111-5.594,13.111-12.486S393.45,237.137,386.213,237.137z"/>  <path style="fill:none;" d="M454.17,168.12c-6.584,0-11.932,5.347-11.932,11.932c0,6.586,5.348,11.933,11.932,11.933 c6.585,0,11.933-5.347,11.933-11.933C466.103,173.467,460.755,168.12,454.17,168.12z"/>  <path style="fill:#DDE4D0;" d="M457.736,109.965c-16.434-10.777-36.079-17.053-57.186-17.052 c-21.028,0-40.609,6.229-57.007,16.934C285.123,69.547,284.691,103.84,244,99.436c23.354,28.036,15.241,70.101,60.079,55.746 l1.85-2.11c-6.321,13.459-9.86,28.479-9.86,44.323c0,57.672,46.812,104.482,104.482,104.482s104.473-46.811,104.473-104.482 c0-15.951-3.586-31.069-9.987-44.598l2.185,2.491c44.842,14.355,36.716-27.71,60.068-55.746 C516.604,103.947,516.173,69.646,457.736,109.965z M348.701,191.766c-6.585,0-11.932-5.347-11.932-11.933 s5.347-11.933,11.932-11.933c6.584,0,11.932,5.347,11.932,11.933S355.285,191.766,348.701,191.766z M386.213,262.111 c-7.238,0-13.111-5.594-13.111-12.486s5.873-12.488,13.111-12.488c7.237,0,13.111,5.596,13.111,12.488 S393.45,262.111,386.213,262.111z M417.289,262.006c-7.238,0-13.113-5.596-13.113-12.488s5.874-12.486,13.113-12.486 c7.237,0,13.113,5.594,13.113,12.486S424.526,262.006,417.289,262.006z M454.17,191.985c-6.584,0-11.932-5.347-11.932-11.933 c0-6.585,5.348-11.932,11.932-11.932c6.585,0,11.933,5.347,11.933,11.932C466.103,186.638,460.755,191.985,454.17,191.985z"/> </g> <circle style="fill:none;stroke:#349D8B;stroke-width:3.2113;stroke-miterlimit:10;" cx="400.549" cy="256.182" r="39.338"/></g><g id="Layer_1"></g></svg>