<svg version="1.1" id="Layer_4" xmlns="http://www.w3.org/2000/svg" xmlns:xlink="http://www.w3.org/1999/xlink" x="0px" y="0px"
	 viewBox="0 0 768 430" enable-background="new 0 0 768 430" xml:space="preserve">
<path fill="#D59A74" d="M515.174,133.918c2.569,1.922,41.875,27.013,63.867,23.247c21.985-3.772,20.101-21.361,15.076-30.785
	c-5.027-9.425-32.67-13.436-15.076,15.584c0,0-30.785-7.418-17.594-33.176c13.194-25.758,59.683,4.398,54.029,34.555
	c-5.653,30.153-38.321,46.49-69.108,35.808C515.586,168.472,515.174,133.918,515.174,133.918"/>
<path fill="#D59A74" d="M311.715,105.688c0,0-38.766,0.628-42.629,1.886c-3.861,1.255-0.72,59.052,25.666,62.824
	C321.138,174.165,311.715,105.688,311.715,105.688"/>
<path fill="#D59A74" d="M282.188,264.736c0,0,2.259,68.477,3.328,72.25c1.068,3.766,28.083,3.139,30.595,0
	c2.514-3.141,4.4-52.775,4.4-52.775L282.188,264.736z"/>
<path fill="#C38766" d="M285.379,336.221c0,0-4.525,7.016-3.19,7.354c1.335,0.338,10.365-2.189,10.365-2.189s-2.89,6.5,6.867,4.332
	c9.755-2.164,15.841-5.871,16.693-8.73C316.961,334.125,290.492,338.283,285.379,336.221"/>
<path fill="#D59A74" d="M423.541,309.695c0,0,3.141,25.402,6.282,26.664c3.145,1.252,32.044,0.627,35.811,0
	c3.77-0.633,0-30.16,0-30.16L423.541,309.695z"/>
<path fill="#C38766" d="M429.823,336.359c0,0-7.922,7.242-3.225,7.215c4.694-0.021,9.755-2.521,9.755-2.521
	s-2.167,6.275,7.227,5.105c9.393-1.162,23.022-6.143,23.365-12.322C460.199,334.881,443.955,337.629,429.823,336.359"/>
<path fill="#ECBFA1" d="M183.555,135.843c0,0,40.205,23.873,46.49,22.618c6.281-1.258,79.157-80.415,160.827-84.186
	c81.673-3.769,145.752,31.411,165.856,90.465c20.104,59.057,13.821,155.806-104.288,165.857
	c-118.107,10.053-162.087-25.92-216.114-100.913c0,0-41.466,7.934-52.771,5.42C172.246,232.592,165.964,149.664,183.555,135.843"/>
<g>
	<defs>
		<path id="SVGID_1_" d="M390.875,74.277c-81.673,3.769-154.549,82.925-160.83,84.181c-6.282,1.258-46.49-22.615-46.49-22.615
			c-17.594,13.825-11.309,96.749,0,99.261c11.309,2.514,52.771-5.42,52.771-5.42c54.03,74.993,98.003,110.962,216.114,100.913
			c118.105-10.051,124.392-106.803,104.29-165.855c-19.126-56.17-78.023-90.743-154.016-90.74
			C398.818,74.003,394.861,74.093,390.875,74.277"/>
	</defs>
	<clipPath id="SVGID_2_">
		<use xlink:href="#SVGID_1_"  overflow="visible"/>
	</clipPath>
	<path clip-path="url(#SVGID_2_)" fill="#DCA784" d="M202.001,224.214c0,0,32.123-3.155,39.011-5.384
		c6.883-2.229,49.528,61.986,116.962,72.189c36.431,5.514,176.396,14.129,207.587-66.594c31.19-80.724,8.519,5.541,5.174,22.25
		c-3.338,16.709-30.075,127.539-133.672,118.914c-103.595-8.635-201.625-96.633-204.965-105.547
		c-1.355-3.611-42.836-18.402-48.544-24.938C175.18,225.514,202.001,224.214,202.001,224.214"/>
</g>
<path fill="#773818" d="M252.661,219.461c0,0,25.759-12.565,30.783-16.332c0,0,7.812,18.297-6.91,28.27
	C269.115,236.426,252.661,219.461,252.661,219.461"/>
<path d="M288.471,160.659c0,5.378-2.812,9.737-6.283,9.737c-3.47,0-6.284-4.359-6.284-9.737c0-5.377,2.814-9.736,6.284-9.736
	C285.659,150.923,288.471,155.281,288.471,160.659"/>
<path d="M258.944,160.659c0,5.378-2.816,9.737-6.283,9.737c-3.469,0-6.285-4.359-6.285-9.737c0-5.377,2.815-9.736,6.285-9.736
	C256.128,150.923,258.944,155.281,258.944,160.659"/>
<path fill="#D59A74" d="M339.987,110.085c0,0,51.513,3.142,59.053,8.168c0,0,7.54,79.158-15.704,81.041
	C360.091,201.181,336.218,140.87,339.987,110.085"/>
<path fill="#FBD5BD" d="M209.94,197.411c-2.211-21.394-8.795-56.542-26.386-61.568c-17.59-5.025-45.11,99.142,0,99.265
	C202.4,235.154,211.122,208.854,209.94,197.411"/>
<path fill="#CB9A7A" d="M185.923,184.573c4.408,1.765,8.819,19.404,0,18.521C177.101,202.212,181.512,182.809,185.923,184.573"/>
<path fill="#CB9A7A" d="M169.732,177.943c3.022,0.216,5.42,15.061-2.513,15.079C159.286,193.037,165.334,177.628,169.732,177.943"/>
<path fill="#DCA784" d="M339.591,293.84c0,0-4.166,54.654,0,57.799c4.164,3.139,43.743,3.139,48.77,0
	c5.026-3.145,3.767-49.006,3.767-49.006L339.591,293.84z"/>
<path fill="#C38766" d="M337.871,342.121c0,0-1.19,12.982-0.131,14.426c1.063,1.443,18.767-2.551,18.767-2.551s-2.527,5.08,0,5.443
	c2.528,0.361,30.54-3.789,32.581-8.646c2.048-4.859,2.048-8.672,2.048-8.672S344.167,346.842,337.871,342.121"/>
<path fill="#DCA784" d="M481.339,308.289c0,0,3.769,40.836,7.54,41.463c3.77,0.629,38.949-2.514,42.719-7.539
	c3.772-5.027-3.77-53.4-3.77-53.4L481.339,308.289z"/>
<path fill="#C38766" d="M486.235,343.537c0,0-3.996,9.707-1.469,10.459c2.528,0.746,13.01-3.203,13.01-3.203
	s1.439,5.031,5.055,5.031c3.614,0,28.147-7.887,29.176-13.789c1.03-5.906,0.621-5.725,0.621-5.725S508.298,349.311,486.235,343.537"
	/>
</svg>
