<svg xmlns="http://www.w3.org/2000/svg" viewBox="0 0 768 430"><style>.a{fill:#F27011;}.b{fill:#F28A11;}.c{fill:#F29611;}.d{fill:#C24D11;}.e{fill:#1E1C1C;}.f{fill:#30302B;}.g{fill:#383838;}.h{fill:#DEDADA;}.i{fill:#EEECEC;}.j{fill:#FFF;}.k{fill:#BCBBBB;}.l{fill:#3FA1FC;}.m{fill:#3F57E3;}.n{fill:#FA5013;}.o{fill:#F28411;}</style><polygon points="344.5 374.6 341.1 371.4 344.9 374.1 " fill="#CE5A36"/><path d="M347.4 347.7c0 0 4.9 9.7 4.7 20.9 -0.3 8.5-6.1 9.4-12.6 2.7 -6-5.5-14.9 10.4-20.6-6.4 -1.9-5-23.2 2.4-14.1-11.7 5.3-8.6 9.2-8.5 9.2-8.5L347.4 347.7z" class="a"/><path d="M347.4 347.7c0 0 4.9 9.7 4.7 20.9 -0.3 8.5-5.3 5.8-11.9-0.9 -6-5.5-13.1 10.3-18.7-6.6 -1.9-5-21.8 6.1-12.6-8 5.3-8.6 9.1-8.1 9.1-8.1L347.4 347.7z" class="b"/><path d="M348.4 350.2c1.4 3.6 3.8 10.7 3.7 18.5 -0.3 8.5-5 2.4-11.6-4.4 -6-5.5-10.5 11.6-16.1-5.2 -1.8-4.9-19.3 4.2-13.2-5.9 1.9-2.9 16.5 4.2 33.2-1.5C345.8 351.5 347.2 350.9 348.4 350.2z" class="c"/><path d="M318.7 365c-0.3-0.8-1.3-1.4-3-1.7 -1.2-0.2-2.7-0.3-4.3-0.4 -1.6-0.1-3.2-0.2-4.7-0.4l0 0c-2.3-0.4-3.6-1.2-4.2-2.4 -0.7-1.6 0-3.9 2.1-7.1 5.3-8.6 9.2-8.6 9.4-8.6l33.3 3 0.1 0 0 0.1c0 0.1 4.9 9.9 4.8 21 -0.1 3-0.9 5.2-2.3 6.4 -1 0.8-2.2 1.1-3.6 0.8 -2.1-0.4-4.5-1.9-7-4.4 -0.7-0.6-1.4-1-2.2-1.1 -1.7-0.3-3.6 0.5-5.6 1.3 -2.1 0.8-4.2 1.7-6.3 1.4C322.5 372.5 320.4 370 318.7 365zM339.6 371.2c2.4 2.5 4.8 4 6.8 4.3 1.3 0.2 2.4 0 3.3-0.7 1.3-1.1 2.1-3.2 2.2-6.1 0.2-10.4-4.2-19.7-4.7-20.7l-33.2-3c0 0-3.8 0.1-9 8.4 -2 3.1-2.7 5.2-2 6.7 0.5 1.1 1.7 1.8 3.9 2.2l0 0c1.4 0.2 3 0.3 4.6 0.4 1.6 0.1 3 0.1 4.3 0.4 1.9 0.3 3 0.9 3.3 1.9 1.6 4.9 3.6 7.3 6.2 7.8 2 0.3 4-0.5 6.1-1.3 2.1-0.8 4-1.6 5.8-1.3C338.1 370.2 338.9 370.5 339.6 371.2z" class="d"/><path d="M391.9 340.7c0 0-6.1 15.4 15.2 22.1 16.2 5.7 20.3 8.5 24.7 12.2 4.5 3.7 12 7.1 13.4-3.6 0.6-6.8 22.7-1.7 11.6-13.6 -4.9-5.1 13.7-5.6-4.5-12.2 -13.9-4.5-27.1-2.3-37.5-8C407.3 340.2 391.9 340.7 391.9 340.7z" class="a"/><path d="M396.4 340.4c0 0-9.3 12.5 12 19.2 16.2 5.7 17.8 7 22.3 10.7 4.5 3.7 11.6 8.8 13.1-1.9 0.6-6.8 21.6 0.3 10.5-11.6 -4.9-5.1 16.3-4.6-1.9-11.2 -13.9-4.5-27.1-2.3-37.5-8C407.3 340.2 396.4 340.4 396.4 340.4z" class="b"/><path d="M401.4 348.7c6.1-2.8 15.2-2.3 17.1-9.4 9.8 3.6 21.5 2.3 33.9 6.3 14.7 5.4-7.9 4.4-3 9.5 11.1 11.9-7 3.3-7.6 10.1 -1.4 10.7-6.8 4.5-11.3 0.8 -4.5-3.7-5.4-4.3-21.6-10 -3.9-1.1-6.7-2.6-8.7-4.2C398.4 350.1 400.2 349.1 401.4 348.7z" class="c"/><path d="M431.7 375.1c-4.5-3.7-8.6-6.5-24.7-12.1 -7.4-2.4-12.4-6-14.7-10.9 -2.8-5.9-0.6-11.5-0.6-11.5l0-0.1 0.1 0c0.2 0 15.4-0.5 22.9-3l0.1 0 0.1 0c3 1.6 6.5 2.8 11.1 3.5 2.7 0.5 5.4 0.8 8.3 1.1 3 0.3 6.1 0.7 9.3 1.2 3.2 0.6 6.1 1.2 8.8 2.1 5.5 2 8.1 3.6 8.3 5.1 0.2 1.1-1 2-2.2 2.9 -1.1 0.8-2.2 1.6-2.3 2.6 0 0.5 0.2 1.1 0.8 1.7 2.5 2.7 3.5 4.7 3.1 6.2 -0.6 2-3.8 2.7-7.1 3.4 -3.6 0.8-7.3 1.5-7.6 4.2 -0.4 3.2-1.4 5.3-2.9 6.4 -1.1 0.8-2.4 1.1-4 0.8C435.8 378.2 433.1 376.2 431.7 375.1zM434.3 342.5c-2.9-0.3-5.6-0.6-8.3-1.1 -4.6-0.8-8.1-1.9-11.1-3.5 -7.2 2.4-21.3 3-22.8 3 -0.3 0.8-1.9 5.8 0.6 11.1 2.3 4.8 7.1 8.4 14.5 10.7 16.1 5.6 20.3 8.5 24.8 12.2 1.3 1.1 4 3 6.6 3.4 1.5 0.3 2.7 0 3.7-0.7 1.4-1.1 2.4-3.1 2.8-6.2 0.2-2.9 4.1-3.7 7.9-4.5 3.2-0.7 6.2-1.3 6.8-3.1 0.4-1.3-0.5-3.3-3-5.8 -0.7-0.7-1-1.3-0.9-2 0.1-1.1 1.3-2 2.4-2.9 1.1-0.8 2.2-1.6 2.1-2.5 -0.2-1.3-2.8-2.9-8-4.7 -2.7-0.9-5.5-1.6-8.8-2.1C440.4 343.1 437.3 342.8 434.3 342.5z" class="d"/><path d="M426.4 234.9c0 0 14.5 17.9 45.5 26.3 16.8 4.2 34.2 0.5 18.2-12.8 -16-13.3-47.4-35.2-56.4-56.3C426.8 190.9 416.1 189.8 426.4 234.9z" class="e"/><path d="M426.9 225.4c0 0 12.7 22.6 43.7 31 16.8 4.2 35.6 5.3 19.6-8 -16-13.3-47.4-35.2-56.4-56.3C426.8 190.9 416.5 180.3 426.9 225.4z" class="f"/><path d="M428.4 215.4c0 0 11 27.6 42 36 16.8 4.2 22.8 2.7 12-5.6 -16.5-12.8-41.2-31.9-50.2-53C425.3 191.6 422.9 200.4 428.4 215.4z" class="g"/><path d="M471.9 261.4c-30.8-8.3-45.5-26.2-45.6-26.3l0 0 0 0c-5.3-23.1-5.7-36.7-1.2-41.4 2.4-2.5 5.6-2.2 8.7-1.7l0.1 0 0 0.1c7.4 17.4 30.2 35.4 46.8 48.6 3.5 2.8 6.8 5.4 9.6 7.7 5.2 4.3 7.3 8 6.1 10.7 -2 4.3-11.6 4.8-20.2 3.3C474.7 262 473.3 261.7 471.9 261.4zM425.3 193.8c-4.4 4.7-4 18.1 1.3 41 0.7 0.9 15.4 18 45.4 26.2 1.4 0.3 2.8 0.6 4.2 0.9 10 1.7 18.2 0.5 19.8-3.1 1.2-2.5-0.9-6-6-10.2 -2.8-2.3-6.1-4.9-9.5-7.7 -16.6-13.2-39.3-31.2-46.8-48.7C430.6 191.7 427.5 191.5 425.3 193.8z"/><path d="M346 184.8c0 0-28.3-32.3-1.5-48.4 -3.2-18.5 10.7-52.4 52-53.9 2.6-9.1 2.9-11.1 2.9-11.1 3.3 4.9 5.3 9.7 5.3 9.7 4.1-9.1 5.9-10.3 11.4-14 -0.7 2.7 1.4 8.6 1 12.3 4.9-7.7 10.1-12.2 29.1-5.9 -3.3 1.2-16.9-0.6-16.9 10 7.9 1.9 35.3 12 34.4 46.4 -0.5 11.8 9.9 26.7 0.7 45.8 -8.4 14.6-17.2 20.8-36.4 21.4 2.6 4.3 9.4 25.1 0.8 45.3 -7.8 17-4.1 32.8 0.6 41.6 4.7 8.8 14.1 35.4-12 56.5 -18.3 13.6-29.1-1.9-55.1 6.8 -20.4 6.3-60.4 9-73.8-20.9 -7.1-17.2-6-34.1 15.8-60.5 14.4-19.2 13.8-30.7 18.5-35.8C327.5 225 346 184.8 346 184.8z" class="e"/><path d="M350.4 181.8c0 0-25.6-29.8 1.2-45.9 -3.2-18.5 3.6-52 44.9-53.4 2.6-9.1 2.9-11.1 2.9-11.1 3.3 4.9 5.3 9.7 5.3 9.7 4.1-9.1 5.9-10.3 11.4-14 -0.7 2.7 1.4 8.6 1 12.3 4.9-7.7 10.1-12.2 29.1-5.9 -3.3 1.2-16.9-0.6-16.9 10 7.9 1.9 35.3 12 34.4 46.4 -0.5 11.8 9.9 26.7 0.7 45.8 -8.4 14.6-17.2 20.8-36.4 21.4 2.6 4.3 9.4 25.1 0.8 45.3 -7.8 17-4.1 32.8 0.6 41.6 4.7 8.8 14.1 35.4-12 56.5 -18.3 13.6-29.5-9.1-55.5-0.4 -20.4 6.3-52.8-0.7-62.8-22.2 -5.4-10.7-6.5-26.8 15.3-53.3 14.4-19.2 14.7-32.9 19.4-38C338.6 221.3 350.4 181.8 350.4 181.8z" class="f"/><path d="M288.3 326.4c-3.9-9.5-4.9-18.1-3-26.9 2.2-10.1 8.3-21.1 18.8-33.8 8.9-11.8 12-20.6 14.2-27 1.4-4 2.4-6.8 4.3-8.8 4.6-4.9 22.1-42.8 23.2-45.1 -1.2-1.4-15.1-18.1-12.7-33 1-6.4 4.8-11.6 11.3-15.5 -1.4-8.4 0.5-22.5 10.5-34.8 6.7-8.3 19.4-18.3 41.5-19.1 2.5-8.9 2.9-10.9 2.9-11l0.1-0.5 0.3 0.4c2.7 4.1 4.6 8.1 5.2 9.3 4.1-8.9 5.9-10.1 11.3-13.7l0.4-0.3 -0.1 0.5c-0.4 1.4 0 3.6 0.4 5.9 0.3 1.9 0.7 3.9 0.6 5.6 3.6-5.6 7.8-9.9 19.3-7.9 2.8 0.5 6 1.3 9.6 2.5l0.5 0.2 -0.5 0.2c-0.8 0.3-2.1 0.4-3.6 0.6 -5.2 0.5-13.1 1.3-13.2 9.1 2.9 0.7 12.2 3.4 20.5 11 9.6 8.8 14.3 20.8 13.9 35.5 -0.2 3.8 0.9 8.1 2 12.6 2.3 9.5 4.9 20.4-1.3 33.2 -8.9 15.4-18.1 20.8-36.3 21.4 3.1 5.5 8.8 26 0.6 45.2 -9.2 20.1-1.9 36.8 0.6 41.5 1.8 3.4 5.9 12.4 5.5 23.7 -0.4 12.8-6.3 23.9-17.6 33 -9.9 7.3-17.6 6.3-26.5 5.1 -7.8-1.1-16.6-2.3-28.6 1.8 -4.9 1.5-22.1 6.1-40.3 3C305.8 347.7 294.1 339.4 288.3 326.4zM436.7 71.2c-11.7-2-15.7 2.6-19.3 8.3l-0.4 0.7 0.1-0.8c0.2-1.8-0.2-4.1-0.6-6.3 -0.4-2.2-0.7-4.2-0.5-5.6 -5.1 3.4-6.9 4.8-11 13.7l-0.2 0.4 -0.2-0.4c0 0-1.9-4.5-5-9.3 -0.2 1-0.9 3.8-2.8 10.7l0 0.1 -0.1 0c-22.1 0.8-34.7 10.8-41.4 19 -10 12.3-11.9 26.4-10.4 34.7l0 0.1 -0.1 0.1c-6.4 3.9-10.2 9-11.2 15.3 -2.4 15.3 12.6 32.6 12.7 32.8l0.1 0.1 -0.1 0.1c-0.8 1.6-18.6 40.3-23.3 45.3 -1.8 1.9-2.8 4.8-4.2 8.7 -2.3 6.4-5.4 15.2-14.3 27.1 -22.5 27.3-22.6 43.8-15.8 60.3 5.8 13 17.1 21 33.4 23.8 18.2 3.1 35.3-1.5 40.2-3 12.1-4.1 21-2.9 28.8-1.8 8.9 1.2 16.5 2.2 26.2-5 27.9-22.6 14.9-50.8 12-56.3 -2.5-4.7-9.9-21.6-0.6-41.8 8.3-19.4 2.3-40.1-0.7-45.1l-0.2-0.3 0.3 0c18.2-0.6 27.4-5.9 36.3-21.3 6.1-12.7 3.6-23.5 1.3-33 -1.1-4.5-2.1-8.8-2-12.7 1.1-36.8-30.6-45.3-34.2-46.2l-0.1 0v-0.2c0-8.3 8.1-9.1 13.5-9.6 1.2-0.1 2.2-0.2 3-0.4C442.3 72.4 439.3 71.6 436.7 71.2z"/><path d="M462.4 116c-6.4-5.9-13.5-7.7-17.7-3.3 -9.4 10-6.2 31.4-3.4 39.4 0 0-11.5 3.7-17.9 0.8 18.2-47.7-9.9-59.5-28.3-55.9 -28.3 5.5-35.8 32.8-34 41.6 -9.5 4.3-15.4 17-5.2 30.6 21 28.1 72.1 27.9 72.1 27.8 19.2-0.6 28-6.8 36.4-21.4 9.2-19.1-1.1-34-0.7-45.8C463.9 124.7 463.4 120.2 462.4 116z" class="h"/><path d="M462.4 116c-6.4-5.9-13.5-7.7-17.7-3.3 -9.4 10-6.2 31.4-3.4 39.4 0 0-11.5 3.7-17.9 0.8 18.2-47.7-9.9-59.5-28.3-55.9 -28.3 5.5-35.8 32.8-34 41.6 -9.5 4.3-9.7 13.8 0.4 27.4 18.1 24.4 64.9 27 64.9 26.9 21.4-0.4 29.6-2.7 38-17.3 9.2-19.1-1.1-34-0.7-45.8C463.9 124.7 463.4 120.2 462.4 116z" class="i"/><path d="M462.4 116c-6.4-5.9-13.5-7.7-17.7-3.3 -9.4 10-6.2 31.4-3.4 39.4 0 0-11.5 3.7-17.9 0.8 18.2-47.7-8.7-55.2-27.1-51.6 -28.3 5.5-26.7 31-24.9 39.8 -9.5 4.3-9.2 12.4-2 22.4 17.7 24.7 82.4 37.9 95 12.2 9.2-19.1-1.1-34-0.7-45.8C463.9 124.7 463.4 120.2 462.4 116z" class="j"/><path d="M355.7 169.3c-5.9-7.9-5.9-14.7-4.8-18.9 1.3-5.2 5-9.6 10-11.9 -1-5.1 1-15.1 6.8-23.8 4.4-6.6 12.7-15.1 27.3-18 3.9-0.7 8-0.8 11.9-0.1 8.3 1.4 14.9 5.9 18.7 12.5 5.7 10.1 5.1 25.2-2 43.6 0.8 0.3 1.7 0.6 2.7 0.8 5.8 1 13.5-1.2 14.8-1.6 -2.8-8.4-5.8-29.5 3.5-39.4 2-2.1 4.6-2.9 7.7-2.4 3.3 0.6 6.8 2.5 10.2 5.7l0 0 0 0.1c1 4.3 1.5 9 1.3 13.9 -0.2 3.8 0.9 8.1 2 12.6 2.3 9.5 4.9 20.4-1.3 33.2 -9 15.5-18.2 20.9-36.6 21.5v0c-0.2 0-0.6 0-1.6 0 -0.9 0-2.5-0.1-4.5-0.2 -3.5-0.2-8.9-0.7-15.2-1.8C390.1 192.4 367.9 185.6 355.7 169.3zM428 196.8c18.2-0.6 27.4-5.9 36.3-21.3 6.1-12.7 3.6-23.5 1.3-33 -1.1-4.5-2.1-8.8-2-12.7 0.1-4.9-0.3-9.5-1.3-13.7 -3.4-3.1-6.8-5-10-5.5 -3-0.5-5.5 0.3-7.4 2.2 -9.3 9.8-6.2 31-3.4 39.2l0.1 0.2 -0.2 0.1c-0.1 0-8.7 2.8-15.1 1.7 -1.1-0.2-2.1-0.5-2.9-0.9l-0.2-0.1 0.1-0.2c7-18.4 7.8-33.5 2-43.5 -3.7-6.6-10.3-10.9-18.4-12.3 -3.9-0.7-7.9-0.6-11.7 0.1 -14.5 2.8-22.7 11.2-27.1 17.8 -5.8 8.7-7.8 18.6-6.7 23.6l0 0.2 -0.1 0.1c-4.9 2.2-8.6 6.6-9.9 11.7 -1.1 4.2-1.1 10.8 4.7 18.6 12.1 16.2 34.2 22.9 50.6 25.7 11.7 2 20.2 2 21.2 2L428 196.8z" class="k"/><path d="M380 187.3c-15.7 3.3-22.9 14.2-25.5 18.9 -8.2 14.6-2.9 33.8-8.9 40.6 -19.4 19.1-29.7 40.2-31.3 65.9 -0.3 26.2 27.6 34.8 37.5 37 3.8-0.7 7.4-1.6 10.5-2.5 26-8.7 36.8 6.8 55.1-6.8 26.1-21.1 16.7-47.7 12-56.5 -4.7-8.8-8.4-24.7-0.6-41.6 8.6-20.2 1.9-41-0.8-45.3C428 197.1 402.4 197.2 380 187.3z" class="h"/><path d="M394.7 331.3c-4.7-2-9.3-2.4-14.5-1.3 -17.4 4.4-35.3 3.7-47.3-12.3 -17.6-33.7 9.2-61.4 14.4-73.9 3.2-8.4 0-24.8 7.2-37.6 2.6-4.7 9.8-15.6 25.5-18.9 22.4 9.9 48 9.8 48 9.7 2.6 4.3 9.4 25.1 0.8 45.3 -7.8 17-4.1 32.8 0.6 41.6 2.9 5.4 7.6 17.7 4.6 31.2C428.5 336.8 403.3 335.1 394.7 331.3z" class="i"/><path d="M403.8 314.3c-5.8-2.2-10-9.4-15.6-8.5 -7.5 1-14.9 5.6-22.4 6.6 -9.5 1.1-21.1-3.2-23.3-13.3 -4.5-19 3.5-31.9 9.3-45.2 3.7-7.9 3.5-16 3.8-24.5 0.2-14.7 6.8-32.9 24.2-33 0.8 0.1 1.6-0.5 2.4-0.4 12.1-0.6 22.5 6.2 34.5 4.4 4-0.6 8.1-1.4 12.2-1.5 2.9 6.7 7.6 25.3-0.2 43.5 -7.8 17-4.1 32.8 0.6 41.6 1.8 3.4 4.4 9.5 5.2 17C433.9 315.1 417.4 319.7 403.8 314.3z" class="j"/><path d="M351.8 350c-4.9-1.1-14.4-3.8-22.7-9.6 -10.1-7-15.1-16.3-15-27.7 1.6-25.6 11.5-46.6 31.3-66.1 2.7-3.2 3.1-9 3.5-15.8 0.5-7.9 1-16.9 5.4-24.8 3.9-7 11.5-16 25.6-19l0.1 0 0.1 0c7.8 3.4 16.7 6 26.6 7.7 11.6 2 20.2 2 21.2 2l0.1-0.2 0.2 0.3c3 5 9.1 25.9 0.8 45.5 -9.2 20.1-1.9 36.8 0.6 41.5 1.8 3.4 5.9 12.4 5.5 23.7 -0.4 12.8-6.3 23.9-17.6 33 -9.9 7.3-17.6 6.3-26.5 5.1 -7.8-1.1-16.6-2.3-28.6 1.8 -3.3 1-6.8 1.9-10.5 2.5l0 0L351.8 350zM421.9 197c-3.5-0.2-8.9-0.7-15.2-1.8h0c-9.9-1.7-18.9-4.3-26.7-7.7 -13.9 2.9-21.5 11.8-25.3 18.8 -4.3 7.8-4.9 16.7-5.3 24.6 -0.4 6.9-0.8 12.8-3.6 16 -19.7 19.5-29.6 40.4-31.2 65.8 -0.3 26.3 28.5 34.9 37.3 36.9 3.7-0.7 7.2-1.5 10.4-2.5 12.1-4.1 21-2.9 28.8-1.8 8.9 1.2 16.5 2.2 26.2-5 27.9-22.6 14.9-50.8 12-56.3 -2.5-4.7-9.9-21.6-0.6-41.8 8.2-19.3 2.3-39.9-0.7-45C426.7 197.3 421.9 197 421.9 197z" class="k"/><path d="M412.5 140c-1.6 9.4-8.9 15.9-16.4 14.6 -7.5-1.3-12.2-9.9-10.6-19.3 1.6-9.4 8.9-15.9 16.4-14.6C409.3 122.1 414.1 130.7 412.5 140z" class="i"/><path d="M412.1 142.2c-1.4 8.2-7.8 13.9-14.3 12.8 -6.5-1.1-10.6-8.6-9.2-16.8 1.4-8.2 7.8-13.9 14.3-12.8C409.4 126.5 413.5 134 412.1 142.2z" class="j"/><path d="M388.4 138.1c1.4-8.3 7.9-14.1 14.5-12.9 6.6 1.1 10.8 8.8 9.4 17 -1.4 8.3-7.9 14.1-14.5 12.9C391.2 154 386.9 146.4 388.4 138.1zM388.7 138.2c-1.4 8 2.7 15.5 9.1 16.6 6.4 1.1 12.7-4.6 14.1-12.6 1.4-8-2.7-15.5-9.1-16.6C396.4 124.5 390.1 130.1 388.7 138.2z"/><path d="M408.7 144.1c-0.7 4.1-3.6 7-6.4 6.5 -2.8-0.5-4.6-4.2-3.9-8.3 0.7-4.1 3.6-7 6.4-6.5C407.7 136.3 409.4 140 408.7 144.1z" class="l"/><path d="M398.2 142.3c0.7-4.2 3.7-7.2 6.6-6.7 2.9 0.5 4.8 4.3 4 8.5 -0.7 4.2-3.7 7.2-6.6 6.7C399.3 150.3 397.5 146.5 398.2 142.3zM398.6 142.4c-0.7 4 1 7.6 3.7 8.1 2.7 0.5 5.5-2.4 6.2-6.4 0.7-4-1-7.6-3.7-8.1C402.1 135.5 399.3 138.4 398.6 142.4z" class="m"/><path d="M456.8 135.4c0.6 8.3-2.6 15.2-7.2 15.5 -4.6 0.3-8.7-6.1-9.3-14.4 -0.6-8.3 2.6-15.2 7.2-15.5C452.1 120.7 456.2 127.1 456.8 135.4z" class="i"/><path d="M457.2 137.1c0.5 7.4-2.4 13.6-6.4 13.8 -4.1 0.3-7.8-5.5-8.3-12.8 -0.5-7.4 2.4-13.6 6.4-13.8C453 124 456.7 129.7 457.2 137.1z" class="j"/><path d="M442.3 138.1c-0.3-3.6 0.3-7 1.5-9.7 1.2-2.7 3-4.2 5.1-4.4 0.4 0 0.7 0 1.1 0.1 3.8 0.6 7 6.2 7.5 12.9 0.3 3.6-0.3 7-1.5 9.7 -1.2 2.7-3 4.2-5.1 4.4 -0.3 0-0.7 0-1-0.1l0 0C446 150.4 442.8 144.9 442.3 138.1zM448.9 124.5c-1.9 0.1-3.6 1.6-4.8 4.2 -1.2 2.6-1.7 6-1.5 9.5 0.5 6.6 3.5 12 7.1 12.6 0.3 0.1 0.6 0.1 1 0 1.9-0.1 3.6-1.6 4.8-4.2 1.2-2.6 1.7-6 1.5-9.5 -0.5-6.6-3.5-12-7.1-12.6C449.5 124.5 449.2 124.4 448.9 124.5z"/><path d="M455.8 139.7c0.2 3.4-1.3 6.3-3.4 6.5 -2.1 0.2-4.1-2.5-4.3-5.9 -0.2-3.4 1.3-6.3 3.4-6.5C453.7 133.7 455.6 136.3 455.8 139.7z" class="l"/><path d="M447.9 140.3c-0.1-1.7 0.2-3.3 0.8-4.6 0.7-1.3 1.7-2 2.8-2.1 0.2 0 0.4 0 0.6 0 2 0.3 3.6 2.9 3.9 6.1 0.2 3.5-1.4 6.5-3.6 6.7 -0.2 0-0.4 0-0.6 0l0 0C449.8 146 448.1 143.5 447.9 140.3zM451.6 134c-1 0.1-1.8 0.7-2.5 1.9 -0.6 1.2-0.9 2.7-0.8 4.4 0.2 2.9 1.7 5.4 3.5 5.7 0.2 0 0.4 0 0.5 0 2-0.1 3.5-2.9 3.2-6.3 -0.2-2.9-1.7-5.4-3.5-5.7C451.9 134 451.7 134 451.6 134z" class="m"/><path d="M414.2 161.4c0 0 5.7 21.3 23.6 23.6 4-7 8.2-20.5 5.9-26.7C437.6 160.5 414.2 161.4 414.2 161.4z" class="n"/><path d="M419.4 161.1c0 0-0.4 16.7 18.4 23.9 4-7 8.2-20.5 5.9-26.7C437.6 160.5 419.4 161.1 419.4 161.1z" class="o"/><path d="M414 161.4l-0.1-0.2 0.2 0c0.2 0 23.4-0.9 29.4-3.1l0.2-0.1 0.1 0.2c2.3 6.3-1.9 19.9-5.9 26.9l-0.1 0.1 -0.1 0c-0.3 0-0.6-0.1-0.9-0.1C419.8 182.2 414.1 161.7 414 161.4zM443.5 158.6c-6 2-26.4 2.9-29.1 3 0.7 2.3 6.6 20.4 22.4 23.1 0.3 0 0.5 0.1 0.8 0.1C441.6 177.9 445.7 164.8 443.5 158.6z" class="d"/><path d="M434.9 178.4c2.8 2.1 5.6-11.5 4.7-19.2 -4.6 0.8-11.1 1.3-16.5 1.7C425.3 165.7 428.3 174.5 434.9 178.4z" fill="#8A0000"/><path d="M437.5 159.6c0.8-0.1 1.5-0.2 2.1-0.3 0.9 7.7-1.9 21.3-4.7 19.2 -0.1-0.1-0.2-0.1-0.3-0.2C438 173 437.9 165.8 437.5 159.6z" fill="#C70000"/><path d="M434.8 178.6c-5.7-3.4-8.7-10.2-10.8-15.3 -0.4-0.8-0.7-1.6-1-2.3l-0.1-0.3 0.3 0c4.9-0.3 11.8-0.9 16.4-1.7l0.2 0 0 0.2c0.7 6.5-1.1 17-3.4 19.2 -0.4 0.3-0.7 0.5-1.1 0.4C435.1 178.8 435 178.7 434.8 178.6zM423.4 161.1c0.3 0.6 0.6 1.4 0.9 2.1 2.1 5 5 11.8 10.7 15.1 0.4 0.3 0.7 0.2 1.2-0.1 2.2-2.1 4-12.3 3.3-18.7C434.8 160.2 428.3 160.8 423.4 161.1z" class="d"/><path d="M341.1 230.7c0 0-54.1 25.9-92.5-4.5 -6.3-4.2 15.6-8 32.7-13.5 46.4-15 60.9-44.1 72.8-26.5L341.1 230.7z" class="e"/><path d="M341.1 230.7c0 0-51.4 17.6-82.6-2.8 -4.6-3.5 5.7-9.6 22.9-15.2 46.4-15 60.9-44.1 72.8-26.5L341.1 230.7z" class="f"/><path d="M335.6 225.4c-20.6 12.8-53.1 9.4-68.2 1.6 -4.6-3.5 0-6.2 17.1-11.8 46.4-15 55.1-39.9 65.6-29.7C350.2 185.5 362.4 208.8 335.6 225.4z" class="g"/><path d="M279.1 239.9c9.1 1.6 19.2 1.6 29.8 0.1 12-1.7 22.1-5 27.8-7.1 3.1-1.1 4.7-2.3 4.7-2.3 -0.1 0.1-14.2 6.5-32.6 9.1 -16.9 2.4-41.1 2-60.1-13.6 -0.8-0.5-1.1-1-1-1.5 0.4-2.3 9.5-4.8 19.2-7.5 4.8-1.3 9.8-2.7 14.5-4.2 20.3-6.6 34.6-15.9 45-22.7 13.5-8.8 20.9-13.7 27.7-4 0 0-1.2-2.4-3.7-4.3 -6-3.9-13.1 0.8-24.2 8 -10.4 6.8-24.6 16.1-44.9 22.6 -4.7 1.5-9.7 2.9-14.5 4.2 -10.7 2.9-19.1 5.2-19.5 7.8 -0.1 0.6 0.3 1.3 1.2 1.8 8.4 6.9 18.6 11.5 30.1 13.5C278.8 239.9 278.9 239.9 279.1 239.9z"/><path d="M409.3 158.5c0 0 7.6 11.4 22.4 8 14.8-3.4 14.6-3.9 22.5-0.3 0.7-7.4 0.2-19.1-16.8-20.9C419.8 145.7 418.6 158.5 409.3 158.5z" class="n"/><path d="M431.5 163.2c14.8-3.4 16.6-2.5 22.7 3 0.7-7.4 0.2-19.1-16.8-20.9 -14.1 0.4-17.7 8.7-23.3 11.9C412.7 158 416.7 166.6 431.5 163.2z" class="o"/><path d="M431.8 161c14.8-3.4 16.9-1.1 20.5 1.9 0.7-7.4-2.3-14.8-14.5-16.3 -14.1 0.4-18.1 7.3-23.7 10.6C412.7 158 417.1 164.4 431.8 161z" fill="#F29C11"/><path d="M409.1 158.6l-0.2-0.3h0.4c3.9 0 6.3-2.3 9.2-4.9 3.9-3.6 8.7-8 18.9-8.3 0.7 0.1 1.4 0.2 2.1 0.3 11.2 1.9 16.1 8.7 14.9 20.9l0 0.3 -0.2-0.1c-2.6-1.2-4.5-2-6.3-2.4 -2.8-0.5-5.5 0.2-12.2 1.8 -1.2 0.3-2.4 0.6-3.8 0.9 -3.1 0.7-6.2 0.8-9 0.3C413.8 165.5 409.2 158.7 409.1 158.6zM454 165.9c1.1-11.7-3.7-18.3-14.6-20.2 -0.7-0.1-1.3-0.2-2-0.3 -10.1 0.3-14.6 4.5-18.6 8.2 -2.8 2.6-5.3 4.9-9.1 5 1 1.3 5.4 6.6 13.1 7.9 2.8 0.5 5.8 0.4 8.9-0.3 1.4-0.3 2.7-0.6 3.8-0.9 6.7-1.6 9.5-2.2 12.4-1.8C449.7 163.9 451.5 164.7 454 165.9z" class="d"/><path d="M399.7 143.7c-0.5 2.8 0.6 5.3 2.5 5.6 1.8 0.3 3.7-1.7 4.2-4.4 0.5-2.8-0.6-5.3-2.5-5.6C402.1 138.9 400.2 140.9 399.7 143.7z"/><path d="M401.8 140.1c-0.2 1 0.5 1.9 1.5 2.1 1 0.2 1.9-0.5 2.1-1.5 0.2-1-0.5-1.9-1.5-2.1C402.9 138.4 402 139.1 401.8 140.1z" class="j"/><path d="M399.3 143.4c-0.1 0.7 0.3 1.3 1 1.4 0.7 0.1 1.3-0.3 1.4-1 0.1-0.6-0.3-1.3-1-1.4C400.1 142.4 399.4 142.8 399.3 143.4z" class="j"/><path d="M449.2 140.2c-0.1 2.4 1.1 4.4 2.7 4.4 1.6 0.1 3-1.8 3-4.2 0.1-2.4-1.1-4.4-2.7-4.4C450.6 135.9 449.3 137.8 449.2 140.2z"/><path d="M450.5 136.9c0 0.9 0.6 1.6 1.5 1.6 0.9 0 1.6-0.6 1.6-1.5 0-0.9-0.6-1.6-1.5-1.6C451.3 135.4 450.6 136.1 450.5 136.9z" class="j"/><path d="M448.8 140c0 0.6 0.4 1 1 1.1 0.6 0 1-0.4 1.1-1 0-0.6-0.4-1-1-1.1C449.3 139 448.9 139.5 448.8 140z" class="j"/><path d="M457.5 108.7c0 0-20.7-16.4-24 29.6 -1.5-14.8 6.3-44-43.2-51.9C398.9 84.5 442.1 76.9 457.5 108.7z" class="g"/></svg>