<svg version="1.1" id="Layer_1" xmlns="http://www.w3.org/2000/svg" xmlns:xlink="http://www.w3.org/1999/xlink" viewBox="0 0 768 430" enable-background="new 0 0 768 430" xml:space="preserve">
<symbol  id="ac" viewBox="-2.986 -1.444 5.972 2.887">
	<path fill="#D9C57C" d="M-0.316-1.41c-1.433,0.133-2.3,0.5-2.6,1.1c-0.167,0.333-0.033,0.7,0.4,1.1
		c0.433,0.468,1.017,0.684,1.75,0.65c1-0.067,1.883-0.317,2.65-0.75c0.767-0.4,1.133-0.833,1.1-1.3c-0.034-0.3-0.383-0.534-1.05-0.7
		C1.267-1.443,0.517-1.478-0.316-1.41z"/>
</symbol>
<symbol  id="ae" viewBox="-1.291 -1.057 2.58 2.113">
	<path fill="#D9C57C" d="M0.034,0.982c0.333-0.066,0.633-0.218,0.9-0.45c0.267-0.233,0.383-0.467,0.35-0.7
		c-0.067-0.333-0.3-0.583-0.7-0.75c-0.367-0.167-0.75-0.183-1.15-0.05c-0.3,0.1-0.517,0.35-0.65,0.75c-0.1,0.367-0.1,0.649,0,0.85
		C-0.982,1.032-0.565,1.149,0.034,0.982z"/>
</symbol>
<symbol  id="ai" viewBox="-2.612 -1.318 5.225 2.636">
	<path fill="#D9C57C" d="M0.051,1.195c0.733-0.133,1.35-0.333,1.85-0.6c0.533-0.3,0.767-0.6,0.7-0.9
		c-0.067-0.399-0.483-0.699-1.25-0.899c-0.767-0.167-1.567-0.15-2.4,0.05c-0.633,0.133-1.083,0.45-1.35,0.95
		c-0.267,0.466-0.284,0.833-0.05,1.1C-2.082,1.329-1.249,1.429,0.051,1.195z"/>
</symbol>
<symbol  id="am" viewBox="-2.371 -1.258 4.742 2.518">
	<path fill="#D9C57C" d="M-0.339-1.125c-1.133,0.167-1.8,0.533-2,1.101c-0.1,0.3,0.033,0.6,0.4,0.899
		c0.4,0.333,0.883,0.45,1.45,0.351c0.767-0.101,1.45-0.351,2.05-0.75c0.6-0.4,0.867-0.784,0.8-1.15
		c-0.033-0.267-0.333-0.45-0.9-0.55C0.894-1.292,0.294-1.258-0.339-1.125z"/>
</symbol>
<g>
	<path fill="#281C23" d="M442.001,155.183l22.543-9.721c15.779-6.473,24.029-8.748,24.798-6.805
		c4.508,7.776-8.634,20.744-39.451,38.883c-23.286,7.774-31.538,6.474-24.796-3.889L442.001,155.183L442.001,155.183z"/>
	<path fill="#281C23" d="M313.508,131.853l3.381,23.33c0,11.666-7.147,8.417-21.417-9.721c-3.764-7.135-7.145-14.58-10.144-22.357
		c-5.254-16.194-5.637-25.604-1.127-28.189c2.253-1.303,7.89,4.53,16.908,17.497C305.615,118.886,309.741,125.38,313.508,131.853z"
		/>
	<path fill="#281C23" d="M280.819,171.708l3.381,23.33c0,11.663-7.148,8.417-21.415-9.719c-3.764-7.137-7.125-14.584-10.144-22.361
		c-5.254-16.193-5.254-25.603,0-28.189c2.253-1.283,7.505,4.531,15.778,17.498C272.929,158.741,277.052,165.233,280.819,171.708z"/>
	<path fill="#281C23" d="M280.819,225.17l10.146,16.525c2.996,9.078-4.129,9.719-21.417,1.962
		c-21.801-16.212-30.051-27.544-24.798-34.021c1.512-1.961,7.892,0,19.161,5.832C269.93,218.679,275.567,221.925,280.819,225.17z"/>
	<path fill="#281C23" d="M458.909,194.066c6.762-3.23,13.887-6.477,21.414-9.723c14.271-6.473,21.801-8.749,22.543-6.804
		c3.743,7.134-8.655,18.798-37.195,34.993c-21.8,7.137-29.306,6.146-22.543-2.896L458.909,194.066L458.909,194.066z"/>
	<path fill="#281C23" d="M440.876,239.751l19.159-3.887c12.016-1.945,18.395-1.945,19.184,0c1.489,7.112-10.526,14.58-36.091,22.357
		c-18.779,1.944-24.796-0.661-18.033-7.777L440.876,239.751L440.876,239.751z"/>
	<path fill="#657B9C" d="M378.881,66.725c23.287-3.246,43.598,5.521,60.866,26.246c14.271,18.158,23.284,40.497,27.028,67.07
		c3.765,30.465,0.383,61.239-10.123,92.349c-11.271,33.049-29.688,62.849-55.229,89.447c-26.307,26.554-48.107,42.108-65.374,46.639
		c-12.016,3.246-24.416,0.66-37.198-7.757c-15.78-14.914-27.794-38.241-36.067-70.007c-9.761-34.995-10.889-69.657-3.381-104.012
		c8.271-41.467,22.16-74.518,41.704-99.149C322.161,80.334,348.064,66.725,378.881,66.725z"/>
	<path fill="#9AA8BE" d="M378.881,70.614c22.543-2.586,41.704,6.163,57.484,26.245c14.291,17.497,22.927,39.213,25.925,65.128
		c3.74,29.164,0.382,58.962-10.143,89.427c-10.529,31.77-28.181,60.599-53.001,86.516c-25.541,25.914-46.213,41.134-61.994,45.685
		c-11.271,2.606-23.285,0-36.068-7.757c-15.038-14.25-26.307-36.628-33.813-67.07c-8.274-34.352-9.019-68.046-2.254-101.096
		c8.271-40.164,21.798-72.242,40.575-96.232C325.905,84.865,350.341,71.255,378.881,70.614L378.881,70.614z"/>
	<path fill="#657B9C" d="M349.576,70.614l40.577-3.889c19.521,1.944,36.812,11.995,51.849,30.134
		c17.291,20.083,26.309,44.072,27.052,71.932c2.255,60.286-15.035,112.758-51.849,157.49
		c-18.058,22.026-36.454,39.213-55.229,51.501c-21.058,13.609-38.323,17.187-51.851,10.693l-11.271-7.757
		c23.309,14.25,49.595,0.33,78.9-41.798c31.538-44.715,48.446-94.29,50.723-148.706C429.985,141.573,403.677,101.719,349.576,70.614
		L349.576,70.614z"/>
	<path fill="#657B9C" d="M314.633,92.971c6.02-5.833,13.548-11.334,22.543-16.526c18.057-10.361,34.197-13.277,48.466-8.747
		c19.522,5.832,35.303,16.193,47.342,31.105c6.018,7.135,9.783,13.919,11.271,20.413c-36.812,11.666-69.499,10.691-98.062-2.917
		L314.633,92.971z"/>
	<path fill="#281C23" d="M348.447,75.474V53.117c0.768-14.912,3.022-21.056,6.786-18.47c3.743,1.944,6.762,13.939,8.995,35.966
		C358.208,102.361,352.957,103.994,348.447,75.474L348.447,75.474z"/>
	<path fill="#281C23" d="M418.332,82.279c3.741-5.833,7.505-11.996,11.271-18.47c8.251-11.665,13.144-17.166,14.63-16.525
		c6.021,3.889,1.894,19.11-12.398,45.687C411.568,119.549,407.061,115.97,418.332,82.279z"/>
</g>
<path fill="#281C23" d="M417.204,72.558c13.523,7.134,23.672,16.855,30.433,29.161c2.254,5.832-4.149,10.05-19.161,12.637
	c-15.036,2.586-30.456,2.586-46.237,0c-16.522-3.246-30.43-8.106-41.704-14.581c-12.76-6.473-16.907-12.307-12.4-17.497
	c8.995-11.024,24.033-16.856,45.086-17.497C390.535,63.479,405.165,66.084,417.204,72.558z"/>
<path fill="#564C52" d="M376.625,79.363c6.021,3.246,10.146,7.445,12.423,12.636c2.256,6.474-7.146,8.106-28.18,4.86
	c-7.528-1.303-13.548-3.247-18.055-5.833c-6.02-2.584-7.893-5.19-5.637-7.776c3.764-4.53,10.143-6.805,19.185-6.805
	C364.588,75.805,371.353,76.777,376.625,79.363z"/>
<use xlink:href="#am"  width="4.742" height="2.518" x="-2.371" y="-1.258" transform="matrix(22.5409 0 0 -19.4392 342.5596 146.8838)" overflow="visible"/>
<use xlink:href="#ai"  width="5.225" height="2.636" x="-2.612" y="-1.318" transform="matrix(22.5429 0 0 -19.4409 328.1445 278.5576)" overflow="visible"/>
<use xlink:href="#ae"  width="2.58" height="2.113" x="-1.291" y="-1.057" transform="matrix(22.5357 0 0 -19.4348 318.3608 342.4639)" overflow="visible"/>
<use xlink:href="#ac"  width="5.972" height="2.887" x="-2.986" y="-1.444" transform="matrix(22.5434 0 0 -19.4414 338.666 212.3374)" overflow="visible"/>
</svg>
