<svg xmlns="http://www.w3.org/2000/svg" viewBox="0 0 768 430"><style>.a{fill:#EDC6AB;}.b{fill:#AF487C;}.c{fill:#C67D9E;}.d{fill:#914A16;}.e{fill:#EDEDED;opacity:0.4;}.f{fill:#252B03;}.g{fill:#59514B;}.h{fill:#FFF;}.i{fill:#FFF;opacity:0.1;}.j{fill:#F44437;}.k{fill:#F7D2E1;}.l{fill:#FFCE43;}</style><g><g><path d="M480.3 209l-22.4-0.7 1-30.7c0-1 0.8-1.7 1.8-1.7l18.9 0.6c1 0 1.7 0.8 1.7 1.8L480.3 209z" fill="#9CA5B7"/><rect x="464.3" y="174.4" transform="matrix(0.9995 0.0327 -0.0327 0.9995 5.9764 -15.2614)" width="11.9" height="1.9" fill="#7C777A"/><rect x="465.7" y="168.3" transform="matrix(0.9995 0.0327 -0.0327 0.9995 5.8499 -15.2758)" width="9.3" height="6" fill="#C6C6C6"/><polygon points="469 168.3 470 154.5 471.2 154.5 471.9 168.4 " fill="#AAA7A9"/></g><polygon points="274.9 339.2 229.7 401.4 326.9 406.9 352.4 348.9 " fill="#EA8E21"/><polygon points="450.5 304.5 511.6 303.3 543.7 359.9 477.1 359.9 " fill="#A6C42A"/><polygon points="316.7 328 453.5 331.3 473.2 391.8 275.2 387.4 " fill="#DCE6EA"/><path d="M437.6 306.2c0 0 5.8 4.4 5.1 12.2 -0.8 7.8-4.8 13.5-10.6 15.7 -5.8 2.1-15.4 1.1-15.4 1.1l-8.2-23.2c0 0-0.8-17.1 12.6-16.3 13.3 0.8 15.9 6.8 15.9 6.8L437.6 306.2z" class="a"/><path d="M413.8 309.4c0 0 8.1 6.9 8.8 13.2 0.6 6.2-3.5 15.3-6.7 18.7s-26.1 5.5-40.4-2.2 -31.1-24.8-40.9-27.1c-9.7-2.3-16-1.1-19.6-4.2 -3.6-3.1 10.5-1 19.9-3.7 9.3-2.7 15.4-2.6 16.9-1.8s41.8 2.7 42.7 2.7 11-0.4 11-0.4l5.6 1.9L413.8 309.4z" fill="#DDB397"/><path d="M343.3 291.1c0 0-5.4 0.4-8 3 -2.6 2.6-2.9 3.4-9.6 4.3 -6.7 0.9-16.7 2.1-18.8 3.3 -2 1.2 5.4 5.5 8.2 6 2.8 0.6 29.6-5.2 29.6-5.2L343.3 291.1z" class="b"/><path d="M408 266.9c0 0 0.2 5.7 0.8 6.3 0.6 0.6 17.9 14.6 20.7 18.5 2.8 3.9 4.3 5.3 4.7 5.3 0.4 0 3.8 1.7 4.8 4.7 1 3-0.1 4.7-1.4 4.6 -1.3-0.1-1.8-7.2-11.6-4.8 -9.8 2.4-13.1 6.3-13.1 6.3s-23.1-8.5-26.4-21.6c-3.3-13.1 7-18.1 7-18.1L408 266.9z" fill="#3E8793"/><path d="M389.3 271.4c0 0 1.8 4.1 1.8 9.5 0.1 5.5 0 7.6 0 7.6s18 14.5 19.1 15.2c1.1 0.7 2.1 0.5 2.9 1.9 0.8 1.5 0.7 3.7 0.7 3.7s-4.2-5.1-16.4 0.5c-12.2 5.5-14.3 11.4-14.3 13 0 1.7 0.1 2.8-2 2.7 -2.1-0.1-17.6-9.5-22.7-14.8 -5.1-5.3-15.1-14.5-12.4-31.9 2.7-17.4 24.5-12.5 24.5-12.5L389.3 271.4z" fill="#6EABBA"/><path d="M385.7 194.3c0 0-2.2-0.6-2.4-5.5 -0.2-4.9-15.6-4-15.6-4l-6.9 4.1 0.3 3.4 -0.4 3.1c0 0 4.5 12 18.8 9C393.9 201.4 385.7 194.3 385.7 194.3z" fill="#E0B190"/><path d="M423.6 216c0 0-9.3-7.9-14.8-11.4 -5.4-3.5-9.1-6.5-12.7-6.9 -3.6-0.4-4 15.1-0.6 22.6 3.4 7.5 9.5 16.1 16.5 18.8C418.9 241.8 423.6 216 423.6 216z" class="c"/><g><g><ellipse transform="matrix(0.8239 0.5667 -0.5667 0.8239 109.617 -217.8165)" cx="405.3" cy="67.5" rx="27" ry="25.4" class="d"/><path d="M408.7 67.1c0.1-0.2 0.3-0.3 0.4-0.5 -0.2 0.4-0.5 0.7-0.7 1.1C408.5 67.5 408.6 67.3 408.7 67.1z" class="e"/></g><g><ellipse transform="matrix(-0.7241 0.6897 -0.6897 -0.7241 577.7675 -70.0679)" cx="302.9" cy="80.5" rx="27" ry="25.4" class="d"/><path d="M299.9 81.2c-0.3-0.3-0.6-0.6-0.9-1 0.2 0.1 0.3 0.3 0.5 0.4C299.6 80.8 299.7 81 299.9 81.2z" class="e"/></g><path d="M380 190.6l-11 1.8c-25.8 4.1-50-13.5-54.1-39.2l-2.7-16.9c-4.1-25.8 13.5-50 39.2-54.1l11-1.8c25.8-4.1 50 13.5 54.1 39.2l2.7 16.9C423.3 162.2 405.7 186.5 380 190.6z" class="a"/><path d="M410.2 127.8c-0.2 0.6-1.1 1.8-2.2 2.2 0 0 0 0 0 0 0.4-0.6 0.8-1.4 1.4-2.3 1.9-3.1 2.1-4.8 1.9-4.8s-0.5 0.6-2.7 1.1c-1 0.2-5.6-3.6-5.6-3.6l0.9 2.8 1.9 5.4c-0.1 0.6 0.3 6.6 0.3 6.6s2-1.1 3.3-3.4c1.3-2.3 1.5-4.2 1.3-4.6C410.6 126.9 410.5 127.2 410.2 127.8z" class="f"/><path d="M379.2 135c0 0-3.7-14.4 10.7-17.6 14.4-3.2 17.7 9.8 17.5 13.8S379.2 135 379.2 135z" class="f"/><circle cx="393.3" cy="132.6" r="14.2" class="g"/><circle cx="393.3" cy="132.6" r="13.3" class="h"/><g><circle cx="394.5" cy="135.2" r="8.8" class="f"/><path d="M396 136.6c2.9-0.6 5-3 5.4-5.8 -1.8-2.8-5.2-4.3-8.6-3.6 -2.1 0.5-3.9 1.7-5 3.4 0 0.3 0.1 0.6 0.1 0.9C388.7 135.2 392.3 137.5 396 136.6z" class="i"/></g><path d="M320.7 142.1c0.4 0.5 1.7 1.4 2.8 1.5 0 0 0 0 0 0 -0.5-0.5-1.2-1-2.1-1.8 -2.7-2.4-3.4-3.9-3.3-4 0.1-0.1 0.7 0.4 2.9 0.2 1-0.1 4.2-5.2 4.2-5.2l0.1 2.9 -0.1 5.7c0.3 0.5 1.8 6.3 1.8 6.3s-2.2-0.5-4.2-2.2c-2-1.7-2.7-3.5-2.7-3.9C320 141.3 320.3 141.6 320.7 142.1z" class="f"/><path d="M352.4 139.2c0 0-1-14.8-15.6-13.4 -14.7 1.5-13.8 14.8-12.3 18.6C325.9 148.3 352.4 139.2 352.4 139.2z" class="f"/><circle cx="338.3" cy="141.3" r="14.2" class="g"/><circle cx="338.3" cy="141.3" r="13.3" class="h"/><path d="M377.3 156.6c0.3 1.9-3 4.7-7.5 5.5 -4.5 0.7-8.5-1-8.8-2.9s3.9 0.8 8.4 0C373.8 158.5 377 154.7 377.3 156.6z" fill="#BC6C61"/><path d="M382.5 164.7c-0.4 0.1-0.7 0.3-0.6 0.5 0.2 3.7-4.1 7-9.9 7.9l-0.4 0.1 -0.4 0.1c-5.8 0.9-11-0.8-11.9-4.5 -0.1-0.2-0.4-0.4-0.8-0.3 -0.4 0.1-0.7 0.3-0.6 0.6 1.1 4.1 7 6.6 13.5 5.5l0.4-0.1 0.4-0.1c6.6-1 11.4-5.2 11.2-9.4C383.3 164.8 382.9 164.6 382.5 164.7z" fill="#422522"/><g><circle cx="341.7" cy="143.6" r="8.8" class="f"/><path d="M343.2 145.1c2.9-0.6 5-3 5.4-5.8 -1.8-2.8-5.2-4.3-8.6-3.6 -2.1 0.5-3.9 1.7-5 3.4 0 0.3 0.1 0.6 0.1 0.9C335.9 143.6 339.5 145.9 343.2 145.1z" class="i"/></g><path d="M418 125.2c0 0 13.2-2.8 15.1 9 1.9 11.8-14.8 11.6-14.8 11.6L418 125.2z" class="a"/><path d="M312.5 142c0 0-13.4 1.4-11.5 13.3s17.7 6.5 17.7 6.5L312.5 142z" class="a"/><path d="M408.3 82.1C395.1 67.7 380.7 62 354.7 66.1c-26 4.1-49.6 18.6-51.3 39.6 -1.4 16.1 1.8 37.8 1.8 37.8l12.4 3.4c0 0-7.8-31.8 0.3-44.7 1.2-1.9 3-3.8 5-5.5 -2.7 11.3 0.8 25.8 0.8 25.8l75.8-11.9c0 0-0.4-7.1-4.8-19.7 -0.8-2.3-1.7-4.3-2.7-6.1 4.7 2.8 10.8 7.4 14.5 13.8 6.6 11.5 8.6 35 8.6 35l7.5-8.8C422.6 124.9 421.4 96.4 408.3 82.1z" class="d"/><path d="M392 85c0 0 6.2 9.4 8.3 17.9 2.1 8.5 2 12.6 2 12.6l8.5 3.8c0 0 2-2.3-1.8-15 -3.8-12.8-9-20.5-9-20.5L392 85z" class="d"/><path d="M324.3 95.6c0 0-3 10.8-2.5 19.6 0.6 8.8 2 12.6 2 12.6l-6.9 6.2c0 0-2.6-1.5-2.9-14.9 -0.2-13.3 2.3-22.2 2.3-22.2L324.3 95.6z" class="d"/><circle cx="399.4" cy="131.9" r="2.6" class="h"/><circle cx="391.5" cy="140.5" r="1.2" class="h"/><circle cx="346.1" cy="139.9" r="2.6" class="h"/><circle cx="338.2" cy="148.5" r="1.2" class="h"/><path d="M399.3 115.7c-1.7-2.1-5.4-2.9-7.9-3.1 -3.3-0.4-6.2 0.3-9.4 0.8 -2.7 0.4-1.4 4.5 0.8 3.4 2.5-1.2 5.6-1.3 8.3-1.2 1.4 0.1 2.7 0.2 4.1 0.4 1.3 0.2 2.5 0.6 3.8 0.5C399.3 116.4 399.5 116 399.3 115.7z" class="d"/><path d="M326.5 127.6c0.9-2.5 4.2-4.4 6.5-5.5 3-1.4 6-1.7 9.2-2.2 2.7-0.4 2.8 3.8 0.3 3.5 -2.7-0.3-5.7 0.5-8.3 1.4 -1.3 0.5-2.5 1-3.8 1.7 -1.2 0.6-2.2 1.4-3.5 1.7C326.7 128.3 326.4 127.9 326.5 127.6z" class="d"/><g><rect x="371.2" y="57" transform="matrix(0.9914 0.131 -0.131 0.9914 11.3332 -48.6563)" width="8.7" height="9.6" fill="#B72018"/><path d="M380.5 57.6l10.2-5c2-1 4.3 0.6 4 2.9l-2.5 19.3c-0.3 2.4-3.3 3.3-4.8 1.5l-8.1-9.1L380.5 57.6z" class="j"/><path d="M371.8 56.5l-8.5-7.5c-1.7-1.5-4.3-0.5-4.6 1.7l-2.5 19.3c-0.3 2.4 2.3 4 4.3 2.7l10.1-6.7L371.8 56.5z" class="j"/></g></g><path d="M429.4 221.3c0 0 12.1 6.7 13.4 5.6 1.3-1.1 11.4-15.4 11.4-16.7 0-1.3-1.5-8.8 0-11.5 1.5-2.7 2-4.7 2.3-6 0.3-1.3 1.6-1.9 2.6 0 1 1.9-0.5 5.7 0.4 7.3 2.4 4.3 0.4 5.6 2.4 6.2 1.9 0.6 6.9-2.2 9.5 2.4 2.6 4.6 2.9 15.6-1.1 16 -4 0.4-5.1 1.8-6.3 3.5 -1.1 1.7-6 12.5-10.3 18.1 -4.3 5.6-5.1 6.4-9.1 5.8 -4-0.6-16.8-5.5-21.9-10.2C417.6 237.1 429.4 221.3 429.4 221.3z" class="a"/><path d="M422.4 214.2c0 0 9.7 5.2 10.4 6.1 0.6 0.9-5.6 7.1-7.1 11.3 -1.6 4.2 0.3 11.5-0.6 12.8 -0.9 1.3-12.3-2.1-12.8-3.2 -0.5-1-0.5-11.9 2.6-17.6S422.4 214.2 422.4 214.2z" class="k"/><path d="M388.7 195.1l8.2 2.7c0 0 6.7 7.8 10.3 30.9 3.5 23.1 1.9 41.5 1.9 41.5s-8.2 4.8-25.8 6.5c-17.6 1.7-31.1-1-31.1-1l-8.8-72.7 1.3-4.1 9.4-2.3c0 0 14.6 12.5 26.4 9.2C392.2 202.5 388.7 195.1 388.7 195.1z" class="b"/><path d="M360.8 195.4c0 0 4.1 5.3 9.8 7.5 5.7 2.2 13.1 0.3 14.4-2.2 1.3-2.5 0.8-6.4 0.8-6.4s7.8 1 8.8 6.5c1 5.5-3.1 8.8-6.7 8.7 -3.6-0.1-7.4-3.8-7.4-3.8s-1.7 9.1-13.8 4.5c-12.1-4.5-13.5-13.6-13.5-13.6L360.8 195.4z" class="k"/><polygon points="249.2 323 325.5 325.6 303.2 355.5 224.3 350.3 " fill="#4D82D6"/><polygon points="454.2 317.9 502 320.7 486.2 354.7 437.9 349.3 " fill="#7C5931"/><polygon points="463.4 328 480.3 329.1 474.6 342.8 458.1 340.8 " fill="#DBAF83"/><polygon points="454 374.4 515.3 345.4 523.7 386.4 " fill="#C64228"/><ellipse cx="499.5" cy="367" rx="5.3" ry="3.7" fill="#EAB0A9"/><path d="M317.5 359.9c0 0 6.2-9.3 23.2-10.1 16.9-0.8 19.5 13.8 15.2 21.8 -4.3 8-16 11.9-30.3 9.3C302.3 376.9 317.5 359.9 317.5 359.9z" fill="#EAA711"/><polygon points="354.1 360.9 378.8 353.7 379.7 358 354.1 364 " class="l"/><polygon points="355.5 366.8 377.9 371.4 376.4 376.5 354.1 368.9 " class="l"/><polygon points="352.4 372.4 371.3 381.8 368.2 385.7 350.8 374 " class="l"/><polygon points="346.7 376.5 361 395.2 357.7 397.5 344.6 377.7 " class="l"/><polygon points="341.1 377.7 344.6 398.3 341.1 399.1 338.9 377.7 " class="l"/><polygon points="335.2 377.7 327.3 395.8 323.4 394.6 331.9 377.7 " class="l"/><polygon points="329.3 376.5 317.1 399.1 312.6 397.5 327.3 376.5 " class="l"/><polygon points="323.4 376.5 303.3 391.8 296.5 388.4 320.9 374.9 " class="l"/><polygon points="317.7 374 294.6 377.7 294.6 374.9 316.7 371.6 " class="l"/><polygon points="316.2 369.7 291.1 365.8 294.6 361.7 317.7 366.8 " class="l"/><polygon points="317.7 363.3 298.5 359.9 299.8 356.7 319.1 361.7 " class="l"/><polygon points="319.1 358.9 302.9 347.3 306.1 344.2 321.8 358.9 " class="l"/><polygon points="323.4 356.7 317.7 341.5 321.8 340.5 325.5 357.4 " class="l"/><polygon points="329.3 353.7 325.5 335.4 329.3 335.4 331.7 355.5 " class="l"/><polygon points="350.8 357.4 371.3 347.3 366 345.4 349.5 355.5 " class="l"/><path d="M333.4 249.2c0 0-3.5-24-2.3-33 1.2-9 11-17 14.8-17.4 3.8-0.4 10.1 7.3 12.7 23.4 2.6 16.1 1.3 28 1.3 28L333.4 249.2z" class="c"/><path d="M358.1 253.7c0 0 3 15.8 3.6 23.9 0.6 8.1-0.2 44.7 0.9 48 1.1 3.3 5.5 11.1 5.5 13.8 0 2.7-0.5 7.1 0 8.9 0.5 1.8 0 4.6-2.3 3.4 -2.3-1.2-2-5.4-3.4-8.2 -1.4-2.8-5.5-2.4-6.3-0.8 -0.8 1.6-4.4 7.5-6.9 12 -2.5 4.5-5 8.3-7 6.9 -2-1.4 2.3-13.4 2.3-13.4s-3.4 10.3-3.9 10.3 -3.3 0.7-2.8-3.8c0.5-4.4 0.7-5.7 0.7-5.7s-1.2 5.9-1.9 5.8c-0.7-0.1-2.4-0.6-2.3-4.3 0.1-3.8 0-4.6 0-4.6s-1.4-0.8 0-5.5c1.4-4.8 10.6-13.9 10.5-19.5 -0.1-5.6-4.6-31.6-6.4-44.3 -1.8-12.8-3.2-21-3.2-21L358.1 253.7z" class="a"/><path d="M327.7 247c0 0 3.7 11.5 5.7 11.3 2-0.2 18.6 0.1 21.9-0.6 3.3-0.8 4.5 0 5.4-1.3 0.9-1.3 0.8-11.7 0-11.7 -0.8 0-7.7-0.8-18.3 0C331.9 245.4 327.7 247 327.7 247z" class="k"/><path d="M484.3 202.6c0 0 1.6-2.6 1.1-5 -0.6-2.3-7.4-3-10.5-2.2 -3.1 0.8-12.4 2.2-13.5 5.8 -1.1 3.7 4.4 3.7 8.5 2.8 4.1-0.9 4.9-0.7 4.9-0.7s-9.2 1.7-11.5 2.9 -2.2 4.4-0.1 5.1c2.1 0.7 5.1 0.2 5.1 0.2s-4 1-4.2 2c-0.2 1 0.2 3 3.5 3.4 3.2 0.5 3.2 0.5 3.2 0.5s-3.6 0.6-4 1.2 -1.9 2.8 1.3 4.4c3.2 1.6 13.7 4.2 16.8 1.4 3.1-2.9 1.2-5.7 1.2-5.7s2.8-1.9 2.9-4.8c0.1-2.9-3.6-3.2-3.6-3.2s2.6-1.7 1.9-4.4S484.3 202.6 484.3 202.6z" fill="#FFD8BD"/><circle cx="382.8" cy="214.6" r="3.1" class="k"/><circle cx="385" cy="225.5" r="3.1" class="k"/><polygon points="460.4 183.2 479.9 184 479.5 194.1 459.8 193.3 " class="h"/></g><g><path d="M464 185.5l0.4 0 -0.2 4.2 2.2 0.1 0 0.5 -2.7-0.1L464 185.5z" class="b"/><path d="M467.7 185.6l0.4 0 -0.2 4.6 -0.4 0L467.7 185.6z" class="b"/><path d="M471 185.7l0.4 0 -0.1 3.3c0 0.4-0.1 0.8-0.4 1s-0.5 0.4-0.9 0.4c-0.3 0-0.5-0.1-0.6-0.2 -0.2-0.1-0.3-0.3-0.5-0.5l0.4-0.2c0.2 0.3 0.4 0.5 0.7 0.5 0.2 0 0.4-0.1 0.6-0.2 0.2-0.2 0.2-0.4 0.3-0.7L471 185.7z" class="b"/><path d="M472.7 185.8l0.8 0 1.2 3.8 1.5-3.7 0.8 0 -0.2 4.6 -0.4 0 0.2-4.2 -1.7 4.2 -0.3 0 -1.4-4.3 -0.2 4.2 -0.4 0L472.7 185.8z" class="b"/></g></svg>