<svg xmlns="http://www.w3.org/2000/svg" viewBox="0 0 768 430"><style>.a{fill:#E3941D;}.b{fill:#D45D10;}.c{fill:none;}.d{fill:#814904;}.e{fill:#E38F1D;}.f{fill:#FCE6AE;}.g{fill:#428000;}.h{fill:#E0D9D9;}</style><path d="M524.3 259.8c-6.9 15.7-26.3 33.1-38 43.6l-1.2 1c-3.8 3.4-6.1 7.1-7.5 10.8 2.1 1.7 4.9 3.6 8.3 5.5 0.9-1.2 2.2-2.4 3.2-3.8 5.1-6.2 12.8-9.7 16.8-16.5 -1.4 3.6-2.7 7.2-4.1 10.9 -1.6 4.6-2.4 9.2-2.7 14 3.1 0.5 6.3 0.7 9.5 0.9 9.3 0.6 18.8 1.2 23.9 7.8 6.6 8.6 11.5 20.6 13.1 28.9l0 0c1.1 4.3 1.1 8.9 1.1 8.9 0 0-0.3-2-0.9-4.6 -1 0.3-1.9 0.7-2.7 1.1 -1.4 0.7-2.7 1.3-4.5 1.4 -0.1 0-0.3 0-0.5 0 -2.2 0.1-9 0.4-11.2 6.1 -1.6 3.6-1.1 6.6-0.2 8 0.5 0.8 1.3 1.3 2.1 1.2 2.5-10.6 10.5-10.5 10.6-10.5 0 0-7.6 0.6-9.9 10.8 1.9 2.7 8 4 18.6 4 0.5 0 1 0 1.5 0 0.4 0 0.8 0 1.3 0 0.9 0 1.8 0 2.7 0 8.9 0.1 16.8 0.2 19.3-8.9 1.5-5.6 1.4-15.1 0.8-25 -7.1 6.4-13.7 11.9-23.2 11.8 -0.4 0-0.8 0-1.2 0 0.4 0 0.8 0 1.2 0 9-0.1 11.8-8.8 16.5-14.9 1.1-1.7 3.5-2.9 6.2-3 -0.4-4.7-0.9-9.4-1.4-13.5 -6.1-0.7-13 0-18.7 3.1 5.3-5.1 9.6-11.5 17.6-12 -1.7-12-4.6-18.2-16.1-27.4 -1.8 2-3.7 4-6.1 5.4 -10.6 5.7-21.9-1.4-31.1 5 -2.8 2.1-6.4 5-6.4 9.2 0-12 9.2-17.7 21.2-19.1 4.2-1.2 5.9-7 7.1-12.2C530.6 280.2 527.2 274 524.3 259.8zM539.5 323.3c0.9-5.6 9-6.8 14.7-7.8 -9.9 2.8-7.1 14.9-9.2 23.3C543.6 333.7 538.7 328.6 539.5 323.3z" class="a"/><path d="M553.2 338.9c5.6-3.1 12.6-3.9 18.7-3.1 -0.2-2.2-0.5-4.3-0.7-6.1 -0.1-1-0.2-1.9-0.4-2.8C562.8 327.4 558.4 333.8 553.2 338.9z" class="b"/><path d="M506 300.4c-4 6.8-11.8 10.3-16.8 16.5 -1 1.5-2.3 2.6-3.2 3.8 2.4 1.3 5.1 2.5 8 3.4 1.6 0.5 3.4 0.9 5.2 1.1 0.3-4.7 1.1-9.4 2.7-14C503.3 307.6 504.6 304 506 300.4z" class="b"/><path d="M567 352.2c-4.8 6.1-7.6 14.8-16.5 14.9 9.5 0.2 16.1-5.4 23.2-11.8 -0.1-2-0.3-4.1-0.5-6.1C570.5 349.4 568.1 350.6 567 352.2z" class="b"/><path d="M550.5 367.1c-0.4 0-0.8 0-1.2 0C549.7 367.1 550.1 367.1 550.5 367.1z" class="b"/><path d="M554.3 315.5c-5.8 1.1-13.8 2.2-14.7 7.8 -0.9 5.4 4 10.4 5.5 15.5C547.2 330.3 544.4 318.3 554.3 315.5z" class="b"/><path d="M532.4 299.9c-12 1.4-21.2 7.1-21.2 19.1 0-4.2 3.5-7.1 6.4-9.2 9.2-6.4 20.5 0.7 31.1-5 2.4-1.5 4.2-3.4 6.1-5.4 -1.7-1.4-3.7-2.9-5.8-4.4 -3.7-2.7-6.8-5-9.4-7.3C538.2 292.9 536.6 298.7 532.4 299.9z" class="b"/><path d="M528.1 228.7c0 0 0.1 0.4 0.3 1 0.2 0.3 0.4 0.7 0.5 1.2 2.2-1.2 4.3-2.4 6.5-3.7 1-2.4 2.3-4.6 4.1-6.6 -2.1 0-3.5 1.4-5.7 1.4 1-0.5 1.6-1.3 2.1-2.2 0.6 0-1.5-0.3-1.9 0.1 0.6-1.8 1.3-3 2.6-4.3 -2.1 0-2.8 3.5-5 3.5 1.4-2.1 2.8-3.5 2.1-6.4 -1.4 0.7-2.1 2.1-3.5 2.8 0-1.4 0-2.8 0-4.2 -1.4 1.4-2.8 2.1-4.2 3.5 0-2.1 2.1-4.2 2.1-6.4 -2.1 0.7-4.2 1.4-5.7 2.8 0.7-2.1 2.1-4.2 2.1-7.1 -1.4 0-2.1 2.1-4.2 1.4 0.7 0 1.1-0.9 1.5-1.7 -0.8 0.4-1.8 0.6-2.9 0.3 1.4-1.4 2.1-4.2 4.2-5.7 -1.4 0.7-2.8 2.1-5 1.4 0.5-1.4 1.5-2.4 2.2-3.6 -3.6 1-6.4 1.2-8.3 1.2 -1.2 0-2.1-0.1-2.7-0.2 0.8 0.9 1.6 1.8 2.3 2.7 2.7 3.5 4.6 6.8 5.9 9.3 1.5 2.7 2.3 4.5 2.3 4.5L528.1 228.7z" class="a"/><path d="M580.5 129.4c0-1 1-1.6 1.4-2.4 0 1.7-0.1 3.5-0.7 5.2 0.7-2.1 1.4-3.5 2.8-5.7 0 1.4 0 2.1 0 3.5 0.7-1.3 1.4-2.1 1.4-2.8 0.7 2.1-0.7 5 0.7 7.1 0.5-2 1.4-3.5 2.1-5.7 0.1 1.7 0 3.4 0.5 4.8 0.3-0.9 0.6-1.8 1-2.4 0.1 1.1 0.3 2.2 1.4 3.3 0-1.4 0.7-2.1 1.4-2.8 0.7 1.4-1.4 3.5 0.7 5 0.7-2.8 1.4-5 2.1-7.8 0 2.8 0 5 0 7.8 0.7-1.4 0.7-2.8 2.1-4.2 -0.7 1.4 0.7 3.5 0.7 5 0-1.4 0.7-2.1 1.4-3.5 0.7 2.1 0 4.2 1.4 5.7 1.2-0.8 1.4-2.4 1.4-4.2 0.8 2.3 1.4 3.5 0.7 5.7 0.6-1.7 1.5-2.9 1.9-4.3 0 1.3 0.5 2.6 0.8 3.8 -0.1 0.3 0.8-1.2 0.8-1.6 0.5 1.6 0.7 3.3 0.8 5 2.9-11 3.8-22.3 2.4-33.5 -0.3-2.1-0.6-4-1-5.9 -0.4 1.1-0.8 2.2-0.8 3.3 -0.7-1.4 0-3.5-2.1-3.5 0 1.4 0 2.1 0 3.5 -1.4-0.7-1.8-3.7-2.5-3.7 -0.9 0.8-0.4 3.7-1.1 5.1 -0.7-2.1-1.4-4.2-3.5-5.7 0 0.7-0.4 3-0.5 4 -1-2.7-1.7-3.4-2.3-4 -0.7 0.7-0.5 1.2-0.7 2.1 -0.7-0.7-2-2.4-2.1-2.8 -0.7 0.7-0.7 3.5-0.7 5 -0.7-0.7-1.4-2.1-1.4-2.8 -1.4 2.1-0.7 4.2-2.1 6.4 0-1.4-1.4-4.2-1.4-4.2 -0.7 1.4-1.4 3.5-1.4 5.7 0-1.4-0.7-2.1-1.4-2.8 0 0-0.7 2.1-1.4 2.8 0-1.4-0.7-2.1-1.4-2.1 -1.1 2.2-1.4 4.8-2.1 7.2 -0.1 4-0.5 8-1.4 12 0.9-1.1 1.8-2.2 2-3.5C580.5 127.2 580.5 128.4 580.5 129.4z" class="a"/><path d="M564.9 161.2c0.7 1.4-1.4 1.4-0.7 2.8 0.7-1.4 2.1-2.8 3.5-3.5 0 1.4-0.7 2.1-1.4 3.5 0.7-1.4 3.5-1.4 3.5-3.5 0.7 1.4-1.4 1.4-0.7 2.8 0.7-0.7 2.1-0.7 2.8-2.1 -0.7 1.4-1.4 2.8-2.8 4.2 1.4 0.7 2.1-0.7 3.5-0.7 0 1.4-2.1 2.1-2.1 4.2 1.4-0.7 2.8-2.1 4.2-2.8 -0.7 0.7-1.4 1.4-1.4 2.8 0.7-1.4 2.1-1.4 2.8-2.1 0 1.4-2.1 2.8-2.1 4.2 1.4-2.1 3.5-3.5 5.7-5 -0.6 1.9-1.8 2.7-2.6 4.3 -0.2 0.2 1.9-0.4 1.9-1.5 0.7 1.4-1.4 2.1-0.7 3.5 0.7-1.4 2.1-1.4 2.8-2.1 0 0.8-0.2 1.4-0.6 1.9 -0.3 0.3 1.1-0.9 2-0.5 -1.4 1.4-2.8 2.8-2.8 5 0.7-2.1 2.8-1.4 3.5-2.8 -1.1 1.7-1.4 3.1-1.5 4.5 0.2-1.6 2.2-2.4 2.9-3.1 0 1.4-0.8 3.5-1.1 5 0.7 0 1.1-0.7 1.8-1.4 0.7 1.4-1.3 3.4-1.4 3.5 0.7 0.7 2.1-0.6 2.1-0.7 0.2 0.9 0.2 1.7 0.1 2.6 6.4-8.1 11.6-16.5 15.6-25.1 -0.1-1.2-0.5-2.5-1.5-3.7 0.6 1.2-0.3 1.9-0.6 2.5 0 0.1-0.1 0.2-0.1 0.3 0-0.1 0-0.2 0.1-0.3 0.4-2-1.5-3.3-0.8-5.4 -1.4 0-1.4 1.4-2 2.2 0-1.4 0-2.6-0.3-3.7 0.3-0.5-1.5 2.2-2 3.6 0-1.4 0-3.5 0-5 -1.4 0.7-1.4 2.1-2.1 2.8 -0.7-1.4 0.4-2.9 0.7-3.5 -1.4-0.7-2.1 2.8-4.2 3.5 0-2.1 0-4.2 0-6.4 -1.4 0.7-1.4 2.8-2.8 3.5 -0.7-1.4 0.7-2.8-0.7-4.2 0.5 1.1-1 1.8-1.4 2.6 0-1.1 0-2.2 0-3.3 -0.7 1.4-2.1 2.8-2.8 5 -0.7-1.4 0.7-2.8-0.7-4.2 0 1.4-2.1 1.4-2.8 2.8 0.7-1.4 2.1-2.8 1.4-5 -1.4 0.7-2.1 2.1-2.8 3.5 0-2.1 2.1-3.5 1.4-5.7 -0.7 0.7-1.4 1.4-2.1 2.8 0-1.4 1.4-2.1 0.7-3.5 -0.6 0.9-1.3 1.6-2.1 2.2 -2.9 6.7-6.9 13.5-11.9 20.3C563.2 162.8 564.2 162.3 564.9 161.2z" class="a"/><path d="M533.8 194.5c1.4 0.7 2.8-0.7 4.2-0.7 -1.4 0-1.4 2.1-2.8 2.1 3.5 0.7 5-2.8 7.8-3.5 -1.4 1.4-2.1 3.5-3.5 5 1.4 0.7 2.1-1.4 3.5-1.4 -0.7 1.4-2.1 2.1-2.8 3.5 2.1-0.7 4.2-0.7 5.7-2.8 -0.7 2.1-2.8 3.5-4.2 5 1.4 0.7 1.4-1.4 2.8-0.7 -0.7 0.7-1.4 2.1-2.1 2.8 1.2 0 2.9 0 4.2-0.4 -1.7 0.8-3 2-4.2 3.3 2.8 0 5-2.1 7.1-2.1 0 0.7-1.9 3.3-2.7 3.3 1.4 0.4 4.1-1.2 4.8-2.6 0.7 2.1-1.4 3.5-2.1 5.7 2.1 0.7 2.8-2.1 5-1.4 -1.4 0.7-2.8 1.4-3.5 2.8 1.4 0.7 2.1-0.7 3.5-0.7 0 1.4-0.3 2.6-0.8 3.8 7.8-5.7 14.9-11.8 21.2-18.1 0.4-1.6 0.6-3.2 0.8-4.8 -2.1 0-2.1 2.8-4.2 2.8 0.7-1.4 1.4-2.8 2.1-4.2 -2.1 0.7-4.2 2.1-5.7 3.5 0.7-2.6 1.9-4.7 3.8-6.1 -0.8 0.4-1.8 0.6-2.4 1.8 -0.7-1.4 2.1-2.8 0-2.8 -0.7 0-2.1 1.4-3.5 2.1 0.7-1.4 1.4-2.8 2.8-4.2 -1.4 0.7-2.8 1.4-4.2 1.4 0.7-1.4 2.8-2.8 2.1-4.2 -0.7-0.7-2.1 2.1-3.5 1.4 1.4-1.4 2.1-2.8 3.5-4.2 -2.1 0.7-3.5 1.4-5 3.5 0-1.4 2.1-2.1 1.4-3.5 -1.4 0.7-2.1 1.4-3.5 2.1 -0.7-2.1 2.1-2.8 1.4-5 -1.3 0.7-2.6 1.9-4 2.1 -0.1 0-0.2 0-0.3 0 0.1 0 0.2 0 0.3 0 1.1-0.3 1.2-2.1 2.6-2.8 -1.4 0.7-2.8 0.7-4.2 0.7 0.7-2.1 3.5-2.8 3.5-5 -2.2 0.6-4 2.8-6.4 3.4 -7.3 7.8-14.1 13-20 16.3 1.4-0.1 2.8-0.2 4.4-0.6C535.2 191.7 535.2 193.8 533.8 194.5z" class="a"/><path d="M578.3 94.8c1.4 0.7 2.1 2.1 2.1 3.5 0.7-1.4-0.5-3.6 0.5-5.8 0.4 2 1.7 2.2 1.7 2.9 0-1.4 0.7-3.5 0.7-3.5 0.8 2 1.4 2.8 2.8 3.5 0.7-2.1-1.4-5 0.7-7.1 0 2.8 1.4 5.7 2.1 8.5 0-2.1 0-4.2 0.7-6.4 1.4 1.4 2.1 2.8 2.1 4.2 1.4-0.7 0.8-2 0.7-3.5 0.7 0 2.8 3.5 4.2 5 0-2.8 0-5.7 0-8.5 1.4 2.8 2.1 5 3.5 7.8 0-1.4 1.4-3.5 0.7-5 2.1 0.7 2.1 2.8 2.8 4.2 0.2-1.3 0.4-2.6 0.6-3.9 -4.3-9.5-10.3-16.3-15.5-20.8 -6.3-5.5-13.7-9.9-21.1-12.4 0.3 1.4 0.4 2.8 1.9 4.2 0 0.7-2.8-1.7-4.2-1.7 0 0.7 0 2.1 0 2.8 -0.7-1.4-2.8-0.7-2.8-2.1 -0.7 2.8 2.8 3.5 2.8 5.7 -2.1-0.7-3.5-2.1-5.7-3.5 0 2.1 2.1 2.8 2.1 5 -1.4-1.4-2.8-2.1-5-2.1 0.7 2.1 2.8 3.5 2.1 5.7 -0.7-1.4-2.1-2.1-3.5-2.8 0 1.2 0 2.2 0 3.2 7.6 5.9 16.2 13.4 19.4 21.4 1.1 2.6 1.9 5.3 2.6 7.9C578.1 98.9 578.9 97.1 578.3 94.8z" class="a"/><path d="M556.7 178.9c-0.1 0-0.2 0-0.3 0" class="c"/><path d="M555 176.8c1.4 0 2.8 0 4.2-0.7 -1.3 0.7-1.4 2.5-2.6 2.8 1.3-0.2 2.6-1.4 4-2.1 0.7 2.1-2.1 2.8-1.4 5 1.4-0.7 2.1-1.4 3.5-2.1 0.7 1.4-1.4 2.1-1.4 3.5 1.4-2.1 2.8-2.8 5-3.5 -1.4 1.4-2.1 2.8-3.5 4.2 1.4 0.7 2.8-2.1 3.5-1.4 0.7 1.4-1.4 2.8-2.1 4.2 1.4 0 2.8-0.7 4.2-1.4 -1.4 1.4-2.1 2.8-2.8 4.2 1.4-0.7 2.8-2.1 3.5-2.1 2.1 0-0.7 1.4 0 2.8 0.6-1.2 1.7-1.4 2.4-1.8 -1.9 1.4-3.2 3.4-3.8 6.1 1.4-1.4 3.5-2.8 5.7-3.5 -0.7 1.4-1.4 2.8-2.1 4.2 2.1 0 2.1-2.8 4.2-2.8 -0.2 1.7-0.5 3.3-0.8 4.8 4.2-4.2 8-8.5 11.5-12.8 0.1-0.9 0.1-1.7-0.1-2.6 0 0.1-1.4 1.4-2.1 0.7 0.1-0.2 2.1-2.1 1.4-3.5 -0.7 0.7-1.1 1.4-1.8 1.4 0.3-1.5 1.1-3.5 1.1-5 -0.7 0.7-2.8 1.5-2.9 3.1 0.2-1.4 0.5-2.8 1.5-4.5 -0.7 1.4-2.8 0.7-3.5 2.8 0-2.1 1.4-3.5 2.8-5 -0.9-0.4-2.3 0.8-2 0.5 0.3-0.5 0.6-1.1 0.6-1.9 -0.7 0.7-2.1 0.7-2.8 2.1 -0.7-1.4 1.4-2.1 0.7-3.5 0 1.1-2 1.6-1.9 1.5 0.8-1.6 1.9-2.4 2.6-4.3 -2.1 1.4-4.2 2.8-5.7 5 0-1.4 2.1-2.8 2.1-4.2 -0.7 0.7-2.1 0.7-2.8 2.1 0-1.4 0.7-2.1 1.4-2.8 -1.4 0.7-2.8 2.1-4.2 2.8 0-2.1 2.1-2.8 2.1-4.2 -1.4 0-2.1 1.4-3.5 0.7 1.4-1.4 2.1-2.8 2.8-4.2 -0.7 1.4-2.1 1.4-2.8 2.1 -0.7-1.4 1.4-1.4 0.7-2.8 0 2.1-2.8 2.1-3.5 3.5 0.7-1.4 1.4-2.1 1.4-3.5 -1.4 0.7-2.8 2.1-3.5 3.5 -0.7-1.4 1.4-1.4 0.7-2.8 -0.7 1-1.7 1.6-2.7 2 -1.7 2.3-3.5 4.6-5.5 7 -1.5 1.8-3 3.5-4.5 5.1 2.4-0.6 4.2-2.9 6.4-3.4C558.5 174 555.7 174.7 555 176.8z" class="b"/><path d="M599.6 158.1c0 0.1-0.1 0.2-0.1 0.3" class="c"/><path d="M576.2 140.7c0.7 1.4-0.7 2.1-0.7 3.5 0.7-1.4 1.4-2.1 2.1-2.8 0.7 2.1-1.4 3.5-1.4 5.7 0.7-1.4 1.4-2.8 2.8-3.5 0.7 2.1-0.7 3.5-1.4 5 0.7-1.4 2.8-1.4 2.8-2.8 1.4 1.4 0 2.8 0.7 4.2 0.7-2.1 2.1-3.5 2.8-5 0 1.1 0 2.2 0 3.3 0.4-0.9 2-1.6 1.4-2.6 1.4 1.4 0 2.8 0.7 4.2 1.4-0.7 1.4-2.8 2.8-3.5 0 2.1 0 4.2 0 6.4 2.1-0.7 2.8-4.2 4.2-3.5 -0.3 0.6-1.4 2.1-0.7 3.5 0.7-0.7 0.7-2.1 2.1-2.8 0 1.4 0 3.5 0 5 0.5-1.5 2.3-4.1 2-3.6 0.2 1.2 0.3 2.4 0.3 3.7 0.6-0.9 0.6-2.2 2-2.2 -0.7 2 1.2 3.4 0.8 5.4 0.3-0.6 1.2-1.3 0.6-2.5 1 1.2 1.4 2.5 1.5 3.7 2.4-5.2 4.3-10.4 5.7-15.7 -0.1-1.7-0.3-3.4-0.8-5 0 0.5-0.9 2-0.8 1.6 -0.2-1.3-0.8-2.6-0.8-3.8 -0.4 1.5-1.4 2.7-1.9 4.3 0.7-2.1 0.1-3.4-0.7-5.7 0 1.8-0.2 3.4-1.4 4.2 -1.4-1.4-0.7-3.5-1.4-5.7 -0.7 1.4-1.4 2.1-1.4 3.5 0-1.4-1.4-3.5-0.7-5 -1.4 1.4-1.4 2.8-2.1 4.2 0-2.8 0-5 0-7.8 -0.7 2.8-1.4 5-2.1 7.8 -2.1-1.4 0-3.5-0.7-5 -0.7 0.7-1.4 1.4-1.4 2.8 -1.1-1.1-1.3-2.2-1.4-3.3 -0.3 0.6-0.7 1.5-1 2.4 -0.5-1.4-0.4-3.1-0.5-4.8 -0.7 2.1-1.6 3.7-2.1 5.7 -1.4-2.1 0-5-0.7-7.1 0 0.7-0.7 1.5-1.4 2.8 0-1.4 0-2.1 0-3.5 -1.4 2.1-2.1 3.5-2.8 5.7 0.6-1.7 0.7-3.5 0.7-5.2 -0.4 0.8-1.4 1.4-1.4 2.4 0-1 0-2.3 0-3.4 -0.2 1.3-1.1 2.4-2 3.5 -0.9 4.4-2.4 8.9-4.3 13.4C574.9 142.3 575.6 141.6 576.2 140.7z" class="b"/><path d="M523.2 198.7c-2.1 1.4-2.8 4.2-4.2 5.7 1.1 0.4 2.1 0.1 2.9-0.3 -0.4 0.8-0.8 1.7-1.5 1.7 2.1 0.7 2.8-1.4 4.2-1.4 0 2.8-1.4 5-2.1 7.1 1.4-1.4 3.5-2.1 5.7-2.8 0 2.1-2.1 4.2-2.1 6.4 1.4-1.4 2.8-2.1 4.2-3.5 0 1.4 0 2.8 0 4.2 1.4-0.7 2.1-2.1 3.5-2.8 0.7 2.8-0.7 4.2-2.1 6.4 2.1 0 2.8-3.5 5-3.5 -1.3 1.3-2 2.5-2.6 4.3 0.4-0.4 2.5-0.1 1.9-0.1 -0.5 0.9-1.2 1.7-2.1 2.2 2.1 0 3.5-1.4 5.7-1.4 -1.7 2-3 4.2-4.1 6.6 6.4-3.8 12.5-7.8 18.2-12 0.5-1.1 0.8-2.4 0.8-3.8 -1.4 0-2.1 1.4-3.5 0.7 0.7-1.4 2.1-2.1 3.5-2.8 -2.1-0.7-2.8 2.1-5 1.4 0.7-2.1 2.8-3.5 2.1-5.7 -0.7 1.4-3.4 3.1-4.8 2.6 0.7 0 2.7-2.6 2.7-3.3 -2.1 0-4.2 2.1-7.1 2.1 1.3-1.2 2.5-2.5 4.2-3.3 -1.3 0.4-3 0.4-4.2 0.4 0.7-0.7 1.4-2.1 2.1-2.8 -1.4-0.7-1.4 1.4-2.8 0.7 1.4-1.4 3.5-2.8 4.2-5 -1.4 2.1-3.5 2.1-5.7 2.8 0.7-1.4 2.1-2.1 2.8-3.5 -1.4 0-2.1 2.1-3.5 1.4 1.4-1.4 2.1-3.5 3.5-5 -2.8 0.7-4.2 4.2-7.8 3.5 1.4 0 1.4-2.1 2.8-2.1 -1.4 0-2.8 1.4-4.2 0.7 1.4-0.7 1.4-2.8 2.8-3.5 -1.6 0.4-3 0.6-4.4 0.6 -4.5 2.5-8.5 4.1-11.8 4.9 -0.7 1.2-1.7 2.2-2.2 3.6C520.3 200.9 521.7 199.4 523.2 198.7z" class="b"/><path d="M583.3 112.4c0.7-0.7 1.4-2.8 1.4-2.8 0.7 0.7 1.4 1.4 1.4 2.8 0-2.1 0.7-4.2 1.4-5.7 0 0 1.4 2.8 1.4 4.2 1.4-2.1 0.7-4.2 2.1-6.4 0 0.7 0.7 2.1 1.4 2.8 0-1.4 0-4.2 0.7-5 0.1 0.4 1.4 2.1 2.1 2.8 0.2-0.9 0-1.4 0.7-2.1 0.6 0.6 1.4 1.3 2.3 4 0.1-1 0.5-3.3 0.5-4 2.1 1.4 2.8 3.5 3.5 5.7 0.7-1.4 0.2-4.4 1.1-5.1 0.7 0 1.1 3 2.5 3.7 0-1.4 0-2.1 0-3.5 2.1 0 1.4 2.1 2.1 3.5 0-1.1 0.3-2.2 0.8-3.3 -1.1-5-2.6-9.4-4.4-13.4 -0.2 1.3-0.4 2.6-0.6 3.9 -0.7-1.4-0.7-3.5-2.8-4.2 0.7 1.4-0.7 3.5-0.7 5 -1.4-2.8-2.1-5-3.5-7.8 0 2.8 0 5.7 0 8.5 -1.4-1.4-3.5-5-4.2-5 0.1 1.5 0.7 2.8-0.7 3.5 0-1.4-0.7-2.8-2.1-4.2 -0.7 2.1-0.7 4.2-0.7 6.4 -0.7-2.8-2.1-5.7-2.1-8.5 -2.1 2.1 0 5-0.7 7.1 -1.4-0.7-2-1.5-2.8-3.5 0 0-0.7 2.1-0.7 3.5 0-0.7-1.2-0.9-1.6-2.9 -1 2.2 0.2 4.4-0.5 5.8 0-1.4-0.7-2.8-2.1-3.5 0.6 2.3-0.3 4.2-0.6 6.4 1.4 5.5 2.1 10.9 2.1 16.4 0.7-2.4 1-5 2.1-7.2C582.6 110.3 583.3 111 583.3 112.4z" class="b"/><path d="M559.2 71.4c0.7-2.1-1.4-3.5-2.1-5.7 2.1 0 3.5 0.7 5 2.1 0-2.1-2.1-2.8-2.1-5 2.1 1.4 3.5 2.8 5.7 3.5 0-2.1-3.5-2.8-2.8-5.7 0 1.4 2.1 0.7 2.8 2.1 0-0.7 0-2.1 0-2.8 1.4 0 4.2 2.4 4.2 1.7 -1.5-1.5-1.7-2.9-1.9-4.2 -3-1-5.9-1.8-8.8-2.2 -3.5-0.5-6.6-0.7-9.2-0.7 -4.8 0-8 0.9-8.9 2.6 -0.6 1.2 0 2.5 0.6 3.4 0.9 1.4 4.1 3.8 8.1 6.7 1.8 1.3 3.8 2.8 5.9 4.5 0-1 0-2 0-3.2C557.1 69.3 558.5 70 559.2 71.4z" class="b"/><path d="M589.7 180.8c16.8-22.7 23.8-46.5 20.8-70.8 -2.6-20.4-12.9-33.3-21.1-40.6 -8.9-7.8-20.2-13.4-30.2-14.8 -10.5-1.5-17.2-0.7-18.8 2.2 -0.6 1.2-0.4 2.6 0.6 4.1 1 1.5 4.2 3.9 8.3 6.9 8.4 6.2 21.1 15.6 25.1 25.6 9.9 24.8 3.9 49.8-18.3 76.3 -20.7 24.6-37.7 27.3-44 27.3 -2.2 0-3.4-0.3-3.4-0.3 -8.1-9.2-20.8-19.1-39-21.7 -25-3.6-50.1-3.7-74.4-3.8 -10.7 0-20.9-0.1-30.6-0.4 -22.7-0.8-35.4-4.3-43-6.4 -3-0.8-5.1-1.4-6.9-1.6 -6.9-0.6-19.3-2.5-25.6-7.4 -6.6-5.2-8.2-8.6-8.3-8.8 -0.1-3.5-0.5-6.5-1.2-8.7 -0.6-1.9-2.2-6.5-5.6-11.6 0.4-1.1 3.9-10.4 4.3-19.7 0.6-12.9-0.4-20.4-3-23.1 -0.7-0.7-1.6-1.1-2.5-1 -5.5 0.2-22 16.9-24.7 25 -4.4-1.2-9.3-1.9-14.9-1.9l-0.7 0c-5.6 0.2-10.6 1.1-14.9 2.3 -2.9-8.3-19.2-25.1-24.7-25.4 -0.9 0-1.8 0.3-2.5 1 -2.6 2.6-3.6 10.2-3 23.1 0.4 9.1 3.8 18.2 4.3 19.6 -3 4.5-4.7 8.7-5.6 11.7 -2.4 7.7-2.1 26.3 9.2 36.4 1.6 1.4 3.3 2.6 5 3.7 0.2-0.2 0.4-0.3 0.6-0.5 -1.8-1.1-3.6-2.4-5.2-3.8 -0.3-0.2-0.5-0.5-0.8-0.7 -2.1-2-3.8-4.4-5.1-6.8 -0.8-1.5-1.5-3.1-2.1-4.8 -0.9-2.5-1.5-5.1-1.8-7.6 -0.9-6.3-0.4-12.2 0.7-15.8 1-3.3 3-8.3 6.7-13.3 -0.5 0.5-0.9 0.9-1.2 1.2 -0.5-1.2-3.8-10.4-4.2-19.4 -0.6-12.5 0.3-20.1 2.8-22.5 0.6-0.6 1.2-0.8 2-0.8 5.2 0.2 21.7 17.4 24.1 25.2l0.3-0.1c0 0-1 0.5-2.4 1.2 5-1.7 10.8-2.9 17.6-3.2l0.7 0c6.9 0 12.8 1.1 17.9 2.9 -1.6-0.9-2.7-1.4-2.7-1.4l0.3 0.1c2.4-7.6 18.9-24.4 24.1-24.6 0.7 0 1.4 0.2 2 0.8 2.4 2.4 3.3 10 2.8 22.5 -0.4 9.1-3.8 18.2-4.2 19.4 -0.3-0.3-0.8-0.8-1.4-1.5 4.4 5.9 6.3 11.5 7 13.6 1.1 3.5 1.6 9.5 0.7 15.8 -0.4 2.5-1 5.1-1.8 7.6 -0.6 1.6-1.2 3.2-2.1 4.8 -1.3 2.5-3 4.8-5.1 6.8 -0.2 0.2-0.5 0.5-0.8 0.7 -1.5 1.4-3.2 2.6-4.9 3.6 0.2 0.1 0.4 0.3 0.6 0.4 1.7-1.1 3.3-2.2 4.7-3.5 7.7-6.9 10.3-17.6 10.4-26.2 1 1.5 3.2 4.3 7.9 8 5.8 4.5 16.5 6.5 23.6 7.3 0.8 0.1 1.6 0.2 2.4 0.2 1.4 0.1 3.1 0.5 5.2 1.1 0.5 0.1 1 0.3 1.5 0.4 6.6 1.8 17.1 4.7 34.7 6 2.7 0.2 5.5 0.3 8.5 0.5 0.2 0 0.5 0 0.7 0 6.5 0.2 13.3 0.3 20.2 0.4 3.2 0 6.4 0 9.6 0 1.5 0 3 0 4.5 0 6.1 0 12.2 0.1 18.3 0.2 4.8 0.1 9.6 0.2 14.4 0.4 10.5 0.4 21 1.1 31.5 2.4 1.9 0.2 3.7 0.5 5.6 0.7 1.3 0.2 2.6 0.4 3.9 0.7 7.4 1.6 13.8 4.3 19.3 7.7 5.1 3.2 9.5 6.8 13 10.5 9.4 9.7 13.6 19.3 13.7 19.5 0 0-0.6-1.8-2-4.6 -1.2-2.5-3.1-5.8-5.9-9.3 -0.7-0.9-1.5-1.8-2.2-2.7 0.6 0.1 1.5 0.2 2.7 0.2 1.9 0 4.7-0.2 8.3-1.2 3.3-0.9 7.3-2.4 11.8-4.9 5.9-3.3 12.7-8.5 20-16.3 1.5-1.6 3-3.3 4.5-5.1 2-2.3 3.8-4.7 5.5-7 5.1-6.9 9.1-13.6 11.9-20.3 1.9-4.5 3.4-9 4.3-13.4 0.9-4 1.3-8 1.4-12 0.1-5.5-0.6-11-2.1-16.4 -0.7-2.6-1.6-5.3-2.6-7.9 -3.2-8-11.8-15.5-19.4-21.4 -2.1-1.6-4.1-3.1-5.9-4.4 -4-3-7.2-5.3-8.1-6.7 -0.6-0.9-1.2-2.3-0.6-3.4 0.9-1.7 4-2.6 8.9-2.6 2.6 0 5.7 0.3 9.2 0.7 2.9 0.4 5.8 1.2 8.8 2.2 7.3 2.6 14.8 6.9 21.1 12.4 5.2 4.5 11.1 11.3 15.5 20.8 1.8 4 3.3 8.4 4.4 13.4 0.4 1.9 0.8 3.9 1 5.9 1.4 11.2 0.6 22.4-2.4 33.5 -1.4 5.3-3.3 10.5-5.7 15.7 -3.9 8.6-9.1 17-15.6 25.1 -3.5 4.4-7.3 8.7-11.5 12.8 -6.3 6.3-13.4 12.3-21.2 18.1 -5.7 4.2-11.7 8.2-18.1 12 -2.1 1.3-4.3 2.5-6.5 3.7 -0.2-0.5-0.3-0.9-0.5-1.2 -0.3-0.6-0.6-0.9-0.6-0.9 0 0.1 3.9 11.1-3.7 29.8 0 0 0 0.1-0.1 0.1 -1.9 4.7-5 9.5-8.7 14.3 -8.8 11.4-21.1 22.3-29.4 29.8l-1.2 1c-10.2 9.1-10 20.2-9.8 30 0 1.2 0 2.4 0 3.5 0 10.6-0.9 15.1-10.5 23.1 -4.7 3.9-10.4 10-15.9 15.9 -6 6.4-11.7 12.5-14.4 13.9 -5.2 2.6-10.2 3-20.6 3.3 -11.4 0.3-19.7-1.4-22.4-4.4 0.2-11.9 11.9-12.7 11.9-12.7 -0.1 0-12 0.2-12.6 12.2 -2.6-1.9-4-3.9-4.2-6.1 -0.3-2.8 1.3-5.8 4.9-9.4 3.8-3.8 9.2-3.6 14.5-3.3 3.5 0.2 6.8 0.4 9.3-0.8 0.4-0.2 0.8-0.4 1.2-0.6 1.4-0.8 3-2 4.6-3.4 5.4-4.6 11.3-11.5 11.2-15.1 -0.4-1.7-1.1-3.7-2-6 -1.3-3.2-3.1-6.9-5.1-10.8 -3.3-6.4-7.1-13.3-10.4-19 -2.7-4.9-5.1-9.1-6.3-11.5l-0.1-0.1 -0.1 0c-3.6-7.3-6.1-13.3-6.1-13.3 0 0.1 2 5.9 5.3 13 -4.4-1.4-17.2-2-27.7-2.5 -3.8-0.2-7.3-0.4-9.9-0.5 -0.5 0-1.1-0.1-1.7-0.1 -2.6-0.1-6.1-0.2-10.1-0.3 -0.2 0-0.4 0-0.6 0 -13.8-0.3-32.5-0.8-40.2-3.3 0-5.7-1.5-11.5-1.5-11.9 0 0 1.1 6 0.9 11.7l-0.1 0 0 0.5c-0.1 5.7-4.7 20.7-8.7 33.9 -0.3 1-0.6 1.9-0.9 2.9 -0.7 2.3-1.4 4.5-2 6.6 -1 3.4-1.8 6.3-2.3 8.5 0 0.2-0.1 0.3-0.1 0.5 -0.2 1-0.5 2.1-0.8 3.3 -0.6 2.4-1.2 5.3-2 8.4 -2.9 11.8-7.1 26.4-12.3 30.5 -9.9 6.2-21.7 3.2-23.2 2.8 -4-8.9 2.3-13.5 2.3-13.5 -0.1 0-7.1 4.3-3.1 13.6 -1.5 0.4-6.8 1.4-10.2-2.4 -1.1-3-1-5.7 0.1-7.8 1.9-3.5 6.2-5.1 6.2-5.1 -0.2 0-4.7 1-6.8 4.8 -1.2 2.2-1.3 4.8-0.3 7.9 -2.5-0.4-4.4-1.5-5.4-3.1 -1.2-1.8-1.3-4.4-0.4-7.2 1.7-5.2 7.2-5.6 10.9-5.8 1.7-0.1 2.8-0.2 3.2-0.7l0.1-0.1c1.7-3.4 5-19.3 5.2-32 0-1.9 0.1-3.9 0.1-5.9 0.3-11.2 0.6-22.7-3.2-30.1 -0.1-0.2-0.2-0.3-0.3-0.4 0 0 0 0 0 0 -3.7-6.6-7-10.9-10.1-15.1 -2-2.7-3.9-5.2-5.8-8.1 -1.7-2.6-4-5.7-6.5-9 -5-6.6-10.6-14.1-14.5-22.1 -2-4.2-3.5-8.6-4.6-13.1 -0.3-1.3-0.6-2.6-0.9-3.9 -0.2-1-0.4-2.1-0.6-3.2 -0.8-4.9-1.4-10-1.9-15.4 0-0.3-0.1-0.7-0.1-1 -0.1-1.3-0.3-2.6-0.4-4 -0.3-3.2-0.8-6.3-1.2-9.2 -0.1 0.7-0.2 1-0.3 1.1 0 0 0.1-0.5 0.2-1.3 -0.9-5.6-1.9-10.5-2.8-13.9 -0.2 0.3-0.3 0.6-0.5 0.9 1.2 5.3 2.9 13.4 3.8 22.4 0.1 1.3 0.3 2.7 0.4 4 1.5 13.7 2.7 25.6 8.1 36.8 3.9 8.1 9.6 15.6 14.6 22.2 2.5 3.3 4.8 6.4 6.5 9 0.3 0.5 0.7 1.1 1.1 1.6l-0.1 0 0.8 1.1c4.8 6.6 6 12.6 4.9 24.6 -1.1 11.9-5.9 32.1-9.2 41.6 -1.8 5-3.6 9.5-5 12.7 -1 2.5-1.6 3.9-1.8 4.6 -4.5-0.2-7.7 0.6-9.6 2.6 -1.3 1.4-2 3.3-2 5.6 0.1 4.5 4.4 7.2 8.4 7.2 1.7 0 3.2-0.5 4.3-1.4 2.4 2.7 5.1 3.3 6.9 3.3 0.3 0 0.6 0 0.9 0 0.2 0.8 0.5 1.4 0.8 2.1 1.2 1.9 3.3 3.1 6.3 3.5 3.9 4.4 10.2 2.8 11.1 2.5 0.6 0.2 4.1 1.1 8.7 1.1 4.5 0 10-0.8 15.1-4 5.5-4.3 9.8-19 12.7-31.2 0 0 0 0 0 0 0.7-2.9 1.3-5.7 1.9-8.2 0.3-1.4 0.6-2.7 0.9-3.8 0.9-4 3-10.7 5.2-17.9 3.1-10.2 6.5-21.5 8-28.8l0 0c0.4-1.3 0.6-2.8 0.7-4.3 0-0.2 0-0.3 0-0.5 7.9 2.5 26.5 2.9 40.1 3.2 5.2 0.1 9.6 0.2 12.3 0.4 2.6 0.2 6.1 0.4 9.9 0.5 10.9 0.5 24.5 1.2 28.1 2.7 0.5 1.1 1.2 2.4 2.1 4 0.8 1.6 1.7 3.2 2.7 4.8 0.5 0.8 1 1.7 1.5 2.6 6.6 11.6 15.5 27.6 17.4 35.5 0.2 4.3-10.6 15.6-16.6 18.4 -2.3 1.1-5.6 0.9-9 0.8 -3.8-0.2-8-0.4-11.6 1.2 -2.6 0.1-10.5 1-13.1 8.1 -0.5 1.9-0.2 3.9 0.9 5.6 1.4 2.1 3.8 3.5 6.7 3.9l0.1 0c0.6 0.5 1.2 1 2 1.5 2.7 3.2 11.3 5 23 4.7 10.5-0.2 15.6-0.6 20.9-3.3 2.9-1.5 8.3-7.3 14.6-14 5.5-5.9 11.2-12 15.9-15.9 9.8-8.2 10.7-13 10.7-23.6 0-1.2 0-2.3 0-3.5 -0.1-5.7-0.2-11.9 1.8-17.9 3.6 2.9 9.4 6.7 16.4 8.8 4.4 1.4 9.7 1.7 14.9 2 9.1 0.6 18.5 1.2 23.4 7.5 7.3 9.6 12.9 24.3 13.5 32.2 -1 0.3-1.8 0.7-2.6 1.1 -1.3 0.6-2.5 1.2-4.3 1.4 -0.1 0-0.3 0-0.5 0 -2.4 0.1-9.5 0.4-11.8 6.5 -1.8 3.9-1.2 7.1-0.2 8.7 0.6 1 1.5 1.5 2.5 1.5 0.1 0 0.2 0 0.3 0 2.1 2.8 8.3 4.2 19.1 4.2 0.5 0 1 0 1.5 0 1.3 0 2.7 0 4 0 0.9 0 1.7 0 2.6 0 7.8 0 15-0.7 17.3-9.5 2.7-10.2 0.5-31.7-1.8-50.9 -1.9-16.1-4.9-22.3-22.5-35.1 -16.3-11.9-20.7-16.7-24.5-35.8 5-12.4 5-21.4 4.4-26.2 0-0.3-0.1-0.5-0.1-0.8C554.5 217.6 575.4 200.1 589.7 180.8zM192.4 126.2L192.4 126.2 192.4 126.2 192.4 126.2zM548.9 295c2.1 1.6 4.1 3 5.8 4.4 11.5 9.2 14.4 15.4 16.1 27.4 0.1 0.9 0.2 1.8 0.4 2.8 0.2 1.8 0.5 3.9 0.7 6.1 0.5 4.1 1 8.7 1.4 13.5 0.2 2 0.3 4.1 0.5 6.1 0.6 9.8 0.7 19.3-0.8 25 -2.4 9.2-10.3 9-19.3 8.9 -0.9 0-1.8 0-2.7 0 -0.4 0-0.8 0-1.3 0 -0.5 0-1 0-1.5 0 -10.6 0-16.7-1.3-18.6-4 2.3-10.1 9.9-10.8 9.9-10.8 -0.1 0-8.1-0.1-10.6 10.5 -0.8 0.1-1.5-0.4-2.1-1.2 -0.9-1.4-1.4-4.4 0.2-8 2.2-5.7 9-6 11.2-6.1 0.2 0 0.4 0 0.5 0 1.9-0.1 3.2-0.8 4.5-1.4 0.8-0.4 1.7-0.8 2.7-1.1 0.5 2.6 0.9 4.6 0.9 4.6 0 0 0-4.6-1.1-8.9l0 0c-1.6-8.3-6.5-20.3-13.1-28.9 -5.1-6.6-14.7-7.2-23.9-7.8 -3.2-0.2-6.4-0.4-9.5-0.9 -1.8-0.3-3.6-0.6-5.2-1.1 -2.9-0.9-5.6-2.1-8-3.4 -3.4-1.8-6.2-3.8-8.3-5.5 1.4-3.8 3.7-7.5 7.5-10.8l1.2-1c11.7-10.5 31.1-27.8 38-43.6 2.9 14.2 6.3 20.4 15.2 27.9C542.1 290 545.2 292.3 548.9 295zM381.5 378.7c2.1-5.6 7.7-7.1 11-7.5 -0.6 0.4-1.3 0.9-1.9 1.5 -3.7 3.7-5.4 7-5.1 10 0.2 1.6 0.9 3.1 2.1 4.5 -2.3-0.5-4.2-1.7-5.3-3.4C381.4 382.1 381.1 380.3 381.5 378.7zM238.2 381.6c-2.3-8.2 5.4-11.5 5.4-11.5 -0.1 0-8.5 2.8-6.1 11.5 -1 0.9-2.3 1.4-4 1.4 -3.7 0-7.7-2.5-7.7-6.6 0-2.2 0.6-3.9 1.8-5.1 1.8-1.8 5-2.6 9.4-2.3l0.4 0 0-0.3c0-0.5 0.8-2.3 1.8-4.7 0.8-1.9 1.8-4.2 2.8-6.8 0.7-1.8 1.5-3.8 2.2-5.8 0 0 0-0.1 0-0.1 1.2-3.4 2.6-8.3 4-13.7 0.3-1.3 0.6-2.6 1-4 2-8.5 3.7-17.6 4.3-24.1 0.8-8.8 0.4-14.4-1.6-19.3 0 0.1 0.1 0.1 0.1 0.2 3.2 4.3 6.6 8.7 10.3 15.5 3.7 7.2 3.4 18.7 3.1 29.8 -0.1 2-0.1 4-0.1 5.9 -0.1 4.8-0.6 10.1-1.3 14.9 -0.1 0.9-0.3 1.7-0.4 2.6 -1.1 6.7-2.5 12.2-3.4 14.1 -0.3 0.3-1.5 0.3-2.7 0.4 -3.6 0.3-9.6 0.7-11.5 6.3 -0.6 1.8-0.7 3.5-0.5 5 -0.2 0-0.5 0-0.7 0C243.1 384.9 240.5 384.3 238.2 381.6z" class="d"/><path d="M387.7 387.1c-1.3-1.4-2-2.9-2.1-4.5 -0.3-3 1.4-6.3 5.1-10 0.6-0.6 1.2-1.1 1.9-1.5 -3.2 0.4-8.9 1.9-11 7.5 -0.5 1.7-0.2 3.5 0.9 5C383.5 385.4 385.4 386.6 387.7 387.1z" class="a"/><path d="M257.9 345.2c1.8 3.7 3.4 7.9 6.1 11.2 0.7-4.8 1.2-10.1 1.3-14.9 0-1.9 0.1-3.9 0.1-5.9 0.3-11.1 0.6-22.5-3.1-29.8 -3.8-6.8-7.1-11.2-10.3-15.5 0-0.1-0.1-0.1-0.1-0.2 2.1 4.9 2.5 10.6 1.6 19.3 -0.6 6.6-2.3 15.7-4.3 24.1 4.3-2.9 10.9 1.1 13-5 -0.7 3.5-0.7 6.2-5.4 6.9 -3.2 0.5-5.7 0.2-8.5 2.1 -1.3 5.4-2.8 10.2-4 13.7 0 0 0 0.1 0 0.1C248.2 352.2 255.1 350.8 257.9 345.2zM261.8 319.1c-2.1 2.8-6.7 3.4-8.8 7 1.2-6.3 3.4-6.1 6.2-9.3 1.2-1.4 1.8-3.9 2.5-5.6C263.5 313.5 263.8 317.1 261.8 319.1z" class="a"/><path d="M244.8 384.9c0.2 0 0.5 0 0.7 0 -0.2-1.5-0.1-3.2 0.5-5 1.8-5.6 7.9-6.1 11.5-6.3 1.2-0.1 2.4-0.2 2.7-0.4 0.9-1.9 2.3-7.4 3.4-14.1 -3-1.9-6-4.9-6-7.8 -4.2 4.7-10.5 5.4-15.6 5.9 -1 2.6-2 4.9-2.8 6.8 -1 2.4-1.8 4.3-1.8 4.7l0 0.4 -0.3 0c-4.4-0.3-7.6 0.5-9.4 2.3 -1.2 1.2-1.8 3-1.8 5.1 0.1 4 4.1 6.6 7.7 6.6 1.6 0 3-0.5 4-1.4 -2.4-8.8 6-11.5 6.1-11.5 0 0-7.7 3.3-5.4 11.5C240.5 384.3 243.1 384.9 244.8 384.9z" class="a"/><path d="M262.1 328.4c-2 6.1-8.7 2.2-12.9 5 -0.3 1.3-0.6 2.7-1 4 2.8-1.9 5.3-1.6 8.5-2.1C261.4 334.7 261.4 332 262.1 328.4z" class="b"/><path d="M261.7 311.2c-0.6 1.7-1.2 4.2-2.5 5.6 -2.8 3.2-5.1 2.9-6.2 9.3 2.1-3.5 6.7-4.1 8.8-7C263.8 317.1 263.5 313.5 261.7 311.2z" class="b"/><path d="M257.6 351.2c0 2.9 3 5.9 6 7.8 0.1-0.8 0.3-1.7 0.4-2.6 -2.8-3.3-4.3-7.5-6.1-11.2 -2.8 5.6-9.7 7-13.7 6.1 -0.7 2.1-1.5 4-2.2 5.8C247.2 356.6 253.4 355.9 257.6 351.2z" class="b"/><path d="M213 185.8c0.3-0.6 0.6-1.1 0.9-1.7 -0.5-0.2-1-0.4-1.5-0.5C212.6 184.2 212.8 184.9 213 185.8z" class="e"/><path d="M276.3 186.6c0 0-4.6-4.4-10.9-8.5 -2.2 1.4-4.5 2.5-6.7 3.5 13.4 12.5 21 30.2 21.1 30.5 0 0-8.1-17.7-21.8-30.2 -2 0.8-3.9 1.6-5.7 2.2 4.7 8.1 7.2 17.3 7.1 17.8 0 0-2.9-9.4-7.8-17.5 -0.6 0.2-1.2 0.4-1.7 0.6 -0.9 0.3-1.7 0.6-2.4 0.9 1.6 5.4 2.7 11.1 3.2 14 0.1 0.5 0.2 1 0.3 1.4 0.1 0.3 0.1 0.5 0.1 0.5 0-0.1-0.1-0.3-0.1-0.5 -0.3-1.5-1.4-5.8-2.8-10.5 -3.5 18.6-7.1 19-27.7 16.3 1.4-1.4 6.7-3 8.1-3 7.5-0.6 12.2-3.4 19.6-13.3 -0.4-1.5-0.9-3-1.4-4.5 -0.2 0.1-0.5 0.2-0.7 0.3 -1.3 0.5-2.4 1-3.4 1.5 0.5 3.8 0.6 6.6 0.7 6.9 0 0-0.3-2.9-1-6.7 -0.1 0.1-0.3 0.1-0.4 0.2 -2.8 1.4-5 2.4-8.5 2.4h0l-0.2 0 -0.1 0c-3.5 0-6.1-1.2-9.3-2.6 0 0-0.1 0-0.1 0 -0.7 3.9-1 6.8-1 6.8 0-0.3 0.2-3.1 0.7-6.9 -1.1-0.5-2.2-1-3.4-1.5 -0.2-0.1-0.5-0.2-0.7-0.3 -1.6 5.4-2.7 11-3.2 13.8 -0.1 0.4-0.1 0.7-0.2 0.9 0.5 2.9 0.9 6 1.2 9.2 0.1 1.3 0.3 2.7 0.4 4 0 0.4 0.1 0.7 0.1 1 7.1 0.7 14.3 2.2 21 4.9 11.3 4.1 22.6-1.4 33.2-5.7 -12.9 16.4-27.5 15.4-43.1 16.8 -3.5 0-6 3-7.8 6.4 1.1 4.5 2.5 8.8 4.6 13.1 3.9 8 9.5 15.5 14.5 22.1 2.5 3.3 4.9 6.4 6.5 9 1.9 2.9 3.8 5.5 5.8 8.1 3.2 4.2 6.4 8.5 10.1 15.1 0 0 0 0 0 0 0 0 0 0 0 0 0.1 0.2 0.2 0.3 0.3 0.5 3.8 7.4 3.5 19 3.2 30.1 -0.1 2-0.1 4-0.1 5.9 -0.2 12.7-3.5 28.6-5.2 32l-0.1 0.1c-0.5 0.5-1.6 0.6-3.2 0.7 -3.7 0.3-9.2 0.6-10.9 5.8 -0.9 2.8-0.8 5.4 0.4 7.2 1 1.6 2.9 2.7 5.4 3.1 -1-3-0.9-5.7 0.3-7.9 2.1-3.7 6.6-4.7 6.8-4.8 0 0-4.3 1.7-6.2 5.1 -1.2 2.1-1.2 4.7-0.1 7.8 3.3 3.8 8.7 2.8 10.2 2.4 -4-9.3 3-13.5 3.1-13.6 0 0-6.3 4.6-2.3 13.5 1.5 0.4 13.2 3.3 23.2-2.8 5.3-4.1 9.5-18.7 12.3-30.5 -8.5 1-16.6-1.1-25.6-2.8 9.5-0.7 20-2.7 28.3-9 0-0.2 0.1-0.3 0.1-0.5 0.5-2.1 1.3-5.1 2.3-8.5 -4.7-6.6-11.5-4.5-14.7-9.4 -2.9 6.5-12.7 4.6-18.8 4.1 12.8-3 18-8.8 20.4-16 0 8.2 7.8 12.4 15.1 14.8 0.3-0.9 0.6-1.9 0.9-2.9 4-13.2 8.6-28.2 8.7-33.9l0-0.5 0.1 0c0.2-5.7-0.9-11.7-0.9-11.7 0.1 0.3 1.6 6.2 1.5 11.9 7.6 2.5 26.4 2.9 40.2 3.3 0.2 0 0.4 0 0.6 0 4.1-7.1 3.1-21.8 2.5-30.3 3.5 7.4 6.7 22.4 7.6 30.6 0.6 0 1.2 0.1 1.7 0.1 2.6 0.2 6.1 0.4 9.9 0.5 10.5 0.5 23.3 1.1 27.7 2.5 -3.3-7.1-5.3-12.9-5.3-13 0 0 2.4 6 6.1 13.3l0.1 0 0.1 0.1c1.2 2.4 3.5 6.6 6.3 11.5 3.3 5.8 7.1 12.6 10.4 19 0.4-0.6 0.9-1.2 1.3-1.8 9.7-12.1 25.6-14.5 39.7-21.5 0.4-0.4 1.7-0.9 2.6-1.7 0.3-0.6 0.6-1.2 0.9-1.9 0 0.8-0.4 1.4-0.9 1.9 -2.5 5-5.3 9.8-10.4 13 -6.4 4.2-14.1 5-20.5 10.6 -3.5 3.5-5.4 8-7.7 12.2 0.9 2.2 1.6 4.3 2 6 0.1 3.6-5.7 10.5-11.2 15.1 6.6-0.5 12.7 2.6 19.4 4.4 0.3 0.2 0.7 0.4 1 0.5 -0.3-0.2-0.7-0.4-1-0.5 -5.1-1.4-15.8 0.3-24-1 -0.4 0.2-0.8 0.5-1.2 0.6 -2.5 1.2-5.8 1-9.3 0.8 -5.2-0.3-10.6-0.5-14.5 3.3 -3.5 3.5-5.1 6.6-4.9 9.4 0.2 2.2 1.6 4.2 4.2 6.1 0.5-12 12.5-12.2 12.6-12.2 0 0-11.7 0.9-11.9 12.7 2.6 3 11 4.6 22.4 4.4 10.4-0.2 15.4-0.6 20.6-3.3 2.8-1.4 8.4-7.5 14.4-13.9 5.5-5.9 11.3-12 15.9-15.9 9.6-8 10.5-12.5 10.5-23.1 0-1.1 0-2.3 0-3.5 -0.2-9.8-0.4-20.9 9.8-30l1.2-1c8.3-7.4 20.6-18.4 29.4-29.8 3.1-10.7-14.5-18.5-28.2-19.9 12 1.3 25.6-0.3 37 5.4 7.6-18.6 3.8-29.7 3.7-29.8 0 0 0.3 0.3 0.6 0.9 -0.2-0.7-0.3-1-0.3-1l-8.3-14.6c0 0-0.7-1.7-2.3-4.5 1.4 2.8 2 4.6 2 4.6 -0.1-0.2-4.3-9.8-13.7-19.5 -12.2-0.3-24.1 3.6-33.3 12.8 -0.8 0.9-1.5 1.8-2.4 2.6 0.8-0.9 1.6-1.7 2.4-2.6 6.8-8.1 10-19.9 20.3-23.3 -5.5-3.4-11.9-6.2-19.3-7.7 -0.2 9.5-3.2 18.1-14 22.3 6.1-6.6 6.1-15.5 4.5-23.7 -10.5-1.3-21-2-31.5-2.4 -0.8 3.6-10.7 2.6-13.2 19.1 -1.1-4.1-1.9-14.9-1.2-19.5 -6.1-0.1-12.2-0.1-18.3-0.2 -0.3 3.8-3.3 6.7-4.9 9.7 -9.2 16.3-10.4 21.1 12.3 39.6 -13.4-5.7-30.4-17-24.8-31.1 1.9-5.3 5.1-13.1 3.3-18.3 -7 0-13.7-0.1-20.2-0.4 0.2 3.9 0.7 7.8 1.4 11.6 3.5 14.1-2.8 28.3-6.4 41.7 1.5-11 6.5-23 0.7-37.8 -1.7-5-5.9-10.7-4.9-16 -17.6-1.3-28-4.1-34.6-6 -0.5-0.1-1-0.3-1.5-0.4 -1.6 1.4-1.4 4.6-1.1 8.6 0.5 5.5-4.5 8.4-1.6 11.3 15.6 14.9 11.3 34 12 52.3 -2.1-15.6-7.9-39.4-24.2-43.6 -13.4-4.2-18.9-2.4-28.1-12.3 17.2 8.5 21.9 1.4 32.5-0.7 -1.8-5.8-0.7-12.7 2.9-17 -7.1-0.8-17.8-2.8-23.6-7.3 -4.7-3.7-6.9-6.5-7.9-8 -0.1 8.6-2.7 19.3-10.4 26.2 -1.5 1.3-3.1 2.5-4.7 3.5C271.8 182.1 276.2 186.5 276.3 186.6zM430.5 355.1c14.4-2.2 13.7 5.7 32.5-2.8C453.8 360.7 446.3 363.3 430.5 355.1zM446.8 340.9c1.4-0.7 4.2-4.7 6.4-8 4.3-6.4 8.5-5.8 15.3-4.7C460 329.7 455 340.9 446.8 340.9zM415.8 282.7c0.9-6.6 9.4-12.6 16.7-14.3 14.8-3.5 25.8-0.7 38.2 2.3C451.2 270.3 425.7 268.8 415.8 282.7zM489.9 286.5c-22.6-0.6-50.7 5.4-63.2 25.6 1.1-6.3 3.5-12.4 8-17.8C448.9 276.6 471.5 278.7 489.9 286.5zM437.6 226.6c8.9-9.9 10.9-22.8 9.3-28.8 6.2 9.8 4.3 22.5 7.3 25.5 3 3 13.5 7.8 14.5 18.8 1 11 13 23.1 13 23.1s-12-5.2-15.6-10.7 -8.9-14.3-13.7-16.3c-4.8-2-16.6 1.6-27 3.5 -10.4 1.9-15.6 0-15.6 0S428.7 236.5 437.6 226.6zM424.3 197c6.4-4.8 11.8-12.3 11.8-12.3 0.5 1.1 1.6 5.8-1.5 8 -4 2.8-4.2 8.2-9.5 11.9 -5.2 3.6-8.9 2.2-15.2-3.1C415.1 202.1 420.3 200 424.3 197zM382.6 242.9c5.7 7.8 3.2 17.6 12.3 30.6 -4.4-2.7-11.4-6.5-15.2-15.1 -6.3-10.1-3-18-11.7-25.4C373.8 234.6 378.8 237.7 382.6 242.9zM342.1 236.8c-4.2 8.5-6.3 25.1-3.5 34.3 2.5 9.1 5.8 10.5 7.2 19.2 -3.3-6.3-12.2-8.5-15.1-15.4C325.1 262.3 335.7 248.2 342.1 236.8zM258.9 257.2c9.2-2.8 18.4 5.4 26.9 9 -9 1.4-22.1-8.3-28.1 4.4 -1.6 3.4-2.9 6.3-9.2 6.3C253.8 274.2 254.6 258.6 258.9 257.2zM294.8 304.7c-9.2-3.9-21.5-6.7-30.5-1.3 4-8.3 14-12 22-9.3 7.4 2.5 17.5 7.6 25.2 3.2C306.6 301.8 302.4 307.6 294.8 304.7zM284.1 226c7-8.9 7.9-24 7.9-24s0.5 13.8 10.5 23c8.2 7.5 9.9 13.5 10.9 24.8 1.7 18.3-5.9 27.3-5.9 27.3s9.2-21.7-4.4-37.5c-8.1-8.3-28 3.4-46.4-2.5C256.8 236.9 277.1 234.9 284.1 226z" class="e"/><path d="M216.3 184.9c-0.6-0.2-1.1-0.4-1.7-0.6 -0.5 0.8-0.9 1.6-1.4 2.4 0.8 3.4 1.8 8.3 2.8 13.9 0.4-2.6 1.6-8.8 3.2-14.6C218.3 185.6 217.4 185.3 216.3 184.9z" class="e"/><path d="M220.3 233.6c-0.2-1-0.4-2.1-0.6-3.2C219.9 231.5 220.1 232.5 220.3 233.6z" class="e"/><path d="M309.5 180.3c-10.6 2.1-15.4 9.2-32.5 0.7 9.2 9.9 14.7 8 28.1 12.3 16.3 4.2 22.1 28.1 24.2 43.6 -0.7-18.4 3.5-37.5-12-52.3 -2.8-2.8 2.1-5.8 1.7-11.3 -0.3-4-0.5-7.2 1.1-8.6 -2.2-0.6-3.9-1-5.2-1.1 -0.7-0.1-1.5-0.2-2.4-0.2C308.8 167.7 307.7 174.6 309.5 180.3z" class="b"/><path d="M361.1 187.1c5.9 14.9 0.8 26.8-0.7 37.8 3.5-13.4 9.9-27.6 6.4-41.7 -0.7-3.8-1.2-7.7-1.4-11.6 -0.2 0-0.5 0-0.7 0 -3-0.1-5.8-0.3-8.5-0.5C355.3 176.3 359.5 182.1 361.1 187.1z" class="b"/><path d="M382.4 190.2c-5.7 14.1 11.3 25.5 24.8 31.1 -22.7-18.5-21.5-23.4-12.3-39.6 1.7-3.1 4.6-6 4.9-9.7 -1.5 0-3 0-4.5 0 -3.3 0-6.5 0-9.6 0C387.5 177.1 384.3 185 382.4 190.2z" class="b"/><path d="M425.1 204.6c5.3-3.7 5.5-9.1 9.5-11.9 3.1-2.2 2-6.9 1.5-8 0 0-5.5 7.5-11.8 12.3 -4 2.9-9.2 5.1-14.4 4.4C416.2 206.7 419.9 208.2 425.1 204.6z" class="b"/><path d="M459.5 198.7c10.8-4.2 13.8-12.8 14-22.3 -1.3-0.3-2.6-0.5-3.9-0.7 -1.9-0.3-3.7-0.5-5.6-0.7C465.6 183.3 465.6 192.1 459.5 198.7z" class="b"/><path d="M470.7 270.7c-12.4-3-23.4-5.9-38.2-2.3 -7.3 1.7-15.8 7.7-16.7 14.3C425.7 268.8 451.2 270.3 470.7 270.7z" class="b"/><path d="M440.1 369.4c-6.7-1.8-12.7-4.9-19.3-4.4 -1.6 1.4-3.2 2.6-4.6 3.4C424.3 369.7 434.9 368 440.1 369.4z" class="b"/><path d="M430.5 355.1c15.8 8.3 23.3 5.7 32.5-2.8C444.2 360.7 444.9 352.8 430.5 355.1z" class="b"/><path d="M487.1 253.2c13.7 1.4 31.3 9.2 28.2 19.9 3.7-4.8 6.8-9.6 8.7-14.3 0 0 0-0.1 0.1-0.1C512.7 252.9 499.1 254.5 487.1 253.2z" class="b"/><polygon points="262.7 304.9 262.7 304.9 262.7 304.9 " class="b"/><path d="M286.3 294.1c-8.1-2.7-18 1-22 9.3 9.1-5.3 21.3-2.6 30.5 1.3 7.6 2.9 11.8-2.9 16.7-7.4C303.8 301.7 293.7 296.5 286.3 294.1z" class="b"/><path d="M291.8 317.6c-2.4 7.2-7.6 13-20.4 16 6.1 0.5 15.9 2.4 18.8-4.1 3.2 4.9 9.9 2.9 14.7 9.4 0.6-2.1 1.3-4.3 2-6.6C299.7 330 291.8 325.8 291.8 317.6z" class="b"/><polygon points="300.5 359.6 300.5 359.6 300.5 359.6 " class="b"/><path d="M299.7 359.7c0.8-3.1 1.4-6 2-8.4 0.3-1.2 0.5-2.3 0.8-3.3 -8.3 6.3-18.8 8.3-28.3 9C283.1 358.6 291.2 360.7 299.7 359.7z" class="b"/><path d="M228.6 203.9c-1.4 0-6.7 1.6-8.1 3 20.5 2.8 24.2 2.3 27.7-16.3l0 0C240.8 200.4 236.1 203.3 228.6 203.9z" class="b"/><path d="M357.9 298.7c4 0.1 7.5 0.2 10.1 0.3 -0.8-8.2-4.1-23.2-7.6-30.6C361 276.9 362 291.6 357.9 298.7z" class="b"/><path d="M379.6 258.4c3.8 8.6 10.8 12.4 15.2 15.1 -9.1-13.1-6.6-22.8-12.3-30.6 -3.7-5.1-8.8-8.2-14.6-9.9C376.7 240.4 373.4 248.3 379.6 258.4z" class="b"/><path d="M345.8 290.4c-1.4-8.8-4.7-10.1-7.2-19.2 -2.8-9.2-0.8-25.8 3.5-34.3 -6.4 11.3-17 25.5-11.3 38.2C333.6 281.9 342.5 284.2 345.8 290.4z" class="b"/><path d="M229 231.1c15.6-1.4 30.2-0.4 43.1-16.8 -10.6 4.2-21.9 9.8-33.2 5.7 -6.7-2.8-13.9-4.2-21-4.9 0.6 5.4 1.1 10.5 1.9 15.4 0.2 1.1 0.4 2.2 0.6 3.2 0.3 1.3 0.5 2.6 0.9 3.9C223 234.1 225.5 231.1 229 231.1z" class="b"/><path d="M257.6 270.6c6-12.7 19.1-3 28.1-4.4 -8.5-3.5-17.7-11.8-26.9-9 -4.2 1.4-5 17-10.4 19.7C254.7 276.9 256 274 257.6 270.6z" class="b"/><path d="M453.1 332.9c-2.2 3.3-5 7.3-6.4 8 8.3 0 13.2-11.2 21.7-12.7C461.6 327.1 457.4 326.5 453.1 332.9z" class="b"/><path d="M458.1 321.1c5-3.1 7.8-8 10.4-13 -0.9 0.8-2.2 1.2-2.6 1.7 -14.1 7.1-30 9.5-39.7 21.5 -0.5 0.6-0.9 1.2-1.3 1.8 2 3.9 3.7 7.6 5.1 10.8 2.3-4.2 4.2-8.7 7.7-12.2C443.9 326.1 451.7 325.4 458.1 321.1z" class="b"/><path d="M468.4 308.1c0.5-0.5 0.9-1.1 0.9-1.9C469.1 306.9 468.8 307.5 468.4 308.1z" class="b"/><path d="M440.1 369.4c0.3 0.2 0.7 0.4 1 0.5" class="c"/><path d="M434.7 294.2c-4.5 5.4-6.9 11.4-8 17.8 12.5-20.1 40.6-26.2 63.2-25.6C471.5 278.7 448.9 276.6 434.7 294.2z" class="b"/><path d="M472.5 207.5c-0.8 0.8-1.6 1.7-2.4 2.6C471 209.3 471.7 208.4 472.5 207.5z" class="b"/><path d="M472.5 207.5c9.2-9.2 21.2-13.1 33.3-12.8 -3.6-3.7-7.9-7.4-13-10.5C482.5 187.6 479.3 199.4 472.5 207.5z" class="b"/><path d="M419.3 191.7c2.5-16.5 12.4-15.5 13.2-19.1 -4.8-0.2-9.6-0.3-14.4-0.4C417.4 176.8 418.2 187.6 419.3 191.7z" class="b"/><path d="M213 185.8c-0.2-0.9-0.4-1.6-0.6-2.2 0.5 0.2 1 0.4 1.5 0.5 0.1-0.2 0.2-0.4 0.4-0.6 -1.7-0.6-3.6-1.3-5.5-2.1 -0.2 0.2-0.4 0.3-0.6 0.5 1.2 0.5 2.3 1 3.4 1.4 0.2 0.9 0.5 2.1 0.9 3.5C212.7 186.4 212.8 186.1 213 185.8z" class="d"/><path d="M303.2 239.5c13.6 15.9 4.4 37.5 4.4 37.5s7.6-8.9 5.9-27.3c-1-11.3-2.7-17.3-10.9-24.8 -10-9.2-10.5-23-10.5-23s-0.9 15.1-7.9 24 -27.3 11-27.3 11C275.1 242.8 295.1 231.2 303.2 239.5z" class="b"/><path d="M214.7 171.5c-4.5 1.1-9 3.6-13 6.3 2.1 1.3 4.3 2.3 6.4 3.3 2.4-2.2 5-4.2 7.7-5.9 -0.3-0.6-0.6-1.2-0.9-1.8C214.8 172.8 214.7 172.2 214.7 171.5z" class="a"/><path d="M215.2 165.8c-0.2 1.5-0.3 3.2-0.1 4.9 0.5-0.1 1-0.2 1.5-0.3 0.1-0.1 0.2-0.2 0.4-0.2 0.3 0 0.5 0.2 0.5 0.5 0 0.3-0.2 0.5-0.5 0.5 -0.1 0-0.2 0-0.3-0.1 -0.5 0.1-1 0.2-1.5 0.3 0.2 1.2 0.6 2.4 1.2 3.4 1.1-0.6 2.2-1.2 3.3-1.8 0-0.3 0.3-0.5 0.5-0.5 0.3 0 0.5 0.2 0.5 0.5s-0.2 0.5-0.5 0.5c0 0-0.1 0-0.1 0 -1.1 0.5-2.2 1.1-3.3 1.8 0.6 0.7 1.3 1.3 2.2 1.7 0.9-0.9 1.8-1.8 2.8-2.5 0 0 0 0 0 0 0-0.3 0.2-0.5 0.5-0.5 0.3 0 0.5 0.2 0.5 0.5 0 0.3-0.2 0.5-0.4 0.5 -0.9 0.7-1.8 1.5-2.6 2.3 0.7 0.2 1.5 0.4 2.3 0.4 0.4-0.9 0.9-1.7 1.3-2.4 0 0 0-0.1 0-0.1 0-0.3 0.2-0.5 0.5-0.5s0.5 0.2 0.5 0.5c0 0.2-0.2 0.4-0.4 0.5 -0.4 0.6-0.8 1.3-1.2 2 1 0 2-0.3 3-0.6 0.4-1.4 0.9-2.8 1.5-4 0 0 0-0.1 0-0.2 0-0.3 0.2-0.5 0.5-0.5 0.3 0 0.5 0.2 0.5 0.5 0 0.2-0.2 0.4-0.4 0.5 -0.5 1-0.9 2.1-1.3 3.3 2.5-1 4.8-2.7 6.1-4.2l0.1-0.1v-4.1c-1.2-0.2-2.7-1.7-2.8-4.5 0-0.2-0.1-0.2-0.1-0.2 -0.2 0-0.5 0.2-0.8 0.4 -0.5 0.3-1.1 0.7-1.6 0.7 -0.2 0-0.3 0-0.4-0.1 -1.7-0.7-2.3-2.3-1.7-4.4 0.7-2.3 5.2-3 7.5-3 0.1 0 0.2 0 0.3 0 0.1 0 0.2 0 0.4 0 2.3 0 6.8 0.6 7.5 3 0.6 1.9 0 3.5-1.6 4.4 -0.2 0.1-0.5 0.2-0.7 0.2 -0.7 0-1.3-0.5-1.7-0.8 -0.1-0.1-0.4-0.3-0.5-0.3 0 0 0 0.1-0.1 0.2 -0.1 2.7-1.5 4.2-2.7 4.5l-0.1 0v4.4c1.4 1.5 3.7 2.9 6.2 3.9 -0.4-1.1-0.8-2.2-1.3-3.1 -0.2-0.1-0.4-0.3-0.4-0.5 0-0.3 0.2-0.5 0.5-0.5 0.3 0 0.5 0.2 0.5 0.5 0 0.1 0 0.1 0 0.2 0.5 1.1 1 2.4 1.5 3.7 1 0.3 2 0.6 3 0.6 -0.4-0.7-0.7-1.3-1.1-1.8 -0.2 0-0.4-0.2-0.4-0.5 0-0.3 0.2-0.5 0.5-0.5s0.5 0.2 0.5 0.5c0 0 0 0.1 0 0.1 0.5 0.7 0.9 1.4 1.4 2.3 0.8 0 1.5-0.1 2.2-0.3 -0.8-0.9-1.7-1.7-2.6-2.3 -0.3 0-0.4-0.2-0.4-0.5 0-0.3 0.2-0.5 0.5-0.5s0.5 0.2 0.5 0.5c0 0 0 0 0 0 1 0.7 1.9 1.6 2.8 2.5 0.9-0.4 1.6-1 2.2-1.7 -1.1-0.7-2.2-1.3-3.3-1.8 0 0-0.1 0-0.1 0 -0.3 0-0.5-0.2-0.5-0.5s0.2-0.5 0.5-0.5c0.3 0 0.5 0.2 0.5 0.5 1.1 0.6 2.3 1.2 3.4 1.8 0.7-1 1.1-2.2 1.3-3.4 -0.5-0.1-1.1-0.2-1.6-0.3 -0.1 0.1-0.2 0.1-0.3 0.1 -0.3 0-0.5-0.2-0.5-0.5 0-0.3 0.2-0.5 0.5-0.5 0.2 0 0.3 0.1 0.4 0.2 0.5 0.1 1.1 0.2 1.6 0.3 0.2-1.6 0.1-3.3-0.2-4.9 0 0 0.6 2.6 0.6 5 4.7 1.2 9.4 3.8 13.5 6.6 1.7-1.1 3.4-2.3 4.9-3.6 0.3-0.2 0.5-0.5 0.8-0.7 -0.5-3.1-3.1-6.7-5.4-8.8 -2.4-2.1-6.7-4.5-6.3-5.2 0.4-0.7 4.3-1.8 8.7 0 3.8 1.6 7.4 6.1 8.1 7.2 0.8-1.5 1.5-3.1 2.1-4.8 -1.4-1-6.4-5-8.1-9.9 -1.9-5.7-6.3-9.3-6-10.2 6 0.4 8.8 4.8 11.1 8.1 1.8 2.6 3.9 3.9 4.8 4.4 0.9-6.3 0.4-12.2-0.7-15.7 -0.7-2.1-2.6-7.7-7-13.6 0.7 0.6 1.2 1.2 1.4 1.5 0.5-1.3 3.8-10.4 4.2-19.4 0.6-12.5-0.3-20.1-2.7-22.5 -0.6-0.6-1.2-0.8-2-0.8 -5.3 0.2-21.7 17-24.1 24.6l-0.3-0.1c0 0 1.1 0.5 2.7 1.4 -5.1-1.8-11-2.9-17.9-2.9l-0.7 0c-6.8 0.3-12.6 1.5-17.6 3.2 1.4-0.7 2.4-1.2 2.4-1.2l-0.3 0.1c-2.5-7.8-18.9-24.9-24.1-25.2 -0.7 0-1.4 0.2-2 0.8 -2.4 2.4-3.3 10-2.7 22.5 0.4 9.1 3.8 18.2 4.2 19.4 0.2-0.3 0.7-0.7 1.2-1.2 -3.7 5-5.7 10-6.7 13.3 -1.1 3.5-1.6 9.5-0.7 15.8 0.9-0.5 3-1.8 4.8-4.4 2.3-3.4 5.1-7.7 11.1-8.1 0.3 0.9-4.1 4.4-6 10.2 -1.7 4.9-6.7 8.9-8.1 9.9 0.6 1.6 1.2 3.2 2.1 4.8 0.8-1.1 4.3-5.6 8.1-7.2 4.3-1.8 8.2-0.7 8.7 0 0.4 0.7-3.9 3.1-6.3 5.2 -2.3 2.1-4.9 5.7-5.4 8.8 0.3 0.2 0.5 0.5 0.8 0.7 1.6 1.4 3.3 2.7 5.2 3.8 4-2.9 8.7-5.6 13.3-6.8C214.7 168.4 215.2 165.8 215.2 165.8zM228.3 168.4c0.3 0 0.6 0.3 0.6 0.6 0 0.3-0.3 0.6-0.6 0.6 -0.3 0-0.6-0.3-0.6-0.6C227.7 168.7 228 168.4 228.3 168.4zM237.9 169.6c-0.3 0-0.6-0.3-0.6-0.6 0-0.3 0.3-0.6 0.6-0.6 0.3 0 0.6 0.3 0.6 0.6C238.5 169.4 238.2 169.6 237.9 169.6zM241.3 170.5c-0.3 0-0.6-0.3-0.6-0.6 0-0.3 0.3-0.6 0.6-0.6 0.3 0 0.6 0.3 0.6 0.6C241.9 170.2 241.6 170.5 241.3 170.5zM242.4 164.4c-0.3 0-0.6-0.3-0.6-0.6s0.3-0.6 0.6-0.6 0.6 0.3 0.6 0.6S242.7 164.4 242.4 164.4zM243.6 172c-0.3 0-0.6-0.3-0.6-0.6 0-0.3 0.3-0.6 0.6-0.6 0.3 0 0.6 0.3 0.6 0.6C244.2 171.7 243.9 172 243.6 172zM244 168.7c-0.3 0-0.6-0.3-0.6-0.6 0-0.3 0.3-0.6 0.6-0.6 0.3 0 0.6 0.3 0.6 0.6C244.6 168.4 244.3 168.7 244 168.7zM258.1 154.4c-3.8 2.7-12.7-0.6-14.3-1.6 -0.1 0-0.1 0-0.1 0s0 0 0-0.1c-0.1-0.1-0.1-0.1-0.1-0.1 -0.4-2.3-1.2-12.9 4.2-15.5 6.5-3.1 13.9 1.3 14.7 3.1C263.5 142.2 262.1 151.6 258.1 154.4zM272.8 87.3c3.2-0.1 6.1 15.3-0.4 37.1 -1.9-2.2-7.1-8.8-16.9-13.9C255.5 110.6 264.5 89 272.8 87.3zM258 122.1c0 0-4.3 1.3-5.9 4.7 -1.9 4.1-2.8 4.4-3.2 4 -0.4-0.4-0.5-3.4 0.9-5.5C251.9 122.1 258 122.1 258 122.1zM238.3 127.4c3.4-4.6 3.2-5.4 3.9-10.1 0.8-4.8 6.5-6 6.5-6s-3.4 3.3-4 6.4c-0.8 4.3 0.5 9.4-3.2 13.8 -3.8 4.5-4.7 6.6-4.7 6.6C236.2 138.4 235.9 130.5 238.3 127.4zM221.6 168.1c0-0.3 0.3-0.6 0.6-0.6 0.3 0 0.6 0.3 0.6 0.6 0 0.3-0.3 0.6-0.6 0.6C221.9 168.7 221.6 168.4 221.6 168.1zM222.6 172c-0.3 0-0.6-0.3-0.6-0.6 0-0.3 0.3-0.6 0.6-0.6 0.3 0 0.6 0.3 0.6 0.6C223.2 171.7 222.9 172 222.6 172zM223.8 164.4c-0.3 0-0.6-0.3-0.6-0.6s0.3-0.6 0.6-0.6 0.6 0.3 0.6 0.6S224.1 164.4 223.8 164.4zM225.5 169.9c0 0.3-0.3 0.6-0.6 0.6s-0.6-0.3-0.6-0.6c0-0.3 0.3-0.6 0.6-0.6S225.5 169.6 225.5 169.9zM224.8 117.3c0.8 4.6 0.5 5.5 3.9 10.1 2.4 3.1 2 11.1 1.5 10.6 0 0-0.9-2.1-4.7-6.6 -3.7-4.4-2.4-9.5-3.2-13.8 -0.6-3.1-4-6.4-4-6.4S223.9 112.5 224.8 117.3zM217.1 125.3c1.4 2.1 1.3 5.2 0.9 5.5 -0.4 0.4-1.3 0.1-3.2-4 -1.6-3.5-5.9-4.7-5.9-4.7S215.1 122.1 217.1 125.3zM193.4 87.3c8.3 1.7 17.3 23.2 17.3 23.2 -9.8 5.2-15.1 11.7-16.9 13.9C187.3 102.7 190.2 87.2 193.4 87.3zM208.1 154.4c-4-2.8-5.3-11.6-4.3-13.6 0.9-1.8 7.7-6.9 14.2-3.8 5.4 2.6 6 12.4 4.7 15.6 0 0.1-0.1 0.1-0.1 0.2 0 0.1 0 0.1 0 0.1s0 0 0 0C221 155 212.1 157.3 208.1 154.4z" class="a"/><path d="M250.4 175.2c2.7 1.7 5.2 3.7 7.6 5.9 2.2-1 4.5-2.1 6.7-3.4 -4-2.6-8.6-5-13.1-6.1 0 0.7-0.1 1.3-0.3 1.8C251.1 174 250.8 174.6 250.4 175.2z" class="a"/><path d="M216.2 175.7c-2.6 1.6-5.1 3.5-7.4 5.6 1.9 0.8 3.8 1.5 5.5 2.1 1.3-2.1 2.7-4.1 4.2-5.8C217.6 177.2 216.8 176.5 216.2 175.7z" class="a"/><path d="M250 175.8c-0.6 0.7-1.4 1.4-2.3 1.9 1.5 1.7 3 3.7 4.2 5.8 1.7-0.6 3.6-1.3 5.5-2.1C255.1 179.3 252.6 177.4 250 175.8z" class="a"/><path d="M251.2 183.7c-1.3-2.1-2.7-4.1-4.2-5.8 -0.7 0.3-1.5 0.4-2.4 0.4 1 2 1.9 4.4 2.6 6.8 0.7-0.3 1.5-0.5 2.4-0.9C250.1 184.1 250.7 183.9 251.2 183.7z" class="a"/><path d="M219.3 185.3c0.7-2.5 1.5-4.8 2.3-6.8 -0.8 0-1.7-0.2-2.5-0.5 -1.5 1.7-3 3.7-4.2 5.8 0.5 0.2 1.1 0.4 1.6 0.6C217.6 184.6 218.5 185 219.3 185.3z" class="a"/><path d="M246.6 185.4c-0.9-2.6-1.8-5-2.8-7 -1-0.1-2.1-0.3-3.1-0.6 0.9 3.1 1.5 6.4 1.9 9.3 1-0.5 2-0.9 3.2-1.4C246.1 185.6 246.3 185.5 246.6 185.4z" class="a"/><path d="M233.2 189.9h0.1l0.2 0h0c3.3 0 5.4-1 8.2-2.4 0.2-0.1 0.4-0.2 0.6-0.3 -0.5-3-1.3-6.6-2.3-9.7 -2.8-1-5.4-2.6-6.9-4.2 -1.5 1.6-4 3.4-6.8 4.4 -1 3.1-1.7 6.5-2.3 9.5 0.1 0 0.2 0.1 0.3 0.1C227.3 188.8 229.8 189.9 233.2 189.9z" class="a"/><path d="M223.6 187.1c0.4-2.8 1-6.1 1.9-9.1 -1 0.3-2.1 0.5-3.2 0.5 -1 2.1-1.9 4.4-2.7 6.9 0.3 0.1 0.5 0.2 0.8 0.3C221.6 186.1 222.6 186.6 223.6 187.1z" class="a"/><path d="M200.8 164.3c2.4-2.1 6.7-4.5 6.3-5.2 -0.4-0.7-4.3-1.8-8.7 0 -3.8 1.6-7.3 6.1-8.1 7.2 1.3 2.5 3 4.8 5.1 6.8C195.9 170 198.5 166.3 200.8 164.3z" class="b"/><path d="M196.3 151.5c1.9-5.7 6.3-9.3 6-10.2 -6 0.4-8.8 4.8-11.1 8.1 -1.8 2.6-3.9 3.9-4.8 4.4 0.4 2.5 1 5.1 1.8 7.6C189.6 160.4 194.7 156.5 196.3 151.5z" class="b"/><path d="M267.7 159c-4.3-1.8-8.2-0.7-8.7 0 -0.4 0.7 3.9 3.1 6.3 5.2 2.3 2.1 4.9 5.7 5.4 8.8 2.1-2 3.8-4.4 5.1-6.8C275.1 165.1 271.6 160.6 267.7 159z" class="b"/><path d="M275 149.5c-2.3-3.4-5.1-7.7-11.1-8.1 -0.3 0.9 4.1 4.4 6 10.2 1.7 4.9 6.7 8.9 8.1 9.9 0.9-2.5 1.5-5.1 1.8-7.6C278.9 153.4 276.8 152.1 275 149.5z" class="b"/><path d="M219.2 186c0.1-0.2 0.1-0.5 0.2-0.7 -0.8-0.3-1.8-0.6-2.8-1 -0.5-0.2-1-0.4-1.6-0.6 -0.1 0.2-0.3 0.4-0.4 0.6 0.6 0.2 1.2 0.4 1.7 0.6C217.4 185.3 218.3 185.6 219.2 186z" class="d"/><path d="M208.1 181.1c-2.1-0.9-4.3-2-6.4-3.3 -0.2 0.1-0.4 0.3-0.6 0.4 2.1 1.3 4.3 2.4 6.5 3.3C207.8 181.4 208 181.2 208.1 181.1z" class="d"/><path d="M257.4 181.3c-1.9 0.8-3.8 1.5-5.5 2.1 0.1 0.2 0.2 0.4 0.4 0.6 1.8-0.7 3.7-1.4 5.7-2.2C257.8 181.7 257.6 181.5 257.4 181.3z" class="d"/><path d="M251.2 183.7c-0.5 0.2-1.1 0.4-1.6 0.6 -0.9 0.3-1.7 0.6-2.4 0.9 0.1 0.2 0.1 0.4 0.2 0.7 0.7-0.3 1.5-0.6 2.4-0.9 0.6-0.2 1.1-0.4 1.7-0.6C251.5 184.1 251.4 183.9 251.2 183.7z" class="d"/><path d="M223.6 187.1c-1-0.5-2.1-0.9-3.2-1.4 -0.2-0.1-0.5-0.2-0.8-0.3 -0.1 0.2-0.1 0.4-0.2 0.7 0.2 0.1 0.5 0.2 0.7 0.3 1.2 0.5 2.3 1 3.4 1.5C223.5 187.6 223.6 187.3 223.6 187.1z" class="d"/><path d="M242.3 187.3c-0.2 0.1-0.4 0.2-0.6 0.3 -2.7 1.3-4.9 2.4-8.2 2.4h0l-0.2 0h-0.1c-3.3 0-5.8-1.1-9-2.6 -0.1 0-0.2-0.1-0.3-0.1 0 0.2-0.1 0.5-0.1 0.7 0 0 0.1 0 0.1 0 3.2 1.5 5.8 2.6 9.3 2.6l0.1 0 0.2 0h0c3.4 0 5.7-1.1 8.5-2.4 0.1-0.1 0.3-0.1 0.4-0.2C242.3 187.7 242.3 187.5 242.3 187.3z" class="d"/><path d="M246.6 185.4c-0.3 0.1-0.5 0.2-0.7 0.3 -1.2 0.5-2.3 1-3.2 1.4 0 0.2 0.1 0.5 0.1 0.7 1-0.5 2.1-1 3.4-1.5 0.2-0.1 0.5-0.2 0.7-0.3C246.7 185.8 246.6 185.6 246.6 185.4z" class="d"/><path d="M258.6 181.6c2.3-1 4.6-2.1 6.7-3.5 -0.2-0.1-0.4-0.3-0.7-0.4 -2.2 1.3-4.4 2.4-6.7 3.4C258.2 181.2 258.4 181.4 258.6 181.6z" class="d"/><path d="M222.2 117.7c0.8 4.3-0.5 9.4 3.2 13.8 3.8 4.5 4.7 6.6 4.7 6.6 0.6 0.4 0.9-7.5-1.5-10.6 -3.4-4.6-3.2-5.4-3.9-10.1 -0.8-4.8-6.5-6-6.5-6S221.6 114.6 222.2 117.7z" class="b"/><path d="M214.8 126.8c1.9 4.1 2.8 4.4 3.2 4 0.4-0.4 0.5-3.4-0.9-5.5 -2-3.2-8.2-3.2-8.2-3.2S213.2 123.4 214.8 126.8z" class="b"/><path d="M236.8 138c0 0 0.9-2.1 4.7-6.6 3.7-4.4 2.4-9.5 3.2-13.8 0.6-3.1 4-6.4 4-6.4s-5.7 1.2-6.5 6c-0.8 4.6-0.5 5.5-3.9 10.1C235.9 130.5 236.2 138.4 236.8 138z" class="b"/><path d="M248.9 130.8c0.4 0.4 1.3 0.1 3.2-4 1.6-3.5 5.9-4.7 5.9-4.7s-6.1 0-8.2 3.2C248.5 127.4 248.5 130.4 248.9 130.8z" class="b"/><path d="M222.5 152.8c-0.2-0.1-1.9-0.8-5.5-0.6 -11.5 0.6-11.9-9.2-12.4-11.8 2.3-1.9 5.6-3.2 9.1-2.8 0.1 0 0.3 0 0.4 0.1 0.2 0 0.3 0.1 0.5 0.1 1 0.2 1.9 0.5 2.8 1 0.1 0.1 0.2 0.1 0.4 0.2 0.1 0 0.2 0.1 0.3 0.1 5.1 3 4.6 12.5 4.6 13.6 0-0.1 0.1-0.1 0.1-0.2 1.3-3.2 0.7-13-4.7-15.6 -6.5-3.1-13.3 2-14.2 3.8 -1 2 0.3 10.8 4.3 13.6C212.1 157.3 221 155 222.5 152.8z" class="f"/><path d="M247.7 137.1c-5.4 2.6-4.6 13.2-4.2 15.5 0 0 0.1 0.1 0.1 0.1 -0.1-1.2-0.5-10.6 4.6-13.6 0 0 0.1 0 0.1 0 0.2-0.1 0.3-0.2 0.5-0.3 0.9-0.5 1.8-0.8 2.8-1 0.2 0 0.4-0.1 0.5-0.1 0.1 0 0.2 0 0.3 0 3.5-0.4 6.9 0.9 9.2 2.8 -0.5 2.6-0.9 12.4-12.4 11.8 -3.3-0.2-5 0.4-5.4 0.5 1.6 1 10.5 4.3 14.3 1.6 4-2.8 5.4-12.2 4.4-14.3C261.6 138.4 254.2 134 247.7 137.1z" class="f"/><path d="M249.2 152.3c11.5 0.6 11.9-9.2 12.4-11.8 -2.3-1.9-5.7-3.2-9.2-2.8 -0.1 0-0.2 0-0.3 0 -0.2 0-0.4 0.1-0.5 0.1 -1 0.2-1.9 0.5-2.8 1 -0.2 0.1-0.3 0.2-0.5 0.3 0 0-0.1 0-0.1 0 -5.1 3-4.6 12.5-4.6 13.6 0 0.1 0 0.1 0 0.1s0 0 0.1 0C244.2 152.6 245.9 152 249.2 152.3zM259.6 140.5c0.4 0.8 0.7 6.1-3 9.1 -1.9 1.6-4.8 1.9-6.9 1.9 -2.4 0-4.3-0.4-4.7-0.6 -0.2-0.9-0.6-9.1 4.1-11.6 1.4-0.7 2.8-1.1 4.4-1.1C256.7 138.3 259.2 139.8 259.6 140.5z"/><path d="M218 139.1c-0.1-0.1-0.2-0.1-0.3-0.1 -0.1-0.1-0.2-0.1-0.4-0.2 -0.9-0.5-1.8-0.8-2.8-1 -0.1 0-0.3-0.1-0.4-0.1 -0.1 0-0.3 0-0.4-0.1 -3.4-0.4-6.8 0.9-9.1 2.8 0.5 2.6 0.9 12.4 12.4 11.8 3.6-0.2 5.2 0.4 5.5 0.6 0 0 0 0 0 0s0 0 0-0.1C222.6 151.6 223.1 142.1 218 139.1zM206.6 140.5c0.4-0.8 2.9-2.2 6.1-2.2 1.6 0 3 0.4 4.4 1.1 4.7 2.5 4.3 10.8 4.1 11.6 -0.4 0.2-2.3 0.6-4.7 0.6 -2.1 0-5-0.3-6.9-1.9C205.9 146.6 206.2 141.3 206.6 140.5z"/><path d="M222 177.8c-0.8 0-1.5-0.2-2.3-0.4 -0.2 0.2-0.4 0.4-0.5 0.6 0.8 0.3 1.6 0.5 2.5 0.5C221.8 178.2 221.9 178 222 177.8z" class="d"/><path d="M240.7 177.8c1 0.3 2.1 0.5 3.1 0.6 -0.1-0.3-0.3-0.5-0.4-0.8 -1-0.1-2-0.3-3-0.6C240.5 177.2 240.6 177.5 240.7 177.8z" class="d"/><path d="M247.7 177.6c1-0.5 1.7-1.1 2.3-1.9 -0.2-0.1-0.4-0.3-0.6-0.4 -0.6 0.7-1.3 1.3-2.2 1.7C247.3 177.3 247.5 177.4 247.7 177.6z" class="d"/><path d="M226.2 177.7c2.8-1 5.2-2.8 6.8-4.4 1.5 1.6 4.2 3.2 6.9 4.2 -0.1-0.3-0.2-0.6-0.3-0.9 -2.5-0.9-4.8-2.4-6.2-3.9v-4.4l-0.1 0c-0.1 0-0.2 0-0.3 0 -0.1 0-0.2 0-0.3 0v4.1l-0.1 0.1c-1.4 1.5-3.6 3.2-6.1 4.2C226.4 177.1 226.3 177.4 226.2 177.7z" class="d"/><path d="M244.6 178.4c0.8 0 1.6-0.2 2.4-0.4 -0.2-0.2-0.4-0.4-0.5-0.6 -0.7 0.2-1.4 0.3-2.2 0.3C244.4 177.9 244.5 178.1 244.6 178.4z" class="d"/><path d="M250.4 175.2c0.4-0.6 0.7-1.2 0.9-1.9 0.2-0.5 0.3-1.1 0.3-1.8 -0.2 0-0.4-0.1-0.5-0.1 -0.2 1.2-0.6 2.4-1.3 3.4C250 174.9 250.2 175.1 250.4 175.2z" class="d"/><path d="M222.3 178.5c1.1 0 2.1-0.2 3.2-0.5 0.1-0.3 0.2-0.5 0.2-0.8 -1 0.3-2 0.5-3 0.6C222.5 178 222.4 178.2 222.3 178.5z" class="d"/><path d="M251.6 170.8c0-2.4-0.6-5-0.6-5 0.2 1.5 0.4 3.2 0.2 4.9C251.3 170.7 251.5 170.8 251.6 170.8z" class="d"/><path d="M215.2 165.8c0 0-0.5 2.6-0.5 5 0.1 0 0.3-0.1 0.4-0.1C214.9 169.1 214.9 167.4 215.2 165.8z" class="d"/><path d="M214.7 171.5c0 0.7 0.1 1.3 0.3 1.8 0.2 0.7 0.5 1.3 0.9 1.8 0.2-0.1 0.4-0.3 0.6-0.4 -0.6-1-1-2.1-1.2-3.4C215 171.4 214.9 171.5 214.7 171.5z" class="d"/><path d="M216.8 175.4c-0.2 0.1-0.4 0.3-0.6 0.4 0.6 0.8 1.3 1.4 2.3 1.9 0.2-0.2 0.3-0.4 0.5-0.5C218.1 176.7 217.4 176.1 216.8 175.4z" class="d"/><polygon points="192.4 126.2 192.4 126.2 192.4 126.2 " class="a"/><path d="M210.7 110.6c0 0-9-21.6-17.3-23.2 -3.2-0.1-6.1 15.3 0.4 37.1C195.6 122.3 200.8 115.7 210.7 110.6z" fill="#D26840"/><path d="M209.6 149.7c1.9 1.6 4.8 1.9 6.9 1.9 2.4 0 4.3-0.4 4.7-0.6 0.2-0.8 0.6-9.1-4.1-11.6 -1.4-0.7-2.8-1.1-4.4-1.1 -3.1 0-5.6 1.5-6.1 2.2C206.2 141.3 205.9 146.6 209.6 149.7zM216.5 142c0.8 0.2 0.3 5.2-5 6.7C211.5 148.7 211 143.3 216.5 142z" class="g"/><path d="M201.7 177.8c3.9-2.7 8.5-5.1 13-6.3 0.2 0 0.4-0.1 0.5-0.1 0.5-0.1 1-0.2 1.5-0.3 -0.1-0.1-0.2-0.2-0.2-0.4 0-0.1 0-0.2 0.1-0.3 -0.5 0.1-1 0.2-1.5 0.3 -0.1 0-0.3 0.1-0.4 0.1 -4.7 1.2-9.3 3.9-13.3 6.8 -0.2 0.2-0.4 0.3-0.6 0.5 -6 4.4-10.3 9.1-10.3 9.1 0.1-0.1 4.5-4.6 10.7-8.8C201.3 178.1 201.5 177.9 201.7 177.8z" class="h"/><path d="M208.8 181.3c2.3-2.1 4.8-4 7.4-5.6 0.2-0.1 0.4-0.3 0.6-0.4 1.1-0.6 2.2-1.2 3.3-1.8 -0.2-0.1-0.4-0.3-0.4-0.5 0 0 0-0.1 0-0.1 -1.1 0.6-2.2 1.1-3.3 1.8 -0.2 0.1-0.4 0.3-0.6 0.4 -2.7 1.7-5.3 3.7-7.7 5.9 -0.2 0.2-0.4 0.3-0.6 0.5 -13.4 12.5-21 30.2-21.1 30.5 0 0 8.1-17.7 21.8-30.2C208.4 181.7 208.6 181.5 208.8 181.3z" class="h"/><path d="M213.2 186.7c0.4-0.8 0.9-1.6 1.4-2.4 0.1-0.2 0.2-0.4 0.4-0.6 1.3-2.1 2.7-4.1 4.2-5.8 0.2-0.2 0.4-0.4 0.5-0.6 0.8-0.9 1.7-1.7 2.6-2.3 0 0 0 0-0.1 0 -0.3 0-0.5-0.2-0.5-0.5 -1 0.7-1.9 1.6-2.8 2.5 -0.2 0.2-0.3 0.4-0.5 0.5 -1.5 1.7-3 3.7-4.2 5.8 -0.1 0.2-0.2 0.4-0.4 0.6 -0.3 0.6-0.6 1.1-0.9 1.7 -0.2 0.3-0.3 0.6-0.5 1 -3.8 7.4-5.8 14.7-5.7 15.1 0 0 2.2-7 5.9-14.2C212.9 187.4 213.1 187 213.2 186.7z" class="h"/><path d="M219.4 186.1c0.1-0.2 0.1-0.4 0.2-0.7 0.8-2.5 1.7-4.9 2.7-6.9 0.1-0.2 0.2-0.5 0.4-0.7 0.4-0.7 0.8-1.4 1.2-2 0 0-0.1 0-0.1 0 -0.2 0-0.4-0.2-0.5-0.4 -0.5 0.7-0.9 1.5-1.3 2.4 -0.1 0.2-0.2 0.5-0.3 0.7 -0.9 2-1.6 4.4-2.3 6.8 -0.1 0.2-0.1 0.5-0.2 0.7 -1.6 5.8-2.7 12-3.2 14.6 -0.1 0.8-0.2 1.3-0.2 1.3 0.1-0.1 0.1-0.4 0.3-1.1 0-0.3 0.1-0.6 0.2-0.9C216.7 197 217.8 191.4 219.4 186.1z" class="h"/><path d="M225.5 178c-0.9 3-1.5 6.3-1.9 9.1 0 0.2-0.1 0.5-0.1 0.7 -0.5 3.8-0.7 6.7-0.7 6.9 0 0 0.3-2.9 1-6.8 0-0.2 0.1-0.5 0.1-0.7 0.5-3 1.3-6.4 2.3-9.5 0.1-0.3 0.2-0.6 0.3-0.9 0.4-1.2 0.9-2.3 1.3-3.3 0 0-0.1 0-0.1 0 -0.2 0-0.4-0.2-0.5-0.4 -0.6 1.2-1.1 2.5-1.5 4C225.6 177.4 225.5 177.7 225.5 178z" class="h"/><circle cx="223.8" cy="163.8" r="0.6" class="d"/><circle cx="224.9" cy="169.9" r="0.6" class="d"/><circle cx="222.6" cy="171.4" r="0.6" class="d"/><circle cx="222.2" cy="168.1" r="0.6" class="d"/><circle cx="228.3" cy="169" r="0.6" class="d"/><path d="M217.5 170.7c0-0.3-0.2-0.5-0.5-0.5 -0.2 0-0.3 0.1-0.4 0.2 -0.1 0.1-0.1 0.2-0.1 0.3 0 0.2 0.1 0.3 0.2 0.4 0.1 0.1 0.2 0.1 0.3 0.1C217.3 171.2 217.5 171 217.5 170.7z" class="d"/><path d="M220.8 173.1c0-0.3-0.2-0.5-0.5-0.5 -0.3 0-0.5 0.2-0.5 0.5 0 0 0 0.1 0 0.1 0 0.3 0.2 0.5 0.4 0.5 0 0 0.1 0 0.1 0C220.5 173.6 220.8 173.4 220.8 173.1z" class="d"/><path d="M222.8 174.5c0-0.3-0.2-0.5-0.5-0.5 -0.3 0-0.5 0.2-0.5 0.5 0 0 0 0 0 0 0 0.3 0.2 0.5 0.5 0.5 0 0 0 0 0.1 0C222.6 175 222.8 174.8 222.8 174.5z" class="d"/><path d="M223.8 175.8c0 0 0.1 0 0.1 0 0.2 0 0.4-0.2 0.4-0.5 0-0.3-0.2-0.5-0.5-0.5s-0.5 0.2-0.5 0.5c0 0 0 0.1 0 0.1C223.3 175.6 223.5 175.8 223.8 175.8z" class="d"/><path d="M227.7 173.6c0.1 0 0.1 0 0.1 0 0.2-0.1 0.4-0.3 0.4-0.5 0-0.3-0.2-0.5-0.5-0.5 -0.3 0-0.5 0.2-0.5 0.5 0 0.1 0 0.1 0 0.2C227.3 173.4 227.5 173.6 227.7 173.6z" class="d"/><path d="M272.4 124.5c6.5-21.8 3.5-37.3 0.4-37.1 -8.3 1.7-17.3 23.2-17.3 23.2C265.3 115.7 270.6 122.3 272.4 124.5z" fill="#D36840"/><path d="M249.2 139.4c-4.7 2.5-4.3 10.6-4.1 11.6 0.4 0.2 2.3 0.6 4.7 0.6 2.1 0 5-0.3 6.9-1.9 3.7-3.1 3.4-8.4 3-9.1 -0.4-0.8-2.9-2.2-6.1-2.2C252 138.3 250.5 138.6 249.2 139.4zM255.8 148.4c0 0-5.4-0.9-5.2-6.6C251 141.2 255.7 143 255.8 148.4z" class="g"/><path d="M250.6 141.8c-0.2 5.7 5.2 6.6 5.2 6.6C255.7 143 251 141.2 250.6 141.8z"/><path d="M216.5 142c-5.5 1.3-5 6.7-5 6.7C216.8 147.2 217.3 142.2 216.5 142z"/><path d="M251.6 170.8c-0.2 0-0.3-0.1-0.5-0.1 -0.5-0.1-1.1-0.2-1.6-0.3 0.1 0.1 0.1 0.2 0.1 0.3 0 0.2-0.1 0.3-0.2 0.4 0.5 0.1 1.1 0.2 1.6 0.3 0.2 0 0.4 0.1 0.5 0.1 4.5 1.1 9.1 3.5 13.1 6.1 0.2 0.1 0.4 0.3 0.7 0.4 6.3 4.1 10.9 8.5 10.9 8.5 -0.1-0.1-4.5-4.5-10.5-8.8 -0.2-0.1-0.4-0.3-0.6-0.4C261.1 174.6 256.3 172 251.6 170.8z" class="h"/><path d="M250 175.8c2.6 1.6 5.1 3.5 7.4 5.6 0.2 0.2 0.4 0.3 0.6 0.5 13.7 12.4 21.8 30.2 21.8 30.2 -0.1-0.2-7.7-17.9-21.1-30.5 -0.2-0.2-0.4-0.3-0.6-0.5 -2.4-2.2-4.9-4.1-7.6-5.9 -0.2-0.1-0.4-0.3-0.6-0.4 -1.1-0.7-2.2-1.3-3.4-1.8 0 0 0 0.1 0 0.1 0 0.3-0.2 0.5-0.4 0.5 1.1 0.6 2.2 1.2 3.3 1.8C249.6 175.5 249.8 175.6 250 175.8z" class="h"/><path d="M247 177.9c1.5 1.7 3 3.7 4.2 5.8 0.1 0.2 0.3 0.4 0.4 0.6 4.9 8.1 7.8 17.5 7.8 17.5 0.1-0.4-2.4-9.7-7.1-17.8 -0.1-0.2-0.2-0.4-0.4-0.6 -1.3-2.1-2.7-4.1-4.2-5.8 -0.2-0.2-0.3-0.4-0.5-0.5 -0.9-0.9-1.8-1.8-2.8-2.5 0 0.3-0.2 0.5-0.5 0.5 0 0 0 0-0.1 0 0.9 0.7 1.8 1.5 2.6 2.3C246.6 177.6 246.8 177.7 247 177.9z" class="h"/><path d="M251 201.1c0.1 0.3 0.1 0.5 0.1 0.5C251.1 201.7 251 201.5 251 201.1z" class="h"/><path d="M243.8 178.3c1 2 1.9 4.5 2.8 7 0.1 0.2 0.2 0.4 0.2 0.7 0.5 1.5 1 3.1 1.4 4.5l0 0c1.4 4.8 2.4 9.1 2.8 10.5 -0.1-0.4-0.2-0.8-0.3-1.4 -0.5-2.9-1.6-8.5-3.2-14 -0.1-0.2-0.1-0.4-0.2-0.7 -0.8-2.4-1.6-4.7-2.6-6.8 -0.1-0.2-0.2-0.5-0.4-0.7 -0.4-0.8-0.9-1.6-1.4-2.3 0 0.2-0.2 0.4-0.5 0.4 0 0-0.1 0-0.1 0 0.4 0.5 0.7 1.1 1.1 1.8C243.5 177.8 243.6 178.1 243.8 178.3z" class="h"/><path d="M239.9 177.5c1 3.1 1.8 6.7 2.3 9.7 0 0.2 0.1 0.5 0.1 0.7 0.7 3.8 1 6.7 1 6.7 0-0.3-0.2-3.1-0.7-6.9 0-0.2-0.1-0.5-0.1-0.7 -0.4-2.9-1-6.3-1.9-9.3 -0.1-0.3-0.2-0.6-0.3-0.8 -0.4-1.3-0.9-2.6-1.5-3.7 -0.1 0.2-0.3 0.4-0.5 0.4 -0.1 0-0.1 0-0.1 0 0.5 1 0.9 2 1.3 3.1C239.7 177 239.8 177.2 239.9 177.5z" class="h"/><circle cx="242.4" cy="163.8" r="0.6" class="d"/><circle cx="241.3" cy="169.9" r="0.6" class="d"/><circle cx="243.6" cy="171.4" r="0.6" class="d"/><circle cx="244" cy="168.1" r="0.6" class="d"/><circle cx="237.9" cy="169" r="0.6" class="d"/><path d="M249.7 170.7c0-0.1 0-0.2-0.1-0.3 -0.1-0.1-0.2-0.2-0.4-0.2 -0.3 0-0.5 0.2-0.5 0.5 0 0.3 0.2 0.5 0.5 0.5 0.1 0 0.2 0 0.3-0.1C249.6 171 249.7 170.9 249.7 170.7z" class="d"/><path d="M246.5 173.1c0 0 0-0.1 0-0.1 0-0.3-0.3-0.5-0.5-0.5 -0.3 0-0.5 0.2-0.5 0.5s0.2 0.5 0.5 0.5c0.1 0 0.1 0 0.1 0C246.3 173.5 246.5 173.3 246.5 173.1z" class="d"/><path d="M244.4 174.6c0 0 0 0 0 0 0-0.3-0.2-0.5-0.5-0.5s-0.5 0.2-0.5 0.5c0 0.3 0.2 0.5 0.4 0.5 0 0 0 0 0.1 0C244.1 175 244.4 174.8 244.4 174.6z" class="d"/><path d="M242.9 175.4c0 0 0-0.1 0-0.1 0-0.3-0.2-0.5-0.5-0.5s-0.5 0.2-0.5 0.5c0 0.3 0.2 0.5 0.4 0.5 0 0 0.1 0 0.1 0C242.6 175.8 242.8 175.6 242.9 175.4z" class="d"/><path d="M239 173.2c0 0 0-0.1 0-0.1 0-0.3-0.2-0.5-0.5-0.5 -0.3 0-0.5 0.2-0.5 0.5 0 0.2 0.2 0.4 0.4 0.5 0 0 0.1 0 0.1 0C238.7 173.6 238.9 173.4 239 173.2z" class="d"/><path d="M233 167.7c0.1 0 0.1 0 0.1 0l0.2 0c0.7-0.2 2.1-1.2 2.2-3.9 0.1-0.6 0.3-0.9 0.7-0.9 0.3 0 0.6 0.2 1 0.5 0.4 0.3 0.9 0.7 1.3 0.7 0.1 0 0.3 0 0.4-0.1 1.3-0.7 1.8-2 1.3-3.5 -0.5-1.8-4.4-2.5-6.8-2.5 -0.1 0-0.2 0-0.3 0l-0.1 0c-0.1 0-0.2 0-0.3 0 -2.3 0-6.2 0.7-6.8 2.5 -0.2 0.6-0.7 2.8 1.3 3.5 0.4 0.1 0.9-0.2 1.4-0.6 0.4-0.3 0.8-0.6 1.2-0.6 0.3 0 0.7 0.2 0.8 0.9C230.7 166.6 232.3 167.7 233 167.7z" fill="#DD6C4A"/><path d="M233.3 168.4l0.1 0 0.1 0c1.3-0.3 2.6-1.8 2.7-4.5 0-0.1 0-0.2 0.1-0.2 0.1 0.1 0.3 0.2 0.5 0.3 0.5 0.4 1.1 0.8 1.7 0.8 0.3 0 0.5-0.1 0.7-0.2 1.6-0.9 2.2-2.5 1.6-4.4 -0.7-2.3-5.2-3-7.5-3 -0.1 0-0.2 0-0.4 0 -0.1 0-0.2 0-0.3 0 -2.3 0-6.8 0.6-7.5 3 -0.6 2 0 3.7 1.7 4.4 0.1 0.1 0.3 0.1 0.4 0.1 0.6 0 1.1-0.4 1.6-0.7 0.3-0.2 0.6-0.4 0.8-0.4 0 0 0.1 0.1 0.1 0.2 0.1 2.9 1.6 4.3 2.8 4.5 0.1 0 0.2 0 0.3 0C233.2 168.4 233.3 168.4 233.3 168.4zM229.8 162.9c-0.4 0-0.8 0.3-1.2 0.6 -0.5 0.3-1.1 0.7-1.4 0.6 -1.9-0.8-1.5-2.9-1.3-3.5 0.5-1.8 4.4-2.5 6.8-2.5 0.1 0 0.2 0 0.3 0l0.1 0c0.1 0 0.2 0 0.3 0 2.3 0 6.2 0.7 6.8 2.5 0.5 1.6 0 2.8-1.3 3.5 -0.1 0.1-0.3 0.1-0.4 0.1 -0.4 0-0.9-0.4-1.3-0.7 -0.4-0.3-0.7-0.5-1-0.5 -0.4 0-0.6 0.3-0.7 0.9 -0.1 2.6-1.4 3.7-2.1 3.9l-0.2 0c0 0-0.1 0-0.1 0 -0.8 0-2.3-1.1-2.4-4C230.5 163.1 230.1 162.9 229.8 162.9z" fill="#9B3E29"/><path d="M425.5 241.7c10.4-1.9 22.2-5.5 27-3.5 4.8 2 10.1 10.9 13.7 16.3s15.6 10.7 15.6 10.7 -12-12.1-13-23.1c-1-11-11.5-15.8-14.5-18.8 -3-3-1.1-15.7-7.3-25.5 1.6 5.9-0.4 18.9-9.3 28.8s-27.7 15.1-27.7 15.1S415.1 243.6 425.5 241.7z" class="b"/></svg>