<svg xmlns="http://www.w3.org/2000/svg" viewBox="0 0 768 430"><style>.a{fill:#E8A070;}.b{fill:#E2CFB5;}.c{fill:#F44275;}.d{fill:#F4C6A6;}.e{fill:#EFE1CA;}.f{fill:#F77FA7;}.g{fill:#8C2E09;}.h{fill:#160E08;}.i{fill:#FFF;}.j{fill:#F7815C;}</style><path d="M360.5 397c21.3 0.7 11.1-109.4 11.1-109.4l-22.2 1.3C349.4 288.9 337.7 396.2 360.5 397" class="a"/><path d="M360.5 397c10.6 0.3 13.4-27.1 13.5-54.6l-27.6 0.1C346.3 369.5 349.1 396.6 360.5 397" class="b"/><path d="M360.5 397c8.7 0.3 12.1-17.9 13.1-39.5l-27 0.1C347.6 378.7 351.2 396.7 360.5 397" class="c"/><path d="M363.9 374.2c-2.7-0.7-5.1-0.3-7.7 0.6 -6.6 2.1-9.4-8.2-2.9-10.3 4.4-1.4 8.9-1.7 13.4-0.6C373.4 365.5 370.6 375.8 363.9 374.2z" class="c"/><path d="M406.3 396.8c21.2 0.7 11.1-109.4 11.1-109.4l-22.2 1.3C395.2 288.7 383.5 396 406.3 396.8" class="d"/><path d="M406.3 396.8c10.6 0.3 13.4-27.1 13.5-54.6l-27.6 0.1C392.1 369.3 394.9 396.4 406.3 396.8" class="e"/><path d="M406.3 396.8c8.7 0.3 12.1-17.9 13.1-39.5l-27 0.1C393.4 378.5 397 396.5 406.3 396.8" class="f"/><path d="M409.7 373.9c-2.7-0.7-5.1-0.3-7.7 0.6 -6.6 2.1-9.4-8.2-2.9-10.3 4.4-1.4 8.9-1.7 13.4-0.6C419.2 365.3 416.4 375.6 409.7 373.9z" class="f"/><path d="M324.5 213.1c0 0-48.1 37.3-30.8 52.3 16.1 13.9 48.9-39.3 48.9-39.3L324.5 213.1z" class="a"/><path d="M440.5 212.6c0 0 48.5 36.9 31.3 52 -16 14-49.3-38.9-49.3-38.9L440.5 212.6z" class="d"/><path d="M405.2 184.8l-22.8 2.5 -22.8-2.3c-35.8 35.1-36.4 98.7-35.4 120.5l58.8-0.3 58.8-0.3C442.4 283.1 441.2 219.5 405.2 184.8z" class="f"/><circle cx="336.7" cy="208" r="23.7" fill="#E02F6A"/><circle cx="428.3" cy="207.6" r="23.7" class="c"/><path d="M382.9 305.2l-0.5-118 -22.8-2.3c-35.8 35.1-36.4 98.7-35.4 120.5L382.9 305.2z" class="c"/><path d="M441.7 304.9c0.7-21.8-0.5-85.4-36.5-120.2l-22.8 2.5 0.5 118L441.7 304.9z" class="f"/><path d="M301.8 87.3c0 0-62-27.8-42.5 21.2 15.5 38.9 41.9 8.7 49.1-8L301.8 87.3z" class="c"/><path d="M298.2 86.6c0 0-1.7-62.9 34.7-32.5 32.1 26.9-6.4 42.3-24.6 43.3L298.2 86.6z" class="f"/><polygon points="290.4 83.7 299.1 77.4 322.8 93.8 304.4 109.7 " class="b"/><path d="M464.3 87.7c0 0 10.8-67.1-31.5-35.6 -33.6 25 2.5 42.8 20.4 45.4L464.3 87.7z" class="f"/><path d="M464 84c0 0 60.3-18 40.4 25 -17.6 38-42.6 4.8-48.2-12.5L464 84z" class="c"/><polygon points="464.8 75.8 473.2 82.5 463.4 109.7 443.3 96 " class="e"/><path d="M318.3 100.3c0 0-85.4-17.4-76.9 24 8.5 41.4 41.7 61.4 52.4 51.9 10.6-9.5 32.9-49.9 32.9-49.9L318.3 100.3z" fill="#602311"/><path d="M445.7 99.7c0 0 85.2-18.2 77.1 23.3 -8.1 41.5-41.2 61.8-51.9 52.4 -10.7-9.4-33.4-49.6-33.4-49.6L445.7 99.7z" class="g"/><circle cx="305.9" cy="129.5" r="17.4" fill="#CE8757"/><path d="M475.7 128.7c0 9.6-7.7 17.4-17.3 17.5 -9.6 0-17.4-7.7-17.5-17.3 0-9.6 7.7-17.4 17.3-17.5C467.8 111.3 475.7 119.1 475.7 128.7z" class="a"/><path d="M352.6 190.3c0 0-9.9 16.9 8.5 21.5 18.1 4.6 21.1-11.6 21.1-11.6L352.6 190.3z" class="b"/><path d="M412.1 190c0 0 10.1 16.8-8.3 21.6 -18.1 4.7-21.2-11.4-21.2-11.4L412.1 190z" class="e"/><path d="M457.4 135.9c0.2 35.3-33.4 64.1-74.9 64.3 -41.5 0.2-75.3-28.3-75.5-63.6 -0.2-35.3 33.4-64.1 74.9-64.3C423.4 72.1 457.2 100.6 457.4 135.9z" class="d"/><path d="M381.8 72.3c-41.3 0.5-75.1 29.1-74.9 64.3 0.2 35.2 34.2 63.5 75.5 63.6L381.8 72.3z" class="a"/><circle cx="349.3" cy="131.2" r="9.1" class="h"/><circle cx="414.9" cy="130.9" r="9.1" class="h"/><circle cx="352.7" cy="129.2" r="3.3" class="i"/><circle cx="417.5" cy="128.9" r="3.3" class="i"/><path d="M311.6 113.6c0 0 49.3 5.4 71-18.2l-0.2-45.1C382.3 50.3 301.8 55.2 311.6 113.6z" class="g"/><path d="M452.1 113c0 0-48.1 5.9-69.6-17.5l-0.2-45.1C382.3 50.3 463.6 51.3 452.1 113z" fill="#B03A00"/><circle cx="339.6" cy="162.1" r="15.4" class="j"/><circle cx="424.9" cy="161.7" r="15.4" fill="#FC9B81"/><path d="M360.1 159.2c0 0 22.7 12 44.2-0.7C404.4 158.5 386.1 194.9 360.1 159.2z" fill="#AE0400"/><path d="M382.1 125.9l0.1 25.3C382.2 151.2 362.7 151.3 382.1 125.9z" class="j"/><path d="M382.1 125.9l0.1 25.3C382.2 151.2 401.7 151.1 382.1 125.9z" fill="#FF997D"/><path d="M418.2 305.1l-0.5 0 -22.8 0.1 -0.5 0 -22.8 0.1 -0.5 0 -22.8 0.1 -0.5 0 -23.4 0.1c0.4 6.3 5.6 11.2 12 11.2 5.7 0 10.5-4.1 11.6-9.5 1.2 5.4 6 9.4 11.7 9.4 5.7 0 10.5-4.1 11.6-9.5 1.2 5.4 5.8 9.4 11.5 9.4 5.7 0 10.7-4.1 11.8-9.5 1.2 5.4 6 9.4 11.7 9.4 5.7 0 10.5-4.1 11.6-9.5 1.2 5.4 6 9.4 11.7 9.4 6.4 0 11.5-5 11.9-11.3L418.2 305.1z" class="b"/><path d="M382.7 305.3l0.1 11.2c5.6-0.1 10.7-4.1 11.8-9.5 1.2 5.4 6 9.4 11.7 9.4 5.7 0 10.5-4.1 11.6-9.5 1.2 5.4 6 9.4 11.7 9.4 6.4 0 11.5-5 11.9-11.3L382.7 305.3z" class="e"/></svg>