<svg xmlns="http://www.w3.org/2000/svg" viewBox="0 0 768 430"><style>.a{fill:#333;}.b{fill:#C6C6C9;}.c{fill:#666;}</style><path d="M242.3 163.7c20.2 32.3 20.8 51.6 0 85h135.4V89.9c-30.9 22.2-50.1 24.1-84.8 5.5C289.7 134.6 277.7 149.8 242.3 163.7z" fill="#A0D167"/><path d="M484.6 259.9c-6.2 0-11.2-5-11.2-11.2v-30.9c0-24.8 20.2-45 44.9-45h23.9c6.2 0 11.2 5 11.2 11.2 0 6.2-5 11.2-11.2 11.2H518.3c-12.4 0-22.5 10.1-22.5 22.5v30.9C495.8 254.9 490.8 259.9 484.6 259.9z" fill="#A97218"/><path d="M484.6 263.4c-8.1 0-14.7-6.6-14.7-14.8v-30.9c0-26.7 21.7-48.5 48.5-48.5h23.9c8.1 0 14.8 6.6 14.8 14.8 0 8.1-6.6 14.8-14.8 14.8H518.3c-10.5 0-19 8.5-19 19v30.9C499.3 256.8 492.7 263.4 484.6 263.4zM518.3 176.3c-22.8 0-41.4 18.6-41.4 41.4v30.9c0 4.3 3.5 7.7 7.7 7.7 4.3 0 7.7-3.5 7.7-7.7v-30.9c0-14.3 11.7-26 26-26h23.9c4.3 0 7.7-3.5 7.7-7.7 0-4.3-3.5-7.7-7.7-7.7H518.3z" class="a"/><path d="M548.5 290.8c0 46.2-37.4 83.6-83.6 83.6h-139.1c-46.2 0-83.6-37.4-83.6-83.6v-42.1h306.2V290.8z" fill="#F9C38D"/><path d="M464.9 377.9h-139.1c-48 0-87.1-39.1-87.1-87.1v-42.1c0-1.9 1.6-3.5 3.5-3.5h306.2c1.9 0 3.5 1.6 3.5 3.5v42.1C552 338.8 513 377.9 464.9 377.9zM245.8 252.2v38.6c0 44.1 35.9 80.1 80.1 80.1h139.1c44.2 0 80.1-35.9 80.1-80.1v-38.6H245.8z" class="a"/><path d="M354.4 298.6c0-13.6 11.1-24.7 24.7-24.7 6.3 0 13 3.2 16.3 7.7 3.3-4.5 10-7.7 16.3-7.7 13.6 0 24.7 11.1 24.7 24.7 0 28.9-41 50.5-41 50.5S354.4 327.5 354.4 298.6z" fill="#ED5C5C"/><path d="M395.4 352.6c-0.6 0-1.1-0.1-1.6-0.4 -1.8-0.9-42.9-22.9-42.9-53.6 0-15.5 12.6-28.2 28.2-28.2 5.9 0 12 2.4 16.3 6.1 4.3-3.7 10.4-6.1 16.3-6.1 15.6 0 28.2 12.7 28.2 28.2 0 30.7-41.1 52.7-42.9 53.6C396.5 352.5 396 352.6 395.4 352.6zM379.1 277.5c-11.7 0-21.2 9.5-21.2 21.2 0 23.3 30.1 42.2 37.5 46.5 7.4-4.3 37.5-23.2 37.5-46.5 0-11.7-9.5-21.2-21.2-21.2 -5.1 0-10.9 2.7-13.5 6.3 -0.7 0.9-1.7 1.5-2.8 1.5l0 0c-1.1 0-2.2-0.5-2.8-1.5C390 280.2 384.2 277.5 379.1 277.5z" class="a"/><path d="M330.5 366.5c0 21.9-17.8 39.7-39.7 39.7 -21.9 0-39.7-17.8-39.7-39.7 0-21.9 17.8-39.7 39.7-39.7C312.8 326.8 330.5 344.6 330.5 366.5z" class="b"/><circle cx="499.9" cy="366.5" r="39.7" class="b"/><path d="M290.8 409.7c-23.8 0-43.2-19.4-43.2-43.2 0-23.8 19.4-43.2 43.2-43.2s43.2 19.4 43.2 43.2C334.1 390.4 314.7 409.7 290.8 409.7zM290.8 330.3c-19.9 0-36.2 16.2-36.2 36.2 0 20 16.2 36.2 36.2 36.2 19.9 0 36.2-16.2 36.2-36.2C327 346.6 310.8 330.3 290.8 330.3z" class="a"/><path d="M306.2 366.5c0 8.5-6.9 15.3-15.3 15.3 -8.5 0-15.3-6.9-15.3-15.3 0-8.5 6.9-15.3 15.3-15.3C299.3 351.2 306.2 358.1 306.2 366.5z" class="c"/><path d="M484.6 366.5c0 8.5 6.9 15.3 15.3 15.3 8.5 0 15.3-6.9 15.3-15.3 0-8.5-6.9-15.3-15.3-15.3C491.5 351.2 484.6 358.1 484.6 366.5z" class="c"/><path d="M290.8 385.4c-10.4 0-18.9-8.5-18.9-18.9 0-10.4 8.5-18.9 18.9-18.9s18.9 8.5 18.9 18.9C309.7 376.9 301.2 385.4 290.8 385.4zM290.8 354.7c-6.5 0-11.8 5.3-11.8 11.8s5.3 11.8 11.8 11.8c6.5 0 11.8-5.3 11.8-11.8S297.4 354.7 290.8 354.7z" class="a"/><path d="M499.9 409.7c-23.8 0-43.2-19.4-43.2-43.2 0-23.8 19.4-43.2 43.2-43.2 23.8 0 43.2 19.4 43.2 43.2C543.2 390.4 523.8 409.7 499.9 409.7zM499.9 330.3c-19.9 0-36.2 16.2-36.2 36.2 0 20 16.2 36.2 36.2 36.2 20 0 36.2-16.2 36.2-36.2C536.1 346.6 519.9 330.3 499.9 330.3z" class="a"/><path d="M499.9 385.4c-10.4 0-18.9-8.5-18.9-18.9 0-10.4 8.5-18.9 18.9-18.9 10.4 0 18.9 8.5 18.9 18.9C518.8 376.9 510.3 385.4 499.9 385.4zM499.9 354.7c-6.5 0-11.8 5.3-11.8 11.8s5.3 11.8 11.8 11.8c6.5 0 11.8-5.3 11.8-11.8S506.5 354.7 499.9 354.7z" class="a"/><path d="M377.6 252.2H242.3c-1.3 0-2.5-0.7-3.1-1.8 -0.6-1.1-0.6-2.5 0.1-3.6 19.7-31.6 19.7-49.8 0-81.3 -0.6-0.9-0.7-2-0.4-3 0.3-1 1.1-1.8 2-2.2 34.5-13.6 45.4-28.2 48.4-65.3 0.1-1.2 0.8-2.2 1.8-2.8 1-0.6 2.3-0.6 3.3 0 15.8 8.5 27.7 12.3 38.6 12.3 12.9 0 25.2-5.1 42.5-17.5 1.1-0.8 2.5-0.9 3.7-0.3 1.2 0.6 1.9 1.8 1.9 3.1v158.7C381.1 250.6 379.6 252.2 377.6 252.2zM248.5 245.1h125.6V96.6c-15.7 10.4-28.2 15-41 15 -11 0-22.6-3.3-37.3-10.7 -3.8 34.9-15.8 50.8-48.4 64.5C265.4 195.5 265.7 215.4 248.5 245.1z" class="a"/><path d="M292.8 95.4c-3.2 39.2-15.2 54.4-50.6 68.3l135.4 85V89.9C346.7 112.1 327.5 114 292.8 95.4z" fill="#4FBFEE"/><path d="M292.8 95.4l84.8 153.3V89.9C346.7 112.1 327.5 114 292.8 95.4z" fill="#F9CD00"/><path d="M377.6 252.2c-1.3 0-2.4-0.7-3.1-1.8l-84.8-153.3c-0.8-1.4-0.5-3.1 0.6-4.2 1.1-1.1 2.8-1.4 4.2-0.6 15.8 8.5 27.7 12.3 38.6 12.3 12.9 0 25.2-5.1 42.5-17.5 1.1-0.8 2.5-0.9 3.7-0.3 1.2 0.6 1.9 1.8 1.9 3.1v158.7c0 1.6-1.1 3-2.6 3.4C378.2 252.1 377.9 252.2 377.6 252.2zM301.4 103.6l72.7 131.5V96.6c-15.7 10.4-28.2 15-41 15C323.6 111.6 313.5 109.1 301.4 103.6z" class="a"/><path d="M377.6 252.2c-0.6 0-1.3-0.2-1.9-0.5l-135.4-85c-1.1-0.7-1.8-2-1.6-3.3 0.1-1.3 1-2.5 2.2-2.9 34.5-13.6 45.4-28.2 48.4-65.3 0.1-1.2 0.8-2.2 1.8-2.8 1-0.6 2.3-0.6 3.3 0 15.8 8.5 27.7 12.3 38.6 12.3 12.9 0 25.2-5.1 42.5-17.5 1.1-0.8 2.5-0.9 3.7-0.3 1.2 0.6 1.9 1.8 1.9 3.1v158.7c0 1.3-0.7 2.5-1.8 3.1C378.8 252 378.2 252.2 377.6 252.2zM249.9 164.3l124.2 78V96.6c-15.7 10.4-28.2 15-41 15 -11 0-22.6-3.3-37.3-10.7C292.2 134.9 280.7 150.9 249.9 164.3z" class="a"/></svg>