<svg xmlns="http://www.w3.org/2000/svg" viewBox="0 0 768 430"><style>.a{fill:#7DBBEA;}.b{fill:#9ACEFC;}.c{fill:#63A1CE;}.d{fill:#F2ADAD;}.e{fill:#FFD2D2;}.f{fill:#FFF;}.g{fill:#B57400;}.h{fill:#190000;}.i{fill:#7E3B02;}</style><path d="M443.9 249.7c-10.9-11.7-23.5-13.5-23.5-13.5l-33.2 4.5c0 0 0.2 14.2 14.3 22.9 11.6 7.2 23.1 3.5 25.9 7.9 -2.9 12.4 3.6 22.7 11.5 24 7.9 1.3 13.8-6.1 14.7-17.1C454.3 267.5 453.1 252.4 443.9 249.7z" class="a"/><path d="M443.9 249.7c-10.9-11.7-23.5-13.5-23.5-13.5l-33.2 4.5c0 0 0.8 9.5 14.9 18.3 11.6 7.2 27.3-1 30.1 3.4 -2.9 12.4 0.6 23.9 8.4 25.2 7.9 1.3 10.2-4.5 11-15.5C452.6 261.2 453.1 252.4 443.9 249.7z" class="b"/><path d="M440.6 296.5c-0.6 0-1.3-0.1-1.9-0.2 -3.6-0.6-7-3-9.4-6.6 -3.3-4.9-4.3-11.5-2.8-18 -1.2-1.4-4-1.7-7.6-2.1 -4.8-0.5-11.4-1.2-17.8-5.2 -14.3-8.9-13-23.6-13-23.6 0 0.1 0.3 13.8 13.9 22.2 6.2 3.8 12.3 4.5 17.2 5 4.2 0.4 7.5 0.8 8.9 3.1l0.2 0.3 -0.1 0.3c-1.5 6.2-0.5 12.5 2.5 17.1 2.2 3.3 5.1 5.3 8.3 5.9 2.7 0.5 5.3-0.2 7.4-1.9 3.5-2.8 5.8-8 6.3-14.4 0.4-5.8 1-25-9-27.9l-0.2-0.1 -0.2-0.2c-10.6-11.4-22.9-13.2-23-13.2 0 0 13 0.3 24 12 10.7 3.3 10.5 21.7 9.9 29.5 -0.5 6.8-3 12.5-6.9 15.6C445.4 295.7 443.1 296.5 440.6 296.5z" class="c"/><path d="M427.5 275.9l-1.6-0.1c0.6-10.1 7.1-14.2 7.1-14.2C433 261.6 428.1 266.5 427.5 275.9z" class="c"/><path d="M434.7 294.2l-1-1.2c6.2-5.2 5.9-19 5.9-19.1C439.6 273.8 441.5 288.5 434.7 294.2z" class="c"/><path d="M444.7 295.5l-1.3-0.9c6-8.7 4.2-19.2 4.2-19.3C447.6 275.3 451.1 286.3 444.7 295.5z" class="c"/><path d="M430.2 350.6c25.2-24.4 7.7-60.5-12.6-67.5 -20.3-6.9-39.8 4.3-39.8 4.3l-49.1 31.5c-3 21.6 15.3 40.3 27.8 43 -1.9 2.7-4.3 10 12.6 14.7 16.8 4.7 58.2 6.4 69.4-1.9 2.7-0.6 11.9-1.9 12.3-7.9C450.8 358.1 440.6 349.9 430.2 350.6z" class="a"/><path d="M424.4 337.4c14.4-15.8 10.3-42.9-8.4-54.8 -19.7-5.8-38.1 4.8-38.1 4.8l-49.1 31.5c-0.8 6.1 0 12 2 17.4 4.8 7.6 12 13.6 21.8 16.7C377.8 359.5 407.4 357.6 424.4 337.4z" class="b"/><path d="M436.2 351.2c-14.4 21.1-48.6 12.8-71 17.2 -0.5 4.8 5.5 7.6 9.2 9.6 18.9 3.8 54.1 4.4 64.3-3.1 2.7-0.6 11.9-1.9 12.3-7.9C450.8 359.8 444.2 353.1 436.2 351.2z" class="b"/><path d="M415.3 381.1c-16.5 1-36.2-0.8-46.4-3.7 -8-2.2-12.7-5.3-14.1-9.2 -0.9-2.4-0.2-4.5 0.5-5.8 -13.4-3.7-30.3-23-27.4-43.6l1.6 0.2c-3 21.8 15.9 39.7 27.2 42.1l1.2 0.3 -0.7 1c-0.6 0.8-1.8 2.9-0.9 5.4 1.2 3.3 5.7 6.1 13 8.2 17.6 5 58.2 5.9 68.7-1.8l0.3-0.1 0.8-0.2c3.1-0.6 10.5-2.1 10.9-7 -0.1-3.5-2-7.2-5.3-10.2 -4-3.6-9.4-5.5-14.6-5.2l-2.2 0.1 1.5-1.5c10.4-10.1 14.4-23.3 11.2-37.2 -3.1-13.4-12.7-25.3-23.4-29 -19.7-6.7-38.9 4.1-39.1 4.2 0 0 19.3-12.7 39.7-5.7 11.2 3.8 21.3 16.2 24.5 30.2 3.2 13.8-0.5 27-10.2 37.3 4.9 0.2 10 2.3 13.8 5.7 3.6 3.2 5.7 7.4 5.8 11.4 -0.5 6.2-8.7 7.8-12.2 8.5l-0.6 0.1C434.4 378.7 425.5 380.5 415.3 381.1z" class="c"/><path d="M439.4 375l-1.6-0.6c1.5-4.1 1.6-7.6 0.1-10.4 -2.2-4.1-6.8-5.5-6.8-5.5 0 0 5.8 0 8.3 4.8C441.1 366.6 441.1 370.5 439.4 375z" class="c"/><path d="M412.1 359.5c0.1 0 15.2-3.9 23-15.9l1.4 0.9C428.3 357 412.1 359.5 412.1 359.5z" class="c"/><path d="M347 358.4l0.9-1.3c13.2 8.6 34.1 7.9 34.3 7.9C382.2 365 360.6 367.2 347 358.4z" class="c"/><path d="M420.7 151.1c-4.5-17.9-6.7-37.6 4-58.1 10.7-20.5 39.4-41.6 47.4-40 8 1.6 0.5 13.6 0 20.8 -0.5 7.2 0.8 27.7-8.3 46.9 -9.1 19.2-27.4 31.2-32.5 32.3C429.3 153 420.7 151.1 420.7 151.1z" class="a"/><path d="M420.7 151.1c-4.5-17.9-6.7-37.6 4-58.1 10.7-20.5 39.4-41.6 47.4-40 8 1.6-5.8 9.9-6.3 17.1 -0.5 7.2-3.1 26.5-12.2 45.7 -9.1 19.2-27.3 33.5-32.3 34.6C419.3 150.4 420.7 151.1 420.7 151.1z" class="b"/><path d="M431.5 153.8h-0.1c-2.2 0-10.5-1.8-10.8-1.9l-0.5-0.1 -0.1-0.5c-4-15.9-7.2-37 4.1-58.7 10.4-20.1 37.8-40.5 47.2-40.5 0.4 0 0.8 0 1.1 0.1 1.7 0.3 2.8 1.1 3.6 2.3 1.7 2.8 0.2 7.5-1.1 12 -0.8 2.6-1.6 5.3-1.8 7.4 -0.1 1.2-0.1 2.9-0.2 4.8 -0.2 9.2-0.6 26.4-8.2 42.4 -8.9 18.8-27.2 31.5-33.1 32.7L431.5 153.8zM421.4 150.4c2.6 0.6 8.2 1.7 9.9 1.7 4.5-1.1 22.9-12.7 31.9-31.8 7.4-15.7 7.8-32.7 8-41.8 0-1.9 0.1-3.6 0.2-4.9 0.2-2.3 1-5.1 1.8-7.7 1.3-4.2 2.6-8.5 1.3-10.7 -0.5-0.8-1.3-1.3-2.5-1.5 -0.2 0-0.5-0.1-0.8-0.1 -8.8 0-35.8 20.4-45.8 39.6C414.6 114.3 417.2 133.9 421.4 150.4z" class="c"/><path d="M428.7 147.6c-1.6-25.6 12.5-64.8 34.3-76.2C463.6 96.2 455.4 130.1 428.7 147.6z" class="d"/><path d="M462.9 80.4c-11.8 8.7-21.1 21-25.9 34.2 -3.2 8.4-4.2 18.9-0.9 27.4C454.2 125.9 461.6 101.2 462.9 80.4z" class="e"/><path d="M428 149.1l-0.1-1.4c-1.6-26.3 13.2-65.7 34.8-77l1.1-0.6 0 1.3c0.6 25.7-8.2 59.4-34.7 76.9L428 149.1zM462.3 72.8c-20.1 11.6-33.9 48.1-32.9 73.4C454 129.2 462.6 97.5 462.3 72.8z" class="c"/><path d="M346.5 365.8c-0.8 10.5-17 17.8-36.3 16.4 -19.2-1.5-34.2-11.2-33.4-21.7 0.8-10.5 17-17.8 36.3-16.3C332.4 345.6 347.3 355.3 346.5 365.8z" class="a"/><path d="M313.2 344.1c-16.5-1.3-30.8 4-35 12.1 1.6 3.3 4.4 6.2 6.9 7.8 14.4 9.6 30.4 9.6 44.8 4.8 6.1-1.5 11.4-4.1 16-7.8C342.7 352.5 329.5 345.4 313.2 344.1z" class="b"/><path d="M315.1 383.1c-1.6 0-3.3-0.1-4.9-0.2 -19.6-1.5-34.9-11.6-34.1-22.5 0.8-10 14.3-17.3 32.2-17.3 1.6 0 3.3 0.1 4.9 0.2 19.6 1.5 34.9 11.6 34.1 22.5C346.6 375.8 333 383.1 315.1 383.1zM308.3 344.7c-16.8 0-29.9 6.8-30.6 15.8 -0.8 10 13.9 19.4 32.6 20.8 1.6 0.1 3.2 0.2 4.8 0.2 16.8 0 29.9-6.8 30.6-15.8 0.8-10-13.9-19.4-32.6-20.8C311.5 344.8 309.9 344.7 308.3 344.7z" class="c"/><path d="M431.8 231.3c5.2 20.5-7.6 24.8-7.3 37.9 0.3 13 19.2 77.6-26.7 99.4 -28.8 12.8-67.1 14.5-83.1-7.5 -16-22-9.4-40.4 2.4-61.2s22.4-30.4 24-42.6c1.6-12.3 10.8-33.6 28.1-52 8.2-12 5.5-38.6 19.4-54.4 13.9-15.7 52.5-11.2 63.7 2.1 11.2 13.3 8 31.4 10.9 38.4 7.5 9.3 14.9 26.4 1.3 31.4 1.2 6.2-9.2 12.2-20 6.4C440.4 227.9 435 230.4 431.8 231.3z" class="a"/><path d="M459.6 220.8c-0.1-0.2-0.2-0.4-0.3-0.6C459.5 220.4 459.5 220.6 459.6 220.8z" class="c"/><path d="M463.1 191.4c-2.9-6.9 0.3-25-10.9-38.4 -11.2-13.3-49.8-17.9-63.7-2.1 -13.9 15.7-11.2 42.4-19.4 54.4 -17.2 18.4-26.5 39.7-28.1 52 -1.6 12.3-12.3 21.9-24 42.6s-18.4 39.2-2.4 61.2c16 22 54.3 20.3 83.1 7.5 45.8-21.9 26.9-86.4 26.7-99.4 -0.2-10.4 7.8-15.2 8.5-27.1 -27.6 3.5-55.7-22.5-47.2-52.3 1.6 28.8 20.9 41.2 51.4 32 4.8 0 10.9 9.6 18.9 4.8 1.5-1.5 4.4-3 3.5-5.8 -0.1-0.2-0.2-0.4-0.3-0.6 0.1 0.2 0.2 0.4 0.3 0.6 1 2.2 2.8 2.8 4.8 2.8 0-0.3 0-0.6-0.1-0.8C478 217.7 470.6 200.7 463.1 191.4z" class="b"/><path d="M355.4 378.8c-18.6 0-33.2-6.1-41.3-17.3 -17-23.4-8.6-42.7 2.3-62.1 4.5-7.9 8.7-14.1 12.4-19.5 6.1-8.9 10.5-15.4 11.5-22.8 1.7-12.9 11.1-34 28.3-52.4 3.3-4.8 4.8-12.6 6.4-20.8 2.2-11.4 4.8-24.3 12.9-33.6 5.7-6.5 16.4-10.2 29.1-10.2 14.9 0 29.6 5.1 35.8 12.4 7.7 9.2 8.7 20.7 9.5 29.1 0.3 3.9 0.6 7.3 1.5 9.4 5.7 7.1 10.5 17.6 8.5 24.8 -1 3.5-3.3 6-7 7.5 0.1 1.6-0.4 3.3-1.7 4.8 -2.2 2.7-6 4.2-10.3 4.2 -3.1 0-6.3-0.8-9.2-2.4 -0.6-0.2-1.3-0.3-2.1-0.3 -2.5 0-5.4 1-7.7 1.8 -0.6 0.2-1.1 0.4-1.6 0.5 2.9 12.1-0.6 18.8-3.6 24.6 -2 3.9-4 7.6-3.9 12.7 0 2 0.5 5.3 1.2 9.5 3.5 23.4 10.9 72-28.3 90.7C384.4 375.4 369.2 378.8 355.4 378.8zM417 141.7c-12.3 0-22.5 3.5-27.9 9.7 -7.8 8.9-10.3 21.6-12.5 32.8 -1.6 8.4-3.2 16.3-6.8 21.5 -17 18.1-26.3 39.4-27.9 51.6 -1 7.8-5.5 14.4-11.7 23.5 -3.7 5.4-7.9 11.6-12.3 19.4 -12.8 22.7-17.3 39.9-2.4 60.4 7.8 10.7 22 16.6 40 16.6 13.6 0 28.6-3.3 42.1-9.3 38.1-18.2 30.8-66 27.4-89 -0.6-4.3-1.1-7.6-1.2-9.7 -0.1-5.4 1.9-9.3 4-13.4 3.1-6 6.4-12.2 3.3-24.2l-0.2-0.8 0.8-0.2c0.7-0.2 1.4-0.4 2.2-0.7 2.4-0.8 5.4-1.8 8.2-1.8 0.9 0 1.8 0.1 2.6 0.4l0.2 0.1c2.7 1.5 5.7 2.3 8.5 2.3 3.7 0 7.2-1.4 9.1-3.7 1.1-1.3 1.5-2.7 1.2-4.1l-0.1-0.7 0.6-0.2c3.5-1.3 5.8-3.5 6.6-6.7 1.9-6.7-2.8-16.6-8.2-23.5l-0.1-0.2c-1-2.4-1.3-5.9-1.7-10 -0.7-8.2-1.7-19.4-9.1-28.2C445.7 146.5 431.5 141.7 417 141.7z" class="c"/><path d="M411.2 231.7c0.5 15.6-8 22.8-9.2 32.2 -1.2 9.4-14.8 23.6-10.2 50.4 -4.2 18.3-15.3 42.6-14.4 61.1 7.1-1.6 14-3.9 20.4-6.8 45.8-21.9 26.9-86.4 26.7-99.4 -0.3-13.1 12.5-17.3 7.3-37.9C431.8 231.3 421.4 235.3 411.2 231.7z" fill="#B2D7ED"/><path d="M391.3 296.2c5.7 6 14.8 8.1 23.3 3.9 19.2-9.6 1.6-25.6 4.8-40 1.7-5.2 4.4-11.4 5.5-17.8 -4.9-0.4-9.6-1.6-14.1-3.5 -1.7 11-7.8 17.3-8.8 25.1C401.1 270.9 393.3 280.6 391.3 296.2z" fill="#D4EDFF"/><path d="M376.6 376.4l0-1c-0.6-12.4 4.2-27.2 8.7-41.5 2.2-7 4.3-13.6 5.7-19.7 -3.2-18.9 2.5-31.5 6.7-40.8 1.7-3.8 3.2-7 3.5-9.7 0.5-3.8 2.1-7.3 3.8-10.9 2.6-5.6 5.6-11.9 5.4-21.2l0-1.2 1.1 0.4c2.7 1 5.8 1.5 9 1.5 6.2 0 11-1.8 11-1.8l0.8-0.3 0.2 0.9c3.2 12.6-0.3 19.4-3.4 25.4 -2 3.9-4 7.6-3.9 12.7 0 2 0.5 5.3 1.2 9.5 3.5 23.4 10.9 72-28.3 90.7 -6.6 2.9-13.5 5.2-20.6 6.8L376.6 376.4zM412 232.8c0 9.1-2.9 15.3-5.5 20.8 -1.7 3.5-3.3 6.9-3.7 10.4 -0.4 2.9-1.9 6.3-3.6 10.2 -4.1 9.1-9.7 21.4-6.5 40l0 0.2 0 0.2c-1.4 6.1-3.5 12.8-5.8 19.9 -4.4 13.8-8.9 28-8.7 40 6.7-1.6 13.2-3.8 19.4-6.5 38.1-18.2 30.8-66 27.4-89 -0.6-4.3-1.1-7.6-1.2-9.7 -0.1-5.4 1.9-9.3 4-13.4 3-5.9 6.2-11.9 3.5-23.4 -1.7 0.5-5.8 1.6-10.7 1.6C417.5 234 414.7 233.6 412 232.8z" fill="#86B8D1"/><path d="M420.7 234c-7.9 0-17.2-2.8-25.7-11.1 -13.7-13.5-10.3-29.6-10.3-29.6 0 0.2-1.7 15.5 11.4 28.5 12.4 12.2 27.1 11.2 36.4 8.5l0.5 1.5C429.7 232.8 425 234 420.7 234z" class="c"/><path d="M451 224.9c-0.7 0-1.5-0.1-2.4-0.4 -4.1-1.2-3.4-7.3-3.4-7.3 0 0.2-0.1 4.6 3.9 5.8 3.8 1.2 6.5-1.5 8.1-3l4-8 -2.5 7.7c0.8 1.1 3.1 3.6 6.9 1.5l0.8 1.4c-3.6 1.9-6.6 0.7-8.4-1.3C456.7 222.8 454.3 224.9 451 224.9z" class="c"/><path d="M449.3 204.3c2.7 1.1 8.9 6.5 11.9 6.9 4.1-1.1 6.5-5.7 6.8-8.2C467.2 200.1 451.7 198 449.3 204.3z" fill="#FF9F9C"/><path d="M449.3 204.3c0.3 0.1 0.7 0.3 1.1 0.6 5.7-2.1 12.5-3.6 17.4-0.8 0.1-0.4 0.2-0.8 0.3-1.1C467.2 200.1 451.7 198 449.3 204.3z" fill="#F9D4D4"/><path d="M461.3 212l-0.1 0c-2-0.2-4.9-2.2-7.7-4.2 -1.7-1.2-3.4-2.3-4.4-2.7l-0.7-0.3 0.3-0.7c1.1-3 4.8-4.7 10.2-4.7 3.8 0 9.4 1.1 10.1 3.4l0 0.2 0 0.2c-0.4 2.9-3 7.7-7.4 8.8L461.3 212zM450.4 204c1.1 0.6 2.4 1.5 3.9 2.5 2.3 1.6 5.2 3.6 6.9 3.9 3.6-1 5.6-5.1 6-7.3 -0.5-0.8-3.9-2.1-8.5-2.1C454.6 201 451.6 202.1 450.4 204z" fill="#EA7F7F"/><path d="M462.8 190.4c-6.4-4.9-11.9-14.9-8.2-22.7C462.1 165.4 470.6 177 462.8 190.4z" class="f"/><path d="M463 191.6l-0.7-0.6c-7.1-5.5-12.2-15.8-8.4-23.7l0.2-0.3 0.3-0.1c0.7-0.2 1.5-0.3 2.2-0.3 3.2 0 6.2 2 8.2 5.4 3 5.3 2.6 12.3-1.3 18.8L463 191.6zM455.2 168.4c-3 6.8 1.4 15.8 7.4 20.8 3.1-5.7 3.4-11.8 0.8-16.4C461.4 169.5 458.1 167.6 455.2 168.4z" class="c"/><path d="M462.8 190.4c2-3.4 2.9-6.6 3.1-9.6 -1.3-3.8-3.7-6.3-5.9-5.9 -2.4 0.5-3.7 4.4-3.1 9.1C458.6 186.5 460.6 188.7 462.8 190.4z" class="g"/><path d="M466.7 180.7l-0.1-0.1c-0.4-1.2-1-2.3-1.5-3.2 0.2 1.2 0.2 2.4 0 3.6v0c-0.2 2.7-1 5.5-2.5 8.3 -0.1-0.1-0.3-0.2-0.4-0.4 0.4 0.7 0.8 1.3 1.3 1.9 1.9-3.3 3-6.6 3.2-9.9L466.7 180.7z" class="c"/><path d="M464.8 184c0 2.8-1.2 5.1-2.6 5.1 -1.4 0-2.6-2.3-2.6-5.1 0-2.8 1.2-5.1 2.6-5.1C463.7 178.9 464.8 181.2 464.8 184z" class="h"/><path d="M457.7 183.7l0 0c-0.6-0.8-1.2-1.6-1.7-2.6 0 1 0 2 0.1 3l0.1 0.3c1.7 2.6 3.8 4.9 6 6.7l0.7 0.6 0.5-0.8 0 0c-0.5-0.6-0.9-1.3-1.3-1.9C460.5 187.4 458.9 185.6 457.7 183.7z" class="c"/><path d="M460.2 175.6c1.7-0.3 3.7 1.9 4.9 5.2 0.1-0.8 0.1-1.6 0.1-2.2 -1.4-2.7-3.3-4.4-5.2-4.1 -2.3 0.4-3.4 3.2-3.5 7 0.5 0.9 0.6 1.2 1.2 2C457.2 179.6 458.3 176 460.2 175.6z" class="i"/><path d="M407.4 185.4c-0.5 8 4 14.9 10 15.5 6 0.6 11.2-5.5 11.6-13.5 0.5-8-4-14.9-10-15.4C413 171.4 407.8 177.4 407.4 185.4z" fill="#BABABA"/><path d="M407.4 185.4c-0.5 8 21.1 10 21.6 2 0.5-8-4-14.9-10-15.4C413 171.4 407.8 177.4 407.4 185.4z" class="f"/><path d="M417.6 201.5L417.6 201.5l-0.3 0c-6.3-0.6-11-7.8-10.5-16.1 0.5-8.2 5.8-14.4 12-14.1l0.3 0c6.3 0.6 11 7.8 10.5 16.1C429.1 195.6 423.8 201.8 417.6 201.5zM418.6 172.5c-5.5-0.3-10.3 5.5-10.7 12.9 -0.4 7.6 3.8 14.3 9.4 14.8l0.3 0c5.5 0.3 10.3-5.5 10.7-12.9 0.4-7.6-3.8-14.3-9.4-14.8L418.6 172.5z" class="c"/><path d="M411.3 186.8c-0.3 5.2 2.7 9.8 6.6 10.2 3.9 0.4 7.2-3.4 7.5-8.6 0.2-5.2-2.7-9.8-6.6-10.2C414.9 177.7 411.6 181.6 411.3 186.8z" class="g"/><path d="M411.3 187.2c0 5.2 14.2 5.9 14.1 0.7 0-5.2-3.2-9.6-7.1-9.8C414.4 177.9 411.3 182 411.3 187.2z" fill="#945602"/><path d="M410.8 186.7c0.1-2.6 1-5 2.5-6.6 1.5-1.8 3.5-2.6 5.6-2.4 0.8 0.1 1.7 0.4 2.4 0.8 3 1.7 4.9 5.7 4.7 9.9 -0.2 5.4-3.9 9.5-8 9 -0.8-0.1-1.7-0.3-2.4-0.8C412.5 194.9 410.6 190.9 410.8 186.7zM418.8 178.6c-1.7-0.2-3.3 0.5-4.6 2 -1.4 1.6-2.2 3.8-2.3 6.2 -0.2 3.9 1.5 7.6 4.1 9.1 0.6 0.4 1.3 0.6 1.9 0.6 3.6 0.4 6.7-3.3 7-8.3 0.2-3.9-1.5-7.6-4.2-9.1C420.1 178.8 419.4 178.6 418.8 178.6z" class="i"/><path d="M414.4 187.5c-0.4 3 1.2 5.9 3.6 6.4 2.4 0.5 4.7-1.5 5.1-4.5 0.4-3-1.2-5.8-3.6-6.4C417.1 182.5 414.8 184.5 414.4 187.5z" class="h"/><path d="M414.1 182.2c-0.7 1-0.3 2.2 0.9 2.8 1.1 0.6 2.6 0.2 3.3-0.8 0.7-1 0.3-2.3-0.9-2.8C416.2 180.8 414.7 181.2 414.1 182.2z" class="f"/><path d="M414.3 186.7c-0.4 0.6-0.1 1.3 0.5 1.6 0.7 0.3 1.5 0.1 1.9-0.4 0.4-0.5 0.2-1.3-0.5-1.6C415.5 186 414.7 186.2 414.3 186.7z" class="f"/><path d="M405.4 126c-3-19.4-11.8-31-16.8-41.2 -5-10.2-5.8-22.4-13.6-23 -6.8 1.4-17.4 22.2-19.4 44.6 -2 22.4 4.4 42.6 13.8 52.2 9.4 9.6 13.4 19.5 13.4 19.5l19.2-12.7C402 165.4 408.4 145.4 405.4 126z" class="b"/><path d="M382.1 178.4c0-0.1-4.1-9.9-13.2-19.3 -10.3-10.5-15.9-31.7-14-52.8 2-22.6 12.7-43.8 20-45.3l0.1 0 0.1 0c5.9 0.4 8 6.6 10.5 13.8 1.1 3.2 2.2 6.5 3.7 9.6 1.1 2.3 2.5 4.7 3.9 7.2 4.8 8.5 10.7 19.1 13 34.2 3 19.4-3.4 39.6-3.4 39.7l-1.5-0.5c0.1-0.2 6.3-20 3.4-39 -2.3-14.9-8.1-25.3-12.9-33.7 -1.4-2.5-2.8-4.9-3.9-7.3 -1.6-3.2-2.7-6.6-3.8-9.8 -2.3-6.8-4.2-12.3-8.9-12.7 -6 1.4-16.6 20.7-18.7 43.8 -1.8 20.7 3.6 41.4 13.6 51.5 9.4 9.6 13.4 19.4 13.6 19.8L382.1 178.4z" class="c"/><path d="M388.6 161.8c-3.5-25.8 8.2-46.2-13.7-80C356.2 101.9 363.3 147 388.6 161.8z" class="d"/><path d="M370.2 88.1c-10 17.5-7 45.3 6.2 62.7C376.6 128.9 383.8 105.9 370.2 88.1z" class="e"/><path d="M389.6 163.3l-1.4-0.8c-12.4-7.2-21.3-22.2-23.9-39.9 -2.4-16.5 1.3-31.9 10-41.3l0.7-0.8 0.6 0.9c15.3 23.5 14.4 40.7 13.5 57.3 -0.4 7.4-0.8 15 0.3 23L389.6 163.3zM374.7 83.1c-7.9 9.1-11.2 23.6-8.9 39.2 2.4 16.6 10.5 30.6 21.8 37.9 -0.9-7.5-0.5-14.7-0.1-21.6C388.3 122.4 389.1 105.7 374.7 83.1z" class="c"/><path d="M421.5 258.4c-10.9-11.7-23.4-13.4-23.4-13.4l-33.2 4.5c0 0 0.2 14.2 14.3 22.9 11.6 7.2 23 3.5 25.9 7.9 -2.9 12.4 3.6 22.7 11.5 24 7.8 1.3 13.9-6.1 14.6-17.1C431.9 276.2 430.7 261 421.5 258.4z" class="a"/><path d="M421.5 258.4c-10.9-11.7-23.4-13.4-23.4-13.4l-33.2 4.5c0 0 0.8 9.5 14.9 18.3 11.6 7.2 27.3-1.1 30.1 3.3 -2.9 12.4 0.6 23.9 8.5 25.2 7.8 1.3 10.2-4.5 11-15.5C430.2 269.9 430.7 261 421.5 258.4z" class="b"/><path d="M418.3 305.2c-0.6 0-1.3-0.1-1.9-0.2 -3.6-0.6-7-3-9.4-6.6 -3.3-4.9-4.3-11.5-2.8-18 -1.2-1.4-4-1.7-7.6-2.1 -4.8-0.5-11.3-1.2-17.8-5.2 -14.3-8.9-13-23.6-13-23.6 0 0.1 0.3 13.8 13.9 22.3 6.2 3.8 12.3 4.5 17.2 5 4.2 0.4 7.5 0.8 9 3.1l0.2 0.3 -0.1 0.3c-1.5 6.2-0.5 12.5 2.5 17.1 2.2 3.3 5.1 5.3 8.3 5.9 2.7 0.5 5.3-0.2 7.4-1.9 3.5-2.8 5.8-8 6.3-14.4 0.4-5.8 1-25-9-27.9l-0.2-0.1 -0.1-0.2c-10.6-11.4-22.9-13.2-23-13.2 0 0 13 0.3 24 12 10.7 3.3 10.5 21.7 9.9 29.6 -0.5 6.8-3 12.5-6.9 15.6C423 304.4 420.7 305.2 418.3 305.2z" class="c"/><path d="M405.2 284.6l-1.6-0.1c0.6-10.1 7.1-14.2 7.1-14.2C410.6 270.3 405.7 275.2 405.2 284.6z" class="c"/><path d="M412.3 302.9l-1-1.2c6.2-5.2 5.9-19 5.9-19.2C417.2 282.5 419.1 297.2 412.3 302.9z" class="c"/><path d="M422.3 304.2l-1.3-0.9c6-8.7 4.2-19.2 4.2-19.3C425.2 284 428.7 295 422.3 304.2z" class="c"/><path d="M401.9 366.4c25.9-22.8 11.1-60-8.1-68.2 -19.2-8.2-38.8 1.8-38.8 1.8l-49.4 28.4c-4.2 21.4 12.4 41.2 24.3 44.7 -2.1 2.6-4.7 9.7 11.3 15.5 16 5.8 55.9 10 67.3 2.4 2.6-0.4 11.6-1.1 12.4-7.1C421.3 375.3 412 366.5 401.9 366.4z" class="a"/><path d="M397 352.9c14.8-14.8 12.6-42.2-4.8-55.2 -18.7-7-37.2 2.4-37.2 2.4l-49.4 28.4c-1.2 6.1-0.7 12 0.9 17.5 4.2 7.9 10.8 14.4 20.1 18.1C350.6 372.1 379.4 372.1 397 352.9z" class="b"/><path d="M407.6 367.4c-15.2 20.2-47.8 9.8-69.7 12.7 -0.8 4.8 4.8 7.9 8.3 10.1 18.1 4.9 52 7.8 62.4 0.9 2.6-0.4 11.6-1.1 12.4-7.1C421.2 376.9 415.2 369.9 407.6 367.4z" class="b"/><path d="M385.6 396c-16 0-35-3.1-44.6-6.6 -7.6-2.7-12-6.1-13.1-10 -0.7-2.5 0.1-4.5 0.8-5.8 -12.7-4.5-27.9-24.8-23.9-45.3l1.6 0.3c-4.2 21.6 13 40.6 23.8 43.8l1.1 0.3 -0.7 0.9c-0.6 0.8-1.9 2.8-1.2 5.3 0.9 3.3 5.1 6.4 12.1 9 16.7 6.1 55.9 9.6 66.6 2.5l0.3-0.1 0.8-0.1c3.1-0.4 10.3-1.4 10.9-6.3 0.2-3.5-1.5-7.3-4.5-10.5 -3.6-3.8-8.8-6.1-13.8-6.1h-2.1l1.6-1.4c10.7-9.4 15.3-22.3 13-36.4 -2.2-13.6-10.8-26.1-20.9-30.4 -18.6-8-37.9 1.7-38.1 1.8 0 0 19.4-11.5 38.7-3.3 10.6 4.5 19.6 17.5 21.9 31.6 2.3 14-2.1 26.9-12.2 36.6 4.8 0.5 9.5 2.9 13 6.5 3.3 3.5 5.1 7.7 4.9 11.7 -0.8 6.2-8.9 7.3-12.3 7.8l-0.6 0.1C404.2 394.8 395.5 396 385.6 396z" class="c"/><path d="M409.2 391.4l-1.5-0.6c1.7-4 2-7.5 0.7-10.4 -1.8-4.3-6.2-5.9-6.2-5.9 0 0 5.6 0.4 7.7 5.3C411.4 383.1 411.1 387 409.2 391.4z" class="c"/><path d="M383.8 374.2c0.1 0 14.9-2.9 23.2-14.4l1.3 0.9C399.6 372.7 383.8 374.2 383.8 374.2z" class="c"/><path d="M320.9 369l1-1.3c12.2 9.4 32.5 10 32.7 10.1C354.5 377.8 333.5 378.7 320.9 369z" class="c"/><path d="M462.5 179.4c0 1-0.8 1.7-1.7 1.7 -1 0-1.7-0.8-1.7-1.7s0.8-1.7 1.7-1.7C461.7 177.7 462.5 178.4 462.5 179.4z" class="f"/><path d="M461.8 183.2c0 0.6-0.5 1.1-1.1 1.1 -0.6 0-1.1-0.5-1.1-1.1 0-0.6 0.5-1 1.1-1C461.3 182.2 461.8 182.7 461.8 183.2z" class="f"/></svg>