<svg version="1.1" xmlns="http://www.w3.org/2000/svg" viewBox="0 0 768 430" xml:space="preserve"><g id="rainbow"><g id="layer1_7_" transform="translate(-869.93 -197.75)"><g id="g4107"><path d="M1261.16 423.39c36.8 0 66.76 28.5 67.98 64.11 0.32 0.69 0.47 1.47 0.46 2.25h158.33c0-122.2-101.54-221.23-226.76-221.23h-0.01c-125.23 0-226.73 99.04-226.73 221.23h158.72C1193.15 453.09 1223.6 423.39 1261.16 423.39z" fill="#CB394D"/><path d="M1261.16 423.39c36.8 0 66.76 28.5 67.98 64.11 0.32 0.69 0.47 1.47 0.46 2.25h135.63c0-109.97-91.36-199.11-204.06-199.11h-0.01c-112.7 0-204.06 89.14-204.06 199.11h136.05C1193.15 453.09 1223.6 423.39 1261.16 423.39z" fill="#EA5F72"/><path d="M1261.16 423.39c36.8 0 66.76 28.5 67.98 64.11 0.32 0.69 0.47 1.47 0.46 2.25h112.95c0-97.75-81.21-176.99-181.39-176.99 -100.18 0-181.39 79.24-181.39 176.99h113.38C1193.15 453.09 1223.6 423.39 1261.16 423.39z" fill="#D69D3C"/><path d="M1261.16 423.39c36.8 0 66.76 28.5 67.98 64.11 0.32 0.69 0.47 1.47 0.46 2.25h90.28c0-85.53-71.06-154.87-158.72-154.87 -87.66 0-158.72 69.34-158.72 154.87h90.71C1193.15 453.09 1223.6 423.39 1261.16 423.39z" fill="#F6C063"/><path d="M1261.16 423.39c36.8 0 66.76 28.5 67.98 64.11 0.32 0.69 0.47 1.47 0.46 2.25h67.61c0-73.31-60.91-132.73-136.05-132.73s-136.05 59.41-136.05 132.73h68.04C1193.15 453.09 1223.6 423.39 1261.16 423.39z" fill="#BBD367"/><path d="M1261.16 423.39c36.8 0 66.76 28.5 67.98 64.11 0.32 0.69 0.47 1.47 0.46 2.25h44.94c0-61.09-50.77-110.61-113.38-110.61 -62.61 0-113.39 49.5-113.39 110.61h45.38C1193.15 453.09 1223.6 423.39 1261.16 423.39z" fill="#0990D3"/><linearGradient id="SVGID_1_" gradientUnits="userSpaceOnUse" x1="3656.18" y1="-756.56" x2="3656.18" y2="-1079.52" gradientTransform="matrix(0.2676 0 0 -0.2676 282.6208 198.608)"><stop offset="0" stop-color="#9E1DFF"/><stop offset="1" style="stop-color:#9E1DFF;stop-opacity:0"/></linearGradient><path d="M1261.16 423.39c36.8 0 66.76 28.5 67.98 64.11 0.32 0.69 0.47 1.47 0.46 2.25h22.27c0-48.88-40.62-88.48-90.71-88.49 -50.09 0-90.68 39.61-90.68 88.49h22.67C1193.15 453.09 1223.6 423.39 1261.16 423.39z" fill="url(#SVGID_1_)"/></g></g></g></svg>