<svg version="1.1" xmlns="http://www.w3.org/2000/svg" xmlns:xlink="http://www.w3.org/1999/xlink" viewBox="0 0 768 430" style="enable-background:new 0 0 768 430;" xml:space="preserve"><g id="red"> <g>  <path style="fill:#DD2F44;" d="M478.253,198.336c3.831-1.695,6.667-4.816,9.186-8.576c7.525-11.228,2.629-25.729,9.856-37.505 c0.253-0.414-1.502-13.834-0.508-6.11c1.612,12.536-4.146-27.914-15.705-33.995c-4.471-2.327-9.308-2.592-14.206-3.256 c-4.258-0.599-7.605-4.222-8.64-8.742c-0.79-3.391-1.277-6.681-2.204-9.95c-0.875-2.971-2.146-5.739-4.396-8.066 c-3.955-4.088-9.004-6.016-14.188-6.764c-2.241-0.324-4.514-0.417-6.758-0.418c-1.534-0.005-3.087,0.01-4.637,0.032 c-4.656,0.064-9.317,0.195-13.993-0.028c-6.631-0.301-12.472-3.625-18.434-6.549c-3.314-1.596-6.874-2.527-10.465-2.261 c-1.723,0.14-3.377,0.47-4.967,0.956c-7.958,2.441-14.409,8.816-20.798,14.799c-3.893,3.657-8.151,6.781-13.235,7.592 c-2.135,0.394-4.32,0.458-6.48,0.164c-2.16-0.296-4.3-0.95-6.354-2.007c-6.998-3.589-11.709-2.348-19.529,1.537 c-9.184,4.56-15.664,9.034-18.891,18.672c-0.789,2.36-2.098,4.455-3.646,6.295c-1.785,2.154-3.934,3.956-6.281,5.335 c-1.379,0.947-2.729,1.802-4.025,2.626c-4.055,1.433-7.613,4.292-10.193,7.96c-1.561,2.263-2.717,4.887-3.321,7.765 c-2.251,10.836,4.441,20.244,12.807,25.029c10.432,5.982,20.408,12.696,27.481,22.994c0.872,1.219,1.722,2.472,2.552,3.763 c0.828,1.288,1.636,2.618,2.422,3.989c1.064,1.895,2.283,3.489,3.729,4.957c1.502,1.497,3.213,2.719,5.334,3.491 c2.827,0.929,5.568,0.836,8.253,0.224c0.895-0.204,1.782-0.465,2.659-0.788c0.777-0.275,1.52-0.612,2.24-0.99 c2.579-1.311,4.799-3.204,7.322-4.734c3.742-2.259,8.853-2.825,12.018,0.726c0.699,0.716,1.309,1.562,1.793,2.5 c2.525,4.852,5.324,9.605,9.785,12.314c0.98,0.588,1.986,1.01,3.018,1.302c9.268,2.619,20.384-5.338,29.444,1.683 c10.661,8.255,13.556,23.138,10.603,36.172c-0.322,1.425-0.775,2.866-1.309,4.323c-0.741,2.105-1.592,4.101-2.539,6.161 c-0.546,1.104-1.109,2.214-1.67,3.335c-0.561,1.122-1.113,2.255-1.642,3.403c-3.315,6.956-5.933,15.599-1.612,23.076 c3.62,6.216,10.13,9.141,16.608,7.978c7.059-1.295,12.41-8.244,12.504-15.873c0.07-1.592-0.022-3.222-0.229-4.867 c-0.83-6.582-3.499-13.428-5.155-19.213c-0.305-1.096-0.593-2.177-0.878-3.254c-0.283-1.077-0.562-2.153-0.843-3.24 c-0.434-1.787-0.878-3.571-1.309-5.357c-0.43-1.784-0.846-3.57-1.222-5.366c-0.266-1.335-0.533-2.691-0.78-4.06 c-0.248-1.366-0.475-2.747-0.663-4.139c-1.517-8.686-0.877-19.122,6.729-24.708c2.676-1.993,5.9-2.725,8.853-1.528 c0.957,0.382,1.642,1.129,2.174,2.022c2.297,4.126,2.297,8.946,2.965,13.667c0.58,3.922,1.767,7.91,5.081,10.037 c1.339,0.865,2.807,1.064,4.213,0.787c1.405-0.28,2.753-1.035,3.848-2.083c0.619-0.571,1.167-1.193,1.656-1.855 c0.49-0.663,0.923-1.367,1.318-2.097c2.076-3.925,3.171-8.279,4.995-12.4c0.668-1.509,1.473-2.902,2.39-4.188"/> </g></g><g id="Layer_1"></g></svg>