<svg version="1.1" id="Layer_1" xmlns="http://www.w3.org/2000/svg" xmlns:xlink="http://www.w3.org/1999/xlink" viewBox="0 0 768 430" enable-background="new 0 0 768 430" xml:space="preserve">
<g>
	<g>
		<path fill="#16BFF4" d="M252.43,328.312c0,6.986-14.195,12.657-31.713,12.657c-17.514,0-31.717-5.671-31.717-12.657
			c0-6.993,14.203-12.661,31.717-12.661C238.235,315.651,252.43,321.319,252.43,328.312z"/>
	</g>
	<g>
		<path fill="#16BFF4" d="M503.51,384.9c15.373-4.781,29.26-19.672,43.346-25.154c19.764-7.694,42.408-13.791,40.285-22.605
			c-1.07-4.446-7.074-7.739-14.23-10.146c-8.523-2.865-17.178-4.438-25.904-5.728c-10.359-1.531-19.699-2.149-20.305-3.805
			c-1.219-3.322,12.285-4.066,15.832-8.58c0.756-0.964,0.98-2.104,0.57-3.467c-0.238-1.782-2.348-3.501-6.07-5.122
			c-11.348-4.941-37.666-8.959-71.402-11.017c-15.842-0.969-33.318-1.507-51.641-1.507c-17.877,0-34.897,0.508-50.36,1.436
			c-45.912,2.741-78.095,9.117-78.095,16.542c0,6.761,26.665,12.644,66.059,15.719c4.999,0.737,8.572,0.879,8.671,3.438
			c0.122,3.181-16.315,5.975-28.652,7.219c-18.484,2.071-34.757,5.18-47.669,9.033c-19.653,5.861-31.514,13.459-31.514,21.762
			c0,10.967,20.696,20.708,52.725,26.854c22.242,4.266,103.631,6.39,114.689,5.632c0,0,23.215-1.357,32.158-2.282
			c6.184-0.635,19.234-2.37,30.166-3.712C494.816,387.854,503.51,384.9,503.51,384.9z"/>
	</g>
</g>
<g>
	<path fill="#16BFF4" d="M220.717,315.651c-3.675,0-7.193,0.261-10.476,0.72c1.632-0.148,9.328,4.448,11.694,10.252
		c2.655,6.522-0.22,14.347-1.219,14.347c17.518,0,31.713-5.671,31.713-12.657C252.43,321.319,238.235,315.651,220.717,315.651z"/>
	<path fill="#2AB0FF" d="M503.51,384.9c-1.273,0.393-2.609,0.732-3.924,1.095C500.984,385.637,502.305,385.273,503.51,384.9z"/>
	<path fill="#16BFF4" d="M442.559,381.862c-10.84-3.925-21.818-3.635-32.824-7.078c-6.75-2.114-42.293-12.346-29.778-24.263
		c6.517-6.204,15-9.333,22.452-14.123c0.969-0.62,8.42-2.64,8.463-9.664c0.049-8.694-29.274-10.676-30.674-21.318
		c-0.571-4.328,0.583-7.592,2.527-9.913c3.424-4.081,1.686-7.306-7.873-6.879c-10.429,0.469-20.28,1.114-29.36,1.918
		c-36.027,3.183-59.957,8.803-59.957,15.206c0,3.631,7.687,7.007,20.903,9.832c8.271,1.771,18.711,3.32,30.789,4.583
		c4.565,0.478,9.363,0.91,14.367,1.304c4.999,0.737,8.572,0.879,8.671,3.438c0.122,3.181-16.315,5.975-28.652,7.219
		c-18.484,2.071-34.757,5.18-47.669,9.033c-19.653,5.861-31.514,13.459-31.514,21.762c0,10.967,20.696,20.708,52.725,26.854
		c22.242,4.266,103.631,6.39,114.689,5.632c8.695-0.159,40.188-2.395,64.021-6.266c-2.729,0.321-5.447,0.554-8.107,0.59
		C464.217,389.894,453.248,385.729,442.559,381.862z M290.705,354.779c0,5.912,3.104,6.273,9.555,10.168
		c-9.773-1.481-17.234-3.758-17.234-10.445c0-6.683,11.752-10.567,23.412-12.84C297.351,345.125,290.705,348.866,290.705,354.779z"
		/>
	<path fill="#FFFFFF" d="M283.026,354.502c0,6.688,7.461,8.964,17.234,10.445c-6.452-3.895-9.555-4.256-9.555-10.168
		c0-5.913,6.646-9.654,15.733-13.117C294.778,343.935,283.026,347.819,283.026,354.502z"/>
	<path fill="#FFFFFF" d="M499.586,298.226c8.469,2.832,10.213,4.239,10.279,6.791c0.049,1.977-0.828,3.588-2.201,4.77
		c-0.826,0.705-1.26,1.039-2.354,1.417c3.172-0.383,5.289-0.881,7.213-1.925c2.037-1.103,3.217-2.571,3.217-4.406
		C515.74,301.307,509.182,298.577,499.586,298.226z"/>
	<path fill="#16BFF4" d="M345.145,259c20.622,0,37.34-16.714,37.34-37.335c0-23.543-34.209-48.647-37.138-72.822
		c-0.018-0.14-0.034-0.277-0.045-0.418c-0.055-0.526-0.346-1.5-0.579-1.5c-0.214,0-0.776,1.891-0.85,2.191
		c-0.099,0.354-0.204,0.698-0.319,1.002c-12.594,33.54-35.747,49.07-35.747,71.547C307.806,242.286,324.523,259,345.145,259z
		 M319.223,205.372c5.219-0.635,14.106,8.377,19.137,9.966c8.438,2.664,17.77-0.377,21.116-0.307
		c1.08,0.023,2.107,0.144,3.087,0.331c-1.044-2.495-2.539-4.934-4.352-7.335c-2.376-3.151,6.409-9.855,9.119-5.791
		c2.098,3.158,3.611,6.385,4.188,9.732c0.396,2.287,0.494,4.555,0.332,6.77l-2.112,0.209c1.375,1.421,2.163,3.11,2.163,4.877
		c0,8.881-2.509,15.329-8.504,20.967c-5.532,5.197-12.974,8.38-21.16,8.38c-17.068,0-30.904-13.837-30.904-30.903
		C311.332,216.881,313.293,206.093,319.223,205.372z"/>
	<path fill="#16BFF4" d="M342.236,253.171c8.186,0,15.627-3.183,21.16-8.38c5.996-5.638,8.504-12.086,8.504-20.967
		c0-1.767-0.788-3.456-2.163-4.877l-5.886,0.584c-0.272-1.409-0.715-2.798-1.289-4.169c-0.979-0.188-2.007-0.308-3.087-0.331
		c-3.346-0.07-12.678,2.971-21.116,0.307c-5.031-1.589-13.917-10.602-19.137-9.966c-5.929,0.722-7.891,11.509-7.891,16.896
		C311.332,239.334,325.167,253.171,342.236,253.171z M364.265,222.645l7.189-0.713c-1.367,7.292-5.562,13.767-11.593,18.002
		C363.066,234.922,364.723,228.908,364.265,222.645z"/>
	<path opacity="0.6" fill="#B4E4EF" d="M342.236,253.171c8.186,0,15.627-3.183,21.16-8.38c5.996-5.638,8.504-12.086,8.504-20.967
		c0-1.767-0.788-3.456-2.163-4.877l-5.886,0.584c-0.272-1.409-0.715-2.798-1.289-4.169c-0.979-0.188-2.007-0.308-3.087-0.331
		c-3.346-0.07-12.678,2.971-21.116,0.307c-5.031-1.589-13.917-10.602-19.137-9.966c-5.929,0.722-7.891,11.509-7.891,16.896
		C311.332,239.334,325.167,253.171,342.236,253.171z M364.265,222.645l7.189-0.713c-1.367,7.292-5.562,13.767-11.593,18.002
		C363.066,234.922,364.723,228.908,364.265,222.645z"/>
	<path fill="#16BFF4" d="M371.849,218.738c0.162-2.215,0.063-4.482-0.332-6.77c-0.576-3.347-2.09-6.574-4.188-9.732
		c-2.71-4.064-11.495,2.64-9.119,5.791c1.812,2.401,3.308,4.84,4.352,7.335c3.029,0.58,5.528,1.884,7.175,3.585L371.849,218.738z"/>
	<linearGradient id="SVGID_1_" gradientUnits="userSpaceOnUse" x1="357.8071" y1="209.9561" x2="371.9238" y2="209.9561">
		<stop  offset="0" style="stop-color:#FFFFFF"/>
		<stop  offset="1" style="stop-color:#FFFFFF"/>
	</linearGradient>
	<path fill="url(#SVGID_1_)" d="M371.849,218.738c0.162-2.215,0.063-4.482-0.332-6.77c-0.576-3.347-2.09-6.574-4.188-9.732
		c-2.71-4.064-11.495,2.64-9.119,5.791c1.812,2.401,3.308,4.84,4.352,7.335c3.029,0.58,5.528,1.884,7.175,3.585L371.849,218.738z"/>
	<path fill="#16BFF4" d="M369.737,218.947c-1.647-1.701-4.146-3.005-7.175-3.585c0.574,1.371,1.017,2.76,1.289,4.169
		L369.737,218.947z"/>
	<path opacity="0.6" fill="#B4E4EF" d="M369.737,218.947c-1.647-1.701-4.146-3.005-7.175-3.585c0.574,1.371,1.017,2.76,1.289,4.169
		L369.737,218.947z"/>
	<linearGradient id="SVGID_2_" gradientUnits="userSpaceOnUse" x1="357.8071" y1="217.4473" x2="371.9238" y2="217.4473">
		<stop  offset="0" style="stop-color:#FFFFFF"/>
		<stop  offset="1" style="stop-color:#FFFFFF"/>
	</linearGradient>
	<path fill="url(#SVGID_2_)" d="M369.737,218.947c-1.647-1.701-4.146-3.005-7.175-3.585c0.574,1.371,1.017,2.76,1.289,4.169
		L369.737,218.947z"/>
	<path fill="#16BFF4" d="M371.455,221.932l-7.189,0.713c0.458,6.264-1.199,12.277-4.403,17.289
		C365.893,235.698,370.087,229.224,371.455,221.932z"/>
	<path opacity="0.6" fill="#B4E4EF" d="M371.455,221.932l-7.189,0.713c0.458,6.264-1.199,12.277-4.403,17.289
		C365.893,235.698,370.087,229.224,371.455,221.932z"/>
	<linearGradient id="SVGID_3_" gradientUnits="userSpaceOnUse" x1="359.8618" y1="230.9326" x2="371.4546" y2="230.9326">
		<stop  offset="0" style="stop-color:#FFFFFF"/>
		<stop  offset="1" style="stop-color:#FFFFFF"/>
	</linearGradient>
	<path fill="url(#SVGID_3_)" d="M371.455,221.932l-7.189,0.713c0.458,6.264-1.199,12.277-4.403,17.289
		C365.893,235.698,370.087,229.224,371.455,221.932z"/>
	<path fill="#16BFF4" d="M453.301,82.5c-0.055-0.526-0.346-1.5-0.578-1.5c-0.215,0-0.777,1.891-0.852,2.191
		c-0.098,0.354-0.203,0.698-0.318,1.002c-12.594,33.54-35.746,49.07-35.746,71.547c0,20.621,16.717,37.335,37.338,37.335
		c20.623,0,37.34-16.714,37.34-37.335c0-23.543-34.209-48.647-37.139-72.822C453.328,82.778,453.312,82.641,453.301,82.5z
		 M466.211,142.103c-2.377-3.151,6.408-9.855,9.119-5.791c2.098,3.158,3.611,6.385,4.188,9.732c0.395,2.287,0.494,4.555,0.332,6.77
		l-2.112,0.209c1.375,1.42,2.163,3.109,2.163,4.876c0,8.881-2.51,15.329-8.506,20.967c-5.531,5.197-12.973,8.38-21.158,8.38
		c-17.068,0-30.904-13.837-30.904-30.903c0-5.387,1.961-16.174,7.891-16.896c5.219-0.635,14.105,8.378,19.137,9.967
		c8.438,2.664,17.77-0.377,21.115-0.307c1.08,0.023,2.107,0.144,3.087,0.331C469.518,146.942,468.023,144.503,466.211,142.103z"/>
	<path fill="#16BFF4" d="M446.359,149.413c-5.031-1.589-13.918-10.602-19.137-9.967c-5.93,0.723-7.891,11.51-7.891,16.896
		c0,17.066,13.836,30.903,30.904,30.903c8.186,0,15.627-3.183,21.158-8.38c5.996-5.638,8.506-12.086,8.506-20.967
		c0-1.767-0.788-3.456-2.163-4.876l-5.886,0.583c-0.273-1.41-0.716-2.797-1.29-4.169c-0.979-0.188-2.007-0.308-3.087-0.331
		C464.129,149.036,454.797,152.077,446.359,149.413z M472.266,156.72l7.189-0.713c-1.367,7.292-5.562,13.767-11.594,18.002
		C471.066,168.997,472.723,162.983,472.266,156.72z"/>
	<path opacity="0.6" fill="#B4E4EF" d="M446.359,149.413c-5.031-1.589-13.918-10.602-19.137-9.967
		c-5.93,0.723-7.891,11.51-7.891,16.896c0,17.066,13.836,30.903,30.904,30.903c8.186,0,15.627-3.183,21.158-8.38
		c5.996-5.638,8.506-12.086,8.506-20.967c0-1.767-0.788-3.456-2.163-4.876l-5.886,0.583c-0.273-1.41-0.716-2.797-1.29-4.169
		c-0.979-0.188-2.007-0.308-3.087-0.331C464.129,149.036,454.797,152.077,446.359,149.413z M472.266,156.72l7.189-0.713
		c-1.367,7.292-5.562,13.767-11.594,18.002C471.066,168.997,472.723,162.983,472.266,156.72z"/>
	<path fill="#16BFF4" d="M479.85,152.813c0.162-2.215,0.062-4.482-0.332-6.77c-0.576-3.348-2.09-6.574-4.188-9.732
		c-2.711-4.064-11.496,2.64-9.119,5.791c1.812,2.401,3.307,4.84,4.351,7.335c3.029,0.58,5.528,1.884,7.176,3.585L479.85,152.813z"/>
	<linearGradient id="SVGID_4_" gradientUnits="userSpaceOnUse" x1="465.8076" y1="144.0312" x2="479.9238" y2="144.0312">
		<stop  offset="0" style="stop-color:#FFFFFF"/>
		<stop  offset="1" style="stop-color:#FFFFFF"/>
	</linearGradient>
	<path fill="url(#SVGID_4_)" d="M479.85,152.813c0.162-2.215,0.062-4.482-0.332-6.77c-0.576-3.348-2.09-6.574-4.188-9.732
		c-2.711-4.064-11.496,2.64-9.119,5.791c1.812,2.401,3.307,4.84,4.351,7.335c3.029,0.58,5.528,1.884,7.176,3.585L479.85,152.813z"/>
	<path fill="#16BFF4" d="M477.737,153.023c-1.647-1.702-4.146-3.006-7.176-3.585c0.574,1.372,1.017,2.759,1.29,4.169
		L477.737,153.023z"/>
	<path opacity="0.6" fill="#B4E4EF" d="M477.737,153.023c-1.647-1.702-4.146-3.006-7.176-3.585c0.574,1.372,1.017,2.759,1.29,4.169
		L477.737,153.023z"/>
	<linearGradient id="SVGID_5_" gradientUnits="userSpaceOnUse" x1="465.8076" y1="151.522" x2="479.9238" y2="151.522">
		<stop  offset="0" style="stop-color:#FFFFFF"/>
		<stop  offset="1" style="stop-color:#FFFFFF"/>
	</linearGradient>
	<path fill="url(#SVGID_5_)" d="M477.737,153.023c-1.647-1.702-4.146-3.006-7.176-3.585c0.574,1.372,1.017,2.759,1.29,4.169
		L477.737,153.023z"/>
	<path fill="#16BFF4" d="M479.455,156.007l-7.189,0.713c0.457,6.264-1.199,12.277-4.404,17.289
		C473.893,169.773,478.088,163.299,479.455,156.007z"/>
	<path opacity="0.6" fill="#B4E4EF" d="M479.455,156.007l-7.189,0.713c0.457,6.264-1.199,12.277-4.404,17.289
		C473.893,169.773,478.088,163.299,479.455,156.007z"/>
	<linearGradient id="SVGID_6_" gradientUnits="userSpaceOnUse" x1="467.8613" y1="165.0078" x2="479.4551" y2="165.0078">
		<stop  offset="0" style="stop-color:#FFFFFF"/>
		<stop  offset="1" style="stop-color:#FFFFFF"/>
	</linearGradient>
	<path fill="url(#SVGID_6_)" d="M479.455,156.007l-7.189,0.713c0.457,6.264-1.199,12.277-4.404,17.289
		C473.893,169.773,478.088,163.299,479.455,156.007z"/>
</g>
</svg>
