<svg version="1.1" id="Layer_1" xmlns="http://www.w3.org/2000/svg" xmlns:xlink="http://www.w3.org/1999/xlink" viewBox="0 0 768 430" enable-background="new 0 0 768 430" xml:space="preserve">
<g>
	<g>
		<path fill="#84654C" d="M399.009,56.854c2.615-0.98,9.198,2.431,10.484,4.738c1.69,3.044-8.794,17.583-9.811,18.936
			c-1.011,1.353-8.792-2.027-8.45-3.718C391.574,75.115,396.303,57.87,399.009,56.854z"/>
		<path fill="#DB8282" d="M269.165,311.144c19.609,1.358,58.159-0.664,88.594-14.196c15.845-7.048,30.604-14.392,43.968-26.033
			c0.861-19.875-9.831-41.046-8.805-58.503c1.358-22.995,7.358-74.628,11.412-123.084c-0.213,0.816-0.514,1.66-0.923,2.532
			c-7.436,15.723-86.055,34.659-97.213,23.838c-0.46-0.444-0.807-0.909-1.098-1.394c6.005,38.31,5.346,73.938,3.961,93.711
			c-3.063,43.853-58.408,50.164-75.25,70.621C234.057,293.698,243.479,309.377,269.165,311.144z"/>
		<path fill="#B75C5C" d="M292.833,320.621c31.446-2.094,103.281-16.995,108.208-43.283c0.398-2.125,0.587-4.27,0.686-6.424
			c-13.364,11.642-28.123,18.985-43.968,26.033c-30.435,13.532-68.985,15.555-88.594,14.196
			c-25.686-1.767-35.108-17.445-35.353-32.509c-1.727,2.104-3.054,4.361-3.876,6.812
			C220.861,312.665,252.257,323.317,292.833,320.621z"/>
		<path fill="#84654C" d="M306.198,115.697c-12.63-12.245,40.188-41.078,63.734-43.625c18.768-2.022,40.486,4.968,33.479,19.787
			C395.976,107.582,317.356,126.518,306.198,115.697z"/>
		<path fill="#FFFFFF" d="M402.312,112.189c0.205-2.201,0.403-4.397,0.603-6.598c-31.006,20.778-75.272,26.443-96.033,21.601
			c0.224,1.849,0.431,3.687,0.627,5.516c4.698,0.938,10.18,1.419,16.194,1.419C347.034,134.127,378.279,126.937,402.312,112.189z"/>
		<path fill="#FFFFFF" d="M400.423,132.022c0.424-4.32,0.844-8.681,1.258-13.077c-29.795,19.971-73.193,25.864-93.403,21.575
			c0.322,3.625,0.589,7.179,0.812,10.678c4.336,0.694,9.182,1.067,14.447,1.067C346.401,152.266,376.474,145.647,400.423,132.022z"
			/>
		<g>
			<defs>
				<path id="SVGID_1_" d="M269.165,311.144c19.609,1.358,58.159-0.664,88.594-14.196c15.845-7.048,30.604-14.392,43.968-26.033
					c0.861-19.875-9.831-41.046-8.805-58.503c1.358-22.995,7.358-74.628,11.412-123.084c-0.213,0.816-0.514,1.66-0.923,2.532
					c-7.436,15.723-86.055,34.659-97.213,23.838c-0.46-0.444-0.807-0.909-1.098-1.394c6.005,38.31,5.346,73.938,3.961,93.711
					c-3.063,43.853-58.408,50.164-75.25,70.621C234.057,293.698,243.479,309.377,269.165,311.144z"/>
			</defs>
			<clipPath id="SVGID_2_">
				<use xlink:href="#SVGID_1_"  overflow="visible"/>
			</clipPath>
			<g clip-path="url(#SVGID_2_)">
				<path fill="#FFFFFF" d="M368.393,168.146c0,3.544-2.867,6.414-6.408,6.414c-3.54,0-6.407-2.87-6.407-6.414
					c0-3.534,2.867-6.409,6.407-6.409C365.525,161.738,368.393,164.613,368.393,168.146z"/>
				<path fill="#FFFFFF" d="M401.292,172.283c0,3.539-2.865,6.414-6.403,6.414c-3.546,0-6.414-2.875-6.414-6.414
					c0-3.539,2.868-6.409,6.414-6.409C398.427,165.874,401.292,168.744,401.292,172.283z"/>
				<path fill="#FFFFFF" d="M384.542,205.557c0,3.544-2.864,6.414-6.406,6.414c-3.539,0-6.406-2.87-6.406-6.414
					c0-3.533,2.867-6.404,6.406-6.404C381.678,199.153,384.542,202.024,384.542,205.557z"/>
				<path fill="#FFFFFF" d="M350.964,205.618c0,3.544-2.869,6.414-6.409,6.414c-3.54,0-6.409-2.87-6.409-6.414
					c0-3.539,2.869-6.403,6.409-6.403C348.095,199.215,350.964,202.08,350.964,205.618z"/>
				<path fill="#FFFFFF" d="M319.587,189.931c0,3.544-2.867,6.414-6.407,6.414s-6.408-2.869-6.408-6.414
					c0-3.539,2.869-6.404,6.408-6.404S319.587,186.392,319.587,189.931z"/>
				<path fill="#FFFFFF" d="M402.782,235.546c0,3.543-2.869,6.402-6.403,6.402c-3.545,0-6.413-2.859-6.413-6.402
					c0-3.544,2.868-6.403,6.413-6.403C399.913,229.143,402.782,232.002,402.782,235.546z"/>
				<path fill="#FFFFFF" d="M352.924,260.527c0,3.543-2.869,6.402-6.408,6.402c-3.538,0-6.409-2.859-6.409-6.402
					c0-3.544,2.871-6.404,6.409-6.404C350.056,254.123,352.924,256.983,352.924,260.527z"/>
				<path fill="#FFFFFF" d="M371.009,236.996c0,3.543-2.869,6.414-6.408,6.414c-3.538,0-6.412-2.871-6.412-6.414
					c0-3.534,2.874-6.403,6.412-6.403C368.14,230.593,371.009,233.462,371.009,236.996z"/>
				<path fill="#FFFFFF" d="M325.473,228.496c0,3.547-2.87,6.416-6.408,6.416c-3.543,0-6.411-2.869-6.411-6.416
					c0-3.534,2.868-6.403,6.411-6.403C322.603,222.093,325.473,224.962,325.473,228.496z"/>
				<path fill="#FFFFFF" d="M309.782,257.912c0,3.544-2.868,6.414-6.409,6.414c-3.54,0-6.407-2.87-6.407-6.414
					c0-3.533,2.867-6.404,6.407-6.404C306.915,251.508,309.782,254.379,309.782,257.912z"/>
				<path fill="#FFFFFF" d="M393.448,265.103c0,3.543-2.87,6.413-6.408,6.413c-3.54,0-6.409-2.87-6.409-6.413
					c0-3.534,2.869-6.403,6.409-6.403C390.578,258.699,393.448,261.568,393.448,265.103z"/>
				<path fill="#FFFFFF" d="M279.716,253.337c0,3.544-2.868,6.413-6.41,6.413c-3.539,0-6.406-2.869-6.406-6.413
					c0-3.533,2.867-6.404,6.406-6.404C276.848,246.933,279.716,249.804,279.716,253.337z"/>
				<path fill="#FFFFFF" d="M250.301,274.253c0,3.545-2.867,6.414-6.41,6.414c-3.539,0-6.406-2.869-6.406-6.414
					c0-3.533,2.867-6.403,6.406-6.403C247.434,267.85,250.301,270.72,250.301,274.253z"/>
				<path fill="#FFFFFF" d="M275.793,296.478c0,3.544-2.869,6.414-6.41,6.414c-3.539,0-6.406-2.87-6.406-6.414
					c0-3.534,2.867-6.404,6.406-6.404C272.925,290.073,275.793,292.943,275.793,296.478z"/>
				<path fill="#FFFFFF" d="M308.475,284.059c0,3.543-2.867,6.413-6.408,6.413c-3.54,0-6.407-2.87-6.407-6.413
					c0-3.534,2.867-6.404,6.407-6.404C305.608,277.654,308.475,280.524,308.475,284.059z"/>
				<path fill="#FFFFFF" d="M342.463,292.555c0,3.544-2.867,6.414-6.408,6.414c-3.538,0-6.405-2.87-6.405-6.414
					c0-3.534,2.867-6.403,6.405-6.403C339.596,286.151,342.463,289.021,342.463,292.555z"/>
			</g>
		</g>
	</g>
	<g>
		<path fill="#84654C" d="M521.894,130.062c2.615-0.98,9.197,2.431,10.484,4.739c1.69,3.043-8.794,17.582-9.812,18.935
			c-1.011,1.353-8.792-2.027-8.449-3.718C514.458,148.322,519.188,131.078,521.894,130.062z"/>
		<path fill="#DB8282" d="M392.049,384.351c19.609,1.358,58.159-0.664,88.595-14.196c15.845-7.047,30.603-14.391,43.966-26.032
			c0.863-19.875-9.829-41.047-8.803-58.501c1.358-23.001,7.358-74.63,11.412-123.086c-0.214,0.816-0.514,1.659-0.923,2.532
			c-7.436,15.723-86.056,34.658-97.214,23.837c-0.46-0.444-0.807-0.909-1.097-1.394c6.005,38.309,5.346,73.936,3.961,93.708
			c-3.064,43.855-58.409,50.167-75.25,70.624C356.94,366.906,366.362,382.585,392.049,384.351z"/>
		<path fill="#B75C5C" d="M415.717,393.83c31.446-2.095,103.281-16.997,108.208-43.284c0.398-2.126,0.588-4.269,0.685-6.424
			c-13.363,11.642-28.121,18.985-43.966,26.032c-30.436,13.532-68.985,15.555-88.595,14.196
			c-25.687-1.766-35.108-17.444-35.353-32.508c-1.727,2.104-3.053,4.36-3.876,6.812C343.745,385.874,375.142,396.525,415.717,393.83
			z"/>
		<path fill="#84654C" d="M429.082,188.905c-12.629-12.246,40.188-41.077,63.734-43.625c18.768-2.022,40.486,4.969,33.479,19.788
			C518.86,180.791,440.24,199.726,429.082,188.905z"/>
		<path fill="#FFFFFF" d="M525.197,185.397c0.204-2.202,0.402-4.397,0.602-6.598c-31.005,20.778-75.271,26.441-96.032,21.6
			c0.224,1.849,0.428,3.688,0.627,5.515c4.698,0.94,10.177,1.42,16.193,1.42C469.919,207.334,501.166,200.145,525.197,185.397z"/>
		<path fill="#FFFFFF" d="M523.308,205.23c0.423-4.32,0.843-8.681,1.257-13.078c-29.792,19.972-73.192,25.864-93.399,21.575
			c0.316,3.626,0.588,7.18,0.808,10.678c4.34,0.695,9.181,1.068,14.451,1.068C469.286,225.474,499.357,218.855,523.308,205.23z"/>
		<g>
			<defs>
				<path id="SVGID_3_" d="M392.049,384.351c19.609,1.358,58.159-0.664,88.595-14.196c15.845-7.047,30.603-14.391,43.966-26.032
					c0.863-19.875-9.829-41.047-8.803-58.501c1.358-23.001,7.358-74.63,11.412-123.086c-0.214,0.816-0.514,1.659-0.923,2.532
					c-7.436,15.723-86.056,34.658-97.214,23.837c-0.46-0.444-0.807-0.909-1.097-1.394c6.005,38.309,5.346,73.936,3.961,93.708
					c-3.064,43.855-58.409,50.167-75.25,70.624C356.94,366.906,366.362,382.585,392.049,384.351z"/>
			</defs>
			<clipPath id="SVGID_4_">
				<use xlink:href="#SVGID_3_"  overflow="visible"/>
			</clipPath>
			<g clip-path="url(#SVGID_4_)">
				<path fill="#FFFFFF" d="M491.279,241.356c0,3.545-2.869,6.414-6.414,6.414c-3.533,0-6.402-2.869-6.402-6.414
					c0-3.533,2.869-6.413,6.402-6.413C488.41,234.943,491.279,237.823,491.279,241.356z"/>
				<path fill="#FFFFFF" d="M524.177,245.494c0,3.532-2.865,6.413-6.404,6.413c-3.545,0-6.414-2.881-6.414-6.413
					c0-3.546,2.869-6.415,6.414-6.415C521.312,239.079,524.177,241.948,524.177,245.494z"/>
				<path fill="#FFFFFF" d="M507.426,278.768c0,3.544-2.863,6.414-6.403,6.414c-3.544,0-6.409-2.87-6.409-6.414
					c0-3.534,2.865-6.403,6.409-6.403C504.562,272.364,507.426,275.233,507.426,278.768z"/>
				<path fill="#FFFFFF" d="M473.846,278.829c0,3.544-2.869,6.413-6.404,6.413c-3.543,0-6.414-2.869-6.414-6.413
					c0-3.545,2.871-6.403,6.414-6.403C470.977,272.426,473.846,275.284,473.846,278.829z"/>
				<path fill="#FFFFFF" d="M442.472,263.142c0,3.544-2.871,6.414-6.405,6.414c-3.543,0-6.414-2.87-6.414-6.414
					c0-3.545,2.871-6.403,6.414-6.403C439.601,256.738,442.472,259.597,442.472,263.142z"/>
				<path fill="#FFFFFF" d="M525.666,308.753c0,3.545-2.869,6.404-6.402,6.404c-3.543,0-6.414-2.859-6.414-6.404
					c0-3.544,2.871-6.403,6.414-6.403C522.797,302.35,525.666,305.209,525.666,308.753z"/>
				<path fill="#FFFFFF" d="M475.808,333.734c0,3.544-2.871,6.403-6.404,6.403c-3.544,0-6.415-2.859-6.415-6.403
					s2.871-6.403,6.415-6.403C472.937,327.331,475.808,330.19,475.808,333.734z"/>
				<path fill="#FFFFFF" d="M493.894,310.204c0,3.544-2.869,6.413-6.408,6.413c-3.538,0-6.409-2.869-6.409-6.413
					c0-3.534,2.871-6.404,6.409-6.404C491.024,303.8,493.894,306.67,493.894,310.204z"/>
				<path fill="#FFFFFF" d="M448.354,301.706c0,3.544-2.87,6.414-6.403,6.414c-3.544,0-6.413-2.87-6.413-6.414
					c0-3.533,2.869-6.403,6.413-6.403C445.483,295.303,448.354,298.173,448.354,301.706z"/>
				<path fill="#FFFFFF" d="M432.667,331.12c0,3.544-2.871,6.414-6.409,6.414c-3.539,0-6.408-2.87-6.408-6.414
					c0-3.534,2.869-6.403,6.408-6.403C429.796,324.717,432.667,327.586,432.667,331.12z"/>
				<path fill="#FFFFFF" d="M516.332,338.31c0,3.544-2.869,6.414-6.409,6.414c-3.538,0-6.407-2.87-6.407-6.414
					c0-3.534,2.869-6.403,6.407-6.403C513.463,331.906,516.332,334.775,516.332,338.31z"/>
				<path fill="#FFFFFF" d="M402.6,326.545c0,3.543-2.87,6.413-6.41,6.413c-3.537,0-6.408-2.87-6.408-6.413
					c0-3.534,2.871-6.404,6.408-6.404C399.729,320.141,402.6,323.011,402.6,326.545z"/>
				<path fill="#FFFFFF" d="M373.186,347.461c0,3.545-2.867,6.413-6.41,6.413c-3.538,0-6.405-2.868-6.405-6.413
					c0-3.533,2.867-6.403,6.405-6.403C370.318,341.058,373.186,343.928,373.186,347.461z"/>
				<path fill="#FFFFFF" d="M398.677,369.685c0,3.545-2.869,6.414-6.409,6.414c-3.537,0-6.407-2.869-6.407-6.414
					c0-3.533,2.87-6.404,6.407-6.404C395.808,363.28,398.677,366.151,398.677,369.685z"/>
				<path fill="#FFFFFF" d="M431.359,357.267c0,3.543-2.869,6.413-6.41,6.413c-3.538,0-6.408-2.87-6.408-6.413
					c0-3.535,2.87-6.404,6.408-6.404C428.49,350.862,431.359,353.731,431.359,357.267z"/>
				<path fill="#FFFFFF" d="M465.348,365.763c0,3.545-2.869,6.414-6.408,6.414c-3.538,0-6.408-2.869-6.408-6.414
					c0-3.534,2.87-6.403,6.408-6.403C462.479,359.359,465.348,362.229,465.348,365.763z"/>
			</g>
		</g>
	</g>
</g>
</svg>
