<svg version="1.1" id="Layer_1" xmlns="http://www.w3.org/2000/svg" xmlns:xlink="http://www.w3.org/1999/xlink" viewBox="0 0 768 430" enable-background="new 0 0 768 430" xml:space="preserve">
<path fill="#AE4A84" d="M380.678,177.648c57.58,0,107.083,35.784,128.942,87.05h-23.88c-22.206-40.362-60.965-67.099-105.063-67.099
	c-44.1,0-82.857,26.739-105.065,67.099h-23.879C273.591,213.431,323.097,177.648,380.678,177.648L380.678,177.648z"/>
<path fill="#035478" d="M380.678,161.094c63.599,0,117.349,43.653,134.864,103.61h-21.949c-19.992-49.448-63.035-83.66-112.92-83.66
	c-49.884,0-92.926,34.213-112.918,83.66h-21.95c17.519-59.958,71.269-103.61,134.864-103.61H380.678z"/>
<path fill="#009846" d="M380.678,142.564c69.987,0,128.047,52.861,139.025,122.14h-19.898
	c-15.899-59.226-63.22-102.189-119.124-102.189c-55.902,0-103.221,42.964-119.123,102.189h-19.899
	c10.977-69.279,69.035-122.14,139.026-122.14H380.678L380.678,142.564z"/>
<path fill="#FFED00" d="M380.678,128.028c80.8,0,147.361,59.754,156.31,136.674h-21.348
	C500.1,198.225,445.565,149.13,380.668,149.13c-64.892,0-119.426,49.096-134.973,115.572H224.35
	c8.952-76.921,75.516-136.674,156.312-136.674H380.678z"/>
<path fill="#EF7F1A" d="M380.678,108.773c88.635,0,160.739,69.464,162.824,155.938h-20.385
	c-11.104-76.03-70.646-134.094-142.44-134.094s-131.332,58.059-142.442,134.094h-20.387
	c2.092-86.468,74.189-155.938,162.824-155.938H380.678z"/>
<path fill="#E31E24" d="M380.678,89.213c95.805,0,173.474,76.198,173.474,170.194c0,1.771-0.029,3.538-0.084,5.297h-20.545
	c-8.105-85.548-73.439-152.222-152.849-152.222c-79.403,0-144.745,66.678-152.85,152.222h-20.544
	c-0.056-1.759-0.084-3.524-0.084-5.296c0-93.996,77.667-170.194,173.475-170.194L380.678,89.213L380.678,89.213z"/>
<g id="wolk">
	<g>
		<path fill="#FFFFFF" d="M499.965,224.155c8.175-17.214,28.468-21.378,42.021-12.487c9.401,6.169,14.09,14.999,13.495,26.393
			c-0.034,0.67,0.275,0.853,0.75,1.097c9.852,5.05,15.292,15.647,13.652,26.565c-1.834,12.207-12.486,21.51-24.854,21.541
			c-20.841,0.053-41.679,0.014-62.518,0.017c-2.034,0.001-4.027-0.265-5.979-0.835c-9.256-2.703-15.624-11.281-15.62-21.037
			c0.006-9.708,6.361-18.197,15.641-20.887c1.198-0.348,1.198-0.348,0.602-1.469c-3.823-7.182-1.028-16.162,6.349-19.751
			c5.61-2.729,10.979-1.96,15.929,1.858C499.727,224.909,499.8,224.506,499.965,224.155z"/>
	</g>
</g>
<g id="wolk_1_">
	<g>
		<path fill="#FFFFFF" d="M267.845,230.934c4.95-3.819,10.319-4.588,15.929-1.858c7.377,3.588,10.172,12.567,6.349,19.751
			c-0.597,1.121-0.597,1.121,0.601,1.468c9.279,2.69,15.635,11.179,15.641,20.888c0.004,9.756-6.364,18.334-15.62,21.037
			c-1.952,0.569-3.946,0.836-5.98,0.834c-20.839-0.003-41.677,0.037-62.517-0.016c-12.369-0.031-23.021-9.335-24.855-21.542
			c-1.64-10.918,3.801-21.515,13.652-26.565c0.475-0.244,0.785-0.426,0.75-1.097c-0.594-11.394,4.094-20.224,13.496-26.394
			c13.553-8.891,33.846-4.726,42.021,12.488C267.477,230.277,267.55,230.682,267.845,230.934z"/>
	</g>
</g>
</svg>
