<svg version="1.1" id="Layer_1" xmlns="http://www.w3.org/2000/svg" xmlns:xlink="http://www.w3.org/1999/xlink" viewBox="0 0 768 430" enable-background="new 0 0 768 430" xml:space="preserve">
<g>
	<g>
		<polygon fill="#FCD200" points="606.406,322.198 557.55,352 431.91,159.094 486.572,125.749 		"/>
		<polygon fill="#FCD200" points="168.554,323.006 217.409,352.808 343.05,159.901 288.388,126.558 		"/>
		<path fill="#F7E431" d="M477.808,114.922c0,23.496-181.104,23.496-181.104,0c0-23.495,40.542-42.542,90.552-42.542
			C437.267,72.38,477.808,91.427,477.808,114.922z"/>
		<path fill="#7F7A8E" d="M468.653,119.504c0,18.028-162.794,18.028-162.794,0c0-18.028,36.443-32.643,81.397-32.643
			S468.653,101.477,468.653,119.504z"/>
		<path fill="#FCD200" d="M471.987,117.377h-74.211h-20.373h-74.877c-9.288,0-16.817,7.529-16.817,16.816v244.489
			c0,9.289,7.529,16.817,16.817,16.817h74.877v-16.493h20.373V395.5h74.211c9.287,0,16.816-7.528,16.816-16.817V134.193
			C488.804,124.906,481.274,117.377,471.987,117.377z"/>
		<rect x="377.419" y="117.379" fill="#F7E431" width="20.373" height="261.631"/>
		<g>
			<circle fill="#484E51" cx="387.256" cy="150.065" r="5.558"/>
			<circle fill="#484E51" cx="387.256" cy="202.396" r="5.558"/>
			<circle fill="#484E51" cx="387.256" cy="254.727" r="5.558"/>
			<circle fill="#484E51" cx="387.256" cy="307.057" r="5.558"/>
			<circle fill="#484E51" cx="387.256" cy="359.388" r="5.558"/>
		</g>
		<g>
			<path fill="#F4EB4E" d="M469.945,329.439H419.21c-2.926,0-5.298,2.372-5.298,5.298v39.496c0,2.927,2.372,5.299,5.298,5.299
				h50.735c2.927,0,5.298-2.372,5.298-5.299v-39.496C475.243,331.812,472.872,329.439,469.945,329.439z"/>
			<path fill="#FFE70B" d="M469.945,329.439H419.21c-2.926,0-5.298,0.896-5.298,2.004v14.938c0,1.107,2.372,2.004,5.298,2.004
				h50.735c2.927,0,5.298-0.896,5.298-2.004v-14.938C475.243,330.336,472.872,329.439,469.945,329.439z"/>
			<circle fill="#484E51" cx="425.416" cy="337.817" r="4.139"/>
			<circle fill="#484E51" cx="464.385" cy="337.817" r="4.139"/>
		</g>
		<g>
			<path fill="#F4EB4E" d="M356.109,329.439h-50.735c-2.927,0-5.299,2.372-5.299,5.298v39.496c0,2.927,2.372,5.299,5.299,5.299
				h50.735c2.926,0,5.298-2.372,5.298-5.299v-39.496C361.407,331.812,359.035,329.439,356.109,329.439z"/>
			<path fill="#FFE70B" d="M356.109,329.439h-50.735c-2.927,0-5.299,0.896-5.299,2.004v14.938c0,1.107,2.372,2.004,5.299,2.004
				h50.735c2.926,0,5.298-0.896,5.298-2.004v-14.938C361.407,330.336,359.035,329.439,356.109,329.439z"/>
			<circle fill="#484E51" cx="311.58" cy="337.817" r="4.139"/>
			<circle fill="#484E51" cx="350.548" cy="337.817" r="4.139"/>
		</g>
		<polygon fill="#F7E431" points="606.406,322.198 557.551,352 547.345,336.329 596.677,306.248 		"/>
		<circle fill="#484E51" cx="558.95" cy="340.55" r="4.139"/>
		<polygon fill="#F7E431" points="168.556,323.006 217.411,352.808 227.618,337.137 178.286,307.057 		"/>
		<circle fill="#484E51" cx="216.012" cy="341.359" r="4.139"/>
		<g>
			<rect x="346.346" y="117.377" fill="#7F7A8E" width="4.851" height="70.106"/>
			<circle fill="#736F84" cx="348.771" cy="175.973" r="5.714"/>
		</g>
		<g>
			<rect x="423.315" y="117.377" fill="#7F7A8E" width="4.851" height="70.106"/>
			<circle fill="#736F84" cx="425.741" cy="175.973" r="5.713"/>
		</g>
		<path fill="#F7E431" d="M377.419,117.379c-77.319-3.034-80.02,0-80.02,0S306.621,131.571,377.419,117.379z"/>
		<path fill="#F7E431" d="M397.71,117.379c76.851-3.034,79.536,0,79.536,0S468.08,131.571,397.71,117.379z"/>
	</g>
	<path opacity="0.2" fill="#FFFFFF" d="M296.696,114.932c0,0.848,0.244,1.666,0.699,2.452c-0.002,0.003-0.004,0.004-0.004,0.004
		s0.01,0.015,0.031,0.043c0.124,0.208,0.258,0.416,0.412,0.621c-5.728,1.659-10.196,6.278-11.637,12.096L168.546,323.016
		l48.854,29.801h0.001h0.001l10.207-15.671l-0.001-0.002l58.091-89.191v130.74c0,9.288,7.529,16.817,16.817,16.817h74.878v-16.494
		h0.015v0.003h9.677V72.39C337.151,72.431,296.696,91.461,296.696,114.932z"/>
</g>
</svg>
