<svg version="1.1" id="Layer_1" xmlns="http://www.w3.org/2000/svg" xmlns:xlink="http://www.w3.org/1999/xlink" viewBox="0 0 768 430" enable-background="new 0 0 768 430" xml:space="preserve">
<g id="wolk">
	<g>
		<path fill="#FFFFFF" d="M436.49,83.464c16.127-12.442,33.617-14.946,51.893-6.056c24.033,11.69,33.139,40.948,20.684,64.346
			c-1.941,3.652-1.941,3.652,1.955,4.782c30.23,8.765,50.938,36.418,50.957,68.046c0.014,31.783-20.732,59.729-50.889,68.538
			c-6.361,1.854-12.857,2.72-19.482,2.717c-67.891-0.008-135.778,0.122-203.667-0.05c-40.298-0.104-75.004-30.412-80.978-70.182
			c-5.34-35.568,12.382-70.088,44.477-86.546c1.547-0.794,2.56-1.386,2.447-3.572c-1.938-37.115,13.333-65.882,43.966-85.981
			c44.152-28.966,110.263-15.398,136.9,40.68C435.291,81.329,435.529,82.645,436.49,83.464z"/>
	</g>
</g>
<path fill="#FFFFFF" d="M282.213,310.261c0,0-19.793,32.211-19.793,43.118c0,10.92,8.874,19.787,19.793,19.787
	c10.924,0,19.799-8.867,19.799-19.787C302.012,342.472,282.213,310.261,282.213,310.261z"/>
<path fill="#FFFFFF" d="M313.684,378.572c0,10.954,8.868,19.788,19.794,19.788c10.924,0,19.798-8.868,19.798-19.788
	c0-10.908-19.798-43.119-19.798-43.119S313.684,367.63,313.684,378.572z"/>
<path fill="#FFFFFF" d="M384.752,304c0,0-19.793,32.211-19.793,43.119c0,10.919,8.868,19.787,19.793,19.787
	c10.925,0,19.793-8.868,19.793-19.787C404.545,336.211,384.752,304,384.752,304z"/>
<path fill="#FFFFFF" d="M416.218,378.572c0,10.954,8.866,19.788,19.785,19.788c10.943,0,19.812-8.868,19.812-19.788
	c0-10.908-19.812-43.119-19.812-43.119S416.218,367.63,416.218,378.572z"/>
<path fill="#FFFFFF" d="M467.487,363.338c0,10.954,8.866,19.787,19.81,19.787c10.919,0,19.765-8.868,19.765-19.787
	c0-10.908-19.765-43.119-19.765-43.119S467.487,352.396,467.487,363.338z"/>
</svg>
