<svg version="1.1" id="Layer_1" xmlns="http://www.w3.org/2000/svg" xmlns:xlink="http://www.w3.org/1999/xlink" x="0px" y="0px"
	viewBox="0 0 768 430" enable-background="new 0 0 768 430" xml:space="preserve">
<g>
	<g>
		<path fill="#202E3D" d="M220.937,240.041c-0.165-0.682-0.779-1.178-1.463-1.178c-0.236,0-0.465,0.059-0.688,0.172
			c-0.078,0.039-0.157,0.078-0.234,0.115c-0.089-0.018-0.179-0.027-0.27-0.027c-0.298,0-0.591,0.102-0.849,0.297
			c-0.123,0.094-0.249,0.184-0.375,0.271l-0.101,0.073c-1.012,0.302-2.082,0.454-3.181,0.454c-5.164,0-10.845-3.408-13.814-8.291
			c-0.272-0.451-0.725-0.709-1.239-0.709c-0.545,0-1.07,0.307-1.338,0.777c-0.251,0.451-0.239,0.993,0.041,1.451
			c3.062,5.035,8.416,8.639,13.863,9.508c-2.724,1.112-5.515,1.673-8.332,1.673c-3.003,0-5.962-0.654-8.795-1.942
			c-0.203-0.094-0.417-0.141-0.631-0.141c-0.715,0-1.345,0.517-1.499,1.227c-0.14,0.645,0.179,1.27,0.793,1.55
			c3.284,1.492,6.711,2.251,10.191,2.251c3.409,0,6.756-0.711,9.988-2.121c-0.504,0.896-0.966,1.814-1.423,2.716l-0.028,0.061
			c-2.289,4.531-4.958,6.425-9.214,6.532c-0.828,0.02-1.445,0.67-1.434,1.513c0.01,0.823,0.627,1.443,1.479,1.443
			c4.426-0.112,7.595-1.694,9.977-4.981c0.458-0.632,0.863-1.289,1.238-1.955c-0.621,2.198-1.858,4.182-3.699,5.926
			c-0.441,0.416-0.577,1.014-0.36,1.562c0.231,0.581,0.797,0.972,1.41,0.972c0.37,0,0.727-0.146,1.003-0.409
			c2.229-2.106,3.684-4.468,4.58-7.437c0.392-1.294,0.415-2.602,0.439-3.867c0.023-1.202,0.045-2.341,0.385-3.33
			c0.546-0.684,1.119-1.25,1.745-1.728c0.188-0.144,0.336-0.321,0.437-0.523c0.237-0.104,0.45-0.208,0.658-0.312
			C220.795,241.326,221.093,240.686,220.937,240.041z"/>
		<linearGradient id="SVGID_1_" gradientUnits="userSpaceOnUse" x1="218.7544" y1="224.2285" x2="226.5027" y2="215.2561">
			<stop  offset="0" style="stop-color:#455163"/>
			<stop  offset="1" style="stop-color:#364356"/>
		</linearGradient>
		<path fill="url(#SVGID_1_)" d="M215.413,241.455c0,0,8.565-6.934,12.234-18.354c3.67-11.418,8.158-44.452,17.129-50.57
			c8.973-6.118,1.632,24.47,1.632,24.47l-7.749,20.799c0,0-6.118,18.352-20.798,25.284
			C217.861,243.085,215.413,243.901,215.413,241.455z"/>
	</g>
	<g>
		<g>
			<g>
				<path fill="#364356" d="M311.661,282.237c0,0,4.894,12.233,2.447,18.759c-2.447,6.525-6.524,12.234-4.894,20.8
					c1.632,8.562,8.972,25.284,8.972,28.547s-1.224,9.785,1.225,12.642c2.447,2.855,10.196,4.079,13.866,0
					c0,0,11.826,2.855,14.681-1.223c2.855-4.077,11.013-24.877,11.419-26.101c0.408-1.223-0.001-19.167-0.816-22.431
					c-0.815-3.262-2.038-25.693-4.485-29.363s-15.496-7.747-15.496-7.747L311.661,282.237z"/>
				<path fill="#364356" d="M403.015,361.354c0,0,5.302,1.63,9.379,0.815c4.08-0.815,4.895-5.711,4.895-5.711
					s7.341,3.264,10.604,0.409c3.261-2.855,2.853-8.157-1.632-11.011c-4.486-2.854-8.973-13.458-6.934-19.984
					c2.04-6.524,13.049-15.904,17.536-20.798c4.485-4.896,14.683-22.838,16.721-38.336c2.04-15.497-27.733-0.408-27.733-0.408
					s-22.021,8.565-25.284,9.789c-3.262,1.223-11.827,6.932-14.681,11.011c-2.855,4.077-11.013,25.284-12.236,31.81
					c-1.223,6.525-3.668,22.43-1.223,28.14c2.446,5.709,11.827,11.827,11.827,11.827L403.015,361.354z"/>
				<path fill="#2C3A4E" d="M347.958,361.762c2.855-4.077,11.013-24.877,11.419-26.101c0.408-1.223-0.001-19.167-0.816-22.431
					c-0.815-3.262-2.038-25.693-4.485-29.363s-15.496-7.747-15.496-7.747l-26.918,6.117c0,0,4.894,12.233,2.447,18.759
					c-2.447,6.525-6.524,12.234-4.894,20.8c0.555,2.913,1.772,6.772,3.136,10.724c-1.633-6.477-2.791-14.332,0.125-17.251
					c5.303-5.3,13.052-7.34,16.722-3.67c3.669,3.67,11.826,15.907,14.681,18.76c2.742,2.743-4.666,23.16-0.197,33.443
					C345.523,363.55,347.125,362.953,347.958,361.762z"/>
				<path fill="#2C3A4E" d="M436.863,305.075c4.485-4.896,14.683-22.838,16.721-38.336c2.04-15.497-27.733-0.408-27.733-0.408
					s-22.021,8.565-25.284,9.789c-3.262,1.223-11.827,6.932-14.681,11.011c-2.855,4.077-11.013,25.284-12.236,31.81
					c-1.223,6.525-3.668,22.43-1.223,28.14c2.446,5.709,11.827,11.827,11.827,11.827l18.761,2.447c0,0,2.315,0.709,5.059,0.956
					c-1.163-3.771-3.077-9.631-4.653-12.783c-2.446-4.896-4.077-28.547,2.855-36.297c6.932-7.749,27.731-23.246,30.178-20.8
					c2.391,2.391-9.21,20.319-13.178,26.863C427.492,314.029,433.749,308.471,436.863,305.075z"/>
				<ellipse fill="#1E2133" cx="327.005" cy="362.984" rx="4.436" ry="2.753"/>
				<ellipse fill="#1E2133" cx="341.953" cy="360.721" rx="5.62" ry="3.487"/>
				<ellipse fill="#1E2133" cx="409.742" cy="359.803" rx="5.619" ry="3.488"/>
				<ellipse fill="#1E2133" cx="424.366" cy="354.909" rx="4.645" ry="3.488"/>
			</g>
			<g>
				<path fill="#455163" d="M243.351,164.784c0,0-12.235,39.762-6.118,71.573c6.118,31.81,20.187,51.997,20.798,58.727
					c0.612,6.729,1.837,25.692,3.061,33.646c1.223,7.95-1.836,21.409-4.896,23.244c-3.059,1.836-7.339,12.847-1.224,17.13
					c6.119,4.281,12.236,0.611,12.236,0.611s7.342,7.341,17.129,6.729c9.788-0.611,14.07-6.117,14.07-6.117
					s11.621,2.447,12.845-1.835c1.224-4.283-2.444-11.012-6.728-14.682c0,0-4.894-19.575-6.729-28.752s-1.224-33.033,3.059-36.092
					c4.281-3.059,6.117-22.635,6.117-22.635l-11.011-49.551L243.351,164.784z"/>
				<linearGradient id="SVGID_2_" gradientUnits="userSpaceOnUse" x1="249.7856" y1="260.3076" x2="268.1374" y2="241.1401">
					<stop  offset="0" style="stop-color:#455163"/>
					<stop  offset="1" style="stop-color:#364356"/>
				</linearGradient>
				<path fill="url(#SVGID_2_)" d="M294.94,295.287l-10.604,1.631c0,0,7.34-8.564,3.67-19.168
					c-3.67-10.603-15.905-18.76-26.508-33.44c-10.604-14.683-20.8-41.19-19.575-54.648c1.224-13.458,17.536-5.302,19.981-2.447
					c2.447,2.854,29.771,37.928,30.589,39.966c0.814,2.04,12.233,42.006,12.233,42.006l-1.63,8.972l-2.447,7.342L294.94,295.287z"/>
				<linearGradient id="SVGID_3_" gradientUnits="userSpaceOnUse" x1="280.98" y1="361.5215" x2="277.3096" y2="287.7052">
					<stop  offset="0" style="stop-color:#455163"/>
					<stop  offset="1" style="stop-color:#364356"/>
				</linearGradient>
				<path fill="url(#SVGID_3_)" d="M309.215,363.802c-1.631-4.895-6.934-6.934-8.157-10.196c-1.082-2.884-6.303-27.749-6.657-41.652
					c-3.67-5.508-9.863-11.365-16.589-11.365c-10.195,0-11.826,23.246-13.05,31.812c-1.223,8.562-2.856,17.535-6.935,21.613
					c-3.742,3.746-4.736,11.608-4.874,12.872c0.484,0.844,1.142,1.602,2.019,2.219c6.119,4.281,12.236,0.611,12.236,0.611
					s7.342,7.341,17.129,6.729c9.788-0.611,14.07-6.117,14.07-6.117s2.608,0.549,5.484,0.672
					C305.383,370.408,310.618,368.012,309.215,363.802z"/>
				<path fill="#364356" d="M311.252,368.491c1.224-4.283-2.444-11.012-6.728-14.682c0,0-4.894-19.575-6.729-28.752
					s-1.224-33.033,3.059-36.092c2.669-1.907,4.387-10.233,5.303-16.234l-2.652-1.915c0,0-3.671,23.246-19.575,24.878
					c-15.907,1.632-23.655-17.944-26.916-25.285c-3.263-7.34-15.498-18.351-18.761-44.86c-1.963-15.947-0.974-30.262,0.126-39.144
					c-2.494,14.199-4.371,33.179-1.146,49.951c6.118,31.81,20.187,51.997,20.798,58.727c0.612,6.729,1.837,25.692,3.061,33.646
					c1.223,7.95-1.836,21.409-4.896,23.244c-2.617,1.571-6.128,9.869-3.242,14.911c0.138-1.264,1.132-9.126,4.874-12.872
					c4.078-4.078,5.712-13.051,6.935-21.613c1.224-8.565,2.854-31.812,13.05-31.812c6.726,0,12.919,5.857,16.589,11.365
					c0.354,13.903,5.575,38.769,6.657,41.652c1.224,3.263,6.526,5.302,8.157,10.196c1.403,4.21-3.832,6.606-5.323,7.196
					c0.641,0.026,1.291,0.03,1.93,0.005l0.747-0.044C308.824,370.77,310.788,370.116,311.252,368.491z"/>
				<linearGradient id="SVGID_4_" gradientUnits="userSpaceOnUse" x1="282.2207" y1="365.4316" x2="282.2207" y2="346.4701">
					<stop  offset="0" style="stop-color:#505B6C"/>
					<stop  offset="1" style="stop-color:#606A79"/>
				</linearGradient>
				<path fill="url(#SVGID_4_)" d="M270.59,355.272c-1.308-3.694-10.164-1.714-11.545,1.211c-1.38,2.927,0.998,5.681,4.087,5.685
					C265.692,362.171,271.717,358.456,270.59,355.272z M270.453,362.085c0.501,4.902,7.682,5.615,11.331,5.931
					c4.427,0.382,12.014,0.784,13.322-4.743C298.197,350.215,269.361,351.332,270.453,362.085z M301.835,357.307
					c-9.851-4.235-0.03,12.616,3.629,5.685C306.787,360.479,303.889,358.189,301.835,357.307z"/>
				<path fill="#1E2133" d="M260.397,364.968c-2.935-0.332-5.471,0.812-5.669,2.555c-0.196,1.741,2.021,3.422,4.957,3.754
					c2.933,0.33,5.471-0.814,5.669-2.555C265.55,366.98,263.33,365.299,260.397,364.968z M311.24,367.887
					c-0.178-1.742-2.704-2.915-5.64-2.617c-2.937,0.298-5.176,1.953-4.998,3.696c0.177,1.744,2.701,2.916,5.64,2.62
					C309.179,371.287,311.415,369.632,311.24,367.887z M282.648,368.622c-3.895,0.001-7.053,1.878-7.052,4.191
					c0.002,2.314,3.16,4.188,7.055,4.187s7.05-1.877,7.05-4.19C289.701,370.495,286.543,368.622,282.648,368.622z"/>
			</g>
			<g>
				<path fill="#556071" d="M341.839,292.636c0,0-43.432-3.67-67.901-45.269c0,0-34.87-22.021-33.033-73.408
					c1.835-51.385,52.608-72.184,71.571-69.737c18.965,2.447,29.363,17.128,44.045,1.835c14.683-15.293,31.812-36.093,64.233-29.363
					s38.539,29.975,38.539,29.975l-0.612,155.992c0,0-12.235,18.351-37.927,19.576c0,0-11.624,13.457-37.315,14.068L341.839,292.636
					z"/>
				
					<radialGradient id="SVGID_5_" cx="628.4277" cy="-93.832" r="70.1469" gradientTransform="matrix(1.8801 -0.2456 0.1254 0.9598 -830.5156 351.7285)" gradientUnits="userSpaceOnUse">
					<stop  offset="0" style="stop-color:#717A89"/>
					<stop  offset="0.3937" style="stop-color:#687282"/>
					<stop  offset="0.9227" style="stop-color:#556071"/>
				</radialGradient>
				<path fill="url(#SVGID_5_)" d="M348.076,174.674c49.894-6.518,91.466-26.334,111.146-50.125l0.071-17.881
					c0,0-6.117-23.245-38.539-29.975s-49.551,14.07-64.233,29.363c-14.682,15.293-25.08,0.611-44.045-1.835
					c-17.552-2.265-62.349,15.388-70.377,58.774C268.271,175.14,306.571,180.097,348.076,174.674z"/>
				<linearGradient id="SVGID_6_" gradientUnits="userSpaceOnUse" x1="370.043" y1="119.1851" x2="364.7418" y2="82.4818">
					<stop  offset="0" style="stop-color:#717A89"/>
					<stop  offset="1" style="stop-color:#9198A4"/>
				</linearGradient>
				<path fill="url(#SVGID_6_)" d="M310.031,112.583c12.641,5.709,26.508,14.682,41.597,9.38c15.088-5.301,27-41.64,49.346-44.452
					c30.79-3.875,49.143,18.759,49.143,18.759l5.154,2.102c-4.795-7.367-14.783-17.582-34.517-21.677
					c-32.422-6.729-49.551,14.07-64.233,29.363c-14.682,15.293-25.08,0.611-44.045-1.835c-7.345-0.948-19.467,1.596-31.665,8.051
					C286.47,110.846,300.214,108.15,310.031,112.583z"/>
				<path fill="#455163" d="M240.904,173.959c-1.837,51.386,33.033,73.408,33.033,73.408c24.47,41.599,67.901,45.269,67.901,45.269
					l41.6,3.67c25.691-0.611,37.315-14.068,37.315-14.068c25.691-1.226,37.927-19.576,37.927-19.576l0.205-52.326
					c-8.679-8.768-17.928-16.779-21.617-21.082c-7.341-8.565-9.787-42.821-9.787-42.821s-8.564-20.187-10.399-22.635
					c-1.835-2.447-11.011-8.564-13.457-10.399c-2.447-1.835-18.963-3.059-18.963-3.059s1.224,7.341,9.176,18.963
					c7.952,11.623,4.892,43.433-2.447,59.338c-7.341,15.905-68.515,18.352-79.527,14.07c-11.009-4.282-53.221-22.634-56.892-45.268
					c-2.541-15.675,10.467-32.228,18.704-40.926C256.978,127.609,241.888,146.375,240.904,173.959z"/>
				<linearGradient id="SVGID_7_" gradientUnits="userSpaceOnUse" x1="327.7495" y1="206.2065" x2="325.3026" y2="257.5922">
					<stop  offset="0" style="stop-color:#4D5E6A"/>
					<stop  offset="1" style="stop-color:#455163"/>
				</linearGradient>
				<path fill="url(#SVGID_7_)" d="M255.79,213.722c0,0-26.508-35.481-2.447-73c0,0-2.039,17.945,2.855,27.325
					c4.894,9.38,31.809,39.15,54.24,42.005c22.431,2.855,38.743-4.894,55.463-5.301c16.721-0.409,30.18-15.498,33.85-22.43
					c0,0,6.525,49.754,11.419,61.172c4.896,11.42-15.089-5.301-22.431-18.352c-7.341-13.051-5.3,23.654-12.234,25.285
					c-6.934,1.631-40.781,7.748-52.608-5.301c-11.827-13.051-22.431-2.04-28.14,2.445c-5.71,4.486-24.062-12.234-29.771-40.374
					c0,0-3.264-17.536-3.67-21.207C261.905,182.32,254.568,194.962,255.79,213.722z"/>
				<g>
					<path fill="#344155" d="M273.938,247.367c24.47,41.599,67.901,45.269,67.901,45.269l41.6,3.67
						c25.691-0.611,37.315-14.068,37.315-14.068c25.691-1.226,37.927-19.576,37.927-19.576l0.232-59.318l-29.392-77.302
						l-56.686-30.587c3.669,33.034,40.374,36.297,40.374,36.297c-17.537,54.24-5.303,101.956,2.445,113.375
						c7.749,11.419,21.613,18.76,21.613,24.062s-14.271,8.156-14.271,8.156c-25.284-8.564-35.889-48.938-35.889-48.938
						c6.934,37.927,27.323,51.386,27.323,51.386c-5.71,6.523-14.272,7.749-14.272,7.749l-0.408-4.896l5.302,0.407
						c0,0-6.525-9.787-36.295-9.787c-29.771,0-32.219,5.303-32.219,5.303l-1.633,5.71c-11.744-4.68-11.824-19.983-11.824-19.983
						l-0.408,5.3c-8.565-2.854-17.538-16.312-17.538-16.312c4.896,12.234,17.946,19.982,17.946,19.982
						c0.814,6.118,6.115,11.013,6.115,11.013c-61.58-14.684-67.29-88.906-67.29-88.906c-0.815,26.917,6.523,41.19,6.523,41.19
						c-17.127-11.826-25.688-43.527-27.552-55.609C242.242,227.35,273.938,247.367,273.938,247.367z"/>
					<path fill="#202E3D" d="M339.392,279.482l-2.79,8.375c-5.997-1.145-15.967-3.901-30.548-10.515
						c-26.305-11.93-38.846-49.856-38.846-49.856l4.587,14.682c-10.673-4.744-22.265-26.779-26.933-36.432
						c8.822,28.834,29.075,41.631,29.075,41.631c24.47,41.599,67.901,45.269,67.901,45.269l2.543,0.225
						c0.324-2.475,0.702-5.841,0.515-6.953C344.591,284.072,339.392,279.482,339.392,279.482z M426.258,170.9
						c-3.67-4.587-13.764-14.375-18.963,9.176c-5.201,23.552,6.117,54.75,7.646,59.033c1.529,4.281,14.375,15.598,19.574,18.656
						c5.201,3.059,10.095,11.624,8.871,13.765c-1.223,2.143-14.376,8.87-21.104,7.952c-6.729-0.916-18.963-14.681-18.963-14.681
						c5.811,9.176,14.986,15.293,14.986,15.293c-5.812,6.729-19.27,11.317-19.27,11.317l-3.059-7.34l-9.374,12.082
						c23.476-1.578,34.15-13.917,34.15-13.917c25.691-1.226,37.927-19.576,37.927-19.576l0.207-52.83
						C448.886,197.917,429.189,174.563,426.258,170.9z"/>
				</g>
			</g>
			<g>
				<path fill="#7A8390" d="M339.393,278.158c0,0,24.469-8.157,56.28,1.631c0,0,2.446,17.129,0,31.402
					c-2.447,14.274-12.234,24.47-6.117,31.402c6.117,6.934,15.088,13.865,13.864,19.576c-1.224,5.71-8.562,8.156-15.088,4.486
					c0,0-5.71,5.299-13.867,5.299s-11.011-4.483-11.011-4.483s-15.091,0.815-17.537-4.894c-2.447-5.71,6.525-12.235,5.302-24.063
					C349.995,326.689,335.723,303.441,339.393,278.158z"/>
				<linearGradient id="SVGID_8_" gradientUnits="userSpaceOnUse" x1="375.1782" y1="358.7021" x2="375.1782" y2="341.5756">
					<stop  offset="0" style="stop-color:#7A8390"/>
					<stop  offset="1" style="stop-color:#9EA5AE"/>
				</linearGradient>
				<path fill="url(#SVGID_8_)" d="M375.179,349.833c-11.993,0-21.717,6.437-21.717,14.375c0,0.922,0.136,1.82,0.385,2.69
					c4.681,0.837,9.607,0.573,9.607,0.573s2.854,4.483,11.011,4.483s13.867-5.299,13.867-5.299c2.567,1.443,5.259,1.937,7.659,1.659
					c0.584-1.299,0.903-2.679,0.903-4.107C396.895,356.27,387.173,349.833,375.179,349.833z"/>
				<linearGradient id="SVGID_9_" gradientUnits="userSpaceOnUse" x1="454.7061" y1="320.8174" x2="356.8255" y2="320.8174">
					<stop  offset="0" style="stop-color:#556071"/>
					<stop  offset="1" style="stop-color:#7A8390"/>
				</linearGradient>
				<path fill="url(#SVGID_9_)" d="M403.42,362.17c1.224-5.711-7.747-12.643-13.864-19.576c-6.117-6.933,3.67-17.128,6.117-31.402
					c2.446-14.273,0-31.402,0-31.402c-11.086-3.412-21.28-4.641-29.859-4.799c0.099,0.277,0.252,0.554,0.476,0.829
					c2.221,2.75,11.099,2.844,14.47,4.037c7.055,2.497,13.163,6.792,12.779,14.922c-0.498,10.563-3.697,23.657-11.554,31.273
					c-3.698,3.583-10.705,5.813-12.021,11.24c-1.422,5.872,5.29,8.483,9.497,9.788c7.02,2.176,27.502,8.784,19.575,18.965
					l1.431,0.599C401.95,365.572,403.018,364.051,403.42,362.17z"/>
				<path fill="#556071" d="M339.393,278.158c-3.67,25.283,10.603,48.531,11.826,60.356c1.224,11.828-7.749,18.354-5.302,24.063
					c2.446,5.709,17.537,4.894,17.537,4.894s2.854,4.483,11.011,4.483s13.867-5.299,13.867-5.299
					c6.525,3.67,13.864,1.224,15.088-4.486c0.13-0.609,0.14-1.233,0.054-1.868c-0.091-0.041-0.154-0.069-0.154-0.069
					s-1.837,4.281-6.73,5.505c-4.893,1.225-8.868-2.141-8.868-2.141s-3.671,4.283-11.013,5.812c-7.34,1.529-12.54-3.672-12.54-3.672
					c-2.198,0.999-5.574,0.823-7.647,0.581c-6.482-2.913-4.42-9.733-2.141-14.038c2.753-5.2,7.034-20.492,2.141-34.257
					c-4.894-13.766-1.529-38.234-1.529-38.234c18.782-4.023,36.852,1.362,41.008,2.748c-0.183-1.732-0.326-2.748-0.326-2.748
					C363.861,270.001,339.393,278.158,339.393,278.158z"/>
				<path fill="#687281" d="M351.628,364.208c0,0-2.447-3.262-0.817-6.932c1.632-3.671,6.118-16.108,6.118-26.307
					c0-10.194-8.358-35.072-6.321-49.345c0,0-7.138,0.407-9.583,3.466c-2.446,3.059,2.039,24.266,4.69,30.995
					c2.648,6.729,9.174,19.372,8.154,26.508c-1.018,7.137-6.117,12.438-6.729,16.924
					C346.528,364.005,351.628,364.208,351.628,364.208z"/>
				<path fill="#25283A" d="M355.67,360.762c-3.024-0.31-5.645,1.076-5.849,3.094c-0.206,2.017,2.08,3.901,5.105,4.208
					c3.025,0.309,5.644-1.076,5.85-3.093C360.979,362.954,358.695,361.069,355.67,360.762z M375.112,365.39
					c-3.429,0.258-6.089,2.106-5.943,4.13c0.144,2.021,3.042,3.453,6.473,3.195c3.429-0.259,6.091-2.105,5.945-4.128
					C381.44,366.563,378.544,365.133,375.112,365.39z M400.739,365.181c-0.195-1.782-2.521-2.996-5.198-2.709
					c-2.675,0.285-4.688,1.961-4.492,3.744c0.192,1.781,2.519,2.997,5.196,2.712C398.921,368.641,400.933,366.965,400.739,365.181z"
					/>
			</g>
		</g>
		<g>
			<g>
				<g>
					<linearGradient id="SVGID_10_" gradientUnits="userSpaceOnUse" x1="381.8418" y1="111.5703" x2="388.367" y2="104.2297">
						<stop  offset="0" style="stop-color:#505963"/>
						<stop  offset="1" style="stop-color:#36404B"/>
					</linearGradient>
					<path fill="url(#SVGID_10_)" d="M426.258,130.526c-1.301-9.543-5.692-20.064-14.205-25.302
						c-5.953-3.665-13.368-3.881-19.233-7.731c-13.053-8.564-19.578-22.838-28.55-35.072c0,0,0,6.932,3.67,13.866
						c0,0,1.225,24.877,17.129,40.781c0,0,14.274,12.236,33.034,8.973L426.258,130.526z"/>
					<linearGradient id="SVGID_11_" gradientUnits="userSpaceOnUse" x1="387.3672" y1="117.3887" x2="398.7865" y2="101.8913">
						<stop  offset="0" style="stop-color:#3D444D"/>
						<stop  offset="1" style="stop-color:#262C35"/>
					</linearGradient>
					<path fill="url(#SVGID_11_)" d="M426.636,121.483c-1.437-5.442-4.466-12.834-8.127-17.057l-2.051,3.358
						c-0.126-0.166-0.256-0.332-0.397-0.504l1.226-7.749c-4.192-0.318-9.237-1.626-14.158-2.017
						c-0.03-0.954-0.117-2.045-0.115-3.286l-28.548-16.72c3.102,6.223,7.36,12.58,11.929,17.865
						c1.438,1.665,3.113,3.188,4.997,4.354c-0.346,0.223-0.688,0.458-1.02,0.722c-4.956,3.938-0.579,7.997,3.669,10.411
						c3.511,1.994,17.785,5.783,22.738,3.597c2.237,2.499,4.079,5.483,4.668,8.688C423.082,122.656,424.868,121.911,426.636,121.483
						z"/>
					<linearGradient id="SVGID_12_" gradientUnits="userSpaceOnUse" x1="404.2002" y1="89.5239" x2="394.6393" y2="96.9601">
						<stop  offset="0.0055" style="stop-color:#A3AAB5"/>
						<stop  offset="1" style="stop-color:#8C95A3"/>
					</linearGradient>
					<path fill="url(#SVGID_12_)" d="M426.258,130.526c-1.301-9.543-5.692-20.064-14.205-25.302
						c-5.953-3.665-13.368-3.881-19.233-7.731c-13.053-8.564-19.578-22.838-28.55-35.072c0,0,14.274,17.943,26.102,20.391
						c11.825,2.446,31.401,5.708,35.479,30.178L426.258,130.526z"/>
					<path fill="#5B6570" d="M364.247,62.438c8.857,12.585,15.745,28.399,29.662,36.352c3.673,2.098,7.924,2.984,11.905,4.292
						c4.037,1.326,7.614,3.347,10.58,6.41c5.418,5.592,8.042,13.144,9.419,20.656c0.026,0.143,0.052,0.285,0.075,0.426
						c0.081,0.473,0.793,0.385,0.74-0.096c-0.775-7.157-3.377-14.323-7.849-20.01c-2.227-2.832-5.068-5.133-8.278-6.756
						c-3.778-1.91-8.012-2.727-11.986-4.112c-7.886-2.747-14.005-9.223-19.061-15.626c-4.955-6.276-9.059-13.168-13.732-19.647
						c-0.468-0.648-0.948-1.286-1.43-1.924C364.27,62.374,364.226,62.408,364.247,62.438L364.247,62.438z"/>
				</g>
				<g>
					
						<linearGradient id="SVGID_13_" gradientUnits="userSpaceOnUse" x1="1775.3965" y1="-86.1221" x2="1783.079" y2="-94.7646" gradientTransform="matrix(-0.9553 0.2956 0.2956 0.9553 2245.6338 -360.7471)">
						<stop  offset="0" style="stop-color:#505963"/>
						<stop  offset="1" style="stop-color:#36404B"/>
					</linearGradient>
					<path fill="url(#SVGID_13_)" d="M499.058,111.219c-1.991-9.374-2.3-20.291,1.582-26.977c2.717-4.676,7.385-6.347,9.989-11.183
						c5.796-10.759,5.739-25.683,7.847-39.142c0,0,2.049,6.622,1.757,13.97c0,0,6.573,24.007,1.128,42.341
						c0,0-5.492,14.506-18.425,15.095L499.058,111.219z"/>
					
						<linearGradient id="SVGID_14_" gradientUnits="userSpaceOnUse" x1="1779.4326" y1="-81.021" x2="1788.8866" y2="-93.8512" gradientTransform="matrix(-0.9553 0.2956 0.2956 0.9553 2245.6338 -360.7471)">
						<stop  offset="0" style="stop-color:#3D444D"/>
						<stop  offset="1" style="stop-color:#262C35"/>
					</linearGradient>
					<path fill="url(#SVGID_14_)" d="M496.145,102.654c-0.692-5.482-0.944-13.144,0.142-17.9l2.301,2.803
						c0.033-0.184,0.065-0.368,0.104-0.559l-3.071-7.161c2.581-1.132,5.412-3.377,8.437-4.723c-0.262-0.917-0.528-1.978-0.896-3.161
						l13.271-21.61c-0.138,6.558-0.979,13.471-2.33,19.421c-0.427,1.875-1.044,3.661-1.901,5.146
						c0.287,0.145,0.574,0.302,0.863,0.488c4.327,2.785,2.733,7.525,0.737,10.669c-1.649,2.599-9.638,9.037-13.443,7.926
						c-0.69,2.829-0.982,6.044-0.41,9.221C498.758,103.071,497.398,102.712,496.145,102.654z"/>
					
						<linearGradient id="SVGID_15_" gradientUnits="userSpaceOnUse" x1="1793.2266" y1="-104.1274" x2="1786.2511" y2="-98.7021" gradientTransform="matrix(-0.9553 0.2956 0.2956 0.9553 2245.6338 -360.7471)">
						<stop  offset="0.0055" style="stop-color:#A3AAB5"/>
						<stop  offset="1" style="stop-color:#8C95A3"/>
					</linearGradient>
					<path fill="url(#SVGID_15_)" d="M499.058,111.219c-1.991-9.374-2.3-20.291,1.582-26.977c2.717-4.676,7.385-6.347,9.989-11.183
						c5.796-10.759,5.739-25.683,7.847-39.142c0,0-3.803,19.959-10.626,24.632c-6.822,4.673-18.348,11.655-13.718,35.836
						L499.058,111.219z"/>
					<path fill="#5B6570" d="M518.495,33.93c-1.931,13.771-1.649,30.238-8.179,40.582c-1.725,2.73-4.174,4.416-6.327,6.452
						c-2.186,2.063-3.87,4.7-4.856,8.213c-1.804,6.41-1.246,14.144,0.097,21.593c0.026,0.14,0.051,0.281,0.079,0.421
						c0.087,0.468-0.394,0.524-0.501,0.055c-1.622-6.99-2.079-14.351-0.907-20.665c0.583-3.146,1.715-5.904,3.284-8.089
						c1.845-2.571,4.306-4.188,6.432-6.295c4.22-4.182,6.21-11.576,7.542-18.691c1.306-6.975,1.888-14.368,2.954-21.481
						c0.106-0.711,0.224-1.417,0.343-2.121C518.462,33.871,518.501,33.896,518.495,33.93L518.495,33.93z"/>
				</g>
				<g>
					<g>
						<path fill="#8C95A3" d="M567.568,214.333c0,0-5.504-2.447-11.622-3.059c-6.117-0.61-15.294-13.458-17.741-25.081
							c-2.446-11.623-5.505-45.269-5.505-45.269s-4.282-11.011-15.906-16.517c0,0,0.612-4.894-7.342-8.564
							c0,0-6.727-33.033-42.819-29.363c-36.093,3.67-44.045,26.305-54.444,55.668c-10.398,29.363-3.059,82.585,5.506,95.431
							c8.563,12.846,40.375,28.751,40.375,28.751s16.518,12.846,19.576,18.964c3.057,6.117,16.516,8.564,24.468,4.282
							c7.951-4.282,4.282-12.234,4.282-12.234s18.352,7.952,26.305,9.176c7.952,1.224,13.457,7.341,25.693,3.671
							c12.233-3.671,20.798-10.4,23.857-24.47c3.059-14.071-4.895-42.821-4.895-42.821L567.568,214.333z"/>
						<linearGradient id="SVGID_16_" gradientUnits="userSpaceOnUse" x1="539.5527" y1="212.8501" x2="523.0365" y2="225.6959">
							<stop  offset="0.0055" style="stop-color:#A3AAB5"/>
							<stop  offset="1" style="stop-color:#8C95A3"/>
						</linearGradient>
						<path fill="url(#SVGID_16_)" d="M560.842,221.676c0,0-21.413-6.73-34.259-17.13c-12.847-10.399-20.799,1.224-12.235,20.8
							c8.563,19.574,40.987,33.032,40.987,33.032l17.127-23.856L560.842,221.676z M519.649,198.632l-4.078-7.748
							c-3.016,0.96-10.002,4.019-7.759,8.574C509.724,203.338,515.545,196.771,519.649,198.632z M513.939,189.253l-0.815-4.487
							c-3.112,0.631-8.629,2.426-7.687,6.872C508.688,192.226,511.136,188.311,513.939,189.253z M511.492,182.728l-1.223-4.894
							c-1.704,1.268-3.688,2.859-3.2,5.24C508.55,183.328,510.178,183.199,511.492,182.728z"/>
						<linearGradient id="SVGID_17_" gradientUnits="userSpaceOnUse" x1="495.9678" y1="218.9746" x2="473.5378" y2="253.232">
							<stop  offset="0" style="stop-color:#7A8390"/>
							<stop  offset="0.6243" style="stop-color:#7A8390"/>
							<stop  offset="1" style="stop-color:#8C95A3"/>
						</linearGradient>
						<path fill="url(#SVGID_17_)" d="M468.673,245.125c0,0,20.798-4.486,22.429-19.984c1.632-15.498,11.827-16.721,11.827-16.721
							S508.231,243.901,468.673,245.125z"/>
						<linearGradient id="SVGID_18_" gradientUnits="userSpaceOnUse" x1="525.3594" y1="186.2285" x2="410.3534" y2="186.2285">
							<stop  offset="0" style="stop-color:#7A8390"/>
							<stop  offset="0.6243" style="stop-color:#7A8390"/>
							<stop  offset="1" style="stop-color:#8C95A3"/>
						</linearGradient>
						<path fill="url(#SVGID_18_)" d="M466.463,254.862c-13.15-13.962-21.882-25.061-13.747-44.045
							c4.391-10.251,9.763-20.277,9.636-31.98c-0.121-10.914-5.109-19.33-9.939-28.734c-5.093-9.917-11.436-18.292-16.992-27.528
							c-5.4-8.976-0.275-19.145,5.024-27.688c-15.02,9.816-21.052,26.924-28.256,47.263c-10.398,29.363-3.059,82.585,5.506,95.431
							c8.563,12.846,40.375,28.751,40.375,28.751s7.262,5.65,13.048,11.24c0.836-1.698,1.409-3.603,1.662-5.733
							C473.562,265.25,470.778,259.441,466.463,254.862z"/>
						<path fill="#7A8390" d="M531.477,282.644c-5.301-0.408-19.167-8.563-26.1-13.459c-6.934-4.892-18.761-14.681-35.073-17.942
							c-16.312-3.264-18.353-8.157-26.917-16.721c-8.562-8.564-14.273,2.854-24.062-11.42c-8.503-12.401-9.618-59.272-9.765-71.358
							c-6.27,30.14,0.438,74.292,8.134,85.837c8.563,12.846,40.375,28.751,40.375,28.751s16.518,12.846,19.576,18.964
							c3.057,6.117,16.516,8.564,24.468,4.282c7.951-4.282,4.282-12.234,4.282-12.234s18.352,7.952,26.305,9.176
							c0.75,0.115,1.48,0.274,2.196,0.465C534.295,284.611,533.251,282.779,531.477,282.644z"/>
						<linearGradient id="SVGID_19_" gradientUnits="userSpaceOnUse" x1="454.8057" y1="265.7188" x2="456.8445" y2="269.7967">
							<stop  offset="0" style="stop-color:#5B6570"/>
							<stop  offset="1" style="stop-color:#8C95A3"/>
						</linearGradient>
						<path fill="url(#SVGID_19_)" d="M435.23,237.783c0,0,2.854-3.262,9.788-2.855C445.019,234.928,436.045,227.181,435.23,237.783
							z"/>
						<g>
							
								<radialGradient id="SVGID_20_" cx="759.7793" cy="-80.8403" r="59.5173" gradientTransform="matrix(0.5329 -0.2223 0.315 0.7551 101.5967 355.3689)" gradientUnits="userSpaceOnUse">
								<stop  offset="0.0055" style="stop-color:#A3AAB5"/>
								<stop  offset="1" style="stop-color:#8C95A3"/>
							</radialGradient>
							<path fill="url(#SVGID_20_)" d="M449.325,138.625c10.357,24.822,32.952,39.021,50.469,31.712
								c15.49-6.462,21.813-27.58,15.908-49.546c-0.979-1.549-2.814-3.361-6.25-4.946c0,0-6.727-33.033-42.819-29.363
								c-5.939,0.604-11.112,1.725-15.666,3.302C442.848,101.418,441.701,120.348,449.325,138.625z"/>
							<g>
								
									<radialGradient id="SVGID_21_" cx="737.7617" cy="63.3398" r="63.0446" gradientTransform="matrix(0.4317 0 0 0.4317 164.4871 94.2102)" gradientUnits="userSpaceOnUse">
									<stop  offset="0.0055" style="stop-color:#BEC4CE"/>
									<stop  offset="1" style="stop-color:#A5AEBC"/>
								</radialGradient>
								<path fill="url(#SVGID_21_)" d="M487.808,132.435c-0.312-0.964-1.99-1.286-3.743-0.719c-1.757,0.567-2.923,1.808-2.61,2.772
									c0.314,0.964,1.612,0.121,3.365-0.446C486.576,133.476,488.123,133.399,487.808,132.435z M485.602,122.32
									c-0.421-1.252-2.618-1.668-4.91-0.927c-2.29,0.74-3.809,2.355-3.388,3.606c0.419,1.251,2.11,0.154,4.402-0.585
									C483.996,123.674,486.021,123.571,485.602,122.32z M480.658,112.665c-0.327-0.895-1.94-1.176-3.6-0.628
									c-1.661,0.546-2.74,1.714-2.412,2.609c0.328,0.893,1.544,0.095,3.205-0.451
									C479.513,113.647,480.989,113.558,480.658,112.665z"/>
								<path fill="#747E82" d="M498.868,130.893c-5.09-1.729-10.844-3.113-16.17-1.626c-5.801,1.617-9.352,6.814-11.22,12.251
									c-0.021,0.063,0.073,0.105,0.097,0.042c2.141-5.624,5.763-9.828,11.724-11.333c5.079-1.282,10.534-0.385,15.546,0.754
									C498.895,130.991,498.917,130.909,498.868,130.893z M495.979,120.452c0.135,0.022,0.192-0.182,0.065-0.232
									c-11.635-4.607-26.259,0.026-32.279,11.117c-0.01,0.017,0.017,0.028,0.026,0.012c3.075-5.555,8.319-8.827,14.291-10.569
									C483.936,119.071,490.048,119.45,495.979,120.452z"/>
							</g>
						</g>
						<linearGradient id="SVGID_22_" gradientUnits="userSpaceOnUse" x1="442.3799" y1="170.5254" x2="476.9434" y2="197.1362">
							<stop  offset="0" style="stop-color:#5B6570"/>
							<stop  offset="1" style="stop-color:#8C95A3"/>
						</linearGradient>
						<path fill="url(#SVGID_22_)" d="M442.164,205.77c0,0-3.672-32.422,14.375-42.821c18.048-10.4,37.928,9.787,43.739,29.363
							L442.164,205.77z"/>
						<linearGradient id="SVGID_23_" gradientUnits="userSpaceOnUse" x1="501.3154" y1="139.1104" x2="524.1967" y2="156.7269">
							<stop  offset="0" style="stop-color:#5B6570"/>
							<stop  offset="1" style="stop-color:#8C95A3"/>
						</linearGradient>
						<path fill="url(#SVGID_23_)" d="M513.43,172.736c0,0-11.011-37.621-0.611-42.209c10.399-4.587,19.882,11.317,19.882,11.317
							l-6.424,29.057L513.43,172.736z"/>
						<linearGradient id="SVGID_24_" gradientUnits="userSpaceOnUse" x1="534.8359" y1="246.4473" x2="578.7609" y2="269.2542">
							<stop  offset="0" style="stop-color:#5B6570"/>
							<stop  offset="1" style="stop-color:#8C95A3"/>
						</linearGradient>
						<path fill="url(#SVGID_24_)" d="M577.356,222.898l-9.788-8.565c0,0-5.504-2.447-11.622-3.059
							c-3.834-0.383-8.865-5.57-12.693-12.248c-3.669,0.207-13.034,2.561-5.967,10.719c3.449,3.978,9.188,6.327,11.913,11.251
							c2.871,5.187,0.019,11.416,0.019,17.194c0,10.158,6.92,25.42,0.627,34.562c-8.535,12.399-19.778,9.541-31.391,4.343
							c-10.623-4.755-20.979-10.503-30.717-16.884c-8.868-5.811-23.245-8.257-31.503-9.48c-7.035-1.043-13.178-8.735-14.845-10.996
							c-0.83-1.794-1.649-3.79-2.489-6.03c0,0,1.122,13.968,13.051,21.921c11.93,7.951,24.776,23.244,28.751,27.526
							c3.977,4.281,19.882,9.788,22.329-3.364l4.19,2.347c0.156-2.655-0.826-4.793-0.826-4.793s18.352,7.952,26.305,9.176
							c7.952,1.224,13.457,7.341,25.693,3.671c12.233-3.671,20.798-10.4,23.857-24.47
							C585.31,251.648,577.356,222.898,577.356,222.898z M473.362,239.109c22.022-1.836,28.14-14.071,29.057-30.587l-58.42,4.282
							C443.999,212.804,451.339,240.943,473.362,239.109z M541.66,196.013c-1.542-3.169-2.766-6.542-3.455-9.819
							c-0.232-1.104-0.47-2.407-0.711-3.86l-4.183,0.19l-5.505,22.634C527.807,205.158,537.419,202.109,541.66,196.013z"/>
						<linearGradient id="SVGID_25_" gradientUnits="userSpaceOnUse" x1="557.8203" y1="257.9043" x2="585.1445" y2="286.044">
							<stop  offset="0" style="stop-color:#5B6570"/>
							<stop  offset="1" style="stop-color:#8C95A3"/>
						</linearGradient>
						<path fill="url(#SVGID_25_)" d="M582.251,265.72c1.312-6.036,0.598-14.772-0.647-22.781l-29.327-5.971
							c0,0,0.003,29.293,21.229,35.248c-1.015,13.127-16.85,17.959-21.55,19.108c1.938-0.082,4.06-0.423,6.438-1.135
							C570.627,286.519,579.191,279.789,582.251,265.72z"/>
						<path fill="#7C8696" d="M506.601,114.621l-2.04,2.244c6.413-0.844,9.751,4.316,10.712,6.12
							c-4.6,0.437-9.284,2.445-9.284,2.445c6.87-0.891,13.266,1.235,17.102,2.96c-1.803-1.465-3.89-2.841-6.296-3.98
							c0,0,0.612-4.894-7.342-8.564c0,0-5.751-28.225-35.13-29.592C501.067,89.647,506.601,114.621,506.601,114.621z"/>
						<linearGradient id="SVGID_26_" gradientUnits="userSpaceOnUse" x1="532.5527" y1="258.291" x2="535.6115" y2="268.9966">
							<stop  offset="0.0055" style="stop-color:#A3AAB5"/>
							<stop  offset="1" style="stop-color:#8C95A3"/>
						</linearGradient>
						<path fill="url(#SVGID_26_)" d="M529.947,273.062c-3.58-2.129-7.956-5.273-6.194-9.856c1.688-4.385,6.4-5.791,10.789-5.141
							c3.808,0.566,7.444,3.582,9.865,6.677c2.044,2.614,6.059,9.329-0.696,8.32H529.947z"/>
						<g>
							<linearGradient id="SVGID_27_" gradientUnits="userSpaceOnUse" x1="534.4482" y1="262.791" x2="543.014" y2="281.5544">
								<stop  offset="0" style="stop-color:#5B6570"/>
								<stop  offset="1" style="stop-color:#8C95A3"/>
							</linearGradient>
							<path fill="url(#SVGID_27_)" d="M534.738,274.896c0,0,5.914,2.038,14.071-2.04c0,0-5.099-6.729-7.546-6.934
								c-2.446-0.203-7.952-0.407-8.769-0.203c-0.814,0.203-4.894,3.467-4.894,3.467s1.429,2.854,3.264,3.875L534.738,274.896z"/>
							<g>
								<linearGradient id="SVGID_28_" gradientUnits="userSpaceOnUse" x1="533.373" y1="263.2852" x2="541.9362" y2="282.0427">
									<stop  offset="0" style="stop-color:#434A52"/>
									<stop  offset="1" style="stop-color:#737A85"/>
								</linearGradient>
								<path fill="url(#SVGID_28_)" d="M543.551,267.433c-1.61-1.394-3.39-2.645-5.253-3.483c1.386,1.241,2.076,2.588,1.253,3.931
									c-1.696,2.767-12.991,0.855-10.521-3.587l-0.003-0.017c-1.646,1.119-2.027,2.612-1.625,4.124l0.607,0.786
									c0,0,5.507,4.894,10.808,4.077C544.06,272.458,544.911,269.856,543.551,267.433z"/>
								<path d="M539.551,267.88c0.823-1.343,0.133-2.689-1.253-3.931c-2.304-1.035-4.734-1.439-7.127-0.677
									c-0.876,0.281-1.582,0.621-2.144,1.004l0.003,0.017C526.56,268.735,537.854,270.646,539.551,267.88z"/>
							</g>
							<path fill="#1E2B2B" d="M547.987,271.533c0.18,0.407,0.31,0.55,0.525,0.835c-0.312-0.411-0.634-0.812-0.957-1.215
								c-0.71-0.885-1.434-1.748-2.209-2.582c-1.562-1.677-3.337-3.163-5.305-4.341c-3.312-1.983-7.635-2.825-11.08-0.63
								c-2.535,1.613-2.85,4.286-1.28,6.737c1.631,2.548,4.77,4.37,7.753,4.686c0.165,0.017,0.201-0.229,0.036-0.256
								c-4.061-0.657-11.343-7.441-5.256-10.475c6.737-3.359,14.255,3.878,18.263,8.558c0.17,0.199,0.425-0.126,0.19-0.243
								c-0.375-0.191-0.512-0.733-0.67-1.079C547.995,271.523,547.986,271.526,547.987,271.533L547.987,271.533z"/>
						</g>
						<g>
							<path fill="#414D5A" d="M498.745,272.817c-9.692-6.623-20.25-14.38-31.295-16.274c-9.391-1.528-15.157-3.289-19.424-7.1
								c0,0,3.925,4.652,12.896,9.546c8.974,4.896,19.577,28.142,32.627,26.51c0,0,8.971-0.408,6.522-10.603L498.745,272.817z"/>
							<g>
								<path d="M485.569,264.065c-5.84-3.533-11.903-6.456-18.119-7.522c-9.391-1.528-15.157-3.289-19.424-7.1
									c0,0,3.925,4.652,12.896,9.546c3.762,2.051,7.809,7.326,12.201,12.644h10.842
									C483.966,271.633,486.275,268.37,485.569,264.065z"/>
								<g>
									<path fill="#E66B80" d="M477.34,268.778c-3.153-2.952-6.554-2.865-8.577-2.427c7.188,8.492,15.347,20.328,24.787,19.147
										c0,0,1.181-0.057,2.567-0.61C491.622,267.304,477.34,268.778,477.34,268.778z"/>
									<path fill="#F08395" d="M493.55,285.499c0,0,0.989-0.052,2.217-0.483c-3.901-12.573-16.286-14.606-16.286-14.606
										l0.813,4.282c-4.09-7.235-8.056-6.705-9.655-6.085C477.363,276.784,484.921,286.577,493.55,285.499z"/>
									
										<ellipse transform="matrix(0.9874 0.1583 -0.1583 0.9874 51.0093 -73.9384)" fill="#FFACB8" cx="489.674" cy="283.256" rx="2.243" ry="0.917"/>
								</g>
							</g>
						</g>
						<path fill="#1E2B2B" d="M438.868,233.719c1.9,5.223,3.91,10.664,7.716,14.842c3.245,3.562,7.647,5.456,12.216,6.715
							c3.279,0.902,6.635,1.348,9.955,2.042c4.054,0.85,7.908,2.511,11.574,4.396c7.508,3.864,14.293,9.015,21.352,13.615
							c1.693,1.104,3.429,2.156,5.177,3.175c0.367,0.213,0.746-0.422,0.382-0.64c-6.975-4.174-13.357-9.27-20.264-13.56
							c-3.425-2.126-6.965-4.073-10.68-5.643c-3.546-1.497-7.165-2.327-10.94-2.991c-5.484-0.963-11.153-2.225-15.767-5.504
							c-4.426-3.144-7.057-8.14-9.195-12.988c-0.507-1.15-1.002-2.313-1.46-3.486C438.917,233.649,438.852,233.676,438.868,233.719
							L438.868,233.719z"/>
					</g>
					<g>
						<linearGradient id="SVGID_29_" gradientUnits="userSpaceOnUse" x1="584.1084" y1="207.1152" x2="601.8488" y2="237.0904">
							<stop  offset="0" style="stop-color:#D6D8DE"/>
							<stop  offset="1" style="stop-color:#BCC0C9"/>
						</linearGradient>
						<path fill="url(#SVGID_29_)" d="M561.453,215.557c0,0-11.624,13.459-7.954,26.305c3.671,12.846,14.682,25.081,24.469,26.305
							c9.789,1.224,39.15-11.012,47.716-39.15c8.565-28.14-3.67-50.774-7.342-50.163c-3.67,0.612-4.282,17.128-19.575,25.693
							C583.475,213.11,566.346,210.665,561.453,215.557z"/>
						<linearGradient id="SVGID_30_" gradientUnits="userSpaceOnUse" x1="618.4863" y1="249.8828" x2="605.0284" y2="234.5897">
							<stop  offset="0" style="stop-color:#CFD1D8"/>
							<stop  offset="1" style="stop-color:#B6BAC4"/>
						</linearGradient>
						<path fill="url(#SVGID_30_)" d="M577.968,268.166c9.789,1.224,39.15-11.012,47.716-39.15
							c8.565-28.14-3.67-50.774-7.342-50.163c-0.152,0.026-0.298,0.088-0.441,0.167c1.001,3.389,2.894,7.39,3.47,10.265
							c0.936,4.668,1.716,9.516,1.255,14.65c-1.002,11.114-6.733,18.706-16.519,23.858c-9.842,5.178-21.335,7.578-29.837,14.68
							c-2.146,1.791-7.584,10.021-9.896,10.457c-2.898,0.549-7.437-2.698-11.17-6.297
							C559.904,257.597,569.405,267.097,577.968,268.166z"/>
						<linearGradient id="SVGID_31_" gradientUnits="userSpaceOnUse" x1="617.2666" y1="248.4951" x2="604.2728" y2="233.7294">
							<stop  offset="0" style="stop-color:#C6C8D1"/>
							<stop  offset="1" style="stop-color:#ADB2BD"/>
						</linearGradient>
						<path fill="url(#SVGID_31_)" d="M618.342,178.853c-0.152,0.026-0.298,0.088-0.441,0.167c1.001,3.389,2.894,7.39,3.47,10.265
							c0.936,4.668,1.716,9.516,1.255,14.65c-1.002,11.114-6.733,18.706-16.519,23.858c-9.842,5.178-21.335,7.578-29.837,14.68
							c-2.146,1.791-7.584,10.021-9.896,10.457c-2.898,0.549-7.437-2.698-11.17-6.297c4.425,10.319,13.101,19.337,21.244,21.255
							c-1.56-3.606-5.889-15.409,0.093-23.782c7.137-9.991,30.791-9.176,41.188-21.615c10.4-12.438,5.916-34.461,5.916-34.461
							s12.06,26.162-5.061,55.653c2.956-4.298,5.427-9.175,7.099-14.667C634.249,200.876,622.014,178.241,618.342,178.853z"/>
						<linearGradient id="SVGID_32_" gradientUnits="userSpaceOnUse" x1="586.8447" y1="209.8149" x2="596.4282" y2="227.5553">
							<stop  offset="0" style="stop-color:#E6E7EB"/>
							<stop  offset="1" style="stop-color:#CFD2D9"/>
						</linearGradient>
						<path fill="url(#SVGID_32_)" d="M555.641,234.215c0,0,1.529-15.598,8.259-17.74c6.728-2.141,42.208-1.224,53.83-33.339
							c0,0-0.304,14.681-21.41,30.892C575.215,230.239,556.864,248.285,555.641,234.215z"/>
					</g>
					<g>
						<linearGradient id="SVGID_33_" gradientUnits="userSpaceOnUse" x1="546.0361" y1="192.5576" x2="564.3867" y2="201.7329">
							<stop  offset="0" style="stop-color:#D6D8DE"/>
							<stop  offset="1" style="stop-color:#BCC0C9"/>
						</linearGradient>
						<path fill="url(#SVGID_33_)" d="M557.781,213.722c0,0-7.34,1.835-12.847-1.224c-5.506-3.057-11.011-6.729-6.117-11.622
							c4.894-4.895,16.518-14.07,19.576-22.635C558.394,178.241,568.792,181.912,557.781,213.722z"/>
						<linearGradient id="SVGID_34_" gradientUnits="userSpaceOnUse" x1="566.1133" y1="200.8203" x2="554.4891" y2="196.5377">
							<stop  offset="0" style="stop-color:#CFD1D8"/>
							<stop  offset="1" style="stop-color:#B6BAC4"/>
						</linearGradient>
						<path fill="url(#SVGID_34_)" d="M557.781,213.722c9.412-27.19,3.181-33.82,1.173-35.172
							c0.429,7.021-0.283,14.283-4.828,19.895c-2.495,3.079-5.646,6.375-7.949,9.146c-2.334,2.807-0.24,2.81-3.603,3.539
							c0.768,0.471,1.562,0.927,2.36,1.369C550.441,215.557,557.781,213.722,557.781,213.722z"/>
						<linearGradient id="SVGID_35_" gradientUnits="userSpaceOnUse" x1="563.7949" y1="209.5195" x2="557.1528" y2="201.9717">
							<stop  offset="0" style="stop-color:#C6C8D1"/>
							<stop  offset="1" style="stop-color:#ADB2BD"/>
						</linearGradient>
						<path fill="url(#SVGID_35_)" d="M558.954,178.55c0.429,7.021-0.283,14.283-4.828,19.895c-2.495,3.079-5.646,6.375-7.949,9.146
							c-2.334,2.807-0.24,2.81-3.603,3.539c0.768,0.471,1.562,0.927,2.36,1.369c4.19,2.328,9.436,1.823,11.709,1.446
							c-3.065-0.955-10.176-3.608-8.242-7.155c2.448-4.486,7.545-6.118,9.788-12.643c2.243-6.524,2.652-11.011,2.652-11.011
							s1.647,5.593,1.541,12.663C564.108,183.325,560.415,179.534,558.954,178.55z"/>
						<linearGradient id="SVGID_36_" gradientUnits="userSpaceOnUse" x1="546.8652" y1="193.5605" x2="554.6154" y2="198.6593">
							<stop  offset="0" style="stop-color:#E6E7EB"/>
							<stop  offset="1" style="stop-color:#CFD2D9"/>
						</linearGradient>
						<path fill="url(#SVGID_36_)" d="M538.614,205.566c0,0-1.836-2.447,2.446-5.098s13.662-13.866,16.518-18.352
							c0,0-4.487,8.973-7.341,13.254C547.383,199.652,541.469,212.907,538.614,205.566z"/>
					</g>
				</g>
			</g>
			<g>
				<g>
					<g>
						<path d="M527.696,139.018c-6.829,0-15.214,9.582-14.267,28.551c1.365-0.623,3.391-0.965,6.262-0.131
							c5.625,1.633,16.893,22.438,19.352,27.092c2.914-4.789,4.857-11.267,5.495-21.321
							C545.787,153.55,534.767,139.018,527.696,139.018z"/>
						<path d="M540.955,154.763c0,0,4.703-3.272,6.339-6.544c0,0-1.43,4.907-5.315,8.588L540.955,154.763z"/>
						<path fill="#FFFFFF" d="M528.075,205.265c0,0-12.882-14.722-14.517-34.145c-1.637-19.425,6.952-29.24,13.902-29.24
							c6.951,0.001,17.789,13.905,16.562,32.714C542.798,193.405,536.661,199.131,528.075,205.265z"/>
						<g>
							<path d="M514.795,169.123c0.432,10.92,5.69,19.729,11.745,19.68c6.055-0.049,10.611-8.941,10.178-19.859
								c-0.435-10.919-5.695-19.731-11.751-19.681C518.915,149.311,514.357,158.204,514.795,169.123z"/>
							
								<linearGradient id="SVGID_37_" gradientUnits="userSpaceOnUse" x1="254.7871" y1="154.8896" x2="232.5405" y2="138.9301" gradientTransform="matrix(-0.9997 0.0283 0.0283 0.9996 767.7368 15.5181)">
								<stop  offset="0" style="stop-color:#404040"/>
								<stop  offset="1" style="stop-color:#000000"/>
							</linearGradient>
							<path fill="url(#SVGID_37_)" d="M514.795,169.123c-0.071-1.697-0.016-3.344,0.144-4.918c0.486-1.85,1.211-3.456,2.176-4.662
								c3.546-4.445,8.951-1.808,12.072,5.89c3.122,7.697,2.777,17.54-0.766,21.984c-0.458,0.571-0.945,1.023-1.453,1.365
								c-0.143,0.012-0.282,0.019-0.428,0.021C520.485,188.852,515.227,180.042,514.795,169.123z"/>
							<path fill="#7995A7" d="M518.979,180.145c0.056,1.356,0.712,2.453,1.463,2.445c0.749-0.006,1.317-1.111,1.264-2.468
								c-0.054-1.357-0.707-2.452-1.46-2.447C519.493,177.682,518.927,178.787,518.979,180.145z"/>
							<path fill="#90FFC0" d="M526.861,154.401c-0.873,1.849,0.66,3.691,2.369,6.351c1.706,2.658,2.943,5.123,3.817,3.271
								c0.87-1.851,0.192-5.505-1.516-8.162S527.73,152.55,526.861,154.401z"/>
						</g>
					</g>
					<g>
						<path d="M520.372,134.111c0,0-0.885-2.931-4.771-3.407c-1.551-0.19-2.749,0.913-4.178,0.883
							c-1.052-0.021-2.343-0.862-1.909-2.029c0.658-1.773,3.596-1.725,5.05-1.402C517.543,128.819,519.604,131.229,520.372,134.111z
							"/>
						<path fill="#7995A7" d="M513.399,128.728c0.126,0.394-0.545,0.599-1.373,0.857c-0.824,0.259-1.494,0.475-1.619,0.08
							c-0.123-0.396,0.446-0.925,1.273-1.185C512.506,128.221,513.276,128.333,513.399,128.728z"/>
					</g>
				</g>
				<g>
					<g>
						<path d="M451.939,171.581c0,0-0.444-3.438,4.021-6.4c1.785-1.184,3.812-0.874,5.53-1.82c1.263-0.698,2.397-2.352,1.265-3.215
							c-1.717-1.312-5.254,0.623-6.854,1.874C452.629,164.583,451.379,168.266,451.939,171.581z"/>
						<path fill="#7995A7" d="M457.61,161.831c0.052,0.466,0.974,0.237,2.111-0.041c1.137-0.277,2.057-0.497,2.003-0.962
							c-0.055-0.466-1.021-0.619-2.156-0.343C458.432,160.761,457.555,161.365,457.61,161.831z"/>
					</g>
					<g>
						<ellipse cx="471.438" cy="202.439" rx="29.442" ry="32.118"/>
						<path d="M443.632,205.878c0,0-8.587,1.227-13.29,0c0,0,6.337,2.659,13.902,1.841c7.567-0.819,4.295-2.454,4.295-2.454
							L443.632,205.878z"/>
						<ellipse fill="#FFFFFF" cx="473.278" cy="204.446" rx="29.238" ry="31.896"/>
						<g>
							<path d="M449.705,198.696c-0.368,11.152,7.597,20.46,17.789,20.796c10.195,0.338,18.76-8.429,19.126-19.577
								c0.365-11.15-7.598-20.462-17.793-20.798C458.634,178.781,450.071,187.548,449.705,198.696z"/>
							
								<linearGradient id="SVGID_38_" gradientUnits="userSpaceOnUse" x1="310.7935" y1="198.6572" x2="281.7117" y2="177.7943" gradientTransform="matrix(-0.9995 -0.0329 -0.0329 0.9995 772.5601 20.1924)">
								<stop  offset="0" style="stop-color:#404040"/>
								<stop  offset="1" style="stop-color:#000000"/>
							</linearGradient>
							<path fill="url(#SVGID_38_)" d="M449.705,198.696c0.055-1.731,0.312-3.407,0.738-4.999c1.004-1.854,2.388-3.443,4.129-4.61
								c6.416-4.299,15.25-1.269,19.729,6.771c4.479,8.041,2.907,18.043-3.506,22.343c-0.824,0.554-1.688,0.984-2.579,1.299
								c-0.239,0.002-0.479,0-0.723-0.008C457.302,219.156,449.337,209.848,449.705,198.696z"/>
							
								<ellipse transform="matrix(-0.9995 -0.0329 0.0329 -0.9995 908.7146 435.4813)" fill="#7995A7" cx="457.939" cy="210.267" rx="2.294" ry="2.511"/>
							<path fill="#90FFC0" d="M471.493,184.472c-1.647,1.829,0.742,3.805,3.351,6.621c2.607,2.816,4.441,5.407,6.097,3.576
								c1.651-1.83,0.876-5.596-1.729-8.412C476.604,183.443,473.146,182.643,471.493,184.472z"/>
						</g>
					</g>
				</g>
			</g>
		</g>
	</g>
</g>
</svg>
