<svg version="1.1" id="Layer_1" xmlns="http://www.w3.org/2000/svg" xmlns:xlink="http://www.w3.org/1999/xlink" viewBox="0 0 768 430" enable-background="new 0 0 768 430" xml:space="preserve">
<g>
	<polygon fill="#F175AD" points="271.229,86.275 271.229,86.275 495.971,86.275 495.971,54.198 271.229,54.198 	"/>
	<g>
		<defs>
			<path id="SVGID_1_" d="M271.229,86.275c0,0-116.769,102.754-151.229,253.609c0,0,25.038,51.225,65.289,33.967
				c40.247-17.256,55.748-11.504,71.611,0c15.862,11.504,57.038,43.416,91.798,33.141c34.76-10.279,40.565-46.236,86.302-23.773
				c26.463,12.998,60.057,24.529,82.009,14.252c21.955-10.277,27.443-57.586,47.568-46.082
				c20.123,11.502,58.541,40.953,93.301-3.836c0,0-65.859-183.679-161.906-261.352L271.229,86.275z"/>
		</defs>
		<clipPath id="SVGID_2_">
			<use xlink:href="#SVGID_1_"  overflow="visible"/>
		</clipPath>
		<path clip-path="url(#SVGID_2_)" fill="#F49AC1" d="M271.229,86.275c0,0-116.769,102.754-151.229,253.609
			c0,0,25.038,51.225,65.289,33.967c40.247-17.256,55.748-11.504,71.611,0c15.862,11.504,57.038,43.416,91.798,33.141
			c34.76-10.279,40.565-46.236,86.302-23.773c26.463,12.998,60.057,24.529,82.009,14.252c21.955-10.277,27.443-57.586,47.568-46.082
			c20.123,11.502,58.541,40.953,93.301-3.836c0,0-65.859-183.679-161.906-261.352L271.229,86.275z"/>
		<path clip-path="url(#SVGID_2_)" fill="#F390BB" d="M293.813,86.275h10.591c0,0-45.094,90.363-42.606,84.951
			C264.286,165.815,293.813,86.275,293.813,86.275z"/>
		<polygon clip-path="url(#SVGID_2_)" fill="#F390BB" points="355.746,77.802 360.32,148.198 366.455,77.976 		"/>
		<polygon clip-path="url(#SVGID_2_)" fill="#F390BB" points="466.895,85.178 490.102,147.656 491.592,151.666 479.243,86.596 		"/>
		<path clip-path="url(#SVGID_2_)" fill="#F390BB" d="M421.397,76.465c0,0,3.664,87.238,3.664,84.362
			c0-2.875,4.574-84.881,4.574-84.881L421.397,76.465z"/>
		<path clip-path="url(#SVGID_2_)" fill="#F390BB" d="M251.795,370.382l-10.864-99.369l-38.428,96.35
			C202.502,367.362,222.725,350.403,251.795,370.382z"/>
		<path clip-path="url(#SVGID_2_)" fill="#F390BB" d="M388.938,382.063l18.288-93.332l18.289,90.441
			C425.516,379.173,409.223,367.095,388.938,382.063z"/>
		<path clip-path="url(#SVGID_2_)" fill="#F390BB" d="M574.596,357.347l-39.718-68.615l4.296,81.65
			C539.174,370.382,545.516,336.319,574.596,357.347z"/>
		<path clip-path="url(#SVGID_2_)" fill="#FFFFFF" d="M570.722,248.237c-6.812-7.984-21.796-3.443-19.071,5.184
			c2.724,8.627,15.894,0,15.894,0s-18.038,7.678-6.522,14.055c11.517,6.379,12.425-11.691,12.425-11.691s-0.908,15.738,6.812,11.455
			c7.719-4.283-1.817-15.809-1.817-15.809s11.807,8.078,13.623-0.414c1.817-8.494-16.347-4.582-16.347-4.582
			s4.795-12.121-3.958-12.783C563.004,232.987,570.722,248.237,570.722,248.237z"/>
		<path clip-path="url(#SVGID_2_)" fill="#FFFFFF" d="M320.687,168.448c7.167-5.433,4.022-18.479-3.493-16.574
			c-7.518,1.905-0.786,13.598-0.786,13.598s-5.674-15.812-11.703-6.275c-6.028,9.538,9.391,11.208,9.391,11.208
			s-13.422-1.555-10.139,5.261c3.282,6.816,13.616-0.772,13.616-0.772s-7.496,9.7-0.319,11.674
			c7.176,1.974,4.729-13.758,4.729-13.758s10.132,4.702,11.132-2.755C334.115,162.598,320.687,168.448,320.687,168.448z"/>
		<path clip-path="url(#SVGID_2_)" fill="#FFFFFF" d="M469.343,246.835c7.167-5.432,4.024-18.479-3.491-16.574
			c-7.518,1.904-0.786,13.598-0.786,13.598s-5.676-15.811-11.704-6.273c-6.026,9.537,9.391,11.207,9.391,11.207
			s-13.421-1.555-10.14,5.262c3.282,6.816,13.617-0.773,13.617-0.773s-7.496,9.701-0.32,11.676c7.178,1.975,4.729-13.76,4.729-13.76
			s10.132,4.703,11.132-2.754C482.772,240.983,469.343,246.835,469.343,246.835z"/>
		<path clip-path="url(#SVGID_2_)" fill="#FFFFFF" d="M338.174,353.153c10.09-7.648,5.666-26.012-4.916-23.332
			c-10.581,2.682-1.105,19.143-1.105,19.143s-7.991-22.26-16.475-8.832c-8.486,13.426,13.218,15.779,13.218,15.779
			s-18.893-2.191-14.272,7.404s19.167-1.088,19.167-1.088s-10.552,13.656-0.449,16.438c10.103,2.777,6.657-19.371,6.657-19.371
			s14.266,6.621,15.672-3.879C357.079,344.919,338.174,353.153,338.174,353.153z"/>
		<path clip-path="url(#SVGID_2_)" fill="#FFFFFF" d="M235.47,131.472c2.415,8.419,15.367,10.15,16.28,2.655
			c0.912-7.495-12.073-5.493-12.073-5.493s16.355,0.403,9.812-8.423c-6.544-8.826-13.48,4.588-13.48,4.588s6.13-11.641-1.215-11.057
			c-7.342,0.585-4.083,12.637-4.083,12.637s-6.176-10.218-10.491-4.395c-4.315,5.824,10.832,9.131,10.832,9.131
			s-7.831,7.549-1.41,11.079C236.062,145.724,235.47,131.472,235.47,131.472z"/>
		<path clip-path="url(#SVGID_2_)" fill="#FFFFFF" d="M147.199,323.931c2.416,8.42,15.367,10.148,16.281,2.654
			c0.912-7.496-12.075-5.494-12.075-5.494s16.355,0.404,9.812-8.424c-6.543-8.822-13.479,4.59-13.479,4.59
			s6.129-11.641-1.215-11.057c-7.344,0.586-4.085,12.637-4.085,12.637s-6.176-10.217-10.49-4.395
			c-4.314,5.824,10.834,9.131,10.834,9.131s-7.832,7.549-1.41,11.08C147.793,338.185,147.199,323.931,147.199,323.931z"/>
		<path clip-path="url(#SVGID_2_)" fill="#EF5DA2" d="M455.214,145.851c-1.61-6.341-15.567-12.446-17.715,0
			c-2.146,12.447,15.569,6.467,15.569,6.467s-10.2,8.82-3.759,13.305c6.441,4.486,9.662-12.477,9.662-12.477
			s5.369,18.729,11.275,12.477c5.904-6.251,5.904-6.251,5.904-6.251l-12.348-10.762c0,0,15.567,5.73,15.032-2.759
			c-0.539-8.489-15.569-1.893-15.569-1.893s5.203-12.378-5.184-14.319C447.699,127.7,455.214,145.851,455.214,145.851z"/>
		<path clip-path="url(#SVGID_2_)" fill="#EF5DA2" d="M302.588,256.253c0.814-6.492-9.954-17.27-16.494-6.461
			c-6.539,10.809,12.137,11.699,12.137,11.699s-12.714,4.492-8.351,11.018c4.361,6.525,13.546-8.094,13.546-8.094
			s-1.831,19.398,5.946,15.73c7.78-3.668,7.78-3.668,7.78-3.668l-7.572-14.521c0,0,12.406,11.012,15,2.912
			c2.597-8.1-13.803-7.441-13.803-7.441s9.357-9.629,0.396-15.223C302.212,236.612,302.588,256.253,302.588,256.253z"/>
		<path clip-path="url(#SVGID_2_)" fill="#EF5DA2" d="M199.994,221.122c6.111,2.342,19.146-5.545,10.214-14.474
			c-8.932-8.931-14.259,8.992-14.259,8.992s-1.327-13.417-8.706-10.74c-7.379,2.677,4.625,15.087,4.625,15.087
			s-18.399-6.411-16.695,2.02c1.704,8.43,1.704,8.43,1.704,8.43l15.912-3.887c0,0-13.657,9.418-6.411,13.871
			c7.246,4.457,10.522-11.627,10.522-11.627s7.116,11.385,14.688,4.018C219.159,225.446,199.994,221.122,199.994,221.122z"/>
		<path clip-path="url(#SVGID_2_)" fill="#EF5DA2" d="M540.663,131.585c6.111,2.34,19.146-5.544,10.214-14.475
			c-8.934-8.93-14.26,8.993-14.26,8.993s-1.327-13.418-8.705-10.742c-7.379,2.678,4.625,15.088,4.625,15.088
			s-18.397-6.41-16.695,2.019c1.704,8.43,1.704,8.43,1.704,8.43l15.911-3.885c0,0-13.655,9.417-6.41,13.871
			c7.245,4.456,10.522-11.627,10.522-11.627s7.115,11.384,14.687,4.019C559.829,135.909,540.663,131.585,540.663,131.585z"/>
		<path clip-path="url(#SVGID_2_)" fill="#EF5DA2" d="M637.049,334.319c3.521,1.348,11.032-3.195,5.885-8.342
			c-5.147-5.145-8.216,5.184-8.216,5.184s-0.766-7.732-5.019-6.189c-4.25,1.543,2.668,8.693,2.668,8.693s-10.603-3.693-9.622,1.164
			c0.981,4.855,0.981,4.855,0.981,4.855l9.169-2.236c0,0-7.867,5.426-3.692,7.992s6.062-6.701,6.062-6.701s4.101,6.561,8.464,2.316
			C648.091,336.812,637.049,334.319,637.049,334.319z"/>
		<path clip-path="url(#SVGID_2_)" fill="#EF5DA2" d="M484.633,352.677c6.109,2.34,19.145-5.545,10.212-14.477
			c-8.932-8.93-14.258,8.992-14.258,8.992s-1.328-13.418-8.706-10.74c-7.379,2.678,4.625,15.088,4.625,15.088
			s-18.399-6.408-16.693,2.018c1.702,8.432,1.702,8.432,1.702,8.432l15.911-3.887c0,0-13.656,9.42-6.41,13.873
			c7.245,4.455,10.522-11.629,10.522-11.629s7.114,11.387,14.687,4.02C503.797,357.001,484.633,352.677,484.633,352.677z"/>
	</g>
</g>
</svg>
