<svg xmlns="http://www.w3.org/2000/svg" viewBox="0 0 768 430"><style>.a{fill:#FFF;}.b{fill:none;}.c{fill:#BFBFBF;}.d{fill:#7F7F7F;}.e{fill:#FFA019;}.f{fill:#BD5000;}.g{fill:#DDD9D9;}.h{fill:#BF0000;}.i{fill:#6D0014;}.j{fill:#003197;}.k{fill:#00003C;}.l{fill:#8C8C8C;}.m{fill:#2E3191;}.n{fill:#00079F;}.o{fill:#FF8503;}.p{fill:#943403;}.q{fill:#900000;}.r{fill:#D3655F;}</style><path d="M314.4 101.9c0.8-4 2.4-7.5 4.6-10 1.8-2 3.9-2.5 5.9-2.6 1.7 1.4 1.6 4.5 1.6 7.9 -0.7-0.6-1.4-0.9-2.3-1 -3.4-0.2-6.7 4.2-7.5 9.9 -0.4 3.3 1 5.8 1.8 7.8 -0.6 0-1.8 0.5-2.5 0.6 -0.1 0-0.2-0.7-0.3-0.6C314.1 110.7 313.5 106.7 314.4 101.9z" class="a"/><path d="M364.8 361.4c-0.1 0-0.1-0.1-0.2-0.1 -1.6-0.8-3-1.6-4.1-1.8 -0.8 1.4-1.9 3-3.1 4.4C360.5 363.7 363.3 363 364.8 361.4z" class="b"/><path d="M364.6 350.1c-0.4-4.5-1.1-9.3-2.4-13.6 -0.8 4.9-1.6 9.6-2.3 13 0.7 0.2 1.3 0.4 2 0.5C362.8 350.2 363.7 350.2 364.6 350.1z" class="b"/><path d="M316.4 103.2c0.8-3 2.4-5.3 4.1-6.4 1.1-3 2.6-5.5 4.4-7 0 0-0.1 0-0.1 0 -0.5-0.1-1-0.1-1.5 0 -3.7 0.5-7.3 5.4-8.7 11.5 -0.8 3.5-0.7 6.9 0.2 9.7 0.3 1.1 0.8 2 1.3 2.7 0.3-0.2 0.7-0.3 1-0.5 0-0.2 0-0.5 0.1-0.7C315.8 110.5 315.4 106.9 316.4 103.2z" class="b"/><path d="M382.5 354c-1-0.2-2-0.2-3 0 0.5 1.3 0.7 2.7 0.6 4.1 0 1.2-0.3 2.3-0.7 3.2 0.4 0 0.7 0.1 1.1 0.1 2.2 0 4.1-0.7 6-1.3 0.8-0.3 1.6-0.5 2.4-0.7C387.9 356.1 385.1 354.5 382.5 354z" class="c"/><path d="M379.5 354c1-0.1 2-0.1 3 0 2.6 0.4 5.3 2.1 6.3 5.3 0.3-0.1 0.6-0.2 0.9-0.2 -1.1-3.6-4.2-5.4-7.1-5.9 -1.2-0.2-2.3-0.2-3.5 0C379.3 353.4 379.4 353.7 379.5 354z" class="d"/><path d="M358.6 339.8c-0.1 0-2 0.5-4.5 0 -1.6-0.3-3.5-0.9-5.3-2.2 -0.3 2.8-0.6 5.3-1 7.5 4.9 3.1 8.8 2.5 8.8 2.5 -0.1 0-1.7 0.7-4.3 0.3 -1.3-0.2-2.9-0.8-4.7-1.8 -0.1 0.6-0.2 1.2-0.3 1.7l0 0.1L347.2 348c-2.7 2.5-8.4 1.8-13.3 1 1.4 1.9 0.8 4.6 0.8 4.6 0 0 0-3.2-2.2-4.8 -0.6-0.1-1.3-0.2-1.9-0.3 -1.7-0.3-3.7-0.5-5.7-0.6 3.7 2.6 2.7 7 2.7 7 0-0.2 0.3-4.9-4.5-7 -2.9 0.1-5.6 0.7-7.3 2.7 -0.5 0.5-0.8 1.1-0.9 1.7 1.6 0 3.1 1.2 3.8 3.1 0.7 1.6 0.6 3.3 0 4.5 0.4 0.2 0.9 0.3 1.3 0.3 2.7-4.2 9.1-4.8 14.3-5.3 1.8-0.2 3.4-0.3 4.7-0.6 5.2-1.1 6.7-2.6 6.7-2.6 0 0-1 2.2-6.5 3.4 -0.4 0.1-0.8 0.1-1.2 0.2 2.8 2.2 2.5 5.5 2.5 5.5 0 0-0.5-3.5-3.8-5.4 -0.7 0.1-1.5 0.2-2.3 0.2 -1.3 0.1-2.8 0.3-4.2 0.5 3.9 2.6 3.3 7.4 3.3 7.4 0-0.2-0.1-5-4.7-7.2 -3.6 0.7-6.9 1.9-8.4 4.7 -0.2 0.5-0.4 1-0.5 1.5l0 0c1.6-0.1 3.1 1.1 3.9 3.1 0.7 1.8 0.6 3.6-0.1 4.8 0.5 0.3 1 0.5 1.6 0.7 3 0.9 5.9-1 8.2-2.5 0.9-0.6 1.7-1.1 2.4-1.4 0.1-0.1 0.2-0.2 0.4-0.3 1.6-2 4.3-3.3 7.1-4.7 1.2-0.6 2.5-1.2 3.7-1.9 4.2-2.4 5.2-4.8 5.2-4.8 0 0-0.3 3-4.8 5.5 -0.5 0.3-1 0.5-1.5 0.8 1.8 0.5 3 1.4 3.7 2.2 0.6 0 1.2 0 1.9 0 1.5 0 3.1 0 4.6-0.1 1.4-1.7 2.8-3.5 3.7-5.2l0.1-0.3 0.3 0.1c1.3 0.2 2.8 1 4.6 1.9 0.1-2.3 0-5.2-0.2-8.3 -0.3-0.4-0.8-0.8-1.3-1.1 -0.5 0-1.1-0.1-1.7-0.2 -0.9-0.1-1.7-0.4-2.5-0.7l-0.3-0.1 0.1-0.3c0.7-3.8 1.7-9.1 2.6-14.7 -1.2 0.3-2.6 0.5-4 0.5h0c-0.3 0-0.6 0-1 0 -2.5-0.1-5-0.6-7.5-1.3 0 0.9-0.1 1.7-0.2 2.5C353.4 340.1 358.6 339.8 358.6 339.8z" class="e"/><path d="M339.9 365.1c2.8-0.8 6-0.9 8.7-1 -0.8-0.7-2.1-1.3-4-1.6 -0.4 0.2-0.7 0.3-1.1 0.5 -1.4 0.7-2.7 1.3-3.9 2.1C339.8 365.1 339.9 365.1 339.9 365.1z" class="e"/><path d="M378.5 354c0 2.7-0.1 5.1-0.1 7.2 0 0 0.1 0 0.1 0 0.5-1 0.7-2.1 0.8-3.1C379.3 356.7 379.1 355.3 378.5 354z" class="e"/><path d="M314.6 352.3l0.1 0 0.1 0c0 0 0 0 0 0 0.2-0.6 0.5-1.2 0.9-1.7 1.8-2 4.5-2.6 7.3-2.7 4.8 2.1 4.5 6.8 4.5 7 0 0 1-4.4-2.7-7 2 0.1 4 0.4 5.7 0.6 0.6 0.1 1.2 0.2 1.9 0.3 2.2 1.6 2.2 4.8 2.2 4.8 0 0 0.6-2.7-0.8-4.6 4.9 0.8 10.6 1.5 13.3-1l0.1-0.1 0-0.1c0.1-0.5 0.2-1.1 0.3-1.7 1.8 1.1 3.4 1.6 4.7 1.8 2.5 0.4 4.2-0.2 4.3-0.3 0 0-3.9 0.6-8.8-2.5 0.4-2.2 0.7-4.7 1-7.5 1.8 1.3 3.7 1.9 5.3 2.2 2.5 0.4 4.4 0 4.5 0 0 0-5.2 0.3-9.7-3.1 0.1-0.8 0.1-1.7 0.2-2.5 -0.3-0.1-0.6-0.1-0.9-0.2 -0.3 5.2-1 10.1-1.7 13.5 -2.7 2.3-8.7 1.3-13.6 0.5 -0.8-0.1-1.5-0.2-2.1-0.3 -5.1-0.7-12-1.7-15.6 2.4 -0.7 0.8-1.1 1.8-1.3 2.8C314 352.7 314.3 352.5 314.6 352.3z" class="f"/><path d="M319.8 362.7l0.1 0 0.1 0c0.1-0.5 0.3-1 0.5-1.5 1.5-2.8 4.8-4 8.4-4.7 4.5 2.2 4.7 7 4.7 7.2 0 0 0.6-4.8-3.3-7.4 1.4-0.2 2.9-0.3 4.2-0.5 0.8-0.1 1.6-0.2 2.3-0.2 3.3 1.9 3.8 5.3 3.8 5.4 0 0 0.3-3.3-2.5-5.5 0.4-0.1 0.8-0.1 1.2-0.2 5.5-1.2 6.5-3.4 6.5-3.4 0 0-1.5 1.5-6.7 2.6 -1.3 0.3-3 0.4-4.7 0.6 -5.2 0.5-11.6 1.1-14.3 5.3 -0.4 0-0.9-0.1-1.3-0.3 -0.1 0.2-0.1 0.3-0.2 0.5 -0.1 0.1-0.2 0.1-0.3 0.2 0.5 0.2 0.9 0.4 1.4 0.5 0 0 0 0 0 0.1 0 0 0 0 0 0l0 0c-0.3 0.6-0.4 1.3-0.5 2C319.2 363 319.5 362.8 319.8 362.7z" class="f"/><path d="M317.7 359.8c0.6-0.9 0.7-2.5 0.1-4.1 -0.6-1.5-1.7-2.5-2.9-2.5 -3 1.6-4.7 4.6-4.9 8.4 1.3-0.5 2.8-0.7 4.1-0.8C315.6 360.6 317 360.4 317.7 359.8z" class="c"/><path d="M318.6 359.9c0.6-1.2 0.7-2.9 0-4.5 -0.8-1.9-2.2-3.1-3.8-3.1 0 0 0 0 0 0l-0.1 0 -0.1 0c-0.3 0.1-0.5 0.3-0.8 0.5 -3 1.9-4.6 5.2-4.7 9.4l0 0.7 0.6-0.3c1.3-0.7 2.9-0.8 4.4-1 1.5-0.2 2.9-0.3 3.9-1 0.1-0.1 0.2-0.1 0.3-0.2C318.5 360.2 318.5 360 318.6 359.9zM310 361.5c0.2-3.8 1.9-6.7 4.9-8.4 1.2 0 2.3 1 2.9 2.5 0.6 1.5 0.6 3.2-0.1 4.1 -0.7 0.7-2.1 0.8-3.6 1C312.8 360.9 311.3 361 310 361.5z" class="d"/><path d="M322.9 370.1c0.6-0.9 0.7-2.5 0.1-4.1 -0.6-1.5-1.7-2.5-2.9-2.5 -3 1.6-4.7 4.6-4.9 8.4 1.3-0.5 2.8-0.7 4.1-0.8C320.8 370.9 322.2 370.8 322.9 370.1z" class="c"/><path d="M323.6 370.7c0-0.1 0.1-0.1 0.1-0.2 0.8-1.2 0.8-3 0.1-4.8 -0.8-1.9-2.3-3.1-3.9-3.1l0 0 -0.1 0 -0.1 0c-0.3 0.2-0.5 0.3-0.8 0.5 -3 1.9-4.6 5.2-4.6 9.3l0 0.7 0.6-0.3c1.3-0.7 2.9-0.8 4.4-1 1.4-0.1 2.6-0.3 3.6-0.8C323.2 371 323.4 370.8 323.6 370.7zM315.2 371.9c0.2-3.8 1.9-6.7 4.9-8.4 1.2 0 2.3 1 2.9 2.5 0.6 1.5 0.6 3.2-0.1 4.1 -0.7 0.7-2.1 0.8-3.6 1C318 371.2 316.5 371.3 315.2 371.9z" class="d"/><path d="M332.9 381.3c0.1 0.2 0.1 0.5 0.2 0.7 0.8-0.7 1.8-1.2 2.7-1.6 -0.2 0-0.3 0.1-0.5 0.1C334.5 380.8 333.7 381 332.9 381.3z" class="c"/><path d="M339 378.9c0.1-0.1 0.2-0.2 0.3-0.3 0.1-0.1 0.1-0.3 0.2-0.5 0.4-1.3 0.2-3-0.7-4.5 -1.1-1.8-2.7-2.7-4.3-2.4 0 0 0 0 0 0l-0.1 0 -0.1 0.1c-0.2 0.2-0.5 0.4-0.7 0.6 -2.6 2.4-3.7 5.9-3.1 10l0.1 0.7 0.6-0.4c0.3-0.2 0.6-0.4 1-0.6 0.1 0.4 0.2 0.9 0.3 1.3l0.2 0.7 0.5-0.5c1.1-1.1 2.5-1.7 3.9-2.3 1.1-0.5 2.2-1 3-1.7C339.7 379.1 339.3 379 339 378.9zM333.1 382c-0.1-0.2-0.1-0.5-0.2-0.7 0.8-0.3 1.6-0.5 2.4-0.8 0.2 0 0.3-0.1 0.5-0.1C334.9 380.9 333.9 381.4 333.1 382zM334.6 372.1c1.2-0.2 2.4 0.6 3.3 2 0.9 1.4 1.1 3.1 0.6 4 -0.6 0.8-2 1.1-3.4 1.5 -1.3 0.3-2.7 0.7-3.9 1.4C330.8 377.4 332 374.2 334.6 372.1z" class="d"/><path d="M356.6 334.6c1.3 0.1 2.5 0 3.6-0.2 -6.7-2.2-12.2-6.7-15.4-11.1l0 0c-0.3-0.3-0.5-0.6-0.8-1 -6.4-1.9-13.4-4.8-20.4-8.7C331.6 325.8 344 333.9 356.6 334.6z" class="g"/><path d="M429.5 229.2l1.7-0.3 -1.4 1c-10 7.3-15.7 19.4-16.8 36.1l-0.1 1.7c-0.1 0.9-0.1 1.8-0.2 2.8 6.1-5.6 12.9-8.2 17.9-9.3l1.3-0.3 -0.9 1c-8.6 10-10.7 17.6-11.5 24.7 5.7-3.3 11.6-4.9 17.6-4.9 2.6 0 5.3 0.3 7.9 1 -1.4-4.4-2.2-9-3-13.3 -0.7-3.7-1.4-7.2-2.3-10.3 -2.8-9.6-7.4-13-7.5-13.1 0 0 5.5 2.9 8.3 12.8 0.9 3.2 1.6 6.7 2.3 10.4 0.8 4.5 1.7 9.2 3.2 13.8 0.3 0.1 0.6 0.2 1 0.3l1.3 0.4 -1.3 0.4c-0.2 0.1-0.4 0.1-0.5 0.2 1.5 4.5 3.7 8.9 6.9 12.6v-0.1l0.8 1c0 0 0 0 0 0 0.2 0.3 0.5 0.5 0.7 0.8 1.1 1.1 2.8 2.1 4 2.8 -2-13.3-0.8-23.8 0.4-33.9 0.9-7.7 1.8-15 1.1-23.1 -1.5-19.6-7.4-26-7.5-26.1 0 0 6.9 6.1 8.4 26 0.6 8.2-0.2 15.5-1.1 23.3 -1.3 11.1-2.6 22.5 0.3 37.7 3.1 13.2 12.3 25.6 25.2 25.9 -9.4-11.3-9.8-27.4-9-41.8 0.4-7.6 1.7-15.7 3-23.5 1.1-6.8 2.1-13.2 2.5-19 0.5-12.1-1.3-23-5.5-32.4 -3.7-8.3-7.3-13-7.3-13 0.2 0.2 4.3 4.2 8.1 12.7 3.9 8.8 5.8 18.7 5.7 29.7l0.1 0.4c2.6 10.3 2 20.4 1.3 31.1 -0.5 8.8-1.1 17.9 0.3 27.1 2.9 19.5 11.1 29.8 25.8 32.3 -7.9-14.7-10.5-37.2-7.6-66.9l0.2-2.1c2.6-27 5.3-55-14.9-86.2 -10.6-16.4-26.7-25.4-45.3-25.4 -11.3 0-23 3.5-32 9.5 -16.2 10.9-22.7 31.4-19.8 63.4 4.4 6.3 8.5 16 9 24.5C406.7 238.8 416.8 231.1 429.5 229.2z" class="h"/><path d="M429.3 296.4c0.3 0 0.6 0 0.9 0 9.5 0 18.1 4.3 22.5 11.2 0.7-2.4 0.6-5.7 0.5-8 0-0.5 0-1 0-1.4 -3.7-4-6-8.7-7.7-13.6C437.3 287.5 432.7 291.8 429.3 296.4z" class="h"/><path d="M511.7 334.8c-8.2-14.5-10.8-37.1-7.9-67.1l0.2-2.1c2.5-25.9 5.4-55.3-15.1-86.8 -10.8-16.6-27.1-25.8-46.1-25.8 -11.5 0-23.3 3.5-32.5 9.7 -16.2 10.9-22.9 31.1-20.3 62.6 0.3 0.4 0.6 0.9 0.9 1.3 0 0 0.1 0.1 0.1 0.1 -2.8-32 3.7-52.5 19.8-63.4 9-6.1 20.6-9.5 32-9.5 18.6 0 34.7 9 45.3 25.4 20.3 31.3 17.6 59.2 14.9 86.2l-0.2 2.1c-2.9 29.7-0.3 52.2 7.6 66.9 -14.6-2.6-22.8-12.8-25.8-32.3 -1.4-9.2-0.8-18.3-0.3-27.1 0.7-10.7 1.3-20.8-1.3-31.1l-0.1-0.4c0.1-10.9-1.8-20.9-5.7-29.7 -3.7-8.5-7.9-12.5-8.1-12.7 0 0 3.6 4.7 7.3 13 4.2 9.5 6 20.4 5.5 32.4 -0.4 5.8-1.4 12.2-2.5 19 -1.2 7.8-2.5 15.9-3 23.5 -0.8 14.4-0.4 30.6 9 41.8 -12.9-0.3-22.1-12.7-25.2-25.9 -3-15.2-1.6-26.7-0.3-37.7 0.9-7.7 1.8-15 1.1-23.3 -1.5-20-8.4-26-8.4-26 0.1 0.1 6 6.5 7.5 26.1 0.6 8.1-0.2 15.4-1.1 23.1 -1.2 10.1-2.4 20.6-0.4 33.9 -1.2-0.7-2.9-1.8-4-2.8 -0.3-0.3-0.5-0.5-0.7-0.8 0 0 0 0 0 0l-0.8-1v0.1c-3.2-3.7-5.4-8.1-6.9-12.6 -0.3 0.1-0.6 0.2-0.8 0.3 1.7 4.9 4.1 9.6 7.7 13.6 0 0.4 0 0.9 0 1.4 0.1 2.3 0.2 5.6-0.5 8 -4.5-6.9-13-11.2-22.5-11.2 -0.3 0-0.6 0-0.9 0 -0.2 0.3-0.4 0.6-0.6 0.9 0.5 0 1-0.1 1.5-0.1 9.6 0 18.1 4.4 22.3 11.5l0.4 0.7 0.3-0.8c1.1-2.6 1-6.6 0.9-9.2 0-0.1 0-0.3 0-0.4 0 0 0 0 0 0 0 0 0 0 0 0l0 0c1.4 1.3 3.4 2.5 4.6 3.2 0.2 1 0.4 2.1 0.6 3.1 0 0 0 0.1 0 0.1l0 0c3.3 13.8 13.2 26.7 27 26.4l0.9 0 -0.6-0.7c-9.7-11-10.2-26.7-9.4-41.9 0.4-7.6 1.7-15.6 3-23.4 1-6.6 2-12.8 2.5-18.5l0 0c0 0 0 0 0 0 0 0 0-0.1 0-0.2 1.8 9.1 1.2 18.2 0.6 27.8 -0.5 8.8-1.1 18 0.3 27.3 3.1 20.3 11.8 30.8 27.4 33.2l0.9 0.1L511.7 334.8z" class="i"/><path d="M440.4 258.7c-2.8-9.9-8.3-12.8-8.3-12.8 0 0 4.7 3.5 7.5 13.1 0.9 3.2 1.6 6.6 2.3 10.3 0.8 4.3 1.7 8.9 3 13.3 0.3 0.1 0.7 0.2 1 0.3 -1.4-4.6-2.3-9.3-3.2-13.8C442 265.4 441.3 261.9 440.4 258.7z" class="i"/><path d="M288.4 278c-1.3-2.6-2.5-5.3-3.5-8.1 -0.5-0.4-1-0.8-1.7-1.4 0 0 0 0-0.1-0.1l0 0c-7.1-5.9-22-21.3-18.2-42.8 0.9-4.9 2.5-9.2 4.8-13 -4.4 1.8-8.1 4.7-10.8 8.5 -4.3 6.2-5.3 14.1-2.9 22.9C260.4 259.9 275.2 272.1 288.4 278z" class="g"/><path d="M408.3 368.5c0.4 0 0.8 0 1.2 0.1 -0.7-4.9-4.7-6.7-7.9-6.7 -1 0-2 0.2-3 0.5 0.7 1.2 1.1 2.6 1.3 3.9 0.2 1.9-0.1 3.5-0.8 4.8 1.3-0.3 2.7-0.7 4-1.2C404.9 369.2 406.7 368.5 408.3 368.5z" class="c"/><path d="M398.5 362.4c1-0.3 2-0.5 3-0.5 3.2 0 7.2 1.8 7.9 6.7 -0.4-0.1-0.7-0.1-1.2-0.1 -1.5 0-3.3 0.6-5.2 1.3 -1.3 0.5-2.7 1-4 1.2 -0.2 0.4-0.5 0.7-0.7 1 1.6-0.2 3.4-0.8 5.1-1.4 1.8-0.7 3.5-1.3 4.9-1.3 0.6 0 1.1 0.1 1.5 0.3l0.7 0.4 -0.1-0.8c-0.5-6.1-5.1-8.2-8.9-8.2 -1.2 0-2.3 0.2-3.5 0.6C398.2 361.9 398.4 362.1 398.5 362.4z" class="d"/><path d="M375.6 341.9c-0.1 0.1-2.3 1.2-6 1.2 -1.5 0-3.2-0.2-5.2-0.7 0.5 2.7 0.8 5.4 1 8 5 2.6 10.1 1.5 10.1 1.5 -0.1 0.1-1.9 0.8-4.5 0.8 -1.6 0-3.6-0.3-5.6-1.3 0.2 2.8 0.3 5.3 0.2 7.5 5.3 2.2 9.1 1 9.1 1 -0.1 0.1-1.6 1-4.2 1 -1.4 0-3-0.3-4.9-1 0 0.6 0 1.2-0.1 1.7l0 0.1 -0.1 0.1c-2.3 2.9-8 3.1-13 3.2 1.7 1.7 1.5 4.4 1.5 4.4 0 0-0.5-3.2-3-4.4 -0.7 0-1.3 0-1.9 0 -1.8 0-3.8 0.1-5.7 0.3 4.1 2 3.8 6.5 3.8 6.5 0-0.2-0.5-4.9-5.6-6.2 -2.8 0.5-5.4 1.6-6.8 3.9 -0.4 0.6-0.6 1.2-0.6 1.8 1.6-0.3 3.2 0.6 4.3 2.4 0.9 1.5 1.2 3.2 0.7 4.5 0.5 0.1 0.9 0.2 1.4 0.1 2-4.6 8.2-6.2 13.3-7.6 1.7-0.5 3.3-0.9 4.5-1.4 4.9-1.9 6.2-3.6 6.2-3.6 0 0-0.6 2.4-5.9 4.4 -0.4 0.1-0.7 0.3-1.1 0.4 3.1 1.7 3.4 5.1 3.4 5.1 0 0-1-3.4-4.6-4.7 -0.7 0.2-1.5 0.4-2.2 0.6 -1.3 0.4-2.7 0.7-4.1 1.2 4.3 1.9 4.5 6.8 4.5 6.8 0-0.2-1-5-5.8-6.3 -3.4 1.2-6.5 3-7.5 6 -0.2 0.5-0.2 1-0.2 1.5l0 0c1.6-0.3 3.2 0.6 4.3 2.4 1 1.6 1.2 3.4 0.7 4.7 0.5 0.2 1.1 0.4 1.7 0.4 3.1 0.4 5.7-2 7.7-3.8 0.8-0.8 1.6-1.5 2.4-2 1.2-2.4 3.7-4.2 6.3-6 1.1-0.8 2.3-1.6 3.4-2.5 3.8-3 4.4-5.5 4.4-5.6 0 0 0.2 3-3.8 6.2 -0.5 0.4-0.9 0.7-1.4 1 3.9 0.4 4.9 3.3 4.9 3.3l0 0c-0.1-0.1-1.6-2.6-6-2.5 -0.3 0.2-0.6 0.5-1 0.7 -1.3 0.9-2.5 1.8-3.5 2.7 5.6 0.4 6.2 4.5 6.2 4.5 -0.1-0.1-1.3-3.6-7.1-3.6 -0.8 0.8-1.5 1.7-1.9 2.7 -0.5 1.4-0.7 2.6-0.5 3.7 1.3-0.4 2.9 0 4.3 1.2 1.3 1.1 2.1 2.7 2.1 4 0.2 0 0.4 0 0.6 0 0.4 0 0.7 0 1-0.1 2.5-0.5 5.6-3.2 6.2-7.9l0-0.1c0.4-0.8 1.2-2.2 2.3-3.9 1.8-2.8 4.4-6.8 5.5-9.9l0.1-0.3h0.3c1.3 0 3 0.5 4.9 1.2 2.5 0.8 5.3 1.7 7.9 1.7 1.2 0 2.2-0.2 3.1-0.5 2.4-0.9 3-3.7 2.7-5.9 -0.4-3-2.4-6.4-5.3-6.7 -0.4 0-0.8-0.1-1.1-0.1 -0.4 0-0.8 0-1.2 0.1 3.7 2.2 2.3 6.8 2.3 6.8 0-0.2 0.7-5-3.8-6.6 -1 0.2-2 0.6-3.1 0.9 -1 0.4-2.1 0.7-3.2 1 2.8 1.9 2.2 5.8 2.2 5.8 0 0-0.2-4.2-3.6-5.5 -0.5 0.1-1.1 0.1-1.7 0.1 -0.9 0-1.7-0.1-2.6-0.3l-0.3-0.1 0-0.4c0.1-6.8 0.4-18.5-0.4-27.8 -1.7 0.9-3.5 1.5-5.4 1.8 -1.1 0.2-2.2 0.2-3.4 0.2h0c-2 0-3.9-0.2-5.8-0.7 0.7 2 1.2 4.2 1.6 6.4C371 343.3 375.6 341.9 375.6 341.9z" class="e"/><path d="M357.2 387.3l0.1 0c0.2-0.1 0.4-0.2 0.5-0.2 -0.1-1.1 0.1-2.3 0.6-3.7 0.4-1 1.1-1.9 1.9-2.7 5.8 0.1 7.1 3.5 7.1 3.7 0 0-0.6-4-6.2-4.5 1.1-0.9 2.3-1.8 3.5-2.7 0.3-0.2 0.6-0.5 1-0.7 4.4-0.1 5.9 2.4 6 2.5l0 0c0 0-1-2.9-4.9-3.3 0.5-0.3 0.9-0.7 1.4-1 4-3.3 3.8-6.2 3.8-6.2 0 0-0.6 2.5-4.4 5.6 -1.1 0.9-2.3 1.7-3.4 2.5 -2.6 1.8-5.1 3.6-6.3 6 -0.7 0.4-1.5 1.2-2.4 2 -2 1.9-4.5 4.2-7.7 3.8 -0.6-0.1-1.1-0.2-1.7-0.4 0 0.1 0 0.1-0.1 0.2 -0.1 0.2-0.3 0.3-0.5 0.5 0.7 0.3 1.4 0.5 2.1 0.6 3.5 0.4 6.2-2.1 8.4-4.1 0.4-0.4 0.8-0.8 1.2-1.1 -0.4 1.3-0.4 2.5-0.2 3.6 0-0.1 0.1-0.1 0.1-0.2L357.2 387.3z" class="f"/><path d="M334.2 371.4l0.1-0.1 0.1 0c0 0 0 0 0 0 0.1-0.6 0.3-1.2 0.6-1.8 1.4-2.2 4-3.3 6.8-3.9 5.1 1.3 5.6 6 5.6 6.2 0 0 0.3-4.5-3.8-6.5 2-0.2 4-0.3 5.7-0.3 0.6 0 1.2 0 1.9 0 2.4 1.2 2.9 4.4 3 4.4 0 0 0.2-2.7-1.5-4.4 5 0 10.7-0.3 13-3.2l0.1-0.1 0-0.1c0-0.5 0-1.1 0.1-1.7 1.9 0.8 3.6 1 4.9 1 2.6 0 4.1-0.9 4.2-1 0 0-3.8 1.2-9.1-1 0-2.2 0-4.8-0.2-7.5 2 1 4 1.3 5.6 1.3 2.6 0 4.3-0.7 4.5-0.8 0 0-5.1 1.2-10.1-1.5 -0.2-2.6-0.6-5.3-1-8 2 0.5 3.7 0.7 5.2 0.7 3.7 0 5.9-1.1 6-1.2 0 0-4.6 1.4-11.4-0.5 -0.4-2.2-1-4.4-1.6-6.4 -0.3-0.1-0.7-0.2-1-0.3 0 0.1 0 0.1 0.1 0.2 0 0-0.1 0-0.1 0 -0.9 5.6-1.9 10.9-2.6 14.7l-0.1 0.3 0.3 0.1c0.8 0.3 1.7 0.6 2.5 0.7 0.6 0.1 1.1 0.1 1.7 0.2 0.5 0.3 1 0.7 1.3 1.1 0.2 3.1 0.2 6 0.2 8.3 -1.8-0.9-3.3-1.7-4.6-1.9l-0.3-0.1 -0.1 0.3c-0.9 1.7-2.3 3.5-3.7 5.2 -1.6 0.1-3.1 0.1-4.6 0.1 -0.7 0-1.3 0-1.9 0 -0.7-0.8-1.8-1.7-3.7-2.2 0.5-0.3 1-0.5 1.5-0.8 4.5-2.6 4.8-5.5 4.8-5.5 0 0-1 2.4-5.2 4.8 -1.2 0.7-2.5 1.3-3.7 1.9 -2.8 1.3-5.4 2.6-7.1 4.7 -0.1 0.1-0.2 0.2-0.4 0.3 -0.7 0.3-1.6 0.9-2.4 1.4 -2.3 1.5-5.2 3.4-8.2 2.5 -0.5-0.2-1.1-0.4-1.6-0.7 0 0.1-0.1 0.1-0.1 0.2 -0.2 0.2-0.4 0.3-0.6 0.4 0.6 0.4 1.3 0.7 2 0.9 3.4 1 6.5-1 8.9-2.6 0.1-0.1 0.2-0.1 0.3-0.2 -0.5 0.9-0.7 1.8-0.7 2.8C333.7 371.8 333.9 371.6 334.2 371.4zM364.6 361.3c0.1 0 0.1 0.1 0.2 0.1 -1.4 1.6-4.3 2.3-7.5 2.5 1.2-1.5 2.3-3 3.1-4.4C361.5 359.7 363 360.5 364.6 361.3zM359.9 349.5c0.6-3.4 1.5-8 2.3-13 1.3 4.3 2 9.1 2.4 13.6 -0.9 0-1.8 0-2.7-0.1C361.2 349.9 360.6 349.7 359.9 349.5zM343.7 363c0.3-0.2 0.7-0.3 1.1-0.5 1.9 0.3 3.1 0.9 4 1.6 -2.7 0.1-5.9 0.2-8.7 1 -0.1 0-0.1 0-0.2 0C340.9 364.3 342.3 363.7 343.7 363z" class="f"/><path d="M341 380.7l0.1-0.1 0.1 0c0-0.5 0.1-1 0.2-1.5 1-3 4.1-4.8 7.5-6 4.8 1.4 5.7 6.1 5.8 6.3 0 0-0.2-4.9-4.5-6.8 1.4-0.4 2.8-0.8 4.1-1.2 0.8-0.2 1.5-0.4 2.2-0.6 3.6 1.3 4.6 4.6 4.6 4.7 0 0-0.3-3.3-3.4-5.1 0.4-0.1 0.8-0.3 1.1-0.4 5.2-2.1 5.9-4.4 5.9-4.4 0 0-1.3 1.7-6.2 3.6 -1.2 0.5-2.8 0.9-4.5 1.4 -5.1 1.4-11.3 3-13.3 7.6 -0.4 0-0.9 0-1.4-0.1 -0.1 0.2-0.1 0.3-0.2 0.5 -0.1 0.1-0.2 0.2-0.3 0.3 0.4 0.1 0.7 0.2 1.1 0.2 0.1 0 0.3 0 0.4 0 0 0 0 0 0 0.1 0 0 0 0 0 0l0 0c-0.2 0.7-0.2 1.4-0.1 2.1C340.5 381.1 340.8 380.9 341 380.7z" class="f"/><path d="M377.1 333.7c0.8 9.3 0.6 21 0.4 27.8l0 0.4 0.3 0.1c0.9 0.2 1.7 0.3 2.6 0.3 0.6 0 1.1 0 1.7-0.1 3.4 1.4 3.6 5.5 3.6 5.5 0 0 0.5-3.9-2.2-5.8 1.1-0.3 2.2-0.6 3.2-1 1-0.3 2-0.7 3.1-0.9 4.5 1.6 3.9 6.4 3.8 6.6 0 0 1.4-4.6-2.3-6.8 0.4 0 0.8-0.1 1.2-0.1 0.4 0 0.8 0 1.1 0.1 2.9 0.3 4.9 3.7 5.3 6.7 0.3 2.3-0.3 5-2.7 5.9 -0.9 0.4-2 0.5-3.1 0.5 -2.6 0-5.4-0.9-7.9-1.7 -2-0.6-3.6-1.2-4.9-1.2H380l-0.1 0.3c-1.1 3.2-3.6 7.1-5.5 9.9 -1.1 1.7-2 3-2.3 3.9l0 0.1c-0.6 4.7-3.7 7.4-6.2 7.9 -0.3 0.1-0.7 0.1-1 0.1 -0.2 0-0.4 0-0.6 0 0 0.2 0 0.4 0 0.5 0 0.1-0.1 0.2-0.2 0.3 0.3 0 0.6 0 0.8 0 0.4 0 0.8 0 1.2-0.1 3.5-0.7 6.3-4.2 6.9-8.6 0.4-0.8 1.2-2.1 2.2-3.7 1.9-3 4.3-6.6 5.4-9.8 1.1 0.1 2.6 0.6 4.4 1.1 2.5 0.8 5.4 1.7 8.2 1.7 1.3 0 2.4-0.2 3.4-0.6 0.6-0.2 1.2-0.6 1.7-1.1 0.3-0.3 0.5-0.6 0.7-1 0.7-1.3 1-2.9 0.8-4.8 -0.2-1.3-0.6-2.7-1.3-3.9 -0.1-0.3-0.3-0.5-0.5-0.8 -1-1.5-2.5-2.6-4.3-2.8 -0.4 0-0.8-0.1-1.2-0.1 -1 0-1.9 0.1-2.8 0.3 -0.3 0.1-0.6 0.1-0.9 0.2 -0.8 0.2-1.6 0.5-2.4 0.7 -1.9 0.6-3.8 1.3-6 1.3 -0.4 0-0.7 0-1.1-0.1 0.4-0.9 0.7-2 0.7-3.2 0.1-1.3-0.2-2.8-0.6-4.1 -0.1-0.3-0.2-0.6-0.4-0.8 -0.2-0.4-0.4-0.7-0.6-1 0-6-0.1-13-0.6-18.9C377.7 333.4 377.4 333.5 377.1 333.7zM378.4 361.1c0-2 0.1-4.5 0.1-7.2 0.5 1.3 0.8 2.7 0.7 4.1 0 1-0.3 2.2-0.8 3.1C378.5 361.2 378.5 361.1 378.4 361.1z" class="f"/><path d="M335.1 379.7c1.5-0.4 2.8-0.8 3.4-1.5 0.5-1 0.3-2.6-0.6-4 -0.9-1.4-2.1-2.2-3.3-2 -2.7 2.1-3.9 5.3-3.4 9C332.4 380.5 333.8 380.1 335.1 379.7z" class="c"/><path d="M345.4 387.5c0.5-1 0.3-2.6-0.6-4 -0.9-1.4-2.1-2.2-3.3-2 -2.7 2.1-3.9 5.3-3.4 9 1.2-0.7 2.6-1.1 3.9-1.4C343.4 388.7 344.7 388.3 345.4 387.5z" class="c"/><path d="M346.1 388c0-0.1 0-0.1 0.1-0.2 0.6-1.3 0.3-3.1-0.7-4.7 -1.1-1.8-2.7-2.7-4.3-2.4l0 0 -0.1 0 -0.1 0.1c-0.3 0.2-0.5 0.4-0.7 0.6 -2.6 2.4-3.7 5.9-3 10l0.1 0.7 0.6-0.4c1.2-0.9 2.7-1.3 4.2-1.7 1.3-0.4 2.6-0.7 3.4-1.4C345.7 388.3 345.9 388.2 346.1 388zM338 390.5c-0.4-3.8 0.8-7 3.4-9 1.2-0.2 2.4 0.6 3.3 2 0.9 1.4 1.1 3.1 0.6 4 -0.6 0.8-2 1.1-3.4 1.5C340.6 389.4 339.2 389.8 338 390.5z" class="d"/><path d="M363.4 392.5c0.2-1.1-0.6-2.6-1.8-3.6 -1.3-1.1-2.7-1.4-3.8-0.9 -1.9 2.8-2 6.2-0.5 9.7 0.9-1.1 2.2-1.9 3.3-2.6C361.8 394.2 363 393.4 363.4 392.5z" class="c"/><path d="M364.2 392.2c0-1.3-0.8-2.9-2.1-4 -1.4-1.2-3-1.6-4.3-1.2 -0.2 0.1-0.4 0.1-0.5 0.2l-0.1 0 -0.1 0.1c0 0.1-0.1 0.1-0.1 0.2 -2.1 3.2-2.2 7.2-0.2 11.1l0.3 0.6 0.4-0.6c0.9-1.2 2.2-2.1 3.5-2.9 1.3-0.8 2.4-1.6 3-2.7 0.1-0.1 0.1-0.2 0.2-0.3C364.2 392.6 364.2 392.4 364.2 392.2zM357.3 397.6c-1.6-3.5-1.4-6.9 0.5-9.7 1.1-0.6 2.5-0.2 3.8 0.9 1.3 1.1 2 2.6 1.8 3.6 -0.3 0.9-1.5 1.7-2.8 2.5C359.5 395.8 358.2 396.6 357.3 397.6z" class="d"/><path d="M398 273.4c2 2.8 4.1 5.9 6 9 1.1-2.2 2.2-4.1 3.5-5.9C404.5 276.5 401.3 275.4 398 273.4z" class="j"/><path d="M408.6 274.9c1-1.3 2-2.4 3.1-3.5 0.1-1.3 0.2-2.6 0.3-3.8l0.1-1.7c1.1-16.1 6.4-28.1 15.8-35.6 -14.2 2.7-22.7 12.4-27.9 22.9 0 0.7 0 1.4-0.1 2C404.1 261.7 407.9 269.7 408.6 274.9z" class="j"/><path d="M400.5 300.2c0.6 0.8 1.1 1.5 1.7 2.3 0.2-0.4 0.4-0.8 0.7-1.1C402 301.1 401.3 300.7 400.5 300.2z" class="j"/><path d="M408.6 276.5c-1.5 2-2.9 4.3-4.1 6.8 2.1 3.6 4 7.2 5.3 10.5 2.8-2.7 5.7-4.9 8.7-6.7 0.8-7.1 2.7-14.8 10.9-24.8 -6.1 1.6-14.3 5.3-20.7 13.8l0 0.2L408.6 276.5z" class="j"/><path d="M408.3 276.5c-0.3 0-0.5 0-0.8 0 0 0-0.1 0-0.1 0 -1.3 1.8-2.4 3.7-3.5 5.9 0.2 0.3 0.4 0.6 0.5 0.9 1.2-2.6 2.6-4.8 4.1-6.8L408.3 276.5z" class="k"/><path d="M412 303.1v0.4l-0.4 0c-0.2 0-0.5 0-0.7 0 -2.1 0-4.6-0.7-7.3-1.8 0 0-0.1 0.1-0.1 0.1 -0.3 0.5-0.6 1-0.8 1.5 1.2 1.7 2.3 3.4 3.4 5.1 5.1-4 11.5-6.3 17.9-6.3 0.2 0 0.4 0 0.6 0 4.2-7 8.5-14.1 20.7-18.6 -2.7-0.7-5.5-1.1-8.2-1.1 -9.3 0-18.3 4.1-26.9 12.2C411.3 297.8 412 300.7 412 303.1z" class="j"/><path d="M429.3 296.4c3.4-4.6 7.9-8.9 16.2-11.9 0.3-0.1 0.5-0.2 0.8-0.3 0.2-0.1 0.4-0.1 0.5-0.2l1.3-0.4 -1.3-0.4c-0.3-0.1-0.6-0.2-1-0.3 -0.3-0.1-0.7-0.2-1-0.3 -2.6-0.6-5.2-1-7.9-1 -6 0-11.9 1.7-17.6 4.9 0.8-7 3-14.7 11.5-24.7l0.9-1 -1.3 0.3c-5 1.2-11.8 3.7-17.9 9.3 0.1-1 0.1-1.9 0.2-2.8l0.1-1.7c1.2-16.6 6.8-28.8 16.8-36.1l1.4-1 -1.7 0.3c-12.7 1.8-22.8 9.6-29.5 22.1 0 0.7 0.1 1.3 0 1.9 5.2-10.5 13.7-20.2 27.9-22.9 -9.3 7.5-14.7 19.5-15.8 35.6l-0.1 1.7c-0.1 1.2-0.2 2.5-0.3 3.8 -1.1 1.1-2.1 2.2-3.1 3.5 0.1 0.4 0.1 0.7 0.1 1.1l0 0.2c6.4-8.5 14.6-12.2 20.7-13.8 -8.3 10-10.2 17.7-10.9 24.8 -2.9 1.8-5.8 4-8.7 6.7 0.1 0.3 0.2 0.6 0.3 0.9 8.6-8.1 17.6-12.2 26.9-12.2 2.8 0 5.5 0.4 8.2 1.1 -12.2 4.4-16.6 11.6-20.7 18.6 -0.2 0-0.4 0-0.6 0 -6.4 0-12.8 2.3-17.9 6.3 0.2 0.2 0.3 0.5 0.5 0.7 4.9-3.9 11.2-6.2 17.4-6.2 7.3 0 13.8 3.2 18.5 9 -0.5 0-1.1-0.1-1.6-0.1 -4.3 0-8.1 1.5-11.6 3.4 -1.6-0.4-3.4-0.6-5.2-0.6 -4.5 0-9 1.2-12.6 3.2 0.1 0.3 0.3 0.5 0.4 0.8 3.4-1.9 7.8-3.1 12.2-3.1 5.1 0 9.6 1.6 12.6 4.5 -3.6 0.6-7.5 2.6-11.2 4.5 -3.5 1.8-7 3.6-10.2 4.2 0 0.3 0.1 0.6 0.1 0.9 3.4-0.6 7-2.5 10.5-4.3 4-2.1 8.1-4.2 11.8-4.5l0.9-0.1 -0.6-0.7c-1.9-2.1-4.5-3.6-7.4-4.5 3.2-1.6 6.6-2.8 10.3-2.8 0.8 0 1.7 0.1 2.5 0.2l1 0.1 -0.6-0.8c-4.5-6.1-10.9-9.6-18.2-10.1 1-1.7 2-3.3 3.1-4.9C428.9 297 429.1 296.7 429.3 296.4z" class="k"/><path d="M403.6 301.8c-0.3-0.1-0.5-0.2-0.8-0.4 -0.3 0.4-0.5 0.7-0.7 1.1 0.2 0.3 0.4 0.6 0.6 0.8 0.2-0.5 0.5-1 0.8-1.5C403.6 301.9 403.6 301.8 403.6 301.8z" class="k"/><path d="M411.5 317.9c3.6-2 8.1-3.2 12.6-3.2 1.8 0 3.6 0.2 5.2 0.6 3.5-1.9 7.3-3.4 11.6-3.4 0.5 0 1.1 0 1.6 0.1 -4.6-5.8-11.2-9-18.5-9 -6.2 0-12.5 2.3-17.4 6.2C408.5 312.2 410.1 315.1 411.5 317.9z" class="j"/><path d="M415.3 328.9c3.2-0.6 6.8-2.4 10.2-4.2 3.8-1.9 7.6-4 11.2-4.5 -3-2.9-7.5-4.5-12.6-4.5 -4.4 0-8.8 1.2-12.2 3.1C413.6 322.4 414.8 325.8 415.3 328.9z" class="j"/><path d="M308.7 207.8c-3.9 2.3-8.3 5-11.1 8.4l-0.6 0.8 -0.2-1c-0.9-5.4-0.3-11.7 1.2-16l0 0c0.1-0.3 0.2-0.5 0.3-0.8 0 0 0-0.1 0-0.1 -0.8-0.1-1.7-0.2-2.6-0.2 -4 0-9 1.2-11.9 2.4 -9.9 5-15.9 13.1-17.9 24.4 -3.7 21.1 11 36.2 18 42 6.7 5.2 13.5 6.6 13.5 6.6 -0.2 0-5.4-0.4-11.2-4 10.1 27.5 36.5 44.2 57 50.5 -10.3-13.3-9.5-23.3-9.5-23.7 0 0 0.1 10.7 11 24.2 0 0 0 0 0 0l0.2 0 0.1 0.1c4 6.3 13 13.1 23.5 13.1h0c1.1 0 2.2-0.1 3.2-0.2 2.5-0.4 5.1-1.5 7.5-3.2 -13.2-11-25.5-25-31.8-34.9 -9.1-10.7-16-24.3-20.4-36.2 -0.1 0.1-0.1 0.2-0.2 0.2l-0.4 0.4 -0.3-0.4c-9.6-13.4-10-32.4-6.1-46 -2.1-2.8-3.9-7.5-4.4-11.5C313.9 204.6 311.5 206.1 308.7 207.8zM295.7 249.2c-3.5-10-0.9-18.2-0.8-18.6 0 0-1.8 8.5 1.6 18.3 3.4 9.7 10.1 12.2 10.2 12.3C306.7 261.1 299.2 259.3 295.7 249.2z" class="g"/><path d="M296.5 248.9c-3.4-9.8-1.6-18.3-1.6-18.3 -0.1 0.3-2.7 8.5 0.8 18.6 3.5 10.1 11 12 11 12C306.6 261.1 299.9 258.6 296.5 248.9z" class="l"/><path d="M399.8 256.6l-0.4-0.1c-4.2-0.6-7.4-2-10.7-3.9 1.8 3.7 4.6 10.7 5.5 15.9 0.8 1 1.6 2 2.4 3.1 4 2.7 7.9 4.2 11.3 4.1C407.4 270.8 403.8 263 399.8 256.6z" class="g"/><path d="M394.4 270.1c0.1 0.8 0.1 1.5 0 2.1l0 0.4 -0.4 0c-0.3 0-0.6 0-0.9 0 -6.3 0-13.1-3.6-16.5-5.6 1.4 2.6 3.2 6.4 4.9 10.4 4.9 5.2 11.6 12.9 17.7 21.1 4.4 2.7 8.6 4.3 11.8 4.3 0.1 0 0.2 0 0.2 0C410.8 293.8 401.8 279.6 394.4 270.1z" class="g"/><path d="M382.4 279.7c2.5 6.3 4.5 12.7 3.7 16.2l-0.1 0.3 -0.3 0c-3.1 0.1-6.7-0.9-10.3-2.4 13.3 13.6 23.1 25 29.3 34.2 3.6 1.7 7 2.8 9.9 2.9C414.2 317.3 394.4 292.7 382.4 279.7z" class="g"/><path d="M415.3 328.9c-0.4-3-1.6-6.5-3.4-10.2 -0.1-0.3-0.3-0.5-0.4-0.8 -1.4-2.8-3-5.7-4.9-8.7 -0.2-0.2-0.3-0.5-0.5-0.7 -1.1-1.7-2.2-3.4-3.4-5.1 -0.2-0.3-0.4-0.6-0.6-0.8 -0.5-0.8-1.1-1.5-1.7-2.3 0.8 0.4 1.6 0.8 2.3 1.2 0.3 0.1 0.6 0.2 0.8 0.4 2.7 1.1 5.2 1.8 7.3 1.8 0.2 0 0.5 0 0.7 0l0.4 0v-0.4c0-2.4-0.7-5.3-1.8-8.4 -0.1-0.3-0.2-0.6-0.3-0.9 -1.3-3.4-3.2-7-5.3-10.5 -0.2-0.3-0.4-0.6-0.5-0.9 -1.9-3.1-4-6.2-6-9 3.3 1.9 6.6 3 9.5 3.1 0 0 0.1 0 0.1 0 0.3 0 0.5 0 0.8 0l0.2 0 0.2 0 0-0.2 0-0.2c0-0.3-0.1-0.7-0.1-1.1 -0.7-5.2-4.5-13.2-8.7-19.7 0.1-0.7 0.1-1.3 0.1-2 0-0.6 0-1.3 0-1.9 -0.5-8.5-4.6-18.2-9-24.5 0 0-0.1-0.1-0.1-0.1 -0.3-0.4-0.6-0.9-0.9-1.3 -0.1-0.1-0.1-0.2-0.2-0.3 -2.8-4.1-5.5-8-9.4-11.4 0.4-0.1 0.7-0.2 1-0.4l0.5-0.2 -0.2-0.3c-0.7-0.5-1.5-1.1-2.4-1.6 0.5 0.5 0.9 1 1.2 1.5 -1.4 0.5-3.4 0.7-5.9 0.7 -3.7 0-7.5-0.6-9.2-1.5l-1.1-0.6 0.5 1.2c1.4 3 2.3 7.8 1.4 10.9 -2.9 0-8.5-0.3-11.1-3.2l-1.3-1.5 0.5 1.9c0.6 2.2 0.8 8.3-0.4 11.1 -2.8-0.7-7.4-2.7-9.3-4.4 -0.6-4.4-2.7-7.8-2.8-8 0 0 1.3 3.2 1.9 7.1l0 0 0.1 1.2c0 0.4 0.1 0.7 0.1 1.1 0 0 0 0 0 0l0 0c0.6 5.6 0.5 12.4-1.5 15.1 0 0 0 0 0 0 -2.8 0-7.4-2.8-8.8-4.3 -0.9-7.6-3.6-12.8-3.6-12.8 0 0.1 2.2 6 2.9 14.1 0.4 8.9-3.9 15.4-6.8 18.7 -9.1-13.2-9.4-31.7-5.6-44.9 0 0 0 0.1-0.1 0.1l-0.3 0.5 -0.4-0.5c0-0.1-0.1-0.1-0.1-0.2 -3.9 13.5-3.5 32.6 6.1 46l0.3 0.4 0.4-0.4c0.1-0.1 0.1-0.2 0.2-0.2 4.5 12 11.3 25.6 20.4 36.2 6.3 9.8 18.6 23.9 31.8 34.9 -2.4 1.6-4.9 2.8-7.5 3.2 -1.1 0.1-2.2 0.2-3.2 0.2h0c-10.5 0-19.5-6.8-23.5-13.1l-0.1-0.1 -0.2 0c0 0 0 0 0 0 -10.9-13.5-11-24.2-11-24.2 0 0.4-0.7 10.5 9.5 23.7 -20.5-6.3-46.9-23-57-50.5 5.8 3.6 10.9 4 11.2 4 0 0-6.8-1.4-13.5-6.6 -6.9-5.8-21.7-20.9-18-42 2-11.3 8-19.4 17.9-24.4 -0.2 0.1-0.3 0.1-0.5 0.2l-0.8 0.3 0.1-0.8c0-0.1 0-0.1 0.1-0.2 -5.1 2.7-9.1 6.2-12.1 10.5 -5 1.8-9.3 5-12.3 9.2 -4.5 6.4-5.5 14.6-3.1 23.6 4.5 16.4 20.2 29.1 33.8 34.9 7.7 14.7 20.2 25.8 33 33.4 6.3 10.4 15.8 18.2 26.1 21.3 0.3 0.1 0.6 0.2 0.9 0.2 2.5 0.7 5 1.1 7.5 1.3 0.3 0 0.6 0 1 0h0c1.5 0 2.8-0.2 4-0.5 0 0 0.1 0 0.1 0 0-0.1 0-0.1-0.1-0.2 0.3 0.1 0.7 0.2 1 0.3 1.9 0.4 3.8 0.7 5.8 0.7h0c1.1 0 2.3-0.1 3.4-0.2 1.8-0.3 3.6-0.9 5.4-1.8 0.3-0.1 0.6-0.3 0.8-0.5 0.6-0.4 1.3-0.8 1.9-1.2 11.4 9.4 23.4 16.4 32.6 16.4h0.4l0-0.4c0.5-4.4-1.9-10.7-7.2-18.7 3.4 1.5 6.6 2.3 9.4 2.3h0.4v-0.4c0-0.5 0-1-0.1-1.5C415.4 329.5 415.3 329.2 415.3 328.9zM414.6 330.8c-2.9-0.1-6.3-1.1-9.9-2.9 -6.2-9.2-16-20.6-29.3-34.2 3.6 1.5 7.2 2.5 10.3 2.4l0.3 0 0.1-0.3c0.8-3.4-1.2-9.9-3.7-16.2C394.4 292.7 414.2 317.3 414.6 330.8zM412 347.6c-18.1-0.4-47-27.9-60.6-46.5 5.9 5.9 12.6 10.5 20.2 12.7l0.5 0.1 0.1-0.5c0.7-6.2-3.6-18.4-6.5-25.2 2.2 1.6 4.8 3.2 7.5 4.5C405.6 325.6 412.5 340.7 412 347.6zM334 241h0c0 0 0 0 0 0 0-0.1 0-0.1 0-0.1 2.1 1.7 6.3 4 8.9 3.8l0.2 0 0.1-0.1c2.8-3.4 2.2-12.3 1.9-15.9h0c0-0.1 0-0.1 0-0.2 2.4 1.7 6.7 3.6 9.3 4.1l0.3 0.1 0.2-0.3c1.2-2.4 1.2-7.7 0.8-10.7 3.1 2.4 8.4 2.6 11 2.6l0.3 0 0.1-0.3c1-3.1 0.3-7.6-1-10.8 2 0.7 5.3 1.2 8.6 1.2 1.8 0 3.3-0.1 4.6-0.4 4.1 3.4 6.9 7.4 9.7 11.6 0.4 0.5 0.7 1.1 1.1 1.6 5.1 7.3 9.9 19.3 8.8 28.5 -4.4-0.7-7.7-2.3-11.2-4.6l0 0c-6.9-11.8-15.2-18.1-15.2-18.1 0.1 0.1 8.2 7.2 15.1 19.6l0 0c2.5 5 6.2 14.4 5.8 19.2 -7.2 0.2-15.4-4.7-17.8-6.3 -11.8-11.9-17.3-24.3-17.3-24.3 0 0.1 4.8 12.8 16.7 24.9 4.5 8.4 11.2 23.5 10.2 29.3 0 0 0 0-0.1 0 -6.3 0-14.9-4.5-20.4-8.8 -13.6-15.5-20.4-30.2-20.4-30.2 0.1 0.1 6 15.2 19.7 30.8 2.2 4.9 7.6 18.7 7.1 25.7 -21.3-6.6-36.2-32.4-43.8-53.1C330.4 256 334.4 249.6 334 241zM411.1 302.7c-0.1 0-0.1 0-0.2 0 -3.2 0-7.3-1.6-11.8-4.3 -6.1-8.2-12.7-15.8-17.7-21 -1.7-4-3.5-7.7-4.9-10.4 3.3 2 10.2 5.6 16.5 5.6 0.3 0 0.6 0 0.9 0l0.4 0 0-0.4c0.1-0.6 0.1-1.3 0-2.1C401.8 279.6 410.8 293.8 411.1 302.7zM396.6 271.6c-0.8-1.1-1.6-2.1-2.4-3.1 -0.8-5.2-3.7-12.2-5.5-15.9 3.3 2 6.4 3.4 10.7 3.9l0.4 0.1c4.1 6.4 7.6 14.2 8.1 19C404.5 275.7 400.5 274.2 396.6 271.6zM344.8 323.2l0 0c3.2 4.5 8.7 9 15.4 11.1 -1.1 0.2-2.3 0.3-3.6 0.2 -12.6-0.6-25-8.8-32.9-21 7 3.9 14 6.8 20.4 8.7C344.3 322.6 344.6 322.9 344.8 323.2zM259.1 221.2c2.6-3.7 6.4-6.7 10.8-8.5 -2.3 3.7-4 8.1-4.8 13 -3.8 21.5 11.1 36.9 18.2 42.8l0 0c0 0 0 0 0.1 0.1 0.6 0.5 1.2 1 1.7 1.4 1 2.8 2.2 5.5 3.5 8.1 -13.2-5.9-28-18.2-32.3-33.9C253.7 235.3 254.7 227.4 259.1 221.2z" class="l"/><path d="M373.1 292.7c-2.7-1.3-5.3-2.9-7.5-4.5 2.9 6.8 7.2 18.9 6.5 25.2l-0.1 0.5 -0.5-0.1c-7.5-2.2-14.3-6.8-20.2-12.7 13.7 18.6 42.5 46.1 60.6 46.5C412.5 340.7 405.6 325.6 373.1 292.7z" class="g"/><path d="M371.3 312.7c0.5-6.9-4.9-20.7-7.1-25.7 -13.7-15.6-19.6-30.6-19.7-30.8 0 0 6.7 14.7 20.4 30.2 5.4 4.2 14.1 8.8 20.4 8.8 0 0 0.1 0 0.1 0 1-5.8-5.7-20.9-10.2-29.3 -11.9-12-16.6-24.7-16.7-24.9 0 0 5.5 12.4 17.3 24.3 2.4 1.5 10.7 6.5 17.8 6.3 0.3-4.8-3.4-14.2-5.8-19.2l0 0c-6.9-12.4-15-19.5-15.1-19.6 0 0 8.3 6.3 15.2 18.1l0 0c3.5 2.2 6.8 3.9 11.2 4.6 1.1-9.2-3.8-21.2-8.8-28.5 -0.4-0.5-0.7-1.1-1.1-1.6 -2.9-4.2-5.6-8.2-9.7-11.6 -1.3 0.3-2.8 0.4-4.6 0.4 -3.3 0-6.5-0.5-8.6-1.2 1.2 3.2 1.9 7.7 1 10.8l-0.1 0.3 -0.3 0c-2.6 0-7.9-0.2-11-2.6 0.4 3 0.4 8.2-0.8 10.7l-0.2 0.3 -0.3-0.1c-2.6-0.5-6.9-2.4-9.3-4.1 0 0.1 0 0.1 0 0.2h0c0.4 3.6 0.9 12.5-1.9 15.9l-0.1 0.1 -0.2 0c-2.6 0.2-6.8-2.1-8.9-3.8 0 0.1 0 0.1 0 0.1 0 0 0 0 0 0h0c0.4 8.6-3.6 15-6.5 18.6C335.1 280.3 350 306.1 371.3 312.7z" class="g"/><path d="M358.9 199.6c1.7 4.4 2.3 9.7 2.2 13.1l0 0.6 -0.6-0.2c-5.3-1.6-16.1-7.6-19.4-13.6 -1.7 2.6-5.7 4.9-9.9 7.4 -4.2 2.4-8.5 4.9-10.6 7.7 -3.8 13.2-3.5 31.8 5.6 44.9 2.9-3.4 7.2-9.9 6.8-18.7 -0.7-8.1-2.8-14.1-2.9-14.1 0 0 2.7 5.2 3.6 12.8 1.4 1.5 6 4.3 8.8 4.3 0 0 0 0 0 0 2-2.7 2.1-9.6 1.5-15.1l0 0c0 0 0 0 0 0 0-0.4-0.1-0.8-0.1-1.1l-0.1-1.2 0 0c-0.6-3.8-1.9-7.1-1.9-7.1 0.1 0.2 2.2 3.6 2.8 8 1.9 1.7 6.5 3.7 9.3 4.4 1.1-2.8 1-8.9 0.4-11.1l-0.5-1.9 1.3 1.5c2.5 2.9 8.1 3.3 11.1 3.2 0.8-3.1-0.1-7.9-1.4-10.9l-0.5-1.2 1.2 0.6c1.7 0.9 5.4 1.5 9.2 1.5 2.4 0 4.5-0.3 5.9-0.7 -0.3-0.5-0.8-1-1.2-1.5 -3.2-2.1-7.1-4.2-10.8-6C364.9 203.2 361.4 201.3 358.9 199.6z" class="g"/><path d="M297.9 166.8c-0.6 0.9-1.3 1.8-1.9 2.7 -2.8 3.8-5.6 7.6-6.1 12.8 -0.3 2.8 0.4 5.3 2 7.3 0.6-0.5 1.3-1 1.9-1.6 3.7-3 7.8-6.3 11.3-10.4 2.9-3.4 5.3-7.6 7.2-12.6 -3.8 1.3-7.7 2-11.5 2C299.8 166.9 298.8 166.9 297.9 166.8z" class="h"/><path d="M291.8 189.6c-1.6-2-2.3-4.5-2-7.3 0.5-5.1 3.4-9 6.1-12.8 0.6-0.9 1.3-1.8 1.9-2.7 -0.3 0-0.6-0.1-1-0.1 -0.5 0.8-1.1 1.5-1.7 2.3 -2.8 3.8-5.7 7.8-6.3 13.2 -0.3 3 0.5 5.8 2.2 8C291.4 189.9 291.6 189.8 291.8 189.6z" class="i"/><path d="M388.9 82.5c-0.4-1.4-1.5-3-3.4-3.1l-0.9-0.1 0.6-0.7c2.4-2.6 3.1-5.9 1.9-8.5 -1-2.3-3.2-3.7-5.9-3.7 -1.1 0-2.3 0.2-3.5 0.7l-0.9 0.3 0.4-0.9c2-5 1.8-9.6-0.6-13.1 -2-2.9-5.4-4.7-9.1-4.7 -4.1 0-7.9 2.2-10.4 6l-0.4 0.7 -0.3-0.7c-4.1-9.5-11.5-15.2-19.7-15.2 -3.7 0-7.1 1.3-9.1 3.4 -1.2 1.4-1.8 3-1.6 4.7 1.6 4.7 6.4 6.1 6.4 6.1 0 0-5.4-0.7-7.2-5.7 -4.6-2.8-9.1-4.3-13.6-4.3 -7.5 0-12.3 4.1-13.6 7.9 -0.8 2.5-0.3 4.9 1.6 6.8 6 4.6 15.2 4.5 15.2 4.5 -0.1 0-1.1 0.1-2.5 0.1 -2.9 0-7.8-0.5-12-3l-0.1 0c-16 0.1-25 8.4-25.7 16.6 -0.4 5.4 2.9 9.5 8.4 10.5 4.3-3.2 8.6-2.3 8.6-2.3 0 0-3.6-0.2-7.4 2.5l0 0 -0.8 0.6c-0.4 0.3-0.7 0.6-1.1 0.9 -0.1 0.1-0.1 0.1-0.2 0.2 -2.5 2.5-4.1 5.9-4.2 9.3 -0.1 3.1 1 5.8 3.2 7.6 2.4 2.1 5.2 3.2 8.3 3.2 5.6 0 11.6-3.7 15.8-9.9 6.6-9.5 14.5-13.9 23.7-13 5.6-9.7 15.8-15.9 27.1-15.9 5 0 10 1.2 14.7 3.5 6 3 11 6.9 15 11.6 0.6 0.7 1.2 1.4 1.8 2.2C389.1 86.3 389.3 84.2 388.9 82.5zM293.2 91.9c-0.8 0.3-1.6 1.4-1.6 2.4 0 1.5 1.3 1.8 1.4 1.8 0 0-2.2-0.1-2.2-1.8 0-1.3 1-2.8 2.1-3.2 2.2-0.8 3.3 1.4 3.3 1.4C296.1 92.5 294.9 91.3 293.2 91.9zM293.2 69.8c-0.8 0.3-1.6 1.4-1.6 2.4 0 1.5 1.3 1.8 1.4 1.8 0 0-2.2-0.1-2.2-1.8 0-1.3 1-2.8 2.1-3.2 2.2-0.8 3.3 1.4 3.3 1.4C296.1 70.3 294.9 69.2 293.2 69.8zM309.1 71.4c-0.8 0.3-1.5 1.4-1.6 2.4 0 1.5 1.3 1.8 1.4 1.8 0 0-2.2-0.1-2.2-1.8 0-1.3 1-2.8 2.1-3.2 2.2-0.8 3.3 1.4 3.3 1.4C312 72 310.8 70.8 309.1 71.4zM315 52.6c-0.9-0.1-2 0.5-2.5 1.4 -0.7 1.3 0.3 2.2 0.4 2.2 0 0-2-1.1-1.1-2.6 0.6-1.2 2.1-2 3.4-1.8 2.3 0.3 2.2 2.8 2.2 2.8C317.3 54.4 316.7 52.8 315 52.6zM330.2 71.9c-0.9-0.1-2 0.5-2.5 1.3 -0.7 1.3 0.3 2.2 0.3 2.2 0 0-1.9-1.1-1.1-2.6 0.7-1.2 2.2-2 3.4-1.8 2.3 0.3 2.2 2.8 2.2 2.8C332.5 73.7 331.9 72.1 330.2 71.9zM338.5 62.1c0-0.1-0.2-1.8-1.8-2.4 -0.8-0.3-2.1 0-2.7 0.8 -1 1.1-0.2 2.2-0.2 2.2 0 0-1.6-1.5-0.5-2.8 0.9-1 2.6-1.4 3.7-1C339.2 59.7 338.5 62.1 338.5 62.1zM346.7 50.5c-0.9 0-1.9 0.8-2.3 1.7 -0.5 1.4 0.6 2.1 0.7 2.1 0 0-2.1-0.8-1.5-2.4 0.5-1.3 1.8-2.3 3.1-2.3 2.3 0 2.6 2.4 2.6 2.4C349.3 52 348.5 50.5 346.7 50.5zM359.4 67.4c0-0.1 0.6-1.7-0.6-3 -0.6-0.7-1.9-0.9-2.8-0.5 -1.4 0.6-1.1 1.9-1.1 1.9 0 0-0.8-2.1 0.8-2.7 1.2-0.5 2.9-0.2 3.8 0.7C361.1 65.5 359.4 67.4 359.4 67.4zM373.5 63c0-0.1 0.6-1.7-0.6-3 -0.6-0.7-1.9-0.9-2.8-0.5 -1.4 0.6-1.1 1.9-1.1 1.9 0 0-0.8-2.1 0.8-2.7 1.2-0.5 2.9-0.2 3.8 0.7C375.1 61.1 373.5 63 373.5 63z" class="h"/><path d="M292.9 68.9c-1.2 0.4-2.1 1.8-2.1 3.2 0 1.7 2.2 1.8 2.2 1.8 -0.1 0-1.4-0.3-1.3-1.8 0-1 0.7-2.1 1.6-2.4 1.7-0.6 2.9 0.6 3 0.6C296.2 70.4 295.1 68.2 292.9 68.9z" class="i"/><path d="M292.9 91.1c-1.2 0.4-2.1 1.8-2.1 3.2 0 1.7 2.2 1.8 2.2 1.8 -0.1 0-1.4-0.3-1.3-1.8 0-1 0.7-2.1 1.6-2.4 1.7-0.6 2.9 0.6 3 0.6C296.2 92.5 295.1 90.3 292.9 91.1z" class="i"/><path d="M308.8 70.6c-1.2 0.4-2.1 1.8-2.1 3.2 0 1.7 2.2 1.8 2.2 1.8 -0.1 0-1.4-0.3-1.3-1.8 0-1 0.7-2.1 1.6-2.4 1.7-0.6 2.9 0.6 3 0.6C312.1 72 311 69.8 308.8 70.6z" class="i"/><path d="M355.7 63.1c-1.6 0.6-0.8 2.8-0.8 2.8 0-0.1-0.2-1.4 1.1-1.9 0.9-0.4 2.2-0.1 2.8 0.5 1.2 1.3 0.6 2.9 0.6 3 0 0 1.6-1.9 0-3.6C358.7 62.9 357 62.6 355.7 63.1z" class="i"/><path d="M369.7 58.7c-1.6 0.6-0.8 2.8-0.8 2.8 0-0.1-0.2-1.4 1.1-1.9 0.9-0.4 2.2-0.1 2.8 0.5 1.2 1.3 0.6 2.9 0.6 3 0 0 1.6-1.9 0-3.6C372.7 58.5 371 58.2 369.7 58.7z" class="i"/><path d="M337 58.9c-1.1-0.5-2.8 0-3.7 1 -1.2 1.3 0.5 2.8 0.5 2.8 0 0-0.8-1.2 0.2-2.2 0.7-0.7 1.9-1.1 2.7-0.7 1.7 0.7 1.8 2.4 1.8 2.4C338.5 62.1 339.2 59.7 337 58.9z" class="i"/><path d="M330.3 71c-1.2-0.2-2.7 0.6-3.4 1.8 -0.8 1.5 1.1 2.6 1.1 2.6 0 0-1-0.9-0.3-2.2 0.5-0.9 1.6-1.5 2.5-1.3 1.8 0.3 2.3 1.9 2.3 2C332.5 73.8 332.6 71.3 330.3 71z" class="i"/><path d="M346.7 49.6c-1.2 0-2.6 1-3.1 2.3 -0.6 1.6 1.5 2.4 1.5 2.4 0 0-1.2-0.8-0.7-2.1 0.3-0.9 1.4-1.7 2.3-1.7 1.8 0 2.6 1.5 2.6 1.6C349.3 52 349 49.6 346.7 49.6z" class="i"/><path d="M315.1 51.7c-1.2-0.2-2.7 0.7-3.4 1.8 -0.8 1.5 1.1 2.6 1.1 2.6 0 0-1.1-0.9-0.4-2.2 0.5-0.9 1.6-1.5 2.5-1.4 1.8 0.2 2.3 1.9 2.4 1.9C317.3 54.5 317.4 52 315.1 51.7z" class="i"/><path d="M328.9 86.3c-9.1-0.8-17.1 3.6-23.7 13 -4.3 6.2-10.2 9.9-15.8 9.9 -3.1 0-5.8-1.1-8.3-3.2 -2.1-1.8-3.3-4.5-3.2-7.6 0.1-3.4 1.6-6.8 4.2-9.3 0.1-0.1 0.1-0.1 0.2-0.2 0.3-0.3 0.7-0.6 1.1-0.9l0.8-0.6 0 0c3.8-2.7 7.4-2.5 7.4-2.5 0 0-4.3-0.9-8.6 2.3 -5.5-1-8.8-5-8.4-10.5 0.6-8.2 9.7-16.6 25.7-16.6l0.1 0c4.1 2.6 9.1 3 12 3 1.4 0 2.4-0.1 2.5-0.1 0 0-9.2 0.2-15.2-4.5 -1.9-1.9-2.4-4.3-1.6-6.8 1.3-3.8 6.1-7.9 13.6-7.9 4.4 0 9 1.4 13.6 4.3 1.8 5 7.2 5.7 7.2 5.7 0 0-4.8-1.4-6.4-6.1 -0.2-1.7 0.4-3.3 1.6-4.7 1.9-2.2 5.3-3.4 9.1-3.4 8.2 0 15.6 5.7 19.7 15.2l0.3 0.7 0.4-0.7c2.5-3.8 6.3-6 10.4-6 3.7 0 7.1 1.8 9.1 4.7 2.3 3.5 2.5 8.1 0.6 13.1l-0.4 0.9 0.9-0.3c1.2-0.5 2.4-0.7 3.5-0.7 2.7 0 4.9 1.4 5.9 3.7 1.2 2.7 0.5 5.9-1.9 8.5l-0.6 0.7 0.9 0.1c1.9 0.1 3 1.7 3.4 3.1 0.5 1.6 0.2 3.8-1.4 5.2 -0.6-0.8-1.2-1.5-1.8-2.2 0.8 0.9 1.6 1.9 2.3 2.9 1.9-1.6 2.3-4.2 1.7-6.1 -0.5-1.9-1.8-3.2-3.3-3.6 2.2-2.7 2.8-6.1 1.6-8.9 -1.2-2.6-3.7-4.2-6.7-4.2 -0.9 0-1.9 0.2-2.9 0.5 1.7-4.9 1.4-9.6-1-13 -2.2-3.2-5.8-5.1-9.8-5.1 -4.2 0-8 2.1-10.7 5.8 -4.3-9.4-11.8-15-20.2-15 -4 0-7.6 1.4-9.7 3.7 -1.2 1.3-1.9 2.9-1.9 4.5 -4.5-2.7-9.1-4-13.4-4 -7.9 0-13 4.4-14.4 8.5 -1 2.9-0.3 5.7 1.9 7.8 -15.8 0.5-24.7 9-25.4 17.4 -0.4 5.6 2.9 10 8.4 11.3 0 0 0 0 0 0 -0.2 0.2-0.5 0.4-0.7 0.6l0 0c-2.6 2.7-4.2 6.2-4.3 9.8 -0.1 3.3 1.2 6.3 3.5 8.3 2.6 2.3 5.6 3.4 8.8 3.4 5.9 0 12.1-3.8 16.6-10.2 6.3-9.1 13.9-13.3 22.5-12.7C328.6 86.9 328.8 86.6 328.9 86.3z" class="i"/><path d="M332.3 98c5-8.8 14.3-14.8 23.1-14.8 1.5 0 3.1 0.2 4.5 0.5 11.4 2.7 16 12.8 13.7 30 -2.3 17.5-15.8 29.9-33.1 31 -0.1 8.2 1 12.1 2.1 16.2 0.9 3.2 1.8 6.5 2.1 11.9 0.5 8.3-1.1 14.5-4.8 18.6 -3.1 3.4-7.5 5.2-13.2 5.4 -0.3 0-0.5 0-0.7 0 -4.7 0-8.5-1.5-11.2-4.5 -3.3-3.5-5-9.2-4.6-15.3 0.2-3.3 1-6.1 1.8-8.7 0.1-0.3 0.2-0.6 0.3-0.9 -1.8 4.2-4 7.8-6.5 10.8 -3.5 4.2-7.7 7.6-11.4 10.5 -5 4.1-9.4 7.6-10.6 11.8 3-1.2 7.9-2.4 12-2.4 1.1 0 2.1 0.1 3 0.3 2.9-6.4 7.5-8.6 7.5-8.6 0 0-3.9 2.6-6.6 8.8l0 0 -0.2 0.5c-1.8 3.8-2.6 10.2-1.8 15.9 2.9-3.2 7-5.7 10.7-7.9 3.2-1.9 6-3.6 7.2-5.3l0.7-1 0.1 1.2c0.3 3.9 2 8.8 4.1 11.7 2.3-2.8 6.5-5.2 10.6-7.6 4.5-2.6 8.8-5.1 10-7.7l0.4-0.9 0.4 0.9c2.4 5.7 13.2 11.8 18.6 13.7 0-3.7-0.7-9.3-2.8-13.7l-0.9-1.8 0.1 0.1c-2.1-4.3-4.5-6.9-4.5-7 0 0 3.7 2.9 6 8.3 2.3 1.9 6.4 4 10.7 6.3 5.9 3.1 12.6 6.6 16.1 10.2 1.5-8.3-0.6-13.5-2.9-19.5 -2.2-5.6-4.8-12.1-4.6-22.2 0.2-10.9 4.7-18.7 9-26.3 4.2-7.2 8.5-14.7 9.2-25.1 1.5-20.9-7.8-38-25.5-46.9 -4.6-2.3-9.4-3.4-14.3-3.4 -11.8 0-22.3 6.8-27.4 17.4C330.3 89.8 331.3 93.4 332.3 98z" fill="#BC760F"/><path d="M282.5 202l0.8-0.3c0.2-0.1 0.3-0.1 0.5-0.2 2.9-1.2 8-2.4 12-2.4 1 0 1.9 0.1 2.6 0.2 0 0 0 0.1 0 0.1 -0.1 0.3-0.2 0.5-0.3 0.8l0 0c-1.6 4.2-2.1 10.5-1.2 16l0.2 1 0.6-0.8c2.8-3.4 7.2-6.1 11.1-8.4 2.8-1.7 5.3-3.2 6.8-4.7 0.5 4 2.3 8.6 4.4 11.5 0 0.1 0.1 0.1 0.1 0.2l0.4 0.5 0.3-0.5c0 0 0-0.1 0.1-0.1 2.2-2.8 6.4-5.3 10.6-7.7 4.2-2.4 8.2-4.8 9.9-7.4 3.2 6 14.1 12 19.4 13.6l0.6 0.2 0-0.6c0.1-3.4-0.5-8.7-2.2-13.1 2.4 1.7 6 3.6 9.7 5.5 3.6 1.9 7.5 3.9 10.8 6 0.8 0.5 1.6 1.1 2.4 1.6 1.3 1 2.5 2 3.3 3l0.6 0.7 0.2-0.9c1.8-9-0.3-14.5-2.8-20.8 -2.2-5.6-4.7-11.9-4.6-21.9 0.1-10.7 4.4-18.1 8.9-25.9 4.2-7.3 8.6-14.9 9.3-25.4 0.9-12.8-2.2-24.2-8.7-33.2 -0.7-1-1.5-2-2.3-2.9 -4-4.7-9-8.6-15-11.6 -4.7-2.3-9.6-3.5-14.7-3.5 -11.3 0-21.5 6.2-27.1 15.9 -0.2 0.3-0.3 0.6-0.5 0.8 -0.2 0.4-0.4 0.8-0.6 1.3 0.1 0 0.1 0 0.2-0.1l0.1 0 0.1 0c0.1 0.1 0.3 0.2 0.4 0.3 5.1-10.6 15.6-17.4 27.4-17.4 4.9 0 9.7 1.2 14.3 3.4 17.7 8.8 27 25.9 25.5 46.9 -0.7 10.3-5 17.8-9.2 25.1 -4.4 7.6-8.9 15.4-9 26.3 -0.1 10.2 2.4 16.6 4.6 22.2 2.4 6 4.4 11.2 2.9 19.5 -3.5-3.6-10.2-7.1-16.1-10.2 -4.3-2.3-8.4-4.4-10.7-6.3 -2.4-5.4-6-8.3-6-8.3 0 0 2.4 2.6 4.5 7l-0.1-0.1 0.9 1.8c2.1 4.3 2.8 9.9 2.8 13.7 -5.4-1.9-16.2-8-18.6-13.7l-0.4-0.9 -0.4 0.9c-1.2 2.7-5.4 5.1-10 7.7 -4.1 2.3-8.2 4.8-10.6 7.6 -2.1-3-3.8-7.8-4.1-11.7l-0.1-1.2 -0.7 1c-1.2 1.7-4 3.4-7.2 5.3 -3.7 2.2-7.8 4.7-10.7 7.9 -0.7-5.7 0-12.1 1.8-15.9l0.2-0.5 0 0c2.7-6.1 6.6-8.7 6.6-8.8 0 0-4.6 2.2-7.5 8.6 -0.9-0.2-1.9-0.3-3-0.3 -4.1 0-9 1.2-12 2.4 1.2-4.2 5.6-7.8 10.6-11.8 3.7-3 7.9-6.4 11.4-10.5 2.5-3 4.7-6.6 6.5-10.8 0.2-0.9 0.5-1.8 0.7-2.6 -0.2 0.1-0.4 0.2-0.7 0.2 -1.9 5-4.3 9.2-7.2 12.6 -3.5 4.1-7.6 7.5-11.3 10.4 -0.7 0.5-1.3 1-1.9 1.6 -0.2 0.2-0.4 0.4-0.7 0.6 -4.3 3.5-7.7 6.8-8.4 10.9 0 0.1 0 0.1 0 0.2L282.5 202z" fill="#603802"/><path d="M329.3 104.4c0.8-3.5 0.7-6.9-0.2-9.7 -0.7-2.2-2-4-3.4-4.7 -1.7 1.2-3 3.6-4.1 6.3 0.7-0.2 1.4-0.2 2.1 0 2.7 1 3.7 5.8 2.4 10.6 -0.8 2.8-2.3 5.1-3.9 6.2 0.5 0.2 1 0.5 1.6 0.8 0.1 0.1 0.2 0.1 0.3 0.2C326.4 112.2 328.4 108.6 329.3 104.4z" class="a"/><path d="M351.6 125l0.1 0c0.8 0 1.6-0.1 2.4-0.3 5.9-1.7 10.3-9.4 10.5-18.2 0.1-5-1.2-9.7-3.5-13.3 -2.4-3.6-5.5-5.5-8.9-5.6l-0.1 0c-0.8 0-1.6 0.1-2.4 0.3 -5.9 1.7-10.3 9.4-10.5 18.2 -0.1 5 1.2 9.7 3.5 13.3C345 122.9 348.2 124.9 351.6 125zM342.8 108.2c0.6-7 5-12.1 9.8-11.4 4.8 0.7 8.2 7 7.6 14.1 -0.6 7-5 12.1-9.8 11.4C345.6 121.6 342.2 115.3 342.8 108.2z" class="a"/><path d="M372.8 113.6c2.3-16.9-2-26.4-13-29 -1.4-0.3-2.9-0.5-4.3-0.5 -8.8 0-18.2 6.3-22.9 15.4l-0.6 1.1 -0.2-1.2c-1-4.9-2-9.3-3.6-10.1 -0.6 0.1-1.2 0.3-1.7 0.7 3.3 2 4.8 8.1 3.4 14.6 -0.9 4.3-2.9 7.9-5.3 10 1.5 1.1 2.8 2.5 4.2 4 3.8 4 8.2 8.6 16.2 8.4v0c0.7-0.1 1.3-0.1 1.7-0.1l0.2 0c3.2 0.1 6 1.2 7.6 3.2 1.3 1.6 1.7 3.7 1.3 6 -0.8 3.9-4.7 6.5-9.8 6.5 -1.3 0-2.6-0.2-3.8-0.5 -0.4 0.6-0.8 1.2-1.3 1.8C357.5 142.7 370.5 130.6 372.8 113.6zM351.7 125.7h0l-0.1 0c-2.7 0-5.3-1.2-7.5-3.5 -3.6-3.7-5.7-9.7-5.6-16.1 0.2-10.6 6.3-19.3 13.6-19.3l0.1 0c2.7 0 5.3 1.2 7.5 3.5 3.6 3.7 5.7 9.7 5.6 16.1C365.1 117 359 125.7 351.7 125.7z" class="h"/><path d="M359.9 83.8c-1.5-0.4-3-0.5-4.5-0.5 -8.8 0-18.1 6-23.1 14.8 -1-4.7-2-8.2-3.6-9.4 -0.1-0.1-0.3-0.2-0.4-0.3l-0.1 0 -0.1 0c-0.1 0-0.1 0-0.2 0.1 -0.9 0.2-1.7 0.5-2.4 1.1 -0.2-0.1-0.3-0.1-0.5-0.1 -4.3-0.9-9.1 4.5-10.7 11.9 -1.1 5.1-0.4 9.9 1.5 12.7 0.1-0.1 0.3-0.2 0.4-0.2 -0.5-0.7-1-1.6-1.3-2.7 -0.9-2.8-0.9-6.2-0.2-9.7 1.3-6.2 5-11 8.7-11.5 0.5-0.1 1-0.1 1.5 0 0 0 0.1 0 0.1 0 0 0 0.1 0 0.2 0 0.2 0 0.3 0.1 0.3 0.2 0.2 0 0.3 0.1 0.4 0.3 0 0 0.1 0 0.1-0.1 1.5 0.7 2.6 2.3 3.3 4.5 0.9 2.8 0.9 6.2 0.2 9.7 -0.9 4.2-2.9 7.8-5.3 9.9 0.1 0.1 0.2 0.2 0.4 0.3 2.4-2.1 4.4-5.7 5.3-10 1.4-6.5-0.1-12.6-3.4-14.6 0.5-0.3 1.1-0.5 1.7-0.7 1.6 0.9 2.6 5.3 3.6 10.1l0.2 1.2 0.6-1.1c4.7-9.1 14.1-15.4 22.9-15.4 1.5 0 2.9 0.2 4.3 0.5 11 2.6 15.3 12.1 13 29 -2.3 17-15.3 29.1-32.1 30.2 -0.3 0.4-0.7 0.9-1 1.4 -0.1 8 1 11.9 2.1 16 0.9 3.1 1.8 6.4 2.1 11.7 0.5 8-1 14.1-4.6 18 -2.9 3.2-7.1 4.9-12.5 5.1 -4.8 0.2-8.6-1.2-11.3-4.2 -3.1-3.3-4.7-8.8-4.3-14.7 0.2-3.2 1-5.9 1.8-8.5 0.4-1.4 0.8-2.7 1.1-4.1 -0.3 0.1-0.6 0.2-1 0.3 -0.2 0.9-0.4 1.8-0.7 2.6 -0.1 0.3-0.2 0.6-0.3 0.9 -0.8 2.6-1.6 5.4-1.8 8.7 -0.4 6.1 1.3 11.8 4.6 15.3 2.8 3 6.5 4.5 11.3 4.5 0.2 0 0.5 0 0.8 0 5.7-0.2 10.1-2 13.2-5.4 3.7-4.1 5.4-10.4 4.8-18.6 -0.3-5.4-1.2-8.7-2.1-11.9 -1.1-4.1-2.2-8-2.1-16.2 17.3-1.1 30.8-13.5 33.1-31C375.9 96.6 371.3 86.5 359.9 83.8z" class="i"/><path d="M326.1 107c1.3-4.8 0.3-9.6-2.4-10.6 -0.7-0.3-1.4-0.3-2.1 0 -0.4 0.1-0.8 0.3-1.1 0.5 -1.7 1.1-3.2 3.4-4.1 6.4 -1 3.7-0.6 7.3 0.8 9.3 0.1 0.2 0.3 0.4 0.5 0.5 0.1 0 0.2 0 0.2-0.1 -1.8-1.7-2.4-5.6-1.3-9.6 1.3-4.7 4.5-7.7 7.1-6.6 2.6 1 3.6 5.6 2.3 10.3 -0.8 2.9-2.3 5.1-3.9 6.2 0.1 0 0.1 0 0.2 0.1C323.9 112.1 325.3 109.9 326.1 107z" class="m"/><path d="M326 107c1.3-4.7 0.3-9.3-2.3-10.3 -2.6-1-5.8 2-7.1 6.6 -1.1 4-0.5 7.9 1.3 9.6 1.3-0.3 2.7-0.3 4.1 0.2C323.7 112.1 325.2 109.9 326 107zM319.9 111.6c-1.8-0.4-2.7-3.4-2-6.7 0.7-3.3 2.8-5.7 4.6-5.3 1.8 0.4 2.7 3.4 2 6.7C323.8 109.6 321.7 112 319.9 111.6z" class="n"/><path d="M324.5 106.3c0.7-3.3-0.2-6.3-2-6.7 -1.8-0.4-3.9 2-4.6 5.3 -0.7 3.3 0.2 6.3 2 6.7C321.7 112 323.8 109.6 324.5 106.3z"/><path d="M359.7 90.3c-2.2-2.3-4.8-3.5-7.5-3.5l-0.1 0c-7.3 0-13.4 8.7-13.6 19.3 -0.1 6.4 2 12.4 5.6 16.1 2.2 2.3 4.8 3.5 7.5 3.5l0.1 0h0c7.3 0 13.4-8.7 13.6-19.3C365.3 100 363.3 94 359.7 90.3zM349.6 87.8c0.8-0.2 1.6-0.3 2.4-0.3l0.1 0c3.4 0 6.5 2 8.9 5.6 2.4 3.6 3.6 8.3 3.5 13.3 -0.1 8.9-4.5 16.5-10.5 18.2 -0.8 0.2-1.6 0.3-2.4 0.3l-0.1 0c-3.4 0-6.5-2-8.9-5.6 -2.4-3.6-3.6-8.3-3.5-13.3C339.3 97.2 343.7 89.5 349.6 87.8z" class="i"/><path d="M350.3 122.3c4.8 0.7 9.2-4.4 9.8-11.4 0.6-7-2.8-13.3-7.6-14.1 -4.8-0.7-9.2 4.4-9.8 11.4C342.2 115.3 345.6 121.6 350.3 122.3zM343.1 108.3c0.6-6.8 4.8-11.8 9.5-11 4.6 0.7 7.9 6.8 7.3 13.6 -0.6 6.8-4.8 11.8-9.5 11C345.8 121.2 342.5 115.1 343.1 108.3z" class="m"/><path d="M350.4 122c4.6 0.7 8.9-4.2 9.5-11 0.6-6.8-2.7-12.9-7.3-13.6 -4.6-0.7-8.9 4.2-9.5 11C342.5 115.1 345.8 121.2 350.4 122zM351.7 101.6c3.1 0 5.6 3.9 5.5 8.7 -0.1 4.8-2.7 8.6-5.8 8.6 -3.1 0-5.6-3.9-5.5-8.7C346 105.4 348.5 101.5 351.7 101.6z" class="n"/><path d="M351.4 118.9c3.1 0 5.7-3.8 5.8-8.6 0.1-4.8-2.4-8.7-5.5-8.7 -3.1 0-5.7 3.8-5.8 8.6C345.8 114.9 348.3 118.8 351.4 118.9z"/><path d="M311 177.1c-0.4 5.8 1.2 11.3 4.3 14.7 2.7 2.9 6.5 4.3 11.3 4.2 5.4-0.2 9.6-1.9 12.5-5.1 3.6-3.9 5.1-10 4.6-18 -0.3-5.3-1.2-8.6-2.1-11.7 -1.1-4.1-2.2-8-2.1-16 -5.4 6.8-14.4 14.9-25.6 19.2 0 0-0.1 0-0.1 0.1 -0.3 1.4-0.7 2.7-1.1 4.1C312 171.1 311.3 173.8 311 177.1z" class="h"/><path d="M300.8 166.1c4.3 0 8.6-0.8 12.9-2.5 17.1-6.6 26.6-20.7 27.7-22.3l0.2-0.3 0.3 0.1c1.3 0.4 2.6 0.5 3.9 0.5 4.7 0 8.2-2.3 9-5.8 0.4-2 0.1-3.9-1.1-5.3 -1.4-1.8-3.9-2.8-6.9-2.9l-0.1 0c-0.5 0-1.2 0-2.1 0.1l0 0c-8.2 0-12.6-4.6-16.5-8.7 -1.6-1.7-3.1-3.3-4.7-4.3 -5-3.2-8.9 1.1-10 2.5l-0.1 0.2 -0.2 0c-2.7 0.2-6.9-0.9-11.8-2.2 -10.6-2.8-25.1-6.5-35.7-0.5 -10.3 5.8-13.2 16.6-10.9 22.1 2.9-2.2 9.2-4.6 17-1.3 11.1 4.8 19.8 6.3 35.7 6.3 0.1 0 0.2 0 0.3 0 17 0 26.8-4.8 32.2-9 -2-1-3.6-1.1-3.6-1.1 0 0 2.2-0.8 4.6 0.6 2.5 1.5 2.2 4.6 2.2 4.6 0 0-0.4-2.4-2.4-3.7 -0.2 0.2-0.4 0.3-0.7 0.5 -3.8 9.5-14.9 19.5-28.4 25.6 -6.1 2.7-12.2 4.2-17.5 4.2h0c-2.7 0-5.2-0.4-7.5-1.1C290 164.5 294.9 166.1 300.8 166.1zM316.5 121.7c1.1 0 2.1 1.2 2.1 2.7 0 1.5-0.9 2.7-2.1 2.7 -1.1 0-2.1-1.2-2.1-2.7C314.4 123 315.3 121.7 316.5 121.7z" class="o"/><path d="M332.4 138.3c0 0.1-0.1 0.1-0.1 0.2 -0.2 0.3-0.4 0.5-0.6 0.8 -0.5 0.6-0.9 1.1-1.4 1.7 -0.2 0.3-0.5 0.6-0.8 0.8 -0.5 0.5-1 1.1-1.5 1.6 -0.3 0.3-0.6 0.6-0.9 0.8 -0.5 0.5-1.1 1-1.6 1.5 -0.3 0.3-0.6 0.6-1 0.8 -0.6 0.5-1.1 0.9-1.7 1.4 -0.3 0.3-0.7 0.5-1 0.8 -0.6 0.5-1.3 0.9-2 1.4 -0.3 0.2-0.6 0.4-0.9 0.6 -1 0.6-2 1.3-3 1.8 -3 1.7-5.8 3.1-8.4 4.3 -0.4 0.2-0.8 0.4-1.1 0.5 -0.2 0.1-0.4 0.2-0.6 0.2 -0.8 0.3-1.5 0.6-2.2 0.9l-0.6 0.2v0c-3.4 1.1-6.4 1.7-9.1 1.7 -1.9 0-3.6-0.3-5.1-0.8l-0.7-0.3 0.6-0.5c2.9-2.4 8.9-9.1 13.2-16 -0.8 0-1.7-0.1-2.5-0.1 0 0 0 0.1-0.1 0.1 -0.1 0.2-0.3 0.5-0.4 0.7 -0.2 0.3-0.4 0.6-0.5 0.8 -0.2 0.2-0.3 0.5-0.4 0.7 -0.2 0.3-0.4 0.6-0.6 0.9 -0.2 0.2-0.3 0.5-0.5 0.7 -0.2 0.3-0.5 0.6-0.7 0.9 -0.2 0.2-0.3 0.4-0.5 0.6 -0.2 0.3-0.5 0.6-0.8 1 -0.2 0.2-0.3 0.4-0.4 0.6 -0.3 0.3-0.5 0.6-0.8 1 -0.2 0.2-0.3 0.4-0.5 0.5 -0.3 0.3-0.5 0.6-0.8 0.9 -0.2 0.2-0.3 0.4-0.5 0.5 -0.3 0.3-0.5 0.6-0.8 0.9 -0.2 0.2-0.3 0.3-0.5 0.5 -0.3 0.3-0.5 0.6-0.8 0.8 -0.2 0.2-0.3 0.3-0.5 0.5 -0.2 0.3-0.5 0.5-0.7 0.7 -0.2 0.2-0.3 0.3-0.5 0.5 -0.2 0.2-0.5 0.4-0.7 0.7 -0.2 0.2-0.3 0.3-0.5 0.5 -0.2 0.2-0.4 0.4-0.6 0.6 -0.2 0.2-0.3 0.3-0.5 0.5 -0.2 0.2-0.4 0.3-0.5 0.5 -0.2 0.1-0.3 0.3-0.5 0.4 -0.2 0.1-0.3 0.3-0.5 0.4 -0.1 0.1-0.3 0.2-0.4 0.4 2.9 1.5 6.4 2.3 10.2 2.3h0c5.2 0 11.2-1.4 17.2-4.1 12.7-5.7 23.2-14.9 27.4-23.8C336.9 136.1 334.8 137.2 332.4 138.3z" class="o"/><path d="M297.9 166.8c1 0.1 1.9 0.1 2.9 0.1 3.8 0 7.6-0.7 11.5-2 0.2-0.1 0.4-0.1 0.7-0.2 0.3-0.1 0.6-0.2 1-0.3 0 0 0.1 0 0.1 0 11.2-4.3 20.3-12.4 25.6-19.2 0.4-0.5 0.7-0.9 1-1.3 0.4-0.6 0.9-1.2 1.3-1.8 1.2 0.3 2.5 0.5 3.8 0.5 5.1 0 9-2.5 9.8-6.5 0.5-2.3 0.1-4.4-1.2-6 -1.6-2-4.3-3.1-7.6-3.2l-0.2 0c-0.4 0-1 0-1.7 0.1v0c-8.1 0.1-12.4-4.4-16.2-8.4 -1.4-1.5-2.8-2.9-4.2-4 -0.1-0.1-0.2-0.2-0.4-0.3 -0.1-0.1-0.2-0.1-0.3-0.2 -0.5-0.3-1-0.6-1.5-0.8 -0.1 0-0.1-0.1-0.2-0.1 -1.4-0.5-2.8-0.5-4.1-0.2 -0.1 0-0.2 0-0.2 0.1 -0.2 0.1-0.4 0.1-0.5 0.2 -0.4 0.1-0.7 0.3-1 0.5 -0.1 0.1-0.3 0.2-0.4 0.2 -1.1 0.7-2.1 1.6-2.9 2.6 -2.6 0.1-6.6-1-11.3-2.2 -10.7-2.8-25.5-6.6-36.3-0.5 -10.5 5.9-14.2 17.3-11 23.8l0.3 0.5 0.4-0.4c2.5-2.1 8.7-4.8 16.5-1.5 8.9 3.9 16.3 5.6 27 6.2 -4.1 7-11.9 14.7-15.5 17.7l-0.5 0.4 0.5 0.3c2.8 2.4 7.7 5 14 5.7C297.2 166.7 297.5 166.8 297.9 166.8zM311.2 158.7c-6 2.7-11.9 4.1-17.2 4.1h0c-3.9 0-7.3-0.8-10.2-2.3 0.1-0.1 0.3-0.2 0.4-0.4 0.2-0.1 0.3-0.3 0.5-0.4 0.2-0.1 0.3-0.3 0.5-0.4 0.2-0.2 0.4-0.3 0.5-0.5 0.2-0.1 0.3-0.3 0.5-0.5 0.2-0.2 0.4-0.4 0.6-0.6 0.2-0.2 0.3-0.3 0.5-0.5 0.2-0.2 0.5-0.4 0.7-0.7 0.2-0.2 0.3-0.3 0.5-0.5 0.2-0.2 0.5-0.5 0.7-0.7 0.2-0.2 0.3-0.3 0.5-0.5 0.3-0.3 0.5-0.5 0.8-0.8 0.2-0.2 0.3-0.3 0.5-0.5 0.3-0.3 0.5-0.6 0.8-0.9 0.2-0.2 0.3-0.4 0.5-0.5 0.3-0.3 0.5-0.6 0.8-0.9 0.2-0.2 0.3-0.4 0.5-0.5 0.3-0.3 0.5-0.6 0.8-1 0.2-0.2 0.3-0.4 0.5-0.6 0.3-0.3 0.5-0.6 0.8-1 0.2-0.2 0.3-0.4 0.5-0.6 0.2-0.3 0.5-0.6 0.7-0.9 0.2-0.2 0.3-0.4 0.5-0.7 0.2-0.3 0.4-0.6 0.6-0.9 0.2-0.2 0.3-0.5 0.5-0.7 0.2-0.3 0.4-0.6 0.5-0.8 0.2-0.3 0.3-0.5 0.4-0.7 0 0 0-0.1 0.1-0.1 0.8 0 1.6 0.1 2.5 0.1 -4.3 7-10.3 13.7-13.2 16l-0.6 0.5 0.7 0.3c1.5 0.5 3.3 0.8 5.1 0.8 2.7 0 5.7-0.6 9.1-1.7 0.2-0.1 0.4-0.1 0.6-0.2 0.7-0.3 1.5-0.6 2.2-0.9 0.2-0.1 0.4-0.2 0.6-0.2 0.4-0.2 0.8-0.3 1.1-0.5 2.6-1.1 5.4-2.5 8.4-4.3 1-0.6 2-1.2 3-1.8 0.3-0.2 0.6-0.4 0.9-0.6 0.7-0.5 1.3-0.9 2-1.4 0.3-0.3 0.7-0.5 1-0.8 0.6-0.5 1.2-0.9 1.7-1.4 0.3-0.3 0.6-0.6 1-0.8 0.6-0.5 1.1-1 1.6-1.5 0.3-0.3 0.6-0.6 0.9-0.8 0.5-0.5 1-1 1.5-1.6 0.3-0.3 0.5-0.6 0.8-0.8 0.5-0.6 1-1.1 1.4-1.7 0.2-0.3 0.4-0.5 0.6-0.8 0-0.1 0.1-0.1 0.1-0.2 0 0 0 0 0 0 2.5-1.1 4.5-2.2 6.2-3.4C334.4 143.8 323.9 153 311.2 158.7zM330.7 139c0 0 0 0 0 0 0 0-0.1 0.1-0.1 0.1 -0.5 0.6-0.9 1.1-1.5 1.7 -0.2 0.3-0.5 0.5-0.7 0.8 -0.5 0.5-1 1-1.5 1.5 -0.3 0.3-0.6 0.5-0.9 0.8 -0.5 0.5-1 0.9-1.5 1.4 -0.3 0.3-0.6 0.5-0.9 0.8 -0.5 0.4-1.1 0.9-1.7 1.3 -0.3 0.2-0.6 0.5-1 0.7 -0.6 0.5-1.2 0.9-1.9 1.3 -0.3 0.2-0.6 0.4-0.9 0.6 -0.9 0.6-1.9 1.2-2.9 1.8 -1 0.5-1.9 1.1-2.8 1.5 -0.2 0.1-0.5 0.3-0.7 0.4 -0.9 0.5-1.8 0.9-2.6 1.3 0 0-0.1 0-0.1 0.1 -0.9 0.4-1.7 0.8-2.5 1.1 -0.1 0.1-0.3 0.1-0.4 0.2 -1.2 0.5-2.3 0.9-3.4 1.3 -5.3 1.8-9.6 2.2-13.2 1.2 3.3-2.9 9-9.4 13.1-16.2 1.5 0 3 0.1 4.6 0.1 0.1 0 0.2 0 0.3 0 0.8 0 1.6 0 2.4 0 0.5 0 1 0 1.4-0.1 2.9-0.1 5.6-0.4 8.1-0.8 0.3-0.1 0.6-0.1 0.9-0.2C324.5 141 327.8 140.1 330.7 139zM294.1 163.6h0c5.4 0 11.4-1.4 17.5-4.2 13.5-6 24.6-16 28.4-25.5 0.2-0.2 0.4-0.3 0.7-0.5 2 1.3 2.4 3.7 2.4 3.7 0 0 0.4-3.1-2.2-4.6 -2.5-1.4-4.6-0.6-4.6-0.6 0 0 1.6 0.1 3.6 1.1 -5.4 4.2-15.2 9-32.2 9 -0.1 0-0.2 0-0.3 0 -15.9 0-24.6-1.6-35.7-6.3 -7.7-3.3-14.1-0.9-17 1.3 -2.3-5.6 0.6-16.3 10.9-22.1 10.6-6 25.1-2.2 35.7 0.5 4.9 1.3 9.1 2.4 11.8 2.2l0.2 0 0.1-0.2c1.1-1.4 5-5.7 10-2.5 1.6 1 3.1 2.6 4.7 4.3 3.9 4.1 8.3 8.7 16.5 8.7l0 0c0.8-0.1 1.5-0.1 2.1-0.1l0.1 0c3 0.1 5.5 1.1 6.9 2.9 1.1 1.4 1.5 3.3 1.1 5.3 -0.7 3.5-4.3 5.8-9 5.8 -1.3 0-2.6-0.2-3.9-0.5l-0.3-0.1 -0.2 0.3c-1 1.6-10.6 15.7-27.7 22.3 -4.3 1.7-8.7 2.5-12.9 2.5 -5.9 0-10.8-1.6-14.2-3.6C288.9 163.2 291.4 163.6 294.1 163.6z" class="p"/><path d="M310.1 142.7c-0.8 0-1.6 0-2.4 0 -0.1 0-0.2 0-0.3 0 -1.6 0-3.1 0-4.6-0.1 -4.1 6.8-9.8 13.3-13.1 16.2 3.5 1 7.8 0.6 13.2-1.2 0-5.1 1.8-9.6 5.5-13.3C308.9 143.8 309.5 143.3 310.1 142.7z" class="q"/><path d="M315.8 147.5c0 0 1.3-2.7 3.9-5.6 -2.5 0.4-5.2 0.7-8.1 0.8 -0.9 0.7-1.8 1.5-2.6 2.3 -3.4 3.5-5.2 7.7-5.2 12.4 0.8-0.3 1.7-0.6 2.5-1 0.1-0.1 0.3-0.1 0.4-0.2 0.8-0.4 1.7-0.7 2.5-1.1 0 0 0.1 0 0.1-0.1 0.9-0.4 1.7-0.9 2.6-1.3 0.2-0.1 0.5-0.2 0.7-0.4 0.9-0.5 1.8-1 2.8-1.5 1-0.6 1.9-1.1 2.9-1.8 0.3-0.2 0.6-0.4 0.9-0.6 0.6-0.4 1.3-0.9 1.9-1.3 0.3-0.2 0.6-0.5 1-0.7 0.6-0.4 1.1-0.9 1.7-1.3 0.3-0.3 0.6-0.5 0.9-0.8 0.5-0.5 1-0.9 1.5-1.4 0.3-0.3 0.6-0.5 0.9-0.8 0.5-0.5 1-1 1.5-1.5 0.2-0.3 0.5-0.5 0.7-0.8 0.5-0.6 1-1.1 1.5-1.7 0 0 0.1-0.1 0.1-0.1 -2.9 1.1-6.2 2.1-10.2 2.7C317.5 144.6 315.8 147.5 315.8 147.5z" fill="#FFACA4"/><path d="M303.4 158.4c-0.2 0.1-0.4 0.1-0.6 0.2v0L303.4 158.4z" class="r"/><path d="M305.7 157.6c0.2-0.1 0.4-0.2 0.6-0.2C306.1 157.4 305.9 157.5 305.7 157.6z" class="r"/><path d="M329.4 141.8c-0.5 0.5-1 1.1-1.5 1.6C328.4 142.9 328.9 142.3 329.4 141.8z" class="r"/><path d="M325.4 145.7c0.6-0.5 1.1-1 1.6-1.5C326.5 144.7 326 145.2 325.4 145.7z" class="r"/><path d="M322.7 147.9c0.6-0.5 1.2-0.9 1.7-1.4C323.9 147 323.3 147.5 322.7 147.9z" class="r"/><path d="M319.7 150.1c0.7-0.5 1.3-0.9 2-1.4C321.1 149.2 320.4 149.6 319.7 150.1z" class="r"/><path d="M318.8 150.7c-1 0.6-2 1.3-3 1.8C316.8 152 317.8 151.4 318.8 150.7z" class="r"/><path d="M330.2 141c0.5-0.6 1-1.1 1.4-1.7C331.2 139.8 330.7 140.4 330.2 141z" class="r"/><path d="M315.8 152.6c-3 1.7-5.8 3.1-8.4 4.3C310 155.7 312.8 154.3 315.8 152.6z" class="r"/><path d="M332.4 138.3c0 0 0 0 0 0 0 0.1-0.1 0.1-0.1 0.2C332.3 138.4 332.3 138.4 332.4 138.3z" class="r"/><path d="M309 145c0.8-0.8 1.7-1.6 2.6-2.3 -0.5 0-1 0-1.4 0.1 -0.6 0.5-1.2 1.1-1.8 1.6 -3.7 3.7-5.5 8.2-5.5 13.3 1.1-0.4 2.2-0.8 3.4-1.3 -0.9 0.4-1.7 0.7-2.5 1C303.8 152.7 305.5 148.5 309 145z" class="r"/><path d="M311.9 153.7c-0.9 0.5-1.8 0.9-2.6 1.3C310.1 154.6 311 154.2 311.9 153.7z" class="r"/><path d="M309.1 155.1c-0.9 0.4-1.7 0.8-2.5 1.1C307.4 155.9 308.3 155.5 309.1 155.1z" class="r"/><path d="M319.1 149.5c-0.3 0.2-0.6 0.4-0.9 0.6C318.6 149.9 318.8 149.7 319.1 149.5z" class="r"/><path d="M324.6 145.3c-0.3 0.3-0.6 0.5-0.9 0.8C324 145.8 324.3 145.6 324.6 145.3z" class="r"/><path d="M327 143.1c-0.3 0.3-0.6 0.5-0.9 0.8C326.4 143.6 326.7 143.4 327 143.1z" class="r"/><path d="M322 147.4c-0.3 0.2-0.6 0.5-1 0.7C321.3 147.9 321.7 147.6 322 147.4z" class="r"/><path d="M328.4 141.6c0.2-0.3 0.5-0.5 0.7-0.8C328.9 141.1 328.7 141.3 328.4 141.6z" class="r"/><path d="M312.6 153.4c0.9-0.5 1.8-1 2.8-1.5C314.4 152.4 313.5 152.9 312.6 153.4z" class="r"/><path d="M330.7 139c0 0 0 0 0 0 0 0-0.1 0.1-0.1 0.1C330.7 139 330.7 139 330.7 139z" class="r"/><path d="M315.8 147.5c0 0 1.7-2.9 4.8-5.8 -0.3 0.1-0.6 0.1-0.9 0.2C317.1 144.8 315.8 147.5 315.8 147.5z" class="r"/><path d="M316.5 126.3c0.7 0 1.2-0.8 1.2-1.8 0-1-0.6-1.8-1.2-1.8 -0.7 0-1.2 0.8-1.2 1.8C315.3 125.4 315.8 126.3 316.5 126.3z" class="q"/><path d="M316.5 127.1c1.1 0 2.1-1.2 2.1-2.7 0-1.5-0.9-2.7-2.1-2.7 -1.1 0-2.1 1.2-2.1 2.7C314.4 125.9 315.3 127.1 316.5 127.1zM316.5 122.6c0.7 0 1.2 0.8 1.2 1.8 0 1-0.6 1.8-1.2 1.8 -0.7 0-1.2-0.8-1.2-1.8C315.3 123.5 315.8 122.6 316.5 122.6z" class="p"/><path d="M352.8 100.5c1.3 1 1.6 2.9 0.5 4.3 -1 1.3-2.9 1.6-4.2 0.5 -1.3-1-1.5-2.9-0.5-4.2C349.6 99.7 351.5 99.4 352.8 100.5z" class="a"/><path d="M352.2 107.3c0.6 0.4 0.7 1.2 0.2 1.8 -0.4 0.6-1.2 0.7-1.8 0.2 -0.6-0.4-0.7-1.2-0.2-1.8C350.8 107 351.6 106.9 352.2 107.3z" class="a"/><path d="M323.8 98.7c0.8 0.6 0.9 1.8 0.3 2.6 -0.6 0.8-1.8 0.9-2.6 0.3 -0.8-0.6-0.9-1.8-0.3-2.6C321.8 98.2 323 98 323.8 98.7z" class="a"/><path d="M321.5 103c0.3 0.3 0.4 0.8 0.1 1.1 -0.3 0.3-0.8 0.4-1.1 0.1 -0.3-0.3-0.4-0.8-0.1-1.1C320.7 102.8 321.2 102.8 321.5 103z" class="a"/></svg>