<svg xmlns="http://www.w3.org/2000/svg" viewBox="0 0 768 430"><style>.a{fill:#CDEA53;}.b{fill:#A4DB0C;}.c{fill:#6E8703;}.d{fill:#EBD12E;}.e{fill:#EDE36B;}.f{fill:#D9A624;}.g{fill:#F4EEA6;}.h{fill:#8FC24D;}.i{fill:#BDD961;}.j{fill:#6B923A;}.k{fill:#4F9101;}.l{fill:#4FA801;}.m{fill:#4F5E01;}.n{fill:#D7E8A0;}.o{fill:#0C1E01;}.p{fill:#DBD9D9;}.q{fill:#FFF;}.r{fill:#0067FC;}.s{fill:#024384;}.t{fill:#231F20;}</style><path d="M322 96.6c0 0-18.1-18.8-36.1-21.4 -14-2.1-25.4 1.2-27.8 8.7 -2.4 7.5 2.6 12.3 10.1 11.5 7.5-0.7 21.9-3.6 27.3-3.6 5.4 0 13.8-0.5 21.5 6.3C319 97.8 322 96.6 322 96.6z" class="a"/><path d="M307 84.3c-16.2-5.5-35.3-6.2-49.5 2.1 -0.6 6 4.1 9.7 10.6 9 7.5-0.7 21.9-3.6 27.3-3.6 5.4 0 13.8-0.5 21.5 6.3 1.9-0.2 4.9-1.4 4.9-1.4S315.8 90.2 307 84.3z" class="b"/><path d="M316.9 98.6l-0.2-0.2c-6.2-5.4-12.8-6.1-19-6.1l-2.2 0c-3.1 0-9.3 1-15.3 1.9 -4.3 0.7-8.8 1.4-12 1.7 -4.3 0.4-7.9-0.9-9.8-3.6 -1.6-2.3-2-5.3-0.9-8.7 1.9-6 9.5-9.6 20.3-9.6 2.6 0 5.3 0.2 8 0.6 18 2.6 36.2 21.4 36.4 21.6l0.6 0.6 -0.7 0.3c-0.1 0-3.1 1.2-5.1 1.5L316.9 98.6zM297.7 91.2c6.4 0 13.1 0.8 19.5 6.2 1.2-0.2 2.8-0.7 3.8-1.1 -3.2-3.2-19.3-18.3-35.2-20.7 -2.7-0.4-5.4-0.6-7.9-0.6 -10.3 0-17.5 3.3-19.3 8.9 -1 3-0.7 5.7 0.7 7.7 1.7 2.4 4.9 3.5 8.8 3.1 3.1-0.3 7.6-1 11.9-1.7 6-0.9 12.3-1.9 15.4-1.9L297.7 91.2z" class="c"/><path d="M391.8 105.8c0 0 14-22.2 30.3-27.4 12.8-4 23.8-2.1 27.2 5.4 3.4 7.5-0.6 13.3-7.7 13.5 -7 0.2-20.9-0.9-26-0.2 -5 0.7-12.9 1.3-19.1 9.5C394.8 106.6 391.8 105.8 391.8 105.8z" fill="#96BC0C"/><path d="M447.6 91.1c1-0.5 2-1.4 2.8-2.5 -0.1-1.5-0.4-3.1-1.2-4.8 -3.4-7.5-14.4-9.5-27.1-5.4 -16.4 5.2-30.3 27.4-30.3 27.4s3 0.9 4.8 0.9c1.6-2.2 3.4-3.8 5.2-5C412.3 89.2 433.4 98.8 447.6 91.1z" class="b"/><path d="M449.2 83.7c-3.4-7.5-14.4-9.4-27.1-5.3 -4 1.3-7.9 3.6-11.4 6.3C423.1 80.2 436.6 79.6 449.2 83.7z" class="a"/><path d="M396.6 107.2c-1.9 0-4.8-0.8-4.9-0.9l-0.7-0.2 0.4-0.6c0.6-0.9 14.3-22.4 30.6-27.6 4.4-1.4 8.6-2.1 12.4-2.1 7.7 0 13.1 2.8 15.4 7.8 1.7 3.8 1.7 7.4 0 10.1 -1.6 2.5-4.5 4.1-8.1 4.2 -3 0.1-7.3 0-11.4-0.2 -3.2-0.1-6.6-0.2-9.3-0.2 -2.3 0-4 0.1-5.1 0.2l-0.9 0.1c-5.1 0.7-12.1 1.7-17.8 9.1l-0.2 0.2L396.6 107.2zM392.7 105.4c0.9 0.2 2.5 0.6 3.7 0.6 5.9-7.6 13.3-8.6 18.3-9.3l0.9-0.1c1.2-0.2 2.9-0.3 5.3-0.3 2.8 0 6.1 0.1 9.4 0.2 4.1 0.1 8.4 0.3 11.3 0.2 3.3-0.1 5.8-1.4 7.2-3.7 1.5-2.4 1.5-5.6-0.1-9.1 -2.1-4.6-7.2-7.2-14.4-7.2 -3.7 0-7.8 0.7-12.1 2C407.8 83.5 395.1 101.8 392.7 105.4z" class="c"/><path d="M341.9 344.3c0 0 3.1 8.5-4.7 9.9 -9.9 1.9-9.9 9-14.8 8.3 -3.9-1.2-6.9-10.5-0.2-17.9C328.9 337.1 339.5 338.5 341.9 344.3z" class="d"/><path d="M341.9 344.3c0 0 0.8 5.1-7 6.6 -9.9 1.9-9.9 10.7-14.7 9.9 -1.2-2.2-4.7-8.8 2-16.2C328.9 337.1 339.5 338.5 341.9 344.3z" class="e"/><path d="M323.1 363.2c-0.2 0-0.5 0-0.7-0.1 -1.9-0.6-3.5-2.6-4.2-5.3 -1.3-4.6 0.1-9.6 3.6-13.6 3-3.4 7.2-5.3 11.4-5.3 4.3 0 7.9 2 9.2 5.2 0.1 0.2 1.6 4.4-0.2 7.5 -0.9 1.6-2.6 2.7-4.8 3.1 -5.3 1-7.6 3.5-9.5 5.5C326.3 361.8 325.1 363.2 323.1 363.2zM333.2 340c-3.9 0-7.8 1.8-10.6 5 -3.3 3.7-4.6 8.4-3.4 12.6 0.6 2.3 2 4.1 3.4 4.5 0.1 0 0.3 0 0.5 0 1.5 0 2.5-1.1 3.9-2.5 1.9-2 4.5-4.8 10.1-5.8 2-0.4 3.3-1.2 4.1-2.6 1.6-2.7 0.2-6.6 0.2-6.6C340.2 341.8 337 340 333.2 340z" class="f"/><path d="M299.4 283.7c0 0 2.7 8.1-4.7 9.2 -9.5 1.4-11.7 8.3-14.7 7.5 -3.7-1.1-5.6-10.7 1.3-17.8C288.3 275.4 297.6 277.8 299.4 283.7z" class="d"/><path d="M299.4 283.7c0 0 0.6 5.3-6.9 6.4 -9.5 1.4-10.8 9.5-13.7 8.8 -2.7-1.3-4.4-9.2 2.5-16.3C288.3 275.4 297.6 277.8 299.4 283.7z" class="e"/><path d="M281.3 282.5c-6.3 6.5-5.5 13.5-3.2 15.8 -0.8-6.4 8.2-16.2 15.8-19.7C290.2 277.5 285.4 278.4 281.3 282.5z" class="g"/><path d="M280.4 300.9c-0.2 0-0.4 0-0.6-0.1 -1.5-0.5-2.8-2.1-3.4-4.5 -0.9-3.7-0.3-9.4 4.5-14.2 2.9-2.9 6.5-4.6 10-4.6 4.3 0 7.9 2.4 9 5.9 0.1 0.2 1.4 4.2-0.4 7.1 -0.9 1.5-2.5 2.5-4.7 2.8 -5.5 0.8-8.4 3.4-10.6 5.4C282.8 300 281.7 300.9 280.4 300.9zM290.9 278.7c-3.3 0-6.6 1.5-9.3 4.2 -4.4 4.5-5 9.9-4.2 13.2 0.5 2 1.5 3.3 2.6 3.7 0.1 0 0.2 0 0.3 0 0.8 0 1.8-0.9 3-1.9 2.3-2 5.4-4.8 11.1-5.6 1.9-0.3 3.2-1 4-2.3 1.5-2.5 0.4-6.1 0.3-6.2C297.9 280.7 294.8 278.7 290.9 278.7z" class="f"/><path d="M297.9 231.2c0 0-5.1 8.4-17.7-1.6 -16-12.7-23.4-5.2-25.5-8.8 -2.2-3.6 1.8-18.2 24.7-14.6C295.1 208.6 304.1 223.6 297.9 231.2z" class="d"/><path d="M297.9 231.2c0 0-4.3 3.9-17-6.1 -16-12.7-24.1-0.7-26.2-4.3 -2.2-3.6 1.8-18.2 24.7-14.6C295.1 208.6 304.1 223.6 297.9 231.2z" class="e"/><path d="M297.3 217.4c-3.3-5.3-9.7-10-17.9-11.3 -18.9-3-24.9 6.5-25.2 11.9C264.7 205.6 283.8 210.3 297.3 217.4z" class="g"/><path d="M291.3 235c-3.4 0-7.2-1.7-11.4-5 -8.7-6.9-14.8-7.7-18.6-7.7 -0.9 0-1.6 0-2.3 0.1 -0.6 0-1.1 0.1-1.6 0.1 -1.2 0-2.4-0.2-3.1-1.4 -0.9-1.5-0.9-4.7 0.9-7.9 1.7-3 6.3-8.1 17.4-8.1 2.1 0 4.5 0.2 6.9 0.6 10.5 1.7 17.5 8.6 19.9 14.8 1.6 4.2 1.2 8.2-1.1 11.1C298.3 231.6 296.2 235 291.3 235zM261.3 221.2c4 0 10.3 0.8 19.3 8 4 3.2 7.6 4.8 10.8 4.8 4.2 0 6.1-3 6.1-3.1 2.1-2.6 2.5-6.2 1-10.1 -2.3-5.9-9-12.6-19.1-14.2 -2.4-0.4-4.6-0.6-6.7-0.6 -10.6 0-14.9 4.7-16.5 7.6 -1.6 2.8-1.7 5.6-0.9 6.8 0.4 0.6 0.9 0.8 2.2 0.8 0.5 0 1 0 1.5-0.1C259.6 221.2 260.4 221.2 261.3 221.2z" class="f"/><path d="M559.2 324.3c0 10.5-7.6 19-17.1 19 -15.6 0-17.1-8.5-17.1-19 0-10.5 7.6-19 17.1-19C551.6 305.3 559.2 313.8 559.2 324.3z" class="h"/><path d="M553.1 326.4c7.1-5.9-1.7-17.2-9.8-21 -0.4 0-0.8-0.1-1.2-0.1 -2.1 0-4.1 0.4-5.9 1.2C547.1 315.4 539.2 333 553.1 326.4z" class="i"/><path d="M542.1 343.9c-16.3 0-17.6-9.2-17.6-19.5 0-10.8 7.9-19.5 17.6-19.5 9.7 0 17.6 8.8 17.6 19.5S551.8 343.9 542.1 343.9zM542.1 305.9c-9.1 0-16.5 8.3-16.5 18.5 0 10.1 1.2 18.5 16.5 18.5 9.1 0 16.5-8.3 16.5-18.5C558.7 314.2 551.2 305.9 542.1 305.9z" class="j"/><path d="M559.2 324.4c0 0 0 0 0-0.1 0-10.5-7.6-19-17.1-19 -9.4 0-17.1 8.5-17.1 19 0 0.4 0 0.8 0 1.2C541.3 317.7 553.1 321.1 559.2 324.4z" class="k"/><path d="M543.4 305.4c-0.4 0-0.8-0.1-1.2-0.1 -2.1 0-4.1 0.4-5.9 1.2 6.4 1 5.7 9 7.1 13.6 5-0.3 8.8 1.4 12.2 2.6C558.2 317.1 553.6 306.9 543.4 305.4z" class="l"/><path d="M524.5 326.4l0-0.8c0-0.4 0-0.8 0-1.2 0-10.8 7.9-19.5 17.6-19.5 9.7 0 17.6 8.8 17.6 19.5v0.9l-0.8-0.4c-3.1-1.6-8.1-3.6-14.7-3.6 -6 0-12.4 1.6-18.9 4.7L524.5 326.4zM542.1 305.9c-9.1 0-16.5 8.3-16.5 18.5 0 0.1 0 0.2 0 0.4 6.4-3 12.7-4.5 18.6-4.5 6.3 0 11.2 1.7 14.4 3.3C558.2 313.7 551 305.9 542.1 305.9z" class="m"/><ellipse cx="519.3" cy="319.7" rx="20" ry="19.2" class="h"/><path d="M516.9 329.1c1.4 4.3 10.1 2.9 13 0 5.3-6.3 5.1-17.3 0.1-25.6 -2.9-1.8-6.2-2.8-9.8-3C524.2 310.6 511.6 318.7 516.9 329.1z" class="i"/><path d="M519.3 339.5c-11.3 0-20.5-8.9-20.5-19.8 0-10.9 9.2-19.8 20.5-19.8 11.3 0 20.5 8.9 20.5 19.8C539.8 330.6 530.6 339.5 519.3 339.5zM519.3 301.1c-10.7 0-19.4 8.4-19.4 18.7 0 10.3 8.7 18.7 19.4 18.7 10.7 0 19.4-8.4 19.4-18.7C538.7 309.4 530 301.1 519.3 301.1z" class="j"/><path d="M539.2 320.1c0-0.1 0-0.3 0-0.4 0-10.6-8.9-19.2-20-19.2 -10.3 0-18.8 7.5-19.8 17.2C522.6 303.4 534.3 313.1 539.2 320.1z" class="k"/><path d="M520.1 300.6c1.4 3.4 0.8 6.7-0.3 9.8 5.9-0.3 10.4 1.5 13.8 4 -0.4-3.7-1.6-7.5-3.7-10.8C527.1 301.8 523.8 300.7 520.1 300.6z" class="l"/><path d="M539.7 321.8l-0.9-1.4c-3-4.4-8.6-9.6-17.8-9.6 -6.3 0-13.4 2.5-21.3 7.3l-0.9 0.6 0.1-1.1c1.1-10.1 9.9-17.7 20.4-17.7 11.3 0 20.5 8.9 20.5 19.8 0 0.1 0 0.2 0 0.3L539.7 321.8zM521 309.8c8.7 0 14.3 4.4 17.7 8.7 -0.7-9.7-9.1-17.4-19.4-17.4 -9.6 0-17.6 6.6-19.2 15.6C507.8 312.1 514.8 309.8 521 309.8z" class="m"/><ellipse cx="495.1" cy="304.5" rx="22" ry="25.4" class="h"/><path d="M496.7 319c-0.6 4.3 7.3 3.7 10.1 0 9.4-8.7 9.4-18.4 6.9-28.3 -3.4-6-8.8-10.2-15.2-11.3C505.6 290.9 500.6 307.5 496.7 319z" class="i"/><path d="M495.1 330.4c-12.4 0-22.6-11.6-22.6-25.9 0-14.3 10.1-25.9 22.6-25.9 12.4 0 22.6 11.6 22.6 25.9C517.7 318.8 507.6 330.4 495.1 330.4zM495.1 279.7c-11.9 0-21.5 11.1-21.5 24.8 0 13.7 9.6 24.8 21.5 24.8s21.5-11.1 21.5-24.8C516.6 290.8 507 279.7 495.1 279.7z" class="j"/><path d="M495.1 279.1c-9 0-16.7 6.2-20.2 15.2 12.3-3 37.8-6.3 41.7 15.5 0.3-1.7 0.5-3.5 0.5-5.3C517.2 290.5 507.3 279.1 495.1 279.1z" class="k"/><path d="M513.6 290.7c-3.4-6-8.8-10.2-15.2-11.3 2.6 4.2 4 9.1 3.7 14 5.7 1.5 10 4.5 12.8 10.5" class="l"/><path d="M516.5 312.8l-0.4-2.9c-2.1-11.4-10.3-17.2-24.6-17.2 -6.3 0-12.4 1.2-16.5 2.2l-1 0.2 0.4-1c3.6-9.4 11.7-15.5 20.7-15.5 12.4 0 22.6 11.6 22.6 25.9 0 1.8-0.2 3.6-0.5 5.4L516.5 312.8zM491.6 291.6c13.4 0 22 5.2 25 15.2 0.1-0.8 0.1-1.5 0.1-2.3 0-13.7-9.6-24.8-21.5-24.8 -8.2 0-15.7 5.4-19.3 13.8C480 292.6 485.7 291.6 491.6 291.6z" class="m"/><ellipse cx="461.2" cy="294.8" rx="36.7" ry="35.1" class="h"/><path d="M477.9 307.5c4.3 11.5 18.8-11.5 15.9-21.6 -3.3-11.5-12.6-20.2-24-25.3 -2.7-0.6-5.6-1-8.5-1 -9.5 0-18.2 3.5-24.7 9.1C456.7 271.2 470.2 288.2 477.9 307.5z" class="i"/><path d="M461.2 330.4c-20.5 0-37.2-16-37.2-35.7s16.7-35.7 37.2-35.7c20.5 0 37.2 16 37.2 35.7S481.8 330.4 461.2 330.4zM461.2 260.2c-19.9 0-36.2 15.5-36.2 34.6s16.2 34.6 36.2 34.6 36.2-15.5 36.2-34.6S481.2 260.2 461.2 260.2z" class="j"/><path d="M497.8 291.3c-1.8-17.8-17.5-31.7-36.5-31.7 -20.3 0-36.7 15.7-36.7 35.1 0 11.3 5.6 21.3 14.2 27.7C446.9 305.3 474.9 253.7 497.8 291.3z" class="k"/><path d="M491.9 283.6c-1.9-9.6-8.7-16.9-17.7-21.7 -4-1.5-8.4-2.3-13-2.3 -10.3 0-19.6 4.1-26.3 10.6 10.9 1.7 22.3 5.9 29.8 14.3C473.3 277.2 482.8 274.6 491.9 283.6z" class="l"/><path d="M438.9 323.3l-0.5-0.4c-9.1-6.8-14.4-17.1-14.4-28.2 0-19.7 16.7-35.7 37.2-35.7 19.3 0 35.2 13.8 37.1 32.2l0.2 1.9 -1.2-1.6c-5.3-8.7-11.3-13.2-17.7-13.2 -17.3 0-34 31-40.4 44.3L438.9 323.3zM461.2 260.2c-19.9 0-36.2 15.5-36.2 34.6 0 10.5 4.9 20.3 13.4 26.9 6.7-13.8 23.4-44.3 41.1-44.3 6.3 0 12.1 3.9 17.3 11.6C494 272.4 479.1 260.2 461.2 260.2z" class="m"/><path d="M398.8 283.7c0 0 11.5-14.2 28.1-11.3 16.6 2.9 30.6 13.6 33.2 26.2 2.4 11.7-1 35.8-18.5 44.2 -17.6 8.5-28.4 5.2-37 0C404.6 330.3 398.8 283.7 398.8 283.7z" class="h"/><path d="M437.5 317.6c4.3 7.2 13 1.4 15.9-4.3 10.3-21.7-10.2-36.1-29.9-41.2 -7.4-0.3-13.6 2.6-17.9 5.6C426 282.1 426.4 305.1 437.5 317.6z" class="i"/><path d="M421.8 348.5c-6.1 0-11.5-1.6-17.6-5.3l-0.3-0.2v-0.3c0-12.3-5.7-58.6-5.8-59.1l0-0.2 0.1-0.2c0.1-0.1 9.8-11.9 24.1-11.9 1.5 0 3 0.1 4.6 0.4 17.2 3 31 13.9 33.6 26.6 2.3 11.3-0.8 36.1-18.8 44.8C434.5 346.8 428 348.5 421.8 348.5zM405.1 342.5c5.8 3.4 11 5 16.7 5 6 0 12.3-1.7 19.5-5.1 17.5-8.4 20.5-32.6 18.2-43.6 -2.5-12.1-16.2-22.9-32.7-25.8 -1.4-0.2-2.9-0.4-4.4-0.4 -12.8 0-21.9 9.9-23.1 11.3C399.8 287.4 405 330.2 405.1 342.5z" class="j"/><path d="M459.1 295.2c-4.2-11.1-17.1-20.2-32.2-22.8 -16.6-2.9-28.1 11.3-28.1 11.3s5.8 46.7 5.8 59.1c0.9 0.5 1.8 1 2.8 1.5C411.5 325.6 426.6 271.1 459.1 295.2z" class="k"/><path d="M452.1 291.1c0-0.3-0.1-0.6-0.2-0.9 -2.8-8.4-11-13.1-19.9-16.6 -1.7-0.5-3.3-0.9-5.1-1.2 -9-1.6-16.5 1.9-21.5 5.4 9.2 2.7 17.6 11.2 21.9 19.7C433.8 290.3 442 286.7 452.1 291.1z" class="l"/><path d="M407.7 345.1l-0.6-0.3c-1-0.5-1.9-1-2.8-1.6l-0.3-0.2v-0.3c0-12.3-5.7-58.6-5.8-59.1l0-0.2 0.1-0.2c0.1-0.1 9.8-11.9 24.1-11.9 1.5 0 3 0.1 4.6 0.4 15.2 2.6 28.3 11.9 32.6 23.1l0.7 1.7 -1.5-1.1c-5.3-3.9-10.4-5.9-15.2-5.9 -21.3 0-32.1 38.3-35.7 54.8L407.7 345.1zM405.1 342.5c0.6 0.3 1.2 0.7 1.9 1 3.8-17.1 14.8-54.9 36.6-54.9 4.5 0 9.3 1.7 14.3 5 -4.7-10.1-16.9-18.3-31-20.7 -1.4-0.2-2.9-0.4-4.4-0.4 -12.8 0-21.9 9.9-23.1 11.3C399.8 287.4 405 330.2 405.1 342.5z" class="m"/><path d="M397.1 284.6c0 0 3.1-7.5 10.8-1.7 7.7 5.8 16.6 19.1 16.6 33.7 0 10.1-2.9 35.1-37.8 43.5 -17.6 3.6-42.6-0.5-45.7-19C362 333.2 401.5 307.3 397.1 284.6z" class="h"/><path d="M414.4 314.7c0-1.4-2.7-6.4-5.8 1.4 -9.4 25.6-36.4 38.6-63.4 34.4 8.5 10.5 27.4 12.5 41.5 9.6 2.2-0.5 4.3-1.1 6.3-1.8C409.6 349.7 420.4 336.6 414.4 314.7z" class="i"/><path d="M374.7 361.9c-14.8 0-31.6-5.4-34.2-20.6l-0.1-0.4 0.4-0.2c22.2-8.4 59.9-34.3 55.7-55.9l0-0.2 0.1-0.1c0.1-0.2 1.8-4.2 5.9-4.2 1.8 0 3.7 0.8 5.7 2.3 8.4 6.3 16.8 20 16.8 34.1 0 13-5 36-38.2 44.1C383 361.5 378.8 361.9 374.7 361.9zM341.7 341.5c2.7 14.2 18.8 19.3 33 19.3 4 0 8.2-0.4 11.9-1.2 32.5-7.8 37.3-30.3 37.3-43 0-13.8-8.2-27.1-16.4-33.2 -1.8-1.4-3.6-2.1-5.1-2.1 -3 0-4.5 2.7-4.8 3.4C401.7 306.7 364.2 332.8 341.7 341.5z" class="j"/><path d="M423.1 306.3c-2.6-10.1-9.4-19-15.1-23.3 -7.7-5.8-10.8 1.7-10.8 1.7 2.1 10.7-5.8 22.3-16.8 32.2h15.4C395.7 316.9 412 295.7 423.1 306.3z" class="k"/><path d="M407.2 282.5c-7.2-4.8-10.1 2.2-10.1 2.2 2.1 10.7-5.8 22.3-16.8 32.2h15.4c0 0 7.5-10.9 19.1-13.5C415.6 296.1 413.5 289.1 407.2 282.5z" class="l"/><path d="M395.9 317.4H378.9l1-0.9c8.8-8 18.9-20 16.7-31.7l0-0.2 0.1-0.1c0.1-0.2 1.8-4.2 5.9-4.2 1.8 0 3.7 0.8 5.7 2.3 5.7 4.3 12.7 13.3 15.3 23.6l0.5 1.8 -1.4-1.3c-1.9-1.8-4.2-2.8-6.7-2.8 -9.5 0-19.8 13.2-19.9 13.3L395.9 317.4zM381.7 316.3h13.7c1.4-1.8 11.2-13.5 20.6-13.5 2.2 0 4.3 0.7 6.1 2 -2.9-9.4-9.2-17.4-14.5-21.3 -1.8-1.4-3.6-2.1-5.1-2.1 -3 0-4.5 2.7-4.8 3.4C399.8 296.4 390.4 308.2 381.7 316.3z" class="m"/><path d="M397.1 276.7c0 0 8.7 13 7.7 26.1 -1.1 14.1-11.3 25.6-17.1 31.2 -5.8 5.5-28.6 19.2-52.4 10.8 -23.8-8.4-42.1-31.3-31.5-56.3C324.2 283.7 397.1 276.7 397.1 276.7z" class="h"/><path d="M381.2 321.9c5.8-8.5-1.4-13-8.7-10.1 -22.2 11.8-55.1 11.7-71.8-6.6 0.7 11.9 7.6 22.6 17.4 30.3C339.7 341.5 362.4 339 381.2 321.9z" class="i"/><path d="M351 348c-5.5 0-10.8-0.9-15.9-2.7 -14.6-5.2-26.5-15.4-31.8-27.5 -4.2-9.5-4.2-19.7 0-29.5l0.1-0.3 0.3-0.1c20.2-4.8 92.7-11.7 93.4-11.8l0.3 0 0.2 0.3c0.1 0.1 8.8 13.3 7.8 26.4 -1.1 14.1-11.3 25.8-17.2 31.5C384.4 337.9 369.7 348 351 348zM304.2 289c-3.9 9.5-3.9 19.3 0.1 28.4 5.2 11.8 16.8 21.8 31.1 26.9 4.9 1.7 10.2 2.6 15.6 2.6 18.3 0 32.7-9.9 36.3-13.3 5.9-5.6 15.9-17.1 16.9-30.8 0.9-11.7-6.2-23.5-7.4-25.4C391.5 277.8 324 284.4 304.2 289z" class="j"/><path d="M397.1 276.7c0 0-13.6 1.3-30.7 3.2 14.6 3.2 35.9 11.2 36.8 30.8 0.8-2.5 1.4-5.2 1.6-7.9C405.8 289.7 397.1 276.7 397.1 276.7z" class="k"/><path d="M396.2 276.8c-3.3 0.3-15.2 1.5-29.8 3.1 10.8 2.3 25.2 7.3 32.3 17.6C399.7 290.5 399.4 283.2 396.2 276.8z" class="l"/><path d="M402.8 313.4l-0.1-2.7c-0.9-19.7-23.2-27.4-36.4-30.3l-3.2-0.7 3.3-0.4c16.9-1.8 30.6-3.2 30.7-3.2l0.3 0 0.2 0.3c0.1 0.1 8.8 13.3 7.8 26.4 -0.2 2.6-0.7 5.3-1.6 8L402.8 313.4zM369.6 280.1c12.9 3.3 31.2 10.8 33.9 27.7 0.4-1.7 0.7-3.4 0.8-5 0.9-11.7-6.2-23.5-7.4-25.4C394.8 277.5 383.6 278.6 369.6 280.1z" class="m"/><path d="M305.5 241.1c0 0-12.7 2.6-13 29.3 -0.2 26.7 20.9 41.6 43.8 44 19.4 2 40.2-2.4 52.7-17.1 12.2-14.4 17.3-28.3 9.9-59.1C377.6 240.4 305.5 241.1 305.5 241.1z" class="h"/><path d="M319.2 300.3c18.8 2.9 40.4 7.2 51.9-10.1 7.2-10.1-7.2-23.1-18.8-18.8 -20.2 5.8-41.8 2.9-56.3-14.4 -0.9-1.8 0.5-4.7 0.5-7.4 -2.2 4.4-4.1 11-4.1 20.9 0 1.9 0.1 3.7 0.3 5.5C297.9 287.3 305.5 296.9 319.2 300.3z" class="i"/><path d="M345.1 315.5C345.1 315.5 345.1 315.5 345.1 315.5c-2.9 0-5.9-0.2-8.9-0.5 -22.2-2.3-44.5-17-44.3-44.6 0.2-26.8 12.9-29.8 13.4-29.9 0.8 0 72.5-0.8 93.4-2.9l0.5 0 0.1 0.5c7.5 31.2 2.1 45.5-10 59.6C379.6 309.2 363.9 315.5 345.1 315.5zM398.4 238.8c-21.5 2.1-92.2 2.8-92.9 2.8 0 0-12.2 2.9-12.4 28.8 -0.2 26.9 21.6 41.2 43.3 43.5 2.9 0.3 5.9 0.5 8.8 0.5 18.5 0 33.9-6.2 43.4-17.4C400.6 282.9 405.7 269.4 398.4 238.8z" class="j"/><path d="M398.8 238.2c-6.3 0.6-17 1.2-29 1.6 8.5 9.8 25.1 31.4 24.6 50.3C402.5 277.8 405 263.8 398.8 238.2z" class="k"/><path d="M398.8 238.2c-6.3 0.6-17 1.2-29 1.6 6.1 7.1 17.8 23.2 23 37 2.2-2.9 9.1-12.6 9.1-21.5C401.3 250.2 400.3 244.6 398.8 238.2z" class="l"/><path d="M393.9 291.9l0-1.9c0.4-19-17-41.2-24.5-49.9l-0.7-0.9 1.1 0c13.6-0.5 23.3-1 28.9-1.6l0.5 0 0.1 0.5c5.7 23.6 4.4 38.8-4.4 52.3L393.9 291.9zM371 240.3c9.2 10.7 23.4 30.2 24 47.9 6.6-10.8 9.5-23.7 3.4-49.4C392.8 239.4 383.6 239.9 371 240.3z" class="m"/><path d="M292.5 196.7c0 0-8.3 34.6 13 52.7 21.3 18 57.5 19.8 74.2 11.9 16.7-7.9 32.2-21.6 25-51.2C378.7 210.5 292.5 196.7 292.5 196.7z" class="h"/><path d="M356.8 257.5c15.8-1.9 27.3-19.3 18.6-26.5 -25.5-5.9-60.9-0.3-84.6-19.6 -0.1 6.3 0.6 14 3.3 21.3C309.5 247.8 323 261.7 356.8 257.5z" class="i"/><path d="M355.4 266.3c-19.3 0-38.1-6.2-50.3-16.5 -21.3-18-13.2-52.9-13.2-53.2l0.1-0.5 0.5 0.1c0.9 0.1 86.5 13.8 112.1 13.3l0.4 0 0.1 0.4c5.9 24-2.4 41-25.3 51.8C373.8 264.7 365.1 266.3 355.4 266.3zM292.9 197.4c-0.9 4.3-6.5 35.2 12.9 51.6 12 10.2 30.5 16.3 49.6 16.3 9.5 0 18-1.6 24.1-4.4 14.2-6.7 32.2-19.3 24.8-50.2C379.2 210.8 300 198.5 292.9 197.4z" class="j"/><path d="M404.7 210.1c-3.8 0.1-9-0.2-15-0.7 5.2 7.1 11.9 17.7 14.3 28.6C406.9 230.7 407.5 221.6 404.7 210.1z" class="k"/><path d="M404 238c1.8-4.7 2.7-10.1 2.4-16.4 -2.2 1.3-4.8 2.1-7.6 2.4C401.1 228.5 403 233.2 404 238z" class="l"/><path d="M403.9 239.9l-0.4-1.8c-2.4-10.8-9-21.4-14.2-28.4l-0.7-1 1.2 0.1c6.3 0.5 11.3 0.7 14.9 0.7l0.4 0 0.1 0.4c2.6 10.8 2.4 20.3-0.7 28.3L403.9 239.9zM390.9 210.1c4.8 6.7 10.7 16.2 13.3 26.1 2.4-7.3 2.4-15.9 0.1-25.5C400.9 210.7 396.4 210.5 390.9 210.1z" class="m"/><path d="M340.5 217.7c0 0-28.9 1.4-44.7-6.9 -15.9-8.3-34.8-31.4-18.7-53.7 -0.8-5 12.6-56.3 46.5-64.2 33.9-7.9 63.9-1.8 81.4 10.8 17.5 12.6 26.2 37.5 24.9 57.7 6.3 5.8 18.3 33.5-16.9 51.6 -11.4 6.5-35.6 10.5-53.7 2.5C348.1 216.2 340.5 217.7 340.5 217.7z" class="h"/><path d="M340.5 217.7c0 0-28.9 1.4-44.7-6.9 -15.9-8.3-34.8-31.4-18.7-53.7 -0.8-5 12.6-56.3 46.5-64.2 33.9-7.9 63.9-1.8 81.4 10.8 17.5 12.6 23.9 45.3 16.1 62.5 6.3 5.8 21.3 23.9-13.9 41.9 -11.4 6.5-24.7 11.3-47.8 7.4C348.1 216.2 340.5 217.7 340.5 217.7z" class="i"/><path d="M363.2 89.7c-12.1-1-25.6-0.2-39.7 3.1 -33.9 7.9-47.3 59.2-46.5 64.2 -11.7 16.1-5 32.6 5.5 43.7 -2.9-8.4-11.1-25.8-0.6-43.1C286.2 118.1 309.7 89.1 363.2 89.7z" class="n"/><path d="M382.3 220.5c-8.6 0-16.6-1.5-23.2-4.4 -11 0.7-18.5 2.1-18.6 2.1 -0.1 0-2 0.1-5.1 0.1 -9.9 0-28.3-0.9-39.9-7 -9.9-5.2-21.2-16.2-24.3-29.3 -2.1-8.8-0.3-17.2 5.3-25 -0.3-6 12.7-56.6 46.9-64.6 10.1-2.4 20.2-3.6 30-3.6 20.5 0 38.8 5.1 51.8 14.5 18.9 13.6 26.3 39.5 25.2 57.9 3.8 3.6 8.3 13.2 6.9 23.6 -1.1 8-6.2 19.5-24.1 28.7C405.5 217.8 393.7 220.5 382.3 220.5zM359.3 215l0.1 0.1c6.5 2.9 14.4 4.4 22.8 4.4 11.2 0 22.9-2.6 30.3-6.9 13.9-7.1 22-16.7 23.5-27.8 1.5-11.2-3.9-20.2-6.7-22.9l-0.2-0.2 0-0.3c1.2-18.1-6.1-43.8-24.7-57.2 -12.7-9.2-30.9-14.3-51.1-14.3 -9.7 0-19.8 1.2-29.8 3.5 -34.1 8-46.8 59-46 63.6l0 0.2 -0.1 0.2c-5.5 7.6-7.3 15.8-5.3 24.3 3 12.8 14.1 23.6 23.8 28.6 11.5 6 29.6 6.9 39.4 6.9 3.1 0 5-0.1 5-0.1 0 0 7.7-1.4 18.8-2.2L359.3 215z" class="j"/><path d="M547.8 333.1c0 0 1.8-4.4 5.3-2.8 7.4 3.5 5.5 16.6 0.7 17.7 -1.2 0-1.1-4-4.2-6.6C547.9 340 546.7 335.8 547.8 333.1z" class="d"/><path d="M549.7 330.6c-1.3 0.9-1.9 2.5-1.9 2.5 -1.1 2.7 0.1 6.8 1.9 8.3 3 2.6 3 6.5 4.1 6.6C555.4 341.6 555 335.5 549.7 330.6z" class="e"/><path d="M553.9 348.6h-0.1c-0.9 0-1.2-1-1.7-2.2 -0.5-1.4-1.2-3.2-2.8-4.6 -1.9-1.6-3.1-6-2-8.9 0.1-0.1 1.4-3.5 4.3-3.5 0.6 0 1.2 0.1 1.8 0.4 4.5 2.1 5.6 7.4 5.1 11.4 -0.4 3.9-2.2 6.8-4.5 7.3L553.9 348.6zM551.5 330.5c-2.1 0-3.2 2.8-3.3 2.8 -1 2.5 0.1 6.4 1.7 7.7 1.9 1.6 2.6 3.6 3.1 5 0.2 0.6 0.5 1.3 0.7 1.4 1.7-0.5 3.2-3.1 3.6-6.4 0.4-3.6-0.6-8.4-4.5-10.3C552.4 330.6 552 330.5 551.5 330.5z" class="f"/><path d="M519.9 333.2c0 0-3.5 4.1 0 7.8 5.1 5.4 3.6 9 5.1 9.3 1.2 0 6.9-4.2 5.1-11.4C528.4 331.7 522.6 329.9 519.9 333.2z" class="d"/><path d="M523.8 331.8c-0.6 0.3-3.4 0.9-3.9 1.5 0 0-3.5 4.1 0 7.8 4.7 5 3.8 8.5 4.8 9.2C526.7 344 528.6 336.1 523.8 331.8z" class="e"/><path d="M525.1 350.9l-0.1 0c-0.9-0.2-1.1-1-1.4-2.1 -0.4-1.5-1-4.1-4-7.4 -3.8-4.1-0.1-8.5 0-8.5 0.9-1.1 2.2-1.8 3.7-1.8 2.8 0 6.1 2.4 7.5 7.7 1.1 4.6-0.7 7.8-1.9 9.4C527.5 349.9 525.9 350.9 525.1 350.9zM523.2 332.2c-1.1 0-2.1 0.5-2.8 1.4 -0.1 0.2-3.2 3.8 0 7.1 3.3 3.5 3.9 6.2 4.3 7.9 0.2 0.8 0.3 1.2 0.5 1.3 0.4-0.1 1.7-0.8 2.9-2.3 1.3-1.7 2.7-4.5 1.7-8.4C528.5 334.3 525.6 332.2 523.2 332.2z" class="f"/><path d="M500.7 323.7c0 0-5 3.4-1.7 8.2 4.7 6.8 2.8 10.8 3.8 10.9 1.5 0.3 8.9-2.7 8.4-10.7C510.7 324.1 504.5 320.9 500.7 323.7z" class="d"/><path d="M504.5 322.8c-1.3-0.2-2.7 0.1-3.8 0.9 0 0-5 3.4-1.7 8.2 4.6 6.7 2.9 10.6 3.8 10.9C505.9 336.8 507.8 328.8 504.5 322.8z" class="e"/><path d="M503.1 343.4L503.1 343.4c-0.1 0-0.2 0-0.4 0 -0.7-0.1-0.8-0.9-0.8-1.8 -0.1-1.7-0.3-4.9-3.4-9.3 -3.5-5.1 1.8-8.9 1.8-8.9 0.9-0.7 2.1-1.1 3.3-1.1 3.6 0 7.6 3.5 8 9.9 0.3 4-1.4 6.6-2.8 8.1C506.9 342.4 504.3 343.4 503.1 343.4zM503.1 342.3l0 0 0 0c0.8 0 3.2-0.8 5-2.8 1.3-1.4 2.8-3.7 2.5-7.3 -0.4-5.8-3.9-8.9-7-8.9 -1 0-1.9 0.3-2.7 0.9 -0.2 0.1-4.5 3.2-1.6 7.4 3.3 4.7 3.4 8.1 3.5 9.9C503 341.8 503 342.1 503.1 342.3z" class="f"/><path d="M474.6 319.2c0 0-6.8 4-2.2 9.2 5.3 5.9 3.4 12.2 4.8 12.7 2.1 0.7 11.2-2.5 10.6-11.6C487.3 320.3 479.4 316.2 474.6 319.2z" class="d"/><path d="M477.5 318.3c-1 0.1-2 0.4-2.9 0.9 0 0-6.8 4-2.2 9.2 5.3 5.9 3.4 12.2 4.8 12.7C483.2 337.8 484.3 322.7 477.5 318.3z" class="e"/><path d="M478 341.7L478 341.7c-0.3 0-0.6 0-0.9-0.1 -0.9-0.3-1-1.3-1.1-2.9 -0.2-2.5-0.6-6.3-4-10 -1.4-1.5-2-3.1-1.7-4.8 0.5-3.1 3.9-5.1 4-5.2 1.1-0.7 2.4-1 3.7-1 4.7 0 9.9 4.4 10.4 11.7 0.2 3.3-0.8 6.3-2.9 8.5C483 340.7 479.6 341.7 478 341.7zM478.1 318.8c-1.1 0-2.2 0.3-3.1 0.9 0 0-3.1 1.9-3.5 4.5 -0.2 1.3 0.3 2.6 1.4 3.9 3.6 4 4 8.1 4.2 10.6 0.1 0.7 0.2 1.9 0.4 2 0.1 0 0.2 0.1 0.5 0.1 1.4 0 4.4-0.9 6.8-3.4 2-2.1 2.8-4.7 2.6-7.7C486.9 322.8 482.3 318.8 478.1 318.8z" class="f"/><path d="M443.1 327.6c0 0-5.4 6.2 0.8 10.1 7.9 5 7.5 11.7 10.1 12.6 2.2 0.5 8.9-7.4 5.4-16.5C455.9 324.7 446.9 323 443.1 327.6z" class="d"/><path d="M446.1 325.6c-1.2 0.4-2.2 1.1-3 2.1 0 0-5.4 6.2 0.8 10.1 7.3 4.7 7.5 10.7 9.6 12.3C457.2 344.3 453.7 331.3 446.1 325.6z" class="e"/><path d="M454.2 350.9c0 0 0 0 0 0 -0.1 0-0.2 0-0.3 0 -1.3-0.4-1.9-1.8-2.7-3.5 -1.2-2.6-2.9-6.2-7.6-9.2 -1.8-1.2-2.9-2.7-3.1-4.4 -0.5-3.3 2.1-6.4 2.2-6.5 1.4-1.7 3.5-2.7 5.9-2.7 3.6 0 8.7 2.4 11.3 9 2.7 7-0.6 12.6-1.6 14.1C457 349.7 455.4 350.9 454.2 350.9zM448.6 325.7c-2.1 0-3.9 0.8-5.1 2.3 0 0-2.4 2.8-2 5.7 0.2 1.4 1.1 2.7 2.7 3.7 5 3.2 6.8 7.1 8 9.6 0.7 1.5 1.2 2.6 2 2.9l0 0c0.6 0 1.9-0.9 3.2-2.7 1-1.4 4-6.6 1.5-13.1C456.6 327.9 451.9 325.7 448.6 325.7z" class="f"/><path d="M399.7 341.3c0 0-6.2 6.2 0.6 10.3 8.6 5.2 9.3 12.1 11 12.9 2.8 0.9 10.1-7.4 6.5-16.7C414.1 338.5 404 336.7 399.7 341.3z" class="d"/><path d="M402.2 339.6c-0.9 0.4-1.8 1-2.5 1.7 0 0-6.2 6.2 0.6 10.3 7.9 4.8 9.1 11 10.6 12.6C413.4 354.7 410.3 344.6 402.2 339.6z" class="e"/><path d="M411.7 365.2L411.7 365.2c-0.2 0-0.4 0-0.6-0.1 -0.8-0.4-1.2-1.3-1.9-2.6 -1.3-2.6-3.4-6.9-9.2-10.4 -2-1.2-3.2-2.8-3.4-4.6 -0.4-3.4 2.5-6.5 2.7-6.6 1.6-1.7 3.9-2.6 6.5-2.6 4.1 0 9.7 2.4 12.4 9.3 1.8 4.6 1.2 9.8-1.6 13.8C415.1 363.7 413.2 365.2 411.7 365.2zM411.5 364.1c0 0 0.1 0 0.2 0 0.9 0 2.6-1 4.1-3.2 1-1.4 3.9-6.5 1.4-12.8 -2.5-6.4-7.7-8.6-11.4-8.6 -2.3 0-4.3 0.8-5.7 2.3 0 0-2.7 2.8-2.4 5.7 0.2 1.5 1.2 2.7 2.9 3.8 6.1 3.7 8.3 8.1 9.6 10.8 0.5 1 0.9 1.9 1.3 2.1C411.5 364.1 411.5 364.1 411.5 364.1z" class="f"/><path d="M379.9 283.1c0 0-7.1 5.1-1.1 10.3 7.6 6.6 7.1 13.4 8.6 14.6 2.6 1.3 11.2-5.6 9.2-15.4C394.6 282.7 385 279.2 379.9 283.1z" class="d"/><path d="M388.5 290.2c-1.5-3.6-3.3-6.6-5.9-8.4 -1 0.2-1.9 0.7-2.6 1.3 0 0-7.1 5.1-1.1 10.3 7.6 6.6 7.1 13.4 8.6 14.6 0.3 0.1 0.7 0.2 1.1 0.1C390.3 302.4 390.1 296 388.5 290.2z" class="e"/><path d="M388.2 308.6L388.2 308.6c-0.4 0-0.7-0.1-1-0.2 -0.7-0.5-1-1.5-1.4-2.9 -0.8-2.7-2.2-7.3-7.3-11.7 -1.8-1.5-2.7-3.3-2.6-5.1 0.1-3.4 3.6-5.9 3.7-6 1.4-1.1 3.2-1.6 5.1-1.6 5 0 10.9 3.9 12.4 11.4 0.9 4.4-0.2 9-3 12.5C392.3 307.1 389.9 308.6 388.2 308.6zM384.7 282.1c-1.7 0-3.2 0.5-4.5 1.4 0 0-3.2 2.3-3.3 5.2 -0.1 1.5 0.7 2.9 2.2 4.2 5.4 4.6 6.8 9.4 7.7 12.3 0.3 1.1 0.6 2 1 2.3 0.1 0 0.2 0.1 0.5 0.1l0 0c1.1 0 3.2-1.1 5.1-3.4 2.6-3.3 3.7-7.5 2.8-11.6C394.7 285.7 389.3 282.1 384.7 282.1z" class="f"/><path d="M388.2 236.1c0 0-4.8 8.6 3.7 11.1 10.9 3.2 13.6 10.5 15.7 10.9 3.3 0.1 8.8-11 2.1-20.2C402.9 228.8 391.5 229.7 388.2 236.1z" class="d"/><path d="M389.4 234.4c-0.5 0.5-0.9 1.1-1.2 1.7 0 0-4.8 8.6 3.7 11.1 10.9 3.2 13.6 10.5 15.7 10.9 0.1 0 0.2 0 0.4-0.1C408.2 246.2 400.2 238 389.4 234.4z" class="e"/><path d="M407.7 258.7L407.7 258.7l-0.1 0c-0.9-0.2-1.7-1-2.8-2.3 -2.1-2.4-5.7-6.5-13.1-8.7 -2.5-0.7-4.2-2.1-5-4 -1.5-3.6 0.9-7.7 1-7.9 1.7-3.2 5.3-5.2 9.6-5.2 4.9 0 9.6 2.5 12.8 7 4.6 6.2 3.7 13.2 1.6 17.4C410.6 257.3 409 258.7 407.7 258.7zM397.3 231.7c-3.8 0-7.2 1.8-8.6 4.6 0 0.1-2.2 3.9-0.9 7 0.6 1.6 2.1 2.7 4.3 3.3 7.6 2.2 11.4 6.5 13.6 9 0.8 1 1.6 1.8 2.1 1.9 0.8 0 2-1 3.1-3.1 2-3.9 2.7-10.5-1.5-16.2C406.2 234.1 401.8 231.7 397.3 231.7z" class="f"/><path d="M322.8 208.6c0 0 9.5 14.6 20.2 15.8 10.9 1.2 16.4-3.2 24.7-10.2L322.8 208.6z" class="h"/><path d="M322.8 208.6c0 0 9.1 12.2 20.2 13 12.2 1 14.7-1.2 24.7-7.5L322.8 208.6z" class="i"/><path d="M346.4 225.1c-1.1 0-2.3-0.1-3.5-0.2 -5.9-0.6-11.5-5.1-15.6-9.2 -5.3-5.2-5-7.5-5-7.5 0.1 0.1 10.3 14.6 20.7 15.7 10.6 1.1 16.4-3 24.7-10 0 0-0.4 2.2-2.9 3.8C359 222.2 353.8 225.1 346.4 225.1z" class="j"/><path d="M323 190.2c0 0 13.5 22 22 22 10.6 0 17.6-12.5 19.8-16.8C354.4 196 342.8 197.9 323 190.2z" fill="#590106"/><path d="M344.4 203.7c-5.2-4.4-8.7-0.9-10.2 1.3 3.7 3.9 7.6 7.1 10.8 7.1 4.7 0 8.7-2.5 11.9-5.6C352 200 346.4 201.8 344.4 203.7z" fill="#ED8E97"/><path d="M353.1 203c-3.7-2.1-7.2-0.7-8.7 0.7 -5.2-4.4-8.7-0.9-10.2 1.3 2.1 2.3 4.4 4.3 6.5 5.6C345.5 209.7 349.9 207.5 353.1 203z" fill="#F9AFB3"/><path d="M345 212.7c-3 0-6.7-2.4-11.2-7.2l-0.3-0.3 0.2-0.4c1.1-1.7 3.1-3.7 5.9-3.7 1.6 0 3.2 0.7 4.8 1.9 1-0.8 2.7-1.6 4.8-1.6 2.1 0 5.2 0.8 8.2 4.8l0.3 0.4 -0.3 0.3C353.4 210.8 349.3 212.7 345 212.7zM334.9 205c4.1 4.4 7.5 6.6 10.1 6.6 3.8 0 7.6-1.7 11.1-5.1 -2.6-3.3-5.2-4-7-4 -2 0-3.5 0.8-4.4 1.6l-0.4 0.3 -0.4-0.3c-1.5-1.3-3-2-4.5-2C337.5 202.2 335.9 203.6 334.9 205z" fill="#DD5872"/><ellipse cx="340.8" cy="206.6" rx="3.3" ry="1.5" fill="#FCE3E6"/><path d="M323 190.2c0 0 2.2 4.5 7.6 10.7 8.8-3.7 22.1-3.3 29 2.7 3.2-3.6 4.2-6.2 5.3-8.3C354.4 196 342.8 197.9 323 190.2z" fill="#870001"/><path d="M345 212.7c-8.7 0-21.9-21.3-22.5-22.2l-0.8-1.4 1.5 0.6c13.3 5.2 22.6 5.8 28.5 5.8 3.6 0 6.9-0.3 10.1-0.5 1-0.1 2-0.2 3-0.2l1-0.1 -0.5 0.9C357.9 209.7 350.2 212.7 345 212.7zM324.4 191.3c3.1 4.8 13.7 20.3 20.7 20.3 4.7 0 11.8-2.7 18.9-15.7 -0.7 0.1-1.3 0.1-2 0.2 -3.2 0.3-6.5 0.5-10.2 0.5C346 196.6 337 196 324.4 191.3z" class="j"/><ellipse cx="344" cy="169.6" rx="22.1" ry="12.2" fill="#123301"/><path d="M322.2 167.8c3.9 3.5 10.9 5.9 18.8 5.9 11.1 0 20.2-4.5 21.8-10.4 -3.9-3.5-10.8-5.9-18.8-5.9C333 157.4 323.8 161.9 322.2 167.8z" fill="#194B02"/><path d="M344 182.4c-12.5 0-22.6-5.7-22.6-12.7s10.1-12.7 22.6-12.7c12.5 0 22.6 5.7 22.6 12.7S356.5 182.4 344 182.4zM344 158c-11.9 0-21.5 5.2-21.5 11.7s9.7 11.7 21.5 11.7c11.9 0 21.5-5.2 21.5-11.7S355.9 158 344 158z" class="o"/><ellipse transform="matrix(0.9989 -0.0469 0.0469 0.9989 -6.5033 18.7644)" cx="396.9" cy="148.1" rx="17.8" ry="29.5" class="p"/><path d="M413.7 139.6c-2.6-12.5-9.9-21.4-18.1-21 -9.8 0.5-17.1 14-16.4 30.3 0.2 4 0.9 7.8 1.9 11.3C399.6 161.3 413.7 151.4 413.7 139.6z" class="q"/><path d="M397.6 178.1c-10.9 0-20-13.8-20.9-31.3 -0.4-8.6 1.2-16.7 4.7-22.9 3.5-6.3 8.3-10 13.7-10.2 11.1-0.5 20.6 13.4 21.4 31.3 0.8 17.8-7.4 32.6-18.4 33.1C398 178.1 397.8 178.1 397.6 178.1zM396 119.1c-0.2 0-0.3 0-0.5 0 -4.5 0.2-8.7 3.4-11.7 8.9 -3 5.6-4.5 13-4.2 20.8 0.7 15.8 9.1 28.6 18.6 28.1 9.5-0.4 16.6-13.8 15.9-29.7C413.4 131.7 405.3 119.1 396 119.1z" class="h"/><path d="M397.8 178.1c-10 0-18.4-12.8-19.2-29.1 -0.4-8 1.1-15.5 4.3-21.4 3.2-5.9 7.7-9.3 12.6-9.5 10.2-0.5 18.9 12.5 19.7 29.1 0.8 16.5-6.8 30.4-16.9 30.9C398.1 178.1 397.9 178.1 397.8 178.1zM396 119.1c-0.2 0-0.3 0-0.5 0 -4.5 0.2-8.7 3.4-11.7 8.9 -3 5.6-4.5 13-4.2 20.8 0.7 15.8 9.1 28.6 18.6 28.1 9.5-0.4 16.6-13.8 15.9-29.7C413.4 131.7 405.3 119.1 396 119.1z" class="o"/><ellipse transform="matrix(0.9989 -0.0476 0.0476 0.9989 -6.6648 19.1601)" cx="399" cy="149.5" rx="8.8" ry="14.3" class="r"/><path d="M399.4 164.4c-5.1 0-9.4-6.3-9.8-14.4 -0.2-3.9 0.6-7.7 2.2-10.5 1.6-3 3.9-4.6 6.5-4.8 5.2-0.3 9.7 6.2 10.1 14.4 0.4 8.2-3.5 15.1-8.7 15.3C399.6 164.4 399.5 164.4 399.4 164.4zM398.6 135.7l-0.2 0c-2.2 0.1-4.1 1.6-5.6 4.2 -1.5 2.7-2.2 6.2-2 10 0.4 7.4 4.3 13.4 8.7 13.4l0.2 0c4.6-0.2 8-6.6 7.6-14.2C406.9 141.7 403 135.7 398.6 135.7z" class="s"/><ellipse transform="matrix(0.9987 -0.0503 0.0503 0.9987 -7.1876 20.2595)" cx="399.2" cy="153" rx="5.5" ry="8.3" class="t"/><ellipse cx="399.6" cy="147.4" rx="3.7" ry="3.6" class="q"/><ellipse cx="394.6" cy="153.6" rx="2.3" ry="2.2" class="q"/><path d="M290.7 134.4c-4.7 14.9-1.5 29.3 7.1 32.1 8.6 2.8 19.5-7.1 24.2-22s1.5-29.3-7.1-32.1C306.2 109.6 295.4 119.5 290.7 134.4z" class="p"/><path d="M314.9 112.4c-8.5-2.8-19.2 6.8-24 21.5 1.4 11.1 9.9 20.9 27.8 18.6 1.3-2.4 2.4-5.1 3.3-8C326.7 129.6 323.5 115.2 314.9 112.4z" class="q"/><path d="M301.3 167.5L301.3 167.5c-1.1 0-2.3-0.2-3.3-0.5 -9.2-2.9-13.2-18.8-8.3-34 4.3-13.2 14.3-24.5 22.9-24.5 1.1 0 2.8 0.1 3.8 0.5 9.2 2.9 12.2 20.5 7.2 35.7C319.4 157.9 310 167.5 301.3 167.5zM312.6 112.5c-8.2 0-17.2 9.3-21.3 22.1 -4.8 14.6-1.6 28.7 7 31.4 1 0.3 2 0.4 3 0.4 8.2 0 16.8-9.9 20.9-22.7 4.8-14.6 2-28.1-6.6-30.8C314.7 112.6 313.7 112.5 312.6 112.5z" class="h"/><path d="M300.9 167.5L300.9 167.5c-1.1 0-2.2-0.2-3.2-0.5 -8.9-2.9-12.3-17.6-7.5-32.8 4.2-13.2 13.3-22.8 21.7-22.8 1.1 0 2.2 0.2 3.2 0.5 8.9 2.9 12.3 17.6 7.5 32.8C318.3 157.9 309.2 167.5 300.9 167.5zM311.8 112.5c-7.9 0-16.6 9.3-20.6 22.1 -4.6 14.6-1.6 28.7 6.8 31.4 0.9 0.3 1.9 0.4 2.9 0.4 7.9 0 16.6-9.3 20.6-22.1 4.6-14.6 1.6-28.7-6.8-31.4C313.8 112.6 312.8 112.5 311.8 112.5z" class="o"/><ellipse transform="matrix(-0.9524 -0.3048 0.3048 -0.9524 552.3267 369.6539)" cx="305" cy="141.7" rx="8.8" ry="14.3" class="r"/><path d="M302.4 156.2L302.4 156.2c-0.6 0-1.3-0.1-1.9-0.3 -4.9-1.6-6.9-9.2-4.4-17 2.2-6.7 7-11.6 11.6-11.6 0.6 0 1.3 0.1 1.9 0.3 2.4 0.8 4.2 3 5 6.3 0.8 3.2 0.6 7-0.6 10.7C311.8 151.3 306.9 156.2 302.4 156.2zM307.7 128.3c-4.1 0-8.5 4.6-10.6 10.9 -2.3 7.2-0.7 14.3 3.7 15.7 0.5 0.2 1 0.2 1.6 0.2 4.1 0 8.5-4.6 10.6-10.9 1.1-3.6 1.4-7.2 0.6-10.2 -0.7-2.9-2.2-4.9-4.3-5.5C308.7 128.4 308.2 128.3 307.7 128.3z" class="s"/><ellipse transform="matrix(-0.9517 -0.3072 0.3072 -0.9517 548.577 376.4258)" cx="303.9" cy="145" rx="5.5" ry="8.3" class="t"/><ellipse transform="matrix(-0.9659 -0.2589 0.2589 -0.9659 563.3793 353.2401)" cx="305" cy="139.5" rx="3.7" ry="3.6" class="q"/><ellipse transform="matrix(-0.9658 -0.2592 0.2592 -0.9658 567.7744 368.385)" cx="308.2" cy="146.8" rx="2.3" ry="2.2" class="q"/><path d="M386.8 190.9c0 0-5.7 7-24.5 9.8 0.8-2.8 0.8-2.8 0.8-2.8S385.7 194 386.8 190.9z" class="h"/><path d="M310.4 180.7c0 0 3.5 9.7 14.7 13.6 -0.4-2-0.4-2-0.4-2S317.7 190.5 310.4 180.7z" class="h"/><path d="M301.3 183.3c0 0 2.8-6.8 7.1-5.3 0.7 1.2 0.7 1.2 0.7 1.2S305.5 179.1 301.3 183.3z" class="h"/><path d="M308.1 177.6c0 0 22.2 37.5 78.7 13.4" class="i"/><path d="M351.7 199.5c-30.7 0-43.9-21.4-44.1-21.7l0.9-0.6c0.2 0.4 22.7 36.8 78 13.2l0.4 1C373.3 197.3 361.6 199.5 351.7 199.5z" class="j"/><path d="M387.2 191.7c-3.5-1.6-3.9-3.9-3.9-3.9 0 0 5 5 10.5 3.5C393.8 191.3 392.1 193.4 387.2 191.7z" class="j"/><path d="M286.7 165.7c0 0 14.2-9.4 25.5 0 0 0-9 6.4-12.6 6.4C296.4 172.1 286.7 165.7 286.7 165.7z" class="i"/><path d="M286.2 166.2c0 0 3.6-4.6 12.9-5.1 11.3-0.8 13.7 5 13.7 5C302 157.1 286.3 166.1 286.2 166.2z" class="j"/><path d="M383.1 176c0 0 19.4-8.7 30.7 1 0 0-11.2 6.5-15.1 6.3C394.8 183 383.1 176 383.1 176z" class="i"/><path d="M414.3 178c-10.9-9.4-31-2.1-31.2-2 0 0 3.4-3.9 16-3.9C413.5 172.6 414.3 178 414.3 178z" class="j"/><ellipse cx="342.6" cy="160.3" rx="5.5" ry="1.7" fill="#A3B79A"/><path d="M413 177.7c-0.1 1.6-5.6-2.3-13.6-2.7 -7.9-0.4-15.2 2.8-15.2 1.2 0.1-1.6 6.9-3.4 14.9-3C407.1 173.6 413.1 176.2 413 177.7z" class="n"/><path d="M311.8 166c0 1.6-4.7-2.1-11.3-2.2 -6.6-0.1-12.6 4-12.6 2.4 0-1.6 5.7-4.4 12.3-4.3C306.8 162.1 311.9 164.4 311.8 166z" class="n"/><path d="M301.4 184.5c0 0-1.1-3.3 3.4-6.2 4.9-2.5 7.4-0.6 7.4-0.6C311.8 177.7 303.2 177.1 301.4 184.5z" class="j"/></svg>