<svg xmlns="http://www.w3.org/2000/svg" viewBox="0 0 768 430"><style>.a{fill:#E6D081;}.b{fill:#B8302D;}.c{fill:#D12C36;}.d{fill:#369;}</style><path d="M627.2 327.9c-0.1-0.1-0.3-0.1-0.4-0.2 0.1 0.8-2.2 0.8-5.4-1 -0.8-0.8-1.6-1.6-2.5-2.4 -1.3-0.4-2.6-0.8-4-1.2 1.3 0.3 2.5 0.6 3.6 0.8 -2-2-4.1-4-6.7-5.6 -5.4-3.5-15.2-6.1-21.2-7 -13.9-2.1-28-3.2-42-1.4 -9.6 1.2-18.9 3.2-28.2 5.9 -3.6-0.3-7.3-0.6-10.9-1 -12.1-1.2-24.2-1.7-36.3-2.2 -16.5-0.7-33.1-0.6-49.7-0.4 -16.6 0.2-33.1 0.5-49.7 0.3 -3.4 0-6.9-0.1-10.3-0.2 -0.9-0.1-1.8-0.1-2.7-0.2 -8.3-0.5-16.6-1.6-24.9-2.2 -7.7-0.5-15.4-0.8-23.1-1.2 -3.9-0.2-7.8-0.4-11.7-0.7 -3.3-0.2-14.5-1.7-10.8-1.1 -19.2-2.9-37.9-6-57.5-5.7 -27.1 0.4-53.7 5-79.1 14.3 -4.4 1.6-14.1 4.8-14.1 11.3 0 5.2 6.3 8.4 11 10.2 1.7 5 5.7 9.1 10.8 12.1 7 4.2 16.7 6.8 24.6 7.9 13.9 2.1 27.4 2.6 41.3 2.1 5 0.8 10.1 1.4 15.1 1.9 28 2.5 56.1-0.2 83.7-4.8 6.7-1.1 13.3-2.4 19.9-3.8 3.2-0.7 6.4-1.4 9.6-2 3.5-0.6 7.1-1.2 10.6-1.7 1-0.1 2.1-0.3 3.1-0.4 13 0.3 25.9 0.7 38.9 1.2 4 0.1 8 0.3 12 0.4 4.4 0.1 20.2 1 1.2-0.1l26 1.5c16.7 0.9 33.3 1.9 50 2.8 0.8 0 1.4 0.1 1.7 0.1 2 0.3 4 0.7 6 1 9.8 1.6 19.7 3.1 29.6 3.8 25.4 1.9 53.4 1.7 77.5-7.7 5.2-2 10.4-4.2 15.1-7.3C634.7 339 635.8 332.8 627.2 327.9zM556.4 327.9c-0.4 0-0.7-0.1-1.1-0.1C562.6 327.3 559.6 327.8 556.4 327.9z" class="a"/><path d="M489.6 225.2c-13.8 0-32.4 6.2-44.6 7.7 -19.9-10.3-66.4-19.3-97.1-19.3 -39.4 0-55.3 9.2-74.7 25 -6.6-0.9-13.7-4-21-4 -34.8 0-56.1 14.3-68.7 24.9h73.7 63.7 50.9 104.2 120.8C584.1 253.8 549.6 225.2 489.6 225.2z" class="a"/><path d="M602.1 331.6H183.9c-0.7 0-1.3-0.6-1.3-1.5v-46.6h420.7v46.6C603.4 331 602.8 331.6 602.1 331.6z" class="b"/><rect x="182.7" y="283.6" width="420.7" height="14" fill="#A12A27"/><path d="M291.5 208.8c4.8-8 16.5-10.1 27.1-5.3l1.1-1.8c-11.7-5.4-24.7-3-30 6 -5.4 9-1.3 21.6 9 29.3l1.1-1.8C290.4 228.1 286.7 216.8 291.5 208.8z" class="c"/><polygon points="350 227.4 335.6 251.6 304.4 239.9 324.8 205.6 " class="d"/><rect x="290.2" y="217.1" transform="matrix(0.5118 -0.8591 0.8591 0.5118 -37.6902 375.8224)" width="43.3" height="8" class="c"/><path d="M224.7 234.1c-5.4 3.7-6 12.1-1.5 18.7 0.2 0.2 0.3 0.5 0.5 0.7 0.3 0.4 0.9 0.4 1.5 0l17.5-12c0.5-0.4 0.8-1 0.5-1.4 -0.1-0.2-0.3-0.5-0.5-0.7C238.1 232.8 230.1 230.4 224.7 234.1z" class="d"/><path d="M609.3 285.6H176.7c-1.4 0-2.5-1.2-2.5-2.7v-20.7c0-1.5 1.1-2.7 2.5-2.7h432.6c1.4 0 2.5 1.2 2.5 2.7v20.7C611.9 284.4 610.7 285.6 609.3 285.6z" class="b"/><path d="M510.5 198c-0.4-1.6-2.2-2.6-4-2.2 -1.8 0.4-3 2.1-2.6 3.7l5.3 22.7c0.1 0.4-0.1 0.9-0.4 1.1 -4.2 3.9-5.8 12.5-3.8 21.8 0.1 0.4 0.5 0.6 0.9 0.5l23.3-5.4c0.4-0.1 0.7-0.5 0.6-0.8 -2.3-9.2-7.6-16.2-13.1-17.9 -0.4-0.1-0.8-0.5-0.9-0.8L510.5 198z" class="c"/></svg>