<svg version="1.1" id="Layer_1" xmlns="http://www.w3.org/2000/svg" viewBox="0 0 768 430" enable-background="new 0 0 768 430" xml:space="preserve">
<g>
	<g>
		<g>
			<linearGradient id="SVGID_1_" gradientUnits="userSpaceOnUse" x1="330.623" y1="296.6855" x2="467.269" y2="296.6855">
				<stop  offset="0" style="stop-color:#FFD383"/>
				<stop  offset="0.5937" style="stop-color:#FFB872"/>
				<stop  offset="1" style="stop-color:#FFA364"/>
			</linearGradient>
			<path fill="url(#SVGID_1_)" d="M419.185,298.592c0.083-3.354,0.207-5.869,0.207-5.869h-21.997h-0.576h-21.996
				c0,0,0.177,3.596,0.248,7.925c4.726-0.782,36.133-5.979,36.714-5.979C412.114,294.668,415.771,296.676,419.185,298.592z"/>
			<linearGradient id="SVGID_2_" gradientUnits="userSpaceOnUse" x1="330.6226" y1="336.7148" x2="467.2686" y2="336.7148">
				<stop  offset="0" style="stop-color:#FFD383"/>
				<stop  offset="0.5937" style="stop-color:#FFB872"/>
				<stop  offset="1" style="stop-color:#FFA364"/>
			</linearGradient>
			<path fill="url(#SVGID_2_)" d="M472.141,344.396c-2.423-8.073-11.842-9.688-11.842-9.688s-25.413-7.531-29.335-9.688
				c-0.758-0.417-1.588-0.931-2.434-1.483c-0.013,1.23-0.184,1.99-0.599,1.96c-16.086-1.163-48.092-21.298-52.854-24.347
				c0.076,5.326-0.018,11.574-0.793,13.643c-1.439,3.836-7.112,8.07-11.035,10.228c-3.922,2.157-29.334,9.688-29.334,9.688
				s-9.42,1.615-11.842,9.688s-9.693,26.472-8.881,27.451c0.411,0.497,42.521,0.489,83.914,0.361
				c41.393,0.128,83.503,0.136,83.915-0.361C481.833,370.867,474.562,352.469,472.141,344.396z"/>
			<path opacity="0.8" fill="#EF843C" d="M374.456,300.75c0,0,0.23,0.148,0.621,0.398c-0.003-0.166-0.004-0.336-0.007-0.501
				C374.686,300.711,374.456,300.75,374.456,300.75z"/>
			<linearGradient id="SVGID_3_" gradientUnits="userSpaceOnUse" x1="330.6226" y1="310.082" x2="467.2684" y2="310.082">
				<stop  offset="0" style="stop-color:#FFD383"/>
				<stop  offset="0.5937" style="stop-color:#FFB872"/>
				<stop  offset="1" style="stop-color:#FFA364"/>
			</linearGradient>
			<path fill="url(#SVGID_3_)" d="M428.53,323.535c-3.529-2.312-7.439-5.648-8.601-8.744c-0.905-2.412-0.885-10.514-0.745-16.199
				c-3.414-1.916-7.07-3.924-7.4-3.924c-0.581,0-31.988,5.197-36.714,5.979c0.003,0.165,0.004,0.335,0.007,0.501
				c4.763,3.049,36.769,23.184,52.854,24.347C428.347,325.525,428.518,324.766,428.53,323.535z"/>
			<path opacity="0.5" fill="#EF843C" d="M428.53,323.535c-3.529-2.312-7.439-5.648-8.601-8.744
				c-0.905-2.412-0.885-10.514-0.745-16.199c-3.414-1.916-7.07-3.924-7.4-3.924c-0.581,0-31.988,5.197-36.714,5.979
				c0.003,0.165,0.004,0.335,0.007,0.501c4.763,3.049,36.769,23.184,52.854,24.347C428.347,325.525,428.518,324.766,428.53,323.535z
				"/>
		</g>
		<g>
			<g>
				<path fill="#FFBC64" d="M464.375,205.314c0,0,8.462-21.1,16.411-10.092c7.949,11.01-4.359,35.779-6.411,37.003
					s-8.205-4.587-8.205-4.587L464.375,205.314z"/>
				<path fill="#FFBC64" d="M331.027,207.674c0,0-8.462-21.101-16.411-10.092c-7.949,11.01,4.359,35.779,6.41,37.003
					c2.052,1.224,8.206-4.587,8.206-4.587L331.027,207.674z"/>
			</g>
			<linearGradient id="SVGID_4_" gradientUnits="userSpaceOnUse" x1="397.6699" y1="116.0796" x2="397.6699" y2="308.0421">
				<stop  offset="0" style="stop-color:#FFD383"/>
				<stop  offset="0.3124" style="stop-color:#FFCD7E"/>
				<stop  offset="0.7407" style="stop-color:#FFBB70"/>
				<stop  offset="1" style="stop-color:#FFAD64"/>
			</linearGradient>
			<path fill="url(#SVGID_4_)" d="M397.836,115.533v-0.004c-0.056-0.001-0.11,0.002-0.165,0.002s-0.11-0.003-0.165-0.002v0.004
				c-37.72-0.103-76.756,23.951-75.231,65.502c0.195,5.32,4.337,80.693,9.929,89.779c6.089,9.896,38.565,34.395,65.303,35.561v0.03
				c0.054-0.002,0.11-0.013,0.165-0.015c0.055,0.002,0.11,0.013,0.165,0.015v-0.03c26.737-1.166,59.213-25.664,65.303-35.561
				c5.591-9.086,9.732-84.459,9.928-89.779C474.592,139.484,435.555,115.431,397.836,115.533z"/>
			<path opacity="0.2" fill="#F39200" d="M420.333,118.361c19.51,11.871,33.455,32.354,32.531,59.863
				c-0.086,2.593,8.098,30.676-1.533,43.547c4.468,5.713-5.294,49.152-8.395,54.663c-3.676,6.534-16.985,18.866-32.825,27.915
				c23.569-6.223,47.795-25.127,52.969-33.535c5.592-9.086,9.733-84.459,9.929-89.779
				C474.228,147.835,449.544,125.822,420.333,118.361z"/>
			<path opacity="0.1" fill="#FFFFFF" d="M349.879,283.191c-7.374-5.391-12.886-10.662-14.968-14.044
				c-4.498-7.31-8.897-72.9-9.457-88.229c-0.722-19.646,8.274-36.666,24.736-48.065c-9.686,12.631-14.568,28.153-13.998,45.245
				c0.029,0.87,4.025,89.064,10.329,100.352C347.325,279.889,348.464,281.488,349.879,283.191z"/>
			
				<radialGradient id="SVGID_5_" cx="390.665" cy="10408.0234" r="40.272" gradientTransform="matrix(1 0 0 0.4476 0 -4406.2217)" gradientUnits="userSpaceOnUse">
				<stop  offset="0" style="stop-color:#FFFFFF"/>
				<stop  offset="0.0175" style="stop-color:#FFFDFA"/>
				<stop  offset="0.1726" style="stop-color:#FFE9D0"/>
				<stop  offset="0.3312" style="stop-color:#FFD9AE"/>
				<stop  offset="0.4917" style="stop-color:#FFCD93"/>
				<stop  offset="0.6547" style="stop-color:#FFC480"/>
				<stop  offset="0.822" style="stop-color:#FFBF75"/>
				<stop  offset="1" style="stop-color:#FFBD71"/>
			</radialGradient>
			<path opacity="0.31" fill="url(#SVGID_5_)" d="M380.299,251.279c12.249,4.262,36.062,0.95,37.647-0.984
				c-0.261-7.091-7.121-17.724-7.738-21.059c0,0-19.266-2.469-22.353,0C386.497,235.535,380.299,245.773,380.299,251.279z"/>
			<path fill="#EA9D49" d="M417.974,250.147c-3.156,0.763-17.645,4.227-37.675,1.132c-0.149,0.798,8.081,5.988,18.036,7.471
				C403.145,259.882,418.826,251.041,417.974,250.147z"/>
			<path opacity="0.3" fill="#DD9544" d="M410.79,251.537c1.441-0.745-1.242-20.574-0.845-20.971
				c2.782,6.559,6.361,8.397,8.028,19.581C415.539,251.092,413.026,251.339,410.79,251.537z"/>
		</g>
	</g>
	<linearGradient id="SVGID_6_" gradientUnits="userSpaceOnUse" x1="359.1533" y1="100.582" x2="396.0815" y2="208.4846">
		<stop  offset="0" style="stop-color:#915418"/>
		<stop  offset="1" style="stop-color:#683C11"/>
	</linearGradient>
	<path opacity="0.2" fill="url(#SVGID_6_)" d="M453.841,161.597c-4.13-0.872-35.903,11.584-54.41,11.584
		c-0.406,0-13.735-0.827-19.158-1.938c-27.564-3.438-38.714-4.595-43.443-5.725c-2.393,3.127-4.329,7.146-4.689,8.365
		c-0.589,1.988,2.449,15.206,2.457,18.605c0.008,3.398-5.204,36.614-6.16,37.394c-0.306,0.249-2.208-0.068-2.725-0.112
		c0.051,0.577-0.054-0.275,0,0.299c1.012,0.474,4.143,0.918,4.721,0.447c0.955-0.777,5.762-32.508,5.754-35.908
		c-0.008-3.397-3.046-16.615-2.457-18.604c0.36-1.221,2.297-5.239,4.69-8.365c4.729,1.129,15.878,2.287,43.442,5.726
		c5.423,1.108,18.753,1.938,19.158,1.938c18.508,0,50.28-12.459,54.41-11.584c1.378,0.29,2.822,1.542,4.162,3.143
		C457.869,164.324,455.786,162.009,453.841,161.597z"/>
</g>
<g>

	<path fill="#3A3A3A" d="M408.741,200.702c0,0,24.65,0.019,48.239,4.833c5.703-1.157-27.004-10.622-31.157-10.623
		C421.671,194.911,413.289,196.997,408.741,200.702z"/>
	<path fill="#3A3A3A" d="M388.767,200.415c0,0-24.648,0.304-48.18,5.392c-5.717-1.091,26.879-10.934,31.031-10.982
		C375.771,194.774,384.177,196.764,388.767,200.415z"/>
	<path opacity="0.8" fill="#EF843C" d="M386.222,286.123c2.366-0.289,13.23-1.602,28.248-0.429c0.112-0.302-6.06-2.27-13.522-2.831
		C397.341,282.435,385.583,285.785,386.222,286.123z"/>
	<g>
		<path fill="#FFFFFF" d="M416.799,231.271c-1.235-2.352-1.097-9.592,0-12.504s9.96-16.044,22.214-12.033
			c12.253,4.012,12.975,14.344,12.975,14.344S441.215,239.567,416.799,231.271z"/>
		<path opacity="0.9" fill="#3A3A3A" d="M440.17,210.445c5.21,1.452,9.215,4.447,11.409,7.892
			c-1.895-4.698-5.972-9.606-12.229-11.603c-12.575-4.011-21.672,9.121-22.798,12.033c-0.261,0.674-0.467,1.648-0.616,2.768
			C417.325,218.632,426.937,206.758,440.17,210.445z"/>
	</g>
	<g>
		<path fill="#FFFFFF" d="M381.114,230.139c1.235-2.352,1.097-9.592,0-12.504s-9.96-16.043-22.214-12.033
			c-12.253,4.012-13.483,18.612-13.483,18.612S356.698,238.436,381.114,230.139z"/>
		<path fill="#3A3A3A" d="M357.845,209.313c-5.178,1.451-8.537,4.714-10.718,8.158c1.882-4.698,5.314-9.874,11.53-11.87
			c12.496-4.01,21.534,9.121,22.652,12.033c0.26,0.675,0.464,1.649,0.612,2.768C380.542,217.5,370.993,205.625,357.845,209.313z"/>
	</g>
	<radialGradient id="SVGID_7_" cx="366.0371" cy="223.1133" r="7.2383" gradientUnits="userSpaceOnUse">
		<stop  offset="0.5027" style="stop-color:#683C11"/>
		<stop  offset="0.603" style="stop-color:#7D4C0A"/>
		<stop  offset="0.7195" style="stop-color:#8F5A04"/>
		<stop  offset="0.8461" style="stop-color:#996101"/>
		<stop  offset="1" style="stop-color:#9C6400"/>
	</radialGradient>
	<circle fill="url(#SVGID_7_)" cx="366.037" cy="223.113" r="7.238"/>
	<circle fill="#1D1D1B" cx="366.009" cy="223.188" r="4.54"/>
	<circle fill="#FFFFFF" cx="369.687" cy="220.105" r="2.847"/>
	
		<radialGradient id="SVGID_8_" cx="110.9282" cy="223.1133" r="7.2385" gradientTransform="matrix(-1 0 0 1 542.834 0)" gradientUnits="userSpaceOnUse">
		<stop  offset="0.5027" style="stop-color:#683C11"/>
		<stop  offset="0.603" style="stop-color:#7D4C0A"/>
		<stop  offset="0.7195" style="stop-color:#8F5A04"/>
		<stop  offset="0.8461" style="stop-color:#996101"/>
		<stop  offset="1" style="stop-color:#9C6400"/>
	</radialGradient>
	<circle fill="url(#SVGID_8_)" cx="431.906" cy="223.113" r="7.239"/>
	<circle fill="#1D1D1B" cx="431.934" cy="223.188" r="4.54"/>
	<circle fill="#FFFFFF" cx="435.393" cy="219.947" r="2.847"/>
	<ellipse fill="#683C11" cx="399.158" cy="279.437" rx="20.674" ry="14.313"/>
	<path fill="#FFFFFF" d="M416.402,271.549c-3.7-3.869-10.038-6.426-17.244-6.426c-7.233,0-13.591,2.577-17.285,6.473
		c3.739,0.917,7.904,1.513,12.417,1.938C402.724,274.329,410.52,273.815,416.402,271.549z"/>
	<path opacity="0.49" fill="#BE1622" d="M399.158,293.748c7.829,0,14.639-3.013,18.148-7.455
		c-4.116-1.891-10.307-3.107-17.279-3.107c-7.689,0-14.446,1.473-18.491,3.707C385.17,291,391.692,293.748,399.158,293.748z"/>
</g>
<linearGradient id="SVGID_9_" gradientUnits="userSpaceOnUse" x1="309.7568" y1="350.8037" x2="484" y2="350.8037">
	<stop  offset="0" style="stop-color:#5B777F"/>
	<stop  offset="0.2924" style="stop-color:#57767F"/>
	<stop  offset="0.5533" style="stop-color:#4D727F"/>
	<stop  offset="0.8013" style="stop-color:#3A6B7F"/>
	<stop  offset="1" style="stop-color:#26647F"/>
</linearGradient>
<path fill="url(#SVGID_9_)" d="M484,371.334c-0.271-2.21-1.657-6.273-4.886-15.347c-1.597-4.487-3.248-9.128-4.154-12.153
	c-2.765-9.212-12.505-11.54-14.136-11.867c-9.716-2.883-25.931-7.939-28.556-9.383c-1.282-0.706-2.645-1.592-3.938-2.547
	c-6.351,8.594-17.788,14.35-30.886,14.35c-13.377,0-25.029-5.998-31.289-14.895c-1.501,1.168-3.142,2.254-4.667,3.093
	c-2.625,1.442-18.838,6.499-28.554,9.382c-1.629,0.327-11.373,2.655-14.136,11.867c-0.907,3.022-2.557,7.658-4.153,12.143
	c-3.231,9.082-4.618,13.146-4.889,15.357h0.081c-0.002,0.029-0.018,0.059-0.018,0.088c0,5.907,38.99,10.693,87.089,10.693
	c48.1,0,87.091-4.786,87.091-10.693c0-0.029-0.016-0.059-0.019-0.088H484z"/>
<linearGradient id="SVGID_10_" gradientUnits="userSpaceOnUse" x1="367.1084" y1="84.3525" x2="407.0984" y2="201.2017">
	<stop  offset="0" style="stop-color:#915418"/>
	<stop  offset="1" style="stop-color:#683C11"/>
</linearGradient>
<path fill="url(#SVGID_10_)" d="M474.367,132.351c-37.901-30.481-96.213-43.468-98.598-42.275c-2.386,1.192,1.192,9.343,1.192,9.343
	s-28.228-9.74-29.818-9.343c-1.59,0.397,8.945,12.126,8.945,12.126s-25.342-5.651-27.083-4.516
	c-1.741,1.137,9.987,11.076,9.987,11.076s-21.79-4.027-38,4.416c-0.268,0.811,21.501,5.324,21.501,5.324
	s-22.97,11.205-27.513,17.521c0.319,0.393,25.525-2.613,25.525-2.613s-14.213,10.305-14.472,13.523
	c4.687,2.725,8.724,10.658,10.949,12.478c-0.039,0.214-0.063,0.472-0.094,0.714c-0.716,6.021,1.159,20.664,2.835,34.938
	c0.588,0.039,0.997,0.123,1.369,0.246c0.605,0.197,1.089,0.521,1.876,1.115c0.023,0.359,0.049,0.752,0.073,1.121
	c0.587,9.209,1.441,21.18,2.504,32.874c0.477,0.224,0.979,0.355,1.438,0.395c0.518,0.044,0.982-0.034,1.288-0.283
	c0.955-0.779,6.167-33.995,6.159-37.394c-0.008-3.399-3.046-16.617-2.457-18.605c0.36-1.219,2.297-5.238,4.69-8.365
	c4.729,1.13,15.878,2.287,43.442,5.726c5.423,1.11,18.753,1.938,19.158,1.938c18.507,0,50.28-12.457,54.41-11.584
	c1.945,0.411,4.028,2.727,5.752,5.264c2.676,3.198,4.923,7.818,5.316,9.144c0.587,1.987-2.449,15.206-2.457,18.604
	c-0.008,2.957,3.934,28.464,5.59,35.569c0.467,0.006,0.996-0.1,1.511-0.31c1.213-12.925,2.174-26.499,2.803-36.478
	c1.347-1.013,1.594-1.014,2.588-1.213c1.171-10.305,2.85-20.601,3.355-27.445C478.739,163.84,481.265,142.535,474.367,132.351z"/>
</svg>
