<svg xmlns="http://www.w3.org/2000/svg" viewBox="0 0 768 430"><style>.a{fill:#3F3E3D;}.b{fill:#474746;}.c{fill:#1B1919;}.d{fill:#1E1E1E;}.e{fill:#0F0F0F;}.f{fill:#080808;}.g{fill:#CCCACA;}.h{fill:#E0DEDE;}.i{fill:#666565;}.j{fill:#898888;}.k{fill:#5E5E5E;}.l{fill:#6D6B6B;}.m{fill:#888;}.n{fill:#FFF;}.o{fill:#FF6860;}.p{fill:#737373;}.q{fill:none;}</style><path d="M337.2 284.3c0 0 1.9 33.5-2 41.3 -3.8 7.1-4.9 9-5.9 10.6 -2.1 1.4-11.1 6.9-10.4 17.5 2.5 0.4 6.9 0 6.9 0s-0.3 3.2 1.8 3.4c2.2 0.2 10.8 0.8 17.3-3.6 3.9-2.6 3.1-10.1-1.2-13.4 5.7 0.4 8.8-2.3 8.4-3.7 -0.4-1.4-0.1-14.7 1.6-22.4 1.7-7.6 0-14.4 3.4-20.4C350.6 291.2 337.2 284.3 337.2 284.3z" class="a"/><path d="M342.6 299c-2.4-2-3.7-4.2-5.2-7.8 0.3 10.2 0.5 28.8-2.2 34.4 -3.8 7.1-4.9 9-5.9 10.6 0 0 0 0-0.1 0 4.5-1.4 6-2.8 9.6-5.1C348.2 324.8 347.9 303.3 342.6 299z" class="b"/><path d="M330.9 357.7c-1.4 0-2.6-0.1-3.3-0.2 -1.8-0.2-2.3-2-2.3-3.3 -0.7 0.1-2.1 0.1-3.5 0.1 -1.2 0-2.2-0.1-3-0.2l-0.4-0.1 0-0.4c-0.5-6.9 3-12.9 10.3-17.8l0.2-0.1c1-1.5 2-3.4 5.8-10.4 3.7-7.6 1.9-40.7 1.9-41l-0.1-0.9 0.8 0.4c0.1 0.1 13.5 6.9 20 9.3l0.6 0.2 -0.3 0.5c-2 3.5-2.2 7.4-2.4 11.5 -0.1 2.8-0.3 5.7-1 8.7 -1.7 7.6-2.1 20.8-1.7 22.1 0.2 0.5 0 1.1-0.4 1.7 -0.9 1.2-3.3 2.7-7.1 2.7 1.8 2 2.9 4.8 2.9 7.6 -0.1 2.5-1.1 4.5-2.8 5.6C340.6 357 334.9 357.7 330.9 357.7zM326.4 353l0 0.6c0 0-0.2 2.7 1.4 2.8 0.7 0.1 1.8 0.2 3.2 0.2 3.8 0 9.3-0.6 13.7-3.7 1.4-0.9 2.2-2.6 2.3-4.8 0.1-3-1.3-6-3.5-7.7l-1.4-1.1 1.8 0.1c0.4 0 0.8 0 1.1 0 3.3 0 5.6-1.2 6.5-2.3 0.2-0.3 0.3-0.6 0.3-0.8 -0.5-1.6-0.1-15.1 1.6-22.6 0.7-3 0.8-5.8 0.9-8.5 0.2-4 0.4-7.8 2.3-11.4 -5.7-2.2-15.8-7.2-18.7-8.7 0.3 5.5 1.5 33.4-2.1 40.6 -3.9 7.2-4.9 9.1-5.9 10.6l-0.1 0.1 -0.4 0.3c-2.6 1.7-10.3 6.9-9.9 16.4 0.7 0.1 1.5 0.1 2.4 0.1 2 0 4-0.2 4-0.2L326.4 353z" class="c"/><path d="M362.3 294.7c0 0 3.3 22.5 0.9 41 -0.5 4.1-5.9 8.8-7.6 10 -1.8 1.2-10.6 8.6-12.4 16.5 -0.4 1.5 7.3 1.1 8.4 0.8 0 1.8-0.1 5.1 1.8 5.2 1.8 0.1 10.9 1 18.1-5.9 2.2-2.9-0.8-9.4-0.9-11.2 1.7 0.3 6.6-1.1 7.9-3 1-1.5 2.4-3.3 1.2-10.9 -1.1-7-3.6-27.2 3.8-42.1C377.7 292.6 362.3 294.7 362.3 294.7z" class="a"/><path d="M362.3 294.7c0 0 3.3 22.5 0.9 41 -0.5 4.1-5.9 8.8-7.6 10 -1.8 1.2 16.7 0.8 18.6-0.5 2.2-1.5 3.9-1.9 2.7-9.5 -1.1-7-6.9-23.3 0.5-38.3C371.7 295 362.3 294.7 362.3 294.7z" class="b"/><path d="M355.7 368.8c-1 0-1.8-0.1-2.3-0.1l-0.1 0c-2.1-0.1-2.2-3.1-2.2-5.1 -0.8 0.1-2.1 0.2-3.4 0.2 -4.1 0-4.6-0.7-4.8-0.9 -0.2-0.2-0.2-0.5-0.2-0.8 1.8-7.8 10.4-15.2 12.6-16.7 2.1-1.5 6.9-6 7.4-9.6 2.4-18.2-0.8-40.6-0.9-40.8l-0.1-0.5 0.5-0.1c0.1 0 6.2-0.8 12.1-0.8 4.2 0 7.3 0.4 9.2 1.2l0.5 0.2 -0.2 0.5c-7.1 14.4-5 34-3.7 41.8 1.2 7.6-0.2 9.7-1.2 11.2l-0.1 0.1c-1.3 2-5.7 3.2-7.7 3.3 0.1 0.4 0.3 1 0.4 1.6 0.8 2.8 2 7.1 0.3 9.4l0 0.1C366.4 367.7 360.1 368.8 355.7 368.8zM352.1 362.3v0.8c0 1.4 0 4.4 1.3 4.5l0.1 0c0.5 0 1.2 0.1 2.2 0.1 4.2 0 10.3-1 15.3-5.8 1.4-1.9 0.3-5.8-0.5-8.4 -0.3-1-0.5-1.9-0.6-2.4l0-0.7 0.6 0.1c0.1 0 0.3 0 0.4 0 2 0 6-1.3 7-2.8l0.1-0.1c0.9-1.4 2.2-3.2 1-10.5 -1.3-7.8-3.4-27.3 3.6-41.9 -1.8-0.6-4.6-0.9-8.3-0.9 -4.8 0-9.9 0.5-11.5 0.7 0.5 3.5 3 23.8 0.8 40.6 -0.6 4.4-6.3 9.3-7.8 10.4 -2 1.4-10.4 8.7-12.1 16.1 0.2 0.1 0.9 0.5 4 0.5 1.7 0 3.4-0.1 3.8-0.2L352.1 362.3z" class="c"/><path d="M329.3 336.1c-2.1 1.4-11.1 6.9-10.4 17.5 2.5 0.4 6.9 0 6.9 0s-0.3 3.2 1.8 3.4c2.2 0.2 10.8 0.8 17.3-3.6 3.9-2.6 3.1-10.1-1.2-13.4C336.9 335.1 332.6 335.3 329.3 336.1z" class="d"/><path d="M329.3 336.1c-2.1 1.4-11.1 6.9-10.4 17.5 2.5 0.4 6.9 0 6.9 0s-0.3 3.2 1.8 3.4c2.2 0.2 10.8 0.8 17.3-3.6 3.9-2.6 3.1-10.1-1.2-13.4C336.9 335.1 332.6 335.3 329.3 336.1z" class="e"/><path d="M327.7 347.2c0 1.6-0.7 4.4 1 5.5 4.2 1.6 9.5 0.1 12.1-4.1 1.6-3.1 4-6.7 1-9.8 -5.7-3.6-9.6-3.4-12.6-2.7 -2.1 1.4-11 6.9-10.4 17.3C322.4 351.9 325.1 350.3 327.7 347.2z" class="d"/><path d="M330.9 357.7h0c-1.4 0-2.6-0.1-3.3-0.2 -1.8-0.2-2.3-2-2.3-3.3 -0.7 0.1-2.1 0.1-3.5 0.1 -1.2 0-2.2-0.1-3-0.2l-0.4-0.1 0-0.4c-0.5-6.9 3-12.9 10.3-17.8l0.4-0.2 0.1 0c1.2-0.3 2.4-0.5 3.5-0.5 3.5 0 7.2 1.5 11.3 4.5 2.5 1.9 4.1 5.3 4 8.6 -0.1 2.5-1.1 4.5-2.8 5.6C340.6 357 334.9 357.7 330.9 357.7zM326.4 353l0 0.6c0 0-0.2 2.7 1.4 2.8 0.7 0.1 1.8 0.2 3.2 0.2h0c3.8 0 9.3-0.6 13.7-3.7 1.4-0.9 2.2-2.6 2.3-4.8 0.1-3-1.3-6-3.5-7.7 -4-2.9-7.5-4.2-10.7-4.2 -1 0-2 0.1-3.2 0.4l-0.2 0.1c-2.6 1.7-10.3 6.9-9.9 16.4 0.7 0.1 1.5 0.1 2.4 0.1 2 0 4-0.2 4-0.2L326.4 353z" class="f"/><path d="M355.4 345.7c-1.9 1.4-10.6 8.7-12.3 16.4 -0.4 1.5 7.3 1.1 8.4 0.8 0 1.8-0.1 5.1 1.8 5.2 1.8 0.1 10.9 1 18.1-5.9 1.4-1.8 0.8-4.9 0.1-7.4C365.3 347.2 359.3 345.7 355.4 345.7z" class="e"/><path d="M354.5 362.3c7.5 2.4 17.5-7.6 14.5-10.2 -5.2-5.2-10.2-6.4-13.6-6.4 -1.9 1.3-10.5 8.7-12.3 16.4 3.9-0.4 7.7-3.1 11-4.9C352.9 358.7 352.9 361.4 354.5 362.3z" class="d"/><path d="M355.7 368.8L355.7 368.8c-1 0-1.8-0.1-2.3-0.1l-0.1 0c-2.1-0.1-2.2-3.1-2.2-5.1 -0.8 0.1-2.1 0.2-3.4 0.2 -4.1 0-4.6-0.7-4.8-0.9 -0.2-0.2-0.2-0.5-0.2-0.8 2-8.8 12.4-16.6 12.5-16.7l0.1-0.1h0.2c4.1 0 10.2 1.6 16.4 9.3l0.1 0.1 0 0.1c0.7 2.7 1.3 5.9-0.2 7.9l0 0.1C366.4 367.7 360.1 368.8 355.7 368.8zM352.1 362.3v0.8c0 1.4 0 4.4 1.3 4.5l0.1 0c0.5 0 1.2 0.1 2.2 0.1 4.2 0 10.3-1 15.3-5.8 1.2-1.6 0.6-4.5 0-6.8 -5.8-7.2-11.5-8.8-15.3-8.8 -2.3 1.7-10.3 8.8-11.9 15.9 0.2 0.1 0.9 0.5 4 0.5 1.7 0 3.4-0.1 3.8-0.2L352.1 362.3z" class="f"/><path d="M529.8 191.4c0 0 15.7-3.4 16.1 9.4 5 0.5 8.8 5 6.6 12.7 2.5 3 10 9.9 0.7 18.7 3.3 5.6-1.2 16.8-12.2 16.8C530.1 249.1 529.8 191.4 529.8 191.4z" class="g"/><path d="M543.3 218c4.7 2.1 4.2 8.8 6.2 10.4 2.2 2.5 5 1.4 7.3-1 3-6.5-2.3-11.4-4.3-13.9 2.3-7.7-1.6-12.3-6.6-12.7 -0.5-12.9-16.1-9.4-16.1-9.4s0 3.7 0.2 9.2C539.1 201.8 548.4 207.9 543.3 218z" class="h"/><path d="M541 249.6c-4.8 0-8.3-9.9-10.2-29.3 -1.4-14.3-1.5-28.8-1.5-28.9l0-0.4 0.4-0.1c0.1 0 2-0.4 4.5-0.4 4.4 0 11.7 1.3 12.2 9.9 2.4 0.3 4.4 1.6 5.7 3.5 1.2 1.7 2.3 4.8 0.9 9.6 0.1 0.2 0.3 0.3 0.4 0.5 2.9 3.3 8.9 10.1 0.3 18.4 1.5 2.9 1.2 6.9-0.8 10.5C550.5 247.1 546.2 249.6 541 249.6zM530.4 191.8c0.1 16.2 2.2 56.7 10.7 56.7 4.8 0 8.8-2.3 11.1-6.3 1.9-3.3 2.1-7.2 0.6-9.8l-0.2-0.4 0.3-0.3c8.3-7.8 2.8-14-0.1-17.3 -0.2-0.3-0.4-0.5-0.6-0.7l-0.2-0.2 0.1-0.3c1.4-4.6 0.4-7.4-0.7-9 -1.2-1.8-3.1-2.9-5.4-3.1l-0.5 0 0-0.5c-0.3-7.7-6.2-9.3-11.2-9.3C532.5 191.5 531 191.7 530.4 191.8z" class="i"/><path d="M245.7 154.8c0 0-27.7 6.4-37.1-12.5 -7.4-15.6-1.4-18.4 2.1-19.2 2.9-0.6 7.7-0.6 14.2 4.8 6.9 5.7 18.1 10.4 27.3 9.1C257.4 140 245.7 154.8 245.7 154.8z" class="a"/><path d="M247.3 149.9c0 0-26.3 10-35.7-9 -7.4-15.6-4.4-17-0.8-17.8 2.9-0.6 7.7-0.6 14.2 4.8 6.9 5.7 18.1 10.4 27.3 9.1C257.4 140 247.3 149.9 247.3 149.9z" class="b"/><path d="M247.3 149.9c0 0-26.3 10-35.7-9 -7.4-15.6-4.4-17-0.8-17.8 2.9-0.6 7.7-0.6 14.2 4.8 6.9 5.7 18.1 10.4 27.3 9.1C257.4 140 247.3 149.9 247.3 149.9z" class="b"/><path d="M219.2 134.8c8.1 11.7 19.7 16.2 31.2 13.2 2.1-3 4.6-9.3 1.8-11 -9.2 1.3-20.4-3.4-27.3-9.1 -6.5-5.4-11.3-5.5-14.2-4.8 -2.8 0.6-8.1 6.1-3.2 9.3C211.7 131 217.2 131.8 219.2 134.8z" class="j"/><path d="M219.2 134.8c8.1 11.7 19.7 16.2 31.2 13.2 2.1-3 3.5-7.2 0.7-8.9 -9.2 1.3-19.1-3.1-25.9-8.9 -6.5-5.4-11.5-7.8-14.4-7.2 -2.8 0.6-8.1 6.1-3.2 9.3C211.7 131 217.2 131.8 219.2 134.8z" class="k"/><path d="M235.2 156.4c-9.2 0-21.3-2.4-27-13.9 -3.5-7.4-4.4-12.9-2.8-16.2 0.9-1.9 2.7-3.1 5.2-3.7 4.6-1 9.5 0.7 14.6 4.9 5.5 4.6 15 9.2 23.8 9.2 1.1 0 2.1-0.1 3.2-0.2l0.2 0 0.2 0.1c0.8 0.5 1.3 1.2 1.5 2.2 1 5.1-7.5 16-7.9 16.4l-0.1 0.1 -0.2 0C245.8 155.3 241.2 156.4 235.2 156.4zM213.3 123.3c-0.8 0-1.6 0.1-2.4 0.3 -2.3 0.5-3.7 1.5-4.5 3.2 -1.5 3.1-0.6 8.2 2.8 15.3 5.5 11 17.2 13.3 26.1 13.3 5.2 0 9.4-0.8 10.2-1 1-1.3 8.4-11.1 7.5-15.4 -0.1-0.6-0.4-1.1-0.9-1.4 -1 0.1-2 0.2-3.1 0.2 -7.9 0-17.5-3.7-24.4-9.4C220.6 125 216.8 123.3 213.3 123.3z" class="c"/><path d="M210.8 131.8c0 0 4.5 17.7 19.8 14.6C229 139.9 215.1 132.1 210.8 131.8z" class="l"/><path d="M216.9 134c-2.6-1.3-4.8-2.1-6.2-2.2 0 0 3.1 12.4 13.2 14.6C219.9 143.3 216.4 139.5 216.9 134z" class="m"/><path d="M227.1 147.3L227.1 147.3c-12.8 0-16.8-15.2-16.8-15.3l-0.2-0.7 0.7 0c4.3 0.3 18.6 8.1 20.3 15l0.1 0.5 -0.5 0.1C229.5 147.1 228.2 147.3 227.1 147.3zM211.5 132.4c1 3 5.2 13.8 15.6 13.8h0c0.9 0 1.9-0.1 2.9-0.3C227.9 140.1 216.1 133.4 211.5 132.4z" class="c"/><path d="M207.6 132.4c0 0 6.6-1 13 7.1 6.4 8.2 10.6 10.6 23 9.7 0 0-4.1-7.1-15.9-13.8C213.3 127.2 207.6 132.4 207.6 132.4z" class="b"/><path d="M207.6 132.4c0 0 9-2.9 15.4 5.3 6.4 8.1 8.2 12.4 20.7 11.5 0 0-4-8.6-15.8-15.3C213.4 125.7 207.6 132.4 207.6 132.4z" class="k"/><path d="M239.3 149.9c-9.5 0-13.5-2.9-19.2-10.1 -6.1-7.7-12.5-7.4-12.6-7.4 0 0 6.9-1.5 13.4 6.8 6.3 8 10.2 10.4 22.6 9.5l0.1 1C242.1 149.8 240.7 149.9 239.3 149.9z" class="c"/><path d="M478.8 289.8c0 0 5.4 8.8 3.5 34.2 -1.6 8.7-1.7 8.7-1.9 9.1 -2.1 1.8-11.4 9.4-12.5 17.8 -0.3 2 8.1 1.2 8.1 1.2 -0.3 1.7-1.2 3.8 3.3 4 4.6 0.2 17.8 0.9 15.9-14.8 4.4-0.3 8.6-2.3 5-13.9 -3.6-11.6-2.6-31.2-0.6-39.8C492.6 289.2 478.8 289.8 478.8 289.8z" class="a"/><path d="M486.6 299.7c-0.4-2.1-2.3 1-4.7 1.9 0.7 5.3 1.1 12.6 0.3 22.4 -1.1 6.2-1.5 8-1.7 8.6C491.2 326.5 490.7 309.9 486.6 299.7z" class="b"/><path d="M481.6 356.6c-0.9 0-1.7 0-2.3-0.1l-0.1 0c-1.9-0.1-3-0.5-3.6-1.2 -0.6-0.8-0.5-1.8-0.3-2.7 -0.7 0.1-1.8 0.1-3 0.1l0 0c-3.5 0-4.4-0.6-4.7-1 -0.2-0.3-0.3-0.6-0.3-0.9 0.5-3.9 3.1-10.3 12.7-18.1 0.2-0.3 0.4-1 1.8-8.8 1.9-24.8-3.3-33.7-3.4-33.8l-0.5-0.7 0.9 0c0.1 0 13.8-0.7 20.6-2.2l0.8-0.2 -0.2 0.8c-2.1 9.1-2.8 28.6 0.6 39.5 1.8 5.7 1.9 9.6 0.3 11.9 -1.3 1.9-3.5 2.4-5.2 2.6 0.5 4.7-0.4 8.4-2.6 10.9C490.7 355.3 487 356.6 481.6 356.6zM476.5 351.4l-0.1 0.7c0 0.2-0.1 0.4-0.1 0.6 -0.2 0.8-0.3 1.5 0.1 2 0.4 0.5 1.3 0.8 2.8 0.8l0.1 0c0.6 0 1.4 0.1 2.3 0.1 5 0 8.5-1.2 10.7-3.6 2.1-2.4 2.9-5.9 2.3-10.6l-0.1-0.5 0.5 0c2.5-0.2 4-0.9 4.9-2.2 1.4-2 1.3-5.8-0.4-11 -3.5-11.2-2.7-29.9-0.8-39.3 -6 1.2-16.2 1.9-19.2 2 1.2 2.6 4.8 12.3 3.2 33.7l0 0.1c-1.5 8.4-1.7 8.8-1.9 9.2l0 0.1 -0.1 0.1c-9.3 7.6-11.9 13.7-12.4 17.5 0 0 0 0.1 0 0.1 0.1 0.2 0.8 0.6 4 0.6l0 0c1.8 0 3.5-0.2 3.6-0.2L476.5 351.4z" class="c"/><path d="M510.9 299.3c0 0 3.3 26.6-3 38.7 -4.9 8.5-12.9 10.4-14.9 21.2 -0.4 1.9 7.5 0.2 7.5 0.2 -0.3 1.7-0.3 4.5 0.3 4.6 0.6 0.1 13.6 0.1 20.3-3.7 4.5-2.6-1.1-9.4 1.3-11.5 2.4-2.2 6.1-2 5.3-8.3 -0.8-6.2-1.4-23-0.9-26.1s1-15 1-15S514.9 295 510.9 299.3z" class="b"/><path d="M510.9 299.3c0 0 3.3 26.6-3 38.7 -4.9 8.5-12.9 10.4-14.9 21.2 -0.4 1.9 7.5 0.2 7.5 0.2 -0.3 1.7-0.3 4.5 0.3 4.6 0.6 0.1 13.6 0.1 20.3-3.7 4.5-2.6-1.1-9.4 1.3-11.5 2.4-2.2 6.1-2 5.3-8.3 -0.8-6.2-1.4-23-0.9-26.1s1-15 1-15S514.9 295 510.9 299.3z" class="a"/><path d="M524.2 298.3c0 0-9.3-3.3-13.3 1 0 0 3.3 26.6-3 38.7 -0.9 1.6-1.9 2.9-3 4.2 5.3-0.5 10.5 2 15.8 0.9 1.7-0.5 1.3-3.9 0.9-7.3 -0.8-6.2-0.5-19.9 0-23.1C522.1 309.6 524.2 298.3 524.2 298.3z" class="b"/><path d="M501.6 364.5c-0.3 0-0.7 0-0.9 0 -0.1 0-0.4-0.1-0.5-0.3 -0.5-0.7-0.5-2.6-0.3-4.1 -1.1 0.2-3.3 0.6-4.9 0.6 -1.2 0-1.9-0.2-2.3-0.6 -0.2-0.2-0.3-0.6-0.2-0.9 1.2-6.7 4.7-10 8.3-13.5 2.3-2.2 4.7-4.5 6.6-7.8 6.1-11.8 3-38.1 2.9-38.4l0-0.2 0.2-0.2c1.3-1.4 3.5-2.1 6.5-2.1 5 0 10.6 1.9 10.9 1.9l0.4 0.1 0 0.4c0 0.5-0.5 11.9-1 15 -0.5 3.1 0.2 20 0.9 26 0.6 5-1.5 6.3-3.6 7.5 -0.6 0.4-1.3 0.8-1.9 1.3 -0.8 0.7-0.4 2.4 0.1 4.2 0.6 2.6 1.5 5.8-1.4 7.4C514.9 364.4 503 364.5 501.6 364.5zM501 363.4c0.1 0 0.3 0 0.6 0 4.7 0 14.1-0.8 19.2-3.7 2.2-1.3 1.6-3.8 1-6.3 -0.5-2.1-1-4 0.3-5.2 0.6-0.6 1.4-1 2.1-1.4 1.9-1.1 3.6-2.1 3.1-6.4 -0.8-6.1-1.4-23.1-0.9-26.3 0.5-2.7 0.9-12.4 1-14.5 -1.3-0.4-6-1.8-10.2-1.8 -2.6 0-4.5 0.5-5.6 1.6 0.3 2.9 2.9 27.1-3.1 38.8 -2 3.4-4.4 5.8-6.8 8.1 -3.5 3.4-6.9 6.6-8 12.9 0 0 0.2 0.3 1.4 0.3 2.2 0 5.4-0.7 5.5-0.7l0.8-0.2 -0.2 0.8C500.7 361 500.8 362.9 501 363.4z" class="c"/><path d="M324.2 211.4c0 0-16.4-0.8-10.3 18.7 -8.8 2.5-6 16.1 1.2 19.9 -3.5 8.3-1.8 14.6 3.8 17.3 1.4 7.6 3.2 11.1 9.4 12.1 0.7 8.3 4.3 11.7 10.7 10.5 3.5 5.1 10.8 10.5 28.2 0.2 5.7 5.1 6.8 7.2 19.8 4.1 1.8 3.9 3.6 7.8 14.8 6.2 6.5 6 11.4 6.2 18.5 4.7 7 4.7 9.9 2.9 13.5-1 4.7 3.6 12 4.9 17.7-0.8 6.2 2.9 14.6 2.3 19.5-3.6 6 2.3 11.4 1 15.3-4.4 6.8 0.8 13.5-4.9 15.1-13 14.8 0.3 44-57.7 32-81.3 4.2-12.6-6.4-17.5-16.8-16.6 -1.9-7.1-10.2-8.1-17.3-3.8 -6.4-6.9-14-7.4-20.5-2.6 -4.9-6.1-14-4.7-19.2 0.2 -6.8-4.9-14.7-0.3-16.6 2.5 -2-2.7-11.1-5.7-16.3 1.7 -4.2-4.9-12.7-4-15.8 1.3 -3.9-4.7-14.7-4.6-21.8-1.7 0.4-4-4.1-12.2-13.8-8.2 0.6-8.2-11-8.1-25.7-3.7C334.7 174.7 324.2 211.4 324.2 211.4z" class="h"/><path d="M324.2 211.4c0 0-16.4-0.8-10.3 18.7 -8.8 2.5-6 16.1 1.2 19.9 -3.5 8.3-1.8 14.6 3.8 17.3 1.4 7.6 3.2 11.1 9.4 12.1 0.7 8.3 4.3 11.7 10.7 10.5 3.5 5.1 10.8 10.5 28.2 0.2 5.7 5.1 6.8 7.2 19.8 4.1 1.8 3.9 3.6 7.8 14.8 6.2 6.5 6 11.4 6.2 18.5 4.7 7 4.7 9.9 2.9 13.5-1 4.7 3.6 12 4.9 17.7-0.8 6.2 2.9 14.6 2.3 19.5-3.6 6 2.3 11.4 1 15.3-4.4 6.8 0.8 13.5-4.9 15.1-13 14.8 0.3 44-57.7 32-81.3 4.2-12.6-6.4-17.5-16.8-16.6 -1.9-7.1-10.2-8.1-17.3-3.8 -6.4-6.9-14-7.4-20.5-2.6 -4.9-6.1-14-4.7-19.2 0.2 -6.8-4.9-14.7-0.3-16.6 2.5 -2-2.7-11.1-5.7-16.3 1.7 -4.2-4.9-12.7-4-15.8 1.3 -3.9-4.7-14.7-4.6-21.8-1.7 0.4-4-4.1-12.2-13.8-8.2 0.6-8.2-11-8.1-25.7-3.7C334.7 174.7 324.2 211.4 324.2 211.4z" class="g"/><path d="M324.2 211.4c0 0-16.4-0.8-10.3 18.7 -8.8 2.5-2.3 15.7 5 19.5 -3.5 8.3-2.3 12.7 3.3 15.5 1.4 7.6 3.1 9.1 9.4 10.1 0.7 8.3 4.7 9.4 11 8.2 3.5 5.1 8.9 11.1 26.3 0.9 5.7 5.1 5.8 9.2 18.8 6.1 1.8 3.9 3.1 7 14.3 5.4 6.5 6 11.4 6.3 18.5 4.8 7 4.7 9.4 2.8 13-1.1 4.7 3.6 12.7 3.7 18.5-2 6.2 2.9 11.7 2.4 16.6-3.5 6 2.3 12.1 1.6 16-3.9 6.8 0.8 12.4-3.5 13.9-11.6 14.8 0.3 46.8-53.8 34.9-77.4 4.2-12.6-6.4-17.5-16.8-16.6 -1.9-7.1-10.2-8.1-17.3-3.8 -6.4-6.9-14-7.4-20.5-2.6 -4.9-6.1-14-4.7-19.2 0.2 -6.8-4.9-14.7-0.3-16.6 2.5 -2-2.7-11.1-5.7-16.3 1.7 -4.2-4.9-12.7-4-15.8 1.3 -3.9-4.7-14.7-4.6-21.8-1.7 0.4-4-4.1-12.2-13.8-8.2 0.6-8.2-11-8.1-25.7-3.7C334.7 174.7 324.2 211.4 324.2 211.4z" class="h"/><path d="M516.6 184.4c-1.9-7.1-10.2-8.1-17.3-3.8 -6.4-6.9-14-7.4-20.5-2.6 -4.9-6.1-14-4.7-19.2 0.2 -6.8-4.9-14.7-0.3-16.6 2.5 -2-2.7-11.1-5.7-16.3 1.7 -4.2-4.9-12.7-4-15.8 1.3 -3.9-4.7-14.7-4.6-21.8-1.7 0.4-4-4.1-12.2-13.8-8.2 0.2-2.8-1-4.6-3.3-5.7 -4.1 3.7-10.9 3.9-13.3 8.6 -2.6 4.2-3.6 12-10.4 9.4 0.7 9.5-3.9 9.9-11.5 10.4 -3.2-0.2-10.9 2.9-4.8 8.3 2.6 3.1 6.4 5.4 11.6 5.1 -2.6 4.6 3 8.2 3 8.2 -6 3.3-10.7 7.1-7.2 12 -7.3 2.2-9.9 7.1-4.4 9 -1.7 5-1.4 18 11.6 14.1 -1.6 6.8-0.9 15.9 10.4 11.6 -0.9 6.4 3.1 11.7 11.3 7.5 0.9 4.9 15 3.6 15-8.7 3.9 2.7 17.2-1.8 12.7-12.9 5 3.9 6.6 11.1 0.3 18.2 5.8 4.5 9.5 4.6 10.9 1.5 4 2.2 9.5 1.4 13.5-3.1 3.1 3.8 7.7 9 14.8 1.5 7 4.1 15.1 3 18.9-5.1 5.5 3.8 13-0.9 14.3-8.7 6.5 2.6 10.2 0.1 10.8-3.3 4.2 4.6 8.2 1.1 8.6 0 4 4.3 12.6 6.7 15.5-3.5 6.1 0 14.8-1.8 14-12.9 7.1-1.2 14.4-11.6 7.8-21.7 6.6-4.5 9.7-8.7 8.2-12.9C537.6 188.4 527 183.5 516.6 184.4z" class="n"/><path d="M427.3 308.5c-2 0-4.3-0.9-7.1-2.8 -2.5 0.5-4.3 0.8-6.1 0.8 -4.5 0-8.2-1.6-12.4-5.5 -1.6 0.2-3.1 0.3-4.4 0.3 -7.2 0-9-3.2-10.6-6.5 -4.1 1-6.9 1.4-9.1 1.4 -4.5 0-6.4-1.7-9.6-4.6 -0.3-0.3-0.6-0.5-0.9-0.8 -6.5 3.8-12.2 5.7-16.9 5.7 -4.9 0-8.6-2-11.5-6 -6.5 1.1-10.2-2.6-11-10.7 -6.2-1.2-8-4.9-9.4-12.2 -5.7-3-7.2-9.5-4-17.5 -4.2-2.5-7.1-8.2-6.6-13.3 0.4-3.5 2.2-6 5.3-7.1 -1.9-6.3-1.6-11.2 0.8-14.5 2.9-4 8.1-4.4 9.8-4.4 1.2-4.1 11.3-36.8 25.5-41.1 6.6-2 12.3-3 16.6-3 4 0 6.8 0.9 8.4 2.6 0.9 1 1.4 2.3 1.5 3.9 1.5-0.6 3-0.8 4.4-0.8 3.4 0 5.6 1.6 6.8 3 1.7 1.9 2.5 4.3 2.6 6 3.1-1.1 6.8-1.8 10.3-1.8 4.9 0 8.7 1.2 10.9 3.4 1.8-2.6 5-4.2 8.6-4.2 2.8 0 5.4 1.1 7.3 2.9 2.8-3.6 6.3-4.4 8.8-4.4 3.2 0 6.1 1.3 7.5 2.7 1.7-1.9 5.6-4.4 10.1-4.4 2.4 0 4.6 0.7 6.6 2 2.9-2.6 6.8-4.1 10.6-4.1 3.5 0 6.6 1.4 8.8 3.9 2.8-2 5.8-3 8.8-3 4.1 0 8.2 1.9 11.7 5.6 2.7-1.6 5.7-2.4 8.4-2.4 4.6 0 8 2.4 9.2 6.4 0.7 0 1.3-0.1 2-0.1 6.3 0 11.4 2.1 14 5.6 2.2 3 2.5 6.9 1.1 11.6 7.5 15.2-1.3 44.3-13.4 64.1 -6.8 11-13.6 17.5-18.7 17.7 -1.6 7.5-7.7 13.1-14.3 13.1 -0.3 0-0.7 0-1 0 -2.7 3.6-6.2 5.5-10.1 5.5 -1.7 0-3.5-0.3-5.3-1 -2.9 3.4-7.2 5.2-12 5.2 -2.6 0-5.2-0.5-7.6-1.6 -2.6 2.5-5.7 3.8-9.1 3.8 -3 0-6.1-1-8.7-2.9C432 306.7 430 308.5 427.3 308.5zM420.4 304.6l0.2 0.1c2.8 1.8 4.9 2.7 6.7 2.7 2.3 0 4-1.3 6.1-3.7l0.3-0.3 0.4 0.3c2.5 1.9 5.5 3 8.4 3 3.2 0 6.2-1.3 8.6-3.8l0.3-0.3 0.3 0.2c2.3 1.1 4.9 1.6 7.5 1.6 4.6 0 8.7-1.8 11.4-5.1l0.2-0.3 0.4 0.1c1.8 0.7 3.6 1.1 5.3 1.1 3.8 0 6.9-1.8 9.5-5.3l0.2-0.2 0.3 0c0.4 0 0.8 0.1 1.2 0.1 6.2 0 11.9-5.4 13.3-12.7l0.1-0.4 0.5 0c4.7 0 11.5-6.4 18.1-17.2 12.1-19.6 20.8-48.5 13.3-63.3l-0.1-0.2 0.1-0.2c1.4-4.4 1.2-8-0.9-10.8 -2.4-3.3-7.2-5.2-13.1-5.2 -0.8 0-1.5 0-2.3 0.1l-0.4 0 -0.1-0.4c-1-3.8-4.1-6-8.4-6 -2.7 0-5.6 0.9-8.2 2.5l-0.4 0.2 -0.3-0.3c-3.4-3.7-7.3-5.6-11.2-5.6 -2.9 0-5.8 1-8.5 3.1l-0.4 0.3 -0.3-0.4c-2.5-3.2-5.9-3.8-8.3-3.8 -3.6 0-7.4 1.5-10.2 4.1l-0.3 0.3 -0.3-0.3c-1.9-1.4-4-2.1-6.3-2.1 -4.3 0-8.4 2.6-9.6 4.5l-0.4 0.6 -0.4-0.6c-1-1.3-3.9-2.7-7.1-2.7 -2.4 0-5.8 0.8-8.3 4.5l-0.4 0.6 -0.4-0.5c-1.6-1.9-4.2-3-6.9-3 -3.4 0-6.5 1.6-8.1 4.3l-0.4 0.6 -0.5-0.6c-1.9-2.2-5.7-3.5-10.6-3.5 -3.6 0-7.5 0.7-10.6 2l-0.8 0.3 0.1-0.9c0.1-1.5-0.5-4.1-2.3-6 -1.1-1.2-3-2.6-6-2.6 -1.5 0-3.1 0.4-4.8 1l-0.8 0.3 0.1-0.8c0.1-1.6-0.3-2.9-1.2-3.9 -1.4-1.5-3.9-2.2-7.6-2.2 -4.2 0-9.8 1-16.3 3 -14.3 4.3-24.8 40.4-24.9 40.8l-0.1 0.4 -0.4 0c0 0-0.1 0-0.3 0 -1 0-6.2 0.2-9 4 -2.3 3.1-2.5 7.8-0.5 14l0.2 0.5 -0.5 0.1c-2.9 0.8-4.8 3.1-5.1 6.4 -0.5 4.8 2.4 10.4 6.4 12.6l0.4 0.2 -0.2 0.4c-3.3 7.9-2 13.9 3.5 16.7l0.2 0.1 0 0.3c1.4 7.4 3 10.7 9 11.7l0.4 0.1 0 0.4c0.7 7.9 4 11.2 10.1 10.1l0.3-0.1 0.2 0.3c2.7 3.9 6.3 5.8 10.9 5.8 4.6 0 10.2-1.9 16.7-5.7l0.3-0.2 0.3 0.3c0.4 0.4 0.8 0.7 1.2 1 3.1 2.8 4.8 4.4 8.9 4.4 2.2 0 5.1-0.4 9.3-1.5l0.4-0.1 0.2 0.4c1.5 3.2 2.9 6.3 9.8 6.3 1.3 0 2.8-0.1 4.5-0.3l0.2 0 0.2 0.2c4.1 3.8 7.6 5.4 11.9 5.4 1.7 0 3.6-0.2 6.1-0.8L420.4 304.6z" class="i"/><path d="M332.4 224.9c0 0-5.6 6.1-13.9 2.1 -2.9 4.1-12.3 5.9-15.6-4.5 -6.4 2.3-16.8-2.1-16.8-12.1 0-10.1 37.1-13.2 48-3.6L332.4 224.9z" class="g"/><path d="M299.3 212.8c-1.2-0.3-2.3-1.1-0.5 2.6 1.6 2.1 4.7 3.1 7.3 1.6 -0.5 2.6-1 5.2 0 7.3 3.6 4.7 7.8 0 8.3-4.2 2.1 3.6 7.8 6.2 10.9 4.2 4.2-2.1 2.6-7.3 0.5-11.4 -3.4-6.2-10.7-4.5-15.9-7.9C309.3 210.1 305.6 214 299.3 212.8z" class="h"/><path d="M311.8 230.8c-0.4 0-0.9 0-1.3-0.1 -2.1-0.3-5.8-1.7-7.9-7.5 -3.6 1.1-8.2 0.2-11.6-2.2 -3.5-2.5-5.4-6.2-5.4-10.6 0-2.5 2-4.7 5.8-6.4 11.3-5.2 34.7-4.9 43.1 2.4l-0.7 0.8c-8-6.9-31.1-7.1-42-2.2 -2.4 1.1-5.2 2.9-5.2 5.5 0 4 1.8 7.5 5 9.7 3.3 2.3 7.8 3.1 11.2 1.9l0.5-0.2 0.2 0.5c1.3 4.2 3.9 6.8 7.2 7.3 3.2 0.5 6.2-1.1 7.4-2.9l0.3-0.4 0.4 0.2c7.9 3.8 13.6-1.6 13.7-1.7 0 0-5.4 6.5-13.7 2.8C317.1 229.6 314.5 230.8 311.8 230.8z" class="i"/><path d="M314.8 204.1c0 0 0 5.2-29.1 8.7 -11.1 1-12.2 8.4-17.1 15.4 -4.9 6.9-20.2 5-26.5 2.9 -6.4-2.1-6.9-8.5-4.6-14.2 2.3-5.7 4.9-14.6 1.6-23.6 -3.3-9 7.1-37.7 5.9-48.6 -0.8-8.2 3.3-8.4 5.2-9.6 1.9-1.2 3.8-5.2 4.7-7.6 0.9-2.4 41.6-11.4 53.9 0C324.2 141.9 317.4 194.6 314.8 204.1z" class="a"/><path d="M315.4 201.4c-0.4 2.1-4.1 0.8-6.2 1.4 -3.6 1.1-6.6 5.2-23.4 6.5 -11.1 1-15.3 8.8-20.3 15.9 -4.9 6.9-17.1 8-23.5 5.9 -6.4-2.1-6.9-8.5-4.6-14.2 2.3-5.7 4.9-14.6 1.6-23.6 -3.3-9 7.1-37.7 5.9-48.6 -0.8-8.2 3.3-8.4 5.2-9.6 1.9-1.2 3.8-5.2 4.7-7.6 0.9-2.4 41.6-11.4 53.9 0C323.1 140.8 318.2 187 315.4 201.4z" class="b"/><path d="M308.7 127.5c-12.3-11.4-53.1-2.4-53.9 0 -0.9 2.4-2.8 6.4-4.7 7.6 -1.9 1.2-6 1.5-5.2 9.6 1.2 10.9-9.2 39.6-5.9 48.6 1.1 3.1 1.6 6.1 1.6 9 3.1 0.8 6.4 0.8 9.3 0 8.3-2.1 20.1-17 24.8-4.5 -2.7-0.3-4.4 3.9-4.4 4.4 -3.9 10.3-2.6 11.2-7.1 19 6.6-4.3 5.7-7.8 11.9-11.9 6.2-4.7 17.7-1.3 23.5-6.5 4.2-3.6 0.8-14.4 8.6-14.4 -3.1-1-5.7-3.6-7.3-6.8 -2.1-6.2 4.2-12 10.4-10.9 -1.6-4.2-5.7-9.4-3.1-12 3.4-3 7.1-5.5 10.4-8.4C316.3 140.6 313.6 132.1 308.7 127.5z" class="k"/><path d="M251 137.7c3.2-1.8 7.2-8.3 3.8-10.1 -0.9 2.4-2.8 6.4-4.7 7.6 -1.9 1.2-6 1.5-5.2 9.6 0 0.2 0 0.3 0 0.5C247 141.6 247.3 140.1 251 137.7z" class="j"/><path d="M254.9 233.6c-5.2 0-10.3-1.1-13.1-2 -2.5-0.8-4.3-2.3-5.3-4.5 -1.3-2.8-1.1-6.5 0.5-10.4 3.5-8.6 4-16.4 1.6-23.2 -1.9-5.1 0.5-16.1 2.7-26.7 1.9-8.8 3.7-17.2 3.1-22.1 -0.7-7.2 2.4-8.7 4.4-9.6 0.4-0.2 0.7-0.3 1-0.5 1.7-1.1 3.6-5 4.5-7.4 0.7-2.1 18.2-6 32.5-6 10.6 0 18.1 2 22.3 5.8 15.8 14.7 8.9 67.3 6.2 77.1 -0.1 0.9-2 5.8-29.6 9.1 -8.3 0.8-10.9 5.2-13.8 10.4 -0.9 1.6-1.8 3.2-3 4.8C265.9 232.7 259.7 233.6 254.9 233.6zM286.8 122.4c-15 0-30.7 4.1-31.5 5.4 -0.8 2.3-2.8 6.5-4.9 7.9 -0.3 0.2-0.7 0.4-1.1 0.6 -2 0.9-4.5 2.1-3.8 8.6 0.6 5-1.2 13.4-3.1 22.4 -2.2 10.5-4.5 21.3-2.8 26.1 2.6 7.1 2.1 15.1-1.6 24 -1.5 3.6-1.6 7-0.5 9.5 0.9 1.9 2.5 3.2 4.7 3.9 2.7 0.9 7.7 1.9 12.8 1.9 4.5 0 10.4-0.8 13.2-4.6 1.1-1.6 2-3.2 2.9-4.7 3.1-5.4 5.7-10.1 14.6-10.9 27.6-3.3 28.7-8.1 28.7-8.2l0-0.1c1.3-4.6 3.6-20 3.7-36.4 0.1-14-1.5-32.2-9.7-39.8C304.4 124.3 297 122.4 286.8 122.4z" class="c"/><path d="M244.9 205c0 0 2.8 6.8-1.6 13.7 -4 6.1 2.1 9.2 7.1 8.2 5-1 11.3-3.8 14.5-15.4 3.2-11.6 8.5-16.2 8.5-16.2S275.6 182.3 244.9 205z" fill="#360000"/><path d="M273.4 195.2c0 0 2.2-12.9-28.5 9.8 0 0 2.8 6.8-1.6 13.7 -3.2 4.8 0 7.8 4 8.3 0.5-0.5 0.9-1.1 1.1-1.7 3.1-5.7 0.5-13 5.2-17.7 1-0.5 2.1 0 2.6 1 2.3-5.2 7.2-8.6 12.4-6.6C271 197.3 273.4 195.2 273.4 195.2z" fill="#4F0000"/><path d="M244.7 220.1c1.8-5.4 6.8-12.5 3.2-17.3 -1 0.7-2 1.4-3 2.2 0 0 2.8 6.8-1.6 13.7 -2.3 3.5-1.2 6.1 1.1 7.4C244 224.2 244.1 222.1 244.7 220.1z" fill="#6C0000"/><path d="M256.7 213.5c-4.9-2.4-9.2 0.1-12.3 3.2 -0.3 0.7-0.6 1.3-1.1 2 -4 6.1 2.1 9.2 7.1 8.2 5-1 11.2-3.8 14.4-15.2C262.4 211 259 211.5 256.7 213.5z" fill="#FF9C97"/><path d="M252 224.3c4.2-1.6 9.4-5.7 7.3-9.4 -0.5-1-3.1 0-4.7 1.6 0-1.7-1.1-3.3-2.5-3.9 -3 0.2-5.6 2-7.7 4.2 -0.3 0.7-0.6 1.3-1.1 2 -1.5 2.3-1.6 4.1-0.8 5.5C245.6 225.4 248.9 225.6 252 224.3z" fill="#FFB2AE"/><path d="M248.5 227.6L248.5 227.6c-2.9 0-5.4-1.2-6.4-3.1 -0.6-1.2-1-3.2 0.9-6 0.4-0.6 0.7-1.3 1-1.9l0-0.1 0.1-0.1c4.1-4.1 8.4-5.4 12.6-3.5 1.6-1.3 3.8-2 6.1-2 0.8 0 1.6 0.1 2.3 0.3l0.5 0.1 -0.1 0.5c-3.4 11.9-10.1 14.6-14.8 15.6C249.9 227.5 249.2 227.6 248.5 227.6zM244.8 217c-0.3 0.7-0.7 1.4-1.1 2 -1.3 1.9-1.5 3.6-0.8 5 0.8 1.6 3 2.6 5.5 2.6l0 0c0.6 0 1.2-0.1 1.8-0.2 4.8-1 10.7-3.5 13.9-14.3 -0.5-0.1-1-0.1-1.5-0.1 -2.1 0-4.2 0.7-5.7 2l-0.3 0.2 -0.3-0.1C252.6 212.1 248.7 213.1 244.8 217z" class="o"/><path d="M248.5 227.6L248.5 227.6c-2.9 0-5.4-1.2-6.4-3.1 -0.6-1.2-1-3.2 0.9-6 4.1-6.6 1.5-13.1 1.5-13.2l-0.2-0.4 0.3-0.2c12.1-9 20.7-13.5 25.4-13.5 1.4 0 2.5 0.4 3.2 1.2 1.1 1.3 0.8 3 0.8 3l0 0.2 -0.1 0.1c-0.1 0-5.2 4.6-8.3 15.9 -3.3 12.1-10.1 14.8-14.9 15.8C249.9 227.5 249.2 227.6 248.5 227.6zM245.5 205.2c0.5 1.6 2.1 7.6-1.7 13.8 -1.3 1.9-1.5 3.6-0.8 5 0.8 1.6 3 2.6 5.5 2.6l0 0c0.6 0 1.2-0.1 1.8-0.2 4.9-1 10.9-3.6 14.1-15.1 2.9-10.7 7.5-15.4 8.5-16.3 0-0.4 0-1.3-0.6-2 -0.5-0.6-1.3-0.9-2.4-0.9C266.9 192.1 260.2 194.4 245.5 205.2z" class="c"/><path d="M215.4 184.7c0 0-4.3 5.9-3.1 13.9 1.2 7.2 7.4 7.5 9.6 7.5 4 2.2 32.5 6.2 47.9-13.8 0 0-17.8-7.8-24.3-8.9C237.8 182.2 215.4 184.7 215.4 184.7z" class="b"/><path d="M215.4 184.7c0 0-3.5 4.3-2.3 12.4 1.2 7.2 5.2 6.1 7.4 6.1 4 2.2 36.4 4.9 49.3-10.8 0 0-15.6-13.8-22.1-14.9C240 176.1 215.4 184.7 215.4 184.7z" class="k"/><path d="M228.8 179.8c-1.7 0.9-3.9 3-9 3 -2.8 0-5.2-3.9-6.8-7.3 -0.9 3.2-1.1 6.7-0.3 10.6 2 10.5 6.3 12.6 15 8.9 8.4-3.6 9.7-5.4 11.9-8.9C239 174.3 230.3 178.9 228.8 179.8z" class="b"/><path d="M234.6 208.6c-6.3 0-11.1-1.1-12.7-1.9 -5.6 0-9.2-2.9-10-8 -1.2-8.2 3-14.1 3.2-14.3l0.8 0.6c0 0.1-4.2 5.8-3 13.5 1 5.9 5.5 7.1 9.1 7.1h0.1l0.1 0.1c3.7 2 32 6.1 47.3-13.6l0.8 0.6c-8.3 10.8-20.1 14.3-28.6 15.4C239.2 208.4 236.8 208.6 234.6 208.6z" class="c"/><path d="M265.1 191c0 0 6.6 0.4 9.6 6.8 0 0 1.5-5.4-1.3-7.2C270.3 188.7 265.1 191 265.1 191z" class="k"/><path d="M274.8 198.3c-2.9-6.1-9.9-7.2-9.9-7.3 0 0 3.5-0.5 6.6 1.7C274.4 195 274.8 198.3 274.8 198.3z" class="c"/><path d="M221.5 206.5c-5.1-7.3-1.7-14.2-1.6-14.4l0.9 0.5c0 0.1-3.2 6.6 1.5 13.4L221.5 206.5z" class="c"/><path d="M248.3 145.6c0 0-11.4 8.1-19.6 12.3 -8.1 4.2-18.9 13.4-16.1 27.4 1.9 9.8 5.9 11.8 14 8.3 8.2-3.5 10.5-6.2 12.6-9.7L248.3 145.6z" class="b"/><path d="M228.8 157.9c-5.6 2.9-12.5 8.2-15.3 15.8 3.7 12.3 14.2-2.3 21.2-0.2 3.6 1.1 13.7-27.9 13.7-27.9S236.9 153.7 228.8 157.9z" class="j"/><path d="M229.3 159.9c-5.6 2.9-11.4 7.9-15.9 13.8 3.7 12.3 15.2-0.3 22.2 1.7 3.6 1.1 3.9 4.6 3.6 8.5 0 0 5.2-13.9 6.4-18.7 1.1-4.8 2.7-19.6 2.7-19.6S237.5 155.7 229.3 159.9z" class="k"/><path d="M220.4 195.8c-1.2 0-2.3-0.2-3.2-0.7 -2.5-1.3-4.1-4.4-5.1-9.6 -3.2-16.3 11.7-25.5 16.4-28 8-4.2 20.1-12.1 20.2-12.2 0 0-11.7 8.9-19.8 13.1 -4.5 2.3-19 11.2-15.9 26.8 1 4.9 2.4 7.7 4.6 8.9 2 1.1 4.8 0.8 8.8-0.9 8.3-3.5 10.4-6.3 12.3-9.5l0.7 0.4c0 0 0.1 0.3 0 0.5 -1.9 3.1-4.3 6.1-12.6 9.6C224.3 195.2 222.2 195.8 220.4 195.8z" class="c"/><path d="M227.7 179.5c-1.6 0.9-3.6 2.8-8.5 2.8 -2.7 0-4.9-3.6-6.3-6.8 -0.8 3-1 6.3-0.3 9.9 1.9 9.8 5.9 11.8 14 8.3 7.8-3.3 10.3-6 12.3-9.3C238.5 173.4 229.2 178.7 227.7 179.5z" fill="#0E0E0E"/><path d="M227.6 179.6c-1.6 0.9-3.6 2.7-8.4 2.7 -2.7 0-4.9-3.6-6.3-6.8 -0.8 3-1 6.3-0.3 9.9 0.8 4.2 1.5 6.5 2.7 7.6C222.4 191.3 230 187.1 227.6 179.6z" class="p"/><path d="" class="p"/><path d="M227.7 179.5c-1.6 0.9-2.9 3.6-8.7 4 -2.7 0.2-4.1-2.4-5.6-4.8 -0.8 3-0.3 4 0.4 7.7 1.9 9.8 1.8 8.3 10.3 5.7 4.2-1.3 5.3-2.1 10.8-7.3C239.3 177.3 229.2 178.7 227.7 179.5z" fill="#151515"/><path d="M220.4 195.8L220.4 195.8c-4.4 0-6.9-3.2-8.3-10.3 -0.7-3.5-0.6-6.9 0.3-10.1l0.4-1.4 0.6 1.3c1.9 4.2 4 6.5 5.9 6.5 3.9 0 5.9-1.3 7.4-2.2 0.3-0.2 0.6-0.4 0.8-0.5 2.5-1.4 4.6-2.1 6.4-2.1 2.4 0 5.4 1.3 5.6 7.3l0 0.2 -0.1 0.1c-2.2 3.6-4.9 6.2-12.6 9.5C224.3 195.2 222.2 195.8 220.4 195.8zM213.1 177c-0.5 2.7-0.5 5.4 0.1 8.2 1.3 6.7 3.5 9.5 7.3 9.5 1.6 0 3.6-0.5 6-1.5 7.3-3.1 9.9-5.6 12-8.9 -0.2-4.1-1.8-6.2-4.6-6.2 -1.6 0-6.4 2.2-6.7 2.4 -1.5 0.9-3.7 2.4-7.9 2.4C217.1 182.8 215 180.9 213.1 177z"/><ellipse cx="280.9" cy="165.6" rx="11.5" ry="17.9"/><ellipse cx="280.5" cy="166.2" rx="11.2" ry="17.3" fill="#D8D6D6"/><path d="M291.7 165.3c-0.3-9.1-5.2-16.4-11.1-16.4 -6.2 0-11.2 7.8-11.2 17.3 0 2.4 0.3 4.6 0.9 6.7C277.9 172.8 286.3 170.9 291.7 165.3z" class="n"/><path d="M280.5 184c-6.4 0-11.7-8-11.7-17.9 0-9.8 5.2-17.9 11.7-17.9 6.4 0 11.7 8 11.7 17.9C292.2 176 287 184 280.5 184zM280.5 149.4c-5.9 0-10.6 7.5-10.6 16.8 0 9.3 4.8 16.8 10.6 16.8s10.6-7.5 10.6-16.8C291.2 156.9 286.4 149.4 280.5 149.4z"/><ellipse cx="282.4" cy="167.8" rx="5.1" ry="7" fill="#0079F0"/><path d="M287.4 166.5c-0.4-3.3-2.5-5.7-5-5.7 -2.8 0-5.1 3.1-5.1 7 0 1.4 0.3 2.7 0.8 3.8C282 171.2 285.4 169.3 287.4 166.5z" fill="#00A4F0"/><path d="M282.4 175.4c-3.1 0-5.6-3.4-5.6-7.5s2.5-7.5 5.6-7.5c3.1 0 5.6 3.4 5.6 7.5S285.5 175.4 282.4 175.4zM282.4 161.3c-2.5 0-4.6 2.9-4.6 6.5s2.1 6.5 4.6 6.5c2.5 0 4.6-2.9 4.6-6.5S285 161.3 282.4 161.3z" fill="#003D78"/><path d="M290.8 145.7c0 0-10.3-8.7-20.8-4.3C270.4 136.9 278.1 128.6 290.8 145.7z" fill="#171717"/><path d="M293.9 149l-3.4-2.9c-0.1-0.1-6.5-5.4-14.2-5.4 -2.1 0-4.1 0.4-6 1.2l-0.8 0.3 0.1-0.8c0.2-2.7 2.8-6.5 7.2-6.5 3 0 8 1.8 14.5 10.5L293.9 149zM276.3 139.7c4.9 0 9.2 2 12 3.6 -5.1-6-9-7.4-11.5-7.4 -3.3 0-5.4 2.5-6 4.7C272.5 140 274.3 139.7 276.3 139.7z"/><path d="M253.5 219.7c0 0 0.7-5.3 3.9-7.4l0.6 0.9C255.1 215.1 253.5 219.6 253.5 219.7z" class="o"/><path d="M393.7 237.6c0 0 9.6 2.9 2.2 13.3 5.1 3.8 6.2 11.7 0.3 18.2 1.9 6.4 2.4 14.4-8 17.5 1.2 8.3-6.1 18-14.7 12 -6.8 3.1-14.4-0.3-14.6-8.8 -5-0.2-10.6-2.1-10.6-11.3 -6.4 0-12.7-8.1-10.9-12.3L393.7 237.6z" class="g"/><path d="M393.7 237.6c0 0 9.6 2.9 2.2 13.3 5.1 3.8 6.2 11.7 0.3 18.2 1.9 6.4-1.8 12-12.2 15.1 1.2 8.3-1.1 16.2-9.7 10.1 -6.8 3.1-13.2 1-13.3-7.5 -5-0.2-12.6 0.8-12.6-8.4 -6.4 0-12.7-8.1-10.9-12.3L393.7 237.6z" class="h"/><path d="M379 301.1c-1.8 0-3.7-0.6-5.5-1.8 -3.6 1.6-7.4 1.4-10.4-0.5 -2.8-1.7-4.4-4.7-4.6-8.5 -6.9-0.4-10.4-4.2-10.6-11.3 -4.1-0.2-7.6-3.4-9.4-6.1 -2.7-4.2-0.5-6.5-0.5-6.5 -0.6 1.5-0.1 3.7 1.4 6 1.9 2.8 5.4 5.6 9 5.6h0.5v0.5c0 7 3.3 10.5 10.1 10.8l0.5 0 0 0.5c0.1 3.6 1.6 6.5 4.2 8.1 2.7 1.7 6.3 1.8 9.7 0.3l0.3-0.1 0.2 0.2c3.9 2.7 6.9 1.9 8.8 0.7 3.6-2.2 5.8-7.4 5.1-12.2l-0.1-0.4 0.4-0.1c7.9-2.4 10.3-7.7 7.6-16.9l-0.1-0.3 0.2-0.2c2.8-3.1 4.2-6.8 3.8-10.3 -0.3-2.9-1.7-5.5-4-7.2l-0.4-0.3 0.3-0.4c2.4-3.4 3.2-6.2 2.4-8.5 -1-2.9-4.3-4-4.4-4 0 0 4.2 0.2 5.3 3.7 0.9 2.5 0.1 5.6-2.3 9.1 2.3 1.9 3.7 4.6 4 7.6 0.4 3.7-1 7.6-3.9 10.9 2.7 9.4 0.1 15.2-8 17.8 0.6 5-1.8 10.4-5.6 12.8C381.9 300.7 380.4 301.1 379 301.1z" class="i"/><path d="M398 191c-0.8-8.8-8.7-8.4-9-8.4l-0.1-1C398.8 182.1 398 191 398 191z" class="i"/><path d="M532.3 199.1c0 0 16.2 1.1 8.2 19.4 5.7 5.4 6.1 14 0.9 17.9 4.3 6.1 6.6 16.3-1.7 21.7 1.6 7.5 1.9 12.3-4.9 16.8 0.9 5.2-2.1 13.2-5.7 14 3.1 4.5-0.2 18.7-10.1 10.8 -3.3 7.8-11.8 8.7-14-6.2 -6.2 1-12.1-1.2-11.1-11.3 -4.3 3.5-15.4-1.4-13.7-11.4 -4.3 1.6-15.1-7.8-10.9-17.3 -2.9-3.1-5.3-13-0.6-18" class="g"/><path d="M532.3 199.1c0 0 16.2 1.1 8.2 19.4 5.7 5.4 2.1 12.9-3.1 16.7 4.3 6.1 5.9 14.7-2.4 20.1 1.6 7.5 2.5 12.4-4.2 16.9 0.9 5.2-2.8 13-6.4 13.9 3.1 4.5 3.8 16.1-6.1 8.1 -3.3 7.8-8.3 10.2-10.6-4.7 -6.2 1-14.9 2.6-13.9-7.5 -4.3 3.5-15.4-1.4-13.7-11.4 -4.3 1.6-15.1-7.8-10.9-17.3 -2.9-3.1-5.3-13-0.6-18" class="h"/><path d="M479.4 251.9c4.2 4.6 8.2 1.1 8.6 0 4 4.3 12.6 6.7 15.5-3.5 6.1 0 14.8-1.8 14-12.9 7.1-1.2 14.4-11.6 7.8-21.7 6.6-4.5 9.7-8.7 8.2-12.9 0.7-0.2 1.1-0.5 1.6-1.3 -1.2-0.5-4.5-0.6-4.5-0.6l-61.8 36.3c-4.8 5-2.4 14.9 0.6 18 -0.3 0.6-0.5 1.2-0.6 1.8C475.1 257.8 478.8 255.4 479.4 251.9z" class="n"/><path d="M512.6 305.7c-0.2 0-0.4 0-0.6 0 -3.6-0.5-6.3-4.7-7.5-11.6 -3.7 0.5-6.6-0.2-8.6-2 -2-1.9-2.9-4.8-2.7-8.8 -2.2 1.1-5.5 0.8-8.3-0.9 -3.9-2.3-5.9-6.3-5.4-10.9 -2.2 0.2-5.2-1.3-7.6-3.9 -3.9-4.2-5.1-9.4-3.3-14 -7.5-11.6 0-18.1 0-18.1 -4.5 4.7-2 14.6 0.9 17.7l0.2 0.3 -0.1 0.3c-2.8 6.3 1.6 11.7 2.9 13.1 2.5 2.6 5.6 4.1 7.3 3.5l0.8-0.3 -0.2 0.9c-0.8 4.4 1 8.3 4.8 10.5 2.9 1.7 6.2 1.9 8.1 0.4l1-0.8 -0.1 1.2c-0.4 4.2 0.3 7.2 2.2 9 2.3 2.2 5.8 2.1 8.3 1.7l0.5-0.1 0.1 0.5c1 6.7 3.5 10.9 6.7 11.3 2.4 0.3 4.9-1.7 6.4-5.2l0.3-0.6 0.5 0.4c3.2 2.6 5.9 3 7.9 1.1 2.8-2.6 3.2-8.7 1.4-11.2l-0.4-0.6 0.7-0.2c3.2-0.8 6.2-8.3 5.3-13.5l-0.1-0.3 0.3-0.2c6.6-4.4 6.1-9.1 4.6-16.3l-0.1-0.3 0.3-0.2c2.8-1.8 4.6-4.3 5.2-7.4 0.9-4.9-1.2-10.2-3.6-13.5l-0.3-0.4 0.4-0.3c2.1-1.5 3.3-3.9 3.4-6.7 0.2-3.7-1.4-7.6-4.4-10.4l-0.3-0.3 0.1-0.3c2.5-5.8 2.8-10.5 0.8-13.9 -2.7-4.6-8.8-5.3-8.9-5.3 0 0 6.8-0.3 9.8 4.8 2.1 3.6 1.9 8.5-0.6 14.5 3 3 4.7 7 4.4 10.9 -0.2 2.9-1.4 5.5-3.5 7.2 2.4 3.5 4.4 8.8 3.4 13.9 -0.6 3.3-2.4 6-5.3 7.9 1.5 7.1 1.8 12.2-4.9 16.8 0.7 5-1.9 12.5-5.5 14.1 1.6 3.1 1 9.2-1.9 12 -1.3 1.2-4.2 2.7-8.7-0.7C517.7 303.8 515.2 305.7 512.6 305.7z" class="i"/><path d="M326.4 354l-1 0c0.7-6.3 3.5-7.7 3.5-7.7C326.4 349.3 326.4 353.9 326.4 354z" class="f"/><path d="M352.1 363.5l-1 0c0.2-5.8 3.9-7 3.9-7C352.1 358.6 352.1 363.5 352.1 363.5z" class="f"/><path d="M480.3 333c-2.1 1.8-11.4 9.4-12.5 17.8 -0.3 2 8.1 1.2 8.1 1.2 -0.3 1.7-1.2 3.8 3.3 4 4.5 0.2 17.7 0.9 15.9-14.6C490.4 336.5 482.7 334 480.3 333z" class="e"/><path d="M478.8 346.5c0 2.6 1.6 4.7 4.2 3.6 5-2.7 9-12 4.6-14 -3.1-1.6-5.9-2.6-7.2-3.1 -2.1 1.7-11.3 9.2-12.5 17.6C472 351.6 476 349.3 478.8 346.5z" class="d"/><path d="M481.6 356.6L481.6 356.6c-0.9 0-1.7 0-2.3-0.1l-0.1 0c-1.9-0.1-3-0.5-3.6-1.2 -0.6-0.8-0.5-1.8-0.3-2.7 -0.7 0.1-1.8 0.1-3 0.1 -3.5 0-4.4-0.6-4.7-1 -0.2-0.3-0.3-0.6-0.3-0.9 0.5-3.9 3.1-10.3 12.7-18.2l0.2-0.2 0.9 0.3c3 1.1 9.9 3.7 14.4 8.3l0.1 0.1 0 0.2c0.6 4.9-0.3 8.7-2.6 11.3C490.7 355.4 487 356.6 481.6 356.6zM476.5 351.4l-0.1 0.7c0 0.2-0.1 0.4-0.1 0.6 -0.2 0.8-0.3 1.5 0.1 2 0.4 0.5 1.3 0.8 2.8 0.8l0.1 0c0.6 0 1.4 0.1 2.3 0.1 5 0 8.5-1.2 10.7-3.6 2.1-2.3 2.8-5.8 2.3-10.3 -4.3-4.4-11-6.9-13.8-8l-0.3-0.1c-9.1 7.5-11.6 13.6-12.1 17.3 0 0 0 0.1 0 0.1 0.1 0.2 0.8 0.6 4 0.6 1.8 0 3.5-0.2 3.6-0.2L476.5 351.4z" class="f"/><path d="M476.4 352.4l-1-0.2c1.5-5 4.6-6.8 4.6-6.8C477.4 347.8 476.4 352.4 476.4 352.4z" class="f"/><path d="M503.5 343.6c-4.4 4.5-9.1 7.6-10.5 15.5 -0.4 1.9 7.5 0.2 7.5 0.2 -0.3 1.7-0.3 4.5 0.3 4.6 0.6 0.1 13.6 0.1 20.3-3.7 2.7-1.6 1.8-4.6 1.1-7.3C514.7 343.6 507.5 343 503.5 343.6z" class="e"/><path d="M505.8 361.1c6.8 1.3 18.4-7.1 14.2-10.6 -6.7-7-13-7.4-16.6-6.9 -4.1 4.3-8.6 7.3-10.3 14.4 3.2-0.2 6-1.4 8.9-2.7C501.7 358.5 503.2 360.6 505.8 361.1z" class="d"/><path d="M501.6 364.5c-0.3 0-0.7 0-0.9 0 -0.1 0-0.4-0.1-0.5-0.3 -0.5-0.7-0.5-2.6-0.3-4.1 -1.1 0.2-3.3 0.6-4.9 0.6 -1.2 0-1.9-0.2-2.3-0.6 -0.2-0.2-0.3-0.6-0.2-0.9 1.2-6.7 4.7-10 8.3-13.5 0.8-0.7 1.5-1.5 2.3-2.3l0.1-0.1 0.2 0c0.8-0.1 1.6-0.2 2.4-0.2 4.1 0 10.4 1.7 16.8 9.6l0.1 0.1 0.1 0.5c0.7 2.6 1.5 5.8-1.4 7.4C514.9 364.4 503 364.5 501.6 364.5zM501 363.4c0.1 0 0.3 0 0.6 0 4.7 0 14.1-0.8 19.2-3.7 2.2-1.3 1.6-3.8 1-6.3l-0.1-0.3c-6.1-7.6-12-9.2-15.9-9.2 -0.7 0-1.4 0.1-2.1 0.2 -0.7 0.8-1.5 1.5-2.2 2.2 -3.5 3.4-6.9 6.6-8.1 13 0 0 0.2 0.3 1.4 0.3 2.2 0 5.4-0.7 5.5-0.7l0.8-0.2 -0.2 0.8C500.7 361 500.8 362.9 501 363.4z" class="f"/><path d="M501 359.4l-1-0.2c0.5-3.3 2.6-5.3 2.6-5.3C501.7 356 501.1 359.4 501 359.4z" class="f"/><path d="M270 175.8c0 0 16.4 4.8 22.4-3.5 0 0-1.4 14.2-11.5 14.2C269.2 186.5 270 175.8 270 175.8z" class="k"/><path d="M278.9 177.9c-4.5-0.1-8.4-2.1-8.4-2.1 0.2 0 15.9 3.7 21.2-3.9l-0.6 2.4c-1.2 1.2-4.1 2.8-7.2 3.4C282.2 177.8 280.5 177.9 278.9 177.9z"/><path d="M343.5 208.5c0 0-2.8 12.4-11.9 9.2 -2.1 5.5-14 6.2-15.1-2.5 -5.2 5.2-15.6-0.3-7.6-9 -6.2-4.9-3.6-15.3 2.9-17.1 -8.6-2.6-11.2-15.1 0-16.9 -2.9-4.9-3.1-13.7 3.5-15.8 -5.4-2.9-9.4-9.2-1.9-17 -5.7-1.8-16.1-1.8-13.5-13 -7.5 5.5-16.4 4.2-18.7-1.3 -4.9 7-14.8 4.7-18.5 1.8 -4.9 1.3-13.8 4.9-14.3-1.8 -0.5-6.8 3.6-13 14.8-12.5 0.8-5.5 8.3-8.6 20.5-4.4 4.2-4.9 14.3-9.6 25.2 4.4 6.8-3.4 18.5 1.8 20.5 12.2 6-1.8 15.1 3.4 16.4 21.8 6.5 10.4 7.5 34.9-1.3 38.5 3.1 5.7-2.2 10.7-7.6 11.4L343.5 208.5z" class="g"/><path d="M343.5 208.5c0 0-2.5 8.9-11.6 5.7 -2.1 5.5-13.4 6.7-14.4-2 -5.2 5.2-14 3-6-5.7 -6.2-4.9-6.2-15.6 0.3-17.4 -8.6-2.6-11.2-15.1 0-16.9 -2.9-4.9-3.1-13.7 3.5-15.8 -5.4-2.9-9.4-9.2-1.9-17 -5.7-1.8-16.1-1.8-13.5-13 -7.5 5.5-16.4 4.2-18.7-1.3 -4.9 7-14.8 4.7-18.5 1.8 -4.9 1.3-13.8 4.9-14.3-1.8 -0.5-6.8 3.6-13 14.8-12.5 0.8-5.5 8.3-8.6 20.5-4.4 4.2-4.9 14.3-9.6 25.2 4.4 6.8-3.4 18.5 1.8 20.5 12.2 6-1.8 15.1 3.4 16.4 21.8 6.5 10.4 7.5 34.9-1.3 38.5 3.1 5.7-2.2 10.7-7.6 11.4L343.5 208.5z" class="h"/><path d="M344.9 208.1c0 0-5 7-13.9 0.5 -2.1 5.5-6.1 8.2-7.2-0.5 -5.2 5.2-16.5 2-8.5-6.7 -6.2-4.9-3.8-10.9 2.7-12.7 -8.6-2.6-17.4-14.6-6.2-16.4 -2.9-4.9-3.1-13.7 3.5-15.8 -5.4-2.9-9.4-9.2-1.9-17 -5.7-1.8-16.1-1.8-13.5-13 -7.5 5.5-16.4 4.2-18.7-1.3 -4.9 7-14.8 4.7-18.5 1.8 -4.9 1.3-13.8 4.9-14.3-1.8 -0.5-6.8 3.6-13 14.8-12.5 0.8-5.5 8.3-8.6 20.5-4.4 4.2-4.9 14.3-9.6 25.2 4.4 6.8-3.4 18.5 1.8 20.5 12.2 6-1.8 15.1 3.4 16.4 21.8 6.5 10.4 7.5 34.9-1.3 38.5 3.1 5.7-2.2 10.7-7.6 11.4L344.9 208.1z" class="n"/><path d="M324.3 222.3c-0.4 0-0.9 0-1.3-0.1 -3.6-0.4-6.2-2.7-6.9-6 -3 2.3-7 1.8-9.1-0.2 -2-1.9-2.7-5.4 1.1-9.7 -2.7-2.3-3.8-5.9-3.1-9.7 0.7-3.3 2.7-6.1 5.3-7.4 -4-1.8-6.8-5.9-6.5-10 0.2-3.7 2.9-6.4 7.1-7.3 -1.8-3.5-2.1-8-0.9-11.1 0.8-2 2.1-3.5 4-4.3 -3-1.9-4.9-4.5-5.3-7.3 -0.5-3 0.8-6.2 3.6-9.4 -0.7-0.2-1.6-0.4-2.4-0.6 -2.8-0.7-6.1-1.4-8.3-3.2 -2.4-1.9-3.2-4.6-2.6-8.3 -4.1 2.6-8.8 3.5-12.7 2.4 -2.4-0.7-4.3-2-5.3-3.9 -1.8 2.2-4.3 3.6-7.2 4 -4.3 0.6-8.8-0.8-11.2-2.6 -0.6 0.2-1.2 0.3-1.8 0.5 -3.8 1.1-8.5 2.5-11.1 0.7 -1.1-0.7-1.7-1.9-1.8-3.6 -0.3-3.7 0.8-6.9 3-9.2 2.6-2.7 6.7-4 11.9-3.8 0.4-1.9 1.6-3.5 3.4-4.6 3.8-2.4 10.2-2.3 17.4 0.1 2.7-3.1 6.7-4.9 10.6-4.8 5.2 0.1 10.2 3.2 15 9.2 3.2-1.4 7.5-1.1 11.5 0.8 4.8 2.3 8.1 6.5 9.3 11.4 2.5-0.6 5.3 0 7.7 1.7 2.9 2 7.8 7.3 8.8 20.6 4.8 7.9 6.6 23.2 3.7 32.2 -1.1 3.4-2.7 5.6-4.8 6.7 1 2.1 1 4.4-0.1 6.5 -2.7 4.5-8.5 4.7-8.5 4.7 3.2-0.5 6.2-2.5 7.6-5.2 0.7-1.4 1.2-3.5-0.1-6l-0.3-0.5 0.5-0.2c2-0.8 3.7-3 4.7-6.3 2.8-8.8 1.1-23.8-3.7-31.4l-0.1-0.1 0-0.1c-0.9-13-5.6-18.1-8.3-20 -2.3-1.6-5-2.1-7.4-1.4l-0.5 0.2 -0.1-0.6c-1-4.9-4.2-9-8.9-11.2 -3.9-1.9-7.9-2.1-10.9-0.6l-0.4 0.2 -0.3-0.3c-4.6-6-9.5-9-14.4-9.1 -5.5-0.1-9 3.6-10 4.7l-0.2 0.3 -0.3-0.1c-7.1-2.4-13.3-2.5-16.9-0.3 -1.7 1-2.7 2.5-3 4.3l-0.1 0.5 -0.5 0c-5.1-0.2-9.1 1-11.6 3.5 -2 2.1-3 5.1-2.7 8.4 0.1 1.3 0.5 2.3 1.4 2.8 2.2 1.5 6.6 0.2 10.2-0.9 0.8-0.2 1.5-0.4 2.1-0.6l0.3-0.1 0.2 0.2c2.2 1.7 6.6 3.2 10.7 2.5 3-0.4 5.4-1.9 7.1-4.3l0.5-0.8 0.4 0.9c0.8 2 2.6 3.4 5.1 4.1 4 1.1 8.8 0 12.9-3l1.1-0.8 -0.3 1.4c-0.9 3.9-0.2 6.7 2 8.6 2 1.6 5.1 2.4 7.9 3 1.2 0.3 2.3 0.5 3.3 0.8l0.8 0.3 -0.6 0.6c-3 3.1-4.3 6.2-3.9 9.1 0.4 2.7 2.5 5.3 5.7 7.1l1.1 0.6 -1.2 0.4c-2.1 0.7-3.5 2-4.4 4.1 -1.2 3.1-0.7 7.6 1.2 10.9l0.4 0.7 -0.7 0.1c-4.2 0.7-6.8 3-7 6.5 -0.3 4.1 2.8 8.1 7.1 9.4l1.7 0.5 -1.7 0.5c-2.9 0.8-5.2 3.6-5.9 7.1 -0.7 3.6 0.5 7 3.1 9.1l0.4 0.3 -0.4 0.4c-3.1 3.4-3.6 6.6-1.5 8.7 2 1.9 5.8 2.2 8.4-0.4l0.8-0.8 0.1 1.1c0.4 3.4 2.7 5.6 6.2 6.1 3.5 0.4 7-1.2 7.9-3.7l0.2-0.5 0.5 0.2c2.1 0.7 4 0.6 5.8-0.3 4.3-2.3 6-8.6 6-8.7 0 0-0.9 7.1-5.5 9.6 -1.9 1-3.9 1.2-6.1 0.5C330.7 220.8 327.7 222.3 324.3 222.3z" class="i"/><path d="M319.7 147.5c0 0 12.6-0.3 21.3-6.9 8.7-6.6 25.9-15.9 39.4-7.6 7.3 4.9-8.5 31.2-29.7 39.5 -17.7 4.8-16.6-4.9-27.7-3.9C316.3 164.7 319.7 147.5 319.7 147.5z" class="h"/><path d="M319.7 146.9c0 0 12.6-0.3 21.3-6.6 8.7-6.4 25.9-15.3 39.4-7.4 7.3 4.7 2.8 28.4-18.4 36.4 -25.1 8.5-25.1-4.7-39-2.1C316.3 163.4 319.7 146.9 319.7 146.9z" class="a"/><path d="M319.7 146.9c0 0 12.6-0.3 21.3-6.6 8.7-6.4 20.4-12.8 33.9-4.9 7.3 4.7 8.9 20.4-12.2 28.4 -25.1 8.5-25-4.2-38.9-1.6C317.1 158.4 319.7 146.9 319.7 146.9z" class="b"/><path d="M354.5 135.3c0.2-1.2 0.7-2.1 1.5-2.8 -5.6 1.5-10.6 4.6-14.9 7.7 -8.7 6.4-21.3 6.6-21.3 6.6s-1.3 5.9 0.4 10.7C333.7 156 350.7 145 354.5 135.3z" class="j"/><path d="M354.5 135.3c0.2-1.2 0.7-2.1 1.5-2.8 -5.6 1.5-10.5 7.4-14.7 10.5 -8.7 6.4-21.5 3.9-21.5 3.9s-1.3 5.9 0.4 10.7C336.4 157.6 350.5 147.3 354.5 135.3z" class="k"/><path d="M347.3 172.7c-5.4 0-8.9-1.6-12-3 -2.7-1.2-5.3-2.4-8.8-2.4 -1.1 0-2.2 0.1-3.4 0.3l-0.2 0 -0.2-0.1c-7-4-3.7-20.2-3.6-20.9l0.1-0.4 0.4 0c0.1 0 12.6-0.3 21-6.5 4.4-3.2 15.8-10.6 27.7-10.6 4.5 0 8.6 1.1 12.2 3.2 2.7 1.7 3.9 5.7 3.4 10.8 -1 9.5-8.1 21.4-21.8 26.6 -5.8 2-10.7 2.9-14.9 2.9C347.3 172.7 347.3 172.7 347.3 172.7zM326.6 166.3c3.7 0 6.4 1.2 9.2 2.5 3.2 1.4 6.4 2.9 11.6 2.9 0 0 0 0 0 0 4.1 0 8.9-0.9 14.6-2.9 13.3-5 20.2-16.5 21.2-25.7 0.5-4.6-0.6-8.3-2.9-9.8 -3.4-2-7.4-3.1-11.7-3.1 -11.6 0-22.8 7.3-27.1 10.4 -8 5.8-18.9 6.6-21.2 6.7 -0.5 2.5-2.6 15.9 3 19.3C324.4 166.5 325.5 166.3 326.6 166.3z" class="c"/><path d="M325.9 159.8c0 0 9.7-0.7 23.4-10.9 9.2-6.6 16.6-9 23.8-7.3 -0.9 6.1-0.5 16.1-16.5 21C344.6 166 337.1 165.5 325.9 159.8z" class="l"/><path d="M361.7 147.8c-4.7 3.1-10.4 3.1-15.6 5.2 -1.6 1-3.6 2.6-3.1 4.7 2.6-2.1 6.2-0.5 7.8 1 1.5 1.5 1.6 3.4 0.9 5.1 1.5-0.3 3.1-0.7 4.8-1.2 16-5 15.6-15 16.5-21 -0.3-0.1-0.5-0.1-0.8-0.2C368.6 142.8 365.3 145.4 361.7 147.8z" class="m"/><path d="M343.6 165.2c-5.7 0-11.1-1.5-18-5l-1.7-0.8 1.9-0.1c0.1 0 9.7-0.8 23.1-10.8 7.5-5.4 13.8-7.9 19.6-7.9 1.6 0 3.1 0.2 4.6 0.6l0.5 0.1 -0.1 0.5c-0.1 0.5-0.1 1.1-0.2 1.7 -0.7 6-1.8 15.1-16.6 19.7C351.6 164.6 347.4 165.2 343.6 165.2zM327.6 160c6.1 2.9 10.9 4.2 16 4.2 3.7 0 7.8-0.7 12.8-2.1 14.2-4.4 15.2-12.8 15.9-18.9 0.1-0.4 0.1-0.9 0.2-1.3 -1.3-0.3-2.6-0.4-3.9-0.4 -5.6 0-11.6 2.5-19 7.7C339.1 157.1 330.9 159.4 327.6 160z" class="c"/><path d="M377.7 143.7c0 0-3.2-1.4-5.5-1.8l0.1-1C374.8 141.2 377.7 143.7 377.7 143.7z" class="c"/><path d="M321.2 144c0 0 11.1 8.1 0.3 16.2 5.7 2.3 6.5 6.6 2.9 11.7l-5.3-4.1 -3-20.8L321.2 144z" class="h"/><path d="M321.2 144c0 0 6.8 9.4-2.1 16.4 5.7 2.3 9 6.5 5.3 11.5l-5.3-4.1 -3-20.8L321.2 144z" class="n"/><path d="M324.4 171.9c1.7-2.4 2.3-4.7 1.8-6.7 -0.6-1.9-2.2-3.5-4.8-4.5l-0.9-0.3 0.7-0.6c3-2.3 4.5-4.8 4.6-7.5 0-4.7-4.5-8.3-4.6-8.4 0 0 5.7 3.2 5.6 8.4 0 2.8-1.5 5.4-4.3 7.7 2.4 1.1 4 2.8 4.6 4.8C328.2 169 324.4 171.9 324.4 171.9z" class="i"/><ellipse cx="282.7" cy="168.2" rx="3.7" ry="5.4" fill="#000012"/><circle cx="281" cy="164.7" r="1.9" class="n"/><circle cx="285.6" cy="168.8" r="0.9" class="n"/><path d="M280.5 171.6c0 0.2-0.2 0.4-0.4 0.4 -0.2 0-0.4-0.2-0.4-0.4 0-0.2 0.2-0.4 0.4-0.4C280.3 171.2 280.5 171.4 280.5 171.6z" class="n"/><ellipse transform="matrix(0.9485 0.3168 -0.3168 0.9485 82.7097 -66.2547)" cx="245.1" cy="221.2" rx="1.3" ry="2.6" fill="#FFC4C1"/><path d="M468.6 255.2c0 0 0 0.1 0 0.1 0 0 0-0.1 0-0.1H468.6z" class="q"/><path d="M397.3 267.8c4-5.3 3.7-10.5 1.1-14.3C401 257.4 401 262.9 397.3 267.8z" class="q"/><path d="M398.4 253.5c-0.7-1-1.5-1.9-2.5-2.6C396.9 251.7 397.7 252.6 398.4 253.5z" class="n"/><path d="M356.9 265c-0.9 6.4 3.1 11.7 11.3 7.5 0.9 4.9 15 3.6 15-8.7 3.9 2.7 17.2-1.8 12.7-12.9 7.4-10.4-3.8-15.6-3.8-15.6l-45.9 26.5C347.3 265.3 350.2 267.5 356.9 265z" class="n"/><path d="M396.2 269.2c0.4-0.4 0.8-0.9 1.1-1.3C397 268.3 396.6 268.7 396.2 269.2z" class="n"/><path d="M468.5 256.1c0.1-0.2 0.1-0.5 0.2-0.7C468.5 255.6 468.5 255.8 468.5 256.1z" class="n"/></svg>