<svg xmlns="http://www.w3.org/2000/svg" viewBox="0 0 768 430"><style>.a{fill:#E8D0B1;}.b{fill:#F9EBD7;}.c{fill:#C6B099;}.d{fill:#6BAA11;}.e{fill:#7AC222;}.f{fill:#87C928;}.g{fill:#2C770A;}.h{fill:#B24B04;}.i{fill:#CC5700;}.j{fill:#DD6E0A;}.k{fill:#823907;}.l{fill:#B53D00;}.m{fill:#E8B974;}.n{fill:#FAD496;}.o{fill:#D19C4E;}.p{fill:#E53871;}.q{fill:#FFF;}.r{fill:#2B700F;}.s{fill:#C60;}</style><path d="M541.6 186.9c0 0 5.2-2.3 8-3.2 -1.3 6.3-1.8 9.1-1.8 9.1C544.5 190.5 541.6 186.9 541.6 186.9z" class="a"/><path d="M544.2 185.8c1.1 0.1 2.3 1 3 1.9 0.6-1.3 1.4-2.7 2.3-3.9C548.1 184.2 545.9 185.1 544.2 185.8z" class="b"/><path d="M548 193.4l-0.4-0.3c-3.3-2.3-6.2-5.9-6.3-5.9l-0.3-0.3 0.4-0.2c0.1 0 5.3-2.3 8-3.2l0.5-0.2 -0.1 0.5c-1.3 6.2-1.8 9-1.8 9.1L548 193.4zM542.1 187.1c0.8 0.9 3 3.4 5.4 5.2 0.2-1 0.7-3.6 1.6-8C546.8 185 543.3 186.6 542.1 187.1z" class="c"/><path d="M548.7 193.6c0 0 15.8-6 2.8 6.7C549.1 195.9 548.7 193.6 548.7 193.6z" class="a"/><path d="M548.7 193.6h0C548.7 193.6 548.7 193.6 548.7 193.6z" fill="#E0E0E0"/><path d="M551.4 192.8c0.8 1.1 1.3 2.2 1.5 3.4C559.1 191.4 554.7 192 551.4 192.8z" class="b"/><path d="M551.4 200.8l-0.2-0.4c-2.4-4.4-2.8-6.7-2.8-6.8l0-0.3 0.2-0.1c0.2-0.1 3.8-1.4 6.2-1.4 1.1 0 1.8 0.3 2.1 0.9 0.3 0.8 0.2 2.5-5.1 7.7L551.4 200.8zM549.1 193.8c0.2 0.7 0.7 2.7 2.5 5.9 4.6-4.5 4.9-6.2 4.7-6.7 -0.2-0.4-0.9-0.5-1.5-0.5C552.9 192.5 550 193.5 549.1 193.8z" class="c"/><path d="M551.8 202.6c0 0 8.1 1.1 8.1 2.9 -1 1.3-9 6.2-9 6.2C551.5 206.7 551.8 202.6 551.8 202.6z" class="a"/><path d="M551.8 202.6c0 0 8.1 1.1 8.1 2.9 -1.1 0.5-4.5 1.2-4.5 1.2C555.9 203.4 551.8 202.6 551.8 202.6z" class="b"/><path d="M550.6 212.4l0.1-0.7c0.5-5 0.8-9.1 0.8-9.2l0-0.3 0.3 0c2 0.3 8.4 1.3 8.4 3.3v0.1l-0.1 0.1c-1 1.3-8.7 6.1-9.1 6.3L550.6 212.4zM552.1 203c-0.1 1-0.4 4.3-0.7 8.2 2.4-1.5 7.3-4.7 8.2-5.7C559.4 204.5 555.7 203.5 552.1 203z" class="c"/><path d="M520.1 196.3c0 0 12.6-24.1 28.8-5.6 7.2 8.3 7.8 23.2-2.5 27.8C535.4 212 520.1 196.3 520.1 196.3z" class="d"/><path d="M544.7 197c4-6.1-1.6-12.8-10.1-13.1 -4.7 0.8-8.5 4.3-11.1 7.4 6.2 0.5 12.3 2.4 17.9 5.8C542.7 197.7 544.7 197 544.7 197z" class="e"/><path d="M543 194.2c2.2-3.9 0.2-8.7-8.3-9.1 -1.8 0.3-4.8 1.6-7.3 4.7 6.2 0.5 8 1 13.6 4.4C542.4 194.9 543 194.2 543 194.2z" class="f"/><path d="M546.4 218.9l-0.1-0.1c-10.9-6.5-26.3-22.1-26.4-22.3l-0.2-0.2 0.1-0.2c0.3-0.5 6.8-12.8 16.6-12.8 4.3 0 8.6 2.4 12.8 7.1 4.3 5 6.3 12.5 5 18.6 -1 4.6-3.6 7.9-7.6 9.7L546.4 218.9zM520.5 196.3c1.7 1.7 15.7 15.8 26 21.9 4.6-2.2 6.4-6.2 7-9.2 1.3-6-0.6-13.2-4.8-18.1 -4-4.6-8.2-6.9-12.3-6.9C527.6 184.1 521.4 194.6 520.5 196.3z" class="g"/><path d="M431.2 126.3c0 0 43.5-14.2 62.4 31.8 -3.8 14.8-14.8 44.8-14.8 44.8l-44.5-19.2L431.2 126.3z" class="h"/><path d="M431.2 126.3l2.8 52.4c14.8-6.5 28.3-2.4 43.1 4.7 1.8-9.8 5.5-21.9 10.7-27.4C470.5 112.1 431.2 126.3 431.2 126.3z" class="i"/><path d="M431.2 126.3l2.8 52.4c14.8-6.5 24.5-6.6 39.3 0.5 1.8-9.8 4.2-19.1 9.4-24.6C469.5 116.8 431.2 126.3 431.2 126.3z" class="j"/><path d="M479 203.4l-45-19.4 -3.1-57.9 0.2-0.1c0.1 0 6.5-2.1 15.3-2.1 15.3 0 35.9 5.9 47.5 34l0 0.1 0 0.1c-3.7 14.7-14.7 44.5-14.8 44.8L479 203.4zM434.7 183.5l44 19c1.2-3.3 11.2-30.5 14.7-44.4 -11.4-27.7-31.8-33.5-46.9-33.5 -7.8 0-13.6 1.6-14.9 2L434.7 183.5z" class="k"/><path d="M376.3 139.4c0 0 18.1-34.4 60.3-14 4.2 13.7 11.9 47.4 5.9 61.6 -6.5 5.5-29.5 16-29.5 16l-27.8-25.6L376.3 139.4z" class="h"/><path d="M376.3 139.4c0 0 16-32.4 58.2-12.1 4.2 13.7 8.9 37.8 2.9 51.9 -6.5 5.5-18.2 10.3-18.2 10.3l-19.4-16.3L376.3 139.4z" class="i"/><path d="M376.3 139.4c0 0 16.3-31.8 56.1-11.4 4.2 13.7 7.9 34.9 1.9 49 -6.5 5.5-15.1 8.2-15.1 8.2l-18.6-14.5L376.3 139.4z" class="j"/><path d="M412.9 203.3l-0.2-0.1 -27.8-25.6 -9-38.2 0.1-0.1c0.1-0.2 11.1-20.6 35.4-20.6 7.9 0 16.5 2.2 25.4 6.5l0.1 0.1 0 0.1c3.8 12.2 12.2 47 5.9 61.8l0 0.1 -0.1 0.1c-6.5 5.5-28.6 15.6-29.6 16L412.9 203.3zM385.5 177.2l27.5 25.4c2.2-1 23-10.6 29.2-15.8 5.5-13-0.7-44.3-5.9-61.2 -8.8-4.2-17.2-6.4-25-6.4 -22.9 0-33.8 18.6-34.7 20.2L385.5 177.2z" class="k"/><path d="M347.1 177.3c0 0 1-25.7 33.1-42.5 6 4.6 21.5 17.1 17.1 49.4 -11.6 9-33.6 15.8-33.6 15.8L347.1 177.3z" class="h"/><path d="M379.9 134.8c-32.1 16.8-33.1 42.5-33.1 42.5l8.6 11.7c7.7-9.8 23.9-18.7 38.8-19.4C394.5 148.2 385 138.6 379.9 134.8z" class="i"/><path d="M379.9 134.8c-32.1 16.8-33.1 42.5-33.1 42.5l8.6 11.7c5.6-13.1 22.1-20.2 37-20.9C391.7 150.6 385 138.6 379.9 134.8z" class="j"/><path d="M365.3 176c4.1-2.5 12.6-8 26.4-9.3 -4.2-11.1-6.5-18.4-7.8-19.3 -1.2-1-6.9-5.4-10.9-8.4 -13.2 8.6-19.7 18.7-23 26.4C353.5 166.4 359.9 169.2 365.3 176z" class="i"/><path d="M365.6 174.3c4.1-2.5 10.2-7.6 24-8.9 -4.2-11.1-5-16.2-6.3-17.2 -1.2-1-7.4-5.5-11.5-8.6 -11 7.8-18 16.6-21.2 24.3C354 165.1 360.2 167.6 365.6 174.3z" class="l"/><path d="M381.6 162c-1.5-2.4-3.7-10.3-4.6-12.5 -1.7-0.8-6.8-4.5-10.8-5.6 -6.5 5.4-10.8 11.1-13.7 16.2 3.1 0.7 8.7 2.5 14.7 7.3C370.3 165.8 377.1 162.2 381.6 162z" class="i"/><path d="M379.4 160.9c-1.5-2.4-2.2-8.4-3.1-10.6 -1.7-0.8-6.9-4.7-10.9-5.8 -6.5 5.4-9.3 9.2-12.2 14.3 3.1 0.7 7.8 2.3 13.8 7.1C370.1 164.3 374.9 161.2 379.4 160.9z" class="j"/><path d="M363.1 160.9c2.6 0.3 7.4 0 7.4 0 1-4.5 0.2-7.4 0.2-7.4 -3.7-3-6.8-4.3-9.3-5.3 -2 2.1-4.2 5-5.7 7C357.8 156.2 360.8 158.2 363.1 160.9z" class="i"/><path d="M363.6 159.8c2.6 0.3 6 0 6 0 1-4.5 1.1-6.2 1.1-6.2 -3.7-3-6.8-4.3-9.3-5.3 -2 2.1-3.8 4.1-5.3 6.2C358.2 155.3 361.3 157.1 363.6 159.8z" class="l"/><path d="M363.3 200.4l-16.8-22.9 0-0.1c0-0.3 1.4-26.1 33.3-42.8l0.2-0.1 0.2 0.1c5.4 4.1 21.8 16.5 17.2 49.7l0 0.1 -0.1 0.1c-11.5 8.9-33.5 15.8-33.7 15.9L363.3 200.4zM347.1 177.2l16.4 22.4c2.3-0.7 22.4-7.3 33.2-15.6 4.4-32.4-11.4-44.7-16.8-48.8C349.5 151.1 347.2 175.4 347.1 177.2z" class="k"/><path d="M325.6 230.3c0 0-4.9-31.8 23-59.3 3.1 0.7 15.3 6.4 17.4 25.4 -2 12.5-9.3 49.7-9.3 49.7L325.6 230.3z" class="h"/><path d="M363.1 185c-4.4-10.1-12.1-13.5-14.5-14 -20.1 19.8-23.1 41.9-23.3 52.6 4.8-4.2 13.8-4.6 22.9-1.7C347.9 211.5 350.8 191.3 363.1 185z" class="i"/><path d="M359.9 185.5c-2.6-6.4-5.7-11.1-12-13.8 -17.7 17.9-21.7 37.4-22.4 48.8 7.4-3 12.8-3.8 21-1.1C346.5 209.3 349.7 192.5 359.9 185.5z" class="j"/><path d="M345 215.6c-0.2-12.7 11.1-27.8 10.1-29.3 -1.6-2.7-6.8-8.8-9.7-12 -13.7 15.1-18.2 31-19.6 42C331.2 215 340.1 215.2 345 215.6z" class="i"/><path d="M343.6 214.5c-0.2-12.7 11.5-26.2 10.5-27.7 -1.6-2.7-6.7-8.2-9.6-11.4 -12.5 14.2-17.2 28.7-18.5 39.7C331.3 213.7 338.7 214 343.6 214.5z" class="l"/><path d="M339.5 207.6c1.6-6.2 5.3-16.1 7.9-17.9 -1.7-2.5-4.4-7.1-6.9-9.6 -7.5 9.9-11.4 19.9-13.4 28.3C330.7 207.6 336.4 206.7 339.5 207.6z" class="i"/><path d="M340.7 181.5c-1.2 1.4-1.2 3.9-3.3 4.5 1.3 1.3 1.1 2.4 3.1 5.4 0.5 3.6-4.6 12.6-11.4 14.4 0 0.4-0.2 0.8-0.3 1.2 3.2-0.7 6.8-1.3 9.6-0.6 1.6-6.2 5.5-14.7 8.1-16.5C344.9 187.6 342.9 184 340.7 181.5z" class="j"/><path d="M339.8 192.3c-0.8-1.3-2.4-3.8-3.3-6 -3.9 6.3-6.4 12.4-8.1 18C330.2 204.9 333.8 203.8 339.8 192.3z" class="l"/><path d="M357 246.5l-31.7-16 0-0.2c0-0.3-4.6-32.3 23.1-59.6l0.1-0.1 0.2 0c0.2 0 15.3 3.8 17.7 25.7l0 0 0 0c-1.9 12.4-9.2 49.3-9.3 49.7L357 246.5zM325.9 230.1l30.6 15.5c0.8-4.1 7.4-37.5 9.2-49.2 -2-17.7-13-24.1-17-25.1C322.5 197.4 325.6 227.6 325.9 230.1z" class="k"/><path d="M489.1 241.4c0 0-28.2-36 3.1-86.4 6.8 2.3 33.6 12.5 31.1 56.1C507.3 231.1 489.1 241.4 489.1 241.4z" class="h"/><path d="M488 234.5c0 0-25.1-29.8 2.9-77.3 6.8 2.3 32.6 11 29.2 46.7C504.1 223.9 488 234.5 488 234.5z" class="i"/><path d="M493.7 227.3c0 0-23.1-35.1-2.1-67.1 6.8 2.3 28.8 8 25.6 42.4C501.2 222.6 493.7 227.3 493.7 227.3z" class="j"/><path d="M489 241.8l-0.2-0.2c-0.1-0.1-7.1-9.2-10.2-24.4 -2.9-14-2.9-36.2 13.3-62.3l0.1-0.2 0.2 0.1c7.6 2.5 14.1 6.8 19.2 12.7 9.1 10.4 13.2 25.2 12.2 43.7l0 0.1 -0.1 0.1c-15.8 19.9-34.1 30.3-34.3 30.4L489 241.8zM492.3 155.4c-16 25.8-15.9 47.7-13.1 61.6 2.8 13.7 8.9 22.5 10 24 2.2-1.3 19.1-11.6 33.8-30C525.1 172.5 504.8 159.6 492.3 155.4z" class="k"/><path d="M413 264l3.7-65.5c3-2.3 23.5-19.1 31.4-21.2 9.3 2.3 28.2 7.7 30.6 15.5 2.4 7.8 16.3 46.6 16.3 46.6C479.2 250 445.7 267.4 413 264z" class="h"/><path d="M413.7 256.9l3-58.4c3-2.3 23.5-19.1 31.4-21.2 9.3 2.3 26.5 9.4 28.9 17.2 2.4 7.8 12.8 38.5 12.8 38.5C474 243.6 446.5 260.3 413.7 256.9z" class="i"/><path d="M423.1 254.6l-0.2-57.1c3-2.3 16.9-15.1 24.9-17.2 9.3 2.3 24.9 10.1 27.4 17.9 2.4 7.8 10.4 34.2 10.4 34.2C469.7 243 454.4 254.6 423.1 254.6z" class="j"/><path d="M421.5 264.8c-2.9 0-5.8-0.1-8.6-0.4l-0.3 0 3.8-65.9 0.1-0.1c0.3-0.2 0.8-0.6 1.5-1.2 5.7-4.5 22.9-18.2 30.1-20.1l0.1 0 0.1 0c12.8 3.2 28.6 8.4 30.9 15.7 2.4 7.7 16.2 46.2 16.3 46.6l0.1 0.2 -0.2 0.1C486.4 245.6 454.9 264.8 421.5 264.8zM413.3 263.7c2.7 0.3 5.4 0.4 8.2 0.4 32.9 0 64.1-18.8 73.2-24.8 -1.2-3.3-13.9-39-16.2-46.4 -1.7-5.4-12.5-10.8-30.3-15.2 -7.1 2-24.2 15.5-29.8 19.9 -0.6 0.5-1.1 0.8-1.4 1.1L413.3 263.7z" class="k"/><path d="M536.7 210.4c0 0 29.8-1 42.8 5.5 -8.2 0-35.2 3.6-46.6 20.5 -4.3 8.2-20.9 9.7-19.6 2.4C520.9 229.3 536.7 210.4 536.7 210.4z" class="d"/><path d="M579.2 215.8c-13.2-6.3-42.5-5.4-42.5-5.4s-6.5 7.8-13.2 16C540.8 217.9 559.8 213.4 579.2 215.8z" class="e"/><path d="M579.2 215.8c-13.2-6.3-42.5-5.4-42.5-5.4s-6.5 7.8-13.2 16C543 210.7 559.8 213.4 579.2 215.8z" class="f"/><path d="M519.4 243.9c-2.6 0-4.6-0.7-5.6-1.9 -0.7-0.8-1-1.9-0.7-3.1l0-0.1 0-0.1c7.4-9.5 23.2-28.3 23.3-28.5l0.1-0.1 0.1 0c0 0 1.6-0.1 4.2-0.1 8.3 0 28.6 0.5 38.8 5.6l1.2 0.6h-1.4c-8.4 0-35.1 3.7-46.3 20.4C530.8 241.4 524.3 243.9 519.4 243.9zM513.7 239c-0.2 1 0 1.9 0.6 2.5 0.9 1.1 2.7 1.7 5.1 1.7 4.7 0 10.9-2.4 13.3-6.9 10.8-16.1 35.7-20.3 45.5-20.7 -10.4-4.5-29.3-5-37.2-5 -2.1 0-3.6 0-4 0C535.5 212.3 520.8 229.9 513.7 239z" class="g"/><path d="M344.4 268.6c0 0-18-6.2-44.8 32.9 -2.8 0.7-16.3 9.5-0.8 19.6 7.2 4.1 13.4 5.1 27.7 2 8-6.8 43.3-56.9 43.3-56.9C360.5 267.3 344.4 268.6 344.4 268.6z" class="d"/><path d="M331.4 270.7c-7.8 3.5-18.8 11.8-31.8 30.8 -1.4 0.3-5.3 2.6-7.2 6 4.4 0 8.3 2.6 7.8 7.5 5.2-3.9 8.5 4.6 11.7 4.6 13.7 0 18.3-19.6 24.1-30.6 2-3.9-2.6-8.5-0.6-13 0.1-0.2 0.2-0.4 0.4-0.6C337.6 272.2 333 270.2 331.4 270.7z" class="e"/><path d="M330.6 273.5c-7.8 3.5-14.7 9-27.7 28 -1.4 0.3-5.4 1.8-7.3 5.2 4.4 0 6.8 0.7 6.3 5.6 5.2-3.9 6.2 3.8 9.5 3.8 13.7 0 16.9-16 22.8-27 2-3.9-1.8-8 0.1-12.6C336.2 273.5 332.3 272.9 330.6 273.5z" class="f"/><path d="M312.6 325.2c-5.2 0-9.2-1.1-14-3.8 -5.6-3.6-8-7.5-7.4-11.4 0.9-4.8 6.3-8.2 8.2-8.7 20.6-30.1 36.2-33.3 42-33.3 1.7 0 2.8 0.3 3 0.4 1.1-0.1 16.5-1.3 25.3-2.5l0.7-0.1 -0.4 0.6c-1.4 2-35.5 50.2-43.4 57l-0.1 0.1 -0.1 0C320.7 324.6 316.3 325.2 312.6 325.2zM341.4 268.6c-5.7 0-21.1 3.2-41.5 33.1l-0.1 0.1 -0.1 0c-1.5 0.4-7 3.6-7.8 8.2 -0.6 3.7 1.7 7.3 7.1 10.8 4.7 2.6 8.6 3.7 13.7 3.7 3.7 0 8-0.6 13.7-1.8 7.5-6.5 38.8-50.5 42.8-56.2 -9.3 1.2-24.5 2.4-24.7 2.4l-0.1 0 -0.1 0C344.3 268.9 343.3 268.6 341.4 268.6z" class="g"/><path d="M364.8 261.8c0 0-72.3 23.6 14.7 35.3 8.8 7.3 28 7.5 40.7 3.3 8.9 4 26.1 2.6 40.1-7.5 12.4-2.9 19.6-4.1 31-13.1 6.8-0.3 33.9-15.9 22.5-38.4C493.2 254.4 442.6 292.7 364.8 261.8z" class="m"/><path d="M492.9 254.3c-26.5 14.8-69.6 30.7-128.1 7.5 0 0-58.3 21.5 16.7 31.1 8.8 7.3 26.9 6.6 39.6 2.3 8.9 4 24.4 1.9 38.4-8.2 12.4-2.9 19.7-3.6 31-12.5 3.2-0.2 10.8-2.4 16.9-7C501.2 265.2 496.4 260.4 492.9 254.3z" fill="#F4CA8E"/><path d="M387.9 269.2c-7.4-1.8-15.1-4.3-23.1-7.4 0 0-44.2 18.1 10.6 26.6C379.9 281.9 381.2 272.9 387.9 269.2z" class="n"/><path d="M394.7 281.2c-3.4 5-6.5 10.1-4.9 11.3 6.5 4.6 24.3 4.1 28.4-0.5 1.7-3 2.5-6.3 2.9-9.7C412.5 283.9 403.4 281.9 394.7 281.2z" class="n"/><path d="M426.5 282.5c-0.1 3.3 0.1 6.5 1 9.7 1.7 4.1 28-2.2 28-5.9 0-2.8-0.3-5.5-0.8-8.1C445.6 281 436 283.4 426.5 282.5z" class="n"/><path d="M496.6 261.7c-1.8 2.2-5 3.1-7.4 4.4 1 2.9 2.1 5.2 3.9 5.1 2.6-0.1 5.9-0.7 10-3.7C499.6 266.2 497.9 264.2 496.6 261.7z" class="n"/><path d="M460 277.2c0.6 2.2 1.3 4.2 2.4 6 1.6 2.1 15.2-2.7 23.6-8.6 0.9-1.2 0.5-3.9-0.4-6.8C477.8 272.6 469.4 277 460 277.2z" class="n"/><path d="M401.8 303.5c-9.6 0-17.8-2.2-22.5-6.1 -27.9-3.8-42.4-9.2-43-16.2 -0.9-10.1 27.2-19.3 28.4-19.7l0.1 0 0.1 0c19.6 7.8 39.1 11.7 57.8 11.7 41.5 0 70.9-19.2 86.7-29.5 1.5-1 2.9-1.9 4.1-2.7l0.3-0.2 0.2 0.3c3.9 7.7 3.8 15.3-0.4 22.5 -5.6 9.7-17.5 16.1-22.2 16.4 -10.5 8.3-17.5 9.9-28.1 12.4 -0.9 0.2-1.8 0.4-2.8 0.7 -8.5 6.1-19 9.6-28.9 9.6 -4.4 0-8.3-0.7-11.4-2.1C414.8 302.5 408.3 303.5 401.8 303.5zM364.7 262.2c-2 0.7-28.7 9.8-27.8 19 0.6 6.6 14.9 11.9 42.6 15.6l0.1 0 0.1 0.1c4.6 3.8 12.7 6 22.2 6 6.4 0 12.9-1 18.2-2.8l0.1 0 0.1 0.1c3 1.3 6.9 2 11.2 2 9.7 0 20.1-3.5 28.5-9.5l0.1-0.1c1-0.2 2-0.5 2.9-0.7 10.6-2.5 17.6-4.1 27.9-12.3l0.1-0.1 0.1 0c3.8-0.2 15.9-5.9 21.8-16.1 4-6.9 4.2-14.1 0.6-21.6 -1.2 0.7-2.4 1.6-3.8 2.5 -15.9 10.3-45.4 29.6-87.1 29.6C403.9 273.9 384.4 269.9 364.7 262.2z" class="o"/><path d="M420.5 300.5l-0.6-0.2c0.1-0.2 5.2-18.7 2.9-26.6l0.6-0.2C425.7 281.5 420.7 299.7 420.5 300.5z" class="o"/><path d="M460.6 292.9h-0.7c0-12.2-5.8-22.8-5.9-22.9l0.6-0.3C454.7 269.7 460.6 280.5 460.6 292.9z" class="o"/><path d="M490.9 279.9c-1.6-12.8-8.4-19.9-8.5-20l0.5-0.5c0.1 0.1 7 7.4 8.7 20.4L490.9 279.9z" class="o"/><path d="M372.6 266.8c0 0-16.3 10.6-50.8 0.9 -16.9-3.4-24.8 3.5-24.8 3.5 -8.1 9-36.2 31.2-67.1 12.6 -16.3 2-20.5 1.2-10.1-17.6 -6.2 0.4-19.6-3.2-22.5 1.7 -3.3-10.4-19.2-50.8 29-70.1 7.2-2.9 20.5-23.1 58-11.1 36.5 14 21.5 48.6 43.7 54.8 14.3 3.9 28.4 8.8 28.4 8.8C360.2 254.7 372.6 266.8 372.6 266.8z" class="d"/><path d="M340.5 245.1c-3.9-1.2-8.3-2.5-12.6-3.7 -22.2-6.2-7.2-40.7-43.7-54.8 -37.5-12.1-50.8 8.1-58 11.1 -48.2 19.2-32.3 59.6-29 70.1 2.9-4.9 16.3-1.3 22.5-1.7 -10.4 18.9 1.7 17.2 18 15.3 31 18.6 60.2-16.1 68.4-25.1 0 0 2 4.5 18.9 8 15.1 4.3 27.5 3.8 34.2 2.2C351 262 346.4 251.9 340.5 245.1z" class="e"/><path d="M301.2 244.7c0 0 11.5 21.7 52.5 20.7 -9.2-7.2-12.3-12.9-14.8-16.7 -2.1-3.6-26-2-31.4-28.2C308 237 301.2 244.7 301.2 244.7z" class="f"/><path d="M283.4 190.4c-37.5-12.1-45.4 7.1-52.5 10 -48.2 19.2-36.9 57-33.6 67.4 2.9-4.9 16.3-1.3 22.5-1.7 -6.8 18.2 5.1 14.9 21.4 13 27 16.2 55.3-18.4 60.8-28.4C301.9 250.7 327.1 206.7 283.4 190.4z" class="f"/><path d="M254.8 291.3c-8.6 0-17-2.4-25-7.2 -3.2 0.4-6.4 0.7-9 0.7 -3.6 0-5.6-0.7-6.5-2.2 -1.4-2.4 0-7.1 4.9-16.1 -1.8 0-4.1-0.2-6.6-0.4 -2.5-0.3-5.2-0.5-7.6-0.5 -4.1 0-6.5 0.8-7.5 2.4l-0.4 0.6 -0.2-0.7c-0.2-0.5-0.3-1.1-0.6-1.7 -4.1-12.4-16.4-50.3 29.8-68.7 1.4-0.6 3-1.8 5.1-3.4 6.1-4.6 15.2-11.5 31.1-11.5 6.7 0 14.2 1.3 22 3.8 20.5 7.9 24.8 21.9 28.6 34.3 2.9 9.5 5.4 17.7 15 20.4 14.2 3.9 28.2 8.8 28.4 8.8l0.1 0 0.1 0.1c3.9 4.5 16.2 16.5 16.3 16.6l0.3 0.3 -0.3 0.2c-0.1 0.1-7.9 5-23.8 5 -8.4 0-17.6-1.4-27.4-4.1 -3.1-0.6-6.1-0.9-8.9-0.9 -10.4 0-15.5 4.3-15.5 4.4C295.4 273.4 278.5 291.3 254.8 291.3zM229.9 283.4l0.1 0.1c7.9 4.8 16.2 7.2 24.8 7.2 23.5 0 40.1-17.7 42-19.7 0.2-0.2 5.3-4.5 16-4.5 2.9 0 5.9 0.3 9.1 1 9.7 2.7 18.8 4.1 27.2 4.1 13.8 0 21.4-3.8 23-4.7 -1.9-1.9-12.4-12.1-16-16.3 -1.2-0.4-14.7-5.1-28.2-8.8 -10-2.8-12.5-11.2-15.5-20.8 -3.7-12.3-8-26.2-28.2-33.9 -7.8-2.5-15.1-3.8-21.8-3.8 -15.7 0-24.7 6.9-30.7 11.4 -2.1 1.6-3.8 2.9-5.2 3.5 -45.6 18.2-33.4 55.6-29.4 67.9 0.1 0.4 0.3 0.8 0.4 1.1 1.3-1.5 3.7-2.2 7.7-2.2 2.4 0 5.1 0.3 7.6 0.5 2.7 0.3 5.2 0.5 7.1 0.4l0.6 0 -0.3 0.5c-5 9-6.5 13.7-5.2 16 0.8 1.3 2.6 1.9 6 1.9 2.5 0 5.8-0.3 9-0.7L229.9 283.4z" class="g"/><path d="M293.1 275.4l-0.4-0.5c0.1-0.1 12.2-10.5 13.3-19.6C306 255.2 307.4 262.2 293.1 275.4z" class="g"/><path d="M224.4 266.2c-2.2 3-4.9 7.6-3.9 10.2 6.2-1.2 15.1 1.6 31.3-17.4C239.2 263.8 230.2 265.6 224.4 266.2z" fill="#5F0000"/><path d="M226.7 265.9c-0.8 0.1-1.6 0.2-2.3 0.3 -2.2 3-4.9 7.6-3.9 10.2 1.9-0.4 4-0.4 6.5-0.7C226.3 272.4 226.1 269.1 226.7 265.9z" fill="#830000"/><path d="M220.3 276.7l-0.1-0.3c-1-2.7 1.6-7.2 4-10.5l0.1-0.1 0.1 0c5.2-0.5 14.2-2.1 27.3-7.2l1.2-0.5 -0.8 1c-13.6 15.9-22.1 16.6-28.2 17.1 -1.2 0.1-2.3 0.2-3.3 0.4L220.3 276.7zM224.6 266.5c-3 4.2-4.4 7.6-3.9 9.5 1-0.2 2-0.2 3.1-0.3 5.9-0.5 14-1.1 26.9-15.9C238.4 264.4 229.7 266 224.6 266.5z" fill="#4C6D03"/><path d="M239.3 269.9c0 0 5.3-14 22-11.5 7.4 1.3 10.5 7.9 7.5 12.6C258.6 281.4 243.5 266.3 239.3 269.9z" fill="#F7669E"/><path d="M239.3 269.9c0 0 5.3-14 22-11.5 7.4 1.3 8.9 6.7 5.9 11.3C254 280.1 244.6 266.1 239.3 269.9z" fill="#F991BB"/><path d="M260 275c-4.3 0-8.5-1.8-12.2-3.3 -2.7-1.1-5-2.1-6.7-2.1 -0.7 0-1.2 0.2-1.6 0.5l-1 0.9 0.5-1.2c0-0.1 4.7-12 18.4-12 1.3 0 2.6 0.1 3.9 0.3 3.9 0.7 6.9 2.9 8.3 6 1 2.4 0.8 5-0.5 7.1C266.5 273.8 263.6 275 260 275zM241.1 269c1.8 0 4.2 1 6.9 2.1 3.7 1.5 7.9 3.2 12 3.2 3.4 0 6.2-1.2 8.6-3.6 1.2-1.9 1.4-4.3 0.4-6.5 -1.2-2.8-4.1-4.9-7.8-5.6 -1.3-0.2-2.6-0.3-3.8-0.3 -11.1 0-16 8-17.4 10.7C240.4 269.1 240.7 269 241.1 269z" class="p"/><path d="M260.7 266.6c-6-5.9-15.1-4.2-15.2-4.2l-0.1-0.6C256.6 260.1 260.7 266.6 260.7 266.6z" class="p"/><path d="M227.7 284.3l-0.1-0.6c0.1 0 8.6-0.9 12.7-3.6C240.3 280.1 238.6 283.3 227.7 284.3z" class="g"/><path d="M264.5 220.6c3.1 11.3-1.6 22.4-10.3 24.7s-18.3-4.9-21.4-16.2c-3.1-11.3 1.6-22.4 10.3-24.7C251.8 202.1 261.4 209.3 264.5 220.6z" class="d"/><ellipse transform="matrix(0.9652 -0.2614 0.2614 0.9652 -50.6127 72.996)" cx="249.1" cy="226.8" rx="14.9" ry="19.3" fill="#D3D3D3"/><path d="M264.1 225.4c-0.1-0.8-0.3-1.7-0.5-2.5 -2.8-10.3-11.5-16.9-19.5-14.7 -8 2.2-12.2 12.2-9.4 22.5 0.5 1.9 1.2 3.6 2.1 5.2 1.2 1 2.5 2 3.8 2.8C251.4 244.4 259.6 237.3 264.1 225.4z" class="q"/><path d="M257.5 229.5c1.5 5.9-1 11.5-5.5 12.7 -4.6 1.2-9.5-2.7-10.9-8.5 -1.5-5.9 1-11.5 5.5-12.7C251.1 219.8 256 223.6 257.5 229.5z" fill="#00A3FF"/><ellipse transform="matrix(0.9691 -0.2467 0.2467 0.9691 -49.7672 68.7841)" cx="249.7" cy="233" rx="6" ry="7.7"/><path d="M256 239.8c-1.1 1.4-2.4 2.3-4 2.7 -4.7 1.2-9.7-2.7-11.3-8.7 -1-3.8-0.3-7.7 1.7-10.3 1.1-1.4 2.4-2.3 4-2.7 4.7-1.2 9.7 2.7 11.3 8.7C258.7 233.3 258 237.1 256 239.8zM242.9 223.7c-1.9 2.5-2.6 6.3-1.6 9.9 1.5 5.7 6.2 9.4 10.6 8.3 1.4-0.4 2.7-1.2 3.7-2.5 1.9-2.5 2.6-6.3 1.6-9.9 -1.5-5.7-6.2-9.4-10.6-8.3C245.1 221.6 243.9 222.5 242.9 223.7z" fill="#0469FF"/><path d="M248.3 225.8c1.4 1.1 1.7 3.2 0.6 4.7 -1.1 1.4-3.2 1.7-4.7 0.6 -1.4-1.1-1.7-3.2-0.6-4.7C244.8 225 246.9 224.7 248.3 225.8z" class="q"/><path d="M245.7 232.4c0.6 0.5 0.7 1.4 0.2 2 -0.5 0.6-1.4 0.7-2 0.2 -0.6-0.5-0.7-1.4-0.2-2C244.2 232 245 231.9 245.7 232.4z" class="q"/><path d="M251.1 246.1c-7.3 0-14.3-6.5-16.7-15.4 -1.4-5-1.1-10.2 0.7-14.5 1.8-4.4 5-7.3 8.9-8.4 1-0.3 2.1-0.4 3.2-0.4 7.3 0 14.3 6.5 16.7 15.4 2.8 10.4-1.5 20.7-9.6 22.9C253.2 246 252.1 246.1 251.1 246.1zM247.1 208.1c-1 0-2 0.1-3 0.4 -3.8 1-6.8 3.9-8.5 8 -1.7 4.2-2 9.2-0.6 14.1 2.3 8.6 9.1 14.9 16.1 14.9 1 0 2-0.1 3-0.4 7.8-2.1 11.9-12 9.1-22.1C260.9 214.3 254.1 208.1 247.1 208.1z" class="g"/><path d="M264.3 230.7c0.2-2.5-0.1-5.2-0.8-7.8 -2.8-10.3-11.5-16.9-19.5-14.7 -3.8 1-6.7 3.8-8.4 7.5C240.8 215.9 252.7 217.9 264.3 230.7z" class="d"/><path d="M261.6 225.9c0.2-2.5 0.3-2.9 0-5.4 -0.9-8-9.6-14.5-17.5-12.4 -3.8 1-6.7 3.8-8.4 7.5C238.5 215.6 250 213.1 261.6 225.9z" class="e"/><path d="M260.7 223.5c0.2-2.5-4.8-16.1-15.3-13.8 -3.8 0.8-5.2 2-6.8 4.6C241.5 214.2 249.1 210.7 260.7 223.5z" class="f"/><path d="M264.6 231.5l-0.5-0.6c-11.7-12.9-23.8-14.7-28.5-14.9l-0.5 0 0.2-0.4c1.9-4 4.9-6.7 8.6-7.7 1-0.3 2.1-0.4 3.2-0.4 7.3 0 14.3 6.5 16.7 15.4 0.7 2.6 1 5.3 0.8 7.9L264.6 231.5zM236.2 215.4c5 0.3 16.6 2.4 27.9 14.5 0.1-2.3-0.2-4.6-0.8-7 -2.3-8.6-9.1-14.9-16.1-14.9 -1 0-2 0.1-3 0.4C240.8 209.4 237.9 211.8 236.2 215.4z" class="g"/><path d="M208.1 240.9c-0.9 2.4-2.8 4-4.1 3.5 -1.3-0.5-1.6-2.9-0.7-5.3 0.9-2.4 2.8-4 4.1-3.5C208.8 236 209.1 238.4 208.1 240.9z" fill="#5B0303"/><path d="M207.9 235.8c-0.1-0.1-0.3-0.2-0.4-0.2 -1.3-0.5-3.1 1.1-4.1 3.5 -0.6 1.6-0.7 3.1-0.3 4.2C204.6 244.8 209.5 237.2 207.9 235.8z" fill="#2A0505"/><path d="M204.6 244.8c-0.2 0-0.4 0-0.6-0.1 -1.5-0.6-1.9-3.1-0.9-5.8 0.9-2.2 2.4-3.8 3.9-3.8 0.2 0 0.4 0 0.6 0.1 0.8 0.3 1.3 1.1 1.4 2.2 0.1 1.1 0 2.3-0.5 3.6C207.6 243.2 206 244.8 204.6 244.8zM206.9 235.8c-1.1 0-2.5 1.5-3.3 3.4 -0.9 2.2-0.6 4.5 0.5 4.9 1.1 0.4 2.8-1.1 3.7-3.3 0.4-1.1 0.6-2.3 0.5-3.2 -0.1-0.9-0.5-1.5-1-1.7C207.2 235.8 207.1 235.8 206.9 235.8z" class="g"/><path d="M200.9 238.3c0 0 0.1-3.9 2.1-6.3 0.4-0.5 0.9-1 1.5-1.3 2.1-1.4 4.1-0.1 4.1-0.1 -1.4-0.3-2.6-0.1-3.7 0.6C201.9 233.1 200.9 238.2 200.9 238.3z" class="g"/><ellipse transform="matrix(0.8684 0.4959 -0.4959 0.8684 163.9219 -105.0741)" cx="279.9" cy="256.3" rx="2.6" ry="5.3" class="r"/><ellipse transform="matrix(0.8653 0.5012 -0.5012 0.8653 167.8523 -111.1371)" cx="290.7" cy="256.8" rx="4.7" ry="7.8" class="r"/><path d="M302.1 258.9c-1 3.3-2.8 5.7-4 5.3 -1.2-0.4-1.5-3.3-0.5-6.6 1-3.3 2.8-5.7 4-5.3C302.9 252.6 303.1 255.6 302.1 258.9z" class="r"/><path d="M290.9 270.8c-1.2 1.9-2.9 3.1-3.9 2.5 -0.9-0.6-0.7-2.6 0.5-4.6 1.2-1.9 2.9-3.1 3.9-2.5C292.3 266.8 292.1 268.9 290.9 270.8z" class="r"/><path d="M283 270c-1.4 2.5-3.7 3.9-5.2 3.1 -1.4-0.8-1.5-3.5 0-6.1 1.4-2.5 3.7-3.9 5.2-3.1C284.4 264.8 284.4 267.5 283 270z" class="r"/><path d="M252.7 195.1c0 0 7.3 0.2 15.1 15.6C268.5 208 261.5 186.8 252.7 195.1z" class="r"/><path d="M520.1 232.3c0 0 11.1 1.6 27.9-3.4 14.2-3.9 27.2-6.8 29.3 18.9 1.1 11.7-1.5 21-28.6 23.1 -16.1 0.2-51.1-6.7-52.7-14.2C502 251.6 520.1 232.3 520.1 232.3z" class="d"/><path d="M506.2 257.7c18.9 9.1 46.9 13 64.5-1.3 -4.6-2-2-7.8 2-8.5 -1.3-0.7-2.4-4.7-1.7-6 1-7.2-0.5-13.2-5.4-15.2 -5.1-1.2-11.3 0.4-17.7 2.1 -7.7 2.3-14.2 3.2-19 3.5C527.3 243.2 512.7 249.4 506.2 257.7z" class="e"/><path d="M513 256.4c18.9 9.1 35.8 8.1 53.6 0 -4.6-2-1.2-9.3 2.7-10 -1.3-0.7-2-3.7-1.4-5 1-7.2 1.2-10.1-3.7-12.2 -5.1-1.2-10.8 0.8-17.2 2.6 -7.7 2.3-11.4 2.3-16.2 2.7C529.2 245.3 519.5 248.1 513 256.4z" class="f"/><path d="M508.2 259.8c-2.2 0-4.1 1-5.2 2.5 3 1.3 6.8 2.6 11 3.7 0.1-0.4 0.2-0.8 0.2-1.1C514.1 262 511.5 259.8 508.2 259.8z" class="r"/><path d="M527 266.1c-2.2 0-4.1 0.7-5.1 1.7 3.7 0.8 7.4 1.4 11.1 1.9 0-0.1 0-0.2 0-0.2C532.9 267.6 530.3 266.1 527 266.1z" class="r"/><path d="M548.1 271.2c-16.3 0-50.8-6.7-52.5-14.5l0-0.2 0.1-0.1c5.9-4.9 23.9-24.2 24.1-24.4l0.1-0.1 0.2 0c0 0 1.7 0.3 4.7 0.3 4.9 0 12.9-0.6 23-3.7 5.1-1.4 9.7-2.6 13.9-2.6 9.8 0 14.7 6.7 15.9 21.8 0.5 4.9 0.5 10.4-3.1 14.7 -4.1 4.9-12.3 7.7-25.8 8.8L548.1 271.2zM496.3 256.8c2 6.9 34.4 13.8 51.8 13.8l0.6 0c13-1 21.3-3.8 25.3-8.5 3.5-4.1 3.5-9.5 3-14.2 -1.5-18.8-9-21.2-15.3-21.2 -4.1 0-8.6 1.2-13.7 2.6 -10.1 3-18.2 3.7-23.2 3.7 -2.6 0-4.2-0.2-4.7-0.2C518.6 234.2 502.2 251.8 496.3 256.8z" class="g"/><path d="M530.8 259.1c0 2.5-3.4 4.6-7.7 4.6 -4.2 0-7.7-2-7.7-4.6 0-2.5 3.4-4.6 7.7-4.6C527.4 254.6 530.8 256.6 530.8 259.1z" class="r"/><path d="M548.7 266.2c0 1.7-3.2 1.4-7.2 1.4 -4 0-7.2-1.4-7.2-3.1 0-1.7 3.2-3.1 7.2-3.1C545.5 261.5 548.7 264.5 548.7 266.2z" fill="#458C24"/><path d="M541.6 261.5c-4 0-7.2 1.4-7.2 3.1 0 0.4 0.2 0.7 0.4 1 4.6 0.4 9.2 0.4 13.7-0.2C547.7 263.7 544.9 261.5 541.6 261.5z" class="r"/><path d="M543 256.4c0 1.5-2.3 2.8-5 2.8s-5-1.2-5-2.8c0-1.5 2.3-2.8 5-2.8S543 254.8 543 256.4z" class="r"/><path d="M569.3 266.1c0 0 11.8 2.5 12.5 0.8 0.5-1.7-4.3-6.9-6-7.1C573.3 260.8 571.9 261.1 569.3 266.1z" class="a"/><path d="M571.8 264.9c0 0 7.6 2.1 8.2 0.4 0.5-1.7-2.6-5.5-4.2-5.6C574.4 260 570.1 264.6 571.8 264.9z" class="b"/><path d="M579.4 267.8L579.4 267.8c-3.6 0-9.9-1.3-10.2-1.4l-0.4-0.1 0.2-0.4c2.5-4.8 4-5.4 6.3-6.3l0.5-0.2 0.1 0c1.3 0.1 3.9 2.6 5.3 4.7 0.8 1.2 1.1 2.2 0.9 2.8C581.9 267.5 581 267.8 579.4 267.8zM569.8 265.8c1.5 0.3 6.6 1.3 9.6 1.3 1.8 0 2-0.4 2-0.4 0.1-0.4-0.2-1.2-0.9-2.2 -1.4-2-3.7-4.3-4.7-4.4l-0.3 0.1C573.4 261.1 572.1 261.6 569.8 265.8z" class="c"/><path d="M575.6 256.4c0 0 2.2 1 8.5-1.8 -1.6-1.8-5.2-7-8.5-4.4C574 252.1 574.5 255.5 575.6 256.4z" class="a"/><path d="M577 254.3c0 0 3.1 0.6 7.1 0.3 -1.6-1.8-5.2-7-8.5-4.4C574 252.1 576.1 254.3 577 254.3z" class="b"/><path d="M577 256.9L577 256.9c-1 0-1.4-0.2-1.5-0.2 -0.6-0.5-1.1-1.4-1.2-2.5 -0.2-1.6 0.2-3.1 1.1-4.2 0.7-0.6 1.4-0.8 2.2-0.8 2.4 0 4.6 2.6 6.1 4.4 0.3 0.3 0.5 0.6 0.7 0.8l0.3 0.3 -0.4 0.2C580.6 256.5 578.3 256.9 577 256.9zM575.8 256.1c0.3 0.1 2.5 0.7 7.8-1.6 -0.1-0.2-0.3-0.3-0.4-0.5 -1.4-1.7-3.5-4.1-5.6-4.1 -0.6 0-1.2 0.2-1.7 0.6 -0.7 0.9-1.1 2.2-0.9 3.6C575.1 255 575.4 255.8 575.8 256.1z" class="c"/><path d="M576.2 246c0 0 5.7-2.6 5.8-3.9 -0.8-1.3-4.3-3.2-6.3-2.6C574.9 239.9 573.9 245.9 576.2 246z" class="a"/><path d="M576.5 243.9c0 0 5.4-1 5.5-1.7 -0.8-1.3-4.3-3.2-6.3-2.6C574.9 239.9 574.2 243.8 576.5 243.9z" class="b"/><path d="M576.2 246.4l-0.1 0c-0.6 0-1.3-0.4-1.6-1.8 -0.4-1.8 0.2-4.9 0.9-5.3 0.3-0.1 0.7-0.1 1-0.1 2.1 0 5 1.6 5.7 2.9l0.1 0.1 0 0.1c-0.1 1.3-4.6 3.5-6 4.1L576.2 246.4zM575.8 239.9c-0.3 0.3-1 3.3-0.5 5 0.2 0.7 0.6 0.9 0.8 0.9 2.5-1.2 5.2-2.8 5.5-3.5 -0.7-1-3.2-2.5-5.1-2.5C576.2 239.8 576 239.8 575.8 239.9z" class="c"/><path d="M395.7 276.6c0 0-3.5-3-16.3 25.2 -5.6 12.7-12.1 49.7-54 39.3 -9.6-3.3-18.7-10.8-7.2-16 9.8-6.8 14.5-30 27.1-40.4 8.8-6.7 19.2-14.8 19.4-22.9C372.3 263.2 395.7 276.6 395.7 276.6z" class="d"/><path d="M331.6 336.9c1.3-3.9 5.1-4.3 8.4-2.4 7.2 3.9 14.9-3.9 19.2-9.4 15.8-20.4 8.3-31.9 25.1-46.3 -14.5-4.1-14.7-5.7-20.2-13.6 -2.4 6.9-11.2 13.7-18.7 19.5 -12.5 10.4-17.3 33.6-27.1 40.4 -0.1 0.1 5.8 1.3 4.5 7.5C327.2 330.7 332.2 333.8 331.6 336.9z" class="e"/><path d="M332.2 333.8c1.3-3.9 3.5-4.8 6.8-2.9 7.2 3.9 16.3-5 19.6-10.8 9.8-16.3 8.2-26.8 20.9-40.2 -9.6-3.7-11.5-6.5-15.3-11.6 -2.4 6.9-9.6 11.9-17.1 17.6 -12.5 10.4-14.4 31.4-24.2 38.3 -0.1 0 3.1 0.7 1.8 6.9C328.9 329 332.7 330.6 332.2 333.8z" class="f"/><path d="M395.7 276.6c0 0 0.1 0 0.1 0S395.7 276.6 395.7 276.6z" fill="#85B82B"/><path d="M339.2 343.3c-4.2 0-8.9-0.6-13.8-1.8 -6.3-2.1-12.6-6.1-12.8-10.3 -0.1-2.4 1.8-4.5 5.6-6.2 4.6-3.2 8.1-10.3 11.9-17.9 4.2-8.4 8.5-17.1 15.1-22.5 8.1-6.1 19.1-14.5 19.3-22.7l0-0.4 0.4 0.1c7.3 1.4 29.9 14.1 31 14.8 0.1 0 0.1 0.1 0.1 0.1l-0.4 0.5 0 0c0 0-0.1 0-0.1 0 -0.7 0-4.8 1.2-15.6 25.1 -0.7 1.6-1.4 3.6-2.3 6 -4.7 13.2-12.7 35.3-38.3 35.3C339.2 343.3 339.2 343.3 339.2 343.3zM365.1 262.2c-0.5 8.3-11.5 16.7-19.5 22.8 -6.4 5.3-10.7 14-14.9 22.3 -3.8 7.6-7.4 14.8-12.2 18.1 -3.6 1.6-5.4 3.5-5.3 5.6 0.2 3.9 6.5 7.8 12.4 9.7 4.8 1.2 9.4 1.8 13.6 1.8h0c25.1 0 33-21.8 37.7-34.9 0.8-2.3 1.6-4.4 2.3-6 9-19.9 13.5-24.5 15.5-25.3C390.4 274 371.9 263.7 365.1 262.2z" class="g"/><path d="M355.7 288.9c-2.4 3.1-5.3 4.9-6.4 4.1 -1.1-0.9-0.1-4.1 2.3-7.2 2.4-3.1 5.3-4.9 6.4-4.1C359.2 282.6 358.1 285.8 355.7 288.9z" class="r"/><path d="M352.5 302.3c-1.3 1.9-3.5 2.7-4.9 1.8 -1.4-1-1.6-3.3-0.3-5.2 1.3-1.9 3.5-2.7 4.9-1.7C353.6 298.1 353.8 300.4 352.5 302.3z" class="r"/><ellipse transform="matrix(0.8978 0.4404 -0.4404 0.8978 169.7314 -118.0993)" cx="339.3" cy="306.6" rx="2.5" ry="3.5" class="r"/><path d="M345.2 297.9c-1.9 3.1-4.3 5.1-5.6 4.4 -1.2-0.7-0.7-3.8 1.1-7s4.3-5.1 5.6-4.4C347.5 291.6 347 294.7 345.2 297.9z" class="r"/><path d="M323.2 286c-2.2 2.8-5 4.3-6.2 3.3 -1.2-1-0.4-4 1.8-6.8 2.2-2.8 5-4.3 6.3-3.3C326.2 280.2 325.4 283.2 323.2 286z" class="r"/><path d="M331.7 280.1c-1 1.9-2.7 2.9-3.8 2.4 -1.1-0.6-1.1-2.6-0.1-4.4 1-1.9 2.7-2.9 3.8-2.4C332.7 276.3 332.7 278.2 331.7 280.1z" class="r"/><path d="M327 292c-1.3 2.3-3.2 3.7-4.2 3.1 -1-0.6-0.8-2.9 0.5-5.2 1.3-2.3 3.2-3.7 4.2-3.1C328.5 287.4 328.3 289.7 327 292z" class="r"/><path d="M314.9 295.3c-0.9 1.6-2.5 2.4-3.4 1.8 -0.9-0.6-0.9-2.3 0-3.9 0.9-1.6 2.5-2.4 3.4-1.8C315.9 292 315.9 293.7 314.9 295.3z" class="r"/><path d="M332.5 347.1c0 0-0.2-8.3 1.6-8.5 1.8-0.2 5.7 0.5 6 4.2C340.5 346.6 332.5 347.1 332.5 347.1z" class="a"/><path d="M332.5 347.1c0 0 0.1-7.5 1.6-8.5 0.5-0.3 4.2 1.4 4.2 4C338.3 345.1 332.5 347.1 332.5 347.1z" class="b"/><path d="M332.2 347.5l0-0.3c0-2 0-8.6 1.9-8.8 0.2 0 0.4 0 0.6 0 2.5 0 5.5 1.2 5.8 4.5 0.1 0.8-0.2 1.4-0.7 2 -1.9 2.2-7.1 2.5-7.3 2.6L332.2 347.5zM334.6 339c-0.2 0-0.3 0-0.5 0 -0.9 0.1-1.4 4-1.3 7.8 1.2-0.1 5-0.6 6.5-2.3 0.4-0.5 0.6-1 0.5-1.6C339.5 339.1 335.1 339 334.6 339z" class="c"/><path d="M309 336.5c0 0 4.1-6.8 6.8-7.7 2-1.3 5.9 7.7 2 7.7C314.4 336.7 309 336.5 309 336.5z" class="a"/><path d="M309 336.5c0 0 3.6-5.5 5.5-6.9 2-1.3 5.2 5.4 1.2 5.3C310.3 335.1 309 336.5 309 336.5z" class="b"/><path d="M314 336.9c-2.6 0-5-0.1-5-0.1l-0.6 0 0.3-0.5c0.2-0.3 4.1-6.9 7-7.8 0.2-0.1 0.4-0.2 0.6-0.2 1.6 0 3.6 3.8 3.6 6.1 0 1.5-0.7 2.3-2 2.3C316.8 336.9 315.5 336.9 314 336.9zM309.6 336.2c0.9 0 2.6 0.1 4.4 0.1 1.5 0 2.8 0 3.8-0.1h0c0.4 0 1.4 0 1.4-1.7 0-2.3-1.9-5.5-2.9-5.5 -0.1 0-0.2 0-0.2 0.1l-0.1 0C313.8 329.8 310.6 334.7 309.6 336.2z" class="c"/><path d="M293.5 309c0 0-7.2 5.5-7 7.7 0.2 1.5 9.3-0.7 10.8-2C298.8 313.4 297 307.9 293.5 309z" class="a"/><path d="M294.4 313.7c1.3-2.2 0.6-4.5-1.1-4.5 -1.4 1.1-6.9 5.6-6.7 7.4 0 0.1 0.1 0.2 0.2 0.3C289.8 316.7 293.3 314.8 294.4 313.7z" class="b"/><path d="M288 317.5L288 317.5c-0.4 0-1.7 0-1.8-0.8 -0.2-2.2 6.4-7.4 7.1-8l0.1-0.1c0.3-0.1 0.7-0.2 1-0.2 1.7 0 2.8 1.4 3.3 2.8 0.6 1.5 0.5 3-0.3 3.7C296.3 316 290.7 317.5 288 317.5zM286.9 316.6c0 0 0.2 0.2 1.1 0.2 2.7 0 8.1-1.5 9.1-2.4 0.5-0.5 0.5-1.7 0.1-2.9 -0.4-1.1-1.4-2.4-2.7-2.4 -0.2 0-0.5 0-0.8 0.1C291 311.4 286.8 315.2 286.9 316.6L286.9 316.6z" class="c"/><path d="M301.7 316.5c0 0-0.1 0.1-0.3 0.3 -1 1-4.1 4.1-3.6 6.9 2.4 0.7 7-1.3 8-2.6C306.7 319.8 305.6 315.4 301.7 316.5z" class="a"/><path d="M301.4 316.8c-1 1-4.1 4.1-3.6 6.9 2.1-0.1 5.7-1.9 6.2-3.5C305.2 317.1 301.6 316.6 301.4 316.8z" class="b"/><path d="M298.9 324.1L298.9 324.1c-0.4 0-0.8 0-1.2-0.1l-0.2-0.1 0-0.2c-0.6-2.9 2.7-6.2 3.7-7.2 0.2-0.2 0.3-0.3 0.3-0.3l0.1-0.1c1.9-0.6 3.6 0.1 4.4 1.7 0.6 1.2 0.6 2.6 0.1 3.3C305.1 322.5 301.5 324.1 298.9 324.1zM298.1 323.4c0.2 0 0.5 0.1 0.8 0.1 2.5 0 5.9-1.6 6.6-2.6 0.3-0.5 0.4-1.6-0.1-2.6 -0.3-0.6-1-1.6-2.5-1.6 -0.3 0-0.7 0-1.1 0.2 -0.1 0-0.1 0.1-0.2 0.2C300.7 317.9 297.8 320.9 298.1 323.4z" class="c"/><path d="M349.4 235.8c0 0-1.3-32.1 10.6-47.1 9.9-9 24.9-15.5 33.2-16.5 7.2 3.6 23.6 16.9 26.9 24.9 1 12.7 2.1 53.6-2 66.7C402.2 264.7 370.9 257.7 349.4 235.8z" class="h"/><path d="M349.4 235.8c0 0-1.3-32.1 10.6-47.1 9.9-9 24.9-15.5 33.2-16.5 7.2 3.6 22.1 19 25.4 27 1 12.7 2 44.7-2.1 57.9C400.6 257.8 371.9 249.6 349.4 235.8z" class="i"/><path d="M352.5 233.4c0 0-2.3-28.1 9.6-43.1 9.9-9 22.4-15.1 30.7-16 7.2 3.6 20.9 17.7 24.2 25.6 1 12.7 0.9 41.5-3.1 54.6C397.9 255.3 374.9 247.2 352.5 233.4z" class="j"/><path d="M415.9 264.3c-14.4 0-44.7-6-66.7-28.3l-0.1-0.1 0-0.1c0-0.3-1.2-32.4 10.7-47.3 10-9 25.1-15.6 33.5-16.6l0.1 0 0.1 0c7 3.5 23.7 16.8 27 25.1l0 0.1c1.1 13.8 2 54-2 66.9l-0.1 0.2 -0.2 0C417.5 264.3 416.7 264.3 415.9 264.3zM349.8 235.7c19 19.2 47.6 28 66.2 28 0.7 0 1.4 0 2 0 3.9-13 2.9-52.6 1.9-66.4 -3.2-7.8-19.5-21.1-26.6-24.7 -8.3 1-23.2 7.5-33 16.4C349 203.2 349.7 233.5 349.8 235.7z" class="k"/><path d="M495.9 220.9c0 0 12.2-19 19.6-20.1 -4.9-9.9-4.7-20.8-4.8-26 -7-5.3-13.3-11-16.3-11.2 -1.8 4.2-6 19.3-9.4 22.1C487.3 192.1 496.4 210.9 495.9 220.9z" class="i"/><path d="M496.6 217.8c0 0 9-16.9 16.4-18 -4.9-9.9-3.3-19-3.4-24.2 -7-5.3-11.4-10.2-14.4-10.4 -1.9 4.2-5.2 17.8-8.6 20.5C488.8 192.1 497.1 207.9 496.6 217.8z" class="l"/><path d="M490.9 185.5c0 0 6.3 13.5 7.7 20.5 2.9-2.9 4.6-8.9 10.4-9.4 -3.6-5.2-2-11.8-1.6-18 -3.6-2-8.6-6.5-9.7-7.5C497 173.9 492.4 184.6 490.9 185.5z" class="i"/><path d="M492.7 185.7c0 0 4.9 10.9 6.3 18 2.9-2.9 2-7 7.8-7.5 -3.6-5.2-1-10.4-0.6-16.6 -3.6-2-7.1-6-8.1-7C497.3 175.4 494.2 184.7 492.7 185.7z" class="j"/><path d="M495.6 188.6c0 0 3.6 6 3.8 7.6 2.3-2 3.2-4.5 3.8-4.4 -1.6-2 0.2-5.9 0.3-8.1 -2.9-2-3.9-3.6-5.1-4.5C498.3 182.1 496.6 187.4 495.6 188.6z" class="i"/><path d="M496.7 188.3c0 0 2.8 4.1 3.1 5.8 2.3-2 1.5-2.7 2-2.6 -1.6-2 0.4-4.9 0.5-7.2 -2.9-2-2.1-3.2-3.3-4.1C498.9 183.1 497.8 187.1 496.7 188.3z" class="l"/><path d="M472.5 177.8c0 0 2.9-19 10.2-27.7 2.4-2.7-23-23.6-38-19.1 2.1 4.2 7.6 22.3 5.2 36.4C455.3 168.6 464.3 169.5 472.5 177.8z" class="i"/><path d="M471.8 175.6c0 0 1.8-16.5 9-25.2 2.4-2.7-21.3-21.2-34.1-18.4 2.1 4.2 6.8 20.2 4.4 34.3C456.5 167.5 463.6 167.3 471.8 175.6z" class="l"/><path d="M454.1 158.6c0 0 12 5 15 9.6 -0.1-7.5 1.4-19 4.9-21.4 -7.7-4.5-13.7-8.8-19.3-9.8C455.5 141.8 455.3 152.7 454.1 158.6z" class="i"/><path d="M455.4 157.7c0 0 9.3 3.5 12.4 8.1 -0.1-7.5 0.8-16.3 4.2-18.7 -7.7-4.5-10.5-7.7-16.1-8.7C456.7 143.2 456.6 151.8 455.4 157.7z" class="s"/><path d="M457 155c0 0 4.2-5 3.1-11.6 3.9 2.4 8 4.2 8 4.2 -2.4 2.6-3.3 2.6-4.4 11.7C462.2 157.3 459.4 154.7 457 155z" class="j"/><path d="M459 154.1c0 0 2.9-2.6 1.8-9.3 3.9 2.4 6 3 6 3 -2.4 2.6-2.9 0.6-3.9 9.7C461.3 155.5 461.4 153.8 459 154.1z" class="l"/><path d="M390.6 132.4c0 0 11.1 18.3 12.4 36.6 3.7 2.5 14.6 10.6 18.1 14.7 2.7-2.9 9.8-8.6 16.1-11.5 1.4-1.1-5.2-43-6-44C425.7 127.1 409.8 122.7 390.6 132.4z" class="i"/><path d="M392.5 133c0 0 10.5 16 11.8 34.4 3.7 2.5 13.3 9.8 16.8 14 2.7-2.9 8.3-7.4 14.6-10.2 1.4-1.1-4.7-40.5-5.5-41.4C424.6 128.6 411.7 123.3 392.5 133z" class="l"/><path d="M403 134.8h21.2c2.7 5.1 7.9 17.3 7.1 31.3 -2.4 0.2-8.5 3.9-10.1 6.2 -2.5-2.6-8.6-7.1-12.7-9.2C409 158.3 409.4 144.1 403 134.8z" class="i"/><path d="M405.7 136.4l17.6-0.2c2.7 5.1 7.3 14.4 6.4 28.4 -2.4 0.2-6.9 3.3-8.6 5.5 -2.5-2.6-7.7-6.5-11.8-8.7C409.9 156.7 412.1 145.8 405.7 136.4z" class="j"/><path d="M413 141.9c0 0 2.5 10.5 0.4 16.7 2.7 0.8 6.3 1.7 8.1 5 0.6-2.1 2.7-4.9 3.8-6.3 0.8-0.9-3.7-12.2-2.8-15.4C419.1 141.9 413 141.9 413 141.9z" class="i"/><path d="M414.2 142.8c0 0 2.6 8.1 0.6 14.4 2.7 0.8 4.5 1.5 6.3 4.8 0.7-2.1 2.1-3.5 3.1-4.9 0.8-0.9-3.7-10.8-2.8-14.1C417.9 142.9 414.2 142.8 414.2 142.8z" class="l"/><path d="M410.5 252c0 0-24.1 4.6-52-20.7 -5.2-4.2 2.8-35.5 6.1-38.1 3.3-3.3 10.9-11.5 28-15.3 2.9 3.4 17.9 20.9 23.9 24.1C414.5 211.2 409.8 237.1 410.5 252z" class="i"/><path d="M408.6 249.8c0 0-20.4 5.5-48.2-19.8 -5.2-4.2 1.9-33.8 5.1-36.4 3.3-3.3 9.8-10.4 27-14.3 2.9 3.4 16.3 20.1 22.4 23.3C412.8 211.8 407.9 234.9 408.6 249.8z" class="l"/><path d="M403.6 244.7c0 0-26.6-1.8-37.5-17.7 0.5-4.5 5.9-29 6.2-32.7 4.9-3.1 15.5-9 16.9-10.5 2.3 4.1 14.3 19 19.4 23.1C406.3 213 401 229.1 403.6 244.7z" class="i"/><path d="M401.6 242.4c0 0-22.9-0.3-33.8-16.2 0.5-4.5 5.7-27.3 6-31 4.8-3.1 13.8-7.5 15.2-9 2.3 4.1 13 17.6 18.1 21.7C404.8 214.1 399 226.9 401.6 242.4z" class="j"/><path d="M395.1 233.9c0 0-15.8-4.4-20.5-15.4 1.3-5 5.4-14.9 4.9-17.4 2.7-1.3 7.8-4.2 8.8-6.9 2.6 5.3 8.2 15 11.6 17.5C397.7 214.6 394.6 224.4 395.1 233.9z" class="i"/><path d="M393.7 231.4c0 0-13-2.3-17.7-13.3 1.3-5.1 5.1-14.1 4.6-16.6 2.7-1.3 6.7-2.7 7.7-5.4 2.6 5.3 6.5 12.8 9.9 15.4C396 214.3 393.3 221.9 393.7 231.4z" class="l"/><path d="M389.2 218.6c0 0 0.4-5.8 1.4-6.8 -1.7-2.7-3.4-7.4-3.4-7.4C384.8 207.8 376.3 213.3 389.2 218.6z" class="i"/><path d="M388.2 216.9c0 0 0.4-4.4 1.5-5.4 -1.7-2.7-2.6-5.5-2.6-5.5C384.7 209.4 379.4 212.8 388.2 216.9z" class="j"/><path d="M426.5 253.3c0 0 29.4 1.8 56.1-17.4 -7.1-28.2-7.1-36.8-10.5-39.2 -3.4-2.4-23.8-11.5-23.8-11.5 -8 3.4-23.6 13-23.6 13C427.8 209.8 428.8 236.6 426.5 253.3z" class="i"/><path d="M428 251c0 0 26 2.7 52.6-16.5 -7.1-28.2-6-33.9-9.5-36.3 -3.4-2.4-22.9-11.3-22.9-11.3 -8 3.4-22.1 12.3-22.1 12.3C429.3 210.7 430.3 234.4 428 251z" class="l"/><path d="M435.2 198.2c0 0 4.6 30.1 1.1 43.2 12.4 1.8 31.5-0.7 37-7.4 -0.3-12.1-2.6-32.3-6.5-34 -3.9-1.6-18.4-9.2-18.4-9.2C443.7 193.6 438.7 197 435.2 198.2z" class="i"/><path d="M436.6 199.3c0 0 4.3 27.9 0.9 40.9 12.4 1.8 28.6-0.8 34.1-7.5 -0.3-12.1-2-30-5.9-31.6 -3.9-1.6-17.1-8.8-17.1-8.8C444 195.1 440 198.1 436.6 199.3z" class="j"/><path d="M440.2 204.4c0 0 5.4-6.6 6.5-7.7 5.5 3 15.3 9.3 17.4 10.5 1.1 9 0 20.9 0 23.9 -5.2 1.5-18.9 1.6-21.8 2.9C443.3 227.5 443.5 207.6 440.2 204.4z" class="i"/><path d="M442 205c0 0 4.1-5.7 5.2-6.8 5.5 3 13.5 8.8 15.6 9.9 1.1 9-0.4 18.7-0.4 21.7 -5.2 1.5-15.6 1-18.6 2.2C444.8 225.6 445.3 208.3 442 205z" class="l"/><path d="M449.3 206.1c0 0 0 8.1-1.5 13.2 2.1 2.3 2.3 3.4 3.3 5.5 2.3-0.8 3.1-3.4 6.2-3.6 0.8-5 0-9.4 0-9.4C453.4 209.6 451.1 207.3 449.3 206.1z" class="i"/><path d="M450.1 207.5c0 0 0.3 6.1-1.1 11.1 2.1 2.3 1.6 2.9 2.5 5.1 2.3-0.8 1.8-3.3 4.9-3.4 0.8-5 0-7.6 0-7.6C452.4 210.4 451.9 208.7 450.1 207.5z" class="j"/><path d="M403.3 259.8c-18.3-3.2-30.1-12.1-39.9-20.3 -0.7 4.6-2.9 14.1-8.1 18.8 5.6 5.1 13.2 10.9 23.5 15.2 5.6 2.8 13.6 5.1 22.7 6.4C404 274.2 403.7 264.7 403.3 259.8z" class="h"/><path d="M402.9 274.9c0.9-5.3 0.7-11.5 0.4-15.1 -18.3-3.2-30.1-12.1-39.9-20.3 -0.6 3.6-2 10.2-5.1 15.1C370 266.4 386.6 272.6 402.9 274.9z" class="i"/><path d="M400.4 271.4c0.9-5.3 1-6.8 0.7-10.4 -18.3-3.2-26.7-8.8-36.4-17.1 -0.6 3.6-1.2 6.3-2.9 9.4C373.4 265.1 384.1 269.1 400.4 271.4z" class="j"/><path d="M401.8 280.2l-0.2 0c-9.3-1.4-17.1-3.6-22.8-6.4 -8.6-3.6-16.1-8.4-23.6-15.2l-0.3-0.2 0.3-0.2c5.2-4.7 7.3-14.6 8-18.6l0.1-0.6 0.4 0.4c9.6 8.1 21.3 17 39.7 20.3l0.2 0 0 0.3c0.4 5.1 0.6 14.6-1.8 20.2L401.8 280.2zM355.8 258.3c7.3 6.6 14.7 11.4 23.2 14.9 5.6 2.8 13.3 5 22.4 6.3 2.2-5.4 2-14.3 1.7-19.4 -18.2-3.2-29.9-12-39.4-20C362.8 245.2 360.6 253.7 355.8 258.3z" class="k"/><path d="M522.3 190.8c0.2 3.8 0.7 8.1 1.3 11.1 2.7-2.3 7-4.6 13.1-5.2C532.5 194.4 527.4 192.4 522.3 190.8z" class="h"/><path d="M523.6 201.9c2.1-1.7 5-3.5 9-4.5 -3.1-2-6.5-3.2-10.1-4.3C522.7 196.2 523.1 199.4 523.6 201.9z" class="i"/><path d="M523.6 201.9c1.1-2.6 1.6-4 5.6-5 -2.4-1-5.6-3.3-6.7-3.8C522.7 196.2 523.1 199.4 523.6 201.9z" class="s"/><path d="M523.3 202.5l-0.1-0.6c-0.5-2.7-1-7.1-1.3-11.2l0-0.5 0.4 0.1c5.6 1.8 10.6 3.8 14.5 5.9l0.9 0.5 -1 0.1c-5.1 0.5-9.5 2.3-13 5.2L523.3 202.5zM522.6 191.2c0.2 3.6 0.7 7.5 1.1 10.1 3.3-2.6 7.3-4.2 11.8-4.8C532 194.6 527.6 192.8 522.6 191.2z" class="k"/><path d="M363.4 239.4c-8.4-7.1-15.2-13.8-23.2-16.1 -3.9-1-7.1-0.8-9.7 0.2 -0.8 3.9-0.8 11.2 6.4 20.9 2 0.6 3.8 1.2 5.1 1.7 2.9 1.2 6.9 6.3 13.4 12.2C360.6 253.6 362.7 244 363.4 239.4z" class="h"/><path d="M340.2 223.3c-3.9-1-7.1-0.8-9.7 0.2 -0.6 2.7-0.7 6.9 1.5 12.4 12.8-4.6 17.1 14.8 26.4 18.7 3.1-5.9 4.4-11.2 5.1-15.1C355 232.3 348.2 225.6 340.2 223.3z" class="i"/><path d="M340.5 224.6c-1.6-0.4-4.3-1.2-7-0.3 -0.6 2.7-1 4.1 1.2 9.6 10.9-2.1 15.8 13.5 22.3 16.7 3.1-5.9 3.3-7.3 3.9-11.2C352.7 232.3 348.6 226.7 340.5 224.6z" class="j"/><path d="M355.3 258.7l-0.2-0.2c-2.4-2.2-4.5-4.3-6.3-6.2 -2.9-2.9-5.2-5.3-7-6 -1.2-0.5-2.9-1-5.1-1.7l-0.1 0 -0.1-0.1c-7-9.5-7.3-16.7-6.4-21.1l0-0.2 0.2-0.1c3-1 6.3-1.1 9.9-0.2 6.9 2 12.9 7.1 19.8 13.1 1.2 1 2.4 2 3.6 3.1l0.1 0.1 0 0.2c-0.8 5.1-3 14.3-8.2 19L355.3 258.7zM337 244.1c2.1 0.6 3.8 1.2 5 1.6 1.9 0.8 4.1 3 7.2 6.1 1.8 1.8 3.8 3.8 6.1 5.9 5-4.7 7.1-14.2 7.7-18.2 -1.2-1-2.3-2-3.4-3 -6.9-5.9-12.8-11-19.5-13 -3.4-0.9-6.5-0.8-9.3 0.1C330.1 227.3 330 234.5 337 244.1z" class="k"/><path d="M330.5 223.5c-8.3 2.9-11 12.6-11 12.6 0.5 3.5 10.3 6.2 17.4 8.3C329.7 234.7 329.7 227.4 330.5 223.5z" class="h"/><path d="M332 235.9c-2.1-5.3-2-9.7-1.5-12.4 -8.3 2.9-11 12.6-11 12.6 0.2 1.9 3.1 3.5 6.8 4.9C327.6 238.7 329.2 236.9 332 235.9z" class="i"/><path d="M329.8 234.9c-2-5.3-1.9-5.8-1.4-8.4 -4.8 3-6.6 9.4-6.6 9.4 1 1.4 3.9 2.7 4.5 2.7C327.6 236.3 328.2 235.6 329.8 234.9z" class="j"/><path d="M337.7 245l-2.4-0.7c-7.3-2.2-15.6-4.6-16.1-8.1l0-0.1 0-0.1c0-0.1 2.8-9.9 11.2-12.8l0.5-0.2 -0.1 0.6c-0.7 3.5-0.9 10.8 6.3 20.6L337.7 245zM319.8 236.1c0.5 3 9.2 5.6 15.6 7.5l0.6 0.2c-6.2-8.7-6.7-15.5-6-19.8C322.8 226.9 320.1 235.3 319.8 236.1z" class="k"/><path d="M445.5 257.6c-0.6 0.2-1.2 0.4-1.9 0.6 -16.3 3.4-29.4 3.6-40.3 1.6 0.4 4.9 0.7 14.4-1.8 20 16.8 2.5 37.5 2 55.1-3.2C453.5 263.8 448.8 259.2 445.5 257.6z" class="h"/><path d="M455.4 272.2c-3-8.6-7.1-13.2-9.9-14.6 -0.6 0.2-1.2 0.4-1.9 0.6 -16.3 3.4-29.4 3.6-40.3 1.6 0.3 3.6 0.5 9.8-0.4 15.1C407.1 277.7 439.1 279.1 455.4 272.2z" class="i"/><path d="M451.2 270.1c-3-8.6-4.6-10.4-8.4-9.6 -16.3 3.4-25.9 3.2-36.7 1.3 0.3 3.6 0.9 6.4 0 11.7C423.6 275.2 435 275.1 451.2 270.1z" class="j"/><path d="M421.7 281.6c0 0 0 0 0 0 -6.9 0-13.7-0.5-20.2-1.4l-0.4-0.1 0.2-0.4c2.4-5.5 2.1-14.8 1.7-19.9l0-0.4 0.4 0.1c4.7 0.8 9.6 1.2 14.8 1.2 7.8 0 16.4-1 25.4-2.9 0.5-0.1 1-0.3 1.5-0.5l0.4-0.1 0.1 0.1c3.4 1.7 8.2 6.5 11.3 19.2l0.1 0.3 -0.3 0.1C446.4 280 434.3 281.6 421.7 281.6zM402 279.6c6.3 0.9 13 1.4 19.7 1.4 12.4 0 24.3-1.6 34.5-4.6 -3-12.2-7.5-16.8-10.8-18.5l-0.2 0.1c-0.5 0.2-1 0.3-1.6 0.5 -9.1 1.9-17.7 2.9-25.6 2.9 -5 0-9.9-0.4-14.5-1.2C404 265.3 404.2 274.1 402 279.6z" class="k"/><path d="M536.7 196.7c-6.2 0.6-10.4 3-13.1 5.2 0 0.1 0 0.2 0 0.2 -3.8 6.9-8.8 13.3-14.6 19.1 5.2-0.3 14.3 0.1 24 5.6 7.3-8.2 12.2-14.6 13.7-16.6C548.4 205.2 543.7 200.5 536.7 196.7z" class="h"/><path d="M541 207.3c2-5.4-3.9-9.1-7.9-10 -4.3 1-7.4 2.8-9.6 4.6 0 0.1 0 0.2 0 0.2 -3.8 6.9-8.8 13.3-14.6 19.1 4.3-0.3 11.3 0 19 3.2C531.4 226.4 538.4 214.6 541 207.3z" class="i"/><path d="M538.5 207.9c2-5.4-2.8-9.2-5.5-8.6 -4.3 1-7.8 3.2-7.7 3.3 -3.8 6.9-6.4 11.1-12.2 16.9 4.3-0.3 7.2-1.3 15 1.9C534.6 217.1 535.8 215.1 538.5 207.9z" class="j"/><path d="M533 227.3l-0.2-0.1c-8.3-4.7-16.1-5.7-21.3-5.7 -0.9 0-1.7 0-2.5 0.1l-0.9 0.1 0.6-0.6c6-6 10.9-12.4 14.5-18.9l0-0.3 0.1-0.1c3.6-3 8.1-4.8 13.3-5.3l0.1 0 0.1 0.1c8.2 4.5 11.7 9.3 10.1 14l-0.1 0.2c-1.6 2.1-6.4 8.4-13.6 16.5L533 227.3zM511.5 220.8c5.2 0 13.1 1 21.4 5.6 7.1-7.9 11.9-14.2 13.4-16.3l0 0c1.8-5.5-4.2-10.2-9.7-13.1 -5 0.5-9.3 2.2-12.7 5l0 0.2 -0.1 0.1c-3.6 6.4-8.3 12.7-14.1 18.6C510.4 220.8 510.9 220.8 511.5 220.8z" class="k"/><path d="M479.9 242.9c-11.1 6.3-22.9 11.2-34.4 14.7 3.3 1.7 8 6.3 11.1 19 0.5-0.2 1-0.3 1.5-0.5 15-2.2 29.7-10 42.6-19.5C493.4 245.3 484.5 243.2 479.9 242.9z" class="h"/><path d="M479.9 242.9c-11.1 6.3-22.9 11.2-34.4 14.7 2.9 1.4 6.9 5.2 9.9 14.6 15.1-3.5 30.5-9.6 42.4-19.5C491.2 244.8 483.9 243.1 479.9 242.9z" class="i"/><path d="M479.9 245.2c-11.1 6.3-17.8 9.4-29.3 12.8 2.9 1.4 3.5 3.5 7.1 10.6 15.1-3.5 24.3-6.4 36.3-16.3C487.3 244.4 483.9 245.4 479.9 245.2z" class="j"/><path d="M456.4 277l-0.1-0.3c-3.1-12.6-7.7-17.2-11-18.8l-0.7-0.4 0.8-0.2c11.8-3.6 23.7-8.7 34.3-14.6l0.1 0 0.1 0c4.7 0.3 13.7 2.4 21.2 13.9l0.2 0.3 -0.2 0.2c-15 11-29.3 17.6-42.7 19.5 -0.3 0.1-0.7 0.2-1.1 0.3L456.4 277zM446.3 257.7c3.3 2 7.6 6.8 10.5 18.5l0.1 0c0.4-0.1 0.8-0.2 1.2-0.3 13.2-1.9 27.4-8.4 42.2-19.2 -7.2-10.9-15.8-13.1-20.4-13.3C469.5 249.1 457.9 254.1 446.3 257.7z" class="k"/><path d="M509 221.2c-8.3 8.4-18.4 15.6-29.1 21.7 4.6 0.3 13.6 2.4 20.9 13.8 12.9-9.5 24-20.7 32.2-29.8C523.3 221.4 514.1 220.9 509 221.2z" class="h"/><path d="M528.9 224.8c-8.1-3.6-15.5-3.9-19.9-3.6 -8.3 8.4-18.4 15.6-29.1 21.7 4 0.2 11.3 1.9 18 9.8C510.4 246.2 521.7 236.6 528.9 224.8z" class="i"/><path d="M522.5 227.6c-8.1-3.6-9.1-2.7-13.5-2.5 -8.3 8.4-11.7 10.6-22.5 16.6 4 0.2 7.2 2.1 11.9 6.8C510.9 242 514.1 237.4 522.5 227.6z" class="j"/><path d="M500.7 257.1l-0.2-0.3c-7.3-11.2-16.1-13.3-20.6-13.6l-1.1-0.1 1-0.5c11.3-6.4 21.1-13.7 29-21.6l0.1-0.1 0.1 0c0.8-0.1 1.7-0.1 2.6-0.1 5.2 0 13.2 1 21.6 5.8l0.4 0.2 -0.3 0.3c-10.6 11.9-21.5 21.9-32.2 29.8L500.7 257.1zM480.9 242.7c4.9 0.5 13 3.1 19.9 13.5 10.5-7.8 21.2-17.6 31.6-29.2 -8.1-4.5-15.8-5.5-20.9-5.5 -0.8 0-1.6 0-2.4 0.1C501.4 229.3 491.9 236.4 480.9 242.7z" class="k"/><path d="M338.7 239.4c-5.2-2.1-8.4 0.5-10 2.5 4.8 1.6 10.2 3 13.2 4.2 1.5 0.6 3.4 2.3 5.7 4.6C346.1 246.5 343.7 241.4 338.7 239.4z" class="m"/><path d="M347 250.1c0.2 0.2 0.4 0.4 0.6 0.6 -1.5-4.2-3.9-9.3-8.9-11.3 -3.9-1.6-6.7-0.5-8.5 1C336.9 241.6 343.7 243.7 347 250.1z" class="n"/><path d="M348.4 251.9l-1-1c-2.4-2.4-4.1-4-5.6-4.6 -1.6-0.6-4-1.4-6.6-2.1 -2.2-0.6-4.5-1.3-6.6-2.1l-0.4-0.1 0.3-0.4c1.2-1.5 3.3-3.3 6.5-3.3 1.2 0 2.5 0.3 3.8 0.8 5.3 2.1 7.7 7.5 9.1 11.5L348.4 251.9zM329.3 241.7c2 0.7 4.1 1.3 6.2 1.9 2.6 0.8 5 1.5 6.6 2.1 1.3 0.5 2.8 1.8 4.7 3.7 -1.4-3.6-3.8-7.9-8.2-9.7 -1.2-0.5-2.4-0.7-3.6-0.7C332.3 239 330.4 240.4 329.3 241.7z" class="o"/><path d="M241.5 248.4c0 0 9.1-8.2 24.9-3L241.5 248.4z" class="d"/><path d="M241.5 248.4c0 0 10.8-5.1 24.9-3L241.5 248.4z" class="f"/><path d="M241.1 248.7c0 0 4.5-4.2 12.4-5.1 7.7-1 13.6 2.2 13.6 2.2C251.7 240.6 241.2 248.6 241.1 248.7z" class="g"/><path d="M317.5 344.7c0 0 4.4-11.8 8.6-7.7C330.4 340.9 328.6 345.3 317.5 344.7z" class="a"/><path d="M317.5 344.7c0 0 3.8-11 7.4-6.4C327.3 341.4 322.4 343.3 317.5 344.7z" class="b"/><path d="M319.6 345.1c-0.7 0-1.4 0-2.1-0.1l-0.4 0 0.2-0.4c0.1-0.4 3.3-8.8 7.1-8.8 0.7 0 1.4 0.3 2.1 0.9 1.9 1.8 2.6 3.6 2 5.2C327.5 343.9 324.4 345.1 319.6 345.1zM318 344.4c5.4 0.3 9-0.8 9.8-2.8 0.5-1.2-0.2-2.9-1.8-4.4 -0.5-0.5-1.1-0.7-1.6-0.7C321.4 336.4 318.7 342.7 318 344.4z" class="c"/><path d="M197.6 267.7c0 0 0.2-4.6 20.9-1.3 5.5 0.3 19.6-0.6 45.5-12.6 0 0-28.6 7.3-39.4 5.9C197.7 258.5 197.6 267.7 197.6 267.7z" class="e"/><path d="M197.6 267.7c0 0 0.2-4.6 20.9-1.3 5.5 0.3 19.6-0.6 45.5-12.6 0 0-28.9 9.4-39.8 8.1C197.4 260.7 197.6 267.7 197.6 267.7z" class="d"/><path d="M263.9 253.5c-0.1 0-8.2 3.6-9 3.9 -0.1 0.1-0.1 0.1 0 0 -18.2 7.4-29.3 8.7-34.6 8.7 -0.6 0-1.2 0-1.7 0 -4.9-0.8-9-1.2-12.4-1.2 -2.9 0-4.7 0.1-6.2 0.7 -2.8 1-2.4 2.3-2.4 2.3 0 0 0.5-2.3 8.6-2.3 3.3 0 7.4 0.4 12.3 1.2 0.6 0 1.1 0 1.7 0 6.2 0 20.1-1.6 43.9-12.6L263.9 253.5z" class="g"/><path d="M263.9 254.1c-1.8-0.5-2.3-2.3-2.3-2.3 0.1 0.1 1.9 2.4 4.9 1.6C266.5 253.4 264.3 254.2 263.9 254.1z" class="g"/><path d="M257.5 272.1c-1.2 0.1-2.3-0.4-2.3-1 0-0.6 0.9-1.2 2.2-1.2 1.2-0.1 2.3 0.4 2.3 1C259.7 271.5 258.7 272.1 257.5 272.1z" fill="#FCC0DB"/></svg>