<svg xmlns="http://www.w3.org/2000/svg" viewBox="0 0 768 430"><style>.a{fill:#FDCE81;}.b{fill:#B8302D;}</style><path d="M618.5 358c-16.7-5.2-35.7-5.1-51.7-11.9 -15.6-6.6-31.4-12.9-48-16.5 -41.5-8.8-76.7 7.6-116.8 12.9 -38.9 5.1-77.2 0.2-116-2.4 -36.9-2.4-72.8 1-109.3 5.7 -14.3 1.8-55.1 21.5-24.9 34.9 25.2 11.2 49.9-1.4 74.6 2.3 39.1 5.9 78 8.1 117.1 1.2 39.7-7.1 82.8-3.9 123.2-6.3 -3-0.3-6-0.1-9 0.6 10.2-6.5 41.7 2.1 53.1 3.3 21.1 2.2 42.1 4.3 63.3 4.9 16.6 0.5 35.3 0.3 50.3-7.6 16.2-8.6 1.8-18.8-9.2-22.3C615.3 357 620.8 358.7 618.5 358 610.4 355.5 622.8 359.4 618.5 358z" fill="#B6C773"/><path d="M277.6 169.5c-3.4 0-3.4-8 0-8C281.1 161.5 281.1 169.5 277.6 169.5zM277.6 164c-0.3 1-0.3 2 0 2.9C277.6 166 277.6 165 277.6 164 277.3 165 277.8 164.4 277.6 164z" class="a"/><path d="M277.6 162.5c-3.4 0-3.4-8 0-8C281.1 154.5 281.1 162.5 277.6 162.5zM277.6 157c-0.3 1-0.3 2 0 2.9C277.6 159 277.6 158 277.6 157 277.3 158 277.8 157.3 277.6 157z" class="a"/><path d="M277.6 155.5c-3.4 0-3.4-8 0-8C281.1 147.5 281.1 155.5 277.6 155.5zM277.6 150c-0.3 1-0.3 2 0 2.9C277.6 152 277.6 151 277.6 150 277.3 151 277.8 150.3 277.6 150z" class="a"/><path d="M277.6 148.5c-3.4 0-3.4-8 0-8C281.1 140.4 281.1 148.5 277.6 148.5zM277.6 143c-0.3 1-0.3 2 0 2.9C277.6 144.9 277.6 144 277.6 143 277.3 144 277.8 143.3 277.6 143z" class="a"/><path d="M277.6 141.4c-3.4 0-3.4-8 0-8C281.1 133.4 281.1 141.4 277.6 141.4zM277.6 135.9c-0.3 1-0.3 2 0 2.9C277.6 137.9 277.6 136.9 277.6 135.9 277.3 136.9 277.8 136.3 277.6 135.9z" class="a"/><path d="M277.6 134.4c-3.4 0-3.4-8 0-8C281.1 126.4 281.1 134.4 277.6 134.4zM277.6 128.9c-0.3 1-0.3 2 0 2.9C277.6 130.9 277.6 129.9 277.6 128.9 277.3 129.9 277.8 129.2 277.6 128.9z" class="a"/><path d="M277.6 127.4c-3.4 0-3.4-8 0-8C281.1 119.4 281.1 127.4 277.6 127.4zM277.6 121.9c-0.3 1-0.3 2 0 2.9C277.6 123.9 277.6 122.9 277.6 121.9 277.3 122.9 277.8 122.2 277.6 121.9z" class="a"/><path d="M277.6 120.4c-3.4 0-3.4-8 0-8C281.1 112.3 281.1 120.4 277.6 120.4zM277.6 114.9c-0.3 1-0.3 2 0 2.9C277.6 116.8 277.6 115.9 277.6 114.9 277.3 115.9 277.8 115.2 277.6 114.9z" class="a"/><path d="M277.6 113.3c-3.4 0-3.4-8 0-8C281.1 105.3 281.1 113.3 277.6 113.3zM277.6 107.8c-0.3 1-0.3 2 0 2.9C277.6 109.8 277.6 108.8 277.6 107.8 277.3 108.8 277.8 108.2 277.6 107.8z" class="a"/><path d="M277.6 232.4c-3.4 0-3.4-8 0-8C281.1 224.4 281.1 232.4 277.6 232.4zM277.6 226.9c-0.3 1-0.3 2 0 2.9C277.6 228.9 277.6 227.9 277.6 226.9 277.3 227.9 277.8 227.3 277.6 226.9z" class="a"/><path d="M277.6 225.4c-3.4 0-3.4-8 0-8C281.1 217.4 281.1 225.4 277.6 225.4zM277.6 219.9c-0.3 1-0.3 2 0 2.9C277.6 221.9 277.6 220.9 277.6 219.9 277.3 220.9 277.8 220.2 277.6 219.9z" class="a"/><path d="M277.6 218.4c-3.4 0-3.4-8 0-8C281.1 210.4 281.1 218.4 277.6 218.4zM277.6 212.9c-0.3 1-0.3 2 0 2.9C277.6 214.9 277.6 213.9 277.6 212.9 277.3 213.9 277.8 213.2 277.6 212.9z" class="a"/><path d="M277.6 211.4c-3.4 0-3.4-8 0-8C281.1 203.3 281.1 211.4 277.6 211.4zM277.6 205.9c-0.3 1-0.3 2 0 2.9C277.6 207.8 277.6 206.9 277.6 205.9 277.3 206.9 277.8 206.2 277.6 205.9z" class="a"/><path d="M277.6 204.3c-3.4 0-3.4-8 0-8C281.1 196.3 281.1 204.3 277.6 204.3zM277.6 198.9c-0.3 1-0.3 2 0 2.9C277.6 200.8 277.6 199.8 277.6 198.9 277.3 199.8 277.8 199.2 277.6 198.9z" class="a"/><path d="M277.6 197.3c-3.4 0-3.4-8 0-8C281.1 189.3 281.1 197.3 277.6 197.3zM277.6 191.8c-0.3 1-0.3 2 0 2.9C277.6 193.8 277.6 192.8 277.6 191.8 277.3 192.8 277.8 192.1 277.6 191.8z" class="a"/><path d="M277.6 190.3c-3.4 0-3.4-8 0-8C281.1 182.3 281.1 190.3 277.6 190.3zM277.6 184.8c-0.3 1-0.3 2 0 2.9C277.6 186.8 277.6 185.8 277.6 184.8 277.3 185.8 277.8 185.1 277.6 184.8z" class="a"/><path d="M277.6 183.3c-3.4 0-3.4-8 0-8C281.1 175.2 281.1 183.3 277.6 183.3zM277.6 177.8c-0.3 1-0.3 2 0 2.9C277.6 179.7 277.6 178.8 277.6 177.8 277.3 178.8 277.8 178.1 277.6 177.8z" class="a"/><path d="M277.6 176.2c-3.4 0-3.4-8 0-8C281.1 168.2 281.1 176.2 277.6 176.2zM277.6 170.8c-0.3 1-0.3 2 0 2.9C277.6 172.7 277.6 171.7 277.6 170.8 277.3 171.7 277.8 171.1 277.6 170.8z" class="a"/><path d="M277.6 288.3c-3.4 0-3.4-8 0-8C281.1 280.3 281.1 288.3 277.6 288.3zM277.6 282.8c-0.3 1-0.3 2 0 2.9C277.6 284.7 277.6 283.8 277.6 282.8 277.3 283.8 277.8 283.1 277.6 282.8z" class="a"/><path d="M277.6 281.2c-3.4 0-3.4-8 0-8C281.1 273.2 281.1 281.2 277.6 281.2zM277.6 275.8c-0.3 1-0.3 2 0 2.9C277.6 277.7 277.6 276.7 277.6 275.8 277.3 276.7 277.8 276.1 277.6 275.8z" class="a"/><path d="M277.6 274.2c-3.4 0-3.4-8 0-8C281.1 266.2 281.1 274.2 277.6 274.2zM277.6 268.7c-0.3 1-0.3 2 0 2.9C277.6 270.7 277.6 269.7 277.6 268.7 277.3 269.7 277.8 269.1 277.6 268.7z" class="a"/><path d="M277.6 267.2c-3.4 0-3.4-8 0-8C281.1 259.2 281.1 267.2 277.6 267.2zM277.6 261.7c-0.3 1-0.3 2 0 2.9C277.6 263.7 277.6 262.7 277.6 261.7 277.3 262.7 277.8 262 277.6 261.7z" class="a"/><path d="M277.6 260.2c-3.4 0-3.4-8 0-8C281.1 252.2 281.1 260.2 277.6 260.2zM277.6 254.7c-0.3 1-0.3 2 0 2.9C277.6 256.7 277.6 255.7 277.6 254.7 277.3 255.7 277.8 255 277.6 254.7z" class="a"/><path d="M277.6 253.1c-3.4 0-3.4-8 0-8C281.1 245.1 281.1 253.1 277.6 253.1zM277.6 247.7c-0.3 1-0.3 2 0 2.9C277.6 249.6 277.6 248.6 277.6 247.7 277.3 248.6 277.8 248 277.6 247.7z" class="a"/><path d="M277.6 246.1c-3.4 0-3.4-8 0-8C281.1 238.1 281.1 246.1 277.6 246.1zM277.6 240.6c-0.3 1-0.3 2 0 2.9C277.6 242.6 277.6 241.6 277.6 240.6 277.3 241.6 277.8 241 277.6 240.6z" class="a"/><path d="M277.6 239.1c-3.4 0-3.4-8 0-8C281.1 231.1 281.1 239.1 277.6 239.1zM277.6 233.6c-0.3 1-0.3 2 0 2.9C277.6 235.6 277.6 234.6 277.6 233.6 277.3 234.6 277.8 233.9 277.6 233.6z" class="a"/><path d="M276.5 101.3c2.8-0.5 4.2 3.6 2.4 5.2C275.8 109.3 276.5 102.2 276.5 101.3 277 101.2 276.5 102.3 276.5 101.3z" class="a"/><path d="M341.3 169.5c-3.4 0-3.4-8 0-8C344.8 161.5 344.8 169.5 341.3 169.5zM341.3 164c-0.3 1-0.3 2 0 2.9C341.3 166 341.3 165 341.3 164 341 165 341.4 164.4 341.3 164z" class="a"/><path d="M341.3 162.5c-3.4 0-3.4-8 0-8C344.8 154.5 344.8 162.5 341.3 162.5zM341.3 157c-0.3 1-0.3 2 0 2.9C341.3 159 341.3 158 341.3 157 341 158 341.4 157.3 341.3 157z" class="a"/><path d="M341.3 155.5c-3.4 0-3.4-8 0-8C344.8 147.5 344.8 155.5 341.3 155.5zM341.3 150c-0.3 1-0.3 2 0 2.9C341.3 152 341.3 151 341.3 150 341 151 341.4 150.3 341.3 150z" class="a"/><path d="M341.3 148.5c-3.4 0-3.4-8 0-8C344.8 140.4 344.8 148.5 341.3 148.5zM341.3 143c-0.3 1-0.3 2 0 2.9C341.3 144.9 341.3 144 341.3 143 341 144 341.4 143.3 341.3 143z" class="a"/><path d="M341.3 141.4c-3.4 0-3.4-8 0-8C344.8 133.4 344.8 141.4 341.3 141.4zM341.3 135.9c-0.3 1-0.3 2 0 2.9C341.3 137.9 341.3 136.9 341.3 135.9 341 136.9 341.4 136.3 341.3 135.9z" class="a"/><path d="M341.3 134.4c-3.4 0-3.4-8 0-8C344.8 126.4 344.8 134.4 341.3 134.4zM341.3 128.9c-0.3 1-0.3 2 0 2.9C341.3 130.9 341.3 129.9 341.3 128.9 341 129.9 341.4 129.2 341.3 128.9z" class="a"/><path d="M341.3 127.4c-3.4 0-3.4-8 0-8C344.8 119.4 344.8 127.4 341.3 127.4zM341.3 121.9c-0.3 1-0.3 2 0 2.9C341.3 123.9 341.3 122.9 341.3 121.9 341 122.9 341.4 122.2 341.3 121.9z" class="a"/><path d="M341.3 120.4c-3.4 0-3.4-8 0-8C344.8 112.3 344.8 120.4 341.3 120.4zM341.3 114.9c-0.3 1-0.3 2 0 2.9C341.3 116.8 341.3 115.9 341.3 114.9 341 115.9 341.4 115.2 341.3 114.9z" class="a"/><path d="M341.3 113.3c-3.4 0-3.4-8 0-8C344.8 105.3 344.8 113.3 341.3 113.3zM341.3 107.8c-0.3 1-0.3 2 0 2.9C341.3 109.8 341.3 108.8 341.3 107.8 341 108.8 341.4 108.2 341.3 107.8z" class="a"/><path d="M341.3 232.4c-3.4 0-3.4-8 0-8C344.8 224.4 344.8 232.4 341.3 232.4zM341.3 226.9c-0.3 1-0.3 2 0 2.9C341.3 228.9 341.3 227.9 341.3 226.9 341 227.9 341.4 227.3 341.3 226.9z" class="a"/><path d="M341.3 225.4c-3.4 0-3.4-8 0-8C344.8 217.4 344.8 225.4 341.3 225.4zM341.3 219.9c-0.3 1-0.3 2 0 2.9C341.3 221.9 341.3 220.9 341.3 219.9 341 220.9 341.4 220.2 341.3 219.9z" class="a"/><path d="M341.3 218.4c-3.4 0-3.4-8 0-8C344.8 210.4 344.8 218.4 341.3 218.4zM341.3 212.9c-0.3 1-0.3 2 0 2.9C341.3 214.9 341.3 213.9 341.3 212.9 341 213.9 341.4 213.2 341.3 212.9z" class="a"/><path d="M341.3 211.4c-3.4 0-3.4-8 0-8C344.8 203.3 344.8 211.4 341.3 211.4zM341.3 205.9c-0.3 1-0.3 2 0 2.9C341.3 207.8 341.3 206.9 341.3 205.9 341 206.9 341.4 206.2 341.3 205.9z" class="a"/><path d="M341.3 204.3c-3.4 0-3.4-8 0-8C344.8 196.3 344.8 204.3 341.3 204.3zM341.3 198.9c-0.3 1-0.3 2 0 2.9C341.3 200.8 341.3 199.8 341.3 198.9 341 199.8 341.4 199.2 341.3 198.9z" class="a"/><path d="M341.3 197.3c-3.4 0-3.4-8 0-8C344.8 189.3 344.8 197.3 341.3 197.3zM341.3 191.8c-0.3 1-0.3 2 0 2.9C341.3 193.8 341.3 192.8 341.3 191.8 341 192.8 341.4 192.1 341.3 191.8z" class="a"/><path d="M341.3 190.3c-3.4 0-3.4-8 0-8C344.8 182.3 344.8 190.3 341.3 190.3zM341.3 184.8c-0.3 1-0.3 2 0 2.9C341.3 186.8 341.3 185.8 341.3 184.8 341 185.8 341.4 185.1 341.3 184.8z" class="a"/><path d="M341.3 183.3c-3.4 0-3.4-8 0-8C344.8 175.2 344.8 183.3 341.3 183.3zM341.3 177.8c-0.3 1-0.3 2 0 2.9C341.3 179.7 341.3 178.8 341.3 177.8 341 178.8 341.4 178.1 341.3 177.8z" class="a"/><path d="M341.3 176.2c-3.4 0-3.4-8 0-8C344.8 168.2 344.8 176.2 341.3 176.2zM341.3 170.8c-0.3 1-0.3 2 0 2.9C341.3 172.7 341.3 171.7 341.3 170.8 341 171.7 341.4 171.1 341.3 170.8z" class="a"/><path d="M341.3 288.3c-3.4 0-3.4-8 0-8C344.8 280.3 344.8 288.3 341.3 288.3zM341.3 282.8c-0.3 1-0.3 2 0 2.9C341.3 284.7 341.3 283.8 341.3 282.8 341 283.8 341.4 283.1 341.3 282.8z" class="a"/><path d="M341.3 281.2c-3.4 0-3.4-8 0-8C344.8 273.2 344.8 281.2 341.3 281.2zM341.3 275.8c-0.3 1-0.3 2 0 2.9C341.3 277.7 341.3 276.7 341.3 275.8 341 276.7 341.4 276.1 341.3 275.8z" class="a"/><path d="M341.3 274.2c-3.4 0-3.4-8 0-8C344.8 266.2 344.8 274.2 341.3 274.2zM341.3 268.7c-0.3 1-0.3 2 0 2.9C341.3 270.7 341.3 269.7 341.3 268.7 341 269.7 341.4 269.1 341.3 268.7z" class="a"/><path d="M341.3 267.2c-3.4 0-3.4-8 0-8C344.8 259.2 344.8 267.2 341.3 267.2zM341.3 261.7c-0.3 1-0.3 2 0 2.9C341.3 263.7 341.3 262.7 341.3 261.7 341 262.7 341.4 262 341.3 261.7z" class="a"/><path d="M341.3 260.2c-3.4 0-3.4-8 0-8C344.8 252.2 344.8 260.2 341.3 260.2zM341.3 254.7c-0.3 1-0.3 2 0 2.9C341.3 256.7 341.3 255.7 341.3 254.7 341 255.7 341.4 255 341.3 254.7z" class="a"/><path d="M341.3 253.1c-3.4 0-3.4-8 0-8C344.8 245.1 344.8 253.1 341.3 253.1zM341.3 247.7c-0.3 1-0.3 2 0 2.9C341.3 249.6 341.3 248.6 341.3 247.7 341 248.6 341.4 248 341.3 247.7z" class="a"/><path d="M341.3 246.1c-3.4 0-3.4-8 0-8C344.8 238.1 344.8 246.1 341.3 246.1zM341.3 240.6c-0.3 1-0.3 2 0 2.9C341.3 242.6 341.3 241.6 341.3 240.6 341 241.6 341.4 241 341.3 240.6z" class="a"/><path d="M341.3 239.1c-3.4 0-3.4-8 0-8C344.8 231.1 344.8 239.1 341.3 239.1zM341.3 233.6c-0.3 1-0.3 2 0 2.9C341.3 235.6 341.3 234.6 341.3 233.6 341 234.6 341.4 233.9 341.3 233.6z" class="a"/><path d="M340.1 101.3c2.8-0.5 4.2 3.6 2.4 5.2C339.5 109.3 340.1 102.2 340.1 101.3 340.6 101.2 340.1 102.3 340.1 101.3z" class="a"/><path d="M346.2 296.5c-23.9 0-48.7 2.3-72.5-0.5 -4.1-0.5-3-8.2-0.4-8.2 8.5 0 17 0 25.4 0 12.2 0 24.4 0 36.6 0 3.7 0 7.4 0 11.2 0C349.9 288.3 348.5 296.5 346.2 296.5z" class="b"/><path d="M274.7 296.5c-0.3 3.3 6.6 3.3 6.4 0C279 296.5 276.9 296.5 274.7 296.5z" class="a"/><path d="M338.4 296.5c-0.2 3.3 6.5 3.3 6.4 0C342.7 296.5 340.5 296.5 338.4 296.5z" class="a"/><path d="M402.5 169.5c-3.4 0-3.4-8 0-8C405.9 161.5 405.9 169.5 402.5 169.5zM402.5 164c-0.3 1-0.3 2 0 2.9C402.5 166 402.5 165 402.5 164 402.2 165 402.6 164.4 402.5 164z" class="a"/><path d="M402.5 162.5c-3.4 0-3.4-8 0-8C405.9 154.5 405.9 162.5 402.5 162.5zM402.5 157c-0.3 1-0.3 2 0 2.9C402.5 159 402.5 158 402.5 157 402.2 158 402.6 157.3 402.5 157z" class="a"/><path d="M402.5 155.5c-3.4 0-3.4-8 0-8C405.9 147.5 405.9 155.5 402.5 155.5zM402.5 150c-0.3 1-0.3 2 0 2.9C402.5 152 402.5 151 402.5 150 402.2 151 402.6 150.3 402.5 150z" class="a"/><path d="M402.5 148.5c-3.4 0-3.4-8 0-8C405.9 140.4 405.9 148.5 402.5 148.5zM402.5 143c-0.3 1-0.3 2 0 2.9C402.5 144.9 402.5 144 402.5 143 402.2 144 402.6 143.3 402.5 143z" class="a"/><path d="M402.5 141.4c-3.4 0-3.4-8 0-8C405.9 133.4 405.9 141.4 402.5 141.4zM402.5 135.9c-0.3 1-0.3 2 0 2.9C402.5 137.9 402.5 136.9 402.5 135.9 402.2 136.9 402.6 136.3 402.5 135.9z" class="a"/><path d="M402.5 134.4c-3.4 0-3.4-8 0-8C405.9 126.4 405.9 134.4 402.5 134.4zM402.5 128.9c-0.3 1-0.3 2 0 2.9C402.5 130.9 402.5 129.9 402.5 128.9 402.2 129.9 402.6 129.2 402.5 128.9z" class="a"/><path d="M402.5 127.4c-3.4 0-3.4-8 0-8C405.9 119.4 405.9 127.4 402.5 127.4zM402.5 121.9c-0.3 1-0.3 2 0 2.9C402.5 123.9 402.5 122.9 402.5 121.9 402.2 122.9 402.6 122.2 402.5 121.9z" class="a"/><path d="M402.5 120.4c-3.4 0-3.4-8 0-8C405.9 112.3 405.9 120.4 402.5 120.4zM402.5 114.9c-0.3 1-0.3 2 0 2.9C402.5 116.8 402.5 115.9 402.5 114.9 402.2 115.9 402.6 115.2 402.5 114.9z" class="a"/><path d="M402.5 113.3c-3.4 0-3.4-8 0-8C405.9 105.3 405.9 113.3 402.5 113.3zM402.5 107.8c-0.3 1-0.3 2 0 2.9C402.5 109.8 402.5 108.8 402.5 107.8 402.2 108.8 402.6 108.2 402.5 107.8z" class="a"/><path d="M402.5 232.4c-3.4 0-3.4-8 0-8C405.9 224.4 405.9 232.4 402.5 232.4zM402.5 226.9c-0.3 1-0.3 2 0 2.9C402.5 228.9 402.5 227.9 402.5 226.9 402.2 227.9 402.6 227.3 402.5 226.9z" class="a"/><path d="M402.5 225.4c-3.4 0-3.4-8 0-8C405.9 217.4 405.9 225.4 402.5 225.4zM402.5 219.9c-0.3 1-0.3 2 0 2.9C402.5 221.9 402.5 220.9 402.5 219.9 402.2 220.9 402.6 220.2 402.5 219.9z" class="a"/><path d="M402.5 218.4c-3.4 0-3.4-8 0-8C405.9 210.4 405.9 218.4 402.5 218.4zM402.5 212.9c-0.3 1-0.3 2 0 2.9C402.5 214.9 402.5 213.9 402.5 212.9 402.2 213.9 402.6 213.2 402.5 212.9z" class="a"/><path d="M402.5 211.4c-3.4 0-3.4-8 0-8C405.9 203.3 405.9 211.4 402.5 211.4zM402.5 205.9c-0.3 1-0.3 2 0 2.9C402.5 207.8 402.5 206.9 402.5 205.9 402.2 206.9 402.6 206.2 402.5 205.9z" class="a"/><path d="M402.5 204.3c-3.4 0-3.4-8 0-8C405.9 196.3 405.9 204.3 402.5 204.3zM402.5 198.9c-0.3 1-0.3 2 0 2.9C402.5 200.8 402.5 199.8 402.5 198.9 402.2 199.8 402.6 199.2 402.5 198.9z" class="a"/><path d="M402.5 197.3c-3.4 0-3.4-8 0-8C405.9 189.3 405.9 197.3 402.5 197.3zM402.5 191.8c-0.3 1-0.3 2 0 2.9C402.5 193.8 402.5 192.8 402.5 191.8 402.2 192.8 402.6 192.1 402.5 191.8z" class="a"/><path d="M402.5 190.3c-3.4 0-3.4-8 0-8C405.9 182.3 405.9 190.3 402.5 190.3zM402.5 184.8c-0.3 1-0.3 2 0 2.9C402.5 186.8 402.5 185.8 402.5 184.8 402.2 185.8 402.6 185.1 402.5 184.8z" class="a"/><path d="M402.5 183.3c-3.4 0-3.4-8 0-8C405.9 175.2 405.9 183.3 402.5 183.3zM402.5 177.8c-0.3 1-0.3 2 0 2.9C402.5 179.7 402.5 178.8 402.5 177.8 402.2 178.8 402.6 178.1 402.5 177.8z" class="a"/><path d="M402.5 176.2c-3.4 0-3.4-8 0-8C405.9 168.2 405.9 176.2 402.5 176.2zM402.5 170.8c-0.3 1-0.3 2 0 2.9C402.5 172.7 402.5 171.7 402.5 170.8 402.2 171.7 402.6 171.1 402.5 170.8z" class="a"/><path d="M402.5 288.3c-3.4 0-3.4-8 0-8C405.9 280.3 405.9 288.3 402.5 288.3zM402.5 282.8c-0.3 1-0.3 2 0 2.9C402.5 284.7 402.5 283.8 402.5 282.8 402.2 283.8 402.6 283.1 402.5 282.8z" class="a"/><path d="M402.5 281.2c-3.4 0-3.4-8 0-8C405.9 273.2 405.9 281.2 402.5 281.2zM402.5 275.8c-0.3 1-0.3 2 0 2.9C402.5 277.7 402.5 276.7 402.5 275.8 402.2 276.7 402.6 276.1 402.5 275.8z" class="a"/><path d="M402.5 274.2c-3.4 0-3.4-8 0-8C405.9 266.2 405.9 274.2 402.5 274.2zM402.5 268.7c-0.3 1-0.3 2 0 2.9C402.5 270.7 402.5 269.7 402.5 268.7 402.2 269.7 402.6 269.1 402.5 268.7z" class="a"/><path d="M402.5 267.2c-3.4 0-3.4-8 0-8C405.9 259.2 405.9 267.2 402.5 267.2zM402.5 261.7c-0.3 1-0.3 2 0 2.9C402.5 263.7 402.5 262.7 402.5 261.7 402.2 262.7 402.6 262 402.5 261.7z" class="a"/><path d="M402.5 260.2c-3.4 0-3.4-8 0-8C405.9 252.2 405.9 260.2 402.5 260.2zM402.5 254.7c-0.3 1-0.3 2 0 2.9C402.5 256.7 402.5 255.7 402.5 254.7 402.2 255.7 402.6 255 402.5 254.7z" class="a"/><path d="M402.5 253.1c-3.4 0-3.4-8 0-8C405.9 245.1 405.9 253.1 402.5 253.1zM402.5 247.7c-0.3 1-0.3 2 0 2.9C402.5 249.6 402.5 248.6 402.5 247.7 402.2 248.6 402.6 248 402.5 247.7z" class="a"/><path d="M402.5 246.1c-3.4 0-3.4-8 0-8C405.9 238.1 405.9 246.1 402.5 246.1zM402.5 240.6c-0.3 1-0.3 2 0 2.9C402.5 242.6 402.5 241.6 402.5 240.6 402.2 241.6 402.6 241 402.5 240.6z" class="a"/><path d="M402.5 239.1c-3.4 0-3.4-8 0-8C405.9 231.1 405.9 239.1 402.5 239.1zM402.5 233.6c-0.3 1-0.3 2 0 2.9C402.5 235.6 402.5 234.6 402.5 233.6 402.2 234.6 402.6 233.9 402.5 233.6z" class="a"/><path d="M401.3 101.3c2.8-0.5 4.2 3.6 2.4 5.2C400.7 109.3 401.3 102.2 401.3 101.3 401.8 101.2 401.3 102.3 401.3 101.3z" class="a"/><path d="M466.2 169.5c-3.4 0-3.4-8 0-8C469.6 161.5 469.6 169.5 466.2 169.5zM466.2 164c-0.3 1-0.3 2 0 2.9C466.2 166 466.2 165 466.2 164 465.9 165 466.3 164.4 466.2 164z" class="a"/><path d="M466.2 162.5c-3.4 0-3.4-8 0-8C469.6 154.5 469.6 162.5 466.2 162.5zM466.2 157c-0.3 1-0.3 2 0 2.9C466.2 159 466.2 158 466.2 157 465.9 158 466.3 157.3 466.2 157z" class="a"/><path d="M466.2 155.5c-3.4 0-3.4-8 0-8C469.6 147.5 469.6 155.5 466.2 155.5zM466.2 150c-0.3 1-0.3 2 0 2.9C466.2 152 466.2 151 466.2 150 465.9 151 466.3 150.3 466.2 150z" class="a"/><path d="M466.2 148.5c-3.4 0-3.4-8 0-8C469.6 140.4 469.6 148.5 466.2 148.5zM466.2 143c-0.3 1-0.3 2 0 2.9C466.2 144.9 466.2 144 466.2 143 465.9 144 466.3 143.3 466.2 143z" class="a"/><path d="M466.2 141.4c-3.4 0-3.4-8 0-8C469.6 133.4 469.6 141.4 466.2 141.4zM466.2 135.9c-0.3 1-0.3 2 0 2.9C466.2 137.9 466.2 136.9 466.2 135.9 465.9 136.9 466.3 136.3 466.2 135.9z" class="a"/><path d="M466.2 134.4c-3.4 0-3.4-8 0-8C469.6 126.4 469.6 134.4 466.2 134.4zM466.2 128.9c-0.3 1-0.3 2 0 2.9C466.2 130.9 466.2 129.9 466.2 128.9 465.9 129.9 466.3 129.2 466.2 128.9z" class="a"/><path d="M466.2 127.4c-3.4 0-3.4-8 0-8C469.6 119.4 469.6 127.4 466.2 127.4zM466.2 121.9c-0.3 1-0.3 2 0 2.9C466.2 123.9 466.2 122.9 466.2 121.9 465.9 122.9 466.3 122.2 466.2 121.9z" class="a"/><path d="M466.2 120.4c-3.4 0-3.4-8 0-8C469.6 112.3 469.6 120.4 466.2 120.4zM466.2 114.9c-0.3 1-0.3 2 0 2.9C466.2 116.8 466.2 115.9 466.2 114.9 465.9 115.9 466.3 115.2 466.2 114.9z" class="a"/><path d="M466.2 113.3c-3.4 0-3.4-8 0-8C469.6 105.3 469.6 113.3 466.2 113.3zM466.2 107.8c-0.3 1-0.3 2 0 2.9C466.2 109.8 466.2 108.8 466.2 107.8 465.9 108.8 466.3 108.2 466.2 107.8z" class="a"/><path d="M466.2 232.4c-3.4 0-3.4-8 0-8C469.6 224.4 469.6 232.4 466.2 232.4zM466.2 226.9c-0.3 1-0.3 2 0 2.9C466.2 228.9 466.2 227.9 466.2 226.9 465.9 227.9 466.3 227.3 466.2 226.9z" class="a"/><path d="M466.2 225.4c-3.4 0-3.4-8 0-8C469.6 217.4 469.6 225.4 466.2 225.4zM466.2 219.9c-0.3 1-0.3 2 0 2.9C466.2 221.9 466.2 220.9 466.2 219.9 465.9 220.9 466.3 220.2 466.2 219.9z" class="a"/><path d="M466.2 218.4c-3.4 0-3.4-8 0-8C469.6 210.4 469.6 218.4 466.2 218.4zM466.2 212.9c-0.3 1-0.3 2 0 2.9C466.2 214.9 466.2 213.9 466.2 212.9 465.9 213.9 466.3 213.2 466.2 212.9z" class="a"/><path d="M466.2 211.4c-3.4 0-3.4-8 0-8C469.6 203.3 469.6 211.4 466.2 211.4zM466.2 205.9c-0.3 1-0.3 2 0 2.9C466.2 207.8 466.2 206.9 466.2 205.9 465.9 206.9 466.3 206.2 466.2 205.9z" class="a"/><path d="M466.2 204.3c-3.4 0-3.4-8 0-8C469.6 196.3 469.6 204.3 466.2 204.3zM466.2 198.9c-0.3 1-0.3 2 0 2.9C466.2 200.8 466.2 199.8 466.2 198.9 465.9 199.8 466.3 199.2 466.2 198.9z" class="a"/><path d="M466.2 197.3c-3.4 0-3.4-8 0-8C469.6 189.3 469.6 197.3 466.2 197.3zM466.2 191.8c-0.3 1-0.3 2 0 2.9C466.2 193.8 466.2 192.8 466.2 191.8 465.9 192.8 466.3 192.1 466.2 191.8z" class="a"/><path d="M466.2 190.3c-3.4 0-3.4-8 0-8C469.6 182.3 469.6 190.3 466.2 190.3zM466.2 184.8c-0.3 1-0.3 2 0 2.9C466.2 186.8 466.2 185.8 466.2 184.8 465.9 185.8 466.3 185.1 466.2 184.8z" class="a"/><path d="M466.2 183.3c-3.4 0-3.4-8 0-8C469.6 175.2 469.6 183.3 466.2 183.3zM466.2 177.8c-0.3 1-0.3 2 0 2.9C466.2 179.7 466.2 178.8 466.2 177.8 465.9 178.8 466.3 178.1 466.2 177.8z" class="a"/><path d="M466.2 176.2c-3.4 0-3.4-8 0-8C469.6 168.2 469.6 176.2 466.2 176.2zM466.2 170.8c-0.3 1-0.3 2 0 2.9C466.2 172.7 466.2 171.7 466.2 170.8 465.9 171.7 466.3 171.1 466.2 170.8z" class="a"/><path d="M466.2 288.3c-3.4 0-3.4-8 0-8C469.6 280.3 469.6 288.3 466.2 288.3zM466.2 282.8c-0.3 1-0.3 2 0 2.9C466.2 284.7 466.2 283.8 466.2 282.8 465.9 283.8 466.3 283.1 466.2 282.8z" class="a"/><path d="M466.2 281.2c-3.4 0-3.4-8 0-8C469.6 273.2 469.6 281.2 466.2 281.2zM466.2 275.8c-0.3 1-0.3 2 0 2.9C466.2 277.7 466.2 276.7 466.2 275.8 465.9 276.7 466.3 276.1 466.2 275.8z" class="a"/><path d="M466.2 274.2c-3.4 0-3.4-8 0-8C469.6 266.2 469.6 274.2 466.2 274.2zM466.2 268.7c-0.3 1-0.3 2 0 2.9C466.2 270.7 466.2 269.7 466.2 268.7 465.9 269.7 466.3 269.1 466.2 268.7z" class="a"/><path d="M466.2 267.2c-3.4 0-3.4-8 0-8C469.6 259.2 469.6 267.2 466.2 267.2zM466.2 261.7c-0.3 1-0.3 2 0 2.9C466.2 263.7 466.2 262.7 466.2 261.7 465.9 262.7 466.3 262 466.2 261.7z" class="a"/><path d="M466.2 260.2c-3.4 0-3.4-8 0-8C469.6 252.2 469.6 260.2 466.2 260.2zM466.2 254.7c-0.3 1-0.3 2 0 2.9C466.2 256.7 466.2 255.7 466.2 254.7 465.9 255.7 466.3 255 466.2 254.7z" class="a"/><path d="M466.2 253.1c-3.4 0-3.4-8 0-8C469.6 245.1 469.6 253.1 466.2 253.1zM466.2 247.7c-0.3 1-0.3 2 0 2.9C466.2 249.6 466.2 248.6 466.2 247.7 465.9 248.6 466.3 248 466.2 247.7z" class="a"/><path d="M466.2 246.1c-3.4 0-3.4-8 0-8C469.6 238.1 469.6 246.1 466.2 246.1zM466.2 240.6c-0.3 1-0.3 2 0 2.9C466.2 242.6 466.2 241.6 466.2 240.6 465.9 241.6 466.3 241 466.2 240.6z" class="a"/><path d="M466.2 239.1c-3.4 0-3.4-8 0-8C469.6 231.1 469.6 239.1 466.2 239.1zM466.2 233.6c-0.3 1-0.3 2 0 2.9C466.2 235.6 466.2 234.6 466.2 233.6 465.9 234.6 466.3 233.9 466.2 233.6z" class="a"/><path d="M465 101.3c2.8-0.5 4.2 3.6 2.4 5.2C464.3 109.3 465 102.2 465 101.3 465.5 101.2 465 102.3 465 101.3z" class="a"/><path d="M471.1 296.5c-23.9 0-48.7 2.3-72.5-0.5 -4.1-0.5-3-8.2-0.4-8.2 8.5 0 17 0 25.4 0 12.2 0 24.4 0 36.6 0 3.7 0 7.4 0 11.2 0C474.8 288.3 473.3 296.5 471.1 296.5z" class="b"/><path d="M399.6 296.5c-0.3 3.3 6.4 3.4 6.4 0C403.8 296.5 401.7 296.5 399.6 296.5z" class="a"/><path d="M463.3 296.5c-0.2 3.3 6.7 3.3 6.4 0C467.5 296.5 465.4 296.5 463.3 296.5z" class="a"/><path d="M226.9 119.6c0-27 45.9-17.5 62.4-17.5 33.9 0 67.8 0 101.8 0 28.8 0 57.7 0 86.5 0 34.7 0 38.7 5.5 40.6 40.3 3.4 65.3 6.9 130.6 10.3 195.9 0.4 7.2-3.1 22.6 7.1 22.4 14.3-0.3 6.9-19.5 6.3-31 -1.8-33.9-3.6-67.7-5.4-101.6 -1.5-28.8-3-57.6-4.6-86.4 -1.1-21.1-0.9-51.3-29.1-53.2 -61.1-4.1-123.9 0-185.2 0 -25.3 0-58.4-5.6-83 0.9 -26.7 7.2-22.4 44-23.5 64.9 -3.6 68.6-7.2 137.2-10.8 205.8 19.7 0 14.3-7.8 15.3-27.3 1.3-24.3 2.6-48.7 3.9-73C222 213.1 224.4 166.3 226.9 119.6 226.9 110.8 225.2 152.5 226.9 119.6z" fill="#369"/></svg>