<svg xmlns="http://www.w3.org/2000/svg" viewBox="0 0 768 430" style="enable-background:new 0 0 768 430;version:1"><style>.a{fill:#FCFFFF;}.b{fill:none;stroke-dasharray:4;stroke-width:1;stroke:#FFF;}.c{fill:#F3F3F5;}.d{fill:#808C8C;}.e{fill:#151E1F;}.f{stop-color:#93A0A6;stop-opacity:1;}.g{stop-color:#E9EDF6;stop-opacity:0;}.h{fill:#FAFDFD;}.i{stop-color:#353535;}.j{stop-color:#000;stop-opacity:0;}.k{stop-color:#243030;stop-opacity:0;}.l{enable-background:new    ;opacity:0.8;}.m{stop-color:#B0BBB7;}.n{stop-color:#B0BBB7;stop-opacity:0;}.o{enable-background:new    ;opacity:0.5;}.p{fill:#0B1E1C;}.q{stop-color:#979797;}.r{stop-color:#787878;stop-opacity:0;}.s{stop-color:#234141;}.t{stop-color:#234141;stop-opacity:0;}.u{enable-background:new    ;opacity:0.9;}</style><g transform="matrix(0.94503 0.10476 -0.10476 0.94503 -192.77892 660.36534)"><g transform="translate(23.27692 5.81923)"><g><path d="M302.1-472c0.4 13.1 0.6 26.2 1.4 39.2 1.4 24.3 50.8 28.2 67.6 28.8 63.4 2.3 127.6-12.7 187.2 16.3 59.2 28.8 120.9 21.8 183.1 6.5 24.3-6 60.9-11.7 77.5-32.8 15.2-19.3-9.2-46.4-17.4-64.1 3.1 36.3-56.3 46.9-83.8 52.9 -34.5 7.5-69 10-104.3 8.5 -24.2-1.1-46.7-4.4-70.1-10.8 -28.3-7.7-54.4-17.4-84.1-18.2C411.5-446.8 335.7-429 302.1-472z" fill="#E3E7F3"/><path d="M302.1-472c0.4 13.1 0.6 26.2 1.4 39.2 1.4 24.3 50.8 28.2 67.6 28.8 63.4 2.3 127.6-12.7 187.2 16.3 59.2 28.8 120.9 21.8 183.1 6.5 24.3-6 60.9-11.7 77.5-32.8 15.2-19.3-9.2-46.4-17.4-64.1 3.1 36.3-56.3 46.9-83.8 52.9 -34.5 7.5-69 10-104.3 8.5 -24.2-1.1-46.7-4.4-70.1-10.8 -28.3-7.7-54.4-17.4-84.1-18.2C411.5-446.8 335.7-429 302.1-472z" style="enable-background:new    ;fill:none;opacity:0.3;stroke-width:1;stroke:#000"/></g><path d="M304-472.8c-1.5-3.6 0.6-9.7 0.2-13.6 -0.5-4.9-1.3-9.7-1.6-14.6 -0.6-9.2 1.5-18.6 3.4-27.5 1.8-8.6 2.9-17.7 5.6-26.1 3.8-11.7 9.9-11.2 4.3-24.8 -3.8-9.2-3.5-19.9-5.2-29.6 -1.8-10.3-4.4-20.5-6.1-30.8 -1.6-9.7-3.4-18.9-5.9-28.4 -3.7-14.2 11-13.1 20.1-11.3 19.9 3.8 40.2 0.9 59.9-3.8 5.7-1.4 18.3-1.4 22.5-5.7 3.2-3.2 10.3-15.7 14.7-7.4 7.6 14.5 27.9 7.2 39.8 18.3 14.8 13.7 24.7 32.6 37.6 48 24.8 29.8 56 65.4 91.4 82.1 37.9 17.9 78.8 32.7 119.4 43.3 19.1 5 38.3 9 57.9 11.9 14.8 2.2 40.8 5.2 39.3 24.6 -1.4 16.9-27.7 24.8-40.8 29.6 -21.1 7.7-43.1 12.9-65.2 16.7 -30.9 5.3-64.7 5.3-96 3.1 -35.3-2.5-67-15.9-101.1-23.2 -34.6-7.5-71.9-4.3-107-4.5C366-446.7 316-443.4 304-472.8z" style="fill:#1F3C3D;stroke-opacity:0.3;stroke-width:1;stroke:#000"/><g style="enable-background:new    ;opacity:1"><path d="M303.8-436.5c18.1 20.1 50.3 21.7 75.4 22.1 30.6 0.4 61-3.9 91.6-3.4 56.2 1 103.1 35.5 159 35.6 -1.3-7.8-12-4.1-18-4.2 -15.1-0.3-30.9-7-45.1-11.7 -31.8-10.5-61.4-21.7-95.2-23.6 -31.7-1.8-63.4 2.6-95.1 2.7 -24.4 0.1-57.8-2.3-72.9-24.1C303.6-440.9 303.4-438.6 303.8-436.5z" fill="#233132"/></g><g><path d="M303.5-449.8c17 18.8 46.5 21.3 70.3 22 30.5 0.9 61-3.4 91.6-3.3 31 0.1 57.6 8.5 87.1 16.8 25.6 7.2 48.1 12.9 74.8 12.8 -0.1-1.4-0.2-2.7-0.2-4.1 -23.8 2.7-47.7-3.6-70.6-9.6 -30.8-8-57.6-18.9-90-20.1 -31.9-1.2-63.6 3.2-95.5 2.9 -23-0.2-53.6-3.8-67.7-24.1C303.3-454.3 303.2-452 303.5-449.8z" fill="#DDE1EA"/><path d="M303.5-449.8c17 18.8 46.5 21.3 70.3 22 30.5 0.9 61-3.4 91.6-3.3 31 0.1 57.6 8.5 87.1 16.8 25.6 7.2 48.1 12.9 74.8 12.8 -0.1-1.4-0.2-2.7-0.2-4.1 -23.8 2.7-47.7-3.6-70.6-9.6 -30.8-8-57.6-18.9-90-20.1 -31.9-1.2-63.6 3.2-95.5 2.9 -23-0.2-53.6-3.8-67.7-24.1C303.3-454.3 303.2-452 303.5-449.8z" style="enable-background:new    ;fill:none;opacity:0.2;stroke-width:0.3;stroke:#020000"/></g><g><path d="M302.8-472.8c24.9 35.6 81.1 28.1 119.2 27 22.3-0.6 45.4-1.6 67.4 2.4 24.8 4.5 48.5 15 73.1 20.5 43.5 9.8 95.8 10 139.4 1.1 22.5-4.6 112-18.6 98.2-56" style="fill:none;stroke-width:4;stroke:#000"/></g><path d="M301.5-679.8c4.1-4.4 18.3 0.5 23.2 1.4 7.1 1.3 14.1 1 21.3 0.2 17.4-1.8 35.4-8.4 52.8-8.2 -8.6 9.7-33 30.4-30.7 44.2 -13.7 0.3-26.6-2.6-39.5-7.4 -7.3-2.7-16.2-5.8-21.9-11.1C303.3-664 297.1-675.1 301.5-679.8 302.3-680.7 300.7-678.9 301.5-679.8z" class="a"/><g><path d="M354.9-642.4c-9.6-0.7-49.8-7.7-44.9-24.2 3.6-12.1 40.2-2.4 48.6-3.2 12.9-1.2 31.7-5.6 18.1 12.5 -3.4 4.5-6 8-6.4 13.2C369.8-638 358.2-641.9 354.9-642.4 349.3-642.9 360.3-641.6 354.9-642.4z" fill="#C6C4C5"/></g><g><path d="M367.8-642.5c-12.9 0-80-11.5-66.3-36" style="fill:none;stroke-width:2;stroke:#FFF"/></g><g><path d="M302.6-680.2c15.9 4.2 32.2 6.4 48.7 4.9 15.7-1.5 30.9-7.6 46.3-10.3 -9.9 12.4-26.9 12.6-41.8 14.8C342.2-668.7 310.4-667 302.6-680.2z" style="fill:none;stroke-dasharray:2;stroke-width:0.4;stroke:#AEAEAE"/></g><g><path d="M368.7-680.7c2.5-0.6 30-7.1 30.2-5.8" style="fill:none;stroke-width:2;stroke:#FDFDFD"/></g><g><path d="M370.1-681.1c-3.5 0.6-7.1 1.2-10.6 1.5" style="fill:none;stroke-width:0.9;stroke:#FFF"/></g><g><path d="M301.2-661.9c34.5 28.6 74.3 26 115.4 16.5 7.9-1.8 20.2-8.1 27.2-1.3 7.6 7.4 11.7 18.1 16.2 27.5 10.3 22 23.5 40.3 40.8 57.2 33.7 32.8 81.9 48.6 125.6 63.4 21.1 7.2 43.1 15.6 60.9 29.4 14.7 11.3 19 26 24.5 42.9" class="b"/></g><g><path d="M301.7-656.7c32.4 27.3 70.5 25.9 109.4 17.3 7.6-1.7 20.9-8.1 28.4-4.4 8.3 4.1 13.1 17 16.7 24.8 10.2 21.8 22 40.3 39 57.5 32.6 33.2 79.1 49.8 122.4 64.4 22.5 7.6 46 16 65 30.6 14.5 11.2 18.8 25.7 24.2 42.4" class="b"/></g><g><path d="M386.3-644.1c13.5 28 25.2 55.9 44.2 80.8 10.6 13.9 20 29.2 33.6 40.4 14.7 12.2 31.1 22.5 47.2 32.8 58.8 37.8 130.7 46.8 196.1 65.1" class="b"/></g><g><path d="M390.5-645.7c14.8 30.6 28.6 59.1 49.2 86.3 22.5 29.6 49.3 51.9 82.2 69.7 31.8 17.2 66.9 29.2 101.4 39.6 30.2 9.1 60.6 13 90.7 22.2" class="b"/></g><g><path d="M366.3-642.4c15.4-0.3 30.1-3 45.2-6 13.5-2.6 27.2-11.2 38.4 0.6" style="enable-background:new    ;fill:none;opacity:0.8;stroke-width:2;stroke:#2C362B"/></g><path d="M718.8-427.4c-6.3-20.8-6.3-39.5 4.8-58.9 5.4-9.5 5-13.1 15.6-11.4 11.2 1.8 22.4 3.7 33.5 5.8 9.6 1.8 23.2 4.9 28.3 14.3 6 11.1-7.9 22.1-15.7 26.6C764.7-439 741.5-433.8 718.8-427.4z" fill="#FBFFFE"/><g><path d="M516.4-525.9c-1.7 14-24.3 11.6-22.6-2.5 1.7-13.9 24.2-11.6 22.6 2.4" class="c"/></g><g><path d="M514.5-526.2c-1.4 11.5-20 9.6-18.7-2 1.4-11.5 20-9.6 18.7 2" class="d"/></g><g><path d="M513.5-526.3c-1.2 10.3-17.9 8.6-16.7-1.8 1.2-10.3 17.9-8.6 16.7 1.8" class="c"/></g><g><path d="M510.1-526.5c-0.7 6.1-10.5 5.1-9.8-1.1 0.7-6 10.5-5.1 9.8 1" class="e"/></g><g><path d="M439.5-621.6c-1.7 14-24.3 11.6-22.6-2.5 1.7-13.9 24.2-11.7 22.6 2.4" class="c"/></g><g><path d="M437.5-621.8c-1.4 11.5-20 9.6-18.7-2 1.4-11.5 20-9.6 18.7 2" class="d"/></g><g><path d="M436.5-622c-1.2 10.3-17.9 8.6-16.7-1.8 1.2-10.3 17.9-8.6 16.7 1.8" class="c"/></g><g><path d="M433.1-622.2c-0.7 6.1-10.5 5.1-9.8-1.1 0.7-6 10.5-5.1 9.8 1" class="e"/></g><g><path d="M628-474.1c-1.7 14-24.3 11.6-22.6-2.5 1.7-13.9 24.2-11.6 22.6 2.4" class="c"/></g><g><path d="M626-474.4c-1.4 11.5-20 9.6-18.7-2 1.4-11.5 20-9.6 18.7 2" class="d"/></g><g><path d="M625.1-474.6c-1.2 10.3-17.9 8.6-16.7-1.8 1.2-10.3 17.9-8.6 16.7 1.8" class="c"/></g><g><path d="M460.4-584.4c-1.7 14-24.3 11.6-22.6-2.5 1.7-13.9 24.2-11.6 22.6 2.4" class="c"/></g><g><path d="M458.4-584.7c-1.4 11.5-20 9.6-18.7-2 1.4-11.5 20-9.6 18.7 2" class="d"/></g><g><path d="M457.5-584.8c-1.2 10.3-17.9 8.6-16.7-1.8 1.2-10.3 17.9-8.6 16.7 1.8" class="c"/></g><g><path d="M454-585c-0.7 6.1-10.5 5.1-9.8-1.1 0.7-6 10.5-5.1 9.8 1" class="e"/></g><g><path d="M487-554.3c-1.7 14-24.3 11.6-22.6-2.5 1.7-13.9 24.2-11.6 22.6 2.4" class="c"/></g><g><path d="M485-554.6c-1.4 11.5-20 9.6-18.7-2 1.4-11.5 20-9.6 18.7 2" class="d"/></g><g><path d="M484.1-554.7c-1.2 10.3-17.9 8.6-16.7-1.8 1.2-10.3 17.9-8.6 16.7 1.8" class="c"/></g><g><path d="M480.6-554.9c-0.7 6.1-10.5 5.1-9.8-1.1 0.7-6 10.5-5.1 9.8 1" class="e"/></g><g><path d="M552-505.5c-1.7 14-24.3 11.6-22.6-2.5 1.7-13.9 24.2-11.6 22.6 2.4" class="c"/></g><g><path d="M550-505.8c-1.4 11.5-20 9.6-18.7-2 1.4-11.5 20-9.6 18.7 2" class="d"/></g><g><path d="M549-505.9c-1.2 10.3-17.9 8.6-16.7-1.8 1.2-10.3 17.9-8.6 16.7 1.8" class="c"/></g><g><path d="M545.6-506.1c-0.7 6.1-10.5 5.1-9.8-1.1 0.7-6 10.5-5.1 9.8 1" class="e"/></g><g><path d="M589-489.4c-1.7 14-24.3 11.6-22.6-2.5 1.7-13.9 24.2-11.6 22.6 2.4" class="c"/></g><g><path d="M587.1-489.7c-1.4 11.5-20 9.6-18.7-2 1.4-11.5 20-9.6 18.7 2" class="d"/></g><g><path d="M586.1-489.9c-1.2 10.3-17.9 8.6-16.7-1.8 1.2-10.3 17.9-8.6 16.7 1.8" class="c"/></g><g><path d="M582.6-490c-0.7 6.1-10.5 5.1-9.8-1.1 0.7-6 10.5-5.1 9.8 1.1" class="e"/></g><g><path d="M491.7-455c-2.6 5.9-19.8 1.4-17.1-4.7 2.6-5.9 19.8-1.4 17.1 4.7" class="c"/></g><g><path d="M490.2-455.5c-2.2 4.9-16.4 1.2-14.1-3.9 2.2-4.8 16.3-1.2 14.1 3.9" class="d"/></g><g><path d="M489.5-455.7c-1.9 4.3-14.7 1.1-12.6-3.5 1.9-4.3 14.6-1.1 12.6 3.4" class="c"/></g><g><path d="M486.9-456.3c-1.1 2.5-8.6 0.6-7.4-2 1.1-2.5 8.6-0.6 7.4 2" class="e"/></g><g><radialGradient cx="1319.6" cy="-1010.9" r="23.2" gradientTransform="matrix(0.813 0.3265 -0.2714 0.6756 -904.303 -417.8055)" gradientUnits="userSpaceOnUse"><stop offset="0" class="f"/><stop offset="1" class="g"/></radialGradient><path d="M420.4-688.8c12.1 1.6 28.1 3.3 36.9 12.6 2.1 2.2 8.4 7.5 7.4 10.9 -1.4 4.8-2.1 9.4-2.2 14.5 -5-7.1-10.3-16.6-18.5-20.3C433.6-675.9 428-679.9 420.4-688.8z" fill="url(#SVGID_1_)"/><path d="M420.4-688.8c12.1 1.6 28.1 3.3 36.9 12.6 2.1 2.2 8.4 7.5 7.4 10.9 -1.4 4.8-2.1 9.4-2.2 14.5 -5-7.1-10.3-16.6-18.5-20.3C433.6-675.9 428-679.9 420.4-688.8z" style="fill:none;stroke-width:0.1;stroke:#E3E3E3"/></g><g><path d="M420.2-687.8c8.7 3.1 18.1 2.7 27 6.1 8.6 3.3 14.4 11.8 19.6 19 7.9 10.9 15.3 22.7 23.7 33.2 19.9 24.6 45.1 50.7 70.1 69.7 26.8 20.5 62 30.3 93.4 41.8 24.5 9 49.5 15.3 74.9 21.3" style="fill:none;stroke-width:1;stroke:#DBDBDB"/></g><radialGradient cx="1105" cy="-914.7" r="41.2" gradientTransform="matrix(1.2244 0.2911 -0.1661 0.6989 -1095.171 -353.2904)" gradientUnits="userSpaceOnUse"><stop offset="0" stop-color="#475B5B"/><stop offset="0.5" style="stop-color:#316356;stop-opacity:0.3"/><stop offset="1" style="stop-color:#1F3E39;stop-opacity:0"/></radialGradient><path d="M368.3-642.6c-1.3-9.2 8-17.4 13.3-24 7.6-9.5 19.4-18.2 25.4-28.6 7.3-12.8 12.2 8.5 17.1 13.5 8.2 8.3 15.9 17 23.4 25.9 5.4 6.3 4.5 12.7-2.9 4.8 -5.9-6.3-13.6-2.5-20.5-1.1C405.5-648.5 386.9-645.8 368.3-642.6z" fill="url(#SVGID_2_)"/><g><radialGradient cx="1024.5" cy="-670.4" r="132.8" gradientTransform="matrix(1.2059 -0.8052 0.9098 1.3625 -29.0501 1159.694)" gradientUnits="userSpaceOnUse"><stop offset="0" class="f"/><stop offset="1" class="g"/></radialGradient><path d="M460.1-669.3c12.6 16.9 24.7 34.6 38.7 50.3 20 22.5 43.8 47.6 68.5 64.8 23.5 16.4 55.5 25.3 82.4 34.4 26.4 8.9 52.3 18.3 79.6 24.4 -5.7 9.1-67.7-14.8-77.1-17.7 -31.1-9.3-60.7-21.2-89.5-36.2 -12-6.2-21.5-17.3-31.2-26.7 -13.8-13.5-28-26.5-40.9-40.8 -8.9-10-16.9-20.8-25-31.5C458.6-657.6 457.5-657.9 460.1-669.3z" fill="url(#SVGID_3_)"/></g><path d="M429.7-617.8c0.9-3.7-1.4-6.7-4.2-9.1 11.8-7.1 24.1-12.9 37.4-16.5 12.9-3.5 18.2-3.6 25.5 6.7 -10.3 2.6-20.4 5.5-30.6 8.3C447.8-625.4 440.2-619.3 429.7-617.8z" class="h"/><g><path d="M429-627.4c10.5-5.4 49.5-27.3 56.3-10.4 -9.4 2.6-18.7 5.3-28 8.3 -8.5 2.7-16.1 8.8-25.1 9.9C431.9-622.5 430.9-625.1 429-627.4z" class="h"/></g><path d="M445.8-664.2c2.4 4.9 6.4 8.5 9 13.1 4.3 7.8 0.4 11.8-0.8 19.1 -1.4 8.7 2.5 15.8 3.1 24.2 0.7 9.6-0.8 19.4-1.8 28.9 -1.7 15.2-7.1 31-4.8 46.2 2.1 14 17.8 27.3 29.3 11.6 7.8-10.8-0.1-28.4-2.5-39.9 -1.6-7.7-5.6-15.6-6.3-23.4 -0.9-9.3 1.8-19.3 3-28.5 0.8-6.2 1-11.4 3.1-17.3 2.4-6.8-0.4-15.2-0.5-22.3 -0.1-5.4-9.3-13.2-12.6-17.5 -2.2 5.5-1.6 11.1-3.5 16.3C458.9-649.6 447.7-662.4 445.8-664.2z" fill="#F9FDFD"/><g><path d="M465.4-561.4c-1.1 9.1-7.3 26.5 0.4 33.8C472.5-535.4 469.5-552.9 465.4-561.4z" fill="#263C3A"/></g><g><linearGradient gradientUnits="userSpaceOnUse" x1="1582.3" y1="-557" x2="1594.3" y2="-557" gradientTransform="matrix(0.4799 0 -1.442432e-05 0.8173 -305.1207 -116.8475)"><stop offset="0" stop-color="#9C9C9C"/><stop offset="1" stop-color="#C5C5C5"/></linearGradient><path d="M455.9-520.5c-5.8-18.6-1.9-33.9-0.1-52.9 1.6-17.1 0.7-33.8 0.7-51 8.7 7.2 3.3 39.4 2.5 50.4C457.6-556.5 453.9-538 455.9-520.5z" fill="url(#SVGID_4_)"/></g><path d="M479.6-589.8c-2.5 0-8-10.7-9.5-12.8 6.3-2.8 12.5-5.6 18.8-8.2 2.4-1 13.9-8.5 15.7-6.8 1.9 1.8 5.7 8.9 8.1 9.3C502.5-600.3 491.9-594.2 479.6-589.8z" class="a"/><path d="M503.5-563c-2.4 0.4-9.3-9.1-11-11 8.8-5.5 18.2-10.5 26.6-16.7 3.6-2.6 6.6-5.8 10.3-2.3 1.5 1.4 6.4 8.2 8.5 8.2C525.7-578.8 514.7-570.6 503.5-563z" class="a"/><path d="M533.3-540.4c-4.7-2.7-9.3-5.6-13.7-8.7 8.3-5.7 17.9-14.4 27.7-17 9.5-2.5 11.3 1.1 18.8 7C553.8-555 543.7-548.1 533.3-540.4z" class="a"/><path d="M569.2-523.1c-5-2.1-9.8-4.5-14.6-6.9 7-8.6 14.9-14.5 24.2-20.3 3-1.9 13.5 5 16.8 6.5C585.4-537 575.6-534.3 569.2-523.1z" class="a"/><path d="M591.8-513.6c10.7-2.5 23.1-9.4 25.6-21.1 4.5 1.7 9.1 3.5 13.6 5.2 -5.3 6.5-11.9 13.5-19.3 17.6C603.7-507.5 599.8-510.5 591.8-513.6z" class="a"/><path d="M625.9-522.8c-1.3 3.6-2.8 7.4 0.5 10.3 1.2 1 17.7 8.5 18.3 7.2 -0.7 1.5-11.4 3.7-13.8 5.5 4.8 1.7 12.8 7 17.2 4.3 1.3 11.2 18.9-1.3 8.1-9.6 -4.9-3.8-20.1-2.1-21.4-10.3 -0.4-2.2 2-2.6-1-4C633.2-519.7 625.7-522.2 625.9-522.8z" class="a"/><path d="M651.2-465.8c-1.8-12 8.5-25.9 13.5-36.2 6.7-13.6 9.2-12.7 21.9-8.4 -6.6 9-8.7 20.8-13.9 30.6 -2.8 5.3-6.3 11.1-11.3 14.5C658.8-463.5 654.4-465.9 651.2-465.8z" class="a"/><path d="M453.7-585.9c-2.9-0.8-5.8-1.7-8.6-2.5 4-8.3 4.3-19.5 10.3-26.6C458.5-606.5 458.6-593.6 453.7-585.9z" class="a"/><path d="M473-557.7c3.9-17.3 29.6-63 4.3-72.6 4-1.7 13.6 4.6 17.3 7.5 8.1 6.4 5.6 25.1 4 34.3 -1.7 9.9-6 22.4-12 30.5C480.9-550.4 479-552.8 473-557.7z" class="a"/><path d="M501-528.8c-0.3-13 5-24 6.6-36.6 1.6-12.9 2.1-25.8 0-38.7 16 7.8 14.5 22 13.4 37.7 -0.9 13.3-1.3 32.4-12.2 42C507.8-528.3 504.8-530.4 501-528.8z" class="a"/><path d="M535.5-507.2c-5-24.5 8.1-50.3-1.9-74.6 12.7 9.8 17.4 14.3 18.1 30.7 0.5 10.9 4.5 39.1-6.5 45.8C543.1-509 539-509.7 535.5-507.2z" class="a"/><path d="M573.5-490.6c-1.9-9.6-4.1-17.2-0.9-26.9 2.6-7.9 3.8-23.6-4.7-28.6 19.3-0.3 21.8 16.6 16.5 31.8 -2.9 8.3 1.7 14.1 0.5 21.9C583.5-483.4 578.6-492.2 573.5-490.6z" class="a"/><path d="M612.3-476c-5-10.4-2-23.1-5.5-33.7 -1.6-4.8-4.2-11-6-15.1 -1.7-3.8-8.2-5.8-10.6-10.1 5.7 2.7 10.5 0.6 16.2 1.9 7.8 1.8 9.7 8.1 13 15.1 4.3 8.9 10.5 37.3 1.6 44.3C620.4-478.1 615.6-479.3 612.3-476z" class="a"/><g><radialGradient cx="467" cy="-711.9" r="16.6" gradientTransform="matrix(0.1159 -0.4497 2.5692 0.6618 2426.481 171.8308)" gradientUnits="userSpaceOnUse"><stop offset="0" class="i"/><stop offset="1" class="j"/></radialGradient><path d="M635.7-518.5c-2.8 5.6 2.9 7.6 7.1 9 3.7 1.3 8.1 1.4 11.6 3.1 3.9 1.9 3.3 4.7 5.8 6.9 0.9-6.2 5.1-5.6 7.9-8.7C657.2-511.4 646.6-515.2 635.7-518.5z" fill="url(#SVGID_5_)"/></g><path d="M659.6-500c4 3.9 0.4 14.2-5.4 9.4C656.6-493.4 658.4-496.6 659.6-500z" class="a"/><radialGradient cx="1392.5" cy="-834" r="3.1" gradientTransform="matrix(1.0322 0.2098 -0.8328 4.0969 -1468.1562 2623.759)" gradientUnits="userSpaceOnUse"><stop offset="0" stop-color="#FCFFFF"/><stop offset="1" style="stop-color:#FCFFFF;stop-opacity:0"/></radialGradient><path d="M661.5-497.7c-1.3-3.4-0.2-10.1 5.2-8 -1.9 3.3-3.5 6.8-5.1 10.2C661.7-496.2 661.7-496.9 661.5-497.7 661.3-498.3 661.8-497.1 661.5-497.7z" fill="url(#SVGID_6_)"/><g><path d="M532.5-449.3c-4.3 8.6-20.3 1.8-15.9-7.1 4.3-8.6 20.3-1.8 15.9 7.1" class="c"/></g><g><path d="M531.2-450c-3.5 7.1-16.8 1.5-13.1-5.9 3.5-7.1 16.7-1.5 13.1 5.9" class="d"/></g><g><path d="M530.5-450.3c-3.2 6.4-15 1.3-11.7-5.3 3.1-6.4 15-1.3 11.8 5.3" class="c"/></g><g><path d="M528-451.3c-1.8 3.7-8.8 0.8-6.9-3.1 1.8-3.7 8.8-0.8 6.9 3.1" class="e"/></g><g><radialGradient cx="1480.1" cy="-760.9" r="18.2" gradientTransform="matrix(1.0198 0.3772 -0.4896 1.2952 -1183.5507 -71.1782)" gradientUnits="userSpaceOnUse"><stop offset="0" stop-color="#222C2C"/><stop offset="1" stop-color="#101414"/></radialGradient><path d="M679.7-495.1c12.5 1.8 23.4 0.3 35.8-0.9 -8.2-2-16.8-2.7-24.8-5.3C681.9-504.1 683.2-502.8 679.7-495.1z" fill="url(#SVGID_7_)"/></g><g><linearGradient gradientUnits="userSpaceOnUse" x1="1718.6" y1="-317.9" x2="1717.7" y2="-312.4" gradientTransform="matrix(0.8173 0 0 0.8173 -773.0145 -255.9769)"><stop offset="0" stop-color="#7F9096"/><stop offset="1" style="stop-color:#7F9096;stop-opacity:0"/></linearGradient><path d="M637.7-511.1c-11.5-0.7-13.1-1.3-12.2-11.8 2.6 0.7 9.5 1.9 10.5 4.7C636.9-516.1 634.6-513.7 637.7-511.1z" fill="url(#SVGID_8_)"/></g><g><linearGradient gradientUnits="userSpaceOnUse" x1="1719.6" y1="-311.3" x2="1716.2" y2="-293.3" gradientTransform="matrix(0.8173 0 0 0.8173 -773.0145 -255.9769)"><stop offset="0" stop-color="#2E3131"/><stop offset="1" style="stop-color:#2E3131;stop-opacity:0"/></linearGradient><path d="M641.7-504.3c-3.1 0-16.4 1.3-19-0.6 -2.1-1.5-3.7-12.8-1.9-14.2 8.4-6.9 1.1 3.5 5.4 6.7 1.9 1.5 18.4 7.7 18.5 6.9C644-504.4 643-504 641.7-504.3z" fill="url(#SVGID_9_)"/></g><g><linearGradient gradientUnits="userSpaceOnUse" x1="1677.8" y1="-335.5" x2="1687.6" y2="-331.3" gradientTransform="matrix(0.8173 0 0 0.8173 -773.0145 -255.9769)"><stop offset="0" stop-color="#939B9D"/><stop offset="1" style="stop-color:#C1CBCE;stop-opacity:0"/></linearGradient><path d="M600.8-524.4c3.7 0.6 6.7-6.5 3.3-8.7 -2.9-1.9-10.4-0.7-14.3-2.3C591.5-531.6 596.8-525.1 600.8-524.4z" fill="url(#SVGID_10_)"/></g><g><linearGradient gradientUnits="userSpaceOnUse" x1="1662.1" y1="-337.1" x2="1692.5" y2="-337.1" gradientTransform="matrix(0.8173 0 0 0.8173 -773.0145 -255.9769)"><stop offset="0" stop-color="#243030"/><stop offset="1" class="k"/></linearGradient><path d="M601-524.4c-3.7-1.4-16.9-7.1-15.8-12.8 1.7-8.9 19.4 1.6 21.7 4.1 -5.6 1-11.4 0.3-16.6-2C592.1-529.3 597.5-528 601-524.4z" fill="url(#SVGID_11_)"/></g><g><linearGradient gradientUnits="userSpaceOnUse" x1="1622.7" y1="-356.5" x2="1664.3" y2="-363" gradientTransform="matrix(0.8173 0 0 0.8173 -773.0145 -255.9769)"><stop offset="0" stop-color="#151C1C"/><stop offset="1" class="k"/></linearGradient><path d="M554.7-554.1c11.2-5.2 10.6 2.4 21.9 5.2C571.1-540.9 560-549.9 554.7-554.1z" fill="url(#SVGID_12_)"/></g><g class="l"><radialGradient cx="947.8" cy="-922.4" r="13.7" gradientTransform="matrix(2.2073 0.564 -0.9018 3.5286 -2483.3193 2111.7014)" gradientUnits="userSpaceOnUse"><stop offset="0" stop-color="#1A2926"/><stop offset="1" style="stop-color:#1A2926;stop-opacity:0"/></radialGradient><path d="M437.9-614.5c1.2-6.5 9.3-8.3 14.6-11.1 2.9 9 0.7 10.5-2.1 19.1 -0.8 2.5-1.4 7.8-3.9 9.1 -3.6 1.8-6.6 2.7-8.1 6.7 -7.1-5.1-8.5-6.4-10.8-14.7C425.8-611.3 434.7-611.3 437.9-614.5z" fill="url(#SVGID_13_)"/></g><g><linearGradient gradientUnits="userSpaceOnUse" x1="1541.2" y1="-419.9" x2="1532.9" y2="-423.3" gradientTransform="matrix(0.8173 0 0 0.8173 -773.0145 -255.9769)"><stop offset="0" class="m"/><stop offset="1" class="n"/></linearGradient><path d="M483.6-591.7c2.3-6 4.6-12.2 3.5-18.7 -4.5 3.7-3.1 13.2-8.1 16.2C475.3-592 480.3-586.5 483.6-591.7z" fill="url(#SVGID_14_)"/></g><g><linearGradient gradientUnits="userSpaceOnUse" x1="1758.2" y1="-534.7" x2="1749.2" y2="-538.3" gradientTransform="matrix(0.4103 -0.0249 0.0216 0.8167 -201.5594 -92.3564)"><stop offset="0" class="m"/><stop offset="1" class="n"/></linearGradient><path d="M507.7-567c1-5.9 1.2-11.4 0.7-17.4 -2.5 5.1-4.6 15.7-3.7 21.4C507.1-563.4 506.9-564.8 507.7-567z" fill="url(#SVGID_15_)"/></g><g><linearGradient gradientUnits="userSpaceOnUse" x1="1691.4" y1="-423.3" x2="1682.8" y2="-426.8" gradientTransform="matrix(0.4065 -0.0607 0.0892 0.7084 -111.7518 -149.3259)"><stop offset="0" class="m"/><stop offset="1" class="n"/></linearGradient><path d="M537.7-546.7c0.7-5.1 0.3-10.1-0.3-15.2 -3 4.1-3.1 14-2.4 18.9C537.3-543.4 537.1-544.6 537.7-546.7z" fill="url(#SVGID_16_)"/></g><g><radialGradient cx="1088.2" cy="-768.4" r="5.6" gradientTransform="matrix(2.1085 0.0764 -0.1345 2.2295 -1818.9448 1097.163)" gradientUnits="userSpaceOnUse"><stop offset="0" stop-color="#A7B0AD"/><stop offset="1" style="stop-color:#BEC8C5;stop-opacity:0"/></radialGradient><path d="M574.3-530.5c2.3-3.4 5.6-6.3 9.6-7.7 1 4.5-6.8 7.4-10 10.6C574-528.5 574.2-529.5 574.3-530.5z" fill="url(#SVGID_17_)"/></g><g style="enable-background:new    ;opacity:0.6"><linearGradient gradientUnits="userSpaceOnUse" x1="1468.9" y1="-504.3" x2="1474.1" y2="-505" gradientTransform="matrix(0.8173 6.908178e-05 0 0.8843 -553.7458 -54.5683)"><stop offset="0" stop-color="#B3BBB8"/><stop offset="1" style="stop-color:#B3BBB8;stop-opacity:0"/></linearGradient><path d="M645.1-506c5.3 1.3 6.1 7.2 3.3 11.1 -0.4-0.2-0.8-0.3-1.2-0.5C650.3-500 646-503.9 645.1-506z" fill="url(#SVGID_18_)"/></g><g class="o"><path d="M492.8-459.2c2-3.7 34.8-2.9 34.8-3.2 0.6 3.4-12.1 0.2-13.1 5.5 -0.8 4.1 6.3 12.6 6.7 11.9 -1.2 2.6-34.6-5.2-34.4-6.5 0.4-2.2 5.5-0.5 6.9-1.6C498.1-456.9 491.5-456.6 492.8-459.2z" class="p"/></g><g class="o"><path d="M522.3-443c9.4 0.9 19.1 0.6 27.3-5.1 14.7-10.3-16.5-15.3-21.2-16.9 -1.3 6.2 6.8 6.6 6.4 13C534.1-444.1 524.5-444 522.3-443z" class="p"/></g><path d="M309.9-421.6c-0.9-8.4-1.7-17.2-4.4-25.2 -3.1-9.3 3.1-11.4-3.8-20.1C299.4-456.7 298.9-427.5 309.9-421.6z" fill="#F4F7FF"/><g><radialGradient cx="721.9" cy="-873.8" r="2.5" gradientTransform="matrix(5.7292 5.9522 -3.5865 3.4522 -6961.7036 -1720.9758)" gradientUnits="userSpaceOnUse"><stop offset="0" class="q"/><stop offset="1" class="r"/></radialGradient><path d="M310.4-421.7c-3.5-1.6-9.3-34.9-2.6-37.3C302.7-448.5 309.3-433.2 310.4-421.7z" fill="url(#SVGID_19_)"/></g><g><path d="M302.4-435.1c-0.2-6.3 0.7-12.2-0.8-18.4" fill="#929294"/><radialGradient cx="901.9" cy="-832.9" r="0.7" gradientTransform="matrix(1.417 6.541610e-06 0 8.2303 -976.2229 6413.4058)" gradientUnits="userSpaceOnUse"><stop offset="0" class="q"/><stop offset="1" class="r"/></radialGradient><path d="M303.3-435.1c-3.4-1.4-1.4-13.4-2.5-18.3 0.6-0.1 1.2-0.2 1.7-0.4C304.1-447.5 303-441.4 303.3-435.1z" fill="url(#SVGID_20_)"/></g><g style="enable-background:new    ;opacity:0.4"><g><radialGradient cx="1084.2" cy="-555.2" r="3.1" gradientTransform="matrix(0.8173 -5.543232e-05 0 1.0023 -582.1671 93.825)" gradientUnits="userSpaceOnUse"><stop offset="0" class="q"/><stop offset="1" class="r"/></radialGradient><path d="M306.5-458.8c-1.5-2.6-3.3-4.9-5.4-6.9 0.4-0.3 0.7-0.6 1.1-0.9C304.6-464.2 307.6-461.4 306.5-458.8z" fill="url(#SVGID_21_)"/></g></g><g><linearGradient gradientUnits="userSpaceOnUse" x1="1765.2" y1="-233.3" x2="1797.9" y2="-233.3" gradientTransform="matrix(0.8173 0 0 0.8173 -773.0145 -255.9769)"><stop offset="0" class="s"/><stop offset="1" class="t"/></linearGradient><path d="M670-439.9c10.3-6.2 21.2-10.8 31.4-17" fill="url(#SVGID_22_)"/><path d="M670-439.9c10.3-6.2 21.2-10.8 31.4-17" class="b"/></g><g><linearGradient gradientUnits="userSpaceOnUse" x1="1730.3" y1="373.1" x2="1763" y2="373.1" gradientTransform="matrix(0.6713 8.125603e-05 -8.125603e-05 0.6713 -487.8843 -693.3578)"><stop offset="0" class="s"/><stop offset="1" class="t"/></linearGradient><path d="M678.8-439.1c6.8-3.9 14.3-6.3 20.8-10.7" fill="url(#SVGID_23_)"/><path d="M678.8-439.1c6.8-3.9 14.3-6.3 20.8-10.7" style="fill:none;stroke-dasharray:5;stroke-width:1;stroke:#FFF"/></g><g><path d="M669.5-440.4c-0.1 7.1 2.7 13.9 4.7 20.6" class="b"/></g><g><path d="M676.9-439.4c0 6.4 2.3 12.7 4 18.8" class="b"/></g><g><linearGradient gradientUnits="userSpaceOnUse" x1="1918.2" y1="-273.7" x2="1920" y2="-277.7" gradientTransform="matrix(0.8173 0 0 0.8173 -773.0145 -255.9769)"><stop offset="0" class="i"/><stop offset="1" class="j"/></linearGradient><path d="M801.6-477.1c-0.8 0.1-12.2-10.6-12.7-9.8C790.6-490.3 803.8-477.4 801.6-477.1 801.4-477.1 801.7-477.2 801.6-477.1z" fill="url(#SVGID_24_)"/></g><g><path d="M667-464.1c-1.7 14-24.3 11.6-22.6-2.5 1.7-13.9 24.2-11.6 22.6 2.4" class="c"/></g><g><path d="M665.1-464.4c-1.4 11.5-20 9.6-18.7-2 1.4-11.5 20-9.6 18.7 2" class="d"/></g><g><path d="M664.1-464.6c-1.2 10.3-17.9 8.6-16.7-1.8 1.2-10.3 17.9-8.6 16.7 1.8" class="c"/></g><g><path d="M660.6-464.7c-0.7 6.1-10.5 5.1-9.8-1.1 0.7-6 10.5-5.1 9.8 1" class="e"/></g><g><path d="M621.6-474.7c-0.7 6.1-10.5 5.1-9.8-1.1 0.7-6 10.5-5.1 9.8 1.1" class="e"/></g><path d="M633.3-365.4c-3-14.6-6.3-29.1-10.1-43.5 37.2-0.5 73.3-2.8 109.4-12.8 19.3-5.3 106.8-33 62-62.6 14.2 9.5 25.1 27.6 28.1 44.8 4.5 25.4-10.6 35.2-32.4 44.5C742.3-374.4 685.4-365 633.3-365.4z" fill="#EFEFFB"/><g><path d="M625.1-402.1c33.7-0.3 65.7-3.3 98.8-10.2 25.4-5.4 84.4-17.3 90-48.8" style="fill:none;stroke-width:1;stroke:#DDD"/></g><g><linearGradient gradientUnits="userSpaceOnUse" x1="1502.6" y1="-391.8" x2="1520.3" y2="-396.1" gradientTransform="matrix(0.7735 0 -3.425032e-05 0.8319 -540.3217 -59.1919)"><stop offset="0" stop-color="#B1C7C9"/><stop offset="1" style="stop-color:#535D5E;stop-opacity:0"/></linearGradient><path d="M632.9-365.5c-11.1-6.2-10.3-33.1-9.7-44C625.6-395 628.2-379.4 632.9-365.5z" fill="url(#SVGID_25_)"/></g><g><path d="M623.5-409.2c53.7 0.4 114.1-6.2 161.1-32.2" style="fill:none;stroke-width:1;stroke:#FFF"/></g><g><path d="M785.1-441.3c16.2-7.7 26.9-20.1 16.8-37.5" style="fill:none;stroke-width:1;stroke:#F6F6F6"/></g><g class="u"><path d="M629.2-396.5c26-0.2 52.1-0.3 77.9-3.1 20.3-2.2 40.3-5.4 60.2-9.9 17.9-4 36.5-12.3 54.9-12.5 -11.7 19.2-34.8 26-55.1 32.6 -23.9 7.7-48.2 13.3-73 17 -13.4 2-27.1 4.8-40.6 4.9C633.8-367.2 632.4-380.4 629.2-396.5z" fill="#D6D9E2"/></g><g><path d="M629.7-383.9c34.7-0.2 68.6-3.7 102.4-12.2 30.1-7.6 75.4-15.7 88.7-48.5" style="fill:none;stroke-width:1;stroke:#D2D2D2"/></g><g display="none"><path d="M348.4-532.4c0.5-2.8 4.2-13.2 2.4-15.2 -4-4.4-7.9-8.9-11.9-13.3 5 1.6 10 3.2 15 4.8 1.2-4.9 2.4-9.8 3.6-14.8 1 3.8 1.8 14.5 4.6 17 2.9 2.6 12.4 2.6 16 3 -1.9 1.1-13.3 6.2-12.8 7.9 1.6 5.7 3.2 11.3 4.8 17 -3.4-3.8-6.9-7.6-10.3-11.4C356.9-540.6 351.6-534.5 348.4-532.4z" style="display:inline;fill:#4B41A9"/><path d="M348.4-532.4c0.5-2.8 4.2-13.2 2.4-15.2 -4-4.4-7.9-8.9-11.9-13.3 5 1.6 10 3.2 15 4.8 1.2-4.9 2.4-9.8 3.6-14.8 1 3.8 1.8 14.5 4.6 17 2.9 2.6 12.4 2.6 16 3 -1.9 1.1-13.3 6.2-12.8 7.9 1.6 5.7 3.2 11.3 4.8 17 -3.4-3.8-6.9-7.6-10.3-11.4C356.9-540.6 351.6-534.5 348.4-532.4z" style="display:inline;fill:none;stroke-width:0.8;stroke:#000096"/></g></g><g class="u"><path d="M419.5-628.7c9.7-2 41.1-14.3 47-2.8 -2.7 1.1-8.3 5-11 3.6 -3.2-1.8-7-2.1-10.4 0 -8 4.9-11 16.4-1.4 21.9 4.1 2.3 8.8 0.1 12.5 1.9 4.2 2.1 5.5 7.7 6.7 11.7 2.1 6.9-8.2 14.9-9.4 22.8C439.3-587.9 429.4-607.7 419.5-628.7z" fill="#142E2D"/></g><g class="l"><path d="M327.5-484.8c-0.8-15 0.3-28.7 3.3-43.4 1.4-7.1 2.2-15.8 5.3-22.4 3.3-6.8 11.9-11.3 5.5-19.6 0.4 1 0.8 2 1.2 2.9" style="fill:none;stroke-width:1;stroke:#000"/></g><g class="l"><path d="M333.1-539.9c0.2-10.6 17.7-20.4 9.8-30.3" style="fill:none;stroke-width:1;stroke:#111"/></g><g><path d="M392.7-637.6c-3.5-1.9 16.2-26.3 18.6-29 3.5-4 23.6-29 26.5-24.3 4.7 7.5-15.3 24.8-20 30.5C412.4-653.9 404.7-630.9 392.7-637.6z" fill="#1A3A3A"/></g></g><g><path d="M516 283.7c9.5 7.3 18.4 14.3 24.6 24.8 5.4 9.1 6.5 21.3 8 31.6" style="fill:none;stroke-width:1;stroke:#1A3434"/></g><g class="u"><path d="M509.4 295.3c-1.7 2.9 0.4 5.6-1.9 8.8 -0.2 0.3-5.6 4.3-5.6 4.6 0.5 4.7 28 6.1 28.8 2.9 0.9-3.8-13-4.7-14.9-8C515.3 302.9 513.8 287.4 509.4 295.3z" fill="#1F2828"/></g></svg>