<svg version="1.1" xmlns="http://www.w3.org/2000/svg" xmlns:xlink="http://www.w3.org/1999/xlink" viewBox="0 0 768 430" style="enable-background:new 0 0 768 430;" xml:space="preserve"><g id="school"> <g>  <path style="fill:none;" d="M333.173,207.713c1.464,0,2.469,0.337,3.109,0.702l0.609-2.071c-0.73-0.367-2.132-0.763-3.719-0.763 c-4.813,0-7.922,3.291-7.922,7.832c0,4.511,2.895,7.527,7.344,7.527c1.979,0,3.534-0.486,4.234-0.854l-0.456-2.012 c-0.761,0.335-1.767,0.733-3.292,0.733c-2.924,0-5.118-2.104-5.118-5.517C327.964,210.212,329.792,207.713,333.173,207.713z"/>  <path style="fill:none;" d="M319.008,212.072c-1.919-0.73-2.802-1.279-2.802-2.499c0-1.097,0.883-2.011,2.468-2.011 c1.372,0,2.438,0.489,3.017,0.854l0.671-1.95c-0.822-0.488-2.134-0.914-3.626-0.914c-3.171,0-5.089,1.95-5.089,4.327 c0,1.768,1.25,3.232,3.901,4.176c1.98,0.73,2.742,1.431,2.742,2.711c0,1.22-0.915,2.196-2.865,2.196 c-1.341,0-2.743-0.551-3.535-1.066l-0.672,2.041c1.038,0.609,2.531,1.005,4.144,1.005c3.505,0,5.517-1.829,5.517-4.419 C322.878,214.327,321.568,213.048,319.008,212.072z"/>  <path style="fill:none;" d="M296.54,245.662c7.054,0,13.818,0,20.708,0c0-6.918,0-13.63,0-20.227c-7.102,0-13.866,0-20.708,0 C296.54,232.325,296.54,238.925,296.54,245.662z"/>  <path style="fill:none;" d="M347.37,205.551c-1.004,0-1.95,0.304-2.743,0.76c-0.822,0.458-1.493,1.129-1.918,1.892h-0.061V199 h-2.682v21.636h2.682v-8.898c0-0.519,0.029-0.915,0.182-1.28c0.487-1.462,1.86-2.682,3.596-2.682c2.53,0,3.414,2.012,3.414,4.388 v8.473h2.68v-8.776C352.519,206.77,349.351,205.551,347.37,205.551z"/>  <rect x="390.318" y="199" style="fill:none;" width="2.682" height="21.636"/>  <path style="fill:none;" d="M231.291,246.688h20.21c0.003-6.812,0.005-13.624,0.008-20.437h-20.218V246.688z"/>  <path style="fill:none;" d="M262.938,245.545c7.237,0,14.144,0,20.957,0c0-6.941,0-13.559,0-20.229c-7.133,0-13.936,0-20.957,0 C262.938,232.408,262.938,239.026,262.938,245.545z"/>  <path style="fill:none;" d="M368.011,178.421c-0.138-8.359-7.062-15.055-15.491-14.978c-8.359,0.075-15.223,7.069-15.082,15.365 c0.142,8.373,7.083,15.096,15.471,14.986C361.294,193.686,368.148,186.709,368.011,178.421z"/>  <rect x="198.833" y="226.252" style="fill:none;" width="20.437" height="20.437"/>  <rect x="456.093" y="225.074" style="fill:none;" width="20.437" height="20.437"/>  <rect x="488.551" y="225.074" style="fill:none;" width="20.437" height="20.437"/>  <path style="fill:none;" d="M423.316,245.717c7.098,0,13.903,0,21.033,0c0-7.053,0-13.667,0-20.279c-7.229,0-14.136,0-21.033,0 C423.316,232.352,423.316,238.976,423.316,245.717z"/>  <path style="fill:none;" d="M379.844,205.551c-4.085,0-7.315,2.895-7.315,7.832c0,4.662,3.077,7.588,7.069,7.588 c3.565,0,7.346-2.377,7.346-7.832C386.943,208.628,384.08,205.551,379.844,205.551z M379.721,218.961 c-2.622,0-4.479-2.439-4.479-5.669c0-2.804,1.371-5.73,4.541-5.73c3.169,0,4.417,3.17,4.417,5.668 C384.199,216.553,382.28,218.961,379.721,218.961z"/>  <path style="fill:none;" d="M389.662,245.549c7.269,0,14.176,0,21.022,0c0-6.941,0-13.566,0-20.229c-7.135,0-13.949,0-21.022,0 C389.662,232.381,389.662,238.995,389.662,245.549z"/>  <path style="fill:none;" d="M363.119,205.551c-4.085,0-7.314,2.895-7.314,7.832c0,4.662,3.077,7.588,7.068,7.588 c3.567,0,7.347-2.377,7.347-7.832C370.22,208.628,367.355,205.551,363.119,205.551z M362.996,218.961 c-2.622,0-4.479-2.439-4.479-5.669c0-2.804,1.372-5.73,4.541-5.73s4.418,3.17,4.418,5.668 C367.476,216.553,365.557,218.961,362.996,218.961z"/>  <path style="fill:#DDE4D0;" d="M363.058,207.562c-3.169,0-4.541,2.926-4.541,5.73c0,3.23,1.857,5.669,4.479,5.669 c2.561,0,4.479-2.408,4.479-5.731C367.476,210.731,366.227,207.562,363.058,207.562z"/>  <path style="fill:#DDE4D0;" d="M454.043,201.056c0-9.876,0-19.749,0-29.626c-1.688-0.737-3.113-1.38-4.554-1.985 c-27.358-11.495-54.725-22.964-82.052-34.529c-1.533-0.648-3.807-1.984-3.908-3.157c-0.433-5.067-0.186-10.196-0.186-15.396 c3.158,0,5.789,0,8.622,0c0.175,2.625,0.33,4.962,0.486,7.319c10.391,0,20.327,0,30.397,0c0-9.136,0-18.021,0-27.307 c-5.276,0-10.209,0-15.287,0c-0.146-2.634-0.27-4.875-0.418-7.567c-7.957,0-15.756,0-23.377,0c-2.242-6.222-5.063-8.38-9.609-7.68 c-4.104,0.633-6.43,3.882-6.545,9.182c-0.029,1.285-0.007,2.572-0.007,3.859c0,12.709,0,25.419,0,38.193 c-1.627,0.693-3.056,1.329-4.506,1.915c-29.231,11.812-58.448,23.658-87.721,35.365c-2.933,1.173-3.992,2.596-3.971,5.87 c0.054,8.908,0.077,17.817,0.09,26.725h-82.719v81.722h85.352v-0.758c27.289,0,54.458,0,82.106,0c0-19.413,0-38.594,0-57.696 c13.232,0,25.857,0,38.875,0c0,19.412,0,38.493,0,57.65c29.033,0,57.671,0,86.289,0c0-0.126,0-0.25,0-0.376h77.64v-81.721H454.043 z M219.27,246.688h-20.437v-20.437h20.437V246.688z M251.501,246.688h-20.21v-20.437h20.218 C251.506,233.064,251.504,239.876,251.501,246.688z M390.318,199H393v21.636h-2.682V199z M283.895,245.545 c-6.812,0-13.719,0-20.957,0c0-6.519,0-13.137,0-20.229c7.021,0,13.823,0,20.957,0 C283.895,231.986,283.895,238.604,283.895,245.545z M317.247,245.662c-6.889,0-13.654,0-20.708,0c0-6.737,0-13.337,0-20.227 c6.842,0,13.606,0,20.708,0C317.247,232.032,317.247,238.744,317.247,245.662z M317.362,220.94c-1.613,0-3.106-0.396-4.144-1.005 l0.672-2.041c0.792,0.516,2.193,1.066,3.535,1.066c1.95,0,2.865-0.977,2.865-2.196c0-1.28-0.762-1.98-2.742-2.711 c-2.651-0.944-3.901-2.408-3.901-4.176c0-2.377,1.918-4.327,5.089-4.327c1.493,0,2.804,0.426,3.626,0.914l-0.671,1.95 c-0.579-0.365-1.645-0.854-3.017-0.854c-1.585,0-2.468,0.915-2.468,2.011c0,1.22,0.883,1.769,2.802,2.499 c2.561,0.977,3.871,2.255,3.871,4.45C322.878,219.111,320.867,220.94,317.362,220.94z M333.083,218.809 c1.524,0,2.53-0.398,3.292-0.733l0.456,2.012c-0.7,0.367-2.255,0.854-4.234,0.854c-4.45,0-7.344-3.017-7.344-7.527 c0-4.541,3.109-7.832,7.922-7.832c1.586,0,2.988,0.396,3.719,0.763l-0.609,2.071c-0.64-0.365-1.646-0.702-3.109-0.702 c-3.382,0-5.209,2.5-5.209,5.579C327.964,216.705,330.158,218.809,333.083,218.809z M352.519,220.636h-2.68v-8.473 c0-2.376-0.884-4.388-3.414-4.388c-1.736,0-3.109,1.22-3.596,2.682c-0.153,0.366-0.182,0.761-0.182,1.28v8.898h-2.682V199h2.682 v9.203h0.061c0.425-0.762,1.096-1.434,1.918-1.892c0.793-0.456,1.739-0.76,2.743-0.76c1.981,0,5.149,1.218,5.149,6.309V220.636z  M337.438,178.808c-0.141-8.296,6.723-15.29,15.082-15.365c8.428-0.077,15.353,6.619,15.491,14.978 c0.138,8.288-6.716,15.265-15.102,15.373C344.521,193.903,337.58,187.18,337.438,178.808z M362.874,220.971 c-3.992,0-7.068-2.926-7.068-7.588c0-4.937,3.229-7.832,7.314-7.832c4.236,0,7.101,3.077,7.101,7.587 C370.22,218.594,366.44,220.971,362.874,220.971z M379.598,220.971c-3.992,0-7.069-2.926-7.069-7.588 c0-4.937,3.23-7.832,7.315-7.832c4.236,0,7.1,3.077,7.1,7.587C386.943,218.594,383.163,220.971,379.598,220.971z M410.685,245.549 c-6.847,0-13.754,0-21.022,0c0-6.554,0-13.168,0-20.229c7.073,0,13.888,0,21.022,0 C410.685,231.982,410.685,238.607,410.685,245.549z M444.35,245.717c-7.13,0-13.936,0-21.033,0c0-6.741,0-13.365,0-20.279 c6.897,0,13.805,0,21.033,0C444.35,232.05,444.35,238.664,444.35,245.717z M476.529,245.511h-20.437v-20.437h20.437V245.511z  M508.987,245.511h-20.437v-20.437h20.437V245.511z"/>  <path style="fill:#DDE4D0;" d="M379.782,207.562c-3.169,0-4.541,2.926-4.541,5.73c0,3.23,1.857,5.669,4.479,5.669 c2.56,0,4.479-2.408,4.479-5.731C384.199,210.731,382.951,207.562,379.782,207.562z"/> </g> <g>  <path style="fill:none;" d="M602.184,206.037c1.03,0.703,2.411,0.726,3.44,0.016c0.888-0.615,1.329-1.507,1.357-2.574 c0.022-1.02-0.515-2.003-1.352-2.573c-0.858-0.587-1.955-0.688-2.909-0.279c-1.135,0.485-1.893,1.614-1.893,2.853 C600.825,204.497,601.342,205.464,602.184,206.037z"/>  <path style="fill:none;" d="M610.026,223.545l4.717-1.379l-1.268-4.6l-1.206,0.17l0.402-2.473l-3.855-7.302l-2.069-0.919 l-0.343-0.803c-0.26,0.207-0.528,0.385-0.836,0.51c-0.31,0.126-0.65,0.212-0.986,0.228c-0.238,0.011-0.472-0.003-0.708-0.049 l-0.116,0.692l-1.609,1.494l-2.013,6.785l-2.93,1.209l-1.669-3.68l-2.53-1.437c-0.205,0.116-0.412,0.224-0.641,0.291 c-0.212,0.06-0.428,0.116-0.649,0.12c-0.322,0.003-0.643-0.038-0.955-0.125h-0.058l-1.78,1.896l-1.784,5.691l-3.391,3.222 l0.979,0.92l4.024-2.646l0.517-2.125l0.633,1.954l-2.587,7.99l0.92,0.29l-2.704,10.176l1.44,0.518l3.851-10.176l1.552,0.116 l4.257,9.886l1.493-0.458l-3.047-9.602c0.309-0.068,0.613-0.154,0.923-0.223c0.272-0.062,0.539-0.15,0.804-0.237l-1.553-4.773 l3.851-0.92l-0.802-3.912h-0.92l0.629-0.976l-0.111-0.228l3.331-0.924l0.862-1.494l1.267,5.291l-2.472,7.819l-0.692,11.902 l2.704,0.231l0.978-9.89l1.668-3.681l1.264,5.059l4.715,8.797l2.471-1.208l-4.425-9.14l0.456-7.879H610.026z M595.076,220.27 l-0.633,0.11l0.574-2.587l0.52,1.092L595.076,220.27z M609.394,218.484l-0.858-5.285l-0.004-0.005l0.003,0.001l0.001,0.004 l2.068,3.158l-0.518,1.954L609.394,218.484z"/>  <path style="fill:none;" d="M592.553,211.756l-0.002,0c1.109-0.474,1.799-1.504,1.834-2.703c0.031-0.966-0.54-1.939-1.336-2.461 c-1.14-0.743-2.714-0.584-3.672,0.379c-0.958,0.96-1.133,2.532-0.384,3.672C589.761,211.811,591.257,212.308,592.553,211.756z"/>  <polygon style="fill:#DDE4D0;" points="594.443,220.38 595.076,220.27 595.537,218.885 595.018,217.793   "/>  <path style="fill:#DDE4D0;" d="M626.85,212.005l-25.476-25.476c-1.535-1.534-4.023-1.534-5.557,0l-25.476,25.476 c-0.77,0.768-1.151,1.772-1.151,2.78h0.002v28.502c0,2.17,1.759,3.93,3.929,3.93h50.95c2.169,0,3.929-1.76,3.929-3.93v-28.502 C628,213.777,627.617,212.772,626.85,212.005z M602.721,200.626c0.954-0.409,2.051-0.308,2.909,0.279 c0.837,0.57,1.374,1.553,1.352,2.573c-0.028,1.066-0.47,1.958-1.357,2.574c-1.029,0.71-2.41,0.688-3.44-0.016 c-0.842-0.573-1.358-1.541-1.355-2.558C600.828,202.241,601.586,201.111,602.721,200.626z M589.377,206.972 c0.958-0.964,2.532-1.122,3.672-0.379c0.796,0.521,1.367,1.495,1.336,2.461c-0.035,1.199-0.725,2.229-1.834,2.703l0.002,0 c-1.296,0.552-2.792,0.055-3.56-1.112C588.244,209.504,588.419,207.932,589.377,206.972z M613.991,240.563l-2.471,1.208 l-4.715-8.797l-1.264-5.059l-1.668,3.681l-0.978,9.89l-2.704-0.231l0.692-11.902l2.472-7.819l-1.267-5.291l-0.862,1.494 l-3.331,0.924l0.111,0.228l-0.629,0.976h0.92l0.802,3.912l-3.851,0.92l1.553,4.773c-0.265,0.087-0.531,0.175-0.804,0.237 c-0.31,0.068-0.614,0.154-0.923,0.223l3.047,9.602l-1.493,0.458l-4.257-9.886l-1.552-0.116l-3.851,10.176l-1.44-0.518 l2.704-10.176l-0.92-0.29l2.587-7.99l-0.633-1.954l-0.517,2.125l-4.024,2.646l-0.979-0.92l3.391-3.222l1.784-5.691l1.78-1.896 h0.058c0.312,0.087,0.633,0.128,0.955,0.125c0.222-0.004,0.438-0.06,0.649-0.12c0.229-0.067,0.436-0.175,0.641-0.291l2.53,1.437 l1.669,3.68l2.93-1.209l2.013-6.785l1.609-1.494l0.116-0.692c0.236,0.046,0.47,0.06,0.708,0.049 c0.336-0.015,0.677-0.102,0.986-0.228c0.308-0.125,0.576-0.303,0.836-0.51l0.343,0.803l2.069,0.919l3.855,7.302l-0.402,2.473 l1.206-0.17l1.268,4.6l-4.717,1.379h-0.004l-0.456,7.879L613.991,240.563z"/>  <polygon style="fill:#DDE4D0;" points="610.604,216.357 608.535,213.199 609.394,218.484 610.086,218.312   "/>  <polygon style="fill:#DDE4D0;" points="608.531,213.194 608.535,213.199 608.534,213.195   "/> </g> <line style="fill:none;stroke:#DDE4D0;stroke-width:4;stroke-miterlimit:10;" x1="601" y1="245" x2="601" y2="284"/></g><g id="Layer_1"></g></svg>