<svg xmlns="http://www.w3.org/2000/svg" viewBox="0 0 768 430"><style>.a{fill:#E08773;}</style><path d="M361 200.1c-11.2-7.3-22.7-14.7-34.4-22.5 0.7-4.6 0.9-9.3 0.6-14.1 -2.4-36.2-34.3-63.7-71.1-61.2s-64.7 33.9-62.3 70.1c2.4 36.2 34.3 63.7 71.1 61.2 13.4-0.9 25.6-5.7 35.7-13.1 5.2 3.3 12.1 7.7 20.3 12.8C332.3 223.9 346 212.4 361 200.1zM216.7 170.9c-1.6-23.7 16.7-44.4 40.9-46 24.1-1.6 45 16.4 46.6 40.1 1.6 23.7-16.7 44.4-40.9 46C239.2 212.7 218.3 194.7 216.7 170.9z" class="a"/><path d="M583.9 335.1c0 0-62.3-34.2-156.4-92.8 -12.6 10.4-25.8 21.5-39.4 33.1 37.9 23.4 80.3 49.3 115.2 69.4C530.2 360.4 570.2 359.8 583.9 335.1z" class="a"/><path d="M337.5 317.8c-0.3-4.8-1.2-9.4-2.5-13.9 133.7-116.3 234.2-190.3 234.2-190.3 -16.9-22.7-56.6-17.8-81.2 1.1 -63.7 49.2-154.6 125.1-184.5 150.2 -10.9-6-23.7-9.2-37.1-8.3 -36.8 2.5-64.7 33.9-62.3 70.1 2.4 36.2 34.3 63.7 71.1 61.2C311.9 385.5 339.9 354 337.5 317.8zM365.2 236.5c-0.4-5.5 3.9-10.3 9.4-10.6 5.6-0.4 10.4 3.8 10.8 9.3 0.4 5.5-3.9 10.3-9.4 10.6C370.4 246.2 365.6 242 365.2 236.5zM227 325.2c-1.6-23.7 16.7-44.4 40.9-46 24.1-1.6 45 16.4 46.6 40.1 1.6 23.7-16.7 44.4-40.9 46C249.5 367 228.6 348.9 227 325.2z" class="a"/></svg>