<svg xmlns="http://www.w3.org/2000/svg" viewBox="0 0 768 430"><style>.a{fill:#8C9199;}.b{fill:#B4ADA7;}.c{fill:#1B1D1E;}.d{fill:#626363;}.e{fill:#192B2B;}.f{fill:#FFF;}.g{fill:#231F20;}.h{fill:#00079F;}.i{fill:#050085;}.j{fill:#000445;}.k{fill:#E53C3C;}.l{fill:#262626;}.m{fill:#2B2C2D;}</style><path d="M296.9 338.2c-0.2 2.2-0.2 4.7-0.2 7.6l0.5 9.2c0 0-0.7-0.7-1.6-7.2 -0.2 0.1-0.4 0.1-0.6 0.1 -0.7 0-1.6-0.2-2.7-0.5 -1.7-0.5-3.7-1-6.1-1 -4.1 0-7.8 1.7-11.2 5.2l-0.4 0.4 -0.4-0.3c-1.2-0.8-3.5-1.3-6.4-1.3 -5.8 0-14.1 2-18.8 6.4l-0.2 0.2 -0.2 0c-4.2 0.1-12.7 4.2-13.4 7.9 -0.3 1.5 0.9 2.9 3.5 4 5.4 2.3 25.5 5.4 45.9 5.4 20.4 0 35.5-3.2 43.8-9.1 -3-1.4-5.7-3-8.2-4.8C312.3 354.4 303.9 347.2 296.9 338.2z" class="a"/><path d="M365.4 177.4c0.1 1.4 0.1 2.6 0.1 3.8 2.5-3.5 4.8-6.5 7-9 -0.3-0.5-0.6-1.1-0.9-1.6 -2.5 0.8-5 1.2-7.3 1.4C364.7 173.5 365.1 175.3 365.4 177.4z" class="b"/><path d="M576.1 150.5c-1-3.7-2.9-5.8-5.1-5.8 -3.2 0-6.6 4-7 8.2l-0.3 1.2c-1.1 4.6-2.4 9.8-8.1 9.8 -0.7 0-1.4-0.1-2.2-0.2 -0.9-0.2-1.8-0.3-2.8-0.3 -5.1 0-10 2.6-11.2 5.9l-0.3 0.9c-1.2 3.6-2.3 6.9-7.1 6.9 -0.9 0-2-0.1-3.2-0.4l-0.1-0.1c-2.1-1.1-4-1.6-5.7-1.6 -6.4 0-8.4 7.9-9.3 11.7 -1.2 3.8-2.8 5.7-5 5.7 -3.4 0-6.6-5-6.7-5.2 -0.1-0.1-4.9-8.9-9.5-8 -4 0.9-7.2 0.4-9.2-1.6 -2.2-2.3-2.1-5.6-2.1-5.7 0 0 0.1-3.8-2.2-6.1 -1.3-1.4-3.2-2-5.8-1.8 -0.9 0.1-1.7 0.1-2.5 0.1 -7.9 0-11.6-3.4-11.6-10.6 -0.8-8.8-3.8-12-6.1-12 -1.2 0-2.3 0.9-2.9 2.4 -5.9 14.7-5.8 28.8 0.4 41.9 8.6 18.2 26.3 28.6 31.7 30.3 10.5 3.3 10.6 8.4 10.6 8.6 0 0.2-1 14-7.1 27 -8 12.4-17.7 18.6-29.1 18.6 -22 0-43.1-24.4-45.4-28.9 -3.1-6.2-15.8-22.6-23.6-26.1 -1.5-0.6-4.4-1.5-8.9-1.4 0 0 2.3-1.5 6.4-0.7 0.7 0.2 1.4 0.3 1.9 0.5 3.1 0.4 6.1 0.5 9 0.5 21.5 0 31.4-10.3 35.8-19 5.7-11.1 4.7-22.9 3.3-24.9l-0.3-0.4 0.3-0.4c12.7-17.7 14.1-40.4 3.8-62.3 -11.7-25-36-42.9-60.4-44.7 -1.7-0.1-3.4-0.2-5.1-0.2 -43.4 0-64.5 41.8-64.7 42.2l-0.1 0.1 -0.1 0.1c-11.8 8.4-18.8 18.3-20.6 29.4 -3.4 20.5 10.9 40.3 19.4 52.2 3.1 4.3 5.1 7.1 5.5 8.8 2.3 18.5-7.3 34.6-14.3 46.4 -0.7 1.1-1.3 2.2-1.9 3.2 5.8-5.8 13.6-11.5 21.8-11.5 3.2 0 6.3 0.8 9.2 2.5 18 10.4 23.9 35.4 30.8 64.5 1.2 5.3 2.5 10.7 3.9 16.3 2.2 8.6 6.1 17.4 11.7 25.2 0.1-0.3 0.2-0.5 0.2-0.7 -0.1-1.6-0.3-6.5 0-11.7 0.7-13.6 4.9-13.6 4.9-13.6 -3.4 2.5-3.9 14.6-3.7 22 1.3-3.3 2.6-6.2 4-8.6 5-8.3 9-7.7 9-7.7 -3.8 1-11.4 7.9-18.9 43.3l-0.1 0.7c-1.6 5.9-0.7 11.5 2.9 16.7 7.3 10.6 24.5 17.8 47.2 19.9 34 3 58.2-6.7 62.2-13 1.8-3.7 1.9-6.7 0-8.8 -3.4-4-12.1-3.9-14.5-3.2l-0.5 0.2 -0.2-0.5c-3.6-6.5-15.1-7.7-19.9-7.2l-0.7 0.1 0-0.7c-0.1-1.3-0.7-2.3-1.9-3.2 -4.2-3.3-14.1-3.3-15.5-3.1l-0.5 0.1 -0.2-0.5c-0.8-2.5-1.7-2.4-3.6-2.2l-0.6 0.1c-5.2 0.7-8.2 1.2-9.9 1.5 -0.9 0.2-1.5 0.3-1.8 0.3 -1 1.3-2.5 3.1-4.5 4.9 -6.1 5.6-9.4 5-9.4 5 6.6-2.4 13.1-11 14-12.2 12.6-18.4-0.1-34.7-0.2-34.8 0 0 5.8 3.4 6.9 15.4 0.6 5.8-0.7 12.8-5.6 20l0 0c0 0-0.1 0.1-0.1 0.2 0 0-0.1 0.1-0.1 0.1 0.2 0 0.4-0.1 0.6-0.1 1.6-0.3 4.7-0.9 10-1.6l0.6-0.1c1.9-0.2 3.7-0.4 4.8 2.6 2.3-0.1 10.5-0.1 15.1 2.8 4.1-1.4 8.2-3.1 12.4-5.3 35.7-18.2 52.9-40 61-55.1 4-19.5 2.3-38.5-0.4-52.7 -0.2-1-0.3-1.7-0.4-2.1 -0.9-6.5-0.8-17.9 3.2-20.4C565.2 205.5 584.1 179.3 576.1 150.5zM462.2 276.5c1.2-0.8 8.8 5.6 6.2 6.5 -2.7 0.8-5.8 5.8-9.2 5.1 -3.5-0.8-3.9-9.2-3.9-9.2L462.2 276.5zM415.5 107.9c-2.5-4.3-6.8-8.1-8.7-9.4C417.1 98.3 415.5 107.9 415.5 107.9zM382.2 143.9c-3.5-4.4-4.5-11.8-2.2-19.4 0.2-0.8 0.5-1.6 0.8-2.4 4.1-11.3 13.5-18.3 21-15.6 4.2 1.5 6.9 5.7 7.8 11 2.5-0.2 5.2-0.8 5.9-2.2 0 0 0 2.9-4.6 3.4 -0.4 0-0.7 0.1-1.1 0.1 0.2 1.6 0.2 3.3 0.1 5 2.2 1.4 5.3 2.8 8.2 2.8 0 0-3.4 1-6.7-0.6 -0.6-0.3-1.1-0.6-1.6-0.9 -0.2 1.3-0.4 2.7-0.8 4.1 1.5 2.1 3.3 4.4 4.6 4.7 0 0-2.4 0.5-5.1-3.1 -0.1 0.4-0.2 0.7-0.3 1.1 -0.1 0.2-0.1 0.3-0.2 0.5 -0.1 0.2-0.1 0.4-0.2 0.5 -1.7 4.4-4.3 8.1-7.2 10.7 -0.1 0.1-0.3 0.2-0.4 0.3 -0.1 0.1-0.3 0.2-0.4 0.3 -1 0.9-2.1 1.6-3.2 2.1 3.2 2.1 4.4 4.6 4.4 4.6 -9.6-9.9-22.4-4.5-22.6-4.5 0 0 1.2-1.3 4.5-2.1C382.5 144.4 382.4 144.2 382.2 143.9zM360.5 77.5c-2.3 0.1-8 1-12.4 3.2C348.1 80.7 351.9 71.7 360.5 77.5zM325.4 115c0 0 0 0 0.1 0 0-0.4 0-0.7 0-1.1 0 0 0-0.1 0-0.1 0-3.8 1.2-8.3 3.6-12.6 0.1-0.2 0.2-0.4 0.3-0.6 0.1-0.1 0.1-0.3 0.2-0.4 0.1-0.2 0.2-0.4 0.3-0.5 0.1-0.1 0.1-0.2 0.2-0.3 0 0 0 0 0-0.1 -0.3-0.1-0.6-0.2-1-0.3 -4.2-1.7-3.4-4.3-3.4-4.3 -0.1 1.7 2.8 2.8 5.1 3.4 1.2-1.8 2.6-3.4 4-4.8 -0.5-0.4-0.9-1-1.4-1.5 -2.3-3-0.8-6.1-0.8-6.1 -0.3 2.8 1.5 5.2 3.1 6.7 1.2-1.1 2.5-2 3.8-2.7 -0.1-0.1-0.1-0.2-0.2-0.3 -1.4-3 0.1-5.7 0.1-5.7 -0.5 1.7 0.3 3.8 1.2 5.4 3.1-1.4 6.1-1.6 8.4-0.2 4.6 2.7 5.2 10.6 1.8 18.8 -0.5 1.4-1.2 2.9-2 4.3 -4.1 7.4-10.4 12-15.6 12 0.1 0.4 0.2 0.7 0.3 1.1 1.6-0.9 3.6-1.7 5.8-2.1 2-0.4 4.1-0.6 6.2-0.5 9.1 0.4 16.3 5.3 16 10.9 -0.2 4.2-4.4 7.8-10.7 9.1 -2 0.4-4.1 0.6-6.2 0.5 -9.1-0.4-16.3-5.3-16-10.9 0.1-2.4 1.5-4.6 3.8-6.2 -2.4-10.2-13.8-12.3-13.9-12.3C318.6 113.7 322 113 325.4 115zM343.4 208.5c-2.7 0-5.1-0.4-7.3-1 -12.9-3.9-15.7-12.5-15.7-12.5 0.5 0.8 13.4 20.2 38.1 8.5C358.4 203.5 352 208.5 343.4 208.5zM373.2 173.4c-2.4 2.8-5 6.1-7.6 10 -0.2 8.3-2 10.6-2 10.6 0.5-3.3 0.8-6.2 0.8-8.9 -0.1 0.1-0.2 0.3-0.3 0.4l0 0 -0.6 1c-0.2 0.3-0.3 0.5-0.5 0.8 0 0.1-0.1 0.1-0.1 0.2 -4.4 6.9-10.1 11-16.6 11.9 -0.9 0.1-1.9 0.2-2.8 0.2 -2.8 0-5.7-0.5-8.6-1.6 -0.6-0.2-1.2-0.5-1.7-0.8 0 0-0.1 0-0.1 0 -0.5-0.3-1-0.6-1.5-0.9 0 0-0.1 0-0.1-0.1 -0.5-0.4-0.9-0.7-1.3-1.1 0 0 0 0 0 0 -0.4-0.4-0.8-0.9-1.1-1.4 -3.9-5.4-2.7-13.7-1.9-19.7l0.1-0.9c0.7-4.9-2.3-11-4.5-14.8 -0.2-0.2-0.5-0.4-0.7-0.6 -4.2 2.9-9.1 7.3-12.3 14.1 0 0 0.7-5.5 7.5-12 1.4-1.2 2.7-2.1 3.9-2.9 -2.2-2.1-3.9-4.5-5.1-7 -4.3 1.3-9.8 4.2-16 10.6 0 0 2.4-5.8 11.6-10.3 1.4-0.7 2.7-1.1 3.9-1.4 -0.9-2.1-1.5-4.2-1.9-6 -3.3 0.1-7.7 0.8-13.4 2.3 0 0 3.2-2.6 11.5-3.5 0.6 0 1.1-0.1 1.6-0.1 -0.3-1.4-0.4-2.5-0.5-3.3 -4.7 0.8-8.4-1.6-8.4-1.6 8.6 2.6 14.9-2.9 15-2.9 0 0-1.3 2.7-5.3 4.2 0.1 0.7 0.2 2 0.5 3.6 7.2 0.1 8.8 3.4 8.8 3.4 0 0-2-2.1-8.5-2.2 0.4 1.7 1 3.7 1.9 5.7 5.4-1 8.7 1.1 8.7 1.1 -0.1 0-3.1-1.2-8.2 0 1.2 2.4 2.8 4.7 4.9 6.6 5.6-3.4 8.7-2.9 8.7-2.9 -0.1 0-3.5 1-7.7 3.7 3.8 3 8.7 4.3 14.4 3.9l0.5 0 0.2 0.5c0.8 2.4 6.1 6.2 13.3 8.2 2.8 0.8 6.7 1.5 11.2 1.3 -2.1-6.9-5.3-9.6-5.4-9.6 0 0 3.9 1.1 6.5 9.5 2.2-0.2 4.6-0.5 7-1.2 -3.9-6-8.3-9.9-8.4-10 0 0 5.1 2.5 9.6 9.6 2.3-0.8 4.6-1.8 6.9-3.2 -3.9-5.2-8.1-8.3-8.1-8.4 0 0 4.8 2.1 9.2 7.7 1.2-0.8 2.5-1.7 3.7-2.7 -2.6-2.4-3.9-7.1-3.9-8.2 2.3 5.7 8.2 10.4 14.1 10.8 -2.6 0.6-6.3 0.2-9.2-1.8 -1.3 1.1-2.7 2.1-4 3 0.9 1.2 1.7 2.5 2.5 3.9 5.2 10.8 2.5 17.4 2.5 17.4 0.9-8.3-2.4-15.4-6-20.6 -0.5 0.3-1.1 0.6-1.6 0.9 -1.2 1.2-2.6 2.8-4.2 4.6 5.9 12.4 2.2 17.9 2.2 17.9C377.2 184.1 375.6 178.3 373.2 173.4zM386.8 274.1c-1.7 0.6-3.8-6.2-3.8-6.2s-1.3 2.3-4.5 2.4c-3.2 0.1-2.4-8.5 4.3-7.3 4.1 0.8 7.3 1.7 8.1 2.6C391.8 266.5 388.6 273.5 386.8 274.1zM395.1 241.8c6-3.5 11 1.2 13.2 6.5 2.2 5.4-2 4.6-2 11.5s-10.8 9.6-11.1 1.9C394.7 254.1 390.5 244.5 395.1 241.8zM400.8 293.8c-3.6-3.5-7.3-8.2-2.4-10.8 1.6-0.9 13.4-0.6 14.9 3 1.5 3.6 5.4 9.4 0 10.8C407.9 298.1 404.4 297.3 400.8 293.8zM416.3 313.6c-1.1 0.5-5.6-4.8-4-9.1 1.2-3.2 8 4.1 8 4.1S417.4 313.1 416.3 313.6zM418.3 281.1c0-5 3.5-7.3 0-10.8 -3.5-3.5 0.3-8.1 4.2-6.1 3.8 1.9 14 12.3 10.5 13.8C429.5 279.6 418.3 286.1 418.3 281.1zM444.2 301.1c-2.9 1.9-4.6 0.8-8 0 -3.4-0.8-7 8.6-9.3 1.1 -2.3-7.6-1.9-10 0-11.3 2.9-1.9 13.5-1.8 15.5 0C444.5 292.7 447.2 299.2 444.2 301.1zM447.5 289.5c-1.6 0.7-8-6.8-5.7-13 1.7-4.5 11.4 5.8 11.4 5.8S449.1 288.8 447.5 289.5zM467.3 305.2c-3.2 0.2-12.6 9.2-14 1.4 -1.4-7.9 5.6-12.8 8.7-12.7 2.9 0.1 10.5 1.6 10.5 2.9C472.5 298.1 470.5 305 467.3 305.2zM477.3 288.6c0.1-0.9-1.9-15.6 0-15.2 4.3 0.9 8.4 6.3 8.4 8.4C485.7 283.9 477.2 289.5 477.3 288.6zM487.9 272c-2.7-0.4-3.4-8.2-3.4-8.2 4.2-3.4 5.3-4.3 6.9 0.4C492.9 268.8 490.7 272.4 487.9 272zM502.2 253c0 3.5-5.5 4.9-5.7 1 -0.2-3.9-2.3-8.8 0-10.1 3-1.8 5.6 0.6 6.7 3.3C504.4 249.9 502.2 249.5 502.2 253z" class="a"/><path d="M374.8 169.4c-0.6 0.3-1.3 0.5-1.9 0.7 0.2 0.3 0.4 0.6 0.6 1 0.5-0.6 1-1.2 1.5-1.7C374.9 169.4 374.8 169.4 374.8 169.4z" class="a"/><path d="M351.2 170.6c-7.3-2-12.6-5.8-14-8.6 -4.7 0.3-8.7-0.6-12.2-2.4 2 3.9 4.1 9.1 3.5 13.6l-0.1 0.9c-0.4 3.2-1 7-0.7 10.6 2.6-2.1 6.5-4.4 11.2-4.4 2.2 0 4.4 0.5 6.5 1.5 0.9-0.2 2-0.3 3.3-0.3 4.7 0 10.5 1.4 14.3 3.5 0.5-0.7 0.9-1.4 1.4-2.1 0-4.3-0.6-7.9-1.3-10.8 -0.6 0-1.1 0-1.7 0C357.3 172 353.8 171.4 351.2 170.6z" class="b"/><path d="M406.2 259.9c0-6.9 4.2-6.2 2-11.5 -2.2-5.4-7.2-10-13.2-6.5 -4.6 2.7-0.4 12.3 0 20C395.5 269.5 406.2 266.8 406.2 259.9z" class="c"/><path d="M496.6 243.9c-2.3 1.4-0.2 6.2 0 10.1 0.2 3.9 5.7 2.5 5.7-1 0-3.5 2.1-3.1 1-5.9C502.2 244.4 499.6 242.1 496.6 243.9z" class="c"/><path d="M422.6 264.2c-4-2-7.7 2.7-4.2 6.1 3.5 3.5 0 5.8 0 10.8 0 5 11.2-1.5 14.7-3.1C436.6 276.5 426.3 266.1 422.6 264.2z" class="c"/><path d="M459.1 288.1c3.5 0.8 6.5-4.2 9.2-5.1 2.7-0.8-5-7.2-6.2-6.5l-7 2.3C455.2 278.8 455.6 287.3 459.1 288.1z" class="c"/><path d="M477.3 273.4c-1.9-0.4 0.1 14.2 0 15.2 -0.1 0.9 8.4-4.7 8.4-6.8C485.7 279.7 481.6 274.3 477.3 273.4z" class="c"/><path d="M427 290.9c-1.9 1.3-2.3 3.7 0 11.3 2.3 7.6 5.9-1.8 9.3-1.1 3.4 0.8 5.1 1.9 8 0 2.9-1.9 0.3-8.5-1.8-10.3C440.4 289.1 429.8 289 427 290.9z" class="c"/><path d="M413.3 286c-1.5-3.6-13.3-3.8-14.9-3 -4.9 2.6-1.2 7.4 2.4 10.8 3.6 3.5 7.1 4.2 12.5 2.9C418.7 295.4 414.9 289.6 413.3 286z" class="c"/><path d="M484.5 263.8c0 0 0.7 7.8 3.4 8.2 2.7 0.4 5-3.1 3.4-7.8C489.8 259.4 488.7 260.4 484.5 263.8z" class="c"/><path d="M462 293.8c-3.1-0.1-10.1 4.8-8.7 12.7 1.4 7.9 10.8-1.1 14-1.4 3.2-0.2 5.3-7.1 5.3-8.4C472.5 295.4 464.9 294 462 293.8z" class="c"/><path d="M441.8 276.5c-2.3 6.2 4 13.7 5.7 13 1.6-0.7 5.7-7.2 5.7-7.2S443.5 271.9 441.8 276.5z" class="c"/><path d="M412.3 304.5c-1.6 4.3 2.8 9.6 4 9.1 1.1-0.5 4-5 4-5S413.5 301.3 412.3 304.5z" class="c"/><path d="M382.8 263c-6.7-1.3-7.5 7.3-4.3 7.3 3.2-0.1 4.5-2.4 4.5-2.4s2.1 6.7 3.8 6.2c1.7-0.6 4.9-7.5 4.1-8.4C390 264.8 386.9 263.8 382.8 263z" class="c"/><path d="M577.3 150.2c-1.6-5.8-4.7-6.7-6.4-6.7 -3.9 0-7.9 4.5-8.3 9.2l-0.3 1.1c-1.1 4.5-2.2 8.8-6.9 8.8 -0.6 0-1.3-0.1-2-0.2 -1-0.2-2-0.3-3-0.3 -5.7 0-11.1 2.9-12.4 6.8l-0.3 0.9c-1.1 3.4-2 6.1-5.9 6.1 -0.8 0-1.8-0.1-2.9-0.4 -2.3-1.1-4.4-1.7-6.2-1.7 -7.4 0-9.5 8.6-10.5 12.6 -1 3.2-2.2 4.8-3.8 4.8 -2.2 0-4.8-3.3-5.6-4.6 -0.2-0.4-4.9-8.7-10-8.7 -0.3 0-0.6 0-0.9 0.1 -3.6 0.8-6.3 0.4-8-1.3 -1.8-1.9-1.8-4.8-1.8-4.8 0-0.2 0.1-4.3-2.5-7 -1.6-1.7-3.8-2.4-6.8-2.2 -0.9 0.1-1.7 0.1-2.4 0.1 -7.2 0-10.3-2.8-10.3-9.4 -0.9-9.8-4.4-13.2-7.3-13.2 -1.7 0-3.3 1.2-4.1 3.2 -6.1 15-5.9 29.5 0.4 42.9 8.1 17.2 25.2 28.6 32.5 30.9 9.5 3 9.8 7.3 9.8 7.3 0 0.1-1 13.7-6.9 26.5 -7.7 11.9-17.1 18-28 18 -21.5 0-40.9-22.4-44.2-28.1 -2.8-5.7-13.8-20.4-22.1-25.6 2 0.1 3.9 0.2 5.7 0.2 22.2 0 32.3-10.7 37-19.7 5.5-10.6 5.1-22.5 3.5-25.8 12.7-18 14.1-41.1 3.7-63.3 -11.9-25.4-36.6-43.6-61.4-45.4 -1.7-0.1-3.5-0.2-5.2-0.2 -42.9 0-64.3 40-65.8 42.8 -12 8.6-19.1 18.7-21 30.1 -3.5 21 11.6 41.9 19.6 53.1 2.8 3.8 5 6.9 5.2 8.2 2.2 18-7.3 33.9-14.2 45.5 -1 1.6-1.9 3.2-2.8 4.7 -0.5 0.9-0.9 1.8-1.3 2.7l0 0c0 0 0 0.1 0 0.1 -0.1 0.1-0.1 0.2-0.2 0.4 -19 40.6-11.9 68.3 2.5 87.9 -0.2 2.5-0.4 5.5-0.3 9.1h0c0 0 0 0 0 0.1 0 0.2 0 0.4 0 0.6 0 0.2 0 0.3-0.4 0.3 -0.5 0-1.4-0.2-2.3-0.5 -1.6-0.4-3.9-1.1-6.5-1.1 -4.3 0-8.2 1.7-11.7 5.2 -1.5-0.8-3.8-1.3-6.7-1.3 -6 0-14.6 2.1-19.5 6.6 -4.4 0.2-13.5 4.3-14.4 8.9 -0.3 1.5 0.2 3.7 4.3 5.4 5.5 2.3 25.9 5.5 46.4 5.5h0c15.6 0 34.8-1.8 45.1-9.7 10.5 4.5 23.8 6.7 37.9 7.8 0.4 3.3 1.7 6.4 3.7 9.4 7.5 10.9 25.1 18.3 48.2 20.4 4.6 0.4 9 0.6 13.2 0.6 28.7 0 46.8-8.8 50.3-14.2 2.1-4.3 2.1-7.7-0.1-10.3 -3.6-4.2-12-4.5-15.4-3.7 -0.4-0.7-1-1.3-1.5-1.9 0.3-0.2 0.6-0.3 0.9-0.5 0.3-0.2 0.7-0.4 1-0.6 0.7-0.4 1.3-0.7 1.9-1.1 0.3-0.2 0.6-0.4 1-0.6 0.6-0.4 1.3-0.8 1.9-1.2 0.3-0.2 0.6-0.4 0.9-0.6 0.6-0.4 1.3-0.8 1.9-1.2 0.3-0.2 0.5-0.4 0.8-0.6 0.6-0.4 1.3-0.9 1.9-1.3 0.3-0.2 0.5-0.4 0.7-0.5 0.6-0.5 1.3-0.9 1.9-1.4 0.2-0.2 0.4-0.3 0.7-0.5 0.6-0.5 1.3-1 1.9-1.5 0.2-0.1 0.4-0.3 0.5-0.4 0.7-0.5 1.3-1.1 2-1.6 0.1-0.1 0.3-0.2 0.4-0.3 0.7-0.6 1.4-1.2 2.1-1.9 0.1 0 0.1-0.1 0.2-0.1 17.6-16 26.5-35 30.2-53.5 0-0.1 0-0.2 0.1-0.3l0.9-4.3 -0.2 0.3c3-18.3 1.4-35.9-1.1-49.2 -0.2-0.9-0.3-1.6-0.4-2 -1.1-7.7-0.4-17.3 2.5-19.1 28.8-14.7 47.2-30.9 54.8-48.2C581.9 166.6 578.6 154.7 577.3 150.2zM284.7 374.2c-20.3 0-40.4-3.2-45.9-5.4 -2.6-1.1-3.8-2.4-3.5-4 0.7-3.7 9.2-7.8 13.4-7.9l0.2 0 0.2-0.2c4.7-4.4 13-6.4 18.8-6.4 2.9 0 5.2 0.5 6.4 1.3l0.4 0.3 0.4-0.4c3.4-3.5 7.1-5.2 11.2-5.2 2.4 0 4.5 0.6 6.1 1 1.1 0.3 2 0.5 2.7 0.5 0.3 0 0.5 0 0.6-0.1 0.8 6.5 1.6 7.2 1.6 7.2l-0.5-9.2c0-2.9 0-5.4 0.2-7.6 6.9 9 15.4 16.2 23.3 22.1 2.4 1.8 5.2 3.4 8.2 4.8C320.1 371 305 374.2 284.7 374.2zM368.3 365.2c-0.7 2.4-0.9 4.7-0.8 7 -18.5-1.5-35.7-4.8-46.5-12.9 -24.9-18.6-54.8-50.2-26.4-110.3 5.8-6.6 14.7-14.4 24-14.4 3 0 5.8 0.8 8.5 2.4 17.5 10.1 23.4 34.9 30.2 63.6 1.3 5.3 2.5 10.8 3.9 16.3 2.3 9 6.5 18.2 12.5 26.4 -1.9 6-3.6 13.1-5.3 21.3L368.3 365.2zM465 372.9c-5.3-4.4-14.3-4.8-17.7-4.7 -0.2-1.2-0.9-2.2-1.9-3.1 3.9-1.4 7.8-3.1 11.8-5.1 33.2-16.9 50.5-37 59.5-52C509.7 336.2 492.3 358 465 372.9zM520 228.6c-4 2.5-4 13.8-3.2 20.4 0.1 0.4 0.2 1.1 0.4 2.1 2.7 14.2 4.4 33.2 0.4 52.7 -8.1 15.2-25.3 37-61 55.1 -4.2 2.1-8.3 3.9-12.4 5.3 -4.6-2.9-12.8-3-15.1-2.8 -1.1-3-2.9-2.8-4.8-2.6l-0.6 0.1c-5.3 0.7-8.3 1.2-10 1.6 -0.2 0-0.4 0.1-0.6 0.1 0 0 0.1-0.1 0.1-0.1 0.1-0.1 0.1-0.1 0.1-0.2l0 0c4.9-7.3 6.2-14.2 5.6-20 -1.1-11.9-6.9-15.4-6.9-15.4 0.1 0.2 12.7 16.4 0.2 34.8 -0.9 1.3-7.3 9.8-14 12.2 0 0 3.4 0.6 9.4-5 1.9-1.8 3.5-3.6 4.5-4.9 0.4 0 0.9-0.1 1.8-0.3 1.6-0.3 4.7-0.9 9.9-1.5l0.6-0.1c1.9-0.2 2.8-0.3 3.6 2.2l0.2 0.5 0.5-0.1c1.4-0.2 11.3-0.2 15.5 3.1 1.2 0.9 1.8 2 1.9 3.2l0 0.7 0.7-0.1c4.7-0.5 16.3 0.7 19.9 7.2l0.3 0.5 0.5-0.2c2.4-0.8 11.1-0.8 14.5 3.2 1.8 2.1 1.8 5.1 0 8.8 -4 6.3-28.2 16-62.2 13 -22.7-2-39.9-9.3-47.2-19.9 -3.6-5.2-4.5-10.8-2.9-16.7l0.1-0.7c7.5-35.4 15.1-42.3 18.9-43.3 0 0-4-0.6-9 7.7 -1.4 2.4-2.7 5.2-4 8.6 -0.2-7.5 0.3-19.5 3.7-22 0 0-4.1 0-4.9 13.6 -0.3 5.2-0.1 10.1 0 11.7 -0.1 0.2-0.2 0.5-0.2 0.7 -5.6-7.9-9.6-16.7-11.7-25.2 -1.4-5.5-2.7-11-3.9-16.3 -6.8-29-12.8-54.1-30.8-64.5 -2.9-1.7-6-2.5-9.2-2.5 -8.2 0-16 5.7-21.8 11.5 0.6-1 1.2-2.1 1.9-3.2 7-11.7 16.6-27.8 14.3-46.4 -0.4-1.7-2.4-4.5-5.5-8.8 -8.5-11.8-22.8-31.7-19.4-52.2 1.8-11.1 8.8-20.9 20.6-29.4l0.1-0.1 0.1-0.1c0.2-0.4 21.3-42.2 64.7-42.2 1.7 0 3.4 0.1 5.1 0.2 24.4 1.8 48.7 19.8 60.4 44.7 10.3 21.9 8.9 44.6-3.8 62.3l-0.3 0.4 0.3 0.4c1.4 1.9 2.4 13.8-3.3 24.9 -4.5 8.7-14.3 19-35.8 19 -2.8 0-5.9-0.2-9-0.5 -0.5-0.2-1.2-0.4-1.9-0.5 -4.1-0.8-6.4 0.7-6.4 0.7 4.5-0.1 7.4 0.8 8.9 1.4 7.7 3.4 20.5 19.9 23.6 26.1 2.3 4.5 23.3 28.9 45.4 28.9 11.4 0 21.2-6.2 29.1-18.6 6-13 7.1-26.9 7.1-27 0-0.2-0.1-5.3-10.6-8.6 -5.5-1.7-23.1-12-31.7-30.3 -6.2-13.1-6.3-27.2-0.4-41.9 0.6-1.5 1.7-2.4 2.9-2.4 2.3 0 5.3 3.2 6.1 12 0 7.2 3.7 10.6 11.6 10.6 0.8 0 1.6 0 2.5-0.1 2.5-0.2 4.4 0.4 5.8 1.8 2.3 2.3 2.2 6.1 2.2 6.1 0 0.1-0.1 3.4 2.1 5.7 2 2 5.1 2.6 9.2 1.6 4.6-0.9 9.5 7.9 9.5 8 0.1 0.2 3.3 5.2 6.7 5.2 2.2 0 3.8-1.9 5-5.7 1-3.8 2.9-11.7 9.3-11.7 1.7 0 3.6 0.5 5.7 1.6l0.1 0.1c1.2 0.3 2.3 0.4 3.2 0.4 4.8 0 5.9-3.4 7.1-6.9l0.3-0.9c1.1-3.3 6-5.9 11.2-5.9 0.9 0 1.9 0.1 2.8 0.3 0.8 0.1 1.5 0.2 2.2 0.2 5.7 0 7-5.2 8.1-9.8l0.3-1.2c0.4-4.2 3.8-8.2 7-8.2 2.3 0 4.1 2 5.1 5.8C584.1 179.3 565.2 205.5 520 228.6z" class="d"/><path d="M329.6 100.3c-0.1 0.1-0.1 0.3-0.2 0.4 0.2-0.3 0.4-0.6 0.6-0.9C329.8 99.9 329.7 100.1 329.6 100.3z" class="e"/><path d="M348.1 90.1c4.6 2.6 5.6 10 2.8 17.8 3.5-8.1 2.9-16-1.8-18.8 -2.3-1.4-5.3-1.2-8.4 0.2 -0.9-1.6-1.7-3.7-1.2-5.4 0 0-1.5 2.7-0.1 5.7 0.1 0.1 0.1 0.2 0.2 0.3 -1.3 0.7-2.5 1.6-3.8 2.7 -1.6-1.5-3.4-4-3.1-6.7 0 0-1.6 3.1 0.8 6.1 0.4 0.6 0.9 1.1 1.4 1.5 -1.4 1.4-2.8 3-4 4.8 -2.4-0.6-5.2-1.8-5.1-3.4 0 0-0.8 2.6 3.4 4.3 0.3 0.1 0.7 0.2 1 0.3 0 0 0 0 0 0.1C335.2 91.5 343 87.3 348.1 90.1z" class="e"/><path d="M348.5 112c4.9-8.8 4.5-18.3-0.7-21.2 -5.2-2.9-13.5 1.9-18.3 10.7 -2.7 4.8-3.8 9.9-3.3 13.9 2.7 1.7 5.5 4.2 7 8.1C338.1 123.8 344.5 119.3 348.5 112zM332.6 118.2c-3.2-1.8-3.4-7.7-0.3-13.3 3.1-5.5 8.2-8.6 11.4-6.8 3.2 1.8 3.4 7.7 0.3 13.3C341 116.9 335.9 119.9 332.6 118.2z" class="f"/><path d="M329.4 101.5c4.9-8.8 13.1-13.6 18.3-10.7 5.3 2.9 5.6 12.4 0.7 21.2 -4 7.3-10.4 11.8-15.4 11.5 0.1 0.2 0.2 0.5 0.3 0.7 5.2 0 11.5-4.6 15.6-12 0.8-1.4 1.4-2.9 2-4.3 2.8-7.8 1.9-15.2-2.8-17.8 -5.1-2.8-12.9 1.3-18.1 9.4 -0.1 0.1-0.1 0.2-0.2 0.3 -0.2 0.3-0.4 0.6-0.6 0.9 -0.1 0.2-0.2 0.4-0.3 0.6 -2.4 4.3-3.5 8.7-3.6 12.6 0 0 0 0.1 0 0.1 0 0.4 0 0.7 0 1.1 0.2 0.1 0.4 0.3 0.6 0.4C325.7 111.3 326.8 106.3 329.4 101.5z" class="g"/><path d="M343.5 111.1c2.8-5.1 2.7-10.6-0.2-12.3 -2.9-1.6-7.7 1.2-10.5 6.4 -2.8 5.1-2.7 10.6 0.2 12.3C336 119.1 340.7 116.2 343.5 111.1zM334.6 106.2c1.8-3.3 4.9-5.1 6.8-4 2 1.1 2.1 4.6 0.3 7.9 -1.8 3.3-4.9 5.1-6.8 4C332.9 113 332.8 109.5 334.6 106.2z" class="h"/><path d="M344 111.4c3-5.5 2.9-11.5-0.3-13.3 -3.2-1.8-8.3 1.3-11.4 6.8 -3 5.5-2.9 11.5 0.3 13.3C335.9 119.9 341 116.9 344 111.4zM332.8 105.2c2.8-5.1 7.5-8 10.5-6.4 3 1.6 3 7.1 0.2 12.3 -2.8 5.1-7.5 8-10.5 6.4C330.1 115.8 330 110.3 332.8 105.2z" class="i"/><ellipse transform="matrix(0.8753 0.4835 -0.4835 0.8753 94.4483 -150.0334)" cx="338.2" cy="108.1" rx="4.1" ry="6.8" class="j"/><path d="M332.5 126c0.3-0.3 0.7-0.5 1.1-0.7 -0.1-0.4-0.2-0.7-0.3-1.1 -0.1-0.2-0.2-0.5-0.3-0.7 -1.5-3.9-4.3-6.4-7-8.1 -0.2-0.1-0.4-0.3-0.6-0.4 0 0 0 0-0.1 0 -3.4-2-6.8-1.3-6.8-1.3C318.7 113.7 330.2 115.8 332.5 126z" class="d"/><path d="M361.3 316.9c-1.4-5.5-2.7-11-3.9-16.3 -6.8-28.7-12.6-53.5-30.2-63.6 -2.7-1.6-5.6-2.4-8.5-2.4 -9.3 0-18.2 7.8-24 14.4 -28.4 60.1 1.5 91.8 26.4 110.3 10.9 8.1 28 11.4 46.5 12.9 -0.2-2.3 0.1-4.7 0.8-7l0.1-0.6c1.7-8.2 3.5-15.3 5.3-21.3C367.8 335.2 363.5 325.9 361.3 316.9z" class="b"/><path d="M457.2 360c-4 2-7.9 3.7-11.8 5.1 1 0.9 1.6 1.9 1.9 3.1 3.4-0.2 12.4 0.3 17.7 4.7 27.3-14.9 44.7-36.7 51.7-64.9C507.7 323.1 490.4 343.1 457.2 360z" class="b"/><path d="M320.3 195.1c0 0 2.8 8.6 15.7 12.5 2.2 0.6 4.7 1 7.3 1 8.6 0 15-5 15-5C333.7 215.3 320.9 195.9 320.3 195.1z" class="d"/><path d="M375 169.3c-0.1 0-0.2 0.1-0.2 0.1 0 0 0.1 0 0.1 0C375 169.4 375 169.4 375 169.3z" fill="#720107"/><path d="M348.7 182.7c-0.3 0-0.6 0-0.9 0 -2.2 0.4-8 1.9-8.6 4.9 0 0-0.5-3.1 3.8-4.9 0.3-0.1 0.5-0.2 0.8-0.3 -1.6-0.6-3.2-0.9-4.8-0.9 -4.7 0-8.6 2.5-11 4.6 0 0.2 0 0.3 0.1 0.5 0 0.3 0.1 0.7 0.2 1 0.1 0.4 0.2 0.7 0.3 1.1 0.1 0.2 0.1 0.4 0.2 0.6 0.1 0.4 0.3 0.8 0.4 1.1 0.1 0.1 0.1 0.3 0.2 0.4 0.2 0.4 0.3 0.7 0.5 1 0.1 0.1 0.2 0.3 0.3 0.4 0.2 0.3 0.4 0.6 0.6 0.8 0.2 0.2 0.3 0.4 0.5 0.6 0.2 0.2 0.3 0.4 0.5 0.5 0.3 0.3 0.5 0.5 0.8 0.7 0.1 0.1 0.2 0.2 0.3 0.2 0.4 0.2 0.7 0.5 1.1 0.7 0.1 0 0.1 0.1 0.2 0.1 0.5 0.2 0.9 0.5 1.4 0.6 2.8 1 5.5 1.5 8.1 1.5 7.2 0 13.5-4 18.3-11.5 0.2-0.3 0.4-0.6 0.5-0.8C358.2 183.8 352.4 182.7 348.7 182.7z" fill="#FC6565"/><path d="M345.4 181.8c-2.1-1-4.3-1.5-6.5-1.5 -4.7 0-8.5 2.2-11.2 4.4 0 0.5 0.1 1 0.1 1.6 2.5-2.2 6.3-4.6 11-4.6 1.6 0 3.2 0.3 4.8 0.9 -0.3 0.1-0.5 0.2-0.8 0.3 -4.3 1.8-3.8 4.9-3.8 4.9 0.5-3 6.4-4.6 8.6-4.9 0.3 0 0.6 0 0.9 0 3.8 0 9.6 1.1 13.6 3.2 -0.2 0.3-0.4 0.6-0.5 0.8 0.4-0.7 0.8-1.3 1.2-1.9 -3.9-2-9.7-3.5-14.3-3.5C347.4 181.4 346.3 181.5 345.4 181.8z" class="k"/><path d="M363.5 186.5l0.6-1 0 0c-0.4 0.6-0.8 1.2-1.1 1.8C363.2 187 363.3 186.7 363.5 186.5z" class="k"/><path d="M363 184.9c-0.4 0.6-0.8 1.2-1.2 1.9 -4.8 7.5-11.1 11.5-18.3 11.5 -2.6 0-5.4-0.5-8.1-1.5 -0.5-0.2-1-0.4-1.4-0.6 -0.1 0-0.1-0.1-0.2-0.1 -0.4-0.2-0.8-0.4-1.1-0.7 -0.1-0.1-0.2-0.2-0.3-0.2 -0.3-0.2-0.6-0.5-0.8-0.7 -0.2-0.2-0.3-0.3-0.5-0.5 -0.2-0.2-0.3-0.4-0.5-0.6 -0.2-0.3-0.4-0.5-0.6-0.8 -0.1-0.1-0.2-0.3-0.3-0.4 -0.2-0.3-0.4-0.7-0.5-1 -0.1-0.1-0.1-0.3-0.2-0.4 -0.2-0.4-0.3-0.8-0.4-1.1 -0.1-0.2-0.1-0.4-0.2-0.6 -0.1-0.4-0.2-0.7-0.3-1.1 -0.1-0.3-0.1-0.7-0.2-1 0-0.2 0-0.3-0.1-0.5 -0.1-0.5-0.1-1-0.1-1.6 -0.2-3.6 0.3-7.5 0.7-10.6l0.1-0.9c0.6-4.4-1.5-9.6-3.5-13.6 3.5 1.9 7.5 2.7 12.2 2.4 1.3 2.7 6.7 6.6 14 8.6 2.6 0.7 6.1 1.4 10.2 1.4 0.6 0 1.1 0 1.7 0 -0.1-0.4-0.2-0.9-0.4-1.3 -4.5 0.2-8.4-0.5-11.2-1.3 -7.2-2-12.5-5.8-13.3-8.2l-0.2-0.5 -0.5 0c-5.8 0.4-10.6-0.9-14.4-3.9 -0.4 0.2-0.7 0.5-1.1 0.7 0.2 0.2 0.5 0.4 0.7 0.6 2.2 3.8 5.1 10 4.5 14.8l-0.1 0.9c-0.8 6-2 14.3 1.9 19.7 0.3 0.5 0.7 0.9 1.1 1.4 0 0 0 0 0 0 0.4 0.4 0.8 0.8 1.3 1.1 0 0 0.1 0 0.1 0.1 0.5 0.3 0.9 0.6 1.5 0.9 0 0 0.1 0 0.1 0 0.5 0.3 1.1 0.5 1.7 0.8 2.9 1.1 5.8 1.6 8.6 1.6 1 0 1.9-0.1 2.8-0.2 6.5-0.9 12.2-5 16.6-11.9 0-0.1 0.1-0.1 0.1-0.2 0.4-0.6 0.8-1.2 1.1-1.8 0.1-0.1 0.2-0.3 0.3-0.4 0-0.8 0-1.6 0-2.3C363.9 183.5 363.5 184.2 363 184.9z" class="d"/><path d="M365.5 181.2c0 0.8 0 1.5 0 2.2 2.7-3.9 5.3-7.2 7.6-10 -0.2-0.4-0.4-0.8-0.6-1.2C370.4 174.7 368 177.7 365.5 181.2z" class="d"/><path d="M317.4 149.5c-0.4 0.1-0.8 0.2-1.3 0.3 1.2 2.5 2.8 4.9 5.1 7 0.4-0.2 0.8-0.5 1.1-0.7C320.1 154.2 318.5 151.8 317.4 149.5z" class="d"/><path d="M314.1 137.8c4-1.5 5.3-4.2 5.3-4.2 -0.1 0.1-6.5 5.6-15 2.9 0 0 3.7 2.4 8.4 1.6 0.1 0.7 0.2 1.9 0.5 3.3 0.5 0 0.9 0 1.3 0C314.3 139.8 314.2 138.5 314.1 137.8z" class="d"/><path d="M384.9 163.2c2.9 1.9 6.6 2.4 9.2 1.8 -6-0.3-11.8-5-14.1-10.8 0 1.1 1.3 5.8 3.9 8.2 -1.2 1-2.5 1.9-3.7 2.7 0.3 0.3 0.5 0.7 0.8 1C382.3 165.3 383.6 164.3 384.9 163.2z" class="d"/><path d="M371.6 170.5c-0.2-0.4-0.5-0.8-0.7-1.1 -2.4 0.7-4.8 1.1-7 1.2 0.1 0.4 0.2 0.8 0.4 1.3C366.6 171.7 369.1 171.3 371.6 170.5z" class="d"/><path d="M374.8 169.4c0.1 0 0.2-0.1 0.2-0.1 0 0-0.1 0.1-0.1 0.1 -0.5 0.5-1 1.1-1.5 1.7 0.2 0.4 0.4 0.8 0.6 1.2 0 0 0 0 0 0 1.6-1.8 3-3.3 4.2-4.6 0.5-0.3 1.1-0.6 1.6-0.9 -0.2-0.4-0.5-0.7-0.8-1 -2.3 1.4-4.7 2.5-6.9 3.2 0.2 0.4 0.5 0.7 0.7 1.1C373.5 169.9 374.1 169.7 374.8 169.4z" class="d"/><path d="M314.9 142.6c-0.4 0-0.9 0-1.3 0 0.4 1.8 1 3.9 1.9 6 0.4-0.1 0.9-0.2 1.3-0.3C316 146.4 315.3 144.4 314.9 142.6z" class="d"/><path d="M323.5 144.8c0 0-1.6-3.3-8.8-3.4 -0.4 0-0.9 0-1.3 0 -0.5 0-1 0-1.6 0.1 -8.4 0.9-11.5 3.5-11.5 3.5 5.7-1.6 10-2.2 13.4-2.3 0.5 0 0.9 0 1.3 0C321.4 142.7 323.4 144.8 323.5 144.8z" class="l"/><path d="M325.5 149.5c0 0-3.2-2.1-8.7-1.1 -0.4 0.1-0.8 0.2-1.3 0.3 -1.2 0.3-2.5 0.8-3.9 1.4 -9.2 4.5-11.6 10.3-11.6 10.3 6.2-6.4 11.7-9.4 16-10.6 0.4-0.1 0.9-0.2 1.3-0.3C322.4 148.3 325.5 149.4 325.5 149.5z" class="l"/><path d="M330.9 153.2c0 0-3.1-0.5-8.7 2.9 -0.4 0.2-0.7 0.5-1.1 0.7 -1.2 0.8-2.5 1.7-3.9 2.9 -6.7 6.5-7.5 12-7.5 12 3.2-6.7 8.1-11.2 12.3-14.1 0.4-0.3 0.8-0.5 1.1-0.7C327.4 154.2 330.9 153.2 330.9 153.2z" class="l"/><path d="M385.9 187.5c0 0 2.7-6.5-2.5-17.4 -0.8-1.5-1.6-2.8-2.5-3.9 -0.3-0.3-0.5-0.7-0.8-1 -4.4-5.6-9.2-7.7-9.2-7.7 0.1 0.1 4.2 3.1 8.2 8.4 0.3 0.3 0.5 0.7 0.8 1C383.5 172.1 386.8 179.2 385.9 187.5z" class="l"/><path d="M374.1 172.3c0 0 0 0 0 0 -0.2-0.4-0.4-0.8-0.6-1.2 -0.2-0.3-0.4-0.7-0.6-1 -0.2-0.4-0.4-0.8-0.7-1.1 -4.5-7.1-9.6-9.6-9.6-9.6 0.1 0.1 4.5 4 8.4 10 0.2 0.4 0.5 0.7 0.7 1.1 0.3 0.5 0.6 1.1 0.9 1.6 0.2 0.4 0.4 0.8 0.6 1.2 2.4 4.9 4.1 10.7 3.1 16.8C376.2 190.2 379.9 184.8 374.1 172.3z" class="l"/><path d="M365.5 181.2c0-1.2-0.1-2.4-0.1-3.8 -0.3-2.1-0.7-3.9-1.1-5.4 -0.1-0.4-0.2-0.9-0.4-1.3 -2.6-8.5-6.5-9.5-6.5-9.5 0.1 0 3.3 2.7 5.4 9.6 0.1 0.4 0.2 0.8 0.4 1.3 0.8 2.9 1.3 6.5 1.3 10.8 0 0.7 0 1.5 0 2.3 -0.1 2.7-0.3 5.7-0.8 8.9 0 0 1.8-2.3 2-10.6C365.5 182.7 365.5 181.9 365.5 181.2z" class="l"/><path d="M382.2 143.9c0.2 0.2 0.4 0.4 0.5 0.6 0 0 0 0 0 0C382.5 144.4 382.4 144.2 382.2 143.9z" class="e"/><path d="M401.5 108.5c7.3 2.8 10.1 13.5 6.3 24 0.1-0.2 0.1-0.3 0.2-0.5 0.1-0.4 0.2-0.7 0.3-1.1 2.7 3.6 5.1 3.1 5.1 3.1 -1.3-0.3-3.2-2.5-4.6-4.7 0.4-1.4 0.6-2.7 0.8-4.1 0.5 0.3 1 0.6 1.6 0.9 3.4 1.6 6.7 0.6 6.7 0.6 -2.9 0-6-1.5-8.2-2.8 0.1-1.7 0.1-3.4-0.1-5 0.4 0 0.7-0.1 1.1-0.1 4.6-0.5 4.6-3.4 4.6-3.4 -0.7 1.4-3.4 2-5.9 2.2 -0.9-5.3-3.6-9.5-7.8-11 -7.5-2.7-16.9 4.3-21 15.6 -0.3 0.8-0.5 1.6-0.8 2.4 0.2-0.6 0.4-1.2 0.6-1.8C384.7 112 394 105.6 401.5 108.5z" class="e"/><path d="M396.4 146.5c1.1-0.6 2.2-1.3 3.2-2.1 -1.1 0.8-2.2 1.5-3.3 2.1C396.3 146.5 396.3 146.5 396.4 146.5z" class="e"/><path d="M407 132.8c3.9-10.3 1.3-20.9-5.8-23.6 -7.1-2.7-16.1 3.5-20 13.7 -3.2 8.5-2 17.1 2.5 21.4 1.7-0.3 3.9-0.4 6.7-0.2 2.1 0.4 3.8 1.1 5.2 1.9C400.2 144 404.6 139.2 407 132.8zM389 141.3c-4.4-1.7-5.9-8.3-3.5-14.7 2.5-6.5 8-10.4 12.4-8.7 4.4 1.7 5.9 8.3 3.5 14.7C398.9 139 393.4 142.9 389 141.3z" class="f"/><path d="M383.7 144.4c-4.5-4.3-5.7-13-2.5-21.4 3.9-10.3 12.9-16.4 20-13.7 7.1 2.7 9.7 13.3 5.8 23.6 -2.4 6.4-6.8 11.2-11.5 13.2 0.3 0.1 0.5 0.3 0.7 0.4 1.1-0.6 2.2-1.3 3.3-2.1 0.1-0.1 0.3-0.2 0.4-0.3 0.1-0.1 0.3-0.2 0.4-0.3 3-2.6 5.5-6.3 7.2-10.7 0.1-0.2 0.1-0.4 0.2-0.5 3.8-10.5 1-21.2-6.3-24 -7.4-2.8-16.8 3.6-20.9 14.3 -0.2 0.6-0.4 1.2-0.6 1.8 -2.3 7.5-1.3 15 2.2 19.4 0.2 0.2 0.4 0.4 0.6 0.6C383 144.5 383.3 144.4 383.7 144.4z" class="g"/><path d="M397.6 118.6c-4-1.5-9.1 2.1-11.4 8.1 -2.3 6-0.9 12.1 3.1 13.6 4 1.5 9.1-2.1 11.4-8.1C403 126.3 401.6 120.2 397.6 118.6zM398.3 131.4c-1.5 3.9-4.8 6.2-7.5 5.2 -2.7-1-3.6-5-2.2-8.8 1.5-3.9 4.8-6.2 7.5-5.1C398.8 123.6 399.7 127.5 398.3 131.4z" class="h"/><path d="M397.9 117.8c-4.4-1.7-9.9 2.2-12.4 8.7 -2.5 6.5-0.9 13.1 3.5 14.7 4.4 1.7 9.9-2.2 12.4-8.7C403.9 126.1 402.3 119.5 397.9 117.8zM389.3 140.4c-4-1.5-5.4-7.6-3.1-13.6 2.3-6 7.4-9.6 11.4-8.1 4 1.5 5.4 7.6 3.1 13.6C398.4 138.3 393.3 141.9 389.3 140.4z" class="i"/><ellipse transform="matrix(0.3558 -0.9346 0.9346 0.3558 132.4055 451.1548)" cx="393.5" cy="129.5" rx="7.5" ry="5.1" class="j"/><path d="M400.8 151.1c0 0-1.2-2.5-4.4-4.6 0 0 0 0-0.1 0 -0.2-0.1-0.5-0.3-0.7-0.4 -1.4-0.8-3.1-1.5-5.2-1.9 -2.8-0.2-5-0.1-6.7 0.2 -0.3 0.1-0.6 0.1-0.9 0.2 0 0 0 0 0 0 -3.3 0.8-4.5 2.1-4.5 2.1C378.4 146.6 391.2 141.2 400.8 151.1z" class="d"/><path d="M329.6 132.3c-0.2 5.2 6.6 9.7 15.2 10 2.1 0.1 4.1-0.1 6-0.5 5.9-1.2 9.8-4.5 10-8.3 0.2-5.2-6.6-9.7-15.2-10 -2.1-0.1-4.1 0.1-6 0.5C333.7 125.2 329.7 128.5 329.6 132.3z" fill="#590000"/><path d="M328.7 132.3c-0.2 5.7 7 10.6 16 10.9 2.1 0.1 4.2-0.1 6.2-0.5 6.3-1.3 10.5-4.9 10.7-9.1 0.2-5.7-7-10.6-16-10.9 -2.1-0.1-4.2 0.1-6.2 0.5 -2.2 0.5-4.2 1.2-5.8 2.1 -0.4 0.2-0.8 0.5-1.1 0.7C330.2 127.7 328.8 129.9 328.7 132.3zM339.6 124c1.9-0.4 3.9-0.6 6-0.5 8.6 0.4 15.4 4.9 15.2 10.1 -0.2 3.8-4.1 7.1-10 8.3 -1.9 0.4-3.9 0.6-6 0.5 -8.6-0.3-15.4-4.9-15.2-10C329.7 128.5 333.7 125.2 339.6 124z" fill="#290000"/><path d="M348.1 80.7c4.5-2.2 10.1-3.1 12.4-3.2C351.9 71.7 348.1 80.7 348.1 80.7z" class="m"/><path d="M415.5 107.9c0 0 1.6-9.6-8.7-9.4C408.7 99.8 413 103.6 415.5 107.9z" class="m"/><path d="M398.3 119.7c1.1 1.3 0.9 3.2-0.4 4.3 -1.3 1.1-3.2 0.9-4.3-0.4s-0.9-3.2 0.4-4.3C395.3 118.2 397.2 118.4 398.3 119.7z" class="f"/><path d="M396.2 126.3c0.5 0.6 0.4 1.4-0.2 1.8 -0.6 0.4-1.4 0.4-1.8-0.2 -0.4-0.6-0.4-1.4 0.2-1.8C394.9 125.6 395.7 125.7 396.2 126.3z" class="f"/><path d="M344.3 99.7c0.7 1.5 0.1 3.3-1.5 4 -1.5 0.7-3.3 0.1-4-1.4 -0.7-1.5-0.1-3.3 1.4-4C341.8 97.6 343.6 98.2 344.3 99.7z" class="f"/><path d="M340.6 105.6c0.3 0.6 0 1.4-0.6 1.7 -0.6 0.3-1.4 0-1.7-0.6 -0.3-0.6 0-1.4 0.6-1.7C339.6 104.7 340.3 104.9 340.6 105.6z" class="f"/></svg>