<svg version="1.1" xmlns="http://www.w3.org/2000/svg" x="0" y="0" width="768" height="430" viewBox="0 0 768 430" enable-background="new 0 0 768 430" xml:space="preserve"><path fill="#DDE4D0" d="M451.3 109.7c-8.2-0.1-23.5-3.2-31.3-0.3 -0.4 26.7-31.2 37.4-50.5 26.1 -24.3-14.3-15.3-39.8-54.7-27.1 -48.4 38.8-53.7 33.2-16.3 83.6 5.1-3.9 10.2-7.8 15.2-11.8 0 36.3 0 72.6 0 108.8 0 43.9 31.3 26.9 71.8 26.9 25.6 0 71.8 14.7 71.8-16 0-39.9 0-79.8 0-119.7 4.9 3.9 9.8 7.8 14.6 11.8 6-8.1 33.7-34.8 32.9-43.9C504.1 139.6 460.8 109.8 451.3 109.7z"/></svg>