<svg xmlns="http://www.w3.org/2000/svg" viewBox="0 0 768 430"><style>.a{fill:#A8A7B8;}</style><path d="M461.4 58.3h-22c-2.9 23.1-22.5 40.9-46.4 40.9 -0.4 0-0.8 0-1.2 0 -0.4 0-0.8 0-1.2 0 -23.8 0-43.5-17.8-46.4-40.9h-22c0 46.5 12.8 96.9-35.3 122V387h104.8 104.8V180.2C448.5 155.2 461.4 104.8 461.4 58.3z" fill="#D9D8ED"/><path d="M439.8 58.3h-0.4c-2.9 23.1-22.5 40.9-46.4 40.9 -0.4 0-0.8 0-1.2 0 -0.4 0-0.8 0-1.2 0 -23.8 0-43.5-17.8-46.4-40.9h-0.4c-0.2 28.3 0.2 82.6 46.8 82.6 0.4 0 0.8 0 1.2 0 0.4 0 0.8 0 1.2 0C439.6 140.8 440 86.6 439.8 58.3z" fill="#B1B0C2"/><path d="M430.1 137.6c18.8-19.4 20.1-54.6 19.5-79.3h-5.2v0c0.6 23.9-0.6 57.7-18.1 75.7 -8.1 8.4-19.3 12.7-33.1 12.7 -0.2 0-1.5-0.1-1.5-0.1l-1.3 0.1c-13.9 0-25-4.3-33.1-12.7 -17.4-18-18.7-51.8-18.1-75.7v0h-5.2c-0.6 24.8 0.8 59.9 19.5 79.3 9.2 9.5 21.5 14.3 36.9 14.3 0.3 0 1.3-0.1 1.3-0.1s1.2 0.1 1.5 0.1C408.6 151.8 421 147 430.1 137.6z" class="a"/><rect x="287" y="372.3" width="209.7" height="5.4" class="a"/></svg>