<svg version="1.1" id="Layer_1" xmlns="http://www.w3.org/2000/svg" xmlns:xlink="http://www.w3.org/1999/xlink" viewBox="0 0 768 430" xml:space="preserve">
<path fill="#DDE4D0" d="M451.3,76.7c-8.2-0.1-23.5-3.2-31.3-0.3c-0.4,26.7-31.2,37.4-50.5,26.1c-24.3-14.3-15.3-39.8-54.7-27.1
	c-48.4,38.8-53.7,33.2-16.3,83.6c5.1-3.9,10.2-7.8,15.2-11.8c0,36.3,0,72.6,0,108.8c0,43.9,31.3,26.9,71.8,26.9
	c25.6,0,71.8,14.699,71.8-16c0-39.9,0-79.801,0-119.7c4.9,3.9,9.8,7.8,14.601,11.8c6-8.1,33.699-34.8,32.899-43.9
	C504.1,106.6,460.8,76.8,451.3,76.7z"/>
</svg>
