<svg version="1.1" xmlns="http://www.w3.org/2000/svg" viewBox="0 0 768 430" xml:space="preserve"><style>.s0{fill:#DDE4D0;}.s1{fill:#409D8B;}.s2{fill:none;stroke-width:1.7;stroke:#409D8B;}.s3{fill:#DDE4D0;stroke-width:0.9;stroke:#409D8B;}.s4{fill:none;stroke-linecap:round;stroke-width:1.7;stroke:#409D8B;}</style><g transform="translate(-14.342 -221.8)"><path d="M185.9 349.7c0 0 1.8 20.6-2.2 47.9 -3.6 25.3-5.5 24-6.1 32.6 -0.6 8.6 0.6 22.8 0.6 22.8s88.4 2 112.8 0.6c24.4-1.4 82.9-11.4 82.9-11.4s-0.4-7.5-8.4-11.6c-8.1-4.1-23.8-5.5-33-8.8 -9.2-3.3-36.9-10-51.3-28.3 -14.3-18.3-27.2-39.8-33.4-42.6 -5.8 0.8-17.9 1.6-33.2 1.2C199.2 351.6 185.9 349.7 185.9 349.7L185.9 349.7z" fill="#DDE4D0"/><path d="M236.4 394.9c0 11-9.2 19.9-20.6 19.9 -11.4 0-20.6-8.9-20.6-19.9 0-11 9.2-19.9 20.6-19.9C227.1 375 236.4 383.9 236.4 394.9z" fill="#409D8B"/><path d="M255.8 440.7c0 1.7-1.4 3-3.2 3 -1.8 0-3.2-1.3-3.2-3 0-1.7 1.4-3 3.2-3C254.4 437.8 255.8 439.1 255.8 440.7zM278.3 440.4c0 1.7-1.4 3-3.2 3s-3.2-1.3-3.2-3c0-1.7 1.4-3 3.2-3S278.3 438.8 278.3 440.4z" class="s2"/><path d="M252.6 365.2c-0.8 1.4-2.8 1.6-4.5 0.6 -1.7-1-2.5-3-1.7-4.3 0.8-1.4 2.8-1.6 4.5-0.6C252.6 361.9 253.4 363.8 252.6 365.2zM261.5 381.2c-0.8 1.4-2.8 1.6-4.5 0.6 -1.7-1-2.5-3-1.7-4.3 0.8-1.4 2.8-1.6 4.5-0.6C261.5 377.9 262.2 379.8 261.5 381.2zM271.3 395.7c-0.8 1.4-2.8 1.6-4.5 0.6 -1.7-1-2.5-3-1.7-4.3 0.8-1.4 2.8-1.6 4.5-0.6C271.3 392.4 272 394.3 271.3 395.7zM284.2 408.6c-0.8 1.4-2.7 1.7-4.4 0.6 -1.7-1-2.5-3-1.7-4.4 0.8-1.4 2.7-1.7 4.4-0.6C284.2 405.2 285 407.2 284.2 408.6zM299.5 417.3c-0.5 1.5-2.4 2.1-4.3 1.4 -1.9-0.7-3-2.6-2.5-4.1 0.5-1.5 2.4-2.1 4.3-1.4C298.9 413.9 300 415.8 299.5 417.3zM315.9 423.6c-0.5 1.2-2.4 1.7-4.2 1.1 -1.8-0.6-2.9-2.1-2.4-3.3 0.5-1.2 2.4-1.7 4.2-1.1C315.3 420.9 316.4 422.3 315.9 423.6zM332.4 427.9c-0.5 1.2-2.4 1.7-4.2 1.1 -1.8-0.6-2.9-2.1-2.4-3.3 0.5-1.2 2.4-1.7 4.2-1.1C331.8 425.2 332.9 426.7 332.4 427.9zM349.6 431.1c-0.3 1.2-2 1.9-3.9 1.7 -1.9-0.3-3.2-1.4-2.9-2.6 0.3-1.2 2-1.9 3.9-1.7C348.5 428.7 349.8 429.9 349.6 431.1z" fill="#409D8B"/><path d="M392 435.6c-1.8-3.3-4.2-6-7.7-6.8 -7.2-1.8-20.9-0.5-25.1 0 -4.2 0.5 8.8 10.7 13.9 13.6C376.7 440.8 389.8 438.5 392 435.6L392 435.6zM176 448.3c0 0 55.4 2.2 94.7 1.7 39-0.6 100.6-6.9 121.5-16.7 0.6 1.9 2.9 3.7 3.7 5.8 0.9 2.6 3.6 13 2 16.9 -1.6 3.9-27.3 10.3-46.9 13.4 -19.6 3.1-46 3.2-66.8 3.2 -20.8 0-66 2.4-83.3 1.9 -17.3-0.6-22.5-2-25.9-4.7C174.4 465 176 448.3 176 448.3L176 448.3z" class="s3"/><path d="M336.8 445c2.1 8.4 4.4 19.6 5 25.9M175.9 451.6l4 0.7 -0.2 19.8M179.7 464.3c0 0 4.5 1.8 11.7 1.9 7.2 0.1 43.5-0.8 54.6-0.8 9.9 0 45.3-0.5 58.6-1.1 14.4-0.6 35.8-3.1 35.8-3.1" fill="#409D8B"/><path d="M234.6 353c9.8 15.8 11.9 29.9 26 45.7 14 15.8 25.4 25.5 44.8 30.5 19.3 5 61.5 10.2 61.5 10.2" class="s4"/><path d="M248.8 362.1c0.5 1.4 0.8 1.6 1.3 2.5 6.2-0.3 7-2.7 11.1-2.8 -0.2-1.3-2.2-4.5-3.9-5.4C252.7 357.5 251.8 358.5 248.8 362.1L248.8 362.1zM257.4 378c0.5 1.4 1 1.6 1.5 2.4 6.2-0.3 7-2.4 11.1-2.4 -0.2-1.3-2.2-4.5-3.9-5.4C261.6 373.7 260.5 374.4 257.4 378L257.4 378zM268 392.2c0.5 1.4 0.3 1.9 0.8 2.8 5.1-4 7.6-4.2 10.9-6.6 -0.2-1.3-2-3.8-3.7-4.6C271.6 384.9 271.1 388.6 268 392.2L268 392.2zM280.3 405.4c0.5 1.4 0.8 1.6 1.3 2.5 4.6-1 7.7-5.1 9.8-6.4 -0.2-1.3-2.1-2.7-3.7-3.5C283.1 399.1 280.2 403.2 280.3 405.4L280.3 405.4zM294.9 414.9c0.5 1.4 1.1 1.5 2.4 1.8 4.3-2.5 4.3-5.5 5.1-7.9 -0.2-1.3-3.4-2-5-2.8C296 409.5 296.2 412.5 294.9 414.9L294.9 414.9zM310.9 421.9c1 0.6 2.2 0.9 3.6 0.9 1.2-3.5 1.5-6.4 1.5-8.9 -0.7-1.2-3.8-2.1-5.7-2.4C311.5 414.4 311.3 419.2 310.9 421.9L310.9 421.9zM327.8 426.4c1.1 1 1.8 1.2 3.1 0.8 1.8-2.7 0.8-5.8-0.2-7.3 -0.8-1-2.8-1.5-4.7-1.4C326.2 421.2 326.8 423.6 327.8 426.4L327.8 426.4zM344.7 430.2c1.1 1 1.7 0.8 3 0.4 1.6-2 1.4-3.3 0.7-5.2 -0.8-1-4.2-1.8-6.1-1.7C342.7 425.2 344.6 427.4 344.7 430.2L344.7 430.2z" fill="#409D8B"/></g><g transform="translate(-14.342 -221.8)"><path d="M627.8 345.8c0 0-13.4 2-28.7 2.4 -15.3 0.4-27.4-0.4-33.2-1.2 -6.2 2.9-19.1 24.4-33.4 42.6 -14.3 18.3-42 25-51.3 28.3 -9.2 3.3-24.9 4.7-33 8.8 -8.1 4.1-8.4 11.6-8.4 11.6s58.5 10 82.9 11.4c24.4 1.4 112.8-0.6 112.8-0.6s1.2-14.1 0.6-22.8c-0.6-8.6-2.5-7.3-6.1-32.6C626 366.4 627.8 345.8 627.8 345.8L627.8 345.8z" fill="#DDE4D0"/><path d="M597.9 371.1c11.4 0 20.6 8.9 20.6 19.9 0 11-9.2 19.9-20.6 19.9 -11.4 0-20.6-8.9-20.6-19.9C577.3 380.1 586.5 371.1 597.9 371.1z" fill="#409D8B"/><path d="M561 433.9c1.8 0 3.2 1.3 3.2 3 0 1.7-1.4 3-3.2 3 -1.8 0-3.2-1.3-3.2-3C557.8 435.2 559.3 433.9 561 433.9zM538.6 433.6c1.8 0 3.2 1.3 3.2 3 0 1.7-1.4 3-3.2 3 -1.8 0-3.2-1.3-3.2-3C535.4 434.9 536.8 433.6 538.6 433.6z" class="s2"/><path d="M562.8 357c1.7-1 3.7-0.7 4.5 0.6 0.8 1.4 0 3.3-1.7 4.3 -1.7 1-3.7 0.7-4.5-0.6S561.1 358 562.8 357zM553.9 373c1.7-1 3.7-0.7 4.5 0.6 0.8 1.4 0 3.3-1.7 4.3 -1.7 1-3.7 0.7-4.5-0.6C551.5 375.9 552.2 374 553.9 373zM544.1 387.5c1.7-1 3.7-0.7 4.5 0.6 0.8 1.4 0 3.3-1.7 4.3 -1.7 1-3.7 0.7-4.5-0.6C541.6 390.5 542.4 388.6 544.1 387.5zM531.1 400.3c1.7-1.1 3.7-0.8 4.4 0.6 0.8 1.4 0 3.4-1.7 4.4 -1.7 1.1-3.7 0.8-4.4-0.6C528.7 403.4 529.5 401.4 531.1 400.3zM516.6 409.3c1.9-0.7 3.8-0.1 4.3 1.4 0.5 1.5-0.6 3.3-2.5 4.1 -1.9 0.7-3.8 0.1-4.3-1.4C513.6 411.9 514.7 410.1 516.6 409.3zM500.2 416.4c1.8-0.6 3.7-0.1 4.2 1.1 0.5 1.2-0.6 2.7-2.4 3.3 -1.8 0.6-3.7 0.1-4.2-1.1C497.3 418.5 498.4 417 500.2 416.4zM483.7 420.8c1.8-0.6 3.7-0.1 4.2 1.1 0.5 1.2-0.6 2.7-2.4 3.3 -1.8 0.6-3.7 0.1-4.2-1.1C480.8 422.9 481.9 421.4 483.7 420.8zM467 424.6c1.9-0.3 3.6 0.5 3.9 1.7 0.3 1.2-1 2.3-2.9 2.6 -1.9 0.3-3.6-0.5-3.9-1.7C463.8 426 465.2 424.9 467 424.6z" fill="#409D8B"/><path d="M421.7 431.7c2.2 3 15.3 5.2 18.9 6.7 5.2-2.9 18.2-13.1 13.9-13.6 -4.2-0.5-18-1.7-25.1 0C425.9 425.7 423.5 428.4 421.7 431.7L421.7 431.7zM637.7 444.5c0 0 1.6 16.6 1.1 21.5 -3.4 2.7-8.6 4.2-25.9 4.7 -17.3 0.6-62.5-1.9-83.3-1.9 -20.8 0-47.2 0-66.8-3.2 -19.6-3.1-45.4-9.5-46.9-13.4 -1.6-3.9 1.1-14.3 2-16.9 0.8-2.2 3.1-4 3.7-5.8 20.8 9.8 82.4 16.1 121.5 16.7C582.3 446.7 637.7 444.5 637.7 444.5L637.7 444.5z" class="s3"/><path d="M471.9 467.1c0.6-6.3 2.9-17.6 5-25.9M634 468.3l-0.2-19.8 4-0.7M473.2 457.3c0 0 21.4 2.4 35.8 3.1 13.3 0.6 48.8 1.1 58.6 1.1 11.1 0 47.4 1 54.6 0.8 7.2-0.1 11.7-1.9 11.7-1.9" fill="#409D8B"/><path d="M446.9 435.6c0 0 42.1-5.3 61.5-10.2 19.3-5 30.7-14.7 44.8-30.5 14-15.8 16.2-29.9 26-45.7" class="s4"/><path d="M564.9 358.2c-3.1-3.6-3.9-4.6-8.5-5.7 -1.7 0.8-3.6 4.1-3.9 5.4 4.1 0 4.8 2.5 11.1 2.8C564.2 359.9 564.5 359.6 564.9 358.2L564.9 358.2zM556.3 374.1c-3.1-3.6-4.2-4.3-8.8-5.4 -1.7 0.8-3.6 4.1-3.9 5.4 4.1 0 4.9 2.1 11.1 2.4C555.2 375.8 555.8 375.5 556.3 374.1L556.3 374.1zM545.6 388.4c-3.1-3.6-3.5-7.4-8-8.5 -1.7 0.8-3.4 3.3-3.7 4.6 3.3 2.5 5.8 2.7 10.9 6.6C545.4 390.3 545.2 389.8 545.6 388.4L545.6 388.4zM533.4 401.5c0.1-2.1-2.8-6.3-7.3-7.4 -1.7 0.8-3.5 2.2-3.7 3.5 2.1 1.3 5.2 5.4 9.8 6.4C532.6 403.2 532.9 402.9 533.4 401.5L533.4 401.5zM518.8 411.1c-1.3-2.5-1.1-5.5-2.5-8.9 -1.7 0.8-4.8 1.5-5 2.8 0.8 2.4 0.8 5.4 5.1 7.9C517.7 412.6 518.3 412.5 518.8 411.1L518.8 411.1zM502.7 418.1c-0.4-2.8-0.6-7.5 0.6-10.3 -1.9 0.2-5 1.2-5.7 2.4 -0.1 2.5 0.3 5.4 1.5 8.9C500.5 419 501.7 418.7 502.7 418.1L502.7 418.1zM485.9 422.6c0.9-2.8 1.6-5.3 1.8-7.9 -1.9-0.1-3.8 0.4-4.7 1.4 -1 1.4-2 4.6-0.2 7.3C484.2 423.8 484.8 423.5 485.9 422.6L485.9 422.6zM469 426.4c0.1-2.8 2-5 2.3-6.6 -1.9-0.1-5.2 0.7-6.1 1.7 -0.7 1.9-0.9 3.2 0.7 5.2C467.3 427.1 467.9 427.3 469 426.4L469 426.4z" fill="#409D8B"/></g></svg>