<svg version="1.1" id="Layer_1" xmlns="http://www.w3.org/2000/svg" xmlns:xlink="http://www.w3.org/1999/xlink" viewBox="0 0 768 430" enable-background="new 0 0 768 430" xml:space="preserve">
<g>
	<g>
		<rect x="379.465" y="100.04" fill-rule="evenodd" clip-rule="evenodd" fill="#F64B8D" width="31.072" height="171.72"/>
		<path fill-rule="evenodd" clip-rule="evenodd" fill="#B71F11" d="M345.678,56.978c0,27.129,22.194,49.322,49.324,49.322
			c27.129,0,49.322-22.193,49.322-49.322V48h-98.646V56.978z M425.973,65.258c-3.676,13.647-16.232,23.785-30.971,23.785
			c-14.742,0-27.296-10.137-30.973-23.785H425.973z"/>
		<path fill-rule="evenodd" clip-rule="evenodd" fill="#B71F11" d="M445.088,265.83c-33.391,0-66.782,0-100.173,0
			c-13.15,0-23.915,10.767-23.915,23.917c0,27.692,0,72.941,0,100.634c49.322,0,98.645,0,147.971,0c0-27.692,0-72.941,0-100.634
			C468.971,276.597,458.236,265.83,445.088,265.83z"/>
		<path fill-rule="evenodd" clip-rule="evenodd" fill="#F64B8D" d="M454.395,293.921c-1.822-9.706-11.395-17.259-21.365-17.259
			c-12.688,0-25.375,0-38.062,0c-12.686,0-25.34,0-38.027,0c-10.003,0-19.544,7.52-21.332,17.259
			c-2.021,10.932-4.175,22.624-6.492,35.146c-2.519,13.516-5.202,45.613-8.116,61.314c24.645,0,49.322,0,73.967,0
			c24.646,0,49.324,0,74.004,0c-2.883-15.734-5.602-47.799-8.084-61.314C458.568,316.545,456.416,304.853,454.395,293.921z"/>
	</g>
</g>
</svg>
