<svg version="1.1" id="Layer_1" xmlns="http://www.w3.org/2000/svg" viewBox="0 0 768 430" enable-background="new 0 0 768 430" xml:space="preserve">
<g>
	<g>
		<g>
			<linearGradient id="SVGID_1_" gradientUnits="userSpaceOnUse" x1="343.7275" y1="302.9141" x2="480.3735" y2="302.9141">
				<stop  offset="0" style="stop-color:#FFD383"/>
				<stop  offset="0.5937" style="stop-color:#FFB872"/>
				<stop  offset="1" style="stop-color:#FFA364"/>
			</linearGradient>
			<path fill="url(#SVGID_1_)" d="M432.289,304.822c0.083-3.355,0.207-5.871,0.207-5.871h-21.997h-0.576h-21.996
				c0,0,0.177,3.596,0.248,7.926c4.726-0.783,36.133-5.98,36.714-5.98C425.219,300.896,428.875,302.904,432.289,304.822z"/>
			<linearGradient id="SVGID_2_" gradientUnits="userSpaceOnUse" x1="343.7271" y1="342.9434" x2="480.373" y2="342.9434">
				<stop  offset="0" style="stop-color:#FFD383"/>
				<stop  offset="0.5937" style="stop-color:#FFB872"/>
				<stop  offset="1" style="stop-color:#FFA364"/>
			</linearGradient>
			<path fill="url(#SVGID_2_)" d="M485.245,350.625c-2.423-8.074-11.842-9.689-11.842-9.689s-25.413-7.531-29.335-9.688
				c-0.758-0.418-1.588-0.93-2.434-1.484c-0.013,1.23-0.184,1.99-0.599,1.961c-16.086-1.164-48.092-21.299-52.854-24.348
				c0.076,5.326-0.018,11.574-0.793,13.645c-1.439,3.836-7.112,8.068-11.035,10.227c-3.922,2.156-29.334,9.688-29.334,9.688
				s-9.42,1.615-11.842,9.689s-9.693,26.471-8.881,27.451c0.411,0.496,42.521,0.488,83.914,0.361
				c41.393,0.127,83.503,0.135,83.915-0.361C494.938,377.096,487.667,358.699,485.245,350.625z"/>
			<path opacity="0.8" fill="#EF843C" d="M387.561,306.979c0,0,0.23,0.148,0.621,0.398c-0.003-0.166-0.004-0.336-0.007-0.5
				C387.79,306.941,387.561,306.979,387.561,306.979z"/>
			<linearGradient id="SVGID_3_" gradientUnits="userSpaceOnUse" x1="343.7271" y1="316.3105" x2="480.3729" y2="316.3105">
				<stop  offset="0" style="stop-color:#FFD383"/>
				<stop  offset="0.5937" style="stop-color:#FFB872"/>
				<stop  offset="1" style="stop-color:#FFA364"/>
			</linearGradient>
			<path fill="url(#SVGID_3_)" d="M441.635,329.764c-3.529-2.312-7.439-5.648-8.601-8.742c-0.905-2.414-0.885-10.516-0.745-16.199
				c-3.414-1.918-7.07-3.926-7.4-3.926c-0.581,0-31.988,5.197-36.714,5.98c0.003,0.164,0.004,0.334,0.007,0.5
				c4.763,3.049,36.769,23.184,52.854,24.348C441.451,331.754,441.622,330.994,441.635,329.764z"/>
			<path opacity="0.5" fill="#EF843C" d="M441.635,329.764c-3.529-2.312-7.439-5.648-8.601-8.742
				c-0.905-2.414-0.885-10.516-0.745-16.199c-3.414-1.918-7.07-3.926-7.4-3.926c-0.581,0-31.988,5.197-36.714,5.98
				c0.003,0.164,0.004,0.334,0.007,0.5c4.763,3.049,36.769,23.184,52.854,24.348C441.451,331.754,441.622,330.994,441.635,329.764z"
				/>
		</g>
		<g>
			<g>
				<path fill="#FFBC64" d="M477.479,211.543c0,0,8.462-21.101,16.411-10.091c7.949,11.009-4.359,35.78-6.411,37.002
					s-8.205-4.588-8.205-4.588L477.479,211.543z"/>
				<path fill="#FFBC64" d="M344.132,213.903c0,0-8.462-21.101-16.411-10.093c-7.949,11.01,4.359,35.78,6.41,37.004
					c2.052,1.223,8.206-4.588,8.206-4.588L344.132,213.903z"/>
			</g>
			<linearGradient id="SVGID_4_" gradientUnits="userSpaceOnUse" x1="410.7754" y1="122.3081" x2="410.7754" y2="314.2716">
				<stop  offset="0" style="stop-color:#FFD383"/>
				<stop  offset="0.3124" style="stop-color:#FFCD7E"/>
				<stop  offset="0.7407" style="stop-color:#FFBB70"/>
				<stop  offset="1" style="stop-color:#FFAD64"/>
			</linearGradient>
			<path fill="url(#SVGID_4_)" d="M410.94,121.762v-0.004c-0.056,0-0.11,0.002-0.165,0.002s-0.11-0.002-0.165-0.002v0.004
				c-37.72-0.103-76.756,23.951-75.231,65.503c0.195,5.318,4.337,80.692,9.929,89.778c6.089,9.896,38.565,34.395,65.303,35.562
				v0.029c0.054-0.002,0.11-0.014,0.165-0.016c0.055,0.002,0.11,0.014,0.165,0.016v-0.029c26.737-1.168,59.213-25.666,65.303-35.562
				c5.591-9.086,9.732-84.459,9.928-89.778C487.696,145.713,448.659,121.659,410.94,121.762z"/>
			<path opacity="0.2" fill="#F39200" d="M433.438,124.59c19.51,11.872,33.455,32.354,32.531,59.864
				c-0.086,2.593,8.098,30.676-1.533,43.546c4.468,5.713-5.294,49.152-8.395,54.664c-3.676,6.533-16.985,18.865-32.825,27.914
				c23.569-6.221,47.795-25.125,52.969-33.535c5.592-9.086,9.733-84.459,9.929-89.778
				C487.332,154.064,462.648,132.051,433.438,124.59z"/>
			<path opacity="0.1" fill="#FFFFFF" d="M362.983,289.42c-7.374-5.391-12.886-10.662-14.968-14.043
				c-4.498-7.311-8.897-72.901-9.457-88.229c-0.722-19.648,8.274-36.668,24.736-48.066c-9.686,12.631-14.568,28.152-13.998,45.245
				c0.029,0.87,4.025,89.064,10.329,100.351C360.43,286.117,361.568,287.717,362.983,289.42z"/>
			
				<radialGradient id="SVGID_5_" cx="403.7686" cy="10421.9453" r="40.2731" gradientTransform="matrix(1 0 0 0.4476 0 -4406.2217)" gradientUnits="userSpaceOnUse">
				<stop  offset="0" style="stop-color:#FFFFFF"/>
				<stop  offset="0.0175" style="stop-color:#FFFDFA"/>
				<stop  offset="0.1726" style="stop-color:#FFE9D0"/>
				<stop  offset="0.3312" style="stop-color:#FFD9AE"/>
				<stop  offset="0.4917" style="stop-color:#FFCD93"/>
				<stop  offset="0.6547" style="stop-color:#FFC480"/>
				<stop  offset="0.822" style="stop-color:#FFBF75"/>
				<stop  offset="1" style="stop-color:#FFBD71"/>
			</radialGradient>
			<path opacity="0.31" fill="url(#SVGID_5_)" d="M393.403,257.508c12.249,4.264,36.062,0.951,37.647-0.984
				c-0.261-7.09-7.121-17.723-7.738-21.057c0,0-19.266-2.471-22.353,0C399.602,241.764,393.403,252.002,393.403,257.508z"/>
			<path fill="#EA9D49" d="M431.078,256.377c-3.156,0.762-17.645,4.227-37.675,1.131c-0.149,0.799,8.081,5.988,18.036,7.471
				C416.249,266.111,431.931,257.27,431.078,256.377z"/>
			<path opacity="0.3" fill="#DD9544" d="M423.895,257.766c1.441-0.744-1.242-20.574-0.845-20.971
				c2.782,6.559,6.361,8.398,8.028,19.582C428.644,257.32,426.131,257.568,423.895,257.766z"/>
		</g>
	</g>
	<linearGradient id="SVGID_6_" gradientUnits="userSpaceOnUse" x1="372.2568" y1="106.8096" x2="409.1856" y2="214.7139">
		<stop  offset="0" style="stop-color:#915418"/>
		<stop  offset="1" style="stop-color:#683C11"/>
	</linearGradient>
	<path opacity="0.2" fill="url(#SVGID_6_)" d="M466.945,167.826c-4.13-0.873-35.903,11.584-54.41,11.584
		c-0.406,0-13.735-0.828-19.158-1.938c-27.564-3.439-38.714-4.596-43.443-5.727c-2.393,3.127-4.329,7.147-4.689,8.366
		c-0.589,1.987,2.449,15.206,2.457,18.604s-5.204,36.616-6.16,37.395c-0.306,0.248-2.208-0.068-2.725-0.111
		c0.051,0.574-0.054-0.277,0,0.297c1.012,0.475,4.143,0.918,4.721,0.447c0.955-0.777,5.762-32.508,5.754-35.907
		s-3.046-16.616-2.457-18.604c0.36-1.222,2.297-5.24,4.69-8.367c4.729,1.129,15.878,2.288,43.442,5.727
		c5.423,1.109,18.753,1.938,19.158,1.938c18.508,0,50.28-12.458,54.41-11.584c1.378,0.291,2.822,1.543,4.162,3.145
		C470.974,170.552,468.891,168.238,466.945,167.826z"/>
</g>
<g>

	<path fill="#3A3A3A" d="M423.251,210.341c0,0,24.65,0.02,48.239,4.834c5.703-1.157-27.005-10.623-31.157-10.623
		C436.181,204.55,427.799,206.637,423.251,210.341z"/>
	<path fill="#3A3A3A" d="M403.276,210.055c0,0-24.649,0.304-48.181,5.391c-5.716-1.091,26.88-10.933,31.032-10.981
		C390.28,204.415,398.686,206.404,403.276,210.055z"/>
	<path opacity="0.8" fill="#EF843C" d="M395.664,284.346c3.062-0.908,17.121-5.023,36.426-0.926c0.157-0.99-7.78-2.297-17.376-4.264
		C410.085,277.689,394.854,283.225,395.664,284.346z"/>
	<path fill="#3A3A3A" d="M428.23,232.738c0,0,8.205,6.021,34.566,3.879c-2.727,2.174-13.157,4.932-24.519,2.379
		C435.356,238.34,428.328,233.541,428.23,232.738z"/>
	<path fill="#3A3A3A" d="M397.129,232.732c0,0-8.329,5.92-34.643,3.455c2.682,2.205,13.054,5.092,24.467,2.678
		C389.888,238.244,397.015,233.533,397.129,232.732z"/>
</g>
<linearGradient id="SVGID_7_" gradientUnits="userSpaceOnUse" x1="322.8613" y1="357.2627" x2="497.1045" y2="357.2627">
	<stop  offset="0" style="stop-color:#5B777F"/>
	<stop  offset="0.2924" style="stop-color:#57767F"/>
	<stop  offset="0.5533" style="stop-color:#4D727F"/>
	<stop  offset="0.8013" style="stop-color:#3A6B7F"/>
	<stop  offset="1" style="stop-color:#26647F"/>
</linearGradient>
<path fill="url(#SVGID_7_)" d="M497.104,377.793c-0.271-2.211-1.657-6.273-4.886-15.348c-1.597-4.486-3.248-9.127-4.154-12.154
	c-2.765-9.211-12.505-11.539-14.136-11.865c-9.716-2.883-25.931-7.939-28.556-9.385c-1.282-0.705-2.645-1.59-3.938-2.545
	c-6.351,8.594-17.788,14.348-30.886,14.348c-13.377,0-25.029-5.996-31.289-14.893c-1.501,1.168-3.142,2.254-4.667,3.092
	c-2.625,1.443-18.838,6.5-28.554,9.383c-1.629,0.326-11.373,2.654-14.136,11.865c-0.907,3.025-2.557,7.66-4.153,12.145
	c-3.231,9.082-4.618,13.146-4.889,15.357h0.081c-0.002,0.029-0.018,0.059-0.018,0.088c0,5.906,38.99,10.693,87.089,10.693
	c48.1,0,87.091-4.787,87.091-10.693c0-0.029-0.016-0.059-0.019-0.088H497.104z"/>
<linearGradient id="SVGID_8_" gradientUnits="userSpaceOnUse" x1="380.127" y1="90.3525" x2="420.117" y2="207.2017">
	<stop  offset="0" style="stop-color:#915418"/>
	<stop  offset="1" style="stop-color:#683C11"/>
</linearGradient>
<path fill="url(#SVGID_8_)" d="M487.387,138.351c-37.902-30.481-96.213-43.469-98.599-42.276s1.192,9.343,1.192,9.343
	s-28.228-9.74-29.817-9.343c-1.591,0.397,8.945,12.126,8.945,12.126s-25.342-5.651-27.083-4.516
	c-1.741,1.137,9.987,11.076,9.987,11.076s-21.79-4.027-38.001,4.417c-0.267,0.811,21.502,5.324,21.502,5.324
	S312.543,135.708,308,142.023c0.32,0.393,25.525-2.612,25.525-2.612s-14.213,10.305-14.471,13.522
	c4.687,2.725,8.723,10.658,10.948,12.479c-0.038,0.215-0.063,0.471-0.093,0.715c-0.716,6.021,1.158,20.662,2.834,34.937
	c0.589,0.038,0.997,0.122,1.37,0.245c0.605,0.197,1.089,0.521,1.876,1.115c0.023,0.36,0.048,0.753,0.073,1.121
	c0.587,9.209,1.44,21.18,2.503,32.875c0.477,0.223,0.979,0.355,1.438,0.393c0.517,0.045,0.981-0.033,1.287-0.281
	c0.955-0.781,6.167-33.997,6.159-37.395s-3.045-16.617-2.456-18.604c0.359-1.22,2.296-5.238,4.689-8.366
	c4.729,1.131,15.878,2.287,43.442,5.727c5.424,1.109,18.753,1.938,19.158,1.938c18.508,0,50.281-12.457,54.41-11.584
	c1.946,0.412,4.029,2.727,5.753,5.265c2.676,3.198,4.923,7.818,5.315,9.144c0.588,1.986-2.449,15.205-2.456,18.604
	c-0.008,2.957,3.934,28.463,5.589,35.569c0.468,0.006,0.997-0.1,1.512-0.309c1.212-12.926,2.174-26.5,2.803-36.479
	c1.347-1.012,1.594-1.014,2.587-1.212c1.171-10.306,2.851-20.602,3.356-27.445C491.759,169.839,494.283,148.535,487.387,138.351z"/>
</svg>
