<svg xmlns="http://www.w3.org/2000/svg" viewBox="0 0 768 430"><style>.a{opacity:0.2;}.b{fill:#32456C;}.c{fill:none;stroke-dasharray:3;stroke-linejoin:round;stroke-width:2;stroke:#D9D0C4;}.d{fill:#1D2A48;}</style><path d="M473.1 369.4c0.4-0.1 0.7-0.2 1.1-0.3 -0.1 1-0.2 1.9-0.3 2.9C473.7 371.1 473.4 370.2 473.1 369.4L473.1 369.4z" class="a"/><path d="M353.3 382c0.4 0.1 0.7 0.2 1.1 0.2 -1.3 3.6-2.8 7-4.4 10.2C351.3 389.2 352.5 385.7 353.3 382L353.3 382z" class="a"/><path d="M421.3 166.1c-20.5-3.2-33.3-10.3-28.2-26.3 5.1-16 33.4-14.7 39.8-1.9C439.2 150.7 429.6 159.7 421.3 166.1z" class="a"/><path d="M309.9 348.6c0.6-1.2 2-1.8 3.3-1.2 1.2 0.6 1.8 2 1.2 3.3 -3.2 7-7.3 12.8-12 17.5" class="b"/><path d="M371.3 357.9c0.4-1.3 1.8-2 3.1-1.6s2 1.8 1.6 3.1c-2.6 8.3-5.5 15.8-8.5 22.2 -3.2 6.9-6.6 12.6-9.8 16.7 -0.8 1.1-2.4 1.3-3.5 0.5s-1.3-2.4-0.5-3.5c3-3.9 6.2-9.3 9.2-15.8C366 373.3 368.8 366 371.3 357.9z" class="b"/><path d="M364.5 361.1c0.4-1.3 1.8-2 3.1-1.6 1.3 0.4 2 1.8 1.6 3.1 -2.5 8.1-5.9 15.6-9.6 22 -4.1 7.2-8.6 13-12.7 16.7 -1 0.9-2.6 0.9-3.5-0.1 -0.9-1-0.9-2.6 0.1-3.5 3.8-3.5 7.9-8.9 11.8-15.6C358.8 376 362.1 368.9 364.5 361.1z" class="b"/><path d="M351.2 363.1c0.4-1.3 1.8-2 3.1-1.6s2 1.8 1.6 3.1c-2.4 7.7-5.4 14.7-8.5 20.8 -3.8 7.4-7.8 13.5-11.3 18 -0.8 1.1-2.4 1.3-3.5 0.4 -1.1-0.8-1.3-2.4-0.4-3.5 3.3-4.3 7.1-10.1 10.8-17.2C346 377.3 348.8 370.5 351.2 363.1z" class="b"/><path d="M345.3 362.5c0.4-1.3 1.8-2 3.1-1.6 1.3 0.4 2 1.8 1.6 3.1 -2.6 8.4-6.4 16.2-10.7 22.7 -4.6 6.9-9.7 12.3-14.6 15.2 -1.2 0.7-2.7 0.3-3.4-0.8 -0.7-1.2-0.3-2.7 0.8-3.4 4.3-2.6 8.9-7.4 13.1-13.7C339.2 377.8 342.8 370.4 345.3 362.5z" class="b"/><path d="M338.8 361.4c0.2-1.3 1.4-2.3 2.8-2.1 1.4 0.2 2.3 1.4 2.1 2.8 -1 7.3-3.7 14.4-7.1 20.5 -4.5 8.1-10.1 14.7-14.4 18.4 -1 0.9-2.6 0.8-3.5-0.2 -0.9-1-0.8-2.6 0.2-3.5 4-3.5 9.2-9.6 13.4-17.1C335.4 374.5 337.9 368 338.8 361.4z" class="b"/><path d="M332.8 358.4c0.4-1.3 1.8-2 3.1-1.6 1.3 0.4 2 1.8 1.6 3.1 -2.4 7.7-5.4 14.7-8.5 20.8 -3.8 7.4-7.8 13.5-11.3 18 -0.8 1.1-2.4 1.3-3.5 0.4 -1.1-0.8-1.3-2.4-0.4-3.5 3.3-4.3 7.2-10.1 10.8-17.2C327.6 372.5 330.4 365.8 332.8 358.4z" class="b"/><path d="M306.6 394.6c3.3-4.3 7.1-10.1 10.8-17.2 3-5.9 5.8-12.6 8.1-20 0.4-1.3 1.8-2 3.1-1.6 1.3 0.4 2 1.8 1.6 3.1 -2.4 7.7-5.4 14.7-8.5 20.8 -3.8 7.4-7.8 13.5-11.3 18 -0.8 1.1-2.4 1.3-3.5 0.4" class="b"/><path d="M300 390.5c3.5-3.2 7-8.2 10.3-14.4 3.4-6.5 6.6-14.2 9.2-22.5 0.4-1.3 1.8-2 3.1-1.6 1.3 0.4 2 1.8 1.6 3.1 -2.7 8.6-6 16.6-9.5 23.3 -3.6 6.7-7.4 12.2-11.3 15.8" class="b"/><path d="M304.7 369.8c4-5.3 7.6-11.7 9.8-18.8 0.4-1.3 1.8-2 3.1-1.6 1.3 0.4 2 1.8 1.6 3.1 -2.4 7.7-6.3 14.6-10.6 20.3" class="b"/><path d="M357 362.5c0.3-1.3 1.7-2.1 3-1.8 1.3 0.3 2.1 1.7 1.8 3 -1.9 7.9-4.4 15-7.1 21.3l0 0 0 0c-3.3 7.6-6.9 14-10.1 18.7 -0.8 1.1-2.3 1.4-3.4 0.6 -1.1-0.8-1.4-2.3-0.6-3.4 3.1-4.5 6.5-10.5 9.6-17.9l0 0C352.7 376.9 355.1 370 357 362.5z" class="b"/><path d="M406.8 353.3c0.4-1.3 1.8-2 3.1-1.6 1.3 0.4 2 1.8 1.6 3.1 -2.5 7.4-6 14.2-10 20.1 -4.4 6.4-9.5 11.8-14.6 15.8 -1.1 0.8-2.6 0.6-3.5-0.4 -0.8-1.1-0.6-2.6 0.4-3.5 4.7-3.7 9.4-8.7 13.5-14.7C401.1 366.6 404.4 360.2 406.8 353.3z" class="b"/><path d="M471.1 346.6c0.1-1.4 1.3-2.4 2.7-2.3 1.4 0.1 2.4 1.3 2.3 2.6 -0.7 8.6-1.9 16.5-3.5 23.4 -1.7 7.4-3.9 13.7-6.3 18.5 -0.6 1.2-2.1 1.7-3.3 1.1 -1.2-0.6-1.7-2.1-1.1-3.3 2.3-4.5 4.3-10.4 5.9-17.4C469.3 362.6 470.5 354.9 471.1 346.6z" class="b"/><path d="M464.3 350.2c0.1-1.4 1.3-2.4 2.7-2.3 1.4 0.1 2.4 1.3 2.3 2.6 -0.7 8.4-2.4 16.4-4.8 23.4 -2.6 7.9-6.1 14.6-9.6 19.3 -0.8 1.1-2.4 1.3-3.5 0.5 -1.1-0.8-1.3-2.4-0.5-3.5 3.2-4.3 6.4-10.5 8.9-17.8C462.1 365.8 463.7 358.2 464.3 350.2z" class="b"/><path d="M458.1 353.6c-0.4-1.3 0.3-2.7 1.6-3.1s2.7 0.3 3.1 1.6c2.6 7.8 4 15.6 4.1 22.5 0.1 7.2-1.1 13.6-3.5 18.5 -0.6 1.2-2.1 1.7-3.3 1.1s-1.7-2.1-1.1-3.3c2.1-4.2 3.1-9.8 3-16.2C461.8 368.2 460.6 361 458.1 353.6z" class="b"/><path d="M452.6 352.8c0.1-1.4 1.3-2.4 2.7-2.3 1.4 0.1 2.4 1.3 2.3 2.6 -0.6 8-2 15.4-3.8 22 -2.2 8.1-5 14.9-7.7 20.1 -0.6 1.2-2.1 1.7-3.3 1.1 -1.2-0.6-1.7-2.1-1.1-3.3 2.6-4.9 5.2-11.5 7.3-19.1C450.7 367.6 452 360.5 452.6 352.8z" class="b"/><path d="M445.6 353.4c0.1-1.4 1.3-2.4 2.7-2.3 1.4 0.1 2.4 1.3 2.3 2.7 -0.7 8.7-2.8 17.2-5.8 24.4 -3.2 7.7-7.5 14.2-12.1 18.2 -1 0.9-2.6 0.8-3.5-0.2 -0.9-1-0.8-2.6 0.2-3.5 4-3.6 7.8-9.4 10.8-16.4C442.9 369.4 445 361.5 445.6 353.4z" class="b"/><path d="M437.1 354.8c-0.2-1.4 0.8-2.6 2.2-2.7 1.4-0.2 2.6 0.8 2.7 2.2 0.9 7.3-0.3 14.7-2.5 21.5 -2.8 8.9-7.3 16.6-11.1 21.3 -0.8 1.1-2.4 1.2-3.5 0.4 -1.1-0.8-1.2-2.4-0.4-3.5 3.4-4.3 7.6-11.5 10.2-19.7C436.8 368 437.9 361.3 437.1 354.8z" class="b"/><path d="M431.1 354.3c0.1-1.4 1.3-2.4 2.7-2.3 1.4 0.1 2.4 1.3 2.3 2.6 -0.6 8-2 15.4-3.8 22 -2.2 8.1-5 14.9-7.7 20.1 -0.6 1.2-2.1 1.7-3.3 1.1 -1.2-0.6-1.7-2.1-1.1-3.3 2.6-4.9 5.2-11.5 7.3-19.1C429.1 369.1 430.5 362 431.1 354.3z" class="b"/><path d="M424.3 355.4c0.1-1.4 1.3-2.4 2.6-2.3 1.4 0.1 2.4 1.3 2.3 2.7 -0.6 8-2 15.4-3.8 22 -2.2 8.1-5 14.9-7.7 20.1 -0.6 1.2-2.1 1.7-3.3 1.1 -1.2-0.6-1.7-2.1-1.1-3.3 2.6-4.9 5.2-11.5 7.3-19.1C422.4 370.1 423.7 363 424.3 355.4z" class="b"/><path d="M418.4 355c0.1-1.4 1.3-2.4 2.7-2.3 1.4 0.1 2.4 1.3 2.3 2.7 -0.7 8.9-2.2 17.4-4.4 24.7 -2.2 7.3-5 13.5-8.3 18 -0.8 1.1-2.4 1.3-3.5 0.5 -1.1-0.8-1.3-2.4-0.5-3.5 3-3.9 5.5-9.6 7.5-16.4C416.3 371.7 417.7 363.6 418.4 355z" class="b"/><path d="M412.5 354.2c0.1-1.4 1.3-2.4 2.7-2.3 1.4 0.1 2.4 1.3 2.3 2.7 -0.6 8-3.1 15.6-6.3 22.2 -4.1 8.3-9.5 15.1-13.9 18.9 -1 0.9-2.6 0.8-3.5-0.3 -0.9-1-0.8-2.6 0.3-3.5 4-3.4 8.9-9.6 12.7-17.3C409.6 368.5 411.9 361.5 412.5 354.2z" class="b"/><path d="M308.2 350.5c21.2 11.5 46.5 24.8 68.3 8.7 16-59.6 1.9-150.7 12.8-171.2 12.8 7.7 20.5 7 26.3 7 -5.1 16.7-25.7 72.5-11.6 96.9 14.1 24.4 10.3 48.1 1.9 62.8 16.7 4.5 48.7 3.8 69.9-7.1l0 0c5.1-22.4 5.1-47.5-19.2-68.6 -24.4-21.2 1.1-92.8-7.7-108.4 8.3-16.7 16.7-39.1 0.6-71.2 -16-32.1-65.4-30.1-90.4-9 -25 21.2-12.8 59-5.8 69.3C327.9 219.9 349.5 302.5 308.2 350.5" class="b"/><path d="M411.1 149.6c-20.5-3.2-33.3-10.3-28.2-26.3 5.1-16 33.3-14.7 39.8-1.9C429.1 134.2 419.5 143.1 411.1 149.6z" fill="#7BCDCB"/><path d="M424.2 136.6c0 6.1-1.1 7.8-6.1 12.8" class="c"/><path d="M357.9 168c-23.5 82.5-4.6 145.4-40.7 186.6" class="c"/><path d="M362.7 173.1c-16 56.4-2.4 134.5-32.5 188.6" class="c"/><path d="M369.6 178.3c-16 56.4 2 133.9-28.1 187.9" class="c"/><path d="M375.1 182.6c-16 56.4 5.7 127.7-20.3 181.8" class="c"/><path d="M382.4 185.7c-16 56.4 7.9 127.9-17.8 179.5" class="c"/><path d="M353.3 160.2c-0.4 1-0.8 2-1.2 3 10.7 13.1 23.1 20.8 36.1 27.6 0.3-0.9 0.7-1.7 1-2.5 0-0.2 0-0.3 0.1-0.3 -13.1-6.7-25.5-14-35.9-28.2C353.5 160 353.5 160.1 353.3 160.2z" class="d"/><path d="M381.4 130.1c0.8-12.7 3.4-28.7 19-43C416 72.7 367.5 94.6 381.4 130.1z" class="d"/><path d="M415.6 195.1c5.6-11.2 11.1-30.7-4.2-45.7l-0.3 0.2c-1.1-0.2-2.8-0.5-3.9-0.7 16.6 14.8 11.4 34.3 4.9 46.3C412.9 195.2 415 195.1 415.6 195.1z" class="d"/><path d="M414.6 150c24.1 5 36 11.1 29.9 47.6 -6.1 36.5-13.7 70.4 6.1 87.1 19.7 16.7 26.3 32.9 18.7 63.8" class="c"/><path d="M414.6 150c21.3 4.8 33.9 11.5 25.2 47.9 -8.7 36.5-17.5 70.1 1.1 86.8 18.5 16.7 24.6 37.3 14.8 68.1" class="c"/><path d="M414.6 150c17.1 4.1 31.2 11.1 21.2 48.5 -10.1 37.3-21.7 66.8-4.8 86.2 16.9 19.4 20.4 42.1 10.1 73.9" class="c"/><path d="M414.6 150c16.9 4.1 24.8 11.1 16.3 49.4 -8.5 38.2-24.8 69.9-8.4 86.7s18.7 43.6 4.9 74.5" class="c"/><path d="M414.6 150c16.6 4.1 15.2 16.5 8.2 49.4 -7 32.9-24.2 70.8-9.9 88.4 14.4 17.6 15.2 37.8 5.1 66.5" class="c"/><path d="M416.8 190.1c-23.2-4.8-56.2-15-66.4-50.8 -10.2-35.8 15-56.6 40.5-63" class="c"/><path d="M417.5 181.9c-23.2-4.8-57.9-14-63-53.1 -2.9-22.3 12.4-39.4 31.9-50.9" class="c"/><path d="M419.5 174.8c-23-5.2-54.2-16-58.9-51.8 -2.6-20.1 12.1-34.9 29.4-46.1" class="c"/><path d="M418.1 163.6c-55.8-6.3-73.2-55.8-21.1-87" class="c"/><path d="M381.3 133.4c-17.9-23.4 6.5-56.9 31.5-57" class="c"/><path d="M384 118.4c8.3-37.4 61.8-63.4 74.2 12.3" class="c"/><path d="M391.9 111c18.9-32.6 74.2-17.6 63.6 40" class="c"/><path d="M401.4 109.7c33.4-24.7 63.6 16.6 50.1 53.3" class="c"/><path d="M411.9 111.9c11.7-1.2 44.3 3.2 38.2 54.8" class="c"/><path d="M423.9 121.5c14.3 6.6 19.5 9.9 22.4 41.5" class="c"/><path d="M425.4 131.7c9.5 6.6 12.4 12.1 9.9 20.8" class="c"/><path d="M449 170.7c0.6-1.2 0.9-1.8 1.5-3 -5.4-16.4-21.4-21.7-37.2-19.8l0 0 0 0 0 0 0 0 0 0 0 0 -0.1 0 0 0 0 0 0 0 0 0 0 0 0 0 0 0 0 0 0 0 0 0 0 0 -0.1 0 0 0 -0.1 0.1 0 0 0 0 0 0 0 0 0 0 0 0 0 0 -0.1 0 0 0 -0.1 0.1 0 0 -0.1 0 0 0 0 0 0 0 0 0 0 0 0 0 0 0 0 0 0 0 0 0 0 0 0 0 0 0 0 0 0 0 0 0 0 0 0 0 0 0 0 0 0 0 0 0 -0.5 0.4C421.8 150.7 442.6 150.3 449 170.7L449 170.7zM411 149.5l-0.1 0 0 0L411 149.5z" class="d"/></svg>