<svg xmlns="http://www.w3.org/2000/svg" viewBox="0 0 768 430"><style>.a{fill:#735629;}.b{fill:#543E3A;}.c{fill:#FCCA6F;}.d{fill:#4F3B37;}.e{fill:#3A2826;}.f{stop-color:#FFF;}.g{stop-color:#81654E;}</style><path d="M359.1 310.5c-0.1 3.6 2.2 7 7 10.4 11.5 9 27.3 10.9 38.7 10.9 14.5 0 27.3-3.1 31.7-5.3 2.7-1.4 4-3.2 3.5-5.4 -0.7-3.6-6.2-7.9-13.8-8.6 -11.2-1-35-7.1-45.5-14 -2.4-1.6-4.7-4.4-5.6-6.7C364.2 299.3 359.1 305.2 359.1 310.5z" fill="none"/><path d="M152.1 264.3c-1.3 1.8-3 3.2-4.8 4.1 0.2 0.8 0.4 1.9 0.8 3 1.3-2.8 2.8-5.2 4.1-6.9C152.1 264.4 152.1 264.3 152.1 264.3z" class="a"/><path d="M657.6 278.5c-10.3-1.2-18.6-4.5-30.2-10 -2.7 2.7-8.5 3.3-14.3 1.1 -6.6-2.5-10.8-7.5-10-11.7 -5-1.6-10.2-2.7-15.2-3.4 -2.4 2.7-5.5 6-7 6.9 -2.4 1.4-15.5 5.1-19.5-3.2 -1.4 1.1-2.5 2.4-3.3 4 -6.5 13-1.8 21.6 17.2 31.8 4.3 1.1 11.5 1.8 11.5 1.8 0 0-3.4 0.4-6.9 0.3 -0.4 3.4-2.5 7.6-7 8.1 -9.7 1.2-23.5-7.3-25.7-11.4 -1.2-2.1-0.5-5.5 0.4-8.3 -5-2.4-10.3-5.1-15.8-7.9 -2 3.4-6 6.3-9 5.5 -4.6-1.2-18-7.7-19.6-12.9 -0.7-2.3-0.8-5.2-0.6-7.7 -2.9-1.5-5.7-2.9-8.5-4.4 -4.7 8.2-10 16.3-14.8 24.6 -0.3 0.8-0.5 1.5-0.8 2.2 5.1 3 9.5 6.1 13 9.2 0.1-4.7 1.9-8.1 5.8-9.1 11.8-3 23.2 4.3 25.1 12.6 1.2 5.3-1.4 14-3.5 19.6 7.7 3.2 14.2 5.9 18.9 8.2 0.3-5.3 2.3-10.7 4.3-14.4 3.1-5.7 15.6-2.8 21-0.5 5.4 2.3 5.4 10.1 8 16.4 1.4 3.4 3.9 6.2 5.9 8 6.5-0.2 12.3-1.2 17.2-2.5 -0.4-2.7-1.4-5.7-2.2-8 -1.4-4 0.5-8.3 3.5-10.6 3-2.3 6.9-10.3 8.8-12.6 1.3-1.5 6.5-1.9 9.9-2.1 -1-4.2-2.5-7.8-4.3-10.1 -14.9-16.2-33.9-18.7-34-18.7 0 0 9 0.5 19.6 5.9 1.9-2.1 4.8-4.6 7.4-3.6 4.4 1.6 14.7 5.1 17.2 5.3 1.8 0.1 3.9 7.9 4.7 13.3 3.9 0.7 7.8 1.2 11.6 1.4 1-3.8 2.8-9.4 4.4-10.1 2.5-1.1 13.6 0.1 15.9 2.1 1.2 1.1 1.8 4 1.9 6.5 5.4-1.3 8.8-3 10.2-4.1 1.1-0.9 2.3-2.1 2-3.2C670.7 282.1 668.8 279.8 657.6 278.5zM597.4 285.3c2.9 0 5.2 3.9 5.2 8.7 0 4.8-2.3 8.7-5.2 8.7 -2.9 0-5.2-3.9-5.2-8.7C592.2 289.2 594.5 285.3 597.4 285.3zM577.5 273.6c4.1 2.2 6.4 6.1 5.1 8.5 -1.3 2.5-5.8 2.7-9.9 0.4 -4.1-2.2-6.4-6.1-5.1-8.5C568.9 271.5 573.4 271.4 577.5 273.6z" class="b"/><path d="M478.2 283.7c0.1 0.1 0.2 0.1 0.3 0.2 0.3-0.7 0.5-1.4 0.8-2.2C479 282.4 478.6 283.1 478.2 283.7z" class="c"/><path d="M571.2 325.9c-2.6-6.3-2.6-14.1-8-16.4 -5.4-2.3-17.9-5.2-21 0.5 -2 3.6-4 9.1-4.3 14.4 1 0.5 1.9 0.9 2.7 1.3 10.6 5.4 22.5 8.2 34.4 8.2 0.7 0 1.4 0 2.1 0C575.1 332.1 572.6 329.3 571.2 325.9zM556 328c-2.5 0-4.4-2-4.4-4.4 0-2.5 2-4.4 4.4-4.4s4.4 2 4.4 4.4C560.5 326.1 558.5 328 556 328z" class="c"/><path d="M522.5 296.7c-1.9-8.3-13.3-15.6-25.1-12.6 -3.9 1-5.7 4.4-5.8 9.1 1.4 1.2 2.7 2.4 3.8 3.7 2.7 2.9 5.1 7.3 6.8 12.6 6 2.4 11.7 4.7 16.9 6.9C521.1 310.7 523.7 302 522.5 296.7z" class="c"/><path d="M595.6 312.7c-3 2.3-4.8 6.7-3.5 10.6 0.8 2.4 1.8 5.3 2.2 8 5.7-1.6 10.3-3.8 13.3-5.8 4.9-3.3 6.6-9 7.3-13.2 0.7-4.8 0.4-9.9-0.6-14.3 -3.4 0.1-8.7 0.6-9.9 2.1C602.4 302.4 598.6 310.4 595.6 312.7z" class="c"/><path d="M580.9 261.4c1.5-0.9 4.6-4.2 7-6.9 -3.3-0.5-6.5-0.7-9.5-0.7 -5.6 0-12.6 0.9-17 4.5C565.4 266.5 578.6 262.8 580.9 261.4z" class="c"/><path d="M503.2 269.2c1.6 5.2 15 11.7 19.6 12.9 3 0.7 7-2.1 9-5.5 -6.2-3.2-12.6-6.5-19-9.8 -3.4-1.8-6.8-3.5-10.2-5.3C502.5 264 502.5 266.9 503.2 269.2z" class="c"/><path d="M641 281.6c-1.7 0.7-3.4 6.4-4.4 10.1 2.1 0.1 4.1 0.2 6.1 0.2 6.6 0 11.9-0.7 16.1-1.7 -0.2-2.5-0.7-5.4-1.9-6.5C654.6 281.7 643.5 280.5 641 281.6z" class="c"/><path d="M613.1 269.6c5.8 2.2 11.6 1.6 14.3-1.1 -2.4-1.1-4.9-2.3-7.6-3.6 -1.6-0.8-3.3-1.6-5-2.4 -3.6-1.7-7.6-3.3-11.7-4.5C602.3 262 606.6 267.1 613.1 269.6z" class="c"/><path d="M620.2 277c-2.5-0.2-12.9-3.7-17.2-5.3 -2.6-1-5.5 1.4-7.4 3.6 5.1 2.6 10.5 6.3 15.5 11.6 4.7 1.4 9.3 2.6 13.9 3.4C624.1 284.9 622.1 277.1 620.2 277z" class="c"/><path d="M547.2 292.7c2.2 4.1 16.1 12.6 25.7 11.4 4.5-0.5 6.6-4.6 7-8.1 -0.3 0-0.6 0-0.8 0l0.3 0.2 -1.5-0.2c-1.1-0.1-2.1-0.2-3-0.5 -5.1-0.8-15.1-5.1-27.3-11C546.7 287.2 546.1 290.6 547.2 292.7z" class="c"/><path d="M672.4 282.5c-0.8-2.7-5.6-4.5-14.6-5.6 -12.2-1.4-21.6-6-37.3-13.5 -1.6-0.8-3.3-1.6-5-2.4 -11.2-5.4-25.8-8.9-37-8.9 -11.2 0-18.7 3.2-21.7 9.3 -7 14.1-0.5 22.8 12.5 30.8 -12.1-4.3-34.2-15.8-55.7-26.9 -24.1-12.5-46.9-24.3-57.2-27.1 -7.9-2.2-16.2-3.2-24.7-3.2 -3.5 0-6.7 0.2-9.5 0.5 0.1-5.4-1-10.8-3.4-16.1 -7.8-17.5-25-27.5-47.4-27.5 -17.1 0-35.9 6.1-53.1 17.1 -18.3 11.5-34.7 15.6-43.9 15.6 -2 0-3.8-0.2-5.1-0.6 -1.3-0.4-2.7-1.2-4.5-2.3 -5-3.1-12.6-7.7-28.3-7.7 -7.7 0-16.7 1.2-26.8 3.4l0 0c-0.1 0-0.1 0-0.2 0.1 -0.5 0.1-0.9 0.2-1.4 0.3 -0.2 0.1-0.3 0.2-0.5 0.3 -0.2 0.1-0.6 0.2-1.1 0.5 -6 2.2-12.6 5-13.6 11 0.2 0 0.4-0.3 0.7-0.7 0.5-0.7 1.1-1.9 1.8-2.6 1.8-2.5 8.1-5.3 14.6-7.3 10-2.2 18.9-3.4 26.5-3.4 14.7 0 22.1 4.2 26.9 7.1 0.2 0.1 0.4 0.2 0.6 0.3 1.8 1.1 3.3 2 4.8 2.5 1.5 0.4 3.3 0.7 5.6 0.7 2.2 0 4.8-0.2 7.7-0.7 0.8-0.1 1.6-0.3 2.4-0.5 7.5-1.5 16.7-4.7 26.8-10.1 2.6-1.4 5.2-2.9 7.9-4.5 1.4-0.9 2.8-1.7 4.2-2.5 11.8-6.9 24.3-11.5 36.3-13.3 4-0.6 8-0.9 11.8-0.9 16.4 0 30 5.5 38.9 15.5 2.9 3.2 5.3 6.9 7.1 11.1 2.6 5.7 3.6 11.5 3.1 17.3 -0.8 9.2-5.3 18.4-13.7 27.5l-0.1 0.1c-4.9 5.3-10.9 10.5-18.4 16 -2 1.4-4.2 2.9-6.6 4.5 -1.9 1.3-3.9 2.6-6 4 -1.3 0.9-2.5 1.7-3.6 2.5 -9.8 7.1-14.5 13.1-14.6 18.5 0 1.6 0.4 3.2 1.1 4.7 0 0 0 0.1 0.1 0.1 1.2 2.3 3.3 4.6 6.4 6.8 3.1 2.4 6.5 4.4 10.1 5.9 6 2.6 12.5 4 18.5 4.7 3.9 0.5 7.6 0.6 11 0.6 8 0 15.8-0.9 22-2.2 4.5-1 8.2-2.1 10.4-3.2 3.2-1.6 4.2-3.6 4.4-5.3 0.1-0.7 0-1.3-0.1-1.8 -0.5-2.4-2.3-4.6-4.9-6.4 -2.8-1.8-6.4-3.2-10.3-3.5 -2.6-0.2-6-0.8-9.7-1.5 -2.5-0.5-5.1-1.1-7.7-1.8 -10.2-2.6-21.1-6.4-27.3-10.5 -2.4-1.6-4.5-4.4-5.2-6.3l0.3-0.2c0 0 0 0 0 0 0 0 0 0 0 0 0.7-0.5 1.5-1 2.3-1.5 3.9-2.5 7.2-4.8 10.3-7 0.5-0.3 0.9-0.7 1.4-1 3.1-2.2 5.9-4.3 8.6-6.6 2.4-2.1 4.7-4.3 7.2-6.9 0.4-0.5 0.9-1 1.3-1.5 20.1 1.1 37.8 5.2 52.3 10.7 14.5 5.5 25.7 12.5 32.7 19.4 0.5 0.5 1 1 1.5 1.6 5.8 6.3 10.5 19.8 7.2 34.7 -0.3 1.2-0.6 2.4-1 3.7 -1.3 4-3.2 8.4-6.4 12.8 -5.4 7.5-14 15.1-27.9 20.8 -8.4 3.5-16.3 6.1-23.9 8 -4.3 1.1-8.5 1.9-12.6 2.5 -5.5 0.8-10.9 1.2-16.2 1.2 -15.5 0-29.2-3.3-44.8-7.2 -0.4-0.1-0.7-0.2-1.1-0.3l-4.1-1c-3.3-0.8-6.4-1.7-9.3-2.7 -24.9-8.4-37-22.8-44.3-35.9 -1-1.8-1.9-3.6-2.8-5.3 -4.6-9.2-5.9-18.1-4-27.2 1.6-7.6 5.5-15.3 11.6-23.5 4-5.4 8.5-9.9 13.1-13.7 3.7-3.1 7.4-5.8 11-8.2 2.4-1.6 4.8-3.1 6.9-4.5 3.8-2.4 7-4.5 9.5-6.5 6-4 10.2-12.6 12.4-18 1.2-2.9 1.8-4.9 1.8-4.9 0 0.1-0.8 2-2.2 4.8 -2.5 5-7 12.7-12.5 16.6 -2-0.9-5.2-1.1-7.6-1.1 -2.9 0-6.3 0.3-9.8 0.9 -5.6 1-11.4 2.7-15.4 5.2 -1 0.6-2.3 1.4-3.7 2.2 -2.2 1.3-4.8 2.7-7.5 4.2 -11.2 6.1-25.5 13.1-29.7 13.1l-0.3 0c-1.5 0-3 0.2-4.5 0.6 0 0-0.1 0-0.1 0 0 0 0 0 0 0 0.6-0.1 1-0.1 1.1 0.1l0.8 0.9 -0.8 0.2c1.2-0.3 2.4-0.4 3.5-0.4l0.3 0c6.5 0 33.8-15 41.6-19.7 6.3-3.8 17.1-5.9 24.4-5.9 2.6 0 4.7 0.2 6.1 0.7 -2.2 1.7-5.1 3.5-8.3 5.6 -9.1 5.8-21.6 13.7-31.4 26.8 -14 18.8-16.4 34.9-7.8 52.4 8 16.2 21.8 35.9 57.5 44.8l4.1 1c16.2 4 30.2 7.5 46.3 7.5 16.5 0 33.4-3.8 53.2-11.9 25.2-10.3 33.6-26.6 36.2-38.4 1.7-7.8 1.3-15.3-0.3-21.6 16.3 6.6 30.1 12.2 37.3 15.8 10.8 5.5 23 8.4 35.1 8.4 15.3 0 27.4-4.5 33.5-8.7 4.2-2.9 7-7.8 7.9-14.2 1.3-8.8-0.8-18.3-4-23.7 10.4 3 20.5 4.6 30.1 4.6 13.5 0 23.6-3.2 27.3-6.1C672 285.7 672.8 284.1 672.4 282.5zM380.6 298.5c10.5 7 34.3 13.1 45.5 14 7.7 0.7 13.1 5 13.8 8.6 0.4 2.2-0.8 4-3.5 5.4 -4.4 2.2-17.2 5.3-31.7 5.3 -11.3 0-27.2-1.9-38.7-10.9 -4.8-3.4-7-6.8-7-10.4 0.1-5.3 5.2-11.3 16-18.7C376 294.1 378.3 296.9 380.6 298.5zM669 286.2c-1.4 1.1-4.8 2.8-10.2 4.1 -4.2 1-9.5 1.7-16.1 1.7 -2 0-4.1-0.1-6.1-0.2 -3.8-0.3-7.7-0.7-11.6-1.4 -4.6-0.8-9.2-1.9-13.9-3.4 -5-5.3-10.4-9.1-15.5-11.6 -10.6-5.4-19.6-5.9-19.6-5.9 0.2 0 19.1 2.5 34 18.7 1.7 2.2 3.3 5.8 4.3 10.1 1 4.4 1.4 9.4 0.6 14.3 -0.6 4.2-2.4 9.9-7.3 13.2 -3 2.1-7.6 4.2-13.3 5.8 -4.9 1.4-10.7 2.4-17.2 2.5 -0.7 0-1.4 0-2.1 0 -11.9 0-23.8-2.8-34.4-8.2 -0.8-0.4-1.7-0.9-2.7-1.3 -4.7-2.2-11.2-5-18.9-8.2 -5.2-2.1-10.9-4.4-16.9-6.9 -1.6-5.3-4.1-9.7-6.8-12.6 -1.1-1.2-2.4-2.4-3.8-3.7 -3.5-3.1-7.9-6.2-13-9.2 -0.1-0.1-0.2-0.1-0.3-0.2 -8.2-4.7-18.4-9-30-12.4 -1.4-0.4-2.9-0.8-4.3-1.2 -10.5-2.7-22.2-4.7-34.8-5.4 3.5-4 6.4-8.1 8.5-12.1 1.8-3.4 3-6.8 3.8-10.2 0.4-1.8 0.7-3.5 0.8-5.3 0-0.3 0-0.5 0.1-0.8 8.7-0.8 20.9-0.8 34 2.8 7.5 2.1 22 9.1 38.4 17.4 -0.1 0.2-0.3 0.4-0.4 0.7 2.8 1.4 5.6 2.9 8.5 4.4 3.4 1.7 6.8 3.5 10.2 5.3 6.4 3.3 12.8 6.6 19 9.8 5.5 2.8 10.8 5.5 15.8 7.9 12.2 5.9 22.2 10.3 27.3 11 0.9 0.2 1.9 0.4 3 0.5l1.5 0.2 -0.3-0.2c0.3 0 0.6 0 0.8 0 3.5 0.1 6.9-0.3 6.9-0.3 -0.1 0-7.3-0.7-11.5-1.8 -19-10.2-23.7-18.8-17.2-31.8 0.8-1.6 2-2.9 3.3-4 4.5-3.6 11.4-4.5 17-4.5 3 0 6.2 0.3 9.5 0.7 5 0.7 10.2 1.9 15.2 3.4 4.1 1.3 8.1 2.8 11.7 4.5 1.7 0.8 3.4 1.6 5 2.4 2.7 1.3 5.2 2.5 7.6 3.6 11.6 5.5 19.9 8.8 30.2 10 11.2 1.3 13 3.6 13.3 4.5C671.2 284.1 670 285.3 669 286.2z" class="b"/><path d="M556 319.2c-2.5 0-4.4 2-4.4 4.4 0 2.5 2 4.4 4.4 4.4s4.4-2 4.4-4.4C560.5 321.1 558.5 319.2 556 319.2z" class="d"/><path d="M457 256.9c4.6-0.2 21.3 4.7 23.8 10.6 1.5 3.6 0.1 9.7-1.5 14.2 4.8-8.3 10.1-16.4 14.8-24.6 -1.9-1-3.8-1.9-5.6-2.8 -2 3.2-9.1 3.5-16.3 0.5 -7.7-3.1-12.6-8.7-11.1-12.5 0.1-0.2 0.2-0.4 0.4-0.6 -2.1-0.8-4-1.5-5.6-1.9 -2.7-0.7-5.5-1.3-8.3-1.8 -2 3.3-4.8 7.2-7.7 8.4 -3.2 1.4-12.1-0.6-18.6-4 -0.8 3.4-2 6.8-3.8 10.2 6-2.7 15.2-2.2 21.7 3.3 5.8 4.9 5.4 11.1 4.6 14.2 1.5 0.4 2.9 0.8 4.3 1.2C449.9 266.2 453.6 257 457 256.9z" class="b"/><path d="M457 256.9c4.6-0.2 21.3 4.7 23.8 10.6 1.5 3.6 0.1 9.7-1.5 14.2 4.8-8.3 10.1-16.4 14.8-24.6 -1.9-1-3.8-1.9-5.6-2.8 -2 3.2-9.1 3.5-16.3 0.5 -7.7-3.1-12.6-8.7-11.1-12.5 0.1-0.2 0.2-0.4 0.4-0.6 -2.1-0.8-4-1.5-5.6-1.9 -2.7-0.7-5.5-1.3-8.3-1.8 -2 3.3-4.8 7.2-7.7 8.4 -3.2 1.4-12.1-0.6-18.6-4 -0.8 3.4-2 6.8-3.8 10.2 6-2.7 15.2-2.2 21.7 3.3 5.8 4.9 5.4 11.1 4.6 14.2 1.5 0.4 2.9 0.8 4.3 1.2C449.9 266.2 453.6 257 457 256.9z" class="b"/><path d="M480.8 267.5c-2.6-5.9-19.2-10.8-23.8-10.6 -3.4 0.1-7 9.3-8.8 14.4 11.7 3.4 21.8 7.7 30 12.4 0.4-0.7 0.8-1.3 1.1-2C480.9 277.2 482.4 271.1 480.8 267.5zM464.7 273.5c-2.2 0-4-1.8-4-4 0-2.2 1.8-4 4-4 2.2 0 4 1.8 4 4C468.7 271.7 466.9 273.5 464.7 273.5z" class="c"/><path d="M480.8 267.5c-2.6-5.9-19.2-10.8-23.8-10.6 -3.4 0.1-7 9.3-8.8 14.4 11.7 3.4 21.8 7.7 30 12.4 0.4-0.7 0.8-1.3 1.1-2C480.9 277.2 482.4 271.1 480.8 267.5zM464.7 273.5c-2.2 0-4-1.8-4-4 0-2.2 1.8-4 4-4 2.2 0 4 1.8 4 4C468.7 271.7 466.9 273.5 464.7 273.5z" class="c"/><path d="M439.2 255.9c-6.6-5.5-15.8-6.1-21.7-3.3 -2.1 4.1-4.9 8.1-8.5 12.1 12.6 0.7 24.3 2.7 34.8 5.4C444.6 267 445 260.8 439.2 255.9z" class="c"/><path d="M439.2 255.9c-6.6-5.5-15.8-6.1-21.7-3.3 -2.1 4.1-4.9 8.1-8.5 12.1 12.6 0.7 24.3 2.7 34.8 5.4C444.6 267 445 260.8 439.2 255.9z" class="c"/><path d="M461.1 242.4c-1.5 3.7 3.4 9.3 11.1 12.5 7.2 3 14.3 2.7 16.3-0.5 -10.6-5.3-20.2-9.9-27.1-12.6C461.3 241.9 461.2 242.1 461.1 242.4z" class="c"/><path d="M461.1 242.4c-1.5 3.7 3.4 9.3 11.1 12.5 7.2 3 14.3 2.7 16.3-0.5 -10.6-5.3-20.2-9.9-27.1-12.6C461.3 241.9 461.2 242.1 461.1 242.4z" class="c"/><path d="M439.9 246.4c2.9-1.2 5.7-5.1 7.7-8.4 -5.2-0.9-10.5-1.4-16-1.4 -3.5 0-6.7 0.2-9.6 0.5 -0.1 1.8-0.4 3.5-0.8 5.3C427.8 245.8 436.8 247.8 439.9 246.4z" class="c"/><path d="M439.9 246.4c2.9-1.2 5.7-5.1 7.7-8.4 -5.2-0.9-10.5-1.4-16-1.4 -3.5 0-6.7 0.2-9.6 0.5 -0.1 1.8-0.4 3.5-0.8 5.3C427.8 245.8 436.8 247.8 439.9 246.4z" class="c"/><path d="M447.6 238c2.8 0.5 5.6 1.1 8.3 1.8 1.6 0.4 3.4 1.1 5.6 1.9 6.9 2.7 16.4 7.3 27.1 12.6 1.8 0.9 3.7 1.9 5.6 2.8 0.1-0.2 0.3-0.4 0.4-0.7 -16.4-8.4-30.9-15.4-38.4-17.4 -13.1-3.6-25.3-3.6-34-2.8 0 0.3 0 0.5-0.1 0.8 2.8-0.3 6-0.5 9.6-0.5C437 236.6 442.4 237.1 447.6 238z" class="e"/><linearGradient gradientUnits="userSpaceOnUse" x1="467.8" y1="246.4" x2="418.6" y2="234.9"><stop offset="0" class="f"/><stop offset="0.2204" class="f"/><stop offset="0.8871" class="g"/><stop offset="1" class="g"/></linearGradient><path d="M447.6 238c2.8 0.5 5.6 1.1 8.3 1.8 1.6 0.4 3.4 1.1 5.6 1.9 6.9 2.7 16.4 7.3 27.1 12.6 1.8 0.9 3.7 1.9 5.6 2.8 0.1-0.2 0.3-0.4 0.4-0.7 -16.4-8.4-30.9-15.4-38.4-17.4 -13.1-3.6-25.3-3.6-34-2.8 0 0.3 0 0.5-0.1 0.8 2.8-0.3 6-0.5 9.6-0.5C437 236.6 442.4 237.1 447.6 238z" fill="url(#SVGID_1_)"/><path d="M464.7 265.5c-2.2 0-4 1.8-4 4 0 2.2 1.8 4 4 4 2.2 0 4-1.8 4-4C468.7 267.3 466.9 265.5 464.7 265.5z" class="d"/><path d="M464.7 265.5c-2.2 0-4 1.8-4 4 0 2.2 1.8 4 4 4 2.2 0 4-1.8 4-4C468.7 267.3 466.9 265.5 464.7 265.5z" class="b"/><path d="M192.7 247.7c6.8-2.5 16-10.8 16.5-13.7 4.1-14.8 24.2-14 29.6-7.9 9.7 0 29.8 13 30.4 25 0.3 8.7 3.9 14.7 6.8 18.2 0 0 0.1 0 0.1 0 0.4-6.5 1.5-18 5-22.4 4.9-6.2 19.9-9.8 22.7-6.5 1.9 2.2 5 9.5 6.8 15.1 2.8-1.5 5.3-2.9 7.5-4.2 0.5-6.8 2.1-22.8 7.3-26.1 6.7-4.1 23.5-6.7 27.3 0 0.3 0.5 0.5 1 0.6 1.5 1.3-0.3 2.9-0.5 4.4-0.6 3.6-1.9 7.5-3.2 11.5-3.4 0 0-0.6 2-1.8 4.9 0.1 0 0.2 0.1 0.3 0.1 3.5 1.2 6.3 3 7.6 5.3 3.5 6.3-3.9 24.9-16 26.9 -7.4 1.3-15.5-1.3-20.7-3.4 -3.5 2.4-7.2 5-10.9 8.2 3.9 0.6 7.7 1.9 8.6 5.4 1.4 5.4-11.5 27.8-18.3 30.3 -3.9 1.4-10.2 2-15 1.6 -1.9 9.1-0.6 18 4 27.2 0.9 1.7 1.8 3.5 2.8 5.3 2.6-3.9 7.2-7.4 13.9-7.1 13 0.6 27.2 11.4 30.7 19.3 2.9 6.4 1 17.6-0.3 23.7 2.9 1 6 1.9 9.3 2.7l4.1 1c0.4 0.1 0.7 0.2 1.1 0.3 0.9-6.6 2.8-15.4 7.3-19.2 7.5-6.4 35.2-7.7 43.7-1.9 6.1 4.2 8.9 19 10 27.1 4.1-0.6 8.3-1.5 12.6-2.5 -3.8-6.9-7.2-19.2-5.4-25.5 2.3-8.3 28.5-21.1 33.6-20.5 6.3 0.7 17.9 11.5 23.6 17.2 3.1-4.4 5.1-8.8 6.4-12.8 -6.4-3.5-17.4-10.2-20.1-13 -3.7-3.9-4.1-13 0-18.9 2.5-3.6 8.2-6.4 12.4-7.9 -6.9-6.9-18.2-13.8-32.7-19.4 -2.5 3.5-4.8 7.1-7.1 10.7 0.8 0.4 1.6 0.8 2.4 1.3 7.7 4.5 12.3 11.2 10.1 14.9 -2.2 3.7-10.2 3-17.9-1.5 -0.8-0.5-1.6-1-2.4-1.5 -1 1.8-2.1 3.5-3.1 5.2 1.3 1.3 2.4 2.7 3.1 4.3 2.5 5.3-0.3 10.2-3.6 12.5 -0.2 1.6-1.2 3.7-4.4 5.3 -2.2 1.1-5.9 2.3-10.4 3.2 2 3.1 3.5 7.3 0.5 9.7 -4.5 3.7-28.7 6.1-33.9-0.5 -2.3-2.9-1.4-5.5 0.4-7.6 -6-0.7-12.5-2.1-18.5-4.7 0.7 3.3 0.5 6.8-1.6 7.9 -3.8 2-11.9 1.4-20.5-4.1 -8.6-5.6-9.9-12.1-6.4-15.4 1.8-1.8 7.1-1.7 11.8-1.2 -2.5-1.5-4.9-3.6-5.3-6.6 -0.9-6.2 11.7-20.4 13.9-20 1.7 0.3 3.9 0 5.1 3.3 1.1-0.8 2.3-1.7 3.6-2.5 2.1-1.5 4.1-2.8 6-4 2.3-1.6 4.6-3.1 6.6-4.5 7.5-5.4 13.6-10.7 18.4-16l0.1-0.1c8.4-9.1 12.9-18.4 13.7-27.5 -7.6-3.5-10.8-16.5-11.2-22.5 -0.1-2.4 0.3-4.3 1-5.8 -8.9-10-22.5-15.5-38.9-15.5 -3.9 0-7.8 0.3-11.8 0.9 0.6 3.4-0.9 7.9-2.2 9.6 -1.9 2.5-17.4 9.9-24.4 9.9 -4.1 0-7.5-3.4-9.7-6.2 -1.4 0.8-2.8 1.7-4.2 2.5 -2.7 1.7-5.3 3.2-7.9 4.5 0 4.4-0.4 11.4-2.6 13 -2.4 1.7-15.5 3.9-24.2-2.9 -0.8 0.2-1.6 0.3-2.4 0.5 -2 4.2-1.5 9.6-3 12.2 -2 3.5-8.1 2.4-9.7-3.8 -0.7-2.7-3.3-7.1-6-11.2 -4.9-3-12.2-7.1-26.9-7.1 -7.6 0-16.6 1.1-26.5 3.4 -6.5 2-12.7 4.9-14.6 7.3 -0.7 0.7-1.3 1.8-1.8 2.6 -3.1 5.8-12.1 13.5-14.2 16.3C176.9 248.2 185.9 250.2 192.7 247.7zM449.7 319.5c8-4.1 15.7-5 17.2-2.1 1.5 2.9-3.8 8.6-11.7 12.7 -8 4.1-15.7 5-17.2 2.1C436.4 329.2 441.7 323.5 449.7 319.5zM353.1 296.2c-6.1 7.2-13.4 11.2-16.2 8.8 -2.8-2.4-0.2-10.2 5.9-17.5 6.1-7.2 13.4-11.2 16.2-8.8C361.8 281.1 359.2 288.9 353.1 296.2zM383.4 200.5c1.4-0.7 8.2-0.3 12.4 2.3 4.2 2.6 5.5 0.8 7.8 5.4 2.3 4.6 5.3 16.8 1.5 18.8 -3.9 1.9-12.9-2.2-15.8-6.9C386.4 215.5 378.7 202.9 383.4 200.5zM400.7 238.6c3.2 2.7 0 11.9-7.1 20.4 -7.2 8.5-15.6 13.2-18.9 10.5 -3.2-2.7-0.1-11.9 7.1-20.4S397.5 235.9 400.7 238.6z" class="b"/><path d="M358.7 315.4c0 0 0-0.1-0.1-0.1 -0.1 0-0.1 0-0.2 0C358.5 315.3 358.6 315.3 358.7 315.4z" class="b"/><path d="M447.5 302.3c7.7 4.5 15.8 5.2 17.9 1.5 2.2-3.7-2.4-10.3-10.1-14.9 -0.8-0.5-1.6-0.9-2.4-1.3 -2.7 4.3-5.2 8.7-7.8 13.1C445.9 301.3 446.7 301.8 447.5 302.3z" class="c"/><path d="M445.1 310.2c-0.8-1.6-1.9-3-3.1-4.3 -1.8 2.9-3.6 5.7-5.4 8.5 2.6 1.8 4.5 4 4.9 6.4 0.1 0.5 0.1 1.1 0.1 1.8C444.9 320.4 447.6 315.5 445.1 310.2z" class="c"/><path d="M357.8 226.1c-1.6 0-3.1 0.2-4.4 0.6 -0.2-0.5-0.4-1-0.6-1.5 -3.9-6.7-20.6-4.1-27.3 0 -5.3 3.2-6.9 19.3-7.3 26.1 1.4-0.8 2.7-1.5 3.7-2.2 4-2.5 9.8-4.2 15.4-5.2C339.5 240.9 347.7 231.3 357.8 226.1zM332.2 236.5c-1.7 0-3-1.3-3-3s1.3-3 3-3c1.7 0 3 1.3 3 3S333.9 236.5 332.2 236.5z" class="c"/><path d="M367.1 227.4c1.4-2.8 2.1-4.7 2.2-4.8 -4 0.2-7.8 1.5-11.5 3.4C360.8 226 364.1 226.5 367.1 227.4z" class="b"/><path d="M367.1 227.4c1.4-2.8 2.1-4.7 2.2-4.8 -4 0.2-7.8 1.5-11.5 3.4C360.8 226 364.1 226.5 367.1 227.4z" class="b"/><path d="M337.1 243.9c3.5-0.6 6.9-0.9 9.8-0.9 2.4 0 5.5 0.2 7.6 1.1 5.6-3.9 10.1-11.6 12.5-16.6 -3-0.9-6.3-1.4-9.3-1.4C347.7 231.3 339.5 240.9 337.1 243.9z" class="c"/><path d="M337.1 243.9c3.5-0.6 6.9-0.9 9.8-0.9 2.4 0 5.5 0.2 7.6 1.1 5.6-3.9 10.1-11.6 12.5-16.6 -3-0.9-6.3-1.4-9.3-1.4C347.7 231.3 339.5 240.9 337.1 243.9z" class="c"/><path d="M359.4 259.9c12.1-2.1 19.6-20.6 16-26.9 -1.3-2.3-4.1-4.1-7.6-5.3 -0.1 0-0.2-0.1-0.3-0.1 -2.2 5.4-6.4 14-12.4 18 -2.4 2-5.7 4.1-9.5 6.5 -2.1 1.4-4.5 2.8-6.9 4.5C343.9 258.7 352 261.2 359.4 259.9z" class="c"/><path d="M281 246.8c-3.4 4.4-4.6 15.9-5 22.4 1.5-0.4 3-0.6 4.5-0.6l0.3 0c4.1 0 18.4-7 29.7-13.1 -1.8-5.5-4.9-12.8-6.8-15.1C300.9 237 285.9 240.6 281 246.8zM298.3 251.1c-0.1 0.4-0.2 0.8-0.4 1.1 -1.1 2.4-3.2 3.7-4.6 3.1 -0.5-0.2-0.9-0.7-1.1-1.4 0 0 0 0 0 0 0 0 0 0 0 0 -0.3-1.1-0.1-2.6 0.6-4.1 1.1-2.4 3.2-3.7 4.6-3.1C298.7 247.4 299.1 249 298.3 251.1z" class="c"/><path d="M480.3 304.2c-4.1 6-3.7 15.1 0 18.9 2.7 2.9 13.7 9.5 20.1 13 0.4-1.3 0.7-2.5 1-3.6 3.3-14.9-1.4-28.4-7.2-34.7 -0.5-0.5-1-1-1.5-1.6C488.6 297.9 482.8 300.6 480.3 304.2zM492.7 314.3c2.1 0 3.9 1.7 3.9 3.9 0 2.1-1.7 3.9-3.9 3.9s-3.9-1.7-3.9-3.9C488.8 316.1 490.6 314.3 492.7 314.3z" class="c"/><path d="M436.8 352.4c-1.8 6.3 1.6 18.6 5.4 25.5 7.6-1.9 15.4-4.6 23.9-8 13.9-5.7 22.6-13.3 27.9-20.8 -5.7-5.6-17.3-16.4-23.6-17.1C465.3 331.3 439.1 344.1 436.8 352.4zM451.5 360.4c-2.5 0-4.4-2.9-4.4-6.4 0-3.6 2-6.4 4.4-6.4s4.4 2.9 4.4 6.4C456 357.5 454 360.4 451.5 360.4z" class="c"/><path d="M419.6 353.3c-8.5-5.8-36.2-4.4-43.7 1.9 -4.5 3.8-6.4 12.6-7.3 19.2 15.7 3.9 29.3 7.2 44.8 7.2 5.3 0 10.7-0.4 16.2-1.2C428.5 372.4 425.7 357.5 419.6 353.3zM386.4 366.3c-2.2 0-4-1.8-4-4s1.8-4 4-4c2.2 0 4 1.8 4 4S388.6 366.3 386.4 366.3zM408.2 369.1c-2.7 0-5-3-5-6.8s2.2-6.8 5-6.8c2.7 0 5 3 5 6.8S410.9 369.1 408.2 369.1z" class="c"/><path d="M354.4 346.8c-3.5-7.9-17.8-18.8-30.7-19.3 -6.7-0.3-11.3 3.2-13.9 7.1 7.4 13.1 19.5 27.5 44.3 35.9C355.5 364.4 357.3 353.2 354.4 346.8zM326.8 341.4c-2.4 0-4.4-2-4.4-4.4 0-2.4 2-4.4 4.4-4.4 2.4 0 4.4 2 4.4 4.4C331.2 339.5 329.2 341.4 326.8 341.4zM347 356.7c0 0 0 0 0 0 -0.6 1-1.5 1.6-2.4 1.6 -1.7 0-3.1-1.9-3.3-4.4 0 0 0 0 0 0 0-0.1 0-0.6 0-0.7 0-2.8 1.5-5.1 3.4-5.1 1.9 0 3.4 2.3 3.4 5.1C347.9 354.7 347.7 355.8 347 356.7z" class="c"/><path d="M318 300.4c6.8-2.4 19.7-24.9 18.3-30.3 -0.9-3.5-4.7-4.8-8.6-5.4 -4.5 3.8-9.1 8.3-13.1 13.7 -6.2 8.3-10 16-11.6 23.5C307.8 302.4 314.2 301.8 318 300.4zM328 274.3c1.4 0 2.6 1.9 2.6 4.2s-1.1 4.2-2.6 4.2c-1.4 0-2.6-1.9-2.6-4.2S326.6 274.3 328 274.3z" class="c"/><path d="M333 213.9c7 0 22.4-7.3 24.4-9.9 1.3-1.7 2.7-6.2 2.2-9.6 -12 1.9-24.4 6.4-36.3 13.3C325.5 210.6 328.9 213.9 333 213.9z" class="c"/><path d="M279 237.6c1.5-2.6 1-8 3-12.2 -2.9 0.5-5.5 0.7-7.7 0.7 -2.2 0-4.1-0.2-5.6-0.7 -1.5-0.4-3-1.4-4.8-2.5 -0.2-0.1-0.4-0.2-0.6-0.3 2.7 4.1 5.3 8.4 6 11.2C270.9 240 277 241.2 279 237.6z" class="c"/><path d="M308.6 227.8c2.2-1.6 2.6-8.5 2.6-13 -10.1 5.4-19.4 8.6-26.8 10.1C293.2 231.8 306.3 229.5 308.6 227.8z" class="c"/><path d="M409.3 214.8c0.4 6 3.6 19 11.2 22.5 0.5-5.8-0.5-11.6-3.1-17.3 -1.8-4.1-4.2-7.8-7.1-11.1C409.6 210.5 409.1 212.4 409.3 214.8z" class="c"/><path d="M393.3 340.4c5.3 6.6 29.4 4.3 33.9 0.5 2.9-2.4 1.5-6.6-0.5-9.7 -6.2 1.3-13.9 2.2-22 2.2 -3.3 0-7.1-0.2-11-0.6C391.9 334.9 391 337.5 393.3 340.4z" class="c"/><path d="M346.6 316.4c-3.5 3.4-2.2 9.9 6.4 15.4 8.6 5.6 16.7 6.2 20.6 4.1 2-1.1 2.2-4.6 1.6-7.9 -3.6-1.5-7-3.4-10.1-5.9 -3.1-2.2-5.2-4.5-6.4-6.8 -0.1-0.1-0.2-0.1-0.3-0.1C353.8 314.7 348.5 314.6 346.6 316.4z" class="c"/><path d="M367 288.7c-2.2-0.4-14.8 13.8-13.9 20 0.4 2.9 2.9 5.1 5.3 6.6 0.1 0 0.1 0 0.2 0 -0.8-1.5-1.1-3.1-1.1-4.7 0.1-5.5 4.8-11.4 14.6-18.5C370.9 288.7 368.7 289 367 288.7z" class="c"/><path d="M425 299.4c4.4-0.4 12.1 1.9 17 6.6 1.1-1.7 2.1-3.5 3.1-5.2 -6.2-4.4-9.6-10-7.7-13.3 1.9-3.3 8.6-3.1 15.5 0.3 2.2-3.6 4.6-7.2 7.1-10.7 -14.5-5.5-32.3-9.6-52.3-10.7 -0.5 0.5-0.9 1-1.3 1.5 0.6 0 1.3 0 2 0 2.6 0.2 5.6 0.9 8.6 2 5.7 2.2 10.1 5.7 11.8 8.9 0.8 1.5 1 2.9 0.5 4.1 -0.4 1-1.2 1.8-2.3 2.4 -1.3 0.7-3.1 1.1-5.3 1.1 0 0 0 0 0 0 -3 0-6.6-0.7-10.3-2.1 -0.2-0.1-0.3-0.1-0.4-0.2 0 0 0 0 0 0 -2.6-1-4.9-2.3-6.8-3.8 0 0 0 0 0 0 -0.2-0.1-0.4-0.3-0.5-0.4 -0.2-0.1-0.3-0.3-0.5-0.4 0 0 0 0-0.1-0.1 -1.7-1.5-3-3-3.7-4.5 0-0.1 0-0.1-0.1-0.1 -2.7 2.3-5.5 4.4-8.6 6.6 9.9 1.1 16 8.5 18.6 14.3 1.7 3.9 0.7 8.8-0.4 12.2 2.7 0.7 5.3 1.3 7.7 1.8C418.1 305.7 421.2 299.7 425 299.4z" class="b"/><path d="M425 299.4c4.4-0.4 12.1 1.9 17 6.6 1.1-1.7 2.1-3.5 3.1-5.2 -6.2-4.4-9.6-10-7.7-13.3 1.9-3.3 8.6-3.1 15.5 0.3 2.2-3.6 4.6-7.2 7.1-10.7 -14.5-5.5-32.3-9.6-52.3-10.7 -0.5 0.5-0.9 1-1.3 1.5 0.6 0 1.3 0 2 0 2.6 0.2 5.6 0.9 8.6 2 5.7 2.2 10.1 5.7 11.8 8.9 0.8 1.5 1 2.9 0.5 4.1 -0.4 1-1.2 1.8-2.3 2.4 -1.3 0.7-3.1 1.1-5.3 1.1 0 0 0 0 0 0 -3 0-6.6-0.7-10.3-2.1 -0.2-0.1-0.3-0.1-0.4-0.2 0 0 0 0 0 0 -2.6-1-4.9-2.3-6.8-3.8 0 0 0 0 0 0 -0.2-0.1-0.4-0.3-0.5-0.4 -0.2-0.1-0.3-0.3-0.5-0.4 0 0 0 0-0.1-0.1 -1.7-1.5-3-3-3.7-4.5 0-0.1 0-0.1-0.1-0.1 -2.7 2.3-5.5 4.4-8.6 6.6 9.9 1.1 16 8.5 18.6 14.3 1.7 3.9 0.7 8.8-0.4 12.2 2.7 0.7 5.3 1.3 7.7 1.8C418.1 305.7 421.2 299.7 425 299.4z" class="b"/><path d="M402.9 279.3c0 0 0 0 0.1 0.1 0.2 0.1 0.3 0.3 0.5 0.4 0.2 0.1 0.4 0.3 0.5 0.4 0 0 0 0 0 0 1.9 1.4 4.1 2.7 6.8 3.8 0 0 0 0 0 0 0.2 0.1 0.3 0.1 0.5 0.2 3.7 1.4 7.3 2.1 10.3 2.1 0 0 0 0 0 0 2.3 0.1 4-0.4 5.3-1.1 1.1-0.6 1.9-1.4 2.3-2.4 0.5-1.2 0.3-2.7-0.5-4.1 -1.7-3.2-6.1-6.7-11.8-8.9 -3-1.2-5.9-1.8-8.6-2 -0.7-0.1-1.4-0.1-2 0 -2.4 2.6-4.7 4.9-7.2 6.9 0 0.1 0 0.1 0.1 0.1C399.9 276.3 401.2 277.9 402.9 279.3z" class="c"/><path d="M402.9 279.3c0 0 0 0 0.1 0.1 0.2 0.1 0.3 0.3 0.5 0.4 0.2 0.1 0.4 0.3 0.5 0.4 0 0 0 0 0 0 1.9 1.4 4.1 2.7 6.8 3.8 0 0 0 0 0 0 0.2 0.1 0.3 0.1 0.5 0.2 3.7 1.4 7.3 2.1 10.3 2.1 0 0 0 0 0 0 2.3 0.1 4-0.4 5.3-1.1 1.1-0.6 1.9-1.4 2.3-2.4 0.5-1.2 0.3-2.7-0.5-4.1 -1.7-3.2-6.1-6.7-11.8-8.9 -3-1.2-5.9-1.8-8.6-2 -0.7-0.1-1.4-0.1-2 0 -2.4 2.6-4.7 4.9-7.2 6.9 0 0.1 0 0.1 0.1 0.1C399.9 276.3 401.2 277.9 402.9 279.3z" class="c"/><path d="M437.4 287.4c-1.9 3.3 1.5 8.9 7.7 13.3 2.6-4.4 5.2-8.7 7.8-13.1C446 284.3 439.4 284.1 437.4 287.4z" class="c"/><path d="M437.4 287.4c-1.9 3.3 1.5 8.9 7.7 13.3 2.6-4.4 5.2-8.7 7.8-13.1C446 284.3 439.4 284.1 437.4 287.4z" class="c"/><path d="M425 299.4c-3.8 0.4-6.9 6.3-8.5 10.1 3.7 0.8 7.1 1.3 9.7 1.5 3.9 0.3 7.6 1.6 10.3 3.5 1.9-2.8 3.7-5.6 5.4-8.5C437.1 301.2 429.4 299 425 299.4z" class="c"/><path d="M425 299.4c-3.8 0.4-6.9 6.3-8.5 10.1 3.7 0.8 7.1 1.3 9.7 1.5 3.9 0.3 7.6 1.6 10.3 3.5 1.9-2.8 3.7-5.6 5.4-8.5C437.1 301.2 429.4 299 425 299.4z" class="c"/><path d="M409.2 295.5c-2.6-5.8-8.7-13.2-18.6-14.3 -0.5 0.3-0.9 0.6-1.4 1 -3.1 2.2-6.4 4.5-10.3 7 -0.8 0.5-1.6 1-2.3 1.5 0 0 0 0 0 0 0 0 0 0 0 0l-0.2 0.2c0.7 1.9 2.8 4.7 5.2 6.3 6.2 4.1 17.2 7.9 27.3 10.5C409.9 304.3 410.9 299.4 409.2 295.5z" class="c"/><path d="M409.2 295.5c-2.6-5.8-8.7-13.2-18.6-14.3 -0.5 0.3-0.9 0.6-1.4 1 -3.1 2.2-6.4 4.5-10.3 7 -0.8 0.5-1.6 1-2.3 1.5 0 0 0 0 0 0 0 0 0 0 0 0l-0.2 0.2c0.7 1.9 2.8 4.7 5.2 6.3 6.2 4.1 17.2 7.9 27.3 10.5C409.9 304.3 410.9 299.4 409.2 295.5z" class="c"/><path d="M207.4 217.3c0 0 0 0 0 0 0.2 0.1 0.4 0.3 0.6 0.4C207.9 217.6 207.6 217.4 207.4 217.3z" class="e"/><path d="M455.1 330.1c8-4.1 13.2-9.8 11.7-12.7 -1.5-2.9-9.2-2-17.1 2.1 -8 4.1-13.2 9.8-11.7 12.7C439.4 335.1 447.1 334.1 455.1 330.1z" class="c"/><ellipse cx="408.2" cy="362.3" rx="5" ry="6.8" class="b"/><circle cx="386.4" cy="362.3" r="4" class="b"/><ellipse cx="451.5" cy="353.9" rx="4.4" ry="6.4" class="b"/><circle cx="492.7" cy="318.2" r="3.9" class="b"/><ellipse cx="597.4" cy="294" rx="5.2" ry="8.7" class="c"/><ellipse transform="matrix(-0.8794 -0.4761 0.4761 -0.8794 948.4058 796.3937)" cx="575.1" cy="278.1" rx="8.5" ry="5.1" class="c"/><path d="M344.6 358.3c1 0 1.8-0.6 2.4-1.6 -1.5-0.8-4.8-2.3-5.7-2.8C341.5 356.4 342.9 358.3 344.6 358.3z" class="d"/><path d="M344.6 348.1c-1.9 0-3.4 2.3-3.4 5.1 0 0.2 0 0.6 0 0.7 0 0 0 0 0 0 0.9 0.5 4.2 1.9 5.7 2.8 0 0 0 0 0 0 0.7-0.9 0.9-2 0.9-3.5C347.9 350.4 346.4 348.1 344.6 348.1z" class="b"/><circle cx="326.8" cy="337" r="4.4" class="b"/><ellipse cx="328" cy="278.6" rx="2.6" ry="4.2" class="b"/><circle cx="332.2" cy="233.5" r="3" class="b"/><path d="M297.4 246.8c-1.4-0.7-3.4 0.7-4.6 3.1 -0.7 1.5-0.9 3-0.6 4.1 0 0 0 0 0 0 0 0 0 0 0 0 0.2 0.6 0.5 1.1 1.1 1.4 1.4 0.7 3.4-0.7 4.6-3.1 0.2-0.4 0.3-0.8 0.4-1.1C299.1 249 298.7 247.4 297.4 246.8z" class="b"/><path d="M405 227c3.9-1.9 0.9-14.1-1.5-18.7 -2.3-4.6-3.7-2.8-7.8-5.4 -4.2-2.6-11-3.1-12.4-2.3 -4.6 2.4 3 15 5.9 19.6C392.2 224.7 401.1 228.9 405 227z" class="c"/><ellipse transform="matrix(-0.7646 -0.6445 0.6445 -0.7646 425.8961 739.1747)" cx="347.9" cy="291.8" rx="6.7" ry="17.2" class="c"/><ellipse transform="matrix(-0.6446 0.7645 -0.7645 -0.6446 831.8077 121.4057)" cx="387.7" cy="254.1" rx="20.2" ry="7.7" class="c"/><path d="M170.5 253.3c0.5 0.5 1.1 1.1 1.7 1.6C171.6 254.3 171.1 253.8 170.5 253.3z" class="c"/><path d="M187.9 221.5c-4.2 3.6-6.1 8.1-7.8 12.1 -1.6 3.8-3.1 7.3-6.3 9.3 -3.2 2-7.2 3.1-11.1 4.3 -0.5 0.2-1.1 0.3-1.6 0.5 0.7 0.2 1.5 0.5 2.1 0.7 1.9 0.6 1.8 0.7 4.6 1.7 2.8 1 5 4.6 4.4 5.1 2.3 2.2 4.7 4.7 5.7 6.5 1.9 3.8 7.6 6.3 16.3 3.8 4-1.2 8-2.6 12-3.9 2.6-0.9 5.3-1.5 8-1.6 -1.3-2.6-2.1-5.8-2.1-9.1 0-0.8 0.1-1.5 0.1-2.3 0.2-9.1 6-16.5 13.1-16.5 7.2 0 13.1 7.6 13.1 16.9 0 0.8-0.1 1.6-0.1 2.3 4.6-2.2 8.9-4.1 10.5-4.5 4.6-1.1 15.3 0.7 13.5 4.1 -0.5 0.9-0.2 8-9 10.5 -3.9 1.1-17.5 9.4-22.6 11.3 -4.3 1.6-11.9 2.2-17.6 0.8 0 1 0 2.1-0.1 3.1 -0.1-1.3-0.5-2.4-1-3.2 -7.4 4.9-23.2 6-31.1 6 -1.2 0-2.2 0-3.1-0.1 -0.8-0.1-1.7-0.1-2.6-0.1 -4.6-0.1-10.9-0.2-16.9-5.9 -0.1 0.1-0.2 0.3-0.3 0.4 -1 2.4-1.7 4.9-2.3 7.4 0.2 0.3 0.3 0.6 0.6 0.9 3 3.4 9.9 5.6 18.4 5.9 5.3-0.6 10.8-3.9 10.9-3.9 0 0-2.3 2.2-5.6 3.8 1-0.1 2.1-0.1 3.1-0.2 1.2-0.1 2.5-0.2 3.9-0.2 7.7 0 17.5 1.9 25.4 3.5 5.3 1 10 1.9 12.4 1.9 6 0 26.4-0.8 35.2-10.8 6-6.8 10.8-10.6 15.3-12.2 0.3-0.1 0.6-0.2 0.8-0.2 0 0 0 0 0 0 -2.8-3.5-6.4-9.5-6.8-18.2 -0.6-12-20.7-25-30.4-25 -5.4-6.1-25.5-6.9-29.6 7.9 -0.6 3-9.8 11.3-16.5 13.7 -6.8 2.5-15.8 0.5-13.4-2.6 2.1-2.8 11.2-10.5 14.2-16.3 -0.2 0.4-0.5 0.6-0.7 0.7 1-6 7.7-8.8 13.6-11 -1.9-1.2-4.6-2.1-6.8-2.1C195.8 216.4 191.9 218.1 187.9 221.5z" class="c"/><path d="M277.1 269.4c-0.1-0.2-0.5-0.2-1.1-0.1 -0.2 0-0.5 0.1-0.8 0.2 -4.5 1.6-9.3 5.4-15.3 12.2 -8.8 10-29.2 10.8-35.2 10.8 -2.4 0-7-0.9-12.4-1.9 -7.9-1.5-17.7-3.5-25.4-3.5 -1.4 0-2.7 0.1-3.9 0.2 -1 0.1-2.1 0.2-3.1 0.3 3.3-1.6 5.6-3.8 5.6-3.8 -0.1 0-5.5 3.3-10.9 3.9 -8.4-0.3-15.4-2.5-18.4-5.9 -0.2-0.3-0.4-0.6-0.6-0.9 -0.2 0.7-0.3 1.4-0.5 2 3.6 3.9 11.5 6.3 21.2 6.3 2.2 0 4.5-0.1 6.8-0.4 1.1-0.1 2.4-0.2 3.7-0.2 7.6 0 17.3 1.9 25.1 3.4 5.4 1.1 10.1 2 12.7 2 6.2 0 27.1-0.8 36.4-11.3 0.5-0.6 1-1.1 1.5-1.7 0.1-0.1 0.2-0.3 0.4-0.4 0.4-0.5 0.9-0.9 1.3-1.3 0.1-0.1 0.1-0.1 0.2-0.2 0.5-0.5 0.9-0.9 1.3-1.3 0.1-0.1 0.3-0.3 0.4-0.4 0.3-0.3 0.6-0.5 0.8-0.8 0.2-0.2 0.3-0.3 0.5-0.5 0.2-0.2 0.4-0.4 0.6-0.5 0.5-0.4 0.9-0.7 1.3-1.1 0 0 0.1-0.1 0.1-0.1 2.6-2 4.9-3.2 7.1-3.8l0.4-0.1 0.8-0.2L277.1 269.4z" class="a"/><path d="M158.2 272.8c-0.1 0.2-0.1 0.3-0.2 0.5 0.1-0.1 0.2-0.3 0.3-0.4C158.3 272.9 158.3 272.9 158.2 272.8z" class="a"/><path d="M162.7 247.1c3.9-1.1 7.9-2.3 11.1-4.3 3.1-1.9 4.7-5.5 6.3-9.3 1.7-4 3.6-8.5 7.8-12.1 4-3.4 7.9-5.1 11.8-5.1 2.2 0 4.8 0.9 6.8 2.1 0.5-0.2 0.9-0.4 1.1-0.5 0.2-0.1 0.3-0.2 0.5-0.2 -0.2-0.2-0.4-0.3-0.6-0.4 -2.3-1.6-5.1-2.5-7.8-2.5 -0.8 0-1.5 0.1-2.3 0.2 0 0 0 0 0 0 -0.5 0.1-1 0.2-1.5 0.3 0 0 0 0-0.1 0 -0.5 0.1-0.9 0.3-1.4 0.4 -0.1 0-0.1 0-0.2 0.1 -0.4 0.2-0.9 0.3-1.3 0.5 -0.1 0-0.2 0.1-0.3 0.1 -0.4 0.2-0.8 0.4-1.2 0.6 -0.2 0.1-0.3 0.2-0.5 0.3 -0.3 0.2-0.7 0.4-1 0.6 -0.2 0.2-0.5 0.3-0.7 0.5 -0.3 0.2-0.5 0.4-0.8 0.6 -0.5 0.4-1 0.8-1.5 1.2 -4.5 3.8-6.5 8.5-8.3 12.6 -1.6 3.7-2.9 6.9-5.7 8.6 -3 1.9-6.9 3-10.7 4.1 -1.3 0.4-2.6 0.8-3.8 1.2 0.9 0.3 1.8 0.5 2.6 0.8C161.6 247.4 162.1 247.2 162.7 247.1z" class="a"/><path d="M146.4 284.1c-0.3 10.7-1.1 34.7-13.2 41.6 3 0 9.8-1.2 11.5-10.2l0.2-1 0.9 0.4c1.6 0.7 2.4 3.4 2.6 5.7 0.3 3.5-0.4 8-3.4 11.2 3.6-0.7 7.2-3.8 8.2-9.6 0.3-1.9 0-5.2-0.3-9.5 -0.8-10.9-2.1-26.9 4.1-41.1 -1.4-1.5-2.7-3.4-4.1-5.7C150.3 269.9 146.7 276.4 146.4 284.1z" fill="#970A0A"/><path d="M158 273.3c0.1-0.2 0.1-0.3 0.2-0.5 -0.4-0.4-0.8-0.8-1.2-1.2 -6.1 14.2-4.9 30.2-4.1 41.1 0.3 4.2 0.6 7.6 0.3 9.5 -0.9 5.9-4.5 8.9-8.2 9.6 2.9-3.2 3.7-7.7 3.4-11.2 -0.2-2.3-1-5-2.6-5.7l-0.9-0.4 -0.2 1c-1.7 9-8.5 10.2-11.5 10.2 12.1-7 12.9-31 13.2-41.6 0.2-7.7 3.8-14.2 6.6-18.1 -0.3-0.5-0.6-1-0.8-1.5 -1.3 1.8-2.8 4.1-4.1 6.9 -1.7 3.6-3 7.9-3.2 12.7 -0.4 11.1-1.2 37.1-14.9 41.4l-2.9 0.9 3 0.6c1 0.2 2 0.3 3 0.3 6.4 0 11.2-3.7 12.9-10 0.4 0.8 0.8 2 1 3.6 0.4 3.7-0.6 8.6-4.5 11.3l-1.8 1.3 2.2 0.1c0.2 0 0.4 0 0.5 0h0c4.8 0 10.2-3.4 11.4-11.1 0.3-2.1 0.1-5.5-0.3-9.8 -0.6-8.1-1.5-19 0.7-29.8 0.1-0.7 0.3-1.4 0.5-2C156.3 278.3 157 275.8 158 273.3z" fill="#500B0B"/><path d="M230.7 272.5c5.1-1.9 18.7-10.2 22.6-11.3 8.8-2.5 8.6-9.6 9-10.5 1.8-3.4-8.9-5.2-13.5-4.1 -1.7 0.4-6 2.4-10.5 4.5 -0.2 2-0.7 3.8-1.4 5.5 -1.8 6.3-6.5 10.8-12 10.8 -4.5 0-8.5-3-10.8-7.6 -2.7 0.1-5.4 0.7-8 1.6 -4 1.3-8 2.7-12 3.9 -8.7 2.5-14.4 0-16.3-3.8 -1-1.9-3.4-4.3-5.7-6.5 0 0 0 0 0 0 -0.6-0.6-1.2-1.1-1.7-1.6 -3.2-2.6-6.6-3.3-7.8-3.6 -3.7-1.2-8.8-2.9-13.2-2.9 -2.6 0-4.8 0.6-6.3 1.8 -3 2.4-4.6 6.7-4.3 11.5 0.2 3.6 1.4 6.2 2.4 6.8 0.7 0.4 1.5 0.7 2.4 0.7 2.7 0 5.8-2.1 7.7-5 -0.3-0.7-0.7-1.2-1.2-1.4 -1.1-0.4-2.4 0.3-2.4 0.3 0 0 1.2-2.4 3-1.7 0.6 0.3 1.2 0.7 1.6 1.3l0 0 0 0.1c0.2 0.4 0.4 0.8 0.6 1.2l0 0c2.4 4.9 5 8.2 7.6 10.4 2.8 0.9 10 0.1 12.6-0.4 0 0-4.7 2.3-8.7 2.3 -0.4 0-0.7 0-1 0 4.3 2.4 8.5 2.5 12 2.6 1 0 1.9 0 2.7 0.1 0.8 0.1 1.8 0.1 3 0.1 9.6 0 25.1-1.9 29.5-6l0.2-0.2c-1.2-1.2-2.5-1.5-2.5-1.5 3.8-1.6 4.8 0.6 4.9 3.4C218.7 274.6 226.4 274.1 230.7 272.5zM168 259.6c-0.6 2.3-1.9 3.9-3.3 3.9 -0.1 0-0.3 0-0.4-0.1 -1.5-0.4-2.1-2.6-1.4-5.1 0.6-2.5 2.3-4.2 3.7-3.8C168 254.8 168.7 257 168 259.6z" class="b"/><path d="M152.1 264.3c0 0 0 0.1 0.1 0.1 0.3 0.5 0.6 1 0.8 1.5 1.3 2.3 2.7 4.1 4.1 5.7 0.4 0.4 0.8 0.8 1.2 1.2 0 0 0.1 0.1 0.1 0.1 6 5.7 12.3 5.8 16.9 5.9 0.9 0 1.8 0 2.6 0.1 0.8 0.1 1.9 0.1 3.1 0.1 8 0 23.7-1.1 31.1-6 0.5 0.9 0.8 1.9 1 3.2 0.1-1 0.1-2.1 0.1-3.1 -0.1-2.8-1.1-5-4.9-3.4 0 0 1.3 0.3 2.5 1.5l-0.2 0.2c-4.4 4.1-19.9 6-29.5 6 -1.2 0-2.2 0-3-0.1 -0.8-0.1-1.7-0.1-2.7-0.1 -3.5-0.1-7.7-0.2-12-2.6 0.3 0 0.7 0 1 0 4 0 8.7-2.3 8.7-2.3 -2.6 0.4-9.8 1.3-12.6 0.4 -2.6-2.2-5.2-5.5-7.6-10.4l0 0c-0.2-0.5-0.4-0.9-0.6-1.2l0-0.1 0 0c-0.4-0.6-0.9-1.1-1.6-1.3 -1.8-0.7-3 1.7-3 1.7 0 0 1.3-0.7 2.4-0.3 0.5 0.2 0.9 0.7 1.2 1.4 -1.8 2.9-5 5-7.7 5 -0.9 0-1.7-0.2-2.4-0.7 -1.1-0.7-2.2-3.2-2.4-6.8 -0.3-4.8 1.4-9.1 4.3-11.5 1.5-1.2 3.7-1.8 6.3-1.8 4.4 0 9.5 1.7 13.2 2.9 1.1 0.4 4.6 1 7.8 3.6 0.6 0.5 1.2 1 1.7 1.6 0 0 0 0 0 0 0.6-0.4-1.6-4.1-4.4-5.1 -2.8-1-2.8-1-4.6-1.7 -0.7-0.2-1.4-0.5-2.1-0.7 -0.8-0.3-1.7-0.5-2.6-0.8 -2.9-0.8-6-1.5-8.9-1.5 -3 0-5.5 0.7-7.3 2.2 -3.4 2.7-5.2 7.5-4.9 12.8 0.2 3.8 1.4 7 3.1 8.1 0.9 0.6 2 0.9 3.2 0.9 1.2 0 2.4-0.3 3.6-0.9C149.1 267.5 150.8 266.1 152.1 264.3z" class="e"/><path d="M227.4 265.5c-0.7 0.1-1.3 0.2-2 0.2 -2.1 0-4.2-0.7-6-1.9 1.6 1.3 3.5 2 5.6 2C225.8 265.8 226.6 265.7 227.4 265.5z" class="c"/><path d="M226 263.5c1.1 0 2.7-4.7 2.7-12.4 0-7.7-1.6-12.4-2.7-12.4 -1.1 0-2.7 4.7-2.7 12.4C223.3 258.8 224.9 263.5 226 263.5z" fill="#E20505"/><path d="M226 264.3c2.3 0 3.5-6.6 3.5-13.1 0-6.5-1.2-13.1-3.5-13.1 -2.3 0-3.5 6.6-3.5 13.1C222.6 257.7 223.7 264.3 226 264.3zM226 238.8c1.1 0 2.7 4.7 2.7 12.4 0 7.7-1.6 12.4-2.7 12.4 -1.1 0-2.7-4.7-2.7-12.4C223.3 243.5 224.9 238.8 226 238.8z" fill="#4F0202"/><path d="M225 267.4c5.5 0 10.2-4.5 12-10.8 0.7-1.7 1.1-3.5 1.4-5.5 0.1-0.8 0.1-1.5 0.1-2.3 0-9.3-5.9-16.9-13.1-16.9 -7.1 0-12.9 7.4-13.1 16.5 -0.1 0.8-0.1 1.5-0.1 2.3 0 3.4 0.8 6.5 2.1 9.1C216.5 264.4 220.5 267.4 225 267.4zM226 238c2.3 0 3.5 6.6 3.5 13.1 0 6.5-1.2 13.1-3.5 13.1 -2.3 0-3.5-6.6-3.5-13.1C222.6 244.6 223.7 238 226 238zM225.4 265.7c0.7 0 1.4-0.1 2-0.2 -0.8 0.2-1.6 0.4-2.4 0.4 -2 0-3.9-0.7-5.6-2C221.2 265 223.2 265.7 225.4 265.7z" fill="#EAA01C"/><path d="M166.2 256h0c-0.4 0-1.4 0.9-1.8 2.7 -0.5 2 0 3.2 0.3 3.2l0 0c0.4 0 1.3-0.9 1.8-2.7C167 257.3 166.5 256.1 166.2 256z" fill="#0C0404"/><path d="M166.6 254.5c-1.4-0.4-3.1 1.3-3.7 3.8 -0.6 2.6 0 4.8 1.4 5.1 0.1 0 0.3 0.1 0.4 0.1 1.4 0 2.7-1.6 3.3-3.9C168.7 257 168 254.8 166.6 254.5zM166.5 259.2c-0.5 1.8-1.4 2.7-1.8 2.7l0 0c-0.3-0.1-0.8-1.3-0.3-3.2 0.5-1.8 1.4-2.7 1.8-2.7h0C166.5 256.1 167 257.3 166.5 259.2z" class="e"/></svg>