
<svg version="1.1" id="Layer_1" xmlns="http://www.w3.org/2000/svg" xmlns:xlink="http://www.w3.org/1999/xlink" viewBox="0 0 768 430" enable-background="new 0 0 768 430" xml:space="preserve">
<pattern  x="0.5" y="430.5" width="88.892" height="52.968" patternUnits="userSpaceOnUse" id="o" viewBox="0 -52.968 88.892 52.968" overflow="visible">
	<g>
		<polygon fill="none" points="0,0 88.892,0 88.892,-52.968 0,-52.968 		"/>
	</g>
</pattern>
<pattern  x="0.5" y="430.5" width="88.892" height="52.968" patternUnits="userSpaceOnUse" id="p" viewBox="0 -52.968 88.892 52.968" overflow="visible">
	<g>
		<polygon fill="none" points="0,0 88.892,0 88.892,-52.968 0,-52.968 		"/>
	</g>
</pattern>
<pattern  x="0.5" y="430.5" width="88.892" height="52.968" patternUnits="userSpaceOnUse" id="q" viewBox="0 -52.968 88.892 52.968" overflow="visible">
	<g>
		<polygon fill="none" points="0,0 88.892,0 88.892,-52.968 0,-52.968 		"/>
	</g>
</pattern>
<pattern  x="0.5" y="430.5" width="88.892" height="52.968" patternUnits="userSpaceOnUse" id="r" viewBox="0 -52.968 88.892 52.968" overflow="visible">
	<g>
		<polygon fill="none" points="0,0 88.892,0 88.892,-52.968 0,-52.968 		"/>
	</g>
</pattern>
<pattern  x="0.5" y="430.5" width="88.892" height="52.968" patternUnits="userSpaceOnUse" id="s" viewBox="0 -52.968 88.892 52.968" overflow="visible">
	<g>
		<polygon fill="none" points="0,0 88.892,0 88.892,-52.968 0,-52.968 		"/>
	</g>
</pattern>
<pattern  x="0.5" y="430.5" width="88.892" height="52.968" patternUnits="userSpaceOnUse" id="t" viewBox="0 -52.968 88.892 52.968" overflow="visible">
	<g>
		<polygon fill="none" points="0,0 88.892,0 88.892,-52.968 0,-52.968 		"/>
	</g>
</pattern>
<pattern  x="0.5" y="430.5" width="88.892" height="52.968" patternUnits="userSpaceOnUse" id="u" viewBox="0 -52.968 88.892 52.968" overflow="visible">
	<g>
		<polygon fill="none" points="0,0 88.892,0 88.892,-52.968 0,-52.968 		"/>
	</g>
</pattern>
<pattern  x="0.5" y="430.5" width="88.892" height="52.968" patternUnits="userSpaceOnUse" id="v" viewBox="0 -52.968 88.892 52.968" overflow="visible">
	<g>
		<polygon fill="none" points="0,0 88.892,0 88.892,-52.968 0,-52.968 		"/>
	</g>
</pattern>
<pattern  x="0.5" y="430.5" width="88.892" height="52.968" patternUnits="userSpaceOnUse" id="w" viewBox="0 -52.968 88.892 52.968" overflow="visible">
	<g>
		<polygon fill="none" points="0,0 88.892,0 88.892,-52.968 0,-52.968 		"/>
	</g>
</pattern>
<g transform="translate(2.3411 -977.64)">
	<path fill="#DB9044" stroke="#FFCC00" stroke-width="1.4181" d="M457.551,1104.312l-228.324,54.23l-19.011,4.405l-1.802-9.205
		c0,0-6.046-6.644-9.603-5.604c-5.331,1.556-8.583,9.087-7.004,14.407c2.603,8.806,6.41,17.186,10.803,24.814
		c4.038,7.007,13.609,19.414,13.609,19.414c7.895,4.99,14.86,9.334,26.812,12.805c3.4,3.178,13.539,19.568,24.014,27.617
		c11.358,6.479,21.782,11.756,39.421,13.605c17.971-0.086,35.332-4.156,53.827-10.605l70.04-22.41
		c28.016-11.002,56.547-19.941,84.047-33.02c2.9-1.477,5.824-2.891,8.208-5.401c0.086-4.264-1.103-7.676-4.206-9.806
		c-3.979-0.938-7.332,0.031-10.803,0.598l-0.203-36.216l4.205-1.204v-8l-6.003-4.405l11.804-3.6
		c-0.751-1.552,1.406-3.342-5.206-4.405l-7.802,2.001c-0.773-2.416,0.594-5.902-7.207-4.803l-5.8,1.403
		c-0.759-2.916-0.798-6.285-7.2-5.604l-7.004,2.001c2.104-4.588,2.533-8.411-8.004-7.203l-5.409,2.001
		c1.485-3.393,6.019-7.461-6.199-7.805V1104.312z M481.362,1136.932l8.606,3.803l2.001,45.424l-49.825,18.413l-1.603-32.62
		l15.212-5.202c1.298-1.043,2.04,0,4.401-7.004c-0.587-1.802-0.845-4.002-3.002-5.804c-0.485-0.536-1.524-0.766-3.799-1.302
		l-5.003,0.7l-0.203-7.004L481.362,1136.932z M297.461,1152.34c-2.783,0.817-3.717,4.068-3.604,6.003
		c2.697,3.431,4.963,2.443,7.551,1.7c-0.477,8.896-0.309,9.479-0.981,18.694l-49.79,13.227l-5.808-16.009
		c-2.188-3.358-5.362-3.792-8.603-4.003c-6.77,3.025-6.132,6.672-6.805,10.205c0.094,7.993,3.408,14.372,5.401,21.411
		c-3.865-2.186-7.734-2.955-11.604-8.604c-3.952-5.107-7.93-10.18-9.806-18.412l-1.2-5.202L297.461,1152.34z M413.722,1156.041
		l8.207,3.705l0.196,1.798l-37.217,10.607l0.102-8.106C386.105,1164.045,413.722,1156.041,413.722,1156.041L413.722,1156.041z
		 M373.605,1167.547l-0.203,8.004l-6.503,1.903l-0.102-1.802c-0.61-1.806-5.362-2.876-7.903-4.201L373.605,1167.547z
		 M423.931,1176.955l3.299,32.82l-59.433,19.307l-3.9-33.916L423.931,1176.955z M336.682,1178.354l9.106,3.803l0.098,1.603
		l-33.218,9.603l0.903-9.306L336.682,1178.354z M299.861,1188.36v8.204l-28.614,6.406c-8.962,1.344-10.416,1.348-15.81,1.398
		l-2.399-5.002c5.604-2.084,11.205-3.682,16.806-2.6L299.861,1188.36z M347.693,1199.968l4.197,34.02l-32.417,8.602
		c-9.392,0.789-19.315,2.107-27.214,1.404c-10.486-4.652-22.904-12.922-29.012-23.615l16.204-1.803L347.693,1199.968z"/>
	<path fill="#616161" fill-opacity="0.9922" stroke="#FF6600" stroke-width="1.4181" d="M204.917,1151.589
		c1.251-3.26-4.687-5.402-11.206-1.2c-2.732,4.87-2.623,9.263-2.201,13.609c11.538,29.384,12.953,28.282,17.612,33.417
		c-5.628-7.273-7.403-17.123-10.006-26.413l-1.802-10.205C197.764,1156.111,201.868,1153.676,204.917,1151.589L204.917,1151.589z"/>
	<pattern  id="SVGID_1_" xlink:href="#v" patternTransform="matrix(0.7204 0 0 -1.0806 -2064.2539 -15476.7617)">
	</pattern>
	<path opacity="0.527" fill="url(#SVGID_1_)" enable-background="new    " d="M497.222,1133.786
		c-0.281,3.439-1.587,6.676,0.602,10.607c-5.503-2.407-13.46-5.362-14.609-6.804L497.222,1133.786z"/>
	<pattern  id="SVGID_2_" xlink:href="#w" patternTransform="matrix(0.7204 0 0 -1.0806 -2132.2915 -15495.7803)">
	</pattern>
	<path opacity="0.527" fill="url(#SVGID_2_)" enable-background="new    " d="M429.184,1152.805
		c-0.282,3.439-1.587,6.676,0.602,10.607c-4.878-2.259-10.209-4.061-14.61-6.804L429.184,1152.805z"/>
	<pattern  id="SVGID_3_" xlink:href="#u" patternTransform="matrix(0.7204 0 0 -1.0806 -2210.1846 -15517.3281)">
	</pattern>
	<path opacity="0.527" fill="url(#SVGID_3_)" enable-background="new    " d="M351.297,1174.481
		c-0.289,3.439-1.587,6.675,0.598,10.607l-14.605-6.805L351.297,1174.481z"/>
	<path fill="#616161" fill-opacity="0.9922" stroke="#FF6600" stroke-width="1.4181" d="M241.406,1174.16
		c-2.431-1.786-4.123-3.623-9.204,0c-2.732,4.87-2.623,9.268-2.201,13.609c8.911,29.384,12.742,28.283,17.608,33.421l-10.006-26.418
		l-2.803-11.802c0.454-4.687,3.557-6.719,6.605-8.807V1174.16z"/>
	<pattern  id="SVGID_4_" xlink:href="#t" patternTransform="matrix(1.567 0 0 -1.4538 4450.5049 -18789.8008)">
	</pattern>
	<path opacity="0.527" fill="url(#SVGID_4_)" stroke="#FF6600" stroke-width="1.4181" enable-background="new    " d="
		M241.23,1174.16c-2.431-1.786-4.124-3.623-9.205,0c-2.732,4.87-2.626,9.268-2.204,13.609c8.911,29.384,12.742,28.283,17.611,33.421
		l-10.005-26.418l-2.799-11.802c0.446-4.687,3.549-6.719,6.602-8.807V1174.16z"/>
	<pattern  id="SVGID_5_" xlink:href="#s" patternTransform="matrix(0.9975 0 0 -1.0077 -26.1387 -15024.2051)">
	</pattern>
	<path opacity="0.426" fill="url(#SVGID_5_)" stroke="#FF6600" stroke-width="1.4181" enable-background="new    " d="
		M441.543,1147.938l0.398,4.405c0.531,0.266,1.54,1.004,1.321,1.649l-0.273,7.625l-2.846,0.931l0.398,9.204l15.009-4.804
		c1.173-0.77,3.205-1.81,4.8-6.601c-0.195-2.216-1.743-3.736-2.799-5.781c-1.173-1.122-3.197-2.247-4.425-1.872l-4.557,0.719
		l-0.023-6.273L441.543,1147.938z"/>
	<pattern  id="SVGID_6_" xlink:href="#r" patternTransform="matrix(0.9629 0 0 -1.1528 -277.4692 -16159.3975)">
	</pattern>
	<path opacity="0.426" fill="url(#SVGID_6_)" stroke="#FF6600" stroke-width="1.4181" enable-background="new    " d="
		M367.204,1177.045l6.3-2.001v-8.004l11.202-2.001v6.805l37.826-11.409l1.595,16.611l-60.229,18.21l-1.001-9.807l4.206-1.802
		C366.821,1181.45,367.024,1179.116,367.204,1177.045L367.204,1177.045z"/>
	<pattern  id="SVGID_7_" xlink:href="#q" patternTransform="matrix(1.093 0 0 -1.0318 777.6455 -15055.9014)">
	</pattern>
	<path opacity="0.426" fill="url(#SVGID_7_)" stroke="#FF6600" stroke-width="1.4181" enable-background="new    " d="
		M301.503,1159.883l-0.711,18.819l13.727-3.678l0.281-9.623l-5.941,1.129l-2.548-2.83l-1.134-4.245L301.503,1159.883z"/>
	<pattern  id="SVGID_8_" xlink:href="#p" patternTransform="matrix(1.0317 0 0 -0.984 246.3486 -14776.3359)">
	</pattern>
	<path opacity="0.426" fill="url(#SVGID_8_)" stroke="#FF8E00" stroke-width="1.4181" enable-background="new    " d="
		M255.039,1204.259l12.007-1.199l32.417-7.203l0.402-7.606l13.207-4.003v8.806l32.417-9.204l2.002,16.408l-60.433,16.811
		l-23.615,2.799L255.039,1204.259z"/>
	<pattern  id="SVGID_9_" xlink:href="#o" patternTransform="matrix(1.0406 0 0 -1.2007 366.1011 -16641.5293)">
	</pattern>
	<path opacity="0.426" fill="url(#SVGID_9_)" stroke="#D45500" stroke-width="1.4181" enable-background="new    " d="
		M204.01,1149.349c-2.701-1.102-6.652-1.372-8.802,0.598c-3.119,2.853-3.709,7.997-3.404,12.206
		c0.629,8.731,6.414,16.333,10.604,24.013c3.713,6.805,7.2,14.063,12.812,19.415c5.949,5.674,18.608,11.807,23.208,12.807
		l0.602-6.805l-4.002-8.004c0,0-7.942-3.807-10.803-7.004c-6.566-7.34-9.982-17.115-13.21-26.417
		c-1.829-5.276-1.18-11.28-3.4-16.408C206.738,1151.73,206.05,1150.178,204.01,1149.349z"/>
	
		<path shape-rendering="auto" color-rendering="auto" image-rendering="auto" fill="#949494" stroke="#797979" stroke-width="2.8362" stroke-linejoin="round" d="
		M219.996,1170.318l-4.253,1.259l0.5,4.002c-0.027,1.462,0.969,3.174,1.931,4.077l12.108,10.807l-1.012-6.512l-8.974-7.676
		L219.996,1170.318z"/>
	<path shape-rendering="auto" color-rendering="auto" image-rendering="auto" fill="#4F2500" d="M458.592,1103.355
		c-0.642,0.039-1.118,0.129-1.36,0.23l-245.936,58.525c-0.184-0.883-0.387-1.782-0.559-2.658c-0.247-2.517-0.864-6.949-4.569-9.975
		c-1.61-1.438-2.814-2.732-8.493-1.743c-10.94,2.201-7.305,17.6-3.068,26.602c3.42,7.277,8.2,15.837,11.851,21.895
		c7.961,13.223,21.809,22.301,36.825,25.139c2.376,3.557,4.94,6.996,7.731,10.287c5.127,6.383,11.741,14.484,19.706,19.012
		c19.253,13.264,44.126,13.707,65.932,8.047c36.556-8.893,72.443-21.371,107.737-34.477c18.33-6.805,36.505-13.148,54.53-20.574
		c8.981-3.697,24.788-10.772,24.6-15.939c-0.32-8.958-7.738-10.959-14.82-8.731v-34.645c0.578-0.305,2.524-0.973,3.251-1.254
		c0.087-2.443,0.423-5.621,0.485-8.349c-1.478-1.208-2.971-2.396-5.136-3.392l8.763-2.467c2.438-0.504,4.151-1.622,2.329-4.823
		c-1.829-3.201-7.723-2.314-8.7-1.903l-4.439,1.176c0.305-0.875,0.359-2.005-0.501-3.127c-1.578-2.048-4.791-2.271-7.77-1.771
		c-0.062,0.004-4.511,1.173-5.284,1.364c0.07-0.055,0.18-0.109,0.242-0.168c0.383-0.391,0.445-2.04-0.445-3.721
		c-0.892-1.681-3.26-1.704-4.659-1.72c-0.742-0.008-2.462,0.277-7.645,1.469c0.055-0.055,0.117-0.098,0.164-0.16
		c0.211-0.461,1.603-3.725-0.414-5.175c-2.314-2.255-5.465-1.391-7.192-1.411l-5.479,1.379c1.392-1.505,0.703-3.858-0.57-5.019
		c-1.962-1.712-5.206-2.044-7.113-1.927H458.592z M460.499,1105.599c3.322-0.137,5.394,2.403,2.571,3.471
		c-79.037,19.429-157.565,39.897-237.282,57.97c-3.049,0.692-8.907,1.907-12.679,0.461l-0.641-3.025l246.553-58.639
		c0.516-0.141,1.008-0.219,1.485-0.238H460.499z M473.115,1111.004c1.188-0.129,2.283-0.031,2.861,0.613
		c1.398,1.56-0.798,2.201-1.384,2.557l-173.528,43.274c-0.195,0.074-3.928,0.27-4.924-1.063c-0.993-1.321,1.266-1.892,2.818-2.274
		l170.749-42.391C470.645,1111.48,471.927,1111.133,473.115,1111.004L473.115,1111.004z M485.74,1116.112
		c0.789-0.082,1.617-0.016,2.056,0.5c0.688,0.797,1.148,1.587-0.813,2.119l-174.38,45.119c-0.031,0-3.682,0.907-5.229-1.485
		c-0.738-1.145,0.633-1.598,0.946-1.833c0.484-0.129,4.596-1.215,5.479-1.45c10.068-2.572,170.096-42.595,170.096-42.595
		C484.191,1116.417,484.95,1116.194,485.74,1116.112L485.74,1116.112z M498.95,1120.165c0.938-0.02,1.79,0.145,2.157,0.536
		c1.212,1.301,0.305,2.115-0.805,2.416c-59.033,15.903-172.902,46.034-177.308,46.913c-1.685,0.336-5.538,0.903-6.335-0.5
		c-0.672-1.188,0.446-1.724,0.86-2.134l178.727-46.663C496.972,1120.384,498.004,1120.181,498.95,1120.165L498.95,1120.165z
		 M513.287,1123.628c0.656,0.023,1.297,0.317,2.016,1.075c1.783,1.896-2.876,2.31-3.235,2.541l-244.295,67.033
		c-5.464-0.652-8.708,0.791-13.097,2.67l-1.771-4.065c85.513-22.696,174.567-46.929,256.535-68.089
		C511.058,1124.292,512.192,1123.589,513.287,1123.628L513.287,1123.628z M506.994,1132.828l2.728,1.704
		c-2.735,0.813-4.894,1.513-7.043,2.283c-0.891-0.281-2.478-1.278-3.689-1.767L506.994,1132.828z M510.558,1136.112l-0.07,5.664
		c-1.923,0.699-5.339,2.239-7.363,2.571l-0.07-5.921L510.558,1136.112z M497.191,1136.565l3.314,1.208l-0.273,5.671
		c-1.509-0.461-2.76-0.962-4.236-1.556c-1.994-0.727-4.019-1.599-5.988-2.169c-0.852-0.355-2.635-0.758-0.609-0.965
		C492.001,1138.05,494.595,1137.311,497.191,1136.565z M481.526,1138.617c2.157,0.891,4.581,1.896,5.589,2.427
		c0.743,0.336,1.735,0.336,1.454,1.368l1.97,42.942c-15.798,5.616-31.588,11.288-47.401,16.87
		c-0.493-9.573-1.001-19.46-1.493-29.373c4.268-1.403,8.536-2.807,12.796-4.222c4.019-1.336,8.771-6.253,6.387-11.322
		c-2.571-5.457-6.762-6.199-11.265-5.457l0.133-4.272L481.526,1138.617z M491.023,1143.194l5.715,2.56l1.039,41.441
		c-2.079-0.465-3.619-1.247-4.447-1.454L491.023,1143.194z M506.001,1146.023l0.501,38.8c-1.282,0.574-4.769,1.86-6.02,2.048
		l-1-40.082c1.867,0.973,4.768-0.09,6.519-0.77V1146.023z M447.397,1148.682l-0.336,10.396l-3.135,0.953l0.321-6.011
		c-0.126-0.645,0.016-1.228-1.087-1.856c-0.086-0.039-0.281-0.106-0.368-0.145l0.031-2.126L447.397,1148.682z M203.365,1149.318
		c0.481,2.889-7.172,4.436-7.105,12.3c0.84,4.312,2.079,12.042,4.854,20.848c-2.447-4.068-6.898-18.205-7.282-24.443
		C193.567,1153.703,196.396,1149.014,203.365,1149.318L203.365,1149.318z M440.55,1150.155l-0.008,1.008
		c-0.523-0.199-0.906-0.363-1.524-0.574L440.55,1150.155z M438.306,1151.839c1.016,0.454,2.939,1.083,3.26,1.462
		c-1.282,0.305-5.754,1.993-7.027,2.157c-1.407-0.606-2.439-1.422-3.268-1.696L438.306,1151.839z M453.103,1153.684
		c2.447-0.312,3.878,2.095,2.635,2.876c-1.211,0.755-3.814,1.763-6.41,2.682l0.133-4.295c0.845-0.336,1.682-0.719,2.541-0.95
		C452.384,1153.829,452.752,1153.727,453.103,1153.684z M203.232,1153.938c7.223,3.451,3.85,14.672,8.079,21.543
		c4.061,12.265,11.334,24.202,23.279,29.999c1.751,4.057,3.78,7.973,6.058,11.756c-3.173-0.758-6.292-1.775-9.302-3.158
		c-12.991-5.906-23.58-17.123-27.113-31.072C202.134,1174.716,194.196,1160.645,203.232,1153.938L203.232,1153.938z
		 M442.308,1154.489l-0.078,6.058l-1.062,0.321l0.016,0.043l-6.176,2.013l0.047-6.214L442.308,1154.489z M428.965,1155.052
		l3.683,1.712l-0.298,5.886l-12.538-5.015C422.79,1156.85,426.003,1155.904,428.965,1155.052L428.965,1155.052z M293.357,1155.482
		c-0.68,1.818-1.098,4.436,0.454,6.023c1.563,1.591,4.698,1.333,6.656,0.997l-0.887,15.117l-47.727,12.598
		c-2.481-7.845-4.209-16.479-12.597-19.363l-2.392-0.199c-11.084,2.009-8.716,15.282-6.308,23.661
		c0.68,2.377,1.493,4.699,2.353,6.992c-10.33-6.021-15.63-16.783-18.933-28.16l0.602-0.004c5.081-1.478,9.849-2.142,12.734-1.716
		C249.591,1166.289,271.556,1160.942,293.357,1155.482L293.357,1155.482z M414.152,1157.597l5.698,2.56
		c-11.287,3.255-22.552,6.617-33.815,9.99c-0.164-1.782,0.109-3.912,0.125-4.647c-2.588,0.543,27.984-7.903,27.984-7.903H414.152z
		 M457.786,1157.878c2.596,1.224-0.266,5.464-1.384,6.324c-4.002,2.735-10.428,4.33-12.343,4.995
		c-0.859,0.262-1.712,0.528-2.571,0.79c-0.102-2.079-0.211-4.167-0.312-6.199c-0.039-0.043-0.078-0.074-0.141-0.129
		C446.6,1161.872,452.595,1159.512,457.786,1157.878L457.786,1157.878z M304.547,1161.536c-0.082,0.36-0.105,0.75-0.137,1.138
		c-0.411-0.258-0.821-0.516-1.227-0.774L304.547,1161.536z M423.666,1161.88c1.297,0.641,4.971,2.192,6.261,2.685l2.924,46.088
		c-0.813-0.52-4.042-1.811-4.683-2.451L423.666,1161.88z M421.664,1163.201c0.102,1.548,0.234,3.107,0.352,4.663
		c-12.17,3.834-24.232,7.555-36.254,11.221l0.172-5.327C397.83,1170.201,409.736,1166.648,421.664,1163.201L421.664,1163.201z
		 M302.636,1164.237c0.665,0.418,1.321,0.84,1.978,1.258c0.02,0.062,0.031,0.129,0.051,0.195c0.316,0.942,0.973,1.517,1.755,1.892
		l-0.673,8.412l-3.854,1.02L302.636,1164.237z M439.267,1164.409c-0.125,1.282,1.924,44.11,1.924,44.122
		c-1.337,0.521-4.698,1.346-6.035,1.865l-3.268-45.17c0.931,0.477,2.174,0.61,3.752,0.278
		C437.009,1165.21,438.759,1164.479,439.267,1164.409L439.267,1164.409z M313.451,1167.63c-0.485,0.871-0.551,1.942-0.09,3.107
		c0.031,0.078,0.09,0.145,0.125,0.219l-0.266,3.068l-4.839,1.278l0.512-7.172c0.946,0.062,1.876,0.047,2.584,0.012
		C311.516,1168.134,313.306,1167.661,313.451,1167.63L313.451,1167.63z M383.822,1167.766l-0.328,11.248l-4.408,1.333
		c0.023-1.622,0.031-3.248,0.164-4.866l0.367-6.601L383.822,1167.766z M372.363,1169.232c0.008,1.962,0.086,3.139,0,5.006
		c-1.509,0.45-3.01,0.896-4.511,1.345c0.008-0.324-0.078-0.68-0.867-1.438c-0.892-0.852-2.822-1.497-4.214-2.075L372.363,1169.232z
		 M422.165,1169.865c0.164,1.962,0.32,3.916,0.508,5.886c-19.245,5.895-38.49,11.753-57.782,17.44l-0.587-5.566
		c16.682-5.093,33.339-10.295,50.044-15.301C416.896,1171.515,419.522,1170.69,422.165,1169.865z M377.115,1169.107
		c-0.047,2.388-0.195,6.05-0.266,8.438l-0.141,2.154l-2.267-1.446l0.477-8.501C375.654,1169.537,376.381,1169.322,377.115,1169.107
		L377.115,1169.107z M315.604,1172.781c0.289,0.141,0.594,0.258,0.922,0.368l-0.977,0.258L315.604,1172.781z M361.443,1173.512
		c0.375,0.5,3.291,1.29,3.939,1.771c-2.032,0.531-5.629,1.567-7.656,2.095c-0.513-0.309-2.881-0.883-3.983-1.508
		C356.189,1175.184,358.988,1174.199,361.443,1173.512z M237.247,1174.031c1.775,0.673-1.751,2.506-3.115,5.21
		c-1.142,2.26-0.793,6.02,0.082,9.111c2.4,8.5,5.62,17.495,8.704,25.772c-1.169,0.848-13.949-22.587-11.589-34.848
		C231.768,1176.99,234.504,1173.637,237.247,1174.031L237.247,1174.031z M365.875,1176.752l0.203,6.461l-7.832,2.712l0.102-7.023
		C360.559,1178.382,363.671,1177.31,365.875,1176.752z M350.929,1176.826l5.307,2.103l-0.188,6.973
		c-4.166-1.728-10.451-4.878-14.594-6.577C344.308,1178.561,348.076,1177.588,350.929,1176.826L350.929,1176.826z M241.554,1177.49
		c2.924-0.203,3.275,2.748,4.135,4.726c3.009,6.922,4.964,17.28,8.474,24.565c7.809,21.117,26.859,37.811,48.809,42.66
		c24.244,3.049,47.569-6.812,70.562-12.943c48.27-14.768,95.453-32.805,142.519-50.999c3.455-1.392,4.847,0.931,5.136,1.833
		c1.196,3.674-13.859,8.994-17.658,10.443c-19.902,7.582-39.851,15.279-59.948,22.682c-34.355,12.66-69.102,24.475-104.606,33.426
		c-21.316,5.654-45.744,7.441-65.028-5.211c-13.625-7.574-22.216-21.18-27.281-35.539c-4.241-9.721-8.075-18.285-9.74-28.689
		c-0.344-2.134-0.094-5.612,3.205-6.663c0.531-0.169,1.004-0.267,1.422-0.294V1177.49z M372.191,1177.847l-0.047,0.957
		c0.211,0.34,0.336,0.767,0.602,1.056c1.126,0.715,2.243,1.427,3.369,2.138c-2.861,0.864-5.722,1.743-8.567,2.595
		c0.406-0.66,0.32-1.59,0.297-2.345v-3.107C369.291,1178.71,370.737,1178.276,372.191,1177.847L372.191,1177.847z M336.788,1179.5
		c2.967,1.098,5.05,2.052,7.419,3.036c-10.037,2.9-20.098,5.711-30.197,8.38l0.461-5.241L336.788,1179.5z M422.993,1178.897
		c0.978,9.756,2.149,19.565,3.182,29.254c-19.128,6.625-38.326,13.027-57.681,18.934l-3.229-30.455
		c19.315-5.664,38.553-11.596,57.72-17.733H422.993z M514.107,1180.543c0.977,0.012,1.72,0.262,2.188,0.817
		c1.001,1.203-3.627,3.126-8.028,4.686c0.634-1.293,0.485-2.837,0.446-4.322C510.863,1181.008,512.739,1180.519,514.107,1180.543
		L514.107,1180.543z M347.424,1185.124l5.647,2.458c1.665,15.544,3.666,32.558,5.194,48.113c-0.731-0.465-3.889-1.609-5.097-2.117
		c-1.685-14.932-4.163-32.207-6.098-48.356C347.188,1185.19,347.305,1185.155,347.424,1185.124L347.424,1185.124z M344.441,1185.975
		l0.699,5.284c-10.096,2.966-20.171,5.898-30.236,8.779c-0.571,0.164-1.168,0.336-1.739,0.5l0.532-6.035
		C323.976,1191.788,334.22,1188.915,344.441,1185.975L344.441,1185.975z M312.141,1186.332l-1.271,14.425l-4.365,1.059l1.008-14.175
		L312.141,1186.332z M361.888,1187.125c0.266,2.11,0.398,3.279,0.93,8.064c0.821,7.363,3.08,23.609,4.636,38.533
		c-2.587,0.887-4.995,1.828-6.965,2.441c-1.669-15.398-3.842-32.58-5.37-47.991c0.746,0.426,0.969,0.359,2.146,0.68
		C357.941,1188.649,360.942,1187.406,361.888,1187.125L361.888,1187.125z M492.298,1187.945c1.704,0.724,3.706,1.243,5.417,1.807
		c-42.656,16.283-85.563,32.736-129.447,45.599c0.469-0.758,1.195-1.453,0.844-2.4l-0.281-2.637
		c20.324-6.379,40.554-13.117,59.197-19.508c0.039,0.016,0.062,0.039,0.102,0.051l5.801,2.467c2.759-0.961,6.487-2.092,9.599-3.303
		c-0.07-1.4-0.148-3.049-0.227-4.482C462.336,1198.91,479.963,1192.37,492.298,1187.945L492.298,1187.945z M304.747,1188.415
		l-0.985,12.018l-3.001-3.971l0.415-7.04L304.747,1188.415z M298.868,1190.072c-0.102,1.595-0.188,3.189-0.266,4.783
		c-11.029,2.725-22.114,5.246-33.276,7.455c-2.982,0.523-5.984,0.695-8.989,0.742c-0.313-0.879-0.626-1.76-0.903-2.65l0.395-0.18
		c4.073-1.691,8.168-2.295,12.664-1.609l3.916-1.088L298.868,1190.072z M345.418,1193.324l0.704,5.328
		c-22.474,6.467-45.038,12.658-67.781,18.322c-4.62,0.746-9.392,1.332-14.18,1.684c-1.387-2.07-2.657-4.213-3.814-6.418
		c10.873,0.279,22.028-1.875,32.378-4.42c6.511-1.602,12.999-3.303,19.472-5.045l0.008-0.008
		C323.32,1199.769,334.381,1196.603,345.418,1193.324L345.418,1193.324z M299.165,1198.138c0.352,0.459,0.75,0.889,1.051,1.369
		c0.981,1.297,1.966,2.596,2.943,3.889c-14.25,4.025-29.032,7.605-43.728,7.051c-0.657-1.344-1.262-2.717-1.829-4.096
		C271.689,1205.745,285.443,1201.484,299.165,1198.138L299.165,1198.138z M346.575,1202.021l4.033,30.367
		c-9.091,2.607-18.225,5.094-27.402,7.418c-10.076,2.643-20.602,3.408-30.298,2.658c-10.58-4.213-19.57-11.502-26.386-20.496
		c20.574-1.598,40.328-9,60.156-14.406C333.317,1205.753,339.95,1203.9,346.575,1202.021L346.575,1202.021z M351.75,1235.527
		c0.336,0.344,0.734,0.613,1.259,0.715c1.591,0.658,3.181,1.314,4.769,1.971c0.137-0.027,0.277,0.031,0.418,0.082
		c-7.548,2.104-15.122,4.111-22.732,5.965c-10.732,2.488-22.938,4.068-33.28,1.117c17.057,0,33.37-4.896,49.56-9.85H351.75z"/>
	<path fill="#380000" d="M209.411,1204.767c-1.196,0.803-7.801,5.805-7.801,5.805l22.013,48.227
		c3.928,8.609,9.118,13.406,14.207,16.607c0,0,15.306,10.818,24.014,13.609c6.555,2.098,13.746,1.648,20.609,1.199
		c8.88-0.578,22.271,4.697,30.462,1.223c3.306-1.402,5.331-5.291,8.802-6.201c10.435-2.736,21.336-7.74,31.819-12.809
		c3.959-1.916,8.04-3.604,12.206-5.004c6.934-2.324,14.055-4.115,21.215-5.604c9.115-1.893,18.3-4.232,27.609-4.201
		c9.326,0.031,18.636,1.922,27.617,4.404c5.543,1.527,10.498,4.779,16.01,6.402c11.732,3.455,23.833,8.047,36.02,7.004
		c3.557-0.305,7.888-0.936,10.006-3.803c2.424-3.279,2.791-8.646,0.805-12.207c-2.985-5.342-10.42-6.641-16.212-8.605
		c-8.388-2.846-17.4-3.463-26.218-4.402c-10.092-1.074-20.27-1.766-30.416-1.398c-10.201,0.363-20.394,1.637-30.415,3.6
		c-6.652,1.305-13.117,3.455-19.612,5.406c-8.662,2.602-17.275,5.4-25.812,8.402c-9.083,3.193-18.119,6.527-27.015,10.205
		c-4.8,1.986-0.962,3.326-14.207,6.406c-13.184,3.061-25.815-0.547-40.269-2.428c-8.56-1.109-11.432-3.076-14.204-6.004
		c-3.65-3.846-8.489-8.66-7.207-13.805c0.148-0.598,1.29-0.598,1.399-1.203c0.691-3.635-5.401-8.803-5.198-9.803
		c0.195-1-0.403-8.605-0.403-8.605c-1.083-3.975-1.403-1.893-2.001-2.002l-8.204,5.203c0,0,0.945,5.986,2.001,8.805
		c2.521,6.734,5.347,13.711,10.205,19.012c2.962,3.232,6.636,5.764,10.408,8.004c3.643,2.162,11.804,5.201,11.804,5.201
		s-11.171-0.297-16.408-2c-4.573-1.486-8.325-4.822-12.608-7.004c-3.666-1.869-6.645-2.756-9.803-5.402
		c-3.123-2.613-5.839-6.34-7.605-10.006c-1.329-2.758-2.384-5.717-3.4-8.605c-1.462-4.146-3.764-7.984-5.003-12.207
		c-1.759-5.986-1.552-12.447-3.404-18.408C213.808,1213.242,209.411,1204.767,209.411,1204.767L209.411,1204.767z M446.382,1251.951
		c5.683-0.188,20.644,1.062,28.617,3.67c3.737,1.141,7.474,2.154,11.21,3.803c4.979,1.627,16.165,3.846,14.211,5.602
		c-4.408,2.145-8.81,2.254-13.211,1.203c-6.848-0.227-21.949-4.076-24.615-4.002c-3.299,0.09-18.698-9.361-18.205-9.607
		C443.622,1252.232,444.482,1252.013,446.382,1251.951L446.382,1251.951z"/>
	<path fill="#595959" stroke="#000000" stroke-width="2.8362" d="M200.211,1183.767c-0.609,9.056-0.414,17.142,3.197,24.611
		c0,0,3.795-1.832,3.404-2.297c-2.943-3.518-3.287-18.593-3.6-17.811L200.211,1183.767z"/>
	<path fill="#7E7E7E" stroke="#000000" stroke-width="2.8362" d="M238.549,1214.183c-0.606,9.057-0.411,17.146,3.201,24.615
		c0,0,3.795-1.832,3.404-2.301c-2.943-3.52-3.287-18.594-3.604-17.812L238.549,1214.183z"/>
	<path fill="none" stroke="#9A5126" stroke-width="1.4181" d="M434.508,1248.124c0.281-1.133,12.835-0.906,19.245-0.566
		c10.459,0.555,21.082,1.277,31.127,4.244c6.598,1.949,15.673,2.588,18.683,8.773c1.094,2.264,0.734,6.707-1.696,7.357
		c-5.245,1.406-10.49,0.953-15.001,0.566c-8.872-0.758-16.4-2.459-24.904-5.094c-6.051-1.871-11.694-4.92-17.268-7.922
		c-2.346-1.27-4.276-3.354-6.793-4.248c-6.449-2.291-13.531-2.854-20.371-2.545c-15.532,0.695-30.752,5.203-45.564,9.904
		c-13.258,4.209-24.393,8.578-41.035,14.715c-2.447,0.902-3.912,3.451-5.945,5.098c-3.134,2.539-6.05,5.463-9.623,7.355
		c-2.896,1.535-6.062,2.885-9.333,3.111c-6.222,0.434-12.261-2.291-18.397-3.393c-5.374-0.971-10.729-2.049-16.13-2.83
		c-5.734-0.832-11.897,0.199-17.264-1.982c-3.428-1.395-4.327-2.975-7.36-5.092c-4.932-3.451-12.421-5.969-16.415-10.471
		c-4.979-5.625-6.867-14.355-9.904-21.227c-1.399-3.174-3.146-6.25-3.963-9.623c-1.063-4.416-0.016-9.178-1.13-13.582
		c-1.211-4.791-5.945-13.586-5.945-13.586"/>
	<path fill="none" stroke="#AE6E48" stroke-width="1.4181" d="M247.73,1237.876c0,0-0.962,5.832,0,8.492
		c1,2.771,4.971,3.924,5.659,6.789c0.496,2.072-1.681,4.117-1.415,6.227c0.465,3.686,2.775,7.008,5.097,9.908
		c2.38,2.982,5.312,5.746,8.771,7.355c6.426,2.994,13.906,2.803,20.941,3.682c7.606,0.945,15.313,2.564,22.923,1.697
		c5.695-0.65,16.412-5.094,16.412-5.094"/>
</g>
</svg>
