<svg xmlns="http://www.w3.org/2000/svg" viewBox="0 0 768 430"><style>.a{fill:#A7A9AC;}.b{fill:#EA4F78;}.c{fill:#FFF;}.d{fill:#F0728E;}.e{fill:#F4856C;}</style><path d="M125.4 175.5c0.4 6.4 46.1 17.7 53.1 19.8 19.7 6 39.6 10.9 59.7 15 42.3 8.5 85.4 12.7 128.5 12.7 41.4 0 82.8-3.9 123.4-11.7 20.2-3.9 40.2-8.7 59.9-14.5 9.8-2.9 19.6-6 29.3-9.4 4.3-1.5 28.5-7.9 28.8-11.9C454.6 237.2 278.9 237.2 125.4 175.5 125.4 175.9 279.5 237.4 125.4 175.5z" class="a"/><path d="M145.1 167.3c-4.1-11.7-16.3 3.3-19.7 7.9 -3.4-3.5-14.5-14.7-19.2-7.7 -8.8 13 11.6 11.3 17.9 9.5 -4.4 6.9-7.4 14.7-7.6 22.9 -0.4 0 6.8-20 9-23.2 2.6 2.8 12.4 21.3 11.7 21.4 -1.2-8-5.1-15.3-10.3-21.4C133.3 177.5 148.9 178.2 145.1 167.3 143.7 163.4 145.9 169.6 145.1 167.3zM123.8 176c-4.9 1.5-26.4 3.1-16.6-8.2C112.8 161.5 122.7 176.3 123.8 176 122 176.5 124 175.9 123.8 176zM144.2 172.5c-2.8 5.3-13.3 3.7-17.8 3.1 2.5-3.4 5.2-6.7 8.6-9.3C139.7 162.7 147.8 165.9 144.2 172.5 143.1 174.5 144.9 171.3 144.2 172.5z" class="a"/><path d="M628.6 170.7c-2.6-12.1-16.3 0.3-20.5 4.5 -3-4.1-10-14.3-16.2-12.1 -4.5 1.6-5.5 9.3-1.6 12 4.5 3.1 11.2 2.3 16.3 1.7 -5.2 6.1-9.1 13.4-10.3 21.4 -0.6-0.1 9.1-18.6 11.7-21.4 2.2 3.2 9.4 23.2 9 23.2 -0.2-8.3-3.3-16-7.6-22.9C615.5 178.8 631.1 182.2 628.6 170.7 627.7 166.6 629.1 173.1 628.6 170.7zM606.5 175.7c-4.5 0.6-26.7-1.2-15.4-10.9C597.4 159.4 605.4 175.9 606.5 175.7 604.6 175.9 606.7 175.7 606.5 175.7zM627.1 175.7c-3.5 4.8-13.6 1.4-18 0.1 2.9-2.9 6-5.8 9.6-7.7C623.9 165.2 631.5 169.8 627.1 175.7 625.8 177.5 627.9 174.6 627.1 175.7z" class="a"/><path d="M154.6 184.4c-4.6 18.2-9.2 36.3-13.8 54.5 7.3-2.1 14.6-4.3 21.8-6.6 5.2 6.2 10.6 12.3 16 18.3 3.2-15 6.3-30.1 9.4-45.2 2.2-10.7 2.3-9.9-8.1-12.9C171.4 189.9 163 187.2 154.6 184.4 150 202.5 166.3 188.3 154.6 184.4z" class="b"/><path d="M181.9 212.3c-0.2-3.6-3.3-7.2-7.2-6.3 3.3-9.2-10.3-13.6-11.4-3.6 -6.6-6.8-14.6 6.9-6.6 11.4 -7.8 5.2 1.4 18.2 7.5 10.8 2.1 10 15.7 3.8 11.2-4.9C179.5 220 182.2 216 181.9 212.3 181.7 208.5 182.2 216.1 181.9 212.3z" class="c"/><path d="M172.9 212.9c0.7-0.1 0.9 1 0.5 1.4C172.6 215 171.5 213.1 172.9 212.9 173 212.8 172.5 212.9 172.9 212.9z" class="d"/><path d="M172.2 210.4c0.8-0.5 1.4 1.2 0.5 1.5C171.7 211.7 171.6 211.2 172.2 210.4 172.4 210.3 171.9 210.6 172.2 210.4z" class="d"/><path d="M170.8 208.4c0.6-0.8 1.7 0.5 0.9 1.1C170.8 209.8 170.5 209.4 170.8 208.4 170.9 208.3 170.6 208.7 170.8 208.4z" class="d"/><path d="M168.9 207.1c0.3-1 1.7-0.2 1.2 0.7C169.3 208.4 168.9 208.2 168.9 207.1 169 206.9 168.8 207.5 168.9 207.1z" class="d"/><path d="M166.8 206.7c0-0.7 0.8-1.1 1.2-0.4C168.6 207.1 166.8 208.3 166.8 206.7 166.8 206.5 166.8 207.1 166.8 206.7z" class="d"/><path d="M164.6 207.2c-0.2-0.6 0.4-1.4 1-0.9C166.5 206.9 165.1 208.6 164.6 207.2 164.5 207 164.7 207.6 164.6 207.2z" class="d"/><path d="M162.7 208.6c-0.4-0.5 0-1.4 0.7-1.3C164.5 207.5 163.7 209.7 162.7 208.6 162.6 208.4 163 208.9 162.7 208.6z" class="d"/><path d="M161.4 210.6c-0.6-0.3-0.4-1.3 0.2-1.5C162.7 208.9 162.6 211.2 161.4 210.6 161.2 210.5 161.8 210.8 161.4 210.6z" class="d"/><path d="M160.8 213.1c-1-0.1-0.6-1.9 0.3-1.5C161.9 212.2 161.8 212.7 160.8 213.1 160.6 213 161.2 213.1 160.8 213.1z" class="d"/><path d="M161.1 215.6c-0.9 0.3-1.2-1.5-0.2-1.5C161.8 214.4 161.8 214.9 161.1 215.6 160.9 215.7 161.4 215.5 161.1 215.6z" class="d"/><path d="M162.1 217.9c-0.7 0.6-1.6-0.9-0.7-1.3C162.4 216.5 162.6 217 162.1 217.9 161.9 218 162.4 217.6 162.1 217.9z" class="d"/><path d="M163.8 219.6c-0.5 0.9-1.7-0.2-1.1-1C163.6 218.2 164 218.5 163.8 219.6 163.7 219.8 164 219.2 163.8 219.6z" class="d"/><path d="M165.9 220.5c-0.1 0.7-1 0.8-1.3 0.2C164.1 219.6 166.1 218.8 165.9 220.5 165.8 220.7 165.9 220 165.9 220.5z" class="d"/><path d="M168.1 220.4c0.1 0.6-0.6 1.2-1.2 0.7C166.2 220.3 167.8 218.9 168.1 220.4 168.1 220.6 168 220 168.1 220.4z" class="d"/><path d="M170.2 219.5c0.5 0.9-0.9 1.7-1.2 0.7C168.9 219.1 169.3 218.8 170.2 219.5 170.3 219.6 170 219.1 170.2 219.5z" class="d"/><path d="M171.8 217.7c0.5 0.4 0.3 1.4-0.4 1.4C170.2 219.1 170.7 216.8 171.8 217.7 171.9 217.8 171.5 217.5 171.8 217.7z" class="d"/><path d="M172.7 215.4c0.9 0.3 0.4 2-0.5 1.5C171.6 216.1 171.7 215.6 172.7 215.4 173.1 215.5 172.3 215.3 172.7 215.4z" class="d"/><path d="M169.4 214.5c-0.9 3.9-6 2-5.2-1.6C165.2 208.9 170.2 210.9 169.4 214.5 169.1 216.1 169.8 212.8 169.4 214.5z" class="d"/><path d="M250.4 209c-2.5 18.7-5 37.4-7.6 56.1 7-3.2 14-6.4 20.9-9.8 5.9 5.3 11.9 10.6 18 15.7 1.4-15.4 2.8-30.8 4.2-46.2 1-10.9 1.3-10.1-9.5-11.6C267.7 212 259 210.6 250.4 209 247.9 227.7 262.5 211.2 250.4 209z" class="b"/><path d="M280.7 232.6c-0.6-3.6-4.1-6.7-7.9-5.2 2.3-9.6-11.7-11.9-11.7-1.8 -7.3-5.8-13.8 9-5.3 12.3 -7.1 6.3 3.5 17.9 8.7 9.5 3.1 9.6 16 1.5 10.6-6.5C279.2 240.7 281.4 236.3 280.7 232.6 280 228.9 281.4 236.4 280.7 232.6z" class="c"/><path d="M271.8 234.6c0.9-0.3 1.1 1.5 0.2 1.5C271 235.7 271 235.2 271.8 234.6 271.9 234.5 271.4 234.7 271.8 234.6z" class="d"/><path d="M270.8 232.2c0.8-0.6 1.5 1 0.7 1.4C270.5 233.6 270.3 233.1 270.8 232.2 271 232.1 270.5 232.5 270.8 232.2z" class="d"/><path d="M269.2 230.5c0.5-0.9 1.7 0.3 1 1C269.3 231.8 269 231.5 269.2 230.5 269.3 230.3 269 230.8 269.2 230.5z" class="d"/><path d="M267.2 229.5c0.1-0.7 1-0.7 1.3-0.1C268.9 230.4 266.9 231.1 267.2 229.5 267.3 229.2 267.1 229.9 267.2 229.5z" class="d"/><path d="M265 229.4c-0.1-0.6 0.7-1.2 1.2-0.6C266.9 229.5 265.2 230.9 265 229.4 265 229.1 265.1 229.8 265 229.4z" class="d"/><path d="M262.9 230.2c-0.3-0.5 0.2-1.4 0.9-1.1C264.8 229.6 263.6 231.5 262.9 230.2 262.8 230 263.1 230.6 262.9 230.2z" class="d"/><path d="M261.2 231.8c-0.5-0.4-0.2-1.4 0.5-1.4C262.8 230.5 262.3 232.8 261.2 231.8 261.1 231.7 261.5 232.1 261.2 231.8z" class="d"/><path d="M260.1 234c-0.6-0.2-0.6-1.3 0-1.5C261.2 232.2 261.4 234.5 260.1 234 260 234 260.5 234.2 260.1 234z" class="d"/><path d="M259.8 236.6c-1 0-0.8-1.8 0.1-1.6C260.8 235.6 260.7 236.1 259.8 236.6 259.6 236.6 260.2 236.5 259.8 236.6z" class="d"/><path d="M260.4 239c-0.9 0.4-1.4-1.3-0.4-1.5C260.9 237.8 261 238.3 260.4 239 260.2 239.1 260.7 238.9 260.4 239z" class="d"/><path d="M261.6 241.1c-0.6 0.7-1.7-0.6-0.9-1.2C261.8 239.8 262 240.2 261.6 241.1 261.5 241.3 261.9 240.8 261.6 241.1z" class="d"/><path d="M263.5 242.6c-0.4 1-1.7 0.1-1.2-0.8C263.2 241.2 263.6 241.5 263.5 242.6 263.4 242.8 263.6 242.2 263.5 242.6z" class="d"/><path d="M265.7 243.1c0 0.7-0.9 1-1.3 0.4C263.8 242.6 265.7 241.5 265.7 243.1 265.7 243.4 265.7 242.7 265.7 243.1z" class="d"/><path d="M267.9 242.8c0.2 0.6-0.5 1.3-1.1 0.9C266 243 267.4 241.3 267.9 242.8 268 243 267.8 242.4 267.9 242.8z" class="d"/><path d="M269.8 241.5c0.6 0.8-0.7 1.8-1.1 0.9C268.5 241.3 268.9 241 269.8 241.5 270 241.7 269.6 241.2 269.8 241.5z" class="d"/><path d="M271.2 239.5c0.5 0.3 0.4 1.4-0.3 1.5C269.9 241.1 270 238.8 271.2 239.5 271.4 239.6 270.9 239.3 271.2 239.5z" class="d"/><path d="M271.9 237.1c1 0.1 0.6 1.9-0.3 1.5C270.8 237.9 270.9 237.4 271.9 237.1 272.3 237.1 271.5 237.1 271.9 237.1z" class="d"/><path d="M268.5 236.7c-0.4 4-5.8 3-5.3-0.8C263.7 231.9 268.9 232.9 268.5 236.7 268.4 238.3 268.7 235 268.5 236.7z" class="d"/><path d="M348.4 219.2c-0.4 18.9-0.8 37.9-1.2 56.8 6.6-4.2 13.1-8.5 19.6-12.9 6.5 4.4 13 8.7 19.6 12.9 -0.4-18.9-0.8-37.9-1.2-56.8C372.9 219.5 360.6 219.5 348.4 219.2 348 238.1 360.6 219.5 348.4 219.2z" class="b"/><path d="M381.1 238c-1.1-3.5-4.9-6-8.4-4 1.2-9.9-13-10-11.9-0.1 -7.9-4.7-12.8 11-3.9 13 -6.3 7.2 5.4 17.2 9.7 8.2 4.2 9.1 16-0.8 9.8-8.1C380.4 246.2 382.2 241.6 381.1 238 380 234.4 382.2 241.6 381.1 238z" class="c"/><path d="M372.4 241.3c0.9-0.4 1.3 1.3 0.4 1.5C371.8 242.5 371.7 242 372.4 241.3 372.6 241.2 372.1 241.4 372.4 241.3z" class="d"/><path d="M371.2 239.1c0.7-0.7 1.6 0.7 0.8 1.3C371 240.5 370.8 240.1 371.2 239.1 371.4 239 370.9 239.4 371.2 239.1z" class="d"/><path d="M369.4 237.6c0.4-1 1.7 0 1.1 0.8C369.7 238.9 369.3 238.7 369.4 237.6 369.5 237.4 369.3 238 369.4 237.6z" class="d"/><path d="M367.3 236.9c0.1-0.7 0.9-0.9 1.3-0.3C369.1 237.6 367.2 238.5 367.3 236.9 367.3 236.7 367.3 237.3 367.3 236.9z" class="d"/><path d="M365.1 237.1c-0.1-0.6 0.5-1.3 1.1-0.8C367 237.1 365.5 238.6 365.1 237.1 365.1 236.9 365.2 237.5 365.1 237.1z" class="d"/><path d="M363.1 238.3c-0.3-0.5 0.1-1.4 0.8-1.2C364.9 237.4 364 239.5 363.1 238.3 363 238.1 363.4 238.6 363.1 238.3z" class="d"/><path d="M361.6 240.1c-0.5-0.4-0.3-1.4 0.4-1.4C363.1 238.6 362.8 240.9 361.6 240.1 361.5 240 361.9 240.4 361.6 240.1z" class="d"/><path d="M360.8 242.5c-0.7-0.1-0.7-1.2-0.1-1.5C361.7 240.5 362.1 242.8 360.8 242.5 360.6 242.5 361.2 242.6 360.8 242.5z" class="d"/><path d="M360.8 245c-1 0.2-1-1.6-0.1-1.6C361.6 244 361.6 244.5 360.8 245 360.6 245.1 361.2 245 360.8 245z" class="d"/><path d="M361.6 247.4c-0.8 0.6-1.5-1.1-0.6-1.4C362 246.1 362.2 246.6 361.6 247.4 361.4 247.5 361.9 247.2 361.6 247.4z" class="d"/><path d="M363.1 249.3c-0.6 0.8-1.8-0.3-1-1.1C363.1 247.9 363.4 248.3 363.1 249.3 363 249.5 363.3 249 363.1 249.3z" class="d"/><path d="M365.1 250.5c-0.2 0.7-1.1 0.7-1.3 0C363.4 249.4 365.5 248.9 365.1 250.5 365 250.7 365.2 250 365.1 250.5z" class="d"/><path d="M367.3 250.7c0.1 0.7-0.8 1.1-1.2 0.5C365.4 250.4 367.2 249.1 367.3 250.7 367.3 250.9 367.3 250.3 367.3 250.7z" class="d"/><path d="M369.5 250c0.2 0.6-0.3 1.4-1 1C367.6 250.5 368.8 248.6 369.5 250 369.6 250.2 369.3 249.6 369.5 250z" class="d"/><path d="M371.3 248.5c0.7 0.7-0.5 1.9-1 1C370 248.4 370.3 248.1 371.3 248.5 371.4 248.6 371 248.2 371.3 248.5z" class="d"/><path d="M372.4 246.3c0.6 0.3 0.5 1.3-0.1 1.5C371.3 248.1 371.2 245.8 372.4 246.3 372.6 246.4 372.1 246.1 372.4 246.3z" class="d"/><path d="M372.8 243.8c0.9 0 0.8 1.8-0.1 1.6C371.9 244.7 371.9 244.2 372.8 243.8 373.2 243.8 372.4 243.8 372.8 243.8z" class="d"/><path d="M369.4 243.8c0 3.9-5.4 3.9-5.4 0C364.1 239.9 369.4 239.9 369.4 243.8 369.4 245.5 369.4 242.1 369.4 243.8z" class="d"/><path d="M446.6 214.5c1.7 18.8 3.4 37.6 5.2 56.5 6.1-5.1 12.1-10.4 18-15.7 6.9 3.4 13.9 6.7 20.9 9.8 -2.5-18.7-5.1-37.4-7.6-56.1C471 211.2 458.8 213 446.6 214.5 448.4 233.4 458.8 213 446.6 214.5z" class="b"/><path d="M481.2 228.4c-1.5-3.4-5.6-5.1-8.7-2.7 0-10.1-14-7.9-11.8 1.7 -8.4-3.4-11.4 12.8-2.4 13.4 -5.4 8.1 7.3 16.2 10.5 6.6 5.2 8.3 15.8-3.2 8.8-9.5C481.4 236.6 482.7 231.8 481.2 228.4 479.7 224.9 482.7 231.8 481.2 228.4z" class="c"/><path d="M472.9 232.9c0.8-0.5 1.4 1.1 0.5 1.4C472.5 234.2 472.3 233.7 472.9 232.9 473.1 232.8 472.6 233.1 472.9 232.9z" class="d"/><path d="M471.5 230.9c0.6-0.8 1.7 0.5 0.9 1.1C471.5 232.3 471.2 231.9 471.5 230.9 471.6 230.7 471.3 231.2 471.5 230.9z" class="d"/><path d="M469.6 229.7c0.2-0.7 1.1-0.6 1.3 0.1C471.2 230.8 469.2 231.2 469.6 229.7 469.7 229.5 469.5 230.1 469.6 229.7z" class="d"/><path d="M467.4 229.3c0-0.7 0.8-1.1 1.2-0.5C469.2 229.7 467.5 230.9 467.4 229.3 467.4 229.1 467.4 229.7 467.4 229.3z" class="d"/><path d="M465.3 229.9c-0.2-0.6 0.4-1.4 1-0.9C467.1 229.5 465.8 231.3 465.3 229.9 465.2 229.6 465.4 230.2 465.3 229.9z" class="d"/><path d="M463.4 231.3c-0.4-0.5-0.1-1.4 0.6-1.3C465.1 230.2 464.4 232.3 463.4 231.3 463.3 231.1 463.7 231.6 463.4 231.3z" class="d"/><path d="M462.1 233.3c-0.6-0.3-0.4-1.3 0.2-1.5C463.4 231.6 463.4 234 462.1 233.3 462 233.3 462.5 233.5 462.1 233.3z" class="d"/><path d="M461.6 235.8c-0.7 0-0.8-1.1-0.3-1.5C462.2 233.7 463 235.9 461.6 235.8 461.4 235.8 462 235.8 461.6 235.8z" class="d"/><path d="M461.9 238.3c-0.9 0.3-1.2-1.5-0.3-1.5C462.5 237.2 462.6 237.7 461.9 238.3 461.7 238.4 462.2 238.2 461.9 238.3z" class="d"/><path d="M462.9 240.6c-0.7 0.7-1.6-0.8-0.7-1.3C463.2 239.2 463.4 239.7 462.9 240.6 462.8 240.7 463.2 240.3 462.9 240.6z" class="d"/><path d="M464.6 242.2c-0.5 0.9-1.8-0.1-1.1-0.9C464.4 240.9 464.8 241.2 464.6 242.2 464.5 242.4 464.8 241.9 464.6 242.2z" class="d"/><path d="M466.7 243.1c-0.1 0.7-1 0.9-1.3 0.2C465 242.3 466.9 241.5 466.7 243.1 466.7 243.3 466.8 242.6 466.7 243.1z" class="d"/><path d="M469 243c0.1 0.6-0.6 1.3-1.1 0.7C467 242.9 468.6 241.4 469 243 469 243.2 468.9 242.6 469 243z" class="d"/><path d="M471 242c0.3 0.5-0.2 1.4-0.8 1.2C469.2 242.7 470.2 240.7 471 242 471.1 242.1 470.8 241.6 471 242z" class="d"/><path d="M472.6 240.2c0.8 0.6-0.3 1.9-0.9 1.2C471.3 240.3 471.6 239.9 472.6 240.2 472.8 240.3 472.3 239.9 472.6 240.2z" class="d"/><path d="M473.5 237.8c0.7 0.2 0.6 1.2 0.1 1.5C472.6 239.8 472.2 237.5 473.5 237.8 473.7 237.9 473.2 237.7 473.5 237.8z" class="d"/><path d="M473.6 235.3c0.9-0.2 1 1.7 0 1.6C472.8 236.3 472.8 235.8 473.6 235.3 474 235.2 473.3 235.3 473.6 235.3z" class="d"/><path d="M470.3 235.9c0.4 3.8-4.9 4.8-5.3 0.8C464.6 232.9 469.8 231.9 470.3 235.9 470.5 237.5 470.1 234.2 470.3 235.9z" class="d"/><path d="M543.5 195.3c3.8 18.4 7.6 36.8 11.5 55.2 5.4-6 10.8-12.1 16-18.3 7.2 2.3 14.5 4.6 21.8 6.6 -4.6-18.1-9.2-36.3-13.8-54.5C567.2 188.3 555.4 192 543.5 195.3 547.3 213.7 555.4 192 543.5 195.3z" class="b"/><path d="M579.2 203.8c-1.9-3.3-6.2-4.1-8.9-1.3 -1.1-10-14.7-5.7-11.4 3.5 -8.8-2.1-9.8 14.4-0.8 13.7 -4.5 8.8 9.1 15 11.2 5 6.1 7.5 15.3-5.5 7.6-10.7C580.2 212 581.1 207.1 579.2 203.8 577.3 200.6 581 207 579.2 203.8z" class="c"/><path d="M571.5 209.5c0.8-0.7 1.5 0.9 0.7 1.3C571.2 210.8 571 210.4 571.5 209.5 571.7 209.4 571.2 209.8 571.5 209.5z" class="d"/><path d="M569.9 207.8c0.5-0.9 1.7 0.2 1.1 1C570 209.1 569.7 208.8 569.9 207.8 570 207.6 569.7 208.1 569.9 207.8z" class="d"/><path d="M567.9 206.8c0.1-0.7 1-0.8 1.3-0.1C569.6 207.7 567.6 208.4 567.9 206.8z" class="d"/><path d="M565.7 206.8c-0.1-0.6 0.7-1.2 1.2-0.6C567.5 206.9 565.9 208.4 565.7 206.8 565.6 206.6 565.7 207.2 565.7 206.8z" class="d"/><path d="M563.6 207.7c-0.3-0.5 0.2-1.4 0.9-1.1C565.4 207.1 564.3 209 563.6 207.7 563.5 207.5 563.8 208 563.6 207.7z" class="d"/><path d="M561.9 209.3c-0.5-0.4-0.2-1.4 0.5-1.4C563.5 208 563 210.3 561.9 209.3 561.8 209.2 562.2 209.6 561.9 209.3z" class="d"/><path d="M560.9 211.6c-0.6-0.2-0.6-1.3 0-1.5C561.9 209.7 562.2 212 560.9 211.6 560.7 211.5 561.3 211.7 560.9 211.6z" class="d"/><path d="M560.6 214.1c-0.7 0.1-0.9-1-0.4-1.4C561 212 562 214 560.6 214.1 560.4 214.1 561 214.1 560.6 214.1z" class="d"/><path d="M561.2 216.6c-0.9 0.5-1.4-1.3-0.4-1.5C561.7 215.3 561.9 215.8 561.2 216.6 561 216.7 561.5 216.4 561.2 216.6z" class="d"/><path d="M562.5 218.7c-0.7 0.8-1.6-0.6-0.9-1.2C562.6 217.3 562.9 217.7 562.5 218.7 562.3 218.8 562.7 218.3 562.5 218.7z" class="d"/><path d="M564.3 220c-0.3 0.9-1.8 0.2-1.2-0.8C564 218.7 564.4 219 564.3 220 564.3 220.2 564.5 219.6 564.3 220z" class="d"/><path d="M566.5 220.5c0 0.7-0.9 1-1.3 0.4C564.7 220 566.5 218.9 566.5 220.5 566.5 220.8 566.5 220.1 566.5 220.5z" class="d"/><path d="M568.7 220.1c0.2 0.6-0.5 1.4-1.1 0.9C566.8 220.4 568.2 218.7 568.7 220.1 568.8 220.3 568.6 219.7 568.7 220.1z" class="d"/><path d="M570.7 218.8c0.4 0.5 0 1.4-0.7 1.3C568.9 219.8 569.7 217.7 570.7 218.8 570.8 219 570.4 218.5 570.7 218.8z" class="d"/><path d="M572 216.8c0.9 0.5-0.1 2-0.8 1.3C570.8 217.2 571 216.7 572 216.8 572.2 216.9 571.7 216.6 572 216.8z" class="d"/><path d="M572.7 214.3c0.7 0.1 0.7 1.1 0.2 1.5C572 216.4 571.3 214.2 572.7 214.3 572.9 214.4 572.3 214.3 572.7 214.3z" class="d"/><path d="M572.5 211.8c0.8-0.3 1.2 1.5 0.2 1.5C571.8 213 571.7 212.4 572.5 211.8 572.9 211.7 572.1 211.9 572.5 211.8z" class="d"/><path d="M569.2 212.9c0.8 3.6-4.3 5.5-5.2 1.6C563.3 210.9 568.3 208.9 569.2 212.9 569.6 214.5 568.9 211.2 569.2 212.9z" class="d"/><path d="M202.1 198.5c-3.5 18.5-7.1 36.9-10.7 55.4 7.2-2.6 14.3-5.4 21.4-8.3 5.6 5.8 11.3 11.4 17 17 2.3-15.3 4.6-30.5 6.8-45.8 1.6-10.8 1.8-10-8.8-12.3C219.2 202.7 210.6 200.7 202.1 198.5 198.6 217 214.1 201.6 202.1 198.5z" class="e"/><path d="M231 224.3c-0.4-3.6-3.7-7-7.5-5.8 2.8-9.4-11.1-12.8-11.6-2.7 -7-6.3-14.2 8-5.9 11.9 -7.5 5.7 2.4 18.1 8.1 10.2 2.6 9.8 15.8 2.7 10.9-5.7C229.1 232.2 231.5 228 231 224.3 230.6 220.5 231.5 228.1 231 224.3z" class="c"/><path d="M222 225.6c0.9-0.2 1.1 1.6 0.1 1.6C221.2 226.7 221.2 226.1 222 225.6 222.2 225.5 221.6 225.6 222 225.6z" class="e"/><path d="M221.2 223.2c0.8-0.6 1.5 1.1 0.6 1.4C220.8 224.5 220.6 224 221.2 223.2 221.3 223.1 220.9 223.4 221.2 223.2z" class="e"/><path d="M219.7 221.3c0.6-0.9 1.7 0.4 1 1.1C219.7 222.7 219.4 222.3 219.7 221.3 219.8 221.1 219.5 221.6 219.7 221.3z" class="e"/><path d="M217.7 220.1c0.2-0.7 1.1-0.7 1.3 0C219.3 221.1 217.4 221.7 217.7 220.1 217.8 219.9 217.6 220.5 217.7 220.1z" class="e"/><path d="M215.5 219.9c0-0.6 0.8-1.1 1.2-0.5C217.4 220.2 215.7 221.5 215.5 219.9 215.5 219.7 215.6 220.3 215.5 219.9z" class="e"/><path d="M213.4 220.5c-0.2-0.6 0.3-1.4 1-1C215.3 220.1 214 221.9 213.4 220.5 213.3 220.3 213.6 220.9 213.4 220.5z" class="e"/><path d="M211.6 222c-0.4-0.4-0.1-1.4 0.6-1.3C213.3 220.8 212.6 223.1 211.6 222 211.5 221.9 211.9 222.3 211.6 222z" class="e"/><path d="M210.4 224.2c-0.6-0.3-0.5-1.3 0.1-1.5C211.6 222.4 211.7 224.7 210.4 224.2 210.2 224.1 210.8 224.3 210.4 224.2z" class="e"/><path d="M210 226.7c-1 0-0.7-1.8 0.2-1.5C210.9 225.7 210.9 226.3 210 226.7 209.8 226.7 210.4 226.7 210 226.7z" class="e"/><path d="M210.4 229.2c-0.9 0.4-1.3-1.4-0.3-1.5C211 228 211.1 228.5 210.4 229.2 210.2 229.3 210.7 229 210.4 229.2z" class="e"/><path d="M211.5 231.4c-0.7 0.7-1.7-0.8-0.8-1.3C211.7 230 212 230.4 211.5 231.4 211.4 231.5 211.8 231.1 211.5 231.4z" class="e"/><path d="M213.3 232.9c-0.4 1-1.7-0.1-1.1-0.9C213 231.6 213.4 231.9 213.3 232.9 213.2 233.1 213.4 232.6 213.3 232.9z" class="e"/><path d="M215.4 233.7c-0.1 0.7-1 0.9-1.3 0.3C213.6 233 215.5 232.1 215.4 233.7 215.4 233.9 215.5 233.2 215.4 233.7z" class="e"/><path d="M217.7 233.5c0.2 0.6-0.6 1.3-1.1 0.8C215.7 233.5 217.3 231.9 217.7 233.5 217.7 233.7 217.5 233.1 217.7 233.5z" class="e"/><path d="M219.7 232.3c0.5 0.8-0.8 1.8-1.2 0.8C218.4 232 218.8 231.8 219.7 232.3 219.8 232.5 219.4 232 219.7 232.3z" class="e"/><path d="M221.2 230.5c0.5 0.4 0.3 1.4-0.4 1.4C219.7 232 220 229.7 221.2 230.5 221.3 230.6 220.8 230.3 221.2 230.5z" class="e"/><path d="M222 228.1c1 0.2 0.5 1.9-0.4 1.5C220.9 228.8 221 228.3 222 228.1 222.3 228.2 221.6 228 222 228.1z" class="e"/><path d="M218.6 227.4c-0.7 4-5.9 2.5-5.3-1.2C214.1 222.3 219.3 223.7 218.6 227.4 218.4 229.1 218.9 225.7 218.6 227.4z" class="e"/><path d="M299.2 215.9c-1.5 18.9-2.9 37.7-4.4 56.6 6.8-3.7 13.6-7.5 20.3-11.4 6.2 4.9 12.5 9.7 18.8 14.3 0.5-15.5 1.1-31 1.6-46.4 0.4-11 0.7-10.2-10.1-10.9C316.7 217.6 307.9 216.8 299.2 215.9 297.8 234.8 311.4 217.2 299.2 215.9z" class="e"/><path d="M330.8 237.2c-0.9-3.6-4.5-6.3-8.1-4.6 1.7-9.8-12.4-10.9-11.8-0.9 -7.7-5.2-13.3 10.1-4.6 12.6 -6.7 6.8 4.5 17.6 9.2 8.9 3.7 9.4 16.1 0.3 10.2-7.3C329.7 245.4 331.7 240.8 330.8 237.2 329.9 233.5 331.7 240.9 330.8 237.2z" class="c"/><path d="M322 239.8c0.9-0.3 1.2 1.4 0.3 1.5C321.3 241 321.2 240.5 322 239.8 322.2 239.7 321.6 239.9 322 239.8z" class="e"/><path d="M320.9 237.6c0.7-0.7 1.6 0.8 0.7 1.3C320.6 238.9 320.4 238.5 320.9 237.6 321.1 237.4 320.6 237.8 320.9 237.6z" class="e"/><path d="M319.2 235.9c0.5-0.9 1.7 0.2 1.1 0.9C319.4 237.3 319 237 319.2 235.9 319.3 235.7 319.1 236.3 319.2 235.9z" class="e"/><path d="M317.1 235.1c0.1-0.7 1-0.8 1.3-0.2C318.9 235.8 317 236.7 317.1 235.1 317.2 234.8 317.1 235.5 317.1 235.1z" class="e"/><path d="M314.9 235.1c-0.1-0.6 0.6-1.2 1.1-0.7C316.8 235.2 315.3 236.7 314.9 235.1 314.9 234.9 315 235.5 314.9 235.1z" class="e"/><path d="M312.9 236.1c-0.3-0.5 0.2-1.4 0.8-1.1C314.7 235.4 313.7 237.4 312.9 236.1 312.8 235.9 313.1 236.5 312.9 236.1z" class="e"/><path d="M311.3 237.9c-0.5-0.4-0.3-1.4 0.4-1.4C312.8 236.4 312.4 238.7 311.3 237.9 311.1 237.7 311.6 238.1 311.3 237.9z" class="e"/><path d="M310.3 240.2c-0.7-0.2-0.6-1.2 0-1.5C311.3 238.2 311.7 240.5 310.3 240.2 310.2 240.1 310.7 240.3 310.3 240.2z" class="e"/><path d="M310.2 242.7c-1 0.1-0.9-1.7 0-1.6C311 241.7 311 242.2 310.2 242.7 310 242.7 310.6 242.6 310.2 242.7z" class="e"/><path d="M310.8 245.1c-0.9 0.5-1.4-1.2-0.5-1.5C311.3 243.8 311.5 244.3 310.8 245.1 310.7 245.2 311.2 244.9 310.8 245.1z" class="e"/><path d="M312.2 247.1c-0.6 0.8-1.8-0.5-0.9-1.2C312.3 245.7 312.6 246.1 312.2 247.1 312.1 247.3 312.5 246.8 312.2 247.1z" class="e"/><path d="M314.2 248.4c-0.2 0.7-1.1 0.6-1.3-0.1C312.6 247.3 314.6 246.9 314.2 248.4 314.1 248.6 314.3 248 314.2 248.4z" class="e"/><path d="M316.4 248.8c0 0.7-0.8 1.1-1.2 0.5C314.5 248.4 316.3 247.2 316.4 248.8 316.4 249 316.4 248.4 316.4 248.8z" class="e"/><path d="M318.6 248.3c0.2 0.6-0.4 1.4-1 0.9C316.7 248.6 318 246.9 318.6 248.3 318.6 248.5 318.4 247.9 318.6 248.3z" class="e"/><path d="M320.4 246.9c0.6 0.7-0.6 1.9-1.1 1C319.1 246.8 319.5 246.5 320.4 246.9 320.6 247 320.2 246.6 320.4 246.9z" class="e"/><path d="M321.7 244.8c0.6 0.3 0.5 1.3-0.2 1.5C320.5 246.5 320.5 244.2 321.7 244.8 321.9 244.9 321.4 244.6 321.7 244.8z" class="e"/><path d="M322.3 242.3c0.9 0 0.7 1.8-0.2 1.5C321.3 243.2 321.3 242.7 322.3 242.3 322.6 242.3 321.9 242.3 322.3 242.3z" class="e"/><path d="M318.9 242.1c-0.2 3.9-5.6 3.5-5.4-0.4C313.7 237.8 319.1 238.3 318.9 242.1 318.8 243.8 319 240.4 318.9 242.1z" class="e"/><path d="M397.6 218.7c0.7 18.9 1.3 37.8 2 56.7 6.4-4.7 12.6-9.5 18.8-14.3 6.7 3.9 13.5 7.7 20.3 11.4 -1.5-18.9-2.9-37.7-4.4-56.6C422.1 217.2 409.8 218.1 397.6 218.7 398.2 237.6 409.8 218.1 397.6 218.7z" class="e"/><path d="M431.3 235.1c-1.3-3.5-5.3-5.5-8.6-3.3 0.6-10-13.6-8.9-11.8 0.8 -8.3-4.1-12.1 12-3.1 13.2 -5.8 7.7 6.4 16.7 10.1 7.4 4.6 8.7 16-2 9.3-8.8C431.1 243.3 432.6 238.6 431.3 235.1 430 231.5 432.6 238.6 431.3 235.1z" class="c"/><path d="M422.8 239c0.9-0.5 1.4 1.2 0.4 1.5C422.3 240.2 422.1 239.7 422.8 239 423 238.9 422.5 239.1 422.8 239z" class="e"/><path d="M421.5 236.9c0.6-0.8 1.6 0.6 0.9 1.2C421.4 238.3 421.1 237.9 421.5 236.9 421.6 236.7 421.2 237.2 421.5 236.9z" class="e"/><path d="M419.6 235.5c0.4-1 1.7-0.1 1.2 0.8C420 236.8 419.6 236.6 419.6 235.5 419.7 235.3 419.5 235.9 419.6 235.5z" class="e"/><path d="M417.5 235c0-0.7 0.9-1 1.3-0.4C419.3 235.5 417.5 236.6 417.5 235 417.5 234.8 417.5 235.4 417.5 235z" class="e"/><path d="M415.3 235.4c-0.2-0.6 0.5-1.3 1.1-0.9C417.2 235.2 415.8 236.8 415.3 235.4 415.2 235.2 415.4 235.8 415.3 235.4z" class="e"/><path d="M413.4 236.6c-0.4-0.5 0-1.4 0.7-1.2C415.1 235.7 414.3 237.8 413.4 236.6 413.3 236.5 413.6 237 413.4 236.6z" class="e"/><path d="M412 238.6c-0.5-0.3-0.4-1.4 0.3-1.5C413.3 237 413.2 239.3 412 238.6 411.8 238.5 412.3 238.8 412 238.6z" class="e"/><path d="M411.3 241c-0.7-0.1-0.7-1.2-0.2-1.5C412 239 412.7 241.2 411.3 241 411.1 241 411.7 241.1 411.3 241z" class="e"/><path d="M411.4 243.6c-0.9 0.3-1.1-1.5-0.2-1.5C412.2 242.5 412.2 243 411.4 243.6 411.2 243.6 411.8 243.5 411.4 243.6z" class="e"/><path d="M412.4 245.9c-0.8 0.6-1.5-1-0.7-1.4C412.7 244.6 412.9 245 412.4 245.9 412.2 246 412.7 245.7 412.4 245.9z" class="e"/><path d="M414 247.7c-0.5 0.9-1.8-0.2-1-1C413.9 246.3 414.2 246.6 414 247.7 413.9 247.9 414.2 247.3 414 247.7z" class="e"/><path d="M416 248.7c-0.1 0.7-1.1 0.7-1.3 0.1C414.3 247.8 416.3 247.1 416 248.7 416 248.9 416.1 248.3 416 248.7z" class="e"/><path d="M418.3 248.7c0.1 0.6-0.7 1.2-1.2 0.6C416.4 248.6 418 247.2 418.3 248.7 418.3 249 418.2 248.3 418.3 248.7z" class="e"/><path d="M420.4 247.9c0.3 0.6-0.2 1.4-0.9 1.1C418.5 248.5 419.7 246.6 420.4 247.9 420.5 248.1 420.2 247.5 420.4 247.9z" class="e"/><path d="M422.1 246.2c0.7 0.7-0.4 1.9-1 1.1C420.8 246.3 421.1 245.9 422.1 246.2 422.2 246.3 421.8 245.9 422.1 246.2z" class="e"/><path d="M423.1 243.9c0.6 0.2 0.6 1.3 0 1.5C422.1 245.9 421.8 243.5 423.1 243.9 423.3 244 422.7 243.8 423.1 243.9z" class="e"/><path d="M423.4 241.4c0.9-0.1 0.9 1.7-0.1 1.6C422.5 242.4 422.5 241.9 423.4 241.4 423.7 241.4 423 241.5 423.4 241.4z" class="e"/><path d="M420 241.7c0.2 3.9-5.1 4.3-5.4 0.4C414.4 238.3 419.8 237.8 420 241.7 420.1 243.4 419.9 240 420 241.7z" class="e"/><path d="M495.3 206.7c2.8 18.7 5.5 37.3 8.3 56 5.8-5.6 11.4-11.3 17-17 7.1 2.9 14.2 5.6 21.4 8.3 -3.6-18.5-7.2-36.9-10.7-55.4C519.4 201.6 507.4 204.3 495.3 206.7 498.1 225.4 507.4 204.3 495.3 206.7z" class="e"/><path d="M530.5 217.9c-1.7-3.4-5.9-4.6-8.9-2 -0.4-10.1-14.4-6.8-11.6 2.6 -8.7-2.8-10.7 13.7-1.6 13.6 -4.9 8.4 8.1 15.6 10.9 5.8 5.7 8 15.6-4.4 8.2-10.1C531.2 226.2 532.3 221.3 530.5 217.9 528.9 214.6 532.2 221.2 530.5 217.9z" class="c"/><path d="M522.6 223c0.8-0.6 1.5 1 0.6 1.4C522.2 224.3 522 223.9 522.6 223 522.7 222.9 522.3 223.3 522.6 223z" class="e"/><path d="M521.1 221.2c0.6-0.9 1.7 0.4 1 1.1C521.1 222.6 520.8 222.2 521.1 221.2 521.2 221 520.9 221.5 521.1 221.2z" class="e"/><path d="M519.1 220.1c0.2-0.7 1.1-0.7 1.3 0C520.7 221.1 518.7 221.7 519.1 220.1 519.1 219.9 519 220.5 519.1 220.1z" class="e"/><path d="M516.9 219.9c-0.1-0.6 0.7-1.2 1.2-0.6C518.7 220.1 517.1 221.5 516.9 219.9 516.9 219.7 516.9 220.3 516.9 219.9z" class="e"/><path d="M514.8 220.6c-0.2-0.5 0.3-1.4 0.9-1C516.6 220.1 515.4 222 514.8 220.6 514.7 220.4 514.9 221 514.8 220.6z" class="e"/><path d="M513 222.1c-0.4-0.4-0.1-1.4 0.6-1.3C514.7 220.9 514 223.1 513 222.1 512.9 222 513.3 222.4 513 222.1z" class="e"/><path d="M511.8 224.3c-0.6-0.3-0.5-1.3 0.1-1.5C513 222.5 513.1 224.8 511.8 224.3 511.7 224.2 512.2 224.5 511.8 224.3z" class="e"/><path d="M511.4 226.8c-0.7 0-0.8-1.1-0.4-1.4C511.9 224.7 512.8 226.8 511.4 226.8 511.3 226.8 511.8 226.8 511.4 226.8z" class="e"/><path d="M511.9 229.3c-0.9 0.4-1.3-1.4-0.3-1.5C512.5 228.1 512.6 228.6 511.9 229.3 511.7 229.4 512.2 229.2 511.9 229.3z" class="e"/><path d="M513 231.5c-0.7 0.7-1.6-0.7-0.8-1.3C513.2 230.1 513.5 230.5 513 231.5 512.9 231.6 513.3 231.2 513 231.5z" class="e"/><path d="M514.8 233c-0.4 0.9-1.8 0.1-1.2-0.8C514.6 231.6 514.9 231.9 514.8 233 514.7 233.2 515 232.6 514.8 233z" class="e"/><path d="M517 233.7c-0.1 0.7-0.9 0.9-1.3 0.3C515.2 233 517.1 232.1 517 233.7 517 233.9 517 233.3 517 233.7z" class="e"/><path d="M519.2 233.4c0.2 0.6-0.5 1.3-1.1 0.8C517.3 233.5 518.8 231.9 519.2 233.4 519.3 233.6 519.1 233 519.2 233.4z" class="e"/><path d="M521.2 232.2c0.3 0.5-0.1 1.4-0.8 1.2C519.4 233.1 520.3 231 521.2 232.2 521.3 232.4 521 231.9 521.2 232.2z" class="e"/><path d="M522.7 230.3c0.8 0.5-0.2 2-0.8 1.2C521.4 230.6 521.7 230.2 522.7 230.3 522.8 230.4 522.4 230.1 522.7 230.3z" class="e"/><path d="M523.5 227.9c0.7 0.1 0.7 1.2 0.1 1.5C522.7 230 522.1 227.7 523.5 227.9 523.6 228 523.1 227.9 523.5 227.9z" class="e"/><path d="M523.4 225.4c0.9-0.2 1.1 1.6 0.1 1.6C522.6 226.5 522.6 226 523.4 225.4 523.8 225.3 523.1 225.5 523.4 225.4z" class="e"/><path d="M520.1 226.2c0.7 3.7-4.6 5.2-5.3 1.2C514.2 223.7 519.4 222.3 520.1 226.2 520.4 227.9 519.8 224.6 520.1 226.2z" class="e"/></svg>