<svg xmlns="http://www.w3.org/2000/svg" viewBox="0 0 768 430"><style>.a{fill:#FDC476;}.b{fill:#F8A66D;}.c{fill:#65CDF3;}.d{fill:#00BDEF;}</style><path d="M432 71.4c44.1-16.8 97.8 20.3 105.8 71.8 5.9 38.1-1.7 74.4 0.8 95.1 2.5 20.8 7.9 95.4 9 118.3 1 23-17 41.8-46.6 42.4 -29.6 0.6-48.8-12.2-49.2-38.7 -1.6-127.4-38.6-187.8-45.6-230.1C399.1 87.9 432 71.4 432 71.4z" class="a"/><path d="M462.6 124.2c-0.2 2.8-2.6 5-5.4 4.8 -2.8-0.2-5-2.6-4.8-5.4 0.2-2.8 2.6-5 5.4-4.8C460.6 119 462.8 121.4 462.6 124.2z" class="b"/><rect x="456.3" y="123.8" transform="matrix(0.9783 -0.2072 0.2072 0.9783 -17.0252 97.8958)" width="5.1" height="12.9" class="c"/><path d="M535.8 213c0 0-2 19-6.5 25.9 -4.5 7-15.4 31-17 35.5 -1.7 4.5-5.4 11.6 1.7 15.3 7.1 3.7 13.9-6.1 13.9-6.1 2.7-6.8 6.5-13.9 10.9-24.8 3.3-8 5.7-18.7 5.5-29.7L535.8 213z" class="d"/><path d="M433.8 281.1c8.5 8.1 14.8 13.1 20.1 18.2 0 0 10.2 6.2 15.1-0.1 4.9-6.3-1.3-11.2-4.7-14.7 -3.3-3.5-23-21-30-25.5 -7-4.5-16.5-21.1-16.5-21.1l-1.8 16.6C420.2 265.4 427.2 274.8 433.8 281.1z" class="d"/><path d="M543 217.3c-12.9-60.9-64.7-88.4-85.7-83.9 -21 4.5-57.2 50.5-44.3 111.5 0.7 3.3 1.7 6.6 3 9.8l1.8-16.6c0 0 26.3-75.6 44.8-79.5 18.5-3.9 73.2 54.5 73.2 54.5l8.5 16.2C544.2 225.2 543.8 221.2 543 217.3z" class="c"/><path d="M349 71.4c-44.1-16.8-97.8 20.3-105.8 71.8 -5.9 38.1 1.7 74.4-0.8 95.1 -2.5 20.8-7.9 95.4-9 118.3 -1 23 17 41.8 46.6 42.4 29.6 0.6 48.8-12.2 49.2-38.7 1.6-127.4 38.6-187.8 45.6-230.1C381.9 87.9 349 71.4 349 71.4z" class="a"/><path d="M318.4 124.2c0.2 2.8 2.6 5 5.4 4.8 2.8-0.2 5-2.6 4.8-5.4 -0.2-2.8-2.6-5-5.4-4.8C320.4 119 318.2 121.4 318.4 124.2z" class="b"/><rect x="319.6" y="123.8" transform="matrix(-0.9783 -0.2072 0.2072 -0.9783 610.2769 324.3702)" width="5.1" height="12.9" class="c"/><path d="M245.2 213c0 0 2 19 6.5 25.9 4.5 7 15.4 31 17 35.5 1.7 4.5 5.4 11.6-1.7 15.3 -7.1 3.7-13.9-6.1-13.9-6.1 -2.7-6.8-6.5-13.9-10.9-24.8 -3.3-8-5.7-18.7-5.5-29.7L245.2 213z" class="d"/><path d="M347.2 281.1c-8.5 8.1-14.8 13.1-20.1 18.2 0 0-10.2 6.2-15.1-0.1 -4.9-6.3 1.3-11.2 4.7-14.7 3.3-3.5 23-21 30-25.5 7-4.5 16.5-21.1 16.5-21.1l1.8 16.6C360.8 265.4 353.8 274.8 347.2 281.1z" class="d"/><path d="M238 217.3c12.9-60.9 64.7-88.4 85.7-83.9 21 4.5 57.2 50.5 44.3 111.5 -0.7 3.3-1.7 6.6-3 9.8l-1.8-16.6c0 0-26.3-75.6-44.8-79.5 -18.5-3.9-73.2 54.5-73.2 54.5l-8.5 16.2C236.8 225.2 237.2 221.2 238 217.3z" class="c"/></svg>