<svg version="1.1" id="Layer_1" xmlns="http://www.w3.org/2000/svg" xmlns:xlink="http://www.w3.org/1999/xlink" viewBox="0 0 768 430" enable-background="new 0 0 768 430" xml:space="preserve">
<polygon fill="#5E9988" points="437.544,260.021 444.504,221.471 531,243 518,278 "/>
<polygon fill="#71B8A3" points="444.087,244.091 419.345,213.155 480,161 501,195 "/>
<path fill="#F9F6F2" d="M379.331,400.553c-60.936,0-110.331-44.006-110.331-98.285c0-54.282,49.395-98.287,110.331-98.287
	c60.933,0,110.326,44.005,110.326,98.287C489.656,356.547,440.264,400.553,379.331,400.553"/>
<ellipse fill="#F9F6F2" cx="379.33" cy="176.466" rx="75.674" ry="67.417"/>
<path fill="#ED643B" d="M364.504,176.694c-0.53,0.03-1.035,0.168-1.519,0.391c0.004-0.003,0.004-0.007,0.004-0.007L296,207
	l69.822-9.618c0,0-0.002-0.014-0.002-0.018c3.447-0.422,5.979-5.118,5.704-10.694C371.229,180.954,368.082,176.486,364.504,176.694z
	"/>
<path fill="#726658" d="M414.094,164.713c0,3.793-2.635,6.867-5.878,6.867c-3.246,0-5.883-3.074-5.883-6.867
	c0-3.795,2.637-6.869,5.883-6.869C411.459,157.844,414.094,160.918,414.094,164.713z"/>
<path fill="#726658" d="M367.292,299c0,2.83-2.369,5.128-5.291,5.128c-2.926,0-5.294-2.298-5.294-5.128s2.368-5.128,5.294-5.128
	C364.923,293.872,367.292,296.17,367.292,299z"/>
<path fill="#726658" d="M370.583,337.122c0,2.832-2.37,5.129-5.292,5.129c-2.922,0-5.291-2.297-5.291-5.129
	c0-2.829,2.369-5.122,5.291-5.122C368.212,332,370.583,334.293,370.583,337.122z"/>
<path fill="#726658" d="M357.677,212.905c0,1.237-0.929,2.24-2.084,2.24c-1.147,0-2.082-1.003-2.082-2.24
	c0-1.241,0.935-2.243,2.082-2.243C356.748,210.662,357.677,211.665,357.677,212.905z"/>
<path fill="#726658" d="M369.536,215.148c0,1.236-0.935,2.24-2.084,2.24c-1.152,0-2.086-1.004-2.086-2.24
	c0-1.242,0.935-2.243,2.086-2.243C368.602,212.905,369.536,213.907,369.536,215.148z"/>
<path fill="#726658" d="M380.613,215.148c0,1.236-0.934,2.24-2.084,2.24c-1.153,0-2.087-1.004-2.087-2.24
	c0-1.242,0.934-2.243,2.087-2.243C379.679,212.905,380.613,213.907,380.613,215.148z"/>
<path fill="#726658" d="M393.428,212.907c0,1.237-0.938,2.241-2.086,2.241s-2.084-1.004-2.084-2.241
	c0-1.241,0.936-2.242,2.084-2.242S393.428,211.667,393.428,212.907z"/>
<path fill="#726658" d="M404.418,207.405c0,1.237-0.932,2.24-2.085,2.24c-1.149,0-2.084-1.003-2.084-2.24
	c0-1.242,0.935-2.243,2.084-2.243C403.486,205.162,404.418,206.164,404.418,207.405z"/>
<path fill="#726658" d="M413.237,198.86c0,1.236-0.933,2.238-2.086,2.238c-1.149,0-2.086-1.002-2.086-2.238
	c0-1.242,0.937-2.243,2.086-2.243C412.305,196.617,413.237,197.619,413.237,198.86z"/>
<path fill="#83D6BE" d="M444.564,214.463c-17.623,13.236-40.379,21.227-65.234,21.227c-24.856,0-47.612-7.991-65.239-21.227
	c-7.014,5.265-13.204,11.375-18.401,18.132c18.248,23.749,48.897,39.34,83.64,39.34c34.74,0,65.391-15.591,83.641-39.34
	C457.775,225.838,451.576,219.729,444.564,214.463z"/>
<path fill="#726658" d="M343.664,164.511c0,3.905-2.709,7.069-6.055,7.069c-3.34,0-6.047-3.164-6.047-7.069
	c0-3.906,2.707-7.071,6.047-7.071C340.955,157.44,343.664,160.604,343.664,164.511z"/>
<polygon fill="#F64B8D" points="359.517,64.001 331,122.332 430.869,131 422.707,67.183 "/>
</svg>
