<svg xmlns="http://www.w3.org/2000/svg" viewBox="0 0 768 430"><style>.a{fill:#FFF;}</style><path d="M364.4 205.9c-0.5 2.2-2.8 3.6-5 3l0 0c-2.2-0.5-3.6-2.7-3-5l23.7-97.9c0.5-2.2 2.8-3.5 5-3l0 0c2.2 0.5 3.6 2.8 3 5L364.4 205.9z" class="a"/><path d="M370.6 183.5c-0.2-0.3-0.3-0.5-0.5-0.7l12.5-51.7c0.3-0.1 0.5-0.2 0.8-0.4l20-12.2c1.9-1.2 2.5-3.7 1.4-5.6 -1.2-1.9-3.7-2.6-5.6-1.4l-13.8 8.4 2.9-12c0.5-2.2-0.8-4.4-3-5 -2.2-0.5-4.4 0.8-4.9 3l-2.9 12 -8.4-13.8c-1.2-1.9-3.7-2.5-5.6-1.4 -1.9 1.2-2.5 3.7-1.4 5.6l12.2 20c0.2 0.2 0.3 0.5 0.5 0.7l-12.5 51.7c-0.3 0.1-0.5 0.2-0.8 0.4l-20 12.2c-1.9 1.2-2.5 3.7-1.4 5.6 1.2 1.9 3.7 2.5 5.6 1.4l13.8-8.4 -2.9 11.9c-0.5 2.2 0.8 4.4 3 5 2.2 0.5 4.4-0.8 5-3l2.9-11.9 8.4 13.8c1.2 1.9 3.7 2.5 5.6 1.4 1.9-1.2 2.5-3.7 1.4-5.6L370.6 183.5z" class="a"/><path d="M395.1 171.5c-0.3 0-0.6 0-0.8 0.1l-38-37.1c0.1-0.3 0.1-0.6 0.1-0.8l-0.3-23.4c0-2.3-1.9-4.1-4.2-4.1 -2.3 0-4.1 1.9-4 4.2l0.2 16.1 -8.8-8.6c-1.6-1.6-4.2-1.6-5.8 0.1 -1.6 1.6-1.6 4.2 0.1 5.8l8.8 8.6 -16.1 0.2c-2.3 0-4.1 1.9-4.1 4.2 0 2.3 1.9 4.1 4.2 4.1l23.4-0.3c0.3 0 0.6 0 0.8-0.1l38 37.1c-0.1 0.3-0.1 0.6-0.1 0.8l0.3 23.4c0 2.3 1.9 4.1 4.1 4 2.3 0 4.1-1.9 4.1-4.1l-0.2-16.1 8.8 8.6c1.6 1.6 4.2 1.6 5.8-0.1 1.6-1.6 1.5-4.2-0.1-5.8l-8.8-8.5 16.1-0.2c2.3 0 4.1-1.9 4.1-4.1 0-2.3-1.9-4.1-4.2-4.1L395.1 171.5z" class="a"/><path d="M318.8 149.4c-1.1 2-0.4 4.5 1.6 5.6l14.2 7.8 -11.8 3.4c-2.2 0.6-3.4 2.9-2.8 5.1 0.6 2.2 2.9 3.4 5.1 2.8l11.7-3.4 -7.8 14.2c-1.1 2-0.4 4.5 1.6 5.6 2 1.1 4.5 0.4 5.6-1.6l11.3-20.5c0.1-0.3 0.2-0.5 0.3-0.8l51-14.9c0.2 0.2 0.4 0.3 0.7 0.5l20.5 11.2c2 1.1 4.5 0.4 5.6-1.6 1.1-2 0.4-4.5-1.6-5.6l-14.2-7.8 11.8-3.5c2.2-0.6 3.4-2.9 2.8-5.1 -0.6-2.2-2.9-3.4-5.1-2.8l-11.8 3.4 7.8-14.2c1.1-2 0.4-4.5-1.6-5.6 -2-1.1-4.5-0.4-5.6 1.6l-11.3 20.5c-0.1 0.3-0.3 0.5-0.3 0.8l-51 14.9c-0.2-0.2-0.4-0.3-0.7-0.5l-20.5-11.3C322.4 146.7 319.9 147.4 318.8 149.4" class="a"/><path d="M252.1 332.1c-0.5 2.2-2.8 3.6-5 3l0 0c-2.2-0.5-3.6-2.7-3-5l23.7-97.8c0.5-2.2 2.8-3.6 5-3l0 0c2.2 0.5 3.6 2.8 3 5L252.1 332.1z" class="a"/><path d="M258.3 309.7c-0.2-0.3-0.3-0.5-0.5-0.7l12.5-51.7c0.3-0.1 0.5-0.2 0.8-0.4l20-12.2c1.9-1.2 2.5-3.7 1.4-5.6 -1.2-1.9-3.7-2.5-5.6-1.4l-13.8 8.4 2.9-12c0.5-2.2-0.8-4.4-3-5 -2.2-0.5-4.4 0.8-4.9 3l-2.9 12 -8.4-13.8c-1.2-1.9-3.7-2.5-5.6-1.4 -1.9 1.2-2.5 3.7-1.4 5.6L261.8 254.8c0.2 0.2 0.3 0.5 0.5 0.7l-12.5 51.7c-0.3 0.1-0.5 0.2-0.8 0.4L229 319.7c-1.9 1.2-2.5 3.7-1.4 5.6 1.2 1.9 3.7 2.5 5.6 1.4l13.8-8.4 -2.9 11.9c-0.5 2.2 0.8 4.4 3 5 2.2 0.5 4.4-0.8 5-3l2.9-11.9 8.4 13.8c1.2 1.9 3.7 2.5 5.6 1.4 1.9-1.2 2.5-3.7 1.4-5.6L258.3 309.7z" class="a"/><path d="M282.8 297.8c-0.3 0-0.6 0-0.8 0.1l-38-37.1c0.1-0.3 0.1-0.6 0.1-0.8l-0.3-23.4c0-2.3-1.9-4.1-4.1-4.1 -2.3 0-4.1 1.9-4.1 4.2l0.2 16.1 -8.8-8.6c-1.6-1.6-4.2-1.6-5.8 0.1 -1.6 1.6-1.6 4.2 0.1 5.8l8.8 8.6 -16.1 0.2c-2.3 0-4.1 1.9-4.1 4.2 0 2.3 1.9 4.1 4.2 4.1l23.4-0.3c0.3 0 0.6 0 0.8-0.1l38 37.1c-0.1 0.3-0.1 0.6-0.1 0.8l0.3 23.4c0 2.3 1.9 4.1 4.1 4.1 2.3 0 4.1-1.9 4.1-4.1l-0.2-16.1 8.8 8.6c1.6 1.6 4.2 1.6 5.8-0.1 1.6-1.6 1.5-4.2-0.1-5.8l-8.8-8.6 16.1-0.2c2.3 0 4.1-1.9 4.1-4.1 0-2.3-1.9-4.1-4.2-4.1L282.8 297.8z" class="a"/><path d="M206.5 275.7c-1.1 2-0.4 4.5 1.6 5.6l14.2 7.8 -11.8 3.4c-2.2 0.6-3.4 2.9-2.8 5.1 0.6 2.2 2.9 3.4 5.1 2.8l11.7-3.4 -7.8 14.2c-1.1 2-0.4 4.5 1.6 5.6 2 1.1 4.5 0.4 5.6-1.6l11.3-20.5c0.1-0.3 0.2-0.5 0.3-0.8l51-14.9c0.2 0.2 0.4 0.3 0.7 0.5l20.5 11.2c2 1.1 13.4-18.5 14.5-20.5 1.1-2-8.5 14.4-10.5 13.3l-14.2-7.8 11.8-3.5c2.2-0.6 3.4-2.9 2.8-5.1 -0.6-2.2-2.9-3.4-5.1-2.8l-11.8 3.5 7.8-14.2c1.1-2 0.4-4.5-1.6-5.6 -2-1.1-4.5-0.4-5.6 1.6l-11.3 20.5c-0.1 0.3-0.3 0.5-0.3 0.8l-51 14.9c-0.2-0.2-0.4-0.3-0.7-0.5l-20.5-11.3C210.1 272.9 207.6 273.7 206.5 275.7" class="a"/><path d="M468.8 371.8c-0.5 2.2-2.8 3.6-5 3l0 0c-2.2-0.5-3.6-2.7-3-5l23.7-97.8c0.5-2.2 2.8-3.6 5-3l0 0c2.2 0.5 3.6 2.8 3 5L468.8 371.8z" class="a"/><path d="M474.9 349.4c-0.2-0.2-0.3-0.5-0.5-0.7l12.5-51.7c0.3-0.1 0.5-0.2 0.8-0.4l20-12.2c1.9-1.2 2.5-3.7 1.4-5.6 -1.2-1.9-3.7-2.6-5.6-1.4l-13.8 8.4 2.9-12c0.5-2.2-0.8-4.4-3-5 -2.2-0.5-4.4 0.8-5 3l-2.9 12 -8.4-13.8c-1.2-1.9-3.7-2.5-5.6-1.4 -1.9 1.2-2.5 3.7-1.4 5.6l12.2 20c0.2 0.2 0.3 0.5 0.5 0.7l-12.5 51.7c-0.3 0.1-0.5 0.2-0.8 0.4l-20 12.2c-1.9 1.2-2.6 3.7-1.4 5.6 1.2 1.9 3.7 2.5 5.6 1.4l13.8-8.4 -2.9 11.9c-0.5 2.2 0.8 4.4 3 5 2.2 0.5 4.4-0.8 5-3l2.9-11.9 8.4 13.8c1.2 1.9 3.7 2.5 5.6 1.4 1.9-1.2 2.5-3.7 1.4-5.6L474.9 349.4z" class="a"/><path d="M499.4 337.5c-0.3 0-0.6 0-0.8 0.1l-38-37.1c0.1-0.3 0.1-0.6 0.1-0.8l-0.3-23.4c0-2.3-1.9-4.1-4.2-4.1 -2.3 0-4.1 1.9-4 4.2l0.2 16.1 -8.8-8.6c-1.6-1.6-4.2-1.6-5.8 0.1 -1.6 1.6-1.6 4.2 0.1 5.8l8.8 8.6 -16.1 0.2c-2.3 0-4.1 1.9-4.1 4.2 0 2.3 1.9 4.1 4.2 4.1l23.4-0.3c0.3 0 0.6 0 0.8-0.1l38 37.1c-0.1 0.3-0.1 0.6-0.1 0.8l0.3 23.4c0 2.3 1.9 4.1 4.1 4.1 2.3 0 4.1-1.9 4.1-4.2l-0.2-16.1 8.8 8.6c1.6 1.6 4.2 1.6 5.8-0.1 1.6-1.6 1.5-4.2-0.1-5.8l-8.8-8.6 16.1-0.2c2.3 0 4.1-1.9 4.1-4.1 0-2.3-1.9-4.1-4.2-4.1L499.4 337.5z" class="a"/><path d="M423.2 315.3c-1.1 2-0.4 4.5 1.6 5.6l14.2 7.7 -11.8 3.4c-2.2 0.6-3.4 2.9-2.8 5.1 0.6 2.2 2.9 3.4 5.1 2.8l11.7-3.4 -7.8 14.2c-1.1 2-0.4 4.5 1.6 5.6 2 1.1 4.5 0.4 5.6-1.6l11.3-20.5c0.1-0.3 0.2-0.5 0.3-0.8l51-14.9c0.2 0.2 0.4 0.3 0.7 0.5l20.5 11.3c2 1.1 4.5 0.4 5.6-1.6 1.1-2 0.4-4.5-1.6-5.6l-14.2-7.8 11.8-3.5c2.2-0.6 3.4-2.9 2.8-5.1 -0.6-2.2-2.9-3.4-5.1-2.8l-11.8 3.4 7.7-14.2c1.1-2 0.4-4.5-1.6-5.6 -2-1.1-4.5-0.4-5.6 1.6l-11.3 20.5c-0.1 0.3-0.3 0.5-0.3 0.8l-51 14.9c-0.2-0.2-0.4-0.3-0.7-0.5l-20.5-11.3C426.7 312.6 424.3 313.3 423.2 315.3" class="a"/></svg>