<svg version="1.1" id="Layer_1" xmlns="http://www.w3.org/2000/svg" xmlns:xlink="http://www.w3.org/1999/xlink" viewBox="0 0 768 430" enable-background="new 0 0 768 430" xml:space="preserve">
<g id="wolk">
	<g>
		<path fill="#FFFFFF" d="M428.356,90.464c16.127-12.442,33.618-14.946,51.894-6.056c24.033,11.69,33.139,40.948,20.684,64.346
			c-1.943,3.652-1.943,3.652,1.955,4.782c30.23,8.765,50.937,36.418,50.956,68.046c0.014,31.783-20.733,59.729-50.889,68.538
			c-6.36,1.854-12.856,2.72-19.482,2.717c-67.891-0.008-135.778,0.122-203.667-0.05c-40.298-0.104-75.004-30.412-80.978-70.181
			c-5.34-35.569,12.382-70.089,44.477-86.547c1.547-0.794,2.56-1.386,2.447-3.572c-1.938-37.115,13.333-65.882,43.966-85.981
			c44.152-28.966,110.264-15.398,136.9,40.68C427.157,88.329,427.396,89.645,428.356,90.464z"/>
	</g>
</g>
<path fill="#FFFFFF" d="M301.465,403.201c-0.199,0.818-1.023,1.318-1.838,1.121l0,0c-0.82-0.199-1.322-1.02-1.124-1.838l8.79-36.297
	c0.199-0.816,1.021-1.318,1.84-1.121l0,0c0.816,0.197,1.32,1.023,1.122,1.839L301.465,403.201z"/>
<path fill="#FFFFFF" d="M303.748,394.902c-0.057-0.092-0.119-0.174-0.193-0.252l4.646-19.164c0.097-0.035,0.19-0.079,0.282-0.135
	l7.416-4.525c0.72-0.438,0.945-1.373,0.509-2.09c-0.438-0.721-1.375-0.946-2.095-0.508l-5.11,3.117l1.073-4.435
	c0.199-0.817-0.303-1.642-1.121-1.838c-0.815-0.198-1.639,0.305-1.836,1.12l-1.074,4.437l-3.119-5.11
	c-0.438-0.719-1.374-0.945-2.093-0.506c-0.718,0.437-0.944,1.373-0.507,2.092l4.522,7.416c0.058,0.09,0.122,0.176,0.19,0.25
	l-4.641,19.166c-0.099,0.035-0.193,0.078-0.285,0.135l-7.416,4.525c-0.717,0.438-0.945,1.373-0.506,2.092
	c0.438,0.719,1.375,0.945,2.092,0.506l5.111-3.117l-1.066,4.412c-0.199,0.818,0.303,1.645,1.119,1.838
	c0.817,0.199,1.64-0.303,1.838-1.119l1.068-4.414l3.118,5.111c0.438,0.717,1.375,0.945,2.095,0.506
	c0.719-0.436,0.944-1.373,0.506-2.092L303.748,394.902z"/>
<path fill="#FFFFFF" d="M312.842,390.469c-0.106,0.002-0.213,0.014-0.313,0.035l-14.111-13.773c0.021-0.101,0.031-0.205,0.029-0.312
	l-0.107-8.686c-0.008-0.842-0.698-1.514-1.54-1.506c-0.84,0.012-1.515,0.701-1.503,1.543l0.074,5.986l-3.269-3.188
	c-0.603-0.588-1.563-0.576-2.153,0.025c-0.586,0.603-0.576,1.565,0.026,2.153l3.267,3.188l-5.986,0.07
	c-0.842,0.012-1.515,0.701-1.503,1.541c0.01,0.844,0.699,1.516,1.541,1.506l8.688-0.105c0.107,0,0.211-0.014,0.312-0.036
	l14.113,13.772c-0.022,0.102-0.029,0.207-0.027,0.312l0.104,8.688c0.011,0.842,0.701,1.514,1.539,1.502
	c0.842-0.008,1.517-0.699,1.507-1.539l-0.073-5.986l3.25,3.172c0.602,0.588,1.564,0.576,2.154-0.025
	c0.587-0.602,0.572-1.564-0.027-2.152l-3.253-3.172l5.989-0.074c0.842-0.01,1.515-0.699,1.504-1.539
	c-0.009-0.842-0.7-1.516-1.542-1.506L312.842,390.469z"/>
<path fill="#FFFFFF" d="M284.553,382.258c-0.405,0.739-0.135,1.664,0.602,2.068l5.253,2.875l-4.36,1.273
	c-0.808,0.236-1.271,1.082-1.034,1.889c0.236,0.807,1.082,1.27,1.89,1.033l4.357-1.273l-2.877,5.252
	c-0.404,0.736-0.134,1.664,0.604,2.066c0.736,0.404,1.664,0.135,2.066-0.605l4.176-7.615c0.053-0.096,0.092-0.193,0.121-0.291
	l18.932-5.529c0.077,0.066,0.164,0.125,0.258,0.177l7.619,4.173c0.736,0.404,1.663,0.135,2.066-0.604
	c0.403-0.735,0.131-1.662-0.604-2.065l-5.251-2.876l4.382-1.281c0.805-0.234,1.269-1.082,1.031-1.888
	c-0.235-0.808-1.082-1.271-1.89-1.034l-4.379,1.279l2.875-5.251c0.406-0.737,0.133-1.663-0.604-2.067s-1.661-0.132-2.064,0.605
	l-4.174,7.617c-0.053,0.097-0.094,0.193-0.123,0.291l-18.929,5.531c-0.079-0.066-0.165-0.127-0.258-0.179l-7.621-4.174
	C285.881,381.252,284.956,381.521,284.553,382.258"/>
<path fill="#FFFFFF" d="M439.465,340.201c-0.199,0.818-1.023,1.318-1.838,1.121l0,0c-0.82-0.199-1.322-1.02-1.124-1.838l8.79-36.297
	c0.199-0.816,1.021-1.318,1.84-1.121l0,0c0.816,0.197,1.32,1.023,1.122,1.839L439.465,340.201z"/>
<path fill="#FFFFFF" d="M441.748,331.902c-0.057-0.092-0.119-0.174-0.193-0.252l4.646-19.164c0.097-0.035,0.19-0.079,0.282-0.135
	l7.416-4.525c0.72-0.438,0.945-1.373,0.509-2.09c-0.438-0.721-1.375-0.946-2.095-0.508l-5.11,3.117l1.073-4.435
	c0.199-0.817-0.303-1.642-1.121-1.838c-0.815-0.198-1.639,0.305-1.836,1.12l-1.074,4.437l-3.119-5.11
	c-0.438-0.719-1.374-0.945-2.093-0.506c-0.718,0.437-0.944,1.373-0.507,2.092l4.522,7.416c0.058,0.09,0.122,0.176,0.19,0.25
	l-4.641,19.166c-0.099,0.035-0.193,0.078-0.285,0.135l-7.416,4.525c-0.717,0.438-0.945,1.373-0.506,2.092
	c0.438,0.719,1.375,0.945,2.092,0.506l5.111-3.117l-1.066,4.412c-0.199,0.818,0.303,1.645,1.119,1.838
	c0.817,0.199,1.64-0.303,1.838-1.119l1.068-4.414l3.118,5.111c0.438,0.717,1.375,0.945,2.095,0.506
	c0.719-0.436,0.944-1.373,0.506-2.092L441.748,331.902z"/>
<path fill="#FFFFFF" d="M450.842,327.469c-0.106,0.002-0.213,0.014-0.313,0.035l-14.111-13.773c0.021-0.101,0.031-0.205,0.029-0.312
	l-0.107-8.686c-0.008-0.842-0.698-1.514-1.54-1.506c-0.84,0.012-1.515,0.701-1.503,1.543l0.074,5.986l-3.269-3.188
	c-0.603-0.588-1.563-0.576-2.153,0.025c-0.586,0.603-0.576,1.565,0.026,2.153l3.267,3.188l-5.986,0.07
	c-0.842,0.012-1.515,0.701-1.503,1.541c0.01,0.844,0.699,1.516,1.541,1.506l8.688-0.105c0.107,0,0.211-0.014,0.312-0.036
	l14.113,13.772c-0.022,0.102-0.029,0.207-0.027,0.312l0.104,8.688c0.011,0.842,0.701,1.514,1.539,1.502
	c0.842-0.008,1.517-0.699,1.507-1.539l-0.073-5.986l3.25,3.172c0.602,0.588,1.564,0.576,2.154-0.025
	c0.587-0.602,0.572-1.564-0.027-2.152l-3.253-3.172l5.989-0.074c0.842-0.01,1.515-0.699,1.504-1.539
	c-0.009-0.842-0.7-1.516-1.542-1.506L450.842,327.469z"/>
<path fill="#FFFFFF" d="M422.553,319.258c-0.404,0.739-0.135,1.664,0.603,2.068l5.253,2.875l-4.36,1.273
	c-0.808,0.236-1.271,1.082-1.034,1.889s1.082,1.27,1.891,1.033l4.357-1.273l-2.877,5.252c-0.404,0.736-0.134,1.664,0.604,2.066
	c0.736,0.404,1.664,0.135,2.066-0.605l4.176-7.615c0.053-0.096,0.092-0.193,0.121-0.291l18.932-5.529
	c0.077,0.066,0.164,0.125,0.258,0.177l7.619,4.173c0.736,0.404,1.663,0.135,2.066-0.604c0.403-0.735,0.131-1.662-0.604-2.065
	l-5.251-2.876l4.382-1.281c0.805-0.234,1.269-1.082,1.031-1.888c-0.235-0.808-1.082-1.271-1.89-1.034l-4.379,1.279l2.875-5.251
	c0.406-0.737,0.133-1.663-0.604-2.067s-1.661-0.132-2.064,0.605l-4.174,7.617c-0.053,0.097-0.094,0.193-0.123,0.291l-18.929,5.531
	c-0.079-0.066-0.165-0.127-0.258-0.179l-7.621-4.174C423.881,318.252,422.956,318.521,422.553,319.258"/>
<path fill="#FFFFFF" d="M397.803,387.036c-0.199,0.818-1.023,1.318-1.838,1.121l0,0c-0.82-0.199-1.322-1.02-1.124-1.838l8.79-36.297
	c0.199-0.816,1.021-1.318,1.84-1.121l0,0c0.816,0.197,1.32,1.023,1.122,1.839L397.803,387.036z"/>
<path fill="#FFFFFF" d="M400.086,378.737c-0.057-0.092-0.119-0.174-0.193-0.252l4.646-19.164c0.097-0.035,0.19-0.079,0.282-0.135
	l7.416-4.525c0.72-0.438,0.945-1.373,0.509-2.09c-0.438-0.721-1.375-0.946-2.095-0.508l-5.11,3.117l1.073-4.435
	c0.199-0.817-0.303-1.642-1.121-1.838c-0.815-0.198-1.639,0.305-1.836,1.12l-1.074,4.437l-3.119-5.11
	c-0.438-0.719-1.374-0.945-2.093-0.506c-0.718,0.437-0.944,1.373-0.507,2.092l4.522,7.416c0.058,0.09,0.122,0.176,0.19,0.25
	l-4.641,19.166c-0.099,0.035-0.193,0.078-0.285,0.135l-7.416,4.525c-0.717,0.438-0.945,1.373-0.506,2.092
	c0.438,0.719,1.375,0.945,2.092,0.506l5.111-3.117l-1.066,4.412c-0.199,0.818,0.303,1.645,1.119,1.838
	c0.817,0.199,1.64-0.303,1.838-1.119l1.068-4.414l3.118,5.111c0.438,0.717,1.375,0.945,2.095,0.506
	c0.719-0.436,0.944-1.373,0.506-2.092L400.086,378.737z"/>
<path fill="#FFFFFF" d="M409.18,374.304c-0.106,0.002-0.213,0.014-0.313,0.035l-14.111-13.773c0.021-0.101,0.031-0.205,0.029-0.312
	l-0.107-8.686c-0.008-0.842-0.698-1.514-1.54-1.506c-0.84,0.012-1.515,0.701-1.503,1.543l0.074,5.986l-3.269-3.188
	c-0.603-0.588-1.563-0.576-2.153,0.025c-0.586,0.603-0.576,1.565,0.026,2.153l3.267,3.188l-5.986,0.07
	c-0.842,0.012-1.515,0.701-1.503,1.541c0.01,0.844,0.699,1.516,1.541,1.506l8.688-0.105c0.107,0,0.211-0.014,0.312-0.036
	l14.113,13.772c-0.022,0.102-0.029,0.207-0.027,0.312l0.104,8.688c0.011,0.842,0.701,1.514,1.539,1.502
	c0.842-0.008,1.517-0.699,1.507-1.539l-0.073-5.986l3.25,3.172c0.602,0.588,1.564,0.576,2.154-0.025
	c0.587-0.602,0.572-1.564-0.027-2.152l-3.253-3.172l5.989-0.074c0.842-0.01,1.515-0.699,1.504-1.539
	c-0.009-0.842-0.7-1.516-1.542-1.506L409.18,374.304z"/>
<path fill="#FFFFFF" d="M380.891,366.093c-0.404,0.739-0.135,1.664,0.603,2.068l5.253,2.875l-4.36,1.273
	c-0.808,0.236-1.271,1.082-1.034,1.889s1.082,1.27,1.891,1.033l4.357-1.273l-2.877,5.252c-0.404,0.736-0.134,1.664,0.604,2.066
	c0.736,0.404,1.664,0.135,2.066-0.605l4.176-7.615c0.053-0.096,0.092-0.193,0.121-0.291l18.932-5.529
	c0.077,0.066,0.164,0.125,0.258,0.177l7.619,4.173c0.736,0.404,4.96-6.853,5.363-7.591c0.403-0.735-3.166,5.325-3.901,4.922
	l-5.251-2.876l4.382-1.281c0.805-0.234,1.269-1.082,1.031-1.888c-0.235-0.808-1.082-1.271-1.89-1.034l-4.379,1.279l2.875-5.251
	c0.406-0.737,0.133-1.663-0.604-2.067s-1.661-0.132-2.064,0.605l-4.174,7.617c-0.053,0.097-0.094,0.193-0.123,0.291l-18.929,5.531
	c-0.079-0.066-0.165-0.127-0.258-0.179l-7.621-4.174C382.219,365.087,381.294,365.356,380.891,366.093"/>
<path fill="#FFFFFF" d="M478.172,401.752c-0.199,0.818-1.023,1.318-1.838,1.121l0,0c-0.82-0.199-1.322-1.02-1.124-1.838l8.79-36.297
	c0.199-0.816,1.021-1.318,1.84-1.121l0,0c0.816,0.197,1.32,1.023,1.122,1.839L478.172,401.752z"/>
<path fill="#FFFFFF" d="M480.455,393.453c-0.057-0.092-0.119-0.174-0.193-0.252l4.646-19.164c0.097-0.035,0.19-0.079,0.282-0.135
	l7.416-4.525c0.72-0.438,0.945-1.373,0.509-2.09c-0.438-0.721-1.375-0.946-2.095-0.508l-5.11,3.117l1.073-4.435
	c0.199-0.817-0.303-1.642-1.121-1.838c-0.815-0.198-1.639,0.305-1.836,1.12l-1.074,4.437l-3.119-5.11
	c-0.438-0.719-1.374-0.945-2.093-0.506c-0.718,0.437-0.944,1.373-0.507,2.092l4.522,7.416c0.058,0.09,0.122,0.176,0.19,0.25
	l-4.641,19.166c-0.099,0.035-0.193,0.078-0.285,0.135l-7.416,4.525c-0.717,0.438-0.945,1.373-0.506,2.092
	c0.438,0.719,1.375,0.945,2.092,0.506l5.111-3.117l-1.066,4.412c-0.199,0.818,0.303,1.645,1.119,1.838
	c0.817,0.199,1.64-0.303,1.838-1.119l1.068-4.414l3.118,5.111c0.438,0.717,1.375,0.945,2.095,0.506
	c0.719-0.436,0.944-1.373,0.506-2.092L480.455,393.453z"/>
<path fill="#FFFFFF" d="M489.549,389.02c-0.106,0.002-0.213,0.014-0.313,0.035l-14.111-13.773c0.021-0.101,0.031-0.205,0.029-0.312
	l-0.107-8.686c-0.008-0.842-0.698-1.514-1.54-1.506c-0.84,0.012-1.515,0.701-1.503,1.543l0.074,5.986l-3.269-3.188
	c-0.603-0.588-1.563-0.576-2.153,0.025c-0.586,0.603-0.576,1.565,0.026,2.153l3.267,3.188l-5.986,0.07
	c-0.842,0.012-1.515,0.701-1.503,1.541c0.01,0.844,0.699,1.516,1.541,1.506l8.688-0.105c0.107,0,0.211-0.014,0.312-0.036
	l14.113,13.772c-0.022,0.102-0.029,0.207-0.027,0.312l0.104,8.688c0.011,0.842,0.701,1.514,1.539,1.502
	c0.842-0.008,1.517-0.699,1.507-1.539l-0.073-5.986l3.25,3.172c0.602,0.588,1.564,0.576,2.154-0.025
	c0.587-0.602,0.572-1.564-0.027-2.152l-3.253-3.172l5.989-0.074c0.842-0.01,1.515-0.699,1.504-1.539
	c-0.009-0.842-0.7-1.516-1.542-1.506L489.549,389.02z"/>
<path fill="#FFFFFF" d="M461.26,380.809c-0.404,0.739-0.135,1.664,0.603,2.068l5.253,2.875l-4.36,1.273
	c-0.808,0.236-1.271,1.082-1.034,1.889s1.082,1.27,1.891,1.033l4.357-1.273l-2.877,5.252c-0.404,0.736-0.134,1.664,0.604,2.066
	c0.736,0.404,1.664,0.135,2.066-0.605l4.176-7.615c0.053-0.096,0.092-0.193,0.121-0.291l18.932-5.529
	c0.077,0.066,0.164,0.125,0.258,0.177l7.619,4.173c0.736,0.404,1.663,0.135,2.066-0.604c0.403-0.735,0.131-1.662-0.604-2.065
	l-5.251-2.876l4.382-1.281c0.805-0.234,1.269-1.082,1.031-1.888c-0.235-0.808-1.082-1.271-1.89-1.034l-4.379,1.279l2.875-5.251
	c0.406-0.737,0.133-1.663-0.604-2.067s-1.661-0.132-2.064,0.605l-4.174,7.617c-0.053,0.097-0.094,0.193-0.123,0.291l-18.929,5.531
	c-0.079-0.066-0.165-0.127-0.258-0.179l-7.621-4.174C462.588,379.803,461.663,380.072,461.26,380.809"/>
</svg>
