<svg version="1.1" xmlns="http://www.w3.org/2000/svg" x="0" y="0" width="768" height="430" viewBox="0 0 768 430" enable-background="new 0 0 768 430" xml:space="preserve"><path fill="#DDE4D0" d="M459.1 91.3c0-2.4-1.9-4.3-4.3-4.3h-74.6c-2.4 0-4.3 1.9-4.3 4.3v22.9h83.2V91.3zM495 241.2c-3.4-3.8-2.4-2.6-3.3-3.7l-32.7-38.5v-76.8h-83.2v78.4c19.5-1.9 35.1 10.3 34.9 27.5 -0.1 9.9-5.5 19.8-14.6 26.8l31.4 37c0.9 1 3.8 3.3 5.2 4.7 0 0 34.5 23.1 58.2 0.4C517.1 272.1 495 241.2 495 241.2zM379.3 209c-1.3 0-2.7 0-4 0.2L375 232.4l15.1 17.2c7.1-5.2 11.4-12.7 11.4-20.2C401.7 217.7 392 209.2 379.3 209zM334.1 113.3c0-2.4-1.9-4.3-4.3-4.3h-74.6c-2.4 0-4.3 1.9-4.3 4.3v22.9h83.2V113.3zM254.3 231c-1.3 0-2.7 0-4 0.2L250 254.4l15.1 17.2c7.1-5.2 11.4-12.7 11.4-20.2C276.7 239.7 267 231.2 254.3 231zM366.8 259.5l-32.7-38.5v-76.8h-83.2v78.4c19.5-1.9 35.1 10.3 34.9 27.5 -0.1 9.9-5.5 19.8-14.6 26.8l31.4 37c0.9 1 3.8 3.3 5.2 4.7 0 0 34.5 23.1 58.2 0.4 26.1-25 4-55.9 4-55.9C366.6 259.4 367.6 260.6 366.8 259.5z"/></svg>