<svg version="1.1" id="Layer_1" xmlns="http://www.w3.org/2000/svg" xmlns:xlink="http://www.w3.org/1999/xlink" viewBox="0 0 768 430" enable-background="new 0 0 768 430" xml:space="preserve">
<g>
	<g>
		<path fill="#B1723F" d="M408.406,331.988l-36.865-45.286V83.988h-65.083v213.146h0.029c-0.27,7.599,2.099,15.324,7.277,21.685
			l42.231,51.877l53.174-37.721C408.92,332.644,408.67,332.312,408.406,331.988z"/>
		<rect x="306.458" y="83.988" fill="#855934" width="65.083" height="11.592"/>
		<rect x="306.458" y="129.908" fill="#E3D2B8" width="65.083" height="11.592"/>
		<rect x="306.458" y="175.828" fill="#E3D2B8" width="65.083" height="11.592"/>
		<rect x="306.458" y="221.747" fill="#855934" width="65.083" height="11.593"/>
		<rect x="306.458" y="267.667" fill="#E3D2B8" width="65.083" height="11.593"/>
		<path fill="#E3D2B8" d="M338.826,211.188l3.895,3.896c0.826,0.825,2.19,0.953,3.051,0.165c0.904-0.828,0.927-2.232,0.07-3.089
			l-3.994-3.994c-0.008-0.008-0.008-0.021,0-0.029l3.895-3.895c0.826-0.826,0.954-2.19,0.166-3.051
			c-0.828-0.904-2.232-0.927-3.089-0.07l-3.993,3.994c-0.008,0.008-0.021,0.008-0.029,0l-3.942-3.942
			c-0.728-0.729-1.886-0.901-2.74-0.326c-1.156,0.779-1.268,2.362-0.334,3.296l3.994,3.994c0.008,0.008,0.008,0.021,0,0.029
			l-3.895,3.895c-0.825,0.826-0.954,2.19-0.166,3.05c0.828,0.904,2.232,0.928,3.09,0.071l3.993-3.994
			C338.804,211.181,338.818,211.181,338.826,211.188z"/>
		<path fill="#D67735" d="M355.902,205.631l3.895,3.895c0.826,0.826,2.189,0.954,3.051,0.165c0.904-0.828,0.927-2.232,0.07-3.089
			l-3.993-3.993c-0.008-0.008-0.008-0.021,0-0.029l3.895-3.895c0.826-0.826,0.954-2.19,0.166-3.051
			c-0.828-0.904-2.232-0.927-3.089-0.07l-3.994,3.994c-0.008,0.008-0.021,0.008-0.029,0l-3.942-3.942
			c-0.728-0.728-1.886-0.901-2.74-0.326c-1.156,0.779-1.268,2.363-0.333,3.297l3.993,3.993c0.008,0.008,0.008,0.021,0,0.029
			l-3.895,3.895c-0.826,0.826-0.954,2.19-0.166,3.051c0.827,0.904,2.232,0.928,3.089,0.07l3.994-3.993
			C355.881,205.623,355.894,205.623,355.902,205.631z"/>
		<path fill="#D67735" d="M322.126,205.631l3.895,3.895c0.826,0.826,2.19,0.954,3.051,0.165c0.904-0.828,0.928-2.232,0.07-3.089
			l-3.994-3.993c-0.008-0.008-0.008-0.021,0-0.029l3.895-3.895c0.826-0.826,0.955-2.19,0.166-3.051
			c-0.828-0.904-2.232-0.927-3.089-0.07l-3.994,3.994c-0.008,0.008-0.021,0.008-0.029,0l-3.942-3.942
			c-0.728-0.728-1.886-0.901-2.74-0.326c-1.157,0.779-1.268,2.363-0.334,3.297l3.993,3.993c0.008,0.008,0.008,0.021,0,0.029
			l-3.895,3.895c-0.826,0.826-0.954,2.19-0.166,3.051c0.828,0.904,2.232,0.928,3.089,0.07l3.993-3.993
			C322.105,205.623,322.118,205.623,322.126,205.631z"/>
		<path fill="#D67735" d="M338.826,112.868l3.895,3.895c0.826,0.826,2.19,0.954,3.051,0.166c0.904-0.828,0.927-2.232,0.07-3.089
			l-3.994-3.994c-0.008-0.008-0.008-0.021,0-0.029l3.895-3.895c0.826-0.826,0.954-2.19,0.166-3.051
			c-0.828-0.904-2.232-0.927-3.089-0.07l-3.993,3.993c-0.008,0.008-0.021,0.008-0.029,0l-3.942-3.942
			c-0.728-0.728-1.886-0.901-2.74-0.326c-1.156,0.779-1.268,2.363-0.334,3.296l3.994,3.994c0.008,0.008,0.008,0.021,0,0.029
			l-3.895,3.895c-0.825,0.826-0.954,2.189-0.166,3.051c0.828,0.904,2.232,0.927,3.09,0.07l3.993-3.994
			C338.804,112.86,338.818,112.86,338.826,112.868z"/>
		<path fill="#E3D2B8" d="M355.902,118.426l3.895,3.895c0.826,0.826,2.189,0.954,3.051,0.166c0.904-0.828,0.927-2.232,0.07-3.089
			l-3.993-3.994c-0.008-0.008-0.008-0.021,0-0.029l3.895-3.895c0.826-0.826,0.954-2.189,0.166-3.051
			c-0.828-0.904-2.232-0.928-3.089-0.07l-3.994,3.994c-0.008,0.008-0.021,0.008-0.029,0l-3.942-3.942
			c-0.728-0.728-1.886-0.901-2.74-0.325c-1.156,0.779-1.268,2.362-0.333,3.296l3.993,3.993c0.008,0.009,0.008,0.021,0,0.029
			l-3.895,3.896c-0.826,0.825-0.954,2.189-0.166,3.051c0.827,0.903,2.232,0.927,3.089,0.07l3.994-3.993
			C355.881,118.418,355.894,118.418,355.902,118.426z"/>
		<path fill="#E3D2B8" d="M322.126,118.426l3.895,3.895c0.826,0.826,2.19,0.954,3.051,0.166c0.904-0.828,0.928-2.232,0.07-3.089
			l-3.994-3.994c-0.008-0.008-0.008-0.021,0-0.029l3.895-3.895c0.826-0.826,0.955-2.189,0.166-3.051
			c-0.828-0.904-2.232-0.928-3.089-0.07l-3.994,3.994c-0.008,0.008-0.021,0.008-0.029,0l-3.942-3.942
			c-0.728-0.728-1.886-0.901-2.74-0.325c-1.157,0.779-1.268,2.362-0.334,3.296l3.993,3.993c0.008,0.009,0.008,0.021,0,0.029
			l-3.895,3.896c-0.826,0.825-0.954,2.189-0.166,3.051c0.828,0.903,2.232,0.927,3.089,0.07l3.993-3.993
			C322.105,118.418,322.118,118.418,322.126,118.426z"/>
		<g>
			<g>
				<ellipse fill="#E59862" cx="314.937" cy="160.053" rx="3.603" ry="3.843"/>
				<ellipse fill="#E59862" cx="331.389" cy="160.053" rx="3.603" ry="3.843"/>
				<ellipse fill="#E59862" cx="347.843" cy="160.053" rx="3.603" ry="3.843"/>
				<ellipse fill="#E59862" cx="364.295" cy="160.053" rx="3.603" ry="3.843"/>
			</g>
		</g>
		<g>
			<g>
				<ellipse fill="#D67735" cx="314.132" cy="251.575" rx="3.603" ry="3.843"/>
				<ellipse fill="#D67735" cx="330.585" cy="251.575" rx="3.603" ry="3.843"/>
				<ellipse fill="#D67735" cx="347.037" cy="251.575" rx="3.603" ry="3.843"/>
				<ellipse fill="#D67735" cx="363.49" cy="251.575" rx="3.603" ry="3.843"/>
			</g>
		</g>
		<path fill="#855934" d="M355.995,370.695l1.939,2.382c11.346,13.938,31.843,16.038,45.781,4.692
			c13.613-11.083,15.927-30.891,5.454-44.795L355.995,370.695z"/>
	</g>
	<g>
		<path fill="#D67735" d="M491.43,286.973l-36.866-45.287V38.972H389.48v213.146h0.03c-0.271,7.6,2.099,15.325,7.276,21.686
			l42.231,51.877l53.174-37.721C491.942,287.628,491.693,287.297,491.43,286.973z"/>
		<rect x="389.48" y="38.972" fill="#B1723F" width="65.083" height="11.592"/>
		<rect x="389.48" y="84.892" fill="#E3D2B8" width="65.083" height="11.592"/>
		<rect x="389.48" y="130.812" fill="#E3D2B8" width="65.083" height="11.593"/>
		<rect x="389.48" y="176.731" fill="#B1723F" width="65.083" height="11.592"/>
		<rect x="389.48" y="222.651" fill="#E3D2B8" width="65.083" height="11.593"/>
		<path fill="#855934" d="M421.849,166.173l3.895,3.895c0.826,0.826,2.19,0.954,3.051,0.166c0.904-0.828,0.928-2.232,0.07-3.089
			l-3.993-3.994c-0.008-0.008-0.008-0.021,0-0.029l3.895-3.895c0.826-0.826,0.954-2.19,0.165-3.051
			c-0.827-0.904-2.231-0.927-3.089-0.07l-3.993,3.994c-0.008,0.008-0.021,0.008-0.029,0l-3.942-3.942
			c-0.728-0.728-1.886-0.9-2.74-0.325c-1.155,0.779-1.268,2.362-0.333,3.296l3.993,3.993c0.008,0.008,0.008,0.021,0,0.029
			l-3.895,3.895c-0.826,0.826-0.954,2.19-0.166,3.051c0.827,0.903,2.232,0.927,3.09,0.07l3.993-3.993
			C421.827,166.165,421.841,166.165,421.849,166.173z"/>
		<path fill="#B1723F" d="M438.925,160.615l3.895,3.895c0.826,0.826,2.189,0.954,3.052,0.165c0.903-0.828,0.927-2.232,0.069-3.089
			l-3.993-3.994c-0.008-0.008-0.008-0.021,0-0.029l3.895-3.895c0.826-0.826,0.954-2.189,0.166-3.051
			c-0.828-0.904-2.232-0.927-3.09-0.07l-3.993,3.994c-0.008,0.007-0.021,0.007-0.029,0l-3.942-3.942
			c-0.728-0.728-1.886-0.901-2.739-0.326c-1.157,0.779-1.269,2.363-0.334,3.297l3.993,3.993c0.008,0.008,0.008,0.021,0,0.029
			l-3.895,3.895c-0.826,0.825-0.954,2.189-0.166,3.051c0.828,0.904,2.232,0.928,3.09,0.07l3.993-3.993
			C438.903,160.606,438.917,160.606,438.925,160.615z"/>
		<path fill="#B1723F" d="M405.149,160.615l3.894,3.895c0.826,0.826,2.19,0.954,3.052,0.165c0.904-0.828,0.927-2.232,0.07-3.089
			l-3.993-3.994c-0.008-0.008-0.008-0.021,0-0.029l3.895-3.895c0.825-0.826,0.954-2.189,0.165-3.051
			c-0.827-0.904-2.231-0.927-3.089-0.07l-3.993,3.994c-0.009,0.007-0.022,0.007-0.029,0l-3.942-3.942
			c-0.729-0.728-1.887-0.901-2.74-0.326c-1.156,0.779-1.268,2.363-0.334,3.297l3.994,3.993c0.008,0.008,0.008,0.021,0,0.029
			l-3.895,3.895c-0.826,0.825-0.955,2.189-0.166,3.051c0.828,0.904,2.232,0.928,3.09,0.07l3.993-3.993
			C405.127,160.606,405.141,160.606,405.149,160.615z"/>
		<path fill="#B1723F" d="M421.849,67.852l3.895,3.895c0.826,0.826,2.19,0.954,3.051,0.165c0.904-0.827,0.928-2.232,0.07-3.089
			l-3.993-3.994c-0.008-0.008-0.008-0.021,0-0.029l3.895-3.895c0.826-0.826,0.954-2.19,0.165-3.051
			c-0.827-0.904-2.231-0.927-3.089-0.07l-3.993,3.993c-0.008,0.008-0.021,0.008-0.029,0l-3.942-3.942
			c-0.728-0.728-1.886-0.901-2.74-0.326c-1.155,0.779-1.268,2.363-0.333,3.297l3.993,3.994c0.008,0.008,0.008,0.021,0,0.029
			l-3.895,3.895c-0.826,0.826-0.954,2.19-0.166,3.051c0.827,0.904,2.232,0.928,3.09,0.07l3.993-3.994
			C421.827,67.844,421.841,67.844,421.849,67.852z"/>
		<path fill="#855934" d="M438.925,73.41l3.895,3.895c0.826,0.826,2.189,0.954,3.052,0.166c0.903-0.828,0.927-2.232,0.069-3.089
			l-3.993-3.993c-0.008-0.008-0.008-0.021,0-0.029l3.895-3.895c0.826-0.826,0.954-2.189,0.166-3.051
			c-0.828-0.904-2.232-0.927-3.09-0.07l-3.993,3.994c-0.008,0.008-0.021,0.008-0.029,0l-3.942-3.942
			c-0.728-0.728-1.886-0.9-2.739-0.325c-1.157,0.779-1.269,2.362-0.334,3.297l3.993,3.993c0.008,0.008,0.008,0.021,0,0.029
			l-3.895,3.895c-0.826,0.825-0.954,2.189-0.166,3.05c0.828,0.904,2.232,0.928,3.09,0.07l3.993-3.993
			C438.903,73.402,438.917,73.402,438.925,73.41z"/>
		<path fill="#855934" d="M405.149,73.41l3.894,3.895c0.826,0.826,2.19,0.954,3.052,0.166c0.904-0.828,0.927-2.232,0.07-3.089
			l-3.993-3.993c-0.008-0.008-0.008-0.021,0-0.029l3.895-3.895c0.825-0.826,0.954-2.189,0.165-3.051
			c-0.827-0.904-2.231-0.927-3.089-0.07l-3.993,3.994c-0.009,0.008-0.022,0.008-0.029,0l-3.942-3.942
			c-0.729-0.728-1.887-0.9-2.74-0.325c-1.156,0.779-1.268,2.362-0.334,3.297l3.994,3.993c0.008,0.008,0.008,0.021,0,0.029
			l-3.895,3.895c-0.826,0.825-0.955,2.189-0.166,3.05c0.828,0.904,2.232,0.928,3.09,0.07l3.993-3.993
			C405.127,73.402,405.141,73.402,405.149,73.41z"/>
		<g>
			<g>
				<ellipse fill="#E59862" cx="397.96" cy="115.037" rx="3.603" ry="3.842"/>
				<ellipse fill="#E59862" cx="414.413" cy="115.037" rx="3.603" ry="3.842"/>
				<ellipse fill="#E59862" cx="430.865" cy="115.037" rx="3.603" ry="3.842"/>
				<ellipse fill="#E59862" cx="447.318" cy="115.037" rx="3.603" ry="3.842"/>
			</g>
		</g>
		<g>
			<g>
				<ellipse fill="#B1723F" cx="397.155" cy="206.56" rx="3.603" ry="3.843"/>
				<ellipse fill="#B1723F" cx="413.607" cy="206.56" rx="3.603" ry="3.843"/>
				<ellipse fill="#B1723F" cx="430.061" cy="206.56" rx="3.603" ry="3.843"/>
				<ellipse fill="#B1723F" cx="446.513" cy="206.56" rx="3.603" ry="3.843"/>
			</g>
		</g>
		<path fill="#B1723F" d="M439.019,325.68l1.938,2.381c11.346,13.938,31.843,16.038,45.78,4.692
			c13.613-11.082,15.927-30.891,5.455-44.794L439.019,325.68z"/>
	</g>
</g>
</svg>
