<svg version="1.1" xmlns="http://www.w3.org/2000/svg" x="0" y="0" width="768" height="430" viewBox="0 0 768 430" enable-background="new 0 0 768 430" xml:space="preserve"><path fill="#DDE4D0" d="M583.6 205.5c-23.5-46.2-62.6-69.7-113.9-71.4 -34-1.1-64.6 10.6-89.4 34.2 -22.2 21.1-38.4 45.5-35.8 78.3 2.1 27.1 12.5 50.2 32.3 69 25.6 24.3 56.5 35.3 97.7 36.3 6.5-1.2 19.3-2.6 31.5-6.1 26.3-7.3 49.4-20.6 65.4-43.3C592.3 272.6 601.2 240.1 583.6 205.5zM512 251.8c0.9-2.3 2.7-4.8 4.8-5.9 1-0.5 3.5 2.1 6.9 4.3 -3.2 2.6-4.9 5.1-7 5.3C515.2 255.8 511.8 252.5 512 251.8zM479.6 292.6c3.5 0 6.3 2.8 6.3 6.3 0 3.5-2.8 6.3-6.3 6.3s-6.3-2.8-6.3-6.3C473.3 295.5 476.1 292.6 479.6 292.6zM461.9 293.9c2.8 0 5 2.3 5 5 0 2.8-2.3 5-5 5 -2.8 0-5-2.3-5-5C456.9 296.2 459.2 293.9 461.9 293.9zM430.9 245.9c1.8 0.1 3.4 3.1 5.1 4.7 -3.4 2.7-6.9 5.5-10.3 8.2 -0.5-0.6-0.9-1.1-1.4-1.7C427.1 253.7 422 245.6 430.9 245.9zM385.9 256.8c5.6-2.4 11.2-4.8 15.7-6.7 5.3 3.7 9.2 7.5 13.9 9.4 14.4 5.9 29.4-5.8 28.4-21.7 -0.5-8.4-0.5-8.4 7.2-12.1 6.8 8.1 6.7 25.1-0.3 36.6 -3.9 4.4-7.7 8.7-11.6 13C417.7 284.9 394 277.1 385.9 256.8zM445.8 329.2c14.6 0 29.1 0 43.7 0 0 0.6 0 1.2 0.1 1.8C475 336.7 460.4 336.6 445.8 329.2zM498.3 275.7c-4.6-4.6-9.2-9.2-13.8-13.8 -4.8-12-6.5-24.1-0.1-36.6 5.2 2.5 9.6 4.1 8.2 11.4 -1.8 9.6 3.3 18.2 11.7 22.3 7.9 3.9 17.5 2.2 24.4-4.4 1.4-1.3 2.6-2.8 4.5-4.9 5.3 2.2 11 4.5 16.5 6.7C545.3 275.4 521.2 284.1 498.3 275.7zM333.8 170.7c17.5-19.4 16.8-44.6-1.6-63.1 -14.6-14.6-32.9-21.9-52.7-25.4 -26.3-4.6-51.9-1.6-75.7 10.9 -7.7 4-14.9 9.6-21 15.8 -16.4 16.9-17.1 41.1-2.5 59.6 12.8 16.1 30.3 24 49.7 28.3 17.6 3.9 35.4 4 53 0.3 4-0.8 7.2-0.4 10.8 1.8 11.2 7.1 22.7 14 34.1 20.8 1.5 0.9 3.6 0.9 5.4 1.3 -0.1-2 0.4-4.1-0.3-5.8 -4.4-10.4-9-20.7-13.6-31.1C324.6 179.4 329.6 175.4 333.8 170.7zM317 178.6c-3.1 2.5-4 4.5-2.1 8.3 3.9 7.8 7.1 16 11.2 25.3 -11.6-7-21.9-13.5-32.4-19.4 -2.3-1.3-5.7-1.9-8.3-1.4 -18 3.6-36.1 4.1-54.1 0.2 -17.6-3.8-33.6-10.9-45.5-25 -14.7-17.4-14-39.3 2.1-55.4 5.3-5.3 11.8-10 18.5-13.4 24.6-12.7 50.8-15.1 77.7-9.2 17.7 3.8 33.9 11.1 46.4 24.8 14.3 15.8 14.6 36.5 0.6 52.6C326.9 170.6 321.9 174.7 317 178.6zM207.8 139.2c-3.1-1.2-4.5-1.9-4.5-3.4 0-1.3 1.2-2.3 3.5-2.3 2.4 0 4.1 0.7 5.1 1.2l1.2-4.4c-1.4-0.6-3.5-1.2-6.2-1.2 -5.7 0-9.2 3.2-9.2 7.3 0 3.5 2.6 5.8 6.7 7.2 2.9 1 4.1 1.9 4.1 3.4 0 1.6-1.3 2.6-3.9 2.6 -2.3 0-4.6-0.8-6.1-1.5l-1.1 4.5c1.4 0.8 4.1 1.5 6.9 1.5 6.7 0 9.8-3.5 9.8-7.5C214.1 143 212.1 140.7 207.8 139.2zM228.5 128.9c-7.2 0-11.8 5.4-11.8 12.7 0 6.9 4.2 12.3 11.4 12.3 7.1 0 11.9-4.8 11.9-12.8C240 134.5 236 128.9 228.5 128.9zM228.4 149.6c-3.7 0-5.9-3.3-5.9-8.1 0-4.7 2.2-8.2 5.9-8.2 3.8 0 5.9 3.7 5.9 8.1C234.2 146.1 232.1 149.6 228.4 149.6zM256.7 142.2v-0.1c2.1-0.8 4.3-2.9 4.3-6 0-2.2-0.8-3.9-2.2-5.1 -1.7-1.4-4.2-1.9-7.8-1.9 -2.9 0-5.5 0.2-7.3 0.5v23.9h5.4v-9.5h1.7c2.2 0 3.3 0.9 3.9 3.9 0.7 3 1.3 5 1.7 5.7h5.6c-0.5-0.9-1.2-4.1-2-6.8C259.4 144.5 258.4 142.9 256.7 142.2zM251.2 140.1h-2.2v-6.7c0.4-0.1 1.2-0.2 2.5-0.2 2.5 0 4 1.2 4 3.4C255.6 138.7 254 140.1 251.2 140.1zM278.1 142.2v-0.1c2.1-0.8 4.3-2.9 4.3-6 0-2.2-0.8-3.9-2.2-5.1 -1.7-1.4-4.2-1.9-7.8-1.9 -2.9 0-5.5 0.2-7.3 0.5v23.9h5.4v-9.5h1.7c2.2 0 3.3 0.9 3.9 3.9 0.7 3 1.3 5 1.7 5.7h5.6c-0.5-0.9-1.2-4.1-2-6.8C280.7 144.5 279.8 142.9 278.1 142.2zM272.6 140.1h-2.2v-6.7c0.4-0.1 1.2-0.2 2.5-0.2 2.5 0 4 1.2 4 3.4C276.9 138.7 275.3 140.1 272.6 140.1zM296.1 135.1c-0.7 1.7-1.3 3.1-1.8 4.6h-0.1c-0.6-1.6-1.1-2.9-1.9-4.6l-2.5-5.8h-6.3l7.7 14.3v9.9h5.5v-10.1l8-14.1h-6.2L296.1 135.1z"/></svg>