<svg version="1.1" id="Layer_1" xmlns="http://www.w3.org/2000/svg" xmlns:xlink="http://www.w3.org/1999/xlink" viewBox="0 0 768 430" xml:space="preserve">
<path fill="#DDE4D0" d="M583.6,175.5c-23.5-46.2-62.6-69.7-113.899-71.4c-34-1.1-64.601,10.6-89.4,34.2
	c-22.2,21.1-38.4,45.5-35.8,78.3c2.1,27.101,12.5,50.2,32.3,69C402.4,309.9,433.3,320.9,474.5,321.9c6.5-1.2,19.3-2.601,31.5-6.101
	c26.3-7.3,49.4-20.6,65.4-43.3C592.3,242.6,601.2,210.1,583.6,175.5z M512,221.8c0.9-2.3,2.7-4.8,4.8-5.899c1-0.5,3.5,2.1,6.9,4.3
	c-3.2,2.6-4.9,5.1-7,5.3C515.2,225.8,511.8,222.5,512,221.8z M479.6,262.6c3.5,0,6.301,2.801,6.301,6.301s-2.801,6.3-6.301,6.3
	s-6.3-2.8-6.3-6.3C473.3,265.5,476.1,262.6,479.6,262.6z M461.9,263.9c2.8,0,5,2.3,5,5c0,2.8-2.301,5-5,5c-2.801,0-5-2.301-5-5
	C456.9,266.2,459.2,263.9,461.9,263.9z M430.9,215.9c1.8,0.1,3.399,3.1,5.1,4.699c-3.4,2.7-6.9,5.5-10.3,8.2
	c-0.5-0.6-0.9-1.1-1.4-1.7C427.1,223.7,422,215.6,430.9,215.9z M385.9,226.8c5.6-2.399,11.199-4.8,15.699-6.7
	c5.301,3.7,9.2,7.5,13.9,9.4c14.4,5.9,29.4-5.8,28.4-21.7c-0.5-8.399-0.5-8.399,7.199-12.1c6.801,8.1,6.7,25.1-0.3,36.6
	c-3.899,4.4-7.7,8.7-11.6,13C417.7,254.9,394,247.1,385.9,226.8z M445.8,299.2c14.601,0,29.101,0,43.7,0c0,0.6,0,1.2,0.1,1.8
	C475,306.7,460.4,306.6,445.8,299.2z M498.3,245.7c-4.6-4.601-9.2-9.2-13.8-13.8c-4.8-12-6.5-24.101-0.1-36.601
	c5.199,2.5,9.6,4.101,8.199,11.4c-1.8,9.6,3.301,18.2,11.7,22.3c7.9,3.9,17.5,2.2,24.4-4.4c1.399-1.3,2.6-2.8,4.5-4.899
	c5.3,2.2,11,4.5,16.5,6.7C545.3,245.4,521.2,254.1,498.3,245.7z M333.8,140.7c17.5-19.4,16.8-44.6-1.6-63.1
	c-14.6-14.6-32.9-21.9-52.7-25.4c-26.3-4.6-51.9-1.6-75.7,10.9c-7.7,4-14.9,9.6-21,15.8c-16.4,16.9-17.1,41.1-2.5,59.6
	c12.8,16.1,30.3,24,49.7,28.3c17.6,3.9,35.4,4,53,0.3c4-0.8,7.2-0.4,10.8,1.8c11.2,7.1,22.7,14,34.1,20.8
	c1.5,0.899,3.6,0.899,5.4,1.3c-0.1-2,0.4-4.1-0.3-5.8c-4.4-10.4-9-20.7-13.6-31.1C324.6,149.4,329.6,145.4,333.8,140.7z M317,148.6
	c-3.1,2.5-4,4.5-2.1,8.3c3.9,7.8,7.1,16,11.2,25.3c-11.6-7-21.9-13.5-32.4-19.4c-2.3-1.3-5.7-1.9-8.3-1.4c-18,3.6-36.1,4.1-54.1,0.2
	c-17.6-3.8-33.6-10.9-45.5-25c-14.7-17.4-14-39.3,2.1-55.4c5.3-5.3,11.8-10,18.5-13.4c24.6-12.7,50.8-15.1,77.7-9.2
	c17.7,3.8,33.9,11.1,46.4,24.8c14.3,15.8,14.6,36.5,0.6,52.6C326.9,140.6,321.9,144.7,317,148.6z M207.8,109.2
	c-3.1-1.2-4.5-1.9-4.5-3.4c0-1.3,1.2-2.3,3.5-2.3c2.4,0,4.1,0.7,5.1,1.2l1.2-4.4c-1.4-0.6-3.5-1.2-6.2-1.2c-5.7,0-9.2,3.2-9.2,7.3
	c0,3.5,2.6,5.8,6.7,7.2c2.9,1,4.1,1.9,4.1,3.4c0,1.6-1.3,2.6-3.9,2.6c-2.3,0-4.6-0.8-6.1-1.5l-1.1,4.5c1.4,0.8,4.1,1.5,6.9,1.5
	c6.7,0,9.8-3.5,9.8-7.5C214.1,113,212.1,110.7,207.8,109.2z M228.5,98.9c-7.2,0-11.8,5.4-11.8,12.7c0,6.9,4.2,12.3,11.4,12.3
	c7.1,0,11.9-4.8,11.9-12.8C240,104.5,236,98.9,228.5,98.9z M228.4,119.6c-3.7,0-5.9-3.3-5.9-8.1c0-4.7,2.2-8.2,5.9-8.2
	c3.8,0,5.9,3.7,5.9,8.1C234.2,116.1,232.1,119.6,228.4,119.6z M256.7,112.2v-0.1c2.1-0.8,4.3-2.9,4.3-6c0-2.2-0.8-3.9-2.2-5.1
	c-1.7-1.4-4.2-1.9-7.8-1.9c-2.9,0-5.5,0.2-7.3,0.5v23.9h5.4V114h1.7c2.2,0,3.3,0.9,3.9,3.9c0.7,3,1.3,5,1.7,5.7h5.6
	c-0.5-0.9-1.2-4.1-2-6.8C259.4,114.5,258.4,112.9,256.7,112.2z M251.2,110.1H249v-6.7c0.4-0.1,1.2-0.2,2.5-0.2c2.5,0,4,1.2,4,3.4
	C255.6,108.7,254,110.1,251.2,110.1z M278.1,112.2v-0.1c2.1-0.8,4.3-2.9,4.3-6c0-2.2-0.8-3.9-2.2-5.1c-1.7-1.4-4.2-1.9-7.8-1.9
	c-2.9,0-5.5,0.2-7.3,0.5v23.9h5.4V114h1.7c2.2,0,3.3,0.9,3.9,3.9c0.7,3,1.3,5,1.7,5.7h5.6c-0.5-0.9-1.2-4.1-2-6.8
	C280.7,114.5,279.8,112.9,278.1,112.2z M272.6,110.1h-2.2v-6.7c0.4-0.1,1.2-0.2,2.5-0.2c2.5,0,4,1.2,4,3.4
	C276.9,108.7,275.3,110.1,272.6,110.1z M296.1,105.1c-0.7,1.7-1.3,3.1-1.8,4.6h-0.1c-0.6-1.6-1.1-2.9-1.9-4.6l-2.5-5.8h-6.3
	l7.7,14.3v9.9h5.5v-10.1l8-14.1h-6.2L296.1,105.1z"/>
</svg>
