<svg xmlns="http://www.w3.org/2000/svg" viewBox="0 0 768 430"><style>.a{fill:#74A147;}.b{fill:#94BF67;}.c{fill:#D58746;}.d{fill:none;}.e{fill:#FDCE81;}.f{fill:#A12A27;}.g{fill:#297D6F;}</style><path d="M312.3 132.2c-1 3.6-2.1 7.2-3.3 10.6 -1.6 4.9-3.3 10-4.5 15.5 -0.2 0.1-0.4 0.2-0.5 0.3 -1.8-6.3-4.6-11.9-7.1-17l-3.4-6.7 -5.4 3.6 3.4 6.8c2.9 5.9 5.9 12 7.4 18.8h0v43.2h11V166.8c0.3-2.8 0.6-5.6 1.1-8.3 0.1-0.4 0.2-0.9 0.2-1.4 1-3.9 2.2-7.7 3.5-11.6 1.2-3.6 2.4-7.3 3.4-11.1L312.3 132.2z" fill="#8C523F"/><path d="M292.4 78.1c-0.2 0-0.5 0-0.7 0 -5.7 0-10.7 3.2-13.9 8 -1.4-0.4-2.8-0.6-4.3-0.6 -10.8 0-19.6 10.2-19.6 22.8 0 1.7 0.2 3.3 0.5 4.9 -4.4 1-7.5 3.5-8 6.9 -0.5 3.1 1.3 6.3 4.4 8.9 -5.6 6.4-8.2 13.7-6.3 19.7 2.1 6.9 9.6 10.6 19 10.2 2.5 4 6 6.5 9.9 6.5 6.1 0 11.2-6 12.9-14.3 3.3-2.2 6.3-2.2 8.6-5 2.6 2.8 5.9 2.1 9.6 2.7V66.6C299 68 294.6 72.4 292.4 78.1z" class="a"/><path d="M358.5 113.5c0-10.5-6.9-19.1-15.8-20.1 -1.7-9-8.7-15.8-17-15.8 -0.6 0-1.2 0-1.8 0.1 -2.8-6.9-8.8-11.7-15.8-11.7 -1.3 0-2.6 0.2-3.9 0.5v82.2c0.8 0.1 1.5 0.2 2.3 0.2 3.2 0 6.2-1 8.8-2.7 2.4 7.7 8.8 13.2 16.3 13.2 4.1 0 7.9-1.6 10.8-4.4 5.9 2 11.7 0.5 14.7-4.4 1.8-2.9 2.2-6.6 1.5-10.4 2.4-1.6 4.3-3.9 5.3-6.8 2.3-6.5-0.1-14.3-5.5-19.5C358.5 113.8 358.5 113.7 358.5 113.5z" class="b"/><path d="M502.9 182.4c-1-4.9-5.1-8.6-10-8.6 -0.8 0-1.6 0.1-2.4 0.3 -1.8-3.4-5.1-5.6-9-5.6 -4.6 0-8.5 3.2-9.8 7.7 -0.8-0.2-1.7-0.3-2.6-0.3 -4.2 0-7.9 2.8-9.5 6.7 -5.6 0.1-10.2 5-10.2 11 0 5.5 3.8 10.1 8.7 10.9 0.6 0.1 1.3 0.2 2 0.2h41.4c3.5 0 6.6-1.7 8.1-4.2 0.1-0.2 0.2-0.3 0.3-0.5 1.2-1.8 2-4.1 2-6.5C512.2 187.6 508.1 183 502.9 182.4z" class="a"/><path d="M519.6 187.6c-0.8-3.7-3.9-6.5-7.7-6.5 -0.6 0-1.2 0.1-1.8 0.2 -1.3-2.6-3.9-4.3-6.9-4.3 -3.5 0-6.5 2.5-7.5 5.9 -0.6-0.2-1.3-0.3-2-0.3 -3.2 0-6 2.1-7.2 5.1 -4.3 0-7.8 3.8-7.8 8.4 0 4.2 2.9 7.7 6.7 8.3 0.5 0.1 1 0.1 1.5 0.1h31.7c2.7 0 5-1.3 6.2-3.2 0.1-0.1 0.2-0.3 0.3-0.4 0.9-1.4 1.5-3.1 1.5-4.9C526.6 191.6 523.5 188.1 519.6 187.6z" class="b"/><path d="M396.1 177.9c-1.2-5.8-6.1-10.1-11.9-10.1 -1 0-1.9 0.1-2.8 0.4 -2.1-4-6.1-6.7-10.6-6.7 -5.5 0-10.1 3.8-11.6 9.1 -1-0.3-2-0.4-3-0.4 -5 0-9.3 3.3-11.2 7.9 -6.7 0.1-12.1 5.9-12.1 13 0 6.5 4.5 11.9 10.3 12.9 0.8 0.1 1.5 0.2 2.4 0.2h49.1c4.2 0 7.8-2 9.6-5 0.1-0.2 0.3-0.4 0.4-0.6 1.5-2.1 2.3-4.8 2.3-7.7C407 184.1 402.2 178.6 396.1 177.9z" class="a"/><path d="M415.8 184.1c-0.9-4.4-4.6-7.7-9.1-7.7 -0.7 0-1.5 0.1-2.2 0.3 -1.6-3-4.6-5.1-8.1-5.1 -4.2 0-7.7 2.9-8.9 7 -0.7-0.2-1.5-0.3-2.3-0.3 -3.8 0-7.1 2.5-8.6 6 -5.1 0.1-9.2 4.5-9.2 9.9 0 5 3.4 9.1 7.9 9.8 0.6 0.1 1.2 0.2 1.8 0.2h37.5c3.2 0 5.9-1.6 7.3-3.8 0.1-0.2 0.2-0.3 0.3-0.5 1.1-1.6 1.8-3.7 1.8-5.9C424.1 188.8 420.4 184.6 415.8 184.1z" class="b"/><path d="M222 246.7h-4.7c-0.3 0-0.5-0.3-0.5-0.6v-17.9h5.7v17.9C222.5 246.4 222.2 246.7 222 246.7z" class="c"/><path d="M307.8 246.7h-4.7c-0.3 0-0.5-0.3-0.5-0.6v-17.9h5.7v17.9C308.3 246.4 308.1 246.7 307.8 246.7z" class="c"/><rect x="226.6" y="190.7" width="3.6" height="22.3" class="c"/><rect x="238" y="190.7" width="3.6" height="22.3" class="c"/><rect x="249.4" y="190.7" width="3.6" height="22.3" class="c"/><rect x="260.9" y="190.7" width="3.6" height="22.3" class="c"/><rect x="272.3" y="190.7" width="3.6" height="22.3" class="c"/><rect x="283.8" y="190.7" width="3.6" height="22.3" class="c"/><rect x="295.2" y="190.7" width="3.6" height="22.3" class="c"/><path d="M309.9 214.9H215.6v-15.7c0-6.3 6.8-11.4 15.1-11.4h64c8.3 0 15.1 5.1 15.1 11.4V214.9zM219.7 211.2h86v-12c0-4.2-4.9-7.7-11-7.7h-64c-6.1 0-11 3.4-11 7.7V211.2z" class="c"/><path d="M309.6 214.8h-93.7c-1.4 0-4.7 4.9-4.7 8.8h103.1C314.2 219.7 311 214.8 309.6 214.8z" fill="#6BA1A6"/><path d="M211.2 223.6c0 0 0 0 0 0.1 0 3.9 1.7 5.2 3.2 5.2h96.8c1.5 0 3.2-1.3 3.2-5.2 0 0 0 0 0-0.1H211.2z" fill="#2D7E85"/><path d="M387.6 230.8c0.3 0 0.6-0.1 0.9-0.1C388.2 230.7 387.9 230.7 387.6 230.8z" class="d"/><path d="M346.1 255.6c0.3 0 0.5-0.1 0.8-0.1C346.6 255.6 346.3 255.6 346.1 255.6z" class="d"/><path d="M354.6 215.8c-0.9 0-1.7 0.7-1.7 1.6v37.8c0.1 0 0.3 0 0.4 0h6.1v-39.3H354.6z" class="d"/><rect x="365.4" y="215.8" width="9.3" height="39.3" class="d"/><path d="M346.9 255.6c1.9-0.2 4.6-0.3 6-0.4v0c-0.6 0-1.1 0-1.7 0C349.8 255.3 348.3 255.4 346.9 255.6z" fill="#94D5A3"/><rect x="394.8" y="208.6" width="103.2" height="62.6" class="e"/><rect x="394.8" y="208.6" width="13.7" height="62.6" class="f"/><rect x="424.7" y="208.6" width="13.7" height="62.6" class="f"/><rect x="454.5" y="208.6" width="13.7" height="62.6" class="f"/><rect x="484.3" y="208.6" width="13.7" height="62.6" class="f"/><rect x="380.7" y="215.8" width="5" height="39.3" class="d"/><path d="M351.2 209.5c-2.8 0-5.1 1-5.1 2.2v2.2 0.4 41.4c0.2 0 0.5-0.1 0.8-0.1 1.5-0.2 2.9-0.3 4.3-0.4 0.6 0 1.1 0 1.7 0v-37.8c0-0.9 0.8-1.6 1.7-1.6h4.8v39.3h6v-39.3h9.3v39.3h6v-39.3h5v-6.3H351.2z" class="g"/><path d="M380.7 255.2h-6 -9.3 -6 -6.1c-0.1 0-0.3 0-0.4 0v0c-1.4 0.1-4.2 0.2-6 0.4 -0.3 0-0.5 0.1-0.8 0.1 -10.6 1.3-22.7 5.2-30.7 10L192.5 366.2c-5.9 3.6-17.7 6.9-24.7 6.9h-41c-5.7 0-10.3 4.2-10.3 9.4v3.1c0 5.2 4.6 9.4 10.3 9.4h41c11.8 0 28.1-4.5 37.9-10.5l122.9-100.6c5.9-3.6 17.7-6.9 24.7-6.9h32.3v-22H380.7z" class="g"/><path d="M535.9 215.5c0.9 0 1.6 1.1 2.3 3.1l88.3 176.6h7.2l-88.9-181.2c0 0-0.4-1.1-0.9-2.4 -0.5-1.3-2.2-2.4-3.7-2.4h-2.7 -30.5v6.3h4.3v39.3h-4.3v22h23.2l57.9 118.3h3.4 9l-64.7-134.6c-0.1-0.4-0.3-0.7-0.4-1.1l0-0.1 0 0c-0.6-1.2-1.6-2.3-2.8-3V215.5H535.9zM526.5 254.8h-9.3V215.5h9.3V254.8z" class="g"/><polygon points="495.3 150.3 495.3 266 397.4 266 397.4 150.3 385.1 150.3 385.1 395.1 397.4 395.1 397.4 276.8 495.3 276.8 495.3 395.1 507.6 395.1 507.6 150.3 " class="g"/><path d="M359.8 151.2l84.8-69c1-0.8 2.5-0.8 3.5 0l84.8 69c1 0.8 0.7 1.4-0.6 1.4H360.3C359.1 152.6 358.8 152 359.8 151.2z" class="e"/><path d="M359.8 151.2c-1 0.8-0.7 1.4 0.6 1.4h171.9c1.3 0 1.6-0.6 0.6-1.4l-8.8-7.2H368.6L359.8 151.2z" class="f"/><polygon points="378.4 136 514.1 136 503.5 127.3 389 127.3 " class="f"/><polygon points="398.9 119.3 493.7 119.3 483.1 110.7 409.5 110.7 " class="f"/><polygon points="419.3 102.7 473.3 102.7 462.7 94 429.9 94 " class="f"/><path d="M448 82.1c-1-0.8-2.5-0.8-3.5 0l-4.8 3.9h13.1L448 82.1z" class="f"/><rect x="396.2" y="204.7" width="100.9" height="9.2" class="g"/></svg>