<svg xmlns="http://www.w3.org/2000/svg" viewBox="0 0 768 430"><style>.a{fill:#303030;}.b{fill:#686868;}.c{fill:#61B9DB;}.d{fill:#E0AB85;}.e{fill:#1F2E3D;}.f{fill:#F4F4F4;}.g{fill:#135699;}.h{fill:#BDD9F9;}.i{fill:#5F8946;}.j{fill:#FFF;}.k{fill:#DCB59A;}.l{fill:#610E0E;}.m{fill:#EDC6AB;}.n{fill:#721F1F;}.o{fill:#F44437;}.p{fill:#A81B1B;}.q{fill:#914A16;}.r{fill:#EDEDED;opacity:0.4;}.s{fill:#252B03;}.t{fill:#59514B;}.u{fill:#FFF;opacity:0.1;}.v{fill:#BC6C61;}.w{fill:#680704;}.x{fill:#FAFAFA;}.y{fill:#352412;}</style><path d="M346.6 363.2c0 0 2.3 6.4 9.3 8.6 7.1 2.2 16.7 5.2 24.3 2.1 7.6-3.1 13.3-11.2 13.4-25.2 0.1-14-3.5-30.5-31.3-22.3C334.5 334.5 346.6 363.2 346.6 363.2z" class="a"/><path d="M268 387.4c0 0 2.3 6.4 9.3 8.6 7.1 2.2 16.7 5.2 24.3 2.1 7.6-3.1 13.3-11.2 13.4-25.2 0.1-14-3.5-30.5-31.3-22.3S268 387.4 268 387.4z" class="a"/><polygon points="353.8 265.3 406.9 278.7 356.3 293.3 " fill="#AD672D"/><path d="M323.4 369.4c0 0 74.5-24.2 76.4-27.7s12.3-66.2 6.4-66.1 -49.6 18.9-55.4 18.9c-5.9 0-25.1 3.2-25.1 3.2L323.4 369.4z" fill="#EA852A"/><path d="M248.3 382.5c0 0-55.1-25.8-56.1-28.5s6.1-21 6.1-21l54.4 23L248.3 382.5z" fill="#1F7184"/><path d="M250.2 355.5l-52.9-21.8c0 0 25.6-16.8 29.5-19.6 3.9-2.8 15.9-28.1 23.4-34.5 7.5-6.4 44.1-5.8 44.1-5.8l29.7 22.5 -14.7 21.9c0 0-13 19.8-16.2 21.5 -3.2 1.6-21.2 13.5-22.9 14.3 -1.7 0.8-14.3 4.7-14.3 4.7L250.2 355.5z" fill="#358DA8"/><path d="M325.6 299.1l-2.3 70.4c0 0-8.3 4.1-9.7 3.6 -1.4-0.4 2.8-28.1-19.3-21.7 -22 6.4-18.8 24.2-21.8 25.7 -3 1.5-23.2 6-24.2 5.4 -1.1-0.6-1.3-22.5 1.9-27 3.2-4.5 37-16.6 39.5-22.5 2.5-5.8 6.8-28.8 13.2-33.9C309.4 293.9 325.6 299.1 325.6 299.1z" class="c"/><path d="M419.6 216.2c0 0-12.4 24.5-23.9 31.2 -2.7 1.6-27.6 19.1-30.5 20.1 -2.9 1-9.8 8.4-8.8 10.6 1 2.3 14.6 8.2 18.7 4.5s4.8-8.5 6.9-8.8c2.1-0.3 27.7-4.3 31.1-6.9 3.4-2.6 22.5-29.3 22.5-29.3L419.6 216.2z" fill="#CC9672"/><path d="M458.8 284c0 0-15.5 13.4-17.9 18 -2.4 4.7 11.5 25.1 21 35.6 10.1 11.3 16.2 17.8 15.3 22.2 -0.9 4.4-13.3 13.7-13.1 18.4 0.1 4.8 11.1 0.5 23.6-12.8 12.5-13.3 11.4-10.1 7-19.3 -16-33-23.7-31.3-22-32.9 3.8-3.6 8.4-6.4 8.4-6.4l-17.5-26L458.8 284z" class="d"/><path d="M504.1 365.4c0 0 0.3 2 0.1 2.7 -0.2 0.8-5.9 4.2-9.8 4.9 -3.9 0.7-7.5 2.1-11.1 4.6 -3.6 2.4-9.7 8.9-17.6 11.5 -7.9 2.6-13.4 0.5-14.6-0.7 -1.2-1.2-1.6-2.9-1.6-2.9l19.5-1.8 17.7-12.1 12.8-3.5L504.1 365.4z" class="e"/><path d="M460 365.2c0 0 8.4-10.8 8.8-14.2 0.3-3.4-0.9-7.7 1-8.9s6.3-0.9 7.2 3.1c1 3.9-0.9 9.4-5.2 14.8 -4.4 5.4-7.5 8.8-7.5 8.8L460 365.2z" class="f"/><path d="M476.3 352.5c0 0 8.3 2.8 10.6 1.5 2.3-1.3 1.4-6.4 6.6-7.3 5.2-0.9 7.7-0.1 7.7-0.1l-0.8 7 -8.7 18.2c0 0-6.6 3-7.7 3.8s-9.9 7.2-9.9 7.2l-7.3-10.7 -2.4-4.4L476.3 352.5z" class="g"/><path d="M500.3 352c0 0-7.8 2.4-9.1 8.9 -1.2 6.5 0.5 10.9 0.5 10.9s7.6-1.3 10.4-4c2.8-2.7 3.1-4.4 1.4-8.2C501.9 355.7 500.3 352 500.3 352z" class="h"/><path d="M460 365.2c0 0 3.1-0.3 7.3 4.7 4.2 5 7 12.6 7 12.6s-10.3 7.4-16.8 6.4c-6.5-1-8-2.2-8.6-5.2s2.1-8.2 5.7-12.2C458.2 367.7 460 365.2 460 365.2z" class="h"/><path d="M460.9 365.2c0.7-1.4 1.8-2.4 3.2-2.9 0.2 0.4 0.3 0.8 0.4 1.2 0.3 1.2 0.2 2.3 0.1 3.4 -0.1 0.5 0.6 0.7 0.7 0.3 0.4-1.5 0.2-3.4-0.4-5.1 0.8-0.2 1.7-0.2 2.6-0.1 0.6 0.1 1.3 0.2 2 0.3 0 0.1 0.1 0.1 0.2 0.2 0 0 0.1 0 0.1 0 0.1 0.6 0.8 1.1 1.3 1 0.7-0.1 1.2-0.8 1-1.6 -0.1-0.3-0.3-0.6-0.6-0.7 0-0.1-0.1-0.1-0.2-0.2 -0.1-1.3-0.4-2.6-1-3.9 -0.2-0.6-0.5-1.3-0.9-1.9 0.2-0.1 0.5-0.2 0.8-0.2 1.1-0.3 2.2-0.4 3.3-0.4 0.7 0 1.4 0.1 2.1 0 0.1 0.3 0.5 0.7 0.7 0.8 0.6 0.2 1.2-0.1 1.3-0.7 0.1-0.6-0.3-1.3-0.9-1.4 -0.4-0.1-1 0.2-1 0.7 -1-0.2-2-0.1-2.9-0.1 -1.2 0.1-2.3 0.2-3.4 0.6 -0.1 0-0.3 0.1-0.4 0.2 -0.3-0.5-0.7-0.9-1.1-1.1 -0.2-0.1-0.3 0.1-0.2 0.2 0.2 0.4 0.4 0.8 0.7 1.2 -1.5 0.8-2.8 2-3.5 3.7 -0.2 0.4 0.5 0.9 0.6 0.4 0.7-1.6 1.9-2.7 3.3-3.4 0 0 0 0 0 0 0.3 0.5 0.6 1.1 0.8 1.6 0.6 1.3 0.9 2.7 1 4.1 -0.3 0.1-0.6 0.3-0.7 0.6 -1.6-0.8-3.7-0.8-5.2-0.5 -0.2-0.5-0.5-0.9-0.8-1.3 -0.3-0.3-0.6 0-0.4 0.3 0.2 0.4 0.4 0.8 0.6 1.2 -1.5 0.5-2.9 1.6-3.6 3.2C460.1 365.2 460.7 365.6 460.9 365.2zM475.9 354.5c0.2 0 0.3 0 0.5-0.1 0.2 0 0.2-0.3 0-0.4 -0.2-0.1-0.4-0.1-0.6-0.2 0.2-0.2 0.3-0.4 0.6-0.4 0.3 0 0.7 0.4 0.7 0.8 0 0.4-0.3 0.6-0.7 0.6C476.1 354.8 475.9 354.7 475.9 354.5zM470.1 362.6c0.5 0 0.9-0.3 0.9-0.8 0.1 0 0.2-0.1 0.2-0.3 0 0 0 0 0 0 0 0 0 0 0 0 0 0 0 0 0 0 0.1 0 0.1 0.1 0.2 0.2 0.2 0.2 0.3 0.5 0.2 0.8 -0.1 0.5-0.6 0.8-1.1 0.6C470.4 362.9 470.2 362.8 470.1 362.6z" class="e"/><path d="M504 300.9c0 0 7.4 18 10.9 21.6 3.5 3.6 26-2.8 38.3-8.2 13.2-5.7 20.9-9.3 24.6-7.1 3.7 2.2 8.3 16.1 12.6 17.4s3.8-9.8-4.4-25.1c-8.2-15.3-5.6-13.3-15.3-12.1 -34.6 4.5-35.3 11.9-36.3 9.9 -2.1-4.5-3.2-9.4-3.2-9.4l-28.7 7.9L504 300.9z" class="d"/><path d="M458.5 276.6c0 0-15.4 9.1-16.1 10 -0.8 0.9 4.7 11.8 17.4 17.4 13.3 5.8 22 4.4 22 4.4s4.6-16.4 6.8-15.4c2.1 1 5.1-0.3 5.8 0.4 0.6 0.8 4.8 22.5 8.2 21.6 3.4-0.9 17.2-0.1 21.7-4.2 4.5-4.1 19.1-16.7 18.7-18.7 -0.4-1.9-4.3-16.9-13.8-29.1 -4.8-6.1-10.6-13.5-10.6-13.5l-51.2 24.9L458.5 276.6z" fill="#4280B2"/><path d="M415.3 220.2c0 0 12.9-21.3 21.1-27.4s23.7 0.3 23.3 14.5c-0.4 14.2-21.7 31.8-21.7 31.8L415.3 220.2z" class="i"/><path d="M448.6 186l-5.2 8.1c-10.4 16.1-13.3 36-7.3 54.2 1.5 4.5 3.5 8.9 6.2 12.9 13.4 19.3 17.6 22.6 17.6 22.6s19.8 5.9 34.5-4.2c14.8-10.1 24-30 24-30s-6-49.6-22.4-53.3C479.7 192.6 448.6 186 448.6 186z" fill="#74AF4E"/><path d="M295.2 298c0 0-8.4 31.4-9.4 31.2s-47.5-17.8-47.5-17.8l29.8-23.7c0 0 26.5 7.1 27.1 7.8C295.8 296.3 295.2 298 295.2 298z" class="j"/><path d="M467.9 234.5c0 0-14.7 20.9-16 21.5s-41.9 8.9-42.4 8.7c-0.5-0.2-6.5-6.2-11.4-5s-16 12.8-15.9 14.1c0.1 1.4 4.8 4.5 11 4.8 6.2 0.3 12.9-1.7 13.6 0 0.7 1.7 5 2.1 15.5 2.1s37.8-0.4 42.1-2.4c4.3-2 23-26.7 23-26.7L467.9 234.5z" class="d"/><path d="M585.6 280.5c0 0 1.9-0.2 2.6 0.1 0.7 0.2 3.6 5.9 4 9.6 0.4 3.7 1.5 7.2 3.6 10.8s7.8 9.8 9.7 17.5c1.9 7.7-0.4 12.7-1.7 13.8 -1.3 1.1-2.8 1.3-2.8 1.3l-0.4-18.6 -10.2-17.6 -2.4-12.4L585.6 280.5z" class="e"/><path d="M582.5 322.2c0 0-9.6-8.7-12.8-9.3s-7.4 0.3-8.3-1.5c-1-1.9-0.4-6 3.4-6.7 3.8-0.6 8.9 1.5 13.7 6 4.8 4.5 7.8 7.7 7.8 7.7L582.5 322.2z" class="f"/><path d="M571.5 306c0 0 3.2-7.6 2.1-9.9 -1.1-2.3-5.9-1.8-6.4-6.8 -0.5-5 0.4-7.3 0.4-7.3l6.5 1.2 16.7 9.5c0 0 2.4 6.5 3 7.6s6.1 9.9 6.1 9.9l-10.7 6.2 -4.3 2L571.5 306z" class="g"/><path d="M572.7 283.1c0 0 1.7 7.6 7.8 9.2 6.1 1.6 10.4 0.3 10.4 0.3s-0.7-7.3-3.1-10.1c-2.4-2.9-4-3.2-7.7-1.9C576.3 281.9 572.7 283.1 572.7 283.1z" class="h"/><path d="M582.5 322.2c0 0-0.1-2.9 5-6.6 5-3.6 12.4-5.8 12.4-5.8s6.3 10.3 5 16.3c-1.4 6-2.6 7.4-5.5 7.8s-7.6-2.5-11.1-6.2S582.5 322.2 582.5 322.2z" class="h"/><path d="M582.5 321.4c-1.3-0.8-2.2-1.9-2.5-3.3 0.4-0.1 0.8-0.2 1.2-0.3 1.1-0.2 2.2-0.1 3.3 0.2 0.5 0.1 0.7-0.5 0.3-0.6 -1.4-0.4-3.2-0.5-4.9 0 -0.1-0.8-0.1-1.6 0.1-2.5 0.1-0.6 0.3-1.2 0.4-1.8 0.1 0 0.1-0.1 0.2-0.1 0 0 0-0.1 0.1-0.1 0.6-0.1 1-0.6 1-1.2 0-0.7-0.7-1.2-1.4-1 -0.3 0.1-0.6 0.3-0.7 0.5 -0.1 0-0.1 0.1-0.2 0.2 -1.3 0-2.5 0.2-3.8 0.7 -0.6 0.2-1.2 0.4-1.9 0.7 -0.1-0.2-0.1-0.5-0.2-0.7 -0.2-1-0.2-2.1-0.2-3.2 0-0.6 0.1-1.3 0.2-2 0.3-0.1 0.7-0.4 0.8-0.6 0.3-0.5 0-1.1-0.5-1.3 -0.6-0.2-1.2 0.2-1.4 0.7 -0.1 0.4 0.1 1 0.6 1 -0.2 0.9-0.2 1.9-0.3 2.8 0 1.1 0 2.2 0.3 3.3 0 0.1 0.1 0.3 0.1 0.4 -0.5 0.3-0.9 0.6-1.1 1 -0.1 0.2 0 0.3 0.2 0.2 0.4-0.1 0.8-0.4 1.2-0.6 0.6 1.5 1.7 2.8 3.2 3.6 0.4 0.2 0.9-0.4 0.5-0.6 -1.5-0.7-2.5-2-3-3.4 0 0 0 0 0 0 0.5-0.3 1-0.5 1.6-0.7 1.3-0.4 2.6-0.6 3.9-0.7 0.1 0.3 0.3 0.6 0.6 0.7 -0.9 1.4-1 3.4-0.8 4.9 -0.5 0.2-0.9 0.4-1.3 0.7 -0.3 0.2 0 0.6 0.3 0.4 0.4-0.2 0.8-0.3 1.1-0.4 0.4 1.5 1.3 2.8 2.8 3.6C582.4 322.2 582.9 321.6 582.5 321.4zM573.4 306.5c0-0.2 0-0.3 0-0.5 0-0.1-0.3-0.2-0.3 0 -0.1 0.2-0.1 0.4-0.2 0.5 -0.2-0.2-0.3-0.3-0.3-0.6 0-0.3 0.4-0.6 0.8-0.6 0.4 0 0.6 0.3 0.5 0.7C573.7 306.3 573.6 306.4 573.4 306.5zM580.7 312.5c0-0.4-0.3-0.9-0.7-0.9 0-0.1-0.1-0.2-0.3-0.2 0 0 0 0 0 0 0 0 0 0 0 0 0 0 0 0 0 0 0-0.1 0.1-0.1 0.2-0.2 0.2-0.2 0.5-0.2 0.8-0.1 0.4 0.1 0.7 0.6 0.5 1.1C581 312.3 580.9 312.4 580.7 312.5z" class="e"/><path d="M322.3 302.6c0 0 0.3 21.2-0.6 21.6 -0.9 0.4-24.9 5.4-25.5 4.5 -0.6-0.9 5.9-24.2 9.4-26.9 3.5-2.7 16-0.9 16-0.9L322.3 302.6z" class="j"/><path d="M335 204.7c0 0 1-3.1 1-6 0-2.9-0.7-6.1-0.7-6.1l17.5-3.5c0 0 0.7 9.7 1.1 11.1 0.3 1.4 5.3 3.3 6.2 3.3 1 0-15.2 18.2-15.8 18.3 -0.5 0.1-18.7 0.8-18.7-1.4 -0.1-2.1-4.1-10.6-1.8-11.5C326.2 208 335 204.7 335 204.7z" class="k"/><path d="M264.5 175.6c0 0-26.7-24.2-29-26.1 -2.3-2-15.8-7.1-17-9.2 -1.2-2.1-16.5-5.5-16.3-7.2 0.1-1.8 1-2.9 4.7-1.9 3.8 1 10.7 3 10.9 2.4s-15.8-6.6-16.1-8.9 1.8-2.8 5.4-1.2 11.3 5.7 11.8 5.2c0.5-0.5-12-9.5-12.1-10.6 -0.1-1.1 1.3-4.5 7.4 0.5 6.1 5 9.5 7.5 9.8 6.8 0.4-0.7-6.9-11.1-6.9-11.1s-2-3.3 0.1-4.4c2.1-1 6.7 4.3 9.1 7.5s4.5 5.8 5.3 5.6c0.8-0.3 2.6-3.1 3-3.7 0.4-0.7-0.8-4.9 1.1-5.6 1.9-0.8 2.8 0.5 2.9 4 0.1 3.6 0.7 8.1 1.5 9 0.8 0.9 1.3 5 1.4 5.4 0 0.5 16 10.1 19.8 12.7 3.9 2.6 13.6 11 15 11.5 1.4 0.5 15.5 8.8 17.6 10.3s7.3 5.7 7.3 5.7 0.7 7.6-2.5 12.5c-3.2 4.9-8.8 8.7-8.8 8.7L264.5 175.6z" class="k"/><path d="M276.3 246.5c-7.2-9.8-13.9-11.5-13.9-11.5s-8.2 2.6-11.4 4.7c-3.2 2.1-6.2 7.3-13.1 12.2 -3.8 2.7-12.3 9-20.2 14.8 0 0-1.7 5.8 4.8 15.6s10.9 10.2 10.9 10.2l0 0c4.1-1.7 7.9-3.5 10.7-5.3 9.6-6 16.8-14.1 20.8-15.4 4-1.3 11.1-3.1 13.5-4.9C280.7 264.8 283.5 256.2 276.3 246.5z" class="k"/><path d="M233.3 292.3L233.3 292.3c0 0-4.5-0.5-10.9-10.2s-4.8-15.6-4.8-15.6c-6.2 4.6-12.1 8.8-15 10.8 -6.5 4.5-20 10.4-25.3 11.4 -2.1 0.4-5 0.2-7.9-0.2l0 0c-2.1-0.2-8.2 1.8-1.8 6.1 6.4 4.3 22.3 6.4 28.7 5.9 6.4-0.5 13.1 1.1 13.1 1.1s0 0 0 0c0.3-0.4 0.6-0.7 1-0.9C211.5 300.2 223.2 296.6 233.3 292.3z" fill="#BFDAEB"/><path d="M166.3 306.4c7.2 5.1 12.1 5 12.3 5 3.2-0.4 5.8-1.2 6.9-1.1 0.7 0.1 0.8 0.6 0.8 1.3 0 0 1 0.4 5.4 1.5 4.4 1 10.7 1.4 10.7 1.4 1.8-2 3.8-4.8 4.4-6.4 0.7-2 1.5-4.9 2.6-6.4 0 0 0 0 0 0s-6.7-1.5-13.1-1.1c-6.4 0.5-22.3-1.6-28.7-5.9 -6.4-4.3-0.3-6.3 1.8-6.1l0 0c-4.4-0.5-8.9-1.2-10.9-0.2 -1.8 1-3.4 2.5-4.1 4.4C153.7 296.5 158.9 301.2 166.3 306.4z" fill="#A61919"/><path d="M154.9 297.8c2.1 3.9 9.5 10.6 15.4 12.9 2.7 1 5.7 1 8.3 0.6 -0.2 0-5.1 0.1-12.3-5 -7.3-5.1-12.5-9.9-11.8-13.6C153.9 294.3 153.9 296.1 154.9 297.8z" class="l"/><path d="M186.2 311.6c0 1.2-0.5 2.8 1 3.1 2.3 0.6 10.8 2.2 12.4 1.9 0.6-0.1 1.6-1 2.7-2.1 0 0-6.3-0.4-10.7-1.4C187.2 312 186.2 311.6 186.2 311.6z" class="l"/><path d="M291.3 261.9c-9.7-7.3-16.6-7-16.6-7s-7.1 4.9-9.6 7.8 -3.9 8.8-9 15.4c-2.9 3.7-9.2 12.2-15.1 20 0 0 0.1 6.1 9 13.5 9 7.5 13.4 6.6 13.4 6.6l0 0c3.4-2.8 6.6-5.7 8.7-8.1 7.4-8.5 12-18.4 15.4-20.7 3.5-2.4 9.8-6.1 11.5-8.6C300.8 278.2 300.9 269.2 291.3 261.9z" class="m"/><path d="M263.3 318.2L263.3 318.2c0 0-4.4 0.8-13.4-6.6 -9-7.5-9-13.5-9-13.5 -4.7 6.2-9.1 12-11.3 14.7 -5 6.2-16.1 15.7-20.9 18.2 -1.9 1-4.7 1.6-7.6 2.1l0 0c-2.1 0.4-7.3 4 0 6.3 7.3 2.3 23.2-0.3 29.1-2.6s12.8-2.7 12.8-2.7 0 0 0 0c0.2-0.5 0.4-0.9 0.7-1.1C244.7 332 254.8 325.1 263.3 318.2z" fill="#D0EBFC"/><path d="M203.1 350.9c8.4 2.8 13 1.3 13.2 1.2 2.9-1.3 5.2-2.9 6.3-3 0.7-0.1 1 0.4 1.1 1 0 0 1.1 0.1 5.6-0.2 4.5-0.3 10.6-1.7 10.6-1.7 1.2-2.4 2.3-5.7 2.4-7.4 0.2-2.1 0-5.1 0.7-6.9 0 0 0 0 0 0s-6.9 0.5-12.8 2.7 -21.8 4.8-29.1 2.6c-7.3-2.3-2.1-5.9 0-6.3l0 0c-4.4 0.8-8.9 1.4-10.5 3 -1.5 1.4-2.5 3.4-2.7 5.4C188.3 345 194.6 348.1 203.1 350.9z" fill="#B72A2A"/><path d="M189.7 346c3.1 3.1 12.2 7.5 18.4 7.9 2.9 0.2 5.7-0.7 8.2-1.8 -0.2 0.1-4.8 1.5-13.2-1.2 -8.5-2.8-14.8-5.9-15.2-9.6C187.8 343 188.3 344.6 189.7 346z" class="n"/><path d="M223.7 350.1c0.3 1.1 0.3 2.8 1.9 2.7 2.4-0.1 11-1 12.4-1.8 0.5-0.3 1.3-1.4 1.9-2.8 0 0-6.1 1.4-10.6 1.7C224.8 350.3 223.7 350.1 223.7 350.1z" class="n"/><path d="M250 240.3c0 0 14.3-4.9 21.9 10.5 7.6 15.4 25.4 50.2 52.7 53 27.2 2.8 53.6-13.9 53.6-13.9s-10.3-6.4-13.7-12.2c-3.4-5.8-9.2-14-9.2-14l-47.2-22.5 -10.1 0.2c0 0-28.9-7.5-37.2-7.1 -8.4 0.4-14.8 4.9-15.4 8.2 -0.7 3.3-0.7 3.3-0.7 3.3L250 240.3z" class="o"/><path d="M335 204.7c0 0-6 9.1 0 9.7 15.6 1.4 24.3-10.9 24.3-10.9s4.6-0.5 9.5 1c4.9 1.5 16.9 7.5 25.1 17.6s14.4 17.4 14.4 17.4 -3.8 5.6-10.7 9.2c-6.9 3.6-10.3 2.8-10.3 2.8s-20.1-18.2-21.3-16.5c-1.2 1.7-7.2 20.8-7.1 23 0.1 2.1-2.4 6.6-2.4 6.6s-6.6 3.6-19.4-4.3c-12.8-7.9-24.3-12.9-31.7-15.9s-7.3-3-7.3-3 10.8-23.8 10.4-25.7c-0.3-1.9-23.3-23.2-23.3-23.2s3.1-5.8 7.7-10.3c4.6-4.5 10.1-5.4 10.1-5.4l20.6 21.2c0 0 5.1 3.6 6.6 4.1C331.7 202.5 335 204.7 335 204.7z" class="p"/><path d="M365.2 65.8c0.1-0.2 0.2-0.4 0.4-0.5 -0.2 0.4-0.4 0.8-0.6 1.2C365 66.2 365.1 66 365.2 65.8z" class="r"/><path d="M258.2 92.4c-0.3-0.3-0.7-0.6-1-0.9 0.2 0.1 0.4 0.2 0.6 0.4C257.9 92.1 258.1 92.3 258.2 92.4z" class="r"/><path d="M363.4 188.7l-36.2 10.1c-18.2 5.1-37.1-5.5-42.2-23.7l-11.8-42c-5.1-18.2 5.5-37.1 23.7-42.2l36.2-10.1c18.2-5.1 37.1 5.5 42.2 23.7l11.8 42C392.3 164.7 381.7 183.6 363.4 188.7z" class="m"/><path d="M373.7 126.2c-0.2 0.6-0.9 1.9-1.9 2.5 0 0 0 0 0 0 0.3-0.6 0.7-1.5 1.1-2.5 1.5-3.3 1.5-5 1.3-5 -0.2 0-0.4 0.7-2.5 1.4 -1 0.3-6-2.9-6-2.9l1.2 2.7 2.5 5.1c0 0.6 1 6.5 1 6.5s1.9-1.4 2.9-3.8c1.1-2.4 1-4.4 0.8-4.7C374 125.2 373.9 125.6 373.7 126.2z" class="s"/><path d="M343.6 136.9c0 0-5.3-13.9 8.7-18.8 14-4.8 18.8 7.7 19 11.8C371.6 134 343.6 136.9 343.6 136.9z" class="s"/><circle cx="357.3" cy="132.9" r="14.3" class="t"/><circle cx="357.3" cy="132.9" r="13.3" class="j"/><circle cx="358.9" cy="135.4" r="8.9" class="s"/><path d="M360.6 136.7c2.9-1 4.7-3.6 4.7-6.4 -2.1-2.6-5.7-3.7-9-2.6 -2.1 0.7-3.7 2.2-4.6 4 0.1 0.3 0.1 0.6 0.2 0.9C353.1 136.1 357 137.9 360.6 136.7z" class="u"/><path d="M286 150.8c0.5 0.4 1.8 1.2 2.9 1.1 0 0 0 0 0 0 -0.6-0.4-1.3-0.9-2.3-1.6 -3-2.1-3.9-3.5-3.7-3.6 0.1-0.1 0.7 0.4 2.9-0.1 1-0.2 3.6-5.6 3.6-5.6l0.4 2.9 0.5 5.7c0.3 0.5 2.5 6.1 2.5 6.1s-2.3-0.2-4.5-1.7 -3.1-3.2-3.1-3.6C285.3 150 285.6 150.3 286 150.8z" class="s"/><path d="M317.3 144.3c0 0-2.7-14.7-17.1-11.5 -14.5 3.2-12 16.3-10.1 20C291.9 156.3 317.3 144.3 317.3 144.3z" class="s"/><circle cx="303.5" cy="148" r="14.3" class="t"/><circle cx="303.5" cy="148" r="13.3" class="j"/><path d="M343 153.2c0.5 1.9-2.4 5.1-6.9 6.3s-8.6 0-9.1-1.8 4 0.3 8.4-0.9C339.8 155.5 342.5 151.3 343 153.2z" class="v"/><circle cx="307.2" cy="149.8" r="8.9" class="s"/><path d="M308.8 151.1c2.9-1 4.7-3.6 4.7-6.4 -2.1-2.6-5.7-3.7-9-2.6 -2.1 0.7-3.7 2.2-4.6 4 0.1 0.3 0.1 0.6 0.2 0.9C301.4 150.6 305.2 152.4 308.8 151.1z" class="u"/><path d="M381.2 122.7c0 0 12.8-4.3 16.1 7.3 3.2 11.6-13.4 13.3-13.4 13.3L381.2 122.7z" class="m"/><path d="M277.8 151.6c0 0-13.2 3-10 14.5 3.2 11.6 18.4 4.4 18.4 4.4L277.8 151.6z" class="m"/><path d="M366.4 80.8c-14.8-12.8-29.8-16.8-55.3-9.8C285.7 78.1 263.9 95.3 264.5 116.5c0.5 16.2 6.2 37.5 6.2 37.5l12.7 2c0 0-11.5-30.9-4.9-44.6 1-2.1 2.5-4.1 4.4-6 -1.4 11.5 3.7 25.6 3.7 25.6l74.3-20.6c0 0-1.2-7-7-19.1 -1.1-2.2-2.2-4.1-3.3-5.7 5 2.3 11.6 6.1 16 12.1 7.9 10.7 12.6 33.9 12.6 33.9l6.5-9.6C385.7 121.9 381.2 93.6 366.4 80.8z" class="q"/><path d="M350.6 85.6c0 0 7.2 8.6 10.4 16.9 3.1 8.3 3.4 12.3 3.4 12.3l8.9 2.8c0 0 1.8-2.5-3.5-14.8 -5.3-12.3-11.3-19.4-11.3-19.4L350.6 85.6z" class="q"/><path d="M284.2 104c0 0-1.8 11.1-0.2 19.8 1.6 8.7 3.4 12.3 3.4 12.3l-6.2 7c0 0-2.8-1.2-4.6-14.5 -1.8-13.3-0.3-22.4-0.3-22.4L284.2 104z" class="q"/><circle cx="363.4" cy="131.5" r="2.6" class="j"/><circle cx="356.5" cy="141" r="1.2" class="j"/><circle cx="311.1" cy="145.6" r="2.6" class="j"/><circle cx="304.2" cy="155.2" r="1.2" class="j"/><path d="M361.4 115.4c-1.9-1.9-5.7-2.2-8.3-2.2 -3.3 0-6.2 1-9.3 1.9 -2.6 0.7-0.9 4.6 1.2 3.3 2.3-1.5 5.4-2 8.1-2.2 1.4-0.1 2.7-0.2 4.1-0.1 1.3 0.1 2.6 0.3 3.9 0.1C361.5 116.1 361.6 115.7 361.4 115.4z" class="q"/><path d="M290.1 135.6c0.7-2.6 3.7-4.9 5.9-6.2 2.8-1.7 5.8-2.4 8.9-3.3 2.6-0.7 3.2 3.5 0.7 3.4 -2.7 0-5.7 1.1-8.1 2.4 -1.2 0.6-2.4 1.3-3.6 2.1 -1.1 0.8-2 1.6-3.3 2.1C290.4 136.3 290 136 290.1 135.6z" class="q"/><rect x="327.1" y="59.6" transform="matrix(0.9999 0.0164 -0.0164 0.9999 1.0972 -5.4119)" width="8.7" height="9.6" fill="#B72018"/><path d="M335.9 59.6l9.6-6.2c1.9-1.2 4.3 0.2 4.3 2.4l-0.3 19.5c0 2.4-2.9 3.6-4.7 2l-9.1-8.1L335.9 59.6z" class="o"/><path d="M327.2 59.5l-9.4-6.5c-1.8-1.3-4.3 0-4.4 2.2l-0.3 19.5c0 2.4 2.7 3.7 4.6 2.2l9.3-7.8L327.2 59.5z" class="o"/><path d="M322.2 166.9c0 0 10.2 2.7 17.5-0.8 7.3-3.5 11.9-13.3 12.9-13.4 1-0.1 3.5 23.8-3.5 29.2 -7 5.4-10.7 1.3-18.2-6 -7.5-7.2-10.5-7.2-10.6-8.3C320.2 166.6 322.2 166.9 322.2 166.9z" class="w"/><path d="M325.6 168c0 0 8.2 2.1 14-1.1 5.8-3.3 8.3-6.8 9-7.7 0.6-0.9 3-4.6 3-4.6s-1 11.7-9.3 15.6S325.6 168 325.6 168z" class="x"/><path d="M351.5 175.7c0 0-6.9 0-9.8 1.8 -2.9 1.8-3.2 4.2-3.2 4.2s3.9 3.6 8.1 0.9c4.2-2.7 5.1-6.3 5.1-6.3l0.3-0.6H351.5z" class="p"/><path d="M368.9 287.9c-0.4-0.4-0.9-0.6-1.5-0.6 -0.5 0-1.1 0.2-1.5 0.6 -0.4 0.4-0.7 1-0.6 1.5 0 0.6 0.2 1.1 0.6 1.5 0.4 0.4 0.9 0.6 1.5 0.6 0.5 0 1.1-0.2 1.5-0.6 0.4-0.4 0.7-1 0.6-1.5C369.5 288.9 369.3 288.3 368.9 287.9z" class="p"/><path d="M360.2 291.7c-0.4-0.4-1-0.7-1.6-0.7 -0.6 0-1.2 0.3-1.6 0.7 -0.2 0.2-0.4 0.5-0.5 0.7 -0.1 0.3-0.2 0.6-0.2 0.9 0 0.6 0.2 1.2 0.7 1.6 0.4 0.4 1 0.7 1.6 0.7 0.6 0 1.2-0.3 1.6-0.7 0.2-0.2 0.4-0.5 0.5-0.7 0.1-0.3 0.2-0.6 0.2-0.9C360.8 292.7 360.6 292.1 360.2 291.7z" class="p"/><path d="M348.5 293.3c-2.9 0-3 4.6 0 4.6C351.4 297.9 351.4 293.3 348.5 293.3z" class="p"/><path d="M336.7 295.7c-3 0-3 4.7 0 4.7C339.7 300.3 339.7 295.7 336.7 295.7z" class="p"/><path d="M327.8 297.4c-0.1-0.2-0.2-0.5-0.3-0.7 -0.4-0.7-1.2-1.1-1.9-1.1 -0.6 0-1.2 0.2-1.6 0.7 -0.4 0.4-0.7 1-0.7 1.6 0 0.8 0.4 1.6 1.1 1.9 0.2 0.1 0.5 0.2 0.7 0.3 0.4 0.1 0.8 0.1 1.2 0 0.4-0.1 0.7-0.3 1-0.6 0.3-0.3 0.5-0.6 0.6-1C327.9 298.2 327.9 297.8 327.8 297.4z" class="p"/><path d="M315.9 293.1c-3 0-3 4.6 0 4.6C318.9 297.7 318.9 293.1 315.9 293.1z" class="p"/><path d="M308.7 288.4c-0.4-0.4-1-0.7-1.6-0.7 -0.6 0-1.2 0.3-1.6 0.7 -0.2 0.2-0.4 0.5-0.5 0.7 -0.1 0.3-0.2 0.6-0.2 0.9 0 0.6 0.2 1.2 0.7 1.6 0.4 0.4 1 0.7 1.6 0.7 0.6 0 1.2-0.3 1.6-0.7 0.2-0.2 0.4-0.5 0.5-0.7 0.1-0.3 0.2-0.6 0.2-0.9C309.3 289.5 309.1 288.9 308.7 288.4z" class="p"/><path d="M299.1 280.4c-3 0-3 4.7 0 4.7C302.2 285.1 302.2 280.4 299.1 280.4z" class="p"/><path d="M292.1 272.5c-3.1 0-3.1 4.8 0 4.8C295.1 277.2 295.1 272.5 292.1 272.5z" class="p"/><path d="M285.8 263.9c-3 0-3 4.6 0 4.6C288.8 268.6 288.8 263.9 285.8 263.9z" class="p"/><path d="M282.7 256.1c-0.2-0.1-0.3-0.2-0.5-0.4 -0.4-0.2-0.7-0.3-1.2-0.3 -0.1 0-0.1 0-0.2 0 -0.4 0-0.8 0.1-1.2 0.3 -0.3 0.2-0.6 0.5-0.8 0.8 0 0 0 0 0 0 -0.4 0.7-0.4 1.6 0 2.3 0 0 0 0 0 0 0.2 0.3 0.5 0.6 0.8 0.8 0.4 0.2 0.7 0.3 1.2 0.3 0.1 0 0.1 0 0.2 0 0.3 0 0.6-0.1 0.9-0.2 0.3-0.1 0.5-0.2 0.7-0.5 0.2-0.2 0.4-0.5 0.5-0.7 0.1-0.3 0.2-0.6 0.2-0.9C283.4 257.1 283.2 256.5 282.7 256.1z" class="p"/><path d="M390.6 251.3c0 0 8.2 7.8 8.2 8.6 0 0.8-14.8 21.4-14.8 21.4s-7.4-0.1-9.1 1c-1.7 1.1-4.3 2.6-5.5 2.5 -1.3-0.1-2.3 0.2-2.7 1s1.6 3.4 4.3 3c2.6-0.4 4-0.6 3.3-0.1 -0.5 0.4-1.5 1.6-2.6 3.8 -1.1 2.2-0.1 8.7 0.7 9.6 0.8 0.9 1.5 1.7 2.4 1.4 0.9-0.3 0.6-4.9 0.5-5.9 -0.1-1 1.8-2.4 1.8-2.4s-0.8 3.6-0.6 4.4c0.2 0.8 0.6 4.8 1.7 5.1 1.1 0.4 2.5 0.9 2.8 0s-0.7-4.5-0.5-5.6 1.1-2.1 1.1-2.1 -0.9 1.9-0.7 3.1c0.2 1.3 0.4 4.5 1.3 5 0.9 0.5 2.5-0.5 2.7-2.2s-0.2-3.5 0-4c0.2-0.6 0.9-1.5 0.9-1.5s0.5 1.9 1 2.8c0.5 0.9 1.4 1.4 2.1 1.7s2.8-0.8 2-1.9c-0.8-1.1-1.9-1.9-1.9-2.7s4.4-4.3 5.4-6.5c1-2.2 2.2-5.7 3.1-6.9 0.9-1.2 18-16.2 20.8-20.9 2.7-4.7 3.2-4.8 1.3-9.3 -1.9-4.5-11.4-13.8-11.4-13.8s-5.5 5.6-7.7 7C398.2 248.2 390.6 251.3 390.6 251.3z" class="m"/><path d="M278.9 247.3c-0.4-0.4-1-0.6-1.6-0.6 -0.6 0-1.2 0.2-1.6 0.7 -0.4 0.4-0.7 1-0.6 1.6 0 0.6 0.2 1.2 0.7 1.6 0.4 0.4 1 0.7 1.6 0.7 0.6 0 1.2-0.2 1.6-0.6 0.4-0.4 0.7-1 0.7-1.6C279.6 248.3 279.4 247.7 278.9 247.3z" class="p"/><path d="M274.5 239.6c-0.1-0.2-0.3-0.4-0.4-0.5 -0.2-0.1-0.3-0.3-0.5-0.4 0 0-0.1-0.1-0.1-0.1 -0.5-0.4-1.4-0.4-1.9 0 0 0-0.1 0-0.1 0.1 -0.2 0.1-0.4 0.2-0.5 0.4 -0.2 0.2-0.3 0.4-0.4 0.5 -0.2 0.4-0.3 0.8-0.3 1.2 0 0.4 0.1 0.8 0.3 1.2 0.4 0.7 1.2 1.2 2 1.2s1.6-0.4 2-1.2c0.2-0.4 0.3-0.8 0.3-1.2C274.9 240.3 274.8 239.9 274.5 239.6z" class="p"/><path d="M265.5 235.9c-0.4-0.3-0.8-0.6-1.4-0.6 -0.5 0-1 0.2-1.4 0.6 -0.3 0.3-0.6 0.9-0.6 1.4 0 0.5 0.2 1 0.6 1.4 0.4 0.3 0.8 0.6 1.4 0.6 0.5 0 1-0.2 1.4-0.6 0.3-0.3 0.6-0.9 0.6-1.4C266.1 236.8 265.9 236.3 265.5 235.9z" class="p"/><path d="M257.2 235.5c-0.7 0-1.3 0.6-1.3 1.3 0 0.7 0.6 1.3 1.3 1.3 0.7 0 1.3-0.6 1.3-1.3C258.5 236.1 257.9 235.5 257.2 235.5z" class="p"/><path d="M452.9 190.6c0 0 5.6 21.6 6.5 21.7 1 0.2 6.6-12.5 7.7-12.4 1.1 0.2 3.5 15.7 4.5 15.6 1 0 17-18.9 17-18.9L452.9 190.6z" fill="#416629"/><path d="M463.6 238l24 18c0 0 18.9-24.9 20.8-34.9 1.9-10.1-4.5-26.6-22.4-17.6 -17.9 9-24.5 33.2-24.5 33.2L463.6 238z" class="i"/><path d="M489.1 200.2l-36.7-6.9c-18.6-3.5-30.8-21.4-27.4-40l8-42.7c3.5-18.6 21.4-30.8 40-27.4l36.7 6.9c18.6 3.5 30.8 21.4 27.4 40l-8 42.7C525.6 191.5 507.7 203.7 489.1 200.2z" class="d"/><path d="M494.2 145.1c0 0 1.4-14.8 16-13 14.7 1.9 13.4 15.2 11.8 19S494.2 145.1 494.2 145.1z" class="s"/><circle cx="508.3" cy="147.6" r="14.3" class="t"/><circle cx="508.3" cy="147.6" r="13.3" class="j"/><path d="M467.5 140.1c0 0 4.1-14.3-10.3-17.9 -14.3-3.5-18 9.3-17.9 13.4C439.4 139.7 467.5 140.1 467.5 140.1z" class="s"/><circle cx="453.5" cy="137.3" r="14.3" class="t"/><circle cx="453.5" cy="137.3" r="13.3" class="j"/><path d="M485.1 161.2c-0.4 1.9-4.4 3.5-8.9 2.6 -4.5-0.8-7.7-3.8-7.4-5.7 0.4-1.9 3.4 2 7.9 2.9C481.2 161.9 485.5 159.4 485.1 161.2z" class="v"/><path d="M462.5 92.5c0 0 0.4 15.6 5.1 23.4 4.8 7.8 10.7 11.4 10.7 11.4s-3.4-6.1-4.6-9.6c-1.2-3.5-0.9-9.3-0.9-9.3s4.8 7 12.8 13.9c8.1 6.9 12.8 6.7 12.8 6.7l-3.7-20.7c0 0 5.1 11.2 9.2 14.2s4.8 3.3 4.8 3.3l-2.3-13.9c0 0 12.9 7.7 17.2 19.1s4.3 14.6 4.3 14.6 2.9-5.6 2.7-10.5c-0.2-4.9-0.6-7.2-0.6-7.2s2.9 9.8 2.4 15.9c-0.6 6.1-1.9 11.5-1.9 11.5s2.5-1.9 3.1-2.2c0.5-0.3 5 2.9 5 2.9s18.2-33.1 0.2-59.5C526.7 78.8 506.9 74 506.9 74s0.4-5.4-4.9-8.9 -10.1-2.9-10.1-2.9 9.4 1.5 10.5 6.4c1.1 4.9 1.1 4.9 1.1 4.9s-18.3-19.1-50.8-6.8c-32.4 12.3-37.4 42.2-37.4 42.2s2.7-5.5 4.6-8.7c1.9-3.2 3.1-4 3.1-4s-4.6 8-5 15.3c-0.4 7.3 2.1 17.9 2.1 17.9l9.4-0.3c0 0 6.3-13.6 8.5-17 2.3-3.4 2.9-4 2.9-4s-4.4 7.9-4.8 13c-0.4 5.1 0.2 7.3 0.2 7.3s8.3-23.3 15.5-28.9C459 93.8 462.5 92.5 462.5 92.5z" class="y"/><path d="M515.7 88.5c-0.2-0.1-0.3-0.3-0.5-0.4 0.1 0 0.3 0 0.4 0C515.7 88.2 515.7 88.4 515.7 88.5z" style="fill:#EAA97D;opacity:0.2"/><path d="M521.1 132.4c-0.8-1.3-2.3-2.1-3.6-2.9 -1.4-1-3-1.8-4.5-2.6 -1.5-0.8-3-1.6-4.6-2.3 -1.5-0.6-3.3-1.7-4.9-0.8 -1.1 0.6-1.5 1.6-0.8 2.7 0.9 1.5 2.6 1.6 4.2 2 1.6 0.5 3.2 0.9 4.7 1.5 1.5 0.5 3 1.2 4.5 1.8 1.4 0.6 2.8 1.6 4.4 1.8C521 133.6 521.5 132.9 521.1 132.4z" class="y"/><path d="M445.3 118.8c1.2-0.9 2.9-1.1 4.4-1.5 1.7-0.4 3.4-0.7 5.1-1 1.7-0.3 3.4-0.5 5.1-0.6 1.6-0.1 3.7-0.4 4.9 0.9 0.8 0.9 0.8 2-0.1 2.8 -1.3 1.1-3 0.6-4.6 0.5 -1.6-0.1-3.3-0.2-4.9-0.2 -1.6 0-3.2 0.1-4.8 0.2 -1.5 0.1-3.2 0.5-4.7 0.2C445 120 444.8 119.2 445.3 118.8z" class="y"/><circle cx="504" cy="149.1" r="8.8" class="s"/><path d="M504.9 151c3 0.4 5.8-1.2 7-3.6 -0.8-3.2-3.4-5.8-6.9-6.2 -2.2-0.3-4.3 0.3-5.9 1.5 -0.1 0.3-0.1 0.6-0.2 0.9C498.5 147.2 501.1 150.5 504.9 151z" class="u"/><circle cx="509.6" cy="147.9" r="2.7" class="j"/><circle cx="499.4" cy="153.9" r="1" class="j"/><circle cx="449.3" cy="138.4" r="8.8" class="s"/><path d="M450.2 140.3c3 0.4 5.8-1.2 7-3.6 -0.7-3.2-3.4-5.8-6.9-6.2 -2.2-0.3-4.3 0.3-5.9 1.5 -0.1 0.3-0.1 0.6-0.2 0.9C443.8 136.5 446.5 139.8 450.2 140.3z" class="u"/><circle cx="454.4" cy="137.5" r="2.7" class="j"/><circle cx="444.3" cy="143.4" r="1" class="j"/><path d="M459.1 166.1c0 0 8.1 6.7 16.3 6.6 8.1-0.1 16.4-7.1 17.3-6.8 0.9 0.3-6.8 23.1-15.4 25 -8.6 1.9-10.2-3.3-14-13 -3.8-9.7-6.5-11-6.1-12C457.5 165 459.1 166.1 459.1 166.1z" class="w"/><path d="M461.7 168.5c0 0 6.5 5.4 13.2 4.8 6.7-0.5 10.4-2.7 11.4-3.3 1-0.6 4.6-2.9 4.6-2.9s-5.8 10.2-15 10.3C466.7 177.6 461.7 168.5 461.7 168.5z" class="x"/><path d="M482.1 186.4c0 0-6.3-2.9-9.7-2.5s-4.6 2.5-4.6 2.5 2.1 4.9 7 4.2c4.9-0.7 7.3-3.6 7.3-3.6l0.5-0.4L482.1 186.4z" class="p"/><path d="M192.1 352.9c0 0-2.3 1.3-2.5 5.8 -0.2 4.6-0.3 6.3 12.7 14.1 13 7.7 45.3 23 45.3 23l0.9-14.3L192.1 352.9z" fill="#666"/><path d="M273.6 375.2c0 0 1.6-0.7 1.1 6s-2.9 10.1-11.4 11.7c-8.5 1.6-14.2 3.7-15.7 2.7 -1.5-1-2.2-13.5-0.6-13.9C248.5 381.4 273.6 375.2 273.6 375.2z" fill="#969696"/></svg>