<svg version="1.1" id="Layer_8" xmlns="http://www.w3.org/2000/svg" xmlns:xlink="http://www.w3.org/1999/xlink" x="0px" y="0px"
	 viewBox="0 0 768 430" enable-background="new 0 0 768 430" xml:space="preserve">
<g>
	<path fill="#8C2F13" d="M479.68,161.165c-4.613,10.744-14.779,18.452-25.806,22.805c-0.493,0.199-1,0.388-1.517,0.588
		c-11.003,4.165-27.57,8.566-38.95,7.602c-2.813-0.236-5.474-1.318-8.072-2.378c-11.427-4.683-23.417-12.602-31.137-23.029
		c-3.424-4.612-6.012-9.73-7.332-15.262c-2.6-10.861-0.14-22.793,6.579-31.795c0.459-0.611,0.931-1.212,1.413-1.789
		c8.12-9.685,20.404-15.215,32.43-19.71c8.014-3,16.345-5.753,24.912-5.613c16.462,0.259,31.089,11.32,40.195,24.794
		c0.73,1.083,1.438,2.189,2.108,3.331C481.811,133.017,485.271,148.162,479.68,161.165z"/>
	<path fill="#7C321E" d="M456.98,207.845c-3.353,13.544-7.812,35.737-22.769,41.586c-4.812,1.883-9.814,3.399-14.991,2.706
		c-3.565-0.482-4.944-1.976-8.802-1.129c-8.167,1.776-13.485,9.683-22.677,7.93c-5.742-1.094-10.954-8.437-15.885-11.426
		c-3.79-2.307-8.496-2.753-11.557-6.284c-2.248-2.576-3.153-7.624-4.917-10.672c-4.614-7.943-14.052-12.791-17.17-21.569
		c-2.153-6.097-3.8-17.251,0.036-22.676c2.587-3.672,6.777-6.613,11.189-9.014c3.261-1.775,6.637-3.259,9.58-4.542
		c2.376-1.024,4.789-1.978,7.201-2.918c5.037-1.942,10.098-3.8,14.992-6.084c4.906-2.295,7.037-3.836,12.296-3.706
		c11.145,0.271,26.512,3.399,39.433,9.625C449.062,177.438,461.395,190.018,456.98,207.845z"/>
	<path fill="#7C321E" d="M474.504,120.709c-0.365,3.166-1.061,6.33-1.884,9.391c-1.411,5.212-3.213,10.425-6.509,14.686
		c-2.669,3.424-6.2,6.083-9.883,8.388c-10.697,6.708-23.052,10.674-35.632,11.651c-6.872,0.53-13.815,0.176-20.593-1.13
		c-3.705-0.719-7.391-1.706-10.813-3.271c-0.742-0.33-1.471-0.695-2.177-1.083c-7.367-4.036-12.827-11.015-16.145-18.722
		c-2.895-6.742-0.459-15.215,3.989-22.711c8.12-9.685,20.404-15.215,32.43-19.71c8.014-3,16.345-5.753,24.912-5.613
		c16.462,0.259,31.089,11.32,40.195,24.794C473.126,118.461,473.833,119.568,474.504,120.709z"/>
	<path fill="#2E3234" d="M368.971,172.616c0.311-11.644-3.064-23.366-5.421-34.678c-1.276-6.126-2.56-12.236-3.724-18.385
		c-1.299-6.847-1.588-14.276-6.16-19.746c-5.361-6.418-17.825-1.365-17.035,7.056c1.353,14.469,5.436,28.933,10.991,42.319
		c2.64,6.362,10.334,27.729,20.135,25.03C368.473,174.015,368.952,173.346,368.971,172.616L368.971,172.616z"/>
	<path fill="#2E3234" d="M348.811,179.756c0.312-9.945-2.273-20.243-4.514-29.887c-2.219-9.541-5.021-19.062-9.577-27.761
		c-4.965-9.477-21.747-2.836-17.623,7.431c6.946,17.29,10.372,37.525,20.696,53.201C341.006,187.62,348.624,185.76,348.811,179.756
		L348.811,179.756z"/>
	<path fill="#2E3234" d="M340.795,191.155c-1.934-4.335-5.947-7.875-9.055-11.481c-3.503-4.061-7.5-7.657-11.667-11.021
		c-7.625-6.156-15.231-13.998-25.69-12.458c-7.694,1.132-8.615,13.102-2.148,16.431c7.585,3.906,14.307,9.125,21.771,13.29
		c3.905,2.178,7.854,4.097,12.023,5.724c4.014,1.567,7.828,3.681,12.145,4.082C340.708,195.954,341.629,193.026,340.795,191.155
		L340.795,191.155z"/>
	<path fill="#7C321E" d="M417.726,198.726c-11.272,6.225-25.312,10.025-36.89,4.376c-4.58-2.235-8.391-5.778-11.839-9.53
		c-2.083-2.272-4.106-4.696-5.248-7.555c-2.107-5.307-0.789-11.426,2.47-16.181c5.037-1.942,10.098-3.8,14.992-6.084
		c4.906-2.295,7.037-3.836,12.296-3.706c11.145,0.271,26.512,3.399,39.433,9.625C437.365,179.604,427.915,193.088,417.726,198.726z"
		/>
	<path fill="#2E3234" d="M436.269,255.007c5.787-8.398,6.66-19.705,8.118-29.566c1.574-10.646,2.818-21.776,2.718-32.54
		c-0.108-11.475-16.211-10.898-17.43,0c-1.203,10.752-1.375,21.875-1.403,32.691c-0.026,9.809-0.841,20.229,3.043,29.415
		C432.229,257.169,435.197,256.562,436.269,255.007L436.269,255.007z"/>
	<path fill="#27333B" d="M331.401,223.467c-9.473-3.82-19.241-7.833-26.359-15.159c-3.621-3.727-6.516-8.466-6.796-13.656
		c-0.28-5.188,2.62-10.744,7.551-12.385c4.266-1.418,9.021,0.282,12.615,2.983c3.594,2.701,6.368,6.323,9.571,9.478
		c5.283,5.205,11.698,9.107,17.313,13.951c8.567,7.394,17.176,25.563-2.753,19.977C338.636,227.559,335.157,224.98,331.401,223.467z
		"/>
	<path fill="#414B51" d="M540.42,295.804c-0.062,3.386-0.791,6.336-0.252,9.778c0.597,3.823,2.016,7.384,3.695,10.847
		c3.558,7.34,8.805,12.758,17.139,13.739c8.739,1.029,12.123-12.83,4.482-16.549c-4.592-2.234-7.577-4.858-11.065-8.621
		c-3.18-3.429-7.401-6.556-10.196-10.225C543.056,293.242,540.459,293.614,540.42,295.804L540.42,295.804z"/>
	<path fill="#414B51" d="M520.336,253.1c-3.849,6.421-1.804,15.465,0.168,22.185c2.403,8.184,6.663,18.75,14.255,23.252
		c7.432,4.408,16.448-2.865,14.343-11.024c-1.862-7.218-8.635-13.895-13.053-19.851c-3.84-5.178-7.339-12.085-13.223-15.214
		C521.952,251.982,520.858,252.229,520.336,253.1L520.336,253.1z"/>
	<g>
		<g>
			<path fill="#414B51" d="M468.055,175.142c0.605,0,0.605-0.938,0-0.938S467.449,175.142,468.055,175.142L468.055,175.142z"/>
		</g>
	</g>
	<path fill="#2E3234" d="M459.395,223.436c5.312-6.374,9.059-13.667,12.308-21.265c3.096-7.239,8.371-16.596,7.82-24.566
		c-0.541-7.826-8.767-10.713-14.595-6.046c-6.162,4.934-9.297,15.731-11.653,23.043c-2.558,7.931-4.222,16.582-3.328,24.92
		C450.398,223.738,455.995,227.516,459.395,223.436L459.395,223.436z"/>
	<path fill="#414B51" d="M468.43,174.731c0.288,4.014-0.246,7.26,0.812,11.321c1.063,4.077,2.607,8.131,4.213,12.021
		c3.245,7.851,7.241,15.333,11.451,22.701c4.149,7.264,8.755,14.402,13.653,21.179c5.228,7.23,10.135,15.275,17.303,20.682
		c6.794,5.12,16.632-3.359,14.181-10.902c-2.593-7.977-8.328-14.938-12.776-21.981c-4.479-7.088-9.204-14.101-14.03-20.958
		c-4.684-6.65-9.323-13.309-14.382-19.683c-2.625-3.308-5.429-6.591-8.42-9.575c-2.918-2.914-5.99-4.122-9.184-6.422
		C470.124,172.298,468.332,173.381,468.43,174.731L468.43,174.731z"/>
	<g>
		<g>
			<path fill="#414B51" d="M456.876,220.641c1.613,0,1.613-2.502,0-2.502S455.263,220.641,456.876,220.641L456.876,220.641z"/>
		</g>
	</g>
	<path fill="#2E3234" d="M461.453,173.639c5.427-2.012,8.439-9.039,10.941-13.824c3.576-6.841,6.305-14.06,9.015-21.281
		c5.374-14.309,11.471-29.932,12.498-45.249c0.64-9.512-10.631-13.471-15.782-5.204c-8.101,12.995-12.165,29.376-15.724,44.189
		c-1.718,7.147-3.427,14.346-4.209,21.668c-0.608,5.696-2.248,14.186,1.467,19.121C460.068,173.604,460.793,173.883,461.453,173.639
		L461.453,173.639z"/>
	<path fill="#2E3234" d="M454.586,184.571c4.202-1,7.819-4.243,11.271-6.688c4.357-3.09,8.54-6.395,12.853-9.547
		c4.342-3.173,8.693-6.346,13.109-9.415c4.85-3.372,10.442-6.295,13.206-11.728c2.745-5.399-0.479-14.25-7.715-13.446
		c-12.103,1.349-22.939,13.4-31.291,21.651c-4.405,4.352-8.455,8.853-12.222,13.776c-2.74,3.583-5.585,8.06-3.979,12.689
		C450.522,183.896,452.434,185.084,454.586,184.571L454.586,184.571z"/>
	<path fill="#414B51" d="M180.409,325.908c14.463,5.765,41.77-29.061,25.752-34.354
		C194.802,287.804,169.929,321.732,180.409,325.908L180.409,325.908z"/>
	<path fill="#414B51" d="M239.958,248.498c-7.803,1.745-14.437,11.936-19.628,17.477c-6.574,7.017-14.865,13.713-19.994,21.859
		c-5.458,8.668,6.556,16.989,13.688,10.561c6.992-6.304,12.092-16.154,17.224-23.996c4.187-6.398,12.273-15.604,11.643-23.667
		C242.771,249.19,241.511,248.149,239.958,248.498L239.958,248.498z"/>
	<path fill="#414B51" d="M305.571,182.016c-7.37,1.355-13.762,8.74-19.262,13.433c-6.587,5.622-12.819,11.645-19.182,17.516
		c-6.107,5.638-12.388,11.104-18.709,16.5c-6.742,5.753-14.507,10.918-20.295,17.663c-7.286,8.489,1.678,19.815,11.698,15.159
		c8.216-3.816,15.304-10.511,22.094-16.397c6.807-5.902,13.271-12.127,19.515-18.622c6.283-6.54,12.209-13.422,17.426-20.851
		c4.224-6.015,10.542-13.96,10.276-21.688C309.066,182.783,307.396,181.68,305.571,182.016L305.571,182.016z"/>
	<path fill="#414B51" d="M472.354,335.678c-5.938,3.393-7.111,12.067-7.506,18.267c-0.479,7.536-0.147,17.942,4.12,24.3
		c5.897,8.785,18.831,7.275,22.18-2.899c2.697-8.205-0.449-20.361-3.934-28.135C485.042,342.365,479.321,331.695,472.354,335.678
		L472.354,335.678z"/>
	<path fill="#414B51" d="M460.031,290.22c-10.019,5.315-6.164,19.608-3.626,27.986c1.383,4.569,3.035,9.052,4.214,13.677
		c1.477,5.795,3.647,10.274,9.637,12.475c10.184,3.741,19.797-11.937,10.943-18.8c-0.056-0.046-0.114-0.09-0.172-0.136
		c-4.709-3.651-10.958-4.647-15.602,0c-0.044,0.046-0.089,0.09-0.134,0.136c5.889,4.542,11.779,9.087,17.667,13.631
		c4.712-9.013-1.341-21.503-4.909-29.945c-2.166-5.128-4.327-10.276-8.077-14.497C467.688,292.18,463.738,288.252,460.031,290.22
		L460.031,290.22z"/>
	<path fill="#414B51" d="M438.872,189.536c-4.981,16.47-2.351,34.958,0.013,51.733c1.254,8.908,3.163,17.712,5.326,26.446
		c2.187,8.841,4.354,18.275,8.31,26.491c2.553,5.306,9.896,7.117,14.947,4.898c5.822-2.562,7.923-8.055,6.93-14.12
		c-1.355-8.29-4.753-16.723-7.211-24.768c-2.515-8.228-4.838-16.503-7.464-24.693c-4.986-15.548-9.2-32.653-18.328-46.317
		C440.738,188.225,439.229,188.363,438.872,189.536L438.872,189.536z"/>
	<path fill="#2E3234" d="M262.438,148.704c10.554,2.997,24.198-1.736,34.467-4.438c11.355-2.987,24.604-4.772,34.599-11.197
		c6.429-4.132,3.901-14.188-3.897-14.391c-11.917-0.311-24.159,5.009-35.453,8.355c-10.114,2.997-24.316,6.027-31.74,14.005
		C258.072,143.554,259.034,147.739,262.438,148.704L262.438,148.704z"/>
	<path fill="#2E3234" d="M251.437,176.042c-5.197-0.746-10.777,1.505-15.793,2.737c-6.407,1.572-13.045,3.088-19.221,5.417
		c-10.168,3.835-5.452,20.383,4.487,16.277c6.563-2.714,12.574-6.417,18.263-10.675c4.424-3.312,10.529-7.422,12.725-12.622
		C252.066,176.779,251.987,176.121,251.437,176.042L251.437,176.042z"/>
	<path fill="#2E3234" d="M269.197,142.225c-7.175-2.051-12.142,5.812-15.751,10.734c-5.892,8.035-11.526,17.025-15.159,26.317
		c-3.7,9.469,10.922,14.816,15.929,6.716c4.496-7.271,7.631-15.699,11-23.545c2.711-6.316,4.546-12.133,4.953-18.946
		C270.203,142.922,269.732,142.378,269.197,142.225L269.197,142.225z"/>
	<path fill="#414B51" d="M189.316,234.834c-6.223,2.312-11.876,5.517-17.566,8.898c-5.993,3.562-12.294,6.8-17.714,11.198
		c-8.365,6.787,2.29,18.808,11.029,14.295c6.022-3.111,11.481-8.259,16.475-12.806c4.921-4.481,9.401-9.292,12.806-15.044
		C196.199,238.241,193.068,233.44,189.316,234.834L189.316,234.834z"/>
	<path fill="#414B51" d="M222.052,201.449c-6.294-1.394-13.333,7.468-17.394,11.21c-6.808,6.276-14.02,12.172-20.226,19.059
		c-7.802,8.659,4.522,21.214,12.872,12.872c7.535-7.529,13.508-16.569,19.423-25.385
		C217.787,217.627,228.18,202.808,222.052,201.449L222.052,201.449z"/>
	<path fill="#414B51" d="M297.075,156.368c-6.425,0.244-12.863,3.588-18.525,6.456c-6.461,3.274-12.748,6.939-19.031,10.538
		c-6.293,3.604-12.615,7.16-18.962,10.667c-6.572,3.631-13.918,6.802-19.876,11.374c-3.18,2.44-4.918,5.958-3.251,9.92
		c1.395,3.31,5.687,6.069,9.371,4.598c13.803-5.514,26.608-15.394,39.051-23.458c6.103-3.955,12.12-8.028,17.967-12.356
		c5.437-4.025,11.819-8.729,14.876-14.915C299.292,157.98,298.585,156.311,297.075,156.368L297.075,156.368z"/>
	<path fill="#2E3234" d="M549.899,96.744c-4.747,3.87-5.191,12.917-6.064,18.58c-1.278,8.296-1.381,17.061-0.638,25.415
		c0.734,8.285,2.102,16.424,4.054,24.508c1.953,8.092,3.978,17.156,9.838,23.331c5.009,5.279,12.133-0.559,12.291-6.266
		c0.204-7.212-3.755-14.99-5.666-21.892c-2.008-7.258-3.652-14.621-4.873-22.051c-1.224-7.477-2.201-14.973-3.294-22.467
		c-0.814-5.588-0.044-14.278-3.729-18.803C551.377,96.56,550.516,96.242,549.899,96.744L549.899,96.744z"/>
	<path fill="#2E3234" d="M482.578,86.667c6.275,9.581,19.356,14.792,29.757,18.33c5.519,1.878,11.069,3.533,16.758,4.812
		c6.238,1.402,13.671,3.849,20.026,2.744c7.946-1.381,10.563-11.765,2.938-15.791c-5.286-2.792-11.87-2.965-17.679-4.162
		c-5.582-1.148-11.166-2.427-16.674-3.885c-10.372-2.746-21.732-7.973-32.588-7.409C482.471,81.441,481.208,84.575,482.578,86.667
		L482.578,86.667z"/>
	<path fill="#2E3234" d="M430.647,98.081c-0.62,0.216-1.209,0.51-1.829,0.722c0.57,0.151,1.139,0.301,1.708,0.451
		c-1.913-1.702-4.498,0.13-5.992,1.515c-1.7,1.573-3.302,3.937-3.532,6.285c-0.465,4.698,3.949,7.221,8.157,6.313
		c2.689-0.58,5.366-2.224,7.122-4.336c2.114-2.544,2.899-6.819,0-9.268c-2.023-1.71-4.231-3.038-6.88-3.487
		c-0.976-0.167-2.036-0.333-3.046-0.302c-0.856,0.026-1.724,0.352-2.572,0.32c1.517-0.232,1.551-0.246,0.104-0.042
		c-0.484,0.008-0.953,0.091-1.408,0.246c-1.377,0.431-2.724,1.166-3.729,2.21c-3.539,3.683-3.539,9.67,0.278,13.197
		c1.882,1.736,4.26,2.79,6.852,2.818c2.5,0.029,4.144-0.71,6.396-1.693c1.767-0.771,3.544-3.328,3.96-5.149
		c0.521-2.289,0.291-4.561-0.871-6.639c-1.988-3.562-6.581-5.606-10.556-4.388c-4.047,1.239-6.734,4.713-6.804,8.965
		c-0.059,3.557,2.648,7.33,6.196,8.138c3.52,0.801,7.778-0.476,9.53-3.879c0.042-0.079,0.083-0.161,0.126-0.242
		c-1.02,1.017-2.036,2.034-3.051,3.051c-3.681,0.51-4.769,0.831-3.269,0.962c-1.452-0.392-2.907-0.787-4.36-1.179
		c0.082,0.042,0.163,0.086,0.244,0.128c-1.032-1.031-2.062-2.063-3.095-3.095c0.053,0.079,0.106,0.159,0.16,0.237
		c1.029-3.931,2.061-7.859,3.09-11.79c-2.812,1.382-0.471,1.821,7.019,1.312c0.726,1.243,1.449,2.487,2.175,3.731
		c-0.313-0.847-0.31-0.464,0.007,1.149c-0.37,1.368-0.739,2.736-1.112,4.106c-0.652,0.63-1.306,1.263-1.96,1.895
		c-0.273,0.107-0.55,0.215-0.823,0.322c0.021-0.038,1.813-0.692,0.621-0.212c-1.007,0.404,0.7,0.08-0.256,0.017
		c-0.953-0.064,0.486,0.187,0.656,0.246c-1.524-2.687-3.051-5.375-4.577-8.063c-0.361,1.103,0.438-0.503-0.024,0.049
		c-0.247,0.295-0.872,0.884-0.057,0.176c-0.054,0.047-0.69,0.695-0.699,0.684c-0.181-0.247,1.541-0.614,1.488-0.616
		c0.854,0.23,1.706,0.461,2.558,0.691c1.151,2.666,1.65,3.293,1.495,1.883c-0.006-0.323,0.004-0.645,0.031-0.968
		c0.058-0.409,0.238-0.964,0.396-1.399c0.41-1.127,1.006-2.393,0.284-3.544c0,0.59,0,1.181,0,1.771
		c0.265-0.304,0.567-0.563,0.909-0.778C432.891,99.763,432.232,97.532,430.647,98.081L430.647,98.081z"/>
	<path fill="#2E3234" d="M414.464,126.399c-8.768-7.04-22.08,2.761-15.91,13.026c5.956,9.905,25.199,10.368,31.323,0.381
		c8.694-14.179-13.286-26.131-24.591-18.932c-7.111,4.528-8.198,14.456-2.496,20.569c4.803,5.148,14.379,7.528,20.648,3.75
		c7.375-4.445,7.685-16.308,0.052-20.732c-3.718-2.155-8.449-2.196-12.213-0.128c-4.823,2.65-6.606,7.488-5.565,12.7
		c1.347,6.716,10.542,8.564,15.028,3.966c0.975-0.997,1.781-2.142,2.624-3.251c-1.126,1.127-2.253,2.253-3.379,3.38
		c-1.24,0.156-2.481,0.314-3.721,0.471c-1.38-0.803-2.76-1.608-4.137-2.411c-0.372-2.327-0.742-4.655-1.112-6.982
		c1.114-1.114,2.229-2.228,3.344-3.343c1.312-0.135,1.655-0.333,1.027-0.596c-2.322-1.355-2.39,1.032-0.198,7.164
		c0.035,0.041-0.373,0.07,0.483,0.51c1.076,0.75,1.34,0.847,0.792,0.288c-1.234-1.254-1.059-2.907,0.526-4.96
		c-0.953,0.005-2.599,1.041-3.646,1.204c-0.944,0.145-4.335,0.511-5.148-0.485c-1.387-1.696,4.641-2.774,5.587-3.007
		C414.83,128.724,415.38,127.134,414.464,126.399L414.464,126.399z"/>
	<path fill="#D35015" d="M388.142,121.076c6.832-2.855,14.3-4.724,21.673-5.419c3.004-0.283,2.48-4.561-0.557-4.117
		c-7.985,1.165-14.906,3.834-21.671,8.226C386.947,120.18,387.353,121.405,388.142,121.076L388.142,121.076z"/>
	<path fill="#D35015" d="M429.781,119.672c1.044,1.878,2.928,3.396,4.522,4.797c1.841,1.617,3.623,3.295,5.365,5.015
		c3.847,3.798,9.056-3.313,4.413-5.717c-3.931-2.037-9.062-5.368-13.636-5.258C429.857,118.524,429.492,119.154,429.781,119.672
		L429.781,119.672z"/>
	<path fill="#D35015" d="M440.47,112.618c-0.097,0.18-0.191,0.359-0.287,0.539c-1.046,1.973,0.244,4.483,2.572,4.483
		c2.329,0,3.616-2.51,2.571-4.483c-0.095-0.179-0.189-0.358-0.285-0.539C444.127,110.894,441.383,110.894,440.47,112.618
		L440.47,112.618z"/>
	<path fill="#D35015" d="M406.988,102.429c-0.099,0.097-0.195,0.195-0.294,0.292c0.351-0.145,0.701-0.29,1.053-0.437
		c-0.098-0.011-0.196-0.024-0.295-0.035c-0.704-0.088-1.41,0.518-1.662,1.119c-0.282,0.667-0.146,1.467,0.376,1.989
		c0.448,0.448,1.16,0.635,1.771,0.468c0.691-0.19,1.434-0.977,1.338-1.756c-0.015-0.098-0.025-0.195-0.038-0.293
		c-0.145,0.35-0.291,0.702-0.437,1.052c0.1-0.098,0.197-0.196,0.294-0.293C410.451,103.176,408.346,101.07,406.988,102.429
		L406.988,102.429z"/>
	<path fill="#D35015" d="M391.825,131.916c-0.43,0.329-0.857,0.658-1.288,0.987c-0.57,0.436-1.046,0.986-1.012,1.763
		c0.024,0.541,0.208,1.052,0.598,1.443c0.371,0.37,0.921,0.598,1.444,0.598c0.789,0,1.309-0.42,1.762-1.012
		c0.328-0.43,0.658-0.858,0.986-1.288c0.482-0.629,0.235-1.686-0.284-2.206C393.51,131.679,392.456,131.434,391.825,131.916
		L391.825,131.916z"/>
	<path fill="#D35015" d="M434.453,138.798c-0.16,0.99-0.321,1.98-0.481,2.971c-0.193,1.192-0.193,2.275,0.439,3.357
		c0.528,0.904,1.565,1.768,2.603,2.004c2.237,0.508,4.796-0.673,5.361-3.045c0.231-0.97,0.462-1.941,0.693-2.912
		c0.275-1.151,0.157-2.407-0.449-3.443c-0.543-0.927-1.606-1.811-2.669-2.053c-1.146-0.261-2.429-0.204-3.444,0.45
		C435.589,136.718,434.635,137.672,434.453,138.798L434.453,138.798z"/>
	<path fill="#2E3234" d="M412.448,152.739c-0.202-0.165-0.402-0.342-0.613-0.497c-0.067-0.055-0.136-0.11-0.204-0.166
		c0.382,0.531,0.502,0.66,0.354,0.385c-0.03-0.062-0.062-0.123-0.093-0.184c-0.202-0.418-0.479-0.788-0.833-1.111
		c-0.452-0.416-0.99-0.798-1.512-1.127c-3.212-2.023-7.394,0.297-7.874,3.868c-0.515,3.84,2.951,6.607,6.609,5.811
		c0.993-0.217,2.278-0.729,2.91-1.567c0.045-0.042,0.089-0.085,0.133-0.127c-0.402,0.245-0.807,0.487-1.211,0.732
		c0.199,0.003,0.634-0.222,0.821-0.287c1.149-0.402,2.061-1.181,2.395-2.394C413.629,154.99,413.37,153.486,412.448,152.739
		L412.448,152.739z"/>
	<path fill="#414B51" d="M574.481,183.145c1.428,10.62,16.292,19.823,26.128,18.482c6.762-0.922,6.766-10.686,1.791-13.711
		c-4.106-2.497-9.686-2.592-14.337-3.713c-4.025-0.969-8.022-2.713-12.198-2.875C574.831,181.29,574.364,182.273,574.481,183.145
		L574.481,183.145z"/>
	<path fill="#414B51" d="M554.652,149.072c-0.459,7.052,2.538,15.582,5.068,22.067c2.6,6.674,7.857,17.204,14.694,20.185
		c5.594,2.438,14.03-1.695,11.507-8.846c-1.572-4.451-4.359-6.852-7.387-10.31c-2.717-3.102-5.275-6.467-7.734-9.778
		c-3.744-5.037-7.496-13.617-14.402-14.646C555.479,147.606,554.717,148.098,554.652,149.072L554.652,149.072z"/>
	<path fill="#414B51" d="M496.747,136.818c6.457,7.875,17.2,12.326,26.504,15.868c4.843,1.844,9.868,3.429,14.836,4.913
		c5.567,1.663,11.785,3.869,17.63,3.561c8.261-0.433,12.625-12.133,4.454-16.444c-5.261-2.777-11.413-3.597-17.207-4.805
		c-5.102-1.062-10.181-2.247-15.282-3.297c-9.587-1.972-20.476-4.473-30.205-2.559C496.143,134.317,496.028,135.942,496.747,136.818
		L496.747,136.818z"/>
	<path fill="#020202" d="M434.546,273.372c29.776-45.208,0.889-98.395-50.7-106.695c-79.86-12.85-123.48,100.232-39.353,128.254
		C375.57,305.282,415.609,302.121,434.546,273.372z"/>
	<g>
		<path fill="#FFFFFF" d="M438.703,241.423c9.849-18.894-6.754-40.461-26.297-43.034c-22.5-2.965-37.431,26.65-27.008,44.793
			c7.879,13.709,24.096,19.222,38.39,12.02C431.148,251.49,435.964,246.679,438.703,241.423z"/>
		<path d="M400.882,215.787c-15.864,1.073-20.906,21.179-7.325,29.57c12.079,7.462,28.459-4.206,23.191-18.065
			C414.104,220.334,408.806,215.25,400.882,215.787z"/>
		<path fill="#FFFFFF" d="M395.561,228.442c-4.56-2.64-10.394,2.44-8.114,7.362c1.823,3.94,6.998,5.502,9.454,1.813
			C398.945,234.544,399.106,230.496,395.561,228.442z"/>
	</g>
	<g>
		<path fill="#FFFFFF" d="M363.461,238.324c9.841-18.881-6.75-40.434-26.281-43.007c-22.485-2.961-37.407,26.636-26.989,44.765
			c7.873,13.7,24.079,19.209,38.363,12.011C355.911,248.386,360.723,243.578,363.461,238.324z"/>
		<path d="M325.663,212.705c-15.854,1.071-20.893,21.165-7.32,29.55c12.071,7.457,28.44-4.202,23.175-18.054
			C338.877,217.249,333.582,212.169,325.663,212.705z"/>
		<path fill="#FFFFFF" d="M320.346,225.353c-4.557-2.639-10.388,2.438-8.11,7.357c1.822,3.938,6.995,5.499,9.449,1.812
			C323.728,231.449,323.888,227.405,320.346,225.353z"/>
	</g>
</g>
<path fill="#414B51" d="M369.052,308.688c1.021-6.953,2.017-13.873,2.756-20.865c0.869-8.185,2.861-16.214,1.668-24.414
	c-1.211-8.331-13.185-8.448-16.894-2.208c-7.905,13.301-4.124,33.005-2.005,47.487C355.63,315.887,367.996,315.883,369.052,308.688
	L369.052,308.688z"/>
</svg>
