<svg version="1.1" xmlns="http://www.w3.org/2000/svg" xmlns:xlink="http://www.w3.org/1999/xlink" viewBox="0 0 768 430" style="enable-background:new 0 0 768 430;" xml:space="preserve"><g id="spider"> <path style="fill:#DDE4D0;" d="M461.589,254.604c-0.431-2.141-1.565-5.455-1.616-6.947c-7.139-11.594-15.478-23.996-23.059-33.289  c-12.14-14.852-24.213-25.947-27.646-28.471c-0.066-0.217-0.133-0.432-0.206-0.641c9.879-1.4,15.809-4.643,22.159-5.363  c5.358-0.418,16.648-1.949,16.669-2.795c0.768-0.637,1.294-1.295,2.285-2.104c2.122-1.518,2.14-3.418,0.973-2.436  c-6.122,6.826-14.408,3.625-22.925,5.387c-5.26,2.146-14.697,4.463-19.544,6.309c-0.611-1.385-1.415-2.6-2.36-3.564  c3.998-1.664,7.318-5.385,9.358-10.235c6.344-8.659,8.95-17.274,12.158-25.109c4.229-10.365,9.117-21.049,10.516-26.083  c0.066-6.111-3.561-13.794-4.976-19.825c-0.623-2.135-5.408-18.519-5.949-18.647c-0.7,0.152,1.035,8.741,3.69,19.442  c1.864,7.512,3.08,14.163,4.284,17.286c-2.364,3.977-2.831,8.243-7.922,19.236c-3.747,8.081-8.295,21.424-10.572,28.06  c0.011-0.312,0.129-5.125,0.129-5.438c0-12.277-6.471-20.544-15.488-20.544c-6.481,0-12.059,3.526-14.696,10.978  c-3.263-12.92-5.712-28.589-8.62-41.372c0.238-3.442-1.078-9.888-1.436-17.364c-0.519-11.013-1.208-19.905-1.923-19.852v0.006  c-0.715,0.052-0.291,11.096,0.23,22.107c0.383,8.027-0.126,14.929,0.463,18.058c2.932,14.679,4.495,19.203,9.437,42.343  c-0.294,1.678,0.206,3.896,0.206,5.695c0,9.566,4.444,17.717,10.67,20.85c-0.946,0.857-1.737,1.967-2.383,3.232  c-2.158-1.469-5.577-3.504-9.543-5.67c-8.867-5.359-18.981-8.486-27.11-10.464c-5.763-1.273-14.929-3.137-17.619-3.26  c-0.263-0.012-0.409,0.05-0.44,0.129c0.035,0.293,7.963,2.471,17.289,5.437c9.483,2.299,19.504,6.088,26.881,10.055  c3.994,2.184,7.589,3.963,9.975,4.975c-0.191,0.488-0.347,0.99-0.486,1.514c-2.719,0.555-9.863,5.973-15.875,14.467  c-6.018,8.494-12.766,14.199-13.466,16.184c-2.562,2.922-5.518,7.836-9.232,12.951c-4.863,5.797-8.197,13.334-12.518,19.182  c-4.968,6.721-8.584,12.506-8.076,12.955c0.501,0.449,4.93-4.623,9.896-11.334c4.149-6.357,9.263-13.002,13.259-18.492  c5.375-7.393,10.166-13.324,11.467-16.211c5.857-6.262,8.422-11.363,12.723-16.494c1.031-2.432,8.316-8.012,11.461-11.309  c-0.115,0.725-0.184,1.184-0.205,1.949c-3.75,5.537-12.82,20.785-19.411,36.473c-4.192,9.83-2.813,7.248-6.181,18.438  c-5.058,15.227-5.013,13.5-8.568,26.342c-2.917,16.834-8.074,35.959-7.646,36.65c0.427,0.689,6.253-15.633,10.721-35.418  c4.103-9.514,5.581-19.996,8.549-28.258c1.787-4.754,4.984-9.891,6.608-14.781c5.289-15.896,12.347-30.402,16.314-36.09  c0.334,3.076,1.188,4.752,2.873,6.645c-1.257,0.951-3.301,2.211-3.024,3.256c1.046,1.725,2.642,3.887,4.437,4.133  c0.36-0.021,0.872-0.021,1.207-0.029c1.222-0.109,2.103-0.438,1.944-0.715c-0.155-0.279-1.285-0.418-2.513-0.309  c-0.315,0.029-0.61,0.074-0.869,0.125c-1.002-1.314-1.938-2.371-3.027-3.535c1.142-0.867,2.015-1.555,2.998-1.85  c1.356,1.105,2.926,1.746,4.618,1.746c1.64,0,3.161-0.604,4.488-1.643c0.438,0.324,0.928,0.652,1.513,0.975  c0.778,0.428,1.521,0.744,2.13,0.947c-0.435,1.26-1.537,2.445-2.693,3.797c-1.135-0.15-2.428,0.057-3.359,0.49  c-0.133,0.287,0.771,0.537,2.001,0.537c0.945,0.016,1.793-0.129,2.463-0.641c1.278-1.148,2.06-2.65,3.051-4.051  c-0.309-1.156-1.762-1.896-2.821-2.49c-0.406-0.225-0.808-0.398-1.18-0.566c1.636-1.75,2.807-4.258,3.258-7.129  c1.528,3.516,5.276,11.17,10.156,20.904c3.964,7.908,5.493,16.301,10.315,21.584c0.868,4.758,1.074,9.811,4.61,18.99  c3.948,12.58,5.217,18.115,3.168,35.346c-2.946,8.061-9.524,15.275-9.474,15.617c0.178,1.24,11.827-10.807,12.163-17.912  c3.071-21.809-0.712-23.635-2.804-33.658c-1.439-10.383-5.286-20.998-5.757-21.309c0,0-12.365-27.447-22.225-40.637  c-0.004-0.004,0.003-0.021,0-0.025c0.039-0.48,0.05-0.971,0.05-1.463c0-1.064-0.116-2.094-0.309-3.078  c3.33,4.451,12.647,15.598,23.677,29.086c12.324,15.08,21.776,28.279,24.569,30.852c0.203,1.686,1.303,4.146,1.817,7.26  c0.854,5.109,1.679,9.225,1.85,9.207C461.732,263.871,462.44,259.717,461.589,254.604z"/></g><g id="Layer_1"></g></svg>