<svg version="1.1" id="Layer_2" xmlns="http://www.w3.org/2000/svg" xmlns:xlink="http://www.w3.org/1999/xlink" viewBox="0 0 768 430" enable-background="new 0 0 768 430" xml:space="preserve">
<g transform="translate(-9.7982 -1.04)">
	<g transform="matrix(.17067 0 0 .17067 134.62 876.74)">
		<g>
			<path fill="#FFCCAA" stroke="#000000" stroke-width="0.7261" d="M534.346-3364.41l0.206,123.13l351.278,353.009l122.521-122.444
				L656.655-3364.05L534.346-3364.41z"/>
			<path stroke="#000000" stroke-width="0.2759" d="M885.721-3011.252l122.773,0.343l-122.595,122.598L885.721-3011.252z"/>
			<path fill="#6C5353" stroke="#000000" stroke-width="0.7261" d="M534.243-3364.135l351.398,352.534l122.704,0.664
				L656.62-3363.832L534.243-3364.135z"/>
		</g>
	</g>
	<g transform="matrix(.17067 0 0 .17067 204.5 806.51)">
		<g>
			<path fill="#FFCCAA" stroke="#000000" stroke-width="0.7261" d="M247.089-3075.718l0.209,123.136l351.275,353.009
				l122.518-122.455l-351.693-353.33L247.089-3075.718z"/>
			<path stroke="#000000" stroke-width="0.2759" d="M598.468-2722.561l122.767,0.355l-122.592,122.598L598.468-2722.561z"/>
			<path fill="#6C5353" stroke="#000000" stroke-width="0.7261" d="M246.986-3075.438l351.396,352.534l122.707,0.652
				l-351.724-352.883L246.986-3075.438z"/>
		</g>
	</g>
	<g transform="matrix(.17067 0 0 .17067 274.56 735.71)">
		<g>
			<path fill="#FFCCAA" stroke="#000000" stroke-width="0.7261" d="M-40.906-2784.677l0.206,123.136l351.272,353.003
				l122.527-122.449L81.403-2784.322L-40.906-2784.677z"/>
			<path stroke="#000000" stroke-width="0.2759" d="M310.469-2431.525l122.773,0.355l-122.598,122.592L310.469-2431.525z"/>
			<path fill="#6C5353" stroke="#000000" stroke-width="0.7261" d="M-41.01-2784.396l351.395,352.528l122.707,0.664L81.368-2784.093
				L-41.01-2784.396z"/>
		</g>
	</g>
	<g transform="matrix(.17067 0 0 .17067 344.8 665.22)">
		<g>
			<path fill="#FFCCAA" stroke="#000000" stroke-width="0.7261" d="M-329.642-2494.913l0.206,123.142l351.278,352.998
				l122.521-122.449l-351.696-353.329L-329.642-2494.913z"/>
			<path stroke="#000000" stroke-width="0.2759" d="M21.733-2141.755l122.773,0.349L21.908-2018.808L21.733-2141.755z"/>
			<path fill="#6C5353" stroke="#000000" stroke-width="0.7261" d="M-329.745-2494.639l351.398,352.54l122.704,0.658
				l-351.724-352.889L-329.745-2494.639z"/>
		</g>
	</g>
	<g transform="matrix(.17067 0 0 .17067 414.94 594.82)">
		<g>
			<path fill="#FFCCAA" stroke="#000000" stroke-width="0.7261" d="M-617.964-2205.523l0.2,123.142l351.278,353.003l122.521-122.449
				l-351.693-353.335L-617.964-2205.523z"/>
			<path stroke="#000000" stroke-width="0.2759" d="M-266.592-1852.354l122.77,0.343l-122.593,122.587L-266.592-1852.354z"/>
			<path fill="#6C5353" stroke="#000000" stroke-width="0.7261" d="M-618.07-2205.237l351.396,352.529l122.71,0.658L-495.69-2204.94
				L-618.07-2205.237z"/>
		</g>
	</g>
	<g transform="matrix(.17067 0 0 .17067 484.98 524.73)">
		<g>
			<path fill="#FFCCAA" stroke="#000000" stroke-width="0.7261" d="M-905.88-1917.403l0.203,123.133l351.281,353.009
				l122.521-122.449l-351.696-353.335L-905.88-1917.403z"/>
			<path stroke="#000000" stroke-width="0.2759" d="M-554.505-1564.237l122.767,0.343l-122.593,122.592L-554.505-1564.237z"/>
			<path fill="#6C5353" stroke="#000000" stroke-width="0.7261" d="M-905.983-1917.123l351.395,352.537l122.707,0.658
				l-351.727-352.892L-905.983-1917.123z"/>
		</g>
	</g>
	<g transform="matrix(.17067 0 0 .17067 554.79 454.78)">
		<g>
			<path fill="#FFCCAA" stroke="#000000" stroke-width="0.7261" d="M-1192.849-1629.86l0.203,123.136l351.278,353.006
				l122.524-122.449l-351.696-353.332L-1192.849-1629.86z"/>
			<path stroke="#000000" stroke-width="0.2759" d="M-841.477-1276.699l122.776,0.349l-122.593,122.592L-841.477-1276.699z"/>
			<path fill="#6C5353" stroke="#000000" stroke-width="0.7261" d="M-1192.952-1629.577l351.396,352.528l122.707,0.669
				l-351.724-352.895L-1192.952-1629.577z"/>
		</g>
	</g>
	<g transform="matrix(.17067 0 0 .17067 624.63 384.49)">
		<g>
			<path fill="#FFCCAA" stroke="#000000" stroke-width="0.7261" d="M-1479.94-1340.917l0.203,123.136l351.281,353.009
				l122.518-122.449l-351.693-353.335L-1479.94-1340.917z"/>
			<path stroke="#000000" stroke-width="0.2759" d="M-1128.564-987.756l122.764,0.349l-122.592,122.601L-1128.564-987.756z"/>
			<path fill="#6C5353" stroke="#000000" stroke-width="0.7261" d="M-1480.045-1340.636l351.395,352.531l122.707,0.658
				l-351.727-352.883L-1480.045-1340.636z"/>
		</g>
	</g>
	<g transform="matrix(.17067 0 0 .17067 694.67 314.26)">
		<g>
			<path fill="#FFCCAA" stroke="#000000" stroke-width="0.7261" d="M-1767.85-1052.222l0.194,123.136l351.284,353.006
				l122.518-122.447l-351.687-353.341L-1767.85-1052.222z"/>
			<path stroke="#000000" stroke-width="0.2759" d="M-1416.475-699.062l122.764,0.349l-122.598,122.598L-1416.475-699.062z"/>
			<path fill="#6C5353" stroke="#000000" stroke-width="0.7261" d="M-1767.956-1051.945l351.39,352.531l122.707,0.664
				l-351.716-352.889L-1767.956-1051.945z"/>
		</g>
	</g>
	<g transform="matrix(.17067 0 0 .17067 764.54 243.99)">
		<g>
			<path fill="#FFCCAA" stroke="#000000" stroke-width="0.7261" d="M-2055.065-763.362l0.2,123.136l351.275,353.009l122.524-122.455
				l-351.693-353.332L-2055.065-763.362z"/>
			<path stroke="#000000" stroke-width="0.2759" d="M-1703.692-410.201l122.77,0.346l-122.598,122.598L-1703.692-410.201z"/>
			<path fill="#6C5353" stroke="#000000" stroke-width="0.7261" d="M-2055.174-763.082l351.396,352.528l122.707,0.661
				l-351.721-352.886L-2055.174-763.082z"/>
		</g>
	</g>
	<g transform="matrix(.17067 0 0 .17067 834.97 173.5)">
		<g>
			<path fill="#FFCCAA" stroke="#000000" stroke-width="0.7261" d="M-2344.585-473.599l0.206,123.136l351.275,353.006
				l122.524-122.447l-351.699-353.338L-2344.585-473.599z"/>
			<path stroke="#000000" stroke-width="0.2759" d="M-1993.213-120.435l122.775,0.349L-1993.035,2.506L-1993.213-120.435z"/>
			<path fill="#6C5353" stroke="#000000" stroke-width="0.7261" d="M-2344.694-473.318l351.401,352.531l122.701,0.661
				l-351.716-352.892L-2344.694-473.318z"/>
		</g>
	</g>
	<g transform="matrix(.17067 0 0 .17067 904.88 102.92)">
		<g>
			<path fill="#FFCCAA" stroke="#000000" stroke-width="0.7261" d="M-2631.969-183.466l0.2,123.139l351.287,353.006l122.518-122.449
				l-351.687-353.335L-2631.969-183.466z"/>
			<path stroke="#000000" stroke-width="0.2759" d="M-2280.591,169.695l122.77,0.352l-122.593,122.59L-2280.591,169.695z"/>
			<path fill="#6C5353" stroke="#000000" stroke-width="0.7261" d="M-2632.072-183.182l351.396,352.528l122.707,0.661
				l-351.727-352.889L-2632.072-183.182z"/>
		</g>
	</g>
</g>
</svg>
