<svg xmlns="http://www.w3.org/2000/svg" viewBox="0 0 768 430"><style>.a{fill:#A5C3D3;}.b{fill:#FFF4F4;}.c{fill:#966847;}.d{fill:#5B7488;}.e{fill:#A87552;}.f{fill:none;stroke:#70838E;}</style><path d="M541.9 268.6H245.2c-8.1 0-14.6-11.4-14.6-25.5v-8.8c0-14.1 6.5-25.5 14.6-25.5h296.7c8.1 0 14.6 11.4 14.6 25.5v8.8C556.5 257.2 550 268.6 541.9 268.6" class="a"/><path d="M543.3 298H252.1c-7.2 0-13.2-5.9-13.2-13.2s5.9-13.2 13.2-13.2h291.2c7.2 0 13.2 5.9 13.2 13.2S550.6 298 543.3 298" fill="#B4FFB0"/><path d="M521.9 271.7H259.7c-4.1 0-7.5-3.4-7.5-7.5 0-4.1 3.4-7.5 7.5-7.5h262.2c4.1 0 7.5 3.4 7.5 7.5C529.4 268.3 526 271.7 521.9 271.7" fill="#70838E"/><path d="M507.2 365H269.1c-20.7 0-37.6-12.7-37.6-28.2s16.9-28.2 37.6-28.2H507.2c20.7 0 37.6 12.7 37.6 28.2S527.9 365 507.2 365" fill="#73787F"/><path d="M311.3 339h-41.9c-1.6 0-2.9-1.3-2.9-2.9 0-1.6 1.3-2.9 2.9-2.9h41.9c1.6 0 2.9 1.3 2.9 2.9C314.2 337.7 312.9 339 311.3 339" class="b"/><path d="M401.7 339H359.8c-1.6 0-2.9-1.3-2.9-2.9 0-1.6 1.3-2.9 2.9-2.9h41.9c1.6 0 2.9 1.3 2.9 2.9C404.6 337.7 403.3 339 401.7 339" class="b"/><path d="M495.2 339h-41.9c-1.6 0-2.9-1.3-2.9-2.9 0-1.6 1.3-2.9 2.9-2.9h41.9c1.6 0 2.9 1.3 2.9 2.9C498 337.7 496.7 339 495.2 339" class="b"/><path d="M251.6 303.7c0 2.9 1.5 5.3 3.4 5.3h269.1c1.8 0 3.4-2.4 3.4-5.3 0-1-0.2-2.7-0.5-2.7H252C251.7 301 251.6 302.7 251.6 303.7" fill="#ACBACC"/><path d="M524 297.9c1.2 0 2.3 1 2.9 3" fill="#B2C1D6"/><path d="M524 298H254.9c-1.2 0-2.3 1-2.9 3h274.9C526.3 299 525.2 298 524 298" fill="#BCCBDD"/><path d="M272.5 284.9L272.5 284.9c-2.3 0-4.2-1.9-4.2-4.2V179.2c0-2.3 1.9-4.2 4.2-4.2 2.3 0 4.2 1.9 4.2 4.2V280.6C276.7 283 274.8 284.9 272.5 284.9" fill="#9E9571"/><path d="M284.2 171.5h-37.9c-13.8 0-25-11.2-25-25v-20.4c0-13.8 11.2-25 25-25h37.9c13.8 0 25 11.2 25 25v20.4C309.2 160.3 298 171.5 284.2 171.5" fill="#4BC136"/><path d="M268.9 194.1H241.6c-16.7 0-30.3-13.6-30.3-30.3v-9.8c0-16.7 13.6-30.3 30.3-30.3h27.3c16.7 0 30.3 13.6 30.3 30.3v9.8C299.2 180.6 285.6 194.1 268.9 194.1" fill="#49B232"/><path d="M302.4 189h-37.9c-13.8 0-25-11.2-25-25v-20.4c0-13.8 11.2-25 25-25h37.9c13.8 0 25 11.2 25 25v20.4C327.4 177.8 316.2 189 302.4 189" fill="#55C63E"/><path d="M411.9 282.4H287.3c-1.5 0-2.7-1.2-2.7-2.7s1.2-2.7 2.7-2.7h124.6c1.5 0 2.7 1.2 2.7 2.7S413.4 282.4 411.9 282.4" fill="#9EF794"/><rect x="266.3" y="275.4" width="64.8" height="2" class="c"/><path d="M272 261.5c-0.3-0.1-0.6 0.2-0.7 0.6 0 0.1-0.4 2.7-0.5 7.1 -0.4 0-0.9 0.1-1.3 0.2l0 0c-1.3 0.4-2.8 2.1-3.3 3.8 -0.5 1.5 0.1 18.4 0.3 21.8l1.2-0.1c-0.3-7.6-0.7-20-0.3-21.2 0.4-1.3 1.7-2.6 2.5-2.9l0-0.3c0.5-0.2 0.8-0.5 0.9-0.5h0c-0.1 2 0 16.6 0 18.3l1.2 0.1c0-4.8 0-11.3 0-15.1 0-0.1 0-0.1 0-0.2 0-6.8 0.6-10.9 0.6-11C272.5 261.9 272.3 261.5 272 261.5" class="d"/><path d="M325.8 261.5c0.3-0.1 0.6 0.2 0.7 0.6 0 0.1 0.4 2.7 0.5 7.1 0.4 0 0.9 0.1 1.3 0.2l0 0c1.3 0.4 2.8 2.1 3.3 3.8 0.5 1.5-0.1 18.4-0.3 21.8l-1.2-0.1c0.3-7.6 0.7-20 0.4-21.2 -0.4-1.3-1.7-2.6-2.5-2.9l0-0.3c-0.5-0.2-0.8-0.5-0.9-0.5h0c0.1 2 0 16.6 0 18.3l-1.2 0.1c0-4.8 0-11.3 0-15.1 0-0.1 0-0.1 0-0.2 0-6.8-0.6-10.9-0.6-11C325.2 261.9 325.5 261.5 325.8 261.5" class="d"/><polygon points="270.4 274 267.1 275.4 267.1 276 330.6 276 330.6 275.5 327.1 274 " class="e"/><rect x="269.2" y="275.6" width="3.9" height="1.9" class="c"/><rect x="325.8" y="275.6" width="1.7" height="1.9" class="c"/><rect x="269.7" y="264.2" width="57.8" height="3.5" class="e"/><rect x="269.7" y="259.9" width="57.8" height="3.5" class="e"/><path d="M515 293.9H390.4c-1.5 0-2.7-1.2-2.7-2.7s1.2-2.7 2.7-2.7h124.6c1.5 0 2.7 1.2 2.7 2.7S516.5 293.9 515 293.9" fill="#A9F9A2"/><path d="M367.9 259.9h-37c-2.4 0-4.4-2-4.4-4.4 0-2.4 2-4.4 4.4-4.4h37c2.4 0 4.4 2 4.4 4.4C372.3 257.9 370.3 259.9 367.9 259.9" class="a"/><path d="M581.2 132.7l-19.9-17.8 -48.7 54.3 -19.9-17.8v0l-15.1 76.8 74.8-23.3 -19.9-17.8" fill="#F64B8D"/><line x1="450.4" y1="256.7" x2="450.4" y2="208.9" class="f"/><line x1="438.5" y1="256.7" x2="438.5" y2="208.9" class="f"/><line x1="426.5" y1="256.7" x2="426.5" y2="208.9" class="f"/><line x1="414.6" y1="256.7" x2="414.6" y2="208.9" class="f"/><line x1="404.6" y1="219.5" x2="466.5" y2="219.5" class="f"/><line x1="404.6" y1="232.8" x2="466.5" y2="232.8" class="f"/><line x1="407.5" y1="245.5" x2="469.4" y2="245.5" class="f"/></svg>