<svg xmlns="http://www.w3.org/2000/svg" viewBox="0 0 768 430"><style>.a{fill:#FFF;}.b{fill:#33332F;}</style><path d="M385.5 245.6c18.7 0 33.9-15.2 33.9-33.9 0-18.7-15.2-33.9-33.9-33.9s-33.9 15.2-33.9 33.9C351.6 230.4 366.8 245.6 385.5 245.6zM385.5 180.7c17.1 0 31 13.9 31 31 0 17.1-13.9 31-31 31S354.5 228.8 354.5 211.7C354.5 194.6 368.4 180.7 385.5 180.7z" class="a"/><path d="M385.5 321.3c18.7 0 33.9-15.2 33.9-33.9 0-18.7-15.2-33.9-33.9-33.9s-33.9 15.2-33.9 33.9C351.6 306.1 366.8 321.3 385.5 321.3zM385.5 256.4c17.1 0 31 13.9 31 31s-13.9 31-31 31S354.5 304.5 354.5 287.4 368.4 256.4 385.5 256.4z" class="a"/><circle cx="385.5" cy="136" r="26.9" fill="#DC4437"/><circle cx="385.5" cy="211.7" r="26.9" fill="#FBCB43"/><circle cx="385.5" cy="287.4" r="26.9" fill="#34B67A"/><path d="M385.5 169.9c18.7 0 33.9-15.2 33.9-33.9 0-18.7-15.2-33.9-33.9-33.9s-33.9 15.2-33.9 33.9C351.6 154.7 366.8 169.9 385.5 169.9zM385.5 105c17.1 0 31 13.9 31 31 0 17.1-13.9 31-31 31S354.5 153.1 354.5 136C354.5 118.9 368.4 105 385.5 105z" class="a"/><polygon points="374.9 332.7 375.3 392 396.1 392 395.7 332.7 " class="b"/><path d="M416.2 90.6c-0.1-0.2-0.3-0.4-0.4-0.6h0.5c-6-7.9-17.5-13.2-30.8-13.2s-24.9 5.4-30.8 13.3h0.4c-0.1 0.2-0.3 0.4-0.4 0.6H416.2z" class="b"/><path d="M437.7 257.7c0-2.5-2.3-4.6-5-4.6h-1v68.6h1.1c2.8 0 5.1-2 5.1-4.6v-0.5h8.7c1.9 0 3.6-1.9 3.8-4.4 1.7-16.3 13.2-20.3 20.9-34.9 0.6-1.2 1-2.6 1-4.1v-15h-34.3V257.7z" class="b"/><path d="M437.7 182c0-2.5-2.3-4.5-5-4.5h-1v68.6h1.1c2.8 0 5.1-2 5.1-4.6v-0.5h8.7c1.9 0 3.6-1.9 3.8-4.4 1.7-16.3 13.2-20.3 20.9-34.9 0.6-1.2 1-2.6 1-4.1v-15h-34.3V182z" class="b"/><path d="M437.7 106.3c0-2.5-2.3-4.6-5-4.6h-1v68.6h1.1c2.8 0 5.1-2 5.1-4.5v-0.5h8.7c1.9 0 3.6-1.9 3.8-4.4 1.7-16.3 13.2-20.3 20.9-34.9 0.6-1.2 1-2.6 1-4.1v-15h-34.3V106.3z" class="b"/><path d="M333.3 257.6v0.5H299v15c0 1.5 0.3 2.9 1 4.1 7.7 14.6 19.2 18.6 20.9 34.9 0.3 2.5 1.9 4.4 3.8 4.4h8.7v0.5c0 2.5 2.3 4.6 5 4.6h1v-68.6h-1C335.6 253.1 333.3 255.1 333.3 257.6z" class="b"/><path d="M333.3 182v0.5H299v15c0 1.5 0.3 2.9 1 4.1 7.7 14.6 19.2 18.6 20.9 34.9 0.3 2.5 1.9 4.4 3.8 4.4h8.7v0.5c0 2.5 2.3 4.6 5 4.6h1v-68.6h-1C335.6 177.4 333.3 179.4 333.3 182z" class="b"/><path d="M333.3 106.3v0.5H299v15c0 1.5 0.3 2.9 1 4.1 7.7 14.6 19.2 18.6 20.9 34.9 0.3 2.5 1.9 4.4 3.8 4.4h8.7v0.5c0 2.5 2.3 4.6 5 4.6h1v-68.6h-1C335.6 101.7 333.3 103.7 333.3 106.3z" class="b"/><path d="M385.5 167c17.1 0 31-13.9 31-31 0-17.1-13.9-31-31-31S354.5 118.9 354.5 136C354.5 153.1 368.4 167 385.5 167zM385.5 109.1c14.9 0 26.9 12 26.9 26.9 0 14.9-12 26.9-26.9 26.9 -14.9 0-26.9-12-26.9-26.9C358.6 121.1 370.6 109.1 385.5 109.1z" class="b"/><path d="M385.5 318.4c17.1 0 31-13.9 31-31s-13.9-31-31-31S354.5 270.3 354.5 287.4 368.4 318.4 385.5 318.4zM385.5 260.5c14.9 0 26.9 12 26.9 26.9s-12 26.9-26.9 26.9c-14.9 0-26.9-12-26.9-26.9S370.6 260.5 385.5 260.5z" class="b"/><path d="M385.5 242.7c17.1 0 31-13.9 31-31 0-17.1-13.9-31-31-31S354.5 194.6 354.5 211.7C354.5 228.8 368.4 242.7 385.5 242.7zM385.5 184.8c14.9 0 26.9 12 26.9 26.9 0 14.9-12 26.9-26.9 26.9 -14.9 0-26.9-12-26.9-26.9C358.6 196.8 370.6 184.8 385.5 184.8z" class="b"/><path d="M341.2 330.9h88.5V92.4h-88.5V330.9zM385.5 102.1c18.7 0 33.9 15.2 33.9 33.9 0 18.7-15.2 33.9-33.9 33.9s-33.9-15.2-33.9-33.9C351.6 117.3 366.8 102.1 385.5 102.1zM385.5 177.8c18.7 0 33.9 15.2 33.9 33.9 0 18.7-15.2 33.9-33.9 33.9s-33.9-15.2-33.9-33.9C351.6 193 366.8 177.8 385.5 177.8zM385.5 253.5c18.7 0 33.9 15.2 33.9 33.9 0 18.7-15.2 33.9-33.9 33.9s-33.9-15.2-33.9-33.9C351.6 268.7 366.8 253.5 385.5 253.5z" class="b"/></svg>