<svg version="1.1" id="Layer_1" xmlns="http://www.w3.org/2000/svg" xmlns:xlink="http://www.w3.org/1999/xlink" x="0px" y="0px"
	 viewBox="0 0 768 430" enable-background="new 0 0 768 430" xml:space="preserve">
<g>
	<polygon fill="#EFEFEF" points="449.81,50.61 315.289,51.952 221.118,148.021 222.46,282.542 318.529,376.713 453.05,375.371 
		547.221,279.302 545.879,144.782 	"/>
	<polygon fill="#D34E4E" points="535.22,149.322 445.483,61.357 319.83,62.611 231.865,152.348 233.119,278.002 322.855,365.966 
		448.51,364.713 536.474,274.976 	"/>
	<g>
		<path fill="#FFFFFF" d="M317.629,197.811l0.013,1.296l-14.138,0.141l-0.01-0.971c-0.062-6.259-3.88-10.215-10.14-10.153
			c-6.691,0.067-10.327,3.449-10.282,7.982c0.149,15.002,36.001,5.793,36.272,32.991c0.169,16.945-10.558,23.636-25.884,23.789
			c-13.599,0.135-25.656-7.516-25.808-22.733c-0.009-0.863,0.089-1.836,0.084-2.375l14.354-0.144
			c0.002,0.216-0.096,1.188-0.091,1.728c0.07,7.016,4.435,11.722,11.99,11.646c8.31-0.082,11.18-4.537,11.137-8.854
			c-0.175-17.592-36.011-6.765-36.292-34.934c-0.14-14.031,11.449-20.838,24.509-20.969
			C306.51,176.119,317.477,182.593,317.629,197.811z"/>
		<path fill="#FFFFFF" d="M375.396,189.032l-18.348,0.183l0.616,61.735l-13.815,0.138l-0.616-61.734l-18.348,0.183l-0.123-12.303
			l50.509-0.504L375.396,189.032z"/>
		<path fill="#FFFFFF" d="M441.048,213.095c0.261,26.118-11.273,38.43-30.377,38.62c-19.104,0.191-30.881-11.889-31.142-38.007
			s11.273-38.43,30.377-38.621C429.01,174.896,440.787,186.976,441.048,213.095z M393.749,210.868l0.054,5.396
			c0.147,14.787,5.741,23.689,16.75,23.58c11.008-0.11,16.423-9.123,16.275-23.909l-0.054-5.396
			c-0.147-14.787-5.741-23.689-16.749-23.58C399.017,187.069,393.602,196.082,393.749,210.868z"/>
		<path fill="#FFFFFF" d="M465.09,221.166l0.287,28.709l-13.814,0.137l-0.739-74.037l26.442-0.264
			c15.326-0.153,23.298,9.158,23.427,22.001c0.139,13.923-9.052,23.188-22.975,23.327L465.09,221.166z M464.761,188.14l0.208,20.83
			l11.225-0.112c6.691-0.067,10.32-4.205,10.252-11.004c-0.06-6.043-3.876-9.891-10.46-9.825L464.761,188.14z"/>
	</g>
</g>
</svg>
