<svg version="1.1" xmlns="http://www.w3.org/2000/svg" x="0" y="0" width="768" height="430" viewBox="0 0 768 430" enable-background="new 0 0 768 430" xml:space="preserve"><path fill="#DDE4D0" d="M415.2 197.4c-2.7-1.7-5.7-2.5-9-2.5 -4.8 0-8.8 1.6-12.3 4.9 -3.4 3.3-5.1 8.7-5.1 16.4 0 6.1 1.6 10.9 4.9 14.4 3.3 3.5 7.4 5.3 12.4 5.3 5.1 0 9.2-1.8 12.5-5.3s4.9-8.6 4.9-15.1c0-4.1-0.7-7.7-2.1-10.8C419.9 201.5 417.8 199.1 415.2 197.4zM445.6 214.1h13.1c4.3 0 7.4-0.8 9.2-2.4 1.8-1.6 2.7-3.9 2.7-6.8 0-2.1-0.5-3.9-1.6-5.4 -1.1-1.5-2.5-2.5-4.2-3 -1.1-0.3-3.2-0.4-6.3-0.4h-13L445.6 214.1z"/><polygon fill="#DDE4D0" points="495.9 167.4 495.9 167.4 494 169.4 "/><path fill="#DDE4D0" d="M459.8 139.1l-31.4-31.4h-44.3 -44.4l-31.4 31.4 -31.4 31.4v44.3 44.4l31.4 31.4 31.4 31.4h44.4 44.3l31.4-31.4 31.4-31.4v-44.4 -44.3L459.8 139.1zM328.9 234c-1.5 2.4-3.8 4.2-6.7 5.6 -2.9 1.3-6.2 2-9.8 2 -4.6 0-8.4-0.7-11.5-2s-5.5-3.4-7.3-6c-1.8-2.7-2.7-5.7-2.8-9.1v0l6.3-0.6c0.3 2.5 1 4.6 2.1 6.2 1.1 1.6 2.8 2.9 5.1 3.9s4.9 1.5 7.8 1.5c2.6 0 4.8-0.4 6.8-1.1 2-0.8 3.4-1.8 4.4-3.1 1-1.3 1.4-2.8 1.4-4.3 0-1.6-0.5-3-1.4-4.2 -0.9-1.2-2.4-2.2-4.6-3 -1.4-0.5-4.4-1.4-9-2.5 -4.7-1.1-7.9-2.2-9.8-3.2 -2.4-1.3-4.2-2.8-5.4-4.7 -1.2-1.9-1.8-4-1.8-6.3 0-2.6 0.7-5 2.2-7.2 1.5-2.2 3.6-3.9 6.4-5.1 2.8-1.2 5.9-1.7 9.3-1.7 3.8 0 7.1 0.6 9.9 1.8 2.9 1.2 5.1 3 6.6 5.3s2.4 5 2.5 8l-6.4 0.5c-0.3-3.2-1.5-5.6-3.5-7.3 -2-1.6-4.9-2.5-8.8-2.5 -4.1 0-7 0.7-8.9 2.2 -1.9 1.5-2.8 3.3-2.8 5.4 0 1.8 0.7 3.3 2 4.5 1.3 1.2 4.7 2.4 10.1 3.6 5.5 1.2 9.2 2.3 11.2 3.2 3 1.4 5.1 3.1 6.5 5.2 1.4 2.1 2.1 4.5 2.1 7.2C331.3 229.1 330.5 231.6 328.9 234zM376.9 195.9h-16.8v44.7h-6.7v-44.7h-16.7v-6h40.2V195.9zM427.2 229.2c-2.1 4.1-5 7.1-8.8 9.2 -3.8 2.1-7.9 3.1-12.3 3.1 -4.8 0-9-1.2-12.8-3.5s-6.6-5.5-8.5-9.4c-1.9-4-2.9-8.2-2.9-12.7 0-8.4 2.3-15 6.8-19.8 4.5-4.8 10.4-7.1 17.5-7.1 4.7 0 8.9 1.1 12.7 3.4 3.8 2.2 6.6 5.4 8.6 9.4 2 4 3 8.5 3 13.6C430.3 220.5 429.3 225.1 427.2 229.2zM473.5 215.6c-2.7 3-7.7 4.5-14.9 4.5h-13v20.6l-6.7 0v-50.7h19.1c3.4 0 5.9 0.2 7.7 0.5 2.5 0.4 4.6 1.2 6.3 2.4 1.7 1.2 3 2.8 4.1 4.9 1 2.1 1.5 4.4 1.5 6.9C477.6 208.9 476.3 212.6 473.5 215.6zM471.9 127.1l-36.4-36.4H332.7l-36.4 36.4L260 163.5v102.8l36.4 36.4L332.7 339h102.8l36.4-36.4 36.4-36.4h0V163.5L471.9 127.1zM496.7 169.4v45.5 45.5 1.2l-0.8 0.8 -32.2 32.2 -32.2 32.2 -0.8 0.8h-1.2 -45.5 -45.5 -1.2l-0.8-0.8 2-2 -2 2 -32.2-32.2 -32.2-32.2 -0.8-0.8v-1.2 -45.5V169.4v-1.2l0.8-0.8 32.2-32.2 32.2-32.2 0.8-0.8h1.2 45.5 45.5 1.2l0.8 0.8 32.2 32.2 32.2 32.2 0.8 0.8V169.4z"/></svg>