<svg xmlns="http://www.w3.org/2000/svg" viewBox="0 0 768 430"><style>.a{fill:#FFF4F4;}</style><path d="M585 282.7H242c-8.5 0-15.5-7-15.5-15.5 0-8.5 7-15.5 15.5-15.5h343.1c8.5 0 15.5 7 15.5 15.5C600.6 275.8 593.6 282.7 585 282.7" fill="#B4FFB0"/><path d="M542.5 383.8H262c-24.4 0-44.3-19.9-44.3-44.3 0-24.4 19.9-44.3 44.3-44.3h280.5c24.4 0 44.3 19.9 44.3 44.3C586.8 363.8 566.9 383.8 542.5 383.8" fill="#73787F"/><path d="M311.7 342.8h-49.4c-1.9 0-3.4-1.5-3.4-3.4 0-1.9 1.5-3.4 3.4-3.4h49.4c1.9 0 3.4 1.5 3.4 3.4C315 341.3 313.5 342.8 311.7 342.8" class="a"/><path d="M418.2 342.8h-49.4c-1.9 0-3.4-1.5-3.4-3.4 0-1.9 1.5-3.4 3.4-3.4h49.4c1.9 0 3.4 1.5 3.4 3.4C421.6 341.3 420.1 342.8 418.2 342.8" class="a"/><path d="M528.3 342.8h-49.4c-1.9 0-3.4-1.5-3.4-3.4 0-1.9 1.5-3.4 3.4-3.4h49.4c1.9 0 3.4 1.5 3.4 3.4S530.2 342.8 528.3 342.8" class="a"/><path d="M241.3 289.4c0 3.4 1.8 6.3 4 6.3h317c2.2 0 4-2.9 4-6.3 0-1.1-0.2-3.2-0.6-3.2H241.8C241.5 286.3 241.3 288.3 241.3 289.4" fill="#ACBACC"/><path d="M562.3 282.6c1.5 0 2.7 1.2 3.4 3.5" fill="#B2C1D6"/><path d="M562.3 282.7H245.2c-1.5 0-2.7 1.2-3.4 3.5h323.8C565 283.9 563.7 282.7 562.3 282.7" fill="#BCCBDD"/><path d="M265.9 267.2L265.9 267.2c-2.8 0-5-2.2-5-5V142.7c0-2.8 2.2-5 5-5 2.8 0 5 2.2 5 5V262.2C270.9 265 268.7 267.2 265.9 267.2" fill="#9E9571"/><path d="M279.8 152.5h-44.6c-16.3 0-29.5-13.2-29.5-29.5V99.1c0-16.3 13.2-29.5 29.5-29.5h44.6c16.3 0 29.5 13.2 29.5 29.5v24C309.2 139.4 296 152.5 279.8 152.5" fill="#4BC136"/><path d="M261.7 179.2h-32.1c-19.7 0-35.7-16-35.7-35.7v-11.5c0-19.7 16-35.7 35.7-35.7h32.1c19.7 0 35.7 16 35.7 35.7v11.5C297.4 163.2 281.4 179.2 261.7 179.2" fill="#49B232"/><path d="M301.2 173.2h-44.6c-16.3 0-29.5-13.2-29.5-29.5v-24c0-16.3 13.2-29.5 29.5-29.5h44.6c16.3 0 29.5 13.2 29.5 29.5v24C330.6 160 317.4 173.2 301.2 173.2" fill="#55C63E"/><path d="M430.2 264.3H283.4c-1.8 0-3.2-1.4-3.2-3.2 0-1.8 1.4-3.2 3.2-3.2H430.2c1.8 0 3.2 1.4 3.2 3.2S431.9 264.3 430.2 264.3" fill="#9EF794"/><path d="M551.6 277.9H404.9c-1.8 0-3.2-1.4-3.2-3.2s1.4-3.2 3.2-3.2h146.7c1.8 0 3.2 1.4 3.2 3.2C554.8 276.4 553.4 277.9 551.6 277.9" fill="#A9F9A2"/><path d="M452 181.3l-26.7 1.8 5 72.8 -26.7 1.8 0 0 44.6 64.4 35.3-69.9 -26.6 1.8" fill="#F64B8D"/></svg>