<svg version="1.1" id="Layer_1" xmlns="http://www.w3.org/2000/svg" xmlns:xlink="http://www.w3.org/1999/xlink" viewBox="0 0 768 430" enable-background="new 0 0 768 430" xml:space="preserve">
<g transform="matrix(1.2391 0 0 1.2391 -9.3017 -257.01)">
	<g transform="matrix(.90919 0 0 .97582 7.8094 6.5527)">
		
			<radialGradient id="SVGID_1_" cx="-1518.0321" cy="446.149" r="187.1031" gradientTransform="matrix(1.5663 0.1269 0.0467 -0.5768 2679.7051 933.8751)" gradientUnits="userSpaceOnUse">
			<stop  offset="0" style="stop-color:#FFE8B1"/>
			<stop  offset="1" style="stop-color:#F5D79C"/>
		</radialGradient>
		<path fill="url(#SVGID_1_)" d="M118.711,513.464c6.779,11.766,61.53,6.94,92.368,9.917c57.763,5.576,115.39,15.749,173.54,14.875
			c33.508-0.503,78.156-2.008,99.551-11.57c7.914-3.537-21.511-9.678-18.073-16.529c50.994,4.676,86.802-9.932,86.802-9.932
			s-79.162-21.368-119.216-30.34c-32.155-7.201-63.918-17.358-97.131-18.832c-47.473-2.106-97.526-0.321-141.537,14.475
			C165.396,475.488,109.632,497.706,118.711,513.464L118.711,513.464z"/>
		
			<radialGradient id="SVGID_2_" cx="-1528.6475" cy="262.105" r="139.054" gradientTransform="matrix(1.3813 0 0 -0.246 2420.6785 543.0967)" gradientUnits="userSpaceOnUse">
			<stop  offset="0" style="stop-color:#E8B168"/>
			<stop  offset="1" style="stop-color:#F6C783"/>
		</radialGradient>
		<path fill="url(#SVGID_2_)" d="M300.623,450.338c-36.167,0.308-72.594,4.116-105.605,15.214
			c-15.963,5.367-39.486,14.311-56.395,23.869c10.66,6.335,46.865,3.377,68.154,5.528c44.179,4.465,88.238,12.613,132.715,11.914
			c25.629-0.404,59.778-1.6,76.142-9.257c6.053-2.832-16.429-7.757-13.8-13.242c23.198,2.228,55.417-0.834,77.782-3.685
			c-16.836-4.113-33.074-7.968-45.923-10.799c-32.134-7.08-63.914-17.339-97.128-18.813
			C324.698,450.54,312.68,450.237,300.623,450.338L300.623,450.338z"/>
		<path fill="#D79348" d="M153.996,512.644c-0.069-0.577,0.304-1.097,0.835-1.161c0.531-0.064,1.018,0.353,1.087,0.93
			c0.07,0.577-0.304,1.098-0.835,1.161C154.553,513.637,154.066,513.221,153.996,512.644z"/>
		<path fill="#D79348" d="M163.812,506.866c0.786-0.208,1.578,0.208,1.771,0.93c0.192,0.722-0.288,1.477-1.074,1.686
			c-0.785,0.209-1.578-0.208-1.771-0.93C162.545,507.83,163.026,507.075,163.812,506.866z"/>
		<path fill="#D79348" d="M203.589,497.479c-0.268-0.52-0.098-1.142,0.381-1.389c0.479-0.246,1.085-0.025,1.353,0.496
			c0.268,0.52,0.098,1.143-0.381,1.39C204.463,498.222,203.857,498,203.589,497.479z"/>
		<path fill="#D79348" d="M241.767,523.312c-0.206,0.608-0.826,0.948-1.386,0.759c-0.559-0.189-0.846-0.836-0.641-1.444
			c0.206-0.608,0.826-0.948,1.386-0.759C241.685,522.058,241.972,522.704,241.767,523.312z"/>
		<path fill="#D79348" d="M272.059,490.564c-0.287,0.422-0.835,0.549-1.223,0.285c-0.387-0.265-0.469-0.821-0.181-1.243
			c0.288-0.422,0.835-0.549,1.223-0.285C272.265,489.586,272.347,490.143,272.059,490.564z"/>
		<path fill="#D79348" d="M264.52,500.225c0.738,0.311,1.104,1.115,0.817,1.793c-0.286,0.679-1.117,0.976-1.855,0.665
			c-0.738-0.312-1.104-1.115-0.817-1.794C262.951,500.211,263.782,499.914,264.52,500.225z"/>
		<path fill="#D79348" d="M313.335,494.545c-0.461,0.549-1.244,0.65-1.749,0.226c-0.505-0.424-0.541-1.212-0.08-1.761
			c0.461-0.549,1.244-0.651,1.749-0.227C313.761,493.207,313.797,493.996,313.335,494.545z"/>
		<path fill="#D79348" d="M316.434,487.689c0.186,0.587-0.101,1.202-0.64,1.373c-0.54,0.172-1.129-0.165-1.315-0.752
			s0.1-1.202,0.64-1.374C315.659,486.765,316.248,487.102,316.434,487.689z"/>
		<path fill="#D79348" d="M360.628,502.686c0.96,0.124,1.645,0.942,1.531,1.824c-0.114,0.884-0.986,1.498-1.946,1.374
			c-0.96-0.125-1.646-0.943-1.531-1.826C358.797,503.176,359.668,502.561,360.628,502.686z"/>
		<path fill="#D79348" d="M401.903,516.617c0.05-0.595,0.535-1.04,1.082-0.993c0.547,0.046,0.95,0.566,0.9,1.161
			c-0.051,0.595-0.535,1.039-1.082,0.993C402.256,517.732,401.852,517.212,401.903,516.617z"/>
		<path fill="#D79348" d="M528.493,504.417c0.409-0.759,1.306-1.072,2.005-0.695c0.699,0.375,0.934,1.295,0.525,2.055
			c-0.407,0.76-1.305,1.072-2.003,0.696C528.322,506.098,528.086,505.177,528.493,504.417z"/>
		<path fill="#D79348" d="M455.434,512.409c-0.702-0.05-1.234-0.614-1.188-1.259c0.046-0.645,0.653-1.128,1.353-1.077
			c0.701,0.05,1.234,0.613,1.188,1.258C456.742,511.976,456.136,512.458,455.434,512.409z"/>
		<path fill="#D79348" d="M345.419,477.516c-0.328,0.352-0.856,0.393-1.18,0.091c-0.323-0.301-0.321-0.831,0.008-1.182
			c0.328-0.353,0.856-0.393,1.179-0.091C345.75,476.635,345.746,477.164,345.419,477.516z"/>
		<path fill="#D79348" d="M321.484,470.905c0.195,0.573-0.073,1.184-0.601,1.365c-0.528,0.179-1.114-0.14-1.31-0.713
			c-0.196-0.574,0.073-1.186,0.601-1.365C320.701,470.011,321.288,470.331,321.484,470.905z"/>
		<path fill="#D79348" d="M209.134,471.213c0.705-0.024,1.295,0.482,1.317,1.131c0.022,0.649-0.532,1.195-1.237,1.219
			s-1.295-0.482-1.318-1.132C207.874,471.782,208.428,471.236,209.134,471.213z"/>
		<path fill="#D79348" d="M217.62,466.89c0.047-0.945,0.788-1.676,1.657-1.633c0.869,0.043,1.535,0.842,1.489,1.787
			c-0.046,0.944-0.788,1.676-1.657,1.633C218.24,468.634,217.573,467.834,217.62,466.89z"/>
		<path fill="#D79348" d="M287.711,455.189c-0.464,0.534-1.238,0.621-1.729,0.195c-0.491-0.426-0.514-1.205-0.05-1.739
			c0.464-0.535,1.238-0.622,1.729-0.195C288.153,453.876,288.175,454.654,287.711,455.189z"/>
		<path fill="#D79348" d="M283.503,467.482c-0.441-0.04-0.769-0.401-0.732-0.806c0.036-0.406,0.423-0.703,0.864-0.663
			c0.441,0.04,0.769,0.401,0.732,0.806C284.331,467.225,283.944,467.522,283.503,467.482z"/>
		<path fill="#D79348" d="M294.012,481.537c0.352,0.367,0.364,0.926,0.027,1.25c-0.337,0.325-0.896,0.29-1.249-0.077
			c-0.352-0.367-0.365-0.926-0.027-1.25C293.1,481.136,293.66,481.17,294.012,481.537z"/>
		<path fill="#D79348" d="M307.679,475.355c-0.302,0.67-1.046,0.989-1.663,0.711c-0.616-0.279-0.871-1.047-0.569-1.717
			c0.302-0.67,1.046-0.988,1.663-0.71C307.727,473.917,307.981,474.685,307.679,475.355z"/>
		<path fill="#D79348" d="M340.475,460.107c-0.264-0.416-0.169-0.951,0.215-1.194c0.383-0.243,0.908-0.103,1.172,0.314
			c0.264,0.416,0.167,0.951-0.216,1.194C341.264,460.663,340.739,460.523,340.475,460.107z"/>
		<path fill="#D79348" d="M321.869,463.578c0.704-0.505,1.65-0.388,2.113,0.258c0.464,0.647,0.269,1.581-0.434,2.084
			c-0.703,0.504-1.65,0.388-2.113-0.258C320.971,465.015,321.166,464.082,321.869,463.578z"/>
		<path fill="#D79348" d="M332.084,485.344c0.57,0.746,0.474,1.777-0.213,2.3c-0.687,0.523-1.706,0.342-2.275-0.405
			c-0.569-0.747-0.474-1.777,0.213-2.3C330.496,484.416,331.515,484.596,332.084,485.344z"/>
		<path fill="#D79348" d="M395.421,483.577c-0.374-0.233-0.504-0.703-0.289-1.048c0.216-0.344,0.694-0.434,1.069-0.2
			c0.375,0.235,0.505,0.704,0.289,1.048C396.275,483.723,395.797,483.812,395.421,483.577z"/>
		<path fill="#D79348" d="M367.268,487.187c0.339-0.299,0.837-0.289,1.112,0.023c0.275,0.312,0.223,0.807-0.116,1.106
			c-0.34,0.3-0.837,0.289-1.112-0.023C366.877,487.981,366.929,487.486,367.268,487.187z"/>
		<path fill="#D79348" d="M334.941,516.332c0.393,0.225,0.544,0.702,0.336,1.063c-0.207,0.362-0.694,0.472-1.087,0.246
			c-0.393-0.225-0.544-0.701-0.336-1.062C334.062,516.218,334.548,516.107,334.941,516.332z"/>
		<path fill="#D79348" d="M182.671,502.26c0.475,0.171,0.732,0.664,0.574,1.102c-0.157,0.436-0.671,0.652-1.146,0.48
			c-0.475-0.171-0.732-0.665-0.574-1.101C181.683,502.303,182.196,502.089,182.671,502.26z"/>
		<path fill="#D79348" d="M148.173,503.271c0.411-0.883,1.403-1.291,2.215-0.913c0.813,0.378,1.138,1.4,0.726,2.284
			c-0.411,0.883-1.403,1.291-2.215,0.914C148.087,505.178,147.762,504.155,148.173,503.271z"/>
		<path fill="#D79348" d="M130.155,502.793c-0.568,0.372-1.306,0.251-1.648-0.271c-0.343-0.523-0.16-1.248,0.408-1.62
			c0.568-0.372,1.305-0.25,1.648,0.271C130.905,501.695,130.723,502.42,130.155,502.793z"/>
		<path fill="#D79348" d="M412.802,515.371c-0.115,0.493-0.576,0.806-1.029,0.699c-0.453-0.106-0.727-0.591-0.612-1.084
			c0.116-0.493,0.576-0.805,1.03-0.7C412.644,514.393,412.917,514.879,412.802,515.371z"/>
		<path fill="#D79348" d="M415.366,490.609c-0.237,0.755-0.991,1.191-1.686,0.973c-0.694-0.217-1.065-1.006-0.829-1.761
			c0.237-0.755,0.991-1.191,1.685-0.974C415.231,489.065,415.602,489.854,415.366,490.609z"/>
		<path fill="#D79348" d="M396.322,505.299c-0.827,0.322-1.736-0.032-2.034-0.792c-0.296-0.76,0.133-1.637,0.959-1.96
			c0.826-0.323,1.736,0.031,2.034,0.792C397.577,504.099,397.148,504.976,396.322,505.299z"/>
		<path fill="#D79348" d="M464.41,517.934c-0.098-0.621,0.286-1.197,0.856-1.287c0.571-0.09,1.113,0.341,1.21,0.961
			c0.098,0.62-0.285,1.196-0.856,1.286C465.049,518.984,464.508,518.554,464.41,517.934z"/>
		<path fill="#D79348" d="M437.864,527.719c-0.223,0.467-0.751,0.678-1.179,0.473c-0.43-0.204-0.596-0.749-0.374-1.214
			c0.223-0.467,0.751-0.678,1.179-0.474C437.919,526.71,438.086,527.254,437.864,527.719z"/>
		<path fill="#D79348" d="M391.043,505.683c0.55,0.304,0.768,0.959,0.489,1.464c-0.279,0.505-0.952,0.668-1.501,0.364
			c-0.549-0.304-0.767-0.959-0.488-1.464C389.822,505.542,390.494,505.379,391.043,505.683z"/>
		<path fill="#D79348" d="M383.189,519.393c0.391,0.184,0.571,0.625,0.401,0.985c-0.17,0.359-0.625,0.502-1.016,0.317
			c-0.391-0.185-0.571-0.625-0.401-0.985C382.342,519.35,382.798,519.208,383.189,519.393z"/>
		<path fill="#D79348" d="M295.487,507.864c-0.791,0.468-1.783,0.258-2.214-0.47c-0.431-0.729-0.139-1.698,0.653-2.168
			c0.792-0.468,1.784-0.258,2.215,0.469C296.571,506.424,296.279,507.395,295.487,507.864z"/>
		<path fill="#D79348" d="M386.802,516.063c-0.923,0.028-1.692-0.637-1.718-1.486c-0.026-0.848,0.701-1.56,1.624-1.588
			c0.922-0.028,1.692,0.636,1.718,1.485C388.452,515.324,387.725,516.034,386.802,516.063z"/>
		<path fill="#D79348" d="M419.994,525.117c-0.415-0.263-0.557-0.784-0.315-1.165c0.241-0.382,0.772-0.479,1.188-0.217
			c0.415,0.263,0.556,0.784,0.315,1.166C420.94,525.282,420.408,525.379,419.994,525.117z"/>
		<path fill="#D79348" d="M318.014,507.997c0.566,0.233,0.853,0.844,0.638,1.366c-0.214,0.521-0.847,0.755-1.414,0.522
			c-0.567-0.233-0.853-0.845-0.638-1.365C316.815,507.998,317.447,507.765,318.014,507.997z"/>
		<path fill="#D79348" d="M253.228,496.392c0.557,0.624,0.544,1.546-0.03,2.059c-0.575,0.513-1.492,0.422-2.049-0.202
			c-0.557-0.625-0.544-1.546,0.03-2.059C251.753,495.677,252.671,495.768,253.228,496.392z"/>
		<path fill="#D79348" d="M246.665,488.686c0.141-0.611,0.711-1,1.272-0.87c0.561,0.129,0.902,0.73,0.761,1.341
			c-0.141,0.61-0.711,0.999-1.272,0.87C246.864,489.895,246.523,489.296,246.665,488.686z"/>
		<path fill="#D79348" d="M386.459,497.854c0.543-0.582,1.416-0.647,1.95-0.147c0.535,0.499,0.527,1.375-0.016,1.956
			c-0.543,0.581-1.417,0.647-1.951,0.147C385.908,499.31,385.916,498.434,386.459,497.854z"/>
		<path fill="#D79348" d="M520.536,499.475c-0.983,0.01-1.787-0.715-1.796-1.619c-0.009-0.904,0.78-1.644,1.763-1.654
			c0.982-0.01,1.786,0.715,1.796,1.618C522.309,498.724,521.519,499.465,520.536,499.475z"/>
		<path fill="#D79348" d="M210.567,473.121c0.166,0.397,0.005,0.842-0.359,0.995c-0.365,0.153-0.795-0.045-0.962-0.442
			c-0.166-0.397-0.005-0.842,0.36-0.995C209.97,472.527,210.401,472.725,210.567,473.121z"/>
		<path fill="#D79348" d="M286.78,471.001c-0.965-0.145-1.639-0.982-1.506-1.869c0.133-0.888,1.023-1.49,1.988-1.346
			c0.965,0.145,1.64,0.982,1.506,1.87C288.636,470.544,287.746,471.146,286.78,471.001z"/>
		<path fill="#D79348" d="M271.737,478.597c-0.055-0.604,0.35-1.135,0.905-1.185c0.555-0.052,1.05,0.397,1.106,1
			c0.055,0.603-0.35,1.134-0.905,1.186C272.287,479.648,271.792,479.201,271.737,478.597z"/>
		<path fill="#D79348" d="M288.733,452.864c-0.617,0.103-1.194-0.275-1.288-0.842c-0.095-0.567,0.329-1.11,0.946-1.212
			c0.617-0.103,1.194,0.274,1.288,0.841C289.773,452.219,289.35,452.761,288.733,452.864z"/>
		<path fill="#D79348" d="M312.392,463.237c-0.121,0.623-0.684,1.038-1.258,0.926c-0.573-0.111-0.94-0.707-0.819-1.33
			c0.121-0.624,0.684-1.039,1.257-0.927C312.146,462.017,312.512,462.612,312.392,463.237z"/>
		<path fill="#D79348" d="M281.119,460.19c-0.807-0.42-1.148-1.361-0.762-2.102c0.386-0.741,1.352-1.004,2.158-0.585
			c0.807,0.419,1.149,1.36,0.763,2.103C282.892,460.348,281.926,460.609,281.119,460.19z"/>
		<path fill="#D79348" d="M217.527,480.009c0.348,0.43,0.308,1.039-0.088,1.358c-0.397,0.321-0.999,0.229-1.347-0.201
			c-0.348-0.43-0.308-1.039,0.088-1.359C216.576,479.488,217.179,479.579,217.527,480.009z"/>
		<path fill="#D79348" d="M283.162,456.889c-0.489-0.172-0.757-0.677-0.598-1.127c0.159-0.45,0.684-0.674,1.173-0.502
			c0.489,0.172,0.756,0.678,0.598,1.127C284.176,456.838,283.651,457.062,283.162,456.889z"/>
		<path fill="#D79348" d="M241.343,459.087c-0.985-0.149-1.673-1.003-1.537-1.909c0.137-0.905,1.045-1.52,2.031-1.372
			c0.985,0.149,1.673,1.003,1.537,1.908C243.238,458.62,242.328,459.235,241.343,459.087z"/>
	</g>
	<path fill="#C6DAD8" d="M282.561,307.803l1.831-5.672l56.911,2.881l12.591,5.028l-1.903,7.24l-1.864,0.699l-4.527,7.38
		l-2.518,3.548l-21.303-3.336l-34.286-5.503l-4.544-3.611l-0.603-3.953L282.561,307.803z"/>
	<g opacity="0.3" enable-background="new    ">
		
			<linearGradient id="SVGID_3_" gradientUnits="userSpaceOnUse" x1="106.8938" y1="271.5718" x2="59.4063" y2="245.9659" gradientTransform="matrix(2.7521 0 0 -2.7521 6.82 1209.0592)">
			<stop  offset="0" style="stop-color:#000000"/>
			<stop  offset="1" style="stop-color:#000000;stop-opacity:0"/>
		</linearGradient>
		<polygon fill="url(#SVGID_3_)" points="314.049,475.472 214.836,489.515 211.316,489.189 308.103,474.953 		"/>
	</g>
	
		<radialGradient id="SVGID_4_" cx="107.2622" cy="247.4411" r="1.5728" gradientTransform="matrix(2.9772 0.1009 0.0522 -1.5417 -22.8345 846.1656)" gradientUnits="userSpaceOnUse">
		<stop  offset="0" style="stop-color:#483737"/>
		<stop  offset="1" style="stop-color:#D79348"/>
	</radialGradient>
	<path fill="url(#SVGID_4_)" d="M313.212,475.506c0,0.531-1.693,0.962-3.781,0.962c-2.088,0-3.781-0.43-3.781-0.962
		s1.693-0.962,3.781-0.962C311.52,474.544,313.212,474.975,313.212,475.506z"/>
	<path fill="#E2E2E2" d="M350.23,258.758l-43.303,216.498c0,0,0.692,0.736,2.491,0.816c0.927,0.041,2.76-0.366,2.76-0.366
		l43.19-215.931c0,0-0.701-1.341-2.232-1.787c-1.532-0.446-2.905,0.756-2.905,0.756V258.758z"/>
	<path fill="#E24423" d="M228.83,304.019l8.521,2.486l9.802,3.068l9.85,2.023l3.407-0.105l6.954,2.413l5.399,2.081l3.334,1.462
		l6.202-9.658c0,0,3.137-5.612,2.092-5.66c-1.045-0.048-51.095-4.184-51.095-4.184L228.83,304.019z"/>
	<path fill="#ECECEC" d="M352.916,260.248l-37.767,0.482l-33.506,4.378l-27.098,9.854l-5.374,4.193l-0.238,5.17l-1.817,7.318
		l-0.976,5.136l-3.158,4.295l6.545,2.521l7.488-1.876l25.111,1.156l18.396,2.327l22.794,3.269l10.306,1.214l8.293-3.319
		l10.826-26.146L352.916,260.248z"/>
	<path fill="#E24423" d="M353.563,311.589l-1.569,5.684l1.221,1.888l-1.024,5.186l-0.381,2.599l2.527,1.948l51.473,7.341
		l13.506,2.192l5.069-2.122l2.21-2.514l1.903-7.24L353.563,311.589z"/>
	<path fill="#C6DAD8" d="M413.062,337.004l-0.122,2.654l1.173,0.779l-2.144,9.813l20.791-0.01l5.374-1.203l2.753-2.049l-1.114-7.304
		l-16.666-5.602L413.062,337.004z"/>
	<path fill="#F9F9F9" d="M352.916,260.248l-37.767,0.491l-33.504,4.368l-27.104,9.865l-5.377,4.194l-0.018,0.379l8.831,1.133
		l22.936,0.313l59.429,3.099l9.934,1.581l0.188,0.043l2.275-5.495L352.916,260.248L352.916,260.248z"/>
	<path fill="#ED6324" d="M352.446,260.15l8.855,0.931l32.966,11.461l37.805,20.057l14.093,12.162l-1.831,5.673l2.539,1.687
		l-4.305,13.932l-4.844,2.917l-51.936-8.671l-34.228-6.809l-8.199-3.779l-3.013-2.756l1.155-8.059l3.353-10.312l2.233-3.037
		l2.354-5.648l-0.045-4.712l1.273-4.913l0.823-6.504L352.446,260.15z"/>
	<path fill="#ECECEC" d="M429.005,317.785l9.434,5.128l5.89,4.252l2.033,4.02l-5.624,17.147l-8.048-3.755l-3.354-0.638l-3.895-6.211
		L429.005,317.785z"/>
	
		<linearGradient id="SVGID_5_" gradientUnits="userSpaceOnUse" x1="785.0038" y1="-344.7356" x2="838.934" y2="-449.9119" gradientTransform="matrix(0.7745 0.0356 0.0356 -0.7745 -216.5174 -38.3547)">
		<stop  offset="0" style="stop-color:#FF7F2A"/>
		<stop  offset="1" style="stop-color:#ED6324"/>
	</linearGradient>
	<path fill="url(#SVGID_5_)" d="M352.446,260.131l-0.944,3.621l-0.835,6.512l-1.263,4.919l0.043,4.702l-2.196,5.291l3.037,0.485
		l54.658,10.276l31.167,6.257l9.895,2.408l-13.929-12.013l-37.807-20.059l-32.965-11.455l-8.857-0.943L352.446,260.131z"/>
	<g transform="translate(-4.2253 -41.217)">
		<g opacity="0.5" enable-background="new    ">
			<path d="M373.422,532.682c-0.303,0.008-0.593,0.031-0.891,0.072c-1.13,0.155-2.147,0.713-3.21,1.141
				c-0.356,0.143-0.737,0.265-1.106,0.357c-0.47,0.112-0.963,0.161-1.463,0.178c-0.512,0.018-1.058,0.024-1.569,0.035
				c-0.754,0.016-1.516,0.066-2.176,0.321c-0.225,0.086-0.437,0.184-0.642,0.322v0.036c-0.379,0.255-0.665,0.723-0.713,1.177
				c-0.059,0.557,0.182,1.134,0.535,1.57c0.597,0.738,2.57,0.481,2.461,1.462c-0.089,0.804-3.022,2.273-4.138,3.781
				c-0.095,0.127-0.204,0.286-0.321,0.428l-0.322,0.249c-0.086,0.182-0.177,0.363-0.214,0.535v0.035
				c-0.013,0.073-0.012,0.144,0,0.214c0.011,0.069,0,0.145,0.035,0.214l0.035,0.035c0.037,0.061,0.091,0.132,0.142,0.178
				c0.012,0.005,0.029-0.006,0.035,0c0.058,0.047,0.109,0.113,0.179,0.143c0.168,0.073,0.399,0.095,0.606,0.107
				c0.381,0.021,0.788-0.052,1.141-0.072h0.035c0.694-0.035,1.339-0.26,1.998-0.499h0.035c0.669-0.245,1.343-0.494,2.033-0.642
				c1.445-0.31,2.91-0.603,4.387-0.642c0.428-0.011,0.852-0.029,1.284,0c0.215,0.014,0.43,0.035,0.642,0.072
				c0.21,0.036,0.437,0.113,0.642,0.178c0.294,0.098,0.586,0.206,0.856,0.357c0.113,0.061,0.21,0.146,0.322,0.214
				c0.168,0.104,0.334,0.209,0.5,0.322c0.011,0.006,0.027-0.006,0.035,0l0.785,0.535l0.035,0.035c0.273,0.181,0.53,0.35,0.82,0.499
				c0.901,0.465,1.797,1.122,2.746,1.463c0.128,0.046,0.261,0.074,0.392,0.107l0.107,0.035c0.177,0.038,0.352,0.063,0.535,0.071
				c0.602,0.025,1.362-0.084,1.784-0.499c0.067-0.066,0.132-0.095,0.178-0.179c0.145-0.258,0.075-0.556-0.035-0.856
				c-0.058-0.166-0.106-0.336-0.178-0.499c-0.047-0.107-0.109-0.22-0.143-0.322v-0.035c-0.035-0.106-0.087-0.218-0.143-0.321
				l-0.035-0.035c-0.198-0.352-0.47-0.66-0.713-0.999c-0.091-0.127-0.179-0.23-0.25-0.356c-0.065-0.114-0.104-0.207-0.143-0.322
				c-0.079-0.229-0.09-0.44,0-0.677v-0.036c0.019-0.052,0.066-0.072,0.107-0.106s0.116-0.086,0.179-0.107v-0.035
				c0.138-0.043,0.296-0.047,0.428-0.072c2.531-0.465,5.187,0.727,7.74,0.392c0.824-0.108,1.706-0.263,2.353-0.785
				c0.33-0.266,0.907-0.738,0.642-1.069c-1.798-2.252-4.907-2.685-7.598-3.602c-0.362-0.175-0.711-0.362-1.069-0.535
				c-0.463-0.224-0.957-0.433-1.427-0.642l-0.07-0.035c-0.014-0.007-0.023-0.029-0.036-0.035c-0.158-0.112-0.281-0.23-0.427-0.357
				c-0.329-0.284,0.098-1.025-0.251-1.284c-0.564-0.42-1.409,0.354-2.104,0.25c-0.695-0.106-1.292-0.569-1.925-0.892l-0.072-0.035
				c-0.22-0.109-0.441-0.193-0.678-0.25c-0.433-0.105-0.874-0.161-1.32-0.214c-0.446-0.053-0.906-0.082-1.355-0.072H373.422
				L373.422,532.682z"/>
		</g>
		<path fill="#D38D5F" d="M360.103,542.746c1.115-1.508,4.068-2.987,4.158-3.791c0.11-0.981-1.858-0.707-2.455-1.445
			c-0.353-0.435-0.593-1.037-0.534-1.594c0.049-0.454,0.32-0.923,0.698-1.177c1.641-1.104,3.948-0.401,5.866-0.877
			c1.477-0.366,2.799-1.305,4.306-1.512c1.194-0.165,2.436-0.051,3.607,0.233c0.946,0.229,1.715,1.018,2.676,1.163
			c0.694,0.105,1.531-0.652,2.095-0.233c0.348,0.259-0.095,0.996,0.232,1.28c2.878,2.487,8.09,1.985,10.644,5.182
			c0.265,0.331-0.306,0.835-0.636,1.102c-0.647,0.522-1.551,0.653-2.375,0.76c-2.553,0.334-5.182-0.849-7.714-0.384
			c-0.262,0.048-0.638,0.072-0.732,0.321c-0.359,0.951,0.96,1.801,1.28,2.765c0.178,0.536,0.626,1.165,0.349,1.657
			c-0.342,0.61-1.279,0.727-1.978,0.698c-1.371-0.057-2.537-1.055-3.758-1.683c-1.159-0.597-2.133-1.579-3.374-1.977
			c-0.816-0.262-1.704-0.256-2.56-0.233c-1.478,0.039-2.942,0.326-4.387,0.636c-1.381,0.296-2.662,1.091-4.072,1.163
			c-0.72,0.037-1.798,0.263-2.129-0.377C359.025,543.872,359.735,543.242,360.103,542.746z"/>
		<path fill="#DEAA87" d="M374.034,533.374c-2.697-0.141-14.553,10.049-14.553,10.049l-0.009,0.009
			c-0.172,0.364-0.333,0.721-0.134,1.018c0.4,0.6,1.409,0.407,2.129,0.37c1.411-0.073,2.692-0.866,4.073-1.162
			c1.445-0.31,2.903-0.598,4.381-0.637c0.857-0.024,1.745-0.025,2.561,0.236c1.241,0.398,2.214,1.377,3.372,1.974
			c1.221,0.628,2.394,1.63,3.765,1.687c0.699,0.028,1.632-0.09,1.975-0.699c0.276-0.493-0.172-1.121-0.35-1.657
			c-0.32-0.963-1.645-1.817-1.285-2.766c0.043-0.115,0.152-0.183,0.277-0.225c-2.168-3.627-4.792-7.676-5.976-8.146L374.034,533.374
			L374.034,533.374z"/>
		<path fill="#DEAA87" d="M374.165,533.463c2.003,1.464,4.32,1.917,6.418,3.004c1.401,0.726,2.658,1.735,4.114,2.345
			c0.42,0.176,0.865,0.303,1.316,0.37c0.611,0.091,1.851,0.041,1.851,0.041s-0.314-0.505-0.534-0.699
			c-1.333-1.174-3.008-1.903-4.608-2.674c-2.003-0.965-4.075-1.817-6.212-2.427c-0.577-0.165-1.18-0.444-1.769-0.329
			C374.517,533.136,373.981,533.329,374.165,533.463z"/>
		<path fill="#DEAA87" d="M373.044,532.28c-0.303,0.008-0.607,0.032-0.905,0.073c-1.507,0.207-2.823,1.146-4.299,1.512
			c-1.914,0.475-4.222-0.229-5.862,0.865l0.009,0.051c0,0,0.218,1.114,0.658,1.358c1.592,0.883,3.681-0.074,5.431-0.577
			c0.601-0.173,1.114-0.571,1.687-0.822c0.687-0.302,1.36-0.683,2.098-0.824c0.337-0.063,0.686,0,1.029,0h3.044l0.545-1.048
			c-0.236-0.12-0.475-0.226-0.73-0.288C374.87,532.366,373.951,532.256,373.044,532.28L373.044,532.28z"/>
	</g>
	<path fill="#FFE6D5" d="M357.197,500.968c0,0.191-0.155,0.347-0.346,0.347c-0.192,0-0.347-0.155-0.347-0.347
		c0-0.192,0.155-0.347,0.347-0.347C357.041,500.621,357.197,500.776,357.197,500.968z"/>
	<path fill="#FFE6D5" d="M359.147,499.366c0,0.191-0.155,0.346-0.347,0.346c-0.191,0-0.346-0.155-0.346-0.346
		c0-0.192,0.155-0.348,0.346-0.348C358.992,499.019,359.147,499.174,359.147,499.366z"/>
	<path fill="#FFE6D5" d="M361.096,497.762c0,0.191-0.155,0.347-0.346,0.347c-0.192,0-0.347-0.156-0.347-0.347
		c0-0.192,0.155-0.347,0.347-0.347C360.941,497.415,361.096,497.57,361.096,497.762z"/>
	<path fill="#FFE6D5" d="M362.874,496.375c0,0.192-0.155,0.346-0.347,0.346c-0.192,0-0.347-0.154-0.347-0.346
		c0-0.191,0.155-0.347,0.347-0.347C362.718,496.029,362.874,496.184,362.874,496.375z"/>
	<path fill="#FFE6D5" d="M364.911,494.946c0,0.192-0.154,0.347-0.346,0.347c-0.192,0-0.348-0.155-0.348-0.347
		c0-0.192,0.155-0.347,0.348-0.347C364.756,494.599,364.911,494.754,364.911,494.946z"/>
	<path fill="#FFE6D5" d="M367.076,493.559c0,0.192-0.155,0.347-0.346,0.347c-0.192,0-0.347-0.155-0.347-0.347
		c0-0.191,0.155-0.346,0.347-0.346C366.921,493.213,367.076,493.368,367.076,493.559z"/>
	<path fill="#FFE6D5" d="M370.847,493.559c0,0.192-0.155,0.347-0.347,0.347c-0.191,0-0.346-0.155-0.346-0.347
		c0-0.191,0.154-0.346,0.346-0.346C370.692,493.213,370.847,493.368,370.847,493.559z"/>
	<path fill="#FFE6D5" d="M372.018,495.681c0,0.191-0.155,0.347-0.347,0.347c-0.192,0-0.347-0.156-0.347-0.347
		c0-0.191,0.155-0.347,0.347-0.347C371.863,495.334,372.018,495.49,372.018,495.681z"/>
	<path fill="#FFE6D5" d="M373.1,497.804c0,0.192-0.155,0.348-0.347,0.348c-0.192,0-0.347-0.156-0.347-0.348
		c0-0.191,0.155-0.346,0.347-0.346C372.945,497.458,373.1,497.613,373.1,497.804z"/>
	<path fill="#FFE6D5" d="M374.14,499.496c0,0.192-0.155,0.347-0.347,0.347c-0.191,0-0.346-0.155-0.346-0.347
		c0-0.192,0.154-0.348,0.346-0.348C373.985,499.148,374.14,499.303,374.14,499.496z"/>
	<path fill="#FFE6D5" d="M374.963,501.401c0,0.191-0.154,0.347-0.347,0.347c-0.191,0-0.347-0.155-0.347-0.347
		c0-0.192,0.155-0.346,0.347-0.346C374.809,501.055,374.963,501.21,374.963,501.401z"/>
	<path fill="#FFE6D5" d="M376.003,503.439c0,0.191-0.155,0.347-0.347,0.347c-0.192,0-0.347-0.155-0.347-0.347
		c0-0.191,0.155-0.346,0.347-0.346C375.848,503.093,376.003,503.248,376.003,503.439z"/>
	<g transform="translate(19.5 -103)">
		
			<linearGradient id="SVGID_6_" gradientUnits="userSpaceOnUse" x1="62.5766" y1="296.4031" x2="63.7086" y2="294.69" gradientTransform="matrix(2.7521 0 0 -2.7521 84.2962 1366.7578)">
			<stop  offset="0" style="stop-color:#333333"/>
			<stop  offset="1" style="stop-color:#808080"/>
		</linearGradient>
		<path fill="url(#SVGID_6_)" d="M245.325,563.471l24.313-18.129l-0.429-4.462l-25.139,17.668L245.325,563.471z"/>
		<path fill="#ACE5E3" d="M269.383,534.153l-51.079-2.351l27.629,20.097L269.383,534.153z"/>
		<path fill="#808080" d="M203.384,560.647l-2.676-0.124l-5.536-35.124l2.107-0.669L203.384,560.647z"/>
		<path fill="#E2E2E2" d="M173.274,593.239l-6.184-0.321l9.963-61.217l5.671,0.262L173.274,593.239z"/>
		<path fill="#808080" d="M182.354,531.976l16.553-9.967l-5.353-0.247l-16.553,9.967L182.354,531.976z"/>
		<path fill="#E2E2E2" d="M184.474,532.941l12.921-7.78l5.99,35.488l1.866-1.702l-6.346-36.95l-16.48,9.952l-9.152,61.291
			l2.759-1.661"/>
		<path fill="#518ACE" d="M183.691,557.705l-26.415-64.883l72.829,3.141l14.559,65.003L183.691,557.705z"/>
		<path fill="#E2E2E2" d="M221.814,501.462c-14.589-0.432-30.085-1.739-50.209-2.007l-0.42,0.036l-0.373,0.206
			c-3.665,2.031-5.95,7.077-6.227,11.06l-0.016,0.335l0.096,0.34c5.689,17.53,16.395,47.471,16.395,47.471l0.396,1.108l1.171,0.054
			l60.251,3.974l2.284,0.162l-0.426-2.283c0,0-6.577-34.45-10.901-50.291l-0.045-0.225l-0.157-0.231
			c-2.586-4.17-6.549-7.778-11.238-9.569l-0.274-0.125L221.814,501.462z M221.315,505.016c3.657,1.456,6.997,4.44,9.166,7.854
			c0.24,0.885,0.508,1.959,0.759,2.941l-62.48-3.491c-0.169-0.516-0.379-1.092-0.542-1.59c0.276-2.595,2.005-6.385,4.062-7.694
			C191.292,503.642,206.835,504.199,221.315,505.016L221.315,505.016z M169.346,514.163l62.343,3.456
			c0.974,3.932,1.98,8.368,2.981,12.934l-60.949-3.392C172.174,522.647,170.704,518.268,169.346,514.163L169.346,514.163z
			 M174.363,528.978l60.726,3.382c1.126,5.195,2.083,9.908,2.996,14.416l-58.665-3.259
			C177.75,538.759,176.402,534.909,174.363,528.978L174.363,528.978z M180.065,545.334l58.384,3.247
			c1.145,5.687,2.094,10.465,2.338,11.73l-56.77-3.731C183.805,555.989,181.73,550.067,180.065,545.334L180.065,545.334z"/>
		<path fill="#3B7CBC" d="M157.337,492.873l4.049-1.021l72.031,2.463l-3.73,1.878L157.337,492.873z"/>
		<path fill="#3B7CBC" d="M233.592,494.187l-3.698,1.609l14.485,64.598l25.017-18.936l-1.724-8.812l0.301,2.006L246.181,551.1
			L233.592,494.187z"/>
		<path fill="#5A5B5B" d="M274.76,563.941l-2.677-0.124l-5.536-35.124l2.107-0.668L274.76,563.941z"/>
		<path fill="#E2E2E2" d="M244.65,596.534l-6.184-0.322l9.962-61.216l5.671,0.261L244.65,596.534z"/>
		<path fill="#E2E2E2" d="M253.728,535.251l16.552-9.966l-5.353-0.247l-16.552,9.967L253.728,535.251z"/>
		<path fill="#BCBCBC" d="M244.65,596.534l2.759-1.662l8.441-58.636l12.921-7.782l5.99,35.489l1.866-1.702l-6.346-36.95
			l-16.48,9.951L244.65,596.534z"/>
		
			<linearGradient id="SVGID_7_" gradientUnits="userSpaceOnUse" x1="36.4819" y1="310.804" x2="70.3097" y2="276.4049" gradientTransform="matrix(2.7521 0 0 -2.7521 84.2962 1366.7578)">
			<stop  offset="0" style="stop-color:#FFFFFF"/>
			<stop  offset="1" style="stop-color:#FFFFFF;stop-opacity:0"/>
		</linearGradient>
		<path opacity="0.5" fill="url(#SVGID_7_)" enable-background="new    " d="M172.224,500.23l-0.245,0.184l-3.922,3.187
			l-0.184,0.122l-0.061,0.245l-2.206,5.883l-0.123,0.246l0.123,0.245l16.546,48.168l0.184,0.49l0.49,0.062l59.934,3.799l1.042,0.061
			l-0.184-1.041c-3.504-16.897-6.851-33.464-10.969-50.252v-0.122l-0.123-0.123l-3.186-4.535l-0.061-0.122l-0.123-0.123l-5.638-3.8
			l-0.184-0.123h-0.184l-50.619-2.45H172.224L172.224,500.23z M172.714,501.823l50.129,2.45l5.454,3.677l2.88,4.045v0.123
			c4.009,16.354,7.185,32.587,10.602,49.087l-58.341-3.677l-16.301-47.432l2.083-5.393L172.714,501.823z"/>
	</g>
	<path fill="#ED6324" d="M251.668,277.466l-15.396,7.007l-5.595,7.854l-2.345,11.144l8.938-0.897l5.989-1.709l4.436-3.044
		l3.305-9.268l0.586-7.038L251.668,277.466z"/>
</g>
</svg>
