<svg version="1.1" id="Layer_1" xmlns="http://www.w3.org/2000/svg" xmlns:xlink="http://www.w3.org/1999/xlink" viewBox="0 0 768 430" enable-background="new 0 0 768 430" xml:space="preserve">
<g>
	<path fill="#753D25" d="M473.071,322.52c0,3.149-2.801,5.721-6.228,5.721H300.966c-3.409,0-6.219-2.571-6.219-5.721
		c0-3.133,2.81-5.703,6.219-5.703h165.877C470.271,316.816,473.071,319.387,473.071,322.52z"/>
	<path fill="#753D25" d="M495.366,354.588c0,3.428-2.82,6.228-6.228,6.228h-210.45c-3.427,0-6.236-2.8-6.236-6.228v-1.814
		c0-3.428,2.809-6.237,6.236-6.237h210.45c3.407,0,6.228,2.81,6.228,6.237V354.588z"/>
	<path fill="#EBEBEB" d="M454.37,53.465h-22.13v-6.238c0-3.427-2.782-6.228-6.228-6.228h-84.198c-3.446,0-6.219,2.801-6.219,6.228
		v6.238H313.44c-24.083,0-43.623,19.53-43.623,43.622V261.56c0,24.09,19.54,43.612,43.623,43.612h140.93
		c24.1,0,43.63-19.522,43.63-43.612V97.087C498,72.996,478.47,53.465,454.37,53.465z"/>
	<g>
		<path fill="#505B69" d="M326.117,305.172l-23.328,70.301c-1.474,4.44,0.94,9.25,5.381,10.724c0.894,0.295,1.788,0.442,2.672,0.442
			c3.564,0,6.881-2.267,8.069-5.821l25.095-75.646H326.117z"/>
		<path fill="#505B69" d="M441.712,305.172H423.82l25.096,75.646c1.179,3.555,4.495,5.821,8.052,5.821
			c0.885,0,1.786-0.147,2.671-0.442c4.46-1.474,6.874-6.283,5.399-10.724L441.712,305.172z"/>
	</g>
	<path fill="#A6D5F3" d="M473.071,97.087c0-10.318-8.383-18.703-18.701-18.703H313.44c-10.31,0-18.693,8.384-18.693,18.703v64.285
		h178.324V97.087z"/>
	<g>
		<g>
			<path fill="#F0C24C" d="M313.605,223.354c-10.419,0-18.857,8.438-18.857,18.849c0,10.429,8.438,18.867,18.857,18.867
				c10.41,0,18.868-8.438,18.868-18.867C332.473,231.793,324.015,223.354,313.605,223.354z"/>
			<path fill="#F07D4C" d="M313.605,223.354c10.41,0,18.868,8.438,18.868,18.849c0,10.429-8.458,18.867-18.868,18.867
				c-10.419,0-18.857-8.438-18.857-18.867C294.748,231.793,303.186,223.354,313.605,223.354L313.605,223.354z M313.605,220.517
				c-11.957,0-21.686,9.729-21.686,21.687c0,11.967,9.729,21.695,21.686,21.695c11.959,0,21.688-9.729,21.688-21.695
				C335.292,230.245,325.564,220.517,313.605,220.517L313.605,220.517z"/>
		</g>
		<g>
			<path fill="#F0C24C" d="M454.223,223.354c-10.43,0-18.868,8.438-18.868,18.849c0,10.429,8.438,18.867,18.868,18.867
				c10.391,0,18.849-8.438,18.849-18.867C473.071,231.793,464.613,223.354,454.223,223.354z"/>
			<path fill="#F07D4C" d="M454.223,223.354c10.391,0,18.849,8.438,18.849,18.849c0,10.429-8.458,18.867-18.849,18.867
				c-10.43,0-18.868-8.438-18.868-18.867C435.354,231.793,443.793,223.354,454.223,223.354L454.223,223.354z M454.223,220.517
				c-11.959,0-21.705,9.729-21.705,21.687c0,11.967,9.746,21.695,21.705,21.695c11.939,0,21.668-9.729,21.668-21.695
				C475.891,230.245,466.162,220.517,454.223,220.517L454.223,220.517z"/>
		</g>
	</g>
	<path fill="#91949C" d="M419.526,206.44h-71.245c-1.566,0-2.818-1.253-2.818-2.82c0-1.566,1.252-2.837,2.818-2.837h71.245
		c1.566,0,2.839,1.271,2.839,2.837C422.365,205.188,421.093,206.44,419.526,206.44z"/>
	<path fill="#91949C" d="M419.526,233.452h-71.245c-1.566,0-2.818-1.272-2.818-2.838c0-1.566,1.252-2.829,2.818-2.829h71.245
		c1.566,0,2.839,1.263,2.839,2.829C422.365,232.18,421.093,233.452,419.526,233.452z"/>
	<path fill="#91949C" d="M419.526,260.444h-71.245c-1.566,0-2.818-1.253-2.818-2.818c0-1.567,1.252-2.839,2.818-2.839h71.245
		c1.566,0,2.839,1.271,2.839,2.839C422.365,259.191,421.093,260.444,419.526,260.444z"/>
</g>
</svg>
