<svg version="1.1" xmlns="http://www.w3.org/2000/svg" xmlns:xlink="http://www.w3.org/1999/xlink" viewBox="0 0 768 430" style="enable-background:new 0 0 768 430;" xml:space="preserve"><g id="subway"> <g>  <path style="fill:none;" d="M348.067,167.956h98.669c4.987,0,9.032-4.043,9.032-9.032v-33.621c0-4.988-4.045-9.032-9.032-9.032 h-98.669c-4.989,0-9.031,4.044-9.031,9.032v33.621C339.036,163.913,343.078,167.956,348.067,167.956z"/>  <circle style="fill:none;" cx="353.671" cy="225.944" r="16.839"/>  <path style="fill:none;" d="M384.848,109.748h25.107c4.987,0,9.031-4.043,9.031-9.032v-2.508c0-4.99-4.044-9.033-9.031-9.033 h-25.107c-4.989,0-9.033,4.043-9.033,9.033v2.508C375.815,105.704,379.859,109.748,384.848,109.748z"/>  <circle style="fill:none;" cx="442.238" cy="225.945" r="16.84"/>  <path style="fill:#DDE4D0;" d="M384.883,78.007c5.286,0,9.592-4.01,9.592-8.969c0-4.958-4.306-8.969-9.592-8.969 c-5.283,0-9.591,4.01-9.591,8.969C375.292,73.997,379.6,78.007,384.883,78.007z"/>  <path style="fill:#DDE4D0;" d="M410.354,78.007c5.284,0,9.595-4.01,9.595-8.969c0-4.958-4.311-8.969-9.595-8.969 c-5.281,0-9.592,4.01-9.592,8.969C400.762,73.997,405.072,78.007,410.354,78.007z"/>  <path style="fill:#DDE4D0;" d="M448.114,259.042c13.303-2.002,26.554-14.955,26.554-30.754V112.665 c0-16.285-14.687-31.271-34.63-31.271l-42.486-0.053l-42.814,0.053c-19.945,0-34.603,14.985-34.603,31.271v115.623 c0,15.799,13.223,28.752,26.527,30.754L306.803,315l28.407-7.442l23.104-31.658h78.148l22.623,31.002L488,315L448.114,259.042z  M375.815,98.207c0-4.99,4.044-9.033,9.033-9.033h25.107c4.987,0,9.031,4.043,9.031,9.033v2.508c0,4.989-4.044,9.032-9.031,9.032 h-25.107c-4.989,0-9.033-4.043-9.033-9.032V98.207z M339.036,125.303c0-4.988,4.042-9.032,9.031-9.032h98.669 c4.987,0,9.032,4.044,9.032,9.032v33.621c0,4.989-4.045,9.032-9.032,9.032h-98.669c-4.989,0-9.031-4.043-9.031-9.032V125.303z  M353.671,242.783c-9.3,0-16.84-7.538-16.84-16.838c0-9.301,7.54-16.84,16.84-16.84c9.301,0,16.84,7.54,16.84,16.84 C370.511,235.245,362.972,242.783,353.671,242.783z M425.398,225.945c0-9.301,7.54-16.84,16.84-16.84 c9.301,0,16.84,7.54,16.84,16.84c0,9.3-7.539,16.84-16.84,16.84C432.938,242.785,425.398,235.245,425.398,225.945z"/> </g></g><g id="Layer_1"></g></svg>