<svg version="1.1" xmlns="http://www.w3.org/2000/svg" viewBox="0 0 768 430" xml:space="preserve"><style>.s0{fill:#DDE4D0;stroke-width:1.1;stroke:#DDE4D0;}</style><g transform="translate(-1.7088,-1.7495)"><path d="M457.5 187.8l0-2.4 -0.2-2.4 -0.3-2.4 -0.4-2.3 -0.5-2.3 -0.6-2.3 -0.7-2.3 -0.8-2.3 -0.8-2.2 -1-2.2 -1-2.1 -1.1-2.1 -1.2-2.1 -1.3-2 -1.4-1.9 -1.5-1.9 -1.6-1.8 -1.7-1.7 -1.7-1.7 -1.8-1.6 -1.9-1.5 -1.9-1.4 -2-1.4 -2-1.3 -2.1-1.1 -2.2-1.1 -2.2-1 -2.2-0.9 -2.3-0.8 -2.3-0.7 -2.3-0.6 -2.4-0.5 -2.3-0.4 -2.4-0.3 -2.3-0.2 -2.4-0.1h-2.4l-2.4 0.2 -2.4 0.3 -2.4 0.3 -2.3 0.5 -2.3 0.5 -2.3 0.6 -2.3 0.8 -2.2 0.8 -2.2 0.9 -2.2 1 -2.1 1.1 -2.1 1.2 -2 1.4 -2 1.4 -1.9 1.5 -1.8 1.6 -1.8 1.7 -1.7 1.7 -1.6 1.8 -1.5 1.9 -1.5 1.9 -1.4 1.9 -1.3 2 -1.2 2.1 -1.1 2.1 -1 2.2 -0.9 2.2 -0.8 2.3 -0.7 2.3 -0.6 2.3 -0.5 2.3 -0.4 2.3 -0.3 2.4 -0.2 2.4 -0.1 2.4v2.4l0.1 2.4 0.2 2.4 0.3 2.3 0.4 2.3 0.5 2.3 0.6 2.3 0.7 2.3 0.8 2.2 0.9 2.2 1 2.2 1.1 2.1 1.1 2.1 1.3 2 1.4 2 1.5 1.9 1.6 1.8 1.6 1.8 1.7 1.7 1.8 1.6 1.8 1.6 1.9 1.5 2 1.4 2 1.3 2.1 1.2 2.1 1.1 2.1 1 2.2 0.9 2.2 0.8 2.3 0.7 2.3 0.7 2.3 0.5 2.3 0.4 2.4 0.4 2.3 0.2 2.4 0.2h2.4l2.4-0.1 2.4-0.2 2.4-0.3 2.3-0.4 2.3-0.5 2.3-0.6 2.3-0.7 2.2-0.8 2.2-0.9 2.2-0.9 2.1-1.1 2.1-1.2 2-1.2 2-1.4 1.9-1.4 1.9-1.5 1.8-1.6 1.7-1.7 1.7-1.7 1.6-1.8 1.5-1.9 1.4-1.9 1.4-2 1.2-2 1.1-2.1 1.1-2.1 0.9-2.2 0.8-2.2 0.8-2.3 0.7-2.3 0.6-2.3 0.4-2.3 0.4-2.3 0.3-2.4 0.2-2.4L457.5 187.8z" fill="#DDE4D0"/><path d="M402 123.8V62.8M450.1 143.4l43.2-43.2M526.4 187.7h-61.1M402.4 311.6v-61M276.7 189.2h61.1M356.2 141.5l-43.1-43.2M311.6 276.2l43.2-43.2M491.5 276.7l-43.2-43.1" class="s0"/></g></svg>