<svg version="1.1" id="Layer_1" xmlns="http://www.w3.org/2000/svg" xmlns:xlink="http://www.w3.org/1999/xlink" x="0px" y="0px"
	viewBox="0 0 768 430" enable-background="new 0 0 768 430" xml:space="preserve">
<g>
	<g>
		<g>
			<g>
				<radialGradient id="SVGID_1_" cx="425.376" cy="422.0889" r="47.6592" gradientUnits="userSpaceOnUse">
					<stop  offset="0.0748" style="stop-color:#EEE09A"/>
					<stop  offset="0.2062" style="stop-color:#EFE095"/>
					<stop  offset="0.3439" style="stop-color:#EFE089"/>
					<stop  offset="0.484" style="stop-color:#F0DF74"/>
					<stop  offset="0.5269" style="stop-color:#F1DF6C"/>
					<stop  offset="0.5655" style="stop-color:#F4E373"/>
					<stop  offset="0.5985" style="stop-color:#F8E97E"/>
					<stop  offset="0.9247" style="stop-color:#FDC064"/>
				</radialGradient>
				<path fill="url(#SVGID_1_)" stroke="#C2B956" stroke-width="1.2993" stroke-linecap="round" stroke-linejoin="round" d="
					M420.771,381.336h-2.763c0,0,8.979,22.104,48.812,29.242c0,0,18.42-15.656,17.961-22.562c-0.461-6.91-28.092-7.684-28.092-7.684
					L420.771,381.336z"/>
				<radialGradient id="SVGID_2_" cx="425.376" cy="422.0889" r="47.6592" gradientUnits="userSpaceOnUse">
					<stop  offset="0.0748" style="stop-color:#EEE09A"/>
					<stop  offset="0.2062" style="stop-color:#EFE095"/>
					<stop  offset="0.3439" style="stop-color:#EFE089"/>
					<stop  offset="0.484" style="stop-color:#F0DF74"/>
					<stop  offset="0.5269" style="stop-color:#F1DF6C"/>
					<stop  offset="0.5655" style="stop-color:#F4E373"/>
					<stop  offset="0.5985" style="stop-color:#F8E97E"/>
					<stop  offset="0.9247" style="stop-color:#FDC064"/>
				</radialGradient>
				<path fill="url(#SVGID_2_)" d="M456.69,380.332l-35.919,1.004h-2.763c0,0,8.979,22.104,48.812,29.242
					c0,0,18.42-15.656,17.961-22.562C484.321,381.105,456.69,380.332,456.69,380.332z M465.762,408.883
					c0,0-20.219-4.293-25.958-9.051c-5.736-4.756-15.464-12.48-11.512-12.893c0,0,29.21-3.33,26.41,0
					c-2.798,3.33-12.334,5.846-6.785,6.662c5.549,0.814-7.077,4.367-7.077,4.367s30.435-6.752,31.049-3.211
					C472.5,398.297,465.762,408.883,465.762,408.883z"/>
				<radialGradient id="SVGID_3_" cx="471.4258" cy="313.4102" r="95.4422" gradientUnits="userSpaceOnUse">
					<stop  offset="0.0748" style="stop-color:#EEE09A"/>
					<stop  offset="0.1327" style="stop-color:#EFE095"/>
					<stop  offset="0.1935" style="stop-color:#EFE089"/>
					<stop  offset="0.2552" style="stop-color:#F0DF74"/>
					<stop  offset="0.2742" style="stop-color:#F1DF6C"/>
					<stop  offset="0.4489" style="stop-color:#F4E373"/>
					<stop  offset="0.5985" style="stop-color:#F8E97E"/>
					<stop  offset="0.9247" style="stop-color:#FDC064"/>
				</radialGradient>
				<path fill="url(#SVGID_3_)" stroke="#C2B956" stroke-width="1.2993" stroke-linecap="round" stroke-linejoin="round" d="
					M482.039,346.566c0,0,5.734,17.73,9.649,22.336c3.914,4.605,3.684,8.98,0,17.498c-3.685,8.521-21.644,29.014-23.946,27.631
					c-2.303-1.381-5.525-2.762,0-6.906c5.527-4.146,14.277-16.578,8.059-17.27c-6.216-0.689-40.985,9.9-40.985,9.9
					s-5.525-0.229-5.064-2.303c0.462-2.07,27.63-10.131,27.63-10.131s4.145-3.914-1.381-4.836
					c-5.525-0.92-23.717,3.455-34.999,1.383c-11.283-2.074-4.836-4.541,2.073-3.537c6.907,1.004,37.531-1.068,47.891-5.443
					c0,0,9.443-2.533,8.292-7.369c-1.153-4.834-9.441-20.953-9.441-20.953H482.039z"/>
				<radialGradient id="SVGID_4_" cx="471.4258" cy="313.4102" r="95.4422" gradientUnits="userSpaceOnUse">
					<stop  offset="0.0748" style="stop-color:#EEE09A"/>
					<stop  offset="0.2428" style="stop-color:#EFDD95"/>
					<stop  offset="0.4189" style="stop-color:#F0D189"/>
					<stop  offset="0.5981" style="stop-color:#F2BD74"/>
					<stop  offset="0.5985" style="stop-color:#F2BD74"/>
					<stop  offset="0.9247" style="stop-color:#FDC064"/>
				</radialGradient>
				<path opacity="0.5" fill="url(#SVGID_4_)" d="M491.688,368.902c-3.915-4.605-9.649-22.336-9.649-22.336h-12.224
					c0,0,8.288,16.119,9.441,20.953c1.151,4.836-8.292,7.369-8.292,7.369c-10.359,4.375-40.983,6.447-47.891,5.443
					c-6.909-1.004-13.356,1.463-2.073,3.537c11.282,2.072,29.474-2.303,34.999-1.383c5.525,0.922,1.381,4.836,1.381,4.836
					s-27.168,8.061-27.63,10.131c-0.461,2.074,5.064,2.303,5.064,2.303s34.77-10.59,40.985-9.9
					c6.219,0.691-2.531,13.123-8.059,17.27c-5.525,4.145-2.303,5.525,0,6.906c2.303,1.383,20.262-19.109,23.946-27.631
					C495.372,377.883,495.603,373.508,491.688,368.902z M479.257,388.166c-2.457-2.455-9.672,0.461-14.432,0
					c-4.759-0.461-2.764-4.145-5.219-6.139c-2.456-1.994,5.065-3.072,11.206-4.453c6.14-1.381,10.283-5.219,11.227-7.672
					c0.939-2.455-5.241-12.129-6.163-14.738c-0.92-2.607,5.067-1.688,5.067-1.688s4.912,15.502,7.827,16.729
					c2.917,1.23,3.531,5.682,3.07,10.127C491.381,384.775,481.712,390.625,479.257,388.166z"/>
				<path opacity="0.34" fill="#FFFFFF" d="M456.995,388.781c0,0-16.578,4.604-15.81,5.832
					C441.955,395.842,466.514,388.781,456.995,388.781z"/>
				<path opacity="0.34" fill="#FFFFFF" d="M482.039,393.541c0,0-1.096-1.543-3.09,1.914c-1.997,3.457-6.603,9.443-8.599,11.287
					c-1.994,1.84-3.071,5.986,0,3.836C473.424,408.428,484.516,397.07,482.039,393.541z"/>
				<path opacity="0.34" fill="#FFFFFF" d="M469.43,378.65c0,0-6.295,0.305-5.987,2.455c0.31,2.15,0.613,3.836,7.37,4.299
					c6.755,0.459,12.604-1.076,13.978-3.377C486.163,379.725,475.834,378.016,469.43,378.65z"/>
				<path opacity="0.34" fill="#FFFFFF" d="M467.383,402.178c1.317-3.402,0.92-7.549-2.711-6.723
					c-5.065,1.156-21.336,2.537-19.954,4.531c1.339,1.936,5.295,2.803,7.337,3.559c3.297,1.219,7.398,2.73,10.963,2.762
					C464.923,406.324,466.52,404.41,467.383,402.178z"/>
				<path opacity="0.34" fill="#FFFFFF" d="M435.66,387.861c0,0,13.048-0.463,10.744,0.92c-2.303,1.381-8.75,2.447-10.744,2.988
					C433.665,392.311,427.832,388.629,435.66,387.861z"/>
			</g>
			<g>
				
					<radialGradient id="SVGID_5_" cx="286.2969" cy="417.2656" r="47.6583" gradientTransform="matrix(0.8635 0.5044 -0.5044 0.8635 263.927 -125.999)" gradientUnits="userSpaceOnUse">
					<stop  offset="0.0748" style="stop-color:#EEE09A"/>
					<stop  offset="0.2062" style="stop-color:#EFE095"/>
					<stop  offset="0.3439" style="stop-color:#EFE089"/>
					<stop  offset="0.484" style="stop-color:#F0DF74"/>
					<stop  offset="0.5269" style="stop-color:#F1DF6C"/>
					<stop  offset="0.5655" style="stop-color:#F4E373"/>
					<stop  offset="0.5985" style="stop-color:#F8E97E"/>
					<stop  offset="0.9247" style="stop-color:#FDC064"/>
				</radialGradient>
				<path fill="url(#SVGID_5_)" stroke="#C2B956" stroke-width="1.2993" stroke-linecap="round" stroke-linejoin="round" d="
					M317.252,341.209l-2.386-1.391c0,0-3.391,23.615,27.406,49.867c0,0,23.802-4.229,26.885-10.424
					c3.088-6.199-20.383-20.805-20.383-20.805L317.252,341.209z"/>
				
					<radialGradient id="SVGID_6_" cx="286.2969" cy="417.2656" r="47.6583" gradientTransform="matrix(0.8635 0.5044 -0.5044 0.8635 263.927 -125.999)" gradientUnits="userSpaceOnUse">
					<stop  offset="0.0748" style="stop-color:#EEE09A"/>
					<stop  offset="0.2062" style="stop-color:#EFE095"/>
					<stop  offset="0.3439" style="stop-color:#EFE089"/>
					<stop  offset="0.484" style="stop-color:#F0DF74"/>
					<stop  offset="0.5269" style="stop-color:#F1DF6C"/>
					<stop  offset="0.5655" style="stop-color:#F4E373"/>
					<stop  offset="0.5985" style="stop-color:#F8E97E"/>
					<stop  offset="0.9247" style="stop-color:#FDC064"/>
				</radialGradient>
				<path fill="url(#SVGID_6_)" d="M348.774,358.457l-31.522-17.248l-2.386-1.391c0,0-3.391,23.615,27.406,49.867
					c0,0,23.802-4.229,26.885-10.424C372.245,373.062,348.774,358.457,348.774,358.457z M342.21,387.689
					c0,0-15.294-13.906-17.852-20.908c-2.554-7.002-7.056-18.576-3.438-16.939c0,0,26.902,11.855,22.808,13.322
					c-4.099,1.463-13.599-1.176-9.219,2.328c4.379,3.5-8.316,0.203-8.316,0.203s29.686,9.518,28.43,12.885
					C353.366,381.947,342.21,387.689,342.21,387.689z"/>
				
					<radialGradient id="SVGID_7_" cx="332.3477" cy="308.5908" r="95.441" gradientTransform="matrix(0.8635 0.5044 -0.5044 0.8635 263.927 -125.999)" gradientUnits="userSpaceOnUse">
					<stop  offset="0.0748" style="stop-color:#EEE09A"/>
					<stop  offset="0.1327" style="stop-color:#EFE095"/>
					<stop  offset="0.1935" style="stop-color:#EFE089"/>
					<stop  offset="0.2552" style="stop-color:#F0DF74"/>
					<stop  offset="0.2742" style="stop-color:#F1DF6C"/>
					<stop  offset="0.4489" style="stop-color:#F4E373"/>
					<stop  offset="0.5985" style="stop-color:#F8E97E"/>
					<stop  offset="0.9247" style="stop-color:#FDC064"/>
				</radialGradient>
				<path fill="url(#SVGID_7_)" stroke="#C2B956" stroke-width="1.2993" stroke-linecap="round" stroke-linejoin="round" d="
					M387.69,342.088c0,0-3.984,18.203-2.93,24.152c1.057,5.951-1.346,9.613-8.825,15.111c-7.478,5.498-33.321,14.135-34.612,11.781
					c-1.29-2.355-3.379-5.174,3.485-5.963c6.86-0.793,20.687-7.117,15.668-10.85c-5.021-3.732-40.385-12.121-40.385-12.121
					s-4.656-2.986-3.214-4.543c1.442-1.559,28.97,5.188,28.97,5.188s5.553-1.289,1.244-4.873
					c-4.307-3.582-22.219-8.977-30.917-16.457c-8.698-7.479-1.884-6.359,3.575-2.01c5.457,4.352,32.946,18.006,44.101,19.455
					c0,0,9.427,2.574,10.873-2.182c1.444-4.758,2.415-22.855,2.415-22.855L387.69,342.088z"/>
				
					<radialGradient id="SVGID_8_" cx="332.3477" cy="308.5908" r="95.441" gradientTransform="matrix(0.8635 0.5044 -0.5044 0.8635 263.927 -125.999)" gradientUnits="userSpaceOnUse">
					<stop  offset="0.0748" style="stop-color:#EEE09A"/>
					<stop  offset="0.2428" style="stop-color:#EFDD95"/>
					<stop  offset="0.4189" style="stop-color:#F0D189"/>
					<stop  offset="0.5981" style="stop-color:#F2BD74"/>
					<stop  offset="0.5985" style="stop-color:#F2BD74"/>
					<stop  offset="0.9247" style="stop-color:#FDC064"/>
				</radialGradient>
				<path opacity="0.5" fill="url(#SVGID_8_)" d="M384.761,366.24c-1.055-5.949,2.93-24.152,2.93-24.152l-10.552-6.166
					c0,0-0.971,18.098-2.415,22.855c-1.446,4.756-10.873,2.182-10.873,2.182c-11.154-1.449-38.644-15.104-44.101-19.455
					c-5.459-4.35-12.273-5.469-3.575,2.01c8.698,7.48,26.61,12.875,30.917,16.457c4.309,3.584-1.244,4.873-1.244,4.873
					s-27.527-6.746-28.97-5.188c-1.442,1.557,3.214,4.543,3.214,4.543s35.364,8.389,40.385,12.121
					c5.019,3.732-8.808,10.057-15.668,10.85c-6.864,0.789-4.775,3.607-3.485,5.963c1.291,2.354,27.135-6.283,34.612-11.781
					C383.415,375.854,385.817,372.191,384.761,366.24z M364.311,376.607c-0.881-3.363-8.586-4.482-12.463-7.281
					c-3.875-2.797-0.295-4.973-1.409-7.936c-1.112-2.959,5.926-0.094,11.922,1.809c5.997,1.904,11.512,0.682,13.564-0.965
					c2.049-1.645,1.594-13.113,2.113-15.83c0.521-2.717,5.225,1.094,5.225,1.094s-3.574,15.867-1.678,18.398
					c1.901,2.529,0.186,6.686-2.454,10.291C376.491,379.795,365.192,379.967,364.311,376.607z"/>
				<path opacity="0.34" fill="#FFFFFF" d="M344.778,365.908c0,0-16.637-4.385-16.593-2.938
					C328.229,364.42,352.995,370.709,344.778,365.908z"/>
				<path opacity="0.34" fill="#FFFFFF" d="M364.003,382.648c0,0-0.168-1.885-3.636,0.096c-3.464,1.98-10.463,4.824-13.112,5.408
					c-2.651,0.584-5.674,3.621-1.938,3.312C349.054,391.158,364.361,386.947,364.003,382.648z"/>
				<path opacity="0.34" fill="#FFFFFF" d="M360.626,363.434c0,0-5.59-2.912-6.409-0.9c-0.818,2.01-1.403,3.623,4.196,7.428
					s11.429,5.43,13.772,4.133C374.531,372.799,366.477,366.113,360.626,363.434z"/>
				<path opacity="0.34" fill="#FFFFFF" d="M346.989,382.717c2.856-2.277,4.604-6.057,1.053-7.174
					c-4.958-1.557-19.704-8.57-19.518-6.152c0.181,2.348,3.16,5.092,4.543,6.773c2.229,2.717,5.008,6.09,8.072,7.914
					C342.774,385.053,345.12,384.207,346.989,382.717z"/>
				<path opacity="0.34" fill="#FFFFFF" d="M326.818,354.354c0,0,11.498,6.184,8.814,6.211c-2.683,0.035-8.789-2.297-10.786-2.836
					C322.852,357.191,319.674,351.068,326.818,354.354z"/>
			</g>
			<radialGradient id="SVGID_9_" cx="551.8623" cy="101.5767" r="377.593" gradientUnits="userSpaceOnUse">
				<stop  offset="0.1075" style="stop-color:#EEF3F2"/>
				<stop  offset="0.5269" style="stop-color:#E8EDE2"/>
				<stop  offset="0.7366" style="stop-color:#D8D5CC"/>
				<stop  offset="0.7483" style="stop-color:#D6D3CA"/>
				<stop  offset="1" style="stop-color:#B4B5A1"/>
			</radialGradient>
			<path fill="url(#SVGID_9_)" stroke="#939780" stroke-width="1.2993" stroke-linecap="round" stroke-linejoin="round" d="
				M287.003,96.053l-3.866-2.296c0,0,4.549-54.347,53.593-65.629c49.043-11.282,69.997,24.367,84.964,58.464
				c14.964,34.098-7.367,82.222-20.571,95.114c-13.198,12.896-18.727,30.395-13.814,35c4.911,4.605,8.598,1.842,17.193-5.526
				c8.596-7.366,35.612-31.928,61.399-38.683c25.788-6.754,63.857-16.155,74.91-24.349c11.052-8.193,16.578-5.431,15.656,1.324
				c-0.92,6.754-11.051,13.201-11.051,13.201s9.76,11.974-12.619,25.482c0,0,7.707,0.612,1.874,12.586
				c-5.833,11.974-16.886,18.217-16.886,18.217s11.36-1.945,9.21,6.65c0,0,15.351-7.059,16.886-10.437
				c1.535-3.378,1.531-26.401,6.753-23.946s4.299,5.831,4.299,5.831s1.227-4.604-1.229-13.507
				c-2.455-8.902,10.438-7.48,13.508,3.321c0,0,8.289,4.355,8.597,19.706c0.309,15.349,0,11.665,0,11.665s3.071-6.448,5.834,7.367
				c2.762,13.814-10.44,49.428-40.22,70.305c0,0-19.035,58.023-104.073,61.707c-85.041,3.684-99.778-31.768-99.778-31.768
				s-46.471-10.135-50.098-48.436c-3.626-38.299,43.346-57.947,58.696-75.447c15.349-17.499,17.807-47.893,17.807-47.893
				s-39.604,7.368-48.2-12.282C307.179,122.147,287.003,96.053,287.003,96.053z"/>
			<g>
				<radialGradient id="SVGID_10_" cx="544.2559" cy="213.3188" r="1.3362" gradientUnits="userSpaceOnUse">
					<stop  offset="0.1075" style="stop-color:#EEF3F2"/>
					<stop  offset="0.5269" style="stop-color:#E8EDE2"/>
					<stop  offset="0.7366" style="stop-color:#D8D5CC"/>
					<stop  offset="0.7483" style="stop-color:#D6D3CA"/>
					<stop  offset="1" style="stop-color:#B4B5A1"/>
				</radialGradient>
				<path fill="url(#SVGID_10_)" d="M543.881,215.171c0.29-0.637,0.522-1.974,0.75-3.704
					C544.111,213.576,543.881,215.171,543.881,215.171z"/>
				<radialGradient id="SVGID_11_" cx="551.8623" cy="101.5771" r="377.5913" gradientUnits="userSpaceOnUse">
					<stop  offset="0.1075" style="stop-color:#EEF3F2"/>
					<stop  offset="0.5269" style="stop-color:#E8EDE2"/>
					<stop  offset="0.7366" style="stop-color:#D8D5CC"/>
					<stop  offset="0.7483" style="stop-color:#D6D3CA"/>
					<stop  offset="1" style="stop-color:#B4B5A1"/>
				</radialGradient>
				<path fill="url(#SVGID_11_)" d="M381.966,213.021c3.146,14.698,1.351,9.784-10.622,21.777
					c-11.973,11.995-24.248,24.272-21.489,39.931c2.762,15.66-2.7-13.506,22.75-34.688c0,0-13.541,25.625-1.568,40.135
					c0,0,0.149-39.221,19.262-54.568c19.113-15.346,51.657-44.823,70.077-48.506c18.42-3.682,71.225-17.5,79.208-23.024
					c7.981-5.526,15.902,0.405,4.604,6.753c-11.301,6.349-70.302,19.119-78.899,21.994c-8.597,2.874-15.963,5.345-27.322,25.141
					c-11.359,19.793-22.719,36.062-34.693,48.652c0,0,17.76-8.596,29.297-26.096c11.535-17.498,25.658-40.62,39.168-44.257
					c13.505-3.636,70.302-20.826,69.687-14.687c-0.612,6.139-8.95,17.087-29.77,20.366c0,0,22.08-0.862,18.719,9.348
					s-15.35,13.342-15.35,13.342s-2.604-4.298-14.124-3.185c-11.521,1.113,17.808-0.581,14.736,14.157c0,0,7.678-3.99,6.142,2.765
					c-1.535,6.755-17.425,21.905-29.434,25.382c0,0,10.901-0.93,9.889,4.303c-1.011,5.234-30.495,12.373-30.495,12.373
					s2.726-2.557,2.437-8.338c0,0-15.334,20.617-44.191,16.014c0,0,4.84,4.299,16.695,3.684c11.856-0.611,5.587,7.051-12.704,5.836
					c-18.29-1.213-30.088-7.449-30.088-7.449s9.827,12.971,25.791,15.736c15.963,2.764,46.808-6.143,38.753-17.807
					c0,0,44.522-11.221,44.443-24.352c0,0,16.341-18.594,15.387-28.742l0,0c-0.777,0.371-1.264,0.596-1.264,0.596
					c2.15-8.596-9.21-6.65-9.21-6.65s11.053-6.243,16.886-18.217c5.833-11.974-1.874-12.586-1.874-12.586
					c22.379-13.508,12.619-25.482,12.619-25.482s10.131-6.447,11.051-13.201c0.922-6.755-4.604-9.517-15.656-1.324
					c-11.053,8.194-49.122,17.594-74.91,24.349c-25.787,6.754-52.804,31.316-61.399,38.683c-8.596,7.368-12.282,10.132-17.193,5.526
					c-4.912-4.605,0.616-22.104,13.814-35c0.876-0.854,1.792-1.875,2.733-3.022C403.733,178.777,378.824,198.361,381.966,213.021z"
					/>
				<radialGradient id="SVGID_12_" cx="551.9443" cy="101.5615" r="377.5862" gradientUnits="userSpaceOnUse">
					<stop  offset="0.1075" style="stop-color:#EEF3F2"/>
					<stop  offset="0.5269" style="stop-color:#E8EDE2"/>
					<stop  offset="0.7366" style="stop-color:#D8D5CC"/>
					<stop  offset="0.7483" style="stop-color:#D6D3CA"/>
					<stop  offset="1" style="stop-color:#B4B5A1"/>
				</radialGradient>
				<path fill="url(#SVGID_12_)" d="M575.929,218.02c-0.076,0.133-0.12,0.221-0.12,0.221S575.892,219.236,575.929,218.02z"/>
				<radialGradient id="SVGID_13_" cx="551.8623" cy="101.5771" r="377.5923" gradientUnits="userSpaceOnUse">
					<stop  offset="0.1075" style="stop-color:#EEF3F2"/>
					<stop  offset="0.5269" style="stop-color:#E8EDE2"/>
					<stop  offset="0.7366" style="stop-color:#D8D5CC"/>
					<stop  offset="0.7483" style="stop-color:#D6D3CA"/>
					<stop  offset="1" style="stop-color:#B4B5A1"/>
				</radialGradient>
				<path fill="url(#SVGID_13_)" d="M581.643,225.607c-2.443-12.217-5.126-8.592-5.714-7.588c-0.037,1.217-0.12,0.221-0.12,0.221
					s0.044-0.088,0.12-0.221c0.033-1.117,0.027-4.098-0.12-11.444c-0.308-15.351-8.597-19.706-8.597-19.706
					c-3.07-10.801-15.963-12.223-13.508-3.321c2.455,8.904,1.229,13.507,1.229,13.507s0.923-3.376-4.299-5.831
					c-4.235-1.994-5.032,12.791-6.003,20.242c0.904-3.678,2.701-8.928,5.753-10.111c4.803-1.864,1.418,16.885,1.418,16.885
					s9.271-16.577,10.191-9.692c0.921,6.887-5.412,22.28-5.412,22.28s12.78-27.324,14.93-9.863
					c2.151,17.456-15.655,33.504-7.675,28.898c7.981-4.605,12.585-19.957,11.973-8.488s-28.857,60.371-25.425,29.055
					c3.435-31.312-24.785-40.857-18.783-33.002c6,7.859,12.279,17.041,9.822,38.529c-2.455,21.49-13.301,42.029-11.051,15.965
					c2.249-26.064-6.756-48.506-6.14-8.596c0.614,39.908-42.193,63.24-36.532,57.719c5.659-5.525,1.842-14.738,0-8.906
					c-1.844,5.832-20.879,18.422-18.269,7.68c2.609-10.746-17.96-16.889-11.94-11.363c6.019,5.525,5.032,17.807,1.691,13.51
					c-3.338-4.299-20.297-7.062-4.48,2.455c15.818,9.518-46.044,12.896-49.279,7.367c-3.24-5.525,27.629-0.92,9.442-5.221
					c-18.185-4.297-25.701,8.295-27.175,0c-1.471-8.293,13.432-13.812,4.836-13.199c-8.594,0.613-12.587,14.43-15.628,6.451
					c-3.039-7.982-2.486-1.539-2.179,4.293s-36.532-12.277-15.043-17.527c21.491-5.25,32.542-21.131,32.542-21.131
					c-31.007,25.193-85.04,23.002-96.092-25.277s46.97-58.864,76.712-98.467c29.739-39.605,34.116-62.937,34.116-78.048
					c0-15.109-3.684-8.062-3.684-8.062c-4.302,36.409-41.753,54.487-56.438,48.04s11.616-21.797,10.081-30.475
					c-1.533-8.678,6.14-0.84,14.43-21.238c8.289-20.398-8.597-50.213-27.388-46.53c-18.791,3.684-22.347,37.147-17.073,43.936
					c5.274,6.79-2.251,11.594-7.003,4.424c-4.75-7.168-20.347-6.953-16.832-9.786c3.517-2.831,3.824-18.618,1.401-22.997
					c-2.426-4.377,1.504-9.152,1.504-9.152c17.109-28.438,69.028-21.923,69.521-21.862c-10.582-4.27-23.26-5.393-38.745-1.832
					c-49.044,11.282-53.593,65.629-53.593,65.629l3.866,2.296c0,0,20.176,26.094,28.773,45.742c8.597,19.65,48.2,12.282,48.2,12.282
					s-2.458,30.394-17.807,47.893c-15.351,17.5-62.322,37.148-58.696,75.447c3.627,38.301,50.098,48.436,50.098,48.436
					s14.737,35.451,99.778,31.768c85.038-3.684,104.073-61.707,104.073-61.707C571.202,275.035,584.404,239.422,581.643,225.607z"/>
			</g>
			<radialGradient id="SVGID_14_" cx="505.71" cy="176.9209" r="144.3255" gradientUnits="userSpaceOnUse">
				<stop  offset="0.1075" style="stop-color:#EEF3F2"/>
				<stop  offset="0.5269" style="stop-color:#E8EDE2"/>
				<stop  offset="0.7366" style="stop-color:#D8D5CC"/>
				<stop  offset="0.7483" style="stop-color:#D6D3CA"/>
				<stop  offset="1" style="stop-color:#B4B5A1"/>
			</radialGradient>
			<path fill="url(#SVGID_14_)" d="M444.635,223.431c0,0,17.892-10.161,20.038,0c0,0,35.921-17.177,31.315-21.774
				c-4.604-4.599-20.577-2.242-20.577-2.242s23.34-10.859,30.401-4.766c7.06,6.093-11.273,18.372-11.273,18.372
				s6.666,4.989-3.465,13.548s-25.479,17.65-25.479,17.65s18.729-14.678,17.5-20.788c-1.228-6.11-16.888,3.138-16.888,3.138
				s4.04,16.229-34.512,24.828c0,0,24.446-10.361,25.796-19.609C458.84,222.539,444.635,223.431,444.635,223.431z"/>
			<radialGradient id="SVGID_15_" cx="462.3057" cy="244.6396" r="55.8365" gradientUnits="userSpaceOnUse">
				<stop  offset="0.1075" style="stop-color:#EEF3F2"/>
				<stop  offset="0.5269" style="stop-color:#E8EDE2"/>
				<stop  offset="0.7366" style="stop-color:#D8D5CC"/>
				<stop  offset="0.7483" style="stop-color:#D6D3CA"/>
				<stop  offset="1" style="stop-color:#B4B5A1"/>
			</radialGradient>
			<path fill="url(#SVGID_15_)" d="M439.188,256.617c0,0,21.332-10.943,23.716-2.863c2.384,8.084-13.276,21.201-36.607,19.553
				c0,0,27.18-6.256,25.104-13.008S439.188,256.617,439.188,256.617z"/>
			<radialGradient id="SVGID_16_" cx="512.4287" cy="214.5195" r="66.1086" gradientUnits="userSpaceOnUse">
				<stop  offset="0.1075" style="stop-color:#EEF3F2"/>
				<stop  offset="0.5269" style="stop-color:#E8EDE2"/>
				<stop  offset="0.7366" style="stop-color:#D8D5CC"/>
				<stop  offset="0.7483" style="stop-color:#D6D3CA"/>
				<stop  offset="1" style="stop-color:#B4B5A1"/>
			</radialGradient>
			<path fill="url(#SVGID_16_)" d="M477.722,248.633c0,0,35.373-14.795,29.707-19.953c-5.667-5.158-17.121-1.477-17.121-1.477
				s16.44-9.021,21.346-3.772C516.557,228.68,511.34,241.338,477.722,248.633z"/>
			<path opacity="0.51" fill="#FFFFFF" d="M367.076,108.796c0,0-19.834,24.406-14.152,27.937
				c5.678,3.529,39.757-11.223,46.663-34.931c6.908-23.71-1.526-71.426-40.827-69.274c-39.305,2.151-47.386,13.79-33.671,11.947
				c13.713-1.841,37.199-8.447,50.093,16.499C388.075,85.922,370.158,104.831,367.076,108.796z"/>
			<g>
				<path fill="none" d="M575.929,218.02c-0.076,0.133-0.12,0.221-0.12,0.221S575.892,219.236,575.929,218.02z"/>
				<radialGradient id="SVGID_17_" cx="551.8652" cy="101.5767" r="377.5944" gradientUnits="userSpaceOnUse">
					<stop  offset="0.1075" style="stop-color:#EEF3F2"/>
					<stop  offset="0.5269" style="stop-color:#E8EDE2"/>
					<stop  offset="0.7366" style="stop-color:#D8D5CC"/>
					<stop  offset="0.7483" style="stop-color:#D6D3CA"/>
					<stop  offset="1" style="stop-color:#B4B5A1"/>
				</radialGradient>
				<path fill="url(#SVGID_17_)" d="M351.543,335.922c-6.84-8.764,3.836-12.074,3.836-12.074
					c-31.622,3.99-60.786-17.496-64.365-49.119c-3.576-31.619,30.185-48.639,47.943-63.278c17.76-14.639,21.642-27.288,25.02-37.745
					c3.379-10.457,1.227-9.499,19.34-23.62c18.115-14.123,21.015-42.918,21.015-42.918s-1.367,9.456-15.795,27.875
					c-14.429,18.42-52.544,19.479-55.874,13.105c-3.332-6.375,16.627-21.757,20.262-28.762c3.634-7.006-1.814-9.276-1.814-9.276
					l-10.474,12.96l-21.146,24.092c12.855,12.786,44.486,6.915,44.486,6.915s-2.458,30.394-17.807,47.893
					c-15.351,17.5-62.322,37.148-58.696,75.447c3.627,38.301,50.098,48.436,50.098,48.436s7.136,17.09,39.961,26.303
					C369.167,347.334,356.223,341.922,351.543,335.922z"/>
			</g>
			<radialGradient id="SVGID_18_" cx="423.0625" cy="269.5244" r="100.7795" gradientUnits="userSpaceOnUse">
				<stop  offset="0.1075" style="stop-color:#EEF3F2"/>
				<stop  offset="0.5269" style="stop-color:#E8EDE2"/>
				<stop  offset="0.7366" style="stop-color:#D8D5CC"/>
				<stop  offset="0.7483" style="stop-color:#D6D3CA"/>
				<stop  offset="1" style="stop-color:#B4B5A1"/>
			</radialGradient>
			<path opacity="0.5" fill="url(#SVGID_18_)" d="M305.644,270.43c0,0-7.059,21.562,12.894,29.203c0,0-6.008,2.98-11.051,0
				c-5.042-2.982,0.003,14.084,28.554,9.785c0,0-10.719-0.566-13.649-3.965c-2.932-3.4,20.706,3.188,34.523-2.1
				c0,0-19.647,1.768-32.851-7.441c-13.201-9.211,0.004-1.533,8.599-1.842C341.256,293.762,309.021,287.01,305.644,270.43z"/>
			<path opacity="0.51" fill="#FFFFFF" d="M411.867,211.45c0,0-32.849,27.357-34.077,51.917
				c-1.228,24.562,28.858-17.418,42.06-36.799C433.052,207.188,443.487,184.395,411.867,211.45z"/>
			<path opacity="0.51" fill="#FFFFFF" d="M369.438,192.793c0,0-9.759,8.812-36.775,30.638
				c-27.019,21.825-34.311,34.255-13.78,56.745c20.533,22.49,45.095,11.746,45.095,11.746s-5.538-14.137,0-31.623
				c0,0-11.668,10.131-11.053,23.949c0.614,13.814-20.864,0-3.523-27.631C366.739,228.986,382.269,214.624,369.438,192.793z"/>
			<path opacity="0.51" fill="#FFFFFF" d="M432.679,235.211c0,0,17.243-10.405,18.721-3.424
				c1.476,6.979-21.418,16.846-21.418,16.846S411.433,255.561,432.679,235.211z"/>
			<path opacity="0.51" fill="#FFFFFF" d="M431.695,260.299c0,0,10.565-3.434,8.418,1.814c-2.15,5.248-19.034,8.316-19.034,8.316
				S424.202,263.982,431.695,260.299z"/>
			<path opacity="0.51" fill="#FFFFFF" d="M516.248,266.439c0,0,18.123,34.693-18.874,64.164c0,0,9.259-23.33-1.896-14.428
				c-11.156,8.902-9.679,17.434-17.756,19.746c-8.079,2.312-6.353-17.289-21.365-17.289c-15.016,0-0.802,9.883-1.654,15.041
				c-0.854,5.162-20.169-1.535-13.542,4.912c6.628,6.447,13.874,9.879,7.64,10.773c-6.231,0.895-25.268,1.869-22.504,0
				c2.766-1.869,10.132-7.09-5.217-8.01c-15.353-0.922-23.947,4.299-24.255,2.459c-0.308-1.844,1.535-8.963,19.341-17.225
				c17.808-8.26-21.82-3.836-34.199,7.09c0,0-4.248,2.764-4.21,0.307c0.034-2.455-7.167-4.346-5.151,1.941
				c2.013,6.287-9.855,5.318-11.393,0c-1.535-5.318,20.343-12.354,34.273-25.258c13.926-12.908,14.847-16.902,33.269-11.988
				c18.419,4.914,30.973,4.523,45.419-9.25c14.448-13.775,4.622-7.639,14.139-11.32
				C497.829,274.422,513.792,274.422,516.248,266.439z"/>
			<path opacity="0.51" fill="#FFFFFF" d="M528.528,239.574c0,0,13.82,9.963,9.52,36.383c-4.303,26.422-0.922-8.596-11.053-19.34
				C516.864,245.871,525.476,236.48,528.528,239.574z"/>
			<g>
				<g>
					
						<radialGradient id="SVGID_19_" cx="-2259.2554" cy="740.9707" r="22.7348" gradientTransform="matrix(0.4671 0.1211 -0.1729 0.6668 1478.2351 -146.3057)" gradientUnits="userSpaceOnUse">
						<stop  offset="0.1075" style="stop-color:#EEF3F2"/>
						<stop  offset="0.5269" style="stop-color:#E8EDE2"/>
						<stop  offset="0.7366" style="stop-color:#D8D5CC"/>
						<stop  offset="0.7483" style="stop-color:#D6D3CA"/>
						<stop  offset="1" style="stop-color:#B4B5A1"/>
					</radialGradient>
					<path fill="url(#SVGID_19_)" stroke="#939780" stroke-width="0.749" stroke-linecap="round" stroke-linejoin="round" d="
						M302.724,85.511c0,0,5.748-24.429-3.387-27.016c-9.137-2.589-16.361,8.75-15.459,23.569
						C284.78,96.885,302.724,85.511,302.724,85.511z"/>
					<g>
						
							<linearGradient id="SVGID_20_" gradientUnits="userSpaceOnUse" x1="270.4692" y1="663.5068" x2="265.4677" y2="694.9162" gradientTransform="matrix(0.968 0.251 -0.251 0.968 204.6123 -644.6016)">
							<stop  offset="0" style="stop-color:#FFFFFF"/>
							<stop  offset="0.7111" style="stop-color:#D2CAA9"/>
						</linearGradient>
						<path fill="url(#SVGID_20_)" d="M304.148,77.278c0.431-9.694-3.751-16.791-9.342-15.845
							c-5.59,0.941-10.472,9.565-10.906,19.261c-0.433,9.694,3.749,16.788,9.342,15.847
							C298.836,95.596,303.715,86.976,304.148,77.278z"/>
						<path fill="#B0988F" d="M290.778,96.754h-0.003c-4.551-1.181-7.472-7.77-7.103-16.024c0.439-9.851,5.438-18.645,11.146-19.605
							c0.837-0.143,1.664-0.109,2.455,0.096c4.552,1.179,7.471,7.767,7.104,16.022c-0.44,9.848-5.441,18.645-11.148,19.607
							C292.393,96.991,291.568,96.959,290.778,96.754L290.778,96.754z M297.115,61.833c-0.747-0.193-1.528-0.223-2.32-0.09
							c-5.456,0.918-10.24,9.403-10.666,18.915c-0.355,7.984,2.443,14.351,6.806,15.483l0,0c0.749,0.193,1.529,0.223,2.319,0.089
							c5.457-0.92,10.243-9.406,10.668-18.916C304.277,69.33,301.478,62.965,297.115,61.833L297.115,61.833z"/>
						
							<radialGradient id="SVGID_21_" cx="-2233.6123" cy="742.1602" r="30.0951" gradientTransform="matrix(0.4671 0.1211 -0.1729 0.6668 1478.2351 -146.3057)" gradientUnits="userSpaceOnUse">
							<stop  offset="0.5704" style="stop-color:#009088"/>
							<stop  offset="1" style="stop-color:#18524F"/>
						</radialGradient>
						<path fill="url(#SVGID_21_)" d="M298.886,66.44c-3.969,0.183-7.708,6.371-8.357,13.828
							c-0.644,7.456,2.048,13.352,6.015,13.167c0.68-0.031,1.354-0.248,2.005-0.61c2.983-3.587,5.128-9.389,5.406-15.652
							c0.129-2.911-0.164-5.581-0.777-7.875C302.101,67.438,300.614,66.36,298.886,66.44z"/>
						<g>
							
								<radialGradient id="SVGID_22_" cx="2781.0244" cy="809.0801" r="12.5393" gradientTransform="matrix(-0.4924 0.1556 -0.0294 -0.6592 1692.8096 180.939)" gradientUnits="userSpaceOnUse">
								<stop  offset="0" style="stop-color:#565354"/>
								<stop  offset="0.2635" style="stop-color:#464344"/>
								<stop  offset="0.7162" style="stop-color:#2F2C2C"/>
								<stop  offset="1" style="stop-color:#262324"/>
							</radialGradient>
							<path fill="url(#SVGID_22_)" d="M300.827,70.317c-2.881,0.125-5.598,4.657-6.069,10.125c-0.466,5.472,1.49,9.801,4.375,9.677
								c0.494-0.022,0.984-0.182,1.458-0.443c0.058-0.071,0.113-0.159,0.171-0.23c1.786-3.396,2.987-7.706,3.192-12.274
								c0.082-1.817-0.02-3.526-0.244-5.126C302.952,70.915,301.963,70.269,300.827,70.317z"/>
						</g>
						<path opacity="0.88" fill="#EDEBD4" d="M303.129,72.476c-0.069-2.155-1.059-3.615-2.211-3.257
							c-1.15,0.355-2.031,2.393-1.96,4.548c0.067,2.156,1.054,3.615,2.208,3.259C302.316,76.667,303.195,74.633,303.129,72.476z"/>
						<path opacity="0.21" fill="#FFFFFF" d="M293.734,92.61c0,0,4.189-13.014-0.185-23.103c-3.661-8.439,10.092-9.239,9.633,9.268
							C302.899,90.184,293.364,95.647,293.734,92.61z"/>
					</g>
				</g>
				<g>
					<radialGradient id="SVGID_23_" cx="346.832" cy="70.9209" r="22.736" gradientUnits="userSpaceOnUse">
						<stop  offset="0.1075" style="stop-color:#EEF3F2"/>
						<stop  offset="0.5269" style="stop-color:#E8EDE2"/>
						<stop  offset="0.7366" style="stop-color:#D8D5CC"/>
						<stop  offset="0.7483" style="stop-color:#D6D3CA"/>
						<stop  offset="1" style="stop-color:#B4B5A1"/>
					</radialGradient>
					<path fill="url(#SVGID_23_)" stroke="#939780" stroke-width="1.2993" stroke-linecap="round" stroke-linejoin="round" d="
						M368.577,83.971c0,0-1.173-36.424-20.849-36.731c-19.672-0.308-28.271,18.256-18.751,38.753
						C338.493,106.49,368.577,83.971,368.577,83.971z"/>
					<g>
						<linearGradient id="SVGID_24_" gradientUnits="userSpaceOnUse" x1="351.0732" y1="56.9858" x2="343.8183" y2="102.5468">
							<stop  offset="0" style="stop-color:#FFFFFF"/>
							<stop  offset="0.7111" style="stop-color:#D2CAA9"/>
						</linearGradient>
						<path fill="url(#SVGID_24_)" d="M367.154,71.882c-4.176-13.782-16.257-22.23-26.981-18.863
							c-10.728,3.359-16.037,17.256-11.865,31.039c4.176,13.784,16.256,22.229,26.984,18.867
							C366.02,99.56,371.328,85.666,367.154,71.882z"/>
						<path fill="#B0988F" d="M350.457,104.123C350.457,104.123,350.457,104.123,350.457,104.123
							c-9.745-0.001-19.035-8.197-22.589-19.931c-4.241-14.004,1.217-28.184,12.165-31.614c1.608-0.503,3.282-0.759,4.978-0.759
							c9.743,0,19.029,8.194,22.584,19.928c4.24,14-1.218,28.183-12.166,31.616C353.822,103.866,352.147,104.123,350.457,104.123
							L350.457,104.123z M345.011,52.739c-1.601,0-3.183,0.242-4.7,0.719c-10.469,3.277-15.656,16.944-11.561,30.466
							c3.436,11.35,12.364,19.277,21.706,19.277c0.001,0,0.001,0,0.001,0c1.599,0,3.179-0.241,4.696-0.716
							c10.466-3.282,15.654-16.95,11.562-30.471C363.275,60.666,354.352,52.739,345.011,52.739L345.011,52.739z"/>
						<radialGradient id="SVGID_25_" cx="372.4766" cy="72.1108" r="30.0962" gradientUnits="userSpaceOnUse">
							<stop  offset="0.5704" style="stop-color:#009088"/>
							<stop  offset="1" style="stop-color:#18524F"/>
						</radialGradient>
						<path fill="url(#SVGID_25_)" d="M350.957,58.568c-7.864,1.701-12.147,11.762-9.571,22.475
							c2.582,10.714,11.049,18.018,18.912,16.314c1.347-0.293,2.586-0.843,3.705-1.59c4.121-6.126,5.403-15.061,2.708-23.965
							c-1.257-4.137-3.234-7.783-5.658-10.783C357.928,58.799,354.386,57.827,350.957,58.568z"/>
						<g>
							
								<radialGradient id="SVGID_26_" cx="98.5312" cy="375.0674" r="12.5386" gradientTransform="matrix(-0.907 0.3981 -0.4019 -0.9157 599.8105 382.0205)" gradientUnits="userSpaceOnUse">
								<stop  offset="0" style="stop-color:#565354"/>
								<stop  offset="0.2635" style="stop-color:#464344"/>
								<stop  offset="0.7162" style="stop-color:#2F2C2C"/>
								<stop  offset="1" style="stop-color:#262324"/>
							</radialGradient>
							<path fill="url(#SVGID_26_)" d="M356.869,63.307c-5.717,1.229-8.809,8.584-6.909,16.443
								c1.907,7.856,8.091,13.229,13.812,12.003c0.979-0.21,1.878-0.616,2.69-1.156c0.08-0.119,0.145-0.262,0.223-0.384
								c1.82-5.423,1.99-11.917,0.026-18.412c-0.786-2.582-1.879-4.949-3.16-7.113C361.442,63.375,359.123,62.828,356.869,63.307z"
								/>
						</g>
						<path opacity="0.88" fill="#EDEBD4" d="M362.608,65.504c-1.259-3.004-4.002-4.696-6.126-3.773
							c-2.126,0.919-2.831,4.103-1.569,7.106c1.255,3.004,3.996,4.694,6.124,3.777C363.163,71.69,363.864,68.511,362.608,65.504z"/>
						<path opacity="0.21" fill="#FFFFFF" d="M354.232,97.221c0,0,1.638-19.817-12.38-32.399
							c-11.736-10.524,15.438-16.658,24.143,9.515C371.358,90.473,355.074,101.623,354.232,97.221z"/>
					</g>
				</g>
				<g>
					<g>
						<radialGradient id="SVGID_27_" cx="254.335" cy="154.9595" r="120.8409" gradientUnits="userSpaceOnUse">
							<stop  offset="0.0748" style="stop-color:#EEE09A"/>
							<stop  offset="0.2062" style="stop-color:#EFE095"/>
							<stop  offset="0.3439" style="stop-color:#EFE089"/>
							<stop  offset="0.484" style="stop-color:#F0DF74"/>
							<stop  offset="0.5269" style="stop-color:#F1DF6C"/>
							<stop  offset="0.5655" style="stop-color:#F4E373"/>
							<stop  offset="0.5985" style="stop-color:#F8E97E"/>
							<stop  offset="0.9247" style="stop-color:#FDC064"/>
						</radialGradient>
						<path fill="url(#SVGID_27_)" stroke="#C2B956" stroke-width="1.2993" stroke-linecap="round" stroke-linejoin="round" d="
							M290.729,186.349c0.009,0.005,0.022,0.005,0.03,0.012c-0.015-0.008-0.033-0.02-0.049-0.028
							C290.72,186.339,290.72,186.343,290.729,186.349z"/>
						<radialGradient id="SVGID_28_" cx="254.5625" cy="156.0552" r="119.0782" gradientUnits="userSpaceOnUse">
							<stop  offset="0.0748" style="stop-color:#EEE09A"/>
							<stop  offset="0.2062" style="stop-color:#EFE095"/>
							<stop  offset="0.3439" style="stop-color:#EFE089"/>
							<stop  offset="0.484" style="stop-color:#F0DF74"/>
							<stop  offset="0.5269" style="stop-color:#F1DF6C"/>
							<stop  offset="0.5655" style="stop-color:#F4E373"/>
							<stop  offset="0.5985" style="stop-color:#F8E97E"/>
							<stop  offset="0.9247" style="stop-color:#FDC064"/>
						</radialGradient>
						<path fill="url(#SVGID_28_)" stroke="#C2B956" stroke-width="1.2993" stroke-linecap="round" stroke-linejoin="round" d="
							M287.484,128.352c-0.075,0.01-0.244,0.04-0.481,0.147l0.528-0.152C287.531,128.347,287.499,128.35,287.484,128.352z"/>
						<radialGradient id="SVGID_29_" cx="287.5078" cy="128.3496" r="0.0167" gradientUnits="userSpaceOnUse">
							<stop  offset="0.0748" style="stop-color:#EEE09A"/>
							<stop  offset="0.2062" style="stop-color:#EFE095"/>
							<stop  offset="0.3439" style="stop-color:#EFE089"/>
							<stop  offset="0.484" style="stop-color:#F0DF74"/>
							<stop  offset="0.5269" style="stop-color:#F1DF6C"/>
							<stop  offset="0.5655" style="stop-color:#F4E373"/>
							<stop  offset="0.5985" style="stop-color:#F8E97E"/>
							<stop  offset="0.9247" style="stop-color:#FDC064"/>
						</radialGradient>
						<path fill="url(#SVGID_29_)" stroke="#C2B956" stroke-width="1.2993" stroke-linecap="round" stroke-linejoin="round" d="
							M287.484,128.352c0.015-0.002,0.047-0.005,0.047-0.005S287.512,128.349,287.484,128.352z"/>
						<radialGradient id="SVGID_30_" cx="254.5288" cy="155.917" r="118.9091" gradientUnits="userSpaceOnUse">
							<stop  offset="0.0748" style="stop-color:#EEE09A"/>
							<stop  offset="0.2062" style="stop-color:#EFE095"/>
							<stop  offset="0.3439" style="stop-color:#EFE089"/>
							<stop  offset="0.484" style="stop-color:#F0DF74"/>
							<stop  offset="0.5269" style="stop-color:#F1DF6C"/>
							<stop  offset="0.5655" style="stop-color:#F4E373"/>
							<stop  offset="0.5985" style="stop-color:#F8E97E"/>
							<stop  offset="0.9247" style="stop-color:#FDC064"/>
						</radialGradient>
						<path fill="url(#SVGID_30_)" stroke="#C2B956" stroke-width="1.2993" stroke-linecap="round" stroke-linejoin="round" d="
							M309.021,169.013c4.3-12.386,34.386-39.189,40.831-52.083c6.448-12.894-13.507-16.58-23.638-15.991
							c-10.131,0.587-21.186-11.533-21.186-11.533c-11.81-9.133-23.024,6.646-27.937,9.348c-4.912,2.699-32.541,10.5-39.909,7.273
							c-7.369-3.226-23.641,0.462-3.991,13.331c19.363,12.682,53.309,9.1,54.292,8.993c0.027-0.003,0.047-0.005,0.047-0.005
							s28.242-2.31,41.446-6.558c0,0-15.656,26.188-21.183,44.281c-5.021,16.436-13.669,20.64-16.406,20.448
							c0.168,0.069,0.363,0.149,0.581,0.243C298.508,188.101,306.358,176.691,309.021,169.013z"/>
						<radialGradient id="SVGID_31_" cx="254.5483" cy="155.9771" r="118.7774" gradientUnits="userSpaceOnUse">
							<stop  offset="0.0748" style="stop-color:#EEE09A"/>
							<stop  offset="0.2062" style="stop-color:#EFE095"/>
							<stop  offset="0.3439" style="stop-color:#EFE089"/>
							<stop  offset="0.484" style="stop-color:#F0DF74"/>
							<stop  offset="0.5269" style="stop-color:#F1DF6C"/>
							<stop  offset="0.5655" style="stop-color:#F4E373"/>
							<stop  offset="0.5985" style="stop-color:#F8E97E"/>
							<stop  offset="0.9247" style="stop-color:#FDC064"/>
						</radialGradient>
						<path fill="url(#SVGID_31_)" stroke="#C2B956" stroke-width="1.2993" stroke-linecap="round" stroke-linejoin="round" d="
							M290.76,186.361c0.398,0.188,0.801,0.316,1.21,0.4c-0.218-0.094-0.413-0.174-0.581-0.243
							C291.128,186.501,290.903,186.453,290.76,186.361z"/>
						<radialGradient id="SVGID_32_" cx="254.5952" cy="156.063" r="118.5493" gradientUnits="userSpaceOnUse">
							<stop  offset="0.0748" style="stop-color:#EEE09A"/>
							<stop  offset="0.2062" style="stop-color:#EFE095"/>
							<stop  offset="0.3439" style="stop-color:#EFE089"/>
							<stop  offset="0.484" style="stop-color:#F0DF74"/>
							<stop  offset="0.5269" style="stop-color:#F1DF6C"/>
							<stop  offset="0.5655" style="stop-color:#F4E373"/>
							<stop  offset="0.5985" style="stop-color:#F8E97E"/>
							<stop  offset="0.9247" style="stop-color:#FDC064"/>
						</radialGradient>
						<path fill="url(#SVGID_32_)" stroke="#C2B956" stroke-width="1.2993" stroke-linecap="round" stroke-linejoin="round" d="
							M290.711,186.333c0.016,0.008,0.034,0.02,0.049,0.028c0.144,0.092,0.368,0.141,0.629,0.157
							C290.794,186.275,290.528,186.195,290.711,186.333z"/>
					</g>
					<g>
						<radialGradient id="SVGID_33_" cx="254.335" cy="154.9595" r="120.8409" gradientUnits="userSpaceOnUse">
							<stop  offset="0.0748" style="stop-color:#EEE09A"/>
							<stop  offset="0.2062" style="stop-color:#EFE095"/>
							<stop  offset="0.3439" style="stop-color:#EFE089"/>
							<stop  offset="0.484" style="stop-color:#F0DF74"/>
							<stop  offset="0.5269" style="stop-color:#F1DF6C"/>
							<stop  offset="0.5655" style="stop-color:#F4E373"/>
							<stop  offset="0.5985" style="stop-color:#F8E97E"/>
							<stop  offset="0.9247" style="stop-color:#FDC064"/>
						</radialGradient>
						<path fill="url(#SVGID_33_)" stroke="#C2B956" stroke-width="1.2993" stroke-linecap="round" stroke-linejoin="round" d="
							M290.729,186.349c0.009,0.005,0.022,0.005,0.03,0.012c-0.015-0.008-0.033-0.02-0.049-0.028
							C290.72,186.339,290.72,186.343,290.729,186.349z"/>
						<radialGradient id="SVGID_34_" cx="254.5625" cy="156.0552" r="119.0782" gradientUnits="userSpaceOnUse">
							<stop  offset="0.0748" style="stop-color:#EEE09A"/>
							<stop  offset="0.2062" style="stop-color:#EFE095"/>
							<stop  offset="0.3439" style="stop-color:#EFE089"/>
							<stop  offset="0.484" style="stop-color:#F0DF74"/>
							<stop  offset="0.5269" style="stop-color:#F1DF6C"/>
							<stop  offset="0.5655" style="stop-color:#F4E373"/>
							<stop  offset="0.5985" style="stop-color:#F8E97E"/>
							<stop  offset="0.9247" style="stop-color:#FDC064"/>
						</radialGradient>
						<path fill="url(#SVGID_34_)" stroke="#C2B956" stroke-width="1.2993" stroke-linecap="round" stroke-linejoin="round" d="
							M287.484,128.352c-0.075,0.01-0.244,0.04-0.481,0.147l0.528-0.152C287.531,128.347,287.499,128.35,287.484,128.352z"/>
						<radialGradient id="SVGID_35_" cx="287.5078" cy="128.3496" r="0.0167" gradientUnits="userSpaceOnUse">
							<stop  offset="0.0748" style="stop-color:#EEE09A"/>
							<stop  offset="0.2062" style="stop-color:#EFE095"/>
							<stop  offset="0.3439" style="stop-color:#EFE089"/>
							<stop  offset="0.484" style="stop-color:#F0DF74"/>
							<stop  offset="0.5269" style="stop-color:#F1DF6C"/>
							<stop  offset="0.5655" style="stop-color:#F4E373"/>
							<stop  offset="0.5985" style="stop-color:#F8E97E"/>
							<stop  offset="0.9247" style="stop-color:#FDC064"/>
						</radialGradient>
						<path fill="url(#SVGID_35_)" stroke="#C2B956" stroke-width="1.2993" stroke-linecap="round" stroke-linejoin="round" d="
							M287.484,128.352c0.015-0.002,0.047-0.005,0.047-0.005S287.512,128.349,287.484,128.352z"/>
						<radialGradient id="SVGID_36_" cx="254.5483" cy="155.9771" r="118.7774" gradientUnits="userSpaceOnUse">
							<stop  offset="0.0748" style="stop-color:#EEE09A"/>
							<stop  offset="0.2062" style="stop-color:#EFE095"/>
							<stop  offset="0.3439" style="stop-color:#EFE089"/>
							<stop  offset="0.484" style="stop-color:#F0DF74"/>
							<stop  offset="0.5269" style="stop-color:#F1DF6C"/>
							<stop  offset="0.5655" style="stop-color:#F4E373"/>
							<stop  offset="0.5985" style="stop-color:#F8E97E"/>
							<stop  offset="0.9247" style="stop-color:#FDC064"/>
						</radialGradient>
						<path fill="url(#SVGID_36_)" stroke="#C2B956" stroke-width="1.2993" stroke-linecap="round" stroke-linejoin="round" d="
							M290.76,186.361c0.398,0.188,0.801,0.316,1.21,0.4c-0.218-0.094-0.413-0.174-0.581-0.243
							C291.128,186.501,290.903,186.453,290.76,186.361z"/>
						<radialGradient id="SVGID_37_" cx="254.5952" cy="156.063" r="118.5493" gradientUnits="userSpaceOnUse">
							<stop  offset="0.0748" style="stop-color:#EEE09A"/>
							<stop  offset="0.2062" style="stop-color:#EFE095"/>
							<stop  offset="0.3439" style="stop-color:#EFE089"/>
							<stop  offset="0.484" style="stop-color:#F0DF74"/>
							<stop  offset="0.5269" style="stop-color:#F1DF6C"/>
							<stop  offset="0.5655" style="stop-color:#F4E373"/>
							<stop  offset="0.5985" style="stop-color:#F8E97E"/>
							<stop  offset="0.9247" style="stop-color:#FDC064"/>
						</radialGradient>
						<path fill="url(#SVGID_37_)" stroke="#C2B956" stroke-width="1.2993" stroke-linecap="round" stroke-linejoin="round" d="
							M290.711,186.333c0.016,0.008,0.034,0.02,0.049,0.028c0.144,0.092,0.368,0.141,0.629,0.157
							C290.794,186.275,290.528,186.195,290.711,186.333z"/>
					</g>
					<radialGradient id="SVGID_38_" cx="293.1455" cy="156.7891" r="22.4874" gradientUnits="userSpaceOnUse">
						<stop  offset="0.0748" style="stop-color:#EEE09A"/>
						<stop  offset="0.1327" style="stop-color:#EFE095"/>
						<stop  offset="0.1935" style="stop-color:#EFE089"/>
						<stop  offset="0.2552" style="stop-color:#F0DF74"/>
						<stop  offset="0.2742" style="stop-color:#F1DF6C"/>
						<stop  offset="0.4489" style="stop-color:#F4E373"/>
						<stop  offset="0.5985" style="stop-color:#F8E97E"/>
						<stop  offset="0.9247" style="stop-color:#FDC064"/>
					</radialGradient>
					<path fill="url(#SVGID_38_)" stroke="#C2B956" stroke-width="1.2993" stroke-linecap="round" stroke-linejoin="round" d="
						M297.048,165.438c-6.753-18.421,3.074-38.385,3.074-38.385c-7.186,0.851-12.591,1.294-12.591,1.294l-0.528,0.152
						c-1.807,0.796-7.458,5.827-4.077,37.571c1.357,12.736,4.312,18.575,7.785,20.263c-0.183-0.138,0.083-0.058,0.678,0.185
						c2.191,0.154,8.164-2.526,13.034-12.016C301.265,172.567,298.605,169.687,297.048,165.438z"/>
					<radialGradient id="SVGID_39_" cx="287.2241" cy="174.7983" r="58.7536" gradientUnits="userSpaceOnUse">
						<stop  offset="0.2023" style="stop-color:#9F2B2E"/>
						<stop  offset="0.4359" style="stop-color:#9C2A2D"/>
						<stop  offset="0.5758" style="stop-color:#94292B"/>
						<stop  offset="0.691" style="stop-color:#862528"/>
						<stop  offset="0.7928" style="stop-color:#722123"/>
						<stop  offset="0.8857" style="stop-color:#571B1D"/>
						<stop  offset="0.971" style="stop-color:#381416"/>
						<stop  offset="1" style="stop-color:#2B1113"/>
					</radialGradient>
					<path fill="url(#SVGID_39_)" d="M328.978,121.789c-7.427,2.391-19.612,4.166-28.855,5.264c0,0-9.827,19.964-3.074,38.385
						c1.558,4.249,4.217,7.129,7.375,9.064c1.216-2.369,2.367-5.146,3.372-8.432C313.321,147.978,328.978,121.789,328.978,121.789z"
						/>
					<g opacity="0.69">
						<radialGradient id="SVGID_40_" cx="254.5278" cy="155.917" r="118.9102" gradientUnits="userSpaceOnUse">
							<stop  offset="0.0748" style="stop-color:#EEE09A"/>
							<stop  offset="0.2062" style="stop-color:#EFE095"/>
							<stop  offset="0.3439" style="stop-color:#EFE089"/>
							<stop  offset="0.484" style="stop-color:#F0DF74"/>
							<stop  offset="0.5269" style="stop-color:#F1DF6C"/>
							<stop  offset="0.5655" style="stop-color:#F4E373"/>
							<stop  offset="0.5985" style="stop-color:#F8E97E"/>
							<stop  offset="0.9247" style="stop-color:#FDC064"/>
						</radialGradient>
						<path fill="url(#SVGID_40_)" d="M326.215,100.94c-10.131,0.587-21.186-11.533-21.186-11.533
							c-10.138-7.838-19.83,2.668-25.48,7.512v0.119c0,0,18.557-6.074,21.713-1.687c3.154,4.387,24.215,16.09,10.566,24.008
							c-13.654,7.919-69.735,6.033-80.787-9.25c-1.35-1.868-2.193-3.486-2.648-4.891c-5.472,1.129-8.211,5.622,4.799,14.14
							c19.363,12.682,53.309,9.1,54.292,8.993c0.027-0.003,0.047-0.005,0.047-0.005s28.242-2.31,41.446-6.558
							c0,0-15.656,26.188-21.183,44.281c-5.021,16.436-13.669,20.64-16.406,20.448c0.168,0.069,0.363,0.149,0.581,0.243
							c6.538,1.34,14.389-10.07,17.052-17.748c4.3-12.386,34.386-39.189,40.831-52.083
							C356.301,104.037,336.346,100.351,326.215,100.94z"/>
					</g>
					<radialGradient id="SVGID_41_" cx="254.5293" cy="155.9214" r="118.9085" gradientUnits="userSpaceOnUse">
						<stop  offset="0.0748" style="stop-color:#EEE09A"/>
						<stop  offset="0.2062" style="stop-color:#EFE095"/>
						<stop  offset="0.3439" style="stop-color:#EFE089"/>
						<stop  offset="0.484" style="stop-color:#F0DF74"/>
						<stop  offset="0.5269" style="stop-color:#F1DF6C"/>
						<stop  offset="0.5655" style="stop-color:#F4E373"/>
						<stop  offset="0.5985" style="stop-color:#F8E97E"/>
						<stop  offset="0.9247" style="stop-color:#FDC064"/>
					</radialGradient>
					<path opacity="0.69" fill="url(#SVGID_41_)" d="M326.215,100.94c-10.131,0.587-21.186-11.533-21.186-11.533
						c-1.266-0.979-2.522-1.669-3.767-2.125l-0.001,0.015c0,0,14.283,13.13,14.744,17.045c0.462,3.914,24.635,0.42,27.401,9.392
						c2.764,8.971-0.629,13.32-0.629,13.32l0,0c3.142-3.839,5.669-7.314,7.074-10.123
						C356.301,104.037,336.346,100.351,326.215,100.94z"/>
					<g opacity="0.69">
						<radialGradient id="SVGID_42_" cx="254.5278" cy="155.9185" r="118.9087" gradientUnits="userSpaceOnUse">
							<stop  offset="0.0748" style="stop-color:#EEE09A"/>
							<stop  offset="0.2062" style="stop-color:#EFE095"/>
							<stop  offset="0.3439" style="stop-color:#EFE089"/>
							<stop  offset="0.484" style="stop-color:#F0DF74"/>
							<stop  offset="0.5269" style="stop-color:#F1DF6C"/>
							<stop  offset="0.5655" style="stop-color:#F4E373"/>
							<stop  offset="0.5985" style="stop-color:#F8E97E"/>
							<stop  offset="0.9247" style="stop-color:#FDC064"/>
						</radialGradient>
						<path fill="url(#SVGID_42_)" d="M338.353,113.733c-5.998-0.182-29.025,15.077-71.391,13.32
							c-31.64-1.313-40.288-14.356-40.436-21.261c-4.037,1.724-4.744,6.094,6.667,13.567c19.363,12.682,53.309,9.1,54.292,8.993
							c0.027-0.003,0.047-0.005,0.047-0.005s28.242-2.31,41.446-6.558c0,0,4.554-2.949,9.375-1.793
							c4.823,1.153-1.395,5.99-4.847,11.976c-2.192,3.798-13.696,16.017-21.571,22.982c-1.633,3.843-3.077,7.631-4.14,11.117
							c-5.021,16.436-13.669,20.64-16.406,20.448c0.168,0.069,0.363,0.149,0.581,0.243c6.538,1.34,14.389-10.07,17.052-17.748
							c3.361-9.686,22.492-28.188,33.757-41.96c0,0,0.677-0.875,1.178-2.634C343.872,121.468,343.187,113.878,338.353,113.733z"/>
					</g>
					<path opacity="0.53" fill="#DC953E" d="M290.979,111.005c0,0-2.73-2.889-5.297-1.444
						C283.113,111.005,295.471,115.976,290.979,111.005z"/>
					<path opacity="0.42" fill="#FFFFFF" d="M282.112,100.641c0,0,3.047-5.615,12.354-4.332c9.305,1.283,14.28,12.353,5.135,11.071
						C290.456,106.096,280.026,101.924,282.112,100.641z"/>
					<path opacity="0.3" fill="#FFFFFF" d="M275.037,107.024c-3.686-1.104-9.228-1.697-18.288-0.111
						c-18.36,3.218-26.604,7.469,0.32,10.066C292.278,120.383,284.749,109.941,275.037,107.024z"/>
					<radialGradient id="SVGID_43_" cx="287.2241" cy="174.7983" r="58.7536" gradientUnits="userSpaceOnUse">
						<stop  offset="0.2023" style="stop-color:#9F2B2E"/>
						<stop  offset="0.4359" style="stop-color:#9C2A2D"/>
						<stop  offset="0.5758" style="stop-color:#94292B"/>
						<stop  offset="0.691" style="stop-color:#862528"/>
						<stop  offset="0.7928" style="stop-color:#722123"/>
						<stop  offset="0.8857" style="stop-color:#571B1D"/>
						<stop  offset="0.971" style="stop-color:#381416"/>
						<stop  offset="1" style="stop-color:#2B1113"/>
					</radialGradient>
					<path opacity="0.2" fill="url(#SVGID_43_)" d="M300.122,127.053c0,0-9.827,19.964-3.074,38.385
						c1.558,4.249,4.217,7.129,7.375,9.064c1.216-2.369,2.367-5.146,3.372-8.432c5.526-18.093,21.183-44.281,21.183-44.281
						C321.551,124.18,309.365,125.955,300.122,127.053z M301.262,162.672c-3.164-11.829,0.392-30.395,7.454-30.639
						c7.062-0.246,4.526,8.741,4.526,8.741C312.802,144.224,304.423,174.502,301.262,162.672z"/>
				</g>
			</g>
		</g>
	</g>
</g>
</svg>
