<svg xmlns="http://www.w3.org/2000/svg" viewBox="0 0 768 430"><style>.a{fill:#D6ECFD;}.b{fill:#FFF;}.c{fill:#808080;}.d{fill:#C1873A;}.e{fill:#D69C47;}.f{fill:#EFC48F;}.g{fill:#6B4E24;}.h{fill:#3F3A36;}.i{fill:#5B5753;}.j{fill:#8C8C8C;}</style><path d="M506.7 213.5c17.5-18.6-45.2-9.5-85.2 7 -35.8 14.7-64.9 40.7-78.8 54.1 -13.9 13.4-27.8 16.4-27.8 16.4s-4.6 23.4 7.5 30.5c12.1 7.1 59.2-23.2 89.5-49.6 30.3-26.4 94.7-31.9 106.9-43.4C531 216.9 522.9 212.9 506.7 213.5z" class="a"/><path d="M517.5 214c-2.9-0.5-6.6-0.7-10.8-0.5 17.5-18.6-45.2-9.5-85.2 7 -35.8 14.7-64.9 40.7-78.8 54.1 -13.9 13.4-27.8 16.4-27.8 16.4s-0.3 1.5-0.6 4c14.4 4.7 30.9-2.3 44.1-7.3 21.9-8 38.5-22.7 58.1-35.8 16.7-11.2 65.9-31.4 100.8-30.8C520.2 221.1 521.5 215.5 517.5 214z" class="b"/><path d="M507.3 213.2c2.3-2.6 3.1-4.8 2.4-6.5 -1.1-2.5-5.5-3.8-13.2-3.8 -18.5 0-51.5 7.6-75.1 17.3 -25.9 10.6-53.2 29.3-78.9 54.1 -13.7 13.2-27.6 16.3-27.7 16.3l-0.2 0 0 0.2c0 0.2-4.5 23.6 7.6 30.8 1.2 0.7 2.9 1.1 4.8 1.1 16.6 0 57-26.3 85-50.7 18.1-15.8 48.2-24 72.4-30.7 16.5-4.5 29.5-8.1 34.5-12.8 4.8-4.5 6.7-8.2 5.7-10.8C523.4 214.5 517.5 212.9 507.3 213.2zM518.6 228.2c-4.9 4.6-18.5 8.3-34.3 12.6 -24.3 6.7-54.5 14.9-72.7 30.8 -27.9 24.3-68.2 50.6-84.7 50.6 -1.9 0-3.4-0.3-4.5-1 -11.3-6.6-7.8-27.9-7.4-30 1.7-0.4 14.8-3.9 27.8-16.4 25.7-24.7 52.9-43.4 78.8-54 23.6-9.7 56.5-17.3 74.9-17.3 7.3 0 11.7 1.2 12.7 3.5 0.7 1.6-0.2 3.7-2.7 6.4l-0.4 0.5 0.7 0c1.1 0 2.1-0.1 3.1-0.1 8.3 0 13.3 1.5 14.4 4.3C525.1 220.4 523.3 223.8 518.6 228.2z" class="c"/><path d="M495.2 218.3c0 0 10.1-2.6 11.7-4.6l-0.4-0.3C505 215.2 495.3 218.2 495.2 218.3z" class="c"/><path d="M542.7 318.4c6-6.4 4.6-12.8 2.4-16.7 -5.3 13.2-23.7 15.7-36.6 15.4 -20.4-0.4-38.1-34.2-88.1-48.2 -37.8-7.5-59.8 20.3-83.7 22.8 -23.8 2.5-25.8-11.1-20.9-27.3 4.7-15.6 38.3-54.8 50.8-72.8 12.6-17.9 20.1-46.9 17.4-66.5 -2.7-19.6-16.9-32-18.5-33.7 -1.7-1.7-5.9-5.1-5.9-5.1s-19.1 35.4-23.5 38.9c0 0 6.2 6.2 10.2 11.2 4.8 6.6 2.9 33.8-17.1 56.5 -19.2 21.8-48.5 53.7-61.4 77.7 -12.9 24.2-13.2 79.2 6.8 90.6 22.7 13 167.3 15 206.9 11.9 39.6-3 53.5-25.6 58.7-31.8 5.2-6.2 4.6-8.5 1.9-9 14.9-9.4 14.3-18.4 14-19C555.8 312.9 547.1 315.7 542.7 318.4z" class="a"/><path d="M534 325.1c6-6.4 11.9-13.7 9.6-17.5 -8.6 14-24.6 12.1-37.5 11.8 -20.4-0.4-35.4-28.9-85.4-42.9 -37.8-7.5-62 19.8-86 22.3 -23.8 2.5-35-18.6-30.1-34.8 4.7-15.6 43.6-59.8 56.1-77.7 12.6-17.9 25.9-41.4 23.2-61 -2.7-19.6-16.9-32-18.5-33.7 -1.7-1.7-5.9-5.1-5.9-5.1s-19.1 35.4-23.5 38.9c0 0 6.2 6.2 10.2 11.2 4.8 6.6 2.9 33.8-17.1 56.5 -19.2 21.8-48.5 53.7-61.4 77.7 -12.9 24.2-11.8 70.2 8.2 81.6 22.6 13 162.6 15.1 202.1 10.8 42-4.6 56.5-23.4 49.4-28.2 16.3-7.5 17.9-12.9 17.6-13.6C544.8 320.8 538.4 322.5 534 325.1z" class="b"/><path d="M555.8 313.1c-1.5 0-7.8 2.1-11.9 4.3 5.6-6.9 2.9-13.3 1.4-15.8l-0.3-0.5 -0.2 0.5c-5.4 13.3-23.9 15.3-34.5 15.3 -0.6 0-1.2 0-1.8 0 -8.9-0.2-17.4-6.9-28.2-15.3 -14.2-11.1-31.8-25-59.9-32.8 -4.3-0.9-8.6-1.3-12.8-1.3 -17.4 0-31.5 7.3-43.9 13.8 -9.3 4.8-18.1 9.4-27.1 10.4 -10 1-16.8-0.7-20.1-5.3 -3.3-4.4-3.4-11.7-0.4-21.7 3.3-10.9 21.1-33.8 35.3-52.2 6-7.8 11.7-15.1 15.5-20.5 12.5-17.8 20.1-47.1 17.4-66.7 -1.1-8.4-5.2-21.1-18.2-33.4 -0.2-0.2-0.4-0.3-0.5-0.4 -1.7-1.7-5.9-5.1-5.9-5.1l-0.3-0.2 -0.2 0.3c-0.2 0.4-19.2 35.4-23.5 38.8l-0.2 0.2 0.2 0.2c0.1 0.1 6.2 6.2 10.1 11.2 2.2 3 3.2 10.9 0.7 22 -2.8 12.2-9.1 24.3-17.8 34.2 -2.1 2.4-4.4 4.9-6.7 7.6 -19.3 21.7-43.2 48.8-54.7 70.2 -6.3 11.8-9.8 31.5-9 50.2 0.9 20.6 6.7 35.5 15.8 40.7 15.9 9.1 93.3 13.2 158.6 13.2h0c20.5 0 38.1-0.5 48.4-1.2 36.3-2.8 51-21.8 57.3-30 0.6-0.8 1.1-1.4 1.6-2 3.1-3.8 4.4-6.4 3.9-8 -0.2-0.6-0.7-1.1-1.5-1.3 15.2-9.8 13.7-18.9 13.6-19C556.2 313.1 555.9 313.1 555.8 313.1zM542.4 331.9c-0.8 0.5-3 1.1-3 1.1s2.2-0.3 2.9-0.2c0.7 0.1 1.2 0.6 1.3 1.1 0.5 1.3-0.8 3.8-3.8 7.4 -0.5 0.5-1 1.2-1.6 2 -6.3 8.1-20.9 27-56.9 29.8 -10.3 0.8-27.9 1.2-48.4 1.2h0c-65.2 0-142.6-4.1-158.3-13.2 -9-5.2-14.7-19.8-15.6-40.3 -0.8-18.6 2.7-38.2 8.9-49.9 11.4-21.4 35.4-48.4 54.6-70.1 2.3-2.6 4.6-5.2 6.7-7.6 19.6-22.2 22.2-49.8 17.1-56.9 -3.6-4.5-8.9-9.9-10-11.1 4.6-4.2 21.3-34.9 23.2-38.5 0.9 0.8 4.2 3.5 5.7 4.9 0.1 0.1 0.3 0.3 0.5 0.4 12.8 12.2 16.9 24.8 18 33.1 2.7 19.5-5 48.7-17.3 66.3 -3.7 5.3-9.4 12.7-15.5 20.4 -14.3 18.4-32.1 41.4-35.4 52.4 -3.1 10.3-2.9 17.5 0.5 22.2 3.5 4.7 10.4 6.5 20.6 5.5 9.1-1 17.9-5.5 27.3-10.4 12.4-6.4 26.4-13.7 43.6-13.7 4.2 0 8.4 0.4 12.7 1.3 28 7.8 45.6 21.6 59.7 32.7 10.8 8.5 19.4 15.2 28.5 15.4 0.6 0 1.2 0 1.9 0 10.6 0 29-2 34.7-15.1 1.5 2.8 3.6 9.2-2.6 15.9l-1.3 1.4 1.6-1c4.1-2.5 11.5-5 12.9-5l0.1 0C555.9 314.6 556.3 322.8 542.4 331.9z" class="c"/><path d="M556.7 238.6c-8.2-1.9-18.3 0.1-24.9 2.5 0 0 11.8-7.4 9-10.6 -13.1-13.2-47.4-6.3-85.1 6.8 -37.2 12.8-86 54.9-100.2 66.7 -14.3 11.8-26.7 9-26.7 9l37.3 23.5c0 0 9.3 1.6 13.4 4.4 6.6 4.5 11.3 7.5 41.7 10.7 34.1 3.5 61.2-10.3 68-14.8 6.8-4.5 1.8-4.5-8.9-5 24.3-1.4 37.5-12.7 37.1-16 -0.4-3.4-7.3-1.4-19.3-2.3 9.8-0.9 29.4-6.6 36.7-11.6 7.2-5 6-9.7 0.1-12.4 12.3-5.9 21.8-17.1 21.2-20.1 -0.6-2.9-5.2-3.9-11.2-2.9 0.5-0.3 17.5-11.1 21.8-17C571 243.5 562.8 240 556.7 238.6z" class="a"/><path d="M552.8 240.9c-8.2-1.9-25.4 4.6-32 7 0 0 14-12.3 11.1-15.6 -13.1-13.2-38.5-8-76.3 5 -37.2 12.8-86 54.9-100.2 66.7 -14.3 11.8-26.7 9-26.7 9s-0.5 13.8 13.5 23.8c7.5 5.4 23.8-0.3 23.8-0.3s9.6-2 15.7 0.7c8.1 3.5 9.6 5.9 40.1 7.6 32.5 1.8 45.6-3.3 52.3-7.8 5.2-3.5 1.7-5.6-9-6.2 24.3-1.4 41.3-10.2 41.3-13.6 0-2.7-7.2-2.3-18.9-6.7 9.8-0.8 33-4.3 40.3-9.2 9-6.1 6.9-9.5 0.7-9.8 12.3-5.9 21.4-16.8 20.8-19.7 -0.6-2.9-4.3-3.9-10.3-3 0.5-0.3 17.7-12.6 21.9-18.4C565.6 244.5 559 242.3 552.8 240.9z" class="b"/><path d="M556.8 238.3c-7.4-1.7-16.4-0.3-23.1 1.9 2.6-1.8 7.4-5.4 7.8-8.1 0.1-0.7-0.1-1.3-0.5-1.8 -11.3-11.4-39.3-9.2-85.4 6.7 -34.5 11.9-79.6 49.5-96.6 63.6 -1.4 1.2-2.7 2.2-3.8 3.1 -14 11.5-26.4 9.2-26.5 9.2 0 0 12.7 2.9 26.9-8.8 1.1-0.9 2.3-1.9 3.8-3.1 17-14.1 62-51.7 96.4-63.5 45.9-15.8 73.6-18.1 84.8-6.8 0.3 0.4 0.4 0.8 0.4 1.3 -0.5 3.4-9.2 8.9-9.3 8.9l-2.2 1.4 2.4-0.9c6.6-2.4 16.6-4.4 24.7-2.5 2.2 0.5 9.4 2.4 10.8 6.2 0.5 1.3 0.2 2.8-0.9 4.3 -4.2 5.8-21 16.6-21.7 16.9l-1.5 0.8 1.7-0.3c6.2-1 10.4 0.1 10.9 2.7 0.6 2.8-9 14-21.1 19.8l-0.5 0.2 0.5 0.2c2.9 1.3 4.5 3.1 4.7 5 0.2 2.2-1.5 4.6-4.8 6.9 -6.5 4.5-23.3 9.7-33.6 11.2 -1 0.2-3.8 0.6-3.8 0.6s3.2 0.5 4.3 0.5c2.8 0.1 5.2 0.1 7.3 0 5.2-0.1 8-0.1 8.2 1.8 0.1 0.6-0.4 1.6-1.3 2.6 -3.4 4-15.2 12-35.5 13.2l-2.5 0.2 4.1 0.4c5.6 0.3 9.9 0.5 10.2 1.5 0.1 0.4-0.3 1.2-3 2.9 -9.9 6.5-36.8 18-67.8 14.8 -30.5-3.2-35.2-6.3-41.6-10.7 -4.1-2.8-13.6-4.2-13.6-4.2 0.1 0 9.3 1.9 13.3 4.6 6.5 4.4 11.2 7.6 41.9 10.7 3.7 0.4 7.3 0.6 10.9 0.6 26.4 0 48.4-9.6 57.2-15.4 2.5-1.6 3.4-2.7 3.2-3.5 -0.3-1.2-3.1-1.5-8.2-1.8 18-1.9 28.7-9.2 31.9-13 1-1.2 1.5-2.2 1.4-3 -0.3-2.4-3.3-2.4-8.8-2.3 -2.2 0-4.7 0.1-7.7 0 10.5-1.6 27.2-6.8 33.7-11.3 3.5-2.4 5.3-5 5.1-7.4 -0.2-2-1.7-3.8-4.5-5.2 12.2-6 21.5-17.1 20.9-20.1 -0.5-2.8-4.4-4-10.2-3.3 3.9-2.5 17.1-11.3 20.8-16.4 1.2-1.7 1.5-3.3 1-4.8C566.5 240.9 559.7 239 556.8 238.3z" class="c"/><path d="M502.3 257.2l0.1 0.5c9.2-2.5 29.3-16.2 29.5-16.4l-0.3-0.4C531.5 241 511.5 254.7 502.3 257.2z" class="c"/><path d="M504.6 282.4l0 0.5c8.5-0.7 39.1-15.6 40.4-16.3l-0.2-0.5C544.5 266.3 513 281.7 504.6 282.4z" class="c"/><path d="M506.7 298.2l0 0.5c6.7-0.3 27.4-8.8 28.3-9.1l-0.2-0.5C534.6 289.3 513.2 297.9 506.7 298.2z" class="c"/><path d="M517 270.7c-4.5-7.3-12.7-7.7-19.5-6.5 12.4-8.1 10.9-13.2 8-17.3 -7.5-10.9-22.2-6.6-22.2-6.6l-10.3 79.1c0 0 28-2.2 27.1-11.8 -0.2-2-4.4-1.9-8.4-1.8 0 0 25.2-6.4 24-13.2 -1.5-5.5-9.2-6.5-16.3-5.3C499.4 287.4 520.8 278.6 517 270.7z" class="a"/><path d="M512.3 271.8c-4.5-7.3-14.7-5-23.5-1.6 12.4-8.1 14.7-19 11.9-23.1 -6.3-9.3-17.4-6.7-17.4-6.7s-17.3 28.3-18.6 39.1c-1.2 10.1 8.4 40 8.4 40s24.5-4.4 23.8-10.3c-0.2-2-7.1-2.7-11.1-2.6 0 0 26.4-7.7 25.1-13.6 -1.5-5.5-10.8-4.7-17.9-3.5C492.8 289.4 516.1 279.7 512.3 271.8z" class="b"/><path d="M498.6 263.7c5.4-3.7 8.4-7.1 9-10.3 0.5-2.7-0.7-4.9-1.9-6.7 -7.5-10.9-22.6-6.4-22.6-6.4 0.1 0 14.9-3.9 22.2 6.7 1.2 1.7 2.3 3.8 1.8 6.3 -0.6 3.3-3.8 6.7-9.8 10.6l-1.1 0.7 1.3-0.2c9.1-1.6 15.6 0.6 19.2 6.4 0.5 1.1 0.6 2.4 0.1 3.6 -2.5 6.5-17.4 12.6-17.5 12.7l-2.3 0.9 2.5-0.4c6.4-1.1 14.5-0.5 16 5 1.1 6.5-23.5 12.8-23.8 12.9l-2.3 0.6 2.4-0.1c3.7-0.1 8-0.2 8.1 1.5 0.1 1.3-0.3 2.5-1.2 3.6 -5.3 6.3-25.4 8.2-25.6 8.2 0 0 20.6-1.3 26-7.8 1-1.2 1.5-2.6 1.4-4 -0.2-1.8-3.1-2.1-6.5-2.1 6.1-1.7 23.1-7.1 22.1-13 -1.5-5.3-8.2-6.5-14.6-5.7 4.1-1.9 13.9-6.8 16-12.2 0.5-1.4 0.5-2.8-0.1-4.1C513.6 264.8 507.4 262.5 498.6 263.7z" class="c"/><polygon points="493.8 289.4 499.8 287.5 499.6 287 " class="c"/><path d="M478.3 279.4l0.1-0.1L478.3 279.4z" class="c"/><path d="M478.3 279.4c-0.2 0.2-0.2 0.2-0.2 0.2C478.1 279.6 478.2 279.5 478.3 279.4z" class="c"/><path d="M497.3 263.9c-1.3 0.7-6.5 4.4-10.8 8 -5.3 4.5-7.5 6.6-8.2 7.3 2.4-2.2 17.1-13.6 19.2-14.9L497.3 263.9z" class="c"/><path d="M246.5 165.2c-6.1 15.9-2.1 28.5 7 27.8 9.1-0.7 19.6-18.4 26.1-26.8 8-10.3 21.7-10.3 21.7-10.3s-5.5-28.2-8.9-31C289 122 252.5 149.6 246.5 165.2z" class="d"/><path d="M246.5 165.2c-6.1 15.9-2 29.8 6.9 25.7 6.9-3.2 19-18.7 25-27.6 10.8-16.2 22.9-7.4 22.9-7.4s-5.5-28.2-8.9-31C289 122 252.5 149.6 246.5 165.2z" class="e"/><path d="M246.5 165.2c-4.8 12.7-3.2 21.6 1 25.5 -5.4-9.5-0.3-23.7 4.7-34.6C249.6 159.3 247.6 162.4 246.5 165.2z" class="f"/><path d="M292.6 124.7c-0.2-0.2-0.5-0.3-0.9-0.3 -3.1 0-13 6.3-22.9 14.8 -5.6 4.7-18.9 16.6-22.5 25.9 -3.8 9.9-3.9 19.3-0.3 24.5 1.7 2.4 4 3.7 6.8 3.7 0.2 0 0.5 0 0.7 0 7.5-0.6 15.6-12 22.1-21.2 1.5-2.1 2.9-4.1 4.2-5.7 7.8-10.1 21.4-10.2 21.5-10.2h0.3l-0.1-0.3C301.3 154.7 296 127.6 292.6 124.7zM279.4 166.1c-1.3 1.6-2.7 3.6-4.2 5.7 -6.1 8.6-14.5 20.4-21.7 20.9 -2.9 0.2-5.4-1-7.1-3.4 -3.5-5.1-3.3-14.3 0.4-24 5.6-14.6 38.8-40.3 44.9-40.3 0.3 0 0.4 0 0.6 0.1 3.1 2.6 8.1 27.5 8.7 30.6C298.8 155.7 286.6 156.7 279.4 166.1z" class="g"/><path d="M256.4 150.7c-1.8 7.2-6.1 22.3-6.2 28.1 0 4.4 1 8 6.5 2.6 3.8-3.6 8.2-11.3 10.5-15.1 1.6-2.7 19.4-25.1 28-35.4 -1.3-3-2-5.3-2.8-6.1C290 122.8 268.1 137.8 256.4 150.7z" fill="#4C0000"/><path d="M256.4 150.7c-1.8 7.2-6.1 22.3-6.2 28.1 0 2.8 0.4 5.3 2.1 5.3 -0.7-13.2 4.2-25.5 8.3-37.8C259.1 147.8 257.7 149.3 256.4 150.7z" fill="#840C0C"/><path d="M294.4 128.2c-0.7-1.7-1.2-2.9-1.8-3.5 -0.2-0.2-0.5-0.3-0.9-0.3 -4.7 0-24.5 14-35.5 26.1l0 0.1 0 0.1c-0.3 1.4-0.8 3-1.2 4.8 -2.1 7.9-4.9 18.6-4.9 23.4 0 2.6 0.4 4.3 1.1 5.1 0.4 0.4 0.8 0.5 1.3 0.5 1.1 0 2.6-0.9 4.5-2.8 3.4-3.2 7.2-9.5 9.6-13.6 0.3-0.5 0.6-1 0.9-1.5 1.6-2.6 19.4-25.1 27.9-35.4l0.1-0.1 -0.1-0.2C295 129.9 294.7 129 294.4 128.2zM267 166.2c-0.3 0.4-0.6 0.9-0.9 1.5 -2.5 4.1-6.2 10.4-9.5 13.5 -2.4 2.4-4.1 3.2-5.1 2.3 -0.7-0.7-1-2.2-1-4.7 0-4.7 2.9-15.5 4.9-23.3 0.5-1.8 0.9-3.4 1.2-4.7 10.7-11.8 30.6-25.9 35-25.9 0.2 0 0.4 0 0.5 0.1 0.5 0.5 1 1.6 1.6 3.3 0.3 0.8 0.6 1.6 1 2.5C286.4 141.2 268.6 163.6 267 166.2z" class="g"/><path d="M236.9 141.1c-8.6 7.5-16.6 11.1-23.4 13 -6.8 2-10.2 6.5-8.7 10.1 1.4 3.6 13.2 7.5 24.5 7 11.3-0.5 26-3.6 37.4-13 11.4-9.4 23.8-30.9 23.8-30.9 -6-2-40.3-6.1-40.3-6.1S245.5 133.6 236.9 141.1z" class="d"/><path d="M236.9 141.1c-8.6 7.5-16.6 11.1-23.4 13 -6.8 2-10.2 6.5-8.7 10.1 1.4 3.6 13.6 4.9 25 4.4 11.3-0.5 23.8-4.8 35.1-14.2 11.4-9.4 21.7-28 21.7-28 -6-2-36.3-5.1-36.3-5.1S245.5 133.6 236.9 141.1z" class="e"/><path d="M236.9 141.1c-8.6 7.5-16.6 11.1-23.4 13 -6 1.7-9.3 5.5-9 8.8 0.3-2.9 3.9-4.5 7.3-5.4 19.9-4.6 35.4-17.9 42.8-35.8 -2.6-0.3-4.3-0.5-4.3-0.5S245.5 133.6 236.9 141.1z" class="f"/><path d="M250.3 121l-0.2 0 -0.1 0.2c0 0.1-4.9 12.4-13.3 19.7 -7.2 6.3-14.8 10.5-23.3 13 -4.2 1.2-7.3 3.4-8.6 6.1 -0.7 1.5-0.8 3-0.3 4.3 1.5 3.7 12.5 7.2 22.7 7.2 0.7 0 1.4 0 2.1 0 8.6-0.4 24.9-2.6 37.6-13 11.3-9.3 23.7-30.7 23.9-30.9l0.2-0.3 -0.3-0.1C284.6 125.1 251.7 121.2 250.3 121zM266.6 158c-12.5 10.3-28.7 12.5-37.3 12.9 -0.7 0-1.4 0-2.1 0 -10.8 0-20.9-3.7-22.2-6.8 -0.5-1.2-0.4-2.5 0.3-3.9 1.2-2.5 4.3-4.7 8.3-5.9 8.6-2.5 16.2-6.8 23.5-13.1 7.9-6.9 12.7-18.1 13.4-19.8 2.8 0.3 33.3 4 39.7 5.9C288.6 130.1 277 149.3 266.6 158z" class="g"/><path d="M256.5 134.7c-0.9 0-2 0.4-2.8 1.2 -0.8 0.6-1.3 1.5-1.5 2.3 -0.2 0.9-0.1 1.7 0.4 2.2 0.4 0.5 1.1 0.8 1.8 0.8 1 0 2-0.4 2.8-1.2 0.8-0.6 1.3-1.5 1.5-2.3 0.2-0.9 0.1-1.7-0.4-2.2C257.9 135 257.2 134.7 256.5 134.7zM258.2 137.6c-0.2 0.7-0.7 1.5-1.3 2 -0.8 0.7-1.7 1-2.5 1 -0.6 0-1.1-0.2-1.4-0.6 -0.4-0.4-0.5-1.1-0.3-1.8 0.2-0.7 0.7-1.5 1.3-2 0.8-0.7 1.7-1 2.5-1 0.6 0 1.1 0.2 1.4 0.6C258.2 136.3 258.4 136.9 258.2 137.6z" fill="#4C2B09"/><path d="M353.1 81.9c-17.7-11-46.1-17.8-72.6-5.5 -26.5 12.3-28.9 29.4-26.8 35.6 -1.9 0-9.5 0.6-8.6 8.3 0.7 6.1 5.5 9.8 14 11.3 14.1 2.1 22.7 2.9 35.5-4.4 -8.6 5.1-13.9 24.6-2.4 30.5 25.7 9.4 43.6-6.7 54.3-18.2 10.7-11.5 8.3-20.8 8.3-20.8l9.5-28.3C364.4 90.5 362.3 87.9 353.1 81.9z" class="a"/><path d="M353.1 81.9c-17.7-11-46.1-17.8-72.6-5.5 -26.5 12.3-28.9 29.4-26.8 35.6 -1.9 0-9.5 0.6-8.6 8.3 0.7 6.1 5.5 9.8 14 11.3 14.1 2.1 23.3 2.6 36-4.7 -8.6 5.1-9.4 20.8 2.1 26.7 17.8 7.3 36.6-6 47.3-17.5 10.7-11.5 10.3-17.3 10.3-17.3s5.9-1.3 9.7-11c2.7-7-0.2-17.3-0.2-17.3S362.3 87.9 353.1 81.9z" class="b"/><path d="M353.3 81.7c-9.7-6-21.4-10.1-33.1-11.5 -13.9-1.7-27.7 0.4-39.8 6 -14.5 6.7-21.2 14.7-24.2 20.2 -3.5 6.4-3.7 12.2-2.8 15.4 -1.5 0-4.9 0.4-6.9 2.7 -1.3 1.5-1.8 3.4-1.5 5.9 0.7 6.1 5.5 10 14.2 11.6 13.1 2 21.5 2.9 32.9-2.9 -4 4-6.8 11-6.6 17.3 0.2 5.4 2.6 9.6 6.8 11.8 5.4 2 10.4 2.8 15.2 2.8 17.4 0 30.5-11.5 39.4-21.1 10.7-11.5 8.1-21 8.1-21 0 0.1 2 9.4-8.5 20.6 -11.3 12.1-29.1 27.2-54 18.1 -4-2-6.3-6-6.4-11.3 -0.2-7.3 3.7-15.7 8.9-18.7l-0.3-0.5c-12.8 7.3-21.3 6.5-35.3 4.3 -8.6-1.6-13.1-5.2-13.8-11.1 -0.3-2.3 0.2-4.1 1.4-5.4 2.1-2.4 5.8-2.6 6.9-2.6h0.4l-0.1-0.4c-1.8-5.1-0.7-22.6 26.6-35.3 26.8-12.5 55-5.3 72.4 5.5 9 5.9 11.2 8.5 11.2 8.5l0.4-0.3C364.5 90.2 362.3 87.7 353.3 81.7z" class="c"/><path d="M294.4 127.5l0 0L294.4 127.5z" class="h"/><path d="M294.7 127.3c-0.1 0.1-0.2 0.1-0.3 0.2C294.5 127.4 294.7 127.3 294.7 127.3z" class="h"/><path d="M294.3 127.5C294 127.7 294.1 127.6 294.3 127.5z" class="h"/><path d="M284.8 113.6c-1.2 1.3-6.7 5.8-17.8 3.7 -6.4-1.2-10.4-3.1-13.3-5.4l0 0.1c-1.9 0-9.5 0.6-8.6 8.3 0.7 6.1 5.5 9.8 14 11.3 14.1 2.1 22.7 2.9 35.5-4.4 2.1-1.6 1.2-2.3 1.5-4.3C296.2 123 289 118.2 284.8 113.6z" class="h"/><path d="M294.7 127.3l0 0L294.7 127.3z" class="i"/><path d="M294.4 127.4l0 0L294.4 127.4z" class="i"/><path d="M294.4 127.5l-0.1 0.1L294.4 127.5z" class="i"/><path d="M294.7 127.3l-0.1 0L294.7 127.3z" class="i"/><path d="M294.6 127.3l-0.2 0.1L294.6 127.3z" class="i"/><path d="M294.3 127.5l-0.1 0.1L294.3 127.5z" class="i"/><path d="M267 117.3c-6.4-1.2-10.4-3.1-13.3-5.4l0 0.1c-1.9 0-9.5 0.6-8.6 8.3 0.7 6.1 5.5 9.8 14 11.3 5.9 0.9 10.9 1.6 15.5 1.5 3.6-0.7 6.7-2.4 7.6-5.6 0.9-3.8-3.5-6.7-3.5-10.6C276 117.8 272.1 118.3 267 117.3z" class="i"/><path d="M294.2 127.6L294.2 127.6z" class="i"/><path d="M294.6 127.3l-0.2 0.1L294.6 127.3z" class="j"/><path d="M294.7 127.3l-0.1 0L294.7 127.3z" class="j"/><path d="M294.7 127.3l0 0L294.7 127.3z" class="j"/><path d="M294.4 127.4l0 0L294.4 127.4z" class="j"/><path d="M253.7 112c-1.9 0-9.5 0.6-8.6 8.3 0.3 2.2 1.1 4.1 2.4 5.7 -3.3-5.9 0.8-13.5 7.5-13.1 -0.5-0.3-0.9-0.6-1.3-1L253.7 112z" class="j"/><path d="M294.2 127.6L294.2 127.6z" class="j"/><path d="M294.3 127.5l-0.1 0.1L294.3 127.5z" class="j"/><path d="M294.4 127.5l-0.1 0.1L294.4 127.5z" class="j"/><path d="M285 113.4l-0.2-0.2 -0.2 0.2c-0.7 0.7-4.3 4.2-12.1 4.2 -1.7 0-3.6-0.2-5.5-0.5 -5.8-1.1-10-2.8-13.2-5.3l-0.5 0.1c-1.5 0-4.9 0.4-6.9 2.7 -1.3 1.5-1.8 3.4-1.5 5.9 0.7 6.1 5.5 10 14.2 11.6 5.2 0.8 10.2 1.5 14.9 1.5 6.4 0 11.9-1.3 18-4.4 0.5-0.3 1.9-0.9 2.2-1.1 0.2-0.1 0.4-0.3 0.6-0.4 1.6-1.3 1.6-2 1.5-3.1 0-0.4 0-0.8 0-1.3l0-0.2 -0.1-0.1C296.2 122.7 289.1 117.9 285 113.4zM295.8 124.4c0 1 0.1 1.6-1.3 2.7 -7.1 4.1-13.2 5.8-20.5 5.8h0c-4.6 0-9.6-0.7-14.8-1.5 -8.6-1.6-13.1-5.2-13.8-11.1 -0.3-2.3 0.2-4.1 1.4-5.4 2.1-2.4 5.8-2.6 6.9-2.6h0c3.2 2.5 7.4 4.2 13.2 5.3 1.9 0.4 3.8 0.6 5.6 0.6 7.4 0 11.2-3.1 12.2-4.2 3.9 4.2 10.1 8.5 11.1 9.2C295.8 123.6 295.8 124 295.8 124.4z" fill="#2E2C2A"/><path d="M295 98.7c-7.6-0.3-14.3 5.8-14.8 13.6 -0.5 7.8 5.2 14.4 12.9 14.7 7.6 0.3 14.3-5.8 14.8-13.6C308.4 105.6 302.6 99 295 98.7z" class="a"/><path d="M293.9 99.9c-7.1-0.3-13.3 5.6-13.8 13 -0.5 7.5 4.8 13.8 11.9 14.1s13.3-5.6 13.8-13C306.4 106.5 301 100.2 293.9 99.9z" fill="#D8D0D0"/><path d="M293.9 98.8c-7.1-0.3-13.3 5.6-13.8 13 -0.2 2.5 0.3 4.8 1.3 6.9 7.9 3.4 17.8-1.4 24.5-6.6C306 104.9 300.8 99 293.9 98.8z"/><path d="M293.9 99.9c-7.1-0.3-13.3 5.6-13.8 13 -0.2 2.5 0.3 4.8 1.3 6.9 7.9 3.4 17.8-1.4 24.5-6.6C306 106.1 300.8 100.2 293.9 99.9z" class="b"/><path d="M290 108.7c-4 0.3-6.9 4.3-6.6 8.8s3.8 8 7.7 7.7c4-0.3 6.9-4.3 6.6-8.8C297.4 111.8 293.9 108.4 290 108.7z" fill="#0081C1"/><path d="M290 108.7c-4 0.3-6.9 4.3-6.6 8.8 0.1 1.1 0.3 2.2 0.8 3.1 4.6-0.9 9.2-3.3 13.2-6.2C296.3 110.8 293.3 108.4 290 108.7z" fill="#1C9AF9"/><path d="M289.9 108.5c-4.1 0.3-7.2 4.4-6.9 9 0.3 4.7 3.9 8.2 8 7.8 0.1 0 0.2 0 0.3 0 4-0.5 6.9-4.5 6.5-9C297.7 111.6 294.1 108.1 289.9 108.5zM291.1 124.9c-3.8 0.3-7.1-3-7.4-7.5 -0.3-4.3 2.3-8.1 6-8.5 0.1 0 0.2 0 0.3 0 3.8-0.3 7.1 3 7.4 7.5C297.7 120.8 294.9 124.6 291.1 124.9z" fill="#215480"/><path d="M290.7 113.1c-1.9 0.3-3.1 2.5-2.7 4.9 0.5 2.4 2.4 4.2 4.4 3.9 1.9-0.3 3.1-2.5 2.7-4.9C294.6 114.5 292.7 112.8 290.7 113.1z"/><path d="M289.1 114.5c-0.8 0.1-1.4 0.6-1.3 1.1 0 0.5 0.7 0.9 1.5 0.8 0.8-0.1 1.4-0.6 1.3-1.1C290.6 114.8 289.9 114.4 289.1 114.5z" class="b"/><path d="M292.8 117.8c-0.5 0-0.8 0.3-0.8 0.6 0 0.3 0.4 0.5 0.9 0.5 0.5 0 0.8-0.3 0.8-0.6C293.6 117.9 293.2 117.7 292.8 117.8z" class="b"/><path d="M293.9 99.7c-7.3-0.3-13.6 5.6-14.1 13.2 -0.5 7.6 4.9 14 12.2 14.3 0.2 0 0.4 0 0.6 0 7-0.1 13-5.9 13.5-13.2C306.6 106.4 301.2 100 293.9 99.7zM305.6 114c-0.5 7.4-6.5 13.1-13.5 12.9 -6.9-0.3-12.2-6.5-11.7-13.9 0.5-7.2 6.2-12.8 12.9-12.9 0.2 0 0.4 0 0.6 0C300.8 100.4 306.1 106.6 305.6 114z"/><path d="M292.5 87.7c-4.6-0.9-10.8 2.5-10.8 2.5 0.1 0 6.2-2.8 10.7-2 5.8 1.1 9.2 5 9.3 5.1C301.6 93.3 298.5 88.8 292.5 87.7z"/></svg>