<svg version="1.1" xmlns="http://www.w3.org/2000/svg"   viewBox="0 0 768 430" enable-background="new 0 0 768 430" xml:space="preserve"><path fill="#DDE4D0" d="M547.3 258.5c-5.3-1.2-10.1-6.8-18.8-6.5 -8.9 0.3-21.6 8.3-33.8 8.3 -12.4-0.3-26.3-8.7-38.9-8.7 -12.6 0.1-24 8.8-36.1 9.1 -12.3 0-24.6-8.1-36.6-8.3 -12.2-0.3-23.8 7.3-35.2 7.2 -11.2-0.2-21.2-8.3-32.4-7.9 -11.5 0.4-24 9.3-35.2 9.8 -11.3 0.2-21.5-8.2-31.5-8.3 -10.1-0.2-21.3 6.2-28.1 7.6 -6.8 1.3-11.1 1.4-12.7 0.4v23.5c1.6 1 5.9 0.9 12.7-0.4 6.8-1.4 18.1-7.8 28.1-7.6 10 0.1 20.2 8.5 31.5 8.3 11.2-0.4 23.8-9.5 35.2-9.8 11.2-0.4 21.1 7.8 32.4 8 11.4 0.1 23-7.4 35.2-7.2 12 0.2 24.3 8.4 36.6 8.3 12.1-0.3 23.5-9 36.1-9.1 12.6 0 26.5 8.5 38.9 8.7 12.2 0 24.9-8 33.8-8.3 8.7-0.4 13.5 5.3 18.8 6.4 5.2 1.1 9.1 1.3 12.2 0.4v-23.5C556.4 259.8 552.5 259.6 547.3 258.5zM358.5 246.3v0l0 0C358.5 246.3 358.5 246.3 358.5 246.3zM386.8 241.4c9.9 1 19.3 10.5 31.2 10.6 11.8-0.2 26.6-11.3 39.5-11.3 13 0 26.9 10 37.3 11 10.3 0.8 17.9-1.2 23.6-6.1l-44.4-97.7c12.3-4.6 23-8.8 32.7-12.5 9.6-3.9 22.2-5.1 24.7-10.1 2.2-5 2.8-20-10.8-19.3 -13.9 0.8-56.4 18.1-70.6 24.1 -14.2 5.8-11.6 6.5-13.5 10.9 -1.8 4.3-0.5 6.2 2.8 15.2 3.1 9 8.5 21.6 16.2 38.4l-97 51.8C367.4 242.1 376.8 240.4 386.8 241.4zM505.7 190.1c0 15.6 12.1 28.3 27.1 28.3 15 0 27.1-12.7 27.1-28.3 0-15.6-12.1-28.3-27.1-28.3S505.7 174.5 505.7 190.1zM257.1 238.4c12.7 4.4 24.4 7.7 35.9 9.8l0 0c9-4.2 17.3-6.3 25.2-6.2 7.8 0.2 15.6 5.8 21.7 6.8 6 0.9 10.7 0.3 14.3-1.7 -29-11.9-53.5-21.4-75-29.1 -21.6-7.7-42.4-17-52.8-16.4 -10.4 0.6-14.2 13.2-9 19.6C222.4 227.4 244.3 233.7 257.1 238.4zM547.3 297.7c-5.3-1.1-10.1-6.8-18.8-6.4 -8.9 0.3-21.6 8.3-33.8 8.3 -12.4-0.3-26.3-8.7-38.9-8.7 -12.6 0.1-24 8.8-36.1 9.1 -12.3 0-24.6-8.1-36.6-8.3 -12.2-0.3-23.8 7.3-35.2 7.2 -11.2-0.2-21.2-8.3-32.4-7.9 -11.5 0.4-24 9.3-35.2 9.8 -11.3 0.2-21.5-8.2-31.5-8.3 -10.1-0.2-21.3 6.2-28.1 7.6 -6.8 1.4-11.1 1.3-12.7 0.4v23.5c1.6 1 5.9 1 12.7-0.4 6.8-1.4 18.1-7.8 28.1-7.6 10 0.1 20.2 8.5 31.5 8.3 11.2-0.5 23.8-9.4 35.2-9.8 11.2-0.4 21.1 7.7 32.4 7.9 11.4 0.1 23-7.5 35.2-7.2 12 0.2 24.3 8.4 36.6 8.3 12.1-0.3 23.5-9 36.1-9.1 12.6 0 26.5 8.4 38.9 8.7 12.2 0 24.9-8 33.8-8.3 8.7-0.3 13.5 5.3 18.8 6.5 5.2 1.1 9.1 1.3 12.2 0.4v-23.5C556.4 298.9 552.5 298.8 547.3 297.7z"/></svg>