<svg version="1.1" id="Layer_1" xmlns="http://www.w3.org/2000/svg" xmlns:xlink="http://www.w3.org/1999/xlink" viewBox="0 0 768 430" xml:space="preserve">
<path fill="#DDE4D0" d="M547.3,225.5c-5.3-1.2-10.1-6.8-18.8-6.5c-8.9,0.3-21.6,8.3-33.8,8.3c-12.4-0.3-26.3-8.7-38.9-8.7
	c-12.6,0.101-24,8.801-36.1,9.101c-12.3,0-24.601-8.101-36.6-8.3c-12.2-0.301-23.8,7.3-35.2,7.199c-11.2-0.199-21.2-8.3-32.4-7.899
	c-11.5,0.399-24,9.3-35.2,9.8c-11.3,0.2-21.5-8.2-31.5-8.3c-10.1-0.2-21.3,6.2-28.1,7.6c-6.8,1.3-11.1,1.4-12.7,0.4v23.5
	c1.6,1,5.9,0.899,12.7-0.4c6.8-1.399,18.1-7.8,28.1-7.6c10,0.1,20.2,8.5,31.5,8.3c11.2-0.4,23.8-9.5,35.2-9.8
	c11.2-0.4,21.1,7.8,32.4,8c11.4,0.1,23-7.4,35.2-7.2c12,0.2,24.3,8.4,36.6,8.3c12.1-0.3,23.5-9,36.1-9.101
	c12.601,0,26.5,8.5,38.9,8.701c12.2,0,24.899-8,33.8-8.301c8.7-0.399,13.5,5.301,18.8,6.4c5.2,1.1,9.101,1.3,12.2,0.4v-23.5
	C556.4,226.8,552.5,226.6,547.3,225.5z M358.5,213.3L358.5,213.3L358.5,213.3L358.5,213.3z M386.8,208.4c9.9,1,19.3,10.5,31.2,10.6
	c11.8-0.2,26.6-11.3,39.5-11.3c13,0,26.9,10,37.3,11c10.3,0.8,17.9-1.2,23.601-6.101L474,114.9c12.3-4.6,23-8.8,32.7-12.5
	c9.6-3.9,22.2-5.1,24.7-10.1c2.199-5,2.8-20-10.801-19.3C506.7,73.8,464.2,91.1,450,97.1c-14.2,5.8-11.6,6.5-13.5,10.9
	c-1.8,4.3-0.5,6.2,2.8,15.2c3.101,9,8.5,21.6,16.2,38.4l-97,51.8C367.4,209.1,376.8,207.4,386.8,208.4z M505.7,157.1
	c0,15.6,12.1,28.3,27.1,28.3s27.101-12.7,27.101-28.3S547.8,128.8,532.8,128.8S505.7,141.5,505.7,157.1z M257.1,205.4
	c12.7,4.399,24.4,7.699,35.9,9.8l0,0c9-4.2,17.3-6.3,25.2-6.2c7.8,0.2,15.6,5.8,21.7,6.8c6,0.9,10.7,0.3,14.3-1.7
	c-29-11.899-53.5-21.399-75-29.1c-21.6-7.7-42.4-17-52.8-16.4s-14.2,13.2-9,19.6C222.4,194.4,244.3,200.7,257.1,205.4z M547.3,264.7
	c-5.3-1.101-10.1-6.8-18.8-6.4c-8.9,0.3-21.6,8.3-33.8,8.3c-12.4-0.3-26.3-8.699-38.9-8.699c-12.6,0.1-24,8.8-36.1,9.1
	c-12.3,0-24.601-8.1-36.6-8.3c-12.2-0.3-23.8,7.3-35.2,7.2c-11.2-0.2-21.2-8.301-32.4-7.9c-11.5,0.4-24,9.3-35.2,9.8
	c-11.3,0.2-21.5-8.2-31.5-8.3c-10.1-0.2-21.3,6.2-28.1,7.6c-6.8,1.4-11.1,1.301-12.7,0.4V291c1.6,1,5.9,1,12.7-0.4
	c6.8-1.399,18.1-7.8,28.1-7.6c10,0.1,20.2,8.5,31.5,8.3c11.2-0.5,23.8-9.399,35.2-9.8c11.2-0.4,21.1,7.7,32.4,7.9
	c11.4,0.1,23-7.5,35.2-7.2c12,0.2,24.3,8.399,36.6,8.3c12.1-0.3,23.5-9,36.1-9.1c12.601,0,26.5,8.399,38.9,8.699
	c12.2,0,24.899-8,33.8-8.3c8.7-0.3,13.5,5.3,18.8,6.5c5.2,1.101,9.101,1.3,12.2,0.4v-23.5C556.4,265.9,552.5,265.8,547.3,264.7z"/>
</svg>
