<svg xmlns="http://www.w3.org/2000/svg" viewBox="0 0 768 430"><style>.a{fill:#FFD99A;}</style><path d="M473.5 354c-4.5-55.2-19-84.2-21.5-97.7 -2.5-13.5 14.3-91.9 14.5-93.5 0.2-1.5-5.7-9.1-5.7-9.1l-61.1-87.6 -0.3-0.4c0 0-0.3-1.8 2 0 2.2 1.8 37.1 30.4 50.6 62.6 2 0.5 2.3-1.6 2.4-3.3 0.1-1.7 1.5-8.9-0.7-13 -2.2-4-40.3-45.1-44.2-48 4.5-0.8 10.4-3.7 10.1-6.3 -0.3-2.7-4.5-6.7-8.7-6.6 -4.2 0.1-12.8 5.8-14.5 6.1 -1.7 0.3-3.6 2.1-5.7 1.8 -2.1-0.3-11.4-0.5-13.6-1.8 -2.3-1.2-10.1-1.9-10.1 1.8s4.2 5.9 14.3 5.5c-21 19.6-46.4 47.1-46.7 50.4 -0.3 3.3-0.3 10.9 0 14 0.3 3.1 3.6-1.6 6.1-6.6 2.5-5 37.2-47.9 41.7-50.4 -8.1 12.3-61 86.5-60.7 88.8 0.3 2.3 12.3 65.9 11.5 83.4 -0.8 17.5 1.4 21.9-12.9 50.8 -11.7 35.3-8.1 48.9-8.4 50.8 -0.3 2 0.5 5.9 4.8 8.4 4.2 2.5 30.2 9.3 38.6 15.3 8.4 5.9 25.4 17.3 25.9 25.4 7.4 0.1 11 0 11 0h10.4c15.9-35.9 55.7-33 63.8-33.8C474.4 360 473.6 357.7 473.5 354zM425.7 152.6c-7 0-58.6 0.6-64.4 0 -5.8-0.6-11.7 0.6-8.8-7.4 2.9-7.9 12.3-33.1 18.4-42.4 6.1-9.3 18.7-31.5 18.7-31.5 3.1-5.1 6-2.1 7.6 1 1.6 3.1 33.5 59.7 36.6 72.9C436.1 152.1 432.7 152.6 425.7 152.6z" fill="#F396A6"/><path d="M357.1 317.3c-4 0-7.2 3.2-7.2 7.2 0 4 3.2 7.2 7.2 7.2s7.2-3.2 7.2-7.2C364.3 320.5 361.1 317.3 357.1 317.3z" class="a"/><path d="M364.3 98.2c0-0.1 0-0.3 0-0.4 -1.7 2.4-3.4 4.8-5.1 7.3C362.1 104.1 364.3 101.4 364.3 98.2z" class="a"/><path d="M353.8 104.5c2.8-3.5 5.9-7.3 8.9-10.9 -1.3-1.6-3.3-2.7-5.6-2.7 -1.3 0-2.4 0.4-3.5 0.9 -1.1 1.1-2.1 2.2-3.1 3.3 -0.4 0.9-0.7 1.9-0.7 3C349.9 100.9 351.5 103.3 353.8 104.5z" class="a"/><circle cx="357.1" cy="352.8" r="7.2" class="a"/><path d="M357.1 289c-4 0-7.2 3.2-7.2 7.2 0 4 3.2 7.2 7.2 7.2s7.2-3.2 7.2-7.2C364.3 292.2 361.1 289 357.1 289z" class="a"/><circle cx="357.1" cy="183" r="7.2" class="a"/><path d="M385.3 69.9c0 2 0.8 3.9 2.2 5.2 1.3-2.3 2.1-3.7 2.1-3.7 3.1-5.1 6-2.1 7.6 1 0.1 0.3 0.5 0.9 1 1.9 0.9-1.2 1.5-2.7 1.5-4.3 0-4-3.2-7.2-7.2-7.2C388.5 62.7 385.3 65.9 385.3 69.9z" class="a"/><path d="M357.1 204.1c-4 0-7.2 3.2-7.2 7.2 0 4 3.2 7.2 7.2 7.2s7.2-3.2 7.2-7.2C364.3 207.4 361.1 204.1 357.1 204.1z" class="a"/><circle cx="357.1" cy="239.6" r="7.2" class="a"/><circle cx="357.1" cy="267.9" r="7.2" class="a"/><path d="M385.3 154.7c0 4 3.2 7.2 7.2 7.2 4 0 7.2-3.2 7.2-7.2 0-0.7-0.1-1.3-0.3-1.9 -4.6 0-9.3 0-13.9 0.1C385.4 153.5 385.3 154.1 385.3 154.7z" class="a"/><path d="M429.3 119.2c-2.3 0-4.3 1.1-5.6 2.7 2.1 4.2 4 8.2 5.6 11.7 4 0 7.2-3.2 7.2-7.2C436.5 122.5 433.3 119.2 429.3 119.2z" class="a"/><path d="M351.9 149.8c-1.2 1.3-2 3-2 4.9 0 4 3.2 7.2 7.2 7.2s7.2-3.2 7.2-7.2c0-0.7-0.1-1.4-0.3-2 -1.3 0-2.2-0.1-2.8-0.1C357 152.2 352.7 152.7 351.9 149.8z" class="a"/><path d="M457.4 183c0 2.7 1.5 5.1 3.7 6.3 1-4.9 1.9-9.5 2.7-13.4C460.2 176.3 457.4 179.3 457.4 183z" class="a"/><path d="M324.4 176.3c0.6 3.7 1.3 7.8 2.1 12.1 1.5-1.3 2.5-3.3 2.5-5.4C329 180 327.1 177.4 324.4 176.3z" class="a"/><path d="M399.7 381.1c0-4-3.2-7.2-7.2-7.2 -4 0-7.2 3.2-7.2 7.2 0 4 3.2 7.2 7.2 7.2C396.5 388.3 399.7 385.1 399.7 381.1z" class="a"/><path d="M429.3 90.9c-0.6 0-1.1 0.1-1.7 0.2 2.8 3.1 5.5 6.5 8.2 10 0.4-0.9 0.7-1.9 0.7-3C436.5 94.2 433.3 90.9 429.3 90.9z" class="a"/><path d="M349.9 126.5c0 3.9 3.1 7.1 7 7.2 1.5-3.9 3.3-8.3 5.1-12.5 -1.3-1.2-3-1.9-4.8-1.9C353.1 119.2 349.9 122.5 349.9 126.5z" class="a"/><path d="M464.7 162c0.5 0 1.1-0.1 1.6-0.2 -1.1-2.6-5.4-8.1-5.4-8.1l-2.1-3c-0.8 1.2-1.3 2.6-1.3 4.1C457.4 158.7 460.7 162 464.7 162z" class="a"/><path d="M464.7 303.4c0.3 0 0.7-0.1 1-0.1 -1.2-5-2.4-9.6-3.6-13.8 -2.7 1-4.6 3.6-4.6 6.7C457.4 300.2 460.7 303.4 464.7 303.4z" class="a"/><path d="M422.1 98.2c0 3.1 2 5.7 4.7 6.7l-4.7-6.8C422.1 98.1 422.1 98.1 422.1 98.2z" class="a"/><path d="M429.3 260.7c-4 0-7.2 3.2-7.2 7.2s3.2 7.2 7.2 7.2c4 0 7.2-3.2 7.2-7.2S433.3 260.7 429.3 260.7z" class="a"/><path d="M429.3 232.4c-4 0-7.2 3.2-7.2 7.2 0 4 3.2 7.2 7.2 7.2 4 0 7.2-3.2 7.2-7.2C436.5 235.6 433.3 232.4 429.3 232.4z" class="a"/><path d="M429.3 204.1c-4 0-7.2 3.2-7.2 7.2 0 4 3.2 7.2 7.2 7.2 4 0 7.2-3.2 7.2-7.2C436.5 207.4 433.3 204.1 429.3 204.1z" class="a"/><path d="M429.3 289c-4 0-7.2 3.2-7.2 7.2 0 4 3.2 7.2 7.2 7.2 4 0 7.2-3.2 7.2-7.2C436.5 292.2 433.3 289 429.3 289z" class="a"/><path d="M429.3 317.3c-4 0-7.2 3.2-7.2 7.2 0 4 3.2 7.2 7.2 7.2 4 0 7.2-3.2 7.2-7.2C436.5 320.5 433.3 317.3 429.3 317.3z" class="a"/><path d="M429.3 162c4 0 7.2-3.2 7.2-7.2 0-2-0.8-3.8-2.1-5.1 -0.6 2.7-3.7 3-8.7 3 -0.7 0-1.8 0-3.3 0 -0.2 0.7-0.3 1.4-0.3 2.1C422.1 158.7 425.3 162 429.3 162z" class="a"/><path d="M464.7 345.6c-4 0-7.2 3.2-7.2 7.2 0 4 3.2 7.2 7.2 7.2 4 0 7.2-3.2 7.2-7.2C471.9 348.8 468.6 345.6 464.7 345.6z" class="a"/><path d="M429.3 175.8c-4 0-7.2 3.2-7.2 7.2 0 4 3.2 7.2 7.2 7.2 4 0 7.2-3.2 7.2-7.2C436.5 179.1 433.3 175.8 429.3 175.8z" class="a"/><path d="M464.7 317.3c-4 0-7.2 3.2-7.2 7.2 0 4 3.2 7.2 7.2 7.2 2.4 0 4.6-1.2 5.9-3.1 -0.5-3.4-1.1-6.8-1.7-10C467.7 317.8 466.2 317.3 464.7 317.3z" class="a"/><path d="M429.3 360c4 0 7.2-3.2 7.2-7.2 0-4-3.2-7.2-7.2-7.2 -4 0-7.2 3.2-7.2 7.2C422.1 356.8 425.3 360 429.3 360z" class="a"/><path d="M392.5 260.7c-4 0-7.2 3.2-7.2 7.2s3.2 7.2 7.2 7.2c4 0 7.2-3.2 7.2-7.2S396.5 260.7 392.5 260.7z" class="a"/><path d="M392.5 317.3c-4 0-7.2 3.2-7.2 7.2 0 4 3.2 7.2 7.2 7.2 4 0 7.2-3.2 7.2-7.2C399.7 320.5 396.5 317.3 392.5 317.3z" class="a"/><path d="M321.8 345.6c-3.9 0-7 3.1-7.2 6.9 0.6 0.5 1.2 1.1 2 1.5 1.4 0.9 5.4 2.2 10.4 3.9 1.3-1.3 2.1-3.1 2.1-5C329 348.8 325.7 345.6 321.8 345.6z" class="a"/><path d="M329 296.2c0-3.6-2.6-6.5-6.1-7.1 -0.8 1.8-1.7 3.6-2.7 5.6 -0.9 2.6-1.6 5.1-2.4 7.5 1.1 0.7 2.5 1.2 3.9 1.2C325.7 303.4 329 300.2 329 296.2z" class="a"/><path d="M321.8 331.7c4 0 7.2-3.2 7.2-7.2 0-4-3.2-7.2-7.2-7.2 -4 0-7.2 3.2-7.2 7.2C314.5 328.5 317.8 331.7 321.8 331.7z" class="a"/><path d="M392.5 345.6c-4 0-7.2 3.2-7.2 7.2 0 4 3.2 7.2 7.2 7.2 4 0 7.2-3.2 7.2-7.2C399.7 348.8 396.5 345.6 392.5 345.6z" class="a"/><path d="M392.5 175.8c-4 0-7.2 3.2-7.2 7.2 0 4 3.2 7.2 7.2 7.2 4 0 7.2-3.2 7.2-7.2C399.7 179.1 396.5 175.8 392.5 175.8z" class="a"/><path d="M392.5 232.4c-4 0-7.2 3.2-7.2 7.2 0 4 3.2 7.2 7.2 7.2 4 0 7.2-3.2 7.2-7.2C399.7 235.6 396.5 232.4 392.5 232.4z" class="a"/><path d="M392.5 289c-4 0-7.2 3.2-7.2 7.2 0 4 3.2 7.2 7.2 7.2 4 0 7.2-3.2 7.2-7.2C399.7 292.2 396.5 289 392.5 289z" class="a"/><path d="M392.5 204.1c-4 0-7.2 3.2-7.2 7.2 0 4 3.2 7.2 7.2 7.2 4 0 7.2-3.2 7.2-7.2C399.7 207.4 396.5 204.1 392.5 204.1z" class="a"/><path d="M321.8 162c3.9 0 7.1-3.3 7.1-7.2 0-1.5-0.5-3-1.3-4.1 -3.8 5.7-6.1 9.4-6.1 9.9C321.6 160.7 321.7 161.2 321.8 162z" class="a"/></svg>