<svg xmlns="http://www.w3.org/2000/svg" viewBox="0 0 768 430"><style>.a{fill:#9E5777;}</style><polygon points="393.3 85.5 345.7 82.9 325.5 90.5 325.5 166.8 460.7 166.8 460.7 90.4 440.9 82.9 " fill="#8A4C68"/><path d="M440.9 82.9c0 0-11.9 35.2-47.6 35.2 -35.7 0-47.6-35.2-47.6-35.2l-76.4 28.5c0 0 33 66.9 34.8 105.6 1.8 39.3 1.8 39.3 1.8 39.3l-1.4 143h88.8 88.8l-1.4-143c0 0 0 0 1.8-39.3 1.8-38.6 34.8-105.5 34.8-105.5L440.9 82.9z" class="a"/><path d="M517.3 111.5C523.3 115.8 554 227 554 227l-57.5 17.4 -21.6-61.6L517.3 111.5z" class="a"/><path d="M434.5 72c-14.1 6.4-26.1 8.3-41.3 8.3 -15.2-0.1-27.1-2-41.3-8.3l-9.4 11.3c16.1 7.3 30.6 11.9 50.6 11.9s34.5-4.6 50.6-11.9L434.5 72z" fill="#6E334D"/><path d="M434.6 72.1c-0.7 21.7-25 34.8-41.3 35 -16.3-0.2-40.6-13.3-41.3-35L341.4 84.3c2 16.1 28.8 36.7 51.9 36.8 23.1-0.2 49.9-20.7 51.9-36.8L434.6 72.1z" fill="#82445F"/><path d="M269.2 111.5c-6 4.3-36.8 115.5-36.8 115.5l57.5 17.4 21.6-61.6L269.2 111.5z" class="a"/></svg>