<svg xmlns="http://www.w3.org/2000/svg" viewBox="0 0 768 430"><style>.a{fill:#E55A64;}.b{fill:#F0717E;}.c{fill:#F393A0;}.d{fill:#E6E7E7;}</style><path d="M545.3 275.8h-39.4v-70.2c0-8.7-7.1-15.8-15.8-15.8h-29v-60.4c0-8.7-7.1-15.8-15.8-15.8H324.6c-8.7 0-15.8 7.1-15.8 15.9v60.4h-29c-8.7 0-15.8 7.1-15.8 15.8v70.2h-39.4c-8.7 0-15.8 7.1-15.8 15.9v74c0 8.7 7.1 15.9 15.9 15.9h320.8c8.7 0 15.9-7.1 15.9-15.8v-74C561.1 282.9 554 275.8 545.3 275.8z" fill="#F4CCDA"/><path d="M542.8 272.3H227c0 0-29.9 0.6-18.3 36.2 0 0 5.9 7.4 17.8 0 11.9-7.4 33.4-7.6 43.6 3.3s26.6 5.5 34.5 0 30-6.7 35.7 0.1c5.7 6.8 25.5 6.2 36.8-1.1 11.3-7.4 28.9-7.4 36.2 1.1s23.8 14.2 40.2 1.7c16.4-12.5 27.7-3.4 37.9 2.8 10.2 6.2 26.6-8.5 38.5-4 11.9 4.5 24.7 17.9 31.3 8.4C567.7 311.3 572.3 272.3 542.8 272.3z" class="a"/><path d="M496.6 187.6h-220.9c0 0-20.9 0.5-12.8 31.2 0 0 4.1 6.3 12.4 0 8.3-6.3 23.4-6.5 30.5 2.8 7.1 9.4 18.6 4.8 24.2 0 5.5-4.8 21-5.7 24.9 0.1 4 5.8 17.8 5.4 25.7-1 7.9-6.3 20.2-6.3 25.3 1 5.1 7.3 16.6 12.2 28.1 1.5 11.5-10.7 19.4-2.9 26.5 2.4 7.1 5.4 18.6-7.3 26.9-3.4s17.3 15.4 21.9 7.2S517.2 187.6 496.6 187.6z" class="b"/><path d="M318.6 113.5h137.9c0 0 13.1 0.4 8 28.2 0 0-2.6 5.7-7.8 0s-14.6-5.9-19 2.5c-4.4 8.5-11.6 4.3-15.1 0 -3.5-4.3-13.1-5.2-15.6 0.1 -2.5 5.3-11.1 4.9-16.1-0.9 -4.9-5.7-12.6-5.7-15.8 0.9 -3.2 6.6-10.4 11-17.5 1.3s-12.1-2.6-16.6 2.2 -11.6-6.6-16.8-3.1c-5.2 3.5-10.8 13.9-13.7 6.5C307.7 144 305.8 113.5 318.6 113.5z" class="c"/><rect x="208.6" y="339.3" width="352.5" height="4.9" class="a"/><rect x="263.9" y="242.8" width="241.9" height="2.7" class="b"/><rect x="263.9" y="252.6" width="241.9" height="2.7" class="b"/><circle cx="327.9" cy="161.5" r="4.4" class="c"/><circle cx="349" cy="177.6" r="5.7" class="c"/><circle cx="380.5" cy="160" r="8.3" class="c"/><circle cx="401.8" cy="177.6" r="4.4" class="c"/><circle cx="419.7" cy="158.9" r="7" class="c"/><circle cx="444.7" cy="178.7" r="6.3" class="c"/><circle cx="451" cy="155.2" r="4.8" class="c"/><circle cx="350.5" cy="157.2" r="1.2" class="c"/><circle cx="317.7" cy="180.9" r="1.6" class="c"/><circle cx="379.2" cy="181.9" r="1.5" class="c"/><rect x="380.9" y="63.3" width="10.2" height="50.3" class="a"/><polygon points="380.9 98.1 391.1 91.5 391.1 86 380.9 92.6 " class="d"/><polygon points="380.9 88.7 391.1 82.1 391.1 76.6 380.9 83.2 " class="d"/><polygon points="380.9 107.5 391.1 100.9 391.1 95.3 380.9 102 " class="d"/><polygon points="380.9 79.3 391.1 72.7 391.1 67.2 380.9 73.8 " class="d"/><polygon points="380.9 111.3 380.9 112.8 391.1 112.8 391.1 104.7 " class="d"/><polygon points="391.1 63.3 391.1 63.3 380.9 63.3 380.9 70 " class="d"/><rect x="385.3" y="60.7" width="1.3" height="2.6" class="a"/><path d="M384.8 46.5c0 0 1.1 4.8-1.1 7.3 -0.9 1-3.9 7.3 2.4 7.3C394.9 61.2 387 47.6 384.8 46.5z" class="a"/></svg>