<svg version="1.1" xmlns="http://www.w3.org/2000/svg" x="0" y="0" width="768" height="430" viewBox="0 0 768 430" enable-background="new 0 0 768 430" xml:space="preserve"><path fill="#DDE4D0" d="M572.4 150.4l19.6-2.9L474.9 88l-160.9 23.9c0 0 0 0 0 0 -4.1-2.9-95.5 13.4-106 15.8 -0.2 0-0.5 0.1-0.7 0.1l-25.3 3.8c-4 0.5-6.7 0.8-6.7 0.8s0.1 0.1 0.3 0.2l-0.3 0 -0.1-0.1 0.1 5.4 4.8 3.4v5.8c0 0 0 0 0 0l0.1 129.1 10.2 7.1V152.6c0.1 0.1 0.2 0.2 0.3 0.3l-0.1 130.3 13.4-2.6 0.1-122.5 53.6 37.7v138.4l11.3 7.9V212.8c0.1 0.2 0.2 0.4 0.2 0.4s0-0.1 0-0.2l-0.2 129.1 14.8-2.7V200.3l176.7-26.6 0 63.1 9.9 7.1v-37.4c0.1-0.2 0.1-0.4 0.2-0.6l0 38.1 13.2-2.4v-43.6l0.1-27.7 78.3-11.8 0.1 17.6v113.5l10.3 7.2v-98.2c0.1 0.1 0.2 0.1 0.3 0.2l-0.1 98 13.5-2.5v-133l0.1-6.5 5.4-0.8v-6.3l-19.2 2.9V150.4z"/></svg>