<svg version="1.1" id="Layer_1" xmlns="http://www.w3.org/2000/svg" xmlns:xlink="http://www.w3.org/1999/xlink" viewBox="0 0 768 430" xml:space="preserve">
<path fill="#DDE4D0" d="M572.4,118.4l19.6-2.9L474.9,56L314,79.9l0,0c-4.1-2.9-95.5,13.4-106,15.8c-0.2,0-0.5,0.1-0.7,0.1L182,99.6
	c-4,0.5-6.7,0.8-6.7,0.8s0.1,0.1,0.3,0.2h-0.3l-0.1-0.1l0.1,5.4l4.8,3.4v5.8l0,0l0.1,129.1l10.2,7.1V120.6c0.1,0.1,0.2,0.2,0.3,0.3
	l-0.1,130.3L204,248.6l0.1-122.5l53.6,37.7v138.4L269,310.1V180.8c0.1,0.2,0.2,0.4,0.2,0.4s0-0.1,0-0.2L269,310.1l14.8-2.699V168.3
	l176.7-26.6v63.1l9.9,7.101v-37.4c0.1-0.2,0.1-0.4,0.199-0.6V212l13.2-2.4V166l0.101-27.7l78.3-11.8l0.1,17.6v113.5l10.3,7.2v-98.2
	c0.101,0.1,0.2,0.1,0.301,0.2l-0.101,98l13.5-2.5v-133l0.101-6.5l5.399-0.8v-6.3l-19.2,2.9v-0.2H572.4z"/>
</svg>
