<svg xmlns="http://www.w3.org/2000/svg" viewBox="0 0 768 430"><style>.a{fill:#F98AB7;}.b{fill:#FFA4CD;}.c{fill:#EA6C96;}.d{fill:#E2D5D9;}.e{fill:#231F20;}</style><path d="M147.3 337.6c0 0-4.9 3.3-4.5 8.3 0.3 3.5 3 12.7 24.2 11.5 14.7-0.8 35.9-10.8 51.3-16.1 13.9-4.8 47.1-18.2 53.8-24.1 4.7-4.1 3.2-8.4 0-11.6 -3.2-3.2-4.5-4.1-4.5-4.1L147.3 337.6z" class="a"/><path d="M272.1 314.7c-6.7 5.9-39.9 19.3-53.8 24.1 -15.4 5.3-36.6 15.3-51.3 16.1 -19.9 1.1-23.5-7-24.1-10.9 -0.1 0.6-0.1 1.2-0.1 1.9 0.3 3.5 3 12.7 24.2 11.5 14.7-0.8 35.9-10.8 51.3-16.1 13.9-4.8 47.1-18.2 53.8-24.1 2.7-2.3 3.3-4.7 2.9-6.9C274.6 311.8 273.7 313.2 272.1 314.7z" class="b"/><path d="M268.9 301.2c21.1-1 77.1-32.4 102.8-51.9 41.5-31.5 38.6-27.5 38.6-27.5l19 8.1c0 0-52.8 54.3-153.2 87.3L268.9 301.2z" class="a"/><path d="M425.4 229c-4.7 4.7-56.7 55.1-151.5 86.5l0.8 1.8c100.3-32.9 153.2-87.3 153.2-87.3L425.4 229z" class="b"/><path d="M644.5 152c0.1 0 0.1 0 0.1 0l-0.1 0c-5.1-9.3-16.6-7-20.1-5.7 -1.5 0.6-73.4 27-134.2 49.9 -46.8 17.6-58.1 23.3-80.8 25.3l19.9 8.5c2.4 0.3 13.5 2.9 31.1-3C477.8 221.2 640.4 153.7 644.5 152L644.5 152 644.5 152z" fill="#EF81AE"/><path d="M643.9 149.9c-16.5 6.8-166 68.8-182.7 74.4 -17.6 5.9-28.7 3.3-31.1 3l-14.8-6.4c-1.6 0.2-3.3 0.4-5 0.5l19.9 8.5c2.4 0.3 13.5 2.9 31.1-3 17.4-5.8 180-73.2 184.1-74.9l0 0c0.1 0 0.1 0 0.1 0l-0.1 0C644.9 151.3 644.4 150.6 643.9 149.9z" class="b"/><path d="M644.7 152c0 0-166.6 69.1-184.3 75 -17.6 5.9-28.7 3.3-31.1 3 -3.9-0.5-44.2 50.1-153.2 87.1v5.6c97.9-30.9 152.8-82.4 156.8-81.7 1.2 0.2 16.4 1.5 31-3.7 51.2-18.2 159.4-64.9 178-73 1.8-0.8 2.4-1.2 2.8-1.8C646.2 160.3 644.7 152 644.7 152z" class="c"/><path d="M275 310.4c0 0 3 14.7-1 19.6 -2.6 3.3-27.7 14.4-52.6 24.1 -25 9.7-38.4 15.2-46.3 16.3 -7.9 1-17.7 2.8-25-2.7 -6.2-4.7-7-13.2-7.3-16 -0.4-3.4-0.2-7.1-0.2-7.1s-0.1 14.5 25.5 13c9-0.5 25.2-6.7 44.3-13.9 14.9-5.6 32.3-11.4 47-19C271.1 318.5 276.4 316.8 275 310.4z" class="c"/><path d="M270.6 266.3c0.3-5.1-13.9-7.2-13.9-7.2s-5.9-3.7-11.1-2.6c-2.4 0.5-9.6 4.2-11.4 6.1 -1.9 1.9-14.2 0.5-18.7 5 -5.3 5.4-17.3 3.7-17.3 3.7s-13.2 3.2-13.2 5 -9.7 1.9-9.7 1.9 -7.7 2.7-7.7 5.2c0 2.5-3.5 4-9.1 3.6 -17-1.4-16.1 12.4-16.1 12.4s4.4 24.6 5.2 42.3c0.4 7.8 17.9 11.4 42.6 2.2 25.1-9.3 76.7-27.1 79.4-35.1 1.4-4-2.9-19.1 0.6-37.5C270.2 271.3 270.3 271.3 270.6 266.3z" fill="#F9EFF3"/><path d="M173 348.6c-1.8-22.1 4.6-37.8 4.8-38.3l4.5-2.8c-0.1 0.1-9.3 20.6-4.8 40.3L173 348.6z" class="d"/><path d="M146.6 289.2c0 0-3.3 3.2-3.6 5.8 -0.3 2.7-0.3 6.4 2.4 7.1 2.8 0.7 1.5 0.9 3.2 0.7 1.8-0.2 4-0.6 5.4 1s2.6 2.4 3.3 3.5c0.7 1.1 1.3 1.9 4.2 2 3 0.1 6.9-0.3 7.8-0.2 0.9 0.1 6.8 1.8 7.8 1.3 1-0.5 3.4-2.7 5.1-2.8 1.7-0.2 2.5 0.1 4.2-2.6 1.7-2.7 3.6-5.5 4.9-5.3 1.3 0.2 4.5 0.8 5.4 0 0.9-0.7 2.4-2.9 3-3 0.6-0.1 8 2 10.5 1.6s5.6-1.8 7.9-4.3c2.3-2.5 2-3.2 5.1-2.6 3.1 0.6 9.2 2.3 10.8 2 1.6-0.3 3.1-0.9 3.9-2.6 0.8-1.8 2.1-3.1 3.9-3.7 1.8-0.6 5.3-2 6.8-3.5 1.5-1.5 4.4-3.9 6.6-5 2.2-1.1 7-3.3 7.5-4.4 0.4-1.1 0-2.2 0.4-2.6 0.4-0.4 0.7-0.7 2-0.5 1.3 0.2 2 0.8 2.9-0.6 0.9-1.3 2.6-2.9 2.7-3.7 0-0.8-1.1-3.9-5-5.2s-4.1-1.4-4.1-1.4 -1.2 4.1-5.9 9.4c-20.3 22.8-26.8 13.2-44.1 20.5 -14.9 6.3-27.2 10.8-37.5 11.1C159 301.5 151.7 296.4 146.6 289.2z" fill="#FFF8F8"/><path d="M223.1 331.6c-0.1-0.6-3.6-13.2-2.1-24.9 1.5-11.8 4-14.9 4.6-15.6l4.9 2.1c0 0 0 0 0.1-0.1 0 0-2.9 3.2-4.2 12.9 -1.3 10.7 1.4 23.5 1.4 23.6L223.1 331.6z" class="d"/><path d="M256.7 317.8c-5.3-11.7-3.6-36-1.5-39.4 0 0 3.8-1.9 3.8-1.9 -0.9 2-3.8 28.2 1.1 39.6L256.7 317.8z" class="d"/><path d="M155.9 328.4l-3.2 5.5c0.5-13.7-3.9-31.1-4-31.2l4.1 0.2C152.9 303.4 156.5 314.1 155.9 328.4z" class="d"/><path d="M153 332.5l-0.6 0c0.6-14-2.5-25.5-2.6-25.6l0.6-0.2C150.5 306.9 153.6 318.5 153 332.5z" class="e"/><path d="M183.9 336.4c-0.6-6.5 1.4-29.5 1.4-29.7l0.6 0.1c0 0.2-1.9 23.2-1.4 29.6L183.9 336.4z" class="e"/><path d="M226.9 327.2c0-0.1-2.3-9.7-0.9-20.9 1.4-11.3 4.1-13.5 4.2-13.6l0.4 0.5c0 0-2.6 2.2-4 13.2 -1.4 11.2 0.8 20.6 0.9 20.7L226.9 327.2z" class="e"/><path d="M235.1 315.9c-0.6-0.3-0.5-10.1-0.5-10.5 0-4.8 0.3-11 1.2-13l0.6 0.3c-1.6 3.5-1.1 22.1-0.8 22.9l-0.3 0.1L235.1 315.9z" class="e"/><path d="M264.7 306.8c-0.3-1.3-0.2-3.4-0.1-5.8 0.1-2 0.2-4.3 0.1-6.4 -0.3-4.5 0-19.4 0-19.6l0.6 0c0 0.2-0.3 15.1 0 19.5 0.1 2.1 0 4.4-0.1 6.5 -0.1 2.4-0.2 4.5 0.1 5.6L264.7 306.8z" class="e"/><path d="M254.6 311.8c-3.1-9.6-1.6-28-0.4-30.1l0.5 0.3c-1 1.7-2.7 19.7 0.5 29.6L254.6 311.8z" class="e"/><path d="M173 345c-1.8-22 3.9-33.2 4-33.3l0.6 0.3c-0.1 0.1-5.7 11.2-3.9 33L173 345z" class="e"/><path d="M212.2 324c-0.3-2.2 0-17 1.6-26.8l0.6 0.1c-1.6 10-1.8 24.9-1.6 26.7L212.2 324z" class="e"/><path d="M645.3 152l-0.1-0.8 -0.1 0c-5-8.7-15.8-7.3-20.9-5.4 -1 0.4-14.7 5.5-33.7 12.5 -49.9 18.5-133.4 49.4-146.2 54.4 -14.1 5.5-25.5 7.1-31.5 8 -1.6 0.2-2.7 0.4-3.5 0.6 -1.1 0.3-4.5 2.8-12.1 8.6 -16.3 12.4-46.7 35.6-78.8 52.1 -27.2 14-43.1 18.1-48.2 19.2 0-0.3 0-0.6-0.1-0.9 -0.6-6.9-1.5-17.2 0.7-28.8l0 0c0.1-0.5 0.2-1.7 0.4-5.1 0.3-5.3-12.9-7.5-14.2-7.7 -0.7-0.4-4.9-2.9-9.3-2.9 -0.7 0-1.4 0.1-2.1 0.2 -2.4 0.5-9.7 4.2-11.7 6.2 -0.6 0.6-3 0.9-5.6 1.1 -4.5 0.5-10.2 1-13 3.9 -3.1 3.2-8.7 3.8-12.8 3.8 -2.4 0-4.1-0.2-4.1-0.2l-0.1 0 -0.1 0c-4.1 1-13.6 3.5-13.6 5.5 0 0.7-3.9 1.4-9.2 1.4l-0.2 0c-0.8 0.3-8 2.9-8 5.7 0 1.9-2.6 3.2-6.7 3.2 -0.6 0-1.2 0-1.9-0.1 -6-0.5-10.5 0.8-13.4 3.9 -3.5 3.8-3.3 8.8-3.2 9 0 0.2 3.7 20.8 4.9 37.7 -0.5 0.4-3.9 2.9-4.5 6.8 -0.1 0.5-0.1 1-0.1 1.5h0c-0.1 0.5-1.2 13.1 5.2 20.4 2.4 2.8 7.4 6.1 17.1 6.1 6.8 0 15.9-1.6 28-6.2 3.1-1.2 75.7-28.5 81.5-34.9 1.7-1.8 2.4-4.6 2.6-7.6 75-23.7 124.5-59.4 145.6-74.6 5.4-3.9 9.7-7 10.5-7 0 0 0 0 0 0 0.1 0 15.8 1.8 31.3-3.7 50.9-18.1 157.2-64 178-73 1.9-0.8 2.5-1.2 3-2C646.8 160.6 645.5 152.9 645.3 152zM412.9 222c6.1-0.9 17.6-2.5 31.8-8.1 12.8-5 96.3-35.9 146.2-54.3 19-7 32.7-12.1 33.7-12.5 0.1-0.1 13.6-5.1 19.3 4.7 -10.7 4.4-166.8 69.1-183.7 74.8 -15.9 5.3-26.5 3.7-30 3.1 -0.3 0-0.6-0.1-0.8-0.1l-17.8-7.4C412 222.1 412.4 222 412.9 222zM143.2 296.2c0.4-1.6 1.1-3.5 2.7-5.2 2.3-2.4 5.8-3.7 10.3-3.7 0.7 0 1.5 0 2.3 0.1 0.7 0.1 1.3 0.1 2 0.1 4.7 0 7.6-1.6 7.6-4.1 0-1.6 4.4-3.7 7.3-4.8 3.8 0 10.1-0.3 10.1-2.3 0.2-1 6.8-3.1 12.8-4.6 0.4 0 2 0.2 4.1 0.2 4.3 0 10.1-0.7 13.5-4.1 2.6-2.6 8.1-3.2 12.5-3.6 3.1-0.3 5.3-0.5 6.2-1.4 1.8-1.8 9-5.5 11.2-6 0.6-0.1 1.2-0.2 1.9-0.2 4.4 0 8.8 2.7 8.9 2.8l0.1 0.1 0.1 0c3.8 0.6 13.6 2.9 13.5 6.6l-3 4.7c-1.1-0.2-3.4-0.7-4.2 0.1 -0.3 0.2-0.3 0.6-0.3 1 0.5 2.1-1.1 3-4.6 4.6 -3 1.4-6.7 3.2-10 6.9 -1.2 1.3-3.2 2-5.1 2.6 -1.5 0.5-3 1-3.9 1.8 -0.6 0.5-0.9 1.3-1.2 2 -0.8 2-1.7 4-7.9 2.4 -8.7-2.2-9.5-1.8-9.7-1.4 -0.3 0.3-1.8 2.3-5.1 5 -3.6 3.1-10.3 1.3-13 0.4 -1.3-0.4-2.4-0.4-3.2 0.1 -0.9 0.5-1.2 1.4-1.3 1.7 -0.1 0.3-1.4 2.5-5.2 1.1 -3.2-1.1-6.4 5.5-7.1 7.1 -1.1 0.2-5 0.8-6.5 2.7 -1 1.2-5.1 0.3-7.3-0.1 -1.5-0.3-2.2-0.4-2.5-0.3 -1.1 0.4-10 0.6-10.6-0.9 -0.9-2-5-6.3-7.8-5.6 -2.4 0.5-4.2 0.2-5.5-0.9C143.4 299.8 143 297.7 143.2 296.2zM143 300.1c0.3 0.6 0.7 1.2 1.3 1.7 1.1 0.9 3 1.9 6.4 1.1 2.2-0.5 5.9 3.2 6.7 5.1 1.1 2.5 11.1 1.6 11.8 1.4 0.2 0 1.2 0.2 2.1 0.3 1.6 0.3 3.6 0.7 5.3 0.7 1.3 0 2.4-0.2 2.9-0.9 1.5-1.8 6.2-2.4 6.2-2.4l0.3 0 0.1-0.2c0.9-2 3.9-7.6 6.1-6.8 4.9 1.7 6.4-1.6 6.4-1.7l0-0.1c0 0 0.2-0.7 0.9-1.1 0.6-0.3 1.4-0.3 2.5 0 2.9 1 9.9 2.8 13.9-0.6 3.2-2.8 4.8-4.7 5.2-5.1 0.3 0 2-0.1 8.8 1.7 7 1.8 8.1-0.9 9-3 0.3-0.7 0.5-1.3 1-1.7 0.8-0.7 2.1-1.1 3.6-1.6 2-0.6 4.2-1.4 5.5-2.9 3.1-3.6 6.8-5.3 9.7-6.7 3.2-1.5 5.8-2.7 5.1-5.7 0-0.1 0-0.1 0-0.1 0.2-0.3 1.8-0.2 3.6 0.2l0.3 0.1 2.5-3.8c-0.2 2.7-0.2 3.2-0.2 3.2v0c-2.2 11.7-1.3 22.2-0.7 29.1 0 0.3 0.9 6.5 0.1 8.4 -2.5 6.7-44.1 22-69.1 31.1 -3.7 1.3-7.1 2.6-10.1 3.7 -9.6 3.5-18.7 5.4-26.4 5.4 0 0 0 0 0 0 -9.3 0-15.4-2.8-15.6-7.2C147.3 325.9 143.7 304.5 143 300.1zM143.5 344.2c0.5-2.6 2.4-4.6 3.4-5.5 0.1 1 0.1 2.1 0.2 3.1 0.2 5 6.6 8.1 16.5 8.1 0 0 0 0 0 0 7.8 0 17-1.9 26.7-5.5 3-1.1 6.4-2.4 10.1-3.7 35.4-12.9 67.3-25 69.6-31.6 0.3-1 0.4-2.4 0.3-4.4 1.5 1.5 3.1 3.6 3.8 5.8h0c0.1 0.3 0.1 0.6 0.2 0.9 0.1 0.9 0.1 1.9-0.2 2.8 -2.4 6.9-46.7 23.3-73.2 33 -3.9 1.4-7.5 2.8-10.7 4 -25.7 9.6-40.3 5.4-45-1.1C143.7 348.1 143.2 346.1 143.5 344.2zM273.1 330.1c-5.6 6.2-80.3 34.3-81 34.6 -28.9 10.8-39.8 4.9-43.8 0.4 -3.9-4.4-4.8-11.2-5-15.4 0.2 0.4 0.4 0.8 0.7 1.2 2.9 4 9.3 7.3 19.4 7.3 7.1 0 16.1-1.6 27.1-5.7 3.2-1.2 6.8-2.5 10.7-4 36.6-13.5 69.8-26.2 73.7-33.2C275.9 321.1 275.7 327.2 273.1 330.1zM275.3 310.1c0 0 0 0 0 0h0c-0.9-3-3.3-5.7-5.1-7.4 0-0.1 0-0.3 0-0.4 5.2-1 21.2-5.1 48.7-19.3 32.1-16.6 62.6-39.7 79-52.2 5.7-4.4 10.3-7.8 11.5-8.3l18.3 7.6c-1.2 0.8-3 2.4-6.1 5.1 -16.2 14.2-59 51.9-145.1 81.2 -0.3-2.2-0.6-4.2-0.9-5.5C275.5 310.7 275.4 310.4 275.3 310.1zM644.2 162.4c-0.3 0.5-0.7 0.8-2.5 1.6 -20.8 9-127.1 54.9-178 72.9 -13.9 4.9-28.9 4-30.7 3.7 -1.2-0.2-3.7 1.6-11.5 7.2 -21.1 15.2-70.3 50.6-144.8 74.3 0-1.4 0-2.9-0.2-4.2 86.5-29.4 129.5-67.3 145.8-81.5 3.3-2.9 6.2-5.4 6.8-5.5 0.2 0 0.5 0.1 0.8 0.1 3.6 0.6 14.4 2.2 30.6-3.2 16.9-5.6 171.6-69.8 183.6-74.7C644.6 155.6 645.2 160.8 644.2 162.4z"/><path d="M172.6 301.2c-25.3 0.8-41.1-24-14.6-37.3 17.3-8.7 41.4-5.8 53.9-5.2 12.5 0.6 31.4-2 40.6-7.7 5.1-3.2 14.2-12.1 15-10 1.4 3.6-6.5 27.1-20.9 37.7 -14.8 10.9-20.8 6.2-33.3 10.7C203.8 292.7 192.2 300.6 172.6 301.2z" fill="#DEF9F8"/><path d="M268 240.7c-1.5 7.9-9 25.4-20.8 34.1 -14.8 10.9-20.8 6.2-33.3 10.7 -9.4 3.4-21 11.3-40.6 11.9 -15.1 0.5-26.8-8.2-28.2-18.1 -1.5 11.3 11.2 22.3 28.2 21.8 19.6-0.6 31.2-8.4 40.6-11.8 12.5-4.5 18.5 0.2 33.3-10.7 14.4-10.6 22.3-34.1 20.9-37.7C268.1 240.8 268.1 240.7 268 240.7z" fill="#CDE8E6"/><path d="M164.1 270.4c16.9-9.5 41.1-7.7 53.6-7.7 12.5 0 31.3-3.4 40.2-9.6 2.9-2 7-6 10.2-8.6 0.3-1.7 0.4-2.9 0.1-3.6 -0.8-2.1-9.9 6.8-15 10 -9.2 5.8-28.1 8.3-40.6 7.7 -12.5-0.6-36.6-3.5-53.9 5.2 -18.4 9.2-16.4 24-5 31.9C148.8 288.1 150.6 277.9 164.1 270.4z" fill="#F0FFFE"/><path d="M171.4 301.7c-13.4 0-24.9-7.2-27.2-17.1 -1.9-8.1 3-15.8 13.6-21.1 8.3-4.2 19.1-6.2 33-6.2 5.8 0 11.4 0.3 15.9 0.6 1.9 0.1 3.7 0.2 5.2 0.3 1.1 0.1 2.3 0.1 3.5 0.1 11.8 0 28.3-2.4 36.8-7.8 1.8-1.1 4.2-3 6.5-4.9 4.3-3.4 6.9-5.5 8.3-5.5 0.4 0 0.8 0.2 0.9 0.6 1.6 3.9-6.6 27.6-21.1 38.2 -9.5 7-15.4 7.6-21.6 8.3 -3.6 0.4-7.3 0.8-11.8 2.4 -2.3 0.8-4.7 1.9-7.3 3.1 -8.3 3.7-18.6 8.4-33.5 8.8C172.2 301.7 171.8 301.7 171.4 301.7zM190.8 258.2c-13.8 0-24.4 2-32.6 6.1 -10.1 5.1-14.9 12.4-13.1 20.1 2.2 9.3 13.5 16.3 26.3 16.3 0.4 0 0.7 0 1.1 0 14.8-0.4 25-5 33.2-8.7 2.6-1.2 5-2.3 7.3-3.1 4.6-1.7 8.4-2.1 12-2.5 6.1-0.7 11.9-1.3 21.2-8.1 14.5-10.6 22-34 20.8-37.1 0 0 0 0-0.1 0 -1.1 0-4.6 2.8-7.7 5.3 -2.3 1.9-4.7 3.8-6.6 4.9 -8.6 5.4-25.4 7.9-37.3 7.9 -1.2 0-2.4 0-3.6-0.1 -1.6-0.1-3.4-0.2-5.2-0.3C201.9 258.6 196.6 258.2 190.8 258.2z" class="e"/></svg>