<svg version="1.1" id="Layer_2" xmlns="http://www.w3.org/2000/svg" xmlns:xlink="http://www.w3.org/1999/xlink" viewBox="0 0 768 430" enable-background="new 0 0 768 430" xml:space="preserve">
<g>
	<g>
		<g>
			<polygon fill="#FFFFFF" points="516.227,62.599 538.38,101.766 576.282,77.52 545.878,110.688 580.651,139.245 539.709,120.579 
				523.296,162.476 528.397,117.768 483.48,115.106 527.573,106.143 			"/>
			<polygon fill="#FFFFFF" points="210.52,124.47 232.674,163.637 270.576,139.391 240.171,172.559 274.945,201.117 
				234.003,182.451 217.59,224.348 222.691,179.639 177.774,176.978 221.867,168.015 			"/>
		</g>
	</g>
	<g>
		<g>
			<g>
				<g>
					<path fill="#1C1C1C" d="M341.404,384.865c-0.167,3.883-36.327,26.159-39.242,11.24
						C299.247,381.187,341.571,380.983,341.404,384.865z"/>
				</g>
				<g>
					<path fill="#1C1C1C" d="M433.988,384.867c0.166,3.883,36.326,26.159,39.242,11.238
						C476.146,381.187,433.821,380.984,433.988,384.867z"/>
				</g>
			</g>
			<g>
				<path fill="#305269" d="M348.72,309.778c-3.804,20.11-8.051,74.888-8.051,74.888l46.689-54.929l46.629,54.929
					c0,0-6.249-56.417-10.064-75.651C404.571,311.23,366.906,312.435,348.72,309.778z"/>
				<path fill="#0D3B4A" d="M431.514,363.329c-1.573,4.771-4.135,9.669-7.436,5.956c-5.694-6.407-34.168-42.712-34.168-42.712
					l0.975-9.779l33.585-4.867c-0.186-1.045-0.369-2.019-0.547-2.912c-19.352,2.216-57.017,3.42-75.203,0.764
					c-0.672,3.554-1.359,8.193-2.032,13.42l36.104-5.231v8.369c0,0-31.074,44.373-37.012,45.084
					c-1.902,0.229-3.032-1.399-3.692-3.712c-0.874,9.937-1.418,16.958-1.418,16.958l46.689-54.929l46.629,54.929
					C433.987,384.666,432.973,375.514,431.514,363.329z"/>
			</g>
		</g>
		<g>
			<path fill="#FFBE8E" d="M355.267,240.707c0,0-1.458-0.221-3.587-0.313c0.415-3.916-1.013-21.885-2.187-22.753
				c-1.284-0.949-40.122-4.745-42.449-1.265c-2.327,3.479,2.446,31.636,4.107,32.902c0.963,0.734,14.103-1.766,25.135-4.207
				c-2.727,4.002-0.763,9.868,2.033,8.28c5.475-3.105,13.223-4.98,16.595-5.696c1.052-0.223,1.327-2.08,1.327-2.08L355.267,240.707z
				"/>
			<path fill="#E8A26E" d="M355.818,243.462l-0.551-2.755c0,0-1.456-0.221-3.585-0.312c0.173-1.649,0.022-5.767-0.297-10.056
				c-1.489,2.199-4.708,4.485-8.803,6.236c-0.312,0.133-1.548-9.551-1.869-9.423c-0.382,0.151,0.147,10.11-0.248,10.251
				c-1.199,0.427-5.449,0.915-9.947,1.139c-0.371,0.018-1.85-9.878-2.222-9.862c-0.369,0.016,0.37,9.939,0.002,9.949
				c-4.062,0.117-7.954-0.024-9.614-0.662c-0.318-0.123-2.257-7.514-2.569-7.65c-0.397-0.175,0.834,6.901,0.447,6.702
				c-4.135-2.133-7.666-5.722-9.892-11.272c0.809,9.506,3.357,22.676,4.481,23.532c0.963,0.734,14.103-1.766,25.135-4.207
				c-2.727,4.002-0.763,9.868,2.033,8.28c0.126-0.071,0.255-0.141,0.383-0.21c-0.054-0.062-0.1-0.121-0.157-0.186
				C332.027,245.601,355.818,243.462,355.818,243.462z"/>
		</g>
		<g>
			<path fill="#FFBE8E" d="M412.408,243.055c0,0,1.457-0.221,3.588-0.313c-0.416-3.916,1.012-21.885,2.186-22.753
				c1.284-0.949,40.122-4.745,42.449-1.265c2.325,3.479-2.446,31.637-4.107,32.902c-0.963,0.734-14.103-1.766-25.135-4.206
				c2.728,4.001,0.763,9.867-2.034,8.279c-5.289-3-12.7-4.852-16.236-5.619c-1.265-0.273-1.636-2.395-1.636-2.395L412.408,243.055z"
				/>
			<path fill="#E8A26E" d="M411.858,245.809l0.55-2.754c0,0,1.455-0.221,3.586-0.312c-0.174-1.649-0.022-5.766,0.297-10.056
				c1.488,2.199,4.708,4.485,8.803,6.236c0.311,0.134,1.547-9.55,1.868-9.423c0.384,0.151-0.147,10.11,0.247,10.251
				c1.199,0.428,5.45,0.915,9.947,1.139c0.372,0.019,1.852-9.877,2.224-9.863c0.367,0.017-0.371,9.94-0.003,9.951
				c4.062,0.116,7.954-0.025,9.613-0.662c0.317-0.123,2.258-7.515,2.569-7.651c0.397-0.175-0.834,6.901-0.447,6.702
				c4.136-2.132,7.666-5.722,9.893-11.272c-0.811,9.505-3.357,22.676-4.481,23.532c-0.963,0.734-14.103-1.766-25.135-4.206
				c2.728,4.001,0.763,9.867-2.034,8.279c-0.125-0.071-0.254-0.14-0.382-0.21c0.055-0.062,0.101-0.12,0.157-0.186
				C435.648,247.949,411.858,245.809,411.858,245.809z"/>
		</g>
		<g>
			<g>
				<path fill="#EBA124" d="M413.118,250.08c-1.265-0.273-1.636-2.395-1.636-2.395l0.926-4.631c0,0,1.457-0.221,3.588-0.313
					c-0.089-0.828-0.094-2.289-0.036-4.081c-5.184-0.289-10.629-0.438-16.343-0.438c-12.957,0-28.764,0.91-45.347,2.362
					c0.631,0.066,0.997,0.122,0.997,0.122l0.974,4.868c0,0-0.275,1.857-1.327,2.08c-1.137,0.242-2.779,0.619-4.658,1.127
					c-6.579,26.591-13.224,55.658-11.407,57.792c6.93,8.136,92.11,4.147,96.92,0c1.991-1.717-3.75-27.414-9.969-52.608
					C421.126,251.974,415.913,250.688,413.118,250.08z"/>
				<path fill="#EBA124" d="M416.857,226.599c0.224-1.95,0.47-3.665,0.72-4.864c-2.541-9.694-4.37-16.462-4.591-17.28
					c-7.937,2.979-16.599,4.626-25.676,4.626s-17.74-1.648-25.676-4.628c-0.229,0.857-2.216,8.325-4.936,18.867
					C374.363,223.614,395.86,224.479,416.857,226.599z"/>
			</g>
			<g>
				<path fill="#E39124" d="M413.118,250.08c-1.265-0.273-1.636-2.395-1.636-2.395l0.926-4.631c0,0,1.457-0.221,3.588-0.313
					c-0.089-0.828-0.094-2.289-0.036-4.081c-5.184-0.289-10.629-0.438-16.343-0.438c-12.957,0-28.764,0.91-45.347,2.362
					c0.631,0.066,0.997,0.122,0.997,0.122l0.974,4.868c0,0-0.275,1.857-1.327,2.08c-1.137,0.242-2.779,0.619-4.658,1.127
					c-6.579,26.592-13.224,55.658-11.407,57.792c2.242,2.631,12.675,3.993,25.922,4.493c0,0-10.406-4.722-14.463-7.184
					c-4.058-2.462-0.456-44.919,7.234-50.266c7.69-5.348,38.314-8.841,44.951-8.636c6.637,0.204,27.041,49.083,26.211,53.354
					c-0.828,4.271-18.19,11.857-18.19,11.857c13.361-0.905,23.671-2.255,25.256-3.62c1.991-1.717-3.75-27.413-9.969-52.608
					C421.126,251.974,415.912,250.688,413.118,250.08z"/>
				<path fill="#E39124" d="M412.986,204.454c-7.937,2.979-16.599,4.626-25.676,4.626s-17.74-1.648-25.676-4.628
					c0.003-0.003,0.006-0.005,0.007-0.009c-2.115-0.796-4.185-1.676-6.193-2.657l-20.299,14.037
					c7.576,0.638,13.841,1.445,14.344,1.817c0.399,0.296,0.828,2.569,1.204,5.596c1.939,0.02,3.951,0.048,6.001,0.083
					c0.964-3.738,1.836-7.088,2.571-9.896c25.035,7.141,50.995-3.808,53.844-8.495C413.056,204.709,413.01,204.541,412.986,204.454z
					"/>
				<path fill="#E39124" d="M417.577,221.734c0.202-0.967,0.407-1.6,0.604-1.746c0.705-0.522,12.763-1.904,23.863-2.464
					l-22.806-15.77c-2.026,0.992-4.118,1.883-6.255,2.688c0,0.004,0.001,0.008,0.002,0.011
					C413.207,205.272,415.035,212.038,417.577,221.734z"/>
			</g>
		</g>
		<g>
			<g>
				<path fill="#82A144" d="M497.617,177.896c44.37,29.835,87.929-27.432,87.963-27.68c-5.711,1.071-33.855,46.983-81.472,15.896
					c-16.114-10.52-30.456-0.813-33.562,12.646C477.009,172.275,486.914,170.701,497.617,177.896z"/>
				<path fill="#3B94B3" d="M585.58,150.217c-8.587,34.489-34.73,52.892-87.449,47.438c-17.337-1.794-25.532-9.913-27.584-18.896
					c-2.653,9.721,0.75,21.054,14.223,26.643l2.561-0.778c0.3-0.089,0.624-0.067,0.905,0.067l6.113,2.904l6.806-3.165
					c0.327-0.15,0.699-0.155,1.032-0.013l5.782,2.522l3.184-2.271c0.466-0.329,1.089-0.307,1.527,0.053l3.519,2.89l3.28-3.272
					c0.429-0.425,1.101-0.49,1.6-0.145l4.388,3.012l6.07-3.295c0.359-0.196,0.79-0.205,1.156-0.022l5.231,2.586l5.071-2.771
					c0.391-0.213,0.859-0.206,1.241,0.018l2.242,1.318c23.766-8.085,35.285-26.886,38.983-54.002
					C585.611,150.584,585.645,150.325,585.58,150.217z"/>
				<g>
					<path fill="#FFFFFF" d="M498.131,197.654c52.719,5.454,78.862-12.948,87.449-47.438c-0.034,0.248-43.593,57.515-87.963,27.68
						c-10.703-7.195-20.608-5.622-27.07,0.862C472.599,187.741,480.794,195.86,498.131,197.654z"/>
				</g>
			</g>
			<g>
				<g>
					<g>
						<path fill="#5994B3" d="M306.546,224.125c-34.908,1.639-72.601,4.989-77.825,6.547c-16.498,4.913-20.837,17.037-19.541,25.929
							c1.066,7.314,5.369,13.534,10.98,12.92c8.464-0.925,14.889-10.491,26.842-13.501c11.951-3.009,35.949-7.074,62.8-10.561
							C308.525,240.266,306.994,230.9,306.546,224.125z"/>
						<g>
							<path fill="#5994B3" d="M416.858,226.598c-23.435-2.365-47.509-3.168-66.161-3.361c0.728,5.87,1.257,14.573,0.983,17.157
								c1.064,0.046,1.959,0.125,2.59,0.191c16.583-1.452,32.39-2.362,45.347-2.362c5.714,0,11.159,0.148,16.343,0.438
								C416.071,235.178,416.419,230.438,416.858,226.598z"/>
							<path fill="#5994B3" d="M562.766,234.675c-0.152-0.271-0.397-0.463-0.681-0.565c-0.425-12.052-0.161-25.679,1.837-29.01
								c0.303-0.5,0.217-1.143-0.203-1.549c-0.417-0.406-1.064-0.468-1.553-0.154l-4.749,3.062l-2.902-2.749
								c-0.398-0.378-0.995-0.451-1.474-0.188l-4.705,2.609l-4.1-2.409c-0.382-0.224-0.851-0.23-1.241-0.018l-5.071,2.771
								l-5.231-2.586c-0.366-0.183-0.797-0.173-1.156,0.022l-6.07,3.295l-4.388-3.012c-0.499-0.345-1.171-0.28-1.6,0.145
								l-3.28,3.272l-3.519-2.89c-0.438-0.36-1.062-0.381-1.527-0.053l-3.184,2.271l-5.782-2.522
								c-0.333-0.143-0.705-0.138-1.032,0.013l-6.806,3.165l-6.113-2.904c-0.281-0.134-0.605-0.157-0.905-0.067l-5.943,1.807
								l-6.149-1.587c-0.502-0.132-1.034,0.061-1.335,0.484c-0.302,0.422-0.312,0.988-0.027,1.421
								c4.492,6.836,3.861,21.14,3.288,27.705l-3.652,2.816c-4.063-1.371-8.458-2.609-13.1-3.731
								c-0.581,4.48-1.381,9.104-2.144,12.56c7.39,2.644,13.508,5.94,18.299,9.897c2.865,2.596,29.271,4.817,48.881,4.817
								c25.069-0.002,38.071-3.057,38.648-9.083C565.279,239.361,562.867,234.859,562.766,234.675z M477.358,207.983l3.742,0.966
								c0.223,0.06,1.429,21.208,1.648,21.142l-0.188-21.392l4.488-1.366l0.646,7.838l0.519-7.709l5.587,2.656
								c0.341,0.159,0.233,20.442,0.57,20.287l1.386-20.695l5.199-2.418l0.874,10.313l0.441-10.408l5.343,2.329
								c0.405,0.176,1.054,21.032,1.414,20.774l0.411-21.325l1.98-1.411l0.542,7.999l0.337-7.905l3.184,2.616
								c0.249,0.205,0.574,20.773,0.876,20.759c0.301-0.015,0.582-20.612,0.811-20.839l2.841-2.838l0.746,11.27l0.477-11.281
								l3.447,2.368c0.388,0.268-0.023,19.137,0.391,18.913l1.45-19.134l4.963-2.695l0.737,8.454l0.627-8.483l4.547,2.249
								c0.37,0.184,0.902,20.227,1.259,20.028l0.7-20.487l3.676-2.01l0.5,13.322l0.551-13.325l3.602,2.116
								c0.382,0.224,0.076,20.912,0.466,20.699l1.285-20.963l3.452-1.917l0.59,11.44l0.436-11.324l2.495,2.364
								c0.221,0.21,0.499,20.486,0.786,20.504c0.261,0.016,0.529-20.212,0.761-20.358l2.602-1.681
								c-1.422,6.905-1.227,19.663-0.985,26.604h-79.846C480.233,227.706,480.643,215.669,477.358,207.983z M560.273,253.138
								c-2.755,2.796-9.521,3.167-12.998,2.897c11.644-4.349-29.068-18.473-24.562-18.423c4.506,0.053,36.99,0.41,36.99,0.41
								C560.382,238.022,563.027,250.344,560.273,253.138z"/>
						</g>
					</g>
					<g>
						<path fill="#FFFFFF" d="M547.275,256.035c3.477,0.27,10.243-0.102,12.998-2.897c2.754-2.794,0.108-15.115-0.569-15.115
							c0,0-32.484-0.357-36.99-0.41C518.207,237.562,558.919,251.687,547.275,256.035z"/>
					</g>
					<g>
						<path fill="#FFFFFF" d="M559.568,234.028c-0.241-6.94-0.437-19.698,0.985-26.604l-2.602,1.681
							c-0.231,0.146-0.5,20.374-0.761,20.358c-0.287-0.018-0.565-20.293-0.786-20.504l-2.495-2.364l-0.436,11.324l-0.59-11.44
							l-3.452,1.917l-1.285,20.963c-0.39,0.213-0.084-20.476-0.466-20.699l-3.602-2.116l-0.551,13.325l-0.5-13.322l-3.676,2.01
							l-0.7,20.487c-0.356,0.198-0.889-19.844-1.259-20.028l-4.547-2.249l-0.627,8.483l-0.737-8.454l-4.963,2.695l-1.45,19.134
							c-0.414,0.225-0.003-18.645-0.391-18.913l-3.447-2.368l-0.477,11.281l-0.746-11.27l-2.841,2.838
							c-0.229,0.227-0.51,20.824-0.811,20.839c-0.302,0.015-0.627-20.554-0.876-20.759l-3.184-2.616l-0.337,7.905l-0.542-7.999
							l-1.98,1.411l-0.411,21.325c-0.36,0.258-1.009-20.598-1.414-20.774l-5.343-2.329l-0.441,10.408l-0.874-10.313l-5.199,2.418
							l-1.386,20.695c-0.337,0.155-0.229-20.128-0.57-20.287l-5.587-2.656l-0.519,7.709l-0.646-7.838l-4.488,1.366l0.188,21.392
							c-0.22,0.066-1.426-21.083-1.648-21.142l-3.742-0.966c3.284,7.686,2.875,19.723,2.364,26.045H559.568z"/>
					</g>
				</g>
				<g>
					<path fill="#4787A6" d="M308.615,239.81c-39.972,5.133-70.153,12.434-74.38,13.809c-9.865,3.208-12.574-2.628-7.876-22.156
						c-14.545,5.326-18.41,16.689-17.178,25.139c1.066,7.314,5.369,13.534,10.98,12.92c8.464-0.925,14.889-10.491,26.842-13.501
						c11.951-3.009,35.949-7.074,62.8-10.561C309.417,243.893,309.01,241.949,308.615,239.81z"/>
					<g>
						<path fill="#4787A6" d="M416.084,235.875c-21.304-1.714-43.33-1.502-64.392-0.203c0.08,2.082,0.086,3.797-0.012,4.722
							c1.064,0.046,1.959,0.125,2.59,0.191c16.583-1.452,32.39-2.362,45.347-2.362c5.714,0,11.159,0.148,16.343,0.438
							C415.987,237.798,416.029,236.86,416.084,235.875z"/>
						<path fill="#4787A6" d="M482.44,250.022c-7.397-2.978-15.261-5.44-23.455-7.464c-0.237,1.267-0.479,2.46-0.718,3.539
							c7.39,2.644,13.508,5.94,18.299,9.897c2.865,2.596,29.271,4.817,48.881,4.817c22.585-0.002,35.371-2.481,38.106-7.381
							C548.977,264.143,491.493,253.667,482.44,250.022z"/>
					</g>
				</g>
			</g>
		</g>
		<g>
			<g>
				<g>
					<path fill="#784530" d="M455.785,137.61c0.046,0,0.091-0.004,0.137-0.004c5.963-5.354,9.002-4.369,15.666-2.56
						c2.404-9.239-10.5-32.557,5.733-34.752c-0.661-3.074-21.109-14.821-21.109-14.821s4.173-3.22,6.144-5.12
						c1.977-1.901-29.841-19.237-29.841-19.237s22.163-5.485,22.384-10.751c0.219-5.267-93.699,4.608-94.355,0
						c-0.66-4.608,7.46-15.579,5.046-16.677c-2.413-1.097-33.353,35.986-34.67,39.057c-1.315,3.072-31.885-2.192-33.387,0.44
						c-1.501,2.632,4.204,7.022,5.52,8.995c1.316,1.976-11.629,17.118-10.312,18.653c1.316,1.536,9.216-10.753,12.945-9.216
						c3.731,1.537-5.376,40.595-2.809,43.724c4.236-3.019,9.844-3.26,15.973,2.198c-0.28,2.356-0.437,4.751-0.437,7.18
						c0,1.011,0.028,2.015,0.078,3.014l7.383-1.917l7.46-33.134l14.511,6.583l22.791-23.04l16.675,18.604l35.585-14.434
						l9.837,18.211l7.508-3.777l10.595,32.904l5.374-3.283C456.198,142.138,456.049,139.859,455.785,137.61z"/>
				</g>
				<path fill="#663B30" d="M456.209,144.449c-0.011-2.312-0.16-4.59-0.424-6.839c0.046,0,0.091-0.004,0.137-0.004
					c5.963-5.354,9.002-4.369,15.666-2.56c0.838-3.221-0.184-8.154-1.184-13.306c-2.557,1.988-8.445,6.238-10.51,4.908
					c-2.67-1.72-5.504-12.947-6.394-10.741c-0.89,2.204-2.866,7.446-4.296,8.807c-1.432,1.36-10.763-29.408-13.116-28.49
					c-2.353,0.92-0.206,10.946-2.566,11.518c-2.363,0.574-15.255-32.512-17.405-30.292c-2.146,2.219-2.662,17.975-4.122,21.269
					c-1.461,3.295-19.508,7.233-22.086,7.412c-2.579,0.179-20.034-26.199-21.699-23.954c-1.664,2.244-18.261,28.931-21.913,29.538
					c-3.653,0.61-8.712-20.158-11.911-18.368c-3.2,1.79-9.359,34.733-10.863,34.157c-1.503-0.568,0.501-13.041-1.933-12.677
					c-2.434,0.361-5.3,15.258-9.022,15.258c-2.83,0-6.798-8.388-8.543-12.419c-1.234,8.612-2.234,16.351-1.149,17.673
					c4.236-3.019,9.844-3.26,15.973,2.198c-0.28,2.356-0.437,4.751-0.437,7.18c0,1.011,0.028,2.015,0.078,3.014l7.383-1.917
					l7.46-33.134l14.511,6.583l22.791-23.04l16.675,18.604l35.585-14.434l9.837,18.211l7.508-3.777l10.595,32.904L456.209,144.449z"
					/>
			</g>
			<g>
				<g>
					<g>
						<g>
							<path fill="#FFBE8E" d="M455.922,137.606c-0.046,0-0.091,0.004-0.137,0.004l0,0l0,0c0.264,2.25,0.413,4.528,0.424,6.839
								l-5.374,3.283l-10.595-32.904l-7.508,3.777l-9.837-18.211l-35.585,14.434l-16.675-18.604l-22.791,23.04l-14.511-6.583
								l-7.46,33.134l-7.383,1.917c-0.05-1-0.078-2.003-0.078-3.014c0-2.428,0.156-4.824,0.437-7.18
								c-20.123-17.917-37.1,25.268,3.357,29.114c0.108,0.009,0.216,0.012,0.323,0.021l0,0
								c9.609,24.738,34.985,42.408,64.782,42.408c29.794,0,55.166-17.663,64.777-42.394c0.188-0.009,0.371-0.019,0.558-0.034
								C493.153,162.802,476.079,119.498,455.922,137.606z"/>
						</g>
						<g>
							<g>
								<path fill="#1C1C1C" d="M310.524,143.765c1.741,0.303-1.069,2.15-1.449,2.332c-0.755,0.356-1.383,0.728-1.95,1.346
									c-2.296,2.5,5.073,6.171,6.273,7.486c0.379,0.415-2.184-3.354-3.866-4.91c-1.494-1.377-1.265-2.581,0.643-3.485
									c0.937-0.44,1.651-0.995,2.275-1.817c2.061-2.718-5.77-1.738-6.647-1.67C304.999,143.107,308.896,143.48,310.524,143.765z"
									/>
							</g>
						</g>
						<g>
							<g>
								<path fill="#1C1C1C" d="M469.493,143.031c-1.078-0.081-8.821-1.093-7.152,1.896c1.154,2.066,5.892,2.395,3.088,5.287
									c-1.646,1.695-3.924,2.638-5.516,4.385c-0.474,0.517,9.516-4.275,7.873-7.371c-0.853-1.602-3.398-1.317-4.021-3.274
									C463.634,143.544,470.611,143.118,469.493,143.031L469.493,143.031z"/>
							</g>
						</g>
					</g>
					<path fill="#E8A26E" d="M347.845,119.264l-14.511-6.583l-7.049,31.304v0.001c0,0,6.342-22.446,9.694-21.92
						c3.351,0.521,11.843,2.003,14.84,1.431c2.145-0.41,13.203-11.499,19.318-17.771c0.834-0.855,16.56,9.738,17.174,9.101
						l-16.675-18.604L347.845,119.264z"/>
					<path fill="#E8A26E" d="M440.24,114.828l-7.508,3.777l-9.837-18.211l-35.585,14.434c0,0,6.143,0.644,8.329,0
						c2.186-0.646,23.769-6.856,27.256-6.511c3.487,0.342,5.683,11.744,7.401,14.321c1.719,2.579,7.689-1.815,8.845,0
						c1.155,1.812,7.667,12.615,7.684,12.642L440.24,114.828z"/>
				</g>
				<g>
					<g>
						<path fill="#E8A26E" d="M387.311,157.832c2.548,0,4.691,0.972,5.347,2.295c0.136-0.273,0.213-0.556,0.213-0.853
							c0-1.736-2.489-3.147-5.56-3.147c-3.067,0-5.557,1.411-5.557,3.147c0,0.296,0.077,0.579,0.212,0.853
							C382.624,158.804,384.765,157.832,387.311,157.832z"/>
						<path fill="#1C1C1C" d="M392.657,160.555c-0.16,0-0.31-0.09-0.383-0.239c-0.602-1.208-2.644-2.052-4.964-2.052
							c-2.318,0-4.359,0.843-4.961,2.052c-0.072,0.149-0.222,0.239-0.382,0.239c-0.002,0-0.002,0-0.002,0
							c-0.163,0-0.312-0.09-0.385-0.239c-0.17-0.339-0.258-0.692-0.258-1.042c0-2.006,2.632-3.575,5.987-3.575
							c3.36,0,5.99,1.569,5.99,3.575c0,0.349-0.086,0.699-0.258,1.042c-0.071,0.149-0.219,0.239-0.383,0.239H392.657z
							 M387.311,156.557c-2.672,0-4.946,1.15-5.118,2.548c1.06-1.047,2.969-1.703,5.118-1.703c2.151,0,4.062,0.656,5.12,1.703
							C392.26,157.707,389.986,156.557,387.311,156.557z"/>
					</g>
					<g>
						<path fill="#1C1C1C" d="M442.323,132.931c-17.73-16.465-35.549-6.406-37.508-4.818c-1.495,1.213-1.919,2.076-1.919,2.076
							s20.095-9.793,39.383,3.505C443.312,134.407,443.313,133.851,442.323,132.931z"/>
						<path fill="#1C1C1C" d="M369.581,128.113c-1.959-1.588-19.778-11.647-37.508,4.818c-0.992,0.92-0.99,1.477,0.042,0.764
							c19.29-13.298,39.385-3.505,39.385-3.505S371.075,129.326,369.581,128.113z"/>
					</g>
					<path fill="#1C1C1C" d="M420.821,145.813c3.592,0,6.619,1.657,7.568,3.92c0.2-0.477,0.314-0.982,0.314-1.505
						c0-2.997-3.528-5.426-7.883-5.426c-4.355,0-7.885,2.43-7.885,5.426c0,0.523,0.113,1.029,0.313,1.505
						C414.198,147.47,417.225,145.813,420.821,145.813z"/>
					<path fill="#1C1C1C" d="M353.581,145.813c3.594,0,6.621,1.657,7.568,3.92c0.203-0.477,0.316-0.982,0.316-1.505
						c0-2.997-3.529-5.426-7.884-5.426c-4.354,0-7.883,2.43-7.883,5.426c0,0.523,0.113,1.029,0.312,1.505
						C346.96,147.47,349.985,145.813,353.581,145.813z"/>
				</g>
				<g>
					<g>
						<g>
							<g>
								<path fill="#FFFFFF" d="M345.629,156.363c9.883,17.059,76.163,17.744,82.52,1.744c1.324-3.328,1.231,6.242,0,9.964
									s-6.16,11.264-8.358,18.784c-3.612,12.339-62.458,13.775-65.674-0.735c-2.042-9.211-5.658-14.791-6.89-18.049
									C345.996,164.813,344.213,153.918,345.629,156.363z"/>
							</g>
						</g>
					</g>
					<path fill="#4E464D" d="M350.308,174.732c0.691,1.548,1.413,3.305,2.092,5.292c3.94,0.834,12.377,1.392,12.377,1.392
						s-12.181-3.006-14.47-6.682C350.308,174.733,350.308,174.733,350.308,174.732z"/>
					<path fill="#4E464D" d="M424.835,175.05L424.835,175.05c-2.288,3.676-14.938,7.157-14.938,7.157s8.105-0.537,12.136-1.343
						C422.936,178.815,423.916,176.85,424.835,175.05z"/>
				</g>
			</g>
		</g>
	</g>
</g>
</svg>
