<svg xmlns="http://www.w3.org/2000/svg" viewBox="0 0 768 430"><style>.a{fill:#FFF;}.b{fill:#1C1C1C;}.c{fill:#FFBE8E;}.d{fill:#E8A26E;}.e{fill:#EBA124;}.f{fill:#E39124;}.g{fill:#5994B3;}.h{fill:#4787A6;}.i{fill:#4E464D;}</style><path d="M516.2 62.6c7.4 13.1 14.8 26.1 22.2 39.2 12.6-8.1 25.3-16.2 37.9-24.2 -10.1 11.1-20.3 22.1-30.4 33.2 11.6 9.5 23.2 19 34.8 28.6 -13.6-6.2-27.3-12.4-40.9-18.7 -5.5 14-10.9 27.9-16.4 41.9 1.7-14.9 3.4-29.8 5.1-44.7 -15-0.9-29.9-1.8-44.9-2.7 14.7-3 29.4-6 44.1-9C523.8 91.6 520 77.1 516.2 62.6z" class="a"/><path d="M341.4 384.9c-0.2 3.9-36.3 26.2-39.2 11.2C299.2 381.2 341.6 381 341.4 384.9z" class="b"/><path d="M434 384.9c0.2 3.9 36.3 26.2 39.2 11.2C476.1 381.2 433.8 381 434 384.9z" class="b"/><path d="M348.7 309.8c-4.6 24.6-6.1 50-8.1 74.9 15.6-18.3 31.1-36.6 46.7-54.9 15.5 18.3 31.1 36.6 46.6 54.9 -2.3-21.1-4.8-42.2-8-63.2 -0.4-2.8-0.9-5.5-1.3-8.3 -0.2-1.1-0.4-2.3-0.6-3.4 -0.3-1.4-2.5-0.5-3.7-0.4 -7.9 0.8-15.8 1.2-23.7 1.5C380.8 311.5 364.5 312.1 348.7 309.8 344.9 329.9 366.9 312.4 348.7 309.8z" fill="#305269"/><path d="M355.3 240.7c-1.2-0.2-2.4-0.3-3.6-0.3 0.6-5.4-0.3-11.3-0.9-16.6 -0.5-4.1-0.1-6.1-4.2-6.7 -11.1-1.6-22.8-2.7-34-2 -3.7 0.2-6 0.4-6.1 4.5 -0.2 6 0.8 12.2 1.8 18.2 0.3 1.5 1.1 11.3 3.2 11.7 2.6 0.4 5.9-0.6 8.5-1 5.5-1 10.9-2.1 16.3-3.3 -1.4 2-2.4 6.8 0.3 8.3 1.8 1 8.7-3.1 10.8-3.8 2.2-0.7 8-1 8.7-3.5C356.6 244.5 355.6 242.2 355.3 240.7z" class="c"/><path d="M355.8 243.5c-0.4-2.1 0-2.7-2.3-2.9 -2.6-0.2-1.8-0.2-1.8-2.5 0-2.6-0.2-5.1-0.4-7.7 -2 3-5.6 4.9-8.8 6.2 0.3-0.1-2.1-9.3-1.9-9.4 -0.6 0.2-0.1 5.6-0.1 6.2 0 3.5 0.5 4.1-3.1 4.6 -4.1 0.5-6.8 2.1-7.7-2.3 -0.1-0.6-1-7-1.5-7 -0.3 0 0 4.7 0 5 0.1 2.8 1.3 5-2 5 -2.6 0-7.2 0.8-8.2-2.1 -0.3-1-1-5.8-2-6.2 0.7 0.3-0.2 6.4 0.4 6.7 -4.6-2.4-8-6.5-9.9-11.3 0.4 5 1.2 10.1 2.1 15 0.4 1.9 0.6 7.2 2.4 8.5 1.5 1.2 7.2-0.6 8.8-0.9 5.5-1 10.9-2.1 16.3-3.3 -1.4 2.1-2.1 10.5 2.4 8.1C332.6 246.1 352 243.8 355.8 243.5z" class="d"/><path d="M412.4 243.1c1.2-0.2 2.4-0.3 3.6-0.3 -0.6-5.4 0.3-11.3 0.9-16.6 0.5-4.1 0.1-6.1 4.2-6.7 11.1-1.6 22.8-2.7 34.1-2 3.7 0.2 6 0.4 6.1 4.5 0.2 6-0.8 12.2-1.8 18.2 -0.3 1.5-1.1 11.3-3.2 11.7 -2.6 0.4-5.9-0.6-8.5-1 -5.5-1-10.9-2.1-16.3-3.3 1.4 2 2.4 6.8-0.3 8.3 -1.8 1-9.1-3.3-11.3-4 -2.5-0.8-7.4-0.8-8.2-3.8C411.2 246.6 412.1 244.5 412.4 243.1z" class="c"/><path d="M411.9 245.8c0.4-2.1 0-2.7 2.3-2.9 2.6-0.2 1.8-0.2 1.8-2.5 0-2.6 0.2-5.1 0.4-7.7 2 3 5.6 4.9 8.8 6.2 -0.3-0.1 2.1-9.3 1.9-9.4 0.6 0.2 0.1 5.6 0.1 6.2 0 3.5-0.5 4.1 3.1 4.6 4.1 0.5 6.8 2.1 7.7-2.3 0.1-0.6 1-7 1.5-7 0.3 0 0 4.7 0 5 -0.1 2.8-1.3 5 2 5 2.6 0 7.2 0.8 8.2-2.1 0.3-1 1-5.8 2-6.2 -0.7 0.3 0.2 6.4-0.4 6.7 4.6-2.4 8-6.5 9.9-11.3 -0.4 5-1.2 10.1-2.1 15 -0.4 1.9-0.6 7.2-2.4 8.5 -1.5 1.2-7.2-0.6-8.8-0.9 -5.5-1-10.9-2.1-16.3-3.3 1.4 2.1 2.1 10.6-2.4 8.1C435.1 248.5 415.7 246.2 411.9 245.8z" class="d"/><path d="M413.1 250.1c-2.4-0.5-1.7-6.9-0.3-7.1 1.5-0.2 3.1 0.6 3.1-1.3 -0.1-2.4 1-3-1.9-3.2 -4.1-0.2-8.2-0.3-12.3-0.3 -15.8-0.1-31.7 1-47.5 2.4 2.9 0.3 2.4 6.7-0.7 7.4 -2.5 0.6-3.2 0.1-3.9 2.8 -0.5 2-1 4-1.5 6 -1.1 4.6-2.2 9.2-3.3 13.9 -2.5 10.8-6.8 23.2-6.4 34.5 0.2 7.6 31.4 6.1 36 6.1 17.6 0.1 35.5-0.3 52.9-2.7 3.6-0.5 8.8-0.2 8.6-4.7 -0.6-13.2-4.8-26.7-7.8-39.4 -0.8-3.3-1-9.9-4.3-11.2C420.5 251.9 416.8 250.9 413.1 250.1 411.9 249.8 415.9 250.7 413.1 250.1z" class="e"/><path d="M416.9 226.6c0.9-7.6-1.9-14.7-3.9-22.1 -16.4 6.2-34.9 6.2-51.4 0 -1.7 6.3-3.3 12.6-4.9 18.9C376.8 223.7 396.9 224.6 416.9 226.6 417.1 224.6 395.9 224.5 416.9 226.6z" class="e"/><path d="M413 204.5c-10.1 3.8-21.1 5.3-31.9 4.4 -5.3-0.4-10.6-1.5-15.7-3.1 -1.2-0.4-9.4-4.3-10-3.9 -6.7 4.7-13.5 9.3-20.2 14 2 0.2 13.7 0 14.6 2.2 0.4 1.1 0.6 2.3 0.7 3.5 0.4 2.7 1.8 1.7 4.2 1.8 3 0 2.3-1 3-3.6 0.5-2.1 1.1-4.2 1.6-6.3 11.4 3.3 23.7 3 35.2 0.2C396.9 213 414.1 208.6 413 204.5 405.1 207.4 413 204.5 413 204.5z" class="f"/><path d="M417.6 221.7c0.6-2.9 3.9-2.4 6.4-2.7 6-0.7 12-1.2 18.1-1.5 -6.3-4.4-12.6-8.7-18.9-13.1 -1.2-0.8-2.3-1.6-3.5-2.4 -1.1-0.8-5.4 1.9-6.7 2.4C413 209.8 416.2 216.6 417.6 221.7 417.8 220.8 415 212 417.6 221.7z" class="f"/><path d="M497.6 177.9c19.3 13 41.9 9.6 60.6-2.6 7.1-4.6 13.6-10.1 19.5-16.2 1.7-1.8 7.4-6.3 7.8-8.9 -1.6 0.3-3.2 2.3-4.3 3.4 -2.7 2.6-5.4 5.3-8.3 7.8 -7.9 6.9-17.1 12.5-27.4 14.6 -14 2.9-27.9-1.4-39.8-8.8 -6.9-4.3-14.6-7.4-22.6-4 -6.4 2.7-11 8.9-12.5 15.6C478.2 171.1 489.2 172.2 497.6 177.9 542 207.7 486.9 170.7 497.6 177.9z" fill="#82A144"/><path d="M585.6 150.2c-5.5 22.1-20.2 38.8-42.4 45 -14 3.9-28.8 4-43.2 2.6 -12.1-1.1-26.4-5.7-29.4-19.1 -2.6 9.5 1.3 19.1 9.6 24.3 1.8 1.2 3.7 2.6 5.9 2 1.5-0.5 2.1-0.3 3.5 0.3 2.9 1.4 4 2.6 6.8 1.3 2.6-1.2 4.5-2.8 7.3-1.6 3.8 1.7 3.9 2.1 7.2-0.2 1.9-1.4 4.7 3.3 5.5 2.6 2.2-2.2 3.2-4.3 6.1-2.3 3 2.1 2.8 2.2 6 0.4 3.5-1.9 4.2-1.7 7.8 0.1 3.1 1.5 3.7-1.6 6.7-2 1.4-0.8 2.3 1.3 3.5 1.3 2.8-1 5.5-2.1 8.2-3.4 9-4.6 16.4-11.7 21.4-20.5 2.6-4.6 4.6-9.5 6.1-14.5 0.7-2.5 1.4-5 1.9-7.5C584.4 157.5 586.4 151.6 585.6 150.2 577 184.7 585.6 150.3 585.6 150.2z" fill="#3B94B3"/><path d="M498.1 197.7c19.9 2.1 41.9 1.7 59.8-8.5 14.7-8.3 23.7-22.8 27.7-39 -0.2 1.3-2.9 3.6-3.7 4.5 -3.4 3.9-7.1 7.6-11 11 -10.7 9.4-23.4 17.5-37.6 20 -7.8 1.4-15.9 0.9-23.4-1.7 -9.3-3.2-17-11.5-27.3-10.8 -4.5 0.3-8.7 2.4-11.9 5.6 0.7 3.1 2.2 6 4.2 8.5C480.4 194.1 489.6 196.8 498.1 197.7 550.9 203.1 480.8 195.9 498.1 197.7z" class="a"/><path d="M306.5 224.1c-22.3 1-44.7 2.5-66.9 4.9 -13.8 1.5-29.9 7.1-30.6 23.6 -0.3 6.9 3.5 18.5 12.4 16.7 8.9-1.8 15.3-10.1 24-12.8 8.6-2.7 17.8-3.9 26.6-5.4 12.6-2.1 25.2-4 37.9-5.6C308.1 238.5 307 231.3 306.5 224.1 271.6 225.8 307 230.9 306.5 224.1z" class="g"/><path d="M416.9 226.6c-22-2.2-44.1-3.1-66.2-3.4 0.7 5.5 1.6 11.6 1 17.2 10.4 0.4 21.1-1.3 31.5-1.8 10.9-0.5 21.8-0.6 32.7 0C416.1 234.6 416.4 230.6 416.9 226.6 393.4 224.2 416.4 230.4 416.9 226.6z" class="g"/><path d="M562.8 234.7c-2.6-4.7-0.9-15.2-0.5-20.8 0.2-2.5 0.4-5 1.1-7.4 0.3-1.1 1.2-4.6-1.4-3 -3.8 2.5-3.9 3.6-7.2 0.4 -2.2-2.1-4.9 3.1-7.2 1.7 -4-2.4-4.8-1.8-8.8 0.4 -2.5 1.4-5-3.3-7.8-1.8 -3.3 1.8-4.5 3.6-7.6 1.4 -0.8-0.6-2.7-2.4-3.8-1.4 -1.1 0.4-2.2 3.2-3.3 3.3 -0.7 0-2.7-2.2-3.3-2.7 -1.2-1-2.3 0.2-3.3 0.9 -3.3 2.3-5.4-2.7-8.4-1.4 -1.7 0.2-5.5 3.8-7 3.1 -2.8-1.3-5.3-3.4-8.4-2.4 -3.9 1.2-5 1.2-9 0.2 -5.6-1.5-0.5 7.1 0 10.3 0.9 5.6 0.9 11.3 0.5 16.9 -0.4 6.6-6.9 3.8-11.1 2.7 -1.9-0.5-3.9-1-5.8-1.5 -0.5 3.7-1.1 7.4-1.8 11 -0.5 2.5 1.2 2.1 3.3 2.9 2.2 0.9 4.4 1.9 6.5 3.1 4.2 2.3 7.5 5.9 12.3 6.9 13.4 2.9 27.8 3.2 41.4 3.3 11.7 0.1 27.8 1.4 38.4-4.6 4.1-2.3 3.8-5.9 3.9-10.3C564.5 242.4 564.5 237.9 562.8 234.7 562.6 234.4 562.9 234.9 562.8 234.7zM477.4 208c0.7 0.2 3.7 0.5 3.8 1.3 0.3 2.2 0.4 4.4 0.5 6.6 0.1 1.1 1.4 14.2 1.1 14.3 0-4.8-0.1-9.7-0.1-14.5 0-2.2 0-4.4-0.1-6.6 0-0.8 3.7-1.4 4.5-1.7 0.2 2.6 0.4 5.2 0.6 7.8 0.2-2.6 0.3-5.1 0.5-7.7 5.2 2.5 5.7 2.1 5.8 7.7 0 1.4 1 14.9 0.4 15.2 0.3-4.9 0.7-9.8 1-14.7 0.1-2 0.3-4 0.4-6 0-0.6 4.5-2.2 5.2-2.5 0.3 3.4 0.6 6.9 0.9 10.3 0.1-3.5 0.3-6.9 0.4-10.4 0.9 0.4 5.2 1.6 5.4 2.4 0.5 1.9 0.4 4.2 0.5 6.1 0.1 1.5 1.8 13.9 0.9 14.6 0.1-4.1 0.2-8.2 0.2-12.3 0.1-3.3-1.3-8.7 2.2-10.4 0.2 2.7 0.4 5.3 0.5 8 0.1-2.6 0.2-5.3 0.3-7.9 3.9 3.2 3.4 4.7 3.5 9.8 0 0.9 0.3 13.6 0.6 13.6 0.4 0 0.5-12.7 0.5-13.6 0.1-5-0.3-6.6 3.1-10.1 0.2 3.8 0.5 7.5 0.7 11.3 0.2-3.8 0.3-7.5 0.5-11.3 4.2 2.9 3.6 3.7 3.6 8.8 0 1.1 0.8 12.2 0.2 12.5 0.4-4.6 0.7-9.2 1-13.8 0.4-5.5 0.4-5.3 5.4-8 0.2 2.8 0.5 5.6 0.7 8.5 0.2-2.8 0.4-5.7 0.6-8.5 5.2 2.5 4.7 2.9 5 8.6 0.1 1.2 1.4 13.3 0.8 13.7 0.2-4.5 0.3-9 0.5-13.5 0.1-2.1 0.1-4.2 0.2-6.3 0-1.4 2.5-2 3.7-2.7 0.2 4.4 0.3 8.9 0.5 13.3 0.2-4.4 0.4-8.9 0.6-13.3 4.6 2.7 3.8 4 3.8 9.3 0 1.2 0.9 13.1 0.3 13.5 0.3-4.4 0.5-8.8 0.8-13.2 0.1-2.4 0.3-4.8 0.4-7.2 0.1-1.4 2.4-1.9 3.5-2.5 0.2 3.8 0.4 7.6 0.6 11.4 0.1-3.8 0.3-7.5 0.4-11.3 3.2 3.1 2.7 5 2.8 9.5 0 1 0.1 13.4 0.5 13.4 0.2 0 0.4-11.5 0.4-12.3 0.1-4.5-0.9-7.3 2.9-9.8 -1.8 8.6-1.3 17.9-1 26.6 -26.6 0-53.2 0-79.8 0C480.4 225.6 480.8 215.9 477.4 208zM560.3 253.1c-3 3.1-9 3.2-13 2.9 9.8-3.7-25-17.2-24.9-18.3 0-0.5 26.2 0.2 28.4 0.2 1.1 0 8.4-0.7 9.1 0.2C561.7 241.1 562.9 250.5 560.3 253.1 557.5 255.9 563 250.3 560.3 253.1z" class="g"/><path d="M547.3 256c3.9 0.3 8.7 0.1 12.1-2.1 2.7-1.8 2.3-5.9 2-8.8 -0.1-0.7-0.7-7.1-1.6-7.1 -0.7-0.5-3.5 0-4.3 0 -2.8 0-33-0.8-33-0.3C522.3 238.8 557.1 252.4 547.3 256 550.8 256.3 558.9 251.7 547.3 256z" class="a"/><path d="M559.6 234c-0.3-8.7-0.8-18 1-26.6 -3.6 2.4-2.8 4.4-2.9 8.7 0 0.9-0.3 13.3-0.5 13.3 -0.4 0-0.5-11.5-0.5-12.4 -0.1-4.7 0.6-7.3-2.8-10.5 -0.1 3.8-0.3 7.5-0.4 11.3 -0.2-3.8-0.4-7.6-0.6-11.4 -4.4 2.4-3.6 3.6-3.9 8.7 -0.3 4.7-0.6 9.5-0.9 14.2 0.7-0.4-0.2-12.2-0.2-13.5 0-5.4 0.8-6.6-3.8-9.3 -0.2 4.4-0.4 8.9-0.6 13.3 -0.2-4.4-0.3-8.9-0.5-13.3 -0.8 0.4-3.7 1.4-3.7 2.3 -0.1 2.2-0.2 4.5-0.2 6.7 -0.2 4.5-0.3 9-0.5 13.5 0.7-0.4-0.7-12.5-0.8-13.7 -0.3-5.7 0.1-6-5-8.6 -0.2 2.8-0.4 5.7-0.6 8.5 -0.2-2.8-0.5-5.6-0.7-8.5 -4.9 2.7-4.9 2.5-5.4 8 -0.3 4.6-0.7 9.2-1 13.8 0.6-0.3-0.2-11.3-0.2-12.5 0-5.1 0.5-5.9-3.6-8.8 -0.2 3.8-0.3 7.5-0.5 11.3 -0.2-3.8-0.5-7.5-0.7-11.3 -3.5 3.5-3 5.1-3.1 10.1 0 1-0.1 13.6-0.5 13.6 -0.2 0-0.5-12.6-0.6-13.6 -0.2-5.1 0.4-6.6-3.5-9.8 -0.1 2.6-0.2 5.3-0.3 7.9 -0.2-2.7-0.4-5.3-0.5-8 -3.3 1.6-2.1 6.2-2.1 9.3 -0.1 4.5-0.2 8.9-0.3 13.4 0.9-0.7-0.8-13-0.9-14.6 -0.1-1.9 0-4.2-0.5-6.1 -0.2-0.8-4.5-2-5.4-2.4 -0.1 3.5-0.3 6.9-0.4 10.4 -0.3-3.4-0.6-6.9-0.9-10.3 -0.7 0.3-5.2 1.9-5.2 2.5 -0.1 2-0.3 4-0.4 6 -0.3 4.9-0.7 9.8-1 14.7 0.6-0.3-0.3-13-0.3-14.3 0-1.9 0.2-4-0.2-5.9 -0.2-0.8-4.7-2.3-5.6-2.7 -0.2 2.6-0.3 5.1-0.5 7.7 -0.2-2.6-0.4-5.2-0.6-7.8 -0.8 0.2-4.5 0.9-4.5 1.7 0 2.2 0 4.4 0.1 6.6 0 4.8 0.1 9.7 0.1 14.5 0.3-0.1-0.9-12.3-1-13.2 -0.2-2.4-0.3-4.8-0.5-7.3 -0.1-1.4-2.7-1.3-3.8-1.6 3.4 7.9 3 17.6 2.4 26C506.3 234 533 234 559.6 234z" class="a"/><path d="M308.6 239.8c-22.6 2.9-45.1 6.7-67.2 11.9 -3.8 0.9-9.6 3.7-13.5 2.4 -7.4-2.4-2.6-18-1.5-22.7 -10.2 3.7-18.4 12.7-17.3 24.1 0.5 5.1 3 12.3 8.6 13.8 5 1.3 10.2-2.8 14-5.4 10-6.9 20.2-9.3 32-11.4 15.3-2.8 30.7-5.1 46.1-7.1C309.3 243.6 309 241.7 308.6 239.8 268.6 244.9 309 241.9 308.6 239.8z" class="h"/><path d="M416.1 235.9c-11.5-0.9-23-1.3-34.4-1.2 -5.7 0-11.5 0.2-17.2 0.4 -2.8 0.1-5.7 0.2-8.5 0.4 -1.4 0.1-2.8 0.2-4.2 0.2 0.1 1.6 0.2 3.2 0 4.7 10.4 0.4 21.1-1.3 31.5-1.8 10.9-0.5 21.8-0.6 32.7 0C416 237.7 416 236.8 416.1 235.9 394.8 234.2 416 236.9 416.1 235.9z" class="h"/><path d="M482.4 250c-7.6-3.1-15.5-5.5-23.5-7.5 -0.2 1.2-0.5 2.4-0.7 3.5 1.8 0.6 3.6 1.3 5.3 2.1 2.7 1.2 5.3 2.5 7.8 4.1 2.9 1.8 5.1 4.2 8.5 5 9.2 2.2 19 2.6 28.4 3.1 12 0.6 24.1 0.9 36.1-0.3 5.4-0.5 16.2-1 19.3-6.6 -4.6 3.4-11.2 4-16.7 4.4 -8.4 0.6-16.9 0.1-25.3-0.7C508.9 255.9 494.4 254.8 482.4 250 475 247 491.5 253.7 482.4 250z" class="h"/><path d="M455.8 137.6c1.5 0 4.5-3.3 6.5-3.8 3.1-0.7 6.3 0.4 9.3 1.2 2.5-9.5-10.7-32.5 5.7-34.8 -0.7-3.4-8.2-6.9-10.8-8.6 -3.4-2.2-6.8-4.2-10.3-6.3 1.6-1.2 7.7-4.3 5.5-6.5 -2.7-2.6-6.2-4.5-9.3-6.5 -6.5-4-13.1-7.8-19.8-11.4 6.7-1.7 14.4-3.6 20.1-7.7 5.1-3.7 0-4.3-3.3-4.5 -15.7-0.9-31.7 0.7-47.4 1.5 -8.4 0.4-16.9 0.9-25.3 1.1 -4.8 0.1-10.2 0.7-14.9-0.5 -4.5-1.1 4.7-13.7 4.3-16.7 -0.3-2.1-10.3 8.4-11.1 9.3 -6 6.6-11.7 13.3-17.3 20.2 -2.1 2.6-5.3 9.3-8.9 9.7 -7.9 1-16.2-0.8-24.2-1.1 -1.3-0.1-6.2-0.8-7 0.7 -2.3 4 6.6 6.7 5.5 10.1 -0.9 2.7-11.9 15.6-10.3 17.5 1.1 1.3 12.4-14.1 13.7-7.9 1.4 6.9-1 15.4-2 22.2 -0.6 4.2-1.2 8.4-1.7 12.7 -0.2 1.8-1.1 5.9 0.2 7.5 3.3-2.4 7.4-2.7 11.1-1.1 2.5 1.1 5 2.2 4.7 5 -0.3 2.8-0.3 5.6-0.2 8.4 1.4-0.4 7.2-1 7.5-2.3 0.7-3.3 1.5-6.6 2.2-9.8 1.7-7.6 3.4-15.3 5.2-22.9 4 1.8 7.9 3.6 11.9 5.4 3.5 1.6 3.4 0.4 6.2-2.4 6.4-6.5 12.8-13 19.2-19.4 5.4 6.1 10.9 12.1 16.3 18.2 1.5 1.7 18.9-7.1 21.2-8.1 4.2-1.7 8.3-3.4 12.5-5.1 3.1-1.2 2.6-0.3 4.2 2.7 2.4 4.5 4.9 9.1 7.3 13.6 1.2 2.1 6.2-1.8 8.1-2.8 3.5 11 7.1 21.9 10.6 32.9 1.3-0.8 2.7-1.6 4-2.4C457.3 143.8 456.1 140.3 455.8 137.6 455.8 137.6 456 139.9 455.8 137.6z" fill="#784530"/><path d="M455.9 137.6c0 0-0.1 0-0.1 0 0.2 1.7 1.4 6.3-0.3 7.3 -1.6 1-3.1 1.9-4.7 2.9 -3.5-11-7.1-21.9-10.6-32.9 -1.4 0.7-7.1 4.5-7.8 3.2 -2.4-4.4-4.8-8.8-7.1-13.2 -1.4-2.6-1.3-4.9-4.2-3.7 -4.3 1.8-8.6 3.5-13 5.3 -2 0.8-19.9 9.5-21 8.3 -5.5-6.1-11-12.3-16.5-18.4 -6.4 6.5-12.8 13-19.2 19.4 -2.2 2.2-2.6 4-5.5 2.7 -4.2-1.9-8.4-3.8-12.6-5.7 -1.6 7.3-3.3 14.6-4.9 21.9 -0.8 3.5-1.6 7-2.4 10.5 -0.4 1.8-5.8 2.2-7.5 2.6 -0.2-3.4 0-6.8 0.4-10.2 -1.3-1.2-2.8-2.3-4.5-3 -2.7-1.3-5.8-1.7-8.6-0.7 -5.3 1.8-8.2 7.6-8.2 12.9 -0.1 7.3 4.8 13.2 11.1 16.4 4.3 2.1 9.1 3.2 13.9 3.6 1.6 1.2 2.9 6.4 3.9 8.3 1.8 3.1 3.8 6 6 8.8 17.3 21.2 46.7 29.8 73 23.1 12.7-3.2 24.5-10 33.6-19.6 4.2-4.5 7.8-9.5 10.5-14.9 1.4-2.7 1.4-5.4 4.5-5.8 3.1-0.4 6.1-1 9-2.1 9.5-3.4 17.1-12.8 13.2-23.1C472.7 131.9 462.8 131.4 455.9 137.6 455.9 137.6 476.1 119.5 455.9 137.6z" class="c"/><path d="M310.5 143.8c1.5 0.3-4 3.9-3.8 5 0.5 3 4.9 4.2 6.7 6.2 -1.1-1.2-2-2.9-3.1-4.1 -3.3-3.7 0-3.2 2.2-6.1 2.1-2.8-6-1.4-6.7-1.6C307.3 143.5 309 143.5 310.5 143.8 312.3 144.1 308.9 143.5 310.5 143.8z" class="b"/><path d="M469.5 143c-1.2-0.1-8.8-1-7.2 1.9 0.8 1.4 3.7 1.8 4 3.5 0.4 2.4-5 4.7-6.4 6.1 1.4-1.5 4.7-2.3 6.5-4 4.2-3.9-1.6-3.7-2.6-6.7C463.7 143.8 469.3 143 469.5 143z" class="b"/><path d="M387.3 157.8c1.8 0 4.4 0.5 5.3 2.3 2.6-5.3-13.3-5.3-10.7 0C382.9 158.3 385.5 157.8 387.3 157.8z" class="d"/><path d="M392.7 160.6c-0.5 0-1.7-1.5-2.2-1.7 -1.9-0.8-4.3-0.8-6.3 0 -0.6 0.3-4.5 3.5-2.7-0.5C383.9 153 396.1 156.9 392.7 160.6zM387.3 156.6c-1.5 0-4.9 0.5-5.1 2.5 2.4-2.4 7.8-2.4 10.2 0C392.2 157 388.9 156.6 387.3 156.6z" class="b"/><path d="M442.3 132.9c-7.2-6.7-16.6-10.5-26.5-8.9 -4.3 0.7-10.4 2.2-12.9 6.2 4.1-1.9 8.7-2.9 13.1-3.3 4.1-0.4 8.3-0.1 12.4 0.7 2.3 0.5 4.6 1.2 6.9 2.2 1.7 0.7 6.1 4.4 7.7 4.2C443.1 133.5 442.8 133.2 442.3 132.9 424.6 116.5 443.3 133.9 442.3 132.9z" class="b"/><path d="M369.6 128.1c-3.5-2.9-9.1-4.1-13.5-4.4 -4.4-0.3-8.8 0.4-12.9 2 -2.2 0.9-4.3 2-6.3 3.4 -0.7 0.5-5.4 5-5.5 4.9 1.3 0.1 4.7-2.8 6-3.4 2.2-1.1 4.5-1.9 6.9-2.6 4.6-1.2 9.4-1.6 14.1-1.1 4.5 0.4 9 1.4 13.1 3.3C371 129.4 370.3 128.7 369.6 128.1 367.6 126.5 371.1 129.3 369.6 128.1z" class="b"/><path d="M420.8 145.8c2.8 0 6.4 1.1 7.6 3.9 3.8-9.1-19-9.1-15.1 0C414.4 146.9 418 145.8 420.8 145.8z" class="b"/><path d="M353.6 145.8c2.8 0 6.4 1.1 7.6 3.9 3.9-9.1-19-9.2-15.1 0C347.2 146.9 350.8 145.8 353.6 145.8z" class="b"/><path d="M345.6 156.4c3.2 5.5 10.4 8.1 16.2 9.7 8.9 2.6 18.4 3.5 27.6 3.6 8.5 0.1 17.3-0.6 25.5-2.9 3.2-0.9 6.4-2.1 9.2-4 0.5-0.4 4.8-5.3 4.6-5.3 4.8 1-8.9 31-11.9 33.1 -8.7 6-22.1 6.2-32.2 6 -8.5-0.1-23.4-0.3-29.2-7.9 -1.7-2.2-1.8-5.3-2.7-7.9 -1.3-3.8-3-7.4-4.7-11.1 -1.1-2.5-1.7-5.1-2.2-7.8C345.6 161.2 345 155.4 345.6 156.4 355.5 173.4 344.2 153.9 345.6 156.4z" class="a"/><path d="M350.3 174.7c0.8 1.7 1.5 3.5 2.1 5.3 1.6 0.3 3.3 0.5 5 0.7 2.5 0.3 4.9 0.5 7.4 0.7C362.3 180.8 350.3 178.1 350.3 174.7 351 176.3 350.3 174.7 350.3 174.7z" class="i"/><path d="M424.8 175.1c-3.2 4.2-10.1 5.8-14.9 7.2 2.2-0.2 4.5-0.3 6.7-0.6 1.8-0.2 3.6-0.4 5.4-0.8C422.9 178.9 423.9 177 424.8 175.1z" class="i"/></svg>