<svg xmlns="http://www.w3.org/2000/svg" viewBox="0 0 768 430"><style>.a{fill:#FFC1A6;}.b{fill:#84502C;}.c{fill:#B2AB8E;}.d{fill:none;stroke-linejoin:round;stroke-width:0.8;stroke:#D37F46;}.e{fill:#A54183;}.f{fill:none;stroke-linejoin:round;stroke-width:2;stroke:#EDAE83;}</style><rect x="386.5" y="135.2" width="14.5" height="23.2" class="a"/><path d="M386.7 405.6c-1.4 5.6-7.6 6.8-13.8 5.9 -5.7-0.9 8.1-13.9 8.1-13.9h7C388 397.6 387.8 401.4 386.7 405.6z" class="a"/><path d="M386.7 405.6c-1.4 5.6-7.6 7.6-13.8 6.6 -2.4-0.4-1.4-3.6 0.6-6.4 -0.3 2 1.8 2.3 4.2 2.3C380.3 408.2 384.2 408 386.7 405.6z" class="b"/><polygon points="388 397.6 381.1 397.6 377.8 239.2 393.7 239.2 " class="a"/><path d="M401.6 405.6c1.4 5.6 7.6 6.8 13.8 5.9 5.7-0.9-8.1-13.9-8.1-13.9h-7C400.3 397.6 400.6 401.4 401.6 405.6z" class="a"/><path d="M401.6 405.6c1.4 5.6 7.6 7.6 13.8 6.6 2.4-0.4 1.4-3.6-0.6-6.4 0.3 2-1.8 2.3-4.2 2.3S404.2 408 401.6 405.6z" class="b"/><polygon points="400.3 397.6 407.3 397.6 410.5 239.2 394.7 239.2 " class="a"/><path d="M391.2 396.4h-14c0 0-22.7-145.6-10.4-165.9l27.1 2.3L391.2 396.4z" class="c"/><path d="M397.2 396.4h14c0 0 22.7-145.6 10.4-165.9l-26.7 2.3L397.2 396.4z" class="c"/><rect x="386.5" y="232.5" width="16.3" height="39.5" class="c"/><polygon points="405.4 167.4 382.2 167.4 377.7 144.8 393.7 140.6 411.9 145.2 " class="a"/><path d="M410.4 148.4c0 0-3.4 4.9-15.6 4.8 -13.9-0.1-16-5-16-5 -8.8 3.5-13.7 5.2-15.1 7.1 0 0 3.6 63.3 4.7 66.8 -1.7 4.5-4.7 17.8-4.6 26.1l58.8 0.3c0.3-8.2-1.8-21.7-3.6-25.6 1.3-4.6 4.8-67.6 4.8-67.6C421.4 153.4 418.3 151.2 410.4 148.4z" fill="#FFD4E4"/><path d="M355.9 242.5l-2.3 26c2.6 5.3 4.7 18.6 3.1 18.8 -1.5 0.2-2.8-8.2-3.6-8.2 -1.6 0-2.1 5.6-1.9 10.8 0.2 6.6-2 6.3-3.5 6.2 -1.4-0.1-2.2-2.5-2.4-3.5 -0.4-2.1-1.2-6.8-0.9-10.4 0.6-7 2.2-30.7 2.2-30.7l0.7-11.4L355.9 242.5z" class="a"/><path d="M348.4 284.7c-0.3 2.4-0.1 7.8 0.3 11.3" class="d"/><path d="M345.9 284.4c-0.4 2.6-0.2 8.2 0.5 11" class="d"/><path d="M362.5 155.3c-14.3 15.9-19.1 112.6-19.1 112.6l12.4 1.2 13.1-91.9C368.9 177.2 370.9 149.7 362.5 155.3z" class="e"/><path d="M431.4 242.5l2.3 26c-2.6 5.3-4.7 18.6-3.1 18.8 1.5 0.2 2.8-8.2 3.6-8.2 1.6 0 2.1 5.6 1.9 10.8 -0.2 6.6 2 6.3 3.5 6.2 1.4-0.1 2.2-2.5 2.4-3.5 0.5-2.1 1.2-6.8 0.9-10.4 -0.6-7-2.2-30.7-2.2-30.7l-0.7-11.4L431.4 242.5z" class="a"/><path d="M439 284.7c0.3 2.4 0.1 7.8-0.3 11.3" class="d"/><path d="M441.4 284.4c0.4 2.6 0.2 8.2-0.5 11" class="d"/><path d="M425 155.3c14.3 15.9 19 112.6 19 112.6l-12.4 1.2 -13.1-91.9C418.4 177.2 416.1 148.3 425 155.3z" class="e"/><path d="M382.6 143c0 0-13.9 3.7-20.1 12.3 -2.3 3.2-1.3 96.8-1.3 96.8l19.2 0.5L382.6 143z" class="e"/><path d="M404.9 143c0 0 13.3 5.2 20.1 12.3 2.8 2.9 1.3 96.8 1.3 96.8l-19.2 0.5L404.9 143z" class="e"/><circle cx="343.7" cy="109.9" r="6" class="a"/><circle cx="443.8" cy="109.9" r="6" class="a"/><path d="M443.6 103.1c0.6 26.9-14.9 45.8-49.9 45.8 -36.4 0-49.7-17.3-49.9-45.8 -0.2-25.3 24.6-45.8 49.9-45.8S443.1 77.8 443.6 103.1z" class="a"/><path d="M393.6 112.1c0 0-2.9 1.9-2.7 5.4s3.5 2.8 3.5 2.8" style="fill:none;stroke-linejoin:round;stroke-width:2;stroke:#D37F46"/><path d="M385.9 133.6c0 0 4 1.8 7.9 1.8 3.9 0 7.1-1.8 7.1-1.8" style="fill:none;stroke-linejoin:round;stroke-width:2;stroke:#DB5279"/><ellipse cx="378.6" cy="102.5" rx="4.1" ry="4.8"/><ellipse cx="407.7" cy="102.5" rx="4.1" ry="4.8"/><path d="M383.7 123c-3.3 3.3-3 12.4-9.3 14.5" class="f"/><path d="M404 123c3.3 3.3 2.4 11.1 8.9 14.5" class="f"/><path d="M355 90.5c0 6.7-5 16.1-11.1 16.7 -16.2 1.5-13.2-30.4 0-28.3 -0.4-12.5 3.5-29.2 22.3-24.3 2.6-14.9 28.1-23.5 34.9-4.8 3-10.6 24.8-5.4 23.9 8.6 16.2-7.6 24.9 12.2 17.9 19 18.1 0.8 14.3 31.8 3.8 32.2 -8.9 0.4-15.4-11.6-13.4-21.1 -4.8 4.6-23.3 2.3-24.7-9.5 -5.9 8.3-22.6 7.7-30-1.6C378.7 87.4 363.7 93.1 355 90.5z" fill="#CCACE8"/></svg>