<svg version="1.1" xmlns="http://www.w3.org/2000/svg" xmlns:xlink="http://www.w3.org/1999/xlink" viewBox="0 0 768 430" style="enable-background:new 0 0 768 430;" xml:space="preserve"><g id="teacher"> <g>  <path style="fill-rule:evenodd;clip-rule:evenodd;fill:#DDE4D0;" d="M313.624,289.365c0.003,3.654,0,7.307,0.003,10.958 c0.002,2.049,0.472,4.17,1.14,6.124c1.272,3.712,3.881,6.661,7.957,7.136c5.245,0.61,10.622,0.894,14.176-4.463 c2.357-3.56,2.386-7.324,2.384-11.232c-0.003-2.795-0.002-5.587-0.004-8.38C330.727,289.46,322.175,289.4,313.624,289.365z"/>  <path style="fill-rule:evenodd;clip-rule:evenodd;fill:#DDE4D0;" d="M345.146,289.538c0.003,2.919,0.002,5.836,0.007,8.756 c0.004,2.271,0.44,4.57,0.919,6.806c0.915,4.265,3.629,7.532,7.946,8.37c5.646,1.097,11.632,0.934,14.795-4.841 c1.424-2.601,1.933-5.938,1.945-8.943c0.015-3.39,0.021-6.783,0.029-10.173C362.239,289.584,353.694,289.575,345.146,289.538z"/>  <path style="fill-rule:evenodd;clip-rule:evenodd;fill:#DDE4D0;" d="M473.529,103.96c-0.402-0.501-2.426,0.173-3.697,0.358 c-0.289,0.04-0.555,0.273-0.812,0.444c-13.246,8.673-26.451,17.404-39.754,25.996c-3.424,2.212-6.465,5.556-11.625,3.077 c-2.389-1.146-5.211,0.253-7.559,1.888c-4.115,2.869-8.395,5.521-12.666,8.306c-0.432-0.751-0.648-0.996-0.719-1.276 c-0.168-0.681-0.299-1.374-0.393-2.069c-1.373-10.225-7.271-16.716-17.242-20.4c-8.016-2.961-16.228-2.26-24.435-2.288 c-0.901-0.002-2.128,0.863-2.654,1.661c-3.038,4.609-5.91,9.318-9.11,14.426c-0.935-0.988-1.775-1.664-2.34-2.51 c-1.788-2.682-3.781-5.293-5.126-8.177c-2.074-4.442-5.158-5.904-10.261-5.635c-7.293,0.387-14.577,0.122-21.482,3.016 c-8.067,3.38-14.242,8.892-14.526,17.447c-0.647,19.415-0.316,38.86-0.237,58.294c0.024,5.762,6.966,9.678,12.484,7.402 c4.734-1.953,6.094-5.732,6.112-10.17c0.05-15.104,0.048-30.208-0.046-45.312c-0.016-2.415,0.88-3.109,3.305-3.12 c2.453-0.011,2.915,0.936,2.914,3.065c-0.055,44.455-0.067,88.91-0.039,133.366c8.552,0.032,17.105,0.095,25.659,0.141 c-0.014-25.779-0.018-51.562,0.024-77.344c0.002-1.469-0.934-3.627,2.033-3.882c3.38-0.291,3.779,0.001,3.779,3.685 c0.003,25.857-0.001,51.716,0.024,77.573c8.556,0.037,17.113,0.044,25.669-0.025c0.047-24.077,0.01-48.153,0.007-72.23 c-0.002-20.542,0.051-41.083-0.032-61.625c-0.011-2.513,1.19-3.138,3.39-3.152c2.191-0.017,3.554,0.55,3.462,3.089 c-0.156,4.325-0.02,8.658-0.061,12.988c-0.039,4.154,1.882,7.171,5.769,8.85c3.3,1.429,6.384,0.672,9.351-1.261 c9.154-5.971,18.346-11.895,27.594-17.732c3.867-2.444,5.873-5.659,4.969-10.089c-0.469-2.301,0.469-3.522,2.287-4.707 c11.213-7.299,22.375-14.674,33.576-21.996c3.496-2.285,7.086-4.435,10.553-6.757C472.822,106.504,475.02,105.82,473.529,103.96z" />  <path style="fill-rule:evenodd;clip-rule:evenodd;fill:#DDE4D0;" d="M342.864,64.538c12.959-0.783,23.988,12.485,23.582,26.437 c-0.436,14.817-10.427,25.962-23.923,25.965c-13.335,0.002-23.649-11.914-23.717-26.479 C318.748,77.638,329.084,63.528,342.864,64.538z"/> </g> <rect x="414.4" y="75.585" style="fill-rule:evenodd;clip-rule:evenodd;fill:none;stroke:#DDE4D0;stroke-width:4.5708;stroke-miterlimit:10;" width="135.6" height="98.525"/></g><g id="Layer_1"></g></svg>