<svg version="1.1" id="Layer_1" xmlns="http://www.w3.org/2000/svg" xmlns:xlink="http://www.w3.org/1999/xlink" viewBox="0 0 768 430" xml:space="preserve">
<rect x="281" y="61" fill="none" stroke="#DDE4D0" stroke-width="5.8" stroke-miterlimit="10" width="205.5" height="244"/>
<path fill="#DDE4D0" d="M310.4,188.1h-9.6v-6.8h27.5v6.8h-9.8V217h-8.1V188.1z M340.6,181.3V195h13.3v-13.7h8.1V217h-8.1v-14.9
	h-13.3V217h-8.1v-35.7H340.6z M377.4,207.8l-2.6,9.2h-8.4l10.9-35.7H387.9L399.1,217H390.4l-2.801-9.2H377.4z M386.4,201.8l-2.2-7.6
	c-0.6-2.101-1.3-4.8-1.8-6.9h-0.1c-0.5,2.101-1.1,4.8-1.6,6.9l-2.1,7.6H386.4z M403.8,217v-35.7h9.4L420.6,194.4
	c2.101,3.8,4.2,8.199,5.801,12.199h0.199c-0.5-4.699-0.699-9.5-0.699-14.899v-10.4h7.399V217h-8.5l-7.6-13.8
	c-2.101-3.8-4.5-8.4-6.2-12.601l-0.2,0.101c0.2,4.7,0.3,9.8,0.3,15.6V217H403.8z M440.4,181.3h8v15.8h0.199
	c0.801-1.399,1.601-2.6,2.4-3.899l8.1-11.9h9.9l-11.8,15.2L469.6,217H460.2l-8.7-15.4l-3.1,3.801V217h-8V181.3z M311.8,280.6V266
	l-11.3-21.1h9.2l3.7,8.6c1.1,2.6,1.9,4.5,2.8,6.8h0.1c0.8-2.2,1.6-4.3,2.7-6.8l3.6-8.6h9.1l-11.8,20.8V280.6H311.8z M365.7,262.4
	c0,11.699-7.1,18.8-17.5,18.8c-10.6,0-16.8-8-16.8-18.2c0-10.7,6.8-18.7,17.4-18.7C359.7,244.3,365.7,252.5,365.7,262.4z
	 M339.9,262.8c0,7,3.3,11.9,8.7,11.9c5.5,0,8.6-5.2,8.6-12.101c0-6.399-3.1-11.899-8.6-11.899C343,250.7,339.9,255.9,339.9,262.8z
	 M379,244.9v20.6c0,6.1,2.3,9.3,6.5,9.3s6.6-3,6.6-9.3v-20.6h8.101v20c0,11-5.601,16.3-14.9,16.3c-9,0-14.3-5-14.3-16.4V244.9H379z
	 M405.9,276.4c0-2.801,2-4.801,4.8-4.801s4.7,2,4.7,4.801c0,2.8-1.9,4.8-4.7,4.8S405.9,279.1,405.9,276.4z M407.7,268.9l-1.2-24h8.4
	l-1.2,24H407.7z"/>
<circle fill="#DDE4D0" cx="382.384" cy="88.834" r="16.834"/>
</svg>
