<svg version="1.1" xmlns="http://www.w3.org/2000/svg" x="0" y="0" width="768" height="430" viewBox="0 0 768 430" enable-background="new 0 0 768 430" xml:space="preserve"><rect x="281" y="93" fill="none" stroke="#DDE4D0" stroke-width="5.8" stroke-miterlimit="10" width="205.5" height="244"/><path fill="#DDE4D0" d="M310.4 220.1h-9.6v-6.8h27.5v6.8h-9.8V249h-8.1V220.1zM340.6 213.3v13.7h13.3v-13.7h8.1V249h-8.1v-14.9h-13.3V249h-8.1v-35.7H340.6zM377.4 239.8L374.8 249h-8.4l10.9-35.7h10.6L399.1 249h-8.7l-2.8-9.2H377.4zM386.4 233.8l-2.2-7.6c-0.6-2.1-1.3-4.8-1.8-6.9h-0.1c-0.5 2.1-1.1 4.8-1.6 6.9l-2.1 7.6H386.4zM403.8 249v-35.7h9.4l7.4 13.1c2.1 3.8 4.2 8.2 5.8 12.2h0.2c-0.5-4.7-0.7-9.5-0.7-14.9v-10.4h7.4V249h-8.5l-7.6-13.8c-2.1-3.8-4.5-8.4-6.2-12.6l-0.2 0.1c0.2 4.7 0.3 9.8 0.3 15.6V249H403.8zM440.4 213.3h8v15.8h0.2c0.8-1.4 1.6-2.6 2.4-3.9l8.1-11.9h9.9l-11.8 15.2L469.6 249h-9.4l-8.7-15.4 -3.1 3.8V249h-8V213.3zM311.8 312.6v-14.6l-11.3-21.1h9.2l3.7 8.6c1.1 2.6 1.9 4.5 2.8 6.8h0.1c0.8-2.2 1.6-4.3 2.7-6.8l3.6-8.6h9.1l-11.8 20.8V312.6H311.8zM365.7 294.4c0 11.7-7.1 18.8-17.5 18.8 -10.6 0-16.8-8-16.8-18.2 0-10.7 6.8-18.7 17.4-18.7C359.7 276.3 365.7 284.5 365.7 294.4zM339.9 294.8c0 7 3.3 11.9 8.7 11.9 5.5 0 8.6-5.2 8.6-12.1 0-6.4-3.1-11.9-8.6-11.9C343 282.7 339.9 287.9 339.9 294.8zM379 276.9v20.6c0 6.1 2.3 9.3 6.5 9.3 4.2 0 6.6-3 6.6-9.3v-20.6h8.1v20c0 11-5.6 16.3-14.9 16.3 -9 0-14.3-5-14.3-16.4v-19.9H379zM405.9 308.4c0-2.8 2-4.8 4.8-4.8s4.7 2 4.7 4.8c0 2.8-1.9 4.8-4.7 4.8C407.9 313.2 405.9 311.1 405.9 308.4zM407.7 300.9l-1.2-24h8.4l-1.2 24H407.7z"/><path fill="none" stroke="#DDE4D0" stroke-miterlimit="10" d="M378.2 136.2c-14.5 3.4-20.1 20.2-10.4 30.9 5 5.5 14.4 7 21.8 3.5C410.2 160.8 400.3 131 378.2 136.2zM428.6 154.1c-1-4.6-5-8.6-8.7-8.6 -1.9 0-2-0.8-0.4-2.6 9.7-11.2-5.8-30.9-17.1-21.6 -1.3 1.1-1.9 0.3-1.9-2.2 0-8-9.1-13.7-18.5-11.7 -4.5 1-8.6 5-8.6 8.5 0 1.6-1.4 1.8-2.9 0.4 -10.2-9.5-29.7 5.3-21.7 16.5 1.5 2.1 1.1 2.6-1.8 2.6 -13.2 0.1-16.9 24.8-4 26.9 2.5 0.4 2.9 1.4 1.3 3.1 -9.5 10.2 4.4 29 16.3 22 2.7-1.6 2.6-1.6 3.1 2.5 0.5 4.5 4.7 9.2 9.4 10.6l0 0c7.8 2.2 16-1.3 17.6-7.7 0.6-2.4 1.4-2.8 2.5-1.5 8.8 10.6 29.4-4 22.4-15.9 -1.6-2.7-1.5-2.9 1.7-2.9C425 172.6 430.6 163.5 428.6 154.1zM389.6 170.6c-7.4 3.5-16.8 2-21.8-3.5 -9.7-10.7-4-27.5 10.4-30.9C400.3 131 410.2 160.8 389.6 170.6z"/><circle fill="#DDE4D0" cx="381.5" cy="154.5" r="21.5"/></svg>