<svg version="1.1" id="Layer_1" xmlns="http://www.w3.org/2000/svg" xmlns:xlink="http://www.w3.org/1999/xlink" x="0px" y="0px"
	viewBox="0 0 768 430" enable-background="new 0 0 768 430" xml:space="preserve">
<g>
	<g>
		<g>
			<g>
				<path fill="#F6C3A4" d="M336.133,286.195c-8.978-1.561-17.957-3.121-26.935-4.682c-7.314-1.271-12.404,37.416-13.314,43.61
					c-5.321,36.188-12.008,70.271,35.754,66.878C357.244,390.183,338.64,303.411,336.133,286.195z"/>
				<path fill="#A05627" d="M329.617,392.425c-40.62-2.985-38.748-12.749-35.984-50.074c1.557-21.032,6.453-41.237,12.097-61.476
					c0.302-1.071,24.942,4.01,27.338,4.427C343.814,287.169,356.347,392.425,329.617,392.425z M292.816,381.946
					c16.365,6.798,47.743,20.936,49.884-5.955c1.854-23.28-1.486-47.331-4.33-70.407c-2.828-22.952-5.699-19.629-28.975-23.674
					C296.342,279.642,292.746,369.861,292.816,381.946C300.062,384.956,292.801,379.356,292.816,381.946z"/>
			</g>
			<path fill="#F6C3A4" d="M336.133,286.195c-24.742-4.3-29.107-10.887-35.577,15.475c21.679-10.157,20.781,45.904,21.739,52.288
				c1.944,12.958,17.404,58.79,20.667,22.883C345.672,347.024,340.426,315.679,336.133,286.195z"/>
			<g>
				<path fill="#FFFFFF" d="M351.353,223.732c-31.263,8.991-90.918,65.428-33.524,81.025
					C339.179,310.561,346.419,242.025,351.353,223.732z"/>
				<path fill="#97999C" d="M328.459,306.838c-91.611,0,16.057-90.595,23.148-83.346
					C354.836,226.828,329.958,306.838,328.459,306.838z M290.629,285.108c44.4,61.364,52.029-30.502,60.218-60.871
					C321.596,232.473,304.014,259.699,290.629,285.108C292.085,287.12,291.86,282.772,290.629,285.108z"/>
			</g>
			<g>
				<path fill="#FFFFFF" d="M351.353,223.732c-31.263,8.991-90.918,65.428-33.524,81.025
					C339.179,310.561,346.419,242.025,351.353,223.732z"/>
				<path fill="#97999C" d="M328.459,306.838c-91.611,0,16.057-90.595,23.148-83.346
					C354.836,226.828,329.958,306.838,328.459,306.838z M290.629,285.108c44.4,61.364,52.029-30.502,60.218-60.871
					C321.596,232.473,304.014,259.699,290.629,285.108C292.085,287.12,291.86,282.772,290.629,285.108z"/>
			</g>
			<path opacity="0.2" fill="#848689" d="M339.677,228.181c-3.677,3.849-22.051,38.768-17.878,18.289
				c-6.386,14.434-9.654,30.653-9.049,46.444c0.287,7.825-20.388-3.643-17.366-17.035c-11.545,19.722,30.444,42.507,36.361,20.564
				c6.536-24.236,13.072-48.474,19.608-72.711C347.328,224.842,343.436,226.324,339.677,228.181
				C337.396,230.568,346.424,224.931,339.677,228.181z"/>
		</g>
		<g>
			<path fill="#FFFFFF" d="M363.13,220.292c-5.145,4.481-9.979,18.596,1.257,21.405c8.24,2.061,24.133-12.489,29.535-16.299
				c20.146-14.206,40.245-19.474,61.05,4.951c9.943,11.453,9.536,155.149,9.649,155.12c-28.437,7.518-58.245,11.689-87.638,12.14
				c-18.835,0.288-37.916-1.099-56.193-5.894c-3.599-3.954-0.817-26.088-0.806-30.969c0.055-24.812,1.92-40.758-2.489-63.906
				C312.117,268.603,330.528,223.995,363.13,220.292z"/>
			<path fill="#97999C" d="M324.065,316.129c-9.498-15.862-10.307-36.689-4.082-53.82c0.351-0.966,39.449-56.589,43.489-42.113
				c0.644,2.225-11.755,29.36,8.763,19.1c12.126-7.548,24.746-15.286,35.342-24.923c13.956-12.693,61.415,15.749,57.245,37.018
				c-6.457,32.965-6.46,68.893-1.377,101.945c2.091,13.614,10.435,30.407-5.521,34.156C430.035,394.045,401.215,398,372.541,398
				c-9.954,0-51.743,2.329-52.326-10.706 M321.132,391.438c45.511,11.851,96.351,5.564,141.357-5.79
				c2.761-0.696-1.98-100.109-0.777-113.605c3.333-37.359-10.043-49.233-46.168-60.18c-7.661-2.321-31.776,20.996-39.987,26.189
				c-13.689,8.658-26.466-7.947-14.016-17.177c-38.203,6.398-53.387,61.225-38.411,91.988
				C330.817,328.654,320.026,371.407,321.132,391.438C336.039,395.32,320.899,387.229,321.132,391.438z"/>
		</g>
		<path opacity="0.2" fill="#848689" d="M326.41,258.022c3.781-8.608,8.239-16.852,13.374-24.729
			C333.261,240.442,328.803,248.686,326.41,258.022C329.964,249.321,327.404,253.65,326.41,258.022z"/>
		<g>
			<path fill="#F6C3A4" d="M363.664,206.857c6.836,14.991-10.621,13.321-7.969,26.462c3.5,17.351,18.465,7.483,28.495,2.878
				c9.538-4.379,27.808-10.292,33.562-19.933c-2.311,3.871-19.082-22.258-19.421-28.264
				C386.775,194.286,375.22,200.571,363.664,206.857z"/>
			<path fill="#A05627" d="M363.988,244.197c-20.62-12.589,9.187-62.427,34.174-56.509c-7.711,4.202,19.873,29.77,20.314,27.758
				C416.078,226.413,374.463,244.197,363.988,244.197z M364.158,206.994c3.952,6.915-20.438,45.472,8.001,33.95
				c9.615-3.896,43.089-14.103,45.623-25.679c-0.902,4.168-18.718-22.95-19.683-26.734
				C386.785,194.685,375.471,200.839,364.158,206.994z"/>
		</g>
		<g>
			<path fill="#F6C3A4" d="M444.005,314.029c3.836,44.344,53.842,39.14,47.468-6.168
				C488.051,283.539,440.905,295.471,444.005,314.029z"/>
			<path fill="#A05627" d="M469.476,347.24c-13.218-0.447-28.443-18.073-25.597-31.989c1.106-18.637-1.12-13.446,21.171-17.267
				c9.831-1.686,22.376-9.387,25.322,2.363C494.91,318.447,497.142,347.24,469.476,347.24z M444.6,315.387
				c8.675,49.381,58.71,29.976,44.431-17.256c-2.187-7.233-25.771,0.882-32.132,1.973
				C437.917,303.356,447.896,301.006,444.6,315.387C445.387,319.867,444.61,315.34,444.6,315.387z"/>
		</g>
		<path fill="#F6C3A4" d="M489.643,317.975c-1.132-1.378-16.188-14.921-19.172-13.579c6.529-1.435,13.113-2.51,19.753-3.225
			c-2.807-11.764-15.155-4.544-25.112-2.837c-20.599,3.532-19.811-1.775-20.859,16.976
			C441.489,364.703,508.854,341.365,489.643,317.975C486.966,314.716,490.635,319.183,489.643,317.975z"/>
		<g>
			<path fill="#FFFFFF" d="M446.636,224.194c-28.867,12.217-10.723,62.178-4.992,84.779c16.564-4.67,51.875,0.088,47.726-20.394
				C484.527,264.677,473.709,230.756,446.636,224.194z"/>
			<path fill="#97999C" d="M441.644,309.33c-5.124,0-23.384-91.87,5.076-85.481c28.847,6.993,39.77,45.03,43.998,70.07
				C492.203,302.715,452.346,309.33,441.644,309.33z M446.629,224.559c-29.665,6.379-9.242,66.339-4.733,83.969
				c20.151-5.954,52.015,1.125,46.149-24.205C482.84,261.838,472.047,230.784,446.629,224.559
				C446.07,224.679,481.523,233.105,446.629,224.559z"/>
		</g>
		<g>
			<path fill="#FFFFFF" d="M446.636,224.194c-28.867,12.217-10.723,62.178-4.992,84.779c16.564-4.67,51.875,0.088,47.726-20.394
				C484.527,264.677,473.709,230.756,446.636,224.194z"/>
			<path fill="#97999C" d="M441.644,309.33c-5.124,0-23.384-91.87,5.076-85.481c28.847,6.993,39.77,45.03,43.998,70.07
				C492.203,302.715,452.346,309.33,441.644,309.33z M446.629,224.559c-29.665,6.379-9.242,66.339-4.733,83.969
				c20.151-5.954,52.015,1.125,46.149-24.205C482.84,261.838,472.047,230.784,446.629,224.559"/>
		</g>
		<path fill="#97999C" d="M434.593,275.7c-4.147,0-11.926-28.654-10.618-28.766C423.931,246.94,431.598,275.7,434.593,275.7z"/>
		<path fill="#97999C" d="M319.736,264.841c-12.536,0,6.335-20.171,2.915-21.275C325.952,244.597,311.616,264.841,319.736,264.841z"
			/>
		<path fill="#F6C3A4" d="M358.896,226.958c0,0,22.965,6.071,40.099-11.298C398.994,215.66,385.569,228.476,358.896,226.958z"/>
		<g>
			<g>
				<path fill="#893519" d="M334.43,215.627c-19.771-13.011-14.652-81.942-35.317-82.222c1.848,0.023-7.991,29.706-9.35,32.974
					c-11.6,25.682-1.534,32.552,10.5,50.502c-3.467-4.515-6.025-9.496-7.675-14.943c5.292,15.167,15.529,9.128,23.419,14.596
					c-3.118-2.499-5.575-5.468-7.372-8.908C316.542,215.989,327.903,211.395,334.43,215.627
					C327.145,210.833,334.689,215.796,334.43,215.627z"/>
				<path fill="#D1651F" d="M331.604,215.753c-13.345,0.236-26.763-9.812-29.127-23.188c0.079,1.623,6.349,24.75,11.829,24.32
					c-12.689,0.947-20.892-11.746-23.202-22.403c-3.287,5.749,3.63,16.276,7.801,21.225c-27.752-32.922,7.269-48.091,0.324-81.167
					C325.779,134.755,302.828,216.279,331.604,215.753C329.59,215.789,334.009,215.709,331.604,215.753z"/>
				<path fill="#D47620" d="M297.471,214.869c1.978,1.788-6.865-20.458-6.316-19.204
					C290.916,202.305,293.043,209.751,297.471,214.869C297.776,215.145,293.254,209.996,297.471,214.869z"/>
				<path fill="#D47620" d="M330.306,214.156c-19.294-11.625-10.92-79.453-31.078-79.618c4.527,21.558-18.326,39.702-12.608,62.681
					c0.062-11.082,9.091-18.244,10.865-26.602c-3.186,14.925-10.931,27.68,2.113,40.291c-6.729-10.952-4.671-20.469,0.083-31.667
					c-3.064,7.193,0.584,38.688,14.624,37.644c-5.479,0.431-11.75-22.697-11.829-24.32
					C305.856,211.69,327.333,212.366,330.306,214.156C317.094,206.196,331.047,214.603,330.306,214.156z"/>
			</g>
			<g>
				<path fill="#F6C3A4" d="M304.934,106.112c-9.925,18.71-3.016,88.115,14.375,101.713c37.64,29.434,84.131,6.783,103.506-31.072
					C451.746,107.754,342.139,35.926,304.934,106.112C298.243,118.725,306.267,103.597,304.934,106.112z"/>
				<path fill="#A05627" d="M360.518,221.42c-44.793-0.383-49.625-24.408-53.401-60.977c-2.145-20.77-13.774-33.235-2.499-54.496
					c9.828-18.526,30.625-27.331,50.925-27.331C446.571,78.617,450.719,221.42,360.518,221.42z M355.543,79.329
					c-33.952,0-69.674,31.445-51.529,67.529c8.672,17.248-1.419,37.07,8.932,53.761c8.896,14.345,32.011,20.383,47.572,20.088
					C449.812,220.707,445.646,79.329,355.543,79.329z"/>
			</g>
			<path fill="#F6C3A4" d="M378.646,159.252c1.25-12.899-21.766-33.138-28.25-14.056c-7.453,21.929,20.778,25.655,20.946,29.112
				c3.36-8.818,9.501-14.806,18.422-17.963C385.947,156.909,382.241,157.878,378.646,159.252
				C379.359,151.897,378.616,159.558,378.646,159.252z"/>
			<path fill="#F6C3A4" d="M312.03,175.932c-4.801-2.622,11.057,7.763,13.317,10.735c-2.697-10.627,14.912-14.502,2.717-29.306
				C311.577,137.346,302.752,170.832,312.03,175.932C311.032,175.387,312.403,176.137,312.03,175.932z"/>
			<g>
				<g>
					<g>
						<path fill="#D7DCD8" d="M376.205,151.314c8.499,18.456-16.491,27.623-23.511,8.249
							C344.833,137.826,368.035,133.541,376.205,151.314C380.106,159.786,372.306,142.833,376.205,151.314z"/>
						<path fill="#A05627" d="M365.972,171.802c-15.105,0-22.378-33.027-5.869-33.027
							C377.468,138.775,386.352,171.802,365.972,171.802z M360.104,139.487c-15.498,0-8.359,31.603,5.869,31.603
							C385.387,171.09,376.565,139.487,360.104,139.487z"/>
					</g>
				</g>
				<g>
					<path fill="#FFFAF7" d="M375.398,152.436c7.841,17.016-15.207,25.473-21.679,7.606
						C346.796,140.907,367.484,135.221,375.398,152.436C378.997,160.247,371.802,144.614,375.398,152.436z"/>
				</g>
				<g>
					<defs>
						<path id="SVGID_1_" d="M376.205,151.314c8.499,18.456-16.491,27.623-23.511,8.249
							C344.833,137.826,368.035,133.541,376.205,151.314C380.106,159.786,372.306,142.833,376.205,151.314z"/>
					</defs>
					<clipPath id="SVGID_2_">
						<use xlink:href="#SVGID_1_"  overflow="visible"/>
					</clipPath>
					<g clip-path="url(#SVGID_2_)">
						<path fill="#4A5F70" d="M371.192,156.822c7.013,11.021-5.071,20.455-12.072,8.792
							C352.35,154.336,363.388,144.542,371.192,156.822C374.483,161.993,367.911,151.659,371.192,156.822z"/>
						<path opacity="0.6" fill="#4A5F70" d="M371.192,156.822c-7.805-12.28-18.843-2.486-12.072,8.792
							C366.121,177.277,378.206,167.842,371.192,156.822C367.911,151.659,374.483,161.993,371.192,156.822z M357.833,159.837
							c-0.506,3.744,8.999,7.042,10.707,8.882C367.138,167.217,356.573,169.135,357.833,159.837
							C358.125,157.674,357.537,162.02,357.833,159.837z"/>
						<path opacity="0.6" fill="#4A5F70" d="M371.192,156.822c-7.805-12.28-18.843-2.486-12.072,8.792
							C366.121,177.277,378.206,167.842,371.192,156.822C367.911,151.659,374.483,161.993,371.192,156.822z M370.568,168.699
							c-8.525,6.237-18.767-11.938-11.037-16.99C367.016,146.799,377.84,163.374,370.568,168.699
							C367.242,171.133,373.902,166.257,370.568,168.699z"/>
						<path opacity="0.4" fill="#4A5F70" d="M363.125,157.854c-3.788-5.489-2.653-7.065,3.405-4.727
							C370.487,158.357,369.352,159.932,363.125,157.854C361.101,156.344,365.134,159.353,363.125,157.854z"/>
						<path opacity="0.4" fill="#FFFFFF" d="M358.535,159.527c0.509-0.152,0.954,1.124,0.22,1.312
							C358.25,160.977,357.832,159.735,358.535,159.527z"/>
						<path fill="#FFFFFF" d="M363.819,156.878c-2.887-4.133-2.05-5.289,2.513-3.469
							C369.334,157.391,368.497,158.547,363.819,156.878C362.29,155.703,365.334,158.046,363.819,156.878z"/>
						<path opacity="0.4" fill="#4A5F70" d="M369.282,158.906c-3.611-5.554-12.396-4.277-9.88,3.351
							C361.783,172.45,375.673,168.748,369.282,158.906C367.018,155.424,371.541,162.385,369.282,158.906z"/>
						<path d="M368.249,159.966c-0.049,2.306-0.098,4.612-0.147,6.917c-6.659,0.142-8.683-2.927-6.07-9.208
							C364.104,158.439,366.177,159.203,368.249,159.966C369.954,162.558,366.544,157.375,368.249,159.966z"/>
					</g>
				</g>
			</g>
			<g>
				<g>
					<g>
						<path fill="#A05627" d="M387.597,156.263c-7.468,3.463-13.128,9.502-16.142,17.135
							C373.232,164.786,379.062,158.604,387.597,156.263z"/>
					</g>
				</g>
				<g>
					<g>
						<g>
							<path fill="#FFFFFF" d="M386.647,159.826C387.784,162.275,385.523,157.525,386.647,159.826
								C386.808,160.171,386.474,159.47,386.647,159.826z"/>
						</g>
					</g>
				</g>
			</g>
			<g>
				<g>
					<g>
						<path fill="#D7DCD8" d="M331.261,165.953c5.799,17.234-16.309,18.152-20.298,2.304
							C305.746,147.468,325.815,149.72,331.261,165.953C333.914,173.837,328.613,158.059,331.261,165.953z"/>
						<path fill="#A05627" d="M322.726,180.968c-13.003,0-18.853-29.664-5.481-29.664
							C330.384,151.304,340.438,180.968,322.726,180.968z M317.245,152.015c-12.313,0-6.67,28.241,5.481,28.241
							C339.409,180.256,329.514,152.015,317.245,152.015z"/>
					</g>
				</g>
				<g>
					<path fill="#FFFAF7" d="M330.645,167.237c5.396,16.042-15.178,16.894-18.891,2.145
						C306.898,150.034,325.576,152.13,330.645,167.237C333.113,174.576,328.18,159.891,330.645,167.237z"/>
				</g>
				<g>
					<defs>
						<path id="SVGID_3_" d="M331.495,164.467c5.798,17.516-16.285,20.932-20.505,3.765
							C306.191,148.655,325.988,147.778,331.495,164.467C334.115,172.383,328.879,156.541,331.495,164.467z"/>
					</defs>
					<clipPath id="SVGID_4_">
						<use xlink:href="#SVGID_3_"  overflow="visible"/>
					</clipPath>
				</g>
			</g>
			<g>
				<g>
					<g>
						<path fill="#A05627" d="M309.422,175.777c6.151,3.528,11.4,4.104,15.81,10.399
							C321.618,178.518,316.531,178.322,309.422,175.777z"/>
					</g>
				</g>
				<g>
					<g>
						<g>
							<path fill="#FFFFFF" d="M313.996,178.52C311.84,181.236,317.29,174.512,313.996,178.52
								C313.617,178.997,314.395,178.034,313.996,178.52z"/>
						</g>
						<g>
							<path fill="#FFFFFF" d="M310.826,178.388C310.392,180.56,311.291,176.34,310.826,178.388
								C310.766,178.688,310.896,178.078,310.826,178.388z"/>
						</g>
					</g>
				</g>
			</g>
			<g>
				<path opacity="0.9" fill="#F6C3A4" d="M374.022,129.52c-21.611-17.736-22.951,10.793-24.267,10.865
					C360.001,139.829,356.399,124.888,374.022,129.52C360.354,118.303,360.676,126.012,374.022,129.52z"/>
				<g>
					<path fill="#21252B" d="M371.653,127.649c-21.603-17.745-22.951,10.792-24.262,10.864
						C357.64,137.953,354.03,123.013,371.653,127.649C357.992,116.428,358.311,124.139,371.653,127.649z"/>
					<path fill="#151B23" d="M347.306,138.871c-9.753-19.808,24.716-18.169,24.716-11.222
						C372.022,117.541,345.037,138.871,347.306,138.871z M358.668,122.913c-6.071,0-18.42,15.246-11.362,15.246
						c8.095,0,8.188-14.452,22.806-11.248C366.297,125.578,362.483,124.246,358.668,122.913z"/>
				</g>
				<path opacity="0.4" fill="#383F4C" d="M368.244,125.284c-12.034-2.562-22.398,13.313-20.853,13.229
					C353.894,138.157,366.291,124.15,368.244,125.284C356.193,122.718,369.381,125.944,368.244,125.284z"/>
			</g>
			<g>
				<g>
					<path opacity="0.9" fill="#F6C3A4" d="M325.149,147.797c-1.411-19.81-16.892-1.939-20.577-0.464
						C313.241,143.861,315.734,139.312,325.149,147.797C324.224,134.802,317.382,140.797,325.149,147.797z"/>
					<path opacity="0.4" fill="#383F4C" d="M323.766,142.746c-12.273-10.317-13.34,0.173-19.312,2.573
						C312.396,142.127,324.473,144.125,323.766,142.746C316.377,136.535,324.231,143.654,323.766,142.746z"/>
				</g>
				<g>
					<path fill="#21252B" d="M325.877,142.547c-9.247-18.978-15.88,0.68-21.308,3.768
						C309.745,143.371,325.959,142.939,325.877,142.547C319.575,129.613,326.205,144.11,325.877,142.547z"/>
					<path fill="#151B23" d="M304.307,146.762c-0.939,0,17.588-25.218,21.919-4.288C326.48,143.685,307.445,146.762,304.307,146.762
						z M315.998,135.457c-5.383,0-10.946,5.274-11.518,10.499c5.471-3.668,21.159-2.71,21.057-3.294
						C322.357,140.26,319.178,137.858,315.998,135.457z"/>
				</g>
			</g>
			<g>
				<path fill="#4A5F70" d="M328.769,167.044c5.554,10.95-6.356,19.431-12.021,7.502
					C311.442,163.391,322.375,154.423,328.769,167.044C331.427,172.285,326.119,161.814,328.769,167.044z"/>
				<path opacity="0.6" fill="#4A5F70" d="M328.769,167.044c-6.395-12.622-17.327-3.653-12.021,7.502
					C322.413,186.475,334.323,177.994,328.769,167.044C326.119,161.814,331.427,172.285,328.769,167.044z M316.015,168.883
					c-0.776,3.553,7.831,7.47,9.296,9.403C324.15,176.766,314.098,177.61,316.015,168.883
					C316.465,166.824,315.559,170.961,316.015,168.883z"/>
				<path opacity="0.6" fill="#4A5F70" d="M328.769,167.044c-6.395-12.622-17.327-3.653-12.021,7.502
					C322.413,186.475,334.323,177.994,328.769,167.044C326.119,161.814,331.427,172.285,328.769,167.044z M327.212,178.426
					c-8.552,5.367-16.544-13.01-8.943-17.232C325.759,157.024,334.379,173.929,327.212,178.426
					C323.899,180.505,330.534,176.342,327.212,178.426z"/>
				<path opacity="0.4" fill="#4A5F70" d="M321.131,167.396c-3.13-5.554-1.939-6.98,3.575-4.279
					C328.012,168.433,326.82,169.859,321.131,167.396C319.36,165.78,322.888,168.999,321.131,167.396z"/>
				<path opacity="0.4" fill="#FFFFFF" d="M316.696,168.641c0.489-0.106,0.802,1.157,0.097,1.281
					C316.312,170.014,316.021,168.785,316.696,168.641z"/>
				<path fill="#FFFFFF" d="M321.861,166.512c-2.39-4.185-1.511-5.231,2.636-3.138C327.004,167.422,326.125,168.468,321.861,166.512
					C320.525,165.258,323.185,167.757,321.861,166.512z"/>
				<path opacity="0.4" fill="#4A5F70" d="M326.809,168.899c-9.158-17.625-14.206,17.156-0.866,8.761
					C326.232,174.74,326.521,171.819,326.809,168.899C324.974,165.367,328.64,172.428,326.809,168.899z"/>
				<path d="M325.756,169.836c-0.235,2.216-0.47,4.432-0.705,6.647c-6.292-0.469-7.935-3.585-4.929-9.347
					C322,168.037,323.878,168.937,325.756,169.836C327.14,172.467,324.372,167.207,325.756,169.836z"/>
			</g>
			<path fill="#F6C3A4" d="M347.78,218.042c0,0,25.806,7.146,45.06-13.3C392.84,204.742,377.754,219.828,347.78,218.042z"/>
			<g>
				<g>
					<path fill="#A05627" d="M339.501,171.379c0.21,3.845,2.141,5.612-0.637,9.28C339.429,177.613,339.67,174.478,339.501,171.379z"
						/>
				</g>
				<g>
					<path fill="#A05627" d="M340.249,181.089c-16.41,4.36-5.351,12.525,5.417,7.473
						C333.857,197.066,321.997,183.252,340.249,181.089z"/>
				</g>
			</g>
			<g>
				<path opacity="0.9" fill="#F6C3A4" d="M331.486,183.384c-4.22,9.172,15.194,0.961,15.917,2.121
					C355.167,197.944,319.289,188.094,331.486,183.384C329.806,187.037,329.103,184.305,331.486,183.384z"/>
				<path opacity="0.5" fill="#F6C3A4" d="M331.838,184.903c-0.244-2.868,4.932-5.135,8.944-3.458
					C344.803,183.122,332.146,188.459,331.838,184.903z"/>
			</g>
			<g>
				<path fill="#A43F0B" d="M486.602,169.237c-1.6-16.227-14.366-27.963-19.036-43.073c-5.727-18.52-9.151-36.728-21.116-52.646
					c-23.308-31.006-65.657-37.581-101.051-28.148c-35.854,9.555-74.146,41.864-68.381,82.862
					c2.194,15.63,8.364,24.978,3.191,41.429c-4.482,14.253-8.474,35.139,7.143,44.5c-9.651-19.087,8.846-41.164,13.723-58.901
					c1.954-7.092,0.7-23.782,7.497-36.211c-1.579,8.082-1.903,18.82,2.942,25.923c2.776-1.101,17.444-30.904,25.031-36.496
					c-1.116,3.488-12.286,28.555-17.622,26.892c13.606,4.207,29.814-21.306,32.628-30.939c2.083,11.035,16.647,19.311,18.283,25.536
					c-2.364-9.065-7.282-13.888-6.867-24.444c5.811,24.872,31.944,35.747,45.848,55.355c-1.382,3.002,3.293-21.883,1.345-11.303
					c3.491,10.625,2.267,60.089-17.521,55.395c9.726,2.304,19.322-3.779,25.994-9.984c-1.117,1.577-12.371,13.659-14.884,13.034
					c11.135,2.774,22.516-3.671,29.963-11.241c-4.006,1.573-6.59,4.095-7.75,7.564c13.163-2.615,23.916-10.539,26.113-24.546
					c1.771,3.927,5.09,18.938-0.386,21.124c14.088-5.646,29.507-18.036,26.269-35.525c3.912,7.748,4.614,15.893,2.105,24.436
					C485.043,183.86,487.375,177.09,486.602,169.237C485.031,153.307,486.871,171.973,486.602,169.237z"/>
				<path fill="#D1651F" d="M481.717,187.156c2.737-10.464-1.812-22.179-6.957-31.102c6.394,19.47-3.737,36.386-21.731,43.465
					c6.815-2.699,0.673-22.97-1.456-27.142c1.321,18.752-11.536,21.599-23.417,30.599c7.526-5.698,14.302-14.908,14.306-24.731
					c-0.941,16.193-21.132,32.407-37.13,29.068c9.053-4.871,18.017-15.248,22.32-24.521c-5.905,11.28-19.391,22.461-32.854,21.459
					c24.306-11.709,19.129-42.158,15.464-62.642c-0.107,4.584-0.638,9.114-1.589,13.59c-0.816-7.295-4.279-14.254-9.114-19.768
					c4.533,7.255,7.253,15.135,8.157,23.641c-13.351-21.794-42.357-33.203-45.632-61.004c0.018,10.288-0.587,22.136,6.533,30.514
					c-7.286-8.572-14.621-15.604-17.571-27.488c1.347,11.008-17.873,35.531-30.593,33.404c9.306-7.049,10.605-22.146,18.769-27.954
					c-5.681,1.961-36.957,30.8-27.508,37.44c-8.225-5.765-1.833-30.339,1.882-38.105c-8.042,13.498-10.998,28.583-10.306,43.771
					c-13.255-6.535-13.35-25.452-8.834-37.348c-7.755,18.179,2.943,22.739,5.809,38.811c3.58,20.135-21.099,37.216-15.086,59.722
					c-19.339-17.428,1.954-42.669-1.106-62.925c-4.228-28.071-9.883-42.666,8.816-68.013c29.092-39.442,103.6-54.488,139.518-16.285
					c0.214-0.716-0.158-1.307-1.116-1.773c16.792,8.305,24.818,29.925,29.866,46.5C467.965,130.707,493.386,163.924,481.717,187.156
					C482.462,184.308,485.682,179.262,481.717,187.156z"/>
				<path fill="#D47620" d="M300.09,148.832c-11.094-8.473-10.423-25.308-5.636-36.529c-0.986,2.577-1.712,5.231-2.178,7.962
					c3.689-10.848,9.115-20.748,16.277-29.699c-35.816,25.056-5.205,46.094-16.408,75.662c-3.484-0.249-4.358-3.307-2.624-9.176
					c1.744,12.858-16.262,43.115-4.346,53.784C279.242,188.624,298.965,170.104,300.09,148.832
					C296.377,145.997,300.049,149.599,300.09,148.832z"/>
				<path fill="#D47620" d="M336.791,107.665c1.417-5.083,6.539-11.887,7.429-18.729c-15.083,17.146-33.54,25.182-32.349,51.204
					C314.334,126.261,325.429,114.951,336.791,107.665C336.799,107.635,325.42,114.957,336.791,107.665z"/>
				<path fill="#D47620" d="M358.603,87.724c-2.662,15.329,0.267,29.401,10.013,40.859c-7.12-8.377-6.516-20.226-6.533-30.514
					C363.4,109.239,360.773,93.201,358.603,87.724C357.262,95.443,360.335,92.095,358.603,87.724z"/>
				<path fill="#D47620" d="M454.706,164.224c-4.596-10.203-8.686-20.604-12.269-31.206c0.278,4.204,19.536,62.959,10.591,66.502
					C462.278,195.914,456.936,170.635,454.706,164.224C451.029,153.653,458.449,174.987,454.706,164.224z"/>
				<path fill="#D47620" d="M440.211,188.441c-2.25,2.633-3.949,5.559-5.098,8.776c15.307-18.292,2.745-36.926-0.469-56.353
					c-1.078,8.968,5.844,71.449,7.816,37.38C442.274,181.788,441.524,185.187,440.211,188.441
					C439.234,190.56,440.625,187.451,440.211,188.441z"/>
				<path fill="#D47620" d="M403.115,76.682c10.386,10.856,20.56,24.414,23.467,39.542
					C425.569,99.676,419.514,81.985,403.115,76.682z"/>
				<path fill="#D47620" d="M420.055,134.666c-3.188-17.164-9.74-40.358-24.535-51.263c17.281,20.18,22.674,47.728,24.628,73.458
					C421.767,149.456,421.736,142.058,420.055,134.666C418.688,127.312,421.389,141.858,420.055,134.666z"/>
				<path fill="#D47620" d="M395.643,84.669c-2.521-3.033-1.866-2.767-5.091-3.872C392.249,82.088,393.945,83.379,395.643,84.669
					C394.85,83.715,394.069,83.23,395.643,84.669z"/>
				<path fill="#D47620" d="M428.155,202.977c2.289-1.734,5.357-3.57,6.846-7.037C432.834,198.395,430.552,200.74,428.155,202.977
					C426.816,203.991,430.091,201.512,428.155,202.977z"/>
				<path fill="#D47620" d="M351.044,101.095c1.213,4.529,0.689,0.52-1.569-12.026c-1.223,15.675-11.144,35.782-24.501,44.654
					C335.414,129.486,352.598,113.796,351.044,101.095C351.084,101.251,351.064,101.255,351.044,101.095z"/>
				<path fill="#D47620" d="M308.595,118.003c2.282-3.518,1.649-6.5,4.999-12.123c-7.385,15.429,14.042-14.72,19.989-20.887
					c-9.696,4.111-21.215,14.507-25.479,23.065c2.951-6.575,6.527-12.79,10.729-18.645c-12.042,9.864-20.353,25.566-21.146,41.192
					c-0.318,6.261,6.978,24.045-1.479,12.696c2.346,3.521,3.931,4.797,7.081,6.35C302.711,136.994,300.719,130.159,308.595,118.003
					C308.63,117.949,305.675,122.509,308.595,118.003z"/>
			</g>
			<g>
				<path fill="#F6C3A4" d="M409.009,154.809c1.013,6.94,0.871,17.804,2.955,24.326
					C443.262,173.559,429.461,126.785,409.009,154.809C409.36,157.218,424.067,134.175,409.009,154.809z"/>
				<path fill="#F6C3A4" d="M428.078,152.75c-11.503-11.693-15.996,16.208-11.067,21.049c-7.068-6.976-6.685-18.492-1.375-26.275
					c-7.463,6.038-6.722,22.065-3.672,31.61C422.373,177.412,439.128,163.986,428.078,152.75
					C426.099,150.738,431.003,155.725,428.078,152.75z"/>
				<path fill="#A05627" d="M409.092,154.689c15.992-27.615,38.844,18.491,4.257,23.941
					C446.448,172.117,424.832,129.415,409.092,154.689z"/>
				<g>
					<g>
						<path fill="#A05627" d="M427.008,155.493c-8.7-9.404-12.086,5.137-8.17,14.843
							C416.768,160.723,418.64,149.963,427.008,155.493z"/>
					</g>
					<g>
						<path fill="#A05627" d="M425.292,164.146c-2.611-1.745-6.772,2.095-7.047-6.627
							C417.011,168.921,421.896,162.855,425.292,164.146z"/>
					</g>
				</g>
				<path opacity="0.9" fill="#F6C3A4" d="M426.916,160.872c1.022-10.373-5.542-15.034-8.78-1.801
					C414.903,172.303,425.815,172.073,426.916,160.872z"/>
			</g>
		</g>
		<path fill="#A05627" d="M353.076,209.926c-2.658-4.369-3.16-9.839-2.094-14.796c-2.421,5.021-2.218,9.931,0.609,14.729
			c-3.869-2.345-15.776,2.259-13.68-5.899C334.899,209.803,358.116,218.213,353.076,209.926
			C352.426,208.857,353.794,211.106,353.076,209.926z"/>
		<path opacity="0.9" fill="#F6C3A4" d="M352.931,192.541c-4.678,5.816-1.256,16.45,4.043,20.484
			C352.673,206.774,351.326,199.946,352.931,192.541C352.586,192.97,350.885,199.627,352.931,192.541z"/>
		<g>
			<g>
				<path fill="#69CEF1" d="M289.549,229.604c0,0-16.491-16.134-18.864-4.863C268.845,233.484,289.549,229.604,289.549,229.604z"/>
				<path fill="#00B1EA" d="M280.314,230.818c-21.348-11.461,2.338-11.183,9.974-0.989
					C287.028,230.443,283.614,230.818,280.314,230.818z M274.835,221.098c-10.774,0,5.98,9.553,13.951,8.277
					C284.906,225.343,280.256,222.584,274.835,221.098z"/>
			</g>
			<path fill="#FFFFFF" d="M279.65,224.694c0,0-5.054-4.835-6.106-1.884C272.493,225.762,279.65,224.694,279.65,224.694z"/>
		</g>
		<g>
			<g>
				<path fill="#69CEF1" d="M288.914,254.345c0,0-18.553,4.218-11.802,10.9C282.349,270.431,288.914,254.345,288.914,254.345z"/>
				<path fill="#00B1EA" d="M279.348,266.63c-6.34-7.533,0.858-11.145,10.153-12.783C288.525,257.016,283.573,266.63,279.348,266.63
					z M288.303,254.862c-2.812,0.729-16.743,4.391-10.941,10.131C281.926,269.512,287.375,256.961,288.303,254.862
					C285.777,255.517,287.213,257.328,288.303,254.862z"/>
			</g>
			<path fill="#FFFFFF" d="M281.084,259.011c0,0-5.608,1.343-4.033,3.392C278.627,264.449,281.084,259.011,281.084,259.011z"/>
		</g>
		<path opacity="0.9" fill="#F6C3A4" d="M337.597,202.555c-2.459,13.925,9.24,4.664,18.983,12.458
			c-2.923-8.046-7.383-10.449-5.814-20.644c-2.655,4.31-2.931,8.977-0.83,14C345.017,209.113,338.285,208.466,337.597,202.555z"/>
		<g>
			<g>
				<path fill="#F6C3A4" d="M372.951,289.398c34.806,3.718,72.839,7.509,105.716,20.065c33.183,12.673,2.612,44.994-22.104,38.838
					C424.896,340.417,375.278,325.204,372.951,289.398z"/>
				<path fill="#A05627" d="M465.828,350.043c-11.482,0-116.681-36.295-93.133-60.893c8.741-8.797,81.288,12.686,93.766,16.31
					C495.883,313.994,503.417,350.043,465.828,350.043z M376.375,310.779c25.215,14.431,77.296,52.532,106.914,33.444
					c50.116-32.32-95.642-52.858-109.92-54.421C374.311,296.379,374.094,304.568,376.375,310.779z"/>
			</g>
			<g>
				<g>
					<g>
						<g>
							<path fill="#E42313" d="M313.242,270.245c6.896,22.684,14.061,45.306,20.612,68.092
								c45.276,22.941,25.813-57.844,23.831-76.44C342.87,264.68,328.056,267.462,313.242,270.245z"/>
							<path fill="#952313" d="M333.591,338.857c-7.513-22.678-14.108-46.078-21.095-69.064c15.234-2.861,30.468-5.724,45.702-8.585
								C359.968,277.849,383.049,363.913,333.591,338.857z M357.172,262.585c-14.395,2.704-28.79,5.409-43.185,8.113
								c4.538,14.916,11.959,69.942,29.655,68.057C379.347,334.949,360.014,289.218,357.172,262.585z"/>
						</g>
						<g>
							<path fill="#DCF6EC" d="M335.52,305.575c5.531-18.784,14.676-9.993,25.954-5.106c-1.593-16.468-10.183-42.259-25.549-15.076
								c-2.627,4.646-4.026,21.249-13.048,18.401C324.657,310.023,332.117,317.153,335.52,305.575
								C338.358,295.936,333.731,311.66,335.52,305.575z"/>
						</g>
						<g>
							<path fill="#CFCFCF" d="M313.242,270.245c3.962,17.405,33.554-7.445,38.542,16.56c2.288,11.004,6.375,23.255,5.083,34.68
								c-1.323,11.699-18.104,18.977-25.595,7.863c5.204,18.108,34.302,11.204,32.552-7.216c-1.909-20.092-4-40.167-6.14-60.235
								C342.87,264.68,328.056,267.462,313.242,270.245z"/>
						</g>
						<g>
							<path fill="#CFCFCF" d="M357.684,261.896c-14.814,2.783-29.628,5.565-44.442,8.349
								C321.096,277.037,352.324,270.649,357.684,261.896z"/>
						</g>
						<g>
							<path fill="#CFCFCF" d="M314.198,268.048c5.724-1.184,44.765-12.309,45.603-5.614c-10.447,2.115-20.895,4.229-31.342,6.34
								C326.394,269.191,302.854,270.563,314.198,268.048z"/>
							<path fill="#A3A3A3" d="M359.917,263.005c-5.927,1.191-46.213,13-48.75,9.499
								C304.532,263.025,361.507,262.657,359.917,263.005C359.471,263.095,359.976,262.992,359.917,263.005z M311.736,270.288
								c0.079-0.348,41.526-7.125,47.409-8.316C358.589,258.664,312.831,265.538,311.736,270.288
								C311.631,270.749,311.837,269.852,311.736,270.288z"/>
						</g>
						<path fill="#FFFFFF" d="M320.545,277.251c2.036,8.303,4.609,37.362,10.983,42.211
							C321.748,312.022,321.06,281.345,320.545,277.251z"/>
						<path fill="#FFFFFF" d="M334.362,324.982C336.799,333.812,331.89,316.125,334.362,324.982
							C334.741,326.354,333.979,323.611,334.362,324.982z"/>
						<path fill="#FFFFFF" d="M326.654,267.1c-3.898,1.644-7.963,2.509-12.193,2.597C318.359,268.05,322.424,267.184,326.654,267.1
							C326.72,267.422,326.586,266.775,326.654,267.1z"/>
					</g>
					<g>
						<g>
							<path fill="#CFCFCF" d="M349.82,210.223c-23.943-12.458-18.186,45.553-17.286,53.826
								C341.645,260.866,336.967,225.079,349.82,210.223C349.64,210.129,348.222,212.07,349.82,210.223z"/>
							<path fill="#A3A3A3" d="M350.331,210.48c-17.414-8.595-12.411,48.762-12.06,51.988c-1.749,0.31-3.498,0.62-5.246,0.93
								c-2.48-23.24-5.49-37.104,11.731-54.109c-15.677,2.725-23.159,47.263-12.556,55.204c8.503,6.318,6.511-8.565,6.429-9.398
								C336.557,233.936,336.234,226.775,350.331,210.48C349.989,210.312,348.887,212.149,350.331,210.48z"/>
						</g>
						<g>
							<path fill="#A3A3A3" d="M336.761,228.067c1.764-0.956-6.077-3.368-6.401-2.798
								C329.385,226.992,337.224,227.821,336.761,228.067C336.912,227.985,336.662,228.12,336.761,228.067z"/>
							<path fill="#A3A3A3" d="M336.465,230.571c1.857-1.015-6.916-2.619-7.162-2.076
								C328.33,230.67,337.454,230.034,336.465,230.571C336.649,230.471,336.396,230.608,336.465,230.571z"/>
							<path fill="#A3A3A3" d="M336.479,232.63c1.825-0.977-7.166-1.609-7.323-0.624
								C328.865,233.959,337.021,232.319,336.479,232.63C336.704,232.51,336.445,232.649,336.479,232.63z"/>
						</g>
						<g>
							<path fill="#CFCFCF" d="M349.82,210.223c-19.951-10.381-17.279,53.815-17.286,53.826
								C341.645,260.866,336.967,225.079,349.82,210.223C349.64,210.129,348.222,212.07,349.82,210.223z"/>
						</g>
						<path fill="#FFFFFF" d="M344.691,209.301c-4.558,3.854-8.375,8.337-11.453,13.45
							C332.919,223.57,348.064,208.712,344.691,209.301C343.458,210.278,345.122,209.226,344.691,209.301z"/>
					</g>
				</g>
				<g>
					<g>
						<path fill="#F6C3A4" d="M382.139,309.191c8.388-55.67-68.712-15.681-67.275-14.229c4.05-0.379,7.533-1.967,10.449-4.765
							c-2.407,2.885-11.514,15.185-6.943,18.88c2.547,2.057,10.195-6.692,11.877-8.345c-2.073,4.293-4.255,22.209,2.158,25.454
							c-5.998-3.034,22.113-17.439,23.439-17.707C367.73,306.088,371.5,328.013,382.139,309.191z"/>
					</g>
					<g>
						<path fill="#9B4F13" d="M342.6,282.859c-6.493,2.03-12.06,2.32-17.287,7.338C330.839,287.07,336.862,285.509,342.6,282.859z"
							/>
						<path fill="#9B4F13" d="M337.276,291.452c-2.704,3.396-5.76,6.045-7.727,10.074
							C332.93,298.582,334.696,294.944,337.276,291.452z"/>
						<path fill="#9B4F13" d="M330.686,319.511c2.066-7.704,6.872-14.062,13.709-18.549
							C336.289,304.582,331.275,310.996,330.686,319.511z"/>
					</g>
					<g opacity="0.7">
						<path opacity="0.6" fill="#FBD0B4" d="M374.197,310.219c-4.445-1.842-8.123-4.689-11.033-8.54
							c-7.907-4.601-16.431,11.863-25.061,8.528c-2.667-1.03,7.268-9.347,7.688-10.547c-0.48,1.372-10.306,6.728-12.849,4.022
							c-1.77-5.063-0.333-9.591,4.308-13.58c-2.459,4.546-6.099,6.736-10.92,6.571c-5.255-6.311,11.71-13.034,13.485-13.801
							c-8.834,1.964-17.129,10.082-25.68,10.758c0.835,5.358,9.914-2.866,11.176-3.434c-2.407,2.885-11.514,15.185-6.943,18.88
							c2.547,2.057,10.195-6.692,11.877-8.345c-2.073,4.293-4.255,22.209,2.158,25.454c-5.998-3.034,22.113-17.439,23.439-17.707
							c9.059-1.822,18.712,19.514,25.934,1.732C379.251,310.214,376.724,310.217,374.197,310.219
							C369.512,310.516,377.13,310.865,374.197,310.219z"/>
					</g>
					<path fill="#FCECE3" d="M364.867,284.164c0,0-13.824-8.238-35.805-0.144C322.311,287.258,344.192,271.137,364.867,284.164z"/>
					<g>
						<path fill="#A05627" d="M381.295,309.479c-6.548,18.118-16.856-3.461-25.592-1.698c-18.389,3.71-10.508,12.786-22.661,17.755
							c-2.915,1.188-5.656-28.514-2.306-25.32c-3.31-3.127-8.859,10.763-11.92,8.307c-5.438-4.392,9.69-16.566,6.954-18.871
							c0.283,0.235-11.41,7.367-10.944,3.522c3.56-28.784,51.612-5.701,63.402-2.665c-17.848-20.666-69.429-0.654-63.869,4.954
							c3.258,0.688,6.123-0.187,8.593-2.622c-2.098,3.506-10.164,12.643-5.029,16.789c3.745-0.117,6.805-1.735,9.18-4.855
							c-1.942,5.29,2.756,33.241,10.938,15.862C348.825,297.736,378.649,329.601,381.295,309.479
							C380.757,310.97,381.018,311.592,381.295,309.479z"/>
					</g>
				</g>
			</g>
		</g>
	</g>
</g>
</svg>
