<svg version="1.1" id="Layer_1" xmlns="http://www.w3.org/2000/svg" xmlns:xlink="http://www.w3.org/1999/xlink" viewBox="0 0 768 430" xml:space="preserve">
<path fill="#DDE4D0" d="M412.7,98.6c14.899,0,27-12.1,27-27s-12.101-27-27-27c-14.9,0-27,12.1-27,27S397.8,98.6,412.7,98.6z
	 M412.1,177.8l-24.5-27V99.4C387.5,83.5,366.1,69,350.7,76.8l-64.6,34.9c-8.7,5-12.1,13.4-12.1,22.1v155.3
	c0,29.301,40.1,29.301,40.1-0.3v-131l48.3-26.1v24.6c0,4.7,1.3,6.7,3,8.4l27.7,30.5C405.5,207.8,423.3,190.5,412.1,177.8z"/>
<path fill="#DDE4D0" d="M407.9,132.2c-11,0-15.101,12.4-8.301,20.2l51.4,57.4h42.5v-77.5L407.9,132.2z"/>
<path fill="#DDE4D0" d="M427,115.6"/>
<path fill="#DDE4D0" d="M429.8,106.3"/>
<path fill="#DDE4D0" d="M435.2,122.6c-1.8,0-3.3,1.5-3.3,3.3c0,1.8,1.5,3.3,3.3,3.3s3.3-1.5,3.3-3.3
	C438.5,124.1,437,122.6,435.2,122.6z M435.8,114c-1.8,0-3.3,1.5-3.3,3.3c0,1.8,1.5,3.3,3.3,3.3s3.3-1.5,3.3-3.3
	C439.1,115.5,437.6,114,435.8,114z M438.5,104.1c-1.9,0-3.5,1.6-3.5,3.5s1.6,3.5,3.5,3.5s3.5-1.5,3.5-3.5
	C441.9,105.6,440.4,104.1,438.5,104.1z"/>
<circle fill="#DDE4D0" cx="447.6" cy="102.4" r="3.6"/>
<path fill="#DDE4D0" d="M457,101c-2.2,0-4,1.8-4,4s1.8,4,4,4s4-1.8,4-4S459.2,101,457,101z M468,117.6c-3-3.6-4-8.6-3.5-6.6
	c0.5,2.1-4.3,4.4-4.3,6.6c0,2.2,1.8,3.9,3.899,3.9C466.2,121.5,469.4,119.3,468,117.6z"/>
<line fill="none" stroke="#DDE4D0" stroke-miterlimit="10" x1="391" y1="102" x2="395" y2="119"/>
<line fill="none" stroke="#DDE4D0" stroke-miterlimit="10" x1="393" y1="101" x2="402" y2="116"/>
<line fill="none" stroke="#DDE4D0" stroke-miterlimit="10" x1="395" y1="100" x2="408" y2="112"/>
</svg>
