<svg version="1.1" id="Layer_2" xmlns="http://www.w3.org/2000/svg" xmlns:xlink="http://www.w3.org/1999/xlink" viewBox="0 0 768 430" enable-background="new 0 0 768 430" xml:space="preserve">
<g>
	<defs>
		<path id="SVGID_1_" d="M138,539.211c153.542,0,307.083,0,460.625,0c21.174,0,42.349,0,63.523,0c1.868,0,0.852-39.637,0.852-42.913
			c0-91.326,0-182.651,0-273.978c0-42.909,0-85.818,0-128.727c0-13.237,0-26.474,0-39.711c0-1.99,1.53-13.189,0-14.671
			c-1.548-1.5-12.029,0-14.043,0c-12.738,0-25.477,0-38.216,0c-41.827,0-83.654,0-125.482,0c-94.294,0-188.589,0-282.883,0
			c-21.175,0-42.349,0-63.524,0c-1.868,0-0.852,39.636-0.852,42.913C138,234.486,138,386.849,138,539.211z"/>
	</defs>
	<clipPath id="SVGID_2_">
		<use xlink:href="#SVGID_1_"  overflow="visible"/>
	</clipPath>
	<g clip-path="url(#SVGID_2_)">
		<defs>
			<path id="SVGID_3_" d="M138,39.211c153.542,0,307.083,0,460.625,0c21.174,0,42.349,0,63.523,0c1.868,0,0.852,39.636,0.852,42.913
				c0,91.326,0,182.651,0,273.977c0,42.909,0,85.818,0,128.729c0,13.236,0,26.474,0,39.711c0,1.989,1.53,13.188,0,14.671
				c-1.548,1.5-12.029,0-14.043,0c-12.738,0-25.477,0-38.216,0c-41.827,0-83.654,0-125.482,0c-94.294,0-188.589,0-282.883,0
				c-21.175,0-42.349,0-63.524,0c-1.868,0-0.852-39.637-0.852-42.913C138,343.936,138,191.573,138,39.211z"/>
		</defs>
		<clipPath id="SVGID_4_">
			<use xlink:href="#SVGID_3_"  overflow="visible"/>
		</clipPath>
		<path clip-path="url(#SVGID_4_)" fill="#273332" d="M451.663,156.711c-16.135,0.757-11.388-26.056-11.388-35.597
			c0-9.571-5.528-41.57,10.663-41.57c16.152-0.494,11.388,25.84,11.388,35.597C462.326,124.712,467.854,156.711,451.663,156.711"/>
		<path clip-path="url(#SVGID_4_)" fill="#A5C3D3" d="M270.12,363.683c-1.333-22.085,27.138-16.364,41.517-16.364
			c30.938,0,61.875,0,92.813,0c31.261,0,62.521,0,93.782,0c14.542,0,44.97-6.106,43.614,16.364"/>
		<path clip-path="url(#SVGID_4_)" fill="#49B232" d="M490.936,357.169c-5.285,0-11.354,0.899-16.55,0
			c-15.555,0-15.554-24.121,0-24.121c4.664-0.808,11.886-0.808,16.55,0C506.491,333.048,506.491,357.169,490.936,357.169"/>
		<path clip-path="url(#SVGID_4_)" fill="#FFDA8F" d="M323.233,358.821c0.031-35.233,0.061-70.468,0.092-105.701
			c0.019-21.897,0.038-43.796,0.057-65.694c0.005-5.442,0.009-10.884,0.014-16.326c0.007-8.119,11.067-18.844,15.483-25.429
			c4.09-6.098,20.128-37.639,26.165-37.639c9.251,0,18.503,0,27.754,0c11.615,0,23.229,0,34.845,0
			c13.252,0,14.243-2.066,21.605,10.052c5.933,9.765,11.638,19.668,17.688,29.361c2.804,4.492,15.386,17.672,15.394,22.44
			c0.007,3.832,0.014,7.663,0.021,11.495c0.035,20.092,0.07,40.184,0.105,60.276c0.068,39.056,0.137,78.11,0.205,117.166"/>
		<path clip-path="url(#SVGID_4_)" fill="#70838E" d="M274.702,363.942h262.195"/>
		<path clip-path="url(#SVGID_4_)" fill="#5B7488" d="M286.978,368.661"/>
		<path clip-path="url(#SVGID_4_)" fill="#5B7488" d="M286.978,368.661"/>
		<path clip-path="url(#SVGID_4_)" fill="#5B7488" d="M340.773,368.661"/>
		<path clip-path="url(#SVGID_4_)" fill="#5B7488" d="M340.773,368.661"/>
		<line clip-path="url(#SVGID_4_)" fill="#A87552" x1="284.713" y1="367.082" x2="342.479" y2="367.082"/>
		<path clip-path="url(#SVGID_4_)" fill="#273332" d="M361.536,120.109c-10.604,15.753-21.208,31.506-31.813,47.26
			c-2.068,3.073-6.908,14.059-10.454,15.53c-2.291,3.399-6.811-0.35-4.681-3.526c1.055-1.572,2.109-3.144,3.164-4.715
			c23.948-35.692,47.896-71.384,71.845-107.076c3.229-4.811,11.245-23.259,17.396-14.142c9.97,14.774,19.939,29.549,29.908,44.323
			c13.419,19.886,26.837,39.772,40.255,59.658c4.049,6.001,8.099,12.001,12.147,18.002c0.832,1.234,1.665,2.467,2.497,3.701
			c2.204,3.266-2.825,7.617-5.21,4.053c-2.01-0.815-4.842-7.244-5.993-8.966c-5.052-7.556-10.103-15.113-15.153-22.669
			c-3.221-4.819-16.812-32.956-23.588-32.936c-2.562-1.141-8.308,0.022-11.04,0.03c-9.304,0.025-18.607,0.051-27.911,0.076
			C396.961,118.728,365.393,114.38,361.536,120.109"/>
		<path clip-path="url(#SVGID_4_)" fill="#82EAFF" d="M383.933,168.475c0-4.793-3.324-29.066,4.31-29.066
			c4.098-1.891,31.309-2.226,31.309,4.31c1.853,3.937,2.108,29.066-4.311,29.066C411.143,174.675,383.933,175.011,383.933,168.475"
			/>
		<path clip-path="url(#SVGID_4_)" fill="none" stroke="#60420D" stroke-miterlimit="10" d="M383.933,168.475
			c0-4.793-3.324-29.066,4.31-29.066c4.098-1.891,31.309-2.226,31.309,4.31c1.853,3.937,2.108,29.066-4.311,29.066
			C411.143,174.675,383.933,175.011,383.933,168.475z"/>
		<line clip-path="url(#SVGID_4_)" fill="#82EAFF" x1="420" y1="156.211" x2="383" y2="156.211"/>
		<path clip-path="url(#SVGID_4_)" fill="#60420D" d="M384,156.211c7.439,0,31.894-3.542,36,1
			C412.561,157.211,388.106,160.752,384,156.211z"/>
		<line clip-path="url(#SVGID_4_)" fill="#82EAFF" x1="401" y1="138.211" x2="401" y2="173.211"/>
		<path clip-path="url(#SVGID_4_)" fill="#60420D" d="M401,139.211c2.793,2.717,2.793,31.283,0,34
			C401,161.877,401,150.544,401,139.211z"/>
		<path clip-path="url(#SVGID_4_)" fill="#82EAFF" d="M425.933,237.475c0-4.794-3.324-29.066,4.31-29.066
			c4.098-1.891,31.309-2.226,31.309,4.31c1.853,3.936,2.108,29.067-4.311,29.067C453.142,243.676,425.933,244.012,425.933,237.475"
			/>
		<path clip-path="url(#SVGID_4_)" fill="none" stroke="#60420D" stroke-miterlimit="10" d="M425.933,237.475
			c0-4.794-3.324-29.066,4.31-29.066c4.098-1.891,31.309-2.226,31.309,4.31c1.853,3.936,2.108,29.067-4.311,29.067
			C453.142,243.676,425.933,244.012,425.933,237.475z"/>
		<line clip-path="url(#SVGID_4_)" fill="#82EAFF" x1="462" y1="225.211" x2="425" y2="225.211"/>
		<path clip-path="url(#SVGID_4_)" fill="#60420D" d="M426,225.211c7.439,0,31.894-3.541,36,1
			C454.561,226.211,430.106,229.752,426,225.211z"/>
		<line clip-path="url(#SVGID_4_)" fill="#82EAFF" x1="443" y1="207.211" x2="443" y2="242.211"/>
		<path clip-path="url(#SVGID_4_)" fill="#60420D" d="M443,208.211c2.793,2.717,2.793,31.282,0,34
			C443,230.877,443,219.545,443,208.211z"/>
		<path clip-path="url(#SVGID_4_)" fill="#60420D" d="M376.023,286.607c-6.09,0-17.344-2.375-22.836,0
			c-7.446,0-4.749,17.104-4.749,21.171c0,6.767-4.662,58.433,4.749,58.433c3.559,1.538,19.277,1.538,22.836,0
			c7.447,0,4.749-17.102,4.749-21.17C380.772,338.274,385.435,286.607,376.023,286.607"/>
		<path clip-path="url(#SVGID_4_)" fill="#895F22" d="M371.422,320.144c-5.147,0-18.482,2.538-18.482-5.712
			c0-4.839-3.027-23.528,5.184-23.528C382.714,281.103,379.686,320.144,371.422,320.144"/>
		<path clip-path="url(#SVGID_4_)" fill="#895F22" d="M371.188,354.378c-5.198,0-18.415,2.52-18.415-5.791
			c0-4.909-3.083-23.985,5.251-23.985C382.709,314.881,379.516,354.378,371.188,354.378"/>
		<path clip-path="url(#SVGID_4_)" fill="#47433C" d="M350.793,326.195c-0.885-1.011-3.36-7.938,0-7.938
			C353.108,318.258,353.108,326.195,350.793,326.195"/>
		<path clip-path="url(#SVGID_4_)" fill="#473115" d="M351.46,321.226c-1.86,0.111-2.277-0.61-1.25-2.164
			C352.071,318.948,352.487,319.67,351.46,321.226"/>
		<path clip-path="url(#SVGID_4_)" fill="#A5C3D3" d="M382.879,367.082c-7.617,0-15.233,0-22.85,0c-4.338,0-8.676,0-13.014,0
			c-5.919,0-7.757-8.742-1.144-8.742c4.835-2.498,17.457,0,22.85,0c4.338,0,8.676,0,13.014,0
			C387.654,358.34,389.491,367.082,382.879,367.082"/>
		<path clip-path="url(#SVGID_4_)" fill="#EDEF00" d="M390.829,299.758c-1.018,1.671-1.89,1.598-2.616-0.219
			C389.231,297.868,390.104,297.941,390.829,299.758"/>
		<defs>
			<filter id="Adobe_OpacityMaskFilter" filterUnits="userSpaceOnUse" x="388.352" y="298.426" width="3.036" height="3.028">
				<feColorMatrix  type="matrix" values="1 0 0 0 0  0 1 0 0 0  0 0 1 0 0  0 0 0 1 0"/>
			</filter>
		</defs>
		<mask maskUnits="userSpaceOnUse" x="388.352" y="298.426" width="3.036" height="3.028" id="SVGID_5_">
			<g filter="url(#Adobe_OpacityMaskFilter)">
				
					<radialGradient id="SVGID_6_" cx="129.2031" cy="433.626" r="1" gradientTransform="matrix(2.3126 0 0 -2.3126 90.7324 1302.4398)" gradientUnits="userSpaceOnUse">
					<stop  offset="0" style="stop-color:#FFFFFF"/>
					<stop  offset="0.1882" style="stop-color:#FFFFFF"/>
					<stop  offset="0.4203" style="stop-color:#FDFDFD"/>
					<stop  offset="0.5321" style="stop-color:#F5F5F5"/>
					<stop  offset="0.6181" style="stop-color:#E8E8E8"/>
					<stop  offset="0.691" style="stop-color:#D6D6D6"/>
					<stop  offset="0.7555" style="stop-color:#BEBEBE"/>
					<stop  offset="0.8142" style="stop-color:#A0A0A0"/>
					<stop  offset="0.8684" style="stop-color:#7D7D7D"/>
					<stop  offset="0.9192" style="stop-color:#545454"/>
					<stop  offset="0.9654" style="stop-color:#272727"/>
					<stop  offset="1" style="stop-color:#000000"/>
				</radialGradient>
				<rect x="138" y="39.211" clip-path="url(#SVGID_4_)" fill="url(#SVGID_6_)" width="525" height="500"/>
			</g>
		</mask>
		
			<radialGradient id="SVGID_7_" cx="129.3535" cy="433.501" r="0.8357" gradientTransform="matrix(2.3126 0 0 -2.3126 90.7304 1302.4403)" gradientUnits="userSpaceOnUse">
			<stop  offset="0" style="stop-color:#EDEF00"/>
			<stop  offset="0.1882" style="stop-color:#EDEF00"/>
			<stop  offset="1" style="stop-color:#EDEF00"/>
		</radialGradient>
		<path clip-path="url(#SVGID_4_)" mask="url(#SVGID_5_)" fill="url(#SVGID_7_)" d="M390.829,299.758
			c1.552,0.167-0.524,1.262-1.46,1.696c-1.917-3.403-1.046-3.914,1.958-1.655c-1.796-0.919-3.22,0.548-1.874,0.659
			C389.743,299.926,390.233,299.614,390.829,299.758z"/>
		<path clip-path="url(#SVGID_4_)" fill="#47433C" d="M393.324,299.121c0,1.656-7.605,1.656-7.605,0
			C385.719,294.204,393.324,294.204,393.324,299.121"/>
		<path clip-path="url(#SVGID_4_)" fill="#473115" d="M385.75,324.891c-1.86,0.111-2.277-0.61-1.25-2.165
			C386.36,322.613,386.777,323.335,385.75,324.891"/>
		<path clip-path="url(#SVGID_4_)" fill="#82EAFF" d="M346.933,236.475c0-4.793-3.324-29.066,4.31-29.066
			c4.098-1.891,31.309-2.226,31.309,4.31c1.853,3.937,2.108,29.067-4.311,29.067C374.142,242.676,346.933,243.012,346.933,236.475"
			/>
		<path clip-path="url(#SVGID_4_)" fill="none" stroke="#60420D" stroke-miterlimit="10" d="M346.933,236.475
			c0-4.793-3.324-29.066,4.31-29.066c4.098-1.891,31.309-2.226,31.309,4.31c1.853,3.937,2.108,29.067-4.311,29.067
			C374.142,242.676,346.933,243.012,346.933,236.475z"/>
		<path clip-path="url(#SVGID_4_)" fill="#C7F7FF" d="M353.611,207.858c-2.554,3.549-6.539,6.991-6.211,11.565
			c2.733-3.843,5.467-7.685,8.2-11.527C354.938,207.883,354.274,207.871,353.611,207.858z"/>
		<path clip-path="url(#SVGID_4_)" fill="#C7F7FF" d="M371.611,207.858c-2.554,3.549-6.539,6.991-6.211,11.565
			c2.733-3.843,5.467-7.685,8.2-11.527C372.938,207.883,372.274,207.871,371.611,207.858z"/>
		<path clip-path="url(#SVGID_4_)" fill="#C7F7FF" d="M370.611,224.857c-2.554,3.549-6.539,6.991-6.211,11.565
			c2.733-3.843,5.467-7.685,8.2-11.526C371.938,224.883,371.274,224.871,370.611,224.857z"/>
		<path clip-path="url(#SVGID_4_)" fill="#C7F7FF" d="M353.611,224.857c-2.554,3.549-6.539,6.991-6.211,11.565
			c2.733-3.843,5.467-7.685,8.2-11.526C354.938,224.883,354.274,224.871,353.611,224.857z"/>
		<line clip-path="url(#SVGID_4_)" fill="#82EAFF" x1="383" y1="224.211" x2="346" y2="224.211"/>
		<path clip-path="url(#SVGID_4_)" fill="#60420D" d="M347,224.211c7.44,0,31.894-3.541,36,1
			C375.56,225.211,351.106,228.752,347,224.211z"/>
		<line clip-path="url(#SVGID_4_)" fill="#82EAFF" x1="364" y1="206.211" x2="364" y2="241.211"/>
		<path clip-path="url(#SVGID_4_)" fill="#60420D" d="M364,207.211c2.792,2.717,2.792,31.282,0,34
			C364,229.877,364,218.545,364,207.211z"/>
		<path clip-path="url(#SVGID_4_)" fill="#229922" d="M358.361,240.557c0,6.771-10.474,6.772-10.474,0
			C347.888,233.786,358.361,233.787,358.361,240.557"/>
		<path clip-path="url(#SVGID_4_)" fill="#3C8C3C" d="M351.527,241.195c0,4.707-7.28,4.707-7.28,0S351.527,236.488,351.527,241.195"
			/>
		<path clip-path="url(#SVGID_4_)" fill="#229922" d="M368.021,239.895c0,6.772-10.474,6.772-10.474,0
			C357.548,233.124,368.021,233.125,368.021,239.895"/>
		<path clip-path="url(#SVGID_4_)" fill="#48B748" d="M360.563,240.379c0,4.708-7.281,4.709-7.281,0
			C353.282,235.672,360.563,235.672,360.563,240.379"/>
		<path clip-path="url(#SVGID_4_)" fill="#229922" d="M380.361,241.351c0,6.771-10.474,6.771-10.474,0
			S380.361,234.58,380.361,241.351"/>
		<path clip-path="url(#SVGID_4_)" fill="#158715" d="M374.516,240.841c0,4.708-7.28,4.708-7.28,0S374.516,236.133,374.516,240.841"
			/>
		<path clip-path="url(#SVGID_4_)" fill="#2F842F" d="M385.314,240.629c0,4.708-7.281,4.709-7.281,0
			C378.033,235.922,385.314,235.922,385.314,240.629"/>
		<path clip-path="url(#SVGID_4_)" fill="#35A035" d="M380.584,243.32c0,4.707-7.28,4.707-7.28,0
			C373.304,238.612,380.584,238.612,380.584,243.32"/>
		<path clip-path="url(#SVGID_4_)" fill="#66491B" d="M381.463,251.325c-8.952,0-17.905,0-26.857,0
			c-1.139,0-7.515,0.995-8.194-0.767c-1.039-0.854-4.285-8.547-1.222-8.547c9.793,0,19.586,0,29.379,0c1.172,0,8.328-0.917,9.181,0
			C386.251,242.012,383.326,251.325,381.463,251.325"/>
		<path clip-path="url(#SVGID_4_)" fill="#429B42" d="M365.262,243.32c0,4.707-7.281,4.707-7.281,0
			C357.98,238.611,365.262,238.612,365.262,243.32"/>
		<path clip-path="url(#SVGID_4_)" fill="#257F25" d="M371.662,241.621c0,4.708-7.281,4.709-7.281,0
			C364.381,236.914,371.662,236.914,371.662,241.621"/>
		<path clip-path="url(#SVGID_4_)" fill="#82EAFF" d="M425.933,237.475c0-4.794-3.324-29.066,4.31-29.066
			c4.098-1.891,31.309-2.226,31.309,4.31c1.853,3.936,2.108,29.067-4.311,29.067C453.142,243.676,425.933,244.012,425.933,237.475"
			/>
		<path clip-path="url(#SVGID_4_)" fill="none" stroke="#60420D" stroke-miterlimit="10" d="M425.933,237.475
			c0-4.794-3.324-29.066,4.31-29.066c4.098-1.891,31.309-2.226,31.309,4.31c1.853,3.936,2.108,29.067-4.311,29.067
			C453.142,243.676,425.933,244.012,425.933,237.475z"/>
		<path clip-path="url(#SVGID_4_)" fill="#C7F7FF" d="M432.611,208.858c-2.554,3.549-6.538,6.991-6.212,11.565
			c2.733-3.843,5.468-7.685,8.201-11.527C433.938,208.883,433.274,208.871,432.611,208.858z"/>
		<path clip-path="url(#SVGID_4_)" fill="#C7F7FF" d="M450.611,208.858c-2.554,3.549-6.538,6.991-6.212,11.565
			c2.733-3.843,5.468-7.685,8.201-11.527C451.938,208.883,451.274,208.871,450.611,208.858z"/>
		<path clip-path="url(#SVGID_4_)" fill="#C7F7FF" d="M449.611,225.857c-2.554,3.549-6.538,6.991-6.212,11.565
			c2.733-3.842,5.468-7.685,8.201-11.526C450.938,225.883,450.274,225.871,449.611,225.857z"/>
		<path clip-path="url(#SVGID_4_)" fill="#C7F7FF" d="M432.611,225.857c-2.554,3.549-6.538,6.991-6.212,11.565
			c2.733-3.842,5.468-7.685,8.201-11.526C433.938,225.883,433.274,225.871,432.611,225.857z"/>
		<line clip-path="url(#SVGID_4_)" fill="#82EAFF" x1="462" y1="225.211" x2="425" y2="225.211"/>
		<path clip-path="url(#SVGID_4_)" fill="#60420D" d="M426,225.211c7.439,0,31.894-3.541,36,1
			C454.561,226.211,430.106,229.752,426,225.211z"/>
		<line clip-path="url(#SVGID_4_)" fill="#82EAFF" x1="443" y1="207.211" x2="443" y2="242.211"/>
		<path clip-path="url(#SVGID_4_)" fill="#60420D" d="M443,208.211c2.793,2.717,2.793,31.282,0,34
			C443,230.877,443,219.545,443,208.211z"/>
		<path clip-path="url(#SVGID_4_)" fill="#229922" d="M437.36,241.536c0,6.771-10.473,6.771-10.473,0S437.36,234.765,437.36,241.536
			"/>
		<path clip-path="url(#SVGID_4_)" fill="#3C8C3C" d="M430.528,242.175c0,4.707-7.281,4.707-7.281,0
			C423.247,237.467,430.528,237.467,430.528,242.175"/>
		<path clip-path="url(#SVGID_4_)" fill="#229922" d="M447.021,240.875c0,6.77-10.474,6.771-10.474,0
			C436.548,234.104,447.021,234.104,447.021,240.875"/>
		<path clip-path="url(#SVGID_4_)" fill="#48B748" d="M439.563,241.359c0,4.707-7.281,4.707-7.281,0
			C432.282,236.65,439.563,236.651,439.563,241.359"/>
		<path clip-path="url(#SVGID_4_)" fill="#229922" d="M459.36,242.33c0,6.771-10.473,6.771-10.473,0
			C448.888,235.559,459.36,235.559,459.36,242.33"/>
		<path clip-path="url(#SVGID_4_)" fill="#158715" d="M453.517,241.82c0,4.707-7.281,4.707-7.281,0
			C446.235,237.112,453.517,237.113,453.517,241.82"/>
		<path clip-path="url(#SVGID_4_)" fill="#2F842F" d="M464.314,241.609c0,4.707-7.281,4.707-7.281,0
			C457.033,236.9,464.314,236.901,464.314,241.609"/>
		<path clip-path="url(#SVGID_4_)" fill="#35A035" d="M459.585,244.299c0,4.707-7.281,4.708-7.281,0
			C452.304,239.592,459.585,239.592,459.585,244.299"/>
		<path clip-path="url(#SVGID_4_)" fill="#66491B" d="M460.463,252.305c-8.952,0-17.904,0-26.857,0
			c-1.139,0-7.514,0.995-8.193-0.767c-1.039-0.854-4.285-8.547-1.222-8.547c9.793,0,19.586,0,29.379,0c1.173,0,8.328-0.917,9.181,0
			C465.253,242.991,462.326,252.305,460.463,252.305"/>
		<path clip-path="url(#SVGID_4_)" fill="#429B42" d="M455.564,245.33c0,4.708-7.281,4.709-7.281,0
			C448.283,240.623,455.564,240.623,455.564,245.33"/>
		<path clip-path="url(#SVGID_4_)" fill="#257F25" d="M461.965,243.633c0,4.707-7.281,4.707-7.281,0
			S461.965,238.926,461.965,243.633"/>
		<path clip-path="url(#SVGID_4_)" fill="#82EAFF" d="M383.933,168.475c0-4.793-3.324-29.066,4.31-29.066
			c4.098-1.891,31.309-2.226,31.309,4.31c1.853,3.937,2.108,29.066-4.311,29.066C411.143,174.675,383.933,175.011,383.933,168.475"
			/>
		<path clip-path="url(#SVGID_4_)" fill="none" stroke="#60420D" stroke-miterlimit="10" d="M383.933,168.475
			c0-4.793-3.324-29.066,4.31-29.066c4.098-1.891,31.309-2.226,31.309,4.31c1.853,3.937,2.108,29.066-4.311,29.066
			C411.143,174.675,383.933,175.011,383.933,168.475z"/>
		<path clip-path="url(#SVGID_4_)" fill="#C7F7FF" d="M390.611,139.858c-2.554,3.549-6.539,6.991-6.211,11.565
			c2.733-3.842,5.467-7.685,8.2-11.527C391.938,139.883,391.274,139.871,390.611,139.858z"/>
		<path clip-path="url(#SVGID_4_)" fill="#C7F7FF" d="M408.611,139.858c-2.554,3.549-6.538,6.991-6.212,11.565
			c2.733-3.842,5.468-7.685,8.201-11.527C409.938,139.883,409.274,139.871,408.611,139.858z"/>
		<path clip-path="url(#SVGID_4_)" fill="#C7F7FF" d="M407.611,156.858c-2.554,3.549-6.538,6.991-6.212,11.565
			c2.733-3.842,5.468-7.685,8.201-11.527C408.938,156.883,408.274,156.871,407.611,156.858z"/>
		<path clip-path="url(#SVGID_4_)" fill="#C7F7FF" d="M390.611,156.858c-2.554,3.549-6.539,6.991-6.211,11.565
			c2.733-3.842,5.467-7.685,8.2-11.527C391.938,156.883,391.274,156.871,390.611,156.858z"/>
		<line clip-path="url(#SVGID_4_)" fill="#82EAFF" x1="420" y1="156.211" x2="383" y2="156.211"/>
		<path clip-path="url(#SVGID_4_)" fill="#60420D" d="M384,156.211c7.439,0,31.894-3.542,36,1
			C412.561,157.211,388.106,160.752,384,156.211z"/>
		<line clip-path="url(#SVGID_4_)" fill="#82EAFF" x1="401" y1="138.211" x2="401" y2="173.211"/>
		<path clip-path="url(#SVGID_4_)" fill="#60420D" d="M401,139.211c2.793,2.717,2.793,31.283,0,34
			C401,161.877,401,150.544,401,139.211z"/>
		<path clip-path="url(#SVGID_4_)" fill="#229922" d="M395.927,171.308c0,6.771-10.473,6.771-10.473,0
			C385.454,164.536,395.927,164.537,395.927,171.308"/>
		<path clip-path="url(#SVGID_4_)" fill="#3C8C3C" d="M389.094,171.946c0,4.708-7.28,4.708-7.28,0S389.094,167.238,389.094,171.946"
			/>
		<path clip-path="url(#SVGID_4_)" fill="#229922" d="M405.588,170.646c0,6.771-10.474,6.771-10.474,0
			C395.114,163.875,405.588,163.875,405.588,170.646"/>
		<path clip-path="url(#SVGID_4_)" fill="#48B748" d="M398.129,171.13c0,4.708-7.28,4.708-7.28,0
			C390.849,166.423,398.129,166.423,398.129,171.13"/>
		<path clip-path="url(#SVGID_4_)" fill="#229922" d="M417.927,172.101c0,6.771-10.473,6.771-10.473,0
			C407.454,165.33,417.927,165.33,417.927,172.101"/>
		<path clip-path="url(#SVGID_4_)" fill="#158715" d="M412.082,171.591c0,4.708-7.28,4.708-7.28,0
			C404.802,166.884,412.082,166.884,412.082,171.591"/>
		<path clip-path="url(#SVGID_4_)" fill="#2F842F" d="M422.881,171.38c0,4.708-7.281,4.708-7.281,0
			C415.6,166.672,422.881,166.673,422.881,171.38"/>
		<path clip-path="url(#SVGID_4_)" fill="#35A035" d="M418.151,174.07c0,4.707-7.281,4.708-7.281,0
			C410.87,169.362,418.151,169.363,418.151,174.07"/>
		<path clip-path="url(#SVGID_4_)" fill="#66491B" d="M419.029,182.075c-8.952,0-17.904,0-26.857,0
			c-1.138,0-7.515,0.995-8.193-0.766c-1.039-0.854-4.285-8.547-1.222-8.547c9.793,0,19.586,0,29.379,0c1.173,0,8.328-0.917,9.181,0
			C423.819,172.762,420.893,182.075,419.029,182.075"/>
		<path clip-path="url(#SVGID_4_)" fill="#429B42" d="M399.567,177.711c0,4.707-7.28,4.708-7.28,0
			C392.287,173.003,399.567,173.003,399.567,177.711"/>
		<path clip-path="url(#SVGID_4_)" fill="#257F25" d="M400.775,174.07c0,4.708-7.281,4.707-7.281,0
			C393.494,169.363,400.775,169.362,400.775,174.07"/>
		<path clip-path="url(#SVGID_4_)" fill="#82EAFF" d="M426.933,321.475c0-4.794-3.323-29.066,4.31-29.066
			c4.098-1.891,31.309-2.226,31.309,4.311c1.853,3.938,2.108,29.065-4.311,29.065C454.143,327.675,426.933,328.01,426.933,321.475"
			/>
		<path clip-path="url(#SVGID_4_)" fill="none" stroke="#60420D" stroke-miterlimit="10" d="M426.933,321.475
			c0-4.794-3.323-29.066,4.31-29.066c4.098-1.891,31.309-2.226,31.309,4.311c1.853,3.938,2.108,29.065-4.311,29.065
			C454.143,327.675,426.933,328.01,426.933,321.475z"/>
		<path clip-path="url(#SVGID_4_)" fill="#C7F7FF" d="M433.611,292.858c-2.554,3.549-6.538,6.99-6.212,11.564
			c2.733-3.842,5.468-7.685,8.201-11.526C434.938,292.884,434.274,292.871,433.611,292.858z"/>
		<path clip-path="url(#SVGID_4_)" fill="#C7F7FF" d="M451.611,292.858c-2.554,3.549-6.538,6.99-6.212,11.564
			c2.733-3.842,5.468-7.685,8.201-11.526C452.938,292.884,452.274,292.871,451.611,292.858z"/>
		<path clip-path="url(#SVGID_4_)" fill="#C7F7FF" d="M450.611,309.858c-2.554,3.549-6.538,6.99-6.212,11.564
			c2.733-3.842,5.468-7.685,8.201-11.526C451.938,309.884,451.274,309.871,450.611,309.858z"/>
		<path clip-path="url(#SVGID_4_)" fill="#C7F7FF" d="M433.611,309.858c-2.554,3.549-6.538,6.99-6.212,11.564
			c2.733-3.842,5.468-7.685,8.201-11.526C434.938,309.884,434.274,309.871,433.611,309.858z"/>
		<line clip-path="url(#SVGID_4_)" fill="#82EAFF" x1="463" y1="309.211" x2="426" y2="309.211"/>
		<path clip-path="url(#SVGID_4_)" fill="#60420D" d="M427,309.211c7.439,0,31.894-3.541,36,1
			C455.561,310.211,431.106,313.752,427,309.211z"/>
		<line clip-path="url(#SVGID_4_)" fill="#82EAFF" x1="444" y1="291.211" x2="444" y2="326.211"/>
		<path clip-path="url(#SVGID_4_)" fill="#60420D" d="M444,292.211c2.793,2.718,2.793,31.282,0,34
			C444,314.878,444,303.544,444,292.211z"/>
		<path clip-path="url(#SVGID_4_)" fill="#229922" d="M438.36,325.162c0,6.771-10.473,6.771-10.473,0
			C427.888,318.391,438.36,318.391,438.36,325.162"/>
		<path clip-path="url(#SVGID_4_)" fill="#3C8C3C" d="M431.528,325.8c0,4.708-7.281,4.708-7.281,0
			C424.247,321.093,431.528,321.093,431.528,325.8"/>
		<path clip-path="url(#SVGID_4_)" fill="#229922" d="M448.021,324.5c0,6.771-10.474,6.771-10.474,0S448.021,317.729,448.021,324.5"
			/>
		<path clip-path="url(#SVGID_4_)" fill="#48B748" d="M440.563,324.984c0,4.707-7.281,4.707-7.281,0
			C433.282,320.276,440.563,320.276,440.563,324.984"/>
		<path clip-path="url(#SVGID_4_)" fill="#229922" d="M460.36,325.955c0,6.771-10.473,6.771-10.473,0
			C449.888,319.185,460.36,319.185,460.36,325.955"/>
		<path clip-path="url(#SVGID_4_)" fill="#158715" d="M454.517,325.445c0,4.708-7.281,4.709-7.281,0
			C447.235,320.738,454.517,320.738,454.517,325.445"/>
		<path clip-path="url(#SVGID_4_)" fill="#2F842F" d="M465.314,325.234c0,4.707-7.281,4.707-7.281,0
			C458.033,320.526,465.314,320.526,465.314,325.234"/>
		<path clip-path="url(#SVGID_4_)" fill="#35A035" d="M460.585,327.925c0,4.707-7.281,4.707-7.281,0
			C453.304,323.216,460.585,323.217,460.585,327.925"/>
		<path clip-path="url(#SVGID_4_)" fill="#66491B" d="M461.463,335.93c-8.952,0-17.904,0-26.857,0c-1.138,0-7.516,0.995-8.193-0.767
			c-1.039-0.854-4.285-8.547-1.222-8.547c9.793,0,19.586,0,29.379,0c1.173,0,8.328-0.917,9.181,0
			C466.253,326.616,463.326,335.93,461.463,335.93"/>
		<path clip-path="url(#SVGID_4_)" fill="#429B42" d="M445.261,327.925c0,4.707-7.28,4.707-7.28,0
			C437.98,323.217,445.261,323.217,445.261,327.925"/>
		<path clip-path="url(#SVGID_4_)" fill="#257F25" d="M446.425,332.266c0,4.707-7.281,4.707-7.281,0
			S446.425,327.559,446.425,332.266"/>
		<path clip-path="url(#SVGID_4_)" fill="#0C2328" d="M402.588,367.94c-18.586,0-18.585-28.828,0-28.828
			C421.174,339.112,421.174,367.94,402.588,367.94 M402.588,341.299c-15.769,0-15.769,24.456,0,24.456
			S418.356,341.299,402.588,341.299"/>
		<path clip-path="url(#SVGID_4_)" fill="#0C2328" d="M447.205,367.984c-18.586,0-18.586-28.828,0-28.828
			S465.791,367.984,447.205,367.984 M447.205,341.343c-15.769,0-15.769,24.457,0,24.457
			C462.973,365.8,462.973,341.343,447.205,341.343"/>
		<path clip-path="url(#SVGID_4_)" fill="#0C2328" d="M427.302,357.974c-1.103,0-2.472-7.588-1.399-7.801
			C427.135,349.932,428.515,357.974,427.302,357.974"/>
		<g opacity="0.3" clip-path="url(#SVGID_4_)">
			<g>
				<defs>
					<path id="SVGID_8_" d="M390.277,365.837c4.236,0,21.943,2.678,24.621,0c1.157-1.157,1.157-23.463,0-24.62
						s-23.464-1.157-24.621,0C387.6,343.895,390.277,361.601,390.277,365.837z"/>
				</defs>
				<clipPath id="SVGID_9_">
					<use xlink:href="#SVGID_8_"  overflow="visible"/>
				</clipPath>
				<path clip-path="url(#SVGID_9_)" fill="#CAF1FF" d="M414.898,353.526c0,15.878-24.62,15.878-24.62,0
					C390.278,337.649,414.898,337.649,414.898,353.526"/>
			</g>
		</g>
		<g opacity="0.3" clip-path="url(#SVGID_4_)">
			<g>
				<defs>
					<path id="SVGID_10_" d="M434.899,365.837c4.236,0,21.941,2.678,24.619,0c1.157-1.157,1.157-23.463,0-24.62
						s-23.462-1.157-24.619,0C432.222,343.895,434.899,361.601,434.899,365.837z"/>
				</defs>
				<clipPath id="SVGID_11_">
					<use xlink:href="#SVGID_10_"  overflow="visible"/>
				</clipPath>
				<path clip-path="url(#SVGID_11_)" fill="#CAF1FF" d="M459.52,353.526c0,15.878-24.62,15.878-24.62,0
					C434.899,337.649,459.52,337.649,459.52,353.526"/>
			</g>
		</g>
		<path clip-path="url(#SVGID_4_)" fill="#FF1F2A" d="M433.126,337.212c-1.74,0,0.143-6.666,1.721-6.151
			C436.201,331.503,434.386,337.212,433.126,337.212"/>
		<path clip-path="url(#SVGID_4_)" fill="#0C2328" d="M440.221,328.55c-1.17-0.035-12.296-0.276-12.183,0.577
			C428.576,333.171,441.693,333.457,440.221,328.55"/>
		<path clip-path="url(#SVGID_4_)" fill="#0C2328" d="M429.625,364.623c-1.11-0.615-1.712,0.581-2.517-0.737
			C427.108,361.565,431.724,364.623,429.625,364.623"/>
		<path clip-path="url(#SVGID_4_)" fill="#0C2328" d="M426.939,350.888c-1.109-0.615-1.711,0.581-2.516-0.737
			C424.424,347.83,429.038,350.888,426.939,350.888"/>
		<path clip-path="url(#SVGID_4_)" fill="#FF1F2A" d="M447.266,351.763c-14.98-20.56-9.621-17.552-34.248-17.552
			c-0.245,0.932,1.75-6,1.78-6c-0.608,0-1.217,0-1.825,0c-0.872,2.776-1.899,5.918-2.869,8.871
			c-1.108,3.415-1.984,7.574-3.651,10.808c-0.741,1.226-5.454,3.938-5.454,5.265c0,4.01,5.199-2.425,5.187-2.411
			c3.034-3.045,3.784-7.666,5.079-11.639c2.492,3.016,13.636,20.221,16.029,20.221c2.382,0,8.902-3.205,12.109-3.812
			C439.978,355.404,451.999,351.955,447.266,351.763 M426.873,355.175c-2.557,0.377-12.707-14.821-14.688-17.178
			c-1.497-1.78,17.651-1.786,20.312-1.786C430.622,342.532,428.747,348.854,426.873,355.175z M429.293,355.664
			c-2.257-2.774,3.562-15.281,4.694-19.185c3.905,5.359,7.812,10.719,11.717,16.078
			C440.233,353.593,434.764,354.629,429.293,355.664z"/>
		<path clip-path="url(#SVGID_4_)" fill="#0C2328" d="M414.719,327.737c-2.227-5.944,5.369-1.327,5.369-4.526
			c0-2.679-5.963-0.618-6.946,0.504C410.005,327.297,414.755,327.814,414.719,327.737"/>
		<path clip-path="url(#SVGID_4_)" fill="#0C2328" d="M428.587,364.566c-1.101,0-2.471-7.588-1.398-7.801
			C428.418,356.524,429.803,364.566,428.587,364.566"/>
	</g>
</g>
<g id="XMLID_14_">
	<g id="XMLID_1067_">
		<g id="XMLID_1043_">
			<g id="XMLID_1052_">
				<g id="XMLID_1055_">
					<g id="XMLID_1062_">
						<path id="XMLID_1066_" fill="#FFB888" d="M320.505,353.816c-1.588-5.669-3.963-11.23-7.149-16.184
							c-1.884,1.99-3.329,1.733-1.73,4.359c1.261,2.072,2.392,4.223,3.397,6.43c1.137,2.491,2.233,5.097,2.898,7.762
							c0.338,1.353-1.45,4.004-1.658,5.511c-0.091,0.657,1.763,1.433,2.182,1.757c-0.392,1.434-0.334,2.201,0.953,2.625
							c1.657,0.545,3.676,1.717,5.144,0.429c0.846-0.742,1.154-2.001,1.965-2.59c0.695-0.504,1.909-1.107,2.362-1.857
							c0.417-0.687-1.014-2.938-1.329-3.452C325.978,356.065,323.472,354.283,320.505,353.816
							C320.433,353.56,327.293,354.885,320.505,353.816z"/>
						<path id="XMLID_1063_" fill="#38120D" d="M323.475,367.385c-1.655,0-5.333-0.828-5.361-2.739
							c-0.027-1.869-0.616-1.118-1.843-2.539c-0.714-0.827,0.77-3.801,1.063-4.627c0.855-2.414-0.92-5.404-1.887-7.665
							c-0.889-2.077-1.892-4.106-3.004-6.073c-1.781-3.148-2.649-2.821-0.164-5.269c2.533-2.494,5.122,6.207,6.019,8.401
							c0.642,1.57,1.226,3.163,1.748,4.776c0.757,2.345,1.072,1.773,3.328,2.859c1.467,0.707,7.025,5.372,5.652,7.644
							c-0.511,0.835-1.988,1.605-2.713,2.128C326.151,365.233,324.583,367.385,323.475,367.385z M318.604,365.592
							c2.18,1.216,6.929,2.543,7.355-1.432c0.077-0.704,2.189-1.532,2.739-2.179c0.032-0.999-0.697-2.25-1.172-3.068
							c-0.851-1.467-2.032-2.746-3.486-3.632c-1.109-0.675-3.483-0.634-3.845-1.893c-1.556-5.409-3.847-10.713-6.869-15.463
							c-1.827,1.908-3.01,1.556-1.484,4.075c1.24,2.048,2.354,4.172,3.349,6.35c1.089,2.385,2.089,4.848,2.798,7.376
							c0.453,1.617-0.994,3.832-1.415,5.429c-0.277,1.051,0.773,1.385,1.618,1.916C319.046,363.609,318.362,364.672,318.604,365.592
							C319.106,365.871,318.429,364.922,318.604,365.592z"/>
					</g>
					<g id="XMLID_1060_">
						<path id="XMLID_1061_" fill="#38120D" d="M320.19,363.952c-0.288,0-1.472-3.828-1.292-3.93
							C319.235,359.832,320.509,363.952,320.19,363.952z"/>
					</g>
					<g id="XMLID_1058_">
						<path id="XMLID_1059_" fill="#38120D" d="M318.444,363.634c-0.747,0,1.138-2.516,1.353-1.705
							C319.806,361.961,318.487,363.634,318.444,363.634z"/>
					</g>
					<g id="XMLID_1056_">
						<path id="XMLID_1057_" fill="#38120D" d="M326.142,364.361c-0.504,0,0.025-1.611-0.034-1.609
							C326.15,362.752,326.729,364.361,326.142,364.361z"/>
					</g>
				</g>
			</g>
			<g id="XMLID_1044_">
				<g id="XMLID_1047_">
					<path id="XMLID_1051_" fill="#A2CCE4" d="M306.644,326.902c-1.37,0.647-2.802,1.164-4.27,1.539
						c2.828,3.828,3.974,9.369,5.352,13.793c2.79-1.426,8.042-5.529,8.961-8.746C317.145,331.882,307.853,327.427,306.644,326.902
						C305.288,327.543,310.568,328.604,306.644,326.902z"/>
					<path id="XMLID_1048_" fill="#071222" d="M307.725,342.416c-0.583,0-3.918-10.87-4.816-12.633
						c-0.827-1.623-1.124-1.291,0.861-1.936c3.086-1.003,3.177-1.156,6.088,0.493c1.448,0.821,8.053,3.838,6.54,5.956
						C314.918,336.368,310.521,342.416,307.725,342.416z M302.662,328.555c2.452,4.122,3.754,8.877,5.172,13.418
						c1.135-0.612,9.712-7.505,8.508-8.769c-1.378-1.447-3.324-2.532-5.007-3.569c-1.16-0.715-2.345-1.396-3.565-2.004
						C306.033,326.766,304.473,328.07,302.662,328.555C303.217,329.489,304.025,328.19,302.662,328.555z"/>
				</g>
			</g>
		</g>
		<g id="XMLID_1015_">
			<g id="XMLID_1024_">
				<g id="XMLID_1027_">
					<g id="XMLID_1037_">
						<g id="XMLID_1038_">
							<path id="XMLID_1042_" fill="#FFB888" d="M278.977,337.268c-1.09,1.4-2.15,3.154-3.546,4.286
								c-1.869-2.27-3.575-4.711-5.228-7.142c-1.014-1.49-0.071-1.637,0.474-3.345c0.639-2.002,0.655-4.171,0.452-6.243
								c-0.374-3.817,0.173-4.463,1.732-8.154c0.854-2.023-2.822-0.785-3.41-0.238c-1.503,1.399-1.833,3.79-2.134,5.7
								c-1.186-1.327-5.886-11.503-7.017-11.212c-5.831,1.5,3.985,9.945,2.843,11.355c-1.411,1.744-8.768-7.207-10.07-6.174
								c-4.47,3.546,7.55,6.843,7.227,8.738c-0.121,0.714-8.672-0.919-9.749-0.75c-2.398,0.374,0.945,2.774,1.756,2.973
								c1.123,0.275,5.492,0.287,6.11,1.292c0.078,0.126-6.812,2.7-6.945,3.497c-0.209,1.253,3.009,0.469,3.424,0.368
								c1.842-0.447,3.56-1.566,4.595-0.014c1.675,2.514,5.667,1.97,6.956,3.869c1.792,2.641,3.789,5.132,5.891,7.531
								c1.307,1.492,2.881,4.07,4.983,2.132c1.785-1.647,3.453-3.421,5.056-5.243C281.163,339.513,280.038,338.415,278.977,337.268
								C277.224,339.519,279.989,338.361,278.977,337.268z"/>
							<path id="XMLID_1039_" fill="#38120D" d="M275.749,346.713c-2.521,0-5.877-5.696-7.213-7.436
								c-1.615-2.103-1.869-3.161-4.286-3.854c-1.48-0.425-2.966-1.135-4.104-2.188c-0.56-0.493-0.97-1.089-1.232-1.786
								c-1.382,0.287-2.749,0.651-4.121,0.983c-0.854,0.207-5.23-0.067-2.848-1.288c2.002-1.024,4.159-1.729,6.148-2.771
								c-0.927-0.309-10.782-1.647-8.314-4.134c1.604-1.615,8.036,0.745,10.264,0.507c-1.561-1.688-9.4-4.577-7.713-8.031
								c1.233-2.525,8.325,5.328,10.647,5.425c-0.441-2.101-8.037-10.026-2.722-11.396c1.352-0.343,5.988,9.557,6.952,10.938
								c0.277-1.646,2.416-8.937,5.711-6.026c0.769,0.68-0.87,2.965-1.153,3.494c-0.974,1.817-0.902,2.4-0.619,4.315
								c0.237,1.604,0.354,3.238,0.229,4.859c-0.083,1.068-1.748,4.884-1.419,5.389c1.695,2.604,3.543,5.165,5.498,7.58
								c3.494-3.256,2.067-5.384,5.941-1.881c1.979,1.79,0.472,1.996-1.318,3.866C279.095,344.302,277.36,346.713,275.749,346.713z
								 M266.054,335.353c0.956,0,4.715,6.143,5.329,6.866c0.833,0.982,3.294,4.824,5.021,3.964c2.183-1.087,4.15-3.894,5.714-5.665
								c-1.111-0.913-2.146-1.919-3.129-2.969c-0.944,1.227-1.872,2.49-2.918,3.633c-1.288,1.408-3.6-3.242-4.347-4.284
								c-0.731-1.022-1.919-2.26-2.347-3.485c-0.177-0.506,1.558-4.117,1.635-5.1c0.364-4.648-1.074-6.818,1.373-11.119
								c1.255-2.208-1.852-1.53-2.821-0.613c-0.896,0.848-1.821,5.617-2.195,5.728c-0.867,0.252-4.558-7.159-4.974-7.926
								c-0.148-0.273-1.43-3.445-2.049-3.285c-2.469,0.635-1.22,3.865-0.404,5.272c0.499,0.86,5.686,7.582,1.75,5.661
								c-1.245-0.607-9.336-7.514-9.177-4.432c0.275,5.296,15.946,8.802,1.225,6.974c-0.677-0.084-4.925-0.989-3.568,0.924
								c1.49,2.102,5.302,1.872,7.533,2.404c3.19,0.761-6.385,3.137-6.044,4.058c0.645,1.756,7.308-1.656,7.555-0.766
								C259.904,333.682,263.667,335.353,266.054,335.353z"/>
						</g>
					</g>
					<g id="XMLID_1030_">
						<g id="XMLID_1035_">
							<path id="XMLID_1036_" fill="#38120D" d="M260.679,329.295c-1.535,0,3.779-7.016,4.429-5.648
								C264.806,323.001,259.804,329.295,260.679,329.295z"/>
						</g>
						<g id="XMLID_1033_">
							<path id="XMLID_1034_" fill="#38120D" d="M267.456,323.819c-0.093-0.067-0.685-1.869-0.139-1.869
								C267.728,321.95,267.457,323.854,267.456,323.819C267.283,323.693,267.448,323.091,267.456,323.819z"/>
						</g>
						<g id="XMLID_1031_">
							<path id="XMLID_1032_" fill="#38120D" d="M268.347,334.478c-0.083-0.086,0.97-1.442,1.257-1.286
								C270.118,333.475,268.403,334.536,268.347,334.478C268.278,334.406,268.383,334.515,268.347,334.478z"/>
						</g>
					</g>
					<g id="XMLID_1028_">
						<path id="XMLID_1029_" fill="#38120D" d="M275.556,341.993c-0.265-0.159-0.374-0.377-0.325-0.651
							c0.305-0.312,1.131,1.186,1.077,1.231C276.03,342.416,275.78,342.223,275.556,341.993
							C275.371,341.776,275.699,342.161,275.556,341.993z"/>
					</g>
				</g>
				<g id="XMLID_1025_">
					<path id="XMLID_1_" fill="#EA965D" d="M280.289,342.523c0.621-0.659,1.23-1.328,1.829-2.006
						c-1.111-0.913-2.146-1.92-3.128-2.97c-0.397,0.511-0.795,1.021-1.194,1.532"/>
				</g>
			</g>
			<g id="XMLID_1016_">
				<g id="XMLID_1019_">
					<path id="XMLID_1023_" fill="#A2CCE4" d="M284.942,342.206c1.345-4.318,2.452-10.105,5.329-13.789
						c-3.791-0.984-4.006-1.891-7.519,0.117c-2.188,1.25-4.543,2.601-6.382,4.348C274.817,334.357,283.211,341.923,284.942,342.206
						C285.932,339.03,284.935,342.204,284.942,342.206z"/>
					<path id="XMLID_1020_" fill="#071222" d="M284.942,342.388c-1.708,0-5.459-4.251-6.878-5.869
						c-3.28-3.74-1.565-4.326,2.423-6.835c1.738-1.093,3.533-2.148,5.418-2.97c0.337-0.226,4.528,1.789,4.508,1.814
						C288.928,330.433,285.772,342.388,284.942,342.388z M286.013,327.064c-1.988,0.869-9.356,3.966-9.877,6.376
						c0.936,3.129,5.998,7.064,8.696,8.511c1.406-4.497,2.654-9.366,5.146-13.424C288.616,328.157,287.288,327.667,286.013,327.064
						C282.036,328.804,287.29,327.668,286.013,327.064z"/>
				</g>
			</g>
		</g>
		<g id="XMLID_990_">
			<g id="XMLID_1008_">
				<g id="XMLID_1013_">
					<path id="XMLID_1014_" fill="#5B79A3" d="M310.094,361.552c-1.63,0.51-13.265,2.158-13.764,0.993
						c-0.746,1.304-12.019-0.443-13.775-0.996c-1.227,3.066,2.249,10.642,3.074,13.596c0.368,1.319,3.047,14.053,4.393,14.201
						c1.994,0.222,3.511-20.334,5.865-20.334c4.052,0,4.318,20.605,6.741,20.334c1.261-0.14,3.766-11.977,4.11-13.195
						C307.781,372.444,311.072,365.466,310.094,361.552C307.744,362.287,310.094,361.555,310.094,361.552z"/>
				</g>
				<g id="XMLID_1009_">
					<path id="XMLID_1010_" fill="#071222" d="M290.022,389.527c-1.485-0.146-3.788-11.55-4.152-12.853
						c-0.914-3.261-1.799-6.532-2.582-9.828c-0.328-1.38-1.357-3.9-0.911-5.343c0.024-0.073,15.357,0.898,18.148,0.83
						c0.864-0.021,9.765-0.717,9.768-0.652c0.104,1.953-0.689,4.158-1.145,6.026c-1.49,6.112-3.198,12.188-5.091,18.187
						c-0.934,2.957-1.271,5.113-2.407,1.115c-1.26-4.431-2.351-8.913-3.464-13.382c-0.87-3.49-2.031-6.833-3.337-1.566
						C294.534,373.336,291.513,389.527,290.022,389.527C289.903,389.516,290.238,389.527,290.022,389.527z M282.702,361.782
						c-0.195,4.312,2.041,9.491,3.173,13.577c1.246,4.498,2.281,9.316,4.142,13.613c1.061-2.813,3.994-20.142,5.869-20.142
						c2.994,0,3.349,7.509,4.013,10.113c0.847,3.32,1.52,6.814,2.731,10.028c1.862-4.298,2.897-9.118,4.145-13.618
						c1.13-4.08,3.372-9.263,3.173-13.569C302.707,363.832,289.941,363.835,282.702,361.782
						C282.582,364.44,284.881,362.4,282.702,361.782z"/>
				</g>
			</g>
			<g id="XMLID_994_">
				<g id="XMLID_1002_">
					<g id="XMLID_1003_">
						<path id="XMLID_1004_" fill="#071222" d="M295.415,369.193c-0.433,0-1.284-6.802-1.046-6.821
							C294.695,362.345,295.741,369.193,295.415,369.193z"/>
					</g>
				</g>
				<g id="XMLID_999_">
					<g id="XMLID_1000_">
						<path id="XMLID_1001_" fill="#071222" d="M297.232,369.193c-0.12,0,0.997-6.913,1.45-6.812
							C298.939,362.441,297.77,369.193,297.232,369.193z"/>
					</g>
				</g>
				<g id="XMLID_995_">
					<g id="XMLID_996_">
						<g id="XMLID_997_">
							<path id="XMLID_998_" fill="#071222" d="M297.659,363.036c-0.25,0.194-4.035,2.112-3.867,2.16
								c0.249,0.071,4.541,0.426,4.336,0.695c-0.424,0.561-3.528,2.655-3.753,2.644c1.171,0.06,4.028-1.927,4.591-2.933
								c-0.002,0.004-3.923-1.201-4.478-0.656c1.033-1.012,2.61-0.949,3.728-1.821C298.14,362.855,297.954,362.825,297.659,363.036z
								"/>
						</g>
					</g>
				</g>
			</g>
		</g>
		<g id="XMLID_979_">
			<g id="XMLID_984_">
				<g id="XMLID_985_">
					<path id="XMLID_989_" fill="#FDFFE9" d="M302.373,328.441c-2.467,0.631-5.031,0.869-7.572,0.704
						c-3.215-0.208-4.243-1.574-5.728,1.532c-2.273,4.759-3.715,9.982-5.19,15.033c-1.256,4.303-3.001,9.198-2.818,13.747
						c0.147,3.657,7.46,2.939,9.887,3.023c5.087,0.176,10.25,0.214,15.328-0.281c4.137-0.403,5.729-0.892,5.156-5.208
						c-0.705-5.305-2.373-10.53-3.978-15.617C306.141,337.21,305.033,332.033,302.373,328.441
						C300.456,328.932,302.766,328.973,302.373,328.441z"/>
					<path id="XMLID_986_" fill="#38120D" d="M296.896,362.741c-4.548,0-9.398,0.224-13.844-0.872
						c-3.838-0.945-1.814-6.507-1.191-9.224c1.179-5.144,2.769-10.197,4.433-15.202c1.018-3.06,2.088-9.493,5.717-8.827
						c1.206,0.221,10.382-0.451,10.507-0.283c1.122,1.516,1.942,3.568,2.563,5.347c1.458,4.172,2.824,8.38,4.05,12.627
						c1.199,4.151,3.045,9.134,2.613,13.53C311.345,363.904,299.678,362.741,296.896,362.741z M296.379,362.376
						c4.217,0.018,8.665,0.107,12.814-0.775c3.143-0.668,2.287-3.561,1.821-6.146c-1.039-5.771-2.847-11.43-4.683-16.987
						c-0.921-2.787-1.842-5.51-3.148-8.14c-1.378-2.775-4.815-0.862-7.725-0.97c-2.697-0.101-4.712-1.706-6.014,0.967
						c-1.282,2.633-2.199,5.367-3.118,8.146c-1.836,5.557-3.643,11.215-4.682,16.984c-0.465,2.586-1.321,5.478,1.821,6.146
						C287.68,362.497,292.279,361.455,296.379,362.376z"/>
				</g>
			</g>
		</g>
		<g id="XMLID_945_">
			<g id="XMLID_964_">
				<g id="XMLID_968_">
					<g id="XMLID_972_">
						<g id="XMLID_977_">
							<path id="XMLID_978_" fill="#A2CCE4" d="M302.628,389.315c1.186-1,3.51-0.618,4.928-0.966
								c-0.352,0.773-0.512,1.587-0.482,2.44C305.707,390.595,303.679,390.344,302.628,389.315
								C303.552,388.536,303.319,389.992,302.628,389.315z"/>
						</g>
						<g id="XMLID_973_">
							<path id="XMLID_974_" fill="#071222" d="M307.046,390.969c-2.282-0.344-7.418-1.996-1.896-2.465
								c0.197-0.017,2.833-0.602,2.568-0.071C307.521,388.82,307.377,391.02,307.046,390.969
								C305.727,390.77,307.055,390.97,307.046,390.969z M305.182,388.866c-0.786-0.002-1.54,0.152-2.259,0.462
								c1.065,0.803,2.71,1.049,3.971,1.249c0.004-0.678,0.12-1.335,0.35-1.971C306.561,388.733,305.874,388.819,305.182,388.866
								C304.257,388.943,305.814,388.812,305.182,388.866z"/>
						</g>
					</g>
					<g id="XMLID_969_">
						<g id="XMLID_970_">
							<path id="XMLID_971_" fill="#618EA2" d="M302.923,389.328c1.243-0.749,2.73,1.145,4.062,0.258
								C306.688,391.375,304.132,390.24,302.923,389.328C303.104,389.219,303.588,389.829,302.923,389.328z"/>
						</g>
					</g>
				</g>
				<g id="XMLID_965_">
					<g id="XMLID_966_">
						<path id="XMLID_967_" fill="#38120D" d="M305.806,389.45c-0.292,0.142-0.596,0.241-0.914,0.302
							c0.209,0.499,1.339-1.308,0.718-1.052c-0.625,0.255,1.46,0.74,1.25,0.24c-0.209-0.499-1.339,1.305-0.718,1.05
							C306.03,389.811,305.917,389.631,305.806,389.45C305.307,389.651,305.944,389.773,305.806,389.45z"/>
					</g>
				</g>
			</g>
			<g id="XMLID_953_">
				<g id="XMLID_957_">
					<g id="XMLID_962_">
						<path id="XMLID_963_" fill="#FDFFE9" d="M307.073,390.789c0-6.97,7.959-2.946,6.211-0.053
							C312.561,391.198,309.693,391.185,307.073,390.789z"/>
					</g>
					<g id="XMLID_958_">
						<path id="XMLID_959_" fill="#38120D" d="M307.046,390.969c-0.293-0.042,0.741-5.262,4.202-3.958
							c1.393,0.524,3.184,2.179,2.191,3.818C312.706,392.009,308.038,391.118,307.046,390.969
							C306.957,390.956,308.315,391.16,307.046,390.969z M313.089,388.935c-1.385-2.457-5.076-2.459-5.701,0.47
							C306.826,392.039,314.622,391.645,313.089,388.935C312.501,387.892,313.321,389.344,313.089,388.935z"/>
					</g>
				</g>
				<g id="XMLID_954_">
					<g id="XMLID_955_">
						<path id="XMLID_956_" fill="#EFD7A7" d="M310.81,390.903c-1.19-0.008-2.375-0.098-3.553-0.271
							c-0.011-0.801,0.158-1.56,0.507-2.276c-0.742,2.38,4.612,2.104,5.584,1.431C313.406,391.153,311.714,390.903,310.81,390.903z"
							/>
					</g>
				</g>
			</g>
			<g id="XMLID_946_">
				<g id="XMLID_951_">
					<path id="XMLID_952_" fill="#EFD7A7" d="M313.284,390.736c0.227,3.188-9.99,0.839-10.656-1.421
						C304.366,391.017,311.17,392.087,313.284,390.736C313.291,390.827,312.025,391.541,313.284,390.736z"/>
				</g>
				<g id="XMLID_947_">
					<path id="XMLID_948_" fill="#38120D" d="M302.454,389.367c0.686,2.379,10.112,0.329,11.016,1.417
						C313.72,394.217,303.159,391.761,302.454,389.367C302.431,389.288,302.818,390.604,302.454,389.367z M310.807,391.267
						c-2.214,0-4.567-0.24-6.673-0.955c1.036,0.525,8.983,3.456,8.983,0.702C312.36,391.21,311.59,391.295,310.807,391.267z"/>
				</g>
			</g>
		</g>
		<g id="XMLID_911_">
			<g id="XMLID_930_">
				<g id="XMLID_934_">
					<g id="XMLID_938_">
						<g id="XMLID_943_">
							<path id="XMLID_944_" fill="#A2CCE4" d="M290.027,389.315c-1.185-1-3.51-0.618-4.927-0.966
								c0.351,0.773,0.512,1.587,0.482,2.44C286.948,390.595,288.977,390.344,290.027,389.315
								C289.104,388.536,289.336,389.992,290.027,389.315z"/>
						</g>
						<g id="XMLID_939_">
							<path id="XMLID_940_" fill="#071222" d="M285.582,390.972c-0.291,0-0.448-2.152-0.645-2.54
								c-0.27-0.525,2.374,0.055,2.568,0.071C292.961,388.967,287.953,390.972,285.582,390.972z M285.412,388.606
								c0.229,0.636,0.346,1.293,0.349,1.971c1.261-0.2,2.906-0.446,3.972-1.249C288.54,388.608,286.746,388.877,285.412,388.606
								C285.626,389.156,286.136,388.753,285.412,388.606z"/>
						</g>
					</g>
					<g id="XMLID_935_">
						<g id="XMLID_936_">
							<path id="XMLID_937_" fill="#618EA2" d="M289.733,389.328c-1.246-0.746-2.731,1.145-4.063,0.258
								C285.966,391.375,288.523,390.239,289.733,389.328C289.551,389.219,289.067,389.829,289.733,389.328z"/>
						</g>
					</g>
				</g>
				<g id="XMLID_931_">
					<g id="XMLID_932_">
						<path id="XMLID_933_" fill="#38120D" d="M286.85,389.45c0.292,0.141,0.597,0.241,0.913,0.302
							c-0.209,0.499-1.338-1.308-0.718-1.052c0.625,0.257-1.459,0.738-1.25,0.24c0.204-0.499,1.343,1.306,0.718,1.05
							C286.625,389.811,286.737,389.631,286.85,389.45C287.349,389.651,286.711,389.773,286.85,389.45z"/>
					</g>
				</g>
			</g>
			<g id="XMLID_923_">
				<g id="XMLID_928_">
					<path id="XMLID_929_" fill="#EFD7A7" d="M279.371,390.736c-0.221,3.189,9.99,0.839,10.656-1.421
						C288.29,391.017,281.484,392.087,279.371,390.736C279.365,390.827,280.63,391.541,279.371,390.736z"/>
				</g>
				<g id="XMLID_924_">
					<path id="XMLID_925_" fill="#38120D" d="M281.617,392.446c-2.268,0-1.998-1.767-2.147-1.863
						c1.331,0.85,4.142,0.291,5.585,0.104c0.527-0.068,4.926-1.611,5.066-1.526C290.951,389.653,282.66,392.446,281.617,392.446z
						 M279.538,391.014c0,2.753,7.948-0.177,8.983-0.702C286.068,391.145,282.071,391.924,279.538,391.014
						C279.538,391.014,280.111,391.22,279.538,391.014z"/>
				</g>
			</g>
			<g id="XMLID_912_">
				<g id="XMLID_916_">
					<g id="XMLID_921_">
						<path id="XMLID_922_" fill="#FDFFE9" d="M285.582,390.789c0-6.97-7.959-2.946-6.21-0.053
							C280.094,391.198,282.961,391.185,285.582,390.789z"/>
					</g>
					<g id="XMLID_917_">
						<path id="XMLID_918_" fill="#38120D" d="M281.846,391.267c-5.198,0.343-2.049-4.995,1.392-4.491
							c0.947,0.14,1.698,0.745,2.094,1.615C286.801,391.62,284.437,391.267,281.846,391.267z M279.504,390.604
							c1.976,1.096,7.04,0.977,5.425-2.182C283.515,385.656,278.042,388.041,279.504,390.604
							C279.848,390.794,279.139,389.964,279.504,390.604z"/>
					</g>
				</g>
				<g id="XMLID_913_">
					<g id="XMLID_914_">
						<path id="XMLID_915_" fill="#EFD7A7" d="M281.845,390.903c1.191-0.008,2.375-0.098,3.553-0.271
							c0.011-0.801-0.158-1.56-0.507-2.276c0.742,2.38-4.612,2.104-5.584,1.431C279.247,391.153,280.943,390.903,281.845,390.903z"
							/>
					</g>
				</g>
			</g>
		</g>
		<g id="XMLID_792_">
			<g id="XMLID_864_">
				<g id="XMLID_887_">
					<g id="XMLID_896_">
						<g id="XMLID_906_">
							<path id="XMLID_910_" fill="#FFB888" d="M322.124,303.692c-1.08,0.112-2.342,0.659-2.28,1.859
								c0.159,3.097-0.164,2.69-2.835,3.432c0.858-5.214-1.152-11.352-2.531-16.352c-1.188,0.401-3.947,2.071-4.745,0.943
								c-0.629-0.888-2.595-4.775-3.666-4.413c-2.718,0.923-5.436,1.845-8.154,2.767c-2.177,0.738-3.052-0.163-5.181-1.188
								c-2.655-1.277-3.026-2.124-5.38-0.471c-1.97,1.384-3.318,3.021-5.728,2.747c-3.23-0.369-3.309-0.89-4.15,2.259
								c-1.179,4.417-2.096,9.116-1.757,13.707c-1.4,0-2.78-0.208-2.866-1.611c-0.056-0.803-0.058-1.604-0.005-2.406
								c1.34,1.438-2.83-2.798-2.323-1.276c-3.244-0.013-2.512,5.069-1.45,6.746c1.062,1.674,2.834,2.722,4.71,3.246
								c0.516,0,2.84,5.134,3.445,5.955c2.979,4.041,7.266,7.04,12.062,8.507c9.526,2.913,20.281-0.453,26.217-8.506
								c1.338-1.815,2.406-3.829,3.148-5.96c1.817,0.034,3.993-1.787,4.914-3.241C324.635,308.762,325.367,303.682,322.124,303.692z
								"/>
							<path id="XMLID_907_" fill="#38120D" d="M296.37,329.379c-5.123,0-10.2-1.634-14.329-4.672
								c-1.83-1.347-3.464-2.958-4.828-4.774c-0.762-1.014-2.665-5.836-3.479-6.075c-3.535-0.988-8.16-5.77-4.876-9.545
								c1.253-1.44,3.012-0.66,4.121,0.529c1.792,1.927-1.638,3.292,2.542,3.939c-0.333-5.24,0.85-10.663,2.38-15.652
								c0.596-1.946,4.096,0.68,5.375-0.218c0.938-0.658,5.106-4.464,6.084-3.993c1.621,0.78,5.71,3.784,7.408,3.208
								c3.082-1.046,6.162-2.091,9.244-3.136c1.873-0.636,2.977,5.301,4.401,4.82c2.79-0.939,3.95-2.439,4.732,0.619
								c1.146,4.478,2.67,9.651,2.083,14.31c2.524-0.636,2.801-0.961,2.395-3.728c-0.485-1.887,3.466-1.496,4.164-0.696
								c3.287,3.771-1.346,8.556-4.876,9.543c-0.456,0.14-1.54,3.213-1.873,3.788c-1.368,2.366-3.164,4.478-5.267,6.222
								C307.469,327.434,301.952,329.379,296.37,329.379z M274.253,313.617c3.584,10.305,14.37,16.539,25.085,15.215
								c5.225-0.646,10.185-3.042,13.889-6.791c0.721-0.729,6.619-10.438,5.868-10.527c-0.218,0.602-0.15,1.352-0.256,1.986
								c3.366-0.95,7.016-4.629,5.05-8.391c-1.044-1.998-3.901-1.293-3.842,0.852c0.065,2.357,0.234,2.461-1.921,2.941
								c-2.319,0.516-1.34-4.507-1.662-6.511c-0.516-3.209-1.25-6.393-2.109-9.526c-4.052,1.365-3.981,1.929-6.45-1.559
								c-2.224-3.144-3.896-1.254-7.434-0.054c-3.375,1.145-3.77,1.599-6.892,0.097c-4.141-1.991-4.029-2.4-7.753,0.215
								c-2.899,2.035-3.633,1.7-7.244,1.288c-1.508-0.173-2.752,13.233-2.743,14.571c0.016,2.393-0.273,1.801-2.469,1.24
								c-2.116-0.54,0.879-4.773-2.844-4.79c-4.834,0-0.999,9.702,3.396,9.623c-0.045,0.001-0.199-1.469-0.244-1.468
								C273.549,312.199,274.162,313.352,274.253,313.617C277.457,322.827,274.228,313.544,274.253,313.617z"/>
						</g>
						<g id="XMLID_899_">
							<g id="XMLID_903_">
								<g id="XMLID_904_">
									<path id="XMLID_905_" fill="#38120D" d="M270.3,307.294c0.874-0.021,1.999,0.336,0.761,1.219
										c-1.55,1.105,0.893,1.122,1.206,1.368C270.157,308.232,273.344,307.212,270.3,307.294z"/>
								</g>
							</g>
							<g id="XMLID_900_">
								<g id="XMLID_901_">
									<path id="XMLID_902_" fill="#38120D" d="M322.403,307.072c-3.147-0.081-0.225,1.518-1.979,2.888
										c2.538-1.981,1.019,0.024,0.591-2.32C320.939,307.223,322.298,307.069,322.403,307.072z"/>
								</g>
							</g>
						</g>
					</g>
					<g id="XMLID_888_">
						<g id="XMLID_891_">
							<path id="XMLID_895_" fill="#612E0F" d="M317.01,308.983c2.67-0.74,2.994-0.335,2.834-3.432
								c-0.098-1.894,2.387-1.115,2.459-3.375c0.104-3.231-0.893-8.756,3.626-9.366c-0.405-1.888-5.316-3.926-6.881-4.833
								c2.823-2.154,1.673-2.392-0.986-4.047c-2.203-1.37-4.465-2.647-6.739-3.893c0.814-0.208,8.354-3.051,7.118-3.727
								c-2.055-1.123-5.873-0.527-8.098-0.524c-1.761,0.003-20.17,1.138-20.4-0.469c-0.074-0.52,0.41-4.881-0.867-4.064
								c-1.449,0.925-2.675,2.345-3.853,3.574c-2.231,2.33-6.229,5.724-7.024,9.001c-0.277,1.143-8.607-0.119-9.719-0.099
								c-2.612,0.049-0.033,2.173,0.636,3.175c0.661,0.994-2.4,3.643-2.4,4.852c0.701,0.87,3.264-3.863,3.662-0.679
								c0.312,2.488,0.043,5.083-0.04,7.579c-0.076,2.32-0.692,4.288,1.295,5.339c2.967,1.57-0.556,4.988,4.084,4.988
								c-0.313-4.238,0.465-8.562,1.487-12.661c0.788-3.159,0.336-3.771,3.513-3.408c2.892,0.33,3.407-0.377,5.852-2.094
								c2.613-1.834,2.414-1.882,5.274-0.507c1.656,0.797,3.6,2.454,5.419,1.837c2.768-0.939,5.535-1.878,8.303-2.817
								c1.809-0.613,2.783,2.286,3.764,3.673c1.319,1.864,3.148,0.301,5.149-0.373C315.858,297.632,317.868,303.771,317.01,308.983
								C317.82,308.759,317.777,304.319,317.01,308.983z"/>
							<path id="XMLID_892_" fill="#38120D" d="M317.01,309.166c0.733,0-2.209-14.673-2.655-16.3
								c-2.368,0.797-3.777,2.217-5.309,0.053c-2.398-3.389-1.962-3.909-5.792-2.61c-1.313,0.445-5.856,2.879-7.149,2.256
								c-1.023-0.491-6.305-3.79-7.083-3.244c-1.275,0.896-4.524,4.208-6.062,4.032c-1.459-0.166-2.919-0.333-4.379-0.5
								c-0.555-0.062-1.2,3.52-1.317,4.007c-0.449,1.867-1.338,12.379-2.145,12.218c-2.272-0.456-2.458-0.404-2.492-2.805
								c-0.035-2.51-2.329-1.452-2.485-3.596c-0.114-1.571,1.257-11.914-0.238-12.529c-0.416-0.172-3.37,2.561-3.37,1.608
								c0-1.909,3.468-3.716,1.854-5.404c-4.667-4.881,7.559-1.594,9.554-2.51c0.486-0.223,1.445-2.443,1.821-2.942
								c1.288-1.713,2.7-3.334,4.15-4.911c0.568-0.617,5.803-6.891,6.171-4.146c0.284,2.113-0.913,3.538,1.492,3.744
								c2.869,0.246,5.775,0.161,8.65,0.13c5.653-0.062,12.206-1.042,17.758,0.252c3.065,0.714-5.287,3.896-6.171,4.13
								c2.245,1.23,4.482,2.487,6.644,3.86c2.551,1.62,3.556,1.923,0.916,3.996c2.144,1.243,4.86,2.521,6.499,4.426
								c0.123,0.142-3.04,2.731-3.279,4.351c-0.267,1.81-0.049,3.641-0.108,5.458c-0.083,2.536-0.956,1.229-2.498,2.844
								C320.388,307.815,320.113,309.166,317.01,309.166z M273.102,308.221c0.799,0.217,1.606,0.403,2.419,0.561
								c-0.252-3.973,0.438-8.006,1.355-11.858c0.294-1.238,0.622-2.469,0.992-3.686c0.238-0.783-1.204-1.026-1.196-1.045
								c0.063-0.192,6.046,0.928,6.467,0.814c1.894-0.507,4.145-2.91,5.769-4.051c-0.212-0.257-0.425-0.515-0.638-0.772
								c0.978-0.676,6.708,4.549,8.488,3.945c1.812-0.614,10.188-2.277,9.11-4.354c0.3-0.097,3.631,5.155,3.865,5.485
								c1.21,1.71,3.22-1.414,4.687-0.801c0.925-0.3,3.003,14.737,2.809,16.279c4.858-1.225,0.282-3.409,2.377-5.703
								c-0.166,0.178,0.471,1.394,0.3,1.561c1.367-1.319,2.161-0.31,2.218-2.523c0.035-1.385-0.074-2.768-0.005-4.152
								c0.119-2.37,0.896-4.776,3.537-5.253c-1.107-1.482-7.451-3.719-7.562-5.196c0.074,1.261,2.737-1.208,2.791-1.259
								c-0.835-1.822-10.723-5.74-10.678-6.085c0.165-1.26,8.117-0.938,8.229-3.604c-0.989-1.929-12.974-0.513-14.75-0.488
								c-3.643,0.051-7.302,0.164-10.943-0.012c-0.514-0.025-4.058,0.163-4.316,0.001c1.469,0.932,1.991-4.312,0.999-4.764
								c-2.525,0.104-7.292,7.201-8.725,8.992c-1.299,1.623-1.917,4.105-4.177,4.105c-1.462,0-8.082-1.461-9.054-0.295
								c-0.68,1.195,2.174,2.089,1.823,3.291c-0.452,1.546-2.212,2.706-2.393,4.33c1.042,0.668,3.365-4.374,3.7-0.162
								c0.209,2.627-0.032,5.302-0.106,7.93c-0.044,1.064-0.042,2.13,0.006,3.194c0.097,1.394,1.225,0.996,2.187,1.903
								c-0.225-0.213,0.396-1.55,0.179-1.782C273.576,303.528,273.007,307.291,273.102,308.221
								C273.899,308.43,273.02,307.42,273.102,308.221z"/>
						</g>
					</g>
				</g>
				<g id="XMLID_865_">
					<g id="XMLID_883_">
						<path id="XMLID_884_" fill="#38120D" d="M294.297,313.718c-0.079,0,1.884-3.899,4.046-1.228
							c-0.292-0.361,0.631,1.746-0.02,1.183C296.735,312.293,295.772,313.718,294.297,313.718z M296.37,312.65
							c0.689-0.005,1.326,0.173,1.911,0.535c-0.253-1.575-3.569-1.575-3.821,0C295.044,312.823,295.681,312.646,296.37,312.65z"/>
					</g>
					<g id="XMLID_878_">
						<g id="XMLID_881_">
							<path id="XMLID_882_" fill="#38120D" d="M283.729,300.941c1.615,0,1.615,8.459,0,8.459
								C282.114,309.4,282.114,300.941,283.729,300.941z"/>
						</g>
						<g id="XMLID_879_">
							<path id="XMLID_880_" fill="#FFFFFF" d="M284.094,302.039c0.537,0,0.537,2.378,0,2.378S283.558,302.039,284.094,302.039z"/>
						</g>
					</g>
					<g id="XMLID_873_">
						<g id="XMLID_876_">
							<path id="XMLID_877_" fill="#38120D" d="M309.011,300.941c1.614,0,1.614,8.459,0,8.459
								C307.395,309.4,307.395,300.941,309.011,300.941z"/>
						</g>
						<g id="XMLID_874_">
							<path id="XMLID_875_" fill="#FFFFFF" d="M309.377,302.039c0.537,0,0.537,2.378,0,2.378S308.84,302.039,309.377,302.039z"/>
						</g>
					</g>
					<g id="XMLID_866_">
						<g id="XMLID_870_">
							<g id="XMLID_871_">
								<path id="XMLID_872_" fill="#38120D" d="M278.933,299.307c2.288-2.812,8.428-2.677,10.803,0.014
									c-1.368-1.534-1.97-3.014-4.968-3.146C281.794,296.045,280.497,297.385,278.933,299.307
									C281.486,296.167,278.853,299.404,278.933,299.307z"/>
							</g>
						</g>
						<g id="XMLID_867_">
							<g id="XMLID_868_">
								<path id="XMLID_869_" fill="#38120D" d="M313.714,299.307c-2.288-2.813-8.429-2.676-10.804,0.014
									c1.362-1.544,1.976-3.014,4.968-3.146C310.852,296.045,312.15,297.385,313.714,299.307
									C311.16,296.167,313.793,299.404,313.714,299.307z"/>
							</g>
						</g>
					</g>
				</g>
			</g>
			<g id="XMLID_793_">
				<g id="XMLID_796_">
					<path id="XMLID_863_" fill="#BD383D" d="M296.324,323.008c3.001,0,7.787-1.501,7.787-5.242c-5.191,0-10.383,0-15.575,0
						C288.535,321.507,293.322,323.008,296.324,323.008z"/>
					<path id="XMLID_860_" fill="#38120D" d="M296.324,323.189c-2.344,0-4.912-0.687-6.607-2.394
						c-0.212-0.214-2.238-3.213-1.095-3.213c2.398,0,4.796,0,7.194,0c2.655,0,5.309,0,7.963,0c1.171,0,0.193,1.801-0.112,2.291
						C302.175,322.27,298.983,323.189,296.324,323.189z M288.722,317.947c0.354,6.626,14.85,6.626,15.203,0
						C298.857,317.947,293.789,317.947,288.722,317.947z"/>
				</g>
				<g id="XMLID_794_">
					<path id="XMLID_795_" fill="#EE6767" d="M302.283,320.897c-0.597-4.554-6.224-2.951-9.566-2.951
						c-2.745,0-3.113,2.94-0.536,4.061C295.311,323.366,299.602,323.15,302.283,320.897
						C302.135,319.768,300.889,322.069,302.283,320.897z"/>
				</g>
			</g>
		</g>
	</g>
</g>
</svg>
