<svg version="1.1" xmlns="http://www.w3.org/2000/svg"   viewBox="0 0 768 430" enable-background="new 0 0 768 430" xml:space="preserve"><path fill="#DDE4D0" d="M412.7 131.6c14.9 0 27-12.1 27-27 0-14.9-12.1-27-27-27 -14.9 0-27 12.1-27 27C385.7 119.5 397.8 131.6 412.7 131.6zM412.1 210.8l-24.5-27v-51.4c-0.1-15.9-21.5-30.4-36.9-22.6l-64.6 34.9C277.4 149.7 274 158.1 274 166.8v155.3c0 29.3 40.1 29.3 40.1-0.3V190.8l48.3-26.1v24.6c0 4.7 1.3 6.7 3 8.4l27.7 30.5C405.5 240.8 423.3 223.5 412.1 210.8z"/><path fill="#DDE4D0" d="M407.9 165.2c-11 0-15.1 12.4-8.3 20.2l51.4 57.4h42.5v-77.5L407.9 165.2z"/><path fill="#DDE4D0" d="M427 148.6"/><path fill="#DDE4D0" d="M429.8 139.3"/><path fill="#DDE4D0" d="M435.2 155.6c-1.8 0-3.3 1.5-3.3 3.3 0 1.8 1.5 3.3 3.3 3.3 1.8 0 3.3-1.5 3.3-3.3C438.5 157.1 437 155.6 435.2 155.6zM435.8 147c-1.8 0-3.3 1.5-3.3 3.3 0 1.8 1.5 3.3 3.3 3.3 1.8 0 3.3-1.5 3.3-3.3C439.1 148.5 437.6 147 435.8 147zM438.5 137.1c-1.9 0-3.5 1.6-3.5 3.5 0 1.9 1.6 3.5 3.5 3.5 1.9 0 3.5-1.5 3.5-3.5C441.9 138.6 440.4 137.1 438.5 137.1z"/><circle fill="#DDE4D0" cx="447.6" cy="135.4" r="3.6"/><path fill="#DDE4D0" d="M457 134c-2.2 0-4 1.8-4 4s1.8 4 4 4c2.2 0 4-1.8 4-4S459.2 134 457 134zM468 150.6C465 147 464 142 464.5 144c0.5 2.1-4.3 4.4-4.3 6.6 0 2.2 1.8 3.9 3.9 3.9C466.2 154.5 469.4 152.3 468 150.6z"/><line fill="none" stroke="#DDE4D0" stroke-miterlimit="10" x1="391" y1="135" x2="395" y2="152"/><line fill="none" stroke="#DDE4D0" stroke-miterlimit="10" x1="393" y1="134" x2="402" y2="149"/><line fill="none" stroke="#DDE4D0" stroke-miterlimit="10" x1="395" y1="133" x2="408" y2="145"/></svg>