<svg version="1.1" xmlns="http://www.w3.org/2000/svg" viewBox="0 0 768 430" xml:space="preserve"><style>.s0{fill:none;}.s1{fill:#DDE4D0;}</style><path d="M534.7 110.2l1.8-4.6c0.9 0.4 2.1 0.2 3-0.7 1.1-1.1 1.4-2.6 0.6-3.5 -0.4-0.5-1.1-0.7-1.8-0.6l1.4-3.8c-3.7 1.1-5 2.9-5.8 4.9C533 104.1 533.8 106.8 534.7 110.2zM544.6 119.3c0.7 0.4 1.6-2.7 2.5-4.9C545.7 116.9 544.4 119.1 544.6 119.3zM381.4 190.1c-2.1 9.4-8.5 24.2-4 31.5 0.7 0 2.4 0.3 2.4 0.3 6.5 0.7 4.8-14.8 5-18.8 0.4-13.4 11.2-30.9 7.1-39.5C389 157.7 383.2 182.2 381.4 190.1zM549 108.6c-0.4 1.5-0.6 2.8-1.4 4.5 -0.2 0.4-0.3 0.8-0.5 1.3 1.4-2.5 2.8-5.3 2.9-6.7C550.1 105.5 549.4 107.1 549 108.6zM496 83l3-3c-1-4-3.3-6.7-4.9-7 -2.4-0.4-5.2 2.4-4.1 5.1C491.1 80.8 496 83 496 83zM518.9 83c6.3-0.2 14.5 3.5 15.5 2.3 0.6-0.8-3.8-1.3-7.8-2.8 -2.8-1-2.8-3.8-6.2-3.7 -3.4 0.1-5.4 2.3-8.1 3.9 -4.7 2.9-10.4 3-10 3.9C503.1 88 512.9 83.2 518.9 83zM492.8 122.4c-0.6 0.7 5.7 4.7 8 5.8 3.2 1.5 5.4 0.3 6.7-1.5 -0.8-0.2-2.3 2.6-5.4 1.7C498.9 127.4 493.7 121.2 492.8 122.4zM496.3 116.3c-1.3-1.5-1.8-2.8-2.6-4.1 -0.8-1.3-2-2.7-1.4-0.7 0.8 2.9 6.1 8.3 9 10.2C503 122.8 497.8 118.1 496.3 116.3zM521.2 87.7c-1-0.1-2.2 1.4-3.6 2 -2 0.9-7.3 2.6-7 3 0.8 1.2 6.5-2.1 10.3-2.1 3.8 0 6.7 2.2 7.7 1.1 0.7-0.8-4.5-1.8-5.1-2.3C522.6 88.8 522.3 87.8 521.2 87.7zM545.6 80.6c0.8-2.3-0.5-4.2-2.4-3.9 -1.2 0.2-5.7 1.1-6.5 4.6l3.4 3.3C540.1 84.6 544.8 82.9 545.6 80.6zM412.9 287.9c-1 0.3-3.9 1.2-3 4.4 0.9 3.2 3.7 9.8 4.3 10.3l7-1.5c2-3.4-0.8-3-3.3-8.3C416.6 290.1 416.7 286.9 412.9 287.9zM255.6 157.6l-2.5 10.9c3.5-7.7 7.1-2.5 12.9 0.8l2.7-8C264.9 158.2 261 155.4 255.6 157.6zM283.4 142.4c-3.7 2.1-6.7 5.5-8.9 9.3 0-0.1 0-0.1 0-0.2 -0.9-3.1-6.4-10.5-10.6-11.7l-4.9 6.9c4-2.6 9.9 3.2 12.5 9.9 0.4-0.4 0.8-0.8 1.3-1.1 -1.6 3.9-2.4 7.9-2.3 10.9L283.4 142.4zM362.2 129.5c-3.1 8-1.3 20-3.3 30 -1.7 8.6-3.7 19.4-5.7 28.8 -1.2 5.8-8.6 13.9-2.9 17.2 1.6 0.9 1.4-0.5 1.7-1.3 7.6-15.5 9.1-33.2 11.8-50.2C364.9 147.7 363 127.3 362.2 129.5zM313.3 208.9c-4.7-5.2-10.8-7.6-15-7.1 -3.9 0.5 8.2 6.6 11.6 10.9 4.9 6.3 8.3 13.8 12 19.6 1 1.5 3.1-6.2 2.6-6.7C321.1 221.7 317.9 214 313.3 208.9zM295.8 297.1c-1.7-7.6-3.1-11-6.7-9.8 -2.2 0.7-3.1 4.7 1.6 13.4 2.4 4.5 8.4 16.5 12.8 8C305.6 304.7 297.4 304.3 295.8 297.1zM299.7 131.1c-0.1-6.2-1.7-27.8-4.3-17 -2.5 10.5 0.6 24.4-1.6 36 -4.2 21.5-12.6 24.9-12.7 25.9 -0.7 6.9 9-3.4 9.8-4.7C295 164.9 300 148 299.7 131.1zM502.2 133.5c-0.6-0.3-1.4 0.7-1.2 0.8 1.8 2 5.3-0.2 6.7-1.7C506.9 132.5 504.5 134.9 502.2 133.5zM546.4 131.7c-1.6 1.7-4.4-0.2-4.2 0.1 0.6 1.1 4.2 2.8 5.3 0.4C547.6 132.1 546.8 131.3 546.4 131.7zM523 139c0.1 0 0.2-0.1 0.4-0.1l-12.5 0.6C513.2 140.9 521.3 139.5 523 139z" fill="none"/><polygon points="475.1 114.4 477.9 120 476 125.8 482.6 126 480.9 135 487.9 133.3 487.8 141.1 495.3 139.5 494.9 148.6 502.4 147.1 479.7 102.8 " fill="none"/><path d="M512 100.8c-1.7-1.5-4.5-2.2-8.9-1.7l3 3.1c-0.1 0.1-0.2 0.1-0.2 0.2 -0.9 1-0.6 2.7 0.6 3.8 1.2 1.1 2.9 1.3 3.8 0.3 0 0 0 0 0.1-0.1l2.9 3C513.8 106 513.8 102.3 512 100.8zM526.2 133.9c0 0 0.1 0 0.1 0 2.4-1.5 9.3-5.2 9.1-7.6 -0.2-1.8-6.8-0.6-9-0.5 -3 0.2-8.9-2.3-10 0.8 -0.9 2.4 6.3 5.7 9.7 7.2 0 2.1 0.2 4-2.8 5l5.3-0.3c-0.8-0.1-1.5-0.3-2-0.4C526.3 138.1 526.3 135.4 526.2 133.9zM546.6 125.5c-2.3 1.5-3.8-1.4-4.3-0.7 -0.8 1.2 3.1 2.4 5.3 0.3 1.6-1.5 5.8-6.5 5.3-7.1C551.9 117.1 548.9 124.1 546.6 125.5zM471.6 205.8c1.5 2.6 2-3.1 1.7-4.2 -3.2-11.7-5-23.8-6.3-35.8 -1.7-15.9-2.3 2.1-1.8 8.4C466.2 184.9 466.7 197.5 471.6 205.8zM541.5 138l-12.8 0.6C532.9 139.3 539.8 139 541.5 138zM495.6 169.6c-14.8-9.1-11.8-1.4 0.2 8.9C503.2 185.8 500.8 172.8 495.6 169.6zM429.4 119.6c-4.2 0.6-6.5 18.5-8.1 18 -1.6-0.5 0.2-14.7-0.2-18.9 -9.9-4.1-7.5 12.2-6.2 18.4 2.6 12.4-1.7 25.3-2 36.7 -0.2 6.3 7.3-12.9 8-17 1.8-11.1 7.3-26.3 12.1-36.4C434.6 117 432.8 119.1 429.4 119.6zM414.8 181.9c-4.8 11.2-3.2 24.4-3.3 36.2 0 3 4.3-1 5.4-3.1 5.6-10.8 3.6-23.8 5-36C423.6 165.4 417.1 176.3 414.8 181.9zM455.7 162.7c-0.1 17.4-7.7 33.9-12.5 50.4 -3 10.3 4.3 3.6 5.6-1.6 4.7-17.9 1.9 12.7 5.7 12.4 4-0.2 1.1-19.4 1.4-27.7 0.3-9.7 3.9-29.6 4.9-31.2 0.6-0.9-1-20.7-2.5-23.6C457.2 139.5 455.7 156.9 455.7 162.7zM439.3 147.2c-4.9 9.8-4.4 23.7-3.8 36.2 0.8 12.1-8.1 35.8-7.3 34 10.5-0.1 10.6-17.7 11.6-26.6 1.1-9.1-1.2-27.1 0.8-31.5C441 158.2 442.5 140.9 439.3 147.2zM480.3 228.6c-7.6-4-14.7-26.4-16.1-22.8 -3.2 8.3 9.5 25.4 18.3 35.5C489.1 248.9 483.5 230.4 480.3 228.6zM476.9 184.8c3.1 9.6 6.4 18.3 11.4 26.7 0 0 0.8 1.5 1.1 2.1 0.2 0.3 0.6 0.9 0.6 0.9 6 8.5-7.7-21.1-9.2-32.1C479.3 171.2 473.8 174.9 476.9 184.8z" fill="none"/><path d="M289.4 226.8c-0.1-0.6-0.3-1.6-0.6-2.8l1.1 11.7C289.6 231.7 289.5 227.8 289.4 226.8zM289.8 235.7c0.1 1.7 0.3 3.5 0.5 5L289.8 235.7zM432.4 238.8c-4.5 0-10.7-4-6.5-3.3 8.3 1.4 17-3.1 21.7-4.9l-31.9-4.7c0 6.4-4.2 33.7-4.7 39 -0.5 5.3-5.8 7.4-6.6 14.6 -0.8 7.2 5.9 20.2 8.8 23.6 2.9 3.5 8 0 11.7 1.3 3.7 1.3 5.8-2.4 8.5-3.5 2.7-1.1 2.9-3.7 1.3-6.1 -1.6-2.4-5.6-4.5 2.4-29 8-24.4 11.4-32.8 17-34.4l-2.8-0.4C450.8 236.1 436.4 238.8 432.4 238.8zM421.2 301.3l-7 1.5c-0.7-0.5-3.4-7.1-4.3-10.3 -0.9-3.2 2-4.2 3-4.4 3.8-1 3.7 2.2 5 5C420.4 298.3 423.2 297.9 421.2 301.3zM555.8 107c-0.4-9.4-6.2-17.9-8.3-19.8 13.5-10.4 3.5-15.5 0.6-17.6 -2.9-2.1-12.2 3.2-15.4 5.8 -3.5-1.4-8-3-13.6-3.5 -5.6-0.5-11.4-0.2-16.4 0.9 -1.9-5-10.6-10.4-17.5-3.7 -6.9 6.6-2.4 12 1.6 15.7 -4.2 3.2-7.8 3.9-13.3 8.8 -3.2 2.8-7.3 6.7-12.5 10.4 6.8 4.1 8.8 27 12.1 37.7 1.8 5.8 9.6 21.7 5.6 20.2 -8.2-3-10.8-17.4-12.6-27.3 -1.2-6.1-7.9-22.1-8.1-28.5 -3.6 2.4-7.6 4.7-12.2 6.6 0.5 0.9 1 2.7 1.4 5.9 1.4 11.7 3.8 29.8-0.8 40.4 -0.8 1.9-2 9-2.7 6.7 -2.8-8.5 3.4-29.9 0.2-41.3 -1.1-3.9-0.8-8.7 0.1-11 -7.8 3.1-17.1 5-28.1 4.5 -1.8-0.1-3.6-0.2-5.2-0.3 0 0.1 0.1 0.2 0.1 0.3 0.5 2.5-3.5 5.9-4.4 11.7 -1.2 8.4 0.2 20-1.2 26.2 -1.7 7.6-2 17.8-6.4 26 -0.5 1-3 2.7-2.5 0.2 3.5-16.1 6.2-32.8 3.8-49.2 -0.8-5.5 3.6-12.9 7-15.5 -6.8-0.6-12.4-1.4-18.5-2.5 2.2 6.6-2 25.3-4.3 30.8 -5 12.2-5.9 26-11 38.2 -2.7 6.5-4.5 25.6-7.3 21.8 -8-10.9 9.2-32.8 9.4-50.2 0.2-13-8.1-34.9-4.1-43.7l6.1 1.6c-3.6 6.4 0.3 24.6 0.8 28.4 1.6 12.4 5.3-17.3 5.4-27.8 -6.2-1.2-13.1-2.5-22.1-4 -0.7-0.1-1.3-0.2-1.9-0.3 0 0.1 0.1 0.2 0.1 0.4 2.9 10.2-15.3 28-16.9 42 -0.6 5.4 0.1 8.7-0.9 15.7 -0.3 2.2-4.5 22.4-6.2 14.5 -1.9-9.2 1.1-16.6 2-25.9 0.7-7.7 3.8-19.6 6.2-22.7 3.5-4.5 9-20.2 12.7-24.4 -12.5-2-23.1-3.2-32.9-3.2 0.6 1 0.9 2.4 0.6 4.2 -1.6 12.4 1.6 34.9 2.6 44.7 0.9 9.4 1.9 20.3-1 28.2 -2.6 7.1-2.5 20.4-0.7 25 2.2 5.5-2 3.2-3.8-1.5 -5.3-13.5 0.7-25.3 1.1-36.7 0.4-10.1-1.5-34.8-1.9-33.8 -2.9 6.7-2.2 30.5-3.6 36.1 -0.8 3 0.2 12.9-4.3 3.4 -2.3-20.6 5-41.6 3.5-62.5 -0.6-3.1-0.1-5.5 0.9-7 -10.9 0.7-20.9 3.2-31.3 8.4 -13.8 6.8-32.6 25-33.7 57.1 -1.1 32 7.2 70.7 3.8 79.7 -3.3 8.9-5.8 21.6 0.6 23.5 6.2 1.9 9.3-4.7 11-12.7 -2.4 5-6.7 10.8-9 11.4 -4.7 1.3-6.9-22.8-0.1-20.7 0.6 6.4 7.5 2.1 8.9 1.9 0.6-0.1 1 0 1.3 0.3 0.6-5.6 0.8-11 1-14.3 0.1-1.7 0.1-4 0-6.6 -0.2 1.9-0.6 3.5-1.3 4.2 -1.2 1.3-3.4 2.8-8.9 1.9l-0.5-7.2c3.4-2 8.8-1.5 0.9-6.2 -2.9-1.7-5.3-5.9-2.7-6.5 0.8-0.2 3.3 4.3 9.1-0.3 1.2-0.9 2.2 1 2.8 3.9 -0.4-6.5-1-13.8-1.6-21 -0.3 1.3-1.4 2.2-3 1.2 -3.4-2-6.8-0.9-8.9 2.3 0 0-0.4-7.5-0.1-7.8 1.4-1.5 7.2-1.1 7.2-1.1 2.5 0.2 4 1.6 4.5 3.2 -0.4-5.1-0.8-10.1-1.2-14.6 0-0.4-0.1-0.9-0.1-1.3l-0.5 2.1c-6.1-2.7-10.4-6.5-12.4-1.6l0.5-7.1c4.4-1 8.3 0.9 12.2 3.1 -0.2-5.8 0.2-10.1 2.1-15.9 2.2 9.1 17.4 46.7 20.8 58.6l-3.2-35c0.2 1.4 1 5.2 4.5 12.4 4.5 9.3 3.5 19.1 3.5 27.4 0 8.2-8 22.3-8.8 29 -0.8 6.6 0.3 33.7 2.4 39.9 2 6.1 7.8 16.5 19.7 15.3 0.8-0.1 3.6 0.1 6.1-3.3 3 1.3 4.5-3.7 5.4-4.2 4.7-2.4-2.9-6.4-6.4-9.8 -4.9-4.6-3.7-27.5-3.7-32.6 0-5.1 13.8-22.1 17-30.3 3.2-8.2 9.8-25 12.8-32.2 5.4 5.1 11.9 10.3 18.6 15.4 12.9 9.7 16.5 10.8 27.1 12.1 7.3 0.9 28.7-3.4 33.4-4.8 4.7-1.3 32.9-2.4 37 8.1 4.5 11.6 8.2 52.8 9.8 58.7 1.1 4.2 4.5 10.8 8.3 15.6 0-1.4 0.5-2.7 1.5-3.5 2-1.6 5.2-0.8 7.2 1.6 1.9 2.5 1.9 5.8-0.1 7.4 -0.2 0.2-0.4 0.3-0.6 0.4 8.6 1.7 10.8-1.5 11.6-2.6 1.3 0.5 2.5 0.5 3.6 0.3l-5.8-8.7c3 2 5.6 6.3 6.3 8.6 3.6-1.2 5.9-5.7 3.5-10.2 -1.4-3.7-9.9-5.1-10.4-14.1 -0.5-9-1.3-59.8 4.3-66.7 5.6-6.9 8.5-21.8 7.6-32.9 -0.7-8.8 10.5-37.1 16.2-35.2 10.1 3.3 18.4-1.2 19.7-2.9 2.1-2.9 2-6.5 4.4-7.6 2.4-1.1 8.6-7.4 10.1-11.7C552.6 123.3 556.2 117.3 555.8 107zM266.1 169.3c-5.8-3.3-9.4-8.5-12.9-0.8l2.5-10.9c5.3-2.2 9.3 0.6 13.1 3.8L266.1 169.3zM271.4 156.7c-2.6-6.8-8.4-12.5-12.5-9.9l4.9-6.9c4.2 1.2 9.7 8.6 10.6 11.7 0 0.1 0 0.1 0 0.2 2.2-3.8 5.1-7.2 8.9-9.3l-13.1 24.1c-0.1-3 0.7-7 2.3-10.9C272.2 155.9 271.7 156.3 271.4 156.7zM290.9 171.3c-0.8 1.3-10.5 11.6-9.8 4.7 0.1-1 8.5-4.4 12.7-25.9 2.3-11.6-0.9-25.5 1.6-36 2.6-10.8 4.2 10.8 4.3 17C300 148 295 164.9 290.9 171.3zM303.5 308.7c-4.4 8.5-10.4-3.6-12.8-8 -4.7-8.7-3.8-12.7-1.6-13.4 3.6-1.1 5 2.2 6.7 9.8C297.4 304.3 305.6 304.7 303.5 308.7zM322.1 232.4c-3.8-5.9-7.1-13.3-12-19.6 -3.4-4.4-15.5-10.5-11.6-10.9 4.2-0.5 10.3 1.9 15 7.1 4.6 5.1 7.7 12.8 11.3 16.8C325.2 226.2 323 233.9 322.1 232.4zM352.1 204.2c-0.4 0.8-0.2 2.2-1.7 1.3 -5.7-3.2 1.6-11.3 2.9-17.2 2-9.5 3.9-20.2 5.7-28.8 2-10 0.2-22.1 3.3-30 0.8-2.2 2.8 18.1 1.7 24.5C361.2 171 359.7 188.7 352.1 204.2zM384.7 203.1c-0.1 4 1.5 19.5-5 18.8 0 0-1.7-0.2-2.4-0.3 -4.5-7.3 1.9-22.1 4-31.5 1.8-7.9 7.6-32.4 10.4-26.5C395.9 172.3 385.1 189.8 384.7 203.1zM547.6 113.1c0.8-1.7 1-3.1 1.4-4.5 0.4-1.5 1.1-3 1-1 -0.1 1.5-1.5 4.3-2.9 6.7 -0.8 2.2-1.8 5.3-2.5 4.9 -0.3-0.1 1.1-2.4 2.5-4.9C547.3 113.9 547.4 113.4 547.6 113.1zM543.2 76.8c1.9-0.3 3.2 1.6 2.4 3.9 -0.8 2.3-5.5 4-5.5 4l-3.4-3.3C537.5 77.9 542 77 543.2 76.8zM539.8 97l-1.4 3.8c0.7-0.1 1.3 0.1 1.8 0.6 0.8 0.9 0.6 2.5-0.6 3.5 -0.9 0.9-2.2 1.1-3 0.7l-1.7 4.6c-1-3.4-1.7-6.1-0.8-8.3C534.7 99.9 536.1 98.1 539.8 97zM512.3 82.7c2.7-1.7 4.7-3.9 8.1-3.9 3.4-0.1 3.4 2.6 6.2 3.7 4 1.5 8.4 2 7.8 2.8 -1 1.2-9.2-2.5-15.5-2.3 -5.9 0.2-15.8 5.1-16.6 3.6C501.9 85.7 507.6 85.6 512.3 82.7zM528.6 91.8c-1 1.1-3.9-1.1-7.7-1.1 -3.7 0-9.4 3.3-10.3 2.1 -0.3-0.5 5-2.1 7-3 1.4-0.6 2.6-2.1 3.6-2 1.1 0.1 1.3 1.1 2.3 1.8C524.1 89.9 529.3 91 528.6 91.8zM507.5 126.6c-1.3 1.8-3.5 3.1-6.7 1.5 -2.2-1.1-8.6-5-8-5.8 0.9-1.1 6.1 5 9.3 5.9C505.3 129.2 506.8 126.4 507.5 126.6zM501.2 121.7c-2.9-1.9-8.2-7.3-9-10.2 -0.5-2 0.6-0.6 1.5 0.7 0.8 1.3 1.3 2.6 2.6 4.1C497.8 118.1 503 122.8 501.2 121.7zM494.1 73.1c1.6 0.2 3.9 3 4.9 7l-3 3c0 0-5-2.3-6-4.9C489 75.4 491.7 72.7 494.1 73.1zM467 165.8c1.3 12 3 24 6.3 35.8 0.3 1.1-0.2 6.8-1.7 4.2 -4.9-8.3-5.4-20.9-6.4-31.6C464.6 168 465.2 150 467 165.8zM421.9 179.1c-1.5 12.2 0.5 25.2-5 36 -1.1 2.1-5.4 6.1-5.4 3.1 0.1-11.8-1.5-25.1 3.3-36.2C417.1 176.3 423.6 165.4 421.9 179.1zM420.8 156.8c-0.7 4.1-8.1 23.3-8 17 0.3-11.4 4.6-24.3 2-36.7 -1.3-6.1-3.7-22.5 6.2-18.4 0.3 4.2-1.4 18.3 0.2 18.9 1.6 0.5 3.9-17.4 8.1-18 3.5-0.5 5.2-2.7 3.6 0.8C428.1 130.5 422.6 145.7 420.8 156.8zM440.5 159.2c-2 4.5 0.4 22.4-0.8 31.5 -1.1 8.9-1.1 26.5-11.6 26.6 -0.8 1.9 8.2-21.8 7.3-34 -0.6-12.6-1-26.4 3.9-36.2C442.5 140.9 441 158.2 440.5 159.2zM460.7 165c-1 1.6-4.6 21.4-4.9 31.2 -0.3 8.3 2.6 27.5-1.4 27.7 -3.8 0.2-1-30.4-5.7-12.4 -1.4 5.2-8.6 11.9-5.6 1.6 4.8-16.5 12.4-33 12.5-50.4 0-5.8 1.5-23.3 2.5-21.3C459.7 144.3 461.3 164.1 460.7 165zM482.5 241.3c-8.8-10-21.5-27.1-18.3-35.5 1.4-3.5 8.5 18.8 16.1 22.8C483.5 230.4 489.1 248.9 482.5 241.3zM490 214.4c0 0-0.4-0.6-0.6-0.9 -0.4-0.6-1.1-2.1-1.1-2.1 -5-8.5-8.3-17.1-11.4-26.7 -3.2-9.9 2.4-13.6 3.9-2.4C482.4 193.3 496 222.9 490 214.4zM495.9 178.4c-12-10.3-15-18-0.2-8.9C500.8 172.8 503.2 185.8 495.9 178.4zM494.9 148.6l0.4-9.1 -7.5 1.6 0.1-7.8 -7 1.8 1.7-9.1 -6.6-0.1 1.9-5.9 -2.9-5.6 4.7-11.5 22.7 44.3L494.9 148.6zM501 134.3c-0.2-0.1 0.6-1.1 1.2-0.8 2.3 1.4 4.7-1 5.4-0.9C506.2 134.1 502.8 136.3 501 134.3zM510.3 106.6c-0.9 1-2.6 0.8-3.8-0.3 -1.2-1.1-1.5-2.9-0.6-3.8 0.1-0.1 0.2-0.1 0.2-0.2l-3-3.1c4.4-0.5 7.2 0.2 8.9 1.7 1.8 1.5 1.7 5.2 1.2 8.7l-2.9-3C510.3 106.5 510.3 106.6 510.3 106.6zM528.7 138.6l-5.3 0.3c-0.1 0-0.2 0.1-0.3 0.1 -1.7 0.5-9.8 1.9-12.2 0.5l12.5-0.6c2.9-1 2.7-2.9 2.8-5 -3.5-1.5-10.6-4.8-9.7-7.2 1.2-3.1 7-0.5 10-0.8 2.2-0.2 8.8-1.4 9 0.5 0.2 2.4-6.7 6.1-9.1 7.6 0 0-0.1 0-0.1 0 0.1 1.5 0.1 4.2 0.4 4.3C527.2 138.4 527.9 138.5 528.7 138.6l12.8-0.6C539.8 139 532.9 139.3 528.7 138.6zM547.4 132.3c-1.1 2.3-4.7 0.6-5.3-0.4 -0.2-0.3 2.6 1.7 4.2-0.1C546.8 131.3 547.6 132.1 547.4 132.3zM547.5 125.1c-2.2 2.1-6.2 1-5.3-0.3 0.5-0.7 2.1 2.1 4.3 0.7 2.3-1.5 5.4-8.5 6.2-7.5C553.3 118.6 549.1 123.7 547.5 125.1zM320.2 266l2.2-26.2C319.8 246.4 319.8 257.2 320.2 266zM320.2 266l-2.7 32.6c6.4 2.4 8.2-1.7 8.6-4.9 0.5-4.6-5.1-9.1-5.1-14.1C321 277.4 320.5 272.2 320.2 266z" fill="#DDE4D0"/></svg>