<svg xmlns="http://www.w3.org/2000/svg" viewBox="0 0 768 430"><style>.a{fill:#F49700;}.b{fill:#FE9900;}.c{fill:#FFE89E;}.d{fill:#3D0000;}.e{fill:#550101;}.f{fill:#A14949;}.g{fill:#722D00;}.h{fill:#E5DBAC;}.i{fill:#F9FFFF;}.j{fill:#8E7949;}.k{fill:#EE6500;}.l{fill:#871500;}.m{fill:#150000;}.n{fill:#CCC;}.o{fill:#FAF5F3;}.p{fill:#363535;}.q{fill:#ED9A9A;}.r{fill:#F4C6C6;}.s{fill:#FFD69F;}.t{fill:#892929;}.u{fill:#3F0000;}.v{fill:#C64242;}.w{fill:#DBDBDB;}.x{fill:#FFF;}.y{fill:#A5A5A5;}.z{fill:#6E6866;}.A{fill:#F28D00;}.B{fill:#FFBF01;}.C{fill:#470A00;}.D{fill:#5A1C03;}.E{fill:#1C0501;}</style><path d="M334 252.7c-1.3 9.4-6 34.8-15.3 47.9 4.9 9.9 26.3 12.1 26.3 12.1s13.2-31.9 12.9-43.5C348.6 259.1 334 252.7 334 252.7z" class="a"/><path d="M333.7 254.5c-1.6 10.6-6.3 33.7-15 46.1 2.4 4.9 9 8 15 9.7 3.1-5.7 4.9-11.9 6.9-18.2C344.9 278.9 340 265.9 333.7 254.5z" class="b"/><path d="M333.4 256.6c-1.9 11.3-6.5 32.5-14.7 44 0.4 0.8 1.3 2.2 1.8 2.8C329.3 288.7 334.4 272.9 333.4 256.6z" class="c"/><path d="M347.1 267.8c-2.1-2.7-9.1-6.7-14.2-8.5 -0.4 2.2-0.9 4.6-1.4 7.2C335.2 266.3 342.8 266.1 347.1 267.8z" class="d"/><path d="M332.9 259.3c-0.4 2.2-0.9 4.6-1.4 7.2 2-0.1 5.1-0.2 8.3-0.1 -0.4-1.8-1.2-3.5-2.1-5.1C336 260.5 334.4 259.8 332.9 259.3z" class="e"/><path d="M333.5 259.5c-0.2-0.1-0.4-0.2-0.6-0.2 -0.4 2.2-0.9 4.6-1.4 7.2 0.5 0 1.1-0.1 1.8-0.1C333.5 264.1 333.5 261.8 333.5 259.5z" class="f"/><path d="M348.9 287.2c-7.9-3.3-14.9-11.4-18.4-16.1 -1.1 4.5-2.4 9.2-4 13.7C334.3 287.4 344.9 288.3 348.9 287.2z" class="d"/><path d="M330.4 271.1c-1.1 4.5-2.4 9.2-4 13.7 4.7 1.6 10.6 2.5 15.3 2.8 0.2-1.2 0.4-3 0.5-4.4C337.1 279.4 332.9 274.4 330.4 271.1z" class="e"/><path d="M330.4 271.1c-1.1 4.5-2.4 9.2-4 13.7 0.8 0.3 1.6 0.5 2.5 0.7 1.5-3.9 2.6-8 3.4-12.1C331.6 272.6 330.9 271.8 330.4 271.1z" class="f"/><path d="M345.3 313.1l-0.3 0c-0.9-0.1-21.7-2.3-26.6-12.3l-0.1-0.2 0.1-0.2c10.3-14.5 14.7-44.4 15.2-47.7l0.1-0.5 0.5 0.2c0.1 0.1 14.8 6.5 24.1 16.6l0.1 0.1 0 0.1c0.2 11.5-12.4 42.3-13 43.6L345.3 313.1zM319.2 300.6c4.6 8.8 23.1 11.3 25.6 11.6 1.3-3.1 12.9-32 12.8-42.9 -8.2-8.9-20.7-14.9-23.3-16.1C333.4 259.8 329 286.6 319.2 300.6z" class="g"/><path d="M307.3 322.7c-4.7 0-7.5-2.3-6.7-6.6 0.6-3.3 7.8-16 12.1-17.4 4.7-1.6 6 1.3 6 2.4C316.3 303.7 307.3 322.7 307.3 322.7z" class="h"/><path d="M312.6 298.7c-3.9 1.3-10.3 12.1-11.8 16.4 1.7 2.7 5.4 3.4 8.8 2.7 2.8-5.8 7.4-15 9-16.7C318.6 300 317.3 297.1 312.6 298.7z" class="i"/><path d="M307.6 323.1h-0.2c-2.8 0-4.9-0.8-6.1-2.3 -1-1.2-1.3-2.9-1-4.8 0.6-3.4 7.9-16.2 12.3-17.7 1-0.3 1.8-0.5 2.6-0.5 2.9 0 3.9 2.2 3.9 3.2v0.1l-0.1 0.1c-2.3 2.6-11.2 21.4-11.3 21.5L307.6 323.1zM315.1 298.6c-0.7 0-1.5 0.1-2.4 0.4 -4.1 1.4-11.2 13.9-11.8 17.1 -0.3 1.7 0 3.1 0.8 4.1 1 1.2 2.9 1.9 5.3 2 1.1-2.2 8.8-18.5 11.2-21.4C318.2 300.3 317.5 298.6 315.1 298.6z" class="j"/><path d="M324 302.1c-3.8-3.8-8.1-1.9-11 1.8 -2.2 2.6-8.7 14.3-5.3 19.6 3.4 5.3 12.9 0.8 12.9 0.8L324 302.1z" class="h"/><path d="M313 303.9c-1.5 1.8-5.1 8.1-6 13.5 2.6 5.1 10.2 2.9 14.8-0.4l2.3-14.8C320.3 298.3 316 300.3 313 303.9z" class="i"/><path d="M313.3 326.5L313.3 326.5c-2.7 0-4.7-0.9-5.9-2.8 -3.4-5.4 2.8-17.1 5.3-20.1 2.1-2.6 4.6-4 6.9-4 1.7 0 3.3 0.7 4.7 2.2l0.1 0.1 -3.5 22.6 -0.2 0.1C320.6 324.8 316.9 326.5 313.3 326.5zM319.6 300.4c-2.1 0-4.3 1.3-6.3 3.7 -2.3 2.8-8.4 14.2-5.2 19.2 1 1.6 2.8 2.4 5.2 2.4l0 0c3 0 6.2-1.3 7-1.6l3.4-21.8C322.4 301 321 300.4 319.6 300.4z" class="j"/><path d="M329.3 326c-4.5 2.7-9.5 2.6-11.3-0.7 -1.4-2.7-1.2-21.3 7.5-23.8 8.7-2.5 14.4 6.7 14.4 6.7C338.4 309.4 329.3 326 329.3 326z" class="h"/><path d="M339.9 308.2c0 0-5.7-9.2-14.4-6.7 -5.8 1.7-7.9 10.6-8.1 17.2 0.5 1.1 1.3 2 2.5 2.7 4.8 2.1 9.3-0.1 13.4-2.5C336 314.2 339.1 308.8 339.9 308.2z" class="i"/><path d="M323.1 328.4c-2.5 0-4.4-1-5.4-2.9 -1-1.9-1.3-11.2 1.6-17.9 1.5-3.5 3.6-5.7 6.2-6.4 1-0.3 2.1-0.4 3.1-0.4 7.1 0 11.6 7 11.7 7.3l0.2 0.3 -0.3 0.2c-1.1 0.8-6.9 11.1-10.5 17.8l0 0.1 -0.1 0.1C327.4 327.7 325.1 328.4 323.1 328.4zM328.5 301.5c-1 0-1.9 0.1-2.9 0.4 -2.4 0.7-4.3 2.7-5.7 6 -2.7 6.4-2.5 15.5-1.6 17.3 0.8 1.6 2.5 2.4 4.7 2.4 1.9 0 4-0.6 6-1.8 1.1-2 8.4-15.4 10.4-17.7C338.6 306.9 334.5 301.5 328.5 301.5z" class="j"/><path d="M382.5 312.5c-5.1-2-7.5-4.6-6.5-8 1.1-3.4 5-12 10.1-13.5 5.1-1.5 11.4 3.4 15 2.9C400.6 296.1 382.5 312.5 382.5 312.5z" class="i"/><path d="M382.6 312.9l-0.2-0.1c-5.5-2.2-7.8-5-6.7-8.4 1-3.1 5-12.2 10.3-13.8 0.7-0.2 1.4-0.3 2.2-0.3 2.4 0 5 1 7.3 1.8 1.9 0.7 3.7 1.4 5.1 1.4 0.2 0 0.3 0 0.5 0l0.6-0.1 -0.1 0.6c-0.5 2.3-16.9 17.2-18.7 18.8L382.6 312.9zM388.2 291.1c-0.7 0-1.4 0.1-2 0.3 -5 1.5-8.9 10.3-9.8 13.3 -0.9 3 1 5.4 6 7.4 6.7-6 16.3-15.2 18.1-17.7 -1.5 0-3.3-0.7-5.3-1.4C392.9 292 390.5 291.1 388.2 291.1z"/><path d="M385.2 315.7c-5.1-2-7.5-4.6-6.5-8 1.1-3.4 5-12 10.1-13.5 5.1-1.5 11.4 2.4 15 1.9C403.4 298.3 385.2 315.7 385.2 315.7z" class="h"/><path d="M385.3 316.1l-0.2-0.1c-5.5-2.2-7.8-5-6.7-8.5 1-3.1 5-12.2 10.3-13.8 0.8-0.2 1.7-0.4 2.7-0.4 2.3 0 4.7 0.7 6.9 1.3 1.8 0.5 3.5 1 4.9 1 0.2 0 0.5 0 0.7 0l0.6-0.1 -0.1 0.5c-0.5 2.3-16.9 18-18.7 19.8L385.3 316.1zM391.4 294.2c-0.9 0-1.7 0.1-2.5 0.3 -5 1.5-8.9 10.3-9.8 13.3 -0.9 3 1 5.4 6 7.4 6.7-6.4 16.3-16.1 18.1-18.7 0 0 0 0-0.1 0 -1.5 0-3.2-0.5-5.1-1C395.9 294.9 393.6 294.2 391.4 294.2z" class="j"/><path d="M427.4 314.3c-9.1 3.2-27.6 7.6-39.5 3.2 -5.1-2.5-7.4-7.8 0.6-17.4 4.2-5.1 12.8-5.1 16.9-1.2C416.1 309.4 427.4 314.3 427.4 314.3z" class="h"/><path d="M400.1 319.8c-4.8 0-9-0.6-12.4-1.9l0 0c-2.6-1.3-4.2-3.1-4.7-5.4 -0.7-3.4 1-7.6 5.2-12.7 2.2-2.6 5.6-4.1 9.4-4.1 3.2 0 6.1 1.1 8 3 10.5 10.4 21.7 15.3 21.9 15.4l0.9 0.4 -0.9 0.3C420.6 317.1 409.7 319.8 400.1 319.8zM388 317.1c3.3 1.2 7.4 1.8 12.1 1.8 9.1 0 19.3-2.4 26.2-4.7 -2.9-1.4-12.3-6.3-21.2-15.1 -1.8-1.7-4.5-2.7-7.5-2.7 -3.6 0-6.8 1.4-8.8 3.9 -4 4.8-5.7 8.9-5 12C384.2 314.3 385.7 316 388 317.1z" class="j"/><path d="M387.7 332.1c-6.3-2.5-9.3-5.7-8-9.8 1.3-4.1 6.1-14.8 12.3-16.6 6.2-1.8 14 4.1 18.5 3.5C410 312 387.7 332.1 387.7 332.1z" class="h"/><path d="M385 321.5c0-0.1 0-0.1 0-0.2C385.1 321.4 385.1 321.5 385 321.5z" class="i"/><path d="M410.6 309.3c-4.5 0.6-12.2-5.3-18.5-3.5 -5.6 1.6-10.1 10.4-11.8 15.2 0.7 1.4 2.3 2.1 4.4 1.6 -0.3-0.3 0.2-0.7 0.4-1 0-0.1 0-0.1 0-0.2 0 0.1 0 0.1 0 0.2 -0.4 1.5-0.7 3 0 4.5 1.2 1.9 2.7 0.4 3.9-0.8 -0.6 1.9 0.1 3.4 1.3 4.5C396.2 324.4 410.1 311.5 410.6 309.3z" class="i"/><path d="M387.8 332.6l-0.2-0.1c-6.7-2.6-9.5-6.1-8.2-10.3 1.2-3.8 6.1-14.9 12.6-16.8 0.8-0.2 1.7-0.4 2.7-0.4 3 0 6.1 1.2 8.9 2.2 2.4 0.9 4.6 1.7 6.3 1.7 0.2 0 0.4 0 0.6 0l0.6-0.1 -0.1 0.6c-0.6 2.8-20.7 21-23 23.1L387.8 332.6zM394.7 305.8c-0.9 0-1.7 0.1-2.5 0.3 -6.2 1.8-10.9 12.7-12.1 16.3 -1.2 3.7 1.4 6.8 7.5 9.2 8.3-7.5 20.4-18.9 22.3-22 0 0 0 0-0.1 0 -1.9 0-4.1-0.8-6.6-1.7C400.5 306.9 397.5 305.8 394.7 305.8z" class="j"/><path d="M391.5 335.4c-6.3-2.5-9.3-5.7-8-9.8 1.3-4.1 6.1-14.8 12.3-16.6 6.2-1.8 14 2.9 18.5 2.3C413.7 314.1 391.5 335.4 391.5 335.4z" class="h"/><path d="M414.4 311.3c-4.5 0.6-12.2-4.1-18.5-2.3 -4.9 1.4-8.8 8.2-11 13 -0.3 1.3-0.5 2.7 0.2 4 1.2 1.9 2.7 0.4 3.9-0.8 -1.2 3.8 3 6.2 6.1 6.6C401.4 325.7 413.9 313.4 414.4 311.3z" class="i"/><path d="M391.6 335.8l-0.2-0.1c-6.7-2.6-9.5-6.1-8.2-10.3 1.2-3.8 6.1-14.9 12.6-16.8 1-0.3 2.1-0.4 3.3-0.4 2.8 0 5.8 0.8 8.4 1.6 2.2 0.6 4.3 1.2 6 1.2 0.3 0 0.6 0 0.8-0.1l0.6-0.1 -0.1 0.5c-0.6 2.8-20.7 22.1-23 24.3L391.6 335.8zM399.1 309c-1.1 0-2.1 0.1-3.1 0.4 -6.2 1.8-10.9 12.7-12.1 16.3 -1.2 3.7 1.4 6.8 7.5 9.2 8.3-8 20.4-20.1 22.3-23.2 -1.8 0.1-4.1-0.6-6.5-1.2C404.6 309.8 401.8 309 399.1 309z" class="j"/><path d="M390.2 168c1.6 15.6 3.8 29.7 16.8 36.7s54.3 15.2 60.1 50c5.9 33.6 3.9 37.5 9.6 44.5 -2.6 6.2-23.9 29.4-29.1 29.9 -24.7-14.4-59.1-26.5-85.8-52.6 -9.9-2.9-36.8-18.6-32.2-54.3 1.7-13.1 10.5-19.9 8.9-36.8" class="k"/><path d="M474.8 296.5c-4.1-3.4-4.9-9.5-6.2-14.5 -6.2-24.2-14.1-52.7-40.2-59.7 -13.3-3.5-25.8-9-34.4-19.1 -2.7-3.4-4.7-6.7-6.4-10.4 -2.9-0.6-5.8-1.5-8.4-2.5 -3.5-1.2-7.8-0.8-11.3 0.4 -9.3 2.9-21.6 9-29.3 1.2 -0.8 12.5-7.6 19.1-9 30.4 -4.6 35.7 22.3 51.4 32.2 54.3 24.8 24.2 56.2 36.4 80.3 49.5 2.7-3.5 3.9-8.6 3.5-13.6 3.3 4.8 7.9 7.1 13.1 8.3 7.7-7.4 16.4-17.7 18-21.5C476 298.2 475.3 297.4 474.8 296.5z" class="b"/><path d="M410.5 257.8c0 0 1.3 2.3 5.6 3.1 7.4-23.1 20.9-34.9 27.3-39.4 -4.8-3.1-9.8-5.6-14.6-7.7C414.4 228.5 410.5 257.8 410.5 257.8z" class="d"/><path d="M423.4 220.8c-10 15.4-12.8 37-12.8 37s1.3 2.3 5.6 3.1c5.6-17.6 14.8-28.6 21.7-34.8 -2.8-1.6-5.9-2.9-9.4-3.8C426.7 221.8 425 221.3 423.4 220.8z" class="e"/><path d="M425.1 264.2c16.4-9.7 33.1-10.9 41.8-10.6 -1.4-7.5-4.5-13.7-8.6-18.9C436.9 241.5 425.1 264.2 425.1 264.2z" class="d"/><path d="M425.1 264.2c12.7-7.5 25.5-9.9 34.7-10.5 -2.4-5.8-5.3-11.2-8.9-15.9C434.2 246.7 425.1 264.2 425.1 264.2z" class="e"/><path d="M472.5 290.1c-22.5 7.2-24.6 24.9-24.6 24.9 12.7-11.2 22.7-14.2 28.2-14.9 0.2-0.4 0.4-0.7 0.5-1C474.4 296.3 473.4 294 472.5 290.1z" class="d"/><path d="M471 290.7c-21 7.5-23 24.4-23 24.4 12.7-11.2 22.7-14.2 28.2-14.9 0.2-0.4 0.4-0.7 0.5-1 -0.7-0.9-1.4-1.8-1.9-2.6C473 295 471.8 292.9 471 290.7z" class="e"/><path d="M447.5 329.5l-0.1-0.1c-7-4.1-14.9-8-23.1-12.2 -20.4-10.2-43.6-21.8-62.6-40.4 -5.6-1.6-14.5-6.5-21.6-14.9 -9-10.7-12.7-24.4-10.8-39.7 0.7-5.3 2.5-9.6 4.3-13.8 2.7-6.3 5.5-12.8 4.6-22.9l0.8-0.1c0.9 10.3-1.9 16.9-4.6 23.3 -1.9 4.3-3.6 8.5-4.3 13.6 -2 15.1 1.7 28.6 10.6 39.1 7 8.3 15.9 13.1 21.4 14.7l0.1 0 0.1 0.1c19 18.6 42.1 30.1 62.5 40.3 8.2 4.1 16 8 23 12.1 2.3-0.4 8.2-5.3 15.2-12.7 6.6-6.9 12-13.8 13.4-16.8 -3.7-4.6-4.2-8.1-5.7-19.2 -0.8-5.8-1.9-13.9-3.9-25.3 -4.7-27.7-31.6-38.2-49.4-45.2 -4.2-1.7-7.9-3.1-10.5-4.5 -13-7-15.4-20.9-17-37l0.8-0.1c1.6 15.9 3.9 29.6 16.6 36.4 2.5 1.4 6.2 2.8 10.4 4.4 8.9 3.5 20 7.8 29.7 14.9 11.5 8.4 18.1 18.5 20.2 30.9 2 11.5 3.1 19.5 3.9 25.4 1.5 11.4 2 14.4 5.7 18.9l0.1 0.2 -0.1 0.2c-1.2 3-6.9 10.1-13.7 17.2 -2.8 2.9-12.2 12.6-15.8 12.9L447.5 329.5z" class="g"/><path d="M408.8 310.5c0.1 2 11.5 27.2 32.1 23.9 8.7-2.4 11.8-5.5 8.5-16.1" class="k"/><path d="M408.8 310.5c0.1 1.4 5.8 14.4 16.4 20.7 6.1-0.6 12.8 0 16.9-5.1 1.9-2.5 3.1-5.7 3.4-9.2l-12.8-4.5L408.8 310.5z" class="b"/><path d="M437.2 335.1c-5.6 0-11-2.1-15.9-6.1 -8.3-6.8-12.8-17-12.9-18.4l0.8 0c0.1 1.3 4.6 11.3 12.6 17.9 5.9 4.8 12.3 6.7 19 5.7 4.9-1.3 7.4-2.8 8.6-5 1.3-2.3 1.1-5.6-0.5-10.6 0 0 3.6 6.3 1.2 11 -1.3 2.4-4 4-9.1 5.4l0 0C439.7 335 438.5 335.1 437.2 335.1z" class="g"/><path d="M442.6 333.9c-11.2 3.9-33.8 8.3-48.5 2.9 -6.2-3.1-9.1-9.5 0.8-21.4 5.2-6.3 15.8-6.3 20.7-1.4C428.8 326.9 442.6 333.9 442.6 333.9z" class="h"/><path d="M395.2 331.9c14.3 3.9 25.6 2.1 41.5-1.4 -5.3-3.3-13.3-8.9-21.1-16.5 -4.9-4.9-15.5-4.8-20.7 1.4 -3.4 4.1-5.3 7.5-6.1 10.4C388.2 329.4 392.3 331.1 395.2 331.9z" class="i"/><path d="M410.8 339.7c-6.6 0-12.2-0.9-16.8-2.5l0 0c-3.2-1.6-5.1-3.8-5.7-6.5 -0.9-4.1 1.3-9.3 6.4-15.5 2.7-3.2 6.9-5.1 11.5-5.1 3.9 0 7.4 1.3 9.8 3.6 12.9 12.8 26.7 19.8 26.9 19.9l0.8 0.4 -0.9 0.3C435.6 336.8 422.9 339.7 410.8 339.7zM394.3 336.5c4.5 1.6 10 2.5 16.5 2.5 11.6 0 23.6-2.7 30.8-5.1 -3.1-1.7-15-8.5-26.3-19.6 -2.2-2.1-5.5-3.4-9.2-3.4 -4.4 0-8.4 1.7-10.9 4.8 -4.9 6-7 10.9-6.2 14.8C389.6 333 391.3 335 394.3 336.5z" class="j"/><path d="M450.4 327.7c12.2-0.4 37.6-0.4 39.7 8.2 2.1 8.6-35.5 15.1-46 19.7 -12.3 5.4-16.3 12.2-14.3 17.4 2.5 6.5 15.6 8.4 32.4 5.9 16.8-2.5 53.8-12.3 58-34.5 3.7-19.7-5.7-28.7-17.9-33.7 -14.4-5.9-21.6-8.6-25.6-11.4" class="k"/><path d="M512.7 322.6c-4.7-9-14.1-14.1-24.2-17.2 -0.4-0.4-1.9-1.2-2.7-1.6 -0.2-0.1-0.3-0.2-0.5-0.3 -3.9-1.7-6.7-3-8.6-4.4l-19.5 21.1c8.1 2.2 17.9 1.5 25.9 4.2 5 1.9 9.5 7.5 6.8 13.3 0 0.1-0.1 0.1-0.1 0.2 0 0.1-0.1 0.1-0.1 0.2 -0.1 0.1-0.1 0.2-0.2 0.3 -4.9 7.3-36 12.9-45.4 17.1 -10.3 4.5-14.8 10-14.8 14.8 2.3 1.4 4.9 2.3 7.7 2.6 24.2 3.5 47.6-3.5 67.9-18.7C515.1 346.8 518.6 333.5 512.7 322.6z" class="b"/><path d="M488.6 339.6c-7.1 6.8-35.5 12-44.5 16 -4.9 2.2-8.6 4.6-11 7 13.5-7.2 28.7-10.3 44.1-14.2C482.4 346.9 487.2 343.2 488.6 339.6z" class="c"/><path d="M489.8 338c-0.1 0.2-0.2 0.3-0.3 0.5 0.1-0.1 0.1-0.2 0.2-0.3C489.8 338.1 489.8 338 489.8 338z" class="b"/><path d="M520.6 331.3c-1.3-8.4-5.9-13.9-12.1-17.7 -14.4 3.1-21.1 13.7-23.1 17.5 2.3 1.1 3.9 2.4 4.5 4.1C504 326.6 515.2 329 520.6 331.3z" class="d"/><path d="M512.7 322.6c-1.7-3.2-4-6-6.7-8.3 -9.5 2.8-15.3 8.9-18.4 13.2 2 2.2 2.8 5.2 2.3 7.8 0 0 0 0 0 0 10.4-6.4 19.2-6.8 25.3-5.6C514.8 327.3 514 324.9 512.7 322.6z" class="e"/><path d="M489.8 337.9c-0.9 1.9-3.6 3.6-7.2 5.3 5.8 2.4 15.4 8.6 16.4 24.1 6-3.1 11.5-7 15.4-11.6C512.1 350.3 505.6 340.2 489.8 337.9z" class="d"/><path d="M510.3 348.9c-3.8-4.7-10.1-9.5-20.5-11 -0.9 1.9-3.6 3.6-7.2 5.3 4.6 1.9 11.8 6.3 14.9 16.1 2.5-1.6 5-3.3 7.4-5.1C507 352.7 508.8 350.9 510.3 348.9z" class="e"/><path d="M488.6 339.6c-1.3 1.3-3.4 2.5-5.9 3.6 0.7 0.3 1.5 0.7 2.3 1.1C486.4 343 487.7 341.4 488.6 339.6z" class="f"/><path d="M474.4 346.3c-3.8 1.3-7.9 2.4-11.9 3.6 4 4.4 9.2 13 8.8 27.1 4.1-0.9 8.7-2.1 13.3-3.7C485.2 365.9 484 355 474.4 346.3z" class="d"/><path d="M474.4 346.3c-3.8 1.3-7.9 2.4-11.9 3.6 3.4 3.8 7.6 10.5 8.6 21 4.5-1.2 9-2.8 13.4-4.7C483.8 359.8 481.2 352.5 474.4 346.3z" class="e"/><path d="M474.4 346.3c-3.8 1.3-7.9 2.4-11.9 3.6 0.5 0.5 1 1.1 1.5 1.8 4.2-1.1 8.4-2.1 12.6-3.2C475.9 347.7 475.2 347 474.4 346.3z" class="f"/><path d="M448.9 380.3c-10.6 0-17.7-2.5-19.5-7.2 -1.8-4.8 1-11.9 14.5-17.9 3.2-1.4 8.8-3 15.2-4.7 13.5-3.8 32-8.9 30.6-14.5 -1.4-5.9-15.4-8.7-39.3-7.9l0-0.8c17.2-0.6 38.1 0.4 40.1 8.5 1.5 6.4-15.8 11.2-31.2 15.5 -6.1 1.7-11.9 3.3-15.1 4.7 -10.8 4.8-16.2 11.2-14.1 16.9 2.3 6.1 14.6 8.2 32 5.6 5.4-0.8 52.8-8.7 57.6-34.2 3.1-16.5-2.5-27-17.6-33.3 -2.7-1.1-5.2-2.1-7.4-3.1 -9.6-3.9-14.9-6.1-18.2-8.3l0.4-0.6c3.2 2.2 8.5 4.3 18.1 8.3 2.2 0.9 4.7 1.9 7.5 3.1 7.1 2.9 12 6.7 15.1 11.5 3.7 5.9 4.7 13.5 3 22.6 -1.9 9.8-10.1 18.2-24.5 25 -14.1 6.6-29.5 9.3-33.8 9.9C457.4 379.9 452.9 380.3 448.9 380.3z" class="g"/><path d="M452.7 352.7c-3.6 1-6.6 2-8.6 2.9 -12.3 5.4-16.3 12.2-14.3 17.4 2.5 6.5 15.6 8.4 32.4 5.9 0.2 0 0.4-0.1 0.5-0.1C462.2 363.9 456.7 356.3 452.7 352.7z" class="h"/><path d="M452.7 352.7c-3.6 1-6.6 2-8.6 2.9 -10.3 4.5-14.8 10-14.8 14.8 2.3 1.4 4.9 2.3 7.7 2.6 8.5 1.2 17 1.2 25.2-0.1C460.6 361.8 456.1 355.8 452.7 352.7z" class="i"/><path d="M448.9 380.3h0c-10.8 0-17.7-2.6-19.5-7.2 -1.8-4.8 1-11.9 14.5-17.9 1.8-0.8 4.5-1.7 8.7-2.9l0.2-0.1 0.2 0.1c4.3 3.9 9.6 11.7 10.2 26.3l0 0.4 -0.9 0.1C457.4 379.9 452.9 380.3 448.9 380.3zM452.6 353.1c-4 1.2-6.6 2-8.4 2.8 -10.8 4.8-16.2 11.2-14.1 16.9 1.6 4.3 8.3 6.7 18.7 6.7h0c4 0 8.5-0.4 13.3-1.1l0.2 0C461.7 364.4 456.7 356.9 452.6 353.1z" class="j"/><path d="M496.6 308.2c-7.9-3.2-13.1-5.3-16.7-7.2 -8.8 7.2-11.4 20.7-12.2 26.8 3.9 0.2 7.8 0.7 11.2 1.4C482 316.7 491.5 310.6 496.6 308.2z" class="e"/><path d="M485.8 303.8c-0.2-0.1-0.3-0.2-0.5-0.3 -2.1-0.9-3.9-1.7-5.4-2.5 -8.8 7.2-11.4 20.7-12.2 26.8 3.9 0.2 7.8 0.7 11.2 1.4 3-12.3 12.2-18.3 17.4-20.9 -2.5-1.1-5.1-2.1-7.8-2.9C488.1 305 486.6 304.2 485.8 303.8z" class="e"/><path d="M485.3 303.5c0.2 0.1 0.3 0.2 0.5 0.3 0.8 0.4 2.3 1.2 2.7 1.6 2.7 0.8 5.3 1.8 7.8 2.9 0.1 0 0.2-0.1 0.3-0.1C492 306.3 488.3 304.8 485.3 303.5z" class="e"/><path d="M405.3 280.4c-35.7-18.7-54.2-29.5-55.1-50.7 -0.7-17.2 9.6-38.5 10.4-53.1l-22 10.2c1 15.9-7.4 22.7-9 35.5 -4.6 35.7 22.3 51.4 32.2 54.3 12 11.7 25.6 20.6 39.1 28.2C405.6 299.6 413.1 289.3 405.3 280.4z" class="a"/><path d="M405.3 280.4c-35.7-18.7-54.2-29.5-55.1-50.7 -0.7-17.2 9.6-38.5 10.4-53.1l-22 10.2c1 15.9-7.4 22.7-9 35.5 -4.6 35.7 22.3 51.4 32.2 54.3 12 11.7 25.6 20.6 39.1 28.2C405.6 299.6 413.1 289.3 405.3 280.4z" class="h"/><path d="M338.6 191.8c-0.8 12.5-7.6 19.1-9 30.4 -1.7 13.2 0.9 23.7 5.4 31.8 3.4 2.2 7.6 2.4 11.8 1 4.2-1.6 7.2-4.7 9-8.5 -3.5-5-5.4-10.5-5.6-16.9 -0.5-11.1 3.7-23.9 6.9-35.5C350.4 196.1 343.5 196.8 338.6 191.8z" class="i"/><path d="M355.5 198.5c-3 10.5-6.1 21.5-5.7 31.2 0.9 21.6 19.6 32.3 55.2 51 3.4 3.9 3.8 8 2.7 11.9 0.3 0.1 0.5 0.1 0.8 0.2 1.1-4.1 0.7-8.5-3-12.7l0-0.1 -0.1 0c-35.4-18.6-54-29.3-54.9-50.4 -0.4-9.6 2.7-20.5 5.6-30.9 2-7 3.9-13.7 4.6-19.6 -0.3 0-0.5 0.1-0.8 0.1C359.3 185 357.4 191.5 355.5 198.5z" class="l"/><path d="M407.8 292.6c-1.2 4.6-4.4 8.7-7 11.6 -16.2-9.1-28.5-17.9-38.8-28l-0.1-0.1 -0.1 0c-5.4-1.6-14.3-6.4-21.4-14.7 -8.9-10.5-12.5-24-10.6-39.1 0.7-5.2 2.4-9.3 4.3-13.6 2.6-6.1 5.3-12.3 4.8-21.6l21.2-9.8c0 0.7-0.1 1.4-0.2 2.1 0.3 0 0.5-0.1 0.8-0.1 0.1-0.9 0.2-1.7 0.2-2.6l0-0.6 -22.8 10.6 0 0.3c0.6 9.3-2.1 15.5-4.7 21.5 -1.8 4.2-3.7 8.6-4.3 13.8 -2 15.3 1.7 29.1 10.8 39.7 7.1 8.4 16.1 13.3 21.6 14.9 10.4 10.1 22.8 19.1 39.1 28.2l0.3 0.1 0.2-0.2c2.7-2.9 6.1-7.3 7.4-12.1C408.3 292.8 408.1 292.7 407.8 292.6z" class="j"/><path d="M359.8 184.2c3.1 0.3 9.3-4.4 14.4-4.8 4.1-0.3 12.5-0.5 16.8-1.7 -0.3-2.7-0.6-5.5-1-8.3C384.8 170.2 367.4 173.5 359.8 184.2z" class="d"/><path d="M359.8 184.2c3.1 0.3 9.3-4.4 14.4-4.8 1.8-0.2 4.7-0.3 7.6-0.5 -0.9-2.3-1.6-4.9-2.2-7.1C372.6 174 364.3 177.8 359.8 184.2z" class="e"/><path d="M374.7 190.3c-4.9 1.1-17.6 6.6-20.9 18.3 5.2-4.8 14.1-10 21.2-10.4 6.1-0.3 16.9-1 21.9-3 -2.1-3.1-3.3-6.9-4.1-11C388.8 185.7 378.6 189.5 374.7 190.3z" class="d"/><path d="M377.1 189.7c-0.9 0.3-1.7 0.5-2.3 0.6 -4.9 1.1-17.6 6.6-20.9 18.3 5.2-4.8 14.1-10 21.2-10.4 3.9-0.2 9.8-0.6 14.8-1.4 -0.8-1.3-1.2-3.3-2.3-4.1C385.9 191.3 383.1 191.2 377.1 189.7z" class="e"/><path d="M401.7 201.5c-6.1 2.4-17.5 7.1-21.7 9.5 -5.7 3.2-26.1 14.1-25.3 32.3 2.9-6.5 10.2-16.1 21.6-20.5 11.4-4.4 24.2-11.9 24.2-11.9s-11.2 13.6-10.5 25.4c0.6 11.8 2.2 22.3 2.4 28.7 4-6.7 4.7-13.2 6.2-24.6 1.7-13.3 7.3-25 16.7-31.6 -4.1-1.6-7-3-9.6-4.5C404.2 203.4 402.8 202.4 401.7 201.5z" class="d"/><path d="M395 204.2c-5.9 2.4-12 5.1-15.1 6.8 -5.7 3.2-26.1 14.1-25.3 32.3 3-6.4 10.2-16.1 21.6-20.5 11.4-4.4 24.2-11.9 24.2-11.9s-11.2 13.6-10.5 25.4c0.6 11.8 2.2 22.3 2.4 28.7 4-6.7 4.7-13.2 6.2-24.6 1.3-10.1 4.3-18.7 10.3-25.6C403.5 212.1 398.9 208.4 395 204.2z" class="e"/><path d="M472.3 289.1c0.1 0.4 0.1 0.7 0.2 1 0.4-0.1 0.8-0.2 1.1-0.4C473.3 289.6 472.8 289.4 472.3 289.1z" fill="none"/><path d="M436.4 263.1c-12.9-12.2-28.4-11.8-39.4-2.6 -16.7 13.9-12.9 57.3 33.6 51.3" class="a"/><path d="M430.6 311.8l0.1-0.4c-1.4 0.2-2.8 0.5-4.2 0.8C427.7 312.1 429.1 312 430.6 311.8z" class="b"/><path d="M430.7 310.9l5.7-47.8c-12.9-12.2-28.4-11.8-39.4-2.6 -6.2 5.2-9.6 14.5-9 23.8C392.5 310.5 426.7 309.9 430.7 310.9z" class="b"/><path d="M406.2 259.3c9.6-4.1 20.1-1.6 29.2 2.8 -12.7-11.1-27.6-10.6-38.3-1.6 -5.1 4.3-8.3 11.3-9 18.8C390.5 269.9 397.7 262.8 406.2 259.3z" class="c"/><path d="M429.8 285.7c17.3-6.6 34.6-0.3 42.6 3.5 -0.7-3.8-1.3-9.1-2.5-17.5C442.8 267.7 429.8 285.7 429.8 285.7z" class="d"/><path d="M465.7 271.2c-24.2-1.6-36 14.5-36 14.5 15.9-6.1 31.8-1.3 40.4 2.5 -0.6-2.1-1-4.2-1.5-6.2C467.7 278.4 466.8 274.8 465.7 271.2z" class="e"/><path d="M422.2 312.8c-7.1 0-13.3-1.3-18.5-3.9 -6.2-3.1-10.9-8-13.6-14.2 -5.2-11.9-2.3-27.1 6.6-34.5 7.1-5.9 15.5-8.1 23.7-6.3 10.1 2.3 15.7 9.5 15.7 9.5 -12-11.3-27.2-12.3-38.9-2.6 -8.7 7.2-11.5 22-6.4 33.6 5.8 13.3 20.3 19.5 39.7 17.1C430.5 311.4 424.9 312.8 422.2 312.8z" class="g"/><path d="M427.4 274.1c0 0-1.7-11.3-4.8-19.3 -5.7-1.6-11.3-1.4-16.6 0.5C411.8 258.1 421.8 264 427.4 274.1z" class="e"/><path d="M423.6 258c-0.3-1.1-0.7-2.1-1.1-3.1 -5.7-1.6-11.3-1.4-16.6 0.5 1.4 0.7 3 1.5 4.8 2.5C415 256.9 419.4 257.1 423.6 258z" class="f"/><path d="M422.4 287c0 0-7.8-17-26.7-25.4 -2.7 2.6-4.7 6-6 9.9C399.2 274.1 415.1 279.4 422.4 287z" class="e"/><path d="M399.1 263.3c-1.1-0.6-2.2-1.1-3.4-1.7 -2.7 2.6-4.7 6-6 9.9 0.5 0.1 1 0.3 1.5 0.4C393.2 268.5 396 265.7 399.1 263.3z" class="f"/><path d="M388.9 255c-0.3 9.1-3.5 24.5-3.3 32.7 0.3 8.2-3.6 32.4-5.2 36.8 -14.6-7.4-37.7-12-37.7-12s16.7-42.5 14.5-73.8" class="a"/><path d="M388.7 254.7c-0.3 9.1-3.4 24.8-3.1 33 0.3 8.2-3.6 32.4-5.2 36.8 -14.6-7.4-37.7-12-37.7-12s16.6-42.5 14.4-73.7" class="a"/><path d="M357.2 238.7c2.2 31.2-14.4 73.8-14.4 73.8s12.4 1.6 26.9 9c4.8-1.7 8.6-21.4 10.6-34.4 1.3-8.1 8.3-23.2 8.6-32.3l-11.7-9L357.2 238.7z" class="b"/><path d="M359.7 247.2c-0.3-2.3-1.7-6.9-2.6-8.8 2.2 32.7-14.4 74-14.4 74s1.4 0.2 3.7 0.7C354.7 292.1 360.8 270 359.7 247.2z" class="c"/><path d="M383.3 259.9c0 0-8.8-9-25.8-8.4 -0.2 3.4-0.6 6.9-1.1 10.4C362.4 260.1 374.3 257.4 383.3 259.9z" class="e"/><path d="M359.8 251.4c-0.8 0-1.6 0-2.4 0 -0.2 3.4-0.6 6.9-1.1 10.4 0.9-0.3 2-0.6 3.2-0.9C359.8 257.8 359.9 254.6 359.8 251.4z" class="f"/><path d="M383.3 281.3c0 0-13.2-10.6-28.6-9.9 -0.9 4.4-1.9 8.7-2.9 12.8C357.4 282.8 371.5 279.8 383.3 281.3z" class="e"/><path d="M354.6 271.4c-0.9 4.4-1.9 8.7-2.9 12.8 1.1-0.3 2.6-0.6 4.3-1 0.9-3.9 1.7-7.8 2.3-11.8C357.1 271.4 355.9 271.4 354.6 271.4z" class="f"/><path d="M374.5 301c0 0-9.9-11.4-24.5-10.8 -1.2 4.1-2.3 7.9-3.4 11C352.3 300.2 366.1 298.1 374.5 301z" class="e"/><path d="M350.1 290.1c-1.2 4.1-2.3 7.9-3.4 11 1.1-0.2 2.6-0.5 4.3-0.7 1.1-3.4 2.2-6.8 3.1-10.2C352.9 290.2 351.5 290.1 350.1 290.1z" class="f"/><path d="M380.6 325l-0.4-0.2c-14.4-7.3-37.3-11.9-37.6-12l-0.5-0.1 0.2-0.4c0.2-0.4 16.9-43.3 14.7-74.1 0 0 1 8.1 0.8 12.4 -1.7 27.1-13.1 57.6-14.6 61.5 3.3 0.7 23.6 5.1 36.9 11.7 1.6-5.2 5.3-28.2 5-36.2 -0.2-4.4 0.9-11 1.9-17.3 0.9-5.4 1.8-11.1 1.9-15.3 0 0-0.2 9.9-1.1 15.4 -1 6.3-2 12.8-1.9 17.1 0.3 8.4-3.7 32.7-5.2 36.9L380.6 325z" class="g"/><path d="M340.9 335.5c-6.1 1.6-9.9 0.6-11.5-3.4 -1.1-2.9 1.8-19.9 9.5-23.4 7.7-3.5 10.7 3.6 10.7 3.6L340.9 335.5z" class="h"/><path d="M343.4 329l6.3-16.6c0 0-3-7.2-10.7-3.6 -5.8 2.7-8.9 13-9.6 19.1C332.8 331.1 338.3 330.8 343.4 329z" class="i"/><path d="M336.1 336.6c-3.5 0-5.8-1.5-7-4.4 -0.7-1.7 0-7 1.4-11.7 1.1-3.7 3.7-10.1 8.3-12.2 1.5-0.7 2.9-1 4.2-1 4.9 0 7 4.8 7.1 4.9l0.1 0.1 -0.1 0.1 -8.8 23.4 -0.2 0C339.1 336.4 337.5 336.6 336.1 336.6zM342.9 308.1c-1.2 0-2.5 0.3-3.9 0.9 -4.3 2-6.8 8.2-7.9 11.7 -1.5 4.9-2 9.9-1.5 11.2 1 2.6 3.1 3.9 6.3 3.9 1.3 0 2.8-0.2 4.5-0.6l8.6-22.8C348.9 311.6 347 308.1 342.9 308.1z" class="j"/><path d="M362.6 337.6c-9.6 3.3-17.9 2.7-21.7-2.1 -3.8-4.7 2.2-24.3 7.6-26.8 5.4-2.5 13.2-1 15.1 4.4C365.4 318.5 362.6 337.6 362.6 337.6z" class="h"/><path d="M363.7 328.4c0.5-5.7 0.9-12.5-0.1-15.3 -1.9-5.4-9.7-6.9-15.1-4.4 -4 1.9-8.3 13.2-8.7 20.8C346 336.1 355.9 332.8 363.7 328.4z" class="i"/><path d="M351.5 340.1c-4.9 0-8.7-1.5-10.9-4.3 -2.2-2.8-1-9.4-0.4-12.1 1.5-6.4 4.7-13.7 8.1-15.3 1.7-0.8 3.7-1.2 5.7-1.2 4.8 0 8.7 2.3 9.9 5.8 1.9 5.4-0.8 23.9-1 24.7l0 0.2 -0.2 0.1C358.6 339.4 354.9 340.1 351.5 340.1zM354 307.9c-1.9 0-3.8 0.4-5.4 1.2 -2.7 1.3-6 7.6-7.6 14.8 -1.3 5.4-1.2 9.7 0.2 11.5 2.1 2.6 5.6 4 10.3 4 3.3 0 6.9-0.7 10.8-2 0.3-2.2 2.7-19.2 1-24.1C362.1 310 358.4 307.9 354 307.9z" class="j"/><path d="M362.6 337.6c-7.8-3.6-5.8-24.2 0.7-27 4.2-1.7 16.7 2 18.1 10.3 1.4 8.3-1.8 12.9-4 15.1C373.9 339.5 366.4 339.4 362.6 337.6z" class="h"/><path d="M374.5 312.6c-4.1-2.2-8.9-2.9-11.2-2 -4.6 1.9-6.9 12.6-5.2 20.1 3 3.4 9.3 4.4 13.7 2.7C376.6 331.7 380 317.8 374.5 312.6z" class="i"/><path d="M368.9 339.2c-2.4 0-4.8-0.5-6.5-1.3 -3.4-1.6-5.4-6.5-5.3-13.1 0.1-6 2.2-13 6-14.6 0.7-0.3 1.6-0.4 2.7-0.4 5.7 0 14.7 3.9 15.9 11.1 1.4 8-1.5 12.8-4.1 15.4C375.8 338.2 372.6 339.2 368.9 339.2zM365.9 310.6c-1 0-1.8 0.1-2.4 0.4 -3 1.3-5.4 7.2-5.5 13.9 -0.1 4.9 1.1 10.7 4.8 12.4 1.6 0.8 3.9 1.2 6.2 1.2 3.5 0 6.5-1 8.2-2.7 2.5-2.5 5.2-7.1 3.9-14.7C379.8 314.1 370.7 310.6 365.9 310.6z" class="j"/><path d="M383.2 57.3c13.3-0.4 30.3-11.9 34.9-12 -8.3 5.3-23.1 23-23.1 23L383.2 57.3z" class="e"/><path d="M393.3 57.3c8.9-3.3 14.1-7.7 21.6-11.2 -6.9 2.6-20.7 10.8-31.8 11.2l1.5 1.4C387.5 59.1 390.4 58.4 393.3 57.3z" class="f"/><path d="M395 68.7L382.5 57l0.7 0c8.2-0.3 18-4.9 25.2-8.2 4.5-2.1 8-3.7 9.8-3.8l1 0 -0.8 0.5c-8.2 5.2-22.9 22.7-23.1 22.9L395 68.7zM383.8 57.5l11.1 10.3c1.7-2 14.1-16.5 22-22.1 -1.9 0.5-4.8 1.9-8.4 3.5C401.5 52.6 392 57.1 383.8 57.5z" class="m"/><path d="M393.8 65.4c5.9-7.3 25.4-30.7 45.7-18.3 19.6 12 12 46.9-18 57.9C412 78 393.8 65.4 393.8 65.4z" class="n"/><path d="M393.8 65.4c5.9-7.3 25.4-30.7 45.7-18.3 19.6 12 8.8 43.9-21.1 53.1C409 73.2 393.8 65.4 393.8 65.4z" class="o"/><path d="M421.3 105.4l-0.1-0.3c-9.3-26.6-27.4-39.3-27.6-39.5l-0.2-0.2 0.2-0.2c4.4-5.4 17.8-21.9 33.6-22 4.3 0 8.5 1.2 12.4 3.6 7.9 4.8 11.8 13.5 10.8 23.8 -0.7 6.9-3.6 14-8.3 19.9 -5.2 6.6-12.3 11.6-20.5 14.7L421.3 105.4zM394.2 65.4c2.2 1.6 18.6 14.4 27.5 39.3 15.7-5.9 26.8-19.2 28.3-34.1 1-10.1-2.9-18.6-10.6-23.3 -3.9-2.4-7.9-3.5-12.1-3.5C411.8 43.9 398.7 59.8 394.2 65.4z" class="p"/><path d="M406.4 77.9c5.6-7.6 13.3-17.6 19.1-19.8 5.7-2.2 17.1 0.8 15.2 14.6 -2.1 14.4-22 25.3-22 25.3L406.4 77.9z" class="q"/><path d="M424.1 64.2c-5.3 4.5-11.3 10.9-15.3 17.7l9.8 16c0 0 19.5-11 22-25.3C441.5 68 432.4 57.1 424.1 64.2z" class="r"/><path d="M418.5 98.3l-12.5-20.4 0.1-0.2c6.4-8.7 13.6-17.8 19.2-19.9 1.1-0.4 2.4-0.7 3.8-0.7 3.6 0 7 1.4 9.1 3.9 2.4 2.8 3.3 6.8 2.6 11.6 -2 14.3-21.9 25.4-22.1 25.5L418.5 98.3zM406.8 77.9l12 19.6c2.2-1.3 19.7-11.7 21.6-25 0.7-4.7-0.2-8.5-2.5-11.2 -2.1-2.4-5.3-3.7-8.7-3.7 -1.3 0-2.5 0.2-3.6 0.6C420.2 60.4 413 69.4 406.8 77.9z" class="p"/><path d="M297 43.3c14.8-2.3 31.6 11.7 41.3 11 -2 3.4-15 9.9-15 9.9L297 43.3z" class="e"/><path d="M297 43.3l0.1 0.1c14.6 0.4 19.8 6.9 30.4 9.3 3.6 0.8 6.9 1.7 10.8 1.7 0 0 0-0.1 0.1-0.1C328.6 55 311.9 41 297 43.3z" class="f"/><path d="M323.4 64.6l-27-21.4 0.6-0.1c1.1-0.2 2.2-0.2 3.3-0.3 7.6 0 15.5 3.5 22.5 6.5 5.9 2.6 11.4 5 15.5 4.8l0.5 0 -0.3 0.5c-2 3.4-14.5 9.7-15.1 10L323.4 64.6zM297.7 43.5l25.7 20.4c1.4-0.7 11.8-6.1 14.4-9.3 0 0 0 0 0 0 -4.1 0-9.5-2.3-15.2-4.8 -7-3.1-14.8-6.5-22.3-6.5C299.4 43.3 298.6 43.4 297.7 43.5z" class="m"/><path d="M296.2 112.2c-6.8-11.2-19.7-27.6-17.6-46.6 2.1-19 19.9-36 46.3-5.9C303.2 77.7 296.2 112.2 296.2 112.2z" class="n"/><path d="M298.7 103.9c-7.4-6-21.8-22.9-20.1-38.3 2.1-19 19.9-36 46.3-5.9C303.2 77.7 298.7 103.9 298.7 103.9z" class="o"/><path d="M296.3 113l-0.4-0.6c-1-1.6-2.1-3.3-3.2-5.1 -6.9-10.7-16.3-25.3-14.4-41.7 1.2-10.8 7.9-22.5 19.8-22.6 8.2 0 17.6 5.7 27.1 16.5l0.2 0.2 -0.2 0.2c-11.2 9.3-18.4 23-22.5 32.9 -4.4 10.7-6.2 19.4-6.2 19.5L296.3 113zM298.1 43.6c-11.5 0.1-18 11.5-19.2 22.1 -1.8 16.2 7.5 30.7 14.3 41.3 1 1.6 2 3.1 2.9 4.5 0.5-2.3 2.4-9.8 6.1-18.9 4.1-9.9 11.2-23.6 22.4-33C315.2 49.1 306.1 43.5 298.1 43.6z" class="p"/><path d="M299.5 100.5c-5.8-10.5-15-23.3-12.8-36 1.6-9.1 12.8-16.4 25 10.5C308.3 78.6 299.5 100.5 299.5 100.5z" class="q"/><path d="M309.3 78.7c-1.7-3.4-6.6-14.3-12.8-16.5 -4.5-1.6-9.8 1.1-10 8 0.7 10.8 8.1 21.4 13.1 30.3C299.5 100.5 305.3 86 309.3 78.7z" class="r"/><path d="M299.6 101.1l-0.3-0.5c-0.9-1.6-1.8-3.2-2.8-4.9 -5.6-9.6-11.9-20.4-10-31.3 0.7-4.1 3.6-8.5 8.2-8.5 3.3 0 9.9 2.4 17.3 18.9l0.1 0.2 -0.1 0.1c-3.3 3.6-12 25.3-12.1 25.5L299.6 101.1zM294.6 56.4c-4.3 0-6.9 4.2-7.6 8.1 -1.9 10.7 4.4 21.4 10 30.9 0.9 1.5 1.7 3 2.5 4.4 1.4-3.4 8.7-21.3 11.8-25C304 58.8 297.7 56.4 294.6 56.4z" class="p"/><path d="M296.1 117.7c0.1 7.7-6.8 13.2-7.3 26.7 -0.6 18.1 11 26.8 15.4 29.6 11.5 7.1 26.2 6.2 37.7 10.7 4.2 0.7 8.3 1.6 10.9 1.1 16.7-3 22.7-1.9 35.2-2.5 20.1-1 51.7-15.7 35-56.8 -4-14 10-59.5-57.8-74.5 -3.6-2.2-2.5-7.8-2.5-7.8s-4.5 1.7-2.8 8.3c-3.2-3.1-5.4-9.5-3.4-14.7 -3.9 2.7-6.4 7.8-4.5 14.2 -4.7-1.4-10.4-6.5-12.9-12.8 -0.5 3.5-1.8 7.9 5.4 13.9C334.3 54.5 295.6 63.6 296.1 117.7z" class="k"/><path d="M414.5 115c0.1-6.2 0.4-12.6-0.9-23.1 -1.1-8.9-4-18.3-12.7-25 -8.2-6-19.5-11.2-35.3-14.7 -0.2-0.1-0.3-0.2-0.5-0.3 -1.1-0.6-2-1.6-2.8-2.5 -0.7-1.3-0.9-2.8-0.4-4.1 -1.2 1-2.6 3.3-1.6 7.5 -0.1-0.1-0.2-0.2-0.3-0.3 0 0.2 0 0.4 0.1 0.6 -5-2.8-6.8-8.7-4.7-13.8 -3 2.8-4.7 7.3-3.2 12.8 0.1 0.2 0.2 0.4 0.3 0.6 -6.2-0.9-11.4-5.5-13.4-11.5 -0.5 3.2-0.6 7.3 5.6 12.4 -10.2 1.4-48.9 10.4-48.4 64.6 0.1 7.7-6.8 13.2-7.3 26.6 -0.3 7.8 1.7 13.8 4.4 18.4 2.2 3.1 4.9 5.7 8.6 7.7 12.9 6.9 26.4 7.2 40.5 8.6 5.8 0.6 12.8-0.1 19.8-0.5 17.3-1 34.3 0.5 43.9-7.4 5.3-4.3 9.5-14.1 9.7-22.6C416.2 134.4 414.3 124.2 414.5 115z" class="b"/><path d="M298.7 121.2c2.1-7.1-0.9-12.3 6-31.4 3.7-10.3 8.5-19.3 17.2-25.2 6.5-4.6 13.1-8 20.3-10.6 -13 2.5-46.3 13.9-45.8 64.2 0.1 7.7-6.8 13.2-7.3 26.6 -0.2 6.5 0.6 13.1 4.3 18.8C287.3 145.7 294.7 134.7 298.7 121.2z" class="s"/><path d="M313.3 155.6c0.8-0.8-12.9-13.3-17.6-34.4 -0.8 3.3-2.6 6.5-4.2 10.5C294.2 139.9 300.7 153.8 313.3 155.6z" class="e"/><path d="M319.3 169.4c-20.1-4-27.1-22.5-29.5-32.4 -0.5 2.2-0.9 4.6-1 7.4 -0.2 5 0.6 9.3 1.9 13C303.8 173.9 319.3 169.4 319.3 169.4z" class="e"/><path d="M291.5 131.7c0.6 1.9 0.8 2.6 1.9 5 0.9-3.6 2.4-6.7 3.7-10.3 -0.6-2-0.9-3-1.4-5.2C294.9 124.5 293.1 127.7 291.5 131.7z" class="t"/><path d="M288.8 144.4c-0.2 5 0.6 9.3 1.9 13 0.5 0.6 0.9 1.1 1.4 1.6 -0.8-5.2-1.1-11.2-0.4-15.6 -0.9-2.7-1.3-4-1.9-6.4C289.3 139.2 288.9 141.6 288.8 144.4z" class="t"/><path d="M394.3 155.7c4.9 1.4 23.9-4.2 32.6-16.7 -0.7-3.9-2-8.1-3.8-12.6C417.8 135.3 412.9 145.4 394.3 155.7z" class="d"/><path d="M415.5 138.3c-4.3 5.3-11.2 11.8-21.2 17.4 3.3 0.9 12.9-1.3 21.5-6.6C415.7 149 416.1 144.4 415.5 138.3z" class="e"/><path d="M427.8 146.8c-4.3 6-18.8 22.8-43.7 24 -0.5 0.6 22.8 3.9 41.1-9.8C427 157 427.9 152.3 427.8 146.8z" class="u"/><path d="M413.5 160.8c-7.3 5.1-16.9 9.5-29.4 10 -0.3 0.4 11.3 2.1 24.6-1.7C410.4 168 412.3 163.8 413.5 160.8z" class="e"/><path d="M351.3 186.3L351.3 186.3c-2 0-4.5-0.4-7.1-0.9 -0.8-0.1-1.6-0.3-2.3-0.4l-0.1 0c-4.7-1.8-9.8-2.8-15.3-3.7 -7.7-1.4-15.6-2.8-22.5-7 -4.9-3-16.2-12-15.6-29.8 0.3-7.6 2.5-12.6 4.5-17 1.5-3.4 2.8-6.3 2.8-9.7 -0.2-23.2 6.6-40.8 20.3-52.3 10.7-9 22.6-11.7 27.8-12.5 -6.4-5.6-5.6-9.9-5.1-13.1 0-0.2 0.1-0.4 0.1-0.6l0.2-1 0.4 0.9c2.6 6.4 8 11 12.3 12.5 -1.5-5.7 0.3-10.9 4.7-14l0.7-0.5 -0.3 0.8c-1.7 4.7 0 10.4 2.7 13.7 -1-5.9 3.2-7.6 3.2-7.6l0.5-0.2 -0.1 0.5c0 0.1-1 5.4 2.3 7.5 55.3 12.3 56.3 44.7 57 64 0.1 4.3 0.3 8.1 1 10.7 6.4 15.7 6.3 28.9-0.2 39.2 -7.9 12.4-23.8 17.5-35 18 -3.7 0.2-6.8 0.2-9.8 0.2 -7.3 0.1-13.6 0.1-25.4 2.3C352.5 186.2 351.9 186.3 351.3 186.3zM342 184.4c0.8 0.1 1.6 0.3 2.3 0.4 2.6 0.5 5.1 0.9 7 0.9h0c0.6 0 1.1 0 1.5-0.1 11.9-2.1 18.2-2.2 25.5-2.3 3 0 6.1-0.1 9.8-0.2 11.1-0.6 26.8-5.5 34.6-17.8 6.4-10.1 6.5-23.1 0.1-38.7l0 0c-0.8-2.7-0.9-6.4-1-10.8 -0.6-19.2-1.6-51.3-56.6-63.5l0 0 0 0c-3-1.9-2.9-6.1-2.7-7.6 -1.1 0.6-3.5 2.7-2.2 7.7l0.2 1 -0.7-0.7c-3.1-3-5.2-9-3.8-14.1 -3.9 3.1-5.2 8-3.7 13.3l0.1 0.5 -0.5-0.1c-4.2-1.2-9.8-5.7-12.7-12.1 -0.5 3.3-1 7.4 5.4 12.7l0.5 0.4 -0.6 0.1c-4.8 0.6-17.1 3.1-28.1 12.4 -13.5 11.5-20.3 28.9-20.1 51.9 0 3.5-1.3 6.4-2.9 9.9 -2 4.4-4.2 9.3-4.4 16.8 -0.6 17.6 10.5 26.4 15.3 29.3 6.8 4.2 14.7 5.6 22.3 6.9C332.2 181.7 337.3 182.6 342 184.4z" class="l"/><path d="M327.9 162.4c0.8 1.9 4.1 9.7 8 12.1 4.1 2.5 11.4 1.9 13.5 0.2 2.5-1.9 6.1-9.5 7.2-13.3C354 160.5 327.9 162.4 327.9 162.4z" class="k"/><path d="M343.1 176.5h0c-1.7 0-4.9-0.2-7.4-1.7 -3.6-2.2-6.7-8.6-8.1-12.3l-0.1-0.4 0.4 0c0.2 0 16.2-1.2 24.3-1.2 2.5 0 4 0.1 4.6 0.3l0.2 0.1 -0.1 0.3c-1.1 3.9-4.8 11.5-7.3 13.4C348.5 175.9 345.9 176.5 343.1 176.5zM328.3 162.7c2.5 5.9 5.3 10.1 7.8 11.6 1.7 1.1 4.3 1.6 7.1 1.6l0 0c2.7 0 5.1-0.6 6.2-1.4 2.3-1.8 5.9-9 7-12.9 -0.5-0.1-1.7-0.2-4.1-0.2C344.8 161.5 330.8 162.5 328.3 162.7z" class="l"/><path d="M361.4 135.8c2.4 9.7 10.4 13.9 16.8 13.1 9.5-1.3 10.2-14.2 10.2-14.2s-5.9 4.9-13.6 5.4C365.8 140.6 361.4 135.8 361.4 135.8z" class="o"/><path d="M362.2 121.2c0 0 4.2-21.9 14.3-21.3 12.4 0.7 12.2 26.8 12.2 26.8S379 102.8 362.2 121.2z" class="o"/><path d="M305.4 123.7c0 0 3.7-24.5 16.6-22.9 10 1.3 8.7 25.3 8.7 25.3S320.4 102.5 305.4 123.7z" class="o"/><path d="M305 132.2c1.4 9.1 7 13.6 13 13.3 8.8-0.4 11.8-12.1 11.8-12.1s-5.8 4-12.9 3.8C308.6 136.9 305 132.2 305 132.2z" class="o"/><path d="M325.2 176.8c3.2 1.3 6.2 4.3 9.9 7.9 4.9 4.9 14.7 6.1 20.5 2.4 4.7-2.9 6.6-8.3 6.6-8.3" class="k"/><path d="M350.3 185c4.6-0.8 8.5-2.5 11.8-6.2l-15.3-1.2 -21.6-0.8c0.2 0.1 0.5 0.2 0.7 0.3 3.2 0.7 6.1 2.2 9 4.4C339.3 184.8 344.5 186 350.3 185z" class="b"/><path d="M347.5 189.5c-4.7 0-9.6-1.6-12.6-4.6 -3.7-3.7-6.6-6.6-9.8-7.8 0 0 3.1 0.7 6.9 4.2 1 1 2.1 2.1 3.3 3.2 4.8 4.8 14.4 5.9 20.1 2.4 4.6-2.9 6.7-8 6.7-8.1 0 0-0.6 2.9-2.7 5.4 -1 1.1-2.2 2.3-3.7 3.2C353.4 188.8 350.5 189.5 347.5 189.5z" class="l"/><path d="M331 163.3c-0.3 0.3 3 7.4 7.7 10.1 2.3 1.3 7.7 0.9 9.2-0.3 2.3-1.9 4.4-7.2 4.8-9.9C346.8 162.1 335.4 158.8 331 163.3z" class="u"/><path d="M331 163.3c-0.2 0.2 2.1 5.5 5.8 8.7 0.2-2.1 1.2-3.8 2.3-5.1 2.6-3.1 10.6-3 10.6 3.9 1.5-2.4 2.6-5.7 2.9-7.6C346.8 162.1 335.4 158.8 331 163.3z" fill="#710000"/><path d="M347.9 173.1c0.8-0.7 1.6-1.8 2.3-3 -1.6-1.3-4.4-1.8-6.4-0.1 -3.3-2.5-6.3 0.3-7.3 1.8 0.7 0.7 1.5 1.2 2.2 1.7C341.1 174.7 346.4 174.3 347.9 173.1z" fill="#FF8080"/><path d="M348 170.8c-0.3-1.6-3.8-0.8-5.6 1.5 -0.4-4.1-5-2-6-0.6 0.7 0.7 1.5 1.2 2.2 1.7C341.1 174.7 348.6 174.6 348 170.8z" fill="#FFB8B8"/><path d="M342.9 174.5L342.9 174.5c-1.8 0-3.4-0.3-4.4-0.9 -0.8-0.4-1.5-1-2.3-1.7l-0.2-0.2 0.1-0.2c0.9-1.3 2.7-2.9 4.8-2.9 0.9 0 1.9 0.3 2.7 0.9 0.9-0.6 1.9-1 3-1 1.3 0 2.6 0.5 3.6 1.2l0.2 0.1 -0.1 0.2c-0.8 1.4-1.6 2.4-2.4 3.1C347.2 174 345.1 174.5 342.9 174.5zM336.8 171.6c0.7 0.6 1.3 1.1 2 1.5 0.9 0.5 2.4 0.8 4.1 0.8 2.1 0 4-0.5 4.8-1.1 0.7-0.6 1.4-1.5 2.1-2.7 -0.9-0.6-2-1-3.1-1 -1 0-2 0.4-2.8 1l-0.2 0.1 -0.2-0.1c-0.8-0.6-1.7-0.9-2.6-0.9C339.2 169.2 337.6 170.7 336.8 171.6z" class="v"/><path d="M342.4 172.3c0 0 0.5-2.1 1.2-2.6l0.3 0.5C343.5 170.5 342.7 171.8 342.4 172.3z" class="v"/><path d="M342.9 174.5L342.9 174.5c-1.8 0-3.4-0.3-4.4-0.9 -4.5-2.6-7.7-9.2-7.8-10.2 0-0.1 0-0.2 0.1-0.4 1.5-1.6 3.9-2.3 7.4-2.3 3.7 0 8 0.8 11.4 1.5 1.1 0.2 2.2 0.4 3.1 0.6l0.3 0 0 0.3c-0.4 2.8-2.4 8.1-4.9 10.1C347.2 174 345.1 174.5 342.9 174.5zM331.3 163.4c0.1 0.9 3.3 7.3 7.6 9.7 0.9 0.5 2.4 0.8 4.1 0.8 2.1 0 4-0.5 4.8-1.1 2.2-1.8 4.2-6.8 4.6-9.5 -0.8-0.1-1.8-0.3-2.8-0.6 -3.4-0.7-7.6-1.5-11.3-1.5C335 161.3 332.7 162 331.3 163.4z" class="l"/><path d="M330.6 163.5c0.8 1.8 4.1 6.1 5 5.8 0.9-0.3 1.5-4.9 2.1-6.6C336.2 162.2 330.6 163.5 330.6 163.5z" class="w"/><path d="M330.6 163.5c0.8 1.8 4 5.8 5 5.8 0.1 0 0.2-5.1-0.6-6C333.5 162.7 330.6 163.5 330.6 163.5z" class="x"/><path d="M335.5 169.6L335.5 169.6c-1.2 0-4.4-4.3-5.1-6l-0.1-0.3 0.3-0.1c0.2 0 3.8-0.9 6-0.9 0.5 0 0.9 0 1.2 0.1l0.3 0.1 -0.1 0.3c-0.2 0.6-0.4 1.5-0.6 2.5 -0.6 2.5-0.9 4.1-1.6 4.3C335.6 169.6 335.5 169.6 335.5 169.6zM331 163.6c1 2 3.8 5.4 4.5 5.4h0c0.4-0.1 1-2.6 1.2-3.9 0.2-0.8 0.4-1.6 0.5-2.2 -0.2 0-0.4 0-0.7 0C334.8 162.9 332 163.4 331 163.6z" class="y"/><path d="M345.9 163.7c0.5 1.4 2.4 5.5 3 5.5 0.6 0 3.1-4.4 3.1-5.5C350.4 163.3 345.9 163.7 345.9 163.7z" class="w"/><path d="M345.9 163.7c0.5 1.4 2.4 5.5 3 5.5 0 0 0.8-4.3 0.8-5.4C348.2 163.4 345.9 163.7 345.9 163.7z" class="x"/><path d="M348.9 169.5L348.9 169.5l0 0c-1 0-3.1-5.2-3.2-5.7l-0.1-0.3 0.4 0c0 0 2-0.2 3.8-0.2 1.1 0 1.9 0.1 2.3 0.2l0.2 0.1 0 0.2c0 0.7-0.7 2.2-1.3 3.3C350 168.7 349.3 169.5 348.9 169.5zM346.3 164c0.6 1.6 2.1 4.6 2.6 5 0.6-0.3 2.5-3.8 2.8-5 -0.4-0.1-1.1-0.1-1.9-0.1C348.4 163.8 347 163.9 346.3 164z" class="y"/><path d="M338.4 162.4c0 0 17.9 7 23-4.7 3.2-7.5-3.8-19.3-22.3-11 -15.3-5.7-19.6 0.9-18.1 10C321.6 160.8 328.1 166.9 338.4 162.4z" fill="#DBCFCC"/><path d="M338.5 156.9c0 0 11.7 11.5 19.9-0.1 4.5-6.4-0.9-18.4-19.3-10 -15.3-5.7-19.6 0.9-18.1 10C321.6 160.8 334.1 165.4 338.5 156.9z" class="o"/><path d="M349.5 164.7c-5.2 0-10.3-1.7-11.1-2 -2.4 1-4.7 1.6-6.9 1.6l0 0c-6.5 0-10.3-4.4-10.8-7.4 -0.7-4.2-0.2-7.6 1.7-9.7 1.5-1.8 3.8-2.7 6.9-2.7 2.7 0 6 0.7 9.8 2.1 4.2-1.9 8-2.8 11.4-2.9 4.6 0 8.2 1.7 10.3 4.9 1.8 2.8 2.2 6.4 0.9 9.4C359.6 162.4 355.5 164.7 349.5 164.7zM338.4 162.1l0.1 0c0.1 0 5.4 2.1 11 2 5.8 0 9.7-2.3 11.6-6.6 1.2-2.8 0.9-6.2-0.8-8.8 -2-3-5.5-4.6-9.9-4.6 -3.3 0-7.1 1-11.3 2.9l-0.1 0 -0.1 0c-3.8-1.4-7-2.1-9.7-2.1 -2.9 0-5.1 0.9-6.5 2.5 -1.7 2-2.2 5.2-1.5 9.3 0.5 2.8 4.1 7 10.3 7h0c2.1 0 4.4-0.5 6.8-1.6L338.4 162.1z" class="z"/><path d="M338.1 162.4c-0.8-5.1 0.6-15.3 0.7-15.7l0.6 0.1c0 0.1-1.4 10.5-0.7 15.6L338.1 162.4z" class="z"/><path d="M348.1 155.6c-2.2 0-3.8-0.4-3.9-0.5 0 0-0.3-0.1-0.3-0.3 0-0.3 0.4-0.2 0.4-0.2 0.1 0 7.4 2 10.9-2.8C355.3 151.9 353.6 155.6 348.1 155.6z" class="z"/><path d="M349.8 159.1c-3.1 0-6.1-1-7.3-2.1 0 0-0.3-0.3-0.2-0.5 0.2-0.2 0.6 0.1 0.6 0.1 1.3 1.2 5 2.3 8.2 1.9 1.8-0.2 4.4-1 6.1-3.3 0 0-1.8 3.4-6 3.9C350.7 159.1 350.3 159.1 349.8 159.1z" class="z"/><path d="M344.2 160.7c0 0-0.4-0.2-0.3-0.5 0.1-0.2 0.6 0 0.6 0 0 0 4.4 2.5 9.4 0C353.9 160.3 350.1 163.4 344.2 160.7z" class="z"/><path d="M332.2 156.9c-7.1 0-8.1-6.2-8.1-6.2 0.1 0.3 1.7 6.9 10.2 5.5 0 0 0.3 0 0.4 0.3 0 0.2-0.3 0.3-0.3 0.3C333.7 156.9 332.9 156.9 332.2 156.9z" class="z"/><path d="M330.3 159.8c-5.2 0-6.5-4.4-6.5-4.4 0.1 0.2 2.4 5.6 9.9 3.3 0 0 0.4-0.1 0.5 0.2 0.1 0.3-0.3 0.4-0.3 0.4C332.5 159.6 331.3 159.8 330.3 159.8z" class="z"/><path d="M331.2 161.9c-2.3 0-3.7-1.6-3.7-1.6 0 0 2.8 1.8 6.2 0.5 0 0 0.4-0.2 0.6 0.1 0.1 0.3-0.4 0.4-0.4 0.4C333 161.8 332.1 161.9 331.2 161.9z" class="z"/><path d="M330.7 128.9c-1 8.9-7.7 11.5-15 10.5 -6.6-0.9-11.1-4.7-10.1-13.6 1-8.9 7.1-18.7 13.9-18.9C326.7 106.8 331.8 120.1 330.7 128.9z"/><path d="M330.6 129.9c-1 8.2-7.6 10.5-14.9 9.6 -6.6-0.8-11.2-4.5-10.2-12.7 1-8.2 7-17.3 13.7-17.3C326.4 109.4 331.6 121.7 330.6 129.9z" class="A"/><path d="M330.6 129.9c-1 8.2-25.6 9.4-25.1-3.1 0.3-8.3 7-17.3 13.7-17.3C326.4 109.4 331.6 121.7 330.6 129.9z" class="B"/><path d="M318.8 139.9c-1 0-2-0.1-3-0.2 -7.7-1-11.3-5.5-10.4-13 0.5-4.1 2.2-8.5 4.7-11.9 2.7-3.7 6-5.7 9.2-5.7h0c2.2 0 4.4 1.1 6.3 3.2 3.7 4.2 6 11.7 5.3 17.5C330.2 136.3 325.8 139.9 318.8 139.9zM319.3 109.7h0c-6.5 0.1-12.5 9.1-13.4 17.1 -0.8 7.3 2.5 11.4 10 12.4 1 0.1 2 0.2 3 0.2 3.9 0 10.6-1.3 11.6-9.6 0.7-5.7-1.6-13-5.2-17.1C323.3 110.8 321.3 109.7 319.3 109.7z"/><path d="M337.9 124.5c-8.2 5.6-11.6 13.3-11.8 20.5 0.7 3.3 28.4 9.5 24.3-6.3" class="k"/><path d="M350.4 138.9c0-0.1 0.2-0.2 0.2-0.3l-12.7-14.1c-8.2 5.6-11.6 13.3-11.8 20.5 0.4 1.6 7 3.8 13.3 3.9C344.6 147.6 350 144.9 350.4 138.9z" class="b"/><path d="M337.3 124.9c-7.7 5.6-10.9 13.1-11.2 20.1 0.1 0.6 1 1.2 2.4 1.8C328.2 137.8 331.1 132.1 337.3 124.9z" class="s"/><path d="M340.3 149.2c-3.4 0-7-0.6-9.5-1.4 -1.4-0.4-4.6-1.5-4.9-2.8l0 0 0 0c0.2-6 2.5-11.6 6.6-16.1 1.5-1.7 5.7-4.2 5.7-4.2 -7.3 5-11.4 12.2-11.7 20.3 0.2 0.6 1.6 1.5 4.5 2.4 5.2 1.5 14.3 2.5 18.1-1.3 1.7-1.7 2.2-4.2 1.4-7.4 0 0 1.2 2.2 0.8 4.4 -0.2 1.3-0.9 2.5-1.8 3.4C347.4 148.5 343.9 149.2 340.3 149.2z" class="l"/><path d="M338.1 156.1c4.1 0.3 16.8-8.3 12.6-12.2 -3.7-3.4-9 4.2-11.9 3.9 -3.3-0.4-9.8-5.8-13.1-2.6C323.4 147.5 333.1 155.7 338.1 156.1z" fill="#EAA4BD"/><path d="M337.8 153.5c4.1 0.3 13.3-5.8 11.9-9.3 -1.7-4.2-8 3.9-10.8 3.6 -3.3-0.4-10.5-6.3-13.1-2.6C324 147.7 332.8 153.2 337.8 153.5z" fill="#FFD2D9"/><path d="M338.9 147.8c-3.3-0.4-10.2-6.1-13.1-2.6 -0.1 0.1-0.4 1.3-0.4 1.4 2.1-3.4 7.8 0.1 11.6 2 1.1 0.5 2.3 0.8 3.2 0.2 3-1.6 5.7-4.2 8.7-5.6C346.7 141.6 341.4 148 338.9 147.8z" fill="#FFF8F9"/><path d="M338.3 156.3h0c-0.1 0-0.2 0-0.2 0 -4.3-0.3-11.5-5.9-12.8-9.3 -0.4-1.1-0.1-1.8 0.3-2.1 0.7-0.7 1.6-1 2.8-1 2 0 4.4 1.1 6.5 2.1 1.5 0.7 3 1.4 4.1 1.5 1 0.1 2.4-0.9 4-2 1.8-1.3 3.8-2.7 5.7-2.8 0.9 0 1.7 0.3 2.4 1 1 0.9 1.2 2.1 0.6 3.5C349.9 151.3 341.6 156.3 338.3 156.3zM328.4 144.4c-1 0-1.7 0.3-2.4 0.9 -0.3 0.3-0.4 0.8-0.1 1.5 1.2 3.2 8.2 8.7 12.3 8.9 0.1 0 0.1 0 0.2 0 3.1 0 11.2-4.8 12.7-8.9 0.5-1.2 0.3-2.1-0.5-2.9 -0.6-0.5-1.2-0.8-2-0.8 -1.7 0-3.6 1.4-5.4 2.7 -1.7 1.2-3.2 2.3-4.3 2.1 -1.1-0.1-2.6-0.8-4.2-1.6C332.6 145.5 330.3 144.4 328.4 144.4z" fill="#99364C"/><path d="M320.8 90.4c1.3-8.8 5.1-11.1 7.7-12.3 2.6-1.2 13.1-4.1 16.6-9.9 -1.1 6.4-3.5 8.9-12.7 12.9C325.7 84.1 320.8 90.4 320.8 90.4z" class="e"/><path d="M330.9 104.1c-0.6-5.3 1.3-7.2 2.7-8.3 1.3-1.1 7.1-4.4 8.3-8.3 0.3 3.9-0.7 5.7-5.5 9.5C332.9 99.6 330.9 104.1 330.9 104.1z" class="e"/><path d="M353.1 103.6c0.5-5.3-1.4-7.2-2.8-8.3 -1.4-1.1-7.1-4.3-8.4-8.3 -0.3 3.9 0.8 5.7 5.6 9.4C351.1 99.2 353.1 103.6 353.1 103.6z" class="e"/><path d="M316.3 76.1c3.1-8.8 7.7-10.5 10.8-11.2 3.1-0.7 15.2-1.7 20.2-7 -2.4 6.4-5.6 8.5-16.4 10.9C322.9 70.5 316.3 76.1 316.3 76.1z" class="e"/><path d="M378.6 75.7c-3.2-8.8-7.9-10.4-11-11.1 -3.1-0.7-15.2-1.5-20.3-6.8 2.5 6.4 5.7 8.5 16.6 10.7C371.9 70.2 378.6 75.7 378.6 75.7z" class="e"/><path d="M368.1 91.5c-0.9-8.8-4.6-11.3-7.2-12.6 -2.5-1.3-12.5-4.5-15.8-10.4 0.8 6.4 2.8 8.9 11.7 13.3C363.5 84.9 368.1 91.5 368.1 91.5z" class="e"/><path d="M389.1 129.8c-0.2 9.7-7.4 13.1-15.5 12.8 -7.4-0.3-12.8-4-12.5-13.7 0.2-9.7 6-20.9 13.4-21.7C382.4 106.3 389.3 120.1 389.1 129.8z"/><path d="M389 130.8c-0.2 9-7.4 12.1-15.5 11.8 -7.4-0.3-12.8-3.8-12.6-12.7 0.2-9 6-19.3 13.4-20.1C382.3 109.1 389.3 121.8 389 130.8z" class="A"/><path d="M389 130.8c-0.2 9-27.6 11.7-28.1-0.9 -0.3-9 6-19.3 13.4-20.1C382.3 109.1 389.3 121.8 389 130.8z" class="B"/><path d="M374.7 142.9c-0.4 0-0.8 0-1.2 0 -8.6-0.3-13-4.8-12.8-13 0.1-4.5 1.6-9.4 4-13.3 2.6-4.2 6.1-6.7 9.6-7.1 2.7-0.3 5.5 1 8 3.5 4.2 4.3 7.1 11.7 7 17.7C389.1 138.5 383.8 142.9 374.7 142.9zM375 110.1c-0.2 0-0.4 0-0.6 0 -7.2 0.7-12.9 11-13.1 19.8 -0.2 8 3.9 12.1 12.3 12.4 0.4 0 0.8 0 1.2 0 8.7-0.1 13.9-4.3 14-11.6 0.1-5.8-2.7-13.1-6.8-17.3C379.7 111.3 377.3 110.1 375 110.1z"/><path d="M377.4 119.5c-4.5 0-8.1 4.7-8.1 10.6 0 5.9 3.5 10.7 8 10.7 4.5 0 8.1-4.7 8.1-10.6C385.5 124.3 381.9 119.5 377.4 119.5z" class="C"/><path d="M377.4 119.5c-4.5 0-8.1 4.7-8.1 10.6 0 3 0.9 5.7 2.4 7.7 5.5 0.3 11-2.5 13.7-6.9 0-0.2 0-0.4 0-0.6C385.5 124.3 381.9 119.5 377.4 119.5z" class="D"/><path d="M377.4 118.9c-4.8-0.1-8.8 5-8.8 11.2 0 6.2 3.8 11.3 8.7 11.4 4.8 0.1 8.8-5 8.8-11.2C386.1 124 382.2 118.9 377.4 118.9zM377.3 140.1c-4.1 0-7.4-4.6-7.3-10.1 0-5.5 3.4-10 7.5-9.9 4.1 0 7.4 4.6 7.3 10.1C384.7 135.7 381.3 140.2 377.3 140.1z" class="E"/><path d="M378.2 124.5c-2.9 0-5.3 3.1-5.3 7 0 3.9 2.3 7.1 5.2 7.1 2.9 0 5.3-3.1 5.3-7C383.4 127.7 381.1 124.5 378.2 124.5z"/><path d="M374.9 123.8c-1.5 0-2.7 1.1-2.7 2.4 0 1.4 1.2 2.5 2.7 2.5 1.5 0 2.7-1.1 2.7-2.4C377.6 124.9 376.4 123.8 374.9 123.8z" class="x"/><path d="M379.7 123.1c-0.5 0-0.9 0.4-0.9 0.9 0 0.5 0.4 0.9 0.9 0.9 0.5 0 0.9-0.4 0.9-0.9C380.6 123.5 380.2 123.1 379.7 123.1z" class="x"/><path d="M322.4 118.4c-4.1-0.4-7.8 3.6-8.3 8.9 -0.5 5.4 2.3 10 6.4 10.4 4.1 0.4 7.8-3.6 8.3-8.9C329.3 123.5 326.5 118.8 322.4 118.4z" class="C"/><path d="M322.4 118.4c-4.1-0.4-7.8 3.6-8.3 8.9 -0.3 2.7 0.3 5.3 1.5 7.2 5 0.7 10.2-1.4 13.1-5.1 0-0.2 0.1-0.4 0.1-0.6C329.3 123.5 326.5 118.8 322.4 118.4z" class="D"/><path d="M322.5 117.9c-4.4-0.4-8.4 3.8-9 9.4 -0.6 5.7 2.6 10.6 6.9 11.1 4.4 0.4 8.4-3.8 9-9.4C330 123.3 326.9 118.3 322.5 117.9zM320.6 137.2c-3.7-0.4-6.3-4.8-5.8-9.8 0.5-5 3.9-8.8 7.6-8.4 3.7 0.4 6.3 4.8 5.8 9.8C327.7 133.8 324.3 137.6 320.6 137.2z" class="E"/><path d="M322.7 123.1c-2.6-0.3-5.1 2.4-5.4 5.9 -0.3 3.5 1.5 6.6 4.2 6.9 2.6 0.3 5.1-2.4 5.4-5.9C327.2 126.4 325.3 123.3 322.7 123.1z"/><path d="M319.8 122.2c-1.3-0.1-2.5 0.8-2.7 2 -0.1 1.2 0.9 2.4 2.2 2.5 1.3 0.1 2.5-0.8 2.7-2C322.1 123.4 321.1 122.3 319.8 122.2z" class="x"/><ellipse transform="matrix(0.0991 -0.9951 0.9951 0.0991 169.9153 433.0055)" cx="324.1" cy="122.7" rx="0.8" ry="0.9" class="x"/><ellipse transform="matrix(0.7785 0.6277 -0.6277 0.7785 184.593 -178.5185)" cx="345.2" cy="172.3" rx="0.4" ry="0.8" fill="#FFDEDE"/></svg>