<svg version="1.1" id="Layer_1" xmlns="http://www.w3.org/2000/svg" xmlns:xlink="http://www.w3.org/1999/xlink" viewBox="0 0 768 430" enable-background="new 0 0 768 430" xml:space="preserve"> 
<g>
	<path fill="#1B78B9" d="M499.663,400.07c0,0,7.229-6.641,4.372-11.356l-13.262-8.367c-2.911-1.457-6.008-7.15-13.729-7.597
		c-11.922-0.688-11.922,5.863-11.922,5.863L499.663,400.07z"/>
	<path fill="#E6E7E7" d="M490.773,380.347c0,0,2.758,0.382,4.043,0.716c1.282,0.334,3.371-1.759,3.371-1.759l5.231,1.797
		c0,0-1.249,2.866-0.918,3.675c0.331,0.807,1.261,1.967,1.534,3.938C504.035,388.714,493.043,387.926,490.773,380.347z"/>
	<polygon fill="#E6E7E7" points="466.727,377.734 499.895,398.843 500.667,397.838 467.267,376.652 	"/>
	<path fill="#1B78B9" d="M605.679,331.856c0,0-5.996-2.021-11.183,3.629l-0.184,15.135c0.348,3.24-1.875,8.856,1.91,15.265
		c3.894,6.588,11.706,4.933,11.706,4.933L605.679,331.856z"/>
	<path fill="#E6E7E7" d="M594.617,351.162c0,0-1.167-2.527-1.579-3.787c-0.413-1.262-6.091-2.146-6.091-2.146l1.476-5.114
		c0,0,3.087-0.497,3.591-1.213c0.502-0.71,1.274-2.754,2.482-3.416C594.496,335.485,599.77,345.156,594.617,351.162z"/>
	<path fill="#FAC19F" d="M419.209,232.952c-8.037,1.037-15.64,0.778-20.032,0.974c-5.535,0.249-4.218,4.67-1.356,5.199
		c6.997,1.312,14.849,1.506,14.849,1.506s-2.029,14.579,10.077,14.581C439.707,255.219,439.264,230.359,419.209,232.952z"/>
	<path fill="#020000" d="M421.554,247.432c-0.884,0-1.708-0.267-2.4-0.925c-0.744-0.707-1.143-1.608-1.153-2.604
		c-0.029-2.708,2.799-5.525,4.158-6.88l0.337-0.337c0.438-0.453,1.157-0.463,1.607-0.027c0.452,0.439,0.462,1.157,0.025,1.608
		l-0.364,0.366c-0.96,0.956-3.509,3.495-3.492,5.244c0.007,0.39,0.145,0.693,0.448,0.983c1.354,1.29,5.629-1.778,7.619-3.705
		c0.45-0.436,1.171-0.426,1.606,0.026c0.438,0.451,0.425,1.171-0.023,1.607C429.328,243.363,425.004,247.432,421.554,247.432z"/>
	<polygon fill="#FAC19F" points="432.734,240.719 442.411,240.719 442.411,246.807 433.084,246.126 	"/>
	<g>
		<defs>
			<path id="SVGID_1_" d="M516.776,237.901c-25.343,1.71-77.185,1.71-77.185,1.71l0.122,8.497l77.062,3.152V237.901z"/>
		</defs>
		<clipPath id="SVGID_2_">
			<use xlink:href="#SVGID_1_"  overflow="visible"/>
		</clipPath>
		<polygon clip-path="url(#SVGID_2_)" fill="#FFFFFF" points="514.711,252.498 438.703,249.284 438.703,238.751 514.711,236.763 		
			"/>
		<g clip-path="url(#SVGID_2_)">
			<rect x="442.649" y="237.091" fill="#EB1A29" width="2.272" height="14.979"/>
			<rect x="448.086" y="237.091" fill="#1B78B9" width="2.273" height="14.979"/>
			<rect x="453.528" y="237.091" fill="#EB1A29" width="2.272" height="14.979"/>
			<rect x="458.964" y="237.091" fill="#1B78B9" width="2.272" height="14.979"/>
			<rect x="464.403" y="237.091" fill="#EB1A29" width="2.273" height="14.979"/>
			<rect x="469.839" y="237.091" fill="#1B78B9" width="2.272" height="14.979"/>
			<rect x="475.281" y="237.091" fill="#EB1A29" width="2.271" height="14.979"/>
			<rect x="480.718" y="237.091" fill="#1B78B9" width="2.273" height="14.979"/>
			<rect x="486.156" y="237.091" fill="#EB1A29" width="2.272" height="14.979"/>
			<rect x="491.593" y="237.091" fill="#1B78B9" width="2.273" height="14.979"/>
			<rect x="497.026" y="237.091" fill="#EB1A29" width="2.273" height="14.979"/>
			<rect x="502.471" y="237.091" fill="#1B78B9" width="2.272" height="14.979"/>
			<rect x="507.903" y="237.091" fill="#EB1A29" width="2.274" height="14.979"/>
		</g>
	</g>
	<path fill="#E6E7E7" d="M516.776,252.397c-0.017,0-0.033,0-0.046-0.001l-77.063-3.152c-0.603-0.024-1.08-0.517-1.088-1.118
		l-0.122-8.5c-0.004-0.304,0.112-0.598,0.327-0.813c0.214-0.216,0.504-0.339,0.808-0.339c0.52,0,52.095-0.02,77.107-1.707
		c0.312-0.016,0.624,0.09,0.854,0.305s0.359,0.515,0.359,0.83v13.359c0,0.309-0.125,0.606-0.349,0.819
		C517.352,252.285,517.068,252.397,516.776,252.397z M440.834,247.017l74.805,3.06v-10.962c-23.34,1.478-67.228,1.618-74.894,1.632
		L440.834,247.017z"/>
	<polygon fill="#AE8962" points="519.269,307.042 553.84,346.408 589.436,347.29 590.602,338.53 562.508,334.741 539.813,302.448 	
		"/>
	<polygon fill="#C2986E" points="519.269,307.042 495.502,380.151 504.452,381.576 546.807,304.774 	"/>
	<path fill="#FAC19F" d="M511.676,233.274l2.551,8.172c0,0,3.742,2.184,6.741-2.413l-2.249-9.016L511.676,233.274z"/>
	<g>
		<path fill="#FAC19F" d="M578.188,193.6c-5.05,22.173-39.033,41.816-76.472,41.816c-42.051,0-66.459-27.415-71.591-45.532
			c-8.55-30.173,3.502-86.357,81.239-79.032C587.878,118.062,583.453,170.463,578.188,193.6z"/>
		<path fill="#020000" d="M500.213,180.558c-0.993,6.267-3.912,10.978-6.52,10.526c-2.606-0.452-3.908-5.901-2.918-12.168
			c1.003-6.271,3.922-10.987,6.527-10.531C499.904,168.842,501.212,174.286,500.213,180.558z"/>
		<path fill="#EB1A29" d="M466.037,199.961c0,0,16.332,6.88,25.989-2.105c2.53,15.888-0.221,22.119-5.89,21.886
			C477.914,219.402,466.037,199.961,466.037,199.961z"/>
		<polygon fill="#FAC19F" points="501.716,177.752 494.401,178.833 501.691,184.259 		"/>
		<path fill="#3B2315" d="M494.401,155.008c0,0,3.109-5.988,9.467-4.154c3.534,1.02,5.957,5.415,7.362,10.588
			C511.23,161.441,503.85,149.479,494.401,155.008z"/>
		<path fill="#F38E86" d="M501.712,193.212c-0.034,1.314,3.166,2.431,7.152,2.489c3.988,0.066,7.251-0.951,7.289-2.262
			c0.039-1.32-3.169-2.436-7.152-2.496C505.012,190.885,501.753,191.897,501.712,193.212z"/>
		<path fill="#020000" d="M464.016,177.182c-0.992,6.272-3.911,10.984-6.515,10.528c-2.604-0.451-3.909-5.9-2.919-12.17
			c1.001-6.27,3.919-10.983,6.526-10.529C463.712,165.466,465.012,170.914,464.016,177.182z"/>
		<polygon fill="#FAC19F" points="466.037,174.708 458.72,175.789 466.008,181.214 		"/>
		<path fill="#3B2315" d="M466.452,150.024c0,0-1.616-6.208-7.052-5.411c-3.023,0.441-5.66,4.284-7.578,9.032
			C451.822,153.645,459.619,143.298,466.452,150.024z"/>
		<path fill="#F38E86" d="M440.356,185.853c-0.389,1.256,2.402,3.185,6.226,4.304c3.827,1.121,7.242,1.013,7.631-0.244
			c0.391-1.256-2.404-3.187-6.226-4.308C444.158,184.49,440.747,184.592,440.356,185.853z"/>
		<path fill="#020000" d="M465.658,194.928c-0.306,0-0.609-0.122-0.834-0.363l-4.213-4.537c-0.222-0.24-0.33-0.564-0.298-0.891
			c0.033-0.326,0.207-0.622,0.475-0.811l4.64-3.279c0.514-0.36,1.222-0.239,1.585,0.272c0.361,0.513,0.239,1.222-0.272,1.585
			l-3.578,2.528l3.329,3.585c0.427,0.46,0.397,1.18-0.062,1.606C466.212,194.828,465.934,194.928,465.658,194.928z"/>
		<path fill="#5F3816" d="M543.496,101.017c0,0-16.472-12.779-34.279-12.01c-17.808,0.766-23.562,9.936-23.562,9.936
			s-16.446-9.174-39.587,5.904c-23.139,15.078-16.911,30.664-7.375,40.631c0,0,0.131-9.754,4.474-12.313
			c0,0,4.035,10.016,31.635,9.759c0,0-4.091-9.963-0.256-13.543c0,0,10.984,26.318,53.406,21.719c0,0-5.024-5.622-4.555-9.199
			c0,0,10.685,4.405,12.478,9.741c0,0,8.344-5.651,7.621-9.997c0,0,7.011,26.878,22.746,30.41l1.835,25.334l2.744,11.413
			c0,0,27.211-17.243,20.246-57.445c0,0,7.666-11.241,3.578-22.489c-4.086-11.244-24.276-18.397-24.276-18.397
			S563.217,93.35,543.496,101.017z"/>
		<path fill="#FAC19F" d="M565.021,181.655c0,0,7.861-13.106,17.892-7.657c6.492,3.523,7.733,19.903-4.362,21.621
			c-6.049,0.86-13.529-5.057-13.529-5.057V181.655z"/>
		<path fill="#CE9277" d="M567.218,182.887c0,0,4.743-8.855,10.798-5.176c3.919,2.383,4.669,13.45-2.632,14.609
			c-3.649,0.581-8.166-3.415-8.166-3.415V182.887z"/>
	</g>
	<g>
		<defs>
			<path id="SVGID_3_" d="M529.888,244.009c-2.604-8.604-11.146-9.684-17.885-2.491l1.447,72.954l39.415-4.978
				C552.865,309.494,540.048,277.562,529.888,244.009z"/>
		</defs>
		<clipPath id="SVGID_4_">
			<use xlink:href="#SVGID_3_"  overflow="visible"/>
		</clipPath>
		<polygon clip-path="url(#SVGID_4_)" fill="#FFFFFF" points="558.355,316.275 507.139,316.275 507.139,236.053 533.688,236.053 		
			"/>
		<g clip-path="url(#SVGID_4_)">
			
				<rect x="526.634" y="221.767" transform="matrix(0.0851 0.9964 -0.9964 0.0851 725.0319 -303.4913)" fill="#EB1A29" width="2.273" height="42.55"/>
			
				<rect x="527.1" y="227.184" transform="matrix(0.0855 0.9963 -0.9963 0.0855 730.6435 -299.0791)" fill="#1B78B9" width="2.274" height="42.552"/>
			
				<rect x="527.565" y="232.601" transform="matrix(0.0859 0.9963 -0.9963 0.0859 736.2129 -294.6819)" fill="#EB1A29" width="2.273" height="42.556"/>
			
				<rect x="528.033" y="238.018" transform="matrix(0.0846 0.9964 -0.9964 0.0846 742.741 -289.9235)" fill="#1B78B9" width="2.273" height="42.553"/>
			
				<rect x="528.496" y="243.44" transform="matrix(0.0855 0.9963 -0.9963 0.0855 748.1176 -285.6016)" fill="#EB1A29" width="2.274" height="42.553"/>
			
				<rect x="528.964" y="248.857" transform="matrix(0.0851 0.9964 -0.9964 0.0851 754.1564 -281.0267)" fill="#1B78B9" width="2.273" height="42.551"/>
			
				<rect x="529.427" y="254.277" transform="matrix(0.0859 0.9963 -0.9963 0.0859 759.5074 -276.7263)" fill="#EB1A29" width="2.273" height="42.549"/>
			
				<rect x="529.892" y="259.693" transform="matrix(0.0851 0.9964 -0.9964 0.0851 765.8022 -272.0385)" fill="#1B78B9" width="2.273" height="42.55"/>
			
				<rect x="530.358" y="265.109" transform="matrix(0.0851 0.9964 -0.9964 0.0851 771.6273 -267.5452)" fill="#EB1A29" width="2.273" height="42.553"/>
			
				<rect x="530.824" y="270.527" transform="matrix(0.0855 0.9963 -0.9963 0.0855 777.2142 -263.1572)" fill="#1B78B9" width="2.273" height="42.554"/>
			
				<rect x="531.29" y="275.944" transform="matrix(0.085 0.9964 -0.9964 0.085 783.2955 -258.5529)" fill="#EB1A29" width="2.274" height="42.551"/>
			
				<rect x="531.754" y="281.365" transform="matrix(0.085 0.9964 -0.9964 0.085 789.1411 -254.0462)" fill="#1B78B9" width="2.275" height="42.552"/>
			
				<rect x="532.22" y="286.78" transform="matrix(0.0851 0.9964 -0.9964 0.0851 794.924 -249.5729)" fill="#EB1A29" width="2.273" height="42.556"/>
		</g>
	</g>
	<path fill="#E6E7E7" d="M513.45,315.609c-0.272,0-0.536-0.097-0.744-0.275c-0.244-0.212-0.388-0.516-0.394-0.839l-1.448-72.955
		c-0.006-0.297,0.105-0.583,0.308-0.8c3.09-3.297,6.708-5.112,10.188-5.112c4.497,0,8.092,3.01,9.616,8.053
		c10.028,33.116,22.817,65.071,22.944,65.39c0.131,0.327,0.104,0.696-0.075,1.001c-0.178,0.303-0.486,0.507-0.837,0.55
		l-39.417,4.979C513.545,315.606,513.497,315.609,513.45,315.609z M513.147,241.966l1.414,71.222l36.706-4.638
		c-2.55-6.47-13.588-34.883-22.468-64.211c-1.237-4.091-3.949-6.438-7.44-6.438C518.628,237.901,515.725,239.341,513.147,241.966z"
		/>
	<path fill="#FAC19F" d="M580.463,278.258l5.229,2.652c0,0-1.063,2.654,0,5.136c1.061,2.482,2.815,5.264,2.474,7.445
		c-0.344,2.183,3.638,3.255,3.765,0.173c0.131-3.083-0.341-6.078-0.341-6.078s33.056-13.838,15.264-13.81
		c-4.656,0.006-14.066,1.999-17.875,3.538l-6.335-2.223L580.463,278.258z"/>
	<g>
		<defs>
			<path id="SVGID_5_" d="M520.01,250.604c7.282,3.673,61.578,31.02,61.578,31.02l4.104-7.8c0,0-52.049-29.272-59.357-33.98
				C519.023,235.134,512.727,246.935,520.01,250.604z"/>
		</defs>
		<clipPath id="SVGID_6_">
			<use xlink:href="#SVGID_5_"  overflow="visible"/>
		</clipPath>
		<polygon clip-path="url(#SVGID_6_)" fill="#FFFFFF" points="521.526,235.321 514.157,248.531 581.937,284.217 588.101,272.441 		
			"/>
		<g clip-path="url(#SVGID_6_)">
			
				<rect x="577.851" y="265.681" transform="matrix(0.8739 0.4861 -0.4861 0.8739 207.3453 -246.6081)" fill="#EB1A29" width="2.274" height="21.309"/>
			
				<rect x="573.102" y="263.042" transform="matrix(0.874 0.486 -0.486 0.874 205.377 -244.5707)" fill="#1B78B9" width="2.273" height="21.308"/>
			
				<rect x="568.349" y="260.4" transform="matrix(0.8741 0.4858 -0.4858 0.8741 203.3868 -242.5175)" fill="#EB1A29" width="2.274" height="21.308"/>
			
				<rect x="563.591" y="257.756" transform="matrix(0.8737 0.4865 -0.4865 0.8737 201.9078 -240.8268)" fill="#1B78B9" width="2.272" height="21.311"/>
			
				<rect x="558.837" y="255.115" transform="matrix(0.8738 0.4863 -0.4863 0.8738 199.9164 -238.7724)" fill="#EB1A29" width="2.273" height="21.31"/>
			
				<rect x="554.087" y="252.477" transform="matrix(0.874 0.486 -0.486 0.874 197.8452 -236.6619)" fill="#1B78B9" width="2.273" height="21.305"/>
			
				<rect x="549.333" y="249.832" transform="matrix(0.8738 0.4863 -0.4863 0.8738 196.1478 -234.8174)" fill="#EB1A29" width="2.273" height="21.309"/>
			
				<rect x="544.577" y="247.191" transform="matrix(0.8738 0.4863 -0.4863 0.8738 194.2632 -232.8382)" fill="#1B78B9" width="2.273" height="21.309"/>
			
				<rect x="539.822" y="244.547" transform="matrix(0.8739 0.4861 -0.4861 0.8739 192.2762 -230.787)" fill="#EB1A29" width="2.274" height="21.31"/>
			
				<rect x="535.074" y="241.907" transform="matrix(0.8739 0.4861 -0.4861 0.8739 190.3935 -228.8117)" fill="#1B78B9" width="2.274" height="21.308"/>
			
				<rect x="530.32" y="239.263" transform="matrix(0.8741 0.4858 -0.4858 0.8741 188.3309 -226.7051)" fill="#EB1A29" width="2.274" height="21.312"/>
			
				<rect x="525.564" y="236.621" transform="matrix(0.8739 0.4861 -0.4861 0.8739 186.6257 -224.8549)" fill="#1B78B9" width="2.274" height="21.311"/>
			
				<rect x="520.815" y="233.98" transform="matrix(0.8739 0.4861 -0.4861 0.8739 184.743 -222.8796)" fill="#EB1A29" width="2.274" height="21.311"/>
		</g>
	</g>
	<path fill="#E6E7E7" d="M581.586,282.76c-0.171,0-0.347-0.039-0.511-0.12c0,0-54.293-27.347-61.578-31.02
		c-0.561-0.283-0.787-0.967-0.504-1.526c0.284-0.562,0.97-0.787,1.527-0.505c6.699,3.378,53.165,26.78,60.581,30.517l3.069-5.832
		c-7.353-4.141-51.659-29.099-58.451-33.474c-0.529-0.341-0.683-1.044-0.341-1.571c0.341-0.529,1.047-0.678,1.57-0.341
		c7.196,4.637,58.779,33.652,59.3,33.945c0.537,0.302,0.736,0.976,0.45,1.521l-4.105,7.799
		C582.391,282.538,581.995,282.76,581.586,282.76z"/>
	<polygon fill="#E6E7E7" points="603.765,332.4 605.627,370.258 606.854,370.258 604.633,332.4 	"/>
</g>
<g>
	<polygon fill="#BC1D2F" points="277.143,318.148 316.099,347.414 349.745,335.613 347.19,332.063 318.367,336.212 292.42,301.952 	
		"/>
	<path fill="#020000" d="M360.708,323.273c0,0-6.334-0.892-9.141,5.06l-11.972,1.943l2.866,11.283l11.232-5.338
		c1.113,2.564,0.086,17.392,7.786,25.224c7.64,7.771,13.462,3.082,13.462,3.082L360.708,323.273z"/>
	<path fill="#D0D2D3" d="M355.199,348.4c-0.172,0-0.336-0.086-0.434-0.237c-0.125-0.193-0.107-0.445,0.047-0.619l2.823-3.214
		l-4.064-0.419c-0.206-0.021-0.379-0.161-0.44-0.359c-0.062-0.196,0.001-0.412,0.158-0.546l3.326-2.838l-3.384-1.107
		c-0.271-0.088-0.418-0.38-0.33-0.65c0.087-0.271,0.379-0.419,0.65-0.332l4.26,1.395c0.178,0.059,0.31,0.208,0.346,0.392
		c0.037,0.183-0.029,0.37-0.171,0.493l-3.11,2.65l3.859,0.397c0.193,0.02,0.358,0.146,0.428,0.324
		c0.07,0.181,0.035,0.385-0.093,0.531l-2.292,2.606l2.417-0.729c0.274-0.085,0.561,0.071,0.644,0.344
		c0.082,0.273-0.073,0.561-0.345,0.644l-4.147,1.253C355.3,348.393,355.25,348.4,355.199,348.4z"/>
	<polygon fill="#FAC19F" points="251.927,230.707 256.993,240.848 255.738,252.862 267.57,241.17 263.82,235.704 261.165,228.831 	
		"/>
	<path fill="#BC1D2F" d="M274.776,310.374l5.43,19.562l-38.26,55.608l3.758,1.66c0,0,58.594-53.866,60.96-61.464
		c3.158-10.141-6.207-23.788-6.207-23.788L274.776,310.374z"/>
	<path fill="#FAC19F" d="M310.464,178.271c3.956,32.644-24.548,49.891-52.249,53.212c-70.471,8.455-91.998-14.718-96.346-47.081
		c4.451,0.447,6.493-1.006,7.216-3.638c4.079-14.839,4.299-31.212,12.684-48.917c12.417-26.216,39.268-30.231,70.597-20.076
		C293.655,125.157,305.26,135.3,310.464,178.271z"/>
	<path fill="#020000" d="M190.596,176.625c-0.327,5.742-2.504,10.196-4.865,9.957c-2.36-0.235-4.006-5.082-3.679-10.822
		c0.331-5.738,2.511-10.198,4.872-9.958C189.281,166.042,190.92,170.887,190.596,176.625z"/>
	<polygon fill="#FAC19F" points="192.061,173.983 185.16,175.483 191.445,179.866 	"/>
	<path fill="#3B2315" d="M179.6,149.268c0,0,2.441-5.076,8.55-4.024c3.396,0.583,6.022,3.985,7.753,8.088
		C195.903,153.332,188.026,144.126,179.6,149.268z"/>
	<path fill="#F38E86" d="M197.393,188.025c0.065,1.143,2.788,1.874,6.083,1.634c3.296-0.238,5.92-1.36,5.861-2.503
		c-0.063-1.145-2.789-1.877-6.085-1.638C199.959,185.764,197.335,186.879,197.393,188.025z"/>
	<path fill="#3B2315" d="M251.665,154.677l13.07,39.895c0,0,2.057,4.689,6.629,10.715c2.11,2.779,2.556,10.043,5.779,13.059
		c2.94,2.756,9.969-0.218,13.911,2.215c2.004,1.239,0.327,7.802,2.604,8.859c3.253,1.508,9.829-3.192,13.659-2.215
		c2.37,0.605-0.087,9.014,2.271,10.163c9.443,4.605,20.361,1.534,26.783-5.392c0,0-3.896-0.776-6.422-3.146
		c8.534-4.96,6.852-11.446,6.852-11.446c-4.566,4.805-9.97-2.228-12.174-6.583c-1.225-2.42,5.781-8.235,5.322-10.748
		c-0.555-3.045-5.891-5.841-5.514-9.082c0.347-2.989,3.693-2.69,5.514-5.499c2.866-4.417-1.642-8.808-3.257-11.845
		C326.69,173.628,266.693,154.374,251.665,154.677z"/>
	<path fill="#3B2315" d="M173.297,140.092c0,0,32.323,0.019,57.896,9.125c0,0,2.598-16.452,11.666-19.532
		c-10.759,27.823,46.27,76.417,70.039,69.747c0,0,25.89-31.21,13.863-62.604c-10.23-26.698-32.261-18.634-32.261-18.634
		s-5.254-28.795-66.936-28.033C178.297,90.771,173.297,140.092,173.297,140.092z"/>
	<path fill="#EB1A29" d="M179.431,213.153c-0.013,0-0.025,0-0.038-0.001c-4.816-0.175-8.074-4.057-8.21-4.222
		c-0.362-0.44-0.3-1.091,0.139-1.454c0.439-0.362,1.09-0.3,1.453,0.138c0.057,0.067,2.555,2.997,6.089,3.426
		c2.472-4.078,7.103-8.496,7.308-8.69c0.413-0.392,1.066-0.375,1.46,0.038c0.393,0.414,0.375,1.067-0.038,1.46
		c-0.051,0.047-5.058,4.825-7.261,8.776C180.15,212.952,179.804,213.153,179.431,213.153z"/>
	<path fill="#020000" d="M240.737,401.377c0,0,5.72-2.862,4.655-9.354l8.753-8.394l-8.763-7.663l-6.22,10.769
		c-2.372-1.478-9.941-14.27-20.724-16.35c-10.702-2.062-12.833,5.104-12.833,5.104L240.737,401.377z"/>
	<path fill="#293C8D" d="M324.56,324.591c0,0-7.495-15.21-19.913-17.286l-1.285-1.913l2.344-0.738c0,0,4.916-6.904,3.683-9.652
		c-2.897-6.465-7.071-13.675-11.642-20.767c2.021,0.496,3.882,0.752,5.496,0.694l3.312-5.688c0,0-9.827-10.884-28.233-22.069
		c-4.282-5.438-7.557-9.273-8.689-10.379c-2.037-1.989-5.226,0.165-8.118,3.4c-3.021,0.662-4.947,3.175-4.434,6.099
		c-1.329,2.234-2.192,4.19-2.192,5.045c0,4.254,4.579,37.063,9.583,57.545c1.654,6.773,6.299,6.773,6.299,6.773l3.721-1.172
		c-2.449,4.59-15.837,29.349-23.898,37.062c0,0,15.724-2.701,25.788,4.155c10.064,6.853,54.128,8.308,57.149-33.855
		C333.531,321.845,328.842,316.954,324.56,324.591z"/>
	<g>
		<g>
			<defs>
				<path id="SVGID_7_" d="M324.56,324.591c0,0-7.495-15.21-19.913-17.286l-1.285-1.913l2.344-0.738c0,0,4.916-6.904,3.683-9.652
					c-2.897-6.465-7.071-13.675-11.642-20.767c2.021,0.496,3.882,0.752,5.496,0.694l3.312-5.688c0,0-9.827-10.884-28.233-22.069
					c-4.282-5.438-7.557-9.273-8.689-10.379c-2.037-1.989-5.226,0.165-8.118,3.4c-3.021,0.662-4.947,3.175-4.434,6.099
					c-1.329,2.234-2.192,4.19-2.192,5.045c0,4.254,4.579,37.063,9.583,57.545c1.654,6.773,6.299,6.773,6.299,6.773l3.721-1.172
					c-2.449,4.59-15.837,29.349-23.898,37.062c0,0,15.724-2.701,25.788,4.155c10.064,6.853,54.128,8.308,57.149-33.855
					C333.531,321.845,328.842,316.954,324.56,324.591z"/>
			</defs>
			<clipPath id="SVGID_8_">
				<use xlink:href="#SVGID_7_"  overflow="visible"/>
			</clipPath>
			<g clip-path="url(#SVGID_8_)">
				<path fill="#FFFFFF" d="M277.701,234.823c2.933,2.932,2.927,7.677-0.005,10.609c-2.929,2.927-7.673,2.933-10.605,0.002
					c-2.927-2.927-2.927-7.678,0.002-10.604C270.025,231.896,274.774,231.896,277.701,234.823z"/>
				<path fill="#FFFFFF" d="M296.436,253.559c2.931,2.932,2.926,7.677-0.007,10.608c-2.927,2.928-7.673,2.934-10.604,0.003
					c-2.926-2.927-2.926-7.678,0-10.605C288.76,250.632,293.51,250.632,296.436,253.559z"/>
				<path fill="#FFFFFF" d="M258.97,253.555c2.933,2.93,2.927,7.676-0.006,10.608c-2.929,2.928-7.672,2.934-10.605,0.002
					c-2.926-2.926-2.926-7.677,0.002-10.604C251.293,250.628,256.044,250.628,258.97,253.555z"/>
				<path fill="#FFFFFF" d="M277.705,272.29c2.933,2.931,2.927,7.674-0.006,10.608c-2.928,2.927-7.672,2.934-10.605,0.002
					c-2.927-2.926-2.927-7.678,0.002-10.604C270.029,269.361,274.779,269.363,277.705,272.29z"/>
				<path fill="#FFFFFF" d="M296.44,291.025c2.931,2.931,2.927,7.674-0.008,10.608c-2.927,2.927-7.673,2.933-10.603,0.002
					c-2.927-2.926-2.927-7.678,0-10.604C288.764,288.096,293.514,288.098,296.44,291.025z"/>
				<path fill="#FFFFFF" d="M315.176,309.761c2.93,2.931,2.926,7.673-0.008,10.608c-2.927,2.927-7.672,2.933-10.603,0.002
					c-2.926-2.926-2.926-7.678,0-10.604C307.499,306.831,312.249,306.833,315.176,309.761z"/>
				<path fill="#FFFFFF" d="M333.911,328.493c2.931,2.934,2.927,7.677-0.008,10.608c-2.926,2.93-7.673,2.936-10.603,0.003
					c-2.927-2.925-2.927-7.676,0-10.605C326.234,325.566,330.984,325.568,333.911,328.493z"/>
				<path fill="#FFFFFF" d="M277.709,309.756c2.93,2.931,2.926,7.674-0.009,10.609c-2.926,2.927-7.672,2.933-10.603,0.002
					c-2.926-2.927-2.926-7.678,0-10.604C270.032,306.827,274.783,306.829,277.709,309.756z"/>
				<path fill="#FFFFFF" d="M296.444,328.491c2.931,2.931,2.927,7.674-0.008,10.608c-2.926,2.928-7.672,2.934-10.603,0.002
					c-2.927-2.926-2.927-7.677,0-10.604C288.768,325.562,293.518,325.564,296.444,328.491z"/>
				<path fill="#FFFFFF" d="M315.18,347.225c2.931,2.932,2.926,7.676-0.009,10.608c-2.926,2.929-7.672,2.936-10.603,0.002
					c-2.926-2.924-2.926-7.676,0-10.604C307.503,344.298,312.253,344.3,315.18,347.225z"/>
				<path fill="#FFFFFF" d="M277.713,347.221c2.931,2.932,2.926,7.677-0.008,10.608c-2.926,2.929-7.673,2.936-10.603,0.002
					c-2.927-2.924-2.927-7.677,0-10.604C270.037,344.294,274.786,344.296,277.713,347.221z"/>
			</g>
		</g>
	</g>
	<path fill="#FFFFFF" d="M302.79,275.452c-12.375,0-37.799-16.619-44.757-25.854c-0.172-0.228-0.126-0.552,0.102-0.723
		c0.228-0.172,0.552-0.127,0.723,0.101c6.846,9.088,31.798,25.444,43.906,25.444c0.06,0,0.119,0,0.179-0.001l2.973-5.106
		c-1.992-2.108-15.509-15.907-38.581-27.685c-0.254-0.13-0.354-0.439-0.225-0.695c0.128-0.252,0.438-0.354,0.695-0.224
		c25.106,12.814,38.997,28.033,39.133,28.187c0.151,0.165,0.175,0.41,0.062,0.604l-3.312,5.688c-0.088,0.152-0.25,0.249-0.428,0.255
		C303.107,275.449,302.948,275.452,302.79,275.452z"/>
	<path fill="#FAC19F" d="M321.634,279.216c0,0,2.089,1.271,6.62,0.692c0,0,16.732-7.997,16.436-2.075
		c-0.208,4.154-6.6,8.922-13.397,9.562c-1.404,0.132-0.096,5.12-1.644,6.087c-3.06,1.915-1.664-5.109-4.347-6.114
		c-2.678-1.006-3.59-2.483-4.631-5.03l-11.985-5.089l3.001-4.626L321.634,279.216z"/>
	<g>
		<polygon fill="#FFFFFF" points="301.739,275.501 309.314,279.57 312.792,272.365 305.484,267.296 303.998,268.663 
			305.515,271.347 303.26,270.901 		"/>
		<path fill="#E6E7E7" d="M309.314,280.087c-0.084,0-0.168-0.021-0.244-0.062l-7.575-4.07c-0.222-0.118-0.325-0.379-0.247-0.616
			l1.521-4.6c0.083-0.247,0.337-0.394,0.59-0.344l1.153,0.228l-0.964-1.705c-0.118-0.209-0.077-0.472,0.101-0.635l1.486-1.367
			c0.177-0.163,0.445-0.182,0.644-0.045l7.307,5.068c0.208,0.146,0.28,0.421,0.171,0.648l-3.478,7.207
			c-0.062,0.128-0.171,0.224-0.306,0.268C309.421,280.079,309.368,280.087,309.314,280.087z M302.365,275.251l6.72,3.61l3.05-6.324
			l-6.605-4.582l-0.88,0.812l1.315,2.325c0.098,0.176,0.086,0.394-0.032,0.556c-0.118,0.165-0.322,0.245-0.519,0.204l-1.808-0.354
			L302.365,275.251z"/>
	</g>
	<path fill="#D0D2D3" d="M233.778,386.418c-0.132,0-0.262-0.052-0.36-0.146c-0.134-0.132-0.186-0.324-0.138-0.505l1.055-3.946
		l-3.403,1.862c-0.169,0.092-0.375,0.085-0.537-0.025c-0.161-0.107-0.246-0.296-0.224-0.488l0.407-3.447l-1.575,1.973
		c-0.177,0.224-0.502,0.26-0.725,0.082c-0.223-0.178-0.26-0.503-0.082-0.726l2.703-3.386c0.143-0.182,0.391-0.245,0.603-0.155
		c0.212,0.089,0.341,0.307,0.313,0.537l-0.501,4.25l3.583-1.963c0.182-0.097,0.405-0.08,0.566,0.047
		c0.163,0.128,0.234,0.34,0.18,0.54l-1.129,4.223l3.415-1.01c0.275-0.078,0.561,0.075,0.641,0.349
		c0.081,0.274-0.075,0.562-0.349,0.643l-4.298,1.27C233.877,386.411,233.827,386.418,233.778,386.418z"/>
	<path fill="#3B2315" d="M264.734,194.572c0,0-3.756,5.314-1.061,13.037c0.625,1.795,7.818,4.891,8.717,6.822
		c1.428,3.065-0.924,10.618,1.353,13.68c2.083,2.801,7.81,1.483,10.454,3.867c3.331,3.007,3.76,13.955,9.456,15.084
		c4.958,0.982,6.907-3.725,15.033-1.642c0,0-3.87-6.274-12.396-4.572c-3.157,0.629-2.065-9.902-4.229-12.912
		c-1.417-1.971-10.407-2.601-11.396-5.229c-0.908-2.417,3.661-7.904,2.513-10.585c-0.969-2.257-5.708-4.682-6.502-7.295
		c-0.785-2.578,1.042-4.151,0.466-7.099L264.734,194.572z"/>
	<path fill="#FAC19F" d="M260.931,180.822c0,0,6.349-8.598,16.171-4.02c7.897,3.681,4.896,18.483-5.722,20.794
		c-3.913,0.854-10.449-2.852-10.449-2.852V180.822z"/>
	<path fill="#CE9277" d="M260.931,183.723c0,0,4.547-4.276,11.581-2.001c5.655,1.831,3.505,9.195-4.099,10.347
		c-2.802,0.422-7.482-1.422-7.482-1.422V183.723z"/>
	<ellipse fill="#EB1A29" cx="291.232" cy="129.639" rx="8.992" ry="9.395"/>
	<path fill="#EB1A29" d="M285.694,126.107c0,0,1.462-23.358,21.571-26.712c0,0,7.319,7.301,5.527,15.982
		C312.792,115.377,291.763,118.487,285.694,126.107z"/>
	<path fill="#EB1A29" d="M291.949,126.954c0,0-22.186-7.454-20.226-27.745c0,0,8.945-5.184,16.868-1.206
		C288.59,98.003,286.156,119.121,291.949,126.954z"/>
	<path fill="#754C2B" d="M270.198,314.834l35.508-10.181l1.227,2.705c0,0-20.062,10.021-35.619,10.424L270.198,314.834z"/>
</g>
</svg>
