<svg version="1.1" xmlns="http://www.w3.org/2000/svg" xmlns:xlink="http://www.w3.org/1999/xlink" viewBox="0 0 768 430" style="enable-background:new 0 0 768 430;" xml:space="preserve"><g id="time"> <g>  <path style="fill:none;" d="M404.591,108.96c-50.199,0-91.04,40.84-91.04,91.04c0,50.196,40.841,91.033,91.04,91.033 c50.196,0,91.036-40.841,91.036-91.041C495.627,149.797,454.787,108.96,404.591,108.96z M411.775,200 c0,3.967-3.213,7.184-7.185,7.184h-69.478c-3.97,0-7.184-3.217-7.184-7.184c0-3.971,3.214-7.192,7.184-7.192h62.291v-62.286 c0-3.972,3.217-7.185,7.188-7.185c3.972,0,7.185,3.213,7.185,7.185V200z"/>  <path style="fill:#DDE4D0;" d="M315.352,127.576c17.672-21.74,43.104-36.925,72.042-41.283l-13.2-16.451 c-6.865-7.106-21.712-4.062-40.379,6.721c-18.674,10.777-28.728,22.11-26.011,31.61L315.352,127.576z"/>  <path style="fill:#DDE4D0;" d="M404.591,123.337c-3.971,0-7.188,3.213-7.188,7.185v62.286h-62.291 c-3.97,0-7.184,3.221-7.184,7.192c0,3.967,3.214,7.184,7.184,7.184h69.478c3.972,0,7.185-3.217,7.185-7.184v-69.479 C411.775,126.55,408.562,123.337,404.591,123.337z"/>  <path style="fill:#DDE4D0;" d="M493.83,127.576l7.549-19.402c2.717-9.5-7.337-20.833-26.011-31.61 c-18.667-10.784-33.515-13.827-40.38-6.721l-13.2,16.451C450.727,90.65,476.158,105.835,493.83,127.576z"/>  <path style="fill:#DDE4D0;" d="M404.591,94.584c-58.122,0-105.412,47.286-105.412,105.408c0,58.13,47.291,105.416,105.412,105.416 c58.122,0,105.409-47.285,105.409-105.416C510.004,141.87,462.713,94.584,404.591,94.584z M404.591,291.033 c-50.199,0-91.04-40.837-91.04-91.033c0-50.2,40.841-91.04,91.04-91.04c50.196,0,91.036,40.836,91.036,91.032 C495.627,250.192,454.787,291.033,404.591,291.033z"/> </g></g><g id="Layer_1"></g></svg>