<svg version="1.1" id="Layer_1" xmlns="http://www.w3.org/2000/svg" xmlns:xlink="http://www.w3.org/1999/xlink" x="0px" y="0px"
	 viewBox="0 0 768 430" enable-background="new 0 0 768 430" xml:space="preserve">
<g>
	<g>
		
			<circle fill="none" stroke="#036F73" stroke-width="10.101" stroke-linecap="round" stroke-linejoin="round" stroke-miterlimit="10" cx="386.5" cy="215.5" r="175.918"/>
		<circle fill="#FFFFFF" cx="386.5" cy="215.5" r="175.918"/>
	</g>
	<g>
		<image overflow="visible" width="129" height="143" xlink:href="70D1A2714BBA5F2B.png"  transform="matrix(1 0 0 1 307 168)">
		</image>
	</g>
	
		<rect x="327.806" y="235.548" transform="matrix(-0.5946 0.8041 -0.8041 -0.5946 780.4709 85.7052)" fill="#F18C79" width="81.641" height="8.162"/>
	<g>
		<image overflow="visible" width="183" height="139" xlink:href="70D1A2714BBA5F29.png"  transform="matrix(1 0 0 1 347 120)">
		</image>
	</g>
	
		<rect x="377.552" y="182.725" transform="matrix(0.8778 -0.479 0.479 0.8778 -35.9113 232.83)" fill="#F18C79" width="121.751" height="8.164"/>
	<g>
		<path fill="#036F73" d="M372.043,77.12l-3.208,0.98c-0.313,0.089-0.714,0.133-0.98,0.133c-1.292,0-2.407-1.068-2.407-2.316
			c0-1.159,0.712-2.049,1.827-2.362L372,72.04c1.068-0.312,1.871-0.49,2.671-0.49h0.09c1.56,0,2.719,1.204,2.719,2.717v26.377
			c0,1.516-1.205,2.719-2.719,2.719c-1.47,0-2.717-1.203-2.717-2.719V77.12z"/>
		<path fill="#036F73" d="M385.1,97.839l9.578-8.154c4.278-3.607,5.837-5.614,5.837-8.42c0-3.075-2.182-4.857-5.033-4.857
			c-2.495,0-4.233,1.159-6.151,3.476c-0.398,0.446-1.023,0.847-1.914,0.847c-1.382,0-2.496-1.115-2.496-2.496
			c0-0.579,0.223-1.203,0.623-1.694c2.541-3.162,5.437-5.032,10.338-5.032c6.105,0,10.293,3.742,10.293,9.312v0.087
			c0,4.902-2.584,7.576-8.109,12.075l-6.416,5.348h12.655c1.335,0,2.405,1.069,2.405,2.405c0,1.337-1.07,2.408-2.405,2.408h-17.69
			c-1.693,0-2.939-0.981-2.939-2.585C383.674,99.488,384.163,98.597,385.1,97.839z"/>
	</g>
	<g>
		<path fill="#036F73" d="M507.772,227.729c-0.49-0.401-0.891-1.161-0.891-1.963c0-1.425,1.203-2.629,2.628-2.629
			c0.805,0,1.383,0.312,1.828,0.713c1.96,1.96,4.187,2.986,7.084,2.986c3.075,0,5.393-1.87,5.393-4.723v-0.089
			c0-3.074-2.809-4.812-7.175-4.812h-1.115c-1.291,0-2.359-1.07-2.359-2.361c0-0.714,0.311-1.383,1.157-2.229l7.309-7.795h-11.316
			c-1.336,0-2.406-1.07-2.406-2.363c0-1.337,1.07-2.405,2.406-2.405h15.95c1.559,0,2.718,0.936,2.718,2.405
			c0,1.293-0.622,2.049-1.559,2.986l-7.354,7.618c4.725,0.58,9.181,2.985,9.181,8.733v0.09c0,5.75-4.412,9.891-10.917,9.891
			C513.743,231.782,510.314,230.179,507.772,227.729z"/>
	</g>
	<g>
		<path fill="#036F73" d="M377.835,356.801c-2.36-2.363-3.786-5.615-3.786-11.898v-0.089c0-9.532,4.544-16.975,13.366-16.975
			c3.205,0,5.747,0.844,7.797,2.228c0.847,0.534,1.38,1.247,1.38,2.361c0,1.425-1.203,2.539-2.627,2.539
			c-0.492,0-0.979-0.178-1.382-0.401c-1.695-1.114-3.254-1.736-5.346-1.736c-4.636,0-7.22,4.188-7.486,9.89
			c1.647-1.604,3.786-3.119,7.486-3.119c6.014,0,10.869,3.565,10.869,9.804v0.089c0,6.194-5.032,10.604-11.584,10.604
			C382.692,360.097,379.932,358.895,377.835,356.801z M392.63,349.714v-0.088c0-3.118-2.497-5.437-6.374-5.437
			c-3.875,0-6.324,2.495-6.324,5.481v0.091c0,3.163,2.583,5.566,6.46,5.566C390.268,355.328,392.63,352.925,392.63,349.714z"/>
	</g>
	<g>
		<path fill="#036F73" d="M243.027,229.465c-0.757-0.489-1.247-1.246-1.247-2.27c0-1.429,1.158-2.496,2.583-2.496
			c0.58,0,1.07,0.177,1.514,0.445c1.827,1.291,3.567,1.915,5.704,1.915c4.588,0,7.353-4.053,7.532-9.801
			c-1.561,1.87-3.967,3.294-7.309,3.294c-6.639,0-11.05-3.875-11.05-9.889v-0.088c0-6.107,4.723-10.786,11.63-10.786
			c3.92,0,6.46,1.115,8.688,3.299c2.271,2.315,3.742,5.748,3.742,11.896v0.089c0,10.023-4.944,16.976-13.367,16.976
			C247.929,232.05,245.346,231.024,243.027,229.465z M258.935,210.351v-0.089c0-3.252-2.541-5.749-6.506-5.749
			c-3.876,0-6.194,2.585-6.194,5.793v0.089c0,3.253,2.497,5.57,6.373,5.57C256.572,215.966,258.935,213.381,258.935,210.351z"/>
	</g>
	<path fill="#036F73" d="M231,217.539c0,1.359-1.102,2.461-2.461,2.461h-8.077c-1.359,0-2.461-1.102-2.461-2.461v-1.078
		c0-1.359,1.102-2.461,2.461-2.461h8.077c1.359,0,2.461,1.102,2.461,2.461V217.539z"/>
	<path fill="#036F73" d="M390,59.029c0,1.359-0.934,2.971-2.295,2.971h-1.188c-1.359,0-1.517-1.612-1.517-2.971v-8.524
		c0-1.359,0.157-3.505,1.517-3.505h1.188c1.361,0,2.295,2.146,2.295,3.505V59.029z"/>
	<path fill="#036F73" d="M553,217.539c0,1.359-1.102,2.461-2.46,2.461h-8.08c-1.358,0-2.46-1.102-2.46-2.461v-1.078
		c0-1.359,1.102-2.461,2.46-2.461h8.08c1.358,0,2.46,1.102,2.46,2.461V217.539z"/>
	<path fill="#036F73" d="M391,379.538c0,1.359-1.103,2.462-2.463,2.462h-1.074c-1.36,0-2.463-1.103-2.463-2.462v-8.076
		c0-1.359,1.103-2.462,2.463-2.462h1.074c1.36,0,2.463,1.103,2.463,2.462V379.538z"/>
	<g>
		<path fill="#036F73" d="M302.219,356.292c-0.671,1.021-0.389,2.395,0.632,3.064l0,0c1.022,0.675,2.395,0.394,3.068-0.627
			l3.657-5.551c0.673-1.022,0.391-2.396-0.632-3.067l0,0c-1.021-0.672-2.392-0.391-3.066,0.632L302.219,356.292z"/>
		<path fill="#036F73" d="M243.59,295.352c-1.068,0.596-1.452,1.945-0.857,3.011l0,0c0.596,1.071,1.945,1.453,3.013,0.859
			l5.805-3.235c1.07-0.596,1.453-1.944,0.857-3.012l0,0c-0.595-1.07-1.942-1.453-3.012-0.856L243.59,295.352z"/>
		<path fill="#036F73" d="M245.688,131.042c-1.023-0.672-2.396-0.39-3.066,0.631l0,0c-0.677,1.022-0.393,2.397,0.628,3.069
			l5.549,3.655c1.022,0.675,2.394,0.391,3.068-0.63l0,0c0.671-1.021,0.39-2.395-0.631-3.068L245.688,131.042z"/>
		<path fill="#036F73" d="M306.626,72.412c-0.594-1.069-1.943-1.452-3.01-0.857l0,0c-1.069,0.597-1.454,1.945-0.859,3.014
			l3.235,5.805c0.597,1.07,1.944,1.453,3.013,0.855l0,0c1.069-0.595,1.452-1.943,0.856-3.011L306.626,72.412z"/>
		<path fill="#036F73" d="M470.777,75.363c0.671-1.021,0.39-2.395-0.633-3.065l0,0c-1.02-0.675-2.393-0.393-3.067,0.629
			l-3.656,5.549c-0.672,1.022-0.389,2.395,0.633,3.067l0,0c1.021,0.673,2.395,0.391,3.067-0.63L470.777,75.363z"/>
		<path fill="#036F73" d="M529.408,136.303c1.069-0.594,1.452-1.944,0.857-3.012l0,0c-0.595-1.069-1.943-1.452-3.014-0.856
			l-5.804,3.234c-1.071,0.595-1.454,1.944-0.856,3.012l0,0c0.595,1.069,1.943,1.452,3.011,0.856L529.408,136.303z"/>
		<path fill="#036F73" d="M527.312,299.874c1.021,0.673,2.394,0.391,3.065-0.63l0,0c0.676-1.021,0.394-2.396-0.63-3.07l-5.549-3.655
			c-1.02-0.673-2.394-0.391-3.067,0.63l0,0c-0.674,1.021-0.39,2.396,0.63,3.07L527.312,299.874z"/>
		<path fill="#036F73" d="M466.373,358.507c0.595,1.069,1.943,1.447,3.011,0.856l0,0c1.07-0.597,1.453-1.945,0.859-3.016
			l-3.235-5.804c-0.596-1.069-1.945-1.452-3.014-0.857l0,0c-1.069,0.597-1.452,1.945-0.855,3.013L466.373,358.507z"/>
	</g>
	<g>
		<image overflow="visible" width="173" height="244" xlink:href="70D1A2714BBA5F2F.png"  transform="matrix(1 0 0 1 269 35)">
		</image>
	</g>
	
		<rect x="254.297" y="153.406" transform="matrix(0.4991 0.8666 -0.8666 0.4991 311.5599 -227.0379)" fill="#84CDC2" width="195.731" height="5.133"/>
	<circle fill="#036F73" cx="386.499" cy="215.5" r="15.834"/>
</g>
</svg>
