<svg version="1.1" id="Layer_1" xmlns="http://www.w3.org/2000/svg" xmlns:xlink="http://www.w3.org/1999/xlink" x="0px" y="0px"
	viewBox="0 0 768 430" enable-background="new 0 0 768 430" xml:space="preserve">
<g id="Toilet">
	<g id="Toilet_1_">
		<g>
			<path fill="#FFFFFF" d="M452.92,67.001v135.264c0,5.311,4.232,9.66,9.404,9.66h72.425c5.173,0,9.404-4.349,9.404-9.66V67.001
				H452.92z"/>
			<path fill="#FFFFFF" d="M552.622,61.13c0,3.23-2.641,5.871-5.869,5.871h-96.431c-3.227,0-5.867-2.641-5.867-5.871v-2.756
				c0-3.228,2.641-5.869,5.867-5.869h96.431c3.229,0,5.869,2.641,5.869,5.869V61.13z"/>
			<path fill="#FFFFFF" d="M544.153,228.532c0-9.138-4.231-16.607-9.404-16.607h-281.23c-5.173,0-9.404,7.469-9.404,16.607v7.472
				h300.039V228.532z"/>
			<path fill="#4AC8F6" d="M448.216,208.104c0-4.665-2.611-8.486-5.808-8.486H268.732c-3.194,0-5.808,3.821-5.808,8.486v3.821
				h185.292V208.104z"/>
			<path fill="#FFFFFF" d="M524.404,236.004h-96.91h-84.163h-82.293c-0.915,47.185,34.814,84.868,79.47,86.4v31.99h160.851v-44.926
				l23.231-50.242L524.404,236.004z"/>
			<path fill="#FFFFFF" d="M506.231,354.395H318.58c-3.452,0-6.276,5.24-6.276,11.637V380h200.205v-13.969
				C512.509,359.635,509.684,354.395,506.231,354.395z"/>
		</g>
		<g>
			<path opacity="0.1" fill="#231F20" d="M534.124,67.001v135.264H452.92c0,5.311,4.232,9.66,9.404,9.66h72.425
				c5.173,0,9.404-4.349,9.404-9.66v-2.647V67.001H534.124z"/>
			<rect x="444.455" y="59.754" opacity="0.1" fill="#231F20" width="108.167" height="7.248"/>
			<path opacity="0.1" fill="#231F20" d="M524.404,236.021h-96.91h-84.163h-82.293c-0.05,2.611,0.018,5.182,0.188,7.729H490.23
				v101.952H340.508v8.692h160.851v-44.926l23.231-50.242L524.404,236.021z"/>
		</g>
	</g>
</g>
</svg>
