<svg version="1.1" xmlns="http://www.w3.org/2000/svg" xmlns:xlink="http://www.w3.org/1999/xlink" viewBox="0 0 768 430" style="enable-background:new 0 0 768 430;" xml:space="preserve"><g id="toilet"> <path style="fill:#DDE4D0;stroke:#349D8B;stroke-width:2.3273;stroke-miterlimit:10;" d="M432.272,216.752  c8.118,11.586,21.955,6.648,21.955,22.332c0,38.1-26.088,77.916-61.172,77.916c-35.083,0-65.879-39.816-65.879-77.916  c0-13.553,20.45-11.674,26.666-22.332c11.259-19.312,10.333,0.99,32.938,0.99c20.641,0,33.884-17.558,45.491-0.986V216.752z"/> <path style="fill:#DDE4D0;stroke:#349D8B;stroke-width:2.3273;stroke-miterlimit:10;" d="M390.697,194.914  c35.089,0,63.53,18.218,63.53,40.698c0,22.477-28.441,40.695-63.53,40.695c-35.084,0-63.523-18.219-63.523-40.695  C327.174,213.131,355.613,194.914,390.697,194.914z"/> <path style="fill:#DDE4D0;stroke:#349D8B;stroke-width:2.3273;stroke-miterlimit:10;" d="M466.131,165.767  c-17.865,41.69-19.767,34.741-56.393,34.741h-37.089c-36.625,0-39.521,0.991-54.411-35.734l-11.91-53.779  c0-36.627,27.892-40.513,64.521-40.513l42.682,0.993c36.625,0,62.532,2.893,62.532,39.52l-9.926,54.777L466.131,165.767z"/> <path style="fill:#DDE4D0;stroke:#349D8B;stroke-width:2.3273;stroke-miterlimit:10;" d="M484,83.382  c0,7.674-6.222,13.896-13.893,13.896H310.302c-7.674,0-13.896-6.222-13.896-13.896c0-7.675,6.222-13.896,13.892-13.896h159.806  C477.786,69.486,484,75.708,484,83.382z"/> <polygon style="fill:#DDE4D0;stroke:#349D8B;stroke-width:2.3273;stroke-miterlimit:10;" points="313.995,108.498 322.702,109.852   325.608,106.369 330.832,105.787 333.35,108.498 334.12,112.561 333.156,115.271 328.897,117.011 324.83,116.624 323.867,114.303   323.284,114.303 315.545,115.076 312.063,114.108 311.093,110.819 311.674,108.109 314.191,108.498  "/> <ellipse style="fill:#DDE4D0;stroke:#349D8B;stroke-width:2.3273;stroke-miterlimit:10;" cx="390.858" cy="140.455" rx="56.577" ry="65.014"/> <ellipse style="fill:#349D8B;" cx="391.197" cy="235.611" rx="30.837" ry="20.723"/></g><g id="Layer_1"></g></svg>