<svg version="1.1" xmlns="http://www.w3.org/2000/svg" xmlns:xlink="http://www.w3.org/1999/xlink" viewBox="0 0 768 430" style="enable-background:new 0 0 768 430;" xml:space="preserve"><g id="toothbrush"> <g>  <path style="fill:none;" d="M212.113,175.583c-0.509,0.059-1.008,0.094-1.495,0.104v34.585h1.495V175.583z"/>  <path style="fill:#DDE4D0;" d="M599.933,218.43H342.92c-0.069,0-0.123,0.041-0.184,0.041c-1.24-4.739-5.512-8.192-10.645-8.192 h-1.367v-35.939h-4.502v35.939h-1.504v-35.939h-4.509v35.939h-1.503v-35.939h-4.51v35.938h-1.489v-35.938h-4.503v35.938h-1.511 v-35.938h-4.502v35.938h-1.496v-35.938h-4.495v35.938h-1.512v-35.938h-4.502v35.938l-1.509,0v-35.937h-4.503v35.937h-1.49v-35.937 h-4.509v35.937h-1.503v-35.937h-4.511v35.937h-1.489v-35.937h-4.509v35.936h-1.504v-35.936h-4.503v35.936l-1.509,0v-35.936h-4.497 v35.936h-1.503v-35.936h-4.495v35.935h-1.51v-35.935h-4.502v35.935h-1.497v-35.935h-4.503v35.935h-1.504v-35.935h-4.509v35.934 h-1.502v-35.934h-4.503v35.934h-1.496v-35.934h-4.502v35.934h-1.511v-35.644c5.869-1.678,12.407-4.786,17.794-5.155 c11.137-0.757,22.302-1.271,33.475-1.259c17.124,0.014,36.521,10.603,51.343,2.011c11.016-6.384,20.387-21.416,17.692-33.86 c-0.934-4.333-6.107-7.455-10.48-8.18c-10.245-1.712-19.134,8.938-29.453,10.17c-16.941,2.012-34.098-7.516-50.959-4.894 c-10.969,1.712-22.675,5.348-30.609,13.114c-6.791,6.636-17.319,18.2-11.795,25.926c0.717,1.003,1.559,1.727,2.498,2.233v35.537 h-1.51v-35.933h-4.504v35.933h-2.057c-6.115,0-11.051,4.908-11.051,11.015c0,6.107,4.936,11.018,11.051,11.018h134.036 c4.969,0,9.159-0.941,10.54-5.451c0.103,0.006,0.19,0.035,0.293,0.035h257.013c1.699,0,3.067-3.691,3.067-5.385 C603,219.805,601.632,218.43,599.933,218.43z M210.618,175.687c0.487-0.01,0.986-0.045,1.495-0.104v34.689h-1.495V175.687z  M229.357,217.164c32.812-0.29,65.631,0.658,98.422-0.25h0.007c1.957-0.121,3.921,0.014,5.741,0.691 c2.146,0.969,5.031,5.674,2.167,7.332c-45.094,0.766-90.519,0.5-135.734,0.184c-3.005,1.675-5.694-1.06-5.868-3.86 c-0.152,0.668-0.239,1.412-0.239,2.263c0,3.568,2.262,5.537,4.875,7.555c-4.232-1.545-9.276-2.959-9.276-7.732 c0-6.113,4.936-11.015,11.051-11.015h134.027c2.567,0,3.772,2.443,5.641,3.9c-1.199-0.439-2.479-0.697-3.833-0.684l-132.302,0.717 c-3.388,0.019-6.147,0.376-7.937,1.729C206.834,216.511,218.375,217.447,229.357,217.164z M348.322,223.203 c-0.055,0-0.115,0.035-0.177,0.035c-0.149-0.568-0.345-2.223-0.581-2.75H597.76c1.178,0,2.193,1.732,2.709,2.715H348.322z"/>  <path style="fill:#DDE4D0;" d="M597.76,220.488H347.564c0.236,0.527,0.432,2.182,0.581,2.75c0.062,0,0.122-0.035,0.177-0.035 h252.146C599.953,222.221,598.938,220.488,597.76,220.488z"/>  <path style="opacity:0.4292;fill:#DDE4D0;enable-background:new  ;" d="M597.76,220.488H347.564 c0.236,0.527,0.432,2.182,0.581,2.75c0.062,0,0.122-0.035,0.177-0.035h252.146C599.953,222.221,598.938,220.488,597.76,220.488z" />  <path style="fill:#DDE4D0;" d="M204.035,216.264l132.302-0.717c1.354-0.013,2.634,0.245,3.833,0.684 c-1.868-1.457-3.073-3.9-5.641-3.9H200.502c-6.115,0-11.051,4.902-11.051,11.015c0,4.773,5.044,6.188,9.276,7.732 c-2.613-2.018-4.875-3.986-4.875-7.555c0-0.851,0.087-1.595,0.239-2.263c-0.071-1.138,0.262-2.287,1.176-3.155 c0.276-0.041,0.555-0.074,0.831-0.112C197.888,216.64,200.647,216.282,204.035,216.264z"/>  <path style="opacity:0.4292;fill:#DDE4D0;enable-background:new  ;" d="M204.035,216.264l132.302-0.717 c1.354-0.013,2.634,0.245,3.833,0.684c-1.868-1.457-3.073-3.9-5.641-3.9H200.502c-6.115,0-11.051,4.902-11.051,11.015 c0,4.773,5.044,6.188,9.276,7.732c-2.613-2.018-4.875-3.986-4.875-7.555c0-0.851,0.087-1.595,0.239-2.263 c-0.071-1.138,0.262-2.287,1.176-3.155c0.276-0.041,0.555-0.074,0.831-0.112C197.888,216.64,200.647,216.282,204.035,216.264z"/>  <g style="opacity:0.3167;enable-background:new  ;"> <path style="fill:#DDE4D0;" d="M194.092,221.261c0.174,2.801,2.863,5.535,5.868,3.86c45.216,0.316,90.641,0.582,135.734-0.184  c2.864-1.658-0.021-6.363-2.167-7.332c-1.82-0.678-3.784-0.812-5.741-0.691h-0.007c-32.791,0.908-65.609-0.04-98.422,0.25  c-10.982,0.283-22.523-0.653-33.259,0.829c-0.276,0.038-0.555,0.071-0.831,0.112  C194.354,218.974,194.021,220.123,194.092,221.261z"/>  </g> </g></g><g id="Layer_1"></g></svg>