<svg version="1.1" id="Layer_1" xmlns="http://www.w3.org/2000/svg" xmlns:xlink="http://www.w3.org/1999/xlink" viewBox="0 0 768 430" xml:space="preserve">
<path fill="none" d="M486.3,182.2c-34-18-68.1-36-102.1-54c-1.7-0.9-2.9-0.8-4.5,0.1c-32.7,17.3-65.5,34.6-98.2,51.9
	c-1.7,0.9-3.6,1.8-5.2,2.8c-1.8,1.1-2.4,3-1.9,5s2,3.3,4.1,3.4c9.6,0.1,19.1,0,28.9,0c2.3-12.101,7.7-16.5,19.8-16.5
	c15.9,0,31.7,0,47.6,0c21.601,0,43.101,0,64.7,0c7.8,0,14,4.5,16.2,11.6c0.5,1.5,0.7,3.2,1.1,4.9c9.7,0,19.3,0.1,29-0.101
	c1.2,0,2.7-1.2,3.4-2.3C490.8,186.6,489.6,184,486.3,182.2z"/>
<path fill="#DDE4D0" d="M494.6,168.2c-34-18-68-36-102.1-53.9c-2.6-1.4-2-3.3-2.3-5.3c-0.2-2,1.1-2.4,2.399-3.1
	c8.9-4.5,13.801-11.8,14.101-21.8c0.399-13.2-10.2-24.4-23.5-25.1c-13.3-0.7-24.7,9.5-25.8,23c-0.4,5.1,2.5,8.9,7.2,9.3
	c4.2,0.3,7.6-3,8-8c0.5-5.6,4.5-9.2,9.9-9c5,0.2,8.9,4.2,9,9.2c0.1,5.3-3.6,9.3-8.9,9.8c-0.9,0.1-1.9,0.2-2.8,0.4
	c-3.8,0.9-5.9,3.5-5.9,7.4c0,3-0.2,6,0,9.1c0.1,2.2-0.6,3.3-2.6,4.4c-14.4,7.5-28.6,15.1-43,22.6c-19.6,10.3-39.1,20.7-58.7,31
	c-7.3,3.9-11.3,10-11.7,18.2c-0.5,11.6,8.8,21.3,20.5,21.5c8.7,0.1,17.4,0,26.1,0c0.9,0,1.8,0,3.1,0c0,16.8,0.3,52.8,0.3,69.199
	c49.7,0,98.4,0,148,0c0-16.5,0.399-52.5,0.399-69.1c1.101-0.1,1.8-0.1,2.5-0.1c8.7,0,17.4,0,26.101,0c4.899,0,9.3-1.5,13.199-4.601
	C510.1,193.6,508.3,175.4,494.6,168.2z M489.1,189.1c-0.699,1.101-2.3,2.2-3.399,2.301c-9.601,0.199-19.3,0.1-29,0.1
	c-0.4-1.7-0.601-3.4-1.101-4.9C453.4,179.5,447.2,175,439.4,175c-21.601,0-43.101,0-64.7,0c-15.9,0-31.7,0-47.6,0
	c-12.1,0-17.5,4.5-19.8,16.5c-9.7,0-19.3,0-28.9,0c-2.1,0-3.6-1.3-4.1-3.4c-0.5-2,0.1-3.8,1.9-5c1.7-1.1,3.5-1.9,5.2-2.8
	c32.7-17.3,65.5-34.6,98.2-51.9c1.6-0.8,2.8-1,4.5-0.1c34,18,68.1,36,102.1,54C489.6,184,490.8,186.6,489.1,189.1z"/>
<path fill="#DDE4D0" d="M307.6,294.1c0,10.301,7.1,17.4,17.4,17.4c12.3,0,24.7,0,37,0c25.8,0,51.6,0,77.3,0
	c8.101,0,14.9-4.9,16.4-12.3c0.8-3.9,0.6-8,0.899-12.2c-50,0-99.399,0-149,0C307.6,289.4,307.6,291.8,307.6,294.1z"/>
</svg>
