<svg version="1.1" xmlns="http://www.w3.org/2000/svg" x="0" y="0" width="768" height="430" viewBox="0 0 768 430" enable-background="new 0 0 768 430" xml:space="preserve"><path fill="none" d="M486.3 212.2c-34-18-68.1-36-102.1-54 -1.7-0.9-2.9-0.8-4.5 0.1 -32.7 17.3-65.5 34.6-98.2 51.9 -1.7 0.9-3.6 1.8-5.2 2.8 -1.8 1.1-2.4 3-1.9 5 0.5 2 2 3.3 4.1 3.4 9.6 0.1 19.1 0 28.9 0 2.3-12.1 7.7-16.5 19.8-16.5 15.9 0 31.7 0 47.6 0 21.6 0 43.1 0 64.7 0 7.8 0 14 4.5 16.2 11.6 0.5 1.5 0.7 3.2 1.1 4.9 9.7 0 19.3 0.1 29-0.1 1.2 0 2.7-1.2 3.4-2.3C490.8 216.6 489.6 214 486.3 212.2z"/><path fill="#DDE4D0" d="M494.6 198.2c-34-18-68-36-102.1-53.9 -2.6-1.4-2-3.3-2.3-5.3 -0.2-2 1.1-2.4 2.4-3.1 8.9-4.5 13.8-11.8 14.1-21.8 0.4-13.2-10.2-24.4-23.5-25.1 -13.3-0.7-24.7 9.5-25.8 23 -0.4 5.1 2.5 8.9 7.2 9.3 4.2 0.3 7.6-3 8-8 0.5-5.6 4.5-9.2 9.9-9 5 0.2 8.9 4.2 9 9.2 0.1 5.3-3.6 9.3-8.9 9.8 -0.9 0.1-1.9 0.2-2.8 0.4 -3.8 0.9-5.9 3.5-5.9 7.4 0 3-0.2 6 0 9.1 0.1 2.2-0.6 3.3-2.6 4.4 -14.4 7.5-28.6 15.1-43 22.6 -19.6 10.3-39.1 20.7-58.7 31 -7.3 3.9-11.3 10-11.7 18.2 -0.5 11.6 8.8 21.3 20.5 21.5 8.7 0.1 17.4 0 26.1 0 0.9 0 1.8 0 3.1 0 0 16.8 0.3 52.8 0.3 69.2 49.7 0 98.4 0 148 0 0-16.5 0.4-52.5 0.4-69.1 1.1-0.1 1.8-0.1 2.5-0.1 8.7 0 17.4 0 26.1 0 4.9 0 9.3-1.5 13.2-4.6C510.1 223.6 508.3 205.4 494.6 198.2zM489.1 219.1c-0.7 1.1-2.3 2.2-3.4 2.3 -9.6 0.2-19.3 0.1-29 0.1 -0.4-1.7-0.6-3.4-1.1-4.9 -2.2-7.1-8.4-11.6-16.2-11.6 -21.6 0-43.1 0-64.7 0 -15.9 0-31.7 0-47.6 0 -12.1 0-17.5 4.5-19.8 16.5 -9.7 0-19.3 0-28.9 0 -2.1 0-3.6-1.3-4.1-3.4 -0.5-2 0.1-3.8 1.9-5 1.7-1.1 3.5-1.9 5.2-2.8 32.7-17.3 65.5-34.6 98.2-51.9 1.6-0.8 2.8-1 4.5-0.1 34 18 68.1 36 102.1 54C489.6 214 490.8 216.6 489.1 219.1z"/><path fill="#DDE4D0" d="M307.6 324.1c0 10.3 7.1 17.4 17.4 17.4 12.3 0 24.7 0 37 0 25.8 0 51.6 0 77.3 0 8.1 0 14.9-4.9 16.4-12.3 0.8-3.9 0.6-8 0.9-12.2 -50 0-99.4 0-149 0C307.6 319.4 307.6 321.8 307.6 324.1z"/></svg>