<svg version="1.1" id="Layer_1" xmlns="http://www.w3.org/2000/svg" xmlns:xlink="http://www.w3.org/1999/xlink" viewBox="0 0 768 430" enable-background="new 0 0 768 430" xml:space="preserve">
<g>
	<path fill="#A2A6AD" d="M451.713,351.406c0,6.411-5.194,11.594-11.583,11.594H320.158c-6.4,0-11.584-5.183-11.584-11.594V84.385
		c0-6.411,5.184-11.594,11.584-11.594H440.13c6.389,0,11.583,5.183,11.583,11.594V351.406z"/>
	<g>
		<path fill="#7E8187" d="M308.574,255.304v-79.234H281v36.206C281,231.373,292.314,247.788,308.574,255.304z"/>
		<path fill="#7E8187" d="M308.574,173.375V94.11H281v36.205C281,149.435,292.314,165.839,308.574,173.375z"/>
		<path fill="#7E8187" d="M425.242,72.792c-1.084-3.334-4.118-5.792-7.815-5.792h-74.567c-3.706,0-6.731,2.457-7.836,5.792H425.242z
			"/>
		<path fill="#7E8187" d="M451.713,337.264c16.259-7.537,27.573-23.941,27.573-43.051v-36.184h-27.573V337.264z"/>
		<path fill="#7E8187" d="M451.713,94.13v79.245c16.259-7.536,27.573-23.94,27.573-43.039V94.13H451.713z"/>
		<path fill="#7E8187" d="M451.713,255.314c16.259-7.516,27.573-23.921,27.573-43.04v-36.206h-27.573V255.314z"/>
		<path fill="#7E8187" d="M308.574,258.029H281v36.184c0,19.109,11.314,35.514,27.574,43.051V258.029z"/>
	</g>
	<g>
		<path fill="#BCCC52" d="M414.898,135.941c0,19.212-15.568,34.76-34.761,34.76c-19.19,0-34.749-15.548-34.749-34.76
			c0-19.171,15.558-34.76,34.749-34.76C399.33,101.181,414.898,116.771,414.898,135.941z"/>
		<path fill="#7E8187" d="M380.138,109.492c14.588,0,26.45,11.862,26.45,26.449c0,14.598-11.862,26.47-26.45,26.47
			c-14.586,0-26.459-11.872-26.459-26.47C353.678,121.354,365.552,109.492,380.138,109.492L380.138,109.492z M380.138,101.181
			c-19.19,0-34.749,15.589-34.749,34.76c0,19.212,15.558,34.76,34.749,34.76c19.192,0,34.761-15.548,34.761-34.76
			C414.898,116.771,399.33,101.181,380.138,101.181L380.138,101.181z"/>
	</g>
	<g>
		<path fill="#F07D4C" d="M414.898,299.85c0,19.192-15.568,34.739-34.761,34.739c-19.19,0-34.749-15.547-34.749-34.739
			c0-19.191,15.558-34.77,34.749-34.77C399.33,265.08,414.898,280.658,414.898,299.85z"/>
		<path fill="#7E8187" d="M380.138,273.391c14.588,0,26.45,11.861,26.45,26.459c0,14.567-11.862,26.449-26.45,26.449
			c-14.586,0-26.459-11.882-26.459-26.449C353.678,285.252,365.552,273.391,380.138,273.391L380.138,273.391z M380.138,265.08
			c-19.19,0-34.749,15.578-34.749,34.77c0,19.192,15.558,34.739,34.749,34.739c19.192,0,34.761-15.547,34.761-34.739
			C414.898,280.658,399.33,265.08,380.138,265.08L380.138,265.08z"/>
	</g>
	<g>
		<path fill="#F0C44C" d="M414.898,217.9c0,19.183-15.568,34.75-34.761,34.75c-19.19,0-34.749-15.567-34.749-34.75
			c0-19.201,15.558-34.759,34.749-34.759C399.33,183.142,414.898,198.699,414.898,217.9z"/>
		<path fill="#7E8187" d="M380.138,191.431c14.588,0,26.45,11.883,26.45,26.469c0,14.588-11.862,26.461-26.45,26.461
			c-14.586,0-26.459-11.873-26.459-26.461C353.678,203.314,365.552,191.431,380.138,191.431L380.138,191.431z M380.138,183.142
			c-19.19,0-34.749,15.558-34.749,34.759c0,19.183,15.558,34.75,34.749,34.75c19.192,0,34.761-15.567,34.761-34.75
			C414.898,198.699,399.33,183.142,380.138,183.142L380.138,183.142z"/>
	</g>
</g>
</svg>
