<svg version="1.1" xmlns="http://www.w3.org/2000/svg" xmlns:xlink="http://www.w3.org/1999/xlink" viewBox="0 0 768 430" style="enable-background:new 0 0 768 430;" xml:space="preserve"><g id="train"> <g>  <path style="fill:none;" d="M395.35,280.679c0-6.436,3.557-12.345,9.255-15.36h-23.742c5.629,3.016,9.192,8.925,9.192,15.36 c0,6.637-3.75,12.733-9.718,15.68h24.817C399.189,293.412,395.35,287.38,395.35,280.679z"/>  <path style="fill:none;" d="M355.346,280.679c0-6.436,3.464-12.345,9.163-15.36H340.8c5.63,3.016,9.25,8.925,9.25,15.36 c0,6.637-3.83,12.733-9.863,15.68h24.936C359.09,293.412,355.346,287.38,355.346,280.679z"/>  <path style="fill:none;" d="M435.586,280.679c0-6.436,3.529-12.345,9.223-15.36H421.1c5.631,3.016,9.196,8.925,9.196,15.36 c0,6.637-3.781,12.733-9.749,15.68h24.816C439.399,293.412,435.586,287.38,435.586,280.679z"/>  <polygon style="fill:#DDE4D0;" points="389.47,57.002 389.471,57.002 389.473,57.002   "/>  <path style="fill:#DDE4D0;" d="M509.458,265.26c0.869,0,1.542-0.682,1.542-1.483v-14.198c0-0.805-0.673-1.487-1.542-1.487h-2.096 v5.383h-8.234v-35.201h5.963v-5.905h-17.777v5.905h5.91v29.818H469.89v-32.497h2.617v-3.227h-8.787v-29.211h17.689v-8.875h-26.592 v38.086h-26.012v-10.391c0-12.129-18.299-12.129-18.299,0v10.391h-28.95v-17.951h-5.585c-4.559-10.257-19.026-10.257-23.653,0 h-5.557v17.951h-30.171v-36.341c4.492-2.614,7.72-6.82,9.194-11.782c9.854,3.016,20.501-0.128,27.202-7.974 c11.396,3.753,23.746-1.757,28.57-12.683c12.467,4.623,26.208-2.549,29.563-15.42c3.414-0.737,6.55-2.408,9.162-4.687 c1.273-1.204,2.496-2.334,3.635-3.607c1.744-1.809,3.208-3.76,4.481-5.905c2.078-3.285,3.62-6.903,4.627-10.59 c0.334-1.542,0.521-3.017,0.521-4.626c0-8.78-5.945-16.495-14.458-18.707c-3.718-13.878-16.185-22.897-29.618-23.042 c-3.758-0.041-7.606,0.629-11.345,2.065c-15.08,6.837-23.059,23.539-18.967,39.626c-7.511,8.312-10.005,20.104-6.518,30.696 c-1.474-0.402-2.948-0.402-4.421,0c-7.511,1.341-14.148,5.694-18.304,12.129c-8.846,2.618-15.143,10.537-15.68,19.787 c-6.972,3.218-12.383,8.902-15.332,15.942v35.12h-11.26v41.106h-8.263v-5.383h-2.064c-0.806,0-1.485,0.683-1.485,1.487v14.198 c0,0.802,0.68,1.483,1.485,1.483h2.064v-5.909h8.263v5.909l36.715-0.06c-12.601,6.769-12.182,24.849,0.554,31.014h-49.079 l-0.003,2.971H511v-2.971h-50.278c5.968-2.883,9.776-8.957,9.776-15.594c0-6.436-3.561-12.345-9.19-15.36h37.82v-5.909h8.234 v5.909H509.458z M340.187,296.358c6.033-2.946,9.863-9.043,9.863-15.68c0-6.436-3.62-12.345-9.25-15.36h23.709 c-5.699,3.016-9.163,8.925-9.163,15.36c0,6.701,3.744,12.733,9.776,15.68H340.187z M380.337,296.358 c5.968-2.946,9.718-9.043,9.718-15.68c0-6.436-3.562-12.345-9.192-15.36h23.742c-5.698,3.016-9.255,8.925-9.255,15.36 c0,6.701,3.84,12.733,9.805,15.68H380.337z M420.547,296.358c5.968-2.946,9.749-9.043,9.749-15.68 c0-6.436-3.565-12.345-9.196-15.36h23.709c-5.693,3.016-9.223,8.925-9.223,15.36c0,6.701,3.813,12.733,9.777,15.68H420.547z"/> </g></g><g id="Layer_1"></g></svg>