<svg version="1.1" id="Layer_1" xmlns="http://www.w3.org/2000/svg" xmlns:xlink="http://www.w3.org/1999/xlink" viewBox="0 0 768 430" enable-background="new 0 0 768 430" xml:space="preserve">
<g>
	<g>
		<path fill="#5499CE" d="M523.83,317.41H318.532v12.429h-110.97v9.914c0,3.075,2.479,5.57,5.554,5.57h296.349h40.215L523.83,317.41
			z"/>
		<rect x="207.562" y="180.516" fill="#F07D4C" width="110.97" height="149.323"/>
		<path fill="#B35D39" d="M523.305,223.663H318.532v93.747h204.772c7.761,0,14.057-20.985,14.057-46.873
			C537.361,244.648,531.065,223.663,523.305,223.663z"/>
		<path fill="#B35D39" d="M325.733,170.402c0-5.571-5.001-10.112-11.109-10.112H211.479c-6.105,0-11.116,4.541-11.116,10.112
			c0,5.555,5.011,10.114,11.116,10.114h103.146C320.732,180.516,325.733,175.957,325.733,170.402z"/>
		<path fill="#B35D39" d="M504.618,170.402c0-5.571-5.003-10.112-11.11-10.112h-42.007c-6.114,0-11.126,4.541-11.126,10.112
			c0,5.555,5.012,10.114,11.126,10.114h42.007C499.615,180.516,504.618,175.957,504.618,170.402z"/>
		<rect x="450.985" y="180.516" fill="#F07D4C" width="43.041" height="43.147"/>
		<rect x="229.996" y="194.464" fill="#A6D5F3" width="66.104" height="66.105"/>
		<path fill="#B35D39" d="M229.996,326.51c-1.538,0-2.777-1.248-2.777-2.785v-49.986c0-1.519,1.24-2.768,2.777-2.768
			s2.786,1.249,2.786,2.768v49.986C232.782,325.262,231.533,326.51,229.996,326.51z"/>
		<path fill="#B35D39" d="M260.171,278.207c0,2.479-1.99,4.487-4.468,4.487h-11.335c-2.469,0-4.477-2.009-4.477-4.487l0,0
			c0-2.46,2.008-4.469,4.477-4.469h11.335C258.181,273.738,260.171,275.747,260.171,278.207L260.171,278.207z"/>
		<g>
			<path fill="#D6DBE6" d="M353.611,334.199c0,28.656-23.21,51.866-51.849,51.866c-28.656,0-51.886-23.21-51.886-51.866
				c0-28.64,23.23-51.868,51.886-51.868C330.401,282.331,353.611,305.56,353.611,334.199z"/>
			<path fill="#7E8187" d="M301.763,388.852c-30.139,0-54.652-24.513-54.652-54.652c0-30.121,24.513-54.635,54.652-54.635
				c30.121,0,54.625,24.514,54.625,54.635C356.388,364.339,331.884,388.852,301.763,388.852z M301.763,285.118
				c-27.082,0-49.099,22.017-49.099,49.081c0,27.062,22.017,49.08,49.099,49.08c27.055,0,49.062-22.018,49.062-49.08
				C350.825,307.135,328.817,285.118,301.763,285.118z"/>
		</g>
		<path fill="#B3B7BF" d="M323.4,334.199c0,11.957-9.688,21.656-21.637,21.656c-11.976,0-21.655-9.699-21.655-21.656
			c0-11.958,9.679-21.655,21.655-21.655C313.712,312.544,323.4,322.241,323.4,334.199z"/>
		<path fill="#7E8187" d="M316.688,334.199c0,8.25-6.677,14.941-14.925,14.941c-8.269,0-14.953-6.691-14.953-14.941
			c0-8.251,6.685-14.942,14.953-14.942C310.011,319.257,316.688,325.948,316.688,334.199z"/>
		<g>
			<path fill="#D6DBE6" d="M428.996,358.277c0,15.342-12.427,27.788-27.778,27.788c-15.351,0-27.787-12.446-27.787-27.788
				c0-15.34,12.436-27.787,27.787-27.787C416.569,330.49,428.996,342.938,428.996,358.277z"/>
			<path fill="#7E8187" d="M401.218,388.852c-16.852,0-30.565-13.712-30.565-30.574c0-16.861,13.713-30.574,30.565-30.574
				c16.851,0,30.556,13.713,30.556,30.574C431.773,375.14,418.068,388.852,401.218,388.852z M401.218,333.275
				c-13.796,0-25.012,11.218-25.012,25.002c0,13.785,11.216,25.002,25.012,25.002c13.784,0,24.992-11.217,24.992-25.002
				C426.21,344.493,415.002,333.275,401.218,333.275z"/>
		</g>
		<path fill="#7E8187" d="M409.024,358.277c0,4.325-3.493,7.816-7.807,7.816c-4.315,0-7.815-3.491-7.815-7.816
			c0-4.305,3.5-7.814,7.815-7.814C405.531,350.463,409.024,353.973,409.024,358.277z"/>
		<g>
			<path fill="#D6DBE6" d="M497.922,358.277c0,15.342-12.428,27.788-27.777,27.788c-15.351,0-27.788-12.446-27.788-27.788
				c0-15.34,12.438-27.787,27.788-27.787C485.494,330.49,497.922,342.938,497.922,358.277z"/>
			<path fill="#7E8187" d="M470.145,388.852c-16.852,0-30.564-13.712-30.564-30.574c0-16.861,13.713-30.574,30.564-30.574
				c16.851,0,30.557,13.713,30.557,30.574C500.701,375.14,486.995,388.852,470.145,388.852z M470.145,333.275
				c-13.795,0-25.012,11.218-25.012,25.002c0,13.785,11.217,25.002,25.012,25.002c13.784,0,24.994-11.217,24.994-25.002
				C495.139,344.493,483.929,333.275,470.145,333.275z"/>
		</g>
		<path fill="#7E8187" d="M477.95,358.277c0,4.325-3.491,7.816-7.806,7.816c-4.315,0-7.816-3.491-7.816-7.816
			c0-4.305,3.501-7.814,7.816-7.814C474.459,350.463,477.95,353.973,477.95,358.277z"/>
		<path fill="#7E8187" d="M470.145,361.063l-69.578-0.09l-99.474-24.079c-1.492-0.362-2.404-1.863-2.045-3.348
			c0.363-1.482,1.855-2.405,3.348-2.043l99.156,23.988h68.593c1.537,0,2.777,1.248,2.777,2.785
			C472.922,359.815,471.682,361.063,470.145,361.063z"/>
	</g>
	<path fill="#EBEBEB" d="M480.194,126.877c1.536-2.226,2.424-4.614,2.424-7.128c0-6.368-5.446-12.013-13.858-15.631
		c2.516-3.726,3.963-7.743,3.963-11.958c0-18.779-27.409-34.011-61.221-34.011c-33.812,0-61.219,15.232-61.219,34.011
		c0,18.796,27.407,34.01,61.219,34.01c0.679,0,1.328-0.035,2.009-0.053c4.776,7.778,17.99,13.369,33.595,13.369
		c0.949,0,1.882-0.036,2.821-0.09c0.545,6.766,10.495,12.175,22.796,12.175c12.646,0,22.884-5.699,22.884-12.736
		C495.606,133.28,489.14,128.595,480.194,126.877z"/>
</g>
</svg>
