<svg version="1.1" xmlns="http://www.w3.org/2000/svg" viewBox="0 0 768 430" xml:space="preserve"><path d="M378.1 196h46c0 0-22.7 84.3 8.6 109.4 -37-15.3 4.3 26-29.5 4.8 0.7-5.8-6.4-15.1-35.2-1C402.5 266.7 378.1 196 378.1 196L378.1 196z" style="fill:none;stroke-width:6;stroke:#DDE4D0"/><path d="M412 53.2c-25.9 0-48.8 9.4-62.8 23.7C308.5 78.3 276 102.7 276 132.7c0 17.5 11.1 33.1 28.3 43.4 2 29.9 42.8 53.7 92.7 53.7 51.2 0 92.8-25.1 92.8-56 0-0.2 0-0.3 0-0.5 14.7-6.7 24-16.2 24-26.9 0-11.2-10.1-21.1-25.9-27.8 0.7-3.1 1.1-6.2 1.1-9.4 0-30.9-34.5-56-77-56L412 53.2z" fill="#DDE4D0"/></svg>