<svg xmlns="http://www.w3.org/2000/svg" viewBox="0 0 768 430"><style>.a{fill:#C9A661;}.b{fill:#868686;}.c{fill:#686666;}.d{fill:#565353;}.e{fill:#997847;}.f{fill:#879036;}.g{fill:#AFB94B;}.h{fill:#CF6947;}.i{fill:#AC5637;}.j{fill:#DC8161;}.k{fill:#A9A7A5;}.l{fill:#84BCC7;}.m{fill:#67A5B3;}.n{fill:#A8E0EC;}.o{fill:#426E79;}.p{fill:#3D5B65;}.q{fill:#808932;}.r{fill:#696F2B;}.s{fill:#DC6672;}.t{fill:#BC2431;}.u{fill:#EAA5AB;}.v{fill:#FFF;}.w{fill:#EEB73C;}.x{fill:#E6E6E6;}.y{fill:#949D40;}.z{fill:#659BA6;}.A{fill:#4E4E4E;}.B{fill:#DA535F;}.C{fill:#AA434D;}.D{fill:#6A5230;}</style><path d="M356.6 184.7v154.2c0 2-1.5 3.7-3.3 3.7 -1.8 0-3.3-1.6-3.3-3.7V184.7H356.6L356.6 184.7z" class="a"/><path d="M325.6 162h1.3c0.5 0 0.9 0.5 0.9 1v13.4h4.6v-13.4c0-0.6 0.4-1 0.9-1h1.3c0.5 0 0.9 0.5 0.9 1v13.4h4.6v-13.4c0-0.6 0.4-1 0.9-1h1.3c0.5 0 0.9 0.5 0.9 1v13.4h4.6v-13.4c0-0.6 0.4-1 0.9-1h1.3c0.5 0 0.9 0.5 0.9 1v13.4h4.6v-13.4c0-0.6 0.4-1 0.9-1h1.3c0.5 0 0.9 0.5 0.9 1v13.4h4.6v-13.4c0-0.6 0.4-1 0.9-1h1.3c0.5 0 0.9 0.5 0.9 1v13.4h4.6v-13.4c0-0.6 0.4-1 0.9-1h1.3c0.5 0 0.9 0.5 0.9 1v13.4h4.6v-13.4c0-0.6 0.4-1 0.9-1h1.3c0.5 0 0.9 0.5 0.9 1 0 6.6 0 14.1 0 20.7 0 0.6-0.4 1-0.9 1h-55.5c-0.5 0-0.9-0.5-0.9-1 0-6.6 0-14.1 0-20.7C324.7 162.4 325.1 162 325.6 162L325.6 162z" class="b"/><polygon points="350 184.7 356.6 184.7 356.6 205.9 350 205.9 350 184.7 " class="b"/><polygon points="354.2 184.7 356.6 184.7 356.6 205.9 354.2 205.9 354.2 184.7 " class="c"/><path d="M353.3 198.1c0.9 0 1.6 0.8 1.6 1.8 0 1-0.7 1.8-1.6 1.8 -0.9 0-1.6-0.8-1.6-1.8C351.7 198.9 352.4 198.1 353.3 198.1L353.3 198.1z" class="d"/><path d="M356.6 205.9v133c0 2-1.5 3.7-3.3 3.7 -1.8 0-3.3-1.6-3.3-3.7 0.8 3.1 4.1 2.3 4.1 0l0-133H356.6L356.6 205.9z" class="e"/><path d="M327.1 184.7h53.9c0.5 0 0.9-0.5 0.9-1v-2.2c0-0.6-0.4-1-0.9-1h-53.9c-0.5 0-0.9 0.5-0.9 1v2.2C326.2 184.2 326.6 184.7 327.1 184.7L327.1 184.7z" class="c"/><path d="M377.6 295.3h18 18v29.8c0 12.1-10.6 22.4-18 22.4 -7.4 0-18-10.3-18-22.4V295.3L377.6 295.3z" fill="#AAA"/><path d="M395.6 295.3h18v29.8c0 12.1-10.6 22.4-18 22.4V295.3L395.6 295.3z" class="b"/><path d="M398.9 275.9V165.6c0-2-1.5-3.7-3.3-3.7 -1.8 0-3.3 1.7-3.3 3.7v110.3H398.9L398.9 275.9z" class="a"/><path d="M398.9 275.9V165.6c0-2-1.5-3.7-3.3-3.7 -1.8 0-3.3 1.7-3.3 3.7 0.8-3.1 4.1-2.3 4.1 0l0 110.3H398.9L398.9 275.9z" class="e"/><path d="M376.6 295.3h15.7v4h-15.7c-0.4 0-0.7-0.4-0.7-0.8v-2.3C375.9 295.7 376.2 295.3 376.6 295.3L376.6 295.3z" class="c"/><path d="M414.6 295.3h-15.7v4h15.7c0.4 0 0.7-0.4 0.7-0.8v-2.3C415.4 295.7 415 295.3 414.6 295.3L414.6 295.3z" class="d"/><path d="M398.9 275.9v38.9c0 2-1.5 3.7-3.3 3.7l0 0c-1.8 0-3.3-1.6-3.3-3.7v-38.9H398.9L398.9 275.9z" class="b"/><path d="M398.9 275.9v38.9c0 2-1.5 3.7-3.3 3.7 -1.8 0-3.3-1.6-3.3-3.7 0.8 3.1 4.1 2.3 4.1 0l0-38.9H398.9L398.9 275.9z" class="c"/><path d="M395.6 280.3c0.9 0 1.6 0.8 1.6 1.8s-0.7 1.8-1.6 1.8c-0.9 0-1.6-0.8-1.6-1.8S394.7 280.3 395.6 280.3L395.6 280.3z" class="d"/><path d="M142.6 342.5h475.7c3.4 0 6.1 3.4 6.1 7.5v10.3c0 4.1-2.7 7.5-6.1 7.5H142.6c-3.4 0-6.1-3.4-6.1-7.5v-10.3C136.5 345.9 139.2 342.5 142.6 342.5L142.6 342.5z" class="f"/><path d="M123.5 342.5h449.4c2.5 0 4.6 2.3 4.6 5.1v2.3c0 2.8-2.1 5.1-4.6 5.1H123.5c-2.5 0-4.6-2.3-4.6-5.1v-2.3C118.9 344.8 121 342.5 123.5 342.5L123.5 342.5z" class="g"/><polygon points="559.4 240.6 562.4 240.6 562.4 273.9 559.4 273.9 559.4 240.6 " fill="#BB8B44"/><polygon points="561.3 240.6 562.4 240.6 562.4 273.9 561.3 273.9 561.3 266.2 559.4 266.2 559.4 263.8 561.3 263.8 561.3 240.6 " fill="#8E662F"/><polygon points="525.9 285.3 553.9 285.3 581.8 285.3 574.3 342.5 553.9 342.5 533.5 342.5 525.9 285.3 " class="h"/><polygon points="585.9 273.9 584.4 285.3 523.4 285.3 521.9 273.9 585.9 273.9 " class="h"/><polygon points="551.2 273.9 556.6 273.9 556.6 171.3 551.2 171.3 551.2 273.9 " fill="#5F4A37"/><path d="M547.7 242.7h26.3c1.7 0 3.2 1.6 3.2 3.5v14c0 1.9-1.4 3.5-3.2 3.5h-26.3c-1.7 0-3.2-1.6-3.2-3.5v-14C544.6 244.3 546 242.7 547.7 242.7L547.7 242.7z" fill="#D1C7B7"/><path d="M547.9 243.5h23.1c1.5 0 2.7 1.3 2.7 3v11.8c0 1.6-1.2 3-2.7 3h-23.1c-1.5 0-2.7-1.3-2.7-3v-11.8C545.3 244.8 546.5 243.5 547.9 243.5L547.9 243.5z" fill="#EFE6D7"/><polygon points="563 285.3 581.8 285.3 574.3 342.5 560.5 342.5 563 285.3 " class="i"/><polygon points="533.8 285.3 544.4 285.3 547 342.5 539.2 342.5 533.8 285.3 " class="j"/><polygon points="525.9 285.3 553.9 285.3 581.8 285.3 581.2 290 526.6 290 525.9 285.3 " fill="#93472D"/><path d="M549.4 247.7h23c0.2 0 0.4 0.2 0.4 0.4v1.6c0 0.2-0.2 0.4-0.4 0.4h-23c-0.2 0-0.4-0.2-0.4-0.4v-1.6C549 247.9 549.2 247.7 549.4 247.7L549.4 247.7z" class="k"/><path d="M549.4 252h23c0.2 0 0.4 0.2 0.4 0.4v1.6c0 0.2-0.2 0.4-0.4 0.4h-23c-0.2 0-0.4-0.2-0.4-0.4v-1.6C549 252.2 549.2 252 549.4 252L549.4 252z" class="k"/><path d="M551.3 256.3h19.2c0.2 0 0.4 0.2 0.4 0.4v1.6c0 0.2-0.2 0.4-0.4 0.4h-19.2c-0.2 0-0.4-0.2-0.4-0.4v-1.6C550.9 256.5 551.1 256.3 551.3 256.3L551.3 256.3z" class="k"/><polygon points="563 285.3 581.8 285.3 581.2 290 562.8 290 563 285.3 563 285.3 " fill="#703724"/><polygon points="585.9 273.9 584.4 285.3 565.2 285.3 565.8 273.9 585.9 273.9 " class="i"/><polygon points="542.9 285.3 530.7 285.3 529.6 273.9 542.3 273.9 542.9 285.3 " class="j"/><polygon points="593 312.6 607.6 312.6 622.2 312.6 618.3 342.5 607.6 342.5 596.9 342.5 593 312.6 " class="l"/><polygon points="624.4 306.6 623.6 312.6 591.6 312.6 590.8 306.6 624.4 306.6 " class="l"/><polygon points="612.4 312.6 622.2 312.6 618.3 342.5 611.1 342.5 612.4 312.6 " class="m"/><polygon points="597.1 312.6 602.6 312.6 604 342.5 599.9 342.5 597.1 312.6 " class="n"/><polygon points="593 312.6 607.6 312.6 622.2 312.6 621.9 315 593.3 315 593 312.6 " class="o"/><polygon points="612.4 312.6 622.2 312.6 621.9 315 612.3 315 612.4 312.6 612.4 312.6 " class="p"/><polygon points="624.4 306.6 623.6 312.6 613.6 312.6 613.8 306.6 624.4 306.6 " class="m"/><polygon points="601.9 312.6 595.5 312.6 594.9 306.6 601.6 306.6 601.9 312.6 " class="n"/><polygon points="606.8 276.3 608.4 276.3 608.4 306.6 606.8 306.6 606.8 276.3 " class="q"/><path d="M621.1 282.8c-7.5 0-13.5 6.8-13.5 15.1C615.1 298 621.1 291.2 621.1 282.8L621.1 282.8z" class="r"/><path d="M621.1 282.8c-7.5 0-13.5 6.8-13.5 15.1C610.1 291.4 616.8 285.5 621.1 282.8L621.1 282.8z" class="q"/><path d="M607.6 286.1c4.8-5.4 4.8-14.2 0-19.6C602.8 271.9 602.8 280.7 607.6 286.1L607.6 286.1z" class="q"/><path d="M607.6 286.1c4.8-5.4 4.8-14.2 0-19.6C609.8 272.5 608.9 281.3 607.6 286.1L607.6 286.1z" class="r"/><path d="M596.3 285.3c0 7 5 12.6 11.3 12.6C607.6 291 602.6 285.3 596.3 285.3L596.3 285.3z" class="q"/><path d="M596.3 285.3c0 7 5 12.6 11.3 12.6C602.7 295.6 598.3 289.4 596.3 285.3L596.3 285.3z" class="r"/><polygon points="508.4 280.8 506.8 280.8 506.8 315.4 508.4 315.4 508.4 280.8 " class="q"/><polygon points="487.5 280.8 485.9 280.8 485.9 315.4 487.5 315.4 487.5 280.8 " class="q"/><polygon points="466.6 280.7 465 280.7 465 315.4 466.6 315.4 466.6 280.7 " class="q"/><path d="M465.8 272.9c3.8 0 7 3.5 7 7.8h-14C458.8 276.4 461.9 272.9 465.8 272.9L465.8 272.9z" class="s"/><path d="M465.8 288.6c3.8 0 7-3.5 7-7.8v-7.8c-3.9 0-7 3.5-7 7.8 0-4.3-3.1-7.8-7-7.8v7.8C458.8 285.1 461.9 288.6 465.8 288.6L465.8 288.6z" class="t"/><path d="M486.7 272.9c3.8 0 7 3.5 7 7.8h-14C479.7 276.4 482.9 272.9 486.7 272.9L486.7 272.9z" class="u"/><path d="M486.7 288.6c3.8 0 7-3.5 7-7.8v-7.8c-3.9 0-7 3.5-7 7.8 0-4.3-3.1-7.8-7-7.8v7.8C479.7 285.1 482.9 288.6 486.7 288.6L486.7 288.6z" class="s"/><path d="M507.6 272.9c3.8 0 7 3.5 7 7.8h-14C500.7 276.4 503.8 272.9 507.6 272.9L507.6 272.9z" class="u"/><path d="M507.6 288.6c3.8 0 7-3.5 7-7.8v-7.8c-3.9 0-7 3.5-7 7.8 0-4.3-3.1-7.8-7-7.8v7.8C500.7 285.1 503.8 288.6 507.6 288.6L507.6 288.6z" class="s"/><polygon points="521.9 323.2 451.5 323.2 454.1 342.5 519.3 342.5 521.9 323.2 " fill="#B45E40"/><polygon points="448.7 315.4 449.8 323.2 523.6 323.2 524.7 315.4 448.7 315.4 " class="h"/><polygon points="521.9 323.2 451.5 323.2 451.9 326.4 521.5 326.4 521.9 323.2 " fill="#753D29"/><path d="M515.4 288.5c-5.5 6.2-9 18.2-7.8 26.9C513.1 309.2 516.6 297.2 515.4 288.5L515.4 288.5z" class="r"/><path d="M515.4 288.5c-5.5 6.2-9 18.2-7.8 26.9C508.6 306.6 512.6 294.9 515.4 288.5L515.4 288.5z" class="q"/><path d="M507.6 315.4c-5-5.6-8.1-16.6-7.1-24.4C505.5 296.6 508.7 307.6 507.6 315.4L507.6 315.4z" class="q"/><path d="M507.6 315.4c-5-5.6-8.1-16.6-7.1-24.4C501.4 299 505.1 309.7 507.6 315.4L507.6 315.4z" class="r"/><path d="M458.1 288.5c5.5 6.2 9 18.2 7.8 26.9C460.4 309.2 456.9 297.2 458.1 288.5L458.1 288.5z" class="r"/><path d="M458.1 288.5c5.5 6.2 9 18.2 7.8 26.9C464.9 306.6 460.9 294.9 458.1 288.5L458.1 288.5z" class="q"/><path d="M465.9 315.4c5-5.6 8.1-16.6 7.1-24.4C468 296.6 464.8 307.6 465.9 315.4L465.9 315.4z" class="q"/><path d="M465.9 315.4c5-5.6 8.1-16.6 7.1-24.4C472.1 299 468.4 309.7 465.9 315.4L465.9 315.4z" class="r"/><path d="M479.6 291c5 5.6 8.2 16.6 7.1 24.4C481.7 309.8 478.5 298.8 479.6 291L479.6 291z" class="r"/><path d="M479.6 291c5 5.6 8.2 16.6 7.1 24.4C485.8 307.4 482.1 296.7 479.6 291L479.6 291z" class="q"/><path d="M486.7 315.4c5.5-6.2 9-18.2 7.8-26.9C489.1 294.8 485.6 306.8 486.7 315.4L486.7 315.4z" class="q"/><path d="M486.7 315.4c5.5-6.2 9-18.2 7.8-26.9C493.6 297.4 489.5 309.1 486.7 315.4L486.7 315.4z" class="r"/><path d="M553.9 115.7c27.4 0 49.7 24.9 49.7 55.6 0 30.7-22.2 55.6-49.7 55.6 -27.4 0-49.7-24.9-49.7-55.6C504.2 140.6 526.4 115.7 553.9 115.7L553.9 115.7z" class="f"/><path d="M547.7 120.3c21.7 0 39.4 19.7 39.4 44.1 0 24.3-17.6 44.1-39.4 44.1 -21.7 0-39.4-19.7-39.4-44.1C508.3 140.1 525.9 120.3 547.7 120.3L547.7 120.3z" class="g"/><path d="M585.7 187.3c3.3 0 5.9 3 5.9 6.6 0 3.7-2.7 6.6-5.9 6.6 -3.3 0-5.9-3-5.9-6.6C579.8 190.2 582.4 187.3 585.7 187.3L585.7 187.3z" class="v"/><path d="M585.7 192c0.9 0 1.7 0.9 1.7 1.9 0 1.1-0.8 1.9-1.7 1.9 -0.9 0-1.7-0.9-1.7-1.9C584 192.9 584.8 192 585.7 192L585.7 192z" class="w"/><path d="M591.7 193.9c0 3.7-2.7 6.6-5.9 6.6C585.7 196.9 588.4 193.9 591.7 193.9L591.7 193.9z" class="x"/><path d="M520.8 180.6c3.3 0 5.9 3 5.9 6.6s-2.7 6.6-5.9 6.6 -5.9-3-5.9-6.6S517.6 180.6 520.8 180.6L520.8 180.6z" class="y"/><path d="M518.2 178.6c3.3 0 5.9 3 5.9 6.6 0 3.7-2.7 6.6-5.9 6.6 -3.3 0-5.9-3-5.9-6.6C512.2 181.5 514.9 178.6 518.2 178.6L518.2 178.6z" class="v"/><path d="M518.2 183.3c0.9 0 1.7 0.9 1.7 1.9 0 1.1-0.8 1.9-1.7 1.9 -0.9 0-1.7-0.9-1.7-1.9C516.5 184.1 517.2 183.3 518.2 183.3L518.2 183.3z" class="w"/><path d="M524.1 185.2c0 3.7-2.7 6.6-5.9 6.6C518.2 188.2 520.8 185.2 524.1 185.2L524.1 185.2z" class="x"/><path d="M580.5 126.6c-5.1 0.1-9.2 4.8-9.1 10.5C576.5 137 580.6 132.3 580.5 126.6L580.5 126.6z" class="r"/><path d="M580.5 126.6c-5.1 0.1-9.2 4.8-9.1 10.5C573.1 132.6 577.6 128.4 580.5 126.6L580.5 126.6z" class="f"/><path d="M526 140.6c3.3 0 5.9 3 5.9 6.6 0 3.7-2.7 6.6-5.9 6.6 -3.3 0-5.9-3-5.9-6.6C520.1 143.6 522.7 140.6 526 140.6L526 140.6z" class="y"/><path d="M523.3 138.5c3.3 0 5.9 3 5.9 6.6 0 3.7-2.7 6.6-5.9 6.6s-5.9-3-5.9-6.6C517.4 141.5 520.1 138.5 523.3 138.5L523.3 138.5z" class="v"/><path d="M523.3 143.3c0.9 0 1.7 0.9 1.7 1.9 0 1.1-0.8 1.9-1.7 1.9 -0.9 0-1.7-0.9-1.7-1.9C521.6 144.1 522.4 143.3 523.3 143.3L523.3 143.3z" class="w"/><path d="M523.3 138.5c0 3.7-2.7 6.6-5.9 6.6C517.4 141.5 520.1 138.5 523.3 138.5L523.3 138.5z" class="x"/><path d="M553.9 115.9c3.3 0 5.9 3 5.9 6.6 0 3.7-2.7 6.6-5.9 6.6 -3.3 0-5.9-3-5.9-6.6C548 118.9 550.7 115.9 553.9 115.9L553.9 115.9z" class="y"/><path d="M551.3 113.9c3.3 0 5.9 3 5.9 6.6s-2.7 6.6-5.9 6.6 -5.9-3-5.9-6.6S548 113.9 551.3 113.9L551.3 113.9z" class="v"/><path d="M551.3 118.6c0.9 0 1.7 0.9 1.7 1.9s-0.8 1.9-1.7 1.9c-0.9 0-1.7-0.9-1.7-1.9S550.3 118.6 551.3 118.6L551.3 118.6z" class="w"/><path d="M551.3 113.9c0 3.7-2.7 6.6-5.9 6.6C545.3 116.8 548 113.9 551.3 113.9L551.3 113.9z" class="x"/><path d="M585.6 145.8c3.3 0 5.9 3 5.9 6.6 0 3.7-2.7 6.6-5.9 6.6s-5.9-3-5.9-6.6C579.6 148.8 582.3 145.8 585.6 145.8L585.6 145.8z" class="v"/><path d="M585.6 150.5c0.9 0 1.7 0.9 1.7 1.9 0 1.1-0.8 1.9-1.7 1.9 -0.9 0-1.7-0.9-1.7-1.9C583.9 151.4 584.6 150.5 585.6 150.5L585.6 150.5z" class="w"/><path d="M591.5 152.4c0 3.7-2.7 6.6-5.9 6.6C585.6 155.4 588.2 152.4 591.5 152.4L591.5 152.4z" class="x"/><path d="M567.8 160.4c3.3 0 5.9 3 5.9 6.6 0 3.7-2.7 6.6-5.9 6.6 -3.3 0-5.9-3-5.9-6.6C561.9 163.4 564.6 160.4 567.8 160.4L567.8 160.4z" class="y"/><path d="M565.2 158.4c3.3 0 5.9 3 5.9 6.6 0 3.7-2.7 6.6-5.9 6.6 -3.3 0-5.9-3-5.9-6.6C559.2 161.3 561.9 158.4 565.2 158.4L565.2 158.4z" class="v"/><path d="M565.2 163.1c0.9 0 1.7 0.9 1.7 1.9s-0.8 1.9-1.7 1.9c-0.9 0-1.7-0.9-1.7-1.9S564.2 163.1 565.2 163.1L565.2 163.1z" class="w"/><path d="M571.1 165c0 3.7-2.7 6.6-5.9 6.6C565.2 168 567.8 165 571.1 165L571.1 165z" class="x"/><path d="M582.6 165.1c3.9-4.4 10.3-4.5 14.2-0.2C593 169.3 586.6 169.4 582.6 165.1L582.6 165.1z" class="r"/><path d="M582.6 165.1c3.9-4.4 10.3-4.5 14.2-0.2C592.4 163 586.1 163.9 582.6 165.1L582.6 165.1z" class="f"/><path d="M573.7 227.4c2.4-6.3-0.1-13.6-5.8-16.3C565.5 217.4 568.1 224.7 573.7 227.4L573.7 227.4z" class="r"/><path d="M581.6 219.2c1-5.5-2.1-10.9-7-12.1C573.6 212.7 576.7 218.1 581.6 219.2L581.6 219.2z" class="r"/><path d="M581.6 219.2c1-5.5-2.1-10.9-7-12.1C578.1 209.9 580.7 215.7 581.6 219.2L581.6 219.2z" class="f"/><path d="M604.8 190.7c-2.7-6.1-9.3-8.7-14.8-5.6C592.7 191.2 599.4 193.8 604.8 190.7L604.8 190.7z" class="r"/><path d="M604.8 190.7c-2.7-6.1-9.3-8.7-14.8-5.6C595.2 184.8 601.5 188.1 604.8 190.7L604.8 190.7z" class="f"/><path d="M514.2 212.1c6.1 0.3 11.3-5 11.5-11.9C519.6 200 514.5 205.3 514.2 212.1L514.2 212.1z" class="f"/><path d="M514.2 212.1c6.1 0.3 11.3-5 11.5-11.9C523.5 205.5 517.8 210.1 514.2 212.1L514.2 212.1z" class="r"/><path d="M501.9 177.7c4.3 3.8 10.6 3 14.1-1.8C511.6 172 505.3 172.9 501.9 177.7L501.9 177.7z" class="f"/><path d="M501.9 177.7c4.3 3.8 10.6 3 14.1-1.8C511.8 178.4 505.5 178.4 501.9 177.7L501.9 177.7z" class="r"/><path d="M537.4 113.9c-2.8 6.1-0.7 13.6 4.8 16.7C545 124.5 542.8 117 537.4 113.9L537.4 113.9z" class="f"/><path d="M537.4 113.9c-2.8 6.1-0.7 13.6 4.8 16.7C538.9 126.1 537.5 118.4 537.4 113.9L537.4 113.9z" class="g"/><path d="M607 181.4c-3.5-5.6-10.5-6.9-15.5-2.9C595 184 602 185.3 607 181.4L607 181.4z" class="f"/><path d="M540.5 229.8c5.3-3.5 7-11.1 3.9-17C539.1 216.2 537.4 223.9 540.5 229.8L540.5 229.8z" class="r"/><path d="M540.5 229.8c5.3-3.5 7-11.1 3.9-17C545.1 218.5 542.6 225.9 540.5 229.8L540.5 229.8z" class="q"/><path d="M542.6 203c3.3 0 5.9 3 5.9 6.6 0 3.7-2.7 6.6-5.9 6.6 -3.3 0-5.9-3-5.9-6.6C536.7 206 539.3 203 542.6 203L542.6 203z" class="f"/><path d="M539.9 201c3.3 0 5.9 3 5.9 6.6 0 3.7-2.7 6.6-5.9 6.6s-5.9-3-5.9-6.6C534 203.9 536.6 201 539.9 201L539.9 201z" class="v"/><path d="M539.9 205.7c0.9 0 1.7 0.9 1.7 1.9 0 1.1-0.8 1.9-1.7 1.9s-1.7-0.9-1.7-1.9C538.2 206.6 539 205.7 539.9 205.7L539.9 205.7z" class="w"/><path d="M545.8 207.6c0 3.7-2.7 6.6-5.9 6.6C539.9 210.6 542.6 207.6 545.8 207.6L545.8 207.6z" class="x"/><path d="M531.3 118.8c-1.2 3.9 0.7 8.2 4.2 9.6C536.7 124.4 534.8 120.1 531.3 118.8L531.3 118.8z" class="f"/><path d="M280.1 241.1h-109.9C188.1 208.5 245.6 187.6 280.1 241.1L280.1 241.1z" class="f"/><path d="M180.2 292c-12.5 0-22.6 11.3-22.6 25.3 0 14 10.1 25.3 22.6 25.3 12.5 0 22.6-11.3 22.6-25.3C202.8 303.3 192.7 292 180.2 292L180.2 292z" fill="#313131"/><path d="M180.2 303.6c-6.7 0-12.2 6.1-12.2 13.7 0 7.5 5.5 13.7 12.2 13.7 6.7 0 12.2-6.1 12.2-13.7C192.4 309.7 187 303.6 180.2 303.6L180.2 303.6z" fill="#D29F25"/><path d="M163.7 248.4l36.6 41.1c3 3.4 8.6 5.2 12.4 5.1l48-1.8c9.4-1 14.8-6.6 16.7-15l6.7-29.3H163.7L163.7 248.4z" class="z"/><path d="M288.1 241.1H156.8c-1.9 0-3.4 1.7-3.4 3.7v3.7h138.1v-3.7C291.5 242.7 290 241.1 288.1 241.1L288.1 241.1z" class="z"/><path d="M198.4 293.3c1.4-0.6 2.8-1 4.2-1.4 1.7-0.4 3.4-0.7 5.1-0.8 0.1 0 0.2 0 0.3 0l52.4-2c3.9-0.1 7.9-0.3 11.7-1.4 4.4-1.3 8.1-3.9 11.5-7.1l27.2-25.4c3.2-3 6.9-5.2 10.8-6.8 4.2-1.7 8.6-2.8 13-3.1l8.5-0.7 0.5 7.3 -8.5 0.7c-3.8 0.3-7.7 1.2-11.2 2.7 -3.2 1.3-6.2 3.1-8.8 5.5l-27.2 25.4c-4.2 3.9-8.7 7-14 8.6 -4.4 1.3-8.7 1.5-13.2 1.6l-52.4 2c0 0 0 0-0.1 0 -1.4 0.1-2.8 0.3-4.2 0.7 -1.1 0.3-2.2 0.6-3.2 1l-44.3 27.8c-1.6 1-3.6 0.4-4.5-1.4 -0.9-1.8-0.3-4 1.3-5l44.5-27.9C198 293.5 198.2 293.4 198.4 293.3L198.4 293.3z" class="p"/><path d="M159.4 257c-1.3-1.4-1.3-3.8 0-5.2 1.3-1.4 3.4-1.4 4.6 0l69.2 77.7c2.1 2.4 4.9 4.4 7.8 5.3 1.7 0.5 3.5 0.7 5.2 0 1.5-0.5 2.6-1.6 3.4-3.1 1.1-2.1 1.4-4.6 1.4-7v-31.8c0-2.2 1.5-2.6 3.1-2.6 1.6 0 3.5 0.4 3.5 2.6v31.8c0 3.7-0.6 7.5-2.3 10.7 -1.6 3.1-4 5.3-7 6.4 -2.9 1-6 0.9-8.9 0.1 -4.1-1.2-7.8-3.9-10.8-7.2L159.4 257 159.4 257z" class="p"/><path d="M344.5 256.7l-2.3 0.1c-0.7 0-1.4-0.6-1.4-1.4l-0.6-13.9c0-0.8 0.5-1.5 1.3-1.5l2.3-0.1c0.7 0 1.4 0.6 1.4 1.4l0.6 13.9C345.9 255.9 345.3 256.6 344.5 256.7L344.5 256.7z" class="A"/><path d="M183.5 315.2l-3.2-6.4 -6.5 4.1 3.2 6.4c1 2 3.3 2.7 5 1.6C183.8 319.8 184.5 317.2 183.5 315.2L183.5 315.2z" class="p"/><path d="M180.2 315.4c-0.9 0-1.7 0.8-1.7 1.9 0 1 0.8 1.9 1.7 1.9 0.9 0 1.7-0.8 1.7-1.9C181.9 316.2 181.2 315.4 180.2 315.4L180.2 315.4z" class="v"/><path d="M172.9 325.2c-0.5-0.6-0.5-1.5 0-2.1 0.5-0.6 1.4-0.6 1.9 0 0.4 0.5 0.8 0.9 1.3 1.2 0.5 0.4 1 0.6 1.5 0.8 0.7 0.3 1 1.1 0.8 1.9 -0.2 0.8-1 1.2-1.7 0.9 -0.7-0.3-1.4-0.7-2.1-1.1C174.1 326.4 173.5 325.8 172.9 325.2L172.9 325.2zM181.7 328.5c-0.7 0.1-1.4-0.4-1.5-1.3 -0.1-0.8 0.4-1.6 1.1-1.7 0.4-0.1 0.9-0.2 1.3-0.3 0.4-0.2 0.8-0.4 1.2-0.6 1.8-1.1 3.1-3 3.6-5 0.5-2.1 0.4-4.4-0.6-6.4 -0.3-0.7-0.1-1.6 0.5-2 0.6-0.4 1.4-0.1 1.8 0.6 1.3 2.8 1.6 5.9 0.8 8.7 -0.7 2.8-2.4 5.3-4.9 6.8 -0.5 0.3-1.1 0.6-1.7 0.8C182.9 328.3 182.3 328.4 181.7 328.5L181.7 328.5z" class="v"/><path d="M156.8 241.1h113c1.2 0 2.2 1.1 2.2 2.5 0 1.4-1 2.5-2.2 2.5H156.8c-1.2 0-2.2-1.1-2.2-2.5C154.6 242.2 155.5 241.1 156.8 241.1L156.8 241.1z" fill="#94CEDA"/><path d="M163.7 248.4l25.1 28.2c5.4 6.1 15.5 9.2 26.9 8.6l31.6-1.4c9.4-1 14.8-6.6 16.7-15l2.4-20.4H163.7L163.7 248.4z" class="l"/><polygon points="163.7 248.4 170.2 255.7 282.3 255.7 284 248.4 163.7 248.4 " class="o"/><polygon points="266.4 248.4 265.5 255.7 282.3 255.7 284 248.4 266.4 248.4 " class="p"/><path d="M344.4 253.2l24.1-1.1c0.6 0 1.1-0.6 1.1-1.4l-0.3-7.4c0-0.7-0.6-1.3-1.2-1.2l-24.1 1.1c-0.6 0-1.1 0.6-1.1 1.4l0.3 7.4C343.2 252.7 343.8 253.3 344.4 253.2L344.4 253.2z" class="A"/><path d="M266.4 241.1h-93.4C188.3 213.4 237.1 195.7 266.4 241.1L266.4 241.1z" class="g"/><polygon points="180.4 211.5 182 211.5 182 241.1 180.4 241.1 180.4 211.5 " class="q"/><path d="M181.2 202.9c4.2 0 7.7 3.8 7.7 8.6 0 4.7-3.4 8.6-7.7 8.6 -4.2 0-7.7-3.8-7.7-8.6C173.5 206.7 176.9 202.9 181.2 202.9L181.2 202.9z" class="s"/><path d="M181.2 202.9c0 4.7-3.4 8.6-7.7 8.6C173.5 206.7 176.9 202.9 181.2 202.9L181.2 202.9z" class="u"/><path d="M181.2 209.3c1.1 0 1.9 1 1.9 2.2 0 1.2-0.9 2.1-1.9 2.1s-1.9-1-1.9-2.1C179.2 210.3 180.1 209.3 181.2 209.3L181.2 209.3z" class="v"/><path d="M191.4 225.2c-5.7 0-10.2 5.1-10.2 11.5C186.8 236.7 191.4 231.5 191.4 225.2L191.4 225.2z" class="r"/><path d="M191.4 225.2c-5.7 0-10.2 5.1-10.2 11.5C183.1 231.7 188.1 227.2 191.4 225.2L191.4 225.2z" class="q"/><path d="M170.9 225.2c0 6.3 4.6 11.5 10.2 11.5C181.2 230.3 176.6 225.2 170.9 225.2L170.9 225.2z" class="q"/><path d="M170.9 225.2c0 6.3 4.6 11.5 10.2 11.5C176.7 234.5 172.7 228.9 170.9 225.2L170.9 225.2z" class="r"/><polygon points="248.5 198.6 250.1 198.6 250.1 241.1 248.5 241.1 248.5 198.6 " class="q"/><path d="M249.3 207.2c-4.2 0-7.7-3.8-7.7-8.6 0-4.7 3.4-8.6 7.7-8.6 4.2 0 7.7 3.8 7.7 8.6C256.9 203.4 253.5 207.2 249.3 207.2L249.3 207.2z" class="s"/><path d="M249.3 207.2c0-4.7 3.4-8.6 7.7-8.6C256.9 203.4 253.5 207.2 249.3 207.2L249.3 207.2z" fill="#9C3740"/><path d="M249.3 200.8c-1.1 0-1.9-1-1.9-2.1s0.9-2.1 1.9-2.1 1.9 1 1.9 2.2S250.3 200.8 249.3 200.8L249.3 200.8z" class="v"/><polygon points="216.6 206.4 215 206.4 215 241.1 216.6 241.1 216.6 206.4 " class="q"/><path d="M215.8 198.6c3.8 0 7 3.5 7 7.8h-14C208.9 202.1 212 198.6 215.8 198.6L215.8 198.6z" class="u"/><path d="M215.8 214.2c3.8 0 7-3.5 7-7.8v-7.8c-3.9 0-7 3.5-7 7.8 0-4.3-3.1-7.8-7-7.8v7.8C208.9 210.7 212 214.2 215.8 214.2L215.8 214.2z" class="s"/><path d="M223.6 214.2c-5.5 6.2-9 18.2-7.8 26.9C221.3 234.9 224.8 222.8 223.6 214.2L223.6 214.2z" class="r"/><path d="M223.6 214.2c-5.5 6.2-9 18.2-7.8 26.9C216.8 232.2 220.8 220.5 223.6 214.2L223.6 214.2z" class="q"/><path d="M215.8 241.1c-5-5.6-8.1-16.6-7.1-24.4C213.7 222.3 216.9 233.2 215.8 241.1L215.8 241.1z" class="q"/><path d="M215.8 241.1c-5-5.6-8.1-16.6-7.1-24.4C209.6 224.7 213.3 235.3 215.8 241.1L215.8 241.1z" class="r"/><polygon points="198.3 197.8 196.7 197.8 196.7 241.1 198.3 241.1 198.3 197.8 " class="q"/><path d="M197.5 190c3.8 0 7 3.5 7 7.8H190.5C190.5 193.5 193.6 190 197.5 190L197.5 190z" class="s"/><path d="M197.5 205.7c3.8 0 7-3.5 7-7.8v-7.8c-3.9 0-7 3.5-7 7.8 0-4.3-3.1-7.8-7-7.8v7.8C190.5 202.2 193.6 205.7 197.5 205.7L197.5 205.7z" class="t"/><path d="M197.5 241.1c5-5.6 8.1-16.6 7.1-24.4C199.6 222.3 196.4 233.2 197.5 241.1L197.5 241.1z" class="q"/><path d="M197.5 241.1c5-5.6 8.1-16.6 7.1-24.4C203.7 224.7 200 235.3 197.5 241.1L197.5 241.1z" class="r"/><polygon points="269.3 206.4 267.7 206.4 267.7 241.1 269.3 241.1 269.3 206.4 " class="q"/><path d="M268.5 198.6c3.8 0 7 3.5 7 7.8h-14C261.5 202.1 264.6 198.6 268.5 198.6L268.5 198.6z" class="s"/><path d="M268.5 214.2c3.8 0 7-3.5 7-7.8v-7.8c-3.9 0-7 3.5-7 7.8 0-4.3-3.1-7.8-7-7.8v7.8C261.5 210.7 264.6 214.2 268.5 214.2L268.5 214.2z" class="t"/><path d="M260.8 214.2c5.5 6.2 9 18.2 7.8 26.9C263.1 234.9 259.6 222.8 260.8 214.2L260.8 214.2z" class="r"/><path d="M260.8 214.2c5.5 6.2 9 18.2 7.8 26.9C267.6 232.2 263.6 220.5 260.8 214.2L260.8 214.2z" class="q"/><path d="M268.6 241.1c5-5.6 8.1-16.6 7.1-24.4C270.7 222.3 267.5 233.2 268.6 241.1L268.6 241.1z" class="q"/><path d="M268.6 241.1c5-5.6 8.1-16.6 7.1-24.4C274.8 224.7 271.1 235.3 268.6 241.1L268.6 241.1z" class="r"/><path d="M259.5 225.2c-5.7 0-10.2 5.1-10.2 11.5C254.9 236.7 259.5 231.5 259.5 225.2L259.5 225.2z" class="r"/><path d="M259.5 225.2c-5.7 0-10.2 5.1-10.2 11.5C251.2 231.7 256.2 227.2 259.5 225.2L259.5 225.2z" class="q"/><polygon points="229.9 187.4 231.5 187.4 231.5 241.1 229.9 241.1 229.9 187.4 " class="q"/><polygon points="238 218.4 239.6 218.4 239.6 241.1 238 241.1 238 218.4 " class="q"/><path d="M238.8 227c-4.2 0-7.7-3.8-7.7-8.6 0-4.7 3.4-8.6 7.7-8.6 4.2 0 7.7 3.8 7.7 8.6C246.5 223.1 243 227 238.8 227L238.8 227z" class="t"/><path d="M238.8 227c0-4.7 3.4-8.6 7.7-8.6C246.5 223.1 243 227 238.8 227L238.8 227z" fill="#672027"/><path d="M238.8 220.5c-1.1 0-1.9-1-1.9-2.1 0-1.2 0.9-2.1 1.9-2.1s1.9 1 1.9 2.2C240.7 219.6 239.9 220.5 238.8 220.5L238.8 220.5z" class="v"/><path d="M228.6 229.6c0 6.3 4.6 11.5 10.2 11.5C238.8 234.7 234.2 229.6 228.6 229.6L228.6 229.6z" class="q"/><path d="M228.6 229.6c0 6.3 4.6 11.5 10.2 11.5C234.4 238.9 230.3 233.3 228.6 229.6L228.6 229.6z" class="r"/><path d="M230.7 179.5c3.8 0 7 3.5 7 7.8h-14C223.7 183 226.8 179.5 230.7 179.5L230.7 179.5z" class="u"/><path d="M230.7 195.2c3.8 0 7-3.5 7-7.8v-7.8c-3.9 0-7 3.5-7 7.8 0-4.3-3.1-7.8-7-7.8v7.8C223.7 191.7 226.8 195.2 230.7 195.2L230.7 195.2z" class="s"/><path d="M346.7 247l21.6-1.1c0.6 0 1.1-0.6 1.1-1.4l0-1.1c0-0.7-0.6-1.3-1.2-1.2l-21.6 1.1c-0.6 0-1.1 0.6-1.1 1.4l0 1.1C345.5 246.4 346 247 346.7 247L346.7 247z" fill="#6F6D6D"/><path d="M299.3 282.4h18.6 18.6l3.5 57.2c0.1 1.7-1 3-2.5 3h-19.6 -19.6c-1.5 0-2.6-1.4-2.5-3L299.3 282.4 299.3 282.4z" class="B"/><polygon points="360.5 282.9 338.6 317.6 339.8 337 364.1 285.6 360.5 282.9 " class="B"/><path d="M375.7 281.4l-15.1-14.9c-1-0.7-1.8-0.1-1.7 1l1.6 15.4 3.6 2.7 11.3-2.9C376 282.5 376.1 281.9 375.7 281.4L375.7 281.4z" class="B"/><polygon points="357 288.4 336.7 285.6 336.9 288.8 355.2 291.3 357 288.4 " class="B"/><path d="M297 320.3l0.3-4.8c-7.1-5.7-11.9-16.2-12.7-26.2 -1-14.2 7.4-25 20.6-24.5 9.6 0.3 18.5 8.1 22.6 17.6h3.9c-4.3-11.7-14.9-21.8-26.4-22.3 -15.4-0.6-25.6 13-24.2 29.5C282.1 302.5 288 313.9 297 320.3L297 320.3z" class="B"/><path d="M326.6 282.4h9.9l3.5 57.2c0.1 1.7-1 3-2.5 3h-9.1L326.6 282.4 326.6 282.4z" class="C"/><polygon points="306.2 282.4 311.4 282.4 310.1 342.5 304 342.5 306.2 282.4 " fill="#DF6E79"/><polygon points="362.3 284.2 339.2 327.3 339.8 337 364.1 285.6 362.3 284.2 " class="C"/><polygon points="375.3 282.7 359 269 360.5 282.9 364.1 285.6 375.3 282.7 " class="C"/><path d="M369.5 325.3c7.6 0 13.7 7.7 13.7 17.2h-27.5C355.8 333 361.9 325.3 369.5 325.3L369.5 325.3z" class="D"/><path d="M384 331.9c5.1 0 9.1 4.7 9.1 10.6h-18.3C374.8 336.7 378.9 331.9 384 331.9L384 331.9z" class="D"/><path d="M351.5 333.5c4 0 7.3 4 7.3 9h-14.5C344.3 337.6 347.5 333.5 351.5 333.5L351.5 333.5z" class="D"/><path d="M400.4 337.6c2.3 0 4.2 2.2 4.2 4.9h-8.4C396.2 339.8 398.1 337.6 400.4 337.6L400.4 337.6z" class="D"/></svg>