<svg version="1.1" id="Layer_1" xmlns="http://www.w3.org/2000/svg" xmlns:xlink="http://www.w3.org/1999/xlink" viewBox="0 0 768 430" enable-background="new 0 0 768 430" xml:space="preserve">
<g transform="matrix(.77058 0 0 .73533 82.58 126.53)">
	<path fill="#009800" d="M401.696,88.405h8.965v270.534h-8.965V88.405z"/>
	<path fill="#009800" d="M557.328,139.209l-38.083,54.745c-27.764,26.577-73.197,30.328-109.687,45.494l31.366-60.194
		c26.601-30.3,76.551-30.721,116.407-40.042L557.328,139.209z"/>
	<path fill="#009800" d="M258.919,184.155l37.162,53.419c27.091,25.933,71.429,29.596,107.031,44.392l-30.608-58.739
		c-25.954-29.565-74.698-29.977-113.587-39.073L258.919,184.155z"/>
</g>
<g transform="matrix(.73923 0 0 .73923 705.11 322.12)">
	<path fill="#FF5555" d="M-438.506-350.96c17.925,14.913,4.441,38.678-10.76,62.574c-27.363-18.468-57.688-34.377-74.774-38.855
		c44.39,16.881,30.539,91.653,47.596,135.077c1.685,6.96,5.372,12.775,10.403,17.523c12.537,14.603,23.355,20.669,39.593,18.176
		c19.882,4.003,32.379-2.924,47.32-20.791c34.214-40.902,6.781-144.075,62.026-165.082c-19.464,5.1-54.67,23.78-85.508,45.049
		c-10.542-22.863-23.8-45.532-35.898-53.675L-438.506-350.96z"/>
</g>
</svg>
