<svg xmlns="http://www.w3.org/2000/svg" viewBox="0 0 768 430"><style>.a{fill:#A3001A;}.b{fill:#CA0141;}.c{fill:#E41B5B;}.d{fill:#B00027;}.e{fill:#E73971;}.f{fill:#EA4D7F;}.g{fill:#FFCFAB;}.h{fill:#EEB490;}.i{fill:#BE9884;}.j{fill:#5D7E00;}.k{fill:#3F5D00;}</style><path d="M489.7 253.5l-10.2-11.6c0 0-16.2 11.4-30.3 22.7 6 5.2 11.5 11.1 17.4 16.3 2.6-2.2 6.7-4 13.1-5.3C496.9 272.2 490.7 253.8 489.7 253.5z" class="a"/><path d="M431.6 280.6c-10.4 12.3 3.9 38.7 3.9 38.7l13.8-15.5 28.1 14.8c0 0-8.3-18.2-12.3-25.1 -2.5-4.3-2.8-8.9 1.5-12.5 -5.9-5.2-11.4-11.1-17.4-16.3C442 270.5 435.2 276.4 431.6 280.6z" class="b"/><path d="M465.2 293.4c-2.5-4.3-2.8-8.9 1.5-12.5 -5.9-5.2-11.4-11.1-17.4-16.3 -7.3 5.9-14.1 11.8-17.7 16 -1.7 2-2.7 4.4-3.3 6.9 6.8-0.7 14.5-1 19.5 2.7 2.4 1.6 4 8.1 8.9 10.5 -3.1-0.4-4.9 1.4-5.8 4l26.5 13.9C477.4 318.5 469.1 300.3 465.2 293.4z" class="a"/><path d="M269.3 133.4c0 0 90.8-24 121.8-28.8 21-3.3 44.7-8.5 77.4-7.9 0 0 3.1 74.1 2.8 89.7 -0.2 15.5 4.1 99.1 4.1 99.1s-51.1-0.5-72.7 2.8c-21.6 3.3-87.3 13.3-87.3 13.3L269.3 133.4z" fill="#00A0C6"/><path d="M473 240.1c-0.2-1.1-0.2-2.2 0-3.2 -0.4-8.5-0.8-17.1-1.1-24.8 -2.2-1.6-3.8-4.1-4.3-7 -0.6-3.8 0.9-7.4 3.7-9.7 -0.1-4-0.2-7.1-0.1-9.1 0-1.7 0-4.2 0-7.2 -4.4-0.7-8.1-4.2-8.8-8.9 -0.9-5.6 2.8-10.8 8.3-12 -0.1-4.6-0.3-9.5-0.5-14.3 -0.4 0.1-0.7 0.2-1.1 0.2 -5.8 0.9-11.2-3.1-12.1-8.9 -0.9-5.8 3.1-11.2 8.9-12.1 1.2-0.2 2.4-0.1 3.5 0.1 -0.2-6.2-0.5-11.8-0.6-16.3 -1.4 1.1-3.1 1.9-5 2.2 -5.8 0.9-11.2-3.1-12.1-8.9 -0.2-1.2-0.1-2.4 0.1-3.5 -6.4 0.3-12.5 0.7-18.2 1.4 1 1.3 1.7 2.9 1.9 4.7 0.9 5.8-3.1 11.2-8.9 12.1 -5.8 0.9-11.2-3.1-12.1-8.9 -0.3-1.9 0-3.7 0.6-5.4 -6.6 1-12.9 2.1-18.9 3.1 1 1.4 1.7 3 2 4.8 0.9 5.8-3.1 11.2-8.9 12.1 -5.8 0.9-11.2-3.1-12.1-8.9 -0.2-1.6-0.1-3.2 0.4-4.7 -5.3 1.1-11.3 2.4-17.7 3.8 0.5 1 0.9 2.1 1.1 3.3 0.9 5.8-3.1 11.2-8.9 12.1 -5.8 0.9-11.2-3.1-12.1-8.9 -0.1-0.6-0.1-1.2-0.1-1.9 -5.4 1.3-10.9 2.6-16.2 3.9 0 0.1 0.1 0.3 0.1 0.4 0.9 5.8-3.1 11.2-8.9 12.1 -5.3 0.8-10.2-2.4-11.7-7.3 -6.1 1.6-11.8 3-16.6 4.3 -0.7 4.4-4.2 8-8.9 8.7 -2.9 0.4-5.8-0.4-8-2l5 18.2c1.4-1.2 3.1-2 5.1-2.3 5.8-0.9 11.2 3.1 12.1 8.9 0.9 5.8-3.1 11.2-8.9 12.1 -1.1 0.2-2.1 0.2-3.1 0l3.9 14.3c0.4-0.1 0.9-0.2 1.3-0.3 5.8-0.9 11.2 3.1 12.1 8.9 0.8 5.4-2.6 10.5-7.8 11.9l3.9 14.2c4.6 0.5 8.5 4.1 9.2 8.9 0.6 4-1.1 7.7-4 10l4.9 17.8c2.3 1.6 4 4.1 4.5 7.1 0.3 2.1 0 4.2-0.9 6l8.3 30.1c0 0 5.8-0.9 14.5-2.2 -0.1-0.5-0.3-1-0.4-1.5 -0.9-5.8 3.1-11.2 8.9-12.1 5.8-0.9 11.2 3.1 12.1 8.9 0.1 0.5 0.1 1 0.1 1.6 5.4-0.8 11-1.7 16.5-2.5 -0.2-0.5-0.3-1-0.4-1.5 -0.9-5.8 3.1-11.2 8.9-12.1 5.8-0.9 11.2 3.1 12.1 8.9 0.1 0.5 0.1 1 0.1 1.6 5.9-0.9 11.1-1.7 14.9-2.3 0.5-0.1 1.1-0.2 1.6-0.2 -0.2-0.5-0.3-1-0.4-1.5 -0.9-5.8 3.1-11.2 8.9-12.1 5.8-0.9 11.2 3.1 12.1 8.9 0.2 1 0.2 2.1 0 3.1 6-0.3 12.3-0.5 18.3-0.6 -1.1-1.4-1.8-3-2.1-4.9 -0.9-5.8 3.1-11.2 8.9-12.1 5.8-0.9 11.2 3.1 12.1 8.9 0.4 2.9-0.3 5.7-1.9 7.9 9-0.1 15.2 0 15.2 0s-1.1-21.3-2.2-44.4C473.2 240.7 473.1 240.4 473 240.1zM317.2 145.9c5.8-0.9 11.2 3.1 12.1 8.9 0.9 5.8-3.1 11.2-8.9 12.1 -5.8 0.9-11.2-3.1-12.1-8.9C307.4 152.2 311.4 146.8 317.2 145.9zM322.5 180.9c5.8-0.9 11.2 3.1 12.1 8.9 0.9 5.8-3.1 11.2-8.9 12.1 -5.8 0.9-11.2-3.1-12.1-8.9C312.7 187.1 316.7 181.7 322.5 180.9zM327.8 215.8c5.8-0.9 11.2 3.1 12.1 8.9 0.9 5.8-3.1 11.2-8.9 12.1 -5.8 0.9-11.2-3.1-12.1-8.9C318 222.1 322 216.7 327.8 215.8zM336.3 271.7c-5.8 0.9-11.2-3.1-12.1-8.9 -0.9-5.8 3.1-11.2 8.9-12.1 5.8-0.9 11.2 3.1 12.1 8.9C346.1 265.4 342.1 270.8 336.3 271.7zM354.4 140.3c5.8-0.9 11.2 3.1 12.1 8.9 0.9 5.8-3.1 11.2-8.9 12.1 -5.8 0.9-11.2-3.1-12.1-8.9S348.6 141.1 354.4 140.3zM359.7 175.2c5.8-0.9 11.2 3.1 12.1 8.9 0.9 5.8-3.1 11.2-8.9 12.1 -5.8 0.9-11.2-3.1-12.1-8.9C349.9 181.5 353.9 176.1 359.7 175.2zM365 210.1c5.8-0.9 11.2 3.1 12.1 8.9 0.9 5.8-3.1 11.2-8.9 12.1 -5.8 0.9-11.2-3.1-12.1-8.9C355.2 216.4 359.2 211 365 210.1zM373.5 266c-5.8 0.9-11.2-3.1-12.1-8.9 -0.9-5.8 3.1-11.2 8.9-12.1 5.8-0.9 11.2 3.1 12.1 8.9C383.3 259.7 379.3 265.1 373.5 266zM391.6 134.6c5.8-0.9 11.2 3.1 12.1 8.9 0.9 5.8-3.1 11.2-8.9 12.1 -5.8 0.9-11.2-3.1-12.1-8.9C381.8 140.9 385.8 135.5 391.6 134.6zM396.9 169.5c5.8-0.9 11.2 3.1 12.1 8.9 0.9 5.8-3.1 11.2-8.9 12.1 -5.8 0.9-11.2-3.1-12.1-8.9C387.1 175.8 391.1 170.4 396.9 169.5zM402.2 204.4c5.8-0.9 11.2 3.1 12.1 8.9 0.9 5.8-3.1 11.2-8.9 12.1 -5.8 0.9-11.2-3.1-12.1-8.9C392.4 210.7 396.4 205.3 402.2 204.4zM410.7 260.3c-5.8 0.9-11.2-3.1-12.1-8.9 -0.9-5.8 3.1-11.2 8.9-12.1 5.8-0.9 11.2 3.1 12.1 8.9C420.5 254 416.5 259.5 410.7 260.3zM428.8 128.9c5.8-0.9 11.2 3.1 12.1 8.9 0.9 5.8-3.1 11.2-8.9 12.1 -5.8 0.9-11.2-3.1-12.1-8.9C419 135.2 423 129.8 428.8 128.9zM434.1 163.8c5.8-0.9 11.2 3.1 12.1 8.9 0.9 5.8-3.1 11.2-8.9 12.1 -5.8 0.9-11.2-3.1-12.1-8.9S428.3 164.7 434.1 163.8zM439.4 198.8c5.8-0.9 11.2 3.1 12.1 8.9 0.9 5.8-3.1 11.2-8.9 12.1 -5.8 0.9-11.2-3.1-12.1-8.9C429.6 205.1 433.6 199.7 439.4 198.8zM447.9 254.7c-5.8 0.9-11.2-3.1-12.1-8.9 -0.9-5.8 3.1-11.2 8.9-12.1 5.8-0.9 11.2 3.1 12.1 8.9C457.7 248.4 453.7 253.8 447.9 254.7z" fill="#0083B6"/><path d="M458.1 270.7c2.1 1.6 3.6 4 4 6.8 0.4 2.9-0.3 5.7-1.9 7.9 9-0.1 15.2 0 15.2 0s-0.6-10.9-1.3-25.5c-2 2-2.6 5.2-2 8.4" fill="#006FA9"/><path d="M367.4 182.8c0 0-15-54.7-27.7-70l49.5-10.6 1.4 74.7 81.7-16.1c0 0 4.4 44.4 2.5 44.6 -1.9 0.2-80.3-1.3-80.3-1.3l21.8 86.4 -42.3 6 -1.2-89.6 -77.1 32.3 -13.3-42.9L367.4 182.8z" fill="#E83C73"/><path d="M412.3 284.5c-5.7-0.8-8.9-7.3-15.3-5.7 -3.2 0.8-6.5 4-5.7 8.1 -2.4-6.5-10.5-4.8-14.5-1.6 -1.2 1-2.2 2.2-2.9 3.5l0.1 7.7 42.3-6 -1.5-5.9C414 284.6 413.2 284.6 412.3 284.5z" fill="#DB2F66"/><path d="M464.5 162.4l-74 14.5 -0.3-11.4c-7.4 7-15.4 12.8-25.2 9.9 1.4 4.5 2.3 7.3 2.3 7.3l-59.3 9.5c0 0-8 3-8.4 7.1 -0.6 11.3 5.1 24.6 11.2 33.8l61.2-25.1 0.9 4.9c7.7 0.3 15.7-0.4 23.1-2.6l-1.5-6.1c0 0 26.9 0.5 49.6 0.9 -0.9-1.1-1.7-2.2-2.6-3.3 7.7-0.8 16.4 0.5 20.2-6.9C467.3 184.2 465.9 173.1 464.5 162.4z" fill="#CE2259"/><path d="M375 181.8c0 0-41.5-9.8-53.6-25 -12.2-15.2-10.9-21.4-18.3-16.4 -7.4 4.9-13.9 9.7-10.5 20.5 3.4 10.8 61.7 28.9 77.6 29.1C386.1 190.1 375 181.8 375 181.8z" class="c"/><path d="M375 181.8c0 0-8.1-1.9-18.2-5.4 0.2 0.3 0.3 0.7 0.4 1.1 -18.3 3.5-41.2-0.2-55-12.7 -4.3-3.4 5.3-15.4 12.5-13.8 1 0.2 2 0.5 3 0.8 -8.3-11.6-8.1-15.9-14.6-11.5 -7.4 4.9-13.9 9.7-10.5 20.5 3.4 10.8 61.7 28.9 77.6 29.1C386.1 190.1 375 181.8 375 181.8z" class="b"/><path d="M375 181.8c0 0-4-0.9-9.8-2.7 -0.3 1.2-1.2 2-2.2 2 -7.3 0.5-14.8 0.7-21.7 2.9 12.1 3.5 23.1 5.9 28.8 5.9C386.1 190.1 375 181.8 375 181.8z" class="d"/><path d="M322.3 240.3c0 0 3.9 18.3 14.8 10.2 10.9-8.2 22.3-46.3 39.6-48.2 17.3-1.9 24.1-6.1 36.6-5.6 12.5 0.5 56.6 8.5 45.9-28.2 -10.7-36.7-46.7 0.6-63.8 16.2 -17.1 15.5-31.4 12.7-38.4 12.1C349.9 196.3 313.2 218.1 322.3 240.3z" fill="#BD0034"/><path d="M459.2 168.5c-10.7-36.7-46.7 0.6-63.8 16.2 -17.1 15.5-31.4 12.7-38.4 12.1 -7.1-0.5-43.8 21.3-34.7 43.5 0 0 3.8 17.7 14.3 10.5 -2.4 0.1-4.4-0.9-5-2.9 -7.3-24.1 14.2-32.4 33.7-39.2 0.1 0.6 4.4-4.3 4.6-3.8 2.2-1.5 4.4-2.4 6.8-2.7 13.4-1.5 49.2-5 57.5-6 -3.3-12.9-23.7-5.4-21.7-8.5 5-7.9 26.5-13 35.4-14 8.5-0.9 9.4 7.6 10.2 14.9C461 184.3 461.9 177.9 459.2 168.5z" class="d"/><path d="M296.8 133.7c0 0-10.8 17.7-5.3 27 0 0 2.3-5.3 10.2-8.4C309.6 149.1 315 129.2 296.8 133.7z" class="d"/><path d="M297.3 165.9c0 0-8.2-5.3-1.3-9.2 6.9-3.9 18.9-10.6 18-27.7 -0.9-17.1-8.6-26.1-30.5-25.6 -21.9 0.5-31.6 2.2-31.6 2.2l11.3 16.3 -13.2 18.9c0 0 44-1.6 49.3 3.2C304.6 148.7 280.4 157.5 297.3 165.9z" class="c"/><path d="M364.6 183.5c0 0-20.1-0.2-41.5 4.5 -21.4 4.7-21.4 13.8-20.3 19.4 1.1 5.6 16.9 41.6 26.3 44.4 0 0-8-7.7-4-19.1 4-11.4 17.6-22 27.3-24.9 9.7-3 17-6.1 27.6-9.2 10.6-3.1 17.3-3.3 28.3-12.1 11-8.8 27.3-20.6 39.3-20 12 0.6 12.7 15.8 12.7 15.8s2.8-9.4 0.1-21c-2.7-11.6-10.4-25.1-30-25.8 0 0-24.7 9.9-34.4 39.1C396 174.4 380 185.2 364.6 183.5z" class="c"/><path d="M334.1 186c-3.6 0.6-7.4 0.2-11.1 1 -7.1 1.6-11.7 4.6-14.8 6.9 4.4 0.4 11.5 3.5 13.1 6.9 4.2 9.7-2.4 23.6 3.3 33.1 0 0.1 0.1 0.1 0.1 0.2 0.1-0.5 0.3-0.9 0.4-1.4 2.2-6.3 7.3-12.3 13.1-16.9 -0.8-0.9-1.5-2-2-3.3C332.7 204.8 319.5 194.6 334.1 186z" class="e"/><path d="M402.1 174.9c-2-1.6-3.2-3.9-3.8-6.5 -0.8 1.9-1.6 3.9-2.3 6 0 0-16 10.8-31.4 9.2 0 0-1.8 0-5 0.1 1.8 0.8 3.3 2.1 4.2 4 1.2 3.8-5.9 3-4 5.9 1.1 3 6.1-0.7 7.2 1.6 2.3 3.3 1 5.8-1.1 8.1 4.4-1.6 8.9-3.1 14.2-4.7 10.6-3.1 17.3-3.3 28.3-12.1 0.2-0.1 0.3-0.3 0.5-0.4 -0.4-0.5-0.8-1-1.1-1.6 -2-3.7-0.2-8.5 2.6-11.9 2.1-2.6 7.4-3.1 6.2-7.7C410.5 167 406.2 169.8 402.1 174.9z" class="b"/><path d="M454.2 168.4c-10.1-6.7-14.8-14.7-16.8-25.4 -0.3-2.9 1-4.8 3.1-6 -3-1-6.5-2.2-10.3-2.3 0 0-5.8 2.9-13 8.9 10.1-2.6 21.1 2.5 19.8 16.6 -0.5 4.4-5 7.4-7.2 11.4 6.2-3.3 12.5-5.5 17.8-5.3 4.4 0.2 7.3 2.4 9.2 5.1C456.3 170.3 455.4 169.2 454.2 168.4z" class="e"/><path d="M459.2 168.5c-0.4 0.1 1.3 4.1 1.1 10.9 -0.1 3.3-1.1 7.4-4 10.6 -2.9 3.3-7.6 5.2-12.6 6.1 -10.2 1.9-19.7 0.7-26.5 0.4 -6.9-0.5-11.1 0.3-11.1 0.4 0 0.2 4.2-0.3 11 0.5 6.8 0.6 16.3 1.9 26.8 0 5.2-1 10.2-3 13.3-6.6 3.2-3.5 4.1-8 4.1-11.4C461.2 172.4 459.1 168.4 459.2 168.5z" class="c"/><path d="M351.1 228.4c-6.7 13-13.7 22.3-14.1 22 0.8 0.9 8.6-8.4 15.2-21.4 6.8-12.9 14.5-21.7 14.5-21.8C366.4 206.8 357.9 215.5 351.1 228.4z" class="c"/><path d="M458.1 173.1c-1.3-2.5-3.7-5.5-7.6-6.6 -3.8-1.1-8.2-0.3-12.4 1.1 -16.6 6.4-27 16.9-27.1 16.7 0.3 0.5 10.9-9.7 27.3-16 4.1-1.3 8.4-2.1 12-1.1 3.7 0.9 6 3.7 7.3 6.2 2.6 5.1 2.5 8.9 2.7 8.8C460.3 182.2 460.6 178.4 458.1 173.1z" class="f"/><path d="M357.6 205.9c-6.5 1.6-15.7 5.3-23.1 12.7 -7.6 7-12.1 16.6-10.4 23.6 1.4 6.9 5.2 9.7 5.1 9.7 0.2-0.1-3.3-3-4.6-9.7 -1.5-6.8 2.9-16 10.4-23 7.4-7.4 16.2-11 22.8-12.8 6.4-2.3 10.3-3.8 10.3-3.9C368 202.3 364 203.7 357.6 205.9z" class="f"/><path d="M393.4 198.8c0 0 31.1 5.2 43.6 29 12.5 23.8 31.8 23.3 42.7 24 10.9 0.7 12.2 15.2 7.6 20.2 0 0 9.1-1.3 5.5-19.7 -3.6-18.4-5.1-31.9-17.2-32.5 -12.1-0.6-37.5-14.4-42.6-23.3C427.8 187.5 367.8 194.3 393.4 198.8z" class="c"/><path d="M438.2 220.7c-4.4-12-20.2-14.1-29.1-24 1.5-0.2 3.1-0.3 4.6-0.5 15.2 4.2 30 17.4 45.5 18.8 -11.2-5-23.2-13.7-26.5-19.5 -5.1-9-64.9-1.2-39.3 3.4 0 0 31.1 5.2 43.6 29 10.1 19.3 24.9 23.4 35.8 23.5C457.5 246.9 445.5 237.1 438.2 220.7z" class="b"/><path d="M492.8 252.3c-3-15.9-4.6-28.1-12.8-31.5 6.9 10.9 9.9 23.2 7 34.8 3.8 4.8 1.7 14.5-1.5 18C485.5 273.5 496.8 273 492.8 252.3z" class="b"/><path d="M365.3 183.6c0 0 10.4 13.1 5.3 18.4 0 0-5.6 6.7 8.3 6.4 14-0.3 24.1-6.4 23.3-17.2 0 0-1.2-13.6-8.1-18.5 -6.9-5-9 1.9-12.6 4.2C377.9 179.2 367 177.7 365.3 183.6z" class="c"/><path d="M390.5 177.9c-4 8.9-11.3 4.8-17.8 5.7 -1.6 0.8 1.6 4.8 3.2 7.3 0.8 2.4-1.6 6.5-0.8 7.3 8.1 2.4 19.4-1.6 21-10.5 0.6-3.3 0.3-7-1.4-10.1C392.8 176.2 391.3 175.6 390.5 177.9z" class="e"/><path d="M389.6 170.7c-3.8-0.3-5.6 5-9.6 6.5 -4.3 1.1-8.7 1.2-11.5 2.7 -3 1.4-3.2 3.8-3.2 3.7 0.1 0.1 0.5-2 3.4-3.2 2.7-1.3 6.9-1.3 11.5-2.5 4.6-2 6-7 9.4-6.7 2.9 0.1 4.4 1.7 4.5 1.5C394.1 172.8 392.8 171 389.6 170.7z" class="b"/><path d="M402.2 191.2c-0.2 0 0.4 2.8-1.3 6.6 -1.6 3.9-6.6 7.6-12.8 9.1 -6.2 1.4-12.2 1.6-16.2 0.4 -2.1-0.7-2.5-2.6-2-3.6 0.4-1.1 0.8-1.6 0.8-1.6 0 0-0.5 0.4-1 1.5 -0.7 1.1-0.2 3.5 2.1 4.2 4.1 1.4 10.2 1.3 16.5-0.2 6.4-1.4 11.5-5.5 13.1-9.6C403 193.9 402.1 191.2 402.2 191.2z" class="b"/><path d="M400.2 181c-1.8-5.6-6-8.6-6.1-8.3 -0.1 0.1 3.6 3.1 5.4 8.6 2 5.3 2.5 10 2.7 9.9C402.3 191.2 402.2 186.5 400.2 181z" class="d"/><path d="M365.3 183.6c-0.2 0.1 2.6 3.8 4.9 8.9 2.8 5.3 0.5 9.6 0.3 9.5 0 0 1.1-0.7 1.6-2.6 0.4-1.9-0.1-4.6-1.2-7.2C368.6 186.9 365.4 183.5 365.3 183.6z" class="d"/><path d="M265.7 356.6c4.3-3 21.8-4.6 33.6-10.9 11.7-6.3 15.8-3.8 17.5-5.3 1.7-1.5 3.9-6.7-5.5-9.5 -9.4-2.7-15.7 0-16.5-2.3 -0.8-2.3 11.3-13.8 15.7-19.1 4.4-5.3 15.4-18.1 10.4-20.9 -5-2.8-5.7-1.8-14.2 6.9 -8.5 8.8-14.7 15.9-16.8 14.8s4.2-8.1 11.5-16.6c7.3-8.5 13.9-16 10.6-19.9 -3.3-3.9-6.6-2.5-13 4.4 -6.4 6.9-14.1 20.6-17.3 20 -3.2-0.6 0.9-4.8 6.6-12 5.8-7.2 13-17.1 8.9-19.6 -4-2.5-7.2-0.2-15 9.5 -7.8 9.6-14.3 22-15.8 20.7 -1.5-1.3 3.3-8.8 7.8-15.7 4.5-6.9 7.5-13.4 2.1-13.7 -3.4-0.2-13.2 15.5-23.1 28.8 -9.9 13.3-14.8 30.6-17.6 35.6 -2.8 5-13.8 14.8-18.9 19.2l23.6 27.5C240.3 378.8 258.7 361.5 265.7 356.6z" fill="#FFDCC2"/><path d="M265.3 298.3c-6.5-4.4 5.7-12.6 11-20.1 -0.6 1-1.3 2.1-2 3.2 -4.5 6.9-9.3 14.4-7.8 15.7 0.9 0.8 3.6-3.3 7.3-8.8C271.2 294.3 269.9 300.7 265.3 298.3z" class="g"/><path d="M281.7 298.4c1.1 0.2 2.7-1.3 4.7-3.6 -1.7 3.2-4.1 6.1-7.5 7.9 -3.1-7.1 4.7-13 10.7-17.9 -0.4 0.6-0.9 1.1-1.3 1.6C282.6 293.6 278.6 297.8 281.7 298.4z" class="g"/><path d="M289.9 310.5c1 0.5 2.9-0.7 5.5-3.2 -2.4 2.6-5.3 4.8-7.5 7.7 -3.5-9.6 6.6-16.2 13.9-21.6 -0.1 0.1-0.2 0.3-0.4 0.4C294.2 302.3 287.8 309.3 289.9 310.5z" class="g"/><path d="M316.6 336.4c-6-6.6-16.5-2.4-24.3-4.1 -1-0.9-2.9-1.8-2-3.8 7.1-6.6 11.5-17.3 20.8-19.6 -0.2 0.3-0.4 0.5-0.6 0.8 -4.4 5.3-16.5 16.8-15.7 19.1 0.8 2.3 7.1-0.5 16.5 2.3 6.8 2 7.6 5.3 6.8 7.5C317.8 337.6 317.3 336.9 316.6 336.4z" class="g"/><path d="M183.8 364.6c3.6-4.8 10.3-6.7 20-13.3 9.7-6.6 14-7.7 24.1-10.9 10.1-3.1 22.8 23.5 25.3 26.5 2.5 2.9-2.4 10.1-6.7 12.6 -4.3 2.4-2.5 6.4-15.9 17.9 -0.3 0.3-0.6 0.6-1 0.9h-91.9C160.9 381.2 182.6 366.2 183.8 364.6z" fill="#C97185"/><path d="M249.3 382c-6.8-16.8-20.1-28.7-33.7-40.8 2.8-0.9 6.1-5 9.8-5.9 6.2-1.5 31.8 33.1 33.4 37.4C259.2 373.6 253.6 378.3 249.3 382z" fill="#D18798"/><path d="M467.2 309.4c6.9 4.7 14.5 9.8 15.8 8.2 1.4-1.5-11.1-8.4-20.8-16.5 -9.7-8.1-12.1-11.4-9.4-15.4 2.6-4.1 12.6 3.4 19.8 9.4 7.2 6 11.5 12.6 12.2 9.3 0.7-3.2-13.3-13.7-20.2-20.3 -7-6.6-8.3-10-4.3-13.3 4-3.3 11.6 3.5 20.1 11.1 8.5 7.6 15.5 14.2 16.7 12 1.2-2.1-6-8.6-14.8-17.4 -8.8-8.8-9.8-9.5-6.8-14.6 2.9-5.1 15.8 6.4 21.1 11 5.3 4.6 16.9 17.2 19.2 16.4 2.3-0.8-0.4-7.2 2.6-16.8 2.9-9.6 8.3-7.2 9.7-5.4 1.5 1.8-1.2 5.8 5.1 17.9s7.6 30 10.5 34.4c3.1 4.7 48.3 50.5 76.3 78.8h-62.9c-17.1-22-36.5-47.1-39-48.6 -5.1-2.9-22.6-8.3-36-18.5 -13.4-10.3-30.7-17.6-28.9-24C455.1 300.7 460.3 304.6 467.2 309.4z" fill="#F1C0A2"/><path d="M574.8 375.2c14.6-13.8-27-38.1-37.6-56.6 -3.9-7.4-1.8-15.1 0.2-22.5 2.9 9.9 4.1 20.1 6.3 23.2 3.1 4.7 48.3 50.5 76.3 78.8h-62.9c-6.5-8.4-13.3-17.2-19.4-25C555 393.8 560.1 389.1 574.8 375.2z" class="h"/><path d="M529.3 362.4c-5.8-7.2-10-12.2-11.1-12.8 -4.3-2.5-17.7-6.7-29.9-14.3 11 3.2 23 3.9 32.9 8.8C528.3 347.8 530 354.8 529.3 362.4z" class="h"/><path d="M483 317.6c0.5-0.6-0.9-1.9-3.3-3.7 4.3 1.9 8.7 3.7 11.4 8.2 -9.4 1.5-15.1-5.6-21.6-11.2C475.7 315.2 481.8 319 483 317.6z" class="h"/><path d="M479.2 301.3c3.3 3.3 5.2 5.2 5.6 3.2 0.3-1.3-1.8-3.8-4.9-6.7 5.2 2.9 10.1 6.1 12 12C486.8 309.2 482.8 305.5 479.2 301.3z" class="h"/><path d="M521.8 270.1c-5 8 1.5 17.9-3.5 26 -2.1-2.6-4-5.5-5.9-8.4 1.5 1.2 2.8 1.9 3.4 1.7 2.3-0.8-0.4-7.2 2.6-16.8 2.9-9.6 8.3-7.2 9.7-5.4 0.1 0.1 0.1 0.2 0.2 0.3C525.9 267.3 523.7 267.9 521.8 270.1z" class="h"/><path d="M502.6 300.3c-5.7-1.4-8.8-5.4-11.9-9.4 3.4 2.8 5.8 4.2 6.5 3.1 0.9-1.6-2.9-5.6-8.6-11.2C494 287.7 501.8 291.1 502.6 300.3z" class="h"/><path d="M554 398c14.9-8.8 28-18.7 42.2-30.3 10.9 11 21.5 21.8 30.3 30.7h-72.2C554.2 398.2 554.1 398.1 554 398z" fill="#B697CF"/><path d="M617.4 392.4c-7.5-8.6-15.4-16.1-21.5-24.6 0.1-0.1 0.2-0.2 0.3-0.2 10.9 11 21.5 21.8 30.3 30.7h-5.2C620 396.4 618.6 394.3 617.4 392.4z" fill="#AB88C8"/><path d="M359.1 329.1c8.7 4.9 11.1 11.4 13.3 10.4 2.2-1 2-18 2.7-24.9 0.7-7 2.4-27 8-25.3 5.6 1.6 5.4 2.8 5 15.2 -0.3 12.4-1.4 24.9 0.9 25.6 2.4 0.7 2.9-8.8 3.9-20.1 1-11.3 2.3-23.5 7.5-23.9 5.2-0.3 6.1 2.6 5.6 12.1 -0.5 9.5-5.1 27.4-2.4 29.3 2.7 1.8 2.9-4 4-13.3 1.1-9.3 3.2-21.5 7.9-20.4 4.7 1.1 5.2 5.1 3.7 17.6 -1.5 12.5-5.8 26-3.8 26.2 2 0.2 4-8.6 5.8-16.8 1.8-8.2 2.8-14.6 8.5-11.2 5.7 3.4-1.8 20.6-4.5 37.1 -2.6 16.6-11.7 32.4-13.3 38 -0.8 2.9-1.1 8.3-1 13.7h-36.7c-0.3-6.9-0.8-14.2-1.4-18.1 -0.9-5.2-12.2-19.1-15.9-32.1 -3.7-13-8.4-14.1-8.6-16.4C348.2 329.5 350.4 324.2 359.1 329.1z" fill="#C4A290"/><path d="M411.4 387.4c-0.4 3-0.5 7-0.5 11h-5.5C407.9 395.3 409.8 391.5 411.4 387.4z" class="i"/><path d="M372.8 345.6c-4.7-4.5-7.7-10.9-12.2-15.6 7.5 4.8 9.8 10.4 11.9 9.5 2-0.9 2-14 2.5-21.9C375.9 327 375.4 336.5 372.8 345.6z" class="i"/><path d="M389 339.3c-2.5-5.5-2.3-11.1-1.4-16.8 0 4.2 0.4 7.1 1.5 7.4 1.5 0.4 2.2-3.1 2.8-8.5C392.2 327.5 392 333.5 389 339.3z" class="i"/><path d="M405.3 335c-0.9 1-2.9-0.9-3.9-0.9 -2.4-6-0.1-12.7 2.3-19.1 -0.9 6.2-1.5 11.4-0.1 12.3 2.7 1.8 2.9-4 4-13.3 0.3-2.5 0.7-5.2 1.1-7.7C409.1 316.1 409.7 325.7 405.3 335z" class="i"/><path d="M413.4 347.4c-1.5-6.4 0.5-12 2.5-17.6 -0.9 4.6-1.4 7.7-0.4 7.7 2 0.2 4-8.5 5.8-16.7 -0.6 9.1-1.6 18.3-4 27.4C416.4 351.1 414.4 348.3 413.4 347.4z" class="i"/><polygon points="372.3 384.2 414 384.6 414.9 398.4 371.4 398.4 " fill="#A1B01C"/><path d="M414.9 398.3l0 0.1h-1.8C413.8 398.3 414.3 398.3 414.9 398.3z" class="j"/><path d="M371.7 393.8c9.7 2.3 19.8 4.1 29.8 4.6h-30.1L371.7 393.8z" class="j"/><path d="M394.3 397.8c2.4 0.3 4.9 0.5 7.3 0.6h-7.1C394.5 398.2 394.4 398 394.3 397.8z" class="k"/><path d="M414.9 398.3l0 0.1h-1.8C413.8 398.3 414.4 398.3 414.9 398.3z" class="k"/></svg>