<svg version="1.1" xmlns="http://www.w3.org/2000/svg" viewBox="0 0 768 430" xml:space="preserve"><style>.s0{fill:#DDE4D0;}</style><g transform="translate(-198.33088,-137.72978)"><path d="M592.7 311.2l-12.4 6.9 49 87.7 4.5 8.4 5.4 7.4 5.9 5.9 5.9 4.5 6.4 3 6.9 1 6.9-0.5 7.4-3 5.9-5 4-5.4 2-6.9 0.5-7.9 -2-8.4 -3-8.9 -5-9.4 -6.4-9.9 -9.9 6.4 4 6.9 3.5 6.4 2.5 6.4 1.5 5.9 0.5 5 -0.5 4.5 -2 4 -3.5 2.5 -4 2 -4 0.5 -3.5-0.5 -3.5-2 -4-3 -3.5-4.5 -4-5.4 -3.5-6.9L592.7 311.2zM445.6 402.3l1-9.4 1-9.9 1.5-10.9 2-10.9 2.5-11.9 3-11.9 3.5-12.4 4-12.4 5-12.4 5.4-12.4 6.4-12.4 7.4-12.4 8.4-12.4 9.4-11.9 10.4-11.4 11.9-11.4 -7.9 12.4 -5 15.4 -2 17.8 0.5 19.3 3 19.3 5 19.3 6.9 17.3 8.4 15.4 -6.4-0.5 -6.4-0.5 -6.4 0.5 -6.4 0.5 -6.4 1.5 -6.9 2 -5.9 2 -6.4 3 -6.4 3.5 -5.4 4 -5.9 4.5 -5 4.5L458 383l-5 5.9 -4 6.4L445.6 402.3zM543.2 348.8l-7.9-15.4 -5.9-17.8 -5-18.8 -2.5-19.3 -1-18.8 1.5-17.3 3-15.8 5-12.4h9.4l8.4 1.5 8.4 2 7.9 3 7.9 4 7.4 4.5 6.9 5.4 7.4 5.9 6.4 5.9 5.9 6.9 5.9 6.4 5.9 7.4 5.4 6.9 5.4 7.4 5 6.9 4.5 7.4 -6.4-1h-6.4l-6.4 0.5 -6.9 1 -6.9 1.5 -6.9 2.5 -6.4 2.5 -6.9 3.5 -6.4 3.5 -6.4 4.5 -5.4 5 -5.9 5 -5 5.9 -5 5.9 -4.5 6.9L543.2 348.8zM736.3 243.4l-7.9-4 -9.4-4.5 -9.9-4.5 -10.4-4.5 -11.4-4.5 -11.4-4 -12.4-4 -12.4-3.5 -13.4-2.5 -13.9-2.5 -13.9-1.5h-14.4 -14.9l-14.9 1.5 -15.4 3 -15.8 4.5 7.4-1 6.9 0.5 7.9 1.5 7.9 3 7.9 3 8.4 4.5 7.4 5 7.9 5.4 7.9 6.4 7.4 6.4 6.9 6.9 6.4 7.4 5.9 7.4 5.4 7.4 4.5 7.4 4 7.9 3-5.9 3-5.4 3.5-5 4.5-5.4 4.5-4.5 5-4 5.9-4.5 5.4-3 6.4-3.5 6.4-2.5 6.9-2 6.9-2 6.9-1 7.9-0.5h7.4L736.3 243.4z" fill="#DDE4D0"/></g></svg>