<svg xmlns="http://www.w3.org/2000/svg" viewBox="0 0 768 430"><style>.a{fill:#FFC9A4;}.b{fill:none;stroke-linejoin:round;stroke:#EDAE83;}.c{fill:#AFAFAF;}.d{fill:#635245;}.e{fill:#647043;}.f{fill:#CEB367;}.g{fill:#BFBFBF;}.h{fill:none;stroke-linejoin:round;stroke-width:0.8;stroke:#D37F46;}.i{fill:#BAD68A;}</style><rect x="395.7" y="117.1" width="16" height="27.9" class="a"/><path d="M444 78.1c0.7 24.6-11.4 43.3-40.1 43.3 -29.4 0-41.4-18.2-40.1-43.3 1.5-28.5 14.5-49.4 41.5-49.4C431.4 28.6 443.2 48.1 444 78.1z" class="a"/><path d="M395.8 93.3c-4.5 3.1-6.4 10.3-6.5 12.9" class="b"/><path d="M413.5 93.3c4 2.7 6.1 9.8 6.3 12.4" class="b"/><path d="M402.3 75.9c0 0-7.3 9.2-4.6 12.5 3 3.7 10.8 1.9 10.8-1.4" style="fill:none;stroke-linejoin:round;stroke:#D37F46"/><path d="M398.2 105c0 0 3.2 1.1 6.4 1.1 3.5 0 6-1 6-1" style="fill:none;stroke-linejoin:round;stroke:#DB5279"/><ellipse cx="390.3" cy="71.7" rx="3.6" ry="3.8"/><ellipse cx="418.3" cy="71.7" rx="3.6" ry="3.8"/><polygon points="382.8 61.9 396.9 61.9 388 56.6 " class="c"/><polygon points="425.4 61.9 411.2 61.9 420.1 56.6 " class="c"/><path d="M377.5 67c2.7 0.2 4 1.8 4 1.8" class="b"/><path d="M375.9 72.3c0 0 3.4-1.1 5.6-0.4" class="b"/><path d="M431 67c-2.7 0.2-4 1.8-4 1.8" class="b"/><path d="M432.6 72.3c0 0-3.4-1.1-5.6-0.4" class="b"/><circle cx="363.8" cy="79.7" r="6.1" class="a"/><circle cx="444" cy="79.7" r="6.1" class="a"/><path d="M371.1 45c4.3-0.4 1.1 7.2 1.1 7.2l-5.8 24.6c0 0-1.1-3.1-3.2-3.1C362.1 70.1 360.9 45.9 371.1 45z" class="c"/><path d="M437.1 45.3c-4.3-0.4-1.1 7.2-1.1 7.2l5.8 24.6c0 0 1.1-3.1 3.2-3.1C446 70.4 447.2 46.2 437.1 45.3z" class="c"/><path d="M393.1 394.1c-2.7 6.7-8.6 8.1-14.8 7 -6.2-1.1 11.3-16.9 11.3-16.9h5.5C395.1 384.1 395.4 388.4 393.1 394.1z" class="d"/><polygon points="395.5 385.4 387.9 385.4 382.1 235.8 401.5 255.6 " class="e"/><path d="M411.4 394.1c2.7 6.7 8.6 8.1 14.8 7 6.2-1.1-11.3-16.9-11.3-16.9h-5.5C409.4 384.1 409.1 388.4 411.4 394.1z" class="d"/><polygon points="409 385.4 416.7 385.4 422.5 235.8 403.1 255.6 " class="e"/><polygon points="416.1 255.7 388.8 255.8 382.1 235.8 422.5 235.8 " class="e"/><polygon points="422.4 237 382.1 237 382.2 239.8 422.3 239.8 " class="d"/><rect x="393" y="236.5" width="1.3" height="3.5" class="f"/><rect x="410.9" y="236.5" width="1.3" height="3.5" class="f"/><rect x="399.8" y="236.5" width="5" height="3.5" style="fill:none;stroke-width:0.9;stroke:#9B9B9B"/><line x1="401.2" y1="242.1" x2="401.2" y2="251" style="fill:none;stroke-linejoin:round;stroke-width:0.7;stroke:#414925"/><polygon points="432.6 136.3 412.6 127.9 403.8 135 395 127.3 372.8 136.3 378 159.1 381.3 244.3 423.1 244.3 427.6 160.2 " fill="#FFF"/><polygon points="392.3 127.7 372.8 136.3 378 159.1 380.3 254.6 396.7 254.6 396.3 187.3 " class="g"/><polygon points="409.3 254.6 424.1 254.6 427.6 160.2 432.6 136.3 415.1 127.6 410.5 187.4 " class="g"/><path d="M371.6 242.7l-0.7 9c2.7 5.2 4.9 18.1 3.3 18.3 -1.6 0.2-2.9-8-3.7-8 -1.6 0.1-2.1 5.4-1.9 10.6 0.2 6.5-2 6.2-3.6 6.1 -1.5-0.1-2.3-2.4-2.5-3.4 -0.5-2-1.3-6.6-1-10.1 0.6-6.9 2-13.8 2-13.8l1.4-9L371.6 242.7z" class="a"/><path d="M365.7 267.6c-0.3 2.3 0 7.6 0.4 11.1" class="h"/><path d="M363.1 267.4c-0.4 2.6-0.2 8 0.6 10.8" class="h"/><path d="M372.8 136.3c-6.5 1.5-7.6 14.7-8 21.5 -0.4 6.1-3.3 93.2-3.3 93.2l11.7 0.8 7-92.6L372.8 136.3z" class="g"/><path d="M433.7 242.7l0.7 9c-2.7 5.2-4.9 18.1-3.3 18.3 1.6 0.2 2.9-8 3.7-8 1.6 0.1 2.1 5.4 1.9 10.6 -0.2 6.5 2 6.2 3.6 6.1 1.5-0.1 2.3-2.4 2.5-3.4 0.5-2 1.3-6.6 1-10.1 -0.6-6.9-2-13.8-2-13.8l-1.4-9L433.7 242.7z" class="a"/><path d="M439.6 267.6c0.3 2.3 0 7.6-0.4 11.1" class="h"/><path d="M442.1 267.4c0.4 2.6 0.2 8-0.6 10.8" class="h"/><path d="M432.5 136.3c6.5 1.5 7.6 14.7 8 21.5 0.4 6.1 3.3 93.2 3.3 93.2l-11.7 0.8 -7-92.6L432.5 136.3z" class="g"/><polygon points="395.1 123.9 390.1 127.5 396.4 143.4 403.8 135 " class="i"/><polygon points="412.4 123.9 417.4 127.9 410.9 142.7 403.8 135 " class="i"/></svg>