<svg xmlns="http://www.w3.org/2000/svg" viewBox="0 0 768 430"><style>.a{fill:#B1B0C2;}.b{fill:#C2C1D4;}</style><path d="M565.8 151.3l-183.2-3.8 -183.2 3.8 -10.2 106 145.8 126.8c0 0 26 2.9 47.7 2.9 21.6 0 47.7-2.9 47.7-2.9L576 257.3 565.8 151.3z" fill="#D9D8ED"/><path d="M574.8 245.7c-14.7-6.4-82.9-18.7-118.2 21.6 -32.2 36.8-26.3 80-26.4 116.9 0 0 0 0 0 0L576 257.3 574.8 245.7z" class="a"/><path d="M190.3 245.7c14.7-6.4 82.9-18.7 118.2 21.6 32.2 36.8 26.3 80 26.4 116.9 0 0 0 0 0 0l-145.8-126.8L190.3 245.7z" class="a"/><path d="M348.4 259.9c1.4 16.1-0.6 38.4-15.5 60.6 1 6.1 1.6 12.2 1.9 18.4 24.9-28.6 28.1-59 26.2-80 -2.8-31.6-18.3-56.2-31.5-65.7l-7.5 10.3C333.4 211.5 346.1 233.5 348.4 259.9z" class="b"/><path d="M471.5 254.3l-44.1-97.8 -11.6 5.3 45.5 100.7C464.4 259.4 467.9 256.7 471.5 254.3z" class="b"/><path d="M303.9 262.5L349.4 161.8l-11.6-5.3 -44.1 97.8C297.2 256.7 300.7 259.4 303.9 262.5z" class="b"/><path d="M565.8 151.3c-121.2 21.2-245.2 21.2-366.5 0 3.1-17.7 6.2-35.4 9.3-53.1 115.1 20.1 232.8 20.1 347.9 0C559.6 115.9 562.7 133.6 565.8 151.3z" class="a"/></svg>