<svg xmlns="http://www.w3.org/2000/svg" viewBox="0 0 768 430" style="enable-background:new 0 0 768 430;version:1"><style>.a{fill:#F9ACAC;}.b{fill:#F9BBBB;}.c{fill:#FFCCCB;}.d{fill:#F98080;}.e{fill:#AD454B;}.f{fill:#C15A5B;}.g{fill:#934246;}.h{fill:#B73B41;}.i{fill:#730000;}.j{fill:#850000;}.k{fill:#9C0000;}.l{fill:#DD3A6C;}.m{fill:#FCDBDB;}.n{fill:#FFF;}.o{fill:#BB6060;}.p{fill:#0000FC;}.q{fill:#0000E8;}.r{fill:none;}.s{fill:#CC6D72;}.t{fill:#FFEBEA;}</style><path d="M337.1 187.1c0 0-35.7 3.9-42.8 48.5 -3.1 19.3 44.8 2.4 44.8 2.4l9.9-42.8L337.1 187.1z" class="a"/><path d="M338.9 189.6c0 0-37.5 1.4-44.6 46 -3.1 19.3 44.8 2.4 44.8 2.4l9.9-42.8L338.9 189.6z" class="a"/><path d="M338.9 189.6c0 0-37.5 1.4-44.6 46 -3.1 19.3 45.4-4.1 45.4-4.1l9.3-36.3L338.9 189.6z" class="b"/><path d="M341.3 193.2c0 0-38.2-2.3-45.3 42.4 -3.1 19.3 44.5-11.2 44.5-11.2l8.4-29.1L341.3 193.2z" class="c"/><path d="M306.4 245.2c0 0 0 0 0 0 -5.4 0-9.2-1.1-11.1-3.4 -1.3-1.6-1.8-3.7-1.4-6.3 3.7-23.2 15.2-35.2 24.3-41.2 9.8-6.5 18.8-7.6 18.9-7.6l0.1 0 12.1 8.4 -10 43.2 -0.2 0.1C339 238.4 319.6 245.2 306.4 245.2zM337 187.4c-1.1 0.2-9.5 1.4-18.5 7.5 -8.9 5.9-20.3 17.8-23.9 40.7 -0.4 2.4 0 4.3 1.2 5.7 1.8 2.1 5.3 3.1 10.6 3.1 12.4 0 30.4-6 32.4-6.7l9.8-42.4L337 187.4z" class="d"/><path d="M311.9 286.3c0 0-1.1 14.9 4.2 25.4 5.3 10.5 10.4 16.9 13.9 22.8 3.5 5.8 7.5 21.4 5 28.9 -2.5 5.5-4 11.7-2.8 15 2.2 0 8-6.8 8-6.8 -1.7 3-1.2 7.7-1.2 7.7 3.2 0.5 15.7-1.8 15.5-14.4 0.7-7.7 7.8-28.2 20.5-37.6C364.7 319.7 323.6 284.9 311.9 286.3z" class="a"/><path d="M312.5 299.2c0.6 4.1 1.7 8.6 3.7 12.4 5.3 10.5 10.4 16.9 13.9 22.8 3.5 5.8 7.5 21.4 5 28.9 -2.5 5.5-4 11.7-2.8 15 2.2 0 8-6.8 8-6.8 -1.7 3-1.2 7.7-1.2 7.7 3.2 0.5 12-3.4 11.8-15.9 0.5-5.6 2.1-18.9 7.9-29.2C340.1 326.9 322.4 316.3 312.5 299.2z" class="b"/><path d="M340 379.5L340 379.5c-0.4 0-0.7 0-1-0.1l-0.3 0 0-0.3c0-0.2-0.3-3.2 0.5-6 -1.9 2.1-5.3 5.5-7 5.5h-0.2l-0.1-0.2c-1.3-3.8 0.6-10.4 2.8-15.3 2.4-7.2-1.3-22.4-5-28.6 -1.1-1.9-2.5-3.9-3.9-6 -3-4.5-6.4-9.7-10.1-16.8 -5.3-10.4-4.3-25.4-4.3-25.5l0-0.3 0.3 0c0.2 0 0.5 0 0.8 0 10.2 0 37.4 21.3 53.6 34.1 3.9 3.1 7 5.5 9 7l0.4 0.3 -0.4 0.3c-13.1 9.6-19.8 30.3-20.4 37.3 0.1 4.1-1.2 7.5-3.8 10.1C347.5 378.5 342.4 379.5 340 379.5zM339.3 378.8c0.2 0 0.4 0 0.6 0 2.2 0 7.2-0.9 10.7-4.5 2.4-2.5 3.6-5.7 3.6-9.6 0.6-7.1 7.3-27.7 20.3-37.6 -2-1.5-5-3.8-8.7-6.7 -15.1-11.9-43.2-33.9-53.2-33.9 -0.1 0-0.3 0-0.4 0 -0.1 2.1-0.6 15.4 4.2 24.9 3.6 7 7 12.2 10 16.7 1.4 2.1 2.7 4.1 3.9 6 3.3 5.6 7.7 21.3 5 29.2 -2.7 5.9-3.8 11.5-2.9 14.6 1.8-0.4 6-4.9 7.5-6.7l0.5 0.4C339.1 374.1 339.3 377.8 339.3 378.8z" class="d"/><path d="M335 363.2c0 0 0 0 0 0 -2.5 5.5-4 11.7-2.8 15 2.2 0 8-6.8 8-6.8 -1.7 3-1.2 7.7-1.2 7.7 3.2 0.5 15.7-1.8 15.5-14.4 0-0.2 0-0.5 0.1-0.7C344.8 367.8 337.9 364.9 335 363.2z" class="e"/><path d="M335 363.2c0 0 0 0 0 0C335 363.3 335 363.3 335 363.2L335 363.2z" class="f"/><path d="M350.8 365.2c-7.7 1.8-13.3-0.5-15.7-2 0 0 0 0 0 0 -2.5 5.5-2.7 9.4-1.5 12.8 2.2 0 8.4-7.6 8.4-7.6 -1.7 3-1.3 9.1-1.3 9.1C343.7 378 350 376.2 350.8 365.2z" class="f"/><path d="M340 379.5c-0.4 0-0.7 0-1-0.1l-0.3 0 0-0.3c0-0.2-0.3-3.2 0.5-6 -1.9 2.1-5.3 5.5-7 5.5h-0.2l-0.1-0.2c-1.3-3.8 0.6-10.4 2.8-15.3l0.1-0.4 0.4 0.2c1.7 1 5.2 2.6 10.1 2.6 3 0 6.1-0.6 9.3-1.8l0.5-0.2 -0.1 0.6c0 0.2-0.1 0.5-0.1 0.7 0.1 4.1-1.2 7.5-3.8 10.1C347.5 378.5 342.4 379.5 340 379.5zM339.3 378.8c0.2 0 0.4 0 0.6 0 2.2 0 7.2-0.9 10.7-4.5 2.4-2.5 3.6-5.7 3.6-9.6 0-0.1 0-0.1 0-0.2 -3 1.1-6.1 1.7-9 1.7 -4.7 0-8.2-1.5-10.1-2.5 -2.6 5.8-3.6 11.3-2.8 14.2 1.8-0.4 6.3-4.9 7.9-6.7C340.3 371.2 339.1 375.5 339.3 378.8z" class="g"/><path d="M450.9 276.1c0 0 2.9-1.4 4.9-4 1.3-1.7 1-5 2.6-4.6 1.6 0.3 1.9 9.7-8.6 12.2C450.4 278.4 450.8 276.8 450.9 276.1z" class="a"/><path d="M450.9 276.1c0 0 2.9-1.4 4.9-4 1.3-1.7 1.3-5.5 2.6-4.6 0.4 0.3 0.7 8.2-8 10.6C450.9 276.9 450.8 276.8 450.9 276.1z" class="c"/><path d="M449.3 280.1l0.2-0.6c0.5-1.2 0.9-2.8 1-3.4l0-0.2 0.2-0.1c0 0 2.9-1.4 4.8-3.9 0.5-0.6 0.7-1.6 1-2.4 0.3-1.2 0.7-2.4 1.7-2.4 0.1 0 0.2 0 0.3 0 0.7 0.1 1.1 1.1 1.1 2.5 0 3-2 8.5-9.6 10.3L449.3 280.1zM451.2 276.4c-0.1 0.6-0.4 1.8-0.8 2.8 6.7-1.8 8.5-6.8 8.5-9.5 0-1.2-0.4-1.8-0.5-1.9 0 0-0.1 0-0.1 0 -0.5 0-0.8 0.9-1 1.9 -0.2 0.9-0.5 1.9-1.1 2.6C454.3 274.7 451.9 276 451.2 276.4z" class="d"/><path d="M437.9 282.2c0 0 9.3-1.7 9.9-7 0.7-5.3-5.5-11-8.7-6.2 -2.3 3.5 3.9 8.7 8.3 7.6 -0.5 1.5-2.8 3-2.8 3 -1.8 0.3-6.2-0.8-8.9-4.7 -3-4.3-1-10.8 3.7-12 5.8-1.6 10.6 2.3 12.1 7.5 1.4 4.8 1.1 14.9-11.2 17.4C427.2 290.3 437.9 282.2 437.9 282.2z" class="a"/><path d="M437.9 282.2c0 0 9.3-1.7 9.9-7 0.7-5.3-5.9-12.3-9.4-7.1 -3 4.4 4.6 9.6 9 8.5 -0.5 1.5-1.8 1.8-1.8 1.8 -1.8 0.3-6.1-0.9-8.8-4.8 -3-4.3-2.1-9.5 2.6-10.7 5.8-1.6 9 2.1 10.5 7.2 1.4 4.8 1 13.2-11.3 15.7C425.5 288.4 437.9 282.2 437.9 282.2z" class="c"/><path d="M436.1 288.6c-1.5 0-2.4-0.4-2.6-1.1 -0.6-1.8 3.4-4.9 4.2-5.5l0.1 0 0.1 0c0 0 2.9-0.5 5.5-1.9 -2.4-0.2-5.7-1.8-7.9-4.9 -1.6-2.3-1.9-5.2-0.9-7.9 0.9-2.4 2.6-4.1 4.8-4.7 0.9-0.2 1.8-0.4 2.7-0.4 4.5 0 8.5 3.2 9.9 8 0.9 3 1 7.6-1.3 11.4 -2 3.3-5.4 5.4-10.1 6.4C438.6 288.4 437.2 288.6 436.1 288.6zM438 282.5c-1.7 1.3-4.2 3.7-3.9 4.7 0.3 0.8 2.5 0.8 6.1 0.1 4.5-0.9 7.8-2.9 9.7-6 2.2-3.6 2.1-8 1.2-10.9 -1.3-4.5-5-7.6-9.2-7.6 -0.8 0-1.7 0.1-2.5 0.3 -2 0.5-3.6 2.1-4.3 4.2 -0.9 2.5-0.6 5.2 0.9 7.3 2.5 3.7 6.3 4.6 8 4.6 0.2 0 0.4 0 0.5 0 0.3-0.2 1.4-1 2.1-1.9 0.1-0.1 0.1-0.2 0.2-0.3 -2.9 0.3-6.6-1.7-8-4.4 -0.7-1.4-0.7-2.8 0-3.9 0.9-1.3 2-2 3.3-2 1.3 0 2.8 0.8 3.9 2.1 1.6 1.8 2.4 4.2 2.1 6.3 -0.1 0.5-0.2 1-0.4 1.5 -0.1 0.3-0.3 0.7-0.6 1C444.7 281.2 438.8 282.4 438 282.5zM442.1 267.5c-1.1 0-2 0.6-2.7 1.7 -0.8 1.1-0.4 2.4 0 3.2 1.2 2.2 4.2 4.1 6.7 4.1 0.4 0 0.7 0 1-0.1 0.2-0.4 0.3-0.8 0.3-1.1 0.2-2-0.5-4.2-1.9-5.8C444.5 268.2 443.2 267.5 442.1 267.5z" class="d"/><path d="M340.4 183.9c0 0-24 24.7-31.6 61.4 -7.6 36.7 4.6 64.2 24.4 74.8 27.8 15 50.9 14.5 79.6 4.7 28.7-9.8 22-54.8 19.8-62.1 -2.2-7.3-10-23.6-9.6-28C423.4 230.2 414.3 155.2 340.4 183.9z" class="a"/><path d="M423 248c-24.9 14.2-38.6-0.2-56.2 0.4 -4.7 0.7-11.4 14.1-20.7 8 -0.7 0 1.2-4.3 1.9-6.3 -3.1 0.4-5.1 1.2-7.9 2.2 -2.5-29.3 50.8-13.9 74.8-20.6 1.3-0.3 2.5-0.6 3.8-1 -0.1-4.2-1.3-15.3-6.2-26.3 -4.8 0.3-9.6-0.2-14.3-1.4 -13.4-2.7-21.8-6.6-36.5-2.6 -9 3.2-21.1-2.1-26.9-9.5 -7.7 10.2-20.7 30.3-25.7 54.4 -7.6 36.7 6.6 61.2 26.8 70.8 25.8 12.2 47.3 5.5 71.8-6.7 27.2-13.5 22.5-39.9 20.3-47.2C427 258.9 424.9 253.5 423 248z" class="b"/><path d="M375.9 332.1c0 0 0 0 0 0 -14.4 0-28-3.7-42.9-11.7 -21.9-11.8-31.5-41.3-24.5-75.1 7.5-36.4 31.5-61.4 31.7-61.6l0.1-0.1c11.2-4.3 21.6-6.6 30.8-6.6 14.2 0 26 5.1 35.1 15.2 14.8 16.3 17.3 40.4 17.1 42.5 -0.3 2.8 2.8 10.5 5.6 17.4 1.6 4 3.2 7.9 4 10.5 2.4 7.8 8.8 52.7-20 62.5C398.8 329.9 387 332.1 375.9 332.1zM340.6 184.2c-1.2 1.3-24.2 25.8-31.5 61.2 -6.9 33.6 2.6 62.8 24.2 74.4 14.8 7.9 28.3 11.6 42.6 11.7h0c11.1 0 22.7-2.2 36.7-7 28.3-9.7 21.9-53.9 19.6-61.7 -0.8-2.6-2.3-6.5-3.9-10.5 -2.9-7.3-5.9-14.8-5.6-17.7 0.2-2-2.3-25.8-16.9-42 -9-9.9-20.6-14.9-34.6-14.9C361.9 177.7 351.6 179.9 340.6 184.2z" class="d"/><path d="M457.2 359.7c-6-9.8-10.9-36.3-11.1-45.4 -0.2-9.1-3.1-43.8-24.9-53l-33.6 44.3c0 0-4.2 18.7 8.9 26.1 13.1 7.5 36.9 29.1 41.8 37.5 4.9 8.5 10.8 12.5 13.8 12.5 0.5-3.3 0-9.3 0-9.3 2.7 2.9 6.3 5.8 6.3 5.8C461 374.8 463.2 369.5 457.2 359.7z" class="a"/><path d="M454.6 359.5c-6-9.8-11.4-36.9-11.7-46.1 -0.2-9.1-4.3-43-22-52.3l-33.3 44.5c0 0-1.8 16.1 11.4 23.6 13.1 7.5 32.3 25.6 37.2 34 4.9 8.5 10.6 14.3 13.6 14.3 0.5-3.3 0-11.2 0-11.2 2.7 2.9 7.6 6.3 7.6 6.3C459.9 369.3 460.6 369.3 454.6 359.5z" fill="#F9C0C0"/><path d="M452.4 382.1h-0.3c-3.3 0-9.3-4.4-14-12.6 -5-8.6-29.1-30.2-41.7-37.4 -13.2-7.5-8.4-26.4-8.4-26.4 0 0.2-4 18.5 8.7 25.8 12.9 7.3 36.9 28.8 42 37.6 5 8.6 10.6 12 13.2 12.3 0.4-3.3 0-8.9 0-9l-0.1-1 0.7 0.7c2.2 2.4 5.1 4.8 6 5.5 2.3-3.1 4.6-8.2-1.3-17.8 -6-9.7-10.9-36.1-11.2-45.6 -0.1-4.4-1.6-43.4-24.6-53 0 0 6.5 2.7 10.2 6.8 13.5 15.2 15 42.5 15.1 46.2 0.2 9.4 5.2 35.6 11.1 45.2 6.3 10.3 3.6 15.7 1.1 18.9l-0.2 0.3 -0.3-0.2c0 0-3.1-2.5-5.7-5.1 0.1 1.8 0.3 5.9-0.1 8.5L452.4 382.1z" class="d"/><path d="M407.4 178.6l-0.5 28.5c0 0-9.6 7.8-15.1 17.6 0 0-28.9-6.5-40.3 1.3 -11.4 7.8-12.2 21.6-11.1 24.9 0 0 4-1.6 6.5-2.7 0 0-0.9 4.5-1.1 8.2 8.5 4 17.4-10.9 19.8-12.5 2.4-1.6 17.4 4.5 28.7 6.5 11.4 2 34.1-6.3 40.6-24.9C442.9 202 407.4 178.6 407.4 178.6z" class="a"/><path d="M406.5 204.4l0.4 2.6c0 0-9.6 7.8-15.1 17.6 0 0-28.9-6.5-40.3 1.3 -11.4 7.8-10.7 17.1-9.6 20.5 0 0 4.4-0.8 6.9-1.9 0 0 0.2 4.6 0 8.4 8.5 4 11-10.9 13.4-12.5 2.4-1.6 19.5 2.1 30.8 4.1 11.4 2 26.8-2.6 35.1-20.5 4.5-9.8 0.7-15.8-3.4-22.4C419.1 204 412.7 204.8 406.5 204.4z" class="b"/><path d="M348.7 257.5c-1 0-2.1-0.2-3.2-0.7l-0.2-0.1 0-0.2c0.2-2.9 0.7-6.3 1-7.7 -2.4 1.1-5.8 2.4-5.9 2.4l-0.3 0.1 -0.1-0.3c-1.3-3.9 0.2-17.7 11.3-25.3 10.9-7.5 37.3-2.1 40.3-1.4 5.6-9.6 15.5-17 15.5-17 -0.1 0.1-9.6 7.9-15.1 17.5l-0.1 0.2 -0.2-0.1c-0.3-0.1-28.9-6.3-40 1.3 -11.1 7.6-11.9 20.8-11.1 24.2 1-0.4 4.1-1.6 6.1-2.5l0.6-0.3 -0.1 0.6c0 0-0.9 4.3-1.1 8 6.2 2.7 12.6-5 16.5-9.6 1.3-1.5 2.2-2.6 2.8-3 1.5-0.9 5.9 0.3 13.7 2.5 4.9 1.4 10.4 3 15.3 3.9 11.9 2.1 34-6.7 40.2-24.7 7.9-23-26.9-46.3-27.2-46.5l0.4-0.6c0.4 0.2 35.6 23.9 27.5 47.3 -6.3 18.3-28.8 27.3-40.9 25.1 -4.9-0.9-10.4-2.5-15.3-3.9 -6.1-1.8-11.9-3.4-13.1-2.6 -0.5 0.3-1.5 1.5-2.7 2.9C359.6 251.1 354.3 257.5 348.7 257.5z" class="d"/><path d="M390 228.6c0 0 0.6-3 1.8-4.6l0.5 0.4C391.1 226 390 228.6 390 228.6z" class="d"/><path d="M345.4 231.9c-5.5 7.5-5.9 16.4-5 19 0 0 4-1.6 6.5-2.7 0 0-0.9 4.5-1.1 8.2 5.7 2.7 11.6-3.2 15.6-7.8C355.3 247.6 344.9 244.2 345.4 231.9z" class="h"/><path d="M345.4 231.9c-5.5 7.5-5.9 16.4-5 19 0 0 4-1.6 6.5-2.7 0 0-0.9 4.5-1.1 8.2 5.7 2.7 11.6-3.2 15.6-7.8C355.3 247.6 344.9 244.2 345.4 231.9z" class="e"/><path d="M345.4 231.9c-1.5 2.1-2.6 4.3-3.5 6.4 -1 3.5-0.5 6.5 0 8.1 0 0 4.4-0.8 6.9-1.9 0 0 0.2 4.6 0 8.4 5.3 0 7.4-1.2 9.4-4.9C352.2 246.3 344.9 242.2 345.4 231.9z" class="f"/><path d="M348.7 257.4L348.7 257.4c-1.1 0-2.1-0.2-3.1-0.7l-0.2-0.1 0-0.2c0.2-2.9 0.7-6.3 1-7.7 -2.4 1.1-5.8 2.4-5.9 2.4l-0.3 0.1 -0.1-0.3c-1-2.9-0.5-11.8 5-19.3l0.6-0.9 0 1.1c-0.5 12 9.6 15.4 15.7 16.4l0.6 0.1 -0.4 0.5C358.1 252.8 353.5 257.4 348.7 257.4zM346.1 256.2c0.8 0.4 1.7 0.6 2.6 0.6 4.4 0 8.6-4.1 12-7.9 -6.1-1.1-15.6-4.6-15.7-15.9 -4.7 6.9-5.1 14.8-4.4 17.5 1-0.4 4.1-1.6 6.1-2.5l0.6-0.3 -0.1 0.6C347.1 248.3 346.3 252.6 346.1 256.2z" class="g"/><path d="M335.9 297.7c0 0-7.7 3.7-3.9 8.2 3.9 4.5 8.8-2.9 8.8-2.9L335.9 297.7z" class="c"/><path d="M346.2 72.1c0 0 18.3-16.2 43.2-10.5 24.9 5.8 36.7 19.8 36.7 19.8 3.8-0.7 9.3-2.2 11.2-6.5 1.8 4.5 12.4 61.7 12.7 64.9 0.2 3.1 7.3 22.1-6.7 41.4 -14 19.3-30.7 16-44.2 14.9 -13.5-1.1-24.6-2.1-31.6-0.3 -7.5 3.8-28.7 6.5-34.7-12.2 -7.7-9.5-14.9-17.3-20.4-24.5 -7.8-10.4-13.7-21-12.4-32.2 1.3-11.2 9-24 21.4-29.7C338.1 89.4 342.3 79.8 346.2 72.1z" class="a"/><path d="M444.2 143.6c-5.3 0.4-10.5 0.9-16-0.3 -3.3-0.7-3.3-6.7-2-10.7 2.7-7 8.9-10.5 15-13.4 -1.2-17.1-3.2-41-4.3-43.9 -1.9 4.3-7.4 5.9-11.2 6.5 0 0-11.8-14-36.7-19.8 -7.5-1.7-14.3-1.5-20.3-0.3 -7.6 19.6-24.6 35.3-43.4 43.5 -5.5 2.7-7.8-0.8-8.8-5.2 -9.7 6.4-15.8 17.5-16.9 27.2 -1.3 11.2 4.5 21.9 12.4 32.2 5.5 7.2 11.1 9.6 18.8 19.1 7.2 23.4 30.5 16.5 38 12.7 7-1.8 16.4 1.6 29.9 1.6 16 0 27.2 0 39.7-20.2C445.8 160.5 445.4 149.9 444.2 143.6zM342.4 167.3c-19.4-7.3-20.2-24.9-20.2-24.9l3.9 1.3c0.2-2.6 1.3-5.2 3.4-8 6.2-8.1 16.5-11.4 19-13.4 2.5-2 7.8-6.2 12.2-3.8 4.4 2.3 5.1 7.8 6.7 10.9 2 3.9 14.1 22.7 8 30.8 -0.1 0.1-0.2 0.2-0.2 0.3l11.2 3.8C386.3 164.3 361.7 174.6 342.4 167.3z" class="b"/><path d="M427 144.6c-5.7-3.6-4.3-10.9-4.7-23.4 -0.3-12.6 3.2-34 6-37.8 0 0-2.2 0.2-4.1 0 -29.8-27.2-54.2-19.4-54.2-19.4 -2.7 8.4-12.8 19.8-15.8 22.5 2.2-0.4 6.8 0.4 7.9 9.1 1 8.7-4.6 16.6-6.4 18.5 0 0 2.5-0.8 4.6-1.2 8.2-7.8 14.3-0.3 15.5 2.1 -5.8-3.8-9.7-3.1-12-1.5 9.4 3.3 11.3 8.5 11.4 10.2 -3.6-4.8-8.6-7.2-12.6-8.3 2.5 1.3 3.7 4.5 4.7 7.9 1 3.4 4 7.6 6.7 12.5 2.7 4.9 4.9 9.9 4 18.3 0 0.7-0.1 1.4-0.1 2.1 0.9 0.4 1.7 1 2.4 1.6 0-3.2 1.4-6.5 1.8-10.9 0.7-7 2.8-10.6 4.4-11.8 0 0-4.8-2.6-2.8-16.8 2-14.2 14.9-23.2 22.7-13.5 7.7 9.7-0.2 25.7-3.5 29.1 4.5 1.1 11.7 7.3 13.1 10.4 1.4 3.1 3.4 18.6-3.4 25.4 -6.8 8.3-25.4 1-28.1-1.7 -3.2 1.6-15 10.5-20.6 15.8 -5.6 5.3-10.5 7.4-19.5 8.9 15.4 2.4 18.7-2.5 24.9-3.8 6.2-1.2 39.7 5.9 54.9-3.9 15.1-9.8 18.6-28.8 18.6-38.7C442.9 146.1 432.7 148.3 427 144.6z" class="c"/><path d="M354.4 198.9c-6.4 0-17.8-2-22-15.1 -3.4-4.2-6.7-8-9.8-11.7 -3.8-4.5-7.5-8.8-10.5-12.8 -6.6-8.6-13.9-20.1-12.4-32.5 1.3-10.5 8.4-23.9 21.6-30 15.8-7.3 20.4-16.4 24.1-23.7l0.7-1.3c0.1-0.1 13.5-11.8 32.6-11.8 3.6 0 7.3 0.4 10.9 1.3 23.4 5.4 35.4 18.3 36.8 19.8 5.8-1 9.4-3.2 10.7-6.3l0 0 0.6 0c1.9 4.8 12.5 62.2 12.7 65 0 0.4 0.2 1.2 0.4 2.1 1.4 6.2 5 22.8-7.1 39.5 -10.3 14.2-21.9 16-30.9 16 -3.6 0-7.1-0.3-10.5-0.6 -1.1-0.1-2.1-0.2-3.1-0.3l-1.3-0.1c-7.7-0.6-14.3-1.2-20-1.2 -4.3 0-7.6 0.3-10.2 1C364.9 197.5 360 198.9 354.4 198.9zM346.4 72.3l-0.6 1.1c-3.7 7.4-8.3 16.6-24.4 24 -12.9 6-19.9 19.1-21.2 29.5 -1.4 12.1 5.8 23.4 12.3 32 3 4 6.7 8.3 10.5 12.8 3.2 3.7 6.4 7.5 9.9 11.8l0.1 0.1c4.1 12.8 15.2 14.7 21.4 14.7 5.5 0 10.3-1.4 12.8-2.7l0.1 0c2.6-0.7 6-1 10.4-1 5.7 0 12.4 0.6 20.1 1.2l1.3 0.1c1 0.1 2.1 0.2 3.1 0.3 3.4 0.3 6.8 0.6 10.4 0.6 8.8 0 20.3-1.8 30.4-15.7 12-16.5 8.4-32.8 7-39 -0.2-1-0.4-1.7-0.4-2.2 -0.2-2.5-10-55.9-12.4-64 -1.7 3-5.4 5-11 6l-0.2 0 -0.1-0.1c-0.1-0.1-12-14-36.5-19.7 -3.5-0.8-7.1-1.2-10.7-1.2C360.2 60.8 347.3 71.6 346.4 72.3z" class="d"/><path d="M460.7 95.7c0 0 2.4-16.2-10.5-21.4 -12.9-5.1-19.2 3.6-22.9 18.9 -3.4 14.2-5.1 49 1.6 50.1 6.7 1.1 12.9-6 25.2-6.5 12.2-0.4 27.2-10.9 20.7-24.3C468.2 99.3 462.7 100 460.7 95.7z" class="a"/><path d="M462.2 103.4c0 0-2.9 0.2-4.1-15.3 -0.4-5.4-3.7-11.5-8.8-13.5 -12.9-5.1-18.2 3.3-22 18.6 -3.4 14.2-5.1 49 1.6 50.1 6.7 1.1 9.6-7.2 21.4-10 13.2-3.1 23.9-13.3 20.9-21.5C469.7 107.9 466.4 104.3 462.2 103.4z" class="b"/><path d="M430.3 143.8L430.3 143.8c-0.5 0-1 0-1.5-0.1 -0.8-0.1-1.5-0.6-2.1-1.5 -4.7-7.1-2.7-36.8 0.2-48.9 3.4-14.1 8.7-20.6 16.4-20.6 2.1 0 4.4 0.5 6.9 1.5 12.5 4.9 10.9 20.2 10.7 21.6 0.7 1.4 1.8 2.3 3.3 3.3 2.8 2.1 6.5 4.9 10.7 13.5 2.3 4.7 2.1 9.4-0.5 13.7 -3.7 6.1-12.3 10.7-20.5 11 -6.4 0.2-11 2.2-15.1 4C435.8 142.6 433 143.8 430.3 143.8zM443.4 73.2c-7.4 0-12.4 6.4-15.8 20.1 -3.2 13.1-4.6 42-0.3 48.4 0.5 0.7 1 1.2 1.6 1.3 0.5 0.1 0.9 0.1 1.4 0.1l0 0c2.6 0 5.3-1.2 8.3-2.5 4.2-1.8 8.9-3.8 15.3-4.1 8-0.3 16.4-4.8 20-10.7 2.4-4.1 2.6-8.6 0.4-13.1 -4.1-8.5-7.8-11.2-10.5-13.2 -1.6-1.2-2.8-2.1-3.5-3.7l0 0 0-0.2c0-0.2 2.3-16-10.3-21C447.7 73.7 445.4 73.2 443.4 73.2z" class="d"/><path d="M460.4 95.7l0.7 0c0.5 8.9 3.2 11.1 3.2 11.1C464.2 106.7 460.9 105 460.4 95.7z" class="d"/><path d="M371.9 60.9c0 0 0.2-17-18.7-17.6 -18.9-0.7-20.4 16.1-21.2 17.6 -2.8-0.6-15-2.3-18.9 7.1 -3.8 9.3 2.3 18 3.5 24.5 1.2 6.5-0.8 11.4 2.7 12.4 3.5 1 18.3-8.8 27.5-19.5 4.3-5 12.3-18.1 14-21.6C363.4 62.8 369.8 61.1 371.9 60.9z" class="a"/><path d="M353.2 43.3c-18.9-0.7-20.4 16.1-21.2 17.6 -2.8-0.6-15-2.3-18.9 7.1 -3.8 9.3 2.3 18 3.5 24.5 0.5 2.6 0.4 4.9 0.4 6.8 0.6 1 2.4 1.9 3.6 1.9 11.7-0.8 31.9-22.1 37.9-40.8 1.3-2.7 2.2-10.1 4.2-10.8 5-1.7 6.6 6.7 6.9 11.7 0.9-0.2 1.7-0.4 2.2-0.4C371.9 60.9 372.1 43.9 353.2 43.3z" class="b"/><path d="M319.9 105.3h0c-0.2 0-0.5 0-0.7-0.1 -2.5-0.7-2.5-3-2.5-6.3 0-1.9 0-4-0.4-6.3 -0.3-1.9-1.1-3.9-1.9-6.1 -2-5.6-4.4-11.9-1.6-18.6 2.6-6.4 9.1-7.8 14-7.8 2.3 0 4.2 0.3 5 0.5 0.1-0.2 0.2-0.6 0.3-1 1.1-4.2 4.4-17.2 21.1-16.6 19 0.7 19 17.8 19 18l0 0.3 -0.3 0c-2 0.2-8.1 1.9-10.8 2.8 -1.8 3.6-9.7 16.6-14 21.5C338.3 95.7 324.3 105.3 319.9 105.3zM326.8 60.7c-4.7 0-10.8 1.3-13.4 7.4 -2.7 6.5-0.4 12.7 1.6 18.1 0.8 2.2 1.6 4.3 1.9 6.2 0.4 2.4 0.4 4.7 0.5 6.5 0 3.3 0.1 5.1 2 5.6 0.1 0 0.3 0.1 0.5 0.1 4.3 0 18-9.4 26.7-19.5 4.3-4.9 12.3-18.1 14-21.5l0.1-0.1 0.1 0c2.4-0.8 8.3-2.5 10.8-2.8 -0.1-2.3-1.2-16.4-18.4-17 -16.1-0.6-19.3 11.6-20.5 16.1 -0.2 0.7-0.3 1.2-0.4 1.4l-0.1 0.2 -0.2-0.1C331.4 61.1 329.4 60.7 326.8 60.7z" class="d"/><path d="M361.2 63.9l-0.6-0.3c0.8-1.4 1.3-3.7 1.7-5.9 0.7-3.4 1.3-6.1 2.7-6.2 2.2-0.2 3.1 3.6 3.1 3.6 0 0-1.3-3.1-3-3 -0.9 0.1-1.6 3.1-2.1 5.7C362.5 60.1 362 62.4 361.2 63.9z" class="d"/><path d="M327.5 70.7c0-0.1 3.5-7.7 4.6-11.2l0.6 0.2C331.7 63.2 327.5 70.7 327.5 70.7z" class="d"/><path d="M333.2 185.9c-1.7-5.6-4.9-14.4-5-14.5 0 0 3.9 8.7 5.6 14.3L333.2 185.9z" class="d"/><path d="M367.5 196.2l-0.2-0.6c7.2-2.2 8.9-3 8.9-3C376.2 192.5 374.8 193.9 367.5 196.2z" class="d"/><path d="M328.5 155.8c0 0 6 13.9 7.2 18.4 1.4 5.3 1.3 12.4 9.5 14.9 8.2 2.5 16-5.3 20.2-9.7 4.2-4.3 11.2-10.3 20-14.5C375.6 162.6 333.2 155.9 328.5 155.8z" class="i"/><path d="M328.5 155.8c0 0 6 13.9 7.2 18.4 1.4 5.2 1.3 12 8.8 14.6 2.2-8.3 4.3-18.1 13.9-20.5 5-1.1 10 1.9 11.9 6.4 4-3.4 9.1-7.1 15.1-9.9C375.6 162.6 333.2 155.9 328.5 155.8z" class="j"/><path d="M328.5 155.8c0 0 6 13.9 7.2 18.4 1 3.8 1.3 8.3 4.2 11.6 1.4-12.2 10.5-25.3 23.9-21.5 4.5 1.1 7.9 3.8 10.4 7.4 3.3-2.5 7.1-4.9 11.4-6.9C375.6 162.6 333.2 155.9 328.5 155.8z" class="k"/><path d="M345.2 189c7.9 2.4 15.4-4.7 19.7-9.2 -4.9-2.7-9.9-2.1-14-1.3 -6.2-3.9-11.8-2.2-14.5-0.9C337.4 182.2 338.8 187 345.2 189z" fill="#EA4477"/><path d="M345.2 189c7.9 2.4 14.5-3.3 18.8-7.7 -4.9-2.7-12.1-2-16.2-1.1 -3.4-3.9-8-2.4-10.7-1.1C338.1 183.6 338.8 187 345.2 189z" fill="#FF5785"/><path d="M348.4 189.8L348.4 189.8c-1.1 0-2.3-0.2-3.3-0.5 -6.4-2-7.9-6.6-9-11.6l-0.1-0.3 0.2-0.1c1.5-0.7 3.8-1.5 6.6-1.5 2.8 0 5.5 0.8 8 2.4 1.6-0.3 3.7-0.7 5.9-0.7 3 0 5.7 0.7 8.2 2l0.4 0.2 -0.3 0.3C360.7 184.6 354.9 189.8 348.4 189.8zM336.9 177.9c1 4.7 2.5 9 8.4 10.8 1 0.3 2.1 0.5 3.1 0.5 6 0 11.6-4.9 15.9-9.2 -2.3-1.2-4.7-1.7-7.4-1.7 -2.2 0-4.3 0.4-5.9 0.7l-0.1 0 -0.1-0.1c-2.5-1.6-5.1-2.4-7.8-2.4C340.4 176.5 338.3 177.2 336.9 177.9z" class="l"/><path d="M348.4 189.8h0c-1.1 0-2.3-0.2-3.3-0.5 -7-2.1-8.1-7.6-9.1-12.3 -0.2-1-0.4-1.9-0.6-2.8 -1.2-4.4-7.1-18.2-7.2-18.3l-0.2-0.5 0.5 0c4.8 0.2 47.4 6.9 57 9l1 0.2 -0.9 0.4c-9.6 4.5-16.6 11-19.9 14.5C362.4 182.9 355.8 189.8 348.4 189.8zM329 156.1c1.1 2.6 5.9 13.9 7 17.9 0.2 0.9 0.4 1.8 0.6 2.8 1 4.8 2 9.8 8.7 11.8 1 0.3 2.1 0.5 3.1 0.5 7.1 0 13.6-6.8 16.7-10.1 3.3-3.4 10-9.6 19.3-14.2C373.6 162.7 335.6 156.7 329 156.1z" class="d"/><path d="M322.5 142.1c0 0 0.8 17.5 20.2 24.9 19.4 7.3 43.9-3 43.9-3L322.5 142.1z" class="a"/><path d="M346.2 158.7c0 0-5.3 3.7-12.6-2.1 -4.8-3.8-7.6-8.3-7.2-13.2l-3.9-1.3c0 0 0.8 17.5 20.2 24.9 19.4 7.3 43.9-3 43.9-3l-11.2-3.8C369.1 167.9 351.5 167.9 346.2 158.7z" class="b"/><path d="M362.2 166.5c-9.8 1.1-15.2-4.4-16.2-6.3 -5.2 1.8-8.2 0.6-14.3-3.8 -6.1-4.4-6.3-11.5-6.8-13.6 0 0-0.4 0.4-0.9 0.3 0.8 5.1 6 18.9 22 23.2 14.7 3.9 29.4 1 36.1-3.1 -1.3-2-1.7-3.8-1.7-5.6 -0.7-0.6-1.5-1.2-2.4-1.6C377 162.8 371 165.5 362.2 166.5z" class="c"/><path d="M358.4 169.9c-5.3 0-10.7-0.7-15.8-2.6 -19.3-7.3-20.4-25-20.4-25.2l0.7 0c0 0.2 1.1 17.4 20 24.6 19 7.2 43.4-2.9 43.7-3l0.3 0.6C386.6 164.3 373.1 169.9 358.4 169.9z" class="d"/><path d="M310.7 135.6c0 0 4.2 10.2 14.7 6.5L310.7 135.6z" class="b"/><path d="M321 143.2c-4.1 0-6.9-2.3-8.6-4.3 -1.4-1.6-1.4-3.4-1.4-3.4 0.2 0.4 4.2 9.8 14.3 6.3C325.2 141.8 322.3 143.2 321 143.2z" class="d"/><path d="M381.4 153.8c0 0-3.5 15.8 25.4 18.9L381.4 153.8z" class="b"/><path d="M397 171.2c-6.3-1.7-10.8-4.5-13.5-8.2 -3.4-4.7-1.7-9.1-1.7-9.1 0 0-0.9 4.3 2.3 8.8 3.8 5.2 11.5 8.5 22.8 9.7C406.8 172.3 399.9 172 397 171.2z" class="d"/><path d="M346.5 182.7c0 0 1-3.9 4.4-4.4l0.1 0.7C347.9 179.4 346.5 182.6 346.5 182.7z" class="l"/><ellipse transform="matrix(0.9107 0.4131 -0.4131 0.9107 73.7226 -135.2039)" cx="349.6" cy="102.9" rx="10" ry="15.9" class="m"/><path d="M358.6 107c-3.6 8-21.8-0.2-18.2-8.2 3.6-8 10.6-12.6 15.6-10.3C361.1 90.7 362.3 99 358.6 107z" class="n"/><path d="M345.7 118.3c-1 0-2-0.2-2.9-0.6 -5.2-2.3-6.4-10.9-2.7-19 3-6.5 8.4-11.1 13.2-11.1 1 0 2 0.2 2.9 0.6 5.2 2.3 6.4 10.9 2.7 19C356 113.7 350.5 118.3 345.7 118.3zM353.4 88.2c-4.6 0-9.7 4.4-12.6 10.7 -3.5 7.8-2.5 15.9 2.4 18.1 0.8 0.4 1.7 0.6 2.6 0.6 4.6 0 9.7-4.4 12.6-10.7 3.5-7.8 2.5-15.9-2.4-18.1C355.2 88.4 354.3 88.2 353.4 88.2z" class="o"/><ellipse transform="matrix(0.9108 0.4129 -0.4129 0.9108 75.5535 -135.3506)" cx="351" cy="107.2" rx="5.8" ry="9.2" class="p"/><path d="M348.8 116.2c-0.6 0-1.2-0.1-1.7-0.4 -3.1-1.4-3.8-6.4-1.6-11.2 1.7-3.8 4.9-6.5 7.8-6.5 0.6 0 1.2 0.1 1.7 0.4 3.1 1.4 3.8 6.4 1.6 11.2C354.8 113.5 351.6 116.2 348.8 116.2zM353.2 98.8c-2.6 0-5.5 2.5-7.1 6.1 -2 4.4-1.4 9.1 1.3 10.3 0.4 0.2 0.9 0.3 1.4 0.3 2.6 0 5.5-2.5 7.1-6.1 2-4.4 1.4-9.1-1.3-10.3C354.2 98.9 353.7 98.8 353.2 98.8z" class="q"/><ellipse transform="matrix(0.9107 0.413 -0.413 0.9107 75.9949 -135.0854)" cx="350.5" cy="108.2" rx="4.4" ry="7"/><path d="M406.4 123c-2.6 9.1-9.3 15.1-15.1 13.5 -5.8-1.6-8.4-10.3-5.8-19.4 2.6-9.1 9.3-15.1 15.1-13.5C406.4 105.2 409 113.9 406.4 123z" class="m"/><path d="M406.4 123c-2.6 9.1-23.5 3.2-20.9-5.9 2.6-9.1 9.3-15.1 15.1-13.5C406.4 105.2 409 113.9 406.4 123z" class="n"/><path d="M393.3 137.1c-0.7 0-1.4-0.1-2-0.3 -2.9-0.8-5.1-3.4-6.3-7.1 -1.1-3.7-1-8.2 0.2-12.7 2.3-8.1 8-14 13.5-14 0.7 0 1.4 0.1 2 0.3 5.9 1.7 8.7 10.6 6.1 19.8C404.5 131.2 398.8 137.1 393.3 137.1zM398.7 103.7c-5.2 0-10.6 5.7-12.9 13.5 -1.2 4.3-1.3 8.7-0.2 12.3 1.1 3.6 3.1 5.9 5.8 6.7 0.6 0.2 1.2 0.3 1.8 0.3 5.2 0 10.6-5.7 12.9-13.5 2.5-8.9 0-17.4-5.6-19C399.9 103.8 399.3 103.7 398.7 103.7z" class="o"/><path d="M401.5 127.3c-1.6 5.6-5.7 9.2-9.3 8.2 -3.5-1-5.2-6.3-3.6-11.9 1.6-5.5 5.7-9.2 9.3-8.2C401.5 116.5 403.1 121.8 401.5 127.3z" class="p"/><path d="M393.5 136.1c-0.4 0-0.9-0.1-1.3-0.2 -3.7-1-5.4-6.6-3.8-12.3 1.4-5 4.9-8.6 8.4-8.6 0.4 0 0.9 0.1 1.3 0.2 3.7 1 5.4 6.6 3.8 12.3C400.4 132.4 396.9 136.1 393.5 136.1zM396.8 115.6c-3.2 0-6.4 3.4-7.7 8.2 -1.5 5.4 0 10.5 3.4 11.4 0.4 0.1 0.7 0.2 1.1 0.2 3.2 0 6.4-3.4 7.7-8.2 1.5-5.4 0-10.5-3.4-11.4C397.5 115.7 397.1 115.6 396.8 115.6z" class="q"/><path d="M399.9 128c-1.3 4.6-4.5 7.7-7.1 7 -2.6-0.7-3.7-5.1-2.4-9.7 1.3-4.6 4.5-7.7 7.1-7C400.1 119.1 401.1 123.4 399.9 128z"/><path d="M385.4 137.3l27 2.9C397.1 131.5 385.4 137.3 385.4 137.3z" class="b"/><path d="M412.3 140.5c-15-8.6-26.6-2.9-26.7-2.9 0 0 5.6-3.3 14.3-2.2C405.8 136.1 412.3 140.5 412.3 140.5z" class="d"/><path d="M325.3 110.3l26.8 12.1C339.6 105.3 325.3 110.3 325.3 110.3z" class="b"/><path d="M350.2 120.3c-11.2-13.8-24.6-9.7-24.8-9.7 0 0 6-2.6 13.5 0.3C346.7 114 350.2 120.3 350.2 120.3z" class="d"/><path d="M360.9 115.1l-0.6-0.4c1.7-2.4 3.7-3.9 6.1-4.2 4.1-0.7 7.4 2.7 7.4 2.7 0 0-3.5-2.7-7.3-2C364.4 111.4 362.5 112.8 360.9 115.1z" class="d"/><path d="M374.1 121l-1.8-0.7c1.1 0.9 2.1 2 3 3.3 -0.2-1.5-1.8-6.1-9.5-9.4l-2.3 0.3C369.8 115.5 374.1 121 374.1 121z" class="r"/><path d="M427 144.6c-5.7-3.6-4.3-10.9-4.7-23.4 -0.3-12.6 3.2-34 6-37.8 0 0-2.2 0.2-4.1 0 -29.8-27.2-54.2-19.4-54.2-19.4 -2.7 8.4-12.8 19.8-15.8 22.5 2.2-0.4 6.8 0.4 7.9 9.1 1 8.7-4.6 16.6-6.4 18.5 0 0 2.5-0.8 4.6-1.2 8.2-7.8 14.3-0.3 15.5 2.1 -1.2-0.8-2.2-1.3-3.2-1.8l-6.9 1c7.7 3.3 9.4 7.9 9.5 9.4 -0.9-1.2-1.9-2.3-3-3.3l-7.1-2.6c1 1.5 1.6 3.5 2.3 5.5 1 3.4 4 7.6 6.7 12.5 2.7 4.9 4.9 9.9 4 18.3 0 0.7-0.1 1.4-0.1 2.1 0.9 0.4 1.7 1 2.4 1.6 0-3.2 1.4-6.5 1.8-10.9 0.7-7 2.8-10.6 4.4-11.8 0 0-4.8-2.6-2.8-16.8 2-14.2 14.9-23.2 22.7-13.5 7.7 9.7-0.2 25.7-3.5 29.1 4.5 1.1 11.7 7.3 13.1 10.4 1.4 3.1 3.4 18.6-3.4 25.4 -6.8 8.3-25.4 1-28.1-1.7 -3.2 1.6-15 10.5-20.6 15.8 -5.6 5.3-9.4 7.6-20.4 8.6 15.4 2.4 19.6-2.2 25.8-3.4 6.2-1.2 39.7 5.9 54.9-3.9 15.1-9.8 18.6-28.8 18.6-38.7C442.9 146.1 432.7 148.3 427 144.6z" class="c"/><path d="M363.4 114.5l2.3-0.3c-0.6-0.3-1.2-0.5-1.9-0.7 1.9-1.3 4.7-2 8.8-0.3l1.5-0.2c0 0-7.5-5.8-13 1.4C361.9 114.3 362.7 114.3 363.4 114.5z" class="b"/><path d="M362.7 115.3c3 0.8 6.5 2.3 9.6 5l1.9 0.7c0 0-4.3-5.4-10.7-6.5l-2.8 0.4c0.1-0.2 0.3-0.4 0.4-0.6 -1.2 0-2.4 0.2-3.7 0.6l7.7 2.8C364.4 116.6 363.7 115.8 362.7 115.3z" class="b"/><path d="M363.4 114.5c-0.8-0.1-1.5-0.2-2.3-0.2 -0.1 0.2-0.3 0.4-0.4 0.6L363.4 114.5z" class="b"/><path d="M373.8 121.2c-0.1-0.1-7.2-8.9-16.3-6l-0.2-0.6C366.9 111.5 373.8 121.2 373.8 121.2z" class="d"/><path d="M345.9 155.8c0 0-5.3 3.7-12.6-2.1 -7.3-5.8-10-13.1-3.8-21.2 6.2-8.1 16.5-11.4 19-13.4 2.5-2 7.8-6.2 12.2-3.8 4.4 2.3 5.1 7.8 6.7 10.9 2 3.9 14.1 22.7 8 30.8C369.2 165.1 351.2 165.2 345.9 155.8z" fill="#F79494"/><path d="M345.6 148.4c0 0-4.8 5.6-11.4 1.5 -7.9-4.9-9-10.6-4.8-17.4 5.4-8.6 16.5-11.4 19-13.4 2.5-2 7.8-6.2 12.2-3.8 4.4 2.3 3.3 9.2 4.9 12.4 2 3.9 14.5 21 6.9 27.8C362.2 164.6 350.9 157.7 345.6 148.4z" fill="#FFABAB"/><path d="M360.9 163.3c-6.7 0-12.5-2.7-15.1-7 -0.6 0.3-2.1 1-4.3 1 -2.8 0-5.6-1.1-8.4-3.3 -8.2-6.5-9.6-14.2-3.9-21.7 4.5-5.9 11.1-9.3 15.5-11.5 1.6-0.8 2.9-1.5 3.6-2 2-1.6 5.8-4.6 9.6-4.6 1.1 0 2.1 0.2 3 0.7 3.4 1.8 4.6 5.2 5.7 8.2 0.4 1.1 0.7 2.1 1.2 2.9 0.2 0.5 0.6 1.2 1.1 2 3.7 6.5 12.3 21.8 6.8 29.1C372.8 161 367.1 163.3 360.9 163.3zM346 155.4l0.2 0.3c2.5 4.3 8.1 7 14.7 7 6 0 11.5-2.2 14.2-5.8 5.2-7-3.2-22-6.9-28.4 -0.5-0.9-0.9-1.6-1.1-2.1 -0.4-0.9-0.8-1.9-1.2-3 -1.1-2.9-2.2-6.2-5.4-7.8 -0.8-0.4-1.7-0.7-2.7-0.7 -3.6 0-7.2 2.9-9.1 4.5 -0.7 0.6-2 1.2-3.7 2.1 -4.3 2.2-10.9 5.5-15.3 11.3 -7 9.1-1.8 16.3 3.8 20.7 2.6 2.1 5.3 3.2 7.9 3.2 2.6 0 4.2-1.1 4.3-1.1L346 155.4z" class="d"/><path d="M345.6 156c-1.5-3.6 0.4-8.8 0.4-8.8 0 0.1-1.2 5.2 0.2 8.5L345.6 156z" class="d"/><path d="M345.9 133.8c0 0-2.4 12.7-8 13.7C332.4 148.5 332.8 137.8 345.9 133.8z" class="i"/><path d="M343.6 134.6c-10.9 4.5-10.9 13.8-5.7 12.9 2.5-0.4 4.3-3.2 5.6-6.1C342.7 139.2 342.7 136.8 343.6 134.6z" class="j"/><path d="M342.4 135.1c-9.7 4.6-9.5 13.3-4.5 12.4 1.4-0.2 2.6-1.2 3.6-2.5C340.6 141.7 340.8 138.3 342.4 135.1z" class="k"/><path d="M337.2 147.9c-1.6 0-2.7-1-3-2.7 -0.5-3 2.3-8.9 11.5-11.8l0.5-0.2 -0.1 0.5c-0.1 0.5-2.5 12.9-8.2 14C337.7 147.9 337.4 147.9 337.2 147.9zM345.4 134.3c-8 2.6-11 7.9-10.5 10.8 0.2 1.5 1.3 2.3 2.9 2C342.5 146.3 344.9 136.7 345.4 134.3z" class="d"/><path d="M358 135.6c0 0-4.6 13.8 0.8 17.1 5.3 3.3 10.9-2.7 7-7.6C361.9 140.2 358.5 137.2 358 135.6z" class="i"/><path d="M361.6 140.2c-1.9-2.1-3.3-3.6-3.6-4.6 0 0-4.6 13.8 0.8 17.1 3.3 2 6.6 0.6 7.8-2C362.8 149.2 359.5 145.3 361.6 140.2z" class="j"/><path d="M361.1 149.6c-2.4-3-3.7-7.5-1.1-11.3 -1-1.2-1.7-2.1-1.9-2.7 0 0-4.6 13.8 0.8 17.1 2.4 1.5 4.8 1.1 6.4-0.2C363.7 151.8 362.3 150.8 361.1 149.6z" class="k"/><path d="M361.9 154h0c-1.1 0-2.3-0.3-3.3-1 -5.5-3.4-1.1-16.9-0.9-17.5l0.2-1 0.5 1c0.3 0.8 1.4 2.1 3.1 4 1.3 1.5 2.9 3.3 4.6 5.5 1.4 1.9 1.7 4.1 0.8 6C365.9 152.8 364 154 361.9 154zM358.1 136.5c-0.9 3-3.5 13.2 0.9 15.9 1 0.6 2 0.9 3 0.9l0 0c1.8 0 3.5-1.1 4.3-2.7 0.8-1.7 0.6-3.6-0.7-5.3 -1.7-2.2-3.3-4-4.6-5.4C359.6 138.4 358.6 137.3 358.1 136.5z" class="d"/><path d="M357.9 136.1c-1-1.4-0.6-6.1-0.6-6.1 0.1 1.2 0.5 4.9 1.2 6L357.9 136.1z" class="d"/><path d="M345.9 135l-0.6-0.2c0.3-1 1.4-5.9 1.4-5.9S346.6 133.1 345.9 135z" class="d"/><path d="M355.3 79.5c0 0 5.6-7.4 11.2-7.4 3.6 0 5.3 4.8 5.3 4.8C365.7 72.1 355.4 79.5 355.3 79.5z" class="o"/><path d="M410.9 98.5c0-0.1-2.3-11.9-9.5-12 0 0 4.5-2.8 6.6-1.3C412.4 88.5 410.9 98.5 410.9 98.5z" class="o"/><path d="M457.8 360.7c-2.8 3-9.2 8.4-19.6 8.4 0 0 0.1 0.1 0.1 0.2 4.9 8.5 10.8 12.5 13.8 12.5 0.5-3.3 0-9.3 0-9.3 2.7 2.9 6.3 5.8 6.3 5.8C460.9 375 463.1 369.9 457.8 360.7z" class="e"/><path d="M449.6 366.7c0.1 0 0.1-0.1 0.2-0.1 -0.1-0.1-0.2-0.2-0.2-0.2C449.6 366.3 449.6 366.4 449.6 366.7z" class="r"/><path d="M458.1 375.5c2.4-3-0.4-9.2-1.8-13.3 -1.5 1.4-3.7 3-6.4 4.3C452.6 369.4 458.1 375.5 458.1 375.5z" class="f"/><path d="M450.5 379.6c0.4-2.9-0.7-11.3-0.8-12.9 -2.7 1.2-5.9 2.2-9.8 2.4C443.7 374.3 448.3 379.6 450.5 379.6z" class="f"/><path d="M452.4 382.1h-0.3c-3.3 0-9.3-4.4-14-12.6l-0.4-0.7h0.6c10.2 0 16.5-5.2 19.4-8.3l0.3-0.3 0.2 0.4c5.5 9.6 2.9 14.8 0.5 17.8l-0.2 0.3 -0.3-0.2c0 0-3.1-2.5-5.7-5.1 0.1 1.8 0.3 5.9-0.1 8.5L452.4 382.1zM438.8 369.5c4.9 8.4 10.4 11.7 13 11.9 0.4-3.3 0-8.9 0-9l-0.1-1 0.7 0.7c2.2 2.4 5.1 4.8 6 5.5 2.2-2.9 4.3-7.7-0.5-16.4C454.8 364.4 448.6 369.3 438.8 369.5z" class="g"/><circle cx="350.7" cy="102.6" r="2.3" class="n"/><path d="M348.7 104.7c0 0.6-0.5 1-1 1s-1-0.4-1-1c0-0.6 0.5-1 1-1S348.7 104.2 348.7 104.7z" class="n"/><circle cx="396" cy="119.5" r="2.9" class="n"/><circle cx="392.6" cy="122.3" r="1.3" class="n"/><path d="M334.9 194.9c0 0-30.4 39.2-25.9 74.9 3.8 29.4 20.6 43.6 39.9 48.1 19.3 4.5 36.4-1.7 36.4-1.7 -0.6-5.7-1.2-23.4 10-40.8 6.4-10 14.7-18.7 30.7-14.1 -1.5-3.6-3.7-10.6-3.7-10.6 -3.3 2.5-19.1 8.9-37 2.8 -17.9-6.1-21.4-1.6-27.2 3.9 -5.8 5.5-14.7 0.8-14.7 0.8 0.9-2.2 0.8-5.4 0.8-5.4 -3 1.4-5.8 1.7-5.8 1.7 0-4.3-3-17 6.5-25.9 9.5-8.9 19.3-12.1 46.3-7.1 3.5-4.3 9.9-12.7 14.2-14.9 -4.5-0.2-18.8-3.9-23.7-5.1 -8.4-2.1-18.9 2.4-25.9 1.7C348.7 202.7 345.9 204.6 334.9 194.9z" class="c"/><path d="M334.8 307.6c-1.1 0-2.1-0.5-3-1.5 -1-1.1-1.3-2.3-1.1-3.5 0.6-3 5.3-4.6 5.3-4.6 0 0-4.1 2-4.7 4.7 -0.2 1 0.1 2 0.9 2.9 0.8 0.9 1.7 1.4 2.7 1.3 2.8-0.2 5.5-4.1 5.5-4.2 0 0-2.3 4.6-5.5 4.8C335 307.6 334.9 307.6 334.8 307.6z" class="d"/><path d="M389.2 234.3c0 0 4.8-11.5 10.1-17.5 5.3-6 15.2-15.6 25-9.7 9.9 5.9-0.7 26.6-8.9 31.5 -8.2 4.8-17.4 6.3-29.2 3.2 -11.8-3.2-21.6-4.3-24.2-2.5 -2.7 1.8-4.5 6.8-4.5 6.8 -1.8-0.6-10.3-4.6-10.4-13.8 3.3-5 10.2-8.3 21.8-8.3 7.8 0 20.4 2.3 20.4 2.3C388.4 228.3 388.6 232.8 389.2 234.3z" class="c"/><path d="M394.1 321.7c-2-3-7.2-23.6-4.1-36.2 3.7-14.8 16.8-31.6 32.3-21.1 10.2 7 15 29.7 16.9 39.5 1.8 9.9 3.2 39.1 14 56.7 -1.2 1.7-6.7 6.2-13.3 5.6 -1.8-5.1-15.4-22.4-23.4-28.6C408.5 331.6 398.6 328.5 394.1 321.7z" class="c"/><path d="M315.9 307.6c0 0 11.8 17 39.3 27.6 -2.9 4.9-5.9 18.6-6.2 28 -2.7 1.4-9.5 1.1-11.9-0.6 0.9-3.5-0.9-21.6-5.2-28.1C327.5 328.2 316.7 311.2 315.9 307.6z" class="c"/><path d="M313.4 117.2c4.3-5.7 15.1-8.6 24-4.7 9.3 4.1 8.9 6.2 8.9 6.2 -2.8 1.8-9.9 5.2-14.6 9 -4.7 3.8-7.2 10.8-7.6 13.4C318.7 142.3 301.6 132.8 313.4 117.2z" class="c"/><path d="M381.4 141.4c0 0 14.1-10.2 33.1 1.9 19 12.1 3 28.2-8.2 27.5C392.6 169.9 377 157.5 381.4 141.4z" class="c"/><path d="M338.3 99.7c0 0-2.1 6-1.7 9.1 -2.3-0.3-10.3-0.5-15.1 3.1 -5.1 3.1-11.4 13.6-12.1 17.7 -0.6 4.1-0.5 13.9 11.5 15.1 0.6 3.6 4.2 11.6 6.8 14.2 2.3 5.5 6.4 14.3 7.3 19.5 0.9 5.2 2.7 12.5 16.8 13 -2.5 1.3-7.4 1.3-7.4 1.3 -2.7-0.9-9.1-4.1-10.7-9.7 -1.5-5.6-5.5-13.4-6.8-14.2 0.7 3.1 1.5 5.8 1.5 5.8 -2.1-2.4-13.7-13.2-16.4-17.6 -2.8-4.4-12.3-19.6-10.4-30.8 1.5-9 7.9-19.7 13.9-23.9 0.2 3 3.4 6.1 7.3 5.7C326.8 107.4 338.3 99.7 338.3 99.7z" class="c"/><path d="M364.3 48.2c0 0-2.9-1-4.7 3.2 -1.8 4.2-5.6 21.1-18.9 34.4 -13.3 13.3-20.2 16.5-22.5 12.6 0.5-4.4-0.6-9.6-2.4-13.7 -1.8-4.2-7.8-23.7 14.4-22.7 -1.4 3.3-4.4 10.9-4.4 10.9 4.2-3.8 7.5-10.3 8-12.1 0.6-1.9 3.6-12.2 10.7-14.4C351.6 44.1 357.9 44.2 364.3 48.2z" class="c"/><path d="M465.1 109.1c0 0-6-4-7.3-12.2 -1.3-8.2-2.1-22.7-15.4-21.8 -13.2 0.9-14.8 25.6-15.5 32.1 -0.7 6.5-2 34.8 3.7 34.2 5.7-0.6 9.1-6.6 15.1-8.3 6-1.6 20.7-7.8 23.2-14.1 2.5-6.3-1.6-10.7-3.7-12.3C466.2 108.2 465.1 109.1 465.1 109.1z" class="c"/><path d="M344.4 235.6c0 0-0.1 5.4 3.2 7.8 -2 1.3-5.3 2.1-5.3 2.1C342.1 243.9 341.8 238.6 344.4 235.6z" class="s"/><path d="M349.7 245.5v6.5c1.4-0.2 4.8-0.9 6.8-3.3C355.4 248.4 351.8 247.6 349.7 245.5z" class="s"/><path d="M342.4 366.8c0 0-5 6.8-8.5 8.4 -0.8-2.1-0.4-7.8 1.4-10.5C336.4 365.3 338.2 366.1 342.4 366.8z" class="s"/><path d="M342.8 366.7c0 0-1.9 7-1.4 10.1 2.1-0.1 7.7-1.1 8.4-10.4C348.1 366.9 345.9 367 342.8 366.7z" class="s"/><path d="M441.9 370.2c0 0 4.9 0.2 6.7-1.7 0.2 3.2 0.9 9.5 0.9 9.5C447.3 376.6 443.3 371.6 441.9 370.2z" class="s"/><path d="M451.9 367.2l6 6c0-1.3-1.6-6.9-2-8.5C454.7 365.2 451.9 367.2 451.9 367.2z" class="s"/><path d="M360.6 47.2c0 0-7.7-4.8-17.2 0 -8.4 4.3-8.3 16.2-13.8 22.5 5.5-4.8 8.7-17.6 14.4-20.6C351.9 45 355.2 46.3 360.6 47.2z" class="t"/><path d="M329.1 62.2c0 0-9.7-1.3-13.9 6.3C318.1 65.9 323 62.8 329.1 62.2z" class="t"/><path d="M432 84.5c0 0 2.9-8.5 10.1-9.1 7.2-0.7 11.3 4.1 12.4 7 -3.2-3.2-6.9-6.1-12.3-5.4C436.7 77.6 432 84.5 432 84.5z" class="t"/><path d="M370.5 64.1c0 0 16.3-2.9 33.2 5.6C395.8 67.3 384.7 64.3 370.5 64.1z" class="t"/><path d="M316.6 115.1c0 0 8.5-6.4 20.5-2C332.2 112.4 324.1 112 316.6 115.1z" class="t"/><path d="M349.4 119.8c0 0 8.3-8.5 13.5 0C359.7 117.5 357.6 114.7 349.4 119.8z" class="t"/><path d="M381.3 142.9c0 0 7.3-7.5 21.2-4.1C396.1 138.3 388.7 138.4 381.3 142.9z" class="t"/><path d="M338.8 182.2c0 0 6.3 9.3 18.2 3C354.1 187.8 342.7 191.7 338.8 182.2z" fill="#FF9AB6"/><path d="M348.9 230.3c0 0 5.8-7.7 23.2-5.6C363.8 225.6 356.3 226.6 348.9 230.3z" class="t"/><path d="M435.5 268.1c0 0 1.2-6.6 9.1-4.4C442.5 263.6 438.4 262.8 435.5 268.1z" class="t"/><path d="M295.5 230.8l14.4 0c0 0-0.2 7.7 2.5 7.6 2.7-0.1 19.8 4.8 21.1-5.5 1.4-10.3-10-14.3-15-15 -12.3-1.9-21.8 8.3-21.8 8.3L295.5 230.8z" class="a"/><path d="M295.5 230.8l14.4 0c0 0-0.2 7.7 2.5 7.6 2.7-0.1 17.9 3.8 19.2-6.5 1.4-10.3-8.1-13.3-13.1-14.1 -12.3-1.9-21.8 8.3-21.8 8.3L295.5 230.8z" class="b"/><path d="M296.7 231.9l13.2-1.1c0 0 3.7 7.3 6.4 7.2 2.7-0.1 12 3.1 13.3-7.2 1.4-10.3-6.1-12.2-11.1-13 -12.3-1.9-20.3 7.4-20.3 7.4L296.7 231.9z" class="c"/><path d="M318.6 217.5c-12.4-1.9-21.2 8.5-21.3 8.6l1.4-1.1c1.2-0.5 8.4-8.6 19.8-6.9 5.6 0.9 16 5.1 14.7 14.6 -0.2 1.9-1.1 3.4-2.4 4.4 -3.9 2.9-11.5 1.8-15.6 1.2 -1.3-0.2-2.3-0.3-2.8-0.3 -0.4 0-0.7-0.1-1-0.4 -1.3-1.3-1.2-4.9-1.2-4.9l-0.4-2.9 -0.4 3.2c0 1 0.1 3.9 1.4 5.1 0.4 0.4 0.9 0.6 1.5 0.6 0.5 0 1.4 0.1 2.6 0.3 2.1 0.3 5 0.8 7.9 0.8 3 0 6.1-0.5 8.2-2 1.5-1.1 2.4-2.8 2.7-4.9C335.2 222.8 324.4 218.4 318.6 217.5z" class="d"/><path d="M328.5 225.7c-2.3-2-10.9-9.5-21.4-4.9C310.7 216.8 324.5 218.1 328.5 225.7z" class="t"/><path d="M333.1 233.9c-1.1 9.2-7 15.9-9.4 17.2 0 0-1.8-3.9-2.9-6.4 0 0-2.4 3.8-4.8 6.8 -6-1.9-6.2-10.3-6-16.4C315 238.6 325 243.2 333.1 233.9z" class="h"/><path d="M333.1 233.9c-1.1 9.2-7 15.9-9.4 17.2 0 0-1.8-3.9-2.9-6.4 0 0-2.4 3.8-4.8 6.8 -6-1.9-6.2-10.3-6-16.4C315 238.6 325 243.2 333.1 233.9z" class="e"/><path d="M333.1 233.9c-0.3 2.6-1 4.9-1.9 7 -1.7 3.2-4.1 5.1-5.6 5.9 0 0-2.7-3.6-3.7-6.1 0 0-3.3 3.2-5.7 6.1 -3.8-3.6-4.6-5.9-3.5-10.1C318.2 239.7 326.3 241.7 333.1 233.9z" class="f"/><path d="M309.6 235.1l0-0.6 0.5 0.3c5.1 3.5 14.8 7.9 22.6-1.1l0.7-0.8 -0.1 1.1c-1.1 9.2-6.9 16-9.6 17.5l-0.3 0.2 -0.1-0.3c0 0-1.6-3.3-2.6-5.8 -0.8 1.2-2.6 4-4.5 6.3l-0.1 0.2 -0.2-0.1c-1-0.3-2-0.9-2.8-1.6l0 0C309.6 246.9 309.4 240.4 309.6 235.1zM320.5 244.6l0.3-0.6 0.2 0.6c0.8 2 2.2 5 2.7 6 2.3-1.5 7.4-7.5 8.8-15.7 -7.8 8.1-17.1 4.2-22.3 0.8 -0.2 5 0.1 11 3.3 14 0.7 0.6 1.4 1.1 2.3 1.4C318.2 248.3 320.5 244.6 320.5 244.6z" class="g"/><path d="M320.5 240.8l-4.5 4.7c-0.9-1.1-2.9-4-2.7-7C314.4 239 317.6 241 320.5 240.8z" class="s"/></svg>