<svg xmlns="http://www.w3.org/2000/svg" viewBox="0 0 768 430"><style>.a{fill:#AD7B59;}.b{fill:#48BCA6;}.c{fill:#268C78;}.d{fill:#C18B67;}.e{fill:#A4E4EA;}.f{fill:#422813;}.g{fill:#EDCF51;opacity:0.1;}.h{fill:#252B03;}.i{fill:#59514B;}.j{fill:#FFF;}.k{fill:#FFF;opacity:0.1;}.l{fill:#EDCF51;}.m{fill:#56331B;}.n{fill:#C64228;}.o{fill:#F7D52D;}</style><path d="M388.8 181.8c0 0 0.6-7.5 0.9-7.5S411.5 177 411.5 177l-1.1 8.9c0 0-6.5 10.2-15.7 9.3C385.5 194.4 388.8 181.8 388.8 181.8z" fill="#996A4A"/><path d="M325.4 323.9c0 0-6.1 16.7-3.1 21.8 3 5.1 14.7 11.7 22.7 12.6 8 0.9 12.4-6.2 13.5-7.8 1.1-1.6 2.8-5.1 2.8-5.1s-0.9 10.3 0 13c0.9 2.7 18.6 9.8 27.2 8.9 8.6-0.9 42.5-28.6 47.8-38.5 5.3-9.9-35-19.9-35-19.9l-67.2 7.1L325.4 323.9z" class="a"/><path d="M392.7 332.4c-0.9-8.2-1.5-16.5-2.2-24.8 -0.6-8.3-1.2-16.5-2.2-24.7 -0.5-4.1-1.1-8.1-1.7-12.1 -0.5-2.9-1.1-5.7-1.5-8.6 -0.3 0-0.7-0.1-1-0.1 -0.2 2-0.4 4-0.6 6 -0.4 4.3-0.9 8.6-1.5 12.9 -1.1 8.5-2.5 16.9-3.9 25.4 -1.4 8.9-2.8 17.7-4.2 26.6 -0.7 4.2-1.3 8.4-2 12.6 -0.3 1.7-0.6 3.3-0.9 5l24-0.8c-0.3-1.9-0.5-3.9-0.8-5.6C393.7 340.2 393.2 336.3 392.7 332.4z" class="b"/><path d="M313.6 313.4c2.7-2.6 5.4-5.2 8.1-7.8 5.5-5.3 11-10.7 16.3-16.2 9.1-9.2 18-18.6 26.6-28.2 -0.4 0-0.8 0-1.2 0 -1.5 1.3-3.2 2.4-4.6 3.6 -2.9 2.4-5.8 4.7-8.7 7 -5.6 4.4-11.2 8.7-16.9 12.9 -5.9 4.3-11.9 8.6-18 12.6 -3 2-6 3.9-9.1 5.8 -2.2 1.4-4.9 3.7-7.6 4.4l8.1 10.7h1.7C310.1 316.5 312 314.9 313.6 313.4z" class="b"/><path d="M353.6 325.2c3-7.7 6-15.5 8.9-23.3 2.9-7.8 5.7-15.6 8.5-23.4 1.1-3.1 2.2-6.2 3.3-9.3 -1.9 3-4 6-6 8.9 -4.9 7-9.7 14-14.6 21 -4.9 7-9.7 14-14.6 21 -2.4 3.5-4.9 7-7.4 10.4 -1.1 1.6-2.2 3.1-3.3 4.7l18 7.9c0.8-2.2 1.9-4.4 2.6-6.2C350.6 332.9 352.1 329 353.6 325.2z" class="b"/><path d="M335.7 318c4.6-6.8 9.3-13.5 13.9-20.3 4.6-6.8 9.3-13.5 14-20.3 3.6-5.2 7.3-10.4 10.1-16 -1.2 0-2.3-0.1-3.5-0.1 -9.5 10.6-19.2 20.9-29.2 31 -5.4 5.4-10.8 10.8-16.4 16.1 -2.7 2.6-5.5 5.2-8.2 7.7 -1.2 1.1-2.4 2.3-3.7 3.5l12.6 10.9v2.9c1-1.7 2.1-3.3 3.2-4.9C331 325.1 333.3 321.5 335.7 318z" class="b"/><path d="M410.3 328.7c-2.5-7.1-5.6-13.9-7.2-21.3 -1.7-7.7-3.1-15.4-5-23 -0.9-3.6-1.9-7.3-2.9-10.9 -1-3.5-2.2-7.1-2.9-10.7 -1.3-0.2-2.5-0.3-3.8-0.4 2.2 6.2 3.1 13.1 4.1 19.4 1.2 8.1 2 16.3 2.8 24.4 0.7 8.4 1.4 16.8 2.5 25.2 0.5 4 1.1 8 1.7 12 0.1 0.7 0.3 1.4 0.4 2.1l14.2-3.4c-0.2-0.8-0.3-1.6-0.5-2.4C412.6 336.1 411.5 332.4 410.3 328.7z" class="b"/><path d="M304.1 299.5c2.8-2 5.6-4 8.5-6 5.9-4.2 11.7-8.3 17.5-12.6 5.9-4.3 11.6-8.7 17.3-13.2 2.7-2.1 5.4-4.3 8.1-6.5 0.1-0.1 0.2-0.1 0.2-0.2 -4.9 0-8 0.2-8 0.2s-57.3 26.8-56.1 30c0.9 2.5 5.9 8.6 8.1 11.2 0 0 0.1-0.1 0.1-0.1C301.2 301.4 302.7 300.5 304.1 299.5z" class="b"/><path d="M414.9 278.2c-2.3-2.9-4.6-5.7-6.9-8.6 -1.1-1.4-2.7-3.1-3.8-4.9 -1-0.2-2-0.4-3.1-0.6 2.7 5.6 5 11.4 7.4 17.2 3 7.3 6.2 14.4 9.7 21.4 3.4 7 7.2 13.7 10.9 20.6 1.5 2.7 2.9 5.5 4.3 8.3l15.1-8.3 1.4 0.6c-7.1-9.3-14.1-18.6-21.2-27.9C424.1 290.2 419.6 284.2 414.9 278.2z" class="b"/><path d="M370 332.2c1.3-8.7 2.6-17.4 3.9-26.2 1.3-8.8 2.6-17.6 3.7-26.4 0.4-3.1 0.7-6.3 1.1-9.4 -1.1 3.3-2.3 6.6-3.5 9.8 -2.8 7.8-5.7 15.6-8.7 23.4 -3 7.9-6.1 15.8-9.3 23.6 -1.5 3.7-3 7.5-4.6 11.2 -0.4 0.8-0.7 1.8-1.1 2.8l16.5 4.4c0-0.1 0-0.3 0.1-0.4C368.7 340.7 369.4 336.5 370 332.2z" class="b"/><path d="M413.9 304.4c-3.4-7-6.6-14.2-9.4-21.4 -2.5-6.3-4.7-12.6-5.9-19.2 -1.1-0.2-2.2-0.4-3.4-0.5 1.4 2.7 2.4 5.6 3.4 8.5 1.4 3.8 2.7 7.6 3.7 11.5 2.1 7.4 3.6 15 5.3 22.5 1.6 7.4 4.7 14.1 7.2 21.3 1.3 3.8 2.5 7.7 3.5 11.6 0.3 1.2 0.7 2.5 1.1 3.9l11-5.4c-1.9-4.2-3.9-8.3-6-12.3C420.9 317.9 417.3 311.2 413.9 304.4z" class="b"/><path d="M418.9 276.1c4.7 5.8 9.3 11.7 13.8 17.6 7.5 9.8 15.1 19.5 22.6 29.3l11.3-9.1c0 0-33.2-32.3-48.4-43.5 -1.9-1.4-4.4-2.6-7.4-3.6 0.2 0.2 0.4 0.5 0.6 0.7C414.1 270.2 416.5 273.1 418.9 276.1z" class="b"/><path d="M315.3 297.3c6.1-4 12.1-8.3 18-12.6 5.7-4.2 11.4-8.5 16.9-12.9 2.9-2.3 5.8-4.6 8.7-7 1.4-1.2 3.1-2.3 4.6-3.6 -2.9 0-5.6 0-7.8 0 -0.1 0.1-0.2 0.1-0.2 0.2 -2.7 2.2-5.4 4.3-8.1 6.5 -5.7 4.5-11.5 8.9-17.3 13.2 -5.8 4.3-11.6 8.4-17.5 12.6 -2.8 2-5.6 4-8.5 6 -1.4 1-2.8 1.9-4.3 2.9 0 0-0.1 0.1-0.1 0.1 0.6 0.8 1 1.2 1 1.2l-3.2 2.3 1.1 1.5c2.7-0.7 5.4-3 7.6-4.4C309.2 301.2 312.3 299.3 315.3 297.3z" class="c"/><path d="M324.6 308.4c5.5-5.3 11-10.7 16.4-16.1 10-10.1 19.7-20.4 29.2-31 -1.9-0.1-3.7-0.1-5.5-0.1 -8.7 9.6-17.5 19-26.6 28.2 -5.4 5.5-10.8 10.8-16.3 16.2 -2.7 2.6-5.4 5.2-8.1 7.8 -1.6 1.5-3.5 3.1-5.2 4.8h2.6l1.7 1.5c1.3-1.2 2.5-2.4 3.7-3.5C319.2 313.6 321.9 311 324.6 308.4z" class="c"/><path d="M374 332.9c1.4-8.9 2.8-17.7 4.2-26.6 1.3-8.4 2.7-16.9 3.9-25.4 0.6-4.3 1.1-8.6 1.5-12.9 0.2-2 0.4-4 0.6-6 -3.5-0.3-7-0.5-10.4-0.6 -2.8 5.7-6.5 10.8-10.1 16 -4.7 6.8-9.3 13.5-13.9 20.3 -4.6 6.8-9.3 13.5-13.9 20.3 -2.4 3.5-4.8 7-7.1 10.6 -1.1 1.6-2.2 3.2-3.2 4.9v0.3l3.1 1.3c1.2-1.5 2.2-3.1 3.3-4.7 2.5-3.5 4.9-6.9 7.4-10.4 4.9-7 9.7-14 14.6-21 4.9-7 9.7-14 14.6-21 2-2.9 4.1-5.9 6-8.9 -1.1 3.1-2.2 6.2-3.3 9.3 -2.8 7.8-5.6 15.6-8.5 23.4 -2.9 7.8-5.9 15.6-8.9 23.3 -1.5 3.9-3 7.7-4.5 11.6 -0.7 1.9-1.8 4-2.6 6.2l0.4 0.2 2.4-2.7 2.2 0.6c0.4-1 0.7-1.9 1.1-2.8 1.6-3.7 3.1-7.4 4.6-11.2 3.2-7.9 6.3-15.7 9.3-23.6 3-7.8 5.9-15.6 8.7-23.4 1.2-3.3 2.3-6.5 3.5-9.8 -0.3 3.1-0.7 6.3-1.1 9.4 -1.1 8.8-2.4 17.6-3.7 26.4 -1.3 8.7-2.6 17.4-3.9 26.2 -0.6 4.2-1.3 8.5-1.8 12.7 0 0.1 0 0.3-0.1 0.4l0.3 0.1v5l2.7-0.1c0.3-1.6 0.6-3.3 0.9-4.9C372.7 341.3 373.3 337.1 374 332.9z" class="c"/><path d="M397.7 331.5c-1-8.4-1.7-16.8-2.5-25.2 -0.7-8.2-1.5-16.3-2.8-24.4 -0.9-6.3-1.9-13.3-4.1-19.4 -1.1-0.1-2.2-0.2-3.3-0.3 0.4 2.9 1 5.7 1.5 8.6 0.7 4 1.3 8.1 1.7 12.1 1 8.2 1.6 16.5 2.2 24.7 0.6 8.3 1.2 16.5 2.2 24.8 0.4 3.9 1 7.8 1.6 11.7 0.3 1.7 0.5 3.6 0.8 5.6l1.9-0.1v-3.2l2.9-0.7c-0.2-0.7-0.3-1.4-0.4-2.1C398.8 339.6 398.2 335.5 397.7 331.5z" class="c"/><path d="M414.9 327c-2.5-7.1-5.6-13.8-7.2-21.3 -1.6-7.5-3.2-15.1-5.3-22.5 -1.1-3.9-2.4-7.7-3.7-11.5 -1-2.8-2.1-5.7-3.4-8.5 -1-0.1-2-0.3-3-0.4 0.7 3.6 1.9 7.2 2.9 10.7 1 3.6 2 7.2 2.9 10.9 2 7.6 3.4 15.3 5 23 1.6 7.4 4.7 14.1 7.2 21.3 1.3 3.7 2.4 7.4 3.3 11.2 0.2 0.8 0.4 1.5 0.5 2.4l1.9-0.5 1.1 1.8 2.4-1.2c-0.4-1.3-0.8-2.7-1.1-3.9C417.3 334.7 416.2 330.8 414.9 327z" class="c"/><path d="M418.3 302.9c-3.5-7-6.7-14.2-9.7-21.4 -2.4-5.8-4.7-11.6-7.4-17.2 -0.8-0.2-1.7-0.3-2.6-0.5 1.2 6.6 3.4 13 5.9 19.2 2.9 7.3 6 14.4 9.4 21.4 3.3 6.9 7 13.6 10.6 20.3 2.1 4.1 4.1 8.2 6 12.3l3.8-1.9 -1.6-3 0.7-0.4c-1.4-2.8-2.8-5.6-4.3-8.3C425.5 316.6 421.7 309.8 418.3 302.9z" class="c"/><path d="M455.3 322.9c-7.5-9.8-15.1-19.6-22.6-29.3 -4.6-5.9-9.1-11.8-13.8-17.6 -2.4-2.9-4.8-5.9-7.3-8.7 -0.2-0.2-0.4-0.5-0.6-0.7 -2-0.7-4.3-1.3-6.7-1.8 1.1 1.8 2.7 3.5 3.8 4.9 2.3 2.9 4.6 5.7 6.9 8.6 4.7 5.9 9.2 11.9 13.8 17.9 7.1 9.3 14.1 18.6 21.2 27.9l2.5 1.2L455.3 322.9z" class="c"/><path d="M502.7 178.7c0 0 0.1-5.6 1-10.3 0.9-4.6 2.7-7.3 2.4-10.6 -0.3-3.3-0.4-6.1 2.8-3.8 3.2 2.3 3.2 4.7 3.2 7.5 0 2.9 4 3.4 4.5 7.8 0.5 4.4-2.4 10.3-6.9 11.8C505.3 182.6 502.7 178.7 502.7 178.7z" class="a"/><path d="M460.9 220.9c0 0 8 6.8 9.3 6.5s13.9-21.6 21-31.5c7.1-10 12.4-16.2 11.7-19.3 -0.6-3.1 6.2-13.7 13.7-7.3 7.5 6.4 18.3 14.6 11.4 20.7 -6.9 6.1-9.3 5.7-13.8 12.5 -4.5 6.8-23.9 46.4-31.8 53.5 -7.9 7.2-24.7 2.9-37.9-8.5S460.9 220.9 460.9 220.9z" class="a"/><path d="M539.4 178.5c-3.1 6.2-9.8 9.1-14.9 6.6 -5.1-2.6-6.6-9.7-3.5-15.9" fill="#BF1919"/><path d="M528.8 164.6c0 0 0-2.9-1.6-4.4 -1.6-1.6-7.4 1.3-9.4 3.5s-8.7 7.8-7.8 11.3c0.9 3.5 5.3 0.7 8.1-2 2.9-2.7 3.6-2.9 3.6-2.9s-6.4 5.8-7.6 8c-1.2 2.1 0.5 4.6 2.4 4.1 2-0.5 4.1-2.3 4.1-2.3s-2.7 2.8-2.3 3.7c0.4 0.9 1.6 2.2 4.4 1 2.8-1.2 2.8-1.2 2.8-1.2s-2.5 2.2-2.6 2.9c-0.1 0.7-0.1 3.2 3.2 2.8 3.3-0.3 12.9-3.4 14-7.2 1-3.8-1.8-5.1-1.8-5.1s1.3-2.9 0-5.2c-1.3-2.3-4.4-0.8-4.4-0.8s1.2-2.6-0.6-4.4C531.3 164.4 528.8 164.6 528.8 164.6z" class="d"/><path d="M301 144.9c0 0 1.6-5.4 2.2-10.1 0.5-4.7-0.3-7.8 0.9-10.8 1.3-3.1 2.2-5.7-1.5-4.5 -3.7 1.2-4.5 3.5-5.3 6.2 -0.9 2.7-4.9 2-6.7 6.1 -1.8 4-0.9 10.5 3 13.3C297.4 147.9 301 144.9 301 144.9z" class="a"/><path d="M328 197.9c0 0-9.6 4.1-10.9 3.4 -1.2-0.7-6.7-24.8-10.4-36.4 -3.7-11.6-6.8-19.2-5.3-22 1.5-2.8-1.8-15-10.8-11.1 -9.1 3.9-21.9 8.4-17.1 16.2 4.8 7.9 7.1 8.2 9.3 16.1 2.2 7.9 8.7 51.4 14 60.7 5.4 9.2 22.6 10.2 38.7 3.5S328 197.9 328 197.9z" class="a"/><path d="M325.4 197.1c0 0 28.1-10.1 34.9-9.4 6.8 0.8 10.5 20.7 6.4 30.6 -4 9.9-33.2 10.8-33.2 10.8s3.1-11-0.1-19.6C330.3 200.8 325.4 197.1 325.4 197.1z" class="e"/><path d="M462.4 220.7c0 0-22.1-18.2-29.5-20.1s-10.3-1-10.3-1 -10.1 19-7 29.6c3.1 10.5 29.7 19.1 29.7 19.1s6.3-15.6 10.6-20.9C460.4 222.2 462.4 220.7 462.4 220.7z" class="e"/><path d="M374.5 187.9c0 0-13.6-0.8-14.9 0 -1.3 0.8-6.8 33.7-8.9 48 -2.1 14.4-4.6 26.6-1.8 28.6 2.8 2 9.3 14.7 36.5 15.6 27.2 0.9 36.5-3.2 36.8-6.1 0.3-2.9 1.4-40.5 2.1-53.5 0.8-13 2.9-20.2 0-21.1 -2.9-0.9-8.6-4.7-8.6-4.7l-16.8-0.8 -4.3 1.4 -11.2-6.9L374.5 187.9z" class="b"/><circle cx="453.2" cy="141.7" r="35.9" class="f"/><path d="M482.7 152.2c0 0-0.1 0.1-0.1 0.1 0.2-2.1 0.1-4.3-0.3-6.5 -0.2-1.1-1.6-0.9-1.7 0.2 -0.1 2.7-0.5 5.3-1.4 7.8 0.3-1.8 0.5-3.7 0.5-5.6 0.3-1.8 0.3-3.7-0.1-5.7 -0.2-1.2-2-1.1-1.9 0.2 0.1 1.4 0.2 2.9 0.1 4.3 -0.3 3.3-1.6 6.4-3.1 9.3 -0.3 0-0.5 0.2-0.7 0.5 0 0.1-0.1 0.1-0.1 0.2 -0.1-0.1-0.3-0.2-0.4-0.3 -0.1-0.4-0.3-0.7-0.5-1.1 -0.3-0.4-0.9-0.3-1.1 0.1 -0.2 0.4-0.5 0.9-0.7 1.3 0.1-1 0.2-2 0.4-3 0.1-0.6-0.7-0.9-1-0.5 0.1-1.6 0.1-3.3-0.1-5 0.1-1 0-2.1-0.4-3.1 -0.4-0.9-1.6-0.4-1.4 0.5 0.1 0.2 0.1 0.4 0.1 0.6 0.4 2.6-1.3 5.4-2.2 7.7 -0.4 1.1-0.9 2.1-1.4 3.2 -0.2 0-0.5 0.1-0.6 0.3 -0.3 0.4-0.7 0.7-1 1.1v0c0-1-1.1-1.4-1.7-0.5 -0.1 0.1-0.2 0.3-0.3 0.4 0-0.1 0-0.2 0-0.3 0.1-0.6 0.2-1.2 0.3-1.8 0.1-0.7-0.6-1-1-0.8 0-1 0-2 0-3.1 0.3-1.6 0.3-3.3-0.1-5 -0.1-0.6-1-0.5-1 0.1 0 1.2 0.1 2.4 0 3.6 -0.5 3.2-2.1 5.9-3.9 8.7 0-0.4 0-0.8 0-1.2 0-0.3-0.3-0.7-0.6-0.7 -0.2-0.4-0.8-0.6-1.2-0.2 -0.3 0.4-0.6 0.7-0.9 1.1 0-0.1 0-0.2 0-0.3 -0.1-0.5-0.6-0.7-1-0.4 -0.1-0.1-0.4 0-0.4 0.2 -0.1 0.5-0.3 1-0.4 1.4 -0.1 0.4 0.3 0.6 0.6 0.5 0 0.2 0 0.3 0 0.5 0 0.6 0.9 0.9 1.3 0.4 0.2-0.3 0.5-0.6 0.7-0.9 0.2 0.2 0.4 0.3 0.7 0.3 0 0.5-0.1 1.1-0.1 1.6 -0.1 0.7 0.8 1.2 1.3 0.6 1.4-1.8 2.6-3.7 3.6-5.8 0 0.4-0.1 0.8-0.2 1.2 -0.1 0.5-0.5 2.7-1.1 4.9 -1 2-2.2 3.9-3.7 5.6 -0.4 0.4-0.2 1.1 0.3 1.3 3.1 1.4 4.7-4.6 5.2-6.6 0-0.2 0.1-0.3 0.1-0.5 0.2-0.4 0.3-0.7 0.4-1.1 0.2 0 0.5-0.1 0.7-0.3 0.2-0.2 0.3-0.3 0.5-0.5 0.2 0.7 1 1 1.6 0.4 0.1-0.1 0.1-0.1 0.2-0.2 0 0 0 0 0 0 -0.3 1.1 1.4 1.5 1.8 0.6 1.4-3 2.8-6 4-9.1 -0.1 1.9-0.5 3.8-1.1 5.6 -1.3 2.8-2.7 5.6-4 8.3 -0.4 0.8 0.7 1.5 1.3 0.8 1.7-2.1 2.9-4.4 3.7-6.7 -0.1 0.3-0.1 0.6-0.2 0.9 -0.2 1 1.4 1.5 1.7 0.5 0.4-1.1 0.8-2.2 1.2-3.3 0.1 0.3 0.3 0.5 0.6 0.5 0.1 0.7 0.9 1.2 1.5 0.6 0.4 0.1 1 0 1.2-0.4 0.6-1.1 1.2-2.2 1.7-3.3 -0.1 0.8-0.3 1.7-0.5 2.6 -1.5 1.9-3.3 3.5-3.3 6.1 0 0.7 0.9 1 1.5 0.7 1.8-1.3 2.7-3.5 3.4-5.7 0.3-0.3 0.5-0.6 0.7-0.9 0.4-0.6 0.8-1.2 1.1-1.8 0 0.9 1.3 1.4 1.7 0.4 0.5-1.7 1.2-3.2 2.3-4.6C484.3 152.4 483.3 151.6 482.7 152.2z" class="g"/><circle cx="343.2" cy="134.1" r="35.9" class="f"/><path d="M410.3 179.6l-23.1-1.8c-21.8-1.7-46.5-21.3-44.9-43.1l3.6-47.7c1.7-21.8 20.7-38.1 42.4-36.4l40.9 3.1c21.8 1.7 38.1 20.7 36.4 42.4l-3.6 47.7C460.4 165.7 432.1 181.3 410.3 179.6z" class="a"/><path d="M455.5 117.9c-0.4 0.6-1.7 1.7-3 1.9 0 0 0 0 0 0 0.6-0.6 1.3-1.3 2.2-2.2 2.9-3 3.5-4.7 3.4-4.8 -0.2-0.1-0.7 0.6-3.2 0.5 -1.1 0-5.2-5.5-5.2-5.5l0.2 3.3 0.7 6.4c-0.2 0.6-1.4 7.3-1.4 7.3s2.5-0.7 4.6-2.9c2.1-2.1 2.7-4.3 2.7-4.7C456.2 116.9 455.9 117.3 455.5 117.9z" class="h"/><path d="M419.4 117.6c0 0-0.3-16.9 16.5-16.6 16.8 0.3 17 15.4 15.7 19.9C450.2 125.4 419.4 117.6 419.4 117.6z" class="h"/><circle cx="435.5" cy="118.7" r="16.2" class="i"/><circle cx="435.5" cy="118.7" r="15.1" class="j"/><circle cx="434.4" cy="117.7" r="10" class="h"/><path d="M435.7 119.7c3.4 0.1 6.4-2 7.5-4.9 -1.2-3.5-4.6-6.1-8.6-6.2 -2.5 0-4.8 0.9-6.4 2.5 -0.1 0.3-0.1 0.7-0.1 1C428 116.2 431.4 119.6 435.7 119.7z" class="k"/><path d="M352.8 110c0.3 0.6 1.5 2 2.7 2.3 0 0 0 0 0 0 -0.5-0.6-1.1-1.5-1.8-2.5 -2.4-3.4-2.8-5.2-2.6-5.3 0.2 0 0.6 0.7 3.1 1 1.1 0.1 6-4.6 6-4.6l-0.7 3.3 -1.6 6.3c0.1 0.7 0.3 7.5 0.3 7.5s-2.4-1.1-4.1-3.5c-1.7-2.4-2.1-4.6-1.9-5S352.5 109.4 352.8 110z" class="h"/><path d="M388.6 115.2c0 0 2.8-16.7-13.8-18.9 -16.6-2.2-19.1 12.7-18.5 17.3C356.9 118.3 388.6 115.2 388.6 115.2z" class="h"/><circle cx="372.4" cy="113.9" r="16.2" class="i"/><circle cx="372.4" cy="113.9" r="15.1" class="j"/><path d="M411.5 141c-0.2 2.2-4.6 4.5-9.7 4.1 -5.2-0.4-9.2-3.3-9-5.5 0.2-2.2 4.1 1.9 9.3 2.3C407.2 142.2 411.7 138.8 411.5 141z" fill="#994A42"/><path d="M415.2 151.3c-0.4 0-0.8 0.2-0.9 0.4 -0.7 4.2-6.4 6.7-13.1 6.2l-0.5 0 -0.5 0c-6.7-0.5-11.9-3.8-12-8.1 0-0.3-0.3-0.5-0.8-0.5 -0.5 0-0.9 0.2-0.9 0.5 0.1 4.8 6 9.1 13.5 9.7l0.5 0 0.5 0c7.5 0.6 14-2.8 14.8-7.5C416 151.7 415.7 151.4 415.2 151.3z" fill="#422522"/><circle cx="373.8" cy="113" r="10" class="h"/><path d="M375.1 115.1c3.4 0.1 6.4-2 7.5-4.9 -1.2-3.5-4.6-6.1-8.6-6.2 -2.5 0-4.8 0.9-6.4 2.5 -0.1 0.3-0.1 0.7-0.1 1C367.4 111.6 370.8 115 375.1 115.1z" class="k"/><path d="M464.8 117c0 0 15.3 0.4 14.3 13.9 -1 13.6-19.5 9-19.5 9L464.8 117z" class="a"/><path d="M343.7 107.8c0 0-15.2-2-16.2 11.6 -1 13.6 17.9 11.8 17.9 11.8L343.7 107.8z" class="a"/><path d="M447 82.2c0 0 0 0 0 0.1C447 82.2 447 82.2 447 82.2z" class="l"/><path d="M444.6 76.9c-0.1-0.4-0.5-0.7-0.8-0.9 -0.4-0.3-0.7-0.5-1.1-0.8 -0.5-0.3-1 0.3-0.6 0.7 0.3 0.3 0.7 0.6 1 0.9 0.3 0.3 0.7 0.6 1.1 0.6C444.4 77.5 444.7 77.2 444.6 76.9z" class="l"/><path d="M443.9 74.7c-0.2-0.3-0.3-0.6-0.6-0.8 -0.2-0.2-0.6-0.5-0.9-0.4 -0.2 0-0.3 0.2-0.3 0.3 0 0.1 0 0.2 0.1 0.3 0.1 0.2 0.1 0.3 0.2 0.4 0.2 0.2 0.3 0.4 0.4 0.6 0.1 0.3 0.4 0.4 0.7 0.3C443.8 75.3 444 74.9 443.9 74.7z" class="l"/><path d="M344.7 150.5c-0.5-0.1-1.1-0.3-1.6-0.4 -0.7-0.2-1.4 0.7-1.1 1.3 -0.6-0.1-1.2-0.3-1.7-0.4 -0.1-0.2-0.2-0.5-0.3-0.7 -0.2-0.2-0.3-0.5-0.5-0.8 -0.4-0.5-0.9-0.9-1.6-1 -0.5-0.1-0.9-0.1-1.3 0.1 -0.4 0.2-0.6 0.7-0.8 1.1 -0.4-0.5-0.8-1-1.2-1.5 -0.5-0.7-1.7-0.1-1.4 0.7 0.4 0.9 0.6 1.8 0.7 2.7 -1.3-1.8-2.1-4-2.4-6.3 0-0.7-0.1-1.4-0.1-2.2 0-0.6-1-0.8-1.2-0.2 -0.4 1.1-0.5 2.3-0.5 3.4 -0.3-0.5-1-0.7-1.4-0.3 -0.1 0.1-1.8-1.9-2.1-2.2 -0.7-0.6-1.5 0-1.5 0.8 -0.7-0.3-1.1-0.8-1.1-1.6 -0.3-1-1.7-0.7-1.9 0.2 0 0.1 0 0.1 0 0.1 -0.1-0.5-0.2-1.1-0.3-1.7 -0.1-0.9-1.1-1-1.5-0.4 -0.4-1.1-0.7-2.2-1.1-3.3 -0.2-0.6-1.2-0.5-1.2 0.1 -0.1 1.1 0 2.1 0.1 3.1 -1-2.4-1.6-4.8-1.9-7.4 0.1-0.9 0.1-1.7 0.1-2.6 0-0.4-0.5-0.4-0.7-0.1 -0.1 0.1-0.1 0.3-0.2 0.4 -0.1 0.1-0.2 0.2-0.2 0.3 0 0 0 0.1 0 0.1 -0.4 1-0.7 2-0.8 3.2 -0.1 0-0.1 0-0.2 0.1 -0.1-0.6-0.1-1.1-0.1-1.3 -0.1-0.8-1.4-0.9-1.5 0 0 0.3-0.1 0.6-0.1 0.9 0-0.2-0.3-0.1-0.3 0.1 0 0.5 0.1 1 0.1 1.5 -0.1 0.4-0.1 0.8-0.2 1.3 0 0-0.1 0-0.1 0 -0.4-4.1-0.6-8-0.2-12.2 0.1-0.6-0.8-1-1.1-0.3 -1.9 4.8-0.5 10.7 0.2 15.6 0.1 0.5 0.6 0.7 1 0.5 0 0.6 0.1 1.1 0.2 1.7 0.2 1 1.6 0.9 1.6-0.2 0-0.1 0-0.1 0-0.2 0.9 2.7 2.3 5.2 4.2 7.1 0.2 0.2 0.4-0.1 0.3-0.3 -1-1.7-2-3.3-2.8-4.9 0 0 0.1 0 0.1 0 0.8 1.6 1.7 3.1 2.7 4.5 0.1 0.2 0.4 0 0.3-0.2 -0.8-1.8-1.6-3.6-2.3-5.4 0.3 0 0.6-0.2 0.5-0.6 0-0.9-0.2-1.8-0.3-2.7 0.7 2.4 1.7 4.6 3.1 6.8 0.5 0.8 1.6 0.1 1.3-0.7 -0.1-0.2-0.1-0.4-0.2-0.6 0.2 0 0.3 0 0.5-0.1 0.2 0.5 0.5 1 0.8 1.4 0.5 0.7 1.5 0.4 1.7-0.4 0-0.1 0.1-0.3 0.1-0.4 0.4 0.3 0.9 0.5 1.5 0.5 0.6 0 1-0.2 1.4-0.5 0.6 0.8 1.3 1.8 2.2 1.9 0.4 2 1.4 3.7 3.1 4.8 0.5 0.3 1.1 0.2 1.4-0.1 0.5 0.7 1 1.3 1.8 1.8 0.7 0.5 1.5 0 1.5-0.8 0-0.8-0.1-1.6-0.2-2.3 0.1 0 0.2 0 0.4 0 0.4-0.1 0.6-0.4 0.9-0.5 0.3-0.8 0.9-0.8 1.7 0 0.1 0.2 0.2 0.4 0.3 0.6 0.8 1 0.8 2 2.2 2.5 1.6 0.5 2.9-0.4 3.2-1.8 0.1 0 0.2 0 0.3 0.1C345.6 152.7 345.9 150.8 344.7 150.5z" class="g"/><path d="M383.7 109c-0.1-0.6-0.3-1.2-0.6-1.7 -0.6-0.7-1.3-1.3-2.2-1.4 -0.5-0.1-0.9-0.1-1.4 0.1 -0.4 0.1-0.9 0.2-1.2 0.5 -0.4 0.3-0.7 0.6-0.9 1 -0.3 0.4-0.5 0.8-0.5 1.3l0 0.9c0.1 0.6 0.3 1.2 0.6 1.7 0.6 0.7 1.3 1.3 2.2 1.4 0.5 0.1 0.9 0.1 1.4-0.1 0.4-0.1 0.9-0.2 1.2-0.5 0.4-0.3 0.7-0.6 0.9-1 0.3-0.4 0.5-0.8 0.5-1.3C383.7 109.6 383.7 109.3 383.7 109z" class="j"/><path d="M370.1 117.5c-0.8-0.1-1.7 0.4-1.8 1.3 -0.1 0.8 0.4 1.6 1.3 1.8 0.8 0.1 1.7-0.4 1.8-1.3C371.4 118.5 370.9 117.7 370.1 117.5z" class="j"/><path d="M444.3 113.6c-0.1-0.6-0.3-1.2-0.6-1.7 -0.6-0.7-1.3-1.3-2.2-1.4 -0.5-0.1-0.9-0.1-1.4 0.1 -0.4 0.1-0.9 0.2-1.2 0.5 -0.4 0.3-0.7 0.6-0.9 1 -0.3 0.4-0.5 0.8-0.5 1.3l0 0.9c0.1 0.6 0.3 1.2 0.6 1.7 0.6 0.7 1.3 1.3 2.2 1.4 0.5 0.1 0.9 0.1 1.4-0.1 0.4-0.1 0.9-0.2 1.2-0.5 0.4-0.3 0.7-0.6 0.9-1 0.3-0.4 0.5-0.8 0.5-1.3C444.3 114.2 444.3 113.9 444.3 113.6z" class="j"/><path d="M430.6 122.2c-0.8-0.1-1.7 0.4-1.8 1.3 -0.1 0.8 0.4 1.6 1.3 1.8 0.8 0.1 1.7-0.4 1.8-1.3C432 123.1 431.5 122.3 430.6 122.2z" class="j"/><path d="M383.9 85.7c-2.3-0.9-5.1-0.7-7.5-0.1 -2.3 0.6-4.1 1.9-6.3 2.7 -2.1 0.8-4.1 1.4-6.1 2.4 -1.6 0.8-3.7 1.7-4.1 3.6 0 0.2 0.1 0.5 0.4 0.5 1.7 0.2 3.1-1 4.6-1.8 1.8-0.9 3.7-1.6 5.6-2.1 1.8-0.4 4 0.2 5.8 0.6 2 0.4 4.5 0.9 6.5 0.6C385.9 91.7 387.1 87 383.9 85.7z" class="m"/><path d="M445.9 98.4c-0.3-1.8-1.9-2.9-3.3-3.9 -1.6-1.1-3.3-2.1-5-2.9 -1.8-0.9-3.7-1.5-5.6-2 -1.8-0.4-4-0.3-5.8-1 -2.3-0.8-4.8 0.4-4.9 3 -0.1 2.3 2.4 4.3 4.6 3.3 1.4-0.6 3.3-0.3 4.8-0.1 1.7 0.2 3.5 0.6 5.1 1 1.6 0.4 3.1 1 4.6 1.8 1.4 0.8 2.7 1.9 4.4 1.8C445.5 99.4 445.9 98.9 445.9 98.4z" class="m"/><path d="M405.9 67.8c0 0 4.8 11.6 21.6 23.4 16.9 11.8 21.2 9.3 21.2 9.3s-8.2-3-11.5-7.1c-3.3-4.1-3.6-7.2-3.6-7.2s4.5 8.1 11.6 11c7.1 2.9 12.6 4.7 12.6 4.7s4 1.5 2.8 12.3c-1.3 10.8-5.9 19-5.9 19s8.4-6.7 10.8-10.3c2.3-3.6 2.9-5.4 2.9-5.4l5 1.9c0 0 9.6-26.9-2.9-42.6 -12.5-15.7-16.9-17.3-16.9-17.3s6.2 1.5 12.1 9c5.8 7.6 7.1 8.6 7.1 8.6s-7.5-27.4-35.6-35.3c-28.1-7.9-30.5-4.2-30.5-4.2L405.9 67.8z" class="f"/><path d="M405.9 67.8c0 0-5.6 10.7-23.7 20.5 -18.1 9.9-22.1 7-22.1 7s8.5-2.1 12.2-5.8c3.7-3.8 4.4-6.8 4.4-6.8s-5.3 7.5-12.7 9.7c-7.4 2.1-13.1 3.3-13.1 3.3s-4.2 1.1-4.1 12c0.1 10.9 3.8 19.6 3.8 19.6s-7.6-7.6-9.6-11.5c-1.9-3.8-2.3-5.7-2.3-5.7l-5.2 1.3c0 0-6.6-27.8 7.5-42 14.2-14.2 18.6-15.3 18.6-15.3s-6.3 0.8-13 7.7c-6.6 6.9-8 7.8-8 7.8s10.4-26.4 39.2-31.3c28.7-4.8 30.8-0.8 30.8-0.8L405.9 67.8z" class="f"/><path d="M393.9 66.6c-0.4 0.5-0.9 1.1-1.3 1.6 -0.1 0-0.2 0-0.3 0.1 -2.5 2-5 4-7.4 6 0.1-0.5-0.5-1-1.1-0.8 -0.7 0.3-1.3 0.5-2 0.8 0.1-0.2 0.2-0.4 0.3-0.6 0.2-0.4-0.3-1-0.7-0.8 -1.1 0.5-2.2 0.9-3.2 1.4 1.2-1.3 2.3-2.8 3.1-4.5 0.2-0.3-0.3-0.5-0.5-0.3 -0.8 0.8-1.6 1.6-2.3 2.3 -2.2 1.2-4.3 2.5-6.5 3.8 0.8-0.6 1.5-1.3 2.3-2 0.3 0 0.5-0.1 0.8-0.2 0.4-0.2 0.4-0.5 0.2-0.8 1.1-1.1 2.2-2.2 3.3-3.4 1.4-1.1 2.8-2.3 4-3.6 0.5-0.5-0.2-1.1-0.7-0.8 -3.4 1.9-6.7 4.2-9.9 6.5 0 0 0 0 0 0 -0.7-0.3-1.5-0.4-2.2-0.5 0.2-0.2 0.3-0.4 0.5-0.6 0.5-0.6-0.1-1.2-0.8-1.1 0.1-0.5-0.6-0.9-1.1-0.6 -0.6 0.3-1.1 0.6-1.7 0.9 0.4-0.3 0.9-0.7 1.3-1 0.4-0.3-0.1-1-0.5-0.7 -0.5 0.4-0.9 0.7-1.4 1.1 0 0 0 0 0 0 -0.1-0.1-0.2-0.2-0.3-0.4 0.2-0.1 0.3-0.2 0.5-0.3 0.4-0.2 0-0.8-0.3-0.6 0 0 0 0 0 0 1.7-2.1 3.4-4.3 5.7-5.9 0.5-0.4 0.1-1.3-0.5-1 -3.1 1.4-6.3 2.9-9.4 4.4 -0.1 0-0.2 0-0.3 0 0.2-0.2 0.3-0.4 0.5-0.6 0.2-0.2 0.1-0.6-0.2-0.6 -0.3 0-0.6-0.1-0.9 0 0.1-0.1 0.2-0.3 0.3-0.4 0.2-0.3-0.1-0.9-0.5-0.7 -0.5 0.3-1 0.4-1.5 0.6 0.2-0.5 0.4-1 0.6-1.5 0-0.1-0.1-0.2-0.2-0.2 -0.3 0.1-0.6 0.2-0.9 0.3 2.7-2.6 5.5-5.2 8.4-7.6 0.7-0.6 0-1.5-0.8-1.1 -4.4 2.6-9.4 5.3-12.9 9 -0.4 0.5 0.2 1 0.7 0.8 2.1-1.2 4.1-2.5 6.1-3.9 -1.3 1.3-2.7 2.7-4 4.1 -0.3 0.4 0.2 0.9 0.6 0.6 0.4-0.3 2.4-1.4 1.8-0.6 -0.3-0.2-0.6 0.1-0.4 0.4 0 0 0 0 0 0.1 -0.2 0.3 0.1 0.6 0.4 0.6 0.3 0.5 0.7 1 1.1 1.4 -0.7 0.6-1.5 1.1-2.3 1.6 -0.7 0.4-0.1 1.4 0.6 1.2 2.5-0.8 5.1-1.8 7.5-3.1 -0.8 0.9-1.5 2-1.5 3.1 -2.4 1.2-4.6 2.8-6.4 4.8 -0.4 0.4 0.1 1 0.6 0.8 1.4-0.5 2.6-1.2 3.6-2 0.1 0.4 0.5 0.7 0.9 0.4 0.2-0.2 0.4-0.3 0.6-0.5 0.1 0.3 0.5 0.6 0.9 0.4 0.6-0.3 1.2-0.6 1.7-0.9 0.1 0.5 0.7 0.9 1.2 0.5 -0.1 0.1-0.2 0.3-0.3 0.4 -0.4 0.4 0 1.3 0.6 1.2 0.8-0.1 1.5-0.3 2.3-0.5 -1.5 1.1-2.9 2.1-4.3 3.2 -0.8 0.4 0 1.5 0.8 1.1 2-1.1 4.1-2.3 6.2-3.6 -2.7 2.1-5.5 4.1-8.6 5.7 -0.7 0.4-0.3 1.5 0.4 1.2 1-0.4 1.9-0.9 2.8-1.4 0.1 0 0.1 0 0.2 0 2.9-1.4 5.8-2.9 8.5-4.6 -1.2 1-2.4 2-3.7 2.8 -1 0.5-2 1.1-3.1 1.6 -0.7 0.4-0.3 1.6 0.5 1.2 2.2-0.9 4.4-2.1 6.2-3.5 1.5-0.8 3.1-1.5 4.7-2.2 -0.3 0.4-0.6 0.7-0.9 1 -1 0.6-1.9 1.3-2.8 2.1 -0.8 0.6 0 1.7 0.9 1.2 0.8-0.5 1.6-1 2.3-1.6 0.7-0.5 1.5-0.9 2.3-1.4 -0.7 0.8-1.5 1.6-2.4 2.4 -0.6 0.6 0.3 1.6 1 1.1 1.3-0.9 2.7-1.9 3.9-2.9 -1.4 1.3-2.9 2.5-4.4 3.6 -0.5 0.4-0.1 1.4 0.6 1 0 0 0.1-0.1 0.1-0.1 0 0 0 0 0 0 0 0 0 0 0 0 1.6-0.8 3-1.9 4.4-3 -0.4 0.6 0.5 1.4 1.2 1 1.6-1 3.3-1.5 5-2.4 0.3-0.2 0.2-0.7-0.2-0.8 -0.8 0-1.5 0.1-2.2 0.3 0.6-0.7 1.1-1.3 1.7-2 0.3-0.4-0.1-0.9-0.5-0.7 -0.7 0.3-1.3 0.6-1.9 1 2.2-2.4 4.3-4.9 6.2-7.6C394.4 66.6 394 66.3 393.9 66.6zM365.4 67.2c0.1-0.4 0.3-0.8 0.7-1.1 0.3-0.4 0.7-0.8 1.1-1.1 0.1-0.1 0.1-0.3 0.1-0.4 0.2-0.1 0.3-0.2 0.5-0.3C367 65.2 366.2 66.2 365.4 67.2z" class="g"/><path d="M453.7 67.2c0.1-1.2-0.4-2-1.3-2.9 -0.5-0.5-1.1-1.1-1.7-1.6 0.4-0.2 0.7-0.7 0.3-1 -0.4-0.4-0.7-0.8-1.1-1.1 0.1-0.1 0.2-0.2 0.2-0.4 0.1-0.6 0.1-0.8-0.1-1.4 -0.2-0.6-0.9-0.5-1.2-0.2 -0.1-0.1-0.2-0.2-0.3-0.4 -0.4-0.5-1.5-0.3-1.3 0.5 0 0.1 0.1 0.2 0.1 0.4 -0.4-0.1-0.8-0.2-1.3-0.3 -0.4-0.1-0.7 0.3-0.7 0.6 -0.2-0.1-0.4-0.2-0.6-0.3 -0.9-0.9-1.8-1.6-3.1-2 -0.6-0.2-1.1 0.5-0.6 0.9 0.8 0.8 1.7 1.3 2.6 1.8 0.4 0.4 0.8 0.8 1.1 1.2 -0.6 0.3-0.8 1.2 0 1.6 1 0.5 1.9 1.1 2.8 1.8 -0.9-0.4-1.9-0.8-2.8-1.2 -0.7-0.3-1.4 0.5-0.9 1.1 0.2 0.3 0.4 0.6 0.7 0.9 -1.2-0.7-2.4-1-3.5-0.4 -0.4 0.2-0.3 0.8 0 1.1 0.9 1 1.8 1.9 2.7 2.9 -1.1-0.7-2.1-1.4-3.1-2.2 -0.3-0.3-0.7-0.6-1-0.9 -0.5-0.4-1.1 0.3-0.6 0.7 1 1 2.1 1.9 3.2 2.8 0.8 0.8 1.5 1.6 2.3 2.4 -1-0.5-2-1-3-1.4 -1.9-1.1-3.9-2.1-5.9-3 -0.5-0.2-1.1 0.3-0.9 0.8 0.1 0.3 0.3 0.5 0.4 0.7 0 0.1 0.1 0.1 0.1 0.2 0 0 0 0 0.1 0.1 0.5 0.6 1 1.1 1.6 1.7 0.6 0.7 1.2 1.3 1.7 2 -0.2 0.1-0.3 0.3-0.4 0.5 -1.9-1.2-3.9-2.4-5.8-3.5 -1.1-1.4-2.6-2.4-4.7-2.6 -0.4 0-0.6 0.5-0.2 0.7 1.1 0.5 2.1 1.1 3.2 1.7 2.3 2.1 3.3 5.8 5 8.6 -1.2-0.4-2.5-0.8-3.7-1.1 -0.4-0.1-0.7 0.4-0.5 0.8 0.1 0.1 0.1 0.2 0.2 0.4 -1.1-0.7-2.2-1.2-3.4-1.6 -1.1-1-2.2-2-3.2-3.1 -0.4-0.5-0.8-0.9-1.2-1.4 -0.5-0.5-1.4 0.1-0.9 0.7 1.6 2 3.2 4 4.7 6.1 -0.1 0-0.2-0.1-0.3-0.1 -0.5-0.2-1.1 0.3-0.9 0.8 0.2 0.5 0.4 1 0.7 1.4 -1.7-0.1-3.3-0.7-4.6-1.7 -0.6-0.6-1.2-1.3-1.8-1.9 -0.2-0.2-0.3-0.2-0.5-0.2 -1.2-1.2-2.4-2.3-3.6-3.4 -0.2-0.2-0.6 0.1-0.4 0.4 3.1 4.1 6.8 8.5 10.8 11.7 0.4 0.3 1-0.2 0.7-0.6 -0.7-1-1.6-2-2.4-3 0.1 0.1 0.2 0.1 0.4 0.2 0.1 0 0.1 0 0.1-0.1 -0.1-0.1-0.1-0.1-0.2-0.2 1.1 0.3 2.2 0.3 3.3 0.2 0.7-0.1 0.8-0.8 0.4-1.3 0.2 0.1 0.3 0.2 0.5 0.4 0.7 0.5 1.6-0.3 1.1-1 -0.3-0.5-0.7-0.9-1-1.4 0.6 0.4 1.3 0.8 1.9 1.3 0.4 0.4 0.7 0.8 1 1.3 0.7 1 1.1 1.7 2.2 2.1 0.4 0.1 0.9-0.2 0.7-0.7 -0.4-1.1-1.1-1.8-1.9-2.5 0.3-0.1 0.5-0.5 0.3-0.8 -0.3-0.4-0.6-0.9-0.8-1.3 1.3 0.5 2.6 1 4 1.5 0.6 0.2 1.2-0.4 0.8-1 -0.8-1-1.5-2.3-2.1-3.5 0.6 0.4 1.4 0.6 2.1 0.6 0.5 0.4 1 0.8 1.5 1.1 0.5 0.4 1.1-0.3 0.6-0.7 -0.2-0.2-0.5-0.5-0.7-0.7 0.1-0.1 0.2-0.1 0.3-0.2 0.4 0.3 0.8 0.6 1.2 0.9 0.3 0.3 0.6 0.6 0.8 0.9 0.1 0.1 0.3 0.1 0.4 0.1 2 1.6 4 3.2 6 4.8 0.5 0.4 1-0.3 0.6-0.7 -2.1-2.3-4.5-4.2-7-6 0.3-0.2 0.5-0.7 0.2-1.2 -0.3-0.5-0.5-0.9-0.8-1.3 2.8 1.6 5.8 2.9 8.1 5.2 0.2 0.2 0.3 0.1 0.5 0 0.3 0.2 0.5 0.4 0.8 0.6 0.4 0.4 1.1-0.2 0.8-0.7 -0.9-1.2-1.9-2.3-3-3.3 0.1 0 0.1 0.1 0.2 0.1 0 0 0 0 0 0 0.6 0.3 1.1-0.6 0.5-1 -0.8-0.5-1.6-0.9-2.4-1.4 -0.7-0.5-1.3-1.1-1.8-1.8 0.9 0.6 1.8 1.1 2.8 1.6 0.8 0.4 1.3-0.7 0.8-1.2 -1.6-1.6-3.1-3.3-4.7-4.9 1.4 0.6 3.4 2.3 4 2.6 0.6 0.4 1.3-0.5 0.9-1.1 -0.4-0.6-0.9-1.3-1.3-1.9 1.3 0.6 2.5 1.3 3.8 1.9 0.3 0.1 0.6 0.1 0.8 0 0.5 0.3 1 0.6 1.6 0.7C453.4 68.6 453.9 67.8 453.7 67.2zM436.8 73.9c-0.4-0.3-0.8-0.7-1.2-1 0 0 0-0.1-0.1-0.1 0.1 0 0.2 0.1 0.3 0.1 0.4 0.3 0.8 0.6 1.2 0.9C437 73.9 436.9 73.9 436.8 73.9zM443.3 73.4c-1.5-0.8-2.9-1.6-4.3-2.5 -0.1-0.2-0.3-0.3-0.4-0.5 0 0-0.1-0.1-0.1-0.1 0.4 0.2 0.7 0.3 1.1 0.5C440.9 71.6 442.1 72.5 443.3 73.4zM447 61.6c1.5 0.9 2.8 2.1 3.9 3.5 -0.3-0.2-0.5-0.4-0.8-0.6 -0.7-0.8-1.4-1.4-2.2-2 -0.1-0.1-0.3-0.2-0.4-0.3 -0.2-0.2-0.4-0.4-0.6-0.5 0 0 0 0-0.1-0.1C446.9 61.6 446.9 61.6 447 61.6z" class="g"/><polygon points="395.3 194.5 410.4 185.9 419.4 196.5 402.7 215.4 394.6 196.1 380 211.3 374.5 187.9 388.8 181.8 " class="e"/><path d="M242.2 165.5l41.9 23.1c0 0-1.2-7.9-0.6-20.8 0.6-12.8 1.4-16 1.4-16L242.2 165.5" class="n"/><path d="M284.2 195l-39.9 20.3 45 16.1c0 0-2.5-7.6-3.9-20.4C284 198.3 284.2 195 284.2 195z" class="o"/><path d="M290 236l-36.2 26.3 47 8.9c0 0-3.6-7.2-7-19.6C290.3 239.3 290 236 290 236z" class="n"/><path d="M302.6 275.8l-30 33.2 47.8-1c0 0-5-6.3-10.9-17.7S302.6 275.8 302.6 275.8z" class="o"/><path d="M323.8 311.6l-19.3 40.4 45.5-14.6c0 0-6.6-4.6-15.5-13.8C325.6 314.3 323.8 311.6 323.8 311.6z" class="n"/><path d="M344.3 383.2l40.9-24.7c0 0-7.5-2.9-18.3-9.9 -10.8-6.9-13.2-9.2-13.2-9.2L344.3 383.2" class="o"/><path d="M392.2 404.4l34.1-33.5c0 0-8-1.1-20.1-5.3 -12.1-4.3-15-5.9-15-5.9L392.2 404.4" class="n"/><path d="M441.3 414.9l27.8-38.9c0 0-8 0.3-20.7-1.8 -12.7-2.1-15.8-3.2-15.8-3.2L441.3 414.9" class="o"/><path d="M489.5 417.5l21.2-42.8c0 0-7.9 1.6-20.7 1.5 -12.8 0-16.1-0.7-16.1-0.7L489.5 417.5" class="n"/><path d="M495.4 376.7c-12.3 0.5-30.5 0.5-51-2.2 -21.8-2.9-41.9-8.2-59.6-15.7 -22.2-9.4-40.9-22.5-55.4-38.7 -14.5-16.2-25.9-36.1-33.7-58.9 -6.3-18.3-10.4-38.5-12.2-60.1 -2.6-31.5 0.5-56.9 1.4-63.8 0.1-1 1.1-1.7 2.1-1.5h0c1 0.2 1.6 1.1 1.5 2.1 -1 6.7-4 31.9-1.4 63.1 2.8 33.5 12.9 80.9 45 116.8 32.1 35.9 79 48.7 112.7 53.2 31.5 4.2 57.7 2 64.6 1.3 1-0.1 1.9 0.6 2 1.6l0 0c0.1 1-0.6 2-1.6 2.1C507.2 376 502.2 376.5 495.4 376.7z" fill="#544D4C"/><path d="M282.7 125.9c0 0 0.9-2.7 2.9-3.7 2-1 6.6 3.5 7.9 6.2 1.3 2.7 5.9 10.1 4 13.1 -1.9 3-5.3-0.9-7.1-4.4 -1.9-3.4-2.5-3.9-2.5-3.9s4.3 7.5 4.8 9.9c0.5 2.4-1.8 4.2-3.6 3.1 -1.7-1.1-3.2-3.5-3.2-3.5s1.7 3.4 1.1 4.2c-0.6 0.8-2.2 1.6-4.5-0.4 -2.3-2-2.3-2-2.3-2s1.7 2.9 1.6 3.6c-0.2 0.7-0.9 3-3.9 1.7 -3-1.3-11.3-7.2-11.1-11.1 0.2-3.9 3.3-4.3 3.3-4.3s-0.4-3.1 1.6-5c2-1.8 4.4 0.6 4.4 0.6s-0.3-2.9 2-4C280.4 124.9 282.7 125.9 282.7 125.9z" class="d"/></svg>