<svg version="1.1" id="Layer_1" xmlns="http://www.w3.org/2000/svg" xmlns:xlink="http://www.w3.org/1999/xlink" viewBox="0 0 768 430" enable-background="new 0 0 768 430" xml:space="preserve">
<g>
	<polygon fill="#FAC19F" points="448.646,272.361 440.914,273.336 442.391,276.948 450.245,276.361 	"/>
	<path fill="#FAC19F" d="M442.765,272.913c-0.52-1.335-2.47-5.302-5.972-5.906c-3.498-0.604-7.245,0.786-7.688,3.896
		c0,0-1.759,0.752-2.184,1.923c-0.423,1.17,0.979,8.846,6.266,10.194C438.475,284.369,446.352,282.184,442.765,272.913z"/>
	<path fill="#D0D2D3" d="M492.341,243.173c0,0-6.326,10.979-20.197,19.401c-6.896,4.188-18.247,6.609-25.604,9.068l2.386,6.244
		c0,0,15.795-0.259,29.214-6.544c8.094-3.79,14.127-10.175,21.839-17.187L492.341,243.173z"/>
	<g>
		<path fill="#FFFFFF" d="M586.325,319.674c0,0-6.032-0.064-7.936,5.851l4.996,11.196c1.353,2.265,0.15,12.181,8.305,18.568
			c8.091,6.34,12.966,1.244,12.966,1.244L586.325,319.674z"/>
		<path fill="#A6A8AB" d="M599.487,359.398L599.487,359.398c-2.692,0-5.509-1.139-8.37-3.379c-6.223-4.876-7.256-11.731-7.873-15.83
			c-0.195-1.304-0.381-2.533-0.656-2.994c-0.019-0.03-0.036-0.063-0.051-0.099l-4.995-11.195c-0.093-0.209-0.104-0.444-0.036-0.662
			c2.064-6.422,8.537-6.494,8.812-6.494c0.352,0,0.684,0.199,0.84,0.516l18.331,36.859c0.175,0.35,0.109,0.771-0.159,1.056
			C605.24,357.267,603.158,359.398,599.487,359.398z M584.214,336.296c0.44,0.776,0.62,1.974,0.869,3.618
			c0.613,4.071,1.54,10.224,7.181,14.644c2.526,1.979,4.955,2.983,7.225,2.983l0,0c1.969,0,3.333-0.757,4.012-1.249l-17.732-35.654
			c-1.375,0.146-4.938,0.907-6.38,4.842L584.214,336.296z"/>
	</g>
	<path fill="#E6E7E7" d="M584.434,337.015c0,0-2.356-1.463-3.085-2.248c-0.732-0.79-3.07-0.273-3.07-0.273l-2.785-3.504
		c0,0,2.101-1.411,2.228-2.109c0.127-0.695,0.925-2.751,1.591-3.648C579.31,325.229,584.72,329.036,584.434,337.015z"/>
	<path fill="#020000" d="M590.751,345.11c0,0-3.11,3.718-7.18,2.477c0,0-0.038-4.502,2.25-6.848c0,0-2.937,1.927-4.661,1.165
		c0,0,2.854-3.542,6.292-2.705c0,0,0.211,4.748-1.834,6.57C585.618,345.771,588.355,344.936,590.751,345.11z"/>
	<g>
		<path fill="#FFFFFF" d="M477.376,396.447c0,0,5.12-3.197,3.542-9.201l-10.241-6.75c-2.357-1.179-6.682-10.182-16.993-11.177
			c-10.232-0.986-11.6,5.932-11.6,5.932L477.376,396.447z"/>
		<path fill="#A6A8AB" d="M477.376,397.376c-0.165,0-0.332-0.045-0.479-0.133l-35.292-21.195c-0.336-0.201-0.509-0.594-0.435-0.977
			c0.015-0.068,1.442-6.776,10.584-6.776c0.646,0,1.324,0.032,2.019,0.1c7.864,0.76,12.429,5.98,15.152,9.102
			c0.868,0.993,1.687,1.931,2.167,2.171c0.032,0.016,0.065,0.034,0.097,0.054l10.24,6.75c0.19,0.127,0.328,0.319,0.387,0.54
			c1.732,6.589-3.893,10.188-3.948,10.226C477.717,397.329,477.547,397.376,477.376,397.376z M443.188,374.832l34.142,20.503
			c1.085-0.864,3.678-3.413,2.771-7.516l-9.895-6.521c-0.789-0.418-1.588-1.33-2.68-2.582c-2.709-3.1-6.803-7.786-13.934-8.474
			c-0.636-0.061-1.254-0.091-1.84-0.091C445.694,370.152,443.742,373.447,443.188,374.832z"/>
	</g>
	<path fill="#E6E7E7" d="M469.173,380.515c0,0,3.237,0.264,4.276,0.535c1.04,0.27,2.731-1.424,2.731-1.424l4.237,1.453
		c0,0-1.013,2.322-0.744,2.979c0.27,0.652,0.455,2.806,0.377,3.923C480.052,387.98,471.679,386.649,469.173,380.515z"/>
	<polygon fill="#156096" points="516.012,328.702 546.156,350.651 579.31,335.317 576.258,327.663 549.273,334.733 524.797,302.415 
			"/>
	<path fill="#1B78B9" d="M508.153,310.357l0.562,17.91l-34.162,52.556l7.336,4.632c0,0,54.114-53.434,56.347-60.602
		c2.979-9.564-5.854-22.438-5.854-22.438L508.153,310.357z"/>
	<path fill="#020000" d="M459.702,376.107c0,0,0.515-4.514,3.939-5.583c0,0,2.048,3.542,1.484,6.548c0,0,1.206-3.006,2.76-3.276
		c0,0-0.414,4.242-3.212,5.318c0,0-2.277-3.649-1.658-6.118C463.017,372.996,461.467,375.033,459.702,376.107z"/>
	<g>
		<g>
			<defs>
				<path id="SVGID_1_" d="M506.7,324.146l-0.757-6.537c0,0-2.946-0.304-3.146-1.183c-4.355-19.405-16.199-68.63-16.199-72.643
					c0,0,14.725-7.882,18.993-3.712c3.441,3.361,27.724,36.285,37.322,57.712c1.163,2.595-4.068,10.796-4.068,10.796l2.326,4.771
					C534.844,321.864,506.7,324.146,506.7,324.146z"/>
			</defs>
			<clipPath id="SVGID_2_">
				<use xlink:href="#SVGID_1_"  overflow="visible"/>
			</clipPath>
			<polygon clip-path="url(#SVGID_2_)" fill="#FFFFFF" points="484.006,243.173 504.069,236.009 546.454,297.974 543.083,315.359 
				506.127,326.532 498.844,312.447 			"/>
		</g>
		<g>
			<defs>
				<path id="SVGID_3_" d="M506.7,324.146l-0.757-6.537c0,0-2.946-0.304-3.146-1.183c-4.355-19.405-16.199-68.63-16.199-72.643
					c0,0,14.725-7.882,18.993-3.712c3.441,3.361,27.724,36.285,37.322,57.712c1.163,2.595-4.068,10.796-4.068,10.796l2.326,4.771
					C534.844,321.864,506.7,324.146,506.7,324.146z"/>
			</defs>
			<clipPath id="SVGID_4_">
				<use xlink:href="#SVGID_3_"  overflow="visible"/>
			</clipPath>
			<path clip-path="url(#SVGID_4_)" fill="#F9EA43" d="M498.048,301.432l-1.444-6.339c0.25-0.059,25.203-5.812,38.957-14.599
				l3.503,5.479C524.349,295.372,499.114,301.188,498.048,301.432z"/>
		</g>
		<g>
			<defs>
				<path id="SVGID_5_" d="M506.7,324.146l-0.757-6.537c0,0-2.946-0.304-3.146-1.183c-4.355-19.405-16.199-68.63-16.199-72.643
					c0,0,14.725-7.882,18.993-3.712c3.441,3.361,27.724,36.285,37.322,57.712c1.163,2.595-4.068,10.796-4.068,10.796l2.326,4.771
					C534.844,321.864,506.7,324.146,506.7,324.146z"/>
			</defs>
			<clipPath id="SVGID_6_">
				<use xlink:href="#SVGID_5_"  overflow="visible"/>
			</clipPath>
			<path clip-path="url(#SVGID_6_)" fill="#F9EA43" d="M501.662,315.023l-1.457-6.339c0.281-0.062,28.187-6.559,43.585-16.482
				l3.524,5.465C530.951,308.214,502.851,314.752,501.662,315.023z"/>
		</g>
		<g>
			<defs>
				<path id="SVGID_7_" d="M506.7,324.146l-0.757-6.537c0,0-2.946-0.304-3.146-1.183c-4.355-19.405-16.199-68.63-16.199-72.643
					c0,0,14.725-7.882,18.993-3.712c3.441,3.361,27.724,36.285,37.322,57.712c1.163,2.595-4.068,10.796-4.068,10.796l2.326,4.771
					C534.844,321.864,506.7,324.146,506.7,324.146z"/>
			</defs>
			<clipPath id="SVGID_8_">
				<use xlink:href="#SVGID_7_"  overflow="visible"/>
			</clipPath>
			<path clip-path="url(#SVGID_8_)" fill="#F9EA43" d="M492.689,289.95l-1.457-6.339c0.264-0.06,26.512-6.172,40.986-15.508
				l3.525,5.465C520.307,283.527,493.811,289.691,492.689,289.95z"/>
		</g>
	</g>
	<path fill="#D0D2D3" d="M506.29,324.548l-0.766-6.617c-1.104-0.146-2.961-0.531-3.182-1.499c-1.274-5.683-3.215-14.018-5.269-22.84
		c-5.128-22.037-10.941-47.015-10.941-49.902v-0.279l0.245-0.131c0.379-0.203,9.381-4.985,15.392-4.985
		c1.836,0,3.229,0.456,4.146,1.351c3.283,3.205,27.687,36.127,37.421,57.854c1.157,2.582-3.007,9.489-3.961,11.014l2.337,4.796
		l-0.169,0.228c-6.381,8.578-33.647,10.883-34.808,10.978L506.29,324.548z M487.076,243.963c0.312,3.904,6.17,29.081,10.904,49.419
		c2.054,8.823,3.992,17.16,5.271,22.847c0.104,0.285,1.436,0.688,2.74,0.822l0.37,0.038l0.747,6.455
		c3.579-0.335,27.518-2.851,33.52-10.344l-2.312-4.748l0.14-0.22c1.417-2.224,4.904-8.413,4.035-10.354
		c-9.694-21.637-33.96-54.384-37.224-57.569c-0.735-0.72-1.914-1.086-3.495-1.086C496.538,239.223,488.602,243.177,487.076,243.963z
		"/>
	<polygon fill="#FAC19F" points="486.599,235.205 489.113,243.688 497.325,240.518 495.312,233.438 	"/>
	<polygon fill="#829CA8" points="489.113,243.688 488.113,249.354 486.045,243.758 488.195,240.752 	"/>
	<polygon fill="#829CA8" points="496.805,237.588 489.113,243.688 495.159,249.508 499.668,238.562 	"/>
	<polygon fill="#FAC19F" points="559.566,257.342 565.565,262.316 567.194,258.77 560.626,254.605 	"/>
	<path fill="#FAC19F" d="M564.838,259.561c-0.623,1.293-2.182,5.426-0.229,8.396c1.947,2.967,5.525,4.754,8.098,2.946
		c0,0,1.75,0.77,2.894,0.281c1.146-0.494,5.788-6.761,3.159-11.541C576.131,254.859,569.152,250.605,564.838,259.561z"/>
	<g>
		<path fill="#FFFFFF" d="M504.761,239.4c8.027-0.448,24.888-0.496,33.138,0.367c7.775,0.812,25.761,14.121,25.761,14.121
			l-3.728,6.281c0,0-21.896-10.279-27.162-10.542c-5.761-0.288-13.586-0.362-25.032-0.619
			C501.925,248.882,504.761,239.4,504.761,239.4z"/>
		<path fill="#D0D2D3" d="M559.932,260.635c-0.066,0-0.135-0.015-0.197-0.045c-0.219-0.102-21.872-10.242-26.987-10.498
			c-4.001-0.199-9.088-0.298-15.529-0.423c-2.856-0.058-6.006-0.116-9.491-0.194c-1.365-0.031-2.417-0.537-3.12-1.506
			c-2.026-2.785-0.361-8.462-0.29-8.701c0.057-0.187,0.225-0.318,0.419-0.33c3.546-0.196,8.84-0.316,14.165-0.316
			c7.939,0,14.882,0.25,19.046,0.688c7.812,0.816,25.251,13.661,25.989,14.209c0.191,0.142,0.244,0.403,0.123,0.608l-3.728,6.281
			C560.243,260.552,560.089,260.635,559.932,260.635z M505.12,239.848c-0.31,1.192-1.275,5.5,0.235,7.577
			c0.533,0.729,1.313,1.099,2.39,1.121c3.485,0.078,6.634,0.138,9.489,0.194c6.449,0.125,11.544,0.223,15.559,0.424
			c4.972,0.249,23.918,8.992,26.953,10.408l3.297-5.559c-2.506-1.82-18.211-13.054-25.194-13.783
			c-4.136-0.434-11.041-0.683-18.949-0.683C513.755,239.549,508.642,239.66,505.12,239.848z"/>
	</g>
	<path fill="#FAC19F" d="M534.809,207.79c-4.908,16.942-14.299,21.043-35.054,26.004c-33.708,8.058-75.922-3.58-84.869-18.688
		c-11.562-19.517-0.159-62.163,14.93-80.784c12.965-16,33.596-17.622,66.014-8.609C549.637,140.672,540.965,186.538,534.809,207.79z
		"/>
	<path fill="#020000" d="M472.905,187.872c-1.771,5.523-5.06,9.375-7.35,8.605c-2.295-0.769-2.714-5.873-0.952-11.398
		c1.776-5.526,5.069-9.382,7.361-8.609C474.25,177.243,474.676,182.345,472.905,187.872z"/>
	<path fill="#EB1A29" d="M438.474,200.532c0,0,13.801,8.482,23.772,1.702c0.081,14.708-6.799,16.555-11.887,15.557
		C442.979,216.35,438.474,200.532,438.474,200.532z"/>
	<polygon fill="#FAC19F" points="474.652,185.545 467.892,185.505 473.729,191.42 	"/>
	<path fill="#020000" d="M474.271,162.691c0,0,3.205-5.084,7.604-2.809c2.445,1.265,3.558,5.46,3.801,10.251
		C485.677,170.134,480.649,163.286,474.271,162.691z"/>
	<path fill="#F38E86" d="M472.504,199.513c-0.214,1.183,2.524,2.636,6.115,3.241c3.598,0.611,6.684,0.147,6.898-1.033
		c0.219-1.188-2.522-2.642-6.113-3.244C475.809,197.869,472.722,198.33,472.504,199.513z"/>
	<path fill="#020000" d="M440.671,179.799c-1.768,5.528-5.058,9.38-7.347,8.609c-2.292-0.77-2.715-5.874-0.949-11.4
		c1.771-5.527,5.064-9.38,7.357-8.607C442.019,169.17,442.438,174.276,440.671,179.799z"/>
	<polygon fill="#FAC19F" points="442.839,177.845 436.078,177.805 441.911,183.722 	"/>
	<path fill="#020000" d="M447.481,158.451c0,0-1.757-5.594-6.685-4.622c-2.74,0.541-4.853,4.035-4.698,7.047
		C436.1,160.877,441.103,155.497,447.481,158.451z"/>
	<path fill="#F38E86" d="M418.092,184.352c-0.525,1.082,1.729,3.211,5.028,4.752c3.302,1.546,6.401,1.921,6.927,0.84
		c0.524-1.081-1.727-3.213-5.027-4.755C421.716,183.649,418.622,183.269,418.092,184.352z"/>
	<path fill="#020000" d="M448.234,194.951c-0.398,0-0.776-0.235-0.941-0.625l-1.569-3.708l-3.865,2.283
		c-0.486,0.287-1.112,0.125-1.401-0.361c-0.286-0.486-0.125-1.113,0.361-1.401l4.874-2.875c0.256-0.15,0.561-0.183,0.84-0.09
		c0.28,0.091,0.508,0.301,0.622,0.572l2.022,4.785c0.22,0.52-0.022,1.121-0.545,1.34
		C448.503,194.925,448.367,194.951,448.234,194.951z"/>
	<polygon fill="#829CA8" points="561.658,260.99 555.066,259.327 557.855,252.734 560.645,253.749 559.566,250.995 562.292,249.508 
		565.714,253.116 	"/>
	<path fill="#829CA8" d="M444.812,271.338c0,0,4.188-1.742,6.284-2.691l3.563,10.764h-7.259L444.812,271.338z"/>
	<path fill="#020000" d="M550.623,147.681c2.221-5.991,2.197-16.582,2.197-16.582c-5.75-3.63-21.574-5.594-21.574-5.594
		c2.525-5.279-1.662-13.534-1.662-13.534c-5.382-2.06-21.764-4.216-21.764-4.216l-2.943-10.104
		c-12.75-1.374-29.364,2.256-29.364,2.256l-4.442-4.708c-12.979,5.394-19.017,9.438-19.017,9.438l-10.159-4.708
		c-3.825,5.493-8.662,17.062-8.662,17.062l-7.361-2.056c-1.673,8.731,0.568,24.373,0.568,24.373
		c15.132-10.338,33.648,0.541,33.648,0.541s13.94,8.049,30.905,13.282c0,0-2.522-4.024-1.261-7.851c0,0,11.113,10.27,21.778,17.213
		c0,0,1.865-5.081-0.506-11.306c-0.312-0.816,6.92,9.772,14.176,15.562l-6.572,20.459l7.539,10.823l0.887,24.122
		c19.752-10.344,28.338-55.318,32.532-68.438C554.232,148.15,550.623,147.681,550.623,147.681z"/>
	<path fill="#FAC19F" d="M526.035,198.687c0,0,9.103-10.966,17.577-4.527c5.482,4.166,4.312,19.438-7.081,19.311
		c-5.697-0.062-11.756-6.576-11.756-6.576L526.035,198.687z"/>
	<path fill="#CE9277" d="M527.887,200.135c0,0,5.625-7.494,10.687-3.243c3.272,2.749,2.399,13.055-4.494,13.089
		c-3.445,0.02-7.044-4.302-7.044-4.302L527.887,200.135z"/>
</g>
<g>
	<path fill="#EDC6AB" d="M212.223,276.171c0,0,4.002,1.354,4.979,5.778c0.978,4.424-0.181,8.303-3.007,10.533
		c-2.825,2.232-8.264,3.363-8.264,3.363l-8.677-11.265c0,0-3.514-9.262,3.966-11.224c7.48-1.959,9.96,0.902,9.96,0.902
		L212.223,276.171z"/>
	<path fill="#DDB397" d="M199.671,282.189c0,0,5.731,2.348,7.212,5.656c1.481,3.309,0.836,9.054-0.339,11.495
		c-1.175,2.44-13.361,7.706-22.595,6.072c-9.233-1.637-21.603-8.012-27.377-7.539c-5.775,0.471-8.978,2.273-11.533,1.233
		c-2.554-1.038,5.6-2.45,10.247-5.636c4.647-3.184,8.025-4.214,8.951-4.043c0.926,0.171,23.473-6.044,23.973-6.208
		s5.997-2.205,5.997-2.205l3.42,0.064L199.671,282.189z"/>
	<path fill="#AF487C" d="M157.595,284.85c0,0-2.91,1.19-3.88,3.11c-0.972,1.918-0.992,2.399-4.527,4.095
		c-3.536,1.694-8.82,4.199-9.734,5.21c-0.914,1.012,3.928,2.031,5.585,1.843s15.342-8.178,15.342-8.178L157.595,284.85z"/>
	<path fill="#3E8793" d="M188.853,259.886c0,0,1.144,3.123,1.57,3.339c0.427,0.216,12.484,4.798,14.74,6.43
		c2.255,1.631,3.303,2.117,3.518,2.047c0.214-0.07,2.386,0.226,3.466,1.707c1.08,1.485,0.79,2.588,0.076,2.763
		c-0.713,0.176-2.263-3.645-7.23-0.532s-6.085,5.852-6.085,5.852s-14.214-0.495-18.406-7.124
		c-4.191-6.629,0.587-11.221,0.587-11.221L188.853,259.886z"/>
	<path fill="#6EABBA" d="M179.33,265.738c0,0,1.701,1.932,2.739,4.913c1.037,2.979,1.37,4.175,1.37,4.175s12.52,4.725,13.232,4.906
		s1.266-0.117,1.957,0.544c0.692,0.663,1.043,1.913,1.043,1.913s-3.216-2.028-8.906,3.216c-5.689,5.249-5.812,8.848-5.514,9.757
		s0.562,1.534-0.632,1.868c-1.195,0.333-11.411-2.066-15.143-4.044c-3.732-1.979-10.914-5.254-12.56-15.327
		c-1.646-10.074,11.241-11.279,11.241-11.279L179.33,265.738z"/>
	<path fill="#E0B190" d="M163.472,223.98c0,0-1.298,0.07-2.305-2.603c-1.007-2.675-9.289,0.637-9.289,0.637l-3.045,3.488
		l0.787,1.798l0.336,1.748c0,0,4.665,5.782,11.977,1.564C169.246,226.396,163.472,223.98,163.472,223.98z"/>
	<path fill="#C67D9E" d="M188.226,229.061c0,0-6.568-2.667-10.199-3.611c-3.629-0.943-6.172-1.907-8.235-1.487
		c-2.063,0.422,0.505,9.007,3.718,12.536c3.214,3.531,8.139,7.15,12.473,7.379C190.317,244.107,188.226,229.061,188.226,229.061z"/>
	<g>
		<g>
			
				<ellipse transform="matrix(0.9595 0.2816 -0.2816 0.9595 48.5552 -36.5222)" fill="#914A16" cx="151.357" cy="150.687" rx="15.611" ry="14.682"/>
			<path opacity="0.35" fill="#EDEDED" d="M153.145,149.849c0.042-0.12,0.091-0.238,0.146-0.354
				c-0.055,0.245-0.12,0.486-0.193,0.731C153.114,150.101,153.13,149.975,153.145,149.849z"/>
		</g>
		<g>
			
				<ellipse transform="matrix(-0.473 0.8811 -0.8811 -0.473 298.8156 173.9522)" fill="#914A16" cx="97.383" cy="176.345" rx="15.611" ry="14.682"/>
			<path opacity="0.35" fill="#EDEDED" d="M95.833,177.26c-0.225-0.12-0.443-0.242-0.656-0.375c0.121,0.042,0.238,0.09,0.354,0.144
				C95.63,177.108,95.731,177.184,95.833,177.26z"/>
		</g>
		<path fill="#EDC6AB" d="M165.562,219.909l-17.603,9.053c-10.159,5.225-22.629,1.224-27.854-8.935l-10.644-20.696
			c-5.224-10.159-1.225-22.629,8.935-27.854l17.603-9.053c10.159-5.225,22.629-1.225,27.853,8.934l10.644,20.697
			C179.721,202.213,175.721,214.684,165.562,219.909z"/>
		<path fill="#252B03" d="M164.948,182.98c-0.026,0.354-0.303,1.206-0.79,1.625c-0.002,0.002-0.004,0.003-0.007,0.006
			c0.089-0.393,0.203-0.898,0.346-1.542c0.456-2.05,0.27-2.998,0.18-2.984s-0.154,0.428-1.272,1.073
			c-0.506,0.292-3.724-0.971-3.724-0.971l0.981,1.393l2.005,2.615c0.065,0.342,1.342,3.568,1.342,3.568s0.89-0.98,1.219-2.467
			s0.048-2.583-0.094-2.75C164.992,182.381,164.975,182.626,164.948,182.98z"/>
		<path fill="#252B03" d="M149.185,192.506c0,0-4.63-7.257,2.724-11.592c7.354-4.334,11.485,2.176,12.115,4.458
			C164.653,187.652,149.185,192.506,149.185,192.506z"/>
		<circle fill="#59514B" cx="156.483" cy="188.675" r="8.232"/>
		<circle fill="#FFFFFF" cx="156.482" cy="188.674" r="7.682"/>
		<g>
			<circle fill="#252B03" cx="157.651" cy="189.858" r="5.109"/>
			<path opacity="0.13" fill="#FFFFFF" d="M158.743,190.398c1.503-0.886,2.227-2.571,1.921-4.138
				c-1.486-1.208-3.625-1.432-5.371-0.402c-1.09,0.643-1.826,1.655-2.144,2.783c0.067,0.165,0.146,0.325,0.238,0.482
				C154.458,190.939,156.856,191.51,158.743,190.398z"/>
		</g>
		<path fill="#252B03" d="M118.277,206.982c0.303,0.184,1.157,0.456,1.781,0.303c0.004,0,0.006-0.001,0.009-0.002
			c-0.371-0.156-0.849-0.358-1.455-0.616c-1.933-0.821-2.595-1.525-2.531-1.589c0.062-0.065,0.437,0.124,1.612-0.411
			c0.532-0.242,1.377-3.594,1.377-3.594l0.562,1.607l0.961,3.153c0.24,0.252,2.122,3.167,2.122,3.167s-1.315,0.154-2.715-0.442
			c-1.4-0.597-2.13-1.463-2.182-1.676C117.765,206.67,117.974,206.799,118.277,206.982z"/>
		<path fill="#252B03" d="M135.195,199.701c0,0-3.211-7.987-11.014-4.527c-7.802,3.461-4.91,10.608-3.421,12.447
			C122.25,209.46,135.195,199.701,135.195,199.701z"/>
		<circle fill="#59514B" cx="127.833" cy="203.408" r="8.232"/>
		<circle fill="#FFFFFF" cx="127.834" cy="203.408" r="7.682"/>
		<path fill="#BC6C61" d="M152.019,204.746c0.508,0.988-0.79,3.152-3.141,4.362s-4.867,1.006-5.375,0.019
			c-0.508-0.988,2.268-0.279,4.619-1.488C150.474,206.429,151.511,203.759,152.019,204.746z"/>
		<path fill="#422522" d="M156.373,208.26c-0.194,0.1-0.309,0.281-0.255,0.412c0.812,2.018-1,4.606-4.031,6.166l-0.207,0.107
			l-0.207,0.105c-3.03,1.559-6.19,1.528-7.36-0.307c-0.076-0.119-0.29-0.132-0.484-0.031c-0.217,0.111-0.324,0.317-0.239,0.449
			c1.325,2.065,5.021,2.349,8.444,0.589l0.206-0.106l0.207-0.105c3.422-1.76,5.342-4.931,4.432-7.211
			C156.82,208.181,156.589,208.148,156.373,208.26z"/>
		<g>
			<circle fill="#252B03" cx="130.12" cy="204.017" r="5.109"/>
			<path opacity="0.13" fill="#FFFFFF" d="M131.213,204.557c1.502-0.886,2.227-2.57,1.921-4.138
				c-1.487-1.208-3.625-1.432-5.372-0.402c-1.09,0.643-1.825,1.655-2.143,2.784c0.066,0.163,0.145,0.325,0.237,0.481
				C126.927,205.098,129.325,205.669,131.213,204.557z"/>
		</g>
		<path fill="#EDC6AB" d="M168.76,180.136c0,0,6.736-3.929,9.909,2.242c3.174,6.17-6.05,9.079-6.05,9.079L168.76,180.136z"/>
		<path fill="#EDC6AB" d="M113.747,208.429c0,0-7.114,3.193-3.94,9.364s10.904,0.36,10.904,0.36L113.747,208.429z"/>
		<path fill="#914A16" d="M155.607,158.169c-9.826-5.515-18.775-6.055-32.353,0.885c-13.578,6.938-23.898,19.186-21.079,31.071
			c2.158,9.091,7.831,20.476,7.831,20.476l7.409-0.359c0,0-10.055-16.104-7.922-24.631c0.32-1.281,0.946-2.601,1.776-3.916
			c0.564,6.671,5.077,14.05,5.077,14.05l39.571-20.224c0,0-1.496-3.836-6.173-9.967c-0.871-1.142-1.73-2.081-2.553-2.855
			c3.098,0.705,7.276,2.127,10.447,4.971c5.722,5.133,11.059,17.699,11.059,17.699l2.55-6.196
			C171.247,179.171,165.433,163.685,155.607,158.169z"/>
		<path fill="#914A16" d="M147.191,162.697c0,0,5.089,4.029,7.81,8.333c2.72,4.305,3.354,6.562,3.354,6.562l5.342,0.543
			c0,0,0.715-1.617-3.699-7.939c-4.414-6.321-8.635-9.632-8.635-9.632L147.191,162.697z"/>
		<path fill="#914A16" d="M111.842,180.762c0,0,0.283,6.485,2.178,11.212c1.895,4.725,3.354,6.562,3.354,6.562l-2.689,4.648
			c0,0-1.729-0.367-4.267-7.648c-2.537-7.281-2.748-12.641-2.748-12.641L111.842,180.762z"/>
		<circle fill="#FFFFFF" cx="159.734" cy="187.155" r="1.501"/>
		<circle fill="#FFFFFF" cx="156.959" cy="193.336" r="0.681"/>
		<circle fill="#FFFFFF" cx="131.847" cy="201.194" r="1.501"/>
		<circle fill="#FFFFFF" cx="129.073" cy="207.375" r="0.681"/>
		<path fill="#914A16" d="M156.758,178.31c-1.308-0.845-3.467-0.61-4.925-0.3c-1.861,0.396-3.365,1.271-5.027,2.131
			c-1.396,0.723,0.021,2.72,1.045,1.737c1.143-1.097,2.836-1.749,4.334-2.179c0.762-0.22,1.53-0.409,2.315-0.522
			c0.756-0.108,1.488-0.101,2.203-0.397C156.886,178.703,156.932,178.423,156.758,178.31z"/>
		<path fill="#914A16" d="M118.848,197.971c0.067-1.555,1.507-3.181,2.604-4.19c1.4-1.29,2.984-2.011,4.646-2.869
			c1.397-0.721,2.206,1.591,0.812,1.857c-1.556,0.298-3.068,1.301-4.286,2.274c-0.619,0.496-1.218,1.012-1.765,1.589
			c-0.526,0.553-0.942,1.155-1.598,1.566C119.095,198.304,118.839,198.179,118.848,197.971z"/>
		<g>
			
				<rect x="131.438" y="150.175" transform="matrix(0.9828 -0.1846 0.1846 0.9828 -25.9315 27.3548)" fill="#B72018" width="5.026" height="5.547"/>
			<path fill="#F44437" d="M135.908,149.759l4.69-4.615c0.918-0.904,2.473-0.417,2.711,0.85l2.076,11.055
				c0.255,1.355-1.2,2.382-2.391,1.688l-6.062-3.526L135.908,149.759z"/>
			<path fill="#F44437" d="M130.969,150.687l-6.046-2.599c-1.184-0.509-2.456,0.51-2.218,1.776l2.077,11.055
				c0.254,1.355,1.982,1.784,2.841,0.706l4.37-5.486L130.969,150.687z"/>
		</g>
	</g>
	<path fill="#F7D2E1" d="M187.255,228.272c0,0,6.29,1.098,6.81,1.48c0.521,0.384-1.781,4.934-1.888,7.497
		c-0.107,2.565,2.219,6.283,1.946,7.138c-0.273,0.853-7.163,1.058-7.636,0.58c-0.473-0.477-2.44-6.473-1.757-10.175
		C185.413,231.092,187.255,228.272,187.255,228.272z"/>
	<path fill="#AF487C" d="M165.237,223.87l5.006,0.023c0,0,5.116,3.063,11.213,15.136c6.096,12.072,8.565,22.489,8.565,22.489
		s-3.63,4.116-13.032,8.228c-9.402,4.115-17.317,5.052-17.317,5.052l-17.984-38.419l-0.028-2.482l4.767-2.989
		c0,0,10.271,4.229,16.18,0.314C168.517,227.306,165.237,223.87,165.237,223.87z"/>
	<path fill="#F7D2E1" d="M149.957,229.049c0,0,3.221,2.185,6.736,2.375c3.515,0.191,7.232-2.215,7.5-3.805
		c0.269-1.591-0.72-3.639-0.72-3.639s4.47-0.834,6.025,1.976c1.555,2.812-0.12,5.417-2.142,6c-2.022,0.586-4.748-0.734-4.748-0.734
		s0.712,5.301-6.746,4.981c-7.457-0.32-9.881-5.059-9.881-5.059L149.957,229.049z"/>
	<path fill="#C67D9E" d="M144.614,263.611c0,0-6.257-12.572-7.231-17.708c-0.974-5.137,2.999-11.341,4.999-12.233
		c1.999-0.895,6.878,2.169,11.209,10.551c4.332,8.381,5.773,15.184,5.773,15.184L144.614,263.611z"/>
	<path fill="#EDC6AB" d="M158.994,261.62c0,0,4.501,8.137,6.269,12.476c1.769,4.344,7.932,24.637,9.139,26.224
		c1.208,1.588,5.014,5.107,5.505,6.605c0.491,1.497,1.031,4.011,1.611,4.908c0.58,0.895,0.831,2.531-0.681,2.283
		s-2.051-2.589-3.335-3.885c-1.283-1.295-3.488-0.343-3.614,0.67c-0.125,1.014-1.065,4.891-1.646,7.828
		c-0.581,2.937-1.246,5.444-2.585,5.025c-1.339-0.42-1.185-7.795-1.185-7.795s0.006,6.294-0.305,6.396
		c-0.31,0.102-1.689,0.953-2.228-1.56c-0.539-2.512-0.673-3.27-0.673-3.27s0.397,3.476,0.018,3.542
		c-0.378,0.067-1.445,0.131-2.071-1.951c-0.626-2.084-0.833-2.532-0.833-2.532s-0.913-0.159-1-3.048
		c-0.088-2.89,3.33-9.562,2.262-12.644c-1.069-3.084-8.227-16.526-11.514-23.23c-3.288-6.703-5.554-10.996-5.554-10.996
		L158.994,261.62z"/>
	<path fill="#F7D2E1" d="M141.078,263.427c0,0,4.09,5.653,5.175,5.182c1.085-0.473,10.265-3.281,11.947-4.316
		c1.685-1.036,2.499-0.82,2.764-1.698c0.265-0.877-1.68-6.563-2.108-6.423c-0.428,0.14-4.351,0.953-10.063,3.302
		C143.081,261.822,141.078,263.427,141.078,263.427z"/>
	<circle fill="#F7D2E1" cx="165.525" cy="235.691" r="1.792"/>
	<circle fill="#F7D2E1" cx="168.688" cy="241.295" r="1.792"/>
</g>
<g transform="translate(120.6 -466.21)">
	<path fill="#A3BA9D" stroke="#696C51" stroke-width="0.5701" d="M62.019,614.756l9.792,0.013l-4.688,173.239l-6.958,2.252
		l1.854-175.507V614.756z"/>
	<path fill="#A3BA9D" stroke="#696C51" stroke-width="0.5701" d="M71.471,615.189l13.046,0.576l-3.914,170.379l-13.481,2.016
		l4.349-172.966V615.189z"/>
	<path fill="#A3BA9D" stroke="#696C51" stroke-width="0.5701" d="M84.953,615.765l13.046-0.576l-3.915,168.362l-13.481,2.302
		L84.953,615.765L84.953,615.765z"/>
	<path fill="#A3BA9D" stroke="#696C51" stroke-width="0.5701" d="M98.868,615.474h13.046l-3.914,166.061l-13.481,1.728
		L98.868,615.474L98.868,615.474z"/>
	<path fill="#A3BA9D" stroke="#696C51" stroke-width="0.5701" d="M111.263,617.776l13.481-0.575l-3.479,163.467l-14.352,1.15
		L111.263,617.776L111.263,617.776z"/>
	<path fill="#A3BA9D" stroke="#696C51" stroke-width="0.5701" d="M124.744,617.491l13.046-0.288l-3.914,161.166l-13.481,1.438
		L124.744,617.491L124.744,617.491z"/>
	<path fill="#A3BA9D" stroke="#696C51" stroke-width="0.5701" d="M138.225,616.916l13.481,0.863l-4.35,158.002l-13.48,2.303
		l4.349-161.165V616.916z"/>
	<path fill="#A3BA9D" stroke="#696C51" stroke-width="0.5701" d="M151.816,617.776l8.263,0.576l-3.914,155.985l-8.698,1.151
		L151.816,617.776L151.816,617.776z"/>
	<path fill="#A3BA9D" stroke="#696C51" stroke-width="0.5701" d="M160.513,618.067l10.003,0.576l-3.48,154.259l-10.437,1.727
		L160.513,618.067L160.513,618.067z"/>
	<g transform="translate(6.7606)">
		<path fill="#71582F" d="M173.907,604.745l-3.075,1.628l-1.23,5.494l0.217,159.286l12.391,2.047l4.92-166.008l-2.768-2.849
			l-10.456,0.407L173.907,604.745z"/>
		<path fill="none" stroke="#B8A59F" stroke-width="0.5701" d="M182.21,772.434l4.85-165.792l6.529,0.749 M171.14,606.577
			l16.046,0.377l-1.901-2.006"/>
		<path fill="#A6A593" d="M184.955,604.397l4.784,0.288l4.131,2.302l-3.261,163.24l-8.263,2.784l4.131-166.453l-1.522-2.158V604.397
			z"/>
	</g>
	<path fill="#A3BA9D" stroke="#696C51" stroke-width="0.5701" d="M170.515,619.069l9.094,0.288l1.171,151.672l-12.477,1.727
		l2.212-153.683V619.069z"/>
	<path fill="#BFC2B8" d="M59.525,606.124l124.151,6.332l2.609,8.059l-125.545-4.33l-1.209-10.06L59.525,606.124z"/>
	<g transform="matrix(1 0 0 1.1709 -153.13 -91.217)">
		<path fill="#71582F" d="M196.129,589.929l-3.075,1.628l-1.23,5.495l-0.615,158.732l13.223,1.221l4.92-164.635l-2.768-2.849
			L196.129,589.929L196.129,589.929z"/>
		<path fill="none" stroke="#B8A59F" stroke-width="0.5701" d="M204.432,757.619l4.85-165.792l6.528,0.749 M193.363,591.762
			l16.046,0.378l-1.9-2.006"/>
		<path fill="#A6A593" d="M207.177,589.582l4.783,0.289l4.131,2.302l-3.262,161.313l-8.262,3.885l4.131-165.627l-1.522-2.159
			L207.177,589.582z"/>
	</g>
</g>
</svg>
