<svg xmlns="http://www.w3.org/2000/svg" viewBox="0 0 768 430"><style>.a{fill:#F4D9B4;}.b{fill:#FCECCB;}.c{fill:#F8D387;}.d{fill:#0F0F0F;}.e{fill:#191919;}.f{fill:#F53800;}.g{fill:#F84F03;}.h{fill:#F86903;}.i{fill:#BA2402;}.j{fill:#B53535;}.k{fill:#E2E0E0;}.l{fill:#FFF;}.m{fill:#1F4DFF;}.n{fill:#1F7AFF;}.o{fill:#1F17B0;}</style><path d="M238.3 264.9c0 0-46 48.1-51.5 17.7 -8-0.4-11.4 1.2-11.4-11.6 -7.6 1.5-11-1-6.3-13.7 -6.3 0.8-10.5-4.7-4.2-13.1 -8.6-4.4-5.9-9.6-0.4-15.8 -9.1-7.5 0.8-13.2 4.2-13.7 -4.6-4.7-1.3-15.9 6.3-16.2 -1.5-7.5 6.3-12.4 10.1-11.4 3.8 1 32.4 21.6 50.6 21.3C232 222.7 238.3 264.9 238.3 264.9z" class="a"/><path d="M238.3 264.9c0 0-41.8 29.3-44.9 13.1 -8-0.4-12.6 2.3-12.6-10.5 -7.6 1.5-10.8-2.6-9.3-14 -6.3 0.8-12.9-0.8-6.5-9.3 -8.6-4.4-5.9-9.6-0.4-15.8 -9.1-7.5 0.8-13.2 4.2-13.7 -4.6-4.7-1.3-15.9 6.3-16.2 -1.5-7.5 6.3-12.4 10.1-11.4 3.8 1 32.4 21.6 50.6 21.3C232 222.7 238.3 264.9 238.3 264.9z" class="b"/><path d="M196.6 293.1c-5.4 0-8.8-3.4-10.1-10.1 -0.8 0-1.6-0.1-2.3-0.1 -6.4-0.2-9.1-0.7-9.2-11.5 -3.9 0.7-6.3 0.2-7.5-1.6 -1.5-2.1-1.2-6 1-12.1 -3 0.2-5.4-1-6.5-3.2 -0.8-1.6-1.5-5 2.3-10.2 -3.1-1.7-4.8-3.5-5.2-5.7 -0.6-3.3 1.9-6.9 4.8-10.2 -2.9-2.6-4.1-5.1-3.3-7.7 0.9-3.3 4.9-5.6 7.4-6.3 -1.9-2.5-2.3-6.4-0.9-10 1.4-3.6 4.2-6 7.5-6.3 -0.5-3.5 0.9-6.1 2.2-7.7 1.9-2.3 4.9-3.9 7.4-3.9 0.4 0 0.8 0 1.2 0.1 1 0.3 3.4 1.7 7.1 3.9 10.3 6.1 29.6 17.5 43.1 17.5l0.9 0 -0.1 0.5c-3.7 14 2.5 55.9 2.5 56.3l0 0.2 -0.1 0.2C237.5 266.3 211.7 293.1 196.6 293.1zM175.8 270.5v0.5c0 10.9 2.3 11 8.3 11.1 0.8 0 1.7 0 2.7 0.1l0.3 0 0.1 0.3c1.2 6.5 4.2 9.7 9.3 9.7 14.2 0 39.2-25.3 41.3-27.5 -0.5-3.5-6-41.6-2.6-55.9 -13.7-0.1-33-11.5-43.3-17.6 -3.3-2-6-3.5-6.9-3.8 -0.3-0.1-0.6-0.1-1-0.1 -2.2 0-5 1.5-6.7 3.6 -1.2 1.5-2.6 4-1.9 7.4l0.1 0.5 -0.5 0c-3.1 0.1-5.8 2.3-7.2 5.8 -1.4 3.6-1 7.5 1.2 9.7l0.6 0.6 -0.8 0.1c-2 0.3-6.5 2.6-7.4 5.8 -0.7 2.3 0.5 4.7 3.4 7.1l0.3 0.3 -0.3 0.3c-2.9 3.3-5.5 6.7-4.9 9.8 0.4 2 2.1 3.7 5.2 5.3l0.4 0.2 -0.3 0.4c-2.8 3.8-3.7 7.3-2.5 9.8 0.9 1.8 2.8 2.8 5.2 2.8 0.4 0 0.8 0 1.2-0.1l0.7-0.1 -0.2 0.7c-2.2 6.1-2.7 10.1-1.3 12 1.1 1.5 3.3 1.9 7.2 1.1L175.8 270.5z" class="c"/><path d="M238.3 264.9c0 0-6.3-42.2-2.5-56.5 -13.4 0.2-32.6-11-43.2-17.2 -14.1 1.5-9.7 10.5-8.5 12.1 -12.4-1.7-9.5 12.4-5.5 13.8 -8.3 1.3-8.3 10.4-2.5 13.2 -9.7 4.9-5.7 15.8 1.5 17.2 -7.6 3.6-3.2 12.8 3.2 13.7 -5.3 11.5 4.8 13.5 8.2 12.4 -0.6 6.5 5.1 10.1 8.7 9.1 0.1 4.5 2.1 7.3 4.5 9.1C217.4 286.8 238.3 264.9 238.3 264.9z" class="d"/><path d="M238.3 264.9c0 0-6.3-42.2-2.5-56.5 -13.4 0.2-32.6-11-43.2-17.2 -14.1 1.5-9.7 10.5-8.5 12.1 -12.4-1.7-9.5 12.4-5.5 13.8 -8.3 1.3-8.3 10.4-2.5 13.2 -9.7 4.9-5.7 15.8 1.5 17.2 -7.6 3.6 1.3 9.4 7.7 10.3 -5.3 11.5 2.8 13.7 6.2 12.6 -0.6 6.5 7.5 10.1 11.1 9.1 6.3 1.6 3.5 1.2 5.9 2.9C223.6 277.5 238.3 264.9 238.3 264.9z" class="e"/><path d="M202 292.2l-0.2-0.1c-2.9-2.2-4.5-5.2-4.7-8.9 -0.3 0.1-0.6 0.1-0.9 0.1 -2 0-4-1-5.5-2.6 -1.6-1.7-2.4-4-2.3-6.5 -2.5 0.5-6.6-0.3-8.6-3.3 -1.5-2.3-1.4-5.5 0.3-9.3 -3.4-0.7-6.4-3.8-6.9-7.2 -0.4-2.7 0.7-5.1 3.2-6.6 -3.3-1.1-5.9-4.2-6.4-7.8 -0.5-3.9 1.3-7.3 5.2-9.5 -2.5-1.5-3.9-4.4-3.5-7.3 0.4-3 2.6-5.1 5.8-6 -1.9-1.6-3.2-5.4-2.6-8.6 0.4-2.1 1.8-5.6 7.3-5.6 0.4 0 0.7 0 1.1 0.1 -0.8-1.5-1.8-4.3-0.7-6.9 1.2-2.8 4.6-4.5 10-5.1l0.1 0 0.1 0.1c10.2 6 29.1 17.2 42.6 17.2h0l0.9 0 -0.1 0.5c-3.7 14 2.5 55.9 2.5 56.3l0 0.2 -0.1 0.2c-0.2 0.2-21.2 22-36.4 26.9L202 292.2zM198 282.1l0 0.6c0.1 3.6 1.5 6.5 4.2 8.6 14.4-4.8 33.8-24.6 35.7-26.5 -0.5-3.5-6-41.6-2.6-55.9 -13.7-0.1-32.5-11.2-42.7-17.2 -5 0.6-8.1 2.1-9.2 4.6 -1.2 2.7 0.4 5.9 1.1 6.8l0.6 0.8 -1-0.1c-0.7-0.1-1.3-0.1-1.9-0.1 -4.9 0-6.1 3.1-6.5 4.9 -0.6 3.6 1.2 7.6 3.1 8.3l1.6 0.6 -1.6 0.3c-3.4 0.6-5.7 2.6-6.2 5.5 -0.4 2.8 1.1 5.6 3.7 6.9l0.8 0.4 -0.8 0.4c-4 2-6 5.3-5.4 9 0.5 3.6 3.4 6.7 6.8 7.4l1.3 0.2 -1.2 0.6c-3.8 1.8-3.9 4.7-3.7 6.3 0.5 3.3 3.5 6.2 6.7 6.6l0.6 0.1 -0.2 0.5c-1.7 3.8-1.9 6.8-0.5 9 1.5 2.3 4.4 3.1 6.5 3.1 0.7 0 1.3-0.1 1.7-0.2l0.6-0.2 -0.1 0.6c-0.2 2.5 0.5 4.8 2 6.4 1.3 1.5 3.2 2.4 4.9 2.4 0.4 0 0.8-0.1 1.2-0.2L198 282.1z"/><path d="M238.3 264.9c0 0-6.3-42.2-2.5-56.5 -10.8 0.1-25.2-7-36-13.1 -4 0.9-8.3 3.2-6.2 9.2 -5.5 1.9-10.1 6.8-5.1 14.2 -4.6 3.2-9 8.1-2.2 13.7 -2 3.3-11.3 10-0.4 17.2 -1.7 3.8-2.7 10.2 6.1 11.5 -2.7 5.1-1.9 13.1 8.2 12.4 -2.2 4.2 2.4 13.4 9.8 14.4C223.8 280 238.3 264.9 238.3 264.9z" class="f"/><path d="M190.6 212.2c-3.4 2.5 4.2 6.7 2.5 11 -0.8 3.4-5.9 8.4-2.5 12.7 4.6 6.1-2.5 9.3-0.8 13.5 0.8 0.8 2.5 2.5 3.4 3.4 2.5 3.4-1.7 7.6 1.7 10.1 5.9 2.5 5.9 6.7 9.3 11 1.7 1.7 4.5 4.5 7.1 3.7 7.6-6.1 17.5-11.7 27.1-12.6 -1.2-8.4-5.8-44-2.5-56.5 -10.8 0.1-25.2-7-36-13.1 -0.5 0.1-1.6 0.7-1.6 0.8C191.2 197 202.4 204.9 190.6 212.2z" class="g"/><path d="M195 212.6c-3.4 2.5 4.6 6.6 2.9 10.8 -0.8 3.4-6.2 8-2.9 12.2 4.6 6.1-2.8 9.3-1.1 13.5 0.8 0.8 1.5 1.4 2.4 2.3 2.5 3.4 0.2 5.6 3.5 8.1 5.9 2.5 2.6 6.3 6 10.5 1.7 1.7 3.5 3.9 6.1 3.1 7.6-6.1 16.8-7.3 26.4-8.1 -1.2-8.4-5.8-44-2.5-56.5 -10.8 0.1-25.2-7-36-13.1 -0.5 0.1-1.6 0.7-1.6 0.8C191.2 197 206.9 205.3 195 212.6z" class="h"/><path d="M210.2 288.4l-0.1 0c-3.8-0.5-7.3-3.1-9.3-7.1 -1.4-2.6-1.8-5.4-1.1-7.3 -5 0.1-7.3-1.9-8.3-3.6 -1.4-2.4-1.4-5.9 0.1-8.9 -3.1-0.5-5.2-1.8-6.3-3.7 -1.5-2.7-0.6-6 0.3-7.9 -3.1-2.1-4.7-4.3-5.1-6.7 -0.5-3.5 2.1-6.6 4-8.9 0.5-0.6 1-1.2 1.4-1.7 -2.4-2-3.5-4.2-3.4-6.3 0.1-2.5 2-5.1 5.5-7.6 -1.9-2.9-2.5-5.7-1.7-8.2 0.9-2.6 3.3-4.8 6.8-6.1 -0.7-2.1-0.6-4 0.3-5.5 1-1.9 3.2-3.2 6.4-3.9l0.2 0 0.1 0.1c15.5 8.8 27.1 13 35.4 13l0.9 0 -0.1 0.5c-3.7 14 2.5 55.9 2.5 56.3l0 0.2 -0.1 0.2c-0.1 0.2-14.7 15.3-28.2 23.1L210.2 288.4zM201 273.1l-0.3 0.7c-0.9 1.7-0.6 4.5 0.8 7.2 1.9 3.6 5.1 6.1 8.5 6.6 12.7-7.4 26.2-21.2 27.8-22.8 -0.5-3.5-6-41.6-2.6-55.9 -8.4-0.1-20-4.3-35.5-13 -2.9 0.6-4.8 1.8-5.7 3.4 -0.8 1.4-0.8 3.1-0.1 5.2l0.1 0.4 -0.4 0.1c-3.4 1.2-5.8 3.3-6.6 5.8 -0.8 2.3-0.2 4.9 1.8 7.8l0.2 0.4 -0.3 0.2c-3.5 2.4-5.4 4.8-5.5 7.2 -0.1 2 1 3.9 3.4 5.9l0.3 0.2 -0.2 0.3c-0.4 0.6-1 1.3-1.6 2.1 -1.9 2.3-4.3 5.1-3.8 8.3 0.3 2.2 2 4.3 5 6.3l0.3 0.2 -0.1 0.3c-0.8 1.7-1.8 5-0.4 7.5 1 1.8 3.1 2.9 6.2 3.4l0.6 0.1 -0.3 0.5c-1.6 2.9-1.7 6.3-0.4 8.6 1.3 2.1 3.7 3.2 7.1 3.2 0.3 0 0.7 0 1.1 0L201 273.1z" class="i"/><path d="M233.1 218.4c-16.9 0-34.1-11.6-34.1-11.6 0.2 0.1 18.5 11.4 35.6 10.8l0 0.8C234.1 218.4 233.6 218.4 233.1 218.4z" class="i"/><path d="M225.6 228.2c-17 0-31.7-7.7-31.7-7.7 0.2 0.1 20.5 9.4 40.6 6.1l0.1 0.8C231.7 228 228.6 228.2 225.6 228.2z" class="i"/><path d="M225.3 237.4c-15.9 0-32.9-3.8-32.9-3.8 0.3 0 25.1 4.3 42.7 2.5l0.1 0.8C232.1 237.3 228.7 237.4 225.3 237.4z" class="i"/><path d="M192.3 249.1c0 0 27.3-3.1 43.4-5.2l0.1 0.8C219.7 246.8 192.6 249.1 192.3 249.1z" class="i"/><path d="M197.9 260c0 0 17.6-6.2 38.9-6.6l0 0.8C215.7 254.7 198.1 260 197.9 260z" class="i"/><path d="M205.8 271.3c0 0 14.2-12 31.6-12.9l0 0.8C220.3 260.2 206 271.2 205.8 271.3z" class="i"/><path d="M207.4 281.6c0 0 8.5-12.7 30.8-17.1l0.2 0.8C216.4 269.7 207.5 281.5 207.4 281.6z" class="i"/><path d="M349.7 327.8c0 0-33.5 39.1-10.3 39.9 0.8 3.3 3.2 10.7 16.7 3.5 2.5 3.4 10.1 1.4 12-3.5 3.2 1.4 11.4 0 14.8-9.5 0.4-16.9-1.3-37-1.3-37L349.7 327.8z" class="d"/><path d="M346.5 374.7L346.5 374.7c-5.5 0-6.9-4.5-7.5-6.6 -4-0.2-6.6-1.6-7.7-4.1 -4.5-10.1 17.1-35.4 18-36.5l0.1-0.1 0.1 0 32.3-6.7 0 0.5c0 0.2 1.7 20.3 1.3 37.1l0 0.1c-2.7 7.6-8.5 10.3-12.6 10.3 -0.9 0-1.7-0.1-2.3-0.3 -1.5 3.3-5.4 5.1-8.3 5.1 -1.7 0-3.1-0.6-4-1.6C352.2 373.7 349 374.7 346.5 374.7zM349.9 328.2c-1.6 1.8-21.9 26.2-17.8 35.5 1 2.3 3.4 3.5 7.2 3.6l0.3 0 0.1 0.3c0.7 2.9 2.2 6.3 6.7 6.3 2.5 0 5.6-1 9.3-3l0.3-0.2 0.2 0.3c0.7 1 2 1.5 3.6 1.5 2.8 0 6.5-1.7 7.7-4.9l0.2-0.4 0.4 0.2c0.6 0.3 1.4 0.4 2.4 0.4 3.8 0 9.2-2.5 11.8-9.7 0.4-15.2-1-33.3-1.2-36.4L349.9 328.2z"/><path d="M347.6 357.1c1.7 3.8 2.5 5.1 10.5 0.5 1.5 2 6.1 1.6 9.9-2.4 2.3 2.8 9.2-0.7 14.8-8.2 -0.2-13.5-1.3-25.9-1.3-25.9l-31.9 6.6c0 0-10.3 12-15.6 22.9C335.3 354.7 338.6 359.2 347.6 357.1z" class="f"/><path d="M347.6 349.7c0.8-0.8 2.5 2.5 3.4 3.4 4.2 0.8 9.3-1.7 8.4-6.8 2.5 1.7 5.9 4.2 6.8 1.7 6.1-6.8 2.9-15.7 2.8-24.3l-19.2 4c0 0-9.8 11.5-15.2 22.1 0.6 0.3 1.3 0.5 2.1 0.7C340 351.4 344.2 352.2 347.6 349.7z" class="g"/><path d="M351 361c-2 0-2.8-1.5-3.6-3.4 -1.4 0.3-2.8 0.5-4 0.5h0c-6.1 0-8.6-3.9-9.6-7.3l0-0.2 0.1-0.1c5.2-10.8 15.5-22.9 15.6-23l0.1-0.1 0.1 0 32.3-6.7 0 0.5c0 0.1 1 12.6 1.3 25.9l0 0.1 -0.1 0.1c-4.2 5.6-9.3 9.3-12.9 9.3 -0.9 0-1.7-0.3-2.3-0.8 -2.2 2.2-4.8 3.4-7.1 3.4 -1.2 0-2.2-0.4-2.9-1C354.6 360.1 352.4 361 351 361zM347.8 356.6l0.1 0.3c1 2.2 1.6 3.2 3 3.2 1.3 0 3.5-0.9 6.9-2.8l0.3-0.2 0.2 0.3c0.5 0.6 1.3 1 2.5 1 2.2 0 4.7-1.3 6.8-3.5l0.3-0.3 0.3 0.4c0.4 0.5 1.1 0.8 1.9 0.8 3.2 0 8.2-3.6 12.1-8.8 -0.2-11.8-1.1-22.9-1.2-25.2l-31.2 6.5c-1 1.2-10.4 12.5-15.3 22.6 1.4 4.3 4.3 6.5 8.8 6.5h0c1.3 0 2.6-0.2 4.1-0.5L347.8 356.6z" class="i"/><path d="M508.1 274.8c0 0 37.1 13.1 11.3 27.5 0.6 5.3-4.9 10.9-12.1 8.8 -1.3 6.8-6.8 9.1-10.8 7 -3.2 5.9-15.2 10.3-26.2 1.1 -11-9.3-16.5-16.7-16.5-16.7L508.1 274.8z" class="d"/><path d="M508.1 274.8c0 0 22.6 16.7 7.5 26 0.6 5.3-3.6 10.1-10.8 8.1 -1.3 6.8-4.5 6.8-8.5 4.7 -3.2 5.9-15 14.9-25.9 5.6 -11-9.3-16.5-16.7-16.5-16.7L508.1 274.8z" class="e"/><path d="M483.9 324.9c-4.8 0-9.6-1.9-13.8-5.4 -10.9-9.2-16.5-16.7-16.5-16.7l-0.3-0.4 54.8-28 0.2 0.1c0.8 0.3 19.9 7.1 20.7 16.6 0.3 4-2.7 7.9-9.1 11.5 0.2 2.2-0.7 4.5-2.3 6.3 -2.4 2.7-6.1 3.8-9.9 2.8 -1.2 5.3-4.8 7.6-8 7.6 -1 0-2-0.2-2.9-0.6C494.5 322.3 489.3 324.9 483.9 324.9zM454.5 302.6c1.3 1.7 6.7 8.3 16.1 16.2 4.1 3.4 8.6 5.2 13.2 5.2 6.2 0 10.7-3.2 12.3-6.2l0.2-0.4 0.4 0.2c0.9 0.5 1.8 0.7 2.8 0.7 3 0 6.4-2.3 7.3-7.4l0.1-0.5 0.4 0.1c3.6 1.1 7.2 0.1 9.5-2.5 1.5-1.7 2.3-3.8 2.1-5.9l0-0.3 0.2-0.1c6.2-3.5 9.2-7.1 8.9-10.8 -0.7-8.5-18-15.1-19.9-15.8L454.5 302.6z"/><path d="M491.2 310c6.3 2.7 11.2-1.5 12.7-7 6.3 1.3 9.1-4.6 9.5-8.9 8.5 0.1 9.3-7.1 8.7-12.1 -6-4.5-14-7.3-14-7.3l-54.2 27.7c0 0 5.5 7.4 16.5 16.7 1 0.9 2.1 1.6 3.1 2.3C482.8 320.6 491.1 315.9 491.2 310z" class="f"/><path d="M488 305.2c1.7-5.6 1.4-10.1 5.6-9.2 2.5 0 5.1 4 7.6 2.3 2.5-0.8 1.7-5.1 1.7-8.4 2.5 1.7 5.9 1.7 8.4 0 1.7-0.8 2.5-5.1 0.8-7.6 -2.5-1.9-5.6-3.3-8.7-5l-44.8 22.9C468.3 305.6 483.5 320.1 488 305.2z" class="g"/><path d="M473.3 321.8l-0.1-0.1c-1.1-0.7-2.1-1.4-3.1-2.3 -10.9-9.2-16.5-16.7-16.5-16.7l-0.3-0.4 54.8-28 0.2 0.1c0.1 0 8.1 2.9 14.1 7.4l0.1 0.1 0 0.2c0.3 3.1 0.2 7.4-2.2 10 -1.5 1.7-3.7 2.5-6.6 2.6 -0.5 3.5-2.6 9-8.2 9 -0.4 0-0.9 0-1.4-0.1 -1.4 4.7-5 7.8-9.1 7.8 -1.1 0-2.3-0.2-3.5-0.7 -0.7 5.5-8.4 10.4-18.1 11.1L473.3 321.8zM454.5 302.6c1.3 1.7 6.7 8.3 16.1 16.2 0.9 0.8 1.9 1.5 2.9 2.1 9.5-0.8 17.1-5.6 17.2-10.9l0-0.6 0.6 0.3c1.3 0.5 2.5 0.8 3.7 0.8 3.9 0 7.2-2.9 8.4-7.5l0.1-0.4 0.4 0.1c0.6 0.1 1.1 0.2 1.6 0.2 5.1 0 7.1-5.4 7.4-8.7l0-0.4 0.6 0c2.7 0 4.7-0.8 6.1-2.3 2.2-2.4 2.3-6.3 2-9.2 -5.4-4-12.4-6.6-13.6-7.1L454.5 302.6z" class="i"/><path d="M522.2 262.2c0 0 44.3 72.4 59.5 47.9 7.6 0 11.4-3.4 11.4-9.7 4.6 0.4 16.9-3.8 16.5-14.3 7.6-2.1 15.6-12.2 12.2-23.8 5.5-4.9 5.5-15-1.3-20.5 3-3.8 8-11.8-1.7-18.6 3-5.1 8-16.7-8.9-24.6 0.8-7-3-15.8-14.8-15 -3.4-9.8-11.4-14.4-42.6 9 -20.3 17.5-30.4 30.6-30.4 30.6V262.2z" class="a"/><path d="M522.2 262.2c0 0 42.3 65.2 57.5 40.7 7.6 0 12.3 0 12.3-6.4 4.6 0.4 15.8-3.2 15.4-13.7 7.6-2.1 14.1-10.5 10.8-22.2 5.5-4.9 9.1-13.5 2.3-19 3-3.8 8-11.8-1.7-18.6 3-5.1 8-16.7-8.9-24.6 0.8-7-3-15.8-14.8-15 -3.4-9.8-11.4-14.4-42.6 9 -20.3 17.5-30.4 30.6-30.4 30.6V262.2z" class="b"/><path d="M573.5 315.5L573.5 315.5c-18.9 0-50.3-51-51.7-53.1l-0.1-0.1v-39.3l0.1-0.1c0.1-0.1 10.4-13.3 30.4-30.7 15.3-11.5 26.2-17.1 33.3-17.1 6.3 0 8.7 4.5 9.9 8 0.4 0 0.8 0 1.1 0 4.5 0 8.1 1.5 10.6 4.2 2.4 2.8 3.6 6.8 3.2 11 6.1 2.9 9.9 6.6 11.3 11.1 1.3 4.1 0.5 8.7-2.4 13.7 3.2 2.3 5 4.9 5.4 7.8 0.5 3.3-0.7 6.8-3.7 10.8 3.1 2.7 5 6.6 5.1 10.8 0.1 3.9-1.3 7.5-3.9 9.8 1.4 5.1 0.8 10.4-1.8 15 -2.4 4.3-6.4 7.7-10.5 9 0.1 3.4-1.1 6.4-3.6 8.9 -3.9 4.1-9.7 5.6-12.6 5.6 -0.1 0-0.2 0-0.3 0 -0.2 6.3-4.2 9.6-11.6 9.7C579.8 313.8 577 315.5 573.5 315.5zM522.7 262c1.6 2.6 32.8 52.6 50.9 52.6l0 0c3.2 0 5.8-1.6 7.8-4.9l0.1-0.2h0.2c7.3 0 11-3.1 11-9.3v-0.5l0.5 0c0.2 0 0.4 0 0.6 0 3.4 0 8.7-1.9 12-5.3 2.3-2.4 3.5-5.3 3.3-8.6l0-0.3 0.3-0.1c4-1.1 7.9-4.4 10.3-8.7 2.5-4.5 3.1-9.7 1.7-14.6l-0.1-0.3 0.2-0.2c2.5-2.2 3.9-5.6 3.8-9.4 -0.1-4.1-1.9-7.9-5.1-10.4l-0.3-0.3 0.3-0.3c3-3.9 4.3-7.3 3.8-10.5 -0.4-2.8-2.2-5.3-5.4-7.5l-0.3-0.2 0.2-0.3c2.9-4.9 3.7-9.4 2.5-13.3 -1.3-4.3-5.1-7.8-11.1-10.7l-0.3-0.1 0-0.3c0.5-4-0.6-8-3-10.6 -2.3-2.6-5.7-3.9-9.9-3.9 -0.5 0-0.9 0-1.4 0l-0.3 0 -0.1-0.3c-1.8-5.3-4.7-7.7-9.2-7.7 -6.8 0-17.5 5.5-32.7 16.9 -19 16.4-29.2 29.1-30.2 30.4V262z" class="c"/><path d="M579.6 303.3c6.3 2.1 8.4-4.6 8.9-10.6 6.8 1.6 14.8-5.4 12.7-11.3 10.5-5.9 7.6-14.3 5.1-19.2 8-5.3 4.2-14.1 1-15.7 6.5-10 3.2-17-2.3-20 5.9-11.8-0.8-16.9-6.3-19.4 2.9-13.5-5.5-16-12.2-16.1 4.4-8-5.2-10.4-14.7-10.9 -5.1 2.7-11.4 6.7-19 12.5 -20.3 17.5-30.4 30.6-30.4 30.6v39c0 0 21.9 35.7 40.1 48.5C570.1 310.8 577.4 308.3 579.6 303.3z" class="d"/><path d="M577.9 298.1c6.3 2.1 9.3-2.8 9.8-8.8 6.8 1.6 13-3.6 10.9-9.5 10.6-5.9 10.1-12.8 7.6-17.6 8-5.3 4.2-14.1 1-15.7 6.5-10 3.2-17-2.3-20 5.9-11.8-0.8-16.9-6.3-19.4 2.9-13.5-5.5-16-12.2-16.1 4.4-8-5.2-10.4-14.7-10.9 -5.1 2.7-11.4 6.7-19 12.5 -20.3 17.5-30.4 30.6-30.4 30.6v39c0 0 21.4 28.6 39.7 41.3C569.6 303.7 575.7 303.1 577.9 298.1z" class="e"/><path d="M563.3 311.1L563.3 311.1c-0.3 0-0.6 0-0.9 0l-0.1 0 -0.1-0.1c-18.1-12.7-40-48.2-40.2-48.6l-0.1-0.1v-39.3l0.1-0.1c0.1-0.1 10.4-13.3 30.4-30.7 7.3-5.5 13.8-9.7 19.1-12.5l0.1-0.1 0.1 0c8.7 0.5 14 2.3 15.7 5.4 0.9 1.6 0.8 3.4-0.3 5.6 4.8 0.2 8.3 1.6 10.4 4.2 2.2 2.8 2.7 6.8 1.7 12.1 4.2 2 6.9 4.5 8 7.7 1.2 3.3 0.6 7.3-1.6 11.8 2.7 1.6 4.6 4 5.4 7 1 3.8-0.1 8.3-3.1 13 1.7 1.1 3.4 3.8 3.6 7 0.2 3.5-1.4 6.7-4.6 9 4.2 8.4 2.5 14.8-5.1 19.3 0.6 2.1 0.1 4.4-1.4 6.6 -2.6 3.6-7.4 5.8-11.4 5.1 -0.4 4.3-1.8 10.9-7 10.9 -0.6 0-1.3-0.1-2-0.3C577.6 308.3 571.3 311.1 563.3 311.1zM562.5 310.2c0.3 0 0.5 0 0.8 0 7.9 0 14-2.7 15.9-7.1l0.2-0.3 0.4 0.1c0.7 0.2 1.4 0.4 2.1 0.4 4.9 0 6-7.4 6.2-10.6l0-0.5 0.5 0.1c0.6 0.1 1.3 0.2 1.9 0.2 3.4 0 7-2 9-4.9 1.4-2 1.9-4.2 1.2-6.1l-0.1-0.3 0.3-0.2c7.6-4.3 9.2-10.4 4.9-18.6l-0.2-0.3 0.3-0.2c4.1-2.7 4.7-6 4.6-8.4 -0.2-3.1-2-5.8-3.5-6.5l-0.4-0.2 0.3-0.4c3-4.6 4.1-9.1 3.2-12.8 -0.7-2.8-2.6-5.2-5.3-6.6l-0.4-0.2 0.2-0.4c2.2-4.5 2.8-8.3 1.7-11.5 -1.1-3-3.6-5.4-7.8-7.4l-0.3-0.1 0.1-0.3c1.1-5.2 0.6-9.1-1.4-11.7 -2-2.5-5.5-3.8-10.4-3.9l-0.7 0 0.3-0.6c1.2-2.1 1.4-3.9 0.6-5.4 -1.5-2.7-6.6-4.4-14.9-4.9 -5.3 2.8-11.6 7-18.9 12.4 -19 16.4-29.2 29.1-30.2 30.4v38.8C524 264.1 545 297.9 562.5 310.2z"/><path d="M574 295.6c4.9 0.7 10.7-2.4 10.7-9.6 11-2.5 8-11 5.1-15 12.7-7.8 8-15 3.8-19.2 8.9-8.4 3.4-17.7-2.5-17.8 12.2-16.1 1.3-20.6-3.4-21.6 3.8-10.7-4.6-15.4-11.4-13.9 -0.8-10.3-9.9-11.5-16.9-10.8 -2.1 1.5-4.3 3.1-6.7 4.8 -20.3 17.5-30.4 30.6-30.4 30.6v39c0 0 16.9 27.6 33.4 43C568.7 305.7 572 301 574 295.6z" class="f"/><path d="M528.5 263.6c10.1 5.9 32.8 34.6 35.1 16.1 13.3 0.1 13.5-11.5 8.4-15.8 14.1 4.3 15.4-8.2 11.2-13.3 12.6-2.1 8.9-18.8-0.2-18.2 15.6-7.8 6.9-19.5 4.6-20 3.8-10.7-4.6-15.4-11.4-13.9 -0.8-10.3-9.9-11.5-16.9-10.8 -2.1 1.5-4.3 3.1-6.7 4.8 -20.3 17.5-30.4 30.6-30.4 30.6s0.1 39.3 0.4 39.7C525 262.4 526.1 262.4 528.5 263.6z" class="g"/><path d="M576 198.6c-0.2 0-0.4 0-0.6 0.1C575.7 198.7 575.9 198.6 576 198.6z" class="h"/><path d="M561.7 270.6c4.9-4 1.1-9.1-1.5-10.8 3.4 0 8.2 0.2 10.8-3.1 2.1-4.7-0.4-4.6-3.2-6.1 3.4 0 8.9-3.1 10.6-6.5 1.7-5.1-1.3-7.5-6.4-10 9.2-1.4 18.3-7.5 9.3-20.3 0-2.5 5.4-9.8 3.7-13.2 -1.6-2.4-5.1-2.5-9-2.1 -0.1 0.1-0.2 0 0 0 0.1 0 0.2-0.1 0.2-0.1 -0.8-10.2-9.9-11.4-16.9-10.7 -2.1 1.5-4.3 3.1-6.7 4.8 -20.3 17.5-24.9 37.6-24.9 37.6s-5.4 13.6-5.2 25.1c0.5 0.2 1 0.5 1.5 0.8C539.5 256.7 549 279.9 561.7 270.6z" class="h"/><path d="M557.7 305.6L557.7 305.6c-0.7 0-1.3 0-2.1 0l-0.2 0 -0.1-0.1c-16.4-15.2-33.3-42.8-33.5-43l-0.1-0.1v-39.3l0.1-0.1c0.1-0.1 10.4-13.3 30.4-30.7 2.3-1.7 4.5-3.3 6.7-4.9l0.1-0.1 0.1 0c1.1-0.1 2.1-0.2 3.1-0.2 8.6 0 13.5 3.8 14.2 10.9 0.7-0.1 1.4-0.2 2.2-0.2 3.5 0 6.7 1.5 8.5 4.1 1.3 1.9 2.5 5.1 0.8 10.2 2.3 0.6 6.8 2.2 8.3 6.4 1.4 3.9-0.1 9.1-4.7 15.2 2.6 0.4 5 2.4 6.1 5.2 1.6 4.1 0.2 8.9-3.8 12.9 3.2 3.3 4.6 6.4 4.2 9.4 -0.4 3.5-3.1 6.8-8 9.9 1.9 2.7 3.3 6.6 2.1 9.8 -1 2.6-3.4 4.4-7.3 5.4 -0.2 6.9-5.8 10.3-10.8 9.7C572.5 300.7 569.5 305.6 557.7 305.6zM555.8 304.7c13 0.5 15.9-4.3 17.8-9.3l0.1-0.3 0.3 0.1c4.6 0.7 10.2-2.1 10.2-9.2v-0.3l0.3-0.1c3.8-0.9 6.2-2.5 7.1-4.9 1.2-3.1-0.4-6.9-2.2-9.4l-0.3-0.4 0.4-0.2c4.9-3 7.6-6.2 8-9.5 0.3-2.9-1.1-5.8-4.3-9l-0.3-0.3 0.3-0.3c5.8-5.5 4.7-10.4 3.9-12.3 -1.1-2.8-3.6-4.7-6.2-4.7l-0.8 0 0.5-0.7c4.7-6.2 6.4-11.3 5-15.1 -1.5-4.1-6.2-5.5-8.2-5.9l-0.5-0.1 0.2-0.5c1.4-3.9 1.2-7.4-0.6-9.9 -1.6-2.3-4.6-3.7-7.9-3.7 -0.8 0-1.7 0.1-2.5 0.3l-0.5 0.1 0-0.5c-0.5-7-5-10.6-13.4-10.6 -0.9 0-1.9 0-2.9 0.1 -2.2 1.5-4.4 3.1-6.6 4.8 -19 16.4-29.2 29.1-30.2 30.4v38.8C523.8 263.9 540.1 290 555.8 304.7z" class="i"/><path d="M564.3 250.4c-23.8-2.3-42-8.4-42.2-8.5l0.3-0.8c0.3 0.1 33 10.7 67.8 9.5C590.2 250.6 574 251.3 564.3 250.4z" class="i"/><path d="M522.4 228.8l-0.4-0.7c1-0.6 15.7-8.5 29.3-15.7 9.9-5.2 22.8-10.4 22.8-10.4C566.5 204.9 522.9 228.5 522.4 228.8z" class="i"/><path d="M522.4 234.5l-0.3-0.8c1.2-0.5 18-7.3 33.6-13.1 21-8.2 26.5-7.3 26.5-7.3 0 0-0.1 0-0.1 0C574.4 213.3 522.9 234.2 522.4 234.5z" class="i"/><path d="M524.8 237.5c-1.6 0-2.5 0-2.6 0l0-0.8c0.4 0 39.1 0.5 65.3-5.6 0 0-11.2 3.4-26.3 4.8C545.5 237.3 530.6 237.5 524.8 237.5z" class="i"/><path d="M562.7 261.5c-22-6.8-40.4-16.7-40.6-16.8l0.4-0.7c0.3 0.2 34.5 18.5 65.3 22.3C587.7 266.2 575.4 265.4 562.7 261.5z" class="i"/><path d="M558.5 276.6c-17.4-10.5-36.3-25-36.5-25.2l0.5-0.7c0.4 0.3 38.9 29.9 56.4 34.9C578.9 285.6 568.1 282.8 558.5 276.6z" class="i"/><path d="M551.3 283.4c-15.3-11.8-29.1-26.2-29.3-26.4l0.6-0.6c0.2 0.3 24.4 25.5 44.3 36.3C566.8 292.8 556.3 287.3 551.3 283.4z" class="i"/><path d="M434.5 140.9c0 0 21.5-6.7 19.4 0 8.4-2.5 15.6 0 12.7 5.9 5.1-1.7 15.6-0.8 10.6 5.5 7.2-0.4 16 3.8 14.1 10.1 7.4 2.5 10.4 5.1 7.8 9.3 5.9 2.5 10.3 7.2 5.8 12.2 6 4.2 4.5 7.4 1.9 11.5 4.6 3.7 5.2 11.2-1.9 17.1C493.1 208.8 447.6 158.6 434.5 140.9z" class="e"/><path d="M434.5 140.9c0 0 21.4-5.2 19.3 1.6 8.4-2.5 15.2 1.6 12.2 7.5 5.1-1.7 13.4-1.8 8.4 4.5 7.2-0.4 15.8 3.8 13.9 10.1 7.4 2.5 11.6 4.2 9.1 8.4 5.9 2.5 8.7 7.4 4.2 12.5 6 4.2 4.3 5.2 1.7 9.4 4.6 3.7 8.6 11.6 1.6 17.6C493.1 208.8 447.6 158.6 434.5 140.9z" class="d"/><path d="M504.9 213l-0.2-0.1c-11.9-3.8-57.1-53.7-70.5-71.8l-0.4-0.5 0.6-0.2c0.4-0.1 9.7-3 15.4-3 2.2 0 3.6 0.4 4.3 1.3 0.3 0.4 0.4 0.9 0.4 1.5 1.9-0.5 3.9-0.8 5.6-0.8 3.4 0 5.9 1 7 2.7 0.5 0.8 0.9 2.1 0.2 3.9 1.3-0.3 2.9-0.5 4.4-0.5 1.7 0 5.8 0.2 6.9 2.5 0.5 1 0.3 2.3-0.7 3.7 5.1-0.1 10.3 2.1 12.6 5.1 1.2 1.6 1.6 3.4 1.2 5.2 5.1 1.8 7.7 3.4 8.4 5.5 0.4 1.2 0.3 2.4-0.5 3.8 4.1 1.8 6.8 4.4 7.4 7.1 0.4 1.8-0.1 3.6-1.5 5.3 5.6 4.1 4.3 7.4 1.8 11.5 2.1 1.8 3.3 4.4 3.3 7.2 0 3.7-1.9 7.3-5.5 10.4L504.9 213zM435.2 141.1c13.3 17.8 57.7 66.8 69.5 71 3.3-2.8 5-6.2 5-9.5 0-2.7-1.2-5.1-3.3-6.8l-0.3-0.2 0.2-0.3c2.6-4.2 3.9-6.9-1.7-10.9l-0.4-0.3 0.3-0.4c1.5-1.6 2-3.3 1.7-4.9 -0.5-2.5-3.2-4.9-7.3-6.6l-0.4-0.2 0.3-0.4c0.8-1.4 1-2.5 0.6-3.5 -0.7-1.8-3.2-3.4-8.3-5.1l-0.4-0.1 0.1-0.4c0.5-1.7 0.2-3.4-0.9-4.8 -2.1-2.8-6.9-4.8-11.8-4.8 -0.3 0-0.7 0-1 0l-0.9 0.1 0.6-0.7c1.1-1.4 1.5-2.6 1.1-3.5 -0.6-1.3-3-2.1-6.1-2.1 -1.8 0-3.7 0.3-5.1 0.7l-1 0.3 0.5-0.9c0.8-1.6 0.8-2.9 0.2-3.9 -0.9-1.5-3.2-2.3-6.3-2.3 -1.9 0-4 0.3-6.1 1l-0.8 0.2 0.2-0.8c0.2-0.6 0.2-1.1-0.1-1.5 -0.5-0.6-1.7-1-3.6-1C445 138.3 437.4 140.4 435.2 141.1z"/><path d="M501.6 195.4c2.1-3.3 0.4-8.5-3.8-11.5 3-5.9 0-9.3-6.6-12.7 -0.2-5.1-4.4-6.8-9.5-7.2 0.8-5.1-4.2-9.7-10.6-7.4 0.4-4-2.5-6.5-8-6.5 -0.4-4.6-6.8-5.1-9.3-3.4 -2.5-5.4-12-4.9-17.9-4 14.6 19 56.9 65.4 68.6 69.6C507.9 208.6 505.9 199.6 501.6 195.4z" class="g"/><path d="M452.2 151.4c19.4 11.8 30.4 29.5 44.7 45.6 2.8 3.6 5.9 6.9 9.3 9.6 -0.1-3.9-1.9-8.5-4.6-11.2 2.1-3.3 0.4-8.5-3.8-11.5 3-5.9 0-9.3-6.6-12.7 -0.2-5.1-4.4-6.8-9.5-7.2 0.8-5.1-4.2-9.7-10.6-7.4 0.4-4-2.5-6.5-8-6.5 -0.4-4.6-6.8-5.1-9.3-3.4 -1.4-3-4.9-4.1-8.7-4.4C447.3 145.3 449 148.9 452.2 151.4z" class="h"/><path d="M504.7 212.9l-0.3-0.1c-12.1-4.4-54.5-51.2-68.7-69.8l-0.4-0.6 0.7-0.1c2.5-0.4 4.8-0.6 6.9-0.6 5.8 0 9.6 1.5 11.2 4.4 0.9-0.5 2.1-0.7 3.4-0.7 2.6 0 5.6 1.1 6.1 4.3 3 0.1 5.2 0.9 6.6 2.4 1 1 1.4 2.4 1.4 4 3.4-1 6.9-0.1 9 2.3 1.3 1.5 1.9 3.4 1.7 5.3 6 0.6 9.1 3 9.4 7.3 6.1 3.2 9.6 6.6 6.7 12.8 4 3 5.7 8.1 3.8 11.6 4.2 4.3 6.3 13.4 2.8 17.4L504.7 212.9zM436.8 143.1c14.1 18.2 55.6 64 67.7 68.8 2.8-3.6 1.2-12-3.1-16.2l-0.2-0.2 0.2-0.3c2-3.1 0.3-8.1-3.7-10.9l-0.3-0.2 0.2-0.3c2.6-5.1 0.8-8.4-6.4-12.1l-0.2-0.1 0-0.2c-0.2-4.1-3.1-6.3-9.1-6.8l-0.5 0 0.1-0.5c0.3-1.8-0.2-3.7-1.4-5.1 -1.9-2.3-5.3-3-8.6-1.8l-0.6 0.2 0.1-0.7c0.1-1.6-0.3-3-1.2-4 -1.3-1.4-3.5-2.1-6.4-2.1h-0.4l0-0.4c-0.3-2.9-3-3.9-5.3-3.9 -1.3 0-2.5 0.3-3.3 0.8l-0.4 0.3 -0.2-0.4c-1.3-2.8-4.9-4.3-10.6-4.3C441 142.7 439 142.8 436.8 143.1z" class="i"/><path d="M447.6 157l-0.4-0.8c6.8-2.8 13.5-2.8 13.5-2.8C452.3 154.8 447.6 157 447.6 157z" class="i"/><path d="M454.2 164.6l-0.4-0.8c10.7-5.1 18.4-1.5 18.4-1.5C463.1 160.3 454.3 164.6 454.2 164.6z" class="i"/><path d="M463.3 174.8l-0.3-0.8c11.3-3.9 18.7-2.4 18.7-2.4C472.5 171.7 463.4 174.8 463.3 174.8z" class="i"/><path d="M472.5 184.7l-0.1-0.8c10.3-2 18.7 0.8 18.7 0.8C482.5 183.1 472.6 184.7 472.5 184.7z" class="i"/><path d="M329 111.7c0 0 10.1-22.8 26.6-31.6 12.2-6.8 17.3-5.1 16.5 0 8.4-2.5 24.3-4.6 19.9 7.2 7.5-0.8 14.6 3.8 11.7 10.5 6.3 0.4 14.4 8.9 0.7 23.2C385.3 117.6 329 111.7 329 111.7z" class="e"/><path d="M329 111.7c0 0 9.8-19.4 26.3-28.3 12.2-6.7 14.1-3.4 13.3 1.7 8.4-2.5 24.7-4.9 20.3 7 7.5-0.8 13.9 1.5 11 8.2 6.3 0.4 12 9.4 4.5 20.7C385.3 117.6 329 111.7 329 111.7z" class="d"/><path d="M404.5 121.5l-0.2 0c-18.8-3.4-74.8-9.2-75.3-9.3l-0.6-0.1 0.2-0.5c0.1-0.2 10.4-23 26.8-31.8 5.3-2.9 9.7-4.5 12.7-4.5 1.6 0 2.9 0.5 3.6 1.3 0.6 0.7 0.9 1.7 0.8 2.9 2.3-0.7 7-1.8 11.5-1.8 4.1 0 6.9 1 8.2 2.9 1.1 1.5 1.2 3.6 0.3 6.2 0.4 0 0.8 0 1.1 0 4.3 0 8.2 1.7 10 4.5 1.2 1.8 1.4 4 0.6 6.2 2.8 0.4 6 2.3 7.4 5.8 1.1 2.9 1.7 9-7 18.1L404.5 121.5zM329.6 111.4c6 0.6 56.6 5.9 74.6 9.2 8.2-8.6 7.7-14.4 6.7-17 -1.3-3.4-4.6-5.1-7.2-5.3l-0.6 0 0.2-0.5c0.9-2.2 0.8-4.2-0.3-6 -1.6-2.5-5.3-4.1-9.3-4.1 -0.6 0-1.1 0-1.7 0.1l-0.7 0.1 0.2-0.6c1-2.6 0.9-4.6 0-6.1 -1.2-1.7-3.7-2.5-7.5-2.5 -4.8 0-9.9 1.4-11.9 2l-0.6 0.2 0.1-0.7c0.2-1.3 0-2.2-0.5-2.9 -0.6-0.7-1.6-1-3-1 -2.9 0-7.1 1.5-12.3 4.4C341 88.4 331.3 107.9 329.6 111.4z"/><path d="M397.9 105.7c0.4-8.5-11.9-9.9-17-9.5 0.4-8-11.8-8-17.7-4.6 -0.3-7.6-12.1-4.2-20.4-0.8C334 100.5 329 111.7 329 111.7s56.3 5.8 75.4 9.3c1.6-1.7 2.9-3.2 3.9-4.7C406.3 109.2 402.4 106.4 397.9 105.7z" class="g"/><path d="M397.9 105.7c0.4-8.5-11.9-9.9-17-9.5 0.4-8-11.8-8-17.7-4.6 -0.3-7.6-12.1-4.2-20.4-0.8 -2.4 2.7-4.6 5.6-6.4 8.2 25.8-4.6 50.3 4.1 69.8 20.1 0.8-0.9 1.5-1.8 2.1-2.7C406.3 109.2 402.4 106.4 397.9 105.7z" class="h"/><path d="M404.5 121.5l-0.2 0c-18.8-3.4-74.8-9.2-75.3-9.3l-0.6-0.1 0.2-0.5c0.1-0.1 5.1-11.5 13.8-21.2l0.1-0.1 0.1 0c6.2-2.5 11.2-3.8 14.7-3.8 4.6 0 6 2.2 6.2 4.3 2.3-1.2 5.4-1.9 8.4-1.9 3.4 0 6.2 0.9 7.8 2.6 1 1.1 1.6 2.5 1.6 4.1 0.4 0 0.8 0 1.3 0 4.6 0 10.5 1.1 13.6 4.4 1.4 1.5 2.1 3.2 2.1 5.3 5.2 0.9 8.6 4.5 10.4 10.9l0.1 0.2 -0.1 0.2c-1.1 1.6-2.4 3.2-4 4.8L404.5 121.5zM329.6 111.4c6 0.6 56.6 5.9 74.6 9.2 1.4-1.5 2.6-2.9 3.6-4.4 -1.8-6-5-9.4-10-10.1l-0.4-0.1 0-0.4c0.1-2-0.5-3.6-1.9-5 -2.9-3-8.6-4.1-13-4.1 -0.6 0-1.2 0-1.7 0.1l-0.5 0 0-0.5c0.1-1.6-0.4-2.9-1.3-4 -1.4-1.5-4-2.4-7.2-2.4 -3.1 0-6.3 0.8-8.5 2.1l-0.6 0.3 0-0.7c-0.1-2.8-1.9-4.2-5.4-4.2 -3.4 0-8.3 1.3-14.3 3.7C335.5 99.4 330.7 109 329.6 111.4z" class="i"/><path d="M342.8 113.4l-0.7-0.4c9.4-15 18.7-17.3 18.7-17.3C351.7 99 342.9 113.3 342.8 113.4z" class="i"/><path d="M358.5 115.2l-0.7-0.5c9.8-12.3 18.7-16 18.7-16C366.1 105 358.5 115.1 358.5 115.2z" class="i"/><path d="M376.6 117.3l-0.7-0.5c8.5-9.7 17.7-9.7 17.7-9.7C382.9 109.3 376.6 117.2 376.6 117.3z" class="i"/><path d="M319.3 332c0 0-24.5 22.4-55.3-27.4 -28.7-21.5-64.6-62.1-33.3-106.6 13.1-33.1 25.3-56.7 46-66 8.9-8.9 44.3-43.5 127.1-15.9 40.8 12.8 72.1 73.7 108.8 97.3 17.8 11.5 17.3 8.1 17.3 8.1 3.8 9.2 8.9 38.8-5.5 45.1 -11.4 5.5-40.9 38.4-145.6 61.2C348.8 333.3 319.3 332 319.3 332z" class="f"/><path d="M344.3 314.8c0 0-7.2 7-23.8 17.2 -14.3 8.8-37.1 6.2-56.5-27.5 -28.7-21.5-64.6-62.1-33.3-106.6 13.1-33.1 25.3-56.7 46-66 8.9-8.9 44.3-43.5 127.1-15.9 40.8 12.8 72.1 73.7 108.8 97.3 17.8 11.5 17.3 8.1 17.3 8.1 3.8 9.2 8.4 47.1-28.3 48.5 -82 0.4-50.3 26-119.6 51.1C361.9 333 344.3 314.8 344.3 314.8z" class="g"/><path d="M357 303.3c0 0-59.8 67.2-95.3-7.3 -28.7-21.5-62.3-53.5-31.1-98 13.1-33.1 25.3-56.7 46-66 8.9-8.9 44.3-43.5 127.1-15.9 40.8 12.8 72.1 73.7 108.8 97.3 17.8 11.5 17.3 8.1 17.3 8.1 3.8 9.2 5.6 37.2-31 38.5 -82 0.4-50.7 35.3-120 60.5C363.5 324.5 357 303.3 357 303.3z" class="h"/><path d="M529.8 221.5c0 0 0.5 3.4-17.3-8.1 -2.4-1.5-4.7-3.2-7-5 3.5 12.2 8.8 39.5-0.7 71.4 9.9-6.5 15.7-11.4 19.5-13.2C538.7 260.3 533.6 230.7 529.8 221.5z"/><path d="M526 221.1c-2.5-1.1-6.6-3.3-13.4-7.7 -0.3-0.2-0.6-0.4-0.9-0.6 3.6 12.1 8.4 36 0.5 61.9 5.6-3.9 9.4-6.8 12.1-8.2C527.8 257.8 531 242.6 526 221.1z" class="a"/><path d="M462.5 163.9c-16.7-19-33.7-37.3-52.8-45.5 20.2 15.9 37.5 48.4 36.6 76.5 -3 37.7-29.8 97.3-7 116.2 13.7-4.8 25.3-9.6 35-14.2 5.1-13.6 7.5-32.7 7.5-52.9C481.7 219.4 476.3 189.2 462.5 163.9z"/><path d="M384.7 149.7c13.9 20.7 29.5 38.8 34.2 94.5 5.9-1.7 31.2-53.2-8-103.8 -15.5-18.7-33-28.5-47.5-33.7 -40.4-4.8-64.6 7.4-77.3 17.1C309.7 120.5 360.6 117.7 384.7 149.7z"/><path d="M383.9 143c6.8 7.2 29.6 34.3 38 88.5 7.1-6.3 15.1-48-12.1-85.9 -17-21.6-38.6-34.6-80.6-38.8 -14 1.9-24.8 6.1-33.1 10.6C316.3 115.8 361.6 115.9 383.9 143z" class="b"/><path d="M456.6 157.2c-9.2-10.2-18.5-19.9-28.3-27.5 11.8 15.5 29 45.4 20.6 80.3 -11.1 41.9-18.9 87.8-3.3 98.9 6.3-2.3 12.1-4.6 17.5-6.9 6.3-11.5 10.7-32.1 11.2-53.5C474.8 225.2 473.5 187.9 456.6 157.2z" class="a"/><path d="M522.1 219.2c0.2 0.1 0.3 0.2 0.5 0.2C522.4 219.3 522.3 219.3 522.1 219.2z" class="h"/><path d="M444.4 144.2c0.6 0.6 1.2 1.2 1.7 1.8C445.6 145.4 445 144.8 444.4 144.2z" class="h"/><path d="M442.6 142.4c0.6 0.6 1.2 1.1 1.7 1.7C443.8 143.6 443.2 143 442.6 142.4z" class="h"/><path d="M523.8 220c0.1 0 0.1 0.1 0.2 0.1C523.9 220.1 523.8 220.1 523.8 220z" class="h"/><path d="M523 219.6c0.1 0.1 0.2 0.1 0.4 0.2C523.2 219.8 523.1 219.7 523 219.6z" class="h"/><path d="M520.8 218.5c0.3 0.2 0.6 0.3 0.9 0.5C521.4 218.8 521.1 218.6 520.8 218.5z" class="h"/><path d="M433.7 134.2c0.6 0.5 1.2 1 1.8 1.5C434.9 135.2 434.3 134.7 433.7 134.2z" class="h"/><path d="M517.1 216.3c0.4 0.2 0.8 0.5 1.2 0.7C517.9 216.8 517.5 216.5 517.1 216.3z" class="h"/><path d="M518.7 217.2c0.3 0.1 0.5 0.3 0.7 0.4C519.2 217.5 518.9 217.4 518.7 217.2z" class="h"/><path d="M512.5 213.4c0.5 0.3 1 0.6 1.5 0.9C513.5 214.1 513 213.8 512.5 213.4z" class="h"/><path d="M519.8 217.9c0.2 0.1 0.4 0.3 0.7 0.4C520.3 218.1 520 218 519.8 217.9z" class="h"/><path d="M515.8 215.5c0.4 0.2 0.7 0.4 1 0.6C516.5 215.9 516.2 215.7 515.8 215.5z" class="h"/><path d="M431.9 132.6c0.6 0.5 1.2 1 1.8 1.5C433.1 133.6 432.5 133.1 431.9 132.6z" class="h"/><path d="M428.2 129.7c0.6 0.5 1.2 1 1.8 1.4C429.4 130.6 428.8 130.1 428.2 129.7z" class="h"/><path d="M514.4 214.6c0.3 0.2 0.7 0.4 1 0.6C515.1 215 514.8 214.8 514.4 214.6z" class="h"/><path d="M435.5 135.7c0.6 0.5 1.2 1 1.7 1.6C436.7 136.8 436.1 136.3 435.5 135.7z" class="h"/><path d="M437.3 137.4c0.6 0.5 1.2 1.1 1.7 1.6C438.5 138.4 437.9 137.9 437.3 137.4z" class="h"/><path d="M525.4 220.8c0.1 0 0.1 0 0.2 0.1C525.5 220.9 525.5 220.9 525.4 220.8z" class="h"/><path d="M524.8 220.6c0.1 0 0.1 0.1 0.2 0.1C525 220.6 524.9 220.6 524.8 220.6z" class="h"/><path d="M440.9 140.7c0.6 0.6 1.2 1.1 1.7 1.7C442 141.8 441.4 141.3 440.9 140.7z" class="h"/><path d="M439.1 139c0.6 0.5 1.2 1.1 1.7 1.6C440.2 140.1 439.7 139.6 439.1 139z" class="h"/><path d="M430.1 131.1c0.6 0.5 1.2 1 1.8 1.5C431.3 132.1 430.7 131.6 430.1 131.1z" class="h"/><path d="M514 214.4c0.1 0.1 0.3 0.2 0.4 0.3C514.3 214.5 514.1 214.5 514 214.4z" class="b"/><path d="M515.4 215.2c0.1 0.1 0.3 0.2 0.4 0.3C515.7 215.4 515.6 215.3 515.4 215.2z" class="b"/><path d="M518.3 217c0.1 0.1 0.3 0.1 0.4 0.2C518.5 217.1 518.4 217.1 518.3 217z" class="b"/><path d="M525 220.6c0.1 0.1 0.3 0.1 0.4 0.2C525.3 220.8 525.1 220.7 525 220.6z" class="b"/><path d="M516.9 216.1c0.1 0.1 0.2 0.1 0.2 0.2C517 216.3 517 216.2 516.9 216.1z" class="b"/><path d="M525.6 220.9c0.1 0.1 0.3 0.1 0.4 0.2C525.9 221 525.7 221 525.6 220.9z" class="b"/><path d="M523.3 219.8c0.1 0.1 0.3 0.2 0.4 0.2C523.6 220 523.5 219.9 523.3 219.8z" class="b"/><path d="M524 220.1c0.3 0.2 0.6 0.3 0.9 0.4C524.6 220.4 524.3 220.3 524 220.1z" class="b"/><path d="M519.4 217.7c0.1 0.1 0.3 0.2 0.4 0.2C519.7 217.8 519.5 217.7 519.4 217.7z" class="b"/><path d="M522.6 219.4c0.1 0.1 0.3 0.2 0.4 0.2C522.8 219.6 522.7 219.5 522.6 219.4z" class="b"/><path d="M521.7 219c0.1 0.1 0.3 0.1 0.4 0.2C522 219.1 521.8 219 521.7 219z" class="b"/><path d="M520.5 218.3c0.1 0.1 0.2 0.1 0.4 0.2C520.7 218.4 520.6 218.3 520.5 218.3z" class="b"/><path d="M430 131.1c0 0 0 0 0 0C430.1 131.1 430.1 131.1 430 131.1z" class="b"/><path d="M433.7 134.1c0 0 0 0 0 0C433.7 134.1 433.7 134.1 433.7 134.1z" class="b"/><path d="M431.9 132.6c0 0 0 0 0 0C431.9 132.6 431.9 132.6 431.9 132.6z" class="b"/><polygon points="428.2 129.7 428.2 129.7 428.2 129.7 " class="b"/><path d="M444.4 144.2c0 0 0 0 0 0C444.4 144.2 444.4 144.2 444.4 144.2z" class="b"/><path d="M446.1 146L446.1 146 446.1 146z" class="b"/><path d="M442.6 142.4c0 0 0 0 0 0C442.6 142.4 442.6 142.4 442.6 142.4z" class="b"/><path d="M439 139c0 0 0 0 0 0C439.1 139 439.1 139 439 139z" class="b"/><path d="M437.3 137.3c0 0 0 0 0.1 0C437.3 137.4 437.3 137.3 437.3 137.3z" class="b"/><path d="M435.5 135.7c0 0 0 0 0.1 0C435.5 135.7 435.5 135.7 435.5 135.7z" class="b"/><path d="M440.8 140.7c0 0 0 0 0 0C440.8 140.7 440.8 140.7 440.8 140.7z" class="b"/><path d="M519.4 217.7c0 0 0 0-0.1 0 0 0 0 0 0.1 0C519.4 217.7 519.4 217.7 519.4 217.7z" class="h"/><path d="M521.7 219h0c-0.3-0.2-0.6-0.3-0.9-0.5 0 0 0 0 0 0C521.1 218.6 521.4 218.8 521.7 219z" class="h"/><path d="M514 214.4c-0.5-0.3-1-0.6-1.5-0.9 0.5 0.3 1 0.6 1.5 0.9C514 214.4 514 214.4 514 214.4z" class="h"/><path d="M524 220.1c-0.1 0-0.1-0.1-0.2-0.1 0 0 0 0 0 0C523.8 220.1 523.9 220.1 524 220.1z" class="h"/><path d="M514.5 214.7c0 0 0 0 0 0 0 0 0 0 0 0C514.4 214.6 514.4 214.6 514.5 214.7z" class="h"/><path d="M516.2 215.7c-0.1-0.1-0.2-0.1-0.3-0.2 0 0 0 0 0 0C516 215.6 516.1 215.6 516.2 215.7z" class="h"/><path d="M523.1 219.7c-0.1 0-0.1-0.1-0.2-0.1 0 0 0 0 0 0C523 219.7 523.1 219.7 523.1 219.7z" class="h"/><path d="M430.1 131.1c0.6 0.5 1.2 1 1.8 1.5C431.3 132.1 430.7 131.6 430.1 131.1z" class="h"/><path d="M439.1 139.1c0.6 0.5 1.1 1.1 1.7 1.6C440.2 140.1 439.7 139.6 439.1 139.1z" class="h"/><path d="M525.6 220.9c0 0 0 0 0 0 -0.1 0-0.1 0-0.2-0.1h0C525.5 220.9 525.5 220.9 525.6 220.9z" class="h"/><path d="M448.9 148.8c1.7 1.7 3.3 3.5 4.9 5.3C452.2 152.3 450.5 150.6 448.9 148.8z" class="h"/><path d="M435.5 135.7c-0.6-0.5-1.2-1-1.8-1.5 0.6 0.5 1.2 1 1.7 1.5C435.5 135.7 435.5 135.7 435.5 135.7z" class="h"/><path d="M430 131.1c0 0 0 0 0 0 -0.6-0.5-1.2-1-1.8-1.5 0 0 0 0 0 0C428.8 130.1 429.4 130.6 430 131.1z" class="h"/><path d="M433.7 134.1c-0.6-0.5-1.2-1-1.8-1.5 0.6 0.5 1.2 1 1.8 1.5C433.7 134.1 433.7 134.1 433.7 134.1z" class="h"/><path d="M437.3 137.4c0.6 0.5 1.2 1.1 1.7 1.6 0 0 0 0 0 0 -1.2-1.1-2.3-2.2-3.5-3.2 0.6 0.5 1.1 1 1.7 1.6C437.3 137.3 437.3 137.4 437.3 137.4z" class="h"/><path d="M448.7 148.6c-0.8-0.9-1.7-1.8-2.5-2.6l0 0C447 146.9 447.8 147.7 448.7 148.6z" class="h"/><path d="M444.4 144.2c0 0 0 0 0 0 0.5 0.5 1.1 1.1 1.6 1.6 -1.1-1.2-2.3-2.3-3.4-3.4 0 0 0 0 0 0C443.2 143 443.8 143.6 444.4 144.2z" class="h"/><path d="M442.6 142.4c-0.6-0.6-1.2-1.2-1.8-1.7 0 0 0 0 0 0C441.4 141.3 442 141.8 442.6 142.4z" class="h"/><path d="M515.4 215.2c-0.3-0.2-0.6-0.4-0.9-0.6 0.5 0.3 0.9 0.6 1.4 0.9C515.7 215.4 515.6 215.3 515.4 215.2z" class="b"/><path d="M514 214.4c0.1 0.1 0.3 0.2 0.4 0.3C514.3 214.5 514.1 214.5 514 214.4z" class="b"/><path d="M518.7 217.2c-0.1-0.1-0.2-0.1-0.4-0.2 -0.4-0.2-0.8-0.5-1.2-0.7 -0.1 0-0.2-0.1-0.2-0.2 -0.2-0.1-0.5-0.3-0.7-0.4 1.1 0.7 2.2 1.3 3.2 1.9C519.1 217.5 518.9 217.4 518.7 217.2z" class="b"/><path d="M525 220.6c-0.1 0-0.1-0.1-0.2-0.1 -0.3-0.1-0.6-0.3-0.9-0.4 0 0 0 0 0 0 0.5 0.3 1 0.5 1.5 0.7C525.3 220.8 525.1 220.7 525 220.6z" class="b"/><path d="M520.5 218.3c-0.2-0.1-0.4-0.2-0.7-0.4 -0.1-0.1-0.3-0.2-0.4-0.2 0.5 0.3 1 0.6 1.4 0.8C520.7 218.4 520.6 218.3 520.5 218.3z" class="b"/><path d="M523.3 219.8c-0.1 0-0.1-0.1-0.2-0.1 0.2 0.1 0.4 0.2 0.6 0.3C523.6 220 523.5 219.9 523.3 219.8z" class="b"/><path d="M525.6 220.9c0.1 0.1 0.3 0.1 0.4 0.2C525.8 221 525.7 221 525.6 220.9z" class="b"/><path d="M522.6 219.4c-0.1-0.1-0.3-0.2-0.5-0.2 -0.1-0.1-0.3-0.1-0.4-0.2 0.4 0.2 0.9 0.5 1.3 0.7C522.8 219.6 522.7 219.5 522.6 219.4z" class="b"/><path d="M528.5 245.8c0.3-7-0.3-15.2-2.5-24.7 0 0 0 0 0 0 0 0 0 0 0 0 -0.1-0.1-0.3-0.1-0.4-0.2 0 0 0 0 0 0 -0.1 0-0.1 0-0.2-0.1h0c-0.4-0.2-0.9-0.4-1.5-0.7 -0.1 0-0.1-0.1-0.2-0.1 0 0 0 0 0 0 -0.2-0.1-0.4-0.2-0.6-0.3 -0.1 0-0.1 0-0.1-0.1 0 0 0 0 0 0 -0.4-0.2-0.8-0.4-1.3-0.7h0c-0.3-0.1-0.6-0.3-0.9-0.5 0 0 0 0 0 0 -0.5-0.3-0.9-0.5-1.4-0.8 0 0 0 0 0 0 0 0 0 0-0.1 0 -1-0.6-2-1.2-3.2-1.9 -0.1-0.1-0.2-0.1-0.3-0.2 0 0 0 0 0 0 -0.4-0.3-0.9-0.6-1.4-0.9 0 0 0 0 0 0 0 0 0 0 0 0 -0.1-0.1-0.3-0.2-0.4-0.3 0 0 0 0 0 0 -0.5-0.3-1-0.6-1.5-0.9 -0.3-0.2-0.6-0.4-0.9-0.6 2.7 9.2 6.2 25.3 4.2 43.8C522.1 254.1 526 250.1 528.5 245.8z" class="b"/><path d="M435.5 135.7c0 0 0 0 0 0 0 0 0 0 0.1 0C435.5 135.8 435.5 135.8 435.5 135.7z" class="b"/><polygon points="428.2 129.7 428.2 129.7 428.2 129.7 " class="b"/><path d="M433.7 134.2c0 0 0 0 0 0 0 0 0 0 0 0C433.7 134.2 433.7 134.2 433.7 134.2z" class="b"/><path d="M431.9 132.6c0 0 0 0 0 0 0 0 0 0 0 0 0 0 0 0 0 0C431.9 132.6 431.9 132.6 431.9 132.6z" class="b"/><path d="M430.1 131.1c0 0 0 0 0 0 0 0 0 0 0 0C430.1 131.1 430.1 131.1 430.1 131.1z" class="b"/><path d="M448.7 148.6c0.1 0.1 0.1 0.1 0.2 0.2C448.8 148.8 448.7 148.7 448.7 148.6z" class="b"/><path d="M439.1 139c0 0 0 0 0 0 0 0 0 0 0.1 0.1C439.1 139 439.1 139 439.1 139z" class="b"/><path d="M453.8 154.1c0.1 0.1 0.2 0.2 0.3 0.4C454 154.4 453.9 154.3 453.8 154.1z" class="b"/><path d="M446.1 146c0 0-0.1-0.1-0.1-0.1C446 145.9 446.1 145.9 446.1 146L446.1 146z" class="b"/><path d="M440.8 140.7L440.8 140.7c0 0 0 0 0 0C440.8 140.7 440.8 140.7 440.8 140.7z" class="b"/><path d="M442.6 142.4c0 0 0 0 0 0 0 0 0 0 0 0C442.6 142.4 442.6 142.4 442.6 142.4z" class="b"/><path d="M456.6 157.2c-0.8-0.9-1.6-1.8-2.4-2.7 -0.1-0.1-0.2-0.2-0.3-0.4 -1.6-1.8-3.3-3.6-4.9-5.3 -0.1-0.1-0.1-0.1-0.2-0.2 -0.8-0.9-1.7-1.8-2.5-2.6l0 0c0 0-0.1-0.1-0.1-0.1 -0.5-0.6-1.1-1.1-1.6-1.6 0 0 0 0 0 0 -0.6-0.6-1.1-1.2-1.7-1.7 0 0 0 0 0 0 0 0 0 0 0 0 -0.6-0.6-1.1-1.1-1.7-1.7 0 0 0 0 0 0 0 0 0 0 0 0 -0.6-0.5-1.1-1.1-1.7-1.6 0 0 0 0-0.1-0.1 0 0 0 0 0 0 -0.6-0.5-1.2-1.1-1.7-1.6 0 0 0 0-0.1 0 -0.6-0.5-1.1-1-1.7-1.6 0 0 0 0-0.1 0 0 0 0 0 0 0 -0.6-0.5-1.2-1-1.7-1.5 0 0 0 0 0 0 0 0 0 0 0 0 -0.6-0.5-1.2-1-1.8-1.5 0 0 0 0 0 0 -0.6-0.5-1.2-1-1.8-1.5 0 0 0 0 0 0 0 0 0 0 0 0 -0.6-0.5-1.2-1-1.8-1.4 0 0 0 0 0 0 0 0 0 0 0 0 11.8 15.5 29 45.4 20.6 80.3 -6.3 23.8-11.6 49-12 68.2 7.8-7.7 17.3-13.8 36.7-16.5 0.4-4.3 0.7-8.7 0.8-13.2C474.8 225.2 473.5 187.9 456.6 157.2z" class="b"/><path d="M304.8 337.4c-9.5 0-24.4-5.7-41.1-32.6 -21.4-16.1-67.4-58.6-33.4-107.1 13.5-34.1 25.9-57 46.1-66.2 17.6-17.5 40.9-26.4 69.2-26.4 17.7 0 37.3 3.5 58.2 10.5 23.6 7.4 44.2 31 64.1 53.8 14.4 16.5 29.3 33.6 44.8 43.6 11.5 7.4 15.1 8.5 16.3 8.5 0.3 0 1.1-0.2 1.1-0.2 4.1 10 8.7 39.3-5.7 45.6 -2.1 1-4.7 2.9-8.4 5.6 -16.8 12-51.8 37-137.2 55.6 -20.7 3.8-41.3 4.4-51.7 4.4 -4.3 0-7.1-0.1-7.8-0.1C318.5 333.2 313.2 337.4 304.8 337.4zM345.7 106.1c-28.2 0-51.3 8.8-68.7 26.2l-0.1 0.1c-20 9-32.4 31.8-45.8 65.8l0 0.1c-33.6 47.9 12 90.1 33.2 106l0.1 0.1c16.5 26.6 31.1 32.2 40.4 32.2 8.8 0 14.2-4.8 14.2-4.9l0.1-0.1 0.2 0c0 0 3 0.1 7.9 0.1 10.4 0 30.9-0.6 51.5-4.3 85.2-18.6 120.1-43.5 136.9-55.5 3.7-2.7 6.4-4.6 8.6-5.6 13.6-6 9.5-33.5 5.5-43.9 -0.2 0.1-0.4 0.1-0.6 0.1 -2.2 0-8-3-16.8-8.6 -15.6-10.1-30.6-27.2-45-43.7 -19.8-22.7-40.3-46.2-63.7-53.5C382.8 109.6 363.3 106.1 345.7 106.1z" class="i"/><path d="M272.5 134.6l-0.4-0.8c18.1-8.9 25.8 0.7 25.8 0.7C289 126.6 272.7 134.6 272.5 134.6z" class="i"/><path d="M327.2 136.9c0 0 5-7.9 16.6-8.2 11.3 0 19.2 5.9 19.2 5.9C338.7 122 327.3 136.7 327.2 136.9z" class="i"/><path d="M266 308.4c-5.2-8.9-5.9-14.5-5.3-17.8 0.8 7.6 5.7 16.8 6.1 17.4L266 308.4z" class="i"/><path d="M316.6 334.3l2.5-2.8c0.2-0.1 14.9-8.1 25.2-16.8 4.6-3.9 8.1-7.2 10.9-9.9 7.4-7.2 11-7.1 11-7.1 -3 0.8-5.8 3.4-10.4 7.7 -2.8 2.7-6.3 6-11 9.9C334.5 324.2 316.8 334.2 316.6 334.3z" class="i"/><path d="M244.2 234.1c0 0 39.2 54.9 121.9 0 -1.3 8.4-21.9 77.6-65 78.9 -24-2.1-20.7-17.7-30.8-36.7C261.2 259.1 245.4 240.7 244.2 234.1z" fill="#4D0400"/><path d="M289.3 279.7c6.8-2.5 16-6.7 21.9 0 7.6-16 28.4-22.8 45.9-19.1 5.6-12.7 8.5-23.5 9-26.5 -82.7 54.9-121.9 0-121.9 0 1.2 6.6 17 25 26.2 42.2 2.6 4.9 4.3 9.6 5.9 13.9C279.9 285.9 284.6 282.3 289.3 279.7z" fill="#780400"/><path d="M309.8 287.7c-14-3.9-24.4 8.7-28.4 14.8 3.4 5.7 8.7 9.6 19.8 10.5 17.3-0.5 31-12 41.3-26.1C330.4 278.5 316.2 283.7 309.8 287.7z" fill="#E85454"/><path d="M333.8 283.1c-9.6-2.2-19.1 1.6-24 4.6 -14-3.9-24.4 8.7-28.4 14.8 1.4 2.4 3.2 4.5 5.6 6.1C291.4 313.4 311.9 317.2 333.8 283.1z" fill="#FF7773"/><path d="M301.1 313.4l0 0c-10.1-0.9-16.1-4.1-20.1-10.7l-0.1-0.2 0.2-0.2c3.9-5.9 12.2-15.7 23.5-15.7 1.7 0 3.5 0.2 5.2 0.7 2.2-1.4 9.4-5.3 18.2-5.3 5.5 0 10.4 1.5 14.7 4.6l0.4 0.2 -0.2 0.3c-12.4 17-26.4 25.8-41.6 26.3L301.1 313.4zM281.9 302.5c3.8 6.2 9.6 9.3 19.3 10.1 14.8-0.4 28.5-9.1 40.6-25.6 -4.1-2.8-8.8-4.2-13.9-4.2 -8.7 0-15.9 4-17.9 5.2l-0.2 0.1 -0.2 0c-1.7-0.5-3.5-0.7-5.2-0.7C293.7 287.4 285.7 296.7 281.9 302.5z" class="j"/><path d="M301.6 300.5c0 0 2.8-12 11.2-14.9l0.3 0.8C306.4 288.6 301.6 300.4 301.6 300.5z" class="j"/><path d="M301.1 313.4l0 0c-17.7-1.6-20.8-10.2-25-22.3 -1.6-4.4-3.3-9.5-6.1-14.7 -4.3-8.2-10.2-16.6-15.3-23.9 -5.7-8.3-10.3-14.8-10.9-18.4l0.8-0.3c0.2 0.2 17.8 24.2 53.2 24.2 20.9 0 43.8-8.2 68.1-24.3l0.7 0.4c-1.5 9.7-22.3 78-65.4 79.3L301.1 313.4zM245.3 236.1c1.6 3.7 5.6 9.5 10.1 15.9 5.1 7.4 11 15.8 15.3 24 2.8 5.3 4.6 10.3 6.2 14.8 4.1 11.7 7.1 20.2 24.3 21.7 22.4-0.7 38.3-20.2 47.8-36.5 10-17.4 15.5-35.6 16.6-41 -24.2 15.9-46.9 23.9-67.8 23.9C267.6 258.9 250.2 241.8 245.3 236.1z" class="i"/><ellipse transform="matrix(0.9716 -0.2367 0.2367 0.9716 -34.9567 87.252)" cx="345.9" cy="189.2" rx="24.9" ry="39.9"/><path d="M368.9 187.1c4.8 19.6-1.3 37.9-13.5 40.9 -12.2 3-26-10.5-30.8-30.1 -4.8-19.6 1.3-37.9 13.5-40.9C350.3 154.1 364.1 167.6 368.9 187.1z" class="k"/><path d="M369.4 189.9c-0.2-0.9-0.4-1.8-0.6-2.7 -4.8-19.6-18.5-33-30.8-30.1 -12.2 3-18.3 21.3-13.5 40.9 1.5 6.2 4 11.9 7 16.5C347.4 212.8 361.2 203.2 369.4 189.9z" class="l"/><path d="M351.9 228.8c-11.7 0-23.4-13-27.7-30.8 -2.3-9.5-2.2-19.1 0.4-26.9 2.6-7.9 7.4-13 13.4-14.5 1.2-0.3 2.4-0.4 3.6-0.4 11.7 0 23.4 13 27.7 30.8 2.3 9.5 2.2 19.1-0.4 26.9 -2.6 7.9-7.4 13-13.4 14.5C354.3 228.7 353.1 228.8 351.9 228.8zM341.5 157.1c-1.1 0-2.3 0.1-3.4 0.4 -5.8 1.4-10.3 6.3-12.8 13.9 -2.5 7.6-2.7 17-0.4 26.4 4.2 17.2 15.8 30.2 26.9 30.2 1.1 0 2.3-0.1 3.4-0.4 5.8-1.4 10.3-6.3 12.8-13.9 2.5-7.6 2.7-17 0.4-26.4C364.3 170.1 352.7 157.1 341.5 157.1z"/><ellipse transform="matrix(0.8624 0.5063 -0.5063 0.8624 130.4529 -112.4617)" cx="272.1" cy="183.7" rx="20" ry="37.1"/><ellipse transform="matrix(0.8624 0.5063 -0.5063 0.8624 131.705 -111.179)" cx="270.4" cy="186.7" rx="18.2" ry="33.7" class="k"/><path d="M287.5 193.2c8-15.2 8.1-30.8-0.1-35.6 -8.6-5.1-23.3 3.8-32.7 19.9 -4.7 7.9-7.2 16.1-7.5 23C261.2 203 274.8 198.9 287.5 193.2z" class="l"/><path d="M258.8 217.6c-2.1 0-4.1-0.5-5.7-1.5 -8.8-5.2-8.3-22.6 1.2-38.8 7.6-12.9 18.6-21.5 27.6-21.5 2.1 0 4.1 0.5 5.7 1.5 8.8 5.2 8.3 22.6-1.2 38.8C278.8 208.9 267.8 217.6 258.8 217.6zM281.9 156.6c-8.6 0-19.4 8.5-26.8 21.1 -9.3 15.8-10 32.7-1.5 37.7 1.5 0.9 3.3 1.4 5.3 1.4 8.6 0 19.4-8.5 26.8-21.1 9.3-15.8 10-32.7 1.5-37.7C285.6 157.1 283.9 156.6 281.9 156.6z"/><ellipse transform="matrix(0.9196 -0.3929 0.3929 0.9196 -49.5552 154.9095)" cx="353.7" cy="198.5" rx="8.6" ry="11.9" class="m"/><path d="M347.7 205.2c2.9 3.8 7.2 5.7 10.7 4.2 3.9-1.7 5.5-6.9 4-12.3C359.5 202.2 354.2 204.6 347.7 205.2z" class="n"/><path d="M355.8 210.4c-4.1 0-8.3-3.3-10.4-8.3 -2.7-6.2-1.1-12.9 3.5-14.9 0.9-0.4 1.8-0.6 2.7-0.6 4.1 0 8.3 3.3 10.4 8.3 2.7 6.2 1.1 12.9-3.5 14.9C357.6 210.2 356.7 210.4 355.8 210.4zM351.6 187.5c-0.8 0-1.7 0.2-2.4 0.5 -4.2 1.8-5.5 8-3.1 13.8 2 4.6 5.9 7.8 9.6 7.8 0.8 0 1.7-0.2 2.4-0.5 4.2-1.8 5.6-8 3.1-13.8C359.3 190.7 355.3 187.5 351.6 187.5z" class="o"/><ellipse transform="matrix(0.9417 0.3364 -0.3364 0.9417 80.1657 -80.7906)" cx="273.3" cy="191" rx="6.2" ry="11" class="m"/><path d="M266.4 195c0 3.2 1.2 5.6 3.2 6.4 3.2 1.2 7.5-2.6 9.5-8.3 0.1-0.2 0.1-0.4 0.2-0.6C275.2 195 270.7 196.9 266.4 195z" class="n"/><path d="M270.8 202c-0.5 0-0.9-0.1-1.4-0.2 -1.7-0.6-2.9-2.3-3.3-4.8 -0.4-2.4-0.1-5.3 0.9-8.2 1.8-5.1 5.5-8.8 8.7-8.8 0.5 0 0.9 0.1 1.4 0.2 3.4 1.2 4.5 7.1 2.4 13C277.7 198.3 274 202 270.8 202zM275.7 180.8c-2.9 0-6.2 3.5-7.9 8.2 -1 2.7-1.3 5.5-0.9 7.7 0.4 2.2 1.4 3.7 2.8 4.2 0.3 0.1 0.7 0.2 1.1 0.2 2.9 0 6.2-3.5 7.9-8.2 2-5.5 1.1-10.9-1.9-11.9C276.5 180.9 276.1 180.8 275.7 180.8z" class="o"/><path d="M374.4 318.1c0 0-2.7 67.5 15.2 61.4 8.6 1.9 10.8-1.5 13.3-6.1 7.2 4.4 15.8-6.1 9.9-15.6 -5.9-9.5-18.3-47.7-18.3-47.7L374.4 318.1z" class="a"/><path d="M393.9 380.4c-1.3 0-2.7-0.2-4.3-0.5 -0.8 0.2-1.5 0.4-2.2 0.4 0 0 0 0 0 0 -1.8 0-3.4-0.8-4.8-2.3 -10.4-10.9-8.6-58-8.6-60l0-0.3 20.8-8.3 0.1 0.4c0.1 0.4 12.4 38.2 18.2 47.6 2.5 4 2.7 8.7 0.6 12.5 -1.7 3-4.5 4.8-7.3 4.8 -1.2 0-2.3-0.3-3.4-0.9C401.1 377.3 399.3 380.4 393.9 380.4zM389.5 379l0.1 0c1.6 0.4 3 0.5 4.3 0.5 4.7 0 6.4-2.4 8.6-6.4l0.2-0.4 0.4 0.2c1.1 0.6 2.2 1 3.3 1 2.6 0 5.1-1.7 6.6-4.4 2-3.5 1.8-7.9-0.6-11.6 -5.6-9-16.7-42.9-18.2-47.3l-19.4 7.7c-0.1 3.9-1.4 48.9 8.3 59.1 1.3 1.3 2.7 2 4.2 2h0c0.7 0 1.4-0.1 2.1-0.4L389.5 379z" class="c"/><path d="M392 373.5c4.5 2.1 9.5 0.5 10-4.6 3.8 1.4 10.4-3.2 11.5-9.8 -0.2-0.5-0.5-0.9-0.8-1.4 -5.9-9.5-18.3-47.7-18.3-47.7l-20.1 8c0 0-1.8 44 7 57.7C384.4 376.4 388.8 376.4 392 373.5z" class="d"/><path d="M384.7 376.5L384.7 376.5c-1.1 0-2.2-0.1-3.4-0.3l-0.2 0 -0.1-0.2c-8.7-13.7-7.1-56.2-7-58l0-0.3 20.8-8.3 0.1 0.4c0.1 0.4 12.4 38.2 18.2 47.6 0.3 0.4 0.5 0.9 0.8 1.5l0.1 0.1 0 0.1c-1.1 5.9-6.4 10.4-10.4 10.4 -0.4 0-0.8 0-1.2-0.1 -0.5 3.3-3 5.4-6.5 5.4 -1.2 0-2.6-0.3-3.8-0.8C390.1 375.7 387.6 376.5 384.7 376.5zM381.6 375.4c1.1 0.2 2.1 0.3 3.1 0.3 2.9 0 5.3-0.8 7-2.4l0.2-0.2 0.3 0.1c1.2 0.6 2.5 0.9 3.7 0.9 3.2 0 5.4-2 5.7-5.2l0.1-0.5 0.5 0.2c0.4 0.2 0.9 0.2 1.4 0.2 3.7 0 8.5-4.1 9.5-9.5 -0.2-0.5-0.4-0.9-0.7-1.2 -5.6-9-16.7-42.9-18.2-47.3l-19.4 7.7C374.6 322.1 373.5 362.3 381.6 375.4z"/><path d="M392 365.7c2.4 1.1 9 1.1 10.9-7 2.2 0.5 6.5 0.3 9.5-1.7 -6-10.4-17.9-47.1-17.9-47.1l-20.1 8c0 0-1.2 30.1 3.3 48.3C380.5 369.2 385.3 371.2 392 365.7z" class="f"/><path d="M388.9 354.8c3-14.4-2.8-27.4-4-40.9l-10.6 4.2c0 0-0.9 22.3 1.7 40.1 0.1 0 0.1 0 0.2 0C381.3 359.8 388.1 359.8 388.9 354.8z" class="g"/><path d="M384 369.6L384 369.6c-2.4 0-4.6-1-6.6-3l-0.1-0.1 0-0.1c-4.5-18-3.3-48.1-3.3-48.4l0-0.3 20.8-8.3 0.1 0.4c0.1 0.4 11.9 36.7 17.9 47l0.2 0.4 -0.3 0.2c-2.7 1.8-6.1 2-7.4 2 -0.7 0-1.5-0.1-2.1-0.2 -1.7 6.7-6.5 7.4-8.5 7.4 -0.9 0-1.8-0.2-2.6-0.4C389.2 368.5 386.5 369.6 384 369.6zM378 366.1c1.8 1.8 3.8 2.7 6 2.7l0 0c2.4 0 5-1.1 7.7-3.4l0.2-0.2 0.2 0.1c0.7 0.3 1.6 0.5 2.5 0.5 1.8 0 6.3-0.7 7.8-7.1l0.1-0.4 0.4 0.1c0.6 0.1 1.4 0.2 2.3 0.2 1.2 0 4.1-0.2 6.6-1.6 -5.7-10.1-16.3-42.3-17.6-46.4l-19.4 7.7C374.7 321.4 373.8 349.1 378 366.1z" class="i"/><path d="M368.3 318.8c0 0 14.5 9.8 33.7-12.3L368.3 318.8z" class="h"/><path d="M376.4 321.5c-5.3 0-8.2-2.7-8.2-2.7 0.1 0.1 14.7 9 33.4-12.6l0.6 0.6C391.9 318.7 382.7 321.5 376.4 321.5z" class="i"/><path d="M340.8 231.6c0 0 11.9-22.8 40.1-20.8 0 0-4.6 12.1-20.1 19C345.3 236.8 340.8 231.6 340.8 231.6z" class="h"/><path d="M340.8 231.6c0 0 4.8-10.1 16.2-16.4 13.9-7.6 23.9-4.4 23.9-4.4C353.6 209.3 340.9 231.4 340.8 231.6z" class="i"/><path d="M235.8 205c0 0 24.2-1.8 34.2 18.3 0 0-6 6.1-19.5-2C236.9 213.2 235.8 205 235.8 205z" class="h"/><path d="M270 223.3c-10.3-19.4-34-18.3-34.2-18.3 0 0 10.6-1.3 20.8 4C268.9 216.2 270 223.3 270 223.3z" class="i"/><path d="M236.1 241.9c0 0 1.9-5.2 7.2-8.3 6.4-3.3 9.7-1.7 9.7-1.7C241.6 231.7 236.2 241.8 236.1 241.9z" class="i"/><path d="M380.6 240.1c-6.1-6.5-22.3-5.8-22.5-5.8 0 0 3.7-1.2 8-0.6C378.6 235.6 380.6 240.1 380.6 240.1z" class="i"/><path d="M409.7 266.6c0 0 42.1 15.2 67.4 32.3 5.3 4.4 9.5 7.9 3.6 16.8 2.1 3.4 3 9.8-4.4 12.3 1.1 6.3-0.8 10.3-8.4 12.2 0.4 4.9-2.5 10.8-9.5 9.9 -1.1 6.1-3.2 8.4-10.5 7.8 -2.7 4.4-7 6.5-11 4.2 -3.4 3.8-12.4 5.1-14.8 1 -2.9 5-6.9 6.9-12.3 0.7 -4.4 3.4-14.4-0.7-16.6-20 -1.9-15-4-46.2-10.3-54.8C396.1 277.3 409.7 266.6 409.7 266.6z" class="a"/><path d="M409.7 266.6c0 0 42.1 15.2 67.4 32.3 5.3 4.4 9.5 7.9 3.6 16.8 2.1 3.4 3 9.8-4.4 12.3 1.1 6.3-0.8 10.3-8.4 12.2 0.4 4.9-2.5 10.8-9.5 9.9 -1.1 6.1-3.2 6.6-10.5 5.9 -2.7 4.4-6.8 5.4-10.8 3.1 -3.4 3.8-11.7 4.1-14 0 -3 5-7 7.9-12.4 1.8 -4.4 3.4-15.2 2.2-17.4-17.2 -1.9-15-4-46.2-10.3-54.8C396.1 277.3 409.7 266.6 409.7 266.6z" class="b"/><path d="M416.1 368.1c-2 0-4.2-1.2-6.4-3.7 -0.9 0.6-2 0.9-3.2 0.9 -5.6 0-12.1-6.6-13.7-21.5 -0.4-2.8-0.7-6.3-1.1-9.9 -1.7-16-4.1-37.8-9.1-44.8l-0.2-0.3 0.3-0.3c13.1-11.5 26.8-22.2 27-22.4l0.2-0.1 0.2 0.1c0.4 0.2 42.4 15.4 67.5 32.3l0.1 0.1c5.1 4.3 9.6 8 3.7 17.1 1.1 2 1.9 4.9 1 7.6 -0.8 2.2-2.6 3.9-5.4 4.9 1 6.7-1.5 10.4-8.5 12.3 0.2 2.8-0.8 5.6-2.5 7.5 -1.7 1.9-4.2 2.8-7.1 2.5 -0.9 5-2.7 7.9-8.7 7.9 -0.6 0-1.2 0-1.9-0.1 -2.1 3.3-4.9 5.2-7.8 5.2 -1.1 0-2.2-0.3-3.3-0.8 -2 2-5.6 3.4-9.1 3.4 -2.6 0-4.6-0.8-5.8-2.2C420.2 366.7 418.2 368.1 416.1 368.1zM409.8 363.3l0.3 0.3c4.5 5.1 8.3 4.9 11.6-0.7l0.4-0.6 0.4 0.6c0.8 1.5 2.8 2.3 5.4 2.3 3.4 0 6.9-1.4 8.7-3.4l0.2-0.3 0.3 0.2c1 0.6 2.1 0.9 3.2 0.9 2.6 0 5.3-1.8 7.2-5l0.1-0.2 0.3 0c0.8 0.1 1.5 0.1 2.1 0.1 5 0 7-1.8 8-7.6l0.1-0.4 0.4 0.1c2.8 0.3 5.1-0.4 6.8-2.2 1.6-1.8 2.5-4.5 2.3-7.2l0-0.4 0.3-0.1c6.9-1.7 9.2-5.1 8.1-11.8l-0.1-0.4 0.3-0.1c2.7-0.9 4.5-2.5 5.2-4.5 0.9-2.5 0.1-5.4-1-7.2l-0.1-0.2 0.1-0.2c5.7-8.6 1.9-11.8-3.4-16.2l-0.1-0.1c-24-16.2-63.7-30.9-67-32.1 -1.7 1.3-14.2 11.3-26.5 21.9 5.1 7.4 7.4 29 9.1 44.8 0.4 3.6 0.8 7.1 1.1 9.9 1.8 16.4 9 20.7 12.9 20.7 1.2 0 2.2-0.3 3-1L409.8 363.3z" class="c"/><path d="M409.7 357.3c2 2.7 5.3 5.1 11.9 0.4 3.6 1.9 10.1 3.6 13.1-2.5 4.6 1.1 8.2-0.5 11-4.5 3.3 1.1 9.4-1.6 9.8-7.3 4.6 0 9.1-3.4 8.4-8.4 4.4-0.8 9.2-5.9 7.1-11.4 4.9-1.9 5.5-7.2 2-10.6 2.3-0.9 5.5-6.1 3.2-14.7 -25.4-16.9-66.6-31.7-66.6-31.7s-13.6 10.7-26.9 22.3c6.3 8.6 8.4 39.9 10.3 54.9 0.7 6.6 2.4 11.4 4.4 14.8C400.6 360 404.8 360.5 409.7 357.3z" class="d"/><path d="M410.9 353.2c2 2.7 4.6 4.6 11.2 0 3.6 1.9 9.5 4 12.5-2.1 4.6 1.1 7.4 0.5 10.2-3.5 3.3 1.1 10.4 1.4 10.8-4.3 4.6 0 9.1-3.4 8.4-8.4 4.4-0.8 9.2-5.9 7.1-11.4 4.9-1.9 5.5-7.2 2-10.6 2.3-0.9 5.5-6.1 3.2-14.7 -25.4-16.9-66.6-31.7-66.6-31.7s-13.6 10.7-26.9 22.3c6.3 8.6 8.4 39.9 10.3 54.9 0.7 6.6 3.9 6.1 5.9 9.4C402.1 354.7 405.9 356.5 410.9 353.2z" class="e"/><path d="M415 360.8c-2.1 0-3.9-1-5.4-2.9 -2.4 1.5-4.8 2.3-7.2 2.3h0c-1.7 0-3.4-0.4-5.1-1.2l-0.1-0.1 -0.1-0.1c-2.3-3.8-3.8-8.8-4.5-14.9 -0.4-2.8-0.7-6.3-1.1-9.9 -1.7-16-4.1-37.8-9.1-44.8l-0.2-0.3 0.3-0.3c13.1-11.5 26.8-22.2 27-22.4l0.2-0.1 0.2 0.1c0.4 0.1 41.5 15.1 66.7 31.8l0.1 0.1 0 0.2c2.2 8.2-0.6 13.4-2.9 14.9 1.6 1.7 2.3 3.9 1.9 6 -0.4 2.1-1.9 3.8-4 4.7 0.9 2.7 0.1 5-0.7 6.5 -1.4 2.4-3.9 4.3-6.5 5 0.2 2.1-0.5 4-1.8 5.5 -1.6 1.8-4.1 2.9-6.7 3 -0.6 5-5.3 7.6-8.6 7.6 -0.5 0-1-0.1-1.4-0.2 -3 3.9-6.5 5.4-11 4.5 -1.4 2.8-3.8 4.2-6.9 4.2 -2.6 0-5-1-6.3-1.7C419.2 359.9 416.9 360.8 415 360.8zM409.8 356.7l0.2 0.3c1.4 2 3 2.9 4.9 2.9 1.8 0 4-0.9 6.4-2.6l0.2-0.2 0.2 0.1c2 1.1 4.3 1.7 6.2 1.7 2.9 0 5-1.4 6.3-4l0.1-0.3 0.3 0.1c4.4 1 7.8-0.4 10.6-4.3l0.2-0.3 0.3 0.1c0.4 0.1 0.9 0.2 1.5 0.2 3.1 0 7.5-2.5 7.8-7.2l0-0.4h0.4c2.5 0 4.9-1 6.4-2.7 1.3-1.5 1.8-3.3 1.6-5.2l0-0.4 0.4-0.1c2.5-0.5 5-2.3 6.3-4.6 0.8-1.4 1.5-3.6 0.5-6.2l-0.1-0.4 0.4-0.1c2.1-0.8 3.5-2.3 3.9-4.2 0.4-1.9-0.4-4-2.1-5.6l-0.5-0.5 0.6-0.2c2.1-0.8 5.2-5.8 3-14 -24.1-16-62.8-30.3-66.1-31.5 -1.7 1.3-14.2 11.3-26.5 21.9 5.1 7.4 7.4 29 9.1 44.8 0.4 3.6 0.8 7.1 1.1 9.9 0.7 6 2.1 10.8 4.3 14.5 1.5 0.7 3 1 4.6 1l0 0c2.3 0 4.7-0.8 7.1-2.3L409.8 356.7z"/><path d="M402.8 347.8c3.6 3.4 6.3 2.7 11.8 0 2.7 2.1 7.8 0.8 10.8-2.3 4.6 1.7 9.3-1.7 11.2-4.4 4.4 1.7 9.2-2.3 9.1-5.7 3.5-0.4 6.5-3.8 5.6-7.6 4.5 0.2 8.1-5.1 7.2-8.7 3.2 0.2 7.5-8.8 4.6-12.4 3.1-0.4 8.8-4.1 7.9-11.7 -25.4-15.4-61.3-28.4-61.3-28.4s-13.6 10.7-26.9 22.3c6.3 8.6 8.4 39.9 10.3 54.9 0.3 2.3 0.6 4.4 1.1 6.3C396.6 351.1 399.8 351.3 402.8 347.8z" class="f"/><path d="M389.8 298.2c3.4 11.8 3.4 25.4 6.7 37.2 2.5 5.1 11 0.8 13.5-4.2 1.7 3.4 5.1 5.1 8.4 4.2 2.5-0.8 3.4-3.4 3.4-5.9 4.2 0.8 9.3 6.8 11.8 1.7 1.7-2.5 0-7.6 1.7-10.1 0.8-0.8 5.1 0.8 6.8-0.8 2.5-2.5-0.8-8.4 1.7-10.1 1.7-2.5 7.6 0.8 11-0.8 4.2-0.8 3.4-5.9 2.5-10.1 2.5 0 2.5 0 5.9-0.8 5.9-2.3 4.8-5.5 1.2-7.1 -24.6-13.7-54.7-24.5-54.7-24.5s-14.8 11.3-27.5 22.3C386.8 292.1 387.9 293.9 389.8 298.2z" class="g"/><path d="M393.3 293.8c3.4 11.8 1.8 22.4 5.2 34.3 2.5 5.1 6.5-1.2 9.1-6.2 1.7 3.4 4.6 9 7.9 8.2 2.5-0.8 4-6.4 4-9 4.2 0.8 8.7 12.1 11.2 7 1.7-2.5-0.1-11.2 1.6-13.7 0.8-0.8 5.1 4.5 6.8 2.8 2.5-2.5-2.5-10.3 0-12 1.7-2.5 10.8 3.2 14.1 1.6 4.2-0.8 0.8-6.6 0-10.8 2.5 0 5.6 0.7 7.6 0 3.5-2.3 7.1-3.2 3.5-4.8 -24.6-13.7-54.7-24.5-54.7-24.5s-14.8 11.3-27.5 22.3C386.8 292.1 391.4 289.5 393.3 293.8z" class="h"/><path d="M397.2 351.1L397.2 351.1c-1 0-2.1-0.2-3.1-0.7l-0.2-0.1 -0.1-0.2c-0.5-2-0.9-4.1-1.1-6.3 -0.4-2.8-0.7-6.3-1.1-9.9 -1.7-16-4.1-37.8-9.1-44.8l-0.2-0.3 0.3-0.3c13.1-11.5 26.8-22.2 27-22.4l0.2-0.1 0.2 0.1c0.4 0.1 36.2 13.1 61.4 28.4l0.2 0.1 0 0.2c0.5 4.1-0.9 6.9-2.2 8.5 -1.7 2.1-3.8 3.2-5.4 3.6 1.3 2.3 0.5 5.8-0.7 8.3 -0.9 1.9-2.5 4-4.1 4.3 0.2 1.8-0.4 3.9-1.8 5.7 -1.4 1.8-3.4 2.9-5.4 3 0.3 1.6-0.1 3.2-1 4.5 -1.1 1.6-2.8 2.7-4.7 3 -0.1 1.3-0.8 2.6-1.9 3.7 -2 2.1-5 2.9-7.5 2.1 -1.8 2.4-5.2 4.8-8.8 4.8 -0.8 0-1.7-0.1-2.5-0.4 -2 2-4.9 3.3-7.5 3.3 -1.3 0-2.5-0.3-3.4-1 -5.2 2.6-8.2 3.2-11.7 0.1C401.2 350.2 399.3 351.1 397.2 351.1zM394.6 349.8c2.9 1.1 5.6 0.4 7.9-2.2l0.3-0.3 0.3 0.3c3.5 3.2 6.1 2.5 11.3-0.1l0.2-0.1 0.2 0.2c0.8 0.6 1.9 1 3.1 1 2.5 0 5.2-1.3 7.1-3.2l0.2-0.2 0.3 0.1c0.8 0.3 1.6 0.4 2.4 0.4 3.4 0 6.7-2.4 8.3-4.7l0.2-0.3 0.3 0.1c0.6 0.2 1.3 0.4 2 0.4 1.7 0 3.6-0.8 4.9-2.2 1.1-1.1 1.7-2.4 1.6-3.5l0-0.4 0.4 0c1.8-0.2 3.4-1.2 4.4-2.7 0.9-1.3 1.2-2.9 0.8-4.4l-0.1-0.6 0.6 0c1.9 0.1 3.8-0.9 5.2-2.7 1.3-1.7 2-3.8 1.6-5.5l-0.1-0.6 0.6 0h0c1.2 0 2.7-1.5 3.8-3.8 1.3-2.6 1.9-6.1 0.4-8l-0.5-0.6 0.7-0.1c1.6-0.2 3.9-1.3 5.5-3.4 1.6-2.1 2.3-4.7 2-7.6 -24.1-14.6-57.8-27-60.8-28.2 -1.7 1.3-14.2 11.3-26.5 21.9 5.1 7.4 7.4 29 9.1 44.8 0.4 3.6 0.8 7.1 1.1 9.9C393.8 345.9 394.1 347.9 394.6 349.8z" class="i"/><path d="M402.4 347.9c-3.7-13.6-5.7-24.5-5.1-32.2 -0.4 11.3 5.8 31.8 5.9 32L402.4 347.9z" class="i"/><path d="M414.2 347.9c-5.5-17.9-8.2-32.3-8.2-32.3 0.6 3.7 9 31.8 9.1 32.1L414.2 347.9z" class="i"/><polygon points="425 345.6 413.1 314.3 425.8 345.3 " class="i"/><polygon points="436.2 341.3 418.2 310.8 436.9 340.8 " class="i"/><polygon points="445.4 335.6 423 306.7 446.1 335.1 " class="i"/><polygon points="451 328.1 426.7 301.7 451.6 327.5 " class="i"/><polygon points="458.3 319.4 430.7 295.9 458.8 318.8 " class="i"/><polygon points="463 307 434.3 289.3 463.4 306.3 " class="i"/><path d="M376.3 292.1c0 0 28.1 6.1 39.7-30 0 0-8.4-5.4-26.6 8.5C371.2 284.6 376.3 292.1 376.3 292.1z" class="h"/><path d="M380.7 292.9c-2.8 0-4.4-1.2-4.4-1.2 0.3 0.1 27.8 5.6 39.2-29.7 0 0-0.4 3.9-1.1 5.5 -3.6 8.6-8.2 14.3-12.9 18.1 -6 4.8-12.3 6.5-17.1 7.1C383 292.8 381.8 292.9 380.7 292.9z" class="i"/><path d="M277 193c-1.3 3.5-3.9 5.8-5.9 5.1 -2-0.7-2.6-4.2-1.4-7.7 1.3-3.5 3.9-5.8 5.9-5.1C277.6 186 278.2 189.5 277 193z"/><circle cx="274.2" cy="187.3" r="2.1" class="l"/><circle cx="276.4" cy="190.8" r="1.1" class="l"/><circle cx="272.1" cy="197" r="1.2" class="l"/><ellipse transform="matrix(0.9108 -0.4129 0.4129 0.9108 -50.701 164.0367)" cx="354.3" cy="199.3" rx="5.2" ry="8.1"/><path d="M354.2 194.6c0 1.6-1.3 2.9-2.9 2.9 -1.6 0-2.9-1.3-2.9-2.9 0-1.6 1.3-2.9 2.9-2.9C352.9 191.8 354.2 193.1 354.2 194.6z" class="l"/><circle cx="356.4" cy="194.9" r="1.1" class="l"/><path d="M359.8 204.3c0 0.9-0.7 1.6-1.6 1.6 -0.9 0-1.6-0.7-1.6-1.6 0-0.9 0.7-1.6 1.6-1.6C359.1 202.7 359.8 203.4 359.8 204.3z" class="l"/><path d="M273.6 302.1c0 0 16.8 31.1 56.1 4.9C316.6 329.6 284.6 338.5 273.6 302.1z" fill="#F88803"/></svg>