<svg version="1.1" id="Layer_1" xmlns="http://www.w3.org/2000/svg" xmlns:xlink="http://www.w3.org/1999/xlink" viewBox="0 0 768 430" enable-background="new 0 0 768 430" xml:space="preserve">
<path fill="#894C2B" d="M224.182,280.771c16.772,13.748,32.045,1.047,32.045,1.047l5.624-33.058l-38.153,0.478L224.182,280.771z"/>
<path fill="#A75E37" d="M217.765,247.845c-0.003,3.573,10.623,6.483,23.735,6.492c13.107,0.013,23.739-2.879,23.739-6.455
	l0.01-7.258l-47.48,1.488L217.765,247.845z"/>
<path fill="#6B3116" d="M241.502,248.604c13.112,0.011,23.736-2.879,23.746-6.455c-0.001-3.574-10.625-6.484-23.738-6.497
	c-13.108-0.006-23.736,2.882-23.742,6.46C217.767,245.686,228.391,248.593,241.502,248.604z"/>
<path fill="#D8B08E" d="M231.935,233.432l-1.106,7.164c0,0,9.148,5.601,16.275,1.028c0,0,0.003-3.366,0.007-8.001
	C243.857,234.58,238.307,235.479,231.935,233.432z"/>
<path fill="#D8B08E" d="M233.839,221.105l-1.052,6.827c5.913,1.812,11.083,1.117,14.327,0.236c0.004-2.342,0.004-4.766,0.004-7.122
	C244.072,221.878,239.313,222.537,233.839,221.105z"/>
<path fill="#D8B08E" d="M247.247,156.981c0.035-1.988,0.076-4.091,0.12-6.253c-2.252,0.267-5.525,0.389-9.563-0.27
	c-0.083,1.172-0.176,2.384-0.291,3.673c-0.064,0.657-0.123,1.346-0.186,2.049C241.331,157.045,244.715,157.145,247.247,156.981z"/>
<path fill="#D8B08E" d="M247.789,133.329c0.23-8.365,0.433-14.795,0.433-14.795s-8.136-1.53-9.157-0.005
	c-1.018,1.522-1.025,7.626-1.027,12.708c-0.001,0.693,0.01,1.427,0.022,2.181c1.032,0.146,2.165,0.276,3.537,0.372
	C244.177,133.959,246.196,133.713,247.789,133.329z"/>
<path fill="#D8B08E" d="M247.501,144.67c0.051-2.059,0.098-4.117,0.151-6.121c-2.274,0.254-5.53,0.341-9.51-0.332
	c0.02,1.807,0.013,3.837-0.045,6.097C242.008,144.976,245.224,144.911,247.501,144.67z"/>
<path fill="#D8B08E" d="M235.29,181.723c-0.176,2.695-0.298,4.972-0.336,6.529c4.919,1.162,9.249,0.495,12.194-0.393
	c0-2.217,0.004-4.435,0.006-6.612C244.27,182.116,240.071,182.777,235.29,181.723z"/>
<path fill="#D8B08E" d="M236.465,166.172c-0.213,2.52-0.418,5.065-0.604,7.521c4.476,1.003,8.432,0.497,11.296-0.279
	c0.002-2.88,0.007-5.576,0.005-7.935C244.514,166.275,240.764,166.892,236.465,166.172z"/>
<path fill="#D8B08E" d="M234.804,195.334c-0.056,1.826-0.121,3.864-0.195,6.006c5.069,1.266,9.518,0.758,12.526,0.008
	c0-2.041,0.005-4.177,0.005-6.374C244.162,195.876,239.782,196.546,234.804,195.334z"/>
<path fill="#D8B08E" d="M234.396,207.527c-0.083,2.23-0.164,4.362-0.234,6.262c5.186,1.508,9.776,1.114,12.967,0.388
	c0-0.004,0-0.01,0-0.018c-0.003-1.847,0-4.185,0-6.847C244.181,208.116,239.645,208.779,234.396,207.527z"/>
<g>
	<path fill="#C28760" d="M232.787,227.933l-0.852,5.499c6.372,2.048,11.922,1.148,15.176,0.191c0-1.686,0.002-3.539,0.002-5.454
		C243.87,229.05,238.699,229.745,232.787,227.933z"/>
	<path fill="#C28760" d="M247.652,138.549c0.049-1.799,0.095-3.548,0.137-5.22c-1.593,0.384-3.612,0.63-6.192,0.46
		c-1.373-0.096-2.505-0.225-3.537-0.372c0.026,1.447,0.062,3.035,0.082,4.799C242.122,138.891,245.378,138.803,247.652,138.549z"/>
	<path fill="#C28760" d="M247.367,150.728c0.04-1.988,0.085-4.023,0.134-6.058c-2.277,0.241-5.493,0.306-9.404-0.356
		c-0.049,1.871-0.136,3.896-0.293,6.144C241.841,151.117,245.114,150.995,247.367,150.728z"/>
	<path fill="#C28760" d="M234.954,188.251c-0.008,0.355-0.015,0.695-0.015,0.975c-0.003,1.135-0.056,3.371-0.135,6.108
		c4.978,1.211,9.357,0.542,12.336-0.359c0.001-2.33,0.004-4.719,0.007-7.117C244.202,188.747,239.873,189.413,234.954,188.251z"/>
	<path fill="#C28760" d="M234.162,213.79c-0.15,4.054-0.267,6.969-0.267,6.969l-0.056,0.347c5.474,1.432,10.233,0.772,13.279-0.059
		c0.006-2.445,0.007-4.806,0.011-6.87C243.938,214.904,239.348,215.298,234.162,213.79z"/>
	<path fill="#C28760" d="M247.247,156.981c-2.532,0.164-5.917,0.064-9.92-0.801c-0.275,3.042-0.576,6.485-0.861,9.992
		c4.298,0.72,8.049,0.103,10.697-0.693c0.002-0.051,0-0.104,0.002-0.15C247.168,163.011,247.203,160.142,247.247,156.981z"/>
	<path fill="#C28760" d="M235.861,173.694c-0.218,2.885-0.415,5.617-0.572,8.029c4.781,1.055,8.98,0.393,11.864-0.476
		c0.002-2.705,0.003-5.338,0.003-7.832C244.293,174.19,240.337,174.697,235.861,173.694z"/>
	<path fill="#C28760" d="M234.609,201.341c-0.068,2.037-0.144,4.139-0.213,6.187c5.249,1.251,9.785,0.588,12.732-0.214
		c0.005-1.846,0.007-3.852,0.007-5.964C244.127,202.099,239.679,202.607,234.609,201.341z"/>
</g>
<path fill="#5C815B" d="M242.255,137.855c0,0-29.349-11.408-34.155-32.022c-4.813-20.607-20.209-34.258-20.209-34.258
	s22.03,11.939,25.42,20.199c3.389,8.256,10.83,25.358,13.517,28.325C229.51,123.058,242.255,137.855,242.255,137.855z"/>
<path fill="#809A6F" d="M242.255,137.855c0,0,1.871-15.851,9.762-28.132c7.884-12.274,13.023-35.741,14.977-41.602
	c1.949-5.863,10.52-15.193,10.52-15.193s-4.535,15.241-5.809,22.873c-1.272,7.63-5.766,28.748-10.362,36.353
	C256.748,119.756,242.255,137.855,242.255,137.855z"/>
<path fill="#809A6F" d="M242.255,137.855c0,0-9.499-25.35-8.945-39.455c0.555-14.099-8.283-40.031-8.283-40.031
	s10.056,10.661,13.472,23.034c3.422,12.369,3.46,17.072,4.217,30.008C243.48,124.349,242.255,137.855,242.255,137.855z"/>
<path fill="#5C815B" d="M242.255,137.855c0,0,20.564-6.885,29.057-26.208c8.496-19.321,20.378-30.978,20.378-30.978
	s-20.496,15.111-23.102,22.141c-2.611,7.027-16.457,22.197-16.457,22.197L242.255,137.855z"/>
<path fill="#5C815B" d="M242.255,137.855c0,0-0.249-32.916,5.619-48.145c5.869-15.234,7.716-34.616,7.716-34.616
	s2.114,15.887,1.55,29.401c-0.558,13.516-8.995,41.068-8.995,41.068L242.255,137.855z"/>
<path fill="#5C815B" d="M242.255,137.855c0,0-4.902-32.365-12.982-45.364c-8.075-12.998-18.21-33.65-18.21-33.65
	s-1.175,19.972,6.906,33.559C226.053,105.981,242.255,137.855,242.255,137.855z"/>
<path fill="#809A6F" d="M242.255,137.855c0,0-12.251-37.126-23.604-43.099c-11.348-5.97-28.028-13.167-28.028-13.167
	s20.769,20.159,28.141,27.859C226.138,117.15,242.255,137.855,242.255,137.855z"/>
<path fill="#D95A26" d="M392.025,162.91c0,0,23.781,28.433,21.713,37.223c-2.067,8.789-17.059,9.307-24.297,7.235
	C382.202,205.299,392.025,162.91,392.025,162.91z"/>
<path fill="#D95A26" d="M382.719,150.502c0,0-6.287-1.425-12.837-3.134c-16.938,15.729-31.963,8.886-38.91,3.973
	c-9.534,3.593-23.214,7.433-23.214,7.433l14.477,71.342l67.207,3.104L382.719,150.502z"/>
<path fill="#657BAF" d="M527.988,224.948l-13.956,8.787l-10.856-33.089c0,0-17.575-76.509-20.68-79.094
	c-3.102-2.586-37.225-7.242-37.225-7.242V96.217c0,0,46.013,2.586,51.698,10.341l1.343,2.155c0,0,1.945,0.65,3.244,1.946
	c1.297,1.295,4.862,6.808,5.512,8.106c0.65,1.299,4.539,4.216,5.836,7.135c1.299,2.918,0.65,2.267,3.243,7.456
	c2.595,5.19,4.866,10.054,5.189,11.349c0.323,1.297,5.188,8.106,5.837,9.08c0.646,0.972,0.325,2.271,1.945,5.189
	c1.62,2.919,4.864,9.402,5.513,10.374c0.646,0.974,1.296,6.81,1.296,7.783c0,0.973,0.972,3.245,0.324,8.756
	c-0.648,5.513-0.324,7.785-0.324,10.054c0,2.268-0.649,4.863-0.649,4.863s-1.295,4.542-1.295,5.838
	C533.983,207.938,527.988,224.948,527.988,224.948z"/>
<path fill="#657BAF" d="M395.643,224.432l-23.78-0.519c0,0,1.034-94.093,6.206-102.881c5.167-8.788,41.357-21.71,41.357-21.71
	l77.544,13.955c0,0,12.924,61.007,12.924,62.558c0,1.547,0.521,46.527,0.521,46.527l-96.676,12.925c0,0,4.807-19.243,5.78-20.862
	c0.971-1.623,0.324-1.945,0.324-3.892c0-1.945,1.62-4.218,1.945-5.835c0.325-1.624,1.945-3.247,2.27-6.163
	c0.325-2.92-3.243-9.402-3.89-11.348c-0.649-1.946-1.298-2.918-1.623-3.891c-0.323-0.971-2.269-4.864-2.269-4.864
	s-6.486-9.727-8.755-13.296c-2.272-3.568-2.595-3.568-3.243-4.54c-0.648-0.974-3.893-5.837-4.217-7.133
	c-0.322-1.295-1.62-3.568-1.945-4.542c-0.322-0.972-2.594-2.59-2.594-2.59s0,5.836,0,8.427c0,2.595,0,4.218,0,5.514
	c0,1.295-0.972,7.458-0.972,9.078c0,1.623,0.324,4.218,0,5.514c-0.325,1.296-0.648,1.947-0.648,2.918
	c0,0.973,1.296,6.487,1.296,6.487s-1.618,11.022-0.973,17.183c0.649,6.164,0.326,7.46,0,11.029
	C393.902,216.043,395.643,224.432,395.643,224.432z"/>
<path fill="#F8A32B" d="M262.297,321.229c0,0-8.76-16.387-11.946-31.346c-3.189-14.958-3.983-15.675-3.983-18.522
	s-1.595-9.258-1.595-12.11s3.185-1.423,1.595-10.687c-1.595-9.26-5.573-18.524-1.595-20.658c3.982-2.137,12.745-8.548,37.438-6.416
	c24.694,2.14,27.082,2.852,29.472,2.14c2.391-0.713,7.17-3.562,19.116-4.987c11.951-1.425,53.897,0,55.492,2.848
	c1.593,2.852,3.983,35.621,3.983,39.898c0,4.272-0.799,8.547,0.793,12.82c0,0-2.121,27.785-2.121,33.484s0,5.699,0,5.699
	s6.377,5.699,0.8,7.128c-5.575,1.424-27.082,2.845-50.184,2.845c-23.098,0-66.111,0.714-68.503,0.714
	C268.673,324.078,262.297,321.229,262.297,321.229z"/>
<path fill="#F8A32B" d="M511.66,321.229c0,0,8.76-16.387,11.947-31.346c3.185-14.958,3.982-15.675,3.982-18.522
	s1.593-9.258,1.593-12.11s-3.185-1.423-1.593-10.687c1.593-9.26,5.574-18.524,1.593-20.658c-3.979-2.137-12.745-8.548-37.437-6.416
	c-24.689,2.14-27.084,2.852-29.474,2.14c-2.388-0.713-7.171-3.562-19.114-4.987c-11.946-1.425-53.897,0-55.488,2.848
	c-1.592,2.852-3.984,35.621-3.984,39.898c0,4.272,0.794,8.547-0.796,12.82c0,0,2.117,27.785,2.117,33.484s0,5.699,0,5.699
	s-6.37,5.699-0.797,7.128c5.581,1.424,27.085,2.845,50.19,2.845c23.093,0,66.104,0.714,68.494,0.714
	C505.284,324.078,511.66,321.229,511.66,321.229z"/>
<path fill="#DE8027" d="M247.734,380.96l-3.254-39.185h15.465l-3.254,39.185C256.69,380.96,248.551,383.094,247.734,380.96z"/>
<path fill="#DE8027" d="M518.763,380.96l-3.257-39.185h15.469l-3.26,39.185C527.715,380.96,519.575,383.094,518.763,380.96z"/>
<path fill="#D05F24" d="M259.128,311.254c0,0,100.111-6.412,111.504-4.985c11.396,1.424,18.722,1.424,18.722,1.424
	s44.763-2.134,78.947,0c34.183,2.139,46.392,0.713,48.834,4.273c2.44,3.564-6.512,15.672-6.512,15.672l-241.727,2.138
	L259.128,311.254z"/>
<path fill="#F5902B" d="M557.647,275.576c-2.93-3.82-10.551-12.105-16.997-10.832c-6.45,1.275-9.965,0-13.482,4.463
	c-3.515,4.458-4.1,3.183-5.275,7.643c-1.17,4.462-2.934,8.285-5.277,14.655c-2.341,6.371-8.202,24.216-11.134,24.852
	c-2.926,0.639-13.479,0.639-13.479,0.639s-123.783-2.99-146.367-1.229c-22.59-1.761-69.562,1.974-69.562,1.974
	s-10.553,0-13.479-0.637c-2.929-0.638-8.792-18.479-11.136-24.85c-2.346-6.374-4.103-10.193-5.276-14.653
	c-1.17-4.462-1.758-3.187-5.274-7.649c-3.519-4.46-7.034-3.182-13.48-4.46c-6.445-1.271-14.067,7.01-16.996,10.833
	c-2.932,3.824-1.174,15.295,2.928,22.3c4.104,7.011,12.897,40.78,15.242,47.787c2.341,7.012,16.409,10.198,18.167,9.559
	c1.758-0.635,1.758,0,5.273,0c3.516,0,18.757-0.635,23.442-0.635c4.692,0,5.278-0.637,8.208-1.912
	c2.928-1.273,7.032-0.639,12.304-0.639c5.278,0,12.312,0,17,0c4.69,0,5.273,0,13.479,0c8.203,0,4.1,0,6.445,0
	c1.808,0,8.812,0,11.943,0c0.932,0,1.538,0,1.538,0c3.131,0,10.137,0,11.942,0c2.347,0-1.759,0,6.448,0c8.203,0,8.79,0,13.481,0
	c4.686,0,11.719,0,16.993,0c5.279,0,86.188-1.379,89.12-0.108c2.93,1.275,3.515,1.915,8.198,1.915
	c4.694,0,19.933,0.633,23.446,0.633c3.519,0,3.519-0.633,5.276,0c1.762,0.638,15.828-2.548,18.174-9.558
	c2.34-7.005,11.129-40.778,15.237-47.789C558.817,290.87,560.572,279.4,557.647,275.576z"/>
<path fill="#E1A074" d="M369.882,147.368c-7.125-1.861-14.56-4.06-14.56-5.137c0-2.069-2.071-14.478-2.071-14.478
	s-18.093-17.578-12.924,2.066c5.17,19.648-0.517,17.064-0.517,17.064c-0.823,1.151-4.38,2.777-8.838,4.457
	C337.918,156.254,352.943,163.096,369.882,147.368z"/>
<path fill="#B65724" d="M323.531,113.192c0,0,1.33,7.614,2.82,11.456c1.488,3.843,2.869,10.278,2.869,10.278l3.958-9.751
	l-3.662-13.855L323.531,113.192z"/>
<path fill="#B65724" d="M371.942,113.361c0,0-3.054,10.735-4.137,13.995c-1.086,3.26-1.398,5.138-1.398,5.138l-4.119-8.681
	l3.988-10.458L371.942,113.361z"/>
<path fill="#CCCECF" d="M287.94,174.626c0,0-2.756-12.407,0.688-18.265c3.448-5.859,8.619-3.792,8.619-3.792
	s-2.413-7.584,12.752-8.272c15.162-0.69,28.603,18.612,19.989,34.464C321.374,194.619,287.94,174.626,287.94,174.626z"/>
<path fill="#FFFFFF" d="M456.815,203.579c0,0-7.234,8.96-8.615,15.509c-1.376,6.546-4.825,39.633-11.713,50.665
	c-6.895,11.025-32.744,11.025-32.744,11.025l4.827,14.822c0,0,37.912-4.827,42.392-15.51c4.477-10.686,7.929-37.226,7.929-37.226
	L456.815,203.579z"/>
<path fill="#E1A074" d="M434.156,329.182c0,0,19.116,32.836,23.997,41.591c4.882,8.758,8.542,13.576,8.542,13.576
	s-2.435,20.573,3.258,19.262c5.695-1.314,9.354-13.134,8.132-21.013c-1.216-7.882-4.066-3.067-6.507-7.443
	c-2.443-4.382-21.557-45.533-21.557-45.533L434.156,329.182z"/>
<path fill="#E1A074" d="M451.245,321.74c0,0,19.113,32.835,23.995,41.593c4.877,8.756,8.537,13.572,8.537,13.572
	s-2.437,20.574,3.259,19.262c5.693-1.312,9.355-13.134,8.133-21.013c-1.218-7.879-4.069-3.065-6.505-7.443
	c-2.442-4.378-21.561-45.531-21.561-45.531L451.245,321.74z"/>
<path fill="#FFFFFF" d="M456.479,201.854c0,0-0.348,19.302-1.726,37.566c-1.379,18.271-9.307,52.386-9.307,52.386
	s0-2.756,21.367-2.067c21.367,0.689,29.298,2.071,33.433,4.829c4.136,2.757,4.136,2.757,4.136,2.757s6.893-15.856,4.135-41.359
	c-2.757-25.503-9.646-56.179-18.956-59.625c-9.304-3.447-9.304-3.447-9.304-3.447L456.479,201.854z"/>
<path fill="#2F6D95" d="M336.882,206.681c0,0,12.061,14.817,14.817,26.884c2.76,12.06,5.517,34.805,11.374,39.977
	c5.859,5.17,35.156,7.237,35.156,7.237l-0.69,15.509c0,0-45.493,13.442-57.901-15.162
	C327.231,252.519,336.882,206.681,336.882,206.681z"/>
<path fill="#E1A074" d="M389.112,378.834l2.07,9.648l-1.036,4.134l-6.892,1.727l-15.512-2.068c0,0-2.413-6.896,1.381-11.373
	C372.914,376.421,389.112,378.834,389.112,378.834z"/>
<path fill="#B4601C" d="M377.736,392.966c0,0,3.449-8.276,7.585-8.965c4.135-0.69,7.927-0.342,7.927-0.342
	s11.374,8.957,9.995,12.062c-1.38,3.103-28.606,0-32.74-0.688c-4.139-0.689-9.307-1.036-9.307-3.446
	c0-2.414,2.757-2.068,2.757-2.068L377.736,392.966z"/>
<path fill="#E1A074" d="M329.988,379.695l2.068,9.646l-1.035,4.139l-6.894,1.722l-15.507-2.067c0,0-2.413-6.891,1.379-11.374
	C313.789,377.281,329.988,379.695,329.988,379.695z"/>
<path fill="#FDE6DC" d="M263.442,283.57c0,0-3.438,27.509,9.521,32.486c12.959,4.979,24.333,3.406,24.333,3.406
	s3.701,29.338,4.761,34.316c1.057,4.978,2.379,6.549,2.645,8.906c0.263,2.36,0.263,7.338,0.529,8.907
	c0.262,1.573,1.584,11.266,1.584,11.266s9.256,1.311,13.755,1.311c4.496,0,12.43-2.358,12.43-2.358s-2.909-42.44-3.967-48.988
	c-1.059-6.549-1.589-13.622-1.589-13.622l31.563,1.457c0,0,2.645,22.271,3.438,26.984c0.795,4.718,0.795,3.932,1.587,11.263
	c0.792,7.339,3.172,23.318,3.172,23.318s8.465,2.358,12.696,1.835c4.232-0.526,10.579-2.361,10.579-2.361
	s-5.554-42.699-5.288-44.533c0.263-1.834,0-1.571,0-6.025c0-4.453-2.644-18.863-2.91-21.218c-0.265-2.357-1.851-12.577-6.612-14.146
	c-4.762-1.575-61.976-6.176-61.976-6.176L263.442,283.57z"/>
<path fill="#E1A074" d="M374.166,303.695c0,0-6.475,5.276-6.955,4.078c-0.479-1.2,1.201-2.877,1.201-2.877s-4.795,1.437-5.035-0.96
	c-0.239-2.398,7.673-3.117,8.871-2.639C373.446,301.776,374.166,303.695,374.166,303.695z"/>
<path fill="#E1A074" d="M419.959,306.573c0,0,3.355,5.273,4.792,4.316c1.439-0.96-0.719-2.159-0.719-2.159s6.233,2.159,6.712-0.479
	c0.481-2.642-8.392-3.355-8.392-3.355L419.959,306.573z"/>
<path fill="#FFDA25" d="M389.51,279.242c0,0-5.992,11.269-8.391,13.906c-2.398,2.635-2.398,2.635-2.398,2.635
	s-1.917,1.441-2.875,1.92c-0.961,0.479-6.234,3.357-6.234,3.357s2.395,0.716,2.878,1.678c0.48,0.957,0.718,2.158,0.718,2.158
	s10.311-4.317,12.467-8.153c2.159-3.839,5.993-11.985,5.993-11.985L389.51,279.242z"/>
<path fill="#FFDA25" d="M408.448,278.042c0,0,4.557,15.823,8.39,19.183c3.838,3.354,8.396,8.148,8.396,8.148s-0.482,0-1.683,0.479
	c-1.198,0.481-2.875,2.642-2.875,2.642s-4.316-4.077-7.434-7.674c-3.114-3.595-7.668-12.946-7.668-12.946L408.448,278.042z"/>
<path fill="#E1A074" d="M365.193,330.272c-0.686,0.781-1.098,1.235-1.098,1.235s-7.67-5.995-9.108-3.359
	c-1.441,2.64,8.39,10.792,11.508,8.632c0.511-0.355,1.445-1.2,2.643-2.348C368.112,332.33,366.394,330.995,365.193,330.272z"/>
<path fill="#264670" d="M383.037,307.053c0,0-5.276,7.911-9.83,13.666c-3.201,4.04-6.39,7.718-8.014,9.554
	c1.201,0.723,2.918,2.058,3.945,4.16c6.061-5.834,18.934-19.71,18.934-19.71l4.553,0.722c0,0-5.742,14.734-8.608,21.125
	c1.636-0.124,4.159,0.526,6.246,4.709c4.617-8.308,13.063-26.321,13.63-29.913C404.614,306.812,383.037,307.053,383.037,307.053z"/>
<path fill="#E1A074" d="M384.017,336.569c-0.695,1.549-1.225,2.617-1.458,2.85c0,0-6.953-4.554-8.632-0.96
	c-1.678,3.598,11.507,8.63,13.666,6.955c0.458-0.357,1.427-1.899,2.671-4.136C388.176,337.096,385.652,336.445,384.017,336.569z"/>
<path fill="#FFDA25" d="M389.988,279.242c0,0-1.979,15.078-3.116,17.982c-2.157,5.514-5.753,11.027-5.753,11.027
	s5.275,0.479,8.152,0.72c2.876,0.24,12.224,2.875,14.146,3.114c1.918,0.242,2.395,0.242,2.395,0.242s0.96-9.11,1.201-11.268
	c0.239-2.16-0.479,0.716,0.239-3.357c0.719-4.077,0.719-5.995,0.719-8.151c0-3.234-0.495,2.324,0-3.119
	c0.479-5.272,0.237-8.391,0.237-8.391L389.988,279.242z"/>
<path fill="#FFFFFF" d="M393.827,279.722c0,0-3.117,6.951-2.16,6.711c0.958-0.237,4.313-4.315,4.313-4.315l-1.755,6.874l4.153,0.639
	l0.802-7.031c0,0,3.755,6.474,4.474,5.274c0.722-1.2-1.439-9.111-1.439-9.111L393.827,279.722z"/>
<path fill="#E1A074" d="M419.657,262.27c0,10.616-10.585,19.225-23.644,19.225c-13.061,0-23.648-8.608-23.648-19.225
	c0-10.62,10.587-19.228,23.648-19.228C409.072,243.042,419.657,251.649,419.657,262.27z"/>
<ellipse fill="#E1A074" cx="372.367" cy="262.158" rx="5.083" ry="4.53"/>
<path fill="#E1A074" d="M426.951,262.822c0,2.5-2.274,4.531-5.085,4.531c-2.805,0-5.08-2.031-5.08-4.531
	c0-2.504,2.275-4.529,5.08-4.529C424.677,258.293,426.951,260.318,426.951,262.822z"/>
<ellipse fill="#552C00" cx="389.375" cy="261.989" rx="1.547" ry="2.1"/>
<ellipse fill="#552C00" cx="403.297" cy="261.989" rx="1.548" ry="2.1"/>
<path fill="none" stroke="#552C00" stroke-width="1.3619" stroke-linecap="round" stroke-linejoin="round" d="M395.343,264.974
	c0,0-1.104,1.327,0.221,1.771"/>
<path fill="#AB6136" d="M411.919,237.077c-9.639-2.16-14.129,0.008-17.014,1.547c-2.014-1.539-4.06-3.93-13.699-1.766
	c-12.815,2.869-11.711,21.651-11.711,21.651s2.651,0,3.534,0.446c0.886,0.439,4.199,7.071,4.199,7.071s0-0.887,0-3.537
	c0-2.652,1.549-4.862,1.549-4.862l2.65,5.302c0,0,0-1.987,2.874-6.627c2.872-4.642,11.046-6.631,11.046-6.631
	s9.724,1.989,12.598,6.631c2.876,4.64,2.876,6.627,2.876,6.627l2.645-5.302c0,0,1.555,2.21,1.555,4.862c0,2.65,0,3.537,0,3.537
	s3.312-6.632,4.194-7.071c0.886-0.446,3.538-0.446,3.538-0.446S424.738,239.948,411.919,237.077z"/>
<path fill="none" stroke="#552C00" stroke-width="1.3619" stroke-linecap="round" stroke-linejoin="round" d="M413.293,257.611
	c0,0,0.275-1.233,0.204-1.509c-0.071-0.272,0.071-0.408-0.071-0.683c-0.133-0.273-0.272-1.164-0.337-1.368
	c-0.068-0.207-0.068-0.411-0.14-0.615c-0.067-0.205-0.066-0.276-0.273-0.688c-0.203-0.407-0.066-0.616-0.408-0.957
	c-0.349-0.342-0.07-0.684-0.411-0.959c-0.343-0.274-0.752-0.203-0.958-0.614c-0.208-0.409,0-0.138-0.409-0.684
	c-0.415-0.548-0.48-0.957-0.825-1.301c-0.34-0.343-0.887-1.095-1.162-1.3c-0.274-0.203,0,0.413-0.753-0.479
	c-0.753-0.89-0.614-1.161-1.508-1.641c-0.886-0.479-1.093-0.686-1.848-1.095c-0.749-0.412-1.091-0.548-1.091-0.548
	s0.138,0.205-0.409-0.207c-0.55-0.409-0.278-0.409-1.165-0.409c-0.892,0-0.892,0-0.892,0"/>
<path fill="none" stroke="#552C00" stroke-width="1.3619" stroke-linecap="round" stroke-linejoin="round" d="M409.938,240.643
	l1.439,0.887c0,0-0.069,0.412,0.34,0.548c0.411,0.138,0.546,0.072,0.683,0.409c0.137,0.343-0.066,0.411,0.209,0.55
	c0.272,0.137,0.748,0.137,0.888,0.412c0.135,0.272,0,0.136,0.41,0.682c0.412,0.545,0.822,0.686,1.165,1.165
	c0.342,0.475,0.957,0.408,1.504,1.437c0.547,1.024,0.343,1.094,0.611,1.366c0.278,0.273,0.759,0.206,1.031,0.96
	c0.272,0.752,0.342,0.614,0.342,1.231c0,0.615,0.067,0.478,0.137,0.819c0.064,0.342,0.342,0.617,0.478,1.024
	c0.138,0.414,0.275,0.412,0.275,1.027c0,0.616,0,0.685,0.203,1.37c0.211,0.681,0.413,1.094,0.48,1.915
	c0.065,0.818,0.688-0.205,0.065,0.818c-0.612,1.029-0.887,1.507-0.887,1.507"/>
<path fill="none" stroke="#552C00" stroke-width="1.3619" stroke-linecap="round" stroke-linejoin="round" d="M388.678,266.454
	c0,0-0.092,0.458,0.139,0.686c0.232,0.23,0.324,0.345,0.37,0.517c0.048,0.172-0.277-0.229,0.279,0.458
	c0.557,0.691,0.603,1.032,1.112,1.491c0.511,0.458,2.178,1.201,2.871,1.318c0.697,0.113,1.347,0.231,1.95,0.346
	c0.599,0.113,0.646,0.4,1.528,0.228c0.881-0.171,1.851-0.573,1.99-0.573c0.139,0,1.58-0.63,1.763-0.803
	c0.188-0.171,0.788-0.399,1.16-0.747c0.369-0.341,0.879-0.513,1.019-0.802c0.14-0.286,0,0.115,0.278-0.458s0.414-0.744,0.462-0.915
	c0.045-0.171,0.231-1.034,0.231-1.034"/>
<path fill="#EAC624" d="M397.5,287.676c0,0.545-0.443,0.991-0.995,0.991c-0.543,0-0.989-0.446-0.989-0.991
	c0-0.55,0.446-0.994,0.989-0.994C397.057,286.682,397.5,287.126,397.5,287.676z"/>
<circle fill="#EAC624" cx="397.146" cy="284.795" r="0.994"/>
<path fill="#B4601C" d="M318.614,393.824c0,0,3.446-8.271,7.583-8.963c4.136-0.686,7.923-0.344,7.923-0.344
	s11.375,8.963,9.999,12.063c-1.379,3.105-28.606,0-32.743-0.688c-4.136-0.69-9.305-1.033-9.305-3.445
	c0-2.415,2.757-2.067,2.757-2.067L318.614,393.824z"/>
<path fill="#2F6D95" d="M290.354,194.272c0,0-32.022,12.408-32.554,42.048c-0.438,24.364,2.914,51.351,6.016,56.869
	c3.1,5.514,31.018,17.229,31.018,17.229s1.034-4.479,8.271-12.062c7.238-7.582,14.821-7.928,14.821-7.928s15.508,0.689,18.956,5.859
	c3.444,5.171,4.136,7.585,4.136,7.585l6.547-11.031c0,0-1.379-21.71-4.136-33.773c-2.757-12.062-3.792-13.786-3.792-13.786
	c-1.561-32.457-0.572-32.781-2.755-38.601c-1.036-2.757-15.508-12.408-15.508-12.408H290.354z"/>
<path fill="none" stroke="#552C00" stroke-width="1.3619" stroke-linecap="round" stroke-linejoin="round" d="M299.66,301.458
	c0,0-45.495,2.068-45.151-26.882"/>
<path fill="#E1A074" d="M304.498,297.862l2.732,0.603c0,0,6.981,4.506,12.742,4.205c5.767-0.297,5.767-0.297,5.767-0.297
	s8.799,5.108,10.01,3.302c1.212-1.8-4.248-14.722-7.586-16.527c-3.336-1.803-19.109-4.809-20.63-4.208
	C306.017,285.544,304.498,297.862,304.498,297.862z"/>
<path fill="none" stroke="#552C00" stroke-width="1.3619" stroke-linecap="round" stroke-linejoin="round" d="M333.932,305.374
	c0,0-4.856-5.406-6.98-6.008c-2.125-0.601-3.642-1.203-3.642-1.203"/>
<path fill="none" stroke="#552C00" stroke-width="1.3619" stroke-linecap="round" stroke-linejoin="round" d="M335.144,302.67
	c0,0-4.552-5.108-5.46-6.01c-0.912-0.9-5.16-1.803-5.16-1.803"/>
<path fill="none" stroke="#552C00" stroke-width="1.3619" stroke-linecap="round" stroke-linejoin="round" d="M332.107,294.559
	c0,0-2.73-2.404-3.944-2.404"/>
<path fill="#2F6D95" d="M278.635,204.954c0,0-20.334,19.994-22.747,36.535c-2.414,16.543-5.86,46.527,9.651,52.388
	c15.509,5.857,45.837,9.995,45.837,9.995s-2.412-8.964-1.033-11.718c1.377-2.758,3.445-6.895,3.445-6.895
	s-37.222-4.135-37.222-15.854C276.567,257.69,278.635,204.954,278.635,204.954z"/>
<path fill="none" stroke="#552C00" stroke-width="1.3619" stroke-linecap="round" stroke-linejoin="round" d="M310.343,292.154
	c0,0,0.689-4.483,2.757-6.55c2.067-2.069,3.101-3.102,3.101-3.102s-30.672-1.378-32.398-7.582
	c-1.72-6.203,0.175-27.744,0.175-27.744"/>
<path fill="#FFFFFF" d="M288.975,200.82l11.027,22.403c0,0,2.414-4.825,5.517-5.514c3.102-0.69,7.928,0,7.928,0l2.893-0.153
	l2.622-0.88c0,0,6.547-4.826,8.613-3.449c2.07,1.379,2.759,2.758,2.759,2.758l-2.622-13.626L288.975,200.82z"/>
<path fill="#E1A074" d="M327.711,202.359c0,0-0.267-2.093-0.267-3.666c0-1.572,0.795-9.69,1.325-23.576
	c0.53-13.885-6.347-25.938-22.479-24.625c-16.137,1.309-16.665,32.481-17.457,38.246c-0.794,5.764,0.142,12.082,0.142,12.082
	s11.495,10.393,17.577,12.753c6.085,2.355,9.787,3.983,9.787,3.983S326.39,204.982,327.711,202.359z"/>
<path fill="#E1A074" d="M327.711,178.783c0,0,2.643-5.236,4.759-3.666c2.117,1.57-0.792,12.834-5.288,11.788
	C322.684,185.854,327.711,178.783,327.711,178.783z"/>
<path fill="#FFFFFF" d="M307.344,168.471c0,0-0.262-2.097-2.641-1.574c-2.383,0.525-2.383,3.145-3.175,2.099
	c-0.793-1.051-0.529-2.622,2.381-3.669C306.816,164.277,307.344,168.471,307.344,168.471z"/>
<path fill="#FFFFFF" d="M319.842,168.569c0,0,0.266-2.098,2.645-1.574c2.38,0.522,2.38,3.145,3.175,2.093
	c0.794-1.044,0.528-2.617-2.381-3.664C320.37,164.376,319.842,168.569,319.842,168.569z"/>
<path fill="#E1A074" d="M291.74,177.996c0,0-2.378-5.76-5.025-4.977c-2.643,0.784-2.907,4.716-1.321,7.858
	c1.587,3.146,5.026,7.338,6.083,4.193C292.536,181.929,291.74,177.996,291.74,177.996z"/>
<path fill="#552C00" d="M307.788,174.771c0,1.105-0.657,1.995-1.471,1.995c-0.81,0-1.469-0.89-1.469-1.995
	c0-1.102,0.659-1.995,1.469-1.995C307.131,172.777,307.788,173.669,307.788,174.771z"/>
<ellipse fill="#552C00" cx="322.657" cy="175.663" rx="1.47" ry="1.995"/>
<path fill="none" stroke="#552C00" stroke-width="1.3619" stroke-linecap="round" stroke-linejoin="round" d="M341.361,239.938
	c0,0,8.272,17.058,6.204,51.179"/>
<path fill="#890109" d="M505.678,292.654c0,0-6.084,22.499-15.592,25.355c-9.509,2.855-17.115,3.215-17.115,3.215l0.763,6.784
	c0,0-13.315,5.715-21.681,6.428c-8.366,0.713-21.296,0.355-21.296,0.355s-20.917-27.495-3.803-38.924
	C444.067,284.442,469.165,286.583,505.678,292.654z"/>
<path fill="#C796B4" d="M463.85,388.288c0,0,4.071-2.625,7.324-2.625c3.25,0,4.066,2.625,4.066,2.625s2.034-7.444,1.629-9.634
	c-0.411-2.188-3.664-2.188-3.664-2.188s1.627-4.378,5.288-2.627c3.66,1.753,2.033,15.324,0.814,21.015
	c-1.223,5.69-7.322,11.819-10.982,11.819C464.662,406.674,463.44,392.665,463.85,388.288z"/>
<path fill="#C796B4" d="M480.936,380.845c0,0,4.065-2.626,7.318-2.626c3.252,0,4.068,2.626,4.068,2.626s2.034-7.441,1.629-9.632
	c-0.41-2.189-3.662-2.189-3.662-2.189s1.625-4.376,5.286-2.629c3.659,1.753,2.033,15.327,0.816,21.017
	c-1.223,5.69-7.322,11.819-10.985,11.819C481.747,399.23,480.526,385.224,480.936,380.845z"/>
<path fill="#E1A074" d="M529.543,215.641c0,0-7.758-4.136-11.377-2.068c-3.617,2.068-5.685,16.542-3.101,17.059
	c2.584,0.52,2.584,0.52,2.584,0.52s4.652,6.72,7.242,6.2c2.58-0.517,8.267-7.236,10.338-11.372
	C537.296,221.845,535.741,219.259,529.543,215.641z"/>
<path fill="#E1A074" d="M369.24,108.256c-0.624,14.688-10.96,26.184-23.081,25.667c-12.124-0.517-21.446-12.842-20.822-27.532
	c0.625-14.693,10.958-26.184,23.084-25.667C360.543,81.236,369.865,93.562,369.24,108.256z"/>
<circle fill="#E1A074" cx="323.709" cy="108.129" r="5.686"/>
<path fill="#E1A074" d="M375.362,110.324c-0.133,3.14-2.785,5.577-5.924,5.439c-3.137-0.13-5.575-2.781-5.442-5.919
	c0.137-3.138,2.786-5.573,5.925-5.439C373.06,104.538,375.495,107.189,375.362,110.324z"/>
<path fill="#B65724" d="M344.685,87.875c0,0-5.895,10.849-10.473,13.018c-4.581,2.166-9.141,3.862-9.141,3.862l-2.348-0.335
	c0,0-1.294-25.09,21.458-26.959c22.754-1.866,27.952,20.322,27.109,29.023l-1.649-0.069
	C369.64,106.415,351.237,100.433,344.685,87.875z"/>
<ellipse transform="matrix(0.9991 0.042 -0.042 0.9991 4.8198 -14.164)" fill="#552C00" cx="339.101" cy="107.49" rx="1.527" ry="2.073"/>
<ellipse transform="matrix(0.9991 0.043 -0.043 0.9991 4.9595 -15.1347)" fill="#552C00" cx="354.004" cy="107.624" rx="1.526" ry="2.071"/>
<path fill="none" stroke="#552C00" stroke-width="1.3619" stroke-linecap="round" stroke-linejoin="round" d="M346.992,111.354
	c0,0-4.074,6.916-1.458,6.552c2.611-0.361,2.611-0.361,2.611-0.361"/>
<path fill="none" stroke="#552C00" stroke-width="1.3619" stroke-linecap="round" stroke-linejoin="round" d="M337.782,116.866
	c0,0,0.336,8.753,9.305,8.899c8.97,0.147,8.694-10.021,8.694-10.021"/>
<line fill="none" stroke="#552C00" stroke-width="1.3619" stroke-linecap="round" stroke-linejoin="round" x1="517.649" y1="231.151" x2="519.72" y2="220.812"/>
<line fill="none" stroke="#552C00" stroke-width="1.3619" stroke-linecap="round" stroke-linejoin="round" x1="520.754" y1="233.735" x2="524.37" y2="223.394"/>
<line fill="none" stroke="#552C00" stroke-width="1.3619" stroke-linecap="round" stroke-linejoin="round" x1="524.892" y1="237.352" x2="529.543" y2="226.498"/>
<path fill="#E1A074" d="M401.438,197c0,0,1.86-7.021-0.49-9.542c-2.345-2.518-14.381-1.444-14.307,0.736
	c0.072,2.173,0.072,2.173,0.072,2.173s-4.527,5.017-3.622,6.996c0.905,1.979,7.383,5.287,11.104,6.168
	C397.912,204.408,399.699,202.674,401.438,197z"/>
<line fill="none" stroke="#552C00" stroke-width="1.3619" stroke-linecap="round" stroke-linejoin="round" x1="386.713" y1="190.367" x2="395.423" y2="190.076"/>
<line fill="none" stroke="#552C00" stroke-width="1.3619" stroke-linecap="round" stroke-linejoin="round" x1="385.219" y1="193.351" x2="394.221" y2="194.307"/>
<line fill="none" stroke="#552C00" stroke-width="1.3619" stroke-linecap="round" stroke-linejoin="round" x1="383.091" y1="197.362" x2="392.701" y2="199.053"/>
<path fill="none" stroke="#552C00" stroke-width="1.3619" stroke-linecap="round" stroke-linejoin="round" d="M348.503,84.865
	c0,0,8.176,2.42,12.09,7.76c3.91,5.338,7.242,12.205,7.242,12.205s-0.011-11.897-8.979-20.042"/>
<path fill="#F9BDA8" d="M461.299,204.783c0,0,1.034,8.79,1.551,13.442c0.518,4.652,1.552,6.724,1.552,14.475
	c0,7.757,0,19.13-0.515,23.266c-0.52,4.134,0.515,13.44-2.588,20.161c-3.1,6.722-4.651,10.856-4.651,10.856
	s7.754-1.033,11.375-1.552c3.62-0.518,8.272-0.518,8.272-0.518l2.066,1.036c0,0,3.619-24.3,3.619-39.807
	c0-15.511-5.686-44.459-5.686-44.459L461.299,204.783z"/>
<path fill="#E1A074" d="M447.152,166.009c0,0-6.604,26.435,5.232,36.073c11.845,9.639,28.844,5.129,35.454-9.188
	c6.608-14.32-5.988-27.986-5.988-27.986l-17.071-10.184l-5.507,0.274l-8.263,1.375L447.152,166.009z"/>
<path fill="#E1A074" d="M448.814,181.945c0.527,3.381-0.813,6.399-2.992,6.736c-2.178,0.34-4.371-2.129-4.898-5.511
	c-0.527-3.381,0.817-6.395,2.993-6.734C446.101,176.1,448.289,178.566,448.814,181.945z"/>
<path fill="#552C00" d="M455.649,184.009c0,1.082-0.646,1.957-1.442,1.957c-0.798,0-1.441-0.875-1.441-1.957
	c0-1.084,0.644-1.959,1.441-1.959C455.003,182.05,455.649,182.925,455.649,184.009z"/>
<ellipse fill="#552C00" cx="468.29" cy="183.534" rx="1.443" ry="1.96"/>
<path fill="none" stroke="#552C00" stroke-width="1.3619" stroke-linecap="round" stroke-linejoin="round" d="M458.446,186.564
	l-1.653,3.855c0,0-0.277,3.58,2.753,3.305c3.031-0.276,3.031-0.276,3.031-0.276"/>
<path fill="none" stroke="#552C00" stroke-width="1.3619" stroke-linecap="round" stroke-linejoin="round" d="M457.32,196.536
	c0,0,3.052,3.805,7.385,2.027c4.324-1.777,4.703-5.207,4.703-5.207s2.981,1.453,3.61,2.984"/>
<path fill="#FFFFFF" d="M466.705,176.375c0,0,1.104-1.929,3.028-1.376c1.93,0.551,2.476,2.477,2.476,2.477s1.653-0.276,1.105-1.652
	C472.761,174.447,468.083,169.494,466.705,176.375z"/>
<path fill="#FFFFFF" d="M456.243,176.375c0,0-1.103-1.929-3.028-1.376c-1.93,0.551-2.48,2.477-2.48,2.477s-1.65-0.276-1.102-1.652
	C450.185,174.447,454.866,169.494,456.243,176.375z"/>
<path fill="#E2E3E4" d="M446.482,176.694c0,0,0.342,1.036,2.065-5.858c1.725-6.894,4.826-5.169,4.826-5.169s2.064,5.514,9.305,3.793
	c7.235-1.723,6.204-4.827,6.204-4.827s0,9.304,8.616,9.304c8.618,0,6.204-1.378,6.204-1.378s-12.41,24.127,4.478,23.782
	c16.891-0.346,16.891-10.684,9.31-17.579c-7.585-6.893-3.105-4.825-3.105-4.825s8.274-2.068-0.341-17.234
	c-8.618-15.161-17.578-3.788-17.578-3.788s3.102-8.617-8.96-9.652c-16.572-1.419-12.409,9.307-12.409,9.307
	s-2.071-7.584-9.995-1.033c-7.929,6.546-1.722,11.373-1.722,11.373s-5.517,0.344-4.484,8.271
	C439.929,179.108,446.482,176.694,446.482,176.694z"/>
<path fill="#E1A074" d="M474.61,289.346c0,0-4.461,0.162-8.915,0c-4.461-0.166-7.949-1.149-7.949-1.149s-6.397,2.95-7.562,1.477
	c-1.16-1.477,5.818-12.28,11.05-12.28c5.238,0,16.288,2.948,16.288,2.948L474.61,289.346z"/>
<path fill="#FFFFFF" d="M490.251,197.719c0,0,12.753,2.413,16.545,18.608c3.789,16.202,10.682,60.661,5.173,65.485
	c-5.519,4.827-37.229,7.926-37.229,7.926s0.691-4.479-1.722-7.926c-2.412-3.446-2.412-3.446-2.412-3.446s32.743-4.825,32.743-8.961
	c0-4.134-6.896-53.764-6.896-53.764L490.251,197.719z"/>
<path fill="none" stroke="#552C00" stroke-width="1.3619" stroke-linecap="round" stroke-linejoin="round" d="M450.962,288.017
	c0,0,6.717-3.104,8.271-3.104c1.55,0,1.55,0,1.55,0"/>
<line fill="none" stroke="#552C00" stroke-width="1.3619" stroke-linecap="round" stroke-linejoin="round" x1="460.782" y1="281.296" x2="453.025" y2="283.364"/>
<path fill="none" stroke="#552C00" stroke-width="1.3619" stroke-linecap="round" stroke-linejoin="round" d="M479.911,276.644
	c0,0,20.164-4.652,20.164-7.755c0-3.101-2.585-35.153-2.585-35.153"/>
<path fill="none" stroke="#552C00" stroke-width="1.3619" stroke-linecap="round" stroke-linejoin="round" d="M486.117,129.307
	c0,0,29.981,43.941,28.948,49.11c-1.033,5.172-3.097,40.325-3.097,40.325"/>
<path fill="none" stroke="#552C00" stroke-width="1.3619" stroke-linecap="round" stroke-linejoin="round" d="M451.994,233.219
	c0,0,2.067,14.475,1.551,19.127c-0.52,4.65-1.551,12.406-2.067,14.992c-0.516,2.586-4.135,16.546-4.135,16.546"/>
<path fill="#FFFFFF" d="M312.901,185.333c0,0-1.854-1.31-5.29,0.521c-3.438,1.836-7.936,3.407-7.936,3.407s5.556,3.142,7.936,2.097
	c2.378-1.049,5.024-4.453,6.875-3.929c1.852,0.522,5.555,5.76,7.669,5.237c2.117-0.522,2.911-1.308,2.911-1.308
	s-1.324-1.049-2.117-2.097c-0.794-1.045-3.967-3.407-5.555-3.928C315.81,184.807,312.901,185.333,312.901,185.333z"/>
<path fill="none" stroke="#552C00" stroke-width="1.3619" stroke-linecap="round" stroke-linejoin="round" d="M315.544,176.952
	c0,0-0.266,0.257,1.059,2.093c1.324,1.833,4.496,4.979,3.173,6.025c-1.321,1.05-5.29,0.523-8.199-1.575"/>
<path fill="none" stroke="#552C00" stroke-width="1.3619" stroke-linecap="round" stroke-linejoin="round" d="M317.777,192.356
	c0,0-3.114,10.008-7.146-1.821"/>
<path fill="#FFFFFF" d="M419.239,112.076l16.681,41.096l9.015-43.554C435.094,116.703,425.499,114.841,419.239,112.076z"/>
<path fill="#E1A074" d="M415.938,103.948l3.301,8.128c6.26,2.765,15.854,4.627,25.695-2.458l2.447-11.826
	C437.025,104.172,424.355,106.419,415.938,103.948z"/>
<path fill="#E1A074" d="M410.709,59.9c0,0-2.547,37.719-0.36,41.001c2.186,3.279,16.219,9.842,24.963,6.016
	c8.752-3.827,15.128-7.293,15.128-11.119c0-3.826-6.923-38.634-6.923-38.634S425.472,41.854,410.709,59.9z"/>
<path fill="#E1A074" d="M412.898,78.484c0,0-7.654-12.575-9.842-6.559c-2.187,6.012,7.652,14.76,8.749,12.575
	C412.898,82.313,412.898,78.484,412.898,78.484z"/>
<path fill="#E1A074" d="M442.421,76.296c0,0,7.654-12.574,9.841-6.56c2.189,6.014-7.655,14.763-8.745,12.577
	C442.421,80.126,442.421,76.296,442.421,76.296z"/>
<path fill="#552C00" d="M421.585,75.717c0,1.142-0.681,2.073-1.528,2.073c-0.843,0-1.522-0.931-1.522-2.073
	c0-1.144,0.68-2.074,1.522-2.074C420.904,73.643,421.585,74.573,421.585,75.717z"/>
<path fill="#552C00" d="M436.291,74.401c0,1.145-0.683,2.073-1.521,2.073c-0.845,0-1.526-0.928-1.526-2.073s0.682-2.075,1.526-2.075
	C435.608,72.326,436.291,73.256,436.291,74.401z"/>
<path fill="none" stroke="#552C00" stroke-width="1.3619" stroke-linecap="round" stroke-linejoin="round" d="M426.83,77.19
	c0,0-6.563,9.843-3.83,9.843c2.736,0,7.654,0,7.654,0"/>
<path fill="#D17D64" d="M419.537,88.855c0,0,5.105,2.185,11.297,1.456c6.2-0.73,8.387-3.278,8.387-3.278s-2.916,7.652-9.114,9.836
	C423.911,99.057,419.537,88.855,419.537,88.855z"/>
<path fill="#552C00" d="M406.34,72.833c0,0,2.185,2.189,2.55,3.646c0.362,1.458,2.188,5.469,2.188,5.469s0-14.581,0.362-16.767
	c0.365-2.189,1.458-4.009,1.458-4.009l9.841-6.924l13.484,7.654l-2.55-5.105l9.11,5.105l2.921,16.402l5.1-8.108l-0.483-16.661
	L430.124,39.87l-9.208,7.452l-7.653-4.736l-8.383,14.941L406.34,72.833z"/>
<g>
	<defs>
		<path id="SVGID_1_" d="M419.239,112.076l16.681,41.096l9.015-43.554C435.094,116.703,425.499,114.841,419.239,112.076z"/>
	</defs>
	<clipPath id="SVGID_2_">
		<use xlink:href="#SVGID_1_"  overflow="visible"/>
	</clipPath>
	<g clip-path="url(#SVGID_2_)">
		<g>
			<path fill="none" stroke="#0AC3F1" stroke-width="0.9728" stroke-linecap="round" stroke-linejoin="round" d="M448.25,115.065
				c0,0-14.976,7.26-29.044,1.814"/>
			<path fill="none" stroke="#0AC3F1" stroke-width="0.9728" stroke-linecap="round" stroke-linejoin="round" d="M448.705,118.692
				c0,0-14.974,7.261-29.043,1.816"/>
			<path fill="none" stroke="#0AC3F1" stroke-width="0.9728" stroke-linecap="round" stroke-linejoin="round" d="M449.159,122.325
				c0,0-14.976,7.261-29.041,1.814"/>
			<path fill="none" stroke="#0AC3F1" stroke-width="0.9728" stroke-linecap="round" stroke-linejoin="round" d="M449.616,125.954
				c0,0-14.98,7.262-29.048,1.815"/>
			<path fill="none" stroke="#0AC3F1" stroke-width="0.9728" stroke-linecap="round" stroke-linejoin="round" d="M450.066,129.585
				c0,0-14.975,7.258-29.045,1.816"/>
			<path fill="none" stroke="#0AC3F1" stroke-width="0.9728" stroke-linecap="round" stroke-linejoin="round" d="M450.519,133.215
				c0,0-14.975,7.259-29.04,1.812"/>
			<path fill="none" stroke="#0AC3F1" stroke-width="0.9728" stroke-linecap="round" stroke-linejoin="round" d="M450.975,136.844
				c0,0-14.974,7.262-29.044,1.817"/>
			<path fill="none" stroke="#0AC3F1" stroke-width="0.9728" stroke-linecap="round" stroke-linejoin="round" d="M451.425,140.474
				c0,0-14.972,7.262-29.039,1.816"/>
		</g>
	</g>
</g>
</svg>
