<svg xmlns="http://www.w3.org/2000/svg" viewBox="0 0 768 430"><style>.a{fill:#46276C;}.b{fill:#522D7E;}.c{fill:#B00600;}.d{fill:#CD0700;}.e{fill:#DA4540;}.f{fill:#CB9C1E;}.g{fill:#EDB623;}.h{fill:#F2C85A;}.i{fill:#4DAAD0;}.j{fill:#5AC6F3;}.k{fill:#C1134B;}.l{fill:#56004B;}.m{fill:#640057;}.n{fill:#FFE600;}.o{fill:#FFE66B;}.p{fill:#8B4081;}.q{fill:#F4B80A;}.r{fill:#F4E60A;}.s{fill:#ECB818;}.t{fill:#F7F58C;}.u{fill:#ECCA18;}.v{fill:#DBDBDB;}.w{fill:#FFF;}.x{fill:#CE0600;}.y{fill:#F00700;}.z{fill:#690600;}</style><path d="M338.7 276.8c0 0-43.2-98-41.1-159.9 2.1-33.8 2.9-59.4 34.4-60.2 8.8 0.9 19.3 12.1 21.5 31.5 11.9-5.8 28.2 0 34.9 33.4 8.8-3.8 37.5-8.5 28.9 68C411.8 215.6 358.5 319.8 338.7 276.8z" class="a"/><path d="M338.7 276.8c0 0-43.2-98-41.1-159.9 2.1-33.8 2.9-54 34.5-54.8 8.8 0.9 18.7 15.5 21 34.9 11.9-5.8 26.4 2.2 33.2 35.6 8.8-3.8 31.4-16.1 22.8 60.4C403.3 219 358.5 319.8 338.7 276.8z" class="b"/><path d="M310.5 96.8c0 0 18.8-17 30.8 15.4 13.1-3.4 28.1-7 33.5 29.5 8.4-2.1 41.5 15.8 17.1 59.1C368.7 177.4 310.5 96.8 310.5 96.8z" class="a"/><path d="M335.7 123.2c-0.2 0.1-0.4 0.2-0.5 0.4 -10.9-44.1-28.8-26.7-37-15.1 -0.2 2.8-0.3 5.6-0.5 8.5 -2.1 62 41.1 160 41.1 160 2.8 6 6.1 9.1 10 10 0 0 0.1-0.1 0.1-0.1C341.5 264.7 313.2 172.6 335.7 123.2z" class="c"/><path d="M327.6 128.2c-7.3-45.1-21.2-31.3-29.5-19.8 -0.2 2.8-0.3 5.6-0.5 8.5 -2.1 62 41.1 160 41.1 160 2.8 6 6.1 9.1 10 10 0 0 0.1-0.1 0.1-0.1C309.2 158.7 327.8 128.1 327.6 128.2z" class="d"/><path d="M333.7 256.9c0 0-35.6-102.7-32.2-128.5 3.3-25.2 12.4-19.5 12.3 2C310.4 176.1 329.4 241.4 333.7 256.9z" class="e"/><path d="M349.5 287.5c-3.6-0.5-6.8-2.7-9.4-7l0 0c-0.7-1-1.3-2.2-1.9-3.5l0 0 0.5-0.2 -0.5 0.2c0 0-43.2-98-41.1-160.2l0 0c0.8-12.9 1.4-24.5 3.6-34.2l0 0c2.2-9.6 6-17.3 13.3-21.8l0 0c4.6-2.9 10.5-4.5 18.1-4.7l0 0 0 0 0 0c5.3 0.6 10.9 4.5 15.3 11.4l0 0c3.2 5.1 5.6 11.7 6.7 19.8l0 0c8.4-3.7 18.7-1.8 26.4 10.5l0 0c3.5 5.5 6.4 13 8.5 23l0 0c2.6-1 6.4-2 10.5-1.4l0 0c4.5 0.6 9.3 3 13 9l0 0c5.9 9.4 9.3 27.4 5.5 61.2l0 0 0 0 0 0c-2.1 9.6-10.5 29.5-21.3 48.9l0 0c-10.8 19.4-24 38.3-35.9 45.7l0 0C356.9 286.8 353.1 288 349.5 287.5L349.5 287.5zM341 279.9c2.6 4.1 5.5 6 8.7 6.5l0 0c3.2 0.4 6.8-0.7 10.5-3.1l0 0c11.5-7.2 24.7-26 35.5-45.3l0 0c10.8-19.3 19.2-39.2 21.2-48.6l0 0c3.8-33.6 0.3-51.4-5.4-60.4l0 0c-3.6-5.7-8.1-7.9-12.3-8.5l0 0c-4.2-0.6-8.1 0.5-10.5 1.6l0 0 -0.6 0.3 -0.1-0.7c-2.1-10.3-5-17.9-8.5-23.3l0 0c-7.7-12.2-17.6-13.6-25.7-9.7l0 0 -0.7 0.3 -0.1-0.8c-1-8.3-3.4-15-6.6-20.1l0 0c-4.2-6.7-9.6-10.4-14.4-10.9l0 0c-7.5 0.2-13.1 1.8-17.5 4.5l0 0c-6.9 4.4-10.6 11.7-12.8 21.2l0 0c-2.2 9.5-2.8 21.1-3.6 34l0 0c-1.6 46.3 22.3 113 34.3 143.5l0 0c3.9 10 6.6 16 6.7 16.3l0 0C339.8 277.8 340.4 278.9 341 279.9L341 279.9z"/><path d="M369 147.9c-0.2 0.1-0.4 0.1-0.6 0.2 -4.2-44.3-25.5-29.9-32.7-24.9 -22.5 49.5 5.8 141.6 13.1 163.5 3.3-2.2 6.5-5 9.5-8.2C356.5 261 349.3 181.4 369 147.9z" class="f"/><path d="M360.5 153c-4.2-44.3-17.6-34.8-24.8-29.8 -22.5 49.5 5.8 141.6 13.1 163.5 3.3-2.2 6.5-5 9.5-8.2C342 202.6 360.7 152.9 360.5 153z" class="g"/><path d="M369 147.9c-19.7 33.5-12.5 113.1-10.7 130.6 17.3-18 30.4-49 34.3-69.9C404 148.7 377.1 145.8 369 147.9z" class="c"/><path d="M369 147.9c-19.7 33.5-12.5 113.1-10.7 130.6 10.5-19.4 22.7-45.6 26.6-66.5C396.2 152.1 377.1 145.8 369 147.9z" class="d"/><path d="M358.1 268.4c0 0-0.9-85.6 8.1-104 8.8-18 14.2-11.5 8.7 4.6C361 202.2 358.8 255.8 358.1 268.4z" class="e"/><path d="M342.9 262.6c0 0-18.5-94.3-12.3-116.5 6-21.6 13.3-15.5 10.5 3.3C332.5 189 341.1 248.5 342.9 262.6z" class="h"/><ellipse transform="matrix(0.2395 -0.9709 0.9709 0.2395 175.6739 378.2755)" cx="329.3" cy="77" rx="13.4" ry="9.7" class="i"/><ellipse transform="matrix(0.2395 -0.9709 0.9709 0.2395 171.5855 377.4252)" cx="326.7" cy="79.2" rx="10.6" ry="7.7" class="j"/><ellipse transform="matrix(-0.0982 -0.9952 0.9952 -0.0982 298.9219 485.6025)" cx="369.5" cy="107.4" rx="10.2" ry="7.4" class="i"/><ellipse transform="matrix(-0.0982 -0.9952 0.9952 -0.0982 295.1561 486.7845)" cx="368.1" cy="109.7" rx="8.1" ry="5.8" class="j"/><ellipse transform="matrix(-0.0982 -0.9952 0.9952 -0.0982 295.0335 561.0078)" cx="401.7" cy="146.8" rx="13.5" ry="7.4" class="i"/><ellipse transform="matrix(-0.0983 -0.9952 0.9952 -0.0983 291.0956 562.8323)" cx="400.5" cy="149.5" rx="10.9" ry="6" class="j"/><path d="M344.2 252.5c0 0 15.7-105.9 50.5-157.2 19.8-27.5 34.1-48.7 61.2-32.6 7 5.5 9.9 20.5 1.5 38.1 13.2 1.5 23.8 15 11.7 46.9 9.5 1.5 36.3 12.8-11.7 72.9C438.6 239.7 338 299.4 344.2 252.5z" class="a"/><path d="M344.2 252.5c0 0 15.7-105.9 50.5-157.2 19.8-27.5 31.2-44.2 58.4-28 7 5.5 7.6 23.1-0.8 40.7 13.2 1.5 21.2 15.9 9.1 47.8 9.5 1.5 35.1 3.1-12.9 63.2C429.7 238 338 299.4 344.2 252.5z" class="b"/><path d="M416.2 85.1c0 0 25-4.4 17.9 29.4 12.9 4.1 27.5 9.1 12.6 42.9 8.2 2.7 26.7 35.5-17 59.1C422.5 184.3 416.2 85.1 416.2 85.1z" class="a"/><path d="M423.5 120.9c-0.2 0-0.4 0-0.6 0 14.3-43.1-10.1-37.9-23.3-32.5 -1.6 2.2-3.3 4.5-5 6.9 -34.8 51.3-50.5 157.2-50.5 157.2 -0.9 6.5 0.4 11 3.1 13.8 0.1 0 0.1 0 0.2 0C353 243.8 378.1 150.8 423.5 120.9z" class="c"/><path d="M414 120.8c17.9-42.1-1.2-37.8-14.4-32.4 -1.6 2.2-3.3 4.5-5 6.9 -34.8 51.3-50.5 157.2-50.5 157.2 -0.9 6.5 0.4 11 3.1 13.8 0.1 0 0.1 0 0.2 0C382.1 136.8 414.2 120.8 414 120.8z" class="d"/><path d="M350.5 233c0 0 24.6-105.9 41.2-125.9 16.2-19.5 20.9-9.9 9.3 8.2C373.9 152.2 355.2 217.6 350.5 233z" class="e"/><path d="M347.6 267.3c-2.8-2.3-4.3-5.9-4.3-10.9l0 0c0-1.2 0.1-2.5 0.3-3.9l0 0 0.5 0.1 -0.5-0.1c0 0 15.6-105.9 50.6-157.5l0 0c7.5-10.4 14.3-20 21.3-27l0 0c7-7 14.3-11.4 22.9-11.4l0 0c5.4 0 11.3 1.8 17.8 5.7l0 0 0 0 0 0c4.1 3.3 6.8 9.7 6.8 17.8l0 0c0 6-1.5 12.9-4.9 20.3l0 0c9.1 1.3 16.8 8.5 16.8 22.9l0 0c0 6.5-1.5 14.4-5.1 24l0 0c2.7 0.5 6.4 1.7 9.6 4.4l0 0c3.5 2.9 6.2 7.5 6.2 14.6l0 0c0 11.1-6.7 28.2-27.9 54.7l0 0 0 0 0 0c-6.9 7-24.6 19.4-44.1 30l0 0c-19.5 10.6-40.7 19.6-54.7 19.6l0 0C354.3 270.6 350.4 269.7 347.6 267.3L347.6 267.3zM344.5 256.4c0 4.8 1.4 8 3.9 10.1l0 0c2.5 2.1 6.1 3 10.6 3l0 0c13.6 0 34.8-8.8 54.2-19.4l0 0c19.4-10.6 37.1-23 43.8-29.8l0 0c21.1-26.4 27.7-43.4 27.7-54l0 0c0-6.8-2.6-11-5.8-13.7l0 0c-3.2-2.7-7.2-3.9-9.8-4.3l0 0 -0.7-0.1 0.2-0.6c3.7-9.8 5.3-17.8 5.3-24.3l0 0c0-14.4-7.7-20.9-16.5-21.9l0 0 -0.8-0.1 0.3-0.7c3.6-7.5 5.1-14.5 5.1-20.5l0 0c0-7.9-2.6-13.9-6.4-16.9l0 0c-6.4-3.8-12.1-5.5-17.2-5.5l0 0c-8.2 0-15.2 4.2-22.1 11.1l0 0c-6.9 6.9-13.6 16.4-21.1 26.9l0 0c-26 38.3-41.4 107.5-47.4 139.7l0 0c-2 10.5-3 17.1-3 17.3l0 0C344.5 254 344.5 255.2 344.5 256.4L344.5 256.4z"/><path d="M438.5 159.6c-0.2-0.1-0.4-0.1-0.6-0.2 20-39.7-5.7-38.9-14.4-38.5 -45.4 29.9-70.5 122.9-76.1 145.4 4-0.1 8.2-0.8 12.4-1.8C367.6 248.6 403.9 177.5 438.5 159.6z" class="f"/><path d="M428.6 159.3c20-39.7 3.7-38.8-5.1-38.4 -45.4 29.9-70.5 122.9-76.1 145.4 4-0.1 8.2-0.8 12.4-1.8C386.5 191.5 428.8 159.4 428.6 159.3z" class="g"/><path d="M438.5 159.6c-34.6 17.9-70.9 89-78.6 104.8 24.2-6 51.8-25.3 66.3-40.9C467.6 178.9 446.4 162.1 438.5 159.6z" class="c"/><path d="M438.5 159.6c-34.6 17.9-70.9 89-78.6 104.8 19.2-10.8 43.5-26.5 58-42.1C459.3 177.6 446.4 162.1 438.5 159.6z" class="d"/><path d="M365.1 255.8c0 0 44.9-72.9 62.3-83.7 17-10.5 18.1-2.2 4.9 8.5C402.8 201.3 372.4 245.5 365.1 255.8z" class="e"/><path d="M355.2 242.7c0 0 34.6-89.7 51.7-105.2 16.6-15.1 19.5-6.1 7.2 8.4C385.7 174.9 361.2 229.8 355.2 242.7z" class="h"/><ellipse transform="matrix(0.72 -0.694 0.694 0.72 69.5199 329.1605)" cx="442.7" cy="78.4" rx="13.4" ry="9.7" class="i"/><ellipse transform="matrix(0.72 -0.694 0.694 0.72 68.2523 326.9602)" cx="439.3" cy="78.9" rx="10.6" ry="7.7" class="j"/><ellipse transform="matrix(0.4471 -0.8945 0.8945 0.4471 142.3194 481.3021)" cx="460.5" cy="125.5" rx="10.2" ry="7.4" class="i"/><ellipse transform="matrix(0.4472 -0.8944 0.8944 0.4472 139.8783 479.8337)" cx="458.1" cy="126.8" rx="8.1" ry="5.8" class="j"/><ellipse transform="matrix(0.4471 -0.8945 0.8945 0.4471 100.5349 514.8328)" cx="466.7" cy="176.1" rx="13.5" ry="7.4" class="i"/><ellipse transform="matrix(0.4472 -0.8945 0.8945 0.4472 97.6855 513.576)" cx="464.3" cy="177.8" rx="10.9" ry="6" class="j"/><path d="M350.5 267.1c0 0 18.4-9.6 47.3-31.9 23.9-17.6 70.6-40.7 98.7-20.1 13.7 12.1 12.1 33-4.1 59.6 -6 11-6 25.6 19 42.1 7.7 5.8 13.2 16.5 3.3 27.2 -6.6 6.3-18.4 5.8-30.2-11.3 -4.7-6.6-9.6-7.7-32.4-7.1C422.2 325.6 359.3 279.5 350.5 267.1z" class="k"/><path d="M350.5 267.1c0 0 18.4-9.6 47.3-31.9 23.9-17.6 66.5-36.8 94.6-16.2 13.7 12.1 4.7 25.8-11.5 52.5 -6 11-1.1 26.9 23.9 43.4 7.7 5.8 16.8 14.3 6.9 25 -6.6 6.3-16.5 3.8-28.3-13.2 -4.7-6.6-12.9-9.3-35.7-8.8C417.8 317.9 359.3 279.5 350.5 267.1z" fill="#E11658"/><path d="M455.5 217.9c0 0 28 6 7.1 29.4 4.9 6.6 15.4 21.2-6.6 34.9 5.5 8.8 12.6 35.5-29.4 26.7C434.1 278.9 455.5 217.9 455.5 217.9z" class="k"/><path d="M449.9 245.5c-0.1 0-0.1-0.1-0.2-0.1 9.3-2.5 15.1-8.5 14.8-17.9 -1.2-11.3-18.5-13.2-28.6-13.4 -14.7 5.7-28.3 13.8-38.2 21.1 -18.1 13.9-32 22.9-39.9 27.7 2 2.7 4.6 5.6 7.5 8.7C376.3 265.8 420.6 243.8 449.9 245.5z" class="l"/><path d="M442.6 241.5c11.8-1.1 14.3-3.6 14-12.9 -1.2-11.3-10.6-14.3-20.7-14.5 -14.7 5.7-28.3 13.8-38.2 21.1 -18.1 13.9-32 22.9-39.9 27.7 2 2.7 4.6 5.6 7.5 8.7C399.7 244 442.7 241.6 442.6 241.5z" class="m"/><path d="M505.5 348.3c-6.4 0-14.1-4.3-21.6-15.2l0 0c-2-2.8-3.9-4.5-7.3-5.6l0 0c-3.4-1.1-8.3-1.5-16-1.5l0 0c-2.6 0-5.5 0-8.7 0.1l0 0c-15.1 0-38.2-11.6-58.8-24.7l0 0c-20.6-13.1-38.5-27.7-43-34.1l0 0 0.4-0.3 0.3 0.5 -0.3-0.5 -0.4 0.3 -0.4-0.5 0.6-0.3c0 0 1.1-0.6 3.3-1.8l0 0c2.2-1.2 5.4-3.1 9.5-5.7l0 0c8.2-5.2 20-13.1 34.4-24.3l0 0c17.3-12.7 46.4-28.3 72-28.3l0 0c10 0 19.4 2.4 27.4 8.2l0 0 0 0 0 0c6.3 5.6 9.5 13 9.5 21.9l0 0c0 10.8-4.6 23.8-13.5 38.4l0 0c-2 3.6-3.3 7.5-3.3 11.7l0 0c0 8.6 5.4 18.6 22.1 29.6l0 0c4.8 3.6 8.8 9.2 8.9 15.6l0 0c0 4-1.6 8.3-5.5 12.5l0 0c-2.5 2.4-5.8 3.9-9.5 3.9l0 0C505.5 348.3 505.5 348.3 505.5 348.3L505.5 348.3zM477 326.5c3.6 1.1 5.8 3.1 7.8 6l0 0c7.4 10.7 14.8 14.7 20.7 14.7l0 0c3.4 0 6.4-1.3 8.7-3.5l0 0c3.7-4.1 5.2-8 5.2-11.7l0 0c0-5.9-3.8-11.2-8.4-14.7l0 0c-16.8-11.1-22.5-21.5-22.5-30.5l0 0c0-4.5 1.4-8.6 3.4-12.3l0 0c8.9-14.6 13.3-27.4 13.3-37.9l0 0c0-8.6-3-15.7-9.1-21.1l0 0c-7.7-5.7-16.9-8-26.7-8l0 0c-25.2 0-54.2 15.4-71.3 28.1l0 0c-26 20-43.5 29.8-46.8 31.6l0 0c4.9 6.3 22.4 20.6 42.4 33.3l0 0c20.5 13.1 43.7 24.6 58.2 24.6l0 0c3.3-0.1 6.2-0.1 8.7-0.1l0 0C468.4 325 473.4 325.4 477 326.5L477 326.5z"/><path d="M368.3 274.5c23.1 22.1 65.8 47.5 84.2 28.1 8.2-10.2-4.4-23.4-6.9-25.6 0.3 0 0.5 0 0.7 0C415.2 264.9 378.1 272.2 368.3 274.5z" class="l"/><path d="M368.3 274.5c23.1 22.1 71.5 33.6 78.4 23.7 8.2-10.2 1.4-19-1.1-21.2 0.3 0 0.5 0 0.7 0C415.2 264.9 378.1 272.2 368.3 274.5z" class="m"/><path d="M449.9 245.5c-29.3-1.6-73.7 20.4-84.6 26 0.9 1 1.9 1.9 3 2.9 9.7-2.3 46.9-9.6 78 2.6 10.7 0.3 13.8-5.4 14.4-13.2C462.1 254 457 249.3 449.9 245.5z" fill="#BE671A"/><path d="M449.9 245.5c-29.3-1.6-73.7 20.4-84.6 26 0.9 1 1.9 1.9 3 2.9 9.7-2.3 39.8-15.9 71-3.8 9.1 4.9 16.5-0.7 17-8.5C457.7 252.3 457 249.3 449.9 245.5z" fill="#DE781E"/><ellipse transform="matrix(0.9766 -0.215 0.215 0.9766 -37.6573 109.5184)" cx="484.6" cy="227.9" rx="9.3" ry="7.1" class="n"/><ellipse transform="matrix(0.9766 -0.215 0.215 0.9766 -37.7983 109.1295)" cx="482.7" cy="228.3" rx="7.3" ry="5.6" class="o"/><ellipse transform="matrix(0.9766 -0.215 0.215 0.9766 -44.4425 108.5272)" cx="476.7" cy="258.6" rx="9.3" ry="7.1" class="n"/><ellipse transform="matrix(0.9766 -0.215 0.215 0.9766 -44.2885 108.0691)" cx="474.7" cy="257.6" rx="7.6" ry="5.8" class="o"/><ellipse transform="matrix(0.9771 0.213 -0.213 0.9771 73.6691 -93.1195)" cx="469.1" cy="295.4" rx="9.3" ry="7.9" class="n"/><ellipse transform="matrix(0.9771 0.213 -0.213 0.9771 73.4858 -92.5757)" cx="466.5" cy="294.8" rx="6.7" ry="5.7" class="o"/><ellipse transform="matrix(0.7901 0.613 -0.613 0.7901 305.4544 -237.5453)" cx="499.5" cy="327.2" rx="14.5" ry="10.2" class="n"/><ellipse transform="matrix(0.79 0.6131 -0.6131 0.79 303.8038 -237.6046)" cx="498.8" cy="324.7" rx="12.4" ry="8.7" class="o"/><path d="M365.7 260.9c0 0 54-39.5 69.8-42.1 15.4-2.6 13.7 3.8 1 7.6C409 232.6 374 255.6 365.7 260.9z" class="p"/><path d="M373.6 274.9c0 0 53.1-4.4 65 0.7 11.7 4.9 8 8.6-2.3 5.8C414.8 273.9 381.5 274.8 373.6 274.9z" class="p"/><path d="M371.1 269.1c0 0 54.3-21.5 68.5-20.1 13.8 1.4 11.1 6.5-0.6 6.8C414 254.7 379.3 266.4 371.1 269.1z" fill="#EAAB72"/><path d="M401.3 304.9c22.7 22.8 35.3 49.2 25.9 56.5 -15.1 11.8-39.4-5.2-57.7-26.2 -21.2-24.2-23.6-42.7-15.1-51.1C362.8 275.7 378.6 282.1 401.3 304.9z" class="q"/><path d="M395.3 309.1c22.7 22.8 38.5 47.8 31.9 52.3 -15.9 10.7-39.4-5.2-57.7-26.2 -21.2-24.2-24.3-43.5-15.1-51.1C360.9 278.6 372.6 286.4 395.3 309.1z" class="q"/><path d="M395.3 309.1c22.7 22.8 37.9 47.1 31.9 52.3 -11.3 9.8-33.4-8.5-51.7-29.5 -21.2-24.2-30.3-40.2-21.2-47.8C360.9 278.6 372.6 286.4 395.3 309.1z" class="r"/><path d="M412.4 317.3c-3.3-4.2-7.1-8.3-11.1-12.4 -3.2-3.2-6.2-6-9.1-8.6 -1.5 23.7-23.3 25.8-33 25.5 2.8 4.2 6.1 8.7 10.2 13.4 3.1 3.5 6.3 6.9 9.6 10.1C411 339.7 412.9 323.4 412.4 317.3z" class="s"/><path d="M367.7 333.2c-0.2-0.2-0.4-0.5-0.6-0.7C367.3 332.8 367.5 333 367.7 333.2z" class="t"/><path d="M376 342.3c-0.5-0.5-1-1-1.5-1.6C375 341.3 375.5 341.8 376 342.3z" class="t"/><path d="M366.1 331.3c-0.2-0.3-0.5-0.6-0.7-0.9C365.6 330.6 365.9 331 366.1 331.3z" class="t"/><path d="M374 340.2c-0.7-0.7-1.4-1.5-2.1-2.2C372.6 338.7 373.3 339.5 374 340.2z" class="t"/><path d="M371.7 337.7c-0.7-0.8-1.5-1.6-2.2-2.5C370.2 336.1 370.9 336.9 371.7 337.7z" class="t"/><path d="M374.5 340.7c-0.2-0.2-0.3-0.4-0.5-0.5C374.1 340.4 374.3 340.5 374.5 340.7z" class="u"/><path d="M365.4 330.3c-0.2-0.3-0.5-0.6-0.7-0.9C364.9 329.8 365.1 330 365.4 330.3z" class="u"/><path d="M367.1 332.5c-0.3-0.4-0.7-0.8-1-1.3C366.4 331.7 366.8 332.1 367.1 332.5z" class="u"/><path d="M371.9 338c-0.1-0.1-0.1-0.2-0.2-0.2C371.7 337.8 371.8 337.9 371.9 338z" class="u"/><path d="M369.5 335.3c-0.6-0.7-1.2-1.4-1.7-2C368.3 333.9 368.9 334.6 369.5 335.3z" class="u"/><path d="M376 342.3c1 1 2 2 3.1 3 0 0 0 0 0 0C378.1 344.3 377 343.3 376 342.3z" class="u"/><path d="M410.9 326.5c-4.6-5.7-9.9-11.6-15.6-17.3 -1.6-1.6-3.2-3.1-4.7-4.6 -5.4 16-23 17.5-31.4 17.3 1.6 2.5 3.4 5 5.5 7.6 0.2 0.3 0.5 0.6 0.7 0.9 0.2 0.3 0.5 0.6 0.7 0.9 0.3 0.4 0.7 0.8 1 1.3 0.2 0.2 0.4 0.5 0.6 0.7 0.6 0.7 1.1 1.3 1.7 2 0.7 0.8 1.5 1.7 2.2 2.5 0.1 0.1 0.1 0.2 0.2 0.2 0.7 0.7 1.4 1.5 2.1 2.2 0.2 0.2 0.3 0.4 0.5 0.5 0.5 0.5 1 1.1 1.5 1.6 1 1 2 2 3.1 3C400 341.6 408 333.4 410.9 326.5z" class="s"/><path d="M410.9 326.5c-4.6-5.7-9.9-11.6-15.6-17.3 -0.6-0.6-1.2-1.2-1.7-1.7 -0.2-0.2-0.4-0.4-0.6-0.6 -0.4-0.4-0.9-0.8-1.3-1.3 -0.4-0.3-0.7-0.7-1.1-1 -4.1 12.1-15.1 15.9-23.9 17 2.6 3.3 5.6 6.8 8.8 10.4 3.6 4.1 7.3 8.1 11 11.7C402 339.6 408.4 332.5 410.9 326.5z" class="u"/><path d="M390.6 304.5L390.6 304.5c0.3 0.3 0.7 0.7 1.1 1C391.3 305.2 391 304.9 390.6 304.5z" class="u"/><path d="M415.7 365.8c-14.7 0-32.4-14-46.6-30.2l0 0c-13.9-15.9-19.8-29.4-19.8-39.3l0 0c0-5.3 1.7-9.5 4.7-12.6l0 0c2.5-2.5 5.6-3.7 9.2-3.7l0 0c9.3 0 22.1 8.1 38.6 24.5l0 0 -0.4 0.4 -0.4 0.4c-16.3-16.4-29.1-24.2-37.8-24.2l0 0c-3.4 0-6.1 1.1-8.4 3.4l0 0c-2.8 2.8-4.4 6.8-4.4 11.8l0 0c0 9.5 5.7 22.8 19.5 38.6l0 0c14.1 16.2 31.8 29.9 45.8 29.8l0 0c4.1 0 7.9-1.1 11.2-3.7l0 0c2-1.5 2.9-4 3-7.3l0 0c0-11.1-11.4-30.9-28.9-48.4l0 0 0.4-0.4 0.4-0.4c17.6 17.7 29.1 37.4 29.2 49.2l0 0c0 3.5-1 6.4-3.4 8.2l0 0c-3.5 2.7-7.6 4-11.8 4l0 0C415.7 365.8 415.7 365.8 415.7 365.8L415.7 365.8z"/><path d="M312.9 264.8c0 0-18.7 11.9-40.5 6.4 -3.3 2.2-5.1 4.2-10.1 2.7 -3.5 0-7.5 7-11.9 1.8 -2.2-3.5 4.6-4.4 5.5-5.7 -3.8-0.4-9.9 0-9.9-4.8 0.4-3.1 6-3.7 8.8-2.4 -4.2-2.7-8.4-6.2-5.7-10.3 1.8-2.6 9.9 0 14.3 5.7 1.3-5.3-3.5-14.3 4.9-14.3 7 1.5 1.8 13.7 5.9 17.2 4 2.9 22.7 8.2 38.5-3.3C312.9 259.3 312.9 264.8 312.9 264.8z" class="q"/><path d="M312.9 264.8c0 0-17.7 9.5-39.5 4 -2.1 3.2-6.1 4.7-11.1 3.2 -3.5 0-6 7.9-10.4 2.8 -2.2-3.5 3.1-3.4 4-4.7 -3.8-0.4-9.9 0-9.9-4.8 0.4-3.1 6-3.7 8.8-2.4 -4.2-2.7-8.4-6.2-5.7-10.3 1.8-2.6 9.9 0 14.3 5.7 1.3-5.3-3.5-14.3 4.9-14.3 7 1.5 1.8 13.7 5.9 17.2 4 2.9 22.7 8.2 38.5-3.3C312.9 259.3 312.9 264.8 312.9 264.8z" class="r"/><path d="M313.3 257.9l-0.1-0.9 -0.7 0.5c-7.2 5.3-15.1 7-21.9 7 -7.7 0-14-2.2-15.9-3.7 -0.6-0.5-1-1.4-1.2-2.4 0-0.1 0-0.1 0-0.2l0 0c-0.1-0.3-0.1-0.6-0.2-1 -0.3-2.4 0-5.5-0.4-8.1 -0.3-2.6-1.4-5-4.3-5.6l-0.1 0h-0.1c-2.2 0-3.7 0.6-4.6 1.7 -0.9 1.1-1.1 2.6-1.1 4.1 0 2.2 0.4 4.6 0.4 6.7 0 0.4 0 0.7 0 1 -3.4-3.7-8.1-5.9-11.4-5.9 -1.3 0-2.4 0.3-3 1.2 -0.7 1-1 2-1 2.9 0 2.6 2.1 4.7 4.5 6.5 -0.2 0-0.5 0-0.7 0 -1.3 0-2.7 0.2-3.8 0.8 -1.1 0.5-2 1.4-2.2 2.7l0 0v0c0 2.7 1.8 4 3.9 4.6 1.5 0.4 3.2 0.5 4.8 0.6 -0.8 0.4-1.9 0.8-2.8 1.3 -1 0.6-1.9 1.4-1.9 2.6 0 0.5 0.2 1.1 0.5 1.6l0 0 0 0c1.2 1.5 2.6 2.1 3.9 2.1h0c1.8 0 3.3-1 4.7-1.9 1.4-0.9 2.7-1.7 3.6-1.8 1.2 0.3 2.2 0.5 3.1 0.5 2.6 0 4.3-1.2 6.3-2.6 0 0 0.8-0.3 1-0.6 4 1 7.9 1.4 11.6 1.4 16.5 0 28.9-7.9 29-7.9l0.3-0.2v-0.3C313.5 264.8 313.5 259.3 313.3 257.9zM310.5 265.5c-4.2 2.2-14.1 6.6-26.2 6.6 -3.5 0-7.1-0.4-10.9-1.2 0.7-1.2-0.2-2.7-0.2-2.7s-0.1 0.7-0.4 1.5c-0.1 0.4-0.3 0.7-0.6 1.1l0 0c-2.6 1.7-4.1 3.2-6.7 3.2 -0.8 0-1.8-0.1-2.9-0.5l-0.1 0h-0.1c-1.5 0-2.9 1-4.3 2 -1.4 0.9-2.8 1.8-4.1 1.8 -0.9 0-1.9-0.4-3-1.7 -0.2-0.4-0.3-0.7-0.3-1 0-0.4 0.2-0.8 0.6-1.1 0.6-0.6 1.7-1.1 2.7-1.5 1-0.5 1.9-0.8 2.5-1.4l0.6-0.8 -1-0.1c-2-0.2-4.4-0.2-6.3-0.7 -1.9-0.6-3.1-1.4-3.1-3.5 0.1-0.8 0.6-1.4 1.5-1.8 0.9-0.4 2.1-0.7 3.3-0.7 1.2 0 5 0.5 5.8 0.9l-2.2-1.3c-3.3-2.1-6.4-4.7-6.3-7.2 0-0.7 0.2-1.5 0.8-2.3 0.3-0.5 1-0.8 2.1-0.8 3 0 8.2 2.4 11.3 6.5l0.7 0.9 0.3-1.1c0.2-0.8 0.3-1.6 0.3-2.5 0-2.2-0.4-4.7-0.4-6.7 0-1.4 0.2-2.6 0.9-3.4 0.6-0.8 1.7-1.3 3.7-1.3 1.5 0.4 2.3 1.2 2.8 2.5 0.8 1.9 0.7 4.9 0.7 7.6 0 1.4 0.1 2.8 0.4 4 0.3 2.2 0.3 6.1 0.3 6.1 0 0.1 1.1-1.6 1-3.3 0.1 0.1 0.2 0.2 0.3 0.3l0 0 0 0c2.3 1.7 8.7 3.9 16.6 3.9 6.7 0 14.5-1.6 21.7-6.6 0 0.8 0.1 1.9 0.1 2.9 0 1.1 0 2.1 0 2.6C312.1 264.7 311.4 265.1 310.5 265.5z"/><ellipse transform="matrix(0.4968 0.8679 -0.8679 0.4968 403.6625 -161.309)" cx="340.9" cy="267.4" rx="32.7" ry="29.8" class="r"/><path d="M357.2 295.8c-10.5 5.3-30.2-6.9-39.1-22.6 -9-15.7-7.6-26 6.6-34.2s33.1-2.1 42.1 13.6C375.8 268.3 371.8 288.4 357.2 295.8z" class="q"/><path d="M357.2 295.8c-10.5 5.3-29.5-0.3-39.6-15.3 -7.7-11.5-7.7-25.8-4.1-28.8 4.4 9.3 34.8-6.4 42.5 4.6C365 272 371.8 288.4 357.2 295.8z" class="r"/><path d="M343.4 300c-11.2 0-22.5-6.4-28.8-17.5l0 0c-3.2-5.6-4.8-11.7-4.8-17.6l0 0c0-10.8 5.1-20.9 14.6-26.3l0 0c4.4-2.5 9.2-3.7 14-3.7l0 0c11.2 0 22.5 6.4 28.8 17.5l0 0c3.2 5.6 4.8 11.7 4.8 17.6l0 0c0 10.8-5.1 20.9-14.6 26.3l0 0c-4.4 2.5-9.2 3.7-14 3.7l0 0C343.4 300 343.4 300 343.4 300L343.4 300zM324.9 239.5c-9 5.2-14 14.9-14 25.4l0 0c0 5.7 1.5 11.6 4.6 17.1l0 0c6.2 10.8 17.1 17 27.9 17l0 0c4.6 0 9.3-1.1 13.5-3.6l0 0c9-5.2 14-14.9 14-25.4l0 0c0-5.7-1.5-11.6-4.6-17.1l0 0c-6.2-10.8-17.1-17-27.9-17l0 0C333.8 235.9 329.2 237.1 324.9 239.5L324.9 239.5z"/><path d="M385.1 228c0 0-32.3 26.8-39.9 20.9 -3.7-4 35.6-24.2 30.1-36.3 -4-7-8.4-10.1-4.2-13.9 5.5-3.3 10.4 10.3 15.6 5.9 3.7-4 7.7-11.4 12.8-8.1 3.3 2.9-1.8 9.9-4.4 12.5 6.6-2.9 12.5-7.7 13.9-2.2 1.1 6.4-10.6 8.8-11 11.4 4-1.5 10.3-2.9 11 1.1 0.6 7.5-9.5 3.7-11.7 6.6C395 228.7 387 229.4 385.1 228z" class="q"/><path d="M383.2 224.5c0 0-30.3 30.2-38 24.4 -3.7-4 35.6-24.2 30.1-36.3 -4-7-8.4-10.1-4.2-13.9 5.5-3.3 10.4 10.3 15.6 5.9 3.7-4 5.4-10.3 10.5-7 3.3 2.9-2 10.5-4.5 13.1 8.2-3.6 12-5.7 12.9-3.4 1.4 3.3-6.9 8.8-7.3 11.4 4-1.5 8.2-2.1 8.5-0.7 0.6 7.5-10 3.9-12.2 6.9C392.3 227.7 385 225.9 383.2 224.5z" class="r"/><path d="M409.5 219.1l0 0c-0.2-1.1-0.8-1.9-1.7-2.4 -0.8-0.5-1.9-0.6-2.9-0.6 -1.6 0-3.5 0.4-5.1 0.9 0.1-0.1 0.2-0.1 0.4-0.2 1.5-0.9 3.9-2 5.8-3.5 1.9-1.4 3.6-3.2 3.6-5.7 0-0.3 0-0.6-0.1-0.9l0 0 0 0c-0.5-2-1.8-3-3.3-2.9 -2.4 0-5.5 1.9-9 3.6 1.8-2.3 3.8-5.5 3.8-8.3 0-1.1-0.4-2.2-1.3-3l0 0 0 0c-1-0.6-2-0.9-2.9-0.9 -2.2 0-4.1 1.5-5.9 3.4 -1.7 1.8-3.3 4-4.8 5.7 -0.6 0.5-1.2 0.7-1.8 0.7 -1.5 0-3.4-1.6-5.3-3.5 -1.9-1.8-3.9-3.8-6.3-3.8 -0.7 0-1.4 0.2-2.1 0.6l0 0 0 0c-1.3 1.2-1.9 2.4-1.9 3.7 0.1 3.1 3.2 6 6 10.9 0.3 0.7 0.5 1.4 0.5 2.2 0 2.7-1.8 5.8-4.7 9 -4.3 4.9-10.8 9.9-16.2 14.1 -2.7 2.1-5.2 4.1-6.9 5.7 -1.8 1.7-3 2.9-3 4.3 0 0.4 0.1 0.7 0.4 1l0 0 0 0c0.9 0.7 2 1 3.3 1 5.7 0 14.9-5.5 22.9-11 6.9-4.8 12.8-9.5 14.2-10.6 0.2 0.1 0.5 0.2 0.8 0.3 0.4 0.2 1.3 0.2 1.3 0.2 0.4 0 0.9 0.1 1.3 0.1 3.2 0 7.3-0.9 9.1-3.2 0.4-0.5 1.2-0.8 2.4-1 1.7-0.3 4-0.2 5.9-0.7 1.9-0.5 3.6-1.9 3.6-4.6 0-0.2 0-0.4 0-0.6L409.5 219.1zM407.1 222.7c-1.2 0.9-3.3 1-5.3 1.2 -2 0.2-4 0.2-5.1 1.6 -1.2 1.7-5.2 2.7-8.2 2.7 -0.9 0-1.7-0.1-2.3-0.2 -0.9-0.5-1.6-1.2-2.2-1.9 -0.4-0.5-0.7-1-0.9-1.3 -0.2-0.4-0.3-0.6-0.3-0.6 0 0-0.1 2.3 1.5 3.8 -0.6 0.5-2 1.6-3.9 3.1 -3.9 3-10.1 7.6-16.2 11.4 -6.1 3.8-12.4 6.8-16.2 6.8 -1.1 0-1.9-0.2-2.6-0.7 -0.1-0.1-0.1-0.1-0.1-0.2 0-0.3 0.4-1.1 1.2-2 2.9-3.2 10.3-8.4 16.9-14 5.7-4.8 10.9-9.9 12.3-14.7 0.7 2.4 2.4 3.4 2.4 3.4h0c0 0-0.3-0.6-0.7-1.7 -0.4-1.1-0.9-2.7-1.3-4.7l0 0c-0.1-0.7-0.2-1.5-0.5-2.2l0 0 0 0c-2.9-5-5.9-8.1-5.9-10.4 0-0.9 0.4-1.8 1.5-2.8 0.5-0.3 1-0.4 1.5-0.4 1.7 0 3.6 1.7 5.5 3.5 1.9 1.8 3.8 3.7 6.1 3.8 0.9 0 1.7-0.3 2.5-1l0 0 0 0c1.5-1.7 3.1-3.9 4.8-5.7 1.7-1.8 3.4-3 5.1-3 0.7 0 1.5 0.2 2.3 0.7 0.6 0.6 0.9 1.2 0.9 2.1 0 3-3.4 7.6-5.3 9.5l-2.1 2.1c4.4-2 11.3-5.9 13.6-5.9 1.1 0 1.8 0.4 2.3 2.1 0 0.2 0.1 0.5 0.1 0.7 0 2.5-2.4 4.5-5.1 6 -1.3 0.8-2.7 1.5-3.8 2.2 -1.1 0.7-1.9 1.3-2.1 2.3l-0.1 0.9 0.9-0.3c2-0.7 4.7-1.5 6.8-1.5 1 0 1.8 0.2 2.4 0.5 0.6 0.3 1 0.8 1.1 1.6 0 0.2 0 0.3 0 0.5C408.4 221.3 407.9 222.1 407.1 222.7z"/><path d="M277.7 223.7c0 0 8.8 45.1 50 28.9 15.1-8.2 41.5-22.8 21.2-55.5 -9.2-12.3-28.3-20.6-51.4-13.7C286.2 188.2 270.8 198.1 277.7 223.7z" class="t"/><path d="M280.6 231.4c0 0 10.2 34.9 47.1 21.1 15.1-8.2 41.5-22.8 21.2-55.5 -9.2-12.3-28.3-20.6-51.4-13.7C286.2 188.2 274.3 209.1 280.6 231.4z" class="q"/><path d="M278.4 226.7c0 0 7.5 39.8 47.1 23.9 15.1-8.2 33.8-28 18.4-56.6 -9.2-12.3-28.6-16-46.5-10.8C280.6 188.6 272.1 204.4 278.4 226.7z" class="r"/><path d="M294 241c0 0 11.1 4.7 22.5-8.1C310.4 236.4 306 239.7 294 241z" class="q"/><path d="M283.7 240.1c-4.9-8-6.5-16-6.6-16.4l0 0c-1.2-4.4-1.7-8.4-1.7-12l0 0c0-17.3 12.4-25 21.8-29.1l0 0 0 0 0 0c5.8-1.7 11.3-2.5 16.6-2.5l0 0c15.8 0 28.4 7.1 35.4 16.4l0 0 0 0 0 0c5.3 8.5 7.5 15.9 7.5 22.3l0 0c0 9.1-4.5 16.1-10.3 21.6l0 0c-5.8 5.5-13 9.4-18.6 12.4l0 0 0 0 0 0c-6.3 2.5-11.9 3.6-16.9 3.6l0 0C297.2 256.6 288.7 248.3 283.7 240.1L283.7 240.1zM278.2 223.5l0 0c0 0 0.4 2 1.4 5l0 0c1 3 2.6 7 5.1 11l0 0c4.9 8 13.1 15.9 26.3 15.9l0 0c4.8 0 10.2-1 16.4-3.5l0 0c5.6-3 12.7-6.9 18.3-12.3l0 0c5.7-5.3 9.9-12 9.9-20.8l0 0c0-6.1-2.1-13.3-7.3-21.7l0 0c-6.8-9.1-19.1-16-34.5-16l0 0c-5.1 0-10.5 0.8-16.2 2.4l0 0c-9.3 4.1-21.1 11.4-21.1 28l0 0c0 3.5 0.5 7.3 1.7 11.7l0 0 -0.5 0.1 0.5-0.1L278.2 223.5 278.2 223.5z"/><path d="M298.4 242.5c-3.8 0-6-1.9-6-1.9 0 0 0.6 0.2 1.6 0.4l0 0c1 0.2 2.6 0.4 4.4 0.4l0 0c4.9 0 12-1.5 18.2-8.5l0 0c0 0-1.7 3.3-2.9 4.3 -5.4 4.3-11.1 5.3-15.2 5.3l0 0C298.4 242.5 298.4 242.5 298.4 242.5L298.4 242.5zM292.1 241.7C292.1 241.7 292.1 241.7 292.1 241.7L292.1 241.7 292.1 241.7 292.1 241.7 292.1 241.7z"/><path d="M297.6 242c2.1 3.6 7.1 10.2 12.8 7.4 3.7-1.9 3.8-8.5 3.3-13C307.9 241.2 301.8 242.1 297.6 242z" fill="#C00"/><path d="M297.6 242c2.1 3.6 8.2 5.8 11.4 4.2 2.2-1.1 3.6-4.3 4.7-9.7C307.9 241.2 301.8 242.1 297.6 242z" fill="#7D0000"/><path d="M307.6 250.6c-5-0.1-8.7-5.3-10.5-8.3l0 0 -0.5-0.9 1 0c0.3 0 0.5 0 0.8 0l0 0c4.1 0 9.6-1 15-5.4l0 0 0.8-0.7 0.1 1c0.1 1.1 0.2 2.4 0.2 3.7l0 0c0 3.9-0.7 8.1-3.8 9.8l0 0c-1 0.5-2 0.7-3 0.7l0 0C307.6 250.6 307.6 250.6 307.6 250.6L307.6 250.6zM307.6 249.5c0.8 0 1.6-0.2 2.5-0.6l0 0c2.4-1.2 3.2-5 3.2-8.8l0 0c0-0.9 0-1.8-0.1-2.6l0 0c-5.2 4-10.6 5-14.6 5l0 0C300.5 245.5 303.9 249.5 307.6 249.5L307.6 249.5zM297.6 242.5l0-0.5L297.6 242.5 297.6 242.5z"/><path d="M319 225.3c0 0-9.5-29.5 3-37.3 5.4-3.5 21.4-5.6 28.1 11.6C355.4 215.5 349.6 235 319 225.3z" class="q"/><path d="M319.5 224.8c0 0-4.6-27.1 6.4-35 4.8-3.5 18.5-7.5 24.4 9.7C354.9 215.5 346.3 234.6 319.5 224.8z" class="v"/><path d="M319.4 222.1c0 0-3.9-22.9 5.4-29.6 4-2.9 15.6-6.3 20.6 8.2C349.3 214.2 342 230.3 319.4 222.1z" class="w"/><path d="M332.8 228c-3.9 0-8.3-0.8-13.4-2.7l0 0 0.2-0.5 0.5-0.1 -0.5 0.1 -0.2 0.5 -0.3-0.1 -0.1-0.3c0 0-1-5.6-1-12.5l0 0c0-8.3 1.3-18.4 7.6-23l0 0c2.1-1.5 5.9-3.2 10-3.2l0 0c5.6 0 11.8 3.1 15.2 13.2l0 0c0.8 2.7 1.2 5.6 1.2 8.3l0 0c0 5.3-1.5 10.3-4.6 14.1l0 0c-3.2 3.8-8 6.2-14.6 6.2l0 0C332.8 228 332.8 228 332.8 228L332.8 228zM332.8 226.9c12.6 0 18.1-9 18.2-19.2l0 0c0-2.7-0.4-5.4-1.1-8l0 0c-3.3-9.7-9-12.4-14.2-12.4l0 0c-3.8 0-7.4 1.5-9.3 3l0 0c-5.7 4-7.2 13.9-7.1 22.1l0 0c0 3.4 0.2 6.5 0.5 8.7l0 0c0.2 1.6 0.3 2.8 0.4 3.3l0 0C324.9 226.2 329.1 226.9 332.8 226.9L332.8 226.9z"/><ellipse transform="matrix(0.8872 -0.4613 0.4613 0.8872 -58.2433 178.4759)" cx="336" cy="208.4" rx="11" ry="14.5" class="x"/><ellipse transform="matrix(0.8873 -0.4612 0.4612 0.8873 -57.9106 177.4073)" cx="334" cy="207.2" rx="9" ry="11.9" class="y"/><path d="M338.6 222.7c-5 0-10-3.6-12.9-9 -3.8-7.4-2.4-15.7 3.3-18.6 1.3-0.7 2.7-1 4.3-1 5 0 10 3.6 12.9 9 3.8 7.4 2.4 15.7-3.3 18.6C341.6 222.4 340.2 222.7 338.6 222.7zM333.3 195.1c-1.4 0-2.6 0.3-3.8 0.9 -5.1 2.6-6.4 10.3-2.8 17.2 2.6 5.1 7.4 8.5 11.9 8.5 1.4 0 2.6-0.3 3.8-0.9 5.1-2.6 6.4-10.3 2.8-17.2C342.6 198.5 337.8 195.1 333.3 195.1z" class="z"/><path d="M288.7 232.5c0 0 11.3-31.7-5.4-37.4C272.9 191.6 260.5 224.3 288.7 232.5z" class="q"/><path d="M288.2 232.4c0 0 7.5-31.3-6.2-37C273.4 191.9 259.6 226.1 288.2 232.4z" class="v"/><path d="M286.3 231.7c0 0 6.7-27.9-5.5-32.9C273.1 195.7 260.9 226.1 286.3 231.7z" class="w"/><ellipse transform="matrix(0.9907 -0.1362 0.1362 0.9907 -26.5941 39.814)" cx="277.7" cy="214.3" rx="5.4" ry="12.2" class="x"/><path d="M279 226.9c-3.2 0-6.3-5.1-7.2-11.8 -1-7.1 0.9-12.9 4.2-13.4 3.3-0.5 6.7 4.8 7.6 11.8 1 7.1-0.9 12.9-4.2 13.4C279.3 226.9 279.2 226.9 279 226.9zM276.4 202.8c-0.1 0-0.2 0-0.3 0 -2.6 0.4-4.1 5.9-3.2 12.2 0.9 6.2 3.8 11.2 6.4 10.8 2.6-0.4 4.1-5.9 3.2-12.2C281.7 207.7 279 202.8 276.4 202.8z" class="z"/><ellipse transform="matrix(0.9907 -0.1362 0.1362 0.9907 -26.4016 39.738)" cx="277.1" cy="212.8" rx="4.8" ry="9.9" class="y"/><ellipse transform="matrix(0.9907 -0.1362 0.1362 0.9907 -26.7188 39.8087)" cx="277.5" cy="215.1" rx="2" ry="4.4"/><path d="M288.1 232.9c-13.2-2.8-17.7-11.7-17.6-20.1l0 0c0-4.6 1.3-9.1 3.2-12.5l0 0c1.9-3.4 4.4-5.7 7-5.7l0 0c0.5 0 1 0.1 1.5 0.3l0 0c6.9 2.9 8.6 11.7 8.6 20l0 0c0 9.1-2.1 17.6-2.1 17.7l0 0 -0.1 0.5L288.1 232.9 288.1 232.9zM288.2 232.4l0.1-0.5L288.2 232.4 288.2 232.4zM274.6 200.8c-1.8 3.2-3.1 7.5-3.1 12l0 0c0 7.9 4 16 16.2 18.9l0 0c0.2-0.8 0.5-2.5 0.9-4.8l0 0c0.5-3.2 1-7.6 1-12l0 0c0-8.2-1.8-16.5-7.9-19l0 0c-0.3-0.1-0.7-0.2-1.1-0.2l0 0c0 0 0 0-0.1 0l0 0C278.8 195.6 276.4 197.6 274.6 200.8L274.6 200.8z"/><path d="M308 194.8c0 0-7.9-35.7 9.7-64.1 7.3-12.1 30.8-21.8 44-6.4 5.5 6.6 9 28-7.9 30.6 -10.6 1.3-22.7-13.6-10.6-20 3.7-1.1 5.5 1.1 5.1 6 -1.5 6.2 9.7 11.9 13.2 1.1 0.5-4.6-1.6-22.5-16.1-21.8C306.9 123.7 308.9 171.9 308 194.8z" class="q"/><path d="M308 194.8c0 0-7.9-35.7 9.7-64.1 7.3-12.1 30.8-21.8 44-6.4 5.5 6.6 5.9 25.5-8.4 28.2 -8 1.4-15.2-7.5-10.2-14 2.9-1.9 5.5-1.5 5.1 3.5 -1.4 4.9 9.8 10.9 13.3 0.1 0.5-4.6-1.6-22.5-16.1-21.8C306.9 123.7 308.9 171.9 308 194.8z" class="r"/><path d="M305.7 175.4c0-12.8 2.2-29.9 11.6-45l0 0c4.8-7.8 16-14.6 27-14.6l0 0c6.4 0 12.9 2.3 17.8 8.1l0 0c2.6 3.1 4.6 9.1 4.7 15.1l0 0c0 7.4-3.3 14.9-12.9 16.4l0 0c-0.5 0.1-0.9 0.1-1.4 0.1l0 0c-7.4 0-14.8-6.8-14.9-13.3l0 0c0-2.9 1.6-5.8 5.3-7.8l0 0 0 0 0.1 0c0.7-0.2 1.3-0.3 1.9-0.3l0 0c1.3 0 2.4 0.5 3 1.6l0 0c0.7 1 1 2.4 1 4.1l0 0c0 0.4 0 0.8 0 1.2l0 0 0 0 0 0c-0.1 0.3-0.1 0.7-0.1 1l0 0c0 1.4 0.7 2.8 1.8 3.8l0 0c1.1 1 2.7 1.7 4.2 1.7l0 0c2.3 0 4.8-1.4 6.2-5.6l0 0c0-0.4 0.1-0.8 0.1-1.4l0 0c0-2.9-0.7-7.9-2.9-12.2l0 0c-2.2-4.2-5.9-7.6-11.9-7.6l0 0c-0.3 0-0.5 0-0.8 0l0 0c-19 1.7-27.9 14.4-32.3 29.6l0 0c-4.4 15.2-4.1 33-4.6 44.4l0 0 -0.4 3.1C308.2 197.9 305.7 186.9 305.7 175.4L305.7 175.4zM318.2 130.9c-9.2 14.9-11.4 31.8-11.4 44.5l0 0c0 5.5 0.4 10.2 0.8 13.6l0 0c0.3-11.2 0.7-25.9 4.4-39l0 0c4.4-15.4 13.8-28.7 33.3-30.4l0 0c0.3 0 0.6 0 0.9 0l0 0c6.5 0 10.5 3.8 12.8 8.2l0 0c2.3 4.5 3 9.6 3.1 12.7l0 0c0 0.6 0 1.1-0.1 1.5l0 0 0 0.1 0 0.1c-1.4 4.6-4.4 6.5-7.3 6.5l0 0c-3.7 0-7.1-3-7.1-6.6l0 0c0-0.4 0-0.8 0.1-1.2l0 0c0-0.4 0-0.8 0-1.1l0 0c0-1.6-0.3-2.8-0.8-3.5l0 0c-0.5-0.7-1.1-1.1-2.1-1.1l0 0c-0.4 0-0.9 0.1-1.5 0.2l0 0c-3.4 1.8-4.7 4.3-4.7 6.8l0 0c0 2.8 1.7 5.9 4.3 8.3l0 0c2.6 2.3 6.1 3.9 9.5 3.9l0 0c0.4 0 0.8 0 1.2-0.1l0 0c9-1.4 11.9-8.2 11.9-15.3l0 0c0-5.8-2-11.6-4.4-14.4l0 0c-4.7-5.5-10.8-7.7-17-7.7l0 0c0 0 0 0 0 0l0 0C333.6 116.9 322.7 123.5 318.2 130.9L318.2 130.9z"/><path d="M292.4 199c0 0-12.1-35.2-36.3-49.8 -9-6.2-29.9-13.2-42.9 3.7 -10.9 16.3 0.2 30.1 12.1 29.5 8.1 0 17-7.1 14.3-18.1 -1.8-5.1-9.2-8.6-11.5-3.7 -2 6.2 9.7 7.9 4 14.1 -5.3 4.6-18.7 1.8-19.8-8.8 -0.2-8.2 7.9-26.2 31.9-18.5C261.8 154.1 275.4 166.6 292.4 199z" class="q"/><path d="M292.4 199c0 0-12.1-35.2-36.3-49.8 -9-6.2-29.9-13.2-42.9 3.7 -10.9 16.3 0.3 27.7 12.2 27.1 8.1 0 14-6.9 11.8-12.9 -1.8-5.1-3.8-7.1-7.1-4.4 -4 5 7.7 5.8 2 12 -5.3 4.6-18.7 1.8-19.8-8.8 -0.2-8.2 7.9-26.2 31.9-18.5C261.8 154.1 275.4 166.6 292.4 199z" class="r"/><path d="M244 147.9c-4-1.3-7.6-1.8-10.7-1.8l0 0c-7.5 0-12.6 3.2-15.8 7.2l0 0c-3.2 4-4.6 9-4.6 12.3l0 0c0 0.1 0 0.2 0 0.3l0 0c0.7 7 7 10.4 12.6 10.4l0 0c2.5 0 4.7-0.7 6.3-2l0 0c1.1-1.2 1.4-2.1 1.4-2.8l0 0c0-1.4-1.3-2.7-2.8-4.1l0 0c-1.4-1.4-3.1-3-3.1-5.3l0 0c0-0.5 0.1-1 0.3-1.6l0 0 0 0 0 0c0.9-1.9 2.5-2.7 4.2-2.7l0 0c3.3 0 7 2.8 8.3 6.4l0 0 0 0 0 0c0.4 1.4 0.5 2.8 0.5 4.1l0 0c0 9.1-8 14.7-15.3 14.7l0 0c-0.2 0-0.5 0-0.7 0l0 0c-8.5 0-16.4-7-16.4-16.9l0 0c0-4.1 1.4-8.7 4.6-13.5l0 0c6.2-8 14.1-10.8 21.7-10.7l0 0c8.7 0 17 3.6 21.9 7l0 0c25.8 15.9 36.5 50.1 36.5 50.1l0.4 2.4C276.3 168.7 261.5 154.6 244 147.9L244 147.9zM233.3 144.9c3.3 0 6.9 0.6 11.1 1.9l0 0c16 6.2 28.7 17 43.5 42.9l0 0c-1.3-2.9-3-6.3-5.1-9.9l0 0c-6-10.6-15.1-23-27-30.2l0 0c-4.7-3.3-12.8-6.8-21.3-6.8l0 0c-7.3 0-14.9 2.6-20.8 10.3l0 0c-3.1 4.6-4.4 9-4.4 12.9l0 0c0 9.3 7.4 15.8 15.3 15.8l0 0c0.2 0 0.4 0 0.7 0l0 0c3.4 0 7-1.3 9.7-3.7l0 0c2.7-2.4 4.6-5.8 4.6-9.9l0 0c0-1.2-0.2-2.5-0.5-3.8l0 0c-1.1-3.1-4.6-5.7-7.3-5.7l0 0c-1.4 0-2.5 0.6-3.2 2l0 0c-0.1 0.4-0.2 0.8-0.2 1.2l0 0c0 1.7 1.3 3.1 2.8 4.5l0 0c1.4 1.4 3.1 2.8 3.1 4.9l0 0c0 1.1-0.5 2.3-1.7 3.6l0 0 0 0 0 0c-1.8 1.5-4.3 2.3-7 2.3l0 0c-6 0-12.9-3.7-13.7-11.4l0 0 0 0 0 0c0-0.1 0-0.2 0-0.3l0 0c0-3.6 1.4-8.7 4.8-13l0 0c3.4-4.3 8.8-7.7 16.7-7.7l0 0C233.3 144.9 233.3 144.9 233.3 144.9L233.3 144.9z"/><ellipse transform="matrix(0.8885 -0.4588 0.4588 0.8885 -58.13 177.4742)" cx="336.2" cy="208.4" rx="4.5" ry="6.2"/><ellipse cx="275.4" cy="207" rx="2.1" ry="2.8" class="w"/><circle cx="328.4" cy="203" r="2.9" class="w"/><ellipse transform="matrix(0.4527 0.8917 -0.8917 0.4527 431.6212 -153.5958)" cx="340.9" cy="274.8" rx="18.5" ry="12.4" fill="#F4F042"/></svg>