<svg xmlns="http://www.w3.org/2000/svg" viewBox="0 0 768 430"><style>.a{fill:#388B31;}.b{fill:#204F1C;}.c{fill:#EECFAF;}.d{fill:#BADBC4;}.e{fill:#1D8ED4;}.f{fill:#EAB991;}.g{fill:#BEC0BD;}.h{fill:#AE805A;}.i{fill:#7D4C20;}.j{fill:#69AA27;}.k{fill:#312400;}.l{fill:#FFF;}.m{fill:#503214;}.n{fill:#EC8A00;}</style><path d="M431.8 249.3l-5.2-4.2 -68 11 3.7 16.6c-3.9 2.7-11.4 8.7-17.9 18.5 0 0 6.5 24.4 35.7 30.5 0 0 6.5-11.7 9.1-16.7 2.6-5 10-5.7 13.6-2.6 3.6 3.1 10.7 7.9 10.7 7.9s28.5 3.1 35.9-26.6C449.4 283.7 437.7 255 431.8 249.3z" class="a"/><path d="M344.4 291.1c0 0 6.1-3.2 21.2 8.5s15.4 20.1 14.6 21.9C380.1 321.6 352.6 317.6 344.4 291.1z" class="b"/><path d="M374 307.4c0 0-17 18.5-28.2 45 -11.2 26.5-9.8 44.3-22.2 46 -12.4 1.7-3-49.5 0.4-63.7 3.4-14.2 16.6-38.3 20.4-43.5C344.4 291.1 352.8 286.1 374 307.4z" class="c"/><path d="M334.9 360.6c-5.1-3.1-10.6-4-15.3-2.3 -2.8 19.2-4.2 41.2 4 40.1 10.2-1.4 11.1-13.6 17.2-32.6C339.2 363.8 337.2 362 334.9 360.6z" class="d"/><path d="M326.2 376.5c-2.5-0.1-6.6 0-8.5 1.9 -0.1 0.1-0.2 0.2-0.3 0.3 -0.5 11.5 0.9 20.4 6.1 19.7 6.9-0.9 9.5-6.9 12.4-16.5C333.8 378.8 330.5 376.6 326.2 376.5z" class="e"/><path d="M329 380.3c-0.3-1.2-3.4-1-4.2-1 -2 0-4 0.2-5.9 1 -1.3 0.5-1 1.4-1 2.6 0 0.2 0.3 0.3 0.4 0.1 0.1-0.2 0.1-0.3 0.2-0.5 0.1-0.3 0.4-1 0.1-0.9 1.4-0.4 2.8-0.8 4.3-0.9 1.5-0.1 3-0.2 4.4 0.1 1 0.2 0.4 3.7 0.4 4.3 0 0.2 0.4 0.3 0.5 0.1C328.8 383.7 329.4 381.9 329 380.3z" class="e"/><path d="M422.7 309.7c0 0 13.7 17.9 39.7 33.1 26 15.2 40.7 13.1 41.3 9 1-6.5-17.8-14.8-33.6-33.1s-22.9-28.6-22.9-28.6S442.6 305.9 422.7 309.7z" class="f"/><path d="M478.1 327c0 0-0.8 4.3-3.4 7.9 -3.4 4.6-7 6.9-13.1 7.4 0.3 0.2 0.5 0.3 0.8 0.5 26 15.2 40.7 13.1 41.3 9C504.6 346.4 491.6 339.7 478.1 327z" class="d"/><path d="M490.7 337.6c-0.4 6-6.4 10.8-12.6 12.9 16.2 6.4 25.2 4.5 25.7 1.3C504.3 348.1 498.6 343.9 490.7 337.6z" class="e"/><path d="M495.2 347.2c-1.5-1-3.7-2.2-5.6-1.3 -1.9 0.9-3.8 3.9-4.5 5.8 -0.1 0.3 0.2 0.5 0.4 0.2 1-1.6 2.2-3 3.5-4.3 1.7-1.7 4.1-0.2 6.1 0C495.2 347.7 495.4 347.4 495.2 347.2z" class="e"/><circle cx="297.8" cy="335.8" r="38.3" fill="#EAEAEA"/><path d="M282.4 315.7l-13.6 8.5c0 0-0.4 18.6 0.1 18.5 0.4-0.1 20.3-0.1 20.3-0.1l4.9-14.4L282.4 315.7z"/><path d="M310.7 325.2c0 0 9.1 16.7 9.5 16.5 0.3-0.2 11.2-2.2 15.8-3 0.2-3 0.1-6-0.4-9.1 -0.8-4.8-2.4-9.2-4.7-13.2l-16.3-4.7L310.7 325.2z"/><path d="M305.3 300.4l1.3-1.9c-4.7-1.1-9.8-1.3-14.9-0.5 -2.9 0.5-5.6 1.3-8.2 2.3l3.1 2.4L305.3 300.4z"/><path d="M296 356.2l-7.9 13.3 0.8 3.6c4.8 1.2 9.9 1.4 15.1 0.5 6.5-1.1 12.3-3.7 17.2-7.4l-7.5-9.2L296 356.2z"/><path d="M268.9 342.3c0 0-0.3 0.6-0.9 1.3 -0.6 0.8-1.4 1.7-2.2 2.6 -0.9 0.9-1.8 1.8-2.5 2.4 -0.7 0.6-1.3 1-1.3 1s0.3-0.6 0.9-1.3c0.6-0.8 1.4-1.7 2.3-2.6 0.9-0.9 1.8-1.8 2.5-2.4C268.3 342.6 268.9 342.3 268.9 342.3z" class="g"/><path d="M263.4 319c0 0 0.4 0.2 1 0.6 0.6 0.4 1.3 1 2 1.6 0.7 0.7 1.3 1.4 1.7 1.9 0.4 0.6 0.7 1 0.7 1s-0.4-0.2-1-0.6c-0.6-0.4-1.3-1-2-1.6 -0.7-0.6-1.3-1.3-1.7-1.9C263.7 319.4 263.4 319 263.4 319z" class="g"/><path d="M282.4 315.7c0 0 0-0.2 0.1-0.6 0.1-0.4 0.2-0.9 0.3-1.5 0.3-1.3 0.7-2.9 1.2-4.5 0.5-1.6 1.1-3.2 1.6-4.4 0.2-0.6 0.5-1.1 0.6-1.4 0.2-0.3 0.3-0.5 0.3-0.5s0 0.2-0.1 0.6c-0.1 0.4-0.2 0.9-0.3 1.5 -0.3 1.3-0.7 2.9-1.2 4.5 -0.5 1.6-1.1 3.2-1.6 4.4 -0.2 0.6-0.5 1.1-0.6 1.4C282.5 315.5 282.4 315.7 282.4 315.7z" class="g"/><path d="M305.3 300.4c0 0 0.2 0.2 0.5 0.4 0.3 0.3 0.7 0.7 1.2 1.2 1 1 2.2 2.4 3.3 3.8 1.2 1.4 2.3 2.9 3.1 4 0.4 0.6 0.7 1.1 0.9 1.4 0.2 0.3 0.3 0.5 0.3 0.5s-0.2-0.2-0.5-0.4c-0.3-0.3-0.7-0.7-1.2-1.2 -1-1-2.2-2.4-3.3-3.8 -1.2-1.4-2.3-2.9-3-4 -0.4-0.6-0.7-1.1-0.9-1.4C305.4 300.6 305.3 300.4 305.3 300.4z" class="g"/><path d="M294.1 328.2c0 0 0.3-0.1 0.7-0.2 0.4-0.1 1.1-0.3 1.8-0.5 1.5-0.4 3.6-0.8 5.7-1.2 2.1-0.4 4.2-0.7 5.7-0.9 0.8-0.1 1.4-0.1 1.9-0.2 0.5 0 0.7 0 0.7 0s-0.3 0.1-0.7 0.2c-0.4 0.1-1.1 0.3-1.8 0.5 -1.5 0.4-3.6 0.8-5.7 1.2 -2.1 0.4-4.2 0.7-5.7 0.9 -0.8 0.1-1.4 0.1-1.9 0.2C294.4 328.2 294.1 328.2 294.1 328.2z" class="g"/><path d="M289.2 342.7c0 0 0.1 0.2 0.4 0.5 0.2 0.4 0.6 0.9 0.9 1.5 0.7 1.2 1.6 2.9 2.5 4.6 0.9 1.7 1.6 3.4 2.2 4.7 0.3 0.7 0.5 1.2 0.6 1.6 0.1 0.4 0.2 0.6 0.2 0.6s-0.1-0.2-0.4-0.5c-0.2-0.4-0.6-0.9-0.9-1.5 -0.7-1.2-1.6-2.9-2.5-4.6 -0.8-1.7-1.6-3.4-2.2-4.7 -0.3-0.7-0.5-1.2-0.6-1.6C289.3 342.9 289.2 342.7 289.2 342.7z" class="g"/><path d="M313.6 357c0 0 0.1-0.3 0.2-0.7 0.1-0.4 0.3-1.1 0.6-1.8 0.5-1.5 1.3-3.4 2.1-5.3 0.8-1.9 1.7-3.8 2.4-5.2 0.4-0.7 0.7-1.3 0.9-1.7 0.2-0.4 0.4-0.6 0.4-0.6s-0.1 0.3-0.2 0.7c-0.1 0.4-0.3 1.1-0.6 1.8 -0.5 1.5-1.3 3.4-2.1 5.3 -0.8 1.9-1.7 3.8-2.4 5.2 -0.4 0.7-0.7 1.3-0.9 1.7C313.8 356.8 313.6 357 313.6 357z" class="g"/><path d="M287.7 369.9c0 0-0.4 0.2-0.9 0.3 -0.6 0.1-1.3 0.3-2 0.3 -0.7 0.1-1.5 0-2.1 0 -0.6-0.1-0.9-0.2-0.9-0.2s0.4-0.2 0.9-0.3c0.6-0.1 1.3-0.3 2-0.3 0.7 0 1.5 0 2.1 0C287.3 369.7 287.7 369.9 287.7 369.9z" class="g"/><path d="M446.7 208c0 0 41.6-1.3 63.8 17.9 -3.1 6.6-2.9 13.6 3.8 15.2 3.4 5.6 11.6 8.6 14.1 4.6 6.9-2.9 12.5-6.8 10.8-15.1s-11.7-16.6-21.5-10.3c-7.7-10.7-35-33.7-71.3-36.5L446.7 208z" class="c"/><path d="M514.3 241.1c0 0 0.2-0.5 0.3-1.3 0.1-0.4 0.1-0.8 0.1-1.3 0-0.5-0.1-1-0.2-1.4 -0.1-0.2-0.2-0.5-0.2-0.7 -0.1-0.2-0.2-0.4-0.3-0.6 -0.1-0.2-0.2-0.4-0.4-0.6 -0.1-0.2-0.3-0.4-0.4-0.5 -0.2-0.3-0.5-0.6-0.6-0.8 -0.1-0.2-0.2-0.3-0.2-0.3s0.1 0 0.3 0.2c0.2 0.1 0.6 0.2 0.9 0.5 0.2 0.1 0.4 0.3 0.5 0.4 0.2 0.2 0.3 0.4 0.5 0.6 0.2 0.2 0.3 0.5 0.5 0.7 0.1 0.3 0.2 0.5 0.3 0.8 0.1 0.3 0.1 0.6 0.2 0.9 0 0.3 0 0.6 0 0.9 -0.1 0.5-0.2 1-0.4 1.4C514.7 240.7 514.3 241.1 514.3 241.1z" class="h"/><path d="M527.9 239.8c0 0 0.3 0.4 0.6 1 0.1 0.3 0.3 0.7 0.3 1.1 0.1 0.4 0.1 0.9 0.2 1.3 0 0.5-0.1 0.9-0.2 1.4 -0.1 0.4-0.3 0.8-0.5 1.1 -0.2 0.3-0.4 0.5-0.5 0.6 -0.2 0.1-0.2 0.2-0.2 0.2s0-0.1 0.1-0.3c0.1-0.2 0.1-0.5 0.2-0.8 0-0.2 0-0.3 0.1-0.5 0-0.2 0-0.4 0.1-0.5 0-0.4 0.1-0.8 0-1.2 0-0.4 0-0.8 0-1.2 0-0.4 0-0.8-0.1-1.1C527.9 240.3 527.9 239.8 527.9 239.8z" class="h"/><path d="M332 193.9c0 0-28.3 0.9-36.9-22.8 5-5.3 10.2-9.8 6.5-12.7 -1.3-10.3-7.3-14.2-17-12.7 -9.6 1.5-13.1 14.7-7.8 21.5 5.3 6.8 10.6 4.8 10.6 4.8s0.2 19.7 10.8 30.5c10.6 10.7 27.4 16.1 38.2 11.2L332 193.9z" class="c"/><path d="M302 158.4c-1.1-0.4-2.2-0.9-3.3-1.3 -1.1-0.4-2.2-0.8-3.3-1.1 -0.6-0.1-1.1-0.3-1.7-0.4 -0.3-0.1-0.6-0.1-0.8-0.1 -0.3 0-0.6-0.1-0.8-0.1 -0.3 0-0.6 0-0.8-0.1l-0.8 0 -0.8 0.1c-0.2 0.1-0.5 0.2-0.7 0.3l0 0 -0.4 0.3c-0.1 0.1-0.3 0.2-0.3 0.4l-0.1 0.2 -0.1 0.2c0 0.1-0.1 0.3 0 0.4l0 0.2 0.1 0.2c0 0.2 0.2 0.3 0.3 0.4 0.2 0.3 0.5 0.5 0.8 0.8 0.3 0.2 0.6 0.4 1 0.6 0.2 0.1 0.3 0.2 0.5 0.3 0.2 0.1 0.3 0.2 0.5 0.3 0.7 0.3 1.5 0.6 2.2 0.9l0.7 0.2 -0.6 0.4c-0.2 0.2-0.5 0.3-0.7 0.5 -0.2 0.2-0.5 0.4-0.6 0.6 -0.4 0.4-0.8 0.9-1 1.4 -0.6 1-0.9 2.2-1 3.4 -0.1-0.6 0-1.2 0.1-1.8 0.1-0.6 0.3-1.2 0.5-1.8 0.1-0.3 0.3-0.6 0.4-0.8 0.2-0.3 0.4-0.5 0.6-0.8 0.2-0.3 0.4-0.5 0.7-0.7 0.2-0.2 0.5-0.4 0.7-0.6l0.1 0.6c-0.8-0.2-1.6-0.4-2.4-0.8 -0.2-0.1-0.4-0.2-0.6-0.3 -0.2-0.1-0.4-0.2-0.6-0.3 -0.4-0.2-0.7-0.4-1.1-0.7 -0.3-0.3-0.7-0.6-1-0.9 -0.1-0.2-0.3-0.4-0.4-0.6 0-0.1-0.1-0.2-0.1-0.3l-0.1-0.4c0-0.2 0-0.5 0.1-0.8 0-0.1 0.1-0.2 0.1-0.4l0.2-0.3c0.1-0.2 0.3-0.4 0.5-0.5 0.2-0.1 0.4-0.3 0.6-0.4l0 0 0 0c0.3-0.1 0.6-0.2 0.9-0.3l0.9-0.1 0.9 0c0.3 0 0.6 0.1 0.9 0.1 0.3 0 0.6 0.1 0.9 0.1 0.3 0.1 0.6 0.1 0.9 0.2 0.6 0.1 1.2 0.3 1.7 0.5C297.9 156.2 300 157.1 302 158.4z" class="h"/><path d="M426.7 211.5c12.5 1.2 20.5 1.8 20.5 1.8s3.7-18.7 0.2-32.1c-26.2-5.6-48.9-7.7-62.3-5.8 0 0 0.4 3.3 0.1 10.6 -0.3 7.3-7.7 7.8-11.2 6.2 -3.4-1.6-4.6-13.6-4.6-13.6s-2.8 0.7-8.1 4.4c-5.3 3.8-18.8 9.2-30.6 7.9 0 11.7 7.4 28.5 7.4 28.5l16.9-4.2c0 0-6.6 27.3 2.8 53.3 27.9 14.4 59.8 1.6 82-14.7C430.1 234.1 426.4 218.2 426.7 211.5z" fill="#FABF05"/><path d="M374 192.1c3.4 1.6 10.9 1.1 11.2-6.2 0.3-7.3-0.1-10.6-0.1-10.6 -1-2.3-1-2.3-1-2.3l-15.2 1.7 0.6 3.8C369.4 178.5 370.5 190.5 374 192.1z" class="f"/><path d="M316.3 134.1c0 0-1.2-6.4-7.6-4.9 -6.4 1.5-10.5 9.9-5.7 16.4 4.2 5.1 9 4.8 10.9 2.7S316.3 134.1 316.3 134.1z" fill="#DCB791"/><path d="M311.7 137.7c-0.2-0.3-0.3-0.6-0.5-0.9 -1.2-1.7-3.7-2.7-5.5-1.2 -1.2 1.1-1.6 2.4-1.4 3.9 0.1-0.9 0.4-1.8 1-2.5 1.2-1.3 3-1.3 4.2 0 1.1 1.1 1.1 3.1 0 4.1 -0.2 0.3-0.5 0.6-0.8 0.7 -0.2 0.1-0.4 0.1-0.7 0.1 -0.7 0.1-1.3-0.1-1.8-0.6 0.4 1.4 1.9 2.2 3.3 1.8 0.7-0.2 1.3-0.8 1.8-1.4 0.3 1.6 0 3.2-1.2 4.3 0 0-0.1 0.1-0.1 0.1 1-0.2 2-2.2 2.3-3C312.8 141.2 312.3 139.5 311.7 137.7z" class="h"/><path d="M474.8 132.3c-10.2 0.5-30.9-5.5-38.1-7.6l0 2.6c0 0 47.5 16.1 49.1 1.8 0.2-1.9 0-3.7-0.6-5.4C485.8 127.3 485.8 131.7 474.8 132.3z" class="b"/><path d="M436.8 95.4l-0.1 29.3c7.1 2.2 27.9 8.2 38.1 7.6 11-0.6 11.1-4.9 10.4-8.6C479.3 106 436.8 95.4 436.8 95.4z" class="a"/><path d="M429.7 120.8c-5-0.8-8.5 4.7-8.5 4.7s-1.8 9.4-2.8 8.5c-3.9-3.6-12.2-24.4-12.2-24.4s2.1 9.6-1.1 8.9c-3.2-0.7-14.3-12.4-14.3-12.4s5.1 10.3-1.5 10.2c-6.6-0.1-21.3-13.2-21.3-13.2s3.2 11.7-0.2 12.3c-3.4 0.7-11.3-6.7-18.6-15.2 -6.4 9.2-18.5 15.7-20.2 14 -1.6-1.7 0.5-9.4 0.5-9.4s-9.9 10.6-17.3 15.7c0 0 5.2 12.7 1.9 23.7 -3.3 11.1-4.6 17 9.8 25.1 14.5 8 37 18.4 61.1 8.3 24.1-10.1 33.3-22.5 35.1-32.7 0 0.2 2.2 1.5 2.5 1.6 0.8 0.4 1.6 0.8 2.5 1 1.5 0.4 3.1 0.2 4.5-0.5 3.3-1.6 6.5-5.2 8-8.5 0.6-1.2 0.9-2.6 1-3.9 0.1-1.2 0.3-2.4 0.2-3.6 -0.2-1.3-0.9-2.5-1.4-3.7 -0.9-1.9-2-3.9-3.8-5.2C432.4 121.5 431 121 429.7 120.8z" class="c"/><path d="M438 97.5c0 0-16.7-7.1-49.2-12.2 -62.3-5.6-84.8 13.2-84.8 13.2s-12.9 15.5-13.9 22.4c-0.4 2.6 2.9 6.2 17.7-9.6 -2.1 5.4-2.3 9.7-1.4 10.4 1.9 1.3 5.8-1.3 5.8-1.3 7.4-5 17.3-15.7 17.3-15.7s-2.1 7.8-0.5 9.4c1.6 1.7 13.8-4.8 20.2-14 7.3 8.5 15.2 15.8 18.6 15.2 3.4-0.7 0.2-12.3 0.2-12.3s14.6 13.1 21.3 13.2c6.6 0.1 1.5-10.2 1.5-10.2s11.1 11.7 14.3 12.4c3.2 0.7 1.1-8.9 1.1-8.9s8.2 20.9 12.2 24.4c1 0.8 2.8-8.5 2.8-8.5s3.5-5.5 8.5-4.7c5 0.8 6.8 4.9 8.4 8.6 0 0 5.1-0.7-0.9-9.9 7.5 5.4 8.1 4.3 8.3 2.9 0.2-1.4-2.8-11.6-7-15.1 9.2 3.8 10.7 3.3 11.6 1.5C451.3 107.1 438 97.5 438 97.5z" class="i"/><path d="M369 33.1c9.5 4.7 23.4 17.6 23.4 52.8 30.1 5.1 45.6 11.6 45.6 11.6S439.6 38.5 369 33.1z" class="j"/><path d="M347.8 34c-38.5 6.7-47 41.7-43.8 64.6 0 0 2.7-2.2 8.7-4.9C311.7 83.2 311.2 46.7 347.8 34z" class="j"/><path d="M392.4 85.9c0.1-35.2-13.9-48.1-23.4-52.8 -0.2 0-0.4 0-0.6-0.1 -7.7-0.5-14.6-0.1-20.7 0.9 -36.5 12.8-36 49.3-35.1 59.6 11.5-5.2 35.3-12 76.1-8.3C390 85.5 391.2 85.7 392.4 85.9z" class="a"/><path d="M319.3 84.5c0 0 23.1-5.1 38.7-4.6 0.5-18.7-11.1-22.6-20.2-21.8C328.6 58.9 319.2 70.7 319.3 84.5z" class="i"/><path d="M363.5 130.8c1.5 4.9 1 9.4-1.2 10.1 -2.2 0.7-5.2-2.7-6.8-7.6 -1.5-4.9-1-9.4 1.2-10.1C359 122.6 362 126 363.5 130.8z" class="k"/><path d="M358.5 129.5c0.5 1.6 0.3 3-0.4 3.2 -0.7 0.2-1.7-0.9-2.2-2.4 -0.5-1.6-0.3-3 0.4-3.2C357.1 126.9 358 128 358.5 129.5z" class="l"/><path d="M327 141.8c0.2 4.3-1.2 7.9-3.2 8 -2 0.1-3.7-3.3-3.9-7.7 -0.2-4.3 1.2-7.9 3.2-8C325 134 326.8 137.5 327 141.8z" class="k"/><path d="M323.1 139.6c0.1 1.4-0.4 2.5-1 2.6 -0.6 0-1.2-1.1-1.2-2.5 -0.1-1.4 0.4-2.5 1-2.6C322.5 137.1 323.1 138.2 323.1 139.6z" class="l"/><path d="M330.8 148.6c3.8-2.4 7 2.5 7 2.5s-2.9-6.8-8.8-2.8c-5.9 4-0.1 11.9 8.4 9C329.3 158.9 325.9 151.8 330.8 148.6z" class="h"/><path d="M330.9 163.1c-0.2 0.2-0.4 0.4-0.7 0.6 -0.2 0.2-0.5 0.3-0.7 0.5 -0.2 0.2-0.5 0.3-0.8 0.4l-0.8 0.4 0-0.3 1.2 0.6 1.2 0.6c0.8 0.4 1.7 0.7 2.5 1l1.3 0.4c0.4 0.1 0.9 0.2 1.3 0.3 0.9 0.3 1.8 0.4 2.7 0.6 0.9 0.2 1.8 0.2 2.7 0.4 0.9 0.1 1.8 0.1 2.7 0.1 0.9 0 1.8-0.1 2.7-0.1l2.7-0.3c0.9-0.1 1.8-0.4 2.6-0.6 0.9-0.2 1.7-0.5 2.6-0.8 0.9-0.2 1.7-0.6 2.5-1 0.8-0.4 1.7-0.7 2.5-1.1l2.4-1.3 2.3-1.5c0.4-0.2 0.8-0.5 1.1-0.7l1.1-0.8 2.2-1.7 -2 1.8 -1 0.9c-0.4 0.3-0.7 0.6-1.1 0.8l-2.2 1.6 -2.4 1.4c-0.8 0.5-1.6 0.9-2.5 1.3 -0.8 0.4-1.7 0.8-2.6 1 -0.9 0.3-1.7 0.6-2.6 0.8 -0.9 0.2-1.8 0.5-2.7 0.6 -0.9 0.1-1.8 0.3-2.8 0.4 -0.9 0-1.9 0.1-2.8 0.1 -0.9-0.1-1.9-0.1-2.8-0.2 -0.9-0.1-1.8-0.2-2.7-0.4 -0.9-0.2-1.8-0.4-2.7-0.7 -0.4-0.1-0.9-0.3-1.3-0.4l-1.3-0.5c-0.9-0.3-1.7-0.7-2.5-1.1l-1.2-0.7 -1.2-0.7 -0.2-0.1 0.3-0.1 0.8-0.3c0.3-0.1 0.5-0.2 0.8-0.4 0.3-0.1 0.5-0.3 0.8-0.4C330.4 163.5 330.6 163.3 330.9 163.1z" class="h"/><path d="M365.2 156.8c0 0 0.4 0.3 1 0.8 0.3 0.2 0.7 0.4 1.1 0.7 0.4 0.2 0.8 0.4 1.3 0.6 0.4 0.2 0.9 0.3 1.3 0.4 0.2 0 0.4 0.1 0.6 0.1 0.2 0 0.4 0.1 0.6 0.1 0.4 0.1 0.7 0.1 0.9 0.1 0.2 0 0.4 0.1 0.4 0.1s-0.1 0.1-0.3 0.1c-0.2 0.1-0.5 0.2-0.9 0.2 -0.2 0-0.4 0.1-0.6 0.1 -0.2 0-0.5 0-0.7 0 -0.5-0.1-1-0.2-1.5-0.4 -0.5-0.2-1-0.5-1.4-0.8 -0.4-0.3-0.7-0.6-1-1C365.4 157.3 365.2 156.8 365.2 156.8z" class="h"/><path d="M425.8 130.9c0.2-0.4 0.5-0.7 0.7-1 1.5-2 4.7-3 6.7-1.1 1.4 1.4 1.8 3.1 1.4 4.9 -0.1-1.1-0.4-2.3-1.1-3.1 -1.4-1.6-3.5-1.8-5.1-0.3 -1.4 1.3-1.5 3.6-0.3 5 0.2 0.4 0.5 0.7 0.9 0.9 0.3 0.1 0.5 0.1 0.8 0.1 0.8 0.2 1.6 0 2.3-0.6 -0.6 1.6-2.5 2.5-4.1 1.9 -0.8-0.3-1.6-1-2.1-1.9 -0.4 1.9-0.3 3.9 1.2 5.3 0 0.1 0.1 0.1 0.1 0.2 -1.3-0.3-2.3-2.9-2.5-3.8C424.2 135.2 425 133.1 425.8 130.9z" class="h"/><path d="M314.4 125.4c0 0 2-8.1 9 2.5C319.5 114.9 313.6 116.8 314.4 125.4z" class="m"/><path d="M345 125.6c0 0 1.6-9.5 9.2-11.5 7.6-2 12.3 5.4 12.3 5.4s-4.6-10.4-11.6-8.9C348 112.2 344.6 117.5 345 125.6z" class="m"/><path d="M369 175.7c-0.4 0.6-0.9 1.1-1.4 1.7 -0.7 0.8-1.4 1.7-2 2.7 2.5-1.4 3.7-1.7 3.7-1.7L369 175.7z" fill="none"/><path d="M365.7 180.1c-1.2 0.7-2.6 1.5-4.3 2.8 -5.3 3.8-18.8 9.2-30.6 7.9 0 11.7 7.4 28.5 7.4 28.5l16.9-4.2C355 215.1 356.5 193.7 365.7 180.1z" class="n"/><path d="M368.8 174.7l0.2 1c0.3-0.4 0.6-0.8 0.8-1.1L368.8 174.7z" class="f"/><path d="M394.7 182.7c-1.1 10.1 14.5 23.2 32 28.7 12.5 1.2 20.5 1.8 20.5 1.8s3.7-18.7 0.2-32.1c-16.1-3.4-30.8-5.6-43-6.2C399.4 176.4 395.1 178.8 394.7 182.7z" class="n"/></svg>