<svg xmlns="http://www.w3.org/2000/svg" viewBox="0 0 768 430"><style>.a{fill:#FFB888;}.b{fill:#FBC130;}.c{fill:#E3803E;}.d{fill:#E7343F;}.e{fill:#AB522D;}.f{fill:#5B79A3;}.g{fill:#A2CCE4;}.h{fill:#FDFFE9;}.i{fill:#EFD7A7;}.j{fill:#EA965D;}.k{fill:#FFEDDC;}.l{fill:#F2802E;}.m{fill:#A6492D;}.n{fill:#618EA2;}.o{fill:#374C7D;}.p{fill:#38120D;}.q{fill:#1D1D1B;}.r{fill:#FFF;}</style><path d="M274.7 381.2c0.6 3 2.9 5.3 5.3 7 0.2-1.5 1-4.2 2.4-5.1 -1.6 0.5-3.3 0.8-4.9 0.2C276.7 382.9 275.1 381.1 274.7 381.2z" class="a"/><path d="M259.6 90.3c0-0.3-0.2-0.5-0.3-0.8 -6.7 4.9-12.9 10.7-20.4 14.2 0.8 0.9 5 1.2 6.2 1.5 3.5 0.9 6.9 2 10.3 3.2 6.6 2.3 12.9 5.2 19.1 8.5 0.2-2.4-5.1-7.9-6.4-10C264.8 101.7 261.9 96.1 259.6 90.3z" class="b"/><path d="M239.4 122.5c-0.9 0.1-1.8 0.2-2.7 0.3 1.9 4.9 3.3 9.9 5.1 14.8 1.9 5.1 1.4 4 5.5 0.6 4.5-3.6 9.1-7.1 13.7-10.5 2.4-1.8 13.1-7.6 13.4-10.1C262.8 120.1 251.1 121.3 239.4 122.5 238.5 122.6 241 122.4 239.4 122.5z" class="b"/><path d="M280.1 388.3c-1.2 1.7-5.6-5.1-5.7-6.7 -2.9 4.5 4.3 9.1 7.7 10 4.3 1.1 11.2 1.4 14.7-2 3.9-3.9-1.3-8.6-5.4-9C285.3 380.1 282.3 383.2 280.1 388.3 280.1 388.3 280.5 387.5 280.1 388.3z" class="c"/><path d="M298 384.1c0.1 0.2 0.2 0.5 0.2 0.7C298.2 384.6 298.1 384.3 298 384.1z" class="a"/><path d="M288.4 87.4c-12.2 3.3-12.3 26.7-12.3 36.3 -0.1 13.2 3.4 25.3 5.8 38.1 -1.6-13.5-0.5-27.7 2.2-41 1.8-8.9 5.1-24.7 15.7-26.2C297.7 90.4 293.5 86 288.4 87.4 287.3 87.7 289.6 87.1 288.4 87.4z" class="b"/><path d="M294.5 240.1c-1.2 0.1-2.3 0.2-3.5 0.3 -2.7 0.1-1.7 1.2-1.7 3.5 0 2.9 1.4 5.8 2.8 8.2 3 5.4 6.8 10.2 11.7 13.9 -1.2-4.8-2.3-9.6-3.4-14.4 -0.6-2.6-1.1-5.2-1.7-7.8C297.9 239.9 298.4 239.7 294.5 240.1 292.7 240.3 295.6 240 294.5 240.1z" class="d"/><path d="M261.2 282.9c3.3 0.1 4.5 1.2 5.1-2.2 0.8-3.9 1.5-7.7 1.9-11.6 0.6-5.3 1.1-11.1 0.1-16.5 0 6.5 4.7 13.2 6.8 19.1 1.4 4 2.6 8.1 3 12.4 0 0.4 6.8 1.4 7.6 1.5 3.4-23.3 2.2-47.9 1.2-71.3 -0.3-6.2-0.6-12.3-1-18.5 -0.1-1.2-0.2-2.4-0.3-3.7 -0.3-3-1.2-2.1-3.7-3 -3.4-1.2-6.5-3.1-9-5.8 -4.4-4.8-6-12.1-3.3-18.1 2.4-4.7 7.6-8 12-3.5 -4.2-14.6-8.1-28.2-7.3-43.6 -5.7 4.8-11.6 9.5-17.4 14.2 -3.6 2.9-7.2 5.8-10.7 8.8 -0.5 0.4-2.8 3.3-3.3 3.3 -3.6-7.4-5.6-15.3-8.5-22.9 1.4-1.2 7.4-0.7 9.2-0.8 3.5-0.3 7-0.6 10.6-0.9 2.3-0.2 20-1.1 20.1-2.7 -6.8-3.1-13.8-5.8-21-7.9 -4-1.2-8.1-2.3-12.1-3.2 -1.6-0.4-6.1-2.2-7.5-1.6 3.9-1.7 26.9-16.2 26.3-17 3.5 10.2 8.4 20.1 14.4 29.1 0.4-7.5 1.6-15.5 5.2-22.3 3.1-5.8 10.8-11.7 16.5-5.2 -2.2-6.2-5.8-11.7-10.9-15.9 -0.2-0.2-3.2-2.3-3.5-2 -1.6 2.4-2.3 4.7-4.7 6.6 2 2.1 4 4.2 6.1 6.2 -2.3-1.1-4.5-2.8-6.4-4.5 -1.6-1.4-3.1-2.9-4.2-4.7 -0.7-1-1.3-3.6-2.3-4.2 -1.8-4-23.6 16-25.5 17.7 -18.3 16.2-37.3 32-45.3 56 -3.6 10.6-2.7 20.7-1.2 31.5 1.7 11.9 4.3 23.6 7 35.3 2.6 11.2 5.3 22.4 7.2 33.7 1.9 11.2 4.2 24.5-0.3 35.4 5.4 0.3 10.7 0.7 16.1 1.1 1.9 0.1 3.7 0.2 5.6 0.4 3.3 0.3 2.9 0.2 3.9-3 3.1-9.7 6-19.9 7.7-30 0.2 3.2 0 5.4 1 8.6 1.5 4.6 2.5 9.4 3.1 14.2 0.4 3.3 0.7 6.6 0.6 9.9 0 2.2 3 1.4 4.9 1.4C257.1 282.7 259.2 282.8 261.2 282.9 263.3 282.9 260.8 282.8 261.2 282.9z" class="e"/><path d="M396.7 268.1c0.6-1.2 0.8-2.9-0.5-3.8 -1.1 1.2-2.3 2.2-3.6 3 1.2 0.6 2.3 1.3 3.3 2.1C396.2 269 396.5 268.5 396.7 268.1 397.5 266.6 396.5 268.6 396.7 268.1z" class="a"/><path d="M355.8 150c-3.3 0.1-5.7 0.7-7.8-2 -2.4-3.1-4.8-6.3-7.1-9.5 -5-6.8-10-13.6-14.8-20.6 -5.3 7.9-9.6 16.6-12.1 25.8 -2.2 8-1.7 15.1-1.7 23.1 -5.7-4.2-10.5-10.2-13.9-16.4 0.1 10.6 2.7 21.1 6.3 31.1 -3.4 0.1-6.8 0.4-10.2 0.4 -5.7 0.1-7.4-0.3-9.5-5.8 -1.2-3.1-2-6.4-2.2-9.7 -0.1-2.4 0.1-3.5-2-4.9 -8.9-5.9-12.1 9.2-10.3 15 1 3.2 3 6 5.5 8.1 1.5 1.3 3.2 2.4 5 3.3 1.4 0.7 4.5 3 4.3 0.6 0.6 2 2.4 1.9 4.5 2.3 -1.4 0-2.8-0.3-4.2-0.6 2.6 16.2 3.7 32.6 3.7 49 16.6-0.2 32.6-7.3 44.9-18.1 5.5-4.9 10.4-10.7 14.2-17.1 1.3-2.3 11.6-23.9 8.9-24.8 0-0.6 4.5 0.3 4.2-2.1 -0.1-1-2.7-1.5-3.4-2.4C358.7 166.4 358.1 157.9 355.8 150 354.2 150 355.9 150.4 355.8 150zM277.9 180.7c-3.8-2.8-1.1-5.6 0.4-8.6 0-0.1-4.1 1-4.5 1.2 0-0.9 5.5-3.7 6-1.8 0.4 1.7-2.6 3.7-2.6 5.7 0.1 2 1.6 3.6 3.2 4.6C280.1 182.2 277.8 180.7 277.9 180.7 277.2 180.2 279.3 181.7 277.9 180.7z" class="a"/><path d="M296.2 95.4c-8.7 7.5-10.5 22.8-12.1 33.5 -0.9 6-1.4 12-1.8 18 -0.3 4.7-1.7 12 0.4 16.3 0.1-1.3 0.2-2.5 0.3-3.8 0.5 2.3 0.2 5 0.6 7.4 0.6 3.6 1.8 7.1 3.3 10.4 1.5 3.5 2.5 3.2 6.2 3.4 3.5 0.1 6.9 0.3 10.4 0.5 -5-10.2-7.1-22.5-5.1-33.8 0.5 2.3 0.3 3 2 5 1.5 1.9 3.1 3.9 4.7 5.8 2.2 2.7 4.5 5.3 6.8 7.9 -2.6-10.1 0.1-21.4 3.7-30.9 1.8-4.3 3.9-8.3 6.2-12.3 1.2-2 2.5-3.8 3.8-5.6 -1.6-2.1-3.1-4.3-4.8-6.3 8.8 9.2 16.2 19.7 23.3 30.2 1.1 1.7 2.2 3.4 3.3 5.1 0.7 1 1.3 2 2 3 2-0.1 4.1-0.2 6.1-0.3 7.8-0.4 15.6-0.7 23.3-1.4 -6.8-16.9-17.9-32.7-33.5-42.6C330.8 95.6 313 92.7 296.2 95.4 294.8 96.6 297.1 95.2 296.2 95.4z" class="e"/><path d="M296.2 275.2c-3-2.7-5.6-5.8-7.9-9.2 -0.4 5.4-0.9 10.8-1.8 16.2 -0.7 5.1-1.1 4.4-6.4 3.7 -4.7-0.6-3.8-4.1-4.9-8.3 -1.5-5.3-3.1-10.6-5.1-15.8 0.2 4.1-0.5 22.2-6.2 22.5 -3.6 0.2-3.4 0.2-4.5 3.7 -1 3.1-2 6.3-3 9.4 -1.9 5.8-3.8 11.6-5.7 17.3 -1.5 4.6-3.1 9.2-4.6 13.9 -1 3-3.5 6.7 0.8 7.5 9.4 1.9 19.2 2.5 28.8 3.2 8.4 0.6 16.5 0.3 24.9-0.4 6-0.5 12-1 18-1.8 3.6-0.5 9.3 0 8-4.6 -4.9-10.6-9.2-21.4-13-32.5 -1.7-4.9-3.2-9.8-4.7-14.7 -0.7-2.5-3.7-3.3-5.8-4.7C300.8 279.1 298.4 277.3 296.2 275.2 292.8 272.1 299.4 278.2 296.2 275.2z" class="d"/><path d="M386.8 292.3c-0.2-0.9-0.2-1.9 0.1-2.8 -8.7 0.2 3 15.8 7.2 10.4C390.6 298.9 387.5 295.9 386.8 292.3 386.6 291.4 387.1 293.8 386.8 292.3z" class="a"/><path d="M270.7 339.7c0.8 9.2 1.5 18.4 2.3 27.5 0.4 4.4 0.2 9.6 1.6 13.7 1.9 0 3.7-13.6 4-15.2 1.9-8.6 4-17.1 6.4-25.6C280.3 340.1 275.5 339.9 270.7 339.7 270.7 340.2 276.7 340 270.7 339.7z" class="a"/><path d="M392.4 291.3c-0.7-1.6-1.4-4.1-3.8-2.5 -1.4 0.9-0.8 3.1-0.3 4.3 1.4 3.2 8 9.2 11.4 4.8C396.5 296.8 393.9 294.2 392.4 291.3 392 290.4 393.2 292.8 392.4 291.3z" class="a"/><path d="M461.4 262.8c-14.8 11.8-35 18.3-53.9 18.6 0.4 0.8 0.8 1.7 1.2 2.6 -0.8-4.2-7.7-9.1-10.7-11.4 -3.8-2.9-10.4-8.5-15.3-5.3 0 2.4-0.3 4.7-0.9 7 -0.4 1.4-3.1 6.1-1.8 6.8 5.4 2.8 5.6-8.4 8.6-10.1 -1.2 0.4-1.4 3.3-1.5 4.2 2.4 0.5 7.2 1.1 8.9-1.3 0 1.4-1.9 2.4-3 2.7 -0.7 0.2 0.9 3.6 1.1 4.2 1.9 4.2 3.5 6.3 8.1 6.5 -1 0.5-2.2 0.7-3.3 0.7 1.8 1.9 3.8 3.4 6 4.8 1.1-1.6 2.2-3.3 3.2-5 -0.3 1.1-0.2 1.9-0.7 3.1 12.3 0.6 24.9-2.8 36.4-7.1 5.9-2.2 11.4-5 16.9-8 2.2-1.3 4.3-2.7 6.4-4.1C464.9 268.9 463 265.9 461.4 262.8 457.7 265.8 461.5 263.1 461.4 262.8z" class="a"/><path d="M404.3 293.6c-3.4-1.7-6.5-4.2-8.7-7.4 -1.3-1.8-2.3-3.9-2.8-6 -0.3-1.1-0.5-2.2-0.5-3.3 -1.6 0.3-3.8 0.1-5.3-0.6 -0.3 3.2-3.1 7.9-7.1 6 -3.1-1.6 0.1-6.6 0.7-9 -5.1 2-10.9 7.5-14 12.1 0.1-0.8 0.9-1.8 1.3-2.5 -28.7 2.2-68.9-4.7-78.7-36.4 -0.1 4.1-0.2 8.3-0.4 12.4 -0.1 1.9-0.2 3.8-0.4 5.7 1.5 2.2 3.3 4.3 5.1 6.3 5.9 6.3 13.2 11.3 21.2 14.6 16.7 7.1 36.3 9.1 54.3 7.3 -1-0.9-1.5-1.6-2.3-2.7 0.8 0 3.4 2.2 4.2 2.7 2.6 1.2 5.4 1.9 8.1 2.7 -0.7-2 0.2-4.6 2.7-4.8 1 0.7 1.6 0.6 1.9-0.3 0.7-0.8 1.5-1.2 2.5-1.3 1.5-0.1 4.7-3 6 0 1.6 3.2 4.6 6.3 8 7.6C402.3 297.6 406.9 294.9 404.3 293.6 402 292.5 404.4 293.7 404.3 293.6z" class="a"/><path d="M382.7 293.8c-0.1-0.9 0.1-1.7 0.4-2.5 -3.2-1-3.4 3.2-2.2 5 1.4 1.9 3.7 2.7 5.9 3.6C384.8 298.5 382.8 296.4 382.7 293.8 382.6 292.9 382.8 295.2 382.7 293.8z" class="a"/><path d="M301.2 374.3c0 3.9-14.5 0-16.3 0.2 5 4.9 16 6.4 22.3 3.7 3.6-1.5 4.9-6.3 1.4-8.7 -2.5-1.7-6.7-0.5-9.3 0.3C300.3 371.1 300.9 372.7 301.2 374.3 301.2 374.3 301.1 373.6 301.2 374.3z" class="c"/><path d="M285.5 374.3c4.5 0.9 10.8 2 15.2 0.2 -1.2-4-1.5-4.8-5.4-3.2C292.2 372.6 288.5 373 285.5 374.3 285.8 374.4 285.6 374.2 285.5 374.3z" class="a"/><path d="M288 340.1c-3 0-2.5 0.1-3.1 3.1 -0.8 3.9-2.6 8.7-2 12.6 0.9 6.1 1.2 12.3 2.3 18.4 2.8-1.3 3.7-14.3 4.4-17.1 1.3-5.7 2.6-11.4 4.2-17C291.8 340 289.9 340.1 288 340.1 288 340.1 289.5 340.1 288 340.1z" class="a"/><path d="M480.3 333.7c-1.7 1.2-2.1 0.8-1.4 3 0.8 2.4 1.5 4.7 2.3 7.1 1.2 3.9 2.4 7.9 3.6 11.8 1.7 5.8 2.4 13.2 5.3 18.4 0-0.1 0-0.1 0 0.1 1.3-2.7 3.8-5.9 2.5-8.6 -2-4.3-3.9-8.7-5.7-13.2C484.6 346.2 482.3 340 480.3 333.7 479.7 334.1 481.7 338.3 480.3 333.7z" class="f"/><path d="M489.7 374.4c-2-1-4.7-0.8-6.9-1.3 0.4 0.4 1.4 0.4 1.9 0.6 -0.4 0.1-0.9 0.2-1.4 0.3 0.3 0.4 0.3 0.9 0.1 1.3 -0.3-0.4-0.6-0.9-0.9-1.3 -0.9 0-1.5-0.2-2.4-0.3 0.7-0.2 1.3-0.4 2-0.4 -1.6-4.2-8.2-1-7.7 3.1 3.2 0.2 6.4 0 9.6-0.3C484.9 376 491 375.1 489.7 374.4 489.5 374.3 489.8 374.4 489.7 374.4z" class="g"/><path d="M485.3 389.9c4.3 0.6 8.9 0.4 12.6-2 2.4-1.6-1.5-4.5-3.2-5.4 -3.1-1.8-7.4-2.4-10.3 0.1 -1.4 1.2-2.1 2.9-2.3 4.7C481.9 389.8 483 389.6 485.3 389.9 487.7 390.2 483.9 389.7 485.3 389.9z" class="h"/><path d="M477.2 377.5c-2.5 0-12 0-12.7-3.4 -1.9 6.5 23 5.7 25.1 1.2C486.1 377.4 481.1 377.5 477.2 377.5 473 377.5 481.4 377.5 477.2 377.5z" class="i"/><path d="M499 386.9c1.4-1.2 3.2-5.7 1.3-7.2 -0.3 1-2.7 3.9 0.3 2.8 -1 1-0.6 1.5-1.3 2.4 0-1.4-0.5-0.9-1.6-1.1 0.3 0.3 1.5-0.9 1.4-1.5 -0.6 0.4-1 1.3-1.7 1.7C498 384.9 498.7 385.9 499 386.9 499.8 386.2 498.7 386.1 499 386.9z" class="g"/><path d="M481.3 331.5c-1.7 1.3 1.1-0.8 1.1-0.9 -0.3-0.3-1.9-0.2-2.2-0.2C480.2 332 480.6 332.4 481.3 331.5 481.6 331.3 481.1 331.7 481.3 331.5z" class="f"/><path d="M464.6 373.9c0.3 2.5 8 2.4 9.8 2.5 -0.6-2 2.2-7 4.5-5.6C478.5 363 462.2 366.8 464.6 373.9 464.6 374.1 464.5 373.8 464.6 373.9z" class="h"/><path d="M478.1 328.9c0.1-0.2 1.1 1 0.7-0.6C478.6 328.5 478.4 328.7 478.1 328.9 478.1 328.9 478.2 328.9 478.1 328.9z" class="f"/><path d="M468.5 272.8c2.9-11.3 6.3-22.5 10.1-33.5 -2-0.2-8.3 5.8-10.3 7 -2 1.2-9.5 3.3-9.4 5.6C458.7 258.7 465 267.5 468.5 272.8 469.9 267.5 468.4 272.7 468.5 272.8z" class="g"/><path d="M479.4 330.4c-0.9 0-1.8-0.2-2.7-0.5 0.5 1.4 1 2.9 1.4 4.3C479.9 332.6 480 332.7 479.4 330.4 479.2 330.4 479.6 331.1 479.4 330.4z" class="f"/><path d="M478.5 327.3c0 0-0.6-2.3-0.6-2.3 -0.5-1.8-1.9-1.3-3.6-1.6 0.7 1.8 1.3 3.7 1.9 5.5C477 328.3 477.8 327.8 478.5 327.3 478.6 327.3 478.2 327.5 478.5 327.3z" class="f"/><path d="M509.3 231.1c-10.3-11-17.4-25.9-14.9-41.2 -1.7 0.4-3.5 0.7-5.3 0.9 3.5-1.5 7-1.8 10.4-3.7 5.3-3.1 9.2-8.2 9.6-14.4 0.3-4.5-2.3-13.5-8.4-12.3 -6 1.2-3.7 7.2-4.4 11.8 -0.1 0.9-0.2 3.8-1.2 3.9 -2.8 0.2-5.6 0-8.4-0.3 -1.4-0.2-2.8-0.4-4.2-0.8 0.2-2.4 0.3-4.8 0.3-7.2 -0.1-11.8-1.8-23.5-3.5-35.1 -2.1 0.4-5.4 1.6-7.5 1 -2.2-0.6-4.1-3.1-5.6-4.7 -3.3-3.6-6.3-7.4-9.2-11.2 -2-2.6-3.3-0.9-6.1 0.4 -2.9 1.3-5.8 2.5-8.8 3.7 -1.6 0.6-3.8 1.9-5.5 1.5 -1.6 2.2-3.1 4.4-4.6 6.7 -6.6 10.6-10.8 22.8-11.4 35.3 -0.2 3-0.1 6 0.2 8.9 0.1 1.4-2.4 1.8-3.2 2.5 -1.8 1.5 3.5 2.2 4 2.4 -0.6 0 2.9 12.2 3.4 13.4 1.9 5.2 4.5 10.1 7.6 14.7 6.3 9.3 14.7 17.2 24.5 22.7 17.3 9.8 38 11.8 56.9 5.8C512.4 234.3 510.8 232.7 509.3 231.1 507.6 229.3 511.3 233.3 509.3 231.1zM500.6 180.2c3.4-3.8-2.1-5.6-1.4-8.6 0.7-2.3 5.3 1.2 6 1.8 -0.5-0.5-4.5-1.1-4.5-1.2 2.5 3.9 3.6 8.2-2.1 9.7C498.5 181.9 500.7 180.1 500.6 180.2 501.1 179.6 499.5 181.4 500.6 180.2z" class="a"/><path d="M500.9 379.8c-0.6 1.5 0.8 3.6 0.2 5.5 -0.8 2.6-3.6 4.2-6 5 -1.9 0.6-12.4 1.8-13.1-1.3 -1.3 0-0.2 2.4 0.6 2.6 3.5 1.3 9 1.7 12.5 0.1 3-1.3 5.2-3.5 6.5-6.6C501.6 384.9 502.3 379.1 500.9 379.8 500.8 379.9 500.9 379.8 500.9 379.8z" class="i"/><path d="M503.3 239.5c2.7 2 5.3 4 7.8 6.3 -0.7-2.5-1.5-4.9-2.2-7.4C508.8 238.1 503.5 239.9 503.3 239.5 505.7 241.3 503.3 239.5 503.3 239.5z" class="h"/><path d="M588.4 121.1c-4-2.7-14.2-1.3-15.9 3.9 0-4.1 2-9.5 4.5-12.8 1.4-1.8 3.4-3 4.7-4.8 2.3-3-1.7-5.8-4.1-6.4 -5.1-1.3-10.9-0.7-16-0.3 -4.6 0.4-10.7 0.5-14.8 3 1.8-1.7 5-2.3 7.3-2.8 -9.5-15.3-23.6-31.2-40.3-38.9 -3.2-1.5-7.1-2.9-10.7-2 -5.7 1.5-1.5 7.3 0.4 10.1 4.6 7.1 9.1 14.2 13.6 21.4 -5.5-7.6-16.5-11.3-25-14.8 -11.3-4.7-23-8.5-35-10.8 -3.4-0.6-28.5-5.5-22.6 3.5 5.4 8.1 12.5 17.2 20.6 22.5 -4.2-1.4-8.2-4.4-12.3-6.1 -7.1-2.9-14.8-4.8-22.6-4.3 -1.3 0.1-8.5 0.4-9 2.1 -0.9 1.8 4.8 6.4 5.9 7.4 4.3 4 7.1 8.9 6.9 15 -0.5-2.9-0.7-5.4-2.2-8.1 -1.7-3.1-7.1-1.4-10-0.6 -7 2.1-13.4 6.8-17.6 12.7 2.3 0 6.4 3.9 8 5.2 3.9 3.1 7.3 6.9 10.1 11 5.1 7.5 8.2 16 10.2 24.8 2.8-9.9 7.7-19.8 14.2-27.8 -4.1-1.3-8.4-4.6-12.1-6.7 -5-2.9-10-5.9-14.9-8.9 7.7 3.2 15.1 7.7 22.5 11.6 4.3 2.3 5 3 9.4 1.3 4.6-1.7 9.2-3.7 13.8-5.4 -1.8-2.6-3.7-5.2-5.5-7.7 1.4-0.5 14 16.4 15.2 17.8 3 3.5 5.5 7.6 10.5 7 4.4-0.4 8.8-0.8 13.2-1.3 -1.6 0.5-7.7 0.5-8.4 1.6 1.1 5 2 10 2.7 15.1 1.2 8.8 1.9 18 0.3 26.8 4.1 0 8.1 0.3 12.1 1.3 0-5.6 1.4-11.9 0.4-17.4 0.6 1.3 0.9 2.8 1 4.2 3-4.1 8.1-3.4 11 0.2 3.6 4.4 3.7 10.7 1.5 15.8 -1.8 4.2-5.3 7.5-9.3 9.5 -2.9 1.5-5.3 0.8-5.4 4.4 0 2.6 0.1 5.2 0.5 7.8 1.7 10.7 7 20.1 13.4 28.7 1.1 1.4 2.2 2.9 3.4 4.2 0.8 0.9 1.6 1.8 2.4 2.7 1.8-0.6 3.5-1.2 5.3-1.9 5.8-2.3 11.2-5.5 16.3-9.2 16.2-12 27.5-27.7 31.8-47.7 1.3-5.8 1.9-11.8 2.2-17.7 0.2-5.4-0.3-11.1 0.8-16.4 1.2-5.6 3.5-10.2 9.2-12.2C582 129.6 595.3 125.7 588.4 121.1 587.6 120.6 589.1 121.6 588.4 121.1z" fill="#612E0F"/><path d="M520.5 319.1c-1.4-1.7-1.4-2.8 0.6-4.3 1.3-0.9 2.9-1.3 4.2-2.2 -0.6-2-1.2-4-1.9-5.9 -3.3-9.9-7.5-19.4-12.3-28.7 -1.1-2.2-2.3-4.3-3.4-6.4 -1.6-2.9-1.9-2.7-5.2-2.7 -2.3 0-8.5 0.8-9.6-1.9 -3-7.9-3.5-18.1-2.5-26.4 -3.2 0-6.3-0.3-9.5-0.8 -3.4-0.5-2.9 2.6-3.8 5.6 -1.9 6.3-3.6 12.7-5.3 19 -3.7 14.5-7 29.1-9.6 43.8 -0.5 2.6-1.6 5.9-1.1 8.6 0.6 3.4 5.7 3.9 8.3 4.4 6.1 1.3 12.3 2.3 18.5 2.9 11.4 1.1 22.6-1.3 33.7-3.5C521.2 320.1 520.9 319.6 520.5 319.1 520.3 319 520.8 319.5 520.5 319.1z" class="h"/><path d="M517.4 267.9c-3.3 0.5-6.5 0.9-9.8 0.9 4.4 7.5 8.3 15.3 11.5 23.4 1.2 3 2.3 6.1 3.3 9.1 0.5 1.6 3.5 10.8 3.2 11.1 0 1.7-6.2 3.8-4.6 5.4 1.5 1.5 1.9 3.5 4.2 4 0.1-1.2 1-4.1 0.5-4.9 0.2 0.1 0.2-0.1 0.1-0.5 0.9 0 0.7 7.4 0.7 7.5 -0.3 0.1-1.4-0.2-1.4-0.2 0.6-1.6 0-2.2-1.6-1.8 -0.4-0.1-1-0.3-1.2 0.3 0 1.8 1.2 6.9 3.4 7.5 2.8 0.7 7.3-1 10.6-1.7 1-0.2 5.2-0.4 5.2-1.4 0.1-2.2 0.1-4.4 0.1-6.6 -0.2-4.4-3.9-7.1-6.6-10.3 -2.7-3.2-2.9-7.7-4-11.6C527.9 287.5 523.2 277.2 517.4 267.9 517.3 267.9 517.6 268.2 517.4 267.9z" class="a"/><path d="M502.3 239.7c-0.5-0.6-9.8 0.8-11.2 0.8 -0.1 3.5 0.1 7 0.4 10.4 0.3 3.5 0.2 13.9 3.2 16.1 10 1.8 19.9 1.2 29.6-2.1C519.7 254.8 510.9 246.4 502.3 239.7 502.3 239.7 503.3 240.4 502.3 239.7z" class="g"/><path d="M501.3 324.9c-7.8 0.6-15.4 0.1-23.1-1 0.3 1 0.6 2.1 1 3.1 1.7-1 3.4-1.5 5.2-2.2 -0.9 0-5.1 2.7-4.8 3.5 0.4 1.4 1.8 0.7 3 1 0.3 0.1 2.6 1 2.6 1.1 -0.7 0.6-1.5 1.2-2.3 1.7 -2.8 1.9 0.6 7 1.7 9.9 2.5 6.6 5.2 13.1 7.9 19.5 2 4.7 4.1 9.4 6.1 14.2 0.6 1.3 1.1 2.9 2.2 4 2.1-2.1 3-7.7 3.9-10.6 1.8-5.3 3.4-10.6 5-16 2.9-10 5.7-20.1 7.9-30.3C512.1 323.8 506.7 324.5 501.3 324.9z" class="f"/><path d="M251.2 313.8c22 3.3 45.1 3.1 66.9-1.3 -1-2.7-2-5.4-3-8.2 -0.8-2.3-0.2-3.5-2.9-3 -1.8 0.3-3.6 0.5-5.4 0.8 -7.2 0.9-14.4 1.4-21.6 1.5 -7.5 0.1-15.1-0.1-22.6-0.7 -2.8-0.2-7.2-2-8.2 0.9C253.5 307.1 252.3 310.4 251.2 313.8 260.3 315.1 251.9 311.7 251.2 313.8z" fill="#FFF683"/><path d="M290.6 78.4c-2.2 4.2-6.4 7-8.2 11.6 3.5-4 9.8-5.6 13.8-1.1C294.8 85.1 293 81.6 290.6 78.4 290.4 78.9 293.3 82 290.6 78.4z" fill="#8A3712"/><path d="M356.2 151.4c-0.5-2.1-1.3-1.4-3.2-1.4 1.6 2.1 3 4.4 4.3 6.7C356.9 154.9 356.6 153.1 356.2 151.4 356 150.9 356.6 153.1 356.2 151.4z" class="j"/><path d="M280.9 162.6c-9.5-4.4-11 9.1-8.7 12.4C272.2 171.6 272.9 161.4 280.9 162.6z" class="k"/><path d="M357.8 174.4c-0.4 0-2.2-1.4-1.8-1.7 0.3-0.3 1.8 0.1 2-0.3 0.1-0.3-2.4-2.4-2-2.6 0.4-0.3 4 3.1 1.2 3.4C357.2 173.2 358.1 174.4 357.8 174.4z" class="k"/><path d="M317.4 192.2c-9.1 0.3-7.9 9.4-7.9 9.4S305.2 188.9 317.4 192.2z" class="k"/><path d="M498.3 162.6c9.5-4.4 11 9.1 8.7 12.4C507 171.6 506.3 161.4 498.3 162.6z" class="k"/><path d="M421.4 174.4c0.4 0 2.2-1.4 1.8-1.7 -0.3-0.3-1.8 0.1-2-0.3 -0.1-0.3 2.4-2.4 2-2.6 -0.4-0.3-4 3.1-1.2 3.4C422 173.2 421.1 174.4 421.4 174.4z" class="k"/><path d="M461.8 192.2c9.1 0.3 7.9 9.4 7.9 9.4S474 188.9 461.8 192.2z" class="k"/><path d="M294.5 240.1c-1.2 0.1-2.3 0.2-3.5 0.3 -2.7 0.1-1.7 1.2-1.7 3.5 0 2.9 1.4 5.8 2.8 8.2 3 5.4 6.8 10.2 11.7 13.9 -1.2-4.8-2.3-9.6-3.4-14.4 -0.6-2.6-1.1-5.2-1.7-7.8C297.9 239.9 298.4 239.7 294.5 240.1 292.7 240.3 295.6 240 294.5 240.1z" fill="#AB262F"/><path d="M270.3 110.6c-8-1.4-18.8-4.2-22.2-12.6 -2.9 2.2-6 4.2-9.3 5.7 0.8 0.9 5 1.2 6.2 1.5 3.5 0.9 6.9 2 10.3 3.2 3.4 1.2 6.8 2.6 10.1 4.1 2 0.9 6.8 4.3 8.6 3.4C272.7 114.2 271.5 112.4 270.3 110.6 261.2 109 271.9 113 270.3 110.6z" class="l"/><path d="M273.2 116.3c0.4 0.2 0.8 0.4 1.2 0.6C274.5 115.9 274.1 115.8 273.2 116.3 273.6 116.5 273.5 116.2 273.2 116.3z" class="l"/><path d="M248.4 131c-6.3 0-7.3-5.9-11.7-8.1 1.9 4.9 3.3 9.9 5.1 14.8 1.9 5.1 1.4 4 5.5 0.6 4.5-3.6 9.1-7.1 13.7-10.5 2.4-1.8 13.1-7.6 13.4-10.1C264.8 119.6 257.2 126.6 248.4 131 242.8 131 255.4 127.5 248.4 131z" class="l"/><path d="M276.1 125.5c0.1 12.5 3.5 24.1 5.8 36.3 -1.8-15.8-0.4-32.9 3.9-48.2C282 117.1 278.8 121.2 276.1 125.5 276.1 127.4 278.8 121.2 276.1 125.5z" class="l"/><path d="M297.4 92.3c-13.7-14.9-20.1 24.9-19.2 26.1C287.6 78.1 297.9 97.3 297.4 92.3z" fill="#FBDE94"/><path d="M292.3 345.3c0.4-1.8 0.9-3.6 1.4-5.4 -1.9 0.1-3.8 0.1-5.7 0.1 -3 0.1-2.5 0-3.1 3.1 -1.1 5.5-2.3 10.2-1.6 15.7C284.5 353.4 287.3 348.1 292.3 345.3 292.8 343.3 287.2 348.1 292.3 345.3z" class="j"/><path d="M298.3 386.4c-0.6-5.8-7.6-6.5-12-4.9 4.1 3 2.6 8.3-1.2 10.6C288.2 392.4 299.2 392.4 298.3 386.4 298.2 385.7 298.3 386.5 298.3 386.4z" class="m"/><path d="M310.2 371.3c-1.6-3.2-5.5-2.8-8.5-2.2 1.7 2.9 2.9 7.2 0.6 10.1C306.4 378.9 312.7 376.6 310.2 371.3 309.8 370.5 310.6 372.1 310.2 371.3z" class="m"/><path d="M396.8 264.9c-0.2-0.2-0.3-0.4-0.5-0.5 -0.9 1.1-1.1 4.5-0.3 5.1C396.9 268.1 397.8 266.3 396.8 264.9 396.6 264.7 397.3 265.5 396.8 264.9z" class="j"/><path d="M391.1 276.9c-1.4 0-2.9-0.1-4.2-0.6 -0.2 1.8-0.7 3.8-2.2 5C387.2 280.7 390.1 279.6 391.1 276.9 390.8 276.9 390.2 279.4 391.1 276.9z" class="j"/><path d="M392.6 289.9c1.6 2.8 7.6 9.6 11.3 6.2 2.7-2.4 0.2-2.7-1.9-2.6C398.7 293.7 395.2 291.9 392.6 289.9 393.7 291.7 395.5 292.1 392.6 289.9z" class="j"/><path d="M418.6 138.9c1.5 3.9 2.6 8 3.6 12 2.8-9.9 7.7-19.8 14.2-27.8 -6.1-1.9-12.3-6.8-17.8-10C422.5 121.2 421.7 130.7 418.6 138.9 418.8 139.5 421.8 130.5 418.6 138.9z" fill="#4A210F"/><path d="M401.7 108.1c2.5-4.1 7.4-5.3 11.9-5.6 2.7-0.2 4.9-0.9 6.4 1.5 1.5 2.4 2.6 4.9 3.5 7.5 3.5-7 9.1-17.2 2.3-24 12.9 0 24.4 7 36.6 10.3 -4.6-9.2-9.3-18.5-16-26.3 19.5-3.5 36.4 7.9 52.4 17.2 3.7 2.2 7.5 4.3 11.4 6.1 2.6 1.2 14 7.2 14.1 2.3 0.2-10.3-7.2-18.1-11.5-26.8 9.1 0 16.8 7.1 22 13.8 2.9 3.7 5.3 7.8 7.3 12 1.5 3.2 1.7 3.7-0.3 6.6 -1.5 2.3-2.2 4.8-1.6 7.6 10.1-4.5 21-6.8 32-4.6 -6.2 5-5.5 15.3-2.3 21.7 5.3-3 10.8-6.8 17.2-7 -4.3-1.3-12.9-0.8-14.6 4.5 0-4.1 2-9.5 4.5-12.8 1.4-1.8 3.4-3 4.7-4.8 2.3-3-1.7-5.8-4.1-6.4 -5.1-1.3-10.9-0.7-16-0.3 -4.6 0.4-10.7 0.5-14.8 3 1.8-1.7 5-2.3 7.3-2.8 -9.5-15.3-23.6-31.2-40.3-38.9 -3.2-1.5-7.1-2.9-10.7-2 -5.7 1.5-1.5 7.3 0.4 10.1 4.6 7.1 9.1 14.2 13.6 21.4 -5.5-7.6-16.5-11.3-25-14.8 -11.3-4.7-23-8.5-35-10.8 -3.4-0.6-28.5-5.5-22.6 3.5 5.4 8.1 12.5 17.2 20.6 22.5 -4.2-1.4-8.2-4.4-12.3-6.1 -7.1-2.9-14.8-4.8-22.6-4.3 -1.3 0.1-8.5 0.4-9 2.1 -0.9 1.8 4.8 6.4 5.9 7.4 4.3 4 7.1 8.9 6.9 15 -0.5-2.9-0.7-5.4-2.2-8.1 -1.7-3.1-7.1-1.4-10-0.6 -7 2.1-13.4 6.8-17.6 12.7 1.8 0 5.1 3 6.4 3.9 4 2.9 7.5 6.4 10.4 10.4C409.3 118.1 406.6 112.3 401.7 108.1 405.1 102.4 407.1 112.7 401.7 108.1z" fill="#74451A"/><path d="M511.2 245.8c-0.7-2.5-1.5-4.9-2.2-7.4 0 0-5.2 1-5.6 1.1C505.7 241.8 508.7 243.6 511.2 245.8 510.5 243.4 508.4 243.3 511.2 245.8z" fill="#FEDCB6"/><path d="M478.3 239.2c-2.4 2.1-6.9 3.9-6.8 7 0.2 3.6-0.4 7.3-1.6 10.7 -1.2 3.4-3 6.7-5.2 9.5 1.2 2.1 2.4 4.3 3.8 6.3C469.4 269.3 478.1 239.2 478.3 239.2 477.8 239.6 478.4 239.3 478.3 239.2z" class="n"/><path d="M522.5 319.8c0.6 1 1.6 1.7 2.7 2 0-0.6 0.1-1.2 0.1-1.9C524.4 320.3 523.5 320.2 522.5 319.8 522.5 319.8 523.5 320.2 522.5 319.8z" class="j"/><path d="M525.2 323.9c0.8-2.2-1.3-2.7-2.6-2 -0.9 0.5 0.8 4.4 1.1 5.1 0.9-1 2.1-1.9 2.6-3.2C526 323.9 525.6 323.9 525.2 323.9z" class="j"/><path d="M380.3 278.3c-0.5 1.1-1.8 2-0.3 2.8 1 0.5 2.3 0.2 3.2-0.4 2.5-1.5 2.4-4.7 3.3-7.1C384.4 275.1 383 277.7 380.3 278.3 380.1 278.8 383.1 277.6 380.3 278.3z" class="j"/><path d="M394.6 275.9c-1.9 1.3-2.3-0.1-1.6 2.3 0.4 1.4 1 2.8 1.7 4.1 1.8 3.4 2.8 4.6 6.5 5C396.2 285.8 394.3 280.9 394.6 275.9 394.2 276.3 394.2 281.4 394.6 275.9z" class="j"/><path d="M398.8 288c0.6 0.6 1.1 1.1 1.7 1.6C401.1 287.9 400.6 287.3 398.8 288 399.5 288.7 399.5 288.1 398.8 288z" class="j"/><path d="M388 272.8c-0.8-1-0.9 2-0.9 2.4 2.2 0.4 5.3 0.7 7.5-0.2C392.2 275 389.6 274.7 388 272.8 387.9 272.7 389.5 274.7 388 272.8z" class="j"/><path d="M461.9 263.8c-0.2-0.3-0.4-0.7-0.5-1 -1.1 0.9-2.2 1.7-3.4 2.5 0.7 2.1 1.4 4.2 2.1 6.3 -1.6 1.7-3.4 3.2-5.4 4.5 -4.7 3.1-9.9 5.4-15.1 7.3 -9.1 3.3-20 6.4-29.9 5.4 1.1-2.1-1.2-2.3-2.3-3.4 0 3.4-2.4 4.5-5.1 5.7 2.2 1.7 2.1 2.2 3.7-0.2 0.5-1.1 1.3-2 1.9-3.1 -0.3 1.1-0.2 1.9-0.7 3.1 12.3 0.6 24.9-2.8 36.4-7.1 5.3-2 10.3-4.4 15.3-7.1 2.7-1.5 5.4-3 7.8-4.9C466.8 271.8 462.3 264.6 461.9 263.8 461.7 263.5 463.6 266.9 461.9 263.8z" class="j"/><path d="M391.6 298.9c-2 0.4-3.9-0.7-5.7-1.5 1.5 1.5 6 5.3 8.1 2.6C393.2 299.7 392.4 299.3 391.6 298.9 389.7 299.2 392.4 299.4 391.6 298.9z" class="j"/><path d="M397.2 296.6c-1.4-0.9-1.5-2.1-2.8-0.9 -0.9 0.8-2.1 1-3.3 1.1 2.1 1.8 6.3 3.9 8.6 1.1C398.8 297.5 398 297.1 397.2 296.6 396.3 296.1 398 297.1 397.2 296.6z" class="j"/><path d="M384.8 298.2c-1.2-1.2-2.1-0.8-3.6-1.6 1.5 1.7 3.6 2.4 5.6 3.3C386.1 299.4 385.4 298.8 384.8 298.2 384.5 297.9 385.5 298.9 384.8 298.2z" class="j"/><path d="M478.4 335c0.2 0.5 0.3 0.9 0.5 1.4 2.1-0.7 2.3-0.2 1.5-2.7C479.7 334.1 479 334.5 478.4 335 478.5 335.4 479.1 334.5 478.4 335z" class="o"/><path d="M487.9 354.4c0.5 3.3 1.3 6.9-0.6 9.9 0.6 3.1 1.3 7 2.8 9.7 0-0.1 0-0.1 0 0.1 1.3-2.7 3.8-5.9 2.5-8.6C491.1 361.9 489.4 358.1 487.9 354.4 488.4 357.9 489.8 359 487.9 354.4z" class="o"/><path d="M481.3 331.5c-1.7 1.3 1.1-0.8 1.1-0.9 -0.3-0.3-1.9-0.2-2.2-0.2C480.2 332 480.6 332.4 481.3 331.5 481.6 331.3 481.1 331.7 481.3 331.5z" class="o"/><path d="M478.1 328.9c0.1-0.2 1.1 1 0.7-0.6C478.6 328.5 478.4 328.7 478.1 328.9 478.1 328.9 478.2 328.9 478.1 328.9z" class="o"/><path d="M480 332.6c-0.8-2.7-1-1.9-3.3-2.7 0.5 1.4 1 2.9 1.4 4.3C478.7 333.7 479.4 333.1 480 332.6 479.8 331.8 479.3 333.2 480 332.6z" class="o"/><path d="M478.5 327.3c0 0-0.6-2.3-0.6-2.3 -0.5-1.8-1.9-1.3-3.6-1.6 0.7 1.8 1.3 3.7 1.9 5.5C477 328.3 477.8 327.8 478.5 327.3 478.6 327.3 478.2 327.5 478.5 327.3z" class="o"/><path d="M497 384.2c-1-1-2.1-1.7-3.4-2.3 -0.9 4.8-6.4 7.3-10.8 7.6C486.4 390.1 503.4 390.4 497 384.2 497 384.2 498.2 385.3 497 384.2z" class="i"/><path d="M469.1 367.3c-2.3 0.9-5.5 3.6-4.5 6.5 0.3 2.5 8 2.4 9.8 2.5C473.4 373.3 466.6 372.5 469.1 367.3 468.2 367.7 467.4 370.9 469.1 367.3z" class="i"/><path d="M489.9 374.5c-2.2-1.7-5.3 1.5-8.1 1 -1.7-0.3-5-2.5-3-4.5 -1.4-1.2-4.4 4-4.2 5.4C475.7 376.5 490.5 375.8 489.9 374.5 489.8 374.5 489.9 374.6 489.9 374.5z" class="n"/><path d="M500.8 382.1c0-0.9 0.1-1.8-0.5-2.3 0.1-0.3-1.6 3.5 0.3 2.8 -0.6 0.6-0.2 1.2-1 1.9 -0.6 1.7-1.7-0.8-0.6 2.5C500.4 385.6 500.9 384 500.8 382.1 500.8 381.5 500.9 382.9 500.8 382.1z" class="n"/><path d="M277.6 178.9c-0.7-2 2.7-7.6 1.5-8 -1.2-0.4-5.3 1.5-5.3 2.4 0.4-0.2 4.5-1.3 4.5-1.2 -1.8 3.6-4.1 8.5 2.1 9.7C279.1 181.1 278.2 180.2 277.6 178.9 277.2 178 278 179.8 277.6 178.9z" class="p"/><path d="M589.8 122.6c-1.2-6.5-14.1-4.1-16.6 0.1 0.4-2.9 1.4-5.6 3-8 1.8-2.6 4.9-4.1 6.6-6.7 4.1-6.5-6.7-8.7-10.7-8.9 -3.3-0.1-6.6 0.2-9.9 0.5 -3.1 0.4-7.2 2.6-8.9-0.4 -3.7-6.3-8-12.3-12.9-17.7 -4.4-4.9-9.3-9.4-14.6-13.3 -5.7-4.3-13.8-10.4-21.5-9.6 -8.3 0.9-4.7 7.9-1.8 12.3 3.8 5.5 7.6 11.1 11.4 16.6 -16.5-10.7-35.5-18.3-54.7-22.3 -4.6-0.9-9.1-1.6-13.7-2.1 -3.5-0.4-9.1-1.3-12.1 0.8 -5.9 4.3 12.2 20.6 15.2 24.3 -8.8-5.1-18.5-8.5-28.8-7.9 -2.5 0.2-12.4 0.7-9.6 5.3 1.3 2.2 3.2 3.9 5.1 5.6 0.7 0.6 4.3 5 4.9 5 -9.3-1-18.6 3.4-24.9 10 -1 1.1-4.7 3.7-2.6 4.7 4.1 2.2 7.9 4.8 11.2 8 7 6.6 11.8 15.2 15 24.1 1.6 4.5 2.9 8.1 2 12.8 -1 5-1.5 10-1.4 15.1 0 1.1 0.9 3.7-0.4 4 -1 0.2-3.1 0.6-3.1 2 -0.1 1.3 0.4 2.3 1.8 2.6 2.3 0.4 2.3-1.1 2.8 1.7 1.7 9.1 5.1 17.9 10.2 25.6 10.8 16.3 27.4 28.4 46.7 32.3 -3.7 3-8.1 5.4-12.4 7.6 -1.5 0.8-7.6 2-7.6 4.2 0 1.5 3 10.9 2.9 11 -5 3.8-10.5 7.1-16.3 9.7 -11.2 5.1-23.5 8.6-35.8 9.6 -1.5 0.1-7.7-8.2-9.7-9.8 -3.4-2.6 0.2-2-0.7-5.6 -0.2-0.7-1.6-2.7-2.6-1.9 -1.2 1-3 3.2-4.5 2.6 -2.3-1-5-1.4-7.3-0.3 -1.7 0.8-1.9 1.5-2.3 3.1 -0.7 3.6-1.3 3-4.3 4.5 -4.2 2.1-6 5.8-9.1 8.9 -6.7 0.2-13.5-0.3-20.2-1 -12.6-1.4-25-4.4-36.3-10.4 -2.1-1.2-4.3-2.4-6.2-3.9 -1.5-1.1-1.9-6-2.4-7.8 -1.7-6.6-3.3-13.2-4.9-19.8 23.2-3.5 43.6-19.1 54-39.9 2.6-5.2 4.5-10.8 5.7-16.4 0.3-1.3 0.5-2.6 0.7-3.8 1 0.3 2 0.3 3 0 1.3-0.5 1.7-2.4 0.9-3.4 -0.9-0.9-2.2-1-3.3-1.3 0.1 0 0.2-4.9 0.2-5.3 0-6.6-1-13.1-2.8-19.4 7.7-0.2 15.4-1 22.9-2.4 -6.6-23.9-27.6-46.1-51.8-52 -6.4-1.6-13-2.2-19.6-1.8 -2.9 0.2-7.4 1.9-8.8-0.8 -1.3-2.5-1.9-3.6-2.6-6.2 -1.7-5.7-5.1-11.1-9.9-14.6 -1-0.7-5.2-3.9-5.9-1.7 -0.8 2.7-1.9 5-3.8 7.1 -1.9-1.9-4.9-9.4-7.8-8.7 -3.2 0.6-5.5 2.7-8 4.5 -9.1 6.6-17.4 14.5-26 21.8 -16.6 14.1-32.6 30.7-38.4 52.5 -2.9 10.8-1.2 21.8 0.6 32.7 2.1 12.5 5 24.8 8 37.1 2.6 11 5.4 21.9 7.2 33.1 1.6 9.6 3.2 20.8-0.6 30.1 2.8 0 6 1.3 8.9 1.7 5.1 0.6 10.3 0.9 15.5 0.7 2.2-0.1 4-7.5 4.7-9.6 1.9-5.9 3.3-12.1 4-18.3 1.4 6.8 2.6 13.7 3.4 20.6 0.2 1.8-0.3 7.3 1.6 7.7 3.1 0.7 6.2 0.9 9.4 1.1 -2.6 8.1-5.3 16.1-7.9 24.2 -1.4 4.3-2.9 8.7-4.3 13 -1.1 3.5-4.7 9.9-3.9 13.5 0.8 4.6 20.2 4 23.8 4.3 2.2 0.1 3.1-0.6 3.1 1.7 0 1.8 0 3.7 0.1 5.5 0.1 4.2 0.4 8.4 0.7 12.5 0.6 7.3 1.1 15.1 3.4 22 0.1 0.4-0.6 2.6-0.5 3.3 0.2 1.9 1.2 3.6 2.5 4.9 3.5 3.5 8.9 4.2 13.7 3.7 7-0.6 12.9-8.3 4.7-12.5 -6.5-3.4-14.4 5.9-19.6 0.5 2.4-1.1 3.2-8.3 3.8-10.8 1.1-4.3 2.1-8.6 3.1-13 0.2 4.8 0.1 12.7 2.7 17 2.5 5 12.3 6.4 17.1 6.3 3.6-0.1 8.2-1 9.8-4.6 1.8-4.1-1.5-8.7-5.9-8.4 -7.2 0.2-12.8 5.1-19.6 6.5 2.1-2.2 2.6-7.6 3.4-10.5 1.4-5.4 2.6-10.8 3.8-16.2 0.5-2.4 1-4.9 1.5-7.3 2.9-0.1 5.8-0.2 8.7-0.4 6.2-0.3 12.5-0.7 18.6-1.6 3.3-0.5 7.1-0.7 6.3-4.9 -1.9-4.4-3.9-8.8-5.7-13.2 -4.7-11.4-8.7-23.1-12.3-35 12.2 6.2 26.1 8.8 39.8 9.2 6.4 0.2 12.9-0.1 19.3-1 2 1.7 4.6 2.6 7.2 3 3.4 0.5 3.1 1.8 6.1 3.4 2.4 1.3 10.3 3.7 12 0.7 3.3 0.8 4.4-1.8 7.2-1.9 2.5-0.1 4-2.6 3.7-4.9 0-3.7 10.1-1.9 12.5-2.1 7-0.6 13.9-2.1 20.6-4.2 6.1-1.9 11.8-4.5 17.4-7.4 2.5-1.5 5-2.9 7.4-4.6 2.4-1.6 3-3.8 4.8-1.4 -3.3 12.8-6 25.8-8.1 38.8 -1.1 6.5 1.8 8.4 7.9 9.7 3.2 0.7 5.1 0.1 6.2 3.4 1.1 3.4 2.1 6.8 3.1 10.2 2.1 6.7 4.1 13.4 6.2 20.1 1.8 5.7 2.9 13 6.1 18.2 -2.2-1.6-6-1.3-8.5-2.2 -3.1-1-2.3-4.4-5.7-5.5 -6.3-2.2-11.2 2.4-11.2 8.3 -1.2 6.8 14.4 4.6 17.5 4 7.2-1.3 9.9-4 12.1-10.8 1.6 3.4 3.2 6.8 5.1 10 1.4 2.5 0.2 3.6-1.9 5.7 -3.4-3.6-10.2-5.2-13.8-1 -1.5 1.7-1.8 4.2-1.3 6.3 -0.9 0-0.8 2-0.6 2.3 1.6 3 9.8 2.7 12.5 2 4.5-1.1 11.7-7.8 8-12.9 -1.5-1.8 3.4-10.1 4.3-12.6 1.4-3.7 2.7-7.5 3.8-11.3 1.9-6.2 3.7-12.5 5.2-18.8 0.7-2.9 1.3-5.8 1.9-8.7 0.3-1.5 0.5-3 0.8-4.5 0.4-2.6 1.1-2 3.5-2.5 -0.6 2.2 1.2 7.4 3.4 8.3 2.6 0.8 6.8-0.5 9.5-0.8 2.8-0.3 8.6 0.1 8.8-3 0.2-2.7 1-8.1-0.8-10.3 -2.7-3-5.5-5.9-8.5-8.6 -0.8-5.3-2-10.6-3.6-15.7 -2.7-8.6-6.7-16.5-11.2-24.2 2.3-0.4 5.1-0.8 7.3-1.9 -1.9-4.2-4.1-7.9-7-11.5 -2.2-2.7-4.6-5.3-7.2-7.6 -0.8-2.4-1.3-6.1-2.7-8.2 24.5-6.1 47.1-25.9 56.2-49.5 5.1-13.1 5.6-26.8 5.8-40.7 0.1-5.3 1-12.5 5.8-15.7C580.8 130.1 591.9 129.3 589.8 122.6 589.7 122.1 590 123.3 589.8 122.6zM394.3 266.2c0.7-0.6 1.3-1.2 1.9-1.8 1.7 1.3 0.7 3.7-0.3 5.1 -1.1-0.8-2.2-1.4-3.3-2.1C393.2 266.9 393.8 266.6 394.3 266.2 395.1 265.6 393.7 266.6 394.3 266.2zM303.2 263.6c0.2 0.8 0.4 1.6 0.6 2.4 -7-5.5-14.5-14.6-14.5-23.8 0-2.9 2.8-1.8 5.2-2.1 1.1-0.1 2.3-0.3 3.4-0.4 0.4 2 0.8 4 1.2 6.1C300.4 251.7 301.7 257.7 303.2 263.6 303.4 264.4 301.1 255.2 303.2 263.6zM326.1 117.9c4.5 6.4 9.1 12.7 13.6 19 2.4 3.3 4.8 6.6 7.3 9.9 2.5 3.3 3.1 3.3 7.3 3.3 4.7 0 4.1 20.1 3.8 24.1 -0.1 1.8 2.9 1.5 3.3 2.8 0 2.2-4.2 1.7-4.2 2.2 2.4 0.8-6.9 21.6-8.2 23.7 -3.7 6.3-8.2 12-13.5 17 -12.5 11.6-29.1 19.1-46.3 19.3 0-16.4-1.1-32.8-3.7-49 1.3 0.3 2.8 0.6 4.2 0.6 -2.1-0.4-3.8-0.3-4.5-2.3 0.2 2.6-6.7-1.9-8.2-3.1 -3-2.3-5.5-5.3-6.6-9 -1.8-5.8 1.4-20.9 10.3-15 1.5 1 1.9 1.7 1.9 3.5 0 3.9 0.8 7.6 2.2 11.2 1.8 4.6 2.8 5.8 7.6 5.8 4.1 0 8.1-0.3 12.1-0.4 -3.6-9.9-6.2-20.5-6.3-31 3.4 6.3 8.2 12.1 13.9 16.4 0-4.5-0.6-8.7-0.2-13.3 0.9-6.2 2.4-12.2 4.6-18M300.1 94.9c16.4-1.4 32.9 1.6 46.7 11 14.7 10 25.2 25.2 31.9 41.5 -7.5 0.6-15.1 0.9-22.6 1.3 -2.3 0.1-6.2 1.3-7.5-0.7 -1.3-2.1-2.7-4.1-4-6.1 -7.2-10.8-14.9-21.6-23.8-31 1.3 1.7 2.6 3.4 3.9 5.1 1.5 2.1-0.9 3.6-2.1 5.5 -2.4 3.8-4.6 7.8-6.3 12 -4.1 9.9-7.1 21.9-4.4 32.6 -2.3-2.6-4.6-5.2-6.8-7.9 -1.6-1.9-3.1-3.8-4.7-5.8 -1.6-2.1-1.4-2.7-2-5 -1.9 11.3 0.2 23.5 5.1 33.8 -3-0.2-14.5 0.9-15.7-2 -1.6-3.5-3.1-7-3.9-10.8 -0.6-2.9-0.2-6.1-0.8-8.9 -0.1 1.3-0.3 2.5-0.3 3.8 -2.1-4.3-0.7-11.6-0.4-16.3 0.4-6.7 1-13.5 2.1-20.1 1.1-7.2 2.6-14.5 5.3-21.2 1.2-3 2.6-5.9 4.7-8.3C296.2 95 297.6 95.4 300.1 94.9 301.8 94.7 300.1 94.9 300.1 94.9zM296.8 90.2c1.2 1.3 2.2 2.8 3 4.3 -10.1 1.5-13.4 15.9-15.3 24.5 -3 13.8-4.2 28.7-2.6 42.7 -2.7-14.7-6.3-28.2-5.6-43.3C276.6 110.6 282.1 75.4 296.8 90.2 297 90.5 296.7 90.2 296.8 90.2zM258.9 282.8c-1.9-0.1-3.8-0.1-5.7-0.2 -2.9-0.1-3.2 0.4-3.1-2.6 0-2.9-0.2-5.8-0.6-8.7 -0.5-4.3-1.4-8.6-2.6-12.8 -0.5-1.7-1.1-3.4-1.7-5.1 0.2-1.6 0.4-3.3 0.3-4.9 -1.6 9.6-4.3 19.2-7.2 28.5 -0.5 1.6-1.1 3.2-1.6 4.9 -2.2-0.3-4.4-0.4-6.7-0.6 -5.9-0.4-11.9-0.8-17.8-1.2 4.2-10.3 2.4-22.7 0.6-33.3 -1.9-11.5-4.6-22.8-7.2-34.2 -2.7-11.7-5.3-23.4-7.1-35.2 -1.7-11.4-2.8-22.2 0.9-33.3 7.8-23.3 26-38.9 43.8-54.7 4.3-3.8 8.5-7.6 12.9-11.4 3.8-3.2 8.7-8.5 14.1-7.7 0 5.2 8.7 11.3 13 13.4 -2.1-2-4.2-4.1-6.1-6.2 3.3-2.7 3.1-8.1 7.2-5.3 5.7 3.9 9.5 10.1 11.8 16.5 -5.8-6.5-13.5-0.5-16.5 5.2 -3.6 6.7-4.8 14.8-5.2 22.3 -6-9-10.9-18.9-14.4-29.1 0.6 0.8-22.4 15.3-26.3 17 1.2-0.5 5 1.1 6.4 1.4 4.5 1 8.9 2.1 13.3 3.5 7.2 2.2 14.2 4.8 21 7.9 -0.1 1.7-17.8 2.5-20.1 2.7 -3.5 0.3-7 0.6-10.6 0.9 -1.8 0.1-7.8-0.4-9.2 0.8 2.9 7.6 5 15.5 8.5 22.9 0.6 0 1.8-2 2.4-2.5 3.2-3 6.7-5.7 10.1-8.4 6.3-5.1 12.7-10.2 18.8-15.4 -0.8 15.4 3.1 29 7.3 43.6 -3.8-3.8-8.6-1.9-11.2 2.1 -3.5 5.5-2.5 13 1.3 18.1 1.9 2.5 4.4 4.4 7.1 5.9 1.6 0.8 3.2 1.4 4.9 1.9 2.5 0.7 1.8 1.9 2 4.3 0.6 6.4 0.9 12.8 1.2 19.2 1 23.8 2.3 48.7-1.2 72.4 -1.5-0.2-6.7-0.4-7.6-1.5 0-3.5-1.3-7.3-2.4-10.6 -2.1-6.6-7.4-13.9-7.4-20.9 1.1 6 0.5 12.4-0.4 18.4 -0.5 3.7-1.2 7.4-2 11C265.7 284.1 260.9 282.8 258.9 282.8 255.6 282.7 259.3 282.8 258.9 282.8zM274.4 116.5c0-0.3-15.2-6.6-17.3-7.3 -3.3-1.2-6.7-2.4-10.2-3.3 -1.7-0.5-6.8-0.8-8-2 7.5-3.6 13.8-9.3 20.4-14.2C263 99.1 268.2 108.4 274.4 116.5 274.4 116.6 273.2 114.8 274.4 116.5zM274.4 117.6c-0.2 2.6-10.9 8.4-13.4 10.1 -4.6 3.4-9.2 6.9-13.7 10.5 -4.1 3.4-3.6 4.5-5.5-0.6 -1.8-4.9-3.2-9.9-5.1-14.8C249.3 121.4 261.9 120.2 274.4 117.6 274.4 117.7 272.6 117.9 274.4 117.6zM298.2 384.8c-0.1-0.3-0.1-0.5-0.2-0.7C298.1 384.3 298.2 384.6 298.2 384.8zM283 382.7c4.5-1.6 10.4-4.1 14 0.8 2.4 3.1 0.6 6.4-2.7 7.7 -4.1 1.7-9.9 1.4-14-0.2 -2.9-1.2-8.3-5.6-5.9-9.4 0.1 3.2 2.7 5.7 5.4 6.9C280 388.5 282.7 383.2 283 382.7 284.4 382.3 283 382.8 283 382.7zM276.1 382.4c1.8 1.5 4.1 1.3 6.2 0.6 -1.4 0.9-2.1 3.6-2.4 5.1 -2.4-1.6-4.7-4-5.3-7C275.3 380.9 275.8 381.3 276.1 382.4 276.8 383 275.6 382 276.1 382.4zM282.1 350.9c-0.7 3-5.3 30-7.5 30 -1.4-4.2-1.1-9.3-1.6-13.7 -0.9-9.2-1.5-18.4-2.3-27.5 4.8 0.3 9.6 0.5 14.4 0.5C284.1 343.7 283.1 347.3 282.1 350.9 282.1 351.3 283.3 346.3 282.1 350.9zM300.2 369.5c2.4-0.7 6.2-1.5 8.4 0 3.5 2.4 2.2 7.2-1.4 8.7 -6.3 2.7-17.3 1.2-22.3-3.7 3.5-0.4 22 4.9 14.4-4.7C299.6 369.7 299.9 369.6 300.2 369.5 301.4 369.1 299.9 369.6 300.2 369.5zM290.9 373c2-0.7 4-1.5 5.9-2.3 2.8-1.1 3.1 1.2 3.8 3.8 -4.4 1.7-10.8 0.7-15.2-0.2C287.1 373.6 289.2 373.6 290.9 373 292.9 372.4 289.3 373.5 290.9 373zM290.5 353.1c-0.9 3.7-1.7 7.4-2.5 11.1 -0.4 2-0.8 9-2.8 9.9 -1.2-6.6-1.6-13.3-2.6-19.9 0.9-4.2 1.8-8.4 2.6-12.7 0.5-2.7 6.1-1.5 8.5-1.6M316.4 307.8c3.2 8.6 6.7 17 10.5 25.3 1.6 3.5-3.7 3.5-6.1 3.9 -5.4 0.8-10.8 1.3-16.2 1.8 -14.9 1.3-29 0.9-43.8-0.6 -4.3-0.5-8.6-0.9-12.8-1.7 -3.8-0.9-3.8-1.5-2.6-5.1 2.7-8 5.4-16 8-24.1 1.5-4.5 3-9 4.4-13.5 0.8-2.5 1.6-4.9 2.3-7.4 0.9-2.8 2.8-1.8 5.4-2 1.3 0 3-7.5 3.3-9 1-4.4 1.5-8.9 1.3-13.4 1.7 4.5 3.2 9.1 4.5 13.8 0.9 3.2 0.7 8.3 3.5 10 4.3 0.8 7.3 2.5 8.1-2.2 0.9-5.8 1.5-11.6 2-17.5 4.8 7 11.1 12.7 18.5 16.9 3.2 1.9 3.6 6.8 4.7 10.3C313 298.2 314.7 303 316.4 307.8 318.3 312.8 313.1 298.6 316.4 307.8zM386.6 299.8c-2-0.8-4.3-1.7-5.6-3.5 -1.3-1.7-1.1-6 2.2-5C381.7 294.2 384.4 299.2 386.6 299.8 386.3 299.7 386.6 299.8 386.6 299.8zM393.6 300.4c-5.9 3.2-14-10.7-6.7-10.9 -1.7 4.5 3.4 9.3 7.2 10.4C393.9 300.1 393.8 300.3 393.6 300.4 392.8 300.8 393.8 300.3 393.6 300.4zM398.8 298.7c-4.2 2.7-13.5-4.9-10.8-9.2 0-0.5 1-1 1.4-1 2.4-0.4 2.3 1.2 3 2.8 1.5 3 4.1 5.5 7.3 6.6C399.4 298.1 399.1 298.4 398.8 298.7 398 299.2 399.1 298.5 398.8 298.7zM404.6 295.3c-3.6 5.6-11.1-3.5-12.6-6.6 -2.6-1.9-3.6 0.2-5.8 0.4 -1 0.1-1.9 0.5-2.5 1.3 -0.3 0.9-1 1-1.9 0.3 -2.4 0.2-3.3 2.8-2.7 4.8 -2.3-0.7-4.6-1.2-6.8-2.1 -1.3-0.6-4.5-3.3-5.6-3.3 0.8 1.2 1.3 1.7 2.3 2.7 -17.3 1.8-36.1 0-52.4-6.5 -8.1-3.2-15.3-7.9-21.6-13.9 -2-1.9-3.8-4-5.5-6.3 -1.5-2-1-3.4-0.9-5.8 0.3-4.6 0.4-9.3 0.5-13.9 9.8 31.7 50 38.6 78.7 36.4 -0.4 0.7-1.1 1.7-1.3 2.5 3-4.6 8.9-10.1 14-12.1 -0.5 1.9-3 6.5-1.8 8.2 3.5 4.3 7.8-1.9 8.1-5.1 1.1 0.4 2.2 0.6 3.3 0.6 3 0.2 1.8 0.5 2.5 3.2 0.7 2.6 2 5.1 3.7 7.2 1.5 1.9 3.3 3.5 5.4 4.8C403.4 293.2 405.8 293.4 404.6 295.3 404.2 296 404.9 295 404.6 295.3zM455.4 278.6c-14.6 7.2-31.6 13.1-48.1 12.3 0.5-1.1 0.4-2 0.7-3.1 -0.7 1.2-1.4 2.3-2.1 3.4 -1.5 2.2-1.5 1.4-3.3 0 -1.3-1-2.6-2.1-3.8-3.3 1.2 0.1 2.3-0.2 3.3-0.7 -4.1-0.1-5.4-1.3-7.4-5 -0.9-1.8-1.6-3.6-2.1-5.6 1.2-0.2 3.3-1.3 3.3-2.8 -1.7 2.4-6.6 1.7-8.9 1.3 0.1-0.9 0.3-3.8 1.5-4.2 -3.9 2.3-1.8 10.4-7.6 10.4 -3.2-0.1-0.4-3.6 0.2-5.2 1-2.9 1.4-5.9 1.5-8.9 4.5-3 10.1 1.5 13.7 4 3.4 2.5 11.5 8 12.3 12.7 -0.4-0.9-0.8-1.7-1.2-2.6 18.9-0.3 39.1-6.8 53.9-18.6 1.6 3.1 3.5 6 5.5 8.9 -2.2 1.3-4.3 2.8-6.4 4.1M467.5 271.3c-3.4-4.5-7.6-12.2-8.3-17.9 -0.1-1.2-0.8-2.4 0.5-2.8 2.4-0.8 4.7-2 7-3.2 2.2-1.2 4.2-2.5 6.3-3.9 1.2-0.8 4.4-4.2 5.7-4.1 -3.8 11-7.2 22.2-10.1 33.5C468.2 272.3 467.8 271.8 467.5 271.3 467.5 271.3 467.8 271.7 467.5 271.3zM474.9 324.7c0-0.5-0.2-1-0.5-1.4 1.7 0.3 3.1-0.2 3.6 1.6 0.7 2.8 0.6 2.2-1.7 3.9C475.8 327.5 475.4 326.1 474.9 324.7zM478.8 328.3c0.1 0.2 0.1 0.5 0.2 0.7 -0.2 0-0.7 0-0.9 0C478.1 328.8 478.7 328.4 478.8 328.3 478.9 328.6 478.7 328.4 478.8 328.3zM476.7 329.9c2.9 1 4.5 1.5 1.4 4.3C477.7 332.8 477.2 331.4 476.7 329.9 476.8 330 477.2 331.3 476.7 329.9zM464.6 372.1c1.2-5.8 13.9-8.4 14.3-1.2 -2.3-1.5-5.1 3.6-4.5 5.6C471.2 376.2 463.8 376.7 464.6 372.1 464.8 371.3 464.5 372.6 464.6 372.1zM489.4 375.6c-3.7 2.5-27.1 5.7-25-1.5C465.7 379.4 487.9 378.2 489.4 375.6 489.4 375.7 489.5 375.6 489.4 375.6zM489.9 374.9c-3.7 2.3-11.2 1.7-15.2 1.5 -0.5-4.1 6.1-7.3 7.7-3.1 -0.7 0-1.4 0.1-2 0.4 0.7 0.2 1.5 0.3 2.3 0.3 0.6 0 0.6 1.3 1 1.3 0.2-0.5 0.1-0.9-0.1-1.3 0.5-0.1 0.9-0.2 1.4-0.3 -0.5-0.2-1.6-0.1-1.9-0.6C483.6 373.2 490.3 373.8 489.9 374.9 489.8 374.9 489.9 374.8 489.9 374.9zM491.6 371c-0.5 1-0.9 2.1-1.4 3.1 -0.1-0.2-0.1-0.2 0-0.1 -2.9-5.2-3.6-12.7-5.3-18.4 -1.2-4-2.4-7.9-3.6-11.8 -0.6-1.8-1.1-3.6-1.7-5.4 -0.9-2.7-1.6-3.1 0.8-4.7 1.7 5.7 3.8 11.3 5.9 16.8 1.5 3.9 3.2 7.7 4.9 11.5 0.8 1.8 1.6 3.5 2.4 5.2C492.8 368.4 492.2 369.7 491.6 371 491.1 372.1 492.5 369.1 491.6 371zM480.2 330.4c0.3 0 1.9-0.1 2.2 0.2 0 0.3-1.3 1-1.7 1.3C480.6 331.4 480.4 330.9 480.2 330.4 480.6 330.4 480.4 330.9 480.2 330.4zM497.6 383.8c0.5-0.4 1.1-0.9 1.5-1.5 0.1 0.6-1.1 1.8-1.4 1.5 1 0.2 1.6-0.3 1.6 1.1 0.8-1 0.3-1.5 1.3-2.4 -2.9 1.1-0.5-1.7-0.3-2.8 1.9 1.5 0.1 5.9-1.3 7.2C498.8 386.3 497.2 384.1 497.6 383.8 498 383.6 497.5 383.9 497.6 383.8zM482.1 387.3c0.6-8 10.5-7.5 15-3.1 3.6 3.6-0.6 5-4.4 5.7C489.8 390.4 481.8 391.3 482.1 387.3 482.1 386.3 482 387.9 482.1 387.3zM501.2 380.1c2 1 0.4 5-0.2 6.3 -1.5 3-4.3 5.2-7.5 6 -3.3 0.8-7.7 0.6-10.9-0.6 -0.8-0.3-1.9-2.6-0.6-2.6 0.8 3.5 12.4 1.6 14.5 0.7 2.3-1 4.7-2.9 4.9-5.6C501.4 383.6 500.4 379 501.2 380.1 501.2 380.1 501.1 379.9 501.2 380.1zM516.1 328.6c-2.1 8.9-4.5 17.7-7.1 26.4 -1.4 4.7-2.8 9.4-4.4 14 -0.9 2.8-1.8 8.5-3.9 10.6 -1.1-1-1.6-2.7-2.2-4 -2.1-4.7-4.1-9.4-6.1-14.2 -2.8-6.5-5.4-13-7.9-19.5 -1.1-2.9-2.2-5.9-3.2-8.8 1.3-0.9 2.7-1.7 3.9-2.8 0.5-0.7-5.2-1.3-5.3-1.3 -0.6-1.7 2.8-4.2 4.5-4.2 -1.8 0.7-3.5 1.2-5.2 2.2 -0.3-1-0.6-2.1-0.9-3.1 13.2 1.9 26.1 1.4 39.3-1.1C517 324.7 516.5 326.6 516.1 328.6 514.9 333.5 516.6 326.5 516.1 328.6zM521.4 320.6c-11 2.3-22.2 4.6-33.5 3.4 -5.6-0.6-11.1-1.4-16.6-2.5 -2.9-0.6-7.7-0.8-9.6-3.5 -1.8-2.3 0.1-7.4 0.6-9.9 2.5-14.1 5.6-28.1 9.1-41.9 1.6-6.4 3.4-12.8 5.3-19.2 0.7-2.5 1.4-5.2 2.3-7.7 3.8 0.7 7.6 1.1 11.5 1.1 -1 8.4-0.5 18.5 2.5 26.4 1.1 2.7 7.3 1.9 9.6 1.9 3.3 0.1 3.6-0.2 5.2 2.7 1.5 2.8 3 5.5 4.4 8.3 4.8 9.6 9.1 19.5 12.3 29.7 0.5 1.7 1.6 2.8-0.3 3.7 -1.7 0.8-3.5 1.4-4.5 3.1C519.1 317.6 520.9 320.7 521.4 320.6 520.4 320.9 521.5 320.6 521.4 320.6zM519 270.6c5.3 9.2 9.6 19.1 12.5 29.3 1.3 4.7 1.6 7.5 4.8 11.2 3.1 3.7 5.3 5.2 5.4 10.1 0 1.8 0 3.6-0.1 5.3 -0.1 1-4.2 1.2-5.2 1.4 -3.3 0.6-7.8 2.4-10.6 1.7 -2.2-0.5-3.4-5.7-3.4-7.4 0.3-0.9 2.6-0.1 2.9-0.1 0 1.5-0.4 2.3 1.4 1.9 0-0.1 0.2-7.5-0.7-7.5 0.1 0.4 0.1 0.6-0.1 0.5 0.5 0.9-0.4 3.7-0.5 4.9 -2.1-0.5-2.6-2.1-3.8-3.6 -2.1-2.8 4.2-3.2 4.2-5.8 0.2-0.1-2.4-8.3-2.8-9.8 -1.1-3.5-2.3-7-3.7-10.4 -3.2-8.1-7.1-15.9-11.5-23.4 2.2 0 4.5-0.2 6.7-0.5C517.6 267.9 517.3 267.5 519 270.6 524.8 280.6 518.6 270 519 270.6zM518.2 266.5c-7.4 1.7-13.8 1.7-21.3 0.8 -2.1-0.3-2.6 0-3.1-1.8 -1.4-5.3-2.1-11-2.5-16.5 -0.1-1.8-0.2-3.6-0.2-5.4 0-1.1 0-2.1 0-3.2 1.9 0 3.8-0.1 5.6-0.2 0.6 0 5.3-0.9 5.5-0.6 2.3 1.8 4.6 3.7 6.7 5.7 6 5.6 11.9 11.9 15.3 19.5 -0.4 0.2-1 0.4-1.4 0.4M508.9 238.4c0.8 2.5 1.5 4.9 2.2 7.4 -2.4-2.2-5.5-4-7.8-6.3C503.7 239.5 508.9 238.4 508.9 238.4 509.7 241 508.9 238.4 508.9 238.4zM504.2 238.1c-17.4 3.1-35.6-0.6-50.4-10.1 -8.4-5.4-15.6-12.5-21.2-20.8 -2.8-4.1-5.1-8.4-7-13 -0.5-1.3-4.7-15-4-15 -0.5-0.2-5.8-1-4-2.4 0.8-0.7 3.3-1.2 3.2-2.5 -0.3-3-0.3-6-0.2-8.9 0.7-12.5 4.9-24.7 11.4-35.3 1.4-2.3 2.9-4.6 4.6-6.7 1.7 0.4 4-0.9 5.5-1.5 3-1.1 5.9-2.4 8.8-3.7 2.8-1.2 4.1-3 6.1-0.4 2.9 3.9 5.9 7.7 9.2 11.2 1.5 1.6 3.4 4.1 5.6 4.7 2.1 0.6 5.4-0.6 7.6-1 1.6 11.6 3.4 23.3 3.5 35.1 0 2.4-0.1 4.8-0.3 7.2 1.4 0.4 2.8 0.7 4.2 0.8 2.8 0.3 5.6 0.5 8.4 0.3 1-0.1 1.1-3 1.2-3.9 0.7-4.6-1.6-10.6 4.4-11.8 6.2-1.2 8.8 7.8 8.5 12.3 -0.5 6.2-4.4 11.3-9.6 14.4 -3.4 2-6.9 2.3-10.4 3.7 1.8-0.1 3.5-0.4 5.3-0.9 -2.9 17.5 6.8 34.5 19.6 45.8C510.8 236.7 507.5 237.5 504.2 238.1 503.5 238.2 507.8 237.5 504.2 238.1z" class="p"/><path d="M502.3 179.5c1.9-2.8-0.2-5-1.6-7.3 0 0.1 4 0.7 4.5 1.2 -1.2-1-2.7-2-4.2-2.4 -1-0.3-2.6 0.3-1.5 1.6 1.1 1.5 2.6 3.2 2.3 5.2 -0.2 1.4-3.2 3.4-3.2 4C500.1 181.4 501.4 180.8 502.3 179.5 502.7 178.9 501.6 180.5 502.3 179.5z" class="p"/><path d="M323 149.8c2.6-2.9 6.8-4.5 10.6-5.2 2.3-0.4 10.1-1.1 11.8 1.1C339.2 140.6 326.2 141 323 149.8 324.3 148.3 322.9 149.9 323 149.8z" class="q"/><path d="M311.7 198.2c0.8-3 3.6-3.6 6.1-3.2 -1 0.4-1.9 0.9-2.8 1.5 3.4 2.8 5.6 5.6 10 7.4 7 2.8 14.8 3.6 22.3 2.8 1.5 1.2-7.6 1.6-8.3 1.6 -3.7-0.1-7.4-0.6-11-1.6 -4.7-1.2-12.4-3.9-14.4-8.9 0.3-0.3-1.9 2.4-1.5 2.7C311.7 199.8 311.6 199 311.7 198.2 311.9 197.6 311.7 198.6 311.7 198.2z" class="p"/><path d="M334.9 156.2c-1.9 0.1-1.2 2.3-3.4 2.1 -1.4-0.1-4-0.2-4.9-1.6 0 1.6 1.6 2.7 2.9 3.5 2.9 1.7 2.4 1.2 2.4 4.8 -0.1 3-0.1 10.6 3.3 12.3C339.1 179.2 341.5 155.9 334.9 156.2 334.1 156.2 336.8 156.1 334.9 156.2z" class="p"/><path d="M335.2 163.9c-1.6 0.1-1.8-5-0.2-5.1C336.6 158.7 336.8 163.9 335.2 163.9z" class="r"/><path d="M444 156.2c5 0.2 4.1 21.5-0.9 21.3C438.1 177.2 439 156 444 156.2 445.9 156.3 442.1 156.1 444 156.2z" class="p"/><path d="M443.9 158.8c1.6 0.1 1.4 5.2-0.2 5.1C442.1 163.9 442.3 158.8 443.9 158.8 444.5 158.9 443.3 158.8 443.9 158.8z" class="r"/><path d="M455.9 149.8c-4.3-7.9-15.6-9.8-22.4-4 3.2-1.3 7-1.6 10.4-1.3C446.4 144.6 455.2 146.5 455.9 149.8 455 148.1 456 149.9 455.9 149.8z" class="q"/><path d="M467.2 198.2c-0.8-3-3.6-3.6-6.1-3.2 1 0.4 1.9 0.9 2.8 1.5 -3.4 2.8-5.6 5.6-10 7.4 -7 2.8-14.8 3.6-22.3 2.8 -1.5 1.2 7.6 1.6 8.3 1.6 3.7-0.1 7.4-0.6 11-1.6 4.7-1.2 12.4-3.9 14.4-8.9 -0.3-0.3 1.9 2.4 1.5 2.7C467.2 199.8 467.3 199 467.2 198.2 467 197.6 467.2 198.6 467.2 198.2z" class="p"/></svg>