<svg version="1.1" xmlns="http://www.w3.org/2000/svg" xmlns:xlink="http://www.w3.org/1999/xlink" viewBox="0 0 768 430" style="enable-background:new 0 0 768 430;" xml:space="preserve"><g id="walking"> <path style="fill-rule:evenodd;clip-rule:evenodd;fill:#DDE4D0;" d="M324.265,295.647c7.992-17.214,19.923-31.959,29.621-48.081  c1.645-2.735,2.058-6.197,2.812-9.371c6.955-29.29,13.864-58.592,20.777-87.894c0.254-1.086,0.393-2.202,0.129-3.625  c-5.926,5.516-15.116,7.693-16.451,17.695c-1.164,8.723-3.77,17.269-5.786,25.881c-0.419,1.8-0.829,3.643-1.602,5.316  c-2.041,4.4-6.799,6.605-11.312,5.444c-4.843-1.243-8.255-5.532-7.22-10.356c3.054-14.219,6.366-28.393,9.944-42.503  c0.57-2.246,2.712-4.433,4.689-5.997c13.525-10.691,27.146-21.268,40.839-31.76c12.965-9.934,28.633-6.569,36.14,7.653  c6.373,12.069,12.627,24.195,19.121,36.205c1.104,2.039,2.87,3.993,4.819,5.33c8.572,5.887,17.353,11.492,25.998,17.281  c4.647,3.109,6.205,7.178,4.613,11.371c-2.265,5.967-9.14,8.294-15.005,4.578c-10.903-6.905-21.625-14.079-32.287-21.33  c-1.711-1.166-2.938-3.179-3.985-5.013c-2.347-4.089-4.437-8.312-7.074-13.329c-0.696,1.891-1.211,2.951-1.476,4.066  c-2.719,11.379-5.323,22.785-8.139,34.141c-0.652,2.635-0.14,4.478,1.711,6.543c11.426,12.744,22.821,25.52,33.929,38.521  c2.336,2.735,4.196,6.298,4.944,9.748c3.363,15.468,6.279,31.028,9.289,46.565c2.254,11.648,1.194,18.1-10.668,20.869  c-2.026,0.473-4.19,0.357-6.24,0c-8.17-1.419-11.187-8.475-12.517-16.149c-2.422-14.032-5.35-27.992-8.301-41.938  c-0.472-2.219-1.758-4.539-3.34-6.243c-8.578-9.259-17.388-18.322-26.052-27.508c-0.863-0.916-1.269-2.225-1.886-3.352  c-0.512,0.335-1.024,0.67-1.534,1.008c-1.461,6.367-3.206,12.687-4.313,19.107c-1.68,9.706-5.353,18.483-10.855,26.809  c-7.624,11.536-14.779,23.368-21.865,35.222c-3.216,5.381-6.264,11.64-12.744,13.044c-2.323,0.504-4.799,0.454-7.132,0  c-5.755-1.116-10.463-5.49-11.59-11.11C323.818,300.248,323.307,297.713,324.265,295.647z"/> <circle style="fill:#DDE4D0;" cx="410.81" cy="79.419" r="21.419"/></g><g id="Layer_1"></g></svg>