<svg version="1.1" id="Layer_1" xmlns="http://www.w3.org/2000/svg" xmlns:xlink="http://www.w3.org/1999/xlink" viewBox="0 0 768 430" enable-background="new 0 0 768 430" xml:space="preserve">
<g>
	<g>
		<g>
			<path fill="#880000" d="M389.291,25c-24.926,0-45.203,20.278-45.203,45.203v204.085c-17.36,13.722-27.496,34.439-27.496,56.949
				c0,40.087,32.612,72.698,72.698,72.698c40.086,0,72.701-32.611,72.701-72.698c0-22.507-10.137-43.225-27.494-56.947V70.203
				C434.498,45.278,414.217,25,389.291,25L389.291,25z"/>
			<path fill="#FFFFFF" d="M419.43,282.111V70.203c0-16.643-13.492-30.135-30.139-30.135c-6.242,0-12.039,1.897-16.848,5.146
				c-8.016,5.417-13.287,14.588-13.287,24.989v211.906c-16.493,10.141-27.496,28.348-27.496,49.129
				c0,31.828,25.803,57.63,57.63,57.63c31.832,0,57.633-25.802,57.633-57.63C446.924,310.456,435.922,292.251,419.43,282.111z"/>
			<linearGradient id="SVGID_1_" gradientUnits="userSpaceOnUse" x1="389.292" y1="389.3848" x2="389.292" y2="66.8426">
				<stop  offset="0" style="stop-color:#FF532B"/>
				<stop  offset="1" style="stop-color:#CC0000"/>
			</linearGradient>
			<path fill="url(#SVGID_1_)" d="M419.43,282.111V70.203h-60.273v211.906c-16.493,10.141-27.496,28.348-27.496,49.129
				c0,31.828,25.803,57.63,57.63,57.63c31.832,0,57.633-25.802,57.633-57.63C446.924,310.456,435.922,292.251,419.43,282.111z"/>
			
				<line fill="none" stroke="#EF4047" stroke-width="4.8782" stroke-linecap="round" stroke-linejoin="round" stroke-miterlimit="10" x1="411.91" y1="87.76" x2="411.91" y2="246.293"/>
			<g>
				<path fill="#880000" d="M382.152,104.472h-23.103c-2.497,0-4.521-2.021-4.521-4.52c0-2.495,2.024-4.52,4.521-4.52h23.103
					c2.498,0,4.52,2.025,4.52,4.52C386.672,102.452,384.65,104.472,382.152,104.472z"/>
				<path fill="#880000" d="M382.152,139.128h-23.103c-2.497,0-4.521-2.021-4.521-4.521c0-2.495,2.024-4.521,4.521-4.521h23.103
					c2.498,0,4.52,2.026,4.52,4.521C386.672,137.107,384.65,139.128,382.152,139.128z"/>
				<path fill="#880000" d="M382.152,173.784h-23.103c-2.497,0-4.521-2.022-4.521-4.52c0-2.496,2.024-4.52,4.521-4.52h23.103
					c2.498,0,4.52,2.024,4.52,4.52C386.672,171.762,384.65,173.784,382.152,173.784z"/>
				<path fill="#880000" d="M382.152,208.439h-23.103c-2.497,0-4.521-2.021-4.521-4.52c0-2.496,2.024-4.521,4.521-4.521h23.103
					c2.498,0,4.52,2.025,4.52,4.521C386.672,206.418,384.65,208.439,382.152,208.439z"/>
				<path fill="#880000" d="M382.152,243.095h-23.103c-2.497,0-4.521-2.021-4.521-4.52c0-2.496,2.024-4.521,4.521-4.521h23.103
					c2.498,0,4.52,2.024,4.52,4.521C386.672,241.074,384.65,243.095,382.152,243.095z"/>
			</g>
		</g>
	</g>
	<path fill="#00ADEE" d="M299.875,320.926c-0.951,7.088-6.181,13.479-12.058,12.834c-4.306-0.473-7.004-4.043-6.807-9.391
		c0.367-9.656,8.91-17.274,12.102-20.441c4.417-4.39,15.167-11.157,18.543-11.726C305.216,298.966,301.533,308.598,299.875,320.926z
		"/>
	<path fill="#00ADEE" d="M307.918,338.077c0.85,2.968-0.109,6.396-2.543,7.16c-1.781,0.557-3.467-0.386-4.314-2.534
		c-1.527-3.876,0.53-8.366,1.242-10.168c0.984-2.5,4.059-7.036,5.294-7.844C306.225,328.478,306.437,332.922,307.918,338.077z"/>
	<path fill="#00ADEE" d="M297.288,355.103c0.938,2.939,0.082,6.395-2.327,7.231c-1.766,0.612-3.478-0.279-4.39-2.4
		c-1.642-3.83,0.278-8.379,0.936-10.201c0.909-2.53,3.849-7.154,5.059-8C295.307,345.559,295.654,349.995,297.288,355.103z"/>
	<path fill="#00ADEE" d="M453.82,285.462c2.52,0.421,10.537,5.469,13.83,8.743c2.379,2.361,8.752,8.043,9.025,15.244
		c0.146,3.989-1.867,6.65-5.078,7.005c-4.381,0.479-8.281-4.286-8.992-9.572C461.371,297.688,458.625,290.504,453.82,285.462z"/>
	<g>
		<g>
			<g>
				<path fill="#FFFFFF" d="M388.158,333.74c-0.926,15.471-14.227,27.25-29.702,26.321c-15.466-0.936-27.256-14.229-26.317-29.697
					c0.933-15.472,14.229-27.263,29.701-26.323C377.305,304.972,389.096,318.271,388.158,333.74z"/>
				<path fill="#880000" d="M382.562,332.555c-0.27,4.64-4.262,8.184-8.911,7.901c-4.637-0.281-8.177-4.273-7.893-8.916
					c0.282-4.636,4.268-8.182,8.917-7.893C379.309,323.924,382.842,327.913,382.562,332.555z"/>
			</g>
			<g>
				<path fill="#FFFFFF" d="M446.447,333.744c-0.939,15.467-14.238,27.257-29.705,26.318c-15.459-0.93-27.252-14.234-26.316-29.692
					c0.936-15.481,14.225-27.261,29.699-26.331C435.594,304.977,447.385,318.274,446.447,333.744z"/>
				<path fill="#880000" d="M437.811,332.555c-0.271,4.64-4.262,8.184-8.91,7.901c-4.637-0.281-8.178-4.273-7.895-8.916
					c0.283-4.636,4.27-8.182,8.916-7.893C434.559,323.924,438.092,327.913,437.811,332.555z"/>
			</g>
		</g>
		<path fill="#790000" d="M392.424,361.308c-0.1,1.729-1.588,3.048-3.318,2.942c-1.729-0.103-3.049-1.592-2.941-3.321
			c0.105-1.727,1.59-3.047,3.322-2.939C391.211,358.091,392.527,359.578,392.424,361.308z"/>
	</g>
</g>
</svg>
