<svg version="1.1" xmlns="http://www.w3.org/2000/svg" xmlns:xlink="http://www.w3.org/1999/xlink" viewBox="0 0 768 430" style="enable-background:new 0 0 768 430;" xml:space="preserve"><g id="water"> <g>  <path style="fill:#DDE4D0;" d="M418.172,165.403c5.127-1.878,8.652,3.045,5.709,4.231c-1.632,0.635-3.222,1.313-4.701,2.108 c0.349,4.592,0.893,9.061,3.497,12.229c9.824,3.287,20.445,3.28,32.558-2.892c1.886-4.021,2.469-8.107,1.146-12.29 c-1.069-3.374-7.676-2.365-8.025-3.615c-5.067-19.979-17.935-25.61-31.413-30.123c-9.509-3.578-5.46-18.907-8.254-19.038 c2.444-0.216,0.845-1.172,1.262-3.976l-2.866-1.084c-0.367-2.169,0.503-4.759-0.803-5.784c-1.255-0.525-2.974-0.807-3.096-1.928 l-0.343-11.327c-1.937-1.2-2.524-1.246-3.77-1.433l0.215-1.459l2.332,0.17c0.434-3.019-0.126-3.917-1.415-4.749l-4.127-1.688 l0.917-6.747l3.21-0.482l18.344,4.819l0.916-11.325l-20.406,0.722l-13.069-1.687L363.747,63l-0.917,11.325l21.095-0.24 l2.981,1.687l-0.324,8.025c-1.727,0.305-2.846,0.946-4.571,2.039c0.11,1.521,0.09,1.406,0.017,2.451l1.855,1.24l0.04,1.406 c-0.838,0.398-3.037,1.069-2.879,3.366l0.406,9.883c-1.387,0.437-2.839,0.714-3.811,2.13l-0.242,4.43 c-1.232,0.531-3.038,0.559-3.082,2.13c0.8,9.632-0.437,25.016-11.754,24.708l-15.321-0.425l-1.621-1.364l-12.16-0.426 c-0.821-2.86-0.192-7.55-2.513-8.52h-3.892c-0.987,1.241-1.787,4.254-2.971,3.63v0h-10.776 c-10.069,11.35-10.353,27.02-3.439,37.834l14.258,1.034c0.456,5.362,3.194,2.846,5.002,3.544c1.224-2.044,2.445-3.912,3.668-7.711 l12.008,0.017l2.234-1.983l16.941,1.004C378.223,171.037,394.934,172.578,418.172,165.403z"/>  <path style="fill:#DDE4D0;" d="M452.265,221.522c-4.075-4.795-7.808-9.897-10.173-15.661l-0.788-1.672 c-2.863,6.047-6.669,11.595-11.016,16.761l-1.942,2.629c-0.609,0.933-1.141,1.921-1.657,2.915 c-0.511,1.234-0.776,2.577-0.986,3.869v1.942c0.3,6.612,5.681,12.978,12.287,14.115c0.622,0.245,1.359,0.239,2,0.343h2.343 c0.64-0.104,1.377-0.098,2-0.343c6.126-1.08,11.406-6.687,12.114-12.857c0.155-0.366,0.047-0.852,0.172-1.201v-1.886 c-0.143-1.143-0.4-2.319-0.811-3.411c-0.601-1.292-1.349-2.48-2.115-3.657C453.178,222.797,452.704,222.168,452.265,221.522z"/>  <path style="fill:#DDE4D0;" d="M477.744,287.304c-6.376,0-12.752-4.831-19.128-4.831h-0.001c-6.376,0-12.752,4.831-19.128,4.831 s-12.751-4.831-19.127-4.831c-6.377,0-12.753,4.831-19.128,4.831h-0.001c-6.376,0-12.752-4.831-19.128-4.831 s-12.752,4.831-19.128,4.831v6.995v0.001c6.376,0,12.752-4.831,19.128-4.831s12.752,4.83,19.128,4.831 c6.376,0,12.752-4.831,19.128-4.831h0.001c6.376,0,12.751,4.83,19.127,4.831c6.376,0,12.752-4.831,19.128-4.831 c6.377,0,12.752,4.83,19.128,4.831h0.001c6.376,0,12.752-4.831,19.127-4.831c6.376,0,12.752,4.83,19.128,4.831H516v-6.996 c-6.376,0-12.753-4.831-19.129-4.831C490.496,282.473,484.12,287.304,477.744,287.304z"/>  <path style="fill:#DDE4D0;" d="M477.744,299.745c-6.377,0-12.752-4.832-19.128-4.832h-0.001c-6.376,0-12.752,4.832-19.128,4.832 s-12.751-4.832-19.127-4.832h-0.001c-6.376,0-12.752,4.832-19.127,4.832h-0.001c-6.376,0-12.752-4.832-19.128-4.832 s-12.752,4.832-19.128,4.832v6.995c6.376,0,12.752-4.831,19.128-4.831s12.752,4.831,19.128,4.831s12.752-4.831,19.128-4.831 c6.377,0,12.752,4.831,19.128,4.831s12.752-4.831,19.128-4.831s12.752,4.831,19.128,4.831c6.377,0,12.753-4.831,19.128-4.831 c6.376,0,12.752,4.831,19.128,4.831v-6.995c-6.376,0-12.752-4.832-19.128-4.832C490.496,294.913,484.12,299.745,477.744,299.745z" />  <path style="fill:#DDE4D0;" d="M496.872,270.035L496.872,270.035c-6.376,0-12.752,4.831-19.128,4.831s-12.752-4.831-19.128-4.831 c-6.377,0-12.753,4.831-19.129,4.831s-12.751-4.831-19.127-4.831c-6.377,0-12.753,4.831-19.128,4.831h-0.001 c-6.376,0-12.752-4.831-19.128-4.831s-12.752,4.831-19.128,4.831v6.995v0.001c6.376,0,12.752-4.832,19.128-4.832 s12.752,4.831,19.128,4.832c6.376,0,12.752-4.832,19.128-4.832h0.001c6.376,0,12.751,4.831,19.127,4.832 c6.376,0,12.752-4.832,19.128-4.832h0.001c6.376,0,12.751,4.831,19.127,4.832h0.001c6.376,0,12.752-4.832,19.127-4.832 c6.376,0,12.752,4.831,19.129,4.832v-6.996C509.624,274.866,503.248,270.035,496.872,270.035z"/> </g></g><g id="Layer_1"></g></svg>