<svg version="1.1" id="Layer_1" xmlns="http://www.w3.org/2000/svg" xmlns:xlink="http://www.w3.org/1999/xlink" viewBox="0 0 768 430" enable-background="new 0 0 768 430" xml:space="preserve">
<g>
	<g>
		<path fill-rule="evenodd" clip-rule="evenodd" d="M540.762,35.57c23.805,0.606-9.511,42.789-14.445,50.836
			c9.98-2.758,82.665-21.12,83.785-8.343c1.104,12.542-10.306,29.308-16.257,39.734c-7.718,13.522-17.796,25.455-28.856,36.355
			c-20.529,20.232-43.893,37.809-71.136,47.918c-7.234,2.685-14.796,4.723-22.386,6.107c-3.238,0.592-6.497,1.042-9.775,1.351
			c0.457,3.939,0.573,7.926,0.442,11.887c-0.15,4.557-4.158,15.485-0.975,18.705c3.858,3.901,10.259,3.983,14.956,6.375
			c58.362,29.702,20.11,110.308-21.208,135.337c-11.189,6.778-23.46,12.844-36.042,16.525c-10.222,2.991-22.739,1.971-32.238,6.499
			c-12.284,5.855-26.984,6.877-40.15,3.265c-9.524-2.613-26.279-10.188-27.891-21.551c12.082,7.162,29.321,9.332,42.566,4.317
			c7.846-2.97,7.61-4.444,4.045-11.156c-3.646-6.866-6.48-14.158-8.297-21.722c-7.035-29.282-0.06-66.254,23.438-86.684
			c-9.828-3.917-17.446-11.195-22.82-20.203c-4.167,9.013-10.752,16.447-18.295,22.792c0.318,3.458-0.57,6.931-3.511,9.036
			c-5.62,4.023-5.192,2.031-7.229,9.401c-4.363,15.782-34.187,8.563-35.666-4.925c-0.319-2.924-2.02-7.529-1.963-10.353
			c0.104-5.071,4.591-6.412,5.325-11.271c1.373-9.096,9.744-8.594,16.351-5.518c3.286,1.53,4.366-0.271,6.737-2.239
			c4.854-4.028,7.642,2.114,12.399-2.416c7.265-6.918,12.372-15.733,15.571-25.193c-22.649,6.351-50.564,13.694-65.795-9.325
			c-8.93-13.496-11.229-29.269-8.407-45.013c1.085-6.053,8.213-17.38,3.086-20.445c-7.829-4.68-17.365-6.963-26.458-6.639
			c3.047,7.286,5.46,16.455-1.948,22.066c-6.982,5.289-15.247,0.091-17.965-7.065c-6.625-17.443,3.392-30.589,21.317-28.593
			c7.47,0.832,14.822,3.077,21.661,6.159c3.005,1.354,5.944,2.894,8.696,4.713c5.909,3.906,4.825,1.765,10.767-2.183
			c3.728-2.477,7.769-4.45,11.857-6.25c6.27-2.761,3.703-4.502,0.809-9.896c-3.71-6.914-9.266-16.012-17.032-18.879
			c2.323,11.086-6.717,25.459-19.351,20.574c-9.92-3.84-6.531-22.749-3.5-29.76c13.519-31.279,45.898,18.043,50.714,31.995
			c9.929-6.047,11.584,1.913,19.594,2.495c4.814,0.35,9.448,0.844,13.993,2.6c5.622,2.171,7.224-1.513,12.787,0.045
			c8.084,2.263,13.162-2.465,17.437-8.804c6.642-9.847,14.886-18.516,23.738-26.394c19.499-17.355,40.105-31.689,63.872-42.54
			C489.16,49.228,515.809,34.935,540.762,35.57z M407.74,154.346c24.867-29.63,66.803-48.497,102.341-61.531
			c7.643-2.803,11.979-3.241,16.788-9.954c5.717-7.989,11.386-16.01,15.71-24.864c1.872-3.832,8.248-14.282,4.782-18.467
			c-4.714-5.693-21.76-0.087-27.33,1.172c-37.775,8.541-76.028,28.879-105.643,53.515c-14.655,12.192-29.162,25.518-37.995,42.701
			c3.553,5.471,11.439,1.679,15.021,7.81c1.688,2.891,3.174,1.579,5.775,2.67c5.159,2.162,4.311,6.516,6.85,10.19
			C405.743,157.036,406.977,155.956,407.74,154.346C410.646,150.883,406.725,155.555,407.74,154.346z M605.717,75.449
			c-16.615,0.726-33.185,2.715-49.53,5.766c-7.78,1.452-15.517,3.154-23.175,5.154c-10.513,2.744-13.237,9.187-20.023,17.302
			c-23.056,27.568-52.206,43.89-80.393,65.146c8.062,6.392,14.91,14.212,20.268,22.991c2.333,3.823,4.388,7.814,6.18,11.918
			c2.974,6.811,9.295,3.567,15.932,2.24c22.252-4.447,44.744-15.6,62.601-29.506c16.902-13.163,33.834-28.559,46.346-46.038
			c6.056-8.459,11.446-17.562,15.911-26.958C600.997,101.012,611.693,75.189,605.717,75.449
			C577.713,76.672,606.402,75.419,605.717,75.449z M522.174,89.818c-7.141-0.679-20.494,7.189-27.049,9.964
			c-12.442,5.268-24.508,11.38-36.4,17.78c-19.239,10.353-38.49,22.305-51.729,40.1c6.019,0.995,11.843,2.915,17.249,5.742
			c7.441,3.89,7.217,4.162,14.708-0.34c10.192-6.124,20.195-12.578,29.805-19.585C489.261,128.526,507.877,110.885,522.174,89.818
			C522.035,89.805,498.83,124.216,522.174,89.818z M301.772,109.377c-6.082-7.546-12.982-15.489-23.124-17.056
			c-10.296-1.596-14.869,12.015-14.928,20.161c-0.058,7.966,2.373,18.39,12.765,15.545c12.531-3.431,10.07-17.809,7.896-27.105
			c1.056,1.663,1.872,3.435,2.45,5.318c3.958,1.656,7.416,4.307,10.366,7.389c5.21,5.443,8.774,11.892,11.575,18.802
			c1.936,4.776,6.445,5.306,4.441-1.437C310.858,123.074,306.952,115.805,301.772,109.377
			C296.407,102.72,308.05,117.167,301.772,109.377z M324.2,131.449c-12.665-0.19-11.886,28.959-22.734,24.904
			c2.643-3.171,5.791-2.761,7.781-6.974c1.876-3.971,2.519-8.374,4.255-12.4c-32.29,7.798-49.091,41.756-35.899,72.875
			c5.953,14.042,17.761,27.401,34.609,25.392c16.249-1.937,30.376-18.061,28.364-34.459c-4.265,1.327-2.25,8.555-5.777,9.393
			c0.467-3.916,1.376-8.84,4.87-11.292c3.27-2.294,10.422-1.437,10.686,3.691c-2.479-1.86-4.959-4.058-8.377-3.139
			c1.469,13.674-5.571,25.09-16.501,32.707c24.807,0.451,46.241-15.523,50.616-40.302c4.85-27.471-12.53-54.193-41.369-55.356
			c1.416,3.783,3.717,7.017,4.001,11.185C334.984,141.563,333.175,131.584,324.2,131.449
			C322.119,131.417,333.355,131.587,324.2,131.449z M365.817,141.189c-1.97-2.037-8.358-3.926-10.109-0.554
			c16.847,9.145,24.198,30.21,22.078,48.482c-1.072,9.24-4.401,18.195-10.127,25.569c-4.812,6.197-13.325,8.823-17.76,14.528
			c1.396,2.833,5.061,4.356,8.046,4.377c2.346-0.351,4.539-1.126,6.577-2.328c1.9,1.671,4.109,2.438,6.626,2.301
			c3.235-0.171,6.664-1.86,8.423-4.657c3.814-0.018,7.994-0.968,9.917-4.649c2.483-4.757,2.446-1.266,6.539-3.969
			c4.694-3.101,1.479-5.844,2.597-10.279c2.217-8.801,11.905-9.044,11.148-19.728c-0.438-6.191,0.866-2.869,1.848-7.961
			c0.749-3.885-1.58-5.607-1.908-8.94c-0.839-8.545-4.717-12.587-8.212-19.931c-1.248-2.622-3.512-4.381-6.372-4.932
			c-5.313-1.025-3.59-4.675-8.97-6.481c-2.128-0.692-4.273-0.738-6.434-0.139c-0.963-1.562-2.327-2.603-4.092-3.12
			C372.428,137.756,367.92,138.226,365.817,141.189C363.881,139.187,368.693,137.138,365.817,141.189z M284.799,151.354
			c-0.491-6.454-23.298-12.174-27.516-13.037c-10.32-2.112-23.799-3.439-26.838,9.187c-1.78,7.394-0.457,21.367,8.849,23.378
			c18.176,3.929,8.45-19.105,6.122-26.087c2.008,3.665,14.493,2.514,18.419,3.551c5.708,1.507,12.857,3.583,17.1,7.93
			C281.396,154.5,284.945,153.264,284.799,151.354C284.763,150.886,284.882,152.441,284.799,151.354z M410.848,168.197
			c1.279,10.101,3.602,24.649-3.475,33.754c3.074,0.737,5.051,3.589,8.025,4.587c3.531,1.184,7.442,0.97,11.098,1.285
			c10.574,0.91,21.903,2.162,32.4-0.045c-7.339-22.939-27.938-45.025-52.482-48.479C408.52,162.103,410.394,164.596,410.848,168.197
			C411.008,169.461,410.344,164.202,410.848,168.197z M425.572,226.153c-1.71-5.842-12.037-27.185-21.354-22.333
			c-11.666,6.074,1.923,14.426,5.01,20.51c2.199,4.335,3.396,9.12,3.887,13.939c0.599,5.888-3.509,17.738,3.176,18.508
			C432.896,258.689,428.581,236.434,425.572,226.153C422.6,215.998,428.062,234.661,425.572,226.153z M439.184,264.947
			c4.753-0.339,11.655-12.505,13.731-16.02c4.536-7.681,6.718-16.322,7.379-25.168c0.177-2.375,1.568-15.001-3.007-14.656
			c-13.486,1.021-27.135,0.613-40.541-1.166c7.581,8.429,11.526,19.495,12.202,30.722c0.346,5.732-2.093,11.675,1.875,15.389
			C435.592,258.513,429.586,265.636,439.184,264.947C440.814,264.831,437.045,265.101,439.184,264.947z M400.668,216.547
			c-2.165,3.645-4.988,6.641-9.54,6.701c-1.713,4.178-4.373,6.481-8.988,6.725c-3.587,0.189-4.449,3.617-7.982,4.551
			c-2.287,0.561-4.55,0.484-6.791-0.229c-4.92-1.394-6.535,0.907-11.683,0.772c1.947,23.19,20.183,34.995,41.566,38.743
			c1.414-4.41,5.093-6.898,7.979-10.238c-3.806-5.812,1.941-9.295,6.359-11.032C414.041,239.847,411.549,224.788,400.668,216.547
			C398.564,220.088,409.613,223.322,400.668,216.547z M440.529,266.348c3.274,7.453,4.871,20.944-2.408,26.618
			c-6.367,4.963-17.193,10.031-24.871,5.894c-12.885,8.269-15.014-9.304-15.531-16.746c-0.545-7.875-12.121-13.573-18.677-7.486
			c-16.229,15.068-22.646,39.31-22.896,60.712c-0.132,11.372,1.514,22.855,5.729,33.461c1.797,4.521,4.054,8.859,6.774,12.893
			c2.926,4.34,7.693,3.704,12.016,6.466c3.577,2.286,6.134,5.714,7.35,9.777c1.78,5.949,9.926,2.807,15.585,2.006
			c12.252-1.733,23.417-5.501,34.43-11.074c20.548-10.398,38.045-22.432,50.5-42.283c12.082-19.258,20.079-45.553,12.328-67.884
			c-3.558-10.249-10.208-20.146-19.065-26.522c-6.098-4.391-19.854-5.221-23.482-12.06
			C454.29,250.058,447.883,258.634,440.529,266.348C443.238,272.513,447.572,258.959,440.529,266.348z M329.993,259.897
			c-4.027,3.471-4.45,6.47,0.015,10.801c6.502,6.303,13.485-2.494,17.423-7.209c5.687-6.807,16.984-27.968,1.594-31.819
			C344.71,242.18,338.686,252.411,329.993,259.897C328.887,260.851,338.074,252.938,329.993,259.897z M405.641,261.493
			c2.174,8.765,22.579,8.671,25.636,0.664c1.798-4.709-0.874-8.552-5.053-5.685c-4.386,3.009-14.866,3.621-15.239-2.085
			C407.003,254.115,404.758,257.936,405.641,261.493C407.053,267.188,404.637,257.445,405.641,261.493z M438.811,266.605
			c-5.698-4.728-10.07,1.867-15.929,2.527c-5.494,0.619-12.381-0.292-16.747-3.991c-4.173,2.711-11.648,9.79-7.36,15.384
			c1.798,2.347,5.278,2.712,7.964,2.459c1.303-3.421-0.915-7.035,0.365-10.34c2.127,2.088,2.01,15.15-2.299,15.022
			c-0.28-0.868-0.021-1.533,0.774-1.994c0.809-0.967-6.222-2.243-6.913-2.41c-0.482,6.848,1.489,15.899,10.3,15.14
			c8.765-0.756,5.358-9.068,9.628-13.214c-0.005,4.364-1.334,8.913-3.754,12.554c9.862,7.14,12.618-6.786,13.756-13.067
			c0.945,3.944-0.106,8.724-1.826,12.315c9.84-0.207,4.651-9.843,9.182-13.935c0.631,3.481-0.721,6.857-0.994,10.279
			C443.571,291.938,444.46,271.287,438.811,266.605C437.125,265.207,443.922,270.841,438.811,266.605z M318.733,260.291
			c-14.907,15.256,21.688,30.982,18.522,14.283c-6.42-1.752-15.873-7.047-9.82-14.5
			C324.873,258.229,321.094,257.877,318.733,260.291C312.645,266.521,320.639,258.342,318.733,260.291z M299.549,261.614
			c-3.23,3.647-1.961,14.231,2.633,16.558c6.707,3.394,7.382-7.584,5.122-11.363c1.161,1.491,1.77,3.183,1.828,5.075
			c0.675,3.804,3.197,3.156,4.94,5.954c-1.73-0.021-3.305-0.525-4.724-1.515c-4.767,5.514,4.489,14.482,9.15,14.858
			c2.952-3.445,14.988-3.277,6.361-8.159c-5.853-3.312-9.078-8.949-9.316-15.641C315.354,262.006,304.516,256.002,299.549,261.614
			C295.914,265.719,303.632,257.001,299.549,261.614z M296.458,271.689c-8.587,3.863-0.031,14.854,6.347,15.479
			c5.405,0.53,6.277-3.405,4.312-7.462C300.79,281.703,299.166,275.81,296.458,271.689
			C285.746,276.509,298.747,275.173,296.458,271.689z M298.185,293.242c2.981,1.769,13.484,3.644,14.359-1.789
			c0.979-6.078-13.333-1.899-17.784-6.589C294.602,288.114,295.116,291.421,298.185,293.242
			C302.664,295.898,295.121,291.424,298.185,293.242z M324.637,289.023c-7.309-1.357-2.291,5.94-2.509,8.438
			C325.341,297.091,329.591,289.943,324.637,289.023C322.35,288.599,329.215,289.874,324.637,289.023z M320.679,297.109
			c3.7-9.794-13.105-0.634-14.806-0.16C308.265,299.915,318.97,301.633,320.679,297.109
			C321.954,293.734,319.14,301.185,320.679,297.109z M364.904,391.584c-11.867,6.447-32.245,4.453-43.626-2.1
			c12.906,13.991,28.177,20.306,47.633,18.77c4.751-0.375,19.937-2.208,18.13-9.58c-1.067-4.352-4.527-7.493-8.228-9.76
			C371.817,384.631,371.031,388.258,364.904,391.584C362.551,392.862,367.479,390.186,364.904,391.584z"/>
		
			<linearGradient id="SVGID_1_" gradientUnits="userSpaceOnUse" x1="368.4609" y1="89.5127" x2="530.6514" y2="89.5127" gradientTransform="matrix(0.9954 0.0962 -0.0962 0.9954 22.9146 -36.0127)">
			<stop  offset="0" style="stop-color:#00C0E8"/>
			<stop  offset="0.2394" style="stop-color:#1AC6EA"/>
			<stop  offset="0.4997" style="stop-color:#2FCBEC"/>
			<stop  offset="0.7557" style="stop-color:#3CCEED"/>
			<stop  offset="1" style="stop-color:#40CFEE"/>
		</linearGradient>
		<path fill-rule="evenodd" clip-rule="evenodd" fill="url(#SVGID_1_)" d="M404.039,157.587c-1.866-2.701-1.163-5.057-3.666-7.779
			c-3.159-3.437-4.266-1.452-7.549-3.256c-2.454-1.351-2.673-4.32-5.728-5.519c-3.798-1.49-8.158-0.197-10.703-4.116
			c8.833-17.183,23.34-30.509,37.995-42.701c30.639-25.488,71.073-47.02,110.512-54.528c4.797-0.913,18.385-5.082,22.461-0.158
			c3.93,4.745-4.578,18.272-6.771,22.339c-3.978,7.375-8.854,14.189-13.721,20.992c-5.566,7.769-12.91,8.404-21.725,11.814
			c-20.473,7.92-40.26,17.928-59.166,29.063c-8.197,4.829-16.151,10.097-23.502,16.151
			C418.036,143.547,409.396,156.836,404.039,157.587C403.055,156.163,406.16,157.29,404.039,157.587z"/>
		
			<linearGradient id="SVGID_2_" gradientUnits="userSpaceOnUse" x1="427.4697" y1="127.0566" x2="594.3193" y2="127.0566" gradientTransform="matrix(0.9954 0.0962 -0.0962 0.9954 22.9146 -36.0127)">
			<stop  offset="0" style="stop-color:#00C0E8"/>
			<stop  offset="0.1712" style="stop-color:#2ECBEC"/>
			<stop  offset="0.3424" style="stop-color:#53D4EF"/>
			<stop  offset="0.5122" style="stop-color:#71DCF2"/>
			<stop  offset="0.6797" style="stop-color:#86E1F4"/>
			<stop  offset="0.8436" style="stop-color:#92E4F5"/>
			<stop  offset="1" style="stop-color:#96E5F5"/>
		</linearGradient>
		<path fill-rule="evenodd" clip-rule="evenodd" fill="url(#SVGID_2_)" d="M607.611,76.618c4.177,6.428-5.087,21.182-7.779,26.847
			c-4.465,9.396-9.855,18.498-15.911,26.958c-12.512,17.479-29.443,32.875-46.346,46.038
			c-16.658,12.973-37.511,23.591-58.089,28.516c-4.567,1.093-9.197,1.922-13.859,2.489c-7.602,0.925-7.243-5.792-10.543-11.817
			c-5.654-10.325-13.256-19.51-22.488-26.831c26.869-20.264,54.89-35.854,77.377-61.618c5.134-5.881,9.953-12.035,14.42-18.437
			c10.38-3.065,20.929-5.546,31.566-7.533C563.564,79.808,603.016,69.532,607.611,76.618
			C608.625,78.178,606.873,75.479,607.611,76.618z"/>
		
			<linearGradient id="SVGID_3_" gradientUnits="userSpaceOnUse" x1="400.916" y1="120.3145" x2="509.0293" y2="120.3145" gradientTransform="matrix(0.9954 0.0962 -0.0962 0.9954 22.9146 -36.0127)">
			<stop  offset="0" style="stop-color:#008FC8"/>
			<stop  offset="0.2807" style="stop-color:#0093CB"/>
			<stop  offset="0.5748" style="stop-color:#00A0D3"/>
			<stop  offset="0.8741" style="stop-color:#00B4E1"/>
			<stop  offset="1" style="stop-color:#00C0E8"/>
		</linearGradient>
		<path fill-rule="evenodd" clip-rule="evenodd" fill="url(#SVGID_3_)" d="M431.229,167.626c-7.33-5.009-15.446-8.513-24.232-9.965
			c13.238-17.794,32.489-29.747,51.729-40.1c10.392-5.593,20.912-10.964,31.705-15.746c7.642-3.386,23.301-12.801,31.744-11.999
			C499.32,123.495,465.975,147.43,431.229,167.626C424.609,163.104,466.174,147.313,431.229,167.626z"/>
		
			<linearGradient id="SVGID_4_" gradientUnits="userSpaceOnUse" x1="368.4609" y1="89.5127" x2="530.6514" y2="89.5127" gradientTransform="matrix(0.9954 0.0962 -0.0962 0.9954 22.9146 -36.0127)">
			<stop  offset="0" style="stop-color:#00C0E8"/>
			<stop  offset="0.2394" style="stop-color:#1AC6EA"/>
			<stop  offset="0.4997" style="stop-color:#2FCBEC"/>
			<stop  offset="0.7557" style="stop-color:#3CCEED"/>
			<stop  offset="1" style="stop-color:#40CFEE"/>
		</linearGradient>
		<path fill-rule="evenodd" clip-rule="evenodd" fill="url(#SVGID_4_)" d="M404.039,157.587c-1.866-2.701-1.163-5.057-3.666-7.779
			c-3.159-3.437-4.266-1.452-7.549-3.256c-2.454-1.351-2.673-4.32-5.728-5.519c-3.798-1.49-8.158-0.197-10.703-4.116
			c8.833-17.183,23.34-30.509,37.995-42.701c30.639-25.488,71.073-47.02,110.512-54.528c4.797-0.913,18.385-5.082,22.461-0.158
			c3.93,4.745-4.578,18.272-6.771,22.339c-3.978,7.375-8.854,14.189-13.721,20.992c-5.566,7.769-12.91,8.404-21.725,11.814
			c-20.473,7.92-40.26,17.928-59.166,29.063c-8.197,4.829-16.151,10.097-23.502,16.151
			C418.036,143.547,409.396,156.836,404.039,157.587C403.055,156.163,406.16,157.29,404.039,157.587z"/>
		
			<linearGradient id="SVGID_5_" gradientUnits="userSpaceOnUse" x1="427.4697" y1="127.0566" x2="594.3193" y2="127.0566" gradientTransform="matrix(0.9954 0.0962 -0.0962 0.9954 22.9146 -36.0127)">
			<stop  offset="0" style="stop-color:#00C0E8"/>
			<stop  offset="0.1712" style="stop-color:#2ECBEC"/>
			<stop  offset="0.3424" style="stop-color:#53D4EF"/>
			<stop  offset="0.5122" style="stop-color:#71DCF2"/>
			<stop  offset="0.6797" style="stop-color:#86E1F4"/>
			<stop  offset="0.8436" style="stop-color:#92E4F5"/>
			<stop  offset="1" style="stop-color:#96E5F5"/>
		</linearGradient>
		<path fill-rule="evenodd" clip-rule="evenodd" fill="url(#SVGID_5_)" d="M607.611,76.618c4.177,6.428-5.087,21.182-7.779,26.847
			c-4.465,9.396-9.855,18.498-15.911,26.958c-12.512,17.479-29.443,32.875-46.346,46.038
			c-16.658,12.973-37.511,23.591-58.089,28.516c-4.567,1.093-9.197,1.922-13.859,2.489c-7.602,0.925-7.243-5.792-10.543-11.817
			c-5.654-10.325-13.256-19.51-22.488-26.831c26.869-20.264,54.89-35.854,77.377-61.618c5.134-5.881,9.953-12.035,14.42-18.437
			c10.38-3.065,20.929-5.546,31.566-7.533C563.564,79.808,603.016,69.532,607.611,76.618
			C608.625,78.178,606.873,75.479,607.611,76.618z"/>
		
			<linearGradient id="SVGID_6_" gradientUnits="userSpaceOnUse" x1="400.916" y1="120.3145" x2="509.0293" y2="120.3145" gradientTransform="matrix(0.9954 0.0962 -0.0962 0.9954 22.9146 -36.0127)">
			<stop  offset="0" style="stop-color:#008FC8"/>
			<stop  offset="0.2807" style="stop-color:#0093CB"/>
			<stop  offset="0.5748" style="stop-color:#00A0D3"/>
			<stop  offset="0.8741" style="stop-color:#00B4E1"/>
			<stop  offset="1" style="stop-color:#00C0E8"/>
		</linearGradient>
		<path fill-rule="evenodd" clip-rule="evenodd" fill="url(#SVGID_6_)" d="M431.229,167.626c-7.33-5.009-15.446-8.513-24.232-9.965
			c13.238-17.794,32.489-29.747,51.729-40.1c10.392-5.593,20.912-10.964,31.705-15.746c7.642-3.386,23.301-12.801,31.744-11.999
			C499.32,123.495,465.975,147.43,431.229,167.626C424.609,163.104,466.174,147.313,431.229,167.626z"/>
		
			<linearGradient id="SVGID_7_" gradientUnits="userSpaceOnUse" x1="368.4609" y1="89.5127" x2="530.6514" y2="89.5127" gradientTransform="matrix(0.9954 0.0962 -0.0962 0.9954 22.9146 -36.0127)">
			<stop  offset="0" style="stop-color:#00C0E8"/>
			<stop  offset="0.2394" style="stop-color:#1AC6EA"/>
			<stop  offset="0.4997" style="stop-color:#2FCBEC"/>
			<stop  offset="0.7557" style="stop-color:#3CCEED"/>
			<stop  offset="1" style="stop-color:#40CFEE"/>
		</linearGradient>
		<path fill-rule="evenodd" clip-rule="evenodd" fill="url(#SVGID_7_)" d="M404.039,157.587c-1.866-2.701-1.163-5.057-3.666-7.779
			c-3.159-3.437-4.266-1.452-7.549-3.256c-2.454-1.351-2.673-4.32-5.728-5.519c-3.798-1.49-8.158-0.197-10.703-4.116
			c8.833-17.183,23.34-30.509,37.995-42.701c30.639-25.488,71.073-47.02,110.512-54.528c4.797-0.913,18.385-5.082,22.461-0.158
			c3.93,4.745-4.578,18.272-6.771,22.339c-3.978,7.375-8.854,14.189-13.721,20.992c-5.566,7.769-12.91,8.404-21.725,11.814
			c-20.473,7.92-40.26,17.928-59.166,29.063c-8.197,4.829-16.151,10.097-23.502,16.151
			C418.036,143.547,409.396,156.836,404.039,157.587C403.055,156.163,406.16,157.29,404.039,157.587z"/>
		
			<linearGradient id="SVGID_8_" gradientUnits="userSpaceOnUse" x1="400.916" y1="120.3145" x2="509.0293" y2="120.3145" gradientTransform="matrix(0.9954 0.0962 -0.0962 0.9954 22.9146 -36.0127)">
			<stop  offset="0" style="stop-color:#008FC8"/>
			<stop  offset="0.2807" style="stop-color:#0093CB"/>
			<stop  offset="0.5748" style="stop-color:#00A0D3"/>
			<stop  offset="0.8741" style="stop-color:#00B4E1"/>
			<stop  offset="1" style="stop-color:#00C0E8"/>
		</linearGradient>
		<path fill-rule="evenodd" clip-rule="evenodd" fill="url(#SVGID_8_)" d="M431.229,167.626c-7.33-5.009-15.446-8.513-24.232-9.965
			c13.238-17.794,32.489-29.747,51.729-40.1c10.392-5.593,20.912-10.964,31.705-15.746c7.642-3.386,23.301-12.801,31.744-11.999
			C499.32,123.495,465.975,147.43,431.229,167.626C424.609,163.104,466.174,147.313,431.229,167.626z"/>
		
			<linearGradient id="SVGID_9_" gradientUnits="userSpaceOnUse" x1="253.8198" y1="123.0215" x2="306.5029" y2="123.0215" gradientTransform="matrix(0.9954 0.0962 -0.0962 0.9954 22.9146 -36.0127)">
			<stop  offset="0" style="stop-color:#435869"/>
			<stop  offset="0.257" style="stop-color:#415261"/>
			<stop  offset="0.6563" style="stop-color:#3A434B"/>
			<stop  offset="1" style="stop-color:#333333"/>
		</linearGradient>
		<path fill-rule="evenodd" clip-rule="evenodd" fill="url(#SVGID_9_)" d="M314.314,135.151c-5.256,3.793-7.511-7.789-9.388-11.01
			c-2.905-4.985-6.41-9.749-10.876-13.455c-2.186-1.84-4.593-3.322-7.219-4.446c-0.578-1.883-1.395-3.656-2.45-5.318
			c2.247,9.608,4.141,27.755-11.139,27.51c-11.632-0.186-10.698-18.065-7.749-25.598C278.407,69.853,310.84,120.346,314.314,135.151
			C313.521,135.724,311.975,125.182,314.314,135.151z"/>
		
			<linearGradient id="SVGID_10_" gradientUnits="userSpaceOnUse" x1="270.3008" y1="190.1831" x2="373.627" y2="190.1831" gradientTransform="matrix(0.9954 0.0962 -0.0962 0.9954 22.9146 -36.0127)">
			<stop  offset="0" style="stop-color:#FFF200"/>
			<stop  offset="0.6054" style="stop-color:#FFDC00"/>
			<stop  offset="1" style="stop-color:#FFD400"/>
		</linearGradient>
		<path fill-rule="evenodd" clip-rule="evenodd" fill="url(#SVGID_10_)" d="M338.724,147.674c-0.284-4.168-2.585-7.402-4.001-11.185
			c26.983,1.088,44.734,24.918,41.949,51.224c-2.819,26.642-24.567,44.919-51.196,44.435c10.93-7.617,17.97-19.033,16.501-32.707
			c3.418-0.919,5.898,1.279,8.377,3.139c-0.264-5.128-7.416-5.986-10.686-3.691c-3.494,2.452-4.403,7.376-4.87,11.292
			c3.526-0.838,1.512-8.066,5.777-9.393c2.012,16.398-12.115,32.522-28.364,34.459c-16.848,2.009-28.656-11.35-34.609-25.392
			c-13.192-31.119,3.609-65.077,35.899-72.875c-1.736,4.026-2.379,8.429-4.255,12.4c-1.99,4.213-5.139,3.802-7.781,6.974
			c9.65,3.607,11.31-20.193,17.306-23.401C330.438,126.709,334.199,140.281,338.724,147.674
			C338.413,143.104,335.431,142.293,338.724,147.674z M323.864,150.261c-11.666,6.232-2.587,39.629-25.379,30.366
			c1.006,1.515,2.444,2.218,4.314,2.11c4.679,0.618,3.337,3.994,5.666,7.587c1.358,2.063,3.036,3.822,5.033,5.276
			c8.054,5.945,0.25,0.262,2.813,4.325c7.29-8.871,10.737-10.562,22.464-11.168c-0.035-2.577-4.507-0.767-5.772-1.617
			c2.394-11.055,0.062-25.157-13.55-26.295c1.191-2.949,2.087-8.94,6.197-9.352c2.226-0.223,8.201,5.155,8.405,5.047
			C332.94,152.785,328.16,147.967,323.864,150.261C320.672,151.966,327.92,148.095,323.864,150.261z"/>
		
			<linearGradient id="SVGID_11_" gradientUnits="userSpaceOnUse" x1="378.1055" y1="236.1055" x2="378.1055" y2="139.7847" gradientTransform="matrix(0.9954 0.0962 -0.0962 0.9954 22.9146 -36.0127)">
			<stop  offset="0" style="stop-color:#435869"/>
			<stop  offset="0.257" style="stop-color:#415261"/>
			<stop  offset="0.6563" style="stop-color:#3A434B"/>
			<stop  offset="1" style="stop-color:#333333"/>
		</linearGradient>
		<path fill-rule="evenodd" clip-rule="evenodd" fill="url(#SVGID_11_)" d="M379.724,141.898c8.321-2.388,9.671,5.515,15.403,6.62
			c7.045,1.358,6.556,9.078,10.899,12.877c4.688,4.101,3.493,10.09,5.269,15.314c0.835,2.454,0.822,5.791-0.566,8.065
			c-2.311,3.783-0.03,8.269-2.023,12.957c-2.823,6.636-11.025,6.674-10.454,15.724c0.214,3.387,1.32,4.491-2.225,6.833
			c-1.713,1.031-3.564,1.361-5.556,0.991c-0.304,2.018-1.185,3.73-2.641,5.138c-2.222,2.009-5.393,2.476-8.26,2.489
			c-1.759,2.797-5.188,4.486-8.423,4.657c-4.875,0.258-4.922-3.13-9.604-0.888c-3.833,1.835-9.641,0.609-11.646-3.462
			c3.656-4.702,11.225-7.111,15.486-11.817c6.066-6.698,10.009-15.069,11.728-23.916c3.776-19.434-3.139-42.931-21.403-52.846
			c2.238-4.309,9.099,0.586,11.962-1.118C371.288,137.362,377.513,137.898,379.724,141.898
			C385.152,140.34,377.191,137.317,379.724,141.898z"/>
		
			<linearGradient id="SVGID_12_" gradientUnits="userSpaceOnUse" x1="224.0049" y1="167.8169" x2="277.5469" y2="167.8169" gradientTransform="matrix(0.9954 0.0962 -0.0962 0.9954 22.9146 -36.0127)">
			<stop  offset="0" style="stop-color:#435869"/>
			<stop  offset="0.257" style="stop-color:#415261"/>
			<stop  offset="0.6563" style="stop-color:#3A434B"/>
			<stop  offset="1" style="stop-color:#333333"/>
		</linearGradient>
		<path fill-rule="evenodd" clip-rule="evenodd" fill="url(#SVGID_12_)" d="M280.935,156.275c-4.243-4.347-11.393-6.422-17.1-7.93
			c-3.927-1.037-16.412,0.113-18.419-3.551c2.329,6.982,12.055,30.016-6.122,26.087c-10.208-2.206-11.024-18.398-8.013-26.05
			c4.552-11.57,21.357-8.001,30.61-5.393c6.109,1.723,12.256,4.224,17.627,7.641C287.021,151.854,282.444,150.475,280.935,156.275
			C278.682,153.967,281.24,155.102,280.935,156.275z"/>
		<path fill-rule="evenodd" clip-rule="evenodd" d="M334.055,156.54c-0.132,0.07-5.013-4.303-5.547-4.531
			c-6.041-2.568-7.465,4.899-9.055,8.835c13.612,1.138,15.944,15.24,13.55,26.295c1.265,0.85,5.737-0.96,5.772,1.617
			c-11.727,0.605-15.174,2.297-22.464,11.168c-0.074-0.801,0.07-1.563,0.432-2.287c-3.286-1.756-6.237-4.162-8.279-7.313
			c-1.394-2.185-2.333-4.551-2.819-7.099c-1.825-0.519-6.429-0.056-7.161-2.598c14.413,5.858,17.003-8.613,19.358-18.455
			C319.725,154.304,329.731,141.975,334.055,156.54C333.237,156.971,332.88,152.583,334.055,156.54z M319.02,163.132
			c-1.568,7.391-2.594,15.592-10.32,18.901c-4.076,1.746,4.814,18.339,11.003,11.367c6.319-7.118,13.515-3.805,13.173-15.439
			C332.644,170.062,327.868,162.161,319.02,163.132C317.402,170.756,331.325,161.782,319.02,163.132z"/>
		
			<linearGradient id="SVGID_13_" gradientUnits="userSpaceOnUse" x1="400.4951" y1="180.7969" x2="457.3945" y2="180.7969" gradientTransform="matrix(0.9954 0.0962 -0.0962 0.9954 22.9146 -36.0127)">
			<stop  offset="0" style="stop-color:#2A3872"/>
			<stop  offset="0.5187" style="stop-color:#16447B"/>
			<stop  offset="1" style="stop-color:#005186"/>
		</linearGradient>
		<path fill-rule="evenodd" clip-rule="evenodd" fill="url(#SVGID_13_)" d="M406.414,159.299
			c24.544,3.454,45.144,25.54,52.482,48.479c-8.904,1.872-18.423,1.116-27.416,0.447c-4.205-0.312-8.516-0.438-12.702-0.968
			c-4.689-0.593-7.11-4.277-11.405-5.307C415.416,191.603,413.94,169.324,406.414,159.299
			C425.367,161.966,408.689,162.33,406.414,159.299z"/>
		<path fill-rule="evenodd" clip-rule="evenodd" fill="#FFFFFF" d="M331.285,187.396c-9.088,1.433-12.552,12.476-20.053,4.222
			c-8.224-9.05-0.218-7.947,3.782-14.895c3.509-6.096,2.183-19.083,12.258-11.541C333.824,170.087,333.953,180.432,331.285,187.396
			C325.189,188.357,335.522,176.337,331.285,187.396z"/>
		
			<linearGradient id="SVGID_14_" gradientUnits="userSpaceOnUse" x1="414.3496" y1="253.6104" x2="414.3496" y2="202.0195" gradientTransform="matrix(0.9954 0.0962 -0.0962 0.9954 22.9146 -36.0127)">
			<stop  offset="0" style="stop-color:#758492"/>
			<stop  offset="0.2742" style="stop-color:#6C7D8B"/>
			<stop  offset="0.7003" style="stop-color:#566979"/>
			<stop  offset="1" style="stop-color:#435869"/>
		</linearGradient>
		<path fill-rule="evenodd" clip-rule="evenodd" fill="url(#SVGID_14_)" d="M426.672,254.21c-3.671,3.285-10.014,3.325-14.34,1.579
			c1.178-7.029,1.543-14.311,0.235-21.351c-0.853-4.593-2.452-9.071-5.005-13.002c-2.077-3.199-8.893-6.792-8.022-10.832
			c3.089-14.336,17.196-1.969,21.366,4.782C427.919,226.738,429.322,241.349,426.672,254.21
			C423.701,256.868,428.855,243.615,426.672,254.21z"/>
		<path fill-rule="evenodd" clip-rule="evenodd" fill="#1A1A1A" d="M432.572,263.249c1.288-4.318,0.205-8.937-4.25-10.786
			c0.86-5.963,1.014-12.045,0.222-18.024c-1.292-9.743-5.191-19.155-11.798-26.5c11.906,1.58,23.985,2.051,35.979,1.451
			c9.365-0.468,8.159,6.462,7.568,14.37c-0.755,10.108-3.57,19.774-9.306,28.199c-2.46,3.614-5.359,6.866-8.208,10.17
			C438.57,267.013,437.42,261.939,432.572,263.249C434.199,257.795,434.621,262.695,432.572,263.249z"/>
		<path fill-rule="evenodd" clip-rule="evenodd" fill="#1A1A1A" d="M411.588,252.539c-9.552,3.757-3.433,8.331-8.572,13.327
			c-2.401,2.335-4.711,4.655-5.766,7.943c-5.051-0.886-10.057-2.142-14.846-3.989c-15.36-5.923-25.33-18.187-26.72-34.754
			c2.949,0.167,5.694-0.485,8.236-1.957c2.167,0.943,4.425,1.535,6.775,1.775c5.031,0.262,5.667-3.062,9.404-4.869
			c3.648-1.764,6.921,0.318,9.686-4.067c2.689-4.267,7.807-4.221,10.884-9.401C411.549,224.788,414.041,239.847,411.588,252.539
			C409.557,253.338,414.658,236.653,411.588,252.539z"/>
		
			<linearGradient id="SVGID_15_" gradientUnits="userSpaceOnUse" x1="366.9263" y1="316.2559" x2="511.2119" y2="316.2559" gradientTransform="matrix(0.9954 0.0962 -0.0962 0.9954 22.9146 -36.0127)">
			<stop  offset="0" style="stop-color:#333333"/>
			<stop  offset="1" style="stop-color:#000000"/>
		</linearGradient>
		<path fill-rule="evenodd" clip-rule="evenodd" fill="url(#SVGID_15_)" d="M458.311,240.118c3.628,6.839,17.385,7.669,23.482,12.06
			c8.857,6.377,15.508,16.273,19.065,26.522c8.215,23.67-1.108,51.479-14.579,71.332c-13.768,20.289-33.953,32.744-55.998,42.555
			c-11.537,5.135-23.968,7.466-36.51,8.408c-8.023,0.603-4.493-3.293-8.553-8.671c-3.471-4.597-9.046-6.82-14.55-7.806
			c-14.551-19.234-17.127-45.568-12.587-68.663c2.201-11.197,6.429-22.074,12.897-31.509c7.093-10.345,10.499-12.962,22.571-9.657
			c9.128,2.498-0.954,20.159,9.846,24.527c4.785,1.936,8.622-0.307,13.282,1.095c4.021,1.209,11.828-1.382,15.303-3.447
			c9.731-5.786,12.52-12.642,10.436-24.035c-1.373-7.51-1.138-6.852,3.962-13.043C451.279,253.836,455.414,247.278,458.311,240.118
			C460.867,244.938,453.986,250.808,458.311,240.118z"/>
		
			<linearGradient id="SVGID_16_" gradientUnits="userSpaceOnUse" x1="345.7529" y1="277.6719" x2="345.7529" y2="235.0625" gradientTransform="matrix(0.9954 0.0962 -0.0962 0.9954 22.9146 -36.0127)">
			<stop  offset="0" style="stop-color:#758492"/>
			<stop  offset="0.2742" style="stop-color:#6C7D8B"/>
			<stop  offset="0.7003" style="stop-color:#566979"/>
			<stop  offset="1" style="stop-color:#435869"/>
		</linearGradient>
		<path fill-rule="evenodd" clip-rule="evenodd" fill="url(#SVGID_16_)" d="M349.025,231.67
			c19.104,4.781-0.571,38.616-12.791,41.175c-8.175,1.713-11.383-8.517-6.242-12.947C338.686,252.411,344.71,242.18,349.025,231.67
			C350.465,232.03,344.393,242.954,349.025,231.67z"/>
		<path fill-rule="evenodd" clip-rule="evenodd" fill="#FFFAA3" d="M410.984,254.388c0.373,5.706,10.854,5.094,15.239,2.085
			c5.515-3.783,6.991,3.657,3.899,7.796c-3.458,4.627-11.606,3.992-16.477,2.753C407.574,265.476,400.408,253.665,410.984,254.388
			C411.051,255.403,407.311,254.137,410.984,254.388z"/>
		<path fill-rule="evenodd" clip-rule="evenodd" fill="#FFFAA3" d="M434.957,293.335c0.273-3.422,1.625-6.798,0.994-10.279
			c-4.53,4.092,0.658,13.728-9.182,13.935c1.72-3.592,2.771-8.371,1.826-12.315c-1.138,6.281-3.894,20.207-13.756,13.067
			c2.42-3.641,3.749-8.189,3.754-12.554c-4.27,4.146-0.863,12.458-9.628,13.214c-8.811,0.76-10.782-8.292-10.3-15.14
			c2.24,0.706,4.514,1.279,6.822,1.718c0.883,0.506-1.489,1.657-0.684,2.687c4.309,0.128,4.426-12.935,2.299-15.022
			c-1.562,4.033,3.388,11.341-3.68,10.271c-6.045-0.916-6.862-6.752-3.964-11.44c6.341-10.258,13.473-1.221,23.422-2.342
			c6.968-0.785,15.829-9.138,18.495,2.66C442.626,277.32,442.869,292.053,434.957,293.335
			C435.182,290.52,443.043,292.024,434.957,293.335z"/>
		<path fill-rule="evenodd" clip-rule="evenodd" fill="#FFFAA3" d="M327.436,260.074c-6.053,7.453,3.4,12.748,9.82,14.5
			c2.271,11.978-13.859,7.717-17.795,1.548C315.626,270.112,316.277,252.036,327.436,260.074
			C326.701,260.979,324.205,257.747,327.436,260.074z"/>
		<path fill-rule="evenodd" clip-rule="evenodd" fill="#FFFAA3" d="M315.681,263.384c-0.448,4.606,0.036,9.453,2.525,13.463
			c1.985,3.196,10.4,6.75,9.476,9.869c-0.633,2.138-11.298,4.192-13.967,3.58c-0.23-3.973-8.744-8.908-4.366-13.973
			c1.418,0.989,2.993,1.494,4.724,1.515c-1.393-1.099-2.767-2.22-4.122-3.363c-1.363-2.383-0.487-5.647-2.646-7.666
			c3.991,6.675-3.158,17.905-7.743,8.059c-1.695-3.642-3.011-9.867-0.013-13.253C303.806,256.805,311.148,261.969,315.681,263.384
			C314.584,274.649,311.127,261.962,315.681,263.384z"/>
		<path fill-rule="evenodd" clip-rule="evenodd" fill="#FFFAA3" d="M307.116,279.707c8.146,16.809-27.159-0.594-10.659-8.018
			C299.166,275.81,300.79,281.703,307.116,279.707C307.807,281.133,300.23,281.88,307.116,279.707z"/>
		<path fill-rule="evenodd" clip-rule="evenodd" fill="#FFFAA3" d="M294.761,284.864c2.735,2.882,7.992,4.801,11.887,3.513
			c2.58-0.853,9.448,0.679,4.914,4.818C304.994,299.194,294.371,292.826,294.761,284.864
			C297.751,288.015,294.586,288.435,294.761,284.864z"/>
		<path fill-rule="evenodd" clip-rule="evenodd" fill="#FFFAA3" d="M322.127,297.462c0.219-2.498-4.8-9.796,2.509-8.438
			C329.591,289.943,325.341,297.091,322.127,297.462C322.358,294.825,325.85,297.032,322.127,297.462z"/>
		<path fill-rule="evenodd" clip-rule="evenodd" fill="#FFFAA3" d="M305.873,296.949c1.701-0.474,18.506-9.634,14.806,0.16
			C318.97,301.633,308.265,299.915,305.873,296.949C309.172,296.031,308.148,299.771,305.873,296.949z"/>
		
			<linearGradient id="SVGID_17_" gradientUnits="userSpaceOnUse" x1="337.8984" y1="398.3848" x2="404.5195" y2="398.3848" gradientTransform="matrix(0.9954 0.0962 -0.0962 0.9954 22.9146 -36.0127)">
			<stop  offset="0" style="stop-color:#758492"/>
			<stop  offset="0.2742" style="stop-color:#6C7D8B"/>
			<stop  offset="0.7003" style="stop-color:#566979"/>
			<stop  offset="1" style="stop-color:#435869"/>
		</linearGradient>
		<path fill-rule="evenodd" clip-rule="evenodd" fill="url(#SVGID_17_)" d="M371.975,386.339
			c6.261,0.648,13.537,6.099,15.066,12.335c1.807,7.372-13.379,9.205-18.13,9.58c-19.456,1.536-34.727-4.778-47.633-18.77
			C337.148,398.621,357.684,396.43,371.975,386.339C377.554,386.917,369.524,388.069,371.975,386.339z"/>
	</g>
	<g>
		
			<linearGradient id="SVGID_18_" gradientUnits="userSpaceOnUse" x1="445.3838" y1="272.377" x2="510.6602" y2="272.377" gradientTransform="matrix(0.9954 0.0962 -0.0962 0.9954 22.9146 -36.0127)">
			<stop  offset="0" style="stop-color:#FFF200"/>
			<stop  offset="1" style="stop-color:#FFD400"/>
		</linearGradient>
		<path fill-rule="evenodd" clip-rule="evenodd" fill="url(#SVGID_18_)" d="M474.484,248.033c-5.007-2.13-13.307-2.51-16.174-7.915
			c-3.457,8.547-8.683,16.163-14.806,23.011c-4.232,4.734-1.854,4.786-0.933,10.623c1.079,6.84-2.907,11.803,3.968,14.408
			c19.712,7.471,38.323,19.928,52.89,35.139C507.885,296.718,503.581,260.41,474.484,248.033
			C468.957,245.682,486.199,253.017,474.484,248.033z"/>
		
			<linearGradient id="SVGID_19_" gradientUnits="userSpaceOnUse" x1="367.1699" y1="351.4033" x2="490.7197" y2="351.4033" gradientTransform="matrix(0.9954 0.0962 -0.0962 0.9954 22.9146 -36.0127)">
			<stop  offset="0" style="stop-color:#FFF200"/>
			<stop  offset="1" style="stop-color:#FFD400"/>
		</linearGradient>
		<path fill-rule="evenodd" clip-rule="evenodd" fill="url(#SVGID_19_)" d="M467.557,368.829
			c-12.057-22.168-33.946-39.311-58.146-46.245c-12.337-3.536-24.438-3.606-37.088-2.287c-12.838,1.34-15.997,1.329-16.174,14.873
			c-0.078,5.938,0.323,11.888,1.324,17.743c0.455,2.676,1.04,5.323,1.755,7.941c1.67,6.097,4.449,2.826,9.817,2.514
			c12.625-0.735,26.511,1.288,38.279,6.01c5.951,2.389,11.54,5.701,16.312,10.003c5.238,4.722,7.095,13.166,13.936,9.719
			C441.975,386.881,470.212,373.718,467.557,368.829C451.703,339.68,467.803,369.282,467.557,368.829z"/>
		<path fill-rule="evenodd" clip-rule="evenodd" fill="#FFF200" d="M386.109,279.567c3.701,0.029,7.402,0.087,11.102,0.198
			c-3.617-11.603-16.874-7.498-23.091,0.34C378.102,279.7,382.107,279.535,386.109,279.567
			C389.86,279.597,382.167,279.535,386.109,279.567z"/>
	</g>
	<path fill-rule="evenodd" clip-rule="evenodd" fill="#FFD400" d="M460.439,216.011c-0.679-11.972-23.431-6.258-32.588-6.934
		c-1.686,2.349-3.501,4.593-5.445,6.733c1.895,3.328,3.375,6.886,4.444,10.562c2.061,7.079,2.581,14.54,1.952,21.868
		C441.625,240.188,452.91,229.215,460.439,216.011C460.225,212.22,453.107,228.869,460.439,216.011z"/>
	<path opacity="0.2" fill-rule="evenodd" clip-rule="evenodd" fill="#FFFFFF" d="M392.943,274.526
		c-11.747-3.148-15.097-0.196-21.965,9.82c-7.368,10.746-11.82,23.34-13.698,36.189c-1.974,13.508-1.618,27.673,2.095,40.86
		c1.379,4.898,3.238,9.665,5.611,14.168c3.677,6.978,5.593,7.994,12.444,10.912C358.437,352.187,362.41,301.111,392.943,274.526
		C392.021,274.279,392.15,275.217,392.943,274.526z"/>
	<path opacity="0.1" fill-rule="evenodd" clip-rule="evenodd" d="M474.484,248.033c-5.007-2.13-13.307-2.51-16.174-7.915
		c-1.649,4.084-4.381,5.631-1.281,9.453c3.053,3.766,6.885,6.852,10.704,9.797c6.268,4.832,13.926,9.408,18.2,16.281
		c11.151,17.92,8.167,42.021-2.571,59.276c-21.275,34.189-57.153,53.954-96.124,60.917c2.224,5.146-0.749,5.699,6.533,5.152
		c4.899-0.368,9.785-0.953,14.622-1.82c10.515-1.886,20.133-5.498,29.637-10.308c17.85-9.032,33.946-19.107,45.925-35.532
		C505.412,323.912,517.235,266.219,474.484,248.033C468.957,245.682,486.199,253.017,474.484,248.033z"/>
	<linearGradient id="SVGID_20_" gradientUnits="userSpaceOnUse" x1="356.3301" y1="245.3164" x2="412.4854" y2="245.3164">
		<stop  offset="0" style="stop-color:#FFF200"/>
		<stop  offset="1" style="stop-color:#FFD400"/>
	</linearGradient>
	<path fill-rule="evenodd" clip-rule="evenodd" fill="url(#SVGID_20_)" d="M411.588,252.539c1.616-8.362,1.183-17.317-2.408-25.136
		c-15.286,10.597-34.394,15.562-52.85,12.499c1.819,9.975,7.961,23.535,19.301,23.325c7.191-0.133,14.37-0.86,21.436-2.208
		C404.738,259.56,404.725,255.238,411.588,252.539C413.445,242.93,409.557,253.338,411.588,252.539z"/>
	<path opacity="0.2" fill-rule="evenodd" clip-rule="evenodd" fill="#FFFFFF" d="M380.96,390.387
		c-9.885-7.529-17.154,2.868-28.316,4.226c-10.272,1.25-22.247,0.122-31.367-5.128c6.556,7.111,17.802,9.051,27.165,9.203
		C360.125,398.877,369.23,389.536,380.96,390.387C378.256,388.327,376.53,390.065,380.96,390.387z"/>
	<path opacity="0.1" fill-rule="evenodd" clip-rule="evenodd" d="M387.229,401.577c0.878-3.177-1.865-7.133-3.857-9.104
		c-12.894,19.341-40.41,15.707-56.91,2.653c7.436,7.622,18.291,11.729,28.723,12.842
		C360.923,408.58,384.877,410.102,387.229,401.577C387.639,400.093,386.73,403.383,387.229,401.577z"/>
	<path opacity="0.3" fill-rule="evenodd" clip-rule="evenodd" fill="#758492" d="M411.295,176.709
		c-2.322-6.833-0.855-13.247-8.467-17.545c-0.591-10.193-8.753-7.852-12.067-13.586c-1.552-2.686-4.771-4.014-7.748-4.094
		c-4.336-0.118-5.562-2.998-10.113-3.178c-2.551-0.101-5.52,0.681-7.082,2.883c-1.97-2.037-8.358-3.926-10.109-0.554
		c3.625,1.968,7.991,3.527,11.268,5.38c1.864-1.606,4.313-1.896,6.625-1.318c2.251,0.562,2.901,3.212,4.876,2.434
		c4.488-1.773,9.045,0.628,10.1,5.385c8.474,1.381,7.197,7.889,12.134,11.291c4.087,2.815,8.93,15.828,7.076,20.027
		c-3.033,6.864-1.33,13.082-9.66,18.071c0.157,5.182-4.073,16.188-9.801,17.424c-2.775,5.228-13.041,10.247-18.848,10.485
		c-3.523,0.146-17.864-2.807-19.581-0.6c2.005,4.071,7.813,5.297,11.646,3.462c4.786-2.292,7.503,2.247,12.975,0.164
		c3.86-1.47,7.208-3.315,11.055-4.989c4.913-2.139,2.966-5.611,8.062-6.598c9.255-1.791,1.867-14.221,10.479-18.734
		c4.625-2.424,6.007-7.283,5.656-12.237C409.428,185.435,413.084,181.97,411.295,176.709
		C410.891,175.52,412.416,180.005,411.295,176.709z"/>
	<path opacity="0.5" fill-rule="evenodd" clip-rule="evenodd" fill="#8895A1" d="M347.219,243.966
		c1.857-3.945,8.472-10.628,1.807-12.296c-3.31,8.062-7.594,15.842-13.301,22.468c-4.57,5.306-12.348,7.545-6.922,15.123
		C330.964,259.291,342.903,253.141,347.219,243.966C349.091,239.987,345.173,248.315,347.219,243.966z"/>
	<path opacity="0.5" fill-rule="evenodd" clip-rule="evenodd" fill="#8895A1" d="M417.596,249.641
		c0.703-8.619,2.203-16.043-2.472-23.963c-3.173-5.376-14.252-13.201-12.954-20.151c-7.1,8.148,5.439,14.131,8.449,21.937
		c1.824,4.73,2.619,9.81,2.749,14.86c0.183,7.131-4.394,14.825,5.331,14.549C417.772,254.548,417.404,252.137,417.596,249.641
		C417.906,245.835,417.396,252.119,417.596,249.641z"/>
	<path opacity="0.2" fill-rule="evenodd" clip-rule="evenodd" fill="#FFFFFF" d="M365.834,247.329
		c-1.686-2.735-2.999-5.637-3.94-8.704c-1.857-6.034-1.119-3.425-6.211-3.559c0.842,10.032,4.745,19.54,12.368,26.304
		c4.241,3.764,26.812,16.924,29.942,10.621C384.829,268.104,372.236,259.786,365.834,247.329
		C364.937,245.834,372.066,259.455,365.834,247.329z"/>
	<path fill-rule="evenodd" clip-rule="evenodd" d="M322.936,190.563c5.247-3.575,8.49-0.634,9.651-8.088
		c0.782-5.019-0.927-9.917-6.529-10.99C315.063,169.379,314.673,186.793,322.936,190.563
		C325.275,188.969,320.272,189.348,322.936,190.563z"/>
	<path fill-rule="evenodd" clip-rule="evenodd" fill="#FFFFFF" d="M331.792,182.13c1.301,5.697-6.18,7.408-7.481,1.71
		C323.007,178.143,330.489,176.433,331.792,182.13C332.361,184.621,331.223,179.64,331.792,182.13z"/>
	<g>
		<path opacity="0.1" fill-rule="evenodd" clip-rule="evenodd" d="M312.183,140.632c0.44-1.218,0.88-2.436,1.32-3.653
			c-13.957,3.37-26.733,10.854-33.62,23.857C288.646,150.637,298.955,143.878,312.183,140.632
			C312.573,139.385,306.358,142.062,312.183,140.632z"/>
		<path opacity="0.1" fill-rule="evenodd" clip-rule="evenodd" d="M360.981,219.698c29.14-26.776,16.001-81.505-26.258-83.209
			c2.39,6.388,15.715,8.014,21.686,12.315c7.978,5.747,13.715,14.131,15.562,23.847c4.436,23.345-7.894,43.008-26.479,56.375
			C351.206,226.965,356.505,223.811,360.981,219.698C370.071,211.346,356.575,223.746,360.981,219.698z"/>
	</g>
	<g>
		<path opacity="0.1" fill-rule="evenodd" clip-rule="evenodd" d="M298.562,180.819c1.14,2.818,10.727-0.088,12.619-1.38
			c4.454-3.041,5.033-8.522,5.89-13.386c1.174-6.667,6.545-24.296,15.381-12.58c-6.837-12.737-15.445-6.687-17.879,4.41
			c-1.309,5.968-7.128,31.791-17.961,19.278C297.262,178.381,297.913,179.6,298.562,180.819
			C298.537,180.755,297.625,179.842,298.562,180.819z"/>
	</g>
	<g opacity="0.3">
		<path fill="#FFFFFF" d="M324.2,131.449c-15.835-0.238-9.3,26.274-27.058,24.85c17.71,16.64,18.176-43.644,39.222-13.385
			C333.973,137.649,330.873,131.549,324.2,131.449C322.119,131.417,331.077,131.552,324.2,131.449z"/>
	</g>
	<path opacity="0.3" fill-rule="evenodd" clip-rule="evenodd" fill="#758492" d="M301.772,109.377
		c-9.855-12.228-30.188-28.101-37.094-4.137c8.118-20.753,31.045-1.945,38.575,9.706c2.353,3.64,4.106,7.633,5.611,11.685
		c1.148,3.091,0.438,12.138,5.45,8.521C312.089,125.668,307.887,116.965,301.772,109.377
		C296.407,102.72,308.05,117.167,301.772,109.377z"/>
	<path opacity="0.3" fill-rule="evenodd" clip-rule="evenodd" fill="#758492" d="M284.799,151.354
		c-0.327-4.294-15.801-9.556-18.512-10.517c-7.542-2.672-22.85-7.104-30.454-2.051c-9.874,6.561-8.124,34.258,6.884,32.25
		c-9.414-5.549-15.926-24.702-2.354-29.655c7.254-2.647,16.638-0.729,23.815,1.226C267.469,143.505,284.674,149.659,284.799,151.354
		C284.763,150.886,284.813,151.554,284.799,151.354z"/>
	<path opacity="0.2" fill-rule="evenodd" clip-rule="evenodd" fill="#FFFFFF" d="M603.301,74.819
		c-5.305,0.073-10.548,0.999-15.779,1.773c21.537,19.294-19.942,59.837-32.771,72.693c-25.881,25.935-61.121,44.891-97.436,50.705
		c2.738,5.65,1.248,8.334,8.312,7.475c4.662-0.567,9.292-1.396,13.859-2.489c8.615-2.062,16.99-5.072,24.982-8.887
		c19.358-9.24,35.777-21.168,51.562-35.58c13.551-12.373,25.602-25.551,35.192-41.261
		C594.351,114.124,617.411,74.627,603.301,74.819C598.113,74.89,605.529,74.789,603.301,74.819z"/>
	<path opacity="0.2" fill-rule="evenodd" clip-rule="evenodd" fill="#FFFFFF" d="M455.92,200.209
		c-8.582,1.282-17.306,1.731-25.965,1.074c-5.142-0.39-10.256-1.171-15.27-2.383c-7.422-1.795-3.854-1.398-7.312,3.05
		c3.074,0.737,5.051,3.589,8.025,4.587c3.531,1.184,7.442,0.97,11.098,1.285c10.574,0.91,21.903,2.162,32.4-0.045
		C458.062,205.193,457.07,202.67,455.92,200.209C440.307,202.542,457.082,202.707,455.92,200.209z"/>
	<path opacity="0.2" fill-rule="evenodd" clip-rule="evenodd" fill="#FFFFFF" d="M547.361,39.53
		c-3.063-3.7-12.784-1.584-16.523-0.946c10.087,16.41-10.126,41.28-19.451,53.757c3.478-1.258,8.563-1.9,11.578-4.141
		c4.468-3.319,8.09-11.103,11.167-15.703C537.574,67.352,552.825,46.128,547.361,39.53C546.332,38.287,549.807,42.483,547.361,39.53
		z"/>
	<path opacity="0.2" fill-rule="evenodd" clip-rule="evenodd" fill="#FFFFFF" d="M521.754,89.777
		c-10.279,3.594-13.697,7.146-20.598,15.563c-7.267,8.866-16.056,16.275-24.945,23.445c-15.414,12.433-30.137,28.236-48.246,36.731
		c9.521,5.815,42.745-23.201,51.364-30.118c8.082-6.486,15.788-13.448,22.933-20.957C504.951,111.616,520.959,89.7,521.754,89.777
		C517.922,91.117,521.895,89.791,521.754,89.777z"/>
	
		<radialGradient id="SVGID_21_" cx="668.6348" cy="470.0449" r="15.0405" gradientTransform="matrix(1.0938 1.0332 -0.8999 0.9527 76.5615 -893.0137)" gradientUnits="userSpaceOnUse">
		<stop  offset="0" style="stop-color:#FFFFFF"/>
		<stop  offset="0.2161" style="stop-color:#B5B5B5"/>
		<stop  offset="0.4267" style="stop-color:#757575"/>
		<stop  offset="0.6163" style="stop-color:#424242"/>
		<stop  offset="0.781" style="stop-color:#1E1E1E"/>
		<stop  offset="0.9144" style="stop-color:#080808"/>
		<stop  offset="1" style="stop-color:#000000"/>
	</radialGradient>
	<path opacity="0.3" fill-rule="evenodd" clip-rule="evenodd" fill="url(#SVGID_21_)" d="M401.506,261.295
		c-17.903,18.947-51.07-12.383-33.169-31.333C386.238,211.015,419.403,242.344,401.506,261.295
		C393.969,269.271,409.041,253.316,401.506,261.295z"/>
	
		<radialGradient id="SVGID_22_" cx="470.709" cy="168.1572" r="10.5063" gradientTransform="matrix(1.3912 0.0191 -0.0283 2.0573 -256.2305 -174.3594)" gradientUnits="userSpaceOnUse">
		<stop  offset="0" style="stop-color:#FFFFFF"/>
		<stop  offset="0.2161" style="stop-color:#B5B5B5"/>
		<stop  offset="0.4267" style="stop-color:#757575"/>
		<stop  offset="0.6163" style="stop-color:#424242"/>
		<stop  offset="0.781" style="stop-color:#1E1E1E"/>
		<stop  offset="0.9144" style="stop-color:#080808"/>
		<stop  offset="1" style="stop-color:#000000"/>
	</radialGradient>
	<path opacity="0.05" fill-rule="evenodd" clip-rule="evenodd" fill="url(#SVGID_22_)" d="M408.479,180.782
		c-0.115,8.367-4.511,21.555-14.914,21.413c-10.403-0.144-14.434-13.448-14.32-21.814c0.115-8.367,4.51-21.556,14.914-21.413
		S408.592,172.416,408.479,180.782C408.314,192.719,408.641,168.845,408.479,180.782z"/>
	
		<radialGradient id="SVGID_23_" cx="735.042" cy="235.4551" r="10.2105" gradientTransform="matrix(1.1099 -1.228 1.5264 1.3796 -790.6289 829.8818)" gradientUnits="userSpaceOnUse">
		<stop  offset="0" style="stop-color:#FFFFFF"/>
		<stop  offset="0.2161" style="stop-color:#B5B5B5"/>
		<stop  offset="0.4267" style="stop-color:#757575"/>
		<stop  offset="0.6163" style="stop-color:#424242"/>
		<stop  offset="0.781" style="stop-color:#1E1E1E"/>
		<stop  offset="0.9144" style="stop-color:#080808"/>
		<stop  offset="1" style="stop-color:#000000"/>
	</radialGradient>
	<path opacity="0.1" fill-rule="evenodd" clip-rule="evenodd" fill="url(#SVGID_23_)" d="M396.256,239.182
		c20.044,18.118-3.047,44.124-23.323,25.804C352.888,246.867,375.981,220.856,396.256,239.182
		C405.111,247.187,387.398,231.176,396.256,239.182z"/>
	
		<radialGradient id="SVGID_24_" cx="688.2168" cy="65.7148" r="10.5061" gradientTransform="matrix(1.6755 -0.6306 1.0162 2.6999 -783.1699 463.4785)" gradientUnits="userSpaceOnUse">
		<stop  offset="0" style="stop-color:#FFFFFF"/>
		<stop  offset="0.2161" style="stop-color:#B5B5B5"/>
		<stop  offset="0.4267" style="stop-color:#757575"/>
		<stop  offset="0.6163" style="stop-color:#424242"/>
		<stop  offset="0.781" style="stop-color:#1E1E1E"/>
		<stop  offset="0.9144" style="stop-color:#080808"/>
		<stop  offset="1" style="stop-color:#000000"/>
	</radialGradient>
	<path opacity="0.2" fill-rule="evenodd" clip-rule="evenodd" fill="url(#SVGID_24_)" d="M454.32,200.288
		c3.804,10.11,6.213,30.042-6.93,34.989c-13.14,4.947-24.471-11.627-28.277-21.74c-3.806-10.111-6.217-30.043,6.928-34.989
		C439.181,173.601,450.512,190.175,454.32,200.288C460.213,215.952,448.42,184.621,454.32,200.288z"/>
	
		<radialGradient id="SVGID_25_" cx="595.6377" cy="-29.0552" r="4.4936" gradientTransform="matrix(1.6755 -0.6306 0.7527 2 -735.4531 591.9814)" gradientUnits="userSpaceOnUse">
		<stop  offset="0" style="stop-color:#FFFFFF"/>
		<stop  offset="0.2161" style="stop-color:#B5B5B5"/>
		<stop  offset="0.4267" style="stop-color:#757575"/>
		<stop  offset="0.6163" style="stop-color:#424242"/>
		<stop  offset="0.781" style="stop-color:#1E1E1E"/>
		<stop  offset="0.9144" style="stop-color:#080808"/>
		<stop  offset="1" style="stop-color:#000000"/>
	</radialGradient>
	<path opacity="0.15" fill-rule="evenodd" clip-rule="evenodd" fill="url(#SVGID_25_)" d="M248.396,155.352
		c4.383,11.652-11.078,17.471-15.463,5.819C228.546,149.519,244.01,143.7,248.396,155.352
		C250.314,160.449,246.478,150.254,248.396,155.352z"/>
	
		<radialGradient id="SVGID_26_" cx="602.2012" cy="72.7524" r="5.1158" gradientTransform="matrix(1.7894 -0.0551 0.0787 2.5586 -808.8711 -38.9453)" gradientUnits="userSpaceOnUse">
		<stop  offset="0" style="stop-color:#FFFFFF"/>
		<stop  offset="0.2161" style="stop-color:#B5B5B5"/>
		<stop  offset="0.4267" style="stop-color:#757575"/>
		<stop  offset="0.6163" style="stop-color:#424242"/>
		<stop  offset="0.781" style="stop-color:#1E1E1E"/>
		<stop  offset="0.9144" style="stop-color:#080808"/>
		<stop  offset="1" style="stop-color:#000000"/>
	</radialGradient>
	<path opacity="0.15" fill-rule="evenodd" clip-rule="evenodd" fill="url(#SVGID_26_)" d="M283.922,113.727
		c0.517,16.791-18.459,17.374-18.977,0.583C264.428,97.519,283.407,96.936,283.922,113.727
		C284.153,121.22,283.692,106.233,283.922,113.727z"/>
	<path opacity="0.3" fill-rule="evenodd" clip-rule="evenodd" fill="#009AD5" d="M445.732,184.062
		c-1.718-2.099-3.501-4.141-5.35-6.125c-1.446,10.791-5.604,21.115-11.777,30.062c9.906,0.811,20.467,1.844,30.291-0.221
		C456.132,199.137,451.489,191.051,445.732,184.062C444.031,181.997,451.48,191.041,445.732,184.062z"/>
</g>
</svg>
