<svg xmlns="http://www.w3.org/2000/svg" viewBox="0 0 768 430"><style>.a{fill:#A3F1FF;}.b{fill:#E3FBFF;}.c{fill:#0D4E59;}</style><path d="M398 186.8c0.1 29.8-0.4 59.7-1.4 89.6 -0.5 16-1.2 32-2 48 0.7-5.9 1.5-11.8 2.2-17.7 0-0.2 0.3-0.2 0.3 0 -0.5 12.1-1 24.3-1.8 36.4 -0.4 6.1-0.9 12.1-1.4 18.2 0 0.3-0.1 0.6-0.1 0.9 6.6 0 13.2 0 19.8 0 27 0 54.1-0.4 81.2 0 0.8-9.2 2.6-18.5 3.7-27.4 1.6-12.8 3.4-25.6 5.7-38.2 0-0.1 0.2-0.1 0.1 0 -0.4 8.3-1.1 16.6-1.9 24.9 5.1-41.7 10.6-83.4 16-125.1 0.5-3.6 0.9-7.2 1.4-10.7 -9 0.1-18 0.2-26.9 0.3C461.2 186.3 429.6 186.5 398 186.8z" class="a"/><path d="M340.1 187.3c-29 0.3-58 0.6-86.9 0.5 3.1 32.2 6 64.5 8.7 96.8 1.6 19.7 3.2 39.3 4.7 59.1 -0.1-2.9-0.2-5.7-0.4-8.6 -0.8-15.2-1.9-30.5-1.8-45.7 0-0.1 0.1-0.1 0.1 0 1.9 14.6 2.8 29.3 3.8 44 0.5 7.6 1.3 15.2 1.9 22.9 0.1 2 0.3 4 0.5 6.1 8.3-0.1 16.6 0 24.9 0 24.4 0 48.7 0 73.1 0 0.2-8.3 1.1-16.7 1.7-24.7 1-13.7 1.4-27.4 2.6-41.1 0-0.1 0.2-0.1 0.2 0 0.3 13.7-0.2 27.4-0.2 41.1 0 2.8 0.1 5.6 0.1 8.5 0.2-3 0.4-6.1 0.5-9.1 2.9-50 4.1-100 4.1-150C365 187 352.5 187.1 340.1 187.3z" class="a"/><path d="M297.2 162c25.8-0.1 51.6-0.1 77.4-0.1 -0.1-4.3-0.1-8.6-0.2-12.7 -0.3-9.3-0.5-18.8 0-28.2 0-0.1 0.2-0.2 0.2 0 1.3 8.7 1.9 17.7 2.4 26.5 0.1 1.8 0.2 3.7 0.4 5.6 -0.2-20.1-0.6-40.2-1.1-60.3 -8.5 0-16.9 0-25.4 0 -28.9 0.1-57.9 0.3-86.8 0.1 -6.9-0.1-13.9-0.1-20.9-0.1 1.3 10.9 2.6 21.7 3.7 32.6 0.9 8.1 1.7 16.3 2.5 24.4 0-0.1 0-0.3 0-0.4 -0.4-9.1-1.7-18.4-1.2-27.5 0 0 0 0 0 0 2.1 8.7 2.4 18.2 3.6 27.2 0.6 4.2 1.3 8.6 1.8 13C268.1 161.6 282.7 162 297.2 162z" class="a"/><path d="M532.6 92.7c-2.7 0-5.4 0-8.1 0 -43 0-86.1-0.1-129.1 0 0.7 12 1.3 23.9 1.7 35.9 0.1 3.8 0.2 7.7 0.3 11.5 0.3-6.1 0.6-12.3 1.4-18.3 0-0.1 0.1-0.1 0.1 0 1.1 9.3 0.7 19.1 1.2 28.5 0.2 3.8 0.4 7.7 0.4 11.6 5.4 0 10.8 0 16.2 0 34.3 0 68.6-0.4 102.8 0.6 0.6-5.1 1.6-10.2 2.4-15.1 1.6-9.7 3.3-19.4 4.9-29.1 0-0.2 0.3-0.1 0.2 0 -0.6 8.8-1.1 17.6-1.7 26.4C527.7 127.4 530.1 110.1 532.6 92.7z" class="a"/><path d="M556.9 69.2c-14.6 92.2-26.1 184.9-38.5 277.4 -1.6 12.3-3.3 24.6-4.7 36.8 -32.8-0.2-65.7 0-98.5 0 -53.4-0.1-106.8-0.4-160.2 0.2 -0.9 0-1.8 0-2.7 0 -3.6-90-13.8-179.7-27.3-268.2 -2.3-15.3-5.1-30.4-8.1-45.5 7.2 0.1 14.4 0.1 21.5 0.1 26.7 0.1 53.4 0 80.1-0.1 54 0 107.9-0.1 161.9-0.2C505.8 69.7 531.3 69.9 556.9 69.2zM534.9 92.7c0.1-1.3 0.3-2.6 0.4-3.9 -0.7 0-1.4 0-2.2 0 -28-0.1-56 0-83.9 0 -18 0-36.1 0-54.2-0.1 -0.7 0-1.3 0-2 0 0 1.3 0.1 2.7 0.1 4 0 0 0 0.1 0 0.1 0.6 23 1 46 1.2 69 0 0.9 0 1.7 0 2.6 0 0.9 0 1.8 0 2.7 0 0.3 0 0.6 0 1 0.6 0 1.1 0 1.7 0 0.6 0 1.2 0 1.7 0 0.8 0 1.7 0 2.5 0 30.7-0.2 61.4-0.5 92.1-0.8 8.9-0.1 17.8-0.2 26.6-0.3 1 0 2 0 3.1 0 0.4 0 0.7 0 1.1 0 1 0 2 0 2.9 0 0-0.2 0-0.4 0.1-0.5 0.1-0.9 0.2-1.8 0.3-2.7 0-0.3 0.1-0.6 0.1-0.9 1.4-11.7 2.9-23.5 4.3-35.2C532.4 115.9 533.7 104.3 534.9 92.7zM523.9 185.6c0.1-1.1 0.3-2.2 0.4-3.3 -1.4 0-2.8 0-4.2 0 -31 0-62 0.4-92.9 0.6 -9.7 0.1-19.5 0.1-29.2 0.2 -1.1 0-2.3 0-3.4 0 0 1.2 0 2.4 0 3.6 0.1 51.5-1.1 103.1-4.1 154.6 -0.4 6.9-0.8 13.9-1.2 20.8 -0.1 0.9-0.1 1.8-0.2 2.8 0 0.6-0.1 1.2-0.1 1.7 0 0.8-0.1 1.6-0.1 2.4h4.4c33.7 0 67.3-0.1 101-0.2h1.1c0.4 0 0.9 0 1.3 0h0.4c0.9 0 1.8 0 2.7 0 0.1-0.8 0.2-1.6 0.3-2.4 0.1-0.5 0.1-0.9 0.2-1.4 0.1-1 0.3-1.9 0.4-2.9C508.9 303.4 516.6 244.5 523.9 185.6zM379.5 271.9c0.9-28.3 1.4-56.7 1.4-85 0-1.2 0-2.4 0-3.7 -1.2 0-2.3 0-3.5 0 -34.3 0.2-68.6 0.4-102.9 0.8 -7.2 0.1-14.5 0.2-21.7 0.3 -1.2 0-2.3 0-3.5 0.1 0.1 1.1 0.2 2.2 0.3 3.3 0.2 2.6 0.5 5.2 0.7 7.8 5 53.5 9.2 107.1 13.1 160.7 0.1 2 0.3 4 0.4 6.1 0.1 1.1 0.2 2.2 0.2 3.3 0 0.3 0 0.6 0.1 0.9 0.1 0.7 0.1 1.4 0.1 2.1 1.1 0 2.2 0 3.2 0h0.6c0.9 0 1.8 0 2.7 0 0.7 0 1.4 0 2.1 0 24.9 0.1 49.8 0.4 74.7 0.4 6.9 0 13.9 0 20.8 0h5.8c0.1-0.8 0.1-1.6 0.2-2.4 0-0.6 0.1-1.1 0.1-1.7 0.1-0.9 0.1-1.9 0.2-2.8C377.1 332.1 378.5 302 379.5 271.9zM380.8 168.2c0-0.4 0-0.7 0-1.1 0-0.9 0-1.7 0-2.6 0-0.9 0-1.8 0-2.7 -0.1-12.6-0.4-25.1-0.8-37.6 -0.3-10.5-0.8-21-1.4-31.5 -0.1-1.4-0.2-2.7-0.2-4.1 -0.7 0-1.4 0-2.2 0 -33.5-0.1-67-0.2-100.5-0.1 -11 0-22 0.2-32.9 0.3 -0.8 0-1.7 0-2.5 0 0.1 1.3 0.2 2.5 0.4 3.8 2.2 23.2 4.5 46.3 6.7 69.5 0.1 1.2 0.2 2.3 0.3 3.5 0 0.3 0.1 0.6 0.1 0.9 0.1 0.8 0.1 1.6 0.2 2.4 0.9 0 1.8 0 2.6 0h3.5c28.6 0.1 57.2-0.2 85.7-0.5 11.7-0.1 23.4-0.2 35.1-0.3 0.8 0 1.7 0 2.5 0 0.2 0 0.5 0 0.7 0C379 168.2 379.9 168.2 380.8 168.2z" fill="#59DAF2"/><polygon points="334.8 92.3 287.2 91.7 264.1 165.7 299.2 165.1 " class="b"/><polygon points="502.2 91.7 449.7 91.1 417.9 164.5 446.3 165.1 " class="b"/><polygon points="317.7 185.8 277.2 365.3 283.8 364.2 328.1 186.4 " class="b"/><polygon points="298 365.3 323.7 365.3 368.6 185.3 344.5 186.4 " class="b"/><polygon points="435.4 184.7 398.6 367.1 408.5 365.3 446.3 184.7 " class="b"/><polygon points="472.6 184.1 438 365.3 461.5 366.5 500.5 184.7 " class="b"/><path d="M557.4 66.1c-49-1.4-98.2-0.6-147.3-0.7 -53.9-0.1-107.9-0.1-161.8-0.1 -10.8 0-21.6 0-32.4 0.1 -0.9 0-1.9 0-2.8 0 0.2 1.5 0.4 3 0.6 4.5 1.6 12.2 3.2 24.5 5 36.7 3.6 24.4 7.1 48.9 10.3 73.4 6.4 49.4 11.5 99 15.5 148.7 1.5 18.3 3.2 36.6 4.9 54.9 0.1 1.5 0.3 3 0.4 4.5 0.9 0 1.8 0 2.6 0 24.8 0.1 49.6 0 74.4 0 53.4 0 106.8-0.1 160.2-0.2 8.7 0 17.5 0 26.2-0.1 1.5 0 3 0 4.5 0 0.2-1.4 0.4-2.9 0.6-4.3 5.1-34.6 9.4-69.2 14-103.8 6.9-51.7 14-103.3 20.6-155.1 2.3-18.4 4.4-36.9 6.3-55.4 0.1-1 0.2-2 0.3-3.1C558.8 66.1 558.1 66.1 557.4 66.1zM518.4 346.7c-1.6 12.3-3.3 24.6-4.7 36.8 -32.8-0.2-65.7 0-98.5 0 -53.4-0.1-106.8-0.4-160.2 0.2 -0.9 0-1.8 0-2.7 0 -3.6-90-13.8-179.7-27.3-268.2 -2.3-15.3-5.1-30.4-8.1-45.5 7.2 0.1 14.4 0.1 21.5 0.1 26.7 0.1 53.4 0 80.1-0.1 54 0 107.9-0.1 161.9-0.2 25.6-0.1 51.1 0.1 76.7-0.5C542.3 161.5 530.8 254.1 518.4 346.7z" class="c"/><path d="M427.2 182.9c-9.7 0.1-19.5 0.1-29.2 0.2 -1.1 0-2.3 0-3.4 0 0 1.2 0 2.4 0 3.6 0.1 51.5-1.1 103.1-4.1 154.6 -0.4 6.9-0.8 13.9-1.2 20.8 -0.1 0.9-0.1 1.8-0.2 2.8 0 0.6-0.1 1.2-0.1 1.7 0 0.8-0.1 1.6-0.1 2.4h4.4c33.7 0 67.3-0.1 101-0.2h1.1c0.4 0 0.9 0 1.3 0h0.4c0.9 0 1.8 0 2.7 0 0.1-0.8 0.2-1.6 0.3-2.4 0.1-0.5 0.1-0.9 0.2-1.4 0.1-1 0.3-1.9 0.4-2.9 8.2-58.9 15.9-117.8 23.2-176.7 0.1-1.1 0.3-2.2 0.4-3.3 -1.4 0-2.8 0-4.2 0C489.1 182.3 458.2 182.7 427.2 182.9zM518.3 196.3c-5.4 41.7-10.9 83.3-16 125.1 0.8-8.3 1.5-16.6 1.9-24.9 0-0.1-0.1-0.1-0.1 0 -2.3 12.7-4.1 25.5-5.7 38.2 -1.1 8.9-2.9 18.3-3.7 27.4 -27-0.4-54.1 0-81.2 0 -6.6 0-13.2 0-19.8 0 0-0.3 0-0.6 0.1-0.9 0.5-6.1 1-12.1 1.4-18.2 0.8-12.1 1.3-24.3 1.8-36.4 0-0.2-0.2-0.2-0.3 0 -0.7 5.9-1.5 11.8-2.2 17.7 0.8-16 1.5-32 2-48 1-29.9 1.5-59.7 1.4-89.6 31.6-0.2 63.2-0.5 94.7-0.8 9-0.1 18-0.2 26.9-0.3C519.2 189.2 518.8 192.8 518.3 196.3z" class="c"/><path d="M395.1 88.7c-0.7 0-1.3 0-2 0 0 1.3 0.1 2.7 0.1 4 0 0 0 0.1 0 0.1 0.6 23 1 46 1.2 69 0 0.9 0 1.7 0 2.6 0 0.9 0 1.8 0 2.7 0 0.3 0 0.6 0 1 0.6 0 1.1 0 1.7 0 0.6 0 1.2 0 1.7 0 0.8 0 1.7 0 2.5 0 30.7-0.2 61.4-0.5 92.1-0.8 8.9-0.1 17.8-0.2 26.6-0.3 1 0 2 0 3.1 0 0.4 0 0.7 0 1.1 0 1 0 2 0 2.9 0 0-0.2 0-0.4 0.1-0.5 0.1-0.9 0.2-1.8 0.3-2.7 0-0.3 0.1-0.6 0.1-0.9 1.4-11.7 2.9-23.5 4.3-35.2 1.4-11.6 2.7-23.2 4-34.7 0.1-1.3 0.3-2.6 0.4-3.9 -0.7 0-1.4 0-2.2 0 -28-0.1-56 0-83.9 0C431.2 88.8 413.2 88.8 395.1 88.7zM524.5 92.8c2.7 0 5.4 0 8.1 0 -2.5 17.3-5 34.7-7.4 52 0.6-8.8 1.2-17.6 1.7-26.4 0-0.2-0.2-0.2-0.2 0 -1.6 9.7-3.3 19.4-4.9 29.1 -0.8 4.9-1.8 10-2.4 15.1 -34.2-1-68.5-0.6-102.8-0.6 -5.4 0-10.8 0-16.2 0 0-3.9-0.2-7.8-0.4-11.6 -0.4-9.4-0.1-19.1-1.2-28.5 0-0.1-0.1-0.1-0.1 0 -0.9 6-1.2 12.1-1.4 18.3 -0.1-3.8-0.2-7.7-0.3-11.5 -0.4-12-1-24-1.7-35.9C438.4 92.7 481.4 92.7 524.5 92.8z" class="c"/><path d="M380.9 183.2c-1.2 0-2.3 0-3.5 0 -34.3 0.2-68.6 0.4-102.9 0.8 -7.2 0.1-14.5 0.2-21.7 0.3 -1.2 0-2.3 0-3.5 0.1 0.1 1.1 0.2 2.2 0.3 3.3 0.2 2.6 0.5 5.2 0.7 7.8 5 53.5 9.2 107.1 13.1 160.7 0.1 2 0.3 4 0.4 6.1 0.1 1.1 0.2 2.2 0.2 3.3 0 0.3 0 0.6 0.1 0.9 0.1 0.7 0.1 1.4 0.1 2.1 1.1 0 2.2 0 3.2 0h0.6c0.9 0 1.8 0 2.7 0 0.7 0 1.4 0 2.1 0 24.9 0.1 49.8 0.4 74.7 0.4 6.9 0 13.9 0 20.8 0h5.8c0.1-0.8 0.1-1.6 0.2-2.4 0-0.6 0.1-1.1 0.1-1.7 0.1-0.9 0.1-1.9 0.2-2.8 2.3-30.1 3.7-60.2 4.7-90.3 0.9-28.3 1.4-56.7 1.4-85C380.9 185.7 380.9 184.5 380.9 183.2zM373.4 337c-0.2 3-0.4 6.1-0.5 9.1 -0.1-2.9-0.1-5.7-0.1-8.5 -0.1-13.7 0.4-27.4 0.2-41.1 0-0.1-0.1-0.1-0.2 0 -1.2 13.7-1.6 27.4-2.6 41.1 -0.6 8-1.5 16.4-1.7 24.7 -24.4 0-48.7 0-73.1 0 -8.3 0-16.6-0.1-24.9 0 -0.2-2-0.3-4.1-0.5-6.1 -0.5-7.6-1.3-15.2-1.9-22.9 -1-14.7-1.9-29.4-3.8-44 0-0.1-0.1-0.1-0.1 0 0 15.3 1 30.5 1.8 45.7 0.2 2.9 0.3 5.7 0.4 8.6 -1.5-19.7-3.1-39.4-4.7-59.1 -2.7-32.3-5.5-64.6-8.7-96.8 29 0.1 58-0.2 86.9-0.5 12.5-0.1 24.9-0.2 37.4-0.3C377.5 236.9 376.3 286.9 373.4 337z" class="c"/><path d="M254.1 169.1c28.6 0.1 57.2-0.2 85.7-0.5 11.7-0.1 23.4-0.2 35.1-0.3 0.8 0 1.7 0 2.5 0 0.2 0 0.5 0 0.7 0 0.9 0 1.8 0 2.8 0 0-0.4 0-0.7 0-1.1 0-0.9 0-1.7 0-2.6 0-0.9 0-1.8 0-2.7 -0.1-12.6-0.4-25.1-0.8-37.6 -0.3-10.5-0.8-21-1.4-31.5 -0.1-1.4-0.2-2.7-0.2-4.1 -0.7 0-1.4 0-2.2 0 -33.5-0.1-67-0.2-100.5-0.1 -11 0-22 0.2-32.9 0.3 -0.8 0-1.7 0-2.5 0 0.1 1.3 0.2 2.5 0.4 3.8 2.2 23.2 4.5 46.3 6.7 69.5 0.1 1.2 0.2 2.3 0.3 3.5 0 0.3 0.1 0.6 0.1 0.9 0.1 0.8 0.1 1.6 0.2 2.4 0.9 0 1.8 0 2.6 0H254.1zM246.9 125.4c-1.2-10.9-2.4-21.8-3.7-32.6 7 0 13.9 0 20.9 0.1 28.9 0.3 57.9 0 86.8-0.1 8.5 0 16.9 0 25.4 0 0.5 20.1 0.9 40.2 1.1 60.3 -0.1-1.9-0.3-3.7-0.4-5.6 -0.5-8.8-1.1-17.8-2.4-26.5 0-0.1-0.2-0.1-0.2 0 -0.5 9.4-0.3 18.9 0 28.2 0.2 4.1 0.1 8.4 0.2 12.7 -25.8 0-51.6 0-77.4 0.1 -14.4 0-29-0.3-43.6 0.1 -0.5-4.4-1.2-8.8-1.8-13 -1.2-8.9-1.5-18.4-3.6-27.2 0 0 0 0 0 0 -0.5 9.1 0.8 18.5 1.2 27.5 0 0.1 0 0.3 0 0.4C248.6 141.7 247.7 133.6 246.9 125.4z" class="c"/></svg>