<svg version="1.1" id="Layer_2" xmlns="http://www.w3.org/2000/svg" xmlns:xlink="http://www.w3.org/1999/xlink" viewBox="0 0 768 430" enable-background="new 0 0 768 430" xml:space="preserve">
<g>
	<path fill="#FFFFFF" d="M399.803,97.602c-0.199,0.818-1.023,1.318-1.838,1.12l0,0c-0.82-0.199-1.322-1.019-1.124-1.837l8.79-36.298
		c0.199-0.816,1.021-1.318,1.84-1.12l0,0c0.816,0.197,1.32,1.022,1.122,1.838L399.803,97.602z"/>
	<path fill="#FFFFFF" d="M402.086,89.303c-0.057-0.093-0.119-0.175-0.193-0.252l4.646-19.165c0.097-0.035,0.19-0.079,0.282-0.134
		l7.416-4.526c0.72-0.437,0.945-1.373,0.509-2.09c-0.438-0.721-1.375-0.946-2.095-0.508l-5.11,3.118l1.073-4.435
		c0.199-0.817-0.303-1.641-1.121-1.838c-0.815-0.198-1.639,0.305-1.836,1.121l-1.074,4.436l-3.119-5.111
		c-0.438-0.719-1.374-0.945-2.093-0.506c-0.718,0.437-0.944,1.374-0.507,2.093l4.522,7.415c0.058,0.09,0.122,0.176,0.19,0.25
		l-4.641,19.167c-0.099,0.035-0.193,0.078-0.285,0.134l-7.416,4.526c-0.717,0.437-0.945,1.373-0.506,2.092
		c0.438,0.718,1.375,0.945,2.092,0.506l5.111-3.117l-1.066,4.412c-0.199,0.818,0.303,1.643,1.119,1.838
		c0.817,0.199,1.64-0.303,1.838-1.119l1.068-4.414l3.118,5.111c0.438,0.717,1.375,0.945,2.095,0.506
		c0.719-0.437,0.944-1.374,0.506-2.092L402.086,89.303z"/>
	<path fill="#FFFFFF" d="M411.18,84.869c-0.106,0.001-0.213,0.014-0.313,0.035l-14.111-13.773c0.021-0.101,0.031-0.206,0.029-0.313
		l-0.107-8.686c-0.008-0.841-0.698-1.514-1.54-1.505c-0.84,0.011-1.515,0.7-1.503,1.542l0.074,5.987l-3.269-3.188
		c-0.603-0.588-1.563-0.576-2.153,0.025c-0.586,0.603-0.576,1.566,0.026,2.154l3.267,3.188l-5.986,0.071
		c-0.842,0.012-1.515,0.701-1.503,1.541c0.01,0.843,0.699,1.515,1.541,1.505l8.688-0.105c0.107,0,0.211-0.014,0.312-0.036
		l14.113,13.773c-0.022,0.102-0.029,0.206-0.027,0.313l0.104,8.687c0.011,0.841,0.701,1.514,1.539,1.502
		c0.842-0.008,1.517-0.699,1.507-1.539l-0.073-5.987l3.25,3.172c0.602,0.589,1.564,0.577,2.154-0.025
		c0.587-0.602,0.572-1.565-0.027-2.153l-3.253-3.172l5.989-0.073c0.842-0.011,1.515-0.7,1.504-1.54
		c-0.009-0.842-0.7-1.516-1.542-1.506L411.18,84.869z"/>
	<path fill="#FFFFFF" d="M393.568,83.62c0.053-0.095,0.092-0.192,0.121-0.29l18.932-5.53c0.077,0.066,0.164,0.126,0.258,0.177
		l7.619,4.174c0.736,0.404,1.663,0.134,2.066-0.604c0.403-0.736,0.131-1.662-0.604-2.066l-5.251-2.876l4.382-1.281
		c0.805-0.235,1.269-1.082,1.031-1.888c-0.235-0.808-1.082-1.271-1.89-1.034l-4.379,1.279l2.875-5.251
		c0.406-0.737,0.133-1.663-0.604-2.067c-0.736-0.404-1.661-0.132-2.064,0.605l-4.174,7.618c-0.053,0.096-0.094,0.193-0.123,0.29
		l-18.929,5.531c-0.079-0.066-0.165-0.127-0.258-0.178l-7.621-4.174c-0.737-0.403-1.662-0.133-2.065,0.603
		c-0.405,0.739-0.135,1.664,0.602,2.068l5.253,2.875l-4.36,1.274c-0.808,0.236-1.271,1.082-1.034,1.888
		c0.236,0.808,1.082,1.27,1.89,1.033l4.357-1.273l-2.877,5.252c-0.404,0.736-0.134,1.664,0.604,2.066
		c0.736,0.404,1.664,0.135,2.066-0.604L393.568,83.62z"/>
</g>
<circle fill="#FFFFFF" cx="244.207" cy="80.898" r="3.621"/>
<circle fill="#FFFFFF" cx="298.272" cy="38.513" r="4.81"/>
<circle fill="#FFFFFF" cx="471.294" cy="105.73" r="4.809"/>
<circle fill="#FFFFFF" cx="413.948" cy="99.719" r="3.621"/>
<path fill="#FFFFFF" d="M427.617,160.66c-2.246,1.417-5.217,0.738-6.631-1.513c-1.412-2.251-0.734-5.219,1.513-6.634
	c2.252-1.412,5.221-0.733,6.638,1.515C430.547,156.277,429.869,159.248,427.617,160.66z"/>
<path fill="#FFFFFF" d="M277.559,123.471c0,2.658-2.157,4.812-4.809,4.812c-2.659,0-4.814-2.153-4.814-4.812
	c0-2.654,2.155-4.811,4.814-4.811C275.402,118.66,277.559,120.816,277.559,123.471z"/>
<path fill="#FFFFFF" d="M260.062,163.495c0,2.001-1.623,3.62-3.62,3.62c-2.002,0-3.624-1.619-3.624-3.62
	c0-2.002,1.622-3.623,3.624-3.623C258.438,159.872,260.062,161.493,260.062,163.495z"/>
<path fill="#FFFFFF" d="M240.771,168.833c0,1.997-1.623,3.621-3.624,3.621s-3.62-1.624-3.62-3.621c0-2.003,1.619-3.623,3.62-3.623
	S240.771,166.83,240.771,168.833z"/>
<path fill="#FFFFFF" d="M296.026,189.673c0,2.662-2.152,4.814-4.814,4.814c-2.656,0-4.809-2.152-4.809-4.814
	c0-2.654,2.153-4.809,4.809-4.809C293.874,184.864,296.026,187.019,296.026,189.673z"/>
<path fill="#FFFFFF" d="M497.582,224.479c1.532-1.285,3.816-1.084,5.099,0.448c1.286,1.536,1.083,3.82-0.449,5.104
	c-1.538,1.285-3.82,1.082-5.103-0.45C495.845,228.047,496.045,225.762,497.582,224.479z"/>
<path fill="#FFFFFF" d="M478.088,168.731c2.039-1.706,5.074-1.435,6.78,0.6c1.706,2.037,1.438,5.071-0.601,6.777
	c-2.04,1.705-5.072,1.438-6.779-0.599C475.781,173.47,476.051,170.437,478.088,168.731z"/>
<path fill="#FFFFFF" d="M367.653,47.83c0,1.999-1.624,3.621-3.62,3.621c-2,0-3.624-1.622-3.624-3.621c0-2,1.624-3.622,3.624-3.622
	C366.029,44.208,367.653,45.83,367.653,47.83z"/>
<path fill="#FFFFFF" d="M524.665,83.674c-1.532,1.283-3.817,1.082-5.104-0.453c-1.28-1.533-1.08-3.816,0.455-5.103
	c1.535-1.284,3.815-1.081,5.103,0.454"/>
<polyline fill="#62A4A2" points="577.299,349.035 208.711,349.035 333.378,53.533 418.75,227.093 467.534,125.777 577.299,349.035 
	"/>
<polygon fill="#62A4A2" points="333.272,349.035 333.272,53.782 208.711,349.035 "/>
<polyline fill="#62A4A2" points="577.299,349.035 467.534,125.777 467.534,349.035 577.299,349.035 "/>
<polygon fill="#DDF2F2" points="431.177,201.285 467.534,125.777 506.68,205.399 480.311,193.52 467.534,217.6 446.431,196.908 "/>
<g>
	<polygon fill="#DDF2F2" points="333.378,53.533 281.392,176.76 305.918,163.232 333.272,186.744 364.443,163.232 393.005,174.755 	
		"/>
	<polygon fill="#DDF2F2" points="281.392,176.76 305.918,163.232 333.272,186.744 333.272,53.782 	"/>
</g>
<polygon fill="#DDF2F2" points="430.838,201.285 446.092,196.908 467.195,217.6 467.195,125.777 "/>
<g>
	<g>
		<rect x="266.445" y="329.106" fill="#9B8B75" width="14.946" height="19.929"/>
		<rect x="266.445" y="329.106" fill="#827360" width="7.473" height="19.929"/>
	</g>
	<g>
		<polygon fill="#FFFFFF" points="293.845,298.868 304.395,298.868 285.639,272.494 297.362,272.494 273.918,235.57 
			250.474,272.494 262.196,272.494 243.441,298.868 253.991,298.868 231.719,335.205 273.918,335.205 316.117,335.205 		"/>
		<polygon fill="#FFFFFF" points="273.918,235.57 273.918,235.57 250.474,272.494 262.196,272.494 243.441,298.868 253.991,298.868 
			231.719,335.205 273.918,335.205 273.918,335.205 		"/>
	</g>
</g>
<g>
	<g>
		<rect x="359.875" y="328.348" fill="#9B8B75" width="17.802" height="20.688"/>
		<rect x="359.875" y="328.348" fill="#827360" width="8.9" height="20.688"/>
	</g>
	<g>
		<polygon fill="#FFFFFF" points="392.512,292.332 405.077,292.332 382.736,260.917 396.7,260.917 368.775,216.938 340.853,260.917 
			354.813,260.917 332.475,292.332 345.041,292.332 318.513,335.611 368.775,335.611 419.039,335.611 		"/>
		<polygon fill="#FFFFFF" points="368.776,216.938 368.775,216.938 340.853,260.917 354.813,260.917 332.475,292.332 
			345.041,292.332 318.513,335.611 368.775,335.611 368.776,335.611 		"/>
	</g>
</g>
<g>
	<g>
		<path fill="#FFFFFF" d="M437.735,319.953c-7.926,1.08-21.741-6.212-23.071-27.064c-1.33-20.854,6.469-36.324,21.258-36.384
			c21.016-0.084,22.444,23.517,21.557,38.158C456.592,309.305,447.498,318.621,437.735,319.953z"/>
		<path fill="#FFFFFF" d="M435.922,256.505c-14.789,0.06-22.588,15.529-21.258,36.384c1.33,20.854,15.146,28.146,23.071,27.064
			v-63.393C437.146,256.523,436.545,256.502,435.922,256.505z"/>
	</g>
	<g>
		<path fill="#9B8B75" d="M423.627,304.929c0,0,10.2,1.271,10.929,7.623c0.729,6.354-1.093,36.483-1.093,36.483h10.928
			c0,0-4.734-36.483-3.096-40.659c1.639-4.175,6.92-6.534,6.92-6.534s-6.011-0.181-8.014,1.997c-2.003,2.18-4.553,2.724-7.285,2.18
			C430.184,305.473,427.453,304.565,423.627,304.929z"/>
		<path fill="#827360" d="M437.735,349.035V305.63c-1.477,0.644-3.111,0.729-4.819,0.389c-2.732-0.546-5.463-1.452-9.289-1.09
			c0,0,10.2,1.271,10.929,7.623c0.729,6.354-1.093,36.483-1.093,36.483H437.735z"/>
	</g>
</g>
<g>
	<g>
		<path fill="#FFFFFF" d="M487.306,319.281c0,0-11.196-3.314-15.935-20.626c-4.734-17.312-5.484-53.038,0-70.351
			c5.486-17.312,15.411-30.571,22.988-18.785c7.573,11.787,14.887,58.565,9.663,81.769
			C498.799,314.494,491.225,318.178,487.306,319.281z"/>
		<path fill="#FFFFFF" d="M471.371,228.305c-5.484,17.312-4.734,53.039,0,70.352c4.737,17.312,15.935,20.626,15.935,20.626v-114.19
			C481.375,205.817,475.26,216.038,471.371,228.305z"/>
	</g>
	<g>
		<path fill="#9B8B75" d="M482.282,349.035c0,0,1.431-41.531,1.021-43.651c-0.406-2.124-5.513-11.823-5.513-11.823
			s6.534,8.792,7.147,5.154c0.612-3.637,2.367-31.225,2.367-31.225s-0.122,27.889,1.512,27.588
			c1.635-0.305,8.373-11.219,8.373-11.219s-7.762,14.552-7.762,20.009c0,5.456,0.615,45.167,0.615,45.167H482.282z"/>
		<path fill="#827360" d="M487.489,349.035v-62.018c-0.548-8.144-0.185-19.527-0.185-19.527s-1.755,27.588-2.367,31.225
			c-0.613,3.638-7.147-5.154-7.147-5.154s5.104,9.699,5.513,11.823c0.41,2.12-1.021,43.651-1.021,43.651H487.489z"/>
	</g>
</g>
</svg>
