<svg xmlns="http://www.w3.org/2000/svg" viewBox="0 0 768 430"><style>.a{fill:#B6C773;}.b{fill:#FDCE81;}.c{fill:#C47C41;}.d{fill:#236B5F;}.e{fill:#2A8080;}.f{fill:#FDBA4D;}</style><path d="M240.5 338c-6.2-7.7-20.6-9.5-29.3-10.1 -28.1-2-56.4-3.5-84.5 0 -4.4 0.6-39.2 5.4-29.3 17.8 4.3 5.4 13.1 7.4 19.3 8.7 3.7 0.7 7.5 1.3 11.3 1.7 3.1 6.6 13.4 10.8 18.6 12.9 13.7 5.5 29.7 6.7 44.2 6.8 9.8 0.1 20.2-1 29.6-4.2 3.9-1.3 12.3-4.4 12.3-10.2 0-3.6-3.3-6.2-6.7-7.9 1.2-0.4 2.4-0.8 3.6-1.2C234.2 350.4 246.4 345.3 240.5 338zM197 357.5c0.4 0 0.8 0 1.2-0.1C195.8 358.2 195.9 357.9 197 357.5z" class="a"/><path d="M667.6 326c-14.9-4.9-30.3-6.4-45.8-6.5 -7-0.1-14.1 0.5-21.1 0.9 -0.8 0-1.7 0-2.5 0 -9.6 0.1-19.6 0.9-28.8 4.1 -9.9-0.8-19.9-1.5-29.9-1.5 -7 0-13.9 0.6-20.8 2 -6 1.2-14.7 3.2-18.9 8.7 -7.7 9.8 14.3 15.6 18.9 16.4 7.1 1.2 14.2 2.2 21.4 3 0.3 0.7 0.7 1.4 1.3 2.2 1.3 1.7 3 3 4.9 4.1 13.9 13.9 36.8 15.7 54.4 16.4 9.5 0.4 20-1 29.1-4.2 3.8-1.3 12-4.4 12-10.2 0-1.7-0.7-3.1-1.8-4.4 13.9-2.1 28.6-6.2 38-16.7C684.3 333.2 671.6 327.3 667.6 326z" class="a"/><path d="M121.7 319.1l-3.2-17.6L645.9 191.4l3.2 17.6c0.3 1.8-0.8 3.5-2.4 3.8l-521.4 108.9C123.6 322 122.1 320.8 121.7 319.1z" class="b"/><path d="M121.7 319.1l-0.7-4L648.4 205l0.7 4c0.3 1.8-0.8 3.5-2.4 3.8l-521.4 108.9C123.6 322 122.1 320.8 121.7 319.1z" class="c"/><path d="M108.5 245.1l10.2 56.4 8.6-1.8 -10.2-56.4c-0.5-2.9-2.9-4.9-5.3-4.4C109.4 239.4 107.9 242.2 108.5 245.1z" class="d"/><path d="M199.4 283.9c-1.1-6.1-7.8-9.8-11.2-9.1l-63 13.2 2.1 11.7 72.2-15.1C199.4 284.4 199.4 284.2 199.4 283.9z" class="e"/><path d="M635.6 135.1l10.2 56.4 -8.6 1.8 -10.2-56.4c-0.5-2.9 1-5.7 3.3-6.2C632.7 130.2 635.1 132.1 635.6 135.1z" class="d"/><path d="M566.4 207.3c-1.1-6.1 3.8-12.2 7.2-12.9l61.5-12.8 2.1 11.7 -70.7 14.8C566.5 207.8 566.4 207.5 566.4 207.3z" class="e"/><path d="M224 240.2c-0.8-4.2-3.1-7.2-5.3-6.8 -2.2 0.4-3.3 4.2-2.5 8.4l6.9 37.9 7.8-1.6L224 240.2z" class="c"/><path d="M535.1 175.3c-0.8-4.2-3.1-7.2-5.3-6.8 -2.2 0.4-3.3 4.2-2.5 8.4l6.9 37.9 7.8-1.6L535.1 175.3z" class="c"/><path d="M382.9 227.7c-12.8 0-19.3 7.5-22.8 30.3 -1.2 8.1-4.4 19.5-8.9 26.2 -14.7 22-18.5 43.3-18.5 82.3 0 0.9 0 1.9 0 2.8 0 0.8 0.7 1.5 1.5 1.5h97.3c0.8 0 1.4-0.7 1.4-1.5 0-0.9 0-1.9 0-2.8 0-39-3.8-60.3-18.5-82.3 -4.5-6.8-7.7-18.1-8.9-26.2C402.2 235.3 395.6 227.7 382.9 227.7z" fill="#B8302D"/><path d="M421 352.4c0-41.6-18.1-65.9-40.3-65.9 -22.3 0-35.8 24.4-35.8 65.9 0 0.9 0 1.8 0 2.7h76.1C420.9 354.2 421 353.3 421 352.4z" fill="#399"/><path d="M386.4 308.6c0-4.6-1.6-8.3-3.5-8.3 -1.9 0-3.5 3.7-3.5 8.4 0 4.6 1.6 8.4 3.5 8.4C384.8 316.9 386.4 313.2 386.4 308.6z" class="f"/><path d="M386.4 308.6c0-4.6-1.6-8.3-3.5-8.3 -1.9 0-3.5 3.7-3.5 8.4 0 4.6 1.6 8.4 3.5 8.4C384.8 316.9 386.4 313.2 386.4 308.6z" class="f"/><path d="M373.9 311.4c-3.4-2.9-7.1-3.9-8.3-2.3 -1.2 1.6 0.5 5.3 3.9 8.2 3.4 2.9 7.1 3.9 8.3 2.3C379 317.9 377.2 314.3 373.9 311.4z" class="f"/><path d="M368.1 323.6c-4.2 1-7.2 3.5-6.8 5.5 0.4 2 4.2 2.8 8.4 1.8 4.2-1 7.2-3.5 6.8-5.5C376.1 323.4 372.3 322.6 368.1 323.6z" class="f"/><path d="M373.5 336.1c-1.9 4.2-2 8.3-0.2 9.2 1.7 0.9 4.7-1.7 6.5-5.9 1.9-4.2 2-8.3 0.2-9.2C378.3 329.3 375.4 331.9 373.5 336.1z" class="f"/><path d="M385.9 339.4c1.9 4.2 4.8 6.8 6.5 5.9 1.8-0.9 1.7-5-0.2-9.2 -1.9-4.2-4.8-6.8-6.5-5.9C383.9 331.1 384 335.2 385.9 339.4z" class="f"/><path d="M396 331c4.2 1 7.9 0.2 8.4-1.8 0.4-2-2.6-4.5-6.8-5.5 -4.2-1-7.9-0.2-8.4 1.8C388.8 327.5 391.8 330 396 331z" class="f"/><path d="M396.2 317.3c3.4-2.9 5.1-6.5 3.9-8.2 -1.2-1.6-4.9-0.6-8.3 2.3 -3.4 2.9-5.1 6.5-3.9 8.2C389.2 321.2 392.9 320.2 396.2 317.3z" class="f"/></svg>