<svg xmlns="http://www.w3.org/2000/svg" viewBox="0 0 768 430"><style>.a{fill:#657282;}.b{fill:#8898A5;}.c{fill:#BCC7CE;}.d{fill:#B8C6D1;}.e{fill:#D0DAE3;}.f{fill:#F0F1F2;}.g{fill:#242F3A;}.h{fill:#D1D1D1;}.i{fill:#FFF;}.j{fill:#969292;}.k{fill:#E0DEDE;}.l{fill:#0A0E11;}</style><path d="M371.3 248.1c1.2 0.7 2.2 0.1 3.3 0.2 -1.1-4.2-7.6-9.2-8.6-16.4l-18.7-10c-1.6 2.2-3.1 2.6-2.8 8 -10.5 9.9 2.7 54-0.5 67.6 -4.5 18.8-16.8 13.1-21.8 18.6 -3 3.3-1.2 12.8 8.9 14.6 10.1 1.8 17.5-1.4 20-9.7 2.5-8.4 10.7-9.5 11-25.5 0.4-22.7 12.8-31.6 11.5-40.6 1.3 0.5 1.8 0.2 2.7 0.3C375 252.1 372.3 251.1 371.3 248.1z" class="a"/><path d="M366 232l-7.8-14.2 -10.9 4.2c-1.6 2.2-3.1 2.6-2.8 8 -10.5 9.9 2.7 54-0.5 67.6 -4.5 18.8-16.8 13.1-21.8 18.6 -3 3.3-1.2 12.8 8.9 14.6 10.1 1.8 17.5-1.4 20-9.7 2.5-8.4 10.7-9.5 11-25.5 0.2-14.2 5.2-23 8.5-29.8C367.9 255.5 362.5 239.4 366 232z" class="b"/><path d="M344.7 303.3c1.9-5.7 2-10.8 1.5-16.6 -1.5-19.1-7.3-42.6-1.9-56.5 -9.8 14.3 2.9 54.2-0.2 67.4 -3.9 16.4-13.8 14.2-19.6 17 3.8-0.1 7.7-1.1 10.7-2.5C339 310.1 342.8 308.1 344.7 303.3z" class="c"/><path d="M374.5 248.3c-12.9-14.2-19.5 5.5-18.2 15.1 1.1 10.2-1.7 17.7-3.4 23.5 -1.9 6.7-6 12.9-10.8 16.3 -5.4 12-15.5 8.1-19.9 12.9 -3 3.3-1.2 12.8 8.9 14.6 10.1 1.8 17.5-1.4 20-9.7 2.5-8.4 10.7-9.5 11-25.5 0.4-22.7 12.8-31.6 11.5-40.6 1.3 0.5 1.8 0.2 2.7 0.3 -1.2-3.2-3.9-4.1-5-7.2C372.5 248.8 373.4 248.2 374.5 248.3z" class="d"/><path d="M357.1 301.9c2.9-11 2.2-20.9 6.5-32 2.4-5.7 1-13.4 1-20.6 1.4 0.5 2.9 1.4 4.3 2.4 -1.8-2.5-3.3-5.7-3.7-8.3 -6.7 0.9-9.8 13.1-8.9 20 1.1 10.2-1.7 17.7-3.4 23.5 -1.9 6.7-6 12.9-10.8 16.3 -5.4 12-15.5 8.1-19.9 12.9 -2.5 2.7-0.8 7.6 0.7 9.4 3.2 3.6 18.4 1.7 20.6-2.8C346.8 315 355.2 308.6 357.1 301.9z" class="e"/><path d="M326.2 315c8.3-2.1 14-1.7 19.4-14.7 -1 1.1-2.3 2.2-3.4 3 -5.4 12-15.5 8.1-19.9 12.9 -1.4 1.5-1.5 3.7-1 5.6C321.3 319.6 323 315.8 326.2 315z" class="f"/><path d="M336.2 331.5c-1.6 0-3.3-0.2-5.1-0.5 -6.9-1.2-9.2-5.8-9.8-7.8 -0.9-2.8-0.6-5.7 0.8-7.2 1.7-1.9 4.2-2.5 6.9-3.1 5.6-1.3 11.9-2.9 14.8-15.4 1.1-4.5-0.1-14.4-1.4-24.9 -0.9-7.6-1.9-15.6-2.2-22.7 -0.4-10.1 1.1-15.8 3-17.8 -2.3 3.6-2.8 10.2-2.5 17.9 0.3 7 1.2 15 2.2 22.6 1.3 11 2.5 20.4 1.4 25 -3 12.8-9.8 14.4-15.2 15.7 -2.7 0.7-5.1 1.2-6.7 3 -1.3 1.4-1.6 4.2-0.7 6.8 0.6 1.8 2.8 6.3 9.5 7.5 10.3 1.9 17.3-1.5 19.7-9.6 0.9-3.1 2.6-5.2 4.4-7.4 3.1-3.9 6.4-7.9 6.5-18 0.2-13.3 4.4-21.7 7.8-28.4 2.4-4.7 4.2-8.4 3.7-12.1l-0.1-0.4 0.4 0.2c0.8 0.3 1.2 0.3 1.7 0.3 0.2 0 0.3 0 0.5 0 -0.6-1.3-1.5-2.3-2.3-3.2 -0.9-1-1.9-2.1-2.5-3.6l-0.2-0.6 0.5 0.3c0.7 0.4 1.3 0.3 1.9 0.2 0.3 0 0.6-0.1 0.9-0.1 -0.5-1.6-1.8-3.2-3.2-5.2 -2.4-3.3-5.3-8.3-5-10.9 0.6 4.2 3.1 7.6 5.4 10.7 1.6 2.1 2.9 3.9 3.4 5.7l0.1 0.4 -0.4-0.1c-0.4-0.1-0.8 0-1.2 0 -0.5 0.1-1 0.1-1.6-0.1 0.5 1.2 1.3 2.1 2.2 3 1 1 1.9 2.1 2.6 3.7l0.2 0.4 -0.4-0.1c-0.3 0-0.5 0-0.8 0 -0.4 0-0.9 0-1.5-0.2 0.4 3.7-1.5 7.4-3.8 12 -3.4 6.7-7.6 15.1-7.8 28.2 -0.2 10.3-3.6 14.5-6.6 18.3 -1.8 2.2-3.4 4.3-4.3 7.3C349.3 327.9 343.9 331.5 336.2 331.5z" class="g"/><path d="M328.2 330.2c-1.9-1.1-3-3.2-3.2-5.7 -0.1-2.2 0.5-4.2 1.6-5.1 1-0.8 2.3-1.1 3.7-1.4 2-0.4 4.2-0.8 6-3.1 -1.3 1.9-2.7 2.9-5.9 3.5 -1.3 0.3-2.6 0.5-3.5 1.3 -1 0.8-1.6 2.7-1.4 4.7 0.2 2.3 1.2 4.3 3 5.3L328.2 330.2z" class="g"/><path d="M326.8 323.1c-1.1-0.5-5.4 2.1-6.7 6.1 -0.9 2.6 4-0.8 7-1.2C329.9 327.8 327.9 323.7 326.8 323.1z" class="h"/><path d="M326.8 323.1c-1.1-0.5-5.4 2.1-6.7 6.1 -0.9 2.6 2.7-1.9 5.7-2.2C328.6 326.7 327.9 323.7 326.8 323.1z" class="i"/><path d="M320.4 330.5L320.4 330.5c-0.3 0-0.5-0.1-0.6-0.3 -0.2-0.2-0.2-0.6 0-1 1.3-3.9 5.1-6.4 6.6-6.4 0.2 0 0.3 0 0.5 0.1 0.8 0.4 2 2.5 1.8 4 -0.1 0.6-0.5 1.3-1.7 1.4 -1.1 0.1-2.6 0.7-3.8 1.2C322 330.1 321.1 330.5 320.4 330.5zM326.4 323.3c-1.5 0-5 2.5-6.2 6 -0.1 0.4-0.1 0.6-0.1 0.6 0 0.1 0.2 0.1 0.2 0.1l0 0c0.5 0 1.5-0.4 2.6-0.9 1.3-0.5 2.8-1.2 4-1.3 0.7-0.1 1.1-0.4 1.2-1.1 0.2-1.3-0.9-3.2-1.5-3.5C326.6 323.3 326.5 323.3 326.4 323.3z" class="j"/><path d="M321.9 319.2c-1.1-0.4-4.7 2.4-5.5 6.1 -0.5 2.4 3.5-1.1 6.1-1.7C325.1 323.1 323 319.6 321.9 319.2z" class="h"/><path d="M321.9 319.2c-1.1-0.4-4.7 2.4-5.5 6.1 -0.5 2.4 2.3-1.9 4.9-2.5C323.9 322.3 323 319.6 321.9 319.2z" class="i"/><path d="M316.8 326.4L316.8 326.4c-0.3 0-0.4-0.1-0.5-0.2 -0.2-0.2-0.2-0.5-0.1-0.9 0.8-3.6 4.1-6.3 5.5-6.3 0.1 0 0.2 0 0.3 0 0.8 0.3 2.1 2.1 2 3.4 0 0.8-0.5 1.3-1.4 1.5 -1 0.2-2.2 0.9-3.3 1.5C318.2 325.9 317.3 326.4 316.8 326.4zM321.7 319.4c-1.1 0-4.3 2.5-5 5.9 -0.1 0.4 0 0.5 0 0.5 0 0 0.1 0 0.1 0 0.4 0 1.3-0.5 2.3-1 1.1-0.6 2.4-1.3 3.4-1.5 0.6-0.1 1-0.5 1-1 0.1-1.2-1.1-2.7-1.7-2.9C321.8 319.4 321.8 319.4 321.7 319.4z" class="j"/><path d="M408.3 192.7c5.2 20.5 32.2 57.2 48.5 75.3 14 15.7 14.3 50.2 10 63 -4.4 12.8-48 26.2-60.8-18.5 -10.1-15.1-41-34.6-53.4-63.8L408.3 192.7z" class="a"/><path d="M447.4 311.6c7.6-8.6 4.3-22.1-0.7-33.1 -11.7-25.7-40.6-43-47.4-76.7l-46.7 47c12.4 29.2 43.3 48.7 53.4 63.8 1.1 3.9 2.5 7.4 4 10.4C423.9 324.5 437.8 322.1 447.4 311.6z" class="b"/><path d="M421.2 287.9c-2-5-10.1-4.5-13.1-9.6 -12.4-17.1-41.9-28.9-40.3-44.9l-15.3 15.4c12.4 29.2 43.3 48.7 53.4 63.8 10.1 35.4 39.7 34.3 53.6 25.9C442.2 326.5 429.4 308 421.2 287.9z" class="e"/><path d="M441.2 343.6c-7.6 0-14.6-2.3-20.4-6.7 -7-5.3-12.1-13.4-15.1-24.2 -3.6-5.4-9.9-11.4-17.1-18.2 -12.6-12-28.3-26.8-36.3-45.6l-0.1-0.2 0.1-0.1 56-56.4 0.1 0.4c5.1 20.3 31.4 56.2 48.4 75.2 14 15.6 14.4 50.3 10 63.2C464.8 337.2 454 343.6 441.2 343.6zM352.8 248.8c7.9 18.5 23.5 33.3 36.1 45.2 7.3 6.9 13.6 12.9 17.2 18.4l0 0.1c7.9 27.6 27.1 30.6 35 30.6 12.4 0 23.3-6.4 25.2-12.2 4.4-12.8 3.9-47.2-9.9-62.7 -16.9-18.9-43-54.6-48.4-75L352.8 248.8z" class="g"/><path d="M446.9 278.3c-19.5-21.8-53.5-15.6-63-2.9 1.8-0.2 4.1-0.4 5.8 1.2 -2.8 0.7-10.6 4.6-13.2 12.4 1.6-1.4 5.5-2.3 6.5-1.5 -4.9 2.1-8.6 9.3-8.8 15.2 2-2.6 4.1-2.7 6.5-4 -1.3 4.5-3.3 4.8-2 12 0.6-1.4 1.4-3.3 2.4-3.3 0.6 9.1 11.4 21.7 19 24.3 -8.6 1.7-15.6-3.6-23.2-3.7 -6.9-0.1-20.3 4.5-17.8 16.5 3.7 17.3 80.9 35.4 107.6-6.9L446.9 278.3z" class="a"/><path d="M443.6 332.6c7.5-16.7-14.9-21-30-24.6 14.9-1.4 45.9-4 33.5-29l-0.2-0.7c-19.5-21.8-53.5-15.6-63-2.9 1.8-0.2 4.1-0.4 5.8 1.2 -2.8 0.7-10.6 4.6-13.2 12.4 1.6-1.4 5.5-2.3 6.5-1.5 -4.9 2.1-8.6 9.3-8.8 15.2 2-2.6 4.1-2.7 6.5-4 -1.3 4.5-3.3 4.8-2 12 0.6-1.4 1.4-3.3 2.4-3.3 0.6 9.1 11.4 21.7 19 24.3 -8.6 1.7-15.6-3.6-23.2-3.7 -6.9-0.1-20.3 4.5-17.8 16.5 1.4 6.5 13.3 13.2 28.9 16.7C411.9 362.1 434.2 353.5 443.6 332.6z" class="b"/><path d="M403.7 331.3c-12.1-3.5-24.2-18.8-19.1-28.7 -1 0-3 1-3 0.5 -1-2.5 3-4 3-7 -2 0.5-4 0.5-6 0.5 1.5-6 7.6-8.6 12.6-10.6 -3-0.5-6.1-1.2-9.7-0.5 2.1-4.3 9.1-6.5 13.2-9 -2-0.5-3.6-2.9-5-3 16.9-13.7 42.6-6.9 56.1 3.7 -19.6-20.3-52.6-14.1-61.8-1.6 1.8-0.2 4.1-0.4 5.8 1.2 -2.8 0.7-10.6 4.6-13.2 12.4 1.6-1.4 5.5-2.3 6.5-1.5 -4.9 2.1-8.6 9.3-8.8 15.2 2-2.6 4.1-2.7 6.5-4 -1.3 4.5-3.3 4.8-2 12 0.6-1.4 1.4-3.3 2.4-3.3 0.6 9.1 11.4 21.7 19 24.3 -3.7 0.7-7.1 0.2-10.4-0.7C394.1 333 398.8 333.6 403.7 331.3z" class="c"/><path d="M381.2 307.5c0.5 10.2 12.5 22.1 19 24.3 -8.6 1.7-15.6-3.6-23.2-3.7 -6.9-0.1-20.3 4.5-17.8 16.5 3.7 17.3 74.3 35.3 101-7 0 0 3.3-9.1-2.8-10.5 -12.8-2.9-19.3 1.5-40.2-0.1C398.2 325.3 385.5 318.4 381.2 307.5z" class="d"/><path d="M438 336c3.8-2.1 7.1-6.5 7.1-9.8 -8.9 0.8-15.5 1.7-27.9 0.7 -19.1-1.5-31.7-8.4-36-19.4 0.5 10.2 12.5 22.1 19 24.3 -8.6 1.7-15.6-3.6-23.2-3.7 -5.4-0.1-15 2.8-17.5 9.9C356.4 347.6 420.1 345.7 438 336z" class="e"/><path d="M377 329.8c9.6-0.5 12.5 5.3 28.7 3.7 -9.7-3.9-17.4-11.4-21.6-20.9 -0.9-1.4-2.3-3.6-2.9-5.1 0.5 10.2 12.5 22.1 19 24.3 -8.6 1.7-15.6-3.6-23.2-3.7 -5.4-0.1-15 2.8-17.5 9.9 -0.2 0.7-0.1 1.3 0.3 1.9C363.2 333.3 370.2 329.8 377 329.8z" class="f"/><path d="M410.8 363.9c-6.4 0-12.7-0.6-18.6-1.7 -18-3.2-31.7-10.5-33.2-17.7 -0.8-3.9-0.1-7.3 2.3-10.1 4-4.9 11.5-6.7 15.6-6.7 0.1 0 0.1 0 0.2 0 3.2 0 6.2 1 9.5 2 4 1.2 8.2 2.5 12.7 1.9 -7.5-3.1-17.5-14.9-18.2-23.9 -0.8 0.3-1.6 2.2-2 3.1l-0.3 0.8 -0.2-0.8c-0.9-5.2-0.2-6.9 0.8-9.1 0.3-0.7 0.7-1.5 1-2.5 -0.5 0.2-1 0.4-1.5 0.6 -1.6 0.7-3 1.2-4.4 3.1l-0.5 0.6 0-0.8c0.2-5.5 3.6-12.7 8.4-15.2 -1.3-0.2-4.3 0.5-5.7 1.7l-0.7 0.6 0.3-0.8c2.6-7.9 10.2-11.6 12.9-12.5 -1.5-1.2-3.4-1-5.1-0.8l-0.7 0.1 0.3-0.5c4.8-6.5 15.5-11.1 27.3-11.6 15-0.7 27.1 4.3 35.7 14.8 -11.9-13.3-27.5-14.7-35.7-14.3 -11.4 0.5-21.7 4.8-26.5 11 1.8-0.1 3.8-0.2 5.4 1.3l0.3 0.3 -0.5 0.1c-3 0.7-10.1 4.6-12.7 11.5 1.9-1.1 5.1-1.9 6.2-1.1l0.3 0.3 -0.4 0.2c-4.8 2.1-8.2 8.8-8.6 14.2 1.3-1.5 2.7-2 4.1-2.6 0.6-0.3 1.3-0.5 2-0.9l0.5-0.3 -0.2 0.6c-0.4 1.3-0.8 2.3-1.2 3.1 -0.9 2-1.6 3.5-0.9 7.9 0.7-1.4 1.4-2.6 2.3-2.6h0.2l0 0.2c0.6 9 11.4 21.6 18.8 24l0.9 0.3 -0.9 0.2c-5 1-9.5-0.4-13.9-1.7 -3.2-1-6.2-1.9-9.3-1.9 -4 0-11.4 1.6-15.4 6.5 -2.2 2.7-2.9 6-2.2 9.7 1.5 6.9 15.3 14.2 32.8 17.3 25.6 4.6 58.6 0.6 74.3-24.3l0.4 0.3C454.9 357 432.3 363.9 410.8 363.9z" class="g"/><path d="M397.5 330.8l0.3-0.4c3.9 2.7 14.4 3.1 14.5 3.1C412.4 333.5 401.5 333.6 397.5 330.8z" class="g"/><path d="M472.6 333c1.4-1.3 4.1-0.8 5.8 0.8 -2.8-10.5-11.5-11.7-11.5-11.7l-6.1 6.1c0.7 1.3 0.9 2.6 0.5 3.7 -1.3 2.5-3.5 3.4-6 3.3 -7.1 6.2-23.7 5.3-26.4 4.4 0.9 1.3 2.2 2.5 4.4 3.8 -4-0.6-17.8-7-23.4-5.6 1.5 1.1 2.5 3.1 2.5 4.3 -9.9-6.9-25.6-2.2-35-8.4 -0.2 1.3 0.9 3.4 1.6 4.9 -14.1-4.5-28.2-0.8-35.3 6.6 2.9-0.1 4.9-0.6 7.3 1.2 -6.3 0.7-11.8 11.8-28.8 10.6 3.1 3.5 12.5 6.9 17.8 5.9 -4.5 1.9-6.4 5.4-12.2 5.9 20.8 11.1 35.5 3.1 46.7 4.3 -2 1.7-4.4 2.1-6.7 5.3 7.1-2.7 18.3-0.5 28.1-4.5 -1.9 2.4-2 3.6-3.4 5.7 14.1-4.4 35.3-1.8 47.3-9.7 -0.3 1.6-0.6 3-1.9 3.9 10.7-0.3 22.2-7.9 25.6-11.6 0 1.6-0.6 3.5-1.9 4.9 7.6-2.1 14.6-12.5 14.2-19.9 1 0 2.4 1.3 2.6 3C481.4 342.5 476.6 334.2 472.6 333z" class="a"/><path d="M368.1 344.4c9.1 3 15.7-0.6 25.7 3.1 -1.9-3.9-2.5-3.1-4-5.7 4.5 2 9.6 4 14.6 5 -1-2-2-3.5-3.5-4.5 7.1 0.7 12.6 4 18.1 7.1 1 0.5 2.5 1 4 0.5 -1.5-1-2-2.5-3-4 6.5 3.5 13.6 3.5 20.6 2.5 -2 0-3.5-0.5-5-2 6.7 1.5 12.9 1.8 16.6 0 -3-0.5-4.3-1.4-5-2 7.3 0.4 15.8-8.3 13.8-14.5 -1.3 1.7-3.6 5.3-5.6 5.3 -7.1 6.2-23.7 5.3-26.4 4.4 0.9 1.3 2.2 2.5 4.4 3.8 -4-0.6-17.8-7-23.4-5.6 1.5 1.1 2.5 3.1 2.5 4.3 -9.9-6.9-25.6-2.2-35-8.4 -0.2 1.3 0.9 3.4 1.6 4.9 -14.1-4.5-28.2-0.8-35.3 6.6 2.9-0.1 4.9-0.6 7.3 1.2 -6.3 0.7-11.8 11.8-28.8 10.6 2.5 2.8 9 5.6 14.2 6 11.2-6.1 21.1-15.1 33.8-16.6C368.6 346.4 368.1 345.4 368.1 344.4z" class="b"/><path d="M459.4 328.2c1.6 2.7-1.4 5.2-3.2 6.1 -0.2 0.1-0.4 0.2-0.6 0.3 -6.6 6.8-24 5.9-26.7 4.9 0.9 1.3 2.2 2.5 4.4 3.8 -2.7-0.4-9.9-3.5-16-5 12 5 13.5 6.9 22.6 6.7 -3.3-1.1-2.8-2.1-5-2.7 5.6 1 7.8 2.9 16.4 0 -3.5 0.2-3-0.5-4.8-0.8C457.5 342.5 464.5 330.8 459.4 328.2z" class="e"/><path d="M382 370.9c4.8 0 6.4-2.5 10.7-5.1 -4.5 2-8.4 1.9-13.7 0.2 6.3-1.2 9.1-4.7 12.1-6.8 -5.5 1.9-9.7-0.8-14.7 2.6 3.8-5.8 7.9-4.2 12.7-7.8 -4 1-9.8 1.6-13.2 0.8 4.1-1.1 4-2.7 8.1-3.6 -3.4-0.5-12.4-0.5-17.1 2.1 6.3-6.3 14-3.6 20.9-7.3 -8.1-0.6-10.5-3.2-15.2-3.1 6.2-2.1 9.3 0.2 13.3-1.5 -7.8-1.5-8.4-3.5-12.9-4.3 -11.9-1.9-23.2 1.7-29.2 8.1 2.9-0.1 4.9-0.6 7.3 1.2 -6.3 0.7-11.8 11.8-28.8 10.6 3.1 3.5 12.5 6.9 17.8 5.9 -4.5 1.9-6.4 5.4-12.2 5.9 20.8 11.1 35.5 3.1 46.7 4.3 -2 1.7-4.4 2.1-6.7 5.3 6.5-2.5 18.6-0.3 28.3-4.7C392.4 373.9 385.6 373.6 382 370.9z" class="d"/><path d="M349.4 350.4c3-2.5 9.6-2.4 13.7-2.4 -2.5-1-5-3-7.6-4 5 0 9.6 2 14.6 1.5 -1-1-2.5-1-3-2.5 4.4 1.8 8.9 2 18.6 2.9 -6.6-0.7-8.8-3-13.2-2.9 6.2-2.1 9.3 0.2 13.3-1.5 -7.8-1.5-8.4-3.5-12.9-4.3 -11.9-1.9-23.2 1.7-29.2 8.1 2.9-0.1 4.9-0.6 7.3 1.2 -6.3 0.7-11.8 11.8-28.8 10.6 0 0 0 0 0 0C332 359.7 340 356.9 349.4 350.4z" class="e"/><path d="M391.7 380l0.4-0.6c0.6-0.9 1-1.6 1.3-2.3 0.4-0.8 0.8-1.6 1.5-2.7 -5.2 1.9-10.8 2.2-15.7 2.5 -4.3 0.2-8.4 0.5-11.5 1.7l-0.8 0.3 0.5-0.7c1.5-2.1 3-3 4.5-3.9 0.6-0.3 1.2-0.7 1.7-1.1 -3.2-0.2-6.8 0.2-10.6 0.7 -9.4 1.2-21.1 2.8-35.6-5l-0.7-0.4 0.8-0.1c3.5-0.3 5.6-1.8 7.7-3.3 0.9-0.7 1.9-1.4 3-2 -5.6 0.3-13.6-3-16.5-6.2l-0.4-0.5 0.6 0c11 0.8 17-3.5 21.9-7 2.3-1.6 4.3-3.1 6.3-3.5 -1.8-1.2-3.3-1-5.4-0.9 -0.4 0-0.8 0.1-1.2 0.1l-0.6 0 0.4-0.5c7.7-8.1 22-10.9 35-6.9 -0.7-1.4-1.5-3.3-1.4-4.5l0.1-0.4 0.3 0.2c4.5 3 10.4 3.4 16.7 3.9 6.3 0.5 12.8 0.9 17.9 4.3 -0.2-1.2-1.1-2.7-2.4-3.6l-0.4-0.3 0.5-0.1c3.9-1 11.2 1.6 17.1 3.6 1.9 0.7 3.7 1.3 5 1.6 -1.4-0.9-2.4-2-3.2-3.1l-0.4-0.6 0.7 0.2c2.5 0.8 15.9 1.5 23.6-2.7 2.9-1.6 4.7-3.6 5.4-6.2 0.1 1.4-1.1 4.5-5.1 6.6 -7.6 4.1-19.7 3.6-23.3 2.9 0.9 1.1 2.2 2.2 3.9 3.1l-0.2 0.5c-1.3-0.2-3.7-1-6.5-2 -5.3-1.8-12.4-4.3-16.3-3.7 1.4 1.2 2.2 3 2.2 4.2v0.5l-0.4-0.3c-5-3.5-11.7-4-18.1-4.5 -6.1-0.4-12-0.9-16.5-3.7 0.1 1.1 0.8 2.7 1.4 3.9l0.4 0.9 -0.6-0.2c-12.7-4.1-26.9-1.6-34.6 6.1 0.2 0 0.4 0 0.6 0 2.3-0.2 4.1-0.3 6.2 1.3l0.5 0.4 -0.6 0.1c-2.1 0.2-4.2 1.8-6.7 3.5 -4.6 3.3-10.8 7.7-21.5 7.1 3.4 3.2 12 6.3 17.1 5.4l0.1 0.5c-1.7 0.7-3 1.6-4.3 2.6 -2 1.4-4 2.8-7.2 3.3 14.1 7.3 25.4 5.8 34.6 4.6 4-0.5 7.9-1 11.3-0.7l0.6 0.1 -0.4 0.4c-0.7 0.6-1.5 1.1-2.3 1.5 -1.3 0.7-2.6 1.5-3.9 3.1 3.1-1 6.9-1.2 10.9-1.4 5.2-0.3 11-0.6 16.4-2.8l0.9-0.4 -0.6 0.7c-1.1 1.4-1.6 2.3-2 3.3 -0.3 0.6-0.6 1.1-1 1.8 5.5-1.6 11.9-2.2 18.7-2.8 10.2-0.9 20.7-1.9 27.9-6.6l0.5-0.3 -0.1 0.6c-0.2 1.5-0.6 2.7-1.4 3.6 10.3-0.6 21.2-7.8 24.7-11.5l0.4-0.5v0.6c0 1.5-0.5 3.1-1.4 4.4 6.9-2.5 13.6-12.2 13.3-19.4l0-0.3h0.3c1 0 2.2 1 2.7 2.4 1.1-3.4 0.9-7.3-0.8-10.7 -1.3-2.7-3.3-4.8-5.1-5.4l-0.4-0.1 0.3-0.3c1.4-1.2 3.8-0.9 5.5 0.3 -2.9-9.5-11-11-11.1-11 0 0 9 1.1 11.8 11.6l0.2 0.8 -0.6-0.6c-1.5-1.4-3.7-1.8-5.1-1 1.8 0.8 3.7 2.8 4.9 5.5 1.8 3.9 2 8.2 0.5 11.9l-0.4 0.9 -0.1-0.9c-0.2-1.5-1.3-2.6-2.1-2.8 0.2 7.7-7.1 17.8-14.4 19.8l-0.8 0.2 0.6-0.7c1-1.1 1.6-2.6 1.8-4.1 -4 3.9-15.1 10.9-25.3 11.2l-0.8 0 0.7-0.5c1-0.7 1.4-1.7 1.7-3.2 -7.2 4.5-17.6 5.5-27.6 6.4 -7 0.7-13.7 1.3-19.3 3L391.7 380z" class="g"/><path d="M346.2 51.5c-21.7 11.8-4.4 36.8-17.5 38.1 3 13.1 9.2 15.4 14.4 12.6 5.2-2.9 10.6-7.4 7.9-16.8C348.3 76.1 344.2 61.8 346.2 51.5z" fill="#350D01"/><path d="M337.3 88.8c3.9-5.4-0.3-14.1-0.3-22.2 0-4.4 7.3-9.1 9.3-15.1 -21.7 11.8-4.4 36.8-17.5 38.1 0.3 1.1 0.6 2.2 0.9 3.2C333.3 93.7 334.9 92.2 337.3 88.8z" fill="#631A00"/><path d="M339.2 103.6L339.2 103.6c-2.8 0-8-1.8-10.8-13.9l-0.1-0.3 0.3 0c5.5-0.6 5.4-5.3 5.4-12 -0.1-8.6-0.2-19.4 12.1-26.1l0.5-0.3 -0.1 0.5c-2 10.1 2 24.2 4.7 33.6l0.1 0.2c2.8 9.8-3.2 14.5-8 17.1C341.9 103.2 340.5 103.6 339.2 103.6zM329 89.9c2 8.5 5.6 13.2 10.2 13.2l0 0c1.2 0 2.5-0.4 3.8-1 5-2.8 10.4-7.1 7.8-16.5l-0.1-0.2c-2.6-9.2-6.6-23.1-4.8-33.3 -11.6 6.6-11.5 17-11.4 25.4C334.6 83.9 334.7 89.1 329 89.9z" class="g"/><path d="M336.3 66.6c-0.8-0.4-4.2 3.5-4.9 7 -0.3 1.6 3.4-2.3 5.4-2.8C338.7 70.3 337 67 336.3 66.6z" class="k"/><path d="M336.3 66.6c-0.8-0.4-4.2 3.5-4.9 7 -0.3 1.6 2.3-2.8 4.2-3.8C337.4 68.9 337 67 336.3 66.6z" class="i"/><path d="M331.6 74.2L331.6 74.2c-0.1 0-0.3-0.1-0.3-0.1 -0.1-0.2-0.1-0.4-0.1-0.5 0.7-3.3 3.8-7.2 5-7.2 0.1 0 0.2 0 0.2 0 0.7 0.3 1.7 2.1 1.6 3.4 -0.1 0.7-0.4 1.1-1.1 1.2 -0.9 0.2-2.1 1.2-3.2 1.9C332.6 73.8 332 74.2 331.6 74.2zM331.6 73.7l0 0.3L331.6 73.7C331.6 73.7 331.6 73.7 331.6 73.7zM336.2 66.8c-0.8 0-3.9 3.5-4.5 6.8 0 0 0 0.1 0 0.1 0.3-0.1 1.1-0.7 1.8-1.2 1.1-0.8 2.4-1.8 3.4-2 0.4-0.1 0.6-0.4 0.7-0.8C337.5 68.7 336.6 67 336.2 66.8 336.2 66.8 336.2 66.8 336.2 66.8z" class="j"/><path d="M340.7 68.6c-0.9-0.4-4.7 3.9-5.4 7.8 -0.4 1.8 3.8-2.6 6.1-3.1C343.5 72.8 341.6 69 340.7 68.6z" class="k"/><path d="M340.7 68.6c-0.9-0.4-4.7 3.9-5.4 7.8 -0.4 1.8 3-3.8 5.2-4.3C342.7 71.6 341.6 69 340.7 68.6z" class="i"/><path d="M335.5 77.1L335.5 77.1c-0.2 0-0.3-0.1-0.3-0.2 -0.1-0.2-0.1-0.4-0.1-0.6 0.7-3.7 4.2-8 5.5-8 0.1 0 0.2 0 0.2 0 0.7 0.3 1.9 2.3 1.7 3.8 -0.1 0.7-0.5 1.2-1.2 1.4 -1 0.2-2.4 1.3-3.6 2.2C336.6 76.6 335.9 77.1 335.5 77.1zM340.6 68.9c-0.9 0-4.4 3.9-5.1 7.6 0 0.1 0 0.1 0 0.1 0.3-0.1 1.2-0.7 2-1.3 1.3-0.9 2.7-2 3.8-2.2 0.5-0.1 0.7-0.4 0.8-0.9 0.1-1.2-0.9-3-1.5-3.3C340.6 68.9 340.6 68.9 340.6 68.9z" class="j"/><path d="M420.1 215.5c-0.4-6-4.2-7.6-7.2-13.7 2.6 0.1 4.9 3.1 7.9 0.9 -6.5-2.8-5.5-7.4-10.6-11.2 3.3-0.2 4.6 1.6 6.7 0.4 -5.4-3.5-5.5-11-11.8-14.9 2.6-0.1 3.4-0.9 5.7-0.4 -0.7-4-8.3-4.8-12.6-21.6 -4.4-16.8-2.7-46.5-11.6-59.4 -8.9-12.9-16.5-12.7-21.2-20.8 -5.6-9.6-11.4-23.2-16.6-23.2 -6.2 0-8.3 3.8-8.3 8.9 0 4.8 9.3 30.1 5.1 32.6 -4.3 2.5-14.1-2.1-18.4-10.2 -4.3-8.1-13.6-0.1-9.3 10.9 4.3 11 18.6 29.4 19 45 0.4 15.6-1.8 23.7-4.7 27.7 2-0.2 2.2 0.3 3.9 0 -2.6 2.4-9 15.6-7.7 23 1.1-1.6 3-2.5 3.7-2.5 -3 4.7-4 13.7-3.4 18.4 1.2-1.3 2.7-2.6 4.2-2.6 -1.9 5.5-2.1 15.9-0.8 20.6 1.3-1.2 1.6-2.9 3.1-3.1 -2.2 8.3 2.2 14.6 1.5 19.7 2-2.2 3.2-1.6 4.3-4.4 2.1 10.9 7.7 11.4 10.9 24.2l61.8-36.1c1.6-4.2 0.4-9.9-0.1-12.1C415.6 214.4 418.3 213.9 420.1 215.5z" class="a"/><path d="M323.1 98.1c-0.1-0.1-0.3-0.3-0.4-0.4C323 97.8 323.1 97.9 323.1 98.1c7.3 7 10.3 16.9 16.2 24.8 0-1 0-2.5 0-3.5 4.5 4 6 10.6 11.1 14.1 0-1 0-2 0-3 2.5 2.5 6 4 8.6 6.5 0-1 2.1-2.6 1.5-4 1.5 0.5 2.6 3.7 4.8 5.1 0.3-2 1.3-3.5 1.1-4.5 2.4 1.2 2.4 4.1 5.2 5.8 0-2.4 2.5-4.3 3.2-7.1 0.5 1.9-0.5 4.1 0.6 6 9.1-11.4 15.6-30.4 1.8-49.2 -5.6-6.1-10.6-8.3-14.1-14.3 -5.6-9.6-6.4-22.3-14.2-23 -6.2 0-8.3 3.8-8.3 8.9 0 4.8 9.3 30.1 5.1 32.6 -4.3 2.5-14.1-2.1-18.4-10.2 -3.5-6.7-10.5-2.4-10.4 5.6 2.5 3.8 4.2 7.9 6.5 11.8C322.9 99.4 323.4 98.6 323.1 98.1z" class="b"/><path d="M322.7 97.7c0.1 0.1 0.3 0.3 0.4 0.4C323.1 97.9 323 97.8 322.7 97.7z" class="b"/><path d="M410.8 208.3c-0.4-6-7.3-5.3-10.4-11.5 2.6 0.1 5.6 1.5 8.6-0.7 -6.5-2.8-5-6.6-10.1-10.4 3.3-0.2 6.2 1.8 8.4 0.6 -5.4-3.5-7-8.5-13.2-12.4 2.6-0.1 4.9-0.8 5.7-2.4 -13.3 0.8-9.8-7.1-22.4-12.2 0 1-1.1 3.8-1.1 4.8 -10.8-1.9-11.8-9.5-16.6-9.1 -0.6 0.5 0.1 1.6-1 2 -3-1-6-2.5-9.1-3.5 -0.5 0-0.5 1.5-0.5 2 -4.5-5.8-7.4-12.6-12.2-17.9 0 0.4 0 0.7 0.1 1.1 0.4 15.6-1.8 23.7-4.7 27.7 2-0.2 2.2 0.3 3.9 0 -2.6 2.4-9 15.6-7.7 23 1.1-1.6 3-2.5 3.7-2.5 -3 4.7-4 13.7-3.4 18.4 1.2-1.3 2.7-2.6 4.2-2.6 -1.9 5.5-2.1 15.9-0.8 20.6 1.3-1.2 1.6-2.9 3.1-3.1 -2.2 8.3 2.2 14.6 1.5 19.7 2-2.2 3.2-1.6 4.3-4.4 2.1 10.9 7.7 11.4 10.9 24.2l43.6-15.4 13.7-18.1c-4.8-10.7 1.3-10.1-5.8-18C405.5 211 409 206.6 410.8 208.3z" class="b"/><path d="M356 216.8c-2.1-0.2-6.1 3.3-7.8 10.1 -4.3-7.6-3.8-15.9-1.3-22.9 -2.5 0.4-5.8 4.3-6.8 7.3 -1-12.6 5.7-16.7 7-24.4 -2.7 2.3-5.5 2-7.5 4.8 0.9-7.4 8.1-11.3 8.1-14.9 -1.8 0.9-5.7 3.1-8.2 5.2 0.6-7.7 8.7-13.1 8.7-16.7 -2 1-3.9 0.4-4.8 0.1 6-4.8 1.9-11.4 1.9-16.4 2.6 2.2 5.3 1.8 10.3 0.8 -10.6-5.5-14.3-23.9-11.8-30.1 4-8.2 10.7-3 14.9-9.6 6.2-12.3-7.9-31-7.7-43 0.1-5.1 7.6-3.9 4.9-8.9 -2.7-4.3-4.6-6.6-7.1-6.6 -6.2 0-8.3 3.8-8.3 8.9 0 4.8 9.3 30.1 5.1 32.6 -4.3 2.5-14.1-2.1-18.4-10.2 -4.3-8.1-13.6-0.1-9.3 10.9 4.3 11 18.6 29.4 19 45 0.4 15.6-1.8 23.7-4.7 27.7 2-0.2 2.2 0.3 3.9 0 -2.6 2.4-9 15.6-7.7 23 1.1-1.6 3-2.5 3.7-2.5 -3 4.7-4 13.7-3.4 18.4 1.2-1.3 2.7-2.6 4.2-2.6 -1.9 5.5-2.1 15.9-0.8 20.6 1.3-1.2 1.6-2.9 3.1-3.1 -2.2 8.3 2.2 14.6 1.5 19.7 2-2.2 3.2-1.6 4.3-4.4 2.1 10.9 7.7 11.4 10.9 24.2l20.2-13c-5.3-3.7-17.2-2.1-19.6-11.3C351.4 230 352.5 221.4 356 216.8z" class="d"/><path d="M322.7 97.7c0.1 0.1 0.3 0.3 0.4 0.4C323.1 97.9 323 97.8 322.7 97.7z" class="e"/><path d="M336.8 138.8c0.4 15.6-1.8 23.7-4.7 27.7 2-0.2 2.2 0.3 3.9 0 -2.6 2.4-9 15.6-7.7 23 1.1-1.6 3-2.5 3.7-2.5 -3 4.7-4 13.7-3.4 18.4 1.2-1.3 2.7-2.6 4.2-2.6 -1.9 5.5-2.1 15.9-0.8 20.6 1.3-1.2 1.6-2.9 3.1-3.1 -2.2 8.3 2.2 14.6 1.5 19.7 2-2.2 3.2-1.6 4.3-4.4 2.1 10.9 7.7 11.4 10.9 24.2l20.2-13c-5.3-3.7-17.2-2.1-19.6-11.3 -0.8-5.5 0.3-14.1 3.7-18.7 -2.1-0.2-6.1 3.3-7.8 10.1 -4.3-7.6-3.8-15.9-1.3-22.9 -2.5 0.4-5.8 4.3-6.8 7.3 -1-12.6 5.7-16.7 7-24.4 -2.7 2.3-5.5 2-7.5 4.8 0.9-7.4 8.1-11.3 8.1-14.9 -1.8 0.9-5.7 3.1-8.2 5.2 0.6-7.7 8.7-13.1 8.7-16.7 -2 1-3.9 0.4-4.8 0.1 5.5-4.4 2.5-10.3 2-15 -2.8-4.4-5.2-8.9-8.6-12.7C336.8 138 336.8 138.4 336.8 138.8z" class="e"/><path d="M342.2 230.6c-2.4 0.3-3.5 2.5-5 4 0-6-1.8-12.6 0-18.6 -1.5 0.5-4 1.5-4 1 -1.5-6.5 1.8-11.5 2.8-17.5 -1.5 0-2.8-0.1-4.3-0.1 0-6.5 1.8-10.3 4.3-15.9 -2.5 0-2.8-0.3-4.8-0.3 0-7.6 3.5-13.6 8.6-19.1 -1 0-3.6 0.1-4.2-0.4 2.7-5.1 2.3-23.1 1-28.1 1.3 13.5-2 27.6-4.3 30.9 2-0.2 2.2 0.3 3.9 0 -2.6 2.4-9 15.6-7.7 23 1.1-1.6 3-2.5 3.7-2.5 -3 4.7-4 13.7-3.4 18.4 1.2-1.3 2.7-2.6 4.2-2.6 -1.9 5.5-2.1 15.9-0.8 20.6 1.3-1.2 1.6-2.9 3.1-3.1 -2.2 8.3 2.2 14.6 1.5 19.7 2-2.2 3.2-1.6 4.3-4.4 2.1 10.9 7.7 11.4 10.9 24.2l1.3-0.8c-1.8-7.6-4.3-12.4-8.4-19.5C343.5 237.4 341.7 232.9 342.2 230.6z" class="f"/><path d="M323.1 98.1c-0.1-0.1-0.3-0.3-0.4-0.4C323 97.8 323.1 97.9 323.1 98.1c7.3 7 10.3 16.9 16.2 24.8 0-1 0-2.5 0-3.5 1.5 1.3 2.6 2.9 3.7 4.6 0.1-1.7 0.3-3.1 0.7-4.2 4-8.2 10.7-3 14.9-9.6 6.2-12.3-7.9-31-7.7-43 0.1-5.1 7.6-3.9 4.9-8.9 -2.7-4.3-4.6-6.6-7.1-6.6 -6.2 0-8.3 3.8-8.3 8.9 0 4.8 9.3 30.1 5.1 32.6 -4.3 2.5-14.1-2.1-18.4-10.2 -3.5-6.7-10.5-2.4-10.4 5.6 2.5 3.8 4.2 7.9 6.5 11.8C322.9 99.4 323.4 98.6 323.1 98.1z" class="e"/><path d="M351.2 259.8c-1.6-6.4-3.8-9.6-5.9-12.8 -2-2.9-3.8-5.7-4.9-10.6 -0.6 1.2-1.3 1.6-2 2.1 -0.6 0.4-1.2 0.8-2 1.6l-0.6 0.6 0.1-0.8c0.3-2-0.2-4.2-0.9-6.8 -0.9-3.6-1.9-7.7-0.7-12.5 -0.5 0.2-0.9 0.8-1.3 1.4 -0.3 0.5-0.7 1.1-1.3 1.6l-0.3 0.3 -0.1-0.4c-1.2-4.6-1.1-14.6 0.7-20.4 -1 0.2-2.3 1-3.6 2.5l-0.4 0.4 -0.1-0.5c-0.6-4.3 0.2-13 3.1-18.1 -0.8 0.3-2.1 1.1-2.9 2.3l-0.4 0.5 -0.1-0.6c-1.2-7.1 4.6-19.4 7.3-22.7 -0.5 0-0.9 0-1.3 0 -0.5-0.1-1-0.1-1.9 0l-0.5 0 0.3-0.4c3.4-4.7 4.9-14 4.6-27.5 -0.3-10.5-7-22.6-12.5-32.2 -2.6-4.7-5.1-9.1-6.5-12.7 -2.6-6.6-0.3-12.5 3.2-14.1 1.9-0.9 4.6-0.6 6.5 3 2.9 5.5 8.3 9.2 12.4 10.3 2.3 0.7 4.3 0.6 5.6-0.2 2.7-1.6-0.5-13.4-2.9-22.1 -1.2-4.6-2.3-8.6-2.3-10.3 0-6 3-9.1 8.6-9.1 4.2 0 8.5 8 13.1 16.5 1.2 2.3 2.5 4.6 3.7 6.8 2.1 3.7 4.9 5.6 8.1 7.9 3.9 2.8 8.2 5.9 13.1 12.9 5.6 8.1 7 22.7 8.4 36.8 0.8 8.4 1.6 16.4 3.2 22.7 2.9 11 7.1 15 9.9 17.7 1.5 1.4 2.5 2.4 2.8 3.9l0.1 0.4 -0.4-0.1c-1.3-0.3-2.1-0.1-3 0.1 -0.5 0.1-1.1 0.2-1.8 0.3 2.9 2.1 4.4 4.9 5.9 7.6 1.4 2.7 2.8 5.2 5.3 6.8l0.4 0.2 -0.4 0.2c-1.3 0.7-2.3 0.4-3.5 0.1 -0.8-0.2-1.6-0.4-2.7-0.5 1.9 1.6 2.9 3.2 3.9 4.8 1.3 2.2 2.6 4.3 6.2 5.9l0.4 0.2 -0.4 0.3c-2.1 1.5-3.7 0.7-5.4 0 -0.8-0.3-1.5-0.7-2.2-0.8 1.1 2.1 2.3 3.7 3.4 5.1 1.8 2.4 3.4 4.5 3.7 8.3l0 0.6 -0.5-0.4c-0.7-0.6-1.6-0.9-2.5-1.3 -1.1-0.4-2.4-0.8-3.6-2 1.7 7.3-0.6 11.1-0.6 11.1 1.6-4.3 0.3-10.2-0.1-11.9l-0.3-1.1 0.7 0.9c1.3 1.6 2.7 2.1 4.1 2.6 0.8 0.3 1.5 0.5 2.2 1 -0.3-3.3-1.8-5.1-3.5-7.4 -1.1-1.5-2.4-3.2-3.6-5.6l-0.2-0.4 0.4 0c1 0 1.9 0.4 2.8 0.8 1.5 0.7 2.9 1.3 4.5 0.3 -3.4-1.6-4.7-3.7-6-5.9 -1-1.7-2.1-3.5-4.3-5.1l-0.6-0.4 0.7 0c1.5-0.1 2.6 0.2 3.5 0.5 1 0.3 1.8 0.5 2.7 0.2 -2.4-1.7-3.7-4.2-5.1-6.7 -1.5-2.9-3.1-5.8-6.3-7.8l-0.7-0.4 0.8 0c1 0 1.8-0.2 2.5-0.3 0.9-0.2 1.7-0.4 2.9-0.2 -0.3-1.1-1.3-2-2.5-3.2 -2.8-2.7-7.1-6.8-10-18 -1.6-6.3-2.4-14.3-3.2-22.8 -1.4-14-2.8-28.6-8.3-36.6 -4.8-7-9.1-10-13-12.8 -3.2-2.3-6-4.3-8.2-8.1 -1.2-2.1-2.5-4.5-3.7-6.8 -4.3-8-8.7-16.3-12.6-16.3 -5.4 0-8.1 2.9-8.1 8.6 0 1.6 1.1 5.6 2.3 10.2 2.5 9.3 5.6 20.9 2.6 22.6 -1.5 0.9-3.6 0.9-6 0.3 -4.2-1.2-9.7-4.9-12.7-10.6 -1.5-2.8-3.7-3.8-5.9-2.8 -3.3 1.5-5.4 7.1-3 13.5 1.4 3.5 3.9 8 6.5 12.6 5.5 9.7 12.3 21.8 12.5 32.5 0.3 13.3-1.2 22.5-4.4 27.4 0.7 0 1.1 0 1.5 0.1 0.5 0.1 1 0.1 1.8 0l0.8-0.1 -0.6 0.6c-2.4 2.2-8.6 14.7-7.7 22.2 1.2-1.4 2.8-2.1 3.5-2.2l0.5 0 -0.3 0.4c-3 4.7-3.9 13.2-3.4 17.7 1.1-1.1 2.5-2.3 4-2.3h0.4l-0.1 0.3c-1.8 5.4-2 15.3-0.9 20.1 0.4-0.4 0.6-0.8 0.9-1.2 0.5-0.8 1-1.5 2-1.7l0.4-0.1 -0.1 0.4c-1.3 4.9-0.3 9 0.6 12.7 0.6 2.3 1.1 4.3 0.9 6.2 0.6-0.6 1.1-0.9 1.6-1.2 0.9-0.6 1.5-1 2.1-2.6l0.3-0.8 0.2 0.9c1 5.4 2.9 8.2 5 11.2 2.1 3.2 4.3 6.5 5.9 12.9L351.2 259.8z" class="g"/><path d="M350 50.5c-3.6-1-9.2 1.5-8 4.6 1.3 3.1 9 8.1 12 6.7C357.1 60.4 355.8 52 350 50.5z" fill="#1D252D"/><path d="M350 50.5c-3.6-1-9.2 1.5-8 4.6 1.3 3.1 7.5 5.7 10.6 4.4C355.6 58.1 355.8 52 350 50.5z" fill="#2C3642"/><ellipse transform="matrix(0.9857 -0.1682 0.1682 0.9857 -3.8376 59.1513)" cx="347.2" cy="52.2" rx="2.9" ry="0.9" fill="#4D5863"/><path d="M352.8 62.3L352.8 62.3c-3.7 0-9.9-4.4-11-7.1 -0.3-0.8-0.2-1.7 0.3-2.5 1-1.5 3.6-2.7 6.2-2.7 0.7 0 1.3 0.1 1.8 0.2 3.7 1 5.6 4.6 5.8 7.6 0.2 2.1-0.5 3.7-1.7 4.2C353.8 62.2 353.3 62.3 352.8 62.3zM348.2 50.5c-2.3 0-4.8 1.1-5.8 2.5 -0.4 0.7-0.5 1.3-0.2 2 1 2.6 7.1 6.8 10.6 6.8l0 0c0.4 0 0.8-0.1 1.1-0.2 1-0.4 1.6-1.9 1.4-3.7 -0.2-2.8-2-6.2-5.4-7.1C349.4 50.6 348.9 50.5 348.2 50.5z" class="l"/><path d="M335.2 131l0.5-0.1c3.1 11.9 13.2 14.9 13.3 14.9C349 145.8 338.3 143.2 335.2 131z" class="g"/><path d="M366.7 86.3c0.4-0.3 6.6 5.2 7.3 6.5 0.8 1.3 4.3 9.9 2.8 9.1 -1.1-0.6-5.4-5.9-6.2-7.2C369.8 93.5 366.1 86.7 366.7 86.3z" class="l"/><path d="M380.1 252.5c1.3 0.7 2.3 0.1 3.5 0.3 -1.2-4.4-8-9.7-9-17.2l-19.6-10.5c-1.7 2.3-3.3 2.8-2.9 8.5 -11 10.4 2.9 56.8-0.5 71.1 -4.7 19.8-17.6 13.8-22.9 19.6 -3.1 3.4-1.3 13.5 9.3 15.4 10.6 1.9 18.4-1.5 21-10.2 2.7-8.8 11.3-9.9 11.5-26.8 0.4-23.9 13.5-33.2 12.1-42.7 1.3 0.5 1.8 0.2 2.8 0.3C384.1 256.7 381.3 255.7 380.1 252.5z" class="a"/><path d="M374.6 235.5l-8.2-15 -11.4 4.4c-1.7 2.3-3.3 2.8-2.9 8.5 -11 10.4 2.9 56.8-0.5 71.1 -4.7 19.8-17.6 13.8-22.9 19.6 -3.1 3.4-1.3 13.5 9.3 15.4 10.6 1.9 18.4-1.5 21-10.2 2.7-8.8 11.3-9.9 11.5-26.8 0.2-15 5.4-24.2 9-31.3C376.6 260.2 370.9 243.3 374.6 235.5z" class="b"/><path d="M352.2 310.5c2-6 2.1-11.4 1.6-17.5 -1.6-20.1-7.7-44.8-2-59.4 -10.4 15 3 57-0.3 70.9 -4.1 17.3-14.5 14.9-20.6 17.8 4-0.1 8.1-1.1 11.3-2.6C346.3 317.7 350.2 315.6 352.2 310.5z" class="c"/><path d="M383.6 252.7c-13.5-14.9-20.5 5.8-19.2 15.9 1.2 10.7-1.8 18.6-3.6 24.8 -2 7-6.3 13.6-11.3 17.1 -5.7 12.6-16.3 8.5-20.9 13.6 -3.1 3.4-1.3 13.5 9.3 15.4 10.6 1.9 18.4-1.5 21-10.2 2.7-8.8 11.3-9.9 11.5-26.8 0.4-23.9 13.5-33.2 12.1-42.7 1.3 0.5 1.8 0.2 2.8 0.3 -1.3-3.3-4.1-4.3-5.2-7.6C381.4 253.2 382.4 252.5 383.6 252.7z" class="d"/><path d="M365.3 309c3-11.6 2.3-22 6.8-33.6 2.5-6 1-14.1 1-21.7 1.5 0.5 3 1.5 4.5 2.5 -1.9-2.6-3.5-6-3.8-8.7 -7.1 0.9-10.3 13.8-9.3 21 1.2 10.7-1.8 18.6-3.6 24.8 -2 7-6.3 13.6-11.3 17.1 -5.7 12.6-16.3 8.5-20.9 13.6 -2.6 2.8-0.9 8 0.8 9.9 3.3 3.8 19.3 1.8 21.7-2.9C354.5 322.8 363.3 316.1 365.3 309z" class="e"/><path d="M332.7 322.8c8.8-2.2 14.8-1.8 20.4-15.5 -1.1 1.1-2.4 2.3-3.6 3.2 -5.7 12.6-16.3 8.5-20.9 13.6 -1.5 1.6-1.6 3.9-1.1 5.9C327.6 327.7 329.4 323.7 332.7 322.8z" class="f"/><path d="M343.3 340.2c-1.7 0-3.5-0.2-5.4-0.5 -7.3-1.3-9.7-6.2-10.3-8.2 -1-2.9-0.6-5.9 0.9-7.6 1.8-2 4.5-2.6 7.3-3.3 5.8-1.4 12.5-3 15.6-16.1 1.1-4.8-0.1-15.2-1.4-26.2 -1-8-2-16.4-2.3-23.9 -0.4-10.6 1.1-16.6 3.2-18.7 -2.4 3.7-3 10.7-2.7 18.8 0.3 7.4 1.3 15.8 2.3 23.7 1.4 11.5 2.6 21.5 1.4 26.3 -3.2 13.4-10.3 15.1-16 16.5 -2.9 0.7-5.3 1.3-7 3.1 -1.4 1.5-1.7 4.4-0.8 7.1 0.7 1.9 2.9 6.6 10 7.8 10.8 2 18.2-1.6 20.7-10.1 1-3.3 2.8-5.5 4.6-7.8 3.3-4.1 6.7-8.3 6.9-18.9 0.2-13.9 4.7-22.8 8.2-29.9 2.5-5 4.5-8.9 3.9-12.8l-0.1-0.4 0.4 0.2c0.8 0.3 1.3 0.3 1.8 0.3 0.2 0 0.3 0 0.5 0 -0.6-1.4-1.6-2.4-2.4-3.4 -1-1.1-2-2.2-2.6-3.8l-0.2-0.6 0.6 0.3c0.7 0.4 1.4 0.3 2 0.2 0.3 0 0.6-0.1 1-0.1 -0.5-1.6-1.9-3.4-3.4-5.4 -2.6-3.4-5.6-8.7-5.3-11.5 0.6 4.4 3.3 8 5.7 11.2 1.7 2.2 3.1 4.1 3.6 6l0.1 0.4 -0.4-0.1c-0.4-0.1-0.8 0-1.2 0 -0.5 0.1-1.1 0.1-1.7-0.1 0.6 1.3 1.4 2.2 2.3 3.1 1 1.1 2 2.2 2.7 3.9l0.2 0.4 -0.4-0.1c-0.3 0-0.6 0-0.8 0 -0.5 0-0.9 0-1.6-0.2 0.4 3.9-1.6 7.8-4 12.6 -3.5 7.1-8 15.8-8.2 29.7 -0.2 10.8-3.8 15.3-7 19.2 -1.9 2.3-3.6 4.5-4.6 7.6C357 336.4 351.3 340.2 343.3 340.2z" class="g"/><path d="M334.9 338.9c-1.9-1.2-3.2-3.4-3.3-6 -0.2-2.3 0.5-4.4 1.7-5.4 1.1-0.9 2.5-1.1 3.9-1.4 2.1-0.4 4.5-0.9 6.3-3.2 -1.3 2-2.9 3-6.2 3.7 -1.4 0.3-2.7 0.5-3.7 1.3 -1 0.8-1.6 2.9-1.5 4.9 0.2 2.5 1.3 4.5 3.1 5.6L334.9 338.9z" class="g"/><path d="M333.4 331.4c-1.2-0.6-5.7 2.2-7.1 6.4 -0.9 2.8 4.2-0.9 7.3-1.2C336.6 336.3 334.5 331.9 333.4 331.4z" class="h"/><path d="M333.4 331.4c-1.2-0.6-5.7 2.2-7.1 6.4 -0.9 2.8 2.9-2 6-2.3C335.3 335.2 334.5 331.9 333.4 331.4z" class="i"/><path d="M326.7 339.1L326.7 339.1c-0.3 0-0.5-0.1-0.7-0.3 -0.2-0.2-0.2-0.6 0-1.1 1.4-4.1 5.3-6.7 7-6.7 0.2 0 0.3 0 0.5 0.1 0.9 0.4 2.2 2.6 1.9 4.2 -0.1 0.6-0.5 1.4-1.8 1.5 -1.2 0.1-2.7 0.8-4 1.3C328.4 338.7 327.3 339.1 326.7 339.1zM333 331.6c-1.5 0-5.2 2.6-6.5 6.3 -0.2 0.5-0.1 0.6-0.1 0.6 0 0.1 0.2 0.1 0.2 0.1l0 0c0.5 0 1.6-0.4 2.7-0.9 1.4-0.6 2.9-1.2 4.2-1.3 0.8-0.1 1.2-0.4 1.3-1.1 0.2-1.3-1-3.3-1.6-3.6C333.2 331.6 333.1 331.6 333 331.6z" class="j"/><path d="M328.3 327.3c-1.1-0.4-4.9 2.5-5.8 6.4 -0.6 2.6 3.7-1.2 6.4-1.7C331.6 331.4 329.3 327.6 328.3 327.3z" class="h"/><path d="M328.3 327.3c-1.1-0.4-4.9 2.5-5.8 6.4 -0.6 2.6 2.4-2 5.2-2.6C330.3 330.5 329.3 327.6 328.3 327.3z" class="i"/><path d="M322.9 334.8L322.9 334.8c-0.3 0-0.4-0.1-0.5-0.2 -0.2-0.2-0.2-0.5-0.1-1 0.9-3.8 4.3-6.6 5.8-6.6 0.1 0 0.2 0 0.3 0 0.8 0.3 2.2 2.2 2.1 3.6 0 0.8-0.6 1.4-1.5 1.5 -1 0.2-2.3 0.9-3.5 1.5C324.3 334.3 323.4 334.8 322.9 334.8zM328 327.5c-1.2 0-4.5 2.6-5.3 6.2 -0.1 0.4 0 0.5 0 0.5 0 0 0.1 0 0.1 0 0.5 0 1.4-0.5 2.4-1 1.2-0.6 2.5-1.3 3.6-1.6 0.7-0.1 1-0.5 1.1-1.1 0.1-1.2-1.2-2.9-1.8-3.1C328.1 327.5 328.1 327.5 328 327.5z" class="j"/><path d="M408.6 159.7c-12.4-17.3-2.5-34.2-24.2-45.3l-8.7 21.3c-1.1 6.5 3.2 9.8 3.9 14.7 1-0.9 0.9-3.7 1.5-4.8 0.8 4.3 2.5 7 5 8.5 -0.2-1.1 0.6-1.7 0.7-4.1 2 2.6 2.1 8.2 8.8 9.7 -1.2-1-1.7-2.9-1.7-4.8C398.9 161.2 405.7 160.8 408.6 159.7z" class="a"/><path d="M386.6 145.1c2.8 4 2.3 4.6 4.6 7.5 -0.5-1.8 0.2-2.1 0-3.7 2.5 3.5 5.6 4.9 9.7 4.4 -6.9-9.7-1.6-28-15.8-38.3 -0.6-0.4-3.2-1-3.9-1.3l-9.4 7.9 4.1 12c-2.2 8.1 2.9 11.9 3.7 16.8 1-0.9 0.9-3.7 1.5-4.8 0.7 4.2 1.8 5.3 4.2 6.8C385.7 146.4 385.4 148.5 386.6 145.1z" class="b"/><path d="M404.7 160.6c-3.2 0-7.2-1.2-10.5-5 0.1 1.7 0.7 3.1 1.6 3.9l-0.2 0.4c-5-1.1-6.4-4.5-7.6-7.2 -0.3-0.7-0.6-1.4-1-2 -0.1 0.9-0.3 1.5-0.4 2 -0.2 0.5-0.3 0.9-0.2 1.3l0.1 0.5 -0.5-0.3c-2.5-1.4-4.1-4-5-7.7 -0.1 0.3-0.1 0.6-0.2 1 -0.2 1.2-0.4 2.4-1.1 3l-0.3 0.3 -0.1-0.5c-0.3-1.9-1.1-3.5-2-5.3 -2.5-5-2.5-7.8-1.7-9.5 -0.7 3.9 0.8 6.6 2.1 9.3 0.8 1.6 1.6 3.1 2 4.8 0.3-0.6 0.5-1.5 0.6-2.3 0.1-0.8 0.3-1.5 0.5-2l0.3-0.6 0.1 0.7c0.7 3.8 2.2 6.5 4.5 8.1 0-0.4 0.1-0.7 0.2-1.1 0.2-0.6 0.4-1.3 0.5-2.6l0-0.7 0.4 0.6c0.6 0.7 1 1.7 1.4 2.7 1.1 2.6 2.3 5.5 6.4 6.7 -0.7-1-1.2-2.6-1.2-4.3v-0.7l0.4 0.6c5 6.3 11.5 5.7 14 4.8 -4.9-7-6.2-13.7-7.5-20.3 -1.2-6.3-2.4-12-6.4-17 -2.2-2.8-5.4-5.4-9.9-7.7 0 0 5.8 1.9 10.3 7.4 4.2 5.2 5.3 11.1 6.5 17.2 1.3 6.6 2.6 13.4 7.6 20.4l0.2 0.3 -0.3 0.1C407.6 160.3 406.3 160.6 404.7 160.6z" class="g"/><path d="M384.9 124.9c10.7 7 8.3 21.2 13.9 27.2 -6.9-1.9-13.1-7.9-15.4-18.2C382.2 128.1 383.9 124.3 384.9 124.9z" fill="#8795AA"/><path d="M398.9 152.1c-0.4-0.4-5.8-2.5-8.4-15.6 -0.3-3.4-1.8-6-3.5-5.5 -0.9 0.3 1.2 2.2 0.2 4.2 -0.5-1-0.7-2.8-2.5-3 -0.9-0.1-1.4 1.1-0.8 3.1C386.3 144.7 392.2 150.3 398.9 152.1z" fill="#C1CAD9"/><path d="M399.7 152.6l-0.9-0.2c-7.7-2.2-13.4-8.8-15.6-18.4 -1-4.6-0.2-7.8 0.6-8.9 0.3-0.4 0.6-0.5 0.8-0.5 0.1 0 0.3 0 0.4 0.1 6.5 4.2 8.2 11 9.8 17.1 1 4 2 7.8 4.2 10.1L399.7 152.6zM384.7 125.1c-0.1 0-0.3 0.1-0.4 0.3 -0.7 0.9-1.6 4.1-0.5 8.5 2 9 7.3 15.4 14.4 17.7 -1.9-2.5-2.8-6-3.8-9.7 -1.5-5.9-3.3-12.7-9.5-16.8C384.7 125.1 384.7 125.1 384.7 125.1z" class="g"/></svg>