<svg version="1.1" id="Layer_1" xmlns="http://www.w3.org/2000/svg" xmlns:xlink="http://www.w3.org/1999/xlink" x="0px" y="0px"
	viewBox="0 0 768 430" enable-background="new 0 0 768 430" xml:space="preserve">
<g>
	<g>
		<g>
			<path fill="#627482" d="M332.041,254.92c-7.333,17.701,3.56,30.756,5.582,36.571c2.024,5.816,4.048,52.492-1.011,65.623
				c-2.621,6.806-14.54,5.624-19.47,5.688c-4.721,0.062-7.334,5.437-8.345,11.127s4.804,6.827,6.45,6.07
				c-0.823,3.443,4.993,5.31,10.114,3.537c23.898,4.933,31.862-15.678,32.56-18.752c9.299,0.97,6.004-9.568,4.739-18.674
				c-1.264-9.103,9.359-48.57,10.513-63.492L332.041,254.92z"/>
			<path fill="#768594" d="M337.623,291.491c2.024,5.816,4.048,52.492-1.011,65.623c-2.621,6.806-14.54,5.624-19.47,5.688
				c-4.721,0.062-7.334,5.437-8.345,11.127c-0.946,4.316,6.132,3.459,7.622,2.257c-0.82,3.443,3.504,5.962,9.421,2.316
				c23.896,4.933,27.525-15.028,28.223-18.103c9.296,0.97,1.019-10.021,3.045-20.191c2.697-13.542,2.259-41.331,4.55-55.97
				l1.34-24.104l-30.956-5.216C324.708,272.621,335.6,285.676,337.623,291.491z"/>
			<path fill="#B6C2CC" d="M326.7,378.406c2.296-6.259,4.261-9.753,7.978-8.977C331.17,366.979,328.33,370.425,326.7,378.406z"/>
			<path fill="#B6C2CC" d="M316.632,376.741c0.514-1.722,3.788-9.991,7.42-9.943C320.134,364.924,317.183,373.662,316.632,376.741z"
				/>
			<path fill="#B6C2CC" d="M332.041,254.92c-7.333,17.701,3.56,30.756,5.582,36.571c2.024,5.816,4.048,52.492-1.011,65.623
				c-2.621,6.806-14.54,5.624-19.47,5.688c-4.721,0.062-7.334,5.437-8.345,11.127c-0.076,0.338-0.095,0.643-0.076,0.919
				c0.074,0.212,0.147,0.431,0.223,0.638c0.831-5.431,4.921-10.549,9.053-10.441c4.131,0.106,15.539,0.859,20.22-5.333
				c5.115-6.771,4.728-56.631,0.348-69.572C337.209,284.944,327.725,268.926,332.041,254.92z"/>
			<g>
				<path fill="#293B47" d="M321.371,366.098c-0.032,0.017-0.062,0.032-0.092,0.051c-2.5,1.326-4.67,6.093-6.282,13.799l0.495,0.102
					c1.578-7.532,3.743-12.325,6.102-13.497c0.797-0.394,1.599-0.388,2.458,0.019C324.052,366.57,322.972,365.394,321.371,366.098z"
					/>
			</g>
			<g>
				<path fill="#293B47" d="M331.234,368.012c-0.103,0.031-0.2,0.081-0.299,0.129c-4.046,1.941-5.423,11.396-5.826,15.373
					l0.502,0.051c0.308-3.035,1.618-13.087,5.544-14.969c1.125-0.54,2.405-0.354,3.803,0.554
					C334.958,369.149,333.388,367.307,331.234,368.012z"/>
			</g>
			<path fill="#293B47" d="M367.837,312.011c-3.019,14.263-6.139,29.014-5.428,34.138c0.18,1.311,0.408,2.667,0.626,3.978
				c0.933,5.577,1.813,10.844-0.398,13.194c-0.981,1.043-2.514,1.441-4.692,1.214l-0.22-0.024l-0.053,0.221
				c-0.373,1.648-2.558,7.442-7.509,12.253c-6.435,6.247-14.761,8.368-24.754,6.308l-0.069-0.016l-0.062,0.024
				c-3.323,1.147-7.182,0.785-8.982-0.845c-0.742-0.671-1.019-1.502-0.804-2.397l0.12-0.507l-0.474,0.219
				c-0.854,0.392-2.98,0.219-4.505-0.958c-0.983-0.757-2.055-2.211-1.589-4.838c0.583-3.261,2.53-10.847,8.099-10.918
				c0.622-0.009,1.352,0.005,2.16,0.016c5.682,0.091,15.19,0.247,17.545-5.869c4.99-12.951,3.118-59.749,1.016-65.794
				c-0.415-1.185-1.2-2.671-2.107-4.396c-3.565-6.75-9.535-18.05-3.717-32.093c0,0-1.226,0.616-2.337,5.889
				c-0.011,0.048-0.021,0.095-0.03,0.141c-2.25,11.368,2.572,20.497,5.635,26.299c0.899,1.706,1.678,3.177,2.079,4.324
				c2.091,6.017,3.952,52.565-1.011,65.45c-2.229,5.784-11.514,5.635-17.063,5.543c-0.817-0.011-1.551-0.026-2.174-0.017
				c-5.95,0.076-7.989,7.952-8.592,11.335c-0.511,2.879,0.684,4.485,1.777,5.329c1.52,1.172,3.496,1.404,4.602,1.153
				c-0.088,0.923,0.263,1.767,1.034,2.464c1.912,1.732,5.949,2.146,9.419,0.97c2.484,0.509,4.801,0.739,6.966,0.739
				c17.251-0.003,24.553-14.63,25.771-19.481c2.231,0.194,3.829-0.262,4.891-1.392c2.383-2.532,1.481-7.921,0.53-13.621
				c-0.217-1.311-0.445-2.662-0.626-3.968c-0.7-5.034,2.411-19.74,5.42-33.962c1.213-5.731,2.448-11.565,3.434-16.781
				c0.015-0.094,0.033-0.188,0.051-0.283c1.678-8.239,1.356-12.432,1.356-12.432C372.662,289.199,370.209,300.795,367.837,312.011z"
				/>
		</g>
		<g>
			<g>
				<path fill="#CFDAE3" d="M524.133,219.714c-0.336,0.505-2.994,3.077-4.848,4.427c5.732-8.768-0.504-42.569,2.822-52.874
					c-0.818,1.644-6.32,6.068-9.037,7.649c4.424-5.563,10.746-26.11,14.223-31.294c-33.297,1.581-44.568,21.115-46.656,26.552
					c-0.631-2.466-0.441-9.483-0.316-10.368c-13.465,9.546-18.08,27.375-18.521,32.179c-0.885-2.213-2.783-3.793-3.541-5.817
					c-9.105,27.06-0.357,56.26,16.691,86.989c17.953,32.371,21.492,51.081,9.102,61.704c0,0-0.674,13.654-2.191,24.78
					c28.32,1.688,52.6-28.322,55.295-63.051C540.234,260.958,521.309,232.82,524.133,219.714z"/>
				<path fill="#EEF3F6" d="M516.408,274.506c0.086-0.931,0.01-1.919,0.01-2.909C516.309,272.587,516.324,273.557,516.408,274.506z"
					/>
				<path fill="#EEF3F6" d="M480.637,174.175c-0.631-2.466-0.441-9.483-0.316-10.368c-13.465,9.546-18.08,27.375-18.521,32.179
					c-0.885-2.213-2.783-3.793-3.541-5.817c-9.105,27.06-0.357,56.26,16.691,86.989c16.861,30.404,21.008,48.76,11.18,59.678
					c2.178,10.374,21.855,4.663,30.289-12.389c9.25-18.695,4.137-46.616-0.84-63.052c-0.762,1.939-1.773,2.572-2.531,2.697
					c1.014-25.792-10.158-42.692-5.605-73.67c-2.4,1.728-3.24,2.699-4.678,4.299c0.674-18.8,9.439-25.207,24.023-47.07
					C493.887,149.406,482.713,168.766,480.637,174.175z"/>
				<path fill="#5B6B75" d="M524.381,219.768l0.277-1.299l-0.736,1.105c-0.26,0.39-2.129,2.23-3.828,3.618
					c2.586-5.565,2.084-17.376,1.596-28.822c-0.408-9.533-0.789-18.535,0.66-23.026l-0.467-0.19
					c-0.68,1.356-4.912,4.915-7.869,6.873c2.32-3.56,5.002-10.354,7.602-16.946c2.24-5.674,4.357-11.034,5.887-13.318l0.281-0.417
					l-0.5,0.023c-14.283,0.677-26.119,4.677-35.178,11.884c-7.176,5.711-10.346,11.721-11.381,14.051
					c-0.434-2.896-0.266-8.671-0.152-9.462l0.08-0.582l-0.479,0.341c-13.1,9.286-17.699,25.968-18.52,31.481
					c-0.428-0.805-0.959-1.529-1.48-2.238c-0.676-0.92-1.312-1.789-1.68-2.764l-0.25-0.666l-0.229,0.675
					c-8.152,24.236-2.844,51.941,16.709,87.193c18.49,33.331,21.143,51.116,9.16,61.389l-0.082,0.07l-0.004,0.107
					c-0.008,0.136-0.691,13.773-2.188,24.76l-0.037,0.27l0.27,0.019c0.768,0.044,1.533,0.068,2.295,0.068
					c12.768,0,25.178-6.337,35.17-18.026c10.189-11.917,16.787-28.439,18.098-45.326c1.848-23.784-4.279-43.659-8.756-58.17
					C525.639,232.673,523.262,224.96,524.381,219.768z M536.904,300.573c-1.303,16.785-7.857,33.198-17.98,45.037
					c-10.416,12.18-23.459,18.491-36.775,17.796c1.404-10.438,2.082-23.121,2.15-24.424c12.109-10.471,9.459-28.435-9.131-61.945
					c-19.311-34.812-24.684-62.219-16.879-86.162c0.391,0.789,0.922,1.513,1.479,2.269c0.672,0.913,1.363,1.854,1.795,2.936
					l0.391,0.977l0.098-1.047c0.387-4.234,4.58-21.866,17.975-31.676c-0.115,1.947-0.197,7.709,0.365,9.906l0.199,0.768l0.283-0.74
					c0.502-1.306,3.41-8.144,11.545-14.616c8.873-7.058,20.443-11.01,34.398-11.75c-1.531,2.513-3.545,7.613-5.67,12.995
					c-2.738,6.94-5.842,14.806-8.277,17.864l-0.836,1.051l1.162-0.675c2.264-1.316,6.471-4.594,8.33-6.666
					c-1.068,4.86-0.715,13.169-0.342,21.921c0.52,12.177,1.057,24.769-2.109,29.611l-0.756,1.152l1.117-0.81
					c1.412-1.027,3.307-2.775,4.293-3.795c-0.729,5.284,1.57,12.737,4.439,22.041C532.631,257.063,538.744,276.885,536.904,300.573z
					"/>
			</g>
			<g>
				<path fill="#627482" d="M513.215,219.25c-0.924,1.013-3.453,7.755-3.625,11.463c-3.959-3.961-8.85-17.533-7.5-21.494
					c-5.648,4.72-6.828,17.533-6.406,21.242c-6.742-7.166-6.07-32.79-4.047-38.605c-6.49,5.141-13.402,22.421-14.33,28.574
					c-3.453-9.524,2.951-31.946,5.732-34.391c-20.102,14.373-18.543,39.112-17.449,45.097c-2.867-3.71-5.225-10.03-5.646-14.499
					c-1.189,1.725-2.596,7.179-3.049,16.075c3.211,14.393,9.611,29.231,18.055,44.446c17.953,32.371,21.492,51.081,9.102,61.704
					c0,0-0.674,13.654-2.191,24.78c28.32,1.688,52.6-28.322,55.295-63.051c1.93-24.817-4.773-45.127-9.355-60.064
					C519.17,235.895,512.969,222.281,513.215,219.25z"/>
				<path fill="#768594" d="M513.047,264.093c0.49-12.525-1.889-22.957-3.947-33.918c-3.859-4.523-8.305-17.156-7.01-20.956
					c-5.648,4.72-6.828,17.533-6.406,21.242c-6.742-7.166-6.07-32.79-4.047-38.605c-6.49,5.141-13.402,22.421-14.33,28.574
					c-3.453-9.524,2.951-31.946,5.732-34.391c-20.102,14.373-18.543,39.112-17.449,45.097c-2.867-3.71-5.225-10.03-5.646-14.499
					c-1.189,1.725-2.596,7.179-3.049,16.075l0,0c5.24,27.588,28.674,57.26,33.443,80.617c0.279,1.298,4.502,12.467-4.209,23.507
					c2.178,10.374,21.855,4.663,30.289-12.389c9.25-18.695,4.137-46.616-0.84-63.052
					C514.816,263.335,513.805,263.968,513.047,264.093z"/>
				<path fill="#293B47" d="M528.008,240.356l-0.092-0.052c-8.34-4.481-14.691-18.012-14.447-21.033l0.059-0.734l-0.498,0.541
					c-0.918,1.002-3.268,7.227-3.648,11.041c-3.898-4.435-8.287-17.189-7.053-20.82l0.291-0.852l-0.691,0.578
					c-5.322,4.45-6.787,15.995-6.557,20.686c-6.141-7.802-5.441-32.173-3.494-37.773l0.285-0.821l-0.682,0.54
					c-6.277,4.973-12.818,21.069-14.236,27.727c-2.615-9.687,3.273-30.792,5.963-33.155l-0.316-0.396
					c-8.629,6.172-14.275,14.866-16.773,25.843c-1.951,8.582-1.305,15.78-0.938,18.462c-2.488-3.637-4.582-9.243-4.984-13.525
					l-0.066-0.692l-0.393,0.573c-1.131,1.636-2.619,6.863-3.092,16.205l-0.004,0.035l0.008,0.034
					c2.996,13.424,8.91,27.984,18.076,44.514c18.49,33.331,21.143,51.116,9.16,61.389l-0.082,0.07l-0.004,0.107
					c-0.008,0.136-0.691,13.773-2.188,24.76l-0.037,0.27l0.27,0.019c0.768,0.044,1.533,0.068,2.295,0.068
					c12.768,0,25.178-6.337,35.17-18.026c10.189-11.917,16.787-28.439,18.098-45.326l-0.252-0.021l0.252,0.021
					c1.848-23.784-4.279-43.659-8.756-58.17L528.008,240.356z M536.904,300.573c-1.303,16.785-7.857,33.198-17.98,45.037
					c-10.416,12.18-23.459,18.491-36.775,17.796c1.404-10.438,2.082-23.121,2.15-24.424c12.109-10.471,9.459-28.435-9.131-61.945
					c-9.137-16.473-15.031-30.979-18.018-44.345c0.418-8.2,1.605-13.155,2.631-15.259c0.619,4.605,2.955,10.422,5.611,13.856
					l0.633,0.823l-0.186-1.023c-0.164-0.902-1.549-9.107,0.771-19.301c2.344-10.297,7.484-18.562,15.287-24.588
					c-3.115,5.619-7.961,24.688-4.828,33.316l0.338,0.936l0.15-0.984c0.846-5.613,7.266-22.113,13.596-27.869
					c-1.82,7.105-2.156,31.128,4.344,38.036l0.521,0.553l-0.086-0.756c-0.432-3.814,0.725-15.53,5.74-20.492
					c-0.611,4.739,3.812,17.025,7.738,20.953l0.406,0.404l0.027-0.57c0.141-3.119,2.072-8.699,3.158-10.694
					c0.578,4.217,6.551,16.286,14.582,20.67l0.582,1.889C532.631,257.063,538.744,276.885,536.904,300.573z"/>
			</g>
		</g>
		<g>
			<path fill="#627482" d="M431.283,358.754c-15.51-4.214-22.082-3.203-22.082-3.203c-5.398,1.348-19.053,5.9-25.29,4.553
				c3.034,12.979,10.622,26.362,40.797,20.295C454.885,374.328,446.795,362.969,431.283,358.754z"/>
			<path fill="#293B47" d="M431.35,358.511c-15.383-4.181-21.918-3.253-22.189-3.208l-0.023,0.002
				c-1.016,0.255-2.314,0.622-3.818,1.041c-6.51,1.83-16.346,4.592-21.352,3.51l-0.394-0.084l0.092,0.39
				c2.482,10.621,7.992,22.001,27.412,22.001c3.955,0,8.484-0.472,13.682-1.518c16.846-3.387,20.514-8.07,20.627-11.403
				C445.523,365.076,440.014,360.864,431.35,358.511z M424.658,380.149c-30.004,6.033-37.416-7.268-40.409-19.724
				c5.223,0.896,14.807-1.794,21.206-3.593c1.494-0.419,2.785-0.78,3.793-1.033c0.305-0.041,6.992-0.872,21.971,3.198
				c8.299,2.257,13.789,6.365,13.66,10.227C444.729,373.679,437.549,377.557,424.658,380.149z"/>
		</g>
		<g>
			<g>
				<g>
					<path fill="#627482" d="M322.081,51.972c-2.022,0-25.035,19.472-17.953,42.609c-1.263-0.632-2.78-1.138-2.971-1.169
						c-0.252,1.739-0.189,10.59,2.909,16.153c-1.326-0.569-3.413-0.19-3.73-0.253c-0.442,2.276,3.855,13.529,9.42,16.88
						c5.564,3.351,36.983-15.3,36.983-15.3c0.053-15.552-9.616-26.141-16.69-39.829C324.948,61.197,322.93,51.972,322.081,51.972z"
						/>
					<path fill="#768594" d="M322.081,51.972c-2.022,0-25.035,19.472-17.953,42.609c-1.263-0.632-2.78-1.138-2.971-1.169
						c-0.252,1.739-0.189,10.59,2.909,16.153c-1.326-0.569-3.413-0.19-3.73-0.253c-0.442,2.276,3.855,13.529,9.42,16.88
						c5.564,3.351,30.672-13.845,30.672-13.845c0.053-15.552-6.929-28.018-14.003-41.706
						C321.323,60.777,322.93,51.972,322.081,51.972z"/>
					<path fill="#B6C2CC" d="M304.128,94.581c-1.263-0.632-2.78-1.138-2.971-1.169c-0.252,1.739-0.189,10.59,2.909,16.153
						c-1.326-0.569-3.413-0.19-3.73-0.253c-0.442,2.276,3.855,13.529,9.42,16.88c0.348,0.209,0.776,0.339,1.265,0.396
						c0.509-0.654,0.918-1.413,1.169-2.252c-6.583-3.615-7.936-11.23-8.651-12.287c0.359,0.146,2.802,0.994,4.511,0.297
						c-1.393-1.392-4.257-8.21-4.681-15.532c0.212,0.084,2.277,0.843,4.259,0.268c-3.792-8.378-4.888-28.126,14.423-44.857
						c-0.322,0.057-0.64,0.121-0.958,0.192C316.239,55.431,297.67,73.48,304.128,94.581z"/>
					<path fill="#293B47" d="M330.274,70.948c-2.972-5.745-4.882-11.247-6.148-14.887c-1.174-3.371-1.533-4.343-2.044-4.343
						c-1.147,0-6.453,4.305-10.989,10.439c-5.46,7.378-11.121,18.872-7.367,31.952c-1.163-0.531-2.344-0.917-2.526-0.947
						l-0.255-0.042l-0.037,0.255c-0.251,1.724-0.18,10.154,2.645,15.761c-0.925-0.212-1.979-0.141-2.66-0.093
						c-0.21,0.015-0.449,0.03-0.506,0.021l-0.251-0.05l-0.048,0.249c-0.498,2.556,4.005,13.812,9.538,17.145
						c0.484,0.292,1.156,0.426,1.974,0.426c8.67,0,34.093-15.025,35.27-15.724l0.123-0.074v-0.143
						c0.039-11.584-5.276-20.424-10.903-29.783C334.129,77.858,332.107,74.495,330.274,70.948z M309.883,125.976
						c-5.349-3.224-9.456-13.873-9.325-16.405c0.097-0.004,0.214-0.013,0.366-0.023c0.742-0.051,2.118-0.145,3.042,0.25l0.682,0.292
						l-0.363-0.647c-2.906-5.222-3.118-13.436-2.909-15.704c0.509,0.164,1.646,0.573,2.639,1.07l0.527,0.263l-0.173-0.563
						c-4.01-13.104,1.665-24.661,7.129-32.049c4.738-6.403,9.721-10.131,10.552-10.232c0.288,0.237,0.924,2.067,1.599,4.002
						c1.269,3.653,3.189,9.174,6.174,14.952c1.84,3.562,3.869,6.932,5.83,10.191c5.566,9.257,10.826,18.005,10.835,29.377
						C344.328,112.019,315.084,129.103,309.883,125.976z"/>
				</g>
				<g>
					<path fill="#CFDAE3" d="M317.152,63.73c-3.032,3.541-7.205,18.333-5.056,27.942c-1.266-0.631-2.31-1.043-2.595-1.328
						c-0.408,1.233,0.603,11.38,3.256,16.784c-0.661-0.094-3.083-0.789-3.342-1.579c-0.417,1.169-0.608,9.388,5.333,12.969
						c9.61-1.432,20.484-9.651,20.484-9.651C332.492,96.815,315.762,73.089,317.152,63.73z"/>
					<path fill="#EEF3F6" d="M312.096,91.673c-1.266-0.631-2.31-1.043-2.595-1.328c-0.408,1.233,0.603,11.38,3.256,16.784
						c-0.661-0.094-3.083-0.789-3.342-1.579c-0.417,1.169-0.608,9.388,5.333,12.969c9.61-1.432,15.3-8.134,15.3-8.134
						c-2.211-14.755-14.729-29.776-15.906-40.367C312.098,76.18,310.631,85.128,312.096,91.673z"/>
					<path fill="#293B47" d="M326.799,88.964c-5.006-9.791-10.18-19.912-9.398-25.197l0.131-0.868l-0.573,0.667
						c-3.003,3.504-7.118,18.008-5.221,27.652c-0.256-0.125-0.502-0.239-0.728-0.345c-0.629-0.294-1.174-0.55-1.331-0.707
						l-0.288-0.289l-0.129,0.388c-0.433,1.301,0.532,10.97,3.051,16.517c-0.979-0.243-2.499-0.821-2.661-1.312l-0.23-0.701
						l-0.247,0.695c-0.435,1.22-0.624,9.613,5.441,13.272l0.078,0.047l0.092-0.015c9.561-1.426,20.488-9.617,20.597-9.7l0.131-0.098
						l-0.037-0.16C334.302,103.637,330.657,96.51,326.799,88.964z M314.803,118.257c-5.197-3.198-5.543-10.018-5.255-12.128
						c0.871,0.743,2.867,1.208,3.174,1.253l0.474,0.067l-0.212-0.428c-2.492-5.078-3.457-14.127-3.3-16.237
						c0.267,0.153,0.64,0.327,1.112,0.548c0.355,0.167,0.76,0.355,1.184,0.568l0.477,0.239l-0.115-0.521
						c-2.005-8.959,1.552-22.565,4.482-27.021c-0.178,5.62,4.75,15.259,9.524,24.599c3.806,7.438,7.401,14.467,8.603,19.57
						C333.689,109.69,323.654,116.898,314.803,118.257z"/>
				</g>
				<g>
					<path fill="#768594" d="M324.991,96.351c-1.201,4.363,1.518,11.064,2.783,13.023c-0.634-0.442-3.606-1.771-4.806-2.971
						c-0.126,1.265,0.377,4.233,1.137,5.943c0,0,9.31-2.192,11.128-4.678C332.01,106.72,326.445,99.386,324.991,96.351z"/>
					<path fill="#B6C2CC" d="M328.418,108.856c-1.661-3.907-2.354-6.151-3.271-10.925C324.833,99.86,325.94,105.873,328.418,108.856
						z"/>
					<path fill="#293B47" d="M325.219,96.243l-0.292-0.611l-0.18,0.653c-1.088,3.953,0.946,9.745,2.345,12.411
						c-0.099-0.052-0.201-0.107-0.309-0.164c-1.126-0.596-2.828-1.498-3.638-2.308l-0.376-0.377l-0.053,0.532
						c-0.126,1.28,0.362,4.273,1.159,6.07l0.085,0.191l0.202-0.048c0.385-0.089,9.419-2.241,11.275-4.775l0.21-0.29l-0.343-0.101
						C332.292,106.54,326.767,99.475,325.219,96.243z M324.254,112.049c-0.61-1.483-1.03-3.765-1.052-5.099
						c0.916,0.742,2.296,1.473,3.343,2.027c0.484,0.257,0.903,0.48,1.082,0.604l1.058,0.741l-0.703-1.084
						c-1.187-1.844-3.643-7.938-2.897-12.156c1.698,3.062,6.499,9.4,9.718,10.703C332.807,109.862,325.572,111.725,324.254,112.049z
						"/>
				</g>
			</g>
			<g>
				<path fill="#627482" d="M416.279,233.158c-3.541-21.493,6.07-36.919,3.541-44.76c2.023,1.265,2.465,4.427,2.592,5.185
					c0.6-1.581,1.643-16.31-3.984-25.982c0.822,0.378,2.91,3.287,3.795,3.855c-2.148-34.139-40.586-79.149-77.256-63.472
					c-34.137-6.068-43.493,30.598-42.481,44.001c6.321,14.161,28.827,77.722,25.288,89.183c-3.542,11.461-7.968,22.969-1.391,37.382
					c0.254-1.392,1.308-3.751,1.895-4.425c9.356,33.21,41.808,45.518,55.634,58.499c19.514,18.325,23.012,27.732,55.633,34.559
					c12.393,8.094,14.414,10.116,27.816,8.6c16.438,3.034,32.621-37.68,7.08-72.83C447.9,266.425,419.625,253.467,416.279,233.158z"
					/>
				<path fill="#768594" d="M404.92,243.526c-8.654-17.785,0.99-43.748,0.232-51.84c0.676,2.318,3.041,5.406,3.584,6.489
					c3.328-16.099,3.496-31.777-7.629-43.41c3.035,1.362,3.729,2.276,6.254,4.594c-2.531-9.608-5.451-16.099-11.186-22.293
					c2.502-1.722,4.74-3.307,6.863-5.636c2.203-2.422-25.534-36.982-58.073-23.446c-34.137-6.068-43.493,30.598-42.481,44.001
					c6.321,14.161,28.827,77.722,25.288,89.183c-3.542,11.461-7.968,22.969-1.391,37.382c0.254-1.392,1.308-3.751,1.895-4.425
					c9.356,33.21,41.808,45.518,55.634,58.499c13.932,13.084,19.704,21.619,33.733,27.917c6.076-0.311,12.188-0.928,18.359-1.955
					c24.975-3.986,15.562-34.906-0.975-60.432C462.305,306.745,415.541,265.781,404.92,243.526z"/>
				<path fill="#B6C2CC" d="M344.966,107.984c-32.504-5.779-42.542,27.186-42.552,41.923c0.081,0.164,0.165,0.33,0.246,0.493
					c1.342-9.458,9.094-45.896,42.982-39.634c6.238-5.298,24.684-4.93,31.226-0.252c0.67-0.404,1.189-0.951,1.573-1.597
					C368.872,104.624,357.265,102.868,344.966,107.984z"/>
				<g>
					<path fill="#EEF3F6" d="M352.3,124.927c-15.426-0.264-22.632,16.438-20.608,33.633c6.45,13.655,20.104,3.035,28.069-3.057
						C372.533,151.353,367.098,125.18,352.3,124.927z"/>
				</g>
				<g>
					<path fill="#EEF3F6" d="M308.473,126.265c-4.854,9.319-6.437,19.793-5.988,25.72c0.562,1.258,1.253,2.912,2.041,4.879
						c9.1,1.552,13.299-3.446,13.299-3.446C327.135,125.33,312.437,120.023,308.473,126.265z"/>
				</g>
				<path fill="#FFFFFF" d="M308.473,126.265c-4.332,8.319-6.054,17.548-6.054,23.651c0.078,0.161,0.163,0.323,0.241,0.483
					c0.689-4.855,3.069-16.82,9.805-26.469C310.85,124.015,309.38,124.837,308.473,126.265z"/>
				<path d="M308.287,127.181c1.948-2.077,7.315-3.259,10.379,0.592C314.711,120.853,308.287,124.262,308.287,127.181z"/>
				<path fill="#293B47" d="M440.285,265.075c-12.729-12.096-21.924-20.836-23.756-31.958c-2.057-12.486,0.305-22.761,2.205-31.016
					c1.244-5.415,2.246-9.771,1.529-13.036c0.912,0.884,1.543,2.379,1.883,4.46l0.168,1.021l0.334-0.874
					c0.691-1.818,1.436-15.458-3.311-24.922c0.293,0.318,0.605,0.678,0.9,1.019c0.719,0.828,1.4,1.612,1.846,1.9l0.422,0.27
					l-0.031-0.5c-1.363-21.625-17.27-47.096-37-59.247c-9.524-5.862-24.276-11.39-40.536-4.471
					c-11.245-1.981-20.747,0.455-28.251,7.239c-11.139,10.071-15.16,27.724-14.455,37.042l0.021,0.084
					c6.033,13.516,28.831,77.504,25.279,89.006c-0.244,0.782-0.488,1.562-0.734,2.344c-3.35,10.667-6.814,21.695-0.647,35.217
					l0.332,0.733l0.147-0.794c0.205-1.132,0.981-2.969,1.55-3.894c7,24.1,26.015,37.044,41.313,47.458
					c5.433,3.702,10.565,7.195,14.245,10.649c3.595,3.376,6.701,6.502,9.437,9.263c12.236,12.325,19.631,19.77,46.27,25.352
					c0.768,0.5,1.494,0.977,2.186,1.431c8.311,5.46,11.65,7.653,18.812,7.653c1.957,0,4.203-0.163,6.908-0.469
					c5.068,0.919,10.262-2.192,14.26-8.532c9.246-14.666,9.822-41.599-6.965-64.702
					C462.736,286.412,450.287,274.581,440.285,265.075z M481.184,367.235c-3.893,6.172-8.914,9.2-13.775,8.298l-0.037-0.008
					l-0.039,0.005c-12.469,1.413-14.953-0.222-25.424-7.1c-0.705-0.463-1.443-0.948-2.225-1.46l-0.086-0.034
					c-26.535-5.553-33.883-12.958-46.061-25.224c-2.742-2.763-5.85-5.892-9.453-9.272c-3.71-3.482-8.857-6.989-14.308-10.699
					c-15.337-10.441-34.422-23.438-41.252-47.686l-0.129-0.448l-0.307,0.351c-0.514,0.591-1.365,2.38-1.777,3.811
					c-5.672-13.039-2.296-23.784,0.97-34.179c0.247-0.784,0.493-1.564,0.734-2.347c3.583-11.599-19.206-75.686-25.281-89.321
					c-0.682-9.229,3.296-26.646,14.294-36.587c7.396-6.688,16.781-9.079,27.896-7.102l0.074,0.013l0.068-0.03
					c16.09-6.878,30.708-1.4,40.142,4.408c19.424,11.96,35.117,36.908,36.721,58.255c-0.375-0.366-0.85-0.911-1.311-1.441
					c-0.822-0.949-1.602-1.844-2.082-2.068l-0.73-0.336l0.404,0.694c4.881,8.387,4.664,20.499,4.189,24.513
					c-0.486-1.983-1.311-3.344-2.447-4.056l-0.588-0.367l0.215,0.66c1.031,3.2-0.014,7.75-1.338,13.509
					c-1.912,8.299-4.285,18.629-2.211,31.213c1.859,11.289,11.105,20.079,23.904,32.241c9.988,9.495,22.42,21.307,34.303,37.661
					C490.891,326.021,490.338,352.714,481.184,367.235z"/>
			</g>
			<g>
				<ellipse cx="348.381" cy="145.599" rx="10.407" ry="13.297"/>
				<ellipse fill="#D6D6D6" cx="348.381" cy="146.352" rx="9.82" ry="12.544"/>
				<path fill="#FFFFFF" d="M348.381,133.808c-5.421,0-9.82,5.617-9.82,12.545c0,4.901,2.202,9.143,5.41,11.207
					c6.897,3.529,16.737-14.426,9.068-22.254C351.653,134.351,350.067,133.808,348.381,133.808z"/>
				<path d="M348.381,133.555c-5.553,0-10.071,5.741-10.071,12.798c0,7.055,4.518,12.796,10.071,12.796
					c5.554,0,10.073-5.741,10.073-12.796C358.454,139.296,353.936,133.555,348.381,133.555z M348.381,158.644
					c-5.275,0-9.568-5.513-9.568-12.291c0-6.778,4.293-12.292,9.568-12.292c5.276,0,9.57,5.514,9.57,12.292
					C357.951,153.13,353.657,158.644,348.381,158.644z"/>
			</g>
			<g>
				<ellipse fill="#091DB2" cx="350.869" cy="147.856" rx="6.405" ry="8.184"/>
				<path fill="#0C1CE5" d="M350.869,139.672c-3.538,0-6.405,3.665-6.405,8.184c0,4.23,2.51,7.709,5.734,8.138
					c3.155-2.862,5.685-8.311,5.63-13.316C354.654,140.845,352.869,139.672,350.869,139.672z"/>
				<g>
					<path d="M352.83,142.176c-2.459,0-4.449,2.542-4.449,5.68c0,3.137,1.99,5.68,4.449,5.68c2.453,0,4.445-2.542,4.445-5.68
						C357.275,144.718,355.283,142.176,352.83,142.176z"/>
				</g>
				<circle fill="#FFFFFF" cx="351.964" cy="144.82" r="2.066"/>
				<path fill="#051770" d="M350.869,139.419c-3.671,0-6.659,3.785-6.659,8.437s2.987,8.437,6.659,8.437
					c3.672,0,6.657-3.785,6.657-8.437S354.541,139.419,350.869,139.419z M350.869,155.787c-3.393,0-6.153-3.558-6.153-7.931
					s2.76-7.931,6.153-7.931c3.392,0,6.155,3.558,6.155,7.931S354.26,155.787,350.869,155.787z"/>
			</g>
			<g>
				
					<ellipse transform="matrix(0.2188 -0.9758 0.9758 0.2188 103.5257 417.2674)" cx="312.353" cy="143.98" rx="11.715" ry="6.729"/>
				<path fill="#D6D6D6" d="M314.612,133.898c-3.41-0.766-7.255,3.431-8.589,9.371c-1.331,5.941,0.354,11.378,3.767,12.142
					c3.409,0.766,7.254-3.43,8.585-9.371C319.709,140.1,318.025,134.664,314.612,133.898z"/>
				<path fill="#FFFFFF" d="M314.612,133.898c-3.41-0.766-7.255,3.431-8.589,9.371c-0.917,4.094-0.401,7.947,1.124,10.199
					c5.769,3.067,12.659-11.662,10.144-17.57C316.598,134.852,315.692,134.139,314.612,133.898z"/>
				<path d="M314.67,133.651c-3.542-0.794-7.533,3.496-8.893,9.563c-1.361,6.067,0.414,11.651,3.954,12.445
					c0.287,0.063,0.573,0.095,0.86,0.095c3.308,0,6.783-4.078,8.033-9.658C319.985,140.029,318.21,134.445,314.67,133.651z
					 M318.129,145.985c-1.299,5.795-5.013,9.912-8.288,9.181c-3.268-0.734-4.869-6.046-3.569-11.84
					c1.197-5.347,4.456-9.265,7.517-9.265c0.26,0,0.514,0.027,0.771,0.083C317.828,134.878,319.43,140.19,318.129,145.985z"/>
			</g>
			<g>
				
					<ellipse transform="matrix(0.2189 -0.9758 0.9758 0.2189 101.6031 420.5366)" fill="#091DB2" cx="313.461" cy="146.809" rx="7.162" ry="4.112"/>
				<path fill="#0C1CE5" d="M315.029,139.82c-2.215-0.498-4.715,2.228-5.58,6.088c-0.716,3.192-0.089,6.153,1.401,7.366
					c2.913-1.645,5.544-6.38,6.544-10.806C316.95,141.06,316.127,140.066,315.029,139.82z"/>
				<g>
					
						<ellipse transform="matrix(0.2192 -0.9757 0.9757 0.2192 101.8322 421.8618)" cx="314.496" cy="147.306" rx="5.214" ry="2.991"/>
				</g>
				<circle fill="#FFFFFF" cx="314.811" cy="144.209" r="1.518"/>
				<path fill="#051770" d="M315.084,139.573c-1.165-0.261-2.419,0.267-3.539,1.487c-1.083,1.182-1.914,2.884-2.343,4.793
					c-0.897,3.989,0.288,7.664,2.637,8.19c0.188,0.043,0.382,0.064,0.574,0.064c2.188,0,4.484-2.677,5.307-6.344
					c0.43-1.909,0.404-3.805-0.07-5.336C317.159,140.848,316.248,139.833,315.084,139.573z M317.228,147.653
					c-0.833,3.718-3.203,6.361-5.279,5.898c-2.076-0.466-3.087-3.87-2.253-7.587c0.408-1.825,1.2-3.444,2.223-4.563
					c0.833-0.907,1.732-1.387,2.579-1.387c0.162,0,0.318,0.018,0.477,0.053c0.979,0.22,1.758,1.111,2.19,2.511
					C317.615,144.026,317.636,145.829,317.228,147.653z"/>
			</g>
			<g>
				<path fill="#CFDAE3" d="M442.914,353.695c-6.742-4.887-37.254-44.505-42.143-51.416c-4.891-6.914-30.345-22.422-37.427-29.842
					c-6.576-7.247-12.981-26.465-9.608-38.605c-12.093-14.457-20.168-13.4-26.66-5.151c1.064,5.73,1.41,10.173,0.696,12.487
					c-3.542,11.461-7.968,22.969-1.391,37.382c0.254-1.392,1.308-3.751,1.895-4.425c9.356,33.21,41.808,45.518,55.634,58.499
					c19.209,18.04,22.899,27.438,54.131,34.239C458.258,370.386,446.881,356.571,442.914,353.695z"/>
				<path fill="#EEF3F6" d="M363.345,272.438c-6.576-7.247-12.981-26.465-9.608-38.605c-12.093-14.457-20.168-13.4-26.66-5.151
					c1.064,5.73,1.41,10.173,0.696,12.487c-3.542,11.461-7.968,22.969-1.391,37.382c0.254-1.392,1.308-3.751,1.895-4.425
					c2.149,7.63,5.522,14.156,9.603,19.84c14.503,15.08,48.469,13.202,28.232-18.964
					C365.021,274.073,364.082,273.211,363.345,272.438z"/>
				<path fill="#5B6B75" d="M443.064,353.492c-6.775-4.912-37.227-44.488-42.09-51.359c-2.699-3.816-11.586-10.214-20.183-16.399
					c-7.236-5.208-14.076-10.127-17.26-13.463c-6.231-6.87-12.987-26.011-9.554-38.37l0.037-0.129l-0.086-0.102
					c-6.393-7.645-11.933-11.318-16.95-11.25c-3.606,0.055-6.909,2.05-10.101,6.104l-0.071,0.09l0.021,0.112
					c1.125,6.073,1.363,10.233,0.706,12.368c-0.244,0.782-0.488,1.562-0.734,2.344c-3.35,10.667-6.814,21.695-0.647,35.217
					l0.332,0.733l0.147-0.794c0.205-1.132,0.981-2.969,1.55-3.894c7,24.1,26.015,37.044,41.313,47.458
					c5.433,3.702,10.565,7.195,14.245,10.649c3.595,3.376,6.701,6.502,9.437,9.263c12.072,12.158,19.357,19.496,44.822,25.043
					c2.193,0.382,4.09,0.573,5.686,0.573c3.305,0,5.32-0.82,6.012-2.453C451.246,361.559,445.508,355.264,443.064,353.492z
					 M449.229,365.036c-0.906,2.145-4.762,2.689-11.133,1.582c-25.307-5.513-32.555-12.812-44.559-24.905
					c-2.74-2.763-5.85-5.892-9.453-9.272c-3.71-3.482-8.857-6.989-14.308-10.699c-15.337-10.441-34.422-23.438-41.252-47.686
					l-0.129-0.448l-0.307,0.351c-0.514,0.591-1.365,2.38-1.777,3.811c-5.672-13.039-2.296-23.781,0.97-34.179
					c0.247-0.784,0.493-1.564,0.734-2.347c0.679-2.201,0.456-6.405-0.668-12.495c3.069-3.866,6.222-5.771,9.642-5.821
					c4.823-0.071,10.213,3.516,16.468,10.968c-3.395,12.52,3.415,31.786,9.705,38.72c3.221,3.376,10.077,8.307,17.335,13.53
					c8.564,6.162,17.416,12.531,20.068,16.281c4.869,6.883,35.387,46.534,42.205,51.475
					C445.248,355.701,450.584,361.828,449.229,365.036z"/>
			</g>
			<g>
				<path fill="#CFDAE3" d="M317.321,202.981c-15.006,11.296-6.237,26.974-3.71,32.199c-0.168-1.518,1.35-4.381,2.867-5.647
					c-1.688,9.189,4.888,17.028,7.417,18.967c-0.251-3.204,1.856-5.9,2.107-5.985c0.168,2.95,3.454,9.439,4.891,12.645
					c0.587-5.816,15.34-14.245,17.025-20.229c0.506,0.841,0.843,3.202,0,5.58c13.064-2.683,20.23-15.614,20.23-17.843
					c0.421,0.216,0.674,2.397,0.757,3.494c4.046-1.602,15.005-10.072,17.785-20.187C384.796,182.71,332.24,194.299,317.321,202.981z
					"/>
				<path fill="#EEF3F6" d="M356.939,214.108c-9.097-8.085-18.702-10.062-42.165-8.955c-5.755,5.589-6.594,11.953-5.708,17.512
					c0.98,3.322,2.706,5.714,4.251,7.92c1.013-1.518,3.413-4.279,5.733-6.066c-2.362,7.798-0.213,12.937,2.822,18.502
					c1.013-1.518,4.173-3.918,5.184-5.436c0.506,3.791,1.83,8.546,3.371,10.154c3.659-5.873,13.11-10.789,17.267-20.988
					c1.011,3.035,3.682,4.131,4.188,7.164C360.059,229.787,363.006,219.164,356.939,214.108z"/>
				<path fill="#5B6B75" d="M379.582,195.276c-15.078-7.874-49.968,0.258-62.413,7.503c-14.461,10.884-6.994,26.008-4.182,31.7
					c0.141,0.293,0.278,0.566,0.398,0.812l0.64,1.326l-0.163-1.465c-0.136-1.219,0.958-3.527,2.247-4.916
					c-1.308,9.443,5.642,16.936,7.634,18.464l0.451,0.347l-0.048-0.566c-0.194-2.466,1.054-4.628,1.662-5.42
					c0.382,2.576,2.414,6.942,3.926,10.189c0.351,0.752,0.668,1.436,0.928,2.013l0.385,0.864l0.097-0.942
					c0.296-2.934,4.477-6.699,8.521-10.342c3.504-3.153,7.116-6.409,8.274-9.211c0.32,1.075,0.387,2.97-0.26,4.794l-0.148,0.423
					l0.44-0.093c12.221-2.508,19.216-13.736,20.286-17.318c0.152,0.566,0.304,1.529,0.398,2.744l0.026,0.343l0.32-0.126
					c3.813-1.511,15.102-10.056,17.937-20.357l0.012-0.044l-0.006-0.044C386.561,201.216,384.082,197.625,379.582,195.276z
					 M369.132,225.793c-0.131-1.463-0.382-3.101-0.868-3.351l-0.369-0.187v0.412c0,2.092-7.056,14.682-19.599,17.502
					c0.694-2.319,0.336-4.545-0.161-5.371l-0.3-0.503l-0.158,0.563c-0.788,2.797-4.633,6.259-8.35,9.608
					c-3.945,3.551-7.689,6.924-8.53,9.87c-0.187-0.401-0.389-0.839-0.603-1.3c-1.607-3.447-3.804-8.166-3.94-10.537l-0.018-0.332
					l-0.312,0.104c-0.341,0.115-2.296,2.61-2.301,5.678c-3.062-2.646-8.403-10.172-6.899-18.372l0.129-0.687l-0.538,0.447
					c-1.224,1.019-2.563,3.205-2.893,4.88c-3.03-6.134-10.049-20.424,4.025-31.02c12.339-7.179,46.964-15.276,61.9-7.476
					c4.322,2.257,6.707,5.699,7.09,10.227C383.707,215.793,373.144,223.996,369.132,225.793z"/>
			</g>
			<g>
				<g>
					<path fill="#627482" d="M428.123,93.865c-0.168,1.138-1.727,1.56-2.908,2.486c1.516-16.604-3.539-39.195-6.912-40.207
						c-1.123-0.336-4.354,4.198-10.453,8.935c-12.24,9.51-29.251,19.246-32.116,47.293l32.323,25.11
						c14.414-8.725,17.729-24.06,17.494-24.777c-0.295,0.464-1.727,1.307-2.82,1.685C428.754,108.657,428.629,96.142,428.123,93.865
						z"/>
					<path fill="#768594" d="M417.822,56.223c-1.43,0.645-4.58,4.667-9.973,8.855c-12.24,9.51-29.251,19.246-32.116,47.293
						l7.294,10.785l18.796,9.515c0,0,9.295-7.854,9.971-14.618c-1.012,1.011-0.572,0.805-2.09,1.311
						c6.068-3.035,7.586-9.61,9.609-15.679c-1.012,0.505-2.529,1.517-4.047,1.011C422.336,89.548,423.355,71.881,417.822,56.223z"/>
					<path fill="#B6C2CC" d="M397.334,123.767c0.717-0.336,2.803-4.319,4.793-6.364C399.73,118.963,398.283,122.23,397.334,123.767z
						"/>
					<path fill="#B6C2CC" d="M390.043,116.519c0.34-0.57,5.057-7.839,9.357-12.015C395.838,106.438,390.76,113.526,390.043,116.519z
						"/>
					<path fill="#B6C2CC" d="M407.85,65.079c-12.24,9.51-29.251,19.246-32.116,47.293c6.408-32.583,36.331-43.458,42.147-55.985
						c-0.117,0-0.232,0-0.355,0.001C415.979,57.384,412.898,61.158,407.85,65.079z"/>
					<path fill="#293B47" d="M428.369,93.81l-0.297-1.333l-0.197,1.351c-0.098,0.653-0.791,1.058-1.59,1.527
						c-0.254,0.149-0.516,0.303-0.771,0.472c1.375-16.735-3.705-38.894-7.139-39.924c-0.723-0.218-1.807,0.852-3.775,2.791
						c-1.672,1.647-3.967,3.902-6.904,6.187c-1.328,1.033-2.695,2.051-4.141,3.128c-10.154,7.569-22.503,16.776-26.992,36.189
						c-0.011,0.048-0.022,0.098-0.034,0.144c-1.237,4.823-0.794,8.031-0.794,8.031c2.545-24.889,16.725-35.462,28.122-43.959
						c1.449-1.079,2.818-2.098,4.15-3.133c2.963-2.302,5.268-4.571,6.947-6.226c1.525-1.501,2.846-2.796,3.275-2.667
						c2.934,0.879,8.307,22.733,6.732,39.942l-0.053,0.584l0.463-0.363c0.367-0.288,0.775-0.528,1.172-0.76
						c0.561-0.331,1.102-0.647,1.451-1.068c0.359,3.525,0.037,14.275-5.441,19.484l-0.844,0.804l1.102-0.381
						c0.789-0.272,1.816-0.808,2.451-1.292c-0.486,2.997-4.404,16.396-17.205,24.144c0,0,2.645-0.638,6.121-3.972
						c0.055-0.053,0.109-0.103,0.164-0.153c9.441-8.809,11.654-20.104,11.451-20.729l-0.166-0.511l-0.287,0.452
						c-0.16,0.25-0.816,0.706-1.578,1.098C429.037,107.507,428.85,95.967,428.369,93.81z"/>
				</g>
				<g>
					<path fill="#CFDAE3" d="M408.314,74.352c-8.322,7.364-20.988,19.598-18.449,41.121c1.295-3.189,6.1-10.185,10.652-11.955
						c-2.529,3.961-4.637,14.583-3.541,19.723c1.35-1.854,2.783-5.479,6.154-6.827c-2.359,3.878-1.77,10.199-1.221,15.088
						c26.086-17.279,15.045-62.713,13.189-63.557C414.502,67.674,412.279,70.844,408.314,74.352z"/>
					<path fill="#EEF3F6" d="M395.031,107.727c1.697-1.869,2.002-2.865,6.115-4.727c0.947-0.43,1.395-0.612,3.068-0.821
						c-3.332,4.928-4.455,10.904-3.9,16.222c0.473-0.504,2.82-2.115,3.426-2.504c0.797-0.255,1.102-0.369,2.773-0.563
						c-2.668,4.073-3.098,10.266-1.424,13.798c19.338-17.192,13.68-50.697,11.014-59.019
						C412.889,76.881,393.963,91.008,395.031,107.727z"/>
					<path fill="#293B47" d="M415.205,67.715c-0.48-0.219-1.113,0.449-2.631,2.067c-1.086,1.156-2.574,2.74-4.428,4.379
						c-6.881,6.088-21.197,18.755-18.529,41.339l0.115,0.978l0.367-0.912c1.23-3.035,5.566-9.371,9.807-11.5
						c-2.289,4.306-4.248,14.193-3.178,19.227l0.119,0.556l0.332-0.459c0.318-0.433,0.639-0.964,0.979-1.525
						c1.027-1.697,2.281-3.771,4.379-4.896c-1.887,3.821-1.449,9.493-0.877,14.562l0.047,0.411l0.346-0.228
						c17.049-11.296,17.918-34.091,16.922-46.672C418.266,76.101,416.186,68.161,415.205,67.715z M402.115,131.06
						c-0.461-4.132-1.107-10.671,1.23-14.516l0.395-0.648l-0.705,0.282c-2.676,1.071-4.137,3.484-5.309,5.424
						c-0.213,0.347-0.414,0.683-0.611,0.988c-0.842-5.392,1.299-15.31,3.613-18.938l0.418-0.651l-0.721,0.281
						c-4.221,1.641-8.688,7.728-10.408,11.241c-2.146-21.749,11.74-34.034,18.465-39.982c1.871-1.655,3.367-3.249,4.461-4.412
						c0.896-0.953,1.82-1.938,2.047-1.956c0.744,0.488,3.73,10.643,3.756,23.618C418.77,104.559,415.893,121.685,402.115,131.06z"/>
				</g>
			</g>
			<g>
				<path fill="#CFDAE3" d="M367.476,167.284c-12.114,4.698-62.293,4.004-94.494,17.323c-3.877,15.509,11.814,27.718,25.133,23.841
					c13.317-3.877,34.266-6.169,47.696-2.937c9.105,2.191,22.634,9.367,31.652,4.13c0.126,1.013-0.317,3.54-2.023,5.058
					c2.466,0.949,11.822-2.591,14.603-12.39c1.17,1.39,1.508,2.302,2.656,4.866c1.709-1.136,5.311-10.113,3.285-17.068
					c1.205,1.202,4.428,4.805,4.807,6.006c1.896-1.708,2.844-13.908-1.709-20.104c2.594,1.896,3.496,2.071,4,2.292
					C402.941,176.751,395.545,152.048,367.476,167.284z"/>
				<path fill="#EEF3F6" d="M380.614,162.588c-3.771,0.532-8.125,1.974-13.138,4.696c-12.114,4.698-62.293,4.004-94.494,17.323
					c-2.339,9.357,2.45,17.507,9.539,21.653c13.01,5.152,15.792-4.71,50.689-5.09c14.289-0.155,39.174,8.979,46.319-2.317
					c1.011,3.12,1.011,4.551,0.338,6.996c4.549-4.045,6.57-8.345,5.629-15.024c2.123,2.128,2.967,3.331,4.484,5.86
					c2.021-5.059,1.527-9.38,0-15.545c2.529,1.012,4.973,2.625,7.25,4.732c0-7.249-3.125-12.462-4.096-13.111
					c1.414,0.327,3.369,0.298,4.096,0.298C394.855,166.333,388.379,161.173,380.614,162.588z"/>
				<path fill="#5B6B75" d="M392.838,164.229c-6.771-3.62-15.34-2.67-25.47,2.825c-4.456,1.722-14.035,2.709-26.16,3.961
					c-20.256,2.09-48.004,4.952-68.321,13.357l-0.121,0.048l-0.031,0.123c-1.729,6.919,0.283,13.777,5.516,18.815
					c5.397,5.192,13.223,7.286,19.935,5.33c13.11-3.817,34.236-6.141,47.567-2.932c2.202,0.531,4.666,1.354,7.275,2.226
					c8.125,2.716,17.317,5.788,24.202,2.078c-0.013,1.129-0.524,3.175-1.958,4.448l-0.312,0.277l0.389,0.147
					c0.293,0.115,0.654,0.169,1.071,0.169c1.2,0,2.839-0.458,4.508-1.292c2.094-1.048,7.116-4.188,9.224-10.971
					c0.803,1.032,1.182,1.883,1.975,3.677l0.461,1.035l0.252-0.166c1.848-1.233,5.09-9.653,3.625-16.419
					c1.457,1.556,3.783,4.266,4.086,5.221l0.119,0.375l0.289-0.263c1.898-1.71,2.877-12.762-0.941-19.329
					c1.49,0.998,2.258,1.29,2.709,1.46c0.098,0.037,0.182,0.068,0.254,0.099l0.395,0.171l-0.041-0.426
					C403.232,177.171,400.598,168.377,392.838,164.229z M399.232,175.804l-1.326-0.97l0.975,1.323
					c4.225,5.752,3.674,17.035,1.979,19.486c-0.83-1.593-3.863-4.884-4.693-5.716l-0.697-0.698l0.275,0.947
					c1.877,6.45-1.225,14.88-2.951,16.59l-0.201-0.456c-0.883-1.988-1.287-2.896-2.354-4.166l-0.307-0.365l-0.131,0.458
					c-1.961,6.911-7.017,10.079-9.098,11.118c-2.063,1.031-3.797,1.335-4.76,1.205c1.57-1.661,1.884-4.054,1.769-4.952l-0.047-0.378
					l-0.331,0.191c-6.725,3.905-15.979,0.812-24.144-1.918c-2.621-0.876-5.095-1.704-7.323-2.239
					c-13.555-3.263-34.321-0.991-47.823,2.94c-6.544,1.904-14.174-0.141-19.442-5.21c-5.071-4.879-7.037-11.507-5.407-18.203
					c20.244-8.338,47.878-11.19,68.064-13.273c12.177-1.255,21.79-2.248,26.303-3.998l0.032-0.014
					c9.976-5.416,18.389-6.367,25.004-2.832c6.805,3.639,9.639,11.174,10.148,13.224
					C402.188,177.681,401.199,177.243,399.232,175.804z"/>
			</g>
			<g>
				<path fill="#768594" d="M334.769,160.077c-17.28-18.629-75.442-4.637-75.945,0c-1.856,7.333,2.358,40.038,17.444,23.854
					c12.9-5.732,60.102-5.057,86.909-13.824l-1.467-14.105C352.607,151.283,337.802,157.042,334.769,160.077z"/>
				<path fill="#293B47" d="M310.513,178.292c-15.226,1.478-28.375,2.754-34.344,5.408l-0.084,0.059
					c-3.727,3.996-7.024,5.254-9.804,3.738c-6.833-3.723-8.49-22.314-7.208-27.393c0.07-0.646,1.889-1.912,6.785-3.533
					c17.43-5.767,55.475-10.608,68.726,3.677l0.179,0.193l0.185-0.187c3.069-3.069,17.766-8.919,26.763-4.253
					c0,0-1.432-1.447-4.948-2.026c-0.03-0.005-0.058-0.008-0.083-0.012c-8.624-1.15-19.016,3.144-21.897,5.754
					c-13.563-14.223-51.622-9.403-69.08-3.627c-3.171,1.05-6.982,2.588-7.123,3.924c-1.301,5.138,0.44,24.1,7.459,27.927
					c0.843,0.46,1.727,0.689,2.646,0.689c2.349,0,4.941-1.5,7.737-4.488c5.918-2.608,19.001-3.877,34.142-5.347
					c17.904-1.737,38.195-3.706,52.693-8.447l-0.157-0.481C348.652,174.59,328.393,176.557,310.513,178.292z"/>
			</g>
			<g>
				<path fill="#CFDAE3" d="M258.824,160.077c-1.856,7.333,2.358,40.038,17.444,23.854c2.026-0.898,4.896-1.641,8.4-2.287
					c-4.631-9.167-10.917-17.641-17.024-25.898C262.327,157.342,258.941,158.974,258.824,160.077z"/>
				<path fill="#EEF3F6" d="M258.824,160.077c-1.856,7.333,1.808,37.615,15.4,19.092c2.026-0.9,6.94,3.121,10.445,2.475
					c-4.631-9.167-10.917-17.641-17.024-25.898C262.327,157.342,258.941,158.974,258.824,160.077z"/>
				<path fill="#5B6B75" d="M268.007,155.809l-0.262-0.356l-0.173,0.051c-3.271,0.983-8.78,2.874-9.001,4.526
					c-1.29,5.161,0.451,24.089,7.465,27.912c0.843,0.46,1.727,0.689,2.646,0.689c2.349,0,4.941-1.5,7.737-4.488
					c1.893-0.833,4.605-1.569,8.292-2.249l0.333-0.062l-0.152-0.302C280.293,172.421,274.046,163.977,268.007,155.809z
					 M276.169,183.701l-0.084,0.059c-3.727,3.996-7.024,5.254-9.804,3.738c-6.833-3.723-8.49-22.314-7.214-27.358l0.006-0.035
					c0.079-0.719,2.347-2.21,8.475-4.064l0.053,0.07c5.96,8.061,12.122,16.391,16.688,25.348
					C280.699,182.133,278.04,182.868,276.169,183.701z"/>
			</g>
			<g>
				<path fill="#CFDAE3" d="M334.348,168.084c-10.275-14.501-39.45-11.801-49.902-10.958c-10.452,0.844-20.905,25.457,1.688,36.078
					c22.589,10.621,59.342-7.586,74.344-20.399l7.259-5.375C363.437,152.047,336.37,164.039,334.348,168.084z"/>
				<path fill="#EEF3F6" d="M334.348,168.084c-10.275-14.501-39.45-11.801-49.902-10.958c-10.452,0.844-21.324,22.169,1.266,32.79
					c21.633,10.17,53.94-6.465,70.011-19.114c3.429,1.475,3.36,3.073,3.88,2.914l8.134-6.286
					C363.437,152.047,336.37,164.039,334.348,168.084z"/>
				<path fill="#5B6B75" d="M357.898,159.542c-9.215-0.883-21.402,5.151-23.567,8.092c-10.329-13.977-38.551-11.683-49.221-10.814
					l-0.687,0.055c-5.202,0.419-10.321,6.499-11.652,13.839c-1.73,9.513,3.227,18.006,13.251,22.718
					c4.846,2.279,10.295,3.251,16.019,3.251c21.575,0,47.046-13.82,58.602-23.687l-0.329-0.384
					c-14.535,12.412-51.183,31.124-74.077,20.362c-14.131-6.645-13.778-17.718-12.97-22.17c1.292-7.126,6.213-13.023,11.199-13.426
					l0.684-0.056c10.669-0.868,39.017-3.173,48.992,10.908l0.242,0.345l0.188-0.378c1.313-2.623,14.069-9.037,23.278-8.153
					c5.001,0.479,8.23,3.204,9.452,7.574l0.434-0.188C366.454,162.839,363.13,160.043,357.898,159.542z"/>
			</g>
			<g>
				<path fill="#181F28" d="M255.448,152.87c-1.896,9.356,10.759,19.008,15.68,18.249c4.919-0.759,3.97-14.3,17.204-14.298
					C280.197,138.565,257.346,143.513,255.448,152.87z"/>
				<path fill="#2C3542" d="M278.514,146.386c-9.725-4.608-21.713-0.182-23.065,6.484c-1.025,5.064,2.213,10.213,6.179,13.752
					c6.657,4.791,8.23-3.068,12.282-8C277.123,154.716,287.25,151.732,278.514,146.386z"/>
				<path fill="#0A0F14" d="M267.603,144.361c-6.437,0.708-11.537,4.187-12.401,8.458c-1.098,5.421,2.542,10.221,4.811,12.599
					c3.376,3.538,7.749,5.997,10.537,5.995c0.214,0,0.422-0.014,0.618-0.044c1.945-0.3,3.014-2.424,4.246-4.882
					c2.107-4.193,4.728-9.413,12.917-9.413h0.002h0.39l-0.159-0.356C283.971,146.412,274.725,143.577,267.603,144.361z
					 M274.962,166.26c-1.221,2.43-2.186,4.349-3.873,4.61c-2.535,0.391-7.233-2.159-10.709-5.802
					c-3.746-3.924-5.452-8.353-4.681-12.149c0.823-4.059,5.739-7.371,11.961-8.055c0.711-0.079,1.448-0.12,2.194-0.12
					c6.466,0,14.024,3.072,18.086,11.827C279.746,156.741,276.986,162.232,274.962,166.26z"/>
			</g>
			<g>
				<path fill="#EEF3F6" d="M352.793,170.267c5.415,0.807,8.926,4.351,8.926,11.81c0,0,6.685-4.34,2.298-10.03
					C359.633,166.357,352.793,170.267,352.793,170.267z"/>
				<path fill="#5B6B75" d="M361.673,177.524c-0.778-2.884-2.365-5.044-4.676-6.375c-0.047-0.026-0.091-0.056-0.141-0.08
					c-2.773-1.278-4.062-0.802-4.062-0.802c5.755,0.859,8.926,5.053,8.926,11.81c0,0,0.776-1.216,0-4.371
					C361.704,177.646,361.689,177.584,361.673,177.524z"/>
			</g>
			<path fill="#58626D" d="M262.309,146.586c-3.632,1.419-6.054,3.91-5.404,5.566c0.645,1.655,4.115,1.846,7.746,0.427
				c3.63-1.42,6.052-3.911,5.403-5.566C269.406,145.358,265.939,145.167,262.309,146.586z"/>
		</g>
		<g>
			<g>
				<path fill="#627482" d="M453.275,306.8c-13.148-12.896-45.932-12.781-52.295,10.063c-6.674,23.956,35.828,44.422,44.635,46.847
					c-26.553,5.253-36.922,1.324-42.316,1.091c-5.4-0.23-21.792,16.671-12.141,19.579c4.465,2.277,31.191,5.814,36.756,3.415
					c1.469,0.488,32.43-0.444,41.189-6.729c2.852-2.047,2.982-5.557,0.566-9.854L453.275,306.8z"/>
				<path fill="#627482" d="M453.275,306.8c-13.148-12.896-45.932-12.781-52.295,10.063c-6.674,23.956,35.828,44.422,44.635,46.847
					c-26.553,5.253-36.922,1.324-42.316,1.091c-5.4-0.23-21.792,16.671-12.141,19.579c4.465,2.277,31.191,5.814,36.756,3.415
					c1.469,0.488,32.43-0.444,41.189-6.729c2.852-2.047,2.982-5.557,0.566-9.854L453.275,306.8z"/>
				<path fill="#768594" d="M445.16,363.797c-26.213,5.115-36.498,1.237-41.861,1.004c-3.461-0.146-11.436,6.741-14.174,12.473
					c-0.662,2.016,2.025,3.125,4.49-0.007c7.08,5.058,13.561,9.642,21.652,8.124c2.529,0,8.764-1.715,6.744-4.749
					c8.26,3.147,26.648,2.17,31.379-4.136C457.186,371.45,453.58,365.252,445.16,363.797z"/>
				<path fill="#768594" d="M400.98,316.863c-4.793,17.2,15.768,32.604,31.006,40.819c12.785,2.858,26.254-0.126,32.406-14.308
					c5.328-12.282-4.668-30.5-11.117-36.575C439.883,294.186,407.344,294.019,400.98,316.863z"/>
				<path fill="#293B47" d="M468.955,380.861c-4.588,3.293-15.152,5.004-23.207,5.858c-9.328,0.99-17.141,1.038-17.756,0.833
					l-0.092-0.031l-0.09,0.039c-5.283,2.283-31.859-1.022-36.578-3.423c-2.176-0.655-3.092-2.089-2.723-4.262
					c0.961-5.661,10.723-14.823,14.67-14.823c0.037,0,0.07,0,0.105,0.002c1.074,0.046,2.332,0.239,3.928,0.483
					c6.436,0.979,17.201,2.625,38.449-1.579l1.051-0.207l-1.033-0.286c-5.975-1.645-32.646-13.884-41.941-30.299
					c-3.129-5.53-3.977-10.993-2.514-16.239c2.41-8.651,9.004-14.83,18.561-17.388c11.875-3.181,25.957-0.128,33.49,7.26
					c0,0-1.572-2.519-5.941-4.856c-0.092-0.048-0.184-0.094-0.275-0.141c-7.844-4-18.27-5.197-27.4-2.753
					c-9.74,2.608-16.461,8.909-18.92,17.744c-1.5,5.38-0.639,10.971,2.561,16.622c8.934,15.779,33.771,27.727,41.277,30.239
					c-20.508,3.941-30.986,2.344-37.287,1.381c-1.609-0.246-2.881-0.439-3.98-0.487c-0.039-0.003-0.078-0.003-0.117-0.003
					c-4.199,0-14.168,9.269-15.182,15.247c-0.412,2.429,0.652,4.099,3.033,4.811c3.682,1.877,19.803,4.246,29.822,4.246
					c3.15,0,5.699-0.232,7.066-0.791c2.652,0.554,32.764-0.65,41.318-6.785c1.633-1.172,2.473-2.812,2.508-4.768
					c0.004-0.084,0.004-0.173,0-0.26c-0.141-3.226-2.088-5.034-2.088-5.034C471.996,375.351,471.734,378.867,468.955,380.861z"/>
			</g>
			<g>
				<path fill="#293B47" d="M446.383,363.627c-0.299-0.062-0.537-0.115-0.703-0.161l-0.133,0.488c0.17,0.048,0.418,0.1,0.734,0.165
					c1.502,0.318,4.621,0.973,7.109,2.914c0,0-1.188-1.236-3.227-2.234C449.062,364.256,446.926,363.739,446.383,363.627z"/>
			</g>
			<g>
				<path fill="#627482" d="M390.486,385.453c0.949,3.144,7.236,5.976,25.684,2.988l-11.08-17.102
					C396.051,371.34,389.441,381.989,390.486,385.453z"/>
				<path fill="#768594" d="M391.158,382.651c0.949,3.143,9.543,3.684,27.988,0.694L405.09,371.34
					C399.463,370.428,390.115,379.188,391.158,382.651z"/>
				<path fill="#293B47" d="M390.729,385.38c-0.459-1.521,0.66-4.523,2.725-7.301c1.506-2.026,5.652-6.739,11.637-6.739
					c0,0-2.262-0.742-5.689,0.904c-0.031,0.016-0.062,0.034-0.094,0.05c-3.094,1.602-5.254,4.128-6.262,5.483
					c-2.148,2.897-3.303,6.085-2.799,7.749c0.469,1.56,2.662,4.44,12.438,4.44c3.469,0,7.891-0.364,13.525-1.276l-0.082-0.499
					C394.41,391.707,391.195,386.929,390.729,385.38z"/>
			</g>
			<g>
				<path fill="#627482" d="M398.957,388.868c1.393,4.553,29.777,5.248,29.777-3.16l-17.168-11.207
					C407.205,376.207,397.936,385.521,398.957,388.868z"/>
				<path fill="#768594" d="M416.533,374.742l-4.967-0.241c-4.361,1.706-13.631,11.021-12.609,14.367
					c2.445,2.928,28.957,3.098,23.055-8.227L416.533,374.742z"/>
				<path fill="#293B47" d="M419.096,391.466c-8.525,1.271-19.127-0.149-19.898-2.671c-0.994-3.266,8.15-12.643,12.369-14.294
					c0,0-2.811,0.649-5.871,3.549c-0.055,0.053-0.109,0.102-0.164,0.154c-3.869,3.604-7.516,8.449-6.814,10.737
					c0.691,2.271,7.008,3.505,13.578,3.505c2.34,0,4.715-0.158,6.877-0.48c4.135-0.615,7.084-1.742,8.684-3.271
					c0.021-0.019,0.043-0.036,0.061-0.058c1.324-1.434,0.818-2.93,0.818-2.93C428.734,389.467,422.697,390.929,419.096,391.466z"/>
			</g>
		</g>
		<g>
			<path fill="#627482" d="M361.892,266.384c-7.333,17.701,3.56,30.754,5.583,36.568c2.023,5.816,4.046,52.492-1.012,65.623
				c-2.624,6.806-14.541,5.627-19.473,5.689c-4.721,0.061-7.333,5.436-8.345,11.126c-1.011,5.69,4.808,6.828,6.45,6.07
				c-0.822,3.443,4.993,5.311,10.114,3.54c23.898,4.93,31.861-15.678,32.562-18.755c9.297,0.973,6.002-9.568,4.738-18.671
				c-1.266-9.105,9.357-48.573,10.51-63.491L361.892,266.384z"/>
			<path fill="#768594" d="M392.846,271.597l-30.954-5.213c-7.333,17.701,3.56,30.754,5.583,36.568
				c2.023,5.816,4.046,52.492-1.012,65.623c-2.624,6.806-14.541,5.627-19.473,5.689c-4.721,0.061-7.333,5.436-8.345,11.126
				c-0.949,4.316,6.133,3.459,7.622,2.257c-0.823,3.445,3.507,5.962,9.419,2.319c23.898,4.93,27.525-15.031,28.226-18.105
				c9.295,0.973,5.11-6.953,5.11-17.321c0-9.191,11.707-45.819,13.998-60.456L392.846,271.597z"/>
			<path fill="#B6C2CC" d="M356.772,389.679c2.684-7.708,4.917-9.389,7.778-8.866C360.662,378.275,357.888,382.883,356.772,389.679z
				"/>
			<path fill="#B6C2CC" d="M346.495,388.47c2.178-5.187,4.615-9.75,7.404-10.035C349.8,376.058,346.466,387.037,346.495,388.47z"/>
			<path fill="#B6C2CC" d="M361.892,266.384c-7.333,17.701,3.56,30.754,5.583,36.568c2.023,5.816,4.046,52.492-1.012,65.623
				c-2.624,6.806-14.541,5.627-19.473,5.689c-4.721,0.061-7.333,5.436-8.345,11.126c-0.073,0.339-0.094,0.643-0.076,0.92
				c0.076,0.212,0.145,0.43,0.223,0.64c0.833-5.433,4.922-10.55,9.053-10.444c4.131,0.107,15.537,0.859,20.221-5.333
				c5.118-6.771,5.37-59.243,2.725-69.399C369.436,296.576,357.574,280.387,361.892,266.384z"/>
			<g>
				<path fill="#293B47" d="M351.221,377.562c-0.032,0.014-0.062,0.032-0.095,0.048c-2.494,1.329-4.665,6.094-6.28,13.799
					l0.496,0.105c1.578-7.536,3.746-12.329,6.104-13.498c0.794-0.396,1.599-0.388,2.453,0.018
					C353.899,378.033,352.825,376.856,351.221,377.562z"/>
			</g>
			<g>
				<path fill="#293B47" d="M361.085,379.473c-0.105,0.034-0.202,0.081-0.301,0.129c-4.046,1.941-5.423,11.397-5.826,15.374
					l0.502,0.05c0.31-3.035,1.621-13.087,5.541-14.968c1.128-0.541,2.406-0.354,3.806,0.553
					C364.807,380.61,363.239,378.768,361.085,379.473z"/>
			</g>
			<path fill="#293B47" d="M397.688,323.475c-3.02,14.264-6.143,29.011-5.428,34.135c0.182,1.311,0.408,2.667,0.627,3.981
				c0.934,5.573,1.811,10.84-0.396,13.19c-0.982,1.046-2.518,1.441-4.691,1.214l-0.227-0.024l-0.047,0.221
				c-0.379,1.651-2.561,7.442-7.512,12.253c-6.432,6.248-14.76,8.368-24.751,6.308l-0.068-0.012l-0.067,0.021
				c-3.318,1.147-7.182,0.786-8.979-0.845c-0.739-0.67-1.02-1.502-0.808-2.397l0.12-0.506l-0.471,0.218
				c-0.856,0.393-2.984,0.22-4.509-0.957c-0.98-0.758-2.052-2.212-1.583-4.839c0.576-3.257,2.526-10.845,8.098-10.918
				c0.619-0.009,1.35,0.005,2.16,0.019c5.679,0.088,15.189,0.244,17.545-5.868c4.99-12.953,3.116-59.75,1.011-65.798
				c-0.408-1.182-1.195-2.671-2.104-4.394c-3.567-6.751-9.532-18.05-3.714-32.092c0,0-1.23,0.613-2.342,5.89
				c-0.007,0.044-0.016,0.091-0.026,0.137c-2.251,11.368,2.568,20.497,5.635,26.303c0.901,1.702,1.677,3.176,2.075,4.323
				c2.094,6.016,3.954,52.565-1.006,65.447c-2.229,5.784-11.517,5.635-17.068,5.546c-0.812-0.014-1.546-0.026-2.172-0.019
				c-5.946,0.078-7.988,7.954-8.592,11.335c-0.511,2.878,0.684,4.487,1.778,5.328c1.52,1.175,3.493,1.405,4.604,1.153
				c-0.091,0.923,0.262,1.767,1.031,2.464c1.914,1.734,5.951,2.146,9.417,0.97c2.487,0.509,4.804,0.739,6.969,0.739
				c17.25,0,24.552-14.627,25.771-19.481c2.23,0.194,3.83-0.261,4.891-1.392c2.383-2.532,1.484-7.917,0.529-13.621
				c-0.219-1.311-0.445-2.662-0.625-3.965c-0.701-5.037,2.41-19.74,5.422-33.962c1.211-5.734,2.445-11.565,3.432-16.784
				c0.018-0.094,0.033-0.188,0.051-0.28c1.676-8.242,1.355-12.431,1.355-12.431C402.512,300.663,400.059,312.26,397.688,323.475z"/>
		</g>
	</g>
	<path d="M350.146,125.004c6.751,1.353,10.178,4.327,15.479,11.186C365.788,132.429,359.285,122.383,350.146,125.004z"/>
</g>
</svg>
