<svg version="1.1" xmlns="http://www.w3.org/2000/svg" viewBox="0 0 768 430" xml:space="preserve"><path d="M478.9 198.3c3.8-1.7 6.7-4.8 9.2-8.6 7.5-11.2 2.6-25.7 9.9-37.5 0.3-0.4-1.5-13.8-0.5-6.1 1.6 12.5-4.1-27.9-15.7-34 -4.5-2.3-9.3-2.6-14.2-3.3 -4.3-0.6-7.6-4.2-8.6-8.7 -0.8-3.4-1.3-6.7-2.2-9.9 -0.9-3-2.1-5.7-4.4-8.1 -4-4.1-9-6-14.2-6.8 -2.2-0.3-4.5-0.4-6.8-0.4 -1.5 0-3.1 0-4.6 0 -4.7 0.1-9.3 0.2-14 0 -6.6-0.3-12.5-3.6-18.4-6.5 -3.3-1.6-6.9-2.5-10.5-2.3 -1.7 0.1-3.4 0.5-5 1 -8 2.4-14.4 8.8-20.8 14.8 -3.9 3.7-8.1 6.8-13.2 7.6 -2.1 0.4-4.3 0.5-6.5 0.2 -2.2-0.3-4.3-0.9-6.4-2 -7-3.6-11.7-2.3-19.5 1.5 -9.2 4.6-15.7 9-18.9 18.7 -0.8 2.4-2.1 4.5-3.6 6.3 -1.8 2.2-3.9 4-6.3 5.3 -1.4 0.9-2.7 1.8-4 2.6 -4.1 1.4-7.6 4.3-10.2 8 -1.6 2.3-2.7 4.9-3.3 7.8 -2.3 10.8 4.4 20.2 12.8 25 10.4 6 20.4 12.7 27.5 23 0.9 1.2 1.7 2.5 2.6 3.8 0.8 1.3 1.6 2.6 2.4 4 1.1 1.9 2.3 3.5 3.7 5 1.5 1.5 3.2 2.7 5.3 3.5 2.8 0.9 5.6 0.8 8.3 0.2 0.9-0.2 1.8-0.5 2.7-0.8 0.8-0.3 1.5-0.6 2.2-1 2.6-1.3 4.8-3.2 7.3-4.7 3.7-2.3 8.9-2.8 12 0.7 0.7 0.7 1.3 1.6 1.8 2.5 2.5 4.9 5.3 9.6 9.8 12.3 1 0.6 2 1 3 1.3 9.3 2.6 20.4-5.3 29.4 1.7 10.7 8.3 13.6 23.1 10.6 36.2 -0.3 1.4-0.8 2.9-1.3 4.3 -0.7 2.1-1.6 4.1-2.5 6.2 -0.5 1.1-1.1 2.2-1.7 3.3s-1.1 2.3-1.6 3.4c-3.3 7-5.9 15.6-1.6 23.1 3.6 6.2 10.1 9.1 16.6 8 7.1-1.3 12.4-8.2 12.5-15.9 0.1-1.6 0-3.2-0.2-4.9 -0.8-6.6-3.5-13.4-5.2-19.2 -0.3-1.1-0.6-2.2-0.9-3.3 -0.3-1.1-0.6-2.2-0.8-3.2 -0.4-1.8-0.9-3.6-1.3-5.4 -0.4-1.8-0.8-3.6-1.2-5.4 -0.3-1.3-0.5-2.7-0.8-4.1s-0.5-2.7-0.7-4.1c-1.5-8.7-0.9-19.1 6.7-24.7 2.7-2 5.9-2.7 8.9-1.5 1 0.4 1.6 1.1 2.2 2 2.3 4.1 2.3 8.9 3 13.7 0.6 3.9 1.8 7.9 5.1 10 1.3 0.9 2.8 1.1 4.2 0.8 1.4-0.3 2.8-1 3.8-2.1 0.6-0.6 1.2-1.2 1.7-1.9s0.9-1.4 1.3-2.1c2.1-3.9 3.2-8.3 5-12.4 0.7-1.5 1.5-2.9 2.4-4.2" fill="#F6C063"/></svg>