<svg version="1.1" xmlns="http://www.w3.org/2000/svg"   viewBox="0 0 768 430" enable-background="new 0 0 768 430" xml:space="preserve"><path fill="#DDE4D0" d="M345 172.6l-12.3 23.6c-3.3 6.5-6.2 12.1-8.6 17.7h-0.3c-2.7-6-5.2-11.2-8.5-17.7l-12.1-23.6h-12.6l27.1 49.3v36.3h11.2v-36.4l28.7-49.1H345z"/><polygon fill="#DDE4D0" points="377.5 248.9 377.5 218 410.8 218 410.8 208.9 377.5 208.9 377.5 181.8 412.7 181.8 412.7 172.6 366.5 172.6 366.5 258.2 414.6 258.2 414.6 248.9 "/><path fill="#DDE4D0" d="M454.6 209.7c-11.8-4.6-17-8.5-17-16.5 0-5.8 4.4-12.8 16.1-12.8 7.7 0 13.5 2.5 16.3 4.1l3-9c-3.8-2.2-10.2-4.2-18.9-4.2 -16.6 0-27.7 9.9-27.7 23.2 0 12.1 8.6 19.3 22.6 24.3 11.6 4.4 16.1 9 16.1 17 0 8.6-6.6 14.6-17.9 14.6 -7.6 0-14.9-2.5-19.8-5.6l-2.8 9.3c4.6 3 13.6 5.5 21.8 5.5 20.2 0 30-11.4 30-24.6C476.4 222.2 469.1 215.2 454.6 209.7z"/><rect x="225" y="136" fill-rule="evenodd" clip-rule="evenodd" fill="none" stroke="#DDE4D0" stroke-width="9" stroke-miterlimit="10" width="318" height="157"/></svg>