<svg version="1.1" id="Layer_1" xmlns="http://www.w3.org/2000/svg" xmlns:xlink="http://www.w3.org/1999/xlink" viewBox="0 0 768 430" xml:space="preserve">
<path fill="#DDE4D0" d="M345,141.6l-12.3,23.6c-3.3,6.5-6.2,12.1-8.6,17.7h-0.3c-2.7-6-5.2-11.2-8.5-17.7l-12.1-23.6h-12.6
	l27.1,49.3v36.3h11.2v-36.4l28.7-49.1H345V141.6z"/>
<polygon fill="#DDE4D0" points="377.5,217.9 377.5,187 410.8,187 410.8,177.9 377.5,177.9 377.5,150.8 412.7,150.8 412.7,141.6 
	366.5,141.6 366.5,227.2 414.6,227.2 414.6,217.9 "/>
<path fill="#DDE4D0" d="M454.6,178.7c-11.8-4.6-17-8.5-17-16.5c0-5.8,4.4-12.8,16.101-12.8c7.7,0,13.5,2.5,16.3,4.1l3-9
	c-3.8-2.2-10.2-4.2-18.9-4.2c-16.6,0-27.699,9.9-27.699,23.2c0,12.1,8.6,19.3,22.6,24.3c11.6,4.4,16.1,9,16.1,17
	c0,8.601-6.6,14.601-17.899,14.601c-7.601,0-14.9-2.5-19.8-5.601l-2.801,9.3c4.601,3,13.601,5.5,21.801,5.5
	c20.199,0,30-11.399,30-24.6C476.4,191.2,469.1,184.2,454.6,178.7z"/>
<rect x="225" y="105" fill="none" stroke="#DDE4D0" stroke-width="9" stroke-miterlimit="10" width="318" height="157"/>
</svg>
