<svg version="1.1" id="Layer_1" xmlns="http://www.w3.org/2000/svg" xmlns:xlink="http://www.w3.org/1999/xlink" viewBox="0 0 768 430" enable-background="new 0 0 768 430" xml:space="preserve">
<linearGradient id="SVGID_1_" gradientUnits="userSpaceOnUse" x1="13.7832" y1="402.9023" x2="21.9655" y2="402.9023" gradientTransform="matrix(12.667 -8.6605 -8.6605 -12.667 3685.5222 5446.6201)">
	<stop  offset="0" style="stop-color:#F59300"/>
	<stop  offset="1" style="stop-color:#C25100"/>
</linearGradient>
<path fill="url(#SVGID_1_)" d="M586.055,223.92c-8.534,8.392-23.544,16.784-45.062,25.162
	c-42.648,16.356-95.5,24.533-158.555,24.533c-72.69,0-131.472-9.018-176.357-27.049c-22.631-9.221-37.83-18.444-45.619-27.667
	c12.985-2.101,29.486-10.492,49.514-25.163c36.351-27.264,57.68-42.777,63.978-46.552c34.493-21.803,64.356-43.62,89.569-65.424
	c15.944,14.67,55.444,40.248,118.499,76.735C523.189,181.985,557.86,203.788,586.055,223.92z"/>
<linearGradient id="SVGID_2_" gradientUnits="userSpaceOnUse" x1="2.0796" y1="410.5586" x2="2.5762" y2="410.5586" gradientTransform="matrix(12.6778 -8.6436 -8.6436 -12.6778 3678.2505 5451.2358)">
	<stop  offset="0" style="stop-color:#F59300"/>
	<stop  offset="1" style="stop-color:#C25100"/>
</linearGradient>
<path fill="url(#SVGID_2_)" d="M162.687,218.887c7.789,9.649,7.232,15.3-1.669,16.985c-9.646,1.259-15.21-0.629-16.69-5.661
	c-1.113-3.775,0.924-7.336,6.12-10.695C156.011,215.741,160.094,215.539,162.687,218.887z"/>
<linearGradient id="SVGID_3_" gradientUnits="userSpaceOnUse" x1="2.2275" y1="408.8389" x2="2.5984" y2="408.8389" gradientTransform="matrix(12.8834 -8.3368 -8.3368 -12.8834 3546.0315 5539.6011)">
	<stop  offset="0" style="stop-color:#F59300"/>
	<stop  offset="1" style="stop-color:#C25100"/>
</linearGradient>
<path fill="url(#SVGID_3_)" d="M168.807,247.825c7.422,3.358,9.269,6.29,5.564,8.806c-3.338,2.09-7.611,2.304-12.796,0.629
	c-4.45-0.83-5.196-2.931-2.225-6.29C162.32,247.611,165.469,246.566,168.807,247.825z"/>
<linearGradient id="SVGID_4_" gradientUnits="userSpaceOnUse" x1="2.5684" y1="408.7324" x2="2.7518" y2="408.7324" gradientTransform="matrix(12.2757 -9.2068 -9.2068 -12.2757 3920.8945 5278.4438)">
	<stop  offset="0" style="stop-color:#F59300"/>
	<stop  offset="1" style="stop-color:#C25100"/>
</linearGradient>
<path fill="url(#SVGID_4_)" d="M189.947,235.243c4.083,0.415,5.196,1.673,3.338,3.774c-1.859,1.687-3.895,1.888-6.12,0.628
	c-2.225-0.841-3.149-1.887-2.782-3.145C185.129,235.243,186.977,234.828,189.947,235.243z"/>
<linearGradient id="SVGID_5_" gradientUnits="userSpaceOnUse" x1="4.0078" y1="407.7695" x2="4.1403" y2="407.7695" gradientTransform="matrix(12.7683 -8.5117 -8.5117 -12.7683 3621.4004 5490.1445)">
	<stop  offset="0" style="stop-color:#F59300"/>
	<stop  offset="1" style="stop-color:#C25100"/>
</linearGradient>
<path fill="url(#SVGID_5_)" d="M202.743,247.825c4.829,1.257,3.705,2.314-3.338,3.145c-1.112-0.415-1.301-1.057-0.556-1.888
	C199.961,247.825,201.263,247.409,202.743,247.825z"/>
<linearGradient id="SVGID_6_" gradientUnits="userSpaceOnUse" x1="6.105" y1="404.5566" x2="6.9154" y2="404.5566" gradientTransform="matrix(12.7146 -8.5915 -8.5915 -12.7146 3655.7678 5467.064)">
	<stop  offset="0" style="stop-color:#F59300"/>
	<stop  offset="1" style="stop-color:#C25100"/>
</linearGradient>
<path fill="url(#SVGID_6_)" d="M236.123,268.583c-4.45-2.502-4.45-4.817,0-6.919c4.084-2.087,7.789-2.516,11.127-1.259
	c2.225,1.259,9.268,1.674,21.14,1.259c6.309,0.831,9.269,3.978,8.901,9.437c-0.367,2.515-0.745,5.661-1.112,9.436
	c1.48,1.272,0,2.316-4.451,3.147c-4.083,0.828-7.789,0.828-11.126,0c-2.593-0.417-4.451-1.875-5.563-4.406
	c-1.113-2.528-1.858-3.975-2.226-4.415L236.123,268.583L236.123,268.583z"/>
<linearGradient id="SVGID_7_" gradientUnits="userSpaceOnUse" x1="4.6416" y1="404.9883" x2="4.9944" y2="404.9883" gradientTransform="matrix(12.644 -8.6927 -8.6927 -12.644 3699.4021 5436.7271)">
	<stop  offset="0" style="stop-color:#F59300"/>
	<stop  offset="1" style="stop-color:#C25100"/>
</linearGradient>
<path fill="url(#SVGID_7_)" d="M241.686,272.988c4.451,1.258,6.119,2.517,5.007,3.773c-0.746,1.259-2.782,2.102-6.12,2.516
	c-5.563,0.416-9.458-0.414-11.683-2.516c-1.858-1.686-0.745-2.931,3.338-3.773C235.934,272.157,239.094,272.157,241.686,272.988z"/>
<linearGradient id="SVGID_8_" gradientUnits="userSpaceOnUse" x1="3.2295" y1="410.8359" x2="3.6125" y2="410.8359" gradientTransform="matrix(12.5366 -8.8493 -8.8493 -12.5366 3766.8372 5390.5649)">
	<stop  offset="0" style="stop-color:#F59300"/>
	<stop  offset="1" style="stop-color:#C25100"/>
</linearGradient>
<path fill="url(#SVGID_8_)" d="M181.046,211.966c-4.45,2.517-8.155,3.573-11.127,3.146c-5.196-0.83-7.421-1.673-6.676-2.502
	c0.746-1.688,1.669-2.945,2.782-3.788c2.226-2.515,5.007-3.347,8.346-2.515C179.934,207.563,182.159,209.451,181.046,211.966z"/>
<linearGradient id="SVGID_9_" gradientUnits="userSpaceOnUse" x1="0.4087" y1="410.8555" x2="0.5965" y2="410.8555" gradientTransform="matrix(12.2757 -9.2068 -9.2068 -12.2757 3920.8945 5278.4438)">
	<stop  offset="0" style="stop-color:#F59300"/>
	<stop  offset="1" style="stop-color:#C25100"/>
</linearGradient>
<path fill="url(#SVGID_9_)" d="M147.666,233.355c-0.746,1.259-2.414,1.687-5.007,1.259c-4.083-0.844-5.195-2.73-3.337-5.663
	c0.734-2.102,2.781-2.516,6.119-1.271C146.92,227.694,147.666,229.581,147.666,233.355L147.666,233.355z"/>
<linearGradient id="SVGID_10_" gradientUnits="userSpaceOnUse" x1="2.5225" y1="405.8652" x2="2.9691" y2="405.8652" gradientTransform="matrix(12.5703 -8.8002 -8.8002 -12.5703 3745.6758 5405.0728)">
	<stop  offset="0" style="stop-color:#F59300"/>
	<stop  offset="1" style="stop-color:#C25100"/>
</linearGradient>
<path fill="url(#SVGID_10_)" d="M209.975,276.133c6.676,0.83,8.534,3.145,5.563,6.919c-2.97,3.776-7.966,4.404-15.021,1.889
	c-6.309-2.517-7.61-4.832-3.895-6.933C199.961,275.932,204.412,275.303,209.975,276.133z"/>
<linearGradient id="SVGID_11_" gradientUnits="userSpaceOnUse" x1="10.1948" y1="400.9775" x2="11.4863" y2="400.9775" gradientTransform="matrix(12.7008 -8.6114 -8.6114 -12.7008 3664.3647 5461.1289)">
	<stop  offset="0" style="stop-color:#F59300"/>
	<stop  offset="1" style="stop-color:#C25100"/>
</linearGradient>
<path fill="url(#SVGID_11_)" d="M376.875,284.94c0,0.83-5.375,1.874-16.134,3.146c-11.494,1.673-20.952,2.503-28.373,2.503
	c-7.421,0-13.353-1.258-17.803-3.774c-4.451-2.088-6.12-4.188-5.007-6.29c1.479-5.876,6.119-11.524,13.908-16.985
	c4.818-3.359,10.937-4.202,18.359-2.517c6.309,0.83,12.239,3.146,17.802,6.919c4.083,2.933,8.156,6.505,12.24,10.709
	C375.206,282.009,376.875,284.096,376.875,284.94L376.875,284.94z"/>
<linearGradient id="SVGID_12_" gradientUnits="userSpaceOnUse" x1="11.9355" y1="399.1914" x2="12.9257" y2="399.1914" gradientTransform="matrix(12.7683 -8.5117 -8.5117 -12.7683 3621.3926 5490.1445)">
	<stop  offset="0" style="stop-color:#F59300"/>
	<stop  offset="1" style="stop-color:#C25100"/>
</linearGradient>
<path fill="url(#SVGID_12_)" d="M388.558,279.907l12.795,10.694c-1.479,5.033-6.308,8.393-14.465,10.078
	c-11.504,2.932-21.885,2.087-31.154-2.517c-2.226-1.272-1.858-3.977,1.113-8.179c1.479-2.087,3.894-5.02,7.232-8.807
	c1.479-2.504,4.829-3.976,10.014-4.403C379.289,275.932,384.107,276.976,388.558,279.907z"/>
<linearGradient id="SVGID_13_" gradientUnits="userSpaceOnUse" x1="8.1562" y1="400.541" x2="8.8404" y2="400.541" gradientTransform="matrix(12.7038 -8.6053 -8.6053 -12.7038 3661.719 5462.4468)">
	<stop  offset="0" style="stop-color:#F59300"/>
	<stop  offset="1" style="stop-color:#C25100"/>
</linearGradient>
<path fill="url(#SVGID_13_)" d="M324.579,293.746c3.338,0.845,6.487,2.933,9.458,6.292c2.593,3.359,2.97,5.877,1.113,7.562
	c-1.48,1.673-6.12,2.314-13.909,1.874c-6.309-0.429-11.683-1.259-16.134-2.516c-2.97-0.844-4.261-2.102-3.895-3.789
	c0.367-0.829,2.037-2.718,5.008-5.648C310.67,292.904,316.791,291.659,324.579,293.746z"/>
<linearGradient id="SVGID_14_" gradientUnits="userSpaceOnUse" x1="6.8359" y1="400.7588" x2="7.2614" y2="400.7588" gradientTransform="matrix(12.6639 -8.6651 -8.6651 -12.6639 3687.5015 5445.3013)">
	<stop  offset="0" style="stop-color:#F59300"/>
	<stop  offset="1" style="stop-color:#C25100"/>
</linearGradient>
<path fill="url(#SVGID_14_)" d="M311.228,309.475c1.48,1.686,1.301,2.93-0.557,3.786c-4.083,2.089-9.824,2.303-17.246,0.631
	c-4.451-1.688-2.592-5.035,5.563-10.067c1.858-1.686,4.083-1.886,6.676-0.642C308.256,304.441,310.114,306.528,311.228,309.475z"/>
<linearGradient id="SVGID_15_" gradientUnits="userSpaceOnUse" x1="18.1724" y1="395.5605" x2="19.3763" y2="395.5605" gradientTransform="matrix(12.6578 -8.6728 -8.6728 -12.6578 3690.8152 5442.6626)">
	<stop  offset="0" style="stop-color:#F59300"/>
	<stop  offset="1" style="stop-color:#C25100"/>
</linearGradient>
<path fill="url(#SVGID_15_)" d="M465.331,276.762c1.113-2.102,2.592-5.461,4.451-10.063c1.479-4.203,3.894-7.121,7.221-8.809
	c4.084-2.102,8.712-2.73,13.908-1.886c5.196,0.841,9.078,2.729,11.684,5.66c2.971,3.774,6.865,6.706,11.693,8.807
	c2.214,0.83,4.628,3.36,7.221,7.55c2.225,3.788,2.782,6.075,1.67,6.933c-1.492,1.258-5.196,2.503-11.127,3.773
	c-6.298,1.674-11.684,2.73-16.134,3.146c-0.367,0-5.007,0.415-13.908,1.258c-5.196,0.416-9.079,0-11.684-1.258
	c-2.592-1.271-4.271-3.561-5.007-6.919C464.596,282.009,464.596,279.277,465.331,276.762L465.331,276.762z"/>
<linearGradient id="SVGID_16_" gradientUnits="userSpaceOnUse" x1="16.6562" y1="395.6152" x2="17.447" y2="395.6152" gradientTransform="matrix(12.7683 -8.5117 -8.5117 -12.7683 3621.3848 5490.1445)">
	<stop  offset="0" style="stop-color:#F59300"/>
	<stop  offset="1" style="stop-color:#C25100"/>
</linearGradient>
<path fill="url(#SVGID_16_)" d="M473.119,283.684c4.072,0.828,7.979,3.772,11.683,8.807c3.706,4.604,4.274,7.749,1.67,9.436
	c-8.157,3.773-15.032,5.66-20.596,5.66c-9.269,0-15.565-3.56-18.915-10.705c-0.735-1.674,0.188-3.147,2.782-4.405
	c3.716-2.516,6.13-4.604,7.231-6.289c1.858-2.517,4.273-3.775,7.232-3.775C464.964,282.425,467.923,282.839,473.119,283.684
	L473.119,283.684z"/>
<linearGradient id="SVGID_17_" gradientUnits="userSpaceOnUse" x1="14.5747" y1="395.8125" x2="14.9733" y2="395.8125" gradientTransform="matrix(12.7683 -8.5117 -8.5117 -12.7683 3621.3848 5490.1445)">
	<stop  offset="0" style="stop-color:#F59300"/>
	<stop  offset="1" style="stop-color:#C25100"/>
</linearGradient>
<path fill="url(#SVGID_17_)" d="M443.077,306.959c5.564,2.93,6.676,5.647,3.338,8.164c-3.338,2.101-7.22,2.933-11.683,2.517
	c-2.971-0.416-4.828-1.46-5.564-3.145c-0.365-1.688-0.188-2.933,0.559-3.775c0.366-1.271,2.047-2.517,5.006-3.774
	C438.438,305.699,441.22,305.699,443.077,306.959L443.077,306.959z"/>
<linearGradient id="SVGID_18_" gradientUnits="userSpaceOnUse" x1="15.562" y1="397.3594" x2="16.0847" y2="397.3594" gradientTransform="matrix(12.5964 -8.7633 -8.7633 -12.5964 3729.8188 5416.2852)">
	<stop  offset="0" style="stop-color:#F59300"/>
	<stop  offset="1" style="stop-color:#C25100"/>
</linearGradient>
<path fill="url(#SVGID_18_)" d="M454.761,270.471c2.971,6.291-2.593,9.437-16.69,9.437c-5.931,0-6.486-3.146-1.657-9.437
	c2.592-2.515,5.753-3.976,9.457-4.404C450.311,265.642,453.28,267.112,454.761,270.471z"/>
<linearGradient id="SVGID_19_" gradientUnits="userSpaceOnUse" x1="22.584" y1="395.0605" x2="23.476" y2="395.0605" gradientTransform="matrix(12.7177 -8.5853 -8.5853 -12.7177 3653.1199 5468.3818)">
	<stop  offset="0" style="stop-color:#F59300"/>
	<stop  offset="1" style="stop-color:#C25100"/>
</linearGradient>
<path fill="url(#SVGID_19_)" d="M570.478,247.194c-7.055,12.155-17.246,17.188-30.599,15.086c-8.521-1.659-10.759-5.649-6.676-11.94
	c0.746-1.27,5.752-6.505,15.031-15.726c4.073-3.788,7.412-4.203,10.004-1.272C560.096,235.042,564.18,239.646,570.478,247.194z"/>
<linearGradient id="SVGID_20_" gradientUnits="userSpaceOnUse" x1="23.4097" y1="393.7832" x2="24.0664" y2="393.7832" gradientTransform="matrix(12.6317 -8.7112 -8.7112 -12.6317 3707.3352 5431.4517)">
	<stop  offset="0" style="stop-color:#F59300"/>
	<stop  offset="1" style="stop-color:#C25100"/>
</linearGradient>
<path fill="url(#SVGID_20_)" d="M586.611,249.082c-1.859,9.65-7.422,14.47-16.69,14.47c-5.94,0.414-9.091-1.057-9.469-4.416
	c0-1.674,1.124-5.233,3.339-10.693c1.124-2.932,3.715-4.19,7.788-3.776C573.081,245.094,578.088,246.566,586.611,249.082
	L586.611,249.082z"/>
<linearGradient id="SVGID_21_" gradientUnits="userSpaceOnUse" x1="25.4824" y1="391.4785" x2="26.2644" y2="391.4785" gradientTransform="matrix(12.6547 -8.6774 -8.6774 -12.6547 3692.8005 5441.3438)">
	<stop  offset="0" style="stop-color:#F59300"/>
	<stop  offset="1" style="stop-color:#C25100"/>
</linearGradient>
<path fill="url(#SVGID_21_)" d="M630.004,254.744c1.124,0.415,2.782,2.101,5.009,5.032c2.226,3.359,2.971,6.077,2.226,8.165
	c-1.125,3.359-11.317,4.203-30.599,2.518c-5.196-0.831-7.054-2.102-5.564-3.774l5.564-5.662c0.733-2.932,3.338-5.246,7.788-6.919
	C619.99,251.599,625.175,251.812,630.004,254.744L630.004,254.744z"/>
<linearGradient id="SVGID_22_" gradientUnits="userSpaceOnUse" x1="25.5435" y1="394.7461" x2="25.8753" y2="394.7461" gradientTransform="matrix(12.644 -8.6927 -8.6927 -12.644 3699.4021 5436.7271)">
	<stop  offset="0" style="stop-color:#F59300"/>
	<stop  offset="1" style="stop-color:#C25100"/>
</linearGradient>
<path fill="url(#SVGID_22_)" d="M594.956,228.951c-5.562-2.102-9.28-3.774-11.126-5.031l-6.688-7.549l1.671-2.517
	c2.225-1.258,5.005-1.258,8.344,0c5.563,2.517,9.824,6.292,12.784,11.323c5.563,4.605,6.865,6.921,3.906,6.921
	C603.122,232.098,600.141,231.041,594.956,228.951z"/>
<linearGradient id="SVGID_23_" gradientUnits="userSpaceOnUse" x1="25.2461" y1="393.7256" x2="26.0408" y2="393.7256" gradientTransform="matrix(12.6041 -8.7526 -8.7526 -12.6041 3725.1968 5419.582)">
	<stop  offset="0" style="stop-color:#F59300"/>
	<stop  offset="1" style="stop-color:#C25100"/>
</linearGradient>
<path fill="url(#SVGID_23_)" d="M600.52,242.791c-2.971,0-7.232-0.829-12.796-2.516c-5.563-1.258-8.712-2.302-9.458-3.145
	c-0.379-0.416,0.368-1.46,2.214-3.146c0.745-0.416,1.669-1.045,2.782-1.876c2.226-3.774,5.196-6.503,8.913-8.178
	c3.705-1.672,7.221-1.672,10.559,0c4.451,2.518,9.836,6.921,16.134,13.212C610.711,240.905,604.603,242.791,600.52,242.791
	L600.52,242.791z"/>
<linearGradient id="SVGID_24_" gradientUnits="userSpaceOnUse" x1="26.5723" y1="392.793" x2="27.1258" y2="392.793" gradientTransform="matrix(12.6885 -8.6283 -8.6283 -12.6885 3671.6411 5455.8525)">
	<stop  offset="0" style="stop-color:#F59300"/>
	<stop  offset="1" style="stop-color:#C25100"/>
</linearGradient>
<path fill="url(#SVGID_24_)" d="M626.667,233.985c6.676,5.46,8.9,9.223,6.676,11.323c-1.847,1.258-9.269,1.458-22.254,0.627
	c-4.071-0.414-5.563-1.672-4.439-3.772l3.896-4.404c1.123-1.686,2.97-3.145,5.562-4.417
	C620.18,231.682,623.696,231.897,626.667,233.985L626.667,233.985z"/>
<linearGradient id="SVGID_25_" gradientUnits="userSpaceOnUse" x1="27.2314" y1="395.2471" x2="27.4945" y2="395.2471" gradientTransform="matrix(12.7683 -8.5117 -8.5117 -12.7683 3621.4004 5490.1445)">
	<stop  offset="0" style="stop-color:#F59300"/>
	<stop  offset="1" style="stop-color:#C25100"/>
</linearGradient>
<path fill="url(#SVGID_25_)" d="M606.082,206.307c1.848,0.841,3.517,2.101,4.996,3.773c1.491,2.088,1.491,3.561,0,4.403
	c-2.214,1.272-6.487,0.417-12.784-2.517c-1.857-0.415-1.303-1.672,1.657-3.773C602.555,206.091,604.603,205.463,606.082,206.307z"/>
<linearGradient id="SVGID_26_" gradientUnits="userSpaceOnUse" x1="20.8662" y1="393.0234" x2="22.095" y2="393.0234" gradientTransform="matrix(12.624 -8.7219 -8.7219 -12.624 3711.9653 5428.1548)">
	<stop  offset="0" style="stop-color:#F59300"/>
	<stop  offset="1" style="stop-color:#C25100"/>
</linearGradient>
<path fill="url(#SVGID_26_)" d="M569.364,269.213c9.647,11.738,12.618,18.659,8.913,20.747c-2.593,1.686-8.156,3.561-16.69,5.661
	c-9.279,2.101-16.69,3.146-22.253,3.146c-4.45-0.415-9.091-2.101-13.908-5.033l-6.131-4.39l7.789-13.839
	c1.124-2.517,4.273-5.662,9.468-9.438c5.186-4.616,9.459-7.132,12.785-7.561c2.971-0.415,6.498,0.63,10.57,3.146
	C562.133,263.351,565.281,265.867,569.364,269.213z"/>
<linearGradient id="SVGID_27_" gradientUnits="userSpaceOnUse" x1="23.5776" y1="391.1592" x2="24.0001" y2="391.1592" gradientTransform="matrix(12.6639 -8.6651 -8.6651 -12.6639 3687.5015 5445.3013)">
	<stop  offset="0" style="stop-color:#F59300"/>
	<stop  offset="1" style="stop-color:#C25100"/>
</linearGradient>
<path fill="url(#SVGID_27_)" d="M599.406,281.795c6.299,1.674,8.901,3.774,7.789,6.291c-1.113,2.088-3.704,3.359-7.789,3.773
	c-5.562,1.259-9.635,0.416-12.239-2.516c-1.491-1.258-0.733-3.146,2.227-5.66C592.73,281.166,596.068,280.536,599.406,281.795
	L599.406,281.795z"/>
<path fill="#A65000" d="M502.049,199.386c3.338,4.618,5.007,7.549,5.007,8.807c0,0.831-0.556,2.315-1.669,4.417
	c-0.367,2.929-3.149,4.603-8.345,5.019c-5.186,0-8.345-2.729-9.458-8.166c-1.112-7.561-0.556-13.01,1.669-16.355
	C491.856,189.32,496.118,191.422,502.049,199.386z"/>
<path fill="#A65000" d="M535.984,203.16c8.535,4.618,10.938,9.65,7.232,15.098c-1.857,2.932-5.007,2.932-9.456,0
	c-4.451-2.931-6.866-6.292-7.233-10.065C525.793,199.801,528.941,198.127,535.984,203.16z"/>
<path fill="#A65000" d="M555.457,213.226c2.971,2.931,4.45,4.604,4.45,5.02c0.734,0.843,0.556,1.888-0.556,3.145
	c-2.227,2.518-5.196,1.889-8.902-1.874c-2.225-1.686-2.225-3.56,0-5.662C552.297,211.753,553.976,211.539,555.457,213.226
	L555.457,213.226z"/>
<path fill="#A65000" d="M466.999,160.383c2.593,2.516,4.073,5.247,4.44,8.178c0.367,3.775-1.113,6.291-4.44,7.549
	c-2.959,1.673-5.373,0.843-7.231-2.517c-1.491-4.617-2.781-8.177-3.895-10.694c-1.479-3.359-0.934-5.247,1.669-5.661
	C460.134,156.395,463.283,157.451,466.999,160.383z"/>
<path fill="#A65000" d="M491.479,169.189c5.941,5.863,7.609,10.481,5.008,13.84c-2.227,3.774-6.121,1.258-11.685-7.549
	c-2.591-2.931-2.78-5.448-0.556-7.548C486.472,166.258,488.875,166.673,491.479,169.189z"/>
<path fill="#A65000" d="M513.176,213.854c3.338,2.931,5.373,6.292,6.119,10.066c0.746,4.202-0.734,6.505-4.439,6.92
	c-3.716,0.428-6.119-1.044-7.232-4.404c-1.479-3.359-1.479-6.29,0-8.807C509.471,213.024,511.329,211.753,513.176,213.854z"/>
<path fill="#A65000" d="M416.93,125.784c2.972,2.516,4.439,5.246,4.439,8.178c0.368,3.359-1.29,5.662-5.006,6.92
	c-3.339,1.258-6.121-0.427-8.345-5.033c-1.859-3.775-2.782-7.964-2.782-12.582C405.248,117.819,409.143,118.65,416.93,125.784z"/>
<path fill="#A65000" d="M398.015,118.234c1.48,2.102,2.226,4.19,2.226,6.292c-0.367,1.672-1.112,2.931-2.226,3.774
	c-1.479,0.831-2.97,0-4.451-2.516c-1.857-2.101-2.781-4.19-2.781-6.291c0-2.102,0.924-3.145,2.781-3.145
	C395.045,115.933,396.535,116.562,398.015,118.234z"/>
<path fill="#A65000" d="M457.542,189.949c5.563,12.167,3.517,19.502-6.119,22.017c-2.971,0.844-4.64-1.044-5.008-5.66
	c0-1.259,0.189-5.876,0.557-13.841c0-3.774,1.492-5.862,4.451-6.291C454.016,185.333,456.062,186.59,457.542,189.949
	L457.542,189.949z"/>
<path fill="#A65000" d="M472.563,206.935c2.971,3.775,3.705,7.965,2.214,12.581c-0.367,1.674-1.847,2.088-4.44,1.259
	c-2.592-0.831-4.639-3.146-6.118-6.92c-1.125-3.774-0.189-6.291,2.78-7.547C469.604,205.463,471.45,205.677,472.563,206.935z"/>
<path fill="#A65000" d="M455.316,235.243c2.594,3.358,4.451,7.335,5.564,11.951c0.745,5.448-0.368,8.796-3.339,10.065
	c-3.337,1.26-5.752,1.045-7.221-0.629c-1.491-1.271-3.35-4.416-5.563-9.437c-2.226-5.031-1.669-9.021,1.657-11.951
	C449.753,231.897,452.713,231.897,455.316,235.243z"/>
<path fill="#A65000" d="M418.599,233.985c1.491-0.416,3.338,1.271,5.564,5.032c2.592,3.358,3.716,6.076,3.338,8.177
	c-0.734,3.775-4.44,5.021-11.127,3.775c-2.96-0.415-3.895-3.145-2.782-8.179C414.338,237.759,415.995,234.828,418.599,233.985z"/>
<path fill="#A65000" d="M508.725,237.759c2.225,2.517,3.527,5.032,3.895,7.55c0.367,3.358-0.557,5.661-2.782,6.92
	c-3.704,2.101-7.231-0.63-10.569-8.166c-1.113-2.933-0.557-5.461,1.669-7.562C503.54,234.828,506.133,235.243,508.725,237.759
	L508.725,237.759z"/>
<path fill="#A65000" d="M518.738,186.175c0.734,7.549-0.923,12.167-5.006,13.84c-2.594,0.844-4.262-0.214-4.997-3.146
	c-0.378-3.774-1.124-6.706-2.226-8.807C504.274,183.029,508.347,182.401,518.738,186.175L518.738,186.175z"/>
<path fill="#FFA621" d="M327.917,120.123c6.676-2.933,8.534,0.629,5.564,10.694c-0.735,3.359-2.593,5.875-5.564,7.549
	c-3.705,1.258-7.789,0.415-12.239-2.517C309.748,132.489,313.819,127.255,327.917,120.123z"/>
<path fill="#FFA621" d="M310.67,144.027c2.972,0,4.64,1.472,5.007,4.404c0.368,2.516-0.556,4.617-2.781,6.291
	c-3.338,2.931-6.12,1.887-8.345-3.146C302.326,146.543,304.362,144.027,310.67,144.027L310.67,144.027z"/>
<path fill="#FFA621" d="M375.762,120.123c1.858,5.459,0,9.649-5.563,12.58c-3.706,2.102-4.83-0.83-3.338-8.807
	c0.367-1.673,1.669-3.359,3.895-5.032C373.347,117.605,375.017,118.021,375.762,120.123L375.762,120.123z"/>
<path fill="#FFA621" d="M352.396,140.252l6.12-1.887c0.368,0,0.556,1.044,0.556,3.145c0,4.617-1.857,6.505-5.563,5.662
	c-1.858-0.428-2.782-1.472-2.782-3.146C350.359,142.354,350.916,141.095,352.396,140.252L352.396,140.252z"/>
<path fill="#FFA621" d="M266.165,162.27c4.451-1.258,7.232-0.629,8.345,1.887c0.733,2.102,0.189,5.033-1.669,8.807
	c-2.593,5.033-8.345,5.876-17.246,2.517c-3.338-1.258-2.971-3.573,1.112-6.92C260.045,165.629,263.193,163.528,266.165,162.27
	L266.165,162.27z"/>
<path fill="#FFA621" d="M288.418,159.125c5.196-2.517,7.421-1.674,6.675,2.516c-0.745,4.617-2.592,7.964-5.563,10.065
	c-4.45,2.931-7.978,2.516-10.57-1.258C276.735,167.088,279.884,163.313,288.418,159.125L288.418,159.125z"/>
<path fill="#FFA621" d="M227.221,196.241c2.971-0.416,4.64,1.257,5.007,5.031c0.746,3.36-0.734,6.707-4.45,10.066
	c-3.338,2.933-6.298,4.201-8.902,3.774c-1.48,0-4.083-1.459-7.789-4.402c-3.338-2.101-2.782-4.819,1.669-8.178
	C217.207,199.172,222.025,197.083,227.221,196.241z"/>
<path fill="#FFA621" d="M243.355,191.837c2.97-0.843,4.829,0,5.563,2.516c0.745,2.1-0.367,4.617-3.338,7.549
	c-2.593,2.102-4.64,3.146-6.12,3.146c-1.112-0.843-2.225-1.259-3.338-1.259c-1.858-0.427-1.858-2.314,0-5.661
	C237.98,194.768,240.384,192.679,243.355,191.837L243.355,191.837z"/>
<path fill="#FFA621" d="M307.89,192.465c4.818-0.415,7.421,1.258,7.788,5.033c0.379,2.932-1.302,6.92-5.007,11.953
	c-2.592,4.19-4.639,5.863-6.119,5.02c-1.858-2.516-3.705-4.19-5.563-5.02c-3.338-1.272-3.706-4.417-1.113-9.437
	C300.101,195.397,303.439,192.881,307.89,192.465z"/>
<path fill="#FFA621" d="M343.495,197.498c2.226-0.427,4.083,0.629,5.563,3.146c1.858,2.101,2.415,3.774,1.669,5.033
	c-1.113,2.932-4.829,3.573-11.126,1.887c-2.97-0.416-4.083-2.101-3.338-5.032C337.375,200.015,339.789,198.341,343.495,197.498z"/>
<path fill="#FFA621" d="M341.269,213.854c5.563,1.258,6.487,3.561,2.782,6.92c-1.858,1.686-4.64,1.27-8.345-1.259
	c-1.48-1.686-1.48-3.145,0-4.417C337.186,213.854,339.044,213.438,341.269,213.854z"/>
<path fill="#FFA621" d="M290.087,233.355c7.421-2.931,11.316-1.044,11.683,5.662c0,6.706-1.858,11.322-5.563,13.84
	c-3.705,2.517-7.6,0.428-11.683-6.291c-1.113-2.504-1.113-5.021,0-7.549C285.636,236.087,287.494,234.187,290.087,233.355z"/>
<path fill="#FFA621" d="M243.355,220.146c4.083-2.517,7.043-3.145,8.901-1.888c1.858,0.844,2.592,2.102,2.225,3.786
	c-0.734,4.606-3.895,7.55-9.458,8.796c-3.338,0.842-5.007-0.415-5.007-3.775S241.129,221.404,243.355,220.146z"/>
<path fill="#FFA621" d="M370.755,242.791c8.901-0.415,9.269,3.145,1.113,10.708c-1.48,1.258-2.782,1.674-3.895,1.258
	c-0.746-1.258-1.479-2.101-2.225-2.517c-1.112-0.831-1.302-2.517-0.556-5.019C366.305,244.264,368.162,242.791,370.755,242.791z"/>
<path fill="#FFA621" d="M330.143,263.552c3.705,0.414,5.752,2.931,6.119,7.549c0,4.617-2.036,7.976-6.119,10.065
	c-3.338,2.101-5.375,2.518-6.12,1.27c-0.734-2.516-1.858-4.616-3.338-6.289c-1.48-2.517-0.924-5.462,1.669-8.809
	C325.325,263.966,327.917,262.722,330.143,263.552L330.143,263.552z"/>
<path fill="#FFA621" d="M368.529,281.166c1.48,0.843,2.593,2.314,3.338,4.415c1.112,2.518,1.112,4.605,0,6.291
	c-1.113,2.088-2.226,2.73-3.338,1.874c-1.479-1.673-3.149-3.358-5.007-5.02c-2.592-2.516-2.971-4.616-1.113-6.291
	C364.268,280.322,366.305,279.907,368.529,281.166L368.529,281.166z"/>
<path fill="#FFA621" d="M479.239,261.035c5.562-0.83,8.155,1.259,7.789,6.29c0,4.606-1.303,8.606-3.906,11.952
	c-1.846,2.518-4.072,2.731-6.676,0.63c-2.225-1.687-4.072-3.774-5.562-6.292c-0.735-2.101-0.558-4.402,0.556-6.917
	C472.941,263.351,475.534,261.45,479.239,261.035z"/>
<path fill="#FFA621" d="M153.229,220.146c2.592-0.831,3.338,0.83,2.226,5.031c-1.113,3.774-3.149,5.449-6.12,5.021
	c-2.97-0.427-3.705-2.075-2.225-5.021C148.589,223.076,150.637,221.404,153.229,220.146z"/>
<path fill="#FFA621" d="M165.469,250.34c1.857,0,2.414,0.831,1.669,2.506c-0.746,1.27-2.226,1.886-4.451,1.886
	C158.982,254.744,159.905,253.285,165.469,250.34z"/>
<path fill="#FFA621" d="M239.46,262.922c1.48,0.416,2.403,1.259,2.782,2.504c0,1.272-1.301,1.889-3.894,1.889
	c-2.226,0-2.971-0.832-2.226-2.519C237.236,263.136,238.348,262.495,239.46,262.922z"/>
<path fill="#FFA621" d="M260.045,264.811c2.226,0.414,3.895,1.888,5.007,4.416c0.746,2.088,0.189,3.975-1.669,5.647
	c-1.48,1.272-2.971,1.272-4.451,0c-1.858-2.088-3.705-3.976-5.563-5.647C250.777,266.281,253.001,264.811,260.045,264.811
	L260.045,264.811z"/>
<path fill="#FFA621" d="M461.993,289.973c1.847,0,2.971,1.473,3.338,4.416c0.367,2.502,0.189,4.404-0.557,5.649
	c-1.858,2.932-6.119,1.888-12.795-3.147c-2.972-2.086-2.972-3.772,0-5.019C454.205,290.602,457.542,289.973,461.993,289.973z"/>
<path fill="#FFA621" d="M534.316,272.988c2.225-0.831,4.438,0.415,6.676,3.773c2.592,3.359,3.716,6.505,3.338,9.436
	c0,2.517-2.036,4.19-6.12,5.034c-3.704,0.414-7.042,0-10.002-1.271c-2.593-0.829-3.16-3.561-1.67-8.165
	C528.019,277.177,530.6,274.246,534.316,272.988z"/>
<path fill="#FFA621" d="M543.773,244.68c3.338,0,4.273,1.874,2.781,5.66c-0.733,2.506-2.413,3.978-5.006,4.404
	c-2.594,0-4.44-0.629-5.564-1.887c-0.734-1.259-0.188-2.932,1.67-5.02C539.512,245.724,541.549,244.68,543.773,244.68z"/>
<path fill="#FFA621" d="M566.583,248.453c1.491-0.415,2.781,0,3.905,1.259c1.113,1.271,1.658,2.729,1.658,4.416
	c0,3.773-2.782,5.233-8.345,4.404c-2.226-0.428-2.782-1.901-1.669-4.417C562.878,251.184,564.357,249.283,566.583,248.453
	L566.583,248.453z"/>
<path fill="#FFA621" d="M611.646,259.148c2.214-0.416,3.706,0.429,4.44,2.516c0.734,1.271,0.556,2.517-0.557,3.774
	c-0.735,0.843-2.415,1.271-5.008,1.271l-3.337-0.628v-3.146C607.93,260.821,609.42,259.577,611.646,259.148z"/>
<path fill="#FFA621" d="M615.54,237.131c1.491-0.416,2.415,0.215,2.782,1.887c0.366,1.258,0,2.518-1.112,3.773
	c-1.124,1.687-3.527,1.889-7.232,0.63c-1.492-0.415-1.291-1.459,0.556-3.146C612.024,238.602,613.683,237.558,615.54,237.131z"/>
<path fill="#FFA621" d="M589.949,228.322c1.847-1.27,3.338-0.213,4.439,3.146c0.744,3.774,0.567,6.29-0.557,7.549
	c-0.733,0.831-1.846,0.628-3.338-0.629l-3.338-3.774C584.941,233.355,585.866,231.268,589.949,228.322z"/>
<path fill="#FFA621" d="M587.167,217.629c1.848,3.775,1.848,5.46,0,5.031c-1.857-0.829-3.337-2.314-4.449-4.415
	c-0.735-1.258-0.189-1.874,1.668-1.874C585.866,216.371,586.8,216.785,587.167,217.629z"/>
<path fill="#FFA621" d="M312.34,294.377c2.971,0,4.64,0.214,5.007,0.628c0.367,0.416,0.734,1.674,1.113,3.775
	c1.112,2.101,1.301,3.358,0.556,3.774c-0.745,0.415-3.527,0-8.345-1.258c-4.45-1.271-5.752-2.73-3.894-4.416
	C308.256,295.219,310.114,294.377,312.34,294.377L312.34,294.377z"/>
<path fill="#FFA621" d="M300.657,305.699c2.225,0.416,2.403,1.271,0.556,2.517c-1.846,1.246-3.894,1.46-6.12,0.629
	c-2.225-0.415-2.414-1.259-0.556-2.517C296.396,305.485,298.432,305.284,300.657,305.699z"/>
</svg>
