<svg xmlns="http://www.w3.org/2000/svg" viewBox="0 0 768 430"><style>.a{fill:#D6D4D4;}.b{fill:#828181;}.c{fill:#333232;}.d{fill:#282727;}.e{fill:#212020;}.f{fill:#3D3D3D;}.g{fill:#353330;}.h{fill:#FFF;}.i{fill:#4C4B4B;}.j{fill:#E2DFDE;}.k{fill:#282626;}.l{fill:#ADAAA8;}.m{fill:#F27D66;}.n{fill:#F4A68B;}.o{fill:#302E2E;}.p{fill:#E2E0E0;}.q{fill:#3F3A36;}.r{fill:#17C4E0;}.s{fill:#39DAFF;}.t{fill:#1EADC4;}.u{fill:#281F1F;}.v{fill:#706E6E;}.w{fill:#BA3535;}</style><path d="M373.7 91.5c0 0 6.6 10.1 6.3 12 -0.3 1.9-3.1 6.6-3.1 6.6s4.6-0.2 5.6 0c3.3 1.2 4.9 24.3 3.5 25.9 -0.9 0.8-7.1 3.6-7.1 3.6s6.1 1.4 6.3 3c1.3 8.7-20.8 56.6-2.5 76.5 -44-18-26.6-56.6-27.1-68.6 -0.5-13.7-13.7-37.2-16.7-38.8 -3-1.6 18.9-30.9 18.9-30.9L373.7 91.5z" class="a"/><path d="M383.8 219.8l-1.1-0.5c-35.9-14.7-31.2-42.8-28.3-59.6 0.6-3.8 1.2-7 1.1-9.2 -0.5-13.7-13.5-37-16.5-38.6 -0.1-0.1-0.3-0.2-0.4-0.6 -0.8-3.9 18.3-29.6 19.2-30.7l0.2-0.2 16.1 10.9c0.7 1 6.6 10.3 6.3 12.2 -0.2 1.6-2.2 5-2.9 6.2 0.7 0 2.1-0.1 3.2-0.1 1 0 1.6 0 1.9 0.1 0.8 0.3 1.5 1.6 2.2 3.9 1.8 6.5 2.7 20.9 1.5 22.4 -0.8 0.7-4.8 2.6-6.5 3.4 1.8 0.5 5.5 1.6 5.7 3 0.4 2.5-1.1 8.1-3 15.3 -5 18.7-12.6 46.9 0.5 61.1L383.8 219.8zM357.9 81.2c-5.6 7.6-19.6 27.1-18.9 30.1 0 0.1 0.1 0.2 0.1 0.2 3 1.7 16.3 25.2 16.8 39 0.1 2.3-0.5 5.6-1.1 9.3 -2.8 16.5-7.5 43.9 26.9 58.6 -12.2-14.7-4.8-42.3 0.1-60.8 1.9-7.1 3.4-12.6 3-15 -0.1-1-3.8-2.2-6.1-2.8l-0.8-0.2 0.7-0.3c2.1-1 6.3-3 7-3.6 0.9-1.1 0.3-15-1.6-21.9 -0.8-2.8-1.5-3.4-1.8-3.5 -0.2 0-0.6-0.1-1.8-0.1 -1.6 0-3.7 0.1-3.7 0.1l-0.5 0 0.3-0.4c0 0 2.8-4.6 3.1-6.5 0.2-1.3-3.6-7.8-6.2-11.8L357.9 81.2z" class="b"/><path d="M383.3 112.7c0.2-0.2 0.7-0.1 0.6-0.7 -0.4-1.1-0.9-1.8-1.4-2 -1-0.2-5.6 0-5.6 0s2.9-4.6 3.1-6.6c0.1-0.9-1.3-3.8-2.9-6.5 -6.8 1.6-20.9 5.9-36.7 16.1 1.7 2.2 4.4 6.5 7 11.7C355.6 120.1 371.4 112 383.3 112.7z" class="c"/><path d="M347.3 125.2l-0.1-0.3c-2.5-4.9-5.1-9.4-6.9-11.7l-0.2-0.2 0.3-0.2c15.7-10.1 29.8-14.5 36.8-16.1l0.2 0 0.1 0.2c3.1 5.4 3 6.3 2.9 6.7 -0.2 1.6-2.2 5-2.9 6.2 0.7 0 2.1-0.1 3.2-0.1 1 0 1.6 0 1.9 0.1 0.6 0.2 1.1 0.9 1.6 2.2l0.1 0.1 0.1 0.2c0.1 0.3 0.2 0.5 0.3 0.8l-1.1-0.1 -0.1 0c-0.5 0-1 0-1.5 0 -11.6 0-26.4 7.6-34.3 12.1L347.3 125.2zM340.8 113.2c1.8 2.3 4.3 6.6 6.7 11.3 7.9-4.6 22.7-12 34.3-12 0.5 0 0.9 0 1.4 0 0.5 0 0.6 0 0.4-0.4 -0.5-1.2-0.9-1.6-1.2-1.7 -0.2 0-0.6-0.1-1.8-0.1 -1.6 0-3.7 0.1-3.7 0.1l-0.5 0 0.3-0.4c0 0 2.8-4.6 3.1-6.5 0.1-0.4-0.2-1.7-2.8-6.1C370 99 356.2 103.3 340.8 113.2z" class="d"/><path d="M378.9 139.6c0 0 6.1-2.8 7.1-3.6 0.5-0.6 0.6-3.7 0.4-7.7 -7.2 0.5-19.7 2.1-34.2 7.5 1.7 4.5 2.9 9 3.4 12.9 7.3-2.4 19.4-5.8 29.7-5.5 0-0.2 0-0.4 0-0.6C385 141 378.9 139.6 378.9 139.6z" class="c"/><path d="M355.3 149.1l0-0.3c-0.4-3.6-1.5-7.9-3.3-12.9l-0.1-0.3 0.3-0.1c14.2-5.3 26.5-7 34.3-7.5l0.3 0 0 0.3c0.1 2.1 0.3 7-0.5 7.9 -0.8 0.7-4.8 2.6-6.5 3.4 1.8 0.5 5.5 1.6 5.7 3 0 0.2 0 0.4 0.1 0.7l0 0.3 -0.3 0c-10-0.3-21.7 2.9-29.6 5.5L355.3 149.1zM352.5 135.9c1.7 4.7 2.8 8.9 3.2 12.4 7.8-2.6 19.3-5.6 29.2-5.4 0-0.1 0-0.2 0-0.3 -0.1-1-3.8-2.2-6.1-2.8l-0.8-0.2 0.7-0.3c2.1-1 6.3-3 7-3.6 0.3-0.3 0.5-2.8 0.3-7.2C378.4 129.1 366.4 130.8 352.5 135.9z" class="d"/><path d="M353.1 170.3c6.5-1.6 17.1-3.6 26.7-3.3 1.1-4.5 2.3-8.7 3.2-12.4 -6 0-16.2 0.6-28.1 3.3C354.3 161.4 353.5 165.6 353.1 170.3z" class="c"/><path d="M352.7 170.6l0-0.4c0.4-3.8 1-7.4 1.5-10.5 0.1-0.7 0.2-1.3 0.3-1.9l0-0.2 0.2 0c11.8-2.7 21.8-3.3 28.2-3.3l0.4 0 -0.1 0.3c-0.3 1-0.5 2.1-0.8 3.1 -0.7 2.8-1.6 6-2.4 9.2l-0.1 0.2 -0.2 0c-9.5-0.3-19.8 1.7-26.6 3.3L352.7 170.6zM355.1 158.1c-0.1 0.6-0.2 1.1-0.3 1.7 -0.5 3-1.1 6.4-1.5 10.1 6.8-1.6 16.9-3.5 26.2-3.3 0.8-3.2 1.6-6.3 2.4-9 0.3-1 0.5-1.9 0.7-2.8C376.3 154.9 366.6 155.5 355.1 158.1z" class="d"/><path d="M362.2 202.4c3.9-0.7 8.4-1.7 13.3-3 -0.2-2.8-0.2-5.8 0-8.8 -5.2 1.5-11.8 3.1-18.3 4C358.4 197.3 360.1 199.9 362.2 202.4z" class="c"/><path d="M362.1 202.7l-0.1-0.1c-2-2.4-3.7-5.1-5.1-7.8l-0.2-0.3 0.4-0.1c5.5-0.8 11.7-2.1 18.3-4l0.4-0.1 0 0.4c-0.2 3.1-0.2 6.1 0 8.8l0 0.2 -0.2 0.1c-4.4 1.2-8.9 2.2-13.3 3L362.1 202.7zM357.6 194.9c1.3 2.6 2.9 5 4.7 7.2 4.3-0.8 8.7-1.8 12.9-2.9 -0.2-2.5-0.2-5.3 0-8.2C368.8 192.8 362.9 194.1 357.6 194.9z" class="d"/><path d="M353.9 189c5-0.4 12.9-1.3 22.2-3.3 0.4-3 0.9-6.1 1.5-9.1 -6.6 1.6-16.1 3.5-24.9 3.8C352.9 183.2 353.2 186.1 353.9 189z" class="c"/><path d="M353.7 189.3l-0.1-0.2c-0.6-2.7-1-5.6-1.2-8.6l0-0.3 0.3 0c8.8-0.3 18.4-2.2 24.8-3.8l0.4-0.1 -0.1 0.4c-0.6 3.2-1.1 6.2-1.5 9l0 0.2 -0.2 0c-9.2 2-17.2 2.9-22.2 3.4L353.7 189.3zM353 180.6c0.2 2.8 0.5 5.5 1.1 8 5-0.4 12.8-1.3 21.7-3.3 0.3-2.6 0.8-5.5 1.4-8.5C370.8 178.5 361.6 180.3 353 180.6z" class="d"/><path d="M476 356.1c9.7-0.5 19.5 9.3 16.8 13 -1.9 2.6-9.5 4.7-14.4 4.7 -4.1 0-14.7-2.5-15.7-4.7C460.7 364.9 468.3 356.5 476 356.1z" class="e"/><path d="M471.3 366.4c3.4-2.7 5-6.4 5.2-10.3 -0.2 0-0.3 0-0.5 0 -7.2 0.4-14.3 7.7-13.6 12.1C465.5 368.2 468.4 368.1 471.3 366.4z" class="f"/><path d="M478.5 374.1h-0.1c-3.7 0-14.8-2.4-16-4.8 -0.7-1.5-0.4-3.4 0.9-5.5 2.2-3.7 7.3-7.7 12.7-7.9 0.3 0 0.5 0 0.7 0 6.8 0 13.8 4.8 16.1 9.4 0.9 1.7 0.9 3.1 0.2 4.2C491.1 372 483.6 374.1 478.5 374.1zM476.8 356.3c-0.2 0-0.5 0-0.7 0 -5.2 0.3-10 4.1-12.2 7.7 -1.2 1.9-1.5 3.7-0.9 5 0.9 1.9 11.1 4.5 15.4 4.5h0.1c4.9 0 12.2-2 14.1-4.5 0.8-1.1 0.3-2.5-0.2-3.6C490.2 361.1 483.2 356.3 476.8 356.3z" class="g"/><path d="M475 208.3c13.9-6 26.7 6 26.1 31.8 -0.6 25.8-13.2 41.3-14.1 51.5 -0.6 6.6 3.7 10-3.2 22.1 -3.3 5.8-4 22.9-3 26.2 1 3.3 3.6 5.2 1.7 10 -1.9 4.8 2.5 10.1 1.3 11.8 -1.1 1.7-16.6 2.5-17.4-0.5 -0.5-1.9 2.6-4.2 0.6-9 -1.7-4-1.4-7 1.1-11.1 4.8-7.6-0.5-18.4 2.6-25.8 1.8-4.3-6.6-8.4-3.8-18 1.9-6.5-16.8-31.2-11.9-49.3C460.2 229.9 464.2 213 475 208.3z" class="a"/><path d="M490.1 211c3 2.3 5.3 5 7.5 7.8 -4.7-10.5-13.4-14.5-22.5-10.5 -1.6 0.7-3 1.6-4.3 2.8C477.4 209.7 483.8 206.6 490.1 211z" class="h"/><path d="M476.5 356.9c1.6-1.4 3.4-6.6 1.6-11.6 -3.8-10.2-2.9-19.7-1.7-29.4 3.4-11.5-0.6-17.8-6.3-27.5 -2.1-3.3-2.9-22.2-11.4-14.4 4.1 10.6 9.4 19.8 8.3 23.4 -2.8 9.6 5.6 13.7 3.8 18 -3.1 7.4 2.2 18.2-2.6 25.8 -2.6 4.1-2.8 7.1-1.1 11.1 1.6 3.9-0.2 6.2-0.6 7.9C470.5 360.4 473.1 359.9 476.5 356.9z" class="h"/><path d="M474.7 363.6c-2.4 0-7.9-0.2-8.5-2.2 -0.2-0.8 0.1-1.6 0.5-2.5 0.6-1.6 1.4-3.5 0.1-6.4 -1.7-4.1-1.4-7.3 1.2-11.4 2.6-4.1 2.2-9.2 1.8-14.1 -0.3-4.2-0.6-8.2 0.8-11.7 0.7-1.6-0.3-3.3-1.5-5.4 -1.8-3-4-6.8-2.3-12.5 0.7-2.3-1.5-7.3-4.3-13.6 -4.5-10.3-10.7-24.3-7.6-35.7l0.8-3c4.7-17.4 8.8-32.4 19.1-36.8 2.4-1 4.7-1.5 7.1-1.5 4.1 0 8 1.7 11.1 4.9 5.7 5.8 8.6 16 8.4 28.8 -0.4 16.5-5.7 29-9.6 38.1 -2.3 5.4-4.2 9.8-4.5 13.4 -0.2 1.9 0.1 3.6 0.4 5.3 0.6 4.1 1.3 8.4-3.6 16.9 -3.2 5.6-3.9 22.7-3 26 0.3 0.9 0.7 1.7 1 2.5 1 2 2 4.1 0.6 7.7 -1.1 2.7-0.1 5.6 0.8 7.9 0.6 1.7 1.1 3.1 0.5 3.9C483.4 363 478.8 363.6 474.7 363.6zM482 207.1c-2.2 0-4.5 0.5-6.8 1.5 -10.1 4.4-14.1 19.2-18.8 36.5l-0.8 3c-3.1 11.2 3.1 25.2 7.6 35.4 2.8 6.4 5 11.4 4.3 14 -1.6 5.5 0.5 9.1 2.2 12.1 1.3 2.2 2.3 4 1.5 5.9 -1.4 3.3-1.1 7.2-0.8 11.4 0.4 5 0.8 10.2-1.9 14.5 -2.5 3.9-2.8 6.9-1.1 10.8 1.3 3.1 0.5 5.3-0.1 6.8 -0.3 0.9-0.6 1.6-0.4 2.2 0.3 1.1 3.4 1.8 7.9 1.8 4.6 0 8.5-0.7 9-1.4 0.4-0.6-0.1-1.9-0.6-3.4 -0.9-2.4-1.9-5.4-0.8-8.3 1.3-3.3 0.4-5.2-0.6-7.2 -0.4-0.8-0.8-1.6-1.1-2.6 -1-3.4-0.3-20.6 3-26.4 4.8-8.4 4.1-12.5 3.5-16.5 -0.3-1.7-0.5-3.5-0.4-5.5 0.3-3.7 2.2-8.1 4.5-13.6 3.9-9.1 9.2-21.5 9.5-37.9 0.3-12.6-2.6-22.7-8.2-28.4C489.6 208.7 485.9 207.1 482 207.1z" class="b"/><path d="M476.5 260.3c7.1-0.4 16.2 1.3 20.4 4.2 0.9-2.6 1.7-5.5 2.4-8.5C489.7 255.1 479.7 257.5 476.5 260.3z" class="c"/><path d="M497.1 265l-0.3-0.2c-3.6-2.5-11-4.3-18-4.3 -0.8 0-1.5 0-2.3 0.1l-0.8 0.1 0.6-0.5c2.9-2.6 10.9-4.5 18.5-4.5 1.5 0 3.1 0.1 4.5 0.2l0.3 0 -0.1 0.3c-0.6 2.8-1.4 5.6-2.4 8.5L497.1 265zM478.8 260c6.9 0 14.2 1.7 18 4.2 0.9-2.7 1.6-5.2 2.2-7.8 -1.4-0.1-2.8-0.2-4.2-0.2 -7.8 0-14.5 1.9-17.4 3.9C477.8 260 478.3 260 478.8 260z" class="d"/><path d="M483.2 245.5c5.6-2 12.8-2.9 17.9-2.2 0.1-1 0.1-2 0.1-3 0-0.3 0-0.7 0-1 0 0 0 0 0 0 0 0 0 0 0-0.1 0-0.7 0-1.5 0-2.2 0 0 0 0 0-0.1 0-0.4 0-0.8 0-1.2C492.8 237.8 485.3 242.2 483.2 245.5z" class="c"/><path d="M482.6 246l0.4-0.7c2-3.2 9.4-7.7 18.1-9.9l0.3-0.1 0 0.6c0 0.3 0 0.6 0 0.9l0 0.1c0 0.7 0 1.5 0 2.2l0 0.1h0l0 0.4c0 0.2 0 0.4 0 0.6 0 0.9-0.1 1.8-0.1 3.1l0 0.3 -0.3 0c-1.1-0.1-2.3-0.2-3.6-0.2 -4.6 0-9.9 0.9-14.1 2.4L482.6 246zM500.9 236c-7.8 2-14.5 5.9-17 8.9 4.1-1.4 9.1-2.2 13.5-2.2 1.2 0 2.4 0.1 3.4 0.2 0.1-1.1 0.1-1.9 0.1-2.7 0-0.2 0-0.4 0-0.6l0-0.4v0c0-0.7 0-1.5 0-2.2l0.3-0.1 -0.3 0C501 236.6 500.9 236.3 500.9 236z" class="d"/><path d="M483.2 229.5c5.2-1.9 11.9-2.8 16.9-2.3 -0.5-2.4-1.1-4.6-1.9-6.6C491.1 222.8 485 226.6 483.2 229.5z" class="c"/><path d="M482.6 230L483 229.3c2-3.1 8.4-6.9 15.2-9.1l0.2-0.1 0.1 0.2c0.8 2 1.4 4.3 1.9 6.7l0.1 0.4 -0.4 0c-0.8-0.1-1.7-0.1-2.7-0.1 -4.6 0-9.9 0.9-14.1 2.4L482.6 230zM498.1 220.9c-6.8 2.2-12 5.6-14.1 8.1 4.1-1.4 9.1-2.2 13.5-2.2 0.8 0 1.6 0 2.4 0.1C499.4 224.7 498.8 222.7 498.1 220.9z" class="d"/><path d="M472.4 278.4c6-0.4 13.2 0.8 18 2.9 0.4-0.9 0.8-1.9 1.2-2.9 0.6-1.4 1.2-2.8 1.8-4.3C484.4 273.4 475.4 275.7 472.4 278.4z" class="c"/><path d="M490.5 281.6l-0.3-0.1c-4.1-1.8-10-2.9-15.6-2.9 -0.8 0-1.5 0-2.3 0.1l-0.8 0.1 0.6-0.5c2.9-2.6 10.9-4.5 18.5-4.5 0.9 0 1.9 0 2.8 0.1l0.4 0 -0.1 0.4c-0.6 1.5-1.2 3-1.8 4.3l0 0.1c-0.4 1-0.8 1.9-1.2 2.8L490.5 281.6zM474.7 278c5.5 0 11.4 1.1 15.5 2.9 0.4-0.8 0.7-1.7 1.1-2.6l0-0.1c0.5-1.3 1.1-2.6 1.7-4 -0.8 0-1.6-0.1-2.3-0.1 -7.8 0-14.5 1.9-17.4 3.9C473.7 278 474.2 278 474.7 278z" class="d"/><path d="M487.4 296.8c-0.2-1.6-0.4-3.1-0.3-4.8 0.1-0.7 0.2-1.4 0.3-2.1 -7.7 0.7-14.6 3.3-17 5.7C475.9 294.9 482.5 295.3 487.4 296.8z" class="c"/><path d="M470.4 295.6c1.2-0.2 2.4-0.2 3.7-0.2 -0.2-0.6-0.6-1.1-0.8-1.7C472 294.3 471.1 294.9 470.4 295.6z" class="i"/><path d="M487.7 297.2l-0.4-0.1c-3.2-1-7.4-1.5-11.5-1.5 -1.9 0-3.7 0.1-5.4 0.3l-0.8 0.1 0.6-0.6c2.6-2.7 9.9-5.1 17.2-5.8l0.4 0 -0.1 0.4c-0.2 0.7-0.3 1.4-0.3 2 -0.1 1.7 0.1 3.2 0.3 4.8L487.7 297.2zM475.8 295c4 0 8 0.5 11.2 1.4 -0.2-1.4-0.4-2.8-0.2-4.5 0-0.5 0.1-1.1 0.2-1.7 -6.4 0.6-12.9 2.7-15.8 5C472.7 295.1 474.2 295 475.8 295z" class="d"/><path d="M469.8 310.6c0.3 0.6 0.8 1.4 1 2 4.5 0.4 8.6 1.5 12.2 3.1 0.2-0.7 0.5-1.2 0.8-1.7 1-1.8 1.8-3.5 2.4-5C479.8 308.4 473.9 309.1 469.8 310.6z" class="c"/><path d="M469.8 310.6c0.3 0.6 0.8 1.4 1 2 2.1 0.2 4.3 0.7 6.2 1.2 0.4-1.2 0.6-3.2 0.7-4.8C474.6 309.2 472 309.8 469.8 310.6z" class="i"/><path d="M483.2 316.1l-0.3-0.1c-3.7-1.7-7.7-2.7-12.1-3.1l-0.2 0 -0.1-0.2c-0.2-0.6-0.8-1.5-1-1.9l-0.2-0.3 0.3-0.1c4.2-1.5 10.3-2.1 16.5-1.6l0.4 0 -0.1 0.3c-0.6 1.6-1.4 3.2-2.4 5 -0.3 0.5-0.5 1-0.8 1.7L483.2 316.1zM471 312.3c4.3 0.4 8.3 1.4 11.9 3 0.2-0.6 0.5-1.1 0.7-1.5 0.9-1.6 1.7-3.1 2.3-4.6 -5.8-0.5-11.6 0.1-15.6 1.5C470.5 311.2 470.8 311.8 471 312.3z" class="d"/><path d="M469.8 323.6c0 0.5 0.1 1.1 0.1 1.7 3.9 0.3 7.6 1.1 10.9 2.3 0.2-1.8 0.4-3.6 0.7-5.4C476.9 322.2 473 322.7 469.8 323.6z" class="c"/><path d="M469.8 323.6c0 0.5 0.1 1.1 0.1 1.7 1.8 0.2 3.9 0.5 5.5 0.8 0.1-1.2 0.1-2.4 0.2-3.6C473.5 322.7 471.6 323.1 469.8 323.6z" class="i"/><path d="M481.2 327.9l-0.3-0.1c-3.5-1.2-7.1-1.9-10.9-2.3l-0.2 0 0-0.2c0-0.2 0-0.5-0.1-0.7 0-0.3-0.1-0.7-0.1-1l0-0.2 0.2-0.1c3.4-0.9 7.2-1.4 11.3-1.4l0.8 0 -0.1 0.3c-0.3 1.7-0.5 3.5-0.7 5.3L481.2 327.9zM470.2 325c3.7 0.3 7.1 1 10.5 2.2 0.2-1.6 0.4-3.2 0.6-4.7h-0.2c-4 0-7.6 0.5-10.9 1.3 0 0.2 0 0.5 0.1 0.8C470.2 324.7 470.2 324.9 470.2 325z" class="d"/><path d="M470.1 335.8c3.8 0.3 7.3 1 10.5 2.1 -0.1-1.4-0.1-3.2 0-5.3 -4.1 0-7.4 0.6-10.3 1.3C470.3 334.5 470.2 335.2 470.1 335.8z" class="c"/><path d="M470.3 333.9c0 0.6-0.1 1.3-0.2 1.9 2 0.2 4 0.5 5.8 0.9 -0.2-1.1-0.4-3-0.4-3.7C473.7 333.2 471.9 333.5 470.3 333.9z" class="i"/><path d="M481 338.2l-0.4-0.1c-3.1-1-6.5-1.7-10.5-2.1l-0.3 0 0.1-0.7c0.1-0.5 0.1-1 0.1-1.4l0-0.2 0.2 0c3.4-0.9 6.8-1.3 10.4-1.3h0.3l0 0.3c-0.1 2-0.1 3.8 0 5.2L481 338.2zM470.4 335.5c3.7 0.4 7 1 9.9 1.9 -0.1-1.3-0.1-2.9 0-4.6 -3.4 0-6.6 0.5-9.8 1.3 0 0.4-0.1 0.8-0.1 1.2L470.4 335.5z" class="d"/><path d="M459.4 201.4c8.7-6 21.2-7.7 24.7 10.7 3.4 18.4 9.8 31.9 18.6 33.7 8.8 1.7 18-2.3 18.7-14.9 0.8-6.3 5.2-4.2 5.2 2.1s-5.5 22-23.1 21c-17.6-1-25.2-21.6-27-28.9 -1.7-7.3-8.4-17.8-14.7-14.5S454.7 204.7 459.4 201.4z" class="a"/><path d="M483.5 209.5c0.4 0.5 1 4.5 2.6 11.6 -0.8-2.8-1.4-5.8-2-9 -3.4-18.4-16-16.7-24.7-10.7 -4.8 3.3-4 12.4 2.3 9.2 2-1 4.9 0.3 6.8 1.5C475.5 206.2 482.1 207.9 483.5 209.5z" class="h"/><path d="M486.1 221.1c-1.6-7.1-2.2-11-2.6-11.6 0 0 0 0 0 0 0.2 0.8 0.4 1.7 0.6 2.6C484.7 215.2 485.4 218.2 486.1 221.1z" class="j"/><path d="M505 254.3c-0.5 0-1 0-1.5 0 -20.4-1.1-27-28-27.2-29.1 -1.4-6.1-6.5-14.9-12-14.9 -0.8 0-1.6 0.2-2.3 0.6 -0.9 0.5-1.8 0.7-2.6 0.7 -1.4 0-2.5-0.9-3-2.4 -0.7-2.4 0.2-6.1 3-8 3.9-2.7 8-4.2 11.6-4.2 4.9 0 11.1 2.6 13.5 15.1 3.7 20 10.3 31.9 18.3 33.4 1.3 0.2 2.5 0.4 3.8 0.4 8.6 0 14.1-5.6 14.6-15 0.3-2.6 1.3-4.1 2.6-4.1 1.6 0 3.2 2.3 3.2 6.2C526.9 239.6 521.3 254.3 505 254.3zM464.2 209.6c5.8 0 11.1 9.1 12.6 15.4 0.3 1.1 6.8 27.6 26.7 28.7 0.5 0 1 0 1.5 0 16 0 21.3-14.3 21.3-20.8 0-3.4-1.3-5.6-2.6-5.6 -0.8 0-1.7 0.9-2 3.6 -0.7 11.5-8.3 15.5-15.2 15.5 -1.3 0-2.6-0.1-3.9-0.4 -8.3-1.6-15-13.7-18.8-33.9 -2.3-12.1-8.3-14.6-12.9-14.6 -3.5 0-7.5 1.4-11.3 4.1 -2.6 1.8-3.4 5.2-2.7 7.4 0.2 0.7 0.9 2 2.5 2 0.7 0 1.4-0.2 2.3-0.7C462.4 209.9 463.3 209.6 464.2 209.6z" class="b"/><path d="M527.4 237.3c2.2-1.6 16.4-16.9 12.4-31.6 -3.9-14.3-22-34.3 4-50.8 -6.5-4.2-24.8 0.4-26.4 19.4 -1-1.4-2-5.9-1.4-8.2 -4 5-7 19.7-3 25.5 4 5.9 2.2 11.8 0 11.5 -2.2-0.3-5.2-4.9-5.3-9.6 -5.9 25.6 13.8 32.1 12.1 40.8 -0.9 2.7 1.3 0.7 3.7 1.4C525.8 236.4 526.2 238.2 527.4 237.3z" class="k"/><path d="M524.7 213.6c0-0.3 0-0.7 0-1C524.7 213 524.7 213.3 524.7 213.6z" fill="#745956"/><path d="M524.7 213.6c0-0.3 0-0.6 0-1C524.7 213 524.7 213.3 524.7 213.6c0.3 2.9 1.7 5.1 1.7 8.2 4-5.7 1.7-12.6 0.6-18.9 2.3 2.3 5.2 5.2 5.2 8.6 2.9-12-6.9-20.7-6.9-32.1 0.6 2.3 2.3 3.4 2.9 5.2 -4.4-13.2 5.5-23.3 15.4-29.7 -6.6-4-24.6 0.7-26.2 19.5 -1-1.4-2-5.9-1.4-8.2 -4 5-7 19.7-3 25.5 4 5.9 2.2 11.8 0 11.5 -2.2-0.3-5.2-4.9-5.3-9.6 -4.5 19.6 6 28 10.4 34.8C523.1 225.6 524.9 219.7 524.7 213.6z" fill="#3D3C3C"/><path d="M508.6 200.6c0.6 3.4 4 5.7 5.7 3.4 5.2-4.6 0-11.5-1.1-17.8 -0.6-4.6 0.6-9.2 2.3-13.2 0.6 1.7 1.7 3.4 2.3 5.2 2.9-16.6 10.3-21.8 22.4-24.5 -8-1.2-21.4 4.5-22.8 20.6 -1-1.4-2-5.9-1.4-8.2 -4 5-7 19.7-3 25.5 4 5.9 2.2 11.8 0 11.5 -2.2-0.3-5.2-4.9-5.3-9.6 -1.8 8-1.2 14.1 0.5 19C507.5 208.4 506.5 204.4 508.6 200.6z" fill="#636262"/><path d="M526.8 237.8L526.8 237.8c-0.4 0-0.8-0.3-1.3-0.6 -0.5-0.4-1.1-0.9-2.1-1.2 -0.8-0.2-1.7-0.1-2.4 0 -0.3 0.1-0.6 0.1-0.8 0.1 -0.1 0-0.5 0-0.7-0.3 -0.2-0.3-0.2-0.8 0.1-1.6 0.6-3-1.6-5.8-4.4-9.4 -4.9-6.3-11.6-15-7.8-31.3l0.5-2.2 0.1 2.2c0.1 4.8 3.2 9.1 5.1 9.3 0.5 0.1 1-0.3 1.4-1.1 0.9-1.7 1.2-5.8-1.7-10 -4.1-6-1.1-20.7 3-25.9l0.8-1 -0.3 1.3c-0.5 1.9 0.2 5.3 1 7.1 1.7-14.7 13.3-20.1 20.8-20.1 2.4 0 4.4 0.5 5.9 1.5l0.4 0.2 -0.4 0.2c-20.2 12.7-13.6 27.5-7.8 40.4 1.6 3.6 3.1 6.9 3.9 10 4 14.9-10.4 30.3-12.5 31.9C527.3 237.7 527.1 237.8 526.8 237.8zM522.3 235.3c0.4 0 0.8 0 1.2 0.2 1.1 0.3 1.8 0.9 2.4 1.3 0.4 0.3 0.7 0.5 0.9 0.5l0 0c0.1 0 0.3-0.1 0.4-0.2 2.1-1.5 16.2-16.7 12.3-31.2 -0.8-3.1-2.3-6.4-3.9-9.9 -5.6-12.5-12.5-27.9 7.6-40.9 -1.3-0.7-3.2-1.1-5.2-1.1 -7.5 0-19.1 5.5-20.4 20.5l-0.1 0.8 -0.5-0.6c-0.9-1.3-1.8-4.8-1.6-7.2 -3.6 5.6-6 18.8-2.3 24.3 2.8 4.1 2.9 8.4 1.7 10.6 -0.5 1-1.2 1.5-2 1.4 -2-0.3-4.6-3.9-5.4-8 -2.8 15 3.4 23.1 8.1 29.1 2.9 3.7 5.1 6.6 4.5 9.9 -0.3 0.8-0.2 1-0.1 1.1 0.1 0.1 0.5 0.1 1 0C521.3 235.4 521.8 235.3 522.3 235.3z"/><path d="M530.8 222.4c1.6-10.8-1-19.9-3.3-27.9 -1.2-4.2-2.3-8.1-2.8-11.9 -0.7-5.7-0.4-19.8 17.7-28.4l0.2 0.5c-17.7 8.5-18 22.3-17.3 27.8 0.5 3.8 1.6 7.7 2.8 11.9C531.3 205.6 533 212.4 530.8 222.4z"/><path d="M399.3 356.1c0 0-6 8.6-5.4 11.2 0.7 3.6 11 6.2 14.9 5.6 3.9-0.6 10.8-5.1 11.8-7.9 1-2.9-8.5-10.6-9.5-11C410.1 353.5 400.7 355.5 399.3 356.1z" class="e"/><path d="M401.9 363.5c1.9-1.9 3-5.3 2.4-8.7 -2.3 0.5-4.3 1-5 1.2 0 0-5 7.3-5.4 10.5C397 367 400 365.9 401.9 363.5z" class="f"/><path d="M407.5 373.2L407.5 373.2c-4.5 0-13.3-2.4-13.9-5.9 -0.5-2.7 5.2-11.1 5.5-11.4l0.1-0.1 0.1 0c1.4-0.6 9.1-2.2 11.4-2.2 0.3 0 0.5 0 0.6 0.1 0.9 0.4 10.8 8.2 9.7 11.4 -1.1 3.1-8.2 7.6-12 8.1C408.4 373.2 408 373.2 407.5 373.2zM399.5 356.3c-1.7 2.4-5.7 8.9-5.4 10.9 0.6 3 8.6 5.4 13.4 5.4l0 0c0.5 0 0.9 0 1.2-0.1 3.9-0.6 10.7-5.1 11.6-7.7 0.9-2.7-8.4-10.2-9.4-10.6 0 0-0.1 0-0.4 0C408.3 354.1 400.9 355.8 399.5 356.3z" class="g"/><path d="M387.5 281.1c-9.7 4.6 4.9 22.3 4.2 27.9 -0.6 4.7 0.7 7.6 3.3 10.5 3.2 3.5 5 28 2.8 31.5 -2.1 3.4-1.6 7.9 2.2 9.2 3.1 1.1 11.7 0.1 13.2-1.3 1.3-1.1-0.5-3.2 0.5-5.4 2.9-6-5-5.1-5-11.1 0-4-2.4-15.1-0.6-21.4 3.1-10.5 2.3-29.6-1.5-35.1C402.8 280.3 393.1 278.5 387.5 281.1z" class="a"/><path d="M406.5 353.2c1.1-1.1 0-5.3-0.6-7 -2.1-5.7-6.1-20-3.1-27.4 1.5-3.7 2.4-17.7 2-24.9 -0.5-5.6-4.8-7.7-6.1-13.2 -3.9-1.1-8.1-1-11.1 0.4 -9.7 4.6 4.9 22.3 4.2 27.9 -0.6 4.7 0.7 7.6 3.3 10.5 3.2 3.5 5 28 2.8 31.5 -0.8 1.2-1.2 2.6-1.2 3.9C399.7 355.9 403.5 354.7 406.5 353.2z" class="h"/><path d="M387.7 281c-0.1 0-0.1 0-0.2 0.1 -9.7 4.6 4.9 22.3 4.2 27.9 -0.6 4.7 0.7 7.6 3.3 10.5 0.1 0.1 0.2 0.3 0.3 0.4 -2.2-3.9-3.5-6-2.4-11.4 1.2-6.3-6.3-13.2-4.8-19.1C387.3 286.5 387.7 283.9 387.7 281z" class="j"/><path d="M403.8 361L403.8 361c-1.2 0-2.8-0.1-4-0.5 -1.6-0.6-2.7-1.7-3.3-3.2 -0.7-1.9-0.3-4.3 1-6.4 2-3.3 0.5-27.5-2.8-31.2 -2.9-3.2-3.8-6.3-3.3-10.7 0.2-1.9-1.4-5.3-3.1-9 -3.3-7.1-7.5-16-0.9-19.2 1.7-0.8 3.7-1.2 6-1.2 4.6 0 10.6 1.9 13.5 6.1 3.8 5.6 4.7 24.7 1.6 35.4 -1.3 4.4-0.5 11.2 0.1 16.1 0.3 2.1 0.5 4 0.5 5.2 0 2.6 1.6 3.9 3.1 5.1 1.8 1.4 3.5 2.8 1.9 6.2 -0.5 1-0.3 1.9-0.1 2.8 0.2 1 0.3 1.9-0.4 2.6C412.2 360.2 407.4 361 403.8 361zM393.4 280.2c-2.2 0-4.2 0.4-5.8 1.2 -6.1 2.9-2.2 11.1 1.2 18.4 1.8 3.9 3.4 7.3 3.2 9.3 -0.5 4.2 0.4 7.2 3.2 10.3 1.8 2 2.9 9.5 3.5 15.9 0.5 6.5 0.6 14-0.6 15.9 -1.2 1.9-1.5 4.1-0.9 5.9 0.5 1.4 1.5 2.4 2.9 2.9 0.8 0.3 2.1 0.4 3.8 0.4 3.8 0 8.2-0.8 9.2-1.7 0.5-0.5 0.4-1.1 0.3-2.1 -0.2-1-0.3-2 0.2-3.2 1.5-3 0.1-4.1-1.7-5.5 -1.5-1.2-3.3-2.6-3.3-5.5 0-1.2-0.2-3-0.5-5.1 -0.6-5-1.4-11.8-0.1-16.4 3.1-10.5 2.3-29.4-1.5-34.9C403.6 282 397.9 280.2 393.4 280.2z" class="b"/><path d="M398.4 334.9c0.2 2 0.3 3.8 0.3 5.7 3.7-0.2 6.8-1 9.7-2 0-0.3-0.1-0.7-0.1-1 -0.1-0.4-0.1-0.9-0.2-1.3C404.1 336.3 400.6 336 398.4 334.9z" class="i"/><path d="M398.4 340.9l0-0.3c-0.1-2-0.2-3.8-0.3-5.7l0-0.5 0.4 0.2c1.9 0.9 4.7 1.4 8.8 1.4 0.3 0 0.6 0 0.8 0l0.2 0 0.3 2.8 -0.2 0.1c-3.5 1.2-6.5 1.8-9.8 2L398.4 340.9zM398.7 335.3c0.1 1.7 0.2 3.2 0.3 5 3-0.2 5.9-0.8 9.2-1.9l-0.2-1.9c-0.2 0-0.4 0-0.6 0C403.4 336.5 400.6 336.1 398.7 335.3z" class="d"/><path d="M396.9 324.5c0.4 1.6 0.7 3.5 1 5.6 3.8-0.5 6.9-1.7 9.7-3 0-0.7 0-1.5 0.1-2.2C403.3 325.4 399.5 325.4 396.9 324.5z" class="i"/><path d="M397.6 330.4l0-0.3c-0.3-2.4-0.6-4.2-1-5.6l-0.1-0.5 0.5 0.2c1.4 0.5 3.4 0.8 5.7 0.8 1.5 0 3.1-0.1 4.9-0.3l0.3 0 0 0.3c0 0.7-0.1 1.4-0.1 2.1v0.2l-0.2 0.1c-2.8 1.2-5.9 2.5-9.7 3L397.6 330.4zM397.2 324.9c0.3 1.3 0.6 2.9 0.8 4.9 3.6-0.5 6.5-1.7 9.2-2.8 0-0.6 0-1.1 0.1-1.7C402.8 325.7 399.6 325.6 397.2 324.9z" class="d"/><path d="M392 314.3c0.1 0.6 0.4 1.4 0.6 1.9 4.1 1.4 9.8 2.2 16.4 1.7 0.5-2.4 0.8-5.1 0.9-7.9C406.8 312.6 399.2 314.3 392 314.3z" class="i"/><path d="M405.1 318.4c-4.6 0-9-0.6-12.6-1.9l-0.1 0 0-0.1c-0.1-0.3-0.5-1.2-0.6-2l-0.1-0.3h0.3c7.5 0 14.8-1.7 17.7-4.2l0.5-0.4 0 0.6c-0.2 2.9-0.5 5.5-0.9 7.9l0 0.2 -0.2 0C407.7 318.3 406.4 318.4 405.1 318.4zM392.8 316c4.4 1.5 10.1 2.1 15.9 1.7 0.4-2.2 0.7-4.5 0.8-7 -3.2 2.3-10.1 3.9-17.2 3.9C392.5 315 392.6 315.5 392.8 316z" class="d"/><path d="M391.2 306.1c4.1 1.2 11.5 1.7 18.8 0.3 0-2.3 0-4.6-0.2-6.8 -3.9 2.6-12.2 4.6-19 5.2C391 305.2 391.1 305.7 391.2 306.1z" class="i"/><path d="M401 307.5L401 307.5c-3.7 0-7.3-0.4-9.8-1.1l-0.1 0 0-0.1c-0.1-0.2-0.1-0.4-0.2-0.5 -0.1-0.3-0.2-0.5-0.2-0.8l-0.1-0.3 0.4 0c6.3-0.6 14.9-2.5 18.9-5.2l0.4-0.3 0 0.5c0.2 2.2 0.2 4.5 0.2 6.9l0 0.2 -0.2 0C407.2 307.2 404.1 307.5 401 307.5zM391.4 305.9c2.5 0.7 6 1.1 9.5 1.1h0c3 0 6-0.3 8.8-0.8 0-2.1 0-4.1-0.2-6.1 -4.2 2.6-12.3 4.4-18.4 5 0 0.2 0.1 0.3 0.1 0.5C391.4 305.6 391.4 305.8 391.4 305.9z" class="d"/><path d="M438.4 358.4c-9-1.5-28.5 14-17.7 18.4 6.7 2.7 25.6 0.2 28.8-3.8C451.4 370.5 448.4 360.1 438.4 358.4z" class="e"/><path d="M439.7 366.4c1.7-2.6 0.5-5.5-1.4-8 -7.9-1.2-23.6 10.3-20.4 16.2C425.9 375.9 434.6 372.5 439.7 366.4z" class="f"/><path d="M419.6 371.4c1.3-3.3 6.4-7.3 10.4-8.3 -2.5 1.2-6.6 4.2-8.7 8.5C420.8 372.8 419.3 372.1 419.6 371.4z" class="l"/><path d="M428.8 378.1c0 0 0 0 0 0 -3.6 0-6.4-0.4-8.3-1.1 -3.2-1.3-3.6-3.5-3.3-5.1 1.1-5.9 12.6-13.9 19.8-13.9 0.5 0 0.9 0 1.4 0.1 7.6 1.3 10.4 7.2 11.1 9 1 2.5 1 4.9 0.1 6C447.3 376.1 436.8 378.1 428.8 378.1zM437.1 358.6c-6.8 0-18.1 7.9-19.2 13.5 -0.4 2 0.6 3.5 2.9 4.4 1.8 0.7 4.6 1.1 8.1 1.1h0c7.8 0 18.1-2 20.4-4.8 0.8-0.9 0.7-3.2-0.2-5.4 -0.7-1.7-3.4-7.4-10.7-8.7C438 358.6 437.5 358.6 437.1 358.6z" class="g"/><path d="M362.9 157c10.1 6.3-2.5 37.8 10 53.4 8.3 10.3 26.9 6.9 33.3 0.1 9-9.5 41.9-34.1 62.2-7.6 20.4 26.5 2 66.8-3.8 75.4 -11.1 16.4 5.9 24.5-2.2 36 -8.7 12.3-1.5 38.9-8 41.9 -5.5 2.5-7.8 4.7-6.6 7.2 1.1 2.6 1.1 5.7-3.4 5.1 -4.6-0.6-12.9-4.8-12.9-7.7 0-2.9 1.3-7.6 4.6-9.8 2.8-1.9-0.6-6.4 6.4-7.7 4.5-0.9-1-18.6 1.2-26.1 2.1-7-11.4-16.3-17.7-23.2 -16 6.8-48.1-2.9-61.4-8.8 -12.9-5.7-36.4-22.5-31.3-59.4 5.9-42.5-4.9-46.8-7.5-51.7C323.3 169 358.3 154.1 362.9 157z" class="a"/><path d="M441.9 238.1c2-11.8 8.1-28 30.2-28.6 -0.9-4.1-7.8-12.2-11.7-14.2 -20.1-13.1-46.3 6.8-54.2 15.1 -5.8 6.1-19.8 8.7-27.2 4.5 -6.9-1.9-16.7-11.1-19.5-16.4 -1.7-2.9-7.8-0.4-11.3-0.4 -4.3 0-9.4-0.9-13.3-3.3 0.8 9.1-0.2 19-1.2 28.4 -0.8 5.9-1.1 14.8-0.6 19.7 1.6 9.7 6.8 15.2 13.5 19.5 8.6 7 20.7 14.1 23 11.2 -4.6-12.7-4.3-21.8-2.3-30.5 -0.8 10.3 3.2 21.7 6.8 30.6 3.9 1.6 17.8-0.3 24.9-2.7 17.2-6.3-1.6-14.1 13.6-45.5 -4.4 15.1-3.5 33.2 0.3 44.6 3.2 9.7 9.8 19.2 15.2 25.6 6.8 6.6 17.6 14.9 15.7 21.2 -2.2 7.5 3.3 25.2-1.2 26.1 -7 1.3-3.6 5.8-6.4 7.7 -2.4 1.6-3.8 4.7-4.3 7.3 2.4 0.9 5.2 0.9 8.1 0.2 3.7-0.9 5.8-8 8.1-8 8-0.9 4.5-13.8 5.5-20.1 0.8-7-0.9-12.5 3.2-16.5 5.2-4.6-0.7-12.7-3-17.3C447.2 284.4 438.7 252.5 441.9 238.1z" class="h"/><path d="M428.1 296.4c-2.7-2.5-11.6-14.3-15.8-25.9 -2-5.4-2.9-11.8-3.1-18.1 -0.4-10.5 1.4-20.1 3.4-26.7 -2.7 10.2-4.9 30.5 0.3 44.6 4.3 11.6 13.4 23.5 15.7 25.7L428.1 296.4z" class="b"/><path d="M445.4 368.8c-0.3 0-0.7 0-1.1-0.1 -4.7-0.6-13.2-4.8-13.2-8 0-2.7 1.3-7.7 4.7-10 1-0.7 1.1-1.6 1.3-2.8 0.3-1.9 0.7-4.1 5.2-5 2.2-0.4 1.7-6.1 1.1-12.1 -0.5-5.1-1-10.4-0.1-13.8 1.5-5-5.5-11.4-11.6-17.1 -2.2-2-4.2-3.9-5.8-5.7 -3.6 1.5-8.3 2.3-13.9 2.3 -16.4 0-37.4-6.7-47.5-11.2 -5.2-2.3-15.1-7.8-22.5-18.1 -8.2-11.4-11.2-25.4-8.9-41.6 5-35.8-2-44.5-5.7-49.1 -0.7-0.9-1.3-1.6-1.7-2.4 -0.3-0.5-0.2-1.2 0.2-1.9 3.4-5.6 27.5-15.8 35.2-15.8 0.9 0 1.5 0.1 2 0.4 4.9 3 4.6 11.6 4.3 21.6 -0.4 11.1-0.8 23.7 5.8 31.9 3.3 4.1 8.8 6.4 15.3 6.4 6.8 0 14-2.6 17.6-6.3 5.1-5.4 22.3-19.6 39.5-19.6 9.2 0 17 4.1 23.2 12 10.9 14.2 10.4 32.1 8 44.6 -2.7 14-8.5 26.2-11.8 31.1 -5.9 8.8-3.7 15.2-1.7 20.9 1.7 5 3.3 9.7-0.5 15 -4.6 6.5-4.7 17.4-4.8 26.1 -0.1 8.1-0.1 14.4-3.3 15.9 -5.6 2.5-7.5 4.6-6.5 6.8 0.8 1.8 0.9 3.4 0.2 4.4C447.7 368.3 446.8 368.8 445.4 368.8zM426.1 293.5l0.1 0.1c1.6 1.8 3.7 3.7 6 5.8 6.3 5.8 13.4 12.4 11.8 17.7 -1 3.3-0.4 8.5 0.1 13.6 0.7 6.5 1.2 12.2-1.5 12.7 -4.1 0.8-4.4 2.7-4.7 4.5 -0.2 1.2-0.4 2.4-1.6 3.2 -3.3 2.2-4.5 6.9-4.5 9.5 0 2.6 7.9 6.8 12.7 7.4 1.7 0.2 2.9-0.1 3.4-0.9 0.5-0.8 0.4-2.2-0.3-3.8 -1.2-2.6 0.8-4.9 6.8-7.6 2.8-1.3 2.9-7.8 3-15.4 0.1-8.8 0.2-19.8 4.9-26.4 3.7-5.1 2.2-9.5 0.4-14.5 -2-5.8-4.3-12.4 1.8-21.4 3.2-4.8 9-17 11.7-30.8 2.4-12.4 3-30.1-7.8-44.2 -6-7.8-13.7-11.8-22.7-11.8 -17 0-34 14-39.1 19.4 -3.7 3.9-10.9 6.5-18 6.5 -6.7 0-12.3-2.4-15.7-6.6 -6.7-8.3-6.3-21-6-32.2 0.3-9.8 0.6-18.2-4-21.1 -0.3-0.2-0.9-0.3-1.7-0.3 -7.4 0-31.5 10.2-34.7 15.5 -0.3 0.5-0.4 1-0.2 1.4 0.4 0.7 1 1.5 1.7 2.3 3.8 4.7 10.9 13.5 5.8 49.6 -5.5 39.6 22.4 55.3 31.1 59.1 10.1 4.5 31 11.1 47.3 11.1 5.6 0 10.3-0.8 13.9-2.3L426.1 293.5z" class="b"/><path d="M414.4 274.3c16.4-3 33.1 0.1 39.9 6.7 -13.8-2.1-30.9-1.6-34.6 3.7C417.1 280.9 414.4 274.3 414.4 274.3z" class="c"/><path d="M414.4 274.3c0 0 2.7 6.6 5.3 10.4 3.1-4.5 15.5-5.4 27.7-4.4 -0.5-1.3-0.8-2.5-1.2-4C437.9 273.3 426 272.2 414.4 274.3z" class="i"/><path d="M419.7 285.2l-0.2-0.3c-2.6-3.7-5.3-10.4-5.4-10.4l-0.1-0.3 0.3-0.1c4.2-0.8 8.4-1.1 12.7-1.1 11.9 0 22.4 3 27.5 7.9l0.6 0.6 -0.8-0.1c-5-0.7-10.2-1.1-15-1.1 -10.2 0-17.2 1.7-19.3 4.7L419.7 285.2zM414.8 274.5c0.6 1.3 2.8 6.5 5 9.7 3.3-4 13.6-4.6 19.5-4.6 4.6 0 9.5 0.3 14.2 1 -5.2-4.4-15.2-7.1-26.4-7.1C422.9 273.4 418.8 273.8 414.8 274.5z" class="d"/><path d="M409.7 242.7c20.7 1.6 40.7 11.4 47.5 24.2 -16.7-7.5-40.9-9.5-46.9-5.4C408.8 253.6 409.7 242.7 409.7 242.7z" class="c"/><path d="M409.7 242.7c0 0-0.9 10.9 0.6 18.7 4.5-3.1 18.6-2.9 32.8 0.7 -1-3.2-1.1-6.5-1.5-9.9C432.5 247 421.3 243.6 409.7 242.7z" class="i"/><path d="M457.8 267.4l-0.7-0.3c-11.5-5.2-26-7.5-35.4-7.5 -5.4 0-9.4 0.7-11.3 2l-0.3 0.2 -0.1-0.4c-1.5-7.7-0.6-18.7-0.6-18.8l0-0.3 0.3 0c21.3 1.7 40.9 11.7 47.7 24.3L457.8 267.4zM421.7 259.1c9.2 0 23.4 2.2 34.8 7.2 -7-12.1-26-21.6-46.6-23.3 -0.1 1.7-0.7 11 0.5 18C412.6 259.7 416.5 259.1 421.7 259.1z" class="d"/><path d="M413.5 220.1c21-1.7 44.4 3.7 53.8 29.6 -19.1-17.5-45.4-23-56.4-16.1C410.8 228.8 413.5 220.1 413.5 220.1z" class="c"/><path d="M413.5 220.1c0 0-2.7 8.7-2.6 13.6 6.8-4.3 18.7-4 31.7 1 0.5-2.7 1.8-6.3 3.4-9.5C436 220.1 424.5 219.1 413.5 220.1z" class="i"/><path d="M467.1 249.9c-12.6-11.5-29.8-18.9-43.8-18.9 -5 0-9.3 1-12.3 2.9l-0.4 0.3 0-0.5c-0.1-4.8 2.5-13.3 2.6-13.7l0.1-0.2 0.2 0c2.4-0.2 4.8-0.3 7-0.3 16.5 0 38 5.2 47 30.1L467.1 249.9zM423.2 230.4c13.9 0 30.8 7.2 43.4 18.3 -9.2-23.7-30.1-28.7-46.1-28.7 -2.2 0-4.5 0.1-6.8 0.3 -0.4 1.2-2.5 8.4-2.6 12.8C414.2 231.4 418.3 230.4 423.2 230.4z" class="d"/><path d="M398.5 280.4c-2.1-6.2-10.6-41.7 2-66 -3.5 1.5-8.9 2.3-11.7 2.6C382.3 238.1 382.8 262.9 398.5 280.4z" class="c"/><path d="M400.5 214.3c-3.5 1.5-8.9 2.3-11.7 2.6 -5.5 18.1-5.7 39.3 4.1 55.9 1.3-0.1 2.4-0.5 3.6-0.8C393.7 258.4 390.8 233 400.5 214.3z" class="i"/><path d="M398.3 280.5c-13.8-15.4-17.4-38.6-9.8-63.7l0.1-0.2 0.2 0c3.6-0.4 8.6-1.2 11.7-2.5l0.7-0.3 -0.4 0.7c-12.1 23.4-4.6 57.9-2 65.8L398.3 280.5zM388.9 217.2c-7.3 24.3-4 46.8 8.9 62 -2.9-9.8-9.1-41.9 2.1-64.3C396 216.4 390.5 217 388.9 217.2z" class="d"/><path d="M410.5 272.4c-1.6-6.2-10-40.2 6.2-70.7 -4.7 3.3-8.3 6.6-10.3 8.6 -0.9 0.9-2 1.8-3.2 2.5C397 232.5 397 255.3 410.5 272.4z" class="c"/><path d="M406.8 244c0-12.7 2.2-27.9 9.8-42.3 -4.7 3.3-8.3 6.6-10.3 8.6 -0.9 0.9-2 1.8-3.2 2.5 -5.5 17.6-6.1 37.5 3.4 53.8C407.2 259.1 406.4 251.4 406.8 244z" class="i"/><path d="M410.2 272.5c-11.9-15-14.5-36.8-7.3-59.8l0-0.1 0.1-0.1c1.3-0.8 2.3-1.6 3.2-2.5 0.9-1 4.5-4.6 10.3-8.7l0.4 0.4c-15.4 29-8.6 61.3-6.2 70.5L410.2 272.5zM403.4 213c-6.9 22.2-4.6 43.3 6.5 58.1 -2.6-10.6-8.1-41 6-68.6 -5.3 3.8-8.4 7-9.3 7.9C405.7 211.4 404.7 212.2 403.4 213z" class="d"/><path d="M440.3 308.1c2.1 2.5 3.5 4.9 3.7 7.1 4.1-3.3 11.6-6.1 17.9-7C458.5 306.2 449.1 305.7 440.3 308.1z" class="c"/><path d="M440.3 308.1c2.1 2.5 3.5 4.9 3.7 7.1 3.3-2.7 9.1-5 14.5-6.3 0-0.5-0.1-1.3-0.2-1.9C453.8 306.2 446.7 306.4 440.3 308.1z" class="i"/><path d="M443.8 315.8l0-0.5c-0.1-1.9-1.3-4.2-3.6-7l-0.3-0.3 0.4-0.1c3.8-1 8-1.6 12-1.6 4.3 0 7.9 0.6 9.8 1.8l0.7 0.4 -0.8 0.1c-6.3 0.9-13.8 3.8-17.8 6.9L443.8 315.8zM440.8 308.2c2 2.5 3.1 4.6 3.4 6.5 4-3 10.7-5.6 16.8-6.6 -2-0.8-5.2-1.3-8.8-1.3C448.4 306.8 444.5 307.3 440.8 308.2z" class="d"/><path d="M443.6 328.3c3.5-1.2 9-1.6 14.6-1 0.1-0.8 0.2-1.7 0.3-2.5 -4.1-1.8-9.5-3.3-15.3-3.8C443.2 323.4 443.4 325.8 443.6 328.3z" class="c"/><path d="M453.7 323.1c-3.2-1-6.7-1.7-10.5-2 0 2.2 0.2 4.7 0.5 7.2 2.5-0.9 6.1-1.2 9.9-1.2C453.5 326 453.6 324.5 453.7 323.1z" class="i"/><path d="M443.4 328.7l0-0.3c-0.2-2.3-0.5-4.9-0.5-7.2l0-0.3 0.3 0c5.5 0.5 11 1.8 15.4 3.8l0.2 0.1 0 0.2c-0.1 0.7-0.2 1.6-0.3 2.5l0 0.3 -0.3 0c-1.8-0.2-3.6-0.3-5.4-0.3 -3.7 0-6.8 0.4-9.1 1.2L443.4 328.7zM443.4 321.4c0 2.1 0.2 4.4 0.4 6.5 2.3-0.8 5.3-1.2 8.9-1.2 1.7 0 3.4 0.1 5.2 0.3 0.1-0.7 0.1-1.4 0.2-2C453.9 323.2 448.7 321.9 443.4 321.4z" class="d"/><path d="M444.1 340.7c2.8-1.8 8.1-2.4 13.5-1.8 0-0.7 0-1.7 0-2.4 -3.6-1.9-8.3-3.2-13.6-3.5C444.2 336 444.4 338.8 444.1 340.7z" class="c"/><path d="M453.1 334.6c-2.7-0.8-5.9-1.5-9.2-1.7 0.3 3.1 0.5 5.9 0.1 7.7 2.1-1.3 5.4-2 9.2-2C453.3 337.5 453.2 336.1 453.1 334.6z" class="i"/><path d="M443.7 341.2l0.1-0.6c0.3-1.8 0.1-4.8-0.1-7.6l0-0.3 0.3 0c5 0.3 9.9 1.5 13.7 3.5l0.1 0.1 0 0.2c0 0.7 0 1.7 0 2.4l0 0.3 -0.3 0c-1.3-0.1-2.7-0.2-4-0.2 -4 0-7.4 0.7-9.3 2L443.7 341.2zM444.3 333.3c0.2 2.5 0.4 5.1 0.2 6.9 2.1-1.1 5.3-1.8 9.1-1.8 1.2 0 2.5 0.1 3.7 0.2 0-0.6 0-1.3 0-1.9C453.6 334.8 449 333.6 444.3 333.3z" class="d"/><path d="M457 291c-4.7-1.6-17.5 0.3-28.3 5.7 1.1 1 2.2 2.1 3.4 3.2 1.2 1.1 2.4 2.2 3.5 3.3C440 298.6 449.1 293.4 457 291z" class="c"/><path d="M428.7 296.7c1.1 1 2.2 2.1 3.4 3.2 1.2 1.1 2.4 2.2 3.5 3.3 3.4-3.7 9.8-7.5 16.2-10.2 -0.3-0.6-0.8-1.7-1-2.5C444.8 290.8 436.4 292.8 428.7 296.7z" class="i"/><path d="M435.7 303.6l-0.2-0.2c-1.1-1.1-2.3-2.1-3.4-3.2l-0.1-0.1c-1.3-1.2-2.4-2.2-3.4-3.2l-0.3-0.3 0.3-0.2c8.7-4.3 18.4-6.2 24.1-6.2 1.8 0 3.3 0.2 4.4 0.5l0.8 0.3 -0.8 0.3c-8 2.5-17.1 7.7-21.2 12.1L435.7 303.6zM429.2 296.8c1 0.9 2 1.9 3.1 2.9l0.1 0.1c1.1 1 2.1 2 3.2 3 4.2-4.4 12.5-9.2 20.4-11.8 -0.9-0.2-2-0.3-3.3-0.3C447.1 290.7 437.7 292.6 429.2 296.8z" class="d"/><path d="M379.3 266.2c-2.2-15.7-1.6-39.5 4.6-49.8 -1.8-0.4-4.9-1.5-6.4-2.3C373.7 223.5 368.5 243.2 379.3 266.2z" class="i"/><path d="M379.1 266.4c-10.8-22.9-5.8-42.6-1.8-52.2l0.1-0.3 0.3 0.1c1.5 0.8 4.7 1.8 6.4 2.2l0.4 0.1 -0.2 0.3c-5.8 9.6-6.8 32.8-4.5 49.6L379.1 266.4zM377.6 214.6c-3.8 9.4-8.5 28.1 1.2 49.9 -2-16.5-0.8-38.3 4.7-47.8C381.8 216.2 379.1 215.3 377.6 214.6z" class="d"/><path d="M473 231.2c-8.3-21.2-28.2-31.7-43.6-36.5 -3.3 1.3-9.6 4.7-12.7 7.2C436 202.4 460.4 215.3 473 231.2z" class="c"/><path d="M429.4 194.7c-3.3 1.3-9.6 4.7-12.7 7.2 12 0.3 25.9 5.4 37.8 13 1.6-1.2 3.5-2.3 5.5-3C450.7 203.1 439.1 197.7 429.4 194.7z" class="i"/><path d="M472.8 231.4c-12.6-15.9-37.2-28.7-56.1-29.2l-0.9 0 0.7-0.5c3.1-2.4 9.3-5.9 12.8-7.3l0.1 0 0.1 0c15.3 4.8 35.4 15.1 43.8 36.7L472.8 231.4zM417.6 201.6c18.5 0.8 41.3 12.5 54.3 27.7 -8.8-20-27.8-29.7-42.5-34.3C426.2 196.2 420.8 199.3 417.6 201.6z" class="d"/><path d="M475.9 219.9c-0.6-8.2-9-19.4-10.8-21.6 -5.4-5-11.8-7.6-19.1-7.6 -2.5 0-5 0.5-7.5 1C450.2 196.5 468.1 206.9 475.9 219.9z" class="c"/><path d="M472.5 209.6c-2.7-5.3-6.3-10-7.4-11.3 -5.4-5-11.8-7.6-19.1-7.6 -2.5 0-5 0.5-7.5 1 8.5 3.4 20.3 10 29.1 18.1C469.3 209.5 470.9 209.3 472.5 209.6z" class="i"/><path d="M475.6 220c-7.2-11.9-23.9-22.7-37.3-28l-0.8-0.3 0.9-0.2c2.2-0.5 4.9-1 7.5-1 7.4 0 13.9 2.6 19.3 7.7 0.1 0.1 10.2 12.5 10.9 21.8L475.6 220zM439.3 191.8c12.1 5 28.3 14.8 36.1 26.9 -1.2-7.8-8.6-17.9-10.6-20.3 -5.3-5-11.7-7.5-18.9-7.5C443.6 191 441.3 191.4 439.3 191.8z" class="d"/><path d="M367 193c-4.1 4.6-23.6 17.5-34 36.9 -0.5 6.2-0.2 12 0.8 17.4 9.4-23.1 29-37.5 34.8-45.7C367.5 198.7 367 193 367 193z" class="c"/><path d="M359.9 199.2c-7.8 6.6-19.5 16.8-26.9 30.7 -0.5 6.2-0.2 12 0.8 17.4 8-19.6 23.4-33 31.4-41.6C363.1 203.7 360.1 200.2 359.9 199.2z" class="i"/><path d="M369.4 204.3c-2.9 7.9-24.5 30.9-27.5 62.2 0.2 0.2 0.3 0.5 0.5 0.7 1.2 1.7 2.5 3.3 3.8 4.7 -0.3-23.9 7.4-28 29.5-58.9C374.4 212.1 371 208.2 369.4 204.3z" class="c"/><path d="M375.7 213.1c-0.1-0.1-0.3-0.2-0.4-0.3 -2.5-1.2-5.8-2.7-7.7-5 -5.7 9.4-20.4 28.2-24.8 52 1.2 0.8 2.6 1.4 3.9 2C348.7 246 357.2 239 375.7 213.1z" class="i"/><path d="M346.5 272.6l-0.5-0.5c-1.4-1.6-2.7-3.1-3.9-4.7 -0.1-0.1-0.2-0.3-0.3-0.4 -0.1-0.1-0.1-0.2-0.2-0.3l-0.1-0.1 0-0.1c2.2-23 14.5-41.7 21.9-52.9 2.7-4.1 4.8-7.3 5.6-9.4l0.2-0.7 0.3 0.6c1.7 4 5 7.8 6.3 8.7l0.2 0.2 -0.2 0.2c-4.5 6.2-8.3 11.3-11.7 15.8 -13.2 17.4-18.1 23.9-17.8 42.9L346.5 272.6zM342.2 266.4c0 0.1 0.1 0.1 0.1 0.2 0.1 0.1 0.2 0.3 0.3 0.4 1 1.4 2.1 2.8 3.3 4.2 -0.1-18.6 4.9-25.2 17.9-42.5 3.3-4.4 7.1-9.4 11.5-15.5 -1.4-1.1-4.3-4.5-6-8.1 -0.9 2.1-2.9 5.2-5.4 8.9C356.6 225 344.4 243.6 342.2 266.4z" class="d"/><path d="M333.7 248.3l-0.2-0.9c-1.1-5.4-1.3-11.3-0.8-17.5l0-0.1c7.9-14.7 20.9-25.7 28.6-32.2 2.4-2.1 4.4-3.7 5.4-4.8l0.6-0.6 0.1 0.8c0 0.1 0.6 5.6 1.4 8.5l0 0.1 -0.1 0.1c-1.7 2.5-4.7 5.5-8.1 9 -8.4 8.6-20 20.4-26.6 36.6L333.7 248.3zM333.3 230c-0.5 5.7-0.3 11.2 0.7 16.4 6.7-15.9 18-27.5 26.4-35.9 3.4-3.4 6.3-6.4 8-8.8 -0.8-2.4-1.3-6.5-1.5-8 -1.1 1.1-2.8 2.6-5 4.4C354 204.5 341.1 215.4 333.3 230z" class="d"/><path d="M341 193c-1.9 1.6-4 3.6-6 5.7 0.1 2.3 0.2 4.8 0.1 7.6 4.3-4.1 13.6-12.6 20.3-16.2C351.9 191.6 344.1 192.7 341 193z" class="c"/><path d="M337.3 196.4c-0.8 0.7-1.5 1.5-2.2 2.3 0.1 2.3 0.2 4.8 0.1 7.6 2.3-2.1 5.7-5 9.6-8.2C342.4 198.2 339 197.3 337.3 196.4z" class="i"/><path d="M334.9 206.9l0-0.7c0.1-2.7 0-5.2-0.1-7.6l0-0.1 0.1-0.1c1.7-1.8 3.7-3.7 6-5.7l0.1-0.1 0.1 0c3-0.3 10.7-1.4 14.3-2.9l0.2 0.5c-6.5 3.5-15.5 11.6-20.2 16.1L334.9 206.9zM335.3 198.8c0.1 2.1 0.1 4.4 0.1 6.8 4.3-4.1 11.6-10.7 17.7-14.5 -3.9 1.1-9.5 1.9-12 2.1C338.9 195.2 337 197 335.3 198.8z" class="d"/><path d="M303.4 82.8c-1.5-9.5-11-18.5-21.5-23.3 -8.7-3.9-22.4-5.8-23.2-1.1 -1 6.1-2.7 25.6 6.3 35.5 9.1 9.9 19.3 13.2 25.1 24.4l16.3-5.5C300.9 105.9 305.2 94.2 303.4 82.8z" class="a"/><path d="M292.3 116.5c2.3 2.3 8.6-3.1 8.6-6 -0.9-9.8 3.6-23.6 0.1-34.6 -3.8-6.9-11.1-12.9-19.1-16.5 -8.7-3.9-22.4-5.8-23.2-1.1 -1 6.1-2.7 25.6 6.3 35.5C268.2 97.3 284.2 104.3 292.3 116.5z" class="h"/><path d="M293.4 109.4c1.5-0.6 0.3-25.8-6.4-33.5 -9.6-11.1-21.8-14.2-23.6-14.5 -2.6-0.5 1.7 15.8 7.6 25.1C276.5 95.5 291 110.5 293.4 109.4z" class="m"/><path d="M286.6 99.6c-1.1-2.9-3.3-4.8-3.4-8.6 1.3 3.2 6 9.6 6.3 7.5 1.2-12.4-2.7-22.4-12.6-31.2 -6.6-4.2-12.3-5.6-13.5-5.9 -2.6-0.5 1.7 15.8 7.6 25.1 2.7 4.3 7.5 10 12 14.7 -1.3-2.1-2.5-4.3-3.2-6.7C282.1 98.1 287.3 102.1 286.6 99.6z" class="n"/><path d="M270.7 86.6c-5.2-8.3-9.6-23-8.1-25.2 0.2-0.3 0.5-0.4 0.8-0.3 0.1 0 13.3 2.5 23.8 14.6 6.3 7.2 7.7 29.2 6.8 33.1 -0.1 0.5-0.3 0.7-0.5 0.8 -0.2 0.1-0.4 0.1-0.6 0C289.4 109.1 276.1 95.3 270.7 86.6zM263 61.7c-1.3 1.9 2.8 16.1 8.1 24.6 5.3 8.4 18.5 22.2 21.8 22.9 0.1 0 0.3 0 0.3 0 1.2-1.1 0-25.7-6.5-33.1 -8.6-9.9-19.9-13.8-23.5-14.5C263.1 61.6 263.1 61.6 263 61.7z" class="b"/><path d="M289.9 118.4c-3.5-6.7-8.6-10.6-14-14.7 -3.7-2.8-7.4-5.7-11.1-9.6 -10.5-11.4-6.6-34.7-6.4-35.7 0.2-0.9 0.7-1.6 1.7-2.1 4.2-2.2 14.9-0.2 21.9 3 9.6 4.3 20 13.3 21.7 23.5 0.7 4.5 0.5 9 0.3 13.3 -0.3 6.7-0.6 12.5 2.7 16.6l-0.4 0.4c-3.5-4.3-3.2-10.5-2.8-17 0.2-4.3 0.4-8.7-0.3-13.1 -1.6-10-11.9-18.8-21.3-23.1 -6.9-3.1-17.5-5-21.4-3 -0.8 0.4-1.3 1-1.4 1.7 -0.2 1-4 24.1 6.3 35.2 3.6 3.9 7.4 6.8 11 9.5 5.5 4.2 10.7 8.1 14.2 14.9l-0.3 0.8L289.9 118.4z" class="b"/><path d="M297.5 116.7c-0.1-0.2-3.5-4.2-4.5-7.3l0.5-0.2c1 3.1 4.3 7.1 4.4 7.1L297.5 116.7z" class="b"/><path d="M370.3 146.9c3.6 6.1 7.8 15.3 3.3 27.7 -4.6 12.4-24.2 20-37.7 18.2 -4.2 1.3-14.1 7.6-18.6 19.7 -8.8-6.3-38.7-23-32.8-32.5 5.9-9.6-19.5-46.3 16.4-70.6 6.3-8.6 19.5-26.5 40.8-12.5 0.9 5 6 10.9 16.6 17.8C371.4 123.1 370.3 146.9 370.3 146.9z" class="a"/><path d="M308 190.2c4.2 2.2 12.6-3.1 13.1-10.3 1.7 1.7 8.7 4.1 11.1 4.3 16.1 1.7 29.4-6.4 33.5-23.1 2.3-8.6-1.9-16.8-6.7-24.9 1.3-0.2 2.7 0.2 4 1.4 -1-9.1-2.1-14.1-9.8-19.1 -1.9-0.9-3.5-2.3-6.1-2.7 7.7-2.5-4.7-14.8-5.5-19 -21.4-14-34.5 3.9-40.8 12.5 -36 24.3-10.5 61-16.4 70.6 -4.2 6.7 11.4 19.6 22.9 27.3C307.9 202.7 299.2 193.2 308 190.2z" class="h"/><path d="M317.4 212.9l-0.3-0.2c-1.5-1.1-3.7-2.5-6.2-4.1 -11.9-7.7-31.7-20.6-26.7-28.8 1.7-2.8 0.7-8.2-0.7-15 -3.1-15.4-7.9-38.6 17.2-55.6 4.6-6.2 13.1-17.8 25.8-17.8 4.9 0 10.1 1.7 15.4 5.2l0.1 0.1 0 0.1c0.9 5.2 6.4 11.1 16.5 17.6 12.7 8.2 12.2 30.8 12.2 32.4 3.9 6.6 7.7 15.7 3.2 27.9 -4.2 11.5-20.8 18.6-33.8 18.6 -1.4 0-2.8-0.1-4.2-0.3 -4.9 1.6-14.1 8.2-18.4 19.5L317.4 212.9zM326.5 91.9c-12.5 0-20.8 11.4-25.3 17.6l-0.1 0.1c-24.8 16.8-20.1 39.8-17 55.1 1.4 6.9 2.5 12.4 0.7 15.4 -4.8 7.7 14.8 20.4 26.5 28 2.3 1.5 4.4 2.9 5.9 3.9 4.4-11.3 13.8-18 18.7-19.5l0.1 0 0.1 0c1.3 0.2 2.7 0.3 4.1 0.3 12.7 0 29.1-7 33.2-18.2 4.4-12 0.6-21-3.2-27.5l0-0.1 0-0.1c0-0.2 0.9-23.7-11.9-32 -10.1-6.5-15.7-12.5-16.7-17.9C336.3 93.6 331.3 91.9 326.5 91.9z" class="b"/><path d="M326.9 102.5c0.9 2.8-0.7 5.8 1.3 9.8 1.4-5.8 6-5.5 8.5-9.3C330 101.9 326.9 102.5 326.9 102.5z" class="i"/><path d="M328.2 113l-0.3-0.7c-1.3-2.4-1.2-4.5-1.1-6.4 0.1-1.2 0.1-2.3-0.2-3.4l-0.1-0.3 0.3-0.1c0 0 0.9-0.2 2.7-0.2 2.1 0 4.5 0.2 7.1 0.6l0.4 0.1 -0.2 0.4c-1 1.6-2.4 2.5-3.8 3.3 -2 1.3-3.9 2.5-4.7 5.9L328.2 113zM327.2 102.7c0.3 1.1 0.2 2.1 0.2 3.3 -0.1 1.7-0.2 3.5 0.7 5.5 1-3 2.9-4.3 4.7-5.5 1.2-0.8 2.4-1.6 3.3-2.8 -2.4-0.4-4.7-0.6-6.6-0.6C328.4 102.6 327.6 102.7 327.2 102.7z" class="d"/><path d="M352 111.2c-0.6 14.7-3.4 14.9-6.4 25.2 4.8-4.1 11.2-15.9 11.6-22.7C356.3 112.5 352.1 109.5 352 111.2z" class="c"/><path d="M351.6 117.4c-1.1 8.8-3.4 10.4-5.9 19 3.4-2.9 7.7-9.8 10-16C354.7 119 353.2 118 351.6 117.4z" class="i"/><path d="M345.1 137.2l0.3-0.9c1-3.4 2-5.7 2.8-7.7 1.8-4.2 3.2-7.6 3.6-17.4 0-0.5 0.3-0.8 0.8-0.8 1.3 0 4.2 2.1 4.9 3.1l0.1 0.1 0 0.1c-0.4 7-7 18.8-11.7 22.9L345.1 137.2zM352.6 111c-0.2 0-0.3 0.1-0.3 0.3 -0.4 9.9-1.8 13.3-3.6 17.6 -0.8 1.8-1.6 3.9-2.5 6.7 4.6-4.5 10.4-15.2 10.8-21.7C356.2 112.8 353.6 111 352.6 111z" class="d"/><path d="M358.6 115.1c-1.6 9.7-6.2 30.3-17 36.8 6.8 3.8 13 30.5-4.5 41 3.1 0.4 10.5-0.7 10.5-0.7 2-2.6 12-18.3 1.9-39.2 9.1-10.3 14-22 14.6-32.5C363 118.1 360.1 115.5 358.6 115.1z" class="c"/><path d="M361.8 132c-0.8-3.6-2.1-7.2-4.6-10.2 -2.3 10.5-7 24.8-15.7 30.1 5.3 3 10.5 18.9 4.3 31.1 2.6-0.9 4.7-1.3 7-2.8 1.6-6.9 1.8-16.4-3.4-27.2 4.3-4.9 7.7-10.1 10.1-15.4 -0.5-1-0.7-1.2-1.6-2 0.9 0.1 1.6 0.2 2.5 0.7C361 135 361.4 133.2 361.8 132z" class="i"/><path d="M338.7 193.3c-0.7 0-1.2 0-1.7-0.1l-0.8-0.1 0.7-0.4c10-6 11.3-16.6 11.2-22.4 -0.1-8.9-3.6-16.4-6.7-18.1l-0.4-0.2 0.4-0.2c10.9-6.5 15.4-27.7 16.9-36.6l0.2-0.7 0.4 0.3c1.6 1 4.4 3.3 5.5 5.7l0 0.1 0 0.1c-0.6 11-5.8 22.6-14.6 32.6 10.6 22.4-1.5 38.7-2 39.4l-0.1 0.2 -0.1 0C347.3 192.8 343 193.5 338.7 193.3zM337.9 192.7c0.3 0 0.5 0 0.8 0 3.2 0 7.9-0.6 8.7-0.7 1.1-1.5 12.1-17.3 1.8-38.9l-0.1-0.2 0.1-0.1c8.8-9.9 13.9-21.4 14.6-32.3 -1-2.2-3.5-4.7-5-5.2 -1.5 9-6.2 29.8-16.8 36.6 3.6 2.5 6.5 10.3 6.6 18.3C348.8 176 347.5 186.5 337.9 192.7z" class="d"/><path d="M368.4 129.7c-1.4 6.6-4.4 16.8-10 21.3 3.4 4.9 9.3 20.8-0.2 38 3.3-1.1 5.9-2.9 7.9-4.6 2.4-2.2 5.1-23.1-1.1-31.2 1.6-2.5 4-6.4 5.4-10.1C370.4 140 368.9 130.7 368.4 129.7z" class="c"/><path d="M366.1 155c-0.2-0.3-1-1.6-1.2-1.9 0.1-0.2 0.8-1.1 0.9-1.3 -0.6-2.6-1.5-5-2.4-7.3 -1.3 2.4-3.2 4.9-5 6.4 2.2 3.1 5.3 8.1 4.9 17.5C365.2 164.3 366.9 160.6 366.1 155z" class="i"/><path d="M357.6 189.4l0.3-0.6c9.7-17.4 3.5-33.1 0.3-37.7l-0.1-0.2 0.2-0.2c5.6-4.6 8.6-15.2 9.9-21.1l0.2-0.8 0.4 0.7c0.5 1 2 10.4 2 13.5v0.1l0 0c-1.4 3.7-3.8 7.5-5.3 10 6.3 8.4 3.3 29.2 0.9 31.4 -1.6 1.5-4.3 3.5-8 4.7L357.6 189.4zM358.8 151c3.3 4.9 9.2 20.3 0 37.4 3.2-1.2 5.6-3 7.1-4.3 2.3-2 5-22.9-1.1-30.8l-0.1-0.1 0.1-0.2c1.6-2.5 3.9-6.3 5.3-9.9 0-2.8-1.1-9.6-1.7-12.2C366.8 137.9 363.9 146.8 358.8 151z" class="d"/><path d="M370.8 148.3c-1.8-3.5-7.4-7.3-7.5-7.3 0 0 6.1 3.4 8 7.1L370.8 148.3z" class="d"/><path d="M371.3 148c-0.4-0.8-1-1.6-1.8-2.4 -0.1 0.2-0.1 0.3-0.3 0.4 0.7 0.8 1.1 1.4 1.5 2.2l0.4 0.1L371.3 148z" class="b"/><path d="M338 193.2c-6.3-0.4-10.9-3.9-10.9-3.9 0 0 4.7 3 10.9 3.4L338 193.2z" class="d"/><path d="M336.3 193.1c-5.4-0.8-9.1-3.8-9.1-3.8 0 0 4.2 2.7 9.8 3.3C337 192.6 336.6 193 336.3 193.1z" class="b"/><path d="M287.3 123.8c1.4-3.6 3.5-5.8 6.5-6.3 2.3-0.4 4 1.2 4.8 2.9 -1.2-1-2.8-1.4-4.6-1.2C291.6 119.5 289.2 121.1 287.3 123.8z" class="o"/><path d="M333.6 125.3c-1.9-4-4.8-6.7-8.1-7.7 -2.4-0.7-4.7-0.5-6.6 0.6 1.1-1.6 3.7-3.4 7.1-2.2C330.1 117.2 332.5 121.5 333.6 125.3z" class="o"/><path d="M305.4 111.4c0 0-4.4-18.2-18.9-21.7 4.9-6 21.7-15.2 26.1-14.5l5.1 4 0.3-5.5c6.4-2.5 21.5-6.5 40.2 9.9 -4.4 9.3-10.7 22.1-10.7 22.1S319.9 95.1 305.4 111.4z" class="a"/><path d="M350.7 99.1c1.9-3.9 5.7-11.8 7.5-15.6 -18.7-16.4-33.8-12.4-40.2-9.9l-0.3 5.5 -5.1-4c-4.4-0.7-21.2 8.5-26.1 14.5 11.8 3.1 17.1 15.5 19.1 21.9C305 105.9 322.2 90 350.7 99.1z" class="h"/><path d="M305.2 111.9l-0.1-0.5c0-0.2-4.5-18.1-18.7-21.5l-0.4-0.1 0.3-0.3c4.6-5.6 20.5-14.6 25.8-14.6 0.2 0 0.4 0 0.6 0l0.1 0 4.7 3.7 0.3-5.1 0.2-0.1c3.9-1.6 8-2.4 12.1-2.4 9.5 0 19.1 4.1 28.4 12.3l0.2 0.1 -0.1 0.2c-4.3 9.2-10.6 22-10.7 22.1l-0.1 0.2 -0.2-0.1c-0.1 0-8.9-3.3-18.9-3.3 -9.8 0-17.5 3-22.8 9L305.2 111.9zM287 89.5c12.8 3.4 17.7 18.4 18.5 21.3 5.4-5.8 13.1-8.8 22.9-8.8 9.3 0 17.4 2.8 18.9 3.3 0.8-1.7 6.5-13.2 10.5-21.7 -9.2-8-18.5-12-27.8-12 -4 0-7.9 0.8-11.7 2.3l-0.3 5.8 -5.4-4.2c-0.1 0-0.3 0-0.4 0C307.4 75.4 292.2 83.6 287 89.5z" class="b"/><path d="M312.6 75.1c-1.8-0.3-5.7 1.1-10 3.3 4.6 5.1 9.7 13.4 11.9 26.4 3.2-1.3 6.5-2.1 9.8-2.4 -0.4-6-1.9-14.9-7.1-23.7L312.6 75.1z" class="c"/><path d="M312.6 75.1c-1.8-0.3-5.7 1.1-10 3.3 4.1 4.5 8.5 11.6 11.2 23.3 2.4-1.8 6.4-3.3 9.9-4 -0.8-5.5-2.7-12.3-6.5-18.9L312.6 75.1z" class="i"/><path d="M314.3 105.2l-0.1-0.3c-1.8-10.8-5.8-19.7-11.9-26.3l-0.2-0.3 0.3-0.2c4.3-2.1 7.8-3.3 9.7-3.3 0.2 0 0.4 0 0.6 0l0.1 0 4.7 3.7c5.1 8.8 6.7 17.8 7.1 23.8l0 0.3 -0.3 0c-3.5 0.3-6.8 1.1-9.7 2.4L314.3 105.2zM303 78.5c5.9 6.6 9.9 15.3 11.7 26 2.8-1.1 5.9-1.9 9.3-2.2 -0.4-5.9-2-14.7-7-23.3l-4.5-3.5C310.9 75.2 307.4 76.3 303 78.5z" class="d"/><path d="M347.9 76.3c-4.9-2.7-9.3-4.1-13.3-4.6 1 7.4 1.7 19.2-1.4 30.9 4.3 0.4 8.1 1.3 10.7 2C345.6 97.5 348.1 86.2 347.9 76.3z" class="c"/><path d="M345.3 98.4c1.4-6.6 2.7-14.8 2.7-22.1 -4.9-2.7-9.3-4.1-13.3-4.6 0.8 6.1 1.4 15.1-0.1 24.5C338.4 96.1 342.1 96.7 345.3 98.4z" class="i"/><path d="M344.1 104.8l-0.3-0.1c-2.4-0.7-6.2-1.6-10.6-2l-0.3 0 0.1-0.3c3-11.5 2.4-23.1 1.4-30.8l0-0.4 0.4 0.1c4.5 0.6 9 2.2 13.4 4.7l0.1 0.1 0 0.2c0.1 9.7-2.2 20.7-4.1 28.3L344.1 104.8zM333.6 102.3c4.1 0.4 7.7 1.2 10.1 1.9 1.9-7.5 4.1-18.2 4-27.7 -4.2-2.3-8.5-3.8-12.8-4.5C335.9 79.6 336.5 90.9 333.6 102.3z" class="d"/><path d="M371.9 52.9c-12.5 3.1-24.7 11.1-28.3 21.3 -4.3 12.3-1.9 25.9-9.3 32.3l16.8 9.3c8.6-11.2 20.5-12.8 32.5-21.8 11.9-9 14-30.8 14-37.7C397.6 50.9 382.2 50.3 371.9 52.9z" class="a"/><path d="M374.6 93.2c16.5-8.6 24.4-36.1 21.9-39.1 -3.7-3.3-15.9-3.4-24.6-1.2 -12.5 3.1-24.7 11.1-28.3 21.3 -4.3 12.3-1.9 25.9-9.3 32.3l2.6 9.3 12.1-1.1C354.9 106 364.9 98.2 374.6 93.2z" class="h"/><path d="M351.3 116c2.8-5 8.9-9.3 18.1-13.9 4.5-2.3 9.2-4.7 14-8.3 13.5-10.2 13.9-36.4 13.9-37.5 0-0.8-0.4-1.5-1.2-2.2 -3.9-3-15.9-3-24.1-1 -11.3 2.8-24.3 10.4-28.1 21.1 -1.7 4.7-2.4 9.6-2.9 14.4 -1.3 12.3-4.3 16.2-6.9 17.6 4.5-3.9 5.3-10.3 6.3-17.7 0.6-4.8 1.3-9.7 3-14.5 3.8-10.9 17-18.6 28.5-21.5 8.3-2.1 20.5-2.1 24.6 1.1 0.9 0.7 1.4 1.6 1.4 2.6 0 1.1-0.4 27.5-14.1 38 -4.8 3.6-9.5 6-14 8.3C362.9 106 356.5 109.3 351.3 116z" class="b"/><path d="M350 103.5c-1.4-0.9 4.7-27.4 13.3-34.2 12.3-9.8 25.8-10.8 27.8-10.8 2.9 0-4.9 16.4-12.9 25.1C370.5 92 352.3 105.1 350 103.5z" class="m"/><path d="M362.3 81.3c-0.5 1.8-1.3 5.1 3 4.5 -1.7 2.2-10.1 8.3-6.7 11.2 0.9 0.6 2.1 0.9 3.3 0.5 5.9-4.1 12.4-9.6 16.3-13.8 6-6.5 11.8-17.3 13.2-22.3C381.4 64 365.1 70.5 362.3 81.3z" class="n"/><path d="M350.5 103.9c-0.3 0-0.5-0.1-0.7-0.2 -0.2-0.1-0.3-0.4-0.3-1 -0.2-4.3 5.6-27.3 13.6-33.7 13.5-10.7 27.9-10.9 28-10.9 0.4 0 0.6 0.2 0.8 0.5 1.1 2.6-6.3 17.3-13.5 25.1C371 91.9 354.3 103.9 350.5 103.9zM391.1 58.8c-3.9 0-16.6 1.9-27.6 10.7 -8.3 6.6-14.3 32.4-13.3 33.8 0.1 0 0.2 0.1 0.3 0.1 3.6 0 20.3-12.1 27.5-20 7.3-8 14.3-22.3 13.4-24.5C391.3 58.8 391.2 58.8 391.1 58.8z" class="b"/><path d="M343.5 110.4c0 0 4.6-3.8 6.2-7l0.5 0.3C348.5 106.9 343.5 110.4 343.5 110.4z" class="b"/><ellipse transform="matrix(-0.9701 -0.2425 0.2425 -0.9701 537.6688 354.7844)" cx="290.7" cy="144.3" rx="9.9" ry="17.5" class="p"/><path d="M281 141.9c-1.3 13.5 15.9 17.7 19.2 4.8 2.3-9.4-0.1-18.1-5.4-19.4C289.6 126 283.4 132.5 281 141.9z" class="h"/><path d="M287.8 161.7L287.8 161.7c-0.5 0-1-0.1-1.5-0.2 -5.5-1.4-8-10.2-5.6-19.7 2.1-8.5 7.6-15 12.7-15 0.5 0 1 0.1 1.5 0.2 2.7 0.7 4.7 3.1 5.8 6.9 1 3.7 1 8.3-0.2 12.9C298.4 155.3 293 161.7 287.8 161.7zM293.5 127.4c-4.9 0-10.1 6.2-12.2 14.5 -2.3 9.2 0 17.7 5.2 19 0.4 0.1 0.9 0.2 1.3 0.2 4.9 0 10.1-6.2 12.2-14.5 1.1-4.5 1.2-8.9 0.2-12.6 -1-3.6-2.9-5.9-5.4-6.5C294.4 127.5 294 127.4 293.5 127.4z" class="q"/><ellipse transform="matrix(-0.9701 -0.2426 0.2426 -0.9701 536.9166 360.8526)" cx="290.7" cy="147.4" rx="6.9" ry="12.2" class="r"/><path d="M284 145.7c-2.5 10 10.5 11.9 13.4 3.4 1.6-6.5 0-12.6-3.7-13.5C289.9 134.6 285.6 139.2 284 145.7z" class="s"/><path d="M288.7 159.6h0c-0.4 0-0.7 0-1-0.1 -1.9-0.5-3.3-2.2-4.1-4.8 -0.7-2.6-0.7-5.8 0.1-9 1.5-6.1 5.3-10.5 9-10.5 0.4 0 0.7 0 1 0.1 1.9 0.5 3.3 2.2 4.1 4.8 0.7 2.6 0.7 5.8-0.1 9C296.1 155.2 292.4 159.6 288.7 159.6zM292.6 135.7c-3.4 0-7 4.3-8.4 10 -0.8 3.1-0.8 6.2-0.1 8.7 0.7 2.4 2 4 3.7 4.4 0.3 0.1 0.6 0.1 0.9 0.1 3.4 0 7-4.3 8.4-10 0.8-3.1 0.8-6.2 0.1-8.7 -0.7-2.4-2-4-3.7-4.4C293.3 135.8 293 135.7 292.6 135.7z" class="t"/><path d="M291 123.6c5.8-2 12.2 3 10.2 17.9l0 0c0.5-7.2-1.9-13-6.2-14.1 -5.3-1.3-11.5 5.2-13.9 14.6 -0.3 1.2-0.5 2.5-0.7 3.7 0 0 0 0 0 0C280.7 134.5 284 126 291 123.6z" class="a"/><path d="M280.6 145.7l-0.6-0.1c0.4-12.1 4.2-20 10.8-22.3 0.8-0.3 1.7-0.4 2.5-0.4 2 0 3.9 0.9 5.3 2.5 2.7 3.1 3.7 8.9 2.7 16.1l-0.2 1.7 -0.3-1.7 0 0c0.5-7.3-1.9-12.8-6-13.8 -0.4-0.1-0.9-0.2-1.3-0.2 -4.9 0-10.1 6.2-12.2 14.5 -0.3 1.2-0.5 2.4-0.7 3.6L280.6 145.7zM293.4 123.4c-0.8 0-1.5 0.1-2.3 0.4 -5.5 1.9-9 7.9-10.1 17.2 2.3-8.2 7.6-14.2 12.5-14.2 0.5 0 1 0.1 1.5 0.2 3.2 0.8 5.5 4.2 6.2 9 0-4.5-1-8.1-3-10.3C296.9 124.2 295.2 123.4 293.4 123.4z" class="q"/><path d="M294.9 127.3c4.3 1.1 6.7 7 6.2 14.1 -2.1-17.1-17.8-12.2-20.8 4.1 0.1-1.2 0.4-2.4 0.7-3.7C283.4 132.5 289.6 126 294.9 127.3z" class="i"/><path d="M280.6 145.6l-0.6-0.1c0.2-1.2 0.4-2.5 0.7-3.7 2.1-8.5 7.6-15 12.7-15 0.5 0 1 0.1 1.5 0.2 4.3 1.1 6.9 6.9 6.4 14.4l-0.6 0c-0.8-6.5-3.8-10.4-8-10.4C288.2 131.1 282.4 136.2 280.6 145.6zM293.5 127.4c-4.2 0-8.6 4.6-11.1 11.1 2.7-5.3 6.9-8.1 10.5-8.1 3.8 0 6.7 3 8 8 -0.3-5.8-2.5-10-6-10.9C294.4 127.5 294 127.4 293.5 127.4z" class="u"/><path d="M291.5 127.6c-5.1-4.2-3.5-7.6-3.5-7.6 0 0-0.9 3.2 3.9 7.2L291.5 127.6z" class="u"/><path d="M286 131.8c-8.8-1.8-7.5-6.1-7.5-6.1l-0.3-0.1 0.3 0c0 0-0.6 3.9 7.6 5.6L286 131.8z" class="u"/><path d="M280.8 138.2c-3.8 0-5.3-3.1-5.3-3.1 0.1 0.1 2.4 3.3 6.9 2.4l0.1 0.6C281.9 138.1 281.3 138.2 280.8 138.2z" class="u"/><ellipse transform="matrix(-0.9702 -0.2424 0.2424 -0.9702 535.2463 367.9651)" cx="290.3" cy="151.1" rx="4.7" ry="6.3"/><ellipse transform="matrix(0.9928 0.1196 -0.1196 0.9928 19.7128 -33.2914)" cx="287.3" cy="147.6" rx="2.3" ry="3.2" class="h"/><ellipse transform="matrix(0.9908 0.1351 -0.1351 0.9908 23.6185 -37.9437)" cx="291.4" cy="155" rx="0.9" ry="1.3" class="h"/><path d="M297.8 122.6c-3.1 15.5 1.9 31.9-8.6 37.1 -10.5 5.2-29.5 1-26.4 15.7 2.8 13.4 29.5 17.6 43.2 8.8l4-61.6H297.8z" class="h"/><path d="M309.3 108.1c-3.6 11.2-1.3 16.3-4.9 27.1 -0.1 0.4-0.3 0.8-0.4 1.1 0.3-0.3 0.5-0.7 0.8-1 8.7-12.1 7.6-21.7 17.1-32.4C313.5 104.3 309.3 108.1 309.3 108.1z" class="i"/><path d="M303.6 137.1l0.1-0.8c0-0.2 0.1-0.5 0.2-0.8 0.1-0.1 0.1-0.3 0.1-0.4 1.8-5.4 2.1-9.3 2.4-13.4 0.3-4 0.7-8.2 2.5-13.8l0-0.1 0.1 0c0.2-0.2 4.3-3.9 12.8-5.2l0.8-0.1 -0.5 0.6c-5.1 5.7-7.1 11-9.2 16.7 -1.9 4.9-3.8 10-7.9 15.7 -0.1 0.1-0.1 0.2-0.2 0.3 -0.2 0.3-0.3 0.5-0.6 0.8L303.6 137.1zM309.5 108.2c-1.8 5.5-2.1 9.6-2.4 13.6 -0.3 3.8-0.6 7.8-2.3 13 3.9-5.4 5.7-10.4 7.5-15.2 2.1-5.5 4.1-10.7 8.8-16.3C313.9 104.7 310 107.8 309.5 108.2z" class="d"/><path d="M288 189.1c-5.1 0-10.3-0.9-14.8-2.8 -5.9-2.5-9.6-6.3-10.6-10.9 -0.7-3.2-0.4-5.7 1-7.6 2.4-3.6 8-4.4 13.8-5.4 4.1-0.7 8.4-1.4 11.8-3 6.8-3.4 7.1-11.7 7.2-21.3 0.1-12.7 1.8-15.5 1.8-15.5 -1 5.2-1.1 10.5-1.3 15.5 -0.2 9.8-0.4 18.3-7.5 21.8 -3.4 1.7-7.8 2.4-11.9 3.1 -5.7 0.9-11.1 1.8-13.4 5.2 -1.2 1.8-1.5 4.1-0.9 7.1 0.9 4.3 4.5 8 10.2 10.4 10.2 4.3 24.2 3.5 32.6-1.8l0.3 0.5C301.4 187.5 294.7 189.1 288 189.1z" class="b"/><ellipse cx="322.3" cy="146.8" rx="9.9" ry="17.5" class="p"/><path d="M332.2 146.8c-0.6 7.4-20.8 15-19.8 0 0-9.7 4.4-17.5 9.9-17.5C327.7 129.3 332.2 137.1 332.2 146.8z" class="h"/><path d="M322.3 164.5c-5.6 0-10.2-8-10.2-17.8s4.6-17.8 10.2-17.8c5.6 0 10.2 8 10.2 17.8S327.9 164.5 322.3 164.5zM322.3 129.5c-5.3 0-9.6 7.7-9.6 17.2s4.3 17.2 9.6 17.2c5.3 0 9.6-7.7 9.6-17.2S327.6 129.5 322.3 129.5z" class="q"/><ellipse cx="323.5" cy="150.1" rx="6.9" ry="12.2" class="r"/><path d="M330.4 150.1c-0.2 4.5-14.6 11.6-13.8 0 0-6.7 3.1-12.2 6.9-12.2C327.3 137.9 330.4 143.4 330.4 150.1z" class="s"/><path d="M323.5 162.6c-4 0-7.2-5.6-7.2-12.5 0-6.9 3.2-12.5 7.2-12.5s7.2 5.6 7.2 12.5C330.7 157 327.5 162.6 323.5 162.6zM323.5 138.2c-3.6 0-6.6 5.3-6.6 11.9 0 6.6 3 11.9 6.6 11.9 3.7 0 6.6-5.3 6.6-11.9C330.1 143.6 327.2 138.2 323.5 138.2z" class="t"/><path d="M327 126.6c-5.2-3.3-12.5 0-14.2 14.9 0 0 0 0 0 0 1.3-7.1 5-12.2 9.5-12.2 5.5 0 9.9 7.8 9.9 17.5 0 1.3-0.1 2.5-0.2 3.7 0 0 0 0 0 0C334.3 139.7 333.2 130.6 327 126.6z" class="a"/><path d="M331.7 153.1v-2.7c0.2-1.2 0.2-2.5 0.2-3.7 0-9.5-4.3-17.2-9.6-17.2 -4.2 0-7.9 4.8-9.2 12l0 0.1 -0.8 2 0.2-2.1c1.4-12 6.4-16.3 10.7-16.3 1.4 0 2.7 0.4 4 1.2 5.9 3.8 7.7 12.4 5.1 24.2L331.7 153.1zM322.3 129c5.5 0 10 7.6 10.2 17 1.2-9.3-0.7-16-5.6-19.2 -1.2-0.7-2.4-1.1-3.7-1.1 -3.3 0-7.2 2.9-9.1 10.5C315.9 131.7 318.9 129 322.3 129z" class="q"/><path d="M322.3 129.3c-4.4 0-8.2 5.1-9.5 12.2 4.5-14.5 20.3-8.8 19.1 9 0.1-1.2 0.2-2.4 0.2-3.7C332.2 137.1 327.7 129.3 322.3 129.3z" class="i"/><path d="M332.2 150.5l-0.6-0.1c0.4-5.9-1.1-10.9-4-14.1 -1.8-1.9-3.9-2.9-6.1-2.9 -3.7 0-6.9 3-8.5 8l-0.6-0.1c1.3-7.4 5.3-12.4 9.7-12.4 5.6 0 10.2 8 10.2 17.8C332.5 148 332.4 149.3 332.2 150.5zM321.6 132.9c2.3 0 4.6 1.1 6.5 3.1 1.7 1.8 2.9 4.2 3.6 7 -1-7.7-4.8-13.5-9.4-13.5 -3.5 0-6.6 3.3-8.3 8.5C315.8 134.8 318.5 132.9 321.6 132.9z" class="u"/><path d="M325.5 130.4l-0.2-0.5c5.6-2.7 5.5-6 5.5-6C330.7 123.8 331.4 127.5 325.5 130.4z" class="u"/><path d="M331 135.8c-0.4 0-0.7 0-1.1 0l0-0.6c8.3 0.4 8.7-3.5 8.7-3.6C338.6 131.6 338.8 135.8 331 135.8z" class="u"/><path d="M335.2 143.4c-1 0-2.2-0.2-3.4-0.8l0.2-0.5c4.1 2 7.1-0.5 7.3-0.6C339.2 141.5 337.8 143.4 335.2 143.4z" class="u"/><ellipse cx="324.1" cy="153.6" rx="4.7" ry="6.3"/><ellipse transform="matrix(0.9999 -0.0131 0.0131 0.9999 -1.934 4.2157)" cx="320.9" cy="149.8" rx="2.6" ry="3.6" class="h"/><path d="M326.3 157.6c0.2 0.7-0.1 1.3-0.6 1.4 -0.5 0.1-1-0.3-1.2-1 -0.2-0.7 0.1-1.3 0.6-1.4C325.6 156.5 326.1 157 326.3 157.6z" class="h"/><path d="M303.6 175.7c4.3-0.3 7.2 2.6 10 14.6 2.6 10.9 10.4 16.3 1.8 27.8 0.6 10.1-11.1 15.9-20.5 17.6 -9.4 1.7-19.7 0.6-21.6-5.7 -1.9-6.3 3.1-11.7 1.7-19.3C303.2 193 301.1 175.9 303.6 175.7z" class="k"/><path d="M276.8 230.6c-4.2-7 2.4-17.4 1.7-22.1 -2.1 1.6-0.9 0.7-3.4 2.3 1.3 7.6-3.6 13-1.7 19.3 1.6 5.2 8.9 6.9 16.6 6.4C284.6 236.8 279 233.8 276.8 230.6z" class="v"/><path d="M287.3 236.8c-7.8 0-13-2.4-14.2-6.7 -1-3.3-0.2-6.3 0.7-9.5 0.8-3 1.7-6.2 1-9.9l0-0.2 0.2-0.1c21.1-13.3 25.1-26.3 26.9-31.9 0.6-2 1-3.1 1.8-3.2 4.9-0.4 7.6 3.5 10.3 14.8 0.7 3.1 1.9 5.7 3 8.2 2.7 6.1 5 11.4-1.1 19.8 0.5 9.6-10 15.8-20.7 17.8C292.4 236.5 289.8 236.8 287.3 236.8zM275.4 210.9c0.6 3.7-0.2 6.9-1.1 10 -0.8 3.1-1.6 6-0.7 9.1 1.2 4 6.2 6.3 13.7 6.3 2.4 0 5-0.2 7.6-0.7 10.4-1.9 20.8-8 20.2-17.3l0-0.1 0.1-0.1c6-8.1 3.9-13.1 1.1-19.3 -1.1-2.5-2.3-5.2-3-8.3 -2.9-12-5.6-14.4-9.1-14.4 -0.2 0-0.4 0-0.6 0 -0.4 0-0.8 1.2-1.3 2.8C300.6 184.4 296.5 197.5 275.4 210.9z"/><path d="M306.1 180.8c-7.2 19.3-19.2 25.3-19.2 25.3 -4.2 7.8-8 18-2.6 18.7 5.4 0.7 15.3-1.4 18.6-5 5-5.4 5.3-25.5 9.4-34.2 -1.1-3.5-2.2-5.9-3.4-7.4C307.8 178.3 306.7 179.1 306.1 180.8z" fill="#591507"/><path d="M298.3 195.9c-4.3 4.5-11.4 10.2-11.4 10.2 -4.2 7.8-8 18-2.6 18.7 3.2 0.4 7.9-0.2 12-1.4C293.7 215.8 291.5 203.1 298.3 195.9z" fill="#7C250E"/><path d="M284.3 224.8c5.4 0.7 15.3-1.4 18.6-5 2.5-2.7 3.8-9.1 5.1-16 -4.4-2.9-11.3 2.1-13.1 7 -4.9-4.1-12 3.7-12.7 12.7C282.6 224.2 283.3 224.7 284.3 224.8z" fill="#E86262"/><path d="M291.6 224.4c14.6-3.8 8.1-10.4 15-20.9 -4.4-1.9-10.4 3.8-11.7 7.3 -3.9-3.3-8.2 0.5-10.2 5.3C281.3 224.5 285.9 225.3 291.6 224.4z" fill="#FC8383"/><path d="M290.4 219.4c-0.3 1.4-1.1 2.5-1.9 2.3 -0.7-0.2-1.1-1.4-0.8-2.9 0.3-1.4 1.1-2.5 1.9-2.3C290.4 216.7 290.7 218 290.4 219.4z" fill="#F4C9C9"/><path d="M286.6 225.3L286.6 225.3c-0.8 0-1.6 0-2.3-0.1 -1-0.1-1.8-0.6-2.3-1.4l0-0.1 0-0.1c0.6-7.4 5.4-14.1 10-14.1 1 0 2 0.3 2.8 1 1.6-3.7 6-7.7 10.3-7.7 1.2 0 2.2 0.3 3.1 0.9l0.2 0.1 0 0.2c-1.2 6.9-2.5 13.3-5.1 16.1C300.1 223.2 292.2 225.3 286.6 225.3zM282.5 223.5c0.4 0.6 1 1 1.9 1.1 0.7 0.1 1.4 0.1 2.3 0.1 5.5 0 13.3-2 16.1-5.1 2.5-2.7 3.7-8.9 5-15.6 -0.8-0.5-1.7-0.7-2.6-0.7 -4 0-8.5 4-9.9 7.6l-0.1 0.4 -0.3-0.3c-0.8-0.7-1.8-1.1-2.8-1.1C287.6 210 283.1 216.5 282.5 223.5z" class="w"/><path d="M296.8 207.2l0.4 0.4c-2.8 2.5-2.6 9.5-2.6 9.5C294.6 217.1 293.1 210.9 296.8 207.2z" class="w"/><path d="M286.6 225.3L286.6 225.3c-0.8 0-1.6 0-2.3-0.1 -1.1-0.2-2-0.7-2.5-1.7 -2.1-4.1 3.1-14.4 4.8-17.5l0-0.1 0.1 0c0.1-0.1 12-6.2 19.1-25.1 0.6-1.7 1.8-2.7 3.1-2.8l0.2 0 0.1 0.1c1.3 1.6 2.4 4.1 3.4 7.5l0 0.1 0 0.1c-1.8 3.8-2.9 10-4 16 -1.4 7.8-2.7 15.2-5.5 18.3C300.1 223.2 292.2 225.3 286.6 225.3zM287.1 206.3c-3.3 6.2-6.3 13.8-4.8 16.9 0.4 0.8 1.1 1.2 2 1.3 0.7 0.1 1.4 0.1 2.3 0.1 5.5 0 13.3-2 16.1-5.1 2.7-3 4.1-10.6 5.4-18 1-6 2.1-12.1 4-16 -1-3.2-2.1-5.6-3.2-7.1 -1.1 0.2-2 1-2.5 2.4C299.5 199.2 288.1 205.7 287.1 206.3z"/><path d="M250.7 181.4c-2.8-5.2-9.5-6.5-10.4 2.3 -0.8 7.6 7.3 13.9 9 14.5C251 198.9 250.7 181.4 250.7 181.4z" style="fill:#423F3F;stroke-width:2;stroke:#000"/><path d="M243 180.5c2.4-2.9 5.2-0.5 7.8 1.7 0-0.5 0-0.8 0-0.8 -2.8-5.2-9.5-6.5-10.4 2.3 -0.2 1.9 0.2 3.8 0.9 5.5C240.8 186 241.1 182.9 243 180.5z" class="v"/><path d="M249.4 198.5L249.4 198.5c-0.1 0-0.1 0-0.2 0 -2.1-0.8-9.9-7.4-9.2-14.8 0.6-6 3.7-6.6 5-6.6 2.2 0 4.6 1.7 5.9 4.2l0 0.1 0 0.1c0 1.6 0.2 15.5-1.2 17C249.6 198.5 249.5 198.5 249.4 198.5zM245 177.6c-2.4 0-4.1 2.2-4.5 6.1 -0.8 7.5 7.3 13.6 8.8 14.2 0.8-0.5 1.2-8.7 1.1-16.5C249.1 179.1 247 177.6 245 177.6z"/><path d="M246.8 204.4c-5.7-0.5-9.8 7.9-0.8 11.9 9 3.9 29.3 5.9 45-8.3 15.8-14.2 21.3-27.2 17.6-32.2 -3.5-4.8-8.3 0-22.4-9.1 -11-7.1-30.5-1.5-36.1 10C244.5 188.3 246.8 204.4 246.8 204.4z" class="k"/><path d="M286.3 166.6c-11-7.1-30.5-1.5-36.1 10 -3.8 7.8-4 17.8-3.7 23.4 0.2 5.7 22.4 5.6 31.4 1.9 -7.3 5.6-24.1 7.1-31.1 2.3 0 0.1 0 0.2 0 0.2 -7.5 0.4-2.6 4.9 0.2 5.9 11.9 4.4 24.7 1.9 34.4-3.4 11.7-6.4 32.8-24.9 26.2-32.4C304.1 171.7 298.9 174.8 286.3 166.6z" class="i"/><path d="M279.9 166.3c7.9 2.2 13.8 7.8 27.1 7.8 -1.4-0.9-10.8-0.7-20.7-7.5 -11-7.1-30.5-1.5-36.1 10 -2.2 4.6-4.2 14.4-3.8 21.5 0.9-7.7 3.5-17.2 4.7-20C254.1 171 266.6 162.6 279.9 166.3z" class="v"/><path d="M261.5 219.4c-5.7 0-11.4-1.1-15.6-2.9 -4-1.7-6-4.7-5.3-7.8 0.6-2.7 3.1-4.7 5.9-4.6 -0.3-2.4-1.7-17 3.4-27.5 3.8-7.7 14.1-13.4 24.6-13.4 4.6 0 8.7 1.1 12 3.2 7.8 5.1 12.7 5.8 16.2 6.3 2.7 0.4 4.6 0.7 6.2 2.9 3.7 5-1.2 17.8-17.6 32.6C280.9 217.5 269.4 219.4 261.5 219.4zM246.3 204.7c-2.5 0-4.6 1.8-5.1 4.2 -0.6 2.8 1.3 5.5 5 7.1 4.1 1.8 9.7 2.8 15.4 2.8 7.8 0 19.2-1.9 29.4-11.1 16.2-14.6 21.1-27.1 17.6-31.9 -1.5-2-3.1-2.2-5.8-2.6 -3.4-0.5-8.5-1.2-16.5-6.3 -3.2-2-7.2-3.1-11.6-3.1 -10.3 0-20.4 5.5-24.1 13 -5.5 11.4-3.3 27.4-3.3 27.6l0.1 0.4 -0.4 0C246.6 204.7 246.4 204.7 246.3 204.7z"/><path d="M258.8 207.3c-5.1 0-9.7-0.9-12.2-2.7l0.3-0.5c4.6 3.4 17.7 3.4 26.9 0.1C273.8 204.2 266.9 207.7 258.8 207.3z"/><path d="M269.3 180c-3.8 6.4-4.2 15.6 2.3 14.6l8.1-19C278.3 171.7 272.9 173.9 269.3 180z" fill="#423F3F"/><path d="M269.3 180c-3.3 5.7-4.1 13.5 0.3 14.6 -4.9-3.7 0.2-16.1 6-19.3 0.6-0.3 2-1 3.3-0.9C276.9 172.4 272.4 174.8 269.3 180z" class="v"/><path d="M267.3 193.3c-1.9-2.9-0.7-9.2 1.8-13.4 2.4-4 5.8-6.9 8.3-6.5 1.8 0.3 2.1 2.4 2.1 2.4 -0.4-1.1-1.1-1.7-2.1-1.8 -2.3-0.2-5.5 2.3-7.8 6.2 -2.7 4.6-3.5 10.3-1.8 12.8 0.8 1.2 2.1 1.6 3.8 1.4C271.6 194.4 268.8 195.5 267.3 193.3z"/><path d="M278.1 196.7c-1.9-1.6-3-10.3 0-12.5 3-2.2 5 1.2 3.5 3.5C278 193.4 279.2 197.5 278.1 196.7z" style="fill:#211F1F;stroke-width:2;stroke:#000"/><path d="M279.4 183.6c-0.4 0.1-0.8 0.3-1.2 0.6 -3 2.2-1.9 10.9 0 12.5 0.5 0.4 0.5-0.4 0.8-2.1C277.8 194.7 276 186.1 279.4 183.6z" style="fill:#302E2E;stroke-width:2;stroke:#000"/><path d="M278.4 197.1c-0.2 0-0.3-0.1-0.4-0.2 -1.2-1-2-4.2-2-7.5 0-1.5 0.4-4.3 2-5.4 0.7-0.5 1.4-0.8 2-0.8 0.9 0 1.6 0.5 2.1 1.3 0.6 1 0.5 2.4-0.2 3.4 -2.2 3.4-2.6 6.2-2.8 7.7C278.9 196.6 278.8 197.1 278.4 197.1zM280 183.8c-0.5 0-1.1 0.2-1.7 0.6 -1 0.8-1.7 2.6-1.7 5 -0.1 3 0.7 6.2 1.7 7 0.1-0.2 0.1-0.5 0.2-0.9 0.2-1.6 0.6-4.5 2.9-8 0.6-0.9 0.6-2 0.2-2.8C281.2 184.2 280.6 183.8 280 183.8z"/><path d="M315.6 220.9l-0.6-0.2c0.7-2.4-0.8-9-0.8-9C314.2 211.7 316.3 218.3 315.6 220.9z"/><path d="M375.1 364.5c-6 1.9-18.6 9.9-13.8 13.4 3.7 2.6 14.7 2.8 17.9 2.2 3.2-0.6 11.6-1.9 14-4.3 1.8-1.8-2.6-10.1-7.8-11.3C380.1 363.3 376.2 364.2 375.1 364.5z" class="e"/><path d="M382.4 371.6c1.3-2.1 1-4.9 0-7.5 -3.7-0.4-6.4 0.2-7.3 0.5 -5.2 1.7-15.3 7.9-14.9 11.8C360.6 379.6 378.4 377.9 382.4 371.6z" class="f"/><path d="M362.1 374.6c0.7-1.7 5-5.5 9.1-6.5 -2.5 1.2-6 3.3-7.7 6.5C362.8 375.7 361.8 375.3 362.1 374.6z" class="l"/><path d="M374.8 380.7L374.8 380.7c-4.9 0-11-0.7-13.6-2.6 -0.9-0.7-1.3-1.5-1.1-2.6 0.7-4.2 10.3-9.8 15.1-11.4 0.3-0.1 2.1-0.6 5-0.6 1.8 0 3.6 0.2 5.4 0.6 4 0.9 7.3 5.7 8.2 8.8 0.4 1.4 0.3 2.4-0.2 3 -2.2 2.2-9.4 3.5-13.2 4.2l-0.9 0.2C378.2 380.6 376.6 380.7 374.8 380.7zM380 364.2c-2.7 0-4.5 0.5-4.8 0.6 -4.7 1.5-14.1 7.1-14.7 10.9 -0.1 0.8 0.2 1.5 0.9 2 2.5 1.8 8.7 2.4 13.3 2.4l0 0c1.8 0 3.4-0.1 4.3-0.3l0.9-0.2c3.5-0.6 10.8-2 12.9-4.1 0.4-0.4 0.4-1.3 0.1-2.4 -0.8-2.9-4.1-7.6-7.8-8.4C383.5 364.4 381.7 364.2 380 364.2z" class="g"/><path d="M390.3 348.8c-0.2-4.1-3.8-14.3-2.8-20.7 1-6.1-3.3-9.3-2.3-16.8 0.8-6 1.8-15.8-1.7-22.3l-34-36.9c-0.4 0.9-1 1.6-1.3 2.5 -10.2 27.6 15.3 50 18.6 57 3.4 7.2-1.2 11.6 5.7 17.5 3.3 2.8 1.8 9.6 5 20.6 0.6 1.9-2.5 4.8-0.7 11 1 3.4-5.7 2.7-5.5 5.6 0.2 2.5 16 4.9 17.7 3.6 2.1-1.6-1.5-2.8-1.6-4.1 -0.1-1 0.4-3.8 2.3-4.4 1.9-0.6 3.3-1.5 3.3-4C393.1 354.5 390.5 353.9 390.3 348.8z" class="a"/><path d="M383.4 358.3c0.8-2.1 4.1-1.8 4.5-3.2 -1.1-6.9-2.3-13.1-4-19.4 -1.7-7.5 2.6-10.5-2.6-18 -2.3-3-0.8-11.4-1.7-20.6 -0.7-6.9-8.4-17.7-10.2-23.3l-7.8-17 -12.1-4.8c-0.4 1-1.1 1.8-1.4 2.7 -10.1 27.6 15.3 49.9 18.7 56.8 3.4 7.2-1.2 11.6 5.7 17.5 3.3 2.8 1.8 9.6 5 20.6 0.6 1.9-2.5 4.8-0.7 11 0.7 2.3-2.1 2.7-3.9 3.6 1 0.6 2.2 1 3.6 1C384.2 365.3 382.8 360.1 383.4 358.3z" class="h"/><path d="M386.7 370.6c-3.8 0-10.6-1.1-13.8-2.6 -1.2-0.5-1.8-1.1-1.8-1.7 -0.1-1.6 1.5-2.2 3-2.8 1.9-0.8 3-1.3 2.6-2.8 -1.2-4.1-0.3-6.7 0.3-8.7 0.3-1 0.6-1.7 0.4-2.3 -1.4-4.9-1.9-8.9-2.3-12.2 -0.5-4.1-0.8-6.8-2.6-8.3 -4.2-3.6-4.2-6.7-4.3-10 -0.1-2.3-0.1-4.7-1.5-7.6 -0.7-1.4-2.3-3.4-4.3-6 -6-7.7-15.7-20.1-16.7-35.2 -0.5-7.7 1.4-14.5 4-18.5 -10.4 23 4.9 42.7 13.2 53.3 2 2.6 3.6 4.7 4.3 6.1 1.4 3 1.5 5.6 1.5 7.8 0.1 3.3 0.1 6.2 4.1 9.6 1.9 1.6 2.3 4.6 2.8 8.6 0.4 3.2 0.9 7.2 2.3 12.1 0.2 0.8-0.1 1.6-0.4 2.7 -0.6 1.9-1.4 4.4-0.3 8.4 0.6 2.1-1.3 2.8-2.9 3.5 -1.4 0.5-2.7 1.1-2.6 2.2 0 0.2 0.2 0.6 1.5 1.2 4.2 1.9 14.6 3.1 15.8 2.2 0.4-0.3 0.5-0.5 0.6-0.8 0-0.5-0.5-1-1.1-1.5 -0.6-0.5-1.1-1-1.2-1.6 -0.1-1.1 0.5-4 2.5-4.7 1.9-0.7 3.1-1.5 3.1-3.7 0-1.1-0.4-1.9-1-2.9 -0.7-1.2-1.6-2.7-1.8-5.7 -0.1-1.4-0.6-3.6-1.1-6.1 -1-4.6-2.3-10.4-1.7-14.6 0.5-2.9-0.3-5.1-1.1-7.5 -0.9-2.6-1.8-5.3-1.2-9.3 0.9-6.5 1.7-15.8-1.7-22.2l-0.2-0.6 0.7 0.4c3.4 6.5 2.6 16 1.7 22.5 -0.5 3.8 0.4 6.5 1.2 9 0.8 2.4 1.6 4.7 1.1 7.7 -0.7 4.1 0.6 9.8 1.6 14.4 0.6 2.5 1.1 4.7 1.1 6.2 0.1 2.8 1 4.2 1.7 5.4 0.6 1 1.1 1.8 1.1 3.2 0 2.7-1.7 3.6-3.5 4.3 -1.7 0.6-2.2 3.2-2.1 4.1 0 0.4 0.5 0.8 1 1.3 0.6 0.6 1.3 1.2 1.2 1.9 0 0.4-0.3 0.8-0.8 1.2C388.9 370.4 388 370.6 386.7 370.6z" class="b"/><path d="M374.7 333.6c0.2 1.1 0.4 2.4 0.6 3.9 0.1 0.5 0.1 1 0.2 1.5 2.3-2.9 4.6-5 5.7-6.8 1.9 1.6 3.7 2.6 7 5.7 -0.4-2-0.7-4.5-0.8-6.4 -3.3-2.9-5.4-3.2-7.3-5C379.1 328.7 377 330.4 374.7 333.6z" class="c"/><path d="M383.6 328.8c-1.3-0.8-2.4-1.3-3.5-2.3 -1 2.2-3 3.9-5.3 7.1 0.2 1.1 0.4 2.4 0.6 3.9 0.1 0.5 0.1 1 0.2 1.5 2.3-2.9 4.6-5 5.7-6.8 0.8 0.7 1.7 1.3 2.5 1.9C383.4 332.7 383.4 330.5 383.6 328.8z" class="i"/><path d="M375.3 339.7l-0.1-0.7c-0.1-0.5-0.1-1-0.2-1.5 -0.2-1.4-0.3-2.8-0.6-3.9l0-0.1 0.1-0.1c1-1.3 1.9-2.4 2.7-3.4 1.1-1.4 2.1-2.4 2.6-3.7l0.2-0.4 0.3 0.3c0.9 0.8 1.8 1.3 2.8 1.9 1.3 0.7 2.7 1.5 4.5 3.1l0.1 0.1 0 0.1c0.1 1.8 0.4 4.3 0.8 6.3l0.2 0.8 -0.6-0.6c-2.1-1.9-3.5-3-4.8-4 -0.7-0.5-1.3-1-1.9-1.5 -0.6 1-1.5 2-2.6 3.1 -0.9 1-2 2.2-3 3.5L375.3 339.7zM375 333.7c0.2 1.1 0.4 2.4 0.5 3.8 0 0.3 0.1 0.5 0.1 0.8 0.9-1.1 1.8-2.1 2.6-3 1.1-1.2 2.1-2.3 2.7-3.3l0.2-0.3 0.2 0.2c0.7 0.6 1.4 1.1 2.2 1.7 1.2 0.9 2.5 1.9 4.3 3.5 -0.3-1.9-0.6-3.9-0.6-5.5 -1.7-1.5-3.1-2.3-4.3-3 -1-0.5-1.8-1-2.7-1.8 -0.6 1.2-1.5 2.3-2.5 3.5C376.8 331.3 376 332.4 375 333.7z" class="d"/><path d="M368.1 315.5c0.2 1.3 0.2 2.5 0.3 3.7 0 1 0 1.9 0.2 2.8 3-4 6.4-6.5 7.9-8.9 2.6 2.1 5.2 3 10.1 7.6 0-0.1-0.2-0.7-0.3-0.8 -0.7-2.1-1.2-4.1-1.2-6.8 -4.4-4-7.4-4.1-9.9-6.3C373.8 309.4 371.1 311.4 368.1 315.5z" class="c"/><path d="M375.1 306.8c-1.3 2.6-4 4.6-7 8.7 0.2 1.3 0.2 2.5 0.3 3.7 0 1 0 1.9 0.2 2.8 3-4 6.4-6.5 7.9-8.9 1.6 1.3 2.1 1.3 4.3 2.9 -0.8-1.1-0.8-4.6-0.6-6.4C378.1 308.6 376.6 308.1 375.1 306.8z" class="i"/><path d="M368.4 322.8l-0.1-0.7c-0.1-1-0.1-2-0.2-2.9 0-1.2-0.1-2.4-0.3-3.7l0-0.1 0.1-0.1c1.4-1.8 2.6-3.3 3.8-4.5 1.4-1.5 2.5-2.8 3.2-4.2l0.2-0.3 0.3 0.2c1.1 0.9 2.2 1.5 3.5 2.2 1.8 0.9 3.9 1.9 6.4 4.2l0.1 0.1v0.1c0 2.6 0.5 4.6 1.2 6.7l0.3 0.8 -0.4 0.3c-3.2-3-5.4-4.4-7.3-5.6 -0.9-0.6-1.7-1.1-2.5-1.7 -0.8 1.1-1.9 2.2-3.2 3.6 -1.4 1.5-3.1 3.1-4.6 5.1L368.4 322.8zM368.4 315.6c0.2 1.3 0.2 2.5 0.3 3.7 0 0.7 0 1.4 0.1 2.1 1.4-1.8 2.9-3.3 4.2-4.6 1.4-1.4 2.5-2.6 3.3-3.7l0.2-0.3 0.2 0.2c0.9 0.7 1.8 1.3 2.7 1.9 1.8 1.1 3.8 2.4 6.6 5 -0.6-1.8-1.1-3.9-1.2-6.6 -2.5-2.2-4.4-3.2-6.2-4 -1.2-0.6-2.3-1.1-3.4-2 -0.7 1.4-1.9 2.6-3.1 4C371 312.4 369.7 313.8 368.4 315.6z" class="d"/><path d="M362.6 305.5c0.1 0.1 0.1 0.2 0.2 0.2 1.4 1.8 2.6 3.4 3.4 4.6 2-5.3 4.1-11.5 5.1-14 3.7 1.9 8.1 2.9 14.5 10.6 0.2-2.5 0.3-5.4 0.1-8.1 -6.9-5.3-13.4-7.3-16.8-9.3C368.3 292.7 365 299.2 362.6 305.5z" class="c"/><path d="M379 294.3c-4.1-2.2-7.6-3.5-9.9-4.9 -0.9 3.2-4.1 9.7-6.5 16.1 0.1 0.1 0.1 0.2 0.2 0.2 1.4 1.8 2.6 3.4 3.4 4.6 2-5.3 4.1-11.5 5.1-14 2.3 1.2 5.5 2.4 8.7 4.7C379.7 299.1 379.7 295.9 379 294.3z" class="i"/><path d="M366.3 310.9l-0.3-0.4c-0.8-1.2-2.1-2.9-3.4-4.6l-0.3-0.3 0.1-0.1c1.1-2.8 2.3-5.7 3.4-8.3 1.4-3.2 2.6-6 3.1-7.8l0.1-0.3 0.3 0.2c1.1 0.6 2.4 1.3 4 2 3.4 1.6 8 3.7 12.8 7.4l0.1 0.1 0 0.1c0.1 2.8 0.1 5.7-0.1 8.1l-0.1 0.7 -0.4-0.5c-5.2-6.3-9-8-12.4-9.5 -0.6-0.3-1.2-0.5-1.8-0.8 -0.5 1.3-1.2 3.3-2.1 5.7 -0.9 2.5-1.9 5.4-2.9 8.1L366.3 310.9zM362.9 305.5l0.1 0.1c1.2 1.5 2.3 3 3.1 4.2 0.9-2.5 1.9-5.2 2.7-7.6 0.9-2.5 1.7-4.7 2.2-6l0.1-0.3 0.3 0.1c0.6 0.3 1.3 0.6 2 0.9 3.3 1.5 7 3.2 12.1 9.2 0.2-2.2 0.2-4.8 0.1-7.2 -4.7-3.6-9.1-5.6-12.6-7.2 -1.4-0.7-2.7-1.3-3.7-1.8 -0.5 1.8-1.7 4.5-3 7.5C365.2 299.9 364 302.7 362.9 305.5z" class="d"/><path d="M359.1 258.5c-5.6 8.5-3.1 27.6-4 36.7 1.9 2.9 3.8 5.5 5.5 7.8 1.1-10.2-0.4-35 0.6-37.6 5.4 6.9 15.6 15.9 23.1 26 0.4-2.3-9.3-12.4-12.2-21.9C367.4 264.1 362.5 259.5 359.1 258.5z" class="c"/><path d="M359.1 258.5c-5.6 8.5-3.1 27.6-4 36.7 1.9 2.9 3.8 5.5 5.5 7.8 1.1-10.2-0.4-35 0.6-37.6 2.3 3 5.1 5.9 8.6 9.6 -1.5-3-2.6-7.3-3.2-11.2C363.7 260.9 361.3 259.1 359.1 258.5z" class="i"/><path d="M360.9 303.7l-0.4-0.5c-1.4-1.8-3.5-4.6-5.5-7.8l-0.1-0.1 0-0.1c0.3-2.7 0.2-6.2 0.2-10 -0.1-9.2-0.2-20.6 3.8-26.7l0.1-0.2 0.2 0.1c3.7 1 9 6.4 13.2 11l0.1 0.1c1.7 5.4 5.6 11.1 8.5 15.3 2.3 3.4 3.9 5.7 3.7 6.8l-0.1 0.6 -0.4-0.5c-4.2-5.8-9.5-11.2-14.1-16 -3.3-3.4-6.4-6.7-8.7-9.6 -0.3 2-0.3 8.2-0.2 14.6 0.1 8 0.2 17.1-0.3 22.4L360.9 303.7zM355.4 295.1c1.8 2.8 3.7 5.4 5 7.2 0.5-5.3 0.4-14 0.3-21.6 -0.1-7.8-0.2-14 0.3-15.4l0.2-0.4 0.3 0.4c2.3 3 5.6 6.4 9 10 4.3 4.5 9.2 9.6 13.3 14.9 -0.6-1.2-1.9-3.1-3.3-5.1 -2.9-4.2-6.8-9.9-8.5-15.4 -4.1-4.4-9.1-9.6-12.7-10.7 -3.8 6-3.7 17.2-3.6 26.3C355.7 288.9 355.7 292.5 355.4 295.1z" class="d"/><path d="M385 293.9c-0.3-2.1-1.5-4.6-3.7-7.2 -2.3-3.5-5.7-8.1-8.5-15.3 -4.4-11.1-5.9-19.1-5.4-27.5 0.1 8.9 2.1 18.1 5.9 27.3 2.9 7.1 6.1 11.8 8.5 15.2 2.6 2.4 3.5 5.2 3.8 7.4L385 293.9z" class="q"/></svg>