<svg xmlns="http://www.w3.org/2000/svg" viewBox="0 0 768 430"><style>.a{fill:#FFF;opacity:0.9;}.b{fill:#A55568;}</style><circle cx="440.5" cy="145.5" r="16.3" fill="#FFF"/><path d="M196.2 180.4c-11.9 0-21.5 9.6-21.5 21.5 0 1 0.1 2 0.2 2.9 0 0 0 0 0 0 -8.6 4.4-14.5 13.3-14.5 23.6 0 13.7 10.3 24.9 23.6 26.4l29.8-65.3C209.9 184 203.4 180.4 196.2 180.4z" class="a"/><path d="M593.5 227.4c0 0-2.6 46.6-2.1 62.8 0.4 16.2-19.7 22.4-28.9 25 -9.2 2.6-64.8 6.8-99.5 11 -53.8 6.5-155.1 34.2-174 39.9s-44.6-0.9-63.6-25.7l-34.1-45.3c-6.1-8.7-7.6-14.3-7.6-22.5l1.5-55.4c0 0 26.2 50.6 34.9 61 13.8 16.4 35.2 35 81.6 26.2 16.1-3 171.5-38 229.7-43.4C588.7 255.6 592.8 241.2 593.5 227.4z" class="b"/><path d="M595.3 226.2c0 0 0 0 0 0C595.3 226.1 595.3 226.2 595.3 226.2z" fill="#DB97B3"/><path d="M184.6 222c0 0 27.1 44.3 35.9 54.7 13.8 16.4 35.3 35 81.9 26.2 16.2-3 172.1-38 230.4-43.4 57.5-5.3 61.3-20.8 60.6-34 0 0.5 1.5 4.8 1.3 10.4 -2 12.1-11.5 23.7-61.9 28.3 -58.4 5.3-214.2 40.3-230.4 43.4 -46.6 8.8-69.3-9.6-83.1-26 -8.8-10.4-34.2-54.5-34.2-54.5L184.6 222z" fill="#DDA2B6"/><path d="M189.2 233.4c0 0 22.5 34.2 31.3 44.6 13.8 16.4 35.2 35 81.6 26.2 16.1-3 171.5-38 229.6-43.4 81.1-7.5 65.3-34.2 53-48.2 -8.4-9.6-36.8-39.4-36.8-39.4s-23.7-28.5-85.9-28.5c-62.7 0-144.2 11.4-196.3 27.2C221.3 185.3 171.5 199 189.2 233.4z" fill="#ECC1CF"/><path d="M589.1 219.2c4.3 13.3 4.9 30.6-62.1 33.7 -28.7 1.3-80.6 8.4-128 18.1 -49.2 10-93.4 23.8-101.6 25.3 -46.5 8.8-67.8-9.8-81.6-26.2 -7.3-8.7-24.2-33.9-29.6-42.1 0.6 1.7 1.3 3.5 2.3 5.4 0 0 22.5 34.2 31.3 44.6 13.8 16.4 35.2 35 81.6 26.2 16.1-3 171.5-38 229.7-43.4C600.7 254.4 598.8 233.8 589.1 219.2z" fill="#EAB2C2"/><path d="M596.2 233.5c0.3-6.5-3.1-13.8-10.5-22.2 -8.2-9.3-35.6-38.1-36.8-39.5 -1.5-1.8-25.7-29.1-87.4-29.1 -62.9 0-143.9 11.2-196.9 27.3l-4.2 1.3c-33.1 10-67.4 20.3-75.6 39.7 -0.8 2-1.4 4-1.6 6l-1.7 55.5c0 9.2 2 15.1 8 23.7l34.1 45.3c16.2 21.1 35.9 28.4 51.9 28.4 5.1 0 9.7-0.7 13.8-2 22-6.7 121.4-33.5 173.7-39.8 14.1-1.7 31.5-3.4 48.2-5 24.6-2.4 45.9-4.4 51.6-6 8.4-2.4 30.6-8.6 30.4-26.9 -0.2-15.9 3-56.6 3-56.6L596.2 233.5zM261.6 175l4.2-1.3c52.7-15.9 133.2-27.1 195.8-27.1 60.4 0 84.1 27.5 84.4 27.8l0.1 0.1c0.3 0.3 28.5 29.9 36.8 39.4 8.3 9.5 11.1 17.2 8.6 23.4 -3 7.6-15.9 17.4-60.4 21.5 -47 4.3-158.8 28.3-206.5 38.5 -11.8 2.5-20.2 4.3-23.4 4.9 -7.8 1.5-15.2 2.2-22.1 2.2 -30.2 0-46.1-14-57.7-27.8 -8.4-10-29.8-42.4-31.1-44.4 -3.8-7.4-4.4-13.9-1.9-19.9C196 194.8 229.4 184.8 261.6 175zM561.8 313.3c-5.3 1.5-27.4 3.6-50.8 5.9 -16.8 1.6-34.2 3.3-48.3 5 -52.5 6.3-152.2 33.3-174.3 40 -3.8 1.1-8 1.8-12.7 1.8 -15 0-33.5-6.9-48.8-26.8l-34.1-45.3c-6.2-8.8-7.3-14.1-7.3-21.3l1.1-39c0.1 0.3 0.2 0.5 0.4 0.8l0.1 0.2c0.9 1.4 22.7 34.4 31.4 44.8 11.4 13.6 28.7 29.2 60.7 29.2 0 0 0 0 0 0 7.1 0 14.8-0.8 22.8-2.3 3.2-0.6 11.7-2.4 23.5-4.9 47.7-10.2 159.2-34.1 206-38.4 32.5-3 52.4-9.2 60.6-18.9 -1 13.8-2.5 35.6-2.7 46.4C588.9 305.7 569.5 311.1 561.8 313.3z" class="b"/><circle cx="462.8" cy="93" r="15" class="a"/><path d="M325 239.8L325 239.8c-6.6 0-10.9-1.9-14.4-6.4 -2.8-3.6-27.5-35.6-27.8-35.9 -1.7-2.3-3.1-4.7-2.3-7.1 1.1-3.3 5.3-4.7 16.1-7.7 43.5-12.3 108.3-21.4 129.5-23.8 8.6-1 14.7-1.5 19.3-1.5 10.8 0 14.1 2.7 18.3 7.1 8.9 9.4 28.4 31.6 33.6 38.4 1.6 2 1.2 3.8 0.8 4.6 -1.8 4.1-10 5.7-24.4 7.1 -1.6 0.2-2.9 0.3-3.9 0.4 -25.6 3.4-82.2 14-112.6 19.8 -7.9 1.5-14.1 2.7-17.3 3.2C334 239.1 329.1 239.8 325 239.8zM445.5 161.3c-4.4 0-10.4 0.5-18.8 1.4 -21.2 2.5-85.7 11.5-128.9 23.7 -5.4 1.5-12.9 3.6-13.4 5.2 -0.1 0.3 0 1.1 1.7 3.4 0.2 0.3 25 32.3 27.7 35.9 2.7 3.5 5.9 4.9 11.3 4.9 3.8 0 8.5-0.7 14.4-1.8 3.1-0.6 9.4-1.7 17.2-3.2 30.4-5.7 87.1-16.4 112.8-19.8 1-0.1 2.4-0.3 4-0.4 4-0.4 9.4-0.9 13.9-1.9 6.8-1.4 7.3-2.9 7.3-2.9l0 0c0 0 0-0.2-0.3-0.6 -5.2-6.7-24.5-28.8-33.4-38.1C457.3 163.3 454.9 161.3 445.5 161.3z" fill="#F7DCE8"/><circle cx="628.7" cy="259.2" r="10" class="a"/><circle cx="170.9" cy="338.3" r="10" style="fill:#FFF;opacity:0.8"/><path d="M325.3 240.7C325.3 240.7 325.3 240.7 325.3 240.7c-7.1 0-11.8-2-15.5-6.8 -2.9-3.7-27.9-36.5-28.1-36.9 -1.3-2-2.7-4.3-1.8-6.5 1-2.8 5-4.9 14.7-7.6 44.9-12.7 110.7-22.2 133.8-24.6 7.6-0.8 13.1-1.2 17.4-1.2 11.4 0 14.1 2.8 18.5 7.5 9.9 10.4 29.9 32 35.3 38.9 1.3 1.7 1.2 3.2 0.8 4.1 -1.9 4.5-13.1 6.1-24.5 7.4 -1.1 0.1-2.1 0.2-2.8 0.3 -26.1 3.5-83.6 14.3-114.4 20.2 -8.7 1.7-15.6 3-19.1 3.6C333.3 240.2 328.9 240.7 325.3 240.7zM445.7 159.5c-4.2 0-9.6 0.4-17.1 1.2 -23 2.4-88.6 11.9-133.4 24.5 -8.4 2.4-12.4 4.2-13.1 6.1 -0.3 0.9 0.1 2.2 1.5 4.3 0.2 0.3 25.2 33.1 28.1 36.8 3.3 4.2 7.2 5.9 13.6 5.9 3.4 0 7.7-0.5 13.8-1.6 3.4-0.6 10.3-1.9 19-3.6 30.9-5.8 88.3-16.7 114.5-20.2 0.8-0.1 1.7-0.2 2.9-0.3 5.8-0.7 21.1-2.4 22.6-6 0.1-0.2 0.3-0.7-0.5-1.7 -5.3-6.9-25.4-28.3-35.2-38.7C458.2 161.7 456.1 159.5 445.7 159.5z" fill="#D394AE"/><path d="M391 323.5l0 0c0-9.8-8-17.8-17.8-17.8s-17.8 8-17.8 17.8c0 2.2 0.4 4.3 1.1 6.2h-1.1c-10.5 0-19 8.2-19.6 18.5 -1.4-0.7-3.1-1.1-4.8-1.1 -0.7 0-1.4 0.1-2.1 0.2l0 0 0 0 0 0c-0.9-7.3-7.1-12.9-14.6-12.9 -5.5 0-10.3 3-12.8 7.5l0.3 0.1c0 0-0.1 0-0.1 0 -3.3-1.8-7.1-2.8-11.2-2.8 -4.9 0-9.5 1.5-13.3 4.1l-0.1 0.2c-1.7-8.7-9.2-15.2-18.3-15.4 2.8-4.4 4.4-9.5 4.4-15.1 0-15.5-12.6-28.1-28.1-28.1 -15.5 0-28.1 12.6-28.1 28.1s12.6 28.1 28.1 28.1c1.4 0 2.8-0.1 4.2-0.3l1.6-1.1c-0.9 2.3-1.5 4.7-1.5 7.3l0.5 0.5c-1.6-0.3-3.2-0.5-4.9-0.5 -12.5 0-22.6 10.1-22.6 22.6s10.1 22.6 22.6 22.6 22.6-10.1 22.6-22.6c0-1.1-0.1-2.2-0.2-3.3 -0.1-0.5 1-0.3 1-0.3 3 0 5.8-0.7 8.4-1.9 0.6 12.6 11 22.5 23.7 22.5 12.9 0 23.4-10.2 23.8-23l0.7-0.1 -0.7 0.1c1.4 0 2.7-0.2 4-0.6l0.1 0 0.1 0c0.5-0.2 1.1-0.3 1.6-0.5l-0.4 0.1 1-0.4c1.6 4.1 5.6 7 10.3 7 4.5 0 8.4-2.7 10.1-6.5 3.6 3.8 8.6 6.2 14.3 6.2 10.8 0 19.6-8.8 19.6-19.6 0-2.7-0.5-5.3-1.5-7.6l0 0 0-0.4c1.6 0 3.2-0.2 4.7-0.7l0 0c1.8 4.9 6.5 8.5 12 8.5 7.1 0 12.8-5.7 12.8-12.8C402.9 329.5 397.7 323.9 391 323.5zM341.5 361.7c0 0 0 0 0 0l2-1.2L341.5 361.7z" class="a"/><path d="M594.8 185.9c0-12.3-10-22.4-22.4-22.4 -5.2 0-10 1.8-13.8 4.8 -3.5-3.1-7.6-5.5-12.2-6.9 0-0.3 0-0.8 0-1.5 0-12.3-10-22.4-22.4-22.4 -0.9 0-0.5-1.3-0.5-1.3 -2.4-11.9-12.9-20.8-25.5-20.8 -14.4 0-26 11.6-26 26 0 9.7 5.3 18.2 13.2 22.7l0 0c-7.4 4.9-12.3 13.4-12.3 23 0 15.2 12.3 27.6 27.6 27.6 3 0 6-0.5 8.7-1.4 6.1 8.4 16 13.8 27.1 13.8 3.7 0 7.2-0.6 10.5-1.7l0.5-0.2c1.5 8.3 8.7 14.6 17.5 14.6 9.8 0 17.8-7.9 17.8-17.8 0-0.4-2.4-6.9-5.4-14.3C587.2 205.5 594.8 196.6 594.8 185.9z" class="a"/><circle cx="170.9" cy="338.3" r="10" class="a"/><path d="M596.7 185.9c0-13.4-10.9-24.3-24.3-24.3 -5 0-9.7 1.5-13.8 4.3 -3-2.4-6.4-4.3-10.2-5.7 0 0 0-0.1 0-0.1 0-13-10.2-23.6-23-24.3 -2.7-12.8-14.2-22.1-27.4-22.1 -15.4 0-28 12.6-28 28 0 9.1 4.4 17.6 11.7 22.8 -6.6 5.4-10.9 13.7-10.9 22.9 0 16.3 13.3 29.6 29.6 29.6 2.8 0 5.4-0.4 8-1.1 6.7 8.5 16.9 13.5 27.9 13.5 3.3 0 6.5-0.4 9.6-1.3 2.5 8.1 10 14 18.9 14 10.9 0 19.7-8.9 19.7-19.7 0-5-1.9-9.6-5-13.1C589.6 206 596.7 196.6 596.7 185.9zM544.5 160.1c0 11.2-9.1 20.4-20.4 20.4s-20.4-9.1-20.4-20.4c0-11.2 9.1-20.4 20.4-20.4S544.5 148.8 544.5 160.1zM474 141.6c0-13.2 10.8-24 24-24 11.1 0 20.7 7.6 23.3 18.3 -11.4 1.3-20.4 10.4-21.5 21.8 -5.3 0.1-10.3 1.6-14.6 4.2C478.3 157.6 474 149.9 474 141.6zM474.9 187.3c0-13.9 11.1-25.2 24.9-25.6 0.8 12.7 11.4 22.7 24.3 22.7 0.6 0 1.3 0 1.9-0.1 0.1 1 0.2 2 0.2 2.9 0 14.1-11.5 25.6-25.6 25.6S474.9 201.4 474.9 187.3zM536.4 225.2c-9.2 0-17.9-4-23.9-10.9 10.4-4.6 17.6-15 17.6-27 0-1.2-0.1-2.4-0.2-3.6 9.3-2.3 16.5-9.9 18.2-19.4 12 4.8 19.9 16.3 19.9 29.4 0 3-0.4 6-1.3 8.9 -0.6-0.1-1.2-0.1-1.9-0.1 -10.9 0-19.7 8.9-19.7 19.7 0 0.6 0 1.2 0.1 1.8C542.3 224.8 539.4 225.2 536.4 225.2zM564.8 238c-8.7 0-15.8-7.1-15.8-15.8 0-8.7 7.1-15.8 15.8-15.8s15.8 7.1 15.8 15.8C580.6 230.9 573.5 238 564.8 238zM576.5 205.8l0.1 0.6c-1.8-1.3-3.8-2.4-6-3.1 0.9-3.1 1.3-6.4 1.3-9.7 0-9.7-3.8-18.6-10.3-25.1 3.2-2 6.9-3.1 10.8-3.1 11.2 0 20.4 9.1 20.4 20.4C592.8 195.5 585.9 203.9 576.5 205.8z" class="b"/><path d="M520.7 144.2c10.8 0 19.5 8.8 19.5 19.5 0 2.3-0.4 4.4-1.1 6.5 1.8-2.8 2.8-6.1 2.8-9.7 0-10-8.1-18.1-18.1-18.1 -3.6 0-6.9 1-9.7 2.8C516.3 144.6 518.4 144.2 520.7 144.2z" class="b"/><path d="M462.8 110c-9.3 0-16.9-7.6-16.9-16.9 0-9.3 7.6-16.9 16.9-16.9 9.3 0 16.9 7.6 16.9 16.9C479.7 102.4 472.1 110 462.8 110zM462.8 80.1c-7.2 0-13 5.8-13 13 0 7.2 5.8 13 13 13 7.2 0 13-5.8 13-13C475.8 85.9 470 80.1 462.8 80.1z" class="b"/><path d="M460.2 83.4c6.5 0 11.8 5.3 11.8 11.8 0 1.4-0.2 2.7-0.7 3.9 1.1-1.7 1.7-3.7 1.7-5.8 0-6-4.9-10.9-10.9-10.9 -2.1 0-4.1 0.6-5.8 1.7C457.5 83.6 458.8 83.4 460.2 83.4z" class="b"/><path d="M628.7 271.2L628.7 271.2c-3.9 0-7.6-1.9-9.9-5.2 -1.8-2.6-2.5-5.8-2-9 0.6-3.2 2.3-5.9 5-7.7 2-1.4 4.4-2.2 6.9-2.2 3.9 0 7.6 1.9 9.9 5.2 3.8 5.4 2.4 13-3 16.7C633.5 270.5 631.2 271.2 628.7 271.2zM628.7 251.1c-1.6 0-3.2 0.5-4.6 1.4 -1.8 1.2-3 3.1-3.3 5.2 -0.4 2.1 0.1 4.3 1.3 6 1.5 2.2 4 3.5 6.6 3.5l0 0c1.6 0 3.2-0.5 4.6-1.4 3.7-2.5 4.6-7.6 2-11.2C633.8 252.4 631.3 251.1 628.7 251.1z" class="b"/><path d="M632.9 254.7c2.2 3.1 1.4 7.4-1.7 9.6 -0.6 0.5-1.4 0.8-2.1 1 1.2 0 2.3-0.4 3.3-1.1 2.9-2 3.6-5.9 1.6-8.8 -0.7-1-1.7-1.8-2.7-2.2C631.9 253.5 632.4 254.1 632.9 254.7z" class="b"/><path d="M170.4 350.4C170.4 350.4 170.4 350.4 170.4 350.4c-4.2 0-8-2.1-10.2-5.6 -3.5-5.6-1.9-13 3.7-16.6 1.9-1.2 4.2-1.9 6.4-1.9 4.2 0 8 2.1 10.2 5.6 1.7 2.7 2.3 5.9 1.6 9.1 -0.7 3.1-2.6 5.8-5.3 7.5C174.9 349.7 172.7 350.4 170.4 350.4zM170.4 330.3c-1.5 0-3 0.4-4.3 1.3 -3.8 2.4-4.9 7.4-2.5 11.1 1.5 2.4 4 3.8 6.8 3.8 0 0 0 0 0 0 1.5 0 3-0.4 4.3-1.3 1.8-1.2 3.1-2.9 3.6-5 0.5-2.1 0.1-4.3-1.1-6.1C175.7 331.7 173.2 330.3 170.4 330.3z" class="b"/><path d="M167.3 334.1c2.6-1.7 6.1-0.9 7.8 1.8 0.4 0.6 0.6 1.1 0.7 1.8 0-1-0.3-1.9-0.8-2.8 -1.5-2.4-4.8-3.2-7.2-1.6 -0.9 0.6-1.5 1.3-1.9 2.2C166.3 334.9 166.8 334.5 167.3 334.1z" class="b"/><path d="M570.3 169.5c10.9 1 18.9 10.6 17.9 21.5 -0.2 2.3-0.8 4.4-1.7 6.4 2-2.7 3.4-5.9 3.7-9.5 0.9-10-6.5-18.9-16.5-19.8 -3.6-0.3-7 0.4-10 1.9C565.8 169.5 568 169.3 570.3 169.5z" class="b"/><path d="M230.7 291.8c14 0 25.3 11.3 25.3 25.3 0 2.9-0.5 5.7-1.4 8.4 2.3-3.6 3.6-7.9 3.6-12.5 0-12.9-10.5-23.4-23.4-23.4 -4.6 0-8.9 1.3-12.5 3.6C225 292.3 227.8 291.8 230.7 291.8z" class="b"/><path d="M231.1 353.9c11 0 20 8.9 20 20 0 2.3-0.4 4.5-1.1 6.6 1.8-2.9 2.9-6.2 2.9-9.9 0-10.2-8.2-18.4-18.4-18.4 -3.6 0-7 1.1-9.9 2.9C226.6 354.3 228.8 353.9 231.1 353.9z" class="b"/><path d="M255.7 334.4c8.5 0 15.5 6.9 15.5 15.5 0 1.8-0.3 3.5-0.9 5.1 1.4-2.2 2.2-4.8 2.2-7.6 0-7.9-6.4-14.3-14.3-14.3 -2.8 0-5.4 0.8-7.6 2.2C252.2 334.7 254 334.4 255.7 334.4z" class="b"/><path d="M360.6 323.5c1.7-7.9 9.4-12.9 17.3-11.2 1.6 0.4 3.2 1 4.5 1.8 -1.8-1.7-4-3-6.6-3.5 -7.3-1.5-14.4 3.1-16 10.3 -0.6 2.6-0.3 5.2 0.5 7.5C360.2 326.8 360.3 325.1 360.6 323.5z" class="b"/><path d="M309.9 341c4.4-2.6 10-1.1 12.5 3.3 0.5 0.9 0.9 1.9 1.1 2.9 0.1-1.6-0.3-3.1-1.2-4.6 -2.4-4-7.5-5.4-11.6-3 -1.4 0.8-2.5 2-3.2 3.4C308.2 342.2 309 341.5 309.9 341z" class="b"/><path d="M390.2 328.5c4.8 0.7 8.1 5.1 7.3 9.9 -0.1 1-0.5 1.9-0.9 2.8 1-1.1 1.6-2.5 1.9-4.1 0.7-4.4-2.4-8.5-6.8-9.2 -1.6-0.2-3.1 0-4.4 0.6C388.2 328.4 389.2 328.4 390.2 328.5z" class="b"/><path d="M324.9 358.2c0.8-3.9 4.7-6.5 8.7-5.6 0.8 0.2 1.6 0.5 2.3 0.9 -0.9-0.9-2-1.5-3.3-1.8 -3.6-0.8-7.2 1.5-8 5.2 -0.3 1.3-0.2 2.6 0.3 3.8C324.7 359.8 324.7 359 324.9 358.2z" class="b"/><path d="M370 351.1c-2 8.4-10.4 13.6-18.8 11.7 -1.8-0.4-3.4-1.1-4.8-2 1.9 1.9 4.3 3.3 7 3.9 7.8 1.8 15.5-3 17.4-10.8 0.6-2.8 0.4-5.5-0.4-8C370.5 347.5 370.4 349.3 370 351.1z" class="b"/><path d="M306.3 369.8c-5.8 9.2-18 11.9-27.1 6.1 -1.9-1.2-3.6-2.7-4.9-4.4 1.4 3 3.7 5.7 6.7 7.6 8.5 5.4 19.7 2.9 25-5.6 1.9-3 2.8-6.4 2.8-9.7C308.4 365.8 307.5 367.9 306.3 369.8z" class="b"/><path d="M479.5 142.3c1.6-12.1 12.7-20.6 24.8-19 2.5 0.3 4.9 1.1 7.1 2.2 -2.9-2.4-6.4-4-10.4-4.6 -11.2-1.5-21.4 6.4-22.9 17.5 -0.5 4 0.1 7.8 1.7 11.2C479.3 147.3 479.2 144.9 479.5 142.3z" class="b"/><path d="M172.7 240.9c-6.7-9.6-4.3-22.9 5.4-29.6 2-1.4 4.2-2.4 6.5-3 -3.6 0.1-7.2 1.3-10.4 3.5 -8.9 6.2-11.1 18.4-5 27.3 2.2 3.2 5.2 5.5 8.5 6.9C175.7 244.6 174.1 242.9 172.7 240.9z" class="b"/><path d="M509.4 205.9c-13.1 3.1-26.1-5-29.2-18.1 -0.6-2.7-0.8-5.5-0.5-8.1 -1.3 3.9-1.6 8.2-0.6 12.5 2.8 12.1 14.9 19.5 27 16.7 4.3-1 8-3.2 10.9-6.1C514.7 204.1 512.1 205.2 509.4 205.9z" class="b"/><path d="M562.8 209.6c7.8 0 14.2 6.3 14.2 14.2 0 1.6-0.3 3.2-0.8 4.7 1.3-2 2-4.4 2-7 0-7.2-5.9-13.1-13.1-13.1 -2.6 0-5 0.7-7 2C559.6 209.9 561.2 209.6 562.8 209.6z" class="b"/><path d="M431.7 139.1c5.1-4.7 13.1-4.4 17.8 0.7 1 1.1 1.8 2.3 2.3 3.5 -0.4-2.1-1.3-4.1-2.9-5.8 -4.4-4.7-11.7-5-16.4-0.7 -1.7 1.6-2.8 3.5-3.4 5.5C429.8 141.3 430.6 140.1 431.7 139.1z" class="b"/><path d="M182.6 195.7c4.4-8 14.4-10.9 22.3-6.6 1.7 0.9 3.1 2.1 4.3 3.4 -1.4-2.4-3.4-4.5-6-6 -7.4-4-16.6-1.3-20.6 6.1 -1.4 2.6-2 5.5-1.8 8.3C181.1 199.1 181.7 197.4 182.6 195.7z" class="b"/><path d="M421.9 147.4c-0.6-10.3 7.3-19.1 17.5-19.7 5-0.3 9.7 1.4 13.5 4.7 3.7 3.3 5.9 7.9 6.2 12.8l-4 0.2c-0.2-3.9-2-7.5-4.9-10.1 -2.9-2.6-6.7-3.9-10.6-3.7 -8.1 0.5-14.3 7.4-13.8 15.5L421.9 147.4z" class="b"/><path d="M314.4 365.9v-4c1.7 0 3.4-0.3 4.9-1l1.5 3.6C318.8 365.4 316.6 365.9 314.4 365.9z" class="b"/><path d="M392.9 321.9c-0.9-10.1-9.4-18.1-19.7-18.1 -10.9 0-19.8 8.9-19.8 19.8 0 1.5 0.2 2.9 0.5 4.3 -9.9 0.7-18 8.1-19.7 17.8 -1-0.2-2-0.4-3.1-0.4 -0.2 0-0.3 0-0.5 0 -1.8-7.4-8.4-12.7-16.2-12.7 -5.4 0-10.4 2.6-13.5 6.9 -3.2-1.4-6.6-2.1-10.3-2.1 -4.3 0-8.5 1.1-12.2 3.1 -2.5-7.2-8.7-12.6-16.3-13.9 2.1-4.1 3.2-8.7 3.2-13.4 0-16.6-13.5-30.1-30.1-30.1 -16.6 0-30.1 13.5-30.1 30.1 0 16.6 13.5 30.1 30.1 30.1 0.9 0 1.9-0.1 2.8-0.1 -0.1 0.7-0.3 1.5-0.3 2.2 -0.8-0.1-1.6-0.1-2.5-0.1 -13.5 0-24.6 11-24.6 24.6 0 13.5 11 24.6 24.6 24.6 13.5 0 24.6-11 24.6-24.6 0-0.5 0-1.1-0.1-1.6 1.9-0.1 3.8-0.5 5.5-1.1 2 12.3 12.6 21.7 25.4 21.7 14.2 0 25.8-11.6 25.8-25.8 0-9.1-4.8-17.1-11.9-21.7 2.4-3 6-4.8 10-4.8 5.8 0 10.8 4 12.3 9.5 -5.1 1.8-8.7 6.6-8.7 12.3 0 7.2 5.9 13.1 13.1 13.1 4.3 0 8.2-2.1 10.6-5.4 3.9 3.2 8.7 5 13.8 5 11.9 0 21.6-9.7 21.6-21.6 0-2.1-0.3-4.2-0.9-6.2 0.3 0 0.6-0.1 0.9-0.1 2.4 4.8 7.4 8.1 13.2 8.1 8.2 0 14.8-6.6 14.8-14.8C404.9 329.3 399.8 323.2 392.9 321.9zM239 339.1c-1.3 0.2-2.6 0.3-3.9 0.3 -14.4 0-26.1-11.7-26.1-26.1 0-14.4 11.7-26.2 26.2-26.2 14.4 0 26.2 11.7 26.2 26.2 0 4.6-1.2 9.1-3.5 13.1 -8.5 0.3-15.7 5.6-18.7 13.1L239 339.1zM235.1 390.5c-11.4 0-20.6-9.2-20.6-20.6 0-11.4 9.2-20.6 20.6-20.6s20.6 9.2 20.6 20.6C255.7 381.2 246.5 390.5 235.1 390.5zM241.5 346.1c0.6-8.9 8-15.9 17-15.9 9.4 0 17 7.6 17 17 0 9.2-7.4 16.7-16.5 17C257 355.5 250.2 348.5 241.5 346.1zM312.4 363.1c0 12-9.8 21.8-21.8 21.8 -11.2 0-20.5-8.5-21.7-19.4 6.3-3.6 10.6-10.4 10.6-18.2 0-0.9-0.1-1.9-0.2-2.8 3.4-2.1 7.3-3.2 11.3-3.2C302.6 341.3 312.4 351.1 312.4 363.1zM331 367.5c-5 0-9.1-4.1-9.1-9.1s4.1-9.1 9.1-9.1 9.1 4.1 9.1 9.1S336 367.5 331 367.5zM355.4 367.1c-4.4 0-8.7-1.7-11.9-4.7 0.4-1.3 0.7-2.6 0.7-4.1 0-4.7-2.5-8.8-6.2-11.1 1.1-8.6 8.4-15.3 17.3-15.4 3 6.5 9.3 11.1 16.7 11.6 0.7 1.9 1.1 4 1.1 6C373 359.2 365.1 367.1 355.4 367.1zM373.2 339.5c-8.7 0-15.8-7.1-15.8-15.8 0-8.7 7.1-15.8 15.8-15.8 8.1 0 14.8 6.1 15.7 13.9 -7.6 0.6-13.6 7-13.6 14.7 0 1 0.1 1.9 0.3 2.9C374.8 339.4 374 339.5 373.2 339.5zM390.1 347.3c-6 0-10.8-4.9-10.8-10.8 0-6 4.9-10.8 10.8-10.8 6 0 10.8 4.9 10.8 10.8C401 342.4 396.1 347.3 390.1 347.3z" class="b"/><path d="M196.2 178.4c-13 0-23.5 10.5-23.5 23.5 0 0.6 0 1.2 0.1 1.8 -8.6 4.9-14.3 14.2-14.3 24.7 0 14.6 10.9 26.8 25.4 28.4l0.4-3.9c-12.5-1.4-21.9-11.9-21.9-24.4 0-13.5 11-24.6 24.6-24.6 2 0 3.9 0.2 5.8 0.7l0.9-3.9c-2.2-0.5-4.5-0.8-6.7-0.8 -3.6 0-7.1 0.7-10.3 1.9 0-10.8 8.8-19.5 19.5-19.5 6.4 0 12.4 3.1 16 8.3l3.2-2.3C211 182.1 203.8 178.4 196.2 178.4z" class="b"/></svg>