<svg xmlns="http://www.w3.org/2000/svg" viewBox="0 0 768 430"><style>.a{fill:#F9B24B;}.b{fill:#FFD99A;}.c{fill:#FAAE00;}.d{fill:#ED0CC2;}.e{fill:#E64900;}.f{fill:#686767;}.g{fill:#C6C6C6;}</style><path d="M493.4 230.9c-8.5-2.9-17.1-5.8-25.3-9.5 -4.2-1.9-15.2-6-15.1-11.9 0.1-6.8 9.4-9.2 12.3-14 4.9-8.1-13.9-7.6-17.9-10.5 -9.3-6.7 14.2-30.9 18.3-35.8 2.2-2.6 6.9-6.3 4.4-10.1 -2.5-3.9-7.8-1-11.1-0.1 -9.3 2.7-18.8 5.6-28.5 6.5 -3.9 0.4-10.7 1-11.8-4 -1-4.8 7.1-21.7-2.4-20.4 -5.5 0.8-11.3 8.5-17.5 5.9 -5.4-2.3-4.9-14.1-4.9-18.6 -0.2-9 0.5-18.1 1.2-27.1 0.3-4.4-5.4-6.5-8.1-3 -3.1 4.1-6.2 8.2-9.4 12.3 -5.5 6.9-20.5 28.9-28.4 14.1 -1.8-3.3-2.3-10-5.9-11.7 -5.2-2.6-6.9 4.5-8.5 7.7 -2.5 4.9-6 10.6-11.9 6.7 -6.8-4.6-11.8-12.6-16.3-19.2 -2.7-4-5.3-8.1-7.9-12.2 -2.2-3.5-9.3-6.5-9.5 0.4 -0.3 9.2-0.5 18.5-1.6 27.6 -0.5 4.4-1.1 16.1-6.7 17.6 -7.2 2-12.1-8.7-18.4-7.7 -7.6 1.2-0.4 15.6-2.9 21.1 -4.5 9.9-35.3-5.4-41.4-7.9 -3.2-1.3-8.5-3.7-9.8 1.5 -0.9 3.6 3.7 8 5.5 10.7 5.3 7.8 11 15.9 14.4 24.8 1.5 4 3 9.1-1.8 11.2 -3.3 1.5-7.2 1.6-10.8 1.7 -3.8 0.1-11.5 3.2-5.9 7.9 3.1 2.6 11 8.6 9.8 13.7 -1.4 6.2-13.3 9.1-18.2 10.7 -4.5 1.5-9 2.8-13.5 4 -3.5 0.9-9.4 1.2-12.2 3.5 -8.6 6.9 14.6 12.4 18.1 13.7 9.9 3.8 32 10.8 18.7 23.2 -2.7 2.5-9 5.1-7.8 9.7 1.3 4.6 8.1 3.6 11.6 4.4 5 1.1 10.1 3.1 8.4 9.1 -2.1 7.5-7.9 14.4-12.6 20.4 -2.3 2.9-19.5 19.5-8.6 21 3.6 0.5 8.9-2.2 12.3-3.2 4.5-1.3 9.1-2.5 13.7-3.5 5.1-1.1 16.8-4.6 21.1-0.1 3.7 3.8 0 12.9-1.4 16.8 -1.4 3.9 3.1 7.5 6.6 5.3 3.8-2.4 8.1-5 12.7-5.5 12.3-1.5 7.9 31.1 7.5 37.5 -0.2 3.3-1.9 9.4 0.7 12 3.8 3.8 7.2-1 9.2-3.7 5.9-7.8 11.8-15.7 18.9-22.4 2.7-2.6 8.5-8.4 12.7-5.5 4.9 3.4 6.1 19.5 13.2 16.7 6-2.3 4.7-14.1 11.9-16 5.9-1.6 12.7 9 15.5 12.7 3 3.9 5.7 8 8.4 12.1 2.1 3.2 4.4 9.2 7.7 11.3 9.2 6 7.5-18.2 7.7-22 0.5-7.6 0.7-16.5 4.2-23.4 3-6.1 9-2.9 13.5 0 3 1.9 8.1 7.2 11.3 2.3 2.2-3.3-0.7-9.3-0.9-13.1 -0.3-5.7 1.5-9 7.5-8.8 8.2 0.3 16.5 3.6 24.1 6.5 4.2 1.6 8.4 3.3 12.5 5 3.9 1.6 11-0.5 7.2-6 -5.2-7.4-10.4-14.9-14.8-22.7 -2.2-3.9-8.7-13.8-5.2-18.5 4.1-5.4 12.9-1.7 18-3.9 8.8-3.7-6.8-14.2-8.4-18.8 -2.6-7.6 13.3-11.7 18-13.3 5.9-2 11.9-3.6 17.9-5.1 2.3-0.6 5.9-0.8 7.8-2.4C497.5 236.5 496.7 232 493.4 230.9 478.7 225.9 495.3 231.5 493.4 230.9z" class="a"/><path d="M486.4 230.7c-6.7-2.3-40.5-10.6-38.5-21.1 1.2-6.5 13.8-9.8 12.2-16 -1.8-6.7-15.1-1.9-19-8.1 -2.8-4.6 3.6-12.8 6-16.3 2.6-3.8 5.5-7.4 8.4-11 2.6-3.2 8.2-7.6 9.3-11.6 2.9-10-16.9-1.9-20.3-1 -7.7 2-17.4 5.3-25.4 3.5 -5.6-1.3-4.2-7.9-3.1-12.1 0.8-3.3 4.1-9.5-1.3-10.9 -4.1-1.1-9.6 4.3-13.7 5.4 -13.9 3.7-9.4-28.2-9-35.1 0.2-3.2 1.9-9.3-0.6-11.8 -3.7-3.7-6.9 1-8.9 3.7 -5.8 7.7-11.7 15.6-18.9 22.1 -3 2.7-8.2 7.5-12.1 3.7 -2.6-2.5-4-6.2-5.2-9.6 -1.2-3.3-6.3-10-9-3.2 -1.4 3.5-5 13.8-10.5 12.9 -7.1-1.1-13.2-11.8-16.9-17.1 -2.6-3.7-10.9-22.2-16.9-17.1 -2.8 2.4-1.7 8.8-1.8 12.1 -0.2 5.5-0.5 10.9-1.1 16.4 -0.5 4.7-0.9 15.3-6.1 17.8 -6.6 3.1-12.2-8.1-18.1-7.1 -7.2 1.2-0.6 14.8-2.7 19.9 -2.2 5.4-12.1 2.2-16 1.2 -8.7-2.4-17.1-5.8-25.5-9.2 -3.2-1.3-8.6-1.2-7.7 4 0.7 4.1 5.8 9.1 8.1 12.6 5.2 7.9 22 29.3 4.1 31.6 -3.6 0.5-10.3-1.2-12 3.1 -1.6 4.3 4.6 7.5 6.9 10.2 4 4.5 5.3 8.5-0.3 12.1 -7 4.5-15.7 6.7-23.7 8.9 -4.2 1.2-8.5 2.2-12.8 3.3 -6.3 1.5-2.3 7.6 1.5 8.9 6.2 2.1 39.9 10.9 36.5 21.2 -1.8 5.3-15.7 11.2-11.2 16.8 3.8 4.7 15.6 0.1 18.4 7 2.2 5.4-4.7 13.7-7.5 17.6 -2.7 3.8-5.6 7.4-8.6 11 -2.3 2.7-8.5 7.7-7.9 11.6 1.1 7.7 18.4-0.3 22.7-1.4 6.9-1.8 17.2-5.3 24.3-2.5 5.2 2 2.4 10.6 1.3 14.3 -1 3.2-2 9.3 3.7 8.5 4.6-0.7 8.4-5 13.3-5.8 12.6-2.1 8 31.2 7.5 37.6 -0.2 3.3-1.9 9 2.3 10.6 4.2 1.6 6.7-3.8 8.7-6.4 5.8-7.5 11.7-15.5 19-21.6 3.5-2.9 8-5.9 11.5-1.6 2.7 3.3 4.1 7.6 5.3 11.6 2.1 6.9 7.8 0.8 9.3-2.4 1.6-3.5 5.1-11.8 10.4-9.9 6.8 2.5 11.9 11.2 15.8 16.8 2.6 3.7 10.9 22.2 16.9 17.1 2.8-2.4 1.7-8.8 1.8-12.1 0.2-5.5 0.5-10.9 1.1-16.4 0.5-4.7 0.9-15.3 6.1-17.8 6.6-3.1 12.2 8.1 18.1 7.1 7.2-1.2 0.6-14.8 2.7-19.9 2.2-5.4 12.1-2.2 16-1.2 8.7 2.4 17.2 5.8 25.5 9.2 3.2 1.3 8.6 1.2 7.7-4 -0.6-3.6-4.9-7.7-6.8-10.6 -4.4-6.6-23.2-30.1-7.3-33.2 3.6-0.7 10.2 0.8 12.9-1.9 3.9-4-2-7.6-4.5-10.1 -3.7-3.8-7.8-8.7-2.5-12.9 6.3-4.9 15.1-7 22.6-9.1 4.3-1.2 8.7-2.3 13.1-3.4C488 238.5 492.5 232.8 486.4 230.7 472.3 226 488.2 231.3 486.4 230.7z" class="b"/><path d="M429.3 273.4c-2.8-5.4 2.9-12 7.8-13.5 3.7-1.1 5.6 1.6 8.4 3.1 10.3 5.6 22.2 12.2 34.1 13.3 5.4 0.5 8.6-2.9 12.6-6.1 5.8-4.6 11.6-9.4 17.3-14.1 3.5-2.9 7-5.8 10.5-8.7 1-0.8 9.5 3.3 11.1 3.8 -14.6 13.9-29.8 29.7-47.2 40.1 -9 5.4-21.3-1.3-29.7-5.1C445.7 282.4 437.4 278.1 429.3 273.4z" class="b"/><path d="M526.7 239.7c-4-1.5-12.3 2.7-10.1 7.7 1.6 3.6 4.9 11.4 8.6 12.9C538.1 265.7 534 242.6 526.7 239.7 523.9 238.7 529.5 240.9 526.7 239.7z" class="b"/><path d="M568.7 198.8c0.6 6.5-1.1 12-4.3 17.5 -2.3 3.9-3.2 7.3 0.1 11 2.2 2.5 6.7 3.7 7.4 7.1 0.3 1.7-0.3 5.7 1.2 7 2.1 1.9 1.5 5.6 1.2 8.1 -0.4 3 2.3 4.7 2.1 8.1 2.5-6.6-5.1-5.7 4-8.4 7.5-2.2 15.4-2.7 23.1-1.2 3.3 0.7 8.1 0.9 8.7 5 1.1 7.8-8 7.2-13 6.9 -16.2-1.1-30.9 7.1-47.4 6.1 -5.9-0.4-12-1.1-17.1-4.4 -6-3.8-6.2-8.7-7.8-15 6.1-5.9 14.4-4.9 22.1-2.8 -4.2-1.9-9.2-3.9-14-3.6 -3 0.2-6 1.3-8.6 2.9 -1.6 1-3.8-3.4-4.2-5 -3.4-14.2 13.6-19.3 23.1-23.2 12.9-5.4 1.2-16.2 5.3-25C555.3 179.6 568 192.1 568.7 198.8 570.4 216.1 567.2 183.9 568.7 198.8z" class="b"/><path d="M591.7 237.2c-5.6 0.6-11.1 2.3-16.3 4.5 -3.4 1.4-2.4-8.2-4.6-9.7 6.3 2.2 44.3-9.6 39.8 8.4C605.4 236.8 597.8 236.6 591.7 237.2 584 238.1 599.5 236.4 591.7 237.2z" class="b"/><path d="M591.7 237.2c6.1-0.6 13.7-0.5 18.9 3.2 3.2 2.2 4 10.8-1.3 9.1 -11.4-3.6-23.5-3.2-34.5 1.6 0.4-2.1-0.4-8.9 0.6-9.4C580.6 239.5 586.1 237.8 591.7 237.2 599.5 236.4 584 238.1 591.7 237.2z" class="b"/><path d="M573.6 241.1c2.3 2 1.7 6.3 1.3 9 -0.4 2.7 2.6 4.1 1.3 7.4 0.2-3-1.1-3.9-2.2-6.2 -0.8-1.7 0.5-5.1 0.3-7 -0.3-2-1.8-3-2.1-5 -0.3-2.1 0.2-5.8-1.7-7.4C574.2 233.1 571.4 239.1 573.6 241.1 574 241.4 571.8 239.4 573.6 241.1z" class="b"/><path d="M548.9 243.8c-7.4-2-16.3-3.3-22.1 2.9 -3.2-4.7 4.5-6.2 8.1-6.5C539.6 240 544.6 242 548.9 243.8z" class="b"/><path d="M548.9 243.8c-7.4-2-16.3-3.3-22.1 2.9 -3.2-4.7 4.5-6.2 8.1-6.5C539.6 240 544.6 242 548.9 243.8z" class="b"/><path d="M438.1 178.3c-36.8-72.6-138.4-81.9-191.9-22.7 -25 27.7-35.8 66.7-27.5 103.2 8.5 37.2 35.9 67.9 71.6 81 45.2 16.6 97.4 3.2 129.6-32.5C451.5 272.4 459.5 220.4 438.1 178.3 409.5 121.7 466.8 234.9 438.1 178.3z" class="b"/><radialGradient cx="600.6" cy="445.4" r="0.6" gradientTransform="matrix(0.9645 -0.2642 0.2642 0.9645 -293.8682 -46.1968)" gradientUnits="userSpaceOnUse"><stop offset="0.6573" stop-color="#F88200"/><stop offset="1" stop-color="#FB9A00"/></radialGradient><path d="M402.9 225.5c0.3-0.5 0.4-1 0.4-1.6C403.3 224.3 403.2 224.8 402.9 225.5z" fill="url(#SVGID_1_)"/><path d="M351.4 233.5c-3.1 3.9-8.3 5.9-13.1 5.2 -7.8-1-6.5-9.8 0.2-5.8 3.5 2.1 10.1-2.9 12.7-4.9C356.1 224.2 353.6 230.8 351.4 233.5 346.7 239.5 356.1 227.5 351.4 233.5z" class="c"/><path d="M366.1 297.4c12.8-3.5 32.9-10 37-24.8 3.3-12.2-9.9-22.8-11.6-34.7 -17.6 11.8-35.9 22.4-56.8 26.9 -12.6 2.7-24.4 1.8-37.1 1.8C309.7 288.9 341.8 304.2 366.1 297.4 403.6 287.1 332.8 306.6 366.1 297.4z" class="d"/><path d="M392.7 279.9c-7-5.9-20.1-1.4-24.2 6.3 2.4 1.3 4.2 3.2 5.4 5.6 1.4 2.8-0.7 4.3-1.5 2 -2.7-7.9-11.1-8.3-18-6.5 -2.8 0.7-20.9 10.5-11.9 13.5 12.2 4 28.3-0.6 39.4-5.5 4.7-2.1 9.4-4.8 12.9-8.6C397.3 283.7 395.6 282.4 392.7 279.9 389.5 277.2 395.8 282.5 392.7 279.9z" fill="#ED5E00"/><path d="M372.4 293.7c0.4 1.2 2.9 1.6 2.3-0.1 -1.1-3.2-3.2-5.9-6.2-7.5 -0.9 1.7-1.2 0.7-3.4 0.5C368.6 287.8 371.1 290.2 372.4 293.7 372.6 294.3 371.1 290.1 372.4 293.7z" fill="#ED4E00"/><path d="M406.4 261.9c-5-7.4-10.9-16.7-11.2-25.9 -7.6 2.6 10.4 27.3 10.2 34.3 -0.4 13.6-15.8 21.5-26.7 25.6 -18.8 7.2-36.3 6-53.6-4.7 -6.7-4.2-12.9-9.3-18.4-15.1 -1.5-1.6-9.4-13.3-11.2-11 -2.9 3.9 13.6 18.3 15.7 20.1 12 10.5 26.9 18.7 43 20.2 16.2 1.4 36.9-4.3 48.4-16.3C409.6 281.8 412.4 270.7 406.4 261.9 394.8 245 414.4 273.6 406.4 261.9z" class="a"/><path d="M404.7 261.1c-4.9-7-10.6-15.8-10.8-24.7 -7.6 2.4 9.7 25.7 9.8 32 0.2 13.6-15.9 21.5-26.5 25.5 -18.2 6.9-35.4 6.7-52.4-3.4 -6.6-4-12.7-9-18-14.7 -3.4-3.6-6.1-10.3-11.1-10.6 -3.6-0.2 11.5 16.7 12.9 17.9 12.1 10.6 27.2 18.7 43.4 20.1 16.4 1.4 37.5-4.3 49.1-16.5C407.6 279.8 410.5 269.3 404.7 261.1 393.3 245 412.5 272.2 404.7 261.1z" class="b"/><path d="M321.5 280.2c13.8 2.4 32.7-4.8 45.2-10 8.2-3.5 16.7-7.5 23.6-13.2 6.3-5.2 5.7-10.4 1.2-17.3 -1.7-2.7-10.1 4.7-12.5 6.1 -9.6 5.7-19.9 10.4-30.4 14.1 -13.6 4.8-28.7 8.6-43.2 7.6C310.7 273.3 313 278.8 321.5 280.2 327.9 281.3 311.1 278.4 321.5 280.2z" fill="#FFF"/><path d="M401 227c-6.2 4.7-11.4 10.3-18.1 14.6 -16.8 10.7-36.3 17.6-55.8 21.5 -8.7 1.7-19.4 3.8-28.2 1.2 -2-0.6 0.3-6.2-2.8-6.8 -3.3-0.6-2.4 4.4-2.6 6 -0.5 4.7-3.8 8-6.6 11.5 -0.5 0.6-1.6 4.4 0.4 3.3 2.4-1.3 4.1-4.5 5.8-6.6 2.4-2.9 3.4-3.7 6.8-3 11.3 2.4 23.2 0.3 34.2-2.5 19-4.8 37.9-12.4 54.2-23.6 4.2-2.9 8.2-6 11.8-9.6C401.3 231.8 405.6 223.5 401 227 399.3 228.3 402.7 225.7 401 227z" fill="#F7830C"/><path d="M351.9 291.8c0.3 1.2-3 2.2-3.4 0.9C348.3 291.5 351.6 290.6 351.9 291.8 352.1 292.3 351.8 291.3 351.9 291.8z" class="e"/><path d="M362.9 289.2c0.3 1.2-3 2.2-3.4 0.9C359.2 288.9 362.5 288 362.9 289.2 363 289.7 362.7 288.7 362.9 289.2z" class="e"/><path d="M357.9 294.4c0.3 1.2-3 2.2-3.4 0.9C354.2 294.1 357.5 293.1 357.9 294.4 358 294.9 357.7 293.9 357.9 294.4z" class="e"/><path d="M366.9 293.8c0.3 1.2-3 2.2-3.4 0.9C363.2 293.5 366.6 292.5 366.9 293.8 367 294.3 366.8 293.3 366.9 293.8z" class="e"/><path d="M376.1 284.8c0.3 1.2-3 2.2-3.4 0.9C372.4 284.5 375.7 283.6 376.1 284.8 376.2 285.3 375.9 284.3 376.1 284.8z" class="e"/><path d="M385.6 280c0.3 1.2-3 2.2-3.4 0.9C381.9 279.6 385.2 278.7 385.6 280 385.7 280.4 385.4 279.5 385.6 280z" class="e"/><path d="M382.7 284.1c0.3 1.2-3 2.2-3.4 0.9C379 283.8 382.4 282.9 382.7 284.1 382.8 284.6 382.6 283.7 382.7 284.1z" class="e"/><path d="M379.2 290.4c0.3 1.2-3 2.2-3.4 0.9C375.5 290.1 378.9 289.2 379.2 290.4 379.3 290.9 379.1 289.9 379.2 290.4z" class="e"/><path d="M388.8 285.9c0.3 1.2-3 2.2-3.4 0.9C385.1 285.6 388.4 284.7 388.8 285.9 388.9 286.4 388.6 285.4 388.8 285.9z" class="e"/><path d="M265.6 162.4c-2.7-9.3-14.4 2.1-17 5.3 -3.5 4.3-5.7 9.7-6.6 15.1 -0.3 1.5-1 4 0.9 4.9 1.2 0.5 3.1 0.4 3.7-1.1" class="c"/><path d="M258.1 155.1c-6.6 3.8-12.1 9.8-15.3 16.7 -0.9 2-4 8.3-2.6 10.5 2.1 3.4 5.1-1 5.9-2.6 3-6.2 7.3-11 13.3-14.4 2.9-1.6 6.7-2.6 7.2-6.5C267.2 153.7 261.6 153.1 258.1 155.1 255.8 156.4 262.5 152.6 258.1 155.1z" class="a"/><path d="M342.5 126.6c7.4-1.9 15.5-0.7 22.2 2.7 1.9 1 7.1 3.4 7.6 5.8 1 4.5-4.6 2.6-6.2 1.9 -7.4-3.1-14.3-2.9-21.7-0.2C337.9 139.3 335.2 128.5 342.5 126.6 344.9 126 338 127.8 342.5 126.6z" class="c"/><path d="M356.7 132.8c-17.7 10.7-26.9 24.4-28.5 44.8 -0.6 7.6-9.8 13.9-16.9 9.3 -7.8-5-13.4-10.7-22.9-12.8 -28.9-6.4-68.9 13-73 44.6 -2.5 19.3 8.1 41.4 20.9 55.3 7.9 8.6 18.3 13.5 30.1 11.7 13.8-2.2 29.4-7.5 40.7-15.7 15-10.8 16.8-30.3 16.6-47.4 -0.1-4.5-0.5-9.1-0.6-13.6 -0.1-4.8 8.1-9.6 12.1-6.4 9.2 7.1 16.1 16.5 25.9 23 15.6 10.3 30.7 9.5 47.2 1.5 9-4.4 19.7-9.5 26.6-17.1 18.5-20.2 2.7-60-14.6-75.8C402.7 118.1 376 121.2 356.7 132.8 337.1 144.7 374.7 122 356.7 132.8z" class="d"/><path d="M259.5 180.4c-22.8 6.6-42.1 26.1-37.9 51.3 3.7 22.3 21.7 54 48.4 48.2 11.7-2.5 24.1-6.9 33.9-13.8 12.3-8.7 15.7-23.6 16.1-38 0.5-15.5-3.6-30.9-15.7-41.3C291.7 175.9 274.7 176 259.5 180.4 241.1 185.7 285.6 172.9 259.5 180.4z" class="d"/><path d="M260.4 183.5c-21.9 6.3-39.9 25.3-35.2 49.3 4.1 20.8 20.8 49.3 45.6 43.5 11.2-2.6 23.3-6.7 32.4-13.8 10.8-8.4 13.6-22.8 13.8-35.8 0.2-14.3-3.8-28.3-15.1-37.8C290.1 179.2 274.4 179.4 260.4 183.5 243.2 188.5 284.8 176.4 260.4 183.5z" class="f"/><path d="M229.8 239.1c-0.5-9.7 3-19 9.5-26.3 1.3-3.7-0.2-10.3-0.3-14.3C227.5 209.4 224.8 224.5 229.8 239.1 229.3 228.3 223.5 220.6 229.8 239.1z" class="g"/><path d="M243.8 194.6c0.1 4.5 0.2 9 0.3 13.5 3.6-3.1 6-3.1 5.9-7.8 -0.1-3.2-0.1-6.4-0.2-9.6C247.7 192 245.7 193.3 243.8 194.6z" class="g"/><path d="M308.5 201.4c-7.1-11.6-18.6-18.2-32.3-17.8 -3.3 0.1-20.6 1.6-20.5 5.3 0.1 3.8 0.1 7.6 0.2 11.4 16.8-8.4 39.5-10.8 53.9 3.5C309.4 203.1 309 202.2 308.5 201.4 299.2 186.2 309 202.2 308.5 201.4z" class="g"/><path d="M358.3 137.2c19-11.4 45-13.4 61 4.1 15 16.5 27.8 53.2 6.6 69.9 -9.5 7.5-21.9 13.7-33.6 16.5 -15.3 3.6-28.8-3.9-40.1-13.7 -11.7-10.2-20.2-23.6-19.7-39.6C333.1 157.8 344.8 145.4 358.3 137.2 374.7 127.3 335.1 151.3 358.3 137.2z" class="d"/><path d="M360 139.9c17.4-10.5 41.3-12.6 56.4 3.1 14.7 15.4 27 50.7 6.5 66.4 -9.3 7.1-21.3 13.2-32.8 15.5 -13.6 2.6-25.9-4.6-35.8-13.3 -10.7-9.3-18.4-21.4-18.3-35.9C336 159.7 347 147.8 360 139.9 375.3 130.7 338.3 153 360 139.9z" class="f"/><path d="M341.4 190.3c-0.5-9.7 3-19 9.5-26.3 1.3-3.7-0.2-10.3-0.3-14.3C339.2 160.5 336.4 175.7 341.4 190.3 340.9 179.4 335.1 171.8 341.4 190.3z" class="g"/><path d="M355.4 145.8c0.1 4.5 0.2 9 0.3 13.5 3.6-3.1 6-3.1 5.9-7.8 -0.1-3.2-0.1-6.4-0.2-9.6C359.3 143.2 357.3 144.4 355.4 145.8z" class="g"/><path d="M420.2 152.6c-7.1-11.6-18.6-18.2-32.3-17.8 -3.3 0.1-20.6 1.6-20.5 5.3 0.1 3.8 0.1 7.6 0.2 11.4 16.8-8.4 39.5-10.8 53.9 3.5C421.1 154.2 420.6 153.4 420.2 152.6 410.8 137.3 420.7 153.4 420.2 152.6z" class="g"/></svg>