<svg version="1.1" id="Layer_1" xmlns="http://www.w3.org/2000/svg" xmlns:xlink="http://www.w3.org/1999/xlink" viewBox="0 0 768 430" enable-background="new 0 0 768 430" xml:space="preserve">
<g>
	<g>
		<polygon fill="#FFC400" points="556.205,215 458.328,229.21 535.996,290.439 444.137,253.725 480.854,345.584 419.62,267.917 
			405.412,365.793 391.202,267.917 329.969,345.584 366.688,253.727 274.827,290.439 352.495,229.209 254.619,215 352.495,200.79 
			274.828,139.557 366.688,176.273 329.972,84.415 391.201,162.083 405.412,64.207 419.623,162.084 480.854,84.416 444.138,176.276 
			535.997,139.56 458.329,200.791 		"/>
		<polygon fill="none" stroke="#FFC400" stroke-width="9.0025" stroke-miterlimit="10" points="556.205,215 458.328,229.21 
			535.996,290.439 444.137,253.725 480.854,345.584 419.62,267.917 405.412,365.793 391.202,267.917 329.969,345.584 
			366.688,253.727 274.827,290.439 352.495,229.209 254.619,215 352.495,200.79 274.828,139.557 366.688,176.273 329.972,84.415 
			391.201,162.083 405.412,64.207 419.623,162.084 480.854,84.416 444.138,176.276 535.997,139.56 458.329,200.791 		"/>
	</g>
	<circle fill="#FFC400" stroke="#7BCDCB" stroke-width="16.5046" stroke-miterlimit="10" cx="405.412" cy="215" r="102.779"/>
</g>
</svg>
