<svg version="1.1" id="Layer_1" xmlns="http://www.w3.org/2000/svg" xmlns:xlink="http://www.w3.org/1999/xlink" viewBox="0 0 768 430" enable-background="new 0 0 768 430" xml:space="preserve">
<g>
	<g>
		<path fill="#FFB100" d="M412.153,394.756c0.267-14.73,9.848-41.177,1.302-67.693L399,317.575c0-0.218,0-0.332,0-0.332l-1,0.166
			l-1-0.166c0,0,0,0.114,0,0.332l-15.259,9.487c-8.546,26.517,0.249,52.016,0.517,66.746c0,0-5.282,2.399-2.077,5.837
			c3.205,3.437,10.237,1.72,10.877-0.892c2.404-9.82-1.549-25.884-1.07-37.809c0.523-12.941,3.588-14.653,7.21-14.729
			c3.624,0.075,6.689,1.787,7.211,14.729c0.48,11.925-3.947,27.988-1.543,37.809c0.639,2.611,7.871,4.328,11.074,0.892
			C417.146,396.208,412.153,394.756,412.153,394.756z"/>
		<path fill="#FFEBCB" d="M381.201,345.506c0,0,18.688,17.501,33.935,0l1.475-56.39l-34.426-2.917L381.201,345.506z"/>
		<g>
			<defs>
				<path id="XMLID_2_" d="M424.315,284.934c14.858,46.099-0.648,92.141-1.112,117.75c0,0,8.678,2.553,3.105,8.528
					c-5.571,5.977-18.143,3.008-19.253-1.532c-4.18-17.072,3.513-44.993,2.679-65.726c-0.906-22.498-6.239-25.471-12.539-25.601
					c-6.299,0.13-11.635,3.109-12.542,25.607c-0.834,20.73,6.025,48.66,1.846,65.734c-1.11,4.539-13.367,7.524-18.938,1.549
					c-5.572-5.977,3.551-10.146,3.551-10.146c-0.464-25.609-15.874-70.065-1.016-116.164C376.62,269.737,387.327,133,387.327,73
					h16.471C403.798,73,404.477,252.364,424.315,284.934z"/>
			</defs>
			<use xlink:href="#XMLID_2_"  overflow="visible" fill="#FFD01F"/>
			<clipPath id="XMLID_4_">
				<use xlink:href="#XMLID_2_"  overflow="visible"/>
			</clipPath>
			<path clip-path="url(#XMLID_4_)" fill="#FF9300" d="M370,279.427c-10,0-10,14.361,0,14.361C379,293.788,379,279.427,370,279.427z
				"/>
			<path clip-path="url(#XMLID_4_)" fill="#FF9300" d="M384,254.308c-14,0-14,21.774,0,21.774C399,276.082,399,254.308,384,254.308z
				"/>
			<path clip-path="url(#XMLID_4_)" fill="#FF9300" d="M414.59,234.339c-2.296-2.296-5.449-3.603-8.698-3.603
				c-3.25,0-6.401,1.307-8.699,3.603c-2.297,2.297-3.604,5.449-3.604,8.699s1.307,6.402,3.604,8.698
				c2.298,2.298,5.449,3.604,8.699,3.604c3.249,0,6.402-1.306,8.698-3.604c2.297-2.296,3.603-5.448,3.603-8.698
				S416.887,236.636,414.59,234.339z"/>
			<path clip-path="url(#XMLID_4_)" fill="#FF9300" d="M413,262.201c-12,0-12,18.066,0,18.066S425,262.201,413,262.201z"/>
			<path clip-path="url(#XMLID_4_)" fill="#FF9300" d="M397,283.451c-5,0-5,7.412,0,7.412C400,290.863,400,283.451,397,283.451z"/>
			<path clip-path="url(#XMLID_4_)" fill="#FF9300" d="M422.466,281.288c-5.892,0-10.81,4.919-10.81,10.811s4.918,10.81,10.81,10.81
				c5.893,0,10.81-4.918,10.81-10.81S428.358,281.288,422.466,281.288z"/>
			<path clip-path="url(#XMLID_4_)" fill="#FF9300" d="M384.142,220.702c-3.901,0-7.157,3.256-7.157,7.157s3.256,7.157,7.157,7.157
				s7.156-3.256,7.156-7.157S388.043,220.702,384.142,220.702z"/>
			<path clip-path="url(#XMLID_4_)" fill="#FF9300" d="M394,282.739c-10,0-10,16.523,0,16.523C406,299.263,406,282.739,394,282.739z
				"/>
			<path clip-path="url(#XMLID_4_)" fill="#FF9300" d="M362.619,323.274c-3.228,0-6.143,2.216-6.999,5.329
				c-0.515,1.872-0.25,3.915,0.732,5.594c0.887,1.513,2.559,2.996,4.337,3.334c0.635,0.121,1.317,0.267,1.93,0.267
				c0.612,0,1.295-0.146,1.929-0.267c1.229-0.345,2.297-0.967,3.203-1.866c1.354-1.355,2.125-3.215,2.125-5.133
				C369.877,326.576,366.575,323.274,362.619,323.274z"/>
			<path clip-path="url(#XMLID_4_)" fill="#FF9300" d="M383,358.021c-10,0-10,14.207,0,14.207C392,372.228,392,358.021,383,358.021z
				"/>
			<path clip-path="url(#XMLID_4_)" fill="#FF9300" d="M409,363.425c-9,0-9,13.28,0,13.28S418,363.425,409,363.425z"/>
			<path clip-path="url(#XMLID_4_)" fill="#FF9300" d="M428,330.215c-7,0-7,9.42,0,9.42C433,339.635,433,330.215,428,330.215z"/>
			<path clip-path="url(#XMLID_4_)" fill="#FF9300" d="M435.99,354.248c-0.011-0.058-0.02-0.114-0.029-0.172
				c-0.503-1.793-1.41-3.349-2.722-4.668c-1.319-1.311-2.875-2.219-4.667-2.721c-3.641-1.002-7.625,0.053-10.291,2.721
				c-2.668,2.667-3.723,6.651-2.721,10.291c0.502,1.793,1.409,3.349,2.721,4.668c1.319,1.311,2.875,2.218,4.668,2.721
				c0.058,0.009,0.114,0.019,0.172,0.028c1.854,0.498,3.709,0.498,5.562,0c2.065-0.802,3.026-1.094,4.619-2.687
				c1.288-1.296,2.181-2.825,2.674-4.585C436.688,358.009,436.293,356.087,435.99,354.248z"/>
			<path clip-path="url(#XMLID_4_)" fill="#FF9300" d="M386,330.224c-14,0-14,20.384,0,20.384C399,350.607,399,330.224,386,330.224z
				"/>
		</g>
		<path fill="#FFD01F" d="M419,88.387C419,101.98,407.98,113,394.388,113h-0.775C380.02,113,369,101.98,369,88.387V57.613
			C369,44.02,380.02,33,393.612,33h0.775C407.98,33,419,44.02,419,57.613V88.387z"/>
		<path fill="#FFEBCB" d="M369.208,87.248v0.824c0,13.646,11.062,24.708,24.707,24.708c13.646,0,24.707-11.062,24.707-24.708v-0.824
			c0,0-8.235-10.706-25.53-10.706C375.796,76.542,369.208,87.248,369.208,87.248z"/>
		<circle fill="#35312D" cx="377.443" cy="66.659" r="3.294"/>
		<g>
			<circle fill="#FFD01F" cx="386.503" cy="95.484" r="3.294"/>
			<circle fill="#FFD01F" cx="401.327" cy="95.484" r="3.294"/>
		</g>
		<circle fill="#35312D" cx="409.563" cy="66.659" r="3.294"/>
		<g>
			
				<rect x="379.133" y="19.395" transform="matrix(0.9485 -0.3168 0.3168 0.9485 10.2721 122.5566)" fill="#FFD01F" width="5.766" height="20.589"/>
			<circle fill="#FFB100" cx="377.492" cy="16.584" r="7.138"/>
		</g>
		<g>
			
				<rect x="399.088" y="19.395" transform="matrix(-0.9485 -0.3168 0.3168 -0.9485 773.8301 185.1998)" fill="#FFD01F" width="5.766" height="20.589"/>
			<circle fill="#FFB100" cx="406.496" cy="16.584" r="7.138"/>
		</g>
		<path fill="#FFD01F" d="M380.19,39.755c0,0-8.237-8.236-16.472-7.687c-8.236,0.55-3.295,19.218,11.53,17.021"/>
		<path fill="#FFD01F" d="M404.347,39.755c0,0,8.235-8.236,16.472-7.687c8.236,0.55,3.294,19.218-11.53,17.021"/>
		<path fill="#FFB100" d="M373.325,41.951c0,0-4.529-4.941-9.471-4.118C363.854,37.833,366.737,49.775,373.325,41.951z"/>
		<path fill="#FFB100" d="M410.387,41.951c0,0,4.529-4.941,9.471-4.118C419.857,37.833,416.976,49.775,410.387,41.951z"/>
	</g>
	<g>
		<path fill="#C3CBCF" d="M520.884,309.302c0,0,12.885,19.33,7.158,46.534c-5.729,27.205,2.863,31.5-0.716,37.943
			c-3.58,6.444-17.897,2.863-17.897,2.863l1.432-85.908L520.884,309.302z"/>
		<path fill="#C3CBCF" d="M450.808,302.951c0,0-23.401,15.657-18.461,55.66c3.409,27.589-3.182,31.469,0.334,37.947
			c3.514,6.479,17.866,3.045,17.866,3.045l-0.563-85.922L450.808,302.951z"/>
		<path fill="#FFC0AD" d="M509.754,380.161c0,0-34.702,16.439-63.011,0l-2.741-52.964l63.925-2.74L509.754,380.161z"/>
		<path fill="#A4B1B8" d="M439.278,401.852c-0.715-21.454-24.624-57.216-1.737-95.837L478,292.196c0-0.318,0-0.485,0-0.485
			l1.5,0.243l1.5-0.243c0,0,0,0.167,0,0.485l40.287,13.818c22.887,38.621-0.952,74.383-1.668,95.837c0,0,9.895,5.008,1.311,10.015
			c-8.582,5.005-23.379,2.372-25.091-1.432c-6.438-14.305,4.118-37.701,2.832-55.071c-1.396-18.848-9.623-21.342-19.326-21.45
			c-9.703,0.108-17.922,2.603-19.319,21.45c-1.285,17.37,9.295,40.767,2.859,55.071c-1.711,3.804-16.452,6.437-25.034,1.432
			C429.267,406.859,439.278,401.852,439.278,401.852z"/>
		<g>
			<path fill="#A4B1B8" d="M428.655,248.943c0,0-7.693-17.551-18.104-11.232c-10.411,6.316,5.544,18.138,14.146,15.784
				C433.303,251.14,428.655,248.943,428.655,248.943z"/>
			<path fill="#A4B1B8" d="M470.606,237.464c0,0-2.314-19.021,9.863-18.885c12.177,0.137,4.464,18.434-4.14,20.787
				C467.726,241.722,470.606,237.464,470.606,237.464z"/>
			<path fill="#C3CBCF" d="M505.389,272.678c0,0-19.838-35.661-31.4-37.424c-11.383-1.731-16.329,0.736-25.496,3.279
				c-9.182,2.478-14.628,2.854-23.542,10.139c-9.055,7.403-7.901,48.176-7.901,48.176l41.578-21.282L505.389,272.678z"/>
			<g>
				<circle fill="#35312D" cx="432.452" cy="266.098" r="3.217"/>
			</g>
			<g>
				<circle fill="#35312D" cx="474.93" cy="254.476" r="3.216"/>
			</g>
			<path fill="#FFF2EF" d="M521.521,297.837c5.364,19.604-6.18,39.845-25.783,45.21l-34.69,9.491
				c-19.604,5.364-39.844-6.179-45.209-25.783l-1.987-7.262c-5.364-19.604,6.181-39.844,25.784-45.208l34.689-9.494
				c19.604-5.362,39.846,6.182,45.209,25.785L521.521,297.837z"/>
			<path fill="#C3CBCF" d="M432.682,311.797c0.856-3.891,2.933-7.458,5.9-10.123c-1.481-1.413-3.64-2.041-5.758-1.462
				c-3.211,0.879-5.104,4.195-4.224,7.407C429.169,309.697,430.76,311.218,432.682,311.797z"/>
			<path fill="#C3CBCF" d="M498.066,293.905c-2.719-2.912-6.322-4.926-10.233-5.708c0.556-1.969,2.094-3.609,4.211-4.19
				c3.214-0.878,6.528,1.015,7.407,4.226C500.02,290.312,499.425,292.43,498.066,293.905z"/>
		</g>
	</g>
	<g>
		<path fill="#C3CBCF" d="M325.504,289.5c0,0,13.368,24.605,7.427,59.232c-5.942,34.627,2.97,40.095-0.743,48.296
			c-3.714,8.202-18.567,3.645-18.567,3.645l1.485-109.351L325.504,289.5z"/>
		<path fill="#C3CBCF" d="M246.553,279.928c0,0-24.277,19.928-19.151,70.844c3.537,35.119-3.3,40.057,0.346,48.304
			c3.646,8.246,18.536,3.873,18.536,3.873l-0.584-109.363L246.553,279.928z"/>
		<path fill="#C3CBCF" d="M309.164,368.9c0,0-32.142,18.681-58.363,0l-2.537-60.193l59.208-3.113L309.164,368.9z"/>
		<path fill="#A4B1B8" d="M238.608,398.353c-0.742-27.338-25.479-72.901-1.713-122.108L279,258.635c0-0.403,0-0.616,0-0.616l1,0.309
			l1-0.309c0,0,0,0.213,0,0.616l42.305,17.609c23.766,49.207-0.758,94.771-1.5,122.108c0,0,10.391,6.378,1.478,12.757
			c-8.912,6.379-24.221,3.022-25.997-1.822c-6.685-18.226,4.305-48.036,2.968-70.167c-1.449-24.015-9.977-27.192-20.053-27.332
			c-10.077,0.14-18.604,3.317-20.053,27.332c-1.336,22.131,9.655,51.941,2.97,70.167c-1.776,4.845-17.083,8.201-25.994,1.822
			C228.21,404.73,238.608,398.353,238.608,398.353z"/>
		<g>
			<path fill="#C3CBCF" d="M319.047,216.703c0,0,38.644-32.002,62.872,8.347c24.227,40.35-39.583,105.164-84.845,48.827
				L319.047,216.703z"/>
			<path fill="#A4B1B8" d="M316.842,222.686c0,0,28.909-23.941,47.035,6.245c18.125,30.185-29.613,78.672-63.474,36.528
				L316.842,222.686z"/>
			<path fill="#C3CBCF" d="M250.784,204.114c0,0-27.832-41.748-62.621-10.05c-34.79,31.696,7.731,112.099,67.26,71.125
				L250.784,204.114z"/>
			<path fill="#A4B1B8" d="M251.179,210.478c0,0-20.821-31.231-46.848-7.519c-26.025,23.713,5.784,83.862,50.318,53.21
				L251.179,210.478z"/>
			<path fill="#E1E5E7" d="M281.977,187.36c-37.435,0-54.072,12.478-53.24,24.957c0.832,12.479,4.159,54.071,9.151,59.063
				c4.991,4.991,16.637,9.15,19.133,15.806c2.496,6.655,0.353,21.141-17.09,27.601c-14.85,5.5-24.368-9.716-24.994-20.816
				c1.292-5.591,6.173-29.814,5.78-29.834c-2.853-0.134-8.63,4.791-15.759,16.022c-20.98,33.052,11.852,72.667,51.382,62.225
				c43.5-11.49,43.939-49.374,43.939-49.374s-4.16-4.159,14.142-14.143c18.301-9.982,15.806-31.611,18.301-61.559
				C335.217,187.36,306.101,187.36,281.977,187.36z"/>
			<circle fill="#35312D" cx="312.245" cy="243.93" r="3.479"/>
			<circle fill="#35312D" cx="246.531" cy="243.93" r="3.479"/>
			<path fill="#FFEBCB" d="M242.28,269.828c0,0-20.874,14.688,1.545,44.839c0,0-3.866-26.284,7.489-34.255
				C251.314,280.412,254.649,265.189,242.28,269.828z"/>
			<path fill="#FFEBCB" d="M317.318,278.131c0,0,17.256,18.808-11.086,43.476c0,0,9.39-24.854,0-35.064
				C306.231,286.542,306.225,270.958,317.318,278.131z"/>
		</g>
	</g>
	<g>
		<path fill="#8F5E13" d="M564.515,401.787c12.617-19.298,5.934-55.203,2.596-67.836l-33.927-11.273l-33.905,11.337
			c-3.313,12.64-9.931,48.558,2.723,67.831c0,0-11.968,2.672-7.308,8.652c4.662,5.98,31.929,6.62,31.917-6.015
			c-0.012-12.636-1.348-18.62,6.632-18.628c7.98-0.007,6.656,5.98,6.668,18.616c0.012,12.635,27.278,11.943,31.928,5.955
			C576.488,404.437,564.515,401.787,564.515,401.787z"/>
		
			<ellipse transform="matrix(1 -9.345031e-04 9.345031e-04 1 -0.3361 0.4984)" fill="#FFEBCB" cx="533.219" cy="359.919" rx="12.018" ry="14.63"/>
		<path fill="#BD862F" d="M502.014,310.977c0,0-16.47,20.696-7.249,48.724c9.217,28.024,25.78,17.44,23.014,6.871
			c-2.769-10.567-7.42-22.775,0.789-31.711c3.17-3.455,6.905-4.982,11.926-5.398c24.363,0,26.806,15.702,37.789,15.6
			c14.791-0.139,22.543-10.674,21.861-34.118c-0.257-8.826-5.481-12.924-11.303-12.435c-5.267,0.441-8.694,5.53-8.694,12.615
			c0,2.822,0.745,6.714-1.864,7.46c-4.877,1.393-9.073-6.094-11.561-8.578C551.743,305.04,502.014,310.977,502.014,310.977z"/>
	</g>
	<path fill="#629B52" d="M565.298,215.373c0,0,7.237-21.255,0.924-27.154l-20.636-21.545c-3.418-3.571-9.083-3.693-12.654-0.274l0,0
		c-3.568,3.419-3.691,9.085-0.271,12.655L565.298,215.373z"/>
	<path fill="#629B52" d="M546.868,232.044c-3.015-3.915-2.285-9.535,1.631-12.552l0,0c3.917-3.016,9.537-2.286,12.552,1.631
		l18.202,23.639c3.016,3.917,2.285,9.537-1.63,12.553l0,0c-3.918,3.015-9.537,2.285-12.553-1.632L546.868,232.044z"/>
	<g>
		<path fill="#FFB100" d="M204.914,377.405c-0.347,1.742-2.039,2.87-3.78,2.523l0,0c-1.74-0.348-2.871-2.041-2.522-3.781
			l50.326-252.123c0.347-1.741,2.04-2.87,3.78-2.523l0,0c1.74,0.347,2.87,2.041,2.522,3.781L204.914,377.405z"/>
		<path fill="#FFB100" d="M585.576,377.405c0.347,1.742,2.038,2.87,3.779,2.523l0,0c1.74-0.348,2.87-2.041,2.522-3.781
			l-50.326-252.123c-0.347-1.741-2.041-2.87-3.78-2.523l0,0c-1.74,0.347-2.87,2.041-2.522,3.781L585.576,377.405z"/>
		<g>
			<g>
				<path fill="#FFEBCB" d="M552.946,172.287c-104.934,17.525-210.468,17.52-315.402,0c3.706-21.22,7.407-42.44,11.111-63.66
					c97.591,16.247,195.59,16.247,293.181,0C545.536,129.847,549.242,151.066,552.946,172.287z"/>
				<g>
					<path fill="#8F5E13" d="M339.593,169.041c8.135-9.855,16.063-19.882,23.776-30.072c0.002-0.068,0.004-0.103,0.007-0.171
						c-7.995-0.293-11.988-0.486-19.979-0.963c0.099-1.663,0.149-2.493,0.248-4.156c10.58,0.631,15.869,0.865,26.456,1.172
						c-0.035,1.209-0.053,1.815-0.088,3.024c-7.585,10.209-15.383,20.26-23.386,30.146c-0.004,0.068-0.005,0.103-0.009,0.171
						c9.112,0.493,13.67,0.681,22.79,0.942c-0.048,1.666-0.07,2.496-0.118,4.162c-9.965-0.285-19.926-0.737-29.876-1.352
						C339.485,170.783,339.521,170.203,339.593,169.041z"/>
					<path fill="#8F5E13" d="M409.209,153.933c0.241,10.826-7.429,20.43-18.713,20.352c-10.847-0.076-18.208-9.384-17.925-19.789
						c0.283-10.421,7.71-19.924,18.716-19.917C401.993,134.586,408.985,143.899,409.209,153.933z M378.105,154.505
						c-0.159,8.214,4.421,15.689,12.715,15.729c8.354,0.041,13.008-7.275,12.924-16.004c-0.073-7.645-4.239-15.561-12.71-15.602
						C382.622,138.588,378.269,146.062,378.105,154.505z"/>
					<path fill="#8F5E13" d="M450.152,152.339c0.741,10.812-6.481,20.75-17.761,21.196c-10.842,0.429-18.622-8.533-18.822-18.94
						c-0.2-10.422,6.787-20.256,17.776-20.758C442.04,133.348,449.465,142.321,450.152,152.339z M419.1,154.35
						c0.222,8.213,5.14,15.468,13.429,15.125c8.35-0.346,12.662-7.87,12.175-16.585c-0.427-7.633-4.957-15.347-13.422-14.996
						C422.875,138.241,418.872,145.909,419.1,154.35z"/>
				</g>
			</g>
		</g>
	</g>
	<g>
		<g>
			<defs>
				<path id="XMLID_3_" d="M293.949,116.56c0,0-29.053-7.34-39.731,4.741c-8.065,9.125,1.198,24.617,12.283,16.555
					c4.275-3.11-3.205-7.477-4.806-4.806c0,0,0-6.942,6.942-4.806c6.943,2.136,8.544,16.021-2.136,18.691
					c-10.681,2.67-24.773-2.156-25.633-21.361c-1.048-23.387,32.286-43.265,59.809-25.527c0,0,3.64-4.609,9.48-2.447
					c8.256,3.058,11.743,7.706,14.373,18.043C320.065,122.125,303.734,126.958,293.949,116.56z"/>
			</defs>
			<use xlink:href="#XMLID_3_"  overflow="visible" fill="#8BCE1C"/>
			<clipPath id="XMLID_5_">
				<use xlink:href="#XMLID_3_"  overflow="visible"/>
			</clipPath>
			<path clip-path="url(#XMLID_5_)" fill="#FFD01F" d="M248.076,101.575c1.223,4.587,3.67,5.198,7.951,6.728
				c4.282,1.529,3.67,4.281,3.67,4.281s1.223-6.728-2.752-9.48c-3.975-2.752-3.975-7.951-3.975-7.951"/>
			<path clip-path="url(#XMLID_5_)" fill="#FFD01F" d="M258.478,93.656c0.229,4.742,2.492,5.855,6.355,8.252
				c3.863,2.397,2.686,4.958,2.686,4.958s2.613-6.319-0.693-9.848c-3.306-3.528-2.211-8.61-2.211-8.61"/>
			<path clip-path="url(#XMLID_5_)" fill="#FFD01F" d="M272.522,89.859c-1.12,4.613,0.736,6.32,3.764,9.711
				c3.029,3.391,1.175,5.515,1.175,5.515s4.292-5.323,2.117-9.642c-2.174-4.318,0.312-8.884,0.312-8.884"/>
			<path clip-path="url(#XMLID_5_)" fill="#FFD01F" d="M287.712,90.04c-2.518,4.024-1.295,6.23,0.508,10.403
				c1.804,4.174-0.625,5.604-0.625,5.604s5.753-3.697,5.052-8.481c-0.701-4.784,3.099-8.332,3.099-8.332"/>
		</g>
		<circle fill="#8BCE1C" cx="307.404" cy="100.963" r="7.646"/>
		<circle fill="#35312D" cx="307.404" cy="100.963" r="3.186"/>
		<path fill="#70B252" d="M266.731,108.609c0,0,9.174,1.529,8.869,9.786c0,0,3.67-1.223,3.976,2.141
			c0.306,3.364-6.117,1.224-6.117,1.224s-0.306,3.058-2.752,3.058c-2.447,0-3.976-3.363-0.612-5.504c0,0-0.917-4.587-5.504-4.281"/>
		<path fill="#70B252" d="M287.059,108.467c0,0,8.811,2.979,7.187,11.081c0,0,3.819-0.62,3.582,2.75
			c-0.237,3.37-6.233,0.228-6.233,0.228s-0.791,2.969-3.207,2.578c-2.415-0.392-3.386-3.958,0.278-5.531
			c0,0-0.171-4.675-4.748-5.108"/>
	</g>
	<path fill="#8BCE1C" d="M558.959,246.981c0,0-16.782-14.917-14.201-23.162l10.844-46.575c8.578,4.102,16.41,14.668,13.427,24.365
		L558.959,246.981z"/>
	<path fill="#8BCE1C" d="M559.084,288.376c-4.793-1.213-3.605-7.556-2.393-12.347l13.082-43.592
		c8.204,4.849,12.803,14.268,11.589,19.061c-2.887,8.039-7.362,19.974-2.887,25.939c4.475,5.967,21.877,1.988,18.397-11.437
		c0,0,7.955,5.471,2.982,18.398c-4.972,12.928-27.732,19.906-38.784,6.464"/>
	<g>
		<ellipse fill="#8BCE1C" cx="507.638" cy="110.191" rx="22.416" ry="18.822"/>
		<circle fill="#8BCE1C" cx="490.621" cy="97.556" r="6.446"/>
		<circle fill="#35312D" cx="490.622" cy="97.556" r="2.708"/>
		<circle fill="#8BCE1C" cx="517.157" cy="93.786" r="6.447"/>
		<circle fill="#35312D" cx="517.156" cy="93.786" r="2.708"/>
		<g>
			<path fill="#629B52" d="M514.32,116.642c-0.036,1.139,0.76,2.028,1.776,1.987c1.017-0.041,1.87-0.998,1.906-2.137
				c0.035-1.138-0.76-2.028-1.776-1.986C515.21,114.546,514.356,115.502,514.32,116.642z"/>
			<path fill="#629B52" d="M508.644,118.437c0.485,1.031,0.108,2.164-0.84,2.531s-2.112-0.172-2.6-1.202
				c-0.484-1.03-0.108-2.163,0.84-2.53C506.993,116.869,508.156,117.407,508.644,118.437z"/>
		</g>
	</g>
	<g>
		<g>
			<g>
				<path fill="#8F5E13" d="M325.496,399.543c0.767-8.429-1.823-14.701-8.518-19.804c-6.922-5.276-14.966-8.689-18.277-17.418
					c-2.31-6.09-2.804-17.676,4.708-20.552c3.566-1.366,7.157-0.816,9.163,2.474c1.671,2.74,1.346,6.785-1.897,8.114
					c-4.992,2.044-2.81,10.257,2.256,8.182c10.185-4.171,11.547-15.709,4.657-23.705c-7.499-8.702-22.098-3.271-26.458,5.733
					c-5.1,10.534-1.78,23.755,5.492,32.312c3.658,4.305,8.685,7.355,13.39,10.363c5.75,3.675,7.626,7.395,6.998,14.301
					C316.515,404.994,325.004,404.946,325.496,399.543L325.496,399.543z"/>
			</g>
		</g>
		<path fill="#8F5E13" d="M372.196,399.168h-15.303c-0.114-8.757-7.245-15.818-16.025-15.818c-8.856,0-16.034,7.177-16.034,16.032
			c0,5.122,11.118,9.677,14.855,12.612h27.749c7.136,0,15.328-1.229,16.121-9.422c0.793-8.192-1.321-17.178-7.399-9.514
			C372.412,397.785,372.196,399.168,372.196,399.168z"/>
		<path fill="#D6873A" d="M377.853,401.761H362.55c-0.114-8.757-7.245-15.818-16.025-15.818c-8.856,0-16.034,7.178-16.034,16.032
			c0,5.121,11.118,9.678,14.856,12.612h27.749c7.135,0,15.328-1.229,16.12-9.421c0.794-8.192-1.32-17.179-7.398-9.515
			C378.069,400.379,377.853,401.761,377.853,401.761z"/>
		<path fill="#D6873A" d="M363.423,372.523c-2.829-15.91-2.365-23.523-16.185-23.523h-0.158c-13.82,0-25.08,10.874-25.08,24.693
			v26.951c0,13.819,8.544,13.938,24.456,13.938c15.91,0,16.128-13.03,17.778-21.988
			C365.885,383.638,363.423,372.523,363.423,372.523z"/>
		<path fill="#FFC0AD" d="M338.22,410.683c-0.206-4.505-0.565-9.197-2.079-13.479c-2.193-6.204-6.808-15.166-14.086-16.293v19.734
			c0,11.175,5.571,13.39,16.112,13.83C338.26,413.257,338.281,412.003,338.22,410.683z"/>
		<g>
			<circle fill="#D6873A" cx="382.278" cy="323.397" r="8.718"/>
			<circle fill="#FFEBCB" cx="382.279" cy="323.397" r="4.615"/>
			<circle fill="#D6873A" cx="340.227" cy="323.397" r="8.718"/>
			<circle fill="#FFEBCB" cx="340.227" cy="323.397" r="4.615"/>
			<circle fill="#D6873A" cx="360.74" cy="339.296" r="24.615"/>
			<path fill="#FFEBCB" d="M378,336.205c0-4.531-3.673-8.205-8.205-8.205h-18.59c-4.532,0-8.205,3.674-8.205,8.205v0.59
				c0,4.531,3.673,8.205,8.205,8.205h18.59c4.532,0,8.205-3.674,8.205-8.205V336.205z"/>
			<circle fill="#FFEBCB" cx="360.74" cy="349.038" r="11.453"/>
			<circle fill="#E39E6A" cx="365.285" cy="346.546" r="2.122"/>
			<circle fill="#E39E6A" cx="355.682" cy="346.546" r="2.122"/>
			<circle fill="#35312D" cx="370.825" cy="336.56" r="2.243"/>
			<circle fill="#35312D" cx="350.825" cy="336.56" r="2.244"/>
		</g>
		<path opacity="0.3" fill="#8F5E13" d="M322.528,395.105c0,0,0.565-8.186,4.95-13.907c4.973-6.492,14.084-10.677,18.767-11.797
			C346.245,369.401,316.399,367.526,322.528,395.105z"/>
		<g>
			<path fill="#D6873A" d="M323.47,395.267c-3.058-7.925-1.139-11.559,2.015-16.271c2.869-4.285,14.179-7.017,20.76-9.594
				l-5.332-11.066c-0.196,0.076-16.264,3.535-23.068,15.547c-4.477,7.904-7.111,14.51-2.509,25.75
				c2.229,4.153,4.128,10.09,8.074,7.973c3.946-2.118,2.244-6.287,2.244-6.287s3.302,1.17,3.53-1.895
				C329.413,396.357,323.47,395.267,323.47,395.267z"/>
		</g>
	</g>
	<g>
		<g>
			<path fill="#8F5E13" d="M492.896,270.271c0,0-12.87-4.125-10.123-15.158c2.748-11.029,13.312-15.178,21.591-11.047
				c8.276,4.127,6.448,16.077,6.448,16.077L492.896,270.271z"/>
			<path fill="#FFEBCB" d="M497.099,264.523c0,0-5.63-1.804-4.427-6.628c1.199-4.826,5.821-6.639,9.44-4.832
				c3.62,1.805,2.819,7.03,2.819,7.03L497.099,264.523z"/>
		</g>
		<g>
			<path fill="#8F5E13" d="M570.105,270.199c0,0,12.865-4.149,10.098-15.177c-2.768-11.025-13.342-15.153-21.609-11.008
				c-8.27,4.145-6.42,16.09-6.42,16.09L570.105,270.199z"/>
			<path fill="#FFEBCB" d="M565.896,264.458c0,0,5.628-1.813,4.417-6.635c-1.212-4.824-5.837-6.628-9.453-4.815
				s-2.807,7.036-2.807,7.036L565.896,264.458z"/>
		</g>
		
			<ellipse transform="matrix(1 -9.234285e-04 9.234285e-04 1 -0.2633 0.4919)" fill="#8F5E13" cx="532.55" cy="285.383" rx="46.532" ry="37.571"/>
		<circle fill="#453434" cx="509.531" cy="287.383" r="3.619"/>
		
			<ellipse transform="matrix(1 -9.010810e-04 9.010810e-04 1 -0.2738 0.4799)" fill="#BD862F" cx="532.5" cy="304.138" rx="14.631" ry="17.291"/>
		<path fill="#453434" d="M540.264,303.186c0.003,3.045-3.694,8.843-8.263,8.847c-4.569,0.006-8.277-5.786-8.28-8.83
			c-0.003-3.047,3.698-5.52,8.268-5.524C536.557,297.674,540.262,300.14,540.264,303.186z"/>
		<circle fill="#453434" cx="555.418" cy="287.34" r="3.619"/>
	</g>
	<path fill="#E1E5E7" d="M229.586,281.962c-0.387,1.813-2.265,2.948-4.193,2.536l0,0c-1.927-0.412-3.177-2.215-2.789-4.028
		l3.084-14.67c0.388-1.812,2.265-2.948,4.192-2.536l0,0c1.928,0.412,3.178,2.215,2.79,4.028L229.586,281.962z"/>
	<g>
		<g>
			<polygon fill="#FFB100" points="456.857,207.845 492.611,203.969 489.165,195.354 460.303,197.507 			"/>
			<path fill="#FFD01F" d="M455.565,184.584c0,0,16.367-3.877,28.861,0.43c12.492,4.308,13.786,19.384,12.924,23.693
				c-0.861,4.308-3.447-2.154-9.047-5.17c-6.437-3.466-29.725,0-29.725,0L455.565,184.584z"/>
			<path fill="#FF9300" d="M486.902,186.085c-2.679,4.745-3.314,10.525-3.535,16.189c2.039,0.235,3.769,0.634,4.937,1.263
				c5.6,3.016,8.186,9.478,9.047,5.17C498.151,204.704,497.085,191.403,486.902,186.085z"/>
		</g>
		<path fill="#35312D" d="M432.776,217.353c0.416-12.07,7.909-34.277,19.964-35.784c2.68-0.335,7.586-0.209,10.547,1.507
			c3.426,1.985,4.764,5.844,5.273,9.417c1.507,10.548-2.849,15.74-2.26,22.601c1.129,13.183-4.897,24.859-19.588,23.731
			C432.022,237.693,432.399,228.275,432.776,217.353z"/>
		<path fill="#70B252" d="M454.69,237.245c-0.064,0.301-0.157,0.574-0.272,0.827c8.365-2.582,12.169-10.926,12.011-20.49
			C459.276,220.898,456.219,230.004,454.69,237.245z"/>
		<path fill="#FFFFFF" d="M448.973,187.218c-5.65,6.404-6.592,15.444-3.201,21.471c4.155,7.385,12.122,8.253,16.664,1.613
			c4.897-7.158,4.994-17.622,0.852-22.331C460.25,184.52,452.325,183.418,448.973,187.218z"/>
		<g>
			<g>
				<path fill="#56D3DE" d="M462.321,200.945c-1.498,5.201-5.576,8.179-9.109,6.649c-3.532-1.532-5.182-6.987-3.682-12.19
					c1.5-5.202,5.578-8.178,9.11-6.647C462.175,190.288,463.823,195.743,462.321,200.945z"/>
			</g>
			<g>
				<circle fill="#35312D" cx="456.044" cy="195.154" r="4.53"/>
			</g>
		</g>
		<path fill="#FF9300" d="M442.392,234.714c-3.439,0.143-6.639,2.706-5.409,6.886c1.229,4.178,5.409,2.705,5.655-1.477
			c0,0,0,4.425,3.441,3.688C449.521,243.073,448.292,234.467,442.392,234.714z"/>
		<path fill="#FF9300" d="M455.387,232.77c-3.439,0.143-6.639,2.706-5.409,6.886c1.229,4.179,5.41,2.704,5.654-1.475
			c0,0,0,4.426,3.443,3.688C462.518,241.131,461.287,232.522,455.387,232.77z"/>
		<path fill="#56D3DE" d="M434.471,207.748c-2.26,2.825-9.041,20.906-3.39,39.268c5.649,18.364,5.085-3.955,7.627-10.17
			s5.085-8.476,3.391-16.103C440.403,213.114,434.471,207.748,434.471,207.748z"/>
		<path fill="#70B252" d="M442.099,220.743c-1.695-7.629-7.628-12.996-7.628-12.996c-0.524,0.655-1.292,2.139-2.091,4.248
			c3.702,3.458,2.923,12.947,2.777,16.757c-0.216,5.638-0.319,11.291-0.496,16.932c-0.088,2.822-0.006,5.603,0.143,8.377
			c1.873-0.901,2.146-12.914,3.904-17.216C441.25,230.631,443.793,228.37,442.099,220.743z"/>
	</g>
</g>
</svg>
