<svg xmlns="http://www.w3.org/2000/svg" viewBox="0 0 768 430"><style>.a{fill:#C18A3A;}.b{fill:#FFD39F;}.c{fill:none;stroke-linejoin:round;stroke-width:3;stroke:#000;}.d{fill:#FFF;stroke-width:0.6;stroke:#9B9B9B;}.e{stroke-width:0.6;stroke:#000;}.f{opacity:0.4;}.g{fill:#EF7F7F;}</style><path d="M431.9 130.1c0 35.9-18.6 54.4-51.7 54.4 -33.4 0-52.9-11.8-52.9-47.7s17.7-84.2 65-68.9C414.4 62.8 431.9 94.1 431.9 130.1z" class="a"/><polygon points="389.6 206 369.6 206 372.8 167 386.4 167 " class="b"/><path d="M425.3 124.3c-0.1 23.8-15.9 48.2-45.7 48.2 -30.7 0-45.8-24.5-45.7-48.3 0.1-23.8 20.4-42.7 44.6-42.7S425.4 100.5 425.3 124.3z" class="b"/><path d="M427.1 119.5c0 0-15.2-6.4-20.3-11.1s-9.9-15.4-9.9-15.4 -8.1 13-19.4 12.9c4-4.5 5.7-10.9 5.7-10.9s-9.5 10.6-22.9 15.5c-13.4 4.9-28.3 9.1-28.3 9.1s2-53.1 47.8-53.1C426 66.4 427.1 119.5 427.1 119.5z" class="a"/><path d="M343.1 128.1c0 6-4 11.4-8.9 11.4s-10.6-4.1-10.6-11.4c0-8.8 6.5-11.9 13-9.8C341.3 119.7 343.1 122.1 343.1 128.1z" class="b"/><path d="M416.1 127.6c0 6 4 11.4 8.9 11.4s10.6-4.1 10.6-11.4c0-8.8-6.5-11.9-13-9.8C417.9 119.2 416.1 121.7 416.1 127.6z" class="b"/><path d="M367 120.5c0 0.5-0.1 1.1-0.2 1.6 -0.2 0.5-0.4 1-0.7 1.4 -0.3 0.4-0.8 0.7-1.3 0.9 -0.5 0.3-0.9 0.4-1.5 0.4s-1-0.1-1.5-0.4c-0.4-0.2-0.9-0.5-1.2-0.9 -0.3-0.4-0.6-0.9-0.7-1.4 -0.1-0.5-0.2-1-0.2-1.6s0.1-1.1 0.2-1.6c0.2-0.5 0.4-1 0.7-1.4 0.3-0.4 0.7-0.8 1.2-1.1 0.5-0.3 1-0.3 1.5-0.3s1 0.1 1.5 0.4c0.4 0.2 0.9 0.6 1.2 1 0.3 0.4 0.5 0.9 0.7 1.4C366.9 119.4 367 120 367 120.5z"/><path d="M399.6 120.5c0 0.5-0.1 1.1-0.2 1.6 -0.2 0.5-0.5 0.9-0.8 1.3 -0.3 0.4-0.7 0.8-1.1 1 -0.5 0.3-0.9 0.5-1.5 0.5s-1.1-0.2-1.5-0.4c-0.4-0.2-0.8-0.7-1.1-1.1 -0.3-0.4-0.6-0.9-0.7-1.4 -0.1-0.5-0.3-1-0.3-1.5s0.2-1.1 0.3-1.5c0.2-0.5 0.5-0.9 0.8-1.4 0.3-0.4 0.7-0.8 1.1-1.1 0.5-0.3 1-0.5 1.5-0.5s1.1 0.1 1.5 0.4c0.4 0.2 0.9 0.6 1.2 1.1 0.3 0.4 0.4 0.9 0.6 1.5C399.4 119.5 399.6 120 399.6 120.5z"/><polyline points=" 376.2 130.1 379.6 125.3 383.3 129.2 " class="c"/><line x1="365.3" y1="146.2" x2="362.3" y2="149.1" class="c"/><line x1="393.3" y1="145.6" x2="395.9" y2="148" class="c"/><path d="M364.5 148c0 0 7.6 5.8 14.6 5.8 8.6 0 14.9-6.9 14.9-6.9" class="c"/><polygon points="374.7 395.4 367.1 395.4 363.8 286.5 378.9 286.5 " class="b"/><path d="M374.7 396.8c-0.2 3.7-0.7 6.8-9 8.3 -8 1.5-19.8 3.4-20.6 0.9 -0.9-2.5 16.6-9.3 21.8-12.2 1.6 0 7.9 0 7.9 0S374.8 394.8 374.7 396.8z" class="b"/><path d="M376.3 367.8h-10.4l1.2 25.5c0 0-0.1 0-0.1 0 -4.7 2.5-22.2 9.5-21.3 12.9 0.8 2.8 12 0.6 20.1-1.1 8.3-1.8 8.8-4.7 9-8.9 0.1-2.2 0.1-2.8 0.1-2.8h0L376.3 367.8z" class="d"/><path d="M367 393.4c0 0-0.1 0-0.1 0 -4.7 2.5-22.8 9.7-21.8 13.1 0.8 2.8 12.6 0.5 20.6-1.2 8.3-1.8 8.7-3 9-9.1 0.1-2.2 0.1-2.8 0.1-2.8H367z" class="e"/><polygon points="384.5 395.4 392.1 395.4 395.4 286.5 380.3 286.5 " class="b"/><path d="M384.5 396.8c0.2 3.7 0.7 6.8 9 8.3 8 1.5 19.8 3.4 20.6 0.9 0.8-2.5-16.6-9.3-21.8-12.2 -1.6 0-7.9 0-7.9 0S384.4 394.8 384.5 396.8z" class="b"/><path d="M382.9 367.8h10.5l-1.2 25.5c0 0 0.1 0 0.1 0 4.7 2.5 22.8 9.7 21.8 13.1 -0.8 2.8-12.6 0.3-20.6-1.4 -8.3-1.8-8.8-4.7-9-8.9 -0.1-2.2-0.1-2.8-0.1-2.8h0L382.9 367.8z" class="d"/><path d="M392.2 393.4c0 0 0.1 0 0.1 0 4.7 2.5 22.8 9.7 21.8 13.1 -0.8 2.8-13.1 0.8-21.1-0.9 -8.3-1.8-8.4-4-8.5-9.4 -0.1-2.2-0.1-2.8-0.1-2.8h0H392.2z" class="e"/><polygon points="402.9 306.4 356.3 306.4 364.2 249.1 395 249.1 " fill="#BF1717"/><rect x="330.7" y="255.9" transform="matrix(0.9681 0.2505 -0.2505 0.9681 77.5281 -75.6448)" width="10.4" height="21.7" class="b"/><path d="M333.7 298.8c-0.9-1.9-0.8-9.6-0.8-9.6s-6 11.2-7.9 12.2c-0.5 0.2-1.2 0.3-1.9 0 1.2-2.2 3.1-6.6 3.1-6.6s-3.9 4.7-4.8 5c-1 0.3-2.1-0.6-2.1-0.6l1-1.5c0 0-0.4 0.7-1.2 0.6 -0.5 0-0.9-0.1-1.1-0.5 -0.1-0.3 3.8-5.6 3.8-5.6s-1.5 0.8-1.8 0.1l8.4-17.8 10.1 2.6 -2.9 23.2C335.6 300.4 334.6 300.7 333.7 298.8z" class="b"/><g class="f"><polygon points="326.2 294.8 329.1 289.5 328.3 289.5 322.4 299.1 "/><polygon points="320.3 297.7 326.3 289.4 325.6 289.2 "/><polygon points="321.8 292.3 324.8 286.9 324.2 286.5 "/></g><path d="M342 272.4l-14.7-4.1c0 0 20.9-59.1 25.3-70.1 4.5-11.1 9.4-12.4 9.4-12.4l0.7 18.4L342 272.4z" class="g"/><rect x="418.1" y="255.9" transform="matrix(-0.9681 0.2505 -0.2505 -0.9681 899.9009 418.8952)" width="10.4" height="21.7" class="b"/><path d="M425.5 298.8c0.9-1.9 0.8-9.6 0.8-9.6s6 11.2 7.9 12.2c0.5 0.2 1.2 0.3 1.9 0 -1.2-2.2-3.1-6.6-3.1-6.6s3.9 4.7 4.8 5c1 0.3 2.1-0.6 2.1-0.6l-1-1.5c0 0 0.4 0.7 1.2 0.6 0.5 0 0.9-0.1 1.1-0.5 0.1-0.3-3.8-5.6-3.8-5.6s1.5 0.8 1.8 0.1l-8.4-17.8 -10.1 2.6 2.9 23.2C423.6 300.4 424.6 300.7 425.5 298.8z" class="b"/><g class="f"><polygon points="433 294.8 430.1 289.5 430.9 289.5 436.9 299.1 "/><polygon points="438.9 297.7 432.9 289.4 433.6 289.2 "/><polygon points="437.4 292.3 434.4 286.9 435 286.5 "/></g><path d="M417.2 272.4l14.7-4.1c0 0-21-59.1-25.3-70.1 -4.5-11.6-8.8-12.4-8.8-12.4l-0.9 19.8L417.2 272.4z" class="g"/><rect x="362" y="185.8" width="35.8" height="65.5" class="b"/><path d="M399.5 256.4h-39.1l1.7-70.7 6-0.7c0 0 2.2 4.9 11.9 5 9.7 0.1 12.3-5 12.3-5l5.6 0.7L399.5 256.4z" class="g"/></svg>