<svg version="1.1" id="Layer_1" xmlns="http://www.w3.org/2000/svg" xmlns:xlink="http://www.w3.org/1999/xlink" viewBox="0 0 768 430" enable-background="new 0 0 768 430" xml:space="preserve">
<path d="M538.593,169.737c-0.776-6.483-0.129-1.426,0.259,3.112C538.981,173.108,538.852,172.201,538.593,169.737z M538.852,172.849
	c-0.519-1.038-7.907-40.455-20.615-47.197c-5.834-2.981-12.059-3.371-18.409-4.278c-5.578-0.778-9.856-5.446-11.153-11.281
	c-1.037-4.408-1.686-8.688-2.853-12.836c-1.165-3.89-2.723-7.391-5.702-10.503c-5.188-5.316-11.67-7.78-18.413-8.816
	c-2.854-0.39-5.835-0.52-8.816-0.52c-1.944,0-4.021,0-5.967,0c-6.092,0.13-12.058,0.26-18.152,0
	c-8.557-0.389-16.208-4.667-23.854-8.428c-4.279-2.074-8.947-3.241-13.614-2.982c-2.204,0.129-4.409,0.648-6.483,1.297
	c-10.372,3.111-18.67,11.41-26.969,19.189c-5.057,4.797-10.632,8.817-17.115,9.854c-2.723,0.519-5.576,0.648-8.428,0.26
	c-2.853-0.389-5.576-1.167-8.299-2.593c-9.077-4.668-15.17-2.982-25.285,1.945c-11.928,5.964-20.356,11.67-24.505,24.246
	c-1.037,3.112-2.723,5.835-4.668,8.169c-2.333,2.853-5.057,5.187-8.168,6.872c-1.815,1.167-3.501,2.334-5.186,3.372
	c-5.317,1.815-9.854,5.575-13.226,10.373c-2.074,2.982-3.5,6.353-4.279,10.113c-2.981,14.004,5.706,26.192,16.597,32.416
	c13.485,7.779,26.451,16.467,35.657,29.822c1.167,1.556,2.205,3.242,3.372,4.929c1.038,1.687,2.074,3.371,3.112,5.186
	c1.426,2.464,2.982,4.539,4.797,6.484c1.945,1.943,4.15,3.5,6.872,4.537c3.631,1.166,7.261,1.039,10.762,0.26
	c1.167-0.26,2.334-0.648,3.501-1.037c1.037-0.391,1.944-0.778,2.853-1.297c3.371-1.687,6.223-4.15,9.464-6.094
	c4.798-2.982,11.541-3.631,15.559,0.906c0.908,0.908,1.687,2.075,2.335,3.241c3.241,6.354,6.872,12.447,12.706,15.948
	c1.297,0.779,2.594,1.297,3.891,1.687c12.059,3.373,26.449-6.872,38.119,2.203c13.873,10.763,17.634,29.952,13.744,46.938
	c-0.392,1.815-1.039,3.761-1.688,5.574c-0.905,2.725-2.073,5.317-3.239,8.039c-0.648,1.428-1.429,2.854-2.205,4.279
	c-0.779,1.427-1.428,2.981-2.076,4.409c-4.277,9.076-7.647,20.227-2.073,29.951c4.667,8.039,13.096,11.801,21.522,10.373
	c9.208-1.687,16.078-10.635,16.207-20.615c0.133-2.076,0-4.148-0.259-6.354c-1.038-8.559-4.538-17.373-6.74-24.895
	c-0.392-1.427-0.779-2.853-1.167-4.279c-0.389-1.427-0.777-2.853-1.038-4.147c-0.519-2.334-1.167-4.668-1.686-7.001
	c-0.519-2.334-1.039-4.67-1.556-7.002c-0.39-1.686-0.648-3.502-1.037-5.314c-0.259-1.816-0.647-3.502-0.907-5.318
	c-1.945-11.279-1.168-24.765,8.688-32.025c3.497-2.594,7.646-3.5,11.537-1.944c1.295,0.519,2.075,1.429,2.854,2.593
	c2.98,5.317,2.98,11.541,3.89,17.764c0.777,5.058,2.334,10.244,6.612,12.966c1.688,1.168,3.633,1.429,5.445,1.039
	c1.815-0.392,3.631-1.298,4.928-2.724c0.78-0.779,1.556-1.558,2.204-2.463c0.647-0.906,1.167-1.814,1.685-2.726
	c2.727-5.056,4.15-10.761,6.484-16.077c0.907-1.943,1.944-3.759,3.112-5.443l23.209-16.468c4.928-2.204,8.685-6.224,11.927-11.151
	c9.725-14.522,3.373-33.323,12.837-48.624C539.371,177.517,539.112,175.312,538.852,172.849z"/>
</svg>
