<svg version="1.1" id="Layer_1" xmlns="http://www.w3.org/2000/svg" xmlns:xlink="http://www.w3.org/1999/xlink" viewBox="0 0 768 430" enable-background="new 0 0 768 430" xml:space="preserve">
<g>
	<path opacity="0.1" d="M552.481,184.871c3.729-5.364,5.638-11.063,5.702-16.768l0.01-0.016v-0.231c0-0.044,0-0.089,0-0.133
		l0.004-7.894l-0.004-0.005c0,0.324-0.029,0.647-0.041,0.97c0,0.019-0.002,0.037-0.002,0.055
		c0.497-12.029-7.145-24.151-22.957-33.279c-25.553-14.755-64.65-17.203-94.725-7.37l-18.85-10.881l-52.289,30.189
		c-1.596-1.29-3.453-2.323-5.295-2.267c-0.706,0.021-1.295,0.572-1.295,1.293c0,1.593,0,3.186,0,4.778l-5.164,2.981
		c-1.857-1.838-4.359-3.726-6.836-3.651c-0.705,0.021-1.294,0.572-1.294,1.294c0,2.351,0,4.701,0,7.052L198.569,238.1v8.025
		l148.701,85.858l223.052-128.787v-8.024L552.481,184.871z M554.449,173.665c-0.005,0.01-0.01,0.02-0.016,0.029
		c0.293-0.53,0.568-1.063,0.827-1.598c-0.001,0.001-0.001,0.002-0.001,0.003C555.006,172.622,554.734,173.145,554.449,173.665z
		 M554.307,173.922c-0.1,0.175-0.211,0.349-0.312,0.524c0.106-0.183,0.223-0.364,0.325-0.547
		C554.314,173.906,554.311,173.914,554.307,173.922z M557.711,164.739L557.711,164.739c0-0.004,0.001-0.009,0.002-0.014
		C557.712,164.73,557.711,164.735,557.711,164.739z M548.661,181.508c-0.218,0.233-0.426,0.468-0.651,0.7
		c-0.021,0.016-0.037,0.035-0.051,0.052C548.203,182.012,548.426,181.758,548.661,181.508z M365.328,140.164
		c0.051,0.021,0.099,0.04,0.149,0.062c0.468,0.208,0.915,0.457,1.343,0.733l-1.492,0.861
		C365.328,141.268,365.328,140.716,365.328,140.164z M352.034,145.565c0.048,0.021,0.099,0.04,0.149,0.062
		c1.119,0.498,2.114,1.219,3.026,2.035l-3.176,1.833C352.034,148.186,352.034,146.875,352.034,145.565z"/>
	<g>
		<g>
			<g>
				<g>
					<g>
						<polygon fill="#FFE3CC" points="198.569,228.1 198.569,236.125 347.27,321.983 347.27,313.959 						"/>
						<polygon fill="#F9BE93" points="347.27,313.959 347.27,321.983 570.322,193.196 570.322,185.172 						"/>
						<path fill="#F9BE93" d="M558.123,151.42c-0.027,0.447-0.068,0.894-0.119,1.342c-0.02,0.192-0.045,0.387-0.074,0.581
							c-0.061,0.466-0.133,0.931-0.219,1.396c-0.027,0.138-0.057,0.273-0.088,0.409c-0.461,2.267-1.213,4.516-2.262,6.73
							c-0.033,0.073-0.064,0.147-0.102,0.221c-0.254,0.522-0.525,1.045-0.811,1.565c-0.047,0.085-0.096,0.17-0.143,0.257
							c-0.301,0.531-0.609,1.062-0.947,1.588c-0.014,0.024-0.029,0.047-0.045,0.071c-1.447,2.271-3.215,4.486-5.305,6.627
							c-0.021,0.016-0.037,0.035-0.051,0.052l4.521,2.612c3.73-5.364,5.639-11.063,5.703-16.769l0.01-0.016v-0.231
							c0-0.044,0-0.089,0-0.133l0.004-7.894l-0.004-0.005c0,0.324-0.029,0.647-0.041,0.97
							C558.145,151.005,558.139,151.212,558.123,151.42z"/>
					</g>
					<g>
						<path fill="#FFDAB6" d="M547.959,172.26c17.031-17.361,12.791-39.936-12.766-54.689c-25.553-14.755-64.65-17.203-94.725-7.37
							l-18.85-10.881L198.569,228.1l148.701,85.859l223.052-128.787L547.959,172.26z"/>
						<path fill="#F9BE93" d="M535.212,173.562c15.313-15.61,11.499-37.052-11.478-50.317s-56.248-13.856-83.288-5.016
							l-18.827-10.249L215.818,226.905l133.698,77.195l205.8-118.929L535.212,173.562z"/>
					</g>
					<polygon fill="#FFE3CC" points="440.446,118.229 421.619,107.98 421.619,118.229 440.446,127.772 					"/>
				</g>
				<g>
					<path fill="#46CECA" d="M532.139,171.774c4.559-11.758,2.554-28.803-17.374-40.309c-19.925-11.505-50.868-11.36-74.318-3.693
						l-18.827-9.543L224.833,232.11l124.684,71.99l205.8-118.929L532.139,171.774z"/>
					<path fill="#55DBDA" d="M517.976,133.478c-19.923-9.678-48.774-9.157-70.938-1.911l-18.824-9.544L231.858,236.166
						l117.658,67.935l205.8-118.929l-23.178-13.397C536.44,160.685,534.891,144.89,517.976,133.478z"/>
					<g>
						<g>
							<path opacity="0.3" fill="#E8F7F6" d="M244.215,233.961c0,0,14.956-10.634,25.941-12.885
								c15.408-3.155,28.657-22.081,44.134-27.24c15.476-5.159,26.367-17.77,42.992-24.075
								c16.623-6.304,68.498-41.271,71.938-39.981c3.439,1.288,15.765,9.028,19.775,7.309c4.012-1.721,20.064-8.024,36.113-6.879
								c16.049,1.146,44.139,14.331,42.99,40.128c0,0-0.795,4.584,5.049,8.022s11.576,6.307,4.695,10.317
								c-6.877,4.014-34.451,15.343-41.873,22.003c-7.422,6.659-36.658,15.831-45.256,25.001
								c-8.596,9.172-42.991,28.661-52.16,31.528c-9.173,2.865-39.793,25.775-45.572,25.938
								c-6.162,0.173-59.289-25.365-61.315-28.23C289.64,262.05,243.066,239.694,244.215,233.961z"/>
						</g>
						<g opacity="0.4">
							<path fill="#E8F7F6" d="M262.511,235.012c0,0,3.151-3.438,8.215-4.202c5.061-0.765,9.459-3.249,11.94-6.116
								c0,0-4.011,5.542-8.119,6.307C270.438,231.767,265.662,232.719,262.511,235.012z"/>
							<path fill="#E8F7F6" d="M308.313,232.11c0,0,3.154-3.442,8.214-4.206c5.064-0.764,9.46-3.246,11.943-6.113
								c0,0-4.013,5.543-8.121,6.307C316.242,228.863,311.467,229.817,308.313,232.11z"/>
							<path fill="#E8F7F6" d="M335.691,198.143c0,0,3.153-3.439,8.216-4.204c5.063-0.763,9.458-3.248,11.942-6.113
								c0,0-4.011,5.539-8.119,6.306C343.621,194.895,338.845,195.849,335.691,198.143z"/>
							<path fill="#E8F7F6" d="M376.242,195.49c0,0,3.152-3.441,8.217-4.205c5.061-0.765,9.457-3.249,11.941-6.113
								c0,0-4.013,5.54-8.12,6.305C384.17,192.242,379.394,193.196,376.242,195.49z"/>
							<path fill="#E8F7F6" d="M402.766,162.847c0,0,3.151-3.44,8.216-4.203c5.062-0.764,9.456-3.249,11.939-6.114
								c0,0-4.011,5.542-8.116,6.306C410.693,159.601,405.917,160.555,402.766,162.847z"/>
							<path fill="#E8F7F6" d="M443.78,162.847c0,0,3.152-3.44,8.215-4.203c5.065-0.764,9.459-3.249,11.942-6.114
								c0,0-4.011,5.542-8.121,6.306C451.71,159.601,446.933,160.555,443.78,162.847z"/>
							<path fill="#E8F7F6" d="M443.78,188.855c0,0,3.152-3.439,8.215-4.204c5.063-0.766,9.459-3.248,11.942-6.115
								c0,0-4.011,5.541-8.119,6.307C451.71,185.606,446.933,186.562,443.78,188.855z"/>
							<path fill="#E8F7F6" d="M492.197,157.688c0,0,3.154-3.439,8.217-4.202c5.062-0.765,9.459-3.249,11.942-6.115
								c0,0-4.014,5.541-8.12,6.306C500.127,154.44,495.352,155.395,492.197,157.688z"/>
							<path fill="#E8F7F6" d="M365.116,231.096c0,0,3.152-3.441,8.216-4.203c5.062-0.765,9.458-3.249,11.941-6.116
								c0,0-4.012,5.542-8.119,6.307C373.044,227.85,368.269,228.803,365.116,231.096z"/>
							<path fill="#E8F7F6" d="M302.753,265.501c0,0,3.152-3.438,8.217-4.202c5.062-0.766,9.456-3.249,11.939-6.113
								c0,0-4.011,5.54-8.12,6.305C310.683,262.256,305.906,263.21,302.753,265.501z"/>
							<path fill="#E8F7F6" d="M352.037,268.381c0,0,3.153-3.44,8.217-4.203c5.061-0.763,9.457-3.249,11.94-6.113
								c0,0-4.012,5.542-8.118,6.303C359.966,265.133,355.19,266.089,352.037,268.381z"/>
							<path fill="#E8F7F6" d="M412.434,235.952c0,0,3.15-3.438,8.213-4.202c5.064-0.765,9.459-3.25,11.943-6.115
								c0,0-4.013,5.542-8.121,6.304C420.359,232.705,415.584,233.659,412.434,235.952z"/>
							<path fill="#E8F7F6" d="M479.969,203.311c0,0,3.152-3.441,8.217-4.205c5.064-0.761,9.457-3.247,11.941-6.113
								c0,0-4.012,5.543-8.12,6.306C487.898,200.063,483.121,201.017,479.969,203.311z"/>
						</g>
					</g>
				</g>
			</g>
		</g>
		<g>
			<path opacity="0.05" d="M379.383,173.036c0,1.682-2.792,3.046-6.236,3.046s-6.237-1.364-6.237-3.046
				c0-1.686,2.792-3.049,6.237-3.049S379.383,171.351,379.383,173.036z"/>
			<ellipse opacity="0.05" cx="386.119" cy="167.725" rx="6.237" ry="3.047"/>
			<g>
				<path fill="#CEE0D7" d="M387.654,166.941c-3.243-11.894-7.148-25.19-15.481-34.666c-1.858-2.113-5.021-5.128-8.138-5.033
					c-0.706,0.021-1.295,0.572-1.295,1.293c0,8.611,0,17.223,0,25.833c0,1.669,2.587,1.669,2.587,0c0-8.067,0-16.137,0-24.204
					c0.051,0.021,0.099,0.04,0.149,0.062c1.916,0.854,3.475,2.348,4.865,3.879c8.11,8.932,11.735,22.218,14.816,33.524
					C385.598,169.236,388.094,168.553,387.654,166.941z"/>
				<g>
					<polygon fill="#D8E7E0" points="364.162,150.746 350.744,158.493 359.689,163.659 373.109,155.911 					"/>
					<polygon fill="#E4EFE9" points="350.744,159.658 350.744,158.493 359.689,163.659 359.689,164.823 					"/>
					<polygon fill="#C7D8D0" points="373.109,155.911 373.109,157.075 359.689,164.823 359.689,163.659 					"/>
					<polygon fill="#C8D6CE" points="363.737,151.973 352.868,158.249 360.115,162.432 370.983,156.156 					"/>
				</g>
				<g>
					<polygon fill="#D8E7E0" points="364.162,146.606 350.744,154.354 359.689,159.52 373.109,151.772 					"/>
					<polygon fill="#E4EFE9" points="350.744,155.518 350.744,154.354 359.689,159.52 359.689,160.684 					"/>
					<polygon fill="#C7D8D0" points="373.109,151.772 373.109,152.936 359.689,160.684 359.689,159.52 					"/>
					<polygon fill="#C8D6CE" points="363.737,147.834 352.868,154.108 360.115,158.292 370.983,152.018 					"/>
				</g>
				<g>
					<polygon fill="#D8E7E0" points="364.162,142.467 350.744,150.215 359.689,155.38 373.109,147.633 					"/>
					<polygon fill="#E4EFE9" points="350.744,151.378 350.744,150.215 359.689,155.38 359.689,156.544 					"/>
					<polygon fill="#C7D8D0" points="373.109,147.633 373.109,148.797 359.689,156.544 359.689,155.38 					"/>
					<polygon fill="#C8D6CE" points="363.737,143.694 352.868,149.969 360.115,154.152 370.983,147.878 					"/>
				</g>
				<path fill="#D8E7E0" d="M374.359,172.344c-3.242-11.893-7.148-25.19-15.48-34.666c-1.858-2.113-5.021-5.128-8.139-5.034
					c-0.705,0.021-1.294,0.572-1.294,1.294c0,8.61,0,17.223,0,25.833c0,1.668,2.588,1.668,2.588,0c0-8.069,0-16.137,0-24.205
					c0.048,0.021,0.099,0.04,0.149,0.062c1.916,0.853,3.474,2.349,4.864,3.88c8.11,8.932,11.735,22.217,14.817,33.523
					C372.303,174.639,374.799,173.954,374.359,172.344z"/>
			</g>
		</g>
	</g>
</g>
</svg>
