<svg xmlns="http://www.w3.org/2000/svg" viewBox="0 0 768 430"><style>.a{fill:#FFF5A4;}.b{fill:#FDC476;}.c{fill:#65CDF3;}</style><path d="M372 288.4l-20.9 94.6 -161.2-39 63.2-215.1c27 5.7 74.1 14.1 118.9 14.3V288.4z" class="a"/><path d="M494.3 128.9c-22.7 4.8-59.7 11.5-97.5 13.6v82.2c0 14.8-1 22.5-21.4 22.5v41.3l20.9 94.6 161.2-39L494.3 128.9z" class="a"/><polygon points="397.1 386.6 399.5 397.1 561.3 356.7 558.6 347.5 " class="b"/><polygon points="188.8 347.5 186.1 356.7 348 397.1 350.3 386.6 " class="b"/><path d="M373.7 139.7c44.9 0 92.4-8.4 119.7-14.2L483 90.2c0 0-56.6 14.9-109.3 14.9 -52.6 0-109.3-14.9-109.3-14.9l-10.4 35.3C281.3 131.3 328.9 139.7 373.7 139.7z" class="b"/><path d="M475.2 132.6c0.1 4.6 2.5 8.8 2.5 8.8s1.5-6 3.1-6c1.6 0 2.5 2.4 4.8 1.3 2.2-1.1 1.8-4.6 5.7-3.3 3.9 1.3-4.2 8.2-5.4 11.9 -3.4 10.2-0.6 12.6 1.3 7 1.1-3.4 6.6-6.4 11.3-9.4l-4.1-14C488.8 130 482.3 131.3 475.2 132.6z" class="c"/><path d="M493.1 151.5c0.6 0.8 4.1-0.2 7.5-1.2l-1.5-5.1C495.4 147.9 492.6 150.8 493.1 151.5z" class="c"/><path d="M497.3 156.1c-12.1 0.2-13.5 3-6.9 3.8 7.6 1 12.1 5.9 16 9.9l-3.7-12.6C500.6 156.6 498.7 156.1 497.3 156.1z" class="c"/><path d="M439.2 288.5c3.7 0.1 5.9-3.3 8-3.2 1.7 0.1 2.2 2 5.7 2.4 3.6 0.4 8-3.6 8.2-9.7 0.2-6.2-5.4-11.4-5.4-11.4s0.3 6.2-1.3 6.6c-1.6 0.4-3.1-1.6-5 0.1 -1.8 1.7-0.5 4.9-4.5 4.8 -4.1-0.1 1.7-9 1.8-12.9 0.4-10.8-3.1-12.2-3.2-6.3 -0.2 5.9-12.5 14.4-12.6 19.8C430.7 284.1 435.5 288.4 439.2 288.5z" class="c"/><path d="M489.4 194.5c4 1.2 7.6-4.8 9.8-6.1 2.2-1.4 3.9 0.8 7.3-3.9 6.4-8.5-8-18.3-13.4-20.6 -5.3-2.4-8-1.1-6.4-0.7 7 2.2 7.4 9.2 2.3 11.9 -8 4.2-5.1-10.9-6.2-10.5 -9 1.3-7.8 14-5.1 19.5 1.8 3.7 6.9 4 8.4 4.9S485.4 193.3 489.4 194.5z" class="c"/><path d="M448.9 228.2c0 0 4.1-11.3 11-4.6 7 6.8-10.5 10.7-10.6 18.3 -0.1 7.5 24.9-1.7 25.1-17.8 0.2-16.2-15.3-10.4-15.3-10.4s0.1-5.4-6.8-5.5c-6.9-0.1-10.3 7.7-12.2 11C442.9 218.8 448.1 225.6 448.9 228.2z" class="c"/><path d="M451.1 365.2c-1.8-3.9-8.7 2.9-24.1 10.5l23.3-5.6C451.6 368.5 451.9 367 451.1 365.2z" class="c"/><path d="M413.6 374.4c-2.9 1.7-0.3 3.4 0.2 4.4l3-0.7C416 376.2 416.1 373 413.6 374.4z" class="c"/><path d="M483.3 160.7c4-2.2-4.4-9.5-13.4-27.1 -1 0.2-2 0.4-3 0.5C472.6 150.5 476.7 164.2 483.3 160.7z" class="c"/><path d="M411.5 266c0.6 1.8-1.4 2.9-0.5 6.7 0.9 3.7 6.7 6.8 13.3 4.7 6.6-2.1 15.3-15 13.8-16.1 -1.5-1.1-12 7.5-13 6.1 -1-1.4 0.1-3.6-2.3-4.8 -2.4-1.2-3 2.6-4.3-1.6 -1.3-4.2 10.2-1.7 14.3-3 11.6-3.6 12.1-6.7 5.5-5.6 -13.1 2.1-20.9-9.9-28.1-7.8 -5.9 1.7-6.2 10.6-5 14.4S410.8 263.8 411.5 266z" class="c"/><path d="M544.3 322.9c7.5 0-2-24.9-18.1-24.9s-10.2 15.4-10.2 15.4 -5.4 0-5.4 6.9c0 6.9 7.8 10.2 11.1 12.1 -0.2-2.7 6.4-8 9-8.9 0 0-11.4-3.9-4.7-11C532.5 305.5 536.7 322.9 544.3 322.9z" class="c"/><path d="M477.2 234.8c-5.4-0.1-14.5 11.8-20.4 11.7 -5.9-0.1-4.6 3.4 6.1 3.5 3.8 0 13-5.3 13-1.2 -0.1 4.1-3.2 2.5-5 4.3 -1.7 1.8 0.2 3.4-0.3 4.9 -0.5 1.5-6.7 1-6.7 1s5 5.9 11.2 5.9c6.2 0.1 10.3-4.2 10.1-7.8 -0.2-3.6-2.2-4.1-2.2-5.8 0-2.1 3.5-4.1 3.6-7.9C486.7 239.9 482.7 234.9 477.2 234.8z" class="c"/><path d="M479.5 350.7c-1.3-2.3 1-3.8-3.6-7.5 -8.2-6.8-18.6 7.2-21.2 12.4 -2.6 5.2-1.5 8-1 6.3 2.5-6.9 9.5-7 12-1.7 3.8 8.2-11.1 4.6-10.7 5.7 0.1 1 0.4 1.9 0.7 2.7l29.1-7c0.2-0.3 0.3-0.5 0.4-0.9C486.6 356.8 480.8 353 479.5 350.7z" class="c"/><path d="M476.8 166.9c2.2-7.2-24.4-5.5-29.2 10 -4.8 15.4 11.7 14.4 11.7 14.4s-1.6 5.2 5 7.2c6.6 2 12.1-4.4 14.8-7 -2.7-0.6-5.8-8.5-5.8-11.2 0 0-7.1 9.7-11.9 1.2C456.7 172.9 474.5 174.1 476.8 166.9z" class="c"/><path d="M536.8 295.2c0 5.4 12 14.3 12 20.2 0 2.5 0.6 3.7 1.4 3.4l-9.2-31.5C538.7 289.1 536.8 291.9 536.8 295.2z" class="c"/><path d="M480 280.5c1.5-4.1-7.4-3.5-7.3-4.5 0.1-1 5.1-0.2 4.3-2.7 -0.7-2.5-5.6 1.2-6.6 0.2 -11.3-15.3-19.9-29.5-25.6-23.8 -3.5 3.5 8.6 8.6 23.8 25.6 2.8 3.1-6 3.9-2.7 6.8 3.3 2.9 3.6-3.1 4.9-1.6 1.3 1.5-5.6 6-1.8 8.1s2.9-5 4.7-4.9c1.8 0.1 2.1 6.4 5.3 4.1 3.2-2.3-4.6-5.9-4.2-7.4C475.4 278.8 479.1 282.9 480 280.5z" class="c"/><path d="M552.8 327.9l-1.6-5.4c-0.8 1.8-0.6 3.5 0.8 4.9C552.3 327.6 552.6 327.8 552.8 327.9z" class="c"/><path d="M450.6 358.1c2.3-13.1 16.3-16.4 16.6-23.9 0.3-6.1-8-9.3-12-9.5 -4-0.1-6.3 3.7-8.6 3.6 -1.8-0.1-2.3-2.3-6.1-2.7 -3.8-0.4-8.6 4-8.8 11 -0.2 6.9 9.1 19.3 10.6 18.3 1.5-1-3.2-13.8-1.5-14.3 1.7-0.5 3.3 1.3 5.3-0.6 2-1.9-1.5-3.7 2.9-3.5 4.4 0.1-1.8 10.2-1.9 14.5C446.7 363.1 449.5 364.6 450.6 358.1z" class="c"/><path d="M441.5 154.7c-1.1 3.5 1.3 9.5 6.5 11.1 5.2 1.6 17.2-7.2 22.9-5.4 5.7 1.8 5.4-1.9-4.9-5.1 -3.7-1.1-14 1.4-12.8-2.5 1.2-3.9 3.8-1.5 6-2.7 2.2-1.2 0.8-3.3 1.7-4.7 0.9-1.3 6.7 1 6.7 1s-3.1-7-9-8.9c-5.9-1.8-11.1 1.1-11.9 4.6 -0.8 3.5 0.9 4.5 0.4 6.2C446.5 150.1 442.6 151.1 441.5 154.7z" class="c"/><path d="M444.3 245.8c8.2-3.8 3.5-15.6-0.6-20.1 -2.8-3-7.8-1.8-9.5-2.3 -1.7-0.5-0.6-4.3-4.8-4.4 -4.2-0.1-5.9 6.7-7.6 8.7 -1.7 2-3.9 0.3-5.9 5.9 -3.7 10 12.9 15.2 18.7 16 5.8 0.8 8-1.2 6.3-1.1 -7.3-0.1-9.7-6.7-5.5-10.8C441.9 231.2 443.4 246.5 444.3 245.8z" class="c"/><path d="M435.8 361.9c10 3.9 12.5 1.2 7-1 -5.5-2.1-9.5-16.5-14.6-18.5 -5.1-2-10.6 1.2-12 4.6 -1.3 3.4 1.1 6.7 0.4 8.6 -0.6 1.6-2.6 1.4-4.2 4.6 -1.5 3.3 0.7 8.8 6.5 11 5.8 2.2 12.6-1.4 12.6-1.4s-5.9-1.8-5.8-3.4c0.1-1.6 2.5-2.4 1.6-4.7 -1-2.3-4.5-2.1-3-5.9C425.7 352.1 432.2 360.5 435.8 361.9z" class="c"/><path d="M406.4 375.2c-2.4 2.2 0.9 3.5 2.4 4.8l3.5-0.8C410.8 377.6 409 372.8 406.4 375.2z" class="c"/><path d="M300.3 237.8c3.8-1.2 4.7-5.6 6.8-6.3 1.8-0.6 3 1.4 6.7 0.5 3.7-0.9 6.7-6.7 4.5-13.3 -2.2-6.6-15.1-15.1-16.2-13.6 -1.1 1.5 7.7 11.9 6.3 13 -1.4 1-3.6-0.1-4.8 2.4 -1.2 2.4 2.6 2.9-1.5 4.3 -4.1 1.4-1.8-10.2-3.1-14.3 -3.8-11.5-6.8-12.1-5.7-5.5 2.3 13.1-9.7 21-7.5 28.2C287.7 238.8 296.6 239 300.3 237.8z" class="c"/><path d="M297.6 157.8c-3.6 0.2-4.1 2.2-5.8 2.2 -2.1 0-4.2-3.5-7.9-3.5 -3.7 0-8.6 4.1-8.6 9.5 0 5.4 12 14.3 12 20.2 0 5.9 3.5 4.6 3.5-6.2 0-3.8-5.4-12.9-1.4-12.9 4.1 0 2.6 3.2 4.4 4.9 1.8 1.7 3.4-0.2 5 0.2 1.5 0.5 1.1 6.7 1.1 6.7s5.8-5.1 5.8-11.2C305.5 161.6 301.1 157.6 297.6 157.8z" class="c"/><path d="M305.9 196.2c-10.8-0.2-12.2 3.2-6.3 3.3 5.9 0.1 14.6 12.3 20 12.4 5.4 0.1 9.6-4.7 9.7-8.4 0.1-3.7-3.3-5.9-3.3-8 0-1.7 2-2.2 2.3-5.7 0.3-3.6-3.7-8-9.8-8.1 -6.2-0.1-11.3 5.6-11.3 5.6s6.2-0.4 6.6 1.2c0.5 1.6-1.5 3.1 0.1 5 1.7 1.8 4.9 0.4 4.8 4.5C318.8 201.9 309.8 196.2 305.9 196.2z" class="c"/><path d="M290.3 208.5c0.7-5.8-1.3-8-1.2-6.3 0 7.3-6.6 9.8-10.7 5.7 -6.4-6.4 8.9-8.1 8.1-9 -3.9-8.2-15.7-3.3-20.1 0.9 -3 2.8-1.7 7.8-2.2 9.5 -0.5 1.7-4.3 0.6-4.3 4.8 0 4.2 6.8 5.8 8.8 7.5 2 1.7 0.4 4 5.9 5.8C284.6 231 289.7 214.3 290.3 208.5z" class="c"/><path d="M290.5 198.3c3.5 3.5 8.5-8.7 25.3-24.1 3.1-2.8 4 6 6.8 2.6 2.9-3.3-3.2-3.6-1.7-4.9 1.5-1.3 6.1 5.6 8.1 1.7 2-3.9-5.1-2.8-5-4.6 0.1-1.9 6.4-2.2 4-5.4 -2.3-3.2-5.9 4.7-7.3 4.3 -1.5-0.4 2.6-4.2 0.2-5.1 -4.1-1.4-3.4 7.4-4.4 7.4 -1 0-0.3-5.1-2.8-4.3 -2.5 0.8 1.3 5.6 0.2 6.6C298.8 183.9 284.8 192.6 290.5 198.3z" class="c"/><path d="M312.2 309.4c5.2 1.6 17.2-7.2 22.9-5.4 5.7 1.8 5.4-1.9-4.9-5.1 -3.7-1.1-14 1.4-12.8-2.5 1.2-3.9 3.8-1.5 6-2.7 2.2-1.2 0.8-3.3 1.7-4.7 0.9-1.3 6.7 1 6.7 1s-3.1-7-9-8.9c-5.9-1.8-11.1 1.1-11.9 4.6 -0.8 3.5 0.9 4.5 0.4 6.2 -0.6 2-4.5 3-5.6 6.5C304.6 301.9 307.1 307.8 312.2 309.4z" class="c"/><path d="M347.5 304.4c4.4-2.3-5.8-10.7-15.5-31.3 -1.8-3.8 6.9-2 4.5-5.7 -2.4-3.7-4.4 2-5.2 0.1 -0.8-1.8 7.1-4.2 4-7.2 -3.1-3.1-4.2 4-5.9 3.4 -1.7-0.6-0.2-6.8-4-5.5 -3.7 1.3 2.8 7 1.9 8.3 -0.8 1.3-3.3-3.8-4.8-1.7 -2.6 3.5 6.1 5.4 5.7 6.4 -0.3 0.9-4.9-1.2-4.9 1.4 0 2.6 5.7 0.5 6.3 1.7C336.3 292.2 340.4 308.2 347.5 304.4z" class="c"/><path d="M197.8 323.5c1.3 3.5 6.8 6.7 11.9 4.9 5.1-1.9 9.3-16.2 14.9-18.2 5.6-2 3.1-4.8-7-1.1 -3.6 1.3-10.3 9.5-11.7 5.7 -1.4-3.8 2.1-3.5 3.1-5.8s-1.4-3.1-1.5-4.7c-0.1-1.6 5.9-3.3 5.9-3.3s-5.1-2.8-10.3-2.1l-4.8 16.3C198.8 317.1 196.5 320.2 197.8 323.5z" class="c"/><path d="M209.4 282.3c2 5.8 9.1 8.7 9.1 8.7s-2.5-5.7-1.2-6.6c1.3-1 3.5 0.4 4.6-1.8 1.1-2.2-1.3-4.8 2.5-6.1 3.9-1.3 1.7 9 2.9 12.7 3.5 10.2 7.2 10.3 5.3 4.7 -1.9-5.6 6.5-17.9 4.8-23 -1.8-5.1-7.7-7.4-11.3-6.2 -3.5 1.2-4.4 5.1-6.4 5.8 -1.6 0.6-2.7-1.1-6.2-0.2 -0.9 0.2-1.8 0.8-2.5 1.6l-2.3 7.8C208.9 280.5 209.1 281.4 209.4 282.3z" class="c"/><path d="M234.7 303c2-4.3-9.9-5-28.6-14.1l-0.8 2.8C219.9 301.3 231.5 309.9 234.7 303z" class="c"/><path d="M341 310.6c2.2-7.2-24.4-5.5-29.2 10s11.7 14.3 11.7 14.3 -1.6 5.2 5 7.2c6.6 2 12.1-4.4 14.8-7 -2.7-0.6-5.8-8.5-5.8-11.2 0 0-7.1 9.7-11.9 1.2C320.9 316.6 338.7 317.8 341 310.6z" class="c"/><path d="M361.5 299.8c-12.1 0.2-13.5 3-6.9 3.8 5.5 0.7 9.4 3.5 12.6 6.5l1.9-8.5C366.3 300.8 363.4 299.8 361.5 299.8z" class="c"/><path d="M248.8 191.3c0 6.9 7.8 10.2 11.1 12.1 -0.2-2.7 6.4-8 9-8.9 0 0-11.4-3.9-4.7-11 6.7-7 10.9 10.4 18.4 10.4 7.5 0-2-24.9-18.1-24.9 -16.2 0-10.2 15.4-10.2 15.4S248.8 184.4 248.8 191.3z" class="c"/><path d="M268.4 280.2c-2.4-3.1-6.9-2.5-8.3-4.2 -1.1-1.5 0.3-3.2-1.9-6.4 -2.1-3.2-8.6-4-14.1 0.3 -5.5 4.3-9 19.4-7.2 19.9 1.8 0.5 8.6-11.3 10-10.4 1.5 1 1.2 3.4 3.9 3.7 2.7 0.3 1.9-3.5 4.6-0.1 2.7 3.4-9 5.2-12.4 7.9 -9.5 7.5-9 10.6-3.2 7.2 11.5-6.6 23.1 1.9 29-2.7C273.7 291.7 270.8 283.3 268.4 280.2z" class="c"/><path d="M557.6 344l-2.4-8.3c0.3 3.4-0.4 6.4-1.4 9.2L557.6 344z" class="c"/><path d="M357.3 295.3c1 1.3 11.2-2.8 13.7-2.5l1-4.4v-4.1C365.1 286.4 356.4 294 357.3 295.3z" class="c"/><path d="M357.3 307.6c-5.3-2.4-8-1.1-6.4-0.7 7 2.2 7.4 9.2 2.2 11.9 -8 4.2-5.2-10.9-6.2-10.4 -9 1.3-7.8 14-5.1 19.5 1.8 3.7 6.9 4 8.4 4.9 1.5 1-0.7 4.3 3.3 5.6 3.3 1 6.3-2.9 8.5-5.1l4.3-19.5C363.2 310.8 359.5 308.5 357.3 307.6z" class="c"/><path d="M233.2 311.9c-2.6-7.1-22.7 10.4-17.2 25.6 5.6 15.2 18 4.3 18 4.3s1.9 5.1 8.4 2.7c6.5-2.4 7-10.8 7.5-14.6 -2.5 1.2-9.7-3.3-11.5-5.4 0 0 0.2 12-8.7 8.2C220.9 328.9 235.8 319 233.2 311.9z" class="c"/><path d="M260 326.3c3.9-1.4 3.1-8.4 4.1-10.8 0.9-2.4 3.6-1.7 3.4-7.6 -0.1-10.6-17.5-9.6-23.1-8.3 -5.7 1.4-7.1 4-5.5 3.3 6.9-2.5 11.5 2.8 9 8.1 -3.8 8.2-10.7-5.5-11.3-4.6 -6.4 6.5 2.3 15.9 7.7 18.6 3.7 1.9 7.9-1 9.7-1.2C255.8 323.7 256.1 327.7 260 326.3z" class="c"/><path d="M363.9 268.8c-3.5-1.2-6.6 1.4-8.6 0.8 -1.6-0.5-1.5-2.6-4.8-3.9 -3.3-1.4-8.7 1.1-10.7 7 -1.9 5.8 2 12.5 2 12.5s1.5-6 3.1-6c1.6 0 2.5 2.4 4.8 1.3 2.2-1.1 1.8-4.6 5.7-3.3 3.9 1.3-4.2 8.2-5.4 11.8 -3.4 10.2-0.6 12.6 1.3 7 1.9-5.6 16-10.3 17.8-15.4C370.9 275.4 367.5 270 363.9 268.8z" class="c"/><path d="M552 337.6c0.7-5.8-1.3-8-1.2-6.3 0 7.3-6.6 9.8-10.7 5.7 -6.4-6.4 8.9-8.1 8.2-9 -3.9-8.2-15.7-3.3-20.1 0.9 -3 2.8-1.7 7.8-2.2 9.5 -0.5 1.7-4.3 0.6-4.3 4.8 0 4.1 6.5 5.7 8.6 7.4l19.6-4.8C551 342.7 551.7 339.6 552 337.6z" class="c"/><path d="M393.5 224.7v-82c-6 0.3-12 0.5-18 0.5v100.6C393.5 243.7 393.5 238.1 393.5 224.7z" class="c"/><path d="M393.9 137.6c-1-3.8-3-8.5-5.7-13.2 -4.2-7.4-10.5-15.4-14.5-15.4 -0.5 0-0.9 0.1-1.3 0.3 -0.1 0.1-0.3 0.2-0.4 0.3 -0.1-0.1-0.3-0.2-0.4-0.3 -0.4-0.2-0.8-0.3-1.3-0.3 -3.9 0-10.3 8-14.5 15.4 -2.6 4.7-4.7 9.4-5.7 13.2 -1.2 4.4-0.9 7.1 0.9 8.1 0.4 0.2 0.8 0.3 1.3 0.3 3.6 0 9.1-6.6 13.3-13.4 -5 17.3-4.8 19.9-3.6 34.8l0 0.3 2.5-0.2 0-0.3c-1.4-17-1.4-17.6 6.6-44.4 1.1 11.5 3.9 39.7 6.3 53.6l2.5-0.4c-2.3-13.4-5-40.1-6.2-52.2 1 2.2 2.1 4.5 3.4 6.9 4.2 7.4 10.5 15.4 14.5 15.4l0 0c0.5 0 0.9-0.1 1.3-0.3C394.7 144.7 395 142 393.9 137.6zM364.9 129.5c-5 8.8-10.4 14.3-12.6 14.3 -0.2 0-0.2 0-0.2-0.1 -0.3-0.2-0.9-1.5 0.2-5.6 1-3.7 2.9-8.2 5.5-12.7 5-8.8 10.4-14.3 12.6-14.3 0.1 0 0.2 0 0.2 0.1 0.1 0.1 0.3 0.3 0.4 0.8 -0.1 0.6-0.1 1.3 0 2 -0.1 0.5-0.1 1.1-0.3 1.7l-0.9 3.1c-0.1 0.5-0.3 0.9-0.4 1.3C368.3 123.1 366.7 126.3 364.9 129.5zM391.9 143.8c0 0-0.1 0.1-0.2 0.1l0 0c-2.1 0-7.6-5.5-12.6-14.3 -2.6-4.5-4.5-9-5.5-12.7 -0.3-1.2-0.5-2.1-0.6-2.8 0.1-0.7 0.1-1.4 0-2 0.1-0.5 0.3-0.7 0.4-0.8 0 0 0.1-0.1 0.2-0.1 2.1 0 7.6 5.5 12.6 14.3 2.6 4.5 4.5 9 5.5 12.7C392.8 142.2 392.3 143.6 391.9 143.8z" fill="#FFF"/></svg>