<svg version="1.1" id="Layer_1" xmlns="http://www.w3.org/2000/svg" xmlns:xlink="http://www.w3.org/1999/xlink" x="0px" y="0px"
	 viewBox="0 0 60 63" enable-background="new 0 0 60 63" xml:space="preserve">
<circle fill="none" stroke="#DDE5CE" stroke-width="2" stroke-miterlimit="10" cx="29.9" cy="32" r="28"/>
<path fill="#DDE5CE" stroke="#DDE5CE" stroke-width="0.4337" stroke-miterlimit="10" d="M17.165,41.83c0.434,0,0.781,0,1.127,0
	c0.087,0.434,0.174,0.867,0.347,1.301c0.607,1.562,2.168,2.341,3.816,2.081c1.561-0.26,2.775-1.647,2.775-3.296
	c0-1.561,0.521-2.861,1.648-3.816c0.954-0.867,1.995-1.647,3.036-2.428c1.215-0.867,2.342-1.821,3.296-2.949
	c1.734-2.081,2.429-4.51,2.168-7.111c-0.521-4.857-2.948-6.592-6.938-7.633c-4.684-0.954-9.367,2.342-10.061,7.025
	c-0.087,0.434-0.087,0.954-0.174,1.388c-0.347,0-0.693,0-1.127,0c0-0.347,0-0.694,0.086-1.041c0.434-4.423,3.816-7.893,8.153-8.586
	c5.03-0.867,9.975,2.515,11.015,7.459c0.868,4.25-0.347,7.806-3.643,10.582c-1.214,1.041-2.602,1.908-3.816,2.949
	c-0.521,0.434-1.041,0.867-1.475,1.387c-0.694,0.781-1.041,1.648-1.041,2.689c-0.087,2.341-1.735,4.249-3.99,4.51
	c-2.342,0.261-4.51-1.128-5.031-3.383C17.251,42.61,17.165,42.177,17.165,41.83L17.165,41.83z"/>
<path fill="#DDE5CE" d="M49.2,27.7c-0.4-2.4-1.4-4.5-2.9-6.4C46.2,21.2,46,21,45.9,21c-0.4,0.3-0.801,0.6-1.101,0.9
	c-0.3,0.3,0.101,0.5,0.2,0.7c3.4,4.6,3.4,10.9,0,15.5c-0.4,0.601-0.4,0.7,0.1,1.2c0.101,0.101,0.2,0.2,0.301,0.3
	c0.3,0.2,0.5,0.2,0.8-0.1c2.1-2.7,3.1-5.7,3.2-9.5C49.4,29.5,49.3,28.6,49.2,27.7L49.2,27.7z"/>
<path fill="#DDE5CE" d="M43.7,23.9c-0.4-0.5-0.5-0.5-1-0.1c-0.101,0.1-0.2,0.2-0.3,0.3c-0.301,0.3-0.4,0.6-0.101,1
	c2.3,3.2,2.3,7.4,0,10.7C41.9,36.3,41.9,36.4,42.4,36.9c0.1,0.1,0.3,0.199,0.399,0.3c0.3,0.2,0.5,0.2,0.8-0.101
	c1.4-2,2.2-4.1,2.2-6.399C45.8,28.1,45.1,25.9,43.7,23.9L43.7,23.9z"/>
<path fill="#DDE5CE" d="M40.9,26.2c-0.2-0.3-0.4-0.3-0.7-0.1c-0.101,0.1-0.3,0.2-0.4,0.3c-0.6,0.5-0.6,0.6-0.2,1.3
	c1,1.9,1,3.8-0.1,5.7c-0.3,0.5-0.2,0.8,0.1,1.1c0.101,0.1,0.301,0.3,0.4,0.4c0.3,0.199,0.5,0.199,0.8-0.101c0.8-1.3,1.3-2.6,1.3-4.1
	C42.2,28.9,41.7,27.5,40.9,26.2L40.9,26.2z"/>
</svg>
