<svg version="1.1" xmlns="http://www.w3.org/2000/svg" x="0" y="0" width="60" height="63" viewBox="0 0 60 63" enable-background="new 0 0 60 63" xml:space="preserve"><circle fill="none" stroke="#DDE5CE" stroke-width="2" stroke-miterlimit="10" cx="29.9" cy="32" r="28"/><path fill="#DDE5CE" stroke="#DDE5CE" stroke-width="0.5" stroke-miterlimit="10" d="M13.1 43.4c0.5 0 0.9 0 1.3 0 0.1 0.5 0.2 1 0.4 1.5 0.7 1.8 2.5 2.7 4.4 2.4 1.8-0.3 3.2-1.9 3.2-3.8 0-1.8 0.6-3.3 1.9-4.4 1.1-1 2.3-1.9 3.5-2.8 1.4-1 2.7-2.1 3.8-3.4 2-2.4 2.8-5.2 2.5-8.2 -0.6-5.6-3.4-7.6-8-8.8 -5.4-1.1-10.8 2.7-11.6 8.1 -0.1 0.5-0.1 1.1-0.2 1.6 -0.4 0-0.8 0-1.3 0 0-0.4 0-0.8 0.1-1.2 0.5-5.1 4.4-9.1 9.4-9.9 5.8-1 11.5 2.9 12.7 8.6 1 4.9-0.4 9-4.2 12.2 -1.4 1.2-3 2.2-4.4 3.4 -0.6 0.5-1.2 1-1.7 1.6 -0.8 0.9-1.2 1.9-1.2 3.1 -0.1 2.7-2 4.9-4.6 5.2 -2.7 0.3-5.2-1.3-5.8-3.9C13.2 44.3 13.1 43.8 13.1 43.4H13.1zM18.4 26.3c0 0.5 0 1 0 1.4 1-0.1 1.9 0.1 2.6 0.6 0.8 0.6 1.2 1.4 1.3 2.3 0.1 0.8-0.1 1.5-0.6 2.2 -0.6 0.9-1.6 1.4-2.7 1.5v1.3c2.1 0.1 4.1-1.6 4.5-3.8 0.2-1.2 0-2.2-0.6-3.2 -0.8-1.2-1.9-1.9-3.3-2.2"/><path fill="#DDE5CE" d="M49.2 27.7c-0.4-2.4-1.4-4.5-2.9-6.4 -0.1-0.1-0.3-0.3-0.4-0.3 -0.4 0.3-0.8 0.6-1.1 0.9 -0.3 0.3 0.1 0.5 0.2 0.7 3.4 4.6 3.4 10.9 0 15.5 -0.4 0.6-0.4 0.7 0.1 1.2 0.1 0.1 0.2 0.2 0.3 0.3 0.3 0.2 0.5 0.2 0.8-0.1 2.1-2.7 3.1-5.7 3.2-9.5C49.4 29.5 49.3 28.6 49.2 27.7H49.2z"/><path fill="#DDE5CE" d="M43.7 23.9c-0.4-0.5-0.5-0.5-1-0.1 -0.1 0.1-0.2 0.2-0.3 0.3 -0.3 0.3-0.4 0.6-0.1 1 2.3 3.2 2.3 7.4 0 10.7 -0.4 0.5-0.4 0.6 0.1 1.1 0.1 0.1 0.3 0.2 0.4 0.3 0.3 0.2 0.5 0.2 0.8-0.1 1.4-2 2.2-4.1 2.2-6.4C45.8 28.1 45.1 25.9 43.7 23.9H43.7z"/><path fill="#DDE5CE" d="M40.9 26.2c-0.2-0.3-0.4-0.3-0.7-0.1 -0.1 0.1-0.3 0.2-0.4 0.3 -0.6 0.5-0.6 0.6-0.2 1.3 1 1.9 1 3.8-0.1 5.7 -0.3 0.5-0.2 0.8 0.1 1.1 0.1 0.1 0.3 0.3 0.4 0.4 0.3 0.2 0.5 0.2 0.8-0.1 0.8-1.3 1.3-2.6 1.3-4.1C42.2 28.9 41.7 27.5 40.9 26.2H40.9z"/></svg>