<svg version="1.1" id="Layer_1" xmlns="http://www.w3.org/2000/svg" x="0" y="0" viewBox="0 0 60 63" enable-background="new 0 0 60 63" xml:space="preserve"><circle fill="none" stroke="#ffffff" stroke-width="2" stroke-miterlimit="10" cx="29.9" cy="32" r="28"/><path fill="#ffffff" stroke="#ffffff" stroke-width="0.43" stroke-miterlimit="10" d="M17.17 41.83c0.43 0 0.78 0 1.13 0 0.09 0.43 0.17 0.87 0.35 1.3 0.61 1.56 2.17 2.34 3.82 2.08 1.56-0.26 2.78-1.65 2.78-3.3 0-1.56 0.52-2.86 1.65-3.82 0.95-0.87 2-1.65 3.04-2.43 1.22-0.87 2.34-1.82 3.3-2.95 1.73-2.08 2.43-4.51 2.17-7.11 -0.52-4.86-2.95-6.59-6.94-7.63 -4.68-0.95-9.37 2.34-10.06 7.03 -0.09 0.43-0.09 0.95-0.17 1.39 -0.35 0-0.69 0-1.13 0 0-0.35 0-0.69 0.09-1.04 0.43-4.42 3.82-7.89 8.15-8.59 5.03-0.87 9.98 2.52 11.02 7.46 0.87 4.25-0.35 7.81-3.64 10.58 -1.21 1.04-2.6 1.91-3.82 2.95 -0.52 0.43-1.04 0.87-1.47 1.39 -0.69 0.78-1.04 1.65-1.04 2.69 -0.09 2.34-1.73 4.25-3.99 4.51 -2.34 0.26-4.51-1.13-5.03-3.38C17.25 42.61 17.17 42.18 17.17 41.83L17.17 41.83z"/><path fill="#ffffff" d="M49.2 27.7c-0.4-2.4-1.4-4.5-2.9-6.4C46.2 21.2 46 21 45.9 21c-0.4 0.3-0.8 0.6-1.1 0.9 -0.3 0.3 0.1 0.5 0.2 0.7 3.4 4.6 3.4 10.9 0 15.5 -0.4 0.6-0.4 0.7 0.1 1.2 0.1 0.1 0.2 0.2 0.3 0.3 0.3 0.2 0.5 0.2 0.8-0.1 2.1-2.7 3.1-5.7 3.2-9.5C49.4 29.5 49.3 28.6 49.2 27.7L49.2 27.7z"/><path fill="#ffffff" d="M43.7 23.9c-0.4-0.5-0.5-0.5-1-0.1 -0.1 0.1-0.2 0.2-0.3 0.3 -0.3 0.3-0.4 0.6-0.1 1 2.3 3.2 2.3 7.4 0 10.7C41.9 36.3 41.9 36.4 42.4 36.9c0.1 0.1 0.3 0.2 0.4 0.3 0.3 0.2 0.5 0.2 0.8-0.1 1.4-2 2.2-4.1 2.2-6.4C45.8 28.1 45.1 25.9 43.7 23.9L43.7 23.9z"/><path fill="#ffffff" d="M40.9 26.2c-0.2-0.3-0.4-0.3-0.7-0.1 -0.1 0.1-0.3 0.2-0.4 0.3 -0.6 0.5-0.6 0.6-0.2 1.3 1 1.9 1 3.8-0.1 5.7 -0.3 0.5-0.2 0.8 0.1 1.1 0.1 0.1 0.3 0.3 0.4 0.4 0.3 0.2 0.5 0.2 0.8-0.1 0.8-1.3 1.3-2.6 1.3-4.1C42.2 28.9 41.7 27.5 40.9 26.2L40.9 26.2z"/></svg>