<?xml version="1.0" encoding="utf-8"?>
<!-- Generator: Adobe Illustrator 16.0.0, SVG Export Plug-In . SVG Version: 6.00 Build 0)  -->
<!DOCTYPE svg PUBLIC "-//W3C//DTD SVG 1.1//EN" "http://www.w3.org/Graphics/SVG/1.1/DTD/svg11.dtd">
<svg version="1.1" id="Layer_1" xmlns="http://www.w3.org/2000/svg" xmlns:xlink="http://www.w3.org/1999/xlink" x="0px" y="0px"
	 width="60px" height="63px" viewBox="0 0 60 63" enable-background="new 0 0 60 63" xml:space="preserve">
<g>
	<path fill="#DDE5CE" d="M31.234,10.665c4.358,1.001,7.118,3.902,7.122,8.061c0.004,4.246,0.022,8.49-0.018,12.734
		c-0.009,0.814-0.135,1.66-0.4,2.432c-1.334,3.873-5.173,5.985-9.628,5.36c-3.679-0.516-6.75-3.911-6.808-7.689
		c-0.065-4.405-0.071-8.811,0-13.215c0.044-2.777,1.386-5.001,3.856-6.467c1.061-0.628,2.287-1.114,3.543-1.336L31.234,10.665z"/>
	<path fill-rule="evenodd" clip-rule="evenodd" fill="#DDE5CE" d="M38.458,49.91c1.163,0.009,1.951,0.758,1.929,1.795
		c-0.021,0.982-0.804,1.693-1.942,1.695c-5.711,0.008-11.424,0.008-17.138,0.001c-1.097-0.003-1.91-0.764-1.924-1.736
		c-0.013-0.945,0.826-1.746,1.903-1.755c2.241-0.015,4.484-0.005,6.794-0.005c0-1.213,0-2.389,0-3.613
		c-2.818-0.373-5.428-1.288-7.669-3.068c-3.45-2.739-5.673-6.199-6.137-10.666c-0.017-0.169-0.094-0.333-0.142-0.498
		c0-1.808-0.586-3.713,0-5.424c0.035-0.103,0.139-0.168,0.199-0.258c0.538-0.795,1.253-1.117,1.992-0.896
		c0.806,0.241,1.283,0.916,1.312,1.849c0.054,1.8-0.033,3.621,0.191,5.399c0.668,5.315,5.698,9.862,11.089,10.162
		c6.625,0.366,12.005-3.831,13.102-10.375c0.271-1.618,0.068-3.312,0.168-4.967c0.031-0.542,0.198-1.188,0.541-1.579
		c0.861-0.987,2.445-0.872,2.899,0.665c0.562,1.901,0,3.966,0,5.949c-0.266,1.062-0.424,2.168-0.813,3.186
		c-2.26,5.893-6.471,9.45-12.751,10.467c-0.112,0.019-0.222,0.04-0.38,0.067c0,1.172,0,2.326,0,3.561"/>
</g>
<circle fill-rule="evenodd" clip-rule="evenodd" fill="none" stroke="#DDE5CE" stroke-width="2" stroke-miterlimit="10" cx="29.873" cy="31.977" r="28.024"/>
</svg>
