<?xml version="1.0" encoding="utf-8"?>
<!-- Generator: Adobe Illustrator 16.0.0, SVG Export Plug-In . SVG Version: 6.00 Build 0)  -->
<!DOCTYPE svg PUBLIC "-//W3C//DTD SVG 1.1//EN" "http://www.w3.org/Graphics/SVG/1.1/DTD/svg11.dtd">
<svg version="1.1" id="Layer_1" xmlns="http://www.w3.org/2000/svg" xmlns:xlink="http://www.w3.org/1999/xlink" x="0px" y="0px"
	 width="60px" height="63px" viewBox="0 0 60 63" enable-background="new 0 0 60 63" xml:space="preserve">
<circle fill="none" stroke="#DDE5CE" stroke-width="2" stroke-miterlimit="10" cx="29.9" cy="32" r="28"/>
<path fill="#DDE5CE" stroke="#DDE5CE" stroke-width="0.5413" stroke-miterlimit="10" d="M13.059,43.391c0.484,0,0.9,0,1.3,0
	c0.128,0.5,0.2,1,0.4,1.459c0.682,1.801,2.5,2.7,4.4,2.4c1.777-0.314,3.196-1.945,3.197-3.77c0.001-1.767,0.648-3.256,1.923-4.42
	c1.11-1.015,2.32-1.918,3.521-2.828c1.361-1.033,2.729-2.051,3.849-3.36c2.026-2.378,2.828-5.154,2.545-8.226
	c-0.639-5.559-3.383-7.645-7.969-8.831c-5.361-1.111-10.818,2.677-11.637,8.087c-0.08,0.527-0.121,1.062-0.183,1.616
	c-0.395,0-0.802,0-1.276,0c0.019-0.392,0.017-0.784,0.058-1.172c0.547-5.051,4.368-9.067,9.411-9.898c5.787-0.955,11.5,2.9,12.7,8.6
	c0.979,4.852-0.418,9.005-4.225,12.235c-1.412,1.199-2.954,2.246-4.409,3.398c-0.622,0.491-1.211,1.039-1.75,1.601
	c-0.795,0.86-1.186,1.892-1.212,3.087c-0.06,2.654-2.045,4.865-4.572,5.156c-2.727,0.312-5.153-1.326-5.819-3.946
	C13.155,44.3,13.1,43.8,13.1,43.391H13.059z"/>
<path fill="#DDE5CE" d="M18.429,26.25c-0.006,0.475-0.004,0.953,0.001,1.436c0.966-0.064,1.853,0.058,2.618,0.642
	c0.774,0.589,1.216,1.377,1.315,2.339c0.081,0.781-0.113,1.51-0.558,2.16c-0.65,0.948-1.584,1.396-2.697,1.468v1.286
	c2.141,0.108,4.149-1.595,4.524-3.8c0.2-1.159-0.009-2.159-0.6-3.159c-0.8-1.197-1.904-1.897-3.3-2.197"/>
<g>
	<g>
		<g>
			<path fill="#DDE5CE" d="M49.172,27.664c-0.424-2.362-1.419-4.476-2.912-6.355c-0.093-0.114-0.318-0.285-0.357-0.257
				c-0.387,0.278-0.783,0.558-1.104,0.905c-0.29,0.3,0.101,0.5,0.2,0.7c3.445,4.6,3.4,10.933-0.003,15.485
				c-0.438,0.578-0.429,0.7,0.101,1.203c0.104,0.1,0.199,0.199,0.299,0.299c0.306,0.201,0.5,0.201,0.801-0.107
				c2.072-2.678,3.111-5.707,3.17-9.544C49.404,29.5,49.3,28.6,49.2,27.664H49.172z"/>
		</g>
	</g>
	<g>
		<g>
			<path fill="#DDE5CE" d="M43.678,23.908c-0.376-0.521-0.501-0.537-0.998-0.141c-0.115,0.089-0.219,0.195-0.324,0.295
				c-0.34,0.321-0.395,0.606-0.082,1.039c2.295,3.2,2.3,7.4,0,10.7c-0.373,0.531-0.364,0.6,0.1,1.102
				c0.125,0.101,0.3,0.201,0.4,0.349c0.312,0.2,0.5,0.2,0.8-0.13c1.426-1.967,2.178-4.148,2.194-6.445
				C45.811,28.1,45.1,25.9,43.7,23.908H43.678z"/>
		</g>
	</g>
	<g>
		<g>
			<path fill="#DDE5CE" d="M40.865,26.216c-0.202-0.304-0.403-0.342-0.68-0.14c-0.129,0.097-0.26,0.192-0.381,0.303
				c-0.558,0.517-0.558,0.61-0.203,1.268c1.02,1.9,1,3.797-0.055,5.701c-0.281,0.479-0.207,0.799,0.1,1.094
				c0.141,0.101,0.301,0.301,0.4,0.381c0.293,0.199,0.5,0.199,0.754-0.131c0.832-1.269,1.272-2.648,1.287-4.144
				C42.172,28.9,41.7,27.5,40.9,26.216H40.865z"/>
		</g>
	</g>
</g>
</svg>
