<svg version="1.1" xmlns="http://www.w3.org/2000/svg" x="0" y="0" width="768" height="975" viewBox="0 24.5 768 975" enable-background="new 0 24.5 768 975" xml:space="preserve"><polyline fill="#79c3b3" points="0 999.55 0 25 768 25 768 999.55 "/><g display="none"><polyline display="inline" fill="#409D8B" points="770 1000.5 770 929.33 2 929.33 2 1000.5 "/><rect x="39" y="943.56" display="inline" fill="#DDE5CE" width="86" height="8.54"/><rect x="39" y="959.7" display="inline" fill="#DDE5CE" width="86" height="8.54"/><rect x="38" y="974.88" display="inline" fill="#DDE5CE" width="86" height="8.54"/></g><g display="none"><path display="inline" fill="#DDE5CE" d="M396 302.66c-0.1-0.36-3.69-20.73-7.98-45.27 -4.29-24.55-7.92-44.86-8.06-45.13 -0.17-0.32-8.13 3.3-22.24 10.12 -20.61 9.97-22 10.71-22.44 12 -0.26 0.76-1.53 6.54-2.83 12.84l-2.36 11.46 -8.92 4.33 -8.92 4.34 -2.98-16.5 -2.98-16.5 -12.19-11.8c-6.71-6.49-12.17-11.89-12.13-12.01 0.03-0.11 3.99-2.1 8.8-4.42l8.74-4.22 12.43 5.48 12.43 5.48 22.21-10.73c17.32-8.37 22.11-10.86 21.77-11.31 -0.24-0.31-15.7-15.46-34.35-33.66l-33.91-33.09 11.2-5.41 11.19-5.41 46.16 28.27 46.16 28.27 30.58-14.75c21.44-10.34 31.23-14.84 32.76-15.06 1.4-0.2 3.23-0.06 5.15 0.41 3.79 0.91 6.2 2.79 7.79 6.08 1.48 3.05 1.61 5.05 0.54 8.15 -1.65 4.77-1.26 4.54-35.65 21.22l-30.99 15.04 -2.57 40.12c-1.42 22.07-2.89 44.95-3.27 50.85l-0.7 10.72 -11.13 5.38C399.04 301.93 396.13 303.15 396 302.66z"/></g><path fill="#409D8B" d="M578.35 104.16c-123.96-39.56-256.19-54.79-388.68-44.48 -18.15 1.34-31.49 15.83-29.8 31.67 10.18 98.4 20.35 196.78 30.52 295.18 1.69 15.86 15.05 23.65 30.11 17.97 71.89-26.77 147.63-44.27 225.19-52.19L407.3 423.08l124.52-75.59c13.38-0.13 26.79-0.03 40.23 0.41 16.58 0.45 30.31-7.15 30.6-17.61 1.88-65.59 3.77-131.19 5.64-196.78C608.57 123.06 595.28 109.63 578.35 104.16z"/><defs><rect y="25" width="768" height="1027"/></defs><clipPath><use overflow="visible"/></clipPath><g clip-path="url(#SVGID_2_)"><path fill="#0066B2" d="M874.75 760.9c105.6 60.3 194.6 135.5 274.8 210.8C1069.65 896.5 980.45 821.2 874.75 760.9z"/><path fill="none" d="M-321.31 936.84l40.85-25.69C-294.06 919.57-307.68 928.14-321.31 936.84z"/><path fill="#0990D3" d="M1340.05 1206.3c-54.1-77.6-123.6-151.6-201.2-224.6 -83.5-78.5-176.2-156.8-286.3-219.7 -117.9-67.3-256.2-122.3-412.8-144.1 -172.3-24.1-372-8.2-582 48.6 -165.1 44.6-335.7 93.5-514.2 137.1l-20 163.3 73.5 9c34.9-17.96 69.58-35.65 104.08-52.98 116.15-59.7 230.03-114.98 341.92-163.02 213.4-91.6 419.6-120.3 592.8-106.9 156.7 12.3 296.5 60.5 415 123.3 110.9 58.8 203.7 134.8 286.2 210.3 77.4 71 147.3 144.2 201.2 221.7 0.1 0.1 0.1 0.2 0.2 0.3l-3.36-0.42c0.99 1.41 1.98 2.82 2.96 4.23 0.1 0.2 0.3 0.4 0.4 0.6l6.8 0.8C1343.55 1211.3 1341.85 1208.8 1340.05 1206.3z"/><path fill="#BBD367" d="M1338.25 1208.3c-53.9-77.5-123.8-150.7-201.2-221.7 -82.5-75.5-175.3-151.5-286.2-210.3 -118.5-62.8-258.3-111-415-123.3 -173.2-13.4-379.4 15.3-592.8 106.9 -111.9 48.05-225.78 103.33-341.92 163.03 -31.56 16.22-63.28 32.76-95.18 49.58l184.4 22.5c2.54-1.72 5.07-3.42 7.6-5.13l-3-0.37 83.74-52.66c13.63-8.7 27.25-17.27 40.85-25.69l100.91-63.45c215.3-123.1 433.2-164.4 611.4-161.4 156.2 2.6 296.6 44.5 415.3 103 111.4 54.9 205.1 127.8 287.9 201.4 75.2 66.9 143.6 136.1 196.5 211.1l-4.83-0.58c1.56 2.16 3.1 4.32 4.63 6.48l3.74 0.47 3.36 0.42C1338.35 1208.5 1338.35 1208.4 1338.25 1208.3z"/><path fill="#F6C063" d="M1135.05 990.7c-82.8-73.6-176.5-146.5-287.9-201.4 -118.7-58.5-259.1-100.4-415.3-103 -178.2-3-396.1 38.3-611.4 161.4l-100.91 63.45 -40.85 25.69L-405.05 989.5l3 0.37 100.2 12.23c1.54-1.17 3.08-2.32 4.62-3.49l-1.72-0.21c28.9-21.9 57.8-42.9 86.9-63.1C8.95 782 239.25 726.2 422.85 719.4c159-5.9 301.3 30.6 420.4 84.3 111.7 50.4 206.1 120.6 289.3 192.2 73.1 62.9 139.6 128.9 191.8 200.7l-3-0.37c1.17 1.59 2.34 3.18 3.5 4.77l1.87 0.22 4.83 0.58C1278.65 1126.8 1210.25 1057.6 1135.05 990.7z"/><path fill="#D69D3C" d="M1132.55 995.9c-83.2-71.6-177.6-141.8-289.3-192.2 -119.1-53.7-261.4-90.2-420.4-84.3C239.25 726.2 8.95 782-212.05 935.3c-29.1 20.2-58 41.2-86.9 63.1l1.72 0.21 68.98 8.39c2.37-1.66 4.75-3.29 7.12-4.93l-6.32-0.77C-0.65 842.7 226.25 766.9 409.65 750.3c162.1-14.7 309.1 16.5 429.9 66.1 112 46 206.8 113 290.8 182.7 70.9 58.8 136.5 121.7 187.8 191.1l-5.63-0.7c1.56 2.06 3.11 4.13 4.64 6.21l4.2 0.52 3 0.37C1272.15 1124.8 1205.65 1058.8 1132.55 995.9z"/><path fill="#EA5F72" d="M1130.35 999.1C1046.35 929.4 951.55 862.4 839.55 816.4 718.75 766.8 571.75 735.6 409.65 750.3c-183.4 16.6-410.3 92.4-637.1 251l6.32 0.77 55.28 6.73c1.37-0.91 2.75-1.81 4.12-2.72l-3.91-0.48c198.1-131.9 397.5-198.9 560.1-222 164.7-23.3 317.2 1.9 441 47.9 111.9 41.5 207.8 106.7 291.9 174.1 69.3 55.5 133.6 114.2 183.9 180.41l-3.11-0.38c0.94 1.22 1.88 2.44 2.81 3.67l1.57 0.2 5.64 0.71C1266.85 1120.8 1201.25 1057.9 1130.35 999.1z"/><path fill="#CB394D" d="M1127.35 1005.6c-84.1-67.4-180-132.6-291.9-174.1 -123.8-46-276.3-71.2-441-47.9 -162.6 23.1-362 90.1-560.1 222l3.91 0.48 49.99 6.12c170.3-106.7 342.3-165.9 485.6-192.4 171.6-31.7 328-13.1 457.7 29.6 111.3 36.7 207.7 99 292.7 164.8 66.7 51.7 128.2 108 177.9 170.7l5.98 0.72 3.12 0.38C1260.95 1119.8 1196.65 1061.1 1127.35 1005.6z"/></g></svg>