<?xml version="1.0" encoding="utf-8"?>
<!-- Generator: Adobe Illustrator 16.0.0, SVG Export Plug-In . SVG Version: 6.00 Build 0)  -->
<!DOCTYPE svg PUBLIC "-//W3C//DTD SVG 1.1//EN" "http://www.w3.org/Graphics/SVG/1.1/DTD/svg11.dtd">
<svg version="1.1" id="Layer_1" xmlns="http://www.w3.org/2000/svg" xmlns:xlink="http://www.w3.org/1999/xlink" x="0px" y="0px"
	 width="768px" height="1024px" viewBox="0 0 768 1024" enable-background="new 0 0 768 1024" xml:space="preserve">
<g id="background_color">
	<polyline fill="#65BCAB" points="0,1027 0,0 768,0 768,1027 	"/>
</g>
<g id="toolbar" display="none">
	<polyline display="inline" fill="#409D8B" points="770,1028 770,953 2,953 2,1028 	"/>
	<rect x="39" y="968" display="inline" fill="#DDE5CE" width="86" height="9"/>
	<rect x="39" y="985" display="inline" fill="#DDE5CE" width="86" height="9"/>
	<rect x="38" y="1001" display="inline" fill="#DDE5CE" width="86" height="9"/>
</g>
<g id="airplsnr" display="none">
	<path id="path1962" display="inline" fill="#DDE5CE" d="M396,292.607c-0.098-0.375-3.688-21.846-7.98-47.711
		c-4.292-25.867-7.922-47.27-8.067-47.562c-0.172-0.342-8.13,3.473-22.24,10.66c-20.614,10.502-22.004,11.283-22.441,12.65
		c-0.256,0.801-1.528,6.891-2.826,13.533l-2.36,12.076l-8.917,4.568l-8.918,4.568l-2.977-17.387l-2.977-17.389l-12.193-12.438
		c-6.706-6.84-12.166-12.533-12.133-12.652c0.033-0.119,3.993-2.217,8.8-4.66l8.739-4.445l12.434,5.775l12.433,5.777l22.21-11.312
		c17.321-8.82,22.113-11.443,21.767-11.914c-0.245-0.332-15.703-16.293-34.351-35.471l-33.906-34.867l11.195-5.704L322.483,93
		l46.156,29.793l46.156,29.794l30.58-15.545c21.438-10.895,31.231-15.643,32.755-15.874c1.401-0.213,3.229-0.061,5.153,0.428
		c3.788,0.963,6.197,2.944,7.787,6.406c1.477,3.217,1.608,5.325,0.541,8.583c-1.653,5.031-1.256,4.783-35.643,22.363l-30.992,15.848
		l-2.572,42.281c-1.418,23.254-2.891,47.367-3.273,53.584l-0.699,11.301l-11.127,5.664C399.037,291.834,396.131,293.115,396,292.607
		z"/>
</g>
<g id="word" display="none">
	<rect x="333" y="411" display="inline" fill="none" width="240" height="54"/>
	<text transform="matrix(1 0 0 1 333 438.4316)" display="inline" fill="#DDE5CE" font-family="'Dosis-Regular'" font-size="36">AIRPLANE</text>
</g>
<g id="Layer_8">
</g>
<g id="video" display="none">
</g>
<g id="Layer_4">
	<g>
		<path fill="#0990D3" d="M1138.851,956.7c-83.5-78.5-176.199-156.8-286.301-219.7c-117.898-67.3-256.199-122.3-412.8-144.1
			c-172.3-24.102-372-8.2-582,48.6c-165.1,44.6-335.7,93.5-514.2,137.1l-20,163.302l73.5,9c152.3-78.4,300.7-151.5,445.8-213.602
			c213.6-91.3,419.5-119.5,593.5-105.6c156.399,12.5,296.399,60.8,414.301,123.5c111.1,59.1,203.6,134.898,285.898,210.5
			c77.4,71.1,147.7,143.898,201.5,221.7c0.101,0.198,0.301,0.398,0.4,0.6l6.8,0.8c-1.7-2.5-3.399-5-5.2-7.5
			C1285.95,1103.7,1216.45,1029.7,1138.851,956.7z"/>
		<path fill="#0066B2" d="M874.75,735.9c105.601,60.3,194.601,135.5,274.8,210.8C1069.65,871.5,980.45,796.2,874.75,735.9z"/>
		<path fill="#BBD367" d="M430.95,665.6c156.2,3.2,296.6,45.4,415.5,104c111.399,54.9,205,127.9,287.899,201.4
			c75.199,66.7,143.899,136.5,197,211.7l7.101,0.898c-0.101-0.1-0.101-0.198-0.2-0.3c-53.899-77.5-123.8-150.7-201.2-221.7
			c-82.5-75.5-175.3-151.5-286.198-210.3c-118.5-62.8-258.302-111-415-123.3c-173.201-13.4-379.4,15.3-592.802,106.9
			c-142.3,61.1-287.8,133.898-437.1,212.6l184.4,22.5c77.3-52.4,154.1-100.6,230.6-144.1"/>
		<path fill="#F6C063" d="M-405.05,964.5l103.2,12.6c30.2-22.898,60.5-44.898,90.899-65.898C9.25,758.8,238.75,704,421.851,697.5
			c159-5.6,301.601,30.7,420.899,84.7c111.8,50.5,205.8,120.6,288.8,191.898c74.2,63.7,140.9,129.602,193.302,201.9l6.698,0.8
			c-52.898-75-121.3-144.199-196.5-211.1c-82.8-73.602-176.5-146.5-287.898-201.4c-118.7-58.5-259.102-100.398-415.3-103
			c-178.201-3-396.102,38.3-611.4,161.4"/>
		<path fill="#D69D3C" d="M1132.55,970.9c-83.198-71.602-177.6-141.802-289.3-192.2c-119.1-53.7-261.398-90.2-420.398-84.3
			C239.25,701.2,8.95,757-212.05,910.3c-29.1,20.2-58,41.2-86.9,63.102l70.7,8.6c226.8-158.5,453.7-234.4,637.102-251
			c162.1-14.6,309.1,16.5,429.898,66.1c112,46,206.8,113,290.8,182.7c70.9,58.8,136.5,121.7,187.602,190.9l7.199,0.898
			C1272.15,1099.8,1205.65,1033.8,1132.55,970.9z"/>
		<path fill="#EA5F72" d="M1130.351,974.1C1046.351,904.4,951.55,837.4,839.55,791.4C718.75,741.8,571.75,710.6,409.65,725.3
			c-183.4,16.602-410.3,92.4-637.102,251l61.601,7.5C32.251,851.9,231.65,784.9,394.25,761.8c164.7-23.398,317.2,1.9,441,47.9
			c111.8,41.5,207.7,106.7,291.9,174.1c69.3,55.5,133.6,114.2,183.8,180.5l7.2,0.9C1266.851,1095.8,1201.25,1032.9,1130.351,974.1z"
			/>
		<path fill="#CB394D" d="M1127.351,980.6c-84.101-67.398-180-132.6-291.899-174.1c-123.8-46-276.3-71.2-441-47.9
			c-162.6,23.102-362,90.102-560.1,222l53.899,6.602c170.3-106.7,342.3-165.9,485.601-192.4c171.6-31.7,328-13.1,457.699,29.602
			c111.301,36.698,207.7,99,292.7,164.8c66.7,51.7,128.2,108,177.9,170.7l9.1,1.1C1260.95,1094.8,1196.65,1036.1,1127.351,980.6z"/>
	</g>
</g>
<g id="Layer_3">
	<g id="bslloon">
		
			<radialGradient id="SVGID_1_" cx="705.001" cy="551.125" r="209.2853" gradientTransform="matrix(1 0 0 -1 -321 777.5)" gradientUnits="userSpaceOnUse">
			<stop  offset="0" style="stop-color:#53AC9B"/>
			<stop  offset="1" style="stop-color:#409D8B"/>
		</radialGradient>
		<path fill="url(#SVGID_1_)" d="M578.345,83.422c-123.957-41.688-256.188-57.738-388.68-46.871
			c-18.146,1.414-31.487,16.676-29.805,33.371c10.176,103.691,20.353,207.371,30.517,311.06
			c1.69,16.715,15.051,24.922,30.108,18.938c71.891-28.215,147.625-46.651,225.187-54.996L407.3,419.5l124.521-79.66
			c13.383-0.141,26.789-0.03,40.227,0.432c16.578,0.477,30.306-7.535,30.595-18.562c1.875-69.125,3.763-138.246,5.638-207.367
			C608.574,103.336,595.281,89.184,578.345,83.422z"/>
	</g>
</g>
</svg>
