<svg version="1.1" xmlns="http://www.w3.org/2000/svg" viewBox="0 0 60 63" enable-background="new 0 0 60 63" xml:space="preserve"><circle fill="none" stroke="#DDE5CE" stroke-width="2" stroke-miterlimit="10" cx="29.9" cy="32" r="28"/><path fill="none" stroke="#DDE6CD" stroke-miterlimit="10" d="M19.6 18.3c-2.1 0-3.8 1.7-3.8 3.8 0 2.1 1.7 3.8 3.8 3.8s3.8-1.7 3.8-3.8C23.4 20 21.7 18.3 19.6 18.3M29.8 18.3c-2.1 0-3.8 1.7-3.8 3.8 0 2.1 1.7 3.8 3.8 3.8 2.1 0 3.8-1.7 3.8-3.8C33.6 20 31.9 18.3 29.8 18.3M40.1 18.3c-2.1 0-3.8 1.7-3.8 3.8 0 2.1 1.7 3.8 3.8 3.8 2.1 0 3.8-1.7 3.8-3.8C43.9 20 42.2 18.3 40.1 18.3M19.6 28.6c-2.1 0-3.8 1.7-3.8 3.8s1.7 3.8 3.8 3.8 3.8-1.7 3.8-3.8S21.7 28.6 19.6 28.6M29.8 28.6c-2.1 0-3.8 1.7-3.8 3.8s1.7 3.8 3.8 3.8c2.1 0 3.8-1.7 3.8-3.8S31.9 28.6 29.8 28.6M40.1 28.6c-2.1 0-3.8 1.7-3.8 3.8s1.7 3.8 3.8 3.8c2.1 0 3.8-1.7 3.8-3.8S42.2 28.6 40.1 28.6M19.6 38.8c-2.1 0-3.8 1.7-3.8 3.8 0 2.1 1.7 3.8 3.8 3.8s3.8-1.7 3.8-3.8C23.4 40.5 21.7 38.8 19.6 38.8M29.8 38.8c-2.1 0-3.8 1.7-3.8 3.8 0 2.1 1.7 3.8 3.8 3.8 2.1 0 3.8-1.7 3.8-3.8C33.6 40.5 31.9 38.8 29.8 38.8M40.1 38.8c-2.1 0-3.8 1.7-3.8 3.8 0 2.1 1.7 3.8 3.8 3.8 2.1 0 3.8-1.7 3.8-3.8C43.9 40.5 42.2 38.8 40.1 38.8"/></svg>