<svg version="1.1" id="Layer_1" xmlns="http://www.w3.org/2000/svg" xmlns:xlink="http://www.w3.org/1999/xlink" x="0px" y="0px"
	 width="768px" height="975px" viewBox="0 0 768 975" enable-background="new 0 0 768 975" xml:space="preserve">
<g id="background">
	<rect fill="#64BBA9" width="768" height="975"/>
</g>
<g id="cloud">
	<g id="Layer_3_1_">
		<g id="bslloon_1_">
			<path fill="#409D8B" d="M604.613,92.506C469.347,49.338,325.053,32.718,180.473,43.97c-19.801,1.464-34.36,17.269-32.525,34.556
				c11.105,107.373,22.21,214.734,33.302,322.105c1.844,17.308,16.424,25.807,32.854,19.61
				c78.451-29.217,161.093-48.309,245.732-56.95l-41.872,77.224l135.881-82.488c14.604-0.147,29.233-0.032,43.897,0.447
				c18.09,0.494,33.068-7.802,33.386-19.22c2.045-71.58,4.108-143.155,6.155-214.729C637.601,113.127,623.095,98.472,604.613,92.506
				z"/>
		</g>
	</g>
</g>
<g>
	<path fill="none" d="M154.427,650.656c6.238-1.059,12.457-2.065,18.655-3.022C166.884,648.591,160.666,649.598,154.427,650.656z"/>
	<path fill="#0990D3" d="M0,686.629c52.477-15.547,104.091-27.43,154.427-35.973c6.238-1.059,12.457-2.065,18.655-3.022
		c92.973-14.353,181.354-17.319,262.491-11.043c121.494,9.536,232.818,40.678,331.931,83.465v-18.712
		c-97.864-46.589-207.523-83.052-328.036-99.828C306.655,582.937,157.551,588.15,0,617.551V686.629z"/>
	<path fill="#BBD367" d="M173.082,647.634c-6.198,0.957-12.417,1.964-18.655,3.022C104.091,659.199,52.477,671.082,0,686.63v59.985
		c57.26-21.579,113.86-38.035,168.982-50.064c0.592-0.129,1.181-0.252,1.774-0.38c25.064-5.431,49.821-9.955,74.192-13.629
		c4.367-0.658,8.717-1.28,13.059-1.884c8.059-1.123,16.079-2.163,24.048-3.104c0.457-0.056,0.912-0.104,1.369-0.155
		c32.312-3.777,63.848-6.081,94.419-7.084c2.278-0.074,4.548-0.141,6.814-0.2c2.492-0.066,4.977-0.126,7.456-0.174
		c4.188-0.084,8.359-0.146,12.509-0.181c3.394-0.027,6.775-0.046,10.141-0.042c5.644,0.006,11.247,0.058,16.812,0.15
		c122.683,2.046,235.612,28.351,335.929,67.898v-17.711c-99.112-42.787-210.437-73.929-331.931-83.465
		C354.436,630.314,266.055,633.281,173.082,647.634z"/>
	<path fill="#F6C063" d="M180.225,738.569c4.351-1.118,8.69-2.204,13.019-3.265c8.658-2.119,17.276-4.125,25.846-6.018
		c6.53-1.443,13.033-2.823,19.507-4.141c16.187-3.29,32.194-6.191,47.998-8.726c47.411-7.596,92.977-11.878,135.983-13.472
		c7.448-0.276,14.859-0.459,22.234-0.551c4.915-0.062,9.813-0.084,14.697-0.065c7.323,0.026,14.61,0.141,21.856,0.342
		c103.948,2.894,199.984,23.516,286.138,54.211v-19.118c-100.317-39.548-213.247-65.853-335.929-67.898
		c-5.564-0.094-11.169-0.146-16.812-0.15c-3.364-0.004-6.747,0.015-10.141,0.042c-4.148,0.034-8.32,0.097-12.509,0.181
		c-2.479,0.048-4.964,0.106-7.456,0.174c-2.267,0.061-4.536,0.126-6.814,0.2c-30.571,1.003-62.106,3.307-94.419,7.084
		c-0.457,0.052-0.912,0.101-1.369,0.155c-7.969,0.94-15.989,1.98-24.048,3.104c-4.341,0.604-8.692,1.226-13.059,1.884
		c-24.371,3.674-49.128,8.198-74.192,13.629c-0.593,0.128-1.182,0.251-1.774,0.38C113.861,708.581,57.26,725.036,0,746.616v53.872
		c56.585-24.59,112.614-43.823,167.146-58.482C171.514,740.831,175.875,739.686,180.225,738.569z"/>
	<path fill="#D69D3C" d="M30.789,837.622c92.077-41.186,181.255-69.503,264.358-86.67c11.871-2.452,23.62-4.677,35.233-6.678
		c27.099-4.672,53.473-8.132,79.005-10.442c17.717-1.607,35.254-2.667,52.601-3.211c12.385-0.388,24.674-0.516,36.857-0.396
		c12.184,0.121,24.263,0.49,36.229,1.096c83.426,4.213,161.496,19.873,232.432,42.525v-16.959
		c-86.153-30.694-182.188-51.315-286.136-54.21c-7.246-0.201-14.533-0.314-21.856-0.342c-4.884-0.019-9.781,0.003-14.697,0.065
		c-7.375,0.092-14.786,0.273-22.234,0.551c-43.006,1.594-88.572,5.876-135.983,13.472c-15.804,2.533-31.812,5.436-47.998,8.726
		c-6.474,1.316-12.978,2.696-19.507,4.141c-8.57,1.893-17.188,3.898-25.846,6.018c-4.329,1.061-8.668,2.146-13.019,3.265
		c-4.351,1.116-8.711,2.262-13.079,3.437C112.616,756.668,56.586,775.902,0,800.492v51.341c5.882-2.797,11.755-5.547,17.616-8.239
		C22.013,841.574,26.404,839.585,30.789,837.622z"/>
	<path fill="#EA5F72" d="M767.504,792.941v-19.096c-70.936-22.652-149.006-38.312-232.432-42.525
		c-11.967-0.605-24.046-0.975-36.229-1.096c-12.184-0.119-24.473,0.009-36.857,0.396c-17.347,0.544-34.884,1.604-52.601,3.211
		c-25.532,2.311-51.906,5.771-79.005,10.442c-11.613,2.001-23.362,4.226-35.233,6.678c-83.103,17.167-172.281,45.484-264.358,86.67
		c-4.385,1.963-8.776,3.952-13.173,5.972c-5.861,2.692-11.734,5.442-17.616,8.239v41.321
		c140.994-70.01,277.138-109.411,394.196-126.044c43.722-6.188,86.582-8.951,128.272-8.815l0,0h0.001
		C610.303,758.581,692.938,771.753,767.504,792.941z"/>
	<path fill="#CB394D" d="M767.504,792.941c-74.565-21.188-157.201-34.36-245.034-34.646h-0.001
		c-41.69-0.136-84.551,2.63-128.27,8.815C277.14,783.743,140.995,823.146,0,893.154v39.063
		c132.384-67.615,261.748-108.241,373.612-128.928c144.343-26.664,277.925-17.714,393.892,11.237V792.941z"/>
</g>
</svg>
