<svg version="1.1" id="Layer_1" xmlns="http://www.w3.org/2000/svg" xmlns:xlink="http://www.w3.org/1999/xlink" viewBox="0 0 60 60" style="enable-background:new 0 0 60 60;" xml:space="preserve">
<circle style="fill:none;stroke:#409d8b;stroke-width:1.425;stroke-miterlimit:10;" cx="29.5" cy="30.215" r="28.5"/>
<path style="fill:#409d8b;" d="M19.016,16.27c-2.137,0-3.868,1.73-3.868,3.868c0,2.137,1.73,3.868,3.868,3.868
	c2.138,0,3.868-1.73,3.868-3.868C22.884,18,21.154,16.27,19.016,16.27 M29.398,16.27c-2.137,0-3.867,1.73-3.867,3.868
	c0,2.137,1.73,3.868,3.867,3.868c2.139,0,3.868-1.73,3.868-3.868C33.266,18,31.537,16.27,29.398,16.27 M39.883,16.27
	c-2.137,0-3.867,1.73-3.867,3.868c0,2.137,1.73,3.868,3.867,3.868s3.867-1.73,3.867-3.868C43.75,18,42.02,16.27,39.883,16.27
	 M19.016,26.753c-2.137,0-3.868,1.73-3.868,3.869c0,2.137,1.73,3.868,3.868,3.868c2.138,0,3.868-1.73,3.868-3.868
	C22.884,28.483,21.154,26.753,19.016,26.753 M29.398,26.753c-2.137,0-3.867,1.73-3.867,3.869c0,2.137,1.73,3.868,3.867,3.868
	c2.139,0,3.868-1.73,3.868-3.868C33.266,28.483,31.537,26.753,29.398,26.753 M39.883,26.753c-2.137,0-3.867,1.73-3.867,3.869
	c0,2.137,1.73,3.868,3.867,3.868s3.867-1.73,3.867-3.868C43.75,28.483,42.02,26.753,39.883,26.753 M19.016,37.136
	c-2.137,0-3.868,1.73-3.868,3.868s1.73,3.867,3.868,3.867c2.138,0,3.868-1.729,3.868-3.867S21.154,37.136,19.016,37.136
	 M29.398,37.136c-2.137,0-3.867,1.73-3.867,3.868s1.73,3.867,3.867,3.867c2.139,0,3.868-1.729,3.868-3.867
	S31.537,37.136,29.398,37.136 M39.883,37.136c-2.137,0-3.867,1.73-3.867,3.868s1.73,3.867,3.867,3.867s3.867-1.729,3.867-3.867
	S42.02,37.136,39.883,37.136"/>
</svg>
