<svg xmlns="http://www.w3.org/2000/svg" xmlns:xlink="http://www.w3.org/1999/xlink" version="1.1" id="Layer_1" x="0px" y="0px" width="768px" height="976px" viewBox="0 0 768 976" style="enable-background:new 0 0 768 976;" xml:space="preserve">
<g id="Layer_1_1_">
	<g id="background_color">
		<g>
			<polyline style="fill:#65BCAB;" points="0,1027 0,0 768,0 768,1027"/>
		</g>
	</g>
	<g id="toolbar" style="display:none;">
		<g style="display:inline;">
			<polyline style="fill:#409D8B;" points="770,1028 770,953 2,953 2,1028"/>
		</g>
		<g style="display:inline;">
			<rect x="39" y="968" style="fill:#DDE5CE;" width="86" height="9"/>
		</g>
		<g style="display:inline;">
			<rect x="39" y="985" style="fill:#DDE5CE;" width="86" height="9"/>
		</g>
		<g style="display:inline;">
			<rect x="38" y="1001" style="fill:#DDE5CE;" width="86" height="9"/>
		</g>
	</g>
	<g id="airplsnr" style="display:none;">
		<g id="path1962" style="display:inline;">
			<path style="fill:#DDE5CE;" d="M396 292.607c-0.098-0.375-3.688-21.846-7.98-47.711c-4.292-25.867-7.92-47.27-8.065-47.562 c-0.172-0.342-8.13 3.473-22.24 10.66c-20.614 10.502-22.004 11.283-22.441 12.65c-0.256 0.801-1.528 6.891-2.826 13.5 l-2.36 12.076l-8.917 4.568l-8.918 4.568l-2.977-17.387l-2.977-17.389l-12.193-12.438c-6.706-6.84-12.166-12.533-12.133-12.652 c0.033-0.119 3.993-2.217 8.8-4.66l8.739-4.445l12.434 5.775l12.433 5.777l22.21-11.312c17.321-8.82 22.113-11.443 21.767-11.914 c-0.245-0.332-15.703-16.293-34.351-35.471l-33.906-34.867l11.195-5.704L322.483 93l46.156 29.793l46.156 29.794l30.58-15.545 c21.438-10.895 31.231-15.643 32.755-15.874c1.401-0.213 3.229-0.061 5.2 0.428c3.788 1 6.2 2.9 7.8 6.4 c1.477 3.2 1.6 5.3 0.5 8.583c-1.653 5.031-1.256 4.783-35.645 22.363l-30.992 15.848l-2.57 42.3 c-1.418 23.254-2.891 47.367-3.273 53.584l-0.699 11.301l-11.127 5.664C399.037 291.8 396.1 293.1 396 292.607z"/>
		</g>
	</g>
	<g id="word" style="display:none;">
		<g style="display:inline;">
			<rect x="333" y="411" style="fill:none;" width="240" height="54"/>
		</g>
		<g style="display:inline;enable-background:new    ;">
			<path style="fill:#DDE5CE;" d="M333.756 437.424c0-0.12 0.012-0.204 0.036-0.252l7.525-24.443 c0.167-0.553 0.632-0.829 1.395-0.829s1.239 0.3 1.4 0.833l7.506 24.5c0 0 0 0.1 0 0.1 c0.012 0 0 0.1 0 0.103c0 0.274-0.156 0.509-0.468 0.703s-0.636 0.291-0.972 0.291c-0.457 0-0.756-0.204-0.9-0.612 l-1.656-5.544h-9.943l-1.668 5.549c-0.097 0.405-0.411 0.607-0.942 0.607c-0.339 0-0.653-0.096-0.943-0.288 C333.9 438 333.8 437.7 333.8 437.424z M338.362 430.224h8.713l-4.342-14.538L338.362 430.224z"/>
			<path style="fill:#DDE5CE;" d="M355.176 437.496v-24.517c0-0.576 0.396-0.864 1.188-0.864s1.188 0.3 1.2 0.864v24.517 c0 0.287-0.12 0.516-0.36 0.684c-0.24 0.168-0.516 0.252-0.828 0.252c-0.336 0-0.618-0.084-0.846-0.252 C355.29 438 355.2 437.8 355.2 437.496z"/>
			<path style="fill:#DDE5CE;" d="M363.023 437.496v-24.517c0-0.527 0.3-0.815 0.9-0.864h6.372c2.328 0 4.2 0.6 5.6 1.7 c1.428 1.1 2.1 2.9 2.1 5.437c0 3.983-1.872 6.3-5.616 6.947l5.544 10.656c0.096 0.1 0.1 0.3 0.1 0.5 c0 0.312-0.144 0.595-0.432 0.847c-0.288 0.252-0.6 0.378-0.936 0.378c-0.432 0-0.852-0.42-1.26-1.261l-5.544-10.8h-4.572v11.053 c0 0.287-0.12 0.516-0.36 0.684c-0.24 0.168-0.516 0.252-0.828 0.252c-0.336 0-0.618-0.084-0.846-0.252 C363.137 438 363 437.8 363 437.496z M365.399 424.392h4.896c3.6 0 5.4-1.692 5.4-5.076 c0-3.335-1.8-5.004-5.4-5.004h-4.896V424.392z"/>
			<path style="fill:#DDE5CE;" d="M382.067 437.496v-24.517c0-0.527 0.336-0.815 1.008-0.864h6.624c2.256 0 4.1 0.6 5.4 1.8 c1.344 1.2 2 3.2 2 5.797v0.359c0 2.641-0.679 4.578-2.034 5.814c-1.356 1.236-3.175 1.854-5.454 1.854h-5.184v9.721 c0 0.287-0.12 0.516-0.36 0.684c-0.24 0.168-0.516 0.252-0.828 0.252c-0.336 0-0.618-0.084-0.846-0.252 C382.181 438 382.1 437.8 382.1 437.496z M384.443 425.724h5.184c1.632 0 2.893-0.456 3.78-1.368 s1.332-2.291 1.332-4.14v-0.433c0-3.647-1.704-5.472-5.112-5.472h-5.184V425.724z"/>
			<path style="fill:#DDE5CE;" d="M401.039 437.496v-24.517c0-0.576 0.396-0.864 1.188-0.864s1.188 0.3 1.2 0.864v23.256h10.261 c0.527 0 0.8 0.4 0.8 1.08c0 0.744-0.265 1.116-0.792 1.116h-11.556c-0.289 0-0.541-0.084-0.756-0.252 C401.146 438 401 437.8 401 437.496z"/>
			<path style="fill:#DDE5CE;" d="M415.727 437.424c0-0.12 0.012-0.204 0.036-0.252l7.525-24.443 c0.166-0.553 0.632-0.829 1.395-0.829s1.239 0.3 1.4 0.833l7.507 24.5c0 0 0 0.1 0 0.1 c0.012 0 0 0.1 0 0.103c0 0.274-0.156 0.509-0.468 0.703s-0.636 0.291-0.972 0.291c-0.456 0-0.756-0.204-0.9-0.612 l-1.655-5.544h-9.943l-1.669 5.549c-0.097 0.405-0.411 0.607-0.942 0.607c-0.339 0-0.652-0.096-0.943-0.288 C415.871 438 415.7 437.7 415.7 437.424z M420.333 430.224h8.713l-4.342-14.538L420.333 430.224z"/>
			<path style="fill:#DDE5CE;" d="M437.146 437.496v-24.48c0-0.6 0.396-0.9 1.188-0.9c0.672 0 1.3 0.6 1.9 1.656l9.72 19.2 v-19.944c0-0.576 0.396-0.864 1.188-0.864s1.188 0.3 1.2 0.864v24.517c0 0.287-0.12 0.516-0.359 0.7 c-0.24 0.168-0.517 0.252-0.828 0.252c-0.601 0-1.129-0.456-1.584-1.368l-10.008-19.476v19.908c0 0.287-0.121 0.516-0.36 0.7 c-0.24 0.168-0.517 0.252-0.828 0.252c-0.336 0-0.618-0.084-0.846-0.252C437.26 438 437.1 437.8 437.1 437.496z"/>
			<path style="fill:#DDE5CE;" d="M457.774 437.496v-24.48c0-0.288 0.107-0.51 0.323-0.666c0.217-0.156 0.469-0.234 0.757-0.234 h12.815c0.6 0 0.9 0.3 0.9 1.044c0 0.312-0.078 0.583-0.234 0.811c-0.156 0.229-0.378 0.342-0.666 0.342h-11.52v9.9h5.651 c0.288 0 0.5 0.1 0.7 0.306c0.156 0.2 0.2 0.5 0.2 0.774c0 0.647-0.301 0.972-0.9 0.972h-5.651v9.972h11.52 c0.264 0 0.5 0.1 0.6 0.324c0.167 0.2 0.3 0.5 0.3 0.792c0 0.72-0.301 1.08-0.9 1.08h-12.815 c-0.288 0-0.54-0.084-0.757-0.252C457.882 438 457.8 437.8 457.8 437.496z"/>
		</g>
	</g>
	<g id="Layer_8">
	</g>
	<g id="video" style="display:none;">
	</g>
	<path style="fill:#409D8B;" d="M578.345 83.422c-123.957-41.688-256.188-57.738-388.68-46.871 c-18.146 1.414-31.487 16.676-29.805 33.371c10.176 103.7 20.4 207.4 30.5 311.1 c1.69 16.7 15.1 24.9 30.1 18.938c71.891-28.215 147.625-46.651 225.187-54.996L407.3 419.5l124.521-79.66 c13.383-0.141 26.789-0.03 40.2 0.434c16.578 0.5 30.306-7.535 30.595-18.562c1.875-69.125 3.765-138.246 5.64-207.367 C608.574 103.3 595.3 89.2 578.3 83.422z"/>
</g>
<g id="Layer_2">
	<g>
		<g>
			<defs>
				<rect id="SVGID_1_" width="768" height="1027"/>
			</defs>
			<clipPath id="SVGID_2_">
				<use xlink:href="#SVGID_1_" style="overflow:visible;"/>
			</clipPath>
			<g id="Layer_4" style="clip-path:url(#SVGID_2_);">
				<g>
					<g>
						<path style="fill:#0990D3;" d="M1138.851 956.7c-83.5-78.5-176.197-156.8-286.301-219.7 c-117.896-67.3-256.199-122.3-412.8-144.1c-172.3-24.104-372-8.2-582 48.6c-165.1 44.6-335.7 93.5-514.2 137.1l-20 163.3 l73.5 9c152.3-78.4 300.7-151.5 445.8-213.604c213.6-91.3 419.5-119.5 593.5-105.6c156.399 12.5 296.4 60.8 414.3 123.5 c111.102 59.1 203.6 134.9 285.9 210.5c77.4 71.1 147.7 143.9 201.5 221.7c0.101 0.2 0.3 0.4 0.4 0.6l6.8 0.8 c-1.7-2.5-3.399-5-5.2-7.5C1285.95 1103.7 1216.5 1029.7 1138.9 956.7z"/>
					</g>
					<g>
						<path style="fill:#0066B2;" d="M874.75 735.9c105.601 60.3 194.6 135.5 274.8 210.8 C1069.65 871.5 980.5 796.2 874.8 735.9z"/>
					</g>
					<g>
						<path style="fill:#BBD367;" d="M430.95 665.6c156.2 3.2 296.6 45.4 415.5 104c111.397 54.9 205 127.9 287.9 201.4 c75.199 66.7 143.9 136.5 197 211.7l7.103 0.896c-0.103-0.1-0.103-0.196-0.2-0.3c-53.898-77.5-123.8-150.7-201.2-221.7 c-82.5-75.5-175.3-151.5-286.197-210.3c-118.5-62.8-258.303-111-415-123.3c-173.201-13.4-379.399 15.3-592.802 106.9 c-142.3 61.102-287.8 133.898-437.1 212.602l184.4 22.5c77.3-52.4 154.1-100.601 230.6-144.101"/>
					</g>
					<g>
						<path style="fill:#F6C063;" d="M-405.05 964.5l103.2 12.6c30.2-22.896 60.5-44.896 90.899-65.896 C9.25 758.8 238.8 704 421.9 697.5c159-5.6 301.6 30.7 420.9 84.7c111.8 50.5 205.8 120.6 288.8 191.9 c74.2 63.7 140.9 129.6 193.3 201.9l6.698 0.8c-52.896-75-121.3-144.197-196.5-211.1 c-82.8-73.604-176.5-146.5-287.896-201.4c-118.7-58.5-259.104-100.396-415.301-103c-178.202-3-396.103 38.3-611.399 161.4"/>
					</g>
					<g>
						<path style="fill:#D69D3C;" d="M1132.55 970.9c-83.198-71.604-177.6-141.804-289.3-192.2 c-119.1-53.7-261.398-90.2-420.398-84.3C239.25 701.2 8.9 757-212.05 910.3c-29.1 20.2-58 41.2-86.9 63.104l70.7 8.6 c226.8-158.5 453.7-234.399 637.102-251c162.102-14.6 309.1 16.5 429.9 66.1c112 46 206.8 113 290.8 182.7 c70.9 58.8 136.5 121.7 187.6 190.9l7.198 0.896C1272.15 1099.8 1205.7 1033.8 1132.5 970.9z"/>
					</g>
					<g>
						<path style="fill:#EA5F72;" d="M1130.351 974.1C1046.351 904.4 951.5 837.4 839.5 791.4 C718.75 741.8 571.8 710.6 409.6 725.3c-183.4 16.604-410.3 92.4-637.104 251l61.601 7.5 C32.251 851.9 231.7 784.9 394.2 761.8c164.7-23.396 317.2 1.9 441 47.9c111.8 41.5 207.7 106.7 291.9 174.1 c69.3 55.5 133.6 114.2 183.8 180.5l7.2 0.9C1266.851 1095.8 1201.2 1032.9 1130.4 974.1z"/>
					</g>
					<g>
						<path style="fill:#CB394D;" d="M1127.351 980.6c-84.101-67.396-180-132.6-291.897-174.1c-123.8-46-276.3-71.2-441-47.9 c-162.6 23.104-362 90.104-560.1 222l53.899 6.604c170.3-106.7 342.3-165.9 485.601-192.4c171.6-31.7 328-13.1 457.7 29.6 c111.302 36.7 207.7 99 292.7 164.8c66.7 51.7 128.2 108 177.9 170.7l9.1 1.1C1260.95 1094.8 1196.7 1036.1 1127.4 980.6 z"/>
					</g>
				</g>
			</g>
		</g>
	</g>
</g>
</svg>
