<?xml version="1.0" encoding="utf-8"?>
<!-- Generator: Adobe Illustrator 16.0.0, SVG Export Plug-In . SVG Version: 6.00 Build 0)  -->
<!DOCTYPE svg PUBLIC "-//W3C//DTD SVG 1.1//EN" "http://www.w3.org/Graphics/SVG/1.1/DTD/svg11.dtd">
<svg version="1.1" id="Layer_1" xmlns="http://www.w3.org/2000/svg" xmlns:xlink="http://www.w3.org/1999/xlink" x="0px" y="0px"
	 width="100px" height="100px" viewBox="0 0 100 100" enable-background="new 0 0 100 100" xml:space="preserve">
<g>
	<polygon fill="none" points="19.414,42.431 20.036,42.162 18.793,42.162 	"/>
	<polygon fill="none" points="39.793,42.431 40.415,42.162 39.173,42.162 	"/>
	<polygon fill="none" points="60.205,42.431 60.825,42.162 59.581,42.162 	"/>
	<polygon fill="none" points="80.584,42.431 81.205,42.162 79.964,42.162 	"/>
	<polygon fill="none" points="34.713,90.928 34.713,46.848 29.603,46.848 	"/>
	<polygon fill="none" points="49.986,90.928 55.097,46.848 49.986,46.848 	"/>
	<polygon fill="none" points="65.286,90.928 75.477,46.848 70.395,46.848 	"/>
	<path fill="#FF5555" d="M57.619,10.203c0.199-3.468-2.744-6.514-6.783-6.9c-4.198-0.404-7.978,2.211-8.443,5.841
		c-0.046,0.353-0.046,0.708-0.024,1.061c2.468-0.386,5.019-0.593,7.632-0.593C52.607,9.612,55.155,9.818,57.619,10.203z"/>
	<path fill="#502D16" d="M20.036,42.162l9.567-4.147l9.57,4.147h1.241l9.57-4.147l9.596,4.147h1.244l9.569-4.147l9.569,4.147h1.241
		l7.869-3.41c-1.04-14.218-14.213-25.859-31.455-28.549c-2.464-0.385-5.012-0.591-7.618-0.591c-2.613,0-5.164,0.207-7.632,0.593
		c-17.236,2.695-30.4,14.335-31.44,28.549l7.864,3.408H20.036z"/>
	<path fill="#F4D7D7" d="M89.074,38.752l-7.869,3.41l-0.621,0.269l-0.62-0.269l-9.569-4.147l-9.569,4.147l-0.62,0.269l-0.624-0.269
		l-9.596-4.147l-9.57,4.147l-0.621,0.269l-0.62-0.269l-9.57-4.147l-9.567,4.147l-0.622,0.269l-0.621-0.269l-7.864-3.408l-1.705-0.74
		l15.3,57.332h50.952l15.299-57.332L89.074,38.752z M34.713,90.928l-5.11-44.08h5.11V90.928z M49.986,90.928v-44.08h5.11
		L49.986,90.928z M65.286,90.928l5.108-44.08h5.082L65.286,90.928z"/>
</g>
</svg>
