<svg version="1.1" id="Layer_1" xmlns="http://www.w3.org/2000/svg" xmlns:xlink="http://www.w3.org/1999/xlink" x="0px" y="0px"
	 width="100px" height="100px" viewBox="0 0 100 100" enable-background="new 0 0 100 100" xml:space="preserve">
<path fill="#409D8B" d="M13.989,74.791c0,8.283,15.86,15.014,35.354,15.014c19.497,0,35.293-6.714,35.293-15.014
	c0-5.861,0-19.126,0-29.666c-5.433,0-64.912,0-70.646,0C13.989,60.359,13.989,66.492,13.989,74.791z M13.396,43.394
	c0,0.961-1.937,6.009,0.625,6.009c1.554,0,0.929-2.036,2.275-0.513c4.724,5.334,6.104,14.722,11.055,19.349
	c2.37,2.213,5.555,1.444,8.296,2.76c4.101,1.967,2.771,8.36,8.153,8.36c4.709,0,3.141-8.796,7.754-8.796
	c4.868,0,5.238,5.93,8.475,5.93c4.195,0,2.224-9.773,6.407-13.747c6.151-5.847,10.908-1.843,10.011,1.634
	c-1.023,3.959,0.321,7.306,2.227,7.306c2.997,0,2.29-5.879,2.133-7.466c-0.435-4.375,1.616-7.384,3.252-8.68
	c2.497-1.973,1.872-9.694,1.872-12.064c0-8.041-12.174-15.986-36.795-15.986C23.585,27.489,13.396,35.353,13.396,43.394z
	 M13.283,42.034c0,0.96-1.935,6.007,0.626,6.007c1.556,0,0.93-2.035,2.275-0.514c4.727,5.319,6.105,14.719,11.055,19.351
	c2.37,2.212,5.559,1.441,8.297,2.756c4.102,1.971,2.819,8.584,8.202,8.584c4.71,0,3.076-9.017,7.688-9.017
	c4.87,0,5.236,5.926,8.474,5.926c4.199,0,2.228-9.771,6.408-13.743c6.15-5.846,10.907-1.843,9.995,1.635
	c-1.023,3.956,0.337,7.303,2.227,7.303c2.996,0,2.292-5.877,2.133-7.463c-0.432-4.375,1.615-7.386,3.251-8.685
	c2.499-1.985,1.872-9.691,1.872-12.062c0-8.041-12.173-15.986-36.794-15.986C23.473,26.11,13.283,33.992,13.283,42.034z"/>
<ellipse fill="#409D8B" cx="48.96" cy="33.207" rx="20.729" ry="7.097"/>
<path fill="#409D8B" d="M63.456,22.778c0,0,1.267-4.757-2.001-5.719c-3.267-0.978-16.036-1.314-17.012,0
	C43.465,18.374,63.456,22.778,63.456,22.778z M44.49,14.016c0,0-13.807,3.364-15.523,11.229
	c-1.825,8.426,4.182,11.118,22.332,14.098C57.771,40.399,44.49,14.016,44.49,14.016z M44.377,15.506c0,0-10.541,1.666-10.827,8.425
	c-0.289,6.76,6.406,12.079,10.026,13.12c3.604,1.024,4.806-1.715,4.359-6.008C47.469,26.735,44.377,15.506,44.377,15.506z
	 M43.513,15.169c0,0-8.939,2.003-8.939,7.961c0,5.959,5.782,7.273,8.139,7.737c2.354,0.464,9.741,4.245,9.741,6.071
	c0,1.827,0.06,2.291,0.06,2.291s5.048-4.405,6.296-4.518C60.062,34.601,43.513,15.169,43.513,15.169z"/>
<path fill="#409D8B" d="M54.998,10.604c2.259,2.626,2.916,5.686,1.649,7.913c-1.729,3.061-7.593,5.381-12.445,2.915
	c-3.654-1.858-3.94-7.032-2.162-10.06c2.081-3.54,6.167-6.327,9.179-5.062C53.331,7.208,53.509,8.889,54.998,10.604z M53.638,8.825
	c0,0-1.62-1.938-2.596-1.538c-0.771,0.321,0.8,2.116,1.201,2.835c0.4,0.721,3.186,4.31,4.07,3.957
	C57.175,13.695,54.631,10.476,53.638,8.825z M55.317,12.318c-0.271,0.896-1.167-0.304-1.745-0.77c-0.992-0.8-1.41-2.002-1.171-2.306
	c0.289-0.368,0.803-0.272,1.603,0.64C54.918,10.973,55.511,11.693,55.317,12.318z M44.202,21.432
	c4.853,2.466,10.716,0.146,12.445-2.915c0.271-0.497,0.448-1.026,0.546-1.603c-0.239-0.625-0.514-1.218-0.771-1.586
	c-0.833-1.232-1.505-1.569-1.505-1.569s0.946,2.58-1.603,3.285c-2.368,0.655-9.081,3.203-12.317-0.914
	C41.158,18.293,42.152,20.391,44.202,21.432z M43.929,10.667c1.249-1.25,5.062-3.395,5.51-4.1c0.193-0.306,0.771-0.387,1.378-0.387
	c-2.964-0.88-6.774,1.796-8.777,5.191c-0.657,1.106-1.027,2.516-1.058,3.926C41.301,14.705,42.824,11.789,43.929,10.667z
	 M47.278,10.155c0,0,0.832-1.122,2.305-0.241c1.474,0.881,2.47,2.067,2.579,2.755c0.111,0.705-1.409,0.145-2.354-0.592
	C48.863,11.34,47.005,10.875,47.278,10.155z M48.608,10.027c0,0,1.265,0.305,1.602,0.738c0.337,0.431,0.992,1.056,0.8,1.264
	c-0.192,0.208-1.281-0.77-1.377-0.833C49.538,11.132,47.118,10.587,48.608,10.027z"/>
<path fill="#409D8B" d="M42.776,16.947c0,0-2.804,2.804-2.804,6.985c0,4.181,3.669,5.896,6.297,5.896
	c2.642,0,6.358,0.752,8.187,2.466c1.825,1.715,2.864,2.915,5.605,3.316c2.753,0.401,6.246,0.625,6.47-0.865
	C66.773,33.271,42.776,16.947,42.776,16.947z M59.322,28.801c3.638,2.243,8.283,1.778,9.916,2.179c0,0,2.628-3.717,1.203-5.959
	s-4.696-3.603-7.049-3.829c-2.339-0.224-7.498-2.002-9.965-2.915c-2.465-0.914-5.606,0.401-6.07,1.603s-0.912,2.754-0.912,2.754
	S53.653,25.309,59.322,28.801z M43.064,17.572c0,0-1.314,3.444,2.515,4.807c3.828,1.361,9.85,2.803,12.369,5.734
	c2.514,2.916,7.495,8.586,8.937,7.096c1.425-1.489,4.918-4.693,2.354-5.67c-2.579-0.977-8.938-0.289-10.989-2.403
	c-2.062-2.114-3.89-2.803-7.096-3.78C47.935,22.378,45.355,21.866,43.064,17.572z M49.794,83.141
	c16.433,0,30.321-3.832,34.937-9.085c0,0.77,0,1.474,0,2.1c0,8.28-15.844,15.009-35.388,15.009
	c-19.542,0-35.385-6.712-35.385-15.009c0-1.171,0-2.294,0-3.396C17.24,78.685,32.043,83.141,49.794,83.141z M76.817,33.542
	c3.298,1.763,5.239,3.861,5.239,6.119c0,6.217-14.611,11.263-32.649,11.263c-17.333,0-31.509-4.662-32.566-10.557
	c-0.047,0.241-0.065,0.497-0.065,0.737c0,6.648,15.125,12.031,33.786,12.031c18.659,0,33.785-5.382,33.785-12.031
	C84.347,38.253,81.525,35.609,76.817,33.542z M66.483,58.47c0,0,12.031-8.252,12.72,4.646C77.472,60.359,77.812,55.713,66.483,58.47
	z M80.051,64.301c0,0-0.076,3.698-1.199,5.317C81.431,69.635,80.051,64.301,80.051,64.301z M70.747,32.198
	c0.016,0.224,0.03,0.448,0.03,0.672c0,7.049-8.475,15.443-17.878,15.62c6.537,1.201,27.347-2.757,27.347-9.355
	C80.261,36.121,76.383,33.495,70.747,32.198z M65.013,61.771c0,0-3.016,3.827-3.016,8.198c0,4.375-1.968,5.062-3.266,3.269
	c2.002-0.063,2.177-1.747,2.177-3.556C60.908,67.872,61.068,63.691,65.013,61.771z M51.585,68.32c0,0-2.977,0.114-4.116,3.155
	c-1.136,3.044-3.026,8.314-6.183,4.581c2.515,0.737,3.38-0.865,4.693-3.493C47.293,69.924,48.271,68.079,51.585,68.32z
	 M75.92,51.244c0,0,6.695-3.091,8.761-6.36c0,3.605,0.688,5.848-1.023,7.899c-1.714,2.064-3.092,3.955-3.427,5.495
	C79.187,54.51,78.852,51.757,75.92,51.244z"/>
<radialGradient id="SVGID_1_" cx="354.4873" cy="-200.0835" r="115.9877" gradientTransform="matrix(1.0102 0 0 -1 -279.124 -165.5)" gradientUnits="userSpaceOnUse">
	<stop  offset="0" style="stop-color:#FFFFFF"/>
	<stop  offset="0.02" style="stop-color:#FEF7E2"/>
	<stop  offset="0.09" style="stop-color:#FBE18C"/>
	<stop  offset="0.13" style="stop-color:#FAD86A"/>
	<stop  offset="0.37" style="stop-color:#F5CB5A"/>
	<stop  offset="0.65" style="stop-color:#C57315"/>
	<stop  offset="0.99" style="stop-color:#AC4A12"/>
</radialGradient>
<path fill="url(#SVGID_1_)" d="M13.989,74.791c0,8.283,15.86,15.014,35.354,15.014c19.497,0,35.293-6.714,35.293-15.014
	c0-5.861,0-19.126,0-29.666c-5.433,0-64.912,0-70.646,0C13.989,60.359,13.989,66.492,13.989,74.791z"/>
<radialGradient id="SVGID_2_" cx="1330.3799" cy="-152.1558" r="57.1389" gradientTransform="matrix(-0.9953 0 0 -1 1405.626 -165.5)" gradientUnits="userSpaceOnUse">
	<stop  offset="0" style="stop-color:#FFFFFF"/>
	<stop  offset="0.15" style="stop-color:#CFAD9B"/>
	<stop  offset="0.28" style="stop-color:#A66644"/>
	<stop  offset="0.35" style="stop-color:#964A22"/>
	<stop  offset="0.65" style="stop-color:#551C0B"/>
	<stop  offset="0.99" style="stop-color:#361211"/>
</radialGradient>
<path fill="url(#SVGID_2_)" d="M13.396,43.394c0,0.961-1.937,6.009,0.625,6.009c1.554,0,0.929-2.036,2.275-0.513
	c4.724,5.334,6.104,14.722,11.055,19.349c2.37,2.213,5.555,1.444,8.296,2.76c4.101,1.967,2.771,8.36,8.153,8.36
	c4.709,0,3.141-8.796,7.754-8.796c4.868,0,5.238,5.93,8.475,5.93c4.195,0,2.224-9.773,6.407-13.747
	c6.151-5.847,10.908-1.843,10.011,1.634c-1.023,3.959,0.321,7.306,2.227,7.306c2.997,0,2.29-5.879,2.133-7.466
	c-0.435-4.375,1.616-7.384,3.252-8.68c2.497-1.973,1.872-9.694,1.872-12.064c0-8.041-12.174-15.986-36.795-15.986
	C23.585,27.489,13.396,35.353,13.396,43.394z"/>
<radialGradient id="SVGID_3_" cx="1335.1426" cy="-167.1011" r="82.3353" gradientTransform="matrix(-0.9953 0 0 -1 1405.8037 -165.5)" gradientUnits="userSpaceOnUse">
	<stop  offset="0" style="stop-color:#FFFFFF"/>
	<stop  offset="0.15" style="stop-color:#CFAD9B"/>
	<stop  offset="0.28" style="stop-color:#A66644"/>
	<stop  offset="0.35" style="stop-color:#964A22"/>
	<stop  offset="0.65" style="stop-color:#551C0B"/>
	<stop  offset="0.99" style="stop-color:#361211"/>
</radialGradient>
<path fill="url(#SVGID_3_)" d="M13.283,42.034c0,0.96-1.935,6.007,0.626,6.007c1.556,0,0.93-2.035,2.275-0.514
	c4.727,5.319,6.105,14.719,11.055,19.351c2.37,2.212,5.559,1.441,8.297,2.756c4.102,1.971,2.819,8.584,8.202,8.584
	c4.71,0,3.076-9.017,7.688-9.017c4.87,0,5.236,5.926,8.474,5.926c4.199,0,2.228-9.771,6.408-13.743
	c6.15-5.846,10.907-1.843,9.995,1.635c-1.023,3.956,0.337,7.303,2.227,7.303c2.996,0,2.292-5.877,2.133-7.463
	c-0.432-4.375,1.615-7.386,3.251-8.685c2.499-1.985,1.872-9.691,1.872-12.062c0-8.041-12.173-15.986-36.794-15.986
	C23.473,26.11,13.283,33.992,13.283,42.034z"/>
<radialGradient id="SVGID_4_" cx="350.542" cy="-162.9678" r="47.017" gradientTransform="matrix(1 0 0 -1 -271 -165.5)" gradientUnits="userSpaceOnUse">
	<stop  offset="0" style="stop-color:#FFFFFF"/>
	<stop  offset="0.15" style="stop-color:#CFAD9B"/>
	<stop  offset="0.28" style="stop-color:#A66644"/>
	<stop  offset="0.35" style="stop-color:#964A22"/>
	<stop  offset="0.65" style="stop-color:#551C0B"/>
	<stop  offset="0.99" style="stop-color:#361211"/>
</radialGradient>
<ellipse fill="url(#SVGID_4_)" cx="48.96" cy="33.207" rx="20.729" ry="7.097"/>
<radialGradient id="SVGID_5_" cx="1375.9355" cy="-182.4458" r="137.9466" gradientTransform="matrix(-1 0 0 -1 1408.9688 -165.5)" gradientUnits="userSpaceOnUse">
	<stop  offset="0" style="stop-color:#FFFFFF"/>
	<stop  offset="1" style="stop-color:#646464"/>
</radialGradient>
<path fill="url(#SVGID_5_)" d="M63.456,22.778c0,0,1.267-4.757-2.001-5.719c-3.267-0.978-16.036-1.314-17.012,0
	C43.465,18.374,63.456,22.778,63.456,22.778z"/>
<radialGradient id="SVGID_6_" cx="1367.9268" cy="-171.2192" r="98.3686" gradientTransform="matrix(-1 0 0 -1 1408.9688 -165.5)" gradientUnits="userSpaceOnUse">
	<stop  offset="0" style="stop-color:#FFFFFF"/>
	<stop  offset="1" style="stop-color:#646464"/>
</radialGradient>
<path fill="url(#SVGID_6_)" d="M44.49,14.016c0,0-13.807,3.364-15.523,11.229c-1.825,8.426,4.182,11.118,22.332,14.098
	C57.771,40.399,44.49,14.016,44.49,14.016z"/>
<radialGradient id="SVGID_7_" cx="1340.6611" cy="-157.0278" r="133.6046" gradientTransform="matrix(-1 0 0 -1 1408.9688 -165.5)" gradientUnits="userSpaceOnUse">
	<stop  offset="0" style="stop-color:#FFFFFF"/>
	<stop  offset="1" style="stop-color:#646464"/>
</radialGradient>
<path fill="url(#SVGID_7_)" d="M44.377,15.506c0,0-10.541,1.666-10.827,8.425c-0.289,6.76,6.406,12.079,10.026,13.12
	c3.604,1.024,4.806-1.715,4.359-6.008C47.469,26.735,44.377,15.506,44.377,15.506z"/>
<radialGradient id="SVGID_8_" cx="1376.625" cy="-177.1753" r="157.7152" gradientTransform="matrix(-1 0 0 -1 1408.9688 -165.5)" gradientUnits="userSpaceOnUse">
	<stop  offset="0" style="stop-color:#FFFFFF"/>
	<stop  offset="1" style="stop-color:#646464"/>
</radialGradient>
<path fill="url(#SVGID_8_)" d="M43.513,15.169c0,0-8.939,2.003-8.939,7.961c0,5.959,5.782,7.273,8.139,7.737
	c2.354,0.464,9.741,4.245,9.741,6.071c0,1.827,0.06,2.291,0.06,2.291s5.048-4.405,6.296-4.518
	C60.062,34.601,43.513,15.169,43.513,15.169z"/>
<radialGradient id="SVGID_9_" cx="710.3926" cy="-512.0591" r="21.5464" gradientTransform="matrix(0.8953 0.4557 0.4584 -0.8901 -337.0908 -765.2727)" gradientUnits="userSpaceOnUse">
	<stop  offset="0" style="stop-color:#FFFFFF"/>
	<stop  offset="0.05" style="stop-color:#FECFCD"/>
	<stop  offset="0.17" style="stop-color:#FB5B55"/>
	<stop  offset="0.22" style="stop-color:#FA2D25"/>
	<stop  offset="0.52" style="stop-color:#DB2214"/>
	<stop  offset="0.77" style="stop-color:#C9140B"/>
	<stop  offset="0.98" style="stop-color:#AA0B05"/>
</radialGradient>
<path fill="url(#SVGID_9_)" d="M54.998,10.604c2.259,2.626,2.916,5.686,1.649,7.913c-1.729,3.061-7.593,5.381-12.445,2.915
	c-3.654-1.858-3.94-7.032-2.162-10.06c2.081-3.54,6.167-6.327,9.179-5.062C53.331,7.208,53.509,8.889,54.998,10.604z"/>
<radialGradient id="SVGID_10_" cx="702.0479" cy="-510.1694" r="38.3941" gradientTransform="matrix(0.8953 0.4557 0.4584 -0.8901 -337.0908 -765.2727)" gradientUnits="userSpaceOnUse">
	<stop  offset="0" style="stop-color:#FFFFFF"/>
	<stop  offset="0.05" style="stop-color:#FECFCD"/>
	<stop  offset="0.17" style="stop-color:#FB5B55"/>
	<stop  offset="0.22" style="stop-color:#FA2D25"/>
	<stop  offset="0.52" style="stop-color:#DB2214"/>
	<stop  offset="0.77" style="stop-color:#C9140B"/>
	<stop  offset="0.98" style="stop-color:#AA0B05"/>
</radialGradient>
<path opacity="0.29" fill="url(#SVGID_10_)" enable-background="new    " d="M53.638,8.825c0,0-1.62-1.938-2.596-1.538
	c-0.771,0.321,0.8,2.116,1.201,2.835c0.4,0.721,3.186,4.31,4.07,3.957C57.175,13.695,54.631,10.476,53.638,8.825z"/>
<radialGradient id="SVGID_11_" cx="704.4688" cy="-510.312" r="8.7356" gradientTransform="matrix(0.8953 0.4557 0.4584 -0.8901 -337.0908 -765.2727)" gradientUnits="userSpaceOnUse">
	<stop  offset="0" style="stop-color:#FFFFFF"/>
	<stop  offset="0.05" style="stop-color:#FECFCD"/>
	<stop  offset="0.17" style="stop-color:#FB5B55"/>
	<stop  offset="0.22" style="stop-color:#FA2D25"/>
	<stop  offset="0.52" style="stop-color:#DB2214"/>
	<stop  offset="0.77" style="stop-color:#C9140B"/>
	<stop  offset="0.98" style="stop-color:#AA0B05"/>
</radialGradient>
<path fill="url(#SVGID_11_)" d="M55.317,12.318c-0.271,0.896-1.167-0.304-1.745-0.77c-0.992-0.8-1.41-2.002-1.171-2.306
	c0.289-0.368,0.803-0.272,1.603,0.64C54.918,10.973,55.511,11.693,55.317,12.318z"/>
<radialGradient id="SVGID_12_" cx="710.8564" cy="-517.0737" r="70.618" gradientTransform="matrix(0.8953 0.4557 0.4584 -0.8901 -337.0908 -765.2727)" gradientUnits="userSpaceOnUse">
	<stop  offset="0" style="stop-color:#FFFFFF"/>
	<stop  offset="0.05" style="stop-color:#FECFCD"/>
	<stop  offset="0.17" style="stop-color:#FB5B55"/>
	<stop  offset="0.22" style="stop-color:#FA2D25"/>
	<stop  offset="0.52" style="stop-color:#DB2214"/>
	<stop  offset="0.77" style="stop-color:#C9140B"/>
	<stop  offset="0.98" style="stop-color:#AA0B05"/>
</radialGradient>
<path opacity="0.21" fill="url(#SVGID_12_)" enable-background="new    " d="M44.202,21.432c4.853,2.466,10.716,0.146,12.445-2.915
	c0.271-0.497,0.448-1.026,0.546-1.603c-0.239-0.625-0.514-1.218-0.771-1.586c-0.833-1.232-1.505-1.569-1.505-1.569
	s0.946,2.58-1.603,3.285c-2.368,0.655-9.081,3.203-12.317-0.914C41.158,18.293,42.152,20.391,44.202,21.432z"/>
<radialGradient id="SVGID_13_" cx="691.25" cy="-507.2686" r="34.3837" gradientTransform="matrix(0.8953 0.4557 0.4584 -0.8901 -337.0908 -765.2727)" gradientUnits="userSpaceOnUse">
	<stop  offset="0" style="stop-color:#FFFFFF"/>
	<stop  offset="0.05" style="stop-color:#FECFCD"/>
	<stop  offset="0.17" style="stop-color:#FB5B55"/>
	<stop  offset="0.22" style="stop-color:#FA2D25"/>
	<stop  offset="0.52" style="stop-color:#DB2214"/>
	<stop  offset="0.77" style="stop-color:#C9140B"/>
	<stop  offset="0.98" style="stop-color:#AA0B05"/>
</radialGradient>
<path opacity="0.34" fill="url(#SVGID_13_)" enable-background="new    " d="M43.929,10.667c1.249-1.25,5.062-3.395,5.51-4.1
	c0.193-0.306,0.771-0.387,1.378-0.387c-2.964-0.88-6.774,1.796-8.777,5.191c-0.657,1.106-1.027,2.516-1.058,3.926
	C41.301,14.705,42.824,11.789,43.929,10.667z"/>
<radialGradient id="SVGID_14_" cx="696.7275" cy="-513.6621" r="28.579" gradientTransform="matrix(0.8953 0.4557 0.4584 -0.8901 -337.0908 -765.2727)" gradientUnits="userSpaceOnUse">
	<stop  offset="0" style="stop-color:#FFFFFF"/>
	<stop  offset="0.05" style="stop-color:#FECFCD"/>
	<stop  offset="0.17" style="stop-color:#FB5B55"/>
	<stop  offset="0.22" style="stop-color:#FA2D25"/>
	<stop  offset="0.52" style="stop-color:#DB2214"/>
	<stop  offset="0.77" style="stop-color:#C9140B"/>
	<stop  offset="0.98" style="stop-color:#AA0B05"/>
</radialGradient>
<path opacity="0.19" fill="url(#SVGID_14_)" enable-background="new    " d="M47.278,10.155c0,0,0.832-1.122,2.305-0.241
	c1.474,0.881,2.47,2.067,2.579,2.755c0.111,0.705-1.409,0.145-2.354-0.592C48.863,11.34,47.005,10.875,47.278,10.155z"/>
<radialGradient id="SVGID_15_" cx="696.2646" cy="-514.8789" r="52.9702" gradientTransform="matrix(0.8953 0.4557 0.4584 -0.8901 -337.0908 -765.2727)" gradientUnits="userSpaceOnUse">
	<stop  offset="0" style="stop-color:#FFFFFF"/>
	<stop  offset="0.05" style="stop-color:#FECFCD"/>
	<stop  offset="0.17" style="stop-color:#FB5B55"/>
	<stop  offset="0.22" style="stop-color:#FA2D25"/>
	<stop  offset="0.52" style="stop-color:#DB2214"/>
	<stop  offset="0.77" style="stop-color:#C9140B"/>
	<stop  offset="0.98" style="stop-color:#AA0B05"/>
</radialGradient>
<path opacity="0.73" fill="url(#SVGID_15_)" enable-background="new    " d="M48.608,10.027c0,0,1.265,0.305,1.602,0.738
	c0.337,0.431,0.992,1.056,0.8,1.264c-0.192,0.208-1.281-0.77-1.377-0.833C49.538,11.132,47.118,10.587,48.608,10.027z"/>
<radialGradient id="SVGID_16_" cx="1366.7725" cy="-159.9863" r="121.509" gradientTransform="matrix(-1 0 0 -1 1408.9688 -165.5)" gradientUnits="userSpaceOnUse">
	<stop  offset="0" style="stop-color:#FFFFFF"/>
	<stop  offset="1" style="stop-color:#646464"/>
</radialGradient>
<path fill="url(#SVGID_16_)" d="M42.776,16.947c0,0-2.804,2.804-2.804,6.985c0,4.181,3.669,5.896,6.297,5.896
	c2.642,0,6.358,0.752,8.187,2.466c1.825,1.715,2.864,2.915,5.605,3.316c2.753,0.401,6.246,0.625,6.47-0.865
	C66.773,33.271,42.776,16.947,42.776,16.947z"/>
<radialGradient id="SVGID_17_" cx="1362.1904" cy="-166.8594" r="89.9008" gradientTransform="matrix(-1 0 0 -1 1408.9688 -165.5)" gradientUnits="userSpaceOnUse">
	<stop  offset="0" style="stop-color:#FFFFFF"/>
	<stop  offset="1" style="stop-color:#646464"/>
</radialGradient>
<path fill="url(#SVGID_17_)" d="M59.322,28.801c3.638,2.243,8.283,1.778,9.916,2.179c0,0,2.628-3.717,1.203-5.959
	s-4.696-3.603-7.049-3.829c-2.339-0.224-7.498-2.002-9.965-2.915c-2.465-0.914-5.606,0.401-6.07,1.603s-0.912,2.754-0.912,2.754
	S53.653,25.309,59.322,28.801z"/>
<radialGradient id="SVGID_18_" cx="1369.9766" cy="-168.7012" r="254.709" gradientTransform="matrix(-1 0 0 -1 1408.9688 -165.5)" gradientUnits="userSpaceOnUse">
	<stop  offset="0" style="stop-color:#FFFFFF"/>
	<stop  offset="1" style="stop-color:#646464"/>
</radialGradient>
<path fill="url(#SVGID_18_)" d="M43.064,17.572c0,0-1.314,3.444,2.515,4.807c3.828,1.361,9.85,2.803,12.369,5.734
	c2.514,2.916,7.495,8.586,8.937,7.096c1.425-1.489,4.918-4.693,2.354-5.67c-2.579-0.977-8.938-0.289-10.989-2.403
	c-2.062-2.114-3.89-2.803-7.096-3.78C47.935,22.378,45.355,21.866,43.064,17.572z"/>
<radialGradient id="SVGID_19_" cx="1307.5645" cy="-202.1382" r="94.7676" gradientTransform="matrix(-1.0131 0 0 -1 1420.5439 -165.5)" gradientUnits="userSpaceOnUse">
	<stop  offset="0" style="stop-color:#FFFFFF"/>
	<stop  offset="0.02" style="stop-color:#FEF7E2"/>
	<stop  offset="0.09" style="stop-color:#FBE18C"/>
	<stop  offset="0.13" style="stop-color:#FAD86A"/>
	<stop  offset="0.37" style="stop-color:#F5CB5A"/>
	<stop  offset="0.65" style="stop-color:#C57315"/>
	<stop  offset="0.99" style="stop-color:#AC4A12"/>
</radialGradient>
<path fill="url(#SVGID_19_)" d="M49.794,83.141c16.433,0,30.321-3.832,34.937-9.085c0,0.77,0,1.474,0,2.1
	c0,8.28-15.844,15.009-35.388,15.009c-19.542,0-35.385-6.712-35.385-15.009c0-1.171,0-2.294,0-3.396
	C17.24,78.685,32.043,83.141,49.794,83.141z"/>
<radialGradient id="SVGID_20_" cx="376.9521" cy="320.6992" r="84.242" gradientTransform="matrix(1.0536 0 0 -1.1798 -313.8369 418.7754)" gradientUnits="userSpaceOnUse">
	<stop  offset="0" style="stop-color:#FFFFFF"/>
	<stop  offset="0.15" style="stop-color:#CFAD9B"/>
	<stop  offset="0.28" style="stop-color:#A66644"/>
	<stop  offset="0.35" style="stop-color:#964A22"/>
	<stop  offset="0.65" style="stop-color:#551C0B"/>
	<stop  offset="0.99" style="stop-color:#361211"/>
</radialGradient>
<path opacity="0.49" fill="url(#SVGID_20_)" enable-background="new    " d="M76.817,33.542c3.298,1.763,5.239,3.861,5.239,6.119
	c0,6.217-14.611,11.263-32.649,11.263c-17.333,0-31.509-4.662-32.566-10.557c-0.047,0.241-0.065,0.497-0.065,0.737
	c0,6.648,15.125,12.031,33.786,12.031c18.659,0,33.785-5.382,33.785-12.031C84.347,38.253,81.525,35.609,76.817,33.542z"/>
<radialGradient id="SVGID_21_" cx="343.8271" cy="-219.6597" r="41.9086" gradientTransform="matrix(1 0 0 -1 -271 -165.5)" gradientUnits="userSpaceOnUse">
	<stop  offset="0" style="stop-color:#FFFFFF"/>
	<stop  offset="0.15" style="stop-color:#CFAD9B"/>
	<stop  offset="0.28" style="stop-color:#A66644"/>
	<stop  offset="0.35" style="stop-color:#964A22"/>
	<stop  offset="0.65" style="stop-color:#551C0B"/>
	<stop  offset="0.99" style="stop-color:#361211"/>
</radialGradient>
<path opacity="0.49" fill="url(#SVGID_21_)" enable-background="new    " d="M66.483,58.47c0,0,12.031-8.252,12.72,4.646
	C77.472,60.359,77.812,55.713,66.483,58.47z"/>
<radialGradient id="SVGID_22_" cx="350.6357" cy="-228.5513" r="25.2849" gradientTransform="matrix(1 0 0 -1 -271 -165.5)" gradientUnits="userSpaceOnUse">
	<stop  offset="0" style="stop-color:#FFFFFF"/>
	<stop  offset="0.15" style="stop-color:#CFAD9B"/>
	<stop  offset="0.28" style="stop-color:#A66644"/>
	<stop  offset="0.35" style="stop-color:#964A22"/>
	<stop  offset="0.65" style="stop-color:#551C0B"/>
	<stop  offset="0.99" style="stop-color:#361211"/>
</radialGradient>
<path opacity="0.51" fill="url(#SVGID_22_)" enable-background="new    " d="M80.051,64.301c0,0-0.076,3.698-1.199,5.317
	C81.431,69.635,80.051,64.301,80.051,64.301z"/>
<radialGradient id="SVGID_23_" cx="350.5088" cy="-198.4512" r="210.1523" gradientTransform="matrix(1 0 0 -1 -271 -165.5)" gradientUnits="userSpaceOnUse">
	<stop  offset="0" style="stop-color:#FFFFFF"/>
	<stop  offset="0.15" style="stop-color:#CFAD9B"/>
	<stop  offset="0.28" style="stop-color:#A66644"/>
	<stop  offset="0.35" style="stop-color:#964A22"/>
	<stop  offset="0.65" style="stop-color:#551C0B"/>
	<stop  offset="0.99" style="stop-color:#361211"/>
</radialGradient>
<path opacity="0.16" fill="url(#SVGID_23_)" enable-background="new    " d="M70.747,32.198c0.016,0.224,0.03,0.448,0.03,0.672
	c0,7.049-8.475,15.443-17.878,15.62c6.537,1.201,27.347-2.757,27.347-9.355C80.261,36.121,76.383,33.495,70.747,32.198z"/>
<radialGradient id="SVGID_24_" cx="339.1533" cy="-223.6675" r="47.6608" gradientTransform="matrix(1 0 0 -1 -271 -165.5)" gradientUnits="userSpaceOnUse">
	<stop  offset="0" style="stop-color:#FFFFFF"/>
	<stop  offset="0.15" style="stop-color:#CFAD9B"/>
	<stop  offset="0.28" style="stop-color:#A66644"/>
	<stop  offset="0.35" style="stop-color:#964A22"/>
	<stop  offset="0.65" style="stop-color:#551C0B"/>
	<stop  offset="0.99" style="stop-color:#361211"/>
</radialGradient>
<path opacity="0.5" fill="url(#SVGID_24_)" enable-background="new    " d="M65.013,61.771c0,0-3.016,3.827-3.016,8.198
	c0,4.375-1.968,5.062-3.266,3.269c2.002-0.063,2.177-1.747,2.177-3.556C60.908,67.872,61.068,63.691,65.013,61.771z"/>
<radialGradient id="SVGID_25_" cx="327.7344" cy="-231.1626" r="37.2061" gradientTransform="matrix(1 0 0 -1 -271 -165.5)" gradientUnits="userSpaceOnUse">
	<stop  offset="0" style="stop-color:#FFFFFF"/>
	<stop  offset="0.15" style="stop-color:#CFAD9B"/>
	<stop  offset="0.28" style="stop-color:#A66644"/>
	<stop  offset="0.35" style="stop-color:#964A22"/>
	<stop  offset="0.65" style="stop-color:#551C0B"/>
	<stop  offset="0.99" style="stop-color:#361211"/>
</radialGradient>
<path fill="url(#SVGID_25_)" d="M51.585,68.32c0,0-2.977,0.114-4.116,3.155c-1.136,3.044-3.026,8.314-6.183,4.581
	c2.515,0.737,3.38-0.865,4.693-3.493C47.293,69.924,48.271,68.079,51.585,68.32z"/>
<radialGradient id="SVGID_26_" cx="355.1035" cy="-207.2285" r="34.6533" gradientTransform="matrix(1 0 0 -1 -271 -165.5)" gradientUnits="userSpaceOnUse">
	<stop  offset="0" style="stop-color:#FFFFFF"/>
	<stop  offset="0.15" style="stop-color:#CFAD9B"/>
	<stop  offset="0.28" style="stop-color:#A66644"/>
	<stop  offset="0.35" style="stop-color:#964A22"/>
	<stop  offset="0.65" style="stop-color:#551C0B"/>
	<stop  offset="0.99" style="stop-color:#361211"/>
</radialGradient>
<path opacity="0.33" fill="url(#SVGID_26_)" enable-background="new    " d="M75.92,51.244c0,0,6.695-3.091,8.761-6.36
	c0,3.605,0.688,5.848-1.023,7.899c-1.714,2.064-3.092,3.955-3.427,5.495C79.187,54.51,78.852,51.757,75.92,51.244z"/>
</svg>
