<svg version="1.1" id="Layer_1" xmlns="http://www.w3.org/2000/svg" x="0" y="0" width="100" height="100" viewBox="0 0 100 100" xml:space="preserve"><radialGradient id="SVGID_1_" cx="87.97" cy="35.63" r="118.99" gradientTransform="matrix(1.0102 0 0 1 -8.1086 0)" gradientUnits="userSpaceOnUse"><stop offset="0" stop-color="#FFFFFF"/><stop offset="0.02" stop-color="#FEF7E2"/><stop offset="0.09" stop-color="#FBE18C"/><stop offset="0.13" stop-color="#FAD86A"/><stop offset="0.37" stop-color="#F5CB5A"/><stop offset="0.65" stop-color="#C57315"/><stop offset="0.99" stop-color="#AC4A12"/></radialGradient><path d="M14.09 76.88c0 8.5 16.27 15.4 36.27 15.4S86.57 85.39 86.57 76.88c0-6.02 0-19.63 0-30.44 -5.58 0-66.61 0-72.48 0C14.09 62.08 14.09 68.38 14.09 76.88z" fill="url(#SVGID_1_)"/><radialGradient id="SVGID_2_" cx="1597.79" cy="-13.54" r="58.63" gradientTransform="matrix(-0.9953 0 0 1 1673.6323 0)" gradientUnits="userSpaceOnUse"><stop offset="0" stop-color="#FFFFFF"/><stop offset="0.15" stop-color="#CFAD9B"/><stop offset="0.28" stop-color="#A66644"/><stop offset="0.35" stop-color="#964A22"/><stop offset="0.65" stop-color="#551C0B"/><stop offset="0.99" stop-color="#361211"/></radialGradient><path d="M13.47 44.68c0 0.99-1.99 6.17 0.64 6.17 1.6 0 0.95-2.09 2.34-0.53 4.85 5.47 6.26 15.11 11.35 19.86 2.43 2.27 5.71 1.47 8.51 2.82 4.21 2.03 2.84 8.58 8.37 8.58 4.83 0 3.21-9.02 7.95-9.02 4.99 0 5.37 6.08 8.69 6.08 4.3 0 2.29-10.03 6.58-14.1 6.32-5.99 11.19-1.9 10.26 1.68 -1.05 4.06 0.34 7.49 2.28 7.49 3.07 0 2.35-6.03 2.19-7.67 -0.44-4.49 1.66-7.58 3.33-8.9 2.56-2.03 1.93-9.95 1.93-12.38 0-8.25-12.49-16.41-37.76-16.41C23.93 28.35 13.47 36.43 13.47 44.68z" fill="url(#SVGID_2_)"/><radialGradient id="SVGID_3_" cx="1602.67" cy="1.79" r="84.48" gradientTransform="matrix(-0.9953 0 0 1 1673.8101 0)" gradientUnits="userSpaceOnUse"><stop offset="0" stop-color="#FFFFFF"/><stop offset="0.15" stop-color="#CFAD9B"/><stop offset="0.28" stop-color="#A66644"/><stop offset="0.35" stop-color="#964A22"/><stop offset="0.65" stop-color="#551C0B"/><stop offset="0.99" stop-color="#361211"/></radialGradient><path d="M13.35 43.27c0 0.99-1.99 6.17 0.65 6.17 1.59 0 0.95-2.09 2.34-0.53 4.86 5.46 6.26 15.11 11.35 19.86 2.43 2.27 5.71 1.47 8.51 2.82 4.21 2.03 2.9 8.81 8.42 8.81 4.83 0 3.16-9.26 7.9-9.26 4.99 0 5.37 6.08 8.69 6.08 4.3 0 2.29-10.03 6.58-14.1 6.32-5.99 11.19-1.9 10.26 1.67 -1.05 4.06 0.34 7.49 2.28 7.49 3.07 0 2.35-6.03 2.19-7.67 -0.44-4.49 1.66-7.58 3.34-8.9 2.56-2.03 1.93-9.95 1.93-12.38 0-8.25-12.49-16.41-37.76-16.41C23.81 26.94 13.35 35.02 13.35 43.27z" fill="url(#SVGID_3_)"/><radialGradient id="SVGID_4_" cx="81.33" cy="-2.45" r="48.25" gradientUnits="userSpaceOnUse"><stop offset="0" stop-color="#FFFFFF"/><stop offset="0.15" stop-color="#CFAD9B"/><stop offset="0.28" stop-color="#A66644"/><stop offset="0.35" stop-color="#964A22"/><stop offset="0.65" stop-color="#551C0B"/><stop offset="0.99" stop-color="#361211"/></radialGradient><ellipse cx="49.95" cy="34.22" rx="21.27" ry="7.29" fill="url(#SVGID_4_)"/><radialGradient id="SVGID_5_" cx="1643.34" cy="17.53" r="141.55" gradientTransform="matrix(-1 0 0 1 1676.9688 0)" gradientUnits="userSpaceOnUse"><stop offset="0" stop-color="#FFFFFF"/><stop offset="1" stop-color="#646464"/></radialGradient><path d="M64.83 23.53c0 0 1.29-4.88-2.06-5.87 -3.35-1-16.45-1.35-17.45 0C44.32 19 64.83 23.53 64.83 23.53z" fill="url(#SVGID_5_)"/><radialGradient id="SVGID_6_" cx="1635.12" cy="6.02" r="100.95" gradientTransform="matrix(-1 0 0 1 1676.9688 0)" gradientUnits="userSpaceOnUse"><stop offset="0" stop-color="#FFFFFF"/><stop offset="1" stop-color="#646464"/></radialGradient><path d="M45.38 14.54c0 0-14.17 3.45-15.92 11.52 -1.88 8.64 4.29 11.4 22.92 14.46C59.01 41.6 45.38 14.54 45.38 14.54z" fill="url(#SVGID_6_)"/><radialGradient id="SVGID_7_" cx="1607.15" cy="-8.56" r="137.1" gradientTransform="matrix(-1 0 0 1 1676.9688 0)" gradientUnits="userSpaceOnUse"><stop offset="0" stop-color="#FFFFFF"/><stop offset="1" stop-color="#646464"/></radialGradient><path d="M45.26 16.06c0 0-10.81 1.7-11.11 8.64 -0.29 6.93 6.58 12.4 10.28 13.46 3.7 1.06 4.94-1.76 4.47-6.17C48.44 27.58 45.26 16.06 45.26 16.06z" fill="url(#SVGID_7_)"/><radialGradient id="SVGID_8_" cx="1644.05" cy="12.13" r="161.79" gradientTransform="matrix(-1 0 0 1 1676.9688 0)" gradientUnits="userSpaceOnUse"><stop offset="0" stop-color="#FFFFFF"/><stop offset="1" stop-color="#646464"/></radialGradient><path d="M44.38 15.71c0 0-9.17 2.06-9.17 8.17 0 6.11 5.94 7.46 8.34 7.93 2.41 0.47 9.99 4.35 9.99 6.23 0 1.88 0.06 2.35 0.06 2.35s5.17-4.53 6.46-4.64C61.36 35.63 44.38 15.71 44.38 15.71z" fill="url(#SVGID_8_)"/><radialGradient id="SVGID_9_" cx="350.64" cy="497.72" r="22.1" gradientTransform="matrix(0.8953 0.4557 -0.4584 0.8901 -20.18 -588.0448)" gradientUnits="userSpaceOnUse"><stop offset="0" stop-color="#FFFFFF"/><stop offset="0.05" stop-color="#FECFCD"/><stop offset="0.17" stop-color="#FB5B55"/><stop offset="0.22" stop-color="#FA2D25"/><stop offset="0.52" stop-color="#DB2214"/><stop offset="0.77" stop-color="#C9140B"/><stop offset="0.98" stop-color="#AA0B05"/></radialGradient><path d="M56.15 11.03c2.32 2.69 2.99 5.83 1.7 8.12 -1.77 3.14-7.8 5.52-12.77 2.99 -3.74-1.9-4.04-7.21-2.21-10.32 2.14-3.64 6.32-6.49 9.41-5.19C54.45 7.54 54.64 9.27 56.15 11.03z" fill="url(#SVGID_9_)"/><radialGradient id="SVGID_10_" cx="342.07" cy="495.77" r="39.38" gradientTransform="matrix(0.8953 0.4557 -0.4584 0.8901 -20.18 -588.0448)" gradientUnits="userSpaceOnUse"><stop offset="0" stop-color="#FFFFFF"/><stop offset="0.05" stop-color="#FECFCD"/><stop offset="0.17" stop-color="#FB5B55"/><stop offset="0.22" stop-color="#FA2D25"/><stop offset="0.52" stop-color="#DB2214"/><stop offset="0.77" stop-color="#C9140B"/><stop offset="0.98" stop-color="#AA0B05"/></radialGradient><path d="M54.76 9.21c0 0-1.66-1.99-2.67-1.58 -0.8 0.32 0.82 2.17 1.23 2.9 0.41 0.74 3.27 4.43 4.17 4.05C58.4 14.21 55.78 10.91 54.76 9.21z" style="fill:url(#SVGID_10_);opacity:0.29"/><radialGradient id="SVGID_11_" cx="344.56" cy="495.92" r="8.97" gradientTransform="matrix(0.8953 0.4557 -0.4584 0.8901 -20.18 -588.0448)" gradientUnits="userSpaceOnUse"><stop offset="0" stop-color="#FFFFFF"/><stop offset="0.05" stop-color="#FECFCD"/><stop offset="0.17" stop-color="#FB5B55"/><stop offset="0.22" stop-color="#FA2D25"/><stop offset="0.52" stop-color="#DB2214"/><stop offset="0.77" stop-color="#C9140B"/><stop offset="0.98" stop-color="#AA0B05"/></radialGradient><path d="M56.48 12.79c-0.28 0.92-1.2-0.31-1.8-0.78 -1.02-0.82-1.45-2.06-1.2-2.37 0.3-0.37 0.83-0.28 1.64 0.66C56.07 11.41 56.68 12.15 56.48 12.79z" fill="url(#SVGID_11_)"/><radialGradient id="SVGID_12_" cx="351.11" cy="502.86" r="72.47" gradientTransform="matrix(0.8953 0.4557 -0.4584 0.8901 -20.18 -588.0448)" gradientUnits="userSpaceOnUse"><stop offset="0" stop-color="#FFFFFF"/><stop offset="0.05" stop-color="#FECFCD"/><stop offset="0.17" stop-color="#FB5B55"/><stop offset="0.22" stop-color="#FA2D25"/><stop offset="0.52" stop-color="#DB2214"/><stop offset="0.77" stop-color="#C9140B"/><stop offset="0.98" stop-color="#AA0B05"/></radialGradient><path d="M45.08 22.14c4.97 2.53 11 0.15 12.77-2.99 0.28-0.51 0.46-1.06 0.56-1.64 -0.25-0.64-0.52-1.26-0.78-1.64 -0.85-1.26-1.55-1.62-1.55-1.62s0.98 2.64-1.64 3.36c-2.43 0.67-9.33 3.28-12.63-0.94C41.96 18.92 42.97 21.07 45.08 22.14z" style="fill:url(#SVGID_12_);opacity:0.21"/><radialGradient id="SVGID_13_" cx="331" cy="492.81" r="35.27" gradientTransform="matrix(0.8953 0.4557 -0.4584 0.8901 -20.18 -588.0448)" gradientUnits="userSpaceOnUse"><stop offset="0" stop-color="#FFFFFF"/><stop offset="0.05" stop-color="#FECFCD"/><stop offset="0.17" stop-color="#FB5B55"/><stop offset="0.22" stop-color="#FA2D25"/><stop offset="0.52" stop-color="#DB2214"/><stop offset="0.77" stop-color="#C9140B"/><stop offset="0.98" stop-color="#AA0B05"/></radialGradient><path d="M44.8 11.1c1.27-1.28 5.19-3.49 5.65-4.22 0.2-0.31 0.79-0.39 1.41-0.39 -3.04-0.9-6.96 1.84-9 5.33 -0.67 1.14-1.05 2.58-1.08 4.03C42.1 15.24 43.66 12.24 44.8 11.1z" style="fill:url(#SVGID_13_);opacity:0.34"/><radialGradient id="SVGID_14_" cx="336.61" cy="499.35" r="29.31" gradientTransform="matrix(0.8953 0.4557 -0.4584 0.8901 -20.18 -588.0448)" gradientUnits="userSpaceOnUse"><stop offset="0" stop-color="#FFFFFF"/><stop offset="0.05" stop-color="#FECFCD"/><stop offset="0.17" stop-color="#FB5B55"/><stop offset="0.22" stop-color="#FA2D25"/><stop offset="0.52" stop-color="#DB2214"/><stop offset="0.77" stop-color="#C9140B"/><stop offset="0.98" stop-color="#AA0B05"/></radialGradient><path d="M48.24 10.57c0 0 0.85-1.14 2.37-0.24 1.52 0.9 2.52 2.12 2.64 2.83 0.12 0.72-1.44 0.14-2.41-0.62C49.86 11.79 47.96 11.3 48.24 10.57z" style="fill:url(#SVGID_14_);opacity:0.19"/><radialGradient id="SVGID_15_" cx="336.14" cy="500.6" r="54.38" gradientTransform="matrix(0.8953 0.4557 -0.4584 0.8901 -20.18 -588.0448)" gradientUnits="userSpaceOnUse"><stop offset="0" stop-color="#FFFFFF"/><stop offset="0.05" stop-color="#FECFCD"/><stop offset="0.17" stop-color="#FB5B55"/><stop offset="0.22" stop-color="#FA2D25"/><stop offset="0.52" stop-color="#DB2214"/><stop offset="0.77" stop-color="#C9140B"/><stop offset="0.98" stop-color="#AA0B05"/></radialGradient><path d="M49.6 10.43c0 0 1.29 0.31 1.64 0.75 0.34 0.44 1.02 1.09 0.83 1.3 -0.19 0.21-1.31-0.8-1.41-0.85C50.55 11.57 48.06 11.01 49.6 10.43z" style="fill:url(#SVGID_15_);opacity:0.73"/><radialGradient id="SVGID_16_" cx="1633.94" cy="-5.5" r="124.67" gradientTransform="matrix(-1 0 0 1 1676.9688 0)" gradientUnits="userSpaceOnUse"><stop offset="0" stop-color="#FFFFFF"/><stop offset="1" stop-color="#646464"/></radialGradient><path d="M43.62 17.53c0 0-2.88 2.88-2.88 7.17 0 4.29 3.76 6.05 6.46 6.05 2.7 0 6.52 0.76 8.4 2.53 1.88 1.76 2.94 3 5.76 3.41 2.82 0.41 6.41 0.65 6.64-0.88C68.24 34.28 43.62 17.53 43.62 17.53z" fill="url(#SVGID_16_)"/><radialGradient id="SVGID_17_" cx="1629.24" cy="1.55" r="92.25" gradientTransform="matrix(-1 0 0 1 1676.9688 0)" gradientUnits="userSpaceOnUse"><stop offset="0" stop-color="#FFFFFF"/><stop offset="1" stop-color="#646464"/></radialGradient><path d="M60.6 29.7c3.73 2.3 8.49 1.83 10.16 2.23 0 0 2.7-3.82 1.24-6.11 -1.47-2.29-4.82-3.7-7.23-3.94 -2.41-0.24-7.7-2.06-10.23-3 -2.53-0.94-5.76 0.41-6.23 1.65 -0.47 1.23-0.94 2.82-0.94 2.82S54.78 26.11 60.6 29.7z" fill="url(#SVGID_17_)"/><radialGradient id="SVGID_18_" cx="1637.23" cy="3.43" r="261.33" gradientTransform="matrix(-1 0 0 1 1676.9688 0)" gradientUnits="userSpaceOnUse"><stop offset="0" stop-color="#FFFFFF"/><stop offset="1" stop-color="#646464"/></radialGradient><path d="M43.91 18.18c0 0-1.35 3.53 2.59 4.94s10.11 2.88 12.69 5.88c2.59 3 7.7 8.82 9.17 7.29 1.47-1.53 5.05-4.82 2.41-5.82 -2.64-1-9.17-0.29-11.28-2.47s-4-2.88-7.29-3.88C48.9 23.12 46.26 22.59 43.91 18.18z" fill="url(#SVGID_18_)"/><radialGradient id="SVGID_19_" cx="1569.88" cy="37.75" r="97.23" gradientTransform="matrix(-1.0131 0 0 1 1688.5237 0)" gradientUnits="userSpaceOnUse"><stop offset="0" stop-color="#FFFFFF"/><stop offset="0.02" stop-color="#FEF7E2"/><stop offset="0.09" stop-color="#FBE18C"/><stop offset="0.13" stop-color="#FAD86A"/><stop offset="0.37" stop-color="#F5CB5A"/><stop offset="0.65" stop-color="#C57315"/><stop offset="0.99" stop-color="#AC4A12"/></radialGradient><path d="M50.82 85.46c16.86 0 31.12-3.92 35.84-9.32 0 0.79 0 1.52 0 2.15 0 8.5-16.26 15.4-36.31 15.4 -20.06 0-36.31-6.89-36.31-15.4 0-1.19 0-2.35 0-3.49C17.41 80.88 32.6 85.46 50.82 85.46z" fill="url(#SVGID_19_)"/><radialGradient id="SVGID_20_" cx="121.46" cy="-444.64" r="86.43" gradientTransform="matrix(1.0536 0 0 1.1798 -42.7563 566.2075)" gradientUnits="userSpaceOnUse"><stop offset="0" stop-color="#FFFFFF"/><stop offset="0.15" stop-color="#CFAD9B"/><stop offset="0.28" stop-color="#A66644"/><stop offset="0.35" stop-color="#964A22"/><stop offset="0.65" stop-color="#551C0B"/><stop offset="0.99" stop-color="#361211"/></radialGradient><path d="M78.55 34.57c3.39 1.81 5.37 3.96 5.37 6.27 0 6.39-15 11.56-33.49 11.56 -17.79 0-32.34-4.79-33.42-10.83 -0.04 0.25-0.07 0.51-0.07 0.76 0 6.81 15.52 12.34 34.67 12.34 19.15 0 34.67-5.52 34.67-12.34C86.27 39.39 83.37 36.69 78.55 34.57z" style="fill:url(#SVGID_20_);opacity:0.49"/><radialGradient id="SVGID_21_" cx="74.46" cy="55.73" r="43" gradientUnits="userSpaceOnUse"><stop offset="0" stop-color="#FFFFFF"/><stop offset="0.15" stop-color="#CFAD9B"/><stop offset="0.28" stop-color="#A66644"/><stop offset="0.35" stop-color="#964A22"/><stop offset="0.65" stop-color="#551C0B"/><stop offset="0.99" stop-color="#361211"/></radialGradient><path d="M67.94 60.14c0 0 12.34-8.46 13.05 4.76C79.22 62.08 79.57 57.31 67.94 60.14z" style="fill:url(#SVGID_21_);opacity:0.49"/><radialGradient id="SVGID_22_" cx="81.43" cy="64.85" r="25.97" gradientUnits="userSpaceOnUse"><stop offset="0" stop-color="#FFFFFF"/><stop offset="0.15" stop-color="#CFAD9B"/><stop offset="0.28" stop-color="#A66644"/><stop offset="0.35" stop-color="#964A22"/><stop offset="0.65" stop-color="#551C0B"/><stop offset="0.99" stop-color="#361211"/></radialGradient><path d="M81.86 66.13c0 0-0.09 3.79-1.23 5.47C83.27 71.6 81.86 66.13 81.86 66.13z" style="fill:url(#SVGID_22_);opacity:0.51"/><radialGradient id="SVGID_23_" cx="81.31" cy="33.95" r="215.65" gradientUnits="userSpaceOnUse"><stop offset="0" stop-color="#FFFFFF"/><stop offset="0.15" stop-color="#CFAD9B"/><stop offset="0.28" stop-color="#A66644"/><stop offset="0.35" stop-color="#964A22"/><stop offset="0.65" stop-color="#551C0B"/><stop offset="0.99" stop-color="#361211"/></radialGradient><path d="M72.32 33.19c0.02 0.23 0.03 0.46 0.03 0.7 0 7.23-8.69 15.84-18.34 16.03 6.7 1.23 28.06-2.82 28.06-9.6C82.07 37.21 78.11 34.51 72.32 33.19z" style="fill:url(#SVGID_23_);opacity:0.16"/><radialGradient id="SVGID_24_" cx="69.65" cy="59.83" r="48.91" gradientUnits="userSpaceOnUse"><stop offset="0" stop-color="#FFFFFF"/><stop offset="0.15" stop-color="#CFAD9B"/><stop offset="0.28" stop-color="#A66644"/><stop offset="0.35" stop-color="#964A22"/><stop offset="0.65" stop-color="#551C0B"/><stop offset="0.99" stop-color="#361211"/></radialGradient><path d="M66.44 63.53c0 0-3.08 3.92-3.08 8.42 0 4.49-2.03 5.2-3.35 3.35 2.06-0.06 2.23-1.79 2.23-3.64S62.38 65.5 66.44 63.53z" style="fill:url(#SVGID_24_);opacity:0.5"/><radialGradient id="SVGID_25_" cx="57.95" cy="67.53" r="38.23" gradientUnits="userSpaceOnUse"><stop offset="0" stop-color="#FFFFFF"/><stop offset="0.15" stop-color="#CFAD9B"/><stop offset="0.28" stop-color="#A66644"/><stop offset="0.35" stop-color="#964A22"/><stop offset="0.65" stop-color="#551C0B"/><stop offset="0.99" stop-color="#361211"/></radialGradient><path d="M52.66 70.24c0 0-3.05 0.12-4.23 3.23 -1.17 3.12-3.11 8.52-6.35 4.7 2.59 0.76 3.47-0.88 4.82-3.58C48.25 71.89 49.25 70.01 52.66 70.24z" fill="url(#SVGID_25_)"/><radialGradient id="SVGID_26_" cx="86.03" cy="42.97" r="35.55" gradientUnits="userSpaceOnUse"><stop offset="0" stop-color="#FFFFFF"/><stop offset="0.15" stop-color="#CFAD9B"/><stop offset="0.28" stop-color="#A66644"/><stop offset="0.35" stop-color="#964A22"/><stop offset="0.65" stop-color="#551C0B"/><stop offset="0.99" stop-color="#361211"/></radialGradient><path d="M77.63 52.73c0 0 6.88-3.17 8.99-6.52 0 3.7 0.71 5.99-1.06 8.11 -1.76 2.12-3.17 4.06-3.52 5.64C80.98 56.08 80.63 53.26 77.63 52.73z" style="fill:url(#SVGID_26_);opacity:0.33"/></svg>