<svg version="1.1" id="Layer_1" xmlns="http://www.w3.org/2000/svg" xmlns:xlink="http://www.w3.org/1999/xlink" x="0px" y="0px"
	 viewBox="0 0 60 60" enable-background="new 0 0 60 60" xml:space="preserve">
<circle fill-rule="evenodd" clip-rule="evenodd" fill="none" stroke="#DDE5CE" stroke-width="2.6804" stroke-miterlimit="10" cx="29.833" cy="29.857" r="27.857"/>
<g>
	<path fill="#DDE5CE" d="M26.794,29.883l-7.997-8.805c-0.598-0.708-1.251-1.366-1.251-2.278c0-1.365,1.142-2.58,2.611-2.58
		c1.577,0,2.611,1.519,3.535,2.58l6.636,7.591l6.637-7.591c0.925-1.062,1.958-2.58,3.535-2.58c1.469,0,2.61,1.215,2.61,2.58
		c0,0.912-0.652,1.57-1.25,2.278l-7.996,8.805l7.996,8.806c0.598,0.708,1.25,1.366,1.25,2.276c0,1.367-1.142,2.529-2.61,2.529
		c-1.577,0-2.61-1.467-3.535-2.529l-6.637-7.591l-6.636,7.591c-0.924,1.062-1.958,2.529-3.535,2.529
		c-1.469,0-2.611-1.162-2.611-2.529c0-0.91,0.653-1.568,1.251-2.276L26.794,29.883z"/>
</g>
</svg>
