<svg version="1.1" xmlns="http://www.w3.org/2000/svg" x="0" y="0" viewBox="0 0 60 60" enable-background="new 0 0 60 60" xml:space="preserve"><circle fill-rule="evenodd" clip-rule="evenodd" fill="none" stroke="#DDE5CE" stroke-width="2.7" stroke-miterlimit="10" cx="29.8" cy="29.9" r="27.9"/><path fill="#DDE5CE" d="M26.8 29.9l-8-8.8c-0.6-0.7-1.3-1.4-1.3-2.3 0-1.4 1.1-2.6 2.6-2.6 1.6 0 2.6 1.5 3.5 2.6l6.6 7.6 6.6-7.6c0.9-1.1 2-2.6 3.5-2.6 1.5 0 2.6 1.2 2.6 2.6 0 0.9-0.7 1.6-1.2 2.3l-8 8.8 8 8.8c0.6 0.7 1.3 1.4 1.3 2.3 0 1.4-1.1 2.5-2.6 2.5 -1.6 0-2.6-1.5-3.5-2.5l-6.6-7.6 -6.6 7.6c-0.9 1.1-2 2.5-3.5 2.5 -1.5 0-2.6-1.2-2.6-2.5 0-0.9 0.7-1.6 1.3-2.3L26.8 29.9z"/></svg>