<svg xmlns="http://www.w3.org/2000/svg" viewBox="0 0 768 430"><path d="M384 82.6c-73.1 0-132.4 59.3-132.4 132.4 0 73.1 59.3 132.4 132.4 132.4S516.4 288.1 516.4 215C516.4 141.9 457.1 82.6 384 82.6zM422.4 144.8c11.2 0 20.3 9.1 20.3 20.3 0 11.2-9.1 20.3-20.3 20.3 -11.2 0-20.3-9.1-20.3-20.3C402.1 153.9 411.2 144.8 422.4 144.8zM345.6 144.8c11.2 0 20.3 9.1 20.3 20.3 0 11.2-9.1 20.3-20.3 20.3s-20.3-9.1-20.3-20.3C325.3 153.9 334.4 144.8 345.6 144.8zM447.8 255.6c-15.8 18.6-39.4 29.6-63.8 29.6 -24.5 0-48-11-63.8-29.6 -5.4-6.4 3.8-15.7 9.2-9.2 13.7 16.1 33.3 25.8 54.6 25.8 21.3 0 40.9-9.7 54.6-25.8C444 240 453.2 249.3 447.8 255.6z" fill="#DDE5CE"/></svg>