<svg version="1.1" xmlns="http://www.w3.org/2000/svg" xmlns:xlink="http://www.w3.org/1999/xlink" x="0" y="0" width="130" height="90" viewBox="0 0 130 90" xml:space="preserve" enable-background="new 0 0 130 90"><style>.s0{clip-rule:evenodd;fill-rule:evenodd;fill:#FFF;stroke-linecap:round;stroke-linejoin:round;stroke-width:0.32;stroke:#000;}.s1{clip-rule:evenodd;fill:none;stroke-linecap:square;stroke-linejoin:round;stroke-width:0.32;stroke:#000;}.s2{clip-rule:evenodd;fill-rule:evenodd;}.s3{clip-rule:evenodd;fill-rule:evenodd;fill:#FFF;}</style><refs><style>
#smile {opacity: 0;-webkit-animation: fadein 1s .5s forwards}
@-webkit-keyframes fadein {0% { opacity: 0;}100% { opacity: 1}}		
</style></refs><g id="Layer_1"><path d="M101.32 44.81c0.01-0.36 0.02-0.73 0.02-1.09 0-21.01-16.2-38.04-36.18-38.04 -19.98 0-36.18 17.03-36.18 38.04 0 0.34 0 0.68 0.01 1.02 -29.97 6.31-26.27 37.37-7.26 37.9 -1.13-10.3 1.47-21.28 8.4-29.16C34.15 70.58 48.31 85 65.16 85c16.74 0 30.83-14.24 34.96-31.22 6.72 7.86 9.24 18.68 8.12 28.85C127.18 82.11 130.92 51.29 101.32 44.81z" fill="#DDE5CE"/><ellipse cx="55.87" cy="48.52" rx="7.45" ry="10.24" class="s0"/><path d="M57.57 34.15c0 0-1.02 2.39 1.01 5.12" class="s1"/><path d="M59.94 35.89c0 0-1.01 3.07 1.01 5.8" class="s1"/><path d="M49.78 35.55c0 0-1.01 3.07 1.02 5.81" class="s1"/><path d="M55.54 32.46c0 0-2.71 3.42 0.68 6.15" class="s1"/><path d="M52.49 33.81c0 0-2.37 2.75 0.68 5.14" class="s1"/><path d="M62.9 32.46c-1.67-2.15-4.27-3.53-7.19-3.53 -2.92 0-5.52 1.38-7.19 3.53 1.94-1.35 4.45-2.17 7.19-2.17C58.45 30.29 60.95 31.1 62.9 32.46z" class="s2"/><path d="M49.32 49.43c0-2.5 2-4.52 4.47-4.52 2.47 0 4.47 2.02 4.47 4.52 0 2.49-2 4.52-4.46 4.52C51.32 53.95 49.32 51.92 49.32 49.43z" class="s2"/><ellipse cx="55.28" cy="47.32" rx="1.79" ry="1.81" class="s3"/><ellipse cx="51.48" cy="52.11" rx="1.01" ry="1.02" class="s3"/><ellipse cx="77.36" cy="48.52" rx="7.45" ry="10.24" class="s0"/><path d="M79.06 34.15c0 0-1.02 2.39 1.01 5.12" class="s1"/><path d="M81.43 35.89c0 0-1.01 2.39 1.01 5.12" class="s1"/><path d="M71.27 35.55c0 0-1.01 2.39 1.01 5.12" class="s1"/><path d="M77.03 32.46c0 0-2.71 3.42 0.68 6.15" class="s1"/><path d="M73.98 33.81c0 0-2.37 3.07 0.68 5.46" class="s1"/><path d="M84.39 32.46c-1.67-2.15-4.27-3.53-7.19-3.53 -2.92 0-5.52 1.38-7.19 3.53 1.95-1.35 4.45-2.17 7.19-2.17C79.94 30.29 82.45 31.1 84.39 32.46z" class="s2"/><ellipse cx="75.28" cy="49.43" rx="4.47" ry="4.52" class="s2"/><ellipse cx="76.77" cy="47.32" rx="1.79" ry="1.81" class="s3"/><ellipse cx="73.47" cy="52.45" rx="1.01" ry="1.02" class="s3"/></g><g id="smile"><path d="M42 62c0 0 21.52 5.92 43.97 1.53 0 0-5.87 16.85-22.62 16.27C46.36 79.21 42 62 42 62z" fill="#261B0D"/><path d="M49.42 64.74c0 0 7.37 1.64 14.57 1.89 7.2 0.25 14.52-0.59 14.52-0.59s-4.36 6.48-14.78 6.12C53.31 71.8 49.42 64.74 49.42 64.74z" fill="#FFF"/><path d="M63.34 79.58c5.58 0.14 9.64-1.33 9.48-2.39 -0.16-1.06-5.86-2-9.27-2.12 -3.41-0.12-9.02 0.78-9.06 1.79S58.65 79.46 63.34 79.58z" fill="#BC3B4A"/></g></svg>