<?xml version="1.0" encoding="utf-8"?>
<!-- Generator: Adobe Illustrator 16.0.0, SVG Export Plug-In . SVG Version: 6.00 Build 0)  -->
<!DOCTYPE svg PUBLIC "-//W3C//DTD SVG 1.1//EN" "http://www.w3.org/Graphics/SVG/1.1/DTD/svg11.dtd">
<svg version="1.1" id="Layer_1" xmlns="http://www.w3.org/2000/svg" xmlns:xlink="http://www.w3.org/1999/xlink" x="0px" y="0px"
	 width="595.279px" height="841.891px" viewBox="0 0 595.279 841.891" enable-background="new 0 0 595.279 841.891"
	 xml:space="preserve">
<g id="Layer_1_1_">
</g>
<g id="Layer_2">
	
		<linearGradient id="SVGID_1_" gradientUnits="userSpaceOnUse" x1="150.5774" y1="840.7998" x2="150.5773" y2="-134.2002" gradientTransform="matrix(0.7751 0 0 -0.7751 0.1716 694.7891)">
		<stop  offset="0" style="stop-color:#0990D3"/>
		<stop  offset="0.7" style="stop-color:#65BCAB"/>
	</linearGradient>
	<path fill="url(#SVGID_1_)" d="M210.208,646.966c-59.141,13.564-122.001,34.26-186.646,63.171
		C88.284,681.226,151.068,660.452,210.208,646.966z"/>
	
		<linearGradient id="SVGID_2_" gradientUnits="userSpaceOnUse" x1="384.7766" y1="840.7998" x2="384.7766" y2="-134.2002" gradientTransform="matrix(0.7751 0 0 -0.7751 0.1716 694.7891)">
		<stop  offset="0.1122" style="stop-color:#65BCAB"/>
		<stop  offset="0.5542" style="stop-color:#0990D3"/>
	</linearGradient>
	<path fill="url(#SVGID_2_)" d="M596.055,43.082H0.775v496.299c121.77-22.633,236.95-26.586,339.573-12.246
		c93.4,13.021,178.43,41.235,254.234,77.355v14.494v13.719c-77.743-30.616-165.252-51.079-260.357-52.629
		c95.105,1.55,182.614,22.013,260.357,52.629v14.805v13.177v14.805v16.742c-89.912-22.478-193.389-29.376-305.313-8.681
		c-86.424,15.967-186.258,47.281-288.494,99.368v15.89h595.28V43.082z"/>
	
		<linearGradient id="SVGID_3_" gradientUnits="userSpaceOnUse" x1="249.5271" y1="840.7998" x2="249.5271" y2="-134.2002" gradientTransform="matrix(0.7751 0 0 -0.7751 0.1716 694.7891)">
		<stop  offset="0" style="stop-color:#0990D3"/>
		<stop  offset="0.7" style="stop-color:#65BCAB"/>
	</linearGradient>
	<path fill="url(#SVGID_3_)" d="M386.389,648.826c-26.508,0.62-53.637,2.79-81.153,6.665
		c-90.454,12.867-195.559,43.251-304.461,97.198l0,0c108.902-53.947,214.084-84.331,304.539-97.198
		C332.752,651.616,359.881,649.446,386.389,648.826z"/>
	
		<linearGradient id="SVGID_4_" gradientUnits="userSpaceOnUse" x1="77.927" y1="840.8145" x2="77.927" y2="-134.203" gradientTransform="matrix(0.7751 0 0 -0.7751 0.1716 694.7891)">
		<stop  offset="0" style="stop-color:#0990D3"/>
		<stop  offset="0.7" style="stop-color:#65BCAB"/>
	</linearGradient>
	<path fill="url(#SVGID_4_)" d="M0.775,680.915L0.775,680.915c40.461-17.518,80.456-31.469,119.599-42.398
		C81.231,649.446,41.158,663.397,0.775,680.915z"/>
	<path fill="#0990D3" d="M337.325,554.341c94.175,7.363,180.444,31.547,257.257,64.721v-14.494
		c-75.883-36.12-160.834-64.411-254.234-77.355c-102.623-14.417-217.882-10.464-339.573,12.169c-0.31,0.078-0.697,0.155-1.007,0.232
		v53.56C121.072,557.208,236.406,546.512,337.325,554.341z"/>
	<path fill="#BBD367" d="M130.683,600.847c0.465-0.077,0.93-0.232,1.395-0.31c19.455-4.186,38.601-7.751,57.513-10.542
		c3.411-0.542,6.744-1.008,10.154-1.473c6.278-0.853,12.479-1.705,18.603-2.402c0.388-0.078,0.697-0.078,1.085-0.155
		c25.036-2.945,49.452-4.729,73.17-5.503c1.783-0.078,3.488-0.078,5.271-0.155c1.938-0.077,3.876-0.077,5.813-0.155
		c3.256-0.077,6.511-0.077,9.688-0.155c2.636,0,5.271,0,7.829,0c4.34,0,8.681,0.078,13.021,0.155
		c95.105,1.551,182.614,22.013,260.357,52.63v-13.72c-76.812-33.174-163.082-57.28-257.257-64.721
		c-100.919-7.829-216.254,2.867-337.636,38.755v46.506C44.104,622.859,87.974,610.148,130.683,600.847z"/>
	<path fill="#F6C063" d="M129.287,636.036c3.41-0.93,6.743-1.782,10.154-2.635c3.41-0.853,6.743-1.705,10.076-2.558
		c6.743-1.628,13.409-3.179,19.997-4.651c5.039-1.085,10.077-2.17,15.115-3.178c12.557-2.558,24.958-4.806,37.205-6.743
		c36.739-5.891,72.084-9.224,105.414-10.464c5.735-0.232,11.549-0.388,17.207-0.465c3.798-0.078,7.596-0.078,11.394-0.078
		c5.658,0,11.317,0.078,16.976,0.232c80.533,2.248,155.021,18.216,221.757,42.011v-14.804
		c-77.743-30.617-165.252-51.08-260.357-52.63c-4.341-0.078-8.682-0.078-13.021-0.078c-2.636,0-5.193,0-7.829,0
		c-3.178,0-6.433,0.078-9.688,0.155c-1.938,0-3.876,0.078-5.813,0.155c-1.782,0.077-3.487,0.077-5.271,0.155
		c-23.718,0.774-48.134,2.558-73.17,5.503c-0.388,0.077-0.697,0.077-1.085,0.155c-6.201,0.697-12.401,1.55-18.603,2.402
		c-3.333,0.465-6.743,0.931-10.153,1.473c-18.913,2.868-38.058,6.356-57.514,10.542c-0.465,0.077-0.93,0.232-1.395,0.31
		c-42.709,9.302-86.579,22.013-130.993,38.755v41.778c0.311-0.154,0.698-0.31,1.008-0.465
		c40.461-17.518,80.456-31.469,119.599-42.398C123.32,637.664,126.265,636.812,129.287,636.036z"/>
	<path fill="#D69D3C" d="M13.332,714.787c3.41-1.55,6.82-3.101,10.23-4.65c64.645-28.911,127.505-49.685,186.646-63.171
		c6.123-1.396,12.169-2.713,18.215-3.953c9.224-1.938,18.293-3.644,27.284-5.193c21.005-3.644,41.468-6.278,61.232-8.062
		c13.72-1.24,27.361-2.093,40.771-2.48c9.611-0.31,19.146-0.387,28.602-0.31s18.835,0.388,28.059,0.853
		c64.644,3.256,125.18,15.425,180.135,32.942v-13.177c-66.814-23.796-141.225-39.764-221.758-42.011
		c-5.581-0.155-11.239-0.232-16.975-0.232c-3.798,0-7.596,0-11.394,0.077c-5.736,0.077-11.472,0.232-17.208,0.465
		c-33.329,1.24-68.674,4.573-105.414,10.464c-12.246,1.938-24.648,4.186-37.205,6.743c-5.038,1.008-10.076,2.093-15.114,3.179
		c-6.666,1.473-13.332,3.022-19.998,4.65c-3.333,0.853-6.743,1.628-10.076,2.558s-6.743,1.783-10.153,2.636
		c-2.945,0.774-5.969,1.627-8.914,2.48c-39.065,10.852-79.138,24.803-119.521,42.32c-0.31,0.155-0.697,0.311-1.007,0.465v39.763
		C4.263,718.973,8.836,716.88,13.332,714.787z"/>
	<path fill="#EA5F72" d="M386.389,648.826c6.124-0.155,12.247-0.232,18.293-0.155c68.054,0.232,132.155,10.464,189.9,26.818v-14.805
		c-54.955-17.595-115.49-29.687-180.134-32.941c-9.302-0.465-18.603-0.775-28.06-0.853c-9.456-0.078-18.989,0-28.601,0.31
		c-13.409,0.388-27.052,1.24-40.771,2.48c-19.766,1.783-40.229,4.496-61.233,8.062c-8.991,1.55-18.138,3.255-27.283,5.193
		c-6.046,1.239-12.092,2.558-18.216,3.952c-59.14,13.564-122.001,34.26-186.645,63.171c-3.411,1.551-6.821,3.101-10.231,4.651
		c-4.573,2.093-9.069,4.186-13.642,6.355v32.012c0.31-0.155,0.697-0.31,1.007-0.542c108.902-53.947,214.084-84.332,304.539-97.198
		C332.752,651.616,359.881,649.446,386.389,648.826z"/>
	<path fill="#CB394D" d="M594.582,692.231v-16.742c-57.822-16.432-121.847-26.663-189.9-26.818c-6.046,0-12.169,0.077-18.293,0.155
		c-26.508,0.62-53.637,2.79-81.153,6.666c-90.454,12.866-195.559,43.25-304.461,97.197c-0.31,0.155-0.697,0.311-1.007,0.543v30.307
		c0.31-0.155,0.697-0.388,1.007-0.543c102.236-52.087,202.147-83.401,288.572-99.368
		C401.194,662.855,504.748,669.831,594.582,692.231z"/>
</g>
</svg>
