<svg version="1.1" xmlns="http://www.w3.org/2000/svg" xmlns:xlink="http://www.w3.org/1999/xlink" viewBox="0 0 768 975" enable-background="new 0 0 768 975" xml:space="preserve">
<g id="Layer_1">
</g>
<g id="Layer_2">
	<g>
		<linearGradient id="SVGID_1_" gradientUnits="userSpaceOnUse" x1="150.8237" y1="4.882812e-04" x2="150.8237" y2="975.0004">
			<stop  offset="0" style="stop-color:#0990D3"/>
			<stop  offset="0.7449" style="stop-color:#65BCAB"/>
		</linearGradient>
		<path fill="url(#SVGID_1_)" d="M271.238,779.075c-76.319,17.467-157.385,44.222-240.828,81.546
			C113.854,823.297,194.919,796.542,271.238,779.075z"/>
		<linearGradient id="SVGID_2_" gradientUnits="userSpaceOnUse" x1="384.9658" y1="4.882812e-04" x2="384.9658" y2="975.0005">
			<stop  offset="0" style="stop-color:#0990D3"/>
			<stop  offset="0.7449" style="stop-color:#65BCAB"/>
		</linearGradient>
		<path fill="url(#SVGID_2_)" d="M768.966,0h-768v640.298c157.054-29.179,305.687-34.309,438.122-15.782
			c120.514,16.776,230.172,53.24,328.037,99.828v18.712v17.71c-100.316-39.547-213.246-65.852-335.93-67.897
			c122.683,2.046,235.612,28.351,335.93,67.898v19.118v16.96v19.094v21.586c-115.967-28.951-249.549-37.901-393.892-11.236
			C261.748,846.905,132.881,887.331,0.966,954.534V975h768V0z"/>
		<linearGradient id="SVGID_3_" gradientUnits="userSpaceOnUse" x1="249.7417" y1="4.882812e-04" x2="249.7417" y2="975.0005">
			<stop  offset="0" style="stop-color:#0990D3"/>
			<stop  offset="0.7449" style="stop-color:#65BCAB"/>
		</linearGradient>
		<path fill="url(#SVGID_3_)" d="M498.518,781.527c-34.222,0.788-69.177,3.557-104.701,8.582
			c-116.685,16.58-252.335,55.782-392.85,125.374v0.001c140.516-69.593,276.167-108.794,392.852-125.375
			C429.342,785.084,464.296,782.315,498.518,781.527z"/>
		<linearGradient id="SVGID_4_" gradientUnits="userSpaceOnUse" x1="78.1206" y1="4.882812e-04" x2="78.1206" y2="975.0005">
			<stop  offset="0" style="stop-color:#0990D3"/>
			<stop  offset="0.7449" style="stop-color:#65BCAB"/>
		</linearGradient>
		<path fill="url(#SVGID_4_)" d="M0.966,822.899L0.966,822.899c52.161-22.593,103.843-40.635,154.308-54.742
			C104.809,782.265,53.127,800.307,0.966,822.899z"/>
		<path fill="#0990D3" d="M435.193,659.592c121.494,9.536,232.819,40.678,331.932,83.465v-18.712
			c-97.865-46.588-207.523-83.052-328.037-99.828C306.653,605.99,158.021,611.12,0.966,640.299
			c-0.448,0.083-0.897,0.169-1.346,0.252v69.078C156.154,663.253,305.001,649.519,435.193,659.592z"/>
		<path fill="#BBD367" d="M168.604,719.551c0.592-0.129,1.181-0.252,1.774-0.381c25.064-5.43,49.821-9.955,74.192-13.629
			c4.367-0.658,8.717-1.279,13.059-1.883c8.059-1.123,16.079-2.164,24.048-3.104c0.457-0.057,0.912-0.105,1.369-0.156
			c32.312-3.777,63.847-6.082,94.419-7.084c2.278-0.074,4.549-0.141,6.814-0.201c2.493-0.066,4.977-0.125,7.456-0.174
			c4.189-0.084,8.361-0.145,12.51-0.18c3.393-0.027,6.775-0.045,10.141-0.041c5.643,0.006,11.246,0.057,16.811,0.15
			c122.684,2.046,235.613,28.351,335.93,67.897v-17.71c-99.112-42.787-210.438-73.929-331.932-83.465
			c-130.192-10.073-279.04,3.661-435.573,50.037v59.987C56.881,748.036,113.482,731.58,168.604,719.551z"/>
		<path fill="#F6C063" d="M166.767,765.006c4.368-1.176,8.729-2.32,13.079-3.438s8.69-2.203,13.019-3.264
			c8.658-2.119,17.276-4.125,25.846-6.018c6.53-1.443,13.033-2.822,19.507-4.141c16.187-3.289,32.194-6.191,47.998-8.725
			c47.412-7.596,92.977-11.877,135.982-13.471c7.449-0.277,14.859-0.459,22.234-0.551c4.916-0.062,9.814-0.084,14.699-0.066
			c7.322,0.027,14.609,0.141,21.855,0.342c103.948,2.894,199.983,23.516,286.137,54.21v-19.118
			c-100.317-39.548-213.247-65.853-335.93-67.898c-5.564-0.094-11.168-0.145-16.811-0.15c-3.365-0.004-6.748,0.014-10.141,0.041
			c-4.148,0.035-8.32,0.096-12.51,0.18c-2.479,0.049-4.963,0.107-7.456,0.174c-2.266,0.061-4.536,0.127-6.814,0.201
			c-30.572,1.002-62.106,3.307-94.419,7.084c-0.457,0.051-0.912,0.1-1.369,0.156c-7.969,0.939-15.989,1.98-24.048,3.104
			c-4.341,0.604-8.692,1.225-13.059,1.883c-24.371,3.674-49.128,8.199-74.192,13.629c-0.593,0.129-1.182,0.252-1.774,0.381
			C113.482,731.58,56.881,748.036-0.379,769.616v53.872c0.448-0.195,0.897-0.395,1.346-0.589
			c52.161-22.593,103.843-40.635,154.308-54.742C159.112,767.084,162.943,766.033,166.767,765.006z"/>
		<path fill="#D69D3C" d="M17.236,866.594c4.397-2.02,8.789-4.01,13.173-5.973c83.443-37.324,164.509-64.079,240.828-81.546
			c7.895-1.807,15.739-3.515,23.53-5.124c11.871-2.451,23.62-4.676,35.233-6.678c27.1-4.672,53.473-8.131,79.004-10.441
			c17.717-1.607,35.254-2.668,52.6-3.211c12.387-0.389,24.676-0.518,36.859-0.396c12.182,0.121,24.262,0.488,36.229,1.094
			c83.426,4.215,161.496,19.875,232.432,42.527v-16.96c-86.153-30.694-182.188-51.316-286.137-54.21
			c-7.246-0.201-14.533-0.314-21.855-0.342c-4.885-0.018-9.783,0.004-14.699,0.066c-7.375,0.092-14.785,0.273-22.234,0.551
			c-43.005,1.594-88.571,5.875-135.982,13.471c-15.804,2.533-31.812,5.436-47.998,8.725c-6.474,1.318-12.978,2.697-19.507,4.141
			c-8.57,1.893-17.188,3.898-25.846,6.018c-4.329,1.061-8.668,2.146-13.019,3.264s-8.711,2.262-13.079,3.438
			c-3.824,1.027-7.655,2.078-11.493,3.151C104.81,782.265,53.127,800.307,0.966,822.899c-0.448,0.194-0.897,0.394-1.346,0.589
			v51.345C5.502,872.036,11.375,869.285,17.236,866.594z"/>
		<path fill="#EA5F72" d="M498.518,781.527c7.896-0.182,15.755-0.258,23.572-0.232c87.834,0.286,170.47,13.458,245.035,34.645
			v-19.094c-70.936-22.652-149.006-38.312-232.432-42.527c-11.967-0.605-24.047-0.973-36.229-1.094
			c-12.184-0.121-24.473,0.008-36.859,0.396c-17.346,0.543-34.883,1.604-52.6,3.211c-25.532,2.311-51.905,5.77-79.004,10.441
			c-11.614,2.002-23.362,4.227-35.233,6.678c-7.791,1.609-15.635,3.317-23.53,5.124c-76.319,17.467-157.383,44.222-240.828,81.546
			c-4.385,1.963-8.776,3.953-13.173,5.973c-5.861,2.691-11.734,5.442-17.616,8.239v41.32c0.449-0.223,0.897-0.447,1.346-0.67
			c140.515-69.592,276.165-108.794,392.85-125.374C429.341,785.084,464.296,782.315,498.518,781.527z"/>
		<path fill="#CB394D" d="M767.125,837.525v-21.586c-74.565-21.187-157.201-34.358-245.035-34.645
			c-7.817-0.025-15.676,0.051-23.572,0.232c-34.222,0.788-69.176,3.557-104.699,8.582C277.133,806.69,141.482,845.892,0.966,915.484
			c-0.448,0.223-0.897,0.447-1.346,0.67v39.062c0.449-0.229,0.897-0.454,1.346-0.683
			c131.915-67.203,260.782-107.629,372.267-128.245C517.576,799.624,651.158,808.574,767.125,837.525z"/>
	</g>
</g>
</svg>
