<svg version="1.1" xmlns="http://www.w3.org/2000/svg" viewBox="0 0 768 975" enable-background="new 0 0 768 975" xml:space="preserve"><style>.s0{stop-color:#0990D3;}.s1{stop-color:#65BCAB;}</style><g id="Layer_1"/><g id="Layer_2"><linearGradient id="SVGID_1_" gradientUnits="userSpaceOnUse" x1="150.8" y1="0" x2="150.8" y2="975"><stop offset="0" stop-color="#0990D3"/><stop offset="0.7" stop-color="#65BCAB"/></linearGradient><path fill="url(#SVGID_1_)" d="M271.2 779.1c-76.3 17.5-157.4 44.2-240.8 81.5C113.9 823.3 194.9 796.5 271.2 779.1z"/><linearGradient id="SVGID_2_" gradientUnits="userSpaceOnUse" x1="385" y1="0" x2="385" y2="975"><stop offset="0" stop-color="#0990D3"/><stop offset="0.7" stop-color="#65BCAB"/></linearGradient><path fill="url(#SVGID_2_)" d="M769 0h-768v640.3c157.1-29.2 305.7-34.3 438.1-15.8 120.5 16.8 230.2 53.2 328 99.8v18.7 17.7c-100.3-39.5-213.2-65.9-335.9-67.9 122.7 2 235.6 28.4 335.9 67.9v19.1 17 19.1 21.6c-116-29-249.5-37.9-393.9-11.2C261.7 846.9 132.9 887.3 1 954.5V975h768V0z"/><linearGradient id="SVGID_3_" gradientUnits="userSpaceOnUse" x1="249.7" y1="0" x2="249.7" y2="975"><stop offset="0" stop-color="#0990D3"/><stop offset="0.7" stop-color="#65BCAB"/></linearGradient><path fill="url(#SVGID_3_)" d="M498.5 781.5c-34.2 0.8-69.2 3.6-104.7 8.6 -116.7 16.6-252.3 55.8-392.8 125.4v0c140.5-69.6 276.2-108.8 392.9-125.4C429.3 785.1 464.3 782.3 498.5 781.5z"/><linearGradient id="SVGID_4_" gradientUnits="userSpaceOnUse" x1="78.1" y1="0" x2="78.1" y2="975"><stop offset="0" stop-color="#0990D3"/><stop offset="0.7" stop-color="#65BCAB"/></linearGradient><path fill="url(#SVGID_4_)" d="M1 822.9L1 822.9c52.2-22.6 103.8-40.6 154.3-54.7C104.8 782.3 53.1 800.3 1 822.9z"/><path fill="#0990D3" d="M435.2 659.6c121.5 9.5 232.8 40.7 331.9 83.5v-18.7c-97.9-46.6-207.5-83.1-328-99.8C306.7 606 158 611.1 1 640.3c-0.4 0.1-0.9 0.2-1.3 0.3v69.1C156.2 663.3 305 649.5 435.2 659.6z"/><path fill="#BBD367" d="M168.6 719.6c0.6-0.1 1.2-0.3 1.8-0.4 25.1-5.4 49.8-10 74.2-13.6 4.4-0.7 8.7-1.3 13.1-1.9 8.1-1.1 16.1-2.2 24-3.1 0.5-0.1 0.9-0.1 1.4-0.2 32.3-3.8 63.8-6.1 94.4-7.1 2.3-0.1 4.5-0.1 6.8-0.2 2.5-0.1 5-0.1 7.5-0.2 4.2-0.1 8.4-0.1 12.5-0.2 3.4 0 6.8 0 10.1 0 5.6 0 11.2 0.1 16.8 0.2 122.7 2 235.6 28.4 335.9 67.9v-17.7c-99.1-42.8-210.4-73.9-331.9-83.5 -130.2-10.1-279 3.7-435.6 50v60C56.9 748 113.5 731.6 168.6 719.6z"/><path fill="#F6C063" d="M166.8 765c4.4-1.2 8.7-2.3 13.1-3.4s8.7-2.2 13-3.3c8.7-2.1 17.3-4.1 25.8-6 6.5-1.4 13-2.8 19.5-4.1 16.2-3.3 32.2-6.2 48-8.7 47.4-7.6 93-11.9 136-13.5 7.4-0.3 14.9-0.5 22.2-0.6 4.9-0.1 9.8-0.1 14.7-0.1 7.3 0 14.6 0.1 21.9 0.3 103.9 2.9 200 23.5 286.1 54.2v-19.1c-100.3-39.5-213.2-65.9-335.9-67.9 -5.6-0.1-11.2-0.1-16.8-0.1 -3.4 0-6.7 0-10.1 0 -4.1 0-8.3 0.1-12.5 0.2 -2.5 0-5 0.1-7.5 0.2 -2.3 0.1-4.5 0.1-6.8 0.2 -30.6 1-62.1 3.3-94.4 7.1 -0.5 0.1-0.9 0.1-1.4 0.2 -8 0.9-16 2-24 3.1 -4.3 0.6-8.7 1.2-13.1 1.9 -24.4 3.7-49.1 8.2-74.2 13.6 -0.6 0.1-1.2 0.3-1.8 0.4C113.5 731.6 56.9 748-0.4 769.6v53.9c0.4-0.2 0.9-0.4 1.3-0.6 52.2-22.6 103.8-40.6 154.3-54.7C159.1 767.1 162.9 766 166.8 765z"/><path fill="#D69D3C" d="M17.2 866.6c4.4-2 8.8-4 13.2-6 83.4-37.3 164.5-64.1 240.8-81.5 7.9-1.8 15.7-3.5 23.5-5.1 11.9-2.5 23.6-4.7 35.2-6.7 27.1-4.7 53.5-8.1 79-10.4 17.7-1.6 35.3-2.7 52.6-3.2 12.4-0.4 24.7-0.5 36.9-0.4 12.2 0.1 24.3 0.5 36.2 1.1 83.4 4.2 161.5 19.9 232.4 42.5v-17c-86.2-30.7-182.2-51.3-286.1-54.2 -7.2-0.2-14.5-0.3-21.9-0.3 -4.9 0-9.8 0-14.7 0.1 -7.4 0.1-14.8 0.3-22.2 0.6 -43 1.6-88.6 5.9-136 13.5 -15.8 2.5-31.8 5.4-48 8.7 -6.5 1.3-13 2.7-19.5 4.1 -8.6 1.9-17.2 3.9-25.8 6 -4.3 1.1-8.7 2.1-13 3.3s-8.7 2.3-13.1 3.4c-3.8 1-7.7 2.1-11.5 3.2C104.8 782.3 53.1 800.3 1 822.9c-0.4 0.2-0.9 0.4-1.3 0.6v51.3C5.5 872 11.4 869.3 17.2 866.6z"/><path fill="#EA5F72" d="M498.5 781.5c7.9-0.2 15.8-0.3 23.6-0.2 87.8 0.3 170.5 13.5 245 34.6v-19.1c-70.9-22.7-149-38.3-232.4-42.5 -12-0.6-24-1-36.2-1.1 -12.2-0.1-24.5 0-36.9 0.4 -17.3 0.5-34.9 1.6-52.6 3.2 -25.5 2.3-51.9 5.8-79 10.4 -11.6 2-23.4 4.2-35.2 6.7 -7.8 1.6-15.6 3.3-23.5 5.1 -76.3 17.5-157.4 44.2-240.8 81.5 -4.4 2-8.8 4-13.2 6 -5.9 2.7-11.7 5.4-17.6 8.2v41.3c0.4-0.2 0.9-0.4 1.3-0.7 140.5-69.6 276.2-108.8 392.9-125.4C429.3 785.1 464.3 782.3 498.5 781.5z"/><path fill="#CB394D" d="M767.1 837.5v-21.6c-74.6-21.2-157.2-34.4-245-34.6 -7.8 0-15.7 0.1-23.6 0.2 -34.2 0.8-69.2 3.6-104.7 8.6C277.1 806.7 141.5 845.9 1 915.5c-0.4 0.2-0.9 0.4-1.3 0.7v39.1c0.4-0.2 0.9-0.5 1.3-0.7 131.9-67.2 260.8-107.6 372.3-128.2C517.6 799.6 651.2 808.6 767.1 837.5z"/></g></svg>