<svg version="1.1" xmlns="http://www.w3.org/2000/svg" xmlns:xlink="http://www.w3.org/1999/xlink" x="0px" y="0px" viewBox="0 0 768 1024" enable-background="new 0 0 768 1024" xml:space="preserve">
<g id="Layer_4">
	<linearGradient id="SVGID_1_" gradientUnits="userSpaceOnUse" x1="383.9995" y1="0" x2="383.9995" y2="1024.0005">
		<stop  offset="0.1122" style="stop-color:#65BCAB"/>
		<stop  offset="0.5542" style="stop-color:#0990D3"/>
	</linearGradient>
	<rect fill="url(#SVGID_1_)" width="768" height="1024"/>
</g>
<g id="Layer_1">
	<g id="Layer_2">
		
			<linearGradient id="SVGID_2_" gradientUnits="userSpaceOnUse" x1="308.9785" y1="-273.4146" x2="308.9784" y2="701.5738" gradientTransform="matrix(0.7751 0 0 0.7751 -36.604 346.0161)">
			<stop  offset="0" style="stop-color:#0990D3"/>
			<stop  offset="0.7" style="stop-color:#65BCAB"/>
		</linearGradient>
		<path fill="url(#SVGID_2_)" d="M296.208,737.966c-59.141,13.564-122.001,34.26-186.646,63.171
			C174.284,772.226,237.068,751.452,296.208,737.966z"/>
		
			<linearGradient id="SVGID_3_" gradientUnits="userSpaceOnUse" x1="407.9297" y1="-273.4214" x2="407.9297" y2="701.575" gradientTransform="matrix(0.7751 0 0 0.7751 -36.604 346.0161)">
			<stop  offset="0" style="stop-color:#0990D3"/>
			<stop  offset="0.7" style="stop-color:#65BCAB"/>
		</linearGradient>
		<path fill="url(#SVGID_3_)" d="M472.39,739.826c-26.509,0.62-53.638,2.79-81.154,6.665
			c-90.453,12.867-195.558,43.251-304.46,97.198l0,0c108.902-53.947,214.084-84.331,304.539-97.198
			C418.752,742.616,445.881,740.446,472.39,739.826z"/>
		
			<linearGradient id="SVGID_4_" gradientUnits="userSpaceOnUse" x1="236.3281" y1="-273.4741" x2="236.3281" y2="701.5869" gradientTransform="matrix(0.7751 0 0 0.7751 -36.604 346.0161)">
			<stop  offset="0" style="stop-color:#0990D3"/>
			<stop  offset="0.7" style="stop-color:#65BCAB"/>
		</linearGradient>
		<path fill="url(#SVGID_4_)" d="M86.775,771.915L86.775,771.915c40.461-17.519,80.456-31.469,119.599-42.398
			C167.231,740.446,127.158,754.396,86.775,771.915z"/>
		<path fill="#0990D3" d="M423.325,645.341c94.175,7.363,180.444,31.547,257.257,64.722v-14.494
			c-75.883-36.12-160.834-64.411-254.233-77.355c-102.624-14.417-217.883-10.464-339.574,12.169
			c-0.31,0.078-0.697,0.155-1.007,0.232v53.56C207.072,648.208,322.406,637.512,423.325,645.341z"/>
		<path fill="#BBD367" d="M169.112,640.469c0.601-0.099,1.2-0.296,1.801-0.396c25.116-5.364,49.834-9.932,74.249-13.508
			c4.404-0.693,8.706-1.291,13.109-1.888c8.104-1.092,16.11-2.183,24.016-3.077c0.501-0.1,0.899-0.1,1.401-0.199
			c32.321-3.773,63.842-6.058,94.462-7.05c2.302-0.101,4.502-0.101,6.804-0.198c2.502-0.1,5.004-0.1,7.504-0.198
			c4.204-0.099,8.407-0.099,12.508-0.199c3.403,0,6.804,0,10.107,0c5.603,0,11.206,0.101,16.812,0.199
			c122.778,1.987,235.751,28.204,336.116,67.431v-17.579c-99.164-42.503-210.538-73.388-332.116-82.922
			C305.6,570.854,156.703,584.558,0,630.538v59.584C57.339,668.672,113.975,652.387,169.112,640.469z"/>
		<path fill="#F6C063" d="M167.31,685.555c4.401-1.191,8.704-2.283,13.108-3.375c4.402-1.095,8.705-2.186,13.008-3.278
			c8.705-2.086,17.311-4.073,25.816-5.959c6.505-1.39,13.008-2.78,19.513-4.072c16.211-3.277,32.22-6.157,48.031-8.638
			c47.43-7.549,93.06-11.819,136.088-13.408c7.404-0.297,14.909-0.497,22.214-0.596c4.903-0.101,9.806-0.101,14.709-0.101
			c7.305,0,14.61,0.101,21.917,0.299c103.967,2.879,200.13,23.338,286.285,53.825v-18.968
			c-100.365-39.228-213.338-65.444-336.116-67.431c-5.606-0.1-11.21-0.1-16.812-0.1c-3.404,0-6.704,0-10.107,0
			c-4.102,0-8.304,0.1-12.508,0.199c-2.501,0-5.002,0.1-7.504,0.196c-2.3,0.1-4.501,0.1-6.804,0.199
			c-30.619,0.992-62.141,3.277-94.462,7.051c-0.501,0.1-0.9,0.1-1.401,0.199c-8.005,0.893-16.009,1.986-24.016,3.078
			c-4.303,0.596-8.705,1.191-13.108,1.887c-24.416,3.675-49.132,8.145-74.25,13.506c-0.6,0.1-1.2,0.299-1.801,0.397
			C113.975,652.385,57.339,668.671,0.001,690.12v53.528c0.401-0.197,0.902-0.397,1.302-0.596
			c52.234-22.444,103.868-40.319,154.4-54.322C159.606,687.641,163.408,686.55,167.31,685.555z"/>
		<path fill="#D69D3C" d="M17.613,786.452c4.403-1.985,8.804-3.974,13.207-5.958c83.456-37.042,164.607-63.657,240.958-80.936
			c7.904-1.788,15.709-3.477,23.515-5.065c11.908-2.481,23.616-4.668,35.223-6.652c27.118-4.67,53.535-8.045,79.049-10.33
			c17.715-1.589,35.324-2.682,52.637-3.177c12.408-0.398,24.717-0.496,36.925-0.398c12.208,0.1,24.315,0.498,36.224,1.095
			c83.453,4.171,161.606,19.762,232.552,42.205v-16.883c-86.256-30.487-182.319-50.946-286.286-53.825
			c-7.205-0.199-14.51-0.298-21.916-0.298c-4.901,0-9.806,0-14.708,0.099c-7.404,0.1-14.811,0.299-22.217,0.596
			c-43.027,1.59-88.657,5.859-136.087,13.406c-15.81,2.484-31.82,5.364-48.031,8.64c-6.504,1.292-13.008,2.683-19.513,4.074
			c-8.605,1.887-17.211,3.871-25.817,5.957c-4.303,1.094-8.705,2.085-13.008,3.278c-4.303,1.191-8.705,2.283-13.107,3.376
			c-3.802,0.992-7.706,2.085-11.508,3.177c-50.433,13.905-102.166,31.779-154.3,54.223c-0.401,0.199-0.899,0.397-1.3,0.596v50.944
			C5.905,791.815,11.809,789.134,17.613,786.452z"/>
		<path fill="#EA5F72" d="M499.227,701.941c7.904-0.199,15.809-0.297,23.616-0.199c87.856,0.298,170.609,13.407,245.157,34.361
			v-18.97c-70.945-22.543-149.097-38.035-232.551-42.204c-12.01-0.596-24.017-0.994-36.227-1.094c-12.205-0.1-24.513,0-36.923,0.398
			c-17.312,0.496-34.923,1.587-52.634,3.177c-25.519,2.284-51.935,5.76-79.051,10.329c-11.608,1.986-23.417,4.171-35.222,6.653
			c-7.805,1.587-15.61,3.278-23.517,5.063c-76.349,17.379-157.501,43.894-240.956,80.936c-4.403,1.988-8.807,3.974-13.208,5.96
			c-5.904,2.682-11.708,5.362-17.611,8.143v41.014c0.4-0.199,0.899-0.397,1.299-0.694
			c140.591-69.118,276.38-108.048,393.155-124.532C429.979,705.517,465.003,702.736,499.227,701.941z"/>
		<path fill="#CB394D" d="M768,757.553v-21.449c-74.648-21.055-157.302-34.162-245.157-34.361c-7.808,0-15.712,0.099-23.616,0.199
			c-34.224,0.795-69.247,3.575-104.77,8.541C277.682,726.967,141.993,765.895,1.402,835.014c-0.401,0.197-0.9,0.397-1.3,0.696
			v38.829c0.4-0.199,0.899-0.496,1.3-0.695c131.985-66.735,260.969-106.856,372.543-127.313
			C518.338,719.917,652.026,728.854,768,757.553z"/>
	</g>
</g>
</svg>
