<svg xmlns="http://www.w3.org/2000/svg" xmlns:xlink="http://www.w3.org/1999/xlink" version="1.1" id="Layer_1" x="0px" y="0px" width="768px" height="976px" viewBox="0 0 768 976" enable-background="new 0 0 768 976" xml:space="preserve">
<g id="Layer_1_3_">
	<g id="Layer_3">
		<g id="Layer_6">
			
				<linearGradient id="backgroundcolor_1_" gradientUnits="userSpaceOnUse" x1="1718" y1="228" x2="1718" y2="-796" gradientTransform="matrix(1 0 0 1 -1334 796)">
				<stop offset="0" style="stop-color:#65BCAB"/>
				<stop offset="1" style="stop-color:#409D8B"/>
			</linearGradient>
			<rect id="backgroundcolor" fill="url(#backgroundcolor_1_)" width="768" height="976"/>
		</g>
	</g>
	<g id="Layer_2_1_">
		<g>
			<g>
				<g>
					<defs>
						<rect id="SVGID_1_" width="768" height="976"/>
					</defs>
					<clipPath id="SVGID_2_">
						<use xlink:href="#SVGID_1_" overflow="visible"/>
					</clipPath>
					<g id="Layer_4" clip-path="url(#SVGID_2_)">
						<g>
							<path fill="#0990D3" d="M1164.4 707.7C1080.9 629.2 988.2 550.9 878.1 488C760.2 420.7 621.9 365.7 465.3 343.9 c-172.3-24.104-372-8.2-582 48.6c-165.1 44.6-335.7 93.5-514.2 137.1l-20 163.304l73.5 9 c152.3-78.4 300.7-151.5 445.8-213.604C82 397 287.9 368.8 461.9 382.7C618.3 395.2 758.3 443.5 876.2 506.2 C987.3 565.3 1079.8 641.1 1162.1 716.7c77.4 71.1 147.7 143.9 201.5 221.7c0.104 0.2 0.3 0.4 0.4 0.6l6.8 0.8 c-1.7-2.5-3.396-5-5.2-7.5C1311.5 854.7 1242 780.7 1164.4 707.7z"/>
							<path fill="#0066B2" d="M900.3 486.9c105.604 60.3 194.6 135.5 274.8 210.8C1095.2 622.5 1006 547.2 900.3 486.9z"/>
							<path fill="#BBD367" d="M456.5 416.6c156.2 3.2 296.6 45.4 415.5 104c111.4 54.9 205 127.9 287.9 201.4 c75.196 66.7 143.9 136.5 197 211.7l7.1 0.896c-0.1-0.1-0.1-0.196-0.2-0.3c-53.896-77.5-123.8-150.7-201.2-221.7 c-82.5-75.5-175.3-151.5-286.196-210.3c-118.5-62.8-258.304-111-415-123.3C288.2 365.6 82 394.3-131.4 485.9 C-273.7 547-419.2 619.8-568.5 698.5l184.4 22.5c77.3-52.4 154.1-100.6 230.6-144.1"/>
							<path fill="#F6C063" d="M-379.5 715.5l103.2 12.6c30.2-22.896 60.5-44.896 90.9-65.896C34.8 509.8 264.3 455 447.4 448.5 c159-5.6 301.6 30.7 420.9 84.7c111.8 50.5 205.8 120.6 288.8 191.896C1231.3 788.8 1298 854.7 1350.4 927l6.696 0.8 c-52.896-75-121.3-144.2-196.5-211.1C1077.8 643.1 984.1 570.2 872.7 515.3C754 456.8 613.6 414.9 457.4 412.3 C279.2 409.3 61.3 450.6-154 573.7"/>
							<path fill="#D69D3C" d="M1158.1 721.9C1074.9 650.3 980.5 580.1 868.8 529.7C749.7 476 607.4 439.5 448.4 445.4 C264.8 452.2 34.5 508-186.5 661.3c-29.1 20.2-58 41.2-86.9 63.104l70.7 8.6C24.1 574.5 251 498.6 434.4 482 c162.1-14.6 309.1 16.5 429.9 66.1c112 46 206.8 113 290.8 182.7c70.9 58.8 136.5 121.7 187.6 190.9l7.198 0.9 C1297.7 850.8 1231.2 784.8 1158.1 721.9z"/>
							<path fill="#EA5F72" d="M1155.9 725.1C1071.9 655.4 977.1 588.4 865.1 542.4C744.3 492.8 597.3 461.6 435.2 476.3 c-183.4 16.604-410.3 92.4-637.1 251l61.6 7.5C57.8 602.9 257.2 535.9 419.8 512.8c164.7-23.396 317.2 1.9 441 47.9 c111.8 41.5 207.7 106.7 291.9 174.1c69.3 55.5 133.6 114.2 183.8 180.5l7.2 0.9C1292.4 846.8 1226.8 783.9 1155.9 725.1z"/>
							<path fill="#CB394D" d="M1152.9 731.6C1068.8 664.2 972.9 599 861 557.5c-123.8-46-276.3-71.2-441-47.9 C257.4 532.7 58 599.7-140.1 731.6l53.9 6.604C84.1 631.5 256.1 572.3 399.4 545.8C571 514.1 727.4 532.7 857.1 575.4 c111.304 36.7 207.7 99 292.7 164.8c66.7 51.7 128.2 108 177.9 170.7l9.1 1.1C1286.5 845.8 1222.2 787.1 1152.9 731.6z"/>
						</g>
					</g>
				</g>
			</g>
		</g>
	</g>
	<g id="Layer_1_2_">
		<g id="Layer_7">
			<ellipse fill="#409D8B" cx="385" cy="827" rx="205" ry="131"/>
		</g>
		<g id="Layer_5">
			<g>
				<path fill="#87CCBE" d="M748.8 152.2c-0.2 5.2-0.2 5.4-5 5.5c4.7 0.2 4.9 0.4 5 5.5c0.103-5.4 0.2-5.3 5-5.5 C748.899 157.4 748.8 157.4 748.8 152.2z"/>
				<path fill="#87CCBE" d="M753.5 128.4c-0.2 5.2-0.2 5.4-5 5.5c4.7 0.2 4.9 0.4 5 5.5c0.1-5.4 0.2-5.3 5-5.5 C753.6 133.6 753.5 133.6 753.5 128.4z"/>
				<path fill="#87CCBE" d="M720.5 142.5c-0.2 5.2-0.2 5.4-5 5.5c4.7 0.2 4.9 0.4 5 5.5c0.1-5.4 0.2-5.3 5-5.5 C720.6 147.7 720.5 147.7 720.5 142.5z"/>
				<path fill="#87CCBE" d="M709.8 89.2c0.103-10.5 0.5-10.4 9.9-10.9c-9.7-0.6-9.9-0.7-9.9-10.9c-0.397 10.2-0.5 10.5-9.897 10.9 C709.2 78.6 709.5 79 709.8 89.2z"/>
				<path fill="#87CCBE" d="M728 196.6c-0.5 10.2-0.601 10.5-9.9 10.9c7.303 0.3 8.9 0.6 9.6 5.5h0.6c0.5-5.1 2.3-5.1 9.603-5.5 C728.2 206.9 728 206.8 728 196.6z"/>
				<path fill="#87CCBE" d="M727.8 196.4c-9.7-0.6-9.897-0.7-9.897-10.9c-0.399 10.2-0.603 10.5-9.899 10.9 c9.3 0.4 9.6 0.7 9.9 10.9C717.899 196.7 718.3 196.8 727.8 196.4z"/>
				<path fill="#87CCBE" d="M705 358.8c-0.101 5.104-0.2 5.2-4.8 5.4c4.6 0.1 4.7 0.4 4.8 5.396c0.1-5.3 0.2-5.196 5-5.396 C705.1 363.8 705 363.8 705 358.8z"/>
				<path fill="#87CCBE" d="M691.6 368.7c-0.197 5.1-0.396 5.2-5 5.396c4.604 0.1 4.7 0.4 5 5.304c0-5.2 0.2-5.2 4.803-5.304 C691.7 373.8 691.6 373.8 691.6 368.7z"/>
				<path fill="#87CCBE" d="M703.899 371.1c-0.199 5.104-0.199 5.2-5 5.4c4.697 0.2 4.7 0.4 5 5.4c0.101-5.2 0.197-5.2 5-5.4 C704 376.3 703.9 376.2 703.9 371.1z"/>
				<path fill="#87CCBE" d="M699.1 349.7c0.104-5.2 0.2-5.2 5-5.4c-4.697-0.2-4.8-0.396-5-5.396c-0.1 5.1-0.197 5.3-4.8 5.4 C698.8 344.5 698.9 344.6 699.1 349.7z"/>
				<path fill="#87CCBE" d="M595.3 324.9c0.103-10.5 0.5-10.4 9.9-10.9c-9.7-0.6-9.9-0.7-9.9-10.9c-0.397 10.2-0.6 10.5-9.897 10.9 C594.7 314.3 594.9 314.7 595.3 324.9z"/>
				<path fill="#87CCBE" d="M580.399 305.5c0.101-10.5 0.5-10.4 9.897-10.9c-9.7-0.6-9.897-0.7-9.897-10.8 c-0.399 10-0.603 10.4-9.899 10.8C579.8 295 580 295.3 580.4 305.5z"/>
				<path fill="#BAE2D8" d="M42.1 255c0.6-39.6 1.8-39.3 37.3-41c-36.3-2.3-37.2-2.7-37.3-40.9C40.6 211.3 40 212.6 4.8 214 C39.9 215.4 40.6 216.8 42.1 255z"/>
				<path fill="#87CCBE" d="M582.5 228h-0.2c0.103 0.6 0.1 1.3 0.1 2.1C582.5 229.3 582.5 228.6 582.5 228z"/>
				<path fill="#87CCBE" d="M575.3 284.3c0.103-5.2 0.2-5.2 5-5.3c-4.7-0.4-4.8-0.4-5-5.4c-0.1 5-0.2 5.2-4.8 5.4 C575.1 279.1 575.2 279.4 575.3 284.3z"/>
				<path fill="#87CCBE" d="M731.3 328.7c-0.397 6.7-0.397 6.896-6.7 7.1c6.2 0.2 6.3 0.5 6.7 7.3c0-7 0.2-6.896 6.5-7.3 C731.399 335.5 731.3 335.4 731.3 328.7z"/>
				<path fill="#87CCBE" d="M723.2 354.4c-0.2 6.696-0.4 6.896-6.5 7.1c6.199 0.2 6.3 0.5 6.5 7.3c0.1-7 0.396-6.896 6.699-7.3 C723.399 361.2 723.2 361.1 723.2 354.4z"/>
				<path fill="#87CCBE" d="M722.3 308.2c-6.3-0.4-6.5-0.5-6.5-7.3c-0.2 6.8-0.397 7-6.5 7.3c6.2 0.2 6.3 0.5 6.5 7.3 C715.899 308.4 716.1 308.4 722.3 308.2z"/>
				<path fill="#87CCBE" d="M568.8 329.2c0.103-5.2 0.2-5.2 5-5.4c-4.8-0.2-5-0.398-5-5.3c-0.1 5-0.2 5.2-5 5.3 C568.5 324 568.6 324.2 568.8 329.2z"/>
				<path fill="#87CCBE" d="M738.899 37.1c0.101-5.2 0.197-5.2 5-5.4c-3.801-0.2-4.699-0.3-4.899-2.7h-0.3 c-0.301 2.4-1.104 2.6-4.801 2.7C738.6 31.9 738.6 32 738.9 37.1z"/>
				<path fill="#9FD6C9" d="M556 108.9c-0.7 20.3-1.101 21.1-19.8 21.9c18.8 0.7 19.1 1.5 19.8 21.8c0.399-21.1 1-20.9 20-21.8 C556.6 129.5 556.1 129.4 556 108.9z"/>
				<path fill="#87CCBE" d="M498.2 120.8c-0.801 20.5-1.104 21.1-20 21.9c18.8 0.7 19.1 1.5 20 21.8c0.199-21.1 1-20.9 19.8-21.8 C498.7 141.5 498.2 141.2 498.2 120.8z"/>
				<path fill="#B3E2D6" d="M641.3 108.4c-0.8 20.3-1.1 21.1-19.8 21.8c18.6 0.7 19 1.6 19.8 21.9c0.2-21.2 1-20.9 19.8-21.9 C641.8 129 641.3 128.8 641.3 108.4z"/>
				<path fill="#87CCBE" d="M740.5 72.4c-0.8 20.3-1.101 21.1-19.8 21.8c18.6 0.7 19 1.6 19.8 21.9c0.2-21.2 1-20.9 19.8-21.9 C741 93 740.5 92.7 740.5 72.4z"/>
				<path fill="#A4D8CB" d="M560.6 72c0.5-31 1.5-30.7 29.2-32.1c-28.397-1.8-29-2.1-29.2-31.9c-1.1 29.8-1.6 30.9-29 31.9 C558.899 41 559.5 42.1 560.6 72z"/>
				<path fill="#87CCBE" d="M474.3 48.6C452.2 47.2 449 46.8 448.4 29h-0.5c-1.103 17.9-4.103 18.8-25.5 19.6 c24.397 1 24.9 1.9 25.9 28.6C448.8 49.6 449.7 49.8 474.3 48.6z"/>
				<path fill="#87CCBE" d="M550.3 101.2c-12.7-0.7-13-1-13.1-14.3c-0.5 13.3-0.604 13.8-12.9 14.3c12.2 0.5 12.5 1 12.9 14.3 C537.5 101.7 538 101.8 550.3 101.2z"/>
				<path fill="#87CCBE" d="M526 106.6c-0.3 7.5-0.3 7.8-7.3 8.1c6.896 0.3 7.1 0.5 7.3 8.1c0.1-7.8 0.399-7.8 7.399-8.1 C526.2 114.3 526.1 114.1 526 106.6z"/>
				<path fill="#87CCBE" d="M594 111.7c-0.5 10.2-0.601 10.5-9.9 10.9c9.303 0.4 9.4 0.7 9.9 10.9c0.1-10.5 0.5-10.4 9.8-10.9 C594.3 122 594 121.9 594 111.7z"/>
				<path fill="#87CCBE" d="M637.899 191.7c-0.399 7.9-0.5 8.2-7.699 8.5c7.199 0.3 7.3 0.6 7.7 8.5 c0.101-8.2 0.397-8.1 7.601-8.5C638.1 199.7 637.9 199.6 637.9 191.7z"/>
				<path fill="#87CCBE" d="M650.3 172.5c-0.397 7.9-0.5 8.2-7.7 8.5c7.2 0.3 7.3 0.6 7.7 8.5c0.103-8.2 0.4-8.1 7.603-8.5 C650.5 180.5 650.3 180.4 650.3 172.5z"/>
				<path fill="#87CCBE" d="M593.8 111.5c-9.7-0.6-9.897-0.7-9.897-10.9c-0.399 10.2-0.603 10.5-9.899 10.9 c9.3 0.4 9.6 0.7 9.9 10.9C584 111.8 584.3 112 593.8 111.5z"/>
				<path fill="#87CCBE" d="M659.3 94.2c-0.5 14.6-0.8 15.1-14.3 15.7c13.5 0.5 13.7 1 14.3 15.7c0.3-15.1 0.7-15 14.4-15.7 C659.7 109 659.3 108.9 659.3 94.2z"/>
				<path fill="#87CCBE" d="M720.6 93.8c-0.6 14.6-0.8 15.1-14.3 15.7c13.4 0.5 13.7 1.1 14.3 15.7c0.2-15.2 0.7-15 14.303-15.7 C720.899 108.6 720.6 108.5 720.6 93.8z"/>
				<path fill="#87CCBE" d="M686.6 96.2c-0.3 7.3-0.396 7.6-7.1 7.8c6.7 0.3 6.8 0.5 7.1 7.8c0.104-7.6 0.303-7.5 7-7.8 C686.7 103.6 686.6 103.5 686.6 96.2z"/>
				<path fill="#87CCBE" d="M686.399 96c-7-0.4-7.103-0.5-7.103-7.8c-0.3 7.3-0.397 7.6-7.1 7.8c6.697 0.3 6.9 0.5 7.1 7.8 C679.399 96.3 679.6 96.4 686.4 96z"/>
				<path fill="#87CCBE" d="M543.3 146.2c-0.2 5.1-0.2 5.2-5 5.4c4.7 0.1 4.7 0.4 5 5.4c0.103-5.3 0.2-5.2 5-5.4 C543.399 151.3 543.3 151.3 543.3 146.2z"/>
				<path fill="#87CCBE" d="M527.3 180.2c-0.2 5.1-0.2 5.2-5 5.4c4.7 0.1 4.7 0.4 5 5.4c0.103-5.3 0.2-5.2 5-5.4 C527.399 185.3 527.3 185.3 527.3 180.2z"/>
				<path fill="#87CCBE" d="M626.7 91.4c0-5.2 0.199-5.2 4.8-5.4c-4.7-0.2-4.8-0.4-4.8-5.3c-0.2 5-0.4 5.2-5 5.3 C626.3 86.2 626.5 86.4 626.7 91.4z"/>
				<path fill="#87CCBE" d="M607.5 83c-0.101 5.1-0.2 5.2-4.8 5.4c4.6 0.1 4.7 0.4 4.8 5.4c0.1-5.3 0.2-5.2 5-5.4 C607.7 88.1 607.6 88.1 607.5 83z"/>
				<path fill="#87CCBE" d="M442.3 103.5c-0.2 5.1-0.2 5.3-5 5.4c4.7 0.2 4.7 0.4 5 5.4c0.103-5.2 0.2-5.2 5-5.4 C442.5 108.7 442.3 108.5 442.3 103.5z"/>
				<path fill="#87CCBE" d="M517.8 82.1c-0.2 5.1-0.2 5.2-5 5.4c4.603 0.1 4.7 0.4 5 5.4c0-5.3 0.2-5.2 5-5.4 C517.899 87.1 517.8 87.1 517.8 82.1z"/>
				<path fill="#87CCBE" d="M512.2 79c0.199-16.7 0.8-16.6 15.699-17.3c-15.399-1-15.699-1.2-15.699-17.3 c-0.604 16.1-0.801 16.7-15.7 17.3C511.2 62.3 511.6 62.9 512.2 79z"/>
				<path fill="#BADBD3" d="M632.2 318.35c0.199-16.899 0.8-16.8 16-17.5c-15.604-1-16-1.1-16-17.4c-0.604 16.3-0.801 16.8-16 17.4 C631.3 301.4 631.6 302.1 632.2 318.35z"/>
				<path fill="#87CCBE" d="M613.3 258.7c0.2-12.1 0.603-12 11.4-12.5c-11-0.7-11.301-0.8-11.4-12.5c-0.397 11.6-0.6 12-11.3 12.5 C612.7 246.6 612.9 247.1 613.3 258.7z"/>
				<path fill="#87CCBE" d="M664.399 60.8c0.197-12.1 0.601-12 11.397-12.5c-11-0.7-11.3-0.8-11.397-12.5 c-0.399 11.6-0.603 12-11.303 12.5C663.8 48.7 664 49.2 664.4 60.8z"/>
				<path fill="#87CCBE" d="M412.3 131.9c-0.2 5.2-0.2 5.4-5 5.5c4.7 0.2 4.9 0.4 5 5.5c0.101-5.4 0.2-5.3 5-5.5 C412.398 137.2 412.3 137.1 412.3 131.9z"/>
				<path fill="#87CCBE" d="M401.6 78.6c0.104-10.5 0.5-10.4 9.9-10.9c-9.7-0.6-9.9-0.7-9.9-10.9C401.2 67 401.1 67.3 391.7 67.7 C401 68 401.2 68.4 401.6 78.6z"/>
				<path fill="#87CCBE" d="M254.8 159.25c-0.7 20.3-1.1 21.1-19.8 21.9c18.8 0.7 19.1 1.5 19.8 21.8c0.4-21.1 1-20.9 20-21.8 C255.4 179.8 255 179.8 254.8 159.25z"/>
				<path fill="#87CCBE" d="M298.2 29h-0.6c0.2 1.7 0.3 3.8 0.4 6.5C298 32.8 298.1 30.7 298.2 29z"/>
				<path fill="#87CCBE" d="M316 8c-0.8 20.3-1.1 21.1-19.8 21.8c18.6 0.7 19 1.6 19.8 21.9c0.2-21.2 1-20.9 19.8-21.9 C316.4 28.6 316 28.3 316 8z"/>
				<path fill="#87CCBE" d="M467.5 81c-0.7 15.8-0.8 16.4-15.4 16.9c14.5 0.6 14.8 1.2 15.4 17c0.2-16.4 0.8-16.3 15.399-17 C467.899 97 467.5 96.8 467.5 81z"/>
				<path fill="#B6DDD3" d="M234.812 82.611c20.676-23.104 21.235-22.222 43.088-5.143c-18.992-18.701-20.458-20.369-4.644-39.083 l-0.227-0.196c-16.808 17.722-19.115 17.179-39.12 1.172C253.824 58.1 253.6 59.3 234.8 82.611z"/>
				<path fill="#87CCBE" d="M224.8 38.7c-12.7-0.7-13-1-13.1-14.3c-0.5 13.3-0.6 13.8-12.9 14.3c12.2 0.5 12.5 1 12.9 14.3 C212 39.2 212.5 39.3 224.8 38.7z"/>
				<path fill="#87CCBE" d="M296.25 101.2c-0.5 10.2-0.6 10.5-9.9 10.9c9.3 0.4 9.4 0.7 9.9 10.9c0.1-10.5 0.5-10.4 9.8-10.9 C296.45 111.5 296.2 111.4 296.2 101.2z"/>
				<path fill="#87CCBE" d="M329.7 181.1c-0.4 7.9-0.5 8.2-7.7 8.5c7.2 0.3 7.3 0.6 7.7 8.5c0.1-8.2 0.4-8.1 7.6-8.5 C329.9 189.1 329.7 189 329.7 181.1z"/>
				<path fill="#87CCBE" d="M342.1 162c-0.4 7.9-0.5 8.2-7.7 8.5c7.2 0.3 7.3 0.6 7.7 8.5c0.1-8.2 0.4-8.1 7.6-8.5 C342.3 169.9 342.1 169.8 342.1 162z"/>
				<path fill="#87CCBE" d="M301.8 145.9c-9.7-0.6-9.9-0.7-9.9-10.9c-0.4 10.2-0.6 10.5-9.9 10.9c9.3 0.4 9.6 0.7 9.9 10.9 C292 146.3 292.4 146.4 301.8 145.9z"/>
				<path fill="#87CCBE" d="M351 83.6c-0.5 14.6-0.8 15.1-14.3 15.7c13.5 0.5 13.7 1 14.3 15.7c0.3-15.1 0.7-15 14.4-15.7 C351.4 98.4 351.1 98.3 351 83.6z"/>
				<path fill="#87CCBE" d="M412.3 83.2c-0.6 14.6-0.8 15.1-14.3 15.7c13.398 0.5 13.7 1.1 14.3 15.7c0.2-15.2 0.7-15 14.3-15.7 C412.7 98 412.3 97.9 412.3 83.2z"/>
				<path fill="#87CCBE" d="M378.3 85.6c-0.3 7.3-0.4 7.6-7.1 7.8c6.7 0.3 6.8 0.5 7.1 7.8c0.1-7.6 0.3-7.5 7-7.8 C378.5 93 378.3 92.9 378.3 85.6z"/>
				<path fill="#87CCBE" d="M378.1 85.4c-7-0.4-7.1-0.5-7.1-7.8c-0.3 7.3-0.4 7.6-7.1 7.8c6.7 0.3 6.9 0.5 7.1 7.8 C371.1 85.7 371.4 85.8 378.1 85.4z"/>
				<path fill="#87CCBE" d="M68.8 254c-0.2 5.1-0.2 5.2-5 5.4c4.7 0.1 4.7 0.4 5 5.4c0.1-5.3 0.2-5.2 5-5.4 C69 259.1 68.8 259.1 68.8 254z"/>
				<path fill="#87CCBE" d="M318.4 80.8c0-5.2 0.2-5.2 4.8-5.4c-4.7-0.2-4.8-0.4-4.8-5.3c-0.2 5-0.4 5.2-5 5.3 C318.1 75.6 318.2 75.8 318.4 80.8z"/>
				<path fill="#87CCBE" d="M299.2 72.4c-0.1 5.1-0.2 5.2-4.8 5.4c4.6 0.1 4.7 0.4 4.8 5.4c0.1-5.3 0.2-5.2 5-5.4 C299.4 77.5 299.3 77.5 299.2 72.4z"/>
				<path fill="#87CCBE" d="M356.1 50.2c0.2-12.1 0.6-12 11.4-12.5c-9.7-0.6-11-0.8-11.3-8.7H356c-0.4 8-1.7 8.3-11.1 8.7 C355.5 38.1 355.8 38.6 356.1 50.2z"/>
				<path fill="#87CCBE" d="M11.5 149.1c0 5.2-0.1 5.2-5 5.5c4.8 0.2 5 0.2 5 5.5c0.2-5.2 0.3-5.4 5-5.5 C11.7 154.5 11.7 154.3 11.5 149.1z"/>
				<path fill="#87CCBE" d="M11.8 130.8c-4.8-0.2-4.9-0.4-5-5.5c0 5.2-0.1 5.2-5 5.5c4.8 0.2 5 0.2 5 5.5 C6.9 131.2 7.1 131 11.8 130.8z"/>
				<path fill="#87CCBE" d="M39.7 139.4c0 5.2-0.1 5.2-5 5.5c4.8 0.2 5 0.2 5 5.5c0.2-5.2 0.3-5.4 5-5.5 C40 144.8 39.9 144.6 39.7 139.4z"/>
				<path fill="#87CCBE" d="M50.4 86.1c0.4-10.2 0.6-10.5 9.9-10.9c-9.4-0.4-9.6-0.7-9.9-10.9c0 10.2-0.2 10.3-9.9 10.9 C49.9 75.7 50.3 75.5 50.4 86.1z"/>
				<path fill="#87CCBE" d="M69.5 285.6c-0.1 18.7-0.5 18.9-18.2 20c16.4 0.8 17.8 0.7 18.1 17.3h0.2c0.7-16.102 1.8-16.7 18-17.3 C70.5 304.9 70.3 304.2 69.5 285.6z"/>
				<path fill="#87CCBE" d="M132.6 295.7c0.1-5.1 0.2-5.3 4.8-5.4c-4.6-0.2-4.7-0.4-4.8-5.4c0 5.1-0.1 5.1-5 5.4 C132.4 290.5 132.5 290.4 132.6 295.7z"/>
				<path fill="#87CCBE" d="M146 305.5c0.2-5 0.4-5.2 5-5.3c-4.6-0.2-4.7-0.4-5-5.4c0 5.1-0.1 5.1-4.8 5.4 C145.8 300.3 146 300.3 146 305.5z"/>
				<path fill="#87CCBE" d="M133.7 308.1c0.2-5.1 0.2-5.2 5-5.399c-4.7-0.2-4.7-0.4-5-5.4c0 5.1-0.1 5.2-5 5.4 C133.4 302.9 133.6 302.9 133.7 308.1z"/>
				<path fill="#87CCBE" d="M143.4 270.3c-4.6-0.1-4.7-0.4-4.8-5.4c-0.1 5.1-0.2 5.2-5 5.4c4.7 0.2 4.8 0.2 5 5.4 C138.7 270.7 138.8 270.6 143.4 270.3z"/>
				<path fill="#87CCBE" d="M705 234c0 6.8-0.2 6.8-6.7 7.3c6.3 0.2 6.5 0.2 6.7 7.1c0.2-6.7 0.399-6.9 6.5-7.1 C705.399 241.1 705.3 240.8 705 234z"/>
				<path fill="#87CCBE" d="M106.3 254.8c0 6.7-0.1 6.8-6.5 7.1c6.3 0.4 6.5 0.2 6.5 7.3c0.4-6.8 0.5-7 6.7-7.3 C106.7 261.7 106.7 261.5 106.3 254.8z"/>
				<path fill="#87CCBE" d="M121 287.6c-6.2-0.2-6.3-0.5-6.5-7.1c0 6.7-0.2 6.8-6.7 7.1c6.3 0.4 6.5 0.2 6.7 7.3 C114.7 288.1 114.8 287.9 121 287.6z"/>
				<path fill="#87CCBE" d="M121.8 227c0 6.8-0.2 6.9-6.5 7.3c6.2 0.2 6.4 0.2 6.5 7.3c0.2-6.8 0.4-7 6.5-7.3 C122.2 234 122.1 233.8 121.8 227z"/>
				<path fill="#87CCBE" d="M19.8 69.3c0 20.3-0.5 20.6-19.8 21.8c18.8 1 19.5 0.7 19.8 21.9c0.905-22.97 1.095-21.196 19.8-21.9 C20.9 90.4 20.6 89.6 19.8 69.3z"/>
				<path fill="#87CCBE" d="M166.2 108.6c0 10.2-0.2 10.3-9.8 10.9c9.3 0.5 9.7 0.4 9.8 10.9c0.5-10.2 0.6-10.5 9.9-10.9 C166.8 119.1 166.7 118.8 166.2 108.6z"/>
				<path fill="#87CCBE" d="M122.3 188.6c0 7.9-0.2 8-7.6 8.5c7.2 0.4 7.5 0.3 7.6 8.5c0.4-7.9 0.5-8.2 7.7-8.5 C122.8 196.8 122.7 196.5 122.3 188.6z"/>
				<path fill="#87CCBE" d="M109.9 169.4c0 7.9-0.2 8-7.6 8.5c7.2 0.4 7.5 0.3 7.6 8.5c0.4-7.9 0.5-8.2 7.7-8.5 C110.4 177.6 110.3 177.3 109.9 169.4z"/>
				<path fill="#87CCBE" d="M188.7 44.2c0 10.2-0.2 10.3-9.9 10.9c9.4 0.5 9.8 0.4 9.9 10.9c0.4-10.2 0.6-10.5 9.9-10.9 C189.3 54.7 189.1 54.4 188.7 44.2z"/>
				<path fill="#87CCBE" d="M108.1 116.4c-13.5-0.6-13.7-1.1-14.3-15.7c-0.1 14.7-0.4 14.8-14.4 15.7c13.7 0.6 14.1 0.5 14.4 15.7 C94.4 117.5 94.7 117 108.1 116.4z"/>
				<path fill="#87CCBE" d="M39.7 122.1c0.6-14.6 0.9-15.2 14.3-15.7c-13.5-0.5-13.7-1-14.3-15.7c0 14.6-0.3 14.8-14.3 15.7 C39 107.1 39.5 106.9 39.7 122.1z"/>
				<path fill="#87CCBE" d="M73.7 108.7c0.3-7.3 0.4-7.6 7.1-7.8c-6.7-0.3-6.8-0.5-7.1-7.8c0 7.3-0.2 7.4-7 7.8 C73.3 101.3 73.6 101.2 73.7 108.7z"/>
				<path fill="#87CCBE" d="M81 100.7c0.3-7.3 0.4-7.6 7.1-7.8c-6.7-0.3-6.9-0.5-7.1-7.8c0 7.3-0.2 7.4-7.1 7.8 C80.6 93.3 80.9 93.2 81 100.7z"/>
				<path fill="#87CCBE" d="M95.8 57.7c0.4-11.6 0.6-12.1 11.3-12.5c-10.7-0.4-10.9-0.8-11.3-12.4c-0.1 11.6-0.4 11.7-11.4 12.5 C95.2 45.7 95.6 45.6 95.8 57.7z"/>
			</g>
		</g>
		<g id="Layer_8">
		</g>
		<g id="Layer_9">
		</g>
		<g id="Layer_2">
		</g>
		<g>
			<g id="Layer_1_1_">
				<rect x="281.3" y="400.1" fill="none" width="202.8" height="244.3"/>
				<g>
					<path fill="#DDE5CE" d="M581.336 590.172c-1.235 19.2 0.4 16.6 10.4 33.788c6.347 11.1 7.6 24.1 9 36.6 c0.396 4.438-1.534 9.115-2.154 13.684c-0.39 2.68-0.375 5.387-0.37 8.194c0.019 2.6 0.4 5.1 0.1 7.7 c-0.188 1.29-1.412 3.009-2.538 3.332c-1.125 0.322-3.085-0.312-4.126-1.188c-7.774-6.355-11.077-15.106-12.908-24.759 c-0.367-1.932-2.364-3.474-3.649-5.168c-1.101-1.479-2.514-2.777-3.506-4.354c-3.794-5.979-7.168-12.229-11.274-18.027 c-5.207-7.277-7.513-14.458-4.287-23.354c1.386-4.014 1.324-8.93 0.526-13.296c-1.446-8.021-3.812-15.806-5.862-23.768 C560.751 576.2 571.2 593.7 581.3 590.172z"/>
					<g>
						<g>
							<path fill="#DDE5CE" d="M525.6 579.5c6.2 10.9 20 46.4 34.2 55.2c17.8 4.7 32.4-22.8 29.7-31.8 c-20.3-65.4-56.9-170.2-81.8-234c-4.9-12.5-22-25.5-35.604-28.4c-32.6-7-66.396-10.5-99.7-11c-66.3-0.9-99-21.6-124.8-84.2 c-10.9-26.5-22.4-52.8-32.5-79.6c-7-18.5-19.6-29.1-36.5-17.9c-8.8 5.8-16.9 26.1-13.3 35c24.6 60.8 45.4 124.9 80.9 179 c37 56.5 48.9 102.6 37.3 164.5c-9.9 52.5-26.2 114.3-37.1 169.2c17.6 1.8 32 3.3 55.5 5.8c0 41.6 0.9 83.8-0.3 125.9 c-0.8 25.5 9.2 36.1 34.6 36.5c25.3 0.4 35.4-9.5 35.5-35.4c0.1-42.896 3.3-85.896 5.2-128.8c4.1-0.8 16.8-0.1 21.1-0.4 c2 8.3 1.3 13.7 1.8 21.9c2.2 36.1 3.4 72.3 3.5 108.5c0.104 23.3 9.2 34.7 33.1 34.3c22.8-0.396 38.6-5.8 37.8-33.6 c-1.104-42.2-0.3-84.4-0.3-128.3c21.1-2.5 36.6-4.4 54.396-6.5c-12-61.4-27.5-123.804-39.1-183.5"/>
							<path fill="#DDE5CE" d="M161.1 111.1c0 4.4 0.1 6.4-3.2 6.6c-3.337-12.017-7.333-24.686-11.804-36.393 c-2.177-5.702-6.893-33.896-17.837-24.252c-5.662 4.989-0.855 11.7 1.1 17.145c2.512 6.9 4.8 14.1 7.3 21 c2.474 6.9 5.2 13.9 7.3 21c1.631 5.6 6 9.946-1 12.5c-0.2-0.5 1.1-0.4 0 0c-2.8-6.994-6.543-13.725-9.908-20.453 c-2.223-4.446-6.257-17.485-11.792-17.947c-13.577-1.933 4.7 32 6.3 35.188c5.889 11.6 10.2 23.7 17.2 34.7 c3.059 4.8 7.2 8.9 10.8 13.212c2.542 3.4 5.9 6.1 8.5 9.4c2.176 2.6 3.5 6.8 5 9.9 c7.044-5.765 13.085-12.146 21.466-15.974c4.598-2.101 9.52-4.184 14.489-5.177c1.612-0.302 11.742-0.048 11.742-0.957 c2.713-10.176 7.649-20.519 12.017-30.144c2.334-5.143 5.741-9.749 7.841-15c1.741-4.348-0.274-8.024 0.312-12.637 c0.658-5.174-0.055-20.587-9.912-14.562c-9.478 5.683-2.253 17.668-8.363 25.35c-1.7 2.138-6.592 7.866-9.962 6.8 c-3.395-1.061-7.248-6.131-8.638-9.3c-4.222-9.626-2.779-19.732 4.463-26.962c6.296-3.156 15.8 10.7 21.4 1.1 c2.193-3.796 1.32-6.645-2.593-8.539c-4.934-2.389-10.008-5.241-15.084-7.272c-9.443-3.671-17.572 0.12-23.1 8.1 c-2.66 3.802-2.823 9.009-3.8 13.4c-0.204 0.954-2.699 12.72-5.288 6.325c-2.203-5.444-4.328-16.196-4.961-21.975 c-1.492-5.962-2.562-14.645-4.351-26.451c-0.872-5.756-1.765-19.185-5.911-23.407c-2.204-2.244-6.875-3.05-9.382-0.881 c-4.508 3.901-2.704 8.512-1.907 13.7"/>
						</g>
						<g>
							<path fill="#DDE5CE" d="M472.2 214.6c0-51.6-39.8-93.5-88.9-93.5c-49.1 0-88.9 41.9-88.9 93.5s39.8 101.5 88.9 101.5 C432.3 316.1 472.2 266.3 472.2 214.6z"/>
							<path fill="#DDE5CE" d="M468.4 216.6c-3.5 3.9-7.5 7.6-11.7 11c0.396 0.4 0.9 0.7 1.3 1.1c1.9 1.8 3.8 4.2 6.3 5.2 c1.5 0.6 2.7 1.8 2.9 3.3c18 19.5 24.8 47.2 21.9 73.1C536.5 309 545.2 230.7 468.4 216.6z"/>
							<path fill="#DDE5CE" d="M297.1 216.6c3.5 3.9 7.5 7.6 11.7 11c-0.4 0.4-0.9 0.7-1.3 1.1c-1.9 1.8-3.8 4.2-6.3 5.2 c-1.5 0.6-2.7 1.8-2.9 3.3c-18 19.5-24.7 47.2-21.9 73.1C229.1 309 220.4 230.7 297.1 216.6z"/>
						</g>
					</g>
				</g>
				<g enable-background="new    ">
					<path fill="#0990D3" d="M330.5 440.9c-2.6-0.804-6-1.2-10-1.2s-7.3 0.396-10 1.2c-0.6 0-1.1-0.2-1.5-0.604 c-0.4-0.396-0.6-0.896-0.6-1.396c0-1.104 0.5-1.804 1.6-2c1.8-0.5 4.1-0.804 7-1c3.4-16.4 11.3-33.804 23.7-52.304 c0.4-0.6 0.9-0.8 1.4-0.8c0.9 0 1.5 0.2 1.8 0.7c10.6 13.6 18.4 31.1 23.3 52.6c2.6 0.2 5.2 0.5 7.8 0.9 c0.5 0.1 0.9 0.3 1.2 0.7c0.3 0.4 0.5 0.8 0.5 1.3s-0.2 1-0.7 1.4c-0.4 0.396-0.8 0.6-1.1 0.6c-0.4 0-1.1-0.1-2.3-0.3 c-5-0.9-11.1-1.104-18.5-0.5c-2.2 0.2-3.8 0.3-4.9 0.5c-1.1 0.2-1.7 0.3-1.7 0.3c-0.1 0-0.2 0-0.5 0s-0.7-0.2-1.1-0.7 c-0.4-0.396-0.6-0.896-0.6-1.396s0.2-0.9 0.5-1.304c0.3-0.396 0.9-0.6 1.6-0.8c0.7-0.2 1.7-0.3 2.7-0.396 c1-0.104 2.1-0.2 3.2-0.4c-1.1-4.3-2.3-8.4-3.6-12.3c-4.5 0.6-8.7 1-12.4 1c-3.7 0-8.1-0.3-12.9-1c-1.4 4-2.5 8-3.3 12 c3.2 0.1 6.5 0.5 9.7 1.2c0.5 0.1 0.8 0.3 1.1 0.696c0.3 0.4 0.4 0.8 0.4 1.4c0 0.5-0.2 1-0.7 1.4 C331.4 440.7 331 440.9 330.5 440.9z M326 419.8c4.5 0.5 8.1 0.8 10.5 0.8c3.8 0 7.8-0.3 12.1-0.8 c-2.8-8.6-6.6-16.396-11.3-23.3C332.7 404.5 328.9 412.3 326 419.8z M357.6 435.7l3.2-0.104h1.2c0.4 0 0.8 0 1.2 0.1 c-4.5-19.3-11.4-35.2-20.5-47.7l-3 4.6c5.3 7.2 9.5 15.7 12.7 25.5C355.4 427.5 357.1 433.4 357.6 435.7z"/>
					<path fill="#0990D3" d="M383.5 427.2c6 7.6 13.4 11.5 22.2 11.5c5.5 0 9.3-1.3 11.5-4c0.8-1 1.3-2.2 1.3-3.5s-0.3-2.4-0.9-3.4 c-0.6-0.896-1.396-1.7-2.3-2.396c-0.899-0.7-2-1.304-3.2-1.9c-1.199-0.6-2.396-1-3.6-1.399c-1.9-0.697-3.9-1.197-5.9-1.601 s-3.896-0.8-5.699-1.3c-1.801-0.5-3.5-1-5.101-1.7c-1.6-0.7-3.1-1.399-4.5-2.3c-1.399-0.9-2.6-2-3.6-3.2 c-2.1-2.6-3.2-5.8-3.2-9.8c0-5.9 2.2-10.5 6.5-13.9c4-3.1 8.8-4.699 14.5-4.699c3.2 0 6.7 0.7 10.6 2 c3.7 1.3 6.3 2.7 7.7 4.399c0.601-1.6 1.4-3.5 2.5-5.8c0.4-0.7 1-1.104 1.7-1.104s1.2 0.2 1.6 0.6 c0.4 0.4 0.6 0.8 0.6 1.2c0 0.396-0.4 1.396-1.104 2.896c-0.696 1.5-1.5 3.7-2.396 6.5c-0.9 2.8-1.5 5.604-1.803 8.4 c-0.101 0.5-0.301 0.896-0.601 1.2c-0.399 0.3-0.8 0.5-1.399 0.5c-0.601 0-1-0.2-1.397-0.7c-0.397-0.4-0.603-0.9-0.603-1.3 v-0.2c0.303-2.7 0.899-5.4 1.603-8c-0.5-1.4-2.7-2.9-6.7-4.4s-7.5-2.3-10.697-2.3c-5.399 0-9 1.7-11 5 c-0.699 1.1-1 2.5-1.103 4.2c0.3 3.7 2.6 6.5 7.1 8.3c2.197 0.9 4.3 1.6 6.4 2.1s4.103 0.9 5.9 1.3 c1.803 0.4 3.9 1 6.2 1.8c2.4 0.8 4.4 1.8 6.2 3c3.9 2.7 5.8 6.7 5.8 12s-2.3 9.6-6.896 13c-4.2 3.1-8.803 4.6-14 4.6 c-9 0-16.604-3.199-22.6-9.699v0.899c0 1.6 0.1 3.2 0.2 4.8v0.2c0 0.5-0.2 1-0.5 1.3c-0.3 0.4-0.8 0.604-1.4 0.6 c-0.6 0-1.1-0.104-1.4-0.5c-0.4-0.4-0.6-0.9-0.7-1.604c-0.1-1.396-0.2-3.199-0.2-5.396c0-4.104 0.5-8.5 1.4-13.2 c0.3-1.103 0.9-1.603 2-1.603c0.6 0 1.1 0.2 1.5 0.699c0.4 0.4 0.6 0.8 0.6 1.104v0.5c0 0.1 0 0.3-0.103 0.6 c-0.1 0.3-0.2 0.7-0.3 1.2c-0.1 0.5-0.2 1-0.3 1.397C383.9 424.6 383.7 425.6 383.5 427.2z M385 397.9c-0.4 1.5-0.6 3-0.6 4.5 s0.2 2.9 0.6 4.196c0.4 1.3 1.3 2.5 2.6 3.604c3 2.6 8.1 4.7 15.4 6.2c4.7 1 8.3 2.2 10.8 3.4 c2.4 1.2 4.3 2.5 5.7 3.9c1.4 1.4 2.2 2.9 2.6 4.8c0.4-1 0.5-2.2 0.5-3.601c0-1.399-0.3-2.603-0.8-3.803 c-0.5-1.197-1.2-2.197-2.1-3.1c-0.9-0.9-1.8-1.7-3-2.3c-1.101-0.7-2.3-1.2-3.5-1.7c-1.601-0.602-3.601-1.2-5.9-1.8 c-2.3-0.604-4.3-1-5.899-1.5c-1.601-0.4-3.197-0.9-4.697-1.4s-3-1.1-4.398-1.8s-2.602-1.5-3.699-2.4 C386.6 403.3 385.3 400.8 385 397.9z"/>
					<path fill="#0990D3" d="M480.7 420.7l-3.2 18.2c-0.1 0.5-0.3 0.896-0.7 1.196c-0.396 0.304-0.8 0.4-1.3 0.4h-0.2 c-4.2-0.4-10.8-0.6-19.896-0.6c-9.104 0-15.604 0.196-19.604 0.6h-0.2c-1.196 0-1.896-0.7-2-2c0-0.5 0.2-1 0.5-1.3 c0.304-0.4 0.804-0.604 1.5-0.7c0.604-0.1 1.4-0.1 2.4-0.2c1-0.1 2-0.1 3.2-0.2l0.896-48.5 C439.9 387.4 437.7 387.2 435.4 386.9c-0.5-0.104-0.9-0.304-1.2-0.7c-0.3-0.4-0.5-0.9-0.4-1.4c0-0.6 0.2-1 0.604-1.396 c0.396-0.304 0.8-0.5 1.3-0.5h0.2c4.896 0.7 9.6 1.1 14.3 1.1s8.3-0.1 10.8-0.4h0.2c0.6 0 1.1 0.2 1.5 0.6 c0.396 0.4 0.6 0.9 0.6 1.396s-0.2 1-0.5 1.4c-0.396 0.4-0.896 0.6-1.6 0.6c-1.5 0.2-3.3 0.304-5.4 0.4l-1.3 47.8h1.1 c7.804 0 13.9 0.2 18.4 0.5l2.8-16c0.104-0.5 0.3-0.896 0.7-1.2c0.4-0.3 0.8-0.5 1.3-0.5s1 0.2 1.4 0.6 C480.5 419.7 480.7 420.2 480.7 420.7z M451.6 388.1h-2.8c-0.896 0-1.8 0-2.8-0.1l-0.8 48.1c0.8-0.1 1.7-0.1 2.5-0.1 c0.896 0 1.7 0 2.6-0.1L451.6 388.1z"/>
				</g>
				<g enable-background="new    ">
					<path fill="#CB394D" d="M360.8 532.6l3.5-0.396c0.7 0 1 0.3 1 1c0 1.2-0.8 2.1-2.5 2.7c-1.7 0.6-3.5 0.896-5.6 0.9 c-3.9 0-7.2-1.6-9.9-4.7c-2.7-3.1-6.3-8.896-11.1-17.396c-1.1-1.8-1.7-3.2-1.7-4.2c0-1.3 1.8-2.8 5.5-4.6 c5.9-3.104 8.9-6.9 8.9-11.5c0-1.304-0.5-2.4-1.4-3.304c-0.9-0.896-2.1-1.396-3.6-1.396c-2.1 0-4.6 2.5-7.5 7.4 c-2.9 4.9-4.8 9.604-5.8 13.9s-1.5 9-1.5 13.9c0 2.396-0.7 3.696-2.1 3.696c-2 0-3.9-0.3-5.8-0.896c-1.8-0.604-2.7-1.3-2.7-2.2 s0.3-5.1 1-12.4c0.7-7.396 1.1-12.696 1.2-15.896c0.3-17.8 1.4-31.4 3.1-40.8c0.3-0.804 1.5-2.104 3.6-4.104 c2.1-1.896 3.9-2.896 5.2-2.896c1.3 0 1.9 1.6 1.9 4.896s-0.8 10.3-2.2 21c-1.4 10.7-2.3 20.5-2.6 29.4 c1.6-5.604 4.1-10.9 7.5-15.8c3.4-5 6.9-7.5 10.4-7.5c5.9 0 8.9 2.9 8.9 8.6c0 3.8-1.1 7.3-3.4 10.4 c-2.3 3.1-5.3 5.6-9.2 7.5c-0.8 0.3-1.2 0.696-1.2 1.196c0 0.4 0.1 0.9 0.4 1.304c5.5 9.7 10.2 16.5 14 20.4 C358.4 532.1 359.6 532.6 360.8 532.6z"/>
					<path fill="#CB394D" d="M372.2 528.7c-3.4 0-6-0.7-7.7-2.104c-0.6-0.6-0.9-2.8-0.9-6.5c0-3.8 0.3-10 0.9-18.8 s1.1-13.5 1.5-14.2c0.4-0.696 1.8-2 4.1-3.896c2.3-1.9 4-2.9 5.3-2.9c1.3 0 1.9 1.7 1.9 5c0 0.9-0.2 2.604-0.7 5.1 s-1 4.396-1.6 5.5c-1.1 2.896-1.7 10.396-1.7 22.6c0 2.4 0.3 3.5 0.8 3.5c1.5-0.1 3.5-1.899 6.1-5.6 c2.6-3.604 5.2-8.304 7.8-13.9c2.6-5.7 4.1-8.5 4.7-8.5c0.6 0 0.9 0.3 0.9 1c0 2.4-1.303 6.3-3.803 11.6 C382.7 521.3 376.9 528.7 372.2 528.7z M368.4 464c0-1.6 0.8-2.9 2.5-4.1c1.7-1.104 3.1-1.7 4.4-1.7c2.4 0 3.5 1.4 3.5 4.1 s-0.7 5-2.1 7c-1.4 2-3.4 2.9-5.9 2.9C369.2 472.3 368.4 469.5 368.4 464z"/>
					<path fill="#CB394D" d="M423.7 528.7c-3 0-5.3-0.7-6.9-2c-0.7-0.7-1-2.5-1-5.5s0.101-6.8 0.4-11.604 c-2.4 6.304-4.8 11-7.2 14.304c-2.4 3.196-5.5 4.8-9.2 4.8s-6.8-1.604-9.399-4.8c-2.601-3.2-3.897-8.4-3.897-15.4 c0-7.1 2-13.3 6-18.7c4-5.396 9.2-8.1 15.603-8.1c3.101 0 6.4 1.2 9.8 3.7c1.398-17 2.699-26.604 3.8-28.804 c0.5-1 1.8-2.396 3.7-4.196c1.896-1.804 3.6-2.7 4.896-2.7s2 2.1 2 6.1c0 4.8-0.396 8.9-1.3 12.4c-2.4 9-3.8 14.7-4.4 17.1 c-1.196 9.4-1.8 20.5-1.8 33.2c0 2.4 0.3 3.5 0.8 3.5c1.604-0.1 3.7-1.9 6.304-5.5c2.6-3.6 5.196-8.2 7.8-13.9 c2.6-5.696 4.1-8.6 4.7-8.6c0.6 0 0.8 0.3 0.8 1c0 2.4-1.3 6.3-3.8 11.6C434.4 521.3 428.5 528.7 423.7 528.7z M407.2 486.3 c-2.4 0-4.7 1.9-7.101 5.604c-2.399 3.8-3.5 8.1-3.5 13c0 4.9 0.6 9 1.9 12.1s2.897 4.7 4.8 4.7 c3.898 0 8.398-7.9 13.5-23.604c0.398-4.8 0.7-7.6 0.7-8.5C414.9 487.4 411.5 486.3 407.2 486.3z"/>
					<path fill="#CB394D" d="M457.4 488l0.3-2c0-1.6-0.9-2.4-2.7-2.4s-3.5 1.2-5.2 3.5c-1.7 2.304-2.5 4.2-2.5 5.7 s0.104 2.7 0.3 3.5c0.2 0.9 0.4 1.6 0.6 2.2s0.6 1.2 1.1 2s0.9 1.4 1.2 1.7l1.4 1.8c0.6 0.9 1 1.4 1.3 1.7 c4.5-3.8 9.896-7.9 16.2-12.604c0.3-0.3 0.696-0.396 1.196-0.396c0.9 0 1.3 0.5 1.3 1.396c0 1-0.4 1.7-1.2 2.2 c-5.604 3.604-10.9 7.5-15.8 11.604c1.896 2.8 2.9 5.8 2.9 9.196c0 3.304-1.3 6.2-3.8 8.5c-2.5 2.4-5.8 3.5-9.7 3.5 c-3.896 0-5.896-1.896-5.896-5.6c0-2.7 2.896-6.8 8.6-12.399c-0.4-0.5-1.2-1.397-2.4-2.601c-1.1-1.2-2-2.1-2.6-2.8 s-1.2-1.603-2-2.7c-1.4-2.2-2.1-4.5-2.1-7.1c0-5.104 1.696-9.303 5-12.5c3.3-3.2 6.8-4.803 10.6-4.803 c2.4 0 4.2 0.6 5.5 1.899s2 2.6 2 3.899c0 3-0.7 4.397-2.1 4.397C457.9 489 457.4 488.7 457.4 488z M449 513.7 c-3.5 3.5-5.2 6.3-5.2 8.396c0 2.1 1.1 3.2 3.3 3.2c1.304 0 2.4-0.5 3.304-1.6C452.2 521.2 451.8 517.8 449 513.7z"/>
				</g>
			</g>
			<ellipse fill="#DDE5CE" cx="337.3" cy="853" rx="23.9" ry="36.5"/>
			<ellipse fill="#DDE5CE" cx="438.6" cy="853" rx="23.9" ry="36.5"/>
		</g>
	</g>
</g>
</svg>
