<svg version="1.1" id="Layer_1" xmlns="http://www.w3.org/2000/svg" xmlns:xlink="http://www.w3.org/1999/xlink" x="0px" y="0px"
	  viewBox="0 0 768 975" style="enable-background:new 0 0 768 975;" xml:space="preserve">
<style type="text/css">
<![CDATA[
	.st0{fill:#EA5F72;}
	.st1{fill:#B6DDD3;}
	.st2{enable-background:new    ;}
	.st3{fill:#BBD367;}
	.st4{fill:#F6C063;}
	.st5{fill:#CB394D;}
	.st6{fill:#D69D3C;}
	.st7{fill:#0990D3;}
	.st8{fill:#DDE5CE;}
	.st9{fill:#409D8B;}
]]>
</style>
<g id="spotlight">
	<g id="Layer_7">
		<path class="st9" d="M385.1,727.6c95.7,0,173.3,49.6,173.3,110.7s-77.6,110.8-173.3,110.8c-95.7,0-173.3-49.6-173.3-110.8
			S289.4,727.6,385.1,727.6z"/>
	</g>
</g>
<g id="rainbow">
	<path id="blue" class="st7" d="M530.8,381.4C614.9,388,694,405,767.6,429.2c0,0.4-0.1,0.8-0.1,1.2c0.6-7.8,1.3-15.6,1.6-23.4
		c-72.7-27.5-150.9-48.7-234.4-60.3c-159.8-22.4-343.5-9.9-537,38.1c-0.3,10.3-1,20.7-1.7,31c-1.1,15.9-1.7,31.8-2,47.7
		c0,1.2,0,2.4,0,3.6C187.3,392.3,372.9,369.2,530.8,381.4z"/>
	<g id="green">
		<path class="st3" d="M526.9,414.3c85.1,1.4,165.5,14.6,240.1,35.9c0,0,0,0.1,0,0.1c-0.2-4.5-0.2-9,0.1-13.6
			c0.1-2.1,0.3-4.2,0.4-6.3c0-0.4,0.1-0.8,0.1-1.2C694,405,614.9,388,530.8,381.4c-157.9-12.2-343.6,11-536.9,85.6l0,0
			c0,0.1,0,0.1,0,0.2c0,0.7,0,1.5,0,2.2c-0.1,21.9,1.7,43.7,2.3,65.5C184.5,443.3,371,411.7,526.9,414.3z"/>
	</g>
	<g id="yellow">
		<path class="st4" d="M768.1,473c-0.2-7.6-0.8-15.1-1.1-22.7c0,0,0-0.1,0-0.1c-74.6-21.3-155-34.5-240.1-35.9
			c-155.8-2.6-342.4,29-530.7,120.6l0,0c0.1,5.5,0.2,10.9,0.1,16.4c0,1.8-0.1,3.6-0.1,5.5c-0.4,12.9-1.2,25.8-1.6,38.8
			C179.7,492.7,365.2,452.7,518,447C607,443.7,690.8,453.9,768.1,473z"/>
	</g>
	<g id="dark_yellow">
		<path class="st6" d="M768.5,493.2c0.1,1.9,0.1,3.8,0.2,5.8c-0.4-7.5-0.4-15-0.5-22.5c0-1,0-2.1-0.1-3.2c0-0.1,0-0.2,0-0.3l0,0
			C690.8,453.9,607,443.7,518,447c-152.8,5.7-338.3,45.6-523.5,148.5h0c0,0.4,0,0.8,0,1.2c0,0.2,0,0.4,0,0.5c-0.1,2.7-0.1,5.3-0.2,8
			c-0.2,14.8,0.1,29.5,0.4,44.3c183.2-105.5,361.2-158.5,510.2-172C598.6,469.1,687.2,476.1,768.5,493.2z"/>
	</g>
	<g id="pink">
		<path class="st0" d="M489.9,510.5c99.3-14,194.1-10.3,280.7,5.1c0.2,1.1,0.4,2.2,0.5,3.3c-0.4-2.6-0.8-5.2-1.2-7.8
			c-0.6-4.1-0.9-8.1-1.2-12.2c-0.1-1.9-0.2-3.8-0.2-5.8c-81.3-17.1-169.9-24.1-263.6-15.6c-149,13.5-327.1,66.5-510.2,172
			c0,0.8,0,1.6,0.1,2.5c0,0.9,0.1,1.8,0.1,2.7c0.3,13,0.8,26,1.2,39c0-0.5,0-1.1,0-1.6C171.7,586.6,345.5,531,489.9,510.5z"/>
	</g>
	<g id="red">
		<path class="st5" d="M771.1,518.9c-0.2-1.1-0.4-2.2-0.5-3.3c-86.6-15.4-181.4-19.2-280.7-5.1C345.5,531,171.8,586.6-4,692.1
			c0,0.5,0,1.1,0,1.6c0.4,12.7,0.7,25.4,0.9,38.1c165.9-102.6,333-159.8,472.6-185.6c108.6-20.1,211.1-19.7,304.5-5.8
			C773.5,533.2,772.3,526.1,771.1,518.9z"/>
	</g>
</g>
<g id="girl">
	<path class="st8" d="M601.6,641.5c-1.3-12.4-2.6-25.3-8.9-36.2c-1.8-3.2-3.4-5.7-4.7-7.7c2.4-5.2,3.4-10.1,2.5-13.1
		c-20.1-64.7-56.3-168.3-80.9-231.4c-4.8-12.4-21.7-25.2-35.2-28.1c-32.2-6.9-65.6-10.4-98.6-10.9c-44.2-0.6-73.3-10.1-95.4-35.2
		c1-19.9,7.7-39.7,21-54.8c9.7,41.6,44.2,76.8,85.1,76.8c40.6,0,74.8-34.5,84.9-75.8c16.3,19.1,22.5,45.4,19.7,70.1
		c46.1-1.3,55.2-76.1-16.7-91.9c0-0.9,0-1.8,0-2.7c0-51-39.3-92.5-87.9-92.5c-48.5,0-87.9,41.4-87.9,92.5c0,0.8,0,1.7,0,2.5
		c-23.1,4.8-38,15.7-46.1,28.3c-0.1-0.2-0.1-0.3-0.2-0.5c-10.1-24.6-20.8-49.1-30.3-73.9c2.7-10.1,7.6-20.3,11.9-29.8
		c2.3-5.1,5.7-9.6,7.7-14.8c1.7-4.3-0.3-7.9,0.3-12.5c0.7-5.1,0-20.4-9.8-14.4c-9.4,5.6-2.2,17.5-8.3,25.1c-1.7,2.1-6.5,7.8-9.8,6.7
		c-3.4-1.1-7.2-6.1-8.5-9.2c-4.2-9.5-2.7-19.5,4.4-26.7c6.2-3.1,15.6,10.6,21.1,1.1c2.2-3.8,1.3-6.6-2.6-8.4
		c-4.9-2.4-9.9-5.2-14.9-7.2c-9.3-3.6-17.4,0.1-22.8,8c-2.6,3.8-2.8,8.9-3.8,13.2c-0.2,0.9-2.7,12.6-5.2,6.3
		c-2.2-5.4-4.3-16-4.9-21.7c-1.5-5.9-2.5-14.5-4.3-26.2c-0.9-5.7-1.7-19-5.8-23.2c-2.2-2.2-6.8-3-9.3-0.9c-4.5,3.9-2.7,8.4-1.9,13.5
		L167,98.1c0,4.4,0.2,6.3-3.2,6.5c-3.3-11.9-7.2-24.4-11.7-36c-2.2-5.6-6.8-33.5-17.6-24c-5.6,4.9-0.8,11.5,1.1,17
		c2.5,6.8,4.8,13.9,7.2,20.8c2.4,6.9,5.2,13.8,7.2,20.8c1.6,5.5,6,9.8-1,12.4c-2.8-6.9-6.5-13.6-9.8-20.2
		c-2.2-4.4-6.2-17.3-11.7-17.8c-13.4-1.9,4.6,31.6,6.2,34.8c5.8,11.5,10.1,23.5,17.1,34.3c3,4.7,7.1,8.8,10.7,13.1
		c2.5,3.4,5.8,6,8.4,9.3c2.1,2.6,3.5,6.7,5,9.7c22.7,57.2,42.9,116.7,76.1,167.3c36.6,55.9,48.4,101.4,36.9,162.7
		c-9.8,51.9-25.9,113-36.7,167.3c17.4,1.8,31.6,3.3,54.9,5.7c0,41.1,0.9,82.9-0.3,124.5c-0.5,15.6,3.1,25.6,11.9,31
		c1.7,17.3,11.5,30.6,23.4,30.6c12,0,21.9-13.6,23.4-31.3c7.3-5.4,10.5-14.8,10.5-29.2c0.1-42.4,3.3-84.9,5.1-127.4
		c4.1-0.8,16.6-0.1,20.9-0.4c2,8.2,1.3,13.5,1.8,21.7c2.2,35.7,3.4,71.5,3.5,107.3c0.1,14.1,3.5,23.8,11.6,29.1
		c1.8,17.1,11.6,30.2,23.3,30.2c11.9,0,21.7-13.3,23.4-30.7c7.8-4.6,12.2-13,11.8-28c-1.1-41.7-0.3-83.5-0.3-126.9
		c20.9-2.5,36.2-4.4,53.8-6.4c-11.9-60.7-27.2-122.4-38.7-181.4l36,66.8c5.5,9.7,17.1,39.1,29.6,51.2c1,2.9,2.6,5.8,4.6,8.6
		c4.1,5.7,7.4,11.9,11.1,17.8c1,1.6,2.4,2.8,3.5,4.3c1.3,1.7,3.2,3.2,3.6,5.1c1.8,9.5,5.1,18.2,12.8,24.5c1,0.9,3,1.5,4.1,1.2
		c1.1-0.3,2.3-2,2.5-3.3c0.4-2.5-0.1-5.1-0.1-7.6c0-2.8,0-5.5,0.4-8.1C600.1,650.5,602,645.8,601.6,641.5z"/>
</g>
<g id="kids">
	<g class="st2">
		<path class="st5" d="M366.8,514.1l3.5-0.4c0.7,0,1,0.3,1,1c0,1.2-0.8,2.1-2.5,2.7c-1.7,0.6-3.5,0.9-5.5,0.9
			c-3.9,0-7.1-1.6-9.8-4.6c-2.7-3.1-6.2-8.8-11-17.2c-1.1-1.8-1.7-3.2-1.7-4.2c0-1.3,1.8-2.8,5.4-4.5c5.8-3.1,8.8-6.8,8.8-11.4
			c0-1.3-0.5-2.4-1.4-3.3c-0.9-0.9-2.1-1.4-3.6-1.4c-2.1,0-4.5,2.5-7.4,7.3c-2.9,4.8-4.7,9.5-5.7,13.7c-1,4.3-1.5,8.9-1.5,13.8
			c0,2.4-0.7,3.6-2.1,3.6c-2,0-3.9-0.3-5.7-0.9c-1.8-0.6-2.7-1.3-2.7-2.2c0-0.9,0.3-5,1-12.3c0.7-7.3,1.1-12.6,1.2-15.7
			c0.3-17.6,1.4-31.1,3.1-40.3c0.3-0.8,1.5-2.1,3.6-4.1c2.1-1.9,3.9-2.9,5.1-2.9c1.3,0,1.9,1.6,1.9,4.8c0,3.3-0.8,10.2-2.2,20.8
			c-1.4,10.6-2.3,20.3-2.6,29.1c1.6-5.5,4.1-10.8,7.4-15.6c3.4-4.9,6.8-7.4,10.3-7.4c5.8,0,8.8,2.9,8.8,8.5c0,3.8-1.1,7.2-3.4,10.3
			c-2.3,3.1-5.2,5.5-9.1,7.4c-0.8,0.3-1.2,0.7-1.2,1.2c0,0.4,0.1,0.9,0.4,1.3c5.4,9.6,10.1,16.3,13.8,20.2
			C364.5,513.6,365.6,514.1,366.8,514.1z"/>
		<path class="st5" d="M378.1,510.2c-3.4,0-5.9-0.7-7.6-2.1c-0.6-0.6-0.9-2.8-0.9-6.4c0-3.8,0.3-9.9,0.9-18.6
			c0.6-8.7,1.1-13.4,1.5-14c0.4-0.7,1.8-2,4.1-3.9c2.3-1.9,4-2.9,5.2-2.9c1.3,0,1.9,1.7,1.9,4.9c0,0.9-0.2,2.6-0.7,5
			c-0.5,2.5-1,4.4-1.6,5.4c-1.1,2.9-1.7,10.3-1.7,22.4c0,2.4,0.3,3.5,0.8,3.5c1.5-0.1,3.5-1.9,6-5.5c2.6-3.6,5.2-8.2,7.7-13.7
			c2.6-5.6,4.1-8.4,4.7-8.4c0.6,0,0.9,0.3,0.9,1c0,2.4-1.3,6.2-3.8,11.5C388.5,502.9,382.7,510.2,378.1,510.2z M374.3,446.3
			c0-1.6,0.8-2.9,2.5-4.1c1.7-1.1,3.1-1.7,4.3-1.7c2.4,0,3.5,1.4,3.5,4.1c0,2.7-0.7,4.9-2.1,6.9c-1.4,2-3.4,2.9-5.8,2.9
			C375.1,454.5,374.3,451.7,374.3,446.3z"/>
		<path class="st5" d="M429,510.2c-3,0-5.3-0.7-6.8-2c-0.7-0.7-1-2.5-1-5.4c0-3,0.1-6.7,0.4-11.5c-2.4,6.2-4.7,10.9-7.1,14.1
			c-2.4,3.2-5.4,4.7-9.1,4.7c-3.7,0-6.7-1.6-9.3-4.7c-2.6-3.2-3.9-8.3-3.9-15.2c0-7,2-13.1,5.9-18.5c3.9-5.3,9.1-8,15.4-8
			c3.1,0,6.3,1.2,9.7,3.7c1.4-16.8,2.7-26.3,3.8-28.5c0.5-1,1.8-2.4,3.7-4.1c1.9-1.8,3.6-2.7,4.8-2.7c1.3,0,2,2.1,2,6
			c0,4.7-0.4,8.8-1.3,12.3c-2.4,8.9-3.8,14.5-4.4,16.9c-1.2,9.3-1.8,20.3-1.8,32.8c0,2.4,0.3,3.5,0.8,3.5c1.6-0.1,3.7-1.9,6.2-5.4
			c2.6-3.6,5.1-8.1,7.7-13.7c2.6-5.6,4.1-8.5,4.6-8.5s0.8,0.3,0.8,1c0,2.4-1.3,6.2-3.8,11.5C439.6,502.9,433.8,510.2,429,510.2z
			 M412.7,468.3c-2.4,0-4.7,1.9-7,5.5c-2.4,3.8-3.5,8-3.5,12.9c0,4.9,0.6,8.9,1.9,12c1.3,3.1,2.9,4.7,4.7,4.7
			c3.9,0,8.3-7.8,13.3-23.3c0.4-4.7,0.7-7.5,0.7-8.4C420.3,469.4,417,468.3,412.7,468.3z"/>
		<path class="st5" d="M462.3,470l0.3-2c0-1.6-0.9-2.4-2.7-2.4c-1.8,0-3.5,1.2-5.1,3.5c-1.7,2.3-2.5,4.1-2.5,5.6
			c0,1.5,0.1,2.7,0.3,3.5c0.2,0.9,0.4,1.6,0.6,2.2c0.2,0.6,0.6,1.2,1.1,2c0.5,0.8,0.9,1.4,1.2,1.7l1.4,1.8c0.6,0.9,1,1.4,1.3,1.7
			c4.4-3.8,9.8-7.8,16-12.5c0.3-0.3,0.7-0.4,1.2-0.4c0.9,0,1.3,0.5,1.3,1.4c0,1-0.4,1.7-1.2,2.2c-5.5,3.6-10.8,7.4-15.6,11.5
			c1.9,2.8,2.9,5.7,2.9,9.1c0,3.3-1.3,6.1-3.8,8.4c-2.5,2.4-5.7,3.5-9.6,3.5c-3.9,0-5.8-1.9-5.8-5.5c0-2.7,2.9-6.7,8.5-12.3
			c-0.4-0.5-1.2-1.4-2.4-2.6c-1.1-1.2-2-2.1-2.6-2.8c-0.6-0.7-1.2-1.6-2-2.7c-1.4-2.2-2.1-4.5-2.1-7c0-5,1.7-9.2,5-12.4
			c3.3-3.2,6.7-4.7,10.5-4.7c2.4,0,4.1,0.6,5.4,1.9c1.3,1.3,2,2.6,2,3.9c0,3-0.7,4.4-2.1,4.4C462.8,471,462.3,470.7,462.3,470z
			 M454,495.4c-3.5,3.5-5.1,6.2-5.1,8.3c0,2.1,1.1,3.2,3.3,3.2c1.3,0,2.4-0.5,3.3-1.6C457.2,502.8,456.8,499.5,454,495.4z"/>
	</g>
</g>
<g id="star">
	<path class="st1" d="M238.6,72c20.5-22.8,21-22,42.6-5.1c-18.8-18.5-20.2-20.1-4.6-38.6l-0.2-0.2c-16.6,17.5-18.9,17-38.7,1.2
		C257.4,47.8,257.1,49,238.6,72z"/>
</g>
<g>
	<path class="st7" d="M366.3,415.3l-2.5-6.6h-21.3l-2.5,6.7c-1,2.6-1.8,4.4-2.5,5.3c-0.7,0.9-1.8,1.4-3.4,1.4
		c-1.3,0-2.5-0.5-3.5-1.5c-1-1-1.5-2.1-1.5-3.3c0-0.7,0.1-1.5,0.4-2.2c0.2-0.8,0.6-1.8,1.2-3.2l13.4-34c0.4-1,0.8-2.2,1.4-3.5
		c0.5-1.4,1.1-2.5,1.7-3.4c0.6-0.9,1.4-1.6,2.4-2.2c1-0.6,2.2-0.8,3.7-0.8c1.5,0,2.7,0.3,3.7,0.8c1,0.6,1.8,1.3,2.4,2.2
		c0.6,0.9,1.1,1.8,1.5,2.8c0.4,1,0.9,2.4,1.6,4.1l13.7,33.8c1.1,2.6,1.6,4.4,1.6,5.6c0,1.2-0.5,2.3-1.5,3.3c-1,1-2.2,1.5-3.7,1.5
		c-0.8,0-1.5-0.2-2.1-0.4c-0.6-0.3-1.1-0.7-1.5-1.2c-0.4-0.5-0.8-1.3-1.3-2.4C367,417.1,366.6,416.1,366.3,415.3z M345.3,400.8H361
		l-7.9-21.6L345.3,400.8z"/>
	<path class="st7" d="M422.5,405.6c0,3.2-0.8,6-2.5,8.5c-1.6,2.5-4,4.5-7.2,5.9c-3.1,1.4-6.9,2.1-11.2,2.1c-5.2,0-9.4-1-12.8-2.9
		c-2.4-1.4-4.3-3.3-5.8-5.6c-1.5-2.3-2.2-4.6-2.2-6.8c0-1.3,0.4-2.4,1.3-3.3c0.9-0.9,2-1.4,3.4-1.4c1.1,0,2.1,0.4,2.8,1.1
		c0.8,0.7,1.4,1.8,2,3.2c0.7,1.7,1.4,3.1,2.2,4.2c0.8,1.1,1.9,2,3.3,2.8c1.4,0.7,3.2,1.1,5.5,1.1c3.1,0,5.7-0.7,7.7-2.2
		c2-1.5,2.9-3.3,2.9-5.5c0-1.7-0.5-3.1-1.6-4.2c-1.1-1.1-2.4-1.9-4.1-2.5c-1.7-0.6-3.9-1.2-6.7-1.8c-3.8-0.9-6.9-1.9-9.4-3.1
		c-2.5-1.2-4.5-2.8-6-4.8c-1.5-2-2.2-4.6-2.2-7.6c0-2.9,0.8-5.4,2.4-7.7c1.6-2.2,3.8-4,6.8-5.2c3-1.2,6.5-1.8,10.5-1.8
		c3.2,0,6,0.4,8.3,1.2c2.3,0.8,4.3,1.9,5.8,3.2c1.5,1.3,2.7,2.7,3.4,4.2c0.7,1.5,1.1,2.9,1.1,4.3c0,1.3-0.4,2.4-1.3,3.4
		c-0.9,1-2,1.5-3.3,1.5c-1.2,0-2.1-0.3-2.8-0.9c-0.6-0.6-1.3-1.6-2.1-3c-1-2-2.1-3.5-3.4-4.6c-1.3-1.1-3.5-1.7-6.4-1.7
		c-2.7,0-4.9,0.6-6.6,1.8c-1.7,1.2-2.5,2.6-2.5,4.3c0,1,0.3,2,0.9,2.7c0.6,0.8,1.4,1.4,2.4,2c1,0.5,2,1,3,1.3c1,0.3,2.7,0.8,5.1,1.4
		c3,0.7,5.6,1.5,8,2.3c2.4,0.8,4.4,1.9,6.1,3c1.7,1.2,3,2.7,3.9,4.5C422,400.7,422.5,402.9,422.5,405.6z"/>
	<path class="st7" d="M439.2,374.4v38.1h21.5c1.7,0,3,0.4,3.9,1.2c0.9,0.8,1.4,1.9,1.4,3.2c0,1.3-0.5,2.3-1.4,3.1
		c-0.9,0.8-2.2,1.2-4,1.2h-25.6c-2.3,0-4-0.5-5-1.5c-1-1-1.5-2.7-1.5-5v-40.3c0-2.1,0.5-3.8,1.4-4.8c1-1.1,2.2-1.6,3.8-1.6
		c1.6,0,2.9,0.5,3.9,1.6C438.7,370.7,439.2,372.3,439.2,374.4z"/>
</g>
</svg>
