<?xml version="1.0" encoding="utf-8"?>
<!-- Generator: Adobe Illustrator 16.0.0, SVG Export Plug-In . SVG Version: 6.00 Build 0)  -->
<!DOCTYPE svg PUBLIC "-//W3C//DTD SVG 1.1//EN" "http://www.w3.org/Graphics/SVG/1.1/DTD/svg11.dtd">
<svg version="1.1" xmlns="http://www.w3.org/2000/svg" xmlns:xlink="http://www.w3.org/1999/xlink" x="0px" y="0px"
	 width="595.279px" height="841.891px" viewBox="0 0 595.279 841.891" enable-background="new 0 0 595.279 841.891"
	 xml:space="preserve">
<g id="Layer_1">
	<g id="spotlight">
		<g id="Layer_7">
			<ellipse fill="#409D8B" cx="297.64" cy="710.382" rx="135.853" ry="86.812"/>
		</g>
	</g>
	<g id="rainbow">
		<path id="blue" fill="#0990D3" d="M411.86,352.175c65.899,5.17,127.938,18.548,185.583,37.469
			c-0.023,0.318-0.039,0.636-0.062,0.953c0.45-6.123,0.992-12.239,1.248-18.37c-56.954-21.541-118.28-38.143-183.738-47.258
			c-125.28-17.525-269.248-7.759-420.967,29.857c-0.217,8.1-0.752,16.192-1.325,24.276c-0.884,12.448-1.349,24.912-1.604,37.383
			c-0.016,0.946-0.023,1.883-0.031,2.829C142.549,360.771,288.075,342.603,411.86,352.175z"/>
		<g id="green">
			<path fill="#BBD367" d="M408.751,377.994c66.721,1.108,129.714,11.472,188.234,28.144c0,0.023,0,0.054,0.008,0.078
				c-0.14-3.535-0.171-7.069,0.038-10.635c0.101-1.659,0.217-3.317,0.342-4.976c0.022-0.318,0.038-0.635,0.069-0.953
				c-57.645-18.92-119.676-32.299-185.575-37.469c-123.784-9.572-269.311,8.588-420.905,67.14l0,0c0,0.039,0,0.07,0,0.108
				c-0.008,0.589,0,1.178,0,1.76c-0.054,17.129,1.372,34.228,1.798,51.335C140.364,400.751,286.595,375.933,408.751,377.994z"/>
		</g>
		<g id="yellow">
			<path fill="#F6C063" d="M597.876,423.974c-0.139-5.953-0.658-11.852-0.883-17.766c0-0.023,0-0.054,0-0.078
				c-58.513-16.665-121.514-27.028-188.234-28.144c-122.164-2.054-268.396,22.757-416.014,94.532l0,0
				c0.108,4.286,0.154,8.572,0.093,12.858c-0.016,1.435-0.055,2.868-0.093,4.302c-0.318,10.139-0.969,20.254-1.287,30.393
				c145.154-80.65,290.556-111.987,410.317-116.421C471.605,401.054,537.279,409.021,597.876,423.974z"/>
		</g>
		<g id="dark_yellow">
			<path fill="#D69D3C" d="M598.163,439.832c0.047,1.512,0.116,3.022,0.201,4.526c-0.333-5.875-0.341-11.758-0.441-17.656
				c-0.016-0.83-0.023-1.651-0.039-2.48c0-0.086-0.008-0.171-0.008-0.248l0,0c-60.598-14.96-126.271-22.92-196.101-20.331
				C282.014,408.084,136.613,439.421-8.557,520.07c0,0-0.008,0-0.008,0.008c-0.008,0.311-0.016,0.628-0.023,0.938
				c0,0.14-0.007,0.279-0.007,0.418c-0.062,2.093-0.109,4.187-0.132,6.278c-0.116,11.572,0.038,23.138,0.317,34.702
				c143.588-82.681,283.153-124.242,399.962-134.814C464.992,420.935,534.434,426.438,598.163,439.832z"/>
		</g>
		<g id="pink">
			<path fill="#EA5F72" d="M379.762,453.412c77.82-11.007,152.13-8.046,220.021,4.015c0.132,0.853,0.271,1.713,0.411,2.565
				c-0.334-2.022-0.651-4.054-0.938-6.084c-0.441-3.178-0.713-6.356-0.892-9.542c-0.085-1.512-0.154-3.015-0.201-4.526
				c-63.729-13.394-133.171-18.897-206.611-12.239C274.751,438.173,135.178,479.734-8.41,562.415
				c0.016,0.644,0.031,1.286,0.047,1.922c0.015,0.705,0.038,1.403,0.062,2.108c0.271,10.208,0.612,20.408,0.923,30.608
				c-0.016-0.426-0.023-0.845-0.039-1.271C130.38,513.025,266.573,469.487,379.762,453.412z"/>
		</g>
		<g id="red">
			<path fill="#CB394D" d="M600.201,459.992c-0.139-0.853-0.278-1.705-0.41-2.565c-67.892-12.068-142.201-15.029-220.021-4.015
				C266.581,469.495,130.388,513.025-7.418,595.791c0.016,0.426,0.023,0.845,0.039,1.271c0.302,9.952,0.565,19.912,0.697,29.872
				c130.07-80.394,261.07-125.226,370.484-145.456c85.168-15.734,165.516-15.479,238.678-4.573
				C602.093,471.224,601.116,465.612,600.201,459.992z"/>
		</g>
	</g>
	<g id="girl">
		<path fill="#DDE5CE" d="M467.365,556.059c-1.031-9.704-2.038-19.796-6.96-28.376c-1.435-2.488-2.644-4.441-3.667-6.077
			c1.86-4.038,2.651-7.93,1.953-10.247c-15.734-50.691-44.103-131.922-63.403-181.374c-3.798-9.689-17.052-19.765-27.594-22.013
			c-25.269-5.426-51.467-8.139-77.277-8.526c-34.655-0.473-57.467-7.922-74.782-27.609c0.752-15.634,6.038-31.136,16.494-42.972
			c7.635,32.64,34.624,60.194,66.744,60.194c31.811,0,58.676-27.082,66.559-59.427c12.805,14.999,17.61,35.608,15.447,54.932
			c36.128-0.992,43.251-59.691-13.13-72.038c0.023-0.713,0.031-1.426,0.031-2.139c0-39.996-30.85-72.473-68.907-72.473
			s-68.906,32.477-68.906,72.473c0,0.659,0.008,1.31,0.023,1.961c-18.114,3.782-29.788,12.301-36.136,22.222
			c-0.055-0.132-0.108-0.256-0.163-0.388c-7.937-19.308-16.277-38.476-23.757-57.962c0.021-0.078,0.047-0.156,0.068-0.234
			c-7.335,0.129-14.666-0.865-22.008-0.616c-7.625,0.258-16.249,1.557-21.062,8.013c0.736,0.767,1.46,1.544,2.124,2.371
			c1.674,2.007,2.729,5.255,3.883,7.581c17.789,44.84,33.632,91.478,59.676,131.163c28.679,43.793,37.902,79.526,28.911,127.504
			c-7.673,40.693-20.308,88.595-28.756,131.147c13.642,1.396,24.803,2.559,43.018,4.496c0,32.244,0.698,64.954-0.232,97.586
			c-0.388,12.262,2.457,20.075,9.363,24.314c1.364,13.572,9.054,23.975,18.331,23.975c9.402,0,17.169-10.674,18.378-24.509
			c5.705-4.225,8.217-11.604,8.263-22.928c0.078-33.252,2.558-66.582,4.03-99.834c3.179-0.62,13.021-0.077,16.354-0.31
			c1.551,6.434,1.008,10.619,1.396,16.975c1.705,27.981,2.636,56.04,2.713,84.099c0.047,11.076,2.729,18.681,9.062,22.835
			c1.449,13.425,9.084,23.672,18.3,23.672c9.293,0,16.99-10.426,18.339-24.028c6.1-3.612,9.596-10.192,9.255-21.936
			c-0.853-32.71-0.232-65.419-0.232-99.446c16.354-1.938,28.368-3.41,42.165-5.038c-9.301-47.591-21.314-95.958-30.307-142.231
			l28.214,52.396c4.325,7.604,13.433,30.671,23.238,40.166c0.767,2.295,1.999,4.512,3.597,6.736
			c3.186,4.495,5.797,9.34,8.735,13.975c0.767,1.225,1.86,2.232,2.721,3.372c0.999,1.31,2.542,2.511,2.829,4.007
			c1.418,7.48,3.976,14.263,10.006,19.191c0.807,0.683,2.325,1.171,3.201,0.923s1.822-1.581,1.969-2.581
			c0.295-2-0.03-3.969-0.046-5.983c0-2.179-0.016-4.271,0.286-6.349C466.179,563.128,467.674,559.5,467.365,556.059z"/>
	</g>
	<g id="kids">
		<g enable-background="new    ">
			<path fill="#CB394D" d="M283.301,456.233l2.713-0.311c0.542,0,0.774,0.232,0.774,0.775c0,0.93-0.62,1.628-1.938,2.093
				s-2.713,0.697-4.341,0.697c-3.022,0-5.58-1.24-7.673-3.643c-2.093-2.403-4.884-6.898-8.604-13.487
				c-0.853-1.395-1.317-2.479-1.317-3.255c0-1.008,1.396-2.17,4.264-3.565c4.572-2.403,6.898-5.349,6.898-8.914
				c0-1.008-0.388-1.86-1.086-2.558c-0.697-0.697-1.627-1.085-2.79-1.085c-1.628,0-3.565,1.938-5.813,5.735
				s-3.721,7.441-4.495,10.774c-0.775,3.333-1.163,6.976-1.163,10.773c0,1.86-0.542,2.868-1.628,2.868
				c-1.55,0-3.022-0.232-4.495-0.697c-1.396-0.466-2.093-1.008-2.093-1.706c0-0.697,0.232-3.952,0.775-9.61
				c0.542-5.736,0.853-9.845,0.93-12.324c0.232-13.797,1.085-24.339,2.403-31.625c0.232-0.62,1.162-1.628,2.79-3.178
				c1.628-1.473,3.022-2.248,4.03-2.248s1.473,1.24,1.473,3.798c0,2.558-0.62,7.983-1.705,16.277
				c-1.085,8.293-1.783,15.889-2.016,22.788c1.24-4.34,3.179-8.448,5.813-12.246c2.636-3.875,5.349-5.813,8.062-5.813
				c4.573,0,6.898,2.248,6.898,6.666c0,2.945-0.853,5.658-2.636,8.061c-1.782,2.403-4.108,4.341-7.131,5.813
				c-0.62,0.232-0.93,0.543-0.93,0.931c0,0.31,0.077,0.697,0.31,1.007c4.263,7.519,7.906,12.79,10.852,15.812
				C281.441,455.846,282.37,456.233,283.301,456.233z"/>
			<path fill="#CB394D" d="M292.137,453.21c-2.636,0-4.65-0.542-5.969-1.627c-0.465-0.466-0.697-2.171-0.697-5.038
				c0-2.946,0.232-7.752,0.697-14.572c0.466-6.821,0.853-10.464,1.163-11.007c0.31-0.542,1.396-1.55,3.178-3.022
				c1.783-1.473,3.101-2.248,4.108-2.248s1.473,1.318,1.473,3.875c0,0.698-0.155,2.015-0.543,3.953
				c-0.388,1.938-0.775,3.411-1.24,4.264c-0.853,2.248-1.317,8.061-1.317,17.518c0,1.86,0.232,2.713,0.62,2.713
				c1.162-0.078,2.713-1.473,4.728-4.341c2.016-2.79,4.031-6.434,6.046-10.774c2.016-4.418,3.178-6.588,3.644-6.588
				c0.465,0,0.697,0.232,0.697,0.775c0,1.859-1.008,4.883-2.945,8.991C300.276,447.475,295.78,453.21,292.137,453.21z
				 M289.192,403.061c0-1.24,0.62-2.248,1.938-3.178c1.317-0.853,2.403-1.318,3.41-1.318c1.86,0,2.713,1.085,2.713,3.178
				s-0.542,3.876-1.627,5.426c-1.086,1.55-2.636,2.248-4.573,2.248C289.812,409.495,289.192,407.324,289.192,403.061z"/>
			<path fill="#CB394D" d="M332.055,453.21c-2.326,0-4.108-0.542-5.349-1.55c-0.543-0.543-0.775-1.938-0.775-4.263
				c0-2.326,0.078-5.271,0.311-8.991c-1.86,4.883-3.721,8.525-5.581,11.084c-1.86,2.479-4.263,3.72-7.131,3.72
				s-5.271-1.24-7.286-3.72c-2.015-2.48-3.022-6.512-3.022-11.937c0-5.504,1.55-10.31,4.65-14.495s7.131-6.278,12.092-6.278
				c2.402,0,4.96,0.93,7.596,2.868c1.085-13.177,2.093-20.618,2.945-22.323c0.388-0.775,1.396-1.86,2.868-3.255
				s2.79-2.093,3.798-2.093s1.55,1.628,1.55,4.728c0,3.721-0.31,6.898-1.007,9.611c-1.86,6.976-2.945,11.394-3.411,13.254
				c-0.93,7.286-1.395,15.89-1.395,25.734c0,1.859,0.232,2.713,0.62,2.713c1.24-0.078,2.867-1.474,4.883-4.264
				s4.03-6.355,6.046-10.773s3.178-6.666,3.643-6.666c0.466,0,0.62,0.232,0.62,0.774c0,1.86-1.008,4.884-2.945,8.991
				C340.348,447.475,335.775,453.21,332.055,453.21z M319.265,420.346c-1.859,0-3.643,1.473-5.503,4.341
				c-1.86,2.945-2.713,6.278-2.713,10.076s0.465,6.976,1.473,9.379c1.008,2.402,2.248,3.643,3.721,3.643
				c3.022,0,6.511-6.123,10.464-18.292c0.31-3.721,0.543-5.891,0.543-6.589C325.234,421.199,322.598,420.346,319.265,420.346z"/>
			<path fill="#CB394D" d="M358.176,421.664l0.232-1.551c0-1.24-0.698-1.86-2.093-1.86c-1.396,0-2.713,0.93-4.031,2.713
				c-1.317,1.783-1.938,3.256-1.938,4.418c0,1.163,0.077,2.093,0.232,2.713c0.155,0.698,0.311,1.24,0.465,1.705
				c0.155,0.466,0.466,0.931,0.853,1.551c0.388,0.62,0.698,1.085,0.931,1.317l1.085,1.396c0.465,0.697,0.775,1.085,1.008,1.317
				c3.488-2.945,7.674-6.123,12.557-9.767c0.232-0.232,0.543-0.31,0.93-0.31c0.698,0,1.008,0.388,1.008,1.085
				c0,0.775-0.31,1.317-0.93,1.705c-4.341,2.791-8.449,5.813-12.247,8.991c1.473,2.171,2.248,4.496,2.248,7.131
				c0,2.566-1.008,4.806-2.945,6.589c-1.938,1.86-4.496,2.713-7.519,2.713c-3.023,0-4.573-1.473-4.573-4.341
				c0-2.093,2.248-5.271,6.666-9.611c-0.311-0.388-0.931-1.085-1.86-2.015c-0.853-0.931-1.55-1.628-2.016-2.171
				c-0.465-0.542-0.93-1.24-1.55-2.093c-1.085-1.705-1.628-3.488-1.628-5.503c0-3.953,1.318-7.208,3.876-9.689
				s5.271-3.721,8.216-3.721c1.86,0,3.256,0.465,4.263,1.473c1.008,1.007,1.551,2.015,1.551,3.022c0,2.326-0.543,3.41-1.628,3.41
				C358.563,422.438,358.176,422.206,358.176,421.664z M351.664,441.584c-2.713,2.713-4.03,4.883-4.03,6.511s0.853,2.48,2.558,2.48
				c1.008,0,1.86-0.388,2.559-1.24C354.145,447.397,353.835,444.762,351.664,441.584z"/>
		</g>
	</g>
	<g id="asl">
		<path fill="none" stroke="#0990D3" stroke-width="1.9" stroke-miterlimit="10" d="M284.487,380.467l-2.016-5.286h-17.13
			l-2.015,5.402c-0.783,2.108-1.457,3.535-2.016,4.271c-0.558,0.736-1.465,1.108-2.729,1.108c-1.069,0-2.022-0.396-2.845-1.178
			c-0.821-0.783-1.232-1.674-1.232-2.674c0-0.573,0.094-1.17,0.287-1.783c0.194-0.612,0.512-1.465,0.945-2.558l10.782-27.361
			c0.31-0.783,0.674-1.729,1.108-2.829c0.434-1.101,0.892-2.015,1.38-2.744c0.488-0.729,1.131-1.317,1.93-1.767
			c0.791-0.449,1.775-0.674,2.945-0.674c1.186,0,2.178,0.225,2.977,0.674c0.79,0.45,1.434,1.031,1.922,1.736
			c0.488,0.713,0.899,1.473,1.24,2.287c0.334,0.814,0.76,1.899,1.279,3.263l11.007,27.19c0.86,2.07,1.294,3.573,1.294,4.511
			c0,0.977-0.403,1.876-1.225,2.689c-0.813,0.814-1.798,1.225-2.945,1.225c-0.675,0-1.248-0.117-1.721-0.357
			c-0.48-0.24-0.884-0.565-1.209-0.977c-0.326-0.411-0.675-1.046-1.047-1.899C285.075,381.87,284.75,381.118,284.487,380.467z
			 M267.581,368.771h12.588l-6.348-17.394L267.581,368.771z"/>
		<path fill="none" stroke="#0990D3" stroke-width="1.9" stroke-miterlimit="10" d="M329.675,372.592
			c0,2.55-0.659,4.836-1.969,6.867s-3.232,3.62-5.759,4.775c-2.527,1.147-5.527,1.729-8.999,1.729
			c-4.155,0-7.589-0.783-10.294-2.356c-1.914-1.132-3.473-2.635-4.674-4.527c-1.193-1.883-1.798-3.72-1.798-5.503
			c0-1.031,0.356-1.922,1.077-2.659s1.636-1.108,2.744-1.108c0.899,0,1.666,0.287,2.286,0.86s1.155,1.426,1.597,2.558
			c0.535,1.341,1.116,2.465,1.736,3.364c0.62,0.899,1.496,1.643,2.628,2.225c1.132,0.589,2.62,0.875,4.457,0.875
			c2.526,0,4.588-0.589,6.162-1.767c1.581-1.178,2.371-2.651,2.371-4.41c0-1.395-0.426-2.535-1.278-3.403s-1.953-1.535-3.302-2
			c-1.349-0.457-3.155-0.945-5.418-1.465c-3.031-0.705-5.565-1.535-7.604-2.488c-2.038-0.946-3.658-2.24-4.859-3.883
			c-1.193-1.636-1.798-3.674-1.798-6.108c0-2.317,0.635-4.379,1.898-6.178s3.093-3.186,5.487-4.154
			c2.396-0.969,5.209-1.45,8.449-1.45c2.589,0,4.821,0.326,6.712,0.961c1.892,0.643,3.457,1.496,4.697,2.558
			c1.248,1.062,2.155,2.178,2.729,3.349s0.86,2.31,0.86,3.418c0,1.016-0.356,1.93-1.077,2.744c-0.721,0.813-1.612,1.225-2.689,1.225
			c-0.977,0-1.721-0.24-2.225-0.736c-0.504-0.488-1.062-1.287-1.651-2.403c-0.768-1.589-1.689-2.829-2.76-3.721
			c-1.069-0.891-2.798-1.333-5.17-1.333c-2.201,0-3.983,0.488-5.332,1.449c-1.349,0.969-2.023,2.132-2.023,3.496
			c0,0.845,0.232,1.573,0.69,2.186c0.457,0.612,1.093,1.14,1.898,1.581c0.807,0.442,1.62,0.783,2.441,1.039
			c0.822,0.248,2.187,0.612,4.085,1.093c2.372,0.558,4.526,1.17,6.449,1.837c1.922,0.674,3.565,1.488,4.914,2.441
			c1.349,0.961,2.402,2.17,3.162,3.635C329.295,368.67,329.675,370.46,329.675,372.592z"/>
		<path fill="none" stroke="#0990D3" stroke-width="1.9" stroke-miterlimit="10" d="M343.115,347.556v30.671h17.3
			c1.38,0,2.442,0.333,3.179,1.008s1.108,1.511,1.108,2.527c0,1.039-0.364,1.875-1.094,2.519c-0.729,0.644-1.79,0.961-3.193,0.961
			h-20.609c-1.86,0-3.193-0.411-4.008-1.232c-0.813-0.821-1.217-2.155-1.217-3.992v-32.454c0-1.721,0.388-3.015,1.163-3.883
			c0.774-0.86,1.798-1.294,3.062-1.294c1.286,0,2.325,0.426,3.116,1.279C342.72,344.51,343.115,345.812,343.115,347.556z"/>
	</g>
	<g id="star">
		<path fill="#B6DDD3" d="M182.778,109.684c16.029-17.905,16.455-17.223,33.399-3.984c-14.72-14.495-15.859-15.789-3.597-30.292
			l-0.179-0.155c-13.029,13.735-14.812,13.316-30.322,0.907C197.512,90.663,197.303,91.608,182.778,109.684z"/>
	</g>
</g>
<g id="Layer_2">
	<path fill="#DDE5CE" d="M97.923,108.595c5.163-0.932,8.323,3.585,10.608,7.537c2.981,5.154,5.729,10.438,8.761,15.567
		c-3.309-9.398-6.997-18.656-10.562-27.958c-2.28-5.947-7.712-18.591,3.354-19.238c7.377-0.431,8.968,9.59,10.989,14.749
		c3.621,9.246,7.386,18.468,10.788,27.796c-3.085-13.556-4.977-27.488-7.448-41.168c-0.345-1.909-0.69-3.818-1.035-5.728
		c-1.08-5.98,8.354-8.463,12.18-5.617c2.488,1.853,2.998,5.404,3.492,8.25c0.724,4.157,1.403,8.324,2.116,12.483
		c1.592,9.29,3.064,18.605,4.95,27.842c0.134-10.833,0.643-21.696,0.536-32.527c-0.061-6.21,0.84-16.868,10.263-13.542
		c3.994,1.41,4.793,6.26,5.009,9.939c0.343,5.845,0.17,11.74,0.434,17.6c0.538,11.998,0.97,24.002,1.66,35.993
		c1.539-5.055,2.58-10.264,3.998-15.356c1.005-3.612,1.608-8.842,5.429-10.667c3.309-1.58,8.835-0.521,10.392,3.128
		c1.729,4.058-0.536,10.357-1.3,14.461c-3.463,18.6-4.241,44.808-24.829,52.961c-19.363,7.669-43.33-2.73-46.768-24.298
		c-0.741-4.645-0.752-9.462-2.779-13.803c-2.449-5.244-5.841-10.055-8.588-15.147C96.735,126.592,86.043,110.741,97.923,108.595"/>
</g>
</svg>
