<?xml version="1.0" encoding="utf-8"?>
<!-- Generator: Adobe Illustrator 16.0.0, SVG Export Plug-In . SVG Version: 6.00 Build 0)  -->
<!DOCTYPE svg PUBLIC "-//W3C//DTD SVG 1.1//EN" "http://www.w3.org/Graphics/SVG/1.1/DTD/svg11.dtd">
<svg version="1.1" id="Layer_1" xmlns="http://www.w3.org/2000/svg" xmlns:xlink="http://www.w3.org/1999/xlink" x="0px" y="0px"
	 width="768px" height="960px" viewBox="0 0 768 960" enable-background="new 0 0 768 960" xml:space="preserve">
<g id="Layer_6">
	
		<linearGradient id="SVGID_1_" gradientUnits="userSpaceOnUse" x1="706" y1="-255.4995" x2="705.9999" y2="720.5005" gradientTransform="matrix(1 0 0 -1 -321 713.5)">
		<stop  offset="0" style="stop-color:#65BCAB"/>
		<stop  offset="1" style="stop-color:#409D8B"/>
	</linearGradient>
	<rect x="-9" y="-7" fill="url(#SVGID_1_)" width="788" height="976"/>
</g>
<g id="Layer_7">
	<ellipse fill="#409D8B" cx="385" cy="818" rx="205" ry="131"/>
</g>
<g id="Layer_4">
	<g>
		<path fill="#0990D3" d="M1164.4,698.7C1080.9,620.2,988.2,541.9,878.1,479C760.2,411.7,621.9,356.7,465.3,334.9
			c-172.3-24.101-372-8.2-582,48.6c-165.1,44.6-335.7,93.5-514.2,137.1l-20,163.301l73.5,9c152.3-78.4,300.7-151.5,445.8-213.601
			C82,388,287.9,359.8,461.9,373.7C618.3,386.2,758.3,434.5,876.2,497.2C987.3,556.3,1079.8,632.1,1162.1,707.7
			c77.4,71.1,147.7,143.899,201.5,221.7c0.101,0.199,0.301,0.399,0.4,0.6l6.8,0.8c-1.7-2.5-3.399-5-5.2-7.5
			C1311.5,845.7,1242,771.7,1164.4,698.7z"/>
		<path fill="#0066B2" d="M900.3,477.9c105.601,60.3,194.601,135.5,274.8,210.8C1095.2,613.5,1006,538.2,900.3,477.9z"/>
		<path fill="#BBD367" d="M456.5,407.6c156.2,3.2,296.6,45.4,415.5,104c111.4,54.9,205,127.9,287.9,201.4
			c75.199,66.7,143.899,136.5,197,211.7l7.1,0.899c-0.1-0.1-0.1-0.199-0.2-0.3c-53.899-77.5-123.8-150.7-201.2-221.7
			c-82.5-75.5-175.3-151.5-286.199-210.3c-118.5-62.8-258.301-111-415-123.3C288.2,356.6,82,385.3-131.4,476.9
			C-273.7,538-419.2,610.8-568.5,689.5l184.4,22.5c77.3-52.4,154.1-100.6,230.6-144.1"/>
		<path fill="#F6C063" d="M-379.5,706.5l103.2,12.6c30.2-22.899,60.5-44.899,90.9-65.899C34.8,500.8,264.3,446,447.4,439.5
			c159-5.6,301.6,30.7,420.899,84.7c111.8,50.5,205.8,120.6,288.8,191.899C1231.3,779.8,1298,845.7,1350.4,918l6.699,0.8
			c-52.899-75-121.3-144.2-196.5-211.1C1077.8,634.1,984.1,561.2,872.7,506.3C754,447.8,613.6,405.9,457.4,403.3
			C279.2,400.3,61.3,441.6-154,564.7"/>
		<path fill="#D69D3C" d="M1158.1,712.9C1074.9,641.3,980.5,571.1,868.8,520.7C749.7,467,607.4,430.5,448.4,436.4
			C264.8,443.2,34.5,499-186.5,652.3c-29.1,20.2-58,41.2-86.9,63.101l70.7,8.6C24.1,565.5,251,489.6,434.4,473
			c162.1-14.6,309.1,16.5,429.899,66.1c112,46,206.8,113,290.8,182.7c70.9,58.8,136.5,121.7,187.601,190.9l7.2,0.899
			C1297.7,841.8,1231.2,775.8,1158.1,712.9z"/>
		<path fill="#EA5F72" d="M1155.9,716.1C1071.9,646.4,977.1,579.4,865.1,533.4C744.3,483.8,597.3,452.6,435.2,467.3
			c-183.4,16.601-410.3,92.4-637.1,251l61.6,7.5C57.8,593.9,257.2,526.9,419.8,503.8c164.7-23.399,317.2,1.9,441,47.9
			c111.8,41.5,207.7,106.7,291.9,174.1c69.3,55.5,133.6,114.2,183.8,180.5l7.2,0.9C1292.4,837.8,1226.8,774.9,1155.9,716.1z"/>
		<path fill="#CB394D" d="M1152.9,722.6C1068.8,655.2,972.9,590,861,548.5c-123.8-46-276.3-71.2-441-47.9
			C257.4,523.7,58,590.7-140.1,722.6l53.9,6.601C84.1,622.5,256.1,563.3,399.4,536.8C571,505.1,727.4,523.7,857.1,566.4
			c111.301,36.699,207.7,99,292.7,164.8c66.7,51.7,128.2,108,177.9,170.7l9.1,1.1C1286.5,836.8,1222.2,778.1,1152.9,722.6z"/>
	</g>
</g>
<g id="Layer_5">
	<g>
		<path fill="#87CCBE" d="M748.8,143.2c-0.2,5.2-0.2,5.4-5,5.5c4.7,0.2,4.9,0.4,5,5.5c0.1-5.4,0.2-5.3,5-5.5
			C748.899,148.4,748.8,148.4,748.8,143.2z"/>
		<path fill="#87CCBE" d="M753.5,119.4c-0.2,5.2-0.2,5.4-5,5.5c4.7,0.2,4.899,0.4,5,5.5c0.1-5.4,0.2-5.3,5-5.5
			C753.6,124.6,753.5,124.6,753.5,119.4z"/>
		<path fill="#87CCBE" d="M720.5,133.5c-0.2,5.2-0.2,5.4-5,5.5c4.7,0.2,4.899,0.4,5,5.5c0.1-5.4,0.2-5.3,5-5.5
			C720.6,138.7,720.5,138.7,720.5,133.5z"/>
		<path fill="#87CCBE" d="M709.8,80.2c0.1-10.5,0.5-10.4,9.9-10.9c-9.7-0.6-9.9-0.7-9.9-10.9c-0.4,10.2-0.5,10.5-9.9,10.9
			C709.2,69.6,709.5,70,709.8,80.2z"/>
		<path fill="#87CCBE" d="M728,187.6c-0.5,10.2-0.601,10.5-9.9,10.9c7.3,0.3,8.9,0.6,9.601,5.5h0.6c0.5-5.1,2.3-5.1,9.6-5.5
			C728.2,197.9,728,197.8,728,187.6z"/>
		<path fill="#87CCBE" d="M727.8,187.4c-9.7-0.6-9.9-0.7-9.9-10.9c-0.399,10.2-0.6,10.5-9.899,10.9c9.3,0.4,9.6,0.7,9.899,10.9
			C717.899,187.7,718.3,187.8,727.8,187.4z"/>
		<path fill="#87CCBE" d="M705,349.8c-0.101,5.101-0.2,5.2-4.8,5.4c4.6,0.1,4.699,0.399,4.8,5.399c0.1-5.3,0.2-5.199,5-5.399
			C705.1,354.8,705,354.8,705,349.8z"/>
		<path fill="#87CCBE" d="M691.6,359.7c-0.2,5.1-0.399,5.2-5,5.399c4.601,0.101,4.7,0.4,5,5.301c0-5.2,0.2-5.2,4.8-5.301
			C691.7,364.8,691.6,364.8,691.6,359.7z"/>
		<path fill="#87CCBE" d="M703.899,362.1c-0.199,5.101-0.199,5.2-5,5.4c4.7,0.2,4.7,0.4,5,5.4c0.101-5.2,0.2-5.2,5-5.4
			C704,367.3,703.899,367.2,703.899,362.1z"/>
		<path fill="#87CCBE" d="M699.1,340.7c0.101-5.2,0.2-5.2,5-5.4c-4.7-0.2-4.8-0.399-5-5.399c-0.1,5.1-0.2,5.3-4.8,5.399
			C698.8,335.5,698.899,335.6,699.1,340.7z"/>
		<path fill="#87CCBE" d="M595.3,315.9c0.1-10.5,0.5-10.4,9.9-10.9c-9.7-0.6-9.9-0.7-9.9-10.9c-0.4,10.2-0.6,10.5-9.9,10.9
			C594.7,305.3,594.899,305.7,595.3,315.9z"/>
		<path fill="#87CCBE" d="M580.399,296.5c0.101-10.5,0.5-10.4,9.9-10.9c-9.7-0.6-9.9-0.7-9.9-10.8c-0.399,10-0.6,10.4-9.899,10.8
			C579.8,286,580,286.3,580.399,296.5z"/>
		<path fill="#BAE2D8" d="M42.1,246c0.6-39.6,1.8-39.3,37.3-41c-36.3-2.3-37.2-2.7-37.3-40.9C40.6,202.3,40,203.6,4.8,205
			C39.9,206.4,40.6,207.8,42.1,246z"/>
		<path fill="#87CCBE" d="M582.5,219h-0.2c0.1,0.6,0.1,1.3,0.1,2.1C582.5,220.3,582.5,219.6,582.5,219z"/>
		<path fill="#87CCBE" d="M575.3,275.3c0.1-5.2,0.2-5.2,5-5.3c-4.7-0.4-4.8-0.4-5-5.4c-0.1,5-0.2,5.2-4.8,5.4
			C575.1,270.1,575.2,270.4,575.3,275.3z"/>
		<path fill="#87CCBE" d="M731.3,319.7c-0.4,6.7-0.4,6.899-6.7,7.1c6.2,0.2,6.3,0.5,6.7,7.3c0-7,0.2-6.899,6.5-7.3
			C731.399,326.5,731.3,326.4,731.3,319.7z"/>
		<path fill="#87CCBE" d="M723.2,345.4c-0.2,6.699-0.4,6.899-6.5,7.1c6.199,0.2,6.3,0.5,6.5,7.3c0.1-7,0.399-6.899,6.699-7.3
			C723.399,352.2,723.2,352.1,723.2,345.4z"/>
		<path fill="#87CCBE" d="M722.3,299.2c-6.3-0.4-6.5-0.5-6.5-7.3c-0.2,6.8-0.4,7-6.5,7.3c6.2,0.2,6.3,0.5,6.5,7.3
			C715.899,299.4,716.1,299.4,722.3,299.2z"/>
		<path fill="#87CCBE" d="M568.8,320.2c0.1-5.2,0.2-5.2,5-5.4c-4.8-0.2-5-0.399-5-5.3c-0.1,5-0.2,5.2-5,5.3
			C568.5,315,568.6,315.2,568.8,320.2z"/>
		<path fill="#87CCBE" d="M738.899,28.1c0.101-5.2,0.2-5.2,5-5.4c-3.8-0.2-4.699-0.3-4.899-2.7h-0.3c-0.301,2.4-1.101,2.6-4.801,2.7
			C738.6,22.9,738.6,23,738.899,28.1z"/>
		<path fill="#9FD6C9" d="M556,99.9c-0.7,20.3-1.101,21.1-19.8,21.9c18.8,0.7,19.1,1.5,19.8,21.8c0.399-21.1,1-20.9,20-21.8
			C556.6,120.5,556.1,120.4,556,99.9z"/>
		<path fill="#87CCBE" d="M498.2,111.8c-0.801,20.5-1.101,21.1-20,21.9c18.8,0.7,19.1,1.5,20,21.8c0.199-21.1,1-20.9,19.8-21.8
			C498.7,132.5,498.2,132.2,498.2,111.8z"/>
		<path fill="#B3E2D6" d="M641.3,99.4c-0.8,20.3-1.1,21.1-19.8,21.8c18.6,0.7,19,1.6,19.8,21.9c0.2-21.2,1-20.9,19.8-21.9
			C641.8,120,641.3,119.8,641.3,99.4z"/>
		<path fill="#87CCBE" d="M740.5,63.4c-0.8,20.3-1.101,21.1-19.8,21.8c18.6,0.7,19,1.6,19.8,21.9c0.2-21.2,1-20.9,19.8-21.9
			C741,84,740.5,83.7,740.5,63.4z"/>
		<path fill="#A4D8CB" d="M560.6,63c0.5-31,1.5-30.7,29.2-32.1c-28.4-1.8-29-2.1-29.2-31.9c-1.1,29.8-1.6,30.9-29,31.9
			C558.899,32,559.5,33.1,560.6,63z"/>
		<path fill="#87CCBE" d="M474.3,39.6c-22.1-1.4-25.3-1.8-25.9-19.6h-0.5c-1.1,17.9-4.1,18.8-25.5,19.6c24.4,1,24.9,1.9,25.9,28.6
			C448.8,40.6,449.7,40.8,474.3,39.6z"/>
		<path fill="#87CCBE" d="M550.3,92.2c-12.7-0.7-13-1-13.1-14.3c-0.5,13.3-0.601,13.8-12.9,14.3c12.2,0.5,12.5,1,12.9,14.3
			C537.5,92.7,538,92.8,550.3,92.2z"/>
		<path fill="#87CCBE" d="M526,97.6c-0.3,7.5-0.3,7.8-7.3,8.1c6.899,0.3,7.1,0.5,7.3,8.1c0.1-7.8,0.399-7.8,7.399-8.1
			C526.2,105.3,526.1,105.1,526,97.6z"/>
		<path fill="#87CCBE" d="M594,102.7c-0.5,10.2-0.601,10.5-9.9,10.9c9.3,0.4,9.4,0.7,9.9,10.9c0.1-10.5,0.5-10.4,9.8-10.9
			C594.3,113,594,112.9,594,102.7z"/>
		<path fill="#87CCBE" d="M637.899,182.7c-0.399,7.9-0.5,8.2-7.699,8.5c7.199,0.3,7.3,0.6,7.699,8.5c0.101-8.2,0.4-8.1,7.601-8.5
			C638.1,190.7,637.899,190.6,637.899,182.7z"/>
		<path fill="#87CCBE" d="M650.3,163.5c-0.4,7.9-0.5,8.2-7.7,8.5c7.2,0.3,7.3,0.6,7.7,8.5c0.1-8.2,0.4-8.1,7.6-8.5
			C650.5,171.5,650.3,171.4,650.3,163.5z"/>
		<path fill="#87CCBE" d="M593.8,102.5c-9.7-0.6-9.9-0.7-9.9-10.9c-0.399,10.2-0.6,10.5-9.899,10.9c9.3,0.4,9.6,0.7,9.899,10.9
			C584,102.8,584.3,103,593.8,102.5z"/>
		<path fill="#87CCBE" d="M659.3,85.2c-0.5,14.6-0.8,15.1-14.3,15.7c13.5,0.5,13.7,1,14.3,15.7c0.3-15.1,0.7-15,14.4-15.7
			C659.7,100,659.3,99.9,659.3,85.2z"/>
		<path fill="#87CCBE" d="M720.6,84.8c-0.6,14.6-0.8,15.1-14.3,15.7c13.4,0.5,13.7,1.1,14.3,15.7c0.2-15.2,0.7-15,14.3-15.7
			C720.899,99.6,720.6,99.5,720.6,84.8z"/>
		<path fill="#87CCBE" d="M686.6,87.2c-0.3,7.3-0.399,7.6-7.1,7.8c6.7,0.3,6.8,0.5,7.1,7.8c0.101-7.6,0.3-7.5,7-7.8
			C686.7,94.6,686.6,94.5,686.6,87.2z"/>
		<path fill="#87CCBE" d="M686.399,87c-7-0.4-7.1-0.5-7.1-7.8c-0.3,7.3-0.4,7.6-7.1,7.8c6.699,0.3,6.899,0.5,7.1,7.8
			C679.399,87.3,679.6,87.4,686.399,87z"/>
		<path fill="#87CCBE" d="M543.3,137.2c-0.2,5.1-0.2,5.2-5,5.4c4.7,0.1,4.7,0.4,5,5.4c0.1-5.3,0.2-5.2,5-5.4
			C543.399,142.3,543.3,142.3,543.3,137.2z"/>
		<path fill="#87CCBE" d="M527.3,171.2c-0.2,5.1-0.2,5.2-5,5.4c4.7,0.1,4.7,0.4,5,5.4c0.1-5.3,0.2-5.2,5-5.4
			C527.399,176.3,527.3,176.3,527.3,171.2z"/>
		<path fill="#87CCBE" d="M626.7,82.4c0-5.2,0.199-5.2,4.8-5.4c-4.7-0.2-4.8-0.4-4.8-5.3c-0.2,5-0.4,5.2-5,5.3
			C626.3,77.2,626.5,77.4,626.7,82.4z"/>
		<path fill="#87CCBE" d="M607.5,74c-0.101,5.1-0.2,5.2-4.8,5.4c4.6,0.1,4.699,0.4,4.8,5.4c0.1-5.3,0.2-5.2,5-5.4
			C607.7,79.1,607.6,79.1,607.5,74z"/>
		<path fill="#87CCBE" d="M442.3,94.5c-0.2,5.1-0.2,5.3-5,5.4c4.7,0.2,4.7,0.4,5,5.4c0.1-5.2,0.2-5.2,5-5.4
			C442.5,99.7,442.3,99.5,442.3,94.5z"/>
		<path fill="#87CCBE" d="M517.8,73.1c-0.2,5.1-0.2,5.2-5,5.4c4.6,0.1,4.7,0.4,5,5.4c0-5.3,0.2-5.2,5-5.4
			C517.899,78.1,517.8,78.1,517.8,73.1z"/>
		<path fill="#87CCBE" d="M512.2,70c0.199-16.7,0.8-16.6,15.699-17.3c-15.399-1-15.699-1.2-15.699-17.3
			c-0.601,16.1-0.801,16.7-15.7,17.3C511.2,53.3,511.6,53.9,512.2,70z"/>
		<path fill="#BADBD3" d="M632.2,309.35c0.199-16.9,0.8-16.8,16-17.5c-15.601-1-16-1.1-16-17.4c-0.601,16.3-0.801,16.8-16,17.4
			C631.3,292.45,631.6,293.05,632.2,309.35z"/>
		<path fill="#87CCBE" d="M613.3,249.7c0.2-12.1,0.6-12,11.4-12.5c-11-0.7-11.301-0.8-11.4-12.5c-0.4,11.6-0.6,12-11.3,12.5
			C612.7,237.6,612.899,238.1,613.3,249.7z"/>
		<path fill="#87CCBE" d="M664.399,51.8c0.2-12.1,0.601-12,11.4-12.5c-11-0.7-11.3-0.8-11.4-12.5c-0.399,11.6-0.6,12-11.3,12.5
			C663.8,39.7,664,40.2,664.399,51.8z"/>
		<path fill="#87CCBE" d="M412.3,122.9c-0.2,5.2-0.2,5.4-5,5.5c4.7,0.2,4.9,0.4,5,5.5c0.1-5.4,0.2-5.3,5-5.5
			C412.399,128.2,412.3,128.1,412.3,122.9z"/>
		<path fill="#87CCBE" d="M401.6,69.6c0.101-10.5,0.5-10.4,9.9-10.9c-9.7-0.6-9.9-0.7-9.9-10.9C401.2,58,401.1,58.3,391.7,58.7
			C401,59,401.2,59.4,401.6,69.6z"/>
		<path fill="#87CCBE" d="M254.8,150.25c-0.7,20.3-1.1,21.1-19.8,21.9c18.8,0.7,19.1,1.5,19.8,21.8c0.4-21.1,1-20.9,20-21.8
			C255.4,170.85,255,170.75,254.8,150.25z"/>
		<path fill="#87CCBE" d="M298.2,20h-0.6c0.2,1.7,0.3,3.8,0.4,6.5C298,23.8,298.1,21.7,298.2,20z"/>
		<path fill="#87CCBE" d="M316-1c-0.8,20.3-1.1,21.1-19.8,21.8c18.6,0.7,19,1.6,19.8,21.9c0.2-21.2,1-20.9,19.8-21.9
			C316.4,19.6,316,19.3,316-1z"/>
		<path fill="#87CCBE" d="M467.5,72c-0.7,15.8-0.8,16.4-15.4,16.9c14.5,0.6,14.8,1.2,15.4,17c0.2-16.4,0.8-16.3,15.399-17
			C467.899,88,467.5,87.8,467.5,72z"/>
		<path fill="#B6DDD3" d="M234.812,73.611c20.676-23.104,21.235-22.222,43.088-5.143c-18.992-18.701-20.458-20.369-4.644-39.083
			l-0.227-0.196c-16.808,17.722-19.115,17.179-39.12,1.172C253.824,49.068,253.558,50.292,234.812,73.611z"/>
		<path fill="#87CCBE" d="M224.8,29.7c-12.7-0.7-13-1-13.1-14.3c-0.5,13.3-0.6,13.8-12.9,14.3c12.2,0.5,12.5,1,12.9,14.3
			C212,30.2,212.5,30.3,224.8,29.7z"/>
		<path fill="#87CCBE" d="M296.25,92.2c-0.5,10.2-0.6,10.5-9.9,10.9c9.3,0.4,9.4,0.7,9.9,10.9c0.1-10.5,0.5-10.4,9.8-10.9
			C296.45,102.5,296.25,102.4,296.25,92.2z"/>
		<path fill="#87CCBE" d="M329.7,172.1c-0.4,7.9-0.5,8.2-7.7,8.5c7.2,0.3,7.3,0.6,7.7,8.5c0.1-8.2,0.4-8.1,7.6-8.5
			C329.9,180.1,329.7,180,329.7,172.1z"/>
		<path fill="#87CCBE" d="M342.1,153c-0.4,7.9-0.5,8.2-7.7,8.5c7.2,0.3,7.3,0.6,7.7,8.5c0.1-8.2,0.4-8.1,7.6-8.5
			C342.3,160.9,342.1,160.8,342.1,153z"/>
		<path fill="#87CCBE" d="M301.8,136.9c-9.7-0.6-9.9-0.7-9.9-10.9c-0.4,10.2-0.6,10.5-9.9,10.9c9.3,0.4,9.6,0.7,9.9,10.9
			C292,137.3,292.4,137.4,301.8,136.9z"/>
		<path fill="#87CCBE" d="M351,74.6c-0.5,14.6-0.8,15.1-14.3,15.7c13.5,0.5,13.7,1,14.3,15.7c0.3-15.1,0.7-15,14.4-15.7
			C351.4,89.4,351.1,89.3,351,74.6z"/>
		<path fill="#87CCBE" d="M412.3,74.2c-0.6,14.6-0.8,15.1-14.3,15.7c13.399,0.5,13.7,1.1,14.3,15.7c0.2-15.2,0.7-15,14.3-15.7
			C412.7,89,412.3,88.9,412.3,74.2z"/>
		<path fill="#87CCBE" d="M378.3,76.6c-0.3,7.3-0.4,7.6-7.1,7.8c6.7,0.3,6.8,0.5,7.1,7.8c0.1-7.6,0.3-7.5,7-7.8
			C378.5,84,378.3,83.9,378.3,76.6z"/>
		<path fill="#87CCBE" d="M378.1,76.4c-7-0.4-7.1-0.5-7.1-7.8c-0.3,7.3-0.4,7.6-7.1,7.8c6.7,0.3,6.9,0.5,7.1,7.8
			C371.1,76.7,371.4,76.8,378.1,76.4z"/>
		<path fill="#87CCBE" d="M68.8,245c-0.2,5.1-0.2,5.2-5,5.4c4.7,0.1,4.7,0.4,5,5.4c0.1-5.3,0.2-5.2,5-5.4
			C69,250.1,68.8,250.1,68.8,245z"/>
		<path fill="#87CCBE" d="M318.4,71.8c0-5.2,0.2-5.2,4.8-5.4c-4.7-0.2-4.8-0.4-4.8-5.3c-0.2,5-0.4,5.2-5,5.3
			C318.1,66.6,318.2,66.8,318.4,71.8z"/>
		<path fill="#87CCBE" d="M299.2,63.4c-0.1,5.1-0.2,5.2-4.8,5.4c4.6,0.1,4.7,0.4,4.8,5.4c0.1-5.3,0.2-5.2,5-5.4
			C299.4,68.5,299.3,68.5,299.2,63.4z"/>
		<path fill="#87CCBE" d="M356.1,41.2c0.2-12.1,0.6-12,11.4-12.5c-9.7-0.6-11-0.8-11.3-8.7H356c-0.4,8-1.7,8.3-11.1,8.7
			C355.5,29.1,355.8,29.6,356.1,41.2z"/>
		<path fill="#87CCBE" d="M11.5,140.1c0,5.2-0.1,5.2-5,5.5c4.8,0.2,5,0.2,5,5.5c0.2-5.2,0.3-5.4,5-5.5
			C11.7,145.5,11.7,145.3,11.5,140.1z"/>
		<path fill="#87CCBE" d="M11.8,121.8c-4.8-0.2-4.9-0.4-5-5.5c0,5.2-0.1,5.2-5,5.5c4.8,0.2,5,0.2,5,5.5
			C6.9,122.2,7.1,122,11.8,121.8z"/>
		<path fill="#87CCBE" d="M39.7,130.4c0,5.2-0.1,5.2-5,5.5c4.8,0.2,5,0.2,5,5.5c0.2-5.2,0.3-5.4,5-5.5
			C40,135.8,39.9,135.6,39.7,130.4z"/>
		<path fill="#87CCBE" d="M50.4,77.1c0.4-10.2,0.6-10.5,9.9-10.9c-9.4-0.4-9.6-0.7-9.9-10.9c0,10.2-0.2,10.3-9.9,10.9
			C49.9,66.7,50.3,66.5,50.4,77.1z"/>
		<path fill="#87CCBE" d="M69.5,276.6c-0.1,18.7-0.5,18.9-18.2,20c16.4,0.8,17.8,0.7,18.1,17.3h0.2c0.7-16.101,1.8-16.7,18-17.3
			C70.5,295.9,70.3,295.2,69.5,276.6z"/>
		<path fill="#87CCBE" d="M132.6,286.7c0.1-5.1,0.2-5.3,4.8-5.4c-4.6-0.2-4.7-0.4-4.8-5.4c0,5.1-0.1,5.1-5,5.4
			C132.4,281.5,132.5,281.4,132.6,286.7z"/>
		<path fill="#87CCBE" d="M146,296.5c0.2-5,0.4-5.2,5-5.3c-4.6-0.2-4.7-0.4-5-5.4c0,5.1-0.1,5.1-4.8,5.4
			C145.8,291.3,146,291.3,146,296.5z"/>
		<path fill="#87CCBE" d="M133.7,299.1c0.2-5.1,0.2-5.2,5-5.4c-4.7-0.2-4.7-0.4-5-5.4c0,5.1-0.1,5.2-5,5.4
			C133.4,293.9,133.6,293.9,133.7,299.1z"/>
		<path fill="#87CCBE" d="M143.4,261.3c-4.6-0.1-4.7-0.4-4.8-5.4c-0.1,5.1-0.2,5.2-5,5.4c4.7,0.2,4.8,0.2,5,5.4
			C138.7,261.7,138.8,261.6,143.4,261.3z"/>
		<path fill="#87CCBE" d="M705,225c0,6.8-0.2,6.8-6.7,7.3c6.3,0.2,6.5,0.2,6.7,7.1c0.2-6.7,0.399-6.9,6.5-7.1
			C705.399,232.1,705.3,231.8,705,225z"/>
		<path fill="#87CCBE" d="M106.3,245.8c0,6.7-0.1,6.8-6.5,7.1c6.3,0.4,6.5,0.2,6.5,7.3c0.4-6.8,0.5-7,6.7-7.3
			C106.7,252.7,106.7,252.5,106.3,245.8z"/>
		<path fill="#87CCBE" d="M121,278.6c-6.2-0.2-6.3-0.5-6.5-7.1c0,6.7-0.2,6.8-6.7,7.1c6.3,0.4,6.5,0.2,6.7,7.3
			C114.7,279.1,114.8,278.9,121,278.6z"/>
		<path fill="#87CCBE" d="M121.8,218c0,6.8-0.2,6.9-6.5,7.3c6.2,0.2,6.4,0.2,6.5,7.3c0.2-6.8,0.4-7,6.5-7.3
			C122.2,225,122.1,224.8,121.8,218z"/>
		<path fill="#87CCBE" d="M19.8,60.3c0,20.3-0.5,20.6-19.8,21.8c18.8,1,19.5,0.7,19.8,21.9c0.905-22.97,1.095-21.196,19.8-21.9
			C20.9,81.4,20.6,80.6,19.8,60.3z"/>
		<path fill="#87CCBE" d="M166.2,99.6c0,10.2-0.2,10.3-9.8,10.9c9.3,0.5,9.7,0.4,9.8,10.9c0.5-10.2,0.6-10.5,9.9-10.9
			C166.8,110.1,166.7,109.8,166.2,99.6z"/>
		<path fill="#87CCBE" d="M122.3,179.6c0,7.9-0.2,8-7.6,8.5c7.2,0.4,7.5,0.3,7.6,8.5c0.4-7.9,0.5-8.2,7.7-8.5
			C122.8,187.8,122.7,187.5,122.3,179.6z"/>
		<path fill="#87CCBE" d="M109.9,160.4c0,7.9-0.2,8-7.6,8.5c7.2,0.4,7.5,0.3,7.6,8.5c0.4-7.9,0.5-8.2,7.7-8.5
			C110.4,168.6,110.3,168.3,109.9,160.4z"/>
		<path fill="#87CCBE" d="M188.7,35.2c0,10.2-0.2,10.3-9.9,10.9c9.4,0.5,9.8,0.4,9.9,10.9c0.4-10.2,0.6-10.5,9.9-10.9
			C189.3,45.7,189.1,45.4,188.7,35.2z"/>
		<path fill="#87CCBE" d="M108.1,107.4c-13.5-0.6-13.7-1.1-14.3-15.7c-0.1,14.7-0.4,14.8-14.4,15.7c13.7,0.6,14.1,0.5,14.4,15.7
			C94.4,108.5,94.7,108,108.1,107.4z"/>
		<path fill="#87CCBE" d="M39.7,113.1c0.6-14.6,0.9-15.2,14.3-15.7c-13.5-0.5-13.7-1-14.3-15.7c0,14.6-0.3,14.8-14.3,15.7
			C39,98.1,39.5,97.9,39.7,113.1z"/>
		<path fill="#87CCBE" d="M73.7,99.7c0.3-7.3,0.4-7.6,7.1-7.8c-6.7-0.3-6.8-0.5-7.1-7.8c0,7.3-0.2,7.4-7,7.8
			C73.3,92.3,73.6,92.2,73.7,99.7z"/>
		<path fill="#87CCBE" d="M81,91.7c0.3-7.3,0.4-7.6,7.1-7.8c-6.7-0.3-6.9-0.5-7.1-7.8c0,7.3-0.2,7.4-7.1,7.8
			C80.6,84.3,80.9,84.2,81,91.7z"/>
		<path fill="#87CCBE" d="M95.8,48.7c0.4-11.6,0.6-12.1,11.3-12.5c-10.7-0.4-10.9-0.8-11.3-12.4c-0.1,11.6-0.4,11.7-11.4,12.5
			C95.2,36.7,95.6,36.6,95.8,48.7z"/>
	</g>
</g>
<g id="Layer_8">
</g>
<g id="Layer_9">
</g>
<g id="Layer_2">
</g>
<g>
	<g id="Layer_1_1_">
		<rect x="281.3" y="391.1" fill="none" width="202.8" height="244.301"/>
		<g>
			<path fill="#DDE5CE" d="M581.336,581.172c-1.235,19.159,0.443,16.556,10.369,33.788c6.347,11.068,7.645,24.089,8.978,36.612
				c0.393,4.438-1.537,9.115-2.157,13.684c-0.387,2.68-0.375,5.387-0.37,8.194c0.019,2.606,0.443,5.143,0.063,7.723
				c-0.19,1.29-1.412,3.009-2.538,3.332c-1.125,0.322-3.085-0.315-4.126-1.19c-7.777-6.355-11.078-15.106-12.911-24.757
				c-0.367-1.931-2.364-3.473-3.649-5.167c-1.101-1.479-2.514-2.78-3.506-4.354c-3.794-5.979-7.168-12.229-11.274-18.027
				c-5.207-7.28-7.513-14.458-4.287-23.354c1.383-4.014,1.324-8.93,0.526-13.296c-1.446-8.021-3.812-15.803-5.862-23.765
				C560.751,567.192,571.168,584.673,581.336,581.172z"/>
			<g>
				<g>
					<path fill="#DDE5CE" d="M525.6,570.5c6.2,10.9,20,46.4,34.2,55.2c17.8,4.7,32.4-22.8,29.7-31.8c-20.3-65.4-56.9-170.2-81.8-234
						c-4.9-12.5-22-25.5-35.601-28.4c-32.6-7-66.399-10.5-99.7-11c-66.3-0.9-99-21.6-124.8-84.2c-10.9-26.5-22.4-52.8-32.5-79.6
						c-7-18.5-19.6-29.1-36.5-17.9c-8.8,5.8-16.9,26.1-13.3,35c24.6,60.8,45.4,124.9,80.9,179c37,56.5,48.9,102.601,37.3,164.5
						c-9.9,52.5-26.2,114.3-37.1,169.2c17.6,1.8,32,3.3,55.5,5.8c0,41.601,0.9,83.8-0.3,125.9c-0.8,25.5,9.2,36.1,34.6,36.5
						c25.3,0.399,35.4-9.5,35.5-35.4c0.1-42.899,3.3-85.899,5.2-128.8c4.1-0.8,16.8-0.1,21.1-0.4c2,8.301,1.3,13.7,1.8,21.9
						c2.2,36.1,3.4,72.3,3.5,108.5c0.101,23.3,9.2,34.7,33.101,34.3c22.8-0.399,38.6-5.8,37.8-33.6c-1.101-42.2-0.3-84.4-0.3-128.3
						c21.1-2.5,36.6-4.4,54.399-6.5c-12-61.4-27.5-123.801-39.1-183.5"/>
					<path fill="#DDE5CE" d="M161.1,102.1c0,4.414,0.15,6.4-3.2,6.6c-3.337-12.017-7.333-24.686-11.804-36.393
						c-2.177-5.702-6.893-33.896-17.837-24.252c-5.662,4.989-0.855,11.652,1.141,17.145c2.512,6.913,4.829,14.078,7.3,21
						c2.474,6.93,5.235,13.938,7.3,21c1.631,5.582,6.018,9.946-1,12.5c-0.2-0.5,1.1-0.4,0,0c-2.8-6.994-6.543-13.725-9.908-20.453
						c-2.223-4.446-6.257-17.485-11.792-17.947c-13.577-1.933,4.678,31.97,6.31,35.188c5.889,11.617,10.239,23.731,17.241,34.7
						c3.059,4.791,7.227,8.864,10.85,13.212c2.542,3.393,5.863,6.107,8.5,9.4c2.176,2.611,3.541,6.847,5.044,9.851
						c7.044-5.765,13.085-12.146,21.466-15.974c4.598-2.101,9.52-4.184,14.489-5.177c1.612-0.302,11.742-0.048,11.742-0.957
						c2.713-10.176,7.649-20.519,12.017-30.144c2.334-5.143,5.741-9.749,7.841-15c1.741-4.348-0.274-8.024,0.312-12.637
						c0.658-5.174-0.055-20.587-9.912-14.562c-9.478,5.683-2.253,17.668-8.363,25.35c-1.7,2.138-6.592,7.866-9.962,6.812
						c-3.395-1.061-7.248-6.131-8.638-9.3c-4.222-9.626-2.779-19.732,4.463-26.962c6.296-3.156,15.813,10.74,21.377,1.111
						c2.193-3.796,1.32-6.645-2.593-8.539c-4.934-2.389-10.008-5.241-15.084-7.272c-9.443-3.671-17.572,0.12-23.1,8.1
						c-2.66,3.802-2.823,9.009-3.8,13.4c-0.204,0.954-2.699,12.72-5.288,6.325c-2.203-5.444-4.328-16.196-4.961-21.975
						c-1.492-5.962-2.562-14.645-4.351-26.451c-0.872-5.756-1.765-19.185-5.911-23.407c-2.204-2.244-6.875-3.05-9.382-0.881
						c-4.508,3.901-2.704,8.512-1.907,13.689"/>
				</g>
				<g>
					<path fill="#DDE5CE" d="M472.2,205.6c0-51.6-39.8-93.5-88.9-93.5c-49.1,0-88.9,41.9-88.9,93.5s39.8,101.5,88.9,101.5
						C432.3,307.1,472.2,257.3,472.2,205.6z"/>
					<path fill="#DDE5CE" d="M468.4,207.6c-3.5,3.9-7.5,7.6-11.7,11c0.399,0.4,0.899,0.7,1.3,1.1c1.9,1.8,3.8,4.2,6.3,5.2
						c1.5,0.6,2.7,1.8,2.9,3.3c18,19.5,24.8,47.2,21.899,73.1C536.5,300,545.2,221.7,468.4,207.6z"/>
					<path fill="#DDE5CE" d="M297.1,207.6c3.5,3.9,7.5,7.6,11.7,11c-0.4,0.4-0.9,0.7-1.3,1.1c-1.9,1.8-3.8,4.2-6.3,5.2
						c-1.5,0.6-2.7,1.8-2.9,3.3c-18,19.5-24.7,47.2-21.9,73.1C229.1,300,220.4,221.7,297.1,207.6z"/>
				</g>
			</g>
		</g>
		<g enable-background="new    ">
			<path fill="#0990D3" d="M330.5,431.9c-2.6-0.801-6-1.2-10-1.2s-7.3,0.399-10,1.2c-0.6,0-1.1-0.2-1.5-0.601
				c-0.4-0.399-0.6-0.899-0.6-1.399c0-1.101,0.5-1.801,1.6-2c1.8-0.5,4.1-0.801,7-1c3.4-16.4,11.3-33.801,23.7-52.301
				c0.4-0.6,0.9-0.8,1.4-0.8c0.9,0,1.5,0.2,1.8,0.7c10.6,13.6,18.4,31.1,23.3,52.6c2.6,0.2,5.2,0.5,7.8,0.9c0.5,0.1,0.9,0.3,1.2,0.7
				c0.3,0.399,0.5,0.8,0.5,1.3s-0.2,1-0.7,1.4c-0.4,0.399-0.8,0.6-1.1,0.6c-0.4,0-1.1-0.1-2.3-0.3c-5-0.9-11.1-1.101-18.5-0.5
				c-2.2,0.2-3.8,0.3-4.9,0.5c-1.1,0.2-1.7,0.3-1.7,0.3c-0.1,0-0.2,0-0.5,0s-0.7-0.2-1.1-0.7c-0.4-0.399-0.6-0.899-0.6-1.399
				s0.2-0.9,0.5-1.301c0.3-0.399,0.9-0.6,1.6-0.8c0.7-0.2,1.7-0.3,2.7-0.399c1-0.101,2.1-0.2,3.2-0.4c-1.1-4.3-2.3-8.4-3.6-12.3
				c-4.5,0.6-8.7,1-12.4,1c-3.7,0-8.1-0.3-12.9-1c-1.4,4-2.5,8-3.3,12c3.2,0.1,6.5,0.5,9.7,1.2c0.5,0.1,0.8,0.3,1.1,0.699
				c0.3,0.4,0.4,0.801,0.4,1.4c0,0.5-0.2,1-0.7,1.4C331.4,431.7,331,431.9,330.5,431.9z M326,410.8c4.5,0.5,8.1,0.8,10.5,0.8
				c3.8,0,7.8-0.3,12.1-0.8c-2.8-8.6-6.6-16.399-11.3-23.3C332.7,395.5,328.9,403.3,326,410.8z M357.6,426.7l3.2-0.101h1.2
				c0.4,0,0.8,0,1.2,0.101c-4.5-19.3-11.4-35.2-20.5-47.7l-3,4.6c5.3,7.2,9.5,15.7,12.7,25.5C355.4,418.5,357.1,424.4,357.6,426.7z"
				/>
			<path fill="#0990D3" d="M383.5,418.2c6,7.6,13.4,11.5,22.2,11.5c5.5,0,9.3-1.3,11.5-4c0.8-1,1.3-2.2,1.3-3.5s-0.3-2.4-0.9-3.4
				c-0.6-0.899-1.399-1.7-2.3-2.399c-0.899-0.7-2-1.301-3.2-1.9c-1.199-0.6-2.399-1-3.6-1.4c-1.9-0.699-3.9-1.199-5.9-1.6
				s-3.899-0.8-5.699-1.3c-1.801-0.5-3.5-1-5.101-1.7c-1.6-0.7-3.1-1.4-4.5-2.3c-1.399-0.9-2.6-2-3.6-3.2c-2.1-2.6-3.2-5.8-3.2-9.8
				c0-5.9,2.2-10.5,6.5-13.9c4-3.1,8.8-4.7,14.5-4.7c3.2,0,6.7,0.7,10.6,2c3.7,1.301,6.301,2.7,7.7,4.4c0.601-1.6,1.4-3.5,2.5-5.8
				c0.4-0.7,1-1.101,1.7-1.101s1.2,0.2,1.6,0.601c0.4,0.399,0.601,0.8,0.601,1.2c0,0.399-0.4,1.399-1.101,2.899
				c-0.699,1.5-1.5,3.7-2.399,6.5c-0.9,2.8-1.5,5.601-1.8,8.4c-0.101,0.5-0.301,0.899-0.601,1.2c-0.399,0.3-0.8,0.5-1.399,0.5
				c-0.601,0-1-0.2-1.4-0.7c-0.4-0.4-0.6-0.9-0.6-1.3v-0.2c0.3-2.7,0.899-5.4,1.6-8c-0.5-1.4-2.7-2.9-6.7-4.4s-7.5-2.3-10.7-2.3
				c-5.399,0-9,1.7-11,5c-0.699,1.1-1,2.5-1.1,4.2c0.3,3.7,2.6,6.5,7.1,8.3c2.2,0.9,4.301,1.6,6.4,2.1s4.1,0.9,5.9,1.301
				c1.8,0.399,3.899,1,6.199,1.8c2.4,0.8,4.4,1.8,6.2,3c3.9,2.7,5.8,6.7,5.8,12s-2.3,9.6-6.899,13c-4.2,3.1-8.8,4.6-14,4.6
				c-9,0-16.601-3.2-22.6-9.7v0.9c0,1.6,0.1,3.2,0.2,4.8v0.2c0,0.5-0.2,1-0.5,1.3c-0.3,0.4-0.8,0.601-1.4,0.601s-1.1-0.101-1.4-0.5
				c-0.4-0.4-0.6-0.9-0.7-1.601c-0.1-1.399-0.2-3.2-0.2-5.399c0-4.101,0.5-8.5,1.4-13.2c0.3-1.101,0.9-1.601,2-1.601
				c0.6,0,1.1,0.2,1.5,0.7c0.4,0.4,0.6,0.8,0.6,1.101v0.5c0,0.1,0,0.3-0.1,0.6c-0.1,0.3-0.2,0.7-0.3,1.2c-0.1,0.5-0.2,1-0.3,1.399
				C383.9,415.6,383.7,416.6,383.5,418.2z M385,388.9c-0.4,1.5-0.6,3-0.6,4.5s0.2,2.899,0.6,4.199c0.4,1.301,1.3,2.5,2.6,3.601
				c3,2.6,8.101,4.7,15.4,6.2c4.7,1,8.3,2.199,10.8,3.399c2.4,1.2,4.3,2.5,5.7,3.9c1.4,1.399,2.2,2.899,2.6,4.8
				c0.4-1,0.5-2.2,0.5-3.6c0-1.4-0.3-2.601-0.8-3.801c-0.5-1.199-1.2-2.199-2.1-3.1c-0.9-0.9-1.8-1.7-3-2.3
				c-1.101-0.7-2.3-1.2-3.5-1.7c-1.601-0.6-3.601-1.2-5.9-1.8c-2.3-0.601-4.3-1-5.899-1.5c-1.601-0.4-3.2-0.9-4.7-1.4
				s-3-1.1-4.4-1.8c-1.399-0.7-2.6-1.5-3.7-2.4C386.6,394.3,385.3,391.8,385,388.9z"/>
			<path fill="#0990D3" d="M480.7,411.7l-3.2,18.2c-0.1,0.5-0.3,0.899-0.7,1.199c-0.399,0.301-0.8,0.4-1.3,0.4h-0.2
				c-4.2-0.4-10.8-0.6-19.899-0.6c-9.101,0-15.601,0.199-19.601,0.6h-0.2c-1.199,0-1.899-0.7-2-2c0-0.5,0.2-1,0.5-1.3
				c0.301-0.4,0.801-0.601,1.5-0.7c0.601-0.1,1.4-0.1,2.4-0.2c1-0.1,2-0.1,3.2-0.2l0.899-48.5C439.9,378.4,437.7,378.2,435.4,377.9
				c-0.5-0.101-0.9-0.301-1.2-0.7c-0.3-0.4-0.5-0.9-0.4-1.4c0-0.6,0.2-1,0.601-1.399c0.399-0.301,0.8-0.5,1.3-0.5h0.2
				c4.899,0.699,9.6,1.1,14.3,1.1s8.3-0.1,10.8-0.4h0.2c0.6,0,1.1,0.2,1.5,0.601c0.399,0.399,0.6,0.899,0.6,1.399s-0.2,1-0.5,1.4
				c-0.399,0.4-0.899,0.6-1.6,0.6c-1.5,0.2-3.3,0.301-5.4,0.4l-1.3,47.8h1.1c7.801,0,13.9,0.2,18.4,0.5l2.8-16
				c0.101-0.5,0.3-0.899,0.7-1.2c0.4-0.3,0.8-0.5,1.3-0.5s1,0.2,1.4,0.601C480.5,410.7,480.7,411.2,480.7,411.7z M451.6,379.1h-2.8
				c-0.899,0-1.8,0-2.8-0.1l-0.8,48.1c0.8-0.1,1.7-0.1,2.5-0.1c0.899,0,1.7,0,2.6-0.1L451.6,379.1z"/>
		</g>
		<g enable-background="new    ">
			<path fill="#CB394D" d="M360.8,523.6l3.5-0.399c0.7,0,1,0.3,1,1c0,1.2-0.8,2.1-2.5,2.7c-1.7,0.6-3.5,0.899-5.6,0.899
				c-3.9,0-7.2-1.6-9.9-4.7c-2.7-3.1-6.3-8.899-11.1-17.399c-1.1-1.8-1.7-3.2-1.7-4.2c0-1.3,1.8-2.8,5.5-4.6
				c5.9-3.101,8.9-6.9,8.9-11.5c0-1.301-0.5-2.4-1.4-3.301c-0.9-0.899-2.1-1.399-3.6-1.399c-2.1,0-4.6,2.5-7.5,7.399
				c-2.9,4.9-4.8,9.601-5.8,13.9s-1.5,9-1.5,13.9c0,2.399-0.7,3.699-2.1,3.699c-2,0-3.9-0.3-5.8-0.899c-1.8-0.601-2.7-1.3-2.7-2.2
				s0.3-5.1,1-12.4c0.7-7.399,1.1-12.699,1.2-15.899c0.3-17.8,1.4-31.4,3.1-40.8c0.3-0.801,1.5-2.101,3.6-4.101
				c2.1-1.899,3.9-2.899,5.2-2.899c1.3,0,1.9,1.6,1.9,4.899s-0.8,10.3-2.2,21c-1.4,10.7-2.3,20.5-2.6,29.4
				c1.6-5.601,4.1-10.9,7.5-15.8c3.4-5,6.9-7.5,10.4-7.5c5.9,0,8.9,2.899,8.9,8.6c0,3.8-1.1,7.3-3.4,10.4c-2.3,3.1-5.3,5.6-9.2,7.5
				c-0.8,0.3-1.2,0.699-1.2,1.199c0,0.4,0.1,0.9,0.4,1.301c5.5,9.699,10.2,16.5,14,20.399C358.4,523.1,359.6,523.6,360.8,523.6z"/>
			<path fill="#CB394D" d="M372.2,519.7c-3.4,0-6-0.7-7.7-2.101c-0.6-0.6-0.9-2.8-0.9-6.5c0-3.8,0.3-10,0.9-18.8s1.1-13.5,1.5-14.2
				c0.4-0.699,1.8-2,4.1-3.899c2.3-1.9,4-2.9,5.3-2.9c1.3,0,1.9,1.7,1.9,5c0,0.9-0.2,2.601-0.7,5.101s-1,4.399-1.6,5.5
				c-1.1,2.899-1.7,10.399-1.7,22.6c0,2.4,0.3,3.5,0.8,3.5c1.5-0.1,3.5-1.9,6.1-5.6c2.6-3.601,5.2-8.301,7.8-13.9
				c2.6-5.7,4.1-8.5,4.7-8.5c0.6,0,0.899,0.3,0.899,1c0,2.4-1.3,6.3-3.8,11.6C382.7,512.3,376.9,519.7,372.2,519.7z M368.4,455
				c0-1.6,0.8-2.9,2.5-4.1c1.7-1.101,3.1-1.7,4.4-1.7c2.4,0,3.5,1.399,3.5,4.1s-0.7,5-2.1,7c-1.4,2-3.4,2.9-5.9,2.9
				C369.2,463.3,368.4,460.5,368.4,455z"/>
			<path fill="#CB394D" d="M423.7,519.7c-3,0-5.3-0.7-6.9-2c-0.7-0.7-1-2.5-1-5.5s0.101-6.8,0.4-11.601
				c-2.4,6.301-4.8,11-7.2,14.301c-2.4,3.199-5.5,4.8-9.2,4.8s-6.8-1.601-9.399-4.8c-2.601-3.2-3.9-8.4-3.9-15.4
				c0-7.1,2-13.3,6-18.7c4-5.399,9.2-8.1,15.6-8.1c3.101,0,6.4,1.2,9.801,3.7c1.399-17,2.699-26.601,3.8-28.801
				c0.5-1,1.8-2.399,3.7-4.199c1.899-1.801,3.6-2.7,4.899-2.7s2,2.1,2,6.1c0,4.8-0.399,8.9-1.3,12.4c-2.4,9-3.8,14.7-4.4,17.1
				c-1.199,9.4-1.8,20.5-1.8,33.2c0,2.4,0.3,3.5,0.8,3.5c1.601-0.1,3.7-1.9,6.301-5.5c2.6-3.6,5.199-8.2,7.8-13.9
				c2.6-5.699,4.1-8.6,4.7-8.6c0.6,0,0.8,0.3,0.8,1c0,2.4-1.3,6.3-3.8,11.6C434.4,512.3,428.5,519.7,423.7,519.7z M407.2,477.3
				c-2.4,0-4.7,1.9-7.101,5.601c-2.399,3.8-3.5,8.1-3.5,13c0,4.899,0.601,9,1.9,12.1s2.9,4.7,4.8,4.7c3.9,0,8.4-7.9,13.5-23.601
				c0.4-4.8,0.7-7.6,0.7-8.5C414.9,478.4,411.5,477.3,407.2,477.3z"/>
			<path fill="#CB394D" d="M457.4,479l0.3-2c0-1.6-0.9-2.4-2.7-2.4s-3.5,1.2-5.2,3.5c-1.7,2.301-2.5,4.2-2.5,5.7s0.101,2.7,0.3,3.5
				c0.2,0.9,0.4,1.601,0.601,2.2s0.6,1.2,1.1,2s0.9,1.4,1.2,1.7l1.4,1.8c0.6,0.9,1,1.4,1.3,1.7c4.5-3.8,9.899-7.9,16.2-12.601
				c0.3-0.3,0.699-0.399,1.199-0.399c0.9,0,1.301,0.5,1.301,1.399c0,1-0.4,1.7-1.2,2.2c-5.601,3.601-10.9,7.5-15.8,11.601
				c1.899,2.8,2.899,5.8,2.899,9.199c0,3.301-1.3,6.2-3.8,8.5c-2.5,2.4-5.8,3.5-9.7,3.5c-3.899,0-5.899-1.899-5.899-5.6
				c0-2.7,2.899-6.8,8.6-12.399c-0.4-0.5-1.2-1.4-2.4-2.601c-1.1-1.2-2-2.1-2.6-2.8s-1.2-1.6-2-2.7c-1.4-2.2-2.1-4.5-2.1-7.1
				c0-5.101,1.699-9.3,5-12.5c3.3-3.2,6.8-4.8,10.6-4.8c2.4,0,4.2,0.6,5.5,1.899s2,2.601,2,3.9c0,3-0.7,4.399-2.1,4.399
				C457.9,480,457.4,479.7,457.4,479z M449,504.7c-3.5,3.5-5.2,6.3-5.2,8.399c0,2.101,1.101,3.2,3.3,3.2c1.301,0,2.4-0.5,3.301-1.6
				C452.2,512.2,451.8,508.8,449,504.7z"/>
		</g>
	</g>
	<ellipse fill="#DDE5CE" cx="337.33" cy="844" rx="23.93" ry="36.5"/>
	<ellipse fill="#DDE5CE" cx="438.6" cy="844" rx="23.93" ry="36.5"/>
</g>
</svg>
