<svg version="1.1" xmlns="http://www.w3.org/2000/svg" xmlns:xlink="http://www.w3.org/1999/xlink" x="0px" y="0px" viewBox="0 13.5 768 975" enable-background="new 0 13.5 768 975" xml:space="preserve">
<refs><style>
	#asl {
	stroke-dasharray: 1000;
	stroke-dashoffset: 1000;
	-webkit-animation: dash 3s ease-in-out forwards;
	-moz-animation: dash 3s ease-in-out forwards;
	}
	
	#asl path {
    -webkit-animation: fill 2s 1s ease-in forwards;
    -moz-animation: fill 2s 1s ease-in forwards;
	}
	
	@-moz-keyframes fill {from {fill: #dde5ce;}to {fill: #0990d3;}}

	@-webkit-keyframes fill {from {fill: #dde5ce;}to {fill: #0990d3;}}
      
	
	#rainbow path, #kids {
	-webkit-animation: fadein 2s;
	-moz-animation: fadein 2s;
	}
		
	@-moz-keyframes dash {
	from {stroke-dashoffset: 1000; fill: yellow !important;}
	to {stroke-dashoffset: 0; fill: red !important;}
	}

	@-webkit-keyframes dash {
	from {stroke-dashoffset: 1000; fill: yellow !important;}
	to {stroke-dashoffset: 0; fill: red !important;}
	}

	@-moz-keyframes fadein {0% { opacity: 0;}100% { opacity: 1}}	
	
	@-webkit-keyframes fadein {0% { opacity: 0;}100% { opacity: 1}}	
	
</style></refs>
<g id="spotlight">
	<g id="Layer_7">
		<ellipse fill="#409D8B" cx="384" cy="857" rx="175.268" ry="112"/>
	</g>
</g>
<g id="rainbow">
	<g>
		<path id="blue" fill="#0990D3" d="M531.356,394.864c85.021,6.674,165.056,23.933,239.425,48.342
			c-0.031,0.41-0.055,0.82-0.085,1.229c0.58-7.897,1.279-15.786,1.611-23.696c-73.479-27.791-152.601-49.215-237.055-60.972
			c-161.63-22.611-347.372-10.015-543.108,38.519c-0.277,10.449-0.968,20.886-1.708,31.319c-1.14,16.056-1.743,32.136-2.072,48.229
			c-0.024,1.216-0.03,2.431-0.042,3.646C183.905,405.948,371.657,382.511,531.356,394.864z"/>
		<g id="green">
			<path fill="#BBD367" d="M527.354,428.167c86.077,1.433,167.354,14.804,242.847,36.308c0.001,0.033,0.004,0.067,0.005,0.1
				c-0.178-4.557-0.225-9.123,0.049-13.721c0.127-2.141,0.284-4.28,0.442-6.418c0.03-0.41,0.054-0.82,0.085-1.229
				c-74.369-24.409-154.404-41.668-239.425-48.342c-159.699-12.353-347.451,11.084-543.034,86.616l-0.001,0c0,0.047,0,0.094,0,0.141
				c-0.007,0.757-0.002,1.515-0.005,2.272c-0.071,22.098,1.772,44.16,2.318,66.229C181.085,457.526,369.747,425.513,527.354,428.167
				z"/>
		</g>
		<g id="yellow">
			<path fill="#F6C063" d="M771.35,487.493c-0.183-7.683-0.847-15.288-1.145-22.919c-0.001-0.033-0.004-0.067-0.005-0.1
				c-75.493-21.503-156.77-34.875-242.847-36.308c-157.606-2.653-346.268,29.359-536.719,121.957c-0.001,0-0.003,0.001-0.005,0.002
				c0.138,5.527,0.196,11.056,0.12,16.585c-0.025,1.849-0.066,3.697-0.124,5.546c-0.409,13.083-1.25,26.131-1.661,39.209
				C176.25,507.424,363.839,466.99,518.354,461.267C608.442,457.924,693.166,468.197,771.35,487.493z"/>
		</g>
		<g id="dark_yellow">
			<path fill="#D69D3C" d="M771.719,507.952c0.062,1.949,0.153,3.896,0.263,5.843c-0.428-7.578-0.443-15.172-0.567-22.78
				c-0.017-1.066-0.029-2.13-0.053-3.197c-0.002-0.108-0.009-0.216-0.011-0.325h-0.001
				c-78.184-19.296-162.907-29.569-252.996-26.226C363.839,466.99,176.25,507.424-11.036,611.465
				c-0.003,0.002-0.007,0.004-0.011,0.006c-0.013,0.404-0.021,0.81-0.034,1.214c-0.005,0.181-0.01,0.361-0.015,0.542
				c-0.078,2.698-0.144,5.396-0.17,8.098c-0.146,14.926,0.047,29.853,0.412,44.774c185.246-106.668,365.311-160.29,516.006-173.932
				C599.908,483.574,689.5,490.67,771.719,507.952z"/>
		</g>
		<g id="pink">
			<path fill="#EA5F72" d="M489.953,525.466c100.399-14.203,196.265-10.384,283.859,5.184c0.174,1.103,0.352,2.205,0.532,3.307
				c-0.427-2.614-0.845-5.23-1.213-7.852c-0.575-4.099-0.92-8.202-1.15-12.31c-0.109-1.947-0.2-3.894-0.263-5.843
				c-82.219-17.282-171.811-24.378-266.565-15.786c-150.695,13.643-330.76,67.264-516.006,173.932
				c0.021,0.827,0.035,1.655,0.056,2.482c0.023,0.906,0.054,1.812,0.079,2.718c0.353,13.165,0.786,26.328,1.185,39.492
				c-0.017-0.547-0.032-1.093-0.048-1.64C168.213,602.379,343.924,546.213,489.953,525.466z"/>
		</g>
		<g id="red">
			<path fill="#CB394D" d="M774.345,533.956c-0.181-1.102-0.358-2.204-0.532-3.307c-87.595-15.567-183.46-19.387-283.859-5.184
				c-146.029,20.747-321.74,76.913-499.534,183.686c0.017,0.547,0.032,1.093,0.048,1.64c0.389,12.844,0.729,25.69,0.903,38.539
				c167.805-103.72,336.819-161.559,477.983-187.663c109.884-20.3,213.535-19.973,307.934-5.9
				C776.787,548.45,775.529,541.207,774.345,533.956z"/>
		</g>
	</g>
</g>
<g id="girl_1_">
	<path fill="#DDE5CE" d="M602.972,657.904c-1.333-12.523-2.631-25.545-8.978-36.613c-1.851-3.213-3.414-5.734-4.727-7.838
		c2.399-5.209,3.418-10.234,2.521-13.221c-20.3-65.4-56.9-170.201-81.8-234c-4.9-12.5-22-25.5-35.604-28.4
		c-32.6-7-66.396-10.5-99.7-11c-44.714-0.607-74.145-10.224-96.483-35.622c0.969-20.174,7.789-40.168,21.277-55.436
		c9.854,42.113,44.669,77.658,86.109,77.658c41.043,0,75.696-34.942,85.87-76.672c16.521,19.347,22.722,45.941,19.927,70.872
		c46.614-1.278,55.8-77.013-16.938-92.94c0.025-0.919,0.041-1.839,0.041-2.759c0-51.6-39.8-93.5-88.9-93.5
		c-49.1,0-88.899,41.9-88.899,93.5c0,0.845,0.012,1.69,0.033,2.534c-23.369,4.879-38.435,15.873-46.625,28.669
		c-0.07-0.169-0.141-0.334-0.211-0.504c-10.245-24.907-21.005-49.643-30.649-74.778c2.714-10.169,7.646-20.504,12.011-30.123
		c2.334-5.143,5.741-9.749,7.841-15c1.741-4.348-0.274-8.024,0.312-12.637c0.658-5.174-0.055-20.587-9.912-14.562
		c-9.478,5.683-2.253,17.668-8.363,25.35c-1.7,2.138-6.592,7.866-9.962,6.812c-3.395-1.061-7.248-6.131-8.638-9.3
		c-4.222-9.626-2.779-19.732,4.463-26.962c6.296-3.156,15.813,10.74,21.377,1.111c2.193-3.796,1.32-6.645-2.593-8.539
		c-4.934-2.389-10.008-5.241-15.084-7.272c-9.443-3.671-17.572,0.12-23.1,8.1c-2.66,3.802-2.823,9.009-3.8,13.4
		c-0.204,0.954-2.699,12.72-5.288,6.325c-2.203-5.444-4.328-16.196-4.961-21.975c-1.492-5.962-2.562-14.645-4.351-26.451
		c-0.872-5.756-1.765-19.185-5.911-23.407c-2.204-2.244-6.875-3.05-9.382-0.881c-4.508,3.901-2.704,8.512-1.907,13.689l11.4,62.9
		c0,4.414,0.15,6.4-3.2,6.6c-3.337-12.017-7.333-24.686-11.804-36.393c-2.177-5.702-6.893-33.896-17.837-24.252
		c-5.662,4.989-0.855,11.652,1.141,17.145c2.512,6.913,4.829,14.078,7.3,21c2.474,6.93,5.235,13.938,7.3,21
		c1.631,5.582,6.018,9.946-1,12.5c-2.8-6.994-6.543-13.725-9.908-20.453c-2.223-4.446-6.257-17.485-11.792-17.947
		c-13.577-1.933,4.678,31.97,6.31,35.188c5.889,11.617,10.239,23.731,17.241,34.7c3.059,4.791,7.227,8.864,10.85,13.212
		c2.542,3.393,5.863,6.107,8.5,9.4c2.159,2.591,3.52,6.777,5.009,9.776c22.951,57.849,43.385,118.016,76.987,169.224
		c37,56.5,48.9,102.604,37.3,164.5c-9.9,52.5-26.2,114.301-37.1,169.201c17.6,1.799,32,3.299,55.5,5.799
		c0,41.604,0.9,83.801-0.299,125.9c-0.497,15.818,3.167,25.896,12.08,31.371c1.758,17.514,11.678,30.93,23.652,30.93
		c12.131,0,22.146-13.771,23.711-31.619c7.357-5.451,10.6-14.967,10.656-29.582c0.1-42.896,3.3-85.896,5.199-128.799
		c4.101-0.801,16.801-0.1,21.101-0.4c2,8.303,1.3,13.699,1.8,21.9c2.2,36.1,3.4,72.299,3.5,108.5
		c0.063,14.293,3.52,24.1,11.694,29.459c1.866,17.322,11.723,30.541,23.608,30.541c11.991,0,21.922-13.451,23.661-30.998
		c7.872-4.662,12.375-13.15,11.939-28.303c-1.104-42.199-0.3-84.4-0.3-128.299c21.1-2.5,36.6-4.4,54.396-6.5
		c-12-61.4-27.5-123.805-39.1-183.5l36.402,67.6c5.583,9.814,17.328,39.566,29.979,51.818c0.989,2.955,2.583,5.816,4.64,8.691
		c4.106,5.799,7.48,12.049,11.274,18.027c0.992,1.576,2.405,2.875,3.506,4.354c1.285,1.693,3.282,3.236,3.649,5.168
		c1.831,9.652,5.134,18.402,12.908,24.758c1.041,0.875,3.001,1.51,4.126,1.188c1.126-0.322,2.351-2.041,2.538-3.332
		c0.379-2.58-0.043-5.119-0.062-7.723c-0.005-2.807-0.02-5.514,0.37-8.193C601.438,667.02,603.367,662.342,602.972,657.904z"/>
</g>
<g id="kids">
	<g enable-background="new    ">
		<path fill="#CB394D" d="M365.5,529.109l3.5-0.396c0.7,0,1,0.299,1,1c0,1.199-0.8,2.1-2.5,2.699s-3.5,0.896-5.6,0.896
			c-3.9,0-7.2-1.6-9.9-4.699s-6.3-8.896-11.1-17.396c-1.101-1.801-1.7-3.201-1.7-4.201c0-1.299,1.8-2.799,5.5-4.599
			c5.9-3.104,8.9-6.9,8.9-11.5c0-1.304-0.5-2.4-1.4-3.304c-0.9-0.896-2.1-1.396-3.6-1.396c-2.101,0-4.601,2.5-7.5,7.396
			c-2.9,4.9-4.801,9.604-5.801,13.901c-1,4.297-1.5,9-1.5,13.9c0,2.396-0.699,3.695-2.1,3.695c-2,0-3.9-0.299-5.8-0.896
			c-1.8-0.604-2.7-1.299-2.7-2.199s0.3-5.1,1-12.4c0.7-7.397,1.1-12.697,1.2-15.897c0.3-17.8,1.399-31.4,3.1-40.8
			c0.3-0.804,1.5-2.104,3.601-4.104c2.1-1.896,3.899-2.896,5.199-2.896c1.301,0,1.9,1.6,1.9,4.896s-0.8,10.3-2.2,21
			c-1.399,10.7-2.3,20.5-2.6,29.4c1.6-5.604,4.1-10.9,7.5-15.8c3.399-5,6.899-7.5,10.399-7.5c5.9,0,8.9,2.896,8.9,8.6
			c0,3.8-1.1,7.3-3.4,10.4c-2.3,3.1-5.3,5.6-9.199,7.5c-0.801,0.3-1.2,0.696-1.2,1.196c0,0.4,0.1,0.9,0.399,1.304
			c5.5,9.695,10.2,16.5,14,20.396C363.101,528.609,364.3,529.109,365.5,529.109z"/>
		<path fill="#CB394D" d="M376.9,525.209c-3.4,0-6-0.699-7.7-2.104c-0.6-0.6-0.9-2.799-0.9-6.5c0-3.799,0.301-10,0.9-18.799
			s1.1-13.5,1.5-14.2c0.4-0.696,1.8-2,4.1-3.896c2.301-1.9,4-2.9,5.301-2.9c1.3,0,1.899,1.7,1.899,5c0,0.9-0.2,2.604-0.7,5.104
			s-1,4.396-1.6,5.5c-1.1,2.896-1.7,10.396-1.7,22.599c0,2.4,0.3,3.5,0.8,3.5c1.5-0.1,3.5-1.898,6.101-5.6
			c2.6-3.604,5.2-8.303,7.8-13.9c2.6-5.7,4.1-8.5,4.7-8.5c0.6,0,0.899,0.3,0.899,1c0,2.4-1.303,6.3-3.803,11.601
			C387.4,517.809,381.601,525.209,376.9,525.209z M373.101,460.509c0-1.6,0.8-2.9,2.5-4.1c1.699-1.104,3.1-1.7,4.399-1.7
			c2.4,0,3.5,1.396,3.5,4.1s-0.7,5-2.1,7c-1.4,2-3.4,2.9-5.9,2.9C373.9,468.809,373.101,466.009,373.101,460.509z"/>
		<path fill="#CB394D" d="M428.4,525.209c-3,0-5.3-0.699-6.9-2c-0.7-0.699-1-2.5-1-5.5s0.101-6.799,0.4-11.603
			c-2.4,6.304-4.8,11-7.2,14.304c-2.4,3.195-5.5,4.799-9.2,4.799s-6.8-1.604-9.399-4.799c-2.601-3.201-3.897-8.4-3.897-15.401
			c0-7.1,2-13.3,6-18.7c4-5.396,9.2-8.1,15.603-8.1c3.101,0,6.397,1.2,9.801,3.7c1.398-17,2.699-26.604,3.8-28.804
			c0.5-1,1.8-2.396,3.7-4.196c1.896-1.804,3.6-2.7,4.896-2.7s2,2.1,2,6.1c0,4.8-0.396,8.9-1.3,12.4c-2.4,9-3.8,14.7-4.4,17.1
			c-1.196,9.4-1.8,20.5-1.8,33.201c0,2.4,0.3,3.5,0.8,3.5c1.604-0.1,3.7-1.9,6.304-5.5c2.6-3.6,5.196-8.201,7.8-13.901
			c2.6-5.696,4.1-8.6,4.7-8.6c0.6,0,0.8,0.3,0.8,1c0,2.4-1.3,6.3-3.8,11.6C439.101,517.809,433.2,525.209,428.4,525.209z
			 M411.9,482.809c-2.4,0-4.7,1.9-7.101,5.604c-2.399,3.8-3.5,8.1-3.5,13c0,4.896,0.601,9,1.897,12.099s2.897,4.701,4.8,4.701
			c3.898,0,8.398-7.9,13.5-23.604c0.398-4.8,0.7-7.6,0.7-8.5C419.601,483.91,416.2,482.809,411.9,482.809z"/>
		<path fill="#CB394D" d="M462.101,484.509l0.3-2c0-1.6-0.9-2.4-2.7-2.4s-3.5,1.2-5.2,3.5c-1.7,2.304-2.5,4.2-2.5,5.7
			s0.104,2.7,0.3,3.5c0.2,0.9,0.4,1.604,0.604,2.2s0.6,1.2,1.1,2s0.9,1.4,1.2,1.7l1.4,1.8c0.6,0.9,1,1.4,1.3,1.7
			c4.5-3.8,9.896-7.9,16.2-12.604c0.3-0.3,0.696-0.396,1.196-0.396c0.9,0,1.304,0.5,1.304,1.396c0,1-0.4,1.7-1.2,2.2
			c-5.604,3.604-10.9,7.5-15.8,11.604c1.896,2.799,2.896,5.799,2.896,9.196c0,3.305-1.3,6.201-3.8,8.5c-2.5,2.4-5.8,3.5-9.7,3.5
			c-3.896,0-5.896-1.896-5.896-5.6c0-2.699,2.896-6.799,8.6-12.398c-0.4-0.5-1.2-1.398-2.4-2.601c-1.1-1.2-2-2.1-2.6-2.8
			s-1.2-1.603-2-2.7c-1.4-2.2-2.1-4.5-2.1-7.1c0-5.104,1.696-9.303,5-12.5c3.3-3.2,6.8-4.803,10.6-4.803c2.4,0,4.2,0.603,5.5,1.899
			s2,2.601,2,3.899c0,3-0.7,4.397-2.1,4.397C462.601,485.509,462.101,485.209,462.101,484.509z M453.7,510.209
			c-3.5,3.5-5.2,6.301-5.2,8.396c0,2.104,1.104,3.201,3.3,3.201c1.304,0,2.4-0.5,3.304-1.6
			C456.9,517.709,456.5,514.309,453.7,510.209z"/>
	</g>
</g>
<g id="asl">
	<g>
		<path fill="none" stroke="#0990D3" stroke-width="1.9" stroke-miterlimit="10" d="M367.027,431.358l-2.596-6.823h-22.102l-2.596,6.972c-1.014,2.72-1.879,4.556-2.596,5.507
			c-0.717,0.951-1.891,1.428-3.522,1.428c-1.385,0-2.609-0.507-3.671-1.521c-1.063-1.013-1.595-2.163-1.595-3.449
			c0-0.742,0.124-1.507,0.371-2.299c0.247-0.791,0.655-1.891,1.224-3.3l13.906-35.304c0.395-1.013,0.872-2.23,1.428-3.653
			c0.556-1.421,1.149-2.601,1.78-3.541c0.63-0.939,1.458-1.7,2.485-2.281c1.025-0.581,2.292-0.872,3.801-0.872
			c1.533,0,2.812,0.291,3.838,0.872c1.025,0.581,1.854,1.329,2.484,2.244c0.631,0.915,1.162,1.897,1.595,2.948
			c0.432,1.051,0.983,2.454,1.65,4.209l14.203,35.081c1.112,2.67,1.668,4.611,1.668,5.822c0,1.261-0.525,2.417-1.576,3.467
			c-1.051,1.05-2.317,1.576-3.801,1.576c-0.866,0-1.607-0.155-2.225-0.463c-0.618-0.31-1.138-0.729-1.558-1.261
			c-0.421-0.531-0.872-1.347-1.354-2.447C367.787,433.169,367.373,432.199,367.027,431.358z M345.222,416.265h16.243l-8.195-22.436
			L345.222,416.265z"/>
		<path fill="none" stroke="#0990D3" stroke-width="1.9" stroke-miterlimit="10" d="M425.33,421.197c0,3.288-0.848,6.243-2.541,8.863c-1.693,2.621-4.172,4.672-7.435,6.156
			c-3.264,1.483-7.134,2.225-11.607,2.225c-5.365,0-9.79-1.013-13.276-3.041c-2.472-1.458-4.481-3.405-6.026-5.84
			c-1.545-2.435-2.317-4.803-2.317-7.102c0-1.335,0.463-2.478,1.391-3.43c0.927-0.951,2.107-1.428,3.542-1.428
			c1.161,0,2.145,0.371,2.948,1.112c0.803,0.742,1.488,1.842,2.058,3.3c0.691,1.731,1.44,3.177,2.244,4.339
			c0.803,1.163,1.934,2.12,3.393,2.874c1.459,0.755,3.375,1.131,5.748,1.131c3.264,0,5.915-0.76,7.954-2.28
			c2.04-1.521,3.06-3.417,3.06-5.692c0-1.804-0.551-3.269-1.649-4.395c-1.101-1.125-2.522-1.984-4.265-2.577
			c-1.743-0.593-4.074-1.224-6.99-1.892c-3.907-0.914-7.176-1.984-9.81-3.208c-2.633-1.224-4.722-2.893-6.267-5.006
			c-1.545-2.114-2.318-4.74-2.318-7.88c0-2.991,0.816-5.648,2.448-7.973c1.632-2.323,3.992-4.11,7.083-5.359
			c3.09-1.248,6.724-1.873,10.902-1.873c3.338,0,6.224,0.415,8.659,1.242c2.435,0.829,4.455,1.928,6.063,3.301
			c1.606,1.372,2.781,2.812,3.522,4.32c0.742,1.509,1.112,2.98,1.112,4.413c0,1.311-0.463,2.491-1.391,3.542
			c-0.927,1.051-2.083,1.576-3.467,1.576c-1.261,0-2.22-0.315-2.874-0.946c-0.655-0.63-1.367-1.662-2.133-3.096
			c-0.989-2.052-2.176-3.653-3.56-4.803c-1.385-1.149-3.61-1.724-6.675-1.724c-2.844,0-5.137,0.625-6.88,1.873
			c-1.742,1.249-2.614,2.751-2.614,4.506c0,1.088,0.297,2.027,0.891,2.818c0.593,0.792,1.409,1.471,2.447,2.04
			c1.038,0.569,2.089,1.014,3.152,1.335c1.062,0.322,2.818,0.792,5.266,1.409c3.064,0.718,5.841,1.508,8.325,2.374
			c2.484,0.866,4.599,1.916,6.342,3.152c1.742,1.237,3.102,2.8,4.079,4.691C424.841,416.135,425.33,418.453,425.33,421.197z"/>
		<path fill="none" stroke="#0990D3" stroke-width="1.9" stroke-miterlimit="10" d="M442.669,388.897v39.568h22.324c1.78,0,3.146,0.433,4.098,1.298c0.951,0.866,1.428,1.954,1.428,3.264
			c0,1.335-0.47,2.417-1.409,3.245c-0.94,0.829-2.312,1.242-4.116,1.242h-26.589c-2.398,0-4.123-0.531-5.174-1.594
			c-1.051-1.062-1.575-2.781-1.575-5.155v-41.867c0-2.225,0.5-3.894,1.502-5.006c1.001-1.113,2.317-1.669,3.949-1.669
			c1.655,0,2.997,0.551,4.023,1.65C442.155,384.973,442.669,386.648,442.669,388.897z"/>
	</g>
</g>
</svg>
