<svg version="1.1" xmlns="http://www.w3.org/2000/svg" xmlns:xlink="http://www.w3.org/1999/xlink" x="0" y="0" viewBox="0 13.5 768 975" enable-background="new 0 13.5 768 975" xml:space="preserve"><g id="spotlight"><g id="Layer_7"><ellipse fill="#409D8B" cx="384" cy="857" rx="175.27" ry="112"/></g></g><g id="rainbow"><path id="blue" fill="#0990D3" d="M531.36 394.86c85.02 6.67 165.06 23.93 239.43 48.34 -0.03 0.41-0.05 0.82-0.08 1.23 0.58-7.9 1.28-15.79 1.61-23.7 -73.48-27.79-152.6-49.21-237.05-60.97 -161.63-22.61-347.37-10.01-543.11 38.52 -0.28 10.45-0.97 20.89-1.71 31.32 -1.14 16.06-1.74 32.14-2.07 48.23 -0.02 1.22-0.03 2.43-0.04 3.65C183.91 405.95 371.66 382.51 531.36 394.86z"/><g id="green"><path fill="#BBD367" d="M527.35 428.17c86.08 1.43 167.35 14.8 242.85 36.31 0 0.03 0 0.07 0.01 0.1 -0.18-4.56-0.22-9.12 0.05-13.72 0.13-2.14 0.28-4.28 0.44-6.42 0.03-0.41 0.05-0.82 0.09-1.23 -74.37-24.41-154.4-41.67-239.42-48.34 -159.7-12.35-347.45 11.08-543.03 86.62l0 0c0 0.05 0 0.09 0 0.14 -0.01 0.76 0 1.52 0 2.27 -0.07 22.1 1.77 44.16 2.32 66.23C181.09 457.53 369.75 425.51 527.35 428.17z"/></g><g id="yellow"><path fill="#F6C063" d="M771.35 487.49c-0.18-7.68-0.85-15.29-1.14-22.92 0-0.03 0-0.07 0-0.1 -75.49-21.5-156.77-34.87-242.85-36.31 -157.61-2.65-346.27 29.36-536.72 121.96 0 0 0 0 0 0 0.14 5.53 0.2 11.06 0.12 16.59 -0.02 1.85-0.07 3.7-0.12 5.55 -0.41 13.08-1.25 26.13-1.66 39.21C176.25 507.42 363.84 466.99 518.35 461.27 608.44 457.92 693.17 468.2 771.35 487.49z"/></g><g id="dark_yellow"><path fill="#D69D3C" d="M771.72 507.95c0.06 1.95 0.15 3.9 0.26 5.84 -0.43-7.58-0.44-15.17-0.57-22.78 -0.02-1.07-0.03-2.13-0.05-3.2 0-0.11-0.01-0.22-0.01-0.32h0c-78.18-19.3-162.91-29.57-253-26.23C363.84 466.99 176.25 507.42-11.04 611.47c0 0-0.01 0-0.01 0.01 -0.01 0.4-0.02 0.81-0.03 1.21 0 0.18-0.01 0.36-0.01 0.54 -0.08 2.7-0.14 5.4-0.17 8.1 -0.15 14.93 0.05 29.85 0.41 44.77 185.25-106.67 365.31-160.29 516.01-173.93C599.91 483.57 689.5 490.67 771.72 507.95z"/></g><g id="pink"><path fill="#EA5F72" d="M489.95 525.47c100.4-14.2 196.27-10.38 283.86 5.18 0.17 1.1 0.35 2.21 0.53 3.31 -0.43-2.61-0.84-5.23-1.21-7.85 -0.57-4.1-0.92-8.2-1.15-12.31 -0.11-1.95-0.2-3.89-0.26-5.84 -82.22-17.28-171.81-24.38-266.56-15.79 -150.69 13.64-330.76 67.26-516.01 173.93 0.02 0.83 0.04 1.66 0.06 2.48 0.02 0.91 0.05 1.81 0.08 2.72 0.35 13.17 0.79 26.33 1.19 39.49 -0.02-0.55-0.03-1.09-0.05-1.64C168.21 602.38 343.92 546.21 489.95 525.47z"/></g><g id="red"><path fill="#CB394D" d="M774.35 533.96c-0.18-1.1-0.36-2.2-0.53-3.31 -87.59-15.57-183.46-19.39-283.86-5.18 -146.03 20.75-321.74 76.91-499.53 183.69 0.02 0.55 0.03 1.09 0.05 1.64 0.39 12.84 0.73 25.69 0.9 38.54 167.81-103.72 336.82-161.56 477.98-187.66 109.88-20.3 213.54-19.97 307.93-5.9C776.79 548.45 775.53 541.21 774.35 533.96z"/></g></g><g id="girl"><path fill="#DDE5CE" d="M602.97 657.9c-1.33-12.52-2.63-25.54-8.98-36.61 -1.85-3.21-3.41-5.73-4.73-7.84 2.4-5.21 3.42-10.23 2.52-13.22 -20.3-65.4-56.9-170.2-81.8-234 -4.9-12.5-22-25.5-35.6-28.4 -32.6-7-66.4-10.5-99.7-11 -44.71-0.61-74.14-10.22-96.48-35.62 0.97-20.17 7.79-40.17 21.28-55.44 9.85 42.11 44.67 77.66 86.11 77.66 41.04 0 75.7-34.94 85.87-76.67 16.52 19.35 22.72 45.94 19.93 70.87 46.61-1.28 55.8-77.01-16.94-92.94 0.03-0.92 0.04-1.84 0.04-2.76 0-51.6-39.8-93.5-88.9-93.5 -49.1 0-88.9 41.9-88.9 93.5 0 0.85 0.01 1.69 0.03 2.53 -23.37 4.88-38.43 15.87-46.62 28.67 -0.07-0.17-0.14-0.33-0.21-0.5 -10.24-24.91-21-49.64-30.65-74.78 2.71-10.17 7.65-20.5 12.01-30.12 2.33-5.14 5.74-9.75 7.84-15 1.74-4.35-0.27-8.02 0.31-12.64 0.66-5.17-0.05-20.59-9.91-14.56 -9.48 5.68-2.25 17.67-8.36 25.35 -1.7 2.14-6.59 7.87-9.96 6.81 -3.39-1.06-7.25-6.13-8.64-9.3 -4.22-9.63-2.78-19.73 4.46-26.96 6.3-3.16 15.81 10.74 21.38 1.11 2.19-3.8 1.32-6.64-2.59-8.54 -4.93-2.39-10.01-5.24-15.08-7.27 -9.44-3.67-17.57 0.12-23.1 8.1 -2.66 3.8-2.82 9.01-3.8 13.4 -0.2 0.95-2.7 12.72-5.29 6.33 -2.2-5.44-4.33-16.2-4.96-21.97 -1.49-5.96-2.56-14.64-4.35-26.45 -0.87-5.76-1.76-19.18-5.91-23.41 -2.2-2.24-6.87-3.05-9.38-0.88 -4.51 3.9-2.7 8.51-1.91 13.69l11.4 62.9c0 4.41 0.15 6.4-3.2 6.6 -3.34-12.02-7.33-24.69-11.8-36.39 -2.18-5.7-6.89-33.9-17.84-24.25 -5.66 4.99-0.85 11.65 1.14 17.15 2.51 6.91 4.83 14.08 7.3 21 2.47 6.93 5.24 13.94 7.3 21 1.63 5.58 6.02 9.95-1 12.5 -2.8-6.99-6.54-13.72-9.91-20.45 -2.22-4.45-6.26-17.48-11.79-17.95 -13.58-1.93 4.68 31.97 6.31 35.19 5.89 11.62 10.24 23.73 17.24 34.7 3.06 4.79 7.23 8.86 10.85 13.21 2.54 3.39 5.86 6.11 8.5 9.4 2.16 2.59 3.52 6.78 5.01 9.78 22.95 57.85 43.39 118.02 76.99 169.22 37 56.5 48.9 102.6 37.3 164.5 -9.9 52.5-26.2 114.3-37.1 169.2 17.6 1.8 32 3.3 55.5 5.8 0 41.6 0.9 83.8-0.3 125.9 -0.5 15.82 3.17 25.9 12.08 31.37 1.76 17.51 11.68 30.93 23.65 30.93 12.13 0 22.15-13.77 23.71-31.62 7.36-5.45 10.6-14.97 10.66-29.58 0.1-42.9 3.3-85.9 5.2-128.8 4.1-0.8 16.8-0.1 21.1-0.4 2 8.3 1.3 13.7 1.8 21.9 2.2 36.1 3.4 72.3 3.5 108.5 0.06 14.29 3.52 24.1 11.69 29.46 1.87 17.32 11.72 30.54 23.61 30.54 11.99 0 21.92-13.45 23.66-31 7.87-4.66 12.38-13.15 11.94-28.3 -1.1-42.2-0.3-84.4-0.3-128.3 21.1-2.5 36.6-4.4 54.4-6.5 -12-61.4-27.5-123.8-39.1-183.5l36.4 67.6c5.58 9.81 17.33 39.57 29.98 51.82 0.99 2.96 2.58 5.82 4.64 8.69 4.11 5.8 7.48 12.05 11.27 18.03 0.99 1.58 2.4 2.88 3.51 4.35 1.29 1.69 3.28 3.24 3.65 5.17 1.83 9.65 5.13 18.4 12.91 24.76 1.04 0.88 3 1.51 4.13 1.19 1.13-0.32 2.35-2.04 2.54-3.33 0.38-2.58-0.04-5.12-0.06-7.72 0-2.81-0.02-5.51 0.37-8.19C601.44 667.02 603.37 662.34 602.97 657.9z"/></g><g id="kids"><g enable-background="new    "><path fill="#CB394D" d="M365.5 529.11l3.5-0.4c0.7 0 1 0.3 1 1 0 1.2-0.8 2.1-2.5 2.7s-3.5 0.9-5.6 0.9c-3.9 0-7.2-1.6-9.9-4.7s-6.3-8.9-11.1-17.4c-1.1-1.8-1.7-3.2-1.7-4.2 0-1.3 1.8-2.8 5.5-4.6 5.9-3.1 8.9-6.9 8.9-11.5 0-1.3-0.5-2.4-1.4-3.3 -0.9-0.9-2.1-1.4-3.6-1.4 -2.1 0-4.6 2.5-7.5 7.4 -2.9 4.9-4.8 9.6-5.8 13.9 -1 4.3-1.5 9-1.5 13.9 0 2.4-0.7 3.7-2.1 3.7 -2 0-3.9-0.3-5.8-0.9 -1.8-0.6-2.7-1.3-2.7-2.2s0.3-5.1 1-12.4c0.7-7.4 1.1-12.7 1.2-15.9 0.3-17.8 1.4-31.4 3.1-40.8 0.3-0.8 1.5-2.1 3.6-4.1 2.1-1.9 3.9-2.9 5.2-2.9 1.3 0 1.9 1.6 1.9 4.9s-0.8 10.3-2.2 21c-1.4 10.7-2.3 20.5-2.6 29.4 1.6-5.6 4.1-10.9 7.5-15.8 3.4-5 6.9-7.5 10.4-7.5 5.9 0 8.9 2.9 8.9 8.6 0 3.8-1.1 7.3-3.4 10.4 -2.3 3.1-5.3 5.6-9.2 7.5 -0.8 0.3-1.2 0.7-1.2 1.2 0 0.4 0.1 0.9 0.4 1.3 5.5 9.7 10.2 16.5 14 20.4C363.1 528.61 364.3 529.11 365.5 529.11z"/><path fill="#CB394D" d="M376.9 525.21c-3.4 0-6-0.7-7.7-2.1 -0.6-0.6-0.9-2.8-0.9-6.5 0-3.8 0.3-10 0.9-18.8s1.1-13.5 1.5-14.2c0.4-0.7 1.8-2 4.1-3.9 2.3-1.9 4-2.9 5.3-2.9 1.3 0 1.9 1.7 1.9 5 0 0.9-0.2 2.6-0.7 5.1s-1 4.4-1.6 5.5c-1.1 2.9-1.7 10.4-1.7 22.6 0 2.4 0.3 3.5 0.8 3.5 1.5-0.1 3.5-1.9 6.1-5.6 2.6-3.6 5.2-8.3 7.8-13.9 2.6-5.7 4.1-8.5 4.7-8.5 0.6 0 0.9 0.3 0.9 1 0 2.4-1.3 6.3-3.8 11.6C387.4 517.81 381.6 525.21 376.9 525.21zM373.1 460.51c0-1.6 0.8-2.9 2.5-4.1 1.7-1.1 3.1-1.7 4.4-1.7 2.4 0 3.5 1.4 3.5 4.1s-0.7 5-2.1 7c-1.4 2-3.4 2.9-5.9 2.9C373.9 468.81 373.1 466.01 373.1 460.51z"/><path fill="#CB394D" d="M428.4 525.21c-3 0-5.3-0.7-6.9-2 -0.7-0.7-1-2.5-1-5.5s0.1-6.8 0.4-11.6c-2.4 6.3-4.8 11-7.2 14.3 -2.4 3.2-5.5 4.8-9.2 4.8s-6.8-1.6-9.4-4.8c-2.6-3.2-3.9-8.4-3.9-15.4 0-7.1 2-13.3 6-18.7 4-5.4 9.2-8.1 15.6-8.1 3.1 0 6.4 1.2 9.8 3.7 1.4-17 2.7-26.6 3.8-28.8 0.5-1 1.8-2.4 3.7-4.2 1.9-1.8 3.6-2.7 4.9-2.7s2 2.1 2 6.1c0 4.8-0.4 8.9-1.3 12.4 -2.4 9-3.8 14.7-4.4 17.1 -1.2 9.4-1.8 20.5-1.8 33.2 0 2.4 0.3 3.5 0.8 3.5 1.6-0.1 3.7-1.9 6.3-5.5 2.6-3.6 5.2-8.2 7.8-13.9 2.6-5.7 4.1-8.6 4.7-8.6 0.6 0 0.8 0.3 0.8 1 0 2.4-1.3 6.3-3.8 11.6C439.1 517.81 433.2 525.21 428.4 525.21zM411.9 482.81c-2.4 0-4.7 1.9-7.1 5.6 -2.4 3.8-3.5 8.1-3.5 13 0 4.9 0.6 9 1.9 12.1s2.9 4.7 4.8 4.7c3.9 0 8.4-7.9 13.5-23.6 0.4-4.8 0.7-7.6 0.7-8.5C419.6 483.91 416.2 482.81 411.9 482.81z"/><path fill="#CB394D" d="M462.1 484.51l0.3-2c0-1.6-0.9-2.4-2.7-2.4s-3.5 1.2-5.2 3.5c-1.7 2.3-2.5 4.2-2.5 5.7s0.1 2.7 0.3 3.5c0.2 0.9 0.4 1.6 0.6 2.2s0.6 1.2 1.1 2 0.9 1.4 1.2 1.7l1.4 1.8c0.6 0.9 1 1.4 1.3 1.7 4.5-3.8 9.9-7.9 16.2-12.6 0.3-0.3 0.7-0.4 1.2-0.4 0.9 0 1.3 0.5 1.3 1.4 0 1-0.4 1.7-1.2 2.2 -5.6 3.6-10.9 7.5-15.8 11.6 1.9 2.8 2.9 5.8 2.9 9.2 0 3.31-1.3 6.2-3.8 8.5 -2.5 2.4-5.8 3.5-9.7 3.5 -3.9 0-5.9-1.9-5.9-5.6 0-2.7 2.9-6.8 8.6-12.4 -0.4-0.5-1.2-1.4-2.4-2.6 -1.1-1.2-2-2.1-2.6-2.8s-1.2-1.6-2-2.7c-1.4-2.2-2.1-4.5-2.1-7.1 0-5.1 1.7-9.3 5-12.5 3.3-3.2 6.8-4.8 10.6-4.8 2.4 0 4.2 0.6 5.5 1.9s2 2.6 2 3.9c0 3-0.7 4.4-2.1 4.4C462.6 485.51 462.1 485.21 462.1 484.51zM453.7 510.21c-3.5 3.5-5.2 6.3-5.2 8.4 0 2.1 1.1 3.2 3.3 3.2 1.3 0 2.4-0.5 3.3-1.6C456.9 517.71 456.5 514.31 453.7 510.21z"/></g></g><g id="asl"><path fill="none" stroke="#0990D3" stroke-width="1.9" stroke-miterlimit="10" d="M367.03 431.36l-2.6-6.82h-22.1l-2.6 6.97c-1.01 2.72-1.88 4.56-2.6 5.51 -0.72 0.95-1.89 1.43-3.52 1.43 -1.38 0-2.61-0.51-3.67-1.52 -1.06-1.01-1.59-2.16-1.59-3.45 0-0.74 0.12-1.51 0.37-2.3 0.25-0.79 0.66-1.89 1.22-3.3l13.91-35.3c0.4-1.01 0.87-2.23 1.43-3.65 0.56-1.42 1.15-2.6 1.78-3.54 0.63-0.94 1.46-1.7 2.49-2.28 1.02-0.58 2.29-0.87 3.8-0.87 1.53 0 2.81 0.29 3.84 0.87 1.02 0.58 1.85 1.33 2.48 2.24 0.63 0.92 1.16 1.9 1.6 2.95 0.43 1.05 0.98 2.45 1.65 4.21l14.2 35.08c1.11 2.67 1.67 4.61 1.67 5.82 0 1.26-0.52 2.42-1.58 3.47 -1.05 1.05-2.32 1.58-3.8 1.58 -0.87 0-1.61-0.15-2.22-0.46 -0.62-0.31-1.14-0.73-1.56-1.26 -0.42-0.53-0.87-1.35-1.35-2.45C367.79 433.17 367.37 432.2 367.03 431.36zM345.22 416.27h16.24l-8.19-22.44L345.22 416.27z"/><path fill="none" stroke="#0990D3" stroke-width="1.9" stroke-miterlimit="10" d="M425.33 421.2c0 3.29-0.85 6.24-2.54 8.86 -1.69 2.62-4.17 4.67-7.43 6.16 -3.26 1.48-7.13 2.23-11.61 2.23 -5.36 0-9.79-1.01-13.28-3.04 -2.47-1.46-4.48-3.4-6.03-5.84 -1.54-2.43-2.32-4.8-2.32-7.1 0-1.33 0.46-2.48 1.39-3.43 0.93-0.95 2.11-1.43 3.54-1.43 1.16 0 2.15 0.37 2.95 1.11 0.8 0.74 1.49 1.84 2.06 3.3 0.69 1.73 1.44 3.18 2.24 4.34 0.8 1.16 1.93 2.12 3.39 2.87 1.46 0.76 3.38 1.13 5.75 1.13 3.26 0 5.92-0.76 7.95-2.28 2.04-1.52 3.06-3.42 3.06-5.69 0-1.8-0.55-3.27-1.65-4.39 -1.1-1.12-2.52-1.98-4.26-2.58 -1.74-0.59-4.07-1.22-6.99-1.89 -3.91-0.91-7.18-1.98-9.81-3.21 -2.63-1.22-4.72-2.89-6.27-5.01 -1.54-2.11-2.32-4.74-2.32-7.88 0-2.99 0.82-5.65 2.45-7.97 1.63-2.32 3.99-4.11 7.08-5.36 3.09-1.25 6.72-1.87 10.9-1.87 3.34 0 6.22 0.42 8.66 1.24 2.44 0.83 4.46 1.93 6.06 3.3 1.61 1.37 2.78 2.81 3.52 4.32 0.74 1.51 1.11 2.98 1.11 4.41 0 1.31-0.46 2.49-1.39 3.54 -0.93 1.05-2.08 1.58-3.47 1.58 -1.26 0-2.22-0.31-2.87-0.95 -0.65-0.63-1.37-1.66-2.13-3.1 -0.99-2.05-2.18-3.65-3.56-4.8 -1.38-1.15-3.61-1.72-6.67-1.72 -2.84 0-5.14 0.63-6.88 1.87 -1.74 1.25-2.61 2.75-2.61 4.51 0 1.09 0.3 2.03 0.89 2.82 0.59 0.79 1.41 1.47 2.45 2.04 1.04 0.57 2.09 1.01 3.15 1.34 1.06 0.32 2.82 0.79 5.27 1.41 3.06 0.72 5.84 1.51 8.32 2.37 2.48 0.87 4.6 1.92 6.34 3.15 1.74 1.24 3.1 2.8 4.08 4.69C424.84 416.14 425.33 418.45 425.33 421.2z"/><path fill="none" stroke="#0990D3" stroke-width="1.9" stroke-miterlimit="10" d="M442.67 388.9v39.57h22.32c1.78 0 3.15 0.43 4.1 1.3 0.95 0.87 1.43 1.95 1.43 3.26 0 1.34-0.47 2.42-1.41 3.25 -0.94 0.83-2.31 1.24-4.12 1.24h-26.59c-2.4 0-4.12-0.53-5.17-1.59 -1.05-1.06-1.57-2.78-1.57-5.15v-41.87c0-2.22 0.5-3.89 1.5-5.01 1-1.11 2.32-1.67 3.95-1.67 1.66 0 3 0.55 4.02 1.65C442.16 384.97 442.67 386.65 442.67 388.9z"/></g><g id="star"><path fill="#B6DDD3" d="M235.81 82.01c20.68-23.1 21.23-22.22 43.09-5.14 -18.99-18.7-20.46-20.37-4.64-39.08l-0.23-0.2c-16.81 17.72-19.11 17.18-39.12 1.17C254.82 57.47 254.55 58.69 235.81 82.01z"/></g></svg>