<svg version="1.1" xmlns="http://www.w3.org/2000/svg" x="0" y="0" width="768" height="975" viewBox="0 13.5 768 975" enable-background="new 0 13.5 768 975" xml:space="preserve"><refs><style>
	
	#star path {
	-webkit-animation: fadein 4s 5s 3;
	-moz-animation: fadein 4s 5s 3;
	}

	#asl_kids path {
	-webkit-animation: scaling 5s;
	-moz-animation: scaling 5s;	
	
	}

	
	#rainbow path {
	-webkit-animation: fadein 2s;
	-moz-animation: fadein 2s;
	}
	

	@-moz-keyframes scaling { /* Firefox */
	0%   { fill: #dde5ce; opacity: 0;}
	20%   { fill: #0990d3; }
	40%  { fill: #bbd367; }
	600% { fill: #d69d3c; }
	80% { fill: #409d8b; }
	100% { fill: #ea5f72; opacity: 1}
	}

	@-webkit-keyframes scaling { /* Webkit */
	0%   { fill: #dde5ce; opacity: 0;}
	20%   { fill: #0990d3; }
	40%  { fill: #bbd367; }
	600% { fill: #d69d3c; }
	80% { fill: #409d8b; }
	100% { fill: #ea5f72; opacity: 1}
	}

	@-moz-keyframes fadein {
	0% { opacity: 0; x:30px; y:50px;}
	100% { opacity: x:130px; y:250px;}
	}	
	
	@-webkit-keyframes fadein {
	0% { opacity: 0; x:30px; y:50px;}
	100% { opacity: x:130px; y:250px;}
	}
	
		
	</style></refs><g id="background"><linearGradient id="SVGID_1_" gradientUnits="userSpaceOnUse" x1="384" y1="988.5" x2="384" y2="13.5"><stop offset="0" stop-color="#65BCAB"/><stop offset="1" stop-color="#409D8B"/></linearGradient><rect x="-0.22" y="13.5" fill="url(#SVGID_1_)" width="768.44" height="975"/></g><g id="spotlight"><g id="Layer_7"><ellipse fill="#409D8B" cx="384" cy="857" rx="175.27" ry="112"/></g></g><g id="rainbow"><path fill="#0990D3" d="M531.36 394.86c85.02 6.67 165.06 23.93 239.43 48.34 -0.03 0.41-0.05 0.82-0.08 1.23 0.58-7.9 1.28-15.79 1.61-23.7 -73.48-27.79-152.6-49.21-237.05-60.97 -161.63-22.61-347.37-10.01-543.11 38.52 -0.28 10.45-0.97 20.89-1.71 31.32 -1.14 16.06-1.74 32.14-2.07 48.23 -0.02 1.22-0.03 2.43-0.04 3.65C183.91 405.95 371.66 382.51 531.36 394.86z"/><path fill="#0990D3" d="M-11.7 483.9c0.01 0 0.01 0 0.02-0.01 0-0.76 0-1.51 0.01-2.27C-11.69 482.38-11.7 483.14-11.7 483.9z"/><path fill="#BBD367" d="M527.35 428.17c86.08 1.43 167.35 14.8 242.85 36.31 0 0.03 0 0.07 0.01 0.1 -0.18-4.56-0.22-9.12 0.05-13.72 0.13-2.14 0.28-4.28 0.44-6.42 0.03-0.41 0.05-0.82 0.09-1.23 -74.37-24.41-154.4-41.67-239.42-48.34 -159.7-12.35-347.45 11.08-543.03 86.62 0 0 0 0 0 0 0 0.05 0 0.09 0 0.14 -0.01 0.76 0 1.52 0 2.27 -0.07 22.1 1.77 44.16 2.32 66.23C181.09 457.53 369.75 425.51 527.35 428.17z"/><path fill="#F6C063" d="M-11.1 613.23c0 0 0 0 0.01 0 0.01-0.18 0.01-0.36 0.02-0.54C-11.08 612.87-11.09 613.05-11.1 613.23z"/><path fill="#F6C063" d="M771.42 491.02c-0.02-1.07-0.03-2.13-0.06-3.2 0.02 1.07 0.04 2.13 0.05 3.2C771.42 491.02 771.42 491.02 771.42 491.02z"/><path fill="#F6C063" d="M771.35 487.49c-0.18-7.68-0.85-15.29-1.14-22.92 0-0.03 0-0.07 0-0.1 -75.49-21.5-156.77-34.87-242.85-36.31 -157.61-2.65-346.27 29.36-536.72 121.96 0 0 0 0 0 0 0.14 5.53 0.2 11.06 0.12 16.59 -0.02 1.85-0.07 3.7-0.12 5.55 -0.41 13.08-1.25 26.13-1.66 39.21C176.25 507.42 363.84 466.99 518.35 461.27 608.44 457.92 693.17 468.2 771.35 487.49z"/><path fill="#D69D3C" d="M771.72 507.95c0.06 1.95 0.15 3.9 0.26 5.84 -0.43-7.58-0.44-15.17-0.57-22.78 -0.02-1.07-0.03-2.13-0.05-3.2 0-0.11-0.01-0.22-0.01-0.32h0c-78.18-19.3-162.91-29.57-253-26.23C363.84 466.99 176.25 507.42-11.04 611.47c0 0-0.01 0-0.01 0.01 -0.01 0.4-0.02 0.81-0.03 1.21 0 0.18-0.01 0.36-0.01 0.54 -0.08 2.7-0.14 5.4-0.17 8.1 -0.15 14.93 0.05 29.85 0.41 44.77 185.25-106.67 365.31-160.29 516.01-173.93C599.91 483.57 689.5 490.67 771.72 507.95z"/><path fill="#D69D3C" d="M-10.72 671.3c0 0 0 0 0 0 -0.02-0.91-0.05-1.81-0.08-2.72C-10.77 669.49-10.74 670.39-10.72 671.3z"/><path fill="#EA5F72" d="M489.95 525.47c100.4-14.2 196.27-10.38 283.86 5.18 0.17 1.1 0.35 2.21 0.53 3.31 -0.43-2.61-0.84-5.23-1.21-7.85 -0.57-4.1-0.92-8.2-1.15-12.31 -0.11-1.95-0.2-3.89-0.26-5.84 -82.22-17.28-171.81-24.38-266.56-15.79 -150.69 13.64-330.76 67.26-516.01 173.93 0.02 0.83 0.04 1.66 0.06 2.48 0.02 0.91 0.05 1.81 0.08 2.72 0.35 13.17 0.79 26.33 1.19 39.49 -0.02-0.55-0.03-1.09-0.05-1.64C168.21 602.38 343.92 546.21 489.95 525.47z"/><path fill="#CB394D" d="M774.35 533.96c-0.18-1.1-0.36-2.2-0.53-3.31 -87.59-15.57-183.46-19.39-283.86-5.18 -146.03 20.75-321.74 76.91-499.53 183.69 0.02 0.55 0.03 1.09 0.05 1.64 0.39 12.84 0.73 25.69 0.9 38.54 167.81-103.72 336.82-161.56 477.98-187.66 109.88-20.3 213.54-19.97 307.93-5.9C776.79 548.45 775.53 541.21 774.35 533.96z"/></g><g id="girl_1_"><path fill="#DDE5CE" d="M602.97 657.9c-1.33-12.52-2.63-25.54-8.98-36.61 -1.85-3.21-3.41-5.73-4.73-7.84 2.4-5.21 3.42-10.23 2.52-13.22 -20.3-65.4-56.9-170.2-81.8-234 -4.9-12.5-22-25.5-35.6-28.4 -32.6-7-66.4-10.5-99.7-11 -44.71-0.61-74.14-10.22-96.48-35.62 0.97-20.17 7.79-40.17 21.28-55.44 9.85 42.11 44.67 77.66 86.11 77.66 41.04 0 75.7-34.94 85.87-76.67 16.52 19.35 22.72 45.94 19.93 70.87 46.61-1.28 55.8-77.01-16.94-92.94 0.03-0.92 0.04-1.84 0.04-2.76 0-51.6-39.8-93.5-88.9-93.5 -49.1 0-88.9 41.9-88.9 93.5 0 0.85 0.01 1.69 0.03 2.53 -23.37 4.88-38.43 15.87-46.62 28.67 -0.07-0.17-0.14-0.33-0.21-0.5 -10.24-24.91-21-49.64-30.65-74.78 2.71-10.17 7.65-20.5 12.01-30.12 2.33-5.14 5.74-9.75 7.84-15 1.74-4.35-0.27-8.02 0.31-12.64 0.66-5.17-0.05-20.59-9.91-14.56 -9.48 5.68-2.25 17.67-8.36 25.35 -1.7 2.14-6.59 7.87-9.96 6.81 -3.39-1.06-7.25-6.13-8.64-9.3 -4.22-9.63-2.78-19.73 4.46-26.96 6.3-3.16 15.81 10.74 21.38 1.11 2.19-3.8 1.32-6.64-2.59-8.54 -4.93-2.39-10.01-5.24-15.08-7.27 -9.44-3.67-17.57 0.12-23.1 8.1 -2.66 3.8-2.82 9.01-3.8 13.4 -0.2 0.95-2.7 12.72-5.29 6.33 -2.2-5.44-4.33-16.2-4.96-21.97 -1.49-5.96-2.56-14.64-4.35-26.45 -0.87-5.76-1.76-19.18-5.91-23.41 -2.2-2.24-6.87-3.05-9.38-0.88 -4.51 3.9-2.7 8.51-1.91 13.69l11.4 62.9c0 4.41 0.15 6.4-3.2 6.6 -3.34-12.02-7.33-24.69-11.8-36.39 -2.18-5.7-6.89-33.9-17.84-24.25 -5.66 4.99-0.85 11.65 1.14 17.15 2.51 6.91 4.83 14.08 7.3 21 2.47 6.93 5.24 13.94 7.3 21 1.63 5.58 6.02 9.95-1 12.5 -2.8-6.99-6.54-13.72-9.91-20.45 -2.22-4.45-6.26-17.48-11.79-17.95 -13.58-1.93 4.68 31.97 6.31 35.19 5.89 11.62 10.24 23.73 17.24 34.7 3.06 4.79 7.23 8.86 10.85 13.21 2.54 3.39 5.86 6.11 8.5 9.4 2.16 2.59 3.52 6.78 5.01 9.78 22.95 57.85 43.39 118.02 76.99 169.22 37 56.5 48.9 102.6 37.3 164.5 -9.9 52.5-26.2 114.3-37.1 169.2 17.6 1.8 32 3.3 55.5 5.8 0 41.6 0.9 83.8-0.3 125.9 -0.5 15.82 3.17 25.9 12.08 31.37 1.76 17.51 11.68 30.93 23.65 30.93 12.13 0 22.15-13.77 23.71-31.62 7.36-5.45 10.6-14.97 10.66-29.58 0.1-42.9 3.3-85.9 5.2-128.8 4.1-0.8 16.8-0.1 21.1-0.4 2 8.3 1.3 13.7 1.8 21.9 2.2 36.1 3.4 72.3 3.5 108.5 0.06 14.29 3.52 24.1 11.69 29.46 1.87 17.32 11.72 30.54 23.61 30.54 11.99 0 21.92-13.45 23.66-31 7.87-4.66 12.38-13.15 11.94-28.3 -1.1-42.2-0.3-84.4-0.3-128.3 21.1-2.5 36.6-4.4 54.4-6.5 -12-61.4-27.5-123.8-39.1-183.5l36.4 67.6c5.58 9.81 17.33 39.57 29.98 51.82 0.99 2.96 2.58 5.82 4.64 8.69 4.11 5.8 7.48 12.05 11.27 18.03 0.99 1.58 2.4 2.88 3.51 4.35 1.29 1.69 3.28 3.24 3.65 5.17 1.83 9.65 5.13 18.4 12.91 24.76 1.04 0.88 3 1.51 4.13 1.19 1.13-0.32 2.35-2.04 2.54-3.33 0.38-2.58-0.04-5.12-0.06-7.72 0-2.81-0.02-5.51 0.37-8.19C601.44 667.02 603.37 662.34 602.97 657.9z"/></g><g id="asl_kids"><g id="girl"><path fill="#DDE5CE" d="M142.51 125.02C143.61 124.62 142.31 124.52 142.51 125.02L142.51 125.02z"/><g id="Layer_1_1_"><g enable-background="new    "><path fill="#0990D3" d="M330.01 437.22c-2.6-0.8-6-1.2-10-1.2s-7.3 0.4-10 1.2c-0.6 0-1.1-0.2-1.5-0.6 -0.4-0.4-0.6-0.9-0.6-1.4 0-1.1 0.5-1.8 1.6-2 1.8-0.5 4.1-0.8 7-1 3.4-16.4 11.3-33.8 23.7-52.3 0.4-0.6 0.9-0.8 1.4-0.8 0.9 0 1.5 0.2 1.8 0.7 10.6 13.6 18.4 31.1 23.3 52.6 2.6 0.2 5.2 0.5 7.8 0.9 0.5 0.1 0.9 0.3 1.2 0.7 0.3 0.4 0.5 0.8 0.5 1.3s-0.2 1-0.7 1.4c-0.4 0.4-0.8 0.6-1.1 0.6 -0.4 0-1.1-0.1-2.3-0.3 -5-0.9-11.1-1.1-18.5-0.5 -2.2 0.2-3.8 0.3-4.9 0.5 -1.1 0.2-1.7 0.3-1.7 0.3 -0.1 0-0.2 0-0.5 0s-0.7-0.2-1.1-0.7c-0.4-0.4-0.6-0.9-0.6-1.4s0.2-0.9 0.5-1.3c0.3-0.4 0.9-0.6 1.6-0.8 0.7-0.2 1.7-0.3 2.7-0.4 1-0.1 2.1-0.2 3.2-0.4 -1.1-4.3-2.3-8.4-3.6-12.3 -4.5 0.6-8.7 1-12.4 1s-8.1-0.3-12.9-1c-1.4 4-2.5 8-3.3 12 3.2 0.1 6.5 0.5 9.7 1.2 0.5 0.1 0.8 0.3 1.1 0.7 0.3 0.4 0.4 0.8 0.4 1.4 0 0.5-0.2 1-0.7 1.4C330.91 437.02 330.51 437.22 330.01 437.22zM325.51 416.12c4.5 0.5 8.1 0.8 10.5 0.8 3.8 0 7.8-0.3 12.1-0.8 -2.8-8.6-6.6-16.4-11.3-23.3C332.21 400.82 328.41 408.62 325.51 416.12zM357.11 432.02l3.2-0.1h1.2c0.4 0 0.8 0 1.2 0.1 -4.5-19.3-11.4-35.2-20.5-47.7l-3 4.6c5.3 7.2 9.5 15.7 12.7 25.5C354.91 423.82 356.61 429.72 357.11 432.02z"/><path fill="#0990D3" d="M383.01 423.52c6 7.6 13.4 11.5 22.2 11.5 5.5 0 9.3-1.3 11.5-4 0.8-1 1.3-2.2 1.3-3.5s-0.3-2.4-0.9-3.4c-0.6-0.9-1.4-1.7-2.3-2.4 -0.9-0.7-2-1.3-3.2-1.9 -1.2-0.6-2.4-1-3.6-1.4 -1.9-0.7-3.9-1.2-5.9-1.6s-3.9-0.8-5.7-1.3c-1.8-0.5-3.5-1-5.1-1.7 -1.6-0.7-3.1-1.4-4.5-2.3 -1.4-0.9-2.6-2-3.6-3.2 -2.1-2.6-3.2-5.8-3.2-9.8 0-5.9 2.2-10.5 6.5-13.9 4-3.1 8.8-4.7 14.5-4.7 3.2 0 6.7 0.7 10.6 2 3.7 1.3 6.3 2.7 7.7 4.4 0.6-1.6 1.4-3.5 2.5-5.8 0.4-0.7 1-1.1 1.7-1.1s1.2 0.2 1.6 0.6c0.4 0.4 0.6 0.8 0.6 1.2 0 0.4-0.4 1.4-1.1 2.9 -0.7 1.5-1.5 3.7-2.4 6.5 -0.9 2.8-1.5 5.6-1.8 8.4 -0.1 0.5-0.3 0.9-0.6 1.2 -0.4 0.3-0.8 0.5-1.4 0.5 -0.6 0-1-0.2-1.4-0.7 -0.4-0.4-0.6-0.9-0.6-1.3v-0.2c0.3-2.7 0.9-5.4 1.6-8 -0.5-1.4-2.7-2.9-6.7-4.4s-7.5-2.3-10.7-2.3c-5.4 0-9 1.7-11 5 -0.7 1.1-1 2.5-1.1 4.2 0.3 3.7 2.6 6.5 7.1 8.3 2.2 0.9 4.3 1.6 6.4 2.1s4.1 0.9 5.9 1.3c1.8 0.4 3.9 1 6.2 1.8 2.4 0.8 4.4 1.8 6.2 3 3.9 2.7 5.8 6.7 5.8 12s-2.3 9.6-6.9 13c-4.2 3.1-8.8 4.6-14 4.6 -9 0-16.6-3.2-22.6-9.7v0.9c0 1.6 0.1 3.2 0.2 4.8v0.2c0 0.5-0.2 1-0.5 1.3 -0.3 0.4-0.8 0.6-1.4 0.6 -0.6 0-1.1-0.1-1.4-0.5 -0.4-0.4-0.6-0.9-0.7-1.6 -0.1-1.4-0.2-3.2-0.2-5.4 0-4.1 0.5-8.5 1.4-13.2 0.3-1.1 0.9-1.6 2-1.6 0.6 0 1.1 0.2 1.5 0.7 0.4 0.4 0.6 0.8 0.6 1.1v0.5c0 0.1 0 0.3-0.1 0.6 -0.1 0.3-0.2 0.7-0.3 1.2s-0.2 1-0.3 1.4C383.41 420.92 383.21 421.92 383.01 423.52zM384.51 394.22c-0.4 1.5-0.6 3-0.6 4.5s0.2 2.9 0.6 4.2c0.4 1.3 1.3 2.5 2.6 3.6 3 2.6 8.1 4.7 15.4 6.2 4.7 1 8.3 2.2 10.8 3.4 2.4 1.2 4.3 2.5 5.7 3.9 1.4 1.4 2.2 2.9 2.6 4.8 0.4-1 0.5-2.2 0.5-3.6 0-1.4-0.3-2.6-0.8-3.8 -0.5-1.2-1.2-2.2-2.1-3.1 -0.9-0.9-1.8-1.7-3-2.3 -1.1-0.7-2.3-1.2-3.5-1.7 -1.6-0.6-3.6-1.2-5.9-1.8 -2.3-0.6-4.3-1-5.9-1.5 -1.6-0.4-3.2-0.9-4.7-1.4s-3-1.1-4.4-1.8 -2.6-1.5-3.7-2.4C386.11 399.62 384.81 397.12 384.51 394.22z"/><path fill="#0990D3" d="M480.21 417.02l-3.2 18.2c-0.1 0.5-0.3 0.9-0.7 1.2 -0.4 0.3-0.8 0.4-1.3 0.4h-0.2c-4.2-0.4-10.8-0.6-19.9-0.6 -9.1 0-15.6 0.2-19.6 0.6h-0.2c-1.2 0-1.9-0.7-2-2 0-0.5 0.2-1 0.5-1.3 0.3-0.4 0.8-0.6 1.5-0.7 0.6-0.1 1.4-0.1 2.4-0.2 1-0.1 2-0.1 3.2-0.2l0.9-48.5c-2.2-0.2-4.4-0.4-6.7-0.7 -0.5-0.1-0.9-0.3-1.2-0.7 -0.3-0.4-0.5-0.9-0.4-1.4 0-0.6 0.2-1 0.6-1.4 0.4-0.3 0.8-0.5 1.3-0.5h0.2c4.9 0.7 9.6 1.1 14.3 1.1s8.3-0.1 10.8-0.4h0.2c0.6 0 1.1 0.2 1.5 0.6 0.4 0.4 0.6 0.9 0.6 1.4s-0.2 1-0.5 1.4c-0.4 0.4-0.9 0.6-1.6 0.6 -1.5 0.2-3.3 0.3-5.4 0.4l-1.3 47.8h1.1c7.8 0 13.9 0.2 18.4 0.5l2.8-16c0.1-0.5 0.3-0.9 0.7-1.2 0.4-0.3 0.8-0.5 1.3-0.5s1 0.2 1.4 0.6C480.01 416.02 480.21 416.52 480.21 417.02zM451.11 384.42h-2.8c-0.9 0-1.8 0-2.8-0.1l-0.8 48.1c0.8-0.1 1.7-0.1 2.5-0.1 0.9 0 1.7 0 2.6-0.1L451.11 384.42z"/></g><g enable-background="new    "><path fill="#CB394D" d="M360.31 528.92l3.5-0.4c0.7 0 1 0.3 1 1 0 1.2-0.8 2.1-2.5 2.7s-3.5 0.9-5.6 0.9c-3.9 0-7.2-1.6-9.9-4.7s-6.3-8.9-11.1-17.4c-1.1-1.8-1.7-3.2-1.7-4.2 0-1.3 1.8-2.8 5.5-4.6 5.9-3.1 8.9-6.9 8.9-11.5 0-1.3-0.5-2.4-1.4-3.3 -0.9-0.9-2.1-1.4-3.6-1.4 -2.1 0-4.6 2.5-7.5 7.4 -2.9 4.9-4.8 9.6-5.8 13.9 -1 4.3-1.5 9-1.5 13.9 0 2.4-0.7 3.7-2.1 3.7 -2 0-3.9-0.3-5.8-0.9 -1.8-0.6-2.7-1.3-2.7-2.2s0.3-5.1 1-12.4c0.7-7.4 1.1-12.7 1.2-15.9 0.3-17.8 1.4-31.4 3.1-40.8 0.3-0.8 1.5-2.1 3.6-4.1 2.1-1.9 3.9-2.9 5.2-2.9 1.3 0 1.9 1.6 1.9 4.9s-0.8 10.3-2.2 21c-1.4 10.7-2.3 20.5-2.6 29.4 1.6-5.6 4.1-10.9 7.5-15.8 3.4-5 6.9-7.5 10.4-7.5 5.9 0 8.9 2.9 8.9 8.6 0 3.8-1.1 7.3-3.4 10.4 -2.3 3.1-5.3 5.6-9.2 7.5 -0.8 0.3-1.2 0.7-1.2 1.2 0 0.4 0.1 0.9 0.4 1.3 5.5 9.7 10.2 16.5 14 20.4C357.91 528.42 359.11 528.92 360.31 528.92z"/><path fill="#CB394D" d="M371.71 525.02c-3.4 0-6-0.7-7.7-2.1 -0.6-0.6-0.9-2.8-0.9-6.5 0-3.8 0.3-10 0.9-18.8s1.1-13.5 1.5-14.2c0.4-0.7 1.8-2 4.1-3.9 2.3-1.9 4-2.9 5.3-2.9 1.3 0 1.9 1.7 1.9 5 0 0.9-0.2 2.6-0.7 5.1s-1 4.4-1.6 5.5c-1.1 2.9-1.7 10.4-1.7 22.6 0 2.4 0.3 3.5 0.8 3.5 1.5-0.1 3.5-1.9 6.1-5.6 2.6-3.6 5.2-8.3 7.8-13.9 2.6-5.7 4.1-8.5 4.7-8.5 0.6 0 0.9 0.3 0.9 1 0 2.4-1.3 6.3-3.8 11.6C382.21 517.62 376.41 525.02 371.71 525.02zM367.91 460.32c0-1.6 0.8-2.9 2.5-4.1 1.7-1.1 3.1-1.7 4.4-1.7 2.4 0 3.5 1.4 3.5 4.1s-0.7 5-2.1 7c-1.4 2-3.4 2.9-5.9 2.9C368.71 468.62 367.91 465.82 367.91 460.32z"/><path fill="#CB394D" d="M423.21 525.02c-3 0-5.3-0.7-6.9-2 -0.7-0.7-1-2.5-1-5.5s0.1-6.8 0.4-11.6c-2.4 6.3-4.8 11-7.2 14.3 -2.4 3.2-5.5 4.8-9.2 4.8s-6.8-1.6-9.4-4.8c-2.6-3.2-3.9-8.4-3.9-15.4 0-7.1 2-13.3 6-18.7 4-5.4 9.2-8.1 15.6-8.1 3.1 0 6.4 1.2 9.8 3.7 1.4-17 2.7-26.6 3.8-28.8 0.5-1 1.8-2.4 3.7-4.2 1.9-1.8 3.6-2.7 4.9-2.7s2 2.1 2 6.1c0 4.8-0.4 8.9-1.3 12.4 -2.4 9-3.8 14.7-4.4 17.1 -1.2 9.4-1.8 20.5-1.8 33.2 0 2.4 0.3 3.5 0.8 3.5 1.6-0.1 3.7-1.9 6.3-5.5 2.6-3.6 5.2-8.2 7.8-13.9 2.6-5.7 4.1-8.6 4.7-8.6 0.6 0 0.8 0.3 0.8 1 0 2.4-1.3 6.3-3.8 11.6C433.91 517.62 428.01 525.02 423.21 525.02zM406.71 482.62c-2.4 0-4.7 1.9-7.1 5.6 -2.4 3.8-3.5 8.1-3.5 13 0 4.9 0.6 9 1.9 12.1s2.9 4.7 4.8 4.7c3.9 0 8.4-7.9 13.5-23.6 0.4-4.8 0.7-7.6 0.7-8.5C414.41 483.72 411.01 482.62 406.71 482.62z"/><path fill="#CB394D" d="M456.91 484.32l0.3-2c0-1.6-0.9-2.4-2.7-2.4s-3.5 1.2-5.2 3.5c-1.7 2.3-2.5 4.2-2.5 5.7s0.1 2.7 0.3 3.5c0.2 0.9 0.4 1.6 0.6 2.2s0.6 1.2 1.1 2 0.9 1.4 1.2 1.7l1.4 1.8c0.6 0.9 1 1.4 1.3 1.7 4.5-3.8 9.9-7.9 16.2-12.6 0.3-0.3 0.7-0.4 1.2-0.4 0.9 0 1.3 0.5 1.3 1.4 0 1-0.4 1.7-1.2 2.2 -5.6 3.6-10.9 7.5-15.8 11.6 1.9 2.8 2.9 5.8 2.9 9.2 0 3.31-1.3 6.2-3.8 8.5 -2.5 2.4-5.8 3.5-9.7 3.5 -3.9 0-5.9-1.9-5.9-5.6 0-2.7 2.9-6.8 8.6-12.4 -0.4-0.5-1.2-1.4-2.4-2.6 -1.1-1.2-2-2.1-2.6-2.8s-1.2-1.6-2-2.7c-1.4-2.2-2.1-4.5-2.1-7.1 0-5.1 1.7-9.3 5-12.5 3.3-3.2 6.8-4.8 10.6-4.8 2.4 0 4.2 0.6 5.5 1.9s2 2.6 2 3.9c0 3-0.7 4.4-2.1 4.4C457.41 485.32 456.91 485.02 456.91 484.32zM448.51 510.02c-3.5 3.5-5.2 6.3-5.2 8.4 0 2.1 1.1 3.2 3.3 3.2 1.3 0 2.4-0.5 3.3-1.6C451.71 517.52 451.31 514.12 448.51 510.02z"/></g></g></g></g><g id="stars"><g id="Layer_1_4_"><g id="Layer_2_3_"><defs><path id="SVGID_2_" d="M0-3.5c157.83 3.29 315.65 6.58 473.48 9.86 85.88 1.79 171.75 3.58 257.63 5.37C773.39 12.61 768 10.11 768 52.03c0 328.16 0 656.32 0 984.47 -157.83-3.29-315.65-6.58-473.48-9.86 -85.88-1.79-171.75-3.58-257.63-5.37C-5.38 1020.39 0 1022.89 0 980.97 0 639.8 0 311.67 0-3.5z"/></defs><clipPath id="SVGID_3_"><use overflow="visible"/></clipPath><g id="Layer_4_1_" clip-path="url(#SVGID_3_)"><path fill="#0066B2" d="M900.3 499.4c105.6 60.3 194.6 135.5 274.8 210.8C1095.2 635 1006 559.7 900.3 499.4z"/></g></g><g id="Layer_1_5_"><g id="Layer_5_1_"><path fill="#87CCBE" d="M748.8 164.7c0.79 4.22-0.87 6.05-5 5.5 4.09-0.48 5.76 1.35 5 5.5 -0.84-4.27 0.82-6.1 5-5.5C749.61 170.74 747.94 168.9 748.8 164.7 748.6 169.9 748.8 169.9 748.8 164.7z"/><path fill="#87CCBE" d="M753.5 140.9c0.79 4.22-0.87 6.05-5 5.5 4.09-0.48 5.76 1.35 5 5.5 -0.84-4.27 0.82-6.1 5-5.5C754.31 146.94 752.64 145.1 753.5 140.9 753.3 146.1 753.5 146.1 753.5 140.9z"/><path fill="#87CCBE" d="M720.5 155c0.79 4.22-0.87 6.05-5 5.5 4.09-0.48 5.76 1.35 5 5.5 -0.84-4.27 0.82-6.1 5-5.5C721.31 161.04 719.64 159.2 720.5 155 720.3 160.2 720.5 160.2 720.5 155z"/><path fill="#87CCBE" d="M709.8 101.7c-1.62-8.35 1.68-11.99 9.9-10.9 -8.28 1.02-11.58-2.61-9.9-10.9 1.49 8.24-1.81 11.87-9.9 10.9C708.01 89.8 711.3 93.43 709.8 101.7 709.9 91.2 709.5 91.5 709.8 101.7z"/><path fill="#87CCBE" d="M728 209.1c1.42 8.2-1.88 11.83-9.9 10.9 15.44 0.63 4.3 0.85 19.81 0C729.62 221.02 726.32 217.39 728 209.1 727.5 219.3 728 219.3 728 209.1z"/><path fill="#87CCBE" d="M699.1 362.2c-0.79-4.18 0.87-5.98 5-5.4 -4.03 0.49-5.69-1.31-5-5.4 0.83 4.12-0.77 5.92-4.8 5.4C698.24 356.35 699.84 358.15 699.1 362.2 699.2 357 698.9 357.1 699.1 362.2z"/><path fill="#87CCBE" d="M595.3 337.4c-1.62-8.35 1.68-11.99 9.9-10.9 -8.28 1.02-11.58-2.61-9.9-10.9 1.46 8.22-1.84 11.85-9.9 10.9C593.47 325.52 596.77 329.15 595.3 337.4 595.4 326.9 594.9 327.2 595.3 337.4z"/><path fill="#BAE2D8" d="M42.1 267.5c0.49-32.55 4.64-39.44 37.3-41 -32.43-2.06-37.22-8.52-37.3-40.9 -1.24 31.5-5.04 39.62-37.3 40.9C37.04 227.79 40.87 236.04 42.1 267.5 42.7 227.9 40.6 229.3 42.1 267.5z"/><path fill="#87CCBE" d="M582.5 240.5C582.5 240.5 582.5 245.87 582.5 240.5 582.5 240.5 582.5 241.1 582.5 240.5z"/><path fill="#87CCBE" d="M575.3 296.8c-0.79-4.2 0.87-5.97 5-5.3 -3.99 0.42-5.66-1.38-5-5.4 0.79 4.05-0.81 5.85-4.8 5.4C574.48 291 576.08 292.77 575.3 296.8 575.4 291.6 575.2 291.9 575.3 296.8z"/><path fill="#87CCBE" d="M731.3 341.2c0.88 5.45-1.35 7.82-6.7 7.1 5.36-0.63 7.6 1.8 6.7 7.3 -1.15-5.55 1.01-7.98 6.5-7.3C732.34 349.04 730.18 346.67 731.3 341.2 730.9 347.9 731.3 347.9 731.3 341.2z"/><path fill="#87CCBE" d="M723.2 366.9c0.98 5.42-1.19 7.78-6.5 7.1 5.39-0.63 7.55 1.8 6.5 7.3 -1.02-5.57 1.21-8 6.7-7.3C724.37 374.79 722.14 372.42 723.2 366.9 723 373.6 723.2 373.6 723.2 366.9z"/><path fill="#87CCBE" d="M744.3 30.57c-5.45 0.62-7.62-1.81-6.5-7.3 1 5.45-1.16 7.89-6.5 7.3 5.39-0.63 7.56 1.8 6.5 7.3C736.66 32.25 738.83 29.82 744.3 30.57 738 30.17 738.1 30.77 744.3 30.57z"/><path fill="#87CCBE" d="M568.8 341.7c-0.79-4.18 0.87-5.98 5-5.4 -4.1 0.55-5.76-1.21-5-5.3 0.76 4.14-0.9 5.9-5 5.3C567.83 335.82 569.5 337.62 568.8 341.7 568.9 336.5 568.6 336.7 568.8 341.7z"/><path fill="#87CCBE" d="M498.2 133.3c-0.69 17.62-2.11 21.14-20 21.9 17.8 0.66 19.23 4.36 20 21.8 0.17-17.57 2.28-20.96 19.8-21.8C500.5 154.11 498.2 150.76 498.2 133.3 497.4 153.8 498.2 153.7 498.2 133.3z"/><path fill="#B3E2D6" d="M641.3 120.9c-0.69 17.39-2.04 21.14-19.8 21.8 17.72 0.67 19.12 4.56 19.8 21.9 0.17-17.62 2.26-20.97 19.8-21.9C643.62 141.61 641.3 138.37 641.3 120.9 640.5 141.2 641.3 141.3 641.3 120.9z"/><path fill="#87CCBE" d="M740.5 84.9c-0.69 17.39-2.04 21.14-19.8 21.8 17.72 0.67 19.12 4.56 19.8 21.9 0.17-17.62 2.26-20.97 19.8-21.9C742.85 105.62 740.5 102.32 740.5 84.9 739.7 105.2 740.5 105.2 740.5 84.9z"/><path fill="#A4D8CB" d="M560.6 84.5c0.41-25.55 3.62-30.81 29.2-32.1 -25.41-1.61-29.03-6.54-29.2-31.9 -0.91 24.62-3.76 30.98-29 31.9C556.84 53.42 559.69 59.88 560.6 84.5 561.1 53.5 559.5 54.6 560.6 84.5z"/><path fill="#87CCBE" d="M474.3 61.1c-16.3-1.03-25.29-1.45-25.9-19.6 -0.72 17.71-9.73 18.99-26 19.6 22.71 0.93 25.07 6.4 25.9 28.6C448.72 66.77 451.36 62.22 474.3 61.1 452.2 59.7 449.7 62.3 474.3 61.1z"/><path fill="#87CCBE" d="M550.3 113.7c-10.85 1.34-15.21-3.43-13.1-14.3 1.98 10.77-2.32 15.54-12.9 14.3 10.58-1.24 14.88 3.53 12.9 14.3C535.18 117.03 539.55 112.26 550.3 113.7 537.6 113 538 114.3 550.3 113.7z"/><path fill="#87CCBE" d="M637.9 204.2c1.09 6.37-1.48 9.2-7.7 8.5 6.22-0.7 8.79 2.13 7.7 8.5 -1.27-6.47 1.26-9.3 7.6-8.5C639.13 213.42 636.6 210.59 637.9 204.2 637.5 212.1 637.9 212.1 637.9 204.2z"/><path fill="#87CCBE" d="M650.3 185c1.09 6.37-1.48 9.2-7.7 8.5 6.23-0.7 8.79 2.13 7.7 8.5 -1.27-6.47 1.27-9.3 7.6-8.5C651.53 194.22 649 191.39 650.3 185 649.9 192.9 650.3 192.9 650.3 185z"/><path fill="#87CCBE" d="M593.8 124c-8.28 1.02-11.58-2.61-9.9-10.9 1.45 8.22-1.85 11.85-9.9 10.9 8.09-0.97 11.39 2.67 9.9 10.9C582.23 126.5 585.53 122.86 593.8 124 584.1 123.4 584.3 124.5 593.8 124z"/><path fill="#87CCBE" d="M720.6 106.3c-0.52 12.55-1.52 15.13-14.3 15.7 12.75 0.48 13.79 3.21 14.3 15.7 0.17-13.06 1.38-15.03 14.3-15.7C721.97 121.17 720.6 119.28 720.6 106.3 720 120.9 720.6 121 720.6 106.3z"/><path fill="#87CCBE" d="M686.4 108.5c-5.96 0.75-8.32-1.84-7.1-7.8 1.06 5.92-1.31 8.52-7.1 7.8 5.81-0.7 8.17 1.9 7.1 7.8C678.14 110.33 680.51 107.73 686.4 108.5 679.4 108.1 679.6 108.9 686.4 108.5z"/><path fill="#87CCBE" d="M543.3 158.7c0.74 4.14-0.92 5.94-5 5.4 4.01-0.5 5.68 1.3 5 5.4 -0.81-4.22 0.86-6.02 5-5.4C544.14 164.65 542.47 162.85 543.3 158.7 543.1 163.8 543.3 163.8 543.3 158.7z"/><path fill="#87CCBE" d="M527.3 192.7c0.74 4.14-0.92 5.94-5 5.4 4.01-0.5 5.68 1.3 5 5.4 -0.81-4.22 0.86-6.02 5-5.4C528.14 198.65 526.47 196.85 527.3 192.7 527.1 197.8 527.3 197.8 527.3 192.7z"/><path fill="#87CCBE" d="M626.7 93.2c0.67 4.08-1 5.85-5 5.3 4-0.47 5.66 1.33 5 5.4 0-5.2-0.2-5 0 0"/><path fill="#87CCBE" d="M607.5 95.5c0.81 4.08-0.79 5.88-4.8 5.4 4.01-0.48 5.61 1.32 4.8 5.4 -0.81-4.22 0.86-6.02 5-5.4C608.41 101.42 606.74 99.62 607.5 95.5 607.4 100.6 607.6 100.6 607.5 95.5z"/><path fill="#87CCBE" d="M517.8 94.6c0.74 4.14-0.92 5.94-5 5.4 3.98-0.48 5.65 1.32 5 5.4 -0.84-4.24 0.82-6.03 5-5.4C518.67 100.49 517.01 98.69 517.8 94.6 517.6 99.7 517.8 99.6 517.8 94.6z"/><path fill="#87CCBE" d="M512.2 91.5c0.17-14.31 1.5-16.63 15.7-17.3 -14.22-0.92-15.7-3.07-15.7-17.3 -0.52 13.83-1.59 16.73-15.7 17.3C510.5 74.77 511.69 77.73 512.2 91.5 512.4 74.8 511.6 75.4 512.2 91.5z"/><path fill="#BADBD3" d="M632.2 330.85c0.17-14.54 1.57-16.84 16-17.5 -14.37-0.92-16-2.95-16-17.4 -0.52 14.09-1.68 16.84-16 17.4C630.48 313.92 631.68 316.81 632.2 330.85 632.4 313.95 631.6 314.55 632.2 330.85z"/><path fill="#87CCBE" d="M595.25 221.4c-1.83-9.62 1.97-13.79 11.4-12.5 -9.43 1.14-13.23-3.03-11.4-12.5 1.7 9.39-2.07 13.55-11.3 12.5C593.2 207.81 596.97 211.98 595.25 221.4 595.45 209.3 594.85 209.8 595.25 221.4z"/><path fill="#87CCBE" d="M664.4 73.3c-1.84-9.62 1.96-13.79 11.4-12.5 -9.43 1.14-13.23-3.03-11.4-12.5 1.7 9.39-2.07 13.55-11.3 12.5C662.35 59.71 666.12 63.88 664.4 73.3 664.6 61.2 664 61.7 664.4 73.3z"/><path fill="#87CCBE" d="M401.6 91.1c-1.62-8.35 1.68-11.99 9.9-10.9 -8.28 1.02-11.58-2.61-9.9-10.9 1.49 8.24-1.81 11.87-9.9 10.9C399.77 79.22 403.07 82.85 401.6 91.1 401.7 80.6 401.2 80.9 401.6 91.1z"/><path fill="#87CCBE" d="M254.8 171.75c-0.6 17.42-2.06 21.14-19.8 21.9 17.8 0.66 19.2 4.35 19.8 21.8 0.33-17.62 2.39-20.97 20-21.8C257.26 192.48 254.97 189.3 254.8 171.75 254.1 192.05 255 192.25 254.8 171.75z"/><path fill="#87CCBE" d="M298.2 41.5C298.22 41 297.2 58.56 298.2 41.5 298.2 41.5 298.1 43.2 298.2 41.5z"/><path fill="#87CCBE" d="M316 20.5c-0.68 17.39-2.04 21.14-19.8 21.8 17.72 0.67 19.12 4.56 19.8 21.9 0.17-17.62 2.26-20.97 19.8-21.9C318.3 41.22 316 37.95 316 20.5 315.2 40.8 316 40.8 316 20.5z"/><path fill="#87CCBE" d="M467.5 93.5c-0.6 13.53-1.55 16.43-15.4 16.9 13.78 0.57 14.89 3.47 15.4 17 0.17-14.04 1.47-16.33 15.4-17C469 109.57 467.5 107.42 467.5 93.5 466.8 109.3 467.5 109.3 467.5 93.5z"/><path fill="#87CCBE" d="M224.8 51.2c-10.85 1.34-15.21-3.43-13.1-14.3 1.98 10.77-2.32 15.54-12.9 14.3 10.58-1.24 14.88 3.53 12.9 14.3C209.68 54.53 214.05 49.76 224.8 51.2 212.1 50.5 212.5 51.8 224.8 51.2z"/><path fill="#87CCBE" d="M296.25 113.7c1.42 8.2-1.88 11.83-9.9 10.9 8.02-0.93 11.32 2.7 9.9 10.9 -1.63-8.32 1.63-11.95 9.8-10.9C297.82 125.59 294.55 121.96 296.25 113.7 295.75 123.9 296.25 123.9 296.25 113.7z"/><path fill="#87CCBE" d="M301.8 158.4c-8.28 1.02-11.58-2.61-9.9-10.9 1.45 8.22-1.85 11.85-9.9 10.9 8.09-0.97 11.39 2.66 9.9 10.9C290.28 160.95 293.58 157.31 301.8 158.4 292.1 157.8 292.4 158.9 301.8 158.4z"/><path fill="#87CCBE" d="M68.8 266.5c0.75 4.14-0.92 5.94-5 5.4 4.01-0.5 5.68 1.3 5 5.4 -0.81-4.22 0.86-6.02 5-5.4C69.67 272.44 68.01 270.64 68.8 266.5 68.6 271.6 68.8 271.6 68.8 266.5z"/><path fill="#87CCBE" d="M318.4 93.3c-0.86-4.13 0.74-5.93 4.8-5.4 -4.03 0.5-5.63-1.26-4.8-5.3 0.67 4.08-1 5.85-5 5.3C317.43 87.42 319.1 89.22 318.4 93.3 318.4 88.1 318.2 88.3 318.4 93.3z"/><path fill="#87CCBE" d="M299.2 84.9c0.81 4.08-0.79 5.89-4.8 5.4 4.01-0.48 5.61 1.32 4.8 5.4 -0.81-4.22 0.86-6.02 5-5.4C300.11 90.82 298.44 89.02 299.2 84.9 299.1 90 299.3 90 299.2 84.9z"/><path fill="#87CCBE" d="M11.5 145.6c0.86 4.2-0.81 6.04-5 5.5 4.19-0.58 5.86 1.25 5 5.5 -0.76-4.2 0.91-6.03 5-5.5C12.37 151.65 10.71 149.82 11.5 145.6 11.5 150.8 11.7 150.8 11.5 145.6z"/><path fill="#87CCBE" d="M20.8 114.3c-4.12 0.5-5.79-1.33-5-5.5 0.86 4.2-0.81 6.04-5 5.5 4.19-0.58 5.86 1.25 5 5.5C15.04 115.65 16.71 113.82 20.8 114.3 16 114.1 16.1 114.5 20.8 114.3z"/><path fill="#87CCBE" d="M39.7 135.9c0.86 4.2-0.81 6.04-5 5.5 4.19-0.58 5.86 1.25 5 5.5 -0.76-4.2 0.91-6.03 5-5.5C40.61 141.94 38.94 140.1 39.7 135.9 39.7 141.1 39.9 141.1 39.7 135.9z"/><path fill="#87CCBE" d="M50.4 82.6c-1.45-8.22 1.85-11.85 9.9-10.9 -8.12 0.99-11.42-2.65-9.9-10.9 1.69 8.29-1.61 11.92-9.9 10.9C48.74 70.58 52.04 74.21 50.4 82.6 50.8 72.4 50.3 72 50.4 82.6z"/><path fill="#87CCBE" d="M57.5 312.1c-0.09 16.44-1.78 18.98-18.2 20 14.64 0.71 17.83 2.08 18.1 17.3 9.09-13.19-3.81-16.48 18.2-17.3C59.35 331.44 58.18 328 57.5 312.1 57.4 330.8 58.3 330.7 57.5 312.1z"/><path fill="#87CCBE" d="M148.6 325.2c-0.82-4.12 0.78-5.92 4.8-5.4 -3.99 0.45-5.59-1.35-4.8-5.4 0.83 4.15-0.84 5.95-5 5.4C147.75 319.18 149.41 320.98 148.6 325.2 148.7 320.1 148.5 319.9 148.6 325.2z"/><path fill="#87CCBE" d="M162 335c-0.66-4.08 1-5.85 5-5.3 -3.96 0.45-5.63-1.35-5-5.4 0.86 4.09-0.74 5.89-4.8 5.4C161.26 329.08 162.86 330.85 162 335 162.2 330 162 329.8 162 335z"/><path fill="#87CCBE" d="M149.7 337.6c-0.74-4.13 0.92-5.93 5-5.4 -4 0.47-5.66-1.33-5-5.4 0.85 4.19-0.82 5.99-5 5.4C148.79 331.63 150.46 333.43 149.7 337.6 149.9 332.5 149.6 332.4 149.7 337.6z"/><path fill="#87CCBE" d="M705 246.5c1.07 5.52-1.16 7.96-6.7 7.3 5.45-0.82 7.68 1.55 6.7 7.1 -0.98-5.42 1.19-7.78 6.5-7.1C706.18 254.4 704.01 251.97 705 246.5 705 253.3 705.3 253.3 705 246.5z"/><path fill="#87CCBE" d="M106.3 267.3c1.13 5.47-1.04 7.84-6.5 7.1 5.5-0.72 7.67 1.72 6.5 7.3 -0.88-5.47 1.36-7.9 6.7-7.3C107.65 275.12 105.42 272.75 106.3 267.3 106.3 274 106.7 274 106.3 267.3z"/><path fill="#87CCBE" d="M137 317.1c-5.32 0.67-7.49-1.7-6.5-7.1 1.06 5.52-1.17 7.89-6.7 7.1 5.48-0.72 7.71 1.71 6.7 7.3C129.46 318.93 131.63 316.5 137 317.1 130.8 316.9 130.8 317.4 137 317.1z"/><path fill="#87CCBE" d="M121.8 239.5c1.12 5.49-1.05 7.92-6.5 7.3 5.47-0.75 7.64 1.68 6.5 7.3 -1-5.45 1.16-7.88 6.5-7.3C123 247.37 120.83 244.93 121.8 239.5 121.8 246.3 122.1 246.3 121.8 239.5z"/><path fill="#87CCBE" d="M26.8 18.5c0 17.42-2.35 20.72-19.8 21.8 17.55 0.93 19.55 4.31 19.8 21.9 0.72-18.27 1.76-21.22 19.8-21.9C28.84 39.64 27.49 35.89 26.8 18.5 26.8 38.8 27.6 38.8 26.8 18.5z"/><path fill="#87CCBE" d="M122.3 201.1c1.3 6.39-1.23 9.22-7.6 8.5 6.34-0.8 8.87 2.03 7.6 8.5 -1.09-6.37 1.48-9.2 7.7-8.5C123.78 210.3 121.21 207.47 122.3 201.1 122.3 209 122.7 209 122.3 201.1z"/><path fill="#87CCBE" d="M109.9 181.9c1.3 6.39-1.23 9.22-7.6 8.5 6.34-0.8 8.87 2.03 7.6 8.5 -1.09-6.37 1.48-9.2 7.7-8.5C111.38 191.1 108.81 188.27 109.9 181.9 109.9 189.8 110.3 189.8 109.9 181.9z"/><path fill="#87CCBE" d="M108.1 112.9c-12.77-0.57-13.78-3.15-14.3-15.7 -0.09 12.98-1.46 14.87-14.4 15.7 13 0.57 14.14 2.64 14.4 15.7C94.31 116.08 95.38 113.47 108.1 112.9 94.6 112.3 94.7 113.5 108.1 112.9z"/><path fill="#87CCBE" d="M73.7 105.2c-1.06-5.92 1.31-8.52 7.1-7.8 -5.77 0.69-8.14-1.91-7.1-7.8 1.2 5.9-1.13 8.5-7 7.8C72.51 96.68 74.84 99.28 73.7 105.2 74 97.9 73.6 97.7 73.7 105.2z"/><path fill="#87CCBE" d="M95.8 54.2c-1.72-9.42 2.05-13.59 11.3-12.5 -9.23 1.14-13-3-11.3-12.4 1.8 9.41-2 13.58-11.4 12.5C93.84 40.43 97.64 44.56 95.8 54.2 96.2 42.6 95.6 42.1 95.8 54.2z"/></g></g></g></g><g id="star"><path fill="#B6DDD3" d="M235.81 82.01c20.68-23.1 21.23-22.22 43.09-5.14 -18.99-18.7-20.46-20.37-4.64-39.08l-0.23-0.2c-16.81 17.72-19.11 17.18-39.12 1.17C254.82 57.47 254.55 58.69 235.81 82.01z"/></g></svg>