
<svg version="1.1" xmlns="http://www.w3.org/2000/svg" xmlns:xlink="http://www.w3.org/1999/xlink" x="0px" y="0px" width="768px"
	 height="976px" viewBox="0 0 768 976" enable-background="new 0 0 768 976" xml:space="preserve">
	 
<refs>
	<style>
	
	#star path {
	-webkit-animation: fadein 4s infinite;
	-moz-animation: fadein 4s infinite;
	}

	#stargroup1 {
	-webkit-animation: fadein 6s infinite;
	-moz-animation: fadein 6s infinite;	
	}

	#stargroup2 {
	-webkit-animation: fadein 3s infinite;
	-moz-animation: fadein 3s infinite;	
	}


	
	@-moz-keyframes fadein {50% { opacity: 0.02;}}
	@-webkit-keyframes fadein {50% {opacity: 0.02;}}
	
	@-moz-keyframes dash {from {stroke-dashoffset: 1000;} to {stroke-dashoffset: 0;}}
	@-webkit-keyframes dash {from {stroke-dashoffset: 1000;} to {stroke-dashoffset: 0;}}

	@-moz-keyframes fadered {from {fill-opacity: 0;} to {fill-opacity: 1;}}
	@-webkit-keyframes fadered {from {fill-opacity: 0;} to {fill-opacity: 1;}}
	
	</style>
</refs>	 
	 
	 
<g id="background">
	<g id="Layer_3">
		<g id="Layer_6">
			
				<linearGradient id="backgroundcolor_1_" gradientUnits="userSpaceOnUse" x1="1718" y1="227.9995" x2="1717.9999" y2="-795.9995" gradientTransform="matrix(1 0 0 1 -1334 796)">
				<stop  offset="0" style="stop-color:#65BCAB"/>
				<stop  offset="1" style="stop-color:#409D8B"/>
			</linearGradient>
			<rect id="backgroundcolor" fill="url(#backgroundcolor_1_)" width="768" height="1024"/>
		</g>
	</g>
</g>
<g id="spotlight">
	<g id="Layer_7">
		<ellipse fill="#409D8B" cx="393.6" cy="848.957" rx="205" ry="131"/>
	</g>
</g>
<g id="rainbow">
</g>
<g id="Layer_9">
	<g>
		<path fill="#0990D3" d="M0,383.557v80.244c190.18-71.017,372.436-92.974,528.053-80.937c85.7,6.727,166.333,24.21,241.206,48.93
			v-22.958c-73.552-27.837-152.758-49.299-237.31-61.069C373.395,325.587,191.635,337.288,0,383.557z"/>
		<path fill="#BBD367" d="M0,463.801v68.249c186.135-87.927,369.939-118.478,524.05-115.883
			c86.976,1.448,169.049,15.085,245.209,36.984v-21.357c-74.873-24.719-155.506-42.203-241.206-48.93
			C372.436,370.827,190.18,392.784,0,463.801z"/>
		<path fill="#F6C063" d="M0,532.05v59.581c182.5-98.238,364.479-136.787,515.05-142.363c90.555-3.36,175.688,7.037,254.209,26.527
			v-22.644c-76.16-21.899-158.233-35.536-245.209-36.984C369.939,413.572,186.135,444.123,0,532.05z"/>
		<path fill="#D69D3C" d="M515.05,449.268C364.479,454.844,182.5,493.393,0,591.631v54.41
			C180.25,544.72,354.996,493.462,501.85,480.167c95.079-8.623,184.96-1.448,267.409,15.963v-20.335
			C690.738,456.305,605.604,445.907,515.05,449.268C364.479,454.844,605.604,445.907,515.05,449.268z"/>
		<path fill="#EA5F72" d="M501.85,480.167C354.996,493.462,180.25,544.72,0,646.041v43.451
			c173.384-101.814,344.149-155.78,486.649-176.025c99.923-14.136,195.353-10.417,282.609,4.966V496.13
			C686.81,478.719,596.929,471.544,501.85,480.167C354.996,493.462,596.929,471.544,501.85,480.167z"/>
		<path fill="#CB394D" d="M486.649,513.467C344.149,533.712,173.384,587.678,0,689.492v40.549
			c163.868-99.146,328.231-154.888,466.05-180.374c108.055-19.961,210.079-19.973,303.209-6.586v-24.648
			C682.002,503.05,586.572,499.331,486.649,513.467C344.149,533.712,586.572,499.331,486.649,513.467z"/>
	</g>
</g>
<g id="girl_1_">
	<g>
		<path fill="#DDE5CE" d="M606.159,649.203c-1.333-12.523-2.631-25.544-8.978-36.612c-1.851-3.213-3.414-5.735-4.727-7.839
			c2.399-5.209,3.418-10.234,2.521-13.221c-20.3-65.4-56.9-170.2-81.8-234c-4.9-12.5-22-25.5-35.604-28.4
			c-32.6-7-66.396-10.5-99.7-11c-44.713-0.607-74.143-10.224-96.482-35.622c0.969-20.174,7.789-40.169,21.277-55.437
			c9.854,42.112,44.669,77.658,86.108,77.658c41.044,0,75.696-34.942,85.87-76.672c16.521,19.348,22.722,45.942,19.927,70.872
			c46.614-1.278,55.8-77.013-16.938-92.94c0.025-0.919,0.041-1.839,0.041-2.759c0-51.601-39.8-93.5-88.9-93.5
			c-49.099,0-88.898,41.899-88.898,93.5c0,0.845,0.012,1.69,0.033,2.534c-23.368,4.879-38.434,15.873-46.625,28.669
			c-0.07-0.169-0.141-0.334-0.211-0.504c-10.246-24.908-21.005-49.644-30.65-74.779c2.715-10.168,7.646-20.503,12.011-30.121
			c2.334-5.144,5.741-9.749,7.841-15c1.741-4.349-0.274-8.024,0.312-12.637c0.658-5.175-0.055-20.588-9.911-14.562
			c-9.478,5.683-2.253,17.668-8.363,25.35c-1.7,2.139-6.592,7.866-9.962,6.812c-3.395-1.062-7.248-6.131-8.639-9.3
			c-4.221-9.626-2.778-19.732,4.464-26.962c6.296-3.156,15.813,10.739,21.377,1.11c2.192-3.796,1.319-6.645-2.593-8.539
			c-4.935-2.389-10.008-5.24-15.084-7.271c-9.443-3.671-17.572,0.12-23.101,8.1c-2.659,3.802-2.823,9.009-3.8,13.4
			c-0.204,0.954-2.699,12.72-5.288,6.325c-2.203-5.444-4.328-16.196-4.961-21.976c-1.492-5.962-2.562-14.645-4.351-26.451
			c-0.873-5.756-1.766-19.185-5.912-23.406c-2.204-2.244-6.875-3.051-9.382-0.882c-4.508,3.901-2.704,8.513-1.907,13.689l11.4,62.9
			c0,4.414,0.149,6.399-3.2,6.6c-3.337-12.017-7.333-24.686-11.804-36.393c-2.178-5.702-6.894-33.896-17.838-24.252
			c-5.661,4.988-0.854,11.651,1.142,17.145c2.512,6.913,4.829,14.078,7.3,21c2.474,6.93,5.235,13.938,7.3,21
			c1.631,5.582,6.019,9.946-1,12.5c-2.8-6.994-6.543-13.725-9.908-20.453c-2.223-4.446-6.257-17.484-11.792-17.947
			c-13.576-1.933,4.679,31.971,6.311,35.188c5.889,11.617,10.239,23.73,17.241,34.7c3.059,4.791,7.227,8.863,10.85,13.212
			c2.542,3.393,5.863,6.106,8.5,9.399c2.158,2.589,3.519,6.774,5.007,9.773c22.951,57.85,43.386,118.018,76.989,169.228
			c37,56.5,48.9,102.604,37.3,164.5c-9.899,52.5-26.2,114.3-37.101,169.2c17.601,1.8,32,3.3,55.5,5.8c0,41.604,0.9,83.8-0.299,125.9
			c-0.497,15.817,3.167,25.897,12.08,31.37c1.758,17.515,11.677,30.93,23.652,30.93c12.131,0,22.146-13.771,23.71-31.619
			c7.358-5.45,10.6-14.967,10.656-29.581c0.1-42.896,3.3-85.896,5.199-128.8c4.101-0.8,16.801-0.1,21.101-0.4
			c2,8.304,1.3,13.7,1.8,21.9c2.2,36.1,3.4,72.3,3.5,108.5c0.063,14.293,3.52,24.101,11.694,29.46
			c1.866,17.322,11.723,30.54,23.608,30.54c11.991,0,21.922-13.45,23.661-30.998c7.872-4.661,12.375-13.15,11.939-28.302
			c-1.104-42.2-0.3-84.4-0.3-128.3c21.1-2.5,36.6-4.4,54.396-6.5c-12-61.4-27.5-123.804-39.1-183.5l36.402,67.6
			c5.583,9.815,17.328,39.566,29.979,51.819c0.989,2.955,2.583,5.816,4.64,8.69c4.106,5.799,7.48,12.049,11.274,18.027
			c0.992,1.576,2.405,2.875,3.506,4.354c1.285,1.694,3.282,3.236,3.649,5.168c1.831,9.652,5.134,18.403,12.908,24.759
			c1.041,0.875,3.001,1.51,4.126,1.188c1.126-0.323,2.351-2.042,2.538-3.332c0.379-2.58-0.043-5.119-0.062-7.723
			c-0.005-2.808-0.02-5.515,0.37-8.194C604.625,658.318,606.555,653.641,606.159,649.203z"/>
		<path fill="#DDE5CE" d="M148.477,117.331C149.578,116.931,148.277,116.831,148.477,117.331L148.477,117.331z"/>
	</g>
</g>
<g id="logo">
	<g id="girl">
		<g id="Layer_1_1_">
			<g enable-background="new    ">
				<path fill="#0990D3" d="M331.95,423.616c-2.6-0.804-6-1.2-10-1.2s-7.3,0.396-10,1.2c-0.6,0-1.1-0.2-1.5-0.604
					c-0.4-0.396-0.6-0.896-0.6-1.396c0-1.104,0.5-1.804,1.6-2c1.8-0.5,4.1-0.804,7-1c3.4-16.4,11.3-33.804,23.7-52.304
					c0.399-0.6,0.899-0.8,1.399-0.8c0.9,0,1.5,0.2,1.801,0.7c10.6,13.6,18.399,31.1,23.3,52.6c2.6,0.2,5.2,0.5,7.8,0.9
					c0.5,0.1,0.9,0.3,1.2,0.7c0.3,0.396,0.5,0.8,0.5,1.3s-0.2,1-0.7,1.4c-0.4,0.396-0.8,0.6-1.1,0.6c-0.4,0-1.101-0.1-2.301-0.3
					c-5-0.9-11.1-1.104-18.5-0.5c-2.199,0.2-3.8,0.3-4.899,0.5c-1.101,0.2-1.7,0.3-1.7,0.3c-0.1,0-0.2,0-0.5,0s-0.7-0.2-1.1-0.7
					c-0.4-0.396-0.601-0.896-0.601-1.396s0.2-0.9,0.5-1.304c0.3-0.396,0.9-0.6,1.601-0.8c0.699-0.2,1.699-0.3,2.699-0.396
					c1-0.104,2.101-0.2,3.2-0.4c-1.1-4.3-2.3-8.4-3.6-12.3c-4.5,0.6-8.7,1-12.4,1s-8.1-0.3-12.899-1c-1.4,4-2.5,8-3.301,12
					c3.2,0.1,6.5,0.5,9.7,1.2c0.5,0.1,0.8,0.3,1.101,0.696c0.3,0.4,0.399,0.804,0.399,1.4c0,0.5-0.2,1-0.7,1.4
					C332.85,423.416,332.45,423.616,331.95,423.616z M327.45,402.515c4.5,0.5,8.1,0.8,10.5,0.8c3.8,0,7.8-0.3,12.1-0.8
					c-2.8-8.6-6.6-16.396-11.3-23.3C334.15,387.215,330.35,395.015,327.45,402.515z M359.049,418.416l3.2-0.104h1.2
					c0.4,0,0.8,0,1.2,0.104c-4.5-19.3-11.4-35.2-20.5-47.7l-3,4.6c5.3,7.2,9.5,15.7,12.7,25.5
					C356.85,410.215,358.549,416.116,359.049,418.416z"/>
				<path fill="#0990D3" d="M384.949,409.916c6,7.6,13.4,11.5,22.201,11.5c5.5,0,9.299-1.3,11.5-4c0.799-1,1.299-2.2,1.299-3.5
					s-0.299-2.4-0.9-3.4c-0.6-0.896-1.396-1.7-2.299-2.396c-0.9-0.7-2-1.304-3.201-1.9c-1.199-0.6-2.396-1-3.6-1.399
					c-1.9-0.697-3.9-1.197-5.9-1.601s-3.896-0.8-5.699-1.3c-1.801-0.5-3.5-1-5.1-1.7s-3.1-1.399-4.5-2.3s-2.6-2-3.6-3.2
					c-2.102-2.6-3.201-5.8-3.201-9.8c0-5.9,2.201-10.5,6.5-13.9c4-3.1,8.801-4.699,14.5-4.699c3.201,0,6.701,0.699,10.6,2
					c3.701,1.303,6.301,2.699,7.701,4.399c0.6-1.6,1.4-3.5,2.5-5.8c0.4-0.7,1-1.104,1.699-1.104c0.701,0,1.201,0.2,1.6,0.604
					c0.4,0.396,0.604,0.8,0.604,1.2c0,0.396-0.4,1.396-1.104,2.896c-0.695,1.5-1.5,3.7-2.396,6.5c-0.9,2.8-1.5,5.604-1.803,8.4
					c-0.1,0.5-0.301,0.896-0.6,1.2c-0.4,0.3-0.801,0.5-1.4,0.5s-1-0.2-1.396-0.7c-0.398-0.4-0.604-0.9-0.604-1.3v-0.2
					c0.303-2.7,0.9-5.4,1.604-8c-0.5-1.4-2.701-2.9-6.701-4.4s-7.5-2.3-10.697-2.3c-5.398,0-9,1.7-11,5c-0.699,1.1-1,2.5-1.102,4.2
					c0.299,3.7,2.602,6.5,7.102,8.3c2.197,0.9,4.301,1.6,6.398,2.1c2.096,0.5,4.102,0.9,5.896,1.304c1.803,0.396,3.9,1,6.199,1.8
					c2.4,0.8,4.4,1.8,6.201,3c3.9,2.7,5.799,6.7,5.799,12s-2.299,9.6-6.896,13c-4.199,3.1-8.803,4.6-14,4.6
					c-9,0-16.604-3.199-22.6-9.699v0.899c0,1.601,0.1,3.2,0.199,4.8v0.2c0,0.5-0.199,1-0.5,1.3c-0.299,0.4-0.799,0.604-1.4,0.604
					c-0.599,0-1.099-0.104-1.399-0.5c-0.399-0.4-0.601-0.9-0.7-1.604c-0.1-1.396-0.199-3.199-0.199-5.396
					c0-4.104,0.5-8.5,1.399-13.2c0.3-1.103,0.899-1.603,2-1.603c0.6,0,1.1,0.199,1.5,0.699c0.398,0.4,0.602,0.801,0.602,1.104v0.5
					c0,0.1,0,0.3-0.102,0.6s-0.201,0.7-0.301,1.2s-0.199,1-0.301,1.397C385.35,407.315,385.15,408.315,384.949,409.916z
					 M386.449,380.616c-0.4,1.5-0.6,3-0.6,4.5s0.199,2.896,0.6,4.196c0.4,1.304,1.301,2.5,2.6,3.604c3,2.6,8.104,4.7,15.4,6.2
					c4.701,1,8.301,2.196,10.801,3.396c2.4,1.2,4.299,2.5,5.699,3.9c1.4,1.396,2.201,2.896,2.6,4.8c0.4-1,0.5-2.2,0.5-3.601
					c0-1.399-0.299-2.603-0.799-3.803c-0.5-1.197-1.201-2.197-2.1-3.1c-0.9-0.9-1.801-1.7-3-2.3c-1.102-0.7-2.301-1.2-3.5-1.7
					c-1.602-0.602-3.602-1.2-5.9-1.8c-2.301-0.604-4.301-1-5.9-1.5c-1.6-0.4-3.197-0.9-4.697-1.4s-3-1.1-4.398-1.8
					s-2.602-1.5-3.699-2.4C388.049,386.015,386.75,383.515,386.449,380.616z"/>
				<path fill="#0990D3" d="M482.15,403.416l-3.201,18.2c-0.1,0.5-0.299,0.896-0.699,1.196c-0.396,0.304-0.801,0.4-1.301,0.4h-0.199
					c-4.201-0.4-10.801-0.6-19.896-0.6c-9.104,0-15.604,0.196-19.604,0.6h-0.201c-1.195,0-1.896-0.7-2-2c0-0.5,0.201-1,0.5-1.3
					c0.305-0.4,0.805-0.604,1.5-0.7c0.604-0.1,1.4-0.1,2.4-0.2c1-0.1,2-0.1,3.201-0.2l0.896-48.5
					c-2.197-0.196-4.396-0.396-6.697-0.696c-0.5-0.104-0.9-0.304-1.199-0.7c-0.301-0.4-0.5-0.9-0.4-1.4c0-0.6,0.199-1,0.604-1.396
					c0.396-0.304,0.799-0.5,1.299-0.5h0.201c4.896,0.696,9.6,1.1,14.299,1.1c4.701,0,8.301-0.1,10.801-0.4h0.199
					c0.6,0,1.1,0.2,1.5,0.604c0.396,0.396,0.6,0.896,0.6,1.396s-0.199,1-0.5,1.4c-0.396,0.4-0.896,0.6-1.6,0.6
					c-1.5,0.2-3.299,0.304-5.4,0.4l-1.299,47.8h1.1c7.803,0,13.9,0.2,18.4,0.5l2.799-16c0.104-0.5,0.301-0.896,0.701-1.2
					c0.4-0.3,0.799-0.5,1.299-0.5s1,0.2,1.4,0.604C481.949,402.416,482.15,402.916,482.15,403.416z M453.049,370.815h-2.799
					c-0.896,0-1.801,0-2.801-0.1l-0.799,48.1c0.799-0.1,1.699-0.1,2.5-0.1c0.896,0,1.699,0,2.6-0.1L453.049,370.815z"/>
			</g>
		</g>
	</g>
</g>
<g id="kids">
	<g>
		<path fill="#CB394D" stroke="#CB394D" stroke-width="2" stroke-miterlimit="10" d="M367.698,516.616l-3.5,0.396
			c-1.201,0-2.4-0.5-3.701-1.803c-3.799-3.896-8.5-10.699-14-20.396c-0.299-0.402-0.398-0.902-0.398-1.303
			c0-0.5,0.398-0.896,1.199-1.197c3.9-1.9,6.9-4.4,9.199-7.5c2.301-3.1,3.4-6.6,3.4-10.4c0-5.703-3-8.6-8.9-8.6
			c-3.5,0-7,2.5-10.398,7.5c-3.4,4.899-5.9,10.197-7.5,15.8c0.299-8.901,1.199-18.701,2.6-29.401s2.199-17.703,2.199-21
			s-0.6-4.896-1.9-4.896c-1.299,0-3.1,1-5.199,2.896c-2.1,2-3.301,3.3-3.6,4.104c-1.701,9.399-2.801,23-3.1,40.799
			c-0.102,3.201-0.5,8.5-1.201,15.896c-0.699,7.301-1,11.5-1,12.4s0.9,1.598,2.701,2.201c1.898,0.596,3.799,0.896,5.799,0.896
			c1.4,0,2.1-1.301,2.1-3.697c0-4.9,0.5-9.604,1.5-13.9s2.9-9,5.801-13.9c2.9-4.896,5.4-7.396,7.5-7.396c1.5,0,2.699,0.5,3.6,1.396
			c0.9,0.903,1.4,2,1.4,3.304c0,4.6-3,8.397-8.9,11.5c-3.699,1.799-5.5,3.299-5.5,4.6c0,1,0.6,2.4,1.701,4.199
			c4.799,8.5,8.398,14.297,11.1,17.396c2.699,3.102,6,4.701,9.9,4.701c2.1,0,3.898-0.297,5.6-0.896c1.699-0.602,2.5-1.5,2.5-2.701
			C368.698,516.917,368.397,516.616,367.698,516.616z"/>
		<path fill="#CB394D" stroke="#CB394D" stroke-width="2" stroke-miterlimit="10" d="M374.198,456.614c2.5,0,4.5-0.9,5.9-2.9
			c1.398-2,2.1-4.297,2.1-7s-1.1-4.1-3.5-4.1c-1.301,0-2.701,0.597-4.4,1.7c-1.699,1.199-2.5,2.5-2.5,4.1
			C371.798,453.914,372.599,456.713,374.198,456.614z"/>
		<path fill="#CB394D" stroke="#CB394D" stroke-width="2" stroke-miterlimit="10" d="M473.997,477.114c-0.5,0-0.896,0.097-1.195,0.396
			c-6.305,4.704-11.701,8.803-16.201,12.604c-0.299-0.301-0.699-0.801-1.299-1.701l-1.4-1.799c-0.301-0.301-0.701-0.9-1.201-1.701
			c-0.5-0.799-0.896-1.402-1.1-2c-0.203-0.596-0.402-1.299-0.604-2.2c-0.195-0.8-0.299-2-0.299-3.5s0.799-3.396,2.5-5.7
			c1.699-2.3,3.4-3.5,5.199-3.5c1.801,0,2.701,0.801,2.701,2.4l-0.301,2c0,0.7,0.5,1,1.504,0.791c1.398,0,2.1-1.397,2.1-4.397
			c0-1.299-0.701-2.603-2-3.899c-1.301-1.297-3.1-1.899-5.5-1.899c-3.801,0-7.301,1.603-10.6,4.803c-3.305,3.197-5,7.396-5,12.5
			c0,2.421,0.614,4.581,1.829,6.644c-0.009,0.02-0.018,0.038-0.026,0.058c-2.604,5.701-5.201,10.301-7.801,13.9
			c-2.604,3.6-4.699,5.4-6.303,5.5c-0.5,0-0.801-1.1-0.801-3.5c0-12.699,0.604-23.799,1.801-33.2c0.6-2.399,2-8.1,4.4-17.1
			c0.902-3.5,1.299-7.601,1.299-12.4c0-4-0.703-6.1-2-6.1s-3,0.896-4.896,2.7c-1.9,1.8-3.199,3.196-3.699,4.196
			c-1.102,2.2-2.402,11.804-3.801,28.804c-3.402-2.5-6.699-3.7-9.801-3.7c-6.402,0-11.602,2.703-15.602,8.1
			c-3.384,4.569-5.32,9.718-5.841,15.492c-2.154,4.377-4.308,8.126-6.462,11.112c-2.602,3.699-4.602,5.5-6.102,5.6
			c-0.5,0-0.799-1.1-0.799-3.5c0-12.203,0.6-19.703,1.699-22.6c0.6-1.104,1.1-3,1.6-5.5s0.701-4.203,0.701-5.104c0-3.3-0.6-5-1.9-5
			s-3,1-5.301,2.9c-2.299,1.896-3.699,3.2-4.1,3.896c-0.4,0.7-0.9,5.4-1.5,14.2c-0.6,8.801-0.9,15-0.9,18.801
			c0,3.699,0.301,5.9,0.9,6.5c1.701,1.402,4.301,2.104,7.701,2.104c3.994,0,8.787-5.367,14.492-15.995
			c0.435,4.9,1.661,8.676,3.707,11.194c2.6,3.197,5.699,4.801,9.4,4.801c3.699,0,6.799-1.604,9.199-4.801
			c2.4-3.303,4.801-8,7.201-14.303c-0.301,4.803-0.4,8.604-0.4,11.604s0.299,4.799,1,5.5c1.6,1.299,3.9,2,6.9,2
			c4.799,0,10.699-7.4,17.705-22.102c0.17-0.361,0.321-0.7,0.48-1.048c0.039,0.047,0.078,0.1,0.117,0.146
			c0.6,0.701,1.5,1.6,2.6,2.801c1.199,1.203,2,2.1,2.4,2.6c-5.703,5.6-8.6,9.699-8.6,12.4c0,3.703,2,5.6,5.896,5.6
			c3.9,0,7.199-1.1,9.699-3.5c2.5-2.301,3.801-5.197,3.801-8.5c0-3.396-1-6.396-2.896-9.197c4.898-4.104,10.195-8,15.799-11.603
			c0.801-0.5,1.201-1.2,1.201-2.2C475.302,477.614,474.897,477.114,473.997,477.114z M420.194,482.513
			c-5.102,15.703-9.602,23.604-13.5,23.604c-1.902,0-3.502-1.6-4.799-4.699s-1.898-7.203-1.898-12.1c0-4.9,1.102-9.201,3.5-13
			c2.4-3.703,4.701-5.604,7.102-5.604c4.299,0,7.699,1.101,10.297,3.3C420.896,474.914,420.593,477.713,420.194,482.513z
			 M453.802,508.11c-0.904,1.1-2,1.6-3.305,1.6c-2.195,0-3.299-1.096-3.299-3.199c0-2.098,1.699-4.896,5.199-8.396
			C455.198,502.214,455.599,505.614,453.802,508.11z"/>
	</g>
</g>
<g id="stargroup1">
	<g id="Layer_1_2_">
		<g id="Layer_5">
			<g>
				<path fill="#87CCBE" d="M748.8,152.2c-0.2,5.2-0.2,5.4-5,5.5c4.7,0.2,4.9,0.4,5,5.5c0.103-5.4,0.2-5.3,5-5.5
					C748.899,157.4,748.8,157.4,748.8,152.2z"/>
				<path fill="#87CCBE" d="M753.5,128.4c-0.2,5.2-0.2,5.4-5,5.5c4.7,0.2,4.899,0.4,5,5.5c0.1-5.4,0.2-5.3,5-5.5
					C753.6,133.6,753.5,133.6,753.5,128.4z"/>
				<path fill="#87CCBE" d="M720.5,142.5c-0.2,5.2-0.2,5.4-5,5.5c4.7,0.2,4.899,0.4,5,5.5c0.1-5.4,0.2-5.3,5-5.5
					C720.6,147.7,720.5,147.7,720.5,142.5z"/>
				<path fill="#87CCBE" d="M709.8,89.2c0.103-10.5,0.5-10.4,9.9-10.9c-9.7-0.6-9.9-0.7-9.9-10.9c-0.397,10.2-0.5,10.5-9.897,10.9
					C709.2,78.6,709.5,79,709.8,89.2z"/>
				<path fill="#87CCBE" d="M728,196.6c-0.5,10.2-0.601,10.5-9.9,10.9c7.303,0.3,8.9,0.6,9.604,5.5h0.6c0.5-5.1,2.3-5.1,9.603-5.5
					C728.2,206.9,728,206.8,728,196.6z"/>
				<path fill="#87CCBE" d="M727.8,196.4c-9.7-0.6-9.897-0.7-9.897-10.9c-0.399,10.2-0.603,10.5-9.899,10.9
					c9.3,0.4,9.6,0.7,9.899,10.9C717.899,196.7,718.3,196.8,727.8,196.4z"/>
				<path fill="#87CCBE" d="M705,358.8c-0.101,5.104-0.2,5.2-4.8,5.4c4.6,0.1,4.699,0.396,4.8,5.396c0.1-5.3,0.2-5.196,5-5.396
					C705.1,363.8,705,363.8,705,358.8z"/>
				<path fill="#87CCBE" d="M691.6,368.7c-0.197,5.1-0.396,5.2-5,5.396c4.604,0.104,4.7,0.4,5,5.304c0-5.2,0.2-5.2,4.803-5.304
					C691.7,373.8,691.6,373.8,691.6,368.7z"/>
				<path fill="#87CCBE" d="M703.899,371.1c-0.199,5.104-0.199,5.2-5,5.4c4.697,0.2,4.697,0.4,5,5.4c0.101-5.2,0.197-5.2,5-5.4
					C704,376.3,703.899,376.2,703.899,371.1z"/>
				<path fill="#87CCBE" d="M699.1,349.7c0.104-5.2,0.2-5.2,5-5.4c-4.697-0.2-4.8-0.396-5-5.396c-0.1,5.1-0.197,5.3-4.8,5.396
					C698.8,344.5,698.899,344.6,699.1,349.7z"/>
				<path fill="#87CCBE" d="M595.3,324.9c0.103-10.5,0.5-10.4,9.9-10.9c-9.7-0.6-9.9-0.7-9.9-10.9c-0.397,10.2-0.6,10.5-9.897,10.9
					C594.7,314.3,594.899,314.7,595.3,324.9z"/>
				<path fill="#87CCBE" d="M580.399,305.5c0.101-10.5,0.5-10.4,9.897-10.9c-9.7-0.6-9.897-0.7-9.897-10.8
					c-0.399,10-0.603,10.4-9.899,10.8C579.8,295,580,295.3,580.399,305.5z"/>
				<path fill="#87CCBE" d="M582.5,228h-0.2c0.103,0.6,0.103,1.3,0.103,2.1C582.5,229.3,582.5,228.6,582.5,228z"/>
				<path fill="#87CCBE" d="M575.3,284.3c0.103-5.2,0.2-5.2,5-5.3c-4.7-0.4-4.8-0.4-5-5.4c-0.1,5-0.2,5.2-4.8,5.4
					C575.1,279.1,575.2,279.4,575.3,284.3z"/>
				<path fill="#87CCBE" d="M731.3,328.7c-0.397,6.7-0.397,6.896-6.7,7.1c6.2,0.2,6.303,0.5,6.7,7.3c0-7,0.2-6.896,6.5-7.3
					C731.399,335.5,731.3,335.4,731.3,328.7z"/>
				<path fill="#87CCBE" d="M723.2,354.4c-0.2,6.696-0.4,6.896-6.5,7.1c6.199,0.2,6.3,0.5,6.5,7.3c0.1-7,0.396-6.896,6.699-7.3
					C723.399,361.2,723.2,361.1,723.2,354.4z"/>
				<path fill="#87CCBE" d="M722.3,308.2c-6.3-0.4-6.5-0.5-6.5-7.3c-0.2,6.8-0.397,7-6.5,7.3c6.2,0.2,6.3,0.5,6.5,7.3
					C715.899,308.4,716.1,308.4,722.3,308.2z"/>
				<path fill="#87CCBE" d="M568.8,329.2c0.103-5.2,0.2-5.2,5-5.4c-4.8-0.2-5-0.398-5-5.3c-0.1,5-0.2,5.2-5,5.3
					C568.5,324,568.6,324.2,568.8,329.2z"/>
				<path fill="#87CCBE" d="M738.899,37.1c0.101-5.2,0.197-5.2,5-5.4c-3.801-0.2-4.699-0.3-4.899-2.7h-0.3
					c-0.301,2.4-1.104,2.6-4.801,2.7C738.6,31.9,738.6,32,738.899,37.1z"/>
				<path fill="#9FD6C9" d="M556,108.9c-0.7,20.3-1.101,21.1-19.8,21.9c18.8,0.7,19.1,1.5,19.8,21.8c0.399-21.1,1-20.9,20-21.8
					C556.6,129.5,556.1,129.4,556,108.9z"/>
				<path fill="#87CCBE" d="M498.2,120.8c-0.801,20.5-1.104,21.1-20,21.9c18.8,0.7,19.1,1.5,20,21.8c0.199-21.1,1-20.9,19.8-21.8
					C498.7,141.5,498.2,141.2,498.2,120.8z"/>
				<path fill="#B3E2D6" d="M641.3,108.4c-0.8,20.3-1.1,21.1-19.8,21.8c18.6,0.7,19,1.6,19.8,21.9c0.2-21.2,1-20.9,19.8-21.9
					C641.8,129,641.3,128.8,641.3,108.4z"/>
				<path fill="#A4D8CB" d="M560.6,72c0.5-31,1.5-30.7,29.2-32.1c-28.397-1.8-29-2.1-29.2-31.9c-1.1,29.8-1.6,30.9-29,31.9
					C558.899,41,559.5,42.1,560.6,72z"/>
				<path fill="#87CCBE" d="M550.3,101.2c-12.7-0.7-13-1-13.1-14.3c-0.5,13.3-0.604,13.8-12.9,14.3c12.2,0.5,12.5,1,12.9,14.3
					C537.5,101.7,538,101.8,550.3,101.2z"/>
				<path fill="#87CCBE" d="M526,106.6c-0.3,7.5-0.3,7.8-7.3,8.1c6.896,0.3,7.1,0.5,7.3,8.1c0.1-7.8,0.399-7.8,7.399-8.1
					C526.2,114.3,526.1,114.1,526,106.6z"/>
				<path fill="#87CCBE" d="M659.3,94.2c-0.5,14.6-0.8,15.1-14.3,15.7c13.5,0.5,13.7,1,14.3,15.7c0.3-15.1,0.7-15,14.4-15.7
					C659.7,109,659.3,108.9,659.3,94.2z"/>
				<path fill="#87CCBE" d="M686.6,96.2c-0.3,7.3-0.396,7.6-7.1,7.8c6.7,0.3,6.8,0.5,7.1,7.8c0.104-7.6,0.303-7.5,7-7.8
					C686.7,103.6,686.6,103.5,686.6,96.2z"/>
				<path fill="#87CCBE" d="M686.399,96c-7-0.4-7.103-0.5-7.103-7.8c-0.3,7.3-0.397,7.6-7.1,7.8c6.697,0.3,6.896,0.5,7.1,7.8
					C679.399,96.3,679.6,96.4,686.399,96z"/>
				<path fill="#87CCBE" d="M543.3,146.2c-0.2,5.1-0.2,5.2-5,5.4c4.7,0.1,4.7,0.4,5,5.4c0.103-5.3,0.2-5.2,5-5.4
					C543.399,151.3,543.3,151.3,543.3,146.2z"/>
				<path fill="#87CCBE" d="M527.3,180.2c-0.2,5.1-0.2,5.2-5,5.4c4.7,0.1,4.7,0.4,5,5.4c0.103-5.3,0.2-5.2,5-5.4
					C527.399,185.3,527.3,185.3,527.3,180.2z"/>
				<path fill="#87CCBE" d="M626.7,91.4c0-5.2,0.199-5.2,4.8-5.4c-4.7-0.2-4.8-0.4-4.8-5.3c-0.2,5-0.4,5.2-5,5.3
					C626.3,86.2,626.5,86.4,626.7,91.4z"/>
				<path fill="#87CCBE" d="M517.8,82.1c-0.2,5.1-0.2,5.2-5,5.4c4.603,0.1,4.7,0.4,5,5.4c0-5.3,0.2-5.2,5-5.4
					C517.899,87.1,517.8,87.1,517.8,82.1z"/>
				<path fill="#87CCBE" d="M512.2,79c0.199-16.7,0.8-16.6,15.699-17.3c-15.399-1-15.699-1.2-15.699-17.3
					c-0.604,16.1-0.801,16.7-15.7,17.3C511.2,62.3,511.6,62.9,512.2,79z"/>
				<path fill="#BADBD3" d="M632.2,318.35c0.199-16.899,0.8-16.8,16-17.5c-15.604-1-16-1.1-16-17.4c-0.604,16.3-0.801,16.8-16,17.4
					C631.3,301.45,631.6,302.05,632.2,318.35z"/>
				<path fill="#87CCBE" d="M613.3,258.7c0.2-12.1,0.603-12,11.4-12.5c-11-0.7-11.301-0.8-11.4-12.5c-0.397,11.6-0.6,12-11.3,12.5
					C612.7,246.6,612.899,247.1,613.3,258.7z"/>
				<path fill="#87CCBE" d="M664.399,60.8c0.197-12.1,0.601-12,11.397-12.5c-11-0.7-11.3-0.8-11.397-12.5
					c-0.399,11.6-0.603,12-11.303,12.5C663.8,48.7,664,49.2,664.399,60.8z"/>
				<path fill="#87CCBE" d="M401.6,78.6c0.104-10.5,0.5-10.4,9.9-10.9c-9.7-0.6-9.9-0.7-9.9-10.9C401.2,67,401.1,67.3,391.7,67.7
					C401,68,401.2,68.4,401.6,78.6z"/>
				<path fill="#87CCBE" d="M254.8,159.25c-0.7,20.3-1.1,21.1-19.8,21.9c18.8,0.7,19.1,1.5,19.8,21.8c0.4-21.1,1-20.9,20-21.8
					C255.4,179.85,255,179.75,254.8,159.25z"/>
				<path fill="#87CCBE" d="M224.8,38.7c-12.7-0.7-13-1-13.1-14.3c-0.5,13.3-0.6,13.8-12.9,14.3c12.2,0.5,12.5,1,12.9,14.3
					C212,39.2,212.5,39.3,224.8,38.7z"/>
				<path fill="#87CCBE" d="M301.8,145.9c-9.7-0.6-9.9-0.7-9.9-10.9c-0.4,10.2-0.6,10.5-9.9,10.9c9.3,0.4,9.6,0.7,9.9,10.9
					C292,146.3,292.4,146.4,301.8,145.9z"/>
				<path fill="#87CCBE" d="M351,83.6c-0.5,14.6-0.8,15.1-14.3,15.7c13.5,0.5,13.7,1,14.3,15.7c0.3-15.1,0.7-15,14.4-15.7
					C351.4,98.4,351.1,98.3,351,83.6z"/>
				<path fill="#87CCBE" d="M412.3,83.2c-0.6,14.6-0.8,15.1-14.3,15.7c13.398,0.5,13.7,1.1,14.3,15.7c0.2-15.2,0.7-15,14.3-15.7
					C412.7,98,412.3,97.9,412.3,83.2z"/>
				<path fill="#87CCBE" d="M378.3,85.6c-0.3,7.3-0.4,7.6-7.1,7.8c6.7,0.3,6.8,0.5,7.1,7.8c0.1-7.6,0.3-7.5,7-7.8
					C378.5,93,378.3,92.9,378.3,85.6z"/>
				<path fill="#87CCBE" d="M378.1,85.4c-7-0.4-7.1-0.5-7.1-7.8c-0.3,7.3-0.4,7.6-7.1,7.8c6.7,0.3,6.9,0.5,7.1,7.8
					C371.1,85.7,371.4,85.8,378.1,85.4z"/>
				<path fill="#87CCBE" d="M68.8,254c-0.2,5.1-0.2,5.2-5,5.4c4.7,0.1,4.7,0.4,5,5.4c0.1-5.3,0.2-5.2,5-5.4
					C69,259.1,68.8,259.1,68.8,254z"/>
				<path fill="#87CCBE" d="M11.5,149.1c0,5.2-0.1,5.2-5,5.5c4.8,0.2,5,0.2,5,5.5c0.2-5.2,0.3-5.4,5-5.5
					C11.7,154.5,11.7,154.3,11.5,149.1z"/>
				<path fill="#87CCBE" d="M39.7,139.4c0,5.2-0.1,5.2-5,5.5c4.8,0.2,5,0.2,5,5.5c0.2-5.2,0.3-5.4,5-5.5
					C40,144.8,39.9,144.6,39.7,139.4z"/>
				<path fill="#87CCBE" d="M69.5,285.6c-0.1,18.7-0.5,18.9-18.2,20c16.4,0.8,17.8,0.7,18.1,17.3h0.2c0.7-16.102,1.8-16.7,18-17.3
					C70.5,304.9,70.3,304.2,69.5,285.6z"/>
				<path fill="#87CCBE" d="M132.6,295.7c0.1-5.1,0.2-5.3,4.8-5.4c-4.6-0.2-4.7-0.4-4.8-5.4c0,5.1-0.1,5.1-5,5.4
					C132.4,290.5,132.5,290.4,132.6,295.7z"/>
				<path fill="#87CCBE" d="M146,305.5c0.2-5,0.4-5.2,5-5.3c-4.6-0.2-4.7-0.4-5-5.4c0,5.1-0.1,5.1-4.8,5.4
					C145.8,300.3,146,300.3,146,305.5z"/>
				<path fill="#87CCBE" d="M133.7,308.1c0.2-5.1,0.2-5.2,5-5.399c-4.7-0.2-4.7-0.4-5-5.4c0,5.1-0.1,5.2-5,5.4
					C133.4,302.9,133.6,302.9,133.7,308.1z"/>
				<path fill="#87CCBE" d="M143.4,270.3c-4.6-0.1-4.7-0.4-4.8-5.4c-0.1,5.1-0.2,5.2-5,5.4c4.7,0.2,4.8,0.2,5,5.4
					C138.7,270.7,138.8,270.6,143.4,270.3z"/>
				<path fill="#87CCBE" d="M705,234c0,6.8-0.2,6.8-6.7,7.3c6.3,0.2,6.5,0.2,6.7,7.1c0.2-6.7,0.399-6.9,6.5-7.1
					C705.399,241.1,705.3,240.8,705,234z"/>
				<path fill="#87CCBE" d="M121,287.6c-6.2-0.2-6.3-0.5-6.5-7.1c0,6.7-0.2,6.8-6.7,7.1c6.3,0.4,6.5,0.2,6.7,7.3
					C114.7,288.1,114.8,287.9,121,287.6z"/>
				<path fill="#87CCBE" d="M121.8,227c0,6.8-0.2,6.9-6.5,7.3c6.2,0.2,6.4,0.2,6.5,7.3c0.2-6.8,0.4-7,6.5-7.3
					C122.2,234,122.1,233.8,121.8,227z"/>
				<path fill="#87CCBE" d="M122.3,188.6c0,7.9-0.2,8-7.6,8.5c7.2,0.4,7.5,0.3,7.6,8.5c0.4-7.9,0.5-8.2,7.7-8.5
					C122.8,196.8,122.7,196.5,122.3,188.6z"/>
				<path fill="#87CCBE" d="M109.9,169.4c0,7.9-0.2,8-7.6,8.5c7.2,0.4,7.5,0.3,7.6,8.5c0.4-7.9,0.5-8.2,7.7-8.5
					C110.4,177.6,110.3,177.3,109.9,169.4z"/>
				<path fill="#87CCBE" d="M188.7,44.2c0,10.2-0.2,10.3-9.9,10.9c9.4,0.5,9.8,0.4,9.9,10.9c0.4-10.2,0.6-10.5,9.9-10.9
					C189.3,54.7,189.1,54.4,188.7,44.2z"/>
				<path fill="#87CCBE" d="M108.1,116.4c-13.5-0.6-13.7-1.1-14.3-15.7c-0.1,14.7-0.4,14.8-14.4,15.7c13.7,0.6,14.1,0.5,14.4,15.7
					C94.4,117.5,94.7,117,108.1,116.4z"/>
				<path fill="#87CCBE" d="M73.7,108.7c0.3-7.3,0.4-7.6,7.1-7.8c-6.7-0.3-6.8-0.5-7.1-7.8c0,7.3-0.2,7.4-7,7.8
					C73.3,101.3,73.6,101.2,73.7,108.7z"/>
				<path fill="#87CCBE" d="M81,100.7c0.3-7.3,0.4-7.6,7.1-7.8c-6.7-0.3-6.9-0.5-7.1-7.8c0,7.3-0.2,7.4-7.1,7.8
					C80.6,93.3,80.9,93.2,81,100.7z"/>
				<path fill="#87CCBE" d="M95.8,57.7c0.4-11.6,0.6-12.1,11.3-12.5c-10.7-0.4-10.9-0.8-11.3-12.4c-0.1,11.6-0.4,11.7-11.4,12.5
					C95.2,45.7,95.6,45.6,95.8,57.7z"/>
			</g>
		</g>
	</g>
</g>
<g id="stargroup2">
	<g id="Layer_1_3_" opacity="0.5">
		<g id="Layer_5_1_">
			<g>
				<path fill="#87CCBE" d="M43.759,133.609c4.801,0.2,4.9,0.1,5,5.5c0.102-5.1,0.301-5.3,5-5.5c-4.799-0.1-4.799-0.3-5-5.5
					C48.759,133.31,48.659,133.31,43.759,133.609z"/>
				<path fill="#87CCBE" d="M69.356,63.909c-9.396-0.4-9.5-0.7-9.896-10.9c0,10.2-0.201,10.3-9.9,10.9c9.4,0.5,9.797,0.4,9.9,10.9
					C59.759,64.609,60.06,64.209,69.356,63.909z"/>
				<path fill="#87CCBE" d="M31.354,193.109c7.303,0.4,9.102,0.4,9.602,5.5h0.6c0.703-4.9,2.301-5.2,9.604-5.5
					c-9.299-0.4-9.4-0.7-9.9-10.9C41.259,192.409,41.06,192.509,31.354,193.109z"/>
				<path fill="#87CCBE" d="M51.356,192.909c0.301-10.2,0.6-10.5,9.9-10.9c-9.297-0.4-9.5-0.7-9.9-10.9
					c0,10.2-0.197,10.3-9.896,10.9C50.96,182.409,51.36,182.31,51.356,192.909z"/>
				<path fill="#87CCBE" d="M59.259,349.81c4.801,0.2,4.9,0.097,5,5.396c0.102-5,0.201-5.297,4.801-5.396
					c-4.6-0.2-4.699-0.297-4.801-5.4C64.259,349.409,64.159,349.409,59.259,349.81z"/>
				<path fill="#87CCBE" d="M72.856,359.706c4.604,0.104,4.803,0.104,4.803,5.304c0.301-4.903,0.396-5.2,5-5.304
					c-4.604-0.196-4.803-0.297-5-5.396C77.659,359.409,77.56,359.409,72.856,359.706z"/>
				<path fill="#87CCBE" d="M60.36,362.109c4.803,0.2,4.898,0.2,5,5.4c0.303-5,0.303-5.2,5-5.4c-4.801-0.2-4.801-0.297-5-5.4
					C65.36,361.81,65.259,361.909,60.36,362.109z"/>
				<path fill="#87CCBE" d="M74.96,329.909c-4.604-0.097-4.701-0.297-4.801-5.396c-0.199,5-0.303,5.196-5,5.396
					c4.801,0.2,4.896,0.2,5,5.4C70.36,330.209,70.46,330.109,74.96,329.909z"/>
				<path fill="#87CCBE" d="M183.856,299.609c-9.297-0.4-9.5-0.7-9.896-10.9c0,10.2-0.201,10.3-9.9,10.9c9.4,0.5,9.797,0.4,9.9,10.9
					C174.36,300.31,174.56,299.909,183.856,299.609z"/>
				<path fill="#87CCBE" d="M198.759,280.209c-9.297-0.4-9.5-0.8-9.898-10.8c0,10.1-0.197,10.2-9.898,10.8
					c9.398,0.5,9.797,0.4,9.898,10.9C189.259,280.909,189.46,280.609,198.759,280.209z"/>
				<path fill="#BAE2D8" d="M764.46,199.609c-35.201-1.4-35.801-2.7-37.301-40.9c-0.1,38.2-1,38.6-37.3,40.9
					c35.5,1.7,36.7,1.4,37.3,41C728.659,202.409,729.359,201.009,764.46,199.609z"/>
				<path fill="#87CCBE" d="M186.856,215.709c0-0.8,0-1.5,0.104-2.1h-0.201C186.759,214.209,186.759,214.909,186.856,215.709z"/>
				<path fill="#87CCBE" d="M198.759,264.609c-4.6-0.2-4.699-0.4-4.799-5.4c-0.201,5-0.301,5-5,5.4c4.799,0.1,4.896,0.1,5,5.3
					C194.06,265.009,194.159,264.709,198.759,264.609z"/>
				<path fill="#87CCBE" d="M31.46,321.409c6.299,0.403,6.5,0.3,6.5,7.3c0.396-6.8,0.5-7.1,6.699-7.3
					c-6.303-0.203-6.303-0.399-6.699-7.1C37.96,321.01,37.86,321.109,31.46,321.409z"/>
				<path fill="#87CCBE" d="M39.36,347.109c6.303,0.403,6.6,0.3,6.699,7.3c0.199-6.8,0.301-7.1,6.5-7.3
					c-6.1-0.203-6.301-0.403-6.5-7.1C46.06,346.709,45.86,346.81,39.36,347.109z"/>
				<path fill="#87CCBE" d="M53.46,301.109c0.199-6.8,0.299-7.1,6.5-7.3c-6.104-0.3-6.301-0.5-6.5-7.3c0,6.8-0.201,6.9-6.5,7.3
					C53.159,294.009,53.36,294.009,53.46,301.109z"/>
				<path fill="#87CCBE" d="M205.46,309.409c-4.801-0.1-4.9-0.3-5-5.3c0,4.902-0.201,5.1-5,5.3c4.799,0.2,4.896,0.2,5,5.4
					C200.659,309.81,200.759,309.609,205.46,309.409z"/>
				<path fill="#87CCBE" d="M35.36,17.31c-3.697-0.1-4.5-0.3-4.801-2.7h-0.301c-0.199,2.4-1.098,2.5-4.898,2.7
					c4.803,0.2,4.898,0.2,5,5.4C30.659,17.609,30.659,17.509,35.36,17.31z"/>
				<path fill="#87CCBE" d="M8.96,79.81c18.799,1,19.6,0.7,19.799,21.9c0.801-20.3,1.201-21.2,19.801-21.9
					c-18.699-0.7-19-1.5-19.801-21.8C28.759,78.31,28.259,78.609,8.96,79.81z"/>
				<path fill="#87CCBE" d="M320.962,62.81c1-26.7,1.5-27.6,25.896-28.6c-21.396-0.8-24.396-1.7-25.5-19.6h-0.5
					c-0.6,17.8-3.799,18.2-25.898,19.6C319.56,35.409,320.46,35.209,320.962,62.81z"/>
				<path fill="#87CCBE" d="M34.356,95.109c13.604,0.7,14.104,0.5,14.303,15.7c0.6-14.6,0.9-15.2,14.301-15.7
					c-13.5-0.6-13.701-1.1-14.301-15.7C48.659,94.109,48.36,94.209,34.356,95.109z"/>
				<path fill="#87CCBE" d="M75.659,89.609c6.697,0.3,6.896,0.2,7,7.8c0.301-7.3,0.4-7.5,7.1-7.8c-6.703-0.2-6.799-0.5-7.1-7.8
					C82.659,89.109,82.56,89.209,75.659,89.609z"/>
				<path fill="#87CCBE" d="M89.962,89.409c0.203-7.3,0.402-7.5,7.1-7.8c-6.701-0.2-6.799-0.5-7.1-7.8c0,7.3-0.102,7.4-7.102,7.8
					C89.659,82.009,89.86,81.909,89.962,89.409z"/>
				<path fill="#87CCBE" d="M321.96,94.509c4.799,0.2,4.896,0.2,5,5.4c0.299-5,0.299-5.2,5-5.4c-4.801-0.1-4.801-0.3-5-5.4
					C326.96,94.109,326.759,94.31,321.96,94.509z"/>
				<path fill="#BADBD3" d="M153.06,286.459c-15.199-0.6-15.396-1.1-16-17.4c0,16.3-0.396,16.4-16,17.4
					c15.199,0.7,15.801,0.601,16,17.5C137.659,287.659,137.96,287.06,153.06,286.459z"/>
				<path fill="#87CCBE" d="M167.259,231.81c-10.699-0.5-10.902-0.9-11.299-12.5c-0.1,11.7-0.4,11.8-11.4,12.5
					c10.797,0.5,11.199,0.4,11.4,12.5C156.36,232.709,156.56,232.209,167.259,231.81z"/>
				<path fill="#87CCBE" d="M377.56,53.31c-9.4-0.4-9.5-0.7-9.9-10.9c0,10.2-0.199,10.3-9.9,10.9c9.4,0.5,9.797,0.4,9.9,10.9
					C368.06,54.009,368.259,53.609,377.56,53.31z"/>
				<path fill="#87CCBE" d="M494.46,166.759c19,0.9,19.6,0.7,20,21.8c0.699-20.3,1-21.1,19.799-21.8
					c-18.699-0.8-19.1-1.6-19.799-21.9C514.259,165.359,513.858,165.459,494.46,166.759z"/>
				<path fill="#87CCBE" d="M286.36,83.509c14.6,0.7,15.199,0.6,15.398,17c0.598-15.8,0.9-16.4,15.4-17
					c-14.6-0.5-14.699-1.1-15.4-16.9C301.759,82.409,301.36,82.609,286.36,83.509z"/>
				<path fill="#87CCBE" d="M463.21,97.709c9.299,0.5,9.699,0.4,9.799,10.9c0.5-10.2,0.6-10.5,9.9-10.9c-9.301-0.4-9.4-0.7-9.9-10.9
					C473.009,97.009,472.81,97.109,463.21,97.709z"/>
				<path fill="#87CCBE" d="M477.358,142.409c0.301-10.2,0.602-10.5,9.9-10.9c-9.299-0.4-9.5-0.7-9.9-10.9
					c0,10.2-0.199,10.3-9.898,10.9C476.858,132.009,477.259,131.909,477.358,142.409z"/>
				<path fill="#87CCBE" d="M342.659,84.509c13.6,0.7,14.1,0.5,14.301,15.7c0.6-14.6,0.9-15.2,14.299-15.7
					c-13.5-0.6-13.699-1.1-14.299-15.7C356.96,83.509,356.56,83.609,342.659,84.509z"/>
				<path fill="#87CCBE" d="M695.46,245.009c4.799,0.2,4.899,0.1,5,5.4c0.299-5,0.299-5.3,5-5.4c-4.801-0.2-4.801-0.3-5-5.4
					C700.46,244.709,700.259,244.709,695.46,245.009z"/>
				<path fill="#87CCBE" d="M455.858,61.009c-4.6-0.1-4.799-0.3-5-5.3c0,4.9-0.1,5.1-4.799,5.3c4.6,0.2,4.799,0.2,4.799,5.4
					C451.06,61.409,451.159,61.209,455.858,61.009z"/>
				<path fill="#87CCBE" d="M465.06,63.409c4.799,0.2,4.9,0.1,5,5.4c0.1-5,0.199-5.3,4.799-5.4c-4.6-0.2-4.699-0.3-4.799-5.4
					C469.96,63.109,469.858,63.109,465.06,63.409z"/>
				<path fill="#87CCBE" d="M424.358,23.31c-9.398-0.4-10.699-0.7-11.1-8.7h-0.199c-0.301,7.9-1.6,8.1-11.301,8.7
					c10.801,0.5,11.201,0.4,11.4,12.5C413.46,24.209,413.759,23.709,424.358,23.31z"/>
				<path fill="#87CCBE" d="M752.759,140.209c4.701,0.1,4.801,0.3,5,5.5c0-5.3,0.201-5.3,5-5.5c-4.899-0.3-5-0.3-5-5.5
					C757.56,139.909,757.56,140.109,752.759,140.209z"/>
				<path fill="#87CCBE" d="M762.46,121.909c0-5.3,0.199-5.3,5-5.5c-4.9-0.3-5-0.3-5-5.5c-0.101,5.1-0.201,5.3-5,5.5
					C762.159,116.609,762.359,116.81,762.46,121.909z"/>
				<path fill="#87CCBE" d="M724.56,130.509c4.699,0.1,4.8,0.3,5,5.5c0-5.3,0.199-5.3,5-5.5c-4.9-0.3-5-0.3-5-5.5
					C729.359,130.209,729.259,130.409,724.56,130.509z"/>
				<path fill="#87CCBE" d="M728.759,60.81c-9.699-0.6-9.899-0.7-9.899-10.9c-0.3,10.2-0.5,10.5-9.899,10.9
					c9.299,0.4,9.5,0.7,9.899,10.9C718.96,61.109,719.359,61.31,728.759,60.81z"/>
				<path fill="#87CCBE" d="M681.659,291.209c16.2,0.6,17.301,1.198,18,17.3h0.2c0.3-16.6,1.7-16.5,18.101-17.3
					c-17.701-1.1-18.101-1.3-18.201-20C698.96,289.81,698.759,290.509,681.659,291.209z"/>
				<path fill="#87CCBE" d="M57.759,226.909c6.102,0.2,6.301,0.4,6.5,7.1c0.201-6.9,0.4-6.9,6.701-7.1c-6.5-0.5-6.701-0.5-6.701-7.3
					C63.96,226.409,63.86,226.709,57.759,226.909z"/>
				<path fill="#87CCBE" d="M656.259,247.509c6.201,0.3,6.301,0.5,6.701,7.3c0-7.1,0.199-6.9,6.5-7.3c-6.4-0.3-6.5-0.4-6.5-7.1
					C662.56,247.109,662.56,247.31,656.259,247.509z"/>
				<path fill="#87CCBE" d="M729.659,76.709c18.705,0.704,18.895-1.07,19.801,21.9c0.299-21.2,1-20.9,19.799-21.9
					c-19.299-1.2-19.799-1.5-19.799-21.8C748.659,75.209,748.359,76.009,729.659,76.709z"/>
				<path fill="#87CCBE" d="M593.159,105.109c9.301,0.4,9.4,0.7,9.9,10.9c0.1-10.5,0.5-10.4,9.8-10.9c-9.601-0.6-9.8-0.7-9.8-10.9
					C602.56,104.409,602.46,104.709,593.159,105.109z"/>
				<path fill="#87CCBE" d="M639.259,182.709c7.201,0.3,7.301,0.6,7.701,8.5c0.1-8.2,0.399-8.1,7.6-8.5c-7.4-0.5-7.6-0.6-7.6-8.5
					C646.56,182.109,646.46,182.409,639.259,182.709z"/>
				<path fill="#87CCBE" d="M651.659,163.509c7.2,0.3,7.301,0.6,7.7,8.5c0.101-8.2,0.399-8.1,7.601-8.5
					c-7.4-0.5-7.601-0.6-7.601-8.5C658.96,162.909,658.859,163.209,651.659,163.509z"/>
				<path fill="#87CCBE" d="M743.859,92.009c-14-0.9-14.3-1.1-14.3-15.7c-0.6,14.7-0.801,15.2-14.301,15.7
					c13.4,0.5,13.701,1.1,14.301,15.7C729.759,92.509,730.259,92.709,743.859,92.009z"/>
				<path fill="#87CCBE" d="M684.859,30.909c-11-0.8-11.3-0.9-11.399-12.5c-0.4,11.6-0.601,12-11.301,12.4
					c10.7,0.4,10.9,0.9,11.301,12.5C673.659,31.209,674.06,31.31,684.859,30.909z"/>
			</g>
		</g>
	</g>
</g>
<g id="star">
	<path fill="#B6DDD3" d="M239.808,79.011c20.676-23.104,21.234-22.222,43.088-5.143c-18.992-18.701-20.459-20.369-4.645-39.083
		l-0.227-0.196c-16.809,17.722-19.115,17.179-39.12,1.172C258.819,54.468,258.554,55.692,239.808,79.011z"/>
</g>
</svg>
