<svg xmlns="http://www.w3.org/2000/svg" viewBox="0 0 1984 1984"><devs><style type="text/css">#iconKinderGebaren {-webkit-animation: zoomIn 2s linear forwards;}#left_hand {-webkit-animation: rotateInDownRight .7s 2 forwards;animation-delay: 1s;}#right_hand  {-webkit-animation: rotateInDownLeft .7s 2 forwards;animation-delay: 1s;}
@-webkit-keyframes zoomIn {from {opacity: 0;}50% {opacity: 1;}}
@-webkit-keyframes rotateInDownRight {from {transform-origin: right bottom;transform: none;}50% {transform-origin: right bottom;transform: rotate3d(0, 0, 1, 20deg);}to {transform-origin: right bottom;transform: none;}}@-webkit-keyframes rotateInDownLeft {from {transform-origin: left bottom;transform: none;}50% {
transform-origin: left bottom;transform: rotate3d(0, 0, 1, -20deg);}to {transform-origin: left bottom;transform: none;}}
</style></devs><g><rect width="1984" height="1984" fill="none"/></g><g id="iconKinderGebaren"><path d="M990.9 429.5c-169.2 0-306.3 137.1-306.3 306.3 0 169.2 137.1 306.3 306.3 306.3 169.2 0 306.3-137.1 306.3-306.3C1297.2 566.7 1160.1 429.5 990.9 429.5zM1076.3 592.9c22.1 0 40 20.2 40 45.2 0 25-17.9 45.2-40 45.2 -22.1 0-40-20.2-40-45.2C1036.3 613.1 1054.2 592.9 1076.3 592.9zM897.1 592.9c22.1 0 40 20.2 40 45.2 0 25-17.9 45.2-40 45.2 -22.1 0-40-20.2-40-45.2C857.1 613.1 875 592.9 897.1 592.9zM1186.6 769c-20.8 97.9-102.3 171.1-199.3 171.1 -96.9 0-178.2-73-199.2-170.6 -0.8-3.7 19.2-11.2 19.2-11.2 17.3 86.8 91.4 152.2 180 152.2 88.6 0 162.8-65.4 180-152.2C1167.2 758.3 1187.3 765.5 1186.6 769z" fill="#55C2C2"/>
<g id="left_hand"><path d="M670.4 466.5c-9.1-10.4-16.3-4.9-23.1 4.1 -6.9 9-7.6 21.7-1.7 28.5l41.2 59.2 -3.2 7.8 -138.5-90.3c-7-5.1-17.4-1-23.1 9 -5.7 10-4.7 22.3 2.4 27.3l98.8 74.7 -3.2 7.8 -127.5-52.3c-7.9-3.2-17.9 2.8-22.3 13.6 -4.4 10.8-1.6 22.1 6.3 25.4l127.5 52.3 -3.2 7.8 -123-16.3c-8.6-1.3-17.9 6.6-20.9 17.8 -3 11.2 1.6 21.3 10.1 22.6l126.4 18.3 -3.2 7.8 -82.2 6.4c-8.9 0.6-17.4 10.2-18.8 21.5 -1.4 11.2 4.6 19.8 18.5 18.8l89.6-2.8 34.4 14.1c37.3 15.3 93.6-16.1 119.2-78.5 25.6-62.4 10.7-101-23.7-140L670.4 466.5z" fill="#8EDDDB"/>
<path d="M675.2 461.7c-7.4-8-17.2-10.1-26-3.1 -7.8 6.2-13.2 15.6-14.2 25.5 -0.4 4.3 0 8.8 1.6 12.8 0.9 2.3 2 4.3 3.6 6.3 -1-1.2-0.4-0.6-0.2-0.3 1.6 2.4 3.3 4.7 4.9 7.1 11.7 16.9 23.5 33.7 35.2 50.6 0.3 0.4 0.5 0.8 0.8 1.2 -0.2-1.7-0.5-3.5-0.7-5.2 -1.1 2.6-2.1 5.2-3.2 7.8 3.3-1.4 6.7-2.7 10-4.1 -30.4-19.8-60.9-39.7-91.3-59.5 -14.7-9.6-29.4-19.2-44.1-28.8 -1-0.6-2-1.3-3-1.9 -6.6-4.3-14.3-3.7-21.1-0.2 -16.7 8.7-22.4 36.3-6.5 48.2 30 22.7 60 45.4 90.1 68.1 2.9 2.2 5.8 4.4 8.7 6.6 -1-2.6-2.1-5.1-3.1-7.7 -1.1 2.6-2.1 5.2-3.2 7.8 2.8-1.6 5.6-3.2 8.4-4.8 -34.9-14.3-69.8-28.6-104.6-42.9 -6.7-2.8-13.4-5.5-20.1-8.3 -1.2-0.5-2.4-1-3.6-1.4 -8.5-3.1-18 1.9-23.6 8.1 -11.3 12.6-13 36.9 4.9 44.3 4.5 1.9 9.1 3.7 13.6 5.6 37.4 15.3 74.8 30.7 112.1 46 0.5 0.2 1.1 0.4 1.6 0.6 -1.6-2.8-3.2-5.6-4.7-8.4 -1.1 2.6-2.1 5.2-3.2 7.8 2.2-1.7 4.4-3.3 6.6-5 -37.1-4.9-74.2-9.8-111.4-14.7 -4.7-0.6-9.6-1.8-14.3-1.7 -20.5 0.5-31.7 28.4-22.5 44.8 4.3 7.6 11.5 8.9 19.1 10 8.8 1.3 17.6 2.6 26.5 3.8 31.1 4.5 62.3 9 93.4 13.6 -1.6-2.8-3.2-5.6-4.7-8.4 -1.1 2.6-2.1 5.2-3.2 7.8 2.2-1.7 4.4-3.3 6.6-5 -18.1 1.4-36.3 2.8-54.4 4.2 -8.7 0.7-17.4 1.3-26.1 2 -15.8 1.2-25.7 14.1-27.4 29.3 -0.9 8.3 2.6 16.1 9.3 21 4.7 3.5 11.1 3.9 16.7 3.7 7.4-0.2 14.8-0.5 22.1-0.7 21.2-0.7 42.5-1.3 63.7-2 0.9 0 1.7-0.1 2.6-0.1 1.7-0.1-2.5-0.8-0.6 0 4.1 1.7 8.3 3.4 12.4 5.1 8.6 3.5 17.2 7.7 26.1 10.4 28.8 8.7 59.4-6.3 80.9-24.7 29.1-25.1 48.1-63.5 53.6-101.3 2.5-17.3 1.6-34.8-3.9-51.5 -5.3-16.3-14.5-30.8-25-44.2 -10.5-13.3-22.3-25.8-33.5-38.5C696.3 485.7 685.7 473.7 675.2 461.7c-5.8-6.6-15.4 3.1-9.6 9.6 11.9 13.5 23.7 26.9 35.6 40.4 13.5 15.4 28.2 30.4 39.2 47.7 8.4 13.2 14.4 27.9 16.1 43.5 2.1 18.7-1.7 37.2-7.7 54.8 -11.3 33.2-33 64.3-64.8 80.6 -11.8 6.1-24.4 9.2-37.4 8.1 -7.8-0.7-17.3-5.1-25.4-8.4 -5.5-2.2-10.9-4.5-16.4-6.7 -2.3-1-5.1-2.6-7.6-2.5 -6.7 0.2-13.3 0.4-20 0.6 -21.7 0.7-43.4 1.3-65.1 2 -1.8 0.1-3.7 0.1-5.5 0.2 -6.8 0.4-10.5-2.7-10.7-8.5 -0.3-7.1 4.1-15.9 11.3-18.1 1.7-0.5 3.6-0.4 5.3-0.6 25.9-2 51.9-4 77.8-6 3.3-0.3 5.3-2 6.6-5 1.1-2.6 2.1-5.2 3.2-7.8 1.3-3.1-1.4-7.9-4.8-8.4 -37.2-5.4-74.5-10.8-111.7-16.2 -4.9-0.7-9.7-1.4-14.6-2.1 -6.1-0.9-6.7-8.1-5.8-13.1 1.4-6.9 6.8-14.9 14.6-14 14.7 1.7 29.5 3.9 44.2 5.8 26.3 3.5 52.6 7 78.9 10.4 3.2 0.4 5.5-2.4 6.6-5 1.1-2.6 2.1-5.2 3.2-7.8 1.5-3.7-1.7-7.1-4.8-8.4 -34.9-14.3-69.8-28.6-104.6-42.9 -6.7-2.8-13.4-5.5-20.1-8.3 -0.7-0.3-1.4-0.6-2-0.8 -1.7-0.7 1.2 0.6-0.7-0.4 -2.4-1.3-3.2-4.8-3.4-7.3 -0.3-4.7 1.3-9 3.8-12.9 1.7-2.6 4.3-4.9 7.3-5.8 1.7-0.5 2.9-0.4 4.8 0.4 1.4 0.6 2.8 1.1 4.1 1.7 7.3 3 14.7 6 22 9 33.8 13.8 67.5 27.7 101.3 41.5 3.7 1.5 7.1-1.7 8.4-4.7 1.1-2.6 2.1-5.2 3.2-7.8 1.2-3-0.9-6-3.1-7.7 -29.9-22.6-59.8-45.2-89.7-67.8 -2.3-1.8-4.7-3.5-7-5.3 -0.6-0.4-1.1-0.8-1.6-1.2 -0.1-0.1-0.2-0.2-0.3-0.3 1.5 1.1-0.8-0.9-1.2-1.6 -5.6-8.9 4.9-29.6 15.2-22.9 11.6 7.5 23.2 15.1 34.7 22.6 34 22.1 67.9 44.3 101.9 66.4 0.5 0.4 1.1 0.7 1.6 1.1 4 2.6 8.4-0.2 10-4.1 1.6-3.8 5.1-9.3 2.4-13.2 -1.5-2.1-3-4.3-4.5-6.4 -6.5-9.3-12.9-18.6-19.4-27.9 -5.4-7.7-10.7-15.4-16.1-23.1 -2.2-3.2-4-5.8-4.2-9.9 -0.1-4.1 1.3-7.9 3.4-11.3 1.7-2.8 4.8-7 8-8.1 2-0.7 4.1 1.6 5.8 3.5C671.5 477.8 681.1 468.1 675.2 461.7z" fill="#FFF"/>
</g><g id="right_hand"><path d="M1259.8 523c-34 39.4-48.6 78.1-22.4 140.2 26.2 62.2 82.8 93 120 77.4l34.3-14.4 89.7 1.9c13.8 0.8 19.8-7.8 18.3-19 -1.5-11.2-10.1-20.7-19-21.3l-82.2-5.6 -3.3-7.8 126.2-19.5c8.5-1.4 13-11.6 9.9-22.7 -3.1-11.1-12.5-19-21-17.6L1387.3 632.2l-3.3-7.8 127-53.5c7.9-3.3 10.6-14.7 6.1-25.4 -4.5-10.7-14.6-16.7-22.4-13.4l-127 53.5 -3.3-7.8 98.1-75.6c7-5.1 7.9-17.4 2.1-27.4 -5.8-10-16.2-13.9-23.2-8.8l-137.6 91.5 -3.3-7.8 40.7-59.6c5.9-6.8 5-19.5-1.9-28.5 -6.9-8.9-14.1-14.4-23.2-3.9L1259.8 523z" fill="#8EDDDB"/>
<path d="M1255 518.2c-11.3 13.1-21.7 27.2-28.6 43.2 -6.8 15.7-10 32.6-9.1 49.8 1.1 20.8 7.6 41 16.1 59.9 7.7 17.1 18.5 32.9 31.7 46.2 21 21.3 50.7 37.5 81.4 33.4 9.2-1.2 17.8-5.6 26.3-9.2 5.3-2.2 10.7-4.5 16-6.7 1.4-0.6 2.8-1.2 4.1-1.7 1.5-0.6-2.6 0-0.7 0.1 19.5 0.4 39.1 0.8 58.6 1.3 9.1 0.2 18.2 0.4 27.3 0.6 2.8 0.1 5.6 0.2 8.4-0.1 8.9-1.1 15.7-6 18.8-14.5 3.2-8.5 0.2-18.9-4.4-26.2 -4.5-7.2-12-12.4-20.5-13 -6.7-0.5-13.4-0.9-20.1-1.4 -20.3-1.4-40.6-2.8-61-4.2 -0.4 0-0.7 0-1.1-0.1 2.2 1.7 4.4 3.3 6.6 5 -1.1-2.6-2.2-5.2-3.3-7.8 -1.6 2.8-3.2 5.6-4.7 8.4 37.2-5.7 74.4-11.5 111.6-17.2 4.9-0.8 9.7-1.5 14.6-2.3 7.8-1.2 13.1-8.1 15.1-15.3 2.8-10.2-1-20.9-7.2-28.9 -5.4-6.9-13.9-10.5-22.5-9.2 -1.4 0.2-2.7 0.4-4.1 0.6 -8.1 1.1-16.2 2.3-24.3 3.4 -31.5 4.5-63 8.9-94.5 13.4 2.8 1.6 5.6 3.2 8.4 4.8 -1.1-2.6-2.2-5.2-3.3-7.8 -1.6 2.8-3.2 5.6-4.8 8.4 34.7-14.6 69.5-29.3 104.2-43.9 6.7-2.8 13.4-5.6 20-8.4 1.5-0.6 3-1.2 4.4-1.8 8.7-4.1 12.2-14.2 11.5-23.3 -0.8-10.2-6.2-19.5-14.6-25.3 -5.2-3.6-12.8-5-18.7-2.6 -4.5 1.9-9 3.8-13.6 5.7 -37.2 15.7-74.5 31.4-111.7 47 -0.5 0.2-1 0.4-1.6 0.7 2.8 1.6 5.6 3.2 8.4 4.8 -1.1-2.6-2.2-5.2-3.3-7.8 -1 2.6-2.1 5.1-3.1 7.7 29.7-22.9 59.4-45.8 89.1-68.7 4-3.1 8.9-6.1 12.4-9.9 13.9-14.9 2.2-42.9-16.2-47.5 -7.6-1.9-13.5 1.5-19.4 5.5 -6.2 4.1-12.3 8.2-18.5 12.3 -36 24-72.1 47.9-108.1 71.9 -2.2 1.5-4.5 3-6.7 4.5 3.3 1.4 6.7 2.7 10 4.1 -1.1-2.6-2.2-5.2-3.3-7.8 -0.2 1.7-0.5 3.5-0.7 5.2 10.5-15.4 21.1-30.9 31.6-46.3 2.4-3.5 4.8-7 7.1-10.5 0.6-0.8 1.1-1.6 1.7-2.4 0.1-0.1 0.2-0.3 0.3-0.4 -1.4 2 0.8-1.1 1.1-1.5 0.9-1.2 1.5-2.7 2-4.1 3.5-9.1 1.3-19.7-3.7-27.8 -4.9-7.9-13.2-16-23.1-14.6 -7.8 1.1-12.7 8.2-17.5 13.8 -6.5 7.5-13 15-19.5 22.5C1275.9 494.1 1265.5 506.1 1255 518.2c-5.7 6.6 3.9 16.3 9.6 9.6 11.7-13.6 23.5-27.2 35.2-40.7 6.2-7.2 12.5-14.4 18.7-21.6 1.7-2 3.5-4.3 5.6-5.8 2.2-1.4 3.7-0.1 5.7 1.9 3.3 3.1 6 6.9 7.4 11.3 1.7 5.4 0.9 9.8-2.2 14.3 -1.3 1.9-2.6 3.8-3.9 5.7 -5.6 8.2-11.2 16.4-16.7 24.5 -5.5 8-10.9 16-16.4 24 -1.1 1.7-2.3 3.4-3.4 5.1 -2.7 3.9 1 9.4 2.5 13.1 1.6 3.8 6 6.8 10 4.1 30.2-20.1 60.5-40.2 90.7-60.4 14.6-9.7 29.2-19.5 43.9-29.2 1-0.7 2-1.3 3-2 4.5-3 9.4-0.1 12.6 4.3 2.5 3.5 4 7.6 4.1 11.9 0.1 1.9-0.3 3.6-0.8 5.4 -0.2 0.7-0.6 1.3-1 1.8 -0.2 0.3-2.4 2.3-0.7 0.9 -1 0.8-2 1.6-3.1 2.4 -31.1 23.9-62.1 47.9-93.2 71.8 -0.6 0.5-1.2 0.9-1.8 1.4 -2.2 1.7-4.4 4.7-3.1 7.7 1.1 2.6 2.2 5.2 3.3 7.8 1.3 3 4.6 6.3 8.4 4.8 34.7-14.6 69.5-29.3 104.2-43.9 6.7-2.8 13.4-5.6 20-8.4 1.2-0.5 2.4-1 3.5-1.5 6.1-2.3 12.2 5.7 14.1 11.2 1.3 3.8 1.4 7.7 0.2 11.5 -0.4 1.3-1.4 2.2-2.3 3.1 -1.5 1.4-0.1 0.1-0.2 0.2 -1.4 0.6-2.7 1.2-4.1 1.7 -7.3 3.1-14.6 6.2-21.9 9.2 -33.6 14.2-67.2 28.3-100.9 42.5 -3 1.3-6.3 4.6-4.7 8.4 1.1 2.6 2.2 5.2 3.3 7.8 1.6 3.8 4.3 5.3 8.4 4.8 37.1-5.3 74.2-10.5 111.2-15.8 3-0.4 5.9-0.8 8.9-1.3 0.7-0.1 1.4-0.2 2.2-0.3 0.2 0 0.3 0 0.5-0.1 -1.8 0.3 0.3 0 0.9 0.1 7.9 1.2 12.4 10.7 12.6 17.9 0.1 4.4-1.7 8.5-6.3 9.3 -16.2 2.5-32.5 5-48.7 7.5 -25.7 4-51.5 7.9-77.2 11.9 -3.3 0.5-6.1 5.2-4.8 8.4 1.1 2.6 2.2 5.2 3.3 7.8 1.3 3 3.2 4.8 6.6 5 18.1 1.2 36.3 2.5 54.4 3.7 8.7 0.6 17.4 1.2 26.1 1.8 3.6 0.2 6.3 1.7 8.8 4.4 4.7 4.9 6.9 13.8 4 19 -1.8 3.2-6.6 3.6-10.9 3.5 -2.5-0.1-5-0.1-7.5-0.2 -10.6-0.2-21.3-0.5-31.9-0.7 -11.7-0.3-23.3-0.5-35-0.8 -3.8-0.1-7.5-0.2-11.3-0.2 -1.6 0-3.9-0.4-5.4 0.2 -9.1 3.8-18.3 7.7-27.4 11.5 -3.1 1.3-6.2 2.7-9.4 3.9 -6.1 2.2-10.9 2.8-17.1 2.7 -13-0.1-26.2-5-37.9-11.9 -14.1-8.3-26.2-20-35.9-33.1 -10-13.5-17.4-28.5-23-44.3 -5.3-15-8.6-30.8-8.2-46.8 0.7-28.4 15.8-53 33.8-74C1270.3 521.2 1260.8 511.6 1255 518.2z" fill="#FFF"/>
</g><g enable-background="new    "><path d="M503.8 1132.9h5.7v52.8l57.7-52.8h7.3l-41.9 38.2 44.4 53.6h-7.1l-41.5-49.7 -19 17.3v32.4h-5.7V1132.9z" fill="#55C2C2"/>
<path d="M582.5 1132.9h5.7v91.7h-5.7V1132.9z" fill="#55C2C2"/><path d="M604.4 1132.9h7.1l57.9 84.1h0.3v-84.1h5.7v91.7h-6.7l-58.3-84.8h-0.3v84.8h-5.7V1132.9z" fill="#55C2C2"/>
<path d="M691.5 1132.9h30.1c8.2 0 15.1 1.3 20.5 3.9 5.4 2.6 9.8 6 13 10.3 3.3 4.3 5.5 9.2 6.9 14.6 1.3 5.5 2 11.1 2 17 0 6.5-0.8 12.6-2.5 18.2 -1.7 5.6-4.3 10.5-7.8 14.6 -3.5 4.1-7.9 7.3-13.3 9.7 -5.4 2.4-11.7 3.5-19.1 3.5h-29.8V1132.9zM721.8 1219.7c4.3 0 8.6-0.7 12.9-2 4.3-1.3 8.2-3.6 11.8-6.7 3.5-3.1 6.4-7.3 8.5-12.6 2.2-5.3 3.3-11.9 3.3-19.8 0-6.2-0.6-11.6-1.9-16.1 -1.2-4.5-2.9-8.2-4.9-11.2 -2-3-4.3-5.4-6.9-7.2 -2.6-1.8-5.3-3.1-8.1-4 -2.8-0.9-5.6-1.6-8.3-1.9 -2.8-0.3-5.3-0.4-7.5-0.4h-23.5v82H721.8z" fill="#55C2C2"/>
<path d="M777.1 1132.9h61.7v4.9h-56v36.7h52.7v4.9h-52.7v40.3h56.6v4.9h-62.3V1132.9z" fill="#55C2C2"/>
<path d="M849.1 1132.9h38.3c4 0 7.8 0.4 11.3 1.2 3.5 0.8 6.6 2.1 9.2 4 2.7 1.8 4.7 4.3 6.2 7.3 1.5 3 2.2 6.7 2.2 11.2 0 6.2-1.7 11.4-5.2 15.6 -3.5 4.2-8.3 6.9-14.5 7.9v0.3c4.2 0.5 7.5 1.6 10 3.3 2.4 1.7 4.3 3.8 5.5 6.3 1.2 2.5 2 5.2 2.3 8.2 0.3 3 0.5 6 0.5 9 0 1.8 0 3.6 0 5.3 0 1.7 0.1 3.3 0.3 4.8 0.2 1.5 0.5 2.9 0.8 4.2 0.4 1.3 0.9 2.4 1.6 3.2h-6.3c-1.2-2.1-1.9-4.6-2-7.5 -0.1-2.9-0.2-5.8-0.2-8.9 0-3.1-0.1-6.1-0.4-9.2 -0.3-3-1.1-5.8-2.4-8.2 -1.4-2.4-3.5-4.3-6.5-5.8 -3-1.5-7.1-2.2-12.5-2.2h-32.6v41.7h-5.7V1132.9zM887.3 1178c3.3 0 6.4-0.4 9.3-1.2 2.9-0.8 5.3-2.1 7.4-3.8 2.1-1.7 3.7-3.9 4.9-6.6 1.2-2.7 1.8-5.8 1.8-9.5 0-3.4-0.6-6.4-1.9-8.8 -1.3-2.4-3-4.4-5.1-6 -2.1-1.5-4.6-2.7-7.4-3.3 -2.8-0.7-5.8-1-8.9-1h-32.6v40.2H887.3z" fill="#55C2C2"/>
</g><g enable-background="new    "><path d="M926.7 1179.3c0-6.5 1-12.7 2.9-18.6 1.9-5.9 4.7-11 8.4-15.5 3.7-4.5 8.2-8 13.6-10.6 5.4-2.6 11.5-3.9 18.4-3.9 4.7 0 9.2 0.7 13.5 2.1 4.3 1.4 8.1 3.4 11.5 6 3.4 2.7 6.2 5.9 8.5 9.6 2.3 3.8 3.9 8.1 4.6 12.8h-5.4c-2.1-8-6-14.3-11.6-18.9 -5.6-4.5-12.6-6.8-21.1-6.8 -6.2 0-11.6 1.2-16.3 3.6 -4.7 2.4-8.7 5.6-11.8 9.6 -3.2 4-5.6 8.7-7.2 13.9 -1.6 5.3-2.4 10.8-2.4 16.5 0 5.8 0.8 11.3 2.4 16.5 1.6 5.2 3.9 9.7 7.1 13.6 3.1 3.9 7 6.9 11.8 9.2 4.7 2.3 10.2 3.4 16.6 3.4 5.5 0 10.4-0.9 14.8-2.7 4.4-1.8 8.1-4.3 11.1-7.6 3-3.3 5.3-7.2 6.9-11.8 1.5-4.6 2.2-9.7 1.9-15.3h-33.8v-4.9h38.7v45h-4.9V1205.1h-0.3c-1.1 3.3-2.8 6.4-5 9.1 -2.2 2.7-4.9 5-7.9 6.8 -3 1.8-6.4 3.3-10.1 4.3 -3.7 1-7.6 1.5-11.6 1.5 -6.9 0-13.1-1.2-18.4-3.7 -5.4-2.5-9.9-5.9-13.6-10.1 -3.7-4.3-6.5-9.3-8.4-15.1C927.6 1192.1 926.7 1185.9 926.7 1179.3z" fill="#F64B8D"/>
<path d="M1025.2 1132.9h61.7v4.9h-56v36.7h52.7v4.9h-52.7v40.3h56.6v4.9h-62.3V1132.9z" fill="#F64B8D"/>
<path d="M1097.1 1132.9h36.7c5.5 0 10.1 0.7 13.7 2.1 3.7 1.4 6.6 3.2 8.9 5.4 2.2 2.2 3.8 4.8 4.8 7.6 1 2.9 1.5 5.8 1.5 8.7 0 2.5-0.4 4.8-1.3 7.1 -0.9 2.2-2.1 4.2-3.7 5.9 -1.6 1.7-3.5 3.1-5.7 4.3 -2.2 1.2-4.6 1.9-7.3 2.2l0.3 0.3c0.6-0.1 2 0.2 4.2 0.8 2.2 0.6 4.6 1.7 7 3.4 2.4 1.7 4.6 4 6.5 6.9 1.9 3 2.9 6.7 2.9 11.4 0 4.2-0.8 7.9-2.3 11.1 -1.5 3.2-3.7 5.8-6.5 8 -2.8 2.2-6.1 3.8-10.1 4.9 -3.9 1.1-8.3 1.7-13.1 1.7h-36.7V1132.9zM1133.9 1174.5c7.8 0 13.6-1.7 17.5-5.2 3.9-3.5 5.8-8 5.8-13.7 0-3.3-0.6-6.1-1.9-8.4 -1.3-2.3-3-4.1-5.1-5.5 -2.1-1.4-4.6-2.4-7.4-3 -2.8-0.6-5.7-0.9-8.8-0.9h-31.1v36.7H1133.9zM1133.9 1219.7c8.2 0 14.7-1.7 19.3-5.2 4.7-3.5 7-8.7 7-15.6 0-3.9-0.8-7.2-2.4-9.7 -1.6-2.5-3.7-4.5-6.2-6 -2.5-1.5-5.4-2.5-8.5-3 -3.1-0.6-6.2-0.8-9.2-0.8h-31.1v40.3H1133.9z" fill="#F64B8D"/>
<path d="M1205.3 1132.9h6.2l36.2 91.7h-6l-11.6-29.4h-43.9l-11.7 29.4h-6L1205.3 1132.9zM1228.3 1190.3l-19.7-51.9h-0.3l-20.4 51.9H1228.3z" fill="#F64B8D"/>
<path d="M1254.2 1132.9h38.3c4 0 7.8 0.4 11.3 1.2 3.5 0.8 6.6 2.1 9.2 4 2.7 1.8 4.7 4.3 6.2 7.3 1.5 3 2.2 6.7 2.2 11.2 0 6.2-1.7 11.4-5.2 15.6 -3.5 4.2-8.3 6.9-14.4 7.9v0.3c4.2 0.5 7.5 1.6 10 3.3 2.4 1.7 4.3 3.8 5.5 6.3 1.2 2.5 2 5.2 2.3 8.2 0.3 3 0.5 6 0.5 9 0 1.8 0 3.6 0 5.3 0 1.7 0.1 3.3 0.3 4.8 0.2 1.5 0.4 2.9 0.8 4.2 0.4 1.3 0.9 2.4 1.6 3.2h-6.3c-1.2-2.1-1.9-4.6-2-7.5 -0.1-2.9-0.2-5.8-0.2-8.9 0-3.1-0.1-6.1-0.4-9.2 -0.3-3-1.1-5.8-2.4-8.2 -1.4-2.4-3.5-4.3-6.5-5.8 -3-1.5-7.1-2.2-12.5-2.2h-32.6v41.7h-5.6V1132.9zM1292.5 1178c3.3 0 6.4-0.4 9.3-1.2 2.9-0.8 5.3-2.1 7.4-3.8 2.1-1.7 3.7-3.9 4.9-6.6 1.2-2.7 1.8-5.8 1.8-9.5 0-3.4-0.6-6.4-1.9-8.8 -1.3-2.4-3-4.4-5.1-6 -2.1-1.5-4.6-2.7-7.5-3.3 -2.8-0.7-5.8-1-8.9-1h-32.6v40.2H1292.5z" fill="#F64B8D"/>
<path d="M1335.1 1132.9h61.7v4.9h-56v36.7h52.7v4.9h-52.7v40.3h56.7v4.9h-62.3V1132.9z" fill="#F64B8D"/><path d="M1407.1 1132.9h7.1l57.9 84.1h0.3v-84.1h5.7v91.7h-6.7l-58.3-84.8h-0.3v84.8h-5.7V1132.9z" fill="#F64B8D"/></g></g></svg>
