<svg version="1.1" xmlns="http://www.w3.org/2000/svg" xmlns:xlink="http://www.w3.org/1999/xlink" x="0px" y="0px" viewBox="0 13.5 768 975" enable-background="new 0 13.5 768 975" xml:space="preserve">
<g id="background">
	<rect x="-0.222" y="13.5" fill="#65BCAB" width="768.443" height="975"/>
</g>
<g id="Layer_14">
	
		<linearGradient id="SVGID_1_" gradientUnits="userSpaceOnUse" x1="355.1768" y1="308.5454" x2="433.0488" y2="308.5454" gradientTransform="matrix(0.8911 -0.0626 0.0488 0.9979 13.6246 24.3238)">
		<stop  offset="0" style="stop-color:#DDE5CE"/>
		<stop  offset="0.8969" style="stop-color:#DDE5CE"/>
		<stop  offset="1" style="stop-color:#DDE5CE"/>
	</linearGradient>
	<polygon fill="url(#SVGID_1_)" points="406.208,339.479 346.458,336.217 350.607,298.372 346.158,276.141 413.168,276.434 
		411.013,302.495 	"/>
</g>
<g id="spotlight">
	<g id="Layer_7">
		<ellipse fill="#409D8B" cx="391.5" cy="856.24" rx="149" ry="66.26"/>
	</g>
</g>
<g id="rainbow">
	<g>
		<radialGradient id="blue_1_" cx="380.3154" cy="415.1899" r="281.1158" gradientUnits="userSpaceOnUse">
			<stop  offset="0" style="stop-color:#5ABDE5"/>
			<stop  offset="1" style="stop-color:#0990D3"/>
		</radialGradient>
		<path id="blue" fill="url(#blue_1_)" d="M531.356,394.864c85.021,6.674,165.056,23.933,239.425,48.342
			c-0.031,0.41-0.055,0.82-0.085,1.229c0.58-7.897,1.279-15.786,1.611-23.696c-73.479-27.791-152.601-49.215-237.055-60.972
			c-161.63-22.611-347.372-10.015-543.108,38.519c-0.277,10.449-0.968,20.886-1.708,31.319c-1.14,16.056-1.743,32.136-2.072,48.229
			c-0.024,1.216-0.03,2.431-0.042,3.646C183.905,405.948,371.657,382.511,531.356,394.864z"/>
		<g id="green">
			<path fill="#BBD367" d="M527.354,428.167c86.077,1.433,167.354,14.804,242.847,36.308c0.001,0.033,0.004,0.067,0.005,0.1
				c-0.178-4.557-0.225-9.123,0.049-13.721c0.127-2.141,0.284-4.28,0.442-6.418c0.03-0.41,0.054-0.82,0.085-1.229
				c-74.369-24.409-154.404-41.668-239.425-48.342c-159.699-12.353-347.451,11.084-543.034,86.616l-0.001,0c0,0.047,0,0.094,0,0.141
				c-0.007,0.757-0.002,1.515-0.005,2.272c-0.071,22.098,1.772,44.16,2.318,66.229C181.085,457.526,369.747,425.513,527.354,428.167
				z"/>
		</g>
		<g id="yellow">
			<path fill="#F6C063" d="M771.35,487.493c-0.183-7.683-0.847-15.288-1.145-22.919c-0.001-0.033-0.004-0.067-0.005-0.1
				c-75.493-21.503-156.77-34.875-242.847-36.308c-157.606-2.653-346.268,29.359-536.719,121.957c-0.001,0-0.003,0.001-0.005,0.002
				c0.138,5.527,0.196,11.056,0.12,16.585c-0.025,1.849-0.066,3.697-0.124,5.546c-0.409,13.083-1.25,26.131-1.661,39.209
				C176.25,507.424,363.839,466.99,518.354,461.267C608.442,457.924,693.166,468.197,771.35,487.493z"/>
		</g>
		<g id="dark_yellow">
			<path fill="#D69D3C" d="M771.719,507.952c0.062,1.949,0.153,3.896,0.263,5.843c-0.428-7.578-0.443-15.172-0.567-22.78
				c-0.017-1.066-0.029-2.13-0.053-3.197c-0.002-0.108-0.009-0.216-0.011-0.325h-0.001
				c-78.184-19.296-162.907-29.569-252.996-26.226C363.839,466.99,176.25,507.424-11.036,611.465
				c-0.003,0.002-0.007,0.004-0.011,0.006c-0.013,0.404-0.021,0.81-0.034,1.214c-0.005,0.181-0.01,0.361-0.015,0.542
				c-0.078,2.698-0.144,5.396-0.17,8.098c-0.146,14.926,0.047,29.853,0.412,44.774c185.246-106.668,365.311-160.29,516.006-173.932
				C599.908,483.574,689.5,490.67,771.719,507.952z"/>
		</g>
		<g id="pink">
			<path fill="#EA5F72" d="M489.953,525.466c100.399-14.203,196.265-10.384,283.859,5.184c0.174,1.103,0.352,2.205,0.532,3.307
				c-0.427-2.614-0.845-5.23-1.213-7.852c-0.575-4.099-0.92-8.202-1.15-12.31c-0.109-1.947-0.2-3.894-0.263-5.843
				c-82.219-17.282-171.811-24.378-266.565-15.786c-150.695,13.643-330.76,67.264-516.006,173.932
				c0.021,0.827,0.035,1.655,0.056,2.482c0.023,0.906,0.054,1.812,0.079,2.718c0.353,13.165,0.786,26.328,1.185,39.492
				c-0.017-0.547-0.032-1.093-0.048-1.64C168.213,602.379,343.924,546.213,489.953,525.466z"/>
		</g>
		<g id="red">
			<path fill="#CB394D" d="M774.345,533.956c-0.181-1.102-0.358-2.204-0.532-3.307c-87.595-15.567-183.46-19.387-283.859-5.184
				c-146.029,20.747-321.74,76.913-499.534,183.686c0.017,0.547,0.032,1.093,0.048,1.64c0.389,12.844,0.729,25.69,0.903,38.539
				c167.805-103.72,336.819-161.559,477.983-187.663c109.884-20.3,213.535-19.973,307.934-5.9
				C776.787,548.45,775.529,541.207,774.345,533.956z"/>
		</g>
	</g>
</g>
<g id="Layer_12">
	<linearGradient id="SVGID_2_" gradientUnits="userSpaceOnUse" x1="371.4429" y1="40.6045" x2="371.4428" y2="890.0005">
		<stop  offset="0" style="stop-color:#DDE5CE"/>
		<stop  offset="0.8969" style="stop-color:#DDE5CE"/>
		<stop  offset="1" style="stop-color:#DDE5CE"/>
	</linearGradient>
	<path fill="url(#SVGID_2_)" d="M222.5,174.667c-0.518-3.739,3.577-6.702,7.003-8.96c4.67-3.076,7.348-7.841,9.876-12.657
		c4.421-8.416,9.754-16.121,16.743-22.672c2.445-2.291,4.582-5,6.458-7.788c3.154-4.683,5.801-9.692,10.561-13.118
		c1.913-1.376,1.992-4.088,0.317-5.431c-2.46-1.973-5.29-3.31-8.553-3.016c-4.134,0.372-8.063,1.64-11.411,4.066
		c-3.207,2.324-6.108,5.067-9.131,7.642c-2.88,2.451-5.702,4.971-8.627,7.366c-1.852,1.517-2.913,1.38-4.302-0.546
		c-0.881-1.221-1.769-2.56-2.17-3.981c-2.067-7.333-4.155-14.67-5.899-22.083c-2.117-8.996-3.866-18.077-5.835-27.107
		c-1.581-7.247-2.866-14.576-5.956-21.414c-1.472-3.258-3.828-4.708-7.385-4.294c-3.941,0.457-6.289,2.458-6.769,6.024
		c-0.242,1.789-0.419,3.665-0.151,5.428c0.723,4.76,1.691,9.483,2.579,14.218c2.038,10.872,4.086,21.742,6.124,32.614
		c0.08,0.425,0.096,0.862,0.142,1.293c-0.152,0.05-0.304,0.099-0.454,0.148c-0.645-1.018-1.312-2.023-1.932-3.056
		c-1.557-2.593-3.55-4.588-6.726-4.989c-4.943-0.625-9.188,2.015-10.828,6.723c-1.083,3.113-2.008,3.779-5.268,3.794
		c-5.852,0.026-9.489,3.421-9.92,9.27c-0.1,1.37-0.172,2.742-0.277,4.458c-0.479-0.58-0.772-0.896-1.024-1.243
		c-4.935-6.795-9.856-13.602-14.802-20.389c-1.271-1.745-2.514-3.527-3.946-5.135c-2.056-2.307-5.34-2.848-8.125-1.552
		c-2.349,1.092-3.574,3.569-3.236,6.69c0.105,0.971,0.313,1.943,0.592,2.881c1.319,4.441,3.742,8.347,6.315,12.108
		c8.511,12.433,15.075,25.802,19.27,40.258C168.026,158.049,173,174,180.5,179l71,173.5c37,56.5,54.5,110.402,42,167.24
		c-11.475,52.179-19.1,84.359-30,139.26c17.6,1.799,23,4.599,46.5,7.099c0,41.604-0.801,114.302-2,156.401
		c-0.497,15.818-0.413,20.025,8.5,25.5c1.758,17.514,10.025,42,22,42c12.131,0,20.935-23.152,22.5-41
		c7.357-5.451,10.387-10.885,10.443-25.5c0.1-42.896,5.559-110.598,7.458-153.5c4.101-0.801,20.798,1.801,25.098,1.5
		c2,8.303,0,35.799,0.5,44c2.2,36.1,4.9,72.799,5,109c0.063,14.293,2.825,26.381,11,31.74c1.866,17.322,6.872,33.76,18.758,33.76
		c11.991,0,19.503-19.953,21.242-37.5c7.872-4.662,9.436-10.848,9-26c-1.104-42.199,1.5-113.602,1.5-157.5
		c21.1-2.5,22.703-0.802,40.5-2.901C490.5,605,484.674,555.9,490,496l38.229,79.2c5.583,9.814,16.271,44.3,29.979,51.818
		c0.989,2.955,2.583,5.816,4.64,8.691c4.106,5.799,7.48,12.049,11.274,18.027c0.992,1.576,2.405,2.875,3.506,4.354
		c1.285,1.693,3.282,3.236,3.649,5.168c1.831,9.652,5.134,18.402,12.908,24.758c1.041,0.875,3.001,1.51,4.126,1.188
		c1.126-0.322,2.351-2.041,2.538-3.332c0.379-2.58-0.043-5.119-0.062-7.723c-0.005-2.807-0.02-5.514,0.37-8.193
		c0.62-4.568,2.55-9.246,2.154-13.684c-1.333-12.523-2.631-25.545-8.978-36.613c-1.851-3.213-6.021-3.556-7.334-5.659
		c2.399-5.209,6.025-12.413,5.129-15.399c-20.3-65.4-56.9-170.201-81.8-234c-4.9-12.5-22-25.5-35.604-28.4
		c-32.6-7-66.396-10.5-99.7-11c-44.714-0.607-74.145-10.224-96.483-35.622c0.969-20.174,7.789-40.168,21.277-55.436
		c9.854,42.113,44.669,77.658,86.109,77.658c41.043,0,75.696-34.942,85.87-76.672c16.521,19.347,22.722,45.941,19.927,70.872
		c46.614-1.278,55.8-77.013-16.938-92.94c0.025-0.919-1.599,4.861-1.599,3.941c0-51.6-38.16-100.2-87.261-100.2
		C336.829,116.8,297,166.4,297,218c0,0.845,0.041-6.01,0.062-5.166c-23.369,4.879-38.435,15.873-46.625,28.669
		c-0.07-0.169-0.141-0.334-0.211-0.504"/>
</g>
<g id="Layer_13">
</g>
<g id="kids">
	<g enable-background="new    ">
		<path fill="#CB394D" d="M362.308,531.488l3.493-0.396c0.698,0,0.998,0.297,0.998,0.998c0,1.196-0.798,2.095-2.495,2.692
			c-1.697,0.6-3.493,0.896-5.588,0.896c-3.893,0-7.186-1.597-9.881-4.69c-2.694-3.093-6.287-8.878-11.077-17.361
			c-1.099-1.797-1.697-3.194-1.697-4.192c0-1.297,1.796-2.794,5.489-4.59c5.889-3.097,8.883-6.886,8.883-11.477
			c0-1.3-0.5-2.396-1.398-3.296c-0.898-0.896-2.095-1.395-3.592-1.395c-2.096,0-4.592,2.495-7.485,7.382
			c-2.895,4.891-4.791,9.584-5.79,13.874c-0.998,4.288-1.497,8.981-1.497,13.872c0,2.392-0.698,3.689-2.095,3.689
			c-1.997,0-3.893-0.3-5.789-0.896c-1.795-0.603-2.694-1.297-2.694-2.194c0-0.9,0.299-5.09,0.998-12.377
			c0.699-7.382,1.097-12.671,1.197-15.864c0.299-17.764,1.397-31.338,3.094-40.718c0.299-0.802,1.497-2.1,3.593-4.096
			c2.095-1.893,3.892-2.891,5.189-2.891c1.298,0,1.896,1.597,1.896,4.887c0,3.291-0.798,10.279-2.195,20.958
			c-1.397,10.679-2.296,20.458-2.595,29.341c1.596-5.592,4.091-10.879,7.485-15.769c3.393-4.99,6.885-7.485,10.378-7.485
			c5.889,0,8.883,2.891,8.883,8.583c0,3.792-1.098,7.285-3.394,10.38c-2.295,3.093-5.29,5.588-9.181,7.484
			c-0.799,0.3-1.198,0.695-1.198,1.194c0,0.4,0.099,0.899,0.398,1.302c5.489,9.676,10.18,16.466,13.973,20.356
			C359.914,530.987,361.11,531.488,362.308,531.488z"/>
		<path fill="#CB394D" d="M373.686,527.594c-3.393,0-5.988-0.697-7.685-2.098c-0.599-0.6-0.898-2.795-0.898-6.487
			c0-3.792,0.3-9.98,0.898-18.762c0.598-8.782,1.097-13.474,1.497-14.172c0.4-0.695,1.797-1.997,4.091-3.889
			c2.297-1.896,3.993-2.895,5.291-2.895c1.297,0,1.895,1.697,1.895,4.99c0,0.899-0.2,2.598-0.698,5.093s-0.998,4.388-1.596,5.489
			c-1.098,2.89-1.697,10.375-1.697,22.553c0,2.396,0.299,3.493,0.798,3.493c1.497-0.1,3.493-1.895,6.088-5.588
			c2.595-3.597,5.189-8.286,7.785-13.872c2.595-5.689,4.091-8.484,4.69-8.484c0.598,0,0.897,0.299,0.897,0.998
			c0,2.396-1.3,6.288-3.795,11.578C384.165,520.209,378.377,527.594,373.686,527.594z M369.894,463.024
			c0-1.596,0.798-2.895,2.495-4.091c1.696-1.101,3.093-1.697,4.391-1.697c2.396,0,3.493,1.394,3.493,4.091
			c0,2.698-0.699,4.99-2.096,6.986c-1.397,1.996-3.394,2.895-5.889,2.895C370.691,471.307,369.894,468.513,369.894,463.024z"/>
		<path fill="#CB394D" d="M425.082,527.594c-2.993,0-5.289-0.697-6.887-1.995c-0.697-0.698-0.998-2.496-0.998-5.489
			c0-2.994,0.102-6.785,0.399-11.58c-2.395,6.292-4.789,10.977-7.185,14.276c-2.396,3.188-5.489,4.788-9.183,4.788
			c-3.691,0-6.785-1.6-9.381-4.788c-2.594-3.195-3.889-8.384-3.889-15.37c0-7.086,1.995-13.273,5.987-18.664
			c3.992-5.386,9.184-8.083,15.571-8.083c3.096,0,6.386,1.198,9.781,3.693c1.396-16.966,2.693-26.55,3.792-28.746
			c0.499-0.998,1.798-2.392,3.693-4.188c1.893-1.8,3.594-2.694,4.887-2.694c1.295,0,1.996,2.095,1.996,6.087
			c0,4.79-0.396,8.883-1.297,12.376c-2.396,8.982-3.793,14.67-4.392,17.065c-1.194,9.381-1.796,20.459-1.796,33.135
			c0,2.395,0.299,3.493,0.798,3.493c1.601-0.101,3.692-1.896,6.29-5.49c2.596-3.593,5.187-8.184,7.785-13.873
			c2.594-5.685,4.092-8.582,4.69-8.582c0.6,0,0.799,0.299,0.799,0.998c0,2.395-1.298,6.287-3.793,11.576
			C435.761,520.209,429.872,527.594,425.082,527.594z M408.615,485.279c-2.395,0-4.691,1.896-7.086,5.592
			c-2.394,3.792-3.493,8.083-3.493,12.974c0,4.888,0.6,8.982,1.894,12.077c1.295,3.092,2.893,4.69,4.79,4.69
			c3.891,0,8.383-7.885,13.474-23.557c0.397-4.79,0.698-7.584,0.698-8.483C416.301,486.377,412.906,485.279,408.615,485.279z"/>
		<path fill="#CB394D" d="M458.716,486.976l0.298-1.996c0-1.597-0.897-2.396-2.693-2.396c-1.797,0-3.493,1.198-5.19,3.493
			c-1.696,2.3-2.494,4.193-2.494,5.689c0,1.497,0.103,2.695,0.299,3.493c0.199,0.899,0.399,1.601,0.603,2.196
			c0.201,0.596,0.598,1.198,1.097,1.996c0.5,0.798,0.898,1.398,1.198,1.697l1.397,1.796c0.599,0.898,0.998,1.397,1.296,1.696
			c4.491-3.792,9.877-7.885,16.169-12.579c0.3-0.298,0.694-0.395,1.193-0.395c0.899,0,1.302,0.499,1.302,1.393
			c0,0.999-0.399,1.697-1.198,2.196c-5.592,3.597-10.878,7.485-15.769,11.58c1.894,2.794,2.892,5.788,2.892,9.177
			c0,3.299-1.298,6.189-3.793,8.482c-2.494,2.396-5.788,3.494-9.681,3.494c-3.888,0-5.885-1.893-5.885-5.588
			c0-2.694,2.891-6.786,8.583-12.374c-0.399-0.499-1.198-1.396-2.396-2.596c-1.098-1.198-1.995-2.096-2.595-2.794
			c-0.598-0.699-1.196-1.599-1.995-2.695c-1.399-2.195-2.096-4.491-2.096-7.085c0-5.093,1.692-9.284,4.989-12.475
			c3.294-3.193,6.787-4.793,10.579-4.793c2.396,0,4.19,0.602,5.489,1.896c1.297,1.294,1.996,2.595,1.996,3.891
			c0,2.995-0.699,4.389-2.097,4.389C459.214,487.974,458.716,487.675,458.716,486.976z M450.331,512.624
			c-3.493,3.493-5.188,6.288-5.188,8.38c0,2.099,1.101,3.195,3.292,3.195c1.302,0,2.396-0.5,3.298-1.597
			C453.524,520.109,453.125,516.716,450.331,512.624z"/>
	</g>
</g>
<g id="asl_1_">
	<g>
		<path fill="#0990D3" d="M363.832,433.931l-2.591-6.81h-22.057l-2.59,6.958c-1.012,2.715-1.875,4.547-2.591,5.496
			c-0.715,0.949-1.888,1.425-3.516,1.425c-1.383,0-2.604-0.506-3.664-1.518c-1.062-1.011-1.592-2.158-1.592-3.441
			c0-0.74,0.124-1.504,0.37-2.295c0.247-0.789,0.654-1.888,1.222-3.293l13.878-35.233c0.395-1.011,0.87-2.226,1.425-3.646
			c0.555-1.417,1.147-2.596,1.776-3.534c0.629-0.938,1.456-1.696,2.48-2.276c1.023-0.58,2.288-0.87,3.793-0.87
			c1.53,0,2.807,0.291,3.831,0.87c1.023,0.58,1.85,1.327,2.479,2.239c0.63,0.913,1.16,1.893,1.592,2.941
			c0.431,1.049,0.98,2.449,1.647,4.201l14.174,35.011c1.11,2.665,1.665,4.602,1.665,5.811c0,1.258-0.524,2.412-1.572,3.46
			c-1.05,1.047-2.313,1.573-3.794,1.573c-0.863,0-1.604-0.154-2.22-0.462c-0.617-0.31-1.135-0.728-1.554-1.258
			c-0.42-0.53-0.87-1.344-1.351-2.443C364.59,435.739,364.177,434.77,363.832,433.931z M342.07,418.868h16.21l-8.179-22.391
			L342.07,418.868z"/>
		<path fill="#0990D3" d="M422.018,423.791c0,3.281-0.846,6.231-2.535,8.845c-1.689,2.616-4.163,4.663-7.42,6.144
			c-3.258,1.481-7.119,2.221-11.584,2.221c-5.354,0-9.771-1.012-13.249-3.035c-2.467-1.456-4.474-3.399-6.015-5.829
			c-1.542-2.43-2.313-4.793-2.313-7.087c0-1.332,0.463-2.473,1.388-3.423c0.925-0.949,2.103-1.425,3.534-1.425
			c1.158,0,2.142,0.37,2.943,1.11c0.801,0.741,1.484,1.839,2.052,3.294c0.69,1.728,1.438,3.171,2.24,4.331
			c0.801,1.16,1.93,2.115,3.387,2.868c1.456,0.753,3.367,1.129,5.735,1.129c3.258,0,5.904-0.759,7.938-2.276
			c2.036-1.518,3.054-3.411,3.054-5.681c0-1.801-0.55-3.263-1.646-4.386c-1.1-1.123-2.518-1.98-4.258-2.572
			c-1.738-0.592-4.065-1.222-6.976-1.888c-3.898-0.913-7.161-1.98-9.79-3.202c-2.626-1.221-4.712-2.887-6.254-4.997
			c-1.542-2.109-2.313-4.73-2.313-7.865c0-2.984,0.814-5.637,2.443-7.957c1.629-2.318,3.985-4.102,7.068-5.348
			c3.084-1.245,6.711-1.869,10.881-1.869c3.331,0,6.212,0.414,8.642,1.24c2.43,0.828,4.446,1.925,6.052,3.294
			c1.604,1.369,2.776,2.807,3.516,4.311c0.74,1.506,1.11,2.974,1.11,4.404c0,1.308-0.461,2.486-1.388,3.535
			c-0.925,1.049-2.079,1.573-3.46,1.573c-1.258,0-2.216-0.315-2.869-0.944c-0.652-0.629-1.364-1.659-2.129-3.09
			c-0.985-2.048-2.17-3.646-3.552-4.793c-1.383-1.147-3.604-1.721-6.662-1.721c-2.837,0-5.125,0.624-6.865,1.869
			c-1.739,1.247-2.609,2.746-2.609,4.497c0,1.086,0.297,2.023,0.89,2.812c0.591,0.79,1.406,1.469,2.441,2.036
			c1.036,0.568,2.085,1.013,3.146,1.333c1.06,0.321,2.812,0.79,5.255,1.406c3.059,0.716,5.829,1.505,8.309,2.369
			c2.479,0.864,4.59,1.913,6.329,3.146c1.739,1.234,3.096,2.794,4.071,4.682C421.529,418.739,422.018,421.052,422.018,423.791z"/>
		<path fill="#0990D3" d="M439.322,391.556v39.489h22.28c1.776,0,3.139,0.432,4.089,1.295c0.949,0.864,1.424,1.949,1.424,3.257
			c0,1.333-0.468,2.412-1.405,3.238c-0.938,0.827-2.308,1.239-4.107,1.239h-26.536c-2.394,0-4.115-0.53-5.164-1.591
			c-1.049-1.06-1.57-2.776-1.57-5.145v-41.783c0-2.221,0.497-3.886,1.497-4.997c0.999-1.11,2.313-1.666,3.941-1.666
			c1.653,0,2.99,0.55,4.016,1.647C438.81,387.639,439.322,389.311,439.322,391.556z"/>
	</g>
</g>
</svg>
