<svg version="1.1" xmlns="http://www.w3.org/2000/svg" x="0" y="0" width="144" height="200" viewBox="0 0 144 200" enable-background="new 0 0 144 200" xml:space="preserve"><path fill="#DDE5CE" d="M129.2 144.2c-0.3-2.9-0.6-5.8-2-8.4 -0.4-0.7-0.8-1.3-1.1-1.8 0.5-1.2 0.8-2.3 0.6-3 -4.6-14.9-13-38.8-18.7-53.4 -1.1-2.9-5-5.8-8.1-6.5 -7.4-1.6-15.1-2.4-22.7-2.5 -10.2-0.1-16.9-2.3-22-8.1 0.2-4.6 1.8-9.2 4.9-12.6 2.2 9.6 10.2 17.7 19.6 17.7 9.4 0 17.3-8 19.6-17.5 3.8 4.4 5.2 10.5 4.5 16.2 10.6-0.3 12.7-17.6-3.9-21.2 0-0.2 0-0.4 0-0.6 0-11.8-9.1-21.3-20.3-21.3s-20.3 9.6-20.3 21.3c0 0.2 0 0.4 0 0.6 -5.3 1.1-8.8 3.6-10.6 6.5 0 0 0-0.1 0-0.1 -2.3-5.7-4.8-11.3-7-17.1 0.6-2.3 1.7-4.7 2.7-6.9 0.5-1.2 1.3-2.2 1.8-3.4 0.4-1-0.1-1.8 0.1-2.9 0.2-1.2 0-4.7-2.3-3.3 -2.2 1.3-0.5 4-1.9 5.8 -0.4 0.5-1.5 1.8-2.3 1.6 -0.8-0.2-1.7-1.4-2-2.1 -1-2.2-0.6-4.5 1-6.2 1.4-0.7 3.6 2.5 4.9 0.3 0.5-0.9 0.3-1.5-0.6-1.9 -1.1-0.5-2.3-1.2-3.4-1.7 -2.2-0.8-4 0-5.3 1.8 -0.6 0.9-0.6 2.1-0.9 3.1 0 0.2-0.6 2.9-1.2 1.4 -0.5-1.2-1-3.7-1.1-5 -0.3-1.4-0.6-3.3-1-6 -0.2-1.3-0.4-4.4-1.3-5.3 -0.5-0.5-1.6-0.7-2.1-0.2 -1 0.9-0.6 1.9-0.4 3.1l2.6 14.4c0 1 0 1.5-0.7 1.5 -0.8-2.7-1.7-5.6-2.7-8.3 -0.5-1.3-1.6-7.7-4.1-5.5 -1.3 1.1-0.2 2.7 0.3 3.9 0.6 1.6 1.1 3.2 1.7 4.8 0.6 1.6 1.2 3.2 1.7 4.8 0.4 1.3 1.4 2.3-0.2 2.9 -0.6-1.6-1.5-3.1-2.3-4.7 -0.5-1-1.4-4-2.7-4.1 -3.1-0.4 1.1 7.3 1.4 8 1.3 2.7 2.3 5.4 3.9 7.9 0.7 1.1 1.6 2 2.5 3 0.6 0.8 1.3 1.4 1.9 2.1 0.5 0.6 0.8 1.5 1.1 2.2 5.2 13.2 9.9 26.9 17.6 38.6 8.4 12.9 11.2 23.4 8.5 37.5 -2.3 12-6 26.1-8.5 38.6 4 0.4 7.3 0.8 12.7 1.3 0 9.5 0.2 19.1-0.1 28.7 -0.1 3.6 0.7 5.9 2.8 7.2 0.4 4 2.7 7.1 5.4 7.1 2.8 0 5.1-3.1 5.4-7.2 1.7-1.2 2.4-3.4 2.4-6.7 0-9.8 0.8-19.6 1.2-29.4 0.9-0.2 3.8 0 4.8-0.1 0.5 1.9 0.3 3.1 0.4 5 0.5 8.2 0.8 16.5 0.8 24.8 0 3.3 0.8 5.5 2.7 6.7 0.4 4 2.7 7 5.4 7 2.7 0 5-3.1 5.4-7.1 1.8-1.1 2.8-3 2.7-6.5 -0.3-9.6-0.1-19.3-0.1-29.3 4.8-0.6 8.4-1 12.4-1.5 -2.7-14-6.3-28.2-8.9-41.9l8.3 15.4c1.3 2.2 4 9 6.8 11.8 0.2 0.7 0.6 1.3 1.1 2 0.9 1.3 1.7 2.8 2.6 4.1 0.2 0.4 0.5 0.7 0.8 1 0.3 0.4 0.7 0.7 0.8 1.2 0.4 2.2 1.2 4.2 2.9 5.6 0.2 0.2 0.7 0.3 0.9 0.3 0.3-0.1 0.5-0.5 0.6-0.8 0.1-0.6 0-1.2 0-1.8 0-0.6 0-1.3 0.1-1.9C128.9 146.3 129.3 145.2 129.2 144.2z"/><g enable-background="new    "><path fill="#CB394D" d="M75.7 116.4l0.8-0.1c0.2 0 0.2 0.1 0.2 0.2 0 0.3-0.2 0.5-0.6 0.6 -0.4 0.1-0.8 0.2-1.3 0.2 -0.9 0-1.7-0.4-2.3-1.1 -0.6-0.7-1.5-2.1-2.6-4.1 -0.3-0.4-0.4-0.8-0.4-1 0-0.3 0.4-0.7 1.3-1.1 1.4-0.7 2.1-1.6 2.1-2.7 0-0.3-0.1-0.6-0.3-0.8 -0.2-0.2-0.5-0.3-0.8-0.3 -0.5 0-1.1 0.6-1.8 1.7 -0.7 1.2-1.1 2.3-1.4 3.3 -0.2 1-0.4 2.1-0.4 3.3 0 0.6-0.2 0.9-0.5 0.9 -0.5 0-0.9-0.1-1.4-0.2 -0.4-0.1-0.6-0.3-0.6-0.5 0-0.2 0.1-1.2 0.2-2.9 0.2-1.7 0.3-3 0.3-3.7 0.1-4.2 0.3-7.4 0.7-9.6 0.1-0.2 0.4-0.5 0.8-1 0.5-0.4 0.9-0.7 1.2-0.7 0.3 0 0.4 0.4 0.4 1.2 0 0.8-0.2 2.4-0.5 4.9 -0.3 2.5-0.5 4.8-0.6 6.9 0.4-1.3 1-2.6 1.8-3.7 0.8-1.2 1.6-1.8 2.4-1.8 1.4 0 2.1 0.7 2.1 2 0 0.9-0.3 1.7-0.8 2.4 -0.5 0.7-1.2 1.3-2.2 1.8 -0.2 0.1-0.3 0.2-0.3 0.3 0 0.1 0 0.2 0.1 0.3 1.3 2.3 2.4 3.9 3.3 4.8C75.1 116.3 75.4 116.4 75.7 116.4zM78.4 115.5c-0.8 0-1.4-0.2-1.8-0.5 -0.1-0.1-0.2-0.7-0.2-1.5 0-0.9 0.1-2.4 0.2-4.4 0.1-2.1 0.3-3.2 0.4-3.3 0.1-0.2 0.4-0.5 1-0.9 0.5-0.4 0.9-0.7 1.2-0.7 0.3 0 0.4 0.4 0.4 1.2 0 0.2 0 0.6-0.2 1.2 -0.1 0.6-0.2 1-0.4 1.3 -0.3 0.7-0.4 2.4-0.4 5.3 0 0.6 0.1 0.8 0.2 0.8 0.4 0 0.8-0.4 1.4-1.3 0.6-0.8 1.2-2 1.8-3.3 0.6-1.3 1-2 1.1-2s0.2 0.1 0.2 0.2c0 0.6-0.3 1.5-0.9 2.7C80.9 113.7 79.5 115.5 78.4 115.5zM77.5 100.2c0-0.4 0.2-0.7 0.6-1 0.4-0.3 0.7-0.4 1-0.4 0.6 0 0.8 0.3 0.8 1s-0.2 1.2-0.5 1.6c-0.3 0.5-0.8 0.7-1.4 0.7C77.7 102.2 77.5 101.5 77.5 100.2zM90.5 115.5c-0.7 0-1.2-0.2-1.6-0.5 -0.2-0.2-0.2-0.6-0.2-1.3s0-1.6 0.1-2.7c-0.6 1.5-1.1 2.6-1.7 3.4 -0.6 0.8-1.3 1.1-2.2 1.1s-1.6-0.4-2.2-1.1c-0.6-0.8-0.9-2-0.9-3.6 0-1.7 0.5-3.1 1.4-4.4s2.2-1.9 3.7-1.9c0.7 0 1.5 0.3 2.3 0.9 0.3-4 0.6-6.3 0.9-6.8 0.1-0.2 0.4-0.6 0.9-1 0.4-0.4 0.8-0.6 1.2-0.6s0.5 0.5 0.5 1.4c0 1.1-0.1 2.1-0.3 2.9 -0.6 2.1-0.9 3.5-1 4 -0.3 2.2-0.4 4.8-0.4 7.8 0 0.6 0.1 0.8 0.2 0.8 0.4 0 0.9-0.4 1.5-1.3 0.6-0.8 1.2-1.9 1.8-3.3 0.6-1.3 1-2 1.1-2 0.1 0 0.2 0.1 0.2 0.2 0 0.6-0.3 1.5-0.9 2.7C93 113.7 91.6 115.5 90.5 115.5zM86.6 105.5c-0.6 0-1.1 0.4-1.7 1.3 -0.6 0.9-0.8 1.9-0.8 3.1s0.1 2.1 0.4 2.8 0.7 1.1 1.1 1.1c0.9 0 2-1.9 3.2-5.6 0.1-1.1 0.2-1.8 0.2-2C88.4 105.7 87.6 105.5 86.6 105.5zM98.4 105.9l0.1-0.5c0-0.4-0.2-0.6-0.6-0.6s-0.8 0.3-1.2 0.8c-0.4 0.5-0.6 1-0.6 1.3 0 0.4 0 0.6 0.1 0.8 0 0.2 0.1 0.4 0.1 0.5 0 0.1 0.1 0.3 0.3 0.5 0.1 0.2 0.2 0.3 0.3 0.4l0.3 0.4c0.1 0.2 0.2 0.3 0.3 0.4 1.1-0.9 2.3-1.9 3.8-3 0.1-0.1 0.2-0.1 0.3-0.1 0.2 0 0.3 0.1 0.3 0.3 0 0.2-0.1 0.4-0.3 0.5 -1.3 0.8-2.6 1.8-3.7 2.7 0.4 0.7 0.7 1.4 0.7 2.2 0 0.8-0.3 1.5-0.9 2 -0.6 0.6-1.4 0.8-2.3 0.8 -0.9 0-1.4-0.4-1.4-1.3 0-0.6 0.7-1.6 2-2.9 -0.1-0.1-0.3-0.3-0.6-0.6 -0.3-0.3-0.5-0.5-0.6-0.7 -0.1-0.2-0.3-0.4-0.5-0.6 -0.3-0.5-0.5-1.1-0.5-1.7 0-1.2 0.4-2.2 1.2-2.9 0.8-0.8 1.6-1.1 2.5-1.1 0.6 0 1 0.1 1.3 0.4 0.3 0.3 0.5 0.6 0.5 0.9 0 0.7-0.2 1-0.5 1C98.5 106.1 98.4 106.1 98.4 105.9zM96.5 111.9c-0.8 0.8-1.2 1.5-1.2 2 0 0.5 0.3 0.8 0.8 0.8 0.3 0 0.6-0.1 0.8-0.4C97.2 113.7 97.1 112.9 96.5 111.9z"/></g><path fill="#0990D3" d="M76.1 93.4l-0.6-1.6h-5.2l-0.6 1.6c-0.2 0.6-0.4 1.1-0.6 1.3 -0.2 0.2-0.4 0.3-0.8 0.3 -0.3 0-0.6-0.1-0.9-0.4 -0.2-0.2-0.4-0.5-0.4-0.8 0-0.2 0-0.4 0.1-0.5 0.1-0.2 0.2-0.4 0.3-0.8l3.3-8.3c0.1-0.2 0.2-0.5 0.3-0.9 0.1-0.3 0.3-0.6 0.4-0.8 0.1-0.2 0.3-0.4 0.6-0.5 0.2-0.1 0.5-0.2 0.9-0.2 0.4 0 0.7 0.1 0.9 0.2 0.2 0.1 0.4 0.3 0.6 0.5s0.3 0.4 0.4 0.7c0.1 0.2 0.2 0.6 0.4 1l3.3 8.3c0.3 0.6 0.4 1.1 0.4 1.4 0 0.3-0.1 0.6-0.4 0.8 -0.2 0.2-0.5 0.4-0.9 0.4 -0.2 0-0.4 0-0.5-0.1 -0.1-0.1-0.3-0.2-0.4-0.3s-0.2-0.3-0.3-0.6C76.2 93.8 76.1 93.6 76.1 93.4zM70.9 89.8h3.8l-1.9-5.3L70.9 89.8zM89.8 91c0 0.8-0.2 1.5-0.6 2.1s-1 1.1-1.7 1.4c-0.8 0.3-1.7 0.5-2.7 0.5 -1.3 0-2.3-0.2-3.1-0.7 -0.6-0.3-1.1-0.8-1.4-1.4 -0.4-0.6-0.5-1.1-0.5-1.7 0-0.3 0.1-0.6 0.3-0.8 0.2-0.2 0.5-0.3 0.8-0.3 0.3 0 0.5 0.1 0.7 0.3 0.2 0.2 0.4 0.4 0.5 0.8 0.2 0.4 0.3 0.7 0.5 1 0.2 0.3 0.5 0.5 0.8 0.7 0.3 0.2 0.8 0.3 1.4 0.3 0.8 0 1.4-0.2 1.9-0.5s0.7-0.8 0.7-1.3c0-0.4-0.1-0.8-0.4-1 -0.3-0.3-0.6-0.5-1-0.6s-1-0.3-1.6-0.4c-0.9-0.2-1.7-0.5-2.3-0.8 -0.6-0.3-1.1-0.7-1.5-1.2s-0.5-1.1-0.5-1.9c0-0.7 0.2-1.3 0.6-1.9 0.4-0.5 0.9-1 1.7-1.3 0.7-0.3 1.6-0.4 2.6-0.4 0.8 0 1.5 0.1 2 0.3 0.6 0.2 1 0.5 1.4 0.8 0.4 0.3 0.7 0.7 0.8 1 0.2 0.4 0.3 0.7 0.3 1 0 0.3-0.1 0.6-0.3 0.8 -0.2 0.2-0.5 0.4-0.8 0.4 -0.3 0-0.5-0.1-0.7-0.2 -0.2-0.1-0.3-0.4-0.5-0.7 -0.2-0.5-0.5-0.9-0.8-1.1 -0.3-0.3-0.8-0.4-1.6-0.4 -0.7 0-1.2 0.1-1.6 0.4 -0.4 0.3-0.6 0.6-0.6 1.1 0 0.3 0.1 0.5 0.2 0.7 0.1 0.2 0.3 0.3 0.6 0.5s0.5 0.2 0.7 0.3c0.3 0.1 0.7 0.2 1.2 0.3 0.7 0.2 1.4 0.4 2 0.6s1.1 0.5 1.5 0.7c0.4 0.3 0.7 0.7 1 1.1C89.7 89.8 89.8 90.3 89.8 91zM93.9 83.4V92.7h5.3c0.4 0 0.7 0.1 1 0.3 0.2 0.2 0.3 0.5 0.3 0.8 0 0.3-0.1 0.6-0.3 0.8 -0.2 0.2-0.5 0.3-1 0.3h-6.3c-0.6 0-1-0.1-1.2-0.4 -0.2-0.2-0.4-0.7-0.4-1.2v-9.9c0-0.5 0.1-0.9 0.4-1.2s0.5-0.4 0.9-0.4c0.4 0 0.7 0.1 0.9 0.4C93.7 82.5 93.9 82.9 93.9 83.4z"/></svg>