<?xml version="1.0" encoding="utf-8"?>
<!-- Generator: Adobe Illustrator 16.0.0, SVG Export Plug-In . SVG Version: 6.00 Build 0)  -->
<!DOCTYPE svg PUBLIC "-//W3C//DTD SVG 1.1//EN" "http://www.w3.org/Graphics/SVG/1.1/DTD/svg11.dtd">
<svg version="1.1" xmlns="http://www.w3.org/2000/svg" xmlns:xlink="http://www.w3.org/1999/xlink" x="0px" y="0px" width="308px"
	 height="85px" viewBox="0 0 308 85" enable-background="new 0 0 308 85" xml:space="preserve">
<g id="Layer_1">
	<g id="Layer_1_2_">
		<path opacity="0.9" fill="#65BCAB" enable-background="new    " d="M308,84.954c0,2.235-2.26,4.046-5.05,4.046H5.049
			C2.261,89,0,87.189,0,84.954V4.045C0,1.812,2.261,0,5.049,0H302.95c2.79,0,5.05,1.812,5.05,4.045V84.954z"/>
		<g>
			<g>
				
					<linearGradient id="SVGID_1_" gradientUnits="userSpaceOnUse" x1="228.25" y1="518.25" x2="228.25" y2="584.75" gradientTransform="matrix(1 0 0 1 -74 -509)">
					<stop  offset="0" style="stop-color:#50C5FF"/>
					<stop  offset="0.0463" style="stop-color:#44BCFF"/>
					<stop  offset="0.1645" style="stop-color:#2BABFF"/>
					<stop  offset="0.2972" style="stop-color:#189DFF"/>
					<stop  offset="0.4506" style="stop-color:#0A93FF"/>
					<stop  offset="0.6431" style="stop-color:#028EFF"/>
					<stop  offset="1" style="stop-color:#008CFF"/>
				</linearGradient>
				<path fill="url(#SVGID_1_)" d="M301.977,67.737c0,4.422-2.499,8.013-5.579,8.013H12.076C9,75.75,6.5,72.159,6.5,67.737V17.262
					c0-4.422,2.501-8.012,5.59-8.012h284.321c3.091,0,5.589,3.59,5.589,8.012v50.475H301.977z"/>
				<path fill="none" stroke="#0990D3" stroke-width="1.1976" stroke-miterlimit="10" d="M301.977,67.737
					c0,4.422-2.499,8.013-5.579,8.013H12.076C9,75.75,6.5,72.159,6.5,67.737V17.262c0-4.422,2.501-8.012,5.59-8.012h284.321
					c3.091,0,5.589,3.59,5.589,8.012v50.475H301.977z"/>
			</g>
		</g>
		<g>
			<path fill="#DDE5CE" d="M102.897,64.729c-0.459,0.181-0.92,0.271-1.386,0.271c-0.591,0-1.121-0.108-1.584-0.326
				c-0.466-0.218-0.861-0.514-1.186-0.881c-0.325-0.372-0.572-0.795-0.743-1.275c-0.171-0.48-0.254-0.979-0.254-1.495
				c0-0.577,0.079-1.127,0.238-1.646c0.159-0.521,0.396-0.979,0.71-1.37c0.313-0.39,0.706-0.704,1.175-0.936
				c0.469-0.233,1.017-0.35,1.646-0.35c0.429,0,0.833,0.051,1.213,0.15c0.38,0.101,0.721,0.257,1.021,0.471
				c0.299,0.214,0.551,0.485,0.754,0.813c0.204,0.33,0.341,0.729,0.416,1.194h-1.053c-0.052-0.303-0.149-0.565-0.289-0.781
				c-0.14-0.22-0.313-0.398-0.521-0.539c-0.208-0.14-0.442-0.245-0.704-0.314c-0.263-0.072-0.541-0.106-0.837-0.106
				c-0.481,0-0.892,0.096-1.236,0.289c-0.343,0.192-0.625,0.445-0.842,0.759c-0.218,0.314-0.379,0.672-0.483,1.074
				c-0.103,0.404-0.155,0.815-0.155,1.235c0,0.415,0.059,0.812,0.178,1.194c0.118,0.378,0.291,0.715,0.521,1.007
				c0.229,0.292,0.511,0.523,0.848,0.697c0.336,0.174,0.726,0.262,1.169,0.262c0.413,0,0.779-0.067,1.098-0.202
				c0.317-0.131,0.585-0.315,0.803-0.549c0.219-0.232,0.382-0.506,0.494-0.819c0.111-0.315,0.158-0.652,0.144-1.015h-2.527v-0.887
				h3.47v4.169h-0.665l-0.278-0.988C103.738,64.25,103.354,64.548,102.897,64.729z"/>
			<path fill="#DDE5CE" d="M112.343,56.907v0.886h-4.413v2.519h4.113v0.887h-4.113v2.738h4.446v0.887h-5.5v-7.916H112.343z"/>
			<path fill="#DDE5CE" d="M113.325,57.795v-0.886h6.33v0.886h-2.638v7.028h-1.054v-7.028H113.325z"/>
			<path fill="#DDE5CE" d="M120.354,64.823"/>
			<path fill="#DDE5CE" d="M130.042,56.907v0.886h-4.146v2.519h3.636v0.887h-3.636v3.625h-1.054v-7.916H130.042z"/>
			<path fill="#DDE5CE" d="M136.917,64.241C136.378,64.747,135.608,65,134.61,65c-1.019,0-1.815-0.242-2.388-0.726
				s-0.858-1.255-0.858-2.312v-5.055h1.052v5.055c0,0.712,0.188,1.248,0.565,1.614c0.377,0.366,0.919,0.55,1.628,0.55
				c0.673,0,1.185-0.184,1.536-0.55c0.352-0.366,0.527-0.902,0.527-1.614v-5.055h1.052v5.055
				C137.725,62.976,137.456,63.734,136.917,64.241z"/>
			<path fill="#DDE5CE" d="M138.899,57.795v-0.886h6.33v0.886h-2.639v7.028h-1.052v-7.028H138.899z"/>
			<path fill="#DDE5CE" d="M151.942,64.241c-0.539,0.506-1.308,0.759-2.306,0.759c-1.02,0-1.815-0.242-2.388-0.726
				c-0.574-0.483-0.86-1.255-0.86-2.312v-5.055h1.055v5.055c0,0.712,0.189,1.248,0.565,1.614c0.377,0.366,0.919,0.55,1.628,0.55
				c0.674,0,1.185-0.184,1.535-0.55c0.353-0.366,0.528-0.902,0.528-1.614v-5.055h1.053v5.055
				C152.753,62.976,152.482,63.734,151.942,64.241z"/>
			<path fill="#DDE5CE" d="M158.462,56.907c0.756,0,1.345,0.188,1.77,0.555c0.423,0.371,0.635,0.876,0.635,1.52
				c0,0.481-0.108,0.901-0.326,1.263c-0.217,0.364-0.568,0.61-1.047,0.744v0.021c0.228,0.044,0.416,0.118,0.558,0.222
				c0.146,0.104,0.26,0.229,0.344,0.374c0.085,0.142,0.147,0.304,0.189,0.479c0.04,0.177,0.071,0.363,0.092,0.554
				c0.018,0.194,0.027,0.389,0.036,0.59c0.006,0.2,0.024,0.394,0.055,0.588c0.029,0.192,0.073,0.374,0.128,0.549
				c0.056,0.172,0.138,0.326,0.247,0.46h-1.175c-0.071-0.081-0.121-0.193-0.149-0.334c-0.025-0.14-0.043-0.297-0.049-0.471
				c-0.009-0.172-0.016-0.358-0.022-0.56c-0.006-0.199-0.028-0.394-0.066-0.586c-0.029-0.193-0.065-0.376-0.111-0.55
				c-0.044-0.175-0.116-0.325-0.211-0.455c-0.094-0.129-0.22-0.233-0.377-0.31c-0.156-0.078-0.361-0.116-0.622-0.116h-2.568v3.381
				h-1.055v-7.916h3.727V56.907z M158.685,60.499c0.221-0.036,0.416-0.108,0.583-0.215c0.164-0.107,0.299-0.254,0.397-0.431
				c0.1-0.182,0.149-0.416,0.149-0.705c0-0.398-0.11-0.725-0.334-0.976c-0.221-0.25-0.579-0.378-1.072-0.378h-2.615v2.762h2.192
				C158.229,60.557,158.462,60.536,158.685,60.499z"/>
			<path fill="#DDE5CE" d="M168.136,56.907v0.886h-4.411v2.519h4.114v0.887h-4.114v2.738h4.444v0.887h-5.498v-7.916H168.136z"/>
			<path fill="#DDE5CE" d="M176.978,57.989c-0.354-0.256-0.802-0.381-1.349-0.381c-0.222,0-0.441,0.021-0.655,0.065
				c-0.215,0.045-0.404,0.117-0.568,0.223c-0.168,0.104-0.301,0.242-0.4,0.414c-0.1,0.174-0.15,0.391-0.15,0.647
				c0,0.245,0.074,0.443,0.217,0.595c0.146,0.152,0.336,0.276,0.576,0.371c0.24,0.097,0.513,0.177,0.815,0.239
				c0.303,0.064,0.611,0.132,0.925,0.205c0.313,0.074,0.623,0.161,0.926,0.26c0.304,0.1,0.573,0.234,0.813,0.405
				c0.242,0.17,0.433,0.385,0.577,0.644c0.146,0.257,0.216,0.583,0.216,0.976c0,0.421-0.092,0.78-0.281,1.08
				c-0.19,0.3-0.43,0.544-0.728,0.732c-0.294,0.189-0.626,0.326-0.992,0.409c-0.364,0.083-0.729,0.126-1.09,0.126
				c-0.442,0-0.863-0.056-1.26-0.166c-0.395-0.111-0.741-0.279-1.043-0.504c-0.297-0.227-0.533-0.514-0.706-0.865
				c-0.176-0.351-0.262-0.767-0.262-1.247h0.997c0,0.333,0.064,0.619,0.197,0.859c0.127,0.242,0.296,0.438,0.508,0.593
				c0.211,0.154,0.456,0.271,0.738,0.343c0.279,0.075,0.566,0.111,0.864,0.111c0.236,0,0.475-0.022,0.715-0.066
				c0.24-0.046,0.456-0.121,0.647-0.229s0.346-0.252,0.467-0.438c0.117-0.186,0.178-0.423,0.178-0.709
				c0-0.274-0.074-0.495-0.217-0.665c-0.146-0.169-0.337-0.309-0.576-0.414c-0.24-0.11-0.512-0.196-0.816-0.264
				c-0.303-0.066-0.61-0.134-0.925-0.204c-0.312-0.069-0.623-0.149-0.925-0.243c-0.303-0.094-0.575-0.214-0.815-0.365
				c-0.24-0.153-0.433-0.349-0.575-0.588c-0.145-0.241-0.216-0.542-0.216-0.905c0-0.398,0.079-0.743,0.243-1.035
				c0.163-0.291,0.378-0.532,0.648-0.721c0.27-0.189,0.575-0.329,0.92-0.424c0.344-0.09,0.696-0.138,1.059-0.138
				c0.406,0,0.783,0.048,1.13,0.145c0.349,0.096,0.651,0.246,0.915,0.455c0.262,0.206,0.468,0.468,0.619,0.78
				c0.152,0.315,0.236,0.689,0.249,1.125h-0.996C177.532,58.656,177.326,58.243,176.978,57.989z"/>
			<path fill="#DDE5CE" d="M181.584,56.907v7.916h-1.052v-7.916H181.584L181.584,56.907z"/>
			<path fill="#DDE5CE" d="M188.403,64.729c-0.456,0.181-0.92,0.271-1.386,0.271c-0.59,0-1.118-0.108-1.583-0.326
				c-0.467-0.218-0.862-0.514-1.187-0.881c-0.326-0.372-0.571-0.795-0.742-1.275c-0.169-0.48-0.255-0.979-0.255-1.495
				c0-0.577,0.08-1.127,0.238-1.646c0.159-0.521,0.395-0.979,0.71-1.37c0.313-0.39,0.706-0.704,1.177-0.936
				c0.468-0.233,1.017-0.35,1.645-0.35c0.427,0,0.833,0.051,1.215,0.15c0.381,0.101,0.721,0.257,1.02,0.471s0.55,0.485,0.754,0.813
				c0.201,0.33,0.342,0.729,0.415,1.194h-1.052c-0.053-0.303-0.149-0.565-0.288-0.781c-0.141-0.22-0.316-0.398-0.521-0.539
				c-0.207-0.14-0.441-0.245-0.703-0.314c-0.263-0.072-0.542-0.106-0.838-0.106c-0.479,0-0.893,0.096-1.236,0.289
				c-0.341,0.192-0.623,0.445-0.843,0.759c-0.217,0.314-0.379,0.672-0.481,1.074c-0.102,0.404-0.154,0.815-0.154,1.235
				c0,0.415,0.059,0.812,0.177,1.194c0.116,0.378,0.292,0.715,0.521,1.007c0.229,0.292,0.511,0.523,0.849,0.697
				c0.335,0.174,0.726,0.262,1.169,0.262c0.414,0,0.78-0.067,1.098-0.202c0.318-0.131,0.587-0.315,0.803-0.549
				c0.218-0.232,0.383-0.506,0.494-0.819c0.11-0.315,0.156-0.652,0.146-1.015h-2.529v-0.887h3.471v4.169h-0.665l-0.276-0.988
				C189.246,64.25,188.863,64.548,188.403,64.729z"/>
			<path fill="#DDE5CE" d="M193.501,56.907l4.167,6.42h0.023v-6.42h0.998v7.916h-1.154l-4.133-6.354h-0.021v6.354h-1v-7.916H193.501
				z"/>
			<path fill="#DDE5CE" d="M204.688,57.989c-0.354-0.256-0.802-0.381-1.35-0.381c-0.221,0-0.439,0.021-0.654,0.065
				c-0.213,0.045-0.404,0.117-0.567,0.223c-0.168,0.104-0.302,0.242-0.402,0.414c-0.1,0.174-0.148,0.391-0.148,0.647
				c0,0.245,0.073,0.443,0.216,0.595c0.146,0.152,0.337,0.276,0.576,0.371c0.24,0.097,0.513,0.177,0.816,0.239
				c0.304,0.064,0.611,0.132,0.924,0.205c0.314,0.074,0.624,0.161,0.927,0.26c0.303,0.1,0.573,0.234,0.814,0.405
				c0.24,0.17,0.432,0.385,0.576,0.644c0.145,0.257,0.215,0.583,0.215,0.976c0,0.421-0.091,0.78-0.279,1.08
				c-0.192,0.3-0.431,0.544-0.729,0.732c-0.294,0.189-0.625,0.326-0.991,0.409c-0.366,0.085-0.73,0.128-1.093,0.128
				c-0.443,0-0.863-0.056-1.26-0.165c-0.394-0.112-0.741-0.28-1.042-0.505c-0.298-0.227-0.535-0.514-0.707-0.865
				c-0.176-0.351-0.262-0.767-0.262-1.246h0.998c0,0.333,0.065,0.619,0.194,0.858c0.127,0.242,0.299,0.438,0.51,0.593
				c0.212,0.155,0.458,0.271,0.738,0.343c0.279,0.076,0.567,0.111,0.864,0.111c0.236,0,0.473-0.022,0.714-0.066
				c0.241-0.046,0.457-0.121,0.649-0.229c0.191-0.107,0.347-0.252,0.467-0.438c0.114-0.186,0.176-0.423,0.176-0.709
				c0-0.273-0.071-0.495-0.216-0.665c-0.145-0.169-0.337-0.309-0.575-0.414c-0.24-0.11-0.513-0.196-0.817-0.263
				c-0.303-0.067-0.609-0.135-0.924-0.205c-0.314-0.069-0.623-0.149-0.925-0.243c-0.304-0.094-0.575-0.214-0.816-0.365
				c-0.24-0.152-0.433-0.349-0.575-0.588c-0.146-0.24-0.217-0.542-0.217-0.905c0-0.397,0.08-0.742,0.243-1.035
				c0.164-0.291,0.38-0.532,0.65-0.721c0.269-0.188,0.574-0.329,0.918-0.423c0.346-0.091,0.698-0.139,1.06-0.139
				c0.407,0,0.782,0.048,1.13,0.145c0.349,0.096,0.652,0.246,0.915,0.455c0.262,0.206,0.469,0.469,0.619,0.78
				c0.152,0.315,0.237,0.69,0.248,1.126h-0.997C205.241,58.656,205.038,58.243,204.688,57.989z"/>
			<path fill="#DDE5CE" d="M216.675,56.907v0.886h-4.146v2.519h3.636v0.887h-3.636v3.625h-1.052v-7.916H216.675z"/>
			<path fill="#DDE5CE" d="M217.781,59.31c0.159-0.499,0.396-0.94,0.717-1.325c0.316-0.385,0.711-0.691,1.183-0.92
				c0.474-0.229,1.024-0.344,1.652-0.344s1.18,0.114,1.651,0.344c0.475,0.229,0.869,0.535,1.187,0.92
				c0.318,0.385,0.557,0.826,0.714,1.325c0.161,0.498,0.239,1.017,0.239,1.556s-0.078,1.059-0.239,1.558
				c-0.157,0.5-0.396,0.942-0.714,1.325c-0.319,0.384-0.712,0.689-1.187,0.913c-0.472,0.227-1.023,0.338-1.651,0.338
				s-1.179-0.111-1.652-0.338c-0.472-0.224-0.868-0.529-1.183-0.913c-0.32-0.383-0.558-0.827-0.717-1.325
				c-0.158-0.499-0.239-1.019-0.239-1.558C217.543,60.326,217.623,59.806,217.781,59.31z M218.751,62.046
				c0.104,0.388,0.267,0.737,0.49,1.047c0.22,0.312,0.503,0.562,0.853,0.75c0.346,0.189,0.762,0.283,1.24,0.283
				c0.48,0,0.894-0.094,1.243-0.283c0.346-0.188,0.631-0.438,0.854-0.75c0.22-0.31,0.381-0.657,0.485-1.047
				c0.104-0.389,0.157-0.781,0.157-1.181c0-0.398-0.053-0.793-0.157-1.182c-0.104-0.388-0.266-0.735-0.485-1.048
				c-0.223-0.309-0.508-0.56-0.854-0.748c-0.35-0.188-0.763-0.284-1.243-0.284c-0.479,0-0.895,0.096-1.24,0.284
				c-0.35,0.188-0.633,0.439-0.853,0.748c-0.224,0.311-0.386,0.659-0.49,1.048c-0.102,0.387-0.153,0.783-0.153,1.182
				C218.598,61.265,218.649,61.657,218.751,62.046z"/>
			<path fill="#DDE5CE" d="M230.453,56.907c0.755,0,1.345,0.188,1.768,0.555c0.424,0.371,0.638,0.876,0.638,1.52
				c0,0.481-0.108,0.901-0.328,1.263c-0.216,0.364-0.567,0.61-1.046,0.744v0.021c0.228,0.044,0.416,0.118,0.559,0.222
				c0.145,0.104,0.259,0.229,0.344,0.374c0.085,0.142,0.147,0.304,0.188,0.479c0.041,0.177,0.069,0.363,0.093,0.554
				c0.015,0.194,0.025,0.389,0.035,0.59c0.006,0.2,0.025,0.394,0.054,0.588c0.03,0.192,0.073,0.374,0.127,0.549
				c0.059,0.172,0.14,0.326,0.249,0.46h-1.174c-0.072-0.081-0.124-0.193-0.149-0.334c-0.026-0.14-0.043-0.297-0.05-0.471
				c-0.01-0.172-0.016-0.358-0.022-0.56c-0.009-0.199-0.029-0.394-0.065-0.586c-0.032-0.193-0.068-0.376-0.112-0.55
				c-0.044-0.175-0.115-0.325-0.211-0.455c-0.095-0.129-0.22-0.233-0.377-0.31c-0.156-0.078-0.361-0.116-0.621-0.116h-2.57v3.381
				h-1.054v-7.916h3.727V56.907z M230.675,60.499c0.222-0.036,0.417-0.108,0.583-0.215c0.164-0.107,0.3-0.254,0.398-0.431
				c0.101-0.182,0.15-0.416,0.15-0.705c0-0.398-0.111-0.725-0.335-0.976c-0.22-0.25-0.579-0.378-1.073-0.378h-2.616v2.762h2.194
				C230.221,60.557,230.453,60.536,230.675,60.499z"/>
			<path fill="#DDE5CE" d="M243.09,56.907v0.886h-4.146v2.519h3.636v0.887h-3.636v3.625h-1.053v-7.916H243.09z"/>
			<path fill="#DDE5CE" d="M248.16,56.907c0.755,0,1.344,0.188,1.768,0.555c0.424,0.371,0.637,0.876,0.637,1.52
				c0,0.481-0.108,0.901-0.328,1.263c-0.216,0.364-0.567,0.61-1.046,0.744v0.021c0.228,0.044,0.416,0.118,0.559,0.222
				c0.146,0.104,0.26,0.229,0.344,0.374c0.085,0.142,0.147,0.304,0.188,0.479c0.042,0.177,0.073,0.363,0.094,0.554
				c0.018,0.194,0.025,0.389,0.034,0.59c0.008,0.2,0.027,0.394,0.055,0.588c0.03,0.192,0.074,0.374,0.128,0.549
				c0.057,0.172,0.139,0.326,0.25,0.46h-1.176c-0.073-0.081-0.123-0.193-0.149-0.334c-0.023-0.14-0.043-0.297-0.049-0.471
				c-0.009-0.172-0.017-0.358-0.024-0.56c-0.007-0.199-0.028-0.394-0.066-0.586c-0.028-0.193-0.065-0.376-0.111-0.55
				c-0.043-0.175-0.114-0.325-0.211-0.455c-0.093-0.129-0.219-0.233-0.375-0.31c-0.157-0.078-0.362-0.116-0.622-0.116h-2.57v3.381
				h-1.053v-7.916h3.727V56.907z M248.381,60.499c0.222-0.036,0.417-0.108,0.584-0.215c0.164-0.107,0.298-0.254,0.397-0.431
				c0.1-0.182,0.15-0.416,0.15-0.705c0-0.398-0.111-0.725-0.335-0.976c-0.22-0.25-0.579-0.378-1.074-0.378h-2.615v2.762h2.194
				C247.928,60.557,248.16,60.536,248.381,60.499z"/>
			<path fill="#DDE5CE" d="M257.835,56.907v0.886h-4.412v2.519h4.113v0.887h-4.113v2.738h4.444v0.887h-5.498v-7.916H257.835z"/>
			<path fill="#DDE5CE" d="M264.833,56.907v0.886h-4.408v2.519h4.111v0.887h-4.111v2.738h4.443v0.887h-5.5v-7.916H264.833z"/>
		</g>
		<g id="Layer_1_1_">
			<g id="border" display="none">
				<path display="inline" fill="#65BCAB" d="M304,96.109c0,6.57-5.35,11.891-11.96,11.891H9.96C3.36,108-2,102.68-2,96.109V10.89
					C-2,4.32,3.36-1,9.96-1h282.08C298.641-1,304,4.32,304,10.89V96.109L304,96.109z"/>
			</g>
			<g id="girl">
				<g id="girl_1_">
					<path fill="#DDE5CE" d="M59.608,81.32c-0.189-1.73-0.365-3.524-1.237-5.051c-0.253-0.441-0.467-0.796-0.657-1.086
						c0.329-0.72,0.481-1.414,0.354-1.817c-2.803-9.025-7.853-23.48-11.286-32.279c-0.67-1.718-3.03-3.511-4.911-3.915
						c-4.494-0.96-9.165-1.452-13.76-1.514c-6.173-0.088-10.226-1.413-13.305-4.911c0.138-2.776,1.073-5.542,2.941-7.649
						c1.363,5.819,6.161,10.717,11.879,10.717c5.668,0,10.439-4.821,11.854-10.578c2.285,2.676,3.131,6.337,2.752,9.784
						c6.426-0.177,7.701-10.63-2.335-12.827c0-0.125,0.013-0.251,0.013-0.378c0-7.121-5.492-12.902-12.271-12.902
						c-6.78,0-12.259,5.781-12.259,12.902v0.354c-3.232,0.669-5.302,2.197-6.438,3.951c-0.013-0.025-0.025-0.049-0.025-0.063
						c-1.415-3.434-1.286-2.232-1.989-5.882c0.617-1.314,4.536-0.601,5.351-1.803c0.433-0.642,1.016-1.181,1.428-1.851
						c0.34-0.542,0.156-1.101,0.34-1.709c0.209-0.682,0.48-2.799-0.995-2.213c-1.43,0.543-0.734,2.344-1.739,3.245
						c-0.287,0.244-1.083,0.912-1.517,0.681c-0.435-0.23-0.835-1.006-0.945-1.474c-0.342-1.407,0.088-2.754,1.255-3.56
						c0.934-0.272,1.895,1.833,2.884,0.662c0.388-0.457,0.334-0.876-0.142-1.23c-0.615-0.441-1.229-0.947-1.879-1.344
						c-1.192-0.723-2.389-0.408-3.339,0.552c-0.45,0.447-0.603,1.163-0.83,1.725c-0.049,0.132-0.678,1.663-0.873,0.731
						C7.76,9.8,7.733,8.281,7.784,7.483C7.68,6.618,7.738,5.411,7.785,3.765C7.799,2.959,8.009,1.113,7.539,0.44
						c-0.246-0.352-0.86-0.575-1.247-0.349c-0.716,0.426-0.577,1.091-0.59,1.82l0.048,8.814c-0.105,0.598-0.129,0.875-0.594,0.819
						c-0.172-1.71-0.403-3.532-0.73-5.231C4.263,5.49,4.292,1.547,2.58,2.603C1.691,3.14,2.176,4.162,2.318,4.955
						c0.17,1.004,0.322,2.031,0.491,3.034c0.169,1.005,0.376,2.015,0.492,3.035c0.089,0.799,0.58,1.5-0.438,1.68
						c-0.219-1.012-0.555-2.021-0.854-3.009C1.811,9.006,1.576,7.144,0.828,6.948c-1.795-0.586-0.132,4.452,0.013,4.938
						c0.517,1.72,0.825,3.466,1.507,5.125c0.29,0.707,0.45,1.36,0.828,2.02c3.058,7.849,2.935,14.096,7.514,21.07
						c5.1,7.801,6.741,14.166,5.15,22.698c-1.364,7.246-3.61,15.768-5.113,23.343c2.424,0.251,4.418,0.454,7.663,0.794
						c0,1.733,0.011,3.475,0.022,5.22c3.346-0.006,6.692,0.02,10.038,0.062c0.098-1.836,0.195-3.673,0.277-5.508
						c0.568-0.113,2.324-0.013,2.916-0.051c0.279,1.148,0.178,1.881,0.252,3.017c0.052,0.858,0.095,1.719,0.139,2.579
						c3.36,0.038,6.72,0.049,10.08,0.017c0.01-1.727,0.019-3.463,0.019-5.222c2.916-0.34,5.049-0.605,7.499-0.896
						c-1.654-8.472-3.787-17.08-5.39-25.324l5.024,9.33c0.771,1.35,2.386,5.467,4.141,7.146c0.139,0.403,0.354,0.807,0.644,1.197
						c0.568,0.81,1.036,1.668,1.553,2.487c0.139,0.215,0.329,0.392,0.481,0.604c0.176,0.229,0.455,0.456,0.505,0.708
						c0.251,1.338,0.708,2.55,1.78,3.423c0.139,0.124,0.417,0.213,0.568,0.162c0.152-0.05,0.329-0.277,0.354-0.455
						c0.05-0.353,0-0.708-0.013-1.071c0-0.381,0-0.76,0.051-1.126C59.394,82.582,59.659,81.938,59.608,81.32z"/>
				</g>
			</g>
			<path fill="#EA5F72" d="M35.815,43.143c-2.938,0-5.791,3.522-5.791,3.522s-2.854-3.522-5.791-3.522
				c-2.938,0-5.736,1.476-5.736,5.794c0,3.062,2.883,5.763,2.883,5.763l8.646,8.617l8.645-8.617c0,0,2.882-2.688,2.882-5.763
				C41.539,44.618,38.739,43.143,35.815,43.143z"/>
		</g>
	</g>
	<g id="Layer_2" display="none">
	</g>
	<g>
		<path fill="#DDE5CE" d="M93.173,59.848v1.872h-3.29v3.479h-1.769V61.72h-3.288v-1.872h3.288v-3.479h1.769v3.479H93.173z"/>
	</g>
</g>
<g id="Layer_3">
	<g>
		<path fill="#FFFFFF" d="M68.816,31.064l4.806,12.852h-2.934l-0.972-2.862h-4.806l-1.008,2.862h-2.844l4.86-12.852H68.816z
			 M68.979,38.948l-1.62-4.716h-0.036l-1.674,4.716H68.979z"/>
		<path fill="#FFFFFF" d="M80.477,31.064c0.828,0,1.599,0.132,2.313,0.396c0.714,0.264,1.332,0.66,1.854,1.188
			c0.522,0.528,0.93,1.188,1.224,1.98s0.441,1.722,0.441,2.79c0,0.936-0.12,1.8-0.36,2.592c-0.24,0.792-0.603,1.476-1.089,2.052
			s-1.092,1.03-1.818,1.359c-0.726,0.33-1.581,0.495-2.565,0.495h-5.544V31.064H80.477z M80.279,41.54
			c0.408,0,0.804-0.066,1.188-0.198c0.384-0.132,0.726-0.351,1.026-0.657c0.3-0.306,0.54-0.705,0.72-1.197
			c0.18-0.492,0.27-1.092,0.27-1.8c0-0.648-0.063-1.233-0.189-1.755s-0.333-0.969-0.621-1.341c-0.288-0.372-0.669-0.657-1.143-0.855
			c-0.474-0.198-1.059-0.297-1.755-0.297h-2.016v8.1H80.279z"/>
		<path fill="#FFFFFF" d="M93.867,31.064c0.828,0,1.599,0.132,2.313,0.396c0.714,0.264,1.332,0.66,1.854,1.188
			c0.522,0.528,0.93,1.188,1.224,1.98s0.441,1.722,0.441,2.79c0,0.936-0.12,1.8-0.36,2.592c-0.24,0.792-0.603,1.476-1.089,2.052
			s-1.092,1.03-1.818,1.359c-0.726,0.33-1.581,0.495-2.565,0.495h-5.544V31.064H93.867z M93.669,41.54
			c0.408,0,0.804-0.066,1.188-0.198c0.384-0.132,0.726-0.351,1.026-0.657c0.3-0.306,0.54-0.705,0.72-1.197
			c0.18-0.492,0.27-1.092,0.27-1.8c0-0.648-0.063-1.233-0.189-1.755s-0.333-0.969-0.621-1.341c-0.288-0.372-0.669-0.657-1.143-0.855
			c-0.474-0.198-1.059-0.297-1.755-0.297h-2.016v8.1H93.669z"/>
		<path fill="#CAE264" d="M104.819,32.402c0.266-0.456,0.611-0.836,1.036-1.14c0.424-0.304,0.902-0.532,1.435-0.684
			c0.532-0.152,1.07-0.228,1.615-0.228c0.823,0,1.52,0.126,2.09,0.38c0.57,0.253,1.029,0.561,1.377,0.921
			c0.348,0.361,0.599,0.748,0.75,1.159s0.228,0.782,0.228,1.111c0,0.659-0.162,1.235-0.484,1.729
			c-0.323,0.494-0.808,0.849-1.454,1.064v0.038c0.798,0.178,1.412,0.554,1.843,1.13c0.431,0.577,0.646,1.283,0.646,2.119
			c0,0.709-0.143,1.324-0.427,1.843c-0.285,0.52-0.662,0.95-1.13,1.292c-0.469,0.342-1.001,0.599-1.596,0.77
			c-0.596,0.172-1.204,0.257-1.824,0.257c-0.646,0-1.27-0.079-1.871-0.237c-0.602-0.158-1.14-0.408-1.615-0.751
			c-0.475-0.342-0.855-0.772-1.14-1.292c-0.285-0.519-0.427-1.14-0.427-1.862c0-0.849,0.218-1.558,0.655-2.128
			s1.055-0.95,1.853-1.14v-0.038c-0.646-0.177-1.134-0.513-1.463-1.007c-0.33-0.494-0.494-1.07-0.494-1.729
			C104.42,33.384,104.553,32.858,104.819,32.402z M106.757,40.819c0.126,0.279,0.295,0.517,0.504,0.713s0.459,0.348,0.75,0.456
			c0.291,0.108,0.595,0.162,0.912,0.162c0.33,0,0.63-0.054,0.903-0.162c0.272-0.107,0.513-0.259,0.722-0.456
			s0.371-0.434,0.485-0.713c0.114-0.278,0.171-0.583,0.171-0.912c0-0.317-0.061-0.605-0.181-0.865
			c-0.121-0.259-0.285-0.484-0.494-0.674s-0.45-0.335-0.722-0.437c-0.272-0.102-0.567-0.152-0.884-0.152
			c-0.659,0-1.216,0.181-1.672,0.542c-0.456,0.361-0.684,0.884-0.684,1.568C106.567,40.23,106.63,40.541,106.757,40.819z
			 M107.479,35.527c0.405,0.298,0.88,0.447,1.425,0.447c0.57,0,1.045-0.149,1.425-0.447c0.38-0.297,0.57-0.731,0.57-1.301
			c0-0.177-0.025-0.371-0.076-0.58c-0.051-0.209-0.149-0.409-0.295-0.599s-0.348-0.348-0.608-0.475s-0.598-0.19-1.017-0.19
			c-0.266,0-0.522,0.042-0.769,0.124c-0.247,0.083-0.466,0.2-0.656,0.352c-0.19,0.152-0.339,0.342-0.446,0.57
			c-0.108,0.228-0.162,0.494-0.162,0.798C106.871,34.796,107.074,35.23,107.479,35.527z"/>
		<path fill="#CAE264" d="M122.108,35.176c-0.539,0.887-0.988,1.831-1.349,2.831c-0.361,1.001-0.64,2.014-0.836,3.04
			c-0.197,1.026-0.301,1.982-0.313,2.869h-2.888c0.152-1.988,0.618-3.901,1.396-5.738c0.779-1.837,1.802-3.521,3.068-5.054h-6.308
			v-2.508h9.082v2.318C123.264,33.542,122.646,34.29,122.108,35.176z"/>
		<path fill="#FFFFFF" d="M131.288,40.748c0.154,0.3,0.361,0.543,0.621,0.729c0.258,0.186,0.561,0.324,0.908,0.414
			c0.348,0.09,0.707,0.135,1.08,0.135c0.252,0,0.521-0.021,0.811-0.063c0.287-0.042,0.557-0.123,0.809-0.243
			s0.463-0.285,0.631-0.495s0.252-0.477,0.252-0.801c0-0.348-0.111-0.63-0.334-0.846c-0.221-0.216-0.512-0.396-0.873-0.54
			c-0.359-0.144-0.768-0.27-1.223-0.378c-0.457-0.108-0.918-0.228-1.387-0.36c-0.48-0.12-0.947-0.267-1.404-0.441
			c-0.456-0.174-0.863-0.399-1.224-0.675c-0.36-0.276-0.651-0.621-0.873-1.035s-0.333-0.915-0.333-1.503
			c0-0.66,0.141-1.233,0.423-1.719c0.282-0.486,0.651-0.891,1.107-1.215c0.456-0.324,0.972-0.564,1.548-0.72
			s1.152-0.234,1.729-0.234c0.672,0,1.316,0.075,1.936,0.225c0.617,0.15,1.166,0.393,1.646,0.729
			c0.479,0.336,0.861,0.765,1.143,1.287s0.424,1.155,0.424,1.899h-2.736c-0.025-0.384-0.105-0.702-0.244-0.954
			c-0.137-0.252-0.32-0.45-0.549-0.594s-0.488-0.246-0.783-0.306c-0.293-0.06-0.615-0.09-0.963-0.09
			c-0.229,0-0.455,0.024-0.684,0.072c-0.229,0.048-0.436,0.132-0.621,0.252c-0.186,0.12-0.34,0.27-0.459,0.45
			s-0.18,0.408-0.18,0.684c0,0.252,0.047,0.456,0.145,0.612c0.096,0.156,0.285,0.3,0.566,0.432c0.281,0.132,0.672,0.264,1.17,0.396
			c0.498,0.132,1.148,0.3,1.953,0.504c0.24,0.048,0.572,0.135,0.998,0.261s0.85,0.327,1.27,0.603s0.783,0.645,1.09,1.107
			c0.305,0.462,0.459,1.053,0.459,1.773c0,0.588-0.115,1.134-0.342,1.638c-0.229,0.504-0.568,0.939-1.018,1.305
			c-0.449,0.366-1.008,0.651-1.674,0.855c-0.666,0.203-1.438,0.306-2.312,0.306c-0.709,0-1.396-0.087-2.062-0.261
			s-1.253-0.447-1.763-0.819c-0.51-0.372-0.916-0.846-1.215-1.422c-0.3-0.576-0.444-1.26-0.432-2.052h2.736
			C131.054,40.082,131.132,40.448,131.288,40.748z"/>
		<path fill="#FFFFFF" d="M143.85,31.064v12.852h-2.826V31.064H143.85z"/>
		<path fill="#FFFFFF" d="M154.043,43.816c-0.612,0.258-1.23,0.388-1.854,0.388c-0.984,0-1.869-0.171-2.655-0.513
			s-1.448-0.813-1.988-1.414c-0.54-0.6-0.954-1.305-1.242-2.115s-0.433-1.683-0.433-2.619c0-0.96,0.145-1.851,0.433-2.673
			s0.702-1.539,1.242-2.151c0.54-0.612,1.202-1.092,1.988-1.44c0.786-0.348,1.671-0.522,2.655-0.522c0.66,0,1.299,0.099,1.917,0.297
			c0.618,0.198,1.176,0.489,1.674,0.873c0.498,0.384,0.909,0.858,1.233,1.422s0.521,1.212,0.594,1.944h-2.7
			c-0.168-0.72-0.492-1.26-0.972-1.62c-0.48-0.36-1.062-0.54-1.746-0.54c-0.636,0-1.176,0.124-1.62,0.369
			c-0.444,0.246-0.804,0.576-1.08,0.99s-0.477,0.885-0.603,1.413c-0.126,0.528-0.189,1.074-0.189,1.638
			c0,0.54,0.063,1.065,0.189,1.575s0.326,0.969,0.603,1.377c0.276,0.408,0.636,0.735,1.08,0.981c0.444,0.246,0.984,0.369,1.62,0.369
			c0.937,0,1.659-0.237,2.169-0.711s0.807-1.161,0.891-2.061h-2.844v-2.106h5.4v6.948h-1.8l-0.288-1.458
			C155.213,43.105,154.654,43.559,154.043,43.816z"/>
		<path fill="#FFFFFF" d="M163.057,31.064l5.364,8.622h0.036v-8.622h2.646v12.852h-2.826l-5.346-8.604h-0.036v8.604h-2.646V31.064
			H163.057z"/>
		<path fill="#FFFFFF" d="M175.918,40.748c0.155,0.3,0.362,0.543,0.621,0.729c0.258,0.186,0.561,0.324,0.908,0.414
			c0.349,0.09,0.708,0.135,1.08,0.135c0.252,0,0.522-0.021,0.811-0.063c0.288-0.042,0.558-0.123,0.81-0.243s0.462-0.285,0.63-0.495
			s0.252-0.477,0.252-0.801c0-0.348-0.11-0.63-0.333-0.846c-0.222-0.216-0.513-0.396-0.873-0.54
			c-0.359-0.144-0.768-0.27-1.224-0.378s-0.918-0.228-1.386-0.36c-0.48-0.12-0.948-0.267-1.404-0.441
			c-0.456-0.174-0.864-0.399-1.224-0.675c-0.36-0.276-0.651-0.621-0.873-1.035c-0.223-0.414-0.333-0.915-0.333-1.503
			c0-0.66,0.141-1.233,0.423-1.719c0.281-0.486,0.65-0.891,1.106-1.215c0.456-0.324,0.973-0.564,1.549-0.72
			c0.575-0.156,1.151-0.234,1.728-0.234c0.672,0,1.316,0.075,1.936,0.225c0.617,0.15,1.166,0.393,1.646,0.729
			c0.479,0.336,0.861,0.765,1.143,1.287c0.282,0.522,0.424,1.155,0.424,1.899h-2.736c-0.024-0.384-0.105-0.702-0.243-0.954
			s-0.321-0.45-0.549-0.594c-0.229-0.144-0.489-0.246-0.783-0.306s-0.615-0.09-0.963-0.09c-0.229,0-0.456,0.024-0.684,0.072
			c-0.229,0.048-0.436,0.132-0.621,0.252c-0.187,0.12-0.34,0.27-0.459,0.45c-0.12,0.18-0.181,0.408-0.181,0.684
			c0,0.252,0.048,0.456,0.145,0.612c0.096,0.156,0.285,0.3,0.566,0.432c0.282,0.132,0.672,0.264,1.171,0.396
			c0.497,0.132,1.148,0.3,1.952,0.504c0.24,0.048,0.573,0.135,0.999,0.261s0.85,0.327,1.27,0.603s0.783,0.645,1.089,1.107
			s0.459,1.053,0.459,1.773c0,0.588-0.114,1.134-0.342,1.638c-0.229,0.504-0.567,0.939-1.018,1.305
			c-0.449,0.366-1.008,0.651-1.674,0.855c-0.666,0.203-1.437,0.306-2.312,0.306c-0.708,0-1.396-0.087-2.062-0.261
			s-1.254-0.447-1.764-0.819c-0.511-0.372-0.915-0.846-1.215-1.422c-0.301-0.576-0.444-1.26-0.433-2.052h2.736
			C175.684,40.082,175.762,40.448,175.918,40.748z"/>
		<path fill="#FFFFFF" d="M193.432,31.064l5.364,8.622h0.036v-8.622h2.646v12.852h-2.826l-5.346-8.604h-0.036v8.604h-2.646V31.064
			H193.432z"/>
		<path fill="#FFFFFF" d="M203.906,34.871c0.288-0.822,0.702-1.539,1.242-2.151c0.54-0.612,1.202-1.092,1.988-1.44
			c0.786-0.348,1.671-0.522,2.655-0.522c0.996,0,1.884,0.174,2.664,0.522c0.78,0.349,1.44,0.828,1.98,1.44
			c0.539,0.612,0.953,1.329,1.241,2.151s0.433,1.713,0.433,2.673c0,0.936-0.145,1.809-0.433,2.619s-0.702,1.515-1.241,2.115
			c-0.54,0.601-1.2,1.072-1.98,1.414s-1.668,0.513-2.664,0.513c-0.984,0-1.869-0.171-2.655-0.513s-1.448-0.813-1.988-1.414
			c-0.54-0.6-0.954-1.305-1.242-2.115s-0.433-1.683-0.433-2.619C203.474,36.584,203.618,35.693,203.906,34.871z M206.489,39.119
			c0.126,0.51,0.326,0.969,0.603,1.377c0.276,0.408,0.636,0.735,1.08,0.981c0.444,0.246,0.984,0.369,1.62,0.369
			s1.176-0.123,1.62-0.369c0.443-0.246,0.804-0.573,1.08-0.981c0.275-0.408,0.477-0.867,0.603-1.377s0.189-1.035,0.189-1.575
			c0-0.564-0.063-1.11-0.189-1.638c-0.126-0.528-0.327-0.999-0.603-1.413c-0.276-0.414-0.637-0.744-1.08-0.99
			c-0.444-0.246-0.984-0.369-1.62-0.369s-1.176,0.124-1.62,0.369c-0.444,0.246-0.804,0.576-1.08,0.99s-0.477,0.885-0.603,1.413
			c-0.126,0.528-0.189,1.074-0.189,1.638C206.3,38.084,206.363,38.609,206.489,39.119z"/>
		<path fill="#FFFFFF" d="M227.214,43.916l-2.178-8.748H225l-2.142,8.748h-2.862l-3.402-12.852h2.826l2.034,8.748h0.036l2.231-8.748
			h2.646l2.196,8.856h0.035l2.106-8.856h2.772l-3.456,12.852H227.214z"/>
	</g>
</g>
<g id="Layer_4" display="none">
	<text transform="matrix(1 0 0 1 60.1665 42.916)" display="inline"><tspan x="0" y="0" fill="#FFFFFF" font-family="'HelveticaNeue-Bold'" font-size="18">ADD</tspan><tspan x="39.276" y="0" fill="#DDE5CE" font-family="'HelveticaNeue-Bold'" font-size="18"> </tspan><tspan x="44.37" y="0" fill="#CAE264" font-family="'HelveticaNeue-Bold'" font-size="19">87</tspan><tspan x="65.678" y="0" fill="#DDE5CE" font-family="'HelveticaNeue-Bold'" font-size="18"> </tspan><tspan x="70.772" y="0" fill="#FFFFFF" font-family="'HelveticaNeue-Bold'" font-size="18">SIGNS NOW</tspan></text>
</g>
<g id="Layer_5" display="none">
	<g display="inline">
		<path fill-rule="evenodd" clip-rule="evenodd" fill="#50C5FF" d="M282.257,55.206c0-0.163,0-0.266,0-0.367
			c0-7.646,0.001-0.292-0.003-7.938c0-0.562,0.188-1.045,0.754-1.387c0.597-0.36,1.254-0.418,1.918-0.16
			c0.665,0.258,1.024,0.708,1.067,1.316c0.009,0.123,0.007,0.248,0.007,0.371c0,7.584,0,0.169,0,7.752c0,0.101,0,0.203,0,0.337
			c0.119,0,0.215,0,0.312,0c1.557-0.019,3.112-0.039,4.668-0.054c0.74-0.009,1.286,0.299,1.458,0.836
			c0.127,0.391-0.005,0.736-0.293,1.063c-1.155,1.312-2.306,2.627-3.456,3.942c-1.136,1.3-2.27,2.599-3.403,3.899
			c-0.584,0.668-1.646,0.687-2.313,0.028c-0.711-0.701-1.409-1.412-2.114-2.118c-1.85-1.854-3.701-3.704-5.548-5.56
			c-0.367-0.368-0.474-0.787-0.229-1.23c0.253-0.46,0.718-0.673,1.322-0.681c1.473-0.02,2.945-0.035,4.417-0.05
			C281.287,55.203,281.755,55.206,282.257,55.206z"/>
	</g>
</g>
</svg>
