<?xml version="1.0" encoding="utf-8"?>
<!-- Generator: Adobe Illustrator 16.0.0, SVG Export Plug-In . SVG Version: 6.00 Build 0)  -->
<!DOCTYPE svg PUBLIC "-//W3C//DTD SVG 1.1//EN" "http://www.w3.org/Graphics/SVG/1.1/DTD/svg11.dtd">
<svg version="1.1" xmlns="http://www.w3.org/2000/svg" xmlns:xlink="http://www.w3.org/1999/xlink" x="0px" y="0px" width="308px"
	 height="70px" viewBox="0 0 308 70" enable-background="new 0 0 308 70" xml:space="preserve">
<g id="Layer_10">
	<path fill="#65BCAB" d="M307,129.032c0,2.744-2.231,4.968-4.983,4.968H5.984C3.231,134,1,131.776,1,129.032V5.837
		C1,3.094,3.231,1,5.984,1h296.033C304.769,1,307,3.094,307,5.837V129.032z"/>
</g>
<g id="Layer_1">
</g>
<g id="Layer_6">
</g>
<g id="rainbow">
	<g id="Layer_4_1_">
		<g>
			<path fill="#0990D3" d="M304.476,71.04c-20.438-14.529-42.865-28.741-68.604-39.097C208.309,20.865,176.69,13.062,142.095,13
				c-38.068-0.093-80.884,9.302-124.714,27.87C-17.08,55.455-52.604,71.137-90,85.904l0.528,35.995l16.201-0.239
				c30.679-21.53,60.671-41.796,90.274-59.58c43.583-26.153,87.377-38.398,125.51-40.567c34.275-1.949,66.062,4.351,93.487,14.432
				c25.844,9.503,48.153,23.178,68.245,37.115c18.896,13.107,36.302,26.794,50.282,42.057c0.027,0.041,0.078,0.078,0.104,0.119
				l1.498-0.029c-0.443-0.491-0.886-0.983-1.351-1.471C340.742,98.525,323.472,84.554,304.476,71.04z"/>
			<path fill="#BBD367" d="M142.353,29.022c33.955-3.959,65.647,1.007,93.166,10.169c25.784,8.583,48.248,21.619,68.408,35.083
				c18.287,12.219,35.259,25.304,49.01,40.022l1.564-0.016c-0.024-0.02-0.027-0.041-0.051-0.06
				c-13.993-15.194-31.325-28.98-50.218-42.066c-20.134-13.908-42.513-27.619-68.305-37.062
				c-27.558-10.084-59.298-16.368-93.632-14.368c-37.944,2.254-81.788,14.617-125.319,40.83
				c-29.026,17.482-58.399,37.597-88.419,59.104l40.644-0.615c15.196-13.66,30.408-26.396,45.696-38.104"/>
			<path fill="#F6C063" d="M-29.967,118.715l22.747-0.342c5.864-5.864,11.777-11.536,17.742-16.993
				c43.194-39.595,91.311-58.31,130.809-65.171c34.3-5.951,66.293-2.328,93.762,5.824c25.739,7.617,48.204,20.013,68.319,32.996
				c17.981,11.599,34.403,23.897,47.916,38.009l1.476-0.025c-13.7-14.683-30.59-27.646-48.883-39.908
				c-20.141-13.488-42.623-26.501-68.407-35.083c-27.473-9.146-59.155-14.047-93.093-9.958
				c-38.718,4.657-84.723,20.1-127.728,53.197"/>
			<path fill="#D69D3C" d="M303.533,74.307c-20.169-13.044-42.723-25.449-68.437-33.048c-27.417-8.093-59.351-11.768-93.642-5.752
				c-39.598,6.942-87.858,25.897-131.199,65.71c-5.707,5.246-11.346,10.658-16.958,16.268l15.582-0.241
				c44.443-41.114,91.368-64.325,130.63-73.386c34.704-7.993,67.496-5.63,95.159,1.523c25.648,6.637,48.194,18.336,68.479,30.943
				c17.121,10.635,33.214,22.315,46.353,35.795l1.588-0.02C337.635,98.09,321.252,85.763,303.533,74.307z"/>
			<path fill="#EA5F72" d="M303.151,75.064c-20.284-12.606-42.83-24.306-68.479-30.942c-27.663-7.153-60.458-9.54-95.158-1.524
				c-39.262,9.061-86.189,32.251-130.63,73.385l13.577-0.209c39.015-34.492,80.243-54.955,114.802-64.806
				c35.005-9.977,68.817-9.034,97.023-2.751c25.472,5.667,48.202,16.944,68.462,29.046c16.675,9.968,32.362,20.776,45.219,33.653
				l1.587-0.02C336.366,97.381,320.271,85.7,303.151,75.064z"/>
			<path fill="#CB394D" d="M302.695,76.563c-20.238-12.105-42.968-23.383-68.462-29.046c-28.206-6.284-62.015-7.205-97.022,2.751
				c-34.56,9.851-75.789,30.313-114.802,64.806l11.88-0.174c33.739-28.203,69.26-46.159,99.535-56.171
				c36.254-11.983,70.711-12.608,100.098-7.215c25.221,4.639,47.973,15.272,68.358,27.006c15.999,9.221,31.007,19.593,43.647,31.704
				l2.006-0.032C335.058,97.34,319.37,86.53,302.695,76.563z"/>
		</g>
	</g>
</g>
<g id="girl">
	<g id="girl_1_">
		<path fill="#DDE5CE" d="M67.862,80.645c-0.157-1.47-0.309-2.998-1.054-4.296c-0.218-0.379-0.401-0.674-0.555-0.923
			c0.281-0.61,0.402-1.2,0.296-1.552c-2.384-7.678-6.68-19.98-9.604-27.47c-0.574-1.467-2.582-2.993-4.179-3.334
			c-3.827-0.82-7.793-1.233-11.705-1.291c-5.249-0.072-8.704-1.201-11.326-4.182c0.113-2.368,0.915-4.715,2.498-6.508
			c1.157,4.945,5.244,9.117,10.107,9.117c4.819,0,8.886-4.101,10.082-9c1.938,2.271,2.667,5.392,2.339,8.319
			c5.473-0.15,6.55-9.041-1.988-10.911c0.003-0.107,0.006-0.215,0.006-0.324c0-6.057-4.672-10.977-10.438-10.977
			c-5.763,0-10.435,4.919-10.435,10.977c0,0.101,0.001,0.198,0.004,0.297c-2.744,0.574-4.513,1.865-5.474,3.367
			c-0.008-0.02-0.017-0.04-0.024-0.059c-1.203-2.924-2.466-5.828-3.598-8.778c0.318-1.194,0.897-2.407,1.41-3.536
			c0.274-0.603,0.674-1.145,0.921-1.761c0.205-0.51-0.032-0.941,0.037-1.483c0.077-0.607-0.007-2.417-1.164-1.709
			c-1.113,0.666-0.266,2.073-0.982,2.976c-0.2,0.25-0.774,0.922-1.17,0.8c-0.398-0.125-0.851-0.72-1.013-1.094
			c-0.497-1.129-0.327-2.315,0.523-3.164c0.739-0.37,1.857,1.261,2.51,0.131c0.257-0.446,0.155-0.781-0.305-1.004
			c-0.579-0.279-1.175-0.615-1.771-0.853c-1.108-0.43-2.062,0.014-2.712,0.951c-0.312,0.446-0.332,1.058-0.446,1.573
			c-0.024,0.112-0.317,1.494-0.621,0.743c-0.258-0.639-0.508-1.902-0.583-2.58c-0.175-0.701-0.3-1.719-0.511-3.105
			c-0.103-0.676-0.206-2.253-0.693-2.749c-0.259-0.263-0.807-0.359-1.102-0.104c-0.529,0.458-0.317,0.999-0.223,1.607l1.338,7.384
			c0,0.518,0.018,0.751-0.376,0.776c-0.392-1.411-0.86-2.899-1.385-4.274c-0.255-0.669-0.809-3.978-2.094-2.847
			c-0.665,0.586-0.1,1.368,0.134,2.013c0.294,0.812,0.567,1.654,0.856,2.465c0.291,0.813,0.615,1.636,0.857,2.466
			c0.192,0.655,0.707,1.167-0.117,1.467c-0.329-0.821-0.768-1.61-1.164-2.402c-0.261-0.521-0.733-2.052-1.384-2.106
			c-1.594-0.227,0.549,3.753,0.741,4.131c0.691,1.364,1.202,2.785,2.023,4.073c0.359,0.562,0.848,1.04,1.274,1.551
			c0.298,0.398,0.688,0.717,0.998,1.103c0.253,0.305,0.413,0.796,0.588,1.149c2.694,6.79,5.093,13.854,9.038,19.864
			c4.343,6.634,5.74,12.046,4.378,19.312c-1.163,6.163-3.076,13.417-4.355,19.863c2.066,0.21,3.756,0.388,6.515,0.68
			c0,4.885,0.106,9.838-0.035,14.779c-0.059,1.857,0.372,3.041,1.417,3.684c0.207,2.057,1.371,3.631,2.777,3.631
			c1.424,0,2.6-1.616,2.783-3.711c0.864-0.641,1.245-1.758,1.25-3.476c0.012-5.033,0.388-10.08,0.61-15.117
			c0.482-0.095,1.972-0.013,2.477-0.047c0.235,0.975,0.154,1.607,0.212,2.571c0.258,4.237,0.398,8.486,0.411,12.735
			c0.008,1.678,0.413,2.829,1.373,3.459c0.219,2.033,1.376,3.585,2.771,3.585c1.409,0,2.574-1.579,2.779-3.638
			c0.922-0.549,1.452-1.545,1.401-3.323c-0.129-4.955-0.036-9.909-0.036-15.062c2.477-0.294,4.296-0.516,6.385-0.763
			c-1.41-7.208-3.228-14.534-4.591-21.543l4.274,7.937c0.655,1.153,2.034,4.646,3.519,6.082c0.116,0.348,0.304,0.684,0.545,1.021
			c0.48,0.679,0.877,1.414,1.323,2.115c0.116,0.185,0.282,0.338,0.412,0.512c0.149,0.198,0.384,0.381,0.428,0.606
			c0.216,1.132,0.603,2.162,1.515,2.906c0.123,0.104,0.354,0.179,0.485,0.14c0.132-0.037,0.276-0.238,0.297-0.391
			c0.044-0.304-0.004-0.601-0.007-0.908c0-0.327-0.002-0.646,0.044-0.96C67.681,81.715,67.908,81.167,67.862,80.645z"/>
	</g>
	<g id="kids">
		<g enable-background="new    ">
			<path fill="#CB394D" d="M39.957,65.468l0.411-0.046c0.082,0,0.117,0.036,0.117,0.118c0,0.142-0.094,0.245-0.293,0.316
				c-0.199,0.07-0.411,0.104-0.657,0.104c-0.458,0-0.845-0.188-1.163-0.551c-0.317-0.366-0.74-1.045-1.303-2.044
				c-0.129-0.21-0.199-0.376-0.199-0.49c0-0.154,0.211-0.33,0.646-0.541c0.692-0.366,1.044-0.811,1.044-1.351
				c0-0.153-0.059-0.282-0.165-0.388c-0.105-0.104-0.246-0.165-0.422-0.165c-0.247,0-0.54,0.296-0.88,0.869
				c-0.34,0.575-0.564,1.128-0.682,1.632c-0.117,0.506-0.176,1.056-0.176,1.633c0,0.28-0.083,0.434-0.247,0.434
				c-0.235,0-0.458-0.036-0.681-0.105c-0.211-0.072-0.317-0.152-0.317-0.259c0-0.105,0.036-0.598,0.118-1.456
				c0.082-0.867,0.128-1.489,0.141-1.865c0.036-2.09,0.164-3.688,0.364-4.788c0.036-0.096,0.176-0.25,0.422-0.484
				c0.247-0.221,0.458-0.34,0.61-0.34s0.224,0.188,0.224,0.574c0,0.388-0.094,1.21-0.259,2.467c-0.163,1.255-0.27,2.405-0.305,3.45
				c0.188-0.656,0.481-1.279,0.881-1.854c0.398-0.587,0.81-0.88,1.221-0.88c0.692,0,1.044,0.341,1.044,1.009
				c0,0.446-0.129,0.857-0.399,1.222s-0.622,0.655-1.08,0.88c-0.094,0.036-0.141,0.082-0.141,0.141c0,0.047,0.012,0.105,0.047,0.152
				c0.646,1.14,1.197,1.938,1.643,2.395C39.675,65.41,39.816,65.468,39.957,65.468z"/>
			<path fill="#CB394D" d="M41.295,65.009c-0.399,0-0.705-0.08-0.905-0.244c-0.07-0.073-0.105-0.329-0.105-0.764
				c0-0.446,0.035-1.175,0.105-2.207c0.071-1.034,0.129-1.586,0.176-1.667c0.047-0.082,0.211-0.235,0.482-0.457
				c0.27-0.225,0.47-0.341,0.622-0.341c0.153,0,0.223,0.199,0.223,0.586c0,0.106-0.023,0.306-0.082,0.6
				c-0.059,0.293-0.117,0.517-0.188,0.646c-0.129,0.341-0.199,1.22-0.199,2.653c0,0.283,0.035,0.412,0.094,0.412
				c0.176-0.014,0.41-0.223,0.715-0.658c0.306-0.424,0.611-0.976,0.917-1.631c0.305-0.672,0.48-1,0.553-1
				c0.069,0,0.104,0.036,0.104,0.118c0,0.282-0.153,0.741-0.447,1.361C42.528,64.143,41.847,65.009,41.295,65.009z M40.849,57.416
				c0-0.188,0.094-0.34,0.293-0.482c0.2-0.129,0.364-0.199,0.516-0.199c0.282,0,0.411,0.163,0.411,0.48
				c0,0.318-0.082,0.588-0.246,0.823c-0.165,0.232-0.399,0.339-0.693,0.339C40.943,58.39,40.849,58.062,40.849,57.416z"/>
			<path fill="#CB394D" d="M47.341,65.009c-0.352,0-0.623-0.08-0.811-0.233c-0.082-0.082-0.116-0.293-0.116-0.645
				c0-0.354,0.011-0.798,0.047-1.363c-0.282,0.74-0.564,1.293-0.845,1.679c-0.283,0.375-0.646,0.562-1.081,0.562
				c-0.435,0-0.798-0.188-1.103-0.562c-0.306-0.376-0.458-0.986-0.458-1.808c0-0.832,0.235-1.562,0.705-2.193
				c0.47-0.636,1.08-0.953,1.832-0.953c0.364,0,0.751,0.143,1.15,0.436c0.164-1.995,0.316-3.123,0.446-3.382
				c0.058-0.116,0.211-0.28,0.434-0.492c0.224-0.212,0.422-0.317,0.575-0.317s0.235,0.246,0.235,0.717
				c0,0.562-0.047,1.044-0.153,1.455c-0.282,1.058-0.446,1.727-0.516,2.007c-0.141,1.104-0.212,2.407-0.212,3.898
				c0,0.283,0.035,0.411,0.094,0.411c0.189-0.013,0.435-0.222,0.74-0.646c0.305-0.425,0.61-0.963,0.916-1.632
				c0.306-0.668,0.481-1.011,0.552-1.011c0.07,0,0.094,0.036,0.094,0.117c0,0.283-0.152,0.74-0.446,1.362
				C48.597,64.143,47.905,65.009,47.341,65.009z M45.404,60.033c-0.282,0-0.552,0.224-0.834,0.658
				c-0.282,0.445-0.41,0.95-0.41,1.527c0,0.573,0.071,1.054,0.222,1.418c0.152,0.366,0.34,0.554,0.563,0.554
				c0.458,0,0.986-0.928,1.585-2.771c0.047-0.564,0.083-0.895,0.083-0.998C46.308,60.163,45.909,60.033,45.404,60.033z"/>
			<path fill="#CB394D" d="M51.296,60.233l0.035-0.236c0-0.188-0.104-0.281-0.316-0.281c-0.21,0-0.411,0.142-0.61,0.411
				c-0.199,0.271-0.293,0.491-0.293,0.669c0,0.177,0.012,0.317,0.036,0.411c0.022,0.106,0.047,0.188,0.071,0.26
				c0.023,0.069,0.07,0.14,0.128,0.232c0.059,0.095,0.105,0.166,0.141,0.202l0.165,0.21c0.069,0.105,0.117,0.165,0.152,0.199
				c0.527-0.445,1.161-0.927,1.903-1.48c0.034-0.034,0.08-0.045,0.139-0.045c0.106,0,0.153,0.059,0.153,0.163
				c0,0.119-0.047,0.199-0.141,0.259c-0.658,0.423-1.28,0.88-1.855,1.361c0.223,0.329,0.339,0.681,0.339,1.08
				c0,0.389-0.152,0.728-0.445,0.997c-0.294,0.282-0.682,0.412-1.139,0.412c-0.458,0-0.692-0.223-0.692-0.658
				c0-0.316,0.339-0.798,1.009-1.454c-0.046-0.059-0.142-0.166-0.283-0.307c-0.128-0.142-0.234-0.246-0.304-0.329
				c-0.072-0.082-0.141-0.188-0.234-0.316c-0.166-0.259-0.248-0.528-0.248-0.833c0-0.6,0.2-1.093,0.588-1.468
				c0.386-0.376,0.798-0.564,1.245-0.564c0.282,0,0.491,0.071,0.646,0.223c0.153,0.153,0.234,0.306,0.234,0.457
				c0,0.354-0.081,0.518-0.247,0.518C51.356,60.351,51.296,60.315,51.296,60.233z M50.311,63.249
				c-0.412,0.412-0.61,0.739-0.61,0.985c0,0.248,0.129,0.377,0.387,0.377c0.154,0,0.283-0.059,0.389-0.189
				C50.687,64.131,50.639,63.731,50.311,63.249z"/>
		</g>
	</g>
	<g>
		<path fill="#0990D3" d="M39.969,53.371l-0.311-0.818h-2.651l-0.311,0.837c-0.122,0.326-0.225,0.547-0.311,0.659
			c-0.087,0.116-0.228,0.172-0.423,0.172c-0.166,0-0.313-0.062-0.441-0.183c-0.127-0.12-0.191-0.259-0.191-0.413
			c0-0.089,0.015-0.182,0.044-0.275c0.03-0.095,0.078-0.228,0.146-0.396l1.668-4.232c0.047-0.121,0.104-0.268,0.171-0.439
			c0.067-0.169,0.138-0.311,0.213-0.424s0.175-0.203,0.298-0.275c0.124-0.068,0.275-0.104,0.457-0.104
			c0.184,0,0.337,0.035,0.459,0.104c0.123,0.072,0.223,0.162,0.299,0.271s0.139,0.227,0.19,0.354
			c0.052,0.125,0.118,0.293,0.198,0.504l1.703,4.208c0.133,0.319,0.2,0.551,0.2,0.697c0,0.151-0.062,0.289-0.188,0.416
			c-0.125,0.125-0.278,0.188-0.457,0.188c-0.103,0-0.192-0.019-0.266-0.055c-0.075-0.036-0.137-0.09-0.187-0.151
			c-0.051-0.063-0.104-0.162-0.163-0.293C40.06,53.589,40.011,53.472,39.969,53.371z M37.354,51.562h1.947l-0.982-2.69
			L37.354,51.562z"/>
		<path fill="#0990D3" d="M46.961,52.153c0,0.395-0.102,0.749-0.305,1.062c-0.203,0.314-0.501,0.56-0.892,0.738
			c-0.392,0.178-0.855,0.267-1.392,0.267c-0.644,0-1.174-0.121-1.593-0.364c-0.296-0.176-0.537-0.407-0.722-0.7
			c-0.186-0.292-0.278-0.577-0.278-0.852c0-0.162,0.056-0.299,0.167-0.412c0.111-0.114,0.252-0.17,0.425-0.17
			c0.138,0,0.256,0.044,0.354,0.133c0.096,0.089,0.178,0.221,0.246,0.396c0.084,0.207,0.173,0.382,0.27,0.52
			c0.097,0.14,0.232,0.256,0.408,0.346c0.174,0.09,0.404,0.136,0.688,0.136c0.392,0,0.71-0.093,0.954-0.273
			c0.244-0.184,0.366-0.41,0.366-0.684c0-0.216-0.065-0.391-0.197-0.525c-0.133-0.135-0.303-0.239-0.512-0.311
			c-0.208-0.07-0.488-0.146-0.838-0.227c-0.469-0.11-0.861-0.237-1.176-0.385c-0.315-0.146-0.566-0.347-0.752-0.602
			c-0.185-0.254-0.277-0.567-0.277-0.943c0-0.359,0.097-0.678,0.292-0.955c0.196-0.28,0.479-0.493,0.85-0.643
			c0.372-0.152,0.807-0.227,1.308-0.227c0.4,0,0.747,0.051,1.038,0.15c0.292,0.099,0.535,0.231,0.727,0.396s0.333,0.337,0.423,0.519
			c0.089,0.18,0.133,0.354,0.133,0.528c0,0.157-0.055,0.3-0.167,0.425c-0.111,0.127-0.25,0.188-0.416,0.188
			c-0.151,0-0.267-0.038-0.345-0.113s-0.164-0.199-0.255-0.372c-0.119-0.244-0.262-0.438-0.428-0.574
			c-0.166-0.139-0.433-0.208-0.8-0.208c-0.341,0-0.616,0.075-0.825,0.226c-0.21,0.15-0.315,0.33-0.315,0.539
			c0,0.131,0.037,0.244,0.107,0.338c0.072,0.096,0.17,0.178,0.294,0.245c0.125,0.067,0.251,0.123,0.378,0.161
			c0.128,0.038,0.338,0.095,0.631,0.167c0.368,0.087,0.7,0.182,0.998,0.285c0.298,0.103,0.551,0.23,0.761,0.378
			c0.209,0.149,0.372,0.337,0.489,0.563C46.902,51.546,46.961,51.824,46.961,52.153z"/>
		<path fill="#0990D3" d="M49.04,48.279v4.746h2.677c0.213,0,0.378,0.052,0.492,0.155c0.114,0.104,0.171,0.233,0.171,0.392
			c0,0.159-0.057,0.289-0.169,0.387c-0.112,0.101-0.277,0.15-0.494,0.15h-3.188c-0.288,0-0.495-0.062-0.62-0.191
			c-0.126-0.127-0.189-0.333-0.189-0.617v-5.021c0-0.266,0.06-0.467,0.18-0.6c0.12-0.135,0.278-0.201,0.474-0.201
			c0.197,0,0.359,0.066,0.482,0.199C48.978,47.81,49.04,48.01,49.04,48.279z"/>
	</g>
</g>
<g id="Layer_9">
	<linearGradient id="SVGID_1_" gradientUnits="userSpaceOnUse" x1="138" y1="30" x2="293" y2="30">
		<stop  offset="0" style="stop-color:#65BCAB"/>
		<stop  offset="0.2347" style="stop-color:#5CB4A3"/>
		<stop  offset="0.6187" style="stop-color:#43A08E"/>
		<stop  offset="0.6642" style="stop-color:#409D8B"/>
	</linearGradient>
	<path fill="url(#SVGID_1_)" stroke="#F4C151" stroke-width="2.3299" stroke-miterlimit="10" d="M293,41c0,2.762-2.238,5-5,5H143
		c-2.761,0-5-2.238-5-5V19c0-2.762,2.239-5,5-5h145c2.762,0,5,2.238,5,5V41z"/>
</g>
<g id="button">
	<text transform="matrix(1 0 0 1 157 34)"><tspan x="0" y="0" fill="#DDE5CE" font-family="'Dekko'" font-size="17">Buy </tspan><tspan x="27.086" y="0" fill="#F6C063" font-family="'Dekko'" font-size="17">50</tspan><tspan x="47.322" y="0" fill="#DDE5CE" font-family="'Dekko'" font-size="17"> more signs</tspan></text>
</g>
<g id="Layer_7">
</g>
<g id="border" display="none">
	<path display="inline" fill="#65BCAB" d="M307.5,98.109c0,6.566-5.355,11.891-11.961,11.891H13.461
		C6.855,110,1.5,104.676,1.5,98.109V12.891C1.5,6.324,6.855,1,13.461,1h282.078c6.605,0,11.961,5.324,11.961,11.891V98.109z"/>
</g>
<g id="Layer_11">
	<path fill="none" stroke="#DDE5CE" stroke-miterlimit="10" d="M307.5,129.032c0,2.744-2.729,5.468-5.481,5.468H5.98
		c-2.752,0-5.48-2.724-5.48-5.468V5.837C0.5,3.094,3.228,0.5,5.98,0.5h296.038c2.753,0,5.481,2.594,5.481,5.337V129.032z"/>
</g>
</svg>
