<svg version="1.1" xmlns="http://www.w3.org/2000/svg" x="0" y="0" width="308" height="70" viewBox="0 0 308 70" enable-background="new 0 0 308 70" xml:space="preserve"><g id="border_1_"><g id="Layer_11"><path fill="none" stroke="#9ED0BB" stroke-width="0.72" stroke-miterlimit="10" d="M307.5 66.66c0 1.42-2.73 2.84-5.48 2.84H5.98c-2.75 0-5.48-1.41-5.48-2.84V2.77C0.5 1.35 3.23 0 5.98 0h296.04c2.75 0 5.48 1.35 5.48 2.77L307.5 66.66 307.5 66.66z"/></g></g><g id="Layer_1"><g id="Layer_10" opacity="0.5"><path fill="#65BCAB" d="M307 66.9c0 1.43-2.23 2.6-4.98 2.6H5.98C3.23 69.5 1 68.34 1 66.9V2.53C1 1.09 3.23 0 5.98 0h296.03C304.77 0 307 1.09 307 2.53V66.9z"/></g><linearGradient id="SVGID_1_" gradientUnits="userSpaceOnUse" x1="155.44" y1="14" x2="155.44" y2="55.5"><stop offset="0" stop-color="#F4C151"/><stop offset="0.17" stop-color="#E5AF47"/><stop offset="0.36" stop-color="#DAA23F"/><stop offset="0.54" stop-color="#D69D3C"/><stop offset="0.69" stop-color="#DAA13F"/><stop offset="0.85" stop-color="#E4AE46"/><stop offset="1" stop-color="#F4C151"/></linearGradient><path fill="url(#SVGID_1_)" stroke="#1E8FD9" stroke-width="1.91" stroke-miterlimit="10" d="M285.5 50.5c0 2.76-2.2 5-4.91 5H30.29c-2.71 0-4.91-2.24-4.91-5V19c0-2.76 2.2-5 4.92-5h250.3c2.72 0 4.92 2.24 4.92 5V50.5z"/><g id="border" display="none"><path display="inline" fill="#65BCAB" d="M307.5 98.11c0 6.57-5.35 11.89-11.96 11.89H13.46C6.86 110 1.5 104.68 1.5 98.11V12.89C1.5 6.32 6.86 1 13.46 1h282.08c6.6 0 11.96 5.32 11.96 11.89V98.11z"/></g><g id="girl"><g id="girl_1_"><path fill="#DDE5CE" d="M55.51 71.07c-0.15-1.37-0.29-2.79-0.98-4 -0.2-0.35-0.37-0.63-0.52-0.86 0.26-0.57 0.38-1.12 0.28-1.44 -2.22-7.15-6.22-18.6-8.94-25.57 -0.53-1.36-2.4-2.78-3.89-3.1 -3.56-0.76-7.26-1.15-10.9-1.2 -4.89-0.07-8.1-1.12-10.54-3.89 0.11-2.2 0.85-4.39 2.33-6.06 1.08 4.61 4.88 8.49 9.41 8.49 4.49 0 8.27-3.82 9.39-8.38 1.81 2.12 2.48 5.02 2.18 7.75 5.09-0.14 6.1-8.42-1.85-10.16 0-0.1 0.01-0.2 0.01-0.3 0-5.64-4.35-10.22-9.72-10.22 -5.37 0-9.71 4.58-9.71 10.22 0 0.09 0 0.18 0 0.28 -2.56 0.53-4.2 1.74-5.1 3.13 -0.01-0.02-0.02-0.04-0.02-0.05 -1.12-2.72-2.3-5.42-3.35-8.17 0.3-1.11 0.84-2.24 1.31-3.29 0.25-0.56 0.63-1.06 0.86-1.64 0.19-0.47-0.03-0.88 0.03-1.38 0.07-0.56-0.01-2.25-1.08-1.59 -1.04 0.62-0.25 1.93-0.91 2.77 -0.19 0.23-0.72 0.86-1.09 0.74 -0.37-0.12-0.79-0.67-0.94-1.02 -0.46-1.05-0.31-2.16 0.49-2.95 0.69-0.34 1.73 1.17 2.34 0.12 0.24-0.41 0.14-0.73-0.28-0.94 -0.54-0.26-1.09-0.57-1.65-0.79 -1.03-0.4-1.92 0.01-2.53 0.89 -0.29 0.41-0.31 0.99-0.41 1.46 -0.02 0.11-0.3 1.39-0.58 0.69 -0.24-0.59-0.47-1.77-0.54-2.4C8.41 7.55 8.29 6.6 8.1 5.31 8 4.68 7.91 3.21 7.45 2.75 7.21 2.51 6.7 2.42 6.43 2.65 5.93 3.08 6.13 3.58 6.22 4.15l1.25 6.87c0 0.48 0.02 0.7-0.35 0.72 -0.37-1.31-0.8-2.7-1.29-3.98C5.59 7.14 5.07 4.06 3.88 5.12 3.26 5.66 3.78 6.39 4 6.99 4.27 7.75 4.53 8.53 4.8 9.29c0.27 0.76 0.57 1.52 0.8 2.3 0.18 0.61 0.66 1.09-0.11 1.37 -0.31-0.76-0.71-1.5-1.08-2.23C4.16 10.22 3.72 8.8 3.11 8.75c-1.48-0.21 0.51 3.49 0.69 3.85 0.64 1.27 1.12 2.59 1.88 3.79 0.33 0.52 0.79 0.97 1.19 1.44 0.28 0.37 0.64 0.67 0.93 1.03 0.24 0.28 0.39 0.74 0.55 1.07 2.51 6.32 4.74 12.9 8.41 18.49 4.04 6.18 5.34 11.22 4.08 17.98 -1.08 5.74-2.86 12.49-4.05 18.49 1.92 0.2 3.5 0.36 6.07 0.63 0 4.55 0.1 9.16-0.03 13.76 -0.05 1.73 0.35 2.83 1.32 3.43 0.19 1.91 1.28 3.38 2.58 3.38 1.33 0 2.42-1.5 2.59-3.45 0.8-0.6 1.16-1.64 1.16-3.23 0.01-4.68 0.36-9.38 0.57-14.07 0.45-0.09 1.84-0.01 2.31-0.04 0.22 0.91 0.14 1.49 0.2 2.39 0.24 3.94 0.37 7.9 0.38 11.85 0.01 1.56 0.39 2.64 1.28 3.22 0.2 1.9 1.28 3.34 2.58 3.34 1.31 0 2.4-1.47 2.59-3.38 0.86-0.51 1.35-1.44 1.31-3.09 -0.12-4.61-0.03-9.23-0.03-14.02 2.31-0.27 4-0.48 5.94-0.71 -1.31-6.71-3-13.53-4.27-20.06l3.98 7.39c0.61 1.07 1.89 4.33 3.28 5.66 0.11 0.32 0.28 0.64 0.51 0.95 0.45 0.64 0.82 1.32 1.23 1.97 0.11 0.17 0.26 0.31 0.38 0.48 0.14 0.18 0.36 0.36 0.4 0.56 0.2 1.06 0.56 2.02 1.41 2.71 0.11 0.1 0.33 0.17 0.45 0.13 0.12-0.04 0.26-0.22 0.28-0.36 0.04-0.28 0-0.56-0.01-0.85 0-0.3 0-0.6 0.04-0.89C55.34 72.07 55.55 71.56 55.51 71.07z"/></g><g id="kids"><g enable-background="new    "><path fill="#CB394D" d="M-57.64-17.12l0.38-0.04c0.08 0 0.11 0.04 0.11 0.11 0 0.13-0.09 0.23-0.27 0.29 -0.18 0.07-0.38 0.1-0.61 0.1 -0.43 0-0.79-0.18-1.08-0.51 -0.29-0.34-0.69-0.97-1.21-1.9 -0.12-0.2-0.19-0.35-0.19-0.46 0-0.14 0.2-0.3 0.6-0.5 0.64-0.34 0.97-0.75 0.97-1.26 0-0.14-0.05-0.26-0.15-0.36 -0.1-0.1-0.23-0.16-0.39-0.16 -0.23 0-0.5 0.28-0.82 0.81 -0.32 0.54-0.52 1.05-0.63 1.52 -0.11 0.47-0.16 0.98-0.16 1.52 0 0.26-0.08 0.41-0.23 0.41 -0.22 0-0.43-0.03-0.63-0.1 -0.19-0.07-0.29-0.14-0.29-0.24 0-0.1 0.03-0.56 0.11-1.36 0.08-0.81 0.12-1.38 0.13-1.74 0.03-1.94 0.15-3.43 0.34-4.46 0.03-0.09 0.17-0.23 0.39-0.45 0.23-0.2 0.43-0.32 0.57-0.32 0.14 0 0.21 0.18 0.21 0.54 0 0.36-0.09 1.12-0.24 2.3 -0.15 1.17-0.25 2.24-0.28 3.21 0.17-0.61 0.45-1.19 0.82-1.73 0.37-0.54 0.75-0.82 1.14-0.82 0.64 0 0.97 0.32 0.97 0.94 0 0.42-0.12 0.8-0.37 1.14 -0.25 0.34-0.58 0.61-1.01 0.82 -0.09 0.04-0.13 0.08-0.13 0.13 0 0.05 0.01 0.1 0.04 0.14 0.6 1.06 1.11 1.81 1.53 2.23C-57.9-17.17-57.77-17.12-57.64-17.12zM-56.39-17.55c-0.37 0-0.65-0.07-0.84-0.23 -0.07-0.07-0.1-0.31-0.1-0.71 0-0.42 0.03-1.09 0.1-2.06 0.07-0.96 0.12-1.48 0.16-1.55 0.04-0.07 0.2-0.22 0.45-0.42 0.25-0.21 0.44-0.31 0.58-0.31 0.14 0 0.21 0.18 0.21 0.55 0 0.1-0.02 0.28-0.08 0.56 -0.05 0.27-0.11 0.48-0.17 0.6 -0.12 0.32-0.19 1.14-0.19 2.47 0 0.26 0.03 0.38 0.09 0.38 0.17-0.01 0.38-0.21 0.67-0.61 0.29-0.39 0.57-0.91 0.86-1.52 0.28-0.63 0.45-0.93 0.52-0.93 0.06 0 0.1 0.03 0.1 0.11 0 0.26-0.14 0.69-0.42 1.27C-55.24-18.35-55.88-17.55-56.39-17.55zM-56.81-24.61c0-0.17 0.09-0.32 0.27-0.45 0.19-0.12 0.34-0.18 0.48-0.18 0.26 0 0.38 0.15 0.38 0.45 0 0.3-0.07 0.55-0.23 0.77 -0.15 0.21-0.37 0.31-0.65 0.31C-56.72-23.71-56.81-24.01-56.81-24.61zM-50.76-17.55c-0.33 0-0.58-0.07-0.75-0.22 -0.08-0.08-0.11-0.28-0.11-0.6 0-0.33 0.01-0.74 0.04-1.27 -0.26 0.69-0.53 1.2-0.79 1.56 -0.26 0.35-0.6 0.52-1.01 0.52 -0.41 0-0.74-0.18-1.03-0.52 -0.28-0.35-0.42-0.92-0.42-1.68 0-0.77 0.22-1.45 0.66-2.04 0.44-0.59 1.01-0.88 1.71-0.88 0.34 0 0.7 0.13 1.07 0.4 0.15-1.86 0.29-2.91 0.42-3.15 0.05-0.11 0.2-0.26 0.41-0.46 0.21-0.19 0.39-0.29 0.54-0.29 0.14 0 0.22 0.23 0.22 0.67 0 0.52-0.04 0.97-0.14 1.35 -0.26 0.99-0.41 1.61-0.48 1.87 -0.13 1.03-0.2 2.24-0.2 3.63 0 0.26 0.03 0.38 0.09 0.38 0.18-0.01 0.41-0.21 0.69-0.6 0.28-0.4 0.57-0.9 0.85-1.52 0.28-0.62 0.45-0.94 0.52-0.94 0.06 0 0.09 0.03 0.09 0.11 0 0.26-0.14 0.69-0.42 1.27C-49.59-18.35-50.24-17.55-50.76-17.55zM-52.57-22.18c-0.26 0-0.51 0.21-0.78 0.61 -0.26 0.41-0.38 0.88-0.38 1.42 0 0.53 0.07 0.98 0.21 1.32 0.14 0.34 0.32 0.51 0.53 0.51 0.43 0 0.92-0.86 1.48-2.58 0.05-0.52 0.08-0.83 0.08-0.93C-51.73-22.06-52.1-22.18-52.57-22.18zM-47.08-21.99l0.03-0.22c0-0.18-0.1-0.26-0.29-0.26 -0.19 0-0.38 0.13-0.57 0.38 -0.18 0.25-0.27 0.46-0.27 0.62 0 0.16 0.01 0.3 0.03 0.38 0.02 0.1 0.04 0.18 0.07 0.24s0.07 0.13 0.12 0.22c0.06 0.09 0.1 0.15 0.13 0.19l0.15 0.2c0.06 0.1 0.11 0.15 0.14 0.19 0.49-0.41 1.08-0.86 1.77-1.38 0.03-0.03 0.08-0.04 0.13-0.04 0.1 0 0.14 0.06 0.14 0.15 0 0.11-0.04 0.18-0.13 0.24 -0.61 0.4-1.19 0.82-1.73 1.27 0.21 0.31 0.32 0.64 0.32 1 0 0.36-0.14 0.68-0.41 0.93 -0.27 0.26-0.63 0.38-1.06 0.38 -0.43 0-0.64-0.21-0.64-0.61 0-0.29 0.32-0.74 0.94-1.35 -0.04-0.06-0.13-0.15-0.26-0.29 -0.12-0.13-0.22-0.23-0.28-0.31 -0.07-0.08-0.13-0.17-0.22-0.29 -0.16-0.24-0.23-0.49-0.23-0.78 0-0.56 0.19-1.02 0.55-1.37 0.36-0.35 0.74-0.52 1.16-0.52 0.26 0 0.46 0.07 0.6 0.21 0.14 0.14 0.22 0.29 0.22 0.43 0 0.33-0.08 0.48-0.23 0.48C-47.03-21.88-47.08-21.92-47.08-21.99zM-48-19.18c-0.38 0.38-0.57 0.69-0.57 0.92 0 0.23 0.12 0.35 0.36 0.35 0.14 0 0.26-0.05 0.36-0.18C-47.65-18.36-47.69-18.74-48-19.18z"/></g></g><path fill="#0990D3" d="M-57.63-28.38l-0.29-0.76h-2.47l-0.29 0.78c-0.11 0.31-0.21 0.51-0.29 0.61 -0.08 0.11-0.21 0.16-0.39 0.16 -0.15 0-0.29-0.06-0.41-0.17 -0.12-0.11-0.18-0.24-0.18-0.38 0-0.08 0.02-0.17 0.04-0.26 0.03-0.09 0.07-0.21 0.14-0.37l1.55-3.94c0.04-0.11 0.1-0.25 0.16-0.41 0.06-0.15 0.13-0.29 0.2-0.39 0.07-0.1 0.16-0.19 0.28-0.25 0.12-0.06 0.26-0.1 0.43-0.1 0.17 0 0.31 0.03 0.43 0.1 0.12 0.07 0.21 0.15 0.28 0.25 0.07 0.1 0.13 0.21 0.18 0.33 0.05 0.12 0.11 0.27 0.18 0.47l1.59 3.92c0.12 0.3 0.19 0.51 0.19 0.65 0 0.14-0.06 0.27-0.17 0.39 -0.12 0.12-0.26 0.17-0.43 0.17 -0.1 0-0.18-0.02-0.25-0.05 -0.07-0.03-0.13-0.08-0.17-0.14 -0.05-0.06-0.1-0.15-0.15-0.27C-57.54-28.18-57.59-28.28-57.63-28.38zM-60.06-30.06h1.81l-0.91-2.5L-60.06-30.06zM-51.12-29.51c0 0.37-0.09 0.7-0.28 0.99 -0.19 0.29-0.47 0.52-0.83 0.69 -0.37 0.17-0.8 0.25-1.3 0.25 -0.6 0-1.09-0.11-1.48-0.34 -0.28-0.16-0.5-0.38-0.67-0.65 -0.17-0.27-0.26-0.54-0.26-0.79 0-0.15 0.05-0.28 0.15-0.38 0.1-0.11 0.24-0.16 0.4-0.16 0.13 0 0.24 0.04 0.33 0.12 0.09 0.08 0.17 0.21 0.23 0.37 0.08 0.19 0.16 0.36 0.25 0.49 0.09 0.13 0.22 0.24 0.38 0.32 0.16 0.08 0.38 0.13 0.64 0.13 0.37 0 0.66-0.09 0.89-0.25 0.23-0.17 0.34-0.38 0.34-0.64 0-0.2-0.06-0.37-0.18-0.49 -0.12-0.12-0.28-0.22-0.48-0.29 -0.19-0.06-0.45-0.13-0.78-0.21 -0.44-0.1-0.8-0.22-1.09-0.36 -0.29-0.13-0.53-0.32-0.7-0.56 -0.17-0.24-0.26-0.53-0.26-0.88 0-0.33 0.09-0.63 0.27-0.89 0.18-0.26 0.45-0.46 0.79-0.6 0.35-0.14 0.75-0.21 1.22-0.21 0.37 0 0.7 0.05 0.97 0.14 0.27 0.09 0.5 0.22 0.68 0.37 0.18 0.15 0.31 0.31 0.4 0.48 0.08 0.17 0.12 0.33 0.12 0.49 0 0.15-0.05 0.28-0.15 0.4 -0.1 0.12-0.23 0.17-0.39 0.17 -0.14 0-0.25-0.04-0.32-0.11 -0.07-0.07-0.15-0.18-0.24-0.34 -0.11-0.23-0.24-0.4-0.4-0.53 -0.16-0.13-0.4-0.19-0.75-0.19 -0.32 0-0.57 0.07-0.77 0.21 -0.19 0.14-0.29 0.31-0.29 0.5 0 0.12 0.04 0.23 0.1 0.31 0.07 0.09 0.16 0.17 0.27 0.23 0.12 0.06 0.23 0.11 0.35 0.15 0.12 0.04 0.32 0.09 0.59 0.16 0.34 0.08 0.65 0.17 0.93 0.27 0.28 0.09 0.51 0.21 0.71 0.35 0.2 0.14 0.35 0.32 0.46 0.52C-51.17-30.08-51.12-29.82-51.12-29.51zM-49.18-33.12v4.42h2.49c0.2 0 0.35 0.05 0.46 0.14 0.11 0.1 0.16 0.22 0.16 0.37 0 0.15-0.05 0.27-0.16 0.36 -0.1 0.1-0.26 0.14-0.46 0.14h-2.97c-0.27 0-0.46-0.06-0.57-0.18 -0.12-0.12-0.18-0.31-0.18-0.58v-4.67c0-0.25 0.05-0.43 0.17-0.56 0.11-0.12 0.26-0.19 0.44-0.19s0.33 0.06 0.45 0.18C-49.24-33.56-49.18-33.37-49.18-33.12z"/></g><path fill="#EA5F72" d="M36.28 43.88c-2.11 0-4.16 2.53-4.16 2.53s-2.05-2.53-4.16-2.53c-2.11 0-4.12 1.06-4.12 4.16 0 2.2 2.07 4.14 2.07 4.14l6.21 6.19 6.21-6.19c0 0 2.07-1.93 2.07-4.14C40.39 44.94 38.38 43.88 36.28 43.88z"/><circle fill="#0990D3" cx="285.17" cy="52.53" r="12.88"/><path fill="#DDE5CE" d="M289.15 44.7c-0.02 0-0.05 0-0.07 0 -0.02 0-0.05 0-0.07 0 -2.2 0-3.98 1.78-3.98 3.98 0 0 0 1.38 0 2.4H277.5v8.23h10.96V51.07h-1.44c0-1.01 0-2.39 0-2.39 0-1.1 0.89-1.99 1.99-1.99 0.03 0 0.1 0 0.1 0s0.03 0 0.05 0c1.1 0 1.99 0.89 1.99 1.99 0 0 0 0.42 0 0.96h0.67v0.25l-0.66 0.63c0 0.19 0 0.38 0 0.56h1.99c0-1 0-2.4 0-2.4C293.12 46.48 291.34 44.7 289.15 44.7z"/></g></svg>