<?xml version="1.0" encoding="utf-8"?>
<!-- Generator: Adobe Illustrator 16.0.0, SVG Export Plug-In . SVG Version: 6.00 Build 0)  -->
<!DOCTYPE svg PUBLIC "-//W3C//DTD SVG 1.1//EN" "http://www.w3.org/Graphics/SVG/1.1/DTD/svg11.dtd">
<svg version="1.1" xmlns="http://www.w3.org/2000/svg" xmlns:xlink="http://www.w3.org/1999/xlink" x="0px" y="0px" width="308px"
	 height="85px" viewBox="0 0 308 85" enable-background="new 0 0 308 85" xml:space="preserve">
<g id="Layer_1">
	<g id="Layer_8">
		<g>
			
				<linearGradient id="SVGID_1_" gradientUnits="userSpaceOnUse" x1="156.8557" y1="772.75" x2="213.9553" y2="829.8495" gradientTransform="matrix(-0.7029 0.6874 0.7029 0.6874 -278.5794 -637.7612)">
				<stop  offset="0" style="stop-color:#B962FC"/>
				<stop  offset="0.1736" style="stop-color:#AF5EF4"/>
				<stop  offset="0.4725" style="stop-color:#9455DF"/>
				<stop  offset="0.8" style="stop-color:#6846BC"/>
				<stop  offset="1" style="stop-color:#493BA4"/>
			</linearGradient>
			<path fill="url(#SVGID_1_)" d="M2.5,40.5c0,21.677,17.573,39.25,39.25,39.25h225.167c21.677,0,39.249-17.573,39.249-39.25
				S288.594,1.25,266.917,1.25H41.75C20.073,1.25,2.5,18.823,2.5,40.5C2.5,40.5,2.5,18.823,2.5,40.5z"/>
			<path fill="none" stroke="#FFFFFF" stroke-miterlimit="10" d="M2.5,40.5c0,21.677,17.573,39.25,39.25,39.25h225.167
				c21.677,0,39.249-17.573,39.249-39.25S288.594,1.25,266.917,1.25H41.75C20.073,1.25,2.5,18.823,2.5,40.5
				C2.5,40.5,2.5,18.823,2.5,40.5z"/>
		</g>
	</g>
	<g id="Layer_6">
		<g>
			<g id="XMLID_1_">
				<g id="XMLID_2_">
					<g id="XMLID_7_">
						<path fill="#9B9A9A" d="M41.045,29.568l0.225,0.815l2.022-0.56l-0.226-0.815c-1.114-4.033-5.304-6.406-9.336-5.291
							c-4.033,1.115-6.405,5.303-5.291,9.336l1.85,6.685l2.021-0.559l-1.849-6.685c-0.808-2.917,0.91-5.949,3.828-6.755
							C37.207,24.933,40.238,26.65,41.045,29.568z"/>
					</g>
					<g id="XMLID_3_">
						<g>
							<path id="XMLID_5_" fill="#F6C063" d="M47.532,49.059c0,0.449-0.365,0.812-0.813,0.812H26.747
								c-0.449,0-0.813-0.363-0.813-0.812V36.082c0-0.449,0.364-0.814,0.813-0.814h19.972c0.449,0,0.813,0.365,0.813,0.814V49.059z"
								/>
						</g>
					</g>
				</g>
			</g>
			<path fill="#353535" d="M38.517,40.371c0-0.985-0.798-1.786-1.784-1.786c-0.985,0-1.785,0.8-1.785,1.786
				c0,0.587,0.285,1.107,0.724,1.433l-0.568,4.036h3.259l-0.567-4.036C38.233,41.479,38.517,40.958,38.517,40.371z"/>
		</g>
	</g>
</g>
<g id="Layer_2">
	<g>
		<path fill="#FFFFFF" d="M68.85,33.292L74.724,49h-3.586l-1.188-3.498h-5.874L62.844,49h-3.476l5.94-15.708H68.85z M69.048,42.928
			l-1.98-5.764h-0.044l-2.046,5.764H69.048z"/>
		<path fill="#FFFFFF" d="M84.052,47.548c-0.367,0.616-0.847,1.06-1.441,1.331c-0.594,0.271-1.265,0.407-2.013,0.407
			c-0.851,0-1.599-0.165-2.244-0.495c-0.646-0.33-1.177-0.777-1.595-1.342c-0.418-0.564-0.734-1.214-0.946-1.947
			c-0.213-0.733-0.319-1.496-0.319-2.288c0-0.762,0.106-1.5,0.319-2.211c0.212-0.711,0.528-1.338,0.946-1.881
			c0.418-0.542,0.942-0.979,1.573-1.309c0.63-0.33,1.364-0.495,2.2-0.495c0.674,0,1.316,0.143,1.925,0.429
			c0.608,0.286,1.089,0.708,1.441,1.265h0.044v-5.72h3.124V49h-2.97v-1.452H84.052z M83.92,41.927
			c-0.088-0.432-0.238-0.814-0.451-1.144c-0.213-0.33-0.488-0.598-0.825-0.803c-0.337-0.205-0.763-0.308-1.276-0.308
			c-0.514,0-0.946,0.103-1.298,0.308c-0.352,0.206-0.634,0.477-0.847,0.814c-0.213,0.337-0.367,0.723-0.462,1.155
			c-0.096,0.433-0.143,0.884-0.143,1.353c0,0.44,0.051,0.88,0.154,1.32c0.103,0.439,0.268,0.832,0.495,1.177
			c0.227,0.345,0.513,0.624,0.858,0.836c0.344,0.213,0.759,0.319,1.243,0.319c0.513,0,0.942-0.103,1.287-0.308
			c0.344-0.206,0.619-0.48,0.825-0.825c0.205-0.345,0.352-0.737,0.44-1.178c0.088-0.439,0.132-0.894,0.132-1.363
			S84.008,42.36,83.92,41.927z"/>
		<path fill="#FFFFFF" d="M97.714,47.548c-0.367,0.616-0.847,1.06-1.441,1.331c-0.594,0.271-1.265,0.407-2.013,0.407
			c-0.851,0-1.599-0.165-2.244-0.495c-0.646-0.33-1.177-0.777-1.595-1.342c-0.418-0.564-0.734-1.214-0.946-1.947
			c-0.213-0.733-0.319-1.496-0.319-2.288c0-0.762,0.106-1.5,0.319-2.211c0.212-0.711,0.528-1.338,0.946-1.881
			c0.418-0.542,0.942-0.979,1.573-1.309c0.63-0.33,1.364-0.495,2.2-0.495c0.674,0,1.316,0.143,1.925,0.429
			c0.608,0.286,1.089,0.708,1.441,1.265h0.044v-5.72h3.124V49h-2.97v-1.452H97.714z M97.582,41.927
			c-0.088-0.432-0.238-0.814-0.451-1.144c-0.213-0.33-0.488-0.598-0.825-0.803c-0.337-0.205-0.763-0.308-1.276-0.308
			c-0.514,0-0.946,0.103-1.298,0.308c-0.352,0.206-0.634,0.477-0.847,0.814c-0.213,0.337-0.367,0.723-0.462,1.155
			c-0.096,0.433-0.143,0.884-0.143,1.353c0,0.44,0.051,0.88,0.154,1.32c0.103,0.439,0.268,0.832,0.495,1.177
			c0.227,0.345,0.513,0.624,0.858,0.836c0.344,0.213,0.759,0.319,1.243,0.319c0.513,0,0.942-0.103,1.287-0.308
			c0.344-0.206,0.619-0.48,0.825-0.825c0.205-0.345,0.352-0.737,0.44-1.178c0.088-0.439,0.132-0.894,0.132-1.363
			S97.67,42.36,97.582,41.927z"/>
		<path fill="#F6C063" d="M113.95,49v-9.988h-3.872v-2.354c0.542,0.015,1.067-0.026,1.573-0.121c0.506-0.095,0.96-0.264,1.364-0.506
			c0.403-0.242,0.744-0.561,1.023-0.957c0.278-0.396,0.462-0.887,0.55-1.474h2.486V49H113.95z"/>
		<path fill="#F6C063" d="M125.544,36.174l-0.616,3.498l0.044,0.044c0.425-0.425,0.88-0.729,1.364-0.913
			c0.484-0.184,1.034-0.275,1.65-0.275c0.763,0,1.437,0.14,2.024,0.418c0.586,0.279,1.082,0.653,1.485,1.122
			c0.403,0.47,0.711,1.023,0.924,1.661c0.212,0.638,0.319,1.317,0.319,2.035c0,0.792-0.154,1.529-0.462,2.211
			c-0.308,0.683-0.723,1.273-1.243,1.771c-0.521,0.499-1.125,0.884-1.815,1.155c-0.689,0.271-1.423,0.399-2.2,0.385
			c-0.748,0-1.463-0.1-2.145-0.297c-0.682-0.198-1.287-0.503-1.815-0.913c-0.528-0.41-0.95-0.92-1.265-1.529
			c-0.316-0.608-0.48-1.316-0.495-2.123h3.124c0.073,0.704,0.337,1.266,0.792,1.684s1.034,0.627,1.738,0.627
			c0.411,0,0.781-0.085,1.111-0.253c0.33-0.169,0.608-0.389,0.836-0.66c0.227-0.271,0.403-0.587,0.528-0.946
			s0.187-0.729,0.187-1.111c0-0.396-0.059-0.77-0.176-1.122c-0.118-0.352-0.293-0.66-0.528-0.924
			c-0.234-0.264-0.513-0.469-0.836-0.616c-0.323-0.146-0.697-0.22-1.122-0.22c-0.557,0-1.012,0.099-1.364,0.297
			c-0.352,0.198-0.682,0.51-0.99,0.935h-2.816L123.3,33.6h8.602v2.574H125.544z"/>
		<path fill="#F6C063" d="M134.267,37.461c0.3-1.019,0.708-1.837,1.221-2.453c0.514-0.616,1.111-1.056,1.793-1.32
			c0.683-0.264,1.404-0.396,2.167-0.396c0.777,0,1.507,0.132,2.189,0.396c0.682,0.264,1.283,0.704,1.804,1.32
			c0.521,0.616,0.932,1.434,1.232,2.453c0.3,1.02,0.45,2.277,0.45,3.773c0,1.54-0.15,2.827-0.45,3.861
			c-0.301,1.034-0.712,1.859-1.232,2.476c-0.521,0.615-1.122,1.056-1.804,1.319c-0.683,0.265-1.412,0.396-2.189,0.396
			c-0.763,0-1.484-0.132-2.167-0.396c-0.682-0.264-1.279-0.704-1.793-1.319c-0.513-0.616-0.92-1.441-1.221-2.476
			c-0.301-1.034-0.451-2.321-0.451-3.861C133.816,39.738,133.966,38.48,134.267,37.461z M136.984,42.829
			c0.029,0.623,0.121,1.225,0.275,1.804c0.154,0.58,0.4,1.075,0.738,1.485c0.336,0.41,0.82,0.616,1.451,0.616
			c0.646,0,1.141-0.206,1.485-0.616s0.594-0.905,0.748-1.485c0.154-0.579,0.245-1.181,0.274-1.804
			c0.029-0.624,0.045-1.155,0.045-1.595c0-0.264-0.004-0.583-0.012-0.957s-0.036-0.759-0.088-1.155s-0.125-0.788-0.22-1.177
			c-0.096-0.388-0.238-0.737-0.429-1.045c-0.191-0.308-0.434-0.557-0.727-0.748c-0.293-0.19-0.652-0.286-1.078-0.286
			s-0.78,0.095-1.066,0.286c-0.286,0.191-0.521,0.44-0.704,0.748c-0.184,0.308-0.327,0.657-0.429,1.045
			c-0.103,0.389-0.176,0.781-0.22,1.177s-0.07,0.781-0.077,1.155c-0.008,0.374-0.011,0.693-0.011,0.957
			C136.94,41.674,136.954,42.206,136.984,42.829z"/>
		<path fill="#FFFFFF" d="M157.972,42.268v2.354h-4.378V49h-2.354v-4.378h-4.378v-2.354h4.378V37.89h2.354v4.378H157.972z"/>
		<path fill="#FFFFFF" d="M169.72,45.128c0.19,0.367,0.443,0.664,0.759,0.891c0.315,0.228,0.686,0.396,1.111,0.507
			c0.425,0.109,0.865,0.165,1.319,0.165c0.309,0,0.639-0.025,0.99-0.077c0.353-0.052,0.682-0.15,0.99-0.297
			c0.308-0.146,0.564-0.349,0.77-0.605s0.309-0.583,0.309-0.979c0-0.426-0.136-0.771-0.407-1.034
			c-0.271-0.265-0.627-0.484-1.067-0.66c-0.439-0.176-0.938-0.33-1.496-0.462c-0.557-0.132-1.121-0.279-1.693-0.44
			c-0.587-0.146-1.159-0.327-1.716-0.539c-0.558-0.212-1.057-0.488-1.496-0.825c-0.44-0.337-0.796-0.759-1.067-1.265
			c-0.271-0.506-0.407-1.118-0.407-1.837c0-0.806,0.173-1.507,0.518-2.101c0.344-0.594,0.795-1.089,1.353-1.485
			s1.188-0.689,1.893-0.88c0.704-0.19,1.407-0.286,2.111-0.286c0.821,0,1.609,0.092,2.365,0.275c0.755,0.184,1.427,0.48,2.013,0.891
			c0.587,0.411,1.053,0.935,1.397,1.573c0.345,0.638,0.517,1.412,0.517,2.321h-3.344c-0.029-0.469-0.129-0.858-0.297-1.166
			c-0.169-0.308-0.393-0.55-0.671-0.726c-0.279-0.176-0.598-0.3-0.957-0.374c-0.359-0.073-0.752-0.11-1.177-0.11
			c-0.279,0-0.558,0.029-0.836,0.088c-0.279,0.059-0.532,0.162-0.76,0.308c-0.228,0.147-0.414,0.33-0.561,0.55
			c-0.146,0.22-0.22,0.499-0.22,0.836c0,0.308,0.058,0.558,0.176,0.748c0.117,0.191,0.348,0.367,0.692,0.528
			c0.345,0.162,0.821,0.323,1.431,0.484c0.608,0.162,1.404,0.367,2.387,0.616c0.293,0.059,0.7,0.165,1.221,0.319
			c0.521,0.154,1.038,0.4,1.552,0.737c0.513,0.337,0.957,0.789,1.331,1.353c0.374,0.565,0.561,1.287,0.561,2.167
			c0,0.719-0.14,1.386-0.418,2.002c-0.279,0.616-0.693,1.147-1.243,1.595c-0.55,0.448-1.231,0.796-2.046,1.045
			c-0.814,0.25-1.757,0.374-2.827,0.374c-0.865,0-1.705-0.106-2.519-0.318c-0.814-0.213-1.533-0.547-2.156-1.001
			c-0.624-0.455-1.118-1.034-1.485-1.738c-0.366-0.704-0.542-1.54-0.527-2.508h3.344C169.434,44.314,169.529,44.762,169.72,45.128z"
			/>
		<path fill="#FFFFFF" d="M181.336,35.866v-2.574h3.124v2.574H181.336z M184.46,37.626V49h-3.124V37.626H184.46z"/>
		<path fill="#FFFFFF" d="M197.89,49.836c-0.124,0.587-0.393,1.133-0.803,1.639c-0.41,0.507-1.005,0.936-1.782,1.287
			c-0.777,0.353-1.818,0.528-3.124,0.528c-0.558,0-1.125-0.069-1.704-0.209c-0.58-0.14-1.108-0.355-1.585-0.649
			c-0.477-0.293-0.872-0.671-1.188-1.133s-0.495-1.016-0.539-1.661h3.102c0.146,0.587,0.433,0.994,0.858,1.222
			c0.426,0.227,0.917,0.341,1.474,0.341c0.881,0,1.521-0.265,1.926-0.792c0.403-0.528,0.597-1.195,0.583-2.002V46.91h-0.044
			c-0.338,0.602-0.818,1.045-1.441,1.331c-0.624,0.286-1.279,0.429-1.969,0.429c-0.851,0-1.584-0.15-2.2-0.451
			c-0.616-0.3-1.122-0.711-1.518-1.231c-0.396-0.521-0.687-1.13-0.869-1.826c-0.184-0.696-0.275-1.434-0.275-2.211
			c0-0.733,0.106-1.441,0.319-2.123c0.212-0.682,0.524-1.283,0.935-1.804c0.41-0.521,0.92-0.935,1.529-1.243
			c0.608-0.308,1.309-0.462,2.101-0.462c0.748,0,1.404,0.14,1.97,0.418c0.564,0.279,1.037,0.748,1.419,1.408h0.044v-1.518h2.97
			v10.648C198.077,48.729,198.015,49.249,197.89,49.836z M193.612,46.052c0.337-0.176,0.616-0.41,0.836-0.704
			c0.22-0.293,0.385-0.627,0.495-1.001c0.109-0.374,0.165-0.766,0.165-1.177c0-0.469-0.044-0.913-0.133-1.331
			c-0.088-0.418-0.234-0.788-0.439-1.111c-0.206-0.322-0.477-0.579-0.814-0.77c-0.337-0.19-0.763-0.286-1.275-0.286
			c-0.44,0-0.818,0.088-1.133,0.264c-0.316,0.176-0.58,0.415-0.792,0.715c-0.213,0.301-0.367,0.646-0.463,1.034
			c-0.095,0.389-0.143,0.796-0.143,1.221c0,0.411,0.04,0.818,0.121,1.221c0.08,0.403,0.22,0.767,0.418,1.089
			c0.198,0.323,0.458,0.587,0.781,0.792c0.322,0.206,0.726,0.309,1.21,0.309C192.885,46.316,193.274,46.228,193.612,46.052z"/>
		<path fill="#FFFFFF" d="M203.776,37.626v1.584h0.065c0.396-0.66,0.909-1.14,1.54-1.441c0.631-0.3,1.276-0.451,1.937-0.451
			c0.836,0,1.521,0.114,2.057,0.341s0.957,0.542,1.266,0.946c0.308,0.404,0.523,0.895,0.648,1.474
			c0.125,0.58,0.188,1.221,0.188,1.925V49h-3.124v-6.424c0-0.938-0.147-1.639-0.44-2.101c-0.294-0.462-0.813-0.693-1.562-0.693
			c-0.852,0-1.467,0.253-1.849,0.759s-0.572,1.338-0.572,2.497V49h-3.123V37.626H203.776z"/>
		<path fill="#FFFFFF" d="M216.7,46.173c0.139,0.242,0.318,0.44,0.539,0.594c0.22,0.154,0.473,0.269,0.759,0.342
			s0.583,0.109,0.891,0.109c0.22,0,0.451-0.025,0.693-0.077c0.242-0.051,0.462-0.132,0.66-0.241c0.197-0.11,0.362-0.257,0.494-0.44
			c0.133-0.184,0.198-0.414,0.198-0.693c0-0.469-0.312-0.821-0.935-1.056c-0.624-0.234-1.493-0.469-2.607-0.704
			c-0.454-0.103-0.898-0.224-1.331-0.363c-0.433-0.139-0.817-0.322-1.154-0.55c-0.338-0.227-0.609-0.513-0.814-0.858
			c-0.205-0.344-0.308-0.766-0.308-1.265c0-0.733,0.143-1.334,0.429-1.804c0.286-0.469,0.663-0.839,1.133-1.111
			s0.997-0.462,1.584-0.572s1.188-0.165,1.804-0.165c0.616,0,1.214,0.059,1.793,0.176c0.58,0.117,1.097,0.315,1.552,0.594
			c0.454,0.279,0.832,0.649,1.133,1.111c0.301,0.462,0.48,1.045,0.539,1.749h-2.97c-0.045-0.602-0.272-1.008-0.683-1.221
			c-0.41-0.212-0.895-0.319-1.452-0.319c-0.176,0-0.366,0.011-0.571,0.033c-0.206,0.022-0.393,0.07-0.562,0.143
			c-0.169,0.074-0.312,0.18-0.429,0.319c-0.118,0.14-0.176,0.327-0.176,0.561c0,0.279,0.103,0.506,0.308,0.682
			s0.473,0.319,0.803,0.429c0.33,0.11,0.708,0.209,1.133,0.297c0.426,0.088,0.858,0.184,1.299,0.286
			c0.454,0.103,0.897,0.228,1.331,0.374c0.432,0.146,0.817,0.341,1.154,0.583c0.338,0.242,0.608,0.543,0.814,0.901
			c0.205,0.36,0.308,0.804,0.308,1.331c0,0.748-0.15,1.375-0.451,1.881c-0.301,0.507-0.692,0.913-1.177,1.222
			c-0.483,0.308-1.038,0.524-1.661,0.648c-0.623,0.125-1.258,0.188-1.902,0.188c-0.66,0-1.306-0.066-1.937-0.198
			s-1.191-0.352-1.683-0.66c-0.492-0.308-0.895-0.715-1.21-1.221s-0.488-1.141-0.518-1.903h2.971
			C216.491,45.642,216.561,45.931,216.7,46.173z"/>
	</g>
</g>
</svg>
