<?xml version="1.0" encoding="utf-8"?>
<!-- Generator: Adobe Illustrator 16.0.0, SVG Export Plug-In . SVG Version: 6.00 Build 0)  -->
<!DOCTYPE svg PUBLIC "-//W3C//DTD SVG 1.1//EN" "http://www.w3.org/Graphics/SVG/1.1/DTD/svg11.dtd">
<svg version="1.1" xmlns="http://www.w3.org/2000/svg" xmlns:xlink="http://www.w3.org/1999/xlink" x="0px" y="0px" width="308px"
	 height="85px" viewBox="0 0 308 85" enable-background="new 0 0 308 85" xml:space="preserve">
<g id="Layer_8">
	<g>
		
			<radialGradient id="SVGID_1_" cx="155.2502" cy="39.3184" r="111.72" gradientTransform="matrix(-0.7029 0.6874 -0.7029 -0.6874 291.089 -39.1913)" gradientUnits="userSpaceOnUse">
			<stop  offset="0" style="stop-color:#B962FC"/>
			<stop  offset="0.1596" style="stop-color:#AF5EF4"/>
			<stop  offset="0.4323" style="stop-color:#9455DF"/>
			<stop  offset="0.7827" style="stop-color:#6846BC"/>
			<stop  offset="1" style="stop-color:#493BA4"/>
		</radialGradient>
		<path fill="url(#SVGID_1_)" d="M2.5,40.5c0,21.677,17.573,39.25,39.25,39.25h225.167c21.677,0,39.25-17.573,39.25-39.25
			c0-21.677-17.573-39.25-39.25-39.25H41.75C20.073,1.25,2.5,18.823,2.5,40.5C2.5,40.5,2.5,18.823,2.5,40.5z"/>
		<path fill="none" stroke="#FFFFFF" stroke-miterlimit="10" d="M2.5,40.5c0,21.677,17.573,39.25,39.25,39.25h225.167
			c21.677,0,39.25-17.573,39.25-39.25c0-21.677-17.573-39.25-39.25-39.25H41.75C20.073,1.25,2.5,18.823,2.5,40.5
			C2.5,40.5,2.5,18.823,2.5,40.5z"/>
	</g>
</g>
<g id="Layer_5">
</g>
<g id="Layer_4_1_">
</g>
<g id="Layer_6">
	<g>
		<g id="XMLID_1_">
			<g id="XMLID_2_">
				<g id="XMLID_7_">
					<path fill="#9B9A9A" d="M41.045,27.568l0.225,0.815l2.022-0.56l-0.225-0.815c-1.115-4.033-5.304-6.406-9.336-5.291
						c-4.033,1.115-6.406,5.303-5.291,9.336l1.849,6.685l2.021-0.559l-1.849-6.685c-0.807-2.917,0.91-5.949,3.828-6.755
						S40.238,24.65,41.045,27.568z"/>
				</g>
				<g id="XMLID_3_">
					<g>
						<path id="XMLID_5_" fill="#F6C063" d="M47.532,47.059c0,0.449-0.365,0.812-0.813,0.812H26.747
							c-0.449,0-0.813-0.363-0.813-0.812V34.082c0-0.449,0.364-0.814,0.813-0.814h19.972c0.449,0,0.813,0.365,0.813,0.814V47.059z"
							/>
					</g>
				</g>
			</g>
		</g>
		<path fill="#353535" d="M38.517,38.371c0-0.985-0.798-1.786-1.784-1.786c-0.986,0-1.785,0.8-1.785,1.786
			c0,0.587,0.285,1.107,0.723,1.433l-0.568,4.036h3.259l-0.568-4.036C38.233,39.479,38.517,38.958,38.517,38.371z"/>
	</g>
</g>
<g id="Layer_3_1_">
	<text transform="matrix(1 0 0 1 57.3508 46.4912)"><tspan x="0" y="0" fill="#FFFFFF" font-family="'HelveticaNeue-Bold'" font-size="19">ADD </tspan><tspan x="46.455" y="0" fill="#F6C063" font-family="'HelveticaNeue-Bold'" font-size="19">150</tspan><tspan x="78.147" y="0" fill="#FFFFFF" font-family="'HelveticaNeue-Bold'" font-size="19">+ SIGNS</tspan></text>
</g>
</svg>
