<?xml version="1.0" encoding="utf-8"?>
<!-- Generator: Adobe Illustrator 16.0.0, SVG Export Plug-In . SVG Version: 6.00 Build 0)  -->
<!DOCTYPE svg PUBLIC "-//W3C//DTD SVG 1.1//EN" "http://www.w3.org/Graphics/SVG/1.1/DTD/svg11.dtd">
<svg version="1.1" xmlns="http://www.w3.org/2000/svg" xmlns:xlink="http://www.w3.org/1999/xlink" x="0px" y="0px" width="308px"
	 height="85px" viewBox="0 0 308 85" enable-background="new 0 0 308 85" xml:space="preserve">
<g id="Layer_1">
	<path opacity="0.9" fill="#65BCAB" d="M306,106c0,2.762-2.238,5-5,5H6c-2.761,0-5-2.238-5-5V6c0-2.761,2.239-5,5-5h295
		c2.762,0,5,2.239,5,5V106z"/>
	<g>
		
			<image overflow="visible" opacity="0.5" width="297" height="88" xlink:href="42313A9CE1D58562.png"  transform="matrix(1 0 0 1 7.1021 8.1021)">
		</image>
		<g>
			
				<linearGradient id="SVGID_1_" gradientUnits="userSpaceOnUse" x1="190.5166" y1="-20" x2="190.5166" y2="-72.5005" gradientTransform="matrix(1 0 0 -1 -37 3.5)">
				<stop  offset="0" style="stop-color:#50C5FF"/>
				<stop  offset="0.0463" style="stop-color:#44BCFF"/>
				<stop  offset="0.1645" style="stop-color:#2BABFF"/>
				<stop  offset="0.2972" style="stop-color:#189DFF"/>
				<stop  offset="0.4506" style="stop-color:#0A93FF"/>
				<stop  offset="0.6431" style="stop-color:#028EFF"/>
				<stop  offset="1" style="stop-color:#008CFF"/>
			</linearGradient>
			<path fill="url(#SVGID_1_)" d="M283.98,69.675c0,3.49-2.207,6.325-4.926,6.325H27.959c-2.718,0-4.925-2.835-4.925-6.325v-39.85
				c0-3.491,2.208-6.325,4.936-6.325h251.094c2.73,0,4.937,2.834,4.937,6.325v39.85H283.98z"/>
			<path fill="none" stroke="#0990D3" stroke-miterlimit="10" d="M283.98,69.675c0,3.49-2.207,6.325-4.926,6.325H27.959
				c-2.718,0-4.925-2.835-4.925-6.325v-39.85c0-3.491,2.208-6.325,4.936-6.325h251.094c2.73,0,4.937,2.834,4.937,6.325v39.85H283.98
				z"/>
		</g>
	</g>
	<g>
		<path fill="#0A617C" d="M78.934,60.442l2.889,7.393h-1.087l-0.808-2.227h-3.126l-0.828,2.227h-1.004l2.878-7.393H78.934z
			 M79.618,64.78l-1.232-3.446h-0.021l-1.253,3.446H79.618z"/>
		<path fill="#0A617C" d="M83.926,60.442l3.893,5.995h0.021v-5.995h0.932v7.393h-1.077l-3.862-5.934h-0.021v5.934h-0.932v-7.393
			H83.926z"/>
		<path fill="#0A617C" d="M93.185,60.442c1.139,0,2.016,0.291,2.63,0.87s0.921,1.463,0.921,2.649c0,0.621-0.069,1.172-0.207,1.652
			c-0.138,0.479-0.352,0.884-0.642,1.211c-0.29,0.328-0.659,0.579-1.108,0.751s-0.98,0.259-1.594,0.259h-2.537v-7.393H93.185z
			 M93.268,67.007c0.11,0,0.248-0.01,0.414-0.026c0.166-0.018,0.342-0.058,0.528-0.125c0.186-0.064,0.371-0.159,0.553-0.284
			c0.183-0.124,0.347-0.294,0.492-0.507c0.145-0.214,0.264-0.481,0.357-0.802c0.093-0.321,0.139-0.71,0.139-1.165
			c0-0.442-0.043-0.837-0.129-1.186s-0.228-0.646-0.424-0.891c-0.197-0.245-0.45-0.431-0.761-0.559s-0.694-0.192-1.149-0.192h-1.656
			v5.736H93.268z"/>
		<path fill="#0A617C" d="M105.723,67.747c-0.428,0.168-0.859,0.253-1.294,0.253c-0.552,0-1.046-0.102-1.48-0.305
			c-0.435-0.204-0.804-0.479-1.107-0.823c-0.304-0.346-0.535-0.742-0.694-1.191c-0.159-0.448-0.238-0.913-0.238-1.396
			c0-0.539,0.074-1.052,0.223-1.538c0.148-0.486,0.369-0.913,0.663-1.279c0.293-0.365,0.659-0.657,1.098-0.874
			c0.438-0.218,0.95-0.327,1.537-0.327c0.4,0,0.778,0.047,1.133,0.141c0.355,0.094,0.673,0.24,0.953,0.44
			c0.279,0.2,0.514,0.453,0.704,0.76c0.19,0.308,0.319,0.68,0.388,1.114h-0.983c-0.049-0.283-0.139-0.526-0.27-0.729
			c-0.131-0.205-0.293-0.372-0.486-0.503c-0.194-0.131-0.413-0.229-0.658-0.295c-0.245-0.066-0.505-0.099-0.782-0.099
			c-0.449,0-0.833,0.089-1.154,0.27c-0.321,0.18-0.583,0.416-0.787,0.709c-0.204,0.294-0.354,0.627-0.451,1.004
			c-0.096,0.377-0.145,0.762-0.145,1.154c0,0.387,0.055,0.758,0.166,1.114c0.11,0.354,0.272,0.669,0.486,0.941
			c0.214,0.272,0.478,0.49,0.792,0.651c0.314,0.162,0.678,0.244,1.092,0.244c0.386,0,0.728-0.062,1.025-0.188
			c0.297-0.123,0.547-0.295,0.75-0.512c0.204-0.218,0.357-0.473,0.461-0.766c0.104-0.294,0.148-0.609,0.135-0.947h-2.361v-0.828
			h3.241v3.893h-0.621l-0.259-0.923C106.509,67.3,106.15,67.578,105.723,67.747z"/>
		<path fill="#0A617C" d="M114.545,60.442v0.828h-4.121v2.351h3.841v0.828h-3.841v2.558h4.152v0.828h-5.136v-7.393H114.545z"/>
		<path fill="#0A617C" d="M115.463,61.271v-0.828h5.912v0.828h-2.464v6.564h-0.984v-6.564H115.463z"/>
		<path fill="#0A617C" d="M122.027,67.835"/>
		<path fill="#0A617C" d="M131.076,60.442v0.828h-3.872v2.351h3.396v0.828h-3.396v3.386h-0.984v-7.393H131.076z"/>
		<path fill="#0A617C" d="M137.497,67.291c-0.504,0.473-1.222,0.709-2.154,0.709c-0.952,0-1.696-0.226-2.231-0.678
			s-0.802-1.172-0.802-2.159v-4.721h0.983v4.721c0,0.664,0.176,1.165,0.528,1.507c0.352,0.342,0.859,0.513,1.521,0.513
			c0.628,0,1.106-0.171,1.434-0.513c0.328-0.342,0.492-0.843,0.492-1.507v-4.721h0.983v4.721
			C138.252,66.109,138,66.818,137.497,67.291z"/>
		<path fill="#0A617C" d="M139.348,61.271v-0.828h5.912v0.828h-2.465v6.564h-0.983v-6.564H139.348z"/>
		<path fill="#0A617C" d="M151.53,67.291c-0.503,0.473-1.221,0.709-2.153,0.709c-0.952,0-1.696-0.226-2.231-0.678
			c-0.536-0.452-0.803-1.172-0.803-2.159v-4.721h0.985v4.721c0,0.664,0.177,1.165,0.528,1.507c0.352,0.342,0.859,0.513,1.521,0.513
			c0.629,0,1.106-0.171,1.434-0.513c0.328-0.342,0.493-0.843,0.493-1.507v-4.721h0.983v4.721
			C152.287,66.109,152.034,66.818,151.53,67.291z"/>
		<path fill="#0A617C" d="M157.619,60.442c0.706,0,1.256,0.174,1.652,0.518c0.396,0.346,0.594,0.818,0.594,1.419
			c0,0.449-0.101,0.842-0.305,1.18c-0.202,0.339-0.53,0.569-0.977,0.694v0.021c0.212,0.041,0.388,0.109,0.521,0.207
			c0.136,0.097,0.242,0.212,0.321,0.348c0.079,0.133,0.138,0.284,0.176,0.448c0.038,0.166,0.067,0.34,0.087,0.518
			c0.015,0.181,0.024,0.363,0.032,0.551c0.007,0.186,0.024,0.367,0.051,0.548c0.028,0.18,0.069,0.35,0.119,0.513
			c0.053,0.162,0.13,0.305,0.232,0.43h-1.096c-0.068-0.076-0.115-0.181-0.14-0.311c-0.024-0.132-0.04-0.278-0.046-0.44
			c-0.009-0.161-0.015-0.336-0.022-0.523c-0.006-0.186-0.026-0.368-0.061-0.548c-0.028-0.18-0.062-0.35-0.105-0.513
			c-0.04-0.163-0.107-0.304-0.196-0.425c-0.089-0.12-0.206-0.217-0.352-0.29c-0.146-0.072-0.338-0.108-0.58-0.108h-2.4v3.158h-0.985
			v-7.393H157.619z M157.827,63.797c0.206-0.035,0.389-0.102,0.544-0.202c0.154-0.1,0.279-0.235,0.372-0.402
			c0.093-0.17,0.14-0.389,0.14-0.658c0-0.373-0.104-0.677-0.312-0.911c-0.206-0.234-0.542-0.353-1.003-0.353h-2.442v2.578h2.048
			C157.402,63.849,157.619,63.831,157.827,63.797z"/>
		<path fill="#0A617C" d="M166.655,60.442v0.828h-4.12v2.351h3.842v0.828h-3.842v2.558h4.15v0.828h-5.134v-7.393H166.655z"/>
		<path fill="#0A617C" d="M174.912,61.452c-0.33-0.238-0.748-0.357-1.26-0.357c-0.206,0-0.411,0.021-0.611,0.062
			c-0.2,0.042-0.378,0.11-0.531,0.208c-0.156,0.097-0.281,0.227-0.374,0.388c-0.093,0.162-0.14,0.364-0.14,0.605
			c0,0.228,0.068,0.413,0.202,0.555c0.136,0.142,0.313,0.258,0.538,0.347s0.479,0.164,0.762,0.223s0.57,0.123,0.864,0.191
			c0.293,0.069,0.582,0.15,0.865,0.243s0.535,0.219,0.76,0.378s0.404,0.359,0.538,0.601c0.136,0.241,0.202,0.545,0.202,0.911
			c0,0.394-0.087,0.729-0.263,1.01c-0.178,0.279-0.402,0.507-0.68,0.683c-0.274,0.177-0.584,0.305-0.926,0.383
			C174.518,67.96,174.178,68,173.84,68c-0.414,0-0.807-0.052-1.177-0.155c-0.368-0.104-0.693-0.261-0.973-0.471
			c-0.278-0.211-0.499-0.479-0.661-0.808c-0.164-0.327-0.244-0.716-0.244-1.164h0.932c0,0.311,0.061,0.578,0.183,0.802
			c0.119,0.225,0.278,0.409,0.475,0.554s0.427,0.252,0.689,0.32c0.261,0.07,0.53,0.104,0.807,0.104c0.221,0,0.443-0.021,0.668-0.062
			c0.224-0.043,0.427-0.113,0.606-0.213c0.178-0.101,0.323-0.236,0.435-0.409c0.109-0.173,0.166-0.394,0.166-0.662
			c0-0.256-0.069-0.463-0.202-0.621c-0.136-0.159-0.315-0.289-0.538-0.388c-0.225-0.102-0.479-0.183-0.763-0.245
			c-0.283-0.062-0.57-0.125-0.863-0.191c-0.293-0.065-0.582-0.14-0.865-0.228c-0.283-0.087-0.536-0.199-0.761-0.341
			c-0.224-0.142-0.404-0.325-0.537-0.549c-0.136-0.224-0.202-0.505-0.202-0.845c0-0.372,0.074-0.694,0.227-0.967
			c0.153-0.272,0.354-0.497,0.606-0.673s0.537-0.308,0.859-0.395c0.321-0.085,0.65-0.13,0.988-0.13c0.38,0,0.732,0.046,1.056,0.136
			c0.325,0.089,0.608,0.23,0.855,0.425c0.244,0.192,0.437,0.437,0.578,0.729c0.142,0.294,0.221,0.644,0.232,1.051h-0.93
			C175.43,62.075,175.239,61.689,174.912,61.452z"/>
		<path fill="#0A617C" d="M179.215,60.442v7.393h-0.982v-7.393H179.215z"/>
		<path fill="#0A617C" d="M185.584,67.747C185.157,67.915,184.725,68,184.29,68c-0.552,0-1.045-0.102-1.479-0.305
			c-0.436-0.204-0.806-0.479-1.108-0.823c-0.304-0.346-0.534-0.742-0.693-1.191c-0.158-0.448-0.239-0.913-0.239-1.396
			c0-0.539,0.075-1.052,0.223-1.538c0.149-0.486,0.37-0.913,0.663-1.279c0.293-0.365,0.659-0.657,1.099-0.874
			c0.438-0.218,0.95-0.327,1.536-0.327c0.4,0,0.778,0.047,1.135,0.141c0.355,0.094,0.673,0.24,0.952,0.44s0.514,0.453,0.704,0.76
			c0.189,0.308,0.319,0.68,0.388,1.114h-0.982c-0.049-0.283-0.14-0.526-0.27-0.729c-0.131-0.205-0.295-0.372-0.487-0.503
			c-0.193-0.131-0.412-0.229-0.657-0.295c-0.244-0.066-0.505-0.099-0.782-0.099c-0.448,0-0.833,0.089-1.154,0.27
			c-0.319,0.18-0.582,0.416-0.787,0.709c-0.204,0.294-0.354,0.627-0.45,1.004c-0.096,0.377-0.144,0.762-0.144,1.154
			c0,0.387,0.055,0.758,0.165,1.114c0.109,0.354,0.273,0.669,0.485,0.941c0.215,0.272,0.479,0.49,0.793,0.651
			c0.313,0.162,0.678,0.244,1.092,0.244c0.387,0,0.729-0.062,1.025-0.188c0.297-0.123,0.548-0.295,0.75-0.512
			c0.204-0.218,0.358-0.473,0.461-0.766c0.104-0.294,0.147-0.609,0.136-0.947h-2.361v-0.828h3.241v3.893h-0.621l-0.259-0.923
			C186.371,67.3,186.013,67.578,185.584,67.747z"/>
		<path fill="#0A617C" d="M190.345,60.442l3.892,5.995h0.021v-5.995h0.933v7.393h-1.078l-3.86-5.934h-0.021v5.934h-0.933v-7.393
			H190.345z"/>
		<path fill="#0A617C" d="M200.792,61.452c-0.329-0.238-0.748-0.357-1.26-0.357c-0.206,0-0.41,0.021-0.61,0.062
			c-0.2,0.042-0.378,0.11-0.531,0.208c-0.156,0.097-0.281,0.227-0.375,0.388c-0.093,0.162-0.139,0.364-0.139,0.605
			c0,0.228,0.068,0.413,0.202,0.555c0.135,0.142,0.313,0.258,0.537,0.347c0.225,0.089,0.479,0.164,0.763,0.223
			s0.57,0.123,0.863,0.191c0.293,0.069,0.583,0.15,0.865,0.243c0.283,0.093,0.536,0.219,0.761,0.378s0.404,0.359,0.538,0.601
			c0.135,0.241,0.202,0.545,0.202,0.911c0,0.394-0.087,0.729-0.263,1.01c-0.179,0.279-0.402,0.507-0.68,0.683
			c-0.275,0.177-0.584,0.305-0.926,0.383c-0.342,0.079-0.682,0.119-1.02,0.119c-0.414,0-0.807-0.052-1.177-0.155
			c-0.368-0.104-0.693-0.261-0.973-0.471c-0.279-0.211-0.5-0.479-0.661-0.808c-0.164-0.327-0.245-0.716-0.245-1.164h0.933
			c0,0.311,0.061,0.578,0.182,0.802c0.119,0.225,0.279,0.409,0.476,0.554s0.427,0.252,0.689,0.32
			c0.261,0.07,0.529,0.104,0.807,0.104c0.221,0,0.442-0.021,0.667-0.062c0.225-0.043,0.427-0.113,0.607-0.213
			c0.178-0.101,0.323-0.236,0.435-0.409c0.108-0.173,0.165-0.394,0.165-0.662c0-0.256-0.068-0.463-0.202-0.621
			c-0.135-0.159-0.315-0.289-0.537-0.388c-0.225-0.102-0.479-0.183-0.763-0.245c-0.283-0.062-0.57-0.125-0.863-0.191
			c-0.293-0.065-0.582-0.14-0.865-0.228c-0.283-0.087-0.536-0.199-0.761-0.341s-0.404-0.325-0.538-0.549
			c-0.135-0.224-0.202-0.505-0.202-0.845c0-0.372,0.075-0.694,0.227-0.967c0.154-0.272,0.354-0.497,0.606-0.673
			c0.253-0.176,0.538-0.308,0.859-0.395c0.322-0.085,0.651-0.13,0.989-0.13c0.38,0,0.731,0.046,1.056,0.136
			c0.325,0.089,0.608,0.23,0.855,0.425c0.244,0.192,0.437,0.437,0.578,0.729c0.142,0.294,0.221,0.644,0.232,1.051h-0.931
			C201.31,62.075,201.12,61.689,200.792,61.452z"/>
		<path fill="#0A617C" d="M211.988,60.442v0.828h-3.872v2.351h3.396v0.828h-3.396v3.386h-0.982v-7.393H211.988z"/>
		<path fill="#0A617C" d="M213.021,62.685c0.15-0.466,0.372-0.879,0.67-1.237c0.295-0.359,0.665-0.646,1.105-0.859
			c0.443-0.215,0.957-0.322,1.543-0.322c0.587,0,1.103,0.107,1.543,0.322c0.443,0.214,0.811,0.5,1.108,0.859
			c0.297,0.358,0.52,0.771,0.667,1.237c0.149,0.465,0.223,0.95,0.223,1.454c0,0.503-0.073,0.988-0.223,1.454
			c-0.147,0.467-0.37,0.879-0.667,1.237c-0.298,0.359-0.665,0.645-1.108,0.854c-0.44,0.211-0.956,0.315-1.543,0.315
			c-0.586,0-1.1-0.104-1.543-0.315c-0.44-0.21-0.811-0.495-1.105-0.854c-0.298-0.358-0.52-0.771-0.67-1.237
			c-0.147-0.466-0.222-0.951-0.222-1.454C212.8,63.635,212.874,63.149,213.021,62.685z M213.928,65.241
			c0.097,0.363,0.249,0.688,0.457,0.978c0.206,0.291,0.471,0.524,0.797,0.7c0.323,0.176,0.71,0.264,1.158,0.264
			c0.449,0,0.835-0.088,1.161-0.264c0.323-0.176,0.59-0.409,0.797-0.7c0.206-0.289,0.357-0.614,0.454-0.978
			c0.098-0.363,0.146-0.729,0.146-1.103c0-0.372-0.049-0.74-0.146-1.103c-0.097-0.362-0.248-0.688-0.454-0.979
			c-0.207-0.289-0.474-0.522-0.797-0.698c-0.326-0.177-0.712-0.265-1.161-0.265c-0.448,0-0.835,0.088-1.158,0.265
			c-0.326,0.176-0.591,0.409-0.797,0.698c-0.208,0.29-0.36,0.616-0.457,0.979c-0.095,0.362-0.144,0.73-0.144,1.103
			C213.784,64.512,213.833,64.878,213.928,65.241z"/>
		<path fill="#0A617C" d="M224.857,60.442c0.705,0,1.256,0.174,1.651,0.518c0.396,0.346,0.595,0.818,0.595,1.419
			c0,0.449-0.101,0.842-0.306,1.18c-0.202,0.339-0.529,0.569-0.977,0.694v0.021c0.213,0.041,0.389,0.109,0.522,0.207
			c0.135,0.097,0.242,0.212,0.321,0.348c0.079,0.133,0.138,0.284,0.176,0.448c0.038,0.166,0.066,0.34,0.087,0.518
			c0.014,0.181,0.024,0.363,0.032,0.551c0.006,0.186,0.024,0.367,0.051,0.548c0.028,0.18,0.068,0.35,0.119,0.513
			c0.053,0.162,0.13,0.305,0.232,0.43h-1.096c-0.069-0.076-0.115-0.181-0.14-0.311c-0.024-0.132-0.04-0.278-0.047-0.44
			c-0.008-0.161-0.014-0.336-0.021-0.523c-0.007-0.186-0.026-0.368-0.061-0.548c-0.029-0.18-0.063-0.35-0.105-0.513
			c-0.041-0.163-0.107-0.304-0.196-0.425c-0.089-0.12-0.206-0.217-0.352-0.29c-0.146-0.072-0.338-0.108-0.581-0.108h-2.399v3.158
			h-0.985v-7.393H224.857z M225.065,63.797c0.206-0.035,0.388-0.102,0.544-0.202c0.153-0.1,0.279-0.235,0.372-0.402
			c0.093-0.17,0.14-0.389,0.14-0.658c0-0.373-0.104-0.677-0.312-0.911c-0.206-0.234-0.542-0.353-1.003-0.353h-2.442v2.578h2.048
			C224.641,63.849,224.857,63.831,225.065,63.797z"/>
		<path fill="#0A617C" d="M236.66,60.442v0.828h-3.872v2.351h3.395v0.828h-3.395v3.386h-0.983v-7.393H236.66z"/>
		<path fill="#0A617C" d="M241.394,60.442c0.706,0,1.256,0.174,1.652,0.518c0.396,0.346,0.595,0.818,0.595,1.419
			c0,0.449-0.102,0.842-0.306,1.18c-0.202,0.339-0.53,0.569-0.977,0.694v0.021c0.212,0.041,0.388,0.109,0.521,0.207
			c0.136,0.097,0.242,0.212,0.321,0.348c0.079,0.133,0.138,0.284,0.176,0.448c0.039,0.166,0.067,0.34,0.087,0.518
			c0.015,0.181,0.024,0.363,0.032,0.551c0.007,0.186,0.024,0.367,0.051,0.548c0.028,0.18,0.069,0.35,0.119,0.513
			c0.053,0.162,0.13,0.305,0.233,0.43h-1.097c-0.068-0.076-0.115-0.181-0.14-0.311c-0.023-0.132-0.04-0.278-0.046-0.44
			c-0.008-0.161-0.015-0.336-0.022-0.523c-0.006-0.186-0.026-0.368-0.061-0.548c-0.028-0.18-0.062-0.35-0.105-0.513
			c-0.04-0.163-0.107-0.304-0.196-0.425c-0.089-0.12-0.206-0.217-0.352-0.29c-0.146-0.072-0.338-0.108-0.58-0.108h-2.4v3.158h-0.984
			v-7.393H241.394z M241.602,63.797c0.207-0.035,0.389-0.102,0.544-0.202c0.154-0.1,0.279-0.235,0.372-0.402
			c0.094-0.17,0.14-0.389,0.14-0.658c0-0.373-0.103-0.677-0.312-0.911c-0.206-0.234-0.542-0.353-1.003-0.353H238.9v2.578h2.049
			C241.178,63.849,241.394,63.831,241.602,63.797z"/>
		<path fill="#0A617C" d="M250.431,60.442v0.828h-4.121v2.351h3.842v0.828h-3.842v2.558h4.151v0.828h-5.135v-7.393H250.431z"/>
		<path fill="#0A617C" d="M256.968,60.442v0.828h-4.119v2.351h3.84v0.828h-3.84v2.558H257v0.828h-5.136v-7.393H256.968z"/>
	</g>
	<g id="Layer_1_1_">
		<g id="border" display="none">
			<path display="inline" fill="#65BCAB" d="M304,97.109c0,6.57-5.35,11.891-11.96,11.891H9.96C3.36,109-2,103.68-2,97.109V11.89
				C-2,5.32,3.36,0,9.96,0h282.08C298.641,0,304,5.32,304,11.89V97.109L304,97.109z"/>
		</g>
		<g id="girl">
			<g id="girl_1_">
				<path fill="#DDE5CE" d="M60.25,79.519c-0.176-1.609-0.34-3.278-1.151-4.698c-0.235-0.411-0.434-0.741-0.611-1.011
					c0.306-0.669,0.447-1.315,0.329-1.691c-2.608-8.397-7.306-21.846-10.5-30.032c-0.623-1.598-2.819-3.266-4.569-3.642
					c-4.181-0.893-8.527-1.351-12.802-1.409c-5.744-0.082-9.514-1.315-12.379-4.569c0.129-2.583,0.998-5.156,2.736-7.117
					c1.269,5.414,5.732,9.971,11.052,9.971c5.274,0,9.713-4.486,11.029-9.842c2.126,2.49,2.913,5.896,2.561,9.103
					c5.979-0.165,7.165-9.89-2.173-11.934c0-0.117,0.012-0.234,0.012-0.352c0-6.625-5.109-12.004-11.417-12.004
					c-6.308,0-11.405,5.379-11.405,12.004c0,0.105,0,0.211,0,0.329c-3.007,0.623-4.933,2.044-5.99,3.676
					c-0.012-0.023-0.023-0.046-0.023-0.059c-1.316-3.194-1.196-2.077-1.851-5.472c0.574-1.223,1.429-2.42,2.187-3.538
					c0.403-0.597,0.945-1.099,1.329-1.722c0.316-0.505,0.145-1.024,0.316-1.591c0.195-0.634,0.447-2.604-0.925-2.059
					c-1.33,0.505-0.683,2.181-1.618,3.019c-0.267,0.227-1.008,0.848-1.411,0.633c-0.404-0.214-0.777-0.936-0.879-1.371
					c-0.318-1.309,0.082-2.562,1.168-3.312c0.869-0.253,1.763,1.706,2.683,0.616c0.361-0.425,0.311-0.815-0.132-1.145
					c-0.572-0.411-1.144-0.881-1.748-1.25c-1.109-0.673-2.223-0.38-3.107,0.513c-0.419,0.416-0.561,1.082-0.772,1.605
					c-0.046,0.123-0.631,1.547-0.812,0.68c-0.157-0.73-0.182-2.144-0.135-2.886C9.145,8.157,9.199,7.034,9.243,5.503
					c0.013-0.75,0.208-2.468-0.229-3.094c-0.229-0.327-0.8-0.535-1.16-0.324C7.188,2.481,7.317,3.1,7.305,3.778l0.045,8.201
					c-0.098,0.556-0.12,0.814-0.552,0.762c-0.161-1.591-0.375-3.286-0.68-4.867C5.966,7.108,5.993,3.439,4.4,4.422
					C3.573,4.921,4.025,5.872,4.157,6.61C4.315,7.544,4.457,8.5,4.614,9.433c0.157,0.935,0.35,1.875,0.457,2.824
					C5.154,13,5.611,13.653,4.664,13.82c-0.204-0.942-0.516-1.88-0.794-2.8c-0.185-0.641-0.404-2.374-1.1-2.556
					C1.1,7.919,2.647,12.606,2.782,13.058c0.481,1.6,0.768,3.225,1.402,4.768c0.275,0.669,0.716,1.283,1.082,1.908
					c0.248,0.485,0.604,0.905,0.866,1.381c0.221,0.373-1.46-2.05-1.272-1.662c2.948,7.423,5.567,15.152,9.877,21.717
					c4.745,7.258,6.272,13.179,4.792,21.118c-1.269,6.742-3.359,14.67-4.757,21.718c2.255,0.233,4.111,0.422,7.129,0.738
					c0,5.345,0.118,10.759-0.035,16.161c-0.059,2.032,0.411,3.324,1.55,4.029c0.223,2.244,1.503,3.97,3.03,3.97
					c1.562,0,2.842-1.762,3.042-4.051c0.94-0.706,1.362-1.927,1.362-3.795c0.012-5.496,0.423-11.018,0.669-16.525
					c0.529-0.105,2.162-0.012,2.713-0.047c0.259,1.068,0.165,1.75,0.235,2.807c0.282,4.628,0.435,9.279,0.446,13.919
					c0.012,1.831,0.458,3.1,1.504,3.781c0.234,2.232,1.503,3.923,3.03,3.923c1.539,0,2.819-1.727,3.042-3.969
					c1.01-0.6,1.585-1.692,1.539-3.63c-0.141-5.415-0.036-10.841-0.036-16.468c2.713-0.316,4.698-0.563,6.977-0.833
					c-1.539-7.882-3.523-15.892-5.015-23.562l4.675,8.681c0.717,1.256,2.22,5.086,3.853,6.648c0.129,0.375,0.329,0.75,0.599,1.114
					c0.529,0.753,0.964,1.551,1.445,2.314c0.129,0.2,0.306,0.364,0.447,0.563c0.164,0.212,0.423,0.423,0.47,0.657
					c0.234,1.246,0.658,2.373,1.656,3.185c0.129,0.116,0.388,0.199,0.529,0.151c0.141-0.046,0.306-0.257,0.329-0.423
					c0.047-0.329,0-0.658-0.012-0.997c0-0.354,0-0.706,0.047-1.047C60.05,80.693,60.297,80.094,60.25,79.519z"/>
			</g>
		</g>
		<path fill="#EA5F72" d="M38.113,44c-2.733,0-5.388,3.278-5.388,3.278S30.07,44,27.337,44S22,45.373,22,49.39
			c0,2.85,2.682,5.362,2.682,5.362l8.044,8.018l8.043-8.018c0,0,2.681-2.5,2.681-5.362C43.438,45.373,40.833,44,38.113,44z"/>
	</g>
</g>
<g id="Layer_2">
</g>
<g id="Layer_3" display="none">
	<text transform="matrix(1 0 0 1 57 54)" display="inline" fill="#DDE5CE" font-family="'Handlee-Regular'" font-size="20">Add 87 Signs Now</text>
</g>
</svg>
