<svg version="1.1" xmlns="http://www.w3.org/2000/svg" xmlns:xlink="http://www.w3.org/1999/xlink" x="0px" y="0px" width="308px"
	 height="70px" viewBox="0 0 308 70" enable-background="new 0 0 308 70" xml:space="preserve">
<g id="border_1_">
	<g id="Layer_11">
		<path fill="none" stroke="#9ED0BB" stroke-width="0.7202" stroke-miterlimit="10" d="M307.5,66.664
			c0,1.423-2.729,2.836-5.481,2.836H5.98c-2.752,0-5.48-1.413-5.48-2.836V2.768C0.5,1.346,3.228,0,5.98,0h296.038
			c2.754,0,5.481,1.346,5.481,2.768L307.5,66.664L307.5,66.664z"/>
	</g>
</g>
<g id="Layer_1">
	<g id="Layer_10" opacity="0.5">
		<path fill="#65BCAB" d="M307,66.904c0,1.434-2.231,2.596-4.983,2.596H5.984C3.231,69.5,1,68.338,1,66.904V2.527
			C1,1.094,3.231,0,5.984,0h296.033C304.769,0,307,1.094,307,2.527V66.904z"/>
	</g>
	<linearGradient id="SVGID_1_" gradientUnits="userSpaceOnUse" x1="155.4355" y1="14" x2="155.4355" y2="55.5005">
		<stop  offset="0" style="stop-color:#F4C151"/>
		<stop  offset="0.169" style="stop-color:#E5AF47"/>
		<stop  offset="0.3632" style="stop-color:#DAA23F"/>
		<stop  offset="0.5367" style="stop-color:#D69D3C"/>
		<stop  offset="0.6877" style="stop-color:#DAA13F"/>
		<stop  offset="0.8507" style="stop-color:#E4AE46"/>
		<stop  offset="1" style="stop-color:#F4C151"/>
	</linearGradient>
	<path fill="url(#SVGID_1_)" stroke="#1E8FD9" stroke-width="1.9132" stroke-miterlimit="10" d="M285.5,50.5c0,2.762-2.2,5-4.915,5
		H30.286c-2.714,0-4.915-2.238-4.915-5V19c0-2.761,2.201-5,4.915-5h250.299c2.715,0,4.915,2.239,4.915,5V50.5z"/>
	<g id="border" display="none">
		<path display="inline" fill="#65BCAB" d="M307.5,98.109c0,6.565-5.355,11.891-11.961,11.891H13.461
			C6.855,110,1.5,104.676,1.5,98.109V12.891C1.5,6.324,6.855,1,13.461,1h282.078c6.604,0,11.961,5.324,11.961,11.891V98.109z"/>
	</g>
	<g id="girl">
		<g id="girl_1_">
			<path fill="#DDE5CE" d="M55.506,71.074c-0.146-1.371-0.287-2.794-0.98-4c-0.203-0.355-0.374-0.629-0.518-0.86
				c0.262-0.567,0.375-1.119,0.276-1.443c-2.219-7.149-6.219-18.602-8.94-25.574c-0.534-1.365-2.404-2.784-3.89-3.104
				c-3.564-0.765-7.256-1.147-10.898-1.201c-4.887-0.067-8.103-1.118-10.545-3.894c0.106-2.205,0.853-4.39,2.326-6.059
				c1.078,4.605,4.882,8.488,9.409,8.488c4.488,0,8.273-3.817,9.386-8.379c1.805,2.115,2.482,5.02,2.179,7.745
				c5.094-0.141,6.098-8.417-1.852-10.157c0.003-0.101,0.005-0.203,0.005-0.302c0-5.64-4.349-10.219-9.716-10.219
				c-5.366,0-9.715,4.579-9.715,10.219c0,0.094,0.001,0.184,0.004,0.277c-2.555,0.534-4.202,1.735-5.096,3.134
				c-0.008-0.019-0.016-0.038-0.022-0.055c-1.121-2.722-2.297-5.425-3.352-8.172c0.297-1.111,0.837-2.241,1.314-3.292
				c0.254-0.56,0.627-1.064,0.857-1.639c0.191-0.475-0.029-0.876,0.034-1.381c0.072-0.564-0.006-2.25-1.083-1.59
				c-1.036,0.62-0.248,1.93-0.915,2.771c-0.186,0.232-0.72,0.858-1.088,0.744c-0.371-0.116-0.793-0.67-0.942-1.018
				c-0.465-1.051-0.306-2.156,0.485-2.946c0.689-0.345,1.729,1.174,2.337,0.123c0.239-0.415,0.144-0.728-0.284-0.936
				c-0.539-0.26-1.094-0.572-1.648-0.792c-1.033-0.401-1.92,0.012-2.526,0.885c-0.29,0.413-0.31,0.985-0.415,1.463
				c-0.022,0.105-0.296,1.392-0.579,0.692c-0.24-0.595-0.473-1.771-0.542-2.402C8.41,7.546,8.294,6.598,8.097,5.307
				C8.002,4.679,7.905,3.209,7.453,2.749C7.211,2.505,6.701,2.416,6.427,2.653C5.934,3.079,6.132,3.581,6.219,4.149l1.246,6.874
				c0,0.483,0.017,0.698-0.351,0.723c-0.366-1.313-0.8-2.698-1.289-3.98C5.587,7.143,5.072,4.062,3.876,5.117
				C3.256,5.661,3.782,6.39,4,6.989C4.273,7.746,4.529,8.53,4.796,9.285c0.272,0.756,0.574,1.524,0.798,2.296
				c0.179,0.61,0.66,1.086-0.108,1.365c-0.306-0.765-0.714-1.499-1.084-2.235C4.16,10.224,3.72,8.799,3.114,8.749
				c-1.484-0.21,0.51,3.494,0.69,3.846c0.643,1.271,1.119,2.593,1.883,3.791c0.333,0.524,0.79,0.969,1.185,1.444
				c0.279,0.372,0.641,0.668,0.93,1.029c0.235,0.283,0.386,0.74,0.548,1.068c2.507,6.323,4.742,12.897,8.414,18.491
				c4.043,6.176,5.343,11.216,4.075,17.979c-1.082,5.738-2.864,12.492-4.055,18.492c1.923,0.197,3.498,0.362,6.065,0.634
				c0,4.546,0.099,9.156-0.033,13.757c-0.055,1.729,0.347,2.832,1.32,3.429c0.192,1.914,1.276,3.38,2.584,3.38
				c1.326,0,2.421-1.503,2.592-3.454c0.804-0.597,1.158-1.636,1.164-3.234c0.01-4.685,0.36-9.385,0.567-14.072
				c0.449-0.089,1.836-0.013,2.306-0.043c0.218,0.906,0.143,1.494,0.196,2.393c0.241,3.941,0.372,7.897,0.383,11.854
				c0.008,1.562,0.386,2.637,1.279,3.22c0.204,1.896,1.281,3.338,2.579,3.338c1.312,0,2.397-1.47,2.588-3.384
				c0.859-0.514,1.352-1.441,1.305-3.095c-0.121-4.614-0.033-9.228-0.033-14.024c2.305-0.271,3.998-0.478,5.944-0.709
				c-1.313-6.711-3.005-13.528-4.274-20.056l3.979,7.39c0.609,1.073,1.894,4.326,3.276,5.66c0.107,0.324,0.284,0.637,0.506,0.952
				c0.448,0.635,0.817,1.316,1.232,1.969c0.107,0.174,0.263,0.313,0.383,0.476c0.14,0.184,0.358,0.355,0.398,0.564
				c0.202,1.055,0.562,2.015,1.412,2.706c0.114,0.096,0.328,0.167,0.451,0.132c0.123-0.036,0.256-0.223,0.276-0.364
				c0.042-0.282-0.003-0.561-0.006-0.847c0-0.305-0.002-0.602,0.041-0.893C55.338,72.07,55.549,71.56,55.506,71.074z"/>
		</g>
		<g id="kids">
			<g enable-background="new    ">
				<path fill="#CB394D" d="M-57.639-17.117l0.383-0.044c0.076,0,0.108,0.036,0.108,0.112c0,0.13-0.086,0.227-0.273,0.292
					c-0.184,0.065-0.381,0.099-0.61,0.099c-0.426,0-0.787-0.177-1.083-0.514c-0.295-0.342-0.689-0.972-1.213-1.903
					c-0.12-0.196-0.186-0.349-0.186-0.458c0-0.141,0.196-0.305,0.603-0.501c0.643-0.34,0.97-0.754,0.97-1.259
					c0-0.142-0.054-0.261-0.153-0.358c-0.097-0.098-0.229-0.156-0.392-0.156c-0.229,0-0.502,0.275-0.82,0.809
					c-0.316,0.537-0.524,1.051-0.634,1.52c-0.11,0.473-0.165,0.982-0.165,1.52c0,0.26-0.078,0.405-0.23,0.405
					c-0.218,0-0.427-0.033-0.634-0.098c-0.195-0.069-0.294-0.14-0.294-0.24c0-0.099,0.033-0.556,0.109-1.358
					c0.076-0.806,0.12-1.385,0.132-1.736c0.033-1.945,0.153-3.433,0.339-4.457c0.034-0.089,0.165-0.231,0.393-0.451
					c0.23-0.205,0.425-0.316,0.568-0.316c0.14,0,0.208,0.175,0.208,0.536c0,0.36-0.087,1.124-0.242,2.297
					c-0.151,1.167-0.25,2.235-0.283,3.208c0.174-0.608,0.447-1.188,0.819-1.726c0.371-0.544,0.754-0.817,1.137-0.817
					c0.644,0,0.972,0.316,0.972,0.938c0,0.417-0.121,0.796-0.37,1.137c-0.253,0.341-0.58,0.611-1.007,0.819
					c-0.087,0.035-0.131,0.076-0.131,0.132c0,0.045,0.009,0.099,0.043,0.14c0.601,1.062,1.114,1.807,1.529,2.232
					C-57.901-17.173-57.77-17.117-57.639-17.117z"/>
				<path fill="#CB394D" d="M-56.394-17.545c-0.371,0-0.655-0.075-0.841-0.228c-0.066-0.068-0.098-0.307-0.098-0.71
					c0-0.417,0.032-1.095,0.098-2.055c0.065-0.963,0.12-1.476,0.163-1.554c0.044-0.075,0.195-0.217,0.448-0.425
					c0.252-0.209,0.437-0.315,0.58-0.315c0.143,0,0.208,0.184,0.208,0.546c0,0.097-0.022,0.283-0.077,0.557
					c-0.055,0.273-0.109,0.482-0.174,0.602c-0.121,0.316-0.186,1.136-0.186,2.47c0,0.264,0.031,0.384,0.086,0.384
					c0.165-0.014,0.383-0.208,0.666-0.613c0.286-0.395,0.57-0.909,0.855-1.519c0.283-0.626,0.447-0.93,0.515-0.93
					c0.063,0,0.097,0.031,0.097,0.108c0,0.264-0.144,0.691-0.417,1.267C-55.245-18.352-55.879-17.545-56.394-17.545z
					 M-56.807-24.613c0-0.175,0.087-0.318,0.272-0.45c0.185-0.12,0.338-0.184,0.48-0.184c0.262,0,0.381,0.152,0.381,0.446
					c0,0.295-0.075,0.546-0.228,0.769c-0.153,0.213-0.372,0.313-0.646,0.313C-56.72-23.708-56.807-24.012-56.807-24.613z"/>
				<path fill="#CB394D" d="M-50.764-17.545c-0.327,0-0.579-0.075-0.755-0.217c-0.076-0.077-0.107-0.275-0.107-0.601
					c0-0.33,0.009-0.743,0.043-1.269c-0.262,0.688-0.526,1.203-0.786,1.564c-0.265,0.35-0.603,0.523-1.006,0.523
					c-0.406,0-0.744-0.177-1.029-0.523c-0.285-0.352-0.425-0.918-0.425-1.685c0-0.773,0.219-1.452,0.655-2.042
					c0.438-0.591,1.006-0.885,1.707-0.885c0.338,0,0.699,0.131,1.069,0.404c0.153-1.858,0.293-2.908,0.415-3.147
					c0.054-0.107,0.197-0.261,0.405-0.459c0.208-0.195,0.393-0.294,0.536-0.294c0.142,0,0.218,0.227,0.218,0.667
					c0,0.523-0.043,0.971-0.143,1.354c-0.262,0.986-0.415,1.607-0.481,1.87c-0.13,1.028-0.196,2.239-0.196,3.627
					c0,0.264,0.032,0.384,0.087,0.384c0.176-0.014,0.405-0.208,0.689-0.602c0.283-0.397,0.568-0.898,0.853-1.518
					c0.285-0.625,0.447-0.943,0.515-0.943c0.064,0,0.086,0.031,0.086,0.108c0,0.264-0.141,0.689-0.416,1.267
					C-49.594-18.352-50.24-17.545-50.764-17.545z M-52.567-22.178c-0.262,0-0.514,0.209-0.777,0.613
					c-0.261,0.414-0.381,0.883-0.381,1.422c0,0.533,0.067,0.979,0.207,1.32c0.143,0.339,0.317,0.514,0.525,0.514
					c0.426,0,0.917-0.863,1.475-2.579c0.045-0.524,0.078-0.834,0.078-0.928C-51.727-22.056-52.097-22.178-52.567-22.178z"/>
				<path fill="#CB394D" d="M-47.082-21.992l0.033-0.218c0-0.176-0.098-0.262-0.294-0.262c-0.195,0-0.383,0.131-0.57,0.381
					c-0.184,0.254-0.272,0.458-0.272,0.624c0,0.164,0.013,0.295,0.034,0.382c0.02,0.098,0.043,0.175,0.065,0.241
					s0.066,0.13,0.121,0.219c0.055,0.087,0.097,0.154,0.13,0.186l0.154,0.196c0.064,0.099,0.11,0.152,0.143,0.186
					c0.49-0.414,1.08-0.863,1.771-1.379c0.032-0.031,0.075-0.042,0.129-0.042c0.099,0,0.143,0.057,0.143,0.153
					c0,0.111-0.044,0.184-0.132,0.241c-0.613,0.395-1.191,0.821-1.728,1.268c0.208,0.306,0.315,0.635,0.315,1.005
					c0,0.363-0.14,0.679-0.414,0.928c-0.273,0.263-0.634,0.383-1.061,0.383c-0.426,0-0.643-0.208-0.643-0.612
					c0-0.292,0.315-0.743,0.939-1.352c-0.043-0.056-0.133-0.155-0.264-0.287c-0.119-0.133-0.218-0.229-0.283-0.307
					c-0.067-0.077-0.131-0.174-0.217-0.292c-0.156-0.243-0.231-0.493-0.231-0.776c0-0.557,0.186-1.018,0.547-1.369
					c0.359-0.349,0.744-0.523,1.158-0.523c0.264,0,0.459,0.065,0.602,0.207c0.142,0.142,0.219,0.288,0.219,0.427
					c0,0.329-0.077,0.481-0.231,0.481C-47.026-21.881-47.082-21.917-47.082-21.992z M-47.999-19.183
					c-0.384,0.384-0.568,0.687-0.568,0.916c0,0.23,0.121,0.353,0.361,0.353c0.144,0,0.263-0.055,0.362-0.177
					C-47.649-18.363-47.694-18.736-47.999-19.183z"/>
			</g>
		</g>
		<g>
			<path fill="#0990D3" d="M-57.628-28.379l-0.288-0.762h-2.469l-0.289,0.779c-0.114,0.305-0.208,0.509-0.29,0.612
				c-0.082,0.111-0.212,0.162-0.394,0.162c-0.154,0-0.291-0.057-0.411-0.171c-0.118-0.111-0.178-0.24-0.178-0.384
				c0-0.083,0.015-0.17,0.041-0.256c0.027-0.088,0.073-0.209,0.137-0.369l1.552-3.939c0.044-0.113,0.097-0.25,0.159-0.409
				c0.063-0.155,0.129-0.288,0.199-0.395c0.068-0.105,0.162-0.188,0.277-0.255c0.116-0.064,0.255-0.097,0.425-0.097
				c0.171,0,0.314,0.032,0.428,0.097c0.115,0.066,0.208,0.149,0.278,0.251c0.071,0.103,0.129,0.212,0.178,0.329
				c0.047,0.118,0.109,0.274,0.183,0.47l1.586,3.92c0.124,0.295,0.187,0.512,0.187,0.647c0,0.142-0.058,0.27-0.175,0.387
				c-0.117,0.117-0.259,0.174-0.426,0.174c-0.097,0-0.179-0.018-0.248-0.05c-0.069-0.034-0.127-0.083-0.175-0.142
				c-0.046-0.058-0.096-0.151-0.152-0.273C-57.542-28.177-57.587-28.285-57.628-28.379z M-60.061-30.063h1.812l-0.914-2.504
				L-60.061-30.063z"/>
			<path fill="#0990D3" d="M-51.119-29.514c0,0.369-0.094,0.698-0.282,0.989c-0.19,0.292-0.467,0.521-0.832,0.688
				c-0.366,0.166-0.796,0.25-1.296,0.25c-0.599,0-1.092-0.113-1.482-0.341c-0.276-0.164-0.499-0.378-0.672-0.651
				c-0.172-0.27-0.259-0.536-0.259-0.792c0-0.152,0.053-0.279,0.154-0.382c0.104-0.109,0.235-0.161,0.396-0.161
				c0.129,0,0.238,0.041,0.33,0.124c0.09,0.082,0.166,0.206,0.229,0.368c0.079,0.193,0.161,0.358,0.252,0.487
				c0.089,0.13,0.216,0.237,0.38,0.32c0.162,0.083,0.375,0.127,0.641,0.127c0.365,0,0.661-0.087,0.889-0.254
				c0.226-0.172,0.34-0.382,0.34-0.636c0-0.202-0.061-0.368-0.184-0.491c-0.123-0.123-0.282-0.222-0.476-0.289
				c-0.193-0.065-0.455-0.135-0.78-0.212c-0.437-0.103-0.801-0.219-1.095-0.358c-0.294-0.134-0.527-0.321-0.7-0.559
				c-0.172-0.237-0.257-0.527-0.257-0.88c0-0.332,0.089-0.631,0.271-0.888c0.183-0.26,0.446-0.459,0.792-0.6
				c0.346-0.141,0.751-0.208,1.218-0.208c0.371,0,0.695,0.046,0.966,0.138c0.273,0.093,0.499,0.215,0.677,0.369
				c0.179,0.154,0.31,0.314,0.395,0.484c0.082,0.167,0.123,0.328,0.123,0.489c0,0.148-0.05,0.282-0.154,0.398
				c-0.104,0.118-0.234,0.174-0.389,0.174c-0.14,0-0.248-0.035-0.321-0.106c-0.071-0.068-0.152-0.183-0.237-0.345
				c-0.111-0.228-0.243-0.404-0.398-0.535c-0.156-0.128-0.403-0.193-0.746-0.193c-0.317,0-0.573,0.071-0.768,0.211
				c-0.195,0.141-0.293,0.307-0.293,0.502c0,0.122,0.035,0.225,0.101,0.314c0.066,0.091,0.157,0.168,0.273,0.229
				c0.117,0.059,0.233,0.114,0.352,0.148c0.12,0.038,0.315,0.09,0.589,0.157c0.34,0.08,0.65,0.17,0.928,0.266
				c0.277,0.094,0.513,0.214,0.708,0.35c0.195,0.139,0.347,0.315,0.456,0.524C-51.172-30.079-51.119-29.821-51.119-29.514z"/>
			<path fill="#0990D3" d="M-49.183-33.12v4.419h2.493c0.199,0,0.353,0.047,0.457,0.143c0.109,0.098,0.16,0.217,0.16,0.366
				c0,0.147-0.051,0.269-0.156,0.359c-0.105,0.095-0.259,0.141-0.461,0.141h-2.969c-0.266,0-0.46-0.059-0.575-0.178
				c-0.119-0.12-0.176-0.309-0.176-0.576v-4.674c0-0.248,0.054-0.435,0.167-0.559c0.113-0.124,0.259-0.186,0.442-0.186
				s0.333,0.062,0.447,0.184C-49.241-33.556-49.183-33.373-49.183-33.12z"/>
		</g>
	</g>
	<path fill="#EA5F72" d="M36.275,43.881c-2.107,0-4.156,2.528-4.156,2.528s-2.05-2.528-4.157-2.528
		c-2.107,0-4.119,1.055-4.119,4.158c0,2.202,2.069,4.137,2.069,4.137l6.207,6.187l6.206-6.187c0,0,2.068-1.935,2.068-4.137
		C40.393,44.936,38.383,43.881,36.275,43.881z"/>
	<circle fill="#0990D3" cx="285.167" cy="52.534" r="12.876"/>
	<g>
		<path fill="#DDE5CE" d="M289.146,44.697c-0.025,0-0.047-0.002-0.074-0.001c-0.021-0.001-0.05,0.001-0.072,0.001
			c-2.197,0-3.977,1.78-3.977,3.979c0,0,0,1.381,0,2.395H277.5v8.228h10.955V51.07h-1.443c0-1.011,0-2.395,0-2.395
			c0-1.098,0.892-1.988,1.987-1.988c0.031,0,0.097-0.002,0.097-0.002s0.034,0.002,0.05,0.002c1.097,0,1.988,0.891,1.988,1.987
			c0,0,0,0.42,0,0.961h0.665v0.254l-0.665,0.626c0,0.19,0,0.38,0,0.555h1.99c0-1.004,0-2.396,0-2.396
			C293.124,46.478,291.342,44.697,289.146,44.697z"/>
	</g>
</g>
</svg>
