<svg version="1.1" xmlns="http://www.w3.org/2000/svg" xmlns:xlink="http://www.w3.org/1999/xlink" x="0px" y="0px" viewBox="0 0 308 85" enable-background="new 0 0 308 85" xml:space="preserve">
<g id="Layer_1">
	<g id="Layer_8">
		<g>
			
				<linearGradient id="SVGID_1_" gradientUnits="userSpaceOnUse" x1="156.8557" y1="772.75" x2="213.9553" y2="829.8495" gradientTransform="matrix(-0.7029 0.6874 0.7029 0.6874 -278.5794 -637.7612)">
				<stop  offset="0" style="stop-color:#B962FC"/>
				<stop  offset="0.1736" style="stop-color:#AF5EF4"/>
				<stop  offset="0.4725" style="stop-color:#9455DF"/>
				<stop  offset="0.8" style="stop-color:#6846BC"/>
				<stop  offset="1" style="stop-color:#493BA4"/>
			</linearGradient>
			<path fill="url(#SVGID_1_)" d="M2.5,40.5c0,21.677,17.573,39.25,39.25,39.25h225.167c21.677,0,39.249-17.573,39.249-39.25
				S288.594,1.25,266.917,1.25H41.75C20.073,1.25,2.5,18.823,2.5,40.5C2.5,40.5,2.5,18.823,2.5,40.5z"/>
			<path fill="none" stroke="#FFFFFF" stroke-miterlimit="10" d="M2.5,40.5c0,21.677,17.573,39.25,39.25,39.25h225.167
				c21.677,0,39.249-17.573,39.249-39.25S288.594,1.25,266.917,1.25H41.75C20.073,1.25,2.5,18.823,2.5,40.5
				C2.5,40.5,2.5,18.823,2.5,40.5z"/>
		</g>
	</g>
	<g id="Layer_5">
	</g>
	<g id="Layer_4_1_">
	</g>
	<g id="Layer_6">
		<g>
			<g id="XMLID_1_">
				<g id="XMLID_2_">
					<g id="XMLID_7_">
						<path fill="#9B9A9A" d="M41.045,29.568l0.225,0.815l2.022-0.56l-0.226-0.815c-1.114-4.033-5.304-6.406-9.336-5.291
							c-4.033,1.115-6.405,5.303-5.291,9.336l1.85,6.685l2.021-0.559l-1.849-6.685c-0.808-2.917,0.91-5.949,3.828-6.755
							C37.207,24.933,40.238,26.65,41.045,29.568z"/>
					</g>
					<g id="XMLID_3_">
						<g>
							<path id="XMLID_5_" fill="#F6C063" d="M47.532,49.059c0,0.449-0.365,0.812-0.813,0.812H26.747
								c-0.449,0-0.813-0.363-0.813-0.812V36.082c0-0.449,0.364-0.814,0.813-0.814h19.972c0.449,0,0.813,0.365,0.813,0.814V49.059z"
								/>
						</g>
					</g>
				</g>
			</g>
			<path fill="#353535" d="M38.517,40.371c0-0.985-0.798-1.786-1.784-1.786c-0.985,0-1.785,0.8-1.785,1.786
				c0,0.587,0.285,1.107,0.724,1.433l-0.568,4.036h3.259l-0.567-4.036C38.233,41.479,38.517,40.958,38.517,40.371z"/>
		</g>
	</g>
	<g id="Layer_3_1_" display="none">
		
			<text transform="matrix(1 0 0 1 57.3503 46.4912)" display="inline" fill="#FFFFFF" font-family="'HelveticaNeue-Bold'" font-size="19">ADD </text>
		
			<text transform="matrix(1 0 0 1 103.8054 46.4912)" display="inline" fill="#F6C063" font-family="'HelveticaNeue-Bold'" font-size="19">150</text>
		
			<text transform="matrix(1 0 0 1 135.4973 46.4912)" display="inline" fill="#FFFFFF" font-family="'HelveticaNeue-Bold'" font-size="19">+ SIGNS</text>
	</g>
</g>
<g id="Layer_2">
	<text transform="matrix(1 0 0 1 59.5002 49)"><tspan x="0" y="0" fill="#FFFFFF" font-family="'HelveticaNeue-Bold'" font-size="22">Add </tspan><tspan x="48.95" y="0" fill="#F6C063" font-family="'HelveticaNeue-Bold'" font-size="22">170</tspan><tspan x="86.306" y="0" fill="#FFFFFF" font-family="'HelveticaNeue-Bold'" font-size="22">+ Signs</tspan></text>
</g>
</svg>
