<?xml version="1.0" encoding="utf-8"?>
<!-- Generator: Adobe Illustrator 16.0.0, SVG Export Plug-In . SVG Version: 6.00 Build 0)  -->
<!DOCTYPE svg PUBLIC "-//W3C//DTD SVG 1.1//EN" "http://www.w3.org/Graphics/SVG/1.1/DTD/svg11.dtd">
<svg version="1.1" xmlns="http://www.w3.org/2000/svg" xmlns:xlink="http://www.w3.org/1999/xlink" x="0px" y="0px" width="308px"
	 height="85px" viewBox="0 0 308 85" enable-background="new 0 0 308 85" xml:space="preserve">
<g id="Layer_8">
	<g>
		
			<radialGradient id="SVGID_1_" cx="154.0002" cy="41.375" r="111.72" gradientTransform="matrix(-0.7929 0.6094 -0.6094 -0.7929 301.3166 -19.6649)" gradientUnits="userSpaceOnUse">
			<stop  offset="0" style="stop-color:#B962FC"/>
			<stop  offset="1" style="stop-color:#3A4A92"/>
		</radialGradient>
		<path fill="url(#SVGID_1_)" d="M1.25,41.375c0,22.299,18.077,40.375,40.375,40.375h224.75c22.299,0,40.375-18.076,40.375-40.375
			C306.75,19.077,288.674,1,266.375,1H41.625C19.327,1,1.25,19.077,1.25,41.375C1.25,41.375,1.25,19.077,1.25,41.375z"/>
		<path fill="none" stroke="#FFFFFF" stroke-miterlimit="10" d="M1.25,41.375c0,22.299,18.077,40.375,40.375,40.375h224.75
			c22.299,0,40.375-18.076,40.375-40.375C306.75,19.077,288.674,1,266.375,1H41.625C19.327,1,1.25,19.077,1.25,41.375
			C1.25,41.375,1.25,19.077,1.25,41.375z"/>
	</g>
</g>
<g id="Layer_4_1_">
	<path fill="#E2E2E2" d="M77.9,60.274C77.4,60.477,77,60.577,76.5,60.577c-0.602,0-1.102-0.101-1.602-0.303S74,59.771,73.7,59.366
		C73.4,58.963,73.1,58.56,73,58.055c-0.2-0.504-0.3-1.008-0.3-1.513c0-0.604,0.1-1.11,0.198-1.614c0.2-0.505,0.4-1.009,0.7-1.413
		c0.3-0.403,0.7-0.706,1.2-0.908c0.5-0.201,1-0.302,1.6-0.302c0.4,0,0.802,0.101,1.2,0.201c0.4,0.101,0.7,0.303,1,0.505
		s0.602,0.504,0.8,0.807c0.2,0.303,0.302,0.706,0.4,1.211h-1.1c-0.102-0.303-0.102-0.605-0.302-0.808
		c-0.1-0.201-0.3-0.403-0.5-0.504C77.7,53.615,77.5,53.515,77.2,53.414c-0.301-0.102-0.5-0.102-0.801-0.102
		c-0.5,0-0.898,0.102-1.198,0.303C74.9,53.817,74.6,54.02,74.4,54.423c-0.199,0.303-0.399,0.706-0.5,1.11
		c-0.1,0.404-0.198,0.807-0.198,1.211c0,0.402,0.1,0.807,0.198,1.211C74,58.357,74.2,58.66,74.4,58.963
		c0.2,0.303,0.5,0.505,0.802,0.706c0.3,0.201,0.698,0.303,1.198,0.303c0.4,0,0.802-0.102,1.102-0.201c0.3-0.102,0.6-0.303,0.8-0.505
		s0.4-0.504,0.5-0.807c0.1-0.304,0.2-0.706,0.1-1.009h-2.5v-0.908h3.5v4.237h-0.7l-0.302-1.009C78.7,59.871,78.4,60.072,77.9,60.274
		z"/>
	<path fill="#E2E2E2" d="M87.3,52.405v0.907h-4.4v2.523H87v0.908H82.9v2.724h4.4v0.907h-5.5v-7.97H87.3z"/>
	<path fill="#E2E2E2" d="M88.3,53.312v-0.907h6.3v0.907H92v7.062H90.9v-7.062H88.3z"/>
	<path fill="#E2E2E2" d="M95.4,60.375"/>
	<path fill="#E2E2E2" d="M105,52.405v0.907H100.9v2.523h3.602v0.908H100.9v3.631h-1.1v-7.97H105z"/>
	<path fill="#E2E2E2" d="M111.9,59.771c-0.5,0.504-1.3,0.807-2.3,0.807s-1.8-0.202-2.398-0.706c-0.602-0.505-0.9-1.312-0.9-2.32
		v-5.146h1.1v5.146c0,0.706,0.2,1.211,0.602,1.613c0.397,0.404,0.897,0.606,1.598,0.606s1.2-0.202,1.5-0.505
		c0.4-0.403,0.5-0.908,0.5-1.614v-5.146h1.102v5.146C112.7,58.56,112.5,59.266,111.9,59.771z"/>
	<path fill="#E2E2E2" d="M113.9,53.312v-0.907h6.302v0.907H117.6v7.062h-1.1v-7.062H113.9z"/>
	<path fill="#E2E2E2" d="M126.9,59.771c-0.5,0.504-1.3,0.807-2.3,0.807s-1.8-0.202-2.398-0.706c-0.602-0.505-0.9-1.312-0.9-2.32
		v-5.146h1.1v5.146c0,0.706,0.2,1.211,0.602,1.613c0.397,0.404,0.897,0.606,1.598,0.606s1.2-0.202,1.5-0.505
		c0.4-0.403,0.5-0.908,0.5-1.614v-5.146h1.102v5.146C127.8,58.56,127.5,59.266,126.9,59.771z"/>
	<path fill="#E2E2E2" d="M133.5,52.405c0.8,0,1.3,0.201,1.8,0.605c0.4,0.403,0.6,0.908,0.6,1.513c0,0.505-0.1,0.908-0.3,1.312
		c-0.2,0.403-0.6,0.605-1,0.706l0,0c0.2,0,0.4,0.101,0.602,0.202c0.1,0.101,0.3,0.202,0.3,0.402c0.1,0.102,0.1,0.304,0.2,0.505
		c0,0.201,0.1,0.403,0.1,0.605s0,0.403,0,0.605s0,0.403,0.1,0.605c-0.001,0.201,0.1,0.403,0.1,0.504c0.1,0.201,0.1,0.303,0.2,0.505
		H135c-0.101-0.102-0.101-0.202-0.101-0.304c0-0.101,0-0.302,0-0.504c0-0.201,0-0.402,0-0.605c0-0.202,0-0.403-0.1-0.604
		c0-0.202-0.1-0.404-0.1-0.504c0-0.202-0.102-0.304-0.2-0.505c-0.102-0.103-0.2-0.202-0.4-0.304c-0.2-0.101-0.398-0.101-0.6-0.101
		H130.9v3.429h-1.1v-7.969h3.7V52.405L133.5,52.405z M133.7,56.038c0.198,0,0.398-0.101,0.6-0.202c0.2-0.101,0.3-0.303,0.4-0.404
		c0.1-0.201,0.1-0.401,0.1-0.705c0-0.404-0.1-0.706-0.3-1.009c-0.2-0.202-0.602-0.404-1.102-0.404h-2.6v2.826h2.2
		C133.2,56.138,133.5,56.038,133.7,56.038z"/>
	<path fill="#E2E2E2" d="M143.1,52.405v0.907H138.7v2.523h4.1v0.908h-4.1v2.724h4.398v0.907h-5.5v-7.97H143.1z"/>
	<path fill="#E2E2E2" d="M152,53.515c-0.4-0.302-0.8-0.403-1.3-0.403c-0.2,0-0.4,0-0.7,0.102c-0.2,0-0.4,0.101-0.602,0.201
		c-0.198,0.101-0.299,0.201-0.398,0.403c-0.102,0.202-0.102,0.403-0.102,0.605c0,0.201,0.102,0.403,0.2,0.607
		c0.102,0.2,0.3,0.302,0.602,0.401c0.198,0.103,0.5,0.201,0.8,0.201c0.3,0.104,0.6,0.104,0.898,0.203
		c0.302,0.102,0.602,0.202,0.9,0.302c0.3,0.103,0.6,0.202,0.8,0.404s0.4,0.404,0.602,0.604c0.1,0.304,0.198,0.607,0.198,1.009
		c0,0.404-0.1,0.808-0.3,1.111c-0.2,0.303-0.398,0.505-0.7,0.705c-0.3,0.201-0.6,0.304-1,0.403
		c-0.398,0.102-0.698,0.102-1.099,0.102s-0.9-0.103-1.3-0.202c-0.4-0.102-0.7-0.303-1-0.504c-0.3-0.202-0.5-0.505-0.7-0.908
		s-0.3-0.808-0.3-1.211h1c0,0.304,0.1,0.606,0.2,0.908c0.1,0.202,0.3,0.403,0.5,0.604c0.198,0.202,0.5,0.304,0.698,0.304
		c0.302,0.101,0.602,0.101,0.901,0.101c0.2,0,0.5,0,0.7-0.101c0.2,0,0.5-0.103,0.6-0.202c0.102-0.102,0.3-0.303,0.5-0.403
		c0.102-0.202,0.2-0.403,0.2-0.707c0-0.302-0.1-0.504-0.2-0.705c-0.1-0.201-0.3-0.304-0.6-0.403c-0.2-0.101-0.5-0.201-0.8-0.302
		c-0.301-0.103-0.601-0.103-0.9-0.203s-0.6-0.101-0.9-0.202c-0.3-0.101-0.6-0.202-0.8-0.402c-0.2-0.201-0.398-0.305-0.6-0.607
		c-0.102-0.201-0.2-0.504-0.2-0.907c0-0.402,0.1-0.705,0.2-1.009c0.2-0.303,0.398-0.504,0.6-0.705c0.3-0.202,0.602-0.304,0.9-0.404
		c0.3-0.1,0.7-0.1,1.1-0.1c0.4,0,0.8,0,1.102,0.1c0.299,0.101,0.698,0.201,0.898,0.504c0.3,0.202,0.5,0.504,0.602,0.807
		c0.198,0.304,0.198,0.706,0.198,1.11h-1C152.5,54.221,152.3,53.717,152,53.515z"/>
	<path fill="#E2E2E2" d="M156.6,52.405v7.97h-1.1v-7.97H156.6L156.6,52.405z"/>
	<path fill="#E2E2E2" d="M163.4,60.274c-0.5,0.202-0.899,0.303-1.399,0.303c-0.602,0-1.102-0.101-1.602-0.303
		s-0.898-0.504-1.198-0.908c-0.302-0.403-0.602-0.807-0.7-1.312c-0.2-0.504-0.3-1.008-0.3-1.513c0-0.604,0.1-1.11,0.198-1.614
		c0.2-0.505,0.4-1.009,0.7-1.413c0.3-0.403,0.7-0.706,1.2-0.908c0.5-0.201,1-0.302,1.6-0.302c0.4,0,0.802,0.101,1.2,0.201
		c0.4,0.101,0.7,0.303,1,0.505s0.602,0.504,0.8,0.807c0.2,0.303,0.302,0.706,0.4,1.211h-1.1c-0.102-0.303-0.102-0.605-0.302-0.808
		c-0.1-0.201-0.3-0.403-0.5-0.504c-0.197-0.102-0.397-0.202-0.697-0.303c-0.301-0.102-0.5-0.102-0.801-0.102
		c-0.5,0-0.898,0.102-1.198,0.303c-0.302,0.202-0.602,0.404-0.802,0.808c-0.198,0.304-0.398,0.706-0.5,1.111
		c-0.1,0.403-0.198,0.807-0.198,1.211c0,0.401,0.1,0.807,0.198,1.21c0.102,0.402,0.302,0.705,0.5,1.008
		c0.2,0.304,0.5,0.505,0.802,0.706c0.299,0.202,0.698,0.303,1.198,0.303c0.4,0,0.802-0.102,1.102-0.201
		c0.3-0.102,0.6-0.303,0.8-0.505s0.4-0.504,0.5-0.807c0.1-0.304,0.2-0.706,0.1-1.009h-2.5v-0.908h3.5v4.237h-0.7l-0.302-1.009
		C164.2,59.871,163.9,60.072,163.4,60.274z"/>
	<path fill="#E2E2E2" d="M168.5,52.405l4.2,6.456l0,0v-6.456h1v7.97h-1.2l-4.101-6.456l0,0v6.456h-1v-7.97H168.5z"/>
	<path fill="#E2E2E2" d="M179.7,53.515c-0.4-0.302-0.802-0.403-1.302-0.403c-0.198,0-0.398,0-0.698,0.102
		c-0.2,0-0.4,0.101-0.602,0.201c-0.2,0.102-0.3,0.201-0.398,0.403c-0.102,0.202-0.102,0.403-0.102,0.605
		c0,0.201,0.102,0.403,0.2,0.607c0.099,0.202,0.3,0.302,0.6,0.401c0.2,0.103,0.5,0.201,0.802,0.201c0.3,0.104,0.6,0.104,0.898,0.203
		c0.3,0.102,0.602,0.202,0.9,0.302c0.3,0.103,0.6,0.202,0.8,0.404s0.4,0.404,0.6,0.604c0.102,0.304,0.2,0.607,0.2,1.009
		c0,0.404-0.1,0.808-0.3,1.111c-0.2,0.303-0.4,0.505-0.7,0.705c-0.3,0.201-0.6,0.304-1,0.403c-0.398,0.102-0.7,0.102-1.1,0.102
		c-0.4,0-0.9-0.102-1.3-0.201c-0.4-0.103-0.7-0.304-1-0.504c-0.302-0.202-0.5-0.505-0.7-0.908c-0.2-0.402-0.3-0.808-0.3-1.21h1
		c0,0.303,0.1,0.605,0.198,0.907c0.102,0.202,0.302,0.402,0.5,0.605c0.2,0.201,0.5,0.304,0.7,0.304c0.3,0.101,0.602,0.101,0.9,0.101
		c0.199,0,0.5,0,0.699-0.101c0.199,0,0.5-0.103,0.601-0.202c0.2-0.102,0.3-0.303,0.5-0.404c0.1-0.201,0.2-0.402,0.2-0.706
		c0-0.302-0.102-0.504-0.2-0.705c-0.101-0.201-0.3-0.304-0.601-0.403c-0.199-0.102-0.5-0.201-0.801-0.302
		c-0.297-0.104-0.597-0.104-0.896-0.205s-0.602-0.101-0.9-0.202c-0.3-0.101-0.6-0.202-0.8-0.402c-0.2-0.201-0.4-0.305-0.6-0.607
		c-0.102-0.201-0.2-0.504-0.2-0.907c0-0.402,0.1-0.705,0.2-1.009c0.198-0.303,0.398-0.504,0.698-0.705
		c0.302-0.202,0.602-0.304,0.9-0.404c0.3-0.1,0.7-0.1,1.1-0.1c0.4,0,0.802,0,1.102,0.1c0.3,0.103,0.7,0.202,0.898,0.505
		c0.302,0.202,0.5,0.504,0.602,0.808c0.2,0.304,0.2,0.705,0.2,1.111h-1C180.2,54.221,180,53.717,179.7,53.515z"/>
	<path fill="#E2E2E2" d="M191.7,52.405v0.907H187.6v2.523h3.602v0.908H187.6v3.631h-1.1v-7.97H191.7z"/>
	<path fill="#E2E2E2" d="M192.8,54.826c0.2-0.505,0.4-0.907,0.7-1.312c0.3-0.403,0.7-0.706,1.2-0.908c0.5-0.201,1-0.302,1.698-0.302
		c0.7,0,1.2,0.101,1.7,0.302c0.5,0.202,0.9,0.505,1.2,0.908c0.3,0.404,0.6,0.807,0.7,1.312c0.2,0.504,0.2,1.01,0.2,1.615
		s-0.102,1.11-0.2,1.614c-0.2,0.505-0.4,0.907-0.7,1.312s-0.7,0.706-1.2,0.908c-0.5,0.201-1,0.303-1.7,0.303
		c-0.698,0-1.198-0.102-1.698-0.303c-0.5-0.202-0.9-0.504-1.2-0.908c-0.3-0.402-0.602-0.807-0.7-1.312
		c-0.2-0.504-0.2-1.009-0.2-1.614C192.5,55.836,192.6,55.33,192.8,54.826z M193.8,57.551c0.1,0.404,0.3,0.706,0.5,1.009
		s0.5,0.604,0.9,0.807c0.3,0.202,0.8,0.303,1.198,0.303c0.5,0,0.9-0.101,1.2-0.303s0.602-0.403,0.9-0.706
		c0.2-0.303,0.398-0.705,0.5-1.009c0.1-0.402,0.2-0.807,0.2-1.21c0-0.402-0.102-0.809-0.2-1.211c-0.102-0.403-0.3-0.706-0.5-1.009
		S198,53.615,197.6,53.515c-0.3-0.202-0.8-0.302-1.2-0.302c-0.5,0-0.898,0.1-1.198,0.302c-0.302,0.202-0.602,0.404-0.9,0.706
		c-0.2,0.303-0.4,0.707-0.5,1.009c-0.1,0.403-0.2,0.809-0.2,1.212C193.6,56.845,193.6,57.248,193.8,57.551z"/>
	<path fill="#E2E2E2" d="M205.5,52.405c0.8,0,1.3,0.201,1.8,0.605c0.4,0.403,0.6,0.908,0.6,1.513c0,0.505-0.1,0.908-0.3,1.312
		c-0.2,0.403-0.6,0.605-1,0.706l0,0c0.2,0,0.4,0.101,0.602,0.202c0.1,0.101,0.3,0.202,0.3,0.402c0.1,0.102,0.1,0.304,0.2,0.505
		c0,0.201,0.1,0.403,0.1,0.605s0,0.403,0,0.605s0,0.403,0.1,0.605c-0.001,0.201,0.1,0.403,0.1,0.504c0.1,0.201,0.1,0.303,0.2,0.505
		H207c-0.101-0.102-0.101-0.202-0.101-0.304c0-0.101,0-0.302,0-0.504c0-0.201,0-0.402,0-0.605c0-0.202,0-0.403-0.1-0.604
		c0-0.202-0.1-0.404-0.1-0.504c0-0.202-0.102-0.304-0.2-0.505c-0.102-0.103-0.2-0.202-0.4-0.304c-0.2-0.101-0.398-0.101-0.6-0.101
		H202.9v3.429h-1.1v-7.969h3.7V52.405L205.5,52.405z M205.7,56.038c0.198,0,0.398-0.101,0.6-0.202c0.2-0.101,0.3-0.303,0.4-0.404
		c0.1-0.201,0.198-0.401,0.198-0.705c0-0.404-0.1-0.706-0.3-1.009c-0.2-0.202-0.6-0.404-1.1-0.404h-2.6v2.826h2.2
		C205.2,56.138,205.5,56.038,205.7,56.038z"/>
	<path fill="#E2E2E2" d="M218.1,52.405v0.907H214v2.523h3.6v0.908H214v3.631H212.9v-7.97H218.1z"/>
	<path fill="#E2E2E2" d="M223.2,52.405c0.8,0,1.3,0.201,1.8,0.605c0.398,0.403,0.6,0.908,0.6,1.513c0,0.505-0.1,0.908-0.3,1.312
		c-0.2,0.403-0.6,0.605-1,0.706l0,0c0.2,0,0.4,0.101,0.6,0.202c0.101,0.101,0.301,0.202,0.301,0.402
		c0.1,0.103,0.1,0.304,0.198,0.505c0,0.202,0.102,0.403,0.102,0.606s0,0.402,0,0.605c0,0.202,0,0.403,0.1,0.606
		c0,0.201,0.102,0.401,0.102,0.504c0.1,0.201,0.1,0.303,0.3,0.505h-1.2c-0.1-0.103-0.1-0.202-0.1-0.304s0-0.304,0-0.504
		c0-0.201,0-0.403,0-0.606c0-0.202,0-0.402-0.102-0.605c0-0.201-0.1-0.403-0.1-0.504c0-0.201-0.102-0.304-0.2-0.505
		c-0.1-0.102-0.2-0.201-0.4-0.304c-0.198-0.1-0.398-0.1-0.6-0.1h-2.6v3.43H219.6v-7.971h3.7v-0.101H223.2z M223.4,56.038
		c0.2,0,0.4-0.101,0.602-0.202c0.2-0.101,0.3-0.303,0.398-0.404c0.102-0.201,0.2-0.401,0.2-0.705c0-0.404-0.1-0.706-0.3-1.009
		c-0.2-0.202-0.6-0.404-1.1-0.404H220.6v2.826h2.2C222.9,56.138,223.2,56.038,223.4,56.038z"/>
	<path fill="#E2E2E2" d="M232.8,52.405v0.907h-4.4v2.523h4.102v0.908H228.4v2.724h4.4v0.907h-5.5v-7.97H232.8z"/>
	<path fill="#E2E2E2" d="M239.8,52.405v0.907h-4.4v2.523h4.102v0.908H235.4v2.724h4.4v0.907h-5.5v-7.97H239.8z"/>
	<path fill="#E2E2E2" d="M68.2,55.33v1.918H64.9v3.531h-1.8v-3.531h-3.3V55.33h3.3V51.8h1.8v3.53H68.2z"/>
</g>
<g id="Layer_3_1_">
	<text transform="matrix(1 0 0 1 33.3508 44.4912)"><tspan x="0" y="0" fill="#FFFFFF" font-family="'HelveticaNeue-Bold'" font-size="18">ADD </tspan><tspan x="44.01" y="0" fill="#EA5F72" font-family="'HelveticaNeue-Bold'" font-size="18">100</tspan><tspan x="74.034" y="0" fill="#FFFFFF" font-family="'HelveticaNeue-Bold'" font-size="18">+ SIGNS NOW</tspan></text>
</g>
</svg>
