<svg version="1.1" xmlns="http://www.w3.org/2000/svg" x="0" y="0" width="308" height="85" viewBox="0 0 308 85" enable-background="new 0 0 308 85" xml:space="preserve"><g id="Layer_1"><g id="Layer_1_2_"><path opacity="0.9" fill="#65BCAB" enable-background="new    " d="M308 85c0 2.2-2.3 4-5 4H5C2.3 89 0 87.2 0 85V4C0 1.8 2.3 0 5 0H303c2.8 0 5.1 1.8 5.1 4V85z"/><linearGradient id="SVGID_1_" gradientUnits="userSpaceOnUse" x1="228.3" y1="518.3" x2="228.3" y2="584.8" gradientTransform="matrix(1 0 0 1 -74 -509)"><stop offset="0" stop-color="#50C5FF"/><stop offset="0" stop-color="#44BCFF"/><stop offset="0.2" stop-color="#2BABFF"/><stop offset="0.3" stop-color="#189DFF"/><stop offset="0.5" stop-color="#0A93FF"/><stop offset="0.6" stop-color="#028EFF"/><stop offset="1" stop-color="#008CFF"/></linearGradient><path fill="url(#SVGID_1_)" d="M302 67.7c0 4.4-2.5 8-5.6 8H12.1C9 75.8 6.5 72.2 6.5 67.7V17.3c0-4.4 2.5-8 5.6-8h284.3c3.1 0 5.6 3.6 5.6 8v50.5H302z"/><path fill="none" stroke="#0990D3" stroke-width="1.2" stroke-miterlimit="10" d="M302 67.7c0 4.4-2.5 8-5.6 8H12.1C9 75.8 6.5 72.2 6.5 67.7V17.3c0-4.4 2.5-8 5.6-8h284.3c3.1 0 5.6 3.6 5.6 8v50.5H302z"/><path fill="#DDE5CE" d="M102.9 64.7c-0.5 0.2-0.9 0.3-1.4 0.3 -0.6 0-1.1-0.1-1.6-0.3 -0.5-0.2-0.9-0.5-1.2-0.9 -0.3-0.4-0.6-0.8-0.7-1.3 -0.2-0.5-0.3-1-0.3-1.5 0-0.6 0.1-1.1 0.2-1.6 0.2-0.5 0.4-1 0.7-1.4 0.3-0.4 0.7-0.7 1.2-0.9 0.5-0.2 1-0.3 1.6-0.3 0.4 0 0.8 0.1 1.2 0.2 0.4 0.1 0.7 0.3 1 0.5 0.3 0.2 0.6 0.5 0.8 0.8 0.2 0.3 0.3 0.7 0.4 1.2h-1.1c-0.1-0.3-0.1-0.6-0.3-0.8 -0.1-0.2-0.3-0.4-0.5-0.5 -0.2-0.1-0.4-0.2-0.7-0.3 -0.3-0.1-0.5-0.1-0.8-0.1 -0.5 0-0.9 0.1-1.2 0.3 -0.3 0.2-0.6 0.4-0.8 0.8 -0.2 0.3-0.4 0.7-0.5 1.1 -0.1 0.4-0.2 0.8-0.2 1.2 0 0.4 0.1 0.8 0.2 1.2 0.1 0.4 0.3 0.7 0.5 1 0.2 0.3 0.5 0.5 0.8 0.7 0.3 0.2 0.7 0.3 1.2 0.3 0.4 0 0.8-0.1 1.1-0.2 0.3-0.1 0.6-0.3 0.8-0.5 0.2-0.2 0.4-0.5 0.5-0.8 0.1-0.3 0.2-0.7 0.1-1h-2.5v-0.9h3.5v4.2h-0.7l-0.3-1C103.7 64.3 103.4 64.5 102.9 64.7z"/><path fill="#DDE5CE" d="M112.3 56.9v0.9h-4.4v2.5h4.1v0.9h-4.1v2.7h4.4v0.9h-5.5v-7.9H112.3z"/><path fill="#DDE5CE" d="M113.3 57.8v-0.9h6.3v0.9h-2.6v7h-1.1v-7H113.3z"/><path fill="#DDE5CE" d="M120.4 64.8"/><path fill="#DDE5CE" d="M130 56.9v0.9h-4.1v2.5h3.6v0.9h-3.6v3.6h-1.1v-7.9H130z"/><path fill="#DDE5CE" d="M136.9 64.2C136.4 64.7 135.6 65 134.6 65c-1 0-1.8-0.2-2.4-0.7s-0.9-1.3-0.9-2.3v-5.1h1.1v5.1c0 0.7 0.2 1.2 0.6 1.6 0.4 0.4 0.9 0.6 1.6 0.6 0.7 0 1.2-0.2 1.5-0.5 0.4-0.4 0.5-0.9 0.5-1.6v-5.1h1.1v5.1C137.7 63 137.5 63.7 136.9 64.2z"/><path fill="#DDE5CE" d="M138.9 57.8v-0.9h6.3v0.9h-2.6v7h-1.1v-7H138.9z"/><path fill="#DDE5CE" d="M151.9 64.2c-0.5 0.5-1.3 0.8-2.3 0.8 -1 0-1.8-0.2-2.4-0.7 -0.6-0.5-0.9-1.3-0.9-2.3v-5.1h1.1v5.1c0 0.7 0.2 1.2 0.6 1.6 0.4 0.4 0.9 0.6 1.6 0.6 0.7 0 1.2-0.2 1.5-0.5 0.4-0.4 0.5-0.9 0.5-1.6v-5.1h1.1v5.1C152.8 63 152.5 63.7 151.9 64.2z"/><path fill="#DDE5CE" d="M158.5 56.9c0.8 0 1.3 0.2 1.8 0.6 0.4 0.4 0.6 0.9 0.6 1.5 0 0.5-0.1 0.9-0.3 1.3 -0.2 0.4-0.6 0.6-1 0.7v0c0.2 0 0.4 0.1 0.6 0.2 0.1 0.1 0.3 0.2 0.3 0.4 0.1 0.1 0.1 0.3 0.2 0.5 0 0.2 0.1 0.4 0.1 0.6 0 0.2 0 0.4 0 0.6 0 0.2 0 0.4 0.1 0.6 0 0.2 0.1 0.4 0.1 0.5 0.1 0.2 0.1 0.3 0.2 0.5h-1.2c-0.1-0.1-0.1-0.2-0.1-0.3 0-0.1 0-0.3 0-0.5 0-0.2 0-0.4 0-0.6 0-0.2 0-0.4-0.1-0.6 0-0.2-0.1-0.4-0.1-0.5 0-0.2-0.1-0.3-0.2-0.5 -0.1-0.1-0.2-0.2-0.4-0.3 -0.2-0.1-0.4-0.1-0.6-0.1h-2.6v3.4h-1.1v-7.9h3.7V56.9zM158.7 60.5c0.2 0 0.4-0.1 0.6-0.2 0.2-0.1 0.3-0.3 0.4-0.4 0.1-0.2 0.1-0.4 0.1-0.7 0-0.4-0.1-0.7-0.3-1 -0.2-0.2-0.6-0.4-1.1-0.4h-2.6v2.8h2.2C158.2 60.6 158.5 60.5 158.7 60.5z"/><path fill="#DDE5CE" d="M168.1 56.9v0.9h-4.4v2.5h4.1v0.9h-4.1v2.7h4.4v0.9h-5.5v-7.9H168.1z"/><path fill="#DDE5CE" d="M177 58c-0.4-0.3-0.8-0.4-1.3-0.4 -0.2 0-0.4 0-0.7 0.1 -0.2 0-0.4 0.1-0.6 0.2 -0.2 0.1-0.3 0.2-0.4 0.4 -0.1 0.2-0.1 0.4-0.1 0.6 0 0.2 0.1 0.4 0.2 0.6 0.1 0.2 0.3 0.3 0.6 0.4 0.2 0.1 0.5 0.2 0.8 0.2 0.3 0.1 0.6 0.1 0.9 0.2 0.3 0.1 0.6 0.2 0.9 0.3 0.3 0.1 0.6 0.2 0.8 0.4 0.2 0.2 0.4 0.4 0.6 0.6 0.1 0.3 0.2 0.6 0.2 1 0 0.4-0.1 0.8-0.3 1.1 -0.2 0.3-0.4 0.5-0.7 0.7 -0.3 0.2-0.6 0.3-1 0.4 -0.4 0.1-0.7 0.1-1.1 0.1 -0.4 0-0.9-0.1-1.3-0.2 -0.4-0.1-0.7-0.3-1-0.5 -0.3-0.2-0.5-0.5-0.7-0.9 -0.2-0.4-0.3-0.8-0.3-1.2h1c0 0.3 0.1 0.6 0.2 0.9 0.1 0.2 0.3 0.4 0.5 0.6 0.2 0.2 0.5 0.3 0.7 0.3 0.3 0.1 0.6 0.1 0.9 0.1 0.2 0 0.5 0 0.7-0.1 0.2 0 0.5-0.1 0.6-0.2s0.3-0.3 0.5-0.4c0.1-0.2 0.2-0.4 0.2-0.7 0-0.3-0.1-0.5-0.2-0.7 -0.1-0.2-0.3-0.3-0.6-0.4 -0.2-0.1-0.5-0.2-0.8-0.3 -0.3-0.1-0.6-0.1-0.9-0.2 -0.3-0.1-0.6-0.1-0.9-0.2 -0.3-0.1-0.6-0.2-0.8-0.4 -0.2-0.2-0.4-0.3-0.6-0.6 -0.1-0.2-0.2-0.5-0.2-0.9 0-0.4 0.1-0.7 0.2-1 0.2-0.3 0.4-0.5 0.6-0.7 0.3-0.2 0.6-0.3 0.9-0.4 0.3-0.1 0.7-0.1 1.1-0.1 0.4 0 0.8 0 1.1 0.1 0.3 0.1 0.7 0.2 0.9 0.5 0.3 0.2 0.5 0.5 0.6 0.8 0.2 0.3 0.2 0.7 0.2 1.1h-1C177.5 58.7 177.3 58.2 177 58z"/><path fill="#DDE5CE" d="M181.6 56.9v7.9h-1.1v-7.9H181.6L181.6 56.9z"/><path fill="#DDE5CE" d="M188.4 64.7c-0.5 0.2-0.9 0.3-1.4 0.3 -0.6 0-1.1-0.1-1.6-0.3 -0.5-0.2-0.9-0.5-1.2-0.9 -0.3-0.4-0.6-0.8-0.7-1.3 -0.2-0.5-0.3-1-0.3-1.5 0-0.6 0.1-1.1 0.2-1.6 0.2-0.5 0.4-1 0.7-1.4 0.3-0.4 0.7-0.7 1.2-0.9 0.5-0.2 1-0.3 1.6-0.3 0.4 0 0.8 0.1 1.2 0.2 0.4 0.1 0.7 0.3 1 0.5s0.6 0.5 0.8 0.8c0.2 0.3 0.3 0.7 0.4 1.2h-1.1c-0.1-0.3-0.1-0.6-0.3-0.8 -0.1-0.2-0.3-0.4-0.5-0.5 -0.2-0.1-0.4-0.2-0.7-0.3 -0.3-0.1-0.5-0.1-0.8-0.1 -0.5 0-0.9 0.1-1.2 0.3 -0.3 0.2-0.6 0.4-0.8 0.8 -0.2 0.3-0.4 0.7-0.5 1.1 -0.1 0.4-0.2 0.8-0.2 1.2 0 0.4 0.1 0.8 0.2 1.2 0.1 0.4 0.3 0.7 0.5 1 0.2 0.3 0.5 0.5 0.8 0.7 0.3 0.2 0.7 0.3 1.2 0.3 0.4 0 0.8-0.1 1.1-0.2 0.3-0.1 0.6-0.3 0.8-0.5 0.2-0.2 0.4-0.5 0.5-0.8 0.1-0.3 0.2-0.7 0.1-1h-2.5v-0.9h3.5v4.2h-0.7l-0.3-1C189.2 64.3 188.9 64.5 188.4 64.7z"/><path fill="#DDE5CE" d="M193.5 56.9l4.2 6.4h0v-6.4h1v7.9h-1.2l-4.1-6.4h0v6.4h-1v-7.9H193.5z"/><path fill="#DDE5CE" d="M204.7 58c-0.4-0.3-0.8-0.4-1.3-0.4 -0.2 0-0.4 0-0.7 0.1 -0.2 0-0.4 0.1-0.6 0.2 -0.2 0.1-0.3 0.2-0.4 0.4 -0.1 0.2-0.1 0.4-0.1 0.6 0 0.2 0.1 0.4 0.2 0.6 0.1 0.2 0.3 0.3 0.6 0.4 0.2 0.1 0.5 0.2 0.8 0.2 0.3 0.1 0.6 0.1 0.9 0.2 0.3 0.1 0.6 0.2 0.9 0.3 0.3 0.1 0.6 0.2 0.8 0.4 0.2 0.2 0.4 0.4 0.6 0.6 0.1 0.3 0.2 0.6 0.2 1 0 0.4-0.1 0.8-0.3 1.1 -0.2 0.3-0.4 0.5-0.7 0.7 -0.3 0.2-0.6 0.3-1 0.4 -0.4 0.1-0.7 0.1-1.1 0.1 -0.4 0-0.9-0.1-1.3-0.2 -0.4-0.1-0.7-0.3-1-0.5 -0.3-0.2-0.5-0.5-0.7-0.9 -0.2-0.4-0.3-0.8-0.3-1.2h1c0 0.3 0.1 0.6 0.2 0.9 0.1 0.2 0.3 0.4 0.5 0.6 0.2 0.2 0.5 0.3 0.7 0.3 0.3 0.1 0.6 0.1 0.9 0.1 0.2 0 0.5 0 0.7-0.1 0.2 0 0.5-0.1 0.6-0.2 0.2-0.1 0.3-0.3 0.5-0.4 0.1-0.2 0.2-0.4 0.2-0.7 0-0.3-0.1-0.5-0.2-0.7 -0.1-0.2-0.3-0.3-0.6-0.4 -0.2-0.1-0.5-0.2-0.8-0.3 -0.3-0.1-0.6-0.1-0.9-0.2 -0.3-0.1-0.6-0.1-0.9-0.2 -0.3-0.1-0.6-0.2-0.8-0.4 -0.2-0.2-0.4-0.3-0.6-0.6 -0.1-0.2-0.2-0.5-0.2-0.9 0-0.4 0.1-0.7 0.2-1 0.2-0.3 0.4-0.5 0.7-0.7 0.3-0.2 0.6-0.3 0.9-0.4 0.3-0.1 0.7-0.1 1.1-0.1 0.4 0 0.8 0 1.1 0.1 0.3 0.1 0.7 0.2 0.9 0.5 0.3 0.2 0.5 0.5 0.6 0.8 0.2 0.3 0.2 0.7 0.2 1.1h-1C205.2 58.7 205 58.2 204.7 58z"/><path fill="#DDE5CE" d="M216.7 56.9v0.9h-4.1v2.5h3.6v0.9h-3.6v3.6h-1.1v-7.9H216.7z"/><path fill="#DDE5CE" d="M217.8 59.3c0.2-0.5 0.4-0.9 0.7-1.3 0.3-0.4 0.7-0.7 1.2-0.9 0.5-0.2 1-0.3 1.7-0.3s1.2 0.1 1.7 0.3c0.5 0.2 0.9 0.5 1.2 0.9 0.3 0.4 0.6 0.8 0.7 1.3 0.2 0.5 0.2 1 0.2 1.6s-0.1 1.1-0.2 1.6c-0.2 0.5-0.4 0.9-0.7 1.3 -0.3 0.4-0.7 0.7-1.2 0.9 -0.5 0.2-1 0.3-1.7 0.3s-1.2-0.1-1.7-0.3c-0.5-0.2-0.9-0.5-1.2-0.9 -0.3-0.4-0.6-0.8-0.7-1.3 -0.2-0.5-0.2-1-0.2-1.6C217.5 60.3 217.6 59.8 217.8 59.3zM218.8 62c0.1 0.4 0.3 0.7 0.5 1 0.2 0.3 0.5 0.6 0.9 0.8 0.3 0.2 0.8 0.3 1.2 0.3 0.5 0 0.9-0.1 1.2-0.3 0.3-0.2 0.6-0.4 0.9-0.7 0.2-0.3 0.4-0.7 0.5-1 0.1-0.4 0.2-0.8 0.2-1.2 0-0.4-0.1-0.8-0.2-1.2 -0.1-0.4-0.3-0.7-0.5-1 -0.2-0.3-0.5-0.6-0.9-0.7 -0.3-0.2-0.8-0.3-1.2-0.3 -0.5 0-0.9 0.1-1.2 0.3 -0.3 0.2-0.6 0.4-0.9 0.7 -0.2 0.3-0.4 0.7-0.5 1 -0.1 0.4-0.2 0.8-0.2 1.2C218.6 61.3 218.6 61.7 218.8 62z"/><path fill="#DDE5CE" d="M230.5 56.9c0.8 0 1.3 0.2 1.8 0.6 0.4 0.4 0.6 0.9 0.6 1.5 0 0.5-0.1 0.9-0.3 1.3 -0.2 0.4-0.6 0.6-1 0.7v0c0.2 0 0.4 0.1 0.6 0.2 0.1 0.1 0.3 0.2 0.3 0.4 0.1 0.1 0.1 0.3 0.2 0.5 0 0.2 0.1 0.4 0.1 0.6 0 0.2 0 0.4 0 0.6 0 0.2 0 0.4 0.1 0.6 0 0.2 0.1 0.4 0.1 0.5 0.1 0.2 0.1 0.3 0.2 0.5h-1.2c-0.1-0.1-0.1-0.2-0.1-0.3 0-0.1 0-0.3 0-0.5 0-0.2 0-0.4 0-0.6 0-0.2 0-0.4-0.1-0.6 0-0.2-0.1-0.4-0.1-0.5 0-0.2-0.1-0.3-0.2-0.5 -0.1-0.1-0.2-0.2-0.4-0.3 -0.2-0.1-0.4-0.1-0.6-0.1h-2.6v3.4h-1.1v-7.9h3.7V56.9zM230.7 60.5c0.2 0 0.4-0.1 0.6-0.2 0.2-0.1 0.3-0.3 0.4-0.4 0.1-0.2 0.2-0.4 0.2-0.7 0-0.4-0.1-0.7-0.3-1 -0.2-0.2-0.6-0.4-1.1-0.4h-2.6v2.8h2.2C230.2 60.6 230.5 60.5 230.7 60.5z"/><path fill="#DDE5CE" d="M243.1 56.9v0.9h-4.1v2.5h3.6v0.9h-3.6v3.6h-1.1v-7.9H243.1z"/><path fill="#DDE5CE" d="M248.2 56.9c0.8 0 1.3 0.2 1.8 0.6 0.4 0.4 0.6 0.9 0.6 1.5 0 0.5-0.1 0.9-0.3 1.3 -0.2 0.4-0.6 0.6-1 0.7v0c0.2 0 0.4 0.1 0.6 0.2 0.1 0.1 0.3 0.2 0.3 0.4 0.1 0.1 0.1 0.3 0.2 0.5 0 0.2 0.1 0.4 0.1 0.6 0 0.2 0 0.4 0 0.6 0 0.2 0 0.4 0.1 0.6 0 0.2 0.1 0.4 0.1 0.5 0.1 0.2 0.1 0.3 0.3 0.5h-1.2c-0.1-0.1-0.1-0.2-0.1-0.3 0-0.1 0-0.3 0-0.5 0-0.2 0-0.4 0-0.6 0-0.2 0-0.4-0.1-0.6 0-0.2-0.1-0.4-0.1-0.5 0-0.2-0.1-0.3-0.2-0.5 -0.1-0.1-0.2-0.2-0.4-0.3 -0.2-0.1-0.4-0.1-0.6-0.1h-2.6v3.4h-1.1v-7.9h3.7V56.9zM248.4 60.5c0.2 0 0.4-0.1 0.6-0.2 0.2-0.1 0.3-0.3 0.4-0.4 0.1-0.2 0.2-0.4 0.2-0.7 0-0.4-0.1-0.7-0.3-1 -0.2-0.2-0.6-0.4-1.1-0.4h-2.6v2.8h2.2C247.9 60.6 248.2 60.5 248.4 60.5z"/><path fill="#DDE5CE" d="M257.8 56.9v0.9h-4.4v2.5h4.1v0.9h-4.1v2.7h4.4v0.9h-5.5v-7.9H257.8z"/><path fill="#DDE5CE" d="M264.8 56.9v0.9h-4.4v2.5h4.1v0.9h-4.1v2.7h4.4v0.9h-5.5v-7.9H264.8z"/><g id="Layer_1_1_"><g id="border" display="none"><path display="inline" fill="#65BCAB" d="M304 96.1c0 6.6-5.3 11.9-12 11.9H10C3.4 108-2 102.7-2 96.1V10.9C-2 4.3 3.4-1 10-1h282.1C298.6-1 304 4.3 304 10.9V96.1L304 96.1z"/></g><g id="girl"><g id="girl_1_"><path fill="#DDE5CE" d="M59.6 81.3c-0.2-1.7-0.4-3.5-1.2-5.1 -0.3-0.4-0.5-0.8-0.7-1.1 0.3-0.7 0.5-1.4 0.4-1.8 -2.8-9-7.9-23.5-11.3-32.3 -0.7-1.7-3-3.5-4.9-3.9 -4.5-1-9.2-1.5-13.8-1.5 -6.2-0.1-10.2-1.4-13.3-4.9 0.1-2.8 1.1-5.5 2.9-7.6 1.4 5.8 6.2 10.7 11.9 10.7 5.7 0 10.4-4.8 11.9-10.6 2.3 2.7 3.1 6.3 2.8 9.8 6.4-0.2 7.7-10.6-2.3-12.8 0-0.1 0-0.3 0-0.4 0-7.1-5.5-12.9-12.3-12.9 -6.8 0-12.3 5.8-12.3 12.9v0.4c-3.2 0.7-5.3 2.2-6.4 4 0 0 0 0 0-0.1 -1.4-3.4-1.3-2.2-2-5.9 0.6-1.3 4.5-0.6 5.4-1.8 0.4-0.6 1-1.2 1.4-1.9 0.3-0.5 0.2-1.1 0.3-1.7 0.2-0.7 0.5-2.8-1-2.2 -1.4 0.5-0.7 2.3-1.7 3.2 -0.3 0.2-1.1 0.9-1.5 0.7 -0.4-0.2-0.8-1-0.9-1.5 -0.3-1.4 0.1-2.8 1.3-3.6 0.9-0.3 1.9 1.8 2.9 0.7 0.4-0.5 0.3-0.9-0.1-1.2 -0.6-0.4-1.2-0.9-1.9-1.3 -1.2-0.7-2.4-0.4-3.3 0.6 -0.4 0.4-0.6 1.2-0.8 1.7 0 0.1-0.7 1.7-0.9 0.7C7.8 9.8 7.7 8.3 7.8 7.5 7.7 6.6 7.7 5.4 7.8 3.8 7.8 3 8 1.1 7.5 0.4c-0.2-0.4-0.9-0.6-1.2-0.3 -0.7 0.4-0.6 1.1-0.6 1.8l0 8.8c-0.1 0.6-0.1 0.9-0.6 0.8 -0.2-1.7-0.4-3.5-0.7-5.2C4.3 5.5 4.3 1.5 2.6 2.6 1.7 3.1 2.2 4.2 2.3 5c0.2 1 0.3 2 0.5 3 0.2 1 0.4 2 0.5 3 0.1 0.8 0.6 1.5-0.4 1.7 -0.2-1-0.6-2-0.9-3C1.8 9 1.6 7.1 0.8 6.9c-1.8-0.6-0.1 4.5 0 4.9 0.5 1.7 0.8 3.5 1.5 5.1 0.3 0.7 0.5 1.4 0.8 2 3.1 7.8 2.9 14.1 7.5 21.1 5.1 7.8 6.7 14.2 5.2 22.7 -1.4 7.2-3.6 15.8-5.1 23.3 2.4 0.3 4.4 0.5 7.7 0.8 0 1.7 0 3.5 0 5.2 3.3 0 6.7 0 10 0.1 0.1-1.8 0.2-3.7 0.3-5.5 0.6-0.1 2.3 0 2.9-0.1 0.3 1.1 0.2 1.9 0.3 3 0.1 0.9 0.1 1.7 0.1 2.6 3.4 0 6.7 0 10.1 0 0-1.7 0-3.5 0-5.2 2.9-0.3 5-0.6 7.5-0.9 -1.7-8.5-3.8-17.1-5.4-25.3l5 9.3c0.8 1.4 2.4 5.5 4.1 7.1 0.1 0.4 0.4 0.8 0.6 1.2 0.6 0.8 1 1.7 1.6 2.5 0.1 0.2 0.3 0.4 0.5 0.6 0.2 0.2 0.5 0.5 0.5 0.7 0.3 1.3 0.7 2.6 1.8 3.4 0.1 0.1 0.4 0.2 0.6 0.2 0.2 0 0.3-0.3 0.4-0.5 0.1-0.4 0-0.7 0-1.1 0-0.4 0-0.8 0.1-1.1C59.4 82.6 59.7 81.9 59.6 81.3z"/></g></g><path fill="#EA5F72" d="M35.8 43.1c-2.9 0-5.8 3.5-5.8 3.5s-2.9-3.5-5.8-3.5c-2.9 0-5.7 1.5-5.7 5.8 0 3.1 2.9 5.8 2.9 5.8l8.6 8.6 8.6-8.6c0 0 2.9-2.7 2.9-5.8C41.5 44.6 38.7 43.1 35.8 43.1z"/></g></g><g id="Layer_2" display="none"/><path fill="#DDE5CE" d="M93.2 59.8v1.9h-3.3v3.5h-1.8V61.7h-3.3v-1.9h3.3v-3.5h1.8v3.5H93.2z"/></g><g id="Layer_3"><path fill="#FFFFFF" d="M68.8 31.1l4.8 12.9h-2.9l-1-2.9h-4.8l-1 2.9h-2.8l4.9-12.9H68.8zM69 38.9l-1.6-4.7h0l-1.7 4.7H69z"/><path fill="#FFFFFF" d="M80.5 31.1c0.8 0 1.6 0.1 2.3 0.4 0.7 0.3 1.3 0.7 1.9 1.2 0.5 0.5 0.9 1.2 1.2 2s0.4 1.7 0.4 2.8c0 0.9-0.1 1.8-0.4 2.6 -0.2 0.8-0.6 1.5-1.1 2.1s-1.1 1-1.8 1.4c-0.7 0.3-1.6 0.5-2.6 0.5h-5.5V31.1H80.5zM80.3 41.5c0.4 0 0.8-0.1 1.2-0.2 0.4-0.1 0.7-0.4 1-0.7 0.3-0.3 0.5-0.7 0.7-1.2 0.2-0.5 0.3-1.1 0.3-1.8 0-0.6-0.1-1.2-0.2-1.8s-0.3-1-0.6-1.3c-0.3-0.4-0.7-0.7-1.1-0.9 -0.5-0.2-1.1-0.3-1.8-0.3h-2v8.1H80.3z"/><path fill="#FFFFFF" d="M93.9 31.1c0.8 0 1.6 0.1 2.3 0.4 0.7 0.3 1.3 0.7 1.9 1.2 0.5 0.5 0.9 1.2 1.2 2s0.4 1.7 0.4 2.8c0 0.9-0.1 1.8-0.4 2.6 -0.2 0.8-0.6 1.5-1.1 2.1s-1.1 1-1.8 1.4c-0.7 0.3-1.6 0.5-2.6 0.5h-5.5V31.1H93.9zM93.7 41.5c0.4 0 0.8-0.1 1.2-0.2 0.4-0.1 0.7-0.4 1-0.7 0.3-0.3 0.5-0.7 0.7-1.2 0.2-0.5 0.3-1.1 0.3-1.8 0-0.6-0.1-1.2-0.2-1.8s-0.3-1-0.6-1.3c-0.3-0.4-0.7-0.7-1.1-0.9 -0.5-0.2-1.1-0.3-1.8-0.3h-2v8.1H93.7z"/><path fill="#CAE264" d="M104.8 32.4c0.3-0.5 0.6-0.8 1-1.1 0.4-0.3 0.9-0.5 1.4-0.7 0.5-0.2 1.1-0.2 1.6-0.2 0.8 0 1.5 0.1 2.1 0.4 0.6 0.3 1 0.6 1.4 0.9 0.3 0.4 0.6 0.7 0.8 1.2s0.2 0.8 0.2 1.1c0 0.7-0.2 1.2-0.5 1.7 -0.3 0.5-0.8 0.8-1.5 1.1v0c0.8 0.2 1.4 0.6 1.8 1.1 0.4 0.6 0.6 1.3 0.6 2.1 0 0.7-0.1 1.3-0.4 1.8 -0.3 0.5-0.7 1-1.1 1.3 -0.5 0.3-1 0.6-1.6 0.8 -0.6 0.2-1.2 0.3-1.8 0.3 -0.6 0-1.3-0.1-1.9-0.2 -0.6-0.2-1.1-0.4-1.6-0.8 -0.5-0.3-0.9-0.8-1.1-1.3 -0.3-0.5-0.4-1.1-0.4-1.9 0-0.8 0.2-1.6 0.7-2.1s1.1-0.9 1.9-1.1v0c-0.6-0.2-1.1-0.5-1.5-1 -0.3-0.5-0.5-1.1-0.5-1.7C104.4 33.4 104.6 32.9 104.8 32.4zM106.8 40.8c0.1 0.3 0.3 0.5 0.5 0.7s0.5 0.3 0.8 0.5c0.3 0.1 0.6 0.2 0.9 0.2 0.3 0 0.6-0.1 0.9-0.2 0.3-0.1 0.5-0.3 0.7-0.5s0.4-0.4 0.5-0.7c0.1-0.3 0.2-0.6 0.2-0.9 0-0.3-0.1-0.6-0.2-0.9 -0.1-0.3-0.3-0.5-0.5-0.7s-0.4-0.3-0.7-0.4c-0.3-0.1-0.6-0.2-0.9-0.2 -0.7 0-1.2 0.2-1.7 0.5 -0.5 0.4-0.7 0.9-0.7 1.6C106.6 40.2 106.6 40.5 106.8 40.8zM107.5 35.5c0.4 0.3 0.9 0.4 1.4 0.4 0.6 0 1-0.1 1.4-0.4 0.4-0.3 0.6-0.7 0.6-1.3 0-0.2 0-0.4-0.1-0.6 -0.1-0.2-0.1-0.4-0.3-0.6s-0.3-0.3-0.6-0.5 -0.6-0.2-1-0.2c-0.3 0-0.5 0-0.8 0.1 -0.2 0.1-0.5 0.2-0.7 0.4 -0.2 0.2-0.3 0.3-0.4 0.6 -0.1 0.2-0.2 0.5-0.2 0.8C106.9 34.8 107.1 35.2 107.5 35.5z"/><path fill="#CAE264" d="M122.1 35.2c-0.5 0.9-1 1.8-1.3 2.8 -0.4 1-0.6 2-0.8 3 -0.2 1-0.3 2-0.3 2.9h-2.9c0.2-2 0.6-3.9 1.4-5.7 0.8-1.8 1.8-3.5 3.1-5.1h-6.3v-2.5h9.1v2.3C123.3 33.5 122.6 34.3 122.1 35.2z"/><path fill="#FFFFFF" d="M131.3 40.7c0.2 0.3 0.4 0.5 0.6 0.7 0.3 0.2 0.6 0.3 0.9 0.4 0.3 0.1 0.7 0.1 1.1 0.1 0.3 0 0.5 0 0.8-0.1 0.3 0 0.6-0.1 0.8-0.2s0.5-0.3 0.6-0.5 0.3-0.5 0.3-0.8c0-0.3-0.1-0.6-0.3-0.8 -0.2-0.2-0.5-0.4-0.9-0.5 -0.4-0.1-0.8-0.3-1.2-0.4 -0.5-0.1-0.9-0.2-1.4-0.4 -0.5-0.1-0.9-0.3-1.4-0.4 -0.5-0.2-0.9-0.4-1.2-0.7 -0.4-0.3-0.7-0.6-0.9-1s-0.3-0.9-0.3-1.5c0-0.7 0.1-1.2 0.4-1.7 0.3-0.5 0.7-0.9 1.1-1.2 0.5-0.3 1-0.6 1.5-0.7s1.2-0.2 1.7-0.2c0.7 0 1.3 0.1 1.9 0.2 0.6 0.2 1.2 0.4 1.6 0.7 0.5 0.3 0.9 0.8 1.1 1.3s0.4 1.2 0.4 1.9h-2.7c0-0.4-0.1-0.7-0.2-1 -0.1-0.3-0.3-0.4-0.5-0.6s-0.5-0.2-0.8-0.3c-0.3-0.1-0.6-0.1-1-0.1 -0.2 0-0.5 0-0.7 0.1 -0.2 0-0.4 0.1-0.6 0.3 -0.2 0.1-0.3 0.3-0.5 0.5s-0.2 0.4-0.2 0.7c0 0.3 0 0.5 0.1 0.6 0.1 0.2 0.3 0.3 0.6 0.4 0.3 0.1 0.7 0.3 1.2 0.4 0.5 0.1 1.1 0.3 2 0.5 0.2 0 0.6 0.1 1 0.3s0.9 0.3 1.3 0.6 0.8 0.6 1.1 1.1c0.3 0.5 0.5 1.1 0.5 1.8 0 0.6-0.1 1.1-0.3 1.6 -0.2 0.5-0.6 0.9-1 1.3 -0.4 0.4-1 0.7-1.7 0.9 -0.7 0.2-1.4 0.3-2.3 0.3 -0.7 0-1.4-0.1-2.1-0.3s-1.3-0.4-1.8-0.8c-0.5-0.4-0.9-0.8-1.2-1.4 -0.3-0.6-0.4-1.3-0.4-2.1h2.7C131.1 40.1 131.1 40.4 131.3 40.7z"/><path fill="#FFFFFF" d="M143.9 31.1v12.9h-2.8V31.1H143.9z"/><path fill="#FFFFFF" d="M154 43.8c-0.6 0.3-1.2 0.4-1.9 0.4 -1 0-1.9-0.2-2.7-0.5s-1.4-0.8-2-1.4c-0.5-0.6-1-1.3-1.2-2.1s-0.4-1.7-0.4-2.6c0-1 0.1-1.9 0.4-2.7s0.7-1.5 1.2-2.2c0.5-0.6 1.2-1.1 2-1.4 0.8-0.3 1.7-0.5 2.7-0.5 0.7 0 1.3 0.1 1.9 0.3 0.6 0.2 1.2 0.5 1.7 0.9 0.5 0.4 0.9 0.9 1.2 1.4s0.5 1.2 0.6 1.9h-2.7c-0.2-0.7-0.5-1.3-1-1.6 -0.5-0.4-1.1-0.5-1.7-0.5 -0.6 0-1.2 0.1-1.6 0.4 -0.4 0.2-0.8 0.6-1.1 1s-0.5 0.9-0.6 1.4c-0.1 0.5-0.2 1.1-0.2 1.6 0 0.5 0.1 1.1 0.2 1.6s0.3 1 0.6 1.4c0.3 0.4 0.6 0.7 1.1 1 0.4 0.2 1 0.4 1.6 0.4 0.9 0 1.7-0.2 2.2-0.7s0.8-1.2 0.9-2.1h-2.8v-2.1h5.4v6.9h-1.8l-0.3-1.5C155.2 43.1 154.7 43.6 154 43.8z"/><path fill="#FFFFFF" d="M163.1 31.1l5.4 8.6h0v-8.6h2.6v12.9h-2.8l-5.3-8.6h0v8.6h-2.6V31.1H163.1z"/><path fill="#FFFFFF" d="M175.9 40.7c0.2 0.3 0.4 0.5 0.6 0.7 0.3 0.2 0.6 0.3 0.9 0.4 0.3 0.1 0.7 0.1 1.1 0.1 0.3 0 0.5 0 0.8-0.1 0.3 0 0.6-0.1 0.8-0.2s0.5-0.3 0.6-0.5 0.3-0.5 0.3-0.8c0-0.3-0.1-0.6-0.3-0.8 -0.2-0.2-0.5-0.4-0.9-0.5 -0.4-0.1-0.8-0.3-1.2-0.4s-0.9-0.2-1.4-0.4c-0.5-0.1-0.9-0.3-1.4-0.4 -0.5-0.2-0.9-0.4-1.2-0.7 -0.4-0.3-0.7-0.6-0.9-1 -0.2-0.4-0.3-0.9-0.3-1.5 0-0.7 0.1-1.2 0.4-1.7 0.3-0.5 0.7-0.9 1.1-1.2 0.5-0.3 1-0.6 1.5-0.7 0.6-0.2 1.2-0.2 1.7-0.2 0.7 0 1.3 0.1 1.9 0.2 0.6 0.2 1.2 0.4 1.6 0.7 0.5 0.3 0.9 0.8 1.1 1.3 0.3 0.5 0.4 1.2 0.4 1.9h-2.7c0-0.4-0.1-0.7-0.2-1s-0.3-0.4-0.5-0.6c-0.2-0.1-0.5-0.2-0.8-0.3s-0.6-0.1-1-0.1c-0.2 0-0.5 0-0.7 0.1 -0.2 0-0.4 0.1-0.6 0.3 -0.2 0.1-0.3 0.3-0.5 0.5 -0.1 0.2-0.2 0.4-0.2 0.7 0 0.3 0 0.5 0.1 0.6 0.1 0.2 0.3 0.3 0.6 0.4 0.3 0.1 0.7 0.3 1.2 0.4 0.5 0.1 1.1 0.3 2 0.5 0.2 0 0.6 0.1 1 0.3s0.9 0.3 1.3 0.6 0.8 0.6 1.1 1.1 0.5 1.1 0.5 1.8c0 0.6-0.1 1.1-0.3 1.6 -0.2 0.5-0.6 0.9-1 1.3 -0.4 0.4-1 0.7-1.7 0.9 -0.7 0.2-1.4 0.3-2.3 0.3 -0.7 0-1.4-0.1-2.1-0.3s-1.3-0.4-1.8-0.8c-0.5-0.4-0.9-0.8-1.2-1.4 -0.3-0.6-0.4-1.3-0.4-2.1h2.7C175.7 40.1 175.8 40.4 175.9 40.7z"/><path fill="#FFFFFF" d="M193.4 31.1l5.4 8.6h0v-8.6h2.6v12.9h-2.8l-5.3-8.6h0v8.6h-2.6V31.1H193.4z"/><path fill="#FFFFFF" d="M203.9 34.9c0.3-0.8 0.7-1.5 1.2-2.2 0.5-0.6 1.2-1.1 2-1.4 0.8-0.3 1.7-0.5 2.7-0.5 1 0 1.9 0.2 2.7 0.5 0.8 0.3 1.4 0.8 2 1.4 0.5 0.6 1 1.3 1.2 2.2s0.4 1.7 0.4 2.7c0 0.9-0.1 1.8-0.4 2.6s-0.7 1.5-1.2 2.1c-0.5 0.6-1.2 1.1-2 1.4s-1.7 0.5-2.7 0.5c-1 0-1.9-0.2-2.7-0.5s-1.4-0.8-2-1.4c-0.5-0.6-1-1.3-1.2-2.1s-0.4-1.7-0.4-2.6C203.5 36.6 203.6 35.7 203.9 34.9zM206.5 39.1c0.1 0.5 0.3 1 0.6 1.4 0.3 0.4 0.6 0.7 1.1 1 0.4 0.2 1 0.4 1.6 0.4s1.2-0.1 1.6-0.4c0.4-0.2 0.8-0.6 1.1-1 0.3-0.4 0.5-0.9 0.6-1.4s0.2-1 0.2-1.6c0-0.6-0.1-1.1-0.2-1.6 -0.1-0.5-0.3-1-0.6-1.4 -0.3-0.4-0.6-0.7-1.1-1 -0.4-0.2-1-0.4-1.6-0.4s-1.2 0.1-1.6 0.4c-0.4 0.2-0.8 0.6-1.1 1s-0.5 0.9-0.6 1.4c-0.1 0.5-0.2 1.1-0.2 1.6C206.3 38.1 206.4 38.6 206.5 39.1z"/><path fill="#FFFFFF" d="M227.2 43.9l-2.2-8.7H225l-2.1 8.7h-2.9l-3.4-12.9h2.8l2 8.7h0l2.2-8.7h2.6l2.2 8.9h0l2.1-8.9h2.8l-3.5 12.9H227.2z"/></g><g id="Layer_4" display="none"><text transform="matrix(1 0 0 1 60.1665 42.916)" display="inline"><tspan x="0" y="0" fill="#FFFFFF" font-family="'HelveticaNeue-Bold'" font-size="18">ADD</tspan><tspan x="39.3" y="0" fill="#DDE5CE" font-family="'HelveticaNeue-Bold'" font-size="18"/><tspan x="44.4" y="0" fill="#CAE264" font-family="'HelveticaNeue-Bold'" font-size="19">87</tspan><tspan x="65.7" y="0" fill="#DDE5CE" font-family="'HelveticaNeue-Bold'" font-size="18"/><tspan x="70.8" y="0" fill="#FFFFFF" font-family="'HelveticaNeue-Bold'" font-size="18">SIGNS NOW</tspan></text></g><g id="Layer_5" display="none"><g display="inline"><path fill-rule="evenodd" clip-rule="evenodd" fill="#50C5FF" d="M282.3 55.2c0-0.2 0-0.3 0-0.4 0-7.6 0-0.3 0-7.9 0-0.6 0.2-1 0.8-1.4 0.6-0.4 1.3-0.4 1.9-0.2 0.7 0.3 1 0.7 1.1 1.3 0 0.1 0 0.2 0 0.4 0 7.6 0 0.2 0 7.8 0 0.1 0 0.2 0 0.3 0.1 0 0.2 0 0.3 0 1.6 0 3.1 0 4.7-0.1 0.7 0 1.3 0.3 1.5 0.8 0.1 0.4 0 0.7-0.3 1.1 -1.2 1.3-2.3 2.6-3.5 3.9 -1.1 1.3-2.3 2.6-3.4 3.9 -0.6 0.7-1.6 0.7-2.3 0 -0.7-0.7-1.4-1.4-2.1-2.1 -1.8-1.9-3.7-3.7-5.5-5.6 -0.4-0.4-0.5-0.8-0.2-1.2 0.3-0.5 0.7-0.7 1.3-0.7 1.5 0 2.9 0 4.4 0C281.3 55.2 281.8 55.2 282.3 55.2z"/></g></g></svg>