<svg xmlns="http://www.w3.org/2000/svg" viewBox="0 0 768 400"><style>.a{fill:none;}.b{fill:#D9E3EC;}.c{fill:#004481;}.d{fill:#ED9234;}.e{fill:#FFF;}.f{fill:#78BE4A;}.g{fill:#F5842B;}.h{fill:#00B7ED;}.i{fill:#0EC9C9;}.j{fill:#CCCECE;}</style><polygon points="111.3 270.2 105.5 271.2 105.1 273 110.5 272.5 " class="a"/><polygon points="109.7 286.3 109.5 278.6 105.1 279.2 105.9 291.8 107.1 291.4 107 289.7 " class="a"/><polygon points="105 276.8 105 277.7 109.5 276.8 " class="a"/><path d="M117.3 252.2c0 0 1.1-2.4 1.7-2.4 0-0.4-1.1-2.6-1.1-2.6s0-2.7 1.5-2.2c1.3 1.7 1.6 3 1.6 3s2.5-4.1 8.2-2.3c0 0-2.8-2.2-2.8-2.2 0 0-5.1-3.1-9 1.3C117.2 247.3 117.3 252.2 117.3 252.2z" class="a"/><path d="M116.6 262.8l0.5 9.3 4 0.3 0.1-0.4c0.5-1.1 1.3-1.7 2.1-1.7 1.5 0 2.8 2.1 2.8 4.7 0 2.6-1.2 4.8-2.7 4.8 -0.9 0-1.7-0.7-2.2-1.8l-0.3-0.5c0-0.8-0.5-0.8-3.2-0.9 -1.1 0.9-0.8 8.4-0.4 13.6 1.7-0.2 5.3-0.6 6.6-0.9 0.5 0.5-1.2 5.1-1.2 5.1l-5 0.9c0 0 0.9 6.3 8.3 3.8 17.3-12.2 9.4-49.7 3.5-49.9C121.6 248.6 116.6 262.8 116.6 262.8z" class="a"/><path d="M107.8 297.5c0 0 6.7 11 10.3 8.1v-2.8l-4.3-6.6L107.8 297.5z" class="a"/><path d="M106.6 265.1c0 0.4-0.1 2-0.1 2l2.4-0.1L106.6 265.1z" class="a"/><polygon points="98.8 276.5 92.6 276.5 93 279.2 97.6 278.3 " class="a"/><polygon points="94.1 280.6 94.8 282.2 93.3 283.5 93.2 285.5 96.9 280.2 " class="a"/><path d="M543.1 81.9c4.4-2.4 9.4-3.8 15.7-3.9 -0.4-0.8-0.7-1.7-0.7-2.9 0-1.2 0.2-2.2 0.6-3 -5.2 0.1-10.5 0.9-15.7 2.3V81.9z" class="a"/><polygon points="94.9 294.5 102.1 292.7 101.2 282 " class="a"/><path d="M112.5 262.2l-2.4 0.9c0.4 0.1 2 0.8 2 0.8L112.5 262.2z" class="a"/><path d="M270.6 302.5c0 1.1 1.1 1.7 2.1 1.7 2.5 0 3.2-1.6 3.2-3.1v-0.6h-1.3C272.5 300.4 270.6 300.9 270.6 302.5z" class="a"/><path d="M295.5 296.8c-2.2 0-3.6 1.7-3.6 3.7 0 2 1.4 3.7 3.6 3.7 2.1 0 3.8-1.7 3.8-3.7C299.3 298.4 297.6 296.8 295.5 296.8z" class="a"/><path d="M393.3 296.8c-2.2 0-3.6 1.7-3.6 3.7 0 2 1.4 3.7 3.6 3.7 2.1 0 3.8-1.7 3.8-3.7C397.1 298.4 395.4 296.8 393.3 296.8z" class="a"/><path d="M351.1 296.8c-2.6 0-3.3 2.5-3.3 2.9h6.4C354.2 298.1 352.8 296.8 351.1 296.8z" class="a"/><path d="M318.7 302.5c0 1.1 1.1 1.7 2.1 1.7 2.5 0 3.2-1.6 3.2-3.1v-0.6h-1.3C320.6 300.4 318.7 300.9 318.7 302.5z" class="a"/><path d="M332.8 296.8c-2.1 0-3.8 1.7-3.8 3.7 0 2 1.6 3.7 3.8 3.7 2.2 0 3.6-1.7 3.6-3.7C336.4 298.4 335 296.8 332.8 296.8z" class="a"/><path d="M99.5 272.1l-6.8 0.4c0 0.4-0.3 1.2-0.3 1.2l7-0.5L99.5 272.1z" class="a"/><path d="M124.3 185.3c-0.4 0.4 0.9 0.1 0.7 0.5 -0.8 1.8-1.6 3.4-2.5 4.6 -0.7 1-1 2.8-2.7 2.5 -2.2 1.2-5.1 5.1-4.7 5.4 2.3-1.2 9.5-4.7 11.3-3.2 0.1-1 1-4.5 2.2-8.5 -0.9-1-2.9-3.2-2.9-3.2C125.3 184.3 125.1 184.6 124.3 185.3z" class="a"/><path d="M181.8 296.8c-2.2 0-3.6 1.7-3.6 3.7 0 2 1.4 3.7 3.6 3.7 2.2 0 3.6-1.7 3.6-3.7C185.4 298.4 184 296.8 181.8 296.8z" class="a"/><path d="M170 296.8c-2.2 0-3.6 1.7-3.6 3.7 0 2 1.4 3.7 3.6 3.7 2.2 0 3.6-1.7 3.6-3.7C173.6 298.4 172.2 296.8 170 296.8z" class="a"/><path d="M216.4 296.8c-2.6 0-3.3 2.5-3.3 2.9h6.4C219.5 298.1 218.1 296.8 216.4 296.8z" class="a"/><circle cx="239.9" cy="300.4" r="3.6" class="a"/><path d="M251.6 296.8c-2.6 0-3.3 2.5-3.3 2.9h6.4C254.7 298.1 253.4 296.8 251.6 296.8z" class="a"/><path d="M600.5 89.8c-2 0.8-4.4 1.1-6.9 1.1h-1.8c11.2 9.5 26.2 15.3 42.7 15.3 7.2 0 14.3-1.1 21.2-3.2 -2.2-1.3-4.1-3-5.8-4.9 -4.7 1.4-9.8 2.1-15.3 2.1C621.7 100.3 609.9 96.3 600.5 89.8z" class="a"/><path d="M634 88.4c-1.5 2-4.2 2.8-7.2 2.8 -2.4 0-3.5-0.3-5.7-0.9l0.4-3.8c-5.6-1.6-10.7-4.2-15-7.6 0 0.3 0 0.5 0 0.8 0 2.4-0.5 4.4-1.3 5.9 8.2 5.5 18.3 8.7 29.3 8.7 3.9 0 7.9-0.4 11.8-1.2 -1-1.8-1.8-3.8-2.3-5.8 -2.8 0.8-6 1.2-9.5 1.2C634.3 88.5 634.2 88.4 634 88.4z" class="a"/><path d="M69.2 273.7c0 0 0 11 2.4 10.6 0.4-2.8 0.1-10.1 0.1-10.1L69.2 273.7z" class="a"/><path d="M69.5 271.4l2.8 0.7v-7.2C70.6 263.9 69.5 271.4 69.5 271.4z" class="a"/><path d="M66.4 295.9l1.2-3.1 2.4-1.5 -3.4-4C66.6 288.1 66.4 295.9 66.4 295.9z" class="a"/><path d="M538.6 84.9l0.2-0.2v-9c-1.4 0.5-2.8 1-4.1 1.6L538.6 84.9z" class="a"/><path d="M596.8 87c-0.6-0.5-1.3-1.1-1.9-1.6l0 0c-0.9-0.9-1.9-1.7-2.9-2.5v4.5h2.5C595.3 87.4 596.1 87.3 596.8 87z" class="a"/><path d="M529.1 74.2h-0.1v1.7c0.2-0.2 0.4-0.3 0.7-0.5L529.1 74.2z" class="a"/><path d="M100.5 265.1l-3 0.4 -4.7 4.2c0.4 0 7.4-1.5 7.4-1.5L100.5 265.1z" class="a"/><polygon points="60.5 241.5 76.2 239.6 79.7 235.6 60.3 238.4 " class="a"/><path d="M626.5 87.8c-1.4-0.2-2.7-0.5-4-0.9 1.3 0.5 2.6 0.9 4 0.9H626.5z" class="a"/><path d="M587.5 72.9v-4.2h4.9c-9.5-5.3-20.8-8.4-32.8-8.4 -12 0-24 3.1-34.4 8.4h5l2.4 4.8c1.9-1.2 4-2.3 6.1-3.2v-1.6h4.2c5-1.6 10.6-2.5 16.7-2.5C569.8 66.1 579.3 68.6 587.5 72.9z" class="a"/><path d="M564.3 72.2c-0.8 0.4-1.5 1.2-1.5 2.6 0 2.2 3.2 2.6 5.9 4 7.1 1.4 13.5 4.4 18.8 8.5V79.8C580.8 75.6 572.9 72.9 564.3 72.2z" class="a"/><path d="M599.2 80.9c0.7 0.6 1.4 1.2 2.1 1.8 0.3-0.9 0.5-1.9 0.5-3 0-4.9-3.6-7.6-7.3-7.6h-2.5v3.3c2.6 1.7 5 3.5 7.2 5.5L599.2 80.9z" class="a"/><path d="M525.3 68.6c10.4-5.3 22.4-8.4 34.4-8.4 12 0 23.2 3.1 32.8 8.4h1.2c6.6 0 12.5 2.2 12.8 10.4 4.3 3.4 9.4 6 15 7.6l0-0.2c0.3 0.2 0.7 0.3 1 0.5 1.3 0.3 2.7 0.6 4 0.9 1.7 0 4-0.9 4-2.9 0-1.5-1.3-2.3-2.9-2.9 -6.8-1.2-13-4.1-17.9-8.3l0 0c-12.6-12-30.4-19.4-50-19.4 -28.6 0-49.6 15.9-59.9 38.4 5-9.8 14-18 25-23.8v-0.3H525.3z" class="b"/><path d="M634 88.4c0.2 0 0.3 0 0.5 0 3.5 0 6.7-0.4 9.5-1.2 -0.5-1.8-0.7-3.6-0.8-5.5 -2.9 0.5-5.8 0.8-8.4 0.8 0.2 0.6 0.3 1.3 0.3 2C635.1 86.2 634.7 87.4 634 88.4z" class="b"/><path d="M529.1 75.9v4.2c0.8-0.4 1.6-0.9 2.4-1.3l-1.7-3.4C529.5 75.6 529.3 75.7 529.1 75.9z" class="b"/><path d="M534.7 77.3c1.4-0.6 2.7-1.1 4.1-1.6v-5.5c-2.1 0.9-4.2 2-6.1 3.2L534.7 77.3z" class="b"/><path d="M595 85.4c0.6 0.5 1.2 1.1 1.9 1.6 2-0.6 3.7-2.1 4.5-4.3 -0.7-0.6-1.4-1.2-2.1-1.8l0 0c-2.2-2-4.6-3.8-7.2-5.5v7.5c1 0.8 2 1.6 2.9 2.5L595 85.4z" class="b"/><path d="M514.6 92.5c2.6-3.6 6.1-6.9 10.2-9.8v-3.2C520.8 83.3 517.5 87.6 514.6 92.5z" class="b"/><path d="M587.5 72.9c-8.2-4.3-17.7-6.8-27.8-6.8 -6.1 0-11.6 0.9-16.7 2.5h0.1v5.7c5.1-1.4 10.5-2.2 15.7-2.3 1.2-2.7 4.2-3.8 7.2-3.8 1.9 0 3.7 0.3 5.3 0.8l-0.4 3.7c-1.4-0.6-3-1-4.5-1 -0.7 0-1.4 0.1-2 0.5 8.5 0.7 16.5 3.4 23.2 7.6V72.9z" class="b"/><path d="M605.2 85.6c-1.1 2-2.7 3.3-4.7 4.2 9.4 6.6 21.2 10.5 34 10.5 5.6 0 10.7-0.7 15.4-2.1 -1.4-1.5-2.5-3.2-3.5-5 -3.9 0.8-7.9 1.2-11.8 1.2C623.6 94.4 613.4 91.1 605.2 85.6z" class="b"/><polygon points="538.8 85.3 538.8 85.3 538.8 84.7 538.6 84.9 " class="b"/><path d="M530.7 92.6c1.6-1.4 3.6-2.6 5.9-3.7l-0.8-1.6C534.1 88.9 532.4 90.7 530.7 92.6z" class="b"/><path d="M634.5 106.2c-16.5 0-31.5-5.8-42.7-15.3h-4.3v-3.6c-5.3-4.1-11.7-7.1-18.8-8.5 2.1 1 3.9 2.5 3.9 5.7 0 0.5 0 1-0.1 1.4 4.5 1.5 8.5 3.8 11.9 6.7l0.1 0c12.6 12 30.4 19.4 50 19.4 10.5 0 20-2.2 28.3-6 -2.6-0.7-5-1.7-7.1-3C648.8 105 641.7 106.2 634.5 106.2z" class="b"/><path d="M558.9 77.9c-6.3 0.1-11.4 1.5-15.7 3.9v4.6c5.5-1.7 11.5-2.6 16.6-2.6 2.8 0 5.6 0.3 8.3 0.9C567.7 81.4 561 81.9 558.9 77.9z" class="b"/><path d="M669.4 54.6c-14.4 0-26.2 11.7-26.2 26.2 0 0.3 0 0.7 0 1 0.1 1.9 0.3 3.8 0.8 5.5 0.5 2.1 1.3 4 2.3 5.8 1 1.8 2.2 3.5 3.5 5 1.7 1.9 3.6 3.5 5.8 4.9 2.2 1.4 4.6 2.4 7.2 3.1 2.1 0.5 4.3 0.8 6.6 0.8 14.5 0 26.2-11.7 26.2-26.2C695.5 66.3 683.8 54.6 669.4 54.6zM662.6 90.9l-8-10.3h-0.1v10.4h-4.5V68.6h4.5v9.6l8.1-9.6h5.5l-9.2 10.5 9.5 11.8H662.6z" class="c"/><path d="M676.3 45c6.2 0 12.6 4.6 17.2 9.1 4.6 4.6 8.9 12.7 8.9 18.8 1.3-8.7 0.9-15.7-5.6-22.2C691.2 45.2 683.9 44.8 676.3 45z" class="d"/><path d="M710.1 37.5c-9.5-9.5-22.2-11.5-35.1-10.7 11.5-0.6 23.2 5.6 31.7 14 12 12 16.5 31.5 10.4 47.1C724.9 70.2 723.9 51.2 710.1 37.5z" class="d"/><path d="M675.6 35.9c9-0.4 18 5 24.6 11.6 8.3 8.3 12.8 22.1 10 33.2 4.4-13.4 3.5-26.4-6.7-36.6C695.9 36.6 685.8 35.4 675.6 35.9z" class="d"/><polygon points="543.1 74.3 543.1 68.6 543 68.6 538.8 68.6 538.8 70.2 538.8 75.7 538.8 84.7 538.8 85.3 538.8 85.3 538.6 84.9 534.7 77.3 532.7 73.4 530.3 68.6 525.3 68.6 524.8 68.6 524.8 68.9 524.8 79.5 524.8 82.7 524.8 90.9 529.1 90.9 529.1 80.1 529.1 75.9 529.1 74.2 529.1 74.2 529.7 75.4 531.5 78.8 535.8 87.3 536.6 88.9 537.6 90.9 543.1 90.9 543.1 86.4 543.1 81.9 " class="c"/><path d="M568.8 78.8c-2.7-1.3-5.9-1.8-5.9-4 0-1.4 0.7-2.2 1.5-2.6 0.6-0.3 1.4-0.5 2-0.5 1.6 0 3.1 0.4 4.5 1l0.4-3.7c-1.6-0.5-3.4-0.8-5.3-0.8 -3 0-6 1.1-7.2 3.8 -0.4 0.8-0.6 1.8-0.6 3 0 1.2 0.3 2.1 0.7 2.9 2.2 4 8.8 3.4 9.1 6.8l0 0.2c0 2-2.3 2.9-4 2.9 -1.8 0-3.5-0.5-5-1.4l-0.4 4c2.2 0.5 3.3 0.9 5.7 0.9 4 0 7.6-1.5 8.2-5.3 0.1-0.4 0.1-0.9 0.1-1.4C572.6 81.3 570.8 79.8 568.8 78.8z" class="c"/><path d="M600.5 89.8c2-0.8 3.7-2.1 4.7-4.2 0.8-1.5 1.3-3.5 1.3-5.9 0-0.3 0-0.5 0-0.8 -0.4-8.2-6.2-10.4-12.8-10.4h-1.2 -4.9v4.2V79.8v7.5 3.6h4.3 1.8C596.1 90.9 598.5 90.6 600.5 89.8zM592 82.9v-7.5V72.1h2.5c3.7 0 7.3 2.8 7.3 7.6 0 1.1-0.2 2.1-0.5 3 -0.8 2.2-2.5 3.6-4.5 4.3 -0.7 0.2-1.5 0.4-2.3 0.4h-2.5V82.9z" class="c"/><path d="M630.5 84.9c0 2-2.3 2.9-4 2.9h0c-1.4 0-2.7-0.3-4-0.9 -0.4-0.2-0.7-0.3-1-0.5l0 0.2 -0.4 3.8c2.2 0.5 3.3 0.9 5.7 0.9 3 0 5.7-0.8 7.2-2.8 0.7-1 1.2-2.3 1.2-3.9 0-0.8-0.1-1.4-0.3-2 -1.6-5.2-9.5-4.2-9.5-7.7 0-2.4 2-3.1 3.5-3.1 1.6 0 3.1 0.4 4.5 1l0.4-3.7c-1.6-0.5-3.4-0.8-5.3-0.8 -3.9 0-7.8 1.8-7.8 6.8 0 4.7 4 5.7 6.9 6.9C629.2 82.6 630.5 83.4 630.5 84.9z" class="c"/><polygon points="668.1 68.6 662.6 68.6 654.5 78.2 654.5 68.6 650.1 68.6 650.1 90.9 654.5 90.9 654.5 80.6 654.6 80.6 662.6 90.9 668.5 90.9 658.9 79.1 " class="e"/><polygon points="212.7 216.2 199.3 216.2 199.3 258.4 199.1 258.4 173.3 216.2 155 216.2 155 277 168.4 277 168.4 233.7 168.6 233.7 195.2 277 212.7 277 " class="f"/><path d="M243.2 266.2c-4.5 0-8.9-2.1-11.7-5.8l-9.5 10.5c5.8 5.3 12.6 7.6 20.4 7.6 12.5 0 23.5-6.4 23.5-20 0-21.3-28-14.2-28-25.3 0-4.6 5.2-6.3 9-6.3 3.3 0 7.6 1.3 9.7 4l9.2-10c-5.2-4.6-11.8-6.4-18.6-6.4 -11.9 0-23.2 6.8-23.2 19.8 0 20.3 28.5 14.3 28.5 25.4C252.4 264.1 247.5 266.2 243.2 266.2z" fill="#ED3341"/><path d="M330.9 240.9h-23.8v12.4h10.9v9.9c-2.5 1.4-6.8 3-12.6 3 -11.4 0-18.9-8.2-18.9-19.6 0-11.3 7.5-19.6 18.9-19.6 6.8 0 11.2 2 14.8 5.8l9.4-10.3c-6.1-5.7-14.6-7.8-24.2-7.8 -19 0-32.8 12.4-32.8 32 0 19.5 13.8 32 32.8 32 8.9 0 17.6-1.7 25.5-5.8V240.9z" class="g"/><polygon points="397.7 216.2 380.2 216.2 356.5 241.4 356.5 216.2 343.1 216.2 343.1 277 356.5 277 356.5 248.1 381.3 277 400 277 370.6 244.4 " class="h"/><polygon points="159.5 303.7 156.5 296 155.2 296 158.9 305 160.1 305 163.7 296 162.5 296 " class="h"/><path d="M170 295.7c-2.8 0-4.8 2-4.8 4.8 0 2.8 2 4.8 4.8 4.8 2.8 0 4.8-2 4.8-4.8C174.7 297.7 172.7 295.7 170 295.7zM170 304.2c-2.2 0-3.6-1.7-3.6-3.7 0-2 1.4-3.7 3.6-3.7 2.2 0 3.6 1.7 3.6 3.7C173.6 302.5 172.2 304.2 170 304.2z" class="h"/><path d="M181.8 295.7c-2.8 0-4.8 2-4.8 4.8 0 2.8 2 4.8 4.8 4.8 2.8 0 4.8-2 4.8-4.8C186.5 297.7 184.6 295.7 181.8 295.7zM181.8 304.2c-2.2 0-3.6-1.7-3.6-3.7 0-2 1.4-3.7 3.6-3.7 2.2 0 3.6 1.7 3.6 3.7C185.4 302.5 184 304.2 181.8 304.2z" class="h"/><path d="M190.5 297.5c0-0.2-0.1-0.9-0.1-1.6h-1.2c0 0.5 0.1 1.9 0.1 2.5v6.5h1.2v-4.9c0-1.8 0.9-3.2 3-3.2 0.1 0 0.3 0 0.5 0.1l0.1-1.2c-0.2-0.1-0.4-0.1-0.7-0.1C192 295.7 191.1 296.5 190.5 297.5z" class="h"/><path d="M205.7 295.7c-1.5 0-2.6 0.8-3.1 1.8h0v-7.3h-1.2v14.8h1.2v-4.5c0-2.5 1.4-3.7 3.1-3.7 1.9 0 2.3 1.4 2.3 2.9v5.3h1.2v-5.4C209.1 297.6 208.5 295.7 205.7 295.7z" class="h"/><path d="M216.4 295.7c-2.6 0-4.5 2-4.5 4.7 0 2.8 1.8 4.8 4.6 4.8 1.6 0 3-0.6 3.9-1.9l-0.9-0.7c-0.6 1-1.8 1.6-3 1.6 -2.7 0-3.4-2.4-3.4-3.4h7.6v-0.8C220.7 297.9 219.2 295.7 216.4 295.7zM213.1 299.7c0-0.5 0.7-2.9 3.3-2.9 1.7 0 3.1 1.3 3.1 2.9H213.1z" class="h"/><path d="M226.6 304.2c-0.8 0-1.3-0.5-1.3-1.3v-5.9h2.6v-1.1h-2.6v-2.6h-1.2v2.6h-2v1.1h2v5.9c0 1.3 0.6 2.3 2.3 2.3 0.5 0 1.1-0.2 1.5-0.3l-0.1-1.1C227.5 304 227.1 304.2 226.6 304.2z" class="h"/><path d="M243.4 297.5h0c-0.7-1.1-1.9-1.8-3.4-1.8 -2.7 0-4.8 2.1-4.8 4.6s2.2 4.6 4.8 4.6c1.5 0 2.7-0.7 3.4-1.8h0v1.3c0 1-0.1 4.2-3.6 4.2 -1.4 0-2.7-0.6-3.6-1.7l-0.9 0.9c0.9 1.2 2.7 1.9 4.5 1.9 1.8 0 4.8-0.8 4.8-5.3v-8.5h-1.2V297.5zM239.9 303.9c-2 0-3.6-1.6-3.6-3.6 0-2 1.6-3.6 3.6-3.6s3.6 1.6 3.6 3.6C243.5 302.3 241.8 303.9 239.9 303.9z" class="h"/><path d="M251.7 295.7c-2.6 0-4.5 2-4.5 4.7 0 2.8 1.8 4.8 4.6 4.8 1.6 0 3-0.6 3.9-1.9l-0.9-0.7c-0.6 1-1.8 1.6-3 1.6 -2.7 0-3.4-2.4-3.4-3.4h7.6v-0.8C255.9 297.9 254.5 295.7 251.7 295.7zM248.3 299.7c0-0.5 0.7-2.9 3.3-2.9 1.7 0 3.1 1.3 3.1 2.9H248.3z" class="h"/><path d="M263 295.7c-1.5 0-2.6 0.8-3.1 1.8h0v-7.3h-1.2v14.8h1.2v-4.5c0-2.5 1.4-3.7 3.1-3.7 1.9 0 2.3 1.4 2.3 2.9v5.3h1.2v-5.4C266.5 297.6 265.9 295.7 263 295.7z" class="h"/><path d="M276.8 299c0-2.3-1.4-3.3-3.6-3.3 -1.2 0-2.6 0.5-3.4 1.3l0.7 0.8c0.8-0.7 1.7-1 2.8-1 1.4 0 2.5 0.6 2.5 2.2v0.6h-1.4c-1.8 0-5 0.3-5 3 0 1.9 1.6 2.7 3.2 2.7 1.5 0 2.5-0.5 3.2-1.7h0c0 0.5 0 1 0.1 1.5h1.1c-0.1-1-0.2-2-0.2-3.8V299zM275.8 301.1c0 1.5-0.6 3.1-3.2 3.1 -1 0-2.1-0.6-2.1-1.7 0-1.5 2-2 3.9-2h1.3V301.1z" class="h"/><path d="M284.5 295.7c-1.5 0-2.6 0.8-3.1 1.8h-0.1c0-0.2-0.1-0.9-0.1-1.6h-1.2c0 0.5 0.1 1.9 0.1 2.5v6.5h1.2v-4.5c0-2.5 1.4-3.7 3.1-3.7 1.9 0 2.3 1.4 2.3 2.9v5.3h1.2v-5.4C287.9 297.6 287.3 295.7 284.5 295.7z" class="h"/><path d="M299.2 297.5h0c-0.7-1.3-2.3-1.8-3.6-1.8 -2.8 0-4.8 2-4.8 4.8 0 2.8 2 4.8 4.8 4.8 1.4 0 2.9-0.6 3.6-1.8h0v1.6h1.2v-14.8h-1.2V297.5zM295.5 304.2c-2.2 0-3.6-1.7-3.6-3.7 0-2 1.4-3.7 3.6-3.7 2.1 0 3.8 1.7 3.8 3.7C299.3 302.5 297.6 304.2 295.5 304.2z" class="h"/><path d="M304.2 291.5c-0.5 0-0.9 0.4-0.9 0.9s0.4 0.9 0.9 0.9c0.5 0 0.9-0.4 0.9-0.9S304.7 291.5 304.2 291.5z" class="h"/><rect x="303.6" y="296" width="1.2" height="9" class="h"/><path d="M312.5 296.8c0.9 0 1.7 0.5 2.4 1.2l0.9-0.7c-0.9-1-2.1-1.6-3.4-1.6 -2.8 0-4.8 2-4.8 4.8 0 2.8 2 4.8 4.8 4.8 1.3 0 2.4-0.5 3.3-1.6l-0.9-0.7c-0.6 0.7-1.4 1.3-2.4 1.3 -2.2 0-3.6-1.7-3.6-3.7C309 298.4 310.3 296.8 312.5 296.8z" class="h"/><path d="M324.9 299c0-2.3-1.4-3.3-3.6-3.3 -1.2 0-2.6 0.5-3.4 1.3l0.7 0.8c0.8-0.7 1.7-1 2.8-1 1.4 0 2.5 0.6 2.5 2.2v0.6h-1.4c-1.8 0-5 0.3-5 3 0 1.9 1.6 2.7 3.2 2.7 1.5 0 2.5-0.5 3.2-1.7h0c0 0.5 0 1 0.1 1.5h1.1c-0.1-1-0.2-2-0.2-3.8V299zM323.9 301.1c0 1.5-0.6 3.1-3.2 3.1 -1 0-2.1-0.6-2.1-1.7 0-1.5 2-2 3.9-2h1.3V301.1z" class="h"/><path d="M332.8 295.7c-1.4 0-2.9 0.6-3.6 1.8h0v-1.6h-1.2v13.5h1.2v-6h0c0.7 1.3 2.3 1.8 3.6 1.8 2.8 0 4.8-2 4.8-4.8C337.6 297.7 335.6 295.7 332.8 295.7zM332.8 304.2c-2.1 0-3.8-1.7-3.8-3.7 0-2 1.6-3.7 3.8-3.7 2.2 0 3.6 1.7 3.6 3.7C336.4 302.5 335 304.2 332.8 304.2z" class="h"/><path d="M343.5 304.2c-0.8 0-1.3-0.5-1.3-1.3v-5.9h2.6v-1.1h-2.6v-2.6h-1.2v2.6h-2v1.1h2v5.9c0 1.3 0.7 2.3 2.3 2.3 0.5 0 1.1-0.2 1.5-0.3l-0.1-1.1C344.4 304 343.9 304.2 343.5 304.2z" class="h"/><path d="M351.1 295.7c-2.6 0-4.5 2-4.5 4.7 0 2.8 1.8 4.8 4.6 4.8 1.6 0 3-0.6 3.9-1.9l-0.9-0.7c-0.6 1-1.8 1.6-3 1.6 -2.7 0-3.4-2.4-3.4-3.4h7.6v-0.8C355.4 297.9 353.9 295.7 351.1 295.7zM347.8 299.7c0-0.5 0.7-2.9 3.3-2.9 1.7 0 3.1 1.3 3.1 2.9H347.8z" class="h"/><polygon points="370.8 296 369.1 296 364.7 300.1 364.7 290.2 363.5 290.2 363.5 305 364.7 305 364.7 300.2 369.6 305 371.4 305 366.2 300.1 " class="h"/><rect x="373.3" y="296" width="1.2" height="9" class="h"/><path d="M373.9 291.5c-0.5 0-0.9 0.4-0.9 0.9s0.4 0.9 0.9 0.9c0.5 0 0.9-0.4 0.9-0.9S374.4 291.5 373.9 291.5z" class="h"/><path d="M382.3 295.7c-1.5 0-2.6 0.8-3.1 1.8h-0.1c0-0.2-0.1-0.9-0.1-1.6h-1.2c0 0.5 0.1 1.9 0.1 2.5v6.5h1.2v-4.5c0-2.5 1.4-3.7 3.1-3.7 1.9 0 2.3 1.4 2.3 2.9v5.3h1.2v-5.4C385.7 297.6 385.1 295.7 382.3 295.7z" class="h"/><path d="M397 297.5h0c-0.7-1.3-2.3-1.8-3.6-1.8 -2.8 0-4.8 2-4.8 4.8 0 2.8 2 4.8 4.8 4.8 1.4 0 2.9-0.6 3.6-1.8h0v1.6h1.2v-14.8h-1.2V297.5zM393.3 304.2c-2.2 0-3.6-1.7-3.6-3.7 0-2 1.4-3.7 3.6-3.7 2.1 0 3.8 1.7 3.8 3.7C397.1 302.5 395.4 304.2 393.3 304.2z" class="h"/><circle cx="78.6" cy="113" r="34" class="f"/><path d="M144.7 156.9c-2 0.8-0.1 6.2-2 7.4 -1.9 1.2-1.3 1.1-2.7 1.3 -1.3 0.3 2.9-4.9 2.4-5.2 -0.4-0.3-1.7-0.2-2.7 0.9 -0.9 1.1-1.9 2.8-5.5 5 -2.4 2.6-0.9 5.4-0.9 5.4s-1.4 4.4-3 9.4c-1.3 0.2-2.5 0.4-3.4 0.4 1.3-3.1 0.8-6.2 0-7.7 -2.8-5.9-6.4-6.7-7.8-7 -0.8-0.5-3.9-3.5-11.2-1.1 -2.3 0.5-4.5 3.2-5.5 4.8 0 0 0.2-1.1-0.1-1.5 -0.3-0.4-2.6-2.8-5.9-3 -3.5-0.2-7 1-9.6 5.4 -0.7 1.2 0 5.3-7.1 4.7 2.8 2.6 13.5 0.5 3.7 2.1 -2.5 0.4-3 0.5-5.8-1.7 0 0.9 0.4 8.7 15.1 2.1 2.9-0.9 8.2-5.9 8.2-5.9l0.7-0.8c-1 1.5-2.6 3.6-2.8 6.2 0 0.9-0.8-0.1-2.5 2.7 -1.7 2.8-2 9.7-1.1 11.4 0.6 1.1 6.7 3.2 7.7 3.3 1 0.1-1.1 2-2.2 3.9 -3.9-2-5.9 2.1-10.7 0.8 -3.8-0.1-2 2-3 1.6 -0.9-0.4-1.9-0.1-1.9-0.1l-2.7 1.6 -4.3 1.1 -12.2-14.2c0 0 2.1-1.1 2.4-1.5 0.3-0.4 3.5-6 3.6-7.6 -2.7-4-4.1-9.8-5.2-8 -0.7 1.2 1.1 3.2 0.7 3.9 -0.4 0.7-1.4-2.6-1.7-3.8 -0.7-0.7-2-0.7-2.4-0.4 -0.4 0.3-0.6 2.4-0.6 3.5 -1.3-0.3-1.6-1.5-2.4-0.4 -0.1 0.9-0.2 2.8 1.2 4.6 -0.1 2.3-0.2 2.9-0.2 2.9s-3.6 2.4-3.2 5.7c0.4 3.4 1.6 5 1.6 5s11.4 22 15.3 21.9c4.2 1.3 8.6 0.3 8.9 0.8 0.3 0.5 3.5 5 3.5 5.4s-2.7 3.4-3 7.1c-0.4-1.1-19.6 1.1-19.6 1.1s-2.1 2.6-1.6 3.5c-0.6-0.6-2.5-1.8-3.8 0.4 -1.4 0.5-2.7-0.5-3.2 2.8 2.2 0.1 1.2 8.1 1.2 8.1l-7.5 41.9 0.3 4.3c0 0-2.7 0.3-2.4 2.8 -3 0.1-8.3 0.4-8.3 0.4l-0.9 1.6 16.9 4 1.6 1.2c-1.5 1.3-2.7 3.6-3.1 6.4 -0.8 4.7 0.4 8.3 3.2 8.8 2.8 0.5 6-2.4 6.8-7.1 0.2-1.2 0.2-2.3 0.2-3.4 0.3-0.8 1.2-2.6 1.2-2.6l4.2-0.4v1.3l12.6 0.4 4.7-1.2 0.6 0.6c-2.6 0.5-5.1 4.1-5.9 8.7 -0.9 5.3 0.8 10.1 3.8 10.6 3 0.5 6.1-3.4 7-8.8 0.4-2.5 0.3-4.8-0.3-6.7l1.2-3.7 -0.1-4 10.6-1.9c2.4 6.6 7.8 11.1 12.6 11.7 4 0.5 9-0.5 12.8-4.4 0.2 0.6 0.3 2 1 2.1 0.8 0.1 1.9-0.7 1.8-2 -0.1-0.8-0.4-2.1-0.6-2.9 2.5-3.5 5.3-8.9 7.2-15.4 0.6 0.1 1.4 0.2 2.1 0.3 1.4-0.4 2.4-2.5 1.3-3.5 -1.2-0.2-1.9-0.6-2.4-0.8 0.5-2.4 0.9-4.9 1.2-7.5 0.4-4.1 0.3-7.8-0.1-11.4 0.6-0.6 1.8-1.9 2.8-2.9 1.3-1.4-0.6-3.5-1.4-2.6 -0.4 0.5-1.2 1.2-1.9 1.8 -0.7-3.6-1.7-6.8-2.9-9.7 -2.3-7-4.7-10.9-9.4-12.6 -2-0.7-7-0.4-9 0.7l2.1-12.4c0 0 7-0.5 7.8-1.9 0.8-1.3-0.1-5.1-0.1-5.1s-7.3 0.9-7.4 0.1c-0.1-0.8 5.5-3.2 8.3-4.4 0.9-1.7 0.4-8.1 0.7-7.6 0.3 0.4 3-0.9 5.1-2.6 0.7-0.5 1.2-3.6 1.6-7.6 3.1 3.6 5.2 3.1 7.3 3.5 -2.5-1.3-5.6-5.1-4.2-5.2 1.1 1.5 5 1.7 5 1.7 -10.2-4.9 6.2-11.3-2.3-16.7 -1.5-0.7-3.2-1-4.9-1.1 0.1-1.4 0.5-4.5 0.6-4.8 1.6-0.9 10-5.1 10.5-7C149.1 166.6 146.6 157.3 144.7 156.9zM67.6 292.8l-1.2 3.1c0 0 0.1-7.8 0.3-8.6l3.4 4L67.6 292.8zM71.7 284.3c-2.4 0.4-2.4-10.6-2.4-10.6l2.6 0.5C71.8 274.3 72.1 281.5 71.7 284.3zM72.3 272.1l-2.8-0.7c0 0 1.1-7.5 2.8-6.6V272.1zM76.2 239.6l-15.7 1.9 -0.3-3.1 19.5-2.8L76.2 239.6zM97.6 265.5l3-0.4 -0.3 3.1c0 0-7 1.5-7.4 1.5L97.6 265.5zM92.6 272.5l6.8-0.4 -0.1 1.1 -7 0.5C92.3 273.7 92.6 272.9 92.6 272.5zM92.6 276.5h6.2l-1.2 1.7 -4.6 0.9L92.6 276.5zM93.3 283.5l1.5-1.3 -0.7-1.6 2.8-0.4 -3.8 5.4L93.3 283.5zM94.9 294.5l6.3-12.5 0.9 10.6L94.9 294.5zM112.5 262.2l-0.4 1.7c0 0-1.6-0.7-2-0.8L112.5 262.2zM106.6 265.1l2.3 1.9 -2.4 0.1C106.4 267.1 106.6 265.5 106.6 265.1zM105.5 271.2l5.8-0.9 -0.8 2.3 -5.4 0.5L105.5 271.2zM105 276.8h4.6l-4.6 0.9V276.8zM105.9 291.8l-0.8-12.6 4.4-0.7 0.1 7.8 -2.7 3.4 0.1 1.7L105.9 291.8zM118.1 305.5c-3.6 3-10.3-8.1-10.3-8.1l6-1.3 4.3 6.6V305.5zM126.2 299.1c-7.4 2.5-8.3-3.8-8.3-3.8l5-0.9c0 0 1.7-4.6 1.2-5.1 -1.3 0.3-4.9 0.7-6.6 0.9 -0.4-5.3-0.7-12.8 0.4-13.6 2.7 0.1 3.2 0.1 3.2 0.9l0.3 0.5c0.5 1.1 1.3 1.8 2.2 1.8 1.5 0 2.7-2.2 2.7-4.8 0-2.6-1.3-4.8-2.8-4.7 -0.9 0-1.6 0.7-2.1 1.7l-0.1 0.4 -4-0.3 -0.5-9.3c0 0 5-14.2 13-13.7C135.6 249.4 143.5 286.9 126.2 299.1zM126.5 243.6c0 0 2.8 2.2 2.8 2.2 -5.7-1.8-8.2 2.3-8.2 2.3s-0.3-1.3-1.6-3c-1.5-0.5-1.5 2.2-1.5 2.2s1 2.2 1.1 2.6c-0.6 0-1.7 2.4-1.7 2.4s-0.1-5 0.1-7.2C121.4 240.5 126.5 243.6 126.5 243.6zM126.4 195.2c-1.7-1.5-9 2-11.3 3.2 -0.4-0.3 2.5-4.2 4.7-5.4 1.7 0.3 2-1.5 2.7-2.5 0.9-1.2 1.7-2.9 2.5-4.6 0.2-0.5-1.1-0.2-0.7-0.5 0.8-0.7 1-1 1.5-1.8 0 0 2 2.2 2.9 3.2C127.5 190.7 126.5 194.2 126.4 195.2z" class="g"/><path d="M677.2 256.2l-44.4 25.5c-5.6 3.2-12.5 3.2-18.5 0l-44-25.5c-5.6-3.2-9.3-9.3-9.3-15.7V189.6c0-6.9 3.7-13 9.3-16.7l44.4-25.5c5.6-3.2 12.5-3.2 18.5 0l44 25.5c5.6 3.2 9.3 9.3 9.3 15.7v50.9C686 246.5 682.7 252.5 677.2 256.2z" class="i"/><path d="M632.3 194.4v0c0-2.2-0.5-4.2-1.4-6.2 -0.7-1.4-1.6-2.6-2.6-3.8l-0.1-0.2c-0.1-0.1-0.3-0.3-0.5-0.4 -0.2-0.2-0.4-0.5-0.6-0.7 -0.4-0.4-1-0.7-1.5-1.1 -0.1-0.1-0.2-0.1-0.3-0.2 -0.9-0.6-1.9-1.1-3-1.6 -0.1-0.1-0.2-0.1-0.3-0.2 -0.1 0-0.1 0-0.2 0 -0.2-0.1-0.4-0.2-0.6-0.3 -0.7-0.3-1.5-0.4-2.3-0.6 -0.3-0.1-0.6-0.2-1-0.3 -1.3-0.2-2.7-0.4-4.1-0.4 -2.7 0-5.2 0.4-7.5 1.2 -0.3 0.1-0.5 0.2-0.8 0.4l0 0 0 0c-1.9 0.8-3.6 1.8-5.1 3 -0.3 0.3-0.6 0.6-0.9 0.9 -0.1 0.1-0.2 0.1-0.2 0.2l0 0.1c-0.5 0.6-1 1.2-1.5 1.8 -0.3 0.5-0.6 1-0.9 1.6 -0.1 0.2-0.2 0.3-0.3 0.5 -0.9 1.9-1.4 4-1.4 6.2l0 0v0 9.7l0 0 0 26.7c0 2.5-1.2 5.1-2.7 6.5 -1 0.9-2.8 1.7-2.8 1.7 -0.8 0.3-1.3 0.9-1.6 1.7 -0.3 0.8-0.3 1.7 0.1 2.6 0.3 0.8 0.9 1.5 1.7 1.9 0.8 0.4 1.6 0.5 2.5 0.3 0.8-0.1 1.5-0.5 2.2-0.9 1.5-0.8 2.5-1.5 3.7-2.5 0.3-0.3 0.6-0.6 0.9-0.9 0.1-0.1 0 0 0.1-0.2l0.1-0.1c0.5-0.6 1-1.1 1.5-1.8 0.4-0.5 1.2-1.9 1.3-2.1 0.9-1.9 1.4-4 1.4-6.2l0 0v0 -4.7 0l0-31.7c0-2.5 0.9-4.7 2.7-6.5l0 0c0.5-0.4 0.9-0.8 1.5-1.2 1.6-1 3.7-1.5 6.1-1.5 3.1 0 5.6 0.9 7.5 2.7 1.9 1.8 2.8 3.9 2.8 6.5v30.6c0 0.1 0 0.1 0 0.2l0 4.6v0c0 2.2 0.5 4.2 1.4 6.2 0.7 1.4 2.7 4 2.7 4 0.1 0.1 0.9 0.9 1.1 1.1 0.4 0.4 1 0.7 1.5 1.1 0.1 0.1 0.2 0.1 0.3 0.2 0.9 0.6 1.9 1.1 3 1.6 0.1 0.1 0.2 0.1 0.3 0.2 0 0 0.1 0.1 0.2 0.1 0.2 0.1 0.4 0.2 0.7 0.3 0.7 0.3 1.5 0.4 2.3 0.6 0.3 0.1 0.6 0.2 1 0.3 1.3 0.2 2.7 0.4 4.1 0.4 2.7 0 5.2-0.4 7.5-1.2 0.3-0.1 0.5-0.2 0.8-0.4l0 0c0 0 0 0 0 0 1.9-0.8 3.6-1.8 5.1-3 0.3-0.3 0.6-0.6 0.9-0.9 0.1-0.1 0.1-0.1 0.2-0.2l0.1-0.1c0.5-0.6 1-1.1 1.5-1.8 0.4-0.5 0.7-1 0.9-1.5 0.1-0.2 0.2-0.3 0.3-0.5 0.9-1.9 1.4-4 1.4-6.2l0 0v0 -25.6 0c0 0 0 0 0 0v-1.2c0-0.9-0.4-1.7-1.2-2.4 -0.8-0.6-1.8-1-2.9-1 -1.1 0-2 0.3-2.9 1 -0.8 0.6-1.2 1.4-1.2 2.4v1.2c0 0 0 0 0 0v25.6c0 2.5-0.9 4.7-2.7 6.5l0 0c-0.5 0.4-0.9 0.8-1.5 1.2 -1.6 1-3.7 1.5-6.1 1.5 -3.1 0-5.6-0.9-7.5-2.7 -1.9-1.8-2.8-4-2.8-6.5" class="e"/><path d="M578.7 298.3c0-0.4 0.1-0.7 0.3-1.1 0.2-0.3 0.4-0.6 0.7-0.9 0.3-0.3 0.7-0.5 1.1-0.6 0.4-0.1 0.9-0.2 1.3-0.2 0.5 0 0.9 0.1 1.3 0.2 0.4 0.1 0.8 0.3 1.1 0.6 0.3 0.3 0.6 0.5 0.7 0.9s0.3 0.7 0.3 1.1v1.2c0 0.2-0.1 0.3-0.2 0.4 -0.1 0.1-0.3 0.2-0.5 0.2h-4.7v0.5c0 0.2 0.1 0.4 0.2 0.6 0.1 0.2 0.3 0.4 0.4 0.5 0.2 0.1 0.4 0.3 0.6 0.3 0.2 0.1 0.5 0.1 0.8 0.1 0.4 0 0.8-0.1 1.1-0.3 0.3-0.2 0.6-0.4 0.7-0.7l0 0c0.1-0.1 0.1-0.2 0.3-0.3 0.1-0.1 0.3-0.1 0.4-0.1 0.2 0 0.4 0.1 0.5 0.2 0.1 0.1 0.2 0.3 0.2 0.4 0 0.1 0 0.2-0.1 0.3 -0.3 0.5-0.7 0.9-1.2 1.2 -0.6 0.3-1.2 0.5-1.9 0.5 -0.5 0-0.9-0.1-1.3-0.2 -0.4-0.1-0.8-0.3-1.1-0.6 -0.3-0.3-0.6-0.5-0.7-0.9 -0.2-0.3-0.3-0.7-0.3-1.1V298.3L578.7 298.3zM580.1 298.9h4v-0.6c0-0.2-0.1-0.4-0.2-0.6 -0.1-0.2-0.3-0.4-0.4-0.5 -0.2-0.1-0.4-0.3-0.6-0.3s-0.5-0.1-0.8-0.1c-0.3 0-0.5 0-0.8 0.1 -0.2 0.1-0.5 0.2-0.6 0.3 -0.2 0.1-0.3 0.3-0.4 0.5 -0.1 0.2-0.2 0.4-0.2 0.6L580.1 298.9 580.1 298.9z" class="i"/><path d="M586.5 296.1c0-0.2 0.1-0.3 0.2-0.4 0.1-0.1 0.3-0.2 0.5-0.2 0.2 0 0.4 0.1 0.5 0.2 0.1 0.1 0.2 0.3 0.2 0.4v4.5c0 0.4 0.2 0.8 0.5 1.1 0.3 0.3 0.8 0.5 1.3 0.5 0.6 0 1-0.2 1.3-0.5 0.3-0.3 0.5-0.7 0.5-1.1v-4.5c0-0.2 0.1-0.3 0.2-0.4 0.1-0.1 0.3-0.2 0.5-0.2 0.2 0 0.4 0.1 0.5 0.2 0.1 0.1 0.2 0.3 0.2 0.4v4.5c0 0.4 0.2 0.8 0.5 1.1 0.3 0.3 0.8 0.5 1.3 0.5 0.6 0 1-0.2 1.3-0.5 0.3-0.3 0.5-0.7 0.5-1.1v-4.5c0-0.2 0.1-0.3 0.2-0.4 0.1-0.1 0.3-0.2 0.5-0.2 0.2 0 0.4 0.1 0.5 0.2 0.1 0.1 0.2 0.3 0.2 0.4v4.5c0 0.4-0.1 0.7-0.2 1.1 -0.2 0.3-0.4 0.6-0.7 0.9 -0.3 0.3-0.6 0.5-1 0.6 -0.4 0.1-0.8 0.2-1.3 0.2 -0.5 0-1-0.1-1.4-0.3 -0.4-0.2-0.8-0.4-1.1-0.7 -0.3 0.3-0.7 0.5-1.1 0.7 -0.4 0.2-0.9 0.3-1.4 0.3 -0.5 0-0.9-0.1-1.3-0.2 -0.4-0.1-0.7-0.3-1-0.6 -0.3-0.3-0.5-0.5-0.7-0.9 -0.2-0.3-0.2-0.7-0.2-1.1L586.5 296.1 586.5 296.1z" class="i"/><path d="M602.5 293.6c0-0.2 0.1-0.3 0.2-0.4 0.1-0.1 0.3-0.2 0.5-0.2 0.2 0 0.4 0.1 0.5 0.2 0.1 0.1 0.2 0.3 0.2 0.4v0.4c0 0.2-0.1 0.3-0.2 0.4s-0.3 0.2-0.5 0.2c-0.2 0-0.4-0.1-0.5-0.2 -0.1-0.1-0.2-0.3-0.2-0.4L602.5 293.6 602.5 293.6zM602.5 296.1c0-0.2 0.1-0.3 0.2-0.4 0.1-0.1 0.3-0.2 0.5-0.2 0.2 0 0.4 0.1 0.5 0.2 0.1 0.1 0.2 0.3 0.2 0.4v6.7c0 0.2-0.1 0.3-0.2 0.4 -0.1 0.1-0.3 0.2-0.5 0.2 -0.2 0-0.4-0.1-0.5-0.2 -0.1-0.1-0.2-0.3-0.2-0.4L602.5 296.1 602.5 296.1z" class="i"/><path d="M604.7 298.3c0-0.4 0.1-0.7 0.2-1.1 0.2-0.3 0.4-0.6 0.7-0.9 0.3-0.3 0.6-0.5 1-0.6 0.4-0.1 0.8-0.2 1.3-0.2 0.5 0 1 0.1 1.5 0.3 0.4 0.2 0.8 0.4 1.1 0.7 0.3-0.3 0.7-0.5 1.1-0.7 0.4-0.2 0.9-0.3 1.5-0.3 0.5 0 0.9 0.1 1.3 0.2 0.4 0.1 0.7 0.3 1 0.6 0.3 0.3 0.5 0.5 0.7 0.9 0.2 0.3 0.2 0.7 0.2 1.1v4.5c0 0.2-0.1 0.3-0.2 0.4 -0.1 0.1-0.3 0.2-0.5 0.2 -0.2 0-0.4-0.1-0.5-0.2 -0.1-0.1-0.2-0.3-0.2-0.4v-4.5c0-0.4-0.2-0.8-0.5-1.1 -0.3-0.3-0.8-0.5-1.3-0.5 -0.6 0-1 0.2-1.3 0.5 -0.3 0.3-0.5 0.7-0.5 1.1v4.5c0 0.2-0.1 0.3-0.2 0.4 -0.1 0.1-0.3 0.2-0.5 0.2 -0.2 0-0.4-0.1-0.5-0.2 -0.1-0.1-0.2-0.3-0.2-0.4v-4.5c0-0.4-0.2-0.8-0.5-1.1 -0.3-0.3-0.8-0.5-1.3-0.5 -0.6 0-1 0.2-1.3 0.5 -0.3 0.3-0.5 0.7-0.5 1.1v4.5c0 0.2-0.1 0.3-0.2 0.4 -0.1 0.1-0.3 0.2-0.5 0.2 -0.2 0-0.4-0.1-0.5-0.2 -0.1-0.1-0.2-0.3-0.2-0.4V298.3L604.7 298.3z" class="i"/><path d="M617.2 298.2c0-0.4 0.1-0.7 0.3-1.1 0.2-0.3 0.4-0.6 0.7-0.9 0.3-0.3 0.7-0.5 1.1-0.6 0.4-0.1 0.9-0.2 1.3-0.2 0.5 0 0.9 0.1 1.3 0.2 0.4 0.1 0.8 0.3 1.1 0.6 0.3 0.3 0.6 0.5 0.7 0.9 0.2 0.3 0.3 0.7 0.3 1.1v2.3c0 0.4-0.1 0.7-0.3 1.1 -0.2 0.3-0.4 0.6-0.7 0.9s-0.7 0.5-1.1 0.6c-0.4 0.1-0.9 0.2-1.3 0.2 -0.4 0-0.7 0-1.1-0.1 -0.3-0.1-0.7-0.2-0.9-0.4v2.6c0 0.2-0.1 0.3-0.2 0.4 -0.1 0.1-0.3 0.2-0.5 0.2 -0.2 0-0.4-0.1-0.5-0.2 -0.1-0.1-0.2-0.3-0.2-0.4v-4.7L617.2 298.2 617.2 298.2zM618.7 300.6c0 0.2 0.1 0.4 0.2 0.6 0.1 0.2 0.2 0.4 0.4 0.5 0.2 0.1 0.4 0.3 0.6 0.3 0.2 0.1 0.5 0.1 0.8 0.1 0.3 0 0.5 0 0.8-0.1 0.2-0.1 0.5-0.2 0.6-0.3 0.2-0.1 0.3-0.3 0.4-0.5 0.1-0.2 0.2-0.4 0.2-0.6v-2.3c0-0.2-0.1-0.4-0.2-0.6 -0.1-0.2-0.3-0.4-0.4-0.5 -0.2-0.1-0.4-0.3-0.6-0.3 -0.2-0.1-0.5-0.1-0.8-0.1 -0.3 0-0.5 0-0.8 0.1 -0.2 0.1-0.5 0.2-0.6 0.3 -0.2 0.2-0.3 0.3-0.4 0.5 -0.1 0.2-0.2 0.4-0.2 0.6L618.7 300.6 618.7 300.6z" class="i"/><path d="M625 296.1c0-0.2 0.1-0.3 0.2-0.4 0.1-0.1 0.3-0.2 0.5-0.2 0.2 0 0.4 0.1 0.5 0.2 0.1 0.1 0.2 0.3 0.2 0.4v4.5c0 0.2 0 0.4 0.2 0.6 0.1 0.2 0.2 0.4 0.4 0.5 0.2 0.1 0.4 0.3 0.6 0.3 0.2 0.1 0.5 0.1 0.8 0.1 0.3 0 0.5 0 0.8-0.1 0.2-0.1 0.5-0.2 0.6-0.3 0.2-0.1 0.3-0.3 0.4-0.5 0.1-0.2 0.2-0.4 0.2-0.6v-4.5c0-0.2 0.1-0.3 0.2-0.4 0.1-0.1 0.3-0.2 0.5-0.2 0.2 0 0.4 0.1 0.5 0.2 0.1 0.1 0.2 0.3 0.2 0.4v4.5c0 0.4-0.1 0.7-0.3 1.1 -0.2 0.3-0.4 0.6-0.7 0.9 -0.3 0.3-0.7 0.5-1.1 0.6 -0.4 0.1-0.9 0.2-1.3 0.2 -0.5 0-0.9-0.1-1.3-0.2 -0.4-0.1-0.8-0.3-1.1-0.6 -0.3-0.3-0.6-0.5-0.7-0.9 -0.2-0.3-0.3-0.7-0.3-1.1v-4.5H625z" class="i"/><path d="M632.7 293.8c0-0.2 0.1-0.3 0.2-0.4 0.1-0.1 0.3-0.2 0.5-0.2 0.2 0 0.4 0.1 0.5 0.2 0.1 0.1 0.2 0.3 0.2 0.4v9c0 0.2-0.1 0.3-0.2 0.4 -0.1 0.1-0.3 0.2-0.5 0.2 -0.2 0-0.4-0.1-0.5-0.2 -0.1-0.1-0.2-0.3-0.2-0.4V293.8z" class="i"/><path d="M635.2 297.6c0-0.3 0.1-0.6 0.2-0.9 0.2-0.3 0.4-0.5 0.7-0.7 0.3-0.2 0.6-0.3 1-0.4 0.4-0.1 0.8-0.2 1.3-0.2 0.4 0 0.8 0.1 1.1 0.1 0.3 0.1 0.6 0.2 0.9 0.3 0.3 0.2 0.6 0.4 0.8 0.7 0.1 0.1 0.1 0.3 0.1 0.4 0 0.2-0.1 0.3-0.2 0.4s-0.3 0.2-0.5 0.2c-0.2 0-0.4-0.1-0.6-0.2 -0.2-0.2-0.5-0.4-0.7-0.5 -0.2-0.1-0.6-0.2-1-0.2 -0.5 0-1 0.1-1.3 0.3 -0.3 0.2-0.5 0.4-0.5 0.7 0 0.4 0.2 0.6 0.5 0.8s0.8 0.3 1.3 0.3c0.5 0 0.9 0 1.3 0.1 0.4 0.1 0.8 0.2 1.1 0.4 0.3 0.2 0.6 0.4 0.7 0.7 0.2 0.3 0.3 0.6 0.3 1 0 0.4-0.1 0.7-0.3 1 -0.2 0.3-0.4 0.5-0.8 0.7 -0.3 0.2-0.7 0.3-1.1 0.4 -0.4 0.1-0.9 0.1-1.3 0.1 -0.1 0-0.3 0-0.6 0 -0.3 0-0.6-0.1-0.9-0.2 -0.3-0.1-0.7-0.3-1-0.5 -0.3-0.2-0.6-0.6-0.8-1 0-0.1-0.1-0.1-0.1-0.2 0-0.2 0.1-0.3 0.2-0.4 0.1-0.1 0.3-0.2 0.5-0.2 0.2 0 0.3 0 0.4 0.1 0.1 0.1 0.2 0.2 0.3 0.3 0.2 0.3 0.4 0.6 0.8 0.7 0.4 0.2 0.8 0.3 1.2 0.3 0.3 0 0.5 0 0.8-0.1 0.2 0 0.5-0.1 0.6-0.2 0.2-0.1 0.3-0.2 0.4-0.4 0.1-0.1 0.2-0.3 0.2-0.5 0-0.4-0.2-0.7-0.6-0.9s-0.9-0.2-1.4-0.2c-0.5 0-0.9 0-1.3-0.1 -0.4-0.1-0.7-0.2-1-0.4 -0.3-0.2-0.5-0.4-0.7-0.7C635.3 298.4 635.2 298 635.2 297.6z" class="i"/><path d="M642.8 298.2c0-0.4 0.1-0.7 0.3-1.1 0.2-0.3 0.4-0.6 0.7-0.9 0.3-0.3 0.7-0.5 1.1-0.6 0.4-0.1 0.9-0.2 1.3-0.2 0.5 0 0.9 0.1 1.3 0.2s0.8 0.3 1.1 0.6c0.3 0.3 0.6 0.5 0.7 0.9 0.2 0.3 0.3 0.7 0.3 1.1v1.2c0 0.2-0.1 0.3-0.2 0.4s-0.3 0.2-0.5 0.2h-4.7v0.5c0 0.2 0.1 0.4 0.2 0.6 0.1 0.2 0.3 0.4 0.4 0.5 0.2 0.1 0.4 0.3 0.6 0.3s0.5 0.1 0.8 0.1c0.4 0 0.8-0.1 1.1-0.3 0.3-0.2 0.6-0.4 0.7-0.7l0 0c0.1-0.1 0.1-0.2 0.3-0.3 0.1-0.1 0.3-0.1 0.4-0.1 0.2 0 0.4 0.1 0.5 0.2 0.1 0.1 0.2 0.3 0.2 0.4 0 0.1 0 0.2-0.1 0.3 -0.3 0.5-0.7 0.9-1.2 1.2 -0.6 0.3-1.2 0.5-1.9 0.5 -0.5 0-0.9-0.1-1.3-0.2 -0.4-0.1-0.8-0.3-1.1-0.6 -0.3-0.3-0.6-0.5-0.7-0.9 -0.2-0.3-0.3-0.7-0.3-1.1V298.2L642.8 298.2zM644.2 298.9h4v-0.6c0-0.2-0.1-0.4-0.2-0.6 -0.1-0.2-0.3-0.4-0.4-0.5s-0.4-0.3-0.6-0.3c-0.2-0.1-0.5-0.1-0.8-0.1 -0.3 0-0.5 0-0.8 0.1 -0.2 0.1-0.5 0.2-0.6 0.3 -0.2 0.1-0.3 0.3-0.4 0.5 -0.1 0.2-0.2 0.4-0.2 0.6L644.2 298.9 644.2 298.9z" class="i"/><path d="M650.6 298.3c0-0.4 0.1-0.7 0.2-1.1 0.2-0.3 0.4-0.6 0.7-0.9 0.3-0.3 0.6-0.5 1-0.6 0.4-0.1 0.8-0.2 1.3-0.2 0.5 0 1 0.1 1.4 0.3 0.4 0.2 0.8 0.4 1.1 0.7 0.3-0.3 0.7-0.5 1.1-0.7 0.4-0.2 0.9-0.3 1.4-0.3 0.5 0 0.9 0.1 1.3 0.2 0.4 0.1 0.7 0.3 1 0.6 0.3 0.3 0.5 0.5 0.7 0.9 0.2 0.3 0.2 0.7 0.2 1.1v4.5c0 0.2-0.1 0.3-0.2 0.4 -0.1 0.1-0.3 0.2-0.5 0.2 -0.2 0-0.4-0.1-0.5-0.2 -0.1-0.1-0.2-0.3-0.2-0.4v-4.5c0-0.4-0.2-0.8-0.5-1.1 -0.3-0.3-0.8-0.5-1.3-0.5 -0.6 0-1 0.2-1.3 0.5 -0.3 0.3-0.5 0.7-0.5 1.1v4.5c0 0.2-0.1 0.3-0.2 0.4 -0.1 0.1-0.3 0.2-0.5 0.2 -0.2 0-0.4-0.1-0.5-0.2 -0.1-0.1-0.2-0.3-0.2-0.4v-4.5c0-0.4-0.2-0.8-0.5-1.1 -0.3-0.3-0.8-0.5-1.3-0.5 -0.6 0-1 0.2-1.3 0.5 -0.3 0.3-0.5 0.7-0.5 1.1v4.5c0 0.2-0.1 0.3-0.2 0.4 -0.1 0.1-0.3 0.2-0.5 0.2 -0.2 0-0.4-0.1-0.5-0.2 -0.1-0.1-0.2-0.3-0.2-0.4v-4.5H650.6z" class="j"/><path d="M663 298.3c0-0.4 0.1-0.7 0.3-1.1 0.2-0.3 0.4-0.6 0.7-0.9 0.3-0.3 0.7-0.5 1.1-0.6 0.4-0.1 0.9-0.2 1.3-0.2 0.5 0 0.9 0.1 1.3 0.2 0.4 0.1 0.8 0.3 1.1 0.6 0.3 0.3 0.6 0.5 0.7 0.9s0.3 0.7 0.3 1.1v1.2c0 0.2-0.1 0.3-0.2 0.4 -0.1 0.1-0.3 0.2-0.5 0.2h-4.7v0.5c0 0.2 0.1 0.4 0.2 0.6 0.1 0.2 0.3 0.4 0.4 0.5 0.2 0.1 0.4 0.3 0.6 0.3 0.2 0.1 0.5 0.1 0.8 0.1 0.4 0 0.8-0.1 1.1-0.3 0.3-0.2 0.6-0.4 0.7-0.7l0 0c0.1-0.1 0.1-0.2 0.3-0.3 0.1-0.1 0.3-0.1 0.4-0.1 0.2 0 0.4 0.1 0.5 0.2 0.1 0.1 0.2 0.3 0.2 0.4 0 0.1 0 0.2-0.1 0.3 -0.3 0.5-0.7 0.9-1.2 1.2 -0.6 0.3-1.2 0.5-1.9 0.5 -0.5 0-0.9-0.1-1.3-0.2 -0.4-0.1-0.8-0.3-1.1-0.6 -0.3-0.3-0.6-0.5-0.7-0.9 -0.2-0.3-0.3-0.7-0.3-1.1v-2.3H663zM664.4 298.9h4v-0.6c0-0.2-0.1-0.4-0.2-0.6 -0.1-0.2-0.3-0.4-0.4-0.5 -0.2-0.1-0.4-0.3-0.6-0.3 -0.2-0.1-0.5-0.1-0.8-0.1 -0.3 0-0.5 0-0.8 0.1 -0.2 0.1-0.5 0.2-0.6 0.3 -0.2 0.1-0.3 0.3-0.4 0.5 -0.1 0.2-0.2 0.4-0.2 0.6L664.4 298.9 664.4 298.9z" class="j"/><path d="M676.2 293.8c0-0.2 0.1-0.3 0.2-0.4 0.1-0.1 0.3-0.2 0.5-0.2 0.2 0 0.4 0.1 0.5 0.2 0.1 0.1 0.2 0.3 0.2 0.4v6.8c0 0.4-0.1 0.7-0.3 1.1 -0.2 0.3-0.4 0.6-0.7 0.9 -0.3 0.3-0.7 0.5-1.1 0.6 -0.4 0.1-0.9 0.2-1.3 0.2 -0.5 0-0.9-0.1-1.3-0.2 -0.4-0.1-0.8-0.3-1.1-0.6 -0.3-0.3-0.6-0.5-0.7-0.9 -0.2-0.3-0.3-0.7-0.3-1.1v-2.3c0-0.4 0.1-0.7 0.3-1.1 0.2-0.3 0.4-0.6 0.7-0.9 0.3-0.3 0.7-0.5 1.1-0.6 0.4-0.1 0.9-0.2 1.3-0.2 0.4 0 0.7 0 1.1 0.1 0.3 0.1 0.7 0.2 0.9 0.4L676.2 293.8 676.2 293.8zM672.2 300.6c0 0.2 0 0.4 0.2 0.6 0.1 0.2 0.2 0.4 0.4 0.5 0.2 0.1 0.4 0.3 0.6 0.3 0.2 0.1 0.5 0.1 0.8 0.1 0.3 0 0.5 0 0.8-0.1 0.2-0.1 0.5-0.2 0.6-0.3 0.2-0.1 0.3-0.3 0.4-0.5 0.1-0.2 0.2-0.4 0.2-0.6v-2.3c0-0.2-0.1-0.4-0.2-0.6 -0.1-0.2-0.2-0.4-0.4-0.5 -0.2-0.1-0.4-0.3-0.6-0.3 -0.2-0.1-0.5-0.1-0.8-0.1 -0.3 0-0.5 0-0.8 0.1 -0.2 0.1-0.5 0.2-0.6 0.3 -0.2 0.1-0.3 0.3-0.4 0.5 -0.1 0.2-0.2 0.4-0.2 0.6V300.6z" class="j"/><path d="M678.5 293.6c0-0.2 0.1-0.3 0.2-0.4 0.1-0.1 0.3-0.2 0.5-0.2 0.2 0 0.4 0.1 0.5 0.2 0.1 0.1 0.2 0.3 0.2 0.4v0.4c0 0.2-0.1 0.3-0.2 0.4 -0.1 0.1-0.3 0.2-0.5 0.2 -0.2 0-0.4-0.1-0.5-0.2 -0.1-0.1-0.2-0.3-0.2-0.4V293.6zM678.5 296.1c0-0.2 0.1-0.3 0.2-0.4s0.3-0.2 0.5-0.2c0.2 0 0.4 0.1 0.5 0.2 0.1 0.1 0.2 0.3 0.2 0.4v6.7c0 0.2-0.1 0.3-0.2 0.4 -0.1 0.1-0.3 0.2-0.5 0.2 -0.2 0-0.4-0.1-0.5-0.2 -0.1-0.1-0.2-0.3-0.2-0.4V296.1z" class="j"/><path d="M680.8 298.3c0-0.4 0.1-0.7 0.3-1.1 0.2-0.3 0.4-0.6 0.7-0.9 0.3-0.3 0.7-0.4 1.1-0.6 0.4-0.1 0.9-0.2 1.3-0.2 0.5 0 0.9 0.1 1.3 0.2 0.4 0.1 0.8 0.3 1.1 0.6 0.3 0.3 0.6 0.6 0.7 0.9s0.3 0.7 0.3 1.1v4.4c0 0.2-0.1 0.3-0.2 0.4 -0.1 0.1-0.3 0.2-0.5 0.2 -0.2 0-0.3 0-0.5-0.1 -0.1-0.1-0.2-0.2-0.2-0.3 -0.6 0.4-1.3 0.5-2 0.5 -0.5 0-0.9-0.1-1.3-0.2 -0.4-0.1-0.8-0.3-1.1-0.6 -0.3-0.3-0.6-0.6-0.7-0.9 -0.2-0.3-0.3-0.7-0.3-1.1L680.8 298.3 680.8 298.3zM682.3 300.6c0 0.2 0.1 0.4 0.2 0.6 0.1 0.2 0.3 0.4 0.4 0.5 0.2 0.1 0.4 0.3 0.6 0.3 0.2 0.1 0.5 0.1 0.8 0.1 0.3 0 0.5 0 0.8-0.1 0.2-0.1 0.5-0.2 0.6-0.3 0.2-0.1 0.3-0.3 0.4-0.5 0.1-0.2 0.2-0.4 0.2-0.6v-2.4c0-0.2-0.1-0.4-0.2-0.6 -0.1-0.2-0.2-0.4-0.4-0.5 -0.2-0.1-0.4-0.3-0.6-0.3 -0.2-0.1-0.5-0.1-0.8-0.1 -0.3 0-0.5 0-0.8 0.1 -0.2 0.1-0.5 0.2-0.6 0.3 -0.2 0.1-0.3 0.3-0.4 0.5 -0.1 0.2-0.2 0.4-0.2 0.6L682.3 300.6 682.3 300.6z" class="j"/><path d="M599.5 299.8c-0.2 0-0.3-0.1-0.4-0.2 -0.1-0.1-0.2-0.3-0.2-0.5 0-0.2 0.1-0.4 0.2-0.5s0.3-0.2 0.4-0.2h1.5c0.2 0 0.3 0.1 0.4 0.2 0.1 0.1 0.2 0.3 0.2 0.5 0 0.2-0.1 0.4-0.2 0.5 -0.1 0.1-0.3 0.2-0.4 0.2H599.5z" class="i"/><path d="M577.8 296.3v-0.2c0-0.2-0.1-0.3-0.2-0.4 -0.1-0.1-0.3-0.2-0.5-0.2 -0.2 0-0.4 0.1-0.5 0.2 -0.1 0.1-0.2 0.2-0.2 0.4v0.2c0 0 0 0 0 0v4.4c0 0.4-0.2 0.8-0.5 1.1v0c-0.1 0.1-0.2 0.1-0.3 0.2 -0.3 0.2-0.6 0.3-1 0.3 -0.5 0-1-0.2-1.3-0.5 -0.3-0.3-0.5-0.7-0.5-1.1v-4.4c0 0 0 0 0 0v-1.6 0c0-0.4-0.1-0.7-0.2-1.1 -0.1-0.2-0.3-0.4-0.5-0.6l0 0c0 0-0.1 0-0.1-0.1 0 0-0.1-0.1-0.1-0.1 -0.1-0.1-0.2-0.1-0.3-0.2 0 0 0 0 0 0 -0.2-0.1-0.3-0.2-0.5-0.3 0 0 0 0-0.1 0 0 0 0 0 0 0 0 0-0.1 0-0.1-0.1 -0.1 0-0.3-0.1-0.4-0.1 -0.1 0-0.1 0-0.2 0 -0.2 0-0.5-0.1-0.7-0.1 -0.5 0-0.9 0.1-1.3 0.2 0 0-0.1 0-0.1 0.1l0 0 0 0c-0.3 0.1-0.6 0.3-0.9 0.5 -0.1 0-0.1 0.1-0.1 0.2 0 0 0 0 0 0l0 0c-0.1 0.1-0.2 0.2-0.3 0.3 -0.1 0.1-0.1 0.2-0.2 0.3 0 0 0 0.1-0.1 0.1 -0.2 0.3-0.2 0.7-0.2 1.1l0 0v0 1.7l0 0 0 4.6c0 0.4-0.2 0.9-0.5 1.1 -0.2 0.2-0.5 0.3-0.5 0.3 -0.1 0.1-0.2 0.1-0.3 0.3 0 0.1 0 0.3 0 0.4 0.1 0.1 0.2 0.3 0.3 0.3 0.1 0.1 0.3 0.1 0.4 0.1 0.1 0 0.3-0.1 0.4-0.2 0.3-0.1 0.4-0.3 0.6-0.4 0.1 0 0.1-0.1 0.1-0.2 0 0 0 0 0 0l0 0c0.1-0.1 0.2-0.2 0.3-0.3 0.1-0.1 0.2-0.3 0.2-0.4 0.2-0.3 0.2-0.7 0.2-1.1l0 0v0 -0.8l0 0 0-5.5c0-0.4 0.2-0.8 0.5-1.1v0c0.1-0.1 0.2-0.1 0.3-0.2 0.3-0.2 0.6-0.3 1-0.3 0.5 0 1 0.2 1.3 0.5 0.3 0.3 0.5 0.7 0.5 1.1v5.3c0 0 0 0 0 0v0.8 0c0 0.4 0.1 0.7 0.2 1.1 0.1 0.2 0.5 0.7 0.5 0.7 0 0 0.2 0.2 0.2 0.2 0.1 0.1 0.2 0.1 0.3 0.2 0 0 0 0 0.1 0 0.2 0.1 0.3 0.2 0.5 0.3 0 0 0 0 0.1 0 0 0 0 0 0 0 0 0 0.1 0 0.1 0.1 0.1 0 0.3 0.1 0.4 0.1 0.1 0 0.1 0 0.2 0 0.2 0 0.5 0.1 0.7 0.1 0.5 0 0.9-0.1 1.3-0.2 0 0 0.1 0 0.1-0.1l0 0c0 0 0 0 0 0 0.3-0.1 0.6-0.3 0.9-0.5 0.1 0 0.1-0.1 0.1-0.2 0 0 0 0 0 0l0 0c0.1-0.1 0.2-0.2 0.3-0.3 0.1-0.1 0.1-0.2 0.2-0.3 0 0 0-0.1 0.1-0.1 0.2-0.3 0.2-0.7 0.2-1.1l0 0v0 -4.4L577.8 296.3C577.8 296.3 577.8 296.3 577.8 296.3z" class="i"/></svg>