<?xml version="1.0" encoding="utf-8"?>
<!-- Generator: Adobe Illustrator 16.0.0, SVG Export Plug-In . SVG Version: 6.00 Build 0)  -->
<!DOCTYPE svg PUBLIC "-//W3C//DTD SVG 1.1//EN" "http://www.w3.org/Graphics/SVG/1.1/DTD/svg11.dtd">
<svg version="1.1" id="Layer_1" xmlns="http://www.w3.org/2000/svg" xmlns:xlink="http://www.w3.org/1999/xlink" x="0px" y="0px"
	 width="280px" height="400px" viewBox="0 0 280 400" enable-background="new 0 0 280 400" xml:space="preserve">
<g>
	<path opacity="0.5" fill="#DDE5CE" d="M87.926,93.213c-0.105-0.979-0.206-1.996-0.701-2.86c-0.145-0.251-0.267-0.449-0.369-0.612
		c0.187-0.408,0.266-0.799,0.197-1.033c-1.586-5.109-4.446-13.296-6.392-18.28c-0.382-0.976-1.718-1.992-2.78-2.218
		c-2.547-0.546-5.188-0.821-7.789-0.859c-1.322-0.018-2.472-0.138-3.487-0.386c-0.167-0.492-0.841-2.455-1.874-5.208
		c1.139,2.581,3.49,4.547,6.212,4.547c3.206,0,5.913-2.729,6.708-5.989c1.291,1.512,1.775,3.588,1.557,5.536
		c3.642-0.1,4.359-6.016-1.323-7.26c0.002-0.072,0.003-0.144,0.003-0.216c0-4.031-3.109-7.304-6.945-7.304
		c-3.835,0-6.945,3.273-6.945,7.304c0,0.065,0.001,0.132,0.002,0.198c-0.156,0.033-0.302,0.073-0.449,0.113
		c-3.318-8.45-8.741-20.64-13.435-23.65c-5.414-3.471-18.322-3.626-23.036,0c-6.838,5.261-16.049,31.189-16.049,31.189
		s-0.928,8.28,7.184,2.83l8.342-19.172c0,0,2.316-1.525,2.085,1.09v57.517c0,0,3.013,6.538,8.344,0.439V76.246
		c0,0,2.549-4.138,3.938,0.219v31.592c0,0,3.246,6.971,7.646,0.433V51.191c0,0,0.927-3.268,3.015-0.435l1.361,3.107
		c-0.003,0.032-0.014,0.062-0.017,0.095c0.074,0.219,0.114,0.45,0.123,0.683c0.024,0.066,0.043,0.135,0.062,0.203
		c0.174,0.204,0.304,0.441,0.391,0.696c0.111,0.113,0.222,0.227,0.321,0.351c0.013,0.015,0.021,0.039,0.032,0.055l0.765,1.747
		c1.408,3.61,2.751,7.292,4.645,10.604l0.429,0.979c0,0,0.109,0.083,0.297,0.21c0.081,0.128,0.155,0.261,0.238,0.389
		c2.89,4.413,3.819,8.015,2.914,12.85c-0.773,4.101-2.047,8.929-2.898,13.218c1.375,0.141,2.5,0.257,4.335,0.453
		c0,3.25,0.071,6.547-0.023,9.835c-0.039,1.236,0.248,2.023,0.944,2.451c0.138,1.368,0.913,2.416,1.848,2.416
		c0.947,0,1.73-1.075,1.852-2.47c0.575-0.425,0.828-1.169,0.833-2.311c0.008-3.351,0.258-6.709,0.406-10.062
		c0.32-0.063,1.312-0.008,1.648-0.031c0.156,0.649,0.101,1.07,0.14,1.711c0.173,2.82,0.266,5.648,0.274,8.476
		c0.004,1.117,0.274,1.883,0.913,2.302c0.146,1.354,0.917,2.385,1.845,2.385c0.937,0,1.713-1.051,1.849-2.421
		c0.615-0.364,0.966-1.027,0.933-2.211c-0.087-3.297-0.023-6.593-0.023-10.023c1.647-0.195,2.858-0.343,4.249-0.507
		c-0.938-4.797-2.148-9.672-3.054-14.335l2.843,5.281c0.437,0.766,1.354,3.09,2.342,4.047c0.078,0.231,0.202,0.455,0.363,0.68
		c0.321,0.453,0.584,0.941,0.88,1.408c0.078,0.124,0.188,0.224,0.274,0.34c0.1,0.132,0.256,0.253,0.285,0.403
		c0.143,0.754,0.401,1.438,1.008,1.934c0.081,0.069,0.234,0.118,0.322,0.093c0.088-0.025,0.184-0.159,0.198-0.261
		c0.029-0.202-0.003-0.399-0.005-0.604c0-0.219-0.001-0.43,0.029-0.639C87.806,93.925,87.956,93.56,87.926,93.213z M64.217,60.236
		c0.045,0.193,0.098,0.384,0.157,0.572c-0.064-0.169-0.131-0.342-0.197-0.516C64.191,60.275,64.201,60.254,64.217,60.236z"/>
	<path opacity="0.5" fill="#DDE5CE" d="M37.947,31.124c5.161,0,9.562-4.618,9.562-9.779S43.325,12,38.165,12
		s-9.345,4.184-9.345,9.345S32.787,31.124,37.947,31.124z"/>
</g>
<rect x="98" y="56" fill="none" width="168" height="41"/>
<text transform="matrix(1 0 0 1 98 73.0625)" fill="#E4606F" stroke="#E4606F" stroke-miterlimit="10" font-family="'Dekko'" font-size="24">Grown-Ups Only</text>
</svg>
