<?xml version="1.0" encoding="utf-8"?>
<!-- Generator: Adobe Illustrator 16.0.0, SVG Export Plug-In . SVG Version: 6.00 Build 0)  -->
<!DOCTYPE svg PUBLIC "-//W3C//DTD SVG 1.1//EN" "http://www.w3.org/Graphics/SVG/1.1/DTD/svg11.dtd">
<svg version="1.1" id="Layer_1" xmlns="http://www.w3.org/2000/svg" xmlns:xlink="http://www.w3.org/1999/xlink" x="0px" y="0px"
	 width="280px" height="400px" viewBox="0 0 280 400" enable-background="new 0 0 280 400" xml:space="preserve">
<g opacity="0.5">
	<path opacity="0.5" fill="#DDE5CE" d="M95.402,98.491c-0.111-1.042-0.219-2.125-0.747-3.046c-0.154-0.268-0.284-0.478-0.393-0.652
		c0.199-0.434,0.283-0.852,0.21-1.101c-1.689-5.441-4.734-14.16-6.807-19.468c-0.407-1.04-1.83-2.121-2.961-2.362
		c-2.712-0.582-5.524-0.874-8.295-0.916c-1.408-0.019-2.633-0.147-3.714-0.411c-0.178-0.524-0.895-2.614-1.995-5.546
		c1.213,2.749,3.717,4.842,6.616,4.842c3.415,0,6.297-2.907,7.144-6.378c1.375,1.61,1.891,3.822,1.658,5.896
		c3.879-0.106,4.643-6.407-1.409-7.732c0.002-0.077,0.003-0.153,0.003-0.229c0-4.293-3.311-7.779-7.396-7.779
		c-4.085,0-7.396,3.486-7.396,7.779c0,0.07,0.001,0.14,0.002,0.211c-0.167,0.035-0.322,0.078-0.478,0.121
		c-3.534-9-9.309-21.981-14.308-25.187c-5.766-3.697-19.513-3.862-24.533,0C23.32,42.136,13.511,69.75,13.511,69.75
		s-0.988,8.818,7.651,3.014l8.884-20.418c0,0,2.467-1.624,2.221,1.161v61.255c0,0,3.208,6.963,8.886,0.468V80.422
		c0,0,2.715-4.407,4.194,0.233V114.3c0,0,3.457,7.424,8.144,0.461V53.738c0,0,0.987-3.48,3.211-0.463l1.449,3.309
		c-0.003,0.034-0.015,0.067-0.018,0.101c0.079,0.233,0.121,0.479,0.13,0.728c0.026,0.071,0.046,0.144,0.066,0.216
		c0.185,0.217,0.324,0.47,0.417,0.741c0.118,0.121,0.237,0.242,0.342,0.374c0.013,0.016,0.021,0.041,0.034,0.059l0.815,1.861
		c1.499,3.845,2.93,7.765,4.946,11.292l0.457,1.043c0,0,0.116,0.089,0.316,0.224c0.086,0.136,0.165,0.278,0.253,0.414
		c3.078,4.7,4.068,8.536,3.103,13.686c-0.824,4.368-2.18,9.509-3.086,14.077c1.464,0.15,2.663,0.274,4.617,0.482
		c0,3.461,0.075,6.972-0.025,10.475c-0.041,1.316,0.264,2.154,1.005,2.61c0.146,1.457,0.972,2.573,1.968,2.573
		c1.008,0,1.842-1.146,1.972-2.631c0.612-0.453,0.882-1.245,0.887-2.461c0.009-3.569,0.275-7.146,0.433-10.715
		c0.341-0.067,1.398-0.008,1.756-0.033c0.167,0.691,0.107,1.14,0.149,1.822c0.184,3.003,0.283,6.015,0.292,9.027
		c0.005,1.189,0.292,2.005,0.972,2.451c0.155,1.441,0.976,2.541,1.964,2.541c0.998,0,1.824-1.119,1.969-2.579
		c0.655-0.388,1.029-1.094,0.993-2.354c-0.092-3.511-0.024-7.022-0.024-10.674c1.754-0.208,3.044-0.366,4.525-0.54
		c-0.999-5.109-2.288-10.301-3.253-15.267l3.028,5.624c0.465,0.816,1.442,3.292,2.494,4.311c0.083,0.246,0.215,0.484,0.387,0.724
		c0.341,0.482,0.622,1.002,0.938,1.5c0.083,0.131,0.2,0.239,0.292,0.362c0.107,0.141,0.273,0.27,0.304,0.43
		c0.152,0.803,0.427,1.531,1.074,2.06c0.086,0.073,0.25,0.125,0.343,0.1c0.094-0.027,0.196-0.17,0.211-0.278
		c0.031-0.215-0.003-0.425-0.005-0.643c0-0.233-0.001-0.458,0.031-0.681C95.274,99.25,95.435,98.86,95.402,98.491z M70.152,63.372
		c0.048,0.206,0.104,0.409,0.167,0.609c-0.068-0.18-0.139-0.364-0.21-0.549C70.125,63.413,70.136,63.39,70.152,63.372z"/>
	<path opacity="0.5" fill="#DDE5CE" d="M42.175,32.367c5.496,0,10.184-4.918,10.184-10.415S47.903,12,42.407,12
		s-9.952,4.456-9.952,9.952S36.679,32.367,42.175,32.367z"/>
</g>
<rect x="98" y="56" fill="none" width="168" height="41"/>
<text transform="matrix(1 0 0 1 98 73.0625)" fill="#E4606F" stroke="#E4606F" stroke-miterlimit="10" font-family="'Dekko'" font-size="24">Grown-Ups Only</text>
</svg>
