
<svg version="1.1" xmlns="http://www.w3.org/2000/svg" xmlns:xlink="http://www.w3.org/1999/xlink" viewBox="0 0 768 432" enable-background="new 0 0 768 432" xml:space="preserve">

<refs><style>

	
      
	#pinkcircle {
	-webkit-transform-origin: 50% 50%;
	-webkit-animation: spin 0.5s 1 linear;
	}
	
	#lefthand, #righthand {
	opacity: 0;
	-webkit-animation: fadein 0.5s 0.5s forwards;
	}
	
@-webkit-keyframes spin {
0% { -webkit-transform: rotate(0deg);}
100% { -webkit-transform: rotate(360deg);}
}
	
	@-webkit-keyframes fadein {0% { opacity: 0;}100% { opacity: 1}}	
	


</style></refs>	

<g id="lefthand">
	<g id="Layer_13_copy">
		<path fill="#409D8B" d="M382.999,208.312c-80.812-32.24-102.578-31.257-113-37.922c-2.361-1.503-2.822-12.213-8.244-15.522
			c-3.445-2.109-7.469-6.117-9.113-7.252c-2.018-1.381-1.963-1.105-4.057-2.368c-1.858-1.125-2.923-1.883-5.431-3.511
			c-1.463-0.946-3.06-2.23-4.691-3.401c-1.161-0.834-1.921-1.635-2.851-2.75c-1.366-1.648-2.839-4.362-4.326-3.376
			c-1.655,1.101-1.316,4.121-0.524,5.906c0.932,2.222,1.254,4.173,4.923,6.913c1.638,1.701,3.486,3.25,5.177,4.705
			c0.052,0.047,2.984,2.184,1.598,4.33c-0.778,1.203-5.026,1.749-7.765,1.93c-2.957,0.185-5.31,0.066-7.751,0.066
			c-3.535-0.171-6.775-0.662-10.742-0.68c-3.355-0.34-6.225,0.431-8.203,0.365c-5.515-0.179-10.522-0.698-10.86,3.045
			c-0.076,0.799-0.801,3.53,10.772,3.39c2.008,0.387,4.736,0.5,7.846,0.956c3.232,0.746,6.239,0.312,8.998,1.519
			c1.074,0.464,1.971,2.156,1.336,3.141c-0.478,0.734-7.861,1.956-11.521,3.728c-2.578,1.25-2.174,0.754-5.229,1.977
			c-0.746,0.302-2.801,1.28-3.893,1.744c-4.191,1.812-10.372,2.609-9.128,6.831c1.362,4.642,7.816,0.316,11.443-0.798
			c3.743-1.119,7.066-1.57,9.723-2.648c2.393-0.88,4.527-1.237,10.473-3.301c-0.052,0.351,0.771,0.042-0.496,2.578
			c0,0-3.305,1.437-7.089,3.533c-2.424,1.548-5.668,3.399-8.092,5.002c-5.138,2.877-10.911,3.395-9.479,7.287
			c1.619,4.411,8.171-0.237,11.697-1.556c5.562-2.1,5.677-2.375,8.614-3.823c2.774-1.367,6.177-3.651,9.799-4.765
			c0.486,0.684,0.576,1.828,0.178,2.595c-0.771,1.184-2.94,3.604-3.673,4.423c-1.097,1.236-2.849,3.139-4.33,4.853
			c-1.263,1.456-8.884,5.906-6.021,9.088c1.979,2.191,7.055-2.042,9.96-4.792c1.988-1.879,4.118-3.243,5.811-5.194
			c1.622-1.333,3.475-3.214,5.891-4.792c1.469-0.959,3.617-1.956,5.026-2.412c3.984-0.714,8.08-0.481,12.474-1.612
			c0.908-0.168,4.668-2.115,5.609-1.997c1.65-0.042,33.488,15.262,53.594,21.926c9.398,3.106,38.648,14.593,59.646,19.943
			C377.839,223.411,382.13,210.864,382.999,208.312L382.999,208.312z"/>
	</g>
</g>
<g id="righthand">
	<g id="Layer_13_2_">
		<path fill="#409D8B" d="M386.157,208.312c80.816-32.24,102.586-31.257,112.995-37.922c2.375-1.503,2.834-12.213,8.241-15.522
			c3.455-2.109,7.48-6.117,9.138-7.252c1.996-1.381,1.956-1.105,4.042-2.368c1.858-1.125,2.92-1.883,5.435-3.511
			c1.466-0.946,3.059-2.23,4.69-3.401c1.157-0.834,1.921-1.635,2.852-2.75c1.358-1.648,2.832-4.362,4.312-3.376
			c1.677,1.101,1.326,4.121,0.536,5.906c-0.93,2.222-1.256,4.173-4.938,6.913c-1.631,1.701-3.461,3.25-5.164,4.705
			c-0.062,0.047-2.987,2.184-1.586,4.33c0.764,1.203,5.024,1.749,7.768,1.93c2.93,0.185,5.286,0.066,7.743,0.066
			c3.533-0.171,6.777-0.662,10.74-0.68c3.349-0.34,6.228,0.431,8.207,0.365c5.517-0.179,10.516-0.698,10.864,3.045
			c0.063,0.799,0.789,3.53-10.784,3.39c-1.998,0.387-4.728,0.5-7.848,0.956c-3.228,0.746-6.243,0.312-8.986,1.519
			c-1.068,0.464-1.985,2.156-1.344,3.141c0.474,0.734,7.85,1.956,11.529,3.728c2.563,1.25,2.165,0.754,5.229,1.977
			c0.737,0.302,2.784,1.28,3.882,1.744c4.191,1.812,10.365,2.609,9.13,6.831c-1.368,4.642-7.814,0.316-11.441-0.798
			c-3.747-1.119-7.069-1.57-9.735-2.648c-2.374-0.88-4.521-1.237-10.466-3.301c0.06,0.351-0.776,0.042,0.506,2.578
			c0,0,3.29,1.437,7.093,3.533c2.413,1.548,5.657,3.399,8.076,5.002c5.14,2.877,10.925,3.395,9.48,7.287
			c-1.615,4.411-8.155-0.237-11.69-1.556c-5.558-2.1-5.682-2.375-8.617-3.823c-2.771-1.367-6.176-3.651-9.797-4.765
			c-0.49,0.684-0.566,1.828-0.185,2.595c0.765,1.184,2.94,3.604,3.685,4.423c1.088,1.236,2.85,3.139,4.332,4.853
			c1.262,1.456,8.881,5.906,6.016,9.088c-1.982,2.201-7.042-2.042-9.962-4.792c-2.001-1.879-4.104-3.243-5.804-5.194
			c-1.632-1.333-3.49-3.214-5.898-4.792c-1.475-0.959-3.623-1.956-5.029-2.412c-3.987-0.714-8.075-0.481-12.474-1.612
			c-0.911-0.168-4.666-2.115-5.595-1.997c-1.658-0.042-33.513,15.262-53.608,21.926c-9.396,3.106-38.647,14.593-59.641,19.943
			C391.324,223.411,387.027,210.864,386.157,208.312L386.157,208.312z"/>
	</g>
</g>
<g id="pinkcircle">
	<g>
		<path fill="#F4C151" d="M384.128,139.988c-42.254,0-76.51,34.256-76.51,76.5c0,42.264,34.256,76.512,76.51,76.512
			c0.624,0,1.239-0.032,1.859-0.047V140.035C385.367,140.021,384.752,139.988,384.128,139.988z"/>
		<path fill="#E4606F" d="M385.987,140v0.035v152.918v0.289C428.025,292.91,462,258.729,462,216.629
			C462,174.506,428.025,140.338,385.987,140z"/>
	</g>
</g>
<g id="inner_circle">
	<g id="Layer_7_1_">
		<g id="Layer_1_1_">
			<g>
				<path fill="#65BCAB" d="M384.12,160.786c30.756,0,55.709,24.944,55.709,55.708c0,30.768-24.953,55.709-55.709,55.709
					c-30.775,0-55.713-24.941-55.713-55.709C328.407,185.73,353.345,160.786,384.12,160.786z"/>
				<path fill="#DDE5CE" d="M439.829,216.494h-3.322c0,14.475-5.867,27.557-15.35,37.043c-9.48,9.5-22.553,15.355-37.037,15.355
					c-14.479,0-27.559-5.855-37.045-15.355c-9.5-9.486-15.337-22.568-15.365-37.043c0-14.485,5.865-27.55,15.365-37.049
					c9.486-9.483,22.566-15.341,37.045-15.344c14.484,0.003,27.557,5.865,37.037,15.344c9.482,9.499,15.35,22.563,15.35,37.049
					H439.829h3.334c0-16.282-6.637-31.062-17.316-41.741c-10.654-10.674-25.43-17.291-41.727-17.291
					c-16.301,0-31.072,6.617-41.747,17.291c-10.68,10.68-17.289,25.459-17.289,41.741c0,16.299,6.609,31.065,17.289,41.745
					c10.675,10.682,25.446,17.289,41.747,17.289c16.297,0,31.072-6.607,41.727-17.289c10.68-10.68,17.316-25.445,17.316-41.745
					H439.829z"/>
				<polygon fill="#DDE5CE" points="415.251,216.117 392.114,229.961 368.239,244.121 368.239,216.494 368.239,188.861 
					391.745,202.342 				"/>
			</g>
		</g>
	</g>
</g>
</svg>
