<svg version="1.1" xmlns="http://www.w3.org/2000/svg" x="0" y="0" viewBox="0 0 768 432" enable-background="new 0 0 768 432" xml:space="preserve"><g display="none"><rect display="inline" fill="#FFFFFF" width="768" height="430"/></g><circle fill="#65BCAB" cx="384" cy="195.8" r="71"/><path fill="#DDE5CE" d="M455 195.8h-4.2c0 18.4-7.5 35.1-19.5 47.2 -12.1 12.1-28.7 19.5-47.2 19.5 -18.4 0-35.1-7.5-47.2-19.5 -12.1-12.1-19.5-28.7-19.5-47.2 0-18.4 7.5-35.1 19.5-47.2 12.1-12.1 28.7-19.5 47.2-19.5 18.4 0 35.1 7.5 47.2 19.5 12.1 12.1 19.5 28.7 19.5 47.2H455h4.2c0-20.7-8.4-39.6-22-53.2 -13.6-13.6-32.4-22-53.2-22 -20.7 0-39.6 8.4-53.2 22 -13.6 13.6-22 32.4-22 53.2 0 20.7 8.4 39.6 22 53.2 13.6 13.6 32.4 22 53.2 22 20.7 0 39.6-8.4 53.2-22 13.6-13.6 22-32.4 22-53.2H455z"/><polygon fill="#DDE5CE" points="423.6 195.3 394.2 213 363.8 231 363.8 195.8 363.8 160.6 393.7 177.8 "/></svg>