<svg version="1.1" xmlns="http://www.w3.org/2000/svg" xmlns:xlink="http://www.w3.org/1999/xlink" x="0px" y="0px" viewBox="0 0 768 432" enable-background="new 0 0 768 432" xml:space="preserve">
<g id="Layer_2">
	<rect y="-0.999" fill="#65BCAB" width="768" height="431.999"/>
</g>
<g id="Layer_13">
	<path fill="#409D8B" d="M370.094,214.063c97.8-39.02,124.144-37.83,136.764-45.894c2.854-1.821,3.422-14.779,9.974-18.786
		c4.172-2.551,9.038-7.401,11.031-8.776c2.436-1.677,2.379-1.336,4.908-2.868c2.252-1.363,3.537-2.285,6.574-4.252
		c1.772-1.146,3.703-2.699,5.673-4.113c1.408-1.013,2.327-1.98,3.452-3.333c1.66-1.994,3.438-5.271,5.236-4.08
		c2.01,1.33,1.592,4.989,0.64,7.145c-1.133,2.695-1.52,5.052-5.963,8.371c-1.982,2.057-4.219,3.927-6.261,5.689
		c-0.064,0.056-3.614,2.646-1.932,5.248c0.935,1.446,6.081,2.113,9.396,2.327c3.571,0.229,6.42,0.086,9.379,0.081
		c4.276-0.204,8.197-0.796,12.998-0.825c4.06-0.408,7.535,0.521,9.924,0.446c6.677-0.216,12.741-0.844,13.148,3.689
		c0.088,0.962,0.965,4.265-13.04,4.101c-2.433,0.469-5.729,0.603-9.494,1.152c-3.909,0.901-7.546,0.375-10.887,1.838
		c-1.297,0.567-2.389,2.611-1.62,3.801c0.574,0.886,9.515,2.372,13.945,4.515c3.119,1.509,2.632,0.91,6.323,2.39
		c0.91,0.364,3.394,1.551,4.712,2.117c5.078,2.183,12.558,3.157,11.055,8.26c-1.651,5.616-9.464,0.379-13.85-0.962
		c-4.534-1.354-8.553-1.903-11.773-3.207c-2.891-1.068-5.476-1.496-12.673-3.994c0.065,0.424-0.932,0.053,0.603,3.122
		c0,0,3.997,1.732,8.581,4.273c2.929,1.876,6.851,4.11,9.792,6.058c6.22,3.477,13.204,4.113,11.471,8.816
		c-1.96,5.33-9.891-0.29-14.162-1.896c-6.726-2.526-6.867-2.867-10.42-4.618c-3.358-1.652-7.478-4.419-11.86-5.769
		c-0.588,0.833-0.691,2.213-0.22,3.149c0.937,1.428,3.565,4.361,4.447,5.353c1.329,1.495,3.452,3.791,5.246,5.863
		c1.528,1.769,10.75,7.16,7.287,11.002c-2.399,2.664-8.537-2.477-12.061-5.799c-2.406-2.268-4.977-3.931-7.027-6.287
		c-1.964-1.616-4.205-3.885-7.134-5.797c-1.776-1.162-4.376-2.365-6.078-2.918c-4.823-0.861-9.777-0.584-15.101-1.95
		c-1.097-0.202-5.646-2.557-6.783-2.411c-1.999-0.062-40.533,18.463-64.859,26.529c-11.371,3.77-46.773,17.654-72.193,24.137
		C376.353,232.34,371.15,217.147,370.094,214.063L370.094,214.063z"/>
</g>
<g id="Layer_13_copy">
	<path fill="#409D8B" d="M404.133,214.062c-97.8-39.019-124.144-37.829-136.764-45.893c-2.854-1.821-3.422-14.779-9.974-18.786
		c-4.172-2.551-9.038-7.401-11.031-8.776c-2.436-1.677-2.379-1.336-4.908-2.868c-2.252-1.363-3.537-2.285-6.574-4.252
		c-1.772-1.146-3.703-2.699-5.673-4.113c-1.408-1.013-2.327-1.98-3.452-3.333c-1.66-1.994-3.438-5.271-5.236-4.08
		c-2.01,1.33-1.592,4.989-0.64,7.145c1.133,2.695,1.52,5.052,5.963,8.371c1.982,2.057,4.219,3.927,6.261,5.689
		c0.064,0.056,3.614,2.646,1.932,5.248c-0.935,1.446-6.081,2.113-9.396,2.327c-3.571,0.229-6.42,0.086-9.379,0.081
		c-4.276-0.204-8.197-0.796-12.998-0.825c-4.06-0.408-7.535,0.521-9.924,0.446c-6.677-0.216-12.741-0.844-13.148,3.689
		c-0.088,0.962-0.965,4.265,13.04,4.101c2.433,0.469,5.729,0.603,9.494,1.152c3.909,0.901,7.546,0.375,10.887,1.838
		c1.297,0.567,2.389,2.611,1.62,3.801c-0.574,0.886-9.515,2.372-13.945,4.515c-3.119,1.509-2.632,0.91-6.323,2.39
		c-0.91,0.364-3.394,1.551-4.712,2.117c-5.078,2.183-12.558,3.157-11.055,8.26c1.651,5.616,9.464,0.379,13.85-0.962
		c4.534-1.354,8.553-1.903,11.773-3.207c2.891-1.068,5.476-1.496,12.673-3.994c-0.065,0.424,0.932,0.053-0.603,3.122
		c0,0-3.997,1.732-8.581,4.273c-2.929,1.876-6.851,4.11-9.792,6.058c-6.22,3.477-13.204,4.113-11.471,8.816
		c1.96,5.33,9.891-0.29,14.162-1.896c6.726-2.526,6.867-2.867,10.42-4.618c3.358-1.652,7.478-4.419,11.86-5.769
		c0.588,0.833,0.691,2.213,0.22,3.149c-0.937,1.428-3.565,4.361-4.447,5.353c-1.329,1.495-3.452,3.791-5.246,5.863
		c-1.528,1.769-10.75,7.16-7.287,11.002c2.399,2.663,8.537-2.477,12.061-5.799c2.406-2.268,4.977-3.931,7.027-6.287
		c1.964-1.616,4.205-3.885,7.134-5.797c1.776-1.162,4.376-2.365,6.078-2.918c4.823-0.861,9.777-0.584,15.101-1.95
		c1.097-0.202,5.646-2.557,6.783-2.411c1.999-0.062,40.533,18.463,64.859,26.529c11.371,3.77,46.773,17.653,72.193,24.137
		C397.873,232.34,403.076,217.147,404.133,214.062L404.133,214.062z"/>
</g>
<g id="Layer_12">
	<circle fill="#F4C151" cx="384.414" cy="221.413" r="92.586"/>
</g>
<g id="Layer_3">
	<path fill="#E4606F" d="M386,129.01v185.469c50.875-0.408,91.986-41.766,91.986-92.734C477.986,170.778,436.875,129.419,386,129.01
		z"/>
</g>
<g id="Layer_7">
	<g id="Layer_1_3_">
		<g>
			<path fill="#65BCAB" d="M384.25,153.934c37.236,0,67.418,30.188,67.418,67.418c0,37.238-30.182,67.426-67.418,67.426
				c-37.237,0-67.419-30.188-67.419-67.426C316.831,184.123,347.013,153.934,384.25,153.934z"/>
			<path fill="#DDE5CE" d="M451.668,221.353h-4.008c-0.008,17.52-7.098,33.355-18.576,44.836
				c-11.486,11.479-27.314,18.574-44.834,18.574c-17.521,0-33.349-7.09-44.834-18.574c-11.479-11.486-18.569-27.316-18.576-44.836
				c0-17.519,7.097-33.348,18.576-44.834c11.485-11.479,27.313-18.568,44.834-18.575c17.52,0.007,33.348,7.097,44.834,18.575
				c11.479,11.486,18.568,27.315,18.576,44.834H451.668h4.023c0-19.71-8.004-37.597-20.928-50.514
				c-12.91-12.923-30.797-20.927-50.514-20.927c-19.711,0-37.604,8.004-50.515,20.927c-12.922,12.917-20.927,30.804-20.927,50.514
				c0,19.719,8.005,37.605,20.927,50.516c12.91,12.922,30.804,20.926,50.515,20.926c19.717,0,37.604-8.004,50.514-20.926
				c12.924-12.91,20.928-30.797,20.928-50.516H451.668z"/>
			<polygon fill="#DDE5CE" points="421.922,220.897 393.939,237.657 365.034,254.788 365.034,221.353 365.034,187.918 
				393.471,204.22 			"/>
		</g>
	</g>
</g>
</svg>
