<svg version="1.1" xmlns="http://www.w3.org/2000/svg" xmlns:xlink="http://www.w3.org/1999/xlink" x="0px" y="0px" viewBox="0 0 768 432" enable-background="new 0 0 768 432" xml:space="preserve">
<g id="Layer_2" display="none">
	<rect display="inline" fill="#FFFFFF" width="768" height="430"/>
</g>
<g id="Layer_1">
	<g>
		<circle fill="#65BCAB" cx="384" cy="215" r="70.95"/>
		<path fill="#DDE5CE" d="M454.95,215h-4.227c-0.002,18.438-7.461,35.094-19.542,47.181c-12.088,12.081-28.74,19.54-47.181,19.543
			c-18.438-0.002-35.093-7.461-47.181-19.543c-12.081-12.089-19.54-28.742-19.543-47.181c0.002-18.439,7.462-35.093,19.543-47.181
			c12.088-12.081,28.742-19.541,47.181-19.544c18.441,0.002,35.093,7.463,47.181,19.544c12.081,12.088,19.54,28.741,19.542,47.181
			H454.95h4.227c0.002-20.746-8.42-39.567-22.019-53.159c-13.59-13.598-32.41-22.021-53.159-22.019
			c-20.745-0.002-39.567,8.42-53.157,22.019c-13.599,13.592-22.021,32.413-22.02,53.159c-0.002,20.746,8.421,39.568,22.02,53.158
			c13.59,13.598,32.411,22.021,53.157,22.02c20.749,0.002,39.569-8.421,53.159-22.02c13.597-13.591,22.021-32.411,22.019-53.158
			H454.95z"/>
		<polygon fill="#DDE5CE" points="423.645,214.516 394.199,232.156 363.773,250.182 363.773,215 363.773,179.817 393.707,196.972 		
			"/>
	</g>
</g>
<g id="Layer_3">
</g>
</svg>
