<svg version="1.1" id="Layer_1" xmlns="http://www.w3.org/2000/svg" xmlns:xlink="http://www.w3.org/1999/xlink" x="0px" y="0px"
	 viewBox="0 0 768 432" enable-background="new 0 0 768 432" xml:space="preserve">
<g>
	<circle fill-rule="evenodd" clip-rule="evenodd" fill="#65BCAB" cx="383.836" cy="140.416" r="70.415"/>
	<path fill="#DDE5CE" d="M454.251,140.416h-4.195c-0.002,18.3-7.404,34.829-19.395,46.825
		c-11.996,11.99-28.524,19.393-46.825,19.396c-18.299-0.002-34.828-7.405-46.825-19.396c-11.99-11.997-19.393-28.525-19.396-46.825
		c0.002-18.3,7.406-34.828,19.396-46.825c11.997-11.99,28.525-19.393,46.825-19.396c18.301,0.002,34.829,7.406,46.825,19.396
		c11.99,11.997,19.393,28.525,19.395,46.825H454.251h4.195c0.002-20.59-8.357-39.269-21.853-52.758
		c-13.488-13.495-32.167-21.855-52.758-21.853c-20.589-0.002-39.269,8.357-52.757,21.853
		c-13.496,13.489-21.855,32.168-21.853,52.758c-0.002,20.59,8.357,39.27,21.853,52.758c13.488,13.495,32.167,21.854,52.757,21.853
		c20.591,0.002,39.27-8.357,52.758-21.853c13.495-13.489,21.854-32.167,21.853-52.758H454.251z"/>
	<polygon fill="#DDE5CE" points="423.18,139.935 393.957,157.443 363.761,175.333 363.761,140.416 363.761,105.499 393.469,122.524 
			"/>
</g>
</svg>
