<svg version="1.1" id="Layer_1" xmlns="http://www.w3.org/2000/svg" xmlns:xlink="http://www.w3.org/1999/xlink" x="0px" y="0px" viewBox="0 0 60 60" enable-background="new 0 0 60 60" xml:space="preserve">
<circle fill="#EA5F72" stroke="#ffffff" stroke-width="2.7806" stroke-miterlimit="10" cx="29.883" cy="30.134" r="28.117"/>
<path fill-rule="evenodd" clip-rule="evenodd" fill="#ffffff" d="M15.087,30.799c1.215-0.062,2.431-0.125,3.671-0.188
	c-0.044-4.062,1.488-7.333,4.779-9.695c2.391-1.716,5.093-2.329,8-1.893c5.893,0.883,10.08,6.339,9.387,12.243
	c-0.732,6.242-6.078,9.784-10.459,9.826c-0.123-2.412-0.248-4.829-0.373-7.244c-0.045-0.027-0.09-0.056-0.135-0.083
	c-2.868,3.23-5.735,6.462-8.585,9.673c3.208,2.883,6.427,5.775,9.638,8.662c-0.121-2.36-0.246-4.777-0.371-7.225
	c0.594-0.079,1.156-0.126,1.707-0.23c5.119-0.969,8.783-3.837,11.023-8.521c0.844-1.761,1.258-3.64,1.316-5.593
	c0.002-0.105,0.029-0.209,0.045-0.313c-0.033-0.651-0.066-1.302-0.1-1.954c-0.158-0.727-0.256-1.472-0.48-2.178
	c-1.91-6.059-5.998-9.653-12.262-10.75c-0.59-0.103-1.193-0.123-1.791-0.181c-0.651,0.033-1.301,0.067-1.953,0.101
	c-0.4,0.073-0.803,0.142-1.201,0.222c-5.951,1.208-10.654,6.063-11.655,12.054c-0.125,0.745-0.17,1.503-0.253,2.255
	C15.052,30.125,15.07,30.462,15.087,30.799z"/>
</svg>
