<svg version="1.1" xmlns="http://www.w3.org/2000/svg" xmlns:xlink="http://www.w3.org/1999/xlink" x="0px" y="0px" viewBox="0 0 768 975" enable-background="new 0 0 768 975" xml:space="preserve">
<g id="bgcolor">
	<rect x="0.5" y="1" fill="#64BBA9" width="768" height="975"/>
</g>
<g id="Layer_11">
	<linearGradient id="SVGID_1_" gradientUnits="userSpaceOnUse" x1="386.7793" y1="641.1094" x2="383.1994" y2="991.3987">
		<stop  offset="0" style="stop-color:#1E8FD9;stop-opacity:0"/>
		<stop  offset="1" style="stop-color:#1E8FD9;stop-opacity:0.5"/>
	</linearGradient>
	<polygon opacity="0.7" fill-rule="evenodd" clip-rule="evenodd" fill="url(#SVGID_1_)" points="775,970.004 775,920.322 
		429.426,690.603 775,885.924 775,847.365 435.514,684.918 775,820.441 775,788.252 440.327,678.611 775,765.606 775,737.102 
		443.737,671.846 775,716.837 775,690.256 445.666,664.775 775,671.061 775,645.077 446.06,657.585 321.283,654.63 -4.877,648.406 
		-4.551,674.196 320.887,661.821 -4.311,693.171 -3.978,719.51 322.031,668.964 -3.725,739.492 -3.369,767.685 324.689,675.878 
		-3.086,789.966 -2.684,821.741 328.796,682.39 -2.35,848.186 -1.869,886.188 334.247,688.35 -1.442,919.921 -0.824,968.816 
		340.911,693.6 29.505,987.785 88.884,987.035 348.621,698.016 131.633,986.494 180.961,985.87 357.195,701.49 216.84,985.416 
		260.35,984.865 366.411,703.934 292.392,984.46 332.823,983.949 376.049,705.284 363.1,983.564 402.52,983.067 385.866,705.52 
		432.715,982.685 472.975,982.177 395.632,704.621 504.764,981.774 547.893,981.229 405.094,702.622 583.296,980.779 
		631.954,980.165 414.021,699.562 673.894,979.634 732.177,978.896 422.202,695.521 	"/>
</g>
<g id="top">
	<linearGradient id="SVGID_2_" gradientUnits="userSpaceOnUse" x1="384.9995" y1="-2.9995" x2="384.9995" y2="114.4834">
		<stop  offset="0" style="stop-color:#1E8FD9"/>
		<stop  offset="1" style="stop-color:#1E8FD9;stop-opacity:0"/>
	</linearGradient>
	<rect x="-3" y="-3" opacity="0.7" fill="url(#SVGID_2_)" width="776" height="117.483"/>
</g>
</svg>
