<svg version="1.1" xmlns="http://www.w3.org/2000/svg" x="0px" y="0px" width="300px" height="60px" viewBox="0 0 300 60" enable-background="new 0 0 300 60" xml:space="preserve"><path fill="#409D8B" d="M10.054 45.936c0 5.174 9.9 9.367 22.067 9.367 12.168 0 22.031-4.193 22.031-9.367 0-3.659 0-11.94 0-18.519 -3.395 0-40.523 0-44.099 0C10.054 36.927 10.054 40.763 10.054 45.936z"/><path fill="#409D8B" d="M9.677 26.344c0 0.601-1.209 3.754 0.391 3.754 0.971 0 0.579-1.273 1.423-0.321 2.954 3.325 3.806 9.189 6.904 12.083 1.476 1.379 3.472 0.895 5.177 1.716 2.561 1.232 1.728 5.22 5.091 5.22 2.935 0 1.955-5.488 4.837-5.488 3.039 0 3.267 3.7 5.285 3.7 2.615 0 1.394-6.104 4.002-8.58 3.843-3.646 6.809-1.153 6.245 1.019 -0.64 2.468 0.204 4.559 1.388 4.559 1.868 0 1.431-3.67 1.334-4.665 -0.267-2.735 1.012-4.611 2.029-5.417 1.558-1.234 1.174-6.053 1.174-7.534 0-5.02-7.602-9.984-22.974-9.984C16.042 16.405 9.677 21.324 9.677 26.344z"/><path fill="#409D8B" d="M9.605 25.486c0 0.601-1.209 3.754 0.392 3.754 0.97 0 0.579-1.273 1.424-0.321 2.953 3.324 3.805 9.189 6.903 12.083 1.476 1.38 3.472 0.895 5.177 1.716 2.561 1.232 1.762 5.363 5.124 5.363 2.935 0 1.921-5.632 4.804-5.632 3.038 0 3.267 3.701 5.285 3.701 2.615 0 1.394-6.105 4.003-8.581 3.842-3.646 6.808-1.153 6.244 1.02 -0.64 2.467 0.205 4.558 1.388 4.558 1.869 0 1.432-3.671 1.334-4.665 -0.267-2.735 1.012-4.61 2.029-5.416 1.558-1.235 1.174-6.054 1.174-7.535 0-5.02-7.601-9.984-22.973-9.984C15.971 15.547 9.605 20.466 9.605 25.486z"/><ellipse fill="#409D8B" cx="31.876" cy="19.98" rx="12.942" ry="4.433"/><path fill="#409D8B" d="M40.926 13.473c0 0 0.786-2.967-1.252-3.574 -2.038-0.608-10.01-0.823-10.618 0C28.448 10.72 40.926 13.473 40.926 13.473z"/><path fill="#409D8B" d="M29.092 8.003c0 0-8.619 2.096-9.688 7.007 -1.144 5.256 2.61 6.936 13.943 8.795C37.383 24.467 29.092 8.003 29.092 8.003z"/><path fill="#409D8B" d="M29.021 8.934c0 0-6.579 1.036-6.757 5.255s4.004 7.543 6.256 8.187c2.252 0.644 3.002-1.072 2.717-3.754C30.951 15.94 29.021 8.934 29.021 8.934z"/><path fill="#409D8B" d="M28.484 8.719c0 0-5.577 1.251-5.577 4.969s3.61 4.541 5.077 4.827c1.466 0.286 6.078 2.646 6.078 3.79s0.035 1.43 0.035 1.43 3.147-2.753 3.933-2.825S28.484 8.719 28.484 8.719z"/><path fill="#409D8B" d="M35.648 5.871c1.409 1.636 1.817 3.549 1.033 4.941 -1.078 1.911-4.744 3.36-7.771 1.819 -2.277-1.158-2.458-4.389-1.347-6.279 1.301-2.215 3.845-3.946 5.727-3.158C34.612 3.746 34.723 4.797 35.648 5.871z"/><path opacity="0.29" fill="#409D8B" d="M34.8 4.761c0 0-1.011-1.209-1.622-0.959 -0.485 0.197 0.499 1.319 0.75 1.766 0.251 0.448 1.991 2.692 2.537 2.465C37.011 7.804 35.42 5.794 34.8 4.761z"/><path fill="#409D8B" d="M35.845 6.944c-0.172 0.557-0.733-0.187-1.095-0.477 -0.618-0.499-0.882-1.25-0.731-1.439 0.18-0.227 0.504-0.17 0.999 0.402C35.6 6.101 35.966 6.553 35.845 6.944z"/><path opacity="0.21" fill="#409D8B" d="M28.911 12.631c3.026 1.541 6.693 0.092 7.771-1.819 0.173-0.309 0.279-0.645 0.337-0.996C36.867 9.424 36.7 9.05 36.544 8.817c-0.517-0.768-0.941-0.984-0.941-0.984s0.593 1.606-1.001 2.047c-1.48 0.411-5.673 1.995-7.686-0.569C27.011 10.668 27.628 11.979 28.911 12.631z"/><path opacity="0.34" fill="#409D8B" d="M28.742 5.912c0.775-0.778 3.156-2.122 3.438-2.565 0.118-0.186 0.479-0.237 0.86-0.236 -1.851-0.547-4.232 1.122-5.476 3.242 -0.407 0.693-0.639 1.567-0.659 2.451C27.095 8.431 28.045 6.608 28.742 5.912z"/><path opacity="0.19" fill="#409D8B" d="M30.834 5.593c0 0 0.519-0.697 1.442-0.146 0.923 0.55 1.535 1.288 1.605 1.723 0.071 0.435-0.876 0.086-1.469-0.375C31.82 6.334 30.661 6.037 30.834 5.593z"/><path opacity="0.73" fill="#409D8B" d="M31.658 5.505c0 0 0.787 0.188 0.999 0.455 0.209 0.265 0.622 0.663 0.504 0.788 -0.119 0.127-0.796-0.484-0.859-0.516C32.236 6.199 30.726 5.856 31.658 5.505z"/><path fill="#409D8B" d="M28.02 9.826c0 0-1.751 1.752-1.751 4.362s2.288 3.682 3.932 3.682c1.646 0 3.969 0.465 5.113 1.538 1.144 1.072 1.787 1.823 3.503 2.073 1.717 0.25 3.897 0.394 4.041-0.536C42.999 20.016 28.02 9.826 28.02 9.826z"/><path fill="#409D8B" d="M38.352 17.228c2.266 1.396 5.167 1.111 6.185 1.358 0 0 1.644-2.324 0.75-3.718s-2.932-2.252-4.397-2.395c-1.465-0.144-4.684-1.251-6.221-1.824 -1.538-0.572-3.503 0.25-3.79 1 -0.286 0.75-0.571 1.716-0.571 1.716S34.812 15.046 38.352 17.228z"/><path fill="#409D8B" d="M28.198 10.22c0 0-0.822 2.146 1.573 3.003s6.149 1.751 7.722 3.575c1.572 1.823 4.684 5.362 5.577 4.433 0.893-0.93 3.074-2.931 1.466-3.539 -1.609-0.607-5.578-0.179-6.864-1.501 -1.288-1.323-2.432-1.752-4.434-2.36C31.237 13.224 29.628 12.902 28.198 10.22z"/><path fill="#409D8B" d="M32.403 51.154c10.256 0 18.933-2.386 21.806-5.669 -0.001 0.482-0.002 0.923-0.002 1.309 0 5.173-9.893 9.366-22.094 9.366 -12.202 0-22.095-4.193-22.095-9.366 0-0.728 0-1.429-0.001-2.123C12.078 48.367 21.315 51.154 32.403 51.154z"/><path opacity="0.49" fill="#409D8B" d="M49.274 20.193c2.063 1.1 3.266 2.41 3.266 3.817 0 3.884-9.124 7.033-20.378 7.033 -10.825 0-19.674-2.914-20.334-6.592 -0.026 0.153-0.043 0.308-0.043 0.463 0 4.146 9.444 7.508 21.093 7.508 11.648 0 21.093-3.361 21.093-7.508C53.97 23.125 52.208 21.483 49.274 20.193z"/><path opacity="0.49" fill="#409D8B" d="M42.815 35.746c0 0 7.509-5.147 7.937 2.896C49.68 36.927 49.894 34.03 42.815 35.746z"/><path opacity="0.51" fill="#409D8B" d="M51.289 39.394c0 0-0.053 2.305-0.751 3.324C52.146 42.718 51.289 39.394 51.289 39.394z"/><path opacity="0.16" fill="#409D8B" d="M45.484 19.351c0.009 0.141 0.015 0.282 0.015 0.424 0 4.396-5.286 9.636-11.157 9.751 4.076 0.75 17.072-1.716 17.072-5.837C51.415 21.796 49.004 20.157 45.484 19.351z"/><path opacity="0.5" fill="#409D8B" d="M41.904 37.812c0 0-1.877 2.387-1.877 5.121s-1.233 3.164-2.038 2.037c1.251-0.035 1.358-1.09 1.358-2.216S39.437 39.009 41.904 37.812z"/><path fill="#409D8B" d="M33.52 41.896c0 0-1.859 0.071-2.574 1.966 -0.715 1.896-1.895 5.185-3.86 2.861 1.572 0.464 2.109-0.537 2.932-2.181C30.839 42.896 31.446 41.753 33.52 41.896z"/><path opacity="0.33" fill="#409D8B" d="M48.714 31.242c0 0 4.183-1.931 5.47-3.969 0 2.252 0.43 3.646-0.644 4.934 -1.073 1.287-1.931 2.467-2.145 3.432C50.752 33.28 50.538 31.563 48.714 31.242z"/><path fill="#409D8B" d="M69.804 45.936c0 5.174 9.9 9.367 22.068 9.367s22.031-4.193 22.031-9.367c0-3.659 0-11.94 0-18.519 -3.395 0-40.523 0-44.1 0C69.804 36.927 69.804 40.763 69.804 45.936z"/><path fill="#409D8B" d="M69.427 26.344c0 0.602-1.209 3.754 0.391 3.754 0.971 0 0.58-1.272 1.424-0.32 2.953 3.324 3.807 9.188 6.904 12.083 1.476 1.379 3.472 0.895 5.177 1.716 2.562 1.232 1.728 5.22 5.091 5.22 2.936 0 1.955-5.488 4.837-5.488 3.039 0 3.267 3.7 5.285 3.7 2.615 0 1.394-6.104 4.003-8.58 3.842-3.646 6.809-1.153 6.244 1.019 -0.64 2.468 0.205 4.559 1.389 4.559 1.867 0 1.432-3.67 1.334-4.665 -0.267-2.735 1.012-4.611 2.029-5.417 1.557-1.234 1.174-6.054 1.174-7.534 0-5.02-7.602-9.984-22.975-9.984C75.792 16.404 69.427 21.324 69.427 26.344z"/><path fill="#409D8B" d="M69.354 25.486c0 0.601-1.209 3.754 0.393 3.754 0.971 0 0.578-1.273 1.424-0.321 2.953 3.324 3.805 9.189 6.903 12.083 1.476 1.38 3.472 0.895 5.177 1.716 2.561 1.232 1.762 5.363 5.124 5.363 2.935 0 1.921-5.632 4.804-5.632 3.038 0 3.267 3.701 5.285 3.701 2.615 0 1.393-6.105 4.003-8.581 3.842-3.646 6.808-1.153 6.244 1.02 -0.64 2.467 0.204 4.558 1.388 4.558 1.869 0 1.432-3.671 1.334-4.665 -0.267-2.735 1.012-4.61 2.029-5.416 1.558-1.235 1.174-6.054 1.174-7.534 0-5.021-7.602-9.984-22.973-9.984C75.722 15.547 69.354 20.466 69.354 25.486z"/><ellipse fill="#409D8B" cx="91.625" cy="19.98" rx="12.942" ry="4.434"/><path fill="#409D8B" d="M100.676 13.473c0 0 0.786-2.967-1.252-3.574s-10.01-0.822-10.618 0C88.198 10.721 100.676 13.473 100.676 13.473z"/><path fill="#409D8B" d="M88.842 8.004c0 0-8.619 2.096-9.688 7.006 -1.145 5.257 2.609 6.937 13.943 8.795C97.134 24.467 88.842 8.004 88.842 8.004z"/><path fill="#409D8B" d="M88.771 8.934c0 0-6.578 1.036-6.757 5.255s4.005 7.544 6.257 8.187c2.252 0.644 3.002-1.072 2.717-3.754C90.701 15.94 88.771 8.934 88.771 8.934z"/><path fill="#409D8B" d="M88.233 8.719c0 0-5.576 1.251-5.576 4.969 0 3.719 3.61 4.541 5.076 4.827 1.467 0.286 6.078 2.646 6.078 3.79 0 1.143 0.035 1.43 0.035 1.43s3.146-2.754 3.934-2.824C98.565 20.838 88.233 8.719 88.233 8.719z"/><path fill="#409D8B" d="M95.397 5.871c1.409 1.636 1.818 3.549 1.033 4.941 -1.077 1.91-4.744 3.359-7.77 1.818 -2.277-1.158-2.459-4.389-1.348-6.279 1.301-2.215 3.846-3.946 5.727-3.158C94.362 3.746 94.474 4.797 95.397 5.871z"/><path opacity="0.29" fill="#409D8B" d="M94.55 4.761c0 0-1.011-1.209-1.622-0.96 -0.485 0.197 0.499 1.319 0.751 1.767 0.251 0.448 1.99 2.692 2.537 2.465C96.761 7.804 95.17 5.795 94.55 4.761z"/><path fill="#409D8B" d="M95.595 6.944c-0.172 0.557-0.732-0.187-1.095-0.477 -0.618-0.499-0.882-1.251-0.731-1.439 0.18-0.227 0.504-0.171 0.999 0.401C95.35 6.101 95.716 6.553 95.595 6.944z"/><path opacity="0.21" fill="#409D8B" d="M88.661 12.631c3.025 1.541 6.692 0.092 7.77-1.818 0.174-0.309 0.279-0.646 0.338-0.996 -0.152-0.393-0.318-0.767-0.475-1 -0.516-0.768-0.941-0.983-0.941-0.983s0.594 1.606-1.001 2.047c-1.48 0.411-5.673 1.995-7.686-0.569C86.761 10.668 87.378 11.979 88.661 12.631z"/><path opacity="0.34" fill="#409D8B" d="M88.491 5.912c0.775-0.778 3.156-2.123 3.438-2.566 0.118-0.186 0.479-0.236 0.86-0.236 -1.852-0.547-4.232 1.122-5.477 3.242 -0.406 0.693-0.639 1.566-0.659 2.451C86.845 8.431 87.796 6.608 88.491 5.912z"/><path opacity="0.19" fill="#409D8B" d="M90.585 5.594c0 0 0.518-0.697 1.441-0.146 0.924 0.549 1.535 1.287 1.605 1.723s-0.876 0.086-1.469-0.375C91.569 6.334 90.411 6.037 90.585 5.594z"/><path opacity="0.73" fill="#409D8B" d="M91.407 5.506c0 0 0.787 0.188 0.999 0.455 0.209 0.265 0.622 0.662 0.504 0.787 -0.118 0.127-0.796-0.483-0.859-0.516C91.986 6.199 90.476 5.856 91.407 5.506z"/><path fill="#409D8B" d="M87.77 9.826c0 0-1.751 1.752-1.751 4.362s2.287 3.683 3.932 3.683 3.969 0.465 5.112 1.537 1.786 1.823 3.503 2.073c1.717 0.251 3.897 0.394 4.041-0.536C102.749 20.016 87.77 9.826 87.77 9.826z"/><path fill="#409D8B" d="M98.102 17.228c2.267 1.396 5.167 1.11 6.185 1.358 0 0 1.645-2.324 0.751-3.719s-2.932-2.252-4.397-2.395c-1.465-0.143-4.684-1.251-6.221-1.823s-3.503 0.25-3.79 1.001c-0.286 0.75-0.571 1.716-0.571 1.716S94.562 15.047 98.102 17.228z"/><path fill="#409D8B" d="M87.948 10.221c0 0-0.822 2.145 1.573 3.003s6.149 1.751 7.722 3.575c1.572 1.822 4.684 5.361 5.578 4.433 0.893-0.93 3.074-2.931 1.465-3.539 -1.609-0.607-5.577-0.179-6.863-1.501 -1.288-1.324-2.433-1.753-4.435-2.36C90.987 13.224 89.378 12.902 87.948 10.221z"/><path fill="#409D8B" d="M92.153 51.154c10.256 0 18.933-2.386 21.806-5.669 -0.001 0.482-0.002 0.923-0.002 1.309 0 5.173-9.894 9.366-22.095 9.366s-22.094-4.193-22.094-9.366c0-0.728-0.001-1.429-0.002-2.123C71.827 48.367 81.065 51.154 92.153 51.154z"/><path opacity="0.49" fill="#409D8B" d="M109.024 20.193c2.062 1.1 3.266 2.409 3.266 3.816 0 3.885-9.123 7.033-20.379 7.033 -10.824 0-19.674-2.914-20.334-6.592 -0.025 0.152-0.043 0.307-0.043 0.463 0 4.146 9.443 7.508 21.093 7.508 11.648 0 21.093-3.361 21.093-7.508C113.72 23.125 111.958 21.482 109.024 20.193z"/><path opacity="0.49" fill="#409D8B" d="M102.565 35.746c0 0 7.508-5.147 7.937 2.896C109.43 36.927 109.644 34.03 102.565 35.746z"/><path opacity="0.51" fill="#409D8B" d="M111.038 39.394c0 0-0.053 2.305-0.75 3.324C111.896 42.718 111.038 39.394 111.038 39.394z"/><path opacity="0.16" fill="#409D8B" d="M105.234 19.351c0.009 0.141 0.015 0.282 0.015 0.424 0 4.396-5.286 9.636-11.156 9.751 4.075 0.751 17.072-1.715 17.072-5.836C111.165 21.797 108.754 20.157 105.234 19.351z"/><path opacity="0.5" fill="#409D8B" d="M101.653 37.812c0 0-1.877 2.387-1.877 5.121s-1.232 3.164-2.037 2.037c1.252-0.035 1.358-1.09 1.358-2.216S99.187 39.009 101.653 37.812z"/><path fill="#409D8B" d="M93.27 41.896c0 0-1.858 0.071-2.573 1.966 -0.715 1.896-1.896 5.185-3.861 2.861 1.572 0.464 2.109-0.537 2.932-2.181C90.589 42.896 91.196 41.753 93.27 41.896z"/><path opacity="0.33" fill="#409D8B" d="M108.464 31.242c0 0 4.184-1.932 5.471-3.969 0 2.252 0.43 3.646-0.645 4.934 -1.072 1.287-1.93 2.467-2.145 3.432C110.502 33.28 110.288 31.563 108.464 31.242z"/><path fill="#409D8B" d="M129.554 45.936c0 5.174 9.9 9.367 22.068 9.367s22.031-4.193 22.031-9.367c0-3.659 0-11.94 0-18.519 -3.395 0-40.523 0-44.1 0C129.554 36.927 129.554 40.763 129.554 45.936z"/><path fill="#409D8B" d="M129.177 26.344c0 0.602-1.209 3.754 0.391 3.754 0.971 0 0.58-1.272 1.424-0.32 2.953 3.324 3.807 9.188 6.904 12.083 1.476 1.379 3.472 0.895 5.177 1.716 2.562 1.232 1.728 5.22 5.091 5.22 2.936 0 1.955-5.488 4.837-5.488 3.039 0 3.267 3.7 5.285 3.7 2.615 0 1.394-6.104 4.003-8.58 3.842-3.646 6.809-1.153 6.244 1.019 -0.64 2.468 0.205 4.559 1.389 4.559 1.867 0 1.432-3.67 1.334-4.665 -0.267-2.735 1.012-4.611 2.029-5.417 1.557-1.234 1.174-6.054 1.174-7.534 0-5.02-7.602-9.984-22.975-9.984C135.542 16.404 129.177 21.324 129.177 26.344z"/><path fill="#409D8B" d="M129.104 25.486c0 0.601-1.209 3.754 0.393 3.754 0.971 0 0.578-1.273 1.424-0.321 2.953 3.324 3.805 9.189 6.903 12.083 1.476 1.38 3.472 0.895 5.177 1.716 2.561 1.232 1.762 5.363 5.124 5.363 2.935 0 1.921-5.632 4.804-5.632 3.038 0 3.267 3.701 5.285 3.701 2.615 0 1.393-6.105 4.003-8.581 3.842-3.646 6.808-1.153 6.244 1.02 -0.64 2.467 0.204 4.558 1.388 4.558 1.869 0 1.432-3.671 1.334-4.665 -0.267-2.735 1.012-4.61 2.029-5.416 1.558-1.235 1.174-6.054 1.174-7.534 0-5.021-7.602-9.984-22.973-9.984C135.472 15.547 129.104 20.466 129.104 25.486z"/><ellipse fill="#409D8B" cx="151.375" cy="19.98" rx="12.942" ry="4.434"/><path fill="#409D8B" d="M160.426 13.473c0 0 0.786-2.967-1.252-3.574s-10.01-0.822-10.618 0C147.948 10.721 160.426 13.473 160.426 13.473z"/><path fill="#409D8B" d="M148.592 8.004c0 0-8.619 2.096-9.688 7.006 -1.145 5.257 2.609 6.937 13.943 8.795C156.884 24.467 148.592 8.004 148.592 8.004z"/><path fill="#409D8B" d="M148.521 8.934c0 0-6.578 1.036-6.757 5.255s4.005 7.544 6.257 8.187c2.252 0.644 3.002-1.072 2.717-3.754C150.451 15.94 148.521 8.934 148.521 8.934z"/><path fill="#409D8B" d="M147.983 8.719c0 0-5.576 1.251-5.576 4.969 0 3.719 3.61 4.541 5.076 4.827 1.467 0.286 6.078 2.646 6.078 3.79 0 1.143 0.035 1.43 0.035 1.43s3.146-2.754 3.934-2.824C158.315 20.838 147.983 8.719 147.983 8.719z"/><path fill="#409D8B" d="M155.147 5.871c1.409 1.636 1.818 3.549 1.033 4.941 -1.077 1.91-4.744 3.359-7.77 1.818 -2.277-1.158-2.459-4.389-1.348-6.279 1.301-2.215 3.846-3.946 5.727-3.158C154.112 3.746 154.224 4.797 155.147 5.871z"/><path opacity="0.29" fill="#409D8B" d="M154.3 4.761c0 0-1.011-1.209-1.622-0.96 -0.485 0.197 0.499 1.319 0.751 1.767 0.251 0.448 1.99 2.692 2.537 2.465C156.511 7.804 154.92 5.795 154.3 4.761z"/><path fill="#409D8B" d="M155.345 6.944c-0.172 0.557-0.732-0.187-1.095-0.477 -0.618-0.499-0.882-1.251-0.731-1.439 0.18-0.227 0.504-0.171 0.999 0.401C155.1 6.101 155.466 6.553 155.345 6.944z"/><path opacity="0.21" fill="#409D8B" d="M148.411 12.631c3.025 1.541 6.692 0.092 7.77-1.818 0.174-0.309 0.279-0.646 0.338-0.996 -0.152-0.393-0.318-0.767-0.475-1 -0.516-0.768-0.941-0.983-0.941-0.983s0.594 1.606-1.001 2.047c-1.48 0.411-5.673 1.995-7.686-0.569C146.511 10.668 147.128 11.979 148.411 12.631z"/><path opacity="0.34" fill="#409D8B" d="M148.241 5.912c0.775-0.778 3.156-2.123 3.438-2.566 0.118-0.186 0.479-0.236 0.86-0.236 -1.852-0.547-4.232 1.122-5.477 3.242 -0.406 0.693-0.639 1.566-0.659 2.451C146.595 8.431 147.546 6.608 148.241 5.912z"/><path opacity="0.19" fill="#409D8B" d="M150.335 5.594c0 0 0.518-0.697 1.441-0.146 0.924 0.549 1.535 1.287 1.605 1.723s-0.876 0.086-1.469-0.375C151.319 6.334 150.161 6.037 150.335 5.594z"/><path opacity="0.73" fill="#409D8B" d="M151.157 5.506c0 0 0.787 0.188 0.999 0.455 0.209 0.265 0.622 0.662 0.504 0.787 -0.118 0.127-0.796-0.483-0.859-0.516C151.736 6.199 150.226 5.856 151.157 5.506z"/><path fill="#409D8B" d="M147.52 9.826c0 0-1.751 1.752-1.751 4.362s2.287 3.683 3.932 3.683 3.969 0.465 5.112 1.537 1.786 1.823 3.503 2.073c1.717 0.251 3.897 0.394 4.041-0.536C162.499 20.016 147.52 9.826 147.52 9.826z"/><path fill="#409D8B" d="M157.852 17.228c2.267 1.396 5.167 1.11 6.185 1.358 0 0 1.645-2.324 0.751-3.719s-2.932-2.252-4.397-2.395c-1.465-0.143-4.684-1.251-6.221-1.823s-3.503 0.25-3.79 1.001c-0.286 0.75-0.571 1.716-0.571 1.716S154.312 15.047 157.852 17.228z"/><path fill="#409D8B" d="M147.698 10.221c0 0-0.822 2.145 1.573 3.003s6.149 1.751 7.722 3.575c1.572 1.822 4.684 5.361 5.578 4.433 0.893-0.93 3.074-2.931 1.465-3.539 -1.609-0.607-5.577-0.179-6.863-1.501 -1.288-1.324-2.433-1.753-4.435-2.36C150.737 13.224 149.128 12.902 147.698 10.221z"/><path fill="#409D8B" d="M151.903 51.154c10.256 0 18.933-2.386 21.806-5.669 -0.001 0.482-0.002 0.923-0.002 1.309 0 5.173-9.894 9.366-22.095 9.366s-22.094-4.193-22.094-9.366c0-0.728-0.001-1.429-0.002-2.123C131.577 48.367 140.815 51.154 151.903 51.154z"/><path opacity="0.49" fill="#409D8B" d="M168.774 20.193c2.062 1.1 3.266 2.409 3.266 3.816 0 3.885-9.123 7.033-20.379 7.033 -10.824 0-19.674-2.914-20.334-6.592 -0.025 0.152-0.043 0.307-0.043 0.463 0 4.146 9.443 7.508 21.093 7.508 11.648 0 21.093-3.361 21.093-7.508C173.47 23.125 171.708 21.482 168.774 20.193z"/><path opacity="0.49" fill="#409D8B" d="M162.315 35.746c0 0 7.508-5.147 7.937 2.896C169.18 36.927 169.394 34.03 162.315 35.746z"/><path opacity="0.51" fill="#409D8B" d="M170.788 39.394c0 0-0.053 2.305-0.75 3.324C171.646 42.718 170.788 39.394 170.788 39.394z"/><path opacity="0.16" fill="#409D8B" d="M164.984 19.351c0.009 0.141 0.015 0.282 0.015 0.424 0 4.396-5.286 9.636-11.156 9.751 4.075 0.751 17.072-1.715 17.072-5.836C170.915 21.797 168.504 20.157 164.984 19.351z"/><path opacity="0.5" fill="#409D8B" d="M161.403 37.812c0 0-1.877 2.387-1.877 5.121s-1.232 3.164-2.037 2.037c1.252-0.035 1.358-1.09 1.358-2.216S158.937 39.009 161.403 37.812z"/><path fill="#409D8B" d="M153.02 41.896c0 0-1.858 0.071-2.573 1.966 -0.715 1.896-1.896 5.185-3.861 2.861 1.572 0.464 2.109-0.537 2.932-2.181C150.339 42.896 150.946 41.753 153.02 41.896z"/><path opacity="0.33" fill="#409D8B" d="M168.214 31.242c0 0 4.184-1.932 5.471-3.969 0 2.252 0.43 3.646-0.645 4.934 -1.072 1.287-1.93 2.467-2.145 3.432C170.252 33.28 170.038 31.563 168.214 31.242z"/><path fill="#409D8B" d="M189.304 45.936c0 5.174 9.9 9.367 22.068 9.367s22.031-4.193 22.031-9.367c0-3.659 0-11.94 0-18.519 -3.395 0-40.523 0-44.1 0C189.304 36.927 189.304 40.763 189.304 45.936z"/><path fill="#409D8B" d="M188.927 26.344c0 0.602-1.209 3.754 0.391 3.754 0.971 0 0.58-1.272 1.424-0.32 2.953 3.324 3.807 9.188 6.904 12.083 1.476 1.379 3.472 0.895 5.177 1.716 2.562 1.232 1.728 5.22 5.091 5.22 2.936 0 1.955-5.488 4.837-5.488 3.039 0 3.267 3.7 5.285 3.7 2.615 0 1.394-6.104 4.003-8.58 3.842-3.646 6.809-1.153 6.244 1.019 -0.64 2.468 0.205 4.559 1.389 4.559 1.867 0 1.432-3.67 1.334-4.665 -0.267-2.735 1.012-4.611 2.029-5.417 1.557-1.234 1.174-6.054 1.174-7.534 0-5.02-7.602-9.984-22.975-9.984C195.292 16.404 188.927 21.324 188.927 26.344z"/><path fill="#409D8B" d="M188.854 25.486c0 0.601-1.209 3.754 0.393 3.754 0.971 0 0.578-1.273 1.424-0.321 2.953 3.324 3.805 9.189 6.903 12.083 1.476 1.38 3.472 0.895 5.177 1.716 2.561 1.232 1.762 5.363 5.124 5.363 2.935 0 1.921-5.632 4.804-5.632 3.038 0 3.267 3.701 5.285 3.701 2.615 0 1.393-6.105 4.003-8.581 3.842-3.646 6.808-1.153 6.244 1.02 -0.64 2.467 0.204 4.558 1.388 4.558 1.869 0 1.432-3.671 1.334-4.665 -0.267-2.735 1.012-4.61 2.029-5.416 1.558-1.235 1.174-6.054 1.174-7.534 0-5.021-7.602-9.984-22.973-9.984C195.222 15.547 188.854 20.466 188.854 25.486z"/><ellipse fill="#409D8B" cx="211.125" cy="19.98" rx="12.942" ry="4.434"/><path fill="#409D8B" d="M220.176 13.473c0 0 0.786-2.967-1.252-3.574s-10.01-0.822-10.618 0C207.698 10.721 220.176 13.473 220.176 13.473z"/><path fill="#409D8B" d="M208.342 8.004c0 0-8.619 2.096-9.688 7.006 -1.145 5.257 2.609 6.937 13.943 8.795C216.634 24.467 208.342 8.004 208.342 8.004z"/><path fill="#409D8B" d="M208.271 8.934c0 0-6.578 1.036-6.757 5.255s4.005 7.544 6.257 8.187c2.252 0.644 3.002-1.072 2.717-3.754C210.201 15.94 208.271 8.934 208.271 8.934z"/><path fill="#409D8B" d="M207.733 8.719c0 0-5.576 1.251-5.576 4.969 0 3.719 3.61 4.541 5.076 4.827 1.467 0.286 6.078 2.646 6.078 3.79 0 1.143 0.035 1.43 0.035 1.43s3.146-2.754 3.934-2.824C218.065 20.838 207.733 8.719 207.733 8.719z"/><path fill="#409D8B" d="M214.897 5.871c1.409 1.636 1.818 3.549 1.033 4.941 -1.077 1.91-4.744 3.359-7.77 1.818 -2.277-1.158-2.459-4.389-1.348-6.279 1.301-2.215 3.846-3.946 5.727-3.158C213.862 3.746 213.974 4.797 214.897 5.871z"/><path opacity="0.29" fill="#409D8B" d="M214.05 4.761c0 0-1.011-1.209-1.622-0.96 -0.485 0.197 0.499 1.319 0.751 1.767 0.251 0.448 1.99 2.692 2.537 2.465C216.261 7.804 214.67 5.795 214.05 4.761z"/><path fill="#409D8B" d="M215.095 6.944c-0.172 0.557-0.732-0.187-1.095-0.477 -0.618-0.499-0.882-1.251-0.731-1.439 0.18-0.227 0.504-0.171 0.999 0.401C214.85 6.101 215.216 6.553 215.095 6.944z"/><path opacity="0.21" fill="#409D8B" d="M208.161 12.631c3.025 1.541 6.692 0.092 7.77-1.818 0.174-0.309 0.279-0.646 0.338-0.996 -0.152-0.393-0.318-0.767-0.475-1 -0.516-0.768-0.941-0.983-0.941-0.983s0.594 1.606-1.001 2.047c-1.48 0.411-5.673 1.995-7.686-0.569C206.261 10.668 206.878 11.979 208.161 12.631z"/><path opacity="0.34" fill="#409D8B" d="M207.991 5.912c0.775-0.778 3.156-2.123 3.438-2.566 0.118-0.186 0.479-0.236 0.86-0.236 -1.852-0.547-4.232 1.122-5.477 3.242 -0.406 0.693-0.639 1.566-0.659 2.451C206.345 8.431 207.296 6.608 207.991 5.912z"/><path opacity="0.19" fill="#409D8B" d="M210.085 5.594c0 0 0.518-0.697 1.441-0.146 0.924 0.549 1.535 1.287 1.605 1.723s-0.876 0.086-1.469-0.375C211.069 6.334 209.911 6.037 210.085 5.594z"/><path opacity="0.73" fill="#409D8B" d="M210.907 5.506c0 0 0.787 0.188 0.999 0.455 0.209 0.265 0.622 0.662 0.504 0.787 -0.118 0.127-0.796-0.483-0.859-0.516C211.486 6.199 209.976 5.856 210.907 5.506z"/><path fill="#409D8B" d="M207.27 9.826c0 0-1.751 1.752-1.751 4.362s2.287 3.683 3.932 3.683 3.969 0.465 5.112 1.537 1.786 1.823 3.503 2.073c1.717 0.251 3.897 0.394 4.041-0.536C222.249 20.016 207.27 9.826 207.27 9.826z"/><path fill="#409D8B" d="M217.602 17.228c2.267 1.396 5.167 1.11 6.185 1.358 0 0 1.645-2.324 0.751-3.719s-2.932-2.252-4.397-2.395c-1.465-0.143-4.684-1.251-6.221-1.823s-3.503 0.25-3.79 1.001c-0.286 0.75-0.571 1.716-0.571 1.716S214.062 15.047 217.602 17.228z"/><path fill="#409D8B" d="M207.448 10.221c0 0-0.822 2.145 1.573 3.003s6.149 1.751 7.722 3.575c1.572 1.822 4.684 5.361 5.578 4.433 0.893-0.93 3.074-2.931 1.465-3.539 -1.609-0.607-5.577-0.179-6.863-1.501 -1.288-1.324-2.433-1.753-4.435-2.36C210.487 13.224 208.878 12.902 207.448 10.221z"/><path fill="#409D8B" d="M211.653 51.154c10.256 0 18.933-2.386 21.806-5.669 -0.001 0.482-0.002 0.923-0.002 1.309 0 5.173-9.894 9.366-22.095 9.366s-22.094-4.193-22.094-9.366c0-0.728-0.001-1.429-0.002-2.123C191.327 48.367 200.565 51.154 211.653 51.154z"/><path opacity="0.49" fill="#409D8B" d="M228.524 20.193c2.062 1.1 3.266 2.409 3.266 3.816 0 3.885-9.123 7.033-20.379 7.033 -10.824 0-19.674-2.914-20.334-6.592 -0.025 0.152-0.043 0.307-0.043 0.463 0 4.146 9.443 7.508 21.093 7.508 11.648 0 21.093-3.361 21.093-7.508C233.22 23.125 231.458 21.482 228.524 20.193z"/><path opacity="0.49" fill="#409D8B" d="M222.065 35.746c0 0 7.508-5.147 7.937 2.896C228.93 36.927 229.144 34.03 222.065 35.746z"/><path opacity="0.51" fill="#409D8B" d="M230.538 39.394c0 0-0.053 2.305-0.75 3.324C231.396 42.718 230.538 39.394 230.538 39.394z"/><path opacity="0.16" fill="#409D8B" d="M224.734 19.351c0.009 0.141 0.015 0.282 0.015 0.424 0 4.396-5.286 9.636-11.156 9.751 4.075 0.751 17.072-1.715 17.072-5.836C230.665 21.797 228.254 20.157 224.734 19.351z"/><path opacity="0.5" fill="#409D8B" d="M221.153 37.812c0 0-1.877 2.387-1.877 5.121s-1.232 3.164-2.037 2.037c1.252-0.035 1.358-1.09 1.358-2.216S218.687 39.009 221.153 37.812z"/><path fill="#409D8B" d="M212.77 41.896c0 0-1.858 0.071-2.573 1.966 -0.715 1.896-1.896 5.185-3.861 2.861 1.572 0.464 2.109-0.537 2.932-2.181C210.089 42.896 210.696 41.753 212.77 41.896z"/><path opacity="0.33" fill="#409D8B" d="M227.964 31.242c0 0 4.184-1.932 5.471-3.969 0 2.252 0.43 3.646-0.645 4.934 -1.072 1.287-1.93 2.467-2.145 3.432C230.002 33.28 229.788 31.563 227.964 31.242z"/><path fill="#409D8B" d="M249.054 45.936c0 5.174 9.9 9.367 22.068 9.367s22.031-4.193 22.031-9.367c0-3.659 0-11.94 0-18.519 -3.395 0-40.523 0-44.1 0C249.054 36.927 249.054 40.763 249.054 45.936z"/><path fill="#409D8B" d="M248.677 26.344c0 0.602-1.209 3.754 0.391 3.754 0.971 0 0.58-1.272 1.424-0.32 2.953 3.324 3.807 9.188 6.904 12.083 1.476 1.379 3.472 0.895 5.177 1.716 2.562 1.232 1.728 5.22 5.091 5.22 2.936 0 1.955-5.488 4.837-5.488 3.039 0 3.267 3.7 5.285 3.7 2.615 0 1.394-6.104 4.003-8.58 3.842-3.646 6.809-1.153 6.244 1.019 -0.64 2.468 0.205 4.559 1.389 4.559 1.867 0 1.432-3.67 1.334-4.665 -0.267-2.735 1.012-4.611 2.029-5.417 1.557-1.234 1.174-6.054 1.174-7.534 0-5.02-7.602-9.984-22.975-9.984C255.042 16.404 248.677 21.324 248.677 26.344z"/><path fill="#409D8B" d="M248.604 25.486c0 0.601-1.209 3.754 0.393 3.754 0.971 0 0.578-1.273 1.424-0.321 2.953 3.324 3.805 9.189 6.903 12.083 1.476 1.38 3.472 0.895 5.177 1.716 2.561 1.232 1.762 5.363 5.124 5.363 2.935 0 1.921-5.632 4.804-5.632 3.038 0 3.267 3.701 5.285 3.701 2.615 0 1.393-6.105 4.003-8.581 3.842-3.646 6.808-1.153 6.244 1.02 -0.64 2.467 0.204 4.558 1.388 4.558 1.869 0 1.432-3.671 1.334-4.665 -0.267-2.735 1.012-4.61 2.029-5.416 1.558-1.235 1.174-6.054 1.174-7.534 0-5.021-7.602-9.984-22.973-9.984C254.972 15.547 248.604 20.466 248.604 25.486z"/><ellipse fill="#409D8B" cx="270.875" cy="19.98" rx="12.942" ry="4.434"/><path fill="#409D8B" d="M279.926 13.473c0 0 0.786-2.967-1.252-3.574s-10.01-0.822-10.618 0C267.448 10.721 279.926 13.473 279.926 13.473z"/><path fill="#409D8B" d="M268.092 8.004c0 0-8.619 2.096-9.688 7.006 -1.145 5.257 2.609 6.937 13.943 8.795C276.384 24.467 268.092 8.004 268.092 8.004z"/><path fill="#409D8B" d="M268.021 8.934c0 0-6.578 1.036-6.757 5.255s4.005 7.544 6.257 8.187c2.252 0.644 3.002-1.072 2.717-3.754C269.951 15.94 268.021 8.934 268.021 8.934z"/><path fill="#409D8B" d="M267.483 8.719c0 0-5.576 1.251-5.576 4.969 0 3.719 3.61 4.541 5.076 4.827 1.467 0.286 6.078 2.646 6.078 3.79 0 1.143 0.035 1.43 0.035 1.43s3.146-2.754 3.934-2.824C277.815 20.838 267.483 8.719 267.483 8.719z"/><path fill="#409D8B" d="M274.647 5.871c1.409 1.636 1.818 3.549 1.033 4.941 -1.077 1.91-4.744 3.359-7.77 1.818 -2.277-1.158-2.459-4.389-1.348-6.279 1.301-2.215 3.846-3.946 5.727-3.158C273.612 3.746 273.724 4.797 274.647 5.871z"/><path opacity="0.29" fill="#409D8B" d="M273.8 4.761c0 0-1.011-1.209-1.622-0.96 -0.485 0.197 0.499 1.319 0.751 1.767 0.251 0.448 1.99 2.692 2.537 2.465C276.011 7.804 274.42 5.795 273.8 4.761z"/><path fill="#409D8B" d="M274.845 6.944c-0.172 0.557-0.732-0.187-1.095-0.477 -0.618-0.499-0.882-1.251-0.731-1.439 0.18-0.227 0.504-0.171 0.999 0.401C274.6 6.101 274.966 6.553 274.845 6.944z"/><path opacity="0.21" fill="#409D8B" d="M267.911 12.631c3.025 1.541 6.692 0.092 7.77-1.818 0.174-0.309 0.279-0.646 0.338-0.996 -0.152-0.393-0.318-0.767-0.475-1 -0.516-0.768-0.941-0.983-0.941-0.983s0.594 1.606-1.001 2.047c-1.48 0.411-5.673 1.995-7.686-0.569C266.011 10.668 266.628 11.979 267.911 12.631z"/><path opacity="0.34" fill="#409D8B" d="M267.741 5.912c0.775-0.778 3.156-2.123 3.438-2.566 0.118-0.186 0.479-0.236 0.86-0.236 -1.852-0.547-4.232 1.122-5.477 3.242 -0.406 0.693-0.639 1.566-0.659 2.451C266.095 8.431 267.046 6.608 267.741 5.912z"/><path opacity="0.19" fill="#409D8B" d="M269.835 5.594c0 0 0.518-0.697 1.441-0.146 0.924 0.549 1.535 1.287 1.605 1.723s-0.876 0.086-1.469-0.375C270.819 6.334 269.661 6.037 269.835 5.594z"/><path opacity="0.73" fill="#409D8B" d="M270.657 5.506c0 0 0.787 0.188 0.999 0.455 0.209 0.265 0.622 0.662 0.504 0.787 -0.118 0.127-0.796-0.483-0.859-0.516C271.236 6.199 269.726 5.856 270.657 5.506z"/><path fill="#409D8B" d="M267.02 9.826c0 0-1.751 1.752-1.751 4.362s2.287 3.683 3.932 3.683 3.969 0.465 5.112 1.537 1.786 1.823 3.503 2.073c1.717 0.251 3.897 0.394 4.041-0.536C281.999 20.016 267.02 9.826 267.02 9.826z"/><path fill="#409D8B" d="M277.352 17.228c2.267 1.396 5.167 1.11 6.185 1.358 0 0 1.645-2.324 0.751-3.719s-2.932-2.252-4.397-2.395c-1.465-0.143-4.684-1.251-6.221-1.823s-3.503 0.25-3.79 1.001c-0.286 0.75-0.571 1.716-0.571 1.716S273.812 15.047 277.352 17.228z"/><path fill="#409D8B" d="M267.198 10.221c0 0-0.822 2.145 1.573 3.003s6.149 1.751 7.722 3.575c1.572 1.822 4.684 5.361 5.578 4.433 0.893-0.93 3.074-2.931 1.465-3.539 -1.609-0.607-5.577-0.179-6.863-1.501 -1.288-1.324-2.433-1.753-4.435-2.36C270.237 13.224 268.628 12.902 267.198 10.221z"/><path fill="#409D8B" d="M271.403 51.154c10.256 0 18.933-2.386 21.806-5.669 -0.001 0.482-0.002 0.923-0.002 1.309 0 5.173-9.894 9.366-22.095 9.366s-22.094-4.193-22.094-9.366c0-0.728-0.001-1.429-0.002-2.123C251.077 48.367 260.315 51.154 271.403 51.154z"/><path opacity="0.49" fill="#409D8B" d="M288.274 20.193c2.062 1.1 3.266 2.409 3.266 3.816 0 3.885-9.123 7.033-20.379 7.033 -10.824 0-19.674-2.914-20.334-6.592 -0.025 0.152-0.043 0.307-0.043 0.463 0 4.146 9.443 7.508 21.093 7.508 11.648 0 21.093-3.361 21.093-7.508C292.97 23.125 291.208 21.482 288.274 20.193z"/><path opacity="0.49" fill="#409D8B" d="M281.815 35.746c0 0 7.508-5.147 7.937 2.896C288.68 36.927 288.894 34.03 281.815 35.746z"/><path opacity="0.51" fill="#409D8B" d="M290.288 39.394c0 0-0.053 2.305-0.75 3.324C291.146 42.718 290.288 39.394 290.288 39.394z"/><path opacity="0.16" fill="#409D8B" d="M284.484 19.351c0.009 0.141 0.015 0.282 0.015 0.424 0 4.396-5.286 9.636-11.156 9.751 4.075 0.751 17.072-1.715 17.072-5.836C290.415 21.797 288.004 20.157 284.484 19.351z"/><path opacity="0.5" fill="#409D8B" d="M280.903 37.812c0 0-1.877 2.387-1.877 5.121s-1.232 3.164-2.037 2.037c1.252-0.035 1.358-1.09 1.358-2.216S278.437 39.009 280.903 37.812z"/><path fill="#409D8B" d="M272.52 41.896c0 0-1.858 0.071-2.573 1.966 -0.715 1.896-1.896 5.185-3.861 2.861 1.572 0.464 2.109-0.537 2.932-2.181C269.839 42.896 270.446 41.753 272.52 41.896z"/><path opacity="0.33" fill="#409D8B" d="M287.714 31.242c0 0 4.184-1.932 5.471-3.969 0 2.252 0.43 3.646-0.645 4.934 -1.072 1.287-1.93 2.467-2.145 3.432C289.752 33.28 289.538 31.563 287.714 31.242z"/></svg>