<svg version="1.1" xmlns="http://www.w3.org/2000/svg" x="0" y="0" width="300" height="60" viewBox="0 0 300 60" enable-background="new 0 0 300 60" xml:space="preserve"><g id="Layer_11_copy"><path fill="#409D8B" d="M10.05 45.94c0 5.17 9.9 9.37 22.07 9.37 12.17 0 22.03-4.19 22.03-9.37 0-3.66 0-11.94 0-18.52 -3.39 0-40.52 0-44.1 0C10.05 36.93 10.05 40.76 10.05 45.94z"/><path fill="#409D8B" d="M9.68 26.34c0 0.6-1.21 3.75 0.39 3.75 0.97 0 0.58-1.27 1.42-0.32 2.95 3.33 3.81 9.19 6.9 12.08 1.48 1.38 3.47 0.9 5.18 1.72 2.56 1.23 1.73 5.22 5.09 5.22 2.94 0 1.96-5.49 4.84-5.49 3.04 0 3.27 3.7 5.29 3.7 2.62 0 1.39-6.1 4-8.58 3.84-3.65 6.81-1.15 6.25 1.02 -0.64 2.47 0.2 4.56 1.39 4.56 1.87 0 1.43-3.67 1.33-4.66 -0.27-2.73 1.01-4.61 2.03-5.42 1.56-1.23 1.17-6.05 1.17-7.53 0-5.02-7.6-9.98-22.97-9.98C16.04 16.41 9.68 21.32 9.68 26.34z"/><path fill="#409D8B" d="M9.61 25.49c0 0.6-1.21 3.75 0.39 3.75 0.97 0 0.58-1.27 1.42-0.32 2.95 3.32 3.81 9.19 6.9 12.08 1.48 1.38 3.47 0.9 5.18 1.72 2.56 1.23 1.76 5.36 5.12 5.36 2.94 0 1.92-5.63 4.8-5.63 3.04 0 3.27 3.7 5.29 3.7 2.62 0 1.39-6.1 4-8.58 3.84-3.65 6.81-1.15 6.24 1.02 -0.64 2.47 0.21 4.56 1.39 4.56 1.87 0 1.43-3.67 1.33-4.66 -0.27-2.73 1.01-4.61 2.03-5.42 1.56-1.24 1.17-6.05 1.17-7.53 0-5.02-7.6-9.98-22.97-9.98C15.97 15.55 9.61 20.47 9.61 25.49z"/><ellipse fill="#409D8B" cx="31.88" cy="19.98" rx="12.94" ry="4.43"/><path fill="#409D8B" d="M40.93 13.47c0 0 0.79-2.97-1.25-3.57 -2.04-0.61-10.01-0.82-10.62 0C28.45 10.72 40.93 13.47 40.93 13.47z"/><path fill="#409D8B" d="M29.09 8c0 0-8.62 2.1-9.69 7.01 -1.14 5.26 2.61 6.94 13.94 8.8C37.38 24.47 29.09 8 29.09 8z"/><path fill="#409D8B" d="M29.02 8.93c0 0-6.58 1.04-6.76 5.26s4 7.54 6.26 8.19c2.25 0.64 3-1.07 2.72-3.75C30.95 15.94 29.02 8.93 29.02 8.93z"/><path fill="#409D8B" d="M28.48 8.72c0 0-5.58 1.25-5.58 4.97s3.61 4.54 5.08 4.83c1.47 0.29 6.08 2.65 6.08 3.79s0.04 1.43 0.04 1.43 3.15-2.75 3.93-2.82S28.48 8.72 28.48 8.72z"/><path fill="#409D8B" d="M35.65 5.87c1.41 1.64 1.82 3.55 1.03 4.94 -1.08 1.91-4.74 3.36-7.77 1.82 -2.28-1.16-2.46-4.39-1.35-6.28 1.3-2.21 3.85-3.95 5.73-3.16C34.61 3.75 34.72 4.8 35.65 5.87z"/><path opacity="0.29" fill="#409D8B" d="M34.8 4.76c0 0-1.01-1.21-1.62-0.96 -0.48 0.2 0.5 1.32 0.75 1.77 0.25 0.45 1.99 2.69 2.54 2.47C37.01 7.8 35.42 5.79 34.8 4.76z"/><path fill="#409D8B" d="M35.85 6.94c-0.17 0.56-0.73-0.19-1.09-0.48 -0.62-0.5-0.88-1.25-0.73-1.44 0.18-0.23 0.5-0.17 1 0.4C35.6 6.1 35.97 6.55 35.85 6.94z"/><path opacity="0.21" fill="#409D8B" d="M28.91 12.63c3.03 1.54 6.69 0.09 7.77-1.82 0.17-0.31 0.28-0.64 0.34-1C36.87 9.42 36.7 9.05 36.54 8.82c-0.52-0.77-0.94-0.98-0.94-0.98s0.59 1.61-1 2.05c-1.48 0.41-5.67 2-7.69-0.57C27.01 10.67 27.63 11.98 28.91 12.63z"/><path opacity="0.34" fill="#409D8B" d="M28.74 5.91c0.78-0.78 3.16-2.12 3.44-2.56 0.12-0.19 0.48-0.24 0.86-0.24 -1.85-0.55-4.23 1.12-5.48 3.24 -0.41 0.69-0.64 1.57-0.66 2.45C27.1 8.43 28.05 6.61 28.74 5.91z"/><path opacity="0.19" fill="#409D8B" d="M30.83 5.59c0 0 0.52-0.7 1.44-0.15 0.92 0.55 1.54 1.29 1.61 1.72 0.07 0.44-0.88 0.09-1.47-0.37C31.82 6.33 30.66 6.04 30.83 5.59z"/><path opacity="0.73" fill="#409D8B" d="M31.66 5.51c0 0 0.79 0.19 1 0.46 0.21 0.27 0.62 0.66 0.5 0.79 -0.12 0.13-0.8-0.48-0.86-0.52C32.24 6.2 30.73 5.86 31.66 5.51z"/><path fill="#409D8B" d="M28.02 9.83c0 0-1.75 1.75-1.75 4.36s2.29 3.68 3.93 3.68c1.65 0 3.97 0.47 5.11 1.54 1.14 1.07 1.79 1.82 3.5 2.07 1.72 0.25 3.9 0.39 4.04-0.54C43 20.02 28.02 9.83 28.02 9.83z"/><path fill="#409D8B" d="M38.35 17.23c2.27 1.4 5.17 1.11 6.19 1.36 0 0 1.64-2.32 0.75-3.72s-2.93-2.25-4.4-2.39c-1.46-0.14-4.68-1.25-6.22-1.82 -1.54-0.57-3.5 0.25-3.79 1 -0.29 0.75-0.57 1.72-0.57 1.72S34.81 15.05 38.35 17.23z"/><path fill="#409D8B" d="M28.2 10.22c0 0-0.82 2.15 1.57 3s6.15 1.75 7.72 3.58c1.57 1.82 4.68 5.36 5.58 4.43 0.89-0.93 3.07-2.93 1.47-3.54 -1.61-0.61-5.58-0.18-6.86-1.5 -1.29-1.32-2.43-1.75-4.43-2.36C31.24 13.22 29.63 12.9 28.2 10.22z"/><path fill="#409D8B" d="M32.4 51.15c10.26 0 18.93-2.39 21.81-5.67 0 0.48 0 0.92 0 1.31 0 5.17-9.89 9.37-22.09 9.37 -12.2 0-22.09-4.19-22.09-9.37 0-0.73 0-1.43 0-2.12C12.08 48.37 21.32 51.15 32.4 51.15z"/><path opacity="0.49" fill="#409D8B" d="M49.27 20.19c2.06 1.1 3.27 2.41 3.27 3.82 0 3.88-9.12 7.03-20.38 7.03 -10.82 0-19.67-2.91-20.33-6.59 -0.03 0.15-0.04 0.31-0.04 0.46 0 4.15 9.44 7.51 21.09 7.51 11.65 0 21.09-3.36 21.09-7.51C53.97 23.13 52.21 21.48 49.27 20.19z"/><path opacity="0.49" fill="#409D8B" d="M42.82 35.75c0 0 7.51-5.15 7.94 2.9C49.68 36.93 49.89 34.03 42.82 35.75z"/><path opacity="0.51" fill="#409D8B" d="M51.29 39.39c0 0-0.05 2.31-0.75 3.32C52.15 42.72 51.29 39.39 51.29 39.39z"/><path opacity="0.16" fill="#409D8B" d="M45.48 19.35c0.01 0.14 0.02 0.28 0.02 0.42 0 4.4-5.29 9.64-11.16 9.75 4.08 0.75 17.07-1.72 17.07-5.84C51.42 21.8 49 20.16 45.48 19.35z"/><path opacity="0.5" fill="#409D8B" d="M41.9 37.81c0 0-1.88 2.39-1.88 5.12s-1.23 3.16-2.04 2.04c1.25-0.04 1.36-1.09 1.36-2.22S39.44 39.01 41.9 37.81z"/><path fill="#409D8B" d="M33.52 41.9c0 0-1.86 0.07-2.57 1.97 -0.71 1.9-1.89 5.19-3.86 2.86 1.57 0.46 2.11-0.54 2.93-2.18C30.84 42.9 31.45 41.75 33.52 41.9z"/><path opacity="0.33" fill="#409D8B" d="M48.71 31.24c0 0 4.18-1.93 5.47-3.97 0 2.25 0.43 3.65-0.64 4.93 -1.07 1.29-1.93 2.47-2.14 3.43C50.75 33.28 50.54 31.56 48.71 31.24z"/><path fill="#409D8B" d="M69.8 45.94c0 5.17 9.9 9.37 22.07 9.37s22.03-4.19 22.03-9.37c0-3.66 0-11.94 0-18.52 -3.39 0-40.52 0-44.1 0C69.8 36.93 69.8 40.76 69.8 45.94z"/><path fill="#409D8B" d="M69.43 26.34c0 0.6-1.21 3.75 0.39 3.75 0.97 0 0.58-1.27 1.42-0.32 2.95 3.32 3.81 9.19 6.9 12.08 1.48 1.38 3.47 0.9 5.18 1.72 2.56 1.23 1.73 5.22 5.09 5.22 2.94 0 1.96-5.49 4.84-5.49 3.04 0 3.27 3.7 5.29 3.7 2.62 0 1.39-6.1 4-8.58 3.84-3.65 6.81-1.15 6.24 1.02 -0.64 2.47 0.21 4.56 1.39 4.56 1.87 0 1.43-3.67 1.33-4.66 -0.27-2.73 1.01-4.61 2.03-5.42 1.56-1.23 1.17-6.05 1.17-7.53 0-5.02-7.6-9.98-22.97-9.98C75.79 16.4 69.43 21.32 69.43 26.34z"/><path fill="#409D8B" d="M69.35 25.49c0 0.6-1.21 3.75 0.39 3.75 0.97 0 0.58-1.27 1.42-0.32 2.95 3.32 3.81 9.19 6.9 12.08 1.48 1.38 3.47 0.9 5.18 1.72 2.56 1.23 1.76 5.36 5.12 5.36 2.94 0 1.92-5.63 4.8-5.63 3.04 0 3.27 3.7 5.29 3.7 2.62 0 1.39-6.1 4-8.58 3.84-3.65 6.81-1.15 6.24 1.02 -0.64 2.47 0.2 4.56 1.39 4.56 1.87 0 1.43-3.67 1.33-4.66 -0.27-2.73 1.01-4.61 2.03-5.42 1.56-1.24 1.17-6.05 1.17-7.53 0-5.02-7.6-9.98-22.97-9.98C75.72 15.55 69.35 20.47 69.35 25.49z"/><ellipse fill="#409D8B" cx="91.63" cy="19.98" rx="12.94" ry="4.43"/><path fill="#409D8B" d="M100.68 13.47c0 0 0.79-2.97-1.25-3.57s-10.01-0.82-10.62 0C88.2 10.72 100.68 13.47 100.68 13.47z"/><path fill="#409D8B" d="M88.84 8c0 0-8.62 2.1-9.69 7.01 -1.14 5.26 2.61 6.94 13.94 8.8C97.13 24.47 88.84 8 88.84 8z"/><path fill="#409D8B" d="M88.77 8.93c0 0-6.58 1.04-6.76 5.26s4.01 7.54 6.26 8.19c2.25 0.64 3-1.07 2.72-3.75C90.7 15.94 88.77 8.93 88.77 8.93z"/><path fill="#409D8B" d="M88.23 8.72c0 0-5.58 1.25-5.58 4.97 0 3.72 3.61 4.54 5.08 4.83 1.47 0.29 6.08 2.65 6.08 3.79 0 1.14 0.04 1.43 0.04 1.43s3.15-2.75 3.93-2.82C98.57 20.84 88.23 8.72 88.23 8.72z"/><path fill="#409D8B" d="M95.4 5.87c1.41 1.64 1.82 3.55 1.03 4.94 -1.08 1.91-4.74 3.36-7.77 1.82 -2.28-1.16-2.46-4.39-1.35-6.28 1.3-2.21 3.85-3.95 5.73-3.16C94.36 3.75 94.47 4.8 95.4 5.87z"/><path opacity="0.29" fill="#409D8B" d="M94.55 4.76c0 0-1.01-1.21-1.62-0.96 -0.48 0.2 0.5 1.32 0.75 1.77 0.25 0.45 1.99 2.69 2.54 2.47C96.76 7.8 95.17 5.8 94.55 4.76z"/><path fill="#409D8B" d="M95.6 6.94c-0.17 0.56-0.73-0.19-1.09-0.48 -0.62-0.5-0.88-1.25-0.73-1.44 0.18-0.23 0.5-0.17 1 0.4C95.35 6.1 95.72 6.55 95.6 6.94z"/><path opacity="0.21" fill="#409D8B" d="M88.66 12.63c3.03 1.54 6.69 0.09 7.77-1.82 0.17-0.31 0.28-0.65 0.34-1 -0.15-0.39-0.32-0.77-0.47-1 -0.52-0.77-0.94-0.98-0.94-0.98s0.59 1.61-1 2.05c-1.48 0.41-5.67 2-7.69-0.57C86.76 10.67 87.38 11.98 88.66 12.63z"/><path opacity="0.34" fill="#409D8B" d="M88.49 5.91c0.78-0.78 3.16-2.12 3.44-2.57 0.12-0.19 0.48-0.24 0.86-0.24 -1.85-0.55-4.23 1.12-5.48 3.24 -0.41 0.69-0.64 1.57-0.66 2.45C86.85 8.43 87.8 6.61 88.49 5.91z"/><path opacity="0.19" fill="#409D8B" d="M90.59 5.59c0 0 0.52-0.7 1.44-0.15 0.92 0.55 1.54 1.29 1.61 1.72s-0.88 0.09-1.47-0.37C91.57 6.33 90.41 6.04 90.59 5.59z"/><path opacity="0.73" fill="#409D8B" d="M91.41 5.51c0 0 0.79 0.19 1 0.46 0.21 0.27 0.62 0.66 0.5 0.79 -0.12 0.13-0.8-0.48-0.86-0.52C91.99 6.2 90.48 5.86 91.41 5.51z"/><path fill="#409D8B" d="M87.77 9.83c0 0-1.75 1.75-1.75 4.36s2.29 3.68 3.93 3.68 3.97 0.47 5.11 1.54 1.79 1.82 3.5 2.07c1.72 0.25 3.9 0.39 4.04-0.54C102.75 20.02 87.77 9.83 87.77 9.83z"/><path fill="#409D8B" d="M98.1 17.23c2.27 1.4 5.17 1.11 6.19 1.36 0 0 1.65-2.32 0.75-3.72s-2.93-2.25-4.4-2.39c-1.46-0.14-4.68-1.25-6.22-1.82s-3.5 0.25-3.79 1c-0.29 0.75-0.57 1.72-0.57 1.72S94.56 15.05 98.1 17.23z"/><path fill="#409D8B" d="M87.95 10.22c0 0-0.82 2.15 1.57 3s6.15 1.75 7.72 3.58c1.57 1.82 4.68 5.36 5.58 4.43 0.89-0.93 3.07-2.93 1.47-3.54 -1.61-0.61-5.58-0.18-6.86-1.5 -1.29-1.32-2.43-1.75-4.43-2.36C90.99 13.22 89.38 12.9 87.95 10.22z"/><path fill="#409D8B" d="M92.15 51.15c10.26 0 18.93-2.39 21.81-5.67 0 0.48 0 0.92 0 1.31 0 5.17-9.89 9.37-22.09 9.37s-22.09-4.19-22.09-9.37c0-0.73 0-1.43 0-2.12C71.83 48.37 81.07 51.15 92.15 51.15z"/><path opacity="0.49" fill="#409D8B" d="M109.02 20.19c2.06 1.1 3.27 2.41 3.27 3.82 0 3.89-9.12 7.03-20.38 7.03 -10.82 0-19.67-2.91-20.33-6.59 -0.02 0.15-0.04 0.31-0.04 0.46 0 4.15 9.44 7.51 21.09 7.51 11.65 0 21.09-3.36 21.09-7.51C113.72 23.13 111.96 21.48 109.02 20.19z"/><path opacity="0.49" fill="#409D8B" d="M102.57 35.75c0 0 7.51-5.15 7.94 2.9C109.43 36.93 109.64 34.03 102.57 35.75z"/><path opacity="0.51" fill="#409D8B" d="M111.04 39.39c0 0-0.05 2.31-0.75 3.32C111.9 42.72 111.04 39.39 111.04 39.39z"/><path opacity="0.16" fill="#409D8B" d="M105.23 19.35c0.01 0.14 0.02 0.28 0.02 0.42 0 4.4-5.29 9.64-11.16 9.75 4.08 0.75 17.07-1.71 17.07-5.84C111.17 21.8 108.75 20.16 105.23 19.35z"/><path opacity="0.5" fill="#409D8B" d="M101.65 37.81c0 0-1.88 2.39-1.88 5.12s-1.23 3.16-2.04 2.04c1.25-0.04 1.36-1.09 1.36-2.22S99.19 39.01 101.65 37.81z"/><path fill="#409D8B" d="M93.27 41.9c0 0-1.86 0.07-2.57 1.97 -0.71 1.9-1.9 5.19-3.86 2.86 1.57 0.46 2.11-0.54 2.93-2.18C90.59 42.9 91.2 41.75 93.27 41.9z"/><path opacity="0.33" fill="#409D8B" d="M108.46 31.24c0 0 4.18-1.93 5.47-3.97 0 2.25 0.43 3.65-0.64 4.93 -1.07 1.29-1.93 2.47-2.14 3.43C110.5 33.28 110.29 31.56 108.46 31.24z"/><path fill="#409D8B" d="M129.55 45.94c0 5.17 9.9 9.37 22.07 9.37s22.03-4.19 22.03-9.37c0-3.66 0-11.94 0-18.52 -3.39 0-40.52 0-44.1 0C129.55 36.93 129.55 40.76 129.55 45.94z"/><path fill="#409D8B" d="M129.18 26.34c0 0.6-1.21 3.75 0.39 3.75 0.97 0 0.58-1.27 1.42-0.32 2.95 3.32 3.81 9.19 6.9 12.08 1.48 1.38 3.47 0.9 5.18 1.72 2.56 1.23 1.73 5.22 5.09 5.22 2.94 0 1.96-5.49 4.84-5.49 3.04 0 3.27 3.7 5.29 3.7 2.62 0 1.39-6.1 4-8.58 3.84-3.65 6.81-1.15 6.24 1.02 -0.64 2.47 0.21 4.56 1.39 4.56 1.87 0 1.43-3.67 1.33-4.66 -0.27-2.73 1.01-4.61 2.03-5.42 1.56-1.23 1.17-6.05 1.17-7.53 0-5.02-7.6-9.98-22.97-9.98C135.54 16.4 129.18 21.32 129.18 26.34z"/><path fill="#409D8B" d="M129.1 25.49c0 0.6-1.21 3.75 0.39 3.75 0.97 0 0.58-1.27 1.42-0.32 2.95 3.32 3.81 9.19 6.9 12.08 1.48 1.38 3.47 0.9 5.18 1.72 2.56 1.23 1.76 5.36 5.12 5.36 2.94 0 1.92-5.63 4.8-5.63 3.04 0 3.27 3.7 5.29 3.7 2.62 0 1.39-6.1 4-8.58 3.84-3.65 6.81-1.15 6.24 1.02 -0.64 2.47 0.2 4.56 1.39 4.56 1.87 0 1.43-3.67 1.33-4.66 -0.27-2.73 1.01-4.61 2.03-5.42 1.56-1.24 1.17-6.05 1.17-7.53 0-5.02-7.6-9.98-22.97-9.98C135.47 15.55 129.1 20.47 129.1 25.49z"/><ellipse fill="#409D8B" cx="151.38" cy="19.98" rx="12.94" ry="4.43"/><path fill="#409D8B" d="M160.43 13.47c0 0 0.79-2.97-1.25-3.57s-10.01-0.82-10.62 0C147.95 10.72 160.43 13.47 160.43 13.47z"/><path fill="#409D8B" d="M148.59 8c0 0-8.62 2.1-9.69 7.01 -1.14 5.26 2.61 6.94 13.94 8.8C156.88 24.47 148.59 8 148.59 8z"/><path fill="#409D8B" d="M148.52 8.93c0 0-6.58 1.04-6.76 5.26s4.01 7.54 6.26 8.19c2.25 0.64 3-1.07 2.72-3.75C150.45 15.94 148.52 8.93 148.52 8.93z"/><path fill="#409D8B" d="M147.98 8.72c0 0-5.58 1.25-5.58 4.97 0 3.72 3.61 4.54 5.08 4.83 1.47 0.29 6.08 2.65 6.08 3.79 0 1.14 0.04 1.43 0.04 1.43s3.15-2.75 3.93-2.82C158.32 20.84 147.98 8.72 147.98 8.72z"/><path fill="#409D8B" d="M155.15 5.87c1.41 1.64 1.82 3.55 1.03 4.94 -1.08 1.91-4.74 3.36-7.77 1.82 -2.28-1.16-2.46-4.39-1.35-6.28 1.3-2.21 3.85-3.95 5.73-3.16C154.11 3.75 154.22 4.8 155.15 5.87z"/><path opacity="0.29" fill="#409D8B" d="M154.3 4.76c0 0-1.01-1.21-1.62-0.96 -0.48 0.2 0.5 1.32 0.75 1.77 0.25 0.45 1.99 2.69 2.54 2.47C156.51 7.8 154.92 5.8 154.3 4.76z"/><path fill="#409D8B" d="M155.35 6.94c-0.17 0.56-0.73-0.19-1.09-0.48 -0.62-0.5-0.88-1.25-0.73-1.44 0.18-0.23 0.5-0.17 1 0.4C155.1 6.1 155.47 6.55 155.35 6.94z"/><path opacity="0.21" fill="#409D8B" d="M148.41 12.63c3.03 1.54 6.69 0.09 7.77-1.82 0.17-0.31 0.28-0.65 0.34-1 -0.15-0.39-0.32-0.77-0.47-1 -0.52-0.77-0.94-0.98-0.94-0.98s0.59 1.61-1 2.05c-1.48 0.41-5.67 2-7.69-0.57C146.51 10.67 147.13 11.98 148.41 12.63z"/><path opacity="0.34" fill="#409D8B" d="M148.24 5.91c0.78-0.78 3.16-2.12 3.44-2.57 0.12-0.19 0.48-0.24 0.86-0.24 -1.85-0.55-4.23 1.12-5.48 3.24 -0.41 0.69-0.64 1.57-0.66 2.45C146.6 8.43 147.55 6.61 148.24 5.91z"/><path opacity="0.19" fill="#409D8B" d="M150.34 5.59c0 0 0.52-0.7 1.44-0.15 0.92 0.55 1.54 1.29 1.61 1.72s-0.88 0.09-1.47-0.37C151.32 6.33 150.16 6.04 150.34 5.59z"/><path opacity="0.73" fill="#409D8B" d="M151.16 5.51c0 0 0.79 0.19 1 0.46 0.21 0.27 0.62 0.66 0.5 0.79 -0.12 0.13-0.8-0.48-0.86-0.52C151.74 6.2 150.23 5.86 151.16 5.51z"/><path fill="#409D8B" d="M147.52 9.83c0 0-1.75 1.75-1.75 4.36s2.29 3.68 3.93 3.68 3.97 0.47 5.11 1.54 1.79 1.82 3.5 2.07c1.72 0.25 3.9 0.39 4.04-0.54C162.5 20.02 147.52 9.83 147.52 9.83z"/><path fill="#409D8B" d="M157.85 17.23c2.27 1.4 5.17 1.11 6.19 1.36 0 0 1.65-2.32 0.75-3.72s-2.93-2.25-4.4-2.39c-1.46-0.14-4.68-1.25-6.22-1.82s-3.5 0.25-3.79 1c-0.29 0.75-0.57 1.72-0.57 1.72S154.31 15.05 157.85 17.23z"/><path fill="#409D8B" d="M147.7 10.22c0 0-0.82 2.15 1.57 3s6.15 1.75 7.72 3.58c1.57 1.82 4.68 5.36 5.58 4.43 0.89-0.93 3.07-2.93 1.47-3.54 -1.61-0.61-5.58-0.18-6.86-1.5 -1.29-1.32-2.43-1.75-4.43-2.36C150.74 13.22 149.13 12.9 147.7 10.22z"/><path fill="#409D8B" d="M151.9 51.15c10.26 0 18.93-2.39 21.81-5.67 0 0.48 0 0.92 0 1.31 0 5.17-9.89 9.37-22.09 9.37s-22.09-4.19-22.09-9.37c0-0.73 0-1.43 0-2.12C131.58 48.37 140.82 51.15 151.9 51.15z"/><path opacity="0.49" fill="#409D8B" d="M168.77 20.19c2.06 1.1 3.27 2.41 3.27 3.82 0 3.89-9.12 7.03-20.38 7.03 -10.82 0-19.67-2.91-20.33-6.59 -0.02 0.15-0.04 0.31-0.04 0.46 0 4.15 9.44 7.51 21.09 7.51 11.65 0 21.09-3.36 21.09-7.51C173.47 23.13 171.71 21.48 168.77 20.19z"/><path opacity="0.49" fill="#409D8B" d="M162.32 35.75c0 0 7.51-5.15 7.94 2.9C169.18 36.93 169.39 34.03 162.32 35.75z"/><path opacity="0.51" fill="#409D8B" d="M170.79 39.39c0 0-0.05 2.31-0.75 3.32C171.65 42.72 170.79 39.39 170.79 39.39z"/><path opacity="0.16" fill="#409D8B" d="M164.98 19.35c0.01 0.14 0.02 0.28 0.02 0.42 0 4.4-5.29 9.64-11.16 9.75 4.08 0.75 17.07-1.71 17.07-5.84C170.92 21.8 168.5 20.16 164.98 19.35z"/><path opacity="0.5" fill="#409D8B" d="M161.4 37.81c0 0-1.88 2.39-1.88 5.12s-1.23 3.16-2.04 2.04c1.25-0.04 1.36-1.09 1.36-2.22S158.94 39.01 161.4 37.81z"/><path fill="#409D8B" d="M153.02 41.9c0 0-1.86 0.07-2.57 1.97 -0.71 1.9-1.9 5.19-3.86 2.86 1.57 0.46 2.11-0.54 2.93-2.18C150.34 42.9 150.95 41.75 153.02 41.9z"/><path opacity="0.33" fill="#409D8B" d="M168.21 31.24c0 0 4.18-1.93 5.47-3.97 0 2.25 0.43 3.65-0.64 4.93 -1.07 1.29-1.93 2.47-2.14 3.43C170.25 33.28 170.04 31.56 168.21 31.24z"/><path fill="#409D8B" d="M189.3 45.94c0 5.17 9.9 9.37 22.07 9.37s22.03-4.19 22.03-9.37c0-3.66 0-11.94 0-18.52 -3.39 0-40.52 0-44.1 0C189.3 36.93 189.3 40.76 189.3 45.94z"/><path fill="#409D8B" d="M188.93 26.34c0 0.6-1.21 3.75 0.39 3.75 0.97 0 0.58-1.27 1.42-0.32 2.95 3.32 3.81 9.19 6.9 12.08 1.48 1.38 3.47 0.9 5.18 1.72 2.56 1.23 1.73 5.22 5.09 5.22 2.94 0 1.96-5.49 4.84-5.49 3.04 0 3.27 3.7 5.29 3.7 2.62 0 1.39-6.1 4-8.58 3.84-3.65 6.81-1.15 6.24 1.02 -0.64 2.47 0.21 4.56 1.39 4.56 1.87 0 1.43-3.67 1.33-4.66 -0.27-2.73 1.01-4.61 2.03-5.42 1.56-1.23 1.17-6.05 1.17-7.53 0-5.02-7.6-9.98-22.97-9.98C195.29 16.4 188.93 21.32 188.93 26.34z"/><path fill="#409D8B" d="M188.85 25.49c0 0.6-1.21 3.75 0.39 3.75 0.97 0 0.58-1.27 1.42-0.32 2.95 3.32 3.81 9.19 6.9 12.08 1.48 1.38 3.47 0.9 5.18 1.72 2.56 1.23 1.76 5.36 5.12 5.36 2.94 0 1.92-5.63 4.8-5.63 3.04 0 3.27 3.7 5.29 3.7 2.62 0 1.39-6.1 4-8.58 3.84-3.65 6.81-1.15 6.24 1.02 -0.64 2.47 0.2 4.56 1.39 4.56 1.87 0 1.43-3.67 1.33-4.66 -0.27-2.73 1.01-4.61 2.03-5.42 1.56-1.24 1.17-6.05 1.17-7.53 0-5.02-7.6-9.98-22.97-9.98C195.22 15.55 188.85 20.47 188.85 25.49z"/><ellipse fill="#409D8B" cx="211.13" cy="19.98" rx="12.94" ry="4.43"/><path fill="#409D8B" d="M220.18 13.47c0 0 0.79-2.97-1.25-3.57s-10.01-0.82-10.62 0C207.7 10.72 220.18 13.47 220.18 13.47z"/><path fill="#409D8B" d="M208.34 8c0 0-8.62 2.1-9.69 7.01 -1.14 5.26 2.61 6.94 13.94 8.8C216.63 24.47 208.34 8 208.34 8z"/><path fill="#409D8B" d="M208.27 8.93c0 0-6.58 1.04-6.76 5.26s4.01 7.54 6.26 8.19c2.25 0.64 3-1.07 2.72-3.75C210.2 15.94 208.27 8.93 208.27 8.93z"/><path fill="#409D8B" d="M207.73 8.72c0 0-5.58 1.25-5.58 4.97 0 3.72 3.61 4.54 5.08 4.83 1.47 0.29 6.08 2.65 6.08 3.79 0 1.14 0.04 1.43 0.04 1.43s3.15-2.75 3.93-2.82C218.07 20.84 207.73 8.72 207.73 8.72z"/><path fill="#409D8B" d="M214.9 5.87c1.41 1.64 1.82 3.55 1.03 4.94 -1.08 1.91-4.74 3.36-7.77 1.82 -2.28-1.16-2.46-4.39-1.35-6.28 1.3-2.21 3.85-3.95 5.73-3.16C213.86 3.75 213.97 4.8 214.9 5.87z"/><path opacity="0.29" fill="#409D8B" d="M214.05 4.76c0 0-1.01-1.21-1.62-0.96 -0.48 0.2 0.5 1.32 0.75 1.77 0.25 0.45 1.99 2.69 2.54 2.47C216.26 7.8 214.67 5.8 214.05 4.76z"/><path fill="#409D8B" d="M215.1 6.94c-0.17 0.56-0.73-0.19-1.09-0.48 -0.62-0.5-0.88-1.25-0.73-1.44 0.18-0.23 0.5-0.17 1 0.4C214.85 6.1 215.22 6.55 215.1 6.94z"/><path opacity="0.21" fill="#409D8B" d="M208.16 12.63c3.03 1.54 6.69 0.09 7.77-1.82 0.17-0.31 0.28-0.65 0.34-1 -0.15-0.39-0.32-0.77-0.47-1 -0.52-0.77-0.94-0.98-0.94-0.98s0.59 1.61-1 2.05c-1.48 0.41-5.67 2-7.69-0.57C206.26 10.67 206.88 11.98 208.16 12.63z"/><path opacity="0.34" fill="#409D8B" d="M207.99 5.91c0.78-0.78 3.16-2.12 3.44-2.57 0.12-0.19 0.48-0.24 0.86-0.24 -1.85-0.55-4.23 1.12-5.48 3.24 -0.41 0.69-0.64 1.57-0.66 2.45C206.35 8.43 207.3 6.61 207.99 5.91z"/><path opacity="0.19" fill="#409D8B" d="M210.09 5.59c0 0 0.52-0.7 1.44-0.15 0.92 0.55 1.54 1.29 1.61 1.72s-0.88 0.09-1.47-0.37C211.07 6.33 209.91 6.04 210.09 5.59z"/><path opacity="0.73" fill="#409D8B" d="M210.91 5.51c0 0 0.79 0.19 1 0.46 0.21 0.27 0.62 0.66 0.5 0.79 -0.12 0.13-0.8-0.48-0.86-0.52C211.49 6.2 209.98 5.86 210.91 5.51z"/><path fill="#409D8B" d="M207.27 9.83c0 0-1.75 1.75-1.75 4.36s2.29 3.68 3.93 3.68 3.97 0.47 5.11 1.54 1.79 1.82 3.5 2.07c1.72 0.25 3.9 0.39 4.04-0.54C222.25 20.02 207.27 9.83 207.27 9.83z"/><path fill="#409D8B" d="M217.6 17.23c2.27 1.4 5.17 1.11 6.19 1.36 0 0 1.65-2.32 0.75-3.72s-2.93-2.25-4.4-2.39c-1.46-0.14-4.68-1.25-6.22-1.82s-3.5 0.25-3.79 1c-0.29 0.75-0.57 1.72-0.57 1.72S214.06 15.05 217.6 17.23z"/><path fill="#409D8B" d="M207.45 10.22c0 0-0.82 2.15 1.57 3s6.15 1.75 7.72 3.58c1.57 1.82 4.68 5.36 5.58 4.43 0.89-0.93 3.07-2.93 1.47-3.54 -1.61-0.61-5.58-0.18-6.86-1.5 -1.29-1.32-2.43-1.75-4.43-2.36C210.49 13.22 208.88 12.9 207.45 10.22z"/><path fill="#409D8B" d="M211.65 51.15c10.26 0 18.93-2.39 21.81-5.67 0 0.48 0 0.92 0 1.31 0 5.17-9.89 9.37-22.09 9.37s-22.09-4.19-22.09-9.37c0-0.73 0-1.43 0-2.12C191.33 48.37 200.57 51.15 211.65 51.15z"/><path opacity="0.49" fill="#409D8B" d="M228.52 20.19c2.06 1.1 3.27 2.41 3.27 3.82 0 3.89-9.12 7.03-20.38 7.03 -10.82 0-19.67-2.91-20.33-6.59 -0.02 0.15-0.04 0.31-0.04 0.46 0 4.15 9.44 7.51 21.09 7.51 11.65 0 21.09-3.36 21.09-7.51C233.22 23.13 231.46 21.48 228.52 20.19z"/><path opacity="0.49" fill="#409D8B" d="M222.07 35.75c0 0 7.51-5.15 7.94 2.9C228.93 36.93 229.14 34.03 222.07 35.75z"/><path opacity="0.51" fill="#409D8B" d="M230.54 39.39c0 0-0.05 2.31-0.75 3.32C231.4 42.72 230.54 39.39 230.54 39.39z"/><path opacity="0.16" fill="#409D8B" d="M224.73 19.35c0.01 0.14 0.02 0.28 0.02 0.42 0 4.4-5.29 9.64-11.16 9.75 4.08 0.75 17.07-1.71 17.07-5.84C230.67 21.8 228.25 20.16 224.73 19.35z"/><path opacity="0.5" fill="#409D8B" d="M221.15 37.81c0 0-1.88 2.39-1.88 5.12s-1.23 3.16-2.04 2.04c1.25-0.04 1.36-1.09 1.36-2.22S218.69 39.01 221.15 37.81z"/><path fill="#409D8B" d="M212.77 41.9c0 0-1.86 0.07-2.57 1.97 -0.71 1.9-1.9 5.19-3.86 2.86 1.57 0.46 2.11-0.54 2.93-2.18C210.09 42.9 210.7 41.75 212.77 41.9z"/><path opacity="0.33" fill="#409D8B" d="M227.96 31.24c0 0 4.18-1.93 5.47-3.97 0 2.25 0.43 3.65-0.64 4.93 -1.07 1.29-1.93 2.47-2.14 3.43C230 33.28 229.79 31.56 227.96 31.24z"/><path fill="#409D8B" d="M249.05 45.94c0 5.17 9.9 9.37 22.07 9.37s22.03-4.19 22.03-9.37c0-3.66 0-11.94 0-18.52 -3.39 0-40.52 0-44.1 0C249.05 36.93 249.05 40.76 249.05 45.94z"/><path fill="#409D8B" d="M248.68 26.34c0 0.6-1.21 3.75 0.39 3.75 0.97 0 0.58-1.27 1.42-0.32 2.95 3.32 3.81 9.19 6.9 12.08 1.48 1.38 3.47 0.9 5.18 1.72 2.56 1.23 1.73 5.22 5.09 5.22 2.94 0 1.96-5.49 4.84-5.49 3.04 0 3.27 3.7 5.29 3.7 2.62 0 1.39-6.1 4-8.58 3.84-3.65 6.81-1.15 6.24 1.02 -0.64 2.47 0.21 4.56 1.39 4.56 1.87 0 1.43-3.67 1.33-4.66 -0.27-2.73 1.01-4.61 2.03-5.42 1.56-1.23 1.17-6.05 1.17-7.53 0-5.02-7.6-9.98-22.97-9.98C255.04 16.4 248.68 21.32 248.68 26.34z"/><path fill="#409D8B" d="M248.6 25.49c0 0.6-1.21 3.75 0.39 3.75 0.97 0 0.58-1.27 1.42-0.32 2.95 3.32 3.81 9.19 6.9 12.08 1.48 1.38 3.47 0.9 5.18 1.72 2.56 1.23 1.76 5.36 5.12 5.36 2.94 0 1.92-5.63 4.8-5.63 3.04 0 3.27 3.7 5.29 3.7 2.62 0 1.39-6.1 4-8.58 3.84-3.65 6.81-1.15 6.24 1.02 -0.64 2.47 0.2 4.56 1.39 4.56 1.87 0 1.43-3.67 1.33-4.66 -0.27-2.73 1.01-4.61 2.03-5.42 1.56-1.24 1.17-6.05 1.17-7.53 0-5.02-7.6-9.98-22.97-9.98C254.97 15.55 248.6 20.47 248.6 25.49z"/><ellipse fill="#409D8B" cx="270.88" cy="19.98" rx="12.94" ry="4.43"/><path fill="#409D8B" d="M279.93 13.47c0 0 0.79-2.97-1.25-3.57s-10.01-0.82-10.62 0C267.45 10.72 279.93 13.47 279.93 13.47z"/><path fill="#409D8B" d="M268.09 8c0 0-8.62 2.1-9.69 7.01 -1.14 5.26 2.61 6.94 13.94 8.8C276.38 24.47 268.09 8 268.09 8z"/><path fill="#409D8B" d="M268.02 8.93c0 0-6.58 1.04-6.76 5.26s4.01 7.54 6.26 8.19c2.25 0.64 3-1.07 2.72-3.75C269.95 15.94 268.02 8.93 268.02 8.93z"/><path fill="#409D8B" d="M267.48 8.72c0 0-5.58 1.25-5.58 4.97 0 3.72 3.61 4.54 5.08 4.83 1.47 0.29 6.08 2.65 6.08 3.79 0 1.14 0.04 1.43 0.04 1.43s3.15-2.75 3.93-2.82C277.82 20.84 267.48 8.72 267.48 8.72z"/><path fill="#409D8B" d="M274.65 5.87c1.41 1.64 1.82 3.55 1.03 4.94 -1.08 1.91-4.74 3.36-7.77 1.82 -2.28-1.16-2.46-4.39-1.35-6.28 1.3-2.21 3.85-3.95 5.73-3.16C273.61 3.75 273.72 4.8 274.65 5.87z"/><path opacity="0.29" fill="#409D8B" d="M273.8 4.76c0 0-1.01-1.21-1.62-0.96 -0.48 0.2 0.5 1.32 0.75 1.77 0.25 0.45 1.99 2.69 2.54 2.47C276.01 7.8 274.42 5.8 273.8 4.76z"/><path fill="#409D8B" d="M274.85 6.94c-0.17 0.56-0.73-0.19-1.09-0.48 -0.62-0.5-0.88-1.25-0.73-1.44 0.18-0.23 0.5-0.17 1 0.4C274.6 6.1 274.97 6.55 274.85 6.94z"/><path opacity="0.21" fill="#409D8B" d="M267.91 12.63c3.03 1.54 6.69 0.09 7.77-1.82 0.17-0.31 0.28-0.65 0.34-1 -0.15-0.39-0.32-0.77-0.47-1 -0.52-0.77-0.94-0.98-0.94-0.98s0.59 1.61-1 2.05c-1.48 0.41-5.67 2-7.69-0.57C266.01 10.67 266.63 11.98 267.91 12.63z"/><path opacity="0.34" fill="#409D8B" d="M267.74 5.91c0.78-0.78 3.16-2.12 3.44-2.57 0.12-0.19 0.48-0.24 0.86-0.24 -1.85-0.55-4.23 1.12-5.48 3.24 -0.41 0.69-0.64 1.57-0.66 2.45C266.1 8.43 267.05 6.61 267.74 5.91z"/><path opacity="0.19" fill="#409D8B" d="M269.83 5.59c0 0 0.52-0.7 1.44-0.15 0.92 0.55 1.54 1.29 1.61 1.72s-0.88 0.09-1.47-0.37C270.82 6.33 269.66 6.04 269.83 5.59z"/><path opacity="0.73" fill="#409D8B" d="M270.66 5.51c0 0 0.79 0.19 1 0.46 0.21 0.27 0.62 0.66 0.5 0.79 -0.12 0.13-0.8-0.48-0.86-0.52C271.24 6.2 269.73 5.86 270.66 5.51z"/><path fill="#409D8B" d="M267.02 9.83c0 0-1.75 1.75-1.75 4.36s2.29 3.68 3.93 3.68 3.97 0.47 5.11 1.54 1.79 1.82 3.5 2.07c1.72 0.25 3.9 0.39 4.04-0.54C282 20.02 267.02 9.83 267.02 9.83z"/><path fill="#409D8B" d="M277.35 17.23c2.27 1.4 5.17 1.11 6.19 1.36 0 0 1.65-2.32 0.75-3.72s-2.93-2.25-4.4-2.39c-1.46-0.14-4.68-1.25-6.22-1.82s-3.5 0.25-3.79 1c-0.29 0.75-0.57 1.72-0.57 1.72S273.81 15.05 277.35 17.23z"/><path fill="#409D8B" d="M267.2 10.22c0 0-0.82 2.15 1.57 3s6.15 1.75 7.72 3.58c1.57 1.82 4.68 5.36 5.58 4.43 0.89-0.93 3.07-2.93 1.47-3.54 -1.61-0.61-5.58-0.18-6.86-1.5 -1.29-1.32-2.43-1.75-4.43-2.36C270.24 13.22 268.63 12.9 267.2 10.22z"/><path fill="#409D8B" d="M271.4 51.15c10.26 0 18.93-2.39 21.81-5.67 0 0.48 0 0.92 0 1.31 0 5.17-9.89 9.37-22.09 9.37s-22.09-4.19-22.09-9.37c0-0.73 0-1.43 0-2.12C251.08 48.37 260.32 51.15 271.4 51.15z"/><path opacity="0.49" fill="#409D8B" d="M288.27 20.19c2.06 1.1 3.27 2.41 3.27 3.82 0 3.89-9.12 7.03-20.38 7.03 -10.82 0-19.67-2.91-20.33-6.59 -0.02 0.15-0.04 0.31-0.04 0.46 0 4.15 9.44 7.51 21.09 7.51 11.65 0 21.09-3.36 21.09-7.51C292.97 23.13 291.21 21.48 288.27 20.19z"/><path opacity="0.49" fill="#409D8B" d="M281.82 35.75c0 0 7.51-5.15 7.94 2.9C288.68 36.93 288.89 34.03 281.82 35.75z"/><path opacity="0.51" fill="#409D8B" d="M290.29 39.39c0 0-0.05 2.31-0.75 3.32C291.15 42.72 290.29 39.39 290.29 39.39z"/><path opacity="0.16" fill="#409D8B" d="M284.48 19.35c0.01 0.14 0.02 0.28 0.02 0.42 0 4.4-5.29 9.64-11.16 9.75 4.08 0.75 17.07-1.71 17.07-5.84C290.42 21.8 288 20.16 284.48 19.35z"/><path opacity="0.5" fill="#409D8B" d="M280.9 37.81c0 0-1.88 2.39-1.88 5.12s-1.23 3.16-2.04 2.04c1.25-0.04 1.36-1.09 1.36-2.22S278.44 39.01 280.9 37.81z"/><path fill="#409D8B" d="M272.52 41.9c0 0-1.86 0.07-2.57 1.97 -0.71 1.9-1.9 5.19-3.86 2.86 1.57 0.46 2.11-0.54 2.93-2.18C269.84 42.9 270.45 41.75 272.52 41.9z"/><path opacity="0.33" fill="#409D8B" d="M287.71 31.24c0 0 4.18-1.93 5.47-3.97 0 2.25 0.43 3.65-0.64 4.93 -1.07 1.29-1.93 2.47-2.14 3.43C289.75 33.28 289.54 31.56 287.71 31.24z"/></g><g id="Layer_11"><radialGradient id="SVGID_1_" cx="59.15" cy="20.84" r="72.4" gradientTransform="matrix(1.0102 0 0 1 -9.1333 0)" gradientUnits="userSpaceOnUse"><stop offset="0" stop-color="#FFFFFF"/><stop offset="0.02" stop-color="#FEF7E2"/><stop offset="0.09" stop-color="#FBE18C"/><stop offset="0.13" stop-color="#FAD86A"/><stop offset="0.37" stop-color="#F5CB5A"/><stop offset="0.65" stop-color="#C57315"/><stop offset="0.99" stop-color="#AC4A12"/></radialGradient><path fill="url(#SVGID_1_)" d="M10.05 45.94c0 5.17 9.9 9.37 22.07 9.37 12.17 0 22.03-4.19 22.03-9.37 0-3.66 0-11.94 0-18.52 -3.39 0-40.52 0-44.1 0C10.05 36.93 10.05 40.76 10.05 45.94z"/><radialGradient id="SVGID_2_" cx="1830.57" cy="-9.08" r="35.67" gradientTransform="matrix(-0.9953 0 0 1 1874.1602 0)" gradientUnits="userSpaceOnUse"><stop offset="0" stop-color="#FFFFFF"/><stop offset="0.15" stop-color="#CFAD9B"/><stop offset="0.28" stop-color="#A66644"/><stop offset="0.35" stop-color="#964A22"/><stop offset="0.65" stop-color="#551C0B"/><stop offset="0.99" stop-color="#361211"/></radialGradient><path fill="url(#SVGID_2_)" d="M9.68 26.34c0 0.6-1.21 3.75 0.39 3.75 0.97 0 0.58-1.27 1.42-0.32 2.95 3.33 3.81 9.19 6.9 12.08 1.48 1.38 3.47 0.9 5.18 1.72 2.56 1.23 1.73 5.22 5.09 5.22 2.94 0 1.96-5.49 4.84-5.49 3.04 0 3.27 3.7 5.29 3.7 2.62 0 1.39-6.1 4-8.58 3.84-3.65 6.81-1.15 6.25 1.02 -0.64 2.47 0.2 4.56 1.39 4.56 1.87 0 1.43-3.67 1.33-4.66 -0.27-2.73 1.01-4.61 2.03-5.42 1.56-1.23 1.17-6.05 1.17-7.53 0-5.02-7.6-9.98-22.97-9.98C16.04 16.41 9.68 21.32 9.68 26.34z"/><radialGradient id="SVGID_3_" cx="1833.61" cy="0.25" r="51.4" gradientTransform="matrix(-0.9953 0 0 1 1874.3379 0)" gradientUnits="userSpaceOnUse"><stop offset="0" stop-color="#FFFFFF"/><stop offset="0.15" stop-color="#CFAD9B"/><stop offset="0.28" stop-color="#A66644"/><stop offset="0.35" stop-color="#964A22"/><stop offset="0.65" stop-color="#551C0B"/><stop offset="0.99" stop-color="#361211"/></radialGradient><path fill="url(#SVGID_3_)" d="M9.61 25.49c0 0.6-1.21 3.75 0.39 3.75 0.97 0 0.58-1.27 1.42-0.32 2.95 3.32 3.81 9.19 6.9 12.08 1.48 1.38 3.47 0.9 5.18 1.72 2.56 1.23 1.76 5.36 5.12 5.36 2.94 0 1.92-5.63 4.8-5.63 3.04 0 3.27 3.7 5.29 3.7 2.62 0 1.39-6.1 4-8.58 3.84-3.65 6.81-1.15 6.24 1.02 -0.64 2.47 0.21 4.56 1.39 4.56 1.87 0 1.43-3.67 1.33-4.66 -0.27-2.73 1.01-4.61 2.03-5.42 1.56-1.24 1.17-6.05 1.17-7.53 0-5.02-7.6-9.98-22.97-9.98C15.97 15.55 9.61 20.47 9.61 25.49z"/><radialGradient id="SVGID_4_" cx="50.97" cy="-2.33" r="29.35" gradientUnits="userSpaceOnUse"><stop offset="0" stop-color="#FFFFFF"/><stop offset="0.15" stop-color="#CFAD9B"/><stop offset="0.28" stop-color="#A66644"/><stop offset="0.35" stop-color="#964A22"/><stop offset="0.65" stop-color="#551C0B"/><stop offset="0.99" stop-color="#361211"/></radialGradient><ellipse fill="url(#SVGID_4_)" cx="31.88" cy="19.98" rx="12.94" ry="4.43"/><radialGradient id="SVGID_5_" cx="1856.03" cy="9.83" r="86.11" gradientTransform="matrix(-1 0 0 1 1877.9688 0)" gradientUnits="userSpaceOnUse"><stop offset="0" stop-color="#FFFFFF"/><stop offset="1" stop-color="#646464"/></radialGradient><path fill="url(#SVGID_5_)" d="M40.93 13.47c0 0 0.79-2.97-1.25-3.57 -2.04-0.61-10.01-0.82-10.62 0C28.45 10.72 40.93 13.47 40.93 13.47z"/><radialGradient id="SVGID_6_" cx="1851.03" cy="2.82" r="61.41" gradientTransform="matrix(-1 0 0 1 1877.9688 0)" gradientUnits="userSpaceOnUse"><stop offset="0" stop-color="#FFFFFF"/><stop offset="1" stop-color="#646464"/></radialGradient><path fill="url(#SVGID_6_)" d="M29.09 8c0 0-8.62 2.1-9.69 7.01 -1.14 5.26 2.61 6.94 13.94 8.8C37.38 24.47 29.09 8 29.09 8z"/><radialGradient id="SVGID_7_" cx="1834.01" cy="-6.04" r="83.41" gradientTransform="matrix(-1 0 0 1 1877.9688 0)" gradientUnits="userSpaceOnUse"><stop offset="0" stop-color="#FFFFFF"/><stop offset="1" stop-color="#646464"/></radialGradient><path fill="url(#SVGID_7_)" d="M29.02 8.93c0 0-6.58 1.04-6.76 5.26s4 7.54 6.26 8.19c2.25 0.64 3-1.07 2.72-3.75C30.95 15.94 29.02 8.93 29.02 8.93z"/><radialGradient id="SVGID_8_" cx="1856.46" cy="6.54" r="98.43" gradientTransform="matrix(-1 0 0 1 1877.9688 0)" gradientUnits="userSpaceOnUse"><stop offset="0" stop-color="#FFFFFF"/><stop offset="1" stop-color="#646464"/></radialGradient><path fill="url(#SVGID_8_)" d="M28.48 8.72c0 0-5.58 1.25-5.58 4.97s3.61 4.54 5.08 4.83c1.47 0.29 6.08 2.65 6.08 3.79s0.04 1.43 0.04 1.43 3.15-2.75 3.93-2.82S28.48 8.72 28.48 8.72z"/><radialGradient id="SVGID_9_" cx="346.65" cy="546.18" r="13.45" gradientTransform="matrix(0.8953 0.4557 -0.4584 0.8901 -18.5964 -635.9854)" gradientUnits="userSpaceOnUse"><stop offset="0" stop-color="#FFFFFF"/><stop offset="0.05" stop-color="#FECFCD"/><stop offset="0.17" stop-color="#FB5B55"/><stop offset="0.22" stop-color="#FA2D25"/><stop offset="0.52" stop-color="#DB2214"/><stop offset="0.77" stop-color="#C9140B"/><stop offset="0.98" stop-color="#AA0B05"/></radialGradient><path fill="url(#SVGID_9_)" d="M35.65 5.87c1.41 1.64 1.82 3.55 1.03 4.94 -1.08 1.91-4.74 3.36-7.77 1.82 -2.28-1.16-2.46-4.39-1.35-6.28 1.3-2.21 3.85-3.95 5.73-3.16C34.61 3.75 34.72 4.8 35.65 5.87z"/><radialGradient id="SVGID_10_" cx="341.44" cy="545" r="23.96" gradientTransform="matrix(0.8953 0.4557 -0.4584 0.8901 -18.5964 -635.9854)" gradientUnits="userSpaceOnUse"><stop offset="0" stop-color="#FFFFFF"/><stop offset="0.05" stop-color="#FECFCD"/><stop offset="0.17" stop-color="#FB5B55"/><stop offset="0.22" stop-color="#FA2D25"/><stop offset="0.52" stop-color="#DB2214"/><stop offset="0.77" stop-color="#C9140B"/><stop offset="0.98" stop-color="#AA0B05"/></radialGradient><path opacity="0.29" fill="url(#SVGID_10_)" d="M34.8 4.76c0 0-1.01-1.21-1.62-0.96 -0.48 0.2 0.5 1.32 0.75 1.77 0.25 0.45 1.99 2.69 2.54 2.47C37.01 7.8 35.42 5.79 34.8 4.76z"/><radialGradient id="SVGID_11_" cx="342.95" cy="545.09" r="5.45" gradientTransform="matrix(0.8953 0.4557 -0.4584 0.8901 -18.5964 -635.9854)" gradientUnits="userSpaceOnUse"><stop offset="0" stop-color="#FFFFFF"/><stop offset="0.05" stop-color="#FECFCD"/><stop offset="0.17" stop-color="#FB5B55"/><stop offset="0.22" stop-color="#FA2D25"/><stop offset="0.52" stop-color="#DB2214"/><stop offset="0.77" stop-color="#C9140B"/><stop offset="0.98" stop-color="#AA0B05"/></radialGradient><path fill="url(#SVGID_11_)" d="M35.85 6.94c-0.17 0.56-0.73-0.19-1.09-0.48 -0.62-0.5-0.88-1.25-0.73-1.44 0.18-0.23 0.5-0.17 1 0.4C35.6 6.1 35.97 6.55 35.85 6.94z"/><radialGradient id="SVGID_12_" cx="346.94" cy="549.31" r="44.09" gradientTransform="matrix(0.8953 0.4557 -0.4584 0.8901 -18.5964 -635.9854)" gradientUnits="userSpaceOnUse"><stop offset="0" stop-color="#FFFFFF"/><stop offset="0.05" stop-color="#FECFCD"/><stop offset="0.17" stop-color="#FB5B55"/><stop offset="0.22" stop-color="#FA2D25"/><stop offset="0.52" stop-color="#DB2214"/><stop offset="0.77" stop-color="#C9140B"/><stop offset="0.98" stop-color="#AA0B05"/></radialGradient><path opacity="0.21" fill="url(#SVGID_12_)" d="M28.91 12.63c3.03 1.54 6.69 0.09 7.77-1.82 0.17-0.31 0.28-0.64 0.34-1C36.87 9.42 36.7 9.05 36.54 8.82c-0.52-0.77-0.94-0.98-0.94-0.98s0.59 1.61-1 2.05c-1.48 0.41-5.67 2-7.69-0.57C27.01 10.67 27.63 11.98 28.91 12.63z"/><radialGradient id="SVGID_13_" cx="334.7" cy="543.19" r="21.46" gradientTransform="matrix(0.8953 0.4557 -0.4584 0.8901 -18.5964 -635.9854)" gradientUnits="userSpaceOnUse"><stop offset="0" stop-color="#FFFFFF"/><stop offset="0.05" stop-color="#FECFCD"/><stop offset="0.17" stop-color="#FB5B55"/><stop offset="0.22" stop-color="#FA2D25"/><stop offset="0.52" stop-color="#DB2214"/><stop offset="0.77" stop-color="#C9140B"/><stop offset="0.98" stop-color="#AA0B05"/></radialGradient><path opacity="0.34" fill="url(#SVGID_13_)" d="M28.74 5.91c0.78-0.78 3.16-2.12 3.44-2.56 0.12-0.19 0.48-0.24 0.86-0.24 -1.85-0.55-4.23 1.12-5.48 3.24 -0.41 0.69-0.64 1.57-0.66 2.45C27.1 8.43 28.05 6.61 28.74 5.91z"/><radialGradient id="SVGID_14_" cx="338.12" cy="547.18" r="17.84" gradientTransform="matrix(0.8953 0.4557 -0.4584 0.8901 -18.5964 -635.9854)" gradientUnits="userSpaceOnUse"><stop offset="0" stop-color="#FFFFFF"/><stop offset="0.05" stop-color="#FECFCD"/><stop offset="0.17" stop-color="#FB5B55"/><stop offset="0.22" stop-color="#FA2D25"/><stop offset="0.52" stop-color="#DB2214"/><stop offset="0.77" stop-color="#C9140B"/><stop offset="0.98" stop-color="#AA0B05"/></radialGradient><path opacity="0.19" fill="url(#SVGID_14_)" d="M30.83 5.59c0 0 0.52-0.7 1.44-0.15 0.92 0.55 1.54 1.29 1.61 1.72 0.07 0.44-0.88 0.09-1.47-0.37C31.82 6.33 30.66 6.04 30.83 5.59z"/><radialGradient id="SVGID_15_" cx="337.83" cy="547.94" r="33.09" gradientTransform="matrix(0.8953 0.4557 -0.4584 0.8901 -18.5964 -635.9854)" gradientUnits="userSpaceOnUse"><stop offset="0" stop-color="#FFFFFF"/><stop offset="0.05" stop-color="#FECFCD"/><stop offset="0.17" stop-color="#FB5B55"/><stop offset="0.22" stop-color="#FA2D25"/><stop offset="0.52" stop-color="#DB2214"/><stop offset="0.77" stop-color="#C9140B"/><stop offset="0.98" stop-color="#AA0B05"/></radialGradient><path opacity="0.73" fill="url(#SVGID_15_)" d="M31.66 5.51c0 0 0.79 0.19 1 0.46 0.21 0.27 0.62 0.66 0.5 0.79 -0.12 0.13-0.8-0.48-0.86-0.52C32.24 6.2 30.73 5.86 31.66 5.51z"/><radialGradient id="SVGID_16_" cx="1850.31" cy="-4.19" r="75.85" gradientTransform="matrix(-1 0 0 1 1877.9688 0)" gradientUnits="userSpaceOnUse"><stop offset="0" stop-color="#FFFFFF"/><stop offset="1" stop-color="#646464"/></radialGradient><path fill="url(#SVGID_16_)" d="M28.02 9.83c0 0-1.75 1.75-1.75 4.36s2.29 3.68 3.93 3.68c1.65 0 3.97 0.47 5.11 1.54 1.14 1.07 1.79 1.82 3.5 2.07 1.72 0.25 3.9 0.39 4.04-0.54C43 20.02 28.02 9.83 28.02 9.83z"/><radialGradient id="SVGID_17_" cx="1847.45" cy="0.1" r="56.12" gradientTransform="matrix(-1 0 0 1 1877.9688 0)" gradientUnits="userSpaceOnUse"><stop offset="0" stop-color="#FFFFFF"/><stop offset="1" stop-color="#646464"/></radialGradient><path fill="url(#SVGID_17_)" d="M38.35 17.23c2.27 1.4 5.17 1.11 6.19 1.36 0 0 1.64-2.32 0.75-3.72s-2.93-2.25-4.4-2.39c-1.46-0.14-4.68-1.25-6.22-1.82 -1.54-0.57-3.5 0.25-3.79 1 -0.29 0.75-0.57 1.72-0.57 1.72S34.81 15.05 38.35 17.23z"/><radialGradient id="SVGID_18_" cx="1852.31" cy="1.25" r="159" gradientTransform="matrix(-1 0 0 1 1877.9688 0)" gradientUnits="userSpaceOnUse"><stop offset="0" stop-color="#FFFFFF"/><stop offset="1" stop-color="#646464"/></radialGradient><path fill="url(#SVGID_18_)" d="M28.2 10.22c0 0-0.82 2.15 1.57 3s6.15 1.75 7.72 3.58c1.57 1.82 4.68 5.36 5.58 4.43 0.89-0.93 3.07-2.93 1.47-3.54 -1.61-0.61-5.58-0.18-6.86-1.5 -1.29-1.32-2.43-1.75-4.43-2.36C31.24 13.22 29.63 12.9 28.2 10.22z"/><radialGradient id="SVGID_19_" cx="1806.03" cy="22.12" r="59.16" gradientTransform="matrix(-1.0131 0 0 1 1890.8403 0)" gradientUnits="userSpaceOnUse"><stop offset="0" stop-color="#FFFFFF"/><stop offset="0.02" stop-color="#FEF7E2"/><stop offset="0.09" stop-color="#FBE18C"/><stop offset="0.13" stop-color="#FAD86A"/><stop offset="0.37" stop-color="#F5CB5A"/><stop offset="0.65" stop-color="#C57315"/><stop offset="0.99" stop-color="#AC4A12"/></radialGradient><path fill="url(#SVGID_19_)" d="M32.4 51.15c10.26 0 18.93-2.39 21.81-5.67 0 0.48 0 0.92 0 1.31 0 5.17-9.89 9.37-22.09 9.37 -12.2 0-22.09-4.19-22.09-9.37 0-0.73 0-1.43 0-2.12C12.08 48.37 21.32 51.15 32.4 51.15z"/><radialGradient id="SVGID_20_" cx="96.31" cy="-462.14" r="52.58" gradientTransform="matrix(1.0536 0 0 1.1798 -48.1436 569.7129)" gradientUnits="userSpaceOnUse"><stop offset="0" stop-color="#FFFFFF"/><stop offset="0.15" stop-color="#CFAD9B"/><stop offset="0.28" stop-color="#A66644"/><stop offset="0.35" stop-color="#964A22"/><stop offset="0.65" stop-color="#551C0B"/><stop offset="0.99" stop-color="#361211"/></radialGradient><path opacity="0.49" fill="url(#SVGID_20_)" d="M49.27 20.19c2.06 1.1 3.27 2.41 3.27 3.82 0 3.88-9.12 7.03-20.38 7.03 -10.82 0-19.67-2.91-20.33-6.59 -0.03 0.15-0.04 0.31-0.04 0.46 0 4.15 9.44 7.51 21.09 7.51 11.65 0 21.09-3.36 21.09-7.51C53.97 23.13 52.21 21.48 49.27 20.19z"/><radialGradient id="SVGID_21_" cx="46.78" cy="33.06" r="26.16" gradientUnits="userSpaceOnUse"><stop offset="0" stop-color="#FFFFFF"/><stop offset="0.15" stop-color="#CFAD9B"/><stop offset="0.28" stop-color="#A66644"/><stop offset="0.35" stop-color="#964A22"/><stop offset="0.65" stop-color="#551C0B"/><stop offset="0.99" stop-color="#361211"/></radialGradient><path opacity="0.49" fill="url(#SVGID_21_)" d="M42.82 35.75c0 0 7.51-5.15 7.94 2.9C49.68 36.93 49.89 34.03 42.82 35.75z"/><radialGradient id="SVGID_22_" cx="51.03" cy="38.61" r="15.79" gradientUnits="userSpaceOnUse"><stop offset="0" stop-color="#FFFFFF"/><stop offset="0.15" stop-color="#CFAD9B"/><stop offset="0.28" stop-color="#A66644"/><stop offset="0.35" stop-color="#964A22"/><stop offset="0.65" stop-color="#551C0B"/><stop offset="0.99" stop-color="#361211"/></radialGradient><path opacity="0.51" fill="url(#SVGID_22_)" d="M51.29 39.39c0 0-0.05 2.31-0.75 3.32C52.15 42.72 51.29 39.39 51.29 39.39z"/><radialGradient id="SVGID_23_" cx="50.95" cy="19.82" r="131.2" gradientUnits="userSpaceOnUse"><stop offset="0" stop-color="#FFFFFF"/><stop offset="0.15" stop-color="#CFAD9B"/><stop offset="0.28" stop-color="#A66644"/><stop offset="0.35" stop-color="#964A22"/><stop offset="0.65" stop-color="#551C0B"/><stop offset="0.99" stop-color="#361211"/></radialGradient><path opacity="0.16" fill="url(#SVGID_23_)" d="M45.48 19.35c0.01 0.14 0.02 0.28 0.02 0.42 0 4.4-5.29 9.64-11.16 9.75 4.08 0.75 17.07-1.72 17.07-5.84C51.42 21.8 49 20.16 45.48 19.35z"/><radialGradient id="SVGID_24_" cx="43.86" cy="35.56" r="29.75" gradientUnits="userSpaceOnUse"><stop offset="0" stop-color="#FFFFFF"/><stop offset="0.15" stop-color="#CFAD9B"/><stop offset="0.28" stop-color="#A66644"/><stop offset="0.35" stop-color="#964A22"/><stop offset="0.65" stop-color="#551C0B"/><stop offset="0.99" stop-color="#361211"/></radialGradient><path opacity="0.5" fill="url(#SVGID_24_)" d="M41.9 37.81c0 0-1.88 2.39-1.88 5.12s-1.23 3.16-2.04 2.04c1.25-0.04 1.36-1.09 1.36-2.22S39.44 39.01 41.9 37.81z"/><radialGradient id="SVGID_25_" cx="36.74" cy="40.24" r="23.26" gradientUnits="userSpaceOnUse"><stop offset="0" stop-color="#FFFFFF"/><stop offset="0.15" stop-color="#CFAD9B"/><stop offset="0.28" stop-color="#A66644"/><stop offset="0.35" stop-color="#964A22"/><stop offset="0.65" stop-color="#551C0B"/><stop offset="0.99" stop-color="#361211"/></radialGradient><path fill="url(#SVGID_25_)" d="M33.52 41.9c0 0-1.86 0.07-2.57 1.97 -0.71 1.9-1.89 5.19-3.86 2.86 1.57 0.46 2.11-0.54 2.93-2.18C30.84 42.9 31.45 41.75 33.52 41.9z"/><radialGradient id="SVGID_26_" cx="53.82" cy="25.3" r="21.63" gradientUnits="userSpaceOnUse"><stop offset="0" stop-color="#FFFFFF"/><stop offset="0.15" stop-color="#CFAD9B"/><stop offset="0.28" stop-color="#A66644"/><stop offset="0.35" stop-color="#964A22"/><stop offset="0.65" stop-color="#551C0B"/><stop offset="0.99" stop-color="#361211"/></radialGradient><path opacity="0.33" fill="url(#SVGID_26_)" d="M48.71 31.24c0 0 4.18-1.93 5.47-3.97 0 2.25 0.43 3.65-0.64 4.93 -1.07 1.29-1.93 2.47-2.14 3.43C50.75 33.28 50.54 31.56 48.71 31.24z"/><radialGradient id="SVGID_27_" cx="118.29" cy="20.84" r="72.4" gradientTransform="matrix(1.0102 0 0 1 -9.1333 0)" gradientUnits="userSpaceOnUse"><stop offset="0" stop-color="#FFFFFF"/><stop offset="0.02" stop-color="#FEF7E2"/><stop offset="0.09" stop-color="#FBE18C"/><stop offset="0.13" stop-color="#FAD86A"/><stop offset="0.37" stop-color="#F5CB5A"/><stop offset="0.65" stop-color="#C57315"/><stop offset="0.99" stop-color="#AC4A12"/></radialGradient><path fill="url(#SVGID_27_)" d="M69.8 45.94c0 5.17 9.9 9.37 22.07 9.37s22.03-4.19 22.03-9.37c0-3.66 0-11.94 0-18.52 -3.39 0-40.52 0-44.1 0C69.8 36.93 69.8 40.76 69.8 45.94z"/><radialGradient id="SVGID_28_" cx="1770.54" cy="-9.08" r="35.67" gradientTransform="matrix(-0.9953 0 0 1 1874.1602 0)" gradientUnits="userSpaceOnUse"><stop offset="0" stop-color="#FFFFFF"/><stop offset="0.15" stop-color="#CFAD9B"/><stop offset="0.28" stop-color="#A66644"/><stop offset="0.35" stop-color="#964A22"/><stop offset="0.65" stop-color="#551C0B"/><stop offset="0.99" stop-color="#361211"/></radialGradient><path fill="url(#SVGID_28_)" d="M69.43 26.34c0 0.6-1.21 3.75 0.39 3.75 0.97 0 0.58-1.27 1.42-0.32 2.95 3.32 3.81 9.19 6.9 12.08 1.48 1.38 3.47 0.9 5.18 1.72 2.56 1.23 1.73 5.22 5.09 5.22 2.94 0 1.96-5.49 4.84-5.49 3.04 0 3.27 3.7 5.29 3.7 2.62 0 1.39-6.1 4-8.58 3.84-3.65 6.81-1.15 6.24 1.02 -0.64 2.47 0.21 4.56 1.39 4.56 1.87 0 1.43-3.67 1.33-4.66 -0.27-2.73 1.01-4.61 2.03-5.42 1.56-1.23 1.17-6.05 1.17-7.53 0-5.02-7.6-9.98-22.97-9.98C75.79 16.4 69.43 21.32 69.43 26.34z"/><radialGradient id="SVGID_29_" cx="1773.58" cy="0.25" r="51.4" gradientTransform="matrix(-0.9953 0 0 1 1874.3379 0)" gradientUnits="userSpaceOnUse"><stop offset="0" stop-color="#FFFFFF"/><stop offset="0.15" stop-color="#CFAD9B"/><stop offset="0.28" stop-color="#A66644"/><stop offset="0.35" stop-color="#964A22"/><stop offset="0.65" stop-color="#551C0B"/><stop offset="0.99" stop-color="#361211"/></radialGradient><path fill="url(#SVGID_29_)" d="M69.35 25.49c0 0.6-1.21 3.75 0.39 3.75 0.97 0 0.58-1.27 1.42-0.32 2.95 3.32 3.81 9.19 6.9 12.08 1.48 1.38 3.47 0.9 5.18 1.72 2.56 1.23 1.76 5.36 5.12 5.36 2.94 0 1.92-5.63 4.8-5.63 3.04 0 3.27 3.7 5.29 3.7 2.62 0 1.39-6.1 4-8.58 3.84-3.65 6.81-1.15 6.24 1.02 -0.64 2.47 0.2 4.56 1.39 4.56 1.87 0 1.43-3.67 1.33-4.66 -0.27-2.73 1.01-4.61 2.03-5.42 1.56-1.24 1.17-6.05 1.17-7.53 0-5.02-7.6-9.98-22.97-9.98C75.72 15.55 69.35 20.47 69.35 25.49z"/><radialGradient id="SVGID_30_" cx="110.72" cy="-2.33" r="29.35" gradientUnits="userSpaceOnUse"><stop offset="0" stop-color="#FFFFFF"/><stop offset="0.15" stop-color="#CFAD9B"/><stop offset="0.28" stop-color="#A66644"/><stop offset="0.35" stop-color="#964A22"/><stop offset="0.65" stop-color="#551C0B"/><stop offset="0.99" stop-color="#361211"/></radialGradient><ellipse fill="url(#SVGID_30_)" cx="91.63" cy="19.98" rx="12.94" ry="4.43"/><radialGradient id="SVGID_31_" cx="1796.28" cy="9.83" r="86.12" gradientTransform="matrix(-1 0 0 1 1877.9688 0)" gradientUnits="userSpaceOnUse"><stop offset="0" stop-color="#FFFFFF"/><stop offset="1" stop-color="#646464"/></radialGradient><path fill="url(#SVGID_31_)" d="M100.68 13.47c0 0 0.79-2.97-1.25-3.57s-10.01-0.82-10.62 0C88.2 10.72 100.68 13.47 100.68 13.47z"/><radialGradient id="SVGID_32_" cx="1791.28" cy="2.82" r="61.41" gradientTransform="matrix(-1 0 0 1 1877.9688 0)" gradientUnits="userSpaceOnUse"><stop offset="0" stop-color="#FFFFFF"/><stop offset="1" stop-color="#646464"/></radialGradient><path fill="url(#SVGID_32_)" d="M88.84 8c0 0-8.62 2.1-9.69 7.01 -1.14 5.26 2.61 6.94 13.94 8.8C97.13 24.47 88.84 8 88.84 8z"/><radialGradient id="SVGID_33_" cx="1774.26" cy="-6.04" r="83.41" gradientTransform="matrix(-1 0 0 1 1877.9688 0)" gradientUnits="userSpaceOnUse"><stop offset="0" stop-color="#FFFFFF"/><stop offset="1" stop-color="#646464"/></radialGradient><path fill="url(#SVGID_33_)" d="M88.77 8.93c0 0-6.58 1.04-6.76 5.26s4.01 7.54 6.26 8.19c2.25 0.64 3-1.07 2.72-3.75C90.7 15.94 88.77 8.93 88.77 8.93z"/><radialGradient id="SVGID_34_" cx="1796.71" cy="6.54" r="98.43" gradientTransform="matrix(-1 0 0 1 1877.9688 0)" gradientUnits="userSpaceOnUse"><stop offset="0" stop-color="#FFFFFF"/><stop offset="1" stop-color="#646464"/></radialGradient><path fill="url(#SVGID_34_)" d="M88.23 8.72c0 0-5.58 1.25-5.58 4.97 0 3.72 3.61 4.54 5.08 4.83 1.47 0.29 6.08 2.65 6.08 3.79 0 1.14 0.04 1.43 0.04 1.43s3.15-2.75 3.93-2.82C98.57 20.84 88.23 8.72 88.23 8.72z"/><radialGradient id="SVGID_35_" cx="399.53" cy="519.11" r="13.45" gradientTransform="matrix(0.8953 0.4557 -0.4584 0.8901 -18.5964 -635.9854)" gradientUnits="userSpaceOnUse"><stop offset="0" stop-color="#FFFFFF"/><stop offset="0.05" stop-color="#FECFCD"/><stop offset="0.17" stop-color="#FB5B55"/><stop offset="0.22" stop-color="#FA2D25"/><stop offset="0.52" stop-color="#DB2214"/><stop offset="0.77" stop-color="#C9140B"/><stop offset="0.98" stop-color="#AA0B05"/></radialGradient><path fill="url(#SVGID_35_)" d="M95.4 5.87c1.41 1.64 1.82 3.55 1.03 4.94 -1.08 1.91-4.74 3.36-7.77 1.82 -2.28-1.16-2.46-4.39-1.35-6.28 1.3-2.21 3.85-3.95 5.73-3.16C94.36 3.75 94.47 4.8 95.4 5.87z"/><radialGradient id="SVGID_36_" cx="394.31" cy="517.92" r="23.96" gradientTransform="matrix(0.8953 0.4557 -0.4584 0.8901 -18.5964 -635.9854)" gradientUnits="userSpaceOnUse"><stop offset="0" stop-color="#FFFFFF"/><stop offset="0.05" stop-color="#FECFCD"/><stop offset="0.17" stop-color="#FB5B55"/><stop offset="0.22" stop-color="#FA2D25"/><stop offset="0.52" stop-color="#DB2214"/><stop offset="0.77" stop-color="#C9140B"/><stop offset="0.98" stop-color="#AA0B05"/></radialGradient><path opacity="0.29" fill="url(#SVGID_36_)" d="M94.55 4.76c0 0-1.01-1.21-1.62-0.96 -0.48 0.2 0.5 1.32 0.75 1.77 0.25 0.45 1.99 2.69 2.54 2.47C96.76 7.8 95.17 5.8 94.55 4.76z"/><radialGradient id="SVGID_37_" cx="395.83" cy="518.02" r="5.45" gradientTransform="matrix(0.8953 0.4557 -0.4584 0.8901 -18.5964 -635.9854)" gradientUnits="userSpaceOnUse"><stop offset="0" stop-color="#FFFFFF"/><stop offset="0.05" stop-color="#FECFCD"/><stop offset="0.17" stop-color="#FB5B55"/><stop offset="0.22" stop-color="#FA2D25"/><stop offset="0.52" stop-color="#DB2214"/><stop offset="0.77" stop-color="#C9140B"/><stop offset="0.98" stop-color="#AA0B05"/></radialGradient><path fill="url(#SVGID_37_)" d="M95.6 6.94c-0.17 0.56-0.73-0.19-1.09-0.48 -0.62-0.5-0.88-1.25-0.73-1.44 0.18-0.23 0.5-0.17 1 0.4C95.35 6.1 95.72 6.55 95.6 6.94z"/><radialGradient id="SVGID_38_" cx="399.81" cy="522.24" r="44.09" gradientTransform="matrix(0.8953 0.4557 -0.4584 0.8901 -18.5964 -635.9854)" gradientUnits="userSpaceOnUse"><stop offset="0" stop-color="#FFFFFF"/><stop offset="0.05" stop-color="#FECFCD"/><stop offset="0.17" stop-color="#FB5B55"/><stop offset="0.22" stop-color="#FA2D25"/><stop offset="0.52" stop-color="#DB2214"/><stop offset="0.77" stop-color="#C9140B"/><stop offset="0.98" stop-color="#AA0B05"/></radialGradient><path opacity="0.21" fill="url(#SVGID_38_)" d="M88.66 12.63c3.03 1.54 6.69 0.09 7.77-1.82 0.17-0.31 0.28-0.65 0.34-1 -0.15-0.39-0.32-0.77-0.47-1 -0.52-0.77-0.94-0.98-0.94-0.98s0.59 1.61-1 2.05c-1.48 0.41-5.67 2-7.69-0.57C86.76 10.67 87.38 11.98 88.66 12.63z"/><radialGradient id="SVGID_39_" cx="387.58" cy="516.12" r="21.46" gradientTransform="matrix(0.8953 0.4557 -0.4584 0.8901 -18.5964 -635.9854)" gradientUnits="userSpaceOnUse"><stop offset="0" stop-color="#FFFFFF"/><stop offset="0.05" stop-color="#FECFCD"/><stop offset="0.17" stop-color="#FB5B55"/><stop offset="0.22" stop-color="#FA2D25"/><stop offset="0.52" stop-color="#DB2214"/><stop offset="0.77" stop-color="#C9140B"/><stop offset="0.98" stop-color="#AA0B05"/></radialGradient><path opacity="0.34" fill="url(#SVGID_39_)" d="M88.49 5.91c0.78-0.78 3.16-2.12 3.44-2.57 0.12-0.19 0.48-0.24 0.86-0.24 -1.85-0.55-4.23 1.12-5.48 3.24 -0.41 0.69-0.64 1.57-0.66 2.45C86.85 8.43 87.8 6.61 88.49 5.91z"/><radialGradient id="SVGID_40_" cx="390.99" cy="520.11" r="17.83" gradientTransform="matrix(0.8953 0.4557 -0.4584 0.8901 -18.5964 -635.9854)" gradientUnits="userSpaceOnUse"><stop offset="0" stop-color="#FFFFFF"/><stop offset="0.05" stop-color="#FECFCD"/><stop offset="0.17" stop-color="#FB5B55"/><stop offset="0.22" stop-color="#FA2D25"/><stop offset="0.52" stop-color="#DB2214"/><stop offset="0.77" stop-color="#C9140B"/><stop offset="0.98" stop-color="#AA0B05"/></radialGradient><path opacity="0.19" fill="url(#SVGID_40_)" d="M90.59 5.59c0 0 0.52-0.7 1.44-0.15 0.92 0.55 1.54 1.29 1.61 1.72s-0.88 0.09-1.47-0.37C91.57 6.33 90.41 6.04 90.59 5.59z"/><radialGradient id="SVGID_41_" cx="390.71" cy="520.87" r="33.07" gradientTransform="matrix(0.8953 0.4557 -0.4584 0.8901 -18.5964 -635.9854)" gradientUnits="userSpaceOnUse"><stop offset="0" stop-color="#FFFFFF"/><stop offset="0.05" stop-color="#FECFCD"/><stop offset="0.17" stop-color="#FB5B55"/><stop offset="0.22" stop-color="#FA2D25"/><stop offset="0.52" stop-color="#DB2214"/><stop offset="0.77" stop-color="#C9140B"/><stop offset="0.98" stop-color="#AA0B05"/></radialGradient><path opacity="0.73" fill="url(#SVGID_41_)" d="M91.41 5.51c0 0 0.79 0.19 1 0.46 0.21 0.27 0.62 0.66 0.5 0.79 -0.12 0.13-0.8-0.48-0.86-0.52C91.99 6.2 90.48 5.86 91.41 5.51z"/><radialGradient id="SVGID_42_" cx="1790.56" cy="-4.19" r="75.85" gradientTransform="matrix(-1 0 0 1 1877.9688 0)" gradientUnits="userSpaceOnUse"><stop offset="0" stop-color="#FFFFFF"/><stop offset="1" stop-color="#646464"/></radialGradient><path fill="url(#SVGID_42_)" d="M87.77 9.83c0 0-1.75 1.75-1.75 4.36s2.29 3.68 3.93 3.68 3.97 0.47 5.11 1.54 1.79 1.82 3.5 2.07c1.72 0.25 3.9 0.39 4.04-0.54C102.75 20.02 87.77 9.83 87.77 9.83z"/><radialGradient id="SVGID_43_" cx="1787.7" cy="0.1" r="56.12" gradientTransform="matrix(-1 0 0 1 1877.9688 0)" gradientUnits="userSpaceOnUse"><stop offset="0" stop-color="#FFFFFF"/><stop offset="1" stop-color="#646464"/></radialGradient><path fill="url(#SVGID_43_)" d="M98.1 17.23c2.27 1.4 5.17 1.11 6.19 1.36 0 0 1.65-2.32 0.75-3.72s-2.93-2.25-4.4-2.39c-1.46-0.14-4.68-1.25-6.22-1.82s-3.5 0.25-3.79 1c-0.29 0.75-0.57 1.72-0.57 1.72S94.56 15.05 98.1 17.23z"/><radialGradient id="SVGID_44_" cx="1792.56" cy="1.25" r="158.99" gradientTransform="matrix(-1 0 0 1 1877.9688 0)" gradientUnits="userSpaceOnUse"><stop offset="0" stop-color="#FFFFFF"/><stop offset="1" stop-color="#646464"/></radialGradient><path fill="url(#SVGID_44_)" d="M87.95 10.22c0 0-0.82 2.15 1.57 3s6.15 1.75 7.72 3.58c1.57 1.82 4.68 5.36 5.58 4.43 0.89-0.93 3.07-2.93 1.47-3.54 -1.61-0.61-5.58-0.18-6.86-1.5 -1.29-1.32-2.43-1.75-4.43-2.36C90.99 13.22 89.38 12.9 87.95 10.22z"/><radialGradient id="SVGID_45_" cx="1747.05" cy="22.12" r="59.16" gradientTransform="matrix(-1.0131 0 0 1 1890.8403 0)" gradientUnits="userSpaceOnUse"><stop offset="0" stop-color="#FFFFFF"/><stop offset="0.02" stop-color="#FEF7E2"/><stop offset="0.09" stop-color="#FBE18C"/><stop offset="0.13" stop-color="#FAD86A"/><stop offset="0.37" stop-color="#F5CB5A"/><stop offset="0.65" stop-color="#C57315"/><stop offset="0.99" stop-color="#AC4A12"/></radialGradient><path fill="url(#SVGID_45_)" d="M92.15 51.15c10.26 0 18.93-2.39 21.81-5.67 0 0.48 0 0.92 0 1.31 0 5.17-9.89 9.37-22.09 9.37s-22.09-4.19-22.09-9.37c0-0.73 0-1.43 0-2.12C71.83 48.37 81.07 51.15 92.15 51.15z"/><radialGradient id="SVGID_46_" cx="153.02" cy="-462.14" r="52.58" gradientTransform="matrix(1.0536 0 0 1.1798 -48.1436 569.7129)" gradientUnits="userSpaceOnUse"><stop offset="0" stop-color="#FFFFFF"/><stop offset="0.15" stop-color="#CFAD9B"/><stop offset="0.28" stop-color="#A66644"/><stop offset="0.35" stop-color="#964A22"/><stop offset="0.65" stop-color="#551C0B"/><stop offset="0.99" stop-color="#361211"/></radialGradient><path opacity="0.49" fill="url(#SVGID_46_)" d="M109.02 20.19c2.06 1.1 3.27 2.41 3.27 3.82 0 3.89-9.12 7.03-20.38 7.03 -10.82 0-19.67-2.91-20.33-6.59 -0.02 0.15-0.04 0.31-0.04 0.46 0 4.15 9.44 7.51 21.09 7.51 11.65 0 21.09-3.36 21.09-7.51C113.72 23.13 111.96 21.48 109.02 20.19z"/><radialGradient id="SVGID_47_" cx="106.53" cy="33.06" r="26.16" gradientUnits="userSpaceOnUse"><stop offset="0" stop-color="#FFFFFF"/><stop offset="0.15" stop-color="#CFAD9B"/><stop offset="0.28" stop-color="#A66644"/><stop offset="0.35" stop-color="#964A22"/><stop offset="0.65" stop-color="#551C0B"/><stop offset="0.99" stop-color="#361211"/></radialGradient><path opacity="0.49" fill="url(#SVGID_47_)" d="M102.57 35.75c0 0 7.51-5.15 7.94 2.9C109.43 36.93 109.64 34.03 102.57 35.75z"/><radialGradient id="SVGID_48_" cx="110.78" cy="38.61" r="15.79" gradientUnits="userSpaceOnUse"><stop offset="0" stop-color="#FFFFFF"/><stop offset="0.15" stop-color="#CFAD9B"/><stop offset="0.28" stop-color="#A66644"/><stop offset="0.35" stop-color="#964A22"/><stop offset="0.65" stop-color="#551C0B"/><stop offset="0.99" stop-color="#361211"/></radialGradient><path opacity="0.51" fill="url(#SVGID_48_)" d="M111.04 39.39c0 0-0.05 2.31-0.75 3.32C111.9 42.72 111.04 39.39 111.04 39.39z"/><radialGradient id="SVGID_49_" cx="110.7" cy="19.82" r="131.2" gradientUnits="userSpaceOnUse"><stop offset="0" stop-color="#FFFFFF"/><stop offset="0.15" stop-color="#CFAD9B"/><stop offset="0.28" stop-color="#A66644"/><stop offset="0.35" stop-color="#964A22"/><stop offset="0.65" stop-color="#551C0B"/><stop offset="0.99" stop-color="#361211"/></radialGradient><path opacity="0.16" fill="url(#SVGID_49_)" d="M105.23 19.35c0.01 0.14 0.02 0.28 0.02 0.42 0 4.4-5.29 9.64-11.16 9.75 4.08 0.75 17.07-1.71 17.07-5.84C111.17 21.8 108.75 20.16 105.23 19.35z"/><radialGradient id="SVGID_50_" cx="103.61" cy="35.56" r="29.75" gradientUnits="userSpaceOnUse"><stop offset="0" stop-color="#FFFFFF"/><stop offset="0.15" stop-color="#CFAD9B"/><stop offset="0.28" stop-color="#A66644"/><stop offset="0.35" stop-color="#964A22"/><stop offset="0.65" stop-color="#551C0B"/><stop offset="0.99" stop-color="#361211"/></radialGradient><path opacity="0.5" fill="url(#SVGID_50_)" d="M101.65 37.81c0 0-1.88 2.39-1.88 5.12s-1.23 3.16-2.04 2.04c1.25-0.04 1.36-1.09 1.36-2.22S99.19 39.01 101.65 37.81z"/><radialGradient id="SVGID_51_" cx="96.49" cy="40.24" r="23.26" gradientUnits="userSpaceOnUse"><stop offset="0" stop-color="#FFFFFF"/><stop offset="0.15" stop-color="#CFAD9B"/><stop offset="0.28" stop-color="#A66644"/><stop offset="0.35" stop-color="#964A22"/><stop offset="0.65" stop-color="#551C0B"/><stop offset="0.99" stop-color="#361211"/></radialGradient><path fill="url(#SVGID_51_)" d="M93.27 41.9c0 0-1.86 0.07-2.57 1.97 -0.71 1.9-1.9 5.19-3.86 2.86 1.57 0.46 2.11-0.54 2.93-2.18C90.59 42.9 91.2 41.75 93.27 41.9z"/><radialGradient id="SVGID_52_" cx="113.57" cy="25.3" r="21.63" gradientUnits="userSpaceOnUse"><stop offset="0" stop-color="#FFFFFF"/><stop offset="0.15" stop-color="#CFAD9B"/><stop offset="0.28" stop-color="#A66644"/><stop offset="0.35" stop-color="#964A22"/><stop offset="0.65" stop-color="#551C0B"/><stop offset="0.99" stop-color="#361211"/></radialGradient><path opacity="0.33" fill="url(#SVGID_52_)" d="M108.46 31.24c0 0 4.18-1.93 5.47-3.97 0 2.25 0.43 3.65-0.64 4.93 -1.07 1.29-1.93 2.47-2.14 3.43C110.5 33.28 110.29 31.56 108.46 31.24z"/><radialGradient id="SVGID_53_" cx="177.44" cy="20.84" r="72.4" gradientTransform="matrix(1.0102 0 0 1 -9.1333 0)" gradientUnits="userSpaceOnUse"><stop offset="0" stop-color="#FFFFFF"/><stop offset="0.02" stop-color="#FEF7E2"/><stop offset="0.09" stop-color="#FBE18C"/><stop offset="0.13" stop-color="#FAD86A"/><stop offset="0.37" stop-color="#F5CB5A"/><stop offset="0.65" stop-color="#C57315"/><stop offset="0.99" stop-color="#AC4A12"/></radialGradient><path fill="url(#SVGID_53_)" d="M129.55 45.94c0 5.17 9.9 9.37 22.07 9.37s22.03-4.19 22.03-9.37c0-3.66 0-11.94 0-18.52 -3.39 0-40.52 0-44.1 0C129.55 36.93 129.55 40.76 129.55 45.94z"/><radialGradient id="SVGID_54_" cx="1710.5" cy="-9.08" r="35.67" gradientTransform="matrix(-0.9953 0 0 1 1874.1602 0)" gradientUnits="userSpaceOnUse"><stop offset="0" stop-color="#FFFFFF"/><stop offset="0.15" stop-color="#CFAD9B"/><stop offset="0.28" stop-color="#A66644"/><stop offset="0.35" stop-color="#964A22"/><stop offset="0.65" stop-color="#551C0B"/><stop offset="0.99" stop-color="#361211"/></radialGradient><path fill="url(#SVGID_54_)" d="M129.18 26.34c0 0.6-1.21 3.75 0.39 3.75 0.97 0 0.58-1.27 1.42-0.32 2.95 3.32 3.81 9.19 6.9 12.08 1.48 1.38 3.47 0.9 5.18 1.72 2.56 1.23 1.73 5.22 5.09 5.22 2.94 0 1.96-5.49 4.84-5.49 3.04 0 3.27 3.7 5.29 3.7 2.62 0 1.39-6.1 4-8.58 3.84-3.65 6.81-1.15 6.24 1.02 -0.64 2.47 0.21 4.56 1.39 4.56 1.87 0 1.43-3.67 1.33-4.66 -0.27-2.73 1.01-4.61 2.03-5.42 1.56-1.23 1.17-6.05 1.17-7.53 0-5.02-7.6-9.98-22.97-9.98C135.54 16.4 129.18 21.32 129.18 26.34z"/><radialGradient id="SVGID_55_" cx="1713.54" cy="0.25" r="51.4" gradientTransform="matrix(-0.9953 0 0 1 1874.3379 0)" gradientUnits="userSpaceOnUse"><stop offset="0" stop-color="#FFFFFF"/><stop offset="0.15" stop-color="#CFAD9B"/><stop offset="0.28" stop-color="#A66644"/><stop offset="0.35" stop-color="#964A22"/><stop offset="0.65" stop-color="#551C0B"/><stop offset="0.99" stop-color="#361211"/></radialGradient><path fill="url(#SVGID_55_)" d="M129.1 25.49c0 0.6-1.21 3.75 0.39 3.75 0.97 0 0.58-1.27 1.42-0.32 2.95 3.32 3.81 9.19 6.9 12.08 1.48 1.38 3.47 0.9 5.18 1.72 2.56 1.23 1.76 5.36 5.12 5.36 2.94 0 1.92-5.63 4.8-5.63 3.04 0 3.27 3.7 5.29 3.7 2.62 0 1.39-6.1 4-8.58 3.84-3.65 6.81-1.15 6.24 1.02 -0.64 2.47 0.2 4.56 1.39 4.56 1.87 0 1.43-3.67 1.33-4.66 -0.27-2.73 1.01-4.61 2.03-5.42 1.56-1.24 1.17-6.05 1.17-7.53 0-5.02-7.6-9.98-22.97-9.98C135.47 15.55 129.1 20.47 129.1 25.49z"/><radialGradient id="SVGID_56_" cx="170.47" cy="-2.33" r="29.35" gradientUnits="userSpaceOnUse"><stop offset="0" stop-color="#FFFFFF"/><stop offset="0.15" stop-color="#CFAD9B"/><stop offset="0.28" stop-color="#A66644"/><stop offset="0.35" stop-color="#964A22"/><stop offset="0.65" stop-color="#551C0B"/><stop offset="0.99" stop-color="#361211"/></radialGradient><ellipse fill="url(#SVGID_56_)" cx="151.38" cy="19.98" rx="12.94" ry="4.43"/><radialGradient id="SVGID_57_" cx="1736.53" cy="9.83" r="86.12" gradientTransform="matrix(-1 0 0 1 1877.9688 0)" gradientUnits="userSpaceOnUse"><stop offset="0" stop-color="#FFFFFF"/><stop offset="1" stop-color="#646464"/></radialGradient><path fill="url(#SVGID_57_)" d="M160.43 13.47c0 0 0.79-2.97-1.25-3.57s-10.01-0.82-10.62 0C147.95 10.72 160.43 13.47 160.43 13.47z"/><radialGradient id="SVGID_58_" cx="1731.53" cy="2.82" r="61.41" gradientTransform="matrix(-1 0 0 1 1877.9688 0)" gradientUnits="userSpaceOnUse"><stop offset="0" stop-color="#FFFFFF"/><stop offset="1" stop-color="#646464"/></radialGradient><path fill="url(#SVGID_58_)" d="M148.59 8c0 0-8.62 2.1-9.69 7.01 -1.14 5.26 2.61 6.94 13.94 8.8C156.88 24.47 148.59 8 148.59 8z"/><radialGradient id="SVGID_59_" cx="1714.51" cy="-6.04" r="83.41" gradientTransform="matrix(-1 0 0 1 1877.9688 0)" gradientUnits="userSpaceOnUse"><stop offset="0" stop-color="#FFFFFF"/><stop offset="1" stop-color="#646464"/></radialGradient><path fill="url(#SVGID_59_)" d="M148.52 8.93c0 0-6.58 1.04-6.76 5.26s4.01 7.54 6.26 8.19c2.25 0.64 3-1.07 2.72-3.75C150.45 15.94 148.52 8.93 148.52 8.93z"/><radialGradient id="SVGID_60_" cx="1736.96" cy="6.54" r="98.43" gradientTransform="matrix(-1 0 0 1 1877.9688 0)" gradientUnits="userSpaceOnUse"><stop offset="0" stop-color="#FFFFFF"/><stop offset="1" stop-color="#646464"/></radialGradient><path fill="url(#SVGID_60_)" d="M147.98 8.72c0 0-5.58 1.25-5.58 4.97 0 3.72 3.61 4.54 5.08 4.83 1.47 0.29 6.08 2.65 6.08 3.79 0 1.14 0.04 1.43 0.04 1.43s3.15-2.75 3.93-2.82C158.32 20.84 147.98 8.72 147.98 8.72z"/><radialGradient id="SVGID_61_" cx="452.41" cy="492.04" r="13.45" gradientTransform="matrix(0.8953 0.4557 -0.4584 0.8901 -18.5964 -635.9854)" gradientUnits="userSpaceOnUse"><stop offset="0" stop-color="#FFFFFF"/><stop offset="0.05" stop-color="#FECFCD"/><stop offset="0.17" stop-color="#FB5B55"/><stop offset="0.22" stop-color="#FA2D25"/><stop offset="0.52" stop-color="#DB2214"/><stop offset="0.77" stop-color="#C9140B"/><stop offset="0.98" stop-color="#AA0B05"/></radialGradient><path fill="url(#SVGID_61_)" d="M155.15 5.87c1.41 1.64 1.82 3.55 1.03 4.94 -1.08 1.91-4.74 3.36-7.77 1.82 -2.28-1.16-2.46-4.39-1.35-6.28 1.3-2.21 3.85-3.95 5.73-3.16C154.11 3.75 154.22 4.8 155.15 5.87z"/><radialGradient id="SVGID_62_" cx="447.19" cy="490.85" r="23.96" gradientTransform="matrix(0.8953 0.4557 -0.4584 0.8901 -18.5964 -635.9854)" gradientUnits="userSpaceOnUse"><stop offset="0" stop-color="#FFFFFF"/><stop offset="0.05" stop-color="#FECFCD"/><stop offset="0.17" stop-color="#FB5B55"/><stop offset="0.22" stop-color="#FA2D25"/><stop offset="0.52" stop-color="#DB2214"/><stop offset="0.77" stop-color="#C9140B"/><stop offset="0.98" stop-color="#AA0B05"/></radialGradient><path opacity="0.29" fill="url(#SVGID_62_)" d="M154.3 4.76c0 0-1.01-1.21-1.62-0.96 -0.48 0.2 0.5 1.32 0.75 1.77 0.25 0.45 1.99 2.69 2.54 2.47C156.51 7.8 154.92 5.8 154.3 4.76z"/><radialGradient id="SVGID_63_" cx="448.71" cy="490.95" r="5.45" gradientTransform="matrix(0.8953 0.4557 -0.4584 0.8901 -18.5964 -635.9854)" gradientUnits="userSpaceOnUse"><stop offset="0" stop-color="#FFFFFF"/><stop offset="0.05" stop-color="#FECFCD"/><stop offset="0.17" stop-color="#FB5B55"/><stop offset="0.22" stop-color="#FA2D25"/><stop offset="0.52" stop-color="#DB2214"/><stop offset="0.77" stop-color="#C9140B"/><stop offset="0.98" stop-color="#AA0B05"/></radialGradient><path fill="url(#SVGID_63_)" d="M155.35 6.94c-0.17 0.56-0.73-0.19-1.09-0.48 -0.62-0.5-0.88-1.25-0.73-1.44 0.18-0.23 0.5-0.17 1 0.4C155.1 6.1 155.47 6.55 155.35 6.94z"/><radialGradient id="SVGID_64_" cx="452.69" cy="495.17" r="44.08" gradientTransform="matrix(0.8953 0.4557 -0.4584 0.8901 -18.5964 -635.9854)" gradientUnits="userSpaceOnUse"><stop offset="0" stop-color="#FFFFFF"/><stop offset="0.05" stop-color="#FECFCD"/><stop offset="0.17" stop-color="#FB5B55"/><stop offset="0.22" stop-color="#FA2D25"/><stop offset="0.52" stop-color="#DB2214"/><stop offset="0.77" stop-color="#C9140B"/><stop offset="0.98" stop-color="#AA0B05"/></radialGradient><path opacity="0.21" fill="url(#SVGID_64_)" d="M148.41 12.63c3.03 1.54 6.69 0.09 7.77-1.82 0.17-0.31 0.28-0.65 0.34-1 -0.15-0.39-0.32-0.77-0.47-1 -0.52-0.77-0.94-0.98-0.94-0.98s0.59 1.61-1 2.05c-1.48 0.41-5.67 2-7.69-0.57C146.51 10.67 147.13 11.98 148.41 12.63z"/><radialGradient id="SVGID_65_" cx="440.46" cy="489.05" r="21.46" gradientTransform="matrix(0.8953 0.4557 -0.4584 0.8901 -18.5964 -635.9854)" gradientUnits="userSpaceOnUse"><stop offset="0" stop-color="#FFFFFF"/><stop offset="0.05" stop-color="#FECFCD"/><stop offset="0.17" stop-color="#FB5B55"/><stop offset="0.22" stop-color="#FA2D25"/><stop offset="0.52" stop-color="#DB2214"/><stop offset="0.77" stop-color="#C9140B"/><stop offset="0.98" stop-color="#AA0B05"/></radialGradient><path opacity="0.34" fill="url(#SVGID_65_)" d="M148.24 5.91c0.78-0.78 3.16-2.12 3.44-2.57 0.12-0.19 0.48-0.24 0.86-0.24 -1.85-0.55-4.23 1.12-5.48 3.24 -0.41 0.69-0.64 1.57-0.66 2.45C146.6 8.43 147.55 6.61 148.24 5.91z"/><radialGradient id="SVGID_66_" cx="443.87" cy="493.04" r="17.82" gradientTransform="matrix(0.8953 0.4557 -0.4584 0.8901 -18.5964 -635.9854)" gradientUnits="userSpaceOnUse"><stop offset="0" stop-color="#FFFFFF"/><stop offset="0.05" stop-color="#FECFCD"/><stop offset="0.17" stop-color="#FB5B55"/><stop offset="0.22" stop-color="#FA2D25"/><stop offset="0.52" stop-color="#DB2214"/><stop offset="0.77" stop-color="#C9140B"/><stop offset="0.98" stop-color="#AA0B05"/></radialGradient><path opacity="0.19" fill="url(#SVGID_66_)" d="M150.34 5.59c0 0 0.52-0.7 1.44-0.15 0.92 0.55 1.54 1.29 1.61 1.72s-0.88 0.09-1.47-0.37C151.32 6.33 150.16 6.04 150.34 5.59z"/><radialGradient id="SVGID_67_" cx="443.59" cy="493.8" r="33.06" gradientTransform="matrix(0.8953 0.4557 -0.4584 0.8901 -18.5964 -635.9854)" gradientUnits="userSpaceOnUse"><stop offset="0" stop-color="#FFFFFF"/><stop offset="0.05" stop-color="#FECFCD"/><stop offset="0.17" stop-color="#FB5B55"/><stop offset="0.22" stop-color="#FA2D25"/><stop offset="0.52" stop-color="#DB2214"/><stop offset="0.77" stop-color="#C9140B"/><stop offset="0.98" stop-color="#AA0B05"/></radialGradient><path opacity="0.73" fill="url(#SVGID_67_)" d="M151.16 5.51c0 0 0.79 0.19 1 0.46 0.21 0.27 0.62 0.66 0.5 0.79 -0.12 0.13-0.8-0.48-0.86-0.52C151.74 6.2 150.23 5.86 151.16 5.51z"/><radialGradient id="SVGID_68_" cx="1730.81" cy="-4.19" r="75.85" gradientTransform="matrix(-1 0 0 1 1877.9688 0)" gradientUnits="userSpaceOnUse"><stop offset="0" stop-color="#FFFFFF"/><stop offset="1" stop-color="#646464"/></radialGradient><path fill="url(#SVGID_68_)" d="M147.52 9.83c0 0-1.75 1.75-1.75 4.36s2.29 3.68 3.93 3.68 3.97 0.47 5.11 1.54 1.79 1.82 3.5 2.07c1.72 0.25 3.9 0.39 4.04-0.54C162.5 20.02 147.52 9.83 147.52 9.83z"/><radialGradient id="SVGID_69_" cx="1727.95" cy="0.1" r="56.12" gradientTransform="matrix(-1 0 0 1 1877.9688 0)" gradientUnits="userSpaceOnUse"><stop offset="0" stop-color="#FFFFFF"/><stop offset="1" stop-color="#646464"/></radialGradient><path fill="url(#SVGID_69_)" d="M157.85 17.23c2.27 1.4 5.17 1.11 6.19 1.36 0 0 1.65-2.32 0.75-3.72s-2.93-2.25-4.4-2.39c-1.46-0.14-4.68-1.25-6.22-1.82s-3.5 0.25-3.79 1c-0.29 0.75-0.57 1.72-0.57 1.72S154.31 15.05 157.85 17.23z"/><radialGradient id="SVGID_70_" cx="1732.81" cy="1.25" r="158.99" gradientTransform="matrix(-1 0 0 1 1877.9688 0)" gradientUnits="userSpaceOnUse"><stop offset="0" stop-color="#FFFFFF"/><stop offset="1" stop-color="#646464"/></radialGradient><path fill="url(#SVGID_70_)" d="M147.7 10.22c0 0-0.82 2.15 1.57 3s6.15 1.75 7.72 3.58c1.57 1.82 4.68 5.36 5.58 4.43 0.89-0.93 3.07-2.93 1.47-3.54 -1.61-0.61-5.58-0.18-6.86-1.5 -1.29-1.32-2.43-1.75-4.43-2.36C150.74 13.22 149.13 12.9 147.7 10.22z"/><radialGradient id="SVGID_71_" cx="1688.07" cy="22.12" r="59.16" gradientTransform="matrix(-1.0131 0 0 1 1890.8403 0)" gradientUnits="userSpaceOnUse"><stop offset="0" stop-color="#FFFFFF"/><stop offset="0.02" stop-color="#FEF7E2"/><stop offset="0.09" stop-color="#FBE18C"/><stop offset="0.13" stop-color="#FAD86A"/><stop offset="0.37" stop-color="#F5CB5A"/><stop offset="0.65" stop-color="#C57315"/><stop offset="0.99" stop-color="#AC4A12"/></radialGradient><path fill="url(#SVGID_71_)" d="M151.9 51.15c10.26 0 18.93-2.39 21.81-5.67 0 0.48 0 0.92 0 1.31 0 5.17-9.89 9.37-22.09 9.37s-22.09-4.19-22.09-9.37c0-0.73 0-1.43 0-2.12C131.58 48.37 140.82 51.15 151.9 51.15z"/><radialGradient id="SVGID_72_" cx="209.73" cy="-462.14" r="52.58" gradientTransform="matrix(1.0536 0 0 1.1798 -48.1436 569.7129)" gradientUnits="userSpaceOnUse"><stop offset="0" stop-color="#FFFFFF"/><stop offset="0.15" stop-color="#CFAD9B"/><stop offset="0.28" stop-color="#A66644"/><stop offset="0.35" stop-color="#964A22"/><stop offset="0.65" stop-color="#551C0B"/><stop offset="0.99" stop-color="#361211"/></radialGradient><path opacity="0.49" fill="url(#SVGID_72_)" d="M168.77 20.19c2.06 1.1 3.27 2.41 3.27 3.82 0 3.89-9.12 7.03-20.38 7.03 -10.82 0-19.67-2.91-20.33-6.59 -0.02 0.15-0.04 0.31-0.04 0.46 0 4.15 9.44 7.51 21.09 7.51 11.65 0 21.09-3.36 21.09-7.51C173.47 23.13 171.71 21.48 168.77 20.19z"/><radialGradient id="SVGID_73_" cx="166.28" cy="33.06" r="26.16" gradientUnits="userSpaceOnUse"><stop offset="0" stop-color="#FFFFFF"/><stop offset="0.15" stop-color="#CFAD9B"/><stop offset="0.28" stop-color="#A66644"/><stop offset="0.35" stop-color="#964A22"/><stop offset="0.65" stop-color="#551C0B"/><stop offset="0.99" stop-color="#361211"/></radialGradient><path opacity="0.49" fill="url(#SVGID_73_)" d="M162.32 35.75c0 0 7.51-5.15 7.94 2.9C169.18 36.93 169.39 34.03 162.32 35.75z"/><radialGradient id="SVGID_74_" cx="170.53" cy="38.61" r="15.79" gradientUnits="userSpaceOnUse"><stop offset="0" stop-color="#FFFFFF"/><stop offset="0.15" stop-color="#CFAD9B"/><stop offset="0.28" stop-color="#A66644"/><stop offset="0.35" stop-color="#964A22"/><stop offset="0.65" stop-color="#551C0B"/><stop offset="0.99" stop-color="#361211"/></radialGradient><path opacity="0.51" fill="url(#SVGID_74_)" d="M170.79 39.39c0 0-0.05 2.31-0.75 3.32C171.65 42.72 170.79 39.39 170.79 39.39z"/><radialGradient id="SVGID_75_" cx="170.45" cy="19.82" r="131.2" gradientUnits="userSpaceOnUse"><stop offset="0" stop-color="#FFFFFF"/><stop offset="0.15" stop-color="#CFAD9B"/><stop offset="0.28" stop-color="#A66644"/><stop offset="0.35" stop-color="#964A22"/><stop offset="0.65" stop-color="#551C0B"/><stop offset="0.99" stop-color="#361211"/></radialGradient><path opacity="0.16" fill="url(#SVGID_75_)" d="M164.98 19.35c0.01 0.14 0.02 0.28 0.02 0.42 0 4.4-5.29 9.64-11.16 9.75 4.08 0.75 17.07-1.71 17.07-5.84C170.92 21.8 168.5 20.16 164.98 19.35z"/><radialGradient id="SVGID_76_" cx="163.36" cy="35.56" r="29.75" gradientUnits="userSpaceOnUse"><stop offset="0" stop-color="#FFFFFF"/><stop offset="0.15" stop-color="#CFAD9B"/><stop offset="0.28" stop-color="#A66644"/><stop offset="0.35" stop-color="#964A22"/><stop offset="0.65" stop-color="#551C0B"/><stop offset="0.99" stop-color="#361211"/></radialGradient><path opacity="0.5" fill="url(#SVGID_76_)" d="M161.4 37.81c0 0-1.88 2.39-1.88 5.12s-1.23 3.16-2.04 2.04c1.25-0.04 1.36-1.09 1.36-2.22S158.94 39.01 161.4 37.81z"/><radialGradient id="SVGID_77_" cx="156.24" cy="40.24" r="23.26" gradientUnits="userSpaceOnUse"><stop offset="0" stop-color="#FFFFFF"/><stop offset="0.15" stop-color="#CFAD9B"/><stop offset="0.28" stop-color="#A66644"/><stop offset="0.35" stop-color="#964A22"/><stop offset="0.65" stop-color="#551C0B"/><stop offset="0.99" stop-color="#361211"/></radialGradient><path fill="url(#SVGID_77_)" d="M153.02 41.9c0 0-1.86 0.07-2.57 1.97 -0.71 1.9-1.9 5.19-3.86 2.86 1.57 0.46 2.11-0.54 2.93-2.18C150.34 42.9 150.95 41.75 153.02 41.9z"/><radialGradient id="SVGID_78_" cx="173.32" cy="25.3" r="21.63" gradientUnits="userSpaceOnUse"><stop offset="0" stop-color="#FFFFFF"/><stop offset="0.15" stop-color="#CFAD9B"/><stop offset="0.28" stop-color="#A66644"/><stop offset="0.35" stop-color="#964A22"/><stop offset="0.65" stop-color="#551C0B"/><stop offset="0.99" stop-color="#361211"/></radialGradient><path opacity="0.33" fill="url(#SVGID_78_)" d="M168.21 31.24c0 0 4.18-1.93 5.47-3.97 0 2.25 0.43 3.65-0.64 4.93 -1.07 1.29-1.93 2.47-2.14 3.43C170.25 33.28 170.04 31.56 168.21 31.24z"/><radialGradient id="SVGID_79_" cx="236.59" cy="20.84" r="72.4" gradientTransform="matrix(1.0102 0 0 1 -9.1333 0)" gradientUnits="userSpaceOnUse"><stop offset="0" stop-color="#FFFFFF"/><stop offset="0.02" stop-color="#FEF7E2"/><stop offset="0.09" stop-color="#FBE18C"/><stop offset="0.13" stop-color="#FAD86A"/><stop offset="0.37" stop-color="#F5CB5A"/><stop offset="0.65" stop-color="#C57315"/><stop offset="0.99" stop-color="#AC4A12"/></radialGradient><path fill="url(#SVGID_79_)" d="M189.3 45.94c0 5.17 9.9 9.37 22.07 9.37s22.03-4.19 22.03-9.37c0-3.66 0-11.94 0-18.52 -3.39 0-40.52 0-44.1 0C189.3 36.93 189.3 40.76 189.3 45.94z"/><radialGradient id="SVGID_80_" cx="1650.47" cy="-9.08" r="35.67" gradientTransform="matrix(-0.9953 0 0 1 1874.1602 0)" gradientUnits="userSpaceOnUse"><stop offset="0" stop-color="#FFFFFF"/><stop offset="0.15" stop-color="#CFAD9B"/><stop offset="0.28" stop-color="#A66644"/><stop offset="0.35" stop-color="#964A22"/><stop offset="0.65" stop-color="#551C0B"/><stop offset="0.99" stop-color="#361211"/></radialGradient><path fill="url(#SVGID_80_)" d="M188.93 26.34c0 0.6-1.21 3.75 0.39 3.75 0.97 0 0.58-1.27 1.42-0.32 2.95 3.32 3.81 9.19 6.9 12.08 1.48 1.38 3.47 0.9 5.18 1.72 2.56 1.23 1.73 5.22 5.09 5.22 2.94 0 1.96-5.49 4.84-5.49 3.04 0 3.27 3.7 5.29 3.7 2.62 0 1.39-6.1 4-8.58 3.84-3.65 6.81-1.15 6.24 1.02 -0.64 2.47 0.21 4.56 1.39 4.56 1.87 0 1.43-3.67 1.33-4.66 -0.27-2.73 1.01-4.61 2.03-5.42 1.56-1.23 1.17-6.05 1.17-7.53 0-5.02-7.6-9.98-22.97-9.98C195.29 16.4 188.93 21.32 188.93 26.34z"/><radialGradient id="SVGID_81_" cx="1653.51" cy="0.25" r="51.4" gradientTransform="matrix(-0.9953 0 0 1 1874.3379 0)" gradientUnits="userSpaceOnUse"><stop offset="0" stop-color="#FFFFFF"/><stop offset="0.15" stop-color="#CFAD9B"/><stop offset="0.28" stop-color="#A66644"/><stop offset="0.35" stop-color="#964A22"/><stop offset="0.65" stop-color="#551C0B"/><stop offset="0.99" stop-color="#361211"/></radialGradient><path fill="url(#SVGID_81_)" d="M188.85 25.49c0 0.6-1.21 3.75 0.39 3.75 0.97 0 0.58-1.27 1.42-0.32 2.95 3.32 3.81 9.19 6.9 12.08 1.48 1.38 3.47 0.9 5.18 1.72 2.56 1.23 1.76 5.36 5.12 5.36 2.94 0 1.92-5.63 4.8-5.63 3.04 0 3.27 3.7 5.29 3.7 2.62 0 1.39-6.1 4-8.58 3.84-3.65 6.81-1.15 6.24 1.02 -0.64 2.47 0.2 4.56 1.39 4.56 1.87 0 1.43-3.67 1.33-4.66 -0.27-2.73 1.01-4.61 2.03-5.42 1.56-1.24 1.17-6.05 1.17-7.53 0-5.02-7.6-9.98-22.97-9.98C195.22 15.55 188.85 20.47 188.85 25.49z"/><radialGradient id="SVGID_82_" cx="230.22" cy="-2.33" r="29.35" gradientUnits="userSpaceOnUse"><stop offset="0" stop-color="#FFFFFF"/><stop offset="0.15" stop-color="#CFAD9B"/><stop offset="0.28" stop-color="#A66644"/><stop offset="0.35" stop-color="#964A22"/><stop offset="0.65" stop-color="#551C0B"/><stop offset="0.99" stop-color="#361211"/></radialGradient><ellipse fill="url(#SVGID_82_)" cx="211.13" cy="19.98" rx="12.94" ry="4.43"/><radialGradient id="SVGID_83_" cx="1676.78" cy="9.83" r="86.12" gradientTransform="matrix(-1 0 0 1 1877.9688 0)" gradientUnits="userSpaceOnUse"><stop offset="0" stop-color="#FFFFFF"/><stop offset="1" stop-color="#646464"/></radialGradient><path fill="url(#SVGID_83_)" d="M220.18 13.47c0 0 0.79-2.97-1.25-3.57s-10.01-0.82-10.62 0C207.7 10.72 220.18 13.47 220.18 13.47z"/><radialGradient id="SVGID_84_" cx="1671.78" cy="2.82" r="61.41" gradientTransform="matrix(-1 0 0 1 1877.9688 0)" gradientUnits="userSpaceOnUse"><stop offset="0" stop-color="#FFFFFF"/><stop offset="1" stop-color="#646464"/></radialGradient><path fill="url(#SVGID_84_)" d="M208.34 8c0 0-8.62 2.1-9.69 7.01 -1.14 5.26 2.61 6.94 13.94 8.8C216.63 24.47 208.34 8 208.34 8z"/><radialGradient id="SVGID_85_" cx="1654.76" cy="-6.04" r="83.41" gradientTransform="matrix(-1 0 0 1 1877.9688 0)" gradientUnits="userSpaceOnUse"><stop offset="0" stop-color="#FFFFFF"/><stop offset="1" stop-color="#646464"/></radialGradient><path fill="url(#SVGID_85_)" d="M208.27 8.93c0 0-6.58 1.04-6.76 5.26s4.01 7.54 6.26 8.19c2.25 0.64 3-1.07 2.72-3.75C210.2 15.94 208.27 8.93 208.27 8.93z"/><radialGradient id="SVGID_86_" cx="1677.21" cy="6.54" r="98.43" gradientTransform="matrix(-1 0 0 1 1877.9688 0)" gradientUnits="userSpaceOnUse"><stop offset="0" stop-color="#FFFFFF"/><stop offset="1" stop-color="#646464"/></radialGradient><path fill="url(#SVGID_86_)" d="M207.73 8.72c0 0-5.58 1.25-5.58 4.97 0 3.72 3.61 4.54 5.08 4.83 1.47 0.29 6.08 2.65 6.08 3.79 0 1.14 0.04 1.43 0.04 1.43s3.15-2.75 3.93-2.82C218.07 20.84 207.73 8.72 207.73 8.72z"/><radialGradient id="SVGID_87_" cx="505.28" cy="464.97" r="13.45" gradientTransform="matrix(0.8953 0.4557 -0.4584 0.8901 -18.5964 -635.9854)" gradientUnits="userSpaceOnUse"><stop offset="0" stop-color="#FFFFFF"/><stop offset="0.05" stop-color="#FECFCD"/><stop offset="0.17" stop-color="#FB5B55"/><stop offset="0.22" stop-color="#FA2D25"/><stop offset="0.52" stop-color="#DB2214"/><stop offset="0.77" stop-color="#C9140B"/><stop offset="0.98" stop-color="#AA0B05"/></radialGradient><path fill="url(#SVGID_87_)" d="M214.9 5.87c1.41 1.64 1.82 3.55 1.03 4.94 -1.08 1.91-4.74 3.36-7.77 1.82 -2.28-1.16-2.46-4.39-1.35-6.28 1.3-2.21 3.85-3.95 5.73-3.16C213.86 3.75 213.97 4.8 214.9 5.87z"/><radialGradient id="SVGID_88_" cx="500.07" cy="463.78" r="23.96" gradientTransform="matrix(0.8953 0.4557 -0.4584 0.8901 -18.5964 -635.9854)" gradientUnits="userSpaceOnUse"><stop offset="0" stop-color="#FFFFFF"/><stop offset="0.05" stop-color="#FECFCD"/><stop offset="0.17" stop-color="#FB5B55"/><stop offset="0.22" stop-color="#FA2D25"/><stop offset="0.52" stop-color="#DB2214"/><stop offset="0.77" stop-color="#C9140B"/><stop offset="0.98" stop-color="#AA0B05"/></radialGradient><path opacity="0.29" fill="url(#SVGID_88_)" d="M214.05 4.76c0 0-1.01-1.21-1.62-0.96 -0.48 0.2 0.5 1.32 0.75 1.77 0.25 0.45 1.99 2.69 2.54 2.47C216.26 7.8 214.67 5.8 214.05 4.76z"/><radialGradient id="SVGID_89_" cx="501.58" cy="463.88" r="5.45" gradientTransform="matrix(0.8953 0.4557 -0.4584 0.8901 -18.5964 -635.9854)" gradientUnits="userSpaceOnUse"><stop offset="0" stop-color="#FFFFFF"/><stop offset="0.05" stop-color="#FECFCD"/><stop offset="0.17" stop-color="#FB5B55"/><stop offset="0.22" stop-color="#FA2D25"/><stop offset="0.52" stop-color="#DB2214"/><stop offset="0.77" stop-color="#C9140B"/><stop offset="0.98" stop-color="#AA0B05"/></radialGradient><path fill="url(#SVGID_89_)" d="M215.1 6.94c-0.17 0.56-0.73-0.19-1.09-0.48 -0.62-0.5-0.88-1.25-0.73-1.44 0.18-0.23 0.5-0.17 1 0.4C214.85 6.1 215.22 6.55 215.1 6.94z"/><radialGradient id="SVGID_90_" cx="505.57" cy="468.1" r="44.09" gradientTransform="matrix(0.8953 0.4557 -0.4584 0.8901 -18.5964 -635.9854)" gradientUnits="userSpaceOnUse"><stop offset="0" stop-color="#FFFFFF"/><stop offset="0.05" stop-color="#FECFCD"/><stop offset="0.17" stop-color="#FB5B55"/><stop offset="0.22" stop-color="#FA2D25"/><stop offset="0.52" stop-color="#DB2214"/><stop offset="0.77" stop-color="#C9140B"/><stop offset="0.98" stop-color="#AA0B05"/></radialGradient><path opacity="0.21" fill="url(#SVGID_90_)" d="M208.16 12.63c3.03 1.54 6.69 0.09 7.77-1.82 0.17-0.31 0.28-0.65 0.34-1 -0.15-0.39-0.32-0.77-0.47-1 -0.52-0.77-0.94-0.98-0.94-0.98s0.59 1.61-1 2.05c-1.48 0.41-5.67 2-7.69-0.57C206.26 10.67 206.88 11.98 208.16 12.63z"/><radialGradient id="SVGID_91_" cx="493.33" cy="461.98" r="21.46" gradientTransform="matrix(0.8953 0.4557 -0.4584 0.8901 -18.5964 -635.9854)" gradientUnits="userSpaceOnUse"><stop offset="0" stop-color="#FFFFFF"/><stop offset="0.05" stop-color="#FECFCD"/><stop offset="0.17" stop-color="#FB5B55"/><stop offset="0.22" stop-color="#FA2D25"/><stop offset="0.52" stop-color="#DB2214"/><stop offset="0.77" stop-color="#C9140B"/><stop offset="0.98" stop-color="#AA0B05"/></radialGradient><path opacity="0.34" fill="url(#SVGID_91_)" d="M207.99 5.91c0.78-0.78 3.16-2.12 3.44-2.57 0.12-0.19 0.48-0.24 0.86-0.24 -1.85-0.55-4.23 1.12-5.48 3.24 -0.41 0.69-0.64 1.57-0.66 2.45C206.35 8.43 207.3 6.61 207.99 5.91z"/><radialGradient id="SVGID_92_" cx="496.75" cy="465.96" r="17.83" gradientTransform="matrix(0.8953 0.4557 -0.4584 0.8901 -18.5964 -635.9854)" gradientUnits="userSpaceOnUse"><stop offset="0" stop-color="#FFFFFF"/><stop offset="0.05" stop-color="#FECFCD"/><stop offset="0.17" stop-color="#FB5B55"/><stop offset="0.22" stop-color="#FA2D25"/><stop offset="0.52" stop-color="#DB2214"/><stop offset="0.77" stop-color="#C9140B"/><stop offset="0.98" stop-color="#AA0B05"/></radialGradient><path opacity="0.19" fill="url(#SVGID_92_)" d="M210.09 5.59c0 0 0.52-0.7 1.44-0.15 0.92 0.55 1.54 1.29 1.61 1.72s-0.88 0.09-1.47-0.37C211.07 6.33 209.91 6.04 210.09 5.59z"/><radialGradient id="SVGID_93_" cx="496.46" cy="466.73" r="33.06" gradientTransform="matrix(0.8953 0.4557 -0.4584 0.8901 -18.5964 -635.9854)" gradientUnits="userSpaceOnUse"><stop offset="0" stop-color="#FFFFFF"/><stop offset="0.05" stop-color="#FECFCD"/><stop offset="0.17" stop-color="#FB5B55"/><stop offset="0.22" stop-color="#FA2D25"/><stop offset="0.52" stop-color="#DB2214"/><stop offset="0.77" stop-color="#C9140B"/><stop offset="0.98" stop-color="#AA0B05"/></radialGradient><path opacity="0.73" fill="url(#SVGID_93_)" d="M210.91 5.51c0 0 0.79 0.19 1 0.46 0.21 0.27 0.62 0.66 0.5 0.79 -0.12 0.13-0.8-0.48-0.86-0.52C211.49 6.2 209.98 5.86 210.91 5.51z"/><radialGradient id="SVGID_94_" cx="1671.06" cy="-4.19" r="75.85" gradientTransform="matrix(-1 0 0 1 1877.9688 0)" gradientUnits="userSpaceOnUse"><stop offset="0" stop-color="#FFFFFF"/><stop offset="1" stop-color="#646464"/></radialGradient><path fill="url(#SVGID_94_)" d="M207.27 9.83c0 0-1.75 1.75-1.75 4.36s2.29 3.68 3.93 3.68 3.97 0.47 5.11 1.54 1.79 1.82 3.5 2.07c1.72 0.25 3.9 0.39 4.04-0.54C222.25 20.02 207.27 9.83 207.27 9.83z"/><radialGradient id="SVGID_95_" cx="1668.2" cy="0.1" r="56.12" gradientTransform="matrix(-1 0 0 1 1877.9688 0)" gradientUnits="userSpaceOnUse"><stop offset="0" stop-color="#FFFFFF"/><stop offset="1" stop-color="#646464"/></radialGradient><path fill="url(#SVGID_95_)" d="M217.6 17.23c2.27 1.4 5.17 1.11 6.19 1.36 0 0 1.65-2.32 0.75-3.72s-2.93-2.25-4.4-2.39c-1.46-0.14-4.68-1.25-6.22-1.82s-3.5 0.25-3.79 1c-0.29 0.75-0.57 1.72-0.57 1.72S214.06 15.05 217.6 17.23z"/><radialGradient id="SVGID_96_" cx="1673.06" cy="1.25" r="158.99" gradientTransform="matrix(-1 0 0 1 1877.9688 0)" gradientUnits="userSpaceOnUse"><stop offset="0" stop-color="#FFFFFF"/><stop offset="1" stop-color="#646464"/></radialGradient><path fill="url(#SVGID_96_)" d="M207.45 10.22c0 0-0.82 2.15 1.57 3s6.15 1.75 7.72 3.58c1.57 1.82 4.68 5.36 5.58 4.43 0.89-0.93 3.07-2.93 1.47-3.54 -1.61-0.61-5.58-0.18-6.86-1.5 -1.29-1.32-2.43-1.75-4.43-2.36C210.49 13.22 208.88 12.9 207.45 10.22z"/><radialGradient id="SVGID_97_" cx="1629.09" cy="22.12" r="59.16" gradientTransform="matrix(-1.0131 0 0 1 1890.8403 0)" gradientUnits="userSpaceOnUse"><stop offset="0" stop-color="#FFFFFF"/><stop offset="0.02" stop-color="#FEF7E2"/><stop offset="0.09" stop-color="#FBE18C"/><stop offset="0.13" stop-color="#FAD86A"/><stop offset="0.37" stop-color="#F5CB5A"/><stop offset="0.65" stop-color="#C57315"/><stop offset="0.99" stop-color="#AC4A12"/></radialGradient><path fill="url(#SVGID_97_)" d="M211.65 51.15c10.26 0 18.93-2.39 21.81-5.67 0 0.48 0 0.92 0 1.31 0 5.17-9.89 9.37-22.09 9.37s-22.09-4.19-22.09-9.37c0-0.73 0-1.43 0-2.12C191.33 48.37 200.57 51.15 211.65 51.15z"/><radialGradient id="SVGID_98_" cx="266.44" cy="-462.14" r="52.58" gradientTransform="matrix(1.0536 0 0 1.1798 -48.1436 569.7129)" gradientUnits="userSpaceOnUse"><stop offset="0" stop-color="#FFFFFF"/><stop offset="0.15" stop-color="#CFAD9B"/><stop offset="0.28" stop-color="#A66644"/><stop offset="0.35" stop-color="#964A22"/><stop offset="0.65" stop-color="#551C0B"/><stop offset="0.99" stop-color="#361211"/></radialGradient><path opacity="0.49" fill="url(#SVGID_98_)" d="M228.52 20.19c2.06 1.1 3.27 2.41 3.27 3.82 0 3.89-9.12 7.03-20.38 7.03 -10.82 0-19.67-2.91-20.33-6.59 -0.02 0.15-0.04 0.31-0.04 0.46 0 4.15 9.44 7.51 21.09 7.51 11.65 0 21.09-3.36 21.09-7.51C233.22 23.13 231.46 21.48 228.52 20.19z"/><radialGradient id="SVGID_99_" cx="226.03" cy="33.06" r="26.16" gradientUnits="userSpaceOnUse"><stop offset="0" stop-color="#FFFFFF"/><stop offset="0.15" stop-color="#CFAD9B"/><stop offset="0.28" stop-color="#A66644"/><stop offset="0.35" stop-color="#964A22"/><stop offset="0.65" stop-color="#551C0B"/><stop offset="0.99" stop-color="#361211"/></radialGradient><path opacity="0.49" fill="url(#SVGID_99_)" d="M222.07 35.75c0 0 7.51-5.15 7.94 2.9C228.93 36.93 229.14 34.03 222.07 35.75z"/><radialGradient id="SVGID_100_" cx="230.28" cy="38.61" r="15.79" gradientUnits="userSpaceOnUse"><stop offset="0" stop-color="#FFFFFF"/><stop offset="0.15" stop-color="#CFAD9B"/><stop offset="0.28" stop-color="#A66644"/><stop offset="0.35" stop-color="#964A22"/><stop offset="0.65" stop-color="#551C0B"/><stop offset="0.99" stop-color="#361211"/></radialGradient><path opacity="0.51" fill="url(#SVGID_100_)" d="M230.54 39.39c0 0-0.05 2.31-0.75 3.32C231.4 42.72 230.54 39.39 230.54 39.39z"/><radialGradient id="SVGID_101_" cx="230.2" cy="19.82" r="131.2" gradientUnits="userSpaceOnUse"><stop offset="0" stop-color="#FFFFFF"/><stop offset="0.15" stop-color="#CFAD9B"/><stop offset="0.28" stop-color="#A66644"/><stop offset="0.35" stop-color="#964A22"/><stop offset="0.65" stop-color="#551C0B"/><stop offset="0.99" stop-color="#361211"/></radialGradient><path opacity="0.16" fill="url(#SVGID_101_)" d="M224.73 19.35c0.01 0.14 0.02 0.28 0.02 0.42 0 4.4-5.29 9.64-11.16 9.75 4.08 0.75 17.07-1.71 17.07-5.84C230.67 21.8 228.25 20.16 224.73 19.35z"/><radialGradient id="SVGID_102_" cx="223.11" cy="35.56" r="29.75" gradientUnits="userSpaceOnUse"><stop offset="0" stop-color="#FFFFFF"/><stop offset="0.15" stop-color="#CFAD9B"/><stop offset="0.28" stop-color="#A66644"/><stop offset="0.35" stop-color="#964A22"/><stop offset="0.65" stop-color="#551C0B"/><stop offset="0.99" stop-color="#361211"/></radialGradient><path opacity="0.5" fill="url(#SVGID_102_)" d="M221.15 37.81c0 0-1.88 2.39-1.88 5.12s-1.23 3.16-2.04 2.04c1.25-0.04 1.36-1.09 1.36-2.22S218.69 39.01 221.15 37.81z"/><radialGradient id="SVGID_103_" cx="215.99" cy="40.24" r="23.26" gradientUnits="userSpaceOnUse"><stop offset="0" stop-color="#FFFFFF"/><stop offset="0.15" stop-color="#CFAD9B"/><stop offset="0.28" stop-color="#A66644"/><stop offset="0.35" stop-color="#964A22"/><stop offset="0.65" stop-color="#551C0B"/><stop offset="0.99" stop-color="#361211"/></radialGradient><path fill="url(#SVGID_103_)" d="M212.77 41.9c0 0-1.86 0.07-2.57 1.97 -0.71 1.9-1.9 5.19-3.86 2.86 1.57 0.46 2.11-0.54 2.93-2.18C210.09 42.9 210.7 41.75 212.77 41.9z"/><radialGradient id="SVGID_104_" cx="233.07" cy="25.3" r="21.63" gradientUnits="userSpaceOnUse"><stop offset="0" stop-color="#FFFFFF"/><stop offset="0.15" stop-color="#CFAD9B"/><stop offset="0.28" stop-color="#A66644"/><stop offset="0.35" stop-color="#964A22"/><stop offset="0.65" stop-color="#551C0B"/><stop offset="0.99" stop-color="#361211"/></radialGradient><path opacity="0.33" fill="url(#SVGID_104_)" d="M227.96 31.24c0 0 4.18-1.93 5.47-3.97 0 2.25 0.43 3.65-0.64 4.93 -1.07 1.29-1.93 2.47-2.14 3.43C230 33.28 229.79 31.56 227.96 31.24z"/></g></svg>