<svg version="1.1" xmlns="http://www.w3.org/2000/svg" x="0" y="0" width="300" height="60" viewBox="0 0 300 60" enable-background="new 0 0 300 60" xml:space="preserve"><g id="Layer_11_copy"><path fill="#409D8B" d="M10.1 45.9c0 5.2 9.9 9.4 22.1 9.4 12.2 0 22-4.2 22-9.4 0-3.7 0-11.9 0-18.5-3.4 0-40.5 0-44.1 0C10.1 36.9 10.1 40.8 10.1 45.9zM9.7 26.3c0 0.6-1.2 3.8 0.4 3.8 1 0 0.6-1.3 1.4-0.3 3 3.3 3.8 9.2 6.9 12.1 1.5 1.4 3.5 0.9 5.2 1.7 2.6 1.2 1.7 5.2 5.1 5.2 2.9 0 2-5.5 4.8-5.5 3 0 3.3 3.7 5.3 3.7 2.6 0 1.4-6.1 4-8.6 3.8-3.6 6.8-1.1 6.3 1-0.6 2.5 0.2 4.6 1.4 4.6 1.9 0 1.4-3.7 1.3-4.7-0.3-2.7 1-4.6 2-5.4 1.6-1.2 1.2-6 1.2-7.5 0-5-7.6-10-23-10C16 16.4 9.7 21.3 9.7 26.3zM9.6 25.5c0 0.6-1.2 3.8 0.4 3.8 1 0 0.6-1.3 1.4-0.3 3 3.3 3.8 9.2 6.9 12.1 1.5 1.4 3.5 0.9 5.2 1.7 2.6 1.2 1.8 5.4 5.1 5.4 2.9 0 1.9-5.6 4.8-5.6 3 0 3.3 3.7 5.3 3.7 2.6 0 1.4-6.1 4-8.6 3.8-3.6 6.8-1.1 6.2 1-0.6 2.5 0.2 4.6 1.4 4.6 1.9 0 1.4-3.7 1.3-4.7-0.3-2.7 1-4.6 2-5.4 1.6-1.2 1.2-6 1.2-7.5 0-5-7.6-10-23-10C16 15.6 9.6 20.5 9.6 25.5z"/><ellipse fill="#409D8B" cx="31.9" cy="20" rx="12.9" ry="4.4"/><path fill="#409D8B" d="M40.9 13.5c0 0 0.8-3-1.2-3.6-2-0.6-10-0.8-10.6 0C28.5 10.7 40.9 13.5 40.9 13.5zM29.1 8c0 0-8.6 2.1-9.7 7-1.1 5.3 2.6 6.9 13.9 8.8C37.4 24.5 29.1 8 29.1 8zM29 8.9c0 0-6.6 1-6.8 5.3s4 7.5 6.3 8.2c2.3 0.6 3-1.1 2.7-3.7C31 15.9 29 8.9 29 8.9zM28.5 8.7c0 0-5.6 1.3-5.6 5s3.6 4.5 5.1 4.8c1.5 0.3 6.1 2.7 6.1 3.8s0 1.4 0 1.4 3.2-2.7 3.9-2.8S28.5 8.7 28.5 8.7zM35.7 5.9c1.4 1.6 1.8 3.6 1 4.9-1.1 1.9-4.7 3.4-7.8 1.8-2.3-1.2-2.5-4.4-1.3-6.3 1.3-2.2 3.9-3.9 5.7-3.2C34.6 3.8 34.7 4.8 35.7 5.9zM34.8 4.8c0 0-1-1.2-1.6-1-0.5 0.2 0.5 1.3 0.8 1.8 0.3 0.5 2 2.7 2.5 2.5C37 7.8 35.4 5.8 34.8 4.8zM35.9 6.9c-0.2 0.6-0.7-0.2-1.1-0.5-0.6-0.5-0.9-1.2-0.7-1.4 0.2-0.2 0.5-0.2 1 0.4C35.6 6.1 36 6.6 35.9 6.9zM28.9 12.6c3 1.5 6.7 0.1 7.8-1.8 0.2-0.3 0.3-0.6 0.3-1C36.9 9.4 36.7 9.1 36.5 8.8c-0.5-0.8-0.9-1-0.9-1s0.6 1.6-1 2.1c-1.5 0.4-5.7 2-7.7-0.6C27 10.7 27.6 12 28.9 12.6zM28.7 5.9c0.8-0.8 3.2-2.1 3.4-2.6 0.1-0.2 0.5-0.2 0.9-0.2-1.8-0.5-4.2 1.1-5.5 3.2-0.4 0.7-0.6 1.6-0.7 2.5C27.1 8.4 28.1 6.6 28.7 5.9zM30.8 5.6c0 0 0.5-0.7 1.4-0.1 0.9 0.6 1.5 1.3 1.6 1.7 0.1 0.4-0.9 0.1-1.5-0.4C31.8 6.3 30.7 6 30.8 5.6zM31.7 5.5c0 0 0.8 0.2 1 0.5 0.2 0.3 0.6 0.7 0.5 0.8-0.1 0.1-0.8-0.5-0.9-0.5C32.2 6.2 30.7 5.9 31.7 5.5zM28 9.8c0 0-1.7 1.8-1.7 4.4s2.3 3.7 3.9 3.7c1.7 0 4 0.5 5.1 1.5 1.1 1.1 1.8 1.8 3.5 2.1 1.7 0.3 3.9 0.4 4-0.5C43 20 28 9.8 28 9.8zM38.4 17.2c2.3 1.4 5.2 1.1 6.2 1.4 0 0 1.6-2.3 0.8-3.7s-2.9-2.2-4.4-2.4c-1.5-0.1-4.7-1.2-6.2-1.8-1.5-0.6-3.5 0.3-3.8 1-0.3 0.8-0.6 1.7-0.6 1.7S34.8 15.1 38.4 17.2zM28.2 10.2c0 0-0.8 2.2 1.6 3s6.2 1.8 7.7 3.6c1.6 1.8 4.7 5.4 5.6 4.4 0.9-0.9 3.1-2.9 1.5-3.5-1.6-0.6-5.6-0.2-6.9-1.5-1.3-1.3-2.4-1.7-4.4-2.4C31.2 13.2 29.6 12.9 28.2 10.2zM32.4 51.2c10.3 0 18.9-2.4 21.8-5.7 0 0.5 0 0.9 0 1.3 0 5.2-9.9 9.4-22.1 9.4-12.2 0-22.1-4.2-22.1-9.4 0-0.7 0-1.4 0-2.1C12.1 48.4 21.3 51.2 32.4 51.2zM49.3 20.2c2.1 1.1 3.3 2.4 3.3 3.8 0 3.9-9.1 7-20.4 7-10.8 0-19.7-2.9-20.3-6.6 0 0.2 0 0.3 0 0.5 0 4.2 9.4 7.5 21.1 7.5 11.7 0 21.1-3.4 21.1-7.5C54 23.1 52.2 21.5 49.3 20.2zM42.8 35.8c0 0 7.5-5.1 7.9 2.9C49.7 36.9 49.9 34 42.8 35.8zM51.3 39.4c0 0 0 2.3-0.7 3.3C52.2 42.7 51.3 39.4 51.3 39.4zM45.5 19.4c0 0.1 0 0.3 0 0.4 0 4.4-5.3 9.6-11.2 9.8 4.1 0.8 17.1-1.7 17.1-5.8C51.4 21.8 49 20.2 45.5 19.4zM41.9 37.8c0 0-1.9 2.4-1.9 5.1s-1.2 3.2-2 2c1.3 0 1.4-1.1 1.4-2.2S39.4 39 41.9 37.8zM33.5 41.9c0 0-1.9 0.1-2.6 2-0.7 1.9-1.9 5.2-3.9 2.9 1.6 0.5 2.1-0.5 2.9-2.2C30.8 42.9 31.5 41.8 33.5 41.9zM48.7 31.2c0 0 4.2-1.9 5.5-4 0 2.3 0.4 3.7-0.6 4.9-1.1 1.3-1.9 2.5-2.1 3.4C50.8 33.3 50.5 31.6 48.7 31.2zM69.8 45.9c0 5.2 9.9 9.4 22.1 9.4s22-4.2 22-9.4c0-3.7 0-11.9 0-18.5-3.4 0-40.5 0-44.1 0C69.8 36.9 69.8 40.8 69.8 45.9zM69.4 26.3c0 0.6-1.2 3.8 0.4 3.8 1 0 0.6-1.3 1.4-0.3 3 3.3 3.8 9.2 6.9 12.1 1.5 1.4 3.5 0.9 5.2 1.7 2.6 1.2 1.7 5.2 5.1 5.2 2.9 0 2-5.5 4.8-5.5 3 0 3.3 3.7 5.3 3.7 2.6 0 1.4-6.1 4-8.6 3.8-3.6 6.8-1.1 6.2 1-0.6 2.5 0.2 4.6 1.4 4.6 1.9 0 1.4-3.7 1.3-4.7-0.3-2.7 1-4.6 2-5.4 1.6-1.2 1.2-6 1.2-7.5 0-5-7.6-10-23-10C75.8 16.4 69.4 21.3 69.4 26.3zM69.4 25.5c0 0.6-1.2 3.8 0.4 3.8 1 0 0.6-1.3 1.4-0.3 3 3.3 3.8 9.2 6.9 12.1 1.5 1.4 3.5 0.9 5.2 1.7 2.6 1.2 1.8 5.4 5.1 5.4 2.9 0 1.9-5.6 4.8-5.6 3 0 3.3 3.7 5.3 3.7 2.6 0 1.4-6.1 4-8.6 3.8-3.6 6.8-1.1 6.2 1-0.6 2.5 0.2 4.6 1.4 4.6 1.9 0 1.4-3.7 1.3-4.7-0.3-2.7 1-4.6 2-5.4 1.6-1.2 1.2-6 1.2-7.5 0-5-7.6-10-23-10C75.7 15.6 69.4 20.5 69.4 25.5z"/><ellipse fill="#409D8B" cx="91.6" cy="20" rx="12.9" ry="4.4"/><path fill="#409D8B" d="M100.7 13.5c0 0 0.8-3-1.2-3.6s-10-0.8-10.6 0C88.2 10.7 100.7 13.5 100.7 13.5zM88.8 8c0 0-8.6 2.1-9.7 7-1.1 5.3 2.6 6.9 13.9 8.8C97.1 24.5 88.8 8 88.8 8zM88.8 8.9c0 0-6.6 1-6.8 5.3s4 7.5 6.3 8.2c2.3 0.6 3-1.1 2.7-3.7C90.7 15.9 88.8 8.9 88.8 8.9zM88.2 8.7c0 0-5.6 1.3-5.6 5 0 3.7 3.6 4.5 5.1 4.8 1.5 0.3 6.1 2.7 6.1 3.8 0 1.1 0 1.4 0 1.4s3.2-2.7 3.9-2.8C98.6 20.8 88.2 8.7 88.2 8.7zM95.4 5.9c1.4 1.6 1.8 3.6 1 4.9-1.1 1.9-4.7 3.4-7.8 1.8-2.3-1.2-2.5-4.4-1.3-6.3 1.3-2.2 3.9-3.9 5.7-3.2C94.4 3.8 94.5 4.8 95.4 5.9zM94.6 4.8c0 0-1-1.2-1.6-1-0.5 0.2 0.5 1.3 0.8 1.8 0.3 0.5 2 2.7 2.5 2.5C96.8 7.8 95.2 5.8 94.6 4.8zM95.6 6.9c-0.2 0.6-0.7-0.2-1.1-0.5-0.6-0.5-0.9-1.2-0.7-1.4 0.2-0.2 0.5-0.2 1 0.4C95.4 6.1 95.7 6.6 95.6 6.9zM88.7 12.6c3 1.5 6.7 0.1 7.8-1.8 0.2-0.3 0.3-0.6 0.3-1-0.1-0.4-0.3-0.8-0.5-1-0.5-0.8-0.9-1-0.9-1s0.6 1.6-1 2.1c-1.5 0.4-5.7 2-7.7-0.6C86.8 10.7 87.4 12 88.7 12.6zM88.5 5.9c0.8-0.8 3.2-2.1 3.4-2.6 0.1-0.2 0.5-0.2 0.9-0.2-1.8-0.5-4.2 1.1-5.5 3.2-0.4 0.7-0.6 1.6-0.7 2.5C86.9 8.4 87.8 6.6 88.5 5.9zM90.6 5.6c0 0 0.5-0.7 1.4-0.1 0.9 0.6 1.5 1.3 1.6 1.7s-0.9 0.1-1.5-0.4C91.6 6.3 90.4 6 90.6 5.6zM91.4 5.5c0 0 0.8 0.2 1 0.5 0.2 0.3 0.6 0.7 0.5 0.8-0.1 0.1-0.8-0.5-0.9-0.5C92 6.2 90.5 5.9 91.4 5.5zM87.8 9.8c0 0-1.7 1.8-1.7 4.4s2.3 3.7 3.9 3.7 4 0.5 5.1 1.5 1.8 1.8 3.5 2.1c1.7 0.3 3.9 0.4 4-0.5C102.8 20 87.8 9.8 87.8 9.8zM98.1 17.2c2.3 1.4 5.2 1.1 6.2 1.4 0 0 1.7-2.3 0.8-3.7s-2.9-2.2-4.4-2.4c-1.5-0.1-4.7-1.2-6.2-1.8s-3.5 0.3-3.8 1c-0.3 0.8-0.6 1.7-0.6 1.7S94.6 15.1 98.1 17.2zM88 10.2c0 0-0.8 2.2 1.6 3s6.2 1.8 7.7 3.6c1.6 1.8 4.7 5.4 5.6 4.4 0.9-0.9 3.1-2.9 1.5-3.5-1.6-0.6-5.6-0.2-6.9-1.5-1.3-1.3-2.4-1.7-4.4-2.4C91 13.2 89.4 12.9 88 10.2zM92.2 51.2c10.3 0 18.9-2.4 21.8-5.7 0 0.5 0 0.9 0 1.3 0 5.2-9.9 9.4-22.1 9.4s-22.1-4.2-22.1-9.4c0-0.7 0-1.4 0-2.1C71.8 48.4 81.1 51.2 92.2 51.2zM109 20.2c2.1 1.1 3.3 2.4 3.3 3.8 0 3.9-9.1 7-20.4 7-10.8 0-19.7-2.9-20.3-6.6 0 0.2 0 0.3 0 0.5 0 4.2 9.4 7.5 21.1 7.5 11.7 0 21.1-3.4 21.1-7.5C113.7 23.1 112 21.5 109 20.2zM102.6 35.8c0 0 7.5-5.1 7.9 2.9C109.4 36.9 109.6 34 102.6 35.8zM111 39.4c0 0 0 2.3-0.7 3.3C111.9 42.7 111 39.4 111 39.4zM105.2 19.4c0 0.1 0 0.3 0 0.4 0 4.4-5.3 9.6-11.2 9.8 4.1 0.8 17.1-1.7 17.1-5.8C111.2 21.8 108.8 20.2 105.2 19.4zM101.7 37.8c0 0-1.9 2.4-1.9 5.1s-1.2 3.2-2 2c1.3 0 1.4-1.1 1.4-2.2S99.2 39 101.7 37.8zM93.3 41.9c0 0-1.9 0.1-2.6 2-0.7 1.9-1.9 5.2-3.9 2.9 1.6 0.5 2.1-0.5 2.9-2.2C90.6 42.9 91.2 41.8 93.3 41.9zM108.5 31.2c0 0 4.2-1.9 5.5-4 0 2.3 0.4 3.7-0.6 4.9-1.1 1.3-1.9 2.5-2.1 3.4C110.5 33.3 110.3 31.6 108.5 31.2zM129.6 45.9c0 5.2 9.9 9.4 22.1 9.4s22-4.2 22-9.4c0-3.7 0-11.9 0-18.5-3.4 0-40.5 0-44.1 0C129.6 36.9 129.6 40.8 129.6 45.9zM129.2 26.3c0 0.6-1.2 3.8 0.4 3.8 1 0 0.6-1.3 1.4-0.3 3 3.3 3.8 9.2 6.9 12.1 1.5 1.4 3.5 0.9 5.2 1.7 2.6 1.2 1.7 5.2 5.1 5.2 2.9 0 2-5.5 4.8-5.5 3 0 3.3 3.7 5.3 3.7 2.6 0 1.4-6.1 4-8.6 3.8-3.6 6.8-1.1 6.2 1-0.6 2.5 0.2 4.6 1.4 4.6 1.9 0 1.4-3.7 1.3-4.7-0.3-2.7 1-4.6 2-5.4 1.6-1.2 1.2-6 1.2-7.5 0-5-7.6-10-23-10C135.5 16.4 129.2 21.3 129.2 26.3zM129.1 25.5c0 0.6-1.2 3.8 0.4 3.8 1 0 0.6-1.3 1.4-0.3 3 3.3 3.8 9.2 6.9 12.1 1.5 1.4 3.5 0.9 5.2 1.7 2.6 1.2 1.8 5.4 5.1 5.4 2.9 0 1.9-5.6 4.8-5.6 3 0 3.3 3.7 5.3 3.7 2.6 0 1.4-6.1 4-8.6 3.8-3.6 6.8-1.1 6.2 1-0.6 2.5 0.2 4.6 1.4 4.6 1.9 0 1.4-3.7 1.3-4.7-0.3-2.7 1-4.6 2-5.4 1.6-1.2 1.2-6 1.2-7.5 0-5-7.6-10-23-10C135.5 15.6 129.1 20.5 129.1 25.5z"/><ellipse fill="#409D8B" cx="151.4" cy="20" rx="12.9" ry="4.4"/><path fill="#409D8B" d="M160.4 13.5c0 0 0.8-3-1.2-3.6s-10-0.8-10.6 0C148 10.7 160.4 13.5 160.4 13.5zM148.6 8c0 0-8.6 2.1-9.7 7-1.1 5.3 2.6 6.9 13.9 8.8C156.9 24.5 148.6 8 148.6 8zM148.5 8.9c0 0-6.6 1-6.8 5.3s4 7.5 6.3 8.2c2.3 0.6 3-1.1 2.7-3.7C150.5 15.9 148.5 8.9 148.5 8.9zM148 8.7c0 0-5.6 1.3-5.6 5 0 3.7 3.6 4.5 5.1 4.8 1.5 0.3 6.1 2.7 6.1 3.8 0 1.1 0 1.4 0 1.4s3.2-2.7 3.9-2.8C158.3 20.8 148 8.7 148 8.7zM155.2 5.9c1.4 1.6 1.8 3.6 1 4.9-1.1 1.9-4.7 3.4-7.8 1.8-2.3-1.2-2.5-4.4-1.3-6.3 1.3-2.2 3.9-3.9 5.7-3.2C154.1 3.8 154.2 4.8 155.2 5.9zM154.3 4.8c0 0-1-1.2-1.6-1-0.5 0.2 0.5 1.3 0.8 1.8 0.3 0.5 2 2.7 2.5 2.5C156.5 7.8 154.9 5.8 154.3 4.8zM155.4 6.9c-0.2 0.6-0.7-0.2-1.1-0.5-0.6-0.5-0.9-1.2-0.7-1.4 0.2-0.2 0.5-0.2 1 0.4C155.1 6.1 155.5 6.6 155.4 6.9zM148.4 12.6c3 1.5 6.7 0.1 7.8-1.8 0.2-0.3 0.3-0.6 0.3-1-0.1-0.4-0.3-0.8-0.5-1-0.5-0.8-0.9-1-0.9-1s0.6 1.6-1 2.1c-1.5 0.4-5.7 2-7.7-0.6C146.5 10.7 147.1 12 148.4 12.6zM148.2 5.9c0.8-0.8 3.2-2.1 3.4-2.6 0.1-0.2 0.5-0.2 0.9-0.2-1.8-0.5-4.2 1.1-5.5 3.2-0.4 0.7-0.6 1.6-0.7 2.5C146.6 8.4 147.6 6.6 148.2 5.9zM150.3 5.6c0 0 0.5-0.7 1.4-0.1 0.9 0.6 1.5 1.3 1.6 1.7s-0.9 0.1-1.5-0.4C151.3 6.3 150.2 6 150.3 5.6zM151.2 5.5c0 0 0.8 0.2 1 0.5 0.2 0.3 0.6 0.7 0.5 0.8-0.1 0.1-0.8-0.5-0.9-0.5C151.7 6.2 150.2 5.9 151.2 5.5zM147.5 9.8c0 0-1.7 1.8-1.7 4.4s2.3 3.7 3.9 3.7 4 0.5 5.1 1.5 1.8 1.8 3.5 2.1c1.7 0.3 3.9 0.4 4-0.5C162.5 20 147.5 9.8 147.5 9.8zM157.9 17.2c2.3 1.4 5.2 1.1 6.2 1.4 0 0 1.7-2.3 0.8-3.7s-2.9-2.2-4.4-2.4c-1.5-0.1-4.7-1.2-6.2-1.8s-3.5 0.3-3.8 1c-0.3 0.8-0.6 1.7-0.6 1.7S154.3 15.1 157.9 17.2zM147.7 10.2c0 0-0.8 2.2 1.6 3s6.2 1.8 7.7 3.6c1.6 1.8 4.7 5.4 5.6 4.4 0.9-0.9 3.1-2.9 1.5-3.5-1.6-0.6-5.6-0.2-6.9-1.5-1.3-1.3-2.4-1.7-4.4-2.4C150.7 13.2 149.1 12.9 147.7 10.2zM151.9 51.2c10.3 0 18.9-2.4 21.8-5.7 0 0.5 0 0.9 0 1.3 0 5.2-9.9 9.4-22.1 9.4s-22.1-4.2-22.1-9.4c0-0.7 0-1.4 0-2.1C131.6 48.4 140.8 51.2 151.9 51.2zM168.8 20.2c2.1 1.1 3.3 2.4 3.3 3.8 0 3.9-9.1 7-20.4 7-10.8 0-19.7-2.9-20.3-6.6 0 0.2 0 0.3 0 0.5 0 4.2 9.4 7.5 21.1 7.5 11.7 0 21.1-3.4 21.1-7.5C173.5 23.1 171.7 21.5 168.8 20.2zM162.3 35.8c0 0 7.5-5.1 7.9 2.9C169.2 36.9 169.4 34 162.3 35.8zM170.8 39.4c0 0 0 2.3-0.7 3.3C171.7 42.7 170.8 39.4 170.8 39.4zM165 19.4c0 0.1 0 0.3 0 0.4 0 4.4-5.3 9.6-11.2 9.8 4.1 0.8 17.1-1.7 17.1-5.8C170.9 21.8 168.5 20.2 165 19.4zM161.4 37.8c0 0-1.9 2.4-1.9 5.1s-1.2 3.2-2 2c1.3 0 1.4-1.1 1.4-2.2S158.9 39 161.4 37.8zM153 41.9c0 0-1.9 0.1-2.6 2-0.7 1.9-1.9 5.2-3.9 2.9 1.6 0.5 2.1-0.5 2.9-2.2C150.3 42.9 151 41.8 153 41.9zM168.2 31.2c0 0 4.2-1.9 5.5-4 0 2.3 0.4 3.7-0.6 4.9-1.1 1.3-1.9 2.5-2.1 3.4C170.3 33.3 170 31.6 168.2 31.2zM189.3 45.9c0 5.2 9.9 9.4 22.1 9.4s22-4.2 22-9.4c0-3.7 0-11.9 0-18.5-3.4 0-40.5 0-44.1 0C189.3 36.9 189.3 40.8 189.3 45.9zM188.9 26.3c0 0.6-1.2 3.8 0.4 3.8 1 0 0.6-1.3 1.4-0.3 3 3.3 3.8 9.2 6.9 12.1 1.5 1.4 3.5 0.9 5.2 1.7 2.6 1.2 1.7 5.2 5.1 5.2 2.9 0 2-5.5 4.8-5.5 3 0 3.3 3.7 5.3 3.7 2.6 0 1.4-6.1 4-8.6 3.8-3.6 6.8-1.1 6.2 1-0.6 2.5 0.2 4.6 1.4 4.6 1.9 0 1.4-3.7 1.3-4.7-0.3-2.7 1-4.6 2-5.4 1.6-1.2 1.2-6 1.2-7.5 0-5-7.6-10-23-10C195.3 16.4 188.9 21.3 188.9 26.3zM188.9 25.5c0 0.6-1.2 3.8 0.4 3.8 1 0 0.6-1.3 1.4-0.3 3 3.3 3.8 9.2 6.9 12.1 1.5 1.4 3.5 0.9 5.2 1.7 2.6 1.2 1.8 5.4 5.1 5.4 2.9 0 1.9-5.6 4.8-5.6 3 0 3.3 3.7 5.3 3.7 2.6 0 1.4-6.1 4-8.6 3.8-3.6 6.8-1.1 6.2 1-0.6 2.5 0.2 4.6 1.4 4.6 1.9 0 1.4-3.7 1.3-4.7-0.3-2.7 1-4.6 2-5.4 1.6-1.2 1.2-6 1.2-7.5 0-5-7.6-10-23-10C195.2 15.6 188.9 20.5 188.9 25.5z"/><ellipse fill="#409D8B" cx="211.1" cy="20" rx="12.9" ry="4.4"/><path fill="#409D8B" d="M220.2 13.5c0 0 0.8-3-1.2-3.6s-10-0.8-10.6 0C207.7 10.7 220.2 13.5 220.2 13.5zM208.3 8c0 0-8.6 2.1-9.7 7-1.1 5.3 2.6 6.9 13.9 8.8C216.6 24.5 208.3 8 208.3 8zM208.3 8.9c0 0-6.6 1-6.8 5.3s4 7.5 6.3 8.2c2.3 0.6 3-1.1 2.7-3.7C210.2 15.9 208.3 8.9 208.3 8.9zM207.7 8.7c0 0-5.6 1.3-5.6 5 0 3.7 3.6 4.5 5.1 4.8 1.5 0.3 6.1 2.7 6.1 3.8 0 1.1 0 1.4 0 1.4s3.2-2.7 3.9-2.8C218.1 20.8 207.7 8.7 207.7 8.7zM214.9 5.9c1.4 1.6 1.8 3.6 1 4.9-1.1 1.9-4.7 3.4-7.8 1.8-2.3-1.2-2.5-4.4-1.3-6.3 1.3-2.2 3.9-3.9 5.7-3.2C213.9 3.8 214 4.8 214.9 5.9zM214.1 4.8c0 0-1-1.2-1.6-1-0.5 0.2 0.5 1.3 0.8 1.8 0.3 0.5 2 2.7 2.5 2.5C216.3 7.8 214.7 5.8 214.1 4.8zM215.1 6.9c-0.2 0.6-0.7-0.2-1.1-0.5-0.6-0.5-0.9-1.2-0.7-1.4 0.2-0.2 0.5-0.2 1 0.4C214.9 6.1 215.2 6.6 215.1 6.9zM208.2 12.6c3 1.5 6.7 0.1 7.8-1.8 0.2-0.3 0.3-0.6 0.3-1-0.1-0.4-0.3-0.8-0.5-1-0.5-0.8-0.9-1-0.9-1s0.6 1.6-1 2.1c-1.5 0.4-5.7 2-7.7-0.6C206.3 10.7 206.9 12 208.2 12.6zM208 5.9c0.8-0.8 3.2-2.1 3.4-2.6 0.1-0.2 0.5-0.2 0.9-0.2-1.8-0.5-4.2 1.1-5.5 3.2-0.4 0.7-0.6 1.6-0.7 2.5C206.4 8.4 207.3 6.6 208 5.9zM210.1 5.6c0 0 0.5-0.7 1.4-0.1 0.9 0.6 1.5 1.3 1.6 1.7s-0.9 0.1-1.5-0.4C211.1 6.3 209.9 6 210.1 5.6zM210.9 5.5c0 0 0.8 0.2 1 0.5 0.2 0.3 0.6 0.7 0.5 0.8-0.1 0.1-0.8-0.5-0.9-0.5C211.5 6.2 210 5.9 210.9 5.5zM207.3 9.8c0 0-1.7 1.8-1.7 4.4s2.3 3.7 3.9 3.7 4 0.5 5.1 1.5 1.8 1.8 3.5 2.1c1.7 0.3 3.9 0.4 4-0.5C222.3 20 207.3 9.8 207.3 9.8zM217.6 17.2c2.3 1.4 5.2 1.1 6.2 1.4 0 0 1.7-2.3 0.8-3.7s-2.9-2.2-4.4-2.4c-1.5-0.1-4.7-1.2-6.2-1.8s-3.5 0.3-3.8 1c-0.3 0.8-0.6 1.7-0.6 1.7S214.1 15.1 217.6 17.2zM207.5 10.2c0 0-0.8 2.2 1.6 3s6.2 1.8 7.7 3.6c1.6 1.8 4.7 5.4 5.6 4.4 0.9-0.9 3.1-2.9 1.5-3.5-1.6-0.6-5.6-0.2-6.9-1.5-1.3-1.3-2.4-1.7-4.4-2.4C210.5 13.2 208.9 12.9 207.5 10.2zM211.7 51.2c10.3 0 18.9-2.4 21.8-5.7 0 0.5 0 0.9 0 1.3 0 5.2-9.9 9.4-22.1 9.4s-22.1-4.2-22.1-9.4c0-0.7 0-1.4 0-2.1C191.3 48.4 200.6 51.2 211.7 51.2zM228.5 20.2c2.1 1.1 3.3 2.4 3.3 3.8 0 3.9-9.1 7-20.4 7-10.8 0-19.7-2.9-20.3-6.6 0 0.2 0 0.3 0 0.5 0 4.2 9.4 7.5 21.1 7.5 11.7 0 21.1-3.4 21.1-7.5C233.2 23.1 231.5 21.5 228.5 20.2zM222.1 35.8c0 0 7.5-5.1 7.9 2.9C228.9 36.9 229.1 34 222.1 35.8zM230.5 39.4c0 0 0 2.3-0.7 3.3C231.4 42.7 230.5 39.4 230.5 39.4zM224.7 19.4c0 0.1 0 0.3 0 0.4 0 4.4-5.3 9.6-11.2 9.8 4.1 0.8 17.1-1.7 17.1-5.8C230.7 21.8 228.3 20.2 224.7 19.4zM221.2 37.8c0 0-1.9 2.4-1.9 5.1s-1.2 3.2-2 2c1.3 0 1.4-1.1 1.4-2.2S218.7 39 221.2 37.8zM212.8 41.9c0 0-1.9 0.1-2.6 2-0.7 1.9-1.9 5.2-3.9 2.9 1.6 0.5 2.1-0.5 2.9-2.2C210.1 42.9 210.7 41.8 212.8 41.9zM228 31.2c0 0 4.2-1.9 5.5-4 0 2.3 0.4 3.7-0.6 4.9-1.1 1.3-1.9 2.5-2.1 3.4C230 33.3 229.8 31.6 228 31.2zM249.1 45.9c0 5.2 9.9 9.4 22.1 9.4s22-4.2 22-9.4c0-3.7 0-11.9 0-18.5-3.4 0-40.5 0-44.1 0C249.1 36.9 249.1 40.8 249.1 45.9zM248.7 26.3c0 0.6-1.2 3.8 0.4 3.8 1 0 0.6-1.3 1.4-0.3 3 3.3 3.8 9.2 6.9 12.1 1.5 1.4 3.5 0.9 5.2 1.7 2.6 1.2 1.7 5.2 5.1 5.2 2.9 0 2-5.5 4.8-5.5 3 0 3.3 3.7 5.3 3.7 2.6 0 1.4-6.1 4-8.6 3.8-3.6 6.8-1.1 6.2 1-0.6 2.5 0.2 4.6 1.4 4.6 1.9 0 1.4-3.7 1.3-4.7-0.3-2.7 1-4.6 2-5.4 1.6-1.2 1.2-6 1.2-7.5 0-5-7.6-10-23-10C255 16.4 248.7 21.3 248.7 26.3zM248.6 25.5c0 0.6-1.2 3.8 0.4 3.8 1 0 0.6-1.3 1.4-0.3 3 3.3 3.8 9.2 6.9 12.1 1.5 1.4 3.5 0.9 5.2 1.7 2.6 1.2 1.8 5.4 5.1 5.4 2.9 0 1.9-5.6 4.8-5.6 3 0 3.3 3.7 5.3 3.7 2.6 0 1.4-6.1 4-8.6 3.8-3.6 6.8-1.1 6.2 1-0.6 2.5 0.2 4.6 1.4 4.6 1.9 0 1.4-3.7 1.3-4.7-0.3-2.7 1-4.6 2-5.4 1.6-1.2 1.2-6 1.2-7.5 0-5-7.6-10-23-10C255 15.6 248.6 20.5 248.6 25.5z"/><ellipse fill="#409D8B" cx="270.9" cy="20" rx="12.9" ry="4.4"/><path fill="#409D8B" d="M279.9 13.5c0 0 0.8-3-1.2-3.6s-10-0.8-10.6 0C267.5 10.7 279.9 13.5 279.9 13.5zM268.1 8c0 0-8.6 2.1-9.7 7-1.1 5.3 2.6 6.9 13.9 8.8C276.4 24.5 268.1 8 268.1 8zM268 8.9c0 0-6.6 1-6.8 5.3s4 7.5 6.3 8.2c2.3 0.6 3-1.1 2.7-3.7C270 15.9 268 8.9 268 8.9zM267.5 8.7c0 0-5.6 1.3-5.6 5 0 3.7 3.6 4.5 5.1 4.8 1.5 0.3 6.1 2.7 6.1 3.8 0 1.1 0 1.4 0 1.4s3.2-2.7 3.9-2.8C277.8 20.8 267.5 8.7 267.5 8.7zM274.7 5.9c1.4 1.6 1.8 3.6 1 4.9-1.1 1.9-4.7 3.4-7.8 1.8-2.3-1.2-2.5-4.4-1.3-6.3 1.3-2.2 3.9-3.9 5.7-3.2C273.6 3.8 273.7 4.8 274.7 5.9zM273.8 4.8c0 0-1-1.2-1.6-1-0.5 0.2 0.5 1.3 0.8 1.8 0.3 0.5 2 2.7 2.5 2.5C276 7.8 274.4 5.8 273.8 4.8zM274.9 6.9c-0.2 0.6-0.7-0.2-1.1-0.5-0.6-0.5-0.9-1.2-0.7-1.4 0.2-0.2 0.5-0.2 1 0.4C274.6 6.1 275 6.6 274.9 6.9zM267.9 12.6c3 1.5 6.7 0.1 7.8-1.8 0.2-0.3 0.3-0.6 0.3-1-0.1-0.4-0.3-0.8-0.5-1-0.5-0.8-0.9-1-0.9-1s0.6 1.6-1 2.1c-1.5 0.4-5.7 2-7.7-0.6C266 10.7 266.6 12 267.9 12.6zM267.7 5.9c0.8-0.8 3.2-2.1 3.4-2.6 0.1-0.2 0.5-0.2 0.9-0.2-1.8-0.5-4.2 1.1-5.5 3.2-0.4 0.7-0.6 1.6-0.7 2.5C266.1 8.4 267.1 6.6 267.7 5.9zM269.8 5.6c0 0 0.5-0.7 1.4-0.1 0.9 0.6 1.5 1.3 1.6 1.7s-0.9 0.1-1.5-0.4C270.8 6.3 269.7 6 269.8 5.6zM270.7 5.5c0 0 0.8 0.2 1 0.5 0.2 0.3 0.6 0.7 0.5 0.8-0.1 0.1-0.8-0.5-0.9-0.5C271.2 6.2 269.7 5.9 270.7 5.5zM267 9.8c0 0-1.7 1.8-1.7 4.4s2.3 3.7 3.9 3.7 4 0.5 5.1 1.5 1.8 1.8 3.5 2.1c1.7 0.3 3.9 0.4 4-0.5C282 20 267 9.8 267 9.8zM277.4 17.2c2.3 1.4 5.2 1.1 6.2 1.4 0 0 1.7-2.3 0.8-3.7s-2.9-2.2-4.4-2.4c-1.5-0.1-4.7-1.2-6.2-1.8s-3.5 0.3-3.8 1c-0.3 0.8-0.6 1.7-0.6 1.7S273.8 15.1 277.4 17.2zM267.2 10.2c0 0-0.8 2.2 1.6 3s6.2 1.8 7.7 3.6c1.6 1.8 4.7 5.4 5.6 4.4 0.9-0.9 3.1-2.9 1.5-3.5-1.6-0.6-5.6-0.2-6.9-1.5-1.3-1.3-2.4-1.7-4.4-2.4C270.2 13.2 268.6 12.9 267.2 10.2zM271.4 51.2c10.3 0 18.9-2.4 21.8-5.7 0 0.5 0 0.9 0 1.3 0 5.2-9.9 9.4-22.1 9.4s-22.1-4.2-22.1-9.4c0-0.7 0-1.4 0-2.1C251.1 48.4 260.3 51.2 271.4 51.2zM288.3 20.2c2.1 1.1 3.3 2.4 3.3 3.8 0 3.9-9.1 7-20.4 7-10.8 0-19.7-2.9-20.3-6.6 0 0.2 0 0.3 0 0.5 0 4.2 9.4 7.5 21.1 7.5 11.7 0 21.1-3.4 21.1-7.5C293 23.1 291.2 21.5 288.3 20.2zM281.8 35.8c0 0 7.5-5.1 7.9 2.9C288.7 36.9 288.9 34 281.8 35.8zM290.3 39.4c0 0 0 2.3-0.7 3.3C291.2 42.7 290.3 39.4 290.3 39.4zM284.5 19.4c0 0.1 0 0.3 0 0.4 0 4.4-5.3 9.6-11.2 9.8 4.1 0.8 17.1-1.7 17.1-5.8C290.4 21.8 288 20.2 284.5 19.4zM280.9 37.8c0 0-1.9 2.4-1.9 5.1s-1.2 3.2-2 2c1.3 0 1.4-1.1 1.4-2.2S278.4 39 280.9 37.8zM272.5 41.9c0 0-1.9 0.1-2.6 2-0.7 1.9-1.9 5.2-3.9 2.9 1.6 0.5 2.1-0.5 2.9-2.2C269.8 42.9 270.5 41.8 272.5 41.9zM287.7 31.2c0 0 4.2-1.9 5.5-4 0 2.3 0.4 3.7-0.6 4.9-1.1 1.3-1.9 2.5-2.1 3.4C289.8 33.3 289.5 31.6 287.7 31.2z"/></g><g id="Layer_11"><radialGradient id="SVGID_1_" cx="59.2" cy="20.8" r="72.4" gradientTransform="matrix(1.0102 0 0 1 -9.1333 0)" gradientUnits="userSpaceOnUse"><stop offset="0" stop-color="#FFFFFF"/><stop offset="0" stop-color="#FEF7E2"/><stop offset="0.1" stop-color="#FBE18C"/><stop offset="0.1" stop-color="#FAD86A"/><stop offset="0.4" stop-color="#F5CB5A"/><stop offset="0.7" stop-color="#C57315"/><stop offset="1" stop-color="#AC4A12"/></radialGradient><path fill="url(#SVGID_1_)" d="M10.1 45.9c0 5.2 9.9 9.4 22.1 9.4 12.2 0 22-4.2 22-9.4 0-3.7 0-11.9 0-18.5-3.4 0-40.5 0-44.1 0C10.1 36.9 10.1 40.8 10.1 45.9z"/><radialGradient id="SVGID_2_" cx="1830.6" cy="-9.1" r="35.7" gradientTransform="matrix(-0.9953 0 0 1 1874.1602 0)" gradientUnits="userSpaceOnUse"><stop offset="0" stop-color="#FFFFFF"/><stop offset="0.2" stop-color="#CFAD9B"/><stop offset="0.3" stop-color="#A66644"/><stop offset="0.4" stop-color="#964A22"/><stop offset="0.7" stop-color="#551C0B"/><stop offset="1" stop-color="#361211"/></radialGradient><path fill="url(#SVGID_2_)" d="M9.7 26.3c0 0.6-1.2 3.8 0.4 3.8 1 0 0.6-1.3 1.4-0.3 3 3.3 3.8 9.2 6.9 12.1 1.5 1.4 3.5 0.9 5.2 1.7 2.6 1.2 1.7 5.2 5.1 5.2 2.9 0 2-5.5 4.8-5.5 3 0 3.3 3.7 5.3 3.7 2.6 0 1.4-6.1 4-8.6 3.8-3.6 6.8-1.1 6.3 1-0.6 2.5 0.2 4.6 1.4 4.6 1.9 0 1.4-3.7 1.3-4.7-0.3-2.7 1-4.6 2-5.4 1.6-1.2 1.2-6 1.2-7.5 0-5-7.6-10-23-10C16 16.4 9.7 21.3 9.7 26.3z"/><radialGradient id="SVGID_3_" cx="1833.6" cy="0.3" r="51.4" gradientTransform="matrix(-0.9953 0 0 1 1874.3379 0)" gradientUnits="userSpaceOnUse"><stop offset="0" stop-color="#FFFFFF"/><stop offset="0.2" stop-color="#CFAD9B"/><stop offset="0.3" stop-color="#A66644"/><stop offset="0.4" stop-color="#964A22"/><stop offset="0.7" stop-color="#551C0B"/><stop offset="1" stop-color="#361211"/></radialGradient><path fill="url(#SVGID_3_)" d="M9.6 25.5c0 0.6-1.2 3.8 0.4 3.8 1 0 0.6-1.3 1.4-0.3 3 3.3 3.8 9.2 6.9 12.1 1.5 1.4 3.5 0.9 5.2 1.7 2.6 1.2 1.8 5.4 5.1 5.4 2.9 0 1.9-5.6 4.8-5.6 3 0 3.3 3.7 5.3 3.7 2.6 0 1.4-6.1 4-8.6 3.8-3.6 6.8-1.1 6.2 1-0.6 2.5 0.2 4.6 1.4 4.6 1.9 0 1.4-3.7 1.3-4.7-0.3-2.7 1-4.6 2-5.4 1.6-1.2 1.2-6 1.2-7.5 0-5-7.6-10-23-10C16 15.6 9.6 20.5 9.6 25.5z"/><radialGradient id="SVGID_4_" cx="51" cy="-2.3" r="29.4" gradientUnits="userSpaceOnUse"><stop offset="0" stop-color="#FFFFFF"/><stop offset="0.2" stop-color="#CFAD9B"/><stop offset="0.3" stop-color="#A66644"/><stop offset="0.4" stop-color="#964A22"/><stop offset="0.7" stop-color="#551C0B"/><stop offset="1" stop-color="#361211"/></radialGradient><ellipse fill="url(#SVGID_4_)" cx="31.9" cy="20" rx="12.9" ry="4.4"/><radialGradient id="SVGID_5_" cx="1856" cy="9.8" r="86.1" gradientTransform="matrix(-1 0 0 1 1877.9688 0)" gradientUnits="userSpaceOnUse"><stop offset="0" stop-color="#FFFFFF"/><stop offset="1" stop-color="#646464"/></radialGradient><path fill="url(#SVGID_5_)" d="M40.9 13.5c0 0 0.8-3-1.2-3.6-2-0.6-10-0.8-10.6 0C28.5 10.7 40.9 13.5 40.9 13.5z"/><radialGradient id="SVGID_6_" cx="1851" cy="2.8" r="61.4" gradientTransform="matrix(-1 0 0 1 1877.9688 0)" gradientUnits="userSpaceOnUse"><stop offset="0" stop-color="#FFFFFF"/><stop offset="1" stop-color="#646464"/></radialGradient><path fill="url(#SVGID_6_)" d="M29.1 8c0 0-8.6 2.1-9.7 7-1.1 5.3 2.6 6.9 13.9 8.8C37.4 24.5 29.1 8 29.1 8z"/><radialGradient id="SVGID_7_" cx="1834" cy="-6" r="83.4" gradientTransform="matrix(-1 0 0 1 1877.9688 0)" gradientUnits="userSpaceOnUse"><stop offset="0" stop-color="#FFFFFF"/><stop offset="1" stop-color="#646464"/></radialGradient><path fill="url(#SVGID_7_)" d="M29 8.9c0 0-6.6 1-6.8 5.3s4 7.5 6.3 8.2c2.3 0.6 3-1.1 2.7-3.7C31 15.9 29 8.9 29 8.9z"/><radialGradient id="SVGID_8_" cx="1856.5" cy="6.5" r="98.4" gradientTransform="matrix(-1 0 0 1 1877.9688 0)" gradientUnits="userSpaceOnUse"><stop offset="0" stop-color="#FFFFFF"/><stop offset="1" stop-color="#646464"/></radialGradient><path fill="url(#SVGID_8_)" d="M28.5 8.7c0 0-5.6 1.3-5.6 5s3.6 4.5 5.1 4.8c1.5 0.3 6.1 2.7 6.1 3.8s0 1.4 0 1.4 3.2-2.7 3.9-2.8S28.5 8.7 28.5 8.7z"/><radialGradient id="SVGID_9_" cx="346.7" cy="546.2" r="13.5" gradientTransform="matrix(0.8953 0.4557 -0.4584 0.8901 -18.5964 -635.9854)" gradientUnits="userSpaceOnUse"><stop offset="0" stop-color="#FFFFFF"/><stop offset="0.1" stop-color="#FECFCD"/><stop offset="0.2" stop-color="#FB5B55"/><stop offset="0.2" stop-color="#FA2D25"/><stop offset="0.5" stop-color="#DB2214"/><stop offset="0.8" stop-color="#C9140B"/><stop offset="1" stop-color="#AA0B05"/></radialGradient><path fill="url(#SVGID_9_)" d="M35.7 5.9c1.4 1.6 1.8 3.6 1 4.9-1.1 1.9-4.7 3.4-7.8 1.8-2.3-1.2-2.5-4.4-1.3-6.3 1.3-2.2 3.9-3.9 5.7-3.2C34.6 3.8 34.7 4.8 35.7 5.9z"/><radialGradient id="SVGID_10_" cx="341.4" cy="545" r="24" gradientTransform="matrix(0.8953 0.4557 -0.4584 0.8901 -18.5964 -635.9854)" gradientUnits="userSpaceOnUse"><stop offset="0" stop-color="#FFFFFF"/><stop offset="0.1" stop-color="#FECFCD"/><stop offset="0.2" stop-color="#FB5B55"/><stop offset="0.2" stop-color="#FA2D25"/><stop offset="0.5" stop-color="#DB2214"/><stop offset="0.8" stop-color="#C9140B"/><stop offset="1" stop-color="#AA0B05"/></radialGradient><path opacity="0.3" fill="url(#SVGID_10_)" d="M34.8 4.8c0 0-1-1.2-1.6-1-0.5 0.2 0.5 1.3 0.8 1.8 0.3 0.5 2 2.7 2.5 2.5C37 7.8 35.4 5.8 34.8 4.8z"/><radialGradient id="SVGID_11_" cx="343" cy="545.1" r="5.5" gradientTransform="matrix(0.8953 0.4557 -0.4584 0.8901 -18.5964 -635.9854)" gradientUnits="userSpaceOnUse"><stop offset="0" stop-color="#FFFFFF"/><stop offset="0.1" stop-color="#FECFCD"/><stop offset="0.2" stop-color="#FB5B55"/><stop offset="0.2" stop-color="#FA2D25"/><stop offset="0.5" stop-color="#DB2214"/><stop offset="0.8" stop-color="#C9140B"/><stop offset="1" stop-color="#AA0B05"/></radialGradient><path fill="url(#SVGID_11_)" d="M35.9 6.9c-0.2 0.6-0.7-0.2-1.1-0.5-0.6-0.5-0.9-1.2-0.7-1.4 0.2-0.2 0.5-0.2 1 0.4C35.6 6.1 36 6.6 35.9 6.9z"/><radialGradient id="SVGID_12_" cx="346.9" cy="549.3" r="44.1" gradientTransform="matrix(0.8953 0.4557 -0.4584 0.8901 -18.5964 -635.9854)" gradientUnits="userSpaceOnUse"><stop offset="0" stop-color="#FFFFFF"/><stop offset="0.1" stop-color="#FECFCD"/><stop offset="0.2" stop-color="#FB5B55"/><stop offset="0.2" stop-color="#FA2D25"/><stop offset="0.5" stop-color="#DB2214"/><stop offset="0.8" stop-color="#C9140B"/><stop offset="1" stop-color="#AA0B05"/></radialGradient><path opacity="0.2" fill="url(#SVGID_12_)" d="M28.9 12.6c3 1.5 6.7 0.1 7.8-1.8 0.2-0.3 0.3-0.6 0.3-1C36.9 9.4 36.7 9.1 36.5 8.8c-0.5-0.8-0.9-1-0.9-1s0.6 1.6-1 2.1c-1.5 0.4-5.7 2-7.7-0.6C27 10.7 27.6 12 28.9 12.6z"/><radialGradient id="SVGID_13_" cx="334.7" cy="543.2" r="21.5" gradientTransform="matrix(0.8953 0.4557 -0.4584 0.8901 -18.5964 -635.9854)" gradientUnits="userSpaceOnUse"><stop offset="0" stop-color="#FFFFFF"/><stop offset="0.1" stop-color="#FECFCD"/><stop offset="0.2" stop-color="#FB5B55"/><stop offset="0.2" stop-color="#FA2D25"/><stop offset="0.5" stop-color="#DB2214"/><stop offset="0.8" stop-color="#C9140B"/><stop offset="1" stop-color="#AA0B05"/></radialGradient><path opacity="0.3" fill="url(#SVGID_13_)" d="M28.7 5.9c0.8-0.8 3.2-2.1 3.4-2.6 0.1-0.2 0.5-0.2 0.9-0.2-1.8-0.5-4.2 1.1-5.5 3.2-0.4 0.7-0.6 1.6-0.7 2.5C27.1 8.4 28.1 6.6 28.7 5.9z"/><radialGradient id="SVGID_14_" cx="338.1" cy="547.2" r="17.8" gradientTransform="matrix(0.8953 0.4557 -0.4584 0.8901 -18.5964 -635.9854)" gradientUnits="userSpaceOnUse"><stop offset="0" stop-color="#FFFFFF"/><stop offset="0.1" stop-color="#FECFCD"/><stop offset="0.2" stop-color="#FB5B55"/><stop offset="0.2" stop-color="#FA2D25"/><stop offset="0.5" stop-color="#DB2214"/><stop offset="0.8" stop-color="#C9140B"/><stop offset="1" stop-color="#AA0B05"/></radialGradient><path opacity="0.2" fill="url(#SVGID_14_)" d="M30.8 5.6c0 0 0.5-0.7 1.4-0.1 0.9 0.6 1.5 1.3 1.6 1.7 0.1 0.4-0.9 0.1-1.5-0.4C31.8 6.3 30.7 6 30.8 5.6z"/><radialGradient id="SVGID_15_" cx="337.8" cy="547.9" r="33.1" gradientTransform="matrix(0.8953 0.4557 -0.4584 0.8901 -18.5964 -635.9854)" gradientUnits="userSpaceOnUse"><stop offset="0" stop-color="#FFFFFF"/><stop offset="0.1" stop-color="#FECFCD"/><stop offset="0.2" stop-color="#FB5B55"/><stop offset="0.2" stop-color="#FA2D25"/><stop offset="0.5" stop-color="#DB2214"/><stop offset="0.8" stop-color="#C9140B"/><stop offset="1" stop-color="#AA0B05"/></radialGradient><path opacity="0.7" fill="url(#SVGID_15_)" d="M31.7 5.5c0 0 0.8 0.2 1 0.5 0.2 0.3 0.6 0.7 0.5 0.8-0.1 0.1-0.8-0.5-0.9-0.5C32.2 6.2 30.7 5.9 31.7 5.5z"/><radialGradient id="SVGID_16_" cx="1850.3" cy="-4.2" r="75.9" gradientTransform="matrix(-1 0 0 1 1877.9688 0)" gradientUnits="userSpaceOnUse"><stop offset="0" stop-color="#FFFFFF"/><stop offset="1" stop-color="#646464"/></radialGradient><path fill="url(#SVGID_16_)" d="M28 9.8c0 0-1.7 1.8-1.7 4.4s2.3 3.7 3.9 3.7c1.7 0 4 0.5 5.1 1.5 1.1 1.1 1.8 1.8 3.5 2.1 1.7 0.3 3.9 0.4 4-0.5C43 20 28 9.8 28 9.8z"/><radialGradient id="SVGID_17_" cx="1847.5" cy="0.1" r="56.1" gradientTransform="matrix(-1 0 0 1 1877.9688 0)" gradientUnits="userSpaceOnUse"><stop offset="0" stop-color="#FFFFFF"/><stop offset="1" stop-color="#646464"/></radialGradient><path fill="url(#SVGID_17_)" d="M38.4 17.2c2.3 1.4 5.2 1.1 6.2 1.4 0 0 1.6-2.3 0.8-3.7s-2.9-2.2-4.4-2.4c-1.5-0.1-4.7-1.2-6.2-1.8-1.5-0.6-3.5 0.3-3.8 1-0.3 0.8-0.6 1.7-0.6 1.7S34.8 15.1 38.4 17.2z"/><radialGradient id="SVGID_18_" cx="1852.3" cy="1.3" r="159" gradientTransform="matrix(-1 0 0 1 1877.9688 0)" gradientUnits="userSpaceOnUse"><stop offset="0" stop-color="#FFFFFF"/><stop offset="1" stop-color="#646464"/></radialGradient><path fill="url(#SVGID_18_)" d="M28.2 10.2c0 0-0.8 2.2 1.6 3s6.2 1.8 7.7 3.6c1.6 1.8 4.7 5.4 5.6 4.4 0.9-0.9 3.1-2.9 1.5-3.5-1.6-0.6-5.6-0.2-6.9-1.5-1.3-1.3-2.4-1.7-4.4-2.4C31.2 13.2 29.6 12.9 28.2 10.2z"/><radialGradient id="SVGID_19_" cx="1806" cy="22.1" r="59.2" gradientTransform="matrix(-1.0131 0 0 1 1890.8403 0)" gradientUnits="userSpaceOnUse"><stop offset="0" stop-color="#FFFFFF"/><stop offset="0" stop-color="#FEF7E2"/><stop offset="0.1" stop-color="#FBE18C"/><stop offset="0.1" stop-color="#FAD86A"/><stop offset="0.4" stop-color="#F5CB5A"/><stop offset="0.7" stop-color="#C57315"/><stop offset="1" stop-color="#AC4A12"/></radialGradient><path fill="url(#SVGID_19_)" d="M32.4 51.2c10.3 0 18.9-2.4 21.8-5.7 0 0.5 0 0.9 0 1.3 0 5.2-9.9 9.4-22.1 9.4-12.2 0-22.1-4.2-22.1-9.4 0-0.7 0-1.4 0-2.1C12.1 48.4 21.3 51.2 32.4 51.2z"/><radialGradient id="SVGID_20_" cx="96.3" cy="-462.1" r="52.6" gradientTransform="matrix(1.0536 0 0 1.1798 -48.1436 569.7129)" gradientUnits="userSpaceOnUse"><stop offset="0" stop-color="#FFFFFF"/><stop offset="0.2" stop-color="#CFAD9B"/><stop offset="0.3" stop-color="#A66644"/><stop offset="0.4" stop-color="#964A22"/><stop offset="0.7" stop-color="#551C0B"/><stop offset="1" stop-color="#361211"/></radialGradient><path opacity="0.5" fill="url(#SVGID_20_)" d="M49.3 20.2c2.1 1.1 3.3 2.4 3.3 3.8 0 3.9-9.1 7-20.4 7-10.8 0-19.7-2.9-20.3-6.6 0 0.2 0 0.3 0 0.5 0 4.2 9.4 7.5 21.1 7.5 11.7 0 21.1-3.4 21.1-7.5C54 23.1 52.2 21.5 49.3 20.2z"/><radialGradient id="SVGID_21_" cx="46.8" cy="33.1" r="26.2" gradientUnits="userSpaceOnUse"><stop offset="0" stop-color="#FFFFFF"/><stop offset="0.2" stop-color="#CFAD9B"/><stop offset="0.3" stop-color="#A66644"/><stop offset="0.4" stop-color="#964A22"/><stop offset="0.7" stop-color="#551C0B"/><stop offset="1" stop-color="#361211"/></radialGradient><path opacity="0.5" fill="url(#SVGID_21_)" d="M42.8 35.8c0 0 7.5-5.1 7.9 2.9C49.7 36.9 49.9 34 42.8 35.8z"/><radialGradient id="SVGID_22_" cx="51" cy="38.6" r="15.8" gradientUnits="userSpaceOnUse"><stop offset="0" stop-color="#FFFFFF"/><stop offset="0.2" stop-color="#CFAD9B"/><stop offset="0.3" stop-color="#A66644"/><stop offset="0.4" stop-color="#964A22"/><stop offset="0.7" stop-color="#551C0B"/><stop offset="1" stop-color="#361211"/></radialGradient><path opacity="0.5" fill="url(#SVGID_22_)" d="M51.3 39.4c0 0 0 2.3-0.7 3.3C52.2 42.7 51.3 39.4 51.3 39.4z"/><radialGradient id="SVGID_23_" cx="51" cy="19.8" r="131.2" gradientUnits="userSpaceOnUse"><stop offset="0" stop-color="#FFFFFF"/><stop offset="0.2" stop-color="#CFAD9B"/><stop offset="0.3" stop-color="#A66644"/><stop offset="0.4" stop-color="#964A22"/><stop offset="0.7" stop-color="#551C0B"/><stop offset="1" stop-color="#361211"/></radialGradient><path opacity="0.2" fill="url(#SVGID_23_)" d="M45.5 19.4c0 0.1 0 0.3 0 0.4 0 4.4-5.3 9.6-11.2 9.8 4.1 0.8 17.1-1.7 17.1-5.8C51.4 21.8 49 20.2 45.5 19.4z"/><radialGradient id="SVGID_24_" cx="43.9" cy="35.6" r="29.8" gradientUnits="userSpaceOnUse"><stop offset="0" stop-color="#FFFFFF"/><stop offset="0.2" stop-color="#CFAD9B"/><stop offset="0.3" stop-color="#A66644"/><stop offset="0.4" stop-color="#964A22"/><stop offset="0.7" stop-color="#551C0B"/><stop offset="1" stop-color="#361211"/></radialGradient><path opacity="0.5" fill="url(#SVGID_24_)" d="M41.9 37.8c0 0-1.9 2.4-1.9 5.1s-1.2 3.2-2 2c1.3 0 1.4-1.1 1.4-2.2S39.4 39 41.9 37.8z"/><radialGradient id="SVGID_25_" cx="36.7" cy="40.2" r="23.3" gradientUnits="userSpaceOnUse"><stop offset="0" stop-color="#FFFFFF"/><stop offset="0.2" stop-color="#CFAD9B"/><stop offset="0.3" stop-color="#A66644"/><stop offset="0.4" stop-color="#964A22"/><stop offset="0.7" stop-color="#551C0B"/><stop offset="1" stop-color="#361211"/></radialGradient><path fill="url(#SVGID_25_)" d="M33.5 41.9c0 0-1.9 0.1-2.6 2-0.7 1.9-1.9 5.2-3.9 2.9 1.6 0.5 2.1-0.5 2.9-2.2C30.8 42.9 31.5 41.8 33.5 41.9z"/><radialGradient id="SVGID_26_" cx="53.8" cy="25.3" r="21.6" gradientUnits="userSpaceOnUse"><stop offset="0" stop-color="#FFFFFF"/><stop offset="0.2" stop-color="#CFAD9B"/><stop offset="0.3" stop-color="#A66644"/><stop offset="0.4" stop-color="#964A22"/><stop offset="0.7" stop-color="#551C0B"/><stop offset="1" stop-color="#361211"/></radialGradient><path opacity="0.3" fill="url(#SVGID_26_)" d="M48.7 31.2c0 0 4.2-1.9 5.5-4 0 2.3 0.4 3.7-0.6 4.9-1.1 1.3-1.9 2.5-2.1 3.4C50.8 33.3 50.5 31.6 48.7 31.2z"/><radialGradient id="SVGID_27_" cx="118.3" cy="20.8" r="72.4" gradientTransform="matrix(1.0102 0 0 1 -9.1333 0)" gradientUnits="userSpaceOnUse"><stop offset="0" stop-color="#FFFFFF"/><stop offset="0" stop-color="#FEF7E2"/><stop offset="0.1" stop-color="#FBE18C"/><stop offset="0.1" stop-color="#FAD86A"/><stop offset="0.4" stop-color="#F5CB5A"/><stop offset="0.7" stop-color="#C57315"/><stop offset="1" stop-color="#AC4A12"/></radialGradient><path fill="url(#SVGID_27_)" d="M69.8 45.9c0 5.2 9.9 9.4 22.1 9.4s22-4.2 22-9.4c0-3.7 0-11.9 0-18.5-3.4 0-40.5 0-44.1 0C69.8 36.9 69.8 40.8 69.8 45.9z"/><radialGradient id="SVGID_28_" cx="1770.5" cy="-9.1" r="35.7" gradientTransform="matrix(-0.9953 0 0 1 1874.1602 0)" gradientUnits="userSpaceOnUse"><stop offset="0" stop-color="#FFFFFF"/><stop offset="0.2" stop-color="#CFAD9B"/><stop offset="0.3" stop-color="#A66644"/><stop offset="0.4" stop-color="#964A22"/><stop offset="0.7" stop-color="#551C0B"/><stop offset="1" stop-color="#361211"/></radialGradient><path fill="url(#SVGID_28_)" d="M69.4 26.3c0 0.6-1.2 3.8 0.4 3.8 1 0 0.6-1.3 1.4-0.3 3 3.3 3.8 9.2 6.9 12.1 1.5 1.4 3.5 0.9 5.2 1.7 2.6 1.2 1.7 5.2 5.1 5.2 2.9 0 2-5.5 4.8-5.5 3 0 3.3 3.7 5.3 3.7 2.6 0 1.4-6.1 4-8.6 3.8-3.6 6.8-1.1 6.2 1-0.6 2.5 0.2 4.6 1.4 4.6 1.9 0 1.4-3.7 1.3-4.7-0.3-2.7 1-4.6 2-5.4 1.6-1.2 1.2-6 1.2-7.5 0-5-7.6-10-23-10C75.8 16.4 69.4 21.3 69.4 26.3z"/><radialGradient id="SVGID_29_" cx="1773.6" cy="0.3" r="51.4" gradientTransform="matrix(-0.9953 0 0 1 1874.3379 0)" gradientUnits="userSpaceOnUse"><stop offset="0" stop-color="#FFFFFF"/><stop offset="0.2" stop-color="#CFAD9B"/><stop offset="0.3" stop-color="#A66644"/><stop offset="0.4" stop-color="#964A22"/><stop offset="0.7" stop-color="#551C0B"/><stop offset="1" stop-color="#361211"/></radialGradient><path fill="url(#SVGID_29_)" d="M69.4 25.5c0 0.6-1.2 3.8 0.4 3.8 1 0 0.6-1.3 1.4-0.3 3 3.3 3.8 9.2 6.9 12.1 1.5 1.4 3.5 0.9 5.2 1.7 2.6 1.2 1.8 5.4 5.1 5.4 2.9 0 1.9-5.6 4.8-5.6 3 0 3.3 3.7 5.3 3.7 2.6 0 1.4-6.1 4-8.6 3.8-3.6 6.8-1.1 6.2 1-0.6 2.5 0.2 4.6 1.4 4.6 1.9 0 1.4-3.7 1.3-4.7-0.3-2.7 1-4.6 2-5.4 1.6-1.2 1.2-6 1.2-7.5 0-5-7.6-10-23-10C75.7 15.6 69.4 20.5 69.4 25.5z"/><radialGradient id="SVGID_30_" cx="110.7" cy="-2.3" r="29.4" gradientUnits="userSpaceOnUse"><stop offset="0" stop-color="#FFFFFF"/><stop offset="0.2" stop-color="#CFAD9B"/><stop offset="0.3" stop-color="#A66644"/><stop offset="0.4" stop-color="#964A22"/><stop offset="0.7" stop-color="#551C0B"/><stop offset="1" stop-color="#361211"/></radialGradient><ellipse fill="url(#SVGID_30_)" cx="91.6" cy="20" rx="12.9" ry="4.4"/><radialGradient id="SVGID_31_" cx="1796.3" cy="9.8" r="86.1" gradientTransform="matrix(-1 0 0 1 1877.9688 0)" gradientUnits="userSpaceOnUse"><stop offset="0" stop-color="#FFFFFF"/><stop offset="1" stop-color="#646464"/></radialGradient><path fill="url(#SVGID_31_)" d="M100.7 13.5c0 0 0.8-3-1.2-3.6s-10-0.8-10.6 0C88.2 10.7 100.7 13.5 100.7 13.5z"/><radialGradient id="SVGID_32_" cx="1791.3" cy="2.8" r="61.4" gradientTransform="matrix(-1 0 0 1 1877.9688 0)" gradientUnits="userSpaceOnUse"><stop offset="0" stop-color="#FFFFFF"/><stop offset="1" stop-color="#646464"/></radialGradient><path fill="url(#SVGID_32_)" d="M88.8 8c0 0-8.6 2.1-9.7 7-1.1 5.3 2.6 6.9 13.9 8.8C97.1 24.5 88.8 8 88.8 8z"/><radialGradient id="SVGID_33_" cx="1774.3" cy="-6" r="83.4" gradientTransform="matrix(-1 0 0 1 1877.9688 0)" gradientUnits="userSpaceOnUse"><stop offset="0" stop-color="#FFFFFF"/><stop offset="1" stop-color="#646464"/></radialGradient><path fill="url(#SVGID_33_)" d="M88.8 8.9c0 0-6.6 1-6.8 5.3s4 7.5 6.3 8.2c2.3 0.6 3-1.1 2.7-3.7C90.7 15.9 88.8 8.9 88.8 8.9z"/><radialGradient id="SVGID_34_" cx="1796.7" cy="6.5" r="98.4" gradientTransform="matrix(-1 0 0 1 1877.9688 0)" gradientUnits="userSpaceOnUse"><stop offset="0" stop-color="#FFFFFF"/><stop offset="1" stop-color="#646464"/></radialGradient><path fill="url(#SVGID_34_)" d="M88.2 8.7c0 0-5.6 1.3-5.6 5 0 3.7 3.6 4.5 5.1 4.8 1.5 0.3 6.1 2.7 6.1 3.8 0 1.1 0 1.4 0 1.4s3.2-2.7 3.9-2.8C98.6 20.8 88.2 8.7 88.2 8.7z"/><radialGradient id="SVGID_35_" cx="399.5" cy="519.1" r="13.5" gradientTransform="matrix(0.8953 0.4557 -0.4584 0.8901 -18.5964 -635.9854)" gradientUnits="userSpaceOnUse"><stop offset="0" stop-color="#FFFFFF"/><stop offset="0.1" stop-color="#FECFCD"/><stop offset="0.2" stop-color="#FB5B55"/><stop offset="0.2" stop-color="#FA2D25"/><stop offset="0.5" stop-color="#DB2214"/><stop offset="0.8" stop-color="#C9140B"/><stop offset="1" stop-color="#AA0B05"/></radialGradient><path fill="url(#SVGID_35_)" d="M95.4 5.9c1.4 1.6 1.8 3.6 1 4.9-1.1 1.9-4.7 3.4-7.8 1.8-2.3-1.2-2.5-4.4-1.3-6.3 1.3-2.2 3.9-3.9 5.7-3.2C94.4 3.8 94.5 4.8 95.4 5.9z"/><radialGradient id="SVGID_36_" cx="394.3" cy="517.9" r="24" gradientTransform="matrix(0.8953 0.4557 -0.4584 0.8901 -18.5964 -635.9854)" gradientUnits="userSpaceOnUse"><stop offset="0" stop-color="#FFFFFF"/><stop offset="0.1" stop-color="#FECFCD"/><stop offset="0.2" stop-color="#FB5B55"/><stop offset="0.2" stop-color="#FA2D25"/><stop offset="0.5" stop-color="#DB2214"/><stop offset="0.8" stop-color="#C9140B"/><stop offset="1" stop-color="#AA0B05"/></radialGradient><path opacity="0.3" fill="url(#SVGID_36_)" d="M94.6 4.8c0 0-1-1.2-1.6-1-0.5 0.2 0.5 1.3 0.8 1.8 0.3 0.5 2 2.7 2.5 2.5C96.8 7.8 95.2 5.8 94.6 4.8z"/><radialGradient id="SVGID_37_" cx="395.8" cy="518" r="5.5" gradientTransform="matrix(0.8953 0.4557 -0.4584 0.8901 -18.5964 -635.9854)" gradientUnits="userSpaceOnUse"><stop offset="0" stop-color="#FFFFFF"/><stop offset="0.1" stop-color="#FECFCD"/><stop offset="0.2" stop-color="#FB5B55"/><stop offset="0.2" stop-color="#FA2D25"/><stop offset="0.5" stop-color="#DB2214"/><stop offset="0.8" stop-color="#C9140B"/><stop offset="1" stop-color="#AA0B05"/></radialGradient><path fill="url(#SVGID_37_)" d="M95.6 6.9c-0.2 0.6-0.7-0.2-1.1-0.5-0.6-0.5-0.9-1.2-0.7-1.4 0.2-0.2 0.5-0.2 1 0.4C95.4 6.1 95.7 6.6 95.6 6.9z"/><radialGradient id="SVGID_38_" cx="399.8" cy="522.2" r="44.1" gradientTransform="matrix(0.8953 0.4557 -0.4584 0.8901 -18.5964 -635.9854)" gradientUnits="userSpaceOnUse"><stop offset="0" stop-color="#FFFFFF"/><stop offset="0.1" stop-color="#FECFCD"/><stop offset="0.2" stop-color="#FB5B55"/><stop offset="0.2" stop-color="#FA2D25"/><stop offset="0.5" stop-color="#DB2214"/><stop offset="0.8" stop-color="#C9140B"/><stop offset="1" stop-color="#AA0B05"/></radialGradient><path opacity="0.2" fill="url(#SVGID_38_)" d="M88.7 12.6c3 1.5 6.7 0.1 7.8-1.8 0.2-0.3 0.3-0.6 0.3-1-0.1-0.4-0.3-0.8-0.5-1-0.5-0.8-0.9-1-0.9-1s0.6 1.6-1 2.1c-1.5 0.4-5.7 2-7.7-0.6C86.8 10.7 87.4 12 88.7 12.6z"/><radialGradient id="SVGID_39_" cx="387.6" cy="516.1" r="21.5" gradientTransform="matrix(0.8953 0.4557 -0.4584 0.8901 -18.5964 -635.9854)" gradientUnits="userSpaceOnUse"><stop offset="0" stop-color="#FFFFFF"/><stop offset="0.1" stop-color="#FECFCD"/><stop offset="0.2" stop-color="#FB5B55"/><stop offset="0.2" stop-color="#FA2D25"/><stop offset="0.5" stop-color="#DB2214"/><stop offset="0.8" stop-color="#C9140B"/><stop offset="1" stop-color="#AA0B05"/></radialGradient><path opacity="0.3" fill="url(#SVGID_39_)" d="M88.5 5.9c0.8-0.8 3.2-2.1 3.4-2.6 0.1-0.2 0.5-0.2 0.9-0.2-1.8-0.5-4.2 1.1-5.5 3.2-0.4 0.7-0.6 1.6-0.7 2.5C86.9 8.4 87.8 6.6 88.5 5.9z"/><radialGradient id="SVGID_40_" cx="391" cy="520.1" r="17.8" gradientTransform="matrix(0.8953 0.4557 -0.4584 0.8901 -18.5964 -635.9854)" gradientUnits="userSpaceOnUse"><stop offset="0" stop-color="#FFFFFF"/><stop offset="0.1" stop-color="#FECFCD"/><stop offset="0.2" stop-color="#FB5B55"/><stop offset="0.2" stop-color="#FA2D25"/><stop offset="0.5" stop-color="#DB2214"/><stop offset="0.8" stop-color="#C9140B"/><stop offset="1" stop-color="#AA0B05"/></radialGradient><path opacity="0.2" fill="url(#SVGID_40_)" d="M90.6 5.6c0 0 0.5-0.7 1.4-0.1 0.9 0.6 1.5 1.3 1.6 1.7s-0.9 0.1-1.5-0.4C91.6 6.3 90.4 6 90.6 5.6z"/><radialGradient id="SVGID_41_" cx="390.7" cy="520.9" r="33.1" gradientTransform="matrix(0.8953 0.4557 -0.4584 0.8901 -18.5964 -635.9854)" gradientUnits="userSpaceOnUse"><stop offset="0" stop-color="#FFFFFF"/><stop offset="0.1" stop-color="#FECFCD"/><stop offset="0.2" stop-color="#FB5B55"/><stop offset="0.2" stop-color="#FA2D25"/><stop offset="0.5" stop-color="#DB2214"/><stop offset="0.8" stop-color="#C9140B"/><stop offset="1" stop-color="#AA0B05"/></radialGradient><path opacity="0.7" fill="url(#SVGID_41_)" d="M91.4 5.5c0 0 0.8 0.2 1 0.5 0.2 0.3 0.6 0.7 0.5 0.8-0.1 0.1-0.8-0.5-0.9-0.5C92 6.2 90.5 5.9 91.4 5.5z"/><radialGradient id="SVGID_42_" cx="1790.6" cy="-4.2" r="75.9" gradientTransform="matrix(-1 0 0 1 1877.9688 0)" gradientUnits="userSpaceOnUse"><stop offset="0" stop-color="#FFFFFF"/><stop offset="1" stop-color="#646464"/></radialGradient><path fill="url(#SVGID_42_)" d="M87.8 9.8c0 0-1.7 1.8-1.7 4.4s2.3 3.7 3.9 3.7 4 0.5 5.1 1.5 1.8 1.8 3.5 2.1c1.7 0.3 3.9 0.4 4-0.5C102.8 20 87.8 9.8 87.8 9.8z"/><radialGradient id="SVGID_43_" cx="1787.7" cy="0.1" r="56.1" gradientTransform="matrix(-1 0 0 1 1877.9688 0)" gradientUnits="userSpaceOnUse"><stop offset="0" stop-color="#FFFFFF"/><stop offset="1" stop-color="#646464"/></radialGradient><path fill="url(#SVGID_43_)" d="M98.1 17.2c2.3 1.4 5.2 1.1 6.2 1.4 0 0 1.7-2.3 0.8-3.7s-2.9-2.2-4.4-2.4c-1.5-0.1-4.7-1.2-6.2-1.8s-3.5 0.3-3.8 1c-0.3 0.8-0.6 1.7-0.6 1.7S94.6 15.1 98.1 17.2z"/><radialGradient id="SVGID_44_" cx="1792.6" cy="1.3" r="159" gradientTransform="matrix(-1 0 0 1 1877.9688 0)" gradientUnits="userSpaceOnUse"><stop offset="0" stop-color="#FFFFFF"/><stop offset="1" stop-color="#646464"/></radialGradient><path fill="url(#SVGID_44_)" d="M88 10.2c0 0-0.8 2.2 1.6 3s6.2 1.8 7.7 3.6c1.6 1.8 4.7 5.4 5.6 4.4 0.9-0.9 3.1-2.9 1.5-3.5-1.6-0.6-5.6-0.2-6.9-1.5-1.3-1.3-2.4-1.7-4.4-2.4C91 13.2 89.4 12.9 88 10.2z"/><radialGradient id="SVGID_45_" cx="1747.1" cy="22.1" r="59.2" gradientTransform="matrix(-1.0131 0 0 1 1890.8403 0)" gradientUnits="userSpaceOnUse"><stop offset="0" stop-color="#FFFFFF"/><stop offset="0" stop-color="#FEF7E2"/><stop offset="0.1" stop-color="#FBE18C"/><stop offset="0.1" stop-color="#FAD86A"/><stop offset="0.4" stop-color="#F5CB5A"/><stop offset="0.7" stop-color="#C57315"/><stop offset="1" stop-color="#AC4A12"/></radialGradient><path fill="url(#SVGID_45_)" d="M92.2 51.2c10.3 0 18.9-2.4 21.8-5.7 0 0.5 0 0.9 0 1.3 0 5.2-9.9 9.4-22.1 9.4s-22.1-4.2-22.1-9.4c0-0.7 0-1.4 0-2.1C71.8 48.4 81.1 51.2 92.2 51.2z"/><radialGradient id="SVGID_46_" cx="153" cy="-462.1" r="52.6" gradientTransform="matrix(1.0536 0 0 1.1798 -48.1436 569.7129)" gradientUnits="userSpaceOnUse"><stop offset="0" stop-color="#FFFFFF"/><stop offset="0.2" stop-color="#CFAD9B"/><stop offset="0.3" stop-color="#A66644"/><stop offset="0.4" stop-color="#964A22"/><stop offset="0.7" stop-color="#551C0B"/><stop offset="1" stop-color="#361211"/></radialGradient><path opacity="0.5" fill="url(#SVGID_46_)" d="M109 20.2c2.1 1.1 3.3 2.4 3.3 3.8 0 3.9-9.1 7-20.4 7-10.8 0-19.7-2.9-20.3-6.6 0 0.2 0 0.3 0 0.5 0 4.2 9.4 7.5 21.1 7.5 11.7 0 21.1-3.4 21.1-7.5C113.7 23.1 112 21.5 109 20.2z"/><radialGradient id="SVGID_47_" cx="106.5" cy="33.1" r="26.2" gradientUnits="userSpaceOnUse"><stop offset="0" stop-color="#FFFFFF"/><stop offset="0.2" stop-color="#CFAD9B"/><stop offset="0.3" stop-color="#A66644"/><stop offset="0.4" stop-color="#964A22"/><stop offset="0.7" stop-color="#551C0B"/><stop offset="1" stop-color="#361211"/></radialGradient><path opacity="0.5" fill="url(#SVGID_47_)" d="M102.6 35.8c0 0 7.5-5.1 7.9 2.9C109.4 36.9 109.6 34 102.6 35.8z"/><radialGradient id="SVGID_48_" cx="110.8" cy="38.6" r="15.8" gradientUnits="userSpaceOnUse"><stop offset="0" stop-color="#FFFFFF"/><stop offset="0.2" stop-color="#CFAD9B"/><stop offset="0.3" stop-color="#A66644"/><stop offset="0.4" stop-color="#964A22"/><stop offset="0.7" stop-color="#551C0B"/><stop offset="1" stop-color="#361211"/></radialGradient><path opacity="0.5" fill="url(#SVGID_48_)" d="M111 39.4c0 0 0 2.3-0.7 3.3C111.9 42.7 111 39.4 111 39.4z"/><radialGradient id="SVGID_49_" cx="110.7" cy="19.8" r="131.2" gradientUnits="userSpaceOnUse"><stop offset="0" stop-color="#FFFFFF"/><stop offset="0.2" stop-color="#CFAD9B"/><stop offset="0.3" stop-color="#A66644"/><stop offset="0.4" stop-color="#964A22"/><stop offset="0.7" stop-color="#551C0B"/><stop offset="1" stop-color="#361211"/></radialGradient><path opacity="0.2" fill="url(#SVGID_49_)" d="M105.2 19.4c0 0.1 0 0.3 0 0.4 0 4.4-5.3 9.6-11.2 9.8 4.1 0.8 17.1-1.7 17.1-5.8C111.2 21.8 108.8 20.2 105.2 19.4z"/><radialGradient id="SVGID_50_" cx="103.6" cy="35.6" r="29.8" gradientUnits="userSpaceOnUse"><stop offset="0" stop-color="#FFFFFF"/><stop offset="0.2" stop-color="#CFAD9B"/><stop offset="0.3" stop-color="#A66644"/><stop offset="0.4" stop-color="#964A22"/><stop offset="0.7" stop-color="#551C0B"/><stop offset="1" stop-color="#361211"/></radialGradient><path opacity="0.5" fill="url(#SVGID_50_)" d="M101.7 37.8c0 0-1.9 2.4-1.9 5.1s-1.2 3.2-2 2c1.3 0 1.4-1.1 1.4-2.2S99.2 39 101.7 37.8z"/><radialGradient id="SVGID_51_" cx="96.5" cy="40.2" r="23.3" gradientUnits="userSpaceOnUse"><stop offset="0" stop-color="#FFFFFF"/><stop offset="0.2" stop-color="#CFAD9B"/><stop offset="0.3" stop-color="#A66644"/><stop offset="0.4" stop-color="#964A22"/><stop offset="0.7" stop-color="#551C0B"/><stop offset="1" stop-color="#361211"/></radialGradient><path fill="url(#SVGID_51_)" d="M93.3 41.9c0 0-1.9 0.1-2.6 2-0.7 1.9-1.9 5.2-3.9 2.9 1.6 0.5 2.1-0.5 2.9-2.2C90.6 42.9 91.2 41.8 93.3 41.9z"/><radialGradient id="SVGID_52_" cx="113.6" cy="25.3" r="21.6" gradientUnits="userSpaceOnUse"><stop offset="0" stop-color="#FFFFFF"/><stop offset="0.2" stop-color="#CFAD9B"/><stop offset="0.3" stop-color="#A66644"/><stop offset="0.4" stop-color="#964A22"/><stop offset="0.7" stop-color="#551C0B"/><stop offset="1" stop-color="#361211"/></radialGradient><path opacity="0.3" fill="url(#SVGID_52_)" d="M108.5 31.2c0 0 4.2-1.9 5.5-4 0 2.3 0.4 3.7-0.6 4.9-1.1 1.3-1.9 2.5-2.1 3.4C110.5 33.3 110.3 31.6 108.5 31.2z"/></g></svg>