<svg version="1.1" id="Layer_1" xmlns="http://www.w3.org/2000/svg" xmlns:xlink="http://www.w3.org/1999/xlink" viewBox="0 0 768 975" enable-background="new 0 0 768 975" xml:space="preserve">
<g id="Layer_11">
	
		<linearGradient id="SVGID_1_" gradientUnits="userSpaceOnUse" x1="474.8125" y1="-296.9761" x2="466.8128" y2="-1079.7692" gradientTransform="matrix(0.4431 0 0 -0.4431 177.4153 502.426)">
		<stop  offset="0" style="stop-color:#409D8B;stop-opacity:0"/>
		<stop  offset="0.87" style="stop-color:#409D8B;stop-opacity:0.435"/>
		<stop  offset="1" style="stop-color:#409D8B;stop-opacity:0.5"/>
	</linearGradient>
	<polygon opacity="0.7" fill="url(#SVGID_1_)" enable-background="new    " points="772.188,959.662 772.188,910.47 430.02,683.016 
		772.188,876.411 772.188,838.233 436.049,677.388 772.188,811.574 772.188,779.701 440.814,671.142 772.188,757.28 
		772.188,729.056 444.191,664.444 772.188,708.992 772.188,682.674 446.1,657.443 772.188,663.667 772.188,637.938 446.492,650.324 
		322.943,647.396 0,641.235 0.322,666.771 322.552,654.519 0.56,685.559 0.889,711.637 323.685,661.59 1.14,731.422 1.493,759.338 
		326.316,668.436 1.773,781.399 2.171,812.86 330.383,674.885 2.502,839.045 2.978,876.673 335.78,680.785 3.401,910.073 
		4.012,958.484 342.378,685.984 34.043,977.269 92.836,976.524 350.013,690.354 135.164,975.99 184.005,975.372 358.501,693.796 
		219.53,974.922 262.611,974.377 367.626,696.214 294.338,973.976 334.371,973.47 377.169,697.552 364.349,973.09 403.379,972.596 
		386.889,697.785 433.275,972.218 473.141,971.714 396.561,696.896 504.617,971.314 547.32,970.776 405.928,694.916 582.373,970.33 
		630.551,969.722 414.768,691.887 672.078,969.196 729.789,968.467 422.867,687.885 	"/>
</g>
<g id="top">
	
		<linearGradient id="SVGID_2_" gradientUnits="userSpaceOnUse" x1="470.8389" y1="1142.4082" x2="470.8389" y2="879.8711" gradientTransform="matrix(0.4431 0 0 -0.4431 177.4153 502.426)">
		<stop  offset="0" style="stop-color:#1E8FD9"/>
		<stop  offset="1" style="stop-color:#1E8FD9;stop-opacity:0"/>
	</linearGradient>
	<rect x="1.858" y="-3.749" opacity="0.7" fill="url(#SVGID_2_)" enable-background="new    " width="768.351" height="116.324"/>
</g>
</svg>
