<svg version="1.1" id="Layer_1" xmlns="http://www.w3.org/2000/svg" xmlns:xlink="http://www.w3.org/1999/xlink" viewBox="0 0 768 975" enable-background="new 0 0 768 975" xml:space="preserve">
<g id="Layer_11">
	
		<linearGradient id="SVGID_1_" gradientUnits="userSpaceOnUse" x1="467" y1="-301.8833" x2="458.8242" y2="-1101.9119" gradientTransform="matrix(0.4431 0 0 -0.4431 177.4153 502.426)">
		<stop  offset="0" style="stop-color:#409D8B;stop-opacity:0"/>
		<stop  offset="0.87" style="stop-color:#409D8B;stop-opacity:0.435"/>
		<stop  offset="1" style="stop-color:#409D8B;stop-opacity:0.5"/>
	</linearGradient>
	<polygon opacity="0.7" fill="url(#SVGID_1_)" enable-background="new    " points="777.188,969.005 777.188,918.73 
		427.486,686.269 777.188,883.922 777.188,844.903 433.648,680.517 777.188,817.658 777.188,785.083 438.52,674.133 
		777.188,762.169 777.188,733.322 441.97,667.288 777.188,712.817 777.188,685.919 443.921,660.134 777.188,666.494 
		777.188,640.198 444.322,652.857 318.053,649.864 -12,643.569 -11.671,669.666 317.653,657.145 -11.428,688.868 -11.091,715.52 
		318.811,664.372 -10.835,735.741 -10.474,764.271 321.5,671.367 -10.188,786.818 -9.781,818.973 325.657,677.959 -9.443,845.733 
		-8.957,884.189 331.173,683.989 -8.524,918.325 -7.9,967.803 337.916,689.303 22.793,987 82.88,986.239 345.718,693.77 
		126.14,985.693 176.056,985.062 354.394,697.287 212.363,984.602 256.392,984.044 363.719,699.758 288.817,983.634 
		329.732,983.118 373.473,701.124 360.37,982.729 400.259,982.224 383.406,701.364 430.814,981.838 471.557,981.322 
		393.291,700.454 503.727,980.915 547.37,980.365 402.864,698.432 583.194,979.909 632.433,979.287 411.898,695.335 674.874,978.75 
		733.855,978.004 420.177,691.245 	"/>
</g>
<g id="top">
	
		<linearGradient id="SVGID_2_" gradientUnits="userSpaceOnUse" x1="466.6445" y1="1142.4082" x2="466.6445" y2="879.8711" gradientTransform="matrix(0.4431 0 0 -0.4431 177.4153 502.426)">
		<stop  offset="0" style="stop-color:#1E8FD9"/>
		<stop  offset="1" style="stop-color:#1E8FD9;stop-opacity:0"/>
	</linearGradient>
	<rect y="-3.749" opacity="0.7" fill="url(#SVGID_2_)" enable-background="new    " width="768.351" height="116.324"/>
</g>
</svg>
