<svg version="1.1" id="Layer_1" xmlns="http://www.w3.org/2000/svg" xmlns:xlink="http://www.w3.org/1999/xlink" viewBox="0 0 768 432" enable-background="new 0 0 768 432" xml:space="preserve"><g id="rainbow"><g id="Layer_2_2_"><defs><rect id="SVGID_1_" y="-535" width="768" height="1026"/></defs><clipPath id="SVGID_2_"><use xlink:href="#SVGID_1_" overflow="visible"/></clipPath><g id="Layer_4_1_" clip-path="url(#SVGID_2_)"><path fill="#0066B2" d="M874.19 200.43c105.53 60.26 194.48 135.41 274.62 210.66C1068.96 335.94 979.82 260.69 874.19 200.43z"/><path fill="none" d="M-321.1 376.25l40.83-25.67C-293.87 359-307.48 367.56-321.1 376.25z"/><path fill="none" d="M1323.49 635.84h0c-52.17-71.75-118.62-137.71-191.68-200.57C1204.87 498.13 1271.33 564.09 1323.49 635.84z"/><path fill="none" d="M167.15 198.01C44.79 230.9-85.09 286.74-211.91 374.71c-29.08 20.19-57.96 41.18-86.84 63.06h0c28.88-21.89 57.76-42.87 86.84-63.06C-85.09 286.74 44.79 230.9 167.15 198.01z"/><path fill="none" d="M30.79 293.62c92.08-41.19 181.26-69.5 264.36-86.67C212.05 224.12 122.86 252.44 30.79 293.62z"/><path fill="none" d="M-320.97 376.17l40.57-25.51C-293.91 359.02-307.44 367.53-320.97 376.17z"/><path fill="none" d="M846.61 228.8c111.32 54.86 204.97 127.71 287.71 201.27 75.15 66.86 143.51 136.01 196.37 210.96h0c-52.86-74.95-121.22-144.1-196.37-210.96C1051.57 356.52 957.93 283.67 846.61 228.8c-118.62-58.46-258.94-100.33-415.03-102.93 -5.56-0.09-11.17-0.15-16.81-0.15 5.64 0.01 11.25 0.06 16.81 0.15C587.67 128.47 727.98 170.34 846.61 228.8z"/><path fill="#0990D3" d="M1339.18 645.54c-54.06-77.55-123.52-151.5-201.07-224.45C1054.67 342.63 962.03 264.38 852 201.52 734.18 134.27 595.97 79.3 439.47 57.52c-172.19-24.09-371.76-8.19-581.63 48.57 -164.99 44.57-335.48 93.44-513.87 137.01l-19.99 163.2 73.45 8.99c34.83-17.93 69.45-35.58 103.88-52.88 0.04-0.02 0.09-0.04 0.13-0.06 116.07-59.66 229.88-114.9 341.7-162.92C56.42 107.88 262.48 79.2 435.57 92.59c156.6 12.29 296.31 60.46 414.73 123.22 110.82 58.76 203.56 134.71 286.01 210.16 77.35 70.95 147.21 144.11 201.07 221.56 0.1 0.1 0.1 0.2 0.2 0.3h0c0 0 0 0 0 0l-3.35-0.42c0.99 1.41 1.98 2.81 2.96 4.23 0.1 0.2 0.3 0.4 0.4 0.6l6.8 0.8C1342.68 650.53 1340.98 648.04 1339.18 645.54z"/><path fill="#BBD367" d="M1337.39 647.53c-53.86-77.45-123.72-150.6-201.07-221.56 -82.45-75.45-175.19-151.4-286.01-210.16 -118.42-62.76-258.14-110.93-414.73-123.22C262.48 79.2 56.42 107.88-156.85 199.42c-111.83 48.02-225.63 103.26-341.7 162.92 -0.04 0.02-0.08 0.04-0.13 0.07 -31.49 16.19-63.15 32.7-94.99 49.48l184.28 22.49c2.53-1.72 5.07-3.42 7.6-5.13l0 0 -3-0.37 83.69-52.63 0.13-0.08c13.54-8.64 27.06-17.15 40.57-25.51l0.13-0.08 100.84-63.41c117.66-67.28 236.11-110.1 348.41-134.61 0.59-0.13 1.18-0.25 1.77-0.38 25.06-5.43 49.82-9.95 74.19-13.63 4.37-0.66 8.72-1.28 13.06-1.88 8.06-1.12 16.08-2.16 24.05-3.1 0.46-0.06 0.91-0.1 1.37-0.15 32.31-3.78 63.85-6.08 94.42-7.08 2.28-0.07 4.55-0.14 6.81-0.2 2.49-0.07 4.98-0.13 7.46-0.17 4.19-0.08 8.36-0.15 12.51-0.18 3.39-0.03 6.78-0.05 10.14-0.04 5.64 0.01 11.25 0.06 16.81 0.15 156.1 2.6 296.41 44.47 415.03 102.94 111.32 54.86 204.97 127.71 287.71 201.27 75.15 66.86 143.51 136.01 196.37 210.96h0l-4.82-0.58c1.55 2.15 3.1 4.31 4.63 6.48l3.74 0.47 3.35 0.42h0C1337.48 647.73 1337.48 647.64 1337.39 647.53z"/><path fill="#F6C063" d="M1134.32 430.07c-82.74-73.56-176.39-146.4-287.71-201.27 -118.62-58.46-258.94-100.33-415.03-102.93 -5.56-0.09-11.17-0.15-16.81-0.15 -3.36 0-6.75 0.02-10.14 0.04 -4.15 0.03-8.32 0.1-12.51 0.18 -2.48 0.05-4.96 0.11-7.46 0.17 -2.27 0.06-4.54 0.13-6.81 0.2 -30.57 1-62.11 3.31-94.42 7.08 -0.46 0.05-0.91 0.1-1.37 0.16 -7.97 0.94-15.99 1.98-24.05 3.1 -4.34 0.6-8.69 1.23-13.06 1.88 -24.37 3.67-49.13 8.2-74.19 13.63 -0.59 0.13-1.18 0.25-1.77 0.38C56.68 177.06-61.77 219.89-179.43 287.17l-100.84 63.41 -0.13 0.08 -40.57 25.51 -0.13 0.08 -83.69 52.63 3 0.37 0 0 100.13 12.22c1.54-1.17 3.08-2.32 4.62-3.48l-1.72-0.21 0 0 0 0c28.88-21.89 57.76-42.87 86.84-63.06C-85.09 286.74 44.79 230.9 167.15 198.01c4.37-1.17 8.73-2.32 13.08-3.44 4.35-1.12 8.69-2.2 13.02-3.26 8.66-2.12 17.27-4.12 25.85-6.02 6.53-1.44 13.03-2.82 19.51-4.14 16.19-3.29 32.19-6.19 48-8.73 47.41-7.6 92.98-11.88 135.98-13.47 7.45-0.28 14.86-0.46 22.23-0.55 4.92-0.06 9.81-0.08 14.7-0.06 7.32 0.03 14.61 0.14 21.86 0.34 132.88 3.7 252.84 36.37 355.74 82.02 1.87 0.83 3.74 1.67 5.6 2.5 10.47 4.72 20.78 9.62 30.95 14.67 98.27 48.86 182.82 112.56 258.17 177.41 73.05 62.86 139.51 128.82 191.68 200.57h0v0l-2.99-0.37c1.17 1.59 2.34 3.17 3.49 4.77l1.87 0.22h0l4.82 0.58C1277.83 566.09 1209.47 496.93 1134.32 430.07z"/><path fill="#D69D3C" d="M1323.49 635.84c-52.17-71.75-118.62-137.71-191.68-200.57 -75.35-64.85-159.9-128.55-258.17-177.4 -10.17-5.05-20.48-9.95-30.94-14.67 -1.86-0.84-3.73-1.67-5.6-2.5 -102.9-45.65-222.86-78.32-355.74-82.02 -7.25-0.2-14.53-0.31-21.86-0.34 -4.88-0.02-9.78 0-14.7 0.07 -7.37 0.09-14.78 0.27-22.23 0.55 -43.01 1.59-88.57 5.88-135.98 13.47 -15.8 2.53-31.81 5.44-48 8.73 -6.47 1.32-12.98 2.7-19.51 4.14 -8.57 1.89-17.19 3.9-25.85 6.02 -4.33 1.06-8.67 2.15-13.02 3.27 -4.35 1.12-8.71 2.26-13.08 3.44C44.79 230.9-85.09 286.74-211.91 374.71c-29.08 20.19-57.96 41.17-86.84 63.06 0 0 0 0 0 0l1.72 0.21h0l68.93 8.38c2.37-1.66 4.74-3.29 7.11-4.93h0l-6.31-0.77c82.32-57.57 164.66-104.21 244.92-141.07 4.4-2.02 8.79-4.01 13.17-5.97 92.08-41.19 181.26-69.5 264.36-86.67 11.87-2.45 23.62-4.68 35.23-6.68 27.1-4.67 53.47-8.13 79.01-10.44 17.72-1.61 35.25-2.67 52.6-3.21 12.39-0.39 24.67-0.52 36.86-0.4s24.26 0.49 36.23 1.1c112.5 5.68 215.28 32.17 303.94 68.57 111.93 45.97 206.67 112.93 290.61 182.58 56.45 46.82 109.53 96.24 154.71 149.47 11.53 13.58 22.55 27.41 32.97 41.51l-5.63-0.7c1.56 2.06 3.1 4.13 4.64 6.2l4.2 0.52h0L1323.49 635.84 1323.49 635.84z"/><path fill="#EA5F72" d="M1129.62 438.47c-83.94-69.65-178.69-136.61-290.61-182.58 -88.65-36.4-191.43-62.89-303.94-68.57 -11.97-0.6-24.04-0.97-36.23-1.1 -12.18-0.12-24.47 0.01-36.86 0.4 -17.35 0.54-34.88 1.6-52.6 3.21 -25.53 2.31-51.91 5.77-79 10.44 -11.61 2-23.36 4.23-35.23 6.68 -83.1 17.17-172.28 45.48-264.36 86.67 -4.38 1.96-8.78 3.95-13.17 5.97 -80.26 36.87-162.6 83.51-244.92 141.07l6.31 0.77h0l55.24 6.73c1.37-0.91 2.74-1.81 4.12-2.72l-3.91-0.48C32.43 313.15 231.7 246.2 394.2 223.11c43.72-6.19 86.58-8.95 128.27-8.81 115.26 0.38 221.59 22.93 312.45 56.69 111.82 41.47 207.66 106.64 291.71 173.99 69.26 55.46 133.51 114.13 183.78 180.29l-3.11-0.37h0c0.94 1.22 1.89 2.44 2.81 3.67l1.56 0.2 5.63 0.7c-10.42-14.1-21.44-27.92-32.97-41.5C1239.15 534.71 1186.07 485.29 1129.62 438.47z"/><path fill="#CB394D" d="M1310.41 625.26c-50.27-66.16-114.53-124.83-183.78-180.29 -84.04-67.35-179.88-132.51-291.71-173.99 -90.86-33.76-197.18-56.31-312.44-56.69 -41.69-0.14-84.55 2.63-128.27 8.82C231.7 246.2 32.43 313.15-165.54 444.97l3.91 0.48 49.95 6.12C58.52 344.93 230.4 285.77 373.61 259.29c171.49-31.68 327.79-13.09 457.4 29.59 111.23 36.67 207.57 98.94 292.51 164.69 66.66 51.67 128.12 107.93 177.78 170.59l5.98 0.72h0L1310.41 625.26z"/></g></g></g></svg>