<svg version="1.1" id="Layer_1" xmlns="http://www.w3.org/2000/svg" xmlns:xlink="http://www.w3.org/1999/xlink" x="0px" y="0px" viewBox="0 0 768 432" enable-background="new 0 0 768 432" xml:space="preserve">
<g id="rainbow">
	<g id="Layer_2_2_">
		<g>
			<g>
				<g>
					<g>
						<defs>
							<rect id="SVGID_1_" x="1" y="-535" width="768" height="1026"/>
						</defs>
						<clipPath id="SVGID_2_">
							<use xlink:href="#SVGID_1_"  overflow="visible"/>
						</clipPath>
						<g id="Layer_4_1_" clip-path="url(#SVGID_2_)">
							<g>
								<path fill="#0066B2" d="M875.186,200.425c105.531,60.261,194.477,135.412,274.621,210.664
									C1069.959,335.938,980.816,260.686,875.186,200.425z"/>
								<g>
									<path fill="none" d="M-320.102,376.252l40.827-25.673C-292.872,358.996-306.479,367.557-320.102,376.252z"/>
									<g>
										<path fill="none" d="M1324.494,635.842h0.002c-52.166-71.753-118.625-137.71-191.678-200.568
											C1205.871,498.133,1272.328,564.089,1324.494,635.842z"/>
										<path fill="none" d="M168.146,198.006C45.792,230.896-84.093,286.74-210.914,374.711
											c-29.081,20.188-57.962,41.175-86.844,63.062h0.002c28.881-21.889,57.762-42.875,86.843-63.062
											C-84.093,286.741,45.792,230.896,168.146,198.006z"/>
										<path fill="none" d="M31.789,293.622c92.077-41.187,181.256-69.503,264.357-86.67
											C213.045,224.119,123.863,252.438,31.789,293.622z"/>
										<path fill="none" d="M-319.972,376.171l40.572-25.513C-292.912,359.021-306.436,367.53-319.972,376.171z"/>
										<path fill="none" d="M847.607,228.804c111.322,54.864,204.965,127.713,287.709,201.271
											c75.15,66.858,143.51,136.012,196.373,210.963h0.002c-52.861-74.951-121.225-144.104-196.373-210.963
											C1052.574,356.518,958.934,283.668,847.607,228.804c-118.623-58.462-258.936-100.331-415.031-102.935
											c-5.564-0.094-11.17-0.146-16.812-0.15c5.643,0.006,11.246,0.058,16.812,0.15
											C588.67,128.473,728.982,170.342,847.607,228.804z"/>
										<path fill="#0990D3" d="M1340.184,645.536c-54.064-77.549-123.52-151.502-201.068-224.454
											C1055.67,342.633,963.033,264.383,853,201.523C735.182,134.267,596.967,79.302,440.469,57.516
											c-172.191-24.088-371.762-8.193-581.626,48.569c-164.992,44.57-335.482,93.439-513.867,137.012l-19.987,163.197
											l73.453,8.994c34.831-17.93,69.454-35.577,103.883-52.884c0.042-0.021,0.085-0.044,0.127-0.065
											c116.072-59.658,229.876-114.903,341.702-162.921C57.417,107.881,263.48,79.2,436.572,92.592
											c156.596,12.291,296.309,60.461,414.732,123.221c110.824,58.763,203.562,134.713,286.01,210.164
											c77.352,70.953,147.207,144.106,201.07,221.557c0.1,0.104,0.1,0.199,0.201,0.3h-0.004c0,0,0,0.001,0.002,0.002
											l-3.355-0.424c0.986,1.409,1.979,2.813,2.955,4.226c0.102,0.197,0.301,0.396,0.398,0.601l6.797,0.8
											C1343.682,650.534,1341.984,648.035,1340.184,645.536z"/>
										<path fill="#BBD367" d="M1338.387,647.532c-53.863-77.449-123.721-150.604-201.07-221.557
											c-82.447-75.452-175.188-151.401-286.012-210.165c-118.424-62.759-258.137-110.929-414.73-123.22
											C263.48,79.2,57.417,107.881-155.848,199.419c-111.826,48.019-225.63,103.263-341.702,162.921
											c-0.042,0.021-0.085,0.044-0.127,0.065c-31.494,16.188-63.153,32.696-94.988,49.479l184.281,22.486
											c2.534-1.719,5.065-3.418,7.597-5.126l0,0l-3.001-0.367l83.688-52.626l0.128-0.08
											c13.537-8.641,27.061-17.147,40.572-25.513l0.126-0.08l100.843-63.413c117.663-67.276,236.105-110.104,348.413-134.614
											c0.592-0.129,1.181-0.252,1.773-0.38c25.064-5.431,49.821-9.955,74.192-13.629c4.366-0.658,8.717-1.28,13.059-1.884
											c8.06-1.123,16.079-2.163,24.048-3.104c0.457-0.056,0.912-0.104,1.369-0.155c32.312-3.777,63.848-6.081,94.419-7.084
											c2.278-0.074,4.548-0.141,6.814-0.2c2.493-0.066,4.978-0.126,7.456-0.174c4.188-0.084,8.359-0.146,12.51-0.181
											c3.393-0.027,6.775-0.046,10.141-0.042c5.643,0.006,11.246,0.058,16.812,0.15
											c156.096,2.604,296.408,44.473,415.031,102.935c111.324,54.864,204.967,127.714,287.711,201.271
											c75.148,66.857,143.512,136.012,196.373,210.963h-0.002l-4.824-0.576c1.553,2.155,3.098,4.312,4.625,6.476l3.74,0.474
											l3.354,0.424h0.004C1338.484,647.732,1338.484,647.636,1338.387,647.532z"/>
										<path fill="#F6C063" d="M1135.316,430.073c-82.744-73.558-176.387-146.405-287.709-201.271
											c-118.625-58.461-258.938-100.33-415.031-102.934c-5.564-0.094-11.17-0.146-16.812-0.15
											c-3.365-0.004-6.748,0.015-10.141,0.042c-4.148,0.034-8.32,0.097-12.51,0.181c-2.479,0.048-4.963,0.106-7.456,0.174
											c-2.267,0.061-4.536,0.126-6.814,0.2c-30.571,1.003-62.106,3.307-94.419,7.084c-0.457,0.052-0.912,0.101-1.369,0.155
											c-7.969,0.94-15.988,1.98-24.048,3.104c-4.341,0.604-8.692,1.226-13.059,1.884c-24.371,3.674-49.128,8.198-74.192,13.629
											c-0.593,0.128-1.182,0.251-1.773,0.38C57.676,177.061-60.766,219.889-178.43,287.165l-100.843,63.413l-0.126,0.08
											l-40.572,25.513l-0.128,0.08l-83.688,52.626l3.001,0.367l0,0l100.132,12.224c1.54-1.167,3.079-2.319,4.62-3.48
											l-1.721-0.212l0,0l-0.001-0.001c28.881-21.889,57.763-42.875,86.844-63.062
											C-84.093,286.74,45.792,230.896,168.146,198.006c4.367-1.175,8.729-2.32,13.078-3.437c4.352-1.118,8.69-2.204,13.02-3.265
											c8.658-2.119,17.275-4.125,25.846-6.018c6.53-1.443,13.033-2.823,19.508-4.141c16.187-3.29,32.193-6.191,47.998-8.726
											c47.41-7.596,92.977-11.878,135.982-13.472c7.449-0.276,14.859-0.459,22.234-0.551c4.916-0.062,9.814-0.084,14.697-0.065
											c7.324,0.026,14.611,0.141,21.857,0.342c132.881,3.699,252.836,36.366,355.74,82.018c1.869,0.832,3.736,1.666,5.596,2.504
											c10.465,4.721,20.779,9.617,30.945,14.67c98.273,48.858,182.816,112.556,258.168,177.405
											c73.053,62.858,139.512,128.815,191.678,200.568h-0.002v0.001l-2.992-0.373c1.17,1.588,2.338,3.174,3.494,4.769
											l1.867,0.223h0.002l4.824,0.576C1278.826,566.085,1210.469,496.933,1135.316,430.073z"/>
										<path fill="#D69D3C" d="M1324.494,635.842c-52.166-71.753-118.623-137.709-191.676-200.568
											c-75.352-64.851-159.895-128.547-258.168-177.405c-10.166-5.053-20.48-9.949-30.945-14.67
											c-1.859-0.838-3.727-1.672-5.596-2.504c-102.904-45.65-222.859-78.317-355.74-82.018
											c-7.246-0.201-14.533-0.314-21.857-0.342c-4.883-0.019-9.781,0.003-14.697,0.065c-7.375,0.092-14.785,0.273-22.234,0.551
											c-43.006,1.594-88.572,5.876-135.982,13.472c-15.805,2.533-31.812,5.436-47.998,8.726
											c-6.475,1.316-12.979,2.696-19.508,4.141c-8.57,1.893-17.188,3.898-25.846,6.018c-4.329,1.061-8.668,2.146-13.02,3.265
											c-4.351,1.116-8.711,2.262-13.078,3.437C45.794,230.9-84.091,286.743-210.912,374.714
											c-29.081,20.188-57.962,41.174-86.843,63.062c0,0,0,0.001-0.001,0.001l1.721,0.212h0.002l68.933,8.384
											c2.372-1.657,4.742-3.293,7.112-4.932h-0.003l-6.314-0.771c82.323-57.568,164.659-104.209,244.922-141.075
											c4.397-2.02,8.788-4.009,13.173-5.972c92.075-41.187,181.256-69.503,264.357-86.67c11.871-2.452,23.62-4.677,35.233-6.678
											c27.101-4.674,53.474-8.133,79.005-10.442c17.717-1.607,35.254-2.667,52.602-3.211
											c12.385-0.389,24.674-0.518,36.857-0.396s24.262,0.489,36.229,1.096c112.504,5.683,215.281,32.167,303.936,68.568
											c111.928,45.972,206.668,112.928,290.613,182.582c56.451,46.818,109.531,96.24,154.709,149.474
											c11.525,13.582,22.549,27.406,32.969,41.505l-5.631-0.704c1.559,2.062,3.104,4.13,4.635,6.203l4.197,0.521h0.002
											L1324.494,635.842L1324.494,635.842z"/>
										<path fill="#EA5F72" d="M1130.621,438.471c-83.945-69.654-178.686-136.61-290.613-182.582
											c-88.654-36.401-191.432-62.887-303.936-68.568c-11.967-0.605-24.045-0.975-36.229-1.096
											c-12.184-0.119-24.473,0.009-36.857,0.396c-17.348,0.544-34.885,1.604-52.602,3.211
											c-25.532,2.311-51.906,5.771-79.005,10.442c-11.613,2.001-23.362,4.226-35.233,6.678
											c-83.103,17.167-172.281,45.484-264.357,86.67c-4.385,1.963-8.776,3.952-13.174,5.972
											c-80.262,36.866-162.598,83.508-244.921,141.075l6.314,0.771h0.002l55.244,6.725c1.372-0.914,2.744-1.811,4.115-2.719
											l-3.911-0.479C33.432,313.155,232.702,246.199,395.197,223.11c43.721-6.188,86.582-8.951,128.271-8.815
											c115.262,0.375,221.588,22.925,312.445,56.686c111.824,41.473,207.662,106.635,291.707,173.986
											c69.256,55.464,133.514,114.126,183.783,180.29l-3.113-0.375h-0.002c0.939,1.222,1.885,2.439,2.812,3.666l1.562,0.195
											l5.633,0.704c-10.422-14.098-21.441-27.922-32.967-41.504C1240.152,534.711,1187.072,485.289,1130.621,438.471z"/>
										<path fill="#CB394D" d="M1311.406,625.257c-50.271-66.164-114.529-124.826-183.783-180.29
											c-84.045-67.353-179.885-132.515-291.709-173.986c-90.857-33.761-197.184-56.311-312.443-56.686
											c-41.691-0.136-84.553,2.63-128.271,8.815C232.704,246.199,33.434,313.155-164.54,444.967l3.911,0.479l49.954,6.12
											C59.516,344.934,231.404,285.773,374.612,259.29c171.487-31.679,327.79-13.091,457.403,29.586
											c111.23,36.673,207.566,98.936,292.512,164.692c66.656,51.667,128.117,107.931,177.783,170.591l5.98,0.724h0.002
											L1311.406,625.257z"/>
									</g>
								</g>
							</g>
						</g>
					</g>
				</g>
			</g>
		</g>
	</g>
</g>
</svg>
