<svg version="1.1" xmlns="http://www.w3.org/2000/svg" xmlns:xlink="http://www.w3.org/1999/xlink" x="0px" y="0px" viewBox="0 522.168 768 452.832" enable-background="new 0 522.168 768 452.832" xml:space="preserve">
<g id="background">
</g>
<g id="cloud">
</g>
<g id="rainbow">
	<g id="Layer_2_2_">
		<g>
			<g>
				<g>
					<defs>
						<rect id="SVGID_1_" y="9" width="767.504" height="1026.337"/>
					</defs>
					<clipPath id="SVGID_2_">
						<use xlink:href="#SVGID_1_"  overflow="visible"/>
					</clipPath>
					<g id="Layer_4_1_" clip-path="url(#SVGID_2_)">
						<g>
							<path fill="#0066B2" d="M874.186,744.425c105.531,60.261,194.475,135.412,274.621,210.664
								C1068.959,879.937,979.816,804.686,874.186,744.425z"/>
							<g>
								<path fill="none" d="M-321.102,920.252l40.827-25.673C-293.872,902.996-307.479,911.557-321.102,920.252z"/>
								<g>
									<path fill="none" d="M1323.494,1179.842h0.002c-52.167-71.753-118.625-137.71-191.678-200.569
										C1204.871,1042.133,1271.327,1108.089,1323.494,1179.842z"/>
									<path fill="none" d="M167.146,742.006C44.792,774.897-85.093,830.74-211.914,918.711
										c-29.081,20.188-57.962,41.175-86.844,63.062h0.002c28.881-21.888,57.762-42.875,86.843-63.062
										C-85.093,830.741,44.792,774.897,167.146,742.006z"/>
									<path fill="none" d="M30.789,837.622c92.077-41.186,181.256-69.503,264.358-86.67
										C212.045,768.119,122.864,796.437,30.789,837.622z"/>
									<path fill="none" d="M-320.972,920.171l40.572-25.513C-293.912,903.022-307.436,911.53-320.972,920.171z"/>
									<path fill="none" d="M846.607,772.804c111.323,54.864,204.964,127.713,287.709,201.27
										c75.151,66.859,143.51,136.012,196.373,210.963h0.002c-52.862-74.951-121.224-144.104-196.373-210.963
										C1051.573,900.518,957.933,827.668,846.607,772.804c-118.623-58.462-258.936-100.331-415.032-102.935
										c-5.564-0.094-11.169-0.145-16.812-0.15c5.643,0.006,11.247,0.057,16.812,0.15
										C587.67,672.473,727.982,714.342,846.607,772.804z"/>
									<path fill="#0990D3" d="M1339.184,1189.536c-54.065-77.549-123.52-151.502-201.069-224.454
										c-83.445-78.449-176.082-156.699-286.115-219.559c-117.818-67.256-256.034-122.221-412.532-144.007
										c-172.19-24.088-371.761-8.194-581.625,48.569c-164.993,44.57-335.483,93.439-513.868,137.012l-19.987,163.197
										l73.453,8.994c34.831-17.93,69.454-35.577,103.883-52.884c0.042-0.021,0.085-0.044,0.127-0.065
										c116.072-59.658,229.876-114.903,341.702-162.921C56.417,651.881,262.481,623.2,435.572,636.592
										c156.595,12.291,296.309,60.461,414.732,123.22c110.824,58.763,203.563,134.713,286.011,210.165
										c77.35,70.953,147.207,144.106,201.07,221.556c0.099,0.104,0.099,0.2,0.201,0.3h-0.004c0,0,0,0.001,0.002,0.002
										l-3.356-0.424c0.987,1.409,1.979,2.814,2.955,4.226c0.101,0.197,0.301,0.396,0.399,0.6l6.796,0.8
										C1342.682,1194.534,1340.983,1192.035,1339.184,1189.536z"/>
									<path fill="#BBD367" d="M1337.386,1191.532c-53.863-77.449-123.721-150.603-201.07-221.556
										c-82.447-75.452-175.187-151.402-286.011-210.165c-118.424-62.759-258.138-110.929-414.732-123.22
										C262.481,623.2,56.417,651.881-156.848,743.419c-111.826,48.018-225.63,103.263-341.702,162.921
										c-0.042,0.021-0.085,0.044-0.127,0.065c-31.494,16.188-63.153,32.697-94.988,49.479l184.281,22.486
										c2.534-1.719,5.065-3.418,7.597-5.126h0l-3.001-0.367l83.688-52.626l0.128-0.08c13.537-8.641,27.061-17.148,40.572-25.513
										l0.126-0.08l100.843-63.413c117.664-67.276,236.106-110.104,348.413-134.614c0.592-0.129,1.181-0.252,1.774-0.38
										c25.064-5.431,49.821-9.955,74.192-13.629c4.367-0.658,8.717-1.28,13.059-1.884c8.059-1.123,16.079-2.163,24.048-3.104
										c0.457-0.056,0.912-0.104,1.369-0.156c32.312-3.777,63.847-6.081,94.419-7.084c2.278-0.074,4.548-0.14,6.814-0.2
										c2.492-0.066,4.977-0.126,7.456-0.174c4.188-0.084,8.36-0.146,12.509-0.18c3.394-0.028,6.775-0.046,10.141-0.042
										c5.643,0.006,11.247,0.057,16.812,0.15c156.097,2.604,296.409,44.473,415.032,102.935
										c111.325,54.864,204.966,127.714,287.711,201.27c75.149,66.858,143.511,136.012,196.373,210.963h-0.002l-4.825-0.576
										c1.554,2.155,3.098,4.312,4.626,6.476l3.74,0.473l3.353,0.424h0.004
										C1337.484,1191.732,1337.484,1191.636,1337.386,1191.532z"/>
									<path fill="#F6C063" d="M1134.316,974.073c-82.745-73.557-176.386-146.405-287.709-201.27
										C727.982,714.342,587.67,672.473,431.575,669.869c-5.564-0.094-11.169-0.145-16.812-0.15
										c-3.365-0.004-6.747,0.014-10.141,0.042c-4.148,0.034-8.32,0.096-12.509,0.18c-2.479,0.048-4.964,0.107-7.456,0.174
										c-2.266,0.061-4.536,0.126-6.814,0.2c-30.572,1.003-62.107,3.307-94.419,7.084c-0.457,0.052-0.912,0.101-1.369,0.156
										c-7.969,0.94-15.989,1.98-24.048,3.104c-4.341,0.604-8.692,1.226-13.059,1.884c-24.371,3.674-49.128,8.198-74.192,13.629
										c-0.593,0.128-1.182,0.251-1.774,0.38C56.676,721.061-61.766,763.889-179.43,831.165l-100.843,63.413l-0.126,0.08
										l-40.572,25.513l-0.128,0.08l-83.688,52.626l3.001,0.367h0l100.131,12.224c1.54-1.167,3.08-2.32,4.621-3.481l-1.721-0.212
										c0,0,0,0,0,0l-0.001-0.001c28.881-21.888,57.763-42.875,86.844-63.062C-85.093,830.74,44.792,774.897,167.146,742.006
										c4.368-1.175,8.729-2.32,13.079-3.437c4.351-1.118,8.69-2.204,13.019-3.264c8.658-2.119,17.276-4.125,25.846-6.018
										c6.53-1.443,13.033-2.823,19.507-4.141c16.187-3.29,32.194-6.191,47.998-8.725c47.411-7.596,92.977-11.878,135.983-13.472
										c7.448-0.276,14.859-0.459,22.234-0.551c4.916-0.062,9.814-0.084,14.698-0.065c7.323,0.026,14.61,0.141,21.856,0.342
										c132.882,3.699,252.836,36.366,355.741,82.017c1.87,0.832,3.736,1.666,5.596,2.504c10.464,4.721,20.778,9.617,30.945,14.67
										c98.273,48.859,182.816,112.556,258.168,177.405c73.053,62.859,139.511,128.816,191.678,200.569h-0.002v0.001l-2.992-0.373
										c1.17,1.588,2.338,3.174,3.494,4.768l1.866,0.223h0.002l4.825,0.576C1277.826,1110.085,1209.468,1040.933,1134.316,974.073
										z"/>
									<path fill="#D69D3C" d="M1323.494,1179.842c-52.167-71.753-118.623-137.709-191.676-200.569
										c-75.352-64.85-159.895-128.546-258.168-177.405c-10.167-5.053-20.481-9.949-30.945-14.67
										c-1.859-0.838-3.726-1.672-5.596-2.504c-102.905-45.65-222.859-78.317-355.741-82.017
										c-7.246-0.201-14.533-0.315-21.856-0.342c-4.884-0.019-9.782,0.003-14.698,0.065c-7.375,0.092-14.786,0.274-22.234,0.551
										c-43.006,1.594-88.572,5.876-135.983,13.472c-15.804,2.533-31.812,5.435-47.998,8.725
										c-6.474,1.317-12.978,2.697-19.507,4.141c-8.57,1.893-17.188,3.898-25.846,6.018c-4.329,1.06-8.668,2.146-13.019,3.264
										c-4.351,1.116-8.711,2.262-13.079,3.437c-122.354,32.892-252.239,88.735-379.06,176.706
										c-29.081,20.187-57.962,41.174-86.843,63.062c0,0,0,0.001-0.001,0.001l1.721,0.212h0.002l68.932,8.384
										c2.372-1.657,4.742-3.293,7.112-4.931h-0.002l-6.315-0.771c82.324-57.568,164.659-104.209,244.922-141.075
										c4.397-2.02,8.789-4.009,13.173-5.972c92.075-41.186,181.256-69.503,264.358-86.67c11.871-2.452,23.62-4.677,35.233-6.678
										c27.1-4.673,53.474-8.132,79.005-10.442c17.717-1.607,35.254-2.667,52.6-3.211c12.386-0.389,24.675-0.517,36.858-0.396
										c12.183,0.121,24.262,0.489,36.229,1.095c112.504,5.683,215.281,32.167,303.935,68.569
										c111.929,45.971,206.668,112.927,290.613,182.582c56.452,46.818,109.532,96.24,154.71,149.473
										c11.526,13.582,22.548,27.407,32.969,41.505l-5.632-0.704c1.56,2.062,3.104,4.13,4.635,6.203l4.198,0.522h0.002
										L1323.494,1179.842L1323.494,1179.842z"/>
									<path fill="#EA5F72" d="M1129.62,982.471c-83.945-69.655-178.685-136.611-290.613-182.582
										c-88.653-36.402-191.431-62.887-303.935-68.569c-11.967-0.605-24.046-0.974-36.229-1.095
										c-12.184-0.12-24.473,0.008-36.858,0.396c-17.346,0.544-34.883,1.604-52.6,3.211c-25.532,2.311-51.906,5.77-79.005,10.442
										c-11.613,2.001-23.362,4.226-35.233,6.678c-83.103,17.167-172.281,45.484-264.358,86.67
										c-4.385,1.963-8.776,3.952-13.173,5.972c-80.263,36.866-162.598,83.507-244.922,141.075l6.315,0.771h0.002l55.244,6.725
										c1.372-0.914,2.744-1.811,4.115-2.719l-3.911-0.479C32.431,857.155,231.702,790.199,394.196,767.11
										c43.722-6.187,86.582-8.951,128.273-8.815c115.261,0.375,221.587,22.925,312.444,56.685
										c111.824,41.473,207.663,106.635,291.708,173.987c69.255,55.464,133.513,114.126,183.783,180.29l-3.113-0.375h-0.002
										c0.939,1.222,1.884,2.439,2.812,3.666l1.563,0.195l5.632,0.704c-10.421-14.097-21.44-27.922-32.967-41.504
										C1239.152,1078.711,1186.072,1029.289,1129.62,982.471z"/>
									<path fill="#CB394D" d="M1310.405,1169.257c-50.271-66.164-114.528-124.826-183.783-180.29
										c-84.045-67.353-179.884-132.515-291.708-173.987c-90.857-33.76-197.184-56.31-312.444-56.685
										c-41.691-0.136-84.552,2.63-128.271,8.815C231.704,790.199,32.433,857.155-165.54,988.967l3.911,0.479l49.954,6.12
										c170.19-106.632,342.079-165.793,485.287-192.276c171.488-31.679,327.789-13.091,457.404,29.586
										c111.23,36.673,207.565,98.936,292.51,164.692c66.658,51.667,128.118,107.931,177.785,170.591l5.979,0.724h0.002
										L1310.405,1169.257z"/>
								</g>
							</g>
						</g>
					</g>
				</g>
			</g>
		</g>
	</g>
</g>
</svg>
