<?xml version="1.0" encoding="utf-8"?>
<!-- Generator: Adobe Illustrator 16.0.0, SVG Export Plug-In . SVG Version: 6.00 Build 0)  -->
<!DOCTYPE svg PUBLIC "-//W3C//DTD SVG 1.1//EN" "http://www.w3.org/Graphics/SVG/1.1/DTD/svg11.dtd">
<svg version="1.1" xmlns="http://www.w3.org/2000/svg" xmlns:xlink="http://www.w3.org/1999/xlink" x="0px" y="0px" width="308px"
	 height="70px" viewBox="0 0 308 70" enable-background="new 0 0 308 70" xml:space="preserve">
<g id="border_1_">
</g>
<g id="Layer_1">
	<linearGradient id="SVGID_1_" gradientUnits="userSpaceOnUse" x1="155.4355" y1="14" x2="155.4355" y2="55.5005">
		<stop  offset="0" style="stop-color:#65BCAB"/>
		<stop  offset="0.1745" style="stop-color:#52AC9B"/>
		<stop  offset="0.3658" style="stop-color:#45A18F"/>
		<stop  offset="0.5367" style="stop-color:#409D8B"/>
		<stop  offset="0.6855" style="stop-color:#44A18F"/>
		<stop  offset="0.8461" style="stop-color:#51AC9A"/>
		<stop  offset="1" style="stop-color:#65BCAB"/>
	</linearGradient>
	<path fill="url(#SVGID_1_)" stroke="#1E8FD9" stroke-width="1.9132" stroke-miterlimit="10" d="M285.5,50.5c0,2.762-2.2,5-4.915,5
		H30.286c-2.714,0-4.915-2.238-4.915-5V19c0-2.761,2.201-5,4.915-5h250.299c2.715,0,4.915,2.239,4.915,5V50.5z"/>
	<g id="Layer_1_1_">
	</g>
	<g id="Layer_6">
	</g>
	<g id="Layer_7">
	</g>
	<g id="border" display="none">
		<path display="inline" fill="#65BCAB" d="M307.5,98.109c0,6.565-5.355,11.891-11.961,11.891H13.461
			C6.855,110,1.5,104.676,1.5,98.109V12.891C1.5,6.324,6.855,1,13.461,1h282.078c6.604,0,11.961,5.324,11.961,11.891V98.109z"/>
	</g>
	<circle fill="#0990D3" cx="285.167" cy="52.534" r="12.876"/>
	<path fill="#FFFFFF" d="M289.282,43.886c-2.585,0-4.681,2.097-4.681,4.681c0,0.888,0.251,1.714,0.679,2.42l-7.983,7.304
		l2.264,2.675l4.114-4.014l-0.72-1.027l3.911-3.352c0.706,0.426,1.531,0.675,2.416,0.675c2.586,0,4.682-2.095,4.682-4.681
		C293.964,45.982,291.868,43.886,289.282,43.886z M289.282,51.348c-1.534,0-2.779-1.245-2.779-2.781
		c0-1.535,1.245-2.778,2.779-2.778c1.536,0,2.779,1.243,2.779,2.778C292.062,50.103,290.818,51.348,289.282,51.348z"/>
</g>
</svg>
