<svg version="1.1" xmlns="http://www.w3.org/2000/svg" xmlns:xlink="http://www.w3.org/1999/xlink" x="0px" y="0px" viewBox="0 13.5 768 975" enable-background="new 0 13.5 768 975" xml:space="preserve">
<refs><style>
	#star path {
	-webkit-animation: fadein 4s 5s 3;
	-moz-animation: fadein 4s 5s 3;
	}

	#stars {
	-webkit-animation: fadein 2s;
	-moz-animation: fadein 2s;
	}
		
	@-moz-keyframes fill {from {fill: #dde5ce;}to {fill: #0990d3;}}

	@-webkit-keyframes fill {from {fill: #dde5ce;}to {fill: #0990d3;}}	
	}
	
</style></refs>
<g id="background">
	<linearGradient id="SVGID_1_" gradientUnits="userSpaceOnUse" x1="384.0005" y1="988.5" x2="384.0005" y2="13.5005">
		<stop  offset="0" style="stop-color:#65BCAB"/>
		<stop  offset="1" style="stop-color:#409D8B"/>
	</linearGradient>
	<rect x="-0.222" y="13.5" fill="url(#SVGID_1_)" width="768.443" height="975"/>
</g>
<g id="stars">
	<g id="Layer_1_4_" opacity="0.6">
		<g id="Layer_1_5_">
			<g id="Layer_5_1_">
				<g>
					<path fill="#87CCBE" d="M748.8,164.7c0.793,4.218-0.874,6.051-5,5.5c4.093-0.485,5.76,1.348,5,5.5
						c-0.842-4.269,0.824-6.102,5-5.5C749.607,170.736,747.94,168.903,748.8,164.7C748.6,169.9,748.8,169.9,748.8,164.7z"/>
					<path fill="#87CCBE" d="M753.5,140.9c0.793,4.218-0.873,6.052-5,5.5c4.093-0.485,5.759,1.349,5,5.5
						c-0.843-4.269,0.824-6.102,5-5.5C754.308,146.936,752.641,145.103,753.5,140.9C753.3,146.1,753.5,146.1,753.5,140.9z"/>
					<path fill="#87CCBE" d="M709.8,101.7c-1.618-8.353,1.683-11.987,9.9-10.9c-8.285,1.023-11.585-2.61-9.9-10.9
						c1.487,8.235-1.812,11.869-9.897,10.9C708.005,89.798,711.304,93.432,709.8,101.7C709.902,91.2,709.5,91.5,709.8,101.7z"/>
					<path fill="#87CCBE" d="M728,209.1c1.421,8.201-1.879,11.834-9.9,10.9c15.44,0.634,4.301,0.849,19.806,0
						C729.618,221.024,726.316,217.391,728,209.1C727.5,219.3,728,219.3,728,209.1z"/>
					<path opacity="0.3" fill="#BAE2D8" d="M42.1,267.5c0.493-32.547,4.644-39.436,37.3-41c-32.428-2.055-37.215-8.525-37.3-40.9
						c-1.237,31.504-5.039,39.617-37.3,40.9C37.037,227.786,40.865,236.041,42.1,267.5C42.7,227.9,40.6,229.3,42.1,267.5z"/>
					<path fill="#87CCBE" d="M582.5,240.5C582.5,240.5,582.5,245.867,582.5,240.5C582.5,240.5,582.5,241.1,582.5,240.5z"/>
					<path fill="#87CCBE" d="M744.3,30.569c-5.453,0.62-7.619-1.813-6.5-7.3c1.005,5.451-1.161,7.885-6.5,7.3
						c5.388-0.635,7.555,1.798,6.5,7.3C736.662,32.249,738.828,29.816,744.3,30.569C738,30.168,738.1,30.769,744.3,30.569z"/>
					<path fill="#87CCBE" d="M498.2,133.3c-0.688,17.616-2.108,21.143-20,21.9c17.802,0.663,19.227,4.356,20,21.8
						c0.166-17.571,2.279-20.961,19.8-21.8C500.497,154.112,498.2,150.755,498.2,133.3C497.399,153.8,498.2,153.7,498.2,133.3z"/>
					<path fill="#B3E2D6" d="M641.3,120.9c-0.686,17.391-2.042,21.135-19.8,21.8c17.724,0.667,19.116,4.561,19.8,21.9
						c0.166-17.624,2.26-20.967,19.8-21.9C643.62,141.613,641.3,138.371,641.3,120.9C640.5,141.2,641.3,141.3,641.3,120.9z"/>
					<path fill="#87CCBE" d="M740.5,84.9c-0.686,17.391-2.042,21.135-19.8,21.8c17.724,0.667,19.116,4.561,19.8,21.9
						c0.166-17.624,2.26-20.967,19.8-21.9C742.847,105.615,740.5,102.321,740.5,84.9C739.7,105.2,740.5,105.2,740.5,84.9z"/>
					<path fill="#A4D8CB" d="M560.6,84.5c0.412-25.552,3.622-30.808,29.2-32.1c-25.409-1.61-29.03-6.542-29.2-31.9
						c-0.908,24.621-3.757,30.979-29,31.9C556.836,53.417,559.694,59.877,560.6,84.5C561.1,53.5,559.5,54.6,560.6,84.5z"/>
					<path fill="#87CCBE" d="M474.3,61.1c-16.298-1.032-25.288-1.451-25.899-19.6c-0.72,17.713-9.735,18.992-26,19.6
						c22.705,0.931,25.066,6.399,25.897,28.6C448.715,66.768,451.36,62.219,474.3,61.1C452.2,59.7,449.7,62.3,474.3,61.1z"/>
					<path fill="#87CCBE" d="M637.899,204.2c1.091,6.367-1.476,9.2-7.699,8.5c6.224-0.701,8.79,2.133,7.699,8.5
						c-1.271-6.469,1.264-9.303,7.601-8.5C639.132,213.421,636.598,210.588,637.899,204.2C637.5,212.1,637.899,212.1,637.899,204.2z
						"/>
					<path fill="#87CCBE" d="M650.3,185c1.091,6.368-1.476,9.201-7.7,8.5c6.225-0.701,8.791,2.132,7.7,8.5
						c-1.269-6.469,1.266-9.303,7.603-8.5C651.533,194.222,648.999,191.389,650.3,185C649.902,192.9,650.3,192.9,650.3,185z"/>
					<path fill="#87CCBE" d="M593.8,124c-8.284,1.022-11.583-2.611-9.897-10.9c1.453,8.218-1.847,11.851-9.899,10.9
						c8.086-0.969,11.386,2.665,9.899,10.9C582.232,126.496,585.531,122.863,593.8,124C584.1,123.4,584.3,124.5,593.8,124z"/>
					<path fill="#87CCBE" d="M686.399,108.5c-5.957,0.754-8.324-1.845-7.103-7.8c1.059,5.918-1.308,8.518-7.1,7.8
						c5.805-0.701,8.171,1.899,7.1,7.8C678.143,110.331,680.511,107.73,686.399,108.5C679.399,108.1,679.6,108.9,686.399,108.5z"/>
					<path fill="#87CCBE" d="M527.3,192.7c0.744,4.135-0.922,5.935-5,5.4c4.014-0.5,5.68,1.299,5,5.4
						c-0.811-4.218,0.856-6.019,5-5.4C528.139,198.653,526.472,196.853,527.3,192.7C527.1,197.8,527.3,197.8,527.3,192.7z"/>
					<path fill="#87CCBE" d="M512.2,91.5c0.171-14.307,1.495-16.633,15.699-17.3c-14.219-0.923-15.699-3.075-15.699-17.3
						c-0.519,13.83-1.591,16.732-15.7,17.3C510.501,74.771,511.687,77.729,512.2,91.5C512.399,74.8,511.6,75.4,512.2,91.5z"/>
					<path fill="#87CCBE" d="M595.251,221.4c-1.834-9.621,1.966-13.787,11.4-12.5c-9.433,1.14-13.232-3.027-11.4-12.5
						c1.7,9.387-2.066,13.553-11.3,12.5C593.2,207.814,596.967,211.98,595.251,221.4C595.451,209.3,594.851,209.8,595.251,221.4z"/>
					<path fill="#87CCBE" d="M664.399,73.3c-1.836-9.62,1.963-13.787,11.397-12.5c-9.433,1.14-13.232-3.027-11.397-12.5
						c1.698,9.387-2.069,13.554-11.303,12.5C662.348,59.713,666.115,63.879,664.399,73.3C664.597,61.2,664,61.7,664.399,73.3z"/>
					<path fill="#87CCBE" d="M401.6,91.1c-1.617-8.353,1.683-11.986,9.9-10.9c-8.285,1.022-11.585-2.611-9.9-10.9
						c1.486,8.236-1.813,11.869-9.899,10.9C399.771,79.215,403.071,82.848,401.6,91.1C401.703,80.6,401.2,80.9,401.6,91.1z"/>
					<path fill="#87CCBE" d="M298.2,41.5C298.224,40.999,297.196,58.555,298.2,41.5C298.2,41.5,298.1,43.2,298.2,41.5z"/>
					<path fill="#87CCBE" d="M316,20.5c-0.685,17.391-2.042,21.135-19.8,21.8c17.723,0.667,19.117,4.562,19.8,21.9
						c0.167-17.624,2.26-20.967,19.8-21.9C318.296,41.217,316,37.949,316,20.5C315.2,40.8,316,40.8,316,20.5z"/>
					<path fill="#87CCBE" d="M301.8,158.4c-8.285,1.022-11.584-2.611-9.9-10.9c1.454,8.219-1.846,11.852-9.9,10.9
						c8.086-0.969,11.386,2.664,9.9,10.9C290.281,160.946,293.582,157.313,301.8,158.4C292.1,157.8,292.4,158.9,301.8,158.4z"/>
					<path fill="#87CCBE" d="M68.8,266.5c0.745,4.135-0.922,5.935-5,5.4c4.013-0.5,5.68,1.299,5,5.4c-0.811-4.219,0.855-6.019,5-5.4
						C69.672,272.436,68.006,270.636,68.8,266.5C68.6,271.6,68.8,271.6,68.8,266.5z"/>
					<path fill="#87CCBE" d="M299.2,84.9c0.807,4.084-0.793,5.885-4.8,5.4c4.007-0.484,5.607,1.316,4.8,5.4
						c-0.812-4.219,0.855-6.019,5-5.4C300.106,90.819,298.439,89.019,299.2,84.9C299.1,90,299.3,90,299.2,84.9z"/>
					<path fill="#87CCBE" d="M39.7,135.9c0.859,4.203-0.808,6.036-5,5.5c4.192-0.585,5.859,1.248,5,5.5
						c-0.761-4.201,0.906-6.035,5-5.5C40.606,141.935,38.939,140.102,39.7,135.9C39.7,141.1,39.9,141.1,39.7,135.9z"/>
					<path fill="#87CCBE" d="M705,246.5c1.073,5.522-1.16,7.955-6.7,7.3c5.446-0.819,7.68,1.548,6.7,7.1
						c-0.976-5.418,1.19-7.785,6.5-7.1C706.177,254.4,704.011,251.967,705,246.5C705,253.3,705.3,253.3,705,246.5z"/>
					<path fill="#87CCBE" d="M106.3,267.3c1.125,5.47-1.042,7.836-6.5,7.1c5.504-0.719,7.67,1.715,6.5,7.3
						c-0.878-5.467,1.355-7.9,6.7-7.3C107.652,275.118,105.419,272.751,106.3,267.3C106.3,274,106.7,274,106.3,267.3z"/>
					<path fill="#87CCBE" d="M26.8,18.5c0,17.421-2.347,20.715-19.8,21.8c17.546,0.933,19.551,4.305,19.8,21.9
						c0.72-18.273,1.755-21.221,19.8-21.9C28.842,39.635,27.485,35.892,26.8,18.5C26.8,38.8,27.6,38.8,26.8,18.5z"/>
					<path fill="#87CCBE" d="M109.9,181.9c1.301,6.388-1.232,9.221-7.6,8.5c6.336-0.802,8.87,2.031,7.6,8.5
						c-1.09-6.367,1.477-9.201,7.7-8.5C111.376,191.101,108.81,188.267,109.9,181.9C109.9,189.8,110.3,189.8,109.9,181.9z"/>
					<path fill="#87CCBE" d="M108.1,112.9c-12.775-0.568-13.785-3.15-14.3-15.7c-0.088,12.976-1.465,14.868-14.4,15.7
						c13.002,0.569,14.142,2.641,14.4,15.7C94.314,116.081,95.379,113.47,108.1,112.9C94.6,112.3,94.7,113.5,108.1,112.9z"/>
					<path fill="#87CCBE" d="M73.7,105.2c-1.058-5.918,1.309-8.518,7.1-7.8c-5.774,0.685-8.141-1.915-7.1-7.8
						c1.204,5.903-1.13,8.503-7,7.8C72.505,96.682,74.838,99.282,73.7,105.2C74,97.9,73.6,97.7,73.7,105.2z"/>
					<path fill="#87CCBE" d="M95.8,54.2c-1.716-9.419,2.051-13.586,11.3-12.5c-9.235,1.136-13.002-2.998-11.3-12.4
						c1.799,9.408-2.001,13.575-11.4,12.5C93.837,40.428,97.637,44.562,95.8,54.2C96.2,42.6,95.6,42.1,95.8,54.2z"/>
				</g>
			</g>
		</g>
	</g>
</g>
<g id="star">
	<path fill="#B6DDD3" d="M235.808,82.011c20.676-23.104,21.234-22.222,43.088-5.143c-18.992-18.701-20.459-20.369-4.645-39.083
		l-0.227-0.196c-16.809,17.722-19.115,17.179-39.12,1.172C254.819,57.468,254.554,58.692,235.808,82.011z"/>
</g>
</svg>
