<?xml version="1.0" encoding="utf-8"?>
<!-- Generator: Adobe Illustrator 16.0.0, SVG Export Plug-In . SVG Version: 6.00 Build 0)  -->
<!DOCTYPE svg PUBLIC "-//W3C//DTD SVG 1.1//EN" "http://www.w3.org/Graphics/SVG/1.1/DTD/svg11.dtd">
<svg version="1.1" id="Layer_1" xmlns="http://www.w3.org/2000/svg" xmlns:xlink="http://www.w3.org/1999/xlink" x="0px" y="0px"
	 width="595.279px" height="841.891px" viewBox="0 0 595.279 841.891" enable-background="new 0 0 595.279 841.891"
	 xml:space="preserve">
<g id="background">
	
		<radialGradient id="SVGID_1_" cx="383.7786" cy="339.8008" r="438.9088" gradientTransform="matrix(0.7751 0 0 -0.7751 0.1716 697.8262)" gradientUnits="userSpaceOnUse">
		<stop  offset="0" style="stop-color:#409D8B"/>
		<stop  offset="0.8977" style="stop-color:#65BCAB"/>
	</radialGradient>
	<rect x="-0.172" y="56.582" fill="url(#SVGID_1_)" width="595.623" height="755.727"/>
</g>
<g id="stars">
	<g id="Layer_1_4_" opacity="0.6">
		<g id="Layer_1_5_">
			<g id="Layer_5_1_">
				<g>
					<path fill="#87CCBE" d="M580.398,173.777c0.615,3.27-0.677,4.69-3.875,4.263c3.172-0.376,4.465,1.045,3.875,4.263
						c-0.652-3.309,0.639-4.73,3.876-4.263C581.024,178.456,579.732,177.035,580.398,173.777
						C580.243,177.808,580.398,177.808,580.398,173.777z"/>
					<path fill="#87CCBE" d="M584.041,155.33c0.614,3.269-0.677,4.691-3.876,4.263c3.173-0.376,4.464,1.046,3.876,4.263
						c-0.653-3.309,0.639-4.729,3.875-4.263C584.667,160.008,583.375,158.588,584.041,155.33
						C583.886,159.36,584.041,159.36,584.041,155.33z"/>
					<path fill="#87CCBE" d="M550.169,124.946c-1.254-6.475,1.305-9.291,7.673-8.449c-6.421,0.793-8.979-2.023-7.673-8.449
						c1.152,6.383-1.404,9.2-7.672,8.449C548.778,115.721,551.334,118.537,550.169,124.946
						C550.248,116.807,549.937,117.04,550.169,124.946z"/>
					<path fill="#87CCBE" d="M564.276,208.192c1.102,6.357-1.456,9.173-7.674,8.449c11.968,0.491,3.334,0.658,15.353,0
						C565.53,217.435,562.971,214.618,564.276,208.192C563.888,216.098,564.276,216.098,564.276,208.192z"/>
					<path opacity="0.3" fill="#BAE2D8" enable-background="new    " d="M32.632,253.458c0.382-25.227,3.6-30.567,28.911-31.779
						c-25.135-1.593-28.846-6.607-28.911-31.702c-0.959,24.419-3.906,30.708-28.911,31.702
						C28.707,222.676,31.675,229.074,32.632,253.458C33.097,222.764,31.469,223.849,32.632,253.458z"/>
					<path fill="#87CCBE" d="M451.498,232.53C451.498,232.53,451.498,236.69,451.498,232.53
						C451.498,232.53,451.498,232.995,451.498,232.53z"/>
					<path fill="#87CCBE" d="M576.91,69.812c-4.227,0.48-5.906-1.405-5.038-5.659c0.778,4.226-0.9,6.112-5.039,5.659
						c4.177-0.492,5.856,1.394,5.039,5.658C570.99,71.114,572.668,69.228,576.91,69.812
						C572.027,69.501,572.105,69.967,576.91,69.812z"/>
					<path fill="#87CCBE" d="M386.156,149.439c-0.533,13.654-1.634,16.388-15.502,16.975c13.799,0.514,14.903,3.376,15.502,16.897
						c0.129-13.619,1.767-16.247,15.348-16.897C387.938,165.57,386.156,162.969,386.156,149.439
						C385.536,165.329,386.156,165.251,386.156,149.439z"/>
					<path fill="#B3E2D6" d="M497.074,139.828c-0.532,13.48-1.583,16.382-15.348,16.897c13.738,0.517,14.817,3.535,15.348,16.975
						c0.129-13.66,1.752-16.251,15.347-16.975C498.872,155.883,497.074,153.37,497.074,139.828
						C496.454,155.562,497.074,155.64,497.074,139.828z"/>
					<path fill="#87CCBE" d="M573.965,111.924c-0.532,13.48-1.583,16.382-15.348,16.897c13.738,0.517,14.817,3.535,15.348,16.975
						c0.128-13.66,1.751-16.251,15.347-16.975C575.783,127.98,573.965,125.427,573.965,111.924
						C573.345,127.659,573.965,127.659,573.965,111.924z"/>
					<path fill="#A4D8CB" d="M434.524,111.614c0.319-19.806,2.807-23.88,22.633-24.881c-19.694-1.248-22.501-5.071-22.633-24.726
						c-0.704,19.084-2.912,24.012-22.479,24.726C431.606,87.521,433.822,92.529,434.524,111.614
						C434.91,87.586,433.671,88.438,434.524,111.614z"/>
					<path fill="#87CCBE" d="M367.632,93.477c-12.633-0.8-19.602-1.125-20.074-15.192c-0.559,13.729-7.546,14.721-20.153,15.192
						c17.599,0.722,19.429,4.96,20.073,22.168C347.801,97.87,349.851,94.344,367.632,93.477
						C350.502,92.392,348.565,94.407,367.632,93.477z"/>
					<path fill="#87CCBE" d="M494.438,204.394c0.846,4.935-1.144,7.131-5.967,6.588c4.824-0.543,6.812,1.653,5.967,6.588
						c-0.984-5.014,0.98-7.211,5.892-6.588C495.394,211.541,493.43,209.345,494.438,204.394
						C494.129,210.518,494.438,210.518,494.438,204.394z"/>
					<path fill="#87CCBE" d="M504.05,189.512c0.846,4.936-1.144,7.131-5.968,6.588c4.824-0.543,6.813,1.652,5.968,6.588
						c-0.983-5.014,0.981-7.211,5.894-6.588C505.006,196.66,503.042,194.464,504.05,189.512
						C503.741,195.635,504.05,195.635,504.05,189.512z"/>
					<path fill="#87CCBE" d="M460.257,142.23c-6.421,0.792-8.979-2.023-7.672-8.448c1.127,6.37-1.432,9.186-7.672,8.448
						c6.267-0.751,8.825,2.066,7.672,8.449C451.29,144.165,453.848,141.35,460.257,142.23
						C452.739,141.766,452.893,142.618,460.257,142.23z"/>
					<path fill="#87CCBE" d="M532.031,130.216c-4.617,0.584-6.452-1.43-5.505-6.045c0.82,4.587-1.015,6.602-5.504,6.045
						c4.5-0.543,6.334,1.472,5.504,6.046C525.631,131.636,527.467,129.62,532.031,130.216
						C526.605,129.906,526.761,130.526,532.031,130.216z"/>
					<path fill="#87CCBE" d="M408.712,195.48c0.577,3.205-0.715,4.6-3.875,4.186c3.111-0.388,4.402,1.007,3.875,4.186
						c-0.628-3.27,0.664-4.666,3.876-4.186C409.363,200.095,408.071,198.699,408.712,195.48
						C408.557,199.434,408.712,199.434,408.712,195.48z"/>
					<path fill="#87CCBE" d="M397.008,117.04c0.133-11.089,1.159-12.892,12.169-13.409c-11.021-0.715-12.169-2.383-12.169-13.409
						c-0.402,10.72-1.233,12.969-12.169,13.409C395.692,104.073,396.611,106.366,397.008,117.04
						C397.162,104.096,396.543,104.561,397.008,117.04z"/>
					<path fill="#87CCBE" d="M461.381,217.726c-1.421-7.457,1.524-10.686,8.837-9.688c-7.312,0.884-10.257-2.346-8.837-9.689
						c1.318,7.276-1.601,10.505-8.758,9.689C459.792,207.195,462.711,210.424,461.381,217.726
						C461.536,208.347,461.072,208.734,461.381,217.726z"/>
					<path fill="#87CCBE" d="M514.979,102.933c-1.424-7.456,1.521-10.686,8.834-9.688c-7.312,0.883-10.257-2.346-8.834-9.689
						c1.315,7.276-1.604,10.506-8.762,9.689C513.389,92.401,516.309,95.63,514.979,102.933
						C515.132,93.554,514.669,93.941,514.979,102.933z"/>
					<path fill="#87CCBE" d="M311.281,116.729c-1.253-6.474,1.305-9.29,7.674-8.448c-6.422,0.792-8.979-2.024-7.674-8.449
						c1.152,6.384-1.405,9.2-7.673,8.449C309.865,107.518,312.422,110.333,311.281,116.729
						C311.362,108.591,310.972,108.824,311.281,116.729z"/>
					<path fill="#87CCBE" d="M231.136,78.285C231.155,77.896,230.358,91.504,231.136,78.285
						C231.136,78.285,231.059,79.602,231.136,78.285z"/>
					<path fill="#87CCBE" d="M244.933,62.007c-0.531,13.48-1.583,16.382-15.347,16.897c13.737,0.517,14.817,3.536,15.347,16.975
						c0.13-13.661,1.752-16.251,15.348-16.975C246.713,78.065,244.933,75.532,244.933,62.007
						C244.313,77.742,244.933,77.742,244.933,62.007z"/>
					<path fill="#87CCBE" d="M233.927,168.894c-6.422,0.792-8.979-2.023-7.674-8.448c1.127,6.371-1.431,9.187-7.674,8.448
						c6.268-0.751,8.825,2.065,7.674,8.449C224.998,170.868,227.557,168.052,233.927,168.894
						C226.408,168.429,226.641,169.282,233.927,168.894z"/>
					<path fill="#87CCBE" d="M53.327,252.683c0.577,3.205-0.715,4.6-3.876,4.186c3.11-0.388,4.403,1.007,3.876,4.186
						c-0.629-3.27,0.662-4.666,3.875-4.186C54.003,257.284,52.712,255.889,53.327,252.683
						C53.172,256.636,53.327,256.636,53.327,252.683z"/>
					<path fill="#87CCBE" d="M231.911,111.924c0.625,3.166-0.615,4.562-3.721,4.186c3.105-0.375,4.346,1.021,3.721,4.186
						c-0.63-3.27,0.663-4.665,3.875-4.186C232.614,116.512,231.322,115.117,231.911,111.924
						C231.834,115.877,231.989,115.877,231.911,111.924z"/>
					<path fill="#87CCBE" d="M30.772,151.454c0.666,3.258-0.626,4.679-3.876,4.263c3.25-0.453,4.542,0.967,3.876,4.263
						c-0.59-3.256,0.702-4.678,3.875-4.263C31.474,156.132,30.182,154.711,30.772,151.454
						C30.772,155.485,30.927,155.485,30.772,151.454z"/>
					<path fill="#87CCBE" d="M546.448,237.181c0.832,4.28-0.899,6.166-5.193,5.659c4.222-0.635,5.953,1.2,5.193,5.503
						c-0.757-4.199,0.923-6.034,5.038-5.503C547.361,243.304,545.682,241.418,546.448,237.181
						C546.448,242.452,546.681,242.452,546.448,237.181z"/>
					<path fill="#87CCBE" d="M82.394,253.303c0.872,4.24-0.808,6.074-5.038,5.503c4.266-0.557,5.944,1.33,5.038,5.659
						c-0.681-4.238,1.05-6.124,5.193-5.659C83.442,259.363,81.711,257.528,82.394,253.303
						C82.394,258.496,82.703,258.496,82.394,253.303z"/>
					<path fill="#87CCBE" d="M20.773,60.457c0,13.503-1.819,16.057-15.347,16.897c13.6,0.723,15.153,3.337,15.347,16.975
						c0.559-14.164,1.36-16.448,15.347-16.975C22.356,76.839,21.304,73.938,20.773,60.457
						C20.773,76.192,21.393,76.192,20.773,60.457z"/>
					<path fill="#87CCBE" d="M85.184,187.109c1.009,4.951-0.955,7.147-5.891,6.588c4.911-0.622,6.875,1.574,5.891,6.588
						c-0.845-4.936,1.145-7.132,5.969-6.588C86.328,194.241,84.339,192.044,85.184,187.109
						C85.184,193.232,85.494,193.232,85.184,187.109z"/>
					<path fill="#87CCBE" d="M83.788,133.627c-9.901-0.44-10.685-2.441-11.084-12.169c-0.067,10.058-1.135,11.524-11.161,12.169
						c10.078,0.441,10.962,2.047,11.161,12.169C73.103,136.093,73.929,134.069,83.788,133.627
						C73.324,133.162,73.403,134.092,83.788,133.627z"/>
					<path fill="#87CCBE" d="M57.125,127.659c-0.82-4.587,1.015-6.603,5.503-6.046c-4.476,0.531-6.31-1.484-5.503-6.046
						c0.934,4.576-0.876,6.591-5.426,6.046C56.198,121.056,58.007,123.072,57.125,127.659C57.358,122,57.048,121.845,57.125,127.659
						z"/>
					<path fill="#87CCBE" d="M74.255,88.128c-1.33-7.301,1.59-10.531,8.759-9.689c-7.158,0.881-10.078-2.324-8.759-9.611
						c1.395,7.292-1.551,10.522-8.836,9.689C72.734,77.454,75.679,80.658,74.255,88.128C74.565,79.137,74.1,78.75,74.255,88.128z"/>
				</g>
			</g>
		</g>
	</g>
</g>
</svg>
