<svg version="1.1" id="balloon" xmlns="http://www.w3.org/2000/svg" xmlns:xlink="http://www.w3.org/1999/xlink" viewBox="0 0 768 430" enable-background="new 0 0 768 430" xml:space="preserve">
<devs><style type="text/css">
#wolk {-webkit-animation: Float 25s infinite linear forwards;}
@-webkit-keyframes zoomIn {from {opacity: 0;}50% {opacity: 1;}}
@-webkit-keyframes Float {from { transform: translateX(350%) translateZ(0); }to { transform: translateX(-150%) translateZ(0); }}</style></devs>
<g id="wolk" opacity="0.5"><g>
<path fill="#FFFFFF" d="M138.876,57.05c10.432-8.049,21.748-9.668,33.569-3.917c15.546,7.562,21.437,26.488,13.379,41.624
c-1.258,2.362-1.258,2.362,1.266,3.093c19.555,5.67,32.949,23.558,32.961,44.017c0.008,20.56-13.412,38.638-32.918,44.336
c-4.114,1.2-8.316,1.76-12.604,1.758c-43.917-0.006-87.832,0.078-131.749-0.033c-26.068-0.065-48.518-19.673-52.383-45.398
c-3.455-23.009,8.01-45.34,28.771-55.986c1.001-0.513,1.656-0.896,1.583-2.31c-1.253-24.009,8.625-42.618,28.441-55.62
c28.562-18.737,71.328-9.961,88.557,26.315C138.1,55.669,138.254,56.52,138.876,57.05z"/>
</g></g></svg>
