<svg version="1.1" id="balloon" xmlns="http://www.w3.org/2000/svg" xmlns:xlink="http://www.w3.org/1999/xlink" x="0px" y="0px" viewBox="0 0 768 428.593" enable-background="new 0 0 768 428.593" xml:space="preserve"><g id="Layer_3_2_"><g id="bslloon_2_"><path fill="#409D8B" d="M643.5,43c-59.157-13.06-337.861-11.582-503.252-0.14c-22.651,1.489-39.306,17.56-37.206,35.14 c12.703,109.184,23.187,172.876,35.875,282.059c2.109,17.6,18.788,26.241,37.583,19.941c89.742-29.71,174.521-49.56,268-48 l-8.56,46.327L499.5,332c16.708-0.15,101.304,0.244,118.077,0.732c37.923-0.732,38.156-18.102,38.519-29.713 c2.34-72.788,4.373-135.402,6.714-208.183C663.136,60,664.642,49.065,643.5,43z"/></g></g></svg>
