<svg version="1.1" id="cloud" xmlns="http://www.w3.org/2000/svg" xmlns:xlink="http://www.w3.org/1999/xlink" x="0px" y="0px"
	viewBox="0 0 768 430" enable-background="new 0 0 768 430" xml:space="preserve">
<g id="Layer_3_1_">
	<g id="bslloon_1_">
		<path fill="#409D8B" d="M655.49,49C494.348,11,310.187,21.344,141.844,33.05c-23.056,1.523-40.006,17.965-37.87,35.95
			c12.93,111.703,25.861,214.392,38.775,326.092c2.146,18.005,19.123,26.847,38.253,20.401
			c91.345-30.395,175.587-49.104,274.137-58.094l-26.049,41.639l115.651-49.336c17.007-0.154,65.878,1.035,82.952,1.534
			c21.063,0.514,38.503-8.116,38.873-19.995c2.381-74.466,4.784-160.939,7.166-235.398C674.102,83.984,677.009,55.206,655.49,49z"/>
	</g>
</g>
</svg>
