<svg version="1.1" xmlns="http://www.w3.org/2000/svg" x="0" y="0" viewBox="0 0 768 975" enable-background="new 0 0 768 975" xml:space="preserve"><rect fill="#64BBA9" width="768" height="975"/><path fill="none" d="M154.43 215.66c6.24-1.06 12.46-2.06 18.66-3.02C166.88 213.59 160.67 214.6 154.43 215.66z"/><path fill="#0990D3" d="M0 251.63c52.48-15.55 104.09-27.43 154.43-35.97 6.24-1.06 12.46-2.06 18.66-3.02 92.97-14.35 181.35-17.32 262.49-11.04 121.49 9.54 232.82 40.68 331.93 83.47v-18.71c-97.86-46.59-207.52-83.05-328.04-99.83C306.65 147.94 157.55 153.15 0 182.55V251.63z"/><path fill="#BBD367" d="M173.08 212.63c-6.2 0.96-12.42 1.96-18.65 3.02C104.09 224.2 52.48 236.08 0 251.63v59.99c57.26-21.58 113.86-38.03 168.98-50.06 0.59-0.13 1.18-0.25 1.77-0.38 25.06-5.43 49.82-9.95 74.19-13.63 4.37-0.66 8.72-1.28 13.06-1.88 8.06-1.12 16.08-2.16 24.05-3.1 0.46-0.06 0.91-0.1 1.37-0.15 32.31-3.78 63.85-6.08 94.42-7.08 2.28-0.07 4.55-0.14 6.81-0.2 2.49-0.07 4.98-0.13 7.46-0.17 4.19-0.08 8.36-0.15 12.51-0.18 3.39-0.03 6.77-0.05 10.14-0.04 5.65 0.01 11.25 0.06 16.81 0.15 122.68 2.05 235.61 28.35 335.93 67.9v-17.71c-99.11-42.79-210.44-73.93-331.93-83.46C354.44 195.31 266.06 198.28 173.08 212.63z"/><path fill="#F6C063" d="M180.23 303.57c4.35-1.12 8.69-2.2 13.02-3.26 8.66-2.12 17.28-4.12 25.85-6.02 6.53-1.44 13.03-2.82 19.51-4.14 16.19-3.29 32.19-6.19 48-8.73 47.41-7.6 92.98-11.88 135.98-13.47 7.45-0.28 14.86-0.46 22.23-0.55 4.91-0.06 9.81-0.08 14.7-0.06 7.32 0.03 14.61 0.14 21.86 0.34 103.95 2.89 199.98 23.52 286.14 54.21v-19.12c-100.32-39.55-213.25-65.85-335.93-67.9 -5.56-0.09-11.17-0.15-16.81-0.15 -3.36 0-6.75 0.02-10.14 0.04 -4.15 0.03-8.32 0.1-12.51 0.18 -2.48 0.05-4.96 0.11-7.46 0.17 -2.27 0.06-4.54 0.13-6.81 0.2 -30.57 1-62.1 3.31-94.42 7.08 -0.46 0.05-0.91 0.1-1.37 0.16 -7.97 0.94-15.99 1.98-24.05 3.1 -4.34 0.6-8.69 1.23-13.06 1.88 -24.37 3.67-49.13 8.2-74.19 13.63 -0.59 0.13-1.18 0.25-1.77 0.38C113.86 273.58 57.26 290.04 0 311.62v53.87c56.59-24.59 112.61-43.82 167.15-58.48C171.51 305.83 175.88 304.69 180.23 303.57z"/><path fill="#D69D3C" d="M30.79 402.62c92.08-41.19 181.26-69.5 264.36-86.67 11.87-2.45 23.62-4.68 35.23-6.68 27.1-4.67 53.47-8.13 79.01-10.44 17.72-1.61 35.25-2.67 52.6-3.21 12.39-0.39 24.67-0.52 36.85-0.4 12.19 0.12 24.27 0.49 36.23 1.1 83.43 4.21 161.5 19.87 232.43 42.53v-16.96c-86.15-30.69-182.19-51.31-286.14-54.21 -7.25-0.2-14.53-0.31-21.86-0.34 -4.88-0.02-9.78 0-14.69 0.07 -7.37 0.09-14.79 0.27-22.23 0.55 -43.01 1.59-88.57 5.88-135.98 13.47 -15.8 2.53-31.81 5.44-48 8.73 -6.47 1.32-12.98 2.7-19.51 4.14 -8.57 1.89-17.19 3.9-25.85 6.02 -4.33 1.06-8.67 2.15-13.02 3.27 -4.35 1.12-8.71 2.26-13.08 3.44C112.62 321.67 56.59 340.9 0 365.49v51.34c5.88-2.8 11.76-5.55 17.62-8.24C22.01 406.57 26.4 404.59 30.79 402.62z"/><path fill="#EA5F72" d="M767.5 357.94v-19.1c-70.94-22.65-149.01-38.31-232.43-42.52 -11.97-0.6-24.05-0.97-36.23-1.1 -12.18-0.12-24.47 0.01-36.85 0.4 -17.35 0.54-34.89 1.6-52.6 3.21 -25.53 2.31-51.9 5.77-79 10.44 -11.61 2-23.36 4.23-35.23 6.68 -83.1 17.17-172.28 45.48-264.36 86.67 -4.38 1.96-8.78 3.95-13.17 5.97 -5.86 2.69-11.73 5.44-17.62 8.24v41.32c140.99-70.01 277.14-109.41 394.2-126.04 43.72-6.19 86.58-8.95 128.27-8.81l0 0h0C610.3 323.58 692.94 336.75 767.5 357.94z"/><path fill="#CB394D" d="M767.5 357.94c-74.56-21.19-157.2-34.36-245.03-34.65h0c-41.69-0.14-84.55 2.63-128.27 8.82C277.14 348.74 141 388.15 0 458.15v39.06c132.38-67.61 261.75-108.24 373.61-128.93 144.34-26.66 277.93-17.71 393.89 11.24V357.94z"/></svg>