<svg version="1.1" id="Layer_1" xmlns="http://www.w3.org/2000/svg" xmlns:xlink="http://www.w3.org/1999/xlink" x="0" y="0" width="768" height="975" viewBox="0 24.5 768 975" enable-background="new 0 24.5 768 975" xml:space="preserve"><g id="Layer_1_1_"><g id="background_color"><polyline fill="#65BCAB" points="0 999.55 0 24 768 24 768 999.55 "/></g><g id="toolbar" display="none"><polyline display="inline" fill="#409D8B" points="770 1000.5 770 929.26 2 929.26 2 1000.5 "/><rect x="39" y="943.51" display="inline" fill="#DDE5CE" width="86" height="8.55"/><rect x="39" y="959.65" display="inline" fill="#DDE5CE" width="86" height="8.55"/><rect x="38" y="974.85" display="inline" fill="#DDE5CE" width="86" height="8.55"/></g><g id="airplsnr" display="none"><path id="path1962" display="inline" fill="#DDE5CE" d="M396 301.95c-0.1-0.36-3.69-20.75-7.98-45.32 -4.29-24.57-7.92-44.9-8.06-45.18 -0.17-0.32-8.13 3.3-22.24 10.13 -20.61 9.98-22 10.72-22.44 12.02 -0.26 0.76-1.53 6.55-2.83 12.86l-2.36 11.47 -8.92 4.34 -8.92 4.34 -2.98-16.52 -2.98-16.52 -12.19-11.81c-6.71-6.5-12.17-11.9-12.13-12.02 0.03-0.11 3.99-2.11 8.8-4.43l8.74-4.22 12.43 5.49 12.43 5.49 22.21-10.74c17.32-8.38 22.11-10.87 21.77-11.32 -0.24-0.31-15.7-15.48-34.35-33.69l-33.91-33.12 11.2-5.42 11.19-5.42 46.16 28.3 46.16 28.3 30.58-14.77c21.44-10.35 31.23-14.86 32.76-15.08 1.4-0.2 3.23-0.06 5.15 0.41 3.79 0.92 6.2 2.8 7.79 6.09 1.48 3.06 1.61 5.06 0.54 8.15 -1.65 4.78-1.26 4.54-35.65 21.24l-30.99 15.05 -2.57 40.16c-1.42 22.09-2.89 44.99-3.27 50.9l-0.7 10.74 -11.13 5.38C399.04 301.21 396.13 302.43 396 301.95z"/></g></g><g id="Layer_2"><defs><rect id="SVGID_1_" y="24" width="768" height="1027"/></defs><clipPath id="SVGID_2_"><use xlink:href="#SVGID_1_" overflow="visible"/></clipPath><g id="Layer_4" clip-path="url(#SVGID_2_)"><path fill="#0066B2" d="M874.75 759.9c105.6 60.3 194.6 135.5 274.8 210.8C1069.65 895.5 980.45 820.2 874.75 759.9z"/><path fill="none" d="M-321.39 935.89l41.04-25.81C-294.01 918.54-307.69 927.15-321.39 935.89z"/><path fill="#0990D3" d="M1340.05 1205.3c-54.1-77.6-123.6-151.6-201.2-224.6 -83.5-78.5-176.2-156.8-286.3-219.7 -117.9-67.3-256.2-122.3-412.8-144.1 -172.3-24.1-372-8.2-582 48.6 -165.1 44.6-335.7 93.5-514.2 137.1l-20 163.31 73.5 9c34.85-17.94 69.49-35.59 103.93-52.91 116.2-59.72 230.13-115.03 342.07-163.1 213.4-91.6 419.6-120.3 592.8-106.9 156.7 12.3 296.5 60.5 415 123.3 110.9 58.8 203.7 134.8 286.2 210.3 77.4 71 147.3 144.2 201.2 221.7 0.1 0.1 0.1 0.2 0.2 0.3l-3.36-0.42c0.99 1.41 1.98 2.82 2.96 4.23 0.1 0.2 0.3 0.4 0.4 0.6l6.8 0.8C1343.55 1210.3 1341.85 1207.8 1340.05 1205.3z"/><path fill="#BBD367" d="M1338.25 1207.3c-53.9-77.5-123.8-150.7-201.2-221.7 -82.5-75.5-175.3-151.5-286.2-210.3 -118.5-62.8-258.3-111-415-123.3 -173.2-13.4-379.4 15.3-592.8 106.9 -111.95 48.07-225.87 103.38-342.07 163.1 -31.51 16.2-63.18 32.71-95.03 49.5l184.4 22.5c2.54-1.72 5.07-3.42 7.6-5.13l-3-0.37 83.66-52.61c13.69-8.74 27.37-17.35 41.04-25.81l100.8-63.39c215.3-123.1 433.2-164.4 611.4-161.4 156.2 2.6 296.6 44.5 415.3 103 111.4 54.9 205.1 127.8 287.9 201.4 75.2 66.9 143.6 136.1 196.5 211.1l-4.83-0.58c1.56 2.16 3.1 4.32 4.63 6.48l3.75 0.47 3.36 0.42C1338.35 1207.5 1338.35 1207.4 1338.25 1207.3z"/><path fill="#F6C063" d="M1135.05 989.7c-82.8-73.6-176.5-146.5-287.9-201.4 -118.7-58.5-259.1-100.4-415.3-103 -178.2-3-396.1 38.3-611.4 161.4l-100.8 63.39 -41.04 25.81 -83.66 52.61 3 0.37 100.2 12.23c1.54-1.17 3.08-2.32 4.62-3.48l-1.72-0.21c28.9-21.9 57.8-42.9 86.9-63.1C8.95 781 239.25 725.2 422.85 718.4c159-5.9 301.3 30.6 420.4 84.3 111.7 50.4 206.1 120.6 289.3 192.2 73.1 62.9 139.6 128.9 191.8 200.7l-3-0.37c1.17 1.59 2.34 3.18 3.5 4.77l1.87 0.22 4.83 0.58C1278.65 1125.8 1210.25 1056.6 1135.05 989.7z"/><path fill="#D69D3C" d="M1132.55 994.9c-83.2-71.6-177.6-141.8-289.3-192.2 -119.1-53.7-261.4-90.2-420.4-84.3C239.25 725.2 8.95 781-212.05 934.3c-29.1 20.2-58 41.2-86.9 63.1l1.72 0.21 68.98 8.39c2.37-1.66 4.75-3.29 7.12-4.93l-6.32-0.77C-0.65 841.7 226.25 765.9 409.65 749.3c162.1-14.7 309.1 16.5 429.9 66.1 112 46 206.8 113 290.8 182.7 70.9 58.8 136.5 121.7 187.8 191.1l-5.63-0.7c1.56 2.06 3.11 4.13 4.64 6.21l4.2 0.52 3 0.37C1272.15 1123.8 1205.65 1057.8 1132.55 994.9z"/><path fill="#EA5F72" d="M1130.35 998.1C1046.35 928.4 951.55 861.4 839.55 815.4 718.75 765.8 571.75 734.6 409.65 749.3c-183.4 16.6-410.3 92.4-637.1 251l6.32 0.77 55.28 6.73c1.37-0.91 2.75-1.81 4.12-2.72l-3.91-0.48c198.1-131.9 397.5-198.9 560.1-222 164.7-23.3 317.2 1.9 441 47.9 111.9 41.5 207.8 106.7 291.9 174.1 69.3 55.5 133.6 114.2 183.9 180.41l-3.11-0.38c0.94 1.22 1.88 2.44 2.81 3.67l1.57 0.2 5.64 0.7C1266.85 1119.8 1201.25 1056.9 1130.35 998.1z"/><path fill="#CB394D" d="M1127.35 1004.6c-84.1-67.4-180-132.6-291.9-174.1 -123.8-46-276.3-71.2-441-47.9 -162.6 23.1-362 90.1-560.1 222l3.91 0.48 49.99 6.13c170.3-106.7 342.3-165.9 485.6-192.4 171.6-31.7 328-13.1 457.7 29.6 111.3 36.7 207.7 99 292.7 164.8 66.7 51.7 128.2 108 177.9 170.7l5.99 0.72 3.11 0.38C1260.95 1118.8 1196.65 1060.1 1127.35 1004.6z"/></g></g></svg>