<svg xmlns="http://www.w3.org/2000/svg" viewBox="0 0 768 215"><path d="M384.1 13.7c-51.6 0-93.4 41.8-93.4 93.4 0 51.6 41.8 93.4 93.4 93.4s93.4-41.8 93.4-93.4C477.5 55.5 435.7 13.7 384.1 13.7zM411 57.8c7.9 0 14.3 6.4 14.3 14.3s-6.4 14.3-14.3 14.3c-7.9 0-14.3-6.4-14.3-14.3S403.1 57.8 411 57.8zM357.1 57.8c7.9 0 14.3 6.4 14.3 14.3s-6.4 14.3-14.3 14.3c-7.9 0-14.3-6.4-14.3-14.3S349.2 57.8 357.1 57.8zM422.4 154.9c-9.6-11.3-23.4-18.1-38.3-18.1 -14.9 0-28.7 6.8-38.3 18.1 -3.8 4.5-10.3-2-6.5-6.5 11.1-13.1 27.6-20.8 44.8-20.8 17.2 0 33.7 7.7 44.8 20.8C432.7 152.9 426.2 159.5 422.4 154.9z" fill="#DDE5CE"/></svg>