<svg version="1.1" xmlns="http://www.w3.org/2000/svg" x="0" y="0" width="130" height="90" viewBox="0 0 130 90" xml:space="preserve" enable-background="new 0 0 130 90"><style>.s0{clip-rule:evenodd;fill-rule:evenodd;fill:#FFF;stroke-linecap:round;stroke-linejoin:round;stroke-width:0.32;stroke:#000;}.s1{clip-rule:evenodd;fill:none;stroke-linecap:square;stroke-linejoin:round;stroke-width:0.32;stroke:#000;}.s2{clip-rule:evenodd;fill-rule:evenodd;}.s3{clip-rule:evenodd;fill-rule:evenodd;fill:#FFF;}</style><g id="Layer_1"><path d="M101.32 44.81c0.01-0.36 0.02-0.73 0.02-1.09 0-21.01-16.2-38.04-36.18-38.04 -19.98 0-36.18 17.03-36.18 38.04 0 0.34 0 0.68 0.01 1.02 -29.97 6.31-26.27 37.37-7.26 37.9 -1.13-10.3 1.47-21.28 8.4-29.16C34.15 70.58 48.31 85 65.16 85c16.74 0 30.83-14.24 34.96-31.22 6.72 7.86 9.24 18.68 8.12 28.85C127.18 82.11 130.92 51.29 101.32 44.81z" fill="#DDE5CE"/><ellipse cx="55.87" cy="48.52" rx="7.45" ry="10.24" class="s0"/><path d="M57.57 34.15c0 0-1.02 2.39 1.01 5.12" class="s1"/><path d="M59.94 35.89c0 0-1.01 3.07 1.01 5.8" class="s1"/><path d="M49.78 35.55c0 0-1.01 3.07 1.02 5.81" class="s1"/><path d="M55.54 32.46c0 0-2.71 3.42 0.68 6.15" class="s1"/><path d="M52.49 33.81c0 0-2.37 2.75 0.68 5.14" class="s1"/><path d="M62.9 32.46c-1.67-2.15-4.27-3.53-7.19-3.53 -2.92 0-5.52 1.38-7.19 3.53 1.94-1.35 4.45-2.17 7.19-2.17C58.45 30.29 60.95 31.1 62.9 32.46z" class="s2"/><path d="M49.32 49.43c0-2.5 2-4.52 4.47-4.52 2.47 0 4.47 2.02 4.47 4.52 0 2.49-2 4.52-4.46 4.52C51.32 53.95 49.32 51.92 49.32 49.43z" class="s2"/><ellipse cx="55.28" cy="47.32" rx="1.79" ry="1.81" class="s3"/><ellipse cx="51.48" cy="52.11" rx="1.01" ry="1.02" class="s3"/><ellipse cx="77.36" cy="48.52" rx="7.45" ry="10.24" class="s0"/><path d="M79.06 34.15c0 0-1.02 2.39 1.01 5.12" class="s1"/><path d="M81.43 35.89c0 0-1.01 2.39 1.01 5.12" class="s1"/><path d="M71.27 35.55c0 0-1.01 2.39 1.01 5.12" class="s1"/><path d="M77.03 32.46c0 0-2.71 3.42 0.68 6.15" class="s1"/><path d="M73.98 33.81c0 0-2.37 3.07 0.68 5.46" class="s1"/><path d="M84.39 32.46c-1.67-2.15-4.27-3.53-7.19-3.53 -2.92 0-5.52 1.38-7.19 3.53 1.95-1.35 4.45-2.17 7.19-2.17C79.94 30.29 82.45 31.1 84.39 32.46z" class="s2"/><ellipse cx="75.28" cy="49.43" rx="4.47" ry="4.52" class="s2"/><ellipse cx="76.77" cy="47.32" rx="1.79" ry="1.81" class="s3"/><ellipse cx="73.47" cy="52.45" rx="1.01" ry="1.02" class="s3"/></g><g id="cry"><path d="M68.15 73.17c-0.4-0.4-0.79-0.89-1.2-1.42l0 0c-0.8-1.06-1.64-2.3-2.36-3.12l0 0c-0.41-0.49-0.83-0.8-0.94-0.84l0 0c-0.01 0-0.04 0.01-0.07 0.03l0 0c-0.08 0.04-0.22 0.12-0.37 0.24l0 0c-0.31 0.25-0.7 0.65-1.11 1.11l0 0c-0.83 0.93-1.75 2.1-2.71 2.95l0 0c-0.64 0.55-1.3 1.06-2.27 1.05l0 0c-0.07 0-0.13-0.01-0.2-0.02l0 0c-0.71-0.1-1.22-0.61-1.48-1.09l0 0c-0.28-0.48-0.43-1-0.57-1.53l0 0c-0.26-1.04-0.48-2.15-0.82-2.68l0 0c-0.25-0.36-0.35-0.44-0.7-0.47l0 0c0 0-0.01 0-0.04 0l0 0c-0.88-0.03-2.1 0.54-3.13 1.26l0 0c-1.04 0.71-1.89 1.53-2.21 1.84l0 0c-0.09 0.09-0.13 0.13-0.13 0.13l0 0v0c-0.35 0.38-0.94 0.39-1.32 0.04l0 0c-0.37-0.35-0.39-0.94-0.04-1.32l0 0c0.02-0.02 0.89-0.95 2.15-1.89l0 0c1.27-0.93 2.9-1.93 4.69-1.93l0 0c0.03 0 0.07 0 0.12 0l0 0c0.65 0.03 1.24 0.3 1.65 0.69l0 0c0.42 0.39 0.68 0.87 0.87 1.34l0 0c0.38 0.95 0.55 1.98 0.76 2.75l0 0c0.14 0.51 0.32 0.88 0.41 0.97l0 0c0.06 0.05 0.04 0.04 0.05 0.04l0 0c0.01 0 0.01 0 0.01 0l0 0c0.01 0.01 0.25-0.04 0.58-0.29l0 0c0.33-0.24 0.74-0.64 1.16-1.09l0 0c0.85-0.92 1.75-2.08 2.64-2.93l0 0c0.61-0.54 1.18-1.07 2.14-1.07l0 0c0.69 0.06 1.14 0.4 1.57 0.77l0 0c0.43 0.38 0.83 0.86 1.24 1.37l0 0c0.81 1.03 1.62 2.23 2.31 3.09l0 0c0.34 0.44 0.69 0.78 0.88 0.92l0 0c0.02-0.02 0.05-0.05 0.07-0.08l0 0c0.19-0.19 0.44-0.55 0.7-0.99l0 0c0.54-0.87 1.13-2.04 1.79-3.03l0 0c0.45-0.66 0.89-1.27 1.5-1.7l0 0c0.35-0.24 0.79-0.43 1.31-0.41l0 0c0.74 0.05 1.46 0.33 2.26 0.7l0 0c0.8 0.37 1.64 0.84 2.41 1.3l0 0c1.55 0.93 2.83 1.83 2.84 1.84l0 0c0.42 0.3 0.52 0.88 0.23 1.3l0 0c-0.29 0.42-0.88 0.52-1.3 0.23l0 0c0 0-0.69-0.49-1.67-1.11l0 0c-0.97-0.62-2.23-1.37-3.29-1.86l0 0c-0.69-0.33-1.33-0.53-1.57-0.53l0 0 0 0c-0.01 0-0.02 0.01-0.05 0.02l0 0c-0.05 0.02-0.14 0.08-0.25 0.17l0 0c-0.22 0.19-0.5 0.53-0.78 0.95l0 0c-0.57 0.85-1.17 1.99-1.75 2.97l0 0c-0.4 0.65-0.77 1.23-1.27 1.68l0 0c-0.28 0.24-0.68 0.5-1.22 0.48l0 0C68.96 73.93 68.57 73.55 68.15 73.17L68.15 73.17z"/></g></svg>