<svg version="1.1" xmlns="http://www.w3.org/2000/svg" xmlns:xlink="http://www.w3.org/1999/xlink" x="0px" y="0px" width="130px"
	 height="90px" viewBox="0 0 130 90" style="enable-background:new 0 0 130 90;" xml:space="preserve">
<refs><style>
#cry {opacity: 0;-webkit-animation: fadein 1s .5s forwards}
@-webkit-keyframes fadein {0% { opacity: 0;}100% { opacity: 1}}		
</style></refs>	 
<g id="Layer_1">
	<path style="fill:#DDE5CE;" d="M101.322,44.806c0.01-0.364,0.016-0.729,0.016-1.094c0-21.007-16.199-38.036-36.182-38.036
		c-19.983,0-36.181,17.029-36.181,38.036c0,0.341,0.004,0.682,0.013,1.022c-29.974,6.313-26.275,37.37-7.261,37.896
		c-1.132-10.303,1.471-21.281,8.396-29.163C34.15,70.582,48.308,85,65.156,85c16.744,0,30.829-14.242,34.956-31.217
		c6.72,7.857,9.239,18.682,8.121,28.848C127.175,82.105,130.922,51.285,101.322,44.806z"/>
	<g>
		<g>
			<g>
				
					<ellipse style="fill-rule:evenodd;clip-rule:evenodd;fill:#FFFFFF;stroke:#000000;stroke-width:0.3231;stroke-linecap:round;stroke-linejoin:round;" cx="55.874" cy="48.523" rx="7.445" ry="10.241"/>
				
					<path style="fill-rule:evenodd;clip-rule:evenodd;fill:none;stroke:#000000;stroke-width:0.3231;stroke-linecap:square;stroke-linejoin:round;" d="
					M57.568,34.146c0,0-1.018,2.391,1.015,5.121"/>
				
					<path style="fill-rule:evenodd;clip-rule:evenodd;fill:none;stroke:#000000;stroke-width:0.3231;stroke-linecap:square;stroke-linejoin:round;" d="
					M59.936,35.892c0,0-1.014,3.073,1.014,5.802"/>
				
					<path style="fill-rule:evenodd;clip-rule:evenodd;fill:none;stroke:#000000;stroke-width:0.3231;stroke-linecap:square;stroke-linejoin:round;" d="
					M49.782,35.549c0,0-1.015,3.072,1.018,5.806"/>
				
					<path style="fill-rule:evenodd;clip-rule:evenodd;fill:none;stroke:#000000;stroke-width:0.3231;stroke-linecap:square;stroke-linejoin:round;" d="
					M55.536,32.457c0,0-2.708,3.416,0.679,6.148"/>
				
					<path style="fill-rule:evenodd;clip-rule:evenodd;fill:none;stroke:#000000;stroke-width:0.3231;stroke-linecap:square;stroke-linejoin:round;" d="
					M52.489,33.808c0,0-2.367,2.75,0.679,5.137"/>
				<path style="fill-rule:evenodd;clip-rule:evenodd;" d="M62.898,32.457c-1.673-2.151-4.274-3.534-7.192-3.534
					c-2.919,0-5.521,1.383-7.191,3.534c1.942-1.353,4.452-2.167,7.191-2.167C58.447,30.29,60.954,31.104,62.898,32.457z"/>
				<g>
					<path style="fill-rule:evenodd;clip-rule:evenodd;" d="M49.323,49.429c0-2.498,2-4.521,4.468-4.521
						c2.465,0,4.465,2.022,4.465,4.521c0,2.494-2,4.517-4.465,4.517C51.323,53.945,49.323,51.923,49.323,49.429z"/>
					<ellipse style="fill-rule:evenodd;clip-rule:evenodd;fill:#FFFFFF;" cx="55.279" cy="47.318" rx="1.788" ry="1.806"/>
					<ellipse style="fill-rule:evenodd;clip-rule:evenodd;fill:#FFFFFF;" cx="51.475" cy="52.109" rx="1.014" ry="1.023"/>
				</g>
			</g>
			<g>
				
					<ellipse style="fill-rule:evenodd;clip-rule:evenodd;fill:#FFFFFF;stroke:#000000;stroke-width:0.3231;stroke-linecap:round;stroke-linejoin:round;" cx="77.364" cy="48.523" rx="7.445" ry="10.241"/>
				
					<path style="fill-rule:evenodd;clip-rule:evenodd;fill:none;stroke:#000000;stroke-width:0.3231;stroke-linecap:square;stroke-linejoin:round;" d="
					M79.06,34.146c0,0-1.019,2.391,1.014,5.121"/>
				
					<path style="fill-rule:evenodd;clip-rule:evenodd;fill:none;stroke:#000000;stroke-width:0.3231;stroke-linecap:square;stroke-linejoin:round;" d="
					M81.428,35.892c0,0-1.015,2.391,1.014,5.12"/>
				
					<path style="fill-rule:evenodd;clip-rule:evenodd;fill:none;stroke:#000000;stroke-width:0.3231;stroke-linecap:square;stroke-linejoin:round;" d="
					M71.272,35.549c0,0-1.015,2.392,1.015,5.121"/>
				
					<path style="fill-rule:evenodd;clip-rule:evenodd;fill:none;stroke:#000000;stroke-width:0.3231;stroke-linecap:square;stroke-linejoin:round;" d="
					M77.027,32.457c0,0-2.707,3.416,0.678,6.148"/>
				
					<path style="fill-rule:evenodd;clip-rule:evenodd;fill:none;stroke:#000000;stroke-width:0.3231;stroke-linecap:square;stroke-linejoin:round;" d="
					M73.98,33.808c0,0-2.369,3.072,0.679,5.459"/>
				<path style="fill-rule:evenodd;clip-rule:evenodd;" d="M84.387,32.457c-1.671-2.151-4.271-3.534-7.192-3.534
					c-2.917,0-5.518,1.383-7.191,3.534c1.945-1.353,4.452-2.167,7.191-2.167C79.935,30.29,82.445,31.104,84.387,32.457z"/>
				<g>
					<ellipse style="fill-rule:evenodd;clip-rule:evenodd;" cx="75.281" cy="49.429" rx="4.466" ry="4.521"/>
					<ellipse style="fill-rule:evenodd;clip-rule:evenodd;fill:#FFFFFF;" cx="76.769" cy="47.318" rx="1.787" ry="1.806"/>
					<ellipse style="fill-rule:evenodd;clip-rule:evenodd;fill:#FFFFFF;" cx="73.473" cy="52.449" rx="1.015" ry="1.024"/>
				</g>
			</g>
		</g>
	</g>
</g>
<g id="cry">
	<g>
		<g style="opacity:0.75;">
			<path d="M68.152,73.174c-0.403-0.397-0.795-0.887-1.198-1.417l0,0c-0.798-1.061-1.639-2.3-2.361-3.12l0,0
				c-0.411-0.495-0.833-0.801-0.944-0.845l0,0c-0.014,0.003-0.039,0.012-0.073,0.028l0,0c-0.083,0.037-0.216,0.118-0.369,0.24l0,0
				c-0.31,0.246-0.702,0.646-1.114,1.109l0,0c-0.835,0.932-1.753,2.104-2.706,2.954l0,0c-0.643,0.547-1.305,1.06-2.266,1.045l0,0
				c-0.067-0.004-0.132-0.01-0.199-0.021l0,0c-0.707-0.104-1.215-0.61-1.479-1.086l0,0c-0.279-0.485-0.43-1.004-0.567-1.529l0,0
				c-0.257-1.042-0.477-2.146-0.822-2.684l0,0c-0.247-0.358-0.351-0.437-0.697-0.473l0,0c-0.003-0.001-0.015-0.001-0.043-0.001l0,0
				c-0.876-0.027-2.101,0.536-3.133,1.257l0,0c-1.036,0.709-1.893,1.528-2.207,1.844l0,0c-0.09,0.091-0.131,0.133-0.131,0.133l0,0
				v0.001c-0.353,0.375-0.942,0.393-1.317,0.04l0,0c-0.375-0.353-0.393-0.942-0.04-1.317l0,0c0.024-0.023,0.89-0.947,2.149-1.886
				l0,0c1.267-0.927,2.897-1.934,4.693-1.935l0,0c0.032,0,0.072,0,0.121,0.003l0,0c0.647,0.025,1.243,0.299,1.654,0.691l0,0
				c0.418,0.393,0.676,0.865,0.872,1.34l0,0c0.384,0.949,0.545,1.979,0.763,2.749l0,0c0.135,0.513,0.317,0.883,0.412,0.969l0,0
				c0.056,0.054,0.039,0.035,0.054,0.042l0,0c0.005,0.001,0.008,0.002,0.008,0.001l0,0c0.009,0.012,0.247-0.036,0.582-0.288l0,0
				c0.332-0.242,0.738-0.636,1.159-1.094l0,0c0.85-0.92,1.75-2.083,2.638-2.926l0,0c0.608-0.538,1.175-1.071,2.139-1.073l0,0
				c0.685,0.055,1.136,0.399,1.569,0.771l0,0c0.429,0.383,0.833,0.855,1.24,1.371l0,0c0.807,1.026,1.617,2.234,2.307,3.087l0,0
				c0.344,0.441,0.693,0.78,0.877,0.921l0,0c0.021-0.021,0.047-0.046,0.074-0.076l0,0c0.185-0.194,0.438-0.554,0.702-0.987l0,0
				c0.535-0.873,1.134-2.039,1.786-3.035l0,0c0.445-0.665,0.893-1.267,1.502-1.696l0,0c0.348-0.239,0.793-0.433,1.305-0.407l0,0
				c0.736,0.047,1.459,0.333,2.264,0.7l0,0c0.795,0.369,1.635,0.838,2.41,1.301l0,0c1.545,0.925,2.826,1.827,2.838,1.836l0,0
				c0.42,0.296,0.521,0.877,0.225,1.297l0,0c-0.295,0.421-0.877,0.521-1.299,0.227l0,0c0-0.002-0.695-0.49-1.672-1.111l0,0
				c-0.973-0.62-2.229-1.369-3.287-1.86l0,0c-0.691-0.329-1.332-0.526-1.57-0.527l0,0l0,0c-0.006,0.001-0.021,0.005-0.047,0.018l0,0
				c-0.051,0.021-0.141,0.077-0.248,0.173l0,0c-0.217,0.189-0.496,0.53-0.779,0.953l0,0c-0.574,0.847-1.168,1.992-1.754,2.968l0,0
				c-0.4,0.654-0.77,1.233-1.271,1.675l0,0c-0.285,0.242-0.676,0.496-1.223,0.478l0,0C68.955,73.928,68.568,73.553,68.152,73.174
				L68.152,73.174z"/>
		</g>
	</g>
</g>
</svg>
