<svg version="1.1" xmlns="http://www.w3.org/2000/svg" xmlns:xlink="http://www.w3.org/1999/xlink" viewBox="0 0 768 975" enable-background="new 0 0 768 975" xml:space="preserve">
<g id="circle">
	<circle fill="#DDE5CE" cx="384.51" cy="731.426" r="125.426"/>
</g>
<g id="aa">
	<g>
		<path fill="#CB394D" d="M360.434,689.998l27.9,71.4h-10.5l-7.8-21.5h-30.2l-8,21.5h-9.7l27.8-71.4H360.434z M367.034,731.898
			l-11.9-33.3h-0.2l-12.1,33.3H367.034z"/>
		<path fill="#EA5F72" d="M444.733,761.198c-1.468,0.866-3.5,1.3-6.101,1.3c-2.199,0-3.949-0.617-5.25-1.85
			c-1.3-1.232-1.949-3.25-1.949-6.05c-2.335,2.8-5.051,4.817-8.15,6.05s-6.45,1.85-10.05,1.85c-2.335,0-4.55-0.267-6.65-0.8
			c-2.1-0.532-3.917-1.365-5.45-2.5c-1.534-1.133-2.75-2.615-3.649-4.45c-0.9-1.832-1.351-4.05-1.351-6.649
			c0-2.933,0.5-5.333,1.5-7.2c1-1.865,2.316-3.383,3.95-4.55c1.633-1.166,3.5-2.05,5.601-2.65c2.1-0.6,4.25-1.1,6.449-1.5
			c2.333-0.466,4.551-0.815,6.65-1.05c2.1-0.232,3.95-0.565,5.55-1c1.601-0.433,2.866-1.065,3.8-1.9c0.934-0.832,1.4-2.05,1.4-3.649
			c0-1.866-0.35-3.366-1.05-4.5c-0.7-1.133-1.601-2-2.7-2.601c-1.1-0.6-2.334-1-3.7-1.199c-1.367-0.2-2.717-0.301-4.05-0.301
			c-3.6,0-6.6,0.685-9,2.051c-2.4,1.367-3.7,3.949-3.9,7.75h-8.5c0.133-3.2,0.801-5.9,2-8.101c1.2-2.2,2.801-3.982,4.801-5.35
			c2-1.366,4.282-2.351,6.85-2.95c2.565-0.6,5.315-0.9,8.25-0.9c2.333,0,4.65,0.168,6.95,0.5c2.3,0.333,4.383,1.015,6.25,2.046
			c1.865,1.031,3.365,2.478,4.5,4.341c1.133,1.862,1.7,4.29,1.7,7.282v26.544c0,1.997,0.115,3.459,0.35,4.391
			c0.232,0.932,1.016,1.396,2.35,1.396c0.733,0,1.601-0.133,2.601-0.399V761.198z M430.934,734.698
			c-1.067,0.797-2.468,1.377-4.2,1.742c-1.734,0.366-3.55,0.664-5.45,0.896c-1.9,0.232-3.817,0.498-5.75,0.797
			c-1.935,0.299-3.667,0.779-5.2,1.442c-1.534,0.662-2.784,1.607-3.75,2.836c-0.967,1.228-1.45,2.903-1.45,5.024
			c0,1.395,0.283,2.57,0.851,3.533c0.565,0.963,1.3,1.742,2.2,2.339c0.899,0.597,1.949,1.028,3.149,1.294s2.466,0.396,3.8,0.396
			c2.801,0,5.2-0.381,7.2-1.144s3.633-1.725,4.9-2.886c1.266-1.161,2.2-2.422,2.8-3.781s0.9-2.638,0.9-3.831V734.698z"/>
	</g>
</g>
<g id="a">
	<g>
		<path fill="none" stroke="#DDE5CE" stroke-width="5" stroke-miterlimit="10" d="M478.567,587.92
			c2.594-26.192,2.281-52.917,8.373-78.656c6.169-26.063,24.723-37.578,36.069-60.048c5.249-10.396,5.982-23.205,9.786-34.25
			c4.057-11.78,9.019-23.221,13.139-34.978c9.832-28.056,8.907-57.02,5.891-86.26c-2.954-28.634-8.65-56.884-14.103-85.12
			c-2.462-12.745-7.098-26.818-5.495-39.88c1.511-12.32,7.875-26.088,2.97-38.376c-20.027-50.167-61.59,20.562-66.579,41.939
			c3.353-13.622-16.639-28.443-28.983-22.59c-17.514,8.304-21.277,19.336-30.146,35.302c-6.503-12.062-21.971-20.002-35.598-16.549
			c-12.188,3.089-28.582,19.568-26.508,32.8c-19.289-12.886-39.315-3.361-49.966,14.906c-5.456,9.358-8.204,19.769-9.168,30.507
			c-0.118,1.306-10.718-0.443-11.874-0.362c-21.75,1.517-30.976,39.608-34.918,56.501c-5.572,23.88-5.434,48.729-1.314,72.824
			c6.214,36.342,21.175,70.924,36.76,104.14c4.752,10.128,19.878,25.425,18.527,36.683c-2.125,17.694-4.314,35.574-8.375,52.945"/>
		<path fill="none" stroke="#DDE5CE" stroke-width="5" stroke-miterlimit="10" d="M459.775,492.857
			c10.623-2.049,29.724,7.043,36.363-8.84"/>
		<path fill="none" stroke="#DDE5CE" stroke-width="5" stroke-miterlimit="10" d="M469.119,167.367
			c0.428,11.819,2.014,23.785,5.512,35.111c3.362,10.883,4.751,19.504,6.513,31.079c3.644,23.946,9.62,50.494,9.591,74.705
			c0.018-10.565-4.932-23.236-14.264-28.903c-11.182-6.791-24.437-1.411-27.089,11.42c-2.426,11.749,3.028,37.203,17.774,38.939
			c13.526,1.593,25.901-6.457,23.578-21.457"/>
		<path fill="none" stroke="#DDE5CE" stroke-width="5" stroke-miterlimit="10" d="M409.488,185.005
			c5.262,29.617,13.578,58.588,21.472,87.58c5.633,20.688,14.659,41.091,17.215,62.485"/>
		<path fill="none" stroke="#DDE5CE" stroke-width="5" stroke-miterlimit="10" d="M449.579,341.654
			c-0.586-8.734-2.408-20.41-9.429-26.508c-8.164-7.09-20.735,1.461-24.147,9.692C404.083,353.584,451.424,368.989,449.579,341.654
			C448.723,328.888,450.604,356.85,449.579,341.654z"/>
		<path fill="none" stroke="#DDE5CE" stroke-width="5" stroke-miterlimit="10" d="M435.738,357.455
			c-14.6,15.758-36.489,32.338-36.201,56.363"/>
		<path fill="none" stroke="#DDE5CE" stroke-width="5" stroke-miterlimit="10" d="M347.383,201.255
			c17.388,50.26,42.82,136.811,70.392,147.245"/>
		<path fill="none" stroke="#DDE5CE" stroke-width="5" stroke-miterlimit="10" d="M400.204,361.494
			c-4.29-10.22-9.852-30.926-23.125-32.972c-13.969-2.153-20.778,11.189-18.949,22.864c1.719,10.97,8.579,24.079,19.547,28.224
			C387.367,383.271,405.247,373.439,400.204,361.494C391.062,339.713,403.686,369.741,400.204,361.494z"/>
		<path fill="none" stroke="#DDE5CE" stroke-width="5" stroke-miterlimit="10" d="M369.378,375.095
			c-17.751-9.862-28.43-34.807-37.466-51.919c-13.345-25.271-26.138-51.009-42.357-74.61"/>
		<path fill="none" stroke="#DDE5CE" stroke-width="5" stroke-miterlimit="10" d="M341,342.983
			c-8.644-0.221-20.767,1.404-22.052,12.024c-0.731,6.044,2.657,20.628,8.476,23.686c21.506,11.303,32.955-14.234,19.959-30.193"/>
		<path fill="none" stroke="#DDE5CE" stroke-width="5" stroke-miterlimit="10" d="M337.229,380.158
			c-37.396,3.49-67.521-44.384-85.397-69.55c6.756,11.385,21.856,22.137,12.438,36.204"/>
		<path fill="none" stroke="#DDE5CE" stroke-width="5" stroke-miterlimit="10" d="M530.115,127.538
			c-8.094,14.578-4.266,34.535-0.281,50.288"/>
		<path fill="none" stroke="#DDE5CE" stroke-width="5" stroke-miterlimit="10" d="M401.163,361.837
			c-1.392-12.168-4.435-37.138-8.868-44.812"/>
		<path fill="none" stroke="#DDE5CE" stroke-width="5" stroke-miterlimit="10" d="M458.814,324.7
			c-9.267-6.771-21.694-28.325-25.013-39.931"/>
	</g>
	<g>
		<path fill-rule="evenodd" clip-rule="evenodd" fill="none" stroke="#DDE5CE" stroke-width="2" stroke-miterlimit="10" d="
			M709.539,556.229c-1.91,0.542-2.209,0.701-2.508,0.701c-19.658,0.011-39.317-0.079-58.975,0.091
			c-3.514,0.03-5.066-1.038-6.372-4.381c-6.229-15.938-23.811-24.323-40.071-19.462c-16.073,4.806-26.289,21.905-22.947,38.409
			c2.654,13.104,14.742,24.632,27.189,25.927c16.365,1.703,29.689-5.477,35.619-19.764c1.491-3.591,3.34-4.645,6.974-4.617
			c16.655,0.127,33.313,0.022,49.972,0.003c3.05-0.004,6.1-0.001,9.15-0.001c0.379,0.594,0.756,1.188,1.135,1.781
			c-5.145,4.665-10.396,9.217-15.395,14.033c-3.745,3.609-3.988,8.893-0.945,11.951c3.645,3.664,8.02,3.56,12.31-0.656
			c9.618-9.452,19.185-18.961,28.632-28.583c4.911-5.001,4.817-8.737-0.158-13.76c-9.369-9.461-18.816-18.846-28.289-28.201
			c-4.164-4.111-8.887-4.389-12.359-0.925c-3.277,3.271-3.025,8.394,0.989,12.369C698.449,546.059,703.655,550.723,709.539,556.229z
			"/>
		<path fill-rule="evenodd" clip-rule="evenodd" fill="none" stroke="#DDE5CE" stroke-width="2" stroke-miterlimit="10" d="
			M709.539,556.229c-5.884-5.506-11.09-10.17-16.05-15.084c-4.015-3.976-4.267-9.098-0.989-12.369
			c3.473-3.464,8.195-3.187,12.359,0.925c9.473,9.355,18.92,18.74,28.289,28.201c4.976,5.022,5.069,8.759,0.158,13.76
			c-9.447,9.622-19.014,19.131-28.632,28.583c-4.29,4.216-8.665,4.32-12.31,0.656c-3.043-3.059-2.8-8.342,0.945-11.951
			c4.998-4.816,10.25-9.368,15.395-14.033c-0.379-0.594-0.756-1.188-1.135-1.781c-3.051,0-6.101-0.003-9.15,0.001
			c-16.658,0.02-33.316,0.124-49.972-0.003c-3.634-0.027-5.482,1.026-6.974,4.617c-5.93,14.287-19.254,21.467-35.619,19.764
			c-12.447-1.295-24.535-12.822-27.189-25.927c-3.342-16.504,6.874-33.604,22.947-38.409c16.261-4.861,33.842,3.523,40.071,19.462
			c1.306,3.343,2.858,4.411,6.372,4.381c19.657-0.17,39.316-0.08,58.975-0.091C707.33,556.93,707.629,556.771,709.539,556.229z"/>
	</g>
	<g>
		<path fill="#DDE5CE" d="M591.465,561.136c-0.507-0.368-1.154-0.552-1.943-0.552c-0.32,0-0.635,0.032-0.944,0.096
			c-0.31,0.064-0.584,0.171-0.824,0.32s-0.432,0.35-0.576,0.6c-0.144,0.251-0.216,0.563-0.216,0.937
			c0,0.352,0.104,0.638,0.312,0.855c0.208,0.219,0.485,0.397,0.832,0.536c0.346,0.139,0.738,0.254,1.176,0.345
			c0.438,0.09,0.882,0.189,1.336,0.296c0.453,0.106,0.898,0.231,1.336,0.376c0.438,0.144,0.829,0.339,1.176,0.584
			s0.624,0.555,0.832,0.928s0.312,0.843,0.312,1.408c0,0.607-0.137,1.128-0.408,1.56c-0.272,0.433-0.622,0.784-1.048,1.057
			c-0.427,0.271-0.904,0.469-1.433,0.592c-0.527,0.122-1.053,0.184-1.576,0.184c-0.64,0-1.245-0.08-1.815-0.24
			c-0.571-0.159-1.072-0.402-1.504-0.728c-0.433-0.325-0.773-0.741-1.024-1.248s-0.376-1.106-0.376-1.8h1.44
			c0,0.479,0.093,0.894,0.279,1.24s0.433,0.632,0.736,0.855s0.658,0.39,1.064,0.496c0.405,0.106,0.821,0.16,1.248,0.16
			c0.341,0,0.685-0.032,1.031-0.096c0.347-0.064,0.659-0.174,0.937-0.328c0.277-0.155,0.501-0.365,0.672-0.633
			c0.171-0.266,0.256-0.607,0.256-1.023c0-0.395-0.104-0.715-0.312-0.96s-0.485-0.445-0.832-0.601
			c-0.347-0.154-0.739-0.279-1.177-0.376c-0.438-0.096-0.882-0.194-1.336-0.296c-0.453-0.101-0.898-0.218-1.336-0.352
			s-0.829-0.31-1.176-0.528s-0.624-0.501-0.832-0.848s-0.312-0.781-0.312-1.304c0-0.576,0.117-1.075,0.352-1.496
			c0.234-0.422,0.547-0.769,0.937-1.04c0.389-0.272,0.832-0.475,1.327-0.608c0.496-0.133,1.006-0.2,1.528-0.2
			c0.587,0,1.131,0.069,1.632,0.208c0.502,0.139,0.941,0.357,1.32,0.656s0.677,0.675,0.896,1.128s0.339,0.995,0.36,1.624h-1.439
			C592.268,562.099,591.972,561.504,591.465,561.136z"/>
		<path fill="#DDE5CE" d="M605.649,571l-2.608-9.6h-0.032l-2.64,9.6h-1.584l-2.928-11.424h1.552l2.24,9.504h0.031l2.561-9.504h1.647
			l2.528,9.504h0.032l2.319-9.504h1.521L607.233,571H605.649z"/>
		<path fill="#DDE5CE" d="M614.113,559.576V571h-1.521v-11.424H614.113z"/>
		<path fill="#DDE5CE" d="M622.48,559.576c1.152,0,2.024,0.296,2.616,0.888s0.888,1.422,0.888,2.488s-0.296,1.898-0.888,2.496
			s-1.464,0.891-2.616,0.88h-3.488V571h-1.52v-11.424H622.48z M621.969,565.048c0.864,0.011,1.496-0.165,1.896-0.528
			c0.4-0.362,0.601-0.885,0.601-1.567s-0.2-1.203-0.601-1.561c-0.399-0.356-1.031-0.535-1.896-0.535h-2.977v4.191H621.969z"/>
		<path fill="#DDE5CE" d="M636.528,559.576v1.28h-6.368v3.632h5.937v1.279h-5.937v3.952h6.416V571h-7.936v-11.424H636.528z"/>
	</g>
</g>
</svg>
