<svg version="1.1" xmlns="http://www.w3.org/2000/svg" xmlns:xlink="http://www.w3.org/1999/xlink" viewBox="0 0 768 980" enable-background="new 0 0 768 980" xml:space="preserve">
<g id="Layer_1">
	<circle fill="#DDF2F2" cx="412.014" cy="713.674" r="99.255"/>
	<g enable-background="new    ">
		<path fill="#DDF2F2" d="M524.602,378.715l7.404-14.805c-8.56-3.949-9.463-12.339-2.715-25.172
			c6.74-12.831,14.561-16.117,23.444-9.871c4.272-7.233,3.285-13.24-2.962-18.014c-6.252-4.765-16.947-0.077-32.08,14.066
			c-10.535,9.871-20.65,22.378-30.354,37.508c-9.707,15.139-18.345,24.847-25.91,29.12c-3.948,11.189-11.189,16.458-21.716,15.792
			c-7.897,0-14.15-3.616-18.755-10.857c0,11.189-7.079,15.792-21.222,13.819c-5.269,9.872-8.808,17.358-10.612,22.456
			c-1.812,5.105-2.551,4.443-2.221-1.975c0.324-6.416,2.629-13.734,6.91-21.961c-6.586,4.279-12.423,6.416-17.521,6.416
			c-5.105,0-9.055-0.987-11.846-2.962c-2.799-1.974-6.995-6.578-12.585-13.819c-4.611,2.962-9.872,3.455-15.793,1.479
			c-5.921-1.974-10.857-6.247-14.805-12.833c-7.896,15.793-12.669,28.218-14.313,37.263c-1.65,9.053-2.059,17.938-1.234,26.651
			c0.817,8.723,2.468,18.838,4.934,30.354c2.468,11.512,10.442,38.496,23.938,80.94h-8.391
			c-8.884-27.641-16.457-55.277-22.703-82.914c-6.256-27.642-6.91-49.109-1.975-64.409c4.935-15.3,10.194-27.222,15.792-35.782
			c-7.574-13.488-11.846-27.146-12.832-40.964c-0.987-21.384,8.884-32.573,29.613-33.561c1.642-4.936,5.752-9.207,12.336-12.833
			c6.579-3.616,15.624-3.949,27.146-0.987l5.922,1.974c5.591-5.258,12.585-7.648,20.977-7.156c8.39,0.494,15.052,2.716,19.987,6.664
			c2.629-3.616,5.678-6.494,9.131-8.635c3.454-2.137,9.045-2.877,16.78-2.222c7.727,0.665,15.87,5.514,24.432,14.559
			c8.552,9.055,16.61,23.122,24.184,42.2c6.579-7.897,12.831-14.637,18.753-20.235c11.514-11.183,21.386-16.449,29.613-15.792
			c8.221,0.663,13.82,4.118,16.781,10.364c2.961,6.254,3.123,12.507,0.494,18.755c-5.268,9.214-11.352,19.248-18.263,30.104
			c-10.202,17.445-18.754,38.83-25.665,64.162c-2.961,12.833-19.912,33.561-50.834,62.187
			c-14.148,10.856-19.912,22.207-17.274,34.054c1.644,10.858,4.272,24.347,7.897,40.472h-7.897
			c-1.651-4.938-3.624-13.495-5.921-25.666c-2.307-12.176-3.456-20.565-3.456-25.17c0-7.573,6.247-16.949,18.754-28.133
			c30.601-26.974,47.704-47.872,51.329-62.679c3.287-11.181,6.246-20.396,8.883-27.639c-4.279-1.973-7.732-4.934-10.363-8.883
			c3.615,0.986,7.404,2.96,11.351,5.921l1.976-3.947c-6.911-3.618-10.695-6.085-11.353-7.405c-0.662-1.309,3.454,0.494,12.339,5.43
			l1.481-2.961l-8.883-5.922C519.337,376.248,522.629,377.406,524.602,378.715z M340.017,374.766
			c-3.948-9.54-6.5-19.655-7.648-30.352c-1.158-10.688-1.073-21.469,0.247-32.328c-6.586-0.324-11.929,2.06-16.039,7.157
			c-4.119,5.106-5.847,11.436-5.182,19.002c0.654,8.228,1.804,14.644,3.453,19.248c1.643,4.611,3.779,9.708,6.417,15.299
			c2.961-1.31,5.923-2.051,8.884-2.22C333.107,370.411,336.394,371.805,340.017,374.766z M348.902,393.028
			c-2.962-3.949-5.761-9.207-8.391-15.792c-3.624-2.962-6.91-4.52-9.869-4.688c-2.963-0.162-5.762,0.415-8.392,1.726
			c4.603,10.202,9.702,16.62,15.3,19.247C342.485,395.495,346.265,395.333,348.902,393.028z M331.134,511.479
			c13.819-3.293,23.358-4.938,28.626-4.938c5.258,0,2.545,1.065-8.146,3.21C340.92,511.888,334.097,512.466,331.134,511.479z
			 M388.879,403.887c-10.533-15.793-16.287-34.548-17.273-56.264c-0.989-21.715,0.493-37.833,4.442-48.367
			c-10.534-4.273-19.088-4.766-25.666-1.481c-6.583,3.294-10.202,9.462-10.856,18.508c-0.663,9.054-0.085,20.483,1.726,34.302
			c1.806,13.818,6.826,27.807,15.053,41.951c10.527-7.566,19.743-2.792,27.639,14.313
			C385.918,406.191,387.559,405.204,388.879,403.887z M339.525,523.325c12.833-0.988,22.948-1.159,30.353-0.495
			c7.403,0.654,4.604,1.397-8.392,2.221C348.484,525.867,341.167,525.298,339.525,523.325z M382.462,407.34
			c-2.304-4.936-4.611-8.714-6.909-11.351c-2.306-2.628-4.774-4.357-7.403-5.182c-2.638-0.817-6.256,0.249-10.859,3.208
			c4.273,5.599,7.565,9.376,9.872,11.351c2.298,1.974,4.85,3.047,7.65,3.208C377.604,408.744,380.158,408.33,382.462,407.34z
			 M361.24,513.453l-0.492-1.975C397.926,511.147,398.088,511.802,361.24,513.453z M417.012,390.561
			c-5.6-13.82-8.809-25.913-9.623-36.276c-0.827-10.364-0.743-18.833,0.245-25.417c0.987-6.578,3.617-16.448,7.896-29.611
			c-3.623-3.616-9.053-5.429-16.286-5.429c-7.24,0-12.669,2.143-16.288,6.416c-2.304,7.573-3.785,15.878-4.441,24.923
			c-0.663,9.053-0.578,19,0.247,29.859c0.819,10.858,3.532,21.553,8.144,32.08c4.603-1.975,9.292-2.628,14.065-1.975
			c4.766,0.665,8.799,6.588,12.092,17.769C415.691,399.614,417.012,395.495,417.012,390.561z M379.501,463.605
			c0.988-5.261,2.962-9.207,5.922-11.847C384.438,458.345,382.462,462.293,379.501,463.605z M411.582,403.392
			c-0.986-4.271-2.638-8.219-4.937-11.844c-2.636-4.273-6.745-5.922-12.338-4.935l-6.91,1.974
			c4.938,10.202,9.626,15.469,14.067,15.792C405.906,404.711,409.276,404.379,411.582,403.392z M490.053,345.156
			c-2.635-9.208-8.633-20.73-18.013-34.548c-9.376-13.82-19.085-20.644-29.118-20.483c-10.04,0.171-17.273,6.338-21.716,18.508
			c-4.442,12.176-6.663,24.268-6.663,36.275c0,12.016,1.48,21.963,4.442,29.859c12.5-4.271,20.15-3.284,22.948,2.963
			c2.793,6.254,6,12.176,9.623,17.765c3.617-5.589,5.432-12.253,5.432-19.988c0-7.727-0.332-15.547-0.988-23.444
			c-5.268,0-8.637-0.409-10.117-1.234c-1.482-0.817-1.482-1.396,0-1.728c1.479-0.322,4.688-0.655,9.623-0.987
			c0.322-11.844,0.818-18.916,1.48-21.22c0.654-2.299,1.232-3.703,1.729-4.195c0.492-0.494,0.987,1.48,1.479,5.921
			c0.492,4.443,0.9,10.942,1.233,19.494c3.285,0,6.416,0.333,9.378,0.987c2.962,0.663,3.37,1.404,1.233,2.221
			c-2.145,0.827-5.515,1.073-10.119,0.741c1.312,9.547,1.483,19.248,0.494,29.12C472.943,372.299,482.158,360.293,490.053,345.156z
			 M450.078,396.977c-3.949-6.578-7.156-12.585-9.623-18.014c-2.468-5.431-9.301-6.332-20.484-2.716
			c2.299,5.923,4.443,10.781,6.418,14.56c1.974,3.786,4.936,6.664,8.883,8.638C442.182,401.096,447.117,400.27,450.078,396.977z
			 M552.242,330.348c-4.613-3.616-8.721-4.195-12.34-1.728c-3.625,2.468-6.584,5.76-8.885,9.872
			c-2.305,4.117-3.784,8.561-4.439,13.325c-0.664,4.773,1.312,8.144,5.922,10.118C537.436,351.74,544.014,341.207,552.242,330.348z"
			/>
	</g>
	<g enable-background="new    ">
		<path fill="#F44D8D" d="M420.433,654.197l36.052,92.261h-13.568l-10.078-27.781h-39.025l-10.336,27.781h-12.534l35.922-92.261
			H420.433L420.433,654.197z M428.961,708.34l-15.377-43.03h-0.259l-15.636,43.03H428.961z"/>
	</g>
	<path fill="#DDF2F2" d="M721.869,445.466c-4.67-4.354-8.787-8.073-12.666-11.952c-3.164-3.168-3.402-7.207-0.786-9.816
		c2.771-2.769,6.489-2.531,9.815,0.712c7.516,7.441,14.958,14.801,22.398,22.321c3.954,3.958,4.038,6.964,0.158,10.923
		c-7.441,7.598-15.041,15.118-22.635,22.635c-3.406,3.327-6.887,3.403-9.737,0.555c-2.376-2.451-2.218-6.567,0.713-9.496
		c3.952-3.799,8.149-7.439,12.188-11.081c-0.317-0.475-0.636-0.949-0.87-1.424c-2.452,0-4.824,0-7.2,0
		c-13.223,0-26.36,0.08-39.578,0c-2.849,0-4.355,0.791-5.54,3.639c-4.674,11.321-15.279,17.018-28.178,15.671
		c-9.817-1.028-19.393-10.133-21.528-20.5c-2.615-13.058,5.46-26.594,18.126-30.395c12.899-3.877,26.752,2.771,31.738,15.437
		c1.031,2.613,2.294,3.48,5.068,3.48c15.589-0.159,31.104-0.08,46.698-0.08C720.129,446.018,720.367,445.938,721.869,445.466z"/>
</g>
<g id="Layer_2">
</g>
</svg>
