<svg version="1.1" xmlns="http://www.w3.org/2000/svg" viewBox="0 0 768 975" enable-background="new 0 0 768 975" xml:space="preserve"><circle fill="#DDE5CE" cx="384.5" cy="731.4" r="125.4"/><path fill="#CB394D" d="M360.4 690l27.9 71.4h-10.5l-7.8-21.5h-30.2l-8 21.5h-9.7l27.8-71.4H360.4zM367 731.9l-11.9-33.3h-0.2l-12.1 33.3H367z"/><path fill="#EA5F72" d="M444.7 761.2c-1.5 0.9-3.5 1.3-6.1 1.3 -2.2 0-3.9-0.6-5.2-1.8 -1.3-1.2-1.9-3.2-1.9-6 -2.3 2.8-5.1 4.8-8.1 6.1s-6.4 1.9-10 1.9c-2.3 0-4.5-0.3-6.6-0.8 -2.1-0.5-3.9-1.4-5.4-2.5 -1.5-1.1-2.7-2.6-3.6-4.4 -0.9-1.8-1.4-4-1.4-6.6 0-2.9 0.5-5.3 1.5-7.2 1-1.9 2.3-3.4 4-4.5 1.6-1.2 3.5-2 5.6-2.6 2.1-0.6 4.3-1.1 6.4-1.5 2.3-0.5 4.6-0.8 6.7-1 2.1-0.2 4-0.6 5.6-1 1.6-0.4 2.9-1.1 3.8-1.9 0.9-0.8 1.4-2 1.4-3.6 0-1.9-0.3-3.4-1-4.5 -0.7-1.1-1.6-2-2.7-2.6 -1.1-0.6-2.3-1-3.7-1.2 -1.4-0.2-2.7-0.3-4-0.3 -3.6 0-6.6 0.7-9 2.1 -2.4 1.4-3.7 3.9-3.9 7.8h-8.5c0.1-3.2 0.8-5.9 2-8.1 1.2-2.2 2.8-4 4.8-5.3 2-1.4 4.3-2.4 6.9-2.9 2.6-0.6 5.3-0.9 8.3-0.9 2.3 0 4.7 0.2 7 0.5 2.3 0.3 4.4 1 6.3 2 1.9 1 3.4 2.5 4.5 4.3 1.1 1.9 1.7 4.3 1.7 7.3v26.5c0 2 0.1 3.5 0.4 4.4 0.2 0.9 1 1.4 2.4 1.4 0.7 0 1.6-0.1 2.6-0.4V761.2zM430.9 734.7c-1.1 0.8-2.5 1.4-4.2 1.7 -1.7 0.4-3.5 0.7-5.4 0.9 -1.9 0.2-3.8 0.5-5.7 0.8 -1.9 0.3-3.7 0.8-5.2 1.4 -1.5 0.7-2.8 1.6-3.7 2.8 -1 1.2-1.4 2.9-1.4 5 0 1.4 0.3 2.6 0.9 3.5 0.6 1 1.3 1.7 2.2 2.3 0.9 0.6 1.9 1 3.1 1.3s2.5 0.4 3.8 0.4c2.8 0 5.2-0.4 7.2-1.1s3.6-1.7 4.9-2.9c1.3-1.2 2.2-2.4 2.8-3.8s0.9-2.6 0.9-3.8V734.7z"/><path fill="none" stroke="#DDE5CE" stroke-width="5" stroke-miterlimit="10" d="M478.6 587.9c2.6-26.2 2.3-52.9 8.4-78.7 6.2-26.1 24.7-37.6 36.1-60 5.2-10.4 6-23.2 9.8-34.2 4.1-11.8 9-23.2 13.1-35 9.8-28.1 8.9-57 5.9-86.3 -3-28.6-8.6-56.9-14.1-85.1 -2.5-12.7-7.1-26.8-5.5-39.9 1.5-12.3 7.9-26.1 3-38.4 -20-50.2-61.6 20.6-66.6 41.9 3.4-13.6-16.6-28.4-29-22.6 -17.5 8.3-21.3 19.3-30.1 35.3 -6.5-12.1-22-20-35.6-16.5 -12.2 3.1-28.6 19.6-26.5 32.8 -19.3-12.9-39.3-3.4-50 14.9 -5.5 9.4-8.2 19.8-9.2 30.5 -0.1 1.3-10.7-0.4-11.9-0.4 -21.7 1.5-31 39.6-34.9 56.5 -5.6 23.9-5.4 48.7-1.3 72.8 6.2 36.3 21.2 70.9 36.8 104.1 4.8 10.1 19.9 25.4 18.5 36.7 -2.1 17.7-4.3 35.6-8.4 52.9"/><path fill="none" stroke="#DDE5CE" stroke-width="5" stroke-miterlimit="10" d="M459.8 492.9c10.6-2 29.7 7 36.4-8.8"/><path fill="none" stroke="#DDE5CE" stroke-width="5" stroke-miterlimit="10" d="M469.1 167.4c0.4 11.8 2 23.8 5.5 35.1 3.4 10.9 4.8 19.5 6.5 31.1 3.6 23.9 9.6 50.5 9.6 74.7 0-10.6-4.9-23.2-14.3-28.9 -11.2-6.8-24.4-1.4-27.1 11.4 -2.4 11.7 3 37.2 17.8 38.9 13.5 1.6 25.9-6.5 23.6-21.5"/><path fill="none" stroke="#DDE5CE" stroke-width="5" stroke-miterlimit="10" d="M409.5 185c5.3 29.6 13.6 58.6 21.5 87.6 5.6 20.7 14.7 41.1 17.2 62.5"/><path fill="none" stroke="#DDE5CE" stroke-width="5" stroke-miterlimit="10" d="M449.6 341.7c-0.6-8.7-2.4-20.4-9.4-26.5 -8.2-7.1-20.7 1.5-24.1 9.7C404.1 353.6 451.4 369 449.6 341.7 448.7 328.9 450.6 356.9 449.6 341.7z"/><path fill="none" stroke="#DDE5CE" stroke-width="5" stroke-miterlimit="10" d="M435.7 357.5c-14.6 15.8-36.5 32.3-36.2 56.4"/><path fill="none" stroke="#DDE5CE" stroke-width="5" stroke-miterlimit="10" d="M347.4 201.3c17.4 50.3 42.8 136.8 70.4 147.2"/><path fill="none" stroke="#DDE5CE" stroke-width="5" stroke-miterlimit="10" d="M400.2 361.5c-4.3-10.2-9.9-30.9-23.1-33 -14-2.2-20.8 11.2-18.9 22.9 1.7 11 8.6 24.1 19.5 28.2C387.4 383.3 405.2 373.4 400.2 361.5 391.1 339.7 403.7 369.7 400.2 361.5z"/><path fill="none" stroke="#DDE5CE" stroke-width="5" stroke-miterlimit="10" d="M369.4 375.1c-17.8-9.9-28.4-34.8-37.5-51.9 -13.3-25.3-26.1-51-42.4-74.6"/><path fill="none" stroke="#DDE5CE" stroke-width="5" stroke-miterlimit="10" d="M341 343c-8.6-0.2-20.8 1.4-22.1 12 -0.7 6 2.7 20.6 8.5 23.7 21.5 11.3 33-14.2 20-30.2"/><path fill="none" stroke="#DDE5CE" stroke-width="5" stroke-miterlimit="10" d="M337.2 380.2c-37.4 3.5-67.5-44.4-85.4-69.5 6.8 11.4 21.9 22.1 12.4 36.2"/><path fill="none" stroke="#DDE5CE" stroke-width="5" stroke-miterlimit="10" d="M530.1 127.5c-8.1 14.6-4.3 34.5-0.3 50.3"/><path fill="none" stroke="#DDE5CE" stroke-width="5" stroke-miterlimit="10" d="M401.2 361.8c-1.4-12.2-4.4-37.1-8.9-44.8"/><path fill="none" stroke="#DDE5CE" stroke-width="5" stroke-miterlimit="10" d="M458.8 324.7c-9.3-6.8-21.7-28.3-25-39.9"/><path fill-rule="evenodd" clip-rule="evenodd" fill="none" stroke="#DDE5CE" stroke-width="2" stroke-miterlimit="10" d="M709.5 556.2c-1.9 0.5-2.2 0.7-2.5 0.7 -19.7 0-39.3-0.1-59 0.1 -3.5 0-5.1-1-6.4-4.4 -6.2-15.9-23.8-24.3-40.1-19.5 -16.1 4.8-26.3 21.9-22.9 38.4 2.7 13.1 14.7 24.6 27.2 25.9 16.4 1.7 29.7-5.5 35.6-19.8 1.5-3.6 3.3-4.6 7-4.6 16.7 0.1 33.3 0 50 0 3.1 0 6.1 0 9.2 0 0.4 0.6 0.8 1.2 1.1 1.8 -5.1 4.7-10.4 9.2-15.4 14 -3.7 3.6-4 8.9-0.9 12 3.6 3.7 8 3.6 12.3-0.7 9.6-9.5 19.2-19 28.6-28.6 4.9-5 4.8-8.7-0.2-13.8 -9.4-9.5-18.8-18.8-28.3-28.2 -4.2-4.1-8.9-4.4-12.4-0.9 -3.3 3.3-3 8.4 1 12.4C698.4 546.1 703.7 550.7 709.5 556.2z"/><path fill-rule="evenodd" clip-rule="evenodd" fill="none" stroke="#DDE5CE" stroke-width="2" stroke-miterlimit="10" d="M709.5 556.2c-5.9-5.5-11.1-10.2-16-15.1 -4-4-4.3-9.1-1-12.4 3.5-3.5 8.2-3.2 12.4 0.9 9.5 9.4 18.9 18.7 28.3 28.2 5 5 5.1 8.8 0.2 13.8 -9.4 9.6-19 19.1-28.6 28.6 -4.3 4.2-8.7 4.3-12.3 0.7 -3-3.1-2.8-8.3 0.9-12 5-4.8 10.3-9.4 15.4-14 -0.4-0.6-0.8-1.2-1.1-1.8 -3.1 0-6.1 0-9.1 0 -16.7 0-33.3 0.1-50 0 -3.6 0-5.5 1-7 4.6 -5.9 14.3-19.3 21.5-35.6 19.8 -12.4-1.3-24.5-12.8-27.2-25.9 -3.3-16.5 6.9-33.6 22.9-38.4 16.3-4.9 33.8 3.5 40.1 19.5 1.3 3.3 2.9 4.4 6.4 4.4 19.7-0.2 39.3-0.1 59-0.1C707.3 556.9 707.6 556.8 709.5 556.2z"/><path fill="#DDE5CE" d="M591.5 561.1c-0.5-0.4-1.2-0.6-1.9-0.6 -0.3 0-0.6 0-0.9 0.1 -0.3 0.1-0.6 0.2-0.8 0.3s-0.4 0.4-0.6 0.6c-0.1 0.3-0.2 0.6-0.2 0.9 0 0.4 0.1 0.6 0.3 0.9 0.2 0.2 0.5 0.4 0.8 0.5 0.3 0.1 0.7 0.3 1.2 0.3 0.4 0.1 0.9 0.2 1.3 0.3 0.5 0.1 0.9 0.2 1.3 0.4 0.4 0.1 0.8 0.3 1.2 0.6s0.6 0.6 0.8 0.9 0.3 0.8 0.3 1.4c0 0.6-0.1 1.1-0.4 1.6 -0.3 0.4-0.6 0.8-1 1.1 -0.4 0.3-0.9 0.5-1.4 0.6 -0.5 0.1-1.1 0.2-1.6 0.2 -0.6 0-1.2-0.1-1.8-0.2 -0.6-0.2-1.1-0.4-1.5-0.7 -0.4-0.3-0.8-0.7-1-1.2s-0.4-1.1-0.4-1.8h1.4c0 0.5 0.1 0.9 0.3 1.2s0.4 0.6 0.7 0.9 0.7 0.4 1.1 0.5c0.4 0.1 0.8 0.2 1.2 0.2 0.3 0 0.7 0 1-0.1 0.3-0.1 0.7-0.2 0.9-0.3 0.3-0.2 0.5-0.4 0.7-0.6 0.2-0.3 0.3-0.6 0.3-1 0-0.4-0.1-0.7-0.3-1s-0.5-0.4-0.8-0.6c-0.3-0.2-0.7-0.3-1.2-0.4 -0.4-0.1-0.9-0.2-1.3-0.3 -0.5-0.1-0.9-0.2-1.3-0.4s-0.8-0.3-1.2-0.5 -0.6-0.5-0.8-0.8 -0.3-0.8-0.3-1.3c0-0.6 0.1-1.1 0.4-1.5 0.2-0.4 0.5-0.8 0.9-1 0.4-0.3 0.8-0.5 1.3-0.6 0.5-0.1 1-0.2 1.5-0.2 0.6 0 1.1 0.1 1.6 0.2 0.5 0.1 0.9 0.4 1.3 0.7s0.7 0.7 0.9 1.1 0.3 1 0.4 1.6h-1.4C592.3 562.1 592 561.5 591.5 561.1z"/><path fill="#DDE5CE" d="M605.6 571l-2.6-9.6h0l-2.6 9.6h-1.6l-2.9-11.4h1.6l2.2 9.5h0l2.6-9.5h1.6l2.5 9.5h0l2.3-9.5h1.5L607.2 571H605.6z"/><path fill="#DDE5CE" d="M614.1 559.6V571h-1.5v-11.4H614.1z"/><path fill="#DDE5CE" d="M622.5 559.6c1.2 0 2 0.3 2.6 0.9s0.9 1.4 0.9 2.5 -0.3 1.9-0.9 2.5 -1.5 0.9-2.6 0.9h-3.5V571h-1.5v-11.4H622.5zM622 565c0.9 0 1.5-0.2 1.9-0.5 0.4-0.4 0.6-0.9 0.6-1.6s-0.2-1.2-0.6-1.6c-0.4-0.4-1-0.5-1.9-0.5h-3v4.2H622z"/><path fill="#DDE5CE" d="M636.5 559.6v1.3h-6.4v3.6h5.9v1.3h-5.9v4h6.4V571h-7.9v-11.4H636.5z"/></svg>