<?xml version="1.0" encoding="utf-8"?>
<!-- Generator: Adobe Illustrator 16.0.0, SVG Export Plug-In . SVG Version: 6.00 Build 0)  -->
<!DOCTYPE svg PUBLIC "-//W3C//DTD SVG 1.1//EN" "http://www.w3.org/Graphics/SVG/1.1/DTD/svg11.dtd">
<svg version="1.1" id="Layer_1" xmlns="http://www.w3.org/2000/svg" xmlns:xlink="http://www.w3.org/1999/xlink" x="0px" y="0px"
	 width="768px" height="800px" viewBox="0 0 768 800" enable-background="new 0 0 768 800" xml:space="preserve">
<g>
	<path fill="none" stroke="#DDE5CE" stroke-width="7.8542" stroke-miterlimit="10" d="M445.196,542.689
		c3.438-34.71,2.27-73.069,16.433-101.801c7.242-14.708,28.137-27.821,31.308-46.649c5.679-33.864,26.057-62.062,27.354-95.351
		c2.187-56.23-11.388-108.141-21.374-164.601c-3.054-17.324,11.56-38.587,0.25-53.938c-25.813-35.077-56.86,16.462-63.92,46.712
		c3.363-13.664-10.104-19.702-19.508-23.291c-8.551-3.276-15.164,5.483-22.099,8.396c-8.53,3.587-11.998,17.662-17.523,27.607
		c-9.904-18.371-33.286-20.033-40.352-14.372c-10.04,8.039-24.041,16.028-21.753,30.623c-17.079-11.41-35.167-5.196-43.814,5.882
		c-9.386,12.062-13.889,23.594-15.32,39.531c-0.309,3.431-17.359-8.473-29.124,11.801c-51.385,88.428,1.474,181.918,15.503,216.146
		c6.908,16.859,21.268,37.855,21.268,37.855s-4.126,36.756-8.842,56.93"/>
	<path fill="none" stroke="#DDE5CE" stroke-width="7.8542" stroke-miterlimit="10" d="M426.404,447.628
		c10.623-2.05,24.322,7.043,30.961-8.84"/>
	<path fill="none" stroke="#DDE5CE" stroke-width="7.8542" stroke-miterlimit="10" d="M435.247,127.062
		c0.879,24.262,7.483,37.083,10.884,41.26c-0.195,14.763,3.36,26.866,3.635,35.152c0.271,27.431,7.63,32.098,7.597,59.557
		c0.019-11.195-7.462-33.044-26.354-31.735c-4.063,0.287-12.472,2.03-14.998,14.252c-1.868,9.048,0.577,13.917,3.154,22.924
		c3.653,12.801,11.109,16.943,18.159,15.973c8.853,1.659,22.52-5.397,20.039-21.415"/>
	<path fill="none" stroke="#DDE5CE" stroke-width="7.8542" stroke-miterlimit="10" d="M376.117,139.775
		c5.558,31.28,15.343,64.79,23.179,93.879c2.682,9.957,13.503,39.405,15.508,56.186"/>
	<path fill="none" stroke="#DDE5CE" stroke-width="7.8542" stroke-miterlimit="10" d="M416.208,296.424
		c-0.856-12.766-6.02-32.309-19.278-28.708c-15.673,4.235-21.336,20.999-9.388,36.858
		C397.44,317.712,417.233,311.62,416.208,296.424z"/>
	<path fill="none" stroke="#DDE5CE" stroke-width="7.8542" stroke-miterlimit="10" d="M402.367,312.224
		c-14.599,15.759-36.489,32.338-36.201,56.364"/>
	<path fill="none" stroke="#DDE5CE" stroke-width="7.8542" stroke-miterlimit="10" d="M314.012,156.025
		c17.387,50.26,42.82,134.146,70.391,144.581"/>
	<path fill="none" stroke="#DDE5CE" stroke-width="7.8542" stroke-miterlimit="10" d="M366.833,316.264
		c-9.143-21.781-16.25-41.204-35.518-29.692c-19.308,11.568,5.283,62.745,28.506,45.25
		C362.062,330.126,370.314,324.511,366.833,316.264z"/>
	<path fill="none" stroke="#DDE5CE" stroke-width="7.8542" stroke-miterlimit="10" d="M336.007,329.865
		c-6.645-3.691-11.801-10.487-16.468-16.476c-15.659-20.079-37.164-71.943-63.355-110.053"/>
	<path fill="none" stroke="#DDE5CE" stroke-width="7.8542" stroke-miterlimit="10" d="M304.603,297.773
		c-27.839-0.713-22.216,17.121-11.958,34.491c2.691,4.553,26.908,3.638,26.608-5.202c-0.269-8.282-2.208-15.059-7.042-20.996"/>
	<path fill="none" stroke="#DDE5CE" stroke-width="7.8542" stroke-miterlimit="10" d="M303.857,337.225
		c-16.314,1.522-38.296-15.924-43.487-20.685c-5.084-4.668-20.912-21.6-41.91-51.162c10.083,16.991,21.969,21.968,12.438,36.204"/>
	<path fill="none" stroke="#DDE5CE" stroke-width="7.8542" stroke-miterlimit="10" d="M496.744,82.308
		c-1.612,2.904-4.235,5.714-4.312,8.708c-0.377,14.343,0.526,27.722,4.031,41.58"/>
	<path fill="none" stroke="#DDE5CE" stroke-width="7.8542" stroke-miterlimit="10" d="M367.792,316.607
		c-1.392-12.167-2.804-38.177-8.868-44.811"/>
	<path fill="none" stroke="#DDE5CE" stroke-width="7.8542" stroke-miterlimit="10" d="M425.443,279.47
		c-9.266-6.772-21.694-28.325-25.012-39.931"/>
</g>
<g>
	<path fill="#CB394D" d="M375.996,603.726h22.122l33.104,93.564H410.02l-6.175-19.233h-34.456l-6.343,19.233h-20.45L375.996,603.726
		z M374.707,661.934h23.963l-11.82-36.816L374.707,661.934z"/>
</g>
</svg>
