<svg version="1.1" xmlns="http://www.w3.org/2000/svg" xmlns:xlink="http://www.w3.org/1999/xlink" viewBox="0 0 768 975" enable-background="new 0 0 768 975" xml:space="preserve">
<g id="circle">
	<circle fill="#DDE5CE" cx="384.51" cy="731.426" r="125.426"/>
</g>
<g id="bb">
	<g>
		<path fill="#CB394D" d="M351.784,689.998c1.533,0,3.183,0.018,4.95,0.051c1.766,0.034,3.516,0.134,5.25,0.3
			c1.733,0.167,3.35,0.417,4.85,0.75c1.5,0.334,2.783,0.834,3.85,1.5c2.333,1.399,4.315,3.334,5.95,5.8
			c1.633,2.467,2.45,5.5,2.45,9.1c0,3.801-0.917,7.085-2.75,9.851c-1.834,2.767-4.45,4.817-7.85,6.149v0.2
			c4.4,0.935,7.766,2.935,10.1,6c2.333,3.067,3.5,6.8,3.5,11.2c0,2.6-0.467,5.135-1.4,7.6c-0.935,2.468-2.317,4.65-4.15,6.551
			c-1.834,1.899-4.1,3.434-6.8,4.6c-2.7,1.167-5.817,1.75-9.35,1.75h-34.5v-71.4H351.784z M354.383,720.698
			c5.4,0,9.283-0.95,11.65-2.85c2.365-1.9,3.55-4.75,3.55-8.55c0-2.533-0.4-4.533-1.2-6c-0.8-1.466-1.9-2.601-3.3-3.4
			s-3.017-1.315-4.85-1.55c-1.834-0.233-3.784-0.351-5.85-0.351h-19v22.7H354.383z M359.184,753.398c4.2,0,7.483-1.133,9.85-3.4
			c2.365-2.266,3.55-5.399,3.55-9.399c0-2.333-0.435-4.266-1.3-5.8c-0.867-1.533-2.018-2.75-3.45-3.65
			c-1.435-0.9-3.084-1.533-4.95-1.9c-1.867-0.365-3.8-0.55-5.8-0.55h-21.7v24.7H359.184z"/>
		<path fill="#EA5F72" d="M406.783,689.998v26.7h0.2c1.399-2.865,3.6-4.95,6.6-6.25s6.3-1.95,9.9-1.95c4,0,7.482,0.734,10.449,2.2
			c2.966,1.468,5.434,3.45,7.4,5.95c1.966,2.5,3.45,5.385,4.45,8.65c1,3.267,1.5,6.734,1.5,10.399c0,3.667-0.484,7.135-1.45,10.4
			c-0.967,3.267-2.435,6.117-4.4,8.55c-1.967,2.435-4.434,4.35-7.399,5.75c-2.968,1.4-6.417,2.1-10.351,2.1
			c-1.267,0-2.684-0.134-4.25-0.399c-1.566-0.268-3.117-0.7-4.649-1.3c-1.534-0.601-2.984-1.416-4.351-2.45
			c-1.367-1.033-2.517-2.315-3.449-3.851h-0.2v6.9h-8.5v-71.4H406.783z M437.333,728.049c-0.635-2.301-1.6-4.351-2.9-6.15
			c-1.3-1.8-2.967-3.232-5-4.3c-2.034-1.065-4.417-1.601-7.149-1.601c-2.867,0-5.3,0.567-7.3,1.7c-2,1.135-3.635,2.617-4.9,4.45
			c-1.268,1.834-2.185,3.917-2.75,6.25c-0.567,2.334-0.85,4.7-0.85,7.1c0,2.535,0.3,4.984,0.899,7.351
			c0.601,2.367,1.55,4.45,2.851,6.25c1.3,1.8,2.982,3.25,5.05,4.35c2.065,1.101,4.565,1.65,7.5,1.65c2.933,0,5.383-0.565,7.35-1.7
			c1.966-1.133,3.55-2.633,4.75-4.5c1.2-1.865,2.065-4,2.601-6.4c0.532-2.399,0.8-4.865,0.8-7.399
			C438.283,732.698,437.966,730.349,437.333,728.049z"/>
	</g>
</g>
<g id="b">
	<g>
		<path fill="none" stroke="#DDE5CE" stroke-width="5" stroke-miterlimit="10" d="M468.859,558.942
			c-15.111-22.047-9.289-56.341,5.49-77.016c18.349-25.647,26.861-55.236,33.471-85.666c2.592-11.929,11.124-29.326,2.687-39.812
			c-6.205-7.713-9.904-10.981-10.001-20.755c-0.177-17.884-4.14-35.918-7.713-53.359c-9.188-44.846-21.188-89.047-31.248-133.695
			c-3.666-16.275-4.343-34.049-8.809-49.968c-7.97-28.412-40.766-27.586-43.956,2.472c-0.525-14.287-7.654-48.275-24.746-52.223
			c-16.695-3.87-22.215,34.17-21.987,44.551c1.635-16.482-20.137-33.535-33.021-18.672c-13.917,16.054-6.601,46.234-8.741,65.6
			c-9.329-11.97-25.158-17.584-32.144-0.383c-3.754,9.246-3.458,21.351-4.399,31.103c-3.552,36.793,1.639,75.24-10.071,110.3
			c-13.778,41.253-14.254,92.694-12.236,135.824c1.107,23.653,4.572,47.244,11.468,69.93c6.679,21.973,20.608,29.323,33.613,46.632
			c12.691,16.858-1.027,42.146,0.085,64.361"/>
		<path fill="none" stroke="#DDE5CE" stroke-width="5" stroke-miterlimit="10" d="M369.839,286.541
			c-0.745,29.013,24.779,35.625,45.012,48.62c14.459,9.286,7.269,16.464,4.323,30.625c-2.344,11.201,15.706,17.168,16.729,28.408"/>
		<path fill="none" stroke="#DDE5CE" stroke-width="5" stroke-miterlimit="10" d="M501.485,344.996
			c-5.544-6.204-15.543-9.148-19.836-16.314c-5.098-8.489-9.786-17.198-14.608-25.842c-7.168-12.849-13.81-20.571-28.778-23.114
			c-5.069-0.861-13.721-2.354-17.241,2.817c-2.811,4.128,0.448,7.972-5.505,9.212c-12.656,2.635-30.623,0.084-42.349-5.213"/>
		<path fill="none" stroke="#DDE5CE" stroke-width="5" stroke-miterlimit="10" d="M420.921,337.161
			c0.113,0.049-8.653,9.107,20.55-4.175"/>
		<path fill="none" stroke="#DDE5CE" stroke-width="5" stroke-miterlimit="10" d="M420.921,356.592
			c-38.599,29.663-28.87,91.051-61.236,124.229"/>
		<path fill="none" stroke="#DDE5CE" stroke-width="5" stroke-miterlimit="10" d="M397.794,325.869
			c-20.776,20.125-52.144,22.056-79.567,28.083"/>
		<path fill="none" stroke="#DDE5CE" stroke-width="5" stroke-miterlimit="10" d="M424.01,280.038
			c-15.971,0.918-53.972-7.371-54.17,8.629"/>
		<path fill="none" stroke="#DDE5CE" stroke-width="5" stroke-miterlimit="10" d="M408.78,101.143
			c-3.145,24.193,8.995,48.168,8.636,71.391c-0.24,15.459,1.347,32.942,6.649,47.558c2.994,8.253-4.222,44.697,12.288,43.289"/>
		<path fill="none" stroke="#DDE5CE" stroke-width="5" stroke-miterlimit="10" d="M429.104,260.262c0,0-2.769,3.1-6.917,2.743"/>
		<path fill="none" stroke="#DDE5CE" stroke-width="5" stroke-miterlimit="10" d="M362.047,93.471
			c2.608,30.214,2.397,59.311,2.005,89.482c-0.177,13.617,2.184,26.514,2.072,39.889c-0.07,8.37-3.026,40.076,11.506,33.884"/>
		
			<line fill="none" stroke="#DDE5CE" stroke-width="5" stroke-miterlimit="10" x1="370.038" y1="257.753" x2="362.592" y2="261.711"/>
		<path fill="none" stroke="#DDE5CE" stroke-width="5" stroke-miterlimit="10" d="M320.285,140.398
			c-0.02,11.803-0.043,23.607,0.686,35.393c0.492,7.955,5.446,19.958,4.312,27.242c-2.023,13.007-13.617,51.4,4.677,54.66"/>
		
			<line fill="none" stroke="#DDE5CE" stroke-width="5" stroke-miterlimit="10" x1="321.511" y1="254.057" x2="315.802" y2="257.33"/>
	</g>
</g>
</svg>
