<svg version="1.1" xmlns="http://www.w3.org/2000/svg" viewBox="0 0 768 975" enable-background="new 0 0 768 975" xml:space="preserve"><circle fill="#DDE5CE" cx="384.5" cy="731.4" r="125.4"/><path fill="#CB394D" d="M351.8 690c1.5 0 3.2 0 5 0.1 1.8 0 3.5 0.1 5.3 0.3 1.7 0.2 3.4 0.4 4.9 0.8 1.5 0.3 2.8 0.8 3.9 1.5 2.3 1.4 4.3 3.3 6 5.8 1.6 2.5 2.5 5.5 2.5 9.1 0 3.8-0.9 7.1-2.7 9.9 -1.8 2.8-4.4 4.8-7.8 6.1v0.2c4.4 0.9 7.8 2.9 10.1 6 2.3 3.1 3.5 6.8 3.5 11.2 0 2.6-0.5 5.1-1.4 7.6 -0.9 2.5-2.3 4.7-4.1 6.6 -1.8 1.9-4.1 3.4-6.8 4.6 -2.7 1.2-5.8 1.8-9.3 1.8h-34.5v-71.4H351.8zM354.4 720.7c5.4 0 9.3-0.9 11.7-2.8 2.4-1.9 3.6-4.7 3.6-8.5 0-2.5-0.4-4.5-1.2-6 -0.8-1.5-1.9-2.6-3.3-3.4s-3-1.3-4.8-1.5c-1.8-0.2-3.8-0.4-5.8-0.4h-19v22.7H354.4zM359.2 753.4c4.2 0 7.5-1.1 9.9-3.4 2.4-2.3 3.6-5.4 3.6-9.4 0-2.3-0.4-4.3-1.3-5.8 -0.9-1.5-2-2.7-3.4-3.6 -1.4-0.9-3.1-1.5-4.9-1.9 -1.9-0.4-3.8-0.5-5.8-0.5h-21.7v24.7H359.2z"/><path fill="#EA5F72" d="M406.8 690v26.7h0.2c1.4-2.9 3.6-4.9 6.6-6.2s6.3-1.9 9.9-1.9c4 0 7.5 0.7 10.4 2.2 3 1.5 5.4 3.5 7.4 6 2 2.5 3.5 5.4 4.5 8.7 1 3.3 1.5 6.7 1.5 10.4 0 3.7-0.5 7.1-1.4 10.4 -1 3.3-2.4 6.1-4.4 8.6 -2 2.4-4.4 4.4-7.4 5.8 -3 1.4-6.4 2.1-10.4 2.1 -1.3 0-2.7-0.1-4.2-0.4 -1.6-0.3-3.1-0.7-4.6-1.3 -1.5-0.6-3-1.4-4.4-2.4 -1.4-1-2.5-2.3-3.4-3.9h-0.2v6.9h-8.5v-71.4H406.8zM437.3 728c-0.6-2.3-1.6-4.4-2.9-6.1 -1.3-1.8-3-3.2-5-4.3 -2-1.1-4.4-1.6-7.1-1.6 -2.9 0-5.3 0.6-7.3 1.7 -2 1.1-3.6 2.6-4.9 4.5 -1.3 1.8-2.2 3.9-2.7 6.3 -0.6 2.3-0.8 4.7-0.8 7.1 0 2.5 0.3 5 0.9 7.4 0.6 2.4 1.6 4.5 2.9 6.3 1.3 1.8 3 3.3 5.1 4.4 2.1 1.1 4.6 1.7 7.5 1.7 2.9 0 5.4-0.6 7.4-1.7 2-1.1 3.6-2.6 4.8-4.5 1.2-1.9 2.1-4 2.6-6.4 0.5-2.4 0.8-4.9 0.8-7.4C438.3 732.7 438 730.3 437.3 728z"/><path fill="none" stroke="#DDE5CE" stroke-width="5" stroke-miterlimit="10" d="M468.9 558.9c-15.1-22-9.3-56.3 5.5-77 18.3-25.6 26.9-55.2 33.5-85.7 2.6-11.9 11.1-29.3 2.7-39.8 -6.2-7.7-9.9-11-10-20.8 -0.2-17.9-4.1-35.9-7.7-53.4 -9.2-44.8-21.2-89-31.2-133.7 -3.7-16.3-4.3-34-8.8-50 -8-28.4-40.8-27.6-44 2.5 -0.5-14.3-7.7-48.3-24.7-52.2 -16.7-3.9-22.2 34.2-22 44.6 1.6-16.5-20.1-33.5-33-18.7 -13.9 16.1-6.6 46.2-8.7 65.6 -9.3-12-25.2-17.6-32.1-0.4 -3.8 9.2-3.5 21.4-4.4 31.1 -3.6 36.8 1.6 75.2-10.1 110.3 -13.8 41.3-14.3 92.7-12.2 135.8 1.1 23.7 4.6 47.2 11.5 69.9 6.7 22 20.6 29.3 33.6 46.6 12.7 16.9-1 42.1 0.1 64.4"/><path fill="none" stroke="#DDE5CE" stroke-width="5" stroke-miterlimit="10" d="M369.8 286.5c-0.7 29 24.8 35.6 45 48.6 14.5 9.3 7.3 16.5 4.3 30.6 -2.3 11.2 15.7 17.2 16.7 28.4"/><path fill="none" stroke="#DDE5CE" stroke-width="5" stroke-miterlimit="10" d="M501.5 345c-5.5-6.2-15.5-9.1-19.8-16.3 -5.1-8.5-9.8-17.2-14.6-25.8 -7.2-12.8-13.8-20.6-28.8-23.1 -5.1-0.9-13.7-2.4-17.2 2.8 -2.8 4.1 0.4 8-5.5 9.2 -12.7 2.6-30.6 0.1-42.3-5.2"/><path fill="none" stroke="#DDE5CE" stroke-width="5" stroke-miterlimit="10" d="M420.9 337.2c0.1 0-8.7 9.1 20.6-4.2"/><path fill="none" stroke="#DDE5CE" stroke-width="5" stroke-miterlimit="10" d="M420.9 356.6c-38.6 29.7-28.9 91.1-61.2 124.2"/><path fill="none" stroke="#DDE5CE" stroke-width="5" stroke-miterlimit="10" d="M397.8 325.9c-20.8 20.1-52.1 22.1-79.6 28.1"/><path fill="none" stroke="#DDE5CE" stroke-width="5" stroke-miterlimit="10" d="M424 280c-16 0.9-54-7.4-54.2 8.6"/><path fill="none" stroke="#DDE5CE" stroke-width="5" stroke-miterlimit="10" d="M408.8 101.1c-3.1 24.2 9 48.2 8.6 71.4 -0.2 15.5 1.3 32.9 6.6 47.6 3 8.3-4.2 44.7 12.3 43.3"/><path fill="none" stroke="#DDE5CE" stroke-width="5" stroke-miterlimit="10" d="M429.1 260.3c0 0-2.8 3.1-6.9 2.7"/><path fill="none" stroke="#DDE5CE" stroke-width="5" stroke-miterlimit="10" d="M362 93.5c2.6 30.2 2.4 59.3 2 89.5 -0.2 13.6 2.2 26.5 2.1 39.9 -0.1 8.4-3 40.1 11.5 33.9"/><line fill="none" stroke="#DDE5CE" stroke-width="5" stroke-miterlimit="10" x1="370" y1="257.8" x2="362.6" y2="261.7"/><path fill="none" stroke="#DDE5CE" stroke-width="5" stroke-miterlimit="10" d="M320.3 140.4c0 11.8 0 23.6 0.7 35.4 0.5 8 5.4 20 4.3 27.2 -2 13-13.6 51.4 4.7 54.7"/><line fill="none" stroke="#DDE5CE" stroke-width="5" stroke-miterlimit="10" x1="321.5" y1="254.1" x2="315.8" y2="257.3"/></svg>