<svg version="1.1" xmlns="http://www.w3.org/2000/svg" xmlns:xlink="http://www.w3.org/1999/xlink" viewBox="0 0 768 980" enable-background="new 0 0 768 980" xml:space="preserve">
<g id="Layer_1">
	<circle fill="#DDF2F2" cx="398.404" cy="727.4" r="98.53"/>
	<polyline fill="none" points="281.361,606.588 281.361,162.382 712.5,162.382 712.5,606.588 	"/>
	<g enable-background="new    ">
		<path fill="#DDF2F2" d="M493.508,466.929c1.302,15.028-2.536,32.092-11.513,51.199c-8.989,19.108-12.825,31.922-11.514,38.458
			c1.303,15.022,3.099,29.229,5.39,42.625h-7.352c-1.308-6.208-2.373-12.738-3.184-19.598c-0.82-6.858-1.716-14.695-2.693-23.517
			c-0.982-8.815,3.098-23.108,12.246-42.869c9.141-19.758,12.739-36.009,10.779-48.748l-13.23-127.873
			c-3.268-36.576-9.308-72.508-18.129-107.784c-4.578-18.289-10.777-27.759-18.615-28.417c-10.777-0.65-16.167,5.879-16.167,19.598
			v40.665c0.65,26.458,1.631,46.469,2.94,60.017c1.301,13.558,2.941,22.294,4.898,26.211c3.918,10.778,5.06,16.335,3.428,16.657
			c-1.637,0.328-5.227-4.242-10.777-13.719c-4.575-6.202-7.676-39.686-9.307-100.436v-50.46c0-5.223-0.734-10.611-2.206-16.168
			c-1.47-5.549-5.802-8.817-12.982-9.799c-6.538,0.979-10.702,4.738-12.495,11.268c-1.799,6.54-2.531,18.947-2.203,37.236v13.718
			c0,16.007,0.076,36.255,0.246,60.752c0.16,24.495,0.244,40.832,0.244,48.992c-0.33,5.879-0.904,10.533-1.716,13.963
			c-0.82,3.43-1.638,5.144-2.45,5.144c-0.821,0-1.47-2.036-1.96-6.124c-0.49-4.079-0.572-10.205-0.247-18.372l-0.978-118.563
			c-0.659-16.329-2.533-25.722-5.638-28.171c-3.108-2.449-6.451-2.365-10.043,0.247c-4.58,3.918-7.275,12.821-8.084,26.701
			c-0.818,13.887-1.063,37.073-0.733,69.571c0.32,32.504,0.489,51.442,0.489,56.833c0,5.388-0.658,9.063-1.959,11.023
			c-2.941,5.558-5.388,8.084-7.35,7.595c-1.961-0.49-1.638-4.324,0.979-11.513c0.982-2.61,1.302-8.818,0.982-18.616l-0.489-57.323
			c0-22.207-2.942-33.805-8.819-34.785c-8.167-0.978-13.151,6.613-14.942,22.781c-1.8,16.167-3.024,35.029-3.673,56.587
			l-5.39,146.488c1.96,29.074,8.819,53.571,20.578,73.491l15.677,25.968c6.202,12.404,8.98,22.855,8.331,31.354h-6.859l-0.98-9.803
			c-1.637-10.125-7.837-23.024-18.617-38.702c-16.987-26.128-25.317-56.834-24.987-92.107l6.368-154.33
			c1.302-39.515,5.957-61.73,13.963-66.632c8-4.899,14.455-3.918,19.354,2.942c-0.33-24.82,2.28-41.154,7.838-48.995
			c3.591-5.879,8.331-8.49,14.208-7.838c4.57,0.656,7.672,2.778,9.31,6.367c1.302-10.118,3.588-16.49,6.857-19.107
			c3.262-3.918,8.33-6.2,15.19-6.858c7.181,0.328,12.813,2.94,16.9,7.838c4.081,4.898,6.125,14.538,6.125,28.905
			c1.959-4.899,5.879-7.915,11.757-9.062c5.882-1.141,11.759,0.817,17.638,5.879c5.881,5.068,11.1,17.723,15.679,37.971
			c3.919,17.637,7.671,38.543,11.268,62.71c5.219,40.174,8.979,72.19,11.267,96.025L493.508,466.929z M338.689,297.904
			c-0.98,0.658-3.431,1.065-7.349,1.225c-3.92,0.167-7.518-0.568-10.778-2.207C326.761,295.945,332.81,296.272,338.689,297.904z
			 M335.75,332.688c-4.578,0.98-9.147,0.819-13.717-0.491C328.23,330.897,332.81,331.056,335.75,332.688z M336.238,336.118
			c-2.938,0.658-5.312,0.98-7.103,0.98c-1.801,0-4.166-0.492-7.104-1.47C324.97,334.648,329.701,334.815,336.238,336.118z
			 M336.728,302.313c0.65,0.979-0.98,1.554-4.899,1.714c-3.918,0.167-6.859-0.564-8.819-2.203
			C327.91,300.841,332.48,301.01,336.728,302.313z M472.438,451.25c-7.188-16.979-14.375-29.885-21.559-38.704
			c-11.105-13.389-28.583-19.43-52.422-18.129c-1.308,5.228-3.023,8.5-5.145,9.8c-2.129,1.308-5.389,1.884-9.797,1.715
			c-4.409-0.163-9.393-1.386-14.941-3.676c-5.559-2.279-8.498-7.02-8.82-14.207c-7.518,3.919-8.741,10.125-3.674,18.615
			c5.061,8.498,20.983,17.318,47.77,26.458c18.287-4.899,18.937-3.918,1.96,2.94c14.696,2.615,14.696,3.596,0,2.941l-0.979,2.94
			c10.449,8.169,9.629,9.147-2.451,2.938c-6.536,3.598-11.27,10.29-14.207,20.087c-5.88,15.358-6.859,13.888-2.939-4.408
			c2.279-8.489,7.02-15.679,14.207-21.557c-10.457-2.941-22.865-8.331-37.234-16.17c-11.108-6.858-16.497-15.676-16.168-26.455
			c1.301-10.449,7.511-15.019,18.619-13.719c21.558,3.919,35.435,5.721,41.645,5.389c6.2-0.322,13.144,0,20.821,0.98
			c7.671,0.979,15.596,5.387,23.76,13.227l4.901-3.429c3.263-2.28,5.306-3.264,6.124-2.941c0.809,0.33-0.086,2.288-2.697,5.879
			c-2.937,3.27-4.408,5.068-4.408,5.389c4.897,6.858,8.818,13.803,11.76,20.822C469.5,435.008,471.459,442.762,472.438,451.25z
			 M369.553,258.217c-6.208,1.96-11.76,2.131-16.657,0.493C359.097,258.058,364.656,257.897,369.553,258.217z M368.085,255.281
			c-3.27,0-5.474,0.084-6.615,0.243c-1.147,0.167-3.674-0.076-7.594-0.735C360.405,253.488,365.145,253.647,368.085,255.281z
			 M368.574,294.963c-3.27,0-5.473,0.084-6.613,0.245c-1.146,0.169-3.674-0.076-7.595-0.733
			C360.898,293.171,365.635,293.332,368.574,294.963z M369.553,298.393c-5.556,0.658-10.455,0.488-14.697-0.49
			C357.137,296.921,362.037,297.09,369.553,298.393z M370.043,560.016c-9.476,1.961-12.246,2.038-8.328,0.247
			c3.92-1.802,10.938-3.27,21.068-4.413c10.117-1.146,18.693-0.732,25.72,1.226c7.021,1.959,4.654,2.283-7.104,0.979
			C393.561,557.726,383.104,558.377,370.043,560.016z M367.596,568.834c-6.86-0.977-8.82-1.638-5.881-1.962
			c2.941-0.325,7.352-0.488,13.227-0.488c5.879,0,11.592-0.169,17.15-0.489c5.55-0.331,5.794,0.077,0.734,1.226
			C387.758,568.26,379.352,568.834,367.596,568.834z M375.434,402.747c13.061,3.269,19.919,0.33,20.577-8.818l-34.785-5.878
			C362.205,396.219,366.935,401.118,375.434,402.747z M406.301,299.862c-6.859,1.309-13.887,1.147-21.067-0.491
			C393.723,297.413,400.741,297.583,406.301,299.862z M398.458,244.5l5.882,1.47c-7.84,0.329-13.887,0-18.129-0.979
			C390.131,243.687,394.212,243.52,398.458,244.5z M397.48,249.889l3.432,0.98c-4.58,0.658-9.149,0.489-13.719-0.49
			C389.803,249.076,393.231,248.909,397.48,249.889z M405.81,293.495c0.979,0.329-0.821,0.657-5.391,0.98
			c-4.897,0.328-9.308-0.322-13.229-1.96C394.049,291.211,400.252,291.533,405.81,293.495z M448.924,263.118
			c-8.167,0.658-15.188,0.491-21.066-0.49l10.289-0.98L448.924,263.118z M449.412,304.272c-7.189,0-13.719-0.491-19.596-1.471
			c3.588-0.98,6.936-1.302,10.044-0.98C442.961,302.15,446.145,302.972,449.412,304.272z M450.88,308.681
			c-8.163,1.31-15.187,1.147-21.065-0.49c3.92-0.651,7.182-0.895,9.797-0.736C442.223,307.625,445.983,308.031,450.88,308.681z
			 M448.434,267.527c-3.6,0.657-9.639,0.33-18.13-0.98C436.186,265.244,442.223,265.566,448.434,267.527z"/>
	</g>
	<g enable-background="new    ">
		<path fill="#F44D8D" d="M397.59,677.266c1.969,0,4.082,0.022,6.352,0.064c2.263,0.043,4.508,0.173,6.732,0.384
			c2.224,0.214,4.297,0.537,6.221,0.964c1.926,0.428,3.572,1.065,4.939,1.924c2.992,1.796,5.535,4.276,7.631,7.439
			c2.095,3.166,3.145,7.055,3.145,11.672c0,4.874-1.18,9.087-3.531,12.634c-2.352,3.551-5.707,6.181-10.066,7.891v0.257
			c5.643,1.198,9.959,3.761,12.955,7.695c2.992,3.935,4.49,8.723,4.49,14.368c0,3.332-0.6,6.584-1.795,9.748
			c-1.199,3.161-2.975,5.963-5.324,8.398c-2.354,2.437-5.261,4.407-8.723,5.903c-3.463,1.495-7.459,2.242-11.993,2.242h-44.253
			v-91.585L397.59,677.266L397.59,677.266L397.59,677.266z M400.928,716.646c6.927,0,11.908-1.223,14.943-3.656
			c3.034-2.439,4.553-6.096,4.553-10.967c0-3.248-0.514-5.814-1.538-7.697s-2.438-3.338-4.233-4.362
			c-1.795-1.025-3.869-1.686-6.22-1.988c-2.353-0.296-4.854-0.449-7.504-0.449h-24.372v29.119L400.928,716.646L400.928,716.646
			L400.928,716.646z M407.084,758.592c5.387,0,9.598-1.452,12.632-4.359c3.036-2.905,4.558-6.928,4.558-12.061
			c0-2.987-0.559-5.472-1.668-7.438c-1.112-1.969-2.588-3.528-4.427-4.682c-1.839-1.155-3.955-1.968-6.349-2.436
			c-2.396-0.47-4.876-0.708-7.443-0.708h-27.833v31.684H407.084L407.084,758.592z"/>
	</g>
</g>
<g id="Layer_2">
</g>
</svg>
