<?xml version="1.0" encoding="utf-8"?>
<!-- Generator: Adobe Illustrator 16.0.0, SVG Export Plug-In . SVG Version: 6.00 Build 0)  -->
<!DOCTYPE svg PUBLIC "-//W3C//DTD SVG 1.1//EN" "http://www.w3.org/Graphics/SVG/1.1/DTD/svg11.dtd">
<svg version="1.1" xmlns="http://www.w3.org/2000/svg" xmlns:xlink="http://www.w3.org/1999/xlink" x="0px" y="0px" width="768px"
	 height="800px" viewBox="0 0 768 800" enable-background="new 0 0 768 800" xml:space="preserve">
<g id="Layer_1">
	<g>
		<path fill="#CB394D" d="M416.643,613.691c2.861,3.979,4.295,8.739,4.295,14.282c0,5.713-1.445,10.305-4.334,13.774
			c-1.615,1.947-3.992,3.725-7.137,5.332c4.775,1.735,8.379,4.486,10.809,8.252c2.43,3.767,3.645,8.337,3.645,13.711
			c0,5.544-1.389,10.517-4.166,14.917c-1.766,2.92-3.975,5.375-6.625,7.363c-2.988,2.285-6.512,3.852-10.572,4.697
			c-4.061,0.847-8.467,1.27-13.221,1.27h-42.159v-93.564h45.215C403.803,603.896,411.885,607.217,416.643,613.691z M365.839,619.976
			v20.63h22.741c4.062,0,7.359-0.771,9.895-2.317c2.533-1.544,3.801-4.284,3.801-8.22c0-4.358-1.676-7.236-5.025-8.633
			c-2.891-0.973-6.576-1.46-11.057-1.46H365.839z M365.839,656.094v24.946h22.715c4.057,0,7.217-0.55,9.475-1.65
			c4.1-2.031,6.15-5.924,6.15-11.68c0-4.866-1.988-8.209-5.961-10.029c-2.219-1.016-5.334-1.544-9.35-1.587H365.839z"/>
	</g>
</g>
<g id="Layer_2">
	<g>
		<path fill="none" stroke="#DDE5CE" stroke-width="6.3972" stroke-miterlimit="10" d="M448.327,534.018
			c-14.299-19.536-11.201-54.213,3.044-75.499c24.112-36.004,26.956-70.036,35.833-115.544c1.152-5.871-15.124-17.202-14.73-22.243
			c2.916-37.725-48.583-191.051-51.537-224.567c-1.904-21.608-14.042-34.583-27.178-32.844
			c-14.084,4.132-17.377,15.915-18.039,24.713c-1.128-16.648-13.018-47.798-25.783-50.337
			c-14.214-2.834-20.813,31.973-20.163,44.243c0.36-5.292-4.181-24.728-24.258-22.958c-21.963,6.574-13.131,44.429-15.172,70.122
			c-18.776-22.608-31.907-5.953-32.956,7.325c-0.556,7.033-6.006,61.875-2.089,106.166c0.753,8.604-9.578,30.713-10.963,46.834
			c-5.67,65.962-10.043,131.872,15.089,193.604c5.11,12.558,20.923,20.79,29.348,31.31c12.925,16.105,0.267,41.252,2.023,62.949"/>
		<path fill="none" stroke="#DDE5CE" stroke-width="6.3972" stroke-miterlimit="10" d="M344.603,270.517
			c0.178,34.256,30.48,34.736,50.901,50.87c6.893,5.448,0.62,12.485-1.616,25.195c-1.826,10.306,15.681,14.667,17.224,27.282"/>
		<path fill="none" stroke="#DDE5CE" stroke-width="6.3972" stroke-miterlimit="10" d="M473.773,323.754
			c-6.41-6.736-16.714-10.394-19.9-15.356c-19.853-30.864-21.66-42.414-38.617-45.685c-14.858-2.861-24.106-2.074-23.272,8.69
			c0.483,6.2-35.679,3.975-47.381-0.886"/>
		<path fill="none" stroke="#DDE5CE" stroke-width="6.3972" stroke-miterlimit="10" d="M392.743,320.211
			c4.35,1.714,14.181-2.55,21.965-6.386"/>
		<path fill="none" stroke="#DDE5CE" stroke-width="6.3972" stroke-miterlimit="10" d="M395.318,337.536
			c-36.861,30.182-25.486,89.935-56.142,123.368"/>
		<path fill="none" stroke="#DDE5CE" stroke-width="6.3972" stroke-miterlimit="10" d="M371.767,308.184
			c-19.716,20.312-50.341,23.149-76.977,29.875"/>
		<path fill="none" stroke="#DDE5CE" stroke-width="6.3972" stroke-miterlimit="10" d="M396.025,262.56
			c-15.593,1.382-36.902-8.204-51.328,6.114"/>
		<path fill="none" stroke="#DDE5CE" stroke-width="6.3972" stroke-miterlimit="10" d="M375.72,88.034
			c-0.922,9.326,6.261,57.819,10.842,63.781c-1.389,10.512,3.329,44.201,8.877,54.694c-1.124,13.383,2.326,32.739,4.973,36.555
			c2.651,3.805,7.185,2.832,7.185,2.832"/>
		<path fill="none" stroke="#DDE5CE" stroke-width="6.3972" stroke-miterlimit="10" d="M400.412,243.063
			c0,0-2.616,3.112-6.686,2.891"/>
		<path fill="none" stroke="#DDE5CE" stroke-width="6.3972" stroke-miterlimit="10" d="M329.774,81.939
			c1.252,10.625,1.172,42.416,5.28,49.575c-0.18,10.988-2.58,55.705,2.97,66.192c-1.38,10.536,1.142,39.202,4.534,44.688
			l7.396-1.235"/>
		
			<line fill="none" stroke="#DDE5CE" stroke-width="6.3972" stroke-miterlimit="10" x1="342.558" y1="242.395" x2="335.389" y2="246.492"/>
		<path fill="none" stroke="#DDE5CE" stroke-width="6.3972" stroke-miterlimit="10" d="M290.344,129.103
			c0.285,9.809,0.974,50.195,6.985,59.495c0,0-5.512,42.099-2.347,51.652l8.369,3.299"/>
		
			<line fill="none" stroke="#DDE5CE" stroke-width="6.3972" stroke-miterlimit="10" x1="294.982" y1="240.25" x2="289.49" y2="243.62"/>
	</g>
</g>
</svg>
