<svg version="1.1" xmlns="http://www.w3.org/2000/svg" xmlns:xlink="http://www.w3.org/1999/xlink" viewBox="0 0 768 975" enable-background="new 0 0 768 975" xml:space="preserve">
<g id="circle">
	<circle fill="#DDE5CE" cx="384.51" cy="731.426" r="125.426"/>
</g>
<g id="cc">
	<g>
		<path fill="#CB394D" d="M369.984,700.099c-3.635-2.533-7.95-3.8-12.95-3.8c-4.267,0-7.917,0.8-10.95,2.399
			c-3.034,1.601-5.534,3.75-7.5,6.45c-1.967,2.7-3.417,5.784-4.35,9.25c-0.935,3.467-1.4,7.067-1.4,10.8
			c0,4.067,0.466,7.917,1.4,11.55c0.933,3.635,2.383,6.801,4.35,9.5c1.966,2.7,4.483,4.851,7.55,6.45c3.065,1.601,6.733,2.4,11,2.4
			c3.133,0,5.916-0.516,8.35-1.55c2.433-1.033,4.533-2.466,6.3-4.301c1.766-1.832,3.15-4.016,4.15-6.55c1-2.532,1.6-5.266,1.8-8.2
			h9.5c-0.935,9-4.035,16-9.3,21c-5.267,5-12.467,7.5-21.6,7.5c-5.534,0-10.367-0.949-14.5-2.85c-4.134-1.9-7.567-4.516-10.3-7.85
			c-2.734-3.333-4.784-7.266-6.15-11.801c-1.367-4.532-2.05-9.399-2.05-14.6s0.733-10.083,2.2-14.65
			c1.466-4.565,3.616-8.55,6.45-11.949c2.833-3.4,6.365-6.083,10.6-8.051c4.233-1.965,9.083-2.949,14.55-2.949
			c3.733,0,7.266,0.5,10.6,1.5c3.333,1,6.3,2.467,8.9,4.399c2.6,1.935,4.766,4.351,6.5,7.25c1.733,2.9,2.866,6.25,3.4,10.05h-9.5
			C375.967,706.433,373.617,702.633,369.984,700.099z"/>
		<path fill="#EA5F72" d="M433.532,718.698c-2.134-1.8-5-2.7-8.6-2.7c-3.067,0-5.635,0.567-7.7,1.7
			c-2.067,1.135-3.717,2.635-4.95,4.5c-1.234,1.867-2.117,4.018-2.649,6.45c-0.535,2.435-0.801,4.95-0.801,7.55
			c0,2.4,0.283,4.734,0.851,7c0.565,2.268,1.45,4.284,2.649,6.05c1.2,1.768,2.766,3.185,4.7,4.25c1.933,1.067,4.233,1.601,6.9,1.601
			c4.2,0,7.482-1.101,9.85-3.3c2.366-2.2,3.815-5.301,4.351-9.301h8.699c-0.934,6.4-3.316,11.335-7.149,14.801
			c-3.835,3.467-9.05,5.199-15.65,5.199c-3.935,0-7.417-0.634-10.45-1.899c-3.034-1.266-5.566-3.065-7.6-5.4
			c-2.034-2.333-3.567-5.115-4.6-8.35c-1.035-3.233-1.551-6.783-1.551-10.65c0-3.865,0.5-7.482,1.5-10.85
			c1-3.366,2.516-6.3,4.551-8.8c2.032-2.5,4.582-4.466,7.649-5.9c3.065-1.433,6.633-2.15,10.7-2.15c2.933,0,5.683,0.351,8.25,1.051
			c2.565,0.699,4.833,1.784,6.8,3.25c1.966,1.467,3.583,3.316,4.851,5.55c1.266,2.234,2.065,4.884,2.399,7.95h-8.8
			C437.065,723.033,435.665,720.498,433.532,718.698z"/>
	</g>
</g>
<g id="c">
	<g>
		<path fill="none" stroke="#DDE5CE" stroke-width="5" stroke-miterlimit="10" d="M390.099,583.822
			c17.508-39.39,32.002-80.976,37.944-90.321c52.059-21.427,89.829-72.469,132.441-107.363
			c13.091-10.721,24.434-21.49,33.663-35.908c5.875-9.176,8.368-17.105,16.227-24.217c6.173-5.587,11.662-14.741,8.966-23.341
			c-7.173-22.87-40.86-11.604-54.064-2.656c-22.34,15.14-24.664,36.489-19.407,61.92c-4.539-12.619-2.288-25.472-1.501-38.432
			c-11.191,4.227-35.811,13.704-39.245,26.631c-6.333-18.637-27.721-30.794-35.635-49.448c-5.525-13.024-8.9-27.192-12.515-40.827
			c-7.59-28.636-21.417-65.811-17.492-95.874c1.94-16.671,11.563-13.58,22.586-22.836c8.324-6.991,28.1-26.107,24.051-38.89
			c-3.103-9.796-29.16-16.839-35.744-7.748c-1.221,1.686-32.158,1.644-38.669,3.743c-7.276,2.346-14.682,5.693-20.221,11.101
			c-6.546,6.391-4.85,6.463-13.433,8.975c-14.504,4.246-36.563,18.608-37.448,35.49c-0.427,8.149-22.457,24.478-28.408,32.122
			c-9.782,12.564-21.888,28.273-23.716,44.655c-6.477,58.043,0.566,119.433,1.901,177.677c0.356,15.539,2.327,32.288,0.342,47.776
			c-17.527,22.882-36.351,55.044-40.788,83.766"/>
		<path fill="none" stroke="#DDE5CE" stroke-width="5" stroke-miterlimit="10" d="M412.642,342.155
			c-15.452,26.603-6.942,55.514-14.488,83.922c-3.928,14.789-2.798,44.139,13.647,51.406"/>
		<path fill="none" stroke="#DDE5CE" stroke-width="5" stroke-miterlimit="10" d="M308.917,494.032
			c7.232,5.836,47.922,21.509,55.005,5.842"/>
		<path fill="none" stroke="#DDE5CE" stroke-width="5" stroke-miterlimit="10" d="M508.401,422.202
			c-14.358-29.089-2.816-69.21-22.401-95.702"/>
		<path fill="none" stroke="#DDE5CE" stroke-width="5" stroke-miterlimit="10" d="M340.821,157.29
			c15.849-20.807,40.69-16.754,31.51,12.045c-5.42,17.002-23.303,45.144-43.459,31.105"/>
		<path fill="none" stroke="#DDE5CE" stroke-width="5" stroke-miterlimit="10" d="M347.172,206.763
			c-0.195,6.288-4.576,31.941-28.96,26.44"/>
		<path fill="none" stroke="#DDE5CE" stroke-width="5" stroke-miterlimit="10" d="M338.25,230c0.225,8.34,5.936,55.941-8.625,59.382
			"/>
		<path fill="none" stroke="#DDE5CE" stroke-width="5" stroke-miterlimit="10" d="M387.483,118.639
			c10.689,2.839,19.062,4.501,29.302,0.788c9.952-3.608,26.558-5.46,26.021,9.895c-1.048,30.026-45.292,37.374-66.057,24.429"/>
		<path fill="none" stroke="#DDE5CE" stroke-width="5" stroke-miterlimit="10" d="M398.739,159.505
			c-2.03,5.801-17.673,20.662-29.667,27.232"/>
		<path fill="none" stroke="#DDE5CE" stroke-width="5" stroke-miterlimit="10" d="M373.25,186.491
			c-1.234,6.492-4.885,41.499-16.154,45.34"/>
		<path fill="none" stroke="#DDE5CE" stroke-width="5" stroke-miterlimit="10" d="M422.5,96.75
			c12.872-0.557,38.039,5.359,48.154,13.936c21.549,18.271-21.848,40.578-37.617,39.087"/>
		<path fill="none" stroke="#DDE5CE" stroke-width="5" stroke-miterlimit="10" d="M449.415,102.756
			c-23.548,9.511,12.196,24.5,23.593,12.114"/>
		<path fill="none" stroke="#DDE5CE" stroke-width="5" stroke-miterlimit="10" d="M482.494,99.343
			c-2.208,16.469-38.17,0.256-28.957-4.762"/>
		<path fill="none" stroke="#DDE5CE" stroke-width="5" stroke-miterlimit="10" d="M433.979,118.639
			c-2.369,5.227-32.196,20.223-25.802,5.335"/>
		<path fill="none" stroke="#DDE5CE" stroke-width="5" stroke-miterlimit="10" d="M437.39,166.358
			c-5.009-1.33-14.777,2.416-19.335,1.206"/>
		<path fill="none" stroke="#DDE5CE" stroke-width="5" stroke-miterlimit="10" d="M408.211,160.56
			c-1.539,3.981-12.655,53.202-20.728,57.884"/>
		<path fill="none" stroke="#DDE5CE" stroke-width="5" stroke-miterlimit="10" d="M433.037,213.963
			c-10.023-2.663-27.867,5.766-35.094,7.259"/>
	</g>
</g>
</svg>
