<svg version="1.1" xmlns="http://www.w3.org/2000/svg" xmlns:xlink="http://www.w3.org/1999/xlink" viewBox="0 -275 768 980" enable-background="new 0 -275 768 980" xml:space="preserve">
<g id="Layer_1">
	<circle fill="#DDF2F2" cx="398.901" cy="427.135" r="97.791"/>
	<polyline fill="none" points="274.486,288.37 274.486,-152.5 702.39,-152.5 702.39,288.37 	"/>
	<g enable-background="new    ">
		<path fill="#DDF2F2" d="M378.061,281.047h-6.809c0-21.721-0.243-36.552-0.729-44.491c-0.486-7.949-5.76-18.721-15.803-32.336
			c-13.293-17.826-22.694-40.679-28.202-68.562c-2.918-18.152-5.028-36.466-6.322-54.947c-1.298-18.476-0.972-41.816,0.973-70.019
			c-5.835,4.863-12.24,5.591-19.207,2.187c-6.974-3.402-9.32-10.773-7.052-22.123c3.891-12.316,7.781-21.226,11.672-26.743
			c3.888-5.511,8.098-8.669,12.642-9.483c4.537-0.805,9.072,0.246,13.617,3.162c4.533-6.807,8.75-11.344,12.642-13.615
			c3.891-2.264,7.781-3.404,11.669-3.404c3.889,0,7.94,1.14,12.156,3.404c7.781-10.696,19.283-15.878,34.524-15.56
			c4.537,0.326,8.102,1.137,10.697,2.431c2.59,1.299,5.021,3.244,7.295,5.836c3.236-1.292,7.938-1.618,14.1-0.973
			c14.588,0.654,28.445,15.725,41.574,45.221c13.128,29.503,19.693,57.379,19.693,83.636l-0.486,135.664l7.781,80.72h-7.781
			c-1.945-24.968-3.647-42.716-5.106-53.246c-1.458-10.538-2.429-21.957-2.916-34.28c-0.488-12.318-0.568-32.253-0.245-59.811
			c0.319-33.384,0.319-58.837,0-76.34c-0.973-19.125-5.027-37.929-12.155-56.409c-14.269-37.272-27.558-56.406-39.872-57.376
			c-4.546-0.973-9.079-0.973-13.617,0c-5.834,3.569-10.861,8.265-15.072,14.099c3.891,0,7.453,0.328,10.696,0.972
			c2.263,0.973,3.077,4.376,2.432,10.213c-1.946,6.806-3.89,10.779-5.836,11.913c-1.945,1.14-8.267,1.383-18.964,0.729
			c-4.219,11.35-0.328,16.532,11.669,15.56c16.535-0.973,29.335-11.344,38.415-31.12l-0.973,8.268l-3.889,8.754
			c3.234-0.319,5.836-0.319,7.779,0c10.371,1.298,8.914,2.431-4.375,3.402c-3.572,0.328-6.164,1.543-7.781,3.647
			c-1.626,2.112-5.03,4.948-10.21,8.508c11.344,9.727,15.876,14.589,13.614,14.589c-2.271,0-7.134-3.564-14.588-10.699
			c1.618,14.913,0.162,14.101-4.376-2.432c-8.106,2.597-14.831,3.487-20.178,2.672c-5.35-0.803-8.836-3.319-10.456-7.535
			c-2.597,4.544-1.214,8.593,4.134,12.156c5.35,3.568,3.647,3.729-5.106,0.484c0.319,10.699,0,13.373-0.97,8.026
			c-0.973-5.352-2.432-9.483-4.377-12.4c-9.08,7.134-16.858,7.62-23.341,1.458c1.622,3.569,2.996,7.052,4.134,10.454
			c1.131,3.404-0.729,7.052-5.593,10.942c-3.244,1.626-3.569,0.812-0.973-2.431c2.592-3.237,1.461-11.016-3.402-23.341
			c-2.272,5.514-5.106,8.676-8.51,9.48c-3.404,0.812-6.648,0.895-9.727,0.241c-3.085-0.645-5.76-2.916-8.021-6.806
			c-3.891,50.249-2.11,95.472,5.347,135.662c4.538,21.396,11.018,38.256,19.451,50.575c8.425,12.321,14.419,21.879,17.994,28.688
			c3.562,6.807,5.507,14.745,5.833,23.825C377.893,251.219,378.061,264.188,378.061,281.047z M322.627-2.438
			c-4.542,0.973-8.593,1.459-12.156,1.459c-3.569,0-7.135-0.643-10.697-1.945c-0.326,5.514,2.264,9.079,7.781,10.696
			C317.28,8.745,322.301,5.341,322.627-2.438z M323.6-18.484c-4.218-3.237-9.894-4.209-17.019-2.918l-3.404,6.809l-3.404,10.21
			c5.51,2.271,13.128,2.599,22.853,0.971C322.301-8.272,322.627-13.295,323.6-18.484z M307.067-22.859
			c7.127-0.972,12.644,0,16.532,2.918c1.292-6.48,3.404-11.991,6.32-16.533c-4.544-3.236-8.675-3.647-12.398-1.215
			C313.791-35.26,310.304-30.314,307.067-22.859z M348.399-9.244l3.889-0.972c0-5.508,0.489-10.044,1.459-13.615
			c-3.246-0.647-6.731-1.049-10.455-1.216c-3.729-0.161-7.703,0.085-11.912,0.73l-0.973,3.404l-0.489,5.835v4.38l5.836,1.459
			l6.322,0.484L348.399-9.244z M352.288-8.76c-7.779,1.948-15.241,1.787-22.369-0.484c0,4.863,1.292,8.433,3.891,10.697
			c2.59,2.273,5.912,3.085,9.967,2.432C347.829,3.237,350.662-0.979,352.288-8.76z M354.233-25.29
			c3.237-10.697,6.967-18.964,11.183-24.8c-12.323-6.48-23.508,1.626-33.552,24.312c2.265-0.319,4.21-0.56,5.836-0.729
			c1.62-0.161,3.161-0.244,4.62-0.244s3.079,0.167,4.861,0.489C348.959-25.938,351.315-25.609,354.233-25.29z M380.492-19.457
			c-0.973,4.863-2.675,7.705-5.106,8.511c-2.432,0.812-7.703,1.214-15.803,1.214c0.319,5.517,2.264,9.162,5.835,10.939
			c3.565,1.787,7.454,1.702,11.671-0.241c4.21-1.947,8.426-8.268,12.643-18.964c4.21-16.532,12.644-30.466,25.284-41.816
			c-1.943-3.239-7.295-4.863-16.047-4.863c-8.751,0.97-15.644,4.055-20.666,9.235c-5.028,5.192-9.481,12.158-13.371,20.912
			c5.507,0,9.556,0.325,12.155,0.972c2.59,0.654,4.049,2.271,4.377,4.864C381.781-26.098,381.465-23.019,380.492-19.457z
			 M379.52-21.888c1.292-5.833,0.319-9.238-2.918-10.21c-3.571-0.646-7.62-0.973-12.158-0.973
			c-1.624,4.544-2.757,8.107-3.404,10.697c-0.652,2.599-1.138,6.319-1.459,11.183c9.398,0,14.83-0.56,16.29-1.7
			C377.332-14.022,378.547-17.025,379.52-21.888z M387.787,219.293l-4.377-0.483c20.742-2.921,27.39-3.244,19.937-0.973
			L387.787,219.293z M413.071,77.795c-5.836-1.948-10.623-1.778-14.344,0.484c-3.732,2.273-5.435,6.648-5.107,13.13
			c0.319,6.488,2.59,12.323,6.807,17.505c19.452,21.396,32.254,36.392,38.415,44.977c6.154,8.594,6.154,10.137,0,4.621
			c-6.161-5.508-12.481-11.183-18.963-17.02c-2.92,3.246-5.92,7.296-8.997,12.157c-3.084,4.863-4.218,10.699-3.403,17.505
			c0.805,6.809,0.16,8.265-1.945,4.377c-2.112-3.891-3.001-8.995-2.675-15.319c0.318-6.32,4.537-14.177,12.645-23.582
			c-9.727-10.371-17.02-18.478-21.883-24.314c-4.862-5.833-7.377-13.127-7.537-21.882c-0.167-8.751,2.59-14.908,8.267-18.478
			c5.669-3.563,13.448-3.478,23.339,0.243c9.885,3.73,23.259,9.162,40.117,16.29c4.861-4.538,8.185-7.538,9.969-8.995
			c1.779-1.459,2.918-1.702,3.404-0.727c0.486,0.967-2.186,5.514-8.021,13.612c3.562,3.246,8.426,9.726,14.587,19.45
			c6.155,9.727,6.48,11.839,0.974,6.323c-5.516-5.51-10.697-10.942-15.561-16.292c-4.861-5.348-13.296-9.967-25.284-13.857
			c-1.945,7.137-4.62,12.401-8.024,15.805c-3.404,3.403-7.049,4.618-10.939,3.646c-3.891-0.97-7.293-2.589-10.213-4.86
			c-2.918-2.267-4.059-5.751-3.404-10.459C405.937,87.443,408.526,82.659,413.071,77.795z M413.558-40.366l-6.32-0.487l-5.836,9.727
			l-4.861,11.183h14.588c3.562,0.329,6.32-3.564,8.268-11.671C420.683-37.448,418.737-40.366,413.558-40.366z M430.576,225.129
			c2.915-0.652-2.432-1.216-16.048-1.704c-13.615-0.483-17.832-0.082-12.643,1.216L430.576,225.129z M428.145,229.506
			c3.889-1.298-0.489-2.112-13.128-2.431c-12.645-0.329-16.373,0-11.186,0.973L428.145,229.506z M436.409,87.033
			c-4.862-1.945-8.918-3.562-12.155-4.863c-3.245-1.292-6.489-2.591-9.726-3.891c-5.516,6.808-8.189,12.155-8.023,16.048
			c0.162,3.888,1.535,6.564,4.135,8.022c2.59,1.461,5.593,2.599,8.994,3.404c3.404,0.812,6.48-0.319,9.24-3.404
			C431.625,99.273,434.139,94.167,436.409,87.033z M443.704,216.862c4.21,0.646,4.375,1.294,0.486,1.947
			c-1.945-0.328-6.404-0.328-13.371,0c-6.974,0.319-11.268,0.241-12.885-0.243c-1.629-0.487,1.291-1.055,8.75-1.704
			C435.438,216.208,441.105,216.208,443.704,216.862z M453.915,114.263c-1.943,4.863-4.703,8.753-8.268,11.669
			c0.32-3.563,1.049-5.994,2.191-7.295C448.97,117.345,450.999,115.889,453.915,114.263z M458.292,117.181
			c-1.947,5.188-5.031,9.08-9.24,11.669c0-2.264,1.049-4.376,3.161-6.322C454.319,120.587,456.347,118.806,458.292,117.181z"/>
	</g>
	<g enable-background="new    ">
		<path fill="#F44D8D" d="M420.056,390.233c-4.627-3.223-10.121-4.839-16.488-4.839c-5.432,0-10.078,1.022-13.938,3.057
			c-3.863,2.039-7.046,4.774-9.549,8.212c-2.503,3.438-4.35,7.364-5.535,11.776c-1.191,4.414-1.782,8.997-1.782,13.748
			c0,5.178,0.591,10.079,1.782,14.706c1.187,4.627,3.032,8.656,5.535,12.094c2.505,3.437,5.708,6.174,9.613,8.211
			c3.903,2.039,8.572,3.055,14.005,3.055c3.989,0,7.53-0.657,10.63-1.973c3.099-1.313,5.771-3.137,8.021-5.473
			c2.246-2.333,4.009-5.112,5.283-8.338c1.271-3.224,2.037-6.703,2.291-10.44h12.093c-1.188,11.457-5.136,20.369-11.839,26.734
			c-6.706,6.366-15.872,9.549-27.499,9.549c-7.048,0-13.199-1.209-18.46-3.629c-5.265-2.42-9.633-5.746-13.113-9.994
			c-3.48-4.24-6.091-9.249-7.83-15.022c-1.74-5.769-2.61-11.966-2.61-18.585c0-6.62,0.931-12.835,2.8-18.649
			c1.867-5.813,4.602-10.888,8.212-15.216c3.604-4.328,8.104-7.743,13.494-10.249c5.388-2.5,11.563-3.754,18.522-3.754
			c4.754,0,9.249,0.637,13.497,1.909c4.243,1.271,8.02,3.142,11.33,5.602c3.308,2.466,6.065,5.537,8.274,9.231
			c2.208,3.691,3.649,7.957,4.327,12.796h-12.093C427.672,398.301,424.681,393.462,420.056,390.233z"/>
	</g>
</g>
<g id="Layer_2">
</g>
</svg>
