<?xml version="1.0" encoding="utf-8"?>
<!-- Generator: Adobe Illustrator 16.0.0, SVG Export Plug-In . SVG Version: 6.00 Build 0)  -->
<!DOCTYPE svg PUBLIC "-//W3C//DTD SVG 1.1//EN" "http://www.w3.org/Graphics/SVG/1.1/DTD/svg11.dtd">
<svg version="1.1" xmlns="http://www.w3.org/2000/svg" xmlns:xlink="http://www.w3.org/1999/xlink" x="0px" y="0px" width="768px"
	 height="800px" viewBox="0 0 768 800" enable-background="new 0 0 768 800" xml:space="preserve">
<g id="Layer_1">
	<g>
		<path fill="#CB394D" d="M339.693,662.215C350.922,650.739,365.208,645,382.551,645c23.205,0,40.172,7.693,50.902,23.079
			c5.93,8.639,9.107,17.309,9.547,26.011h-29.133c-1.854-6.684-4.234-11.729-7.137-15.134c-5.188-6.054-12.881-9.08-23.07-9.08
			c-10.379,0-18.565,4.272-24.557,12.815c-5.992,8.546-8.987,20.637-8.987,36.273c0,15.639,3.161,27.352,9.484,35.14
			c6.321,7.788,14.356,11.681,24.101,11.681c9.992,0,17.611-3.342,22.855-10.026c2.896-3.595,5.303-8.985,7.215-16.174h28.943
			c-2.494,15.197-8.875,27.556-19.137,37.077c-10.262,9.522-23.406,14.282-39.439,14.282c-19.837,0-35.434-6.432-46.787-19.295
			c-11.353-12.927-17.03-30.646-17.03-53.157C320.322,694.153,326.78,675.394,339.693,662.215z"/>
	</g>
</g>
<g id="Layer_2">
</g>
<g id="Layer_3">
	<g>
		<path fill="none" stroke="#DDE5CE" stroke-width="7.5907" stroke-miterlimit="10" d="M311.559,550
			c25.515-38.196,48.261-79.248,56.196-87.986c30.781-6.877,120.167-61.993,123.598-67.056c3.423-5.061,44.063-26.205,53.733-32.809
			c9.671-6.606,28.431-23.419,36.9-39.44c16.879-5.5,32.343-27.146,10.766-40.36c-21.562-13.208-50.707,2.152-62.554,11.079
			c-11.835,8.939-15.566,31.54-14.896,51.741c-2.762-15.646,3.03-30.663,5.376-40.63c-8.471,1.626-41.422,10.818-46.032,20.863
			c-1.697-10.729-23.244-36.082-28.472-58.383c-5.237-22.288-13.674-126.726-6.774-148.991c0,0,4.034-13.611,8.951-14.675
			c14.527,4.457,52.971-28.73,51.197-41.712c-1.78-12.969-34.471-22.443-37.291-12.686c-7.237-8.295-58.767-10.396-70.657,10.68
			c-10.954-5.027-54.854,12.393-54.599,33.504c-15.226,1.862-58.849,41.52-67.489,65.181c-8.66,23.65-34.731,224.985-39.196,239.511
			c-9.582,8.864-48.99,53.769-57.995,80.588"/>
		<path fill="none" stroke="#DDE5CE" stroke-width="7.5907" stroke-miterlimit="10" d="M378.969,300.284
			c-7.349,8.78-17.126,25.287-18.854,41.083c-1.715,15.786-6.518,33.467-11.548,44.428c-5.025,10.948-11.053,45.765,5.026,56.458"/>
		<path fill="none" stroke="#DDE5CE" stroke-width="7.5907" stroke-miterlimit="10" d="M242.554,441.013
			c6.537,7.438,46.434,31.26,56.706,16.09"/>
		<path fill="none" stroke="#DDE5CE" stroke-width="7.5907" stroke-miterlimit="10" d="M465.048,401.677
			c-3.031-10.241-4.766-35.342-2.47-47.559c2.277-12.216,2.377-36.493-3.398-47.976"/>
		<path fill="none" stroke="#DDE5CE" stroke-width="7.5907" stroke-miterlimit="10" d="M339.873,91.699
			c6.762-6.293,23.528-15.172,31.019-6.204c7.487,8.958-4.061,32.947-15.662,42.532c-11.58,9.611-21.857,24.788-38.589,8.268"/>
		<path fill="none" stroke="#DDE5CE" stroke-width="7.5907" stroke-miterlimit="10" d="M334.716,146.246
			c-1.343,6.569-10.586,32.718-35.197,22.525"/>
		<path fill="none" stroke="#DDE5CE" stroke-width="7.5907" stroke-miterlimit="10" d="M325.443,171.287
			c-1.272,8.797-8.194,57.575-24.105,58.551"/>
		<path fill="none" stroke="#DDE5CE" stroke-width="7.5907" stroke-miterlimit="10" d="M391.601,59.635
			c5.013,2.3,22.368,10.265,25.709,9.025c3.316-1.235,31.409-8.243,32.21,9.26c0.816,17.503-26.339,32.118-36.07,30.417
			c-9.703-1.695-32.941-9.212-38.036-13.753"/>
		<path fill="none" stroke="#DDE5CE" stroke-width="7.5907" stroke-miterlimit="10" d="M397.424,105.95
			c-3.183,5.726-22.299,18.5-36.085,23.234"/>
		<path fill="none" stroke="#DDE5CE" stroke-width="7.5907" stroke-miterlimit="10" d="M368.112,130.082
			c-2.471,6.59-14.983,42.297-27.511,44.288"/>
		<path fill="none" stroke="#DDE5CE" stroke-width="7.5907" stroke-miterlimit="10" d="M431.814,45.481
			c8.334,1.067,25.403,7.238,29.099,10.042c7.183-0.023,33.514,14.826,22.334,29.588c-11.192,14.757-31.196,21.041-45.951,17.042"/>
		<path fill="none" stroke="#DDE5CE" stroke-width="7.5907" stroke-miterlimit="10" d="M459.615,57.13
			c-4.911,1.067-14.442,4.987-7.967,10.161c8.071,6.461,23.309,11.806,31.852,5.221"/>
		<path fill="none" stroke="#DDE5CE" stroke-width="7.5907" stroke-miterlimit="10" d="M496.271,57.926
			c-1.213,3.871-7.177,7.212-13.319,4.939c-6.132-2.26-28.678-10.943-16.229-15.18"/>
		<path fill="none" stroke="#DDE5CE" stroke-width="7.5907" stroke-miterlimit="10" d="M441.828,69.406
			c-3.433,5.063-37.472,15.412-28.062,0.937"/>
		<path fill="none" stroke="#DDE5CE" stroke-width="7.5907" stroke-miterlimit="10" d="M436.772,120.142
			c-5.019-2.304-15.955-0.137-20.523-2.232"/>
		<path fill="none" stroke="#DDE5CE" stroke-width="7.5907" stroke-miterlimit="10" d="M407.18,108.772
			c-2.336,3.902-22.917,53.581-32.246,57.041"/>
		<path fill="none" stroke="#DDE5CE" stroke-width="7.5907" stroke-miterlimit="10" d="M423.586,169.349
			c-10.044-4.61-30.31,1.016-38.168,1.275"/>
	</g>
	<g>
		<path fill-rule="evenodd" clip-rule="evenodd" fill="#3F9C8A" d="M722.848,662.462c-14.082,0-27.756,0-41.618,0
			c-2.219,7.602-6.897,13.311-14.333,16.535c-5.33,2.31-10.856,2.575-16.467,1.037c-10.729-2.945-18.564-13.65-17.951-24.522
			c0.688-12.288,8.979-21.744,20.911-23.705c11.085-1.825,23.88,4.354,27.893,18.216c13.727,0,27.453,0,41.467,0
			c-0.469-0.553-0.733-0.909-1.037-1.219c-2.226-2.233-4.512-4.399-6.662-6.701c-3.218-3.43-2.249-8.343,1.983-10.1
			c2.476-1.021,4.801-0.409,6.655,1.423c6.238,6.156,12.447,12.342,18.58,18.604c2.385,2.438,2.301,6.064-0.22,8.653
			c-6.095,6.224-12.25,12.387-18.488,18.466c-2.628,2.567-6.376,2.332-8.859-0.257c-2.211-2.31-2.059-5.989,0.462-8.639
			c2.067-2.173,4.225-4.24,6.337-6.36C721.856,663.529,722.205,663.144,722.848,662.462z"/>
	</g>
	<g>
		<path fill-rule="evenodd" clip-rule="evenodd" fill="#3F9C8A" d="M44.597,662.462c14.082,0,27.756,0,41.618,0
			c2.219,7.602,6.897,13.311,14.333,16.535c5.33,2.31,10.856,2.575,16.467,1.037c10.729-2.945,18.564-13.65,17.951-24.522
			c-0.688-12.288-8.979-21.744-20.911-23.705c-11.085-1.825-23.88,4.354-27.893,18.216c-13.727,0-27.453,0-41.467,0
			c0.469-0.553,0.733-0.909,1.037-1.219c2.226-2.233,4.512-4.399,6.662-6.701c3.218-3.43,2.249-8.343-1.983-10.1
			c-2.476-1.021-4.801-0.409-6.655,1.423c-6.238,6.156-12.447,12.342-18.58,18.604c-2.385,2.438-2.301,6.064,0.22,8.653
			c6.095,6.224,12.25,12.387,18.488,18.466c2.628,2.567,6.376,2.332,8.859-0.257c2.211-2.31,2.059-5.989-0.462-8.639
			c-2.067-2.173-4.225-4.24-6.337-6.36C45.588,663.529,45.24,663.144,44.597,662.462z"/>
	</g>
</g>
</svg>
