<svg version="1.1" xmlns="http://www.w3.org/2000/svg" viewBox="0 0 768 975" enable-background="new 0 0 768 975" xml:space="preserve"><circle fill="#DDE5CE" cx="384.5" cy="731.4" r="125.4"/><path fill="#CB394D" d="M370 700.1c-3.6-2.5-7.9-3.8-12.9-3.8 -4.3 0-7.9 0.8-10.9 2.4 -3 1.6-5.5 3.8-7.5 6.5 -2 2.7-3.4 5.8-4.3 9.3 -0.9 3.5-1.4 7.1-1.4 10.8 0 4.1 0.5 7.9 1.4 11.6 0.9 3.6 2.4 6.8 4.4 9.5 2 2.7 4.5 4.9 7.6 6.5 3.1 1.6 6.7 2.4 11 2.4 3.1 0 5.9-0.5 8.4-1.5 2.4-1 4.5-2.5 6.3-4.3 1.8-1.8 3.2-4 4.2-6.5 1-2.5 1.6-5.3 1.8-8.2h9.5c-0.9 9-4 16-9.3 21 -5.3 5-12.5 7.5-21.6 7.5 -5.5 0-10.4-0.9-14.5-2.8 -4.1-1.9-7.6-4.5-10.3-7.8 -2.7-3.3-4.8-7.3-6.1-11.8 -1.4-4.5-2-9.4-2-14.6s0.7-10.1 2.2-14.6c1.5-4.6 3.6-8.5 6.5-11.9 2.8-3.4 6.4-6.1 10.6-8.1 4.2-2 9.1-2.9 14.6-2.9 3.7 0 7.3 0.5 10.6 1.5 3.3 1 6.3 2.5 8.9 4.4 2.6 1.9 4.8 4.4 6.5 7.3 1.7 2.9 2.9 6.3 3.4 10.1h-9.5C376 706.4 373.6 702.6 370 700.1z"/><path fill="#EA5F72" d="M433.5 718.7c-2.1-1.8-5-2.7-8.6-2.7 -3.1 0-5.6 0.6-7.7 1.7 -2.1 1.1-3.7 2.6-4.9 4.5 -1.2 1.9-2.1 4-2.6 6.5 -0.5 2.4-0.8 5-0.8 7.6 0 2.4 0.3 4.7 0.9 7 0.6 2.3 1.5 4.3 2.6 6.1 1.2 1.8 2.8 3.2 4.7 4.3 1.9 1.1 4.2 1.6 6.9 1.6 4.2 0 7.5-1.1 9.9-3.3 2.4-2.2 3.8-5.3 4.4-9.3h8.7c-0.9 6.4-3.3 11.3-7.1 14.8 -3.8 3.5-9 5.2-15.6 5.2 -3.9 0-7.4-0.6-10.4-1.9 -3-1.3-5.6-3.1-7.6-5.4 -2-2.3-3.6-5.1-4.6-8.3 -1-3.2-1.6-6.8-1.6-10.6 0-3.9 0.5-7.5 1.5-10.8 1-3.4 2.5-6.3 4.6-8.8 2-2.5 4.6-4.5 7.6-5.9 3.1-1.4 6.6-2.1 10.7-2.1 2.9 0 5.7 0.4 8.3 1.1 2.6 0.7 4.8 1.8 6.8 3.3 2 1.5 3.6 3.3 4.9 5.6 1.3 2.2 2.1 4.9 2.4 8h-8.8C437.1 723 435.7 720.5 433.5 718.7z"/><path fill="none" stroke="#DDE5CE" stroke-width="5" stroke-miterlimit="10" d="M390.1 583.8c17.5-39.4 32-81 37.9-90.3 52.1-21.4 89.8-72.5 132.4-107.4 13.1-10.7 24.4-21.5 33.7-35.9 5.9-9.2 8.4-17.1 16.2-24.2 6.2-5.6 11.7-14.7 9-23.3 -7.2-22.9-40.9-11.6-54.1-2.7 -22.3 15.1-24.7 36.5-19.4 61.9 -4.5-12.6-2.3-25.5-1.5-38.4 -11.2 4.2-35.8 13.7-39.2 26.6 -6.3-18.6-27.7-30.8-35.6-49.4 -5.5-13-8.9-27.2-12.5-40.8 -7.6-28.6-21.4-65.8-17.5-95.9 1.9-16.7 11.6-13.6 22.6-22.8 8.3-7 28.1-26.1 24.1-38.9 -3.1-9.8-29.2-16.8-35.7-7.7 -1.2 1.7-32.2 1.6-38.7 3.7 -7.3 2.3-14.7 5.7-20.2 11.1 -6.5 6.4-4.8 6.5-13.4 9 -14.5 4.2-36.6 18.6-37.4 35.5 -0.4 8.1-22.5 24.5-28.4 32.1 -9.8 12.6-21.9 28.3-23.7 44.7 -6.5 58 0.6 119.4 1.9 177.7 0.4 15.5 2.3 32.3 0.3 47.8 -17.5 22.9-36.4 55-40.8 83.8"/><path fill="none" stroke="#DDE5CE" stroke-width="5" stroke-miterlimit="10" d="M412.6 342.2c-15.5 26.6-6.9 55.5-14.5 83.9 -3.9 14.8-2.8 44.1 13.6 51.4"/><path fill="none" stroke="#DDE5CE" stroke-width="5" stroke-miterlimit="10" d="M308.9 494c7.2 5.8 47.9 21.5 55 5.8"/><path fill="none" stroke="#DDE5CE" stroke-width="5" stroke-miterlimit="10" d="M508.4 422.2c-14.4-29.1-2.8-69.2-22.4-95.7"/><path fill="none" stroke="#DDE5CE" stroke-width="5" stroke-miterlimit="10" d="M340.8 157.3c15.8-20.8 40.7-16.8 31.5 12 -5.4 17-23.3 45.1-43.5 31.1"/><path fill="none" stroke="#DDE5CE" stroke-width="5" stroke-miterlimit="10" d="M347.2 206.8c-0.2 6.3-4.6 31.9-29 26.4"/><path fill="none" stroke="#DDE5CE" stroke-width="5" stroke-miterlimit="10" d="M338.3 230c0.2 8.3 5.9 55.9-8.6 59.4"/><path fill="none" stroke="#DDE5CE" stroke-width="5" stroke-miterlimit="10" d="M387.5 118.6c10.7 2.8 19.1 4.5 29.3 0.8 10-3.6 26.6-5.5 26 9.9 -1 30-45.3 37.4-66.1 24.4"/><path fill="none" stroke="#DDE5CE" stroke-width="5" stroke-miterlimit="10" d="M398.7 159.5c-2 5.8-17.7 20.7-29.7 27.2"/><path fill="none" stroke="#DDE5CE" stroke-width="5" stroke-miterlimit="10" d="M373.3 186.5c-1.2 6.5-4.9 41.5-16.2 45.3"/><path fill="none" stroke="#DDE5CE" stroke-width="5" stroke-miterlimit="10" d="M422.5 96.8c12.9-0.6 38 5.4 48.2 13.9 21.5 18.3-21.8 40.6-37.6 39.1"/><path fill="none" stroke="#DDE5CE" stroke-width="5" stroke-miterlimit="10" d="M449.4 102.8c-23.5 9.5 12.2 24.5 23.6 12.1"/><path fill="none" stroke="#DDE5CE" stroke-width="5" stroke-miterlimit="10" d="M482.5 99.3c-2.2 16.5-38.2 0.3-29-4.8"/><path fill="none" stroke="#DDE5CE" stroke-width="5" stroke-miterlimit="10" d="M434 118.6c-2.4 5.2-32.2 20.2-25.8 5.3"/><path fill="none" stroke="#DDE5CE" stroke-width="5" stroke-miterlimit="10" d="M437.4 166.4c-5-1.3-14.8 2.4-19.3 1.2"/><path fill="none" stroke="#DDE5CE" stroke-width="5" stroke-miterlimit="10" d="M408.2 160.6c-1.5 4-12.7 53.2-20.7 57.9"/><path fill="none" stroke="#DDE5CE" stroke-width="5" stroke-miterlimit="10" d="M433 214c-10-2.7-27.9 5.8-35.1 7.3"/></svg>