<svg version="1.1" id="Layer_1" xmlns="http://www.w3.org/2000/svg" xmlns:xlink="http://www.w3.org/1999/xlink" viewBox="0 -275 768 980" enable-background="new 0 -275 768 980" xml:space="preserve">
<circle fill="#DDF2F2" cx="380.052" cy="440.361" r="97.564"/>
<polyline fill="none" points="248.868,325.441 248.868,-114.412 675.781,-114.412 675.781,325.441 "/>
<g enable-background="new    ">
	<path fill="#DDF2F2" d="M483.672,318.133h-7.276c-5.504-47.871-8.658-74.709-9.46-80.531c-0.812-5.824-1.212-12.615-1.212-20.377
		c0.97-49.8-1.138-88.78-6.306-116.916c-5.178-28.137-8.9-49.316-11.158-63.553c-2.266-14.226-5.336-31.365-9.218-51.422
		c-3.88-20.05-8.49-39.855-13.826-59.428c-5.336-19.564-11.242-29.996-17.708-31.292c-6.475-1.29-11.643,0.084-15.524,4.124
		c-3.882,4.048-5.336,11.726-4.366,23.044c0.971,11.326,2.183,23.044,3.639,35.172s2.744,24.099,3.882,35.9
		c1.128,11.808,2.016,25.71,2.668,41.72c0.644,16.008-2.912,16.979-10.672,2.91c-7.762-14.068-15.524-22.393-23.286-24.984
		c-12.939-2.91-22.8,1.866-29.592,14.312c-6.792,12.454-10.188,25.308-10.188,38.565c0,13.267,0.803,22.156,2.425,26.683
		c2.911-1.614,6.55-2.584,10.916-2.91c4.365-0.318,7.275,0.41,8.731,2.184c1.456,1.782,3.154,10.112,5.094,24.984
		c4.2-1.942,7.11-3.958,8.732-6.064c1.614-2.1,2.668-7.193,3.154-15.281c0.483-8.08,0.159-18.437-0.971-31.049
		c-1.136-12.613,0.242-10.188,4.124,7.278c7.437-11.96,9.376-13.826,5.822-5.58c-3.562,8.248-1.698,10.599,5.58,7.036
		c7.276-3.554,8.08-3.472,2.426,0.242c-5.664,3.722-9.46,10.43-11.401,20.132l-0.971,14.554l-2.911,6.792
		c6.466,1.296,18.109,8.248,34.93,20.862c1.939-3.23,3.88-6.466,5.822-9.704c1.939-3.228,2.426-3.154,1.456,0.242
		c-0.971,3.396-2.593,6.876-4.851,10.43l9.216,7.765c4.853-7.438,9.051-13.259,12.614-17.465c3.557-4.199,4.2-3.554,1.942,1.94
		c-2.267,5.504-5.664,11.644-10.188,18.436c3.88,2.91,7.194,6.064,9.946,9.458c2.744,3.396,1.13,3.807-4.853,1.213
		c-5.987-2.584-10.916-5.336-14.796-8.246s-11.483-8.406-22.8-16.494c-2.912,5.502-5.906,9.945-8.976,13.34
		c-3.078,3.396-6.716,4.694-10.916,3.88c-4.208-0.802-8.732-3.068-13.584-6.792c-4.851-3.714-8.732-7.52-11.643-11.4
		c-3.562,9.059,0.561,19.246,12.372,30.562c11.803,11.326,24.015,21.998,36.626,32.02c12.614,10.028,17.139,15.122,13.584,15.282
		c-3.562,0.166-9.216-3.312-16.979-10.43c-4.532-4.526-7.118-3.556-7.763,2.91c-0.651,6.472-1.863,12.614-3.638,18.434
		c-1.782,5.82-2.426,5.02-1.939-2.424c0.485-7.439,1.371-15.844,2.668-25.226c-5.502-4.202-9.702-7.765-12.614-10.675
		c-3.236,1.624-5.418,4.937-6.548,9.946c-1.137,5.018-2.668,9.946-4.608,14.796c-1.939,4.851-2.35,3.562-1.212-3.88
		c1.128-7.438,2.016-12.614,2.668-15.526c-3.562,1.942-6.876,3.48-9.945,4.61c-3.078,1.136-2.351-0.158,2.184-3.88
		c4.526-3.714,9.216-7.194,14.068-10.43c-7.118-6.792-13.022-12.614-17.708-17.464c-4.692-4.853-7.521-10.433-8.49-16.738
		c-0.97-6.307-0.326-11.718,1.939-16.25c-8.731,7.762-16.819,10.188-24.256,7.275c-0.651,0.971-1.622,1.624-2.912,1.942
		l8.732,35.414c6.792,27.492,12.69,46.415,17.708,56.758c5.01,10.357,11.56,21.182,19.648,32.504
		c8.731,10.35,13.901,29.27,15.523,56.762h-6.792c-1.94-26.852-6.39-44.473-13.34-52.879c-6.958-8.414-12.94-17.707-17.95-27.895
		c-5.018-10.188-9.218-20.777-12.614-31.775c-3.396-10.992-9.142-33.474-17.222-67.434c-11.642,0-19.89-2.828-24.742-8.49
		c-4.852-5.654-7.762-13.983-8.731-24.983c-0.971-10.99-0.812-19.404,0.485-25.227c1.288-5.82,4.124-10.588,8.49-14.31
		c4.366-3.714,8.808-5.412,13.34-5.095c0.645-9.704,3.07-18.836,7.278-27.409c4.2-8.564,10.992-12.856,20.376-12.856
		c3.556,0,7.762,0.97,12.614,2.91c3.229-6.138,7.354-10.832,12.372-14.068c5.01-3.228,10.43-4.768,16.252-4.609
		c5.821,0.168,11.56,1.781,17.222,4.852c5.656,3.078,10.916,8.816,15.766,17.222l-1.456-20.861
		c-0.651-7.437-1.939-20.45-3.88-39.053c-1.939-18.594-3.638-33.716-5.094-45.359c-1.456-11.643,0.242-20.534,5.094-26.683
		c4.853-6.14,11.561-8.974,20.132-8.489c8.566,0.483,15.685,6.958,21.347,19.403c5.653,12.454,13.014,40.834,22.074,85.143
		c9.701,58.214,16.168,95.326,19.405,111.336c3.229,16.01,5.011,40.189,5.336,72.528c0.318,32.344,0.562,51.421,0.729,57.242
		C473.884,237.117,477.197,266.057,483.672,318.133z M293.016,106.619c-1.622-4.852-2.91-10.348-3.88-16.494
		c-0.97-6.14-1.296-14.067-0.97-23.771c-10.998,0.325-16.176,10.271-15.524,29.836c0.645,19.569,7.11,30.804,19.406,33.714
		C284.284,120.855,284.602,113.09,293.016,106.619z M303.688,129.418c-4.533-6.464-7.928-13.584-10.188-21.346
		c-7.762,5.504-7.762,12.782,0,21.83C296.729,130.555,300.126,130.389,303.688,129.418z M320.182,96.43
		c-1.296-4.199-2.266-11.399-2.91-21.588c-0.651-10.188,0.16-19.806,2.427-28.865c2.258-9.051,4.04-14.387,5.336-16.011
		c-3.236-2.26-6.958-3.069-11.158-2.426c-7.444,0.97-12.538,6.39-15.282,16.252c-2.752,9.87-3.964,21.271-3.638,34.202
		c0.97,13.266,3.229,24.424,6.792,33.474c3.554,9.059,6.224,14.479,8.004,16.253c1.773,1.781,4.282,2.023,7.52,0.726
		c-2.912-2.91-5.502-7.437-7.762-13.584c-2.266-6.138-2.592-10.43-0.97-12.856C310.154,99.583,314.036,97.725,320.182,96.43z
		 M320.668,97.884c-9.384,1.296-13.264,4.853-11.643,10.673c1.614,5.821,3.639,10.758,6.064,14.796
		c2.426,4.048,4.928,5.661,7.52,4.852c2.584-0.802,4.284-2.342,5.095-4.61C328.506,121.338,326.164,112.764,320.668,97.884z
		 M349.775,116.805c-0.97-8.406-2.266-15.843-3.88-22.316c-0.651-2.91-3.396-4.124-8.248-3.638c-4.852,0.485-8.414,1.38-10.672,2.67
		c3.88,13.907,7.597,21.83,11.158,23.77C341.688,119.231,345.567,119.071,349.775,116.805z M381.794,131.844
		c-6.472-4.525-11.324-7.436-14.554-8.731c-3.236-1.29-7.687-1.372-13.341-0.242c-5.662,1.136-10.596,3.804-14.796,8.004
		c4.526,5.178,9.05,9.218,13.584,12.128c4.526,2.91,8.65,4.534,12.372,4.853c3.714,0.325,6.708-0.887,8.974-3.639
		C376.292,141.471,378.884,137.348,381.794,131.844z M369.18,266.225c-2.91,0-2.023-0.242,2.668-0.729
		c4.685-0.484,9.216-0.484,13.584,0c4.366,0.486,5.01,1.047,1.94,1.699C384.296,267.838,378.231,267.514,369.18,266.225z
		 M407.992,275.441c-5.822,0.318-12.614-0.164-20.376-1.455C394.726,272.363,401.518,272.852,407.992,275.441z M403.14,160.466
		c-2.592,6.792-6.792,12.454-12.614,16.979c0.318-2.258,1.456-4.926,3.396-8.004C395.863,166.371,398.932,163.376,403.14,160.466z
		 M417.693,265.738l-21.346-0.969C404.428,262.502,411.546,262.828,417.693,265.738z M420.12-41.345
		c-6.148,0.326-11.158,0.484-15.04,0.484c-3.88,0-4.851-0.561-2.91-1.698c1.939-1.13,4.768-1.616,8.49-1.456
		C414.374-43.847,417.527-42.961,420.12-41.345z M422.06,3.285l6.307,1.456c-4.532,1.942-10.188,2.426-16.98,1.456l-4.366-0.97
		C409.605,3.613,414.616,2.966,422.06,3.285z M425.941-0.111h-18.436C413.972-2.695,420.12-2.695,425.941-0.111z M435.644,62.955
		c-3.235,1.296-6.147,1.866-8.731,1.7c-2.592-0.16-5.988-1.046-10.188-2.67c3.23,0,6.307-0.074,9.218-0.242
		C428.852,61.584,432.082,61.985,435.644,62.955z"/>
</g>
<g enable-background="new    ">
	<path fill="#F44D8D" d="M377.468,390.719c13.972,0,24.724,3.555,32.262,10.67c7.536,7.113,11.305,17.953,11.305,32.516
		c0,7.621-0.847,14.375-2.54,20.26c-1.694,5.885-4.318,10.84-7.876,14.859c-3.557,4.025-8.086,7.094-13.591,9.209
		c-5.504,2.117-12.023,3.176-19.56,3.176h-31.12v-90.689H377.468z M378.483,471.246c1.354,0,3.048-0.104,5.082-0.316
		c2.032-0.209,4.192-0.717,6.479-1.525c2.286-0.803,4.55-1.969,6.794-3.492s4.254-3.598,6.034-6.223
		c1.779-2.623,3.239-5.904,4.382-9.844c1.142-3.938,1.714-8.701,1.714-14.291c0-5.418-0.53-10.266-1.586-14.543
		c-1.06-4.273-2.794-7.916-5.208-10.922s-5.526-5.291-9.336-6.859c-3.811-1.566-8.51-2.35-14.098-2.35h-20.324v70.365H378.483
		L378.483,471.246z"/>
</g>
</svg>
