<svg version="1.1" xmlns="http://www.w3.org/2000/svg" xmlns:xlink="http://www.w3.org/1999/xlink" viewBox="0 0 768 975" enable-background="new 0 0 768 975" xml:space="preserve">
<g id="circle">
	<circle fill="#DDE5CE" cx="384.51" cy="731.426" r="125.426"/>
</g>
<g id="dd">
	<g>
		<path fill="#CB394D" d="M349.434,689.998c11,0,19.466,2.801,25.4,8.4c5.933,5.6,8.9,14.135,8.9,25.6c0,6-0.667,11.317-2,15.95
			c-1.334,4.635-3.4,8.534-6.2,11.7c-2.8,3.167-6.367,5.584-10.7,7.25c-4.334,1.667-9.467,2.5-15.4,2.5h-24.5v-71.4H349.434z
			 M350.234,753.398c1.065,0,2.4-0.083,4-0.25c1.6-0.166,3.3-0.565,5.1-1.2c1.8-0.633,3.583-1.55,5.35-2.75
			c1.766-1.2,3.35-2.833,4.75-4.899c1.4-2.066,2.55-4.65,3.45-7.75c0.9-3.101,1.35-6.851,1.35-11.25c0-4.266-0.417-8.083-1.25-11.45
			c-0.834-3.366-2.2-6.233-4.1-8.601c-1.9-2.365-4.35-4.165-7.35-5.399c-3-1.233-6.7-1.851-11.1-1.851h-16v55.4H350.234z"/>
		<path fill="#EA5F72" d="M436.633,761.398v-7h-0.199c-1.4,2.867-3.601,4.935-6.601,6.2s-6.3,1.899-9.899,1.899
			c-4,0-7.484-0.734-10.45-2.199c-2.968-1.466-5.435-3.434-7.4-5.9c-1.967-2.466-3.45-5.333-4.45-8.6c-1-3.266-1.5-6.733-1.5-10.4
			c0-3.666,0.483-7.133,1.45-10.4c0.966-3.266,2.433-6.115,4.4-8.55c1.966-2.433,4.433-4.365,7.399-5.8
			c2.966-1.433,6.416-2.15,10.351-2.15c1.333,0,2.766,0.135,4.3,0.4c1.533,0.268,3.065,0.717,4.6,1.35
			c1.533,0.635,2.983,1.468,4.351,2.5c1.365,1.035,2.516,2.317,3.45,3.851h0.199v-26.601h8.5v71.4H436.633z M406.083,743.049
			c0.633,2.3,1.601,4.35,2.9,6.149s2.966,3.234,5,4.3c2.032,1.067,4.415,1.601,7.149,1.601c2.866,0,5.301-0.565,7.301-1.7
			c2-1.133,3.633-2.615,4.899-4.45c1.266-1.833,2.183-3.915,2.75-6.25c0.565-2.333,0.851-4.7,0.851-7.1
			c0-2.533-0.301-4.983-0.9-7.351c-0.6-2.365-1.55-4.449-2.85-6.25c-1.301-1.8-2.984-3.25-5.051-4.35s-4.566-1.65-7.5-1.65
			c-2.867,0-5.3,0.567-7.3,1.7c-2,1.135-3.6,2.635-4.8,4.5c-1.2,1.867-2.067,4-2.6,6.4c-0.535,2.399-0.801,4.867-0.801,7.399
			C405.133,738.398,405.449,740.748,406.083,743.049z"/>
	</g>
</g>
<g id="d">
	<g>
		<path fill="none" stroke="#DDE5CE" stroke-width="5" stroke-miterlimit="10" d="M452.716,586.866
			c-1.299-27.738,3.198-71.131,20.895-93.524c11.76-14.882,21.478-32.439,27.724-50.336c3.489-9.999,4.057-19.209,4.885-29.618
			c0.881-11.053,8.548-13.043,11.686-22.148c6.127-17.784,0.605-37.286,1.302-55.564c0.29-7.619,1.156-16.502,6.034-22.742
			c5.952-7.613,15.508-9.234,20.084-18.898c3.681-7.775,2.488-16.432-4.282-22.085c-6.192-5.17-3.643-13.691-10.802-20.332
			c-11.307-10.488-29.462-18.06-44.155-23.2c-15.761-5.514-31.812-10.395-48.012-14.446c-13.617-3.405-18.736-0.497-22.495-13.992
			c-8.876-31.862-18.249-63.745-29.901-94.716c-4.227-11.235-8.426-23.851-15.798-33.509c-6.694-8.77-26.426-22.486-37.113-12.345
			c-12.934,12.273,3.279,48.08,6.728,61.986c4.987,20.108,6.938,40.098,10.938,60.183c3.761,18.883,12.299,35.927,18.521,53.978
			c2.939,8.527-22.166,32.513-27.762,38.871c-12.952,14.716-30.913,23.687-35.246,44.757c-4.173,20.292,5.792,46.755,8.352,67.102
			c4.182,33.238,7.886,66.998,10.698,100.394c1.093,12.975-0.121,21.484-4.1,33.705c-7.215,22.164-7.979,45.324-4.509,68.292"/>
		<path fill="none" stroke="#DDE5CE" stroke-width="5" stroke-miterlimit="10" d="M366.945,531.789
			c18.965,0,50.558,1.806,58.688-15.353"/>
		<path fill="none" stroke="#DDE5CE" stroke-width="5" stroke-miterlimit="10" d="M437.375,484.829
			c-7.712-23.151-19.323-44.6-25.105-68.504c-7.28-30.1,3.969-56.763,9.753-85.897"/>
		<path fill="none" stroke="#DDE5CE" stroke-width="5" stroke-miterlimit="10" d="M392.233,334.053
			c1.807,12.635-2.719,49.652-36.131,65"/>
		<path fill="none" stroke="#DDE5CE" stroke-width="5" stroke-miterlimit="10" d="M461.759,337.651
			c-0.907,13.541-1.813,41.543,37.91,67.718"/>
		<path fill="none" stroke="#DDE5CE" stroke-width="5" stroke-miterlimit="10" d="M324.515,330.428
			c2.7-10.835,15.194-23.586,17.006-27.197"/>
		<path fill="none" stroke="#DDE5CE" stroke-width="5" stroke-miterlimit="10" d="M340.762,310.562
			c-5.377-17.854,20.286-31.994,34.04-31.991c20.642,0.006,40.45,2.204,60.398,7.215c8.628,2.167,48.665,17.671,29.181,31.741
			c-16.051,11.59-46.777,10.038-62.217-1.547"/>
		<path fill="none" stroke="#DDE5CE" stroke-width="5" stroke-miterlimit="10" d="M371.469,328.622
			c13.529,6.324,28.88,0,37.018-6.318"/>
		<path fill="none" stroke="#DDE5CE" stroke-width="5" stroke-miterlimit="10" d="M382.298,331.334
			c0,8.13-5.424,24.376-30.701,28.894"/>
		<path fill="none" stroke="#DDE5CE" stroke-width="5" stroke-miterlimit="10" d="M441.108,287.347
			c-12.659,12.642,16.436,36.426,24.268,16.898"/>
		<path fill="none" stroke="#DDE5CE" stroke-width="5" stroke-miterlimit="10" d="M350.705,270.836"/>
		<path fill="none" stroke="#DDE5CE" stroke-width="5" stroke-miterlimit="10" d="M469.501,311.611
			c13.793,1.48,58.147,0.396,45.488-26.161c-7.204-15.113-27.974-21.733-41.928-28.347c-18.151-8.603-38.867-12.462-58.537-15.782
			c-9.817-1.657-33.417-9.039-43.055-4.222"/>
		<path fill="none" stroke="#DDE5CE" stroke-width="5" stroke-miterlimit="10" d="M485.848,264.522
			c-23.44,15.624,6.907,54.531,23.757,16.25"/>
		<path fill="none" stroke="#DDE5CE" stroke-width="5" stroke-miterlimit="10" d="M418.416,210.341
			c-13.542-4.501-39.716,17.729-46.947,26.758"/>
		<path fill="none" stroke="#DDE5CE" stroke-width="5" stroke-miterlimit="10" d="M509.604,240.667
			c-16.03-2.641-15.008,19.878-6.345,26.892c3.611,2.923,8.111,4.155,11.77,6.893c6.954-4.973,12.429-11.303,16.26-18.962"/>
		<path fill="none" stroke="#DDE5CE" stroke-width="5" stroke-miterlimit="10" d="M536.7,269.03
			c-0.887,4.515-11.628,10.113-23.356,8.303"/>
	</g>
</g>
</svg>
