<svg version="1.1" xmlns="http://www.w3.org/2000/svg" viewBox="0 0 768 975" enable-background="new 0 0 768 975" xml:space="preserve"><circle fill="#DDE5CE" cx="384.5" cy="731.4" r="125.4"/><path fill="#CB394D" d="M349.4 690c11 0 19.5 2.8 25.4 8.4 5.9 5.6 8.9 14.1 8.9 25.6 0 6-0.7 11.3-2 16 -1.3 4.6-3.4 8.5-6.2 11.7 -2.8 3.2-6.4 5.6-10.7 7.3 -4.3 1.7-9.5 2.5-15.4 2.5h-24.5v-71.4H349.4zM350.2 753.4c1.1 0 2.4-0.1 4-0.2 1.6-0.2 3.3-0.6 5.1-1.2 1.8-0.6 3.6-1.5 5.4-2.7 1.8-1.2 3.4-2.8 4.8-4.9 1.4-2.1 2.6-4.6 3.5-7.7 0.9-3.1 1.4-6.9 1.4-11.2 0-4.3-0.4-8.1-1.2-11.4 -0.8-3.4-2.2-6.2-4.1-8.6 -1.9-2.4-4.3-4.2-7.3-5.4 -3-1.2-6.7-1.9-11.1-1.9h-16v55.4H350.2z"/><path fill="#EA5F72" d="M436.6 761.4v-7h-0.2c-1.4 2.9-3.6 4.9-6.6 6.2s-6.3 1.9-9.9 1.9c-4 0-7.5-0.7-10.4-2.2 -3-1.5-5.4-3.4-7.4-5.9 -2-2.5-3.4-5.3-4.4-8.6 -1-3.3-1.5-6.7-1.5-10.4 0-3.7 0.5-7.1 1.5-10.4 1-3.3 2.4-6.1 4.4-8.5 2-2.4 4.4-4.4 7.4-5.8 3-1.4 6.4-2.1 10.4-2.1 1.3 0 2.8 0.1 4.3 0.4 1.5 0.3 3.1 0.7 4.6 1.4 1.5 0.6 3 1.5 4.4 2.5 1.4 1 2.5 2.3 3.5 3.9h0.2v-26.6h8.5v71.4H436.6zM406.1 743c0.6 2.3 1.6 4.4 2.9 6.1s3 3.2 5 4.3c2 1.1 4.4 1.6 7.1 1.6 2.9 0 5.3-0.6 7.3-1.7 2-1.1 3.6-2.6 4.9-4.4 1.3-1.8 2.2-3.9 2.8-6.2 0.6-2.3 0.9-4.7 0.9-7.1 0-2.5-0.3-5-0.9-7.4 -0.6-2.4-1.5-4.4-2.8-6.2 -1.3-1.8-3-3.2-5.1-4.3s-4.6-1.6-7.5-1.6c-2.9 0-5.3 0.6-7.3 1.7 -2 1.1-3.6 2.6-4.8 4.5 -1.2 1.9-2.1 4-2.6 6.4 -0.5 2.4-0.8 4.9-0.8 7.4C405.1 738.4 405.4 740.7 406.1 743z"/><path fill="none" stroke="#DDE5CE" stroke-width="5" stroke-miterlimit="10" d="M452.7 586.9c-1.3-27.7 3.2-71.1 20.9-93.5 11.8-14.9 21.5-32.4 27.7-50.3 3.5-10 4.1-19.2 4.9-29.6 0.9-11.1 8.5-13 11.7-22.1 6.1-17.8 0.6-37.3 1.3-55.6 0.3-7.6 1.2-16.5 6-22.7 6-7.6 15.5-9.2 20.1-18.9 3.7-7.8 2.5-16.4-4.3-22.1 -6.2-5.2-3.6-13.7-10.8-20.3 -11.3-10.5-29.5-18.1-44.2-23.2 -15.8-5.5-31.8-10.4-48-14.4 -13.6-3.4-18.7-0.5-22.5-14 -8.9-31.9-18.2-63.7-29.9-94.7 -4.2-11.2-8.4-23.9-15.8-33.5 -6.7-8.8-26.4-22.5-37.1-12.3 -12.9 12.3 3.3 48.1 6.7 62 5 20.1 6.9 40.1 10.9 60.2 3.8 18.9 12.3 35.9 18.5 54 2.9 8.5-22.2 32.5-27.8 38.9 -13 14.7-30.9 23.7-35.2 44.8 -4.2 20.3 5.8 46.8 8.4 67.1 4.2 33.2 7.9 67 10.7 100.4 1.1 13-0.1 21.5-4.1 33.7 -7.2 22.2-8 45.3-4.5 68.3"/><path fill="none" stroke="#DDE5CE" stroke-width="5" stroke-miterlimit="10" d="M366.9 531.8c19 0 50.6 1.8 58.7-15.4"/><path fill="none" stroke="#DDE5CE" stroke-width="5" stroke-miterlimit="10" d="M437.4 484.8c-7.7-23.2-19.3-44.6-25.1-68.5 -7.3-30.1 4-56.8 9.8-85.9"/><path fill="none" stroke="#DDE5CE" stroke-width="5" stroke-miterlimit="10" d="M392.2 334.1c1.8 12.6-2.7 49.7-36.1 65"/><path fill="none" stroke="#DDE5CE" stroke-width="5" stroke-miterlimit="10" d="M461.8 337.7c-0.9 13.5-1.8 41.5 37.9 67.7"/><path fill="none" stroke="#DDE5CE" stroke-width="5" stroke-miterlimit="10" d="M324.5 330.4c2.7-10.8 15.2-23.6 17-27.2"/><path fill="none" stroke="#DDE5CE" stroke-width="5" stroke-miterlimit="10" d="M340.8 310.6c-5.4-17.9 20.3-32 34-32 20.6 0 40.5 2.2 60.4 7.2 8.6 2.2 48.7 17.7 29.2 31.7 -16.1 11.6-46.8 10-62.2-1.5"/><path fill="none" stroke="#DDE5CE" stroke-width="5" stroke-miterlimit="10" d="M371.5 328.6c13.5 6.3 28.9 0 37-6.3"/><path fill="none" stroke="#DDE5CE" stroke-width="5" stroke-miterlimit="10" d="M382.3 331.3c0 8.1-5.4 24.4-30.7 28.9"/><path fill="none" stroke="#DDE5CE" stroke-width="5" stroke-miterlimit="10" d="M441.1 287.3c-12.7 12.6 16.4 36.4 24.3 16.9"/><path fill="none" stroke="#DDE5CE" stroke-width="5" stroke-miterlimit="10" d="M350.7 270.8"/><path fill="none" stroke="#DDE5CE" stroke-width="5" stroke-miterlimit="10" d="M469.5 311.6c13.8 1.5 58.1 0.4 45.5-26.2 -7.2-15.1-28-21.7-41.9-28.3 -18.2-8.6-38.9-12.5-58.5-15.8 -9.8-1.7-33.4-9-43.1-4.2"/><path fill="none" stroke="#DDE5CE" stroke-width="5" stroke-miterlimit="10" d="M485.8 264.5c-23.4 15.6 6.9 54.5 23.8 16.3"/><path fill="none" stroke="#DDE5CE" stroke-width="5" stroke-miterlimit="10" d="M418.4 210.3c-13.5-4.5-39.7 17.7-46.9 26.8"/><path fill="none" stroke="#DDE5CE" stroke-width="5" stroke-miterlimit="10" d="M509.6 240.7c-16-2.6-15 19.9-6.3 26.9 3.6 2.9 8.1 4.2 11.8 6.9 7-5 12.4-11.3 16.3-19"/><path fill="none" stroke="#DDE5CE" stroke-width="5" stroke-miterlimit="10" d="M536.7 269c-0.9 4.5-11.6 10.1-23.4 8.3"/></svg>