<svg version="1.1" xmlns="http://www.w3.org/2000/svg" viewBox="0 0 768 975" enable-background="new 0 0 768 975" xml:space="preserve"><circle fill="#DDE5CE" cx="384.5" cy="731.4" r="125.4"/><path fill="#CB394D" d="M381.7 690v8h-39.8v22.7h37.1v8h-37.1v24.7h40.1v8h-49.6v-71.4H381.7z"/><path fill="#EA5F72" d="M433.7 758.1c-3.9 2.9-8.7 4.4-14.6 4.4 -4.1 0-7.7-0.7-10.7-2 -3-1.3-5.6-3.2-7.6-5.6 -2.1-2.4-3.6-5.3-4.6-8.6 -1-3.3-1.6-7-1.7-10.9 0-3.9 0.6-7.5 1.8-10.8 1.2-3.3 2.9-6.1 5.1-8.5 2.2-2.4 4.7-4.3 7.7-5.6 3-1.3 6.2-2 9.8-2 4.6 0 8.4 1 11.4 2.9 3 1.9 5.5 4.3 7.3 7.3 1.8 2.9 3.1 6.1 3.8 9.6 0.7 3.5 1 6.8 0.9 9.9h-38.7c-0.1 2.3 0.2 4.4 0.8 6.5 0.6 2 1.6 3.8 2.9 5.4 1.3 1.6 3 2.8 5.1 3.8 2.1 0.9 4.5 1.4 7.3 1.4 3.6 0 6.6-0.8 8.9-2.5 2.3-1.7 3.8-4.2 4.6-7.6h8.4C440 750.8 437.5 755.2 433.7 758.1zM431.6 724.9c-0.8-1.8-1.8-3.3-3.1-4.6 -1.3-1.3-2.8-2.3-4.6-3.1 -1.8-0.8-3.7-1.1-5.8-1.1 -2.2 0-4.2 0.4-5.9 1.2 -1.8 0.8-3.3 1.8-4.5 3.2 -1.3 1.3-2.3 2.9-3 4.6 -0.7 1.8-1.2 3.7-1.3 5.7h29.7C432.9 728.6 432.4 726.7 431.6 724.9z"/><path fill="none" stroke="#DDE5CE" stroke-width="5" stroke-miterlimit="10" d="M313.4 588.2c-1.7-23.3 12.1-50.3-1.6-67.7 -11.7-14.8-27.1-22.2-33.9-40.9 -9-25-13.9-51.2-15.8-77.6 -3.6-48.8 8.6-98.6 2.3-146.8 -2.2-16.6-1.5-28.8 6.9-43.5 6.4-11.2 19.4-28.4 34.5-23.2 6.7-14.9 17.8-37.4 36.4-39.6 8.7-1 27.6 7.7 27.7 18.2 -6.5-41.3 53.8-39.4 59.9-4.2 0-10.5 20.3-15.7 28.5-13.3 15.3 4.5 29.5 18.1 36 32.4 9.7 21.4 11.5 50.6 14.6 73.7 1.6 12.1 2.7 24.3 2.9 36.6 0.2 10-3.5 20.8 3.4 28.9 3.7 4.4 9.5 8.9 11.3 14.5 2.6 8.1-4.3 25.4-5.9 33.9 -4 20.7-8.4 41.4-16.5 61 -14.5 34.9-48.9 73.7-21 112.5"/><path fill="none" stroke="#DDE5CE" stroke-width="5" stroke-miterlimit="10" d="M374.1 257.1c-0.1 30.3 25.5 38.1 47.1 51.8 15.3 9.7 8 17.1 5.2 32.2 -2.2 11.9 16.9 17.7 18.3 29.5"/><path fill="none" stroke="#DDE5CE" stroke-width="5" stroke-miterlimit="10" d="M512.5 317.3c-5.5-5.9-13.1-8.8-19-14.1 -7.6-6.8-12.3-19.3-17.5-28.1 -8.1-13.8-15.1-22.5-31.6-25 -5.4-0.8-14.5-2.2-18.1 3.4 -3.6 5.6 0.8 8.8-7.3 10.1 -13.7 2.2-32.1 0.7-44.9-4.7"/><path fill="none" stroke="#DDE5CE" stroke-width="5" stroke-miterlimit="10" d="M426.6 312.9c3.1 1.3 18.3-4.8 22.5-6.9"/><path fill="none" stroke="#DDE5CE" stroke-width="5" stroke-miterlimit="10" d="M428 331.4c-39.9 32.1-28.3 96.5-61.5 132.1"/><path fill="none" stroke="#DDE5CE" stroke-width="5" stroke-miterlimit="10" d="M403 299.6c-21.4 21.6-54.4 24.4-83.1 31.4"/><path fill="none" stroke="#DDE5CE" stroke-width="5" stroke-miterlimit="10" d="M429.5 250.7c-16.8 1.3-41.6-7.2-57.2 8.1"/><path fill="none" stroke="#DDE5CE" stroke-width="5" stroke-miterlimit="10" d="M479.2 199.8c-7.6-1.1-10.8-8.6-11.4-15.4 3 16 19.9 66-0.4 76.3"/><path fill="none" stroke="#DDE5CE" stroke-width="5" stroke-miterlimit="10" d="M475 242c-6.1-6.7-10.3-20.2-21.8-16.6 -9.6 3-21.6 14.3-9.9 23.8"/><path fill="none" stroke="#DDE5CE" stroke-width="5" stroke-miterlimit="10" d="M429.5 161.1c-12.7 41.9 6.7 74.1 9.9 79.2"/><path fill="none" stroke="#DDE5CE" stroke-width="5" stroke-miterlimit="10" d="M429.5 246c-0.8-9.9-11.3-49.3-28-30.4 -6 6.7-6.4 17.1-4.9 25.5 2 11.4 26.2 8.2 33 7"/><path fill="none" stroke="#DDE5CE" stroke-width="5" stroke-miterlimit="10" d="M369.9 167.1c11.2 24.4 16.1 47.9 15.8 74.7 0.3-22.5-29.4-33.2-32-5.6 -0.8 8.3-0.7 20.2 10.3 20 8.6-0.2 20.7-6.3 21.6-15.9"/><path fill="none" stroke="#DDE5CE" stroke-width="5" stroke-miterlimit="10" d="M305.8 188.5c27.1 10.1 37.3 34.7 44.8 60.1"/><path fill="none" stroke="#DDE5CE" stroke-width="5" stroke-miterlimit="10" d="M299.8 220c-6.4 16 10.1 34.3 23.1 41.3 5.9 3.2 13.2 5.4 19.8 3.1 7.4-2.5 6.4-9.3 7.8-15.8"/><path fill="none" stroke="#DDE5CE" stroke-width="5" stroke-miterlimit="10" d="M339.9 265.9c-16.6-15.5-7.8-39 5.9-29.4"/><path fill="none" stroke="#DDE5CE" stroke-width="5" stroke-miterlimit="10" d="M309.7 252.4c-7.3 2.1-14.7 11.9-18.5 29.1"/><path fill="none" stroke="#DDE5CE" stroke-width="5" stroke-miterlimit="10" d="M386.2 231.5c3.6 6.2 6.6 14.5 10.4 16.8"/><path fill="none" stroke="#DDE5CE" stroke-width="5" stroke-miterlimit="10" d="M433.9 231.5c-0.6 6.5-1.1 14.4-3.1 17.7"/><path fill="none" stroke="#DDE5CE" stroke-width="5" stroke-miterlimit="10" d="M354.8 251c-4.3-2.4-6.1-9.9-6.1-9.9"/><path fill="none" stroke="#DDE5CE" stroke-width="5" stroke-miterlimit="10" d="M387.4 245.9c-0.2 4-2.5 4.4-2.5 4.4"/></svg>