<svg version="1.1" xmlns="http://www.w3.org/2000/svg" xmlns:xlink="http://www.w3.org/1999/xlink" viewBox="0 0 768 975" enable-background="new 0 0 768 975" xml:space="preserve">
<g id="circle">
	<circle fill="#DDE5CE" cx="384.51" cy="731.426" r="125.426"/>
</g>
<g id="ee">
	<g>
		<path fill="#CB394D" d="M381.684,689.998v8h-39.8v22.7h37.1v8h-37.1v24.7h40.1v8h-49.6v-71.4H381.684z"/>
		<path fill="#EA5F72" d="M433.684,758.099c-3.867,2.935-8.734,4.399-14.6,4.399c-4.135,0-7.718-0.667-10.75-2
			c-3.035-1.332-5.585-3.199-7.65-5.6c-2.067-2.4-3.617-5.266-4.65-8.6c-1.034-3.333-1.617-6.966-1.75-10.9
			c0-3.933,0.601-7.533,1.801-10.8c1.199-3.266,2.883-6.101,5.05-8.5c2.165-2.4,4.732-4.266,7.7-5.601c2.965-1.332,6.215-2,9.75-2
			c4.6,0,8.415,0.95,11.449,2.851c3.033,1.899,5.466,4.317,7.301,7.25c1.832,2.935,3.1,6.134,3.8,9.6
			c0.7,3.468,0.982,6.768,0.85,9.9h-38.7c-0.066,2.267,0.2,4.417,0.801,6.45c0.6,2.034,1.565,3.834,2.899,5.399
			c1.333,1.567,3.033,2.817,5.101,3.75c2.065,0.935,4.5,1.4,7.3,1.4c3.6,0,6.55-0.833,8.85-2.5c2.3-1.666,3.815-4.2,4.55-7.601h8.4
			C440.049,750.799,437.549,755.166,433.684,758.099z M431.634,724.898c-0.768-1.8-1.8-3.35-3.101-4.65
			c-1.3-1.3-2.834-2.332-4.6-3.1c-1.768-0.766-3.717-1.15-5.85-1.15c-2.2,0-4.185,0.385-5.95,1.15
			c-1.768,0.768-3.284,1.817-4.55,3.15c-1.268,1.334-2.268,2.884-3,4.649c-0.734,1.768-1.168,3.65-1.301,5.65h29.7
			C432.85,728.599,432.399,726.698,431.634,724.898z"/>
	</g>
</g>
<g id="e">
	<g>
		<path fill="none" stroke="#DDE5CE" stroke-width="5" stroke-miterlimit="10" d="M313.379,588.19
			c-1.669-23.341,12.145-50.279-1.587-67.724c-11.72-14.85-27.102-22.153-33.883-40.854c-9.048-24.952-13.887-51.217-15.848-77.64
			c-3.622-48.797,8.587-98.642,2.263-146.772c-2.179-16.583-1.455-28.784,6.934-43.474c6.38-11.173,19.385-28.354,34.501-23.2
			c6.682-14.926,17.824-37.438,36.417-39.62c8.707-1.021,27.632,7.724,27.733,18.183c-6.47-41.254,53.8-39.426,59.914-4.21
			c-0.012-10.456,20.25-15.735,28.538-13.269c15.284,4.548,29.472,18.09,35.988,32.438c9.711,21.379,11.545,50.584,14.613,73.71
			c1.609,12.131,2.711,24.344,2.9,36.585c0.155,10.018-3.54,20.806,3.42,28.906c3.747,4.361,9.474,8.861,11.3,14.515
			c2.614,8.094-4.283,25.436-5.914,33.873c-4,20.693-8.412,41.449-16.519,60.987c-14.489,34.923-48.873,73.672-20.975,112.509"/>
		<path fill="none" stroke="#DDE5CE" stroke-width="5" stroke-miterlimit="10" d="M374.121,257.131
			c-0.113,30.279,25.479,38.106,47.067,51.76c15.281,9.665,8.007,17.065,5.215,32.164c-2.203,11.85,16.942,17.691,18.267,29.508"/>
		<path fill="none" stroke="#DDE5CE" stroke-width="5" stroke-miterlimit="10" d="M512.537,317.277
			c-5.484-5.876-13.091-8.809-18.99-14.114c-7.599-6.834-12.342-19.318-17.472-28.123c-8.068-13.85-15.116-22.538-31.581-24.963
			c-5.354-0.789-14.505-2.166-18.091,3.359c-3.613,5.567,0.756,8.831-7.344,10.115c-13.726,2.176-32.074,0.725-44.938-4.75"/>
		<path fill="none" stroke="#DDE5CE" stroke-width="5" stroke-miterlimit="10" d="M426.621,312.876
			c3.112,1.258,18.293-4.836,22.461-6.853"/>
		<path fill="none" stroke="#DDE5CE" stroke-width="5" stroke-miterlimit="10" d="M428.034,331.351
			c-39.921,32.107-28.263,96.479-61.54,132.129"/>
		<path fill="none" stroke="#DDE5CE" stroke-width="5" stroke-miterlimit="10" d="M402.976,299.568
			c-21.383,21.649-54.356,24.419-83.062,31.392"/>
		<path fill="none" stroke="#DDE5CE" stroke-width="5" stroke-miterlimit="10" d="M429.495,250.73
			c-16.785,1.337-41.582-7.182-57.245,8.071"/>
		<path fill="none" stroke="#DDE5CE" stroke-width="5" stroke-miterlimit="10" d="M479.198,199.764
			c-7.597-1.068-10.828-8.624-11.366-15.423c2.954,15.998,19.938,66.018-0.405,76.306"/>
		<path fill="none" stroke="#DDE5CE" stroke-width="5" stroke-miterlimit="10" d="M474.95,242.035
			c-6.065-6.707-10.28-20.232-21.754-16.587c-9.557,3.037-21.586,14.251-9.867,23.776"/>
		<path fill="none" stroke="#DDE5CE" stroke-width="5" stroke-miterlimit="10" d="M429.495,161.137
			c-12.687,41.938,6.728,74.059,9.878,79.239"/>
		<path fill="none" stroke="#DDE5CE" stroke-width="5" stroke-miterlimit="10" d="M429.495,246.038
			c-0.818-9.859-11.251-49.319-28.034-30.404c-5.984,6.745-6.392,17.064-4.926,25.487c1.979,11.393,26.152,8.18,32.96,7.005"/>
		<path fill="none" stroke="#DDE5CE" stroke-width="5" stroke-miterlimit="10" d="M369.908,167.092
			c11.212,24.411,16.147,47.89,15.817,74.741c0.283-22.453-29.376-33.195-31.971-5.553c-0.776,8.265-0.709,20.208,10.295,19.995
			c8.594-0.167,20.66-6.325,21.582-15.898"/>
		<path fill="none" stroke="#DDE5CE" stroke-width="5" stroke-miterlimit="10" d="M305.758,188.528
			c27.054,10.069,37.302,34.651,44.754,60.05"/>
		<path fill="none" stroke="#DDE5CE" stroke-width="5" stroke-miterlimit="10" d="M299.818,219.963
			c-6.367,16.015,10.114,34.304,23.056,41.262c5.902,3.173,13.175,5.37,19.805,3.14c7.372-2.48,6.393-9.328,7.833-15.786"/>
		<path fill="none" stroke="#DDE5CE" stroke-width="5" stroke-miterlimit="10" d="M339.947,265.914
			c-16.603-15.456-7.764-38.957,5.948-29.355"/>
		<path fill="none" stroke="#DDE5CE" stroke-width="5" stroke-miterlimit="10" d="M309.715,252.392
			c-7.285,2.144-14.683,11.925-18.523,29.058"/>
		<path fill="none" stroke="#DDE5CE" stroke-width="5" stroke-miterlimit="10" d="M386.213,231.528
			c3.6,6.186,6.592,14.526,10.43,16.75"/>
		<path fill="none" stroke="#DDE5CE" stroke-width="5" stroke-miterlimit="10" d="M433.884,231.528
			c-0.61,6.519-1.114,14.439-3.099,17.696"/>
		<path fill="none" stroke="#DDE5CE" stroke-width="5" stroke-miterlimit="10" d="M354.847,250.966
			c-4.335-2.388-6.067-9.857-6.067-9.857"/>
		<path fill="none" stroke="#DDE5CE" stroke-width="5" stroke-miterlimit="10" d="M387.446,245.921
			c-0.25,3.957-2.466,4.411-2.466,4.411"/>
	</g>
</g>
</svg>
