<svg version="1.1" id="Layer_1" xmlns="http://www.w3.org/2000/svg" xmlns:xlink="http://www.w3.org/1999/xlink" viewBox="0 -275 768 980" enable-background="new 0 -275 768 980" xml:space="preserve">
<circle fill="#DDF2F2" cx="388.052" cy="450.946" r="97.563"/>
<polyline fill="none" points="256.868,314.855 256.868,-124.996 683.781,-124.996 683.781,314.855 "/>
<g enable-background="new    ">
	<path fill="#DDF2F2" d="M476.147,132.418c-1.939,19.404-4.852,33.882-8.731,43.418c-3.88,9.544-9.143,20.376-15.767,32.504
		c-6.632,12.128-14.638,25.957-24.014,41.478l11.158,57.729h-9.702l-11.644-56.758c12.613-21.992,24.575-44.146,35.899-66.462
		c10.672-20.376,15.358-44.146,14.07-71.314c-0.652-17.462-4.048-37.514-10.188-60.153c-10.672-27.812-24.424-41.88-41.235-42.208
		c-9.702,1.624-16.494,6.306-20.376,14.067c-3.882,7.763-5.336,22.643-4.366,44.632l1.456,12.127
		c5.17-0.969,9.702-1.456,13.584-1.456c3.88,0,7.109,2.993,9.702,8.974c2.584,5.988,2.584,10.674,0,14.07
		c-2.592,3.394-7.929,6.062-16.008,8.004c1.939,4.534,5.168,6.792,9.701,6.792c4.526,0,8.732-1.288,12.614-3.88
		c3.88-2.584,6.14-9.051,6.792-19.404c1.614-22.316,2.828-36.872,3.638-43.662c0.803-6.792,2.017-6.868,3.639-0.242
		c1.616,6.632,2.426,12.372,2.426,17.223c10.022,0.649,10.022,1.622,0,2.91c-0.326,7.443-0.81,14.72-1.456,21.829l3.88,3.396
		c16.168-9.05,16.98-8.248,2.426,2.426c3.555,4.208,6.383,8.572,8.49,13.098c2.101,4.534,3.312,9.788,3.638,15.769
		c0.318,5.988-0.241,10.756-1.697,14.31c-1.456,3.562-2.752,1.624-3.882-5.819c-1.137-7.438-2.351-13.343-3.639-17.708
		c-1.296-4.366-5.018-9.944-11.158-16.736c-0.651,9.384-3.396,15.85-8.247,19.406c-4.853,3.562-9.704,5.662-14.555,6.306
		c-4.852,0.65-9.218-0.318-13.098-2.912c-12.294,14.88-24.742,17.464-37.356,7.762c-2.266,5.822-6.472,8.732-12.614,8.732
		c-3.562,23.288-5.176,38.492-4.85,45.604c0.318,7.118-0.652,8.898-2.912,5.337c-2.266-3.555-3.562-10.265-3.88-20.133
		c-0.326-9.861,0.318-20.777,1.94-32.745c-4.853-1.29-8.732-4.2-11.645-8.732c-9.702,8.088-20.376,5.822-32.018-6.792
		c-0.97,9.056-2.91,19.244-5.822,30.562c-2.592,10.673-3.562,21.83-2.91,33.473c0.645,11.644,2.986,23.288,7.034,34.929
		c4.04,11.643,13.66,40.1,28.866,85.383h-10.188c-21.998-64.691-33.313-104.218-33.958-118.614
		c-0.651-14.387,0.16-25.469,2.427-33.232c4.852-20.694,7.436-33.146,7.762-37.354c-7.118-9.703-10.188-23.203-9.218-40.51
		c0.97-17.296,4.525-29.023,10.672-35.17c6.14-6.14,12.445-8.731,18.92-7.764c1.939-8.406,4.852-14.068,8.731-16.979
		c3.881-2.91,8.49-4.283,13.826-4.124c5.336,0.166,10.104,1.864,14.312,5.095c2.584-6.792,7.352-11.4,14.31-13.828
		c6.952-2.426,13.342-2.5,19.164-0.242c5.822,2.266,10.021,4.692,12.614,7.276c5.496-6.467,12.771-10.021,21.832-10.673
		c17.138-1.287,31.776,9.87,43.904,33.475C470.567,58.521,476.466,91.025,476.147,132.418z M316.54,107.676
		c-1.296-1.939-3.32-8.89-6.064-20.859c-2.75-11.962-3.153-26.198-1.212-42.692c-10.028,1.294-16.176,6.306-18.434,15.04
		c-2.267,8.732-3.396,16.334-3.396,22.8c0,6.473,0.97,13.022,2.91,19.646c1.94,6.632,5.98,12.698,12.128,18.193
		C305.7,112.695,310.392,108.647,316.54,107.676z M317.025,109.13c-5.504,0.326-10.029,4.048-13.584,11.158
		c4.853,4.853,8.809,7.278,11.887,7.278c3.069,0,5.653-0.803,7.762-2.426C325.188,123.527,323.166,118.191,317.025,109.13z
		 M314.6,243.512c0.97-1.621,5.654-2.508,14.068-2.668c8.406-0.166,12.932,0.887,13.584,3.154L314.6,243.512z M352.926,110.588
		c-10.028-37.189-12.94-65.326-8.732-84.414c-9.384-5.494-16.418-5.336-21.104,0.486c-4.692,5.82-7.034,16.092-7.034,30.804
		c0,14.721,1.212,26.282,3.638,34.688c2.427,8.414,6.225,16.66,11.4,24.742c4.852-5.17,9.862-7.438,15.04-6.792L352.926,110.588z
		 M323.815,247.879l7.763-0.971c6.466,0.318,9.536,1.291,9.216,2.91L323.815,247.879z M357.292,125.141l-3.882-13.099
		c-6.473-0.97-11.082-0.804-13.826,0.484c-2.752,1.296-5.26,3.235-7.521,5.822c5.822,10.997,11.477,16.008,16.98,15.04
		C354.54,132.418,357.292,129.674,357.292,125.141z M348.074,238.66c4.525-0.969,8.808-1.293,12.855-0.969
		c4.042,0.318,6.55,0.969,7.521,1.941c-3.88,0.645-7.763,0.887-11.643,0.727C352.926,240.191,350.014,239.629,348.074,238.66z
		 M349.044,244.482c4.523-0.971,7.92-1.455,10.188-1.455c3.229,0,5.98,0.643,8.248,1.938c-2.912,0.645-5.58,0.973-8.004,0.973
		S353.567,245.453,349.044,244.482z M394.16,117.865c-4.208-10.99-7.276-21.42-9.217-31.292c-1.939-9.862-2.834-21.178-2.668-33.958
		c0.16-12.772,2.343-24.172,6.551-34.202c-13.267-7.762-23.126-8.732-29.593-2.91c-6.474,5.822-9.626,13.992-9.46,24.498
		c0.16,10.514,0.561,18.521,1.212,24.014c0.645,5.505,1.288,10.433,1.94,14.797c0.644,4.367,1.614,9.3,2.91,14.796
		c1.29,5.504,2.584,10.354,3.882,14.554c9.376-4.852,14.872-5.656,16.494-2.426c2.91,4.852,5.653,12.126,8.248,21.83
		C388.34,125.625,391.567,122.397,394.16,117.865z M383.004,128.537c-1.624-6.792-4.048-13.418-7.278-19.89
		c-0.97-2.584-2.994-3.555-6.063-2.91c-3.078,0.649-6.23,2.107-9.46,4.366c1.29,4.533,2.584,8.489,3.88,11.886
		c1.29,3.394,3.638,5.744,7.036,7.034C374.512,130.319,378.47,130.159,383.004,128.537z M415.992,92.637
		c-2.593-7.437-5.822-11.074-9.702-10.914c-3.882,0.166-8.248,0.567-13.099,1.212c1.94,11.323,4.04,20.376,6.307,27.166
		C413.397,106.873,418.901,101.05,415.992,92.637z"/>
</g>
<g enable-background="new    ">
	<path fill="#F44D8D" d="M416.968,401.303v10.162h-50.552v28.832h47.124v10.162h-47.124v31.371h50.934v10.162h-63v-90.689H416.968z"
		/>
</g>
</svg>
