<svg version="1.1" id="Layer_1" xmlns="http://www.w3.org/2000/svg" xmlns:xlink="http://www.w3.org/1999/xlink" viewBox="6 -275 768 980" enable-background="new 6 -275 768 980" xml:space="preserve">
<circle fill="#DDF2F2" cx="407.46" cy="441.215" r="97.563"/>
<polyline fill="none" points="276.275,325.116 276.275,-114.733 703.189,-114.733 703.189,325.116 "/>
<g enable-background="new    ">
	<path fill="#DDF2F2" d="M397.56,317.812h-9.218c-12.614-32.02-21.998-59.598-28.139-82.715c-6.147-23.12-9.142-46.729-8.974-70.828
		c0.16-24.09-1.698-41.151-5.58-51.182c-3.88-10.02-13.098-25.71-27.651-47.056c-14.555-21.347-23.612-39.698-27.166-55.062
		c-3.562-15.358-0.166-23.688,10.188-24.983c10.348-1.29,22.15,6.474,35.416,23.285c18.108,23.612,30.236,40.106,36.384,49.482
		c6.141,9.384,7.11,8.006,2.912-4.124c-4.208-12.128-13.098-38.568-26.682-79.318c-7.444-20.693-11.326-35.172-11.645-43.418
		c-0.326-8.248,0.886-14.874,3.639-19.89c2.743-5.01,7.52-7.838,14.312-8.49c17.782-1.288,33.148,19.572,46.086,62.582
		c10.672,34.61,14.796,44.148,12.372,28.622c-2.426-15.524-5.26-38.158-8.49-67.918c-0.97-17.464,1.046-29.426,6.064-35.9
		c5.01-6.466,11.886-8.247,20.618-5.336c11.315,2.912,22.474,25.878,33.474,68.889c7.762,35.582,13.416,61.292,16.98,77.136
		c11.317-2.26,22.147,1.294,32.502,10.672c13.259,12.614,20.532,31.618,21.833,57.002c1.289,25.395-1.379,52.962-8.006,82.714
		c-6.631,29.761-14.796,59.673-24.5,89.747l10.673,46.09h-8.248l-10.672-47.543c19.079-62.096,29.753-108.744,32.019-139.958
		c2.258-31.208-0.971-54.25-9.703-69.13c-8.731-14.874-18.034-22.072-27.894-21.588c-9.87,0.484-18.36,5.42-25.471,14.796
		l-28.622,32.504c13.902,1.294,19.238,4.366,16.009,9.216c-3.236,4.853-5.662,8.089-7.278,9.704c-1.622,1.622-3.88,2.91-6.792,3.88
		c-4.208,0.65-10.188,0.326-17.95-0.97c-1.296,6.146,3.798,9.626,15.282,10.431c11.476,0.81,24.256-3.229,38.326-12.127
		c14.069-8.892,23.204-16.737,27.41-23.529c4.199-6.792,5.821-7.278,4.852-1.456c-0.97,5.819-2.912,10.514-5.822,14.067
		c3.23,0.652,7.354,0.408,12.372-0.728c5.01-1.128,6.307-0.158,3.88,2.912c-2.426,3.076-9.3,4.124-20.618,3.151
		c-2.909,2.91-6.632,6.148-11.157,9.704l3.396,9.704c16.168-3.556,16.654-2.102,1.456,4.366c5.496,22.966,7.838,40.106,7.036,51.424
		c-0.812,11.324-2.426,9.786-4.852-4.609c-2.427-14.387-7.36-33.548-14.797-57.488c-13.584,9.704-27.493,13.752-41.72,12.128
		l2.426,34.93c0.318,24.908-1.939,28.305-6.792,10.188c-7.762,0-13.909,7.118-18.434,21.346c-4.534,14.236-6.232,13.267-5.094-2.91
		c1.128-16.17,8.974-25.712,23.527-28.624l-3.396-35.414c-8.732-0.97-13.666-4.852-14.796-11.644
		c-1.137-6.792,2.342-14.872,10.43-24.256c-0.97-11.96-1.698-20.86-2.184-26.683c-0.486-5.821-0.729-11.642-0.729-17.464
		c-9.058-25.544-15.689-44.792-19.89-57.729c-5.177-15.524-9.3-27.568-12.37-36.143c-3.078-8.565-6.876-16.896-11.4-24.983
		c-4.534-8.08-9.87-12.933-16.01-14.555c-6.148-1.613-10.514,0.568-13.098,6.551c-2.593,5.987-2.267,14.962,0.97,26.924
		l40.75,126.618c0.97,5.178-1.296,8.815-6.792,10.916c-5.502,2.107-8.332,2.836-8.49,2.184c-0.166-0.644,0.97-1.858,3.396-3.638
		c2.426-1.774,2.1-4.284-0.971-7.521c-3.078-3.228-12.294-15.2-27.651-35.899c-15.364-20.694-26.522-33.632-33.475-38.811
		c-6.958-5.168-11.81-6.548-14.554-4.124c-2.752,2.426-3.154,7.931-1.212,16.494c1.94,8.574,7.92,21.271,17.95,38.084l28.622,44.63
		c8.405,12.294,12.614,30.488,12.614,54.576c0,24.098,1.697,45.202,5.094,63.31c3.396,18.117,9.777,40.584,19.164,67.434
		L397.56,317.812z M319.453,35.953c1.94-2.91,4.2-4.685,6.792-5.336C328.83,29.971,326.563,31.753,319.453,35.953z M341.77,64.089
		l-3.396,1.942c2.258-2.585,4.684-4.929,7.275-7.036C348.235,56.895,346.939,58.595,341.77,64.089z M352.441,60.209l-7.275,6.792
		l-6.792,4.366C345.483,63.931,350.176,60.209,352.441,60.209z M367.481,91.741l-9.702,9.218c0.971-2.912,2.424-5.17,4.366-6.792
		C364.086,92.553,365.859,91.741,367.481,91.741z M376.214-29.539c-5.179,2.592-8.574,3.722-10.188,3.396
		c5.496-4.199,10.506-6.306,15.04-6.306C383.006-32.451,381.384-31.481,376.214-29.539z M398.529,9.755
		c-5.502,3.88-11.158,6.474-16.979,7.762c1.939-2.258,4.042-3.958,6.306-5.094C390.115,11.295,393.68,10.407,398.529,9.755z
		 M400.955,15.091c-3.562,2.594-6.474,4.124-8.731,4.61c-2.266,0.483-4.85,1.212-7.762,2.184
		C388.016,18.329,393.512,16.061,400.955,15.091z M415.993,274.147c-8.088,1.943-16.334,2.262-24.741,0.973
		c4.199-1.297,8.248-1.941,12.128-1.941C408.552,272.854,412.758,273.181,415.993,274.147z M438.796,279.001
		c-9.702,1.615-18.92,1.773-27.652,0.486c3.882-1.297,8.566-2.109,14.07-2.426C430.708,276.735,435.231,277.382,438.796,279.001z
		 M466.447,41.774l7.278-6.306c-1.94-10.674-4.208-22.476-6.792-35.416c-8.414-40.098-15.448-67.189-21.102-81.258
		c-5.664-14.07-11-22.392-16.011-24.984c-5.018-2.584-9.218-1.773-12.613,2.427c-3.396,4.207-4.45,14.394-3.154,30.562
		l13.098,100.906c3.229-4.2,8.08-6.708,14.555-7.521c6.466-0.802,11.802,0.168,16.008,2.912
		C461.916,25.849,464.825,32.071,466.447,41.774z M449.468,91.257c-4.851-1.942-9.542-3.07-14.068-3.396
		c-5.502,4.853-10.354,11.326-14.554,19.406c6.14,0.969,10.916,1.378,14.312,1.212c3.396-0.159,6.223-1.374,8.49-3.638
		C451.084,96.761,453.023,92.227,449.468,91.257z M454.806,271.239c-4.208,0.971-9.058,1.213-14.554,0.729
		c-5.504-0.488-9.626-0.895-12.372-1.213c-2.752-0.326-3.078-0.895-0.971-1.701c2.101-0.809,6.141-1.051,12.128-0.725
		C445.018,268.647,450.271,269.62,454.806,271.239z M451.894,58.269c-5.176,0.971-8.816,0.971-10.916,0
		c-2.108-0.97-2.994-3.396-2.668-7.277c-0.326-4.853-0.326-8.08,0-9.704c0.318-1.614,1.456-3.229,3.396-4.853
		c1.94-1.613,6.467-1.939,13.584-0.968c2.259,0.65,3.555,1.294,3.881,1.94c-0.326-1.29-1.055-3.471-2.185-6.549
		c-1.136-3.069-5.176-4.525-12.128-4.365c-6.958,0.166-11.726,3.076-14.312,8.729c-2.593,5.664-2.91,21.756-0.971,48.272
		c4.851-5.822,8.164-9.704,9.946-11.643C441.298,69.911,445.42,65.385,451.894,58.269z M447.527-38.757
		c-2.592,1.296-5.502,1.865-8.731,1.697c-3.236-0.159-6.307-0.56-9.216-1.212C436.044-39.243,442.023-39.401,447.527-38.757z
		 M454.806,6.845c-7.118,0.97-13.91,0.97-20.376,0C440.569,5.229,447.361,5.229,454.806,6.845z M457.716,11.211
		c-8.088,1.624-15.851,1.624-23.286,0c0.97-0.968,4.284-1.532,9.946-1.698C450.029,9.353,454.478,9.923,457.716,11.211z
		 M460.626,48.081l-1.456-8.732c-0.971-1.941-4.534-2.912-10.672-2.912c-6.148,0-9.219,2.427-9.219,7.278
		c0,3.88,0.16,7.521,0.486,10.916c0.318,3.396,4.684,4.124,13.098,2.184L460.626,48.081z"/>
</g>
<g enable-background="new    ">
	<path fill="#F44D8D" d="M433.327,391.569v10.162h-47.504v28.832h41.662v10.162h-41.662v41.533h-12.065v-90.689H433.327z"/>
</g>
</svg>
