<svg version="1.1" xmlns="http://www.w3.org/2000/svg" viewBox="0 0 768 975" enable-background="new 0 0 768 975" xml:space="preserve"><circle fill="#DDE5CE" cx="384.5" cy="731.4" r="125.4"/><path fill="#CB394D" d="M393.2 690v8h-37.4v22.7h32.8v8h-32.8v32.7h-9.5v-71.4H393.2z"/><path fill="#EA5F72" d="M402.1 717.2v-7.5h8.7v-7.7c0-4.2 1.2-7.4 3.6-9.5 2.4-2.2 6-3.2 10.7-3.2 0.8 0 1.7 0.1 2.8 0.2 1 0.1 2 0.3 2.8 0.6v7.4c-0.7-0.3-1.5-0.4-2.4-0.5 -0.9-0.1-1.7-0.1-2.4-0.1 -2.1 0-3.7 0.4-4.8 1.2 -1.1 0.8-1.7 2.3-1.7 4.6v7.2h10v7.5h-10v44.2h-8.5v-44.2H402.1z"/><path fill="none" stroke="#DDE5CE" stroke-width="5" stroke-miterlimit="10" d="M401.5 184.5c-4.3 0 16.9-7.1 17.6-7.6 9.8-6.6 42.2 13.7 48.8 36.7 2.1 7.1 8.7 21.4 11.6 28.4"/><path fill="none" stroke="#DDE5CE" stroke-width="5" stroke-miterlimit="10" d="M502.3 317.6c0 5 5 19.2 4.3 25 -5.2 45.4-5.4 79.1-26.3 116.3 -12.4 22-12.7 56.3 2.8 74.4"/><path fill="none" stroke="#DDE5CE" stroke-width="5" stroke-miterlimit="10" d="M331.7 587.9c-3.4-21.2 7.1-46.9-6.8-61.7 -9.1-9.7-25.2-16.5-31.2-28.5 -29.5-58.7-29.6-123.8-29.7-189.1"/><path fill="none" stroke="#DDE5CE" stroke-width="5" stroke-miterlimit="10" d="M421.8 221.9c-15.3 30.1 11 41.2 21.7 64.5 3.6 7.9 6.3 19.8-1.4 30 -6.2 8.2-13.5 39.7-24.5 49.6"/><path fill="none" stroke="#DDE5CE" stroke-width="5" stroke-miterlimit="10" d="M506.6 341.4c-2.6-8.8-5.6-34.3-6.2-40.1 -0.4-3.9-0.7-7.5-0.9-10.8"/><path fill="none" stroke="#DDE5CE" stroke-width="5" stroke-miterlimit="10" d="M499.6 290.5c-2-27.6-0.4-34.3-12.3-43.6 -11.8-9.2-20.2-12.7-24.3-2.9 -2.4 5.7-33.1-12.6-41.1-22.1"/><path fill="none" stroke="#DDE5CE" stroke-width="5" stroke-miterlimit="10" d="M442.3 283.7c3 3.5 12.8 4.6 21.4 4.7"/><path fill="none" stroke="#DDE5CE" stroke-width="5" stroke-miterlimit="10" d="M417.6 365.9c-33.9 32.5-19.8 68.7-47.4 103.9"/><path fill="none" stroke="#DDE5CE" stroke-width="5" stroke-miterlimit="10" d="M408.4 300.7c-17.8 21.5-65.5 43.2-91.2 51.8"/><path fill="none" stroke="#DDE5CE" stroke-width="5" stroke-miterlimit="10" d="M470.5 238.1C456.2 232.3 429.5 213 421.5 222.9"/><path fill="none" stroke="#DDE5CE" stroke-width="5" stroke-miterlimit="10" d="M404.8 268.4C404.8 268.4 417.1 265.6 404.8 268.4c-8.3 1.9-15-17.7-15-17.7 -3.9-6.8-2.4-11.5-0.2-14.2 3.1-3.4 20.8-4.9 20.8-4.9 8.5 1.8 9.3 32.2 0.2 35"/><path fill="none" stroke="#DDE5CE" stroke-width="5" stroke-miterlimit="10" d="M401.5 184.5c-15.4 20.2-20.2 25.1-13.5 60.5"/><path fill="none" stroke="#DDE5CE" stroke-width="5" stroke-miterlimit="10" d="M441.3 207.8c-0.2 3.5-0.3 14.1-0.3 14.1"/><path fill="none" stroke="#DDE5CE" stroke-width="5" stroke-miterlimit="10" d="M377.4 100.7c-2.4-16.3-16.5-46-29.2-47.5 -14.2-1.7-18 33-16.4 45 -0.1-5.2-6-24-25.6-20.7 -21.1 8.1-9.5 44.7-9.5 70.1 -20.2-20.8-31.8-3.4-31.8 9.7 0 7-1.1 61.3 6.1 104.5 1.4 8.4-7 30.9-7.2 46.8"/><path fill="none" stroke="#DDE5CE" stroke-width="5" stroke-miterlimit="10" d="M377.4 100.7c-0.2 9.2 11.1 54.6 14.4 61.6 0.4 5.2 2.9 16.8 5.4 27.5"/><path fill="none" stroke="#DDE5CE" stroke-width="5" stroke-miterlimit="10" d="M331.8 98.2c2.1 10.3 4.4 41.6 9 48.3 0.7 10.8 1.8 54.9 8 64.8 -0.5 10.5 4.2 38.4 7.9 43.6l7.2-1.8"/><line fill="none" stroke="#DDE5CE" stroke-width="5" stroke-miterlimit="10" x1="356.7" y1="254.9" x2="350" y2="259.5"/><path fill="none" stroke="#DDE5CE" stroke-width="5" stroke-miterlimit="10" d="M296.7 147.6c1 9.6 4.8 49.2 11.5 57.9 0 0-2.2 41.8 1.7 50.9l8.5 2.6"/><line fill="none" stroke="#DDE5CE" stroke-width="5" stroke-miterlimit="10" x1="309.8" y1="256.5" x2="304.7" y2="260.2"/></svg>