<svg version="1.1" xmlns="http://www.w3.org/2000/svg" xmlns:xlink="http://www.w3.org/1999/xlink" viewBox="0 0 768 975" enable-background="new 0 0 768 975" xml:space="preserve">
<g id="circle">
	<circle fill="#DDE5CE" cx="384.51" cy="731.426" r="125.426"/>
</g>
<g id="ff">
	<g>
		<path fill="#CB394D" d="M393.184,689.998v8h-37.4v22.7h32.8v8h-32.8v32.7h-9.5v-71.4H393.184z"/>
		<path fill="#EA5F72" d="M402.083,717.198v-7.5h8.7v-7.7c0-4.199,1.215-7.383,3.649-9.55c2.433-2.165,5.983-3.25,10.65-3.25
			c0.8,0,1.716,0.067,2.75,0.2c1.032,0.135,1.95,0.334,2.75,0.6v7.4c-0.734-0.266-1.534-0.45-2.4-0.55
			c-0.867-0.101-1.667-0.15-2.399-0.15c-2.067,0-3.668,0.4-4.801,1.2c-1.134,0.8-1.699,2.334-1.699,4.6v7.2h10v7.5h-10v44.2h-8.5
			v-44.2H402.083z"/>
	</g>
</g>
<g id="f">
	<g>
		<path fill="none" stroke="#DDE5CE" stroke-width="5" stroke-miterlimit="10" d="M401.493,184.527
			c-4.278,0,16.946-7.082,17.562-7.618c9.847-6.605,42.167,13.727,48.836,36.65c2.06,7.064,8.749,21.378,11.587,28.366"/>
		<path fill="none" stroke="#DDE5CE" stroke-width="5" stroke-miterlimit="10" d="M502.273,317.569
			c0.016,4.976,4.987,19.161,4.307,25.017c-5.21,45.396-5.395,79.05-26.298,116.286c-12.361,22.005-12.741,56.322,2.81,74.408"/>
		<path fill="none" stroke="#DDE5CE" stroke-width="5" stroke-miterlimit="10" d="M331.653,587.922
			c-3.383-21.169,7.094-46.863-6.837-61.692c-9.065-9.675-25.241-16.55-31.231-28.499c-29.455-58.727-29.63-123.809-29.747-189.068"
			/>
		<path fill="none" stroke="#DDE5CE" stroke-width="5" stroke-miterlimit="10" d="M421.797,221.867
			c-15.293,30.093,11.049,41.178,21.685,64.539c3.578,7.872,6.262,19.83-1.424,29.957c-6.241,8.22-13.473,39.664-24.464,49.57"/>
		<path fill="none" stroke="#DDE5CE" stroke-width="5" stroke-miterlimit="10" d="M506.645,341.394
			c-2.569-8.8-5.613-34.278-6.167-40.061c-0.372-3.881-0.665-7.468-0.916-10.793"/>
		<path fill="none" stroke="#DDE5CE" stroke-width="5" stroke-miterlimit="10" d="M499.562,290.54
			c-1.984-27.556-0.383-34.272-12.319-43.645c-11.753-9.221-20.202-12.695-24.323-2.888c-2.367,5.652-33.053-12.601-41.122-22.141"
			/>
		<path fill="none" stroke="#DDE5CE" stroke-width="5" stroke-miterlimit="10" d="M442.329,283.722
			c3.032,3.456,12.835,4.55,21.387,4.709"/>
		<path fill="none" stroke="#DDE5CE" stroke-width="5" stroke-miterlimit="10" d="M417.594,365.933
			c-33.89,32.489-19.823,68.714-47.362,103.919"/>
		<path fill="none" stroke="#DDE5CE" stroke-width="5" stroke-miterlimit="10" d="M408.357,300.736
			c-17.805,21.47-65.549,43.177-91.195,51.829"/>
		<path fill="none" stroke="#DDE5CE" stroke-width="5" stroke-miterlimit="10" d="M470.451,238.079
			C456.165,232.255,429.5,213,421.5,222.867"/>
		<path fill="none" stroke="#DDE5CE" stroke-width="5" stroke-miterlimit="10" d="M404.831,268.377
			C404.831,268.377,417.137,265.573,404.831,268.377c-8.331,1.898-14.986-17.692-14.986-17.692
			c-3.94-6.757-2.413-11.504-0.173-14.236c3.115-3.388,20.828-4.948,20.828-4.948c8.478,1.792,9.333,32.168,0.166,35.001"/>
		<path fill="none" stroke="#DDE5CE" stroke-width="5" stroke-miterlimit="10" d="M401.493,184.527
			c-15.438,20.167-20.19,25.103-13.489,60.543"/>
		<path fill="none" stroke="#DDE5CE" stroke-width="5" stroke-miterlimit="10" d="M441.259,207.761
			c-0.176,3.481-0.302,14.106-0.302,14.106"/>
		<path fill="none" stroke="#DDE5CE" stroke-width="5" stroke-miterlimit="10" d="M377.419,100.687
			c-2.388-16.268-16.465-45.956-29.204-47.47c-14.18-1.687-17.999,33.012-16.413,45.02c-0.054-5.228-5.996-23.976-25.584-20.686
			c-21.075,8.144-9.493,44.652-9.524,70.062c-20.181-20.774-31.81-3.396-31.811,9.733c-0.006,6.954-1.15,61.258,6.118,104.473
			c1.403,8.391-7.043,30.913-7.163,46.843"/>
		<path fill="none" stroke="#DDE5CE" stroke-width="5" stroke-miterlimit="10" d="M377.419,100.687
			c-0.176,9.239,11.112,54.646,14.415,61.646c0.403,5.182,2.859,16.789,5.381,27.514"/>
		<path fill="none" stroke="#DDE5CE" stroke-width="5" stroke-miterlimit="10" d="M331.803,98.237
			c2.054,10.343,4.429,41.582,9.015,48.298c0.66,10.813,1.75,54.935,8.004,64.811c-0.534,10.456,4.164,38.43,7.908,43.557
			l7.167-1.786"/>
		
			<line fill="none" stroke="#DDE5CE" stroke-width="5" stroke-miterlimit="10" x1="356.73" y1="254.903" x2="350.013" y2="259.483"/>
		<path fill="none" stroke="#DDE5CE" stroke-width="5" stroke-miterlimit="10" d="M296.694,147.613
			c1.042,9.609,4.824,49.244,11.455,57.914c0,0-2.188,41.786,1.652,50.927l8.497,2.602"/>
		
			<line fill="none" stroke="#DDE5CE" stroke-width="5" stroke-miterlimit="10" x1="309.801" y1="256.454" x2="304.682" y2="260.194"/>
	</g>
</g>
</svg>
