<svg version="1.1" xmlns="http://www.w3.org/2000/svg" xmlns:xlink="http://www.w3.org/1999/xlink" viewBox="0 0 768 975" enable-background="new 0 0 768 975" xml:space="preserve">
<g id="circle">
	<circle fill="#DDE5CE" cx="384.51" cy="731.426" r="125.426"/>
</g>
<g id="gg">
	<g>
		<path fill="#CB394D" d="M366.134,760.549c-4.134,1.633-8.3,2.449-12.5,2.449c-5.334,0-10.1-0.984-14.3-2.949
			c-4.2-1.966-7.767-4.616-10.7-7.95c-2.934-3.333-5.167-7.166-6.7-11.5c-1.535-4.333-2.3-8.833-2.3-13.5
			c0-5.2,0.716-10.15,2.15-14.851c1.433-4.699,3.565-8.815,6.4-12.35c2.833-3.533,6.366-6.35,10.6-8.45
			c4.232-2.1,9.183-3.149,14.85-3.149c3.866,0,7.516,0.449,10.95,1.35c3.433,0.9,6.5,2.317,9.2,4.25c2.7,1.935,4.965,4.385,6.8,7.35
			c1.833,2.968,3.083,6.551,3.75,10.75h-9.5c-0.467-2.732-1.334-5.082-2.6-7.05c-1.267-1.966-2.834-3.583-4.7-4.85
			c-1.867-1.266-3.984-2.216-6.35-2.851c-2.367-0.633-4.884-0.949-7.55-0.949c-4.334,0-8.05,0.867-11.15,2.6
			c-3.1,1.734-5.634,4.018-7.6,6.85c-1.967,2.835-3.417,6.067-4.35,9.7c-0.935,3.635-1.4,7.351-1.4,11.15
			c0,3.734,0.533,7.317,1.6,10.75c1.066,3.435,2.633,6.467,4.7,9.1c2.065,2.635,4.616,4.734,7.65,6.3
			c3.033,1.567,6.55,2.351,10.55,2.351c3.733,0,7.033-0.601,9.9-1.8c2.865-1.2,5.283-2.851,7.25-4.95
			c1.965-2.101,3.45-4.565,4.45-7.4c1-2.833,1.433-5.883,1.3-9.149h-22.8v-8h31.3v37.6h-6l-2.5-8.9
			C373.734,756.232,370.267,758.916,366.134,760.549z"/>
		<path fill="#EA5F72" d="M441.433,775.998c-3.867,4.2-9.935,6.301-18.2,6.301c-2.4,0-4.85-0.268-7.35-0.801
			c-2.5-0.534-4.768-1.399-6.801-2.6c-2.034-1.2-3.717-2.768-5.05-4.7c-1.334-1.935-2.067-4.3-2.2-7.1h8.5
			c0.066,1.532,0.551,2.833,1.45,3.899c0.9,1.066,2,1.934,3.3,2.601c1.301,0.665,2.716,1.149,4.25,1.45c1.533,0.3,3,0.449,4.4,0.449
			c2.8,0,5.166-0.484,7.1-1.449c1.934-0.968,3.533-2.301,4.801-4c1.266-1.7,2.183-3.75,2.75-6.15c0.565-2.4,0.85-5.033,0.85-7.9
			v-3.399h-0.2c-1.467,3.2-3.685,5.55-6.649,7.05c-2.968,1.5-6.117,2.25-9.45,2.25c-3.867,0-7.234-0.7-10.101-2.1
			c-2.867-1.4-5.267-3.283-7.199-5.65c-1.935-2.365-3.385-5.133-4.351-8.3c-0.967-3.166-1.45-6.516-1.45-10.05
			c0-3.066,0.4-6.216,1.2-9.45c0.8-3.233,2.133-6.166,4-8.8c1.866-2.633,4.333-4.801,7.4-6.5c3.065-1.7,6.833-2.551,11.3-2.551
			c3.266,0,6.266,0.718,9,2.15c2.732,1.435,4.865,3.584,6.4,6.45h0.1v-7.4h8v47.3C447.232,765.464,445.298,771.799,441.433,775.998z
			 M430.582,752.748c1.966-1.165,3.551-2.699,4.75-4.6c1.2-1.9,2.083-4.05,2.65-6.45c0.565-2.399,0.85-4.8,0.85-7.2
			c0-2.266-0.267-4.5-0.8-6.699c-0.534-2.2-1.384-4.184-2.55-5.95c-1.167-1.766-2.685-3.183-4.55-4.25
			c-1.867-1.065-4.135-1.601-6.8-1.601c-2.734,0-5.067,0.518-7,1.551c-1.935,1.034-3.518,2.417-4.75,4.149
			c-1.234,1.734-2.135,3.734-2.7,6c-0.567,2.268-0.851,4.635-0.851,7.101c0,2.334,0.233,4.667,0.7,7
			c0.466,2.334,1.266,4.449,2.4,6.35c1.133,1.9,2.633,3.435,4.5,4.6c1.865,1.168,4.2,1.75,7,1.75S428.615,753.916,430.582,752.748z"
			/>
	</g>
</g>
<g id="g">
	<g>
		<path fill="none" stroke="#DDE5CE" stroke-width="5" stroke-miterlimit="10" d="M587.223,511.788
			c-15.572-34.866-20.955-73.039-35.193-108.237c-10.348-25.581-18.142-51.526-26.051-78.023
			c-10.307-34.532-20.42-59.463-45.228-86.379c-24.242-26.302-53.181-48.788-87.27-60.563c-8.819-3.046-17.858-5.203-26.876-7.547
			c-10.978-2.854-22.106-0.058-33.469,0.793c-38.97,2.919-77.566,0.217-116.5,2.172c-26.937,1.353-53.739,4.502-80.488,7.844
			c-13.196,1.649-41.149,4.91-41.008,24.265c0.154,20.981,47.995,21.759,61.893,22.7c29.097,1.968,58.535,0.922,86.952,8.558
			c-14.06-3.62-29.693,45.312-5.92,45.392c-23.42,1.059-11.717,40.3,3.489,46.253c-10.619,10.268-13.686,25.442-3.524,37.179
			c10.281,11.875,29.003,13.902,43.002,19.171c32.968,12.411,69.741,32.544,106.128,25.21c-8.653,13.853-12.354,5.416-4.19,23.1
			c12.601,27.304,17.85,97.653,24.144,112.351"/>
		<path fill="none" stroke="#DDE5CE" stroke-width="5" stroke-miterlimit="10" d="M327.601,204.082
			c-3.369,7.995-15.445,12.614-15.33,21.913"/>
		<path fill="none" stroke="#DDE5CE" stroke-width="5" stroke-miterlimit="10" d="M303.361,194.799
			c4.831,20.767-15.717,31.132,2.475,46.674"/>
		<path fill="none" stroke="#DDE5CE" stroke-width="5" stroke-miterlimit="10" d="M233.232,180.537
			c3.217,13.117-2.976,31.227,1.222,40.678"/>
		<path fill="none" stroke="#DDE5CE" stroke-width="5" stroke-miterlimit="10" d="M152.524,220.897
			c-0.678-8.257,11.474-19.513,1.734-28.162"/>
		<path fill="none" stroke="#DDE5CE" stroke-width="5" stroke-miterlimit="10" d="M343.728,312.058
			c-0.97,9.873-19.629-6.101-21.25-9.907c-6.316-14.838,7.197-23.888,20.269-16.644"/>
		<path fill="none" stroke="#DDE5CE" stroke-width="5" stroke-miterlimit="10" d="M241.553,236.738
			c7.333-0.975,50.391,13.396,56.368,15.929"/>
		<path fill="none" stroke="#DDE5CE" stroke-width="5" stroke-miterlimit="10" d="M234.455,282.323
			c32.012,22.355,88.516,10.363,113.021,42.905c10.691,14.197-6.8,31.205-22.037,25.007c-21.67-8.815-2.809-35.219,16.441-30.833"/>
		<path fill="none" stroke="#DDE5CE" stroke-width="5" stroke-miterlimit="10" d="M241.553,329.015
			c31.414,17.429,52.874,20.709,88.168,21.722"/>
		<path fill="none" stroke="#DDE5CE" stroke-width="5" stroke-miterlimit="10" d="M254.857,374.875
			c17.292-2.765,33.145,4.233,50.152,2.986c10.173-0.746,38.391-16.911,17.886-27.264"/>
		<path fill="none" stroke="#DDE5CE" stroke-width="5" stroke-miterlimit="10" d="M303.741,348.939
			c-9.207,19.61,4.407,20.402,16.235,23.669"/>
		<path fill="none" stroke="#DDE5CE" stroke-width="5" stroke-miterlimit="10" d="M379.814,226.812
			c-11.353,15.158-40.667,10.137-56.458,10.162c-18.214,0.029-33.708,16.166-21.127,33.306c12.7,17.301,40.384,12.624,58.607,13.211
			c17.498,0.564,50.81,1.49,63.082,16.824"/>
		<path fill="none" stroke="#DDE5CE" stroke-width="5" stroke-miterlimit="10" d="M443.87,240.464
			c12.601,12.604,29.395,35.709,18.896,53.554"/>
		<path fill="none" stroke="#DDE5CE" stroke-width="5" stroke-miterlimit="10" d="M318.064,243.684
			c7.608,7.616,7.388,21.946,4.192,31.505c11.995-1.338,27.23,1.499,26.42-15.155C347.85,243.062,332.66,240.433,318.064,243.684
			C326.454,252.083,327.505,241.581,318.064,243.684z"/>
		<path fill="none" stroke="#DDE5CE" stroke-width="5" stroke-miterlimit="10" d="M363.022,291.918
			c3.153,12.6,24.137,45.154,42,52.5"/>
		<path fill="none" stroke="#DDE5CE" stroke-width="5" stroke-miterlimit="10" d="M375.61,321.315
			c6.319,16.796,13.651,52.509,47.256,63.008"/>
	</g>
	<path fill="none" stroke="#DDE5CE" stroke-width="5" stroke-miterlimit="10" d="M342.747,285.507
		c11.145,4.662,2.529,22.184,0.42,29.16"/>
</g>
</svg>
