<svg version="1.1" xmlns="http://www.w3.org/2000/svg" viewBox="0 0 768 975" enable-background="new 0 0 768 975" xml:space="preserve"><circle fill="#DDE5CE" cx="384.5" cy="731.4" r="125.4"/><path fill="#CB394D" d="M366.1 760.5c-4.1 1.6-8.3 2.4-12.5 2.4 -5.3 0-10.1-1-14.3-2.9 -4.2-2-7.8-4.6-10.7-7.9 -2.9-3.3-5.2-7.2-6.7-11.5 -1.5-4.3-2.3-8.8-2.3-13.5 0-5.2 0.7-10.1 2.2-14.9 1.4-4.7 3.6-8.8 6.4-12.3 2.8-3.5 6.4-6.3 10.6-8.4 4.2-2.1 9.2-3.1 14.9-3.1 3.9 0 7.5 0.4 11 1.4 3.4 0.9 6.5 2.3 9.2 4.3 2.7 1.9 5 4.4 6.8 7.4 1.8 3 3.1 6.6 3.8 10.8h-9.5c-0.5-2.7-1.3-5.1-2.6-7 -1.3-2-2.8-3.6-4.7-4.8 -1.9-1.3-4-2.2-6.3-2.9 -2.4-0.6-4.9-0.9-7.5-0.9 -4.3 0-8 0.9-11.1 2.6 -3.1 1.7-5.6 4-7.6 6.9 -2 2.8-3.4 6.1-4.3 9.7 -0.9 3.6-1.4 7.4-1.4 11.2 0 3.7 0.5 7.3 1.6 10.8 1.1 3.4 2.6 6.5 4.7 9.1 2.1 2.6 4.6 4.7 7.7 6.3 3 1.6 6.6 2.4 10.6 2.4 3.7 0 7-0.6 9.9-1.8 2.9-1.2 5.3-2.9 7.3-4.9 2-2.1 3.5-4.6 4.5-7.4 1-2.8 1.4-5.9 1.3-9.1h-22.8v-8h31.3v37.6h-6l-2.5-8.9C373.7 756.2 370.3 758.9 366.1 760.5z"/><path fill="#EA5F72" d="M441.4 776c-3.9 4.2-9.9 6.3-18.2 6.3 -2.4 0-4.8-0.3-7.3-0.8 -2.5-0.5-4.8-1.4-6.8-2.6 -2-1.2-3.7-2.8-5-4.7 -1.3-1.9-2.1-4.3-2.2-7.1h8.5c0.1 1.5 0.6 2.8 1.5 3.9 0.9 1.1 2 1.9 3.3 2.6 1.3 0.7 2.7 1.1 4.3 1.5 1.5 0.3 3 0.4 4.4 0.4 2.8 0 5.2-0.5 7.1-1.4 1.9-1 3.5-2.3 4.8-4 1.3-1.7 2.2-3.7 2.8-6.1 0.6-2.4 0.9-5 0.9-7.9v-3.4h-0.2c-1.5 3.2-3.7 5.6-6.6 7.1 -3 1.5-6.1 2.3-9.4 2.3 -3.9 0-7.2-0.7-10.1-2.1 -2.9-1.4-5.3-3.3-7.2-5.6 -1.9-2.4-3.4-5.1-4.4-8.3 -1-3.2-1.4-6.5-1.4-10 0-3.1 0.4-6.2 1.2-9.4 0.8-3.2 2.1-6.2 4-8.8 1.9-2.6 4.3-4.8 7.4-6.5 3.1-1.7 6.8-2.6 11.3-2.6 3.3 0 6.3 0.7 9 2.2 2.7 1.4 4.9 3.6 6.4 6.5h0.1v-7.4h8v47.3C447.2 765.5 445.3 771.8 441.4 776zM430.6 752.7c2-1.2 3.6-2.7 4.8-4.6 1.2-1.9 2.1-4 2.7-6.4 0.6-2.4 0.9-4.8 0.9-7.2 0-2.3-0.3-4.5-0.8-6.7 -0.5-2.2-1.4-4.2-2.5-5.9 -1.2-1.8-2.7-3.2-4.5-4.2 -1.9-1.1-4.1-1.6-6.8-1.6 -2.7 0-5.1 0.5-7 1.6 -1.9 1-3.5 2.4-4.7 4.1 -1.2 1.7-2.1 3.7-2.7 6 -0.6 2.3-0.9 4.6-0.9 7.1 0 2.3 0.2 4.7 0.7 7 0.5 2.3 1.3 4.4 2.4 6.4 1.1 1.9 2.6 3.4 4.5 4.6 1.9 1.2 4.2 1.8 7 1.8S428.6 753.9 430.6 752.7z"/><path fill="none" stroke="#DDE5CE" stroke-width="5" stroke-miterlimit="10" d="M587.2 511.8c-15.6-34.9-21-73-35.2-108.2 -10.3-25.6-18.1-51.5-26.1-78 -10.3-34.5-20.4-59.5-45.2-86.4 -24.2-26.3-53.2-48.8-87.3-60.6 -8.8-3-17.9-5.2-26.9-7.5 -11-2.9-22.1-0.1-33.5 0.8 -39 2.9-77.6 0.2-116.5 2.2 -26.9 1.4-53.7 4.5-80.5 7.8 -13.2 1.6-41.1 4.9-41 24.3 0.2 21 48 21.8 61.9 22.7 29.1 2 58.5 0.9 87 8.6 -14.1-3.6-29.7 45.3-5.9 45.4 -23.4 1.1-11.7 40.3 3.5 46.3 -10.6 10.3-13.7 25.4-3.5 37.2 10.3 11.9 29 13.9 43 19.2 33 12.4 69.7 32.5 106.1 25.2 -8.7 13.9-12.4 5.4-4.2 23.1 12.6 27.3 17.9 97.7 24.1 112.4"/><path fill="none" stroke="#DDE5CE" stroke-width="5" stroke-miterlimit="10" d="M327.6 204.1c-3.4 8-15.4 12.6-15.3 21.9"/><path fill="none" stroke="#DDE5CE" stroke-width="5" stroke-miterlimit="10" d="M303.4 194.8c4.8 20.8-15.7 31.1 2.5 46.7"/><path fill="none" stroke="#DDE5CE" stroke-width="5" stroke-miterlimit="10" d="M233.2 180.5c3.2 13.1-3 31.2 1.2 40.7"/><path fill="none" stroke="#DDE5CE" stroke-width="5" stroke-miterlimit="10" d="M152.5 220.9c-0.7-8.3 11.5-19.5 1.7-28.2"/><path fill="none" stroke="#DDE5CE" stroke-width="5" stroke-miterlimit="10" d="M343.7 312.1c-1 9.9-19.6-6.1-21.2-9.9 -6.3-14.8 7.2-23.9 20.3-16.6"/><path fill="none" stroke="#DDE5CE" stroke-width="5" stroke-miterlimit="10" d="M241.6 236.7c7.3-1 50.4 13.4 56.4 15.9"/><path fill="none" stroke="#DDE5CE" stroke-width="5" stroke-miterlimit="10" d="M234.5 282.3c32 22.4 88.5 10.4 113 42.9 10.7 14.2-6.8 31.2-22 25 -21.7-8.8-2.8-35.2 16.4-30.8"/><path fill="none" stroke="#DDE5CE" stroke-width="5" stroke-miterlimit="10" d="M241.6 329c31.4 17.4 52.9 20.7 88.2 21.7"/><path fill="none" stroke="#DDE5CE" stroke-width="5" stroke-miterlimit="10" d="M254.9 374.9c17.3-2.8 33.1 4.2 50.2 3 10.2-0.7 38.4-16.9 17.9-27.3"/><path fill="none" stroke="#DDE5CE" stroke-width="5" stroke-miterlimit="10" d="M303.7 348.9c-9.2 19.6 4.4 20.4 16.2 23.7"/><path fill="none" stroke="#DDE5CE" stroke-width="5" stroke-miterlimit="10" d="M379.8 226.8c-11.4 15.2-40.7 10.1-56.5 10.2 -18.2 0-33.7 16.2-21.1 33.3 12.7 17.3 40.4 12.6 58.6 13.2 17.5 0.6 50.8 1.5 63.1 16.8"/><path fill="none" stroke="#DDE5CE" stroke-width="5" stroke-miterlimit="10" d="M443.9 240.5c12.6 12.6 29.4 35.7 18.9 53.6"/><path fill="none" stroke="#DDE5CE" stroke-width="5" stroke-miterlimit="10" d="M318.1 243.7c7.6 7.6 7.4 21.9 4.2 31.5 12-1.3 27.2 1.5 26.4-15.2C347.9 243.1 332.7 240.4 318.1 243.7 326.5 252.1 327.5 241.6 318.1 243.7z"/><path fill="none" stroke="#DDE5CE" stroke-width="5" stroke-miterlimit="10" d="M363 291.9c3.2 12.6 24.1 45.2 42 52.5"/><path fill="none" stroke="#DDE5CE" stroke-width="5" stroke-miterlimit="10" d="M375.6 321.3c6.3 16.8 13.7 52.5 47.3 63"/><path fill="none" stroke="#DDE5CE" stroke-width="5" stroke-miterlimit="10" d="M342.7 285.5c11.1 4.7 2.5 22.2 0.4 29.2"/></svg>