<svg version="1.1" id="Layer_1" xmlns="http://www.w3.org/2000/svg" xmlns:xlink="http://www.w3.org/1999/xlink" viewBox="0 -275 768 980" enable-background="new 0 -275 768 980" xml:space="preserve">
<circle fill="#DDF2F2" cx="390.516" cy="456.827" r="97.564"/>
<polyline fill="none" points="221.7,308.974 221.7,-130.877 648.613,-130.877 648.613,308.974 "/>
<g enable-background="new    ">
	<path fill="#DDF2F2" d="M345.408,117.323c-16.496,0-24.257,4.691-23.286,14.068c0,7.443,9.216,15.365,27.651,23.771
		c24.9,10.998,44.307,19.246,58.214,24.74c27.486,11.326,22.801,11.483-14.067,0.486c2.258,8.413,8.406,17.304,18.434,26.682
		c15.842,11.324,22.15,17.145,18.92,17.465c-3.235,0.324-12.779-5.337-28.622-16.981c-7.443-6.792-12.939-15.523-16.495-26.197
		c-14.236,2.912-25.711,2.594-34.444-0.968c4.526,10.997,12.771,22.64,24.742,34.928c11.962,12.293,19.405,19.164,22.315,20.621
		c2.91,1.455,5.654,3.795,8.248,7.031l22.316-4.848c1.29,0.967-5.988,3.066-21.832,6.305c3.882,6.465,7.036,16.41,9.46,29.834
		c2.426,13.418,3.638,22.559,3.638,27.41h-7.762c-2.912-29.107-7.444-47.869-13.584-56.275
		c-24.582-18.109-43.988-40.425-58.214-66.948c-9.059,0.326-21.028-3.229-35.9-10.672c-18.118-10.022-27.168-21.347-27.168-33.958
		l0.486-5.822c-11.643,0-20.542-1.128-26.683-3.396c-9.704-3.554-15.122-8.974-16.252-16.252c-1.136-7.275,0.805-12.044,5.822-14.31
		c5.01-2.26,20.936-7.278,47.786-15.04l34.93-9.704c2.258-4.2,4.685-7.436,7.276-9.702c2.584-2.26,5.897-3.88,9.945-4.852
		c4.04-0.971,8.324-0.486,12.856,1.456c3.228-5.17,8.004-8.975,14.31-11.4c6.307-2.426,13.66-2.184,22.074,0.727
		c6.466-3.229,13.258-4.851,20.376-4.851c21.664,0,51.256,32.67,88.778,97.996c12.614,21.67,20.292,36.87,23.044,45.602
		c2.744,8.732,4.366,20.377,4.85,34.931c0.487,14.552,0.886,27.325,1.212,38.325l2.91,44.145h-7.275l-2.91-43.662l-2.426-48.998
		c-0.652-12.613-4.209-25.544-10.673-38.808c-15.206-28.138-26.924-48.756-35.172-61.856c-8.248-13.098-18.602-26.355-31.048-39.779
		c-12.454-13.418-21.832-20.62-28.138-21.588c-6.307-0.971-20.944,4.046-43.904,15.039c-15.523,5.503-32.018,10.188-49.483,14.068
		c2.258,2.91,3.714,6.958,4.365,12.126c-3.88-5.168-5.987-9.05-6.306-11.642l-3.88,0.97c3.554,5.178,5.496,10.514,5.822,16.01
		c-3.236-4.2-6.148-9.05-8.732-14.554l-33.474,9.704c1.939,7.444,0.485,12.372-4.366,14.796c-4.851,2.424-9.702,3.636-14.554,3.636
		c-5.177,0.652-8.574-2.584-10.188-9.702c-5.502,1.295-7.928,4.208-7.278,8.732c1.29,6.472,5.412,10.756,12.372,12.855
		c6.952,2.108,14.712,2.91,23.286,2.427c8.566-0.486,26.356-3.23,53.364-8.248c27-5.01,46.732-8.806,59.186-11.4
		c12.446-2.584,20.694-5.819,24.742-9.704c4.042-3.88,5.656-4.199,4.853-0.968c-0.811,3.236-4.124,6.876-9.946,10.914
		c-5.822,4.048-23.772,8.172-53.848,12.372c23.285,1.942,38.325,2.668,45.115,2.184c6.792-0.483,13.099-1.857,18.92-4.124
		c5.822-2.26,3.715-0.159-6.306,6.307c6.466,0.326,12.044-2.101,16.738-7.278c4.684-5.17,5.979-5.412,3.88-0.728
		c-2.108,4.693-4.776,7.846-8.004,9.46l9.704,1.939c33.306,6.475,25.226,6.958-24.257,1.458c-25.552-1.29-41.478-2.426-47.785-3.396
		C357.779,119.261,351.548,118.291,345.408,117.323z M276.518,89.186c-5.822,1.624-10.43,2.993-13.826,4.124
		c-3.396,1.138-7.201,2.352-11.399,3.638c1.29,5.504,3.229,8.248,5.821,8.248c2.585,0.651,5.822,0.483,9.704-0.484
		c3.881-0.97,6.952-2.586,9.217-4.852C277.647,98.569,277.808,95.007,276.518,89.186z M335.22,172.625
		c-7.762-5.168-14.31-9.944-19.648-14.31c-5.336-4.366-9.626-9.458-12.855-15.282c-3.238-5.822-4.208-11.802-2.912-17.95
		l-13.584,1.94c-1.942,3.562-1.698,8.573,0.728,15.04c2.427,6.474,8.893,12.855,19.406,19.162
		C316.859,167.533,326.487,171.339,335.22,172.625z M353.17,174.567l-7.762-14.068c-11-5.822-18.519-10.748-22.559-14.796
		c-4.048-4.04-6.39-8.322-7.034-12.856c-0.651-4.525,0.16-8.079,2.425-10.674l-11.158,1.942
		c-2.912,10.998,1.288,21.104,12.613,30.32C331.012,163.651,342.17,170.367,353.17,174.567z M330.368,67.355
		c8.079-1.29,15.523-3.396,22.315-6.307c-3.88-1.29-7.686-1.531-11.4-0.728C337.562,61.129,333.924,63.474,330.368,67.355z
		 M350.744,120.717c3.88,0.326,6.14,2.595,6.792,6.792c-0.326,9.057-1.38,14.395-3.154,16.009c-1.782,1.624-4.048,2.35-6.792,2.184
		c-2.75-0.158-5.822-0.644-9.218-1.456c-3.396-0.802-4.776-4.442-4.124-10.916c0-5.17,0.56-8.89,1.697-11.158
		C337.076,119.915,342.01,119.429,350.744,120.717z M355.594,128.965c0-3.88-1.622-6.14-4.852-6.792
		c-3.236-0.644-6.792-0.802-10.673-0.483c-3.562-0.318-5.018,5.178-4.365,16.493c0,3.562,3.88,5.337,11.644,5.337
		C353.487,144.489,356.24,139.638,355.594,128.965z M382.275,176.023l-16.979-6.792l-13.099-6.307l6.793,12.126
		C364.16,176.993,371.922,177.319,382.275,176.023z M358.506,59.107c9.702-3.229,18.107-6.792,25.226-10.672
		C373.06,48.117,364.646,51.671,358.506,59.107z M382.762,135.273c0.318,0.97,0.076,3.075-0.728,6.306
		c-0.812,3.236-1.866,5.662-3.154,7.278c0.317-4.526,0.804-7.765,1.456-9.704C380.979,137.211,381.792,135.925,382.762,135.273z
		 M386.642,133.817c0.645,6.472-0.81,12.613-4.366,18.434C382.594,145.459,384.052,139.319,386.642,133.817z M391.01,135.273
		c0.318,4.208,0.16,7.846-0.486,10.914c-0.651,3.077-1.622,5.905-2.91,8.489l0.971-10.188L391.01,135.273z M419.146,244.911
		c14.872-6.148,27.486-9.059,37.84-8.732l0.486,0.971C447.118,237.794,434.344,240.376,419.146,244.911z M469.6,239.575
		c-5.822,1.939-12.696,3.395-20.618,4.367c-7.928,0.969-16.735,2.426-26.439,4.367c1.939-1.297,5.17-2.594,9.704-3.881
		c4.525-1.295,10.506-2.352,17.949-3.154C457.632,240.462,464.096,239.894,469.6,239.575z"/>
</g>
<g enable-background="new    ">
	<path fill="#F44D8D" d="M407.43,496.792c-5.25,2.072-10.542,3.113-15.876,3.113c-6.776,0-12.828-1.252-18.164-3.748
		c-5.334-2.496-9.866-5.863-13.59-10.098c-3.726-4.232-6.562-9.102-8.51-14.609c-1.948-5.502-2.92-11.217-2.92-17.145
		c0-6.607,0.909-12.893,2.729-18.863c1.82-5.969,4.53-11.197,8.128-15.688c3.599-4.486,8.086-8.064,13.464-10.732
		c5.376-2.666,11.664-4,18.862-4c4.91,0,9.546,0.57,13.908,1.715c4.359,1.143,8.256,2.943,11.686,5.396
		c3.431,2.457,6.309,5.57,8.639,9.336c2.327,3.77,3.916,8.32,4.762,13.654h-12.066c-0.594-3.471-1.695-6.457-3.302-8.955
		c-1.61-2.498-3.6-4.549-5.97-6.162c-2.372-1.607-5.061-2.812-8.066-3.619c-3.006-0.803-6.204-1.209-9.59-1.209
		c-5.504,0-10.224,1.102-14.162,3.303c-3.938,2.203-7.156,5.104-9.653,8.701c-2.498,3.6-4.341,7.707-5.524,12.32
		c-1.188,4.617-1.778,9.336-1.778,14.162c0,4.742,0.676,9.293,2.032,13.654c1.354,4.361,3.344,8.213,5.97,11.559
		c2.624,3.346,5.862,6.014,9.716,8.002c3.853,1.99,8.32,2.982,13.4,2.982c4.742,0,8.935-0.762,12.576-2.287
		c3.64-1.523,6.71-3.619,9.208-6.287c2.498-2.666,4.382-5.799,5.652-9.398c1.27-3.598,1.819-7.473,1.651-11.623h-28.96v-10.162
		h39.756v47.758h-7.62l-3.176-11.303C417.084,491.312,412.68,494.718,407.43,496.792z"/>
</g>
</svg>
