<svg version="1.1" id="Layer_1" xmlns="http://www.w3.org/2000/svg" xmlns:xlink="http://www.w3.org/1999/xlink" viewBox="0 -275 768 980" enable-background="new 0 -275 768 980" xml:space="preserve">
<circle fill="#DDF2F2" cx="386.994" cy="450.946" r="97.563"/>
<polyline fill="none" points="265.221,314.855 265.221,-124.994 692.135,-124.994 692.135,314.855 "/>
<g enable-background="new    ">
	<path fill="#DDF2F2" d="M377.771,91.666l-26.198-16.978c-5.176,5.178-9.384,7.604-12.614,7.277
		c-6.792-0.317-12.294-5.012-16.494-14.067l-0.97,5.336c0.318,8.088,3.472,15.607,9.46,22.558
		c5.98,6.958,11.477,13.34,16.494,19.162c5.01,5.822,8.732,12.538,11.158,20.132c2.426,7.604,6.306,18.192,11.644,31.776
		c5.336,13.584,1.372,9.218-11.886-13.099c-6.147,7.763-10.43,18.679-12.856,32.746c-2.426,14.068-3.479,13.509-3.153-1.697
		c0.317-15.2,4.366-27.812,12.128-37.842c-0.652-1.614-1.296-3.395-1.94-5.337c-3.237,1.942-6.958,5.505-11.157,10.675
		l-16.98,29.107c0.97-3.229,2.184-6.868,3.638-10.916c1.456-4.04,3.23-8.08,5.336-12.128c2.101-4.04,4.61-7.836,7.521-11.399
		c2.912-3.555,6.466-6.624,10.672-9.217c-1.296-4.525-3.722-9.216-7.276-14.067c-2.266,2.592-4.691,4.609-7.277,6.063
		c-2.593,1.456-5.904,2.183-9.946,2.183c-4.048,0-8.004-1.614-11.886-4.851c0,5.176-2.106,9.057-6.307,11.643
		c-4.208,2.592-8.731,2.107-13.584-1.456c1.614,2.592,3.958,16.735,7.034,42.447c3.07,25.712,8.08,45.202,15.04,58.458
		c6.952,13.258,10.264,36.385,9.946,69.375h-7.762c-0.326-32.344-4.049-55.631-11.158-69.859
		c-7.118-14.227-11.811-33.715-14.07-58.457c-2.266-24.742-4.85-40.75-7.762-48.028s-6.307-15.441-10.188-24.5
		c-3.88-9.05-5.822-17.782-5.822-26.196c0-8.405,2.584-15.357,7.763-20.861c5.17-5.496,12.613-5.654,22.315-0.484
		c0-6.466,1.29-12.932,3.88-19.406c2.584-6.464,6.141-11.399,10.673-14.796c4.525-3.394,9.945-5.094,16.252-5.094
		c6.306,0,11.075,1.624,14.312,4.853c-0.97-49.156,0-80.851,2.912-95.084c2.91-14.229,9.62-21.021,20.132-20.377
		c10.506,0.652,16.654,7.847,18.435,21.589c1.773,13.75,3.638,36.628,5.58,68.646c1.939-49.8,9.46-75.596,22.558-77.378
		c13.098-1.774,20.936,5.664,23.528,22.316c2.584,16.661,3.153,37.279,1.697,61.854c-1.456,24.582-2.426,46.814-2.912,66.706
		c-0.485,19.888,0.729,37.922,3.639,54.092c2.912,16.176,4.04,32.586,3.396,49.24c-0.651,16.66-6.472,42.934-17.464,78.832
		l-0.486,52.395h-7.762l0.486-53.852c15.523-48.185,20.452-86.995,14.796-116.429c-5.662-29.426-7.118-63.066-4.366-100.906
		c2.744-37.84,2.91-66.138,0.486-84.897c-2.426-18.753-7.521-24.658-15.282-17.709c-7.762,6.959-14.236,49.24-19.406,126.862
		c8.082,4.208,9.294,5.502,3.639,3.88c-5.662-1.615-11.643-2.426-17.95-2.426c-6.309,0-4.61-0.802,5.094-2.426
		c0.97-9.376,0.886-24.416-0.244-45.118c-1.136-20.694-3.319-46.246-6.548-76.65c-1.296-12.288-4.607-18.752-9.946-19.403
		c-5.336-0.645-9.142,1.863-11.399,7.52c-2.267,5.662-3.804,15.448-4.608,29.351c-0.812,13.909-1.212,39.462-1.212,76.649
		c-0.651,12.294-2.023,18.437-4.124,18.437c-2.107,0-2.994-5.656-2.668-16.98c-3.236-2.91-6.958-4.607-11.158-5.094
		c-4.208-0.484-8.489,0.242-12.855,2.184c-4.366,1.94-8.172,7.444-11.4,16.494c-3.238,9.059-3.562,23.612-0.97,43.662l8.248-3.396
		c-3.562-7.437-4.45-14.471-2.668-21.104c1.773-6.624,5.821-10.506,12.128-11.642c6.306-1.128,12.932,1.052,19.89,6.548
		c6.952,5.504,18.678,13.75,35.172,24.742c7.437,6.792,15.843,19.245,25.227,37.355c16.494-4.526,17.138-2.912,1.939,4.851
		c3.555,10.029,5.58,21.998,6.064,35.899c0.483,13.91-1.698,10.84-6.55-9.216c-4.851-20.05-14.721-40.752-29.592-62.098
		c-1.622,3.562-5.095,7.277-10.431,11.157s-6.063,4.049-2.184,0.484C370.492,100.725,374.208,96.519,377.771,91.666z
		 M288.992,109.13c-0.97-4.2-0.166-6.868,2.426-8.004c2.584-1.128,6.624-2.184,12.128-3.153c-2.911-12.933-4.048-23.12-3.396-30.562
		c-7.444-3.88-12.78-4.768-16.01-2.668c-3.236,2.108-5.177,6.958-5.822,14.554c-0.652,7.603,1.288,16.736,5.822,27.408l5.821,14.07
		c3.883,9.382,9.051,13.098,15.524,11.155c4.852-3.228,6.466-7.436,4.852-12.613c-4.208,3.563-8.573,5.178-13.098,4.852
		C294.002,123.526,291.25,118.517,288.992,109.13z M309.853,117.864c-2.912-7.11-4.853-13.098-5.822-17.95
		c-9.704,0.97-14.394,2.994-14.07,6.064c0.318,3.078,1.532,7.359,3.639,12.855C295.7,124.338,301.12,124.012,309.853,117.864z
		 M316.158,113.982c7.11,0.97,12.932,0,17.464-2.91l-9.704-12.128l-5.821-9.702l-8.248,2.91
		C310.822,99.914,312.922,107.192,316.158,113.982z M340.416,117.864l-6.306-5.82c-5.178,3.236-11,4.366-17.464,3.395
		c1.288,3.562,3.069,6.147,5.336,7.764c2.258,1.622,5.094,2.024,8.49,1.21C333.866,123.61,337.179,121.426,340.416,117.864z
		 M350.118,73.716c-8.088-6.464-13.826-10.346-17.222-11.642c-3.396-1.29-6.55,0.166-9.46,4.366
		c0.644,1.941,1.855,4.208,3.638,6.792c1.774,2.592,4.684,4.775,8.732,6.548C339.847,81.562,344.614,79.538,350.118,73.716z
		 M351.572,249.818c-8.088,2.91-14.554,4.283-19.406,4.123c-4.85-0.164-5.578-0.566-2.182-1.211
		C333.38,252.078,340.574,251.109,351.572,249.818z M356.424,260.492c-2.592,0.645-5.176,0.887-7.762,0.727
		c-2.592-0.166-5.178-0.895-7.762-2.184C344.13,257.74,349.307,258.225,356.424,260.492z M367.099,251.76
		c-11-2.594-10.673-3.396,0.97-2.426C379.71,250.305,379.385,251.109,367.099,251.76z M375.344-24.764
		c-2.592,0.652-5.176,0.894-7.762,0.728c-2.592-0.159-5.178-0.886-7.762-2.182C363.051-26.538,368.229-26.052,375.344-24.764z
		 M378.74,15.986c-5.822,0-10.756-0.4-14.796-1.212c-4.048-0.802-4.124-1.212-0.242-1.212
		C367.582,13.561,372.592,14.372,378.74,15.986z M377.284,18.898c-2.592,0.649-5.176,0.894-7.762,0.726
		c-2.592-0.158-5.179-0.886-7.763-2.184C364.99,17.122,370.168,17.61,377.284,18.898z M375.344,92.637
		c-1.296,1.623-2.668,2.993-4.123,4.123c-1.456,1.137-3.154,2.509-5.095,4.124C368.068,96.36,371.139,93.608,375.344,92.637z
		 M378.74,97.004c-0.652,2.592-1.456,4.366-2.424,5.336c-0.97,0.971-2.912,2.267-5.822,3.881
		C372.435,103.311,375.179,100.24,378.74,97.004z M422.889,20.838c-5.822,0-10.757-0.401-14.797-1.212
		c-4.048-0.802-4.124-1.212-0.241-1.212C411.732,18.414,416.74,19.225,422.889,20.838z M421.433,23.748
		c-2.593,0.652-5.177,0.895-7.763,0.729c-2.592-0.158-5.176-0.887-7.762-2.185C409.137,21.975,414.314,22.46,421.433,23.748z
		 M417.551-16.032c-11-2.584-10.673-3.396,0.97-2.426C430.164-17.488,429.838-16.676,417.551-16.032z M486.44,46.55l-16.01,27.166
		L451.51,46.55h14.07v-76.166h-13.584l15.04-27.166l18.435,27.166h-12.614L472.37,46.55H486.44z"/>
</g>
<g enable-background="new    ">
	<path fill="#F44D8D" d="M365.358,401.303v38.994h47.758v-38.994h12.066v90.689h-12.066v-41.533h-47.758v41.533h-12.066v-90.689
		H365.358z"/>
</g>
</svg>
