<svg version="1.1" xmlns="http://www.w3.org/2000/svg" xmlns:xlink="http://www.w3.org/1999/xlink" viewBox="0 0 768 975" enable-background="new 0 0 768 975" xml:space="preserve">
<g id="circle">
	<circle fill="#DDE5CE" cx="384.51" cy="731.426" r="125.426"/>
</g>
<g id="hh">
	<g>
		<path fill="#CB394D" d="M335.383,689.998v30.7h37.6v-30.7h9.5v71.4h-9.5v-32.7h-37.6v32.7h-9.5v-71.4H335.383z"/>
		<path fill="#EA5F72" d="M410.183,689.998v27.301h0.199c0.666-1.601,1.601-2.95,2.801-4.051c1.199-1.1,2.55-2,4.05-2.699
			c1.5-0.7,3.065-1.216,4.7-1.551c1.633-0.332,3.215-0.5,4.75-0.5c3.399,0,6.232,0.468,8.5,1.4c2.266,0.935,4.1,2.234,5.5,3.9
			c1.399,1.667,2.383,3.649,2.949,5.949c0.566,2.301,0.851,4.851,0.851,7.65v34h-8.5v-35c0-3.2-0.935-5.732-2.8-7.6
			c-1.867-1.866-4.435-2.801-7.7-2.801c-2.601,0-4.851,0.4-6.75,1.2c-1.9,0.8-3.484,1.935-4.75,3.4
			c-1.268,1.467-2.218,3.185-2.851,5.149c-0.634,1.968-0.949,4.117-0.949,6.45v29.2h-8.5v-71.4H410.183z"/>
	</g>
</g>
<g id="h">
	<g>
		<path fill="none" stroke="#DDE5CE" stroke-width="5" stroke-miterlimit="10" d="M234.508,283.992
			c-11.232,0.509-8.441,16.566-5.974,23.304c4.234,11.52,8.898,19.887,21.884,21.841c-8.633,13.209-7.629,29.645,6.166,38.771
			c13.781,9.117,32.986,6.412,48.236,13.251c27.239,12.215,52.003,40.186,84.485,33.645c-4.035,6.452-12.37,7.138-8.794,14.307
			c6.706,13.442,10.864,27.017,13.909,41.713c5.428,26.198,4.709,57.882,15.303,82.606"/>
		<path fill="none" stroke="#DDE5CE" stroke-width="5" stroke-miterlimit="10" d="M596.085,522.812
			c-15.497-32.448-23.024-68.015-33.599-102.196c-7.27-23.499-17.319-45.906-24.297-69.68
			c-7.685-26.181-13.547-55.587-27.125-79.525c-17.915-31.583-51.912-61.095-83.105-79.246
			c-18.223-10.604-37.629-16.912-57.935-22.057c-27.536-6.977-54.371-2.546-82.141,1.571c-15.223,2.257-30.42,0.163-45.772,0.48
			c-20.526,0.424-40.805,3.216-61.074,6.284c-16.783,2.54-38.644,1.418-52.964,11.519c-13.128,9.259-19.954,26.107-2.324,34.854
			c-19.688-0.005-47.389-0.643-62.645,14.241c-16.508,16.104-3.149,30.733,14.121,36.011c9.771,2.986,20.334,4.13,30.492,2.857
			c12.215-1.531,22.156,0.082,34.573,1.373c29.686,3.087,59.653,3.342,89.471,3.342"/>
		<path fill="none" stroke="#DDE5CE" stroke-width="5" stroke-miterlimit="10" d="M314.373,195.905
			c-3.441,8.171-8.36,13.877-8.258,23.4"/>
		<path fill="none" stroke="#DDE5CE" stroke-width="5" stroke-miterlimit="10" d="M231.761,179.384
			c3.279,13.42-3.044,31.948,1.257,41.624"/>
		<path fill="none" stroke="#DDE5CE" stroke-width="5" stroke-miterlimit="10" d="M171.167,222.056
			c-0.673-8.449,14.526-19.969,4.566-28.82"/>
		<path fill="none" stroke="#DDE5CE" stroke-width="5" stroke-miterlimit="10" d="M117.494,270.247
			c-0.688-8.45,11.749-19.969,1.788-28.821"/>
		<path fill="none" stroke="#DDE5CE" stroke-width="5" stroke-miterlimit="10" d="M250.418,329.137
			c35.286,10.25,57.448,8.642,92.902,1.636"/>
		<path fill="none" stroke="#DDE5CE" stroke-width="5" stroke-miterlimit="10" d="M272.113,373.437
			c17.061-6.862,35.272-4.238,52.429-9.765c6.761-2.178,16.316-5.802,19.103-12.996c2.67-6.894,0.999-16.452-7.181-18.482"/>
		<path fill="none" stroke="#DDE5CE" stroke-width="5" stroke-miterlimit="10" d="M316.971,334.889
			c-4.718,21.663,9.047,19.35,21.598,19.934"/>
		<path fill="none" stroke="#DDE5CE" stroke-width="5" stroke-miterlimit="10" d="M447.342,240.704
			c12.889,12.902,30.081,36.549,19.332,54.813"/>
		<path fill="none" stroke="#DDE5CE" stroke-width="5" stroke-miterlimit="10" d="M364.588,293.372
			c3.228,12.89,24.717,46.202,42.991,53.725"/>
		<path fill="none" stroke="#DDE5CE" stroke-width="5" stroke-miterlimit="10" d="M377.484,323.454
			c6.441,17.201,13.972,53.73,48.357,64.482"/>
		<path fill="none" stroke="#DDE5CE" stroke-width="5" stroke-miterlimit="10" d="M440.907,236.539
			c-21.525-2.108-41.093-13.158-62.705-14.636c-25.63-1.752-54.477-1.949-79.868,2.192"/>
		<path fill="none" stroke="#DDE5CE" stroke-width="5" stroke-miterlimit="10" d="M298.334,224.095
			c-11.012,1.79-20.956,6.868-31.237,10.925c-12.096,4.773-29.177,2.412-39.592,10.322c-27.647,20.998,6.429,42.106,26.307,45.313"
			/>
		<path fill="none" stroke="#DDE5CE" stroke-width="5" stroke-miterlimit="10" d="M362.56,288.146"/>
		<path fill="none" stroke="#DDE5CE" stroke-width="5" stroke-miterlimit="10" d="M253.813,290.655
			c16.137,2.879,96.199-12.218,97.02-16.32"/>
		<path fill="none" stroke="#DDE5CE" stroke-width="5" stroke-miterlimit="10" d="M217.86,257.375
			c7.775,1.599,23.153,1.365,31.046,1.153c9.224-0.247,18.532-11.205,9.017-18.564"/>
		<path fill="none" stroke="#DDE5CE" stroke-width="5" stroke-miterlimit="10" d="M125.749,224.816
			c13.711,2.736,35.989,5.902,49.568,1.371c16.742,0,43.681,9.126,59.19,1.377"/>
		<path fill="none" stroke="#DDE5CE" stroke-width="5" stroke-miterlimit="10" d="M395.085,224.816
			c11.023,0,44.565,2.748,50.08,1.371"/>
		<path fill="none" stroke="#DDE5CE" stroke-width="5" stroke-miterlimit="10" d="M343.28,284.017c0,4.589,2.145,9.253,5.029,12.738
			c-20.216-0.009-32.993,30.628-9.379,34.5c16.413,2.691,30.462-18.324,16.288-29.932c-32.904-26.947-85.093,7.546-120.711-17.331"
			/>
	</g>
</g>
</svg>
