<svg version="1.1" xmlns="http://www.w3.org/2000/svg" viewBox="0 0 768 975" enable-background="new 0 0 768 975" xml:space="preserve"><circle fill="#DDE5CE" cx="384.5" cy="731.4" r="125.4"/><path fill="#CB394D" d="M335.4 690v30.7h37.6v-30.7h9.5v71.4h-9.5v-32.7h-37.6v32.7h-9.5v-71.4H335.4z"/><path fill="#EA5F72" d="M410.2 690v27.3h0.2c0.7-1.6 1.6-2.9 2.8-4.1 1.2-1.1 2.6-2 4.1-2.7 1.5-0.7 3.1-1.2 4.7-1.6 1.6-0.3 3.2-0.5 4.8-0.5 3.4 0 6.2 0.5 8.5 1.4 2.3 0.9 4.1 2.2 5.5 3.9 1.4 1.7 2.4 3.6 2.9 5.9 0.6 2.3 0.9 4.9 0.9 7.7v34h-8.5v-35c0-3.2-0.9-5.7-2.8-7.6 -1.9-1.9-4.4-2.8-7.7-2.8 -2.6 0-4.9 0.4-6.7 1.2 -1.9 0.8-3.5 1.9-4.7 3.4 -1.3 1.5-2.2 3.2-2.9 5.1 -0.6 2-0.9 4.1-0.9 6.5v29.2h-8.5v-71.4H410.2z"/><path fill="none" stroke="#DDE5CE" stroke-width="5" stroke-miterlimit="10" d="M234.5 284c-11.2 0.5-8.4 16.6-6 23.3 4.2 11.5 8.9 19.9 21.9 21.8 -8.6 13.2-7.6 29.6 6.2 38.8 13.8 9.1 33 6.4 48.2 13.3 27.2 12.2 52 40.2 84.5 33.6 -4 6.5-12.4 7.1-8.8 14.3 6.7 13.4 10.9 27 13.9 41.7 5.4 26.2 4.7 57.9 15.3 82.6"/><path fill="none" stroke="#DDE5CE" stroke-width="5" stroke-miterlimit="10" d="M596.1 522.8c-15.5-32.4-23-68-33.6-102.2 -7.3-23.5-17.3-45.9-24.3-69.7 -7.7-26.2-13.5-55.6-27.1-79.5 -17.9-31.6-51.9-61.1-83.1-79.2 -18.2-10.6-37.6-16.9-57.9-22.1 -27.5-7-54.4-2.5-82.1 1.6 -15.2 2.3-30.4 0.2-45.8 0.5 -20.5 0.4-40.8 3.2-61.1 6.3 -16.8 2.5-38.6 1.4-53 11.5 -13.1 9.3-20 26.1-2.3 34.9 -19.7 0-47.4-0.6-62.6 14.2 -16.5 16.1-3.1 30.7 14.1 36 9.8 3 20.3 4.1 30.5 2.9 12.2-1.5 22.2 0.1 34.6 1.4 29.7 3.1 59.7 3.3 89.5 3.3"/><path fill="none" stroke="#DDE5CE" stroke-width="5" stroke-miterlimit="10" d="M314.4 195.9c-3.4 8.2-8.4 13.9-8.3 23.4"/><path fill="none" stroke="#DDE5CE" stroke-width="5" stroke-miterlimit="10" d="M231.8 179.4c3.3 13.4-3 31.9 1.3 41.6"/><path fill="none" stroke="#DDE5CE" stroke-width="5" stroke-miterlimit="10" d="M171.2 222.1c-0.7-8.4 14.5-20 4.6-28.8"/><path fill="none" stroke="#DDE5CE" stroke-width="5" stroke-miterlimit="10" d="M117.5 270.2c-0.7-8.4 11.7-20 1.8-28.8"/><path fill="none" stroke="#DDE5CE" stroke-width="5" stroke-miterlimit="10" d="M250.4 329.1c35.3 10.3 57.4 8.6 92.9 1.6"/><path fill="none" stroke="#DDE5CE" stroke-width="5" stroke-miterlimit="10" d="M272.1 373.4c17.1-6.9 35.3-4.2 52.4-9.8 6.8-2.2 16.3-5.8 19.1-13 2.7-6.9 1-16.5-7.2-18.5"/><path fill="none" stroke="#DDE5CE" stroke-width="5" stroke-miterlimit="10" d="M317 334.9c-4.7 21.7 9 19.4 21.6 19.9"/><path fill="none" stroke="#DDE5CE" stroke-width="5" stroke-miterlimit="10" d="M447.3 240.7c12.9 12.9 30.1 36.5 19.3 54.8"/><path fill="none" stroke="#DDE5CE" stroke-width="5" stroke-miterlimit="10" d="M364.6 293.4c3.2 12.9 24.7 46.2 43 53.7"/><path fill="none" stroke="#DDE5CE" stroke-width="5" stroke-miterlimit="10" d="M377.5 323.5c6.4 17.2 14 53.7 48.4 64.5"/><path fill="none" stroke="#DDE5CE" stroke-width="5" stroke-miterlimit="10" d="M440.9 236.5c-21.5-2.1-41.1-13.2-62.7-14.6 -25.6-1.8-54.5-1.9-79.9 2.2"/><path fill="none" stroke="#DDE5CE" stroke-width="5" stroke-miterlimit="10" d="M298.3 224.1c-11 1.8-21 6.9-31.2 10.9 -12.1 4.8-29.2 2.4-39.6 10.3 -27.6 21 6.4 42.1 26.3 45.3"/><path fill="none" stroke="#DDE5CE" stroke-width="5" stroke-miterlimit="10" d="M362.6 288.1"/><path fill="none" stroke="#DDE5CE" stroke-width="5" stroke-miterlimit="10" d="M253.8 290.7c16.1 2.9 96.2-12.2 97-16.3"/><path fill="none" stroke="#DDE5CE" stroke-width="5" stroke-miterlimit="10" d="M217.9 257.4c7.8 1.6 23.2 1.4 31 1.2 9.2-0.2 18.5-11.2 9-18.6"/><path fill="none" stroke="#DDE5CE" stroke-width="5" stroke-miterlimit="10" d="M125.7 224.8c13.7 2.7 36 5.9 49.6 1.4 16.7 0 43.7 9.1 59.2 1.4"/><path fill="none" stroke="#DDE5CE" stroke-width="5" stroke-miterlimit="10" d="M395.1 224.8c11 0 44.6 2.7 50.1 1.4"/><path fill="none" stroke="#DDE5CE" stroke-width="5" stroke-miterlimit="10" d="M343.3 284c0 4.6 2.1 9.3 5 12.7 -20.2 0-33 30.6-9.4 34.5 16.4 2.7 30.5-18.3 16.3-29.9 -32.9-26.9-85.1 7.5-120.7-17.3"/></svg>