<svg version="1.1" xmlns="http://www.w3.org/2000/svg" xmlns:xlink="http://www.w3.org/1999/xlink" viewBox="0 0 768 975" enable-background="new 0 0 768 975" xml:space="preserve">
<g id="circle">
	<circle fill="#DDE5CE" cx="384.51" cy="731.426" r="125.426"/>
</g>
<g id="ii">
	<g>
		<path fill="#CB394D" d="M375.634,689.998v71.4h-9.5v-71.4H375.634z"/>
		<path fill="#EA5F72" d="M395.733,700.398v-10.4h8.5v10.4H395.733z M404.233,709.698v51.7h-8.5v-51.7H404.233z"/>
	</g>
</g>
<g id="i">
	<g>
		<path fill="none" stroke="#DDE5CE" stroke-width="5" stroke-miterlimit="10" d="M277.349,272.072
			c7.648-6.922,21.374-15.688,27.482-17.527"/>
		<g>
			<path fill="none" stroke="#DDE5CE" stroke-width="5" stroke-miterlimit="10" d="M296.383,196.41
				c4.686-13.625,11.357-30.405,24.416-38.173c11.083-6.593,33.47-0.827,34.952,14.014c-9.884-39.307,47.553-45.395,56.783-10.956
				c-0.948-10.418,18.679-16.833,26.911-14.937c14.498,3.338,28.573,14.445,36.014,27.181c10.35,17.715,14.129,42.848,18.927,62.654
				c2.768,11.424,5.122,22.961,6.691,34.615c1.207,8.961-1.54,25.497,4.774,32.369c4.307,4.687,10.896,8.544,13.701,14.433
				c3.145,6.605-1.52,22.311-2.248,29.601c-2.211,22.153-4.688,44.463-11.713,65.7c-11.147,33.696-38.732,72.73-9.5,106.54"/>
			<path fill="none" stroke="#DDE5CE" stroke-width="5" stroke-miterlimit="10" d="M353.344,224.379
				c1.396,16.148,10.385,26.813,24.755,33.427c11.46,5.274,30.257,8.26,36.013,20.742c6.524,14.147,9.673,31.381,10.495,46.863
				c0.897,16.905,16.888,17.867,19.923,32.717"/>
			<path fill="none" stroke="#DDE5CE" stroke-width="5" stroke-miterlimit="10" d="M504.696,301.472
				c-27.624-24.711-42.729-92.313-88.115-89.497c-20.467,1.271-7.945,19.501-24.32,23.905c-10.162,2.733-34.287,0.309-38.917-11.501
				"/>
			<path fill="none" stroke="#DDE5CE" stroke-width="5" stroke-miterlimit="10" d="M406.913,271.388
				c4.599,1.395,14.345-3.816,22.003-8.404"/>
			<path fill="none" stroke="#DDE5CE" stroke-width="5" stroke-miterlimit="10" d="M425.288,322.157
				c-35.311,34.06-18.668,94.451-47.334,131.328"/>
			<path fill="none" stroke="#DDE5CE" stroke-width="5" stroke-miterlimit="10" d="M384.384,260.793
				c-18.557,22.484-35.472,61.147-62.256,70.267"/>
			<path fill="none" stroke="#DDE5CE" stroke-width="5" stroke-miterlimit="10" d="M404.521,215.944
				C389.939,212.37,364,209.871,351.75,226"/>
			<path fill="none" stroke="#DDE5CE" stroke-width="5" stroke-miterlimit="10" d="M462.815,192.237
				c-7.367-0.366-11.07-7.314-12.179-13.736c5.194,18.631,10.308,31.552-1.118,49.009"/>
			<path fill="none" stroke="#DDE5CE" stroke-width="5" stroke-miterlimit="10" d="M412.534,161.294
				c-0.234,1.122,5.897,39.837,6.293,48.598"/>
			<path fill="none" stroke="#DDE5CE" stroke-width="5" stroke-miterlimit="10" d="M346.927,257.372
				c2.433,6.112,18.701,9.133,26.67,1.157"/>
			<path fill="none" stroke="#DDE5CE" stroke-width="5" stroke-miterlimit="10" d="M346.927,257.372
				c-15.011-8.436-20.276-28.308-28.759-42.118c-4.378-7.127-9.936-13.955-17.768-17.418c-4.501-1.99-6.145-12.387-5.715-7.337
				c0.422-18.416-5.318-37.517-9.557-55.286c-2.956-12.391-18.636-48.895-37.673-29.805c-11.895,11.928-7.169,41.256-5.561,55.918
				c2.848,25.959,12.955,50.073,16.563,75.852c3.57,25.504,7.688,50.713,8.03,76.361c0.464,34.727,1.999,69.677,9.06,103.776
				c6.073,29.325,14.265,64.409,39.606,82.802c11.577,8.402,21.614,15.805,23.089,31.095c1.471,15.253-2.746,30.564-0.261,45.783"/>
			<path fill="none" stroke="#DDE5CE" stroke-width="5" stroke-miterlimit="10" d="M355.751,170.453
				c3.953,5.59,17.952,38.984,21.791,40.778"/>
			<path fill="none" stroke="#DDE5CE" stroke-width="5" stroke-miterlimit="10" d="M316.52,252.539
				c-10.969-12.564-16.448-38.526-20.137-56.129"/>
			<path fill="none" stroke="#DDE5CE" stroke-width="5" stroke-miterlimit="10" d="M323.142,249.002"/>
			<path fill="none" stroke="#DDE5CE" stroke-width="5" stroke-miterlimit="10" d="M352.915,230.784
				c-14.999,6.903-11.255,27.074,3.582,31.574"/>
		</g>
	</g>
</g>
</svg>
