<svg version="1.1" xmlns="http://www.w3.org/2000/svg" viewBox="0 0 768 975" enable-background="new 0 0 768 975" xml:space="preserve"><circle fill="#DDE5CE" cx="384.5" cy="731.4" r="125.4"/><path fill="#CB394D" d="M375.6 690v71.4h-9.5v-71.4H375.6z"/><path fill="#EA5F72" d="M395.7 700.4v-10.4h8.5v10.4H395.7zM404.2 709.7v51.7h-8.5v-51.7H404.2z"/><path fill="none" stroke="#DDE5CE" stroke-width="5" stroke-miterlimit="10" d="M277.3 272.1c7.6-6.9 21.4-15.7 27.5-17.5"/><path fill="none" stroke="#DDE5CE" stroke-width="5" stroke-miterlimit="10" d="M296.4 196.4c4.7-13.6 11.4-30.4 24.4-38.2 11.1-6.6 33.5-0.8 35 14 -9.9-39.3 47.6-45.4 56.8-11 -0.9-10.4 18.7-16.8 26.9-14.9 14.5 3.3 28.6 14.4 36 27.2 10.4 17.7 14.1 42.8 18.9 62.7 2.8 11.4 5.1 23 6.7 34.6 1.2 9-1.5 25.5 4.8 32.4 4.3 4.7 10.9 8.5 13.7 14.4 3.1 6.6-1.5 22.3-2.2 29.6 -2.2 22.2-4.7 44.5-11.7 65.7 -11.1 33.7-38.7 72.7-9.5 106.5"/><path fill="none" stroke="#DDE5CE" stroke-width="5" stroke-miterlimit="10" d="M353.3 224.4c1.4 16.1 10.4 26.8 24.8 33.4 11.5 5.3 30.3 8.3 36 20.7 6.5 14.1 9.7 31.4 10.5 46.9 0.9 16.9 16.9 17.9 19.9 32.7"/><path fill="none" stroke="#DDE5CE" stroke-width="5" stroke-miterlimit="10" d="M504.7 301.5c-27.6-24.7-42.7-92.3-88.1-89.5 -20.5 1.3-7.9 19.5-24.3 23.9 -10.2 2.7-34.3 0.3-38.9-11.5"/><path fill="none" stroke="#DDE5CE" stroke-width="5" stroke-miterlimit="10" d="M406.9 271.4c4.6 1.4 14.3-3.8 22-8.4"/><path fill="none" stroke="#DDE5CE" stroke-width="5" stroke-miterlimit="10" d="M425.3 322.2c-35.3 34.1-18.7 94.5-47.3 131.3"/><path fill="none" stroke="#DDE5CE" stroke-width="5" stroke-miterlimit="10" d="M384.4 260.8c-18.6 22.5-35.5 61.1-62.3 70.3"/><path fill="none" stroke="#DDE5CE" stroke-width="5" stroke-miterlimit="10" d="M404.5 215.9C389.9 212.4 364 209.9 351.8 226"/><path fill="none" stroke="#DDE5CE" stroke-width="5" stroke-miterlimit="10" d="M462.8 192.2c-7.4-0.4-11.1-7.3-12.2-13.7 5.2 18.6 10.3 31.6-1.1 49"/><path fill="none" stroke="#DDE5CE" stroke-width="5" stroke-miterlimit="10" d="M412.5 161.3c-0.2 1.1 5.9 39.8 6.3 48.6"/><path fill="none" stroke="#DDE5CE" stroke-width="5" stroke-miterlimit="10" d="M346.9 257.4c2.4 6.1 18.7 9.1 26.7 1.2"/><path fill="none" stroke="#DDE5CE" stroke-width="5" stroke-miterlimit="10" d="M346.9 257.4c-15-8.4-20.3-28.3-28.8-42.1 -4.4-7.1-9.9-14-17.8-17.4 -4.5-2-6.1-12.4-5.7-7.3 0.4-18.4-5.3-37.5-9.6-55.3 -3-12.4-18.6-48.9-37.7-29.8 -11.9 11.9-7.2 41.3-5.6 55.9 2.8 26 13 50.1 16.6 75.9 3.6 25.5 7.7 50.7 8 76.4 0.5 34.7 2 69.7 9.1 103.8 6.1 29.3 14.3 64.4 39.6 82.8 11.6 8.4 21.6 15.8 23.1 31.1 1.5 15.3-2.7 30.6-0.3 45.8"/><path fill="none" stroke="#DDE5CE" stroke-width="5" stroke-miterlimit="10" d="M355.8 170.5c4 5.6 18 39 21.8 40.8"/><path fill="none" stroke="#DDE5CE" stroke-width="5" stroke-miterlimit="10" d="M316.5 252.5c-11-12.6-16.4-38.5-20.1-56.1"/><path fill="none" stroke="#DDE5CE" stroke-width="5" stroke-miterlimit="10" d="M323.1 249"/><path fill="none" stroke="#DDE5CE" stroke-width="5" stroke-miterlimit="10" d="M352.9 230.8c-15 6.9-11.3 27.1 3.6 31.6"/></svg>