<svg version="1.1" id="Layer_1" xmlns="http://www.w3.org/2000/svg" xmlns:xlink="http://www.w3.org/1999/xlink" viewBox="0 -275 768 980" enable-background="new 0 -275 768 980" xml:space="preserve">
<circle fill="#DDF2F2" cx="389.994" cy="450.946" r="97.563"/>
<polyline fill="none" points="268.221,314.855 268.221,-124.994 695.135,-124.994 695.135,314.855 "/>
<g enable-background="new    ">
	<path fill="#DDF2F2" d="M492.834,140.664c0.645,10.356-13.91,41.078-43.662,92.176v74.707h-8.248v-74.223
		c0-2.584,4.685-12.203,14.068-28.866c9.376-16.651,18.752-35.49,28.138-56.518c4.2-9.05,2.427-21.83-5.336-38.324
		c-7.762-16.494-17.949-24.258-30.562-23.288c-4.853-0.318-6.632,3.078-5.336,10.188l0.97,15.526c3.554-0.97,7.11-0.97,10.672,0
		c-2.912,1.622-6.474,2.426-10.672,2.426v2.427c14.229,5.502,14.229,6.472,0,2.909c-0.652,3.236-2.752,5.503-6.306,6.792
		c9.05,3.236,10.672,4.534,4.85,3.881c-5.822-0.645-12.128-0.158-18.92,1.455c-1.94,0.652-3.722,3.564-5.336,8.732
		c-1.622,5.178-2.994,10.272-4.124,15.284c-1.136,5.018-2.024,8.656-2.668,10.914c-0.652,2.268-1.136,0.97-1.456-3.88
		c0.644-12.288,2.426-21.179,5.336-26.683c-3.562,5.504-8.088,8.414-13.584,8.732c-5.504,0.326-11.97-6.306-19.406-19.89
		c-0.651,3.562-2.592,6.791-5.822,9.703c-3.235,2.91-6.716,3.881-10.43,2.91c-3.722-0.97-9.142-5.653-16.252-14.067
		c-8.414-10.675-13.91-23.446-16.494-38.326c-9.704,3.237-13.34,3.964-10.916,2.184c2.426-1.773,5.898-3.312,10.431-4.607
		c-2.267-12.935-2.593-25.872-0.971-38.811c-3.562-15.2-8.248-31.208-14.067-48.028c-5.822-16.812-12.053-24.331-18.679-22.558
		c-6.632,1.782-9.058,8.816-7.275,21.104c1.773,12.294,6.382,33.958,13.826,65.006c6.792,26.85,9.536,45.443,8.248,55.79
		c-1.297,10.355-2.834,23.044-4.608,38.084c-1.782,15.04,2.1,32.184,11.642,51.424c9.536,19.245,15.358,32.503,17.465,39.78
		c2.1,7.277,3.472,28.211,4.124,62.824h-7.763c-0.326-36.551-2.266-58.945-5.821-67.191c-3.562-8.246-7.929-17.783-13.099-28.623
		c-5.176-10.832-8.731-19.162-10.672-24.984s-3.154-13.016-3.638-21.588c-0.484-8.565,0.317-19.322,2.426-32.262
		c2.1-12.932,2.912-21.83,2.426-26.682c-0.485-4.853-1.698-12.69-3.638-23.53c-1.94-10.832-5.42-27.242-10.43-49.24
		c-5.019-21.99-7.763-37.028-8.248-45.116c-0.486-8.082,1.288-13.985,5.336-17.708c4.04-3.714,8.892-5.252,14.554-4.607
		c5.656,0.651,10.672,4.934,15.04,12.855c4.366,7.929,10.43,26.767,18.192,56.519c2.584-5.496,8.004-8.08,16.252-7.763
		c8.248,0.324,13.985,3.395,17.222,9.217c0.97-3.881,3.714-7.036,8.248-9.46c4.526-2.427,9.46-2.584,14.796-0.484
		c5.336,2.107,9.134,6.39,11.4,12.855c4.525-7.109,11.802-9.945,21.832-8.489c10.02,1.458,16.979,5.746,20.859,12.857
		c3.88,7.118,7.276,18.92,10.188,35.414c10.02,1.622,18.92,9.786,26.682,24.498C491.38,118.758,494.448,130.962,492.834,140.664z
		 M314.792,11.62l-7.277,2.426l-6.792,1.456C303.952,12.592,308.646,11.302,314.792,11.62z M325.95,48.977
		c-2.266,1.294-4.934,2.105-8.004,2.424c-3.078,0.326-6.23,0-9.46-0.968C314.626,49.46,320.448,48.977,325.95,48.977z
		 M324.494,47.034l-10.188,1.456l-4.366,0.486C314.466,46.391,319.318,45.746,324.494,47.034z M370.099,104.28
		c-4.208-10.346-6.391-20.937-6.548-31.776c-0.166-10.832,0.886-20.132,3.153-27.894c-2.592-5.822-7.278-8.891-14.069-9.216
		c-6.793-0.318-11.242,3.235-13.341,10.672c-2.107,7.443-2.266,18.436-0.485,32.988c1.773,14.554,5.897,26.85,12.372,36.871
		c8.731,12.614,14.872,17.792,18.434,15.524c-4.534-3.88-8.49-8.004-11.886-12.372c-3.396-4.366-4.29-7.034-2.668-8.004
		C358.288,106.872,363.307,104.606,370.099,104.28z M350.206,157.16c-1.939,6.792-5.822,10.998-11.642,12.614L350.206,157.16z
		 M366.216,241.086l-13.584,3.879l-7.762,1.457c3.554-1.939,6.708-3.316,9.46-4.125
		C357.074,241.488,361.038,241.086,366.216,241.086z M368.643,152.792c-4.534,4.534-9.219,7.763-14.07,9.704
		C358.128,158.296,362.82,155.059,368.643,152.792z M377.374,119.318c-2.266-3.229-4.534-7.762-6.792-13.582
		c-6.474,0-11.326,1.939-14.554,5.82c-0.652,0.97,0.484,3.319,3.396,7.035c2.912,3.721,6.624,7.687,11.158,11.885
		C374.464,127.566,376.723,123.853,377.374,119.318z M376.891,249.334c-3.238,0-6.307,0-9.219,0
		c-3.562-0.65-6.958-1.295-10.188-1.941c2.912,0,6.382,0.076,10.43,0.24C371.954,247.793,374.948,248.363,376.891,249.334z
		 M402.603,134.358l-5.336,2.912c0,1.622,2.985,1.136,8.974-1.456c5.982-2.586,6.224-9.376,0.729-20.376
		c-2.267-3.88-4.366-8.891-6.307-15.04c-1.941-6.139-3.154-14.311-3.638-24.498c-0.484-10.188,0.56-19.648,3.154-28.38
		c-1.94-5.494-4.124-9.292-6.551-11.4c-2.424-2.1-5.745-2.826-9.943-2.182c-4.208,0.649-7.202,4.85-8.977,12.613
		c-1.781,7.763-2.668,16.253-2.668,25.469s0.886,17.304,2.668,24.256c1.774,6.958,4.769,13.994,8.977,21.104
		c3.88-2.586,7.109-3.714,9.702-3.396c1.29-0.971,3.638,2.023,7.033,8.974C403.814,129.916,404.542,133.714,402.603,134.358z
		 M401.63,133.389c1.29-0.318,0.486-3.557-2.426-9.704c-2.91-6.141-5.018-8.893-6.306-8.248c-2.267-0.318-5.176,0.651-8.732,2.911
		c3.23,6.146,7.278,12.127,12.128,17.95L401.63,133.389z M449.174,79.052c-2.592-15.523-5.987-26.113-10.188-31.775
		c-4.206-5.654-10.028-8.322-17.464-8.004c-7.444,0.326-12.212,4.366-14.312,12.126c-2.107,7.764-2.912,16.979-2.426,27.651
		c0.486,10.675,1.532,18.118,3.154,22.316c8.731-3.228,13.098-3.88,13.098-1.94c2.258,3.236,4.526,8.246,6.792,15.04
		c1.288,2.267-2.592,4.366-11.644,6.307c1.29,2.91,4.768,3.804,10.43,2.668c5.654-1.13,8.406-5.013,8.248-11.645
		c-0.166-6.624-0.486-11.96-0.97-16.008c-0.484-4.042-0.41-7.354,0.244-9.946c0.644-2.586,1.939-4.525,3.88-5.821
		c0-1.29,0-3.796,0-7.521c0-3.712,0.159-6.624,0.485-8.731c0.318-2.101,0.887-2.343,1.698-0.727
		c0.804,1.622,2.017,6.958,3.638,16.008h5.336V79.052z M413.758,100.884l-5.336,1.94c3.555,8.732,5.98,14.394,7.276,16.98
		c2.912-0.971,5.58-1.858,8.004-2.668c2.426-0.805,3.312-2.019,2.668-3.639c-1.622-4.2-2.834-7.193-3.638-8.974
		c-0.812-1.774-1.54-3.154-2.185-4.124C419.9,99.43,417.641,99.596,413.758,100.884z"/>
</g>
<g enable-background="new    ">
	<path fill="#F44D8D" d="M397.271,401.303v90.689h-12.066v-90.689H397.271z"/>
</g>
</svg>
