<svg version="1.1" xmlns="http://www.w3.org/2000/svg" xmlns:xlink="http://www.w3.org/1999/xlink" viewBox="0 0 768 975" enable-background="new 0 0 768 975" xml:space="preserve">
<g id="circle">
	<circle fill="#DDE5CE" cx="384.51" cy="731.426" r="125.426"/>
</g>
<g id="jj">
	<g>
		<path fill="#CB394D" d="M387.983,750.698c-0.7,2.335-1.867,4.417-3.5,6.25c-1.634,1.835-3.8,3.3-6.5,4.4
			c-2.7,1.1-6.05,1.649-10.05,1.649c-6.667,0-11.8-1.75-15.4-5.25s-5.4-8.649-5.4-15.449v-4.4h9.5v3c0,2.067,0.166,3.967,0.5,5.7
			c0.333,1.734,0.916,3.234,1.75,4.5c0.833,1.267,2,2.25,3.5,2.95c1.5,0.699,3.416,1.05,5.75,1.05c4.333,0,7.315-1.166,8.95-3.5
			c1.633-2.333,2.45-5.466,2.45-9.4v-52.2h9.5v53.601C389.033,745.998,388.684,748.365,387.983,750.698z"/>
		<path fill="#EA5F72" d="M413.883,777.948c-2.234,2.101-5.25,3.15-9.05,3.15c-1.534,0-2.967-0.135-4.3-0.4v-7.3
			c0.334,0.065,0.617,0.115,0.85,0.15c0.234,0.032,0.483,0.05,0.75,0.05h1.8c1.866,0,3.133-0.518,3.801-1.55
			c0.665-1.035,1-2.885,1-5.551v-56.8h8.5v58.2C417.233,772.498,416.116,775.849,413.883,777.948z M408.733,700.398v-10.4h8.5v10.4
			H408.733z"/>
	</g>
</g>
<g id="j">
	<g>
		<path fill="none" stroke="#DDE5CE" stroke-width="5" stroke-miterlimit="10" d="M303.291,179.364
			c11.488-31.323,27.781-49.424,48.948-38.637c7.076,6.202,12.12,7.165,12.6,13.197c-3.229-14.047,5.729-36.312,26.267-32.629
			c18.447,3.312,27.581,5.348,32.273,24.393c-0.706-10.025,10.095-9.051,16.309-14.174c10.684-6.916,45.083,12.302,51.819,37.047
			c10.447,38.385,22.747,79.91,22.095,119.98c-0.094,5.346,17.832,16.27,17.014,22.561c-6.468,48.647-7.289,84.8-30.44,124.396
			c-13.689,23.408-14.727,60.27,1.636,79.977"/>
		<path fill="none" stroke="#DDE5CE" stroke-width="5" stroke-miterlimit="10" d="M361.246,209.286
			c2.381,36.183,34.437,34.743,57.055,50.485c7.635,5.312,15.466,47.55,13.907,61.13c-1.251,11.019,17.557,14.507,19.974,27.729"/>
		<path fill="none" stroke="#DDE5CE" stroke-width="5" stroke-miterlimit="10" d="M515.181,291.649
			c-7.195-6.707-12.312-18.518-16.003-23.55c-22.968-31.339-36.712-58.058-52.847-66.65c-10.372-5.524-36.55-5.599-34.971,5.719
			c3.6,25.674-45.485,14.685-50.114,2.118"/>
		<path fill="none" stroke="#DDE5CE" stroke-width="5" stroke-miterlimit="10" d="M415.313,258.708
			c0.462,0.15,21.734-7.571,22.793-8.178"/>
		<path fill="none" stroke="#DDE5CE" stroke-width="5" stroke-miterlimit="10" d="M433.147,311.256
			c-37.001,34.263-21.139,96.687-51.383,133.982"/>
		<path fill="none" stroke="#DDE5CE" stroke-width="5" stroke-miterlimit="10" d="M392.388,247.352
			c-19.539,22.729-37.735,62.109-65.445,70.926"/>
		<path fill="none" stroke="#DDE5CE" stroke-width="5" stroke-miterlimit="10" d="M414.021,201.686
			c-14.912-3.975-43.855-5.93-52.775,7.6"/>
		<path fill="none" stroke="#DDE5CE" stroke-width="5" stroke-miterlimit="10" d="M474.394,178.525
			c-7.625-0.531-11.175-7.535-12.204-14.364c6.076,23.62,11.461,30.417-2.184,50.332"/>
		<path fill="none" stroke="#DDE5CE" stroke-width="5" stroke-miterlimit="10" d="M423.379,145.688
			c-0.267,1.144,5.229,41.065,5.457,50.068"/>
		<path fill="none" stroke="#DDE5CE" stroke-width="5" stroke-miterlimit="10" d="M353.968,243.061
			c2.376,6.336,19.028,9.776,27.375,1.746"/>
		<path fill="none" stroke="#DDE5CE" stroke-width="5" stroke-miterlimit="10" d="M353.968,243.061
			c-21.75-12.812-23.419-55.661-50.677-63.697c0,0-0.644-17.038,0-7.28c0,0-0.536-8.03-6.498-36.732
			c-5.422-26.17-8.363-60.049-38.301-52.59c-16.624,4.147-12.155,66.756-5.078,91.986c7.077,25.233,9.892,39.675,10.902,54.816
			c0.866,13.1-0.123,19.078,6.188,40.572c-1.097,70.087-2.122,139.996,28.408,203.617c6.215,12.951,23.455,20.64,33.024,31.2
			c14.686,16.195,2.965,43.59,6.204,66.395"/>
		<path fill="none" stroke="#DDE5CE" stroke-width="5" stroke-miterlimit="10" d="M364.839,153.924
			c3.945,5.827,18.861,41.964,22.795,43.888"/>
		<path fill="none" stroke="#DDE5CE" stroke-width="5" stroke-miterlimit="10" d="M322.812,237.467
			c-10.997-13.139-16.081-39.936-19.521-58.103"/>
		<path fill="none" stroke="#DDE5CE" stroke-width="5" stroke-miterlimit="10" d="M282.153,256.727
			c7.998-6.957,22.303-15.676,28.601-17.446"/>
		<path fill="none" stroke="#DDE5CE" stroke-width="5" stroke-miterlimit="10" d="M329.699,233.966"/>
		<path fill="none" stroke="#DDE5CE" stroke-width="5" stroke-miterlimit="10" d="M360.661,215.858
			c-7.507,3.289-12.214,8.922-10.009,17.529c2.233,8.605,5.917,12.668,13.053,14.991"/>
		<path fill="#D69D3C" d="M228.813,125.54c-3.43,10.542-18.188,46.318-31.194,93.088"/>
		<path fill="#D69D3C" d="M188.829,250.326c-1.404-16.456-5.702-37.583-12.531-51.841l22.486,15.982l27.481-2.104
			C213.085,221.063,198.512,236.948,188.829,250.326z"/>
		<path fill="#D69D3C" d="M185.676,263.625c-2.965,24.289-4.823,50.441-4.351,76.771"/>
		<path fill="#D69D3C" d="M181.918,373.282c-6.018-15.383-16.167-34.406-26.752-46.12l26.083,8.905l25.76-9.833
			C196.842,338.322,187.381,357.694,181.918,373.282z"/>
		<path fill="#D69D3C" d="M193.95,391.62c5.354,25.057,13.179,49.475,24.367,71.573"/>
		<path fill="#D69D3C" d="M233.163,492.533c-12.098-11.209-29.536-23.92-44.161-29.853l27.359-3.349l18.892-20.074
			C231.365,454.567,231.308,476.136,233.163,492.533z"/>
		<path fill="#D69D3C" d="M247.349,501.143c14.188,17.145,31.231,31.568,51.678,41.92"/>
		<path fill="#D69D3C" d="M328.393,557.926c-16.407-1.863-37.976-1.799-53.273,2.088l20.059-18.893l3.346-27.365
			C304.464,528.383,317.171,545.811,328.393,557.926z"/>
		<path fill="#D69D3C" d="M359.878,558.652c21.763,7.096,46.557,9.848,74.824,6.982"/>
		<path fill="#D69D3C" d="M467.444,562.336c-14.819,7.27-32.95,18.949-43.758,30.479l6.729-26.738l-11.923-24.848
			C431.363,550.354,451.46,558.176,467.444,562.336z"/>
	</g>
</g>
</svg>
