<svg version="1.1" id="Layer_1" xmlns="http://www.w3.org/2000/svg" xmlns:xlink="http://www.w3.org/1999/xlink" viewBox="0 -275 768 980" enable-background="new 0 -275 768 980" xml:space="preserve">
<circle fill="#DDF2F2" cx="391.994" cy="450.946" r="97.563"/>
<polyline fill="none" points="270.221,314.855 270.221,-124.994 697.135,-124.994 697.135,314.855 "/>
<g enable-background="new    ">
	<path fill="#DDF2F2" d="M582.643,178.021L571,167.832c-8.088,9.059-16.176,17.146-24.256,24.256
		c-8.088,7.12-18.844,13.91-32.262,20.376c-13.424,6.475-32.26,10.03-56.519,10.675c-57.245-0.318-103.332-23.446-138.26-69.374
		c-14.236-21.347-23.126-41.964-26.682-61.854c-3.562-19.89-4.208-36.704-1.94-50.454c2.258-13.744,6.466-27.41,12.614-40.994
		l4.852,1.456c-8.414,16.82-12.939,36.066-13.584,57.73c0.318,46.572,17.784,85.708,52.395,117.399
		c29.752,27.494,66.948,41.404,111.58,41.723c18.109,0.323,35.976-3.314,53.605-10.916c17.624-7.597,35.493-22.393,53.606-44.389
		l-12.613-10.674l36.871-13.098L582.643,178.021z M477.856,47.521c6.792,1.941,12.771,4.693,17.95,8.248
		c5.168,3.562,9.376,9.542,12.613,17.949l6.307,17.95l-2.912,1.458c-3.562-13.901-7.762-23.771-12.614-29.594
		c-4.852-5.822-10.43-9.704-16.738-11.642c-6.306-1.942-12.21-3.229-17.708-3.881c-6.792,8.414-8.489,9.141-5.094,2.183
		c3.396-6.95,5.898-11.884,7.521-14.794c1.613-2.912,1.13,0.326-1.456,9.702c3.554,0.651,6.624,1.296,9.216,1.941
		c0-7.109-1.296-13.174-3.88-18.191c-2.592-5.013-6.473-9.538-11.643-13.584c-5.178-4.042-10.598-5.822-16.252-5.339
		c-5.662,0.486-9.3,3.396-10.916,8.732c-1.622,5.338-2.592,11.242-2.912,17.708l-3.88,0.484c0.318-7.437,1.614-14.555,3.88-21.347
		c-3.562-5.17-8.414-8.164-14.554-8.974c-6.147-0.804-12.294-0.076-18.434,2.184c-1.624,11.969-3.396,23.771-5.336,35.414
		l-4.853,1.456l5.822-37.355c-2.912-3.555-7.846-5.496-14.796-5.82c-6.958-0.318-12.052,0.65-15.282,2.91
		c-1.939,17.792-3.562,35.58-4.852,53.364l-3.881,1.456l5.337-55.305c-4.851-14.226-10.998-31.531-18.435-51.908
		c-3.88-8.731-8.004-13.416-12.372-14.067c-4.366-0.645-7.928,0.084-10.672,2.182c-2.75,2.108-4.124,6.064-4.124,11.886
		c0,5.822,4.526,27.494,13.584,65.009c4.526,19.086,6.792,35.096,6.792,48.027l0.486,73.255l-2.912-5.337l-0.97-62.582
		c0-17.138-2.185-34.846-6.551-53.122c-4.365-18.268-8.088-34.686-11.157-49.239c-3.078-14.555-2.834-23.849,0.728-27.896
		c3.554-4.04,8.08-5.737,13.584-5.094c6.792,0,12.448,5.822,16.98,17.464c6.792,18.76,12.613,34.93,17.464,48.512
		c4.852-2.584,11.317-3.396,19.405-2.426c8.08,0.971,12.933,3.078,14.555,6.307c7.762-2.584,15.116-3.312,22.074-2.185
		c6.951,1.138,11.886,4.452,14.796,9.946c3.228-5.168,8.565-7.437,16.008-6.792c7.436,0.651,14.388,5.018,20.86,13.098
		C475.104,26.342,478.174,35.559,477.856,47.521z M338.624-20.397c-1.939,1.939-3.964,3.077-6.063,3.396
		c-2.108,0.326-4.608,0.652-7.521,0.97c1.614-1.615,3.714-2.743,6.307-3.396C333.933-20.072,336.358-20.397,338.624-20.397z
		 M343.96,8.71c-2.592,2.592-6.306,3.88-11.157,3.88l4.365-2.426L343.96,8.71z M345.9,15.986c-0.97,1.624-2.592,2.836-4.85,3.638
		c-2.267,0.811-4.534,0.895-6.793,0.242l6.793-2.91L345.9,15.986z M445.836,64.5c10.672-2.26,18.92-1.29,24.742,2.91
		c5.822,4.208,7.762,9.218,5.822,15.04c8.08-2.91,15.04-1.212,20.859,5.094c5.82,6.307,7.437,12.856,4.853,19.648l19.89-14.068
		c11.643-9.704,19.725-16.01,24.256-18.92c4.525-2.912,9.219-4.526,14.07-4.852c4.85-0.318,9.459,1.052,13.826,4.124
		c4.367,3.078,6.305,8.655,5.82,16.735c-0.484,8.088-8.656,20.376-24.498,36.872c-18.436,18.76-37.356,36.225-56.761,52.393
		c-3.235,1.941-5.018,4.852-5.336,8.731c-0.325,3.88-1.138,8.574-2.426,14.068l-8.731,1.458c2.258-8.408,3.153-14.471,2.668-18.194
		c-0.484-3.714,1.857-7.52,7.033-11.399c5.17-3.881,20.536-17.624,46.09-41.236c25.543-25.227,36.541-40.91,32.986-47.056
		c-4.209,4.533-7.928,7.762-11.158,9.704c-3.234,1.939-6.387,2.023-9.457,0.241c-3.078-1.773-5.746-3.958-8.008-6.548
		c-8.414,7.444-18.433,14.878-30.077,22.314c10.347,13.584,9.219,14.554-3.396,2.912l-2.91,1.939
		c3.229,3.562,6.382,7.036,9.46,10.43c3.07,3.396,2.5,3.564-1.698,0.486c-4.208-3.07-7.762-6.224-10.672-9.46
		c-44.958,27.82-48.354,26.364-10.188-4.366c3.229-3.88,4.366-8.08,3.396-12.613c-0.97-4.526-3.804-8.164-8.489-10.916
		c-4.692-2.744-12.538,0.241-23.528,8.974c-11,8.731-20.376,14.478-28.138,17.222c-7.763,2.752-4.049-1.29,11.157-12.128
		c15.198-10.832,22.635-18.836,22.316-24.014c-0.326-2.91-1.698-5.095-4.124-6.548c-2.424-1.456-5.988-2.502-10.672-3.154
		c-4.692-0.643-11.968,2.184-21.83,8.49c-9.87,6.306-18.678,10.916-26.44,13.826c-7.762,2.911-2.752-2.101,15.04-15.041
		c11.316-7.109,17.223-12.371,17.708-15.766c0.486-3.396-1.054-6.548-4.609-9.46c-3.562-2.91-10.673-2.502-21.345,1.212
		c-10.672,3.723-24.256,8.9-40.75,15.526c-16.494,6.63-24.741,17.63-24.741,32.988c0,15.365,0.644,32.745,1.939,52.149l-7.762-8.246
		c-1.296-18.436-1.94-31.208-1.94-38.326c0-7.109,0.486-13.416,1.456-18.92c0.97-5.496,3.882-10.832,8.732-16.01
		c4.852-5.168,17.464-11.558,37.84-19.162c20.376-7.596,34.202-11.399,41.478-11.399c7.278,0,12.53,2.909,15.767,8.731
		C448.58,56.738,448.748,61.272,445.836,64.5z M346.87,205.188l11.158,7.275c2.258,8.091,8.731,17.792,19.404,29.11
		c4.525,2.91,5.495,24.9,2.911,65.977h-8.731c1.616-37.523,1.698-57.244,0.244-59.188c-1.456-1.941-3.807-4.852-7.036-8.73
		c-3.236-3.881-6.23-8.406-8.974-13.586C353.094,220.875,350.101,213.92,346.87,205.188z M364.82,94.092
		c-2.266-3.554-2.424-6.792-0.484-9.701c1.614,4.852,4.685,8.088,9.217,9.701C371.931,96.36,369.021,96.36,364.82,94.092z
		 M408.482,120.776c-11.645,0.968-14.555-2.26-8.732-9.704C400.721,115.606,403.63,118.834,408.482,120.776z M440.986,142.606
		c-2.592,2.592-5.094,2.834-7.518,0.728c-2.427-2.102-2.834-4.928-1.213-8.49C433.868,139.05,436.78,141.634,440.986,142.606z
		 M489.984,307.547c0.97-27.816,0.076-44.068-2.668-48.754c-2.75-4.691-7.687-8.656-14.796-11.885
		c-5.504,3.553-10.431,5.738-14.796,6.549c-4.366,0.801-2.834-1.699,4.607-7.52c3.882-2.594,6.952-5.824,9.218-9.705
		c3.23-0.324,5.98-0.803,8.248-1.455c-0.651,1.289-1.622,3.229-2.909,5.82c5.821,2.91,11.073,6.867,15.766,11.885
		c4.684,5.012,6.548,23.363,5.578,55.061h-8.248V307.547z M570.518,84.874c-1.297-2.258-3.398-3.958-6.309-5.094
		c-2.91-1.128-5.418-1.29-7.52-0.484c-2.107,0.811-6.547,3.805-13.34,8.975c4.523,4.534,8.004,6.958,10.43,7.277
		c2.426,0.324,5.094-0.644,8.004-2.912C564.693,90.378,567.604,87.784,570.518,84.874z"/>
</g>
<g enable-background="new    ">
	<path fill="#F44D8D" d="M413.648,478.402c-0.889,2.963-2.372,5.609-4.446,7.938c-2.076,2.33-4.826,4.191-8.256,5.588
		c-3.43,1.398-7.684,2.098-12.764,2.098c-8.469,0-14.988-2.223-19.561-6.67c-4.571-4.445-6.859-10.984-6.859-19.623v-5.588h12.065
		v3.809c0,2.625,0.21,5.039,0.636,7.238c0.423,2.205,1.164,4.111,2.223,5.717c1.058,1.609,2.54,2.857,4.445,3.746
		c1.906,0.889,4.339,1.334,7.305,1.334c5.502,0,9.292-1.48,11.368-4.445c2.073-2.963,3.111-6.945,3.111-11.941v-66.299h12.066v68.08
		C414.982,472.432,414.538,475.439,413.648,478.402z"/>
</g>
</svg>
