<svg version="1.1" xmlns="http://www.w3.org/2000/svg" viewBox="0 0 768 975" enable-background="new 0 0 768 975" xml:space="preserve"><circle fill="#DDE5CE" cx="384.5" cy="731.4" r="125.4"/><path fill="#CB394D" d="M388 750.7c-0.7 2.3-1.9 4.4-3.5 6.3 -1.6 1.8-3.8 3.3-6.5 4.4 -2.7 1.1-6 1.6-10 1.6 -6.7 0-11.8-1.7-15.4-5.2s-5.4-8.6-5.4-15.4v-4.4h9.5v3c0 2.1 0.2 4 0.5 5.7 0.3 1.7 0.9 3.2 1.8 4.5 0.8 1.3 2 2.3 3.5 3 1.5 0.7 3.4 1.1 5.8 1.1 4.3 0 7.3-1.2 9-3.5 1.6-2.3 2.5-5.5 2.5-9.4v-52.2h9.5v53.6C389 746 388.7 748.4 388 750.7z"/><path fill="#EA5F72" d="M413.9 777.9c-2.2 2.1-5.2 3.2-9 3.2 -1.5 0-3-0.1-4.3-0.4v-7.3c0.3 0.1 0.6 0.1 0.9 0.2 0.2 0 0.5 0.1 0.8 0.1h1.8c1.9 0 3.1-0.5 3.8-1.5 0.7-1 1-2.9 1-5.6v-56.8h8.5v58.2C417.2 772.5 416.1 775.8 413.9 777.9zM408.7 700.4v-10.4h8.5v10.4H408.7z"/><path fill="none" stroke="#DDE5CE" stroke-width="5" stroke-miterlimit="10" d="M303.3 179.4c11.5-31.3 27.8-49.4 48.9-38.6 7.1 6.2 12.1 7.2 12.6 13.2 -3.2-14 5.7-36.3 26.3-32.6 18.4 3.3 27.6 5.3 32.3 24.4 -0.7-10 10.1-9.1 16.3-14.2 10.7-6.9 45.1 12.3 51.8 37 10.4 38.4 22.7 79.9 22.1 120 -0.1 5.3 17.8 16.3 17 22.6 -6.5 48.6-7.3 84.8-30.4 124.4 -13.7 23.4-14.7 60.3 1.6 80"/><path fill="none" stroke="#DDE5CE" stroke-width="5" stroke-miterlimit="10" d="M361.2 209.3c2.4 36.2 34.4 34.7 57.1 50.5 7.6 5.3 15.5 47.6 13.9 61.1 -1.3 11 17.6 14.5 20 27.7"/><path fill="none" stroke="#DDE5CE" stroke-width="5" stroke-miterlimit="10" d="M515.2 291.6c-7.2-6.7-12.3-18.5-16-23.5 -23-31.3-36.7-58.1-52.8-66.6 -10.4-5.5-36.5-5.6-35 5.7 3.6 25.7-45.5 14.7-50.1 2.1"/><path fill="none" stroke="#DDE5CE" stroke-width="5" stroke-miterlimit="10" d="M415.3 258.7c0.5 0.2 21.7-7.6 22.8-8.2"/><path fill="none" stroke="#DDE5CE" stroke-width="5" stroke-miterlimit="10" d="M433.1 311.3c-37 34.3-21.1 96.7-51.4 134"/><path fill="none" stroke="#DDE5CE" stroke-width="5" stroke-miterlimit="10" d="M392.4 247.4c-19.5 22.7-37.7 62.1-65.4 70.9"/><path fill="none" stroke="#DDE5CE" stroke-width="5" stroke-miterlimit="10" d="M414 201.7c-14.9-4-43.9-5.9-52.8 7.6"/><path fill="none" stroke="#DDE5CE" stroke-width="5" stroke-miterlimit="10" d="M474.4 178.5c-7.6-0.5-11.2-7.5-12.2-14.4 6.1 23.6 11.5 30.4-2.2 50.3"/><path fill="none" stroke="#DDE5CE" stroke-width="5" stroke-miterlimit="10" d="M423.4 145.7c-0.3 1.1 5.2 41.1 5.5 50.1"/><path fill="none" stroke="#DDE5CE" stroke-width="5" stroke-miterlimit="10" d="M354 243.1c2.4 6.3 19 9.8 27.4 1.7"/><path fill="none" stroke="#DDE5CE" stroke-width="5" stroke-miterlimit="10" d="M354 243.1c-21.7-12.8-23.4-55.7-50.7-63.7 0 0-0.6-17 0-7.3 0 0-0.5-8-6.5-36.7 -5.4-26.2-8.4-60-38.3-52.6 -16.6 4.1-12.2 66.8-5.1 92 7.1 25.2 9.9 39.7 10.9 54.8 0.9 13.1-0.1 19.1 6.2 40.6 -1.1 70.1-2.1 140 28.4 203.6 6.2 13 23.5 20.6 33 31.2 14.7 16.2 3 43.6 6.2 66.4"/><path fill="none" stroke="#DDE5CE" stroke-width="5" stroke-miterlimit="10" d="M364.8 153.9c3.9 5.8 18.9 42 22.8 43.9"/><path fill="none" stroke="#DDE5CE" stroke-width="5" stroke-miterlimit="10" d="M322.8 237.5c-11-13.1-16.1-39.9-19.5-58.1"/><path fill="none" stroke="#DDE5CE" stroke-width="5" stroke-miterlimit="10" d="M282.2 256.7c8-7 22.3-15.7 28.6-17.4"/><path fill="none" stroke="#DDE5CE" stroke-width="5" stroke-miterlimit="10" d="M329.7 234"/><path fill="none" stroke="#DDE5CE" stroke-width="5" stroke-miterlimit="10" d="M360.7 215.9c-7.5 3.3-12.2 8.9-10 17.5 2.2 8.6 5.9 12.7 13.1 15"/><path fill="#D69D3C" d="M228.8 125.5c-3.4 10.5-18.2 46.3-31.2 93.1"/><path fill="#D69D3C" d="M188.8 250.3c-1.4-16.5-5.7-37.6-12.5-51.8l22.5 16 27.5-2.1C213.1 221.1 198.5 236.9 188.8 250.3z"/><path fill="#D69D3C" d="M185.7 263.6c-3 24.3-4.8 50.4-4.4 76.8"/><path fill="#D69D3C" d="M181.9 373.3c-6-15.4-16.2-34.4-26.8-46.1l26.1 8.9 25.8-9.8C196.8 338.3 187.4 357.7 181.9 373.3z"/><path fill="#D69D3C" d="M194 391.6c5.4 25.1 13.2 49.5 24.4 71.6"/><path fill="#D69D3C" d="M233.2 492.5c-12.1-11.2-29.5-23.9-44.2-29.9l27.4-3.3 18.9-20.1C231.4 454.6 231.3 476.1 233.2 492.5z"/><path fill="#D69D3C" d="M247.3 501.1c14.2 17.1 31.2 31.6 51.7 41.9"/><path fill="#D69D3C" d="M328.4 557.9c-16.4-1.9-38-1.8-53.3 2.1l20.1-18.9 3.3-27.4C304.5 528.4 317.2 545.8 328.4 557.9z"/><path fill="#D69D3C" d="M359.9 558.7c21.8 7.1 46.6 9.8 74.8 7"/><path fill="#D69D3C" d="M467.4 562.3c-14.8 7.3-32.9 18.9-43.8 30.5l6.7-26.7 -11.9-24.8C431.4 550.4 451.5 558.2 467.4 562.3z"/></svg>