<svg version="1.1" id="Layer_1" xmlns="http://www.w3.org/2000/svg" xmlns:xlink="http://www.w3.org/1999/xlink" viewBox="0 -275 768 980" enable-background="new 0 -275 768 980" xml:space="preserve">
<circle fill="#DDF2F2" cx="388.994" cy="450.946" r="97.563"/>
<polyline fill="none" points="267.221,314.855 267.221,-124.994 694.135,-124.994 694.135,314.855 "/>
<g enable-background="new    ">
	<path fill="#DDF2F2" d="M451.57,166.376c0,11.643-0.486,22.482-1.456,32.504c-2.592,26.849-3.88,44.062-3.88,51.667
		c0,7.596,1.614,26.598,4.85,57h-7.762c-4.534-36.869-6.306-60.807-5.336-71.797s2.184-23.605,3.638-37.84
		c1.456-14.228,1.532-42.366,0.244-84.412c-1.296-42.04-2.184-75.924-2.668-101.634c-0.484-25.712-2.508-46.572-6.063-62.582
		c-3.562-16.01-9.704-24.014-18.437-24.014c-5.176,0-8.897,2.834-11.158,8.489c-2.266,5.662-3.562,34.368-3.88,86.11
		c-0.652,28.792-6.632,35.9-17.95,21.346c13.584,34.612,23.931,63.393,31.048,86.354c5.17,19.404,7.194,32.988,6.064,40.75
		c-1.136,7.764-2.912,4.936-5.336-8.488c-2.426-13.418-8.816-34.204-19.164-62.34l-10.188,1.456l9.218-3.88l-0.97-2.426
		l-13.584,2.426l12.613-4.853l-0.97-1.939l-10.672,1.939l9.702-4.365l-2.91-7.763c-1.622-4.199-2.592-6.792-2.912-7.764
		c-5.176,1.296-9.3,1.7-12.372,1.212c-3.078-0.484-5.662-2.342-7.762-5.578c-2.108-3.228-3.154-7.762-3.154-13.584
		c0-3.228,0.645-5.819,1.94-7.762c1.939-2.584,5.821-3.396,11.644-2.426c-1.939-5.496-6.063-7.597-12.372-6.307
		c-6.306,1.296-10.354,5.42-12.128,12.372c-1.782,6.958-1.296,16.418,1.456,28.38c2.744,11.969,6.548,26.683,11.4,44.146
		c3.88,12.94,6.708,24.498,8.489,34.686c1.774,10.188,0.561,17.548-3.638,22.074c-4.208,4.534-6.39,13.267-6.55,26.198
		c-0.166,12.938-1.296,16.092-3.396,9.458c-2.107-6.624-2.993-13.174-2.668-19.648c0.318-6.464,1.94-11.474,4.853-15.04
		c-6.148,3.238-11.645,4.368-16.496,3.396c-3.236-0.318-5.822-1.774-7.762-4.366c-1.297,2.592-3.562,4.208-6.792,4.853
		c-3.236,0.649-7.118-0.486-11.643-3.396c-1.296,11.968,2.017,31.13,9.944,57.488c7.922,26.355,14.63,50.041,20.132,71.068h-9.216
		c-15.206-54.016-24.256-87.078-27.166-99.207c-2.912-12.126-3.882-24.498-2.912-37.111c-6.148-6.792-11.484-15.685-16.008-26.683
		c-4.534-10.991-6.876-22.073-7.036-33.231c-0.166-11.158,1.456-18.51,4.852-22.072c3.396-3.556,9.135-4.042,17.223-1.458
		c0-6.138,1.372-12.53,4.124-19.162c2.744-6.624,7.033-10.506,12.855-11.642c5.822-1.128,11.477,0.084,16.98,3.638
		C324.624,34.103,313.467,13.729,307-0.508c-6.474-14.228-10.111-24.416-10.916-30.562c-0.812-6.141,0.645-11.076,4.366-14.796
		c3.714-3.715,9.05-4.442,16.008-2.183c6.952,2.267,17.542,13.424,31.776,33.474c11.318,16.82,20.936,30.162,28.866,40.024
		c7.92,9.87,12.204,11.324,12.855,4.366c0.645-6.952,0.971-23.772,0.971-50.454s1.697-43.82,5.094-51.422
		c3.396-7.596,9.62-11.72,18.676-12.372c12.288,0.326,20.937,9.384,25.956,27.166c5.01,17.792,7.521,49.166,7.521,94.116
		L451.57,166.376z M322.04,156.19c-9.384-22.316-14.72-42.366-16.008-60.156c-8.731-4.2-13.266-0.97-13.584,9.704
		c-0.326,10.672,1.046,20.86,4.124,30.562c3.07,9.704,7.521,18.437,13.34,26.198C312.822,159.584,316.864,157.484,322.04,156.19z
		 M365.702,28.116c-4.208-5.17-10.84-14.386-19.89-27.652c-15.524-25.226-26.522-38.325-32.99-39.296
		c-6.472-0.97-8.974,2.426-7.518,10.188c1.455,7.762,8.004,22.155,19.647,43.176c9.702,17.464,15.842,27.82,18.435,31.048
		c0.644-6.792,3.312-11.642,8.004-14.554C356.074,28.116,360.851,27.145,365.702,28.116z M330.772,172.198
		c-3.562-5.168-6.307-10.021-8.248-14.552l-5.822,1.939l-5.822,3.882c3.883,6.792,7.839,10.515,11.887,11.156
		C326.809,175.276,329.477,174.464,330.772,172.198z M353.572,168.316c-8.088,2.594-13.098,3.238-15.04,1.941
		c1.94,3.562,5.656,5.179,11.158,4.853c5.17-0.97,9.05-2.912,11.644-5.822c1.288-1.29,1.94-3.228,1.94-5.82
		c0-2.586-0.244-5.338-0.729-8.247c-0.485-2.91-2.752-11.4-6.792-25.469c-4.048-14.067-9.142-34.52-15.281-61.37
		c-4.851-2.909-9.46-3.958-13.826-3.153c-4.366,0.812-7.519,3.638-9.46,8.489c-1.94,4.853-2.75,11.484-2.424,19.891
		c1.288,12.614,3.228,23.454,5.821,32.504c2.584,9.058,5.654,17.95,9.217,26.682c4.852-2.584,9.535-4.366,14.069-5.336
		c4.526-0.97,7.521-0.16,8.975,2.426c1.456,2.593,2.502,6.146,3.153,10.673C356.645,165.088,355.832,167.674,353.572,168.316z
		 M332.712-0.992c-5.502,3.881-7.117,4.534-4.852,1.94c2.26-2.584,4.526-4.524,6.792-5.822
		C336.912-6.162,336.269-4.874,332.712-0.992z M353.088,154.734c-0.651-4.526-3.319-6.466-8.004-5.822
		c-4.691,0.652-9.46,2.426-14.312,5.336c1.939,5.178,4.366,10.03,7.277,14.554c2.584,0.326,5.095,0.326,7.521,0
		c2.424-0.317,4.85-1.046,7.276-2.184C355.272,165.49,355.349,161.526,353.088,154.734z M358.424,243.512
		c-9.384,0.645-12.537,1.213-9.46,1.699c3.07,0.484,7.679,0.402,13.826-0.242C369.902,243.672,368.446,243.188,358.424,243.512z
		 M376.374,252.729c-4.852,0-10.188,0.244-16.01,0.729s-6.474,0.885-1.94,1.211c4.526,0.318,9.536,0.318,15.04,0
		C381.87,254.02,382.84,253.371,376.374,252.729z M383.166,68.866l-8.731-25.226c-1.622-0.318-3.396-0.484-5.336-0.484
		c-5.502,0-7.929,3.72-7.278,11.158c0.644,7.443,2.502,12.21,5.58,14.31C370.471,70.73,375.723,70.807,383.166,68.866z
		 M385.592,241.572c-9.058-0.326-11.483-0.652-7.275-0.971c4.2-0.324,7.92-0.242,11.158,0.242
		C392.702,241.328,391.412,241.572,385.592,241.572z M413.73,55.284c-6.475-1.942-7.521-2.67-3.154-2.184
		c4.366,0.483,8.324,1.781,11.886,3.88C426.017,59.088,423.106,58.521,413.73,55.284z M419.551-24.277
		c-9.059-0.645-11.484-1.131-7.276-1.456c4.2-0.318,7.92-0.242,11.158,0.243C426.66-25.008,425.372-24.596,419.551-24.277z
		 M421.006,12.106c-9.384-1.29-11.884-1.94-7.518-1.94s8.406,0.326,12.128,0.968C429.328,11.786,427.798,12.106,421.006,12.106z"/>
</g>
<g enable-background="new    ">
	<path fill="#F44D8D" d="M372.652,401.303v45.217l45.979-45.217h15.624l-38.231,36.58l39.756,54.109h-15.242l-32.77-45.854
		l-15.116,14.1v31.754h-12.066v-90.689H372.652z"/>
</g>
</svg>
