<svg version="1.1" xmlns="http://www.w3.org/2000/svg" xmlns:xlink="http://www.w3.org/1999/xlink" viewBox="0 0 768 975" enable-background="new 0 0 768 975" xml:space="preserve">
<g id="circle">
	<circle fill="#DDE5CE" cx="384.51" cy="731.426" r="125.426"/>
</g>
<g id="kk">
	<g>
		<path fill="#CB394D" d="M339.983,689.998v35.601l36.2-35.601h12.3l-30.1,28.801l31.3,42.6h-12l-25.8-36.1l-11.9,11.1v25h-9.5
			v-71.4H339.983z"/>
		<path fill="#EA5F72" d="M409.783,689.998v42.301l23.6-22.601h11.4l-20.5,18.8l22,32.9h-10.801l-17.699-27l-8,7.4v19.6h-8.5v-71.4
			H409.783z"/>
	</g>
</g>
<g id="k">
	<g>
		<path fill="none" stroke="#DDE5CE" stroke-width="5" stroke-miterlimit="10" d="M320.849,267.368
			c-6.677-11.514-21.774-7.375-29.419,0.549c-8.826,9.148-8.465,22.417-7.208,34.17c-22.297-7.446-41.718,9.654-42.284,32.118
			c-0.323,12.833,4.386,26.621,6.668,39.208c2.953,16.287,5.89,32.609,10.19,48.606c3.624,13.481,8.246,26.768,14.779,39.136
			c6.521,12.345,16.615,21.765,23.572,33.647c14.36,24.527,10.608,56.431,29.321,78.861"/>
		<path fill="none" stroke="#DDE5CE" stroke-width="5" stroke-miterlimit="10" d="M382.182,230.773
			c-6.424-29.075-13.611-57.975-20.05-87.046c-3.798-17.147-20.431-60.477-4.477-74.333c34.693-30.129,59.905,95.38,63.494,111.731
			c5.615,25.579,8.507,51.586,19.575,75.499c8.608,18.596,20.293,36.967,26.148,56.688c5.304,17.863,4.411,39.178,4.38,57.591
			c-0.025,14.281,0.217,42.408-9.577,54.463"/>
		<path fill="none" stroke="#DDE5CE" stroke-width="5" stroke-miterlimit="10" d="M459.467,531.371
			c-1.702-19.218-16.109-35.05-16.457-54.499c-0.408-22.81,19.71-40.953,21.116-63.703c1.278-20.669-16.554-41.76-26.595-58.607
			c-11.856-19.893-23.911-42.011-31.695-63.881c-3.625-10.188-4.802-20.427-3.033-31.105c1.525-9.208,4.464-19.776-1.209-28.248
			c-8.312-12.444-28.417,1.481-34.093,8.347c-12.909,15.616-19.796,30.624-15.758,51.466c4.451,22.974,10.779,45.375,14.708,68.634"
			/>
		<path fill="none" stroke="#DDE5CE" stroke-width="5" stroke-miterlimit="10" d="M382.182,230.773
			c-2.024,9.659-5,19.565-4.287,29.546c0.708,9.895,14.211,7.881,22.105,9.546"/>
		<path fill="none" stroke="#DDE5CE" stroke-width="5" stroke-miterlimit="10" d="M366.452,359.775
			c3.456,23.436-40.098,80.773-21.573,104.283"/>
		<path fill="none" stroke="#DDE5CE" stroke-width="5" stroke-miterlimit="10" d="M369.908,137.846
			c7.642-4.786,24.607,1.269,28.073-12.456"/>
		<path fill="none" stroke="#DDE5CE" stroke-width="5" stroke-miterlimit="10" d="M363.746,242.851
			c-7.748-24.245-44.205-42.435-64.173-54.626c-14.239-8.694-28.709-16.998-43.146-25.357c-9.889-5.726-24.458-18.741-36.645-14.1
			c-22.617,8.613-7.633,33.42,5.399,42.026c19.73,13.03,40.201,24.89,59.49,38.597c11.306,8.035,34.974,22.107,36.177,37.978
			c2.508,33.276,25.508,59.437,36.396,89.876c6.554,18.323,3.663,59.976-25.281,40.071c-23.453-16.128,13.249-49.652,29.286-17.203"
			/>
		<path fill="none" stroke="#DDE5CE" stroke-width="5" stroke-miterlimit="10" d="M284.222,302.086
			c6.868,38.46,18.858,58.821,42.258,89.305"/>
		<path fill="none" stroke="#DDE5CE" stroke-width="5" stroke-miterlimit="10" d="M243.217,331.682
			c16.273,14.533,24.653,34.893,38.235,51.555c5.244,6.433,13.942,16.417,22.664,17.76c8.797,1.354,19.96-5.557,17.778-15.482"/>
		<path fill="none" stroke="#DDE5CE" stroke-width="5" stroke-miterlimit="10" d="M310.131,368.225
			c-22.866,5.71-14.177,17.747-8.814,29.971"/>
		<path fill="none" stroke="#DDE5CE" stroke-width="5" stroke-miterlimit="10" d="M234.8,197.031
			c6.105,0.927,13.706-6.652,17.796-13.14"/>
		<path fill="none" stroke="#DDE5CE" stroke-width="5" stroke-miterlimit="10" d="M418.025,312.738
			c6.815,2.485,23.396-14.689,23.396-14.689"/>
		<path fill="none" stroke="#DDE5CE" stroke-width="5" stroke-miterlimit="10" d="M289.409,232.668
			c6.94-1.342,22.94-8.689,22.94-8.689"/>
		<path fill="none" stroke="#DDE5CE" stroke-width="5" stroke-miterlimit="10" d="M329.11,284.238
			c4.66-2.174,13.753,1.142,13.753,1.142"/>
	</g>
</g>
</svg>
