<svg version="1.1" xmlns="http://www.w3.org/2000/svg" viewBox="0 0 768 975" enable-background="new 0 0 768 975" xml:space="preserve"><circle fill="#DDE5CE" cx="384.5" cy="731.4" r="125.4"/><path fill="#CB394D" d="M340 690v35.6l36.2-35.6h12.3l-30.1 28.8 31.3 42.6h-12l-25.8-36.1 -11.9 11.1v25h-9.5v-71.4H340z"/><path fill="#EA5F72" d="M409.8 690v42.3l23.6-22.6h11.4l-20.5 18.8 22 32.9h-10.8l-17.7-27 -8 7.4v19.6h-8.5v-71.4H409.8z"/><path fill="none" stroke="#DDE5CE" stroke-width="5" stroke-miterlimit="10" d="M320.8 267.4c-6.7-11.5-21.8-7.4-29.4 0.5 -8.8 9.1-8.5 22.4-7.2 34.2 -22.3-7.4-41.7 9.7-42.3 32.1 -0.3 12.8 4.4 26.6 6.7 39.2 3 16.3 5.9 32.6 10.2 48.6 3.6 13.5 8.2 26.8 14.8 39.1 6.5 12.3 16.6 21.8 23.6 33.6 14.4 24.5 10.6 56.4 29.3 78.9"/><path fill="none" stroke="#DDE5CE" stroke-width="5" stroke-miterlimit="10" d="M382.2 230.8c-6.4-29.1-13.6-58-20-87 -3.8-17.1-20.4-60.5-4.5-74.3 34.7-30.1 59.9 95.4 63.5 111.7 5.6 25.6 8.5 51.6 19.6 75.5 8.6 18.6 20.3 37 26.1 56.7 5.3 17.9 4.4 39.2 4.4 57.6 0 14.3 0.2 42.4-9.6 54.5"/><path fill="none" stroke="#DDE5CE" stroke-width="5" stroke-miterlimit="10" d="M459.5 531.4c-1.7-19.2-16.1-35-16.5-54.5 -0.4-22.8 19.7-41 21.1-63.7 1.3-20.7-16.6-41.8-26.6-58.6 -11.9-19.9-23.9-42-31.7-63.9 -3.6-10.2-4.8-20.4-3-31.1 1.5-9.2 4.5-19.8-1.2-28.2 -8.3-12.4-28.4 1.5-34.1 8.3 -12.9 15.6-19.8 30.6-15.8 51.5 4.5 23 10.8 45.4 14.7 68.6"/><path fill="none" stroke="#DDE5CE" stroke-width="5" stroke-miterlimit="10" d="M382.2 230.8c-2 9.7-5 19.6-4.3 29.5 0.7 9.9 14.2 7.9 22.1 9.5"/><path fill="none" stroke="#DDE5CE" stroke-width="5" stroke-miterlimit="10" d="M366.5 359.8c3.5 23.4-40.1 80.8-21.6 104.3"/><path fill="none" stroke="#DDE5CE" stroke-width="5" stroke-miterlimit="10" d="M369.9 137.8c7.6-4.8 24.6 1.3 28.1-12.5"/><path fill="none" stroke="#DDE5CE" stroke-width="5" stroke-miterlimit="10" d="M363.7 242.9c-7.7-24.2-44.2-42.4-64.2-54.6 -14.2-8.7-28.7-17-43.1-25.4 -9.9-5.7-24.5-18.7-36.6-14.1 -22.6 8.6-7.6 33.4 5.4 42 19.7 13 40.2 24.9 59.5 38.6 11.3 8 35 22.1 36.2 38 2.5 33.3 25.5 59.4 36.4 89.9 6.6 18.3 3.7 60-25.3 40.1 -23.5-16.1 13.2-49.7 29.3-17.2"/><path fill="none" stroke="#DDE5CE" stroke-width="5" stroke-miterlimit="10" d="M284.2 302.1c6.9 38.5 18.9 58.8 42.3 89.3"/><path fill="none" stroke="#DDE5CE" stroke-width="5" stroke-miterlimit="10" d="M243.2 331.7c16.3 14.5 24.7 34.9 38.2 51.6 5.2 6.4 13.9 16.4 22.7 17.8 8.8 1.4 20-5.6 17.8-15.5"/><path fill="none" stroke="#DDE5CE" stroke-width="5" stroke-miterlimit="10" d="M310.1 368.2c-22.9 5.7-14.2 17.7-8.8 30"/><path fill="none" stroke="#DDE5CE" stroke-width="5" stroke-miterlimit="10" d="M234.8 197c6.1 0.9 13.7-6.7 17.8-13.1"/><path fill="none" stroke="#DDE5CE" stroke-width="5" stroke-miterlimit="10" d="M418 312.7c6.8 2.5 23.4-14.7 23.4-14.7"/><path fill="none" stroke="#DDE5CE" stroke-width="5" stroke-miterlimit="10" d="M289.4 232.7c6.9-1.3 22.9-8.7 22.9-8.7"/><path fill="none" stroke="#DDE5CE" stroke-width="5" stroke-miterlimit="10" d="M329.1 284.2c4.7-2.2 13.8 1.1 13.8 1.1"/></svg>