<svg version="1.1" id="Layer_1" xmlns="http://www.w3.org/2000/svg" xmlns:xlink="http://www.w3.org/1999/xlink" viewBox="0 -275 768 980" enable-background="new 0 -275 768 980" xml:space="preserve">
<circle fill="#DDF2F2" cx="380.992" cy="450.946" r="97.563"/>
<polyline fill="none" points="259.218,314.855 259.218,-124.994 686.133,-124.994 686.133,314.855 "/>
<g enable-background="new    ">
	<path fill="#DDF2F2" d="M380.5,118.834c-8.414,3.562-14.88,3.236-19.406-0.97c-2.592,8.731-7.033,13.668-13.34,14.796
		c-6.306,1.136-11.567-0.402-15.766-4.61c-4.534,5.822-9.218,8.732-14.07,8.732c-4.85,0-10.838-4.684-17.95-14.068
		c-6.147,42.046-0.166,77.303,17.95,105.759c1.616,2.594,3.557,5.504,5.822,8.73c2.258,3.23,4.526,7.762,6.792,13.586
		c2.258,5.82,4.124,13.258,5.58,22.316c1.456,9.049,2.016,20.533,1.698,34.441h-8.732c0.318-29.434-3.722-50.938-12.128-64.52
		c-8.414-13.586-14.394-25.303-17.95-35.173c-3.562-9.862-6.147-21.832-7.762-35.9c-1.622-14.067-0.812-32.904,2.426-56.518
		c-12.294-20.694-18.191-36.87-17.708-48.513c0.484-11.642,9.46-20.693,26.924-27.168c0.318-7.762,2.017-14.47,5.095-20.132
		c3.069-5.653,6.548-9.216,10.43-10.672s7.52-2.1,10.916-1.942c3.396,0.168,6.55,0.895,9.46,2.185
		c4.526-9.05,10.43-13.342,17.708-12.856c7.276,0.484,13.986,2.668,20.132,6.549c6.141,3.88,10.188,6.957,12.128,9.216
		c0.645-14.872,1.614-32.822,2.912-53.849c1.288-21.02,3.88-34.686,7.762-40.994c3.883-6.308,9.376-9.777,16.494-10.43
		c10.022,0,17.784,7.603,23.286,22.8c5.496,15.206,8.406,37.356,8.732,66.464l-0.486,98.48c-0.326,2.592,0.318,5.018,1.94,7.278
		c10.991-9.704,19.563-16.98,25.712-21.832c6.14-4.853,14.47-7.763,24.983-8.732c10.506-0.97,19.24,0.168,26.197,3.396
		c6.951,3.235,10.914,8.414,11.885,15.523c0.318,4.534-2.426,8.574-8.248,12.128c-21.67,10.998-36.384,25.71-44.146,44.146
		c-25.878,49.481-40.75,78.674-44.632,87.564c-3.881,8.891-4.851,17.867-2.91,26.926l9.702,46.57h-9.219l-9.216-45.602
		c-2.592-13.582,0-27.484,7.763-41.719l47.542-89.75l-11.158-8.732l12.613,6.306l0.971-1.939c0-0.318-4.366-4.368-13.099-12.128
		l14.555,8.731l0.97-1.456l-9.216-8.248l11.642,5.339l12.614-9.704c-4.208-7.437,0-13.258,12.614-17.465
		c3.555-1.289,6.465,0,8.73,3.881c4.527-2.91,4.285-6.549-0.725-10.916c-5.021-4.366-12.615-6.139-22.802-5.336
		c-10.188,0.812-21.104,6.548-32.746,17.222c-25.878,22.642-42.29,34.854-49.242,36.626c-6.958,1.782-5.094-1.046,5.58-8.49
		c7.436-6.792,12.932-12.613,16.496-17.464c-2.912-3.88-4.048-13.899-3.396-30.076l0.486-94.116
		c-0.97-23.604-3.722-40.75-8.248-51.422c-4.534-10.672-9.544-16.01-15.04-16.01c-10.028-0.318-15.85,16.662-17.464,50.938
		c-1.622,34.283-3.396,60.968-5.336,80.046l-3.882-1.456l-1.456-23.286c-4.534-5.17-11.811-10.022-21.832-14.554
		c-10.028-4.526-16.82-1.616-20.376,8.731c-3.562,10.354-5.019,21.187-4.366,32.504c0.644,11.324,1.858,19.73,3.638,25.227
		c1.774,5.502,3.639,10.672,5.58,15.523c4.526-2.258,8.406-3.312,11.643-3.151c3.229,0.166,5.981,2.35,8.248,6.548
		c2.258,4.208,4.365,10.672,6.306,19.404c4.2-2.584,5.496-8.807,3.882-18.679c-1.622-9.862-4.048-21.42-7.278-34.686l5.822,2.91
		c-2.91-39.128,0.16-34.931,9.218,12.613l-4.852-0.97l3.396,15.04c1.939,11.326,2.1,19.004,0.483,23.044
		C386.156,114.876,383.73,117.544,380.5,118.834z M317.435,99.43c-5.179-12.932-8.658-22.875-10.431-29.836
		c-1.781-6.951-2.994-13.985-3.638-21.104c-13.91,5.504-20.542,12.698-19.89,21.588c0.644,8.9,3.396,18.034,8.248,27.41
		c14.228,26.198,24.416,36.55,30.562,31.048c-5.822-5.822-9.786-10.916-11.886-15.282c-2.106-4.368-2.183-7.596-0.242-9.704
		C312.099,101.452,314.524,100.08,317.435,99.43z M327.622,122.714c-3.238-6.464-6.474-13.741-9.704-21.83
		c-3.235,0.971-5.502,2.267-6.792,3.88c-1.296,1.623-1.38,3.639-0.244,6.064c1.13,2.426,2.584,4.934,4.366,7.52
		c1.774,2.593,4.442,5.662,8.004,9.217C325.196,126.278,326.652,124.656,327.622,122.714z M345.086,92.637
		c-3.563-7.763-6.308-15.927-8.248-24.498c-1.939-8.566-2.994-18.11-3.153-28.624c-0.166-10.507,0.888-18.353,3.153-23.53
		c-3.562-1.288-7.033-1.698-10.43-1.212c-3.396,0.485-6.876,3.237-10.43,8.248c-3.562,5.018-5.176,12.454-4.851,22.315
		c0.318,9.87,3.07,22.725,8.248,38.566c5.168,15.852,9.536,27.008,13.099,33.474c3.556,6.473,7.922,9.384,13.098,8.732
		c-4.85-8.08-8.49-15.116-10.916-21.104C332.23,99.028,335.702,94.904,345.086,92.637z M355.758,113.012
		c-2.909-2.909-6.306-9.216-10.188-18.92c-8.414,1.624-11.643,5.021-9.702,10.188c2.584,7.12,6.14,14.396,10.672,21.832
		C351.068,124.17,354.137,119.805,355.758,113.012z M364.006,245.453c-7.443,1.287-12.697,1.773-15.766,1.455
		c-3.078-0.326-6.232-0.971-9.46-1.943c7.762-0.967,12.69-1.455,14.796-1.455C355.676,243.512,359.156,244.156,364.006,245.453z
		 M375.65,112.042l-1.94-8.248c-2.266-7.436-4.691-12.448-7.277-15.04c-2.593-2.584-7.603-2.1-15.038,1.456
		c4.523,11.326,7.594,17.792,9.216,19.406c1.616,1.622,3.638,2.91,6.063,3.88C369.101,114.466,372.086,113.982,375.65,112.042z
		 M379.044,251.273c-4.532,0.645-8.655,0.887-12.37,0.729c-3.722-0.166-7.686-0.729-11.886-1.697
		c5.496-0.326,10.021-0.41,13.584-0.244C371.928,250.221,375.482,250.621,379.044,251.273z M386.322,243.998h-9.702
		c-3.882-0.326-6.958-1.139-9.218-2.426c3.554,0,7.52,0.074,11.886,0.242C383.654,241.973,385.996,242.699,386.322,243.998z
		 M381.471,124.17c14.873-13.582,21.422-18.352,19.647-14.31c-1.782,4.046-4.61,7.686-8.49,10.916
		c-3.88,3.235-7.846,7.52-11.886,12.855c-4.048,5.336-6.632,12.053-7.762,20.132c-1.137,8.089-2.185,9.301-3.154,3.639
		c-0.97-5.656-0.568-11.074,1.212-16.252C372.814,135.98,376.294,130.318,381.471,124.17z M424.162,4.344
		c-6.147,0.971-11.642,0.652-16.494-0.97c1.94-0.644,4.526-0.968,7.763-0.968C418.658,2.404,421.57,3.055,424.162,4.344z
		 M423.192,48.49c-1.94,0.652-4.048,0.97-6.307,0.97c-2.266,0-4.208-0.317-5.821-0.97c1.615-1.29,3.638-1.94,6.063-1.94
		C419.555,46.55,421.57,47.2,423.192,48.49z M424.648-30.1c-1.94,0.651-4.048,0.97-6.307,0.97c-2.266,0-4.208-0.318-5.821-0.97
		c1.613-1.288,3.638-1.94,6.063-1.94C421.008-32.042,423.026-31.388,424.648-30.1z M524.584,95.548
		c-1.295-3.556-3.803-4.609-7.52-3.153c-3.723,1.456-7.037,3.396-9.946,5.821c-2.912,2.427-3.236,5.421-0.97,8.975L524.584,95.548z"
		/>
</g>
<g enable-background="new    ">
	<path fill="#F44D8D" d="M375.234,401.303v80.527h48.012v10.162h-60.078v-90.689H375.234z"/>
</g>
</svg>
