<svg version="1.1" xmlns="http://www.w3.org/2000/svg" xmlns:xlink="http://www.w3.org/1999/xlink" viewBox="0 0 768 975" enable-background="new 0 0 768 975" xml:space="preserve">
<g id="circle">
	<circle fill="#DDE5CE" cx="384.51" cy="731.426" r="125.426"/>
</g>
<g id="ll">
	<g>
		<path fill="#CB394D" d="M360.383,689.998v63.4h37.8v8h-47.3v-71.4H360.383z"/>
		<path fill="#EA5F72" d="M419.084,689.998v71.4h-8.5v-71.4H419.084z"/>
	</g>
</g>
<g id="l">
	<g>
		<path fill="none" stroke="#DDE5CE" stroke-width="5.4807" stroke-miterlimit="10" d="M647.136,314.824
			c-12.687,0-26.884-1.046-37.159,4.095c-2.582,1.281-1.252,19.06-1.252,25.387"/>
		<g>
			<path fill="none" stroke="#DDE5CE" stroke-width="5.4807" stroke-miterlimit="10" d="M414.193,554.903
				c8.363-23.05-2.482-51.104,15.421-70.227c18.772-20.057,40.563-34.902,63.01-51.8c23.109-17.414,41.431-39.344,65.685-56.521
				c16.396-11.607,29.287-26.281,50.416-32.051c14.633-3.99,31.717,1.503,42.086-9.141c3.244-3.311,2.795-12.398,0.232-17.534
				c-0.65-1.288-0.723-2.807-3.907-2.807c5.97-4.767-11.045-11.995-15.396-15.024c-19.949-13.981-46.118-9.475-63.559,1.374
				c-17.68,11.001-38.266,17.418-58.898,25.536c13.231-5.274,12.688-18.716,12.887-28.555c1.351-62.138-15.706-147.3-26.341-209.461
				c-2.927-17.094-19.837-44.844-33.491-13.952c-20.097,68.153,0.208,109.903-8.885,150.816c-0.246,1.168,1.951-3.005-11.118-6.854
				c-18.282-5.327-39.026-2.264-43.125,19.063c-1.054-11.644-12.772-16.044-22.805-14.299
				c-16.838,2.927-23.248,16.888-28.174,31.333c-23.672-22.437-52.938-3.04-58.348,20.536
				c-12.309,53.689-33.809,108.035-18.222,159.235c10.363,34.1-13.825,67.419-4.846,101.309c0-1.597,0-3.153,0-4.755"/>
			<path fill="none" stroke="#DDE5CE" stroke-width="5.4807" stroke-miterlimit="10" d="M352.396,407.53
				c2.496-19.708,22.751-23.831,35.975-29.539c33.551-14.438,64.664-41.542,106.445-44.529c6.675-0.477,5.992-1.096,14.467-6.754"/>
			<path fill="none" stroke="#DDE5CE" stroke-width="5.4807" stroke-miterlimit="10" d="M494.995,326.709
				c-9.402-3.49-15.361-17.229-26.122-16.633"/>
			<path fill="none" stroke="#DDE5CE" stroke-width="5.4807" stroke-miterlimit="10" d="M504.523,298.187
				c-23.797,6.638-43.556-9.961-60.613,11.889"/>
			<path fill="none" stroke="#DDE5CE" stroke-width="5.4807" stroke-miterlimit="10" d="M457.577,131.199
				c9.522-1.183,23.169,12.285,32.671,0.592"/>
			<path fill="none" stroke="#DDE5CE" stroke-width="5.4807" stroke-miterlimit="10" d="M453.453,225.557
				c3.172,7.949-0.358,31.693-1.497,39.123c-5.417,34.766-7.541,57.643-23.222,88.29c-4.919,9.647-23.811,19.824-32.505,11.78
				c-7.077-6.546-2.437-20.951,5.112-26.685c15.76-11.965,29.074,0.529,24.439,18.063"/>
			<path fill="none" stroke="#DDE5CE" stroke-width="5.4807" stroke-miterlimit="10" d="M399.95,234.702
				C384.966,280,410.043,345.961,379.325,376.191c-16.011,15.779-39.668-15.484-28.32-27.178
				c16.521-16.994,35.881-8.416,36.451,15.736"/>
			<path fill="none" stroke="#DDE5CE" stroke-width="5.4807" stroke-miterlimit="10" d="M348.231,254.801
				c-10.667,40.198-8.256,65.247,0.596,105.184"/>
			<path fill="none" stroke="#DDE5CE" stroke-width="5.4807" stroke-miterlimit="10" d="M295.339,264.901
				c13.714,31.932,5.358,65.376,25.135,92.021c4.986,6.725,23.639,8.419,26.572-4.658"/>
			<path fill="none" stroke="#DDE5CE" stroke-width="5.4807" stroke-miterlimit="10" d="M343.477,330.278
				c-24.625-4.774-21.665,10.744-21.99,24.95"/>
			<path fill="none" stroke="#DDE5CE" stroke-width="5.4807" stroke-miterlimit="10" d="M303.676,306.5
				c-1.781-9.511-9.727-10.025-8.337-17.825"/>
		</g>
	</g>
</g>
</svg>
