<svg version="1.1" xmlns="http://www.w3.org/2000/svg" viewBox="0 0 768 975" enable-background="new 0 0 768 975" xml:space="preserve"><circle fill="#DDE5CE" cx="384.5" cy="731.4" r="125.4"/><path fill="#CB394D" d="M360.4 690v63.4h37.8v8h-47.3v-71.4H360.4z"/><path fill="#EA5F72" d="M419.1 690v71.4h-8.5v-71.4H419.1z"/><path fill="none" stroke="#DDE5CE" stroke-width="5.5" stroke-miterlimit="10" d="M647.1 314.8c-12.7 0-26.9-1-37.2 4.1 -2.6 1.3-1.3 19.1-1.3 25.4"/><path fill="none" stroke="#DDE5CE" stroke-width="5.5" stroke-miterlimit="10" d="M414.2 554.9c8.4-23-2.5-51.1 15.4-70.2 18.8-20.1 40.6-34.9 63-51.8 23.1-17.4 41.4-39.3 65.7-56.5 16.4-11.6 29.3-26.3 50.4-32.1 14.6-4 31.7 1.5 42.1-9.1 3.2-3.3 2.8-12.4 0.2-17.5 -0.6-1.3-0.7-2.8-3.9-2.8 6-4.8-11-12-15.4-15 -19.9-14-46.1-9.5-63.6 1.4 -17.7 11-38.3 17.4-58.9 25.5 13.2-5.3 12.7-18.7 12.9-28.6 1.4-62.1-15.7-147.3-26.3-209.5 -2.9-17.1-19.8-44.8-33.5-14 -20.1 68.2 0.2 109.9-8.9 150.8 -0.2 1.2 2-3-11.1-6.9 -18.3-5.3-39-2.3-43.1 19.1 -1.1-11.6-12.8-16-22.8-14.3 -16.8 2.9-23.2 16.9-28.2 31.3 -23.7-22.4-52.9-3-58.3 20.5 -12.3 53.7-33.8 108-18.2 159.2 10.4 34.1-13.8 67.4-4.8 101.3 0-1.6 0-3.2 0-4.8"/><path fill="none" stroke="#DDE5CE" stroke-width="5.5" stroke-miterlimit="10" d="M352.4 407.5c2.5-19.7 22.8-23.8 36-29.5 33.6-14.4 64.7-41.5 106.4-44.5 6.7-0.5 6-1.1 14.5-6.8"/><path fill="none" stroke="#DDE5CE" stroke-width="5.5" stroke-miterlimit="10" d="M495 326.7c-9.4-3.5-15.4-17.2-26.1-16.6"/><path fill="none" stroke="#DDE5CE" stroke-width="5.5" stroke-miterlimit="10" d="M504.5 298.2c-23.8 6.6-43.6-10-60.6 11.9"/><path fill="none" stroke="#DDE5CE" stroke-width="5.5" stroke-miterlimit="10" d="M457.6 131.2c9.5-1.2 23.2 12.3 32.7 0.6"/><path fill="none" stroke="#DDE5CE" stroke-width="5.5" stroke-miterlimit="10" d="M453.5 225.6c3.2 7.9-0.4 31.7-1.5 39.1 -5.4 34.8-7.5 57.6-23.2 88.3 -4.9 9.6-23.8 19.8-32.5 11.8 -7.1-6.5-2.4-21 5.1-26.7 15.8-12 29.1 0.5 24.4 18.1"/><path fill="none" stroke="#DDE5CE" stroke-width="5.5" stroke-miterlimit="10" d="M400 234.7C385 280 410 346 379.3 376.2c-16 15.8-39.7-15.5-28.3-27.2 16.5-17 35.9-8.4 36.5 15.7"/><path fill="none" stroke="#DDE5CE" stroke-width="5.5" stroke-miterlimit="10" d="M348.2 254.8c-10.7 40.2-8.3 65.2 0.6 105.2"/><path fill="none" stroke="#DDE5CE" stroke-width="5.5" stroke-miterlimit="10" d="M295.3 264.9c13.7 31.9 5.4 65.4 25.1 92 5 6.7 23.6 8.4 26.6-4.7"/><path fill="none" stroke="#DDE5CE" stroke-width="5.5" stroke-miterlimit="10" d="M343.5 330.3c-24.6-4.8-21.7 10.7-22 25"/><path fill="none" stroke="#DDE5CE" stroke-width="5.5" stroke-miterlimit="10" d="M303.7 306.5c-1.8-9.5-9.7-10-8.3-17.8"/></svg>