<svg version="1.1" xmlns="http://www.w3.org/2000/svg" xmlns:xlink="http://www.w3.org/1999/xlink" viewBox="0 0 768 975" enable-background="new 0 0 768 975" xml:space="preserve">
<g id="circle">
	<circle fill="#DDE5CE" cx="384.51" cy="731.426" r="125.426"/>
</g>
<g id="mm">
	<g>
		<path fill="#CB394D" d="M316.784,689.998l22.5,60l22.6-60h13v71.4h-9v-59.4h-0.2l-22.3,59.4h-8.1l-22.3-59.4h-0.2v59.4h-9v-71.4
			H316.784z"/>
		<path fill="#EA5F72" d="M402.283,709.698v7.601h0.199c3.866-5.866,9.434-8.801,16.7-8.801c3.2,0,6.101,0.668,8.7,2
			c2.6,1.335,4.433,3.601,5.5,6.801c1.732-2.801,4.016-4.966,6.85-6.5c2.833-1.533,5.95-2.301,9.351-2.301
			c2.6,0,4.95,0.285,7.05,0.851c2.1,0.567,3.9,1.45,5.4,2.649c1.5,1.2,2.665,2.75,3.5,4.65c0.832,1.9,1.25,4.185,1.25,6.85v37.9
			h-8.5v-33.9c0-1.6-0.135-3.1-0.4-4.5c-0.268-1.399-0.768-2.615-1.5-3.649c-0.734-1.033-1.75-1.851-3.05-2.45s-2.984-0.9-5.05-0.9
			c-4.2,0-7.5,1.2-9.9,3.601c-2.4,2.399-3.6,5.6-3.6,9.6v32.2h-8.5v-33.9c0-1.665-0.15-3.199-0.45-4.6s-0.817-2.615-1.55-3.65
			c-0.734-1.032-1.718-1.832-2.95-2.399c-1.234-0.565-2.817-0.851-4.75-0.851c-2.468,0-4.585,0.5-6.351,1.5
			c-1.767,1-3.199,2.2-4.3,3.601c-1.1,1.399-1.899,2.85-2.399,4.35s-0.75,2.75-0.75,3.75v32.2h-8.5v-51.7H402.283z"/>
	</g>
</g>
<g id="m">
	<g>
		<path fill="none" stroke="#DDE5CE" stroke-width="5" stroke-miterlimit="10" d="M403.629,530.465
			c-4.303-27.145-15.811-97.284,35.695-124.256c29.994-15.717,52.836-112.833,57.111-122.822
			c5.727-4.289,12.853-9.996,12.853-15.723c6.669,2.43,50.978,14.25,52.851-21.417c11.428-8.564,23.676-23.663,8.577-44.273
			c0,0-61.63-74.64-92.847-78.545c-34.271-4.289-51.398,2.857-59.977,7.139c-49.985-5.71-57.139-4.282-69.978,19.995
			c-28.556-2.85-64.277-7.139-62.853,27.137c-21.417,4.283-37.11,4.283-35.692,29.988c1.425,25.706,0,34.27-4.295,38.559
			c-4.269,4.289-10.003,18.567-7.132,38.572c2.864,19.985,20.002,119.958,14.285,132.821c-5.727,12.839-11.421,32.844-10.002,49.986
			c1.438,17.128,7.146,44.272,7.146,65.69"/>
		<path fill="none" stroke="#DDE5CE" stroke-width="5" stroke-miterlimit="10" d="M275.073,443.345
			c12.853,9.989,32.858,24.28,77.117,11.427"/>
		<path fill="none" stroke="#DDE5CE" stroke-width="5" stroke-miterlimit="10" d="M363.632,354.79
			c5.7,17.142,11.427,49.986,9.976,77.127"/>
		<path fill="none" stroke="#DDE5CE" stroke-width="5" stroke-miterlimit="10" d="M289.365,300.522
			c10.002,11.427,34.282,18.566,48.548,10.002c17.142,21.417,59.988,55.693,82.844,58.55c22.842,2.857,21.43-11.427,15.703-25.706
			c-5.714-14.284-38.559-51.411-44.272-65.703c-5.715-14.278-62.84-37.12-92.82-37.12"/>
		<path fill="none" stroke="#DDE5CE" stroke-width="5" stroke-miterlimit="10" d="M319.359,317.663
			c-5.728,8.564-24.28,17.135-51.425,14.278"/>
		<path fill="none" stroke="#DDE5CE" stroke-width="5" stroke-miterlimit="10" d="M285.062,177.7
			c19.979-5.714,82.845-37.14,107.125-18.566c24.281,18.566,84.27,59.982,92.833,74.26c8.579,14.285,31.42,22.855,24.268,34.27"/>
		<path fill="none" stroke="#DDE5CE" stroke-width="5" stroke-miterlimit="10" d="M499.396,281.111
			c-8.564,4.282-28.653,3.707-38.642-4.871c-10.003-8.577-100-79.967-112.839-67.121c-12.866,12.86-2.851,35.702-1.425,39.99"/>
		<path fill="none" stroke="#DDE5CE" stroke-width="5" stroke-miterlimit="10" d="M396.722,285.982
			c12.853,4.275,32.6-5.453,35.449-9.742"/>
		<path fill="none" stroke="#DDE5CE" stroke-width="5" stroke-miterlimit="10" d="M371.422,213.903
			c7.111,7.146,7.912,20.922,7.912,26.644c7.139,1.412,29.994,1.438,35.709,0"/>
		<path fill="none" stroke="#DDE5CE" stroke-width="5" stroke-miterlimit="10" d="M341.477,224.83
			c-5.699,2.85-23.557,11.428-23.557,11.428c0-5.714-5.699-8.578-9.988-10.002"/>
		<path fill="none" stroke="#DDE5CE" stroke-width="5" stroke-miterlimit="10" d="M359.343,153.139
			c14.265,0,61.414-21.136,78.556-8.276c17.128,12.839,99.959,64.257,107.112,75.679c7.139,11.434,15.702,17.141,17.128,25.706"/>
		<path fill="none" stroke="#DDE5CE" stroke-width="5" stroke-miterlimit="10" d="M557.863,240.546c0,0-12.853,14.277-22.869,11.414
			c-9.989-2.851-22.829-18.567-11.415-28.556c11.415-10.002,21.432-1.425,24.269,2.851"/>
		<path fill="none" stroke="#DDE5CE" stroke-width="5" stroke-miterlimit="10" d="M503.848,252.34
			c-5.7,8.564-21.677,16.762-27.391,12.474c-5.715-4.275-24.886-21.122-7.139-29.988c8.551-4.282,15.7,0.008,21.415,5.721"/>
		<path fill="none" stroke="#DDE5CE" stroke-width="5" stroke-miterlimit="10" d="M537.857,213.536
			c2.863-10.003,14.642-25.027,29.994-5.848c5.715,7.146-8.415,20.095-14.143,24.37"/>
		<path fill="none" stroke="#DDE5CE" stroke-width="5" stroke-miterlimit="10" d="M429.321,341.93
			c-7.139,0-21.417,14.292-8.564,27.144"/>
	</g>
</g>
</svg>
