<svg version="1.1" xmlns="http://www.w3.org/2000/svg" viewBox="0 0 768 975" enable-background="new 0 0 768 975" xml:space="preserve"><circle fill="#DDE5CE" cx="384.5" cy="731.4" r="125.4"/><path fill="#CB394D" d="M316.8 690l22.5 60 22.6-60h13v71.4h-9v-59.4h-0.2l-22.3 59.4h-8.1l-22.3-59.4h-0.2v59.4h-9v-71.4H316.8z"/><path fill="#EA5F72" d="M402.3 709.7v7.6h0.2c3.9-5.9 9.4-8.8 16.7-8.8 3.2 0 6.1 0.7 8.7 2 2.6 1.3 4.4 3.6 5.5 6.8 1.7-2.8 4-5 6.9-6.5 2.8-1.5 6-2.3 9.4-2.3 2.6 0 5 0.3 7.1 0.9 2.1 0.6 3.9 1.5 5.4 2.6 1.5 1.2 2.7 2.8 3.5 4.7 0.8 1.9 1.3 4.2 1.3 6.9v37.9h-8.5v-33.9c0-1.6-0.1-3.1-0.4-4.5 -0.3-1.4-0.8-2.6-1.5-3.6 -0.7-1-1.7-1.9-3-2.4s-3-0.9-5-0.9c-4.2 0-7.5 1.2-9.9 3.6 -2.4 2.4-3.6 5.6-3.6 9.6v32.2h-8.5v-33.9c0-1.7-0.1-3.2-0.4-4.6s-0.8-2.6-1.5-3.6c-0.7-1-1.7-1.8-2.9-2.4 -1.2-0.6-2.8-0.9-4.7-0.9 -2.5 0-4.6 0.5-6.4 1.5 -1.8 1-3.2 2.2-4.3 3.6 -1.1 1.4-1.9 2.9-2.4 4.4s-0.7 2.8-0.7 3.8v32.2h-8.5v-51.7H402.3z"/><path fill="none" stroke="#DDE5CE" stroke-width="5" stroke-miterlimit="10" d="M403.6 530.5c-4.3-27.1-15.8-97.3 35.7-124.3 30-15.7 52.8-112.8 57.1-122.8 5.7-4.3 12.9-10 12.9-15.7 6.7 2.4 51 14.3 52.9-21.4 11.4-8.6 23.7-23.7 8.6-44.3 0 0-61.6-74.6-92.8-78.5 -34.3-4.3-51.4 2.9-60 7.1 -50-5.7-57.1-4.3-70 20 -28.6-2.8-64.3-7.1-62.9 27.1 -21.4 4.3-37.1 4.3-35.7 30 1.4 25.7 0 34.3-4.3 38.6 -4.3 4.3-10 18.6-7.1 38.6 2.9 20 20 120 14.3 132.8 -5.7 12.8-11.4 32.8-10 50 1.4 17.1 7.1 44.3 7.1 65.7"/><path fill="none" stroke="#DDE5CE" stroke-width="5" stroke-miterlimit="10" d="M275.1 443.3c12.9 10 32.9 24.3 77.1 11.4"/><path fill="none" stroke="#DDE5CE" stroke-width="5" stroke-miterlimit="10" d="M363.6 354.8c5.7 17.1 11.4 50 10 77.1"/><path fill="none" stroke="#DDE5CE" stroke-width="5" stroke-miterlimit="10" d="M289.4 300.5c10 11.4 34.3 18.6 48.5 10 17.1 21.4 60 55.7 82.8 58.6 22.8 2.9 21.4-11.4 15.7-25.7 -5.7-14.3-38.6-51.4-44.3-65.7 -5.7-14.3-62.8-37.1-92.8-37.1"/><path fill="none" stroke="#DDE5CE" stroke-width="5" stroke-miterlimit="10" d="M319.4 317.7c-5.7 8.6-24.3 17.1-51.4 14.3"/><path fill="none" stroke="#DDE5CE" stroke-width="5" stroke-miterlimit="10" d="M285.1 177.7c20-5.7 82.8-37.1 107.1-18.6 24.3 18.6 84.3 60 92.8 74.3 8.6 14.3 31.4 22.9 24.3 34.3"/><path fill="none" stroke="#DDE5CE" stroke-width="5" stroke-miterlimit="10" d="M499.4 281.1c-8.6 4.3-28.7 3.7-38.6-4.9 -10-8.6-100-80-112.8-67.1 -12.9 12.9-2.9 35.7-1.4 40"/><path fill="none" stroke="#DDE5CE" stroke-width="5" stroke-miterlimit="10" d="M396.7 286c12.9 4.3 32.6-5.5 35.4-9.7"/><path fill="none" stroke="#DDE5CE" stroke-width="5" stroke-miterlimit="10" d="M371.4 213.9c7.1 7.1 7.9 20.9 7.9 26.6 7.1 1.4 30 1.4 35.7 0"/><path fill="none" stroke="#DDE5CE" stroke-width="5" stroke-miterlimit="10" d="M341.5 224.8c-5.7 2.9-23.6 11.4-23.6 11.4 0-5.7-5.7-8.6-10-10"/><path fill="none" stroke="#DDE5CE" stroke-width="5" stroke-miterlimit="10" d="M359.3 153.1c14.3 0 61.4-21.1 78.6-8.3 17.1 12.8 100 64.3 107.1 75.7 7.1 11.4 15.7 17.1 17.1 25.7"/><path fill="none" stroke="#DDE5CE" stroke-width="5" stroke-miterlimit="10" d="M557.9 240.5c0 0-12.9 14.3-22.9 11.4 -10-2.9-22.8-18.6-11.4-28.6 11.4-10 21.4-1.4 24.3 2.9"/><path fill="none" stroke="#DDE5CE" stroke-width="5" stroke-miterlimit="10" d="M503.8 252.3c-5.7 8.6-21.7 16.8-27.4 12.5 -5.7-4.3-24.9-21.1-7.1-30 8.6-4.3 15.7 0 21.4 5.7"/><path fill="none" stroke="#DDE5CE" stroke-width="5" stroke-miterlimit="10" d="M537.9 213.5c2.9-10 14.6-25 30-5.8 5.7 7.1-8.4 20.1-14.1 24.4"/><path fill="none" stroke="#DDE5CE" stroke-width="5" stroke-miterlimit="10" d="M429.3 341.9c-7.1 0-21.4 14.3-8.6 27.1"/></svg>