<svg version="1.1" id="Layer_1" xmlns="http://www.w3.org/2000/svg" xmlns:xlink="http://www.w3.org/1999/xlink" viewBox="0 -275 768 980" enable-background="new 0 -275 768 980" xml:space="preserve">
<circle fill="#DDF2F2" cx="385.99" cy="460.942" r="97.563"/>
<polyline fill="none" points="244.222,304.859 244.222,-134.992 671.135,-134.992 671.135,304.859 "/>
<g enable-background="new    ">
	<path fill="#DDF2F2" d="M413.047,176.273l-5.82,121.282h-9.219l6.309-122.252c-18.438,2.267-30.002,3.396-34.689,3.396
		c-4.691,0-8.414-0.644-11.157-1.942c-2.753-1.29-5.095-3.228-7.036-5.821c-4.532,3.563-8.898,6.231-13.099,8.006
		c-4.208,1.782-9.3,2.592-15.281,2.426c-5.988-0.16-9.944-1.532-11.887-4.124c-2.592,4.208-5.822,7.202-9.702,8.977
		c-3.88,1.781-7.602,2.35-11.157,1.697c-3.562-0.644-6.475-2.184-8.732-4.609c-2.266-2.427-3.722-5.252-4.366-8.488
		c-2.266,3.236-5.502,5.094-9.702,5.578c-4.208,0.483-7.52-1.128-9.945-4.853c-2.427-3.714-3.48-7.838-3.154-12.372
		c0.318-4.525,4.04-12.932,11.158-25.226l14.554-22.316c-1.94-5.493-2.912-9.943-2.912-13.34c0-3.396,1.616-7.194,4.853-11.399
		c3.229-4.2,13.258-9.051,30.078-14.555c7.436-10.346,16.569-18.836,27.409-25.468c10.832-6.624,20.534-10.104,29.108-10.43
		c8.565-0.318,15.766,1.782,21.588,6.306c1.613-1.616,4.525-2.912,8.732-3.88c4.199-0.97,9.375-0.562,15.523,1.212
		c6.141,1.782,18.92,8.17,38.326,19.162c20.375,10.998,36.057,22.966,47.055,35.898c10.992,12.939,18.111,39.947,21.348,81.018
		c2.26,22.314,2.586,61.443,0.969,117.4h-7.762c0.645-21.027,0.971-47.141,0.971-78.348c0-31.208-3.723-62.014-11.16-92.418
		c-4.209-19.078-20.299-36.704-48.271-52.878c-27.977-16.168-45.283-24.172-51.908-24.014c-6.633,0.168-12.697,2.752-18.193,7.762
		c-5.501,5.02-5.662,3.48-0.486-4.607c-4.531-3.23-9.459-4.929-14.795-5.095c-5.336-0.16-10.916,3.479-16.738,10.914
		c-7.762,10.356-7.762,8.088,0-6.792c-8.413,3.236-16.819,8.975-25.226,17.223c-8.414,8.245-16.82,17.707-25.226,28.378l6.306,2.911
		l-7.762-0.97l7.275,4.853l-9.702-1.458l5.336,5.338l-7.275-3.88c-5.502,7.443-10.43,14.31-14.796,20.617
		c-4.366,6.309-8.656,12.698-12.856,19.162c6.141-0.644,11.477,1.137,16.008,5.336c7.11-14.552,16.98-30.319,29.593-47.298
		c12.613-16.979,22.149-27.41,28.624-31.292c-3.238,6.792-9.385,15.524-18.435,26.198l8.732,5.336l-10.672-3.396l11.644,8.731
		l-13.584-4.852l7.278,6.792l-9.219-3.881c-10.672,14.879-18.92,27.492-24.741,37.841c2.584,0,4.852,0.483,6.792,1.456
		c3.228,1.296,2.584,7.93-1.94,19.89c-1.622,4.208-5.822,5.988-12.614,5.336l-3.882-0.484c0.318,4.534,2.1,7.603,5.336,9.217
		c3.23,1.624,6.382,1.697,9.46,0.241c3.07-1.455,5.738-3.796,8.004-7.033c-1.296-1.616-1.865-4.687-1.697-9.219
		c0.159-4.525,1.613-9.05,4.365-13.584c2.744-4.525,12.614-17.138,29.593-37.84c16.979-20.693,27.894-32.904,32.746-36.626
		c4.852-3.712,4.607-1.212-0.729,7.521c-5.336,8.731-11.4,16.819-18.192,24.258l9.219,12.126l-12.614-8.732l7.275,9.218
		l-9.701-4.852c-7.763,9.059-15.524,18.434-23.286,28.136c3.228-0.317,6.382-0.241,9.46,0.242c3.07,0.486,3.638,2.51,1.698,6.064
		c-3.236,8.731-5.822,13.909-7.763,15.523c-1.939,1.624-6.958,1.942-15.04,0.97c0.645,7.763,6.792,10.356,18.437,7.763
		c14.228-5.494,26.514-13.9,36.87-25.227c13.901-15.197,26.597-27.894,38.083-38.082c11.477-10.188,14.387-11.476,8.732-3.88
		c-5.664,7.604-13.666,16.736-24.014,27.41c8.73-0.97,15.842-2.1,21.346-3.396c3.23-3.88,6.307-6.952,9.217-9.217
		c7.111-5.17,6.625-2.426-1.455,8.246l13.584-3.394l8.732-4.368l9.703-7.278l-1.941,5.822c-3.236,11.643-24.908,19.246-65.006,22.8
		c-5.822,5.822-14.394,13.584-25.712,23.288c1.94,2.91,5.17,4.608,9.704,5.094c4.526,0.484,12.204-0.159,23.042-1.941
		c10.832-1.774,21.832-1.774,32.99,0c11.158,1.782,19.725,2.107,25.713,0.97c5.979-1.128,14.627-5.979,25.953-14.554
		c11.318-8.564,13.66-8.975,7.035-1.212c-6.633,7.762-13.51,13.668-20.619,17.708c-7.117,4.048-14.068,6.063-20.859,6.063
		C429.543,178.21,420.158,177.567,413.047,176.273z M284.976,151.044c-4.534-4.2-9.704-5.981-15.524-5.338
		c-3.562,5.178-6.474,10.515-8.731,16.01l17.464,4.368C279.472,161.882,281.738,156.867,284.976,151.044z M277.698,167.052
		c-6.792-0.968-12.454-2.258-16.979-3.88c0,5.822,2.1,9.059,6.306,9.704C271.224,173.529,274.788,171.586,277.698,167.052z
		 M294.678,145.223l-11.158,23.285c6.466,0.971,10.506,0.895,12.128-0.241c1.614-1.128,2.584-2.5,2.91-4.124l3.396-10.672
		C303.896,147.975,301.47,145.223,294.678,145.223z M286.43,109.323c2.584-4.2,5.336-8.246,8.247-12.126
		c2.912-3.88,6.307-7.596,10.188-11.158c-6.792,2.592-12.294,5.42-16.494,8.49C284.164,97.605,283.52,102.533,286.43,109.323z
		 M322.33,144.252c-6.474,7.762-10.027,14.395-10.672,19.891l8.248,0.483c4.2,0,6.792-1.288,7.762-3.88l5.336-12.126
		C335.262,144.42,331.706,142.962,322.33,144.252z M365.992,117.571c-1.296-1.29-2.994-2.986-5.094-5.094
		c-2.106-2.101-4.124-4.284-6.064-6.549C360.003,107.548,363.726,111.43,365.992,117.571z M395.1,162.689
		c-2.912-2.261-5.502-4.368-7.762-6.307c-1.625-1.29-2.592-3.88-2.913-7.762c2.258,2.91,4.04,5.336,5.336,7.276
		C390.734,156.867,392.506,159.132,395.1,162.689z M387.338,147.165c1.939,1.94,3.715,4.206,5.336,6.792
		c2.258,2.267,4.365,5.019,6.307,8.246c-1.297-4.524-2.352-7.518-3.154-8.974C395.016,151.773,392.188,149.756,387.338,147.165z
		 M436.82,200.042c-2.91-2.26-5.336-4.202-7.277-5.821c-1.939-1.616-3.236-4.043-3.881-7.278c2.584,2.268,4.441,4.124,5.58,5.58
		C432.369,193.979,434.229,196.487,436.82,200.042z M452.344,183.063c-3.562,0-8.574,0.483-15.039,1.456
		c3.553,0.97,6.707,1.212,9.459,0.728C449.51,184.76,451.373,184.035,452.344,183.063z M442.643,135.035
		c1.941,1.94,3.471,4.366,4.609,7.278c1.127,2.91,3.473,8.246,7.033,16.008c-0.969-5.494-2.266-10.264-3.879-14.311
		C448.781,139.968,446.197,136.975,442.643,135.035z"/>
</g>
<g enable-background="new    ">
	<path fill="#F44D8D" d="M356.706,411.299l28.58,76.207l28.707-76.207h16.512v90.689h-11.43v-75.447h-0.254l-28.326,75.447h-10.289
		l-28.324-75.447h-0.254v75.447h-11.432v-90.689H356.706z"/>
</g>
</svg>
