<svg version="1.1" xmlns="http://www.w3.org/2000/svg" xmlns:xlink="http://www.w3.org/1999/xlink" viewBox="0 0 768 975" enable-background="new 0 0 768 975" xml:space="preserve">
<g id="circle">
	<circle fill="#DDE5CE" cx="384.51" cy="731.426" r="125.426"/>
</g>
<g id="nn">
	<g>
		<path fill="#CB394D" d="M335.883,689.998l37.6,57.9h0.2v-57.9h9v71.4h-10.4l-37.3-57.3h-0.2v57.3h-9v-71.4H335.883z"/>
		<path fill="#EA5F72" d="M409.683,709.698v8.2h0.199c3.533-6.266,9.133-9.4,16.801-9.4c3.399,0,6.232,0.468,8.5,1.4
			c2.266,0.935,4.1,2.234,5.5,3.9c1.399,1.667,2.383,3.649,2.949,5.949c0.566,2.301,0.851,4.851,0.851,7.65v34h-8.5v-35
			c0-3.2-0.935-5.732-2.8-7.6c-1.867-1.866-4.435-2.801-7.7-2.801c-2.601,0-4.851,0.4-6.75,1.2c-1.9,0.8-3.484,1.935-4.75,3.4
			c-1.268,1.467-2.218,3.185-2.851,5.149c-0.634,1.968-0.949,4.117-0.949,6.45v29.2h-8.5v-51.7H409.683z"/>
	</g>
</g>
<g id="n">
	<g>
		<path fill="none" stroke="#DDE5CE" stroke-width="5" stroke-miterlimit="10" d="M337.036,351.309
			c20.309,8.458,40.616-3.376,55.844-11.85c-13.412,26.973,16.293,92.639,14.589,133.255"/>
		<path fill="none" stroke="#DDE5CE" stroke-width="5" stroke-miterlimit="10" d="M475.799,298.859
			c-16.947,23.692-48.531,24.234-82.919,40.6"/>
		<path fill="none" stroke="#DDE5CE" stroke-width="5" stroke-miterlimit="10" d="M194.899,428.371
			c32.157-0.924,19.256,31.808,18.922,50.952"/>
		<path fill="none" stroke="#DDE5CE" stroke-width="5" stroke-miterlimit="10" d="M594.22,390.22
			c-5.687-15.617-5.606-44.454-12.9-64.3c-11.039-30.103-50.459-84.082-60.828-131.044c-8.776-39.675-46.621-61.265-81.565-64.021
			c-6.419-0.509-27.428-4.579-44.343-2.875c-25.324,2.524-49.073,18.596-71.084,28.757c-21.98,10.154-32.143,47.369-35.52,64.292
			c-3.376,16.923-11.292,44.446-16.103,63.432c-12.662,49.932-27.22,150.456-22.06,173.073c4.715,17.998,22.968,13.889,27.635,7.533
			c19.336-26.376,44.295-63.316,35.454-86.323c15.339-5.885,38.37-66.092,32.604-73.116c15.211,1.688,42.289-33.846,47.37-49.073
			c16.931-11.834,37.222-15.227,49.057-20.308"/>
		<path fill="none" stroke="#DDE5CE" stroke-width="5" stroke-miterlimit="10" d="M272.737,464.67
			c1.8-18.285,15.242-55.83-20.291-57.526"/>
		<path fill="none" stroke="#DDE5CE" stroke-width="5" stroke-miterlimit="10" d="M370.884,133.054
			c-30.453,0-91.361-5.073-101.508,6.761c-10.161,11.842-54.726,90.189-55.3,123.765c-9.142,37.542-17.107,80.992-17.394,124.092
			c-0.079,12.694-4.587,34.185-3.313,50.797c1.196,15.642-5.033,40.552,6.625,43.132c49.185,10.815,32.397-88.147,55.827-121.834"/>
		<path fill="none" stroke="#DDE5CE" stroke-width="5" stroke-miterlimit="10" d="M392.88,251.475
			c10.145-3.376,16.931-10.146,16.931-20.292"/>
		<path fill="none" stroke="#DDE5CE" stroke-width="5" stroke-miterlimit="10" d="M259.215,141.511
			c-20.292-3.385-32.158,6.761-40.6,23.684c-8.474,16.916-30.453,76.134-30.453,86.28c0,10.162,5.081,62.612,10.145,74.462"/>
		<path fill="none" stroke="#DDE5CE" stroke-width="5" stroke-miterlimit="10" d="M218.615,165.195
			c-11.85,1.697-27.077,10.154-30.453,23.684c-3.393,13.539-15.227,57.531-11.851,72.757c3.393,15.227,11.851,64.3,20.292,74.446"/>
		<path fill="none" stroke="#DDE5CE" stroke-width="5" stroke-miterlimit="10" d="M199.995,481.601
			c49.185,10.815,32.397-88.147,55.827-121.834"/>
		<path fill="none" stroke="#DDE5CE" stroke-width="5" stroke-miterlimit="10" d="M199.995,481.601
			c49.185,10.815,32.397-88.147,55.827-121.834"/>
	</g>
</g>
</svg>
