<svg version="1.1" xmlns="http://www.w3.org/2000/svg" viewBox="0 0 768 975" enable-background="new 0 0 768 975" xml:space="preserve"><circle fill="#DDE5CE" cx="384.5" cy="731.4" r="125.4"/><path fill="#CB394D" d="M335.9 690l37.6 57.9h0.2v-57.9h9v71.4h-10.4l-37.3-57.3h-0.2v57.3h-9v-71.4H335.9z"/><path fill="#EA5F72" d="M409.7 709.7v8.2h0.2c3.5-6.3 9.1-9.4 16.8-9.4 3.4 0 6.2 0.5 8.5 1.4 2.3 0.9 4.1 2.2 5.5 3.9 1.4 1.7 2.4 3.6 2.9 5.9 0.6 2.3 0.9 4.9 0.9 7.7v34h-8.5v-35c0-3.2-0.9-5.7-2.8-7.6 -1.9-1.9-4.4-2.8-7.7-2.8 -2.6 0-4.9 0.4-6.7 1.2 -1.9 0.8-3.5 1.9-4.7 3.4 -1.3 1.5-2.2 3.2-2.9 5.1 -0.6 2-0.9 4.1-0.9 6.5v29.2h-8.5v-51.7H409.7z"/><path fill="none" stroke="#DDE5CE" stroke-width="5" stroke-miterlimit="10" d="M337 351.3c20.3 8.5 40.6-3.4 55.8-11.8 -13.4 27 16.3 92.6 14.6 133.3"/><path fill="none" stroke="#DDE5CE" stroke-width="5" stroke-miterlimit="10" d="M475.8 298.9c-16.9 23.7-48.5 24.2-82.9 40.6"/><path fill="none" stroke="#DDE5CE" stroke-width="5" stroke-miterlimit="10" d="M194.9 428.4c32.2-0.9 19.3 31.8 18.9 51"/><path fill="none" stroke="#DDE5CE" stroke-width="5" stroke-miterlimit="10" d="M594.2 390.2c-5.7-15.6-5.6-44.5-12.9-64.3 -11-30.1-50.5-84.1-60.8-131 -8.8-39.7-46.6-61.3-81.6-64 -6.4-0.5-27.4-4.6-44.3-2.9 -25.3 2.5-49.1 18.6-71.1 28.8 -22 10.2-32.1 47.4-35.5 64.3 -3.4 16.9-11.3 44.4-16.1 63.4 -12.7 49.9-27.2 150.5-22.1 173.1 4.7 18 23 13.9 27.6 7.5 19.3-26.4 44.3-63.3 35.5-86.3 15.3-5.9 38.4-66.1 32.6-73.1 15.2 1.7 42.3-33.8 47.4-49.1 16.9-11.8 37.2-15.2 49.1-20.3"/><path fill="none" stroke="#DDE5CE" stroke-width="5" stroke-miterlimit="10" d="M272.7 464.7c1.8-18.3 15.2-55.8-20.3-57.5"/><path fill="none" stroke="#DDE5CE" stroke-width="5" stroke-miterlimit="10" d="M370.9 133.1c-30.5 0-91.4-5.1-101.5 6.8 -10.2 11.8-54.7 90.2-55.3 123.8 -9.1 37.5-17.1 81-17.4 124.1 -0.1 12.7-4.6 34.2-3.3 50.8 1.2 15.6-5 40.6 6.6 43.1 49.2 10.8 32.4-88.1 55.8-121.8"/><path fill="none" stroke="#DDE5CE" stroke-width="5" stroke-miterlimit="10" d="M392.9 251.5c10.1-3.4 16.9-10.1 16.9-20.3"/><path fill="none" stroke="#DDE5CE" stroke-width="5" stroke-miterlimit="10" d="M259.2 141.5c-20.3-3.4-32.2 6.8-40.6 23.7 -8.5 16.9-30.5 76.1-30.5 86.3 0 10.2 5.1 62.6 10.1 74.5"/><path fill="none" stroke="#DDE5CE" stroke-width="5" stroke-miterlimit="10" d="M218.6 165.2c-11.8 1.7-27.1 10.2-30.5 23.7 -3.4 13.5-15.2 57.5-11.9 72.8 3.4 15.2 11.9 64.3 20.3 74.4"/><path fill="none" stroke="#DDE5CE" stroke-width="5" stroke-miterlimit="10" d="M200 481.6c49.2 10.8 32.4-88.1 55.8-121.8"/><path fill="none" stroke="#DDE5CE" stroke-width="5" stroke-miterlimit="10" d="M200 481.6c49.2 10.8 32.4-88.1 55.8-121.8"/></svg>