<svg version="1.1" id="Layer_1" xmlns="http://www.w3.org/2000/svg" xmlns:xlink="http://www.w3.org/1999/xlink" viewBox="0 -275 768 980" enable-background="new 0 -275 768 980" xml:space="preserve">
<circle fill="#DDF2F2" cx="390.99" cy="460.061" r="97.564"/>
<polyline fill="none" points="249.222,303.977 249.222,-135.874 676.135,-135.874 676.135,303.977 "/>
<g enable-background="new    ">
	<path fill="#DDF2F2" d="M351.585,178.3c1.94,2.91,14.068,5.019,36.385,6.307c19.078,1.623,34.928,1.623,47.541,0
		c12.613-1.616,23.604-6.141,32.99-13.584c13.256-12.614,18.752-15.358,16.494-8.246c-2.266,7.117-8.656,14.151-19.164,21.102
		c-10.514,6.958-33.717,9.788-69.617,8.49c0.318,37.188-3.236,71.959-10.672,104.303h-8.731
		c6.466-26.525,10.346-61.293,11.641-104.303c-25.877-1.614-40.265-4.853-43.175-9.704c-12.294,6.474-22.968,7.604-32.019,3.396
		c-12.294,6.148-22.481,6.549-30.563,1.213c-8.088-5.336-11-12.372-8.732-21.104c2.259-8.731,5.822-16.008,10.672-21.83
		c-4.85-3.88-8.897-8.322-12.128-13.342c-3.235-5.01-3.722-10.832-1.456-17.464c2.259-6.624,8.164-16.979,17.708-31.046
		c9.536-14.068,18.353-18.353,26.44-12.856c5.822-7.438,10.346-12.206,13.584-14.312c3.229-2.101,6.868-3.229,10.916-3.395
		c4.04-0.16,7.352,0.893,9.946,3.152c5.168-6.464,12.529-10.022,22.073-10.672c9.536-0.645,17.541,2.91,24.015,10.672
		c2.258-2.26,5.822-3.554,10.672-3.88c4.852-0.318,9.459,0.242,13.826,1.697c4.365,1.456,23.203,13.994,56.518,37.599
		c16.812,11.968,27.166,28.708,31.047,50.21c3.881,21.512,5.98,73.498,6.307,155.969h-8.732c0-39.137-0.727-75.113-2.182-107.944
		c-1.455-32.821-4.533-54.25-9.219-64.279c-4.691-10.022-11.725-18.679-21.102-25.954c-9.383-7.278-21.27-15.926-35.658-25.956
		c-14.393-10.022-24.982-14.145-31.775-12.372c-6.791,1.782-12.053,4.61-15.766,8.49c-3.723,3.88-4.607,3.319-2.668-1.7
		c1.939-5.01,1.045-9.048-2.668-12.126c-3.722-3.07-8.974-3.958-15.766-2.668c-6.792,1.294-12.128,4.534-16.011,9.702
		c-9.058,11-10.997,10.514-5.821-1.456c-8.088-5.494-19.648,2.836-34.687,24.983c-15.04,22.156-19.813,35.824-14.312,40.994
		c3.88-5.822,13.258-17.464,28.138-34.93c14.872-17.464,13.416-12.614-4.366,14.554c14.229,6.146,13.744,7.118-1.456,2.91
		l10.188,6.792l-12.128-4.852l8.731,9.218l-11.158-6.307c-7.117,9.383-15.85,21.513-26.197,36.385
		c8.406,1.294,12.529,3.478,12.372,6.548c-0.166,3.078-1.139,5.904-2.912,8.49c-1.782,2.592-3.964,5.502-6.548,8.731
		c-2.592,3.236-5.179,5.502-7.763,6.792c2.584,2.592,6.383,3.804,11.4,3.638c5.01-0.159,8.976-1.212,11.886-3.153
		c-7.443-6.139-4.531-16.326,8.732-30.562c13.258-14.228,25.06-28.38,35.416-42.45c10.346-14.067,17.624-22.632,21.83-25.71
		c4.2-3.069,3.714-0.804-1.456,6.792c-5.178,7.604-9.059,13.183-11.645,16.738l9.704,7.762l-11.644-4.852l12.614,11.158
		l-15.04-7.278l8.731,8.732l-11.158-4.853c-2.912,4.853-11.325,15.206-25.228,31.048c5.17,3.236,8.164,6.064,8.976,8.488
		c0.805,2.426-0.326,5.664-3.396,9.704c-3.078,4.048-6.064,6.632-8.975,7.762c-2.911,1.136-7.762-0.399-14.554-4.607
		c-1.622,4.208-0.326,7.52,3.88,9.945c4.2,2.425,9.946,2.668,17.223,0.727c7.275-1.94,18.107-9.132,32.502-21.588
		c14.388-12.448,29.912-25.872,46.572-40.267c16.654-14.386,22.232-17.708,16.738-9.945c-5.502,7.762-11.484,14.72-17.951,20.861
		c6.793-0.97,12.691-2.018,17.709-3.153c5.01-1.128,7.678-2.503,8.004-4.124c6.791-10.675,8.406-10.022,4.852,1.939
		c5.822-1.288,12.205-2.182,19.162-2.668c6.953-0.484,4.684,1.136-6.791,4.853c-11.484,3.722-27.25,6.876-47.301,9.46
		C390.881,146.449,372.932,160.834,351.585,178.3z M289.003,139.004l4.853-6.792c-5.178-5.82-5.822-13.742-1.94-23.771
		c3.88-10.021,10.188-20.86,18.92-32.502c-3.88-2.586-8.088-0.805-12.613,5.336c-4.534,6.146-8.332,11.565-11.4,16.252
		c-3.078,4.691-5.988,10.188-8.732,16.494c-2.752,6.306-2.023,11.726,2.183,16.252L289.003,139.004z M282.211,178.3l1.456,1.456
		c3.88-2.91,6.708-5.578,8.49-8.004c1.774-2.426,4.284-6.224,7.521-11.399c2.258-4.853-1.456-7.763-11.158-8.732
		C280.432,162.291,278.332,171.191,282.211,178.3z M311.322,167.626c3.229,1.942,6.222,3.396,8.974,4.368
		c2.744,0.97,5.654,0.166,8.732-2.426c3.07-2.584,5.412-5.822,7.034-9.704c1.939-2.258-0.971-5.82-8.732-10.672
		C321.826,154.044,316.49,160.191,311.322,167.626z M384.574,172.478v-3.394c-0.652-7.438-0.486-12.288,0.486-14.554l1.455,8.731
		C386.516,166.825,385.863,169.894,384.574,172.478z M389.912,173.449c-0.652-4.2-1.139-7.437-1.457-9.704
		c-0.326-2.258,0.318-5.82,1.941-10.672c1.289,7.762,1.615,13.098,0.969,16.01C390.713,171.995,390.23,173.449,389.912,173.449z
		 M407.861,209.833c2.912-0.644,6.467,0,10.672,1.942c4.201,1.939,6.793,3.72,7.762,5.336c-4.207-0.318-7.686-1.129-10.43-2.427
		C413.113,213.396,410.445,211.775,407.861,209.833z M413.682,202.556c10.021,0.652,19.725,3.562,29.107,8.732
		C430.822,209.674,421.117,206.762,413.682,202.556z M415.623,194.31c10.992,0.969,17.951,1.782,20.861,2.427
		c2.91,0.649,6.951,1.939,12.127,3.88c1.291,0-0.568-0.16-5.58-0.486C438.016,199.812,428.879,197.873,415.623,194.31z
		 M445.215,164.233c-1.621-3.555-2.668-7.194-3.152-10.916c-0.486-3.714-0.57-7.521-0.244-11.4c1.615,2.91,2.668,5.178,3.154,6.792
		c0.484,1.624,0.803,3.882,0.969,6.792C446.104,158.411,445.859,161.321,445.215,164.233z"/>
</g>
<g enable-background="new    ">
	<path fill="#F44D8D" d="M368.226,413.945l47.758,73.541h0.254v-73.541h11.432v90.689h-13.209l-47.375-72.779h-0.254v72.779H355.4
		v-90.689H368.226z"/>
</g>
</svg>
