<svg version="1.1" id="Layer_1" xmlns="http://www.w3.org/2000/svg" xmlns:xlink="http://www.w3.org/1999/xlink" viewBox="0 -275 768 980" enable-background="new 0 -275 768 980" xml:space="preserve">
<circle fill="#DDF2F2" cx="391.99" cy="460.061" r="97.564"/>
<polyline fill="none" points="250.222,303.977 250.222,-135.874 677.135,-135.874 677.135,303.977 "/>
<g enable-background="new    ">
	<path fill="#DDF2F2" d="M362.774,81.758c-2.592,4.534-4.853,8.574-6.792,12.128c-1.94,3.562-4.853,4.208-8.732,1.94
		c-6.147-2.584-9.626-5.578-10.43-8.974c-0.812-3.395,1.372-7.194,6.548-11.4c-5.502-1.29-9.542,0.652-12.128,5.822
		c-2.912,7.117-1.456,15.04,4.366,23.771c5.822,8.732,12.204,18.116,19.162,28.136c6.952,10.03,10.75,20.862,11.399,32.505
		c0.318,21.672-0.409,25.793-2.182,12.371c-1.782-13.418-4.45-23.203-8.004-29.352c-8.414,9.384-12.614,17.708-12.614,24.984
		c0,7.277-1.622,13.342-4.852,18.193c-1.296-10.992-1.137-20.05,0.485-27.168c1.614-7.109,6.141-14.386,13.584-21.83l-4.365-6.306
		c-14.555,9.384-19.891,12.21-16.011,8.49c3.882-3.714,8.732-7.196,14.555-10.433c-1.94-2.584-7.519-10.989-16.736-25.226
		c-9.218-14.226-9.786-25.872-1.698-34.93c-5.502,0.325-9.384-1.128-11.642-4.366c-3.238,6.146-7.036,9.458-11.4,9.945
		c-4.366,0.484-7.846,0.326-10.43-0.485c-2.592-0.802-4.534-2.5-5.822-5.094c-1.296,28.792-1.54,51.991-0.728,69.617
		c0.802,17.631,3.472,32.988,8.004,46.087c4.525,13.1,9.777,25.151,15.766,36.141c5.982,10.992,10.348,22.559,13.098,34.688
		c2.744,12.127,4.608,24.016,5.58,35.656h-8.731c-1.94-27.168-8.816-51.832-20.618-73.98c-11.81-22.149-18.676-46.086-20.618-71.799
		c-1.939-25.71-1.456-55.546,1.456-89.506c-1.939,2.91-5.42,4.292-10.43,4.124c-5.019-0.157-8.816-2.258-11.4-6.306
		c-2.592-4.04-3.479-9.778-2.668-17.22c0.804-7.438,4.366-14.389,10.672-20.862c6.307-6.464,17.54-10.188,33.717-11.158
		c4.85-5.822,9.701-9.05,14.554-9.702c4.85-0.644,8.647-0.075,11.399,1.698c2.744,1.782,4.282,2.668,4.608,2.668
		c7.436-7.762,14.712-11.644,21.832-11.644c7.11,0,12.044,0.97,14.796,2.912c2.744,1.939,5.58,4.852,8.49,8.731
		c5.822-2.912,13.014-5.01,21.588-6.306c8.566-1.29,16.412,1.054,23.529,7.036c7.109,5.987,12.371,29.592,15.766,70.828
		c3.396,41.235,4.443,73.981,3.154,98.237c-1.295,24.256-3.238,44.312-5.822,60.158c-0.652,10.988,1.775,31.691,7.279,62.094h-8.248
		c-5.178-32.344-7.445-52.475-6.793-60.396c0.645-7.928,2.258-21.347,4.852-40.267c2.584-18.92,2.828-47.132,0.729-84.653
		c-2.107-37.515-5.018-65.25-8.732-83.2c-3.721-17.952-13.34-25.302-28.865-22.074c-11.324,2.91-20.3,7.118-26.924,12.614
		c-6.632,5.504-12.052,13.424-16.25,23.771c4.851,0,8.732,0.652,11.643,1.942c2.912,0.65,3.714,4.208,2.426,10.672
		c-1.296,6.472-3.807,9.704-7.521,9.704c-3.722,0-7.846-0.486-12.372-1.456c-0.651,3.88,1.372,6.63,6.064,8.246
		c4.684,1.624,9.05,1.782,13.098,0.486c4.04-1.29,8.322-6.467,12.856-15.526c4.526-9.05,9.05-16.652,13.583-22.8
		c4.527-6.141,3.229-0.802-3.879,16.01c14.227,0.326,18.836,1.212,13.826,2.668c-5.02,1.456-9.947,2.024-14.797,1.698l-4.366,8.248
		c6.465,3.562,14.711,5.819,24.743,6.792c10.021,0.97,6.623,1.456-10.189,1.456c-8.088-0.645-13.584-2.101-16.494-4.366
		c-4.208,7.118-7.928,10.998-11.158,11.642c4.853,3.562,13.416,11.324,25.712,23.288c4.852-3.229,10.104-5.821,15.766-7.764
		c5.656-1.94,1.047,1.296-13.826,9.704c6.793,8.731,10.506,15.124,11.158,19.162c0.645,4.048-2.023,2.426-8.004-4.851
		c-5.988-7.277-11.811-13.502-17.463-18.678C378.213,93.571,371.18,87.909,362.774,81.758z M272.54,35.672
		c0.645-3.88,2.668-5.981,6.064-6.306c3.396-0.318,6.382,0,8.974,0.968c2.584-6.138,5.496-10.506,8.732-13.098
		c-16.82,0.97-27.008,8.248-30.562,21.83c-2.912,11-1.456,17.306,4.366,18.92c7.762,0.651,11.96-1.456,12.614-6.307
		c-3.238,0-5.906-0.073-8.004-0.241c-2.108-0.158-3.32-1.532-3.639-4.124L272.54,35.672z M287.093,31.792
		c-7.762-2.26-12.128-1.13-13.098,3.395c-2.592,10.674-2.266,15.525,0.97,14.554l8.248,0.483L287.093,31.792z M307.954,42.464
		l-1.456,16.494c-0.651,2.268-2.105,3.48-4.366,3.638c-2.266,0.166-4.208,0.084-5.821-0.241c-1.622-0.318-3.88-0.805-6.792-1.456
		c-0.326,8.088,4.042,12.126,13.098,12.126c2.584,0.325,4.853-0.645,6.792-2.91c1.94-2.26,2.584-9.376,1.94-21.347
		c-0.652-9.376,0.97-16.896,4.852-22.558c3.88-5.654,7.762-11.234,11.642-16.736c-4.85-3.88-9.3-4.443-13.34-1.699
		c-4.048,2.752-8.414,7.119-13.098,13.1c-4.692,5.988-7.686,11.4-8.974,16.252C302.134,35.512,307.302,37.294,307.954,42.464z
		 M306.498,44.89c0-3.554-1.136-5.58-3.396-6.063c-2.267-0.484-5.988-0.402-11.158,0.242c-0.97,6.474-1.782,13.1-2.426,19.89
		c4.525,1.296,8.082,2.024,10.672,2.184c2.584,0.166,4.2-0.886,4.852-3.153L306.498,44.89z M341.428,131.728
		c-2.912,2.593-14.395,8.732-34.444,18.437C313.45,144.667,324.934,138.519,341.428,131.728z M371.022,8.021
		c-3.236-6.141-8.574-8.893-16.008-8.248c-7.444,0.651-15.692,6.792-24.742,18.436c-9.059,11.642-13.099,20.86-12.128,27.652
		c11.317-1.29,16.812,0.968,16.494,6.792l0.97,15.04c2.584-0.318,4.2-0.971,4.85-1.94c0.97-16.17,4.853-29.026,11.645-38.568
		C358.894,17.649,365.2,11.256,371.022,8.021z M334.152,68.174l-0.97-15.523c0-2.91-1.456-4.61-4.366-5.095
		c-2.91-0.483-6.475-0.401-10.672,0.242c0.317,6.148,0.804,11.484,1.456,16.01c0.644,2.267,2.668,3.805,6.063,4.61
		C329.058,69.23,331.886,69.146,334.152,68.174z M354.042,238.941c-8.088,4.199-16.819,6.465-26.198,6.793
		c5.171-1.625,9.295-2.914,12.372-3.883C343.286,240.883,347.894,239.914,354.042,238.941z M361.32,80.789
		c-7.118-2.584-12.294-4.366-15.524-5.336c-1.296,0.97-3.396,3.078-6.306,6.306c-2.912,3.236-1.54,6.792,4.124,10.674
		c5.656,3.88,9.134,4.208,10.43,0.969C355.656,91.789,358.082,87.583,361.32,80.789z M359.377,252.041
		c-2.911-1.623-5.987-2.594-9.218-2.912c-3.238-0.326-6.474-0.326-9.704,0c2.584,0.645,5.496,1.289,8.732,1.941
		C352.419,251.715,355.816,252.041,359.377,252.041z M363.744,60.415c1.942-2.91,2.744-6.624,2.426-11.158
		c0.318-3.228-4.365-4.85-14.067-4.85c-1.94,4.85-3.562,10.514-4.853,16.978C357.921,63.976,363.417,63.651,363.744,60.415z
		 M383.634,250.582c-2.267,1.291-5.261,1.777-8.975,1.459c-3.722-0.326-6.55-0.812-8.49-1.459c1.29-0.967,3.958-1.455,8.004-1.455
		C378.213,249.129,381.368,249.615,383.634,250.582z M383.15,103.59c-3.88,2.267-6.391,3.962-7.521,5.094
		c-1.136,1.137-2.668,2.994-4.607,5.578c2.912-2.258,5.58-4.366,8.004-6.306C381.452,106.016,382.824,104.56,383.15,103.59z
		 M384.605,106.5c-4.208,1.94-7.604,4.534-10.188,7.762c3.883-1.616,6.141-2.743,6.792-3.396
		C381.854,110.222,382.984,108.766,384.605,106.5z M401.1,78.365c-8.732,1.294-14.395-0.805-16.98-6.307
		C389.613,75.621,395.277,77.72,401.1,78.365z"/>
</g>
<g enable-background="new    ">
	<path fill="#F44D8D" d="M350.646,441.445c1.819-5.717,4.55-10.775,8.191-15.18c3.641-4.4,8.17-7.916,13.591-10.543
		c5.418-2.623,11.726-3.938,18.923-3.938c7.195,0,13.506,1.312,18.926,3.938c5.418,2.625,9.949,6.141,13.59,10.543
		c3.641,4.404,6.371,9.461,8.193,15.18c1.82,5.713,2.729,11.664,2.729,17.846s-0.912,12.129-2.729,17.846
		c-1.822,5.715-4.553,10.775-8.193,15.178c-3.641,4.404-8.172,7.896-13.59,10.479c-5.42,2.582-11.729,3.877-18.926,3.877
		c-7.198,0-13.505-1.293-18.923-3.877c-5.421-2.582-9.952-6.074-13.591-10.479c-3.642-4.402-6.374-9.461-8.191-15.178
		c-1.822-5.715-2.732-11.664-2.732-17.846S348.822,447.16,350.646,441.445z M361.757,472.818c1.187,4.447,3.049,8.447,5.589,12.002
		c2.54,3.557,5.798,6.414,9.779,8.574c3.98,2.158,8.72,3.238,14.226,3.238c5.504,0,10.246-1.08,14.227-3.238
		c3.98-2.16,7.24-5.018,9.779-8.574c2.543-3.555,4.402-7.555,5.588-12.002s1.779-8.955,1.779-13.527
		c0-4.574-0.594-9.082-1.779-13.527c-1.186-4.447-3.047-8.449-5.588-12.004c-2.539-3.557-5.799-6.414-9.779-8.572
		c-3.98-2.16-8.723-3.24-14.227-3.24s-10.246,1.08-14.226,3.24c-3.981,2.158-7.239,5.016-9.779,8.572
		c-2.54,3.555-4.404,7.557-5.589,12.004c-1.186,4.445-1.777,8.953-1.777,13.527C359.98,463.863,360.572,468.371,361.757,472.818z"/>
</g>
</svg>
