<svg version="1.1" xmlns="http://www.w3.org/2000/svg" xmlns:xlink="http://www.w3.org/1999/xlink" viewBox="0 0 768 975" enable-background="new 0 0 768 975" xml:space="preserve">
<g id="circle">
	<circle fill="#DDE5CE" cx="384.51" cy="731.426" r="125.426"/>
</g>
<g id="oo">
	<g>
		<path fill="#CB394D" d="M321.234,711.648c1.433-4.5,3.583-8.482,6.45-11.95c2.866-3.466,6.433-6.232,10.7-8.3
			c4.266-2.065,9.233-3.1,14.9-3.1c5.666,0,10.633,1.034,14.9,3.1c4.266,2.067,7.833,4.834,10.7,8.3
			c2.866,3.468,5.016,7.45,6.45,11.95c1.432,4.5,2.15,9.185,2.15,14.05c0,4.867-0.719,9.55-2.15,14.05
			c-1.435,4.5-3.584,8.484-6.45,11.95c-2.867,3.468-6.435,6.218-10.7,8.25c-4.267,2.033-9.234,3.05-14.9,3.05
			c-5.667,0-10.634-1.017-14.9-3.05c-4.267-2.032-7.834-4.782-10.7-8.25c-2.867-3.466-5.017-7.45-6.45-11.95
			c-1.435-4.5-2.15-9.183-2.15-14.05C319.083,720.833,319.799,716.148,321.234,711.648z M329.984,736.349
			c0.933,3.5,2.4,6.649,4.4,9.45c2,2.8,4.565,5.05,7.7,6.75c3.133,1.699,6.866,2.55,11.2,2.55c4.333,0,8.065-0.851,11.2-2.55
			c3.133-1.7,5.7-3.95,7.7-6.75c2-2.801,3.466-5.95,4.4-9.45c0.933-3.5,1.4-7.05,1.4-10.65c0-3.6-0.467-7.149-1.4-10.649
			c-0.934-3.5-2.4-6.65-4.4-9.45s-4.567-5.05-7.7-6.75c-3.135-1.7-6.867-2.55-11.2-2.55c-4.334,0-8.067,0.85-11.2,2.55
			c-3.134,1.7-5.7,3.95-7.7,6.75s-3.467,5.95-4.4,9.45c-0.935,3.5-1.4,7.05-1.4,10.649
			C328.583,729.299,329.049,732.849,329.984,736.349z"/>
		<path fill="#EA5F72" d="M401.483,724.948c1.065-3.3,2.665-6.165,4.8-8.6c2.133-2.433,4.766-4.351,7.9-5.75
			c3.133-1.4,6.732-2.101,10.8-2.101c4.133,0,7.75,0.7,10.85,2.101c3.101,1.399,5.716,3.317,7.851,5.75
			c2.133,2.435,3.732,5.3,4.8,8.6c1.065,3.3,1.6,6.851,1.6,10.65s-0.534,7.334-1.6,10.6c-1.067,3.268-2.667,6.117-4.8,8.55
			c-2.135,2.435-4.75,4.335-7.851,5.7c-3.1,1.366-6.717,2.05-10.85,2.05c-4.067,0-7.667-0.684-10.8-2.05
			c-3.135-1.365-5.768-3.266-7.9-5.7c-2.135-2.433-3.734-5.282-4.8-8.55c-1.067-3.266-1.601-6.8-1.601-10.6
			S400.416,728.248,401.483,724.948z M410.133,743.948c0.833,2.435,1.983,4.468,3.45,6.101c1.466,1.634,3.183,2.884,5.15,3.75
			c1.966,0.867,4.05,1.3,6.25,1.3s4.282-0.433,6.25-1.3c1.966-0.866,3.683-2.116,5.149-3.75c1.466-1.633,2.616-3.666,3.45-6.101
			c0.833-2.433,1.25-5.216,1.25-8.35c0-3.133-0.417-5.916-1.25-8.351c-0.834-2.433-1.984-4.482-3.45-6.149
			c-1.467-1.666-3.184-2.933-5.149-3.8c-1.968-0.866-4.05-1.301-6.25-1.301s-4.284,0.435-6.25,1.301
			c-1.968,0.867-3.685,2.134-5.15,3.8c-1.467,1.667-2.617,3.717-3.45,6.149c-0.834,2.435-1.25,5.218-1.25,8.351
			C408.883,738.732,409.299,741.516,410.133,743.948z"/>
	</g>
</g>
<g id="o">
	<g>
		<path fill="none" stroke="#DDE5CE" stroke-width="5" stroke-miterlimit="10" d="M417.202,538.51
			c1.223-24.031,4.82-108.163,34.859-135.815c30.051-27.632,40.856-68.499,46.875-79.315c6.008-10.805,50.484-87.73,32.449-110.562
			c-18.024-22.844-20.434-43.266-18.024-51.684c2.41-8.429-7.219-16.836-7.219-16.836s-8.405-10.802-19.223-18.029
			c-10.815-7.212-30.061-7.212-33.659-10.813c-3.598-3.609-39.656-24.031-52.872-4.809c-13.215-1.193-37.269-8.418-45.675,15.622
			c-14.426,7.227-26.452,13.221-36.059,32.449c-9.617,19.241-28.84,49.279-33.66,57.691c-4.796,8.418-16.824,22.838-6.019,50.479
			c10.839,27.652,12.039,44.476,12.039,55.293c0,10.816,2.399,46.869,8.407,61.301c6.019,14.417,7.219,44.467,1.21,62.491
			c-6.02,18.035-14.426,78.115-14.426,92.539"/>
		<path fill="none" stroke="#DDE5CE" stroke-width="5" stroke-miterlimit="10" d="M419.013,185.764
			c4.209-1.793,8.406-2.41,10.216-4.808c6.008,0.588,17.425,1.805,22.232-1.8c3.609,7.208,18.036,15.015,24.044,12.022
			c-1.211,6.613-3.609,26.441,0.6,30.645c-6.607,3.004-11.417,16.825-11.417,22.232c-3.609,0.6-16.835,2.41-17.423,4.214
			c-4.221-5.414-19.846-14.42-40.279-20.439c4.221-3.615,10.217-9.017,6.619-38.457L419.013,185.764z"/>
		<path fill="none" stroke="#DDE5CE" stroke-width="5" stroke-miterlimit="10" d="M331.871,437.553
			c16.834,8.418,45.675,12.027,62.499-7.207"/>
		<path fill="none" stroke="#DDE5CE" stroke-width="5" stroke-miterlimit="10" d="M388.362,271.695
			c-2.41,21.645-2.41,63.7,36.047,118.995"/>
		<path fill="none" stroke="#DDE5CE" stroke-width="5" stroke-miterlimit="10" d="M412.405,229.629
			c9.912,5.536,52.564,20.67,79.312,69.718"/>
		<path fill="none" stroke="#DDE5CE" stroke-width="5" stroke-miterlimit="10" d="M475.505,191.178
			c0,13.226-9.018,38.452,33.049,60.09"/>
		<path fill="none" stroke="#DDE5CE" stroke-width="5" stroke-miterlimit="10" d="M478.009,222.977
			c-9.605,9.623-19.929,33.105,1.705,40.312"/>
		<path fill="none" stroke="#DDE5CE" stroke-width="5" stroke-miterlimit="10" d="M452.062,246.159
			c5.997-2.398,14.872-0.992,14.872-0.992"/>
		<path fill="none" stroke="#DDE5CE" stroke-width="5" stroke-miterlimit="10" d="M328.262,252.461
			c12.026-8.407,34.858-25.231,31.249-40.856c18.035-13.215,24.044-20.428,32.461-21.633c8.417-1.2,42.225-8.61,37.257-38.462
			c-1.21-7.213-4.819-13.229-13.215-8.413c-8.429,4.82-42.076,16.824-56.503,21.633c-14.413,4.819-45.664,18.029-61.289,70.917"/>
		<path fill="none" stroke="#DDE5CE" stroke-width="5" stroke-miterlimit="10" d="M399.179,152.704
			c3.609,4.82,19.246,7.218,19.246,2.421c0-4.82-2.411-12.027-2.411-12.027"/>
		<path fill="none" stroke="#DDE5CE" stroke-width="5" stroke-miterlimit="10" d="M351.833,128.894
			c18.035-1.197,90.611-2.626,94.22,10.595c9.605,1.21,27.64,7.218,26.441,14.425c-1.211,7.219-15.026,32.264-48.676,20.242"/>
		<path fill="none" stroke="#DDE5CE" stroke-width="5" stroke-miterlimit="10" d="M361.921,226.025
			c1.199,18.029,9.617,54.083-32.449,67.314"/>
		<path fill="none" stroke="#DDE5CE" stroke-width="5" stroke-miterlimit="10" d="M400.389,110.646
			c13.815,5.408,62.614,9.535,88.331,38.46c4.819,5.408,18.023,15.625,1.21,33.055c-16.835,17.429-34.847-0.587-39.067-4.79"/>
		<path fill="none" stroke="#DDE5CE" stroke-width="5" stroke-miterlimit="10" d="M479.714,143.098
			c-6.021,4.204-6.619,13.826-1.211,19.24c5.419,5.397,17.424,8.412,19.234,4.191"/>
		<path fill="none" stroke="#DDE5CE" stroke-width="5" stroke-miterlimit="10" d="M507.343,146.108
			c-5.396-2.41-15.025,0-16.214,3.598"/>
		<path fill="none" stroke="#DDE5CE" stroke-width="5" stroke-miterlimit="10" d="M446.054,139.489
			c-2.398,2.393-4.21,12.021,1.211,15.636c5.396,3.592,18.023,15.805,22.832,4.994"/>
	</g>
</g>
</svg>
