<svg version="1.1" xmlns="http://www.w3.org/2000/svg" viewBox="0 0 768 975" enable-background="new 0 0 768 975" xml:space="preserve"><circle fill="#DDE5CE" cx="384.5" cy="731.4" r="125.4"/><path fill="#CB394D" d="M321.2 711.6c1.4-4.5 3.6-8.5 6.5-11.9 2.9-3.5 6.4-6.2 10.7-8.3 4.3-2.1 9.2-3.1 14.9-3.1 5.7 0 10.6 1 14.9 3.1 4.3 2.1 7.8 4.8 10.7 8.3 2.9 3.5 5 7.5 6.5 12 1.4 4.5 2.2 9.2 2.2 14.1 0 4.9-0.7 9.6-2.1 14.1 -1.4 4.5-3.6 8.5-6.4 12 -2.9 3.5-6.4 6.2-10.7 8.3 -4.3 2-9.2 3.1-14.9 3.1 -5.7 0-10.6-1-14.9-3 -4.3-2-7.8-4.8-10.7-8.2 -2.9-3.5-5-7.4-6.4-11.9 -1.4-4.5-2.1-9.2-2.1-14C319.1 720.8 319.8 716.1 321.2 711.6zM330 736.3c0.9 3.5 2.4 6.6 4.4 9.5 2 2.8 4.6 5.1 7.7 6.8 3.1 1.7 6.9 2.6 11.2 2.6 4.3 0 8.1-0.9 11.2-2.5 3.1-1.7 5.7-3.9 7.7-6.7 2-2.8 3.5-5.9 4.4-9.4 0.9-3.5 1.4-7 1.4-10.6 0-3.6-0.5-7.1-1.4-10.6 -0.9-3.5-2.4-6.6-4.4-9.4s-4.6-5-7.7-6.7c-3.1-1.7-6.9-2.5-11.2-2.5 -4.3 0-8.1 0.9-11.2 2.6 -3.1 1.7-5.7 4-7.7 6.8s-3.5 6-4.4 9.5c-0.9 3.5-1.4 7.1-1.4 10.6C328.6 729.3 329 732.8 330 736.3z"/><path fill="#EA5F72" d="M401.5 724.9c1.1-3.3 2.7-6.2 4.8-8.6 2.1-2.4 4.8-4.4 7.9-5.7 3.1-1.4 6.7-2.1 10.8-2.1 4.1 0 7.8 0.7 10.9 2.1 3.1 1.4 5.7 3.3 7.9 5.8 2.1 2.4 3.7 5.3 4.8 8.6 1.1 3.3 1.6 6.9 1.6 10.7s-0.5 7.3-1.6 10.6c-1.1 3.3-2.7 6.1-4.8 8.6 -2.1 2.4-4.7 4.3-7.9 5.7 -3.1 1.4-6.7 2.1-10.8 2.1 -4.1 0-7.7-0.7-10.8-2 -3.1-1.4-5.8-3.3-7.9-5.7 -2.1-2.4-3.7-5.3-4.8-8.5 -1.1-3.3-1.6-6.8-1.6-10.6S400.4 728.2 401.5 724.9zM410.1 743.9c0.8 2.4 2 4.5 3.5 6.1 1.5 1.6 3.2 2.9 5.2 3.8 2 0.9 4.1 1.3 6.3 1.3s4.3-0.4 6.3-1.3c2-0.9 3.7-2.1 5.1-3.7 1.5-1.6 2.6-3.7 3.5-6.1 0.8-2.4 1.3-5.2 1.3-8.3 0-3.1-0.4-5.9-1.2-8.4 -0.8-2.4-2-4.5-3.4-6.1 -1.5-1.7-3.2-2.9-5.1-3.8 -2-0.9-4-1.3-6.2-1.3s-4.3 0.4-6.2 1.3c-2 0.9-3.7 2.1-5.1 3.8 -1.5 1.7-2.6 3.7-3.4 6.1 -0.8 2.4-1.2 5.2-1.2 8.4C408.9 738.7 409.3 741.5 410.1 743.9z"/><path fill="none" stroke="#DDE5CE" stroke-width="5" stroke-miterlimit="10" d="M417.2 538.5c1.2-24 4.8-108.2 34.9-135.8 30.1-27.6 40.9-68.5 46.9-79.3 6-10.8 50.5-87.7 32.4-110.6 -18-22.8-20.4-43.3-18-51.7 2.4-8.4-7.2-16.8-7.2-16.8s-8.4-10.8-19.2-18c-10.8-7.2-30.1-7.2-33.7-10.8 -3.6-3.6-39.7-24-52.9-4.8 -13.2-1.2-37.3-8.4-45.7 15.6 -14.4 7.2-26.5 13.2-36.1 32.4 -9.6 19.2-28.8 49.3-33.7 57.7 -4.8 8.4-16.8 22.8-6 50.5 10.8 27.7 12 44.5 12 55.3 0 10.8 2.4 46.9 8.4 61.3 6 14.4 7.2 44.5 1.2 62.5 -6 18-14.4 78.1-14.4 92.5"/><path fill="none" stroke="#DDE5CE" stroke-width="5" stroke-miterlimit="10" d="M419 185.8c4.2-1.8 8.4-2.4 10.2-4.8 6 0.6 17.4 1.8 22.2-1.8 3.6 7.2 18 15 24 12 -1.2 6.6-3.6 26.4 0.6 30.6 -6.6 3-11.4 16.8-11.4 22.2 -3.6 0.6-16.8 2.4-17.4 4.2 -4.2-5.4-19.8-14.4-40.3-20.4 4.2-3.6 10.2-9 6.6-38.5L419 185.8z"/><path fill="none" stroke="#DDE5CE" stroke-width="5" stroke-miterlimit="10" d="M331.9 437.6c16.8 8.4 45.7 12 62.5-7.2"/><path fill="none" stroke="#DDE5CE" stroke-width="5" stroke-miterlimit="10" d="M388.4 271.7c-2.4 21.6-2.4 63.7 36 119"/><path fill="none" stroke="#DDE5CE" stroke-width="5" stroke-miterlimit="10" d="M412.4 229.6c9.9 5.5 52.6 20.7 79.3 69.7"/><path fill="none" stroke="#DDE5CE" stroke-width="5" stroke-miterlimit="10" d="M475.5 191.2c0 13.2-9 38.5 33 60.1"/><path fill="none" stroke="#DDE5CE" stroke-width="5" stroke-miterlimit="10" d="M478 223c-9.6 9.6-19.9 33.1 1.7 40.3"/><path fill="none" stroke="#DDE5CE" stroke-width="5" stroke-miterlimit="10" d="M452.1 246.2c6-2.4 14.9-1 14.9-1"/><path fill="none" stroke="#DDE5CE" stroke-width="5" stroke-miterlimit="10" d="M328.3 252.5c12-8.4 34.9-25.2 31.2-40.9 18-13.2 24-20.4 32.5-21.6 8.4-1.2 42.2-8.6 37.3-38.5 -1.2-7.2-4.8-13.2-13.2-8.4 -8.4 4.8-42.1 16.8-56.5 21.6 -14.4 4.8-45.7 18-61.3 70.9"/><path fill="none" stroke="#DDE5CE" stroke-width="5" stroke-miterlimit="10" d="M399.2 152.7c3.6 4.8 19.2 7.2 19.2 2.4 0-4.8-2.4-12-2.4-12"/><path fill="none" stroke="#DDE5CE" stroke-width="5" stroke-miterlimit="10" d="M351.8 128.9c18-1.2 90.6-2.6 94.2 10.6 9.6 1.2 27.6 7.2 26.4 14.4 -1.2 7.2-15 32.3-48.7 20.2"/><path fill="none" stroke="#DDE5CE" stroke-width="5" stroke-miterlimit="10" d="M361.9 226c1.2 18 9.6 54.1-32.4 67.3"/><path fill="none" stroke="#DDE5CE" stroke-width="5" stroke-miterlimit="10" d="M400.4 110.6c13.8 5.4 62.6 9.5 88.3 38.5 4.8 5.4 18 15.6 1.2 33.1 -16.8 17.4-34.8-0.6-39.1-4.8"/><path fill="none" stroke="#DDE5CE" stroke-width="5" stroke-miterlimit="10" d="M479.7 143.1c-6 4.2-6.6 13.8-1.2 19.2 5.4 5.4 17.4 8.4 19.2 4.2"/><path fill="none" stroke="#DDE5CE" stroke-width="5" stroke-miterlimit="10" d="M507.3 146.1c-5.4-2.4-15 0-16.2 3.6"/><path fill="none" stroke="#DDE5CE" stroke-width="5" stroke-miterlimit="10" d="M446.1 139.5c-2.4 2.4-4.2 12 1.2 15.6 5.4 3.6 18 15.8 22.8 5"/></svg>