<svg version="1.1" id="Layer_1" xmlns="http://www.w3.org/2000/svg" xmlns:xlink="http://www.w3.org/1999/xlink" viewBox="0 -275 768 980" enable-background="new 0 -275 768 980" xml:space="preserve">
<circle fill="#DDF2F2" cx="385.61" cy="460.061" r="97.564"/>
<polyline fill="none" points="243.844,303.977 243.844,-135.874 670.755,-135.874 670.755,303.977 "/>
<g enable-background="new    ">
	<path fill="#DDF2F2" d="M379.196,95.342c-4.852,4.853-10.027,11.158-15.523,18.92c-5.504,7.763-10.188,14.88-14.07,21.347
		c2.584,1.622,5.496,2.752,8.734,3.396c-0.328-4.2,0-7.762,0.967-10.672c0.645-3.882,7.111-5.17,19.406-3.882
		c2.91,0.326,3.713,4.048,2.426,11.158l8.73-1.94l2.426-11.644l1.943,12.613l3.881-15.523v16.979l3.877-12.613l-0.482,13.098
		c8.404,6.472,17.463,11.324,27.168,14.554c9.703,3.236,19.963,4.208,30.803,2.91c10.832-1.288,19.891-1.698,27.168-1.212
		c7.279,0.486,3.879,2.426-10.188,5.822c-14.07,3.396-25.795,4.531-35.172,3.396c-9.387-1.128-16.094-2.426-20.133-3.88
		c-4.049-1.456-7.52-3.312-10.43-5.58l-3.398,144.083h-7.762l4.369-148.45c-3.883-3.554-8.246-5.412-13.1-5.58
		c-4.852-0.159-10.031,0.41-15.523,1.698c-5.504,1.296-10.113,1.94-13.828,1.94c-3.721,0-8.977-1.614-15.766-4.853
		c-8.088,13.584-17.306,23.286-27.651,29.108c-10.354,5.822-19.086,6.147-26.198,0.97c-5.822,1.94-10.838,2.426-15.04,1.456
		c-9.058-2.258-12.78-8.89-11.158-19.89c-6.792-0.97-10.271-5.98-10.43-15.04c-0.166-9.05,5.58-23.772,17.222-44.146
		c9.702-16.168,17.465-27.569,23.286-34.202c5.822-6.624,10.347-10.02,13.584-10.188c3.23-0.16,6.466,1.054,9.704,3.638
		c8.08-10.992,16.008-19.563,23.771-25.712C315.96,1.878,299.95-13.971,294.78-20.12c-6.148-7.762-9.46-14.554-9.946-20.376
		c-0.485-5.822,0.886-10.672,4.124-14.554c3.229-3.88,7.353-5.738,12.37-5.58c5.01,0.166,18.996,7.202,41.964,21.104
		c25.229,15.206,68.889,46.414,130.986,93.631c27.812,24.256,41.877,45.602,42.207,64.035l0.484,41.236
		c0.645,21.346,2.34,44.07,5.094,68.161c2.742,24.09,5.738,47.135,8.973,69.131h-6.789c-2.271-12.941-5.182-34.203-8.734-63.793
		c-3.562-29.594-5.504-51.342-5.82-65.25l-0.969-44.632c0.316-18.435-12.127-38.811-37.355-61.126
		c-42.691-34.604-91.207-69.208-145.54-103.818c-16.176-10.672-26.196-13.985-30.078-9.945c-3.882,4.048-4.691,9.142-2.426,15.281
		c2.258,6.148,13.742,19.086,34.444,38.811l28.623,28.138c10.348,9.058,18.027,14.636,23.043,16.736
		c5.012,2.107,10.508,5.178,16.496,9.218c5.98,4.048-1.539,2.35-22.559-5.094c-7.762-3.23-16.496-9.704-26.198-19.406
		c-8.414,8.414-15.607,16.334-21.588,23.771c-5.987,7.444-10.596,13.91-13.826,19.406l4.853,5.336l-6.307-3.396l6.793,6.792
		l-8.248-4.366l5.821,5.822l-6.792-3.396l-13.098,24.256l-15.04,29.593c1.94,0.325,4.526,0.651,7.762,0.97
		c3.23,0.326,4.685,2.266,4.366,5.822c6.466-16.494,14.07-31.853,22.802-46.087c11.316-20.05,20.618-32.745,27.895-38.084
		c7.278-5.336,4.607,0.729-8.004,18.192c6.14,4.534,10.43,8.248,12.855,11.158c2.427,2.91,1.774,3.078-1.939,0.483
		c-3.723-2.584-8.004-5.495-12.856-8.731c-8.414,13.584-14.478,24.096-18.191,31.534c-3.723,7.443-7.687,15.04-11.887,22.8
		c8.082,2.912,11.477,5.822,10.188,8.731c-2.592,11-5.746,16.494-9.46,16.494c-3.723,0-7.034-0.485-9.944-1.456
		c0,3.562,0.728,6.148,2.182,7.763c1.456,1.622,3.473,2.426,6.064,2.426c5.822,0.97,12.614-1.94,20.376-8.732
		c6.792-6.14,15.842-18.434,27.166-36.869c7.438-11.961,15.041-22.148,22.799-30.562c8.082-10.022,13.828-15.842,17.223-17.464
		c3.395-1.614,1.211,3.562-6.551,15.523l14.07,2.427c4.201-3.23,9.219-6.792,15.041-10.672c-1.943,3.88-5.664,7.762-11.156,11.642
		c13.582,3.238,23.771,4.852,30.562,4.852l4.852-3.88c9.051-9.05,12.855-12.204,11.398-9.46c-1.455,2.75-2.992,5.094-4.611,7.034
		c-1.621,1.94-4.045,4.208-7.277,6.792c4.201,0.97,10.348,1.212,18.438,0.728c8.078-0.485,8.246,0.486,0.484,2.91
		c-7.762,2.426-15.039,3.32-21.832,2.668c-6.789-0.644-13.098-1.456-18.918-2.426c-5.824-0.97-11.812-2.342-17.949-4.124
		C389.544,96.239,384.048,95.342,379.196,95.342z M271.984,138.035c-1.94,1.296-3.722,1.782-5.336,1.456
		c-1.622-0.318-3.396-0.804-5.336-1.456c-0.326,5.502,1.613,8.414,5.821,8.731c0.971-1.939,1.698-3.472,2.183-4.609
		C269.8,141.029,270.687,139.657,271.984,138.035z M266.16,121.541c-1.94,4.532-3.396,9.542-4.366,15.04
		c5.496,2.592,9.134,2.106,10.916-1.456c1.774-3.554,2.584-6.382,2.426-8.49C274.97,124.535,271.984,122.836,266.16,121.541z
		 M315.158,58.472c-3.88-5.496-10.998-0.317-21.346,15.524l4.852,5.336l-6.306-2.912l4.852,6.306l-7.277-4.852
		c-7.444,11.326-15.206,25.395-23.286,42.206c2.258,0.652,4.441,1.456,6.55,2.426c2.1,0.97,3.154,2.592,3.154,4.853
		c8.079-16.168,15.926-30.965,23.527-44.391C307.475,69.556,312.568,61.384,315.158,58.472z M288.479,166.657
		c-0.971-1.288-1.54-3.07-1.698-5.336c-0.166-2.259-0.084-4.2,0.244-5.822c-2.267,1.94-4.935,2.834-8.004,2.668
		c-3.078-0.16-5.746-0.56-8.004-1.212C270.687,165.042,276.508,168.281,288.479,166.657z M279.26,137.065
		c-5.176,8.413-7.928,14.554-8.247,18.436c3.88,0.97,7.352,1.378,10.43,1.212c3.07-0.16,5.412-2.342,7.034-6.55
		c1.29-1.94,2.1-4.282,2.426-7.034c0.317-2.744-0.812-4.441-3.396-5.094L279.26,137.065z M310.792,144.34
		c1.942-3.554-0.97-6.624-8.731-9.218c-3.883,5.822-6.792,12.78-8.732,20.86c7.437,1.624,11.718,1.624,12.856,0
		C307.314,154.371,308.853,150.489,310.792,144.34z M347.179,92.917c-2.593-0.318-4.776-0.97-6.549-1.94
		c-1.781-0.97-3.638-2.743-5.58-5.336C337.96,86.611,342,89.037,347.179,92.917z M352.513-6.047
		c-1.938,1.296-3.805,2.834-5.578,4.607c-1.782,1.782-3.48,3.639-5.095,5.58c1.94-1.287,3.555-2.5,4.853-3.638
		C347.982-0.627,349.922-2.811,352.513-6.047z M379.681,136.094c1.289-6.466,0.805-10.021-1.453-10.672
		c-6.793-0.317-11.727-0.076-14.797,0.729c-3.078,0.812-4.293,5.094-3.641,12.855C366.583,139.004,373.208,138.035,379.681,136.094z
		 M376.286,11.901c-3.238,2.911-5.578,4.934-7.035,6.063c-1.455,1.136-3.48,3.48-6.062,7.034c3.227-2.584,5.496-4.366,6.789-5.336
		C371.267,18.693,373.376,16.109,376.286,11.901z M382.106,13.84c-2.266,1.942-4.367,3.882-6.305,5.822
		c-1.941,1.94-3.562,4.048-4.852,6.306C376.446,21.771,380.165,17.722,382.106,13.84z M439.837,169.569
		c-4.209-2.259-8.086-3.88-11.641-4.853c-5.504-2.584-10.676-4.525-15.527-5.822c5.496,3.562,10.105,6.232,13.828,8.005
		C430.212,168.68,434.661,169.569,439.837,169.569z"/>
</g>
<g enable-background="new    ">
	<path fill="#F44D8D" d="M396.958,413.945c9.145,0,16.066,2.352,20.766,7.049c4.699,4.699,7.051,11.285,7.051,19.75
		c0,8.469-2.352,15.074-7.051,19.814c-4.699,4.744-11.621,7.072-20.766,6.986h-27.688v37.088H357.2v-90.688H396.958z
		 M392.892,457.385c6.859,0.086,11.879-1.311,15.055-4.191c3.176-2.877,4.762-7.029,4.762-12.449c0-5.418-1.586-9.545-4.762-12.381
		s-8.195-4.256-15.055-4.256h-23.621v33.277H392.892z"/>
</g>
</svg>
