<svg version="1.1" xmlns="http://www.w3.org/2000/svg" viewBox="0 0 768 975" enable-background="new 0 0 768 975" xml:space="preserve"><circle fill="#DDE5CE" cx="384.5" cy="731.4" r="125.4"/><path fill="#CB394D" d="M359 690c7.2 0 12.7 1.9 16.4 5.6 3.7 3.7 5.6 8.9 5.6 15.6 0 6.7-1.8 11.9-5.5 15.6 -3.7 3.7-9.1 5.6-16.3 5.5h-21.8v29.2h-9.5v-71.4H359zM355.8 724.2c5.4 0.1 9.4-1 11.9-3.3 2.5-2.3 3.8-5.5 3.8-9.8 0-4.3-1.2-7.5-3.7-9.7 -2.5-2.2-6.4-3.4-11.8-3.4h-18.6v26.2H355.8z"/><path fill="#EA5F72" d="M404.9 709.7v7h0.2c1.4-2.9 3.6-4.9 6.6-6.2s6.3-1.9 9.9-1.9c4 0 7.5 0.7 10.4 2.2 3 1.5 5.4 3.5 7.4 6 2 2.5 3.5 5.4 4.5 8.7 1 3.3 1.5 6.7 1.5 10.4 0 3.7-0.5 7.1-1.4 10.4 -1 3.3-2.4 6.1-4.4 8.6 -2 2.4-4.4 4.4-7.4 5.8 -3 1.4-6.4 2.1-10.4 2.1 -1.3 0-2.7-0.1-4.2-0.4 -1.6-0.3-3.1-0.7-4.6-1.3 -1.5-0.6-3-1.4-4.4-2.4 -1.4-1-2.5-2.3-3.4-3.9h-0.2v26.6h-8.5v-71.4H404.9zM435.5 728c-0.6-2.3-1.6-4.4-2.9-6.1 -1.3-1.8-3-3.2-5-4.3 -2-1.1-4.4-1.6-7.1-1.6 -2.9 0-5.3 0.6-7.3 1.7 -2 1.1-3.6 2.6-4.9 4.5 -1.3 1.8-2.2 3.9-2.7 6.3 -0.6 2.3-0.8 4.7-0.8 7.1 0 2.5 0.3 5 0.9 7.4 0.6 2.4 1.6 4.5 2.9 6.3 1.3 1.8 3 3.3 5.1 4.4 2.1 1.1 4.6 1.7 7.5 1.7 2.9 0 5.4-0.6 7.4-1.7 2-1.1 3.6-2.6 4.8-4.5 1.2-1.9 2.1-4 2.6-6.4 0.5-2.4 0.8-4.9 0.8-7.4C436.4 732.7 436.1 730.3 435.5 728z"/><path fill="none" stroke="#DDE5CE" stroke-width="5" stroke-miterlimit="10" d="M637.7 319.9c-12-13.2-23.7-41.9-39.1-58.6 -23.3-25.4-34.7-84-64.3-126.4 -24.9-35.8-71.3-41.6-107.2-30.3 -68.7 21.7-178.4 45.5-187.8 134.2 -0.1 0.6-7.9 1.6-9.3 14.1 0.3 1 4.1 17.6 3.7 18 -41.6 49.5-129.4 114.6-136.3 128.6 -8.4 18.1 9.6 27.2 17.8 25.1 34-8.7 79.9-22.3 88.3-47.4 16.7 5.6 54.4-39.1 54.4-48.9 6.2 41-15.9 81.7 3.6 123.8 7.6 16.4-3.4 36.9-1.3 54.6 2 16.7-3.6 43.8 9 46 53.2 9.5 33.4-74.7 57.1-111.9 3.6-5.7 12.3 8.6 19.4 1.8 39.6-38 58.3-94.1 107.6-119.9 -2.3 32.3 17.2 61.7 33.5 89.3"/><path fill="none" stroke="#DDE5CE" stroke-width="5" stroke-miterlimit="10" d="M503.6 216.6c-4.7 9.8-14.3 21.5-13.4 27.4 4.5 30.4-18.9 58.9-36.8 78.7"/><path fill="none" stroke="#DDE5CE" stroke-width="5" stroke-miterlimit="10" d="M376.6 404.3c2.8-8.4-17.4-27.9-29.3-19.5 -11.2 11.2-25 22.1-20.8 43.2 1.8 9.2 16.6 11.9 20.8 12.6"/><path fill="none" stroke="#DDE5CE" stroke-width="5" stroke-miterlimit="10" d="M326.4 440.8c-46.7-39.1 20.6-115.7 63.9-159 10.9-10.9 15.1-28.8 24.1-42.9"/><path fill="none" stroke="#DDE5CE" stroke-width="5" stroke-miterlimit="10" d="M380.8 289.2c0-13.1 0-26 0-39.1"/><path fill="none" stroke="#DDE5CE" stroke-width="5" stroke-miterlimit="10" d="M354.3 320.6c-13.7-24.3 3.7-37.6-18.8-60"/><path fill="none" stroke="#DDE5CE" stroke-width="5" stroke-miterlimit="10" d="M341.7 278c-9 4.4-20.8 8.1-25.7 13.3 -15 15.5-34.7 25.1-58.4 39.1"/><path fill="none" stroke="#DDE5CE" stroke-width="5" stroke-miterlimit="10" d="M302.7 188.7c-12.6 12.6-24.7 31.3-35.1 49.3 -3.4 6-19.5 20.1-33.7 32.9"/><path fill="none" stroke="#DDE5CE" stroke-width="5" stroke-miterlimit="10" d="M297.1 328.2c9.7 8.9 31.4 10 27.9 32.1 3.4-21.5-8-38 22.3-53"/><path fill="none" stroke="#DDE5CE" stroke-width="5" stroke-miterlimit="10" d="M261.5 495.7c17.5 2.8 9.4 35.6 9.9 56.2"/><path fill="none" stroke="#DDE5CE" stroke-width="5" stroke-miterlimit="10" d="M97.3 416c14-14 51.8-38.9 39.2-48.7"/><path fill="none" stroke="#DDE5CE" stroke-width="5" stroke-miterlimit="10" d="M239.1 240.3c0 0 1.4 17.5 2.8 22.3"/><path fill="none" stroke="#DDE5CE" stroke-width="5" stroke-miterlimit="10" d="M347.3 307.3c-5.6 7-11.2 22.3-8.4 32.1"/></svg>