<svg version="1.1" xmlns="http://www.w3.org/2000/svg" xmlns:xlink="http://www.w3.org/1999/xlink" viewBox="0 0 768 975" enable-background="new 0 0 768 975" xml:space="preserve">
<g id="circle">
	<circle fill="#DDE5CE" cx="384.51" cy="731.426" r="125.426"/>
</g>
<g id="pp">
	<g>
		<path fill="#CB394D" d="M359.034,689.998c7.2,0,12.65,1.851,16.35,5.551c3.7,3.699,5.55,8.884,5.55,15.55
			c0,6.667-1.85,11.867-5.55,15.6c-3.7,3.734-9.15,5.567-16.35,5.5h-21.8v29.2h-9.5v-71.4H359.034z M355.833,724.198
			c5.4,0.067,9.35-1.032,11.85-3.3c2.5-2.266,3.75-5.533,3.75-9.8c0-4.266-1.25-7.516-3.75-9.75c-2.5-2.233-6.45-3.351-11.85-3.351
			h-18.6v26.2H355.833z"/>
		<path fill="#EA5F72" d="M404.934,709.698v7h0.2c1.399-2.865,3.6-4.95,6.6-6.25s6.3-1.95,9.9-1.95c4,0,7.482,0.734,10.449,2.2
			c2.966,1.468,5.434,3.45,7.4,5.95c1.966,2.5,3.45,5.385,4.45,8.65c1,3.267,1.5,6.734,1.5,10.399c0,3.667-0.484,7.135-1.45,10.4
			c-0.967,3.267-2.435,6.117-4.4,8.55c-1.967,2.435-4.434,4.35-7.399,5.75c-2.968,1.4-6.417,2.1-10.351,2.1
			c-1.267,0-2.684-0.134-4.25-0.399c-1.566-0.268-3.117-0.7-4.649-1.3c-1.534-0.601-2.984-1.416-4.351-2.45
			c-1.367-1.033-2.517-2.315-3.449-3.851h-0.2v26.601h-8.5v-71.4H404.934z M435.483,728.049c-0.635-2.301-1.6-4.351-2.9-6.15
			c-1.3-1.8-2.967-3.232-5-4.3c-2.034-1.065-4.417-1.601-7.149-1.601c-2.867,0-5.3,0.567-7.3,1.7c-2,1.135-3.635,2.617-4.9,4.45
			c-1.268,1.834-2.185,3.917-2.75,6.25c-0.567,2.334-0.85,4.7-0.85,7.1c0,2.535,0.3,4.984,0.899,7.351
			c0.601,2.367,1.55,4.45,2.851,6.25c1.3,1.8,2.982,3.25,5.05,4.35c2.065,1.101,4.565,1.65,7.5,1.65c2.933,0,5.383-0.565,7.35-1.7
			c1.966-1.133,3.55-2.633,4.75-4.5c1.2-1.865,2.065-4,2.601-6.4c0.532-2.399,0.8-4.865,0.8-7.399
			C436.434,732.698,436.116,730.349,435.483,728.049z"/>
	</g>
</g>
<g id="p">
	<g>
		<path fill="none" stroke="#DDE5CE" stroke-width="5" stroke-miterlimit="10" d="M637.653,319.868
			c-12.036-13.2-23.738-41.883-39.086-58.624c-23.276-25.399-34.747-84.031-64.252-126.445
			c-24.93-35.826-71.26-41.626-107.198-30.283c-68.667,21.659-178.438,45.493-187.754,134.194c-0.06,0.608-7.904,1.583-9.298,14.149
			c0.333,1.018,4.114,17.597,3.747,18.024c-41.574,49.48-129.379,114.605-136.333,128.558c-8.375,18.135,9.555,27.194,17.776,25.09
			c34.038-8.667,79.933-22.302,88.309-47.426c16.731,5.586,54.423-39.085,54.423-48.864c6.245,41.045-15.86,81.739,3.627,123.751
			c7.647,16.423-3.447,36.878-1.342,54.646c1.985,16.749-3.644,43.772,8.999,45.997c53.241,9.462,33.389-74.663,57.084-111.858
			c3.644-5.714,12.285,8.631,19.418,1.754c39.573-37.957,58.309-94.1,107.634-119.866c-2.327,32.285,17.16,61.687,33.5,89.326"/>
		<path fill="none" stroke="#DDE5CE" stroke-width="5" stroke-miterlimit="10" d="M503.647,216.58
			c-4.739,9.787-14.278,21.456-13.405,27.417c4.492,30.412-18.925,58.898-36.836,78.667"/>
		<path fill="none" stroke="#DDE5CE" stroke-width="5" stroke-miterlimit="10" d="M376.63,404.31
			c2.789-8.375-17.444-27.914-29.318-19.539c-11.163,11.164-24.979,22.122-20.77,43.235c1.832,9.213,16.578,11.898,20.77,12.609"/>
		<path fill="none" stroke="#DDE5CE" stroke-width="5" stroke-miterlimit="10" d="M326.354,440.777
			c-46.75-39.069,20.573-115.683,63.886-158.96c10.907-10.898,15.09-28.768,24.089-42.917"/>
		<path fill="none" stroke="#DDE5CE" stroke-width="5" stroke-miterlimit="10" d="M380.821,289.157c0-13.054,0-26.032,0-39.094"/>
		<path fill="none" stroke="#DDE5CE" stroke-width="5" stroke-miterlimit="10" d="M354.293,320.569
			c-13.662-24.321,3.721-37.606-18.845-60.01"/>
		<path fill="none" stroke="#DDE5CE" stroke-width="5" stroke-miterlimit="10" d="M341.727,277.985
			c-9.033,4.38-20.77,8.118-25.75,13.276c-15.03,15.544-34.654,25.112-58.377,39.064"/>
		<path fill="none" stroke="#DDE5CE" stroke-width="5" stroke-miterlimit="10" d="M302.659,188.66
			c-12.567,12.557-24.698,31.292-35.109,49.333c-3.447,6.005-19.539,20.078-33.738,32.892"/>
		<path fill="none" stroke="#DDE5CE" stroke-width="5" stroke-miterlimit="10" d="M297.073,328.242
			c9.71,8.906,31.413,9.966,27.921,32.114c3.396-21.514-7.999-37.956,22.318-53.038"/>
		<path fill="none" stroke="#DDE5CE" stroke-width="5" stroke-miterlimit="10" d="M261.478,495.731
			c17.45,2.806,9.409,35.638,9.888,56.229"/>
		<path fill="none" stroke="#DDE5CE" stroke-width="5" stroke-miterlimit="10" d="M97.336,416.036
			c13.961-13.952,51.769-38.929,39.218-48.699"/>
		<path fill="none" stroke="#DDE5CE" stroke-width="5" stroke-miterlimit="10" d="M239.141,240.294c0,0,1.395,17.477,2.789,22.343"
			/>
		<path fill="none" stroke="#DDE5CE" stroke-width="5" stroke-miterlimit="10" d="M347.312,307.318
			c-5.585,6.971-11.163,22.318-8.374,32.097"/>
	</g>
</g>
</svg>
