<svg version="1.1" xmlns="http://www.w3.org/2000/svg" xmlns:xlink="http://www.w3.org/1999/xlink" viewBox="0 0 768 975" enable-background="new 0 0 768 975" xml:space="preserve">
<g id="circle">
	<circle fill="#DDE5CE" cx="384.51" cy="731.426" r="125.426"/>
</g>
<g id="qq">
	<g>
		<path fill="#CB394D" d="M369.434,758.799c-4.8,2.8-10.5,4.199-17.1,4.199c-5.667,0-10.634-1.017-14.9-3.05
			c-4.267-2.032-7.834-4.782-10.7-8.25c-2.867-3.466-5.017-7.45-6.45-11.95c-1.435-4.5-2.15-9.183-2.15-14.05
			c0-4.865,0.716-9.55,2.15-14.05c1.433-4.5,3.583-8.482,6.45-11.95c2.866-3.466,6.433-6.232,10.7-8.3
			c4.266-2.065,9.233-3.1,14.9-3.1c5.666,0,10.633,1.034,14.9,3.1c4.266,2.067,7.833,4.834,10.7,8.3
			c2.866,3.468,5.016,7.45,6.45,11.95c1.433,4.5,2.15,9.185,2.15,14.05c0,5.468-0.9,10.667-2.7,15.601s-4.5,9.199-8.1,12.8
			l9.4,7.399l-4.8,6L369.434,758.799z M368.834,748.599c2.8-2.8,4.866-6.216,6.2-10.25c1.333-4.033,2-8.25,2-12.65
			c0-3.6-0.467-7.149-1.4-10.649c-0.934-3.5-2.4-6.65-4.4-9.45s-4.567-5.05-7.7-6.75c-3.135-1.7-6.867-2.55-11.2-2.55
			c-4.334,0-8.067,0.85-11.2,2.55c-3.134,1.7-5.7,3.95-7.7,6.75s-3.467,5.95-4.4,9.45c-0.935,3.5-1.4,7.05-1.4,10.649
			c0,3.601,0.466,7.15,1.4,10.65c0.933,3.5,2.4,6.649,4.4,9.45c2,2.8,4.565,5.05,7.7,6.75c3.133,1.699,6.866,2.55,11.2,2.55
			c3.4,0,6.7-0.666,9.9-2l-7.9-6.3l5-5.801L368.834,748.599z"/>
		<path fill="#EA5F72" d="M439.433,781.099v-26.7h-0.199c-1.4,2.867-3.601,4.935-6.601,6.2s-6.3,1.899-9.899,1.899
			c-4,0-7.484-0.734-10.45-2.199c-2.968-1.466-5.435-3.434-7.4-5.9c-1.967-2.466-3.45-5.333-4.45-8.6c-1-3.266-1.5-6.733-1.5-10.4
			c0-3.666,0.483-7.133,1.45-10.4c0.966-3.266,2.433-6.115,4.4-8.55c1.966-2.433,4.433-4.365,7.399-5.8
			c2.966-1.433,6.416-2.15,10.351-2.15c1.333,0,2.766,0.135,4.3,0.4c1.533,0.268,3.065,0.717,4.6,1.35
			c1.533,0.635,2.983,1.468,4.351,2.5c1.365,1.035,2.516,2.317,3.45,3.851h0.199v-6.9h8.5v71.4H439.433z M408.883,743.049
			c0.633,2.3,1.601,4.35,2.9,6.149s2.966,3.234,5,4.3c2.032,1.067,4.415,1.601,7.149,1.601c2.866,0,5.301-0.565,7.301-1.7
			c2-1.133,3.633-2.615,4.899-4.45c1.266-1.833,2.183-3.915,2.75-6.25c0.565-2.333,0.851-4.7,0.851-7.1
			c0-2.533-0.301-4.983-0.9-7.351c-0.6-2.365-1.55-4.449-2.85-6.25c-1.301-1.8-2.984-3.25-5.051-4.35s-4.566-1.65-7.5-1.65
			c-2.867,0-5.3,0.567-7.3,1.7c-2,1.135-3.6,2.635-4.8,4.5c-1.2,1.867-2.067,4-2.6,6.4c-0.535,2.399-0.801,4.867-0.801,7.399
			C407.933,738.398,408.249,740.748,408.883,743.049z"/>
	</g>
</g>
<g id="q">
	<g>
		<path fill="none" stroke="#DDE5CE" stroke-width="5" stroke-miterlimit="10" d="M284.697,446.062
			c2.855-4.734,9.627,7.14,15.218,1.461c31.018-31.461,45.693-77.972,84.354-99.344"/>
		<path fill="none" stroke="#DDE5CE" stroke-width="5" stroke-miterlimit="10" d="M197.562,295.473
			c-32.588,41.014-86.754,104.767-92.226,116.325c-6.569,15.043,7.495,22.539,13.924,20.794
			c26.674-7.186,54.75-12.931,66.147-50.586c13.125,4.619,39.875-31.046,39.875-39.144"/>
		<path fill="none" stroke="#DDE5CE" stroke-width="5" stroke-miterlimit="10" d="M656.833,348.902
			c-9.433-10.94-64.404-112.208-74.059-128.023c-28.488-46.679-70.824-51.84-108.245-61.736
			c-39.874-10.551-82.686-1.005-110.867,8.299c-15.896,5.257-57.206,14.293-70.023,23.33c-19.613,13.816-61.48,62.513-69.645,77.469
			c-2.709,4.94-15.312,16.626-26.433,27.231"/>
		<path fill="none" stroke="#DDE5CE" stroke-width="5" stroke-miterlimit="10" d="M384.269,348.178
			c14.025-16.357,32.379-39.982,28.875-65.167c-0.698-4.928,4.732-16.043,10.497-22.706c6.743-7.79,30.945-7.79,45.19-12.308"/>
		<path fill="none" stroke="#DDE5CE" stroke-width="5" stroke-miterlimit="10" d="M324.102,415.847
			c2.186-6.945-13.676-23.129-22.974-16.184c-8.75,9.239-19.582,18.328-16.291,35.819c1.449,7.628,12.998,9.86,16.291,10.43"/>
		<path fill="none" stroke="#DDE5CE" stroke-width="5" stroke-miterlimit="10" d="M289.062,447.013
			c-36.637-32.381,11.75-96.804,45.691-132.662c8.562-9.03,11.827-23.853,18.886-35.55"/>
		<path fill="none" stroke="#DDE5CE" stroke-width="5" stroke-miterlimit="10" d="M298.447,302.25
			c-10.707-20.158,2.908-31.16-14.769-49.735"/>
		<path fill="none" stroke="#DDE5CE" stroke-width="5" stroke-miterlimit="10" d="M333.527,305.227
			c-7.099,3.626-53.055,12.656-56.962,16.941c-11.779,12.885-32.688,9.13-51.283,20.694"/>
		<path fill="none" stroke="#DDE5CE" stroke-width="5" stroke-miterlimit="10" d="M301.128,335.468"/>
		<path fill="none" stroke="#DDE5CE" stroke-width="5" stroke-miterlimit="10" d="M296.13,362.907
			c-25.588-3.418-41.635,6.649-49.485-0.469c-9.968-9.038-10.652-18.13-7.794-25.672"/>
		<path fill="none" stroke="#DDE5CE" stroke-width="5" stroke-miterlimit="10" d="M104.981,425.084
			c10.934-11.578,43.387-32.533,27.72-47.57"/>
		<path fill="none" stroke="#DDE5CE" stroke-width="5" stroke-miterlimit="10" d="M329.259,320.277
			c-4.383,5.779-27.072,3.016-39.882,13.548"/>
		<path fill="none" stroke="#DDE5CE" stroke-width="5" stroke-miterlimit="10" d="M398.186,330.452
			c34.183-6.034,37.891-19.212,47.854-19.212c11.396,34.626,52.705,120.476,62.668,138.548"/>
		<path fill="none" stroke="#DDE5CE" stroke-width="5" stroke-miterlimit="10" d="M236.678,320.277
			c-8.547,12.047-17.088,24.079-25.641,27.104"/>
	</g>
</g>
</svg>
