<svg version="1.1" id="Layer_1" xmlns="http://www.w3.org/2000/svg" xmlns:xlink="http://www.w3.org/1999/xlink" viewBox="0 -275 768 980" enable-background="new 0 -275 768 980" xml:space="preserve">
<circle fill="#DDF2F2" cx="390.99" cy="460.061" r="97.564"/>
<polyline fill="none" points="249.222,303.977 249.222,-135.874 676.135,-135.874 676.135,303.977 "/>
<g enable-background="new    ">
	<path fill="#DDF2F2" d="M395.734,179.754c-0.971,7.444-2.912,14.236-5.822,20.376c-2.912,6.148-6.793,9.544-11.645,10.188
		l8.248,86.353h-8.248l-8.248-85.381c-6.792-1.29-11.726-3.229-14.795-5.82c-3.078-2.586-5.504-6.306-7.278-11.158
		c-1.782-4.852-2.752-9.134-2.912-12.857c-0.166-3.712,0.729-8.322,2.668-13.826c-4.852,0-8.414-1.128-10.672-3.394
		c-10.354,8.088-19.49,12.538-27.41,13.34c-7.928,0.812-13.91,0.084-17.95-2.183c-4.046-2.26-6.472-6.063-7.275-11.399
		c-0.812-5.338,0.56-10.265,4.124-14.796c-14.555-6.141-22.643-13.017-24.256-20.62c-1.622-7.594,0.159-19.32,5.336-35.172
		c5.17-15.843,9.134-25.87,11.886-30.076c2.744-4.202,5.58-6.952,8.49-8.248c2.91-1.29,6.14-2.1,9.702-2.426
		c3.229-6.464,6.382-10.916,9.46-13.342c3.069-2.425,6.951-3.796,11.644-4.124c4.685-0.318,8.49,0.485,11.4,2.426
		c3.88-5.82,10.264-9.05,19.162-9.704c8.892-0.642,15.441,1.942,19.648,7.764c7.436-1.29,13.902-1.616,19.404-0.97
		c5.496,0.652,11.232,2.592,17.221,5.82c5.98,3.237,11.719,7.764,17.223,13.584c5.496,5.821,12.771,13.994,21.832,24.5
		c9.051,10.514,16.328,20.943,21.832,31.292c5.496,10.354,9.943,23.37,13.34,39.052c3.396,15.689,5.98,32.428,7.762,50.21
		c1.773,17.791,4.607,50.287,8.49,97.509h-8.248l-7.762-89.748c-3.881-37.514-8.574-63.794-14.068-78.834
		c-5.502-15.04-16.98-32.504-34.443-52.394c-17.465-19.889-30.404-30.639-38.811-32.26c-8.414-1.616-16.008-1.616-22.799,0
		c-4.535,7.117-7.847,10.514-9.947,10.188c-2.108-0.318-1.212-4.686,2.668-13.1c-1.624-4.2-6.148-6.062-13.584-5.578
		c-7.444,0.483-12.94,4.292-16.494,11.399c-5.178,7.118-6.792,6.473-4.852-1.939c-7.763-1.942-13.584-0.645-17.465,3.88
		c-3.88,4.532-8.329,15.607-13.34,33.23c-5.018,17.63-7.602,30.487-7.762,38.567c-0.166,8.088,1.856,14.395,6.063,18.92
		l10.188-12.128c-2.592-1.616-3.722-4.852-3.396-9.704c0.317-4.85,3.069-15.926,8.247-33.229
		c5.171-17.299,8.893-25.387,11.158-24.256c2.258,1.136,0.318,11.157-5.821,30.077c-6.148,18.921-7.929,29.19-5.337,30.805
		c24.257-32.019,38.402-49.559,42.45-52.637c4.04-3.069,5.252-2.182,3.639,2.669c-1.624,4.852-8.414,14.554-20.376,29.109
		l6.306,7.762l-8.732-4.852l7.763,9.216l-10.672-5.819l8.247,8.729l-9.703-5.82c-8.088,10.998-16.334,20.86-24.742,29.593
		c3.554,1.623,6.466,3.396,8.731,5.338c1.614,2.266,2.101,4.208,1.456,5.819c-2.592,6.475-5.662,10.841-9.216,13.101
		c-3.563,2.266-8.899,0.326-16.01-5.822c-1.296,4.208-0.41,7.762,2.668,10.672c3.07,2.912,9.536,3.238,19.406,0.97
		c9.861-2.258,22.231-11.558,37.111-27.894c14.872-16.328,26.115-32.094,33.716-47.3c7.594-15.198,9.777-15.114,6.549,0.244
		c-3.236,15.365-19.73,37.279-49.483,65.733c0.645,1.94,2.91,3.078,6.792,3.396c6.14-10.349,21.664-24.416,46.572-42.208
		c10.021-8.08,16.57-13.584,19.648-16.494c3.07-2.91,1.697,0.326-4.125,9.704c15.844-7.112,18.512-6.87,8.006,0.726
		c-10.516,7.604-20.133,14.152-28.867,19.648c-23.938,15.85-36.226,31.7-36.87,47.542c0.644,12.614,5.412,19.646,14.311,21.102
		c8.893,1.458,14.631-1.613,17.223-9.216c2.584-7.596,4.684-15.358,6.307-23.286c1.615-7.922,3.07-10.916,4.365-8.976
		c1.291,1.941,1.773,6.147,1.457,12.616c2.584-0.645,5.654-2.261,9.215-4.853c0-5.496,0.729-9.538,2.184-12.128
		c1.457-2.584,2.344,0.652,2.67,9.704c5.494,2.592,11.398,3.88,17.707,3.88s12.932-2.26,19.891-6.792
		c6.951-4.526,9.133-4.684,6.547-0.484c-2.592,4.208-7.033,7.687-13.34,10.431c-6.307,2.752-12.537,3.88-18.678,3.396
		c-6.148-0.483-10.354-1.698-12.613-3.638C406.566,176.684,401.871,178.785,395.734,179.754z M297.738,60.415
		c-6.474-0.318-12.294,7.52-17.464,23.53c-5.176,16.01-8.248,27.576-9.216,34.688c-0.971,7.118,1.128,12.538,6.306,16.25
		c5.168,3.723,10.188,6.716,15.04,8.977c-5.822-6.792-8.816-13.584-8.976-20.376c-0.166-6.792,0.888-14.872,3.153-24.257
		C288.837,89.846,292.56,76.909,297.738,60.415z M315.202,149.676c1.288-3.228-2.107-6.624-10.188-10.188
		c-5.505,6.792-9.704,12.294-12.614,16.494l6.792,4.852C305.014,164.716,310.35,161,315.202,149.676z M399.613,90.978
		c1.291-3.882,1.859-7.195,1.699-9.945c-0.166-2.744-0.729-5.412-1.699-8.006C406.08,79.174,406.08,85.157,399.613,90.978z
		 M419.02,190.428c-1.939,2.267-4.934,2.75-8.975,1.456c-4.047-1.29-6.23-3.229-6.549-5.822
		C408.99,188.972,414.168,190.428,419.02,190.428z M405.436,180.243c5.822,2.266,10.916,3.562,15.283,3.88
		c4.365,0.324,8.973-0.486,13.824-2.426c-4.207,4.208-8.172,6.229-11.885,6.062c-3.723-0.157-6.793-0.726-9.219-1.698
		C411.014,185.088,408.346,183.153,405.436,180.243z"/>
</g>
<g enable-background="new    ">
	<path fill="#F44D8D" d="M413.838,501.332c-6.096,3.557-13.336,5.338-21.721,5.338c-7.197,0-13.506-1.293-18.924-3.877
		c-5.42-2.582-9.952-6.074-13.589-10.479c-3.643-4.402-6.374-9.461-8.192-15.178c-1.822-5.715-2.731-11.664-2.731-17.846
		s0.909-12.131,2.731-17.846c1.82-5.717,4.55-10.775,8.192-15.18c3.64-4.4,8.169-7.916,13.589-10.543
		c5.418-2.623,11.727-3.938,18.924-3.938s13.506,1.312,18.926,3.938c5.418,2.625,9.949,6.141,13.592,10.543
		c3.639,4.404,6.369,9.461,8.191,15.18c1.82,5.713,2.73,11.664,2.73,17.846c0,6.943-1.145,13.549-3.432,19.814
		c-2.285,6.268-5.715,11.686-10.287,16.258l11.939,9.398l-6.096,7.621L413.838,501.332z M413.076,488.377
		c3.557-3.557,6.18-7.895,7.875-13.02c1.693-5.123,2.541-10.479,2.541-16.066c0-4.574-0.594-9.082-1.779-13.527
		c-1.186-4.447-3.047-8.449-5.588-12.004c-2.539-3.557-5.799-6.414-9.779-8.572c-3.98-2.16-8.723-3.24-14.227-3.24
		s-10.246,1.08-14.225,3.24c-3.982,2.158-7.24,5.016-9.781,8.572c-2.539,3.555-4.404,7.557-5.587,12.004
		c-1.187,4.445-1.778,8.953-1.778,13.527c0,4.572,0.592,9.08,1.778,13.527c1.186,4.447,3.048,8.447,5.587,12.002
		c2.541,3.557,5.799,6.414,9.781,8.574c3.979,2.158,8.719,3.238,14.225,3.238c4.318,0,8.51-0.846,12.576-2.541l-10.033-8.002
		l6.35-7.369L413.076,488.377z"/>
</g>
</svg>
