<svg version="1.1" xmlns="http://www.w3.org/2000/svg" viewBox="0 0 768 975" enable-background="new 0 0 768 975" xml:space="preserve"><circle fill="#DDE5CE" cx="384.5" cy="731.4" r="125.4"/><path fill="#CB394D" d="M369.4 758.8c-4.8 2.8-10.5 4.2-17.1 4.2 -5.7 0-10.6-1-14.9-3 -4.3-2-7.8-4.8-10.7-8.2 -2.9-3.5-5-7.4-6.4-11.9 -1.4-4.5-2.1-9.2-2.1-14 0-4.9 0.7-9.5 2.2-14 1.4-4.5 3.6-8.5 6.5-11.9 2.9-3.5 6.4-6.2 10.7-8.3 4.3-2.1 9.2-3.1 14.9-3.1 5.7 0 10.6 1 14.9 3.1 4.3 2.1 7.8 4.8 10.7 8.3 2.9 3.5 5 7.5 6.5 12 1.4 4.5 2.2 9.2 2.2 14.1 0 5.5-0.9 10.7-2.7 15.6s-4.5 9.2-8.1 12.8l9.4 7.4 -4.8 6L369.4 758.8zM368.8 748.6c2.8-2.8 4.9-6.2 6.2-10.2 1.3-4 2-8.2 2-12.6 0-3.6-0.5-7.1-1.4-10.6 -0.9-3.5-2.4-6.6-4.4-9.4s-4.6-5-7.7-6.7c-3.1-1.7-6.9-2.5-11.2-2.5 -4.3 0-8.1 0.9-11.2 2.6 -3.1 1.7-5.7 4-7.7 6.8s-3.5 6-4.4 9.5c-0.9 3.5-1.4 7.1-1.4 10.6 0 3.6 0.5 7.2 1.4 10.7 0.9 3.5 2.4 6.6 4.4 9.5 2 2.8 4.6 5.1 7.7 6.8 3.1 1.7 6.9 2.6 11.2 2.6 3.4 0 6.7-0.7 9.9-2l-7.9-6.3 5-5.8L368.8 748.6z"/><path fill="#EA5F72" d="M439.4 781.1v-26.7h-0.2c-1.4 2.9-3.6 4.9-6.6 6.2s-6.3 1.9-9.9 1.9c-4 0-7.5-0.7-10.4-2.2 -3-1.5-5.4-3.4-7.4-5.9 -2-2.5-3.4-5.3-4.4-8.6 -1-3.3-1.5-6.7-1.5-10.4 0-3.7 0.5-7.1 1.5-10.4 1-3.3 2.4-6.1 4.4-8.5 2-2.4 4.4-4.4 7.4-5.8 3-1.4 6.4-2.1 10.4-2.1 1.3 0 2.8 0.1 4.3 0.4 1.5 0.3 3.1 0.7 4.6 1.4 1.5 0.6 3 1.5 4.4 2.5 1.4 1 2.5 2.3 3.5 3.9h0.2v-6.9h8.5v71.4H439.4zM408.9 743c0.6 2.3 1.6 4.4 2.9 6.1s3 3.2 5 4.3c2 1.1 4.4 1.6 7.1 1.6 2.9 0 5.3-0.6 7.3-1.7 2-1.1 3.6-2.6 4.9-4.4 1.3-1.8 2.2-3.9 2.8-6.2 0.6-2.3 0.9-4.7 0.9-7.1 0-2.5-0.3-5-0.9-7.4 -0.6-2.4-1.5-4.4-2.8-6.2 -1.3-1.8-3-3.2-5.1-4.3s-4.6-1.6-7.5-1.6c-2.9 0-5.3 0.6-7.3 1.7 -2 1.1-3.6 2.6-4.8 4.5 -1.2 1.9-2.1 4-2.6 6.4 -0.5 2.4-0.8 4.9-0.8 7.4C407.9 738.4 408.2 740.7 408.9 743z"/><path fill="none" stroke="#DDE5CE" stroke-width="5" stroke-miterlimit="10" d="M284.7 446.1c2.9-4.7 9.6 7.1 15.2 1.5 31-31.5 45.7-78 84.4-99.3"/><path fill="none" stroke="#DDE5CE" stroke-width="5" stroke-miterlimit="10" d="M197.6 295.5c-32.6 41-86.8 104.8-92.2 116.3 -6.6 15 7.5 22.5 13.9 20.8 26.7-7.2 54.8-12.9 66.1-50.6 13.1 4.6 39.9-31 39.9-39.1"/><path fill="none" stroke="#DDE5CE" stroke-width="5" stroke-miterlimit="10" d="M656.8 348.9c-9.4-10.9-64.4-112.2-74.1-128 -28.5-46.7-70.8-51.8-108.2-61.7 -39.9-10.6-82.7-1-110.9 8.3 -15.9 5.3-57.2 14.3-70 23.3 -19.6 13.8-61.5 62.5-69.6 77.5 -2.7 4.9-15.3 16.6-26.4 27.2"/><path fill="none" stroke="#DDE5CE" stroke-width="5" stroke-miterlimit="10" d="M384.3 348.2c14-16.4 32.4-40 28.9-65.2 -0.7-4.9 4.7-16 10.5-22.7 6.7-7.8 30.9-7.8 45.2-12.3"/><path fill="none" stroke="#DDE5CE" stroke-width="5" stroke-miterlimit="10" d="M324.1 415.8c2.2-6.9-13.7-23.1-23-16.2 -8.7 9.2-19.6 18.3-16.3 35.8 1.4 7.6 13 9.9 16.3 10.4"/><path fill="none" stroke="#DDE5CE" stroke-width="5" stroke-miterlimit="10" d="M289.1 447c-36.6-32.4 11.8-96.8 45.7-132.7 8.6-9 11.8-23.9 18.9-35.5"/><path fill="none" stroke="#DDE5CE" stroke-width="5" stroke-miterlimit="10" d="M298.4 302.3c-10.7-20.2 2.9-31.2-14.8-49.7"/><path fill="none" stroke="#DDE5CE" stroke-width="5" stroke-miterlimit="10" d="M333.5 305.2c-7.1 3.6-53.1 12.7-57 16.9 -11.8 12.9-32.7 9.1-51.3 20.7"/><path fill="none" stroke="#DDE5CE" stroke-width="5" stroke-miterlimit="10" d="M301.1 335.5"/><path fill="none" stroke="#DDE5CE" stroke-width="5" stroke-miterlimit="10" d="M296.1 362.9c-25.6-3.4-41.6 6.6-49.5-0.5 -10-9-10.7-18.1-7.8-25.7"/><path fill="none" stroke="#DDE5CE" stroke-width="5" stroke-miterlimit="10" d="M105 425.1c10.9-11.6 43.4-32.5 27.7-47.6"/><path fill="none" stroke="#DDE5CE" stroke-width="5" stroke-miterlimit="10" d="M329.3 320.3c-4.4 5.8-27.1 3-39.9 13.5"/><path fill="none" stroke="#DDE5CE" stroke-width="5" stroke-miterlimit="10" d="M398.2 330.5c34.2-6 37.9-19.2 47.9-19.2 11.4 34.6 52.7 120.5 62.7 138.5"/><path fill="none" stroke="#DDE5CE" stroke-width="5" stroke-miterlimit="10" d="M236.7 320.3c-8.5 12-17.1 24.1-25.6 27.1"/></svg>