<svg version="1.1" id="Layer_1" xmlns="http://www.w3.org/2000/svg" xmlns:xlink="http://www.w3.org/1999/xlink" viewBox="0 -275 768 980" enable-background="new 0 -275 768 980" xml:space="preserve">
<circle fill="#DDF2F2" cx="382.248" cy="460.061" r="97.564"/>
<polyline fill="none" points="240.48,303.977 240.48,-135.874 667.393,-135.874 667.393,303.977 "/>
<g enable-background="new    ">
	<path fill="#DDF2F2" d="M367.104,136.581l3.395,9.216c32.988,2.912,51.824,1.054,56.516-5.58
		c4.689-6.624,9.137-10.916,13.344-12.855c4.201-1.94,4.283-0.729,0.242,3.638c-4.045,4.366-6.389,7.844-7.035,10.43
		c17.781-5.168,22.875-5.252,15.281-0.241c-7.602,5.018-15.605,8.573-24.012,10.672c-8.414,2.107-19.734,2.912-33.959,2.426
		c-14.234-0.486-27.092-1.532-38.566-3.154c-11.484-1.616-19.816,0.166-24.984,5.336c-5.18,5.178-5.18,10.84,0,16.98
		c1.615-5.822,3.152-9.376,4.611-10.672c1.453-1.288,4.121-1.456,8.004-0.484c9.375,3.236,14.871,5.662,16.492,7.276
		c1.941,0.97,3.068,2.266,3.396,3.88c0.316,1.622-0.328,5.662-1.941,12.128l20.377,5.821l2.908-9.703l0.484,10.672l2.914-13.099
		l0.484,13.584l2.91-10.672l-0.484,11.158c16.492,2.592,30.152,4.124,40.992,4.608c10.832,0.485,20.535,0.084,29.109-1.212
		c8.562-1.288,18.508-5.168,29.832-11.643c11.32-6.466,11.805-4.928,1.459,4.608c-10.357,9.544-24.422,14.962-42.209,16.252
		c1.941,2.912,5.012,4.607,9.219,5.094c4.199,0.486,10.75,0.895,19.648,1.212c8.889,0.326,6.303,0.97-7.764,1.94
		c-14.068,0.97-23.209-1.614-27.41-7.762c-7.117-0.318-14.553-0.971-22.314-1.94l3.877,92.173h-8.73l-3.393-92.66
		c-20.059-1.939-39.951-6.063-59.674-12.372c-19.729-6.306-30.729-13.34-32.986-21.102c-10.03,5.176-17.792,5.418-23.288,0.728
		c-5.502-4.684-8.9-12.529-10.188-23.529c-9.384-0.645-15.934-2.101-19.647-4.366c-3.723-2.258-5.662-5.578-5.822-9.944
		c-0.166-4.366,1.372-8.649,4.608-12.855c-6.148-11.643,1.773-31.534,23.771-59.67c15.842-16.494,28.939-24.742,39.295-24.742
		c8.734,0,18.594,2.107,29.594,6.306c7.109,2.592,19.562,8.248,37.355,16.98c4.523-3.555,9.859-4.927,16.008-4.124
		c6.141,0.812,25.711,10.43,58.699,28.865c36.547,20.376,55.625,45.444,57.246,75.196c4.529,54.334,9.379,100.096,14.555,137.293
		h-8.246c-3.562-20.703-7.605-57.414-12.127-110.125c-1.297-22.315-3.395-37.756-6.309-46.33c-2.91-8.565-9.301-17.708-19.16-27.41
		c-9.873-9.703-23.211-18.996-40.023-27.896c-16.82-8.89-29.275-15.114-37.357-18.676c-8.086-3.557-14.393-3.88-18.918-0.971
		c-8.732,6.475-22.645,14.88-41.723,25.227l4.854,11.158l-7.762-9.702l6.303,14.067l-10.188-12.613l4.367,12.613l-8.729-10.672
		c-9.387,5.502-19.574,9.87-30.566,13.099c-10.672,13.264-20.458,20.458-29.348,21.588c-8.9,1.138-14.796-0.242-17.708-4.124
		c-3.882,4.85-2.994,8.655,2.668,11.399c5.653,2.75,12.446,3.881,20.376,3.396c7.922-0.486,19.65-2.342,35.172-5.58l2.426-9.216
		l0.967,8.731l35.414-4.852l1.459-10.188l1.455,9.702c34.277-1.939,54.012-6.792,59.188-14.554c5.168-7.762,6.463-7.596,3.877,0.486
		c-2.59,8.731-9.623,14.235-21.102,16.493C397.096,133.995,383.271,135.609,367.104,136.581z M346.725,81.758l-2.422,6.792
		c18.105-9.376,31.531-17.464,40.266-24.256c-12.297-6.466-22.484-11.318-30.566-14.554c-8.086-3.23-15.523-5.336-22.316-6.307
		c-10.352-0.97-21.268,4.366-32.743,16.009c-11.484,11.644-19.33,21.998-23.528,31.048l9.217,0.97
		c2.911,0.652,4.039,3.078,3.396,7.276l-2.426,9.218c-0.97,3.88-6.958,4.534-17.95,1.939c-0.326,5.502,1.046,9.301,4.124,11.4
		c3.07,2.108,7.276,2.668,12.614,1.698c5.336-0.97,12.529-6.952,21.588-17.95c18.752-31.694,23.443-37.03,14.07-16.01
		c6.139-1.94,13.098-5.17,20.859-9.702C351.896,62.521,353.838,63.325,346.725,81.758z M284.145,92.917l-9.702-0.97
		c-2.266,4.531-4.366,10.027-6.306,16.494c9.05,2.592,14.386,2.266,16.008-0.971c0.97-2.584,1.773-5.496,2.426-8.731
		C287.54,95.829,286.73,93.888,284.145,92.917z M315.678,163.747c1.941-8.082,2.258-14.712,0.973-19.89
		c-11,2.592-19.408,3.88-25.228,3.88c0.97,9.704,3.472,15.691,7.52,17.95C302.98,167.955,308.561,167.308,315.678,163.747z
		 M339.936,85.157c-7.117,4.534-14.07,7.762-20.863,9.702c-0.969,1.622-2.105,3.722-3.395,6.306
		c9.705-4.2,17.141-7.762,22.316-10.672C338.314,89.205,338.963,87.422,339.936,85.157z M361.279,137.065l-37.84,5.336
		c0.643,1.939,0.643,4.365,0,7.275c3.553-2.91,8.164-4.926,13.828-6.063c5.65-1.13,14.627-0.562,26.922,1.697L361.279,137.065z
		 M356.428,185.092c1.619-6.14,2.262-10.021,1.941-11.644c-0.322-1.614-2.75-3.396-7.277-5.336
		c-5.176-2.258-9.459-3.714-12.855-4.366c-3.395-0.645-5.418-0.402-6.062,0.728c-0.652,1.137-1.781,4.45-3.398,9.946
		C338.154,178.626,347.369,182.18,356.428,185.092z M447.635,217.594c5.492,1.943,10.43,3.078,14.791,3.398
		c4.369,0.324,8.492-0.16,12.373-1.457C466.068,226.646,457.01,226.004,447.635,217.594z M453.455,189.943l-0.484-9.702
		c0-4.526,0.316-7.597,0.969-9.218c0.967,1.621,1.457,3.882,1.457,6.792C455.396,182.667,454.744,186.714,453.455,189.943z
		 M457.334,187.519c0.645-0.971,1.133-2.101,1.459-3.396c0.32-1.288,0.484-2.744,0.484-4.366c0-1.939-0.164-3.396-0.484-4.366
		c-0.324-0.97-0.812-1.613-1.459-1.939c-0.324,1.296-0.484,3.396-0.484,6.306C456.85,183.319,457.01,185.903,457.334,187.519z"/>
</g>
<g enable-background="new    ">
	<path fill="#F44D8D" d="M387.695,413.945c8.635,0,15.387,2.117,20.26,6.352c4.867,4.234,7.301,10.033,7.301,17.4
		c0,5.506-1.25,10.332-3.746,14.48c-2.5,4.148-6.5,6.984-12.004,8.51v0.254c2.625,0.508,4.764,1.355,6.414,2.541
		c1.652,1.188,2.963,2.605,3.939,4.254c0.971,1.652,1.693,3.494,2.158,5.527s0.826,4.15,1.08,6.352
		c0.168,2.203,0.295,4.445,0.381,6.73c0.082,2.287,0.293,4.531,0.635,6.73c0.338,2.205,0.824,4.299,1.459,6.289
		s1.588,3.748,2.857,5.271h-13.461c-0.848-0.932-1.42-2.201-1.715-3.811c-0.297-1.607-0.488-3.406-0.572-5.396
		c-0.086-1.988-0.17-4.127-0.254-6.414c-0.086-2.287-0.34-4.531-0.762-6.732c-0.34-2.201-0.762-4.297-1.271-6.289
		c-0.508-1.986-1.312-3.723-2.412-5.207c-1.102-1.48-2.543-2.668-4.318-3.557c-1.779-0.887-4.15-1.334-7.113-1.334h-29.467v38.74
		h-12.066v-90.691H387.695z M390.236,455.1c2.541-0.424,4.764-1.25,6.668-2.479c1.904-1.227,3.43-2.877,4.572-4.953
		c1.143-2.074,1.715-4.764,1.715-8.064c0-4.572-1.271-8.299-3.811-11.178c-2.541-2.881-6.648-4.318-12.32-4.318h-29.973v31.625
		h25.146C385.029,455.734,387.695,455.523,390.236,455.1z"/>
</g>
</svg>
