<svg version="1.1" xmlns="http://www.w3.org/2000/svg" viewBox="0 0 768 975" enable-background="new 0 0 768 975" xml:space="preserve"><circle fill="#DDE5CE" cx="384.5" cy="731.4" r="125.4"/><path fill="#CB394D" d="M372.5 690c6.8 0 12.1 1.7 16 5 3.8 3.3 5.8 7.9 5.8 13.7 0 4.3-1 8.1-2.9 11.4 -2 3.3-5.1 5.5-9.5 6.7v0.2c2.1 0.4 3.8 1.1 5.1 2 1.3 0.9 2.3 2.1 3.1 3.4 0.8 1.3 1.3 2.8 1.7 4.4 0.4 1.6 0.7 3.3 0.9 5 0.1 1.7 0.2 3.5 0.3 5.3 0.1 1.8 0.2 3.6 0.5 5.3 0.3 1.7 0.7 3.4 1.2 4.9 0.5 1.6 1.3 3 2.3 4.2h-10.6c-0.7-0.7-1.1-1.7-1.4-3 -0.2-1.3-0.4-2.7-0.4-4.2 -0.1-1.6-0.1-3.2-0.2-5 -0.1-1.8-0.3-3.6-0.6-5.3 -0.3-1.7-0.6-3.4-1-4.9 -0.4-1.6-1-2.9-1.9-4.1 -0.9-1.2-2-2.1-3.4-2.8s-3.3-1-5.6-1h-23.2v30.5h-9.5v-71.4H372.5zM374.5 722.4c2-0.3 3.8-1 5.3-1.9 1.5-1 2.7-2.3 3.6-3.9 0.9-1.6 1.4-3.7 1.4-6.4 0-3.6-1-6.5-3-8.8 -2-2.3-5.2-3.4-9.7-3.4h-23.6v24.9h19.8C370.4 722.9 372.5 722.7 374.5 722.4z"/><path fill="#EA5F72" d="M418.7 709.7v10.9h0.2c2.1-4.2 4.6-7.3 7.6-9.3s6.8-2.9 11.4-2.8v9c-3.4 0-6.3 0.5-8.7 1.4 -2.4 0.9-4.3 2.3-5.8 4.1 -1.5 1.8-2.5 4-3.2 6.6 -0.7 2.6-1 5.5-1 8.9v23h-8.5v-51.7H418.7z"/><path fill="none" stroke="#DDE5CE" stroke-width="5" stroke-miterlimit="10" d="M434.2 581.4c0-22.7-4.4-78.3 3.3-96.4 7.7-18.1 48.7-89.4 31.7-120.2 -4.4-7.9-19.7-22.7-18.6-37.4 1.1-14.8-5.5-49.9-13.1-69.2 -7.7-19.3-9.9-48.8-61.3-127 2.2-12.5 7.7-49.9-17.5-55.6 -25.2-5.7-23 23.8-24.1 30.6 -3.3 3.4-10.9 10.2-4.4 25 -1.1 7.9-8.2 64.1 0.5 85.6 -8.7 5.7-30.1 6.2-30.1 23.3 0 17-1.1 43.1 0 47.6 -8.8-2.3-18.6-5.7-21.9 7.9 -3.3 13.6-10.9 40.8-8.7 56.7 2.2 15.9 10.9 40.8 12 55.6 1.1 14.7-2.2 32.9 20.8 73.7 -3.3 19.3-4.4 65.8 1.1 103.2"/><path fill="none" stroke="#DDE5CE" stroke-width="5" stroke-miterlimit="10" d="M319.3 500.8c7.7 9.1 32.8 26.1 53.6 0"/><path fill="none" stroke="#DDE5CE" stroke-width="5" stroke-miterlimit="10" d="M390.4 357.9c-7.7 17-27.4 51.1-7.7 112.3"/><path fill="none" stroke="#DDE5CE" stroke-width="5" stroke-miterlimit="10" d="M335.2 104.8c4.4-2.3 25.2 0 40.5 25"/><path fill="none" stroke="#DDE5CE" stroke-width="5" stroke-miterlimit="10" d="M330.3 131.1c2.7 5.7 21.3 39.7 23.5 52.7 2.2 13.1 6 25.5 12 34.6 6 9.1 9.3 24.4 9.8 28.9"/><path fill="none" stroke="#DDE5CE" stroke-width="5" stroke-miterlimit="10" d="M416.7 245.6c-14.8 1.7-25.2 6.8-30.1 5.7 -4.9-1.1-14.2-2.8-19.7 1.1"/><path fill="none" stroke="#DDE5CE" stroke-width="5" stroke-miterlimit="10" d="M330.8 216.7c8.2 9.1 50.9 48.8 63.5 94.2 7.1 10.2 10.4 27.2-1.1 34.6 -11.5 7.4-18.1-1.7-19.7-2.3"/><path fill="none" stroke="#DDE5CE" stroke-width="5" stroke-miterlimit="10" d="M300.7 287.6c7.7 2.8 50.9 25 56.3 35.2 7.7 2.3 18.6 10.2 14.8 23.3 -3.8 13-21.3 15.3-32.8 8.5 -11.5-6.8-29.5-21-51.4-25.5"/><path fill="none" stroke="#DDE5CE" stroke-width="5" stroke-miterlimit="10" d="M312.8 339.8c-7.1 1.7-23.5 7.4-25.7 10.2"/><path fill="none" stroke="#DDE5CE" stroke-width="5" stroke-miterlimit="10" d="M324.2 356.8c0 10.8-20.8 25-26.8 27.2"/><path fill="none" stroke="#DDE5CE" stroke-width="5" stroke-miterlimit="10" d="M397 346c4.4 13.6 25.7 51 43.8 56.7"/><path fill="none" stroke="#DDE5CE" stroke-width="5" stroke-miterlimit="10" d="M388.2 293.8c2.2-12.5 21.4-38.6 33.4-32.9 12 5.7 9.3 19.3 8.2 26.1 -1.1 6.8 0 19.3 3.3 23.8 3.3 4.5 15.9 18.2 18.1 23.3"/><path fill="none" stroke="#DDE5CE" stroke-width="5" stroke-miterlimit="10" d="M430.7 280.5c-3.3 2.3-11.3 9.9-9.7 14.4 1.6 4.5 6.7 10.8 10 11.3"/><path fill="none" stroke="#DDE5CE" stroke-width="5" stroke-miterlimit="10" d="M393.6 308.5c-3.8-3.4-16.3-2.8-18.5 1.2 -2.2 4-3.3 18.2 1.1 22.7 4.4 4.5 22.7-1.8 24.3-5.2"/><path fill="none" stroke="#DDE5CE" stroke-width="5" stroke-miterlimit="10" d="M356.3 321.5c-3.8 0.6-13.4 5.2-8.5 13.1 4.9 7.9 10.4 13 13.7 11.3 3.3-1.7 10.1-3 10.1-9.8"/><path fill="none" stroke="#DDE5CE" stroke-width="5" stroke-miterlimit="10" d="M312.8 260.4c0 0 35.3 54.4 47.3 63.5"/><path fill="none" stroke="#DDE5CE" stroke-width="5" stroke-miterlimit="10" d="M331.1 287.6c-1.1 5.7-7.4 12.5-7.4 12.5"/></svg>