<svg version="1.1" xmlns="http://www.w3.org/2000/svg" xmlns:xlink="http://www.w3.org/1999/xlink" viewBox="0 0 768 975" enable-background="new 0 0 768 975" xml:space="preserve">
<g id="circle">
	<circle fill="#DDE5CE" cx="384.51" cy="731.426" r="125.426"/>
</g>
<g id="rr">
	<g>
		<path fill="#CB394D" d="M372.483,689.998c6.8,0,12.116,1.668,15.95,5c3.832,3.335,5.75,7.9,5.75,13.7
			c0,4.335-0.984,8.135-2.949,11.4c-1.969,3.267-5.117,5.5-9.451,6.7v0.199c2.065,0.4,3.75,1.067,5.05,2
			c1.299,0.935,2.332,2.051,3.1,3.351c0.766,1.3,1.332,2.75,1.699,4.35c0.367,1.601,0.65,3.268,0.852,5
			c0.133,1.734,0.232,3.5,0.299,5.3c0.066,1.801,0.232,3.567,0.5,5.301c0.266,1.734,0.65,3.384,1.15,4.949
			c0.5,1.567,1.25,2.95,2.25,4.15h-10.6c-0.668-0.732-1.117-1.732-1.351-3c-0.234-1.266-0.384-2.683-0.45-4.25
			c-0.067-1.565-0.135-3.25-0.2-5.05c-0.067-1.8-0.267-3.565-0.6-5.3c-0.267-1.733-0.6-3.383-1-4.95
			c-0.4-1.565-1.034-2.933-1.9-4.101c-0.867-1.165-2-2.1-3.4-2.8s-3.267-1.05-5.6-1.05h-23.2v30.5h-9.5v-71.4H372.483z
			 M374.483,722.398c2-0.333,3.75-0.982,5.25-1.95c1.5-0.966,2.7-2.266,3.6-3.899c0.9-1.633,1.35-3.75,1.35-6.351
			c0-3.6-1-6.532-3-8.8c-2-2.266-5.234-3.4-9.7-3.4h-23.6v24.9h19.8C370.383,722.898,372.483,722.732,374.483,722.398z"/>
		<path fill="#EA5F72" d="M418.683,709.698v10.9h0.2c2.065-4.2,4.601-7.3,7.601-9.3s6.8-2.934,11.399-2.801v9
			c-3.399,0-6.3,0.468-8.7,1.4c-2.399,0.935-4.334,2.3-5.8,4.1c-1.467,1.801-2.534,3.984-3.2,6.551c-0.667,2.566-1,5.517-1,8.85v23
			h-8.5v-51.7H418.683z"/>
	</g>
</g>
<g id="r">
	<g>
		<path fill="none" stroke="#DDE5CE" stroke-width="5" stroke-miterlimit="10" d="M434.187,581.383
			c0-22.686-4.363-78.259,3.294-96.42c7.66-18.14,48.707-89.395,31.721-120.237c-4.365-7.943-19.697-22.68-18.602-37.423
			c1.1-14.754-5.459-49.909-13.119-69.199c-7.657-19.272-9.858-48.775-61.271-127.035c2.183-12.48,7.659-49.92-17.506-55.585
			c-25.165-5.675-22.971,23.81-24.064,30.625c-3.277,3.402-10.948,10.207-4.377,24.96c-1.088,7.944-8.201,64.081,0.542,85.634
			c-8.742,5.659-30.078,6.228-30.078,23.257c0,16.999-1.094,43.092,0,47.634c-8.754-2.267-18.595-5.68-21.883,7.934
			c-3.288,13.62-10.941,40.847-8.742,56.73c2.165,15.888,10.918,40.832,12.03,55.58c1.088,14.748-2.193,32.881,20.778,73.736
			c-3.277,19.267-4.372,65.778,1.094,103.208"/>
		<path fill="none" stroke="#DDE5CE" stroke-width="5" stroke-miterlimit="10" d="M319.319,500.839
			c7.653,9.089,32.818,26.105,53.62,0"/>
		<path fill="none" stroke="#DDE5CE" stroke-width="5" stroke-miterlimit="10" d="M390.433,357.91
			c-7.653,17.033-27.354,51.055-7.653,112.303"/>
		<path fill="none" stroke="#DDE5CE" stroke-width="5" stroke-miterlimit="10" d="M335.182,104.75
			c4.382-2.273,25.156,0.045,40.48,25"/>
		<path fill="none" stroke="#DDE5CE" stroke-width="5" stroke-miterlimit="10" d="M330.261,131.068
			c2.734,5.67,21.331,39.691,23.525,52.735c2.182,13.051,6.006,25.524,12.029,34.597c6.018,9.078,9.301,24.391,9.847,28.927"/>
		<path fill="none" stroke="#DDE5CE" stroke-width="5" stroke-miterlimit="10" d="M416.688,245.634
			c-14.771,1.693-25.161,6.811-30.085,5.665c-4.923-1.141-14.223-2.844-19.689,1.146"/>
		<path fill="none" stroke="#DDE5CE" stroke-width="5" stroke-miterlimit="10" d="M330.802,216.703
			c8.206,9.066,50.878,48.769,63.46,94.153c7.112,10.207,10.395,27.223-1.094,34.591c-11.489,7.368-18.053-1.704-19.689-2.274"/>
		<path fill="none" stroke="#DDE5CE" stroke-width="5" stroke-miterlimit="10" d="M300.725,287.593
			c7.671,2.837,50.867,24.955,56.348,35.167c7.654,2.263,18.589,10.207,14.76,23.251c-3.83,13.044-21.324,15.318-32.818,8.52
			c-11.483-6.816-29.537-20.982-51.42-25.536"/>
		<path fill="none" stroke="#DDE5CE" stroke-width="5" stroke-miterlimit="10" d="M312.76,339.783
			c-7.111,1.686-23.518,7.362-25.711,10.194"/>
		<path fill="none" stroke="#DDE5CE" stroke-width="5" stroke-miterlimit="10" d="M324.238,356.782
			c0,10.793-20.784,24.96-26.796,27.222"/>
		<path fill="none" stroke="#DDE5CE" stroke-width="5" stroke-miterlimit="10" d="M396.997,346.011
			c4.378,13.608,25.712,51.037,43.755,56.719"/>
		<path fill="none" stroke="#DDE5CE" stroke-width="5" stroke-miterlimit="10" d="M388.164,293.836
			c2.193-12.479,21.418-38.577,33.441-32.895c12.041,5.682,9.301,19.29,8.218,26.093c-1.096,6.805,0,19.279,3.282,23.821
			c3.282,4.524,15.898,18.237,18.079,23.332"/>
		<path fill="none" stroke="#DDE5CE" stroke-width="5" stroke-miterlimit="10" d="M430.717,280.537
			c-3.282,2.285-11.288,9.889-9.657,14.442c1.649,4.537,6.748,10.759,10.03,11.317"/>
		<path fill="none" stroke="#DDE5CE" stroke-width="5" stroke-miterlimit="10" d="M393.581,308.499
			c-3.829-3.402-16.278-2.76-18.465,1.217c-2.177,3.972-3.283,18.156,1.093,22.675c4.382,4.542,22.689-1.757,24.32-5.17"/>
		<path fill="none" stroke="#DDE5CE" stroke-width="5" stroke-miterlimit="10" d="M356.28,321.541
			c-3.834,0.563-13.436,5.203-8.506,13.136c4.911,7.932,10.388,13.038,13.664,11.334c3.289-1.699,10.058-2.969,10.058-9.761"/>
		<path fill="none" stroke="#DDE5CE" stroke-width="5" stroke-miterlimit="10" d="M312.76,260.383c0,0,35.283,54.423,47.313,63.496"
			/>
		<path fill="none" stroke="#DDE5CE" stroke-width="5" stroke-miterlimit="10" d="M331.112,287.593
			c-1.088,5.67-7.422,12.486-7.422,12.486"/>
	</g>
</g>
</svg>
