<svg version="1.1" id="Layer_1" xmlns="http://www.w3.org/2000/svg" xmlns:xlink="http://www.w3.org/1999/xlink" viewBox="0 -275 768 980" enable-background="new 0 -275 768 980" xml:space="preserve">
<circle fill="#DDF2F2" cx="406.283" cy="460.062" r="97.562"/>
<polyline fill="none" points="264.515,303.975 264.515,-135.873 691.428,-135.873 691.428,303.975 "/>
<g enable-background="new    ">
	<path fill="#DDF2F2" d="M432.371,37.613l7.275-1.456l-6.791,5.336v9.704l9.215,1.456l-9.215,2.909l-0.486,9.704
		c3.879,6.148,6.465,11.811,7.762,16.98c1.289,5.176,2.016,10.914,2.184,17.22c0.16,6.307-3.154,1.212-9.945-15.281
		c-8.732-17.139-18.275-30.723-28.625-40.75l-12.613,6.306l7.762-9.218l-13.584,6.792l11.645-10.188l-11.645,5.336l8.732-8.731
		c-6.148-5.496-13.266-8.406-21.346-8.732c-2.912,7.762-5.42,12.372-7.52,13.826c-2.108,1.456-8.975,0.41-20.618-3.152
		c-4.208-2.26-4.208-7.596,0-16.01c-5.177-1.616-9.059,0-11.643,4.852c-1.939,4.208-1.866,8.656,0.242,13.341
		c2.1,4.693,8.49,11.726,19.164,21.104c12.932,10.356,21.346,20.862,25.226,31.534c5.168,16.176,12.37,27.008,21.588,32.504
		c9.219,5.504,11.561,8.088,7.033,7.762c-4.531-0.317-11.482-5.17-20.859-14.552c5.496,14.552,7.52,21.27,6.064,20.132
		c-1.457-1.13-3.723-4.852-6.793-11.158c-3.078-6.306-6.231-13.174-9.459-20.62c-5.502,6.475-8.815,13.183-9.945,20.133
		c-1.137,6.958-1.622,15.691-1.456,26.197c0.159,10.515-0.895,11.158-3.154,1.942c-2.266-9.218-2.834-17.952-1.698-26.198
		c1.13-8.248,3.154-14.796,6.064-19.647c-3.882-0.645-7.202-1.614-9.946-2.91c-2.752-1.29-6.231-4.2-10.43-8.732
		c-3.236,4.208-7.845,6.632-13.826,7.278c-5.988,0.652-10.756,0-14.31-1.942c-3.564-1.939-6.959-4.2-10.188-6.792
		c-2.592,25.878-1.296,46.412,3.88,61.612c5.17,15.206,12.53,31.458,22.074,48.756c9.536,17.304,15.439,32.579,17.708,45.845
		c2.258,13.258,3.396,28.781,3.396,46.57h-8.731c-0.326-32.344-4.532-56.275-12.614-71.797
		c-9.702-20.376-17.95-37.916-24.742-52.636c-6.792-14.712-10.271-31.124-10.43-49.24c-0.166-18.11,0.728-29.912,2.668-35.414
		c-7.762-8.406-13.098-16.812-16.01-25.226c-2.912-8.406-2.912-16.736,0-24.984s10.188-12.044,21.832-11.4
		c-1.296-11.962,1.855-20.292,9.46-24.983c7.594-4.685,15.926-5.252,24.983-1.698c1.288-5.496,4.282-10.262,8.975-14.31
		c4.684-4.042,10.264-5.898,16.736-5.58c6.466,0.325,11.962,1.939,16.495,4.85c0.645-3.88,3.154-6.624,7.521-8.248
		c4.365-1.614,12.529-0.728,24.5,2.668c11.959,3.396,23.688,12.78,35.17,28.136c11.475,15.364,17.541,35.5,18.191,60.4
		c-1.297,38.492-2.994,67.758-5.094,87.806c-2.107,20.059-3.723,40.108-4.85,60.156c-1.139,20.05,3.637,47.216,14.309,81.501h-9.215
		c-2.592-7.762-5.906-21.102-9.945-40.023c-4.049-18.92-5.262-37.354-3.639-55.304c1.613-17.95,3.639-40.584,6.064-67.918
		c2.426-27.325,3.713-46.89,3.879-58.7c0.16-11.802-0.568-21.989-2.184-30.563c-1.621-8.564-5.418-17.784-11.4-27.652
		c-5.988-9.861-12.537-17.38-19.648-22.558c-7.117-5.17-14.477-8.324-22.072-9.46c-7.604-1.13-11.969,0.567-13.1,5.094
		c-1.135,4.534-1.211,15.206-0.242,32.019c16.168,11.325,28.297,24.424,36.385,39.296c0-15.526,0.803-28.458,2.424-38.811
		C430.592,11.743,431.719,16.919,432.371,37.613z M329.039,77.395c-5.822-7.111-10.756-14.873-14.796-23.287
		c-4.048-8.406-6.548-15.198-7.52-20.377c-7.444-1.615-12.538-0.075-15.282,4.61c-2.752,4.692-3.396,10.272-1.94,16.736
		c1.456,6.472,4.526,12.939,9.216,19.403c4.685,6.475,11.4,12.782,20.133,18.921C318.199,87.583,321.595,82.247,329.039,77.395z
		 M365.909,82.73c-11.642-11.315-22.8-21.989-33.474-32.018c-4.853-5.496-7.603-10.992-8.248-16.496
		c-0.652-5.494,0.076-10.188,2.182-14.067c2.101-3.881,6.382-6.465,12.856-7.763c-0.652-1.939-0.812-3.714-0.486-5.336
		c-6.474-2.912-12.614-2.912-18.434,0c-5.822,2.91-8.089,8.898-6.792,17.95c1.939,13.91,6.867,26.766,14.796,38.568
		c7.922,11.808,15.766,21.588,23.53,29.35c-0.326-4.852,1.212-7.838,4.607-8.974C359.845,82.815,362.999,82.413,365.909,82.73z
		 M320.307,94.373c1.939,0.97,4.85,1.38,8.731,1.212c3.88-0.158,7.437-1.698,10.672-4.608c-3.563-4.201-6.792-8.405-9.703-12.613
		C322.893,82.573,319.655,87.909,320.307,94.373z M342.623,205.469c3.88-0.644,9.62-1.775,17.223-3.396
		c7.594-1.616,15.355-2.101,23.285-1.456c7.92,0.649,12.688,0.81,14.311,0.483c-3.562-1.939-7.688-3.228-12.371-3.88
		c-4.692-0.644-8.9-1.046-12.614-1.212c-3.722-0.158-8.172,0.484-13.342,1.942C353.941,199.405,348.445,201.913,342.623,205.469z
		 M370.761,24.515l-24.742-4.368c-2.267,3.881-3.238,7.604-2.912,11.158c0,2.91,5.979,5.019,17.95,6.307
		C364.939,38.583,368.167,34.217,370.761,24.515z M381.433,19.177V-7.019c-16.82-8.732-28.624-5.011-35.414,11.157
		c-0.652,3.562-0.486,6.792,0.483,9.702C357.821,14.167,369.464,15.949,381.433,19.177z M373.67,98.253
		c-1.624-6.464-4.048-11.158-7.277-14.068c-7.444-0.317-11.645,1.212-12.614,4.61c-0.97,3.396-0.326,5.82,1.94,7.278
		c2.258,1.456,4.283,2.668,6.063,3.638c1.774,0.968,3.714,1.456,5.822,1.456C369.707,101.167,371.731,100.195,373.67,98.253z
		 M355.237,210.805c1.616-1.29,3.798-2.184,6.55-2.668c2.744-0.485,6.548,0.242,11.4,2.183L355.237,210.805z M397.928,208.863
		c-4.535-2.584-8.33-3.471-11.4-2.668c-3.079,0.81-5.42,1.54-7.035,2.184L397.928,208.863z"/>
</g>
<g enable-background="new    ">
	<path fill="#F44D8D" d="M417.988,426.33c-4.023-2.922-9.166-4.381-15.432-4.381c-2.539,0-5.039,0.254-7.494,0.762
		c-2.457,0.51-4.635,1.355-6.541,2.543s-3.43,2.775-4.573,4.764c-1.144,1.99-1.714,4.465-1.714,7.43
		c0,2.793,0.826,5.061,2.476,6.793c1.652,1.736,3.852,3.156,6.604,4.256c2.75,1.104,5.865,2.014,9.336,2.73
		c3.471,0.721,7.006,1.504,10.607,2.35c3.598,0.85,7.131,1.842,10.605,2.984c3.469,1.145,6.584,2.689,9.334,4.637
		c2.75,1.949,4.953,4.404,6.605,7.367c1.652,2.965,2.477,6.689,2.477,11.178c0,4.826-1.08,8.955-3.24,12.383
		s-4.934,6.225-8.32,8.383c-3.389,2.158-7.176,3.727-11.367,4.701c-4.193,0.973-8.363,1.459-12.51,1.459
		c-5.08,0-9.887-0.635-14.416-1.904c-4.533-1.271-8.511-3.197-11.941-5.781c-3.43-2.582-6.14-5.883-8.128-9.906
		c-1.99-4.021-2.986-8.785-2.986-14.289h11.433c0,3.809,0.739,7.092,2.222,9.842c1.479,2.754,3.43,5.018,5.842,6.797
		c2.414,1.777,5.229,3.092,8.445,3.938c3.219,0.848,6.52,1.27,9.908,1.27c2.709,0,5.439-0.254,8.191-0.762
		c2.75-0.508,5.229-1.377,7.432-2.604c2.201-1.227,3.979-2.9,5.334-5.02c1.354-2.115,2.031-4.824,2.031-8.127
		c0-3.133-0.826-5.672-2.477-7.623c-1.652-1.947-3.854-3.535-6.605-4.764c-2.752-1.225-5.863-2.221-9.334-2.984
		c-3.475-0.762-7.008-1.543-10.605-2.35c-3.602-0.803-7.135-1.734-10.607-2.793c-3.471-1.057-6.583-2.457-9.335-4.193
		c-2.752-1.732-4.954-3.977-6.604-6.73c-1.652-2.75-2.477-6.203-2.477-10.354c0-4.57,0.931-8.529,2.794-11.875
		c1.862-3.344,4.338-6.098,7.431-8.256c3.09-2.16,6.603-3.768,10.542-4.826c3.938-1.059,7.979-1.588,12.129-1.588
		c4.656,0,8.975,0.551,12.957,1.65c3.977,1.102,7.471,2.838,10.477,5.207c3.004,2.375,5.377,5.357,7.115,8.957
		c1.734,3.6,2.686,7.895,2.857,12.891h-11.432C424.359,433.973,422.01,429.25,417.988,426.33z"/>
</g>
</svg>
