<svg version="1.1" xmlns="http://www.w3.org/2000/svg" xmlns:xlink="http://www.w3.org/1999/xlink" viewBox="0 0 768 975" enable-background="new 0 0 768 975" xml:space="preserve">
<g id="circle">
	<circle fill="#DDE5CE" cx="384.51" cy="731.426" r="125.426"/>
</g>
<g id="ss">
	<g>
		<path fill="#CB394D" d="M368.133,699.748c-3.167-2.3-7.217-3.449-12.15-3.449c-2,0-3.967,0.199-5.9,0.6
			c-1.935,0.4-3.65,1.067-5.15,2c-1.5,0.935-2.7,2.185-3.6,3.75c-0.9,1.567-1.35,3.518-1.35,5.85c0,2.2,0.65,3.984,1.95,5.351
			c1.3,1.367,3.033,2.484,5.2,3.35c2.166,0.867,4.616,1.585,7.35,2.15c2.733,0.567,5.516,1.185,8.35,1.85
			c2.833,0.667,5.616,1.45,8.35,2.351c2.733,0.899,5.183,2.117,7.35,3.649c2.166,1.534,3.9,3.468,5.2,5.8
			c1.3,2.335,1.95,5.268,1.95,8.801c0,3.8-0.85,7.05-2.55,9.75c-1.7,2.699-3.884,4.899-6.55,6.6c-2.667,1.7-5.65,2.935-8.95,3.7
			c-3.3,0.766-6.584,1.149-9.85,1.149c-4,0-7.785-0.5-11.35-1.5c-3.567-1-6.7-2.516-9.4-4.55c-2.7-2.032-4.834-4.633-6.4-7.8
			c-1.567-3.166-2.35-6.916-2.35-11.25h9c0,3,0.583,5.584,1.75,7.75c1.166,2.167,2.7,3.95,4.6,5.35c1.9,1.4,4.116,2.435,6.65,3.101
			c2.533,0.667,5.133,1,7.8,1c2.133,0,4.283-0.2,6.45-0.601c2.166-0.399,4.115-1.082,5.85-2.05c1.733-0.966,3.133-2.282,4.2-3.95
			c1.065-1.665,1.6-3.8,1.6-6.399c0-2.466-0.65-4.466-1.95-6c-1.3-1.533-3.034-2.783-5.2-3.75c-2.167-0.966-4.617-1.75-7.35-2.351
			c-2.734-0.6-5.517-1.215-8.35-1.85c-2.834-0.633-5.617-1.365-8.35-2.2c-2.734-0.833-5.184-1.933-7.35-3.3
			c-2.167-1.365-3.9-3.133-5.2-5.3c-1.3-2.166-1.95-4.883-1.95-8.15c0-3.6,0.733-6.716,2.2-9.35c1.465-2.633,3.416-4.8,5.85-6.5
			c2.433-1.7,5.2-2.966,8.3-3.8c3.1-0.833,6.283-1.25,9.55-1.25c3.666,0,7.066,0.434,10.2,1.3c3.133,0.867,5.883,2.234,8.25,4.1
			c2.366,1.867,4.233,4.218,5.6,7.05c1.366,2.835,2.116,6.218,2.25,10.15h-9C373.148,705.766,371.299,702.049,368.133,699.748z"/>
		<path fill="#EA5F72" d="M407.283,749.849c0.8,1.3,1.85,2.334,3.149,3.1c1.3,0.768,2.766,1.317,4.4,1.65
			c1.633,0.334,3.315,0.5,5.05,0.5c1.333,0,2.732-0.101,4.2-0.3c1.466-0.2,2.815-0.566,4.05-1.101c1.232-0.532,2.25-1.315,3.05-2.35
			c0.8-1.033,1.2-2.351,1.2-3.95c0-2.2-0.834-3.865-2.5-5c-1.667-1.133-3.75-2.05-6.25-2.75s-5.217-1.333-8.15-1.9
			c-2.934-0.565-5.649-1.365-8.149-2.399c-2.5-1.033-4.585-2.483-6.25-4.351c-1.667-1.865-2.5-4.465-2.5-7.8
			c0-2.6,0.583-4.833,1.75-6.7c1.165-1.865,2.665-3.383,4.5-4.55c1.833-1.165,3.899-2.032,6.2-2.6c2.3-0.565,4.582-0.851,6.85-0.851
			c2.933,0,5.633,0.25,8.1,0.75c2.466,0.5,4.65,1.367,6.551,2.601c1.899,1.234,3.415,2.899,4.55,5c1.133,2.1,1.8,4.717,2,7.85h-8.5
			c-0.135-1.665-0.567-3.05-1.3-4.149c-0.734-1.101-1.668-1.983-2.801-2.65c-1.134-0.666-2.384-1.15-3.75-1.45
			c-1.367-0.3-2.75-0.45-4.149-0.45c-1.268,0-2.55,0.101-3.851,0.301c-1.3,0.199-2.484,0.55-3.55,1.05c-1.067,0.5-1.935,1.167-2.6,2
			c-0.667,0.834-1,1.917-1,3.25c0,1.467,0.516,2.685,1.55,3.649c1.033,0.968,2.35,1.768,3.95,2.4c1.6,0.635,3.399,1.167,5.399,1.6
			c2,0.435,4,0.885,6,1.351c2.133,0.467,4.216,1.034,6.25,1.7c2.033,0.667,3.833,1.55,5.4,2.649c1.565,1.101,2.833,2.484,3.8,4.15
			c0.966,1.667,1.45,3.734,1.45,6.2c0,3.134-0.65,5.734-1.95,7.8c-1.3,2.067-3,3.734-5.1,5c-2.101,1.267-4.468,2.149-7.101,2.649
			c-2.634,0.5-5.25,0.75-7.85,0.75c-2.867,0-5.6-0.3-8.2-0.899c-2.6-0.601-4.899-1.583-6.899-2.95c-2-1.365-3.601-3.166-4.801-5.4
			c-1.199-2.232-1.867-4.949-2-8.149h8.5C406.049,746.966,406.482,748.549,407.283,749.849z"/>
	</g>
</g>
<g id="s">
	<g>
		<path fill="none" stroke="#DDE5CE" stroke-width="5" stroke-miterlimit="10" d="M479.878,496.525
			c-1.207-21.921-2.603-44.434-1.274-65.488c1.26-19.718,20.047-37.751,20.891-60.01c1.566-41.577,36.527-99.604,7.852-126.542
			c-11.722-11.029-8.465-86.094-40.336-127.268c-15.246-19.661-26.213-35.166-51.47-39.092c-14.86-2.321-29.531,2.324-39.04,11.983
			c-8.988,9.104-9.644,37.422-0.76,49.674c-14.798-14.192-29.011-24.253-45.343-24.026c-19.714,0.267-23.725,16.828-24.293,34.484
			c-0.125,3.913-1.358,14.86,3.715,19.973c-7.598-3.952-17.56-1.78-23.555-0.84c-27.85,4.487-25.516,35.531-19.973,59.238
			c-20.26-16.433-47.929,23.08-44.325,37.34c-5.101,12.214-2.509,40.429,1.929,56.136c4.39,15.568,28.853,50.5,32.92,59.729
			c5.6,12.709,9.685,67.875,21.731,84.866c8.03,11.333,30.208,46.106,31.206,51.324c1.012,5.205,8.902,43.61,10.721,50.744"/>
		<path fill="none" stroke="#DDE5CE" stroke-width="5" stroke-miterlimit="10" d="M379.717,430.755
			c-2.964-20.021-6.195-40.21-5.43-60.208c1.424-37.292,21.601-60.676,52.081-83.569c0.584-0.456-9.442-19.171-7.436-23.246
			c0,0-28.17-25.251-22.356-35.747c-40.587,15.285-86.987-7.386-86.756-57.771"/>
		<path fill="none" stroke="#DDE5CE" stroke-width="5" stroke-miterlimit="10" d="M504.252,239.399
			c-20.781-9.458-37.387-21.149-53.923-46.052c-9.141-13.772-32.479-23.969-43.16-25.822c-25.341-4.306-27.625-7.484-40.432,8.399
			c-7.516,9.287-45.99,13.406-56.917-5.711c16.988-9.175,46.565-4.496,63.479-3.002"/>
		<path fill="none" stroke="#DDE5CE" stroke-width="5" stroke-miterlimit="10" d="M458.724,205.282
			c0.976-19.532-3.404-39.647-20.898-64.565"/>
		<path fill="none" stroke="#DDE5CE" stroke-width="5" stroke-miterlimit="10" d="M375.74,139.783
			c4.426,16.176,9.528,14.069,15.128,23.592"/>
		<path fill="none" stroke="#DDE5CE" stroke-width="5" stroke-miterlimit="10" d="M370.541,292.72
			C366,287.01,356.5,287.01,356.5,287.01c-28.087-6.01-25.505,29.27-24.948,31.205c3.28,11.459,20.271,13.138,23.234,12.674
			c5.686-0.852,9.609-3.629,14.418-9.093c13.037-14.768,2.455-25.079-4.511-40.614c-8.753-19.518-18.596-44.677-33.458-62.154"/>
		<path fill="none" stroke="#DDE5CE" stroke-width="5" stroke-miterlimit="10" d="M265.717,226.06
			c11.545,14.39,70.834,74.994,61.703,103.392c-2.005,6.204-11.509,17.213-29.354,12.159C282.5,296.5,312,307.386,327.423,317.182"
			/>
		<path fill="none" stroke="#DDE5CE" stroke-width="5" stroke-miterlimit="10" d="M227.86,274.794
			c23.077,28.775,33.949,54.17,70.207,66.817"/>
		<path fill="none" stroke="#DDE5CE" stroke-width="5" stroke-miterlimit="10" d="M410.14,271.947
			C368.884,253,376.25,297.68,376.25,297.68c7.899,19.256,36.396,6.436,38.009-8.865c1.584-15.28-15.603-44.782-21.013-56.642"/>
	</g>
</g>
</svg>
