<svg version="1.1" xmlns="http://www.w3.org/2000/svg" viewBox="0 0 768 975" enable-background="new 0 0 768 975" xml:space="preserve"><circle fill="#DDE5CE" cx="384.5" cy="731.4" r="125.4"/><path fill="#CB394D" d="M368.1 699.7c-3.2-2.3-7.2-3.4-12.1-3.4 -2 0-4 0.2-5.9 0.6 -1.9 0.4-3.6 1.1-5.1 2 -1.5 0.9-2.7 2.2-3.6 3.8 -0.9 1.6-1.3 3.5-1.3 5.9 0 2.2 0.7 4 2 5.4 1.3 1.4 3 2.5 5.2 3.4 2.2 0.9 4.6 1.6 7.4 2.2 2.7 0.6 5.5 1.2 8.4 1.9 2.8 0.7 5.6 1.5 8.4 2.4 2.7 0.9 5.2 2.1 7.4 3.6 2.2 1.5 3.9 3.5 5.2 5.8 1.3 2.3 2 5.3 2 8.8 0 3.8-0.8 7.1-2.5 9.8 -1.7 2.7-3.9 4.9-6.5 6.6 -2.7 1.7-5.6 2.9-8.9 3.7 -3.3 0.8-6.6 1.1-9.8 1.1 -4 0-7.8-0.5-11.3-1.5 -3.6-1-6.7-2.5-9.4-4.5 -2.7-2-4.8-4.6-6.4-7.8 -1.6-3.2-2.3-6.9-2.3-11.2h9c0 3 0.6 5.6 1.8 7.8 1.2 2.2 2.7 4 4.6 5.4 1.9 1.4 4.1 2.4 6.7 3.1 2.5 0.7 5.1 1 7.8 1 2.1 0 4.3-0.2 6.5-0.6 2.2-0.4 4.1-1.1 5.9-2 1.7-1 3.1-2.3 4.2-3.9 1.1-1.7 1.6-3.8 1.6-6.4 0-2.5-0.6-4.5-1.9-6 -1.3-1.5-3-2.8-5.2-3.7 -2.2-1-4.6-1.7-7.3-2.4 -2.7-0.6-5.5-1.2-8.3-1.8 -2.8-0.6-5.6-1.4-8.3-2.2 -2.7-0.8-5.2-1.9-7.3-3.3 -2.2-1.4-3.9-3.1-5.2-5.3 -1.3-2.2-1.9-4.9-1.9-8.1 0-3.6 0.7-6.7 2.2-9.3 1.5-2.6 3.4-4.8 5.9-6.5 2.4-1.7 5.2-3 8.3-3.8 3.1-0.8 6.3-1.2 9.6-1.2 3.7 0 7.1 0.4 10.2 1.3 3.1 0.9 5.9 2.2 8.3 4.1 2.4 1.9 4.2 4.2 5.6 7.1 1.4 2.8 2.1 6.2 2.3 10.2h-9C373.1 705.8 371.3 702 368.1 699.7z"/><path fill="#EA5F72" d="M407.3 749.8c0.8 1.3 1.9 2.3 3.1 3.1 1.3 0.8 2.8 1.3 4.4 1.7 1.6 0.3 3.3 0.5 5.1 0.5 1.3 0 2.7-0.1 4.2-0.3 1.5-0.2 2.8-0.6 4.1-1.1 1.2-0.5 2.3-1.3 3.1-2.3 0.8-1 1.2-2.4 1.2-3.9 0-2.2-0.8-3.9-2.5-5 -1.7-1.1-3.7-2-6.2-2.7s-5.2-1.3-8.1-1.9c-2.9-0.6-5.6-1.4-8.1-2.4 -2.5-1-4.6-2.5-6.2-4.4 -1.7-1.9-2.5-4.5-2.5-7.8 0-2.6 0.6-4.8 1.8-6.7 1.2-1.9 2.7-3.4 4.5-4.5 1.8-1.2 3.9-2 6.2-2.6 2.3-0.6 4.6-0.9 6.9-0.9 2.9 0 5.6 0.3 8.1 0.8 2.5 0.5 4.7 1.4 6.6 2.6 1.9 1.2 3.4 2.9 4.6 5 1.1 2.1 1.8 4.7 2 7.9h-8.5c-0.1-1.7-0.6-3-1.3-4.1 -0.7-1.1-1.7-2-2.8-2.6 -1.1-0.7-2.4-1.1-3.7-1.4 -1.4-0.3-2.7-0.4-4.1-0.4 -1.3 0-2.5 0.1-3.9 0.3 -1.3 0.2-2.5 0.6-3.5 1.1 -1.1 0.5-1.9 1.2-2.6 2 -0.7 0.8-1 1.9-1 3.3 0 1.5 0.5 2.7 1.6 3.6 1 1 2.4 1.8 4 2.4 1.6 0.6 3.4 1.2 5.4 1.6 2 0.4 4 0.9 6 1.4 2.1 0.5 4.2 1 6.3 1.7 2 0.7 3.8 1.6 5.4 2.6 1.6 1.1 2.8 2.5 3.8 4.2 1 1.7 1.5 3.7 1.5 6.2 0 3.1-0.6 5.7-1.9 7.8 -1.3 2.1-3 3.7-5.1 5 -2.1 1.3-4.5 2.1-7.1 2.6 -2.6 0.5-5.2 0.8-7.8 0.8 -2.9 0-5.6-0.3-8.2-0.9 -2.6-0.6-4.9-1.6-6.9-2.9 -2-1.4-3.6-3.2-4.8-5.4 -1.2-2.2-1.9-4.9-2-8.1h8.5C406 747 406.5 748.5 407.3 749.8z"/><path fill="none" stroke="#DDE5CE" stroke-width="5" stroke-miterlimit="10" d="M479.9 496.5c-1.2-21.9-2.6-44.4-1.3-65.5 1.3-19.7 20-37.8 20.9-60 1.6-41.6 36.5-99.6 7.9-126.5 -11.7-11-8.5-86.1-40.3-127.3 -15.2-19.7-26.2-35.2-51.5-39.1 -14.9-2.3-29.5 2.3-39 12 -9 9.1-9.6 37.4-0.8 49.7 -14.8-14.2-29-24.3-45.3-24 -19.7 0.3-23.7 16.8-24.3 34.5 -0.1 3.9-1.4 14.9 3.7 20 -7.6-4-17.6-1.8-23.6-0.8 -27.8 4.5-25.5 35.5-20 59.2 -20.3-16.4-47.9 23.1-44.3 37.3 -5.1 12.2-2.5 40.4 1.9 56.1 4.4 15.6 28.9 50.5 32.9 59.7 5.6 12.7 9.7 67.9 21.7 84.9 8 11.3 30.2 46.1 31.2 51.3 1 5.2 8.9 43.6 10.7 50.7"/><path fill="none" stroke="#DDE5CE" stroke-width="5" stroke-miterlimit="10" d="M379.7 430.8c-3-20-6.2-40.2-5.4-60.2 1.4-37.3 21.6-60.7 52.1-83.6 0.6-0.5-9.4-19.2-7.4-23.2 0 0-28.2-25.3-22.4-35.7 -40.6 15.3-87-7.4-86.8-57.8"/><path fill="none" stroke="#DDE5CE" stroke-width="5" stroke-miterlimit="10" d="M504.3 239.4c-20.8-9.5-37.4-21.1-53.9-46.1 -9.1-13.8-32.5-24-43.2-25.8 -25.3-4.3-27.6-7.5-40.4 8.4 -7.5 9.3-46 13.4-56.9-5.7 17-9.2 46.6-4.5 63.5-3"/><path fill="none" stroke="#DDE5CE" stroke-width="5" stroke-miterlimit="10" d="M458.7 205.3c1-19.5-3.4-39.6-20.9-64.6"/><path fill="none" stroke="#DDE5CE" stroke-width="5" stroke-miterlimit="10" d="M375.7 139.8c4.4 16.2 9.5 14.1 15.1 23.6"/><path fill="none" stroke="#DDE5CE" stroke-width="5" stroke-miterlimit="10" d="M370.5 292.7C366 287 356.5 287 356.5 287c-28.1-6-25.5 29.3-24.9 31.2 3.3 11.5 20.3 13.1 23.2 12.7 5.7-0.9 9.6-3.6 14.4-9.1 13-14.8 2.5-25.1-4.5-40.6 -8.8-19.5-18.6-44.7-33.5-62.2"/><path fill="none" stroke="#DDE5CE" stroke-width="5" stroke-miterlimit="10" d="M265.7 226.1c11.5 14.4 70.8 75 61.7 103.4 -2 6.2-11.5 17.2-29.4 12.2C282.5 296.5 312 307.4 327.4 317.2"/><path fill="none" stroke="#DDE5CE" stroke-width="5" stroke-miterlimit="10" d="M227.9 274.8c23.1 28.8 33.9 54.2 70.2 66.8"/><path fill="none" stroke="#DDE5CE" stroke-width="5" stroke-miterlimit="10" d="M410.1 271.9C368.9 253 376.3 297.7 376.3 297.7c7.9 19.3 36.4 6.4 38-8.9 1.6-15.3-15.6-44.8-21-56.6"/></svg>