<svg version="1.1" id="Layer_1" xmlns="http://www.w3.org/2000/svg" xmlns:xlink="http://www.w3.org/1999/xlink" viewBox="0 -275 768 980" enable-background="new 0 -275 768 980" xml:space="preserve">
<circle fill="#DDF2F2" cx="398.867" cy="440.586" r="97.562"/>
<polyline fill="none" points="235.93,325.663 235.93,-114.187 662.844,-114.187 662.844,325.663 "/>
<g enable-background="new    ">
	<path fill="#DDF2F2" d="M444.054,113.636c2.584-5.82,6.306-10.347,11.157-13.582c-3.563-4.202-7.117-7.438-10.672-9.704
		c-3.563,5.178-6.792,8.974-9.704,11.399c-2.909,2.427-5.502,3.32-7.762,2.668c-4.534-1.941-8.332-4.365-11.4-7.277
		c-3.077-2.91-3.638-5.654-1.697-8.246c3.88-4.2,8.565-7.596,14.067-10.188c-8.731,3.562-16.334,4.532-22.8,2.91
		c-0.97,5.822-0.41,12.454,1.698,19.891c2.1,7.443,6.14,14.636,12.128,21.588c5.979,6.958,10.021,13.666,12.128,20.132
		c2.1,6.472,2.342,14.068,0.729,22.8c-1.94-10.022-3.965-16.979-6.064-20.862c-2.108-3.88-5.094-7.436-8.974-10.672
		c-7.444,7.762-11.082,16.736-10.916,26.924c0.159,10.188,0.97,18.194,2.426,24.015c1.456,5.821,2.184,8.899,2.184,9.218
		c-3.237-3.554-5.746-7.922-7.52-13.1c-1.782-5.17-2.668-11.801-2.668-19.889c0-8.082,1.29-14.63,3.882-19.647
		c2.584-5.011,5.496-9.292,8.731-12.856c-4.533-5.496-8.331-11.718-11.401-18.678c-3.078-6.952-4.851-12.614-5.336-16.98
		c-0.486-4.365-0.41-9.132,0.242-14.31c-4.532-1.942-7.763-6.064-9.702-12.372c-1.94-6.308,4.04-15.04,17.95-26.198
		c13.901-11.158,23.119-18.996,27.651-23.527l-10.188-35.416c-6.792-25.227-14.555-48.028-23.286-68.404
		c-7.118-16.168-13.75-23.604-19.891-22.316c-9.384,1.94-13.266,9.216-11.644,21.83c3.229,25.878,7.278,51.183,12.128,75.922
		c4.852,24.742,6.952,38.408,6.306,40.994c-0.651,2.592-2.266,0-4.85-7.764c-2.592-7.762-5.018-14.956-7.278-21.588
		c-2.266-6.624-5.662-14.229-10.188-22.8c-4.534-8.566-9.218-17.95-14.07-28.137c-4.85-10.188-10.112-20.536-15.766-31.048
		c-5.662-10.506-11.727-15.04-18.192-13.584c-6.472,1.456-7.2,12.37-2.182,32.746c5.01,20.376,9.861,36.066,14.554,47.058
		c4.684,10.998,10.75,26.038,18.192,45.118c2.258,6.473,5.17,15.04,8.731,25.71c-0.326,2.592-3.562,6.307-9.702,11.158l4.851-7.762
		c-5.176-3.555-11.082-8.893-17.708-16.01c-6.632-7.11-13.424-14.471-20.376-22.074c-6.958-7.594-14.639-15.282-23.044-23.042
		c-8.414-7.763-14.962-10.748-19.648-8.975c-4.692,1.782-6.55,5.906-5.58,12.372c0.97,6.473,6.225,16.494,15.767,30.078
		c9.535,13.584,24.817,33.154,45.844,58.7l9.702-4.851l-7.763,7.276c2.912,3.562,5.58,10.114,8.004,19.648
		c2.427,9.542,5.337,24.498,8.732,44.876c3.396,20.376,8.808,37.84,16.25,52.392c7.436,14.554,14.229,29.276,20.376,44.146
		c6.14,14.875,9.216,36.545,9.216,65.008h-9.216c0.97-34.611-6.632-65.656-22.8-93.145c-11.326-20.375-19.004-44.629-23.044-72.769
		c-4.048-28.136-8.975-46.162-14.796-54.092c-5.822-7.92-16.334-21.263-31.534-40.024c-22.316-29.752-33.474-50.286-33.474-61.611
		c0-6.139,1.613-10.589,4.852-13.341c3.228-2.743,7.11-4.124,11.642-4.124c3.557,0,7.597,1.297,12.128,3.881
		c6.467,3.88,13.416,10.027,20.86,18.434c13.902,14.554,24.574,26.122,32.019,34.688c7.436,8.572,5.336,0.084-6.307-25.468
		c-11.644-25.546-19.647-47.3-24.014-65.25s-5.019-31.534-1.94-40.75c3.07-9.218,8.977-12.372,17.708-9.46
		c8.732,2.91,15.842,10.672,21.344,23.286c11.645,23.612,18.921,38.326,21.832,44.146c2.912,5.822,2.503-0.243-1.212-18.191
		c-3.722-17.95-5.336-31.208-4.85-39.78c0.484-8.565,2.258-14.388,5.336-17.464c3.07-3.07,7.034-4.926,11.886-5.58
		c14.872-3.229,28.94,16.008,42.206,57.73c8.08,25.552,15.685,51.264,22.8,77.134c21.99,0.326,34.118,3.88,36.385,10.674
		c17.783,43.019,25.872,89.264,24.256,138.746c0,10.672-1.94,22.966-5.822,36.87c-3.88,13.91-6.148,24.742-6.792,32.504
		c-1.296,7.117,4.2,34.764,16.494,82.957h-8.248l-14.554-59.186c-2.592-10.672-2.912-21.02-0.971-31.049
		c1.614-10.671,4.284-22.23,8.005-34.685c3.714-12.448,4.85-30.807,3.396-55.062s-4.534-46.162-9.218-65.733
		c-4.692-19.564-8.656-32.664-11.884-39.294c-3.238-6.626-13.267-9.78-30.078-9.46c-3.562-0.318-7.118,1.212-10.672,4.609
		c-3.562,3.395-9.704,8.814-18.435,16.252c8.406,3.562,11.96,6.63,10.672,9.216c-2.592,4.208-5.662,7.604-9.216,10.188
		c-3.562,2.592-6.474,3.396-8.731,2.426c-3.881-0.97-7.118-2.91-9.702-5.822c-2.267,4.208-0.971,7.931,3.88,11.158
		c4.85,3.236,11.718,3.88,20.618,1.942c8.892-1.942,19.563-6.624,32.018-14.068c12.448-7.438,16.412-8.892,11.886-4.368
		c-4.531,4.534-8.088,8.004-10.672,10.431c-2.592,2.426-8.248,5.579-16.979,9.46c5.821,0.326,9.945,0.567,12.372,0.726
		c2.426,0.168,8.323-0.886,17.708-3.152c-4.208,3.881-8.49,6.146-12.856,6.792c-4.366,0.652-9.786,0-16.252-1.939
		c8.08,5.178,13.416,8.897,16.008,11.158c2.584,2.266,5.982,5.819,10.188,10.672c2.912-2.258,6.466-3.88,10.672-4.853
		c-2.267,1.942-5.336,4.208-9.216,6.792c1.288,2.593,3.228,6.064,5.821,10.431c2.584,4.365,5.011,10.756,7.278,19.161
		c2.258,8.414,1.372,8.089-2.668-0.97c-4.048-9.048-10.596-18.594-19.648-28.622C452.619,106.359,448.579,110.407,444.054,113.636z
		 M296.573,16.609c-2.91,3.88-6.472,6.792-10.672,8.732C287.844,21.144,291.397,18.233,296.573,16.609z M318.405,42.808
		c-4.852,2.91-8.248,6.306-10.188,10.188C312.417,50.737,315.813,47.342,318.405,42.808z M310.644,55.905
		c3.88-1.614,7.594-4.684,11.158-9.216C317.27,48.63,313.554,51.705,310.644,55.905z M344.117-40.635
		c-5.176,2.592-10.354,4.048-15.523,4.366c1.289-1.288,3.556-2.426,6.792-3.396C338.613-40.635,341.525-40.952,344.117-40.635z
		 M362.067-0.368c-2.592,1.294-5.746,2.266-9.46,2.909c-3.723,0.652-6.391,0.811-8.004,0.484
		C349.771,0.115,355.594-1.013,362.067-0.368z M360.611,3.514c-5.176,0.326-9.87,1.294-14.068,2.91
		c3.555,0.325,6.548,0.166,8.975-0.484C357.943,5.294,359.642,4.483,360.611,3.514z M412.035,234.919
		c-16.176,3.236-26.521,4.852-31.048,4.852C394.243,235.89,404.592,234.274,412.035,234.919z M398.451-46.456
		c-2.91,0.97-5.662,1.539-8.248,1.697c-2.592,0.166-5.018,0.084-7.275-0.244c2.258-0.97,4.525-1.613,6.792-1.939
		C391.979-47.261,394.89-47.101,398.451-46.456z M407.184-3.28c-3.562,1.941-6.876,3.078-9.946,3.396
		c-3.078,0.326-6.064,0-8.974-0.97C394.729-2.469,401.035-3.28,407.184-3.28z M411.549,1.088
		c-5.502,2.592-11.483,3.562-17.949,2.909C398.77,2.384,404.757,1.413,411.549,1.088z M412.521,244.136
		c-6.475,1.295-12.78,1.135-18.92-0.484C399.096,242.681,405.403,242.849,412.521,244.136z M421.253,50.569l-4.852-2.91
		l-4.366-1.941l-15.04,14.069l3.88,3.395c5.496,3.562,10.832,2.752,16.011-2.426C422.056,55.587,423.512,52.191,421.253,50.569z
		 M443.083,89.38c-5.176-4.853-9.87-8.08-14.067-9.704c-2.912,1.941-5.42,3.722-7.521,5.338c-2.107,1.622-4.124,3.235-6.063,4.85
		c-0.971,1.942-0.242,4.048,2.184,6.306c2.426,2.269,5.898,4.209,10.43,5.822c1.616,0.971,3.714,0.242,6.307-2.184
		C436.936,97.384,439.848,93.913,443.083,89.38z M429.499,243.165c-5.504,0.652-10.188,0.486-14.069-0.484
		C419.631,241.392,424.321,241.552,429.499,243.165z M427.073,236.372c-3.88,0.973-7.444,0.973-10.672,0
		C418.659,235.403,422.224,235.403,427.073,236.372z M450.361,112.182c-3.238,3.562-2.752,3.88,1.456,0.97l6.306-5.336
		C454.56,109.109,451.976,110.567,450.361,112.182z"/>
</g>
<g enable-background="new    ">
	<path fill="#F44D8D" d="M366.096,404.632V394.47h72.525v10.162h-30.229v80.527h-12.066v-80.527H366.096z"/>
</g>
</svg>
