<svg version="1.1" xmlns="http://www.w3.org/2000/svg" xmlns:xlink="http://www.w3.org/1999/xlink" viewBox="0 0 768 975" enable-background="new 0 0 768 975" xml:space="preserve">
<g id="circle">
	<circle fill="#DDE5CE" cx="384.51" cy="731.426" r="125.426"/>
</g>
<g id="tt">
	<g>
		<path fill="#CB394D" d="M337.734,697.998v-8h57.1v8h-23.8v63.4h-9.5v-63.4H337.734z"/>
		<path fill="#EA5F72" d="M428.434,709.698v7.5h-10.3v32.101c0,1,0.083,1.8,0.25,2.399c0.165,0.601,0.482,1.067,0.95,1.4
			c0.465,0.334,1.115,0.55,1.949,0.649c0.833,0.101,1.916,0.15,3.25,0.15h3.9v7.5h-6.5c-2.2,0-4.084-0.15-5.65-0.45
			s-2.834-0.85-3.8-1.649c-0.967-0.801-1.685-1.934-2.149-3.4c-0.468-1.466-0.7-3.4-0.7-5.8v-32.9h-8.8v-7.5h8.8v-15.5h8.5v15.5
			H428.434z"/>
	</g>
</g>
<g id="t">
	<g>
		<path fill="none" stroke="#DDE5CE" stroke-width="5" stroke-miterlimit="10" d="M326.47,163.936
			c-12.584-16.69-35.973-14.791-42.109-8.141c-8.72,9.489-21.334,19.516-16.895,33.61c-18.601-8.705-35.566,0.182-42.452,12.449
			c-7.454,13.334-10.152,25.459-9.158,41.427c0.205,3.442-18.452-5.75-27.038,16.082c-37.454,95.283,28.98,179.763,48.039,211.533
			c9.392,15.622,26.791,34.231,26.791,34.231s1.463,37.016-0.139,57.662"/>
		<path fill="none" stroke="#DDE5CE" stroke-width="5" stroke-miterlimit="10" d="M376.526,132.284
			c-5.776-6.32-13.007-11.508-22.002-10.038c-8.172,1.335-14.373,7.68-18.14,14.716c-8.549,15.968-8.395,36.989-1.1,53.361
			c0.736,1.653,1.553,3.27,2.453,4.84"/>
		<path fill="none" stroke="#DDE5CE" stroke-width="5" stroke-miterlimit="10" d="M455.805,552.144C453.5,517,445.5,481,457.5,447
			c5-13,16-24,21-37c3-9,2-18,3-27c8-41,21-81,2-120c-5-9-11-16-19-23c-13-11-27.856-24.225-39.094-37.342"/>
		<path fill="none" stroke="#DDE5CE" stroke-width="5" stroke-miterlimit="10" d="M422.822,460.915
			c10.205-3.632,25.133,3.283,29.289-13.436"/>
		<path fill="none" stroke="#DDE5CE" stroke-width="5" stroke-miterlimit="10" d="M420.728,301.028"/>
		<path fill="none" stroke="#DDE5CE" stroke-width="5" stroke-miterlimit="10" d="M337.737,195.164
			c6.667,22.021,22.258,32.261,27.915,30.675c-1.537,13.916,13.486,20.923,17.97,27.927c14.313,23.417,23.012,23.655,37.106,47.262"
			/>
		<path fill="none" stroke="#DDE5CE" stroke-width="5" stroke-miterlimit="10" d="M326.47,163.936
			c10.229,30.116,25,61.767,37.146,89.367c4.155,9.436,19.331,36.949,23.838,53.247"/>
		<path fill="none" stroke="#DDE5CE" stroke-width="5" stroke-miterlimit="10" d="M389.847,312.857
			c-2.783-12.514-10.82-31.062-23.418-25.51c-14.872,6.576-17.933,24.029-3.704,37.916
			C374.493,336.755,393.183,327.723,389.847,312.857z"/>
		<path fill="none" stroke="#DDE5CE" stroke-width="5" stroke-miterlimit="10" d="M405.619,280.854
			c15.579,48.69-83.489,72.043-70.587,127.863"/>
		<path fill="none" stroke="#DDE5CE" stroke-width="5" stroke-miterlimit="10" d="M267.467,189.405
			c24.821,47.093,69.46,132.162,98.309,138.298"/>
		<path fill="none" stroke="#DDE5CE" stroke-width="5" stroke-miterlimit="10" d="M343.999,339.95
			c-12.339-20.169-22.322-38.312-39.634-23.986c-17.339,14.357,14.708,61.257,35.04,40.452
			C341.378,354.406,348.692,347.587,343.999,339.95z"/>
		<path fill="none" stroke="#DDE5CE" stroke-width="5" stroke-miterlimit="10" d="M315.562,358.083
			c-7.14-2.649-13.278-8.596-18.802-13.815c-18.534-17.49-49.212-67.249-80.903-100.987"/>
		<path fill="none" stroke="#DDE5CE" stroke-width="5" stroke-miterlimit="10" d="M282.242,327.703
			c-40.242,2.77-22.014,23.677-9.218,39.308c3.337,4.072,27.155-0.486,25.541-9.176c-0.187-0.985-7.763-19.465-9.337-21.591"/>
		<path fill="none" stroke="#DDE5CE" stroke-width="5" stroke-miterlimit="10" d="M288,367.517
			c-15.897,3.952-43.425-7.255-49.302-11.188c-5.743-3.834-23.958-18.192-49.208-44.285c12.542,15.3,25.072,18.411,17.774,33.946"/>
		<path fill="none" stroke="#DDE5CE" stroke-width="5" stroke-miterlimit="10" d="M344.986,340.136
			c-3.202-11.801-9.755-41.289-16.778-46.925"/>
		<path fill="none" stroke="#DDE5CE" stroke-width="5" stroke-miterlimit="10" d="M472.563,247.514
			c-15.545-48.695-28.782-116.234-42.812-128.386c-14.033-12.185-36.556-7.768-44.674-1.51c-8.129,6.261-19.712,43.718-8.657,73.353
			c11.051,29.601,21.606,32.363,34.824,27.991c13.242-4.373,19.887-28.569,17.189-40.011c-2.728-11.454-0.55-14.141-4.419-22.514
			c2.562,5.585,0.422,8.264,5,5.327"/>
		<path fill="none" stroke="#DDE5CE" stroke-width="5" stroke-miterlimit="10" d="M420.728,208l-6.809-27.493
			c-3.58-5.954-18.112-13.664-22.413-8.317c-4.309,5.362-8.254,9.703-8.093,15.561c0.142,5.867,6.827,25.769,6.827,25.769
			C386.469,219.645,419.612,207.784,420.728,208z"/>
	</g>
	<path fill="none" stroke="#DDE5CE" stroke-width="5" stroke-miterlimit="10" d="M371,153c-3.967-4.228-9.432-7.062-11.398-13.137
		c-1.724-5.324-0.304-11.623-2.102-16.863"/>
</g>
</svg>
