<svg version="1.1" xmlns="http://www.w3.org/2000/svg" viewBox="0 0 768 975" enable-background="new 0 0 768 975" xml:space="preserve"><circle fill="#DDE5CE" cx="384.5" cy="731.4" r="125.4"/><path fill="#CB394D" d="M337.7 698v-8h57.1v8h-23.8v63.4h-9.5v-63.4H337.7z"/><path fill="#EA5F72" d="M428.4 709.7v7.5h-10.3v32.1c0 1 0.1 1.8 0.3 2.4 0.2 0.6 0.5 1.1 1 1.4 0.5 0.3 1.1 0.6 1.9 0.6 0.8 0.1 1.9 0.2 3.3 0.2h3.9v7.5h-6.5c-2.2 0-4.1-0.1-5.6-0.4s-2.8-0.8-3.8-1.6c-1-0.8-1.7-1.9-2.1-3.4 -0.5-1.5-0.7-3.4-0.7-5.8v-32.9h-8.8v-7.5h8.8v-15.5h8.5v15.5H428.4z"/><path fill="none" stroke="#DDE5CE" stroke-width="5" stroke-miterlimit="10" d="M326.5 163.9c-12.6-16.7-36-14.8-42.1-8.1 -8.7 9.5-21.3 19.5-16.9 33.6 -18.6-8.7-35.6 0.2-42.5 12.4 -7.5 13.3-10.2 25.5-9.2 41.4 0.2 3.4-18.5-5.7-27 16.1 -37.5 95.3 29 179.8 48 211.5 9.4 15.6 26.8 34.2 26.8 34.2s1.5 37-0.1 57.7"/><path fill="none" stroke="#DDE5CE" stroke-width="5" stroke-miterlimit="10" d="M376.5 132.3c-5.8-6.3-13-11.5-22-10 -8.2 1.3-14.4 7.7-18.1 14.7 -8.5 16-8.4 37-1.1 53.4 0.7 1.7 1.6 3.3 2.5 4.8"/><path fill="none" stroke="#DDE5CE" stroke-width="5" stroke-miterlimit="10" d="M455.8 552.1C453.5 517 445.5 481 457.5 447c5-13 16-24 21-37 3-9 2-18 3-27 8-41 21-81 2-120 -5-9-11-16-19-23 -13-11-27.9-24.2-39.1-37.3"/><path fill="none" stroke="#DDE5CE" stroke-width="5" stroke-miterlimit="10" d="M422.8 460.9c10.2-3.6 25.1 3.3 29.3-13.4"/><path fill="none" stroke="#DDE5CE" stroke-width="5" stroke-miterlimit="10" d="M420.7 301"/><path fill="none" stroke="#DDE5CE" stroke-width="5" stroke-miterlimit="10" d="M337.7 195.2c6.7 22 22.3 32.3 27.9 30.7 -1.5 13.9 13.5 20.9 18 27.9 14.3 23.4 23 23.7 37.1 47.3"/><path fill="none" stroke="#DDE5CE" stroke-width="5" stroke-miterlimit="10" d="M326.5 163.9c10.2 30.1 25 61.8 37.1 89.4 4.2 9.4 19.3 36.9 23.8 53.2"/><path fill="none" stroke="#DDE5CE" stroke-width="5" stroke-miterlimit="10" d="M389.8 312.9c-2.8-12.5-10.8-31.1-23.4-25.5 -14.9 6.6-17.9 24-3.7 37.9C374.5 336.8 393.2 327.7 389.8 312.9z"/><path fill="none" stroke="#DDE5CE" stroke-width="5" stroke-miterlimit="10" d="M405.6 280.9c15.6 48.7-83.5 72-70.6 127.9"/><path fill="none" stroke="#DDE5CE" stroke-width="5" stroke-miterlimit="10" d="M267.5 189.4c24.8 47.1 69.5 132.2 98.3 138.3"/><path fill="none" stroke="#DDE5CE" stroke-width="5" stroke-miterlimit="10" d="M344 340c-12.3-20.2-22.3-38.3-39.6-24 -17.3 14.4 14.7 61.3 35 40.5C341.4 354.4 348.7 347.6 344 340z"/><path fill="none" stroke="#DDE5CE" stroke-width="5" stroke-miterlimit="10" d="M315.6 358.1c-7.1-2.6-13.3-8.6-18.8-13.8 -18.5-17.5-49.2-67.2-80.9-101"/><path fill="none" stroke="#DDE5CE" stroke-width="5" stroke-miterlimit="10" d="M282.2 327.7c-40.2 2.8-22 23.7-9.2 39.3 3.3 4.1 27.2-0.5 25.5-9.2 -0.2-1-7.8-19.5-9.3-21.6"/><path fill="none" stroke="#DDE5CE" stroke-width="5" stroke-miterlimit="10" d="M288 367.5c-15.9 4-43.4-7.3-49.3-11.2 -5.7-3.8-24-18.2-49.2-44.3 12.5 15.3 25.1 18.4 17.8 33.9"/><path fill="none" stroke="#DDE5CE" stroke-width="5" stroke-miterlimit="10" d="M345 340.1c-3.2-11.8-9.8-41.3-16.8-46.9"/><path fill="none" stroke="#DDE5CE" stroke-width="5" stroke-miterlimit="10" d="M472.6 247.5c-15.5-48.7-28.8-116.2-42.8-128.4 -14-12.2-36.6-7.8-44.7-1.5 -8.1 6.3-19.7 43.7-8.7 73.4 11.1 29.6 21.6 32.4 34.8 28 13.2-4.4 19.9-28.6 17.2-40 -2.7-11.5-0.5-14.1-4.4-22.5 2.6 5.6 0.4 8.3 5 5.3"/><path fill="none" stroke="#DDE5CE" stroke-width="5" stroke-miterlimit="10" d="M420.7 208l-6.8-27.5c-3.6-6-18.1-13.7-22.4-8.3 -4.3 5.4-8.3 9.7-8.1 15.6 0.1 5.9 6.8 25.8 6.8 25.8C386.5 219.6 419.6 207.8 420.7 208z"/><path fill="none" stroke="#DDE5CE" stroke-width="5" stroke-miterlimit="10" d="M371 153c-4-4.2-9.4-7.1-11.4-13.1 -1.7-5.3-0.3-11.6-2.1-16.9"/></svg>