<svg version="1.1" id="Layer_1" xmlns="http://www.w3.org/2000/svg" xmlns:xlink="http://www.w3.org/1999/xlink" viewBox="0 -275 768 980" enable-background="new 0 -275 768 980" xml:space="preserve">
<circle fill="#DDF2F2" cx="398.867" cy="439.479" r="97.562"/>
<polyline fill="none" points="235.93,324.557 235.93,-115.292 662.844,-115.292 662.844,324.557 "/>
<g enable-background="new    ">
	<path fill="#DDF2F2" d="M329.077,99.917c-6.792-0.968-10.354-1.456-10.672-1.456c-0.97,9.704-5.746,14.395-14.312,14.068
		c-8.574-0.318-13.91-2.426-16.009-6.307c-2.107-3.88-2.35-8.563-0.728-14.067c-2.592,0-4.366,1.212-5.336,3.638
		c-0.971,2.426-0.652,6.472,0.97,12.128c1.614,5.662,10.346,14.152,26.196,25.468c10.992,8.088,19.08,14.553,24.256,19.404
		c15.198,17.792,24.658,30.002,28.38,36.626c3.714,6.632,0.728,4.292-8.974-7.034l-9.704-12.128
		c-1.622,7.444-1.94,13.91-0.971,19.406c1.94,11.642,1.774,14.476-0.485,8.488c-2.267-5.98-3.48-11.559-3.639-16.736
		c-0.166-5.17,0.562-10.188,2.185-15.04c-4.208-6.464-9.544-12.448-16.01-17.95c0,3.88-1.538,6.958-4.608,9.216
		c-3.078,2.269-6.876,2.912-11.4,1.942c1.288,2.91,1.213,6.063-0.241,9.458c-1.456,3.396-3.964,5.58-7.521,6.548
		c-1.622,34.286,5.496,63.235,21.346,86.836l-3.882-0.482c-8.731-13.584-14.478-27.971-17.222-43.176
		c-2.752-15.2-3.964-29.426-3.638-42.692c-9.702-0.645-18.761-7.521-27.166-20.62c-8.414-13.098-12.856-24.088-13.341-32.988
		c-0.485-8.89-0.325-14.872,0.486-17.95c0.802-3.069,1.94-5.653,3.396-7.762c1.456-2.1,3.714-4.124,6.792-6.063
		c3.069-1.942,8.004-2.91,14.796-2.91c-1.296-10.022-0.895-18.026,1.212-24.015c2.1-5.981,5.01-10.991,8.731-15.04
		c3.715-4.042,7.034-6.623,9.946-7.764c2.912-1.128,5.822-1.698,8.732-1.698c2.909,0,5.336,0.41,7.275,1.212
		c1.94,0.811,3.557,1.698,4.853,2.668c-10.672-63.065-16.008-99.123-16.008-108.184c0-9.05,0.802-15.842,2.424-20.376
		c1.615-4.526,4.928-7.52,9.945-8.974c5.011-1.456,9.62-0.971,13.826,1.456c4.2,2.426,6.624,7.359,7.278,14.796
		c1.614-4.2,4.852-6.708,9.702-7.521c4.852-0.804,9.46,1.296,13.826,6.307c4.365,5.018,10.021,17.062,16.979,36.142
		c6.952,19.086,9.778,29.35,8.49,30.806c-1.296,1.456-4.853-7.193-10.672-25.954c-9.384-28.781-18.034-43.252-25.956-43.418
		c-7.928-0.159-11.884,8.004-11.884,24.5c-0.326,6.792,0,13.826,0.97,21.103c0.97,7.278,2.502,16.01,4.607,26.198
		c2.101,10.188,4.442,21.512,7.036,33.958c2.584,12.454,4.124,22.481,4.608,30.077c0.486,7.604-0.652,5.337-3.396-6.791
		c-2.752-12.127-6.063-26.841-9.945-44.146c-3.881-17.296-6.391-30.638-7.521-40.021c-1.138-9.377-1.38-17.866-0.728-25.469
		c0.644-7.596,0.644-13.985,0-19.164c-0.652-5.17-3.723-8.565-9.219-10.188c-5.502-1.614-10.111-0.16-13.825,4.366
		c-3.723,4.533-4.45,16.493-2.183,35.899c1.614,11,2.91,19.406,3.88,25.227c0.971,5.821,1.94,11.483,2.91,16.979
		c0.97,5.502,2.101,11.886,3.396,19.164c1.288,7.278,3.069,17.874,5.336,31.776c1.616,10.029,2.584,17.062,2.912,21.104
		c0.317,4.046,0.241,5.904-0.244,5.578c-0.484-0.318-1.296-2.426-2.425-6.306c-1.138-3.88-2.35-8.732-3.638-14.553
		c-4.208-2.586-8.088-4.042-11.644-4.367c-3.562-0.318-7.36,0.728-11.4,3.153c-4.048,2.426-7.846,7.276-11.4,14.553
		c-3.562,7.277-4.533,16.252-2.911,26.926c5.821,0,12.044,0.726,18.678,2.182c6.624,1.458,12.204,3.32,16.738,5.58
		c-0.326-5.496-0.244-9.376,0.241-11.642c0.486-2.261,1.047-1.858,1.698,1.212c0.645,3.076,0.97,6.714,0.97,10.914
		C355.919,99.597,357.533,100.887,329.077,99.917z M457.153,253.217l-32.99,31.533v-16.977c-17.79,4.199-33.156,6.867-46.086,8.004
		c-12.939,1.129-27.978,1.697-45.118,1.697c-17.146,0-33.155-1.863-48.027-5.578c-14.881-3.721-23.37-8.814-25.471-15.281
		c-2.105-6.475-0.483-11.561,4.853-15.283c5.336-3.713,13.5-6.381,24.5-8.004l1.456,3.879c-9.384,1.297-16.418,3.238-21.103,5.822
		c-4.691,2.586-6.716,6.139-6.063,10.674c0.644,4.525,6.952,8.73,18.92,12.613c11.962,3.881,27.896,6.062,47.786,6.549
		c19.89,0.482,38.567-0.41,56.031-2.668c17.465-2.268,30.238-4.854,38.326-7.764L423.682,244L457.153,253.217z M259.705,123.688
		c0.318,3.235,1.532,7.604,3.639,13.1c2.1,5.502,4.926,10.672,8.489,15.523c1.94-3.554,4.769-5.979,8.49-7.277
		c3.714-1.29,7.521-1.774,11.4-1.456c-2.593-7.437-4.366-15.358-5.336-23.772c-4.532-3.88-7.444-9.861-8.732-17.949
		c-0.326-5.496,0.97-9.051,3.88-10.675c-7.762,0-13.424,2.269-16.978,6.792C260.35,103.479,258.735,112.045,259.705,123.688z
		 M302.881,156.675c-2.266-1.939-3.88-3.394-4.85-4.366c-0.97-0.97-2.912-3.396-5.822-7.277c-4.85-0.318-9.058,0.326-12.613,1.941
		c-3.562,1.622-5.822,3.881-6.792,6.792c3.554,5.822,8.079,10.515,13.584,14.068c4.852-0.318,8.405-1.532,10.672-3.638
		C299.319,162.095,301.26,159.587,302.881,156.675z M303.852,157.647c-2.267,3.881-4.692,6.717-7.278,8.49
		c-2.592,1.782-5.662,2.834-9.216,3.152c2.258,1.624,4.607,2.594,7.034,2.912c2.426,0.326,5.094-0.486,8.004-2.426
		C305.625,165.895,306.111,161.854,303.852,157.647z M317.436,97.977c-9.704-3.229-19.246-5.17-28.624-5.821
		c-2.592,10.029-0.568,15.85,6.063,17.464c6.624,1.624,11.719,1.866,15.282,0.728C313.713,109.217,316.14,105.093,317.436,97.977z
		 M302.881,132.419l-13.098-10.188c0.97,7.117,2.258,12.613,3.88,16.493C295.605,135.171,298.673,133.074,302.881,132.419z
		 M316.465,142.608c-4.208-2.584-8.414-5.654-12.613-9.217c-2.267,0.652-4.124,1.456-5.58,2.427
		c-1.456,0.97-2.834,2.426-4.124,4.365c1.939,4.853,4.85,8.732,8.731,11.645C310.961,151.181,315.493,148.112,316.465,142.608z
		 M303.852,153.282c4.199,2.266,7.277,3.319,9.218,3.151c1.94-0.157,3.714-0.886,5.336-2.182c1.614-1.29,2.912-3.714,3.88-7.278
		l-4.366-3.396c-0.97,2.91-2.508,5.178-4.607,6.792C311.203,151.994,308.051,152.963,303.852,153.282z M325.197-30.096
		c-0.326,0.651,0.318,1.212,1.94,1.697c1.613,0.484,2.426,0.895,2.426,1.212c-2.912-0.317-5.822-0.644-8.732-0.97L325.197-30.096z
		 M342.178,299.789h-5.336l-7.763-13.584l5.822,0.971L342.178,299.789z M364.007-17.485l-9.703-1.939l5.821-1.94
		C361.415-20.069,362.711-18.773,364.007-17.485z M357.215,101.372c0-13.9,4.442-30.479,13.341-49.725
		c8.892-19.237,14.796-33.957,17.708-44.146s7.352-19.406,13.34-27.652c5.981-8.248,12.204-18.025,18.678-29.35
		c6.466-11.318,11.886-20.694,16.252-28.138c4.366-7.437,8.49-11.643,12.372-12.614c3.88-0.97,8.248-0.318,13.098,1.94
		c2.912-8.08,7.521-12.933,13.826-14.555c6.307-1.614,12.69,0,19.164,4.853c6.466,4.852,9.62,12.613,9.46,23.286
		c-0.166,10.672-2.107,21.832-5.822,33.474C494.909-29.611,486.094-5.189,472.191,32c7.11,0,12.855,2.668,17.222,8.006
		c4.366,5.336,7.679,13.183,9.946,23.528c5.822-2.258,10.748-1.212,14.796,3.154c4.042,4.365,5.255,10.111,3.638,17.222
		c9.051,4.85,13.098,14.149,12.129,27.894c-0.971,13.75-2.512,23.286-4.609,28.624c-2.109,5.336-5.504,9.786-10.189,13.34
		c-4.691,3.562-9.786,5.505-15.281,5.822c-0.971,14.878-0.084,27.818,2.668,38.811c2.744,10.997,4.281,21.346,4.607,31.045
		c0.318,9.703-3.479,19.406-11.399,29.107c-7.929,9.705-11.324,18.678-10.188,26.926c1.128,8.246,2.828,18.838,5.094,31.775h-7.762
		c-2.592-13.582-4.366-25.064-5.336-34.443c-0.97-9.385,2.986-19.33,11.886-29.836c8.893-10.506,11.318-24.498,7.278-41.961
		c-4.048-17.464-5.988-30.722-5.822-39.782c0.16-9.05,0.729-15.441,1.698-19.161c0.97-3.714,3.07-9.219,6.306-16.494
		c3.23-7.278,6.382-13.177,9.46-17.708c3.07-4.526,3.555-2.101,1.456,7.275c-2.105,9.385-4.934,17.633-8.49,24.742
		c8.732-3.228,13.986-7.354,15.766-12.372c1.777-5.01,2.988-10.748,3.639-17.22c0.645-6.466,0.971-12.206,0.971-17.222
		c0-5.013-2.836-9.376-8.49-13.101c-5.662-3.712-10.84-3.956-15.524-0.726c-4.692,3.235-11.324,7.846-19.89,13.826
		c-8.572,5.987-6.876,2.023,5.094-11.887c-0.97-4.525-1.698-10.264-2.184-17.22c-0.486-6.952,1.857-2.344,7.033,13.826l6.792-6.307
		c0-7.764-1.781-16.252-5.336-25.47c-3.563-9.216-8.731-14.468-15.523-15.766c-6.792-1.29-12.614,2.35-17.464,10.916
		c-4.853,8.572-8.248,15.122-10.188,19.646c-3.88,6.792-6.474,10.84-7.762,12.128c-1.296,1.294-1.782,1.137-1.456-0.485
		c0.318-1.614,0.886-4.04,1.698-7.276c0.804-3.229,1.531-5.822,2.182-7.764c8.408-22.632,16.328-34.278,23.772-34.929
		c9.05-23.932,16.084-43.252,21.104-57.974c5.01-14.712,8.648-28.296,10.916-40.75c2.258-12.446-0.242-21.262-7.52-26.439
		c-7.276-5.169-13.183-4.04-17.709,3.396c6.467,1.296,10.507,2.994,12.129,5.094c1.615,2.108,1.455,5.58-0.484,10.431l-2.426,6.792
		c-2.912,8.088-6.792,10.672-11.645,7.762l-7.275-3.396c-2.912,8.414-7.444,18.519-13.584,30.32
		c-6.148,11.811-11,19.975-14.555,24.5l9.219,4.366l-10.188-0.97l12.128,6.792l-13.584-2.912
		c-7.118,23.288-13.266,41.478-18.434,54.578c-5.179,13.098-6.876,14.796-5.095,5.094c1.774-9.704,4.282-19.806,7.521-30.32
		c3.228-10.506,5.979-19.322,8.248-26.439c2.258-7.112,5.252-13.902,8.974-20.376c3.714-6.467,9.946-18.92,18.679-37.354
		c-1.94,1.94-4.692,2.108-8.248,0.486l-8.248-3.882c-2.593,4.207-6.792,11.325-12.614,21.346
		c-5.822,10.03-12.454,19.89-19.89,29.592l10.188,4.366l-12.614-0.97l13.584,6.306l-14.069-1.456
		c-2.91,9.058-5.095,15.85-6.549,20.376c-1.455,4.534-5.094,12.94-10.916,25.228c-5.821,12.295-9.943,22.314-12.369,30.076
		c-2.427,7.765-3.807,14.236-4.124,19.406c2.911,3.236,6.792,5.82,11.644,7.762c-4.534,0.326-7.36,0.084-8.49-0.728
		c-1.136-0.802-2.35-2.668-3.638-5.578c-0.652,9.704,1.29,21.83,5.822,36.384c4.525,14.552,7.193,33.958,8.004,58.214
		c0.804,24.256,2.342,46.254,4.609,65.977h-7.277c-2.91-30.395-4.534-54.167-4.853-71.313c-0.326-17.138-2.508-32.42-6.548-45.844
		C360.201,127.007,357.861,113.986,357.215,101.372z M384.383,284.266l-5.336,32.988h-7.277l5.336-32.504L384.383,284.266z
		 M395.056,118.351c4.199,2.91,8.565,4.692,13.098,5.337C402.007,125.311,397.642,123.53,395.056,118.351z M412.521,7.257
		c-3.88,0.326-6.475,0.166-7.762-0.485c-1.297-0.645-2.91-1.614-4.851-2.91C402.165,3.862,406.373,5,412.521,7.257z
		 M436.777,141.637c-5.502,1.942-9.384,0-11.643-5.819C429.016,138.727,432.896,140.667,436.777,141.637z M443.083,8.227
		c-2.266,0-4.366-0.317-6.306-0.968c-1.94-0.644-3.88-1.616-5.822-2.912C435.808,3.377,439.848,4.671,443.083,8.227z
		 M455.697-68.422c0.97-3.23,0.562-5.336-1.212-6.306c-1.782-0.971-4.935-2.259-9.46-3.881c-3.236,5.502-6.632,11.643-10.188,18.435
		c3.88,1.939,6.624,3.235,8.248,3.88c4.2,1.939,7.11,1.138,8.732-2.426L455.697-68.422z M460.063-82.006
		c-7.118-2.91-11.968-2.258-14.554,1.939l7.277,2.912c3.555,1.296,5.01,3.078,4.366,5.336
		C458.441-75.701,459.411-79.094,460.063-82.006z M465.885,157.164c-7.443,2.592-11.157,0.81-11.157-5.336
		C456.985,154.738,460.707,156.517,465.885,157.164z M481.894-76.184c1.29-3.557,1.372-6.064,0.242-7.521
		c-1.137-1.456-4.935-2.828-11.4-4.124c-2.266,4.853-3.88,9.058-4.85,12.614c-0.971,3.562-2.267,7.277-3.883,11.158
		c3.883,1.939,6.792,3.235,8.732,3.88c2.912,0.97,5.01,0.166,6.306-2.426C479.301-67.771,480.923-72.302,481.894-76.184z
		 M500.813,69.837c0.97,2.912,1.29,5.988,0.97,9.218c0.97-0.644,2.424-0.804,4.366-0.485c1.939,0.325,3.714,1.136,5.336,2.426
		c0.97-4.2,0.318-7.521-1.94-9.946C507.279,68.625,504.369,68.225,500.813,69.837z"/>
</g>
<g enable-background="new    ">
	<path fill="#F44D8D" d="M428.291,477.385c-6.182,5.801-14.987,8.703-26.42,8.703c-11.684,0-20.81-2.775-27.372-8.32
		c-6.563-5.545-9.844-14.375-9.844-26.482v-57.92h12.066v57.92c0,8.127,2.159,14.289,6.478,18.48
		c4.318,4.189,10.542,6.287,18.67,6.287c7.706,0,13.57-2.096,17.592-6.287c4.022-4.193,6.034-10.354,6.034-18.48v-57.92h12.066
		v57.92C437.563,462.885,434.472,471.586,428.291,477.385z"/>
</g>
</svg>
