<svg version="1.1" xmlns="http://www.w3.org/2000/svg" viewBox="0 0 768 975" enable-background="new 0 0 768 975" xml:space="preserve"><circle fill="#DDE5CE" cx="384.5" cy="731.4" r="125.4"/><path fill="#CB394D" d="M375.6 756.1c-4.9 4.6-11.8 6.9-20.8 6.9 -9.2 0-16.4-2.2-21.5-6.5 -5.2-4.4-7.7-11.3-7.7-20.8v-45.6h9.5v45.6c0 6.4 1.7 11.3 5.1 14.6s8.3 5 14.7 5c6.1 0 10.7-1.6 13.9-4.9 3.2-3.3 4.8-8.1 4.8-14.5v-45.6h9.5v45.6C382.9 744.7 380.4 751.6 375.6 756.1z"/><path fill="#EA5F72" d="M436.5 761.4v-8.2h-0.2c-1.8 3.2-4.1 5.6-6.9 7.1 -2.8 1.5-6.1 2.3-9.9 2.3 -3.4 0-6.2-0.4-8.5-1.3 -2.3-0.9-4.1-2.2-5.5-3.8 -1.4-1.7-2.4-3.6-2.9-5.9 -0.6-2.3-0.8-4.9-0.8-7.6v-34h8.5v35c0 3.2 0.9 5.7 2.8 7.6 1.9 1.9 4.4 2.8 7.7 2.8 2.6 0 4.9-0.4 6.8-1.2 1.9-0.8 3.5-1.9 4.8-3.4 1.3-1.5 2.2-3.2 2.9-5.1 0.6-2 1-4.1 1-6.4v-29.2h8.5v51.7H436.5z"/><path fill="none" stroke="#DDE5CE" stroke-width="5" stroke-miterlimit="10" d="M316.3 216.3c-5.2-6.6-23.6 2.2-27.8 8.3 -6.9 10.2-9.1 15.2-4 25 -23.6 1.1-27.6 22.7-18 37.3 21.8 33.4 8 118.8 33.9 142.8 -16.6 1.1 3 68.6 2.5 90 -0.6 25.2-14.3 44.6-15 57.9"/><path fill="none" stroke="#DDE5CE" stroke-width="5" stroke-miterlimit="10" d="M337.1 96.4c-9.7-26.1-23.2-52.7-45.4-44.5 -10.6 3.9-9.5 36 3.9 52.7 9.1 53.7 22.2 111.2 22.2 111.2"/><path fill="none" stroke="#DDE5CE" stroke-width="5" stroke-miterlimit="10" d="M418.8 575.1c0.1-37.3 3.1-78 2.5-89 -1-19.8 37.3-91 39.4-111.2 5.1-48.9 1.1-63.2-4.2-81.1 -8.5-20.5-4.7-32.9-16.9-53.5 -22.6-37.9-57.6-138.7-71.8-154 -11.7-12.6-28.1-6.9-26.8 10.3 1.5 20.8 3.1 34.6 10.5 47"/><path fill="none" stroke="#DDE5CE" stroke-width="5" stroke-miterlimit="10" d="M299.8 103c6.3-2.9 18.7 3.3 22.6-6.8"/><path fill="none" stroke="#DDE5CE" stroke-width="5" stroke-miterlimit="10" d="M284.4 249.6c10.1 28.4 21.7 42.3 43.4 62.5"/><path fill="none" stroke="#DDE5CE" stroke-width="5" stroke-miterlimit="10" d="M264.8 284c21.2 13.5 22.2 30 44.8 37.8 5.7 2 17.6-4.6 14-13.7"/><path fill="none" stroke="#DDE5CE" stroke-width="5" stroke-miterlimit="10" d="M312.4 296.6c-16.6 7.2-8.5 15.3-2.9 23.9"/><path fill="none" stroke="#DDE5CE" stroke-width="5" stroke-miterlimit="10" d="M437.4 338.2c-2.4 14.7-9.9 37.5-27.2 39.1"/><path fill="none" stroke="#DDE5CE" stroke-width="5" stroke-miterlimit="10" d="M366 307.1c-7 8.3-22.1 39.8-18.3 55.6"/><path fill="none" stroke="#DDE5CE" stroke-width="5" stroke-miterlimit="10" d="M351.7 331.3c-7.7 11.6-32.3 33.2-22.4 63"/><path fill="none" stroke="#DDE5CE" stroke-width="5" stroke-miterlimit="10" d="M337.1 96.4c1.8 11.3 12.2 44.4 14.4 47.1 4.3 11.6 19.2 70.8 24.7 75.9"/><path fill="none" stroke="#DDE5CE" stroke-width="5" stroke-miterlimit="10" d="M326.1 246.6c2.9 5.1-10-39.2-9.8-30.3"/><path fill="none" stroke="#DDE5CE" stroke-width="5" stroke-miterlimit="10" d="M327.6 296.2c-6.2 9.1-1.7 18.7 8.7 21.1 10.5 2.5 17.7-4 17.3-14.5"/><path fill="none" stroke="#DDE5CE" stroke-width="5" stroke-miterlimit="10" d="M399 311.4c-1.9 2.9-70.7-14.4-82.1-21.4 -15.4-9.6-31.4-27.4-9.9-40.9 9.4-5.9 21.1 2.2 31.4 2.5 15.8 0.5 23.2-3.9 32.6 1.3 19.9 11.1 74.1 17.1 82.3 31.1"/><path fill="none" stroke="#DDE5CE" stroke-width="5" stroke-miterlimit="10" d="M400.3 321.1"/><path fill="none" stroke="#DDE5CE" stroke-width="5" stroke-miterlimit="10" d="M299.8 255.2c1.6 1 24 9.5 25.8 9.7 8.3 0.8 13.4-6 9.8-12.3"/><path fill="none" stroke="#DDE5CE" stroke-width="5" stroke-miterlimit="10" d="M316.7 169.5c3.3 1.4 14.1-4 14.1-4"/><path fill="none" stroke="#DDE5CE" stroke-width="5" stroke-miterlimit="10" d="M355.6 137.5"/><path fill="none" stroke="#DDE5CE" stroke-width="5" stroke-miterlimit="10" d="M356.2 144.1c6.2 0 21.7-8.8 24.2-12.8"/><path fill="none" stroke="#DDE5CE" stroke-width="5" stroke-miterlimit="10" d="M373.3 184.4c6.1 1.3 21.5 0.5 21.5 0.5"/></svg>