<svg version="1.1" xmlns="http://www.w3.org/2000/svg" xmlns:xlink="http://www.w3.org/1999/xlink" viewBox="0 0 768 975" enable-background="new 0 0 768 975" xml:space="preserve">
<g id="circle">
	<circle fill="#DDE5CE" cx="384.51" cy="731.426" r="125.426"/>
</g>
<g id="vv">
	<g>
		<path fill="#CB394D" d="M351.533,761.398l-25.1-71.4h10.2l20.4,61.9h0.2l20.6-61.9h9.899l-25.399,71.4H351.533z"/>
		<path fill="#EA5F72" d="M413.132,761.398l-19.199-51.7h9.5l14.5,43.101h0.199l14.101-43.101h8.899l-18.899,51.7H413.132z"/>
	</g>
</g>
<g id="v">
	<g>
		<path fill="none" stroke="#DDE5CE" stroke-width="5" stroke-miterlimit="10" d="M336.118,113.963
			c-11.274-24.328-26.259-48.906-46.954-39.317c-9.853,4.561-6.387,35.296,7.743,50.303c5.638,22.516,16.728,71.948,26.548,102.119"
			/>
		<g>
			<path fill="none" stroke="#DDE5CE" stroke-width="5" stroke-miterlimit="10" d="M325.155,230.737
				c-5.542-5.983-22.555,3.891-26.053,10.072c-5.887,10.36-7.598,15.265-2.017,24.31c-22.557,2.785-24.785,23.901-14.488,37.249
				c23.442,30.424,7.001,68.968,33.678,90.073c-15.837,2.287,8.016,65.666,9.146,86.256c1.354,24.247-15.63,78.638-15.274,91.544"/>
			<path fill="none" stroke="#DDE5CE" stroke-width="5" stroke-miterlimit="10" d="M449.586,549.634
				c-1.652-30.07-2.005-58.86-3.146-67.592c-2.478-18.977,28.976-90.257,29.5-109.846c1.253-47.403-3.728-60.842-10.146-77.619
				c-9.721-19.009-1.148-41.356-10.302-62.514c-16.854-39.004-11.646-150.107-30.999-162.62c-13.94-9.049-25.463,9.657-28.954,25.91
				c-4.179,19.372-1.593,27.178,3.901,39.862"/>
			<path fill="none" stroke="#DDE5CE" stroke-width="5" stroke-miterlimit="10" d="M300.845,123.116
				c5.832-3.296,18.206,1.782,21.227-8.278"/>
			<path fill="none" stroke="#DDE5CE" stroke-width="5" stroke-miterlimit="10" d="M297.085,265.119
				c11.805,26.485,24.078,39.018,46.372,56.813"/>
			<path fill="none" stroke="#DDE5CE" stroke-width="5" stroke-miterlimit="10" d="M279.624,297.614
				c11.363,4.431,21.997,28.55,47.102,35.069c5.646,1.462,16.519-5.776,12.371-14.161"/>
			<path fill="none" stroke="#DDE5CE" stroke-width="5" stroke-miterlimit="10" d="M327.539,308.139
				c-15.438,8.199-7.047,15.312-1,23.183"/>
			<path fill="none" stroke="#DDE5CE" stroke-width="5" stroke-miterlimit="10" d="M450.707,338.683
				c-1.189,14.338-6.673,36.744-23.146,39.573"/>
			<path fill="none" stroke="#DDE5CE" stroke-width="5" stroke-miterlimit="10" d="M374.099,327.324
				c-8.603,11.958-9.62,56.425-7.32,63.572"/>
			<path fill="none" stroke="#DDE5CE" stroke-width="5" stroke-miterlimit="10" d="M336.118,113.963
				c2.599,10.763,15.042,41.706,17.4,44.195c5.015,10.845,22.704,77.391,28.389,81.938"/>
			<path fill="none" stroke="#DDE5CE" stroke-width="5" stroke-miterlimit="10" d="M336.118,260.019
				c-5.215-8.173-11.756-23.194-12.663-32.952"/>
			<path fill="none" stroke="#DDE5CE" stroke-width="5" stroke-miterlimit="10" d="M342.366,306.491
				c-5.926,9.163-0.439,17.905,9.382,20.296c3.875,0.943,8.679,0.938,11.39-2.467c2.982-3.747,3.817-9.938,3.611-14.57"/>
			<path fill="none" stroke="#DDE5CE" stroke-width="5" stroke-miterlimit="10" d="M413.77,325.118
				c-15.023-3.573,17.624-4.869,2.584-8.276c-4.571-0.938-18.67-5.829-18.67-5.829s-54.949-3.572-66.424-9.522
				c-15.505-8.052-32.229-23.928-12.538-38.526c8.6-6.369,20.439,0.53,30.323,0.053c15.181-0.753,22.033-5.526,31.391-1.221
				c19.928,9.183,73.637,12.809,82.558,25.685"/>
			<path fill="none" stroke="#DDE5CE" stroke-width="5" stroke-miterlimit="10" d="M313.138,268.271
				c1.636,0.893,22.995,8.442,24.677,8.493c8.071,0.189,12.419-6.809,8.457-12.521"/>
			<path fill="none" stroke="#DDE5CE" stroke-width="5" stroke-miterlimit="10" d="M322.093,185.731
				c3.256,1.095,13.267-4.965,13.267-4.965"/>
			<path fill="none" stroke="#DDE5CE" stroke-width="5" stroke-miterlimit="10" d="M398.078,132.182
				c0.124,35.111,8.637,92.236-18.465,109.544"/>
			<path fill="none" stroke="#DDE5CE" stroke-width="5" stroke-miterlimit="10" d="M408.857,136.452
				c5.911,0.792,10.745-3.523,13.692-7.036"/>
			<path fill="none" stroke="#DDE5CE" stroke-width="5" stroke-miterlimit="10" d="M402.597,199.421
				c5.924,0.786,20.712-1.148,20.712-1.148"/>
		</g>
	</g>
</g>
</svg>
