<svg version="1.1" id="Layer_1" xmlns="http://www.w3.org/2000/svg" xmlns:xlink="http://www.w3.org/1999/xlink" viewBox="0 -275 768 980" enable-background="new 0 -275 768 980" xml:space="preserve">
<circle fill="#DDF2F2" cx="416.867" cy="440.87" r="97.562"/>
<polyline fill="none" points="253.93,325.947 253.93,-113.902 680.844,-113.902 680.844,325.947 "/>
<g enable-background="new    ">
	<path fill="#DDF2F2" d="M328.157,95.485c-0.326,3.88-1.296,7.36-2.912,10.431c-1.622,3.078-4.29,4.533-8.004,4.365
		c-3.722-0.157-8.815-2.668-15.282-7.52c-1.939,13.584,9.46,25.956,34.202,37.114c24.742,11.157,39.856,19.403,45.36,24.741
		c5.496,5.336,4.852,6.715-1.94,4.124c-6.792-2.586-12.939-5.336-18.436-8.247c0.97,13.266,5.496,24.907,13.584,34.93
		c8.08,10.029,7.52,10.674-1.698,1.941c-9.216-8.731-14.478-21.664-15.766-38.81c-12.94-6.14-25.227-12.288-36.87-18.437
		c-1.296,19.406,5.737,39.54,21.102,60.398c15.358,20.862,25.628,34.447,30.807,40.752c5.17,6.305,7.762,32.094,7.762,77.375h-8.732
		c0-46.254-2.911-71.797-8.731-76.648c-28.464-35.898-44.314-60.717-47.542-74.467c-3.236-13.742-4.048-24.332-2.426-31.775
		c-3.562-2.586-7.276-5.822-11.158-9.704c-3.882-3.88-6.148-8.566-6.792-14.068c-13.267-8.406-20.216-17.542-20.86-27.41
		c-0.652-9.861,0.802-16.168,4.366-18.92c3.554-2.744,7.276-4.928,11.158-6.548c-0.652-5.822-0.652-15.358,0-28.624
		c1.29-9.376,5.01-16.086,11.158-20.132c6.14-4.042,15.357-4.928,27.651-2.668c-9.384-26.842-16.662-48.188-21.832-64.038
		c-5.176-15.842-7.762-28.138-7.762-36.87s1.532-15.198,4.608-19.406c3.069-4.199,7.033-6.466,11.886-6.792
		c10.992-0.97,24.742,17.79,41.235,56.274c9.702,22.316,18.269,42.046,25.713,59.184c1.939-25.87,4.607-51.18,8.004-75.92
		C393.405-104.631,401.085-117,413.054-117c9.376,0,15.523,3.722,18.434,11.157c2.912,7.444,4.284,18.845,4.124,34.202
		c-0.166,15.364-0.326,38.166-0.486,68.402c-0.166,30.244,0.887,51.908,3.154,65.008c2.258,13.098,7.437,33.398,15.524,60.882
		c8.08,27.494,14.067,57.814,17.95,90.962c3.88,33.154,10.991,68.16,21.346,105.031h-6.792
		c-7.444-22.643-14.479-55.713-21.103-99.209c-6.632-43.494-11.886-71.63-15.766-84.412c-3.88-12.771-7.846-26.198-11.886-40.266
		c-4.048-14.068-6.792-28.055-8.248-41.962c-1.456-13.902-2.024-39.782-1.698-77.622c0.318-37.84-0.166-61.202-1.456-70.101
		c-1.296-8.892-5.094-13.416-11.399-13.584c-6.307-0.16-11.158,6.23-14.555,19.164c-3.396,12.938-6.632,40.022-9.704,81.258
		c-3.078,41.236-6.063,47.952-8.974,20.133l-37.356-82.471c-10.998-24.901-19.161-38.241-24.498-40.023
		c-5.336-1.774-9.058-0.486-11.157,3.88c-2.108,4.366-2.994,10.354-2.668,17.95c0.317,7.602,6.222,27.817,17.708,60.64
		c11.476,32.83,17.781,52.076,18.92,57.73c1.128,5.664-2.509,1.054-10.916-13.826c-3.88-1.288-9.87-1.774-17.95-1.456
		c-8.088,0.326-13.424,5.987-16.01,16.979c-1.297,4.853-1.379,14.395-0.242,28.624c1.13,14.234,9.777,22.966,25.954,26.196
		l12.128,2.426c-2.912-7.762-4.776-13.901-5.58-18.434c-0.812-4.526-0.568-11.158,0.728-19.891
		c1.288-8.731,2.584-12.287,3.88-10.674c1.29,1.624,1.372,6.716,0.242,15.282c-1.136,8.574,1.046,20.132,6.55,34.688
		c18.108,2.266,32.988,7.443,44.633,15.523c8.079-10.346,15.04-16.978,20.859-19.888c5.822-2.912,4.926-1.13-2.668,5.336
		c-7.604,6.472-12.698,11.968-15.282,16.494c23.931,16.176,33.792,24.424,29.593,24.741c-4.206,0.324-10.513-2.586-18.921-8.731
		c-8.413-6.14-17.222-11.718-26.439-16.738C363.815,101.392,348.852,97.752,328.157,95.485z M302.932,86.268
		c-6.475-3.554-10.515-9.702-12.128-18.434c-3.238,0.968-5.822,2.668-7.763,5.094c-1.939,2.426-2.592,5.988-1.939,10.672
		c0.644,4.694,2.426,8.656,5.336,11.886c2.91,3.236,5.822,5.988,8.731,8.246c0.318-5.496,1.288-9.376,2.91-11.642
		C299.695,89.83,301.31,87.892,302.932,86.268z M326.703,95l-15.04-4.853c-2.912-0.317-5.987,3.396-9.218,11.158
		c6.466,4.852,11.158,7.362,14.068,7.52c2.912,0.169,5.17-0.56,6.792-2.182C324.921,105.029,326.051,101.147,326.703,95z
		 M337.375-59.754c-5.504,2.909-10.354,3.88-14.554,2.909l5.822-1.939L337.375-59.754z M355.812-18.034
		c-5.822-0.645-11.158,0.326-16.008,2.912C345.941-15.122,351.277-16.095,355.812-18.034z M355.812-13.668
		c-4.534,3.235-9.218,4.365-14.068,3.396C345.941-11.887,350.633-13.017,355.812-13.668z M346.594,120.714
		c1.939-4.853,4.365-8.566,7.277-11.158C351.93,115.058,349.503,118.771,346.594,120.714z M349.989,122.651
		c0.644-1.288,1.456-2.985,2.426-5.094c0.97-2.1,2.744-4.284,5.336-6.548C356.455,116.514,353.869,120.394,349.989,122.651z
		 M366.483,30.478c-2.592,2.267-5.988,3.236-10.188,2.91C359.205,30.806,362.604,29.834,366.483,30.478z M406.749,222.59
		c-4.208,2.91-9.142,5.176-14.796,6.793c-5.662,1.623-10.27,2.426-13.826,2.426C387.178,227.281,396.722,224.211,406.749,222.59z
		 M406.749,231.32c-3.235,1.941-6.147,3.152-8.731,3.641c-2.592,0.482-5.662,0.082-9.219-1.213L406.749,231.32z M403.837,36.785
		c-3.88,0.652-7.275,0-10.188-1.941C397.205,34.201,400.602,34.844,403.837,36.785z M414.995-5.42
		c-3.235-1.29-6.474-2.101-9.702-2.427c-3.237-0.317-5.987-0.159-8.248,0.486C401.571-6.066,407.554-5.42,414.995-5.42z
		 M413.541-2.026c-5.822,1.296-11.158,0.81-16.01-1.456C403.027-4.124,408.363-3.639,413.541-2.026z M416.938-46.172
		c-4.853-0.318-9.702-1.288-14.555-2.91C408.523-49.727,413.373-48.756,416.938-46.172z M423.243,225.5
		c-3.562,2.266-7.602,2.91-12.128,1.941c2.584-1.289,4.608-2.1,6.064-2.426C418.635,224.697,420.651,224.855,423.243,225.5z
		 M426.64,230.836c-2.912,3.234-6.633,3.723-11.158,1.457L426.64,230.836z"/>
</g>
<g enable-background="new    ">
	<path fill="#F44D8D" d="M405.14,485.443l-31.88-90.689h12.955l25.912,78.623h0.254l26.166-78.623h12.574l-32.262,90.689H405.14z"/>
</g>
</svg>
