<svg version="1.1" xmlns="http://www.w3.org/2000/svg" viewBox="0 0 768 975" enable-background="new 0 0 768 975" xml:space="preserve"><circle fill="#DDE5CE" cx="384.5" cy="731.4" r="125.4"/><path fill="#CB394D" d="M360.2 761.4l-16.3-60h-0.2l-16.5 60h-9.9l-18.3-71.4h9.7l14 59.4h0.2l16-59.4h10.3l15.8 59.4h0.2l14.5-59.4h9.5l-19.1 71.4H360.2z"/><path fill="#EA5F72" d="M444 761.4l-10.5-41.1h-0.2l-10.4 41.1h-9.2l-16.6-51.7h9.4l11.7 42.3h0.2l10.4-42.3h9.3l10.8 42.3h0.2l11.6-42.3h8.8l-16.5 51.7H444z"/><path fill="none" stroke="#DDE5CE" stroke-width="5" stroke-miterlimit="10" d="M266.3 117.6c-1.5-4.7-12-19.9-28.7-11.6 -16.7 13.1 3.7 42.8 10.6 65.6"/><path fill="none" stroke="#DDE5CE" stroke-width="5" stroke-miterlimit="10" d="M473.7 323.8c-23.8-37.5-51.9-175.7-50.3-206.8 1-20.1-8.5-33.5-20.7-33.6 -13.4 2-18 12.4-19.7 20.4"/><path fill="none" stroke="#DDE5CE" stroke-width="5" stroke-miterlimit="10" d="M468.2 509.6c-15.7-16-17.5-48.2-7.2-69.6 17.3-36.2 29.4-76.6 12.7-116.2"/><path fill="none" stroke="#DDE5CE" stroke-width="5" stroke-miterlimit="10" d="M319.4 276.1c4.7 31.4 32.5 27.8 53.4 39.9 7 4.1 21.1 17 20.7 28.9 -0.3 9.7-4.8 27.4-1.7 38.7"/><path fill="none" stroke="#DDE5CE" stroke-width="5" stroke-miterlimit="10" d="M473.7 323.8c-9.1-7.1-28.6-19.9-30.3-21.8 -22.3-25.7-44.3-41.6-60.3-42.4 -14-0.7-22.4 1.3-20.2 11 1.3 5.6-32.2 8.4-43.5 5.5"/><path fill="none" stroke="#DDE5CE" stroke-width="5" stroke-miterlimit="10" d="M383 334.3c-29.8 32.5-0.9 88-24.6 122.8"/><path fill="none" stroke="#DDE5CE" stroke-width="5" stroke-miterlimit="10" d="M368.1 312.7c-15.4 21.2-43.1 27.9-66.6 37.6"/><path fill="none" stroke="#DDE5CE" stroke-width="5" stroke-miterlimit="10" d="M365.5 262c-14.1 3.3-36.6-0.9-48 14.1"/><path fill="none" stroke="#DDE5CE" stroke-width="5" stroke-miterlimit="10" d="M382.9 103.8c-2 8.4-2.5 34.3 0.9 40.3 -2.6 9.5-3.1 52.7 0.6 63 -2.7 12.2-1.6 38.9 1.3 42 2.9 3.1 7 1.6 7 1.6"/><path fill="none" stroke="#DDE5CE" stroke-width="5" stroke-miterlimit="10" d="M385.8 249.2c0 0-2 3.2-5.7 3.6"/><path fill="none" stroke="#DDE5CE" stroke-width="5" stroke-miterlimit="10" d="M266.3 117.6c4.7 8.7 15.3 36.2 21.3 41 3.5 9.6 16.6 48.9 24.9 56.1 2.4 9.5 16.4 37 20.2 41.6l6.6-2.1"/><line fill="none" stroke="#DDE5CE" stroke-width="5" stroke-miterlimit="10" x1="332.6" y1="256.2" x2="326.6" y2="260.9"/><path fill="none" stroke="#DDE5CE" stroke-width="5" stroke-miterlimit="10" d="M248.2 171.6c20.7 48.8 27.1 51.8 26.1 51.1"/><path fill="none" stroke="#DDE5CE" stroke-width="5" stroke-miterlimit="10" d="M326.7 293c-19.7 5-12.3 16.5-1.6 26.7 2.8 2.7 19.7-2.8 17.7-8.9 -1.8-5.8-2.1-6.1-6.7-9.3"/><path fill="none" stroke="#DDE5CE" stroke-width="5" stroke-miterlimit="10" d="M329.5 570.1c-4.5-19.7 3.8-44.4-10.2-57.5 -9.1-8.5-19-14-25.3-24.8 -31.2-53.3-60.9-116.2-45.2-175.5 4.9-18.5-3.2-55.1-4.2-63.1 -3.9-32 28.6-33.5 43.2-13.5 4.3 5.9 26.6 39.8 34.4 51.4"/><path fill="none" stroke="#DDE5CE" stroke-width="5" stroke-miterlimit="10" d="M334.8 318.9c-11.2 4.3-31.8-0.3-35.5-3.9 -5.3-5.1-40.6-38.7-43.3-51.6"/><path fill="none" stroke="#DDE5CE" stroke-width="5" stroke-miterlimit="10" d="M346 76c-0.4-5.6-2.9-27.4-23.3-22.3 -19.1 1.2-8.3 52.8-6.9 77.6"/><path fill="none" stroke="#DDE5CE" stroke-width="5" stroke-miterlimit="10" d="M346 76c2.8 11 6.3 42.6 8.7 53 1.4 11.6 8.9 57.7 16.1 67.9 0 11.3 9.1 48.7 12.1 54.9"/><path fill="none" stroke="#DDE5CE" stroke-width="5" stroke-miterlimit="10" d="M315.8 131.3c1.7 10.3 4.3 53.6 11.8 62.5 -1.4 11 3.1 50.5 4.2 59.8"/><path fill="none" stroke="#DDE5CE" stroke-width="5" stroke-miterlimit="10" d="M327.6 193.8c6.2 1.5 20.9-7.4 20.9-7.4"/><path fill="none" stroke="#DDE5CE" stroke-width="5" stroke-miterlimit="10" d="M314.4 109.3c6.4 3.3 21.7-1.8 21.7-1.8"/><path fill="none" stroke="#DDE5CE" stroke-width="5" stroke-miterlimit="10" d="M383.9 144.1c4.5 1.9 20.3 0.7 25.8-5.3"/><path fill="none" stroke="#DDE5CE" stroke-width="5" stroke-miterlimit="10" d="M384.5 207.2c5.1 2.8 22.8 0.5 26.6-5.2"/><path fill="none" stroke="#DDE5CE" stroke-width="5" stroke-miterlimit="10" d="M239 148.1c4.1 3.4 20.7-3.9 22.8-9.1"/><path fill="none" stroke="#DDE5CE" stroke-width="5" stroke-miterlimit="10" d="M268.6 206.7c5.6 0.5 16 1.3 18.1-3.9"/></svg>