<svg version="1.1" id="Layer_1" xmlns="http://www.w3.org/2000/svg" xmlns:xlink="http://www.w3.org/1999/xlink" viewBox="0 -275 768 980" enable-background="new 0 -275 768 980" xml:space="preserve">
<circle fill="#DDF2F2" cx="409.867" cy="439.479" r="97.562"/>
<polyline fill="none" points="246.93,324.557 246.93,-115.292 673.844,-115.292 673.844,324.557 "/>
<g enable-background="new    ">
	<path fill="#DDF2F2" d="M540.922,95.551c-2.912,6.792-13.023,14.637-30.322,23.53c-17.307,8.897-27.25,22.724-29.834,41.478
		c-2.593,18.761-2.267,38.164,0.97,58.214c3.229,20.055,6.624,37.84,10.188,53.363l11.158,45.117h-8.248
		c-12.614-47.541-20.056-80.045-22.315-97.508c-2.267-17.464-2.912-36.059-1.94-55.792c0.97-19.723,11.477-36.542,31.534-50.454
		c-4.208-7.762-5.018-12.933-2.426-15.524c3.228-2.912,8.08-5.336,14.554-7.277c4.2-1.616,8.08,1.456,11.642,9.216
		c7.436-4.526,8.324-9.702,2.668-15.524c-5.663-5.821-14.069-8.08-25.226-6.792c-11.158,1.294-23.771,8.975-37.84,23.042
		c-14.068,14.068-24.742,21.104-32.019,21.104c-7.277,0-12.052-0.804-14.312-2.426c-2.266-1.616,0-2.345,6.792-2.185
		c6.792,0.166,11.158-0.886,13.098-3.154c-7.117-0.642-13.826-2.5-20.132-5.577c-6.306-3.07-7.602-4.442-3.88-4.124
		c3.714,0.326,7.352,1.136,10.916,2.426c3.554,1.294,9.05,2.426,16.494,3.394c-1.622-21.02-3.396-51.498-5.336-91.445
		c-1.94-39.94-3.154-67.267-3.639-81.988c-0.485-14.712-2.023-22.876-4.609-24.5c-4.208-4.2-9.059-4.685-14.554-1.456
		c-5.503,3.236-9.702,11.4-12.614,24.5s-6.792,50.052-11.643,110.852h-14.069c5.17-1.289,7.596-2.586,7.277-3.882l0.971-23.286
		l-32.019-66.462c-13.584-27.812-24.18-43.578-31.775-47.3c-7.603-3.714-12.372-0.486-14.312,9.702
		c-1.939,10.188,10.022,48.756,35.9,115.704c8.731,22.968,5.821,26.523-8.732,10.674c-4.85-6.14-10.838-9.376-17.95-9.704
		c-12.939-1.29-18.76,8.732-17.464,30.078c0.645,20.702,3.555,36.71,8.732,48.028c2.258-1.616,5.17-3.07,8.731-4.366
		c3.555-1.29,6.141-0.16,7.763,3.394c3.554,5.822,5.655,10.756,6.306,14.797c0.644,4.046-2.912,7.035-10.672,8.974
		c5.822,4.208,11.476,4.776,16.979,1.698c5.496-3.068,7.679-9.458,6.551-19.162c-1.139-9.702-2.752-18.435-4.853-26.198
		c-2.107-7.762-3.88-14.068-5.336-18.92c-1.456-4.851,0.729-0.968,6.55,11.644c2.91-10.992,4.366-14.63,4.366-10.916
		c0,3.723,0.16,7.36,0.484,10.916c0.317,3.562,1.616,10.914,3.882,22.072c2.258,11.158,2.828,19.33,1.698,24.5
		c-1.137,5.176-3.964,9.216-8.49,12.126c-4.534,2.912-10.188,3.078-16.98,0.486c17.784,48.512,29.593,77.299,35.414,86.352
		c5.822,9.059,11.234,15.768,16.252,20.131c5.011,4.369,8.005,8.975,8.975,13.826s1.212,15.281,0.728,31.293
		c-0.483,16.008-0.728,24.332-0.728,24.984h-9.216c0.97-22.316,1.531-37.6,1.697-45.844c0.16-8.25-1.781-14.152-5.821-17.709
		c-4.049-3.564-9.219-9.947-15.524-19.164s-12.37-21.102-18.192-35.656c-5.821-14.554-12.128-31.048-18.92-49.482
		c-4.208,2.91-8.655,3.721-13.34,2.426c-4.692-1.289-9.46-4.525-14.312-9.703c-4.851-5.17-8.656-10.506-11.4-16.011
		c-2.75-5.495-4.29-12.128-4.608-19.89c-0.325-7.762,0.887-14.628,3.639-20.618c2.744-5.979,7.193-8.322,13.34-7.036
		c-2.912-25.226-1.622-40.91,3.88-47.056c5.496-6.14,12.372-8.732,20.618-7.762c8.246,0.97,15.114,4.365,20.618,10.188
		c-10.354-23.288-18.276-43.176-23.772-59.67c-7.762-22.96-12.372-39.538-13.826-49.726c-1.454-10.188-0.409-17.708,3.154-22.559
		c3.554-4.852,8.08-7.109,13.584-6.792c10.99-0.644,25.226,17.146,42.69,53.364l27.168,58.214
		c1.939-27.485,4.85-52.149,8.731-73.981s12.448-33.064,25.712-33.717c5.822-0.317,10.431,1.212,13.826,4.61
		c3.396,3.396,5.412,8.33,6.064,14.796c0.644,17.792,1.773,40.266,3.396,67.432c1.616,27.166,3.556,66.948,5.822,119.343
		c8.731-9.376,17.464-17.464,26.196-24.259c8.731-6.791,18.109-10.672,28.138-11.642c10.02-0.97,19.322,1.136,27.894,6.306
		C540.027,80.837,543.18,87.471,540.922,95.551z M304.663,124.173c-3.237-7.438-5.746-13.826-7.52-19.164
		c-1.782-5.336-3.154-11.074-4.124-17.22c-5.502-1.616-8.898,0.968-10.188,7.762c-1.296,6.792-1.054,13.666,0.729,20.618
		c1.773,6.958,5.094,13.024,9.945,18.194c-0.325-3.23,0.486-5.898,2.427-8.006C297.871,124.255,300.783,123.53,304.663,124.173z
		 M316.791,141.637c-5.822-5.819-9.702-11.315-11.642-16.494c-7.444-0.968-11,2.427-10.672,10.188
		c6.466,6.792,11.233,10.03,14.31,9.704C311.857,144.715,314.525,143.58,316.791,141.637z M321.157,108.166
		c-1.622-3.228-6.306-2.26-14.068,2.91c2.91,7.444,6.467,14.235,10.673,20.376c3.88-0.968,6.949-2.584,9.216-4.851
		C329.237,124.986,327.297,118.835,321.157,108.166z M340.563-41.254c-3.562,3.238-8.732,4.692-15.524,4.366l7.278-2.912
		L340.563-41.254z M358.997-4.871c-6.792,3.562-12.78,4.853-17.95,3.88C346.217-3.575,352.205-4.871,358.997-4.871z M359.97-0.018
		c-7.118,3.88-12.94,5.018-17.465,3.396C347.029,1.435,352.852,0.307,359.97-0.018z M425.947,239.633
		c-14.236-2.258-28.138-2.426-41.722-0.484C397.483,241.414,411.392,241.574,425.947,239.633z M415.273,246.91
		c-9.059,2.262-16.176,2.262-21.346,0C400.394,245.615,407.512,245.615,415.273,246.91z M413.817,55.77
		c-6.148,0.651-11.158-0.645-15.04-3.881C405.571,52.215,410.581,53.511,413.817,55.77z M424.005,9.198
		c-6.474,1.296-12.456,0.326-17.949-2.91C411.551,5.969,417.531,6.94,424.005,9.198z M424.005-35.918
		c-5.821-1.94-11.483-2.584-16.979-1.94C412.521-35.266,418.184-34.623,424.005-35.918z M423.035,4.833
		c-6.147,0.65-11.326-0.318-15.523-2.912C411.709,0.952,416.888,1.919,423.035,4.833z M445.352,246.426
		c-8.414,1.939-15.524,2.258-21.345,0.969C431.115,245.137,438.233,244.811,445.352,246.426z M524.428,100.887
		c-2.91-6.464-5.822-9.376-8.732-8.731c-6.792,2.268-11.484,4.534-14.068,6.792c-2.592,1.939-1.939,6.472,1.94,13.582
		C511.647,108.65,518.605,104.767,524.428,100.887z"/>
</g>
<g enable-background="new    ">
	<path fill="#F44D8D" d="M430.817,484.053l-20.704-76.207h-0.254l-20.958,76.207h-12.576l-23.244-90.689h12.32l17.782,75.447h0.254
		l20.322-75.447h13.084l20.067,75.447h0.254l18.416-75.447h12.066l-24.26,90.689H430.817z"/>
</g>
</svg>
