<svg version="1.1" xmlns="http://www.w3.org/2000/svg" xmlns:xlink="http://www.w3.org/1999/xlink" viewBox="0 0 768 975" enable-background="new 0 0 768 975" xml:space="preserve">
<g id="circle">
	<circle fill="#DDE5CE" cx="384.51" cy="731.426" r="125.426"/>
</g>
<g id="ww">
	<g>
		<path fill="#CB394D" d="M360.183,761.398l-16.3-60h-0.2l-16.5,60h-9.9l-18.3-71.4h9.7l14,59.4h0.2l16-59.4h10.3l15.8,59.4h0.2
			l14.5-59.4h9.5l-19.101,71.4H360.183z"/>
		<path fill="#EA5F72" d="M443.982,761.398l-10.5-41.1h-0.199l-10.4,41.1h-9.2l-16.6-51.7h9.399l11.7,42.3h0.2l10.4-42.3h9.3
			l10.8,42.3h0.2l11.6-42.3h8.8l-16.5,51.7H443.982z"/>
	</g>
</g>
<g id="w">
	<g>
		<path fill="none" stroke="#DDE5CE" stroke-width="5" stroke-miterlimit="10" d="M266.272,117.557
			c-1.47-4.688-11.962-19.922-28.673-11.614c-16.721,13.073,3.666,42.761,10.576,65.612"/>
		<path fill="none" stroke="#DDE5CE" stroke-width="5" stroke-miterlimit="10" d="M473.726,323.833
			c-23.81-37.479-51.897-175.651-50.331-206.798c1.004-20.061-8.466-33.521-20.746-33.612
			c-13.444,1.999-17.975,12.395-19.708,20.365"/>
		<path fill="none" stroke="#DDE5CE" stroke-width="5" stroke-miterlimit="10" d="M468.215,509.604
			c-15.706-16.003-17.452-48.211-7.196-69.614c17.328-36.216,29.421-76.597,12.707-116.158"/>
		<path fill="none" stroke="#DDE5CE" stroke-width="5" stroke-miterlimit="10" d="M319.382,276.139
			c4.687,31.382,32.523,27.818,53.398,39.908c7.026,4.07,21.083,16.952,20.707,28.908c-0.298,9.706-4.787,27.393-1.712,38.748"/>
		<path fill="none" stroke="#DDE5CE" stroke-width="5" stroke-miterlimit="10" d="M473.726,323.833
			c-9.053-7.14-28.648-19.926-30.288-21.812c-22.284-25.674-44.337-41.621-60.307-42.385c-14.016-0.655-22.396,1.292-20.201,11.048
			c1.273,5.624-32.181,8.369-43.547,5.456"/>
		<path fill="none" stroke="#DDE5CE" stroke-width="5" stroke-miterlimit="10" d="M383.03,334.256
			c-29.795,32.545-0.881,88.048-24.564,122.754"/>
		<path fill="none" stroke="#DDE5CE" stroke-width="5" stroke-miterlimit="10" d="M368.144,312.69
			c-15.397,21.224-43.092,27.881-66.628,37.563"/>
		<path fill="none" stroke="#DDE5CE" stroke-width="5" stroke-miterlimit="10" d="M365.468,262.038
			c-14.119,3.34-36.622-0.943-47.968,14.101"/>
		<path fill="none" stroke="#DDE5CE" stroke-width="5" stroke-miterlimit="10" d="M382.94,103.788
			c-2.033,8.442-2.502,34.279,0.926,40.325c-2.622,9.48-3.136,52.717,0.612,63.041c-2.744,12.158-1.633,38.882,1.297,42.026
			c2.935,3.143,6.972,1.644,6.972,1.644"/>
		<path fill="none" stroke="#DDE5CE" stroke-width="5" stroke-miterlimit="10" d="M385.775,249.179c0,0-1.983,3.204-5.726,3.553"/>
		<path fill="none" stroke="#DDE5CE" stroke-width="5" stroke-miterlimit="10" d="M266.272,117.557
			c4.664,8.733,15.34,36.187,21.28,40.97c3.545,9.559,16.575,48.941,24.91,56.114c2.358,9.548,16.374,37.002,20.185,41.582
			l6.618-2.104"/>
		
			<line fill="none" stroke="#DDE5CE" stroke-width="5" stroke-miterlimit="10" x1="332.646" y1="256.223" x2="326.636" y2="260.927"/>
		<path fill="none" stroke="#DDE5CE" stroke-width="5" stroke-miterlimit="10" d="M248.175,171.555
			c20.736,48.761,27.051,51.759,26.105,51.08"/>
		<path fill="none" stroke="#DDE5CE" stroke-width="5" stroke-miterlimit="10" d="M326.725,292.989
			c-19.735,5.018-12.254,16.474-1.565,26.656c2.795,2.677,19.678-2.768,17.714-8.937c-1.841-5.792-2.143-6.079-6.717-9.295"/>
		<path fill="none" stroke="#DDE5CE" stroke-width="5" stroke-miterlimit="10" d="M329.504,570.12
			c-4.468-19.652,3.783-44.383-10.171-57.457c-9.128-8.52-18.966-13.98-25.315-24.82c-31.21-53.263-60.886-116.198-45.198-175.496
			c4.879-18.466-3.221-55.137-4.181-63.085c-3.878-31.956,28.638-33.471,43.209-13.471c4.322,5.922,26.556,39.769,34.414,51.433"/>
		<path fill="none" stroke="#DDE5CE" stroke-width="5" stroke-miterlimit="10" d="M334.83,318.874
			c-11.178,4.312-31.795-0.312-35.531-3.876c-5.288-5.051-40.628-38.725-43.294-51.612"/>
		<path fill="none" stroke="#DDE5CE" stroke-width="5" stroke-miterlimit="10" d="M346.04,76.024
			c-0.371-5.646-2.88-27.397-23.307-22.334c-19.079,1.201-8.284,52.797-6.903,77.596"/>
		<path fill="none" stroke="#DDE5CE" stroke-width="5" stroke-miterlimit="10" d="M346.04,76.024
			c2.801,11.019,6.253,42.643,8.705,53.045c1.364,11.63,8.909,57.686,16.115,67.879c0.045,11.343,9.094,48.747,12.052,54.871"/>
		<path fill="none" stroke="#DDE5CE" stroke-width="5" stroke-miterlimit="10" d="M315.83,131.286
			c1.667,10.306,4.306,53.633,11.815,62.496c-1.438,11.041,3.133,50.502,4.209,59.763"/>
		<path fill="none" stroke="#DDE5CE" stroke-width="5" stroke-miterlimit="10" d="M327.645,193.782
			c6.191,1.458,20.897-7.381,20.897-7.381"/>
		<path fill="none" stroke="#DDE5CE" stroke-width="5" stroke-miterlimit="10" d="M314.428,109.3
			c6.382,3.311,21.729-1.791,21.729-1.791"/>
		<path fill="none" stroke="#DDE5CE" stroke-width="5" stroke-miterlimit="10" d="M383.866,144.112
			c4.451,1.88,20.258,0.695,25.763-5.344"/>
		<path fill="none" stroke="#DDE5CE" stroke-width="5" stroke-miterlimit="10" d="M384.478,207.153
			c5.058,2.835,22.762,0.483,26.556-5.152"/>
		<path fill="none" stroke="#DDE5CE" stroke-width="5" stroke-miterlimit="10" d="M238.975,148.08
			c4.091,3.419,20.701-3.911,22.75-9.144"/>
		<path fill="none" stroke="#DDE5CE" stroke-width="5" stroke-miterlimit="10" d="M268.59,206.732
			c5.59,0.494,16.014,1.335,18.068-3.912"/>
	</g>
</g>
</svg>
