<svg version="1.1" xmlns="http://www.w3.org/2000/svg" viewBox="0 0 768 975" enable-background="new 0 0 768 975" xml:space="preserve"><circle fill="#DDE5CE" cx="384.5" cy="731.4" r="125.4"/><path fill="#CB394D" d="M326.8 690h11.4l17.8 27.9 18.6-27.9h10.6l-23.6 34.7 25.1 36.7h-11.6l-19.2-29.5 -19.8 29.5h-10.6l24.8-36.7L326.8 690z"/><path fill="#EA5F72" d="M393.9 709.7h10.9l12.4 18.1 12.9-18.1h10.2l-17.8 23.8 20 27.9h-10.9l-14.4-21.4 -14.4 21.4h-10.3l19.4-27.2L393.9 709.7z"/><path fill="none" stroke="#DDE5CE" stroke-width="5" stroke-miterlimit="10" d="M346.5 569.6c0-5.6-9.4-71.5-9.4-77.1 -5.6-5.6-16.9-11.3-16.9-11.3 -42.3-63-14.1-117.6-23.5-144.9"/><path fill="none" stroke="#DDE5CE" stroke-width="5" stroke-miterlimit="10" d="M399.2 196.2c-10.2-20.4-41.3-43-69.5-39.4"/><path fill="none" stroke="#DDE5CE" stroke-width="5" stroke-miterlimit="10" d="M329.8 156.8c-18.6 2.4-20.7 3.6-31.5 6.5 -11.4 5.4-31.2 10.5-33.5-1.9 -6.8-36.5 37-59 70.5-65.8"/><path fill="none" stroke="#DDE5CE" stroke-width="5" stroke-miterlimit="10" d="M335.2 95.5c15.7-3.2 50.9 0.6 72.4 6.6 17.2 4.8 46.1 38.6 51.7 49.9 16.9 33.9 39.5 62.1 50.8 101.6 11.3 90.3-16.9 127.9-11.3 212.6 2.3 33.8 11.3 73.4 11.3 107.2"/><path fill="none" stroke="#DDE5CE" stroke-width="5" stroke-miterlimit="10" d="M364.4 363.6c-5.6 49.9-15.4 55.5 16 102.5"/><path fill="none" stroke="#DDE5CE" stroke-width="5" stroke-miterlimit="10" d="M290.1 292.1c5.6-5.6 22.1-12.7 25.9-5.2 3.8 7.5 10.3 25.5 6.1 38.1 -1.9 5.7-11.3 9.4-18.8 1.9C299.9 323.5 288.2 301.5 290.1 292.1c-14.1-12.2-20.7-39.5-20.7-48 0-8.5 11.3-51.7 18.8-58.3 33.9-11.3 57.2-7 92.2 0 4.7 1 13.2 4.7 15.1 9.4 1.9 4.7 14.1-14.1 21.6 0"/><path fill="none" stroke="#DDE5CE" stroke-width="5" stroke-miterlimit="10" d="M322.4 156.2c10.2-7.7 17.3-24.2 15.6-31.6"/><path fill="none" stroke="#DDE5CE" stroke-width="5" stroke-miterlimit="10" d="M371.9 159.5c9.4-2.8 24.5-6.6 27.3-18.8"/><path fill="none" stroke="#DDE5CE" stroke-width="5" stroke-miterlimit="10" d="M395.5 195.2c1.9 6.6 0 16.9-5.7 22.6"/><path fill="none" stroke="#DDE5CE" stroke-width="5" stroke-miterlimit="10" d="M322.1 325c11.3-2.8 24.5-14.1 24.5-29.2 0-15-3.8-38.6-20.7-48"/><path fill="none" stroke="#DDE5CE" stroke-width="5" stroke-miterlimit="10" d="M338.1 258.3c4.7-4.7 16-20.7 3.8-36.7"/><path fill="none" stroke="#DDE5CE" stroke-width="5" stroke-miterlimit="10" d="M347.5 238.5c10.3 0.9 24.5 1.9 27.3-20.7"/><path fill="none" stroke="#DDE5CE" stroke-width="5" stroke-miterlimit="10" d="M371 235.7c8.5 0.9 24.5 8.5 31.1 15.1 10.3-1.9 35.7 0 48 11.3"/><path fill="none" stroke="#DDE5CE" stroke-width="5" stroke-miterlimit="10" d="M344.6 305.5c3.8 11.3 12.2 38.3 16 48.7"/><path fill="none" stroke="#DDE5CE" stroke-width="5" stroke-miterlimit="10" d="M282.9 194.3c-7.5 1.9-22 11.3-25.7 18.8 -3.8 7.5-4.7 38.6 0.9 50.8 5.7 12.2 13.2 21.6 18.8 32.9 5.7 11.3 14.1 36.7 19.8 39.5 5.6 2.8 12.2 0 15-3.8"/><path fill="none" stroke="#DDE5CE" stroke-width="5" stroke-miterlimit="10" d="M281.6 305.3c0.9-4.7 5.2-5.6 8.9-5.6"/><path fill="none" stroke="#DDE5CE" stroke-width="5" stroke-miterlimit="10" d="M254.6 226c-5.6 3.8-13.4 18.2-8.7 29.5 4.7 11.3 16.9 35.7 21.6 44.2 4.7 8.5 8.5 26.4 20.7 26.4"/><path fill="none" stroke="#DDE5CE" stroke-width="5" stroke-miterlimit="10" d="M267.5 299.6c3.7-5.6 9.4-2.8 9.4-2.8"/></svg>