<svg version="1.1" xmlns="http://www.w3.org/2000/svg" xmlns:xlink="http://www.w3.org/1999/xlink" viewBox="0 0 768 975" enable-background="new 0 0 768 975" xml:space="preserve">
<g id="circle">
	<circle fill="#DDE5CE" cx="384.51" cy="731.426" r="125.426"/>
</g>
<g id="xx">
	<g>
		<path fill="#CB394D" d="M326.833,689.998h11.4l17.8,27.9l18.6-27.9h10.601l-23.601,34.7l25.101,36.7h-11.601l-19.2-29.5
			l-19.8,29.5h-10.6l24.8-36.7L326.833,689.998z"/>
		<path fill="#EA5F72" d="M393.933,709.698h10.9l12.399,18.101l12.9-18.101h10.2l-17.8,23.8l20,27.9h-10.9l-14.4-21.4l-14.399,21.4
			h-10.3l19.399-27.2L393.933,709.698z"/>
	</g>
</g>
<g id="x">
	<g>
		<path fill="none" stroke="#DDE5CE" stroke-width="5" stroke-miterlimit="10" d="M346.532,569.602
			c0-5.643-9.412-71.482-9.412-77.126c-5.636-5.643-16.936-11.292-16.936-11.292c-42.317-63.03-14.118-117.583-23.508-144.861"/>
		<path fill="none" stroke="#DDE5CE" stroke-width="5" stroke-miterlimit="10" d="M399.213,196.183
			c-10.2-20.407-41.331-43-69.46-39.358"/>
		<path fill="none" stroke="#DDE5CE" stroke-width="5" stroke-miterlimit="10" d="M329.753,156.825
			c-18.618,2.392-20.676,3.599-31.55,6.452c-11.436,5.352-31.203,10.504-33.516-1.903c-6.772-36.519,36.972-59.019,70.544-65.847"/>
		<path fill="none" stroke="#DDE5CE" stroke-width="5" stroke-miterlimit="10" d="M335.231,95.527
			c15.701-3.201,50.879,0.596,72.441,6.58c17.184,4.784,46.094,38.556,51.729,49.855c16.929,33.85,39.507,62.078,50.792,101.578
			c11.301,90.328-16.936,127.939-11.285,212.588c2.257,33.786,11.285,73.377,11.285,107.243"/>
		<path fill="none" stroke="#DDE5CE" stroke-width="5" stroke-miterlimit="10" d="M364.405,363.6
			c-5.637,49.855-15.375,55.505,15.99,102.528"/>
		<path fill="none" stroke="#DDE5CE" stroke-width="5" stroke-miterlimit="10" d="M290.097,292.117
			c5.63-5.628,22.117-12.698,25.857-5.182c3.77,7.531,10.328,25.482,6.112,38.087c-1.882,5.657-11.278,9.426-18.796,1.91
			C299.871,323.533,288.208,301.522,290.097,292.117c-14.104-12.23-20.689-39.507-20.689-47.967
			c0-8.475,11.278-51.737,18.801-58.338c33.858-11.271,57.195-6.999,92.188,0c4.699,0.951,13.16,4.72,15.055,9.412
			c1.874,4.713,14.104-14.104,21.635,0"/>
		<path fill="none" stroke="#DDE5CE" stroke-width="5" stroke-miterlimit="10" d="M322.37,156.186
			c10.229-7.694,17.276-24.232,15.609-31.635"/>
		<path fill="none" stroke="#DDE5CE" stroke-width="5" stroke-miterlimit="10" d="M371.928,159.486
			c9.404-2.811,24.468-6.58,27.285-18.824"/>
		<path fill="none" stroke="#DDE5CE" stroke-width="5" stroke-miterlimit="10" d="M395.45,195.224
			c1.874,6.587,0,16.935-5.663,22.585"/>
		<path fill="none" stroke="#DDE5CE" stroke-width="5" stroke-miterlimit="10" d="M322.066,325.023
			c11.306-2.811,24.466-14.089,24.466-29.151c0-15.026-3.762-38.563-20.697-47.96"/>
		<path fill="none" stroke="#DDE5CE" stroke-width="5" stroke-miterlimit="10" d="M338.064,258.253
			c4.706-4.713,15.984-20.698,3.77-36.675"/>
		<path fill="none" stroke="#DDE5CE" stroke-width="5" stroke-miterlimit="10" d="M347.462,238.514
			c10.349,0.93,24.466,1.867,27.306-20.704"/>
		<path fill="none" stroke="#DDE5CE" stroke-width="5" stroke-miterlimit="10" d="M370.978,235.675
			c8.475,0.944,24.473,8.475,31.053,15.062c10.342-1.896,35.738,0,47.968,11.271"/>
		<path fill="none" stroke="#DDE5CE" stroke-width="5" stroke-miterlimit="10" d="M344.645,305.544
			c3.769,11.278,12.236,38.324,15.998,48.651"/>
		<path fill="none" stroke="#DDE5CE" stroke-width="5" stroke-miterlimit="10" d="M282.918,194.28
			c-7.53,1.903-21.986,11.308-25.741,18.831c-3.769,7.517-4.713,38.562,0.93,50.792c5.657,12.208,13.167,21.634,18.81,32.919
			c5.65,11.279,14.125,36.675,19.761,39.5c5.642,2.825,12.229,0,15.047-3.754"/>
		<path fill="none" stroke="#DDE5CE" stroke-width="5" stroke-miterlimit="10" d="M281.622,305.284
			c0.944-4.706,5.162-5.65,8.924-5.65"/>
		<path fill="none" stroke="#DDE5CE" stroke-width="5" stroke-miterlimit="10" d="M254.569,225.965
			c-5.642,3.769-13.391,18.185-8.684,29.471c4.712,11.292,16.921,35.731,21.641,44.198c4.706,8.468,8.468,26.354,20.683,26.354"/>
		<path fill="none" stroke="#DDE5CE" stroke-width="5" stroke-miterlimit="10" d="M267.525,299.633
			c3.748-5.643,9.391-2.811,9.391-2.811"/>
	</g>
</g>
</svg>
