<svg version="1.1" id="Layer_1" xmlns="http://www.w3.org/2000/svg" xmlns:xlink="http://www.w3.org/1999/xlink" viewBox="0 -275 768 980" enable-background="new 0 -275 768 980" xml:space="preserve">
<circle fill="#DDF2F2" cx="396.865" cy="439.479" r="97.564"/>
<polyline fill="none" points="233.928,324.559 233.928,-115.293 660.842,-115.293 660.842,324.559 "/>
<g enable-background="new    ">
	<path fill="#DDF2F2" d="M270.317,174.627l-17.95-31.048h17.95c6.792-62.096,22.876-110.928,48.27-146.508
		c25.387-35.574,62.339-61.612,110.853-78.106l1.456,3.88c-48.194,17.146-84.496,43.177-108.912,78.106
		c-24.422,34.928-40.024,82.47-46.814,142.626h17.95L270.317,174.627z M434.775,317.254h-8.732l-11.642-58.215
		c-6.148,2.258-11.4,3.637-15.767,4.125c-4.365,0.484-13.34-0.242-26.924-2.186c-13.266-2.592-22.558-4.607-27.894-6.061
		c-5.336-1.459-9.143-4.938-11.4-10.434c-5.504-0.316-10.354-2.1-14.554-5.336c-4.208-3.227-7.118-7.922-8.732-14.066
		c-7.443-0.32-11.567-3.473-12.372-9.461c-0.812-5.98-0.166-15.684,1.94-29.108c2.1-13.416,3.798-25.872,5.094-37.355
		c1.29-11.475,5.58-21.588,12.856-30.32c7.275-8.731,29.834-16.326,67.674-22.8c-2.266-8.08-3.638-16.084-4.124-24.014
		c-0.486-7.923,1.53-15.116,6.064-21.589c4.525-6.466,10.188-11.315,16.979-14.554c-3.562-6.138-5.662-13.34-6.306-21.588
		c-0.652-8.246,1.372-15.04,6.063-20.376c4.685-5.336,10.916-6.868,18.676-4.608c0-6.792,1.29-12.613,3.883-17.464
		c2.584-4.852,7.52-7.109,14.796-6.792c7.277,0.326,19.647,6.632,37.111,18.92c1.614-4.199,1.858-11.476,0.729-21.83
		c-1.136-10.348-6.548-20.936-16.252-31.775c-9.702-10.832-14.636-19.406-14.796-25.712c-0.166-6.307,1.456-11.318,4.852-15.04
		c3.396-3.714,8.893-4.526,16.494-2.426c7.594,2.107,14.63,6.716,21.103,13.825c6.466,7.118,12.447,15.366,17.951,24.742
		c8.08,15.851,14.311,32.67,18.678,50.454c4.367,17.792,7.035,30.646,8.004,38.568c0.969,7.928,1.533,16.008,1.699,24.256
		c0.16,8.246-0.484,23.37-1.941,45.359c-1.457,21.998-3.963,42.935-7.52,62.824c-3.562,19.891-3.238,9.3,0.969-31.775
		c5.496-49.484,6.223-84.656,2.184-105.517c-4.047-20.862-8.973-39.614-14.797-56.275c-5.82-16.654-12.779-30.154-20.859-40.509
		c-8.414-10.348-15.523-16.896-21.346-19.647c-5.822-2.744-10.756-3.312-14.796-1.698c-4.048,1.622-6.064,5.58-6.064,11.886
		c0,6.307,3.88,13.666,11.645,22.074c7.762,8.414,12.932,16.418,15.523,24.015c2.584,7.602,3.883,15.121,3.883,22.558
		c0,7.444-0.652,12.128-1.94,14.067c3.88,4.209,5.412,6.473,4.608,6.793c-0.812,0.325-2.994-0.803-6.551-3.395
		c-8.731-7.11-17.548-12.855-26.439-17.222c-8.898-4.366-15.282-5.412-19.162-3.154c-3.88,2.266-6.306,5.746-7.278,10.43
		c-0.97,4.692-1.456,11.727-1.456,21.104c5.822,1.622,16.812,5.502,32.99,11.642l16.494,4.366
		c-3.238-5.494-5.178-10.188-5.822-14.068c-0.651-3.88,0-4.199,1.94-0.97l7.275,15.526c9.051,3.235,18.269,13.266,27.654,30.078
		c8.732-5.17,9.049-4.368,0.967,2.426c6.793,13.264,7.922,16.576,3.398,9.943c-4.535-6.623-10.029-14.955-16.495-24.981
		c-6.474-10.022-17.95-16.328-34.444-18.92c-0.651,4.532-2.107,8.731-4.366,12.614c-2.592,2.266-6.147,2.266-10.672,0
		c-6.474-2.586-10.354-5.412-11.642-8.49c-1.296-3.07-0.326-7.521,2.91-13.342c-4.851-2.259-9.059-3.555-12.614-3.881
		c-6.148,3.562-7.36,9.627-3.638,18.194c3.714,8.572,13.659,19.002,29.836,31.292c5.821,4.532,12.128,7.762,18.92,9.702
		c0.644,7.762,0.644,14.236,0,19.406c13.584,6.472,13.744,7.602,0.485,3.394l4.851,3.88l-5.822-1.456
		c-2.91,4.208-6.792,8.574-11.642,13.101c19.08,7.444,32.26,17.062,39.538,28.866c7.275,11.808,16.736,39.863,28.381,84.17
		c11.641,44.305,20.535,78.908,26.68,103.816h-7.277c-26.197-99.937-42.531-157.585-48.998-172.949
		c-6.474-15.357-16.819-26.115-31.048-32.262c-14.235-6.14-28.304-9.861-42.206-11.158c-13.909-1.289-31.458,0.41-52.636,5.095
		c-21.186,4.691-35.582,9.945-43.176,15.768c-7.603,5.82-12.372,15.206-14.312,28.136c-1.939,12.94-2.107,22.316-0.485,28.137
		c1.615,5.821,2.744,9.869,3.396,12.128c5.168-2.91,8.893-3.396,11.158-1.456c2.26,1.939,3.882,4.775,4.852,8.49
		c0.971,3.72,1.456,6.548,1.456,8.487c0,1.942-0.81,3.396-2.424,4.368c-1.622,0.97-4.208,2.108-7.762,3.396
		c4.2,4.208,8.976,4.449,14.312,0.726c5.336-3.714,7.839-10.264,7.521-19.646l-0.97-32.021c3.882-1.616,6.55-3.152,8.004-4.61
		c1.456-1.455,3.153-3.636,5.094-6.548l2.426-10.672l0.486,11.642l2.912-7.762l0.483,8.732c7.763-0.645,14.713-3.07,20.86-7.278
		c6.14-4.2,8.248-4.442,6.306-0.728c-1.939,3.722-6.229,7.201-12.855,10.432c-6.632,3.236-13.022,4.692-19.162,4.366
		c-1.622,3.235-4.208,5.821-7.762,7.762v21.832c7.109-2.912,11.962-8.082,14.554-15.526c-8.414-3.88-8.656-5.336-0.728-4.365
		c7.922,0.97,14.796,1.052,20.617,0.242c5.822-0.803,11.4-1.698,16.738-2.669c5.336-0.97,6.708-0.644,4.124,0.971
		c-2.592,1.622-7.602,2.91-15.04,3.88c4.526,1.939,7.034,5.094,7.521,9.458c0.485,4.368-0.568,10.756-3.154,19.164
		c11.317-3.23,18.026-7.922,20.132-14.07c2.1-6.138,4.442-11.399,7.034-15.766c2.584-4.368,2.426-1.374-0.484,8.974
		c8.08-8.732,7.595-5.979-1.456,8.246c12.933-7.436,14.312-6.624,4.124,2.426c-10.188,9.059-20.132,14.395-29.836,16.01
		c-0.97,4.534-1.296,8.248-0.97,11.158c-27.166-0.97-44.146,3.562-50.938,13.584c-4.209,8.088-2.753,13.75,4.365,16.979
		c0.971-5.82,1.94-9.777,2.91-11.885c0.97-2.1,3.396-2.986,7.278-2.668c6.14,0.652,11.317,1.783,15.523,3.395
		c3.229,1.623,4.769,4.123,4.608,7.52c-0.166,3.396-0.729,6.709-1.698,9.947c12.614,1.615,20.376,2.184,23.286,1.699
		c2.912-0.486,7.036-1.539,12.372-3.154c5.336-1.623,15.842-8.732,31.534-21.346c15.684-12.614,25.144-23.362,28.38-32.26
		c3.229-8.893,5.252-16.412,6.063-22.559c0.805-6.14,1.698-11.399,2.669-15.768c0.97-4.366,1.857-4.526,2.668-0.484
		c0.804,4.046,0.485,13.099-0.971,27.166c-1.456,14.068-7.52,26.282-18.191,36.627c-10.672,10.355-23.612,20.375-38.811,30.078
		L434.775,317.254z M316.403,217.319c-1.94-3.23-3.88-7.521-5.822-12.858c-1.939-5.336-3.722-12.044-5.336-20.132
		c-0.97,8.414-1.939,15.366-2.91,20.862c-0.325,7.443,0.645,11.726,2.91,12.855C307.503,219.181,311.228,218.939,316.403,217.319z
		 M329.018,202.763c-1.297-7.109-3.078-11.315-5.336-12.613c-2.912-1.616-6.307-1.128-10.188,1.456
		c0.97,4.207,1.942,8.006,2.912,11.399c0.97,3.396,2.1,6.39,3.396,8.974c3.881-1.287,6.467-2.426,7.763-3.394
		C328.85,207.615,329.335,205.673,329.018,202.763z M342.602,220.229c7.436-6.466,21.346-9.703,41.72-9.703
		c0.318-5.496,1.13-10.265,2.426-14.311c1.288-4.042,1.858-8.324,1.698-12.855c-0.166-4.526-3.396-6.952-9.704-7.278
		c-6.306-0.318-10.672,1.378-13.098,5.094c-2.424,3.72-4.124,6.064-5.095,7.034l11.645,5.822l-13.098-4.366l10.188,7.276
		l-12.128-5.82c-2.266,2.91-5.178,4.691-8.732,5.336c0,4.208-0.567,8.33-1.697,12.372c-1.137,4.046-4.048,8.004-8.732,11.884
		c-4.692,3.881-10.43,4.369-17.222,1.455c-2.592,1.297-4.534,2.109-5.822,2.426c4.2,8.734,9.862,12.941,16.98,12.615
		C332.245,230.742,335.81,225.082,342.602,220.229z M371.707,254.188c0.97-2.266,1.614-5.18,1.94-8.732
		c0.317-3.553-1.136-5.98-4.366-7.279c-3.88-1.289-8.088-2.258-12.614-2.91c-4.534-0.643-7.202,0-8.004,1.941
		c-0.81,1.941-1.864,5.822-3.154,11.645C351.651,251.109,360.383,252.891,371.707,254.188z M445.447,98.947
		c-6.474-5.822-13.022-13.826-19.648-24.017c-6.632-10.188-13.666-22.071-21.104-35.655c-9.059,4.852-14.962,10.43-17.708,16.735
		c-2.75,6.307-3.804,12.614-3.154,18.92c0.645,6.307,1.94,13.185,3.88,20.62c6.792-1.29,13.099-1.941,18.92-1.941l-3.396-4.853
		c-7.762-16.168-5.336-14.552,7.278,4.853c3.554-0.318,7.762-0.242,12.613,0.241C427.983,94.337,435.419,96.035,445.447,98.947z
		 M451.753,91.183l-5.821,4.853c2.911,3.88,5.897,4.292,8.974,1.212c3.07-3.07,5.336-5.578,6.792-7.521
		c1.456-1.939,2.426-4.525,2.912-7.762c0.486-3.228,0.728-9.216,0.728-17.95c-5.178-0.97-13.266-5.737-24.256-14.312
		c-10.998-8.564-18.602-16.736-22.8-24.498c-5.822-10.992-4.692-19.08,3.396-24.256c0-2.912,0-5.656,0-8.248
		c-9.059-2.91-15.364-0.242-18.921,8.004c-3.562,8.248-3.319,17.548,0.729,27.896c4.04,10.354,10.43,22.398,19.162,36.141
		c8.731,13.752,16.008,23.53,21.832,29.352C453.529,86.985,455.953,86.015,451.753,91.183z M443.507,26.663
		c7.437,4.852,11.962,1.136,13.584-11.158c-7.117-2.584-13.909-5.17-20.376-7.762c-3.562,6.792-4.289,11.242-2.182,13.342
		C436.631,23.191,439.625,25.047,443.507,26.663z M489.594-68.909c-4.851,2.267-8.414,3.562-10.673,3.88l4.853-3.396L489.594-68.909
		z M488.623,38.791c-0.651,2.592-1.296,4.208-1.939,4.852c-0.652,0.65-2.267,1.782-4.853,3.395
		C483.121,44.127,485.387,41.383,488.623,38.791z M503.662-42.225c-0.971,1.939-2.593,3.153-4.851,3.638
		c-2.267,0.486-4.853-0.076-7.763-1.698L503.662-42.225z"/>
</g>
<g enable-background="new    ">
	<path fill="#F44D8D" d="M361.375,393.363h14.48l22.607,35.438l23.624-35.438h13.464l-29.976,44.074l31.88,46.615h-14.734
		l-24.388-37.467l-25.147,37.467h-13.465l31.5-46.615L361.375,393.363z"/>
</g>
</svg>
