<svg version="1.1" id="Layer_1" xmlns="http://www.w3.org/2000/svg" xmlns:xlink="http://www.w3.org/1999/xlink" viewBox="0 -275 768 980" enable-background="new 0 -275 768 980" xml:space="preserve">
<circle fill="#DDF2F2" cx="396.162" cy="446.614" r="97.564"/>
<polyline fill="none" points="213.23,317.425 213.23,-122.426 640.143,-122.426 640.143,317.425 "/>
<g enable-background="new    ">
	<path fill="#DDF2F2" d="M289.398,79.684c4.2-3.228,7.034-5.579,8.49-7.035s2.424-3.712,2.91-6.792
		c0.485-3.07,2.342-5.58,5.58-7.521c-11.969-10.348-22.4-19.479-31.293-27.41c-8.897-7.922-15.363-12.614-19.405-14.067
		c-4.046-1.456-7.276-1.374-9.702,0.241c-2.426,1.624-2.668,5.263-0.729,10.916c1.94,5.662,12.933,23.37,32.988,53.122
		c20.05,29.761,31.048,48.028,32.99,54.82c8.406,30.402,15.766,51.506,22.074,63.308c6.306,11.811,13.5,23.286,21.588,34.444
		c8.082,11.158,14.228,22.875,18.436,35.172c4.2,12.289,6.466,26.031,6.792,41.236h-7.762c-0.97-26.85-7.118-48.271-18.435-64.279
		c-11.325-16.012-20.3-30.562-26.924-43.663c-6.632-13.098-11.886-26.516-15.766-40.266c-3.88-13.742-7.202-23.604-9.946-29.592
		c-2.752-5.98-11.399-19.162-25.954-39.54c-25.878-38.158-38.978-60.641-39.296-67.433c-0.326-6.792,0.886-11.644,3.639-14.554
		c2.743-2.91,6.867-4.2,12.371-3.88c5.496,0.326,16.253,7.362,32.261,21.104c16.008,13.75,26.113,22.398,30.319,25.954l11.645-1.939
		c1.288-6.141,4.366-10.832,9.216-14.068c4.852-3.229,13.416-4.368,25.712-3.396c1.29-5.496,3.798-9.778,7.521-12.856
		c3.714-3.07,9.46-4.61,17.221-4.61c7.762,0,17.625,4.124,29.592,12.372c11.961,8.248,26.514,21.914,43.662,40.994
		c6.141-11.644,14.312-24.658,24.5-39.052c10.188-14.388,20.619-22.558,31.293-24.5c10.672-1.94,17.707-0.318,21.104,4.852
		c3.395,5.179,4.123,10.757,2.182,16.736c-1.939,5.988-4.85,12.372-8.732,19.162c-3.879,6.792-9.543,16.904-16.979,30.322
		c-7.445,13.424-12.455,27.334-15.041,41.72c-2.592,14.394-6.23,27.652-10.916,39.78c-4.691,12.128-8.732,21.672-12.127,28.624
		c-3.396,6.958-6.23,13.826-8.49,20.617c-3.881,6.148,5.654,39.943,28.621,101.393h-8.732
		c-8.088-22.965-15.447-44.312-22.072-64.039c-6.633-19.721-8.898-32.577-6.793-38.565c2.1-5.981,6.467-16.252,13.098-30.806
		c6.625-14.554,11.318-27.168,14.07-37.84c2.744-10.674,5.01-21.104,6.793-31.292c1.773-10.188,4.768-18.353,8.973-24.498
		l-8.248-7.764l10.189,5.338l-10.672-9.704l11.641,6.306c4.527-8.406,9.219-16.653,14.07-24.742
		c-6.475-4.852-7.686-11.399-3.639-19.646c4.041-8.248,9.621-10.59,16.738-7.036c1.289-8.732-3.395-12.288-14.07-10.672
		c-10.027,1.294-22.154,13.992-36.383,38.082c-14.236,24.098-24.256,38.166-30.078,42.206c-5.822,4.048-3.883-1.856,5.822-17.708
		c-33.641-35.572-56.76-53.122-69.375-52.634c-12.614,0.483-18.601,8.897-17.95,25.226c0.645,16.334,5.496,32.586,14.555,48.754
		c5.821-6.792,9.862-9.05,12.127-6.792c4.199,3.562,7.035,7.118,8.49,10.672c1.455,3.562,1.455,5.906,0,7.036
		c-1.457,1.136-3.807,2.668-7.033,4.61c8.404,4.852,13.824,3.804,16.252-3.154c2.424-6.952,1.697-14.712-2.186-23.286
		c-3.879-8.565-6.791-14.796-8.73-18.678c-1.941-3.882-3.723-7.922-5.336-12.128l5.82,5.822c1.941-2.587,2.584-5.98,1.941-10.188
		c2.258,2.592,2.584,6.792,0.969,12.614c1.615-3.88,3.07-6.952,4.367-9.219l-1.941,11.158c1.941,2.912,3.715,5.822,5.336,8.732
		c4.201-4.2,7.279-6.548,9.219-7.034s-0.326,4.124-6.791,13.826c2.584,4.208,4.365,8.731,5.336,13.582
		c6.465-1.614,12.613-3.554,18.436-5.82c5.822-2.26,5.822-1.532,0,2.183c-5.822,3.722-11.811,6.231-17.951,7.52
		c1.291,7.446,0.076,13.508-3.637,18.194c-3.723,4.691-8.33,6.39-13.826,5.094c3.23,5.822,3.713,11.642,1.455,17.464
		c-3.881,6.146-9.057,9.216-15.523,9.216c-6.474,0-12.614-2.258-18.434-6.792c-3.238,4.534-8.414,6.958-15.523,7.278
		c-7.118,0.324-16.82-7.596-29.108-23.772c-18.76-22.96-27.334-40.91-25.712-53.85C297.318,75.97,293.596,78.07,289.398,79.684z
		 M280.18,50.578c-0.652,1.622-1.782,2.994-3.396,4.124c-1.622,1.136-2.752,1.866-3.396,2.184
		C275.328,53.002,277.588,50.904,280.18,50.578z M352.464,122.376c-10.028-11.96-16.82-22.876-20.376-32.746
		c-3.562-9.861-5.336-19.966-5.336-30.32c-12.614,1.622-18.677,7.444-18.192,17.465c0.484,10.027,4.282,19.888,11.4,29.592
		c5.821,9.058,13.258,18.436,22.315,28.136c0.645-3.88,1.774-6.624,3.396-8.246C347.286,124.642,349.554,123.346,352.464,122.376z
		 M380.602,120.92c5.496,4.534,11.158,10.188,16.98,16.979c2.258-5.171,1.131-10.347-3.396-15.524
		c-21.998-18.11-33.473-44.632-34.444-79.56c-10.672-0.645-17.708,0.649-21.104,3.88c-3.396,3.235-4.45,10.756-3.154,22.558
		c1.29,11.808,5.738,23.126,13.342,33.958c7.594,10.838,13.826,18.844,18.676,24.014c1.29-1.941,3.07-4.123,5.337-6.55
		C375.098,118.252,377.69,118.334,380.602,120.92z M365.076,137.9c-4.531-5.171-8.414-9.862-11.642-14.068
		c-3.562,0.97-5.988,2.184-7.278,3.638c-1.296,1.456-2.266,4.124-2.91,8.004c3.555,4.534,7.353,7.12,11.4,7.763
		C358.688,143.888,362.166,142.106,365.076,137.9z M363.622,236.38c8.08-1.287,14.712-1.455,19.891-0.484
		c-3.562,0.971-7.118,1.379-10.672,1.213C369.276,236.95,366.206,236.706,363.622,236.38z M396.609,138.87
		c-4.852-5.496-10.354-11.158-16.496-16.98c-2.266-2.258-4.29-2.584-6.063-0.968c-1.782,1.622-3.639,4.046-5.58,7.276
		c6.792,8.09,12.37,12.939,16.735,14.554C389.576,144.374,393.373,143.078,396.609,138.87z M379.632,240.261
		c8.081-1.295,14.385-1.457,18.92-0.484c-1.297,0.645-4.125,1.047-8.49,1.211C385.693,241.151,382.216,240.905,379.632,240.261z
		 M401.945,102.97c-1.939-3.554-3.879-6.306-5.822-8.246c-1.939-1.941-4.047-2.26-6.305-0.97c-2.266,1.296-4.535,3.562-6.792,6.792
		c4.201,5.504,8.248,9.872,12.128,13.1c2.912-1.615,5.094-3.069,6.549-4.367C403.16,107.99,403.236,105.882,401.945,102.97z
		 M386.908,229.104c5.822-1.289,11.803-2.184,17.949-2.668c6.141-0.486,12.615-0.889,19.406-1.213
		c-1.941,0.65-4.365,1.295-7.277,1.939c-2.912,0.652-6.717,1.213-11.4,1.699C400.895,229.347,394.67,229.429,386.908,229.104z
		 M402.432,235.413c5.496-1.943,12.615-2.586,21.346-1.943c-6.146,1.623-10.354,2.35-12.613,2.186
		C408.898,235.495,405.986,235.413,402.432,235.413z M529.535,27.776c-4.852-3.881-9.543-2.586-14.068,3.88
		c-4.852,7.762-4.047,14.394,2.426,19.89C522.092,43.466,525.975,35.538,529.535,27.776z"/>
</g>
<g enable-background="new    ">
	<path fill="#F44D8D" d="M399.34,491.187h-12.066v-37.088l-35.055-53.604h14.352l27.182,43.188l26.547-43.188h13.717l-34.674,53.604
		v37.088H399.34z"/>
</g>
</svg>
