<svg version="1.1" xmlns="http://www.w3.org/2000/svg" xmlns:xlink="http://www.w3.org/1999/xlink" viewBox="0 0 768 975" enable-background="new 0 0 768 975" xml:space="preserve">
<g id="circle">
	<circle fill="#DDE5CE" cx="384.51" cy="731.426" r="125.426"/>
</g>
<g id="yy">
	<g>
		<path fill="#CB394D" d="M361.883,761.398h-9.5v-29.2l-27.6-42.2h11.3l21.4,34l20.9-34h10.8l-27.3,42.2V761.398z"/>
		<path fill="#EA5F72" d="M421.083,768.299c-1,2.532-1.984,4.665-2.95,6.399c-0.967,1.733-2.034,3.15-3.2,4.25
			c-1.167,1.101-2.467,1.9-3.899,2.4c-1.435,0.5-3.085,0.75-4.95,0.75c-1,0-2-0.067-3-0.2c-1-0.135-1.968-0.367-2.9-0.7v-7.8
			c0.733,0.333,1.583,0.615,2.55,0.85c0.966,0.233,1.783,0.351,2.45,0.351c1.733,0,3.183-0.417,4.351-1.25
			c1.165-0.835,2.05-2.018,2.649-3.55l3.5-8.7l-20.5-51.4h9.601l15.1,42.3h0.2l14.5-42.3h9L421.083,768.299z"/>
	</g>
</g>
<g id="y">
	<g>
		<path fill="none" stroke="#DDE5CE" stroke-width="5" stroke-miterlimit="10" d="M238.757,260.735
			c-0.263,7.068,0.055-47.173,37.587-48.349c9.103,2.002,10.31-0.025,12.605,5.51c-9.783-9.68-7.723-34.325,11.868-40.917
			c17.607-5.944,26.52-8.524,39.678,5.778c-7.513-15.478,1.799-31.681,11.607-34.237c12.395-7.158,36.842-1.621,58.556,11.563
			c19.611,11.905,33.991,55.285,50.175,71.493"/>
		<path fill="none" stroke="#DDE5CE" stroke-width="5" stroke-miterlimit="10" d="M558.59,162
			c4.812,1.595,19.63,10.212,19.681,14.293c0.135,13.101-13.959,20.31-20.603,31.924c-9.577,16.755-32.374,49.562-41.406,64.818
			c-13.349,22.554-1.907,1.76-14.264,24.11c-11.977,21.676-12.053,19.617-19.947,42.507c-3.604,14.404-3.604,95.431,9.001,111.647
			c8.479,10.889,25.095,42.144,35.062,61.456"/>
		<path fill="none" stroke="#DDE5CE" stroke-width="5" stroke-miterlimit="10" d="M437.059,254.054
			c13.698-13.965,48.538-40.549,59.402-53.052c11.867-13.673,42.452-34.722,63.62-38.422"/>
		<path fill="none" stroke="#DDE5CE" stroke-width="5" stroke-miterlimit="10" d="M372.202,321.65
			c-11.417,27.397-45.012,73.819-27.015,108.05"/>
		<path fill="none" stroke="#DDE5CE" stroke-width="5" stroke-miterlimit="10" d="M340.495,182.758
			c0.331,1.131,29.641,68.773,32.24,77.297c4.729,15.535,26.33,39.163,39.171,6.089c-2.71-29.043-12.352-68.219-28.898-85.84"/>
		<path fill="none" stroke="#DDE5CE" stroke-width="5" stroke-miterlimit="10" d="M174.243,247.634c0,0,16.636-12.371-4.042-35.248
			c-17.754-19.648-37.212-47.154-59.091-25.789c-12.154,11.894,23.029,63.166,41.718,81.193
			c18.688,18.027,33.912,48.45,50.116,57.464c11.371,6.318,20.219,12.745,32.736,31.064c20.463,66.377,10.565,67.106,58.836,117.687
			c9.821,10.292,18.613,20.69,30.867,27.715c18.804,10.749,20.571,40.727,30.621,61.221"/>
		<path fill="none" stroke="#DDE5CE" stroke-width="5" stroke-miterlimit="10" d="M344.502,337.769
			c-24.417-5.384-77.604-77.828-105.745-77.033"/>
		<path fill="none" stroke="#DDE5CE" stroke-width="5" stroke-miterlimit="10" d="M287.586,215.335
			c5.512,4.272,42.91,54.636,45.319,58.234c8.543,12.827,28.357,41.629,42.761,36.246c14.404-5.41,16.203-19.814,14.404-25.223"/>
		<path fill="none" stroke="#DDE5CE" stroke-width="5" stroke-miterlimit="10" d="M274.971,309.503
			c-14.404-9.02-26.761-33.08-36.214-48.768"/>
		<path fill="none" stroke="#DDE5CE" stroke-width="5" stroke-miterlimit="10" d="M242.566,340.091
			c5.396-8.988,16.208-21.593,21.599-25.197"/>
		<path fill="none" stroke="#DDE5CE" stroke-width="5" stroke-miterlimit="10" d="M280.375,304.1"/>
		<path fill="none" stroke="#DDE5CE" stroke-width="5" stroke-miterlimit="10" d="M572.214,169.6
			c-8.2,7.622-20.794,17.417-24.372,26.921c-0.884,2.358,6.031,7.596,9.826,11.696"/>
		<path fill="none" stroke="#DDE5CE" stroke-width="5" stroke-miterlimit="10" d="M379.106,277.523
			c-4.266-5.772-12.911-10.457-17.368-5.913c-4.462,4.551-10.247,8.798-6.063,18.021c4.492,9.877,7.383,12.009,14.962,13.68
			c4.603,1.016,15.656-8.296,16.02-13.063C387.019,285.495,382.621,280.39,379.106,277.523z"/>
		<path fill="none" stroke="#DDE5CE" stroke-width="5" stroke-miterlimit="10" d="M357.182,313.508
			c-4.253-5.779-12.899-10.463-17.361-5.899c-4.468,4.539-10.246,8.797-6.052,18.027c4.176,9.223,10.331,12.643,14.953,13.667
			c4.614,1.023,15.663-8.296,16.03-13.057C365.095,321.479,360.696,316.355,357.182,313.508z"/>
		<path fill="none" stroke="#DDE5CE" stroke-width="5" stroke-miterlimit="10" d="M403.565,256.553
			c-0.839-5.447-1.519-16.904-12.655-13.292c-6.053,1.977-13.153,3.07-13.711,13.177c-0.541,10.121,3.324,16.006,6.94,19.057
			c3.617,3.04,17.722-0.107,20.241-4.17C406.896,267.27,405.378,260.697,403.565,256.553z"/>
		<path fill="none" stroke="#DDE5CE" stroke-width="5" stroke-miterlimit="10" d="M474.849,346.854
			c0,36.017,5.849,67.978-22.96,96.786"/>
		<path fill="none" stroke="#DDE5CE" stroke-width="5" stroke-miterlimit="10" d="M180.424,231.578
			c14.404,10.793,65.462,44.814,87.061,71.812"/>
		<path fill="none" stroke="#DDE5CE" stroke-width="5" stroke-miterlimit="10" d="M294.779,361.266"/>
	</g>
</g>
</svg>
