<svg version="1.1" xmlns="http://www.w3.org/2000/svg" viewBox="0 0 768 975" enable-background="new 0 0 768 975" xml:space="preserve"><circle fill="#DDE5CE" cx="384.5" cy="731.4" r="125.4"/><path fill="#CB394D" d="M361.9 761.4h-9.5v-29.2l-27.6-42.2h11.3l21.4 34 20.9-34h10.8l-27.3 42.2V761.4z"/><path fill="#EA5F72" d="M421.1 768.3c-1 2.5-2 4.7-2.9 6.4 -1 1.7-2 3.2-3.2 4.3 -1.2 1.1-2.5 1.9-3.9 2.4 -1.4 0.5-3.1 0.8-4.9 0.8 -1 0-2-0.1-3-0.2 -1-0.1-2-0.4-2.9-0.7v-7.8c0.7 0.3 1.6 0.6 2.6 0.9 1 0.2 1.8 0.4 2.5 0.4 1.7 0 3.2-0.4 4.4-1.2 1.2-0.8 2.1-2 2.6-3.5l3.5-8.7 -20.5-51.4h9.6l15.1 42.3h0.2l14.5-42.3h9L421.1 768.3z"/><path fill="none" stroke="#DDE5CE" stroke-width="5" stroke-miterlimit="10" d="M238.8 260.7c-0.3 7.1 0.1-47.2 37.6-48.3 9.1 2 10.3 0 12.6 5.5 -9.8-9.7-7.7-34.3 11.9-40.9 17.6-5.9 26.5-8.5 39.7 5.8 -7.5-15.5 1.8-31.7 11.6-34.2 12.4-7.2 36.8-1.6 58.6 11.6 19.6 11.9 34 55.3 50.2 71.5"/><path fill="none" stroke="#DDE5CE" stroke-width="5" stroke-miterlimit="10" d="M558.6 162c4.8 1.6 19.6 10.2 19.7 14.3 0.1 13.1-14 20.3-20.6 31.9 -9.6 16.8-32.4 49.6-41.4 64.8 -13.3 22.6-1.9 1.8-14.3 24.1 -12 21.7-12.1 19.6-19.9 42.5 -3.6 14.4-3.6 95.4 9 111.6 8.5 10.9 25.1 42.1 35.1 61.5"/><path fill="none" stroke="#DDE5CE" stroke-width="5" stroke-miterlimit="10" d="M437.1 254.1c13.7-14 48.5-40.5 59.4-53.1 11.9-13.7 42.5-34.7 63.6-38.4"/><path fill="none" stroke="#DDE5CE" stroke-width="5" stroke-miterlimit="10" d="M372.2 321.7c-11.4 27.4-45 73.8-27 108.1"/><path fill="none" stroke="#DDE5CE" stroke-width="5" stroke-miterlimit="10" d="M340.5 182.8c0.3 1.1 29.6 68.8 32.2 77.3 4.7 15.5 26.3 39.2 39.2 6.1 -2.7-29-12.4-68.2-28.9-85.8"/><path fill="none" stroke="#DDE5CE" stroke-width="5" stroke-miterlimit="10" d="M174.2 247.6c0 0 16.6-12.4-4-35.2 -17.8-19.6-37.2-47.2-59.1-25.8 -12.2 11.9 23 63.2 41.7 81.2 18.7 18 33.9 48.5 50.1 57.5 11.4 6.3 20.2 12.7 32.7 31.1 20.5 66.4 10.6 67.1 58.8 117.7 9.8 10.3 18.6 20.7 30.9 27.7 18.8 10.7 20.6 40.7 30.6 61.2"/><path fill="none" stroke="#DDE5CE" stroke-width="5" stroke-miterlimit="10" d="M344.5 337.8c-24.4-5.4-77.6-77.8-105.7-77"/><path fill="none" stroke="#DDE5CE" stroke-width="5" stroke-miterlimit="10" d="M287.6 215.3c5.5 4.3 42.9 54.6 45.3 58.2 8.5 12.8 28.4 41.6 42.8 36.2 14.4-5.4 16.2-19.8 14.4-25.2"/><path fill="none" stroke="#DDE5CE" stroke-width="5" stroke-miterlimit="10" d="M275 309.5c-14.4-9-26.8-33.1-36.2-48.8"/><path fill="none" stroke="#DDE5CE" stroke-width="5" stroke-miterlimit="10" d="M242.6 340.1c5.4-9 16.2-21.6 21.6-25.2"/><path fill="none" stroke="#DDE5CE" stroke-width="5" stroke-miterlimit="10" d="M280.4 304.1"/><path fill="none" stroke="#DDE5CE" stroke-width="5" stroke-miterlimit="10" d="M572.2 169.6c-8.2 7.6-20.8 17.4-24.4 26.9 -0.9 2.4 6 7.6 9.8 11.7"/><path fill="none" stroke="#DDE5CE" stroke-width="5" stroke-miterlimit="10" d="M379.1 277.5c-4.3-5.8-12.9-10.5-17.4-5.9 -4.5 4.6-10.2 8.8-6.1 18 4.5 9.9 7.4 12 15 13.7 4.6 1 15.7-8.3 16-13.1C387 285.5 382.6 280.4 379.1 277.5z"/><path fill="none" stroke="#DDE5CE" stroke-width="5" stroke-miterlimit="10" d="M357.2 313.5c-4.3-5.8-12.9-10.5-17.4-5.9 -4.5 4.5-10.2 8.8-6.1 18 4.2 9.2 10.3 12.6 15 13.7 4.6 1 15.7-8.3 16-13.1C365.1 321.5 360.7 316.4 357.2 313.5z"/><path fill="none" stroke="#DDE5CE" stroke-width="5" stroke-miterlimit="10" d="M403.6 256.6c-0.8-5.4-1.5-16.9-12.7-13.3 -6.1 2-13.2 3.1-13.7 13.2 -0.5 10.1 3.3 16 6.9 19.1 3.6 3 17.7-0.1 20.2-4.2C406.9 267.3 405.4 260.7 403.6 256.6z"/><path fill="none" stroke="#DDE5CE" stroke-width="5" stroke-miterlimit="10" d="M474.8 346.9c0 36 5.8 68-23 96.8"/><path fill="none" stroke="#DDE5CE" stroke-width="5" stroke-miterlimit="10" d="M180.4 231.6c14.4 10.8 65.5 44.8 87.1 71.8"/><path fill="none" stroke="#DDE5CE" stroke-width="5" stroke-miterlimit="10" d="M294.8 361.3"/></svg>