<svg version="1.1" xmlns="http://www.w3.org/2000/svg" xmlns:xlink="http://www.w3.org/1999/xlink" viewBox="0 0 768 975" enable-background="new 0 0 768 975" xml:space="preserve">
<g id="circle">
	<circle fill="#DDE5CE" cx="384.51" cy="731.426" r="125.426"/>
</g>
<g id="zz">
	<g>
		<path fill="#CB394D" d="M374.034,697.998h-41v-8h52.2v8l-44.3,55.4h45.5v8h-56.8v-8L374.034,697.998z"/>
		<path fill="#EA5F72" d="M426.934,717.198h-29.2v-7.5h40.2v5.8l-31.601,38.4h33v7.5h-43.6v-6.5L426.934,717.198z"/>
	</g>
</g>
<g id="z">
	<g>
		<path fill="none" stroke="#DDE5CE" stroke-width="5" stroke-miterlimit="10" d="M508.501,280.332
			c1.349,4.385,18.875,8.551,19.862,13.896c7.654,41.408,16.584,71.114,8.201,109.564c-2.477,11.368-1.483,24.638,2.456,36.531"/>
		<path fill="none" stroke="#DDE5CE" stroke-width="5" stroke-miterlimit="10" d="M307.938,247.103
			c1.049-28.623,9.538-47.712,29.666-44.523c7.429,3.178,11.786,2.625,13.784,7.411c-6.355-10.6-4.973-31.146,12.756-33.579
			c15.945-2.213,23.933-2.969,32.816,11.329"/>
		<path fill="none" stroke="#DDE5CE" stroke-width="5" stroke-miterlimit="10" d="M364.1,256
			c11.561,28.888,36.384,19.325,59.018,26.155c7.632,2.308,25.242,34.696,27.579,46.188c1.896,9.319,18.146,7.174,23.65,17.323"/>
		<path fill="none" stroke="#DDE5CE" stroke-width="5" stroke-miterlimit="10" d="M510.617,282.448
			c-7.665-3.562-14.963-11.836-19.304-14.969c-27.06-19.467-45.37-37.614-60.812-40.334c-9.939-1.761-29.753,4.134-24.661,12.522
			c15.73,25.914-36.433,28.237-41.74,18.662"/>
		<path fill="none" stroke="#DDE5CE" stroke-width="5" stroke-miterlimit="10" d="M423.117,282.155
			c4.497,0,10.827-9.621,13.699-12.791"/>
		<path fill="none" stroke="#DDE5CE" stroke-width="5" stroke-miterlimit="10" d="M448.901,320.215
			c-21.1,37.784,8.416,84.503-6.361,122.97"/>
		<path fill="none" stroke="#DDE5CE" stroke-width="5" stroke-miterlimit="10" d="M398.655,278.904
			c-9.89,23.729-14.27,60.694-34.556,75.234"/>
		<path fill="none" stroke="#DDE5CE" stroke-width="5" stroke-miterlimit="10" d="M404.192,235.905
			c-13.23,0.716-31.862,6.139-40.093,22.423"/>
		<path fill="none" stroke="#DDE5CE" stroke-width="5" stroke-miterlimit="10" d="M396.961,187.741
			c0.103,0.999,15.179,32.117,17.758,39.404"/>
		<path fill="none" stroke="#DDE5CE" stroke-width="5" stroke-miterlimit="10" d="M360.928,278.587
			c3.612,4.538,23.385,9.94,28.063,1.158"/>
		<path fill="none" stroke="#DDE5CE" stroke-width="5" stroke-miterlimit="10" d="M351.389,209.991
			c4.775,3.708,26.274,31.204,29.989,31.729"/>
		<path fill="none" stroke="#DDE5CE" stroke-width="5" stroke-miterlimit="10" d="M311.222,315.812
			c3.797-6.328,5.887-17.37,12.346-21.691"/>
		<path fill="none" stroke="#DDE5CE" stroke-width="5" stroke-miterlimit="10" d="M343.961,284.638"/>
		<path fill="none" stroke="#DDE5CE" stroke-width="5" stroke-miterlimit="10" d="M375.535,287.354"/>
		<path fill="none" stroke="#DDE5CE" stroke-width="5" stroke-miterlimit="10" d="M364.427,261.638
			c-5.249,4.668-7.598,10.515-3.499,16.95"/>
		<path fill="none" stroke="#DDE5CE" stroke-width="5" stroke-miterlimit="10" d="M526.535,290.001
			c-10.093-32.879-125.498-170.699-139.164-198.035c-8.799-17.622-23.385-24.559-33.899-18.7
			c-10.527,8.184-9.399,19.236-7.016,26.884"/>
		<path fill="none" stroke="#DDE5CE" stroke-width="5" stroke-miterlimit="10" d="M346.456,100.15
			c2.324,8.19,24.552,46.787,30.388,50.286c2.35,9.359,17.544,36.266,25.729,43.282c3.522,11.689,10.532,29.806,14.032,32.137"/>
		<path fill="none" stroke="#DDE5CE" stroke-width="5" stroke-miterlimit="10" d="M358.309,281.331
			c-13.868-17.526-29.679-33.545-54.051-32.851c-19.09,0.542-23.317,39.206-18.476,51.302c4.2,10.464,16.805,21.352,19.479,30.085
			c17.724,57.46,35.453,114.773,77.244,158.574c8.507,8.906,24.616,10.605,35.233,16.668c16.283,9.324,13.969,34.787,22.685,52.539"
			/>
		<path fill="none" stroke="#DDE5CE" stroke-width="5" stroke-miterlimit="10" d="M309.563,274.969
			c0.045,9.59,8.969,16.002,14.004,19.152c10.272,6.485,29.446,10.001,36.333-1.141c0.938-1.49-1.056-8.467-1.592-11.65"/>
		<path fill="none" stroke="#DDE5CE" stroke-width="5" stroke-miterlimit="10" d="M355.532,298.258
			c-17.883-6.847-18.413-28.041-4.635-24.864"/>
		<path fill="none" stroke="#DDE5CE" stroke-width="5" stroke-miterlimit="10" d="M327.574,297.226
			c-5.006,3.985-7.704,13.993-5.295,28.628c0-1.434,0-2.817,0-4.25"/>
		<path fill="none" stroke="#DDE5CE" stroke-width="5" stroke-miterlimit="10" d="M370.613,138.753
			c6.23,1.552,18.705-7.795,18.705-7.795"/>
		<path fill="none" stroke="#DDE5CE" stroke-width="5" stroke-miterlimit="10" d="M404.909,190.202
			c6.242,4.679,18.728-7.801,18.728-7.801"/>
		<path fill="#D69D3C" d="M263.686,84.182c9.956-3.691,22.329-10.007,29.989-16.679l-6.035,16.679l6.035,16.673
			C286.015,94.173,273.642,87.868,263.686,84.182z"/>
		<polyline fill="none" stroke="#D69D3C" stroke-width="3" stroke-miterlimit="10" points="239.64,84.182 157.008,84.182 
			191.739,132.217 		"/>
		<path fill="#D69D3C" d="M204.146,149.358c-8.839-5.898-21.181-12.236-31.092-14.511l17.057-4.893l9.984-14.659
			C199.176,125.409,201.295,139.114,204.146,149.358z"/>
		
			<line fill="none" stroke="#D69D3C" stroke-width="3" stroke-miterlimit="10" x1="218.801" y1="169.656" x2="273.065" y2="244.716"/>
		<path fill="#D69D3C" d="M285.474,261.858c-8.828-5.899-21.189-12.221-31.079-14.512l17.034-4.877l10.003-14.664
			C280.505,237.908,282.639,251.629,285.474,261.858z"/>
		
			<line fill="none" stroke="#D69D3C" stroke-width="3" stroke-miterlimit="10" x1="303.558" y1="286.891" x2="353.657" y2="356.204"/>
		<path fill="#D69D3C" d="M366.063,373.341c-8.821-5.904-21.178-12.22-31.089-14.518l17.069-4.883l9.99-14.664
			C361.107,349.409,363.225,363.107,366.063,373.341z"/>
		<polyline fill="none" stroke="#D69D3C" stroke-width="3" stroke-miterlimit="10" points="376.088,387.209 417.395,444.348 
			331.627,444.348 		"/>
		<path fill="#D69D3C" d="M310.455,444.348c9.979-3.703,22.33-9.997,29.989-16.679l-6.034,16.679l6.034,16.685
			C332.785,454.355,320.435,448.039,310.455,444.348z"/>
		
			<line fill="none" stroke="#D69D3C" stroke-width="3" stroke-miterlimit="10" x1="270.831" y1="444.348" x2="160.13" y2="444.348"/>
		<path fill="#D69D3C" d="M138.955,444.348c9.957-3.703,22.33-9.997,29.98-16.679l-6.025,16.679l6.025,16.685
			C161.285,454.355,148.912,448.039,138.955,444.348z"/>
	</g>
	<line fill="none" stroke="#D69D3C" stroke-width="3" stroke-miterlimit="10" x1="288" y1="84.18" x2="331.855" y2="84.182"/>
</g>
<g id="Layer_4">
	<g>
		<path fill-rule="evenodd" clip-rule="evenodd" fill="none" stroke="#DDE5CE" stroke-width="2" stroke-miterlimit="10" d="
			M69.625,578.755c4.004,3.987,4.242,9.109,0.956,12.372c-3.482,3.455-8.204,3.165-12.357-0.957
			c-9.448-9.382-18.87-18.791-28.213-28.277c-4.962-5.037-5.045-8.773-0.121-13.761c9.473-9.598,19.065-19.079,28.708-28.507
			c4.301-4.203,8.677-4.297,12.312-0.623c3.035,3.067,2.777,8.35-0.978,11.949c-5.011,4.803-10.275,9.341-15.432,13.991
			c0.377,0.595,0.752,1.189,1.13,1.784c3.051,0.009,6.101,0.021,9.15,0.024c16.658,0.025,33.316-0.035,49.972,0.137
			c3.633,0.037,5.485-1.011,6.986-4.599c5.968-14.271,19.312-21.415,35.672-19.668c12.444,1.328,24.501,12.889,27.12,26.001
			c3.297,16.513-6.964,33.585-23.051,38.347c-16.273,4.817-33.832-3.614-40.019-19.569c-1.297-3.347-2.847-4.419-6.36-4.397
			c-19.657,0.117-39.315-0.025-58.975-0.068c-0.299-0.001-0.598,0.158-2.51,0.694C59.485,569.149,64.679,573.827,69.625,578.755z"/>
	</g>
	<g>
		<path fill="#DDE5CE" d="M130.331,551.227c-0.507-0.367-1.154-0.551-1.943-0.551c-0.32,0-0.635,0.031-0.944,0.096
			s-0.584,0.17-0.824,0.32c-0.24,0.148-0.432,0.35-0.576,0.6c-0.144,0.25-0.216,0.562-0.216,0.936c0,0.352,0.104,0.639,0.312,0.855
			c0.208,0.219,0.485,0.398,0.832,0.537c0.346,0.139,0.738,0.254,1.176,0.344s0.882,0.189,1.336,0.297
			c0.453,0.105,0.898,0.23,1.336,0.375s0.829,0.34,1.176,0.584c0.347,0.246,0.624,0.555,0.832,0.928s0.312,0.844,0.312,1.408
			c0,0.607-0.137,1.129-0.408,1.561c-0.272,0.432-0.622,0.783-1.048,1.057c-0.427,0.271-0.904,0.469-1.433,0.592
			c-0.527,0.121-1.053,0.184-1.576,0.184c-0.64,0-1.245-0.08-1.815-0.24c-0.571-0.16-1.072-0.402-1.504-0.729
			c-0.433-0.324-0.773-0.74-1.024-1.248c-0.251-0.506-0.376-1.105-0.376-1.799h1.44c0,0.479,0.093,0.893,0.279,1.24
			c0.187,0.346,0.433,0.631,0.736,0.855c0.304,0.223,0.658,0.389,1.064,0.496c0.405,0.105,0.821,0.16,1.248,0.16
			c0.341,0,0.685-0.033,1.031-0.096c0.347-0.064,0.659-0.174,0.937-0.328c0.277-0.156,0.501-0.365,0.672-0.633
			c0.171-0.266,0.256-0.607,0.256-1.023c0-0.395-0.104-0.715-0.312-0.961c-0.208-0.244-0.485-0.445-0.832-0.6
			s-0.739-0.279-1.177-0.377c-0.438-0.096-0.882-0.193-1.336-0.295c-0.453-0.102-0.898-0.219-1.336-0.352
			c-0.438-0.135-0.829-0.311-1.176-0.529s-0.624-0.5-0.832-0.848c-0.208-0.346-0.312-0.781-0.312-1.303
			c0-0.576,0.117-1.076,0.352-1.496c0.234-0.422,0.547-0.77,0.937-1.041c0.389-0.271,0.832-0.475,1.327-0.607
			c0.496-0.133,1.006-0.201,1.528-0.201c0.587,0,1.131,0.07,1.632,0.209c0.502,0.139,0.941,0.357,1.32,0.656
			s0.677,0.674,0.896,1.127s0.339,0.996,0.36,1.625h-1.439C131.133,552.189,130.837,551.596,130.331,551.227z"/>
		<path fill="#DDE5CE" d="M144.515,561.092l-2.608-9.6h-0.032l-2.64,9.6h-1.584l-2.928-11.424h1.552l2.24,9.504h0.031l2.561-9.504
			h1.647l2.528,9.504h0.032l2.319-9.504h1.521l-3.056,11.424H144.515z"/>
		<path fill="#DDE5CE" d="M152.979,549.668v11.424h-1.521v-11.424H152.979z"/>
		<path fill="#DDE5CE" d="M161.346,549.668c1.152,0,2.024,0.295,2.616,0.887s0.888,1.422,0.888,2.488s-0.296,1.898-0.888,2.496
			s-1.464,0.891-2.616,0.881h-3.488v4.672h-1.52v-11.424H161.346z M160.834,555.139c0.864,0.012,1.496-0.164,1.896-0.527
			c0.4-0.363,0.601-0.885,0.601-1.568c0-0.682-0.2-1.203-0.601-1.561c-0.399-0.355-1.031-0.535-1.896-0.535h-2.977v4.191H160.834z"
			/>
		<path fill="#DDE5CE" d="M175.394,549.668v1.279h-6.368v3.633h5.937v1.279h-5.937v3.951h6.416v1.281h-7.936v-11.424H175.394z"/>
	</g>
</g>
</svg>
