<svg version="1.1" xmlns="http://www.w3.org/2000/svg" viewBox="0 0 768 975" enable-background="new 0 0 768 975" xml:space="preserve"><circle fill="#DDE5CE" cx="384.5" cy="731.4" r="125.4"/><path fill="#CB394D" d="M374 698h-41v-8h52.2v8l-44.3 55.4h45.5v8h-56.8v-8L374 698z"/><path fill="#EA5F72" d="M426.9 717.2h-29.2v-7.5h40.2v5.8l-31.6 38.4h33v7.5h-43.6v-6.5L426.9 717.2z"/><path fill="none" stroke="#DDE5CE" stroke-width="5" stroke-miterlimit="10" d="M508.5 280.3c1.3 4.4 18.9 8.6 19.9 13.9 7.7 41.4 16.6 71.1 8.2 109.6 -2.5 11.4-1.5 24.6 2.5 36.5"/><path fill="none" stroke="#DDE5CE" stroke-width="5" stroke-miterlimit="10" d="M307.9 247.1c1-28.6 9.5-47.7 29.7-44.5 7.4 3.2 11.8 2.6 13.8 7.4 -6.4-10.6-5-31.1 12.8-33.6 15.9-2.2 23.9-3 32.8 11.3"/><path fill="none" stroke="#DDE5CE" stroke-width="5" stroke-miterlimit="10" d="M364.1 256c11.6 28.9 36.4 19.3 59 26.2 7.6 2.3 25.2 34.7 27.6 46.2 1.9 9.3 18.1 7.2 23.7 17.3"/><path fill="none" stroke="#DDE5CE" stroke-width="5" stroke-miterlimit="10" d="M510.6 282.4c-7.7-3.6-15-11.8-19.3-15 -27.1-19.5-45.4-37.6-60.8-40.3 -9.9-1.8-29.8 4.1-24.7 12.5 15.7 25.9-36.4 28.2-41.7 18.7"/><path fill="none" stroke="#DDE5CE" stroke-width="5" stroke-miterlimit="10" d="M423.1 282.2c4.5 0 10.8-9.6 13.7-12.8"/><path fill="none" stroke="#DDE5CE" stroke-width="5" stroke-miterlimit="10" d="M448.9 320.2c-21.1 37.8 8.4 84.5-6.4 123"/><path fill="none" stroke="#DDE5CE" stroke-width="5" stroke-miterlimit="10" d="M398.7 278.9c-9.9 23.7-14.3 60.7-34.6 75.2"/><path fill="none" stroke="#DDE5CE" stroke-width="5" stroke-miterlimit="10" d="M404.2 235.9c-13.2 0.7-31.9 6.1-40.1 22.4"/><path fill="none" stroke="#DDE5CE" stroke-width="5" stroke-miterlimit="10" d="M397 187.7c0.1 1 15.2 32.1 17.8 39.4"/><path fill="none" stroke="#DDE5CE" stroke-width="5" stroke-miterlimit="10" d="M360.9 278.6c3.6 4.5 23.4 9.9 28.1 1.2"/><path fill="none" stroke="#DDE5CE" stroke-width="5" stroke-miterlimit="10" d="M351.4 210c4.8 3.7 26.3 31.2 30 31.7"/><path fill="none" stroke="#DDE5CE" stroke-width="5" stroke-miterlimit="10" d="M311.2 315.8c3.8-6.3 5.9-17.4 12.3-21.7"/><path fill="none" stroke="#DDE5CE" stroke-width="5" stroke-miterlimit="10" d="M344 284.6"/><path fill="none" stroke="#DDE5CE" stroke-width="5" stroke-miterlimit="10" d="M375.5 287.4"/><path fill="none" stroke="#DDE5CE" stroke-width="5" stroke-miterlimit="10" d="M364.4 261.6c-5.2 4.7-7.6 10.5-3.5 17"/><path fill="none" stroke="#DDE5CE" stroke-width="5" stroke-miterlimit="10" d="M526.5 290c-10.1-32.9-125.5-170.7-139.2-198 -8.8-17.6-23.4-24.6-33.9-18.7 -10.5 8.2-9.4 19.2-7 26.9"/><path fill="none" stroke="#DDE5CE" stroke-width="5" stroke-miterlimit="10" d="M346.5 100.2c2.3 8.2 24.6 46.8 30.4 50.3 2.4 9.4 17.5 36.3 25.7 43.3 3.5 11.7 10.5 29.8 14 32.1"/><path fill="none" stroke="#DDE5CE" stroke-width="5" stroke-miterlimit="10" d="M358.3 281.3c-13.9-17.5-29.7-33.5-54.1-32.9 -19.1 0.5-23.3 39.2-18.5 51.3 4.2 10.5 16.8 21.4 19.5 30.1 17.7 57.5 35.5 114.8 77.2 158.6 8.5 8.9 24.6 10.6 35.2 16.7 16.3 9.3 14 34.8 22.7 52.5"/><path fill="none" stroke="#DDE5CE" stroke-width="5" stroke-miterlimit="10" d="M309.6 275c0 9.6 9 16 14 19.2 10.3 6.5 29.4 10 36.3-1.1 0.9-1.5-1.1-8.5-1.6-11.6"/><path fill="none" stroke="#DDE5CE" stroke-width="5" stroke-miterlimit="10" d="M355.5 298.3c-17.9-6.8-18.4-28-4.6-24.9"/><path fill="none" stroke="#DDE5CE" stroke-width="5" stroke-miterlimit="10" d="M327.6 297.2c-5 4-7.7 14-5.3 28.6 0-1.4 0-2.8 0-4.2"/><path fill="none" stroke="#DDE5CE" stroke-width="5" stroke-miterlimit="10" d="M370.6 138.8c6.2 1.6 18.7-7.8 18.7-7.8"/><path fill="none" stroke="#DDE5CE" stroke-width="5" stroke-miterlimit="10" d="M404.9 190.2c6.2 4.7 18.7-7.8 18.7-7.8"/><path fill="#D69D3C" d="M263.7 84.2c10-3.7 22.3-10 30-16.7l-6 16.7 6 16.7C286 94.2 273.6 87.9 263.7 84.2z"/><polyline fill="none" stroke="#D69D3C" stroke-width="3" stroke-miterlimit="10" points="239.6 84.2 157 84.2 191.7 132.2 "/><path fill="#D69D3C" d="M204.1 149.4c-8.8-5.9-21.2-12.2-31.1-14.5l17.1-4.9 10-14.7C199.2 125.4 201.3 139.1 204.1 149.4z"/><line fill="none" stroke="#D69D3C" stroke-width="3" stroke-miterlimit="10" x1="218.8" y1="169.7" x2="273.1" y2="244.7"/><path fill="#D69D3C" d="M285.5 261.9c-8.8-5.9-21.2-12.2-31.1-14.5l17-4.9 10-14.7C280.5 237.9 282.6 251.6 285.5 261.9z"/><line fill="none" stroke="#D69D3C" stroke-width="3" stroke-miterlimit="10" x1="303.6" y1="286.9" x2="353.7" y2="356.2"/><path fill="#D69D3C" d="M366.1 373.3c-8.8-5.9-21.2-12.2-31.1-14.5l17.1-4.9 10-14.7C361.1 349.4 363.2 363.1 366.1 373.3z"/><polyline fill="none" stroke="#D69D3C" stroke-width="3" stroke-miterlimit="10" points="376.1 387.2 417.4 444.3 331.6 444.3 "/><path fill="#D69D3C" d="M310.5 444.3c10-3.7 22.3-10 30-16.7l-6 16.7 6 16.7C332.8 454.4 320.4 448 310.5 444.3z"/><line fill="none" stroke="#D69D3C" stroke-width="3" stroke-miterlimit="10" x1="270.8" y1="444.3" x2="160.1" y2="444.3"/><path fill="#D69D3C" d="M139 444.3c10-3.7 22.3-10 30-16.7l-6 16.7 6 16.7C161.3 454.4 148.9 448 139 444.3z"/><line fill="none" stroke="#D69D3C" stroke-width="3" stroke-miterlimit="10" x1="288" y1="84.2" x2="331.9" y2="84.2"/><path fill-rule="evenodd" clip-rule="evenodd" fill="none" stroke="#DDE5CE" stroke-width="2" stroke-miterlimit="10" d="M69.6 578.8c4 4 4.2 9.1 1 12.4 -3.5 3.5-8.2 3.2-12.4-1 -9.4-9.4-18.9-18.8-28.2-28.3 -5-5-5-8.8-0.1-13.8 9.5-9.6 19.1-19.1 28.7-28.5 4.3-4.2 8.7-4.3 12.3-0.6 3 3.1 2.8 8.4-1 11.9 -5 4.8-10.3 9.3-15.4 14 0.4 0.6 0.8 1.2 1.1 1.8 3.1 0 6.1 0 9.2 0 16.7 0 33.3 0 50 0.1 3.6 0 5.5-1 7-4.6 6-14.3 19.3-21.4 35.7-19.7 12.4 1.3 24.5 12.9 27.1 26 3.3 16.5-7 33.6-23.1 38.3 -16.3 4.8-33.8-3.6-40-19.6 -1.3-3.3-2.8-4.4-6.4-4.4 -19.7 0.1-39.3 0-59-0.1 -0.3 0-0.6 0.2-2.5 0.7C59.5 569.1 64.7 573.8 69.6 578.8z"/><path fill="#DDE5CE" d="M130.3 551.2c-0.5-0.4-1.2-0.6-1.9-0.6 -0.3 0-0.6 0-0.9 0.1s-0.6 0.2-0.8 0.3c-0.2 0.1-0.4 0.4-0.6 0.6 -0.1 0.3-0.2 0.6-0.2 0.9 0 0.4 0.1 0.6 0.3 0.9 0.2 0.2 0.5 0.4 0.8 0.5 0.3 0.1 0.7 0.3 1.2 0.3s0.9 0.2 1.3 0.3c0.5 0.1 0.9 0.2 1.3 0.4s0.8 0.3 1.2 0.6c0.3 0.2 0.6 0.6 0.8 0.9s0.3 0.8 0.3 1.4c0 0.6-0.1 1.1-0.4 1.6 -0.3 0.4-0.6 0.8-1 1.1 -0.4 0.3-0.9 0.5-1.4 0.6 -0.5 0.1-1.1 0.2-1.6 0.2 -0.6 0-1.2-0.1-1.8-0.2 -0.6-0.2-1.1-0.4-1.5-0.7 -0.4-0.3-0.8-0.7-1-1.2 -0.3-0.5-0.4-1.1-0.4-1.8h1.4c0 0.5 0.1 0.9 0.3 1.2 0.2 0.3 0.4 0.6 0.7 0.9 0.3 0.2 0.7 0.4 1.1 0.5 0.4 0.1 0.8 0.2 1.2 0.2 0.3 0 0.7 0 1-0.1 0.3-0.1 0.7-0.2 0.9-0.3 0.3-0.2 0.5-0.4 0.7-0.6 0.2-0.3 0.3-0.6 0.3-1 0-0.4-0.1-0.7-0.3-1 -0.2-0.2-0.5-0.4-0.8-0.6s-0.7-0.3-1.2-0.4c-0.4-0.1-0.9-0.2-1.3-0.3 -0.5-0.1-0.9-0.2-1.3-0.4 -0.4-0.1-0.8-0.3-1.2-0.5s-0.6-0.5-0.8-0.8c-0.2-0.3-0.3-0.8-0.3-1.3 0-0.6 0.1-1.1 0.4-1.5 0.2-0.4 0.5-0.8 0.9-1 0.4-0.3 0.8-0.5 1.3-0.6 0.5-0.1 1-0.2 1.5-0.2 0.6 0 1.1 0.1 1.6 0.2 0.5 0.1 0.9 0.4 1.3 0.7s0.7 0.7 0.9 1.1 0.3 1 0.4 1.6h-1.4C131.1 552.2 130.8 551.6 130.3 551.2z"/><path fill="#DDE5CE" d="M144.5 561.1l-2.6-9.6h0l-2.6 9.6h-1.6l-2.9-11.4h1.6l2.2 9.5h0l2.6-9.5h1.6l2.5 9.5h0l2.3-9.5h1.5l-3.1 11.4H144.5z"/><path fill="#DDE5CE" d="M153 549.7v11.4h-1.5v-11.4H153z"/><path fill="#DDE5CE" d="M161.3 549.7c1.2 0 2 0.3 2.6 0.9s0.9 1.4 0.9 2.5 -0.3 1.9-0.9 2.5 -1.5 0.9-2.6 0.9h-3.5v4.7h-1.5v-11.4H161.3zM160.8 555.1c0.9 0 1.5-0.2 1.9-0.5 0.4-0.4 0.6-0.9 0.6-1.6 0-0.7-0.2-1.2-0.6-1.6 -0.4-0.4-1-0.5-1.9-0.5h-3v4.2H160.8z"/><path fill="#DDE5CE" d="M175.4 549.7v1.3h-6.4v3.6h5.9v1.3h-5.9v4h6.4v1.3h-7.9v-11.4H175.4z"/></svg>